Track,Message Type,Note,Velocity,Time
1,note_on,71,42,240
1,note_on,68,42,0
1,note_on,75,51,0
1,note_on,75,0,120
1,note_on,68,0,0
1,note_on,71,0,0
1,note_on,66,51,0
1,note_on,66,0,120
1,note_on,75,51,240
1,note_on,71,42,0
1,note_on,68,42,0
1,note_on,68,0,120
1,note_on,71,0,0
1,note_on,75,0,0
1,note_on,66,51,0
1,note_on,66,0,120
1,note_on,75,51,240
1,note_on,68,42,0
1,note_on,71,42,0
1,note_on,71,0,120
1,note_on,68,0,0
1,note_on,75,0,0
1,note_on,66,51,0
1,note_on,66,0,120
1,note_on,68,44,240
1,note_on,71,44,0
1,note_on,75,52,0
1,note_on,75,0,120
1,note_on,71,0,0
1,note_on,68,0,0
1,note_on,66,52,0
1,note_on,66,0,120
1,note_on,68,44,240
1,note_on,75,52,0
1,note_on,71,44,0
1,note_on,71,0,120
1,note_on,75,0,0
1,note_on,68,0,0
1,note_on,66,52,0
1,note_on,66,0,120
1,note_on,68,44,240
1,note_on,71,44,0
1,note_on,75,52,0
1,note_on,75,0,120
1,note_on,71,0,0
1,note_on,68,0,0
1,note_on,66,52,0
1,note_on,66,0,120
1,note_on,77,42,240
1,note_on,83,42,0
1,note_on,87,51,0
1,note_on,87,0,120
1,note_on,83,0,0
1,note_on,77,0,0
1,note_on,85,51,0
1,note_on,85,0,120
1,note_on,87,51,240
1,note_on,83,42,0
1,note_on,77,42,0
1,note_on,77,0,120
1,note_on,83,0,0
1,note_on,87,0,0
1,note_on,85,51,0
1,note_on,85,0,120
1,note_on,87,51,240
1,note_on,83,42,0
1,note_on,77,42,0
1,note_on,77,0,120
1,note_on,83,0,0
1,note_on,87,0,0
1,note_on,85,51,0
1,note_on,85,0,120
1,note_on,83,44,240
1,note_on,77,44,0
1,note_on,87,52,0
1,note_on,87,0,120
1,note_on,77,0,0
1,note_on,83,0,0
1,note_on,85,52,0
1,note_on,85,0,120
1,note_on,87,52,240
1,note_on,83,44,0
1,note_on,77,44,0
1,note_on,77,0,120
1,note_on,83,0,0
1,note_on,87,0,0
1,note_on,85,52,0
1,note_on,85,0,120
1,note_on,87,52,240
1,note_on,77,44,0
1,note_on,83,44,0
1,note_on,83,0,120
1,note_on,77,0,0
1,note_on,87,0,0
1,note_on,85,52,0
1,note_on,85,0,120
1,note_on,63,35,240
1,note_on,66,35,0
1,note_on,70,35,0
1,note_on,70,0,120
1,note_on,66,0,0
1,note_on,63,0,0
1,note_on,61,35,0
1,note_on,61,0,118
1,note_on,61,35,242
1,note_on,70,35,0
1,note_on,66,35,0
1,note_on,66,0,60
1,note_on,70,0,0
1,note_on,61,0,0
1,note_on,70,35,420
1,note_on,66,35,0
1,note_on,61,35,0
1,note_on,61,0,60
1,note_on,66,0,0
1,note_on,70,0,0
1,note_on,70,35,420
1,note_on,66,35,0
1,note_on,63,35,0
1,note_on,63,0,120
1,note_on,66,0,0
1,note_on,70,0,0
1,note_on,61,35,0
1,note_on,61,0,118
1,note_on,70,35,242
1,note_on,61,35,0
1,note_on,66,35,0
1,note_on,66,0,60
1,note_on,61,0,0
1,note_on,70,0,0
1,note_on,61,35,420
1,note_on,66,35,0
1,note_on,70,35,0
1,note_on,70,0,60
1,note_on,66,0,0
1,note_on,61,0,0
1,note_on,71,35,420
1,note_on,65,35,0
1,note_on,63,35,0
1,note_on,63,0,120
1,note_on,65,0,0
1,note_on,71,0,0
1,note_on,61,35,0
1,note_on,61,0,118
1,note_on,65,36,242
1,note_on,63,36,0
1,note_on,71,36,0
1,note_on,71,0,120
1,note_on,63,0,0
1,note_on,65,0,0
1,note_on,61,36,0
1,note_on,61,0,120
1,note_on,71,38,240
1,note_on,65,38,0
1,note_on,63,38,0
1,note_on,63,0,120
1,note_on,65,0,0
1,note_on,71,0,0
1,note_on,61,38,0
1,note_on,61,0,120
1,note_on,71,39,240
1,note_on,63,39,0
1,note_on,65,39,0
1,note_on,65,0,120
1,note_on,63,0,0
1,note_on,71,0,0
1,note_on,61,39,0
1,note_on,61,0,120
1,note_on,63,41,240
1,note_on,65,41,0
1,note_on,71,41,0
1,note_on,71,0,120
1,note_on,65,0,0
1,note_on,63,0,0
1,note_on,61,42,0
1,note_on,61,0,118
1,note_on,63,43,242
1,note_on,71,43,0
1,note_on,65,43,0
1,note_on,65,0,120
1,note_on,71,0,0
1,note_on,63,0,0
1,note_on,61,44,0
1,note_on,61,0,120
1,note_on,63,35,240
1,note_on,66,35,0
1,note_on,70,35,0
1,note_on,70,0,120
1,note_on,66,0,0
1,note_on,63,0,0
1,note_on,61,35,0
1,note_on,61,0,118
1,note_on,61,35,242
1,note_on,66,35,0
1,note_on,70,35,0
1,note_on,70,0,60
1,note_on,66,0,0
1,note_on,61,0,0
1,note_on,66,35,420
1,note_on,61,35,0
1,note_on,70,35,0
1,note_on,70,0,60
1,note_on,61,0,0
1,note_on,66,0,0
1,note_on,63,35,420
1,note_on,66,35,0
1,note_on,70,35,0
1,note_on,70,0,120
1,note_on,66,0,0
1,note_on,63,0,0
1,note_on,61,35,0
1,note_on,61,0,118
1,note_on,61,35,242
1,note_on,70,35,0
1,note_on,66,35,0
1,note_on,66,0,60
1,note_on,70,0,0
1,note_on,61,0,0
1,note_on,70,35,420
1,note_on,66,35,0
1,note_on,61,35,0
1,note_on,61,0,60
1,note_on,66,0,0
1,note_on,70,0,0
1,note_on,71,35,420
1,note_on,65,35,0
1,note_on,63,35,0
1,note_on,63,0,120
1,note_on,65,0,0
1,note_on,71,0,0
1,note_on,61,35,0
1,note_on,61,0,120
1,note_on,71,36,240
1,note_on,63,36,0
1,note_on,65,36,0
1,note_on,65,0,120
1,note_on,63,0,0
1,note_on,71,0,0
1,note_on,61,36,0
1,note_on,61,0,120
1,note_on,63,38,240
1,note_on,65,38,0
1,note_on,71,38,0
1,note_on,71,0,120
1,note_on,65,0,0
1,note_on,63,0,0
1,note_on,61,38,0
1,note_on,61,0,120
1,note_on,63,39,240
1,note_on,71,39,0
1,note_on,65,39,0
1,note_on,65,0,120
1,note_on,71,0,0
1,note_on,63,0,0
1,note_on,61,39,0
1,note_on,61,0,120
1,note_on,63,41,240
1,note_on,65,41,0
1,note_on,71,41,0
1,note_on,71,0,120
1,note_on,65,0,0
1,note_on,63,0,0
1,note_on,61,42,0
1,note_on,61,0,120
1,note_on,63,43,240
1,note_on,65,43,0
1,note_on,71,43,0
1,note_on,71,0,120
1,note_on,65,0,0
1,note_on,63,0,0
1,note_on,61,44,0
1,note_on,61,0,120
1,note_on,61,58,0
1,note_on,66,58,0
1,note_on,66,0,360
1,note_on,61,0,0
1,note_on,66,55,0
1,note_on,70,55,0
1,note_on,70,0,120
1,note_on,66,0,0
1,note_on,70,57,0
1,note_on,73,57,0
1,note_on,73,0,120
1,note_on,70,0,0
1,note_on,73,61,120
1,note_on,78,61,0
1,note_on,78,0,120
1,note_on,73,0,0
1,note_on,78,66,120
1,note_on,82,66,0
1,note_on,82,0,120
1,note_on,78,0,0
1,note_on,85,63,120
1,note_on,82,63,0
1,note_on,82,0,120
1,note_on,85,0,0
1,note_on,90,76,120
1,note_on,85,76,0
1,note_on,85,0,240
1,note_on,90,0,0
1,note_on,102,85,240
1,note_on,97,85,0
1,note_on,90,85,0
1,note_on,90,0,480
1,note_on,97,0,0
1,note_on,102,0,0
1,note_on,78,67,480
1,note_on,90,67,0
1,note_on,90,0,240
1,note_on,78,0,0
1,note_on,92,69,0
1,note_on,80,69,0
1,note_on,80,0,240
1,note_on,92,0,0
1,note_on,82,71,0
1,note_on,94,71,0
1,note_on,94,0,480
1,note_on,82,0,0
1,note_on,80,68,0
1,note_on,92,68,0
1,note_on,92,0,240
1,note_on,80,0,0
1,note_on,90,65,0
1,note_on,78,65,0
1,note_on,80,53,120
1,note_on,92,53,0
1,note_on,92,0,60
1,note_on,90,0,0
1,note_on,78,0,0
1,note_on,80,0,0
1,note_on,82,53,0
1,note_on,94,53,0
1,note_on,94,0,60
1,note_on,82,0,0
1,note_on,92,68,0
1,note_on,80,68,0
1,note_on,80,0,480
1,note_on,92,0,0
1,note_on,78,59,0
1,note_on,90,59,0
1,note_on,90,0,240
1,note_on,78,0,0
1,note_on,87,57,0
1,note_on,75,57,0
1,note_on,75,0,240
1,note_on,87,0,0
1,note_on,73,55,0
1,note_on,85,55,0
1,note_on,85,0,480
1,note_on,73,0,0
1,note_on,68,62,0
1,note_on,80,62,0
1,note_on,74,62,0
1,note_on,80,0,240
1,note_on,68,0,0
1,note_on,82,64,0
1,note_on,70,64,0
1,note_on,70,0,240
1,note_on,82,0,0
1,note_on,74,0,0
1,note_on,71,66,0
1,note_on,74,66,0
1,note_on,83,66,0
1,note_on,83,0,480
1,note_on,74,0,0
1,note_on,71,0,0
1,note_on,73,59,0
1,note_on,80,59,0
1,note_on,68,59,0
1,note_on,68,0,240
1,note_on,80,0,0
1,note_on,82,53,0
1,note_on,70,53,0
1,note_on,70,0,240
1,note_on,82,0,0
1,note_on,73,0,0
1,note_on,78,62,0
1,note_on,70,62,0
1,note_on,66,62,0
1,note_on,66,0,240
1,note_on,70,0,0
1,note_on,78,0,0
1,note_on,63,35,0
1,note_on,66,35,0
1,note_on,70,35,0
1,note_on,70,0,120
1,note_on,66,0,0
1,note_on,63,0,0
1,note_on,61,35,0
1,note_on,61,0,120
1,note_on,61,35,240
1,note_on,66,35,0
1,note_on,70,35,0
1,note_on,70,0,60
1,note_on,66,0,0
1,note_on,61,0,0
1,note_on,66,35,420
1,note_on,61,35,0
1,note_on,70,35,0
1,note_on,70,0,60
1,note_on,61,0,0
1,note_on,66,0,0
1,note_on,63,35,420
1,note_on,66,35,0
1,note_on,70,35,0
1,note_on,70,0,120
1,note_on,66,0,0
1,note_on,63,0,0
1,note_on,61,35,0
1,note_on,61,0,118
1,note_on,61,35,242
1,note_on,70,35,0
1,note_on,66,35,0
1,note_on,66,0,60
1,note_on,70,0,0
1,note_on,61,0,0
1,note_on,70,35,420
1,note_on,66,35,0
1,note_on,61,35,0
1,note_on,61,0,60
1,note_on,66,0,0
1,note_on,70,0,0
1,note_on,71,35,420
1,note_on,65,35,0
1,note_on,63,35,0
1,note_on,63,0,120
1,note_on,65,0,0
1,note_on,71,0,0
1,note_on,61,35,0
1,note_on,61,0,120
1,note_on,71,36,240
1,note_on,63,36,0
1,note_on,65,36,0
1,note_on,65,0,120
1,note_on,63,0,0
1,note_on,71,0,0
1,note_on,61,36,0
1,note_on,61,0,120
1,note_on,63,38,240
1,note_on,65,38,0
1,note_on,71,38,0
1,note_on,71,0,120
1,note_on,65,0,0
1,note_on,63,0,0
1,note_on,61,38,0
1,note_on,61,0,120
1,note_on,63,39,240
1,note_on,71,39,0
1,note_on,65,39,0
1,note_on,65,0,120
1,note_on,71,0,0
1,note_on,63,0,0
1,note_on,61,39,0
1,note_on,61,0,120
1,note_on,63,41,240
1,note_on,65,41,0
1,note_on,71,41,0
1,note_on,71,0,120
1,note_on,65,0,0
1,note_on,63,0,0
1,note_on,61,42,0
1,note_on,61,0,120
1,note_on,63,43,240
1,note_on,65,43,0
1,note_on,71,43,0
1,note_on,71,0,120
1,note_on,65,0,0
1,note_on,63,0,0
1,note_on,61,44,0
1,note_on,61,0,120
1,note_on,70,35,240
1,note_on,66,35,0
1,note_on,63,35,0
1,note_on,63,0,120
1,note_on,66,0,0
1,note_on,70,0,0
1,note_on,61,35,0
1,note_on,61,0,118
1,note_on,70,35,242
1,note_on,66,35,0
1,note_on,61,35,0
1,note_on,61,0,60
1,note_on,66,0,0
1,note_on,70,0,0
1,note_on,70,35,420
1,note_on,61,35,0
1,note_on,66,35,0
1,note_on,66,0,60
1,note_on,61,0,0
1,note_on,70,0,0
1,note_on,63,35,420
1,note_on,66,35,0
1,note_on,70,35,0
1,note_on,70,0,120
1,note_on,66,0,0
1,note_on,63,0,0
1,note_on,61,35,0
1,note_on,61,0,118
1,note_on,61,35,242
1,note_on,66,35,0
1,note_on,70,35,0
1,note_on,70,0,60
1,note_on,66,0,0
1,note_on,61,0,0
1,note_on,66,35,420
1,note_on,61,35,0
1,note_on,70,35,0
1,note_on,70,0,60
1,note_on,61,0,0
1,note_on,66,0,0
1,note_on,63,35,420
1,note_on,65,35,0
1,note_on,71,35,0
1,note_on,71,0,120
1,note_on,65,0,0
1,note_on,63,0,0
1,note_on,61,35,0
1,note_on,61,0,120
1,note_on,63,36,240
1,note_on,71,36,0
1,note_on,65,36,0
1,note_on,65,0,120
1,note_on,71,0,0
1,note_on,63,0,0
1,note_on,61,36,0
1,note_on,61,0,120
1,note_on,63,38,240
1,note_on,65,38,0
1,note_on,71,38,0
1,note_on,71,0,120
1,note_on,65,0,0
1,note_on,63,0,0
1,note_on,61,38,0
1,note_on,61,0,120
1,note_on,63,39,240
1,note_on,65,39,0
1,note_on,71,39,0
1,note_on,71,0,120
1,note_on,65,0,0
1,note_on,63,0,0
1,note_on,61,39,0
1,note_on,61,0,120
1,note_on,71,41,240
1,note_on,65,41,0
1,note_on,63,41,0
1,note_on,63,0,120
1,note_on,65,0,0
1,note_on,71,0,0
1,note_on,61,42,0
1,note_on,61,0,118
1,note_on,71,43,242
1,note_on,65,43,0
1,note_on,63,43,0
1,note_on,63,0,120
1,note_on,65,0,0
1,note_on,71,0,0
1,note_on,61,44,0
1,note_on,61,0,120
1,note_on,66,58,0
1,note_on,61,58,0
1,note_on,61,0,360
1,note_on,66,0,0
1,note_on,66,55,0
1,note_on,70,55,0
1,note_on,70,0,120
1,note_on,66,0,0
1,note_on,70,57,0
1,note_on,73,57,0
1,note_on,73,0,120
1,note_on,70,0,0
1,note_on,73,61,120
1,note_on,78,61,0
1,note_on,78,0,120
1,note_on,73,0,0
1,note_on,78,66,120
1,note_on,82,66,0
1,note_on,82,0,120
1,note_on,78,0,0
1,note_on,85,63,120
1,note_on,82,63,0
1,note_on,82,0,120
1,note_on,85,0,0
1,note_on,90,76,120
1,note_on,85,76,0
1,note_on,85,0,240
1,note_on,90,0,0
1,note_on,90,85,240
1,note_on,97,85,0
1,note_on,102,85,0
1,note_on,102,0,480
1,note_on,97,0,0
1,note_on,90,0,0
1,note_on,78,61,480
1,note_on,90,61,0
1,note_on,90,0,240
1,note_on,78,0,0
1,note_on,92,63,0
1,note_on,80,63,0
1,note_on,80,0,240
1,note_on,92,0,0
1,note_on,82,66,0
1,note_on,94,66,0
1,note_on,94,0,480
1,note_on,82,0,0
1,note_on,80,62,0
1,note_on,92,62,0
1,note_on,92,0,240
1,note_on,80,0,0
1,note_on,78,60,0
1,note_on,90,60,0
1,note_on,92,49,120
1,note_on,80,49,0
1,note_on,80,0,60
1,note_on,78,0,0
1,note_on,90,0,0
1,note_on,92,0,0
1,note_on,82,49,0
1,note_on,94,49,0
1,note_on,94,0,60
1,note_on,82,0,0
1,note_on,92,62,0
1,note_on,80,62,0
1,note_on,80,0,480
1,note_on,92,0,0
1,note_on,78,58,0
1,note_on,90,58,0
1,note_on,90,0,240
1,note_on,78,0,0
1,note_on,89,56,0
1,note_on,77,56,0
1,note_on,77,0,240
1,note_on,89,0,0
1,note_on,75,53,0
1,note_on,87,53,0
1,note_on,87,0,480
1,note_on,75,0,0
1,note_on,66,57,0
1,note_on,77,54,240
1,note_on,77,0,240
1,note_on,75,62,0
1,note_on,75,0,480
1,note_on,66,0,0
1,note_on,66,60,0
1,note_on,72,60,0
1,note_on,72,0,240
1,note_on,80,56,0
1,note_on,80,0,240
1,note_on,66,0,0
1,note_on,77,57,0
1,note_on,65,57,0
1,note_on,65,0,240
1,note_on,77,0,0
1,note_on,58,35,0
1,note_on,61,35,0
1,note_on,65,35,0
1,note_on,65,0,120
1,note_on,61,0,0
1,note_on,58,0,0
1,note_on,56,35,0
1,note_on,56,0,115
1,note_on,56,35,245
1,note_on,61,35,0
1,note_on,65,35,0
1,note_on,65,0,60
1,note_on,61,0,0
1,note_on,56,0,0
1,note_on,61,35,420
1,note_on,56,35,0
1,note_on,65,35,0
1,note_on,65,0,60
1,note_on,56,0,0
1,note_on,61,0,0
1,note_on,58,35,420
1,note_on,61,35,0
1,note_on,65,35,0
1,note_on,65,0,120
1,note_on,61,0,0
1,note_on,58,0,0
1,note_on,56,35,0
1,note_on,56,0,110
1,note_on,56,35,250
1,note_on,65,35,0
1,note_on,61,35,0
1,note_on,61,0,60
1,note_on,65,0,0
1,note_on,56,0,0
1,note_on,65,35,420
1,note_on,61,35,0
1,note_on,56,35,0
1,note_on,56,0,60
1,note_on,61,0,0
1,note_on,65,0,0
1,note_on,66,35,420
1,note_on,60,35,0
1,note_on,58,35,0
1,note_on,58,0,120
1,note_on,60,0,0
1,note_on,66,0,0
1,note_on,56,35,0
1,note_on,56,0,110
1,note_on,66,36,250
1,note_on,58,36,0
1,note_on,60,36,0
1,note_on,60,0,120
1,note_on,58,0,0
1,note_on,66,0,0
1,note_on,56,36,0
1,note_on,56,0,120
1,note_on,58,38,240
1,note_on,60,38,0
1,note_on,66,38,0
1,note_on,66,0,120
1,note_on,60,0,0
1,note_on,58,0,0
1,note_on,56,38,0
1,note_on,56,0,120
1,note_on,58,39,240
1,note_on,66,39,0
1,note_on,60,39,0
1,note_on,60,0,120
1,note_on,66,0,0
1,note_on,58,0,0
1,note_on,56,39,0
1,note_on,56,0,120
1,note_on,58,41,240
1,note_on,60,41,0
1,note_on,66,41,0
1,note_on,66,0,120
1,note_on,60,0,0
1,note_on,58,0,0
1,note_on,56,42,0
1,note_on,56,0,110
1,note_on,58,43,250
1,note_on,60,43,0
1,note_on,66,43,0
1,note_on,66,0,120
1,note_on,60,0,0
1,note_on,58,0,0
1,note_on,56,44,0
1,note_on,56,0,120
1,note_on,65,35,240
1,note_on,61,35,0
1,note_on,58,35,0
1,note_on,58,0,120
1,note_on,61,0,0
1,note_on,65,0,0
1,note_on,56,35,0
1,note_on,56,0,110
1,note_on,65,35,250
1,note_on,61,35,0
1,note_on,56,35,0
1,note_on,56,0,60
1,note_on,61,0,0
1,note_on,65,0,0
1,note_on,65,35,420
1,note_on,56,35,0
1,note_on,61,35,0
1,note_on,61,0,60
1,note_on,56,0,0
1,note_on,65,0,0
1,note_on,58,35,420
1,note_on,61,35,0
1,note_on,65,35,0
1,note_on,65,0,120
1,note_on,61,0,0
1,note_on,58,0,0
1,note_on,56,35,0
1,note_on,56,0,110
1,note_on,56,35,250
1,note_on,61,35,0
1,note_on,65,35,0
1,note_on,65,0,60
1,note_on,61,0,0
1,note_on,56,0,0
1,note_on,61,35,420
1,note_on,56,35,0
1,note_on,65,35,0
1,note_on,65,0,60
1,note_on,56,0,0
1,note_on,61,0,0
1,note_on,58,35,420
1,note_on,60,35,0
1,note_on,66,35,0
1,note_on,66,0,120
1,note_on,60,0,0
1,note_on,58,0,0
1,note_on,56,35,0
1,note_on,56,0,110
1,note_on,58,36,250
1,note_on,66,36,0
1,note_on,60,36,0
1,note_on,60,0,120
1,note_on,66,0,0
1,note_on,58,0,0
1,note_on,56,36,0
1,note_on,56,0,120
1,note_on,58,38,240
1,note_on,60,38,0
1,note_on,66,38,0
1,note_on,66,0,120
1,note_on,60,0,0
1,note_on,58,0,0
1,note_on,56,38,0
1,note_on,56,0,120
1,note_on,58,39,240
1,note_on,60,39,0
1,note_on,66,39,0
1,note_on,66,0,120
1,note_on,60,0,0
1,note_on,58,0,0
1,note_on,56,39,0
1,note_on,56,0,120
1,note_on,66,41,240
1,note_on,60,41,0
1,note_on,58,41,0
1,note_on,58,0,120
1,note_on,60,0,0
1,note_on,66,0,0
1,note_on,56,42,0
1,note_on,56,0,110
1,note_on,66,43,250
1,note_on,60,43,0
1,note_on,58,43,0
1,note_on,58,0,120
1,note_on,60,0,0
1,note_on,66,0,0
1,note_on,56,44,0
1,note_on,56,0,120
1,note_on,61,58,0
1,note_on,56,58,0
1,note_on,56,0,360
1,note_on,61,0,0
1,note_on,61,55,0
1,note_on,65,55,0
1,note_on,61,0,118
1,note_on,65,0,2
1,note_on,65,57,0
1,note_on,68,57,0
1,note_on,68,0,120
1,note_on,65,0,0
1,note_on,68,61,120
1,note_on,73,61,0
1,note_on,73,0,120
1,note_on,68,0,0
1,note_on,73,66,120
1,note_on,77,66,0
1,note_on,77,0,120
1,note_on,73,0,0
1,note_on,80,63,120
1,note_on,77,63,0
1,note_on,77,0,120
1,note_on,80,0,0
1,note_on,73,76,120
1,note_on,85,76,0
1,note_on,80,76,0
1,note_on,80,0,240
1,note_on,85,0,0
1,note_on,73,0,0
1,note_on,97,85,240
1,note_on,89,85,0
1,note_on,85,85,0
1,note_on,85,0,480
1,note_on,89,0,0
1,note_on,97,0,0
1,note_on,75,61,480
1,note_on,87,61,0
1,note_on,87,0,240
1,note_on,75,0,0
1,note_on,89,63,0
1,note_on,77,63,0
1,note_on,77,0,240
1,note_on,89,0,0
1,note_on,78,66,0
1,note_on,90,66,0
1,note_on,90,0,480
1,note_on,78,0,0
1,note_on,80,62,0
1,note_on,92,62,0
1,note_on,92,0,240
1,note_on,80,0,0
1,note_on,90,60,0
1,note_on,78,60,0
1,note_on,77,49,120
1,note_on,89,49,0
1,note_on,89,0,60
1,note_on,90,0,0
1,note_on,78,0,0
1,note_on,77,0,0
1,note_on,78,49,0
1,note_on,90,49,0
1,note_on,90,0,60
1,note_on,78,0,0
1,note_on,89,62,0
1,note_on,77,62,0
1,note_on,77,0,480
1,note_on,89,0,0
1,note_on,75,55,0
1,note_on,87,55,0
1,note_on,87,0,240
1,note_on,75,0,0
1,note_on,89,52,0
1,note_on,77,52,0
1,note_on,77,0,240
1,note_on,89,0,0
1,note_on,73,50,0
1,note_on,85,50,0
1,note_on,85,0,480
1,note_on,73,0,0
1,note_on,70,52,0
1,note_on,82,52,0
1,note_on,76,52,0
1,note_on,82,0,240
1,note_on,70,0,0
1,note_on,85,54,0
1,note_on,73,54,0
1,note_on,73,0,240
1,note_on,85,0,0
1,note_on,76,0,0
1,note_on,71,56,0
1,note_on,75,56,0
1,note_on,83,56,0
1,note_on,83,0,480
1,note_on,75,0,0
1,note_on,71,0,0
1,note_on,73,50,0
1,note_on,80,50,0
1,note_on,68,50,0
1,note_on,68,0,240
1,note_on,80,0,0
1,note_on,82,45,0
1,note_on,70,45,0
1,note_on,70,0,240
1,note_on,82,0,0
1,note_on,73,0,0
1,note_on,78,52,0
1,note_on,70,52,0
1,note_on,66,52,0
1,note_on,66,0,240
1,note_on,70,0,0
1,note_on,78,0,0
1,note_on,63,35,0
1,note_on,66,35,0
1,note_on,70,35,0
1,note_on,70,0,120
1,note_on,66,0,0
1,note_on,63,0,0
1,note_on,61,35,0
1,note_on,61,0,110
1,note_on,61,35,250
1,note_on,66,35,0
1,note_on,70,35,0
1,note_on,70,0,60
1,note_on,66,0,0
1,note_on,61,0,0
1,note_on,66,35,420
1,note_on,61,35,0
1,note_on,70,35,0
1,note_on,70,0,60
1,note_on,61,0,0
1,note_on,66,0,0
1,note_on,63,35,420
1,note_on,66,35,0
1,note_on,70,35,0
1,note_on,70,0,120
1,note_on,66,0,0
1,note_on,63,0,0
1,note_on,61,35,0
1,note_on,61,0,110
1,note_on,61,35,250
1,note_on,70,35,0
1,note_on,66,35,0
1,note_on,66,0,60
1,note_on,70,0,0
1,note_on,61,0,0
1,note_on,70,35,420
1,note_on,66,35,0
1,note_on,61,35,0
1,note_on,61,0,60
1,note_on,66,0,0
1,note_on,70,0,0
1,note_on,71,35,420
1,note_on,65,35,0
1,note_on,63,35,0
1,note_on,63,0,120
1,note_on,65,0,0
1,note_on,71,0,0
1,note_on,61,35,0
1,note_on,61,0,110
1,note_on,71,36,250
1,note_on,63,36,0
1,note_on,65,36,0
1,note_on,65,0,120
1,note_on,63,0,0
1,note_on,71,0,0
1,note_on,61,36,0
1,note_on,61,0,120
1,note_on,63,38,240
1,note_on,65,38,0
1,note_on,71,38,0
1,note_on,71,0,120
1,note_on,65,0,0
1,note_on,63,0,0
1,note_on,61,38,0
1,note_on,61,0,120
1,note_on,63,39,240
1,note_on,71,39,0
1,note_on,65,39,0
1,note_on,65,0,120
1,note_on,71,0,0
1,note_on,63,0,0
1,note_on,61,39,0
1,note_on,61,0,120
1,note_on,63,41,240
1,note_on,65,41,0
1,note_on,71,41,0
1,note_on,71,0,120
1,note_on,65,0,0
1,note_on,63,0,0
1,note_on,61,42,0
1,note_on,61,0,120
1,note_on,63,43,240
1,note_on,65,43,0
1,note_on,71,43,0
1,note_on,71,0,120
1,note_on,65,0,0
1,note_on,63,0,0
1,note_on,61,44,0
1,note_on,61,0,120
1,note_on,70,35,240
1,note_on,66,35,0
1,note_on,63,35,0
1,note_on,63,0,120
1,note_on,66,0,0
1,note_on,70,0,0
1,note_on,61,35,0
1,note_on,61,0,110
1,note_on,70,35,250
1,note_on,66,35,0
1,note_on,61,35,0
1,note_on,61,0,60
1,note_on,66,0,0
1,note_on,70,0,0
1,note_on,70,35,420
1,note_on,61,35,0
1,note_on,66,35,0
1,note_on,66,0,60
1,note_on,61,0,0
1,note_on,70,0,0
1,note_on,63,35,420
1,note_on,66,35,0
1,note_on,70,35,0
1,note_on,70,0,120
1,note_on,66,0,0
1,note_on,63,0,0
1,note_on,61,35,0
1,note_on,61,0,110
1,note_on,61,35,250
1,note_on,66,35,0
1,note_on,70,35,0
1,note_on,70,0,60
1,note_on,66,0,0
1,note_on,61,0,0
1,note_on,66,35,420
1,note_on,61,35,0
1,note_on,70,35,0
1,note_on,70,0,60
1,note_on,61,0,0
1,note_on,66,0,0
1,note_on,63,35,420
1,note_on,65,35,0
1,note_on,71,35,0
1,note_on,71,0,120
1,note_on,65,0,0
1,note_on,63,0,0
1,note_on,61,35,0
1,note_on,61,0,110
1,note_on,63,36,250
1,note_on,71,36,0
1,note_on,65,36,0
1,note_on,65,0,120
1,note_on,71,0,0
1,note_on,63,0,0
1,note_on,61,36,0
1,note_on,61,0,120
1,note_on,63,38,240
1,note_on,65,38,0
1,note_on,71,38,0
1,note_on,71,0,120
1,note_on,65,0,0
1,note_on,63,0,0
1,note_on,61,38,0
1,note_on,61,0,120
1,note_on,63,39,240
1,note_on,65,39,0
1,note_on,71,39,0
1,note_on,71,0,120
1,note_on,65,0,0
1,note_on,63,0,0
1,note_on,61,39,0
1,note_on,61,0,120
1,note_on,71,41,240
1,note_on,65,41,0
1,note_on,63,41,0
1,note_on,63,0,120
1,note_on,65,0,0
1,note_on,71,0,0
1,note_on,61,42,0
1,note_on,61,0,120
1,note_on,71,43,240
1,note_on,65,43,0
1,note_on,63,43,0
1,note_on,63,0,120
1,note_on,65,0,0
1,note_on,71,0,0
1,note_on,61,44,0
1,note_on,61,0,120
1,note_on,66,58,0
1,note_on,61,58,0
1,note_on,61,0,360
1,note_on,66,0,0
1,note_on,66,55,0
1,note_on,70,55,0
1,note_on,70,0,120
1,note_on,66,0,0
1,note_on,70,57,0
1,note_on,73,57,0
1,note_on,73,0,120
1,note_on,70,0,0
1,note_on,73,61,120
1,note_on,78,61,0
1,note_on,78,0,120
1,note_on,73,0,0
1,note_on,78,66,120
1,note_on,82,66,0
1,note_on,82,0,120
1,note_on,78,0,0
1,note_on,85,63,120
1,note_on,82,63,0
1,note_on,82,0,120
1,note_on,85,0,0
1,note_on,90,76,120
1,note_on,85,76,0
1,note_on,85,0,240
1,note_on,90,0,0
1,note_on,90,85,240
1,note_on,97,85,0
1,note_on,102,85,0
1,note_on,102,0,480
1,note_on,97,0,0
1,note_on,90,0,0
1,note_on,61,50,480
1,note_on,66,50,0
1,note_on,66,0,120
1,note_on,61,0,0
1,note_on,66,46,120
1,note_on,68,46,0
1,note_on,68,0,120
1,note_on,66,0,0
1,note_on,66,53,120
1,note_on,69,53,0
1,note_on,69,0,480
1,note_on,66,0,0
1,note_on,66,48,0
1,note_on,71,48,0
1,note_on,71,0,120
1,note_on,66,0,0
1,note_on,66,37,120
1,note_on,69,44,0
1,note_on,69,0,120
1,note_on,66,0,0
1,note_on,68,37,0
1,note_on,68,0,60
1,note_on,69,37,0
1,note_on,69,0,60
1,note_on,65,39,0
1,note_on,68,47,0
1,note_on,68,0,480
1,note_on,65,0,0
1,note_on,71,61,0
1,note_on,74,61,0
1,note_on,74,0,240
1,note_on,73,57,0
1,note_on,73,0,240
1,note_on,71,0,0
1,note_on,69,60,0
1,note_on,78,60,0
1,note_on,78,0,480
1,note_on,69,0,0
1,note_on,69,50,0
1,note_on,72,50,0
1,note_on,77,61,0
1,note_on,77,0,240
1,note_on,81,59,0
1,note_on,81,0,240
1,note_on,72,0,0
1,note_on,69,0,0
1,note_on,69,45,0
1,note_on,73,45,0
1,note_on,81,56,0
1,note_on,81,0,480
1,note_on,73,0,0
1,note_on,69,0,0
1,note_on,68,45,0
1,note_on,72,45,0
1,note_on,76,55,0
1,note_on,76,0,480
1,note_on,72,0,0
1,note_on,68,0,0
1,note_on,66,38,240
1,note_on,69,38,0
1,note_on,73,38,0
1,note_on,73,0,120
1,note_on,69,0,0
1,note_on,66,0,0
1,note_on,64,38,0
1,note_on,64,0,110
1,note_on,64,38,250
1,note_on,69,38,0
1,note_on,73,38,0
1,note_on,73,0,60
1,note_on,69,0,0
1,note_on,64,0,0
1,note_on,69,38,420
1,note_on,64,38,0
1,note_on,73,38,0
1,note_on,76,38,0
1,note_on,76,0,60
1,note_on,69,0,0
1,note_on,64,0,0
1,note_on,73,0,0
1,note_on,69,45,180
1,note_on,73,55,0
1,note_on,73,0,120
1,note_on,69,0,0
1,note_on,69,41,120
1,note_on,74,50,0
1,note_on,74,0,120
1,note_on,69,0,0
1,note_on,70,47,120
1,note_on,76,58,0
1,note_on,76,0,480
1,note_on,70,0,0
1,note_on,70,48,0
1,note_on,77,52,0
1,note_on,77,0,120
1,note_on,70,0,0
1,note_on,70,37,120
1,note_on,76,48,0
1,note_on,76,0,120
1,note_on,70,0,0
1,note_on,74,46,0
1,note_on,74,0,60
1,note_on,76,45,0
1,note_on,76,0,60
1,note_on,70,44,0
1,note_on,74,57,0
1,note_on,74,0,480
1,note_on,70,0,0
1,note_on,65,54,0
1,note_on,72,54,0
1,note_on,72,0,120
1,note_on,65,0,0
1,note_on,65,50,120
1,note_on,70,50,0
1,note_on,70,0,120
1,note_on,65,0,0
1,note_on,64,55,120
1,note_on,69,55,0
1,note_on,69,0,480
1,note_on,64,0,0
1,note_on,70,46,0
1,note_on,76,57,0
1,note_on,76,0,240
1,note_on,77,61,0
1,note_on,77,0,240
1,note_on,70,0,0
1,note_on,70,54,0
1,note_on,76,60,0
1,note_on,79,66,0
1,note_on,79,0,480
1,note_on,76,0,0
1,note_on,70,0,0
1,note_on,67,49,0
1,note_on,70,49,0
1,note_on,73,60,0
1,note_on,70,0,240
1,note_on,69,53,0
1,note_on,69,0,240
1,note_on,73,0,0
1,note_on,67,0,0
1,note_on,70,45,240
1,note_on,74,45,0
1,note_on,77,45,0
1,note_on,77,0,120
1,note_on,74,0,0
1,note_on,70,0,0
1,note_on,69,45,0
1,note_on,69,0,120
1,note_on,69,45,240
1,note_on,74,45,0
1,note_on,77,45,0
1,note_on,77,0,60
1,note_on,74,0,0
1,note_on,69,0,0
1,note_on,74,45,420
1,note_on,69,45,0
1,note_on,77,45,0
1,note_on,81,45,0
1,note_on,81,0,60
1,note_on,74,0,0
1,note_on,69,0,0
1,note_on,77,0,0
1,note_on,69,45,180
1,note_on,71,45,0
1,note_on,74,55,0
1,note_on,74,0,120
1,note_on,71,0,0
1,note_on,69,0,0
1,note_on,69,41,120
1,note_on,71,41,0
1,note_on,76,50,0
1,note_on,76,0,120
1,note_on,71,0,0
1,note_on,69,0,0
1,note_on,69,47,120
1,note_on,71,47,0
1,note_on,77,58,0
1,note_on,77,0,480
1,note_on,71,0,0
1,note_on,69,0,0
1,note_on,71,48,0
1,note_on,69,48,0
1,note_on,76,52,0
1,note_on,76,0,120
1,note_on,69,0,0
1,note_on,71,0,0
1,note_on,69,37,120
1,note_on,71,37,0
1,note_on,74,48,0
1,note_on,74,0,120
1,note_on,71,0,0
1,note_on,69,0,0
1,note_on,72,46,0
1,note_on,72,0,60
1,note_on,74,45,0
1,note_on,74,0,60
1,note_on,65,44,0
1,note_on,69,44,0
1,note_on,72,57,0
1,note_on,72,0,480
1,note_on,69,0,0
1,note_on,65,0,0
1,note_on,65,54,0
1,note_on,69,54,0
1,note_on,71,54,0
1,note_on,71,0,240
1,note_on,69,0,0
1,note_on,65,0,0
1,note_on,65,50,0
1,note_on,69,50,0
1,note_on,72,50,0
1,note_on,72,0,240
1,note_on,69,0,0
1,note_on,65,0,0
1,note_on,65,55,0
1,note_on,69,55,0
1,note_on,74,55,0
1,note_on,74,0,480
1,note_on,69,0,0
1,note_on,65,0,0
1,note_on,63,46,0
1,note_on,69,57,0
1,note_on,69,0,240
1,note_on,71,61,0
1,note_on,71,0,240
1,note_on,63,0,0
1,note_on,63,54,0
1,note_on,69,60,0
1,note_on,72,66,0
1,note_on,72,0,480
1,note_on,69,0,0
1,note_on,63,0,0
1,note_on,66,49,0
1,note_on,63,49,0
1,note_on,57,41,0
1,note_on,59,41,0
1,note_on,71,60,0
1,note_on,71,0,480
1,note_on,57,0,0
1,note_on,66,0,0
1,note_on,63,0,0
1,note_on,59,0,0
1,note_on,61,45,240
1,note_on,64,45,0
1,note_on,68,45,0
1,note_on,68,0,120
1,note_on,64,0,0
1,note_on,61,0,0
1,note_on,59,45,0
1,note_on,59,0,120
1,note_on,59,45,240
1,note_on,64,45,0
1,note_on,68,45,0
1,note_on,68,0,60
1,note_on,64,0,0
1,note_on,59,0,0
1,note_on,64,45,420
1,note_on,59,45,0
1,note_on,68,45,0
1,note_on,71,45,0
1,note_on,71,0,60
1,note_on,64,0,0
1,note_on,59,0,0
1,note_on,68,0,0
1,note_on,64,63,420
1,note_on,74,63,0
1,note_on,76,63,0
1,note_on,76,0,240
1,note_on,74,0,0
1,note_on,64,0,0
1,note_on,66,67,0
1,note_on,78,67,0
1,note_on,78,0,240
1,note_on,66,0,0
1,note_on,68,63,0
1,note_on,80,63,0
1,note_on,80,0,240
1,note_on,68,0,0
1,note_on,68,68,0
1,note_on,74,68,0
1,note_on,78,68,0
1,note_on,78,0,240
1,note_on,74,0,0
1,note_on,72,63,0
1,note_on,76,63,0
1,note_on,76,0,240
1,note_on,72,0,0
1,note_on,68,0,0
1,note_on,64,56,0
1,note_on,69,56,0
1,note_on,76,67,0
1,note_on,76,0,240
1,note_on,69,0,0
1,note_on,64,0,0
1,note_on,68,53,0
1,note_on,72,63,0
1,note_on,72,0,120
1,note_on,68,0,0
1,note_on,69,56,120
1,note_on,73,67,0
1,note_on,73,0,120
1,note_on,69,0,0
1,note_on,73,59,120
1,note_on,76,70,0
1,note_on,76,0,120
1,note_on,73,0,0
1,note_on,76,62,120
1,note_on,81,74,0
1,note_on,81,0,120
1,note_on,76,0,0
1,note_on,85,78,120
1,note_on,81,66,0
1,note_on,81,0,120
1,note_on,85,0,0
1,note_on,88,81,120
1,note_on,81,68,0
1,note_on,81,0,240
1,note_on,88,0,0
1,note_on,85,65,0
1,note_on,76,55,0
1,note_on,76,0,240
1,note_on,85,0,0
1,note_on,69,64,0
1,note_on,76,74,0
1,note_on,76,0,240
1,note_on,69,0,0
1,note_on,64,54,0
1,note_on,73,64,0
1,note_on,73,0,240
1,note_on,64,0,0
1,note_on,69,63,0
1,note_on,80,77,0
1,note_on,80,0,240
1,note_on,71,70,0
1,note_on,71,0,240
1,note_on,69,0,0
1,note_on,64,64,0
1,note_on,68,76,0
1,note_on,76,76,0
1,note_on,76,0,240
1,note_on,68,0,0
1,note_on,64,0,0
1,note_on,88,97,240
1,note_on,80,81,0
1,note_on,76,80,0
1,note_on,76,0,240
1,note_on,80,0,0
1,note_on,88,0,0
1,note_on,57,35,960
1,note_on,60,35,0
1,note_on,64,35,0
1,note_on,64,0,120
1,note_on,60,0,0
1,note_on,57,0,0
1,note_on,55,35,0
1,note_on,55,0,110
1,note_on,55,35,250
1,note_on,60,35,0
1,note_on,64,35,0
1,note_on,64,0,60
1,note_on,60,0,0
1,note_on,55,0,0
1,note_on,55,35,420
1,note_on,60,35,0
1,note_on,64,35,0
1,note_on,64,0,60
1,note_on,60,0,0
1,note_on,55,0,0
1,note_on,57,35,420
1,note_on,60,35,0
1,note_on,64,35,0
1,note_on,64,0,120
1,note_on,60,0,0
1,note_on,57,0,0
1,note_on,55,35,0
1,note_on,55,0,110
1,note_on,55,35,250
1,note_on,60,35,0
1,note_on,64,35,0
1,note_on,64,0,60
1,note_on,60,0,0
1,note_on,55,0,0
1,note_on,55,35,420
1,note_on,60,35,0
1,note_on,64,35,0
1,note_on,64,0,60
1,note_on,60,0,0
1,note_on,55,0,0
1,note_on,57,35,420
1,note_on,59,35,0
1,note_on,65,35,0
1,note_on,65,0,120
1,note_on,59,0,0
1,note_on,57,0,0
1,note_on,55,35,0
1,note_on,55,0,110
1,note_on,57,36,250
1,note_on,59,36,0
1,note_on,65,36,0
1,note_on,65,0,120
1,note_on,59,0,0
1,note_on,57,0,0
1,note_on,55,36,0
1,note_on,55,0,120
1,note_on,57,38,240
1,note_on,59,38,0
1,note_on,65,38,0
1,note_on,65,0,120
1,note_on,59,0,0
1,note_on,57,0,0
1,note_on,55,38,0
1,note_on,55,0,120
1,note_on,57,39,240
1,note_on,59,39,0
1,note_on,65,39,0
1,note_on,65,0,120
1,note_on,59,0,0
1,note_on,57,0,0
1,note_on,55,39,0
1,note_on,55,0,120
1,note_on,57,41,240
1,note_on,59,41,0
1,note_on,65,41,0
1,note_on,65,0,120
1,note_on,59,0,0
1,note_on,57,0,0
1,note_on,55,42,0
1,note_on,55,0,110
1,note_on,57,43,250
1,note_on,59,43,0
1,note_on,65,43,0
1,note_on,65,0,120
1,note_on,59,0,0
1,note_on,57,0,0
1,note_on,55,44,0
1,note_on,55,0,120
1,note_on,57,29,240
1,note_on,60,29,0
1,note_on,64,29,0
1,note_on,64,0,120
1,note_on,60,0,0
1,note_on,57,0,0
1,note_on,55,29,0
1,note_on,55,0,110
1,note_on,55,29,250
1,note_on,60,29,0
1,note_on,64,29,0
1,note_on,64,0,60
1,note_on,60,0,0
1,note_on,55,0,0
1,note_on,55,29,420
1,note_on,60,29,0
1,note_on,64,29,0
1,note_on,64,0,60
1,note_on,60,0,0
1,note_on,55,0,0
1,note_on,57,29,420
1,note_on,60,29,0
1,note_on,64,29,0
1,note_on,64,0,120
1,note_on,60,0,0
1,note_on,57,0,0
1,note_on,55,29,0
1,note_on,55,0,110
1,note_on,55,29,250
1,note_on,60,29,0
1,note_on,64,29,0
1,note_on,64,0,60
1,note_on,60,0,0
1,note_on,55,0,0
1,note_on,55,29,420
1,note_on,60,29,0
1,note_on,64,29,0
1,note_on,64,0,60
1,note_on,60,0,0
1,note_on,55,0,0
1,note_on,57,29,420
1,note_on,59,29,0
1,note_on,65,29,0
1,note_on,65,0,120
1,note_on,59,0,0
1,note_on,57,0,0
1,note_on,55,29,0
1,note_on,55,0,110
1,note_on,57,30,250
1,note_on,59,30,0
1,note_on,65,30,0
1,note_on,65,0,120
1,note_on,59,0,0
1,note_on,57,0,0
1,note_on,55,30,0
1,note_on,55,0,120
1,note_on,57,32,240
1,note_on,59,32,0
1,note_on,65,32,0
1,note_on,65,0,120
1,note_on,59,0,0
1,note_on,57,0,0
1,note_on,55,32,0
1,note_on,55,0,120
1,note_on,57,33,240
1,note_on,59,33,0
1,note_on,65,33,0
1,note_on,65,0,120
1,note_on,59,0,0
1,note_on,57,0,0
1,note_on,55,33,0
1,note_on,55,0,120
1,note_on,57,34,240
1,note_on,59,34,0
1,note_on,65,34,0
1,note_on,65,0,120
1,note_on,59,0,0
1,note_on,57,0,0
1,note_on,55,35,0
1,note_on,55,0,120
1,note_on,57,36,240
1,note_on,59,36,0
1,note_on,65,36,0
1,note_on,65,0,120
1,note_on,59,0,0
1,note_on,57,0,0
1,note_on,55,37,0
1,note_on,55,0,120
1,note_on,84,54,0
1,note_on,72,54,0
1,note_on,72,0,120
1,note_on,84,0,0
1,note_on,86,56,120
1,note_on,74,56,0
1,note_on,74,0,120
1,note_on,86,0,0
1,note_on,76,59,120
1,note_on,88,59,0
1,note_on,88,0,480
1,note_on,76,0,0
1,note_on,74,55,0
1,note_on,86,55,0
1,note_on,86,0,120
1,note_on,74,0,0
1,note_on,72,51,120
1,note_on,84,51,0
1,note_on,84,0,120
1,note_on,72,0,0
1,note_on,74,44,0
1,note_on,86,44,0
1,note_on,86,0,60
1,note_on,74,0,0
1,note_on,76,44,0
1,note_on,88,44,0
1,note_on,88,0,60
1,note_on,76,0,0
1,note_on,86,55,0
1,note_on,74,55,0
1,note_on,74,0,480
1,note_on,86,0,0
1,note_on,72,52,0
1,note_on,84,52,0
1,note_on,84,0,120
1,note_on,72,0,0
1,note_on,67,50,120
1,note_on,79,50,0
1,note_on,79,0,120
1,note_on,67,0,0
1,note_on,64,56,120
1,note_on,76,56,0
1,note_on,76,0,240
1,note_on,64,0,0
1,note_on,68,45,0
1,note_on,74,45,0
1,note_on,74,0,240
1,note_on,68,0,0
1,note_on,70,45,0
1,note_on,73,45,0
1,note_on,73,0,240
1,note_on,70,0,0
1,note_on,72,47,0
1,note_on,75,47,0
1,note_on,75,0,240
1,note_on,72,0,0
1,note_on,73,49,0
1,note_on,76,49,0
1,note_on,76,0,240
1,note_on,73,0,0
1,note_on,82,51,0
1,note_on,76,51,0
1,note_on,76,0,240
1,note_on,82,0,0
1,note_on,81,53,0
1,note_on,79,53,0
1,note_on,79,0,240
1,note_on,81,0,0
1,note_on,88,54,0
1,note_on,79,54,0
1,note_on,79,0,240
1,note_on,88,0,0
1,note_on,86,59,0
1,note_on,77,59,0
1,note_on,77,0,240
1,note_on,86,0,0
1,note_on,75,54,0
1,note_on,81,54,0
1,note_on,81,0,240
1,note_on,75,0,0
1,note_on,74,57,0
1,note_on,80,57,0
1,note_on,80,0,240
1,note_on,74,0,0
1,note_on,85,51,0
1,note_on,76,51,0
1,note_on,76,0,240
1,note_on,85,0,0
1,note_on,78,60,0
1,note_on,86,60,0
1,note_on,86,0,480
1,note_on,78,0,0
1,note_on,86,64,0
1,note_on,74,55,0
1,note_on,74,0,120
1,note_on,86,0,0
1,note_on,88,67,120
1,note_on,76,56,0
1,note_on,76,0,120
1,note_on,88,0,0
1,note_on,77,59,120
1,note_on,89,70,0
1,note_on,89,0,480
1,note_on,77,0,0
1,note_on,76,56,0
1,note_on,88,66,0
1,note_on,88,0,120
1,note_on,76,0,0
1,note_on,74,51,120
1,note_on,86,61,0
1,note_on,86,0,120
1,note_on,74,0,0
1,note_on,76,44,0
1,note_on,88,52,0
1,note_on,88,0,60
1,note_on,76,0,0
1,note_on,77,44,0
1,note_on,89,52,0
1,note_on,89,0,60
1,note_on,77,0,0
1,note_on,88,66,0
1,note_on,76,56,0
1,note_on,76,0,480
1,note_on,88,0,0
1,note_on,74,52,0
1,note_on,86,62,0
1,note_on,86,0,120
1,note_on,74,0,0
1,note_on,69,49,120
1,note_on,81,58,0
1,note_on,81,0,120
1,note_on,69,0,0
1,note_on,65,46,120
1,note_on,77,55,0
1,note_on,77,0,120
1,note_on,65,0,0
1,note_on,69,49,120
1,note_on,76,58,0
1,note_on,76,0,240
1,note_on,69,0,0
1,note_on,69,45,0
1,note_on,75,45,0
1,note_on,75,0,240
1,note_on,69,0,0
1,note_on,72,47,0
1,note_on,76,47,0
1,note_on,76,0,240
1,note_on,72,0,0
1,note_on,75,49,0
1,note_on,78,49,0
1,note_on,78,0,240
1,note_on,75,0,0
1,note_on,81,51,0
1,note_on,79,51,0
1,note_on,79,0,240
1,note_on,81,0,0
1,note_on,84,53,0
1,note_on,78,53,0
1,note_on,78,0,240
1,note_on,84,0,0
1,note_on,83,54,0
1,note_on,81,54,0
1,note_on,81,0,240
1,note_on,83,0,0
1,note_on,91,59,0
1,note_on,79,59,0
1,note_on,79,0,240
1,note_on,91,0,0
1,note_on,75,54,0
1,note_on,84,54,0
1,note_on,84,0,240
1,note_on,75,0,0
1,note_on,76,57,0
1,note_on,83,57,0
1,note_on,83,0,240
1,note_on,76,0,0
1,note_on,87,51,0
1,note_on,81,51,0
1,note_on,81,0,240
1,note_on,87,0,0
1,note_on,79,60,0
1,note_on,88,60,0
1,note_on,88,0,480
1,note_on,79,0,0
1,note_on,88,64,0
1,note_on,76,55,0
1,note_on,76,0,120
1,note_on,88,0,0
1,note_on,90,67,120
1,note_on,78,56,0
1,note_on,78,0,120
1,note_on,90,0,0
1,note_on,79,59,120
1,note_on,91,70,0
1,note_on,91,0,480
1,note_on,79,0,0
1,note_on,78,56,0
1,note_on,90,66,0
1,note_on,90,0,120
1,note_on,78,0,0
1,note_on,76,51,120
1,note_on,88,61,0
1,note_on,88,0,120
1,note_on,76,0,0
1,note_on,78,44,0
1,note_on,90,52,0
1,note_on,90,0,60
1,note_on,78,0,0
1,note_on,79,44,0
1,note_on,91,52,0
1,note_on,91,0,60
1,note_on,79,0,0
1,note_on,90,66,0
1,note_on,78,56,0
1,note_on,78,0,480
1,note_on,90,0,0
1,note_on,76,52,0
1,note_on,88,62,0
1,note_on,88,0,120
1,note_on,76,0,0
1,note_on,71,49,120
1,note_on,83,58,0
1,note_on,83,0,120
1,note_on,71,0,0
1,note_on,67,46,120
1,note_on,79,55,0
1,note_on,79,0,480
1,note_on,67,0,0
1,note_on,91,70,0
1,note_on,79,59,0
1,note_on,79,0,120
1,note_on,91,0,0
1,note_on,93,73,120
1,note_on,81,61,0
1,note_on,81,0,120
1,note_on,93,0,0
1,note_on,82,64,120
1,note_on,94,77,0
1,note_on,94,0,480
1,note_on,82,0,0
1,note_on,81,61,0
1,note_on,93,72,0
1,note_on,93,0,120
1,note_on,81,0,0
1,note_on,79,56,120
1,note_on,91,67,0
1,note_on,91,0,120
1,note_on,79,0,0
1,note_on,81,48,0
1,note_on,93,57,0
1,note_on,93,0,60
1,note_on,81,0,0
1,note_on,82,48,0
1,note_on,94,57,0
1,note_on,94,0,60
1,note_on,82,0,0
1,note_on,93,72,0
1,note_on,81,61,0
1,note_on,81,0,480
1,note_on,93,0,0
1,note_on,79,57,0
1,note_on,91,68,0
1,note_on,91,0,120
1,note_on,79,0,0
1,note_on,74,53,120
1,note_on,86,63,0
1,note_on,86,0,120
1,note_on,74,0,0
1,note_on,70,50,120
1,note_on,82,60,0
1,note_on,82,0,480
1,note_on,70,0,0
1,note_on,94,77,0
1,note_on,82,64,0
1,note_on,82,0,120
1,note_on,94,0,0
1,note_on,96,80,120
1,note_on,84,67,0
1,note_on,84,0,120
1,note_on,96,0,0
1,note_on,85,70,120
1,note_on,97,84,0
1,note_on,97,0,120
1,note_on,85,0,0
1,note_on,99,75,120
1,note_on,87,62,0
1,note_on,87,0,120
1,note_on,99,0,0
1,note_on,85,67,120
1,note_on,97,79,0
1,note_on,97,0,120
1,note_on,85,0,0
1,note_on,84,61,120
1,note_on,96,73,0
1,note_on,96,0,120
1,note_on,84,0,0
1,note_on,95,79,120
1,note_on,83,67,0
1,note_on,83,0,120
1,note_on,95,0,0
1,note_on,94,70,120
1,note_on,82,59,0
1,note_on,82,0,120
1,note_on,94,0,0
1,note_on,79,62,120
1,note_on,91,74,0
1,note_on,91,0,120
1,note_on,79,0,0
1,note_on,76,58,120
1,note_on,88,69,0
1,note_on,88,0,120
1,note_on,76,0,0
1,note_on,73,55,120
1,note_on,85,66,0
1,note_on,85,0,120
1,note_on,73,0,0
1,note_on,82,55,120
1,note_on,70,55,0
1,note_on,70,0,120
1,note_on,82,0,0
1,note_on,88,75,120
1,note_on,76,67,0
1,note_on,76,0,120
1,note_on,88,0,0
1,note_on,85,67,120
1,note_on,73,59,0
1,note_on,73,0,120
1,note_on,85,0,0
1,note_on,70,58,120
1,note_on,82,70,0
1,note_on,82,0,120
1,note_on,70,0,0
1,note_on,67,58,120
1,note_on,79,69,0
1,note_on,79,0,120
1,note_on,67,0,0
1,note_on,64,55,120
1,note_on,76,66,0
1,note_on,76,0,120
1,note_on,64,0,0
1,note_on,73,55,120
1,note_on,61,55,0
1,note_on,61,0,120
1,note_on,73,0,0
1,note_on,82,71,120
1,note_on,70,60,0
1,note_on,70,0,120
1,note_on,82,0,0
1,note_on,79,63,120
1,note_on,67,53,0
1,note_on,67,0,120
1,note_on,79,0,0
1,note_on,64,52,120
1,note_on,76,63,0
1,note_on,76,0,120
1,note_on,64,0,0
1,note_on,61,52,120
1,note_on,73,62,0
1,note_on,73,0,120
1,note_on,61,0,0
1,note_on,61,49,120
1,note_on,58,49,0
1,note_on,70,59,0
1,note_on,70,0,240
1,note_on,58,0,0
1,note_on,61,0,0
1,note_on,67,49,0
1,note_on,73,49,0
1,note_on,61,49,0
1,note_on,61,0,240
1,note_on,73,0,0
1,note_on,67,0,0
1,note_on,71,54,0
1,note_on,59,45,0
1,note_on,59,0,240
1,note_on,71,0,0
1,note_on,73,56,0
1,note_on,61,47,0
1,note_on,61,0,240
1,note_on,73,0,0
1,note_on,71,59,0
1,note_on,63,50,0
1,note_on,75,59,0
1,note_on,75,0,480
1,note_on,63,0,0
1,note_on,71,0,0
1,note_on,61,46,0
1,note_on,73,55,0
1,note_on,73,0,240
1,note_on,61,0,0
1,note_on,59,43,0
1,note_on,71,51,0
1,note_on,71,0,240
1,note_on,59,0,0
1,note_on,67,55,0
1,note_on,73,55,0
1,note_on,61,46,0
1,note_on,61,0,480
1,note_on,73,0,0
1,note_on,67,0,0
1,note_on,59,44,0
1,note_on,71,52,0
1,note_on,71,0,240
1,note_on,59,0,0
1,note_on,58,42,0
1,note_on,70,50,0
1,note_on,70,0,240
1,note_on,58,0,0
1,note_on,55,45,0
1,note_on,67,53,0
1,note_on,67,0,480
1,note_on,55,0,0
1,note_on,71,56,0
1,note_on,59,47,0
1,note_on,59,0,240
1,note_on,71,0,0
1,note_on,73,58,0
1,note_on,61,49,0
1,note_on,61,0,240
1,note_on,73,0,0
1,note_on,71,61,0
1,note_on,63,52,0
1,note_on,75,61,0
1,note_on,75,0,480
1,note_on,63,0,0
1,note_on,71,0,0
1,note_on,61,48,0
1,note_on,73,57,0
1,note_on,73,0,240
1,note_on,61,0,0
1,note_on,59,45,0
1,note_on,71,53,0
1,note_on,71,0,240
1,note_on,59,0,0
1,note_on,67,57,0
1,note_on,73,57,0
1,note_on,61,48,0
1,note_on,61,0,480
1,note_on,73,0,0
1,note_on,67,0,0
1,note_on,59,47,0
1,note_on,71,55,0
1,note_on,71,0,240
1,note_on,59,0,0
1,note_on,58,46,0
1,note_on,70,54,0
1,note_on,70,0,240
1,note_on,58,0,0
1,note_on,55,49,0
1,note_on,67,58,0
1,note_on,67,0,480
1,note_on,55,0,0
1,note_on,71,67,0
1,note_on,59,56,0
1,note_on,59,0,240
1,note_on,71,0,0
1,note_on,73,70,0
1,note_on,61,58,0
1,note_on,61,0,240
1,note_on,73,0,0
1,note_on,71,65,0
1,note_on,63,63,0
1,note_on,75,73,0
1,note_on,75,0,480
1,note_on,63,0,0
1,note_on,71,0,0
1,note_on,61,57,0
1,note_on,73,69,0
1,note_on,73,0,240
1,note_on,61,0,0
1,note_on,59,53,0
1,note_on,71,64,0
1,note_on,71,0,240
1,note_on,59,0,0
1,note_on,69,58,0
1,note_on,75,70,0
1,note_on,63,58,0
1,note_on,63,0,240
1,note_on,75,0,0
1,note_on,77,73,0
1,note_on,65,60,0
1,note_on,65,0,240
1,note_on,77,0,0
1,note_on,69,0,0
1,note_on,69,68,0
1,note_on,66,66,0
1,note_on,78,76,0
1,note_on,78,0,480
1,note_on,66,0,0
1,note_on,65,59,0
1,note_on,77,72,0
1,note_on,77,0,120
1,note_on,65,0,0
1,note_on,63,55,120
1,note_on,75,67,0
1,note_on,75,0,120
1,note_on,63,0,0
1,note_on,69,0,120
1,note_on,61,64,0
1,note_on,66,64,0
1,note_on,70,64,0
1,note_on,73,75,0
1,note_on,73,0,120
1,note_on,61,0,0
1,note_on,66,0,0
1,note_on,70,0,0
1,note_on,63,59,120
1,note_on,75,71,0
1,note_on,75,0,120
1,note_on,63,0,0
1,note_on,65,66,120
1,note_on,70,66,0
1,note_on,77,77,0
1,note_on,77,0,120
1,note_on,70,0,0
1,note_on,65,0,0
1,note_on,66,61,120
1,note_on,78,74,0
1,note_on,78,0,120
1,note_on,66,0,0
1,note_on,68,68,120
1,note_on,80,79,0
1,note_on,80,0,120
1,note_on,68,0,0
1,note_on,70,64,120
1,note_on,82,76,0
1,note_on,82,0,120
1,note_on,70,0,0
1,note_on,71,71,120
1,note_on,77,84,0
1,note_on,83,84,0
1,note_on,83,0,120
1,note_on,77,0,0
1,note_on,71,0,0
1,note_on,72,66,120
1,note_on,84,78,0
1,note_on,84,0,120
1,note_on,72,0,0
1,note_on,73,72,120
1,note_on,77,85,0
1,note_on,83,85,0
1,note_on,85,85,0
1,note_on,85,0,120
1,note_on,73,0,0
1,note_on,77,0,0
1,note_on,83,0,0
1,note_on,86,81,120
1,note_on,74,69,0
1,note_on,74,0,120
1,note_on,86,0,0
1,note_on,87,89,120
1,note_on,83,89,0
1,note_on,75,75,0
1,note_on,75,0,120
1,note_on,83,0,0
1,note_on,87,0,0
1,note_on,89,85,120
1,note_on,77,71,0
1,note_on,77,0,120
1,note_on,89,0,0
1,note_on,78,61,120
1,note_on,90,86,0
1,note_on,85,61,0
1,note_on,85,0,240
1,note_on,90,0,0
1,note_on,78,0,0
1,note_on,92,89,0
1,note_on,80,63,0
1,note_on,80,0,240
1,note_on,92,0,0
1,note_on,85,79,0
1,note_on,82,68,0
1,note_on,94,94,0
1,note_on,94,0,480
1,note_on,82,0,0
1,note_on,85,0,0
1,note_on,80,62,0
1,note_on,92,88,0
1,note_on,92,0,240
1,note_on,80,0,0
1,note_on,78,57,0
1,note_on,90,81,0
1,note_on,90,0,120
1,note_on,78,0,0
1,note_on,92,75,0
1,note_on,92,0,60
1,note_on,94,75,0
1,note_on,94,0,60
1,note_on,86,88,0
1,note_on,92,88,0
1,note_on,80,62,0
1,note_on,80,0,480
1,note_on,92,0,0
1,note_on,86,0,0
1,note_on,78,59,0
1,note_on,90,83,0
1,note_on,90,0,240
1,note_on,78,0,0
1,note_on,76,56,0
1,note_on,88,80,0
1,note_on,88,0,240
1,note_on,76,0,0
1,note_on,78,61,0
1,note_on,74,61,0
1,note_on,86,84,0
1,note_on,86,0,480
1,note_on,74,0,0
1,note_on,78,0,0
1,note_on,82,64,0
1,note_on,73,64,0
1,note_on,85,76,0
1,note_on,78,64,0
1,note_on,78,0,240
1,note_on,82,0,0
1,note_on,73,0,0
1,note_on,85,0,0
1,note_on,87,78,0
1,note_on,75,66,0
1,note_on,75,0,240
1,note_on,87,0,0
1,note_on,82,68,0
1,note_on,77,68,0
1,note_on,89,80,0
1,note_on,89,0,480
1,note_on,77,0,0
1,note_on,82,0,0
1,note_on,75,64,0
1,note_on,87,76,0
1,note_on,87,0,240
1,note_on,75,0,0
1,note_on,73,59,0
1,note_on,85,70,0
1,note_on,85,0,240
1,note_on,73,0,0
1,note_on,74,55,0
1,note_on,83,65,0
1,note_on,71,55,0
1,note_on,71,0,1440
1,note_on,83,0,0
1,note_on,74,0,0
1,note_on,78,61,0
1,note_on,90,86,0
1,note_on,85,61,0
1,note_on,85,0,240
1,note_on,90,0,0
1,note_on,78,0,0
1,note_on,92,89,0
1,note_on,80,63,0
1,note_on,80,0,240
1,note_on,92,0,0
1,note_on,85,79,0
1,note_on,82,68,0
1,note_on,94,94,0
1,note_on,94,0,480
1,note_on,82,0,0
1,note_on,85,0,0
1,note_on,80,62,0
1,note_on,92,88,0
1,note_on,92,0,240
1,note_on,80,0,0
1,note_on,78,57,0
1,note_on,90,81,0
1,note_on,90,0,120
1,note_on,78,0,0
1,note_on,92,75,0
1,note_on,92,0,60
1,note_on,94,75,0
1,note_on,94,0,60
1,note_on,86,88,0
1,note_on,92,88,0
1,note_on,80,62,0
1,note_on,80,0,480
1,note_on,92,0,0
1,note_on,86,0,0
1,note_on,78,59,0
1,note_on,90,83,0
1,note_on,90,0,240
1,note_on,78,0,0
1,note_on,76,56,0
1,note_on,88,80,0
1,note_on,88,0,240
1,note_on,76,0,0
1,note_on,78,61,0
1,note_on,74,61,0
1,note_on,86,84,0
1,note_on,86,0,480
1,note_on,74,0,0
1,note_on,78,0,0
1,note_on,82,64,0
1,note_on,73,64,0
1,note_on,85,76,0
1,note_on,78,64,0
1,note_on,78,0,240
1,note_on,82,0,0
1,note_on,73,0,0
1,note_on,85,0,0
1,note_on,87,78,0
1,note_on,75,66,0
1,note_on,75,0,240
1,note_on,87,0,0
1,note_on,82,68,0
1,note_on,77,68,0
1,note_on,89,80,0
1,note_on,89,0,480
1,note_on,77,0,0
1,note_on,82,0,0
1,note_on,75,64,0
1,note_on,87,76,0
1,note_on,87,0,240
1,note_on,75,0,0
1,note_on,73,59,0
1,note_on,85,70,0
1,note_on,85,0,240
1,note_on,73,0,0
1,note_on,74,55,0
1,note_on,83,65,0
1,note_on,71,55,0
1,note_on,71,0,1440
1,note_on,83,0,0
1,note_on,74,0,0
1,note_on,63,35,240
1,note_on,66,35,0
1,note_on,70,35,0
1,note_on,70,0,120
1,note_on,66,0,0
1,note_on,63,0,0
1,note_on,61,35,0
1,note_on,61,0,110
1,note_on,61,35,250
1,note_on,66,35,0
1,note_on,70,35,0
1,note_on,70,0,60
1,note_on,66,0,0
1,note_on,61,0,0
1,note_on,61,35,420
1,note_on,66,35,0
1,note_on,70,35,0
1,note_on,70,0,60
1,note_on,66,0,0
1,note_on,61,0,0
1,note_on,83,53,420
1,note_on,77,47,0
1,note_on,73,44,0
1,note_on,85,60,0
1,note_on,85,0,240
1,note_on,83,0,0
1,note_on,77,0,0
1,note_on,73,0,0
1,note_on,75,48,0
1,note_on,87,68,0
1,note_on,87,0,240
1,note_on,75,0,0
1,note_on,77,54,0
1,note_on,89,64,0
1,note_on,89,0,240
1,note_on,77,0,0
1,note_on,75,57,0
1,note_on,87,68,0
1,note_on,87,0,240
1,note_on,75,0,0
1,note_on,73,55,0
1,note_on,85,65,0
1,note_on,85,0,240
1,note_on,73,0,0
1,note_on,63,35,240
1,note_on,66,35,0
1,note_on,70,35,0
1,note_on,70,0,120
1,note_on,66,0,0
1,note_on,63,0,0
1,note_on,61,35,0
1,note_on,61,0,110
1,note_on,61,35,250
1,note_on,66,35,0
1,note_on,70,35,0
1,note_on,70,0,60
1,note_on,66,0,0
1,note_on,61,0,0
1,note_on,61,35,420
1,note_on,66,35,0
1,note_on,70,35,0
1,note_on,70,0,60
1,note_on,66,0,0
1,note_on,61,0,0
1,note_on,83,49,420
1,note_on,77,46,0
1,note_on,73,44,0
1,note_on,85,60,0
1,note_on,85,0,240
1,note_on,83,0,0
1,note_on,77,0,0
1,note_on,73,0,0
1,note_on,75,48,0
1,note_on,87,68,0
1,note_on,87,0,240
1,note_on,75,0,0
1,note_on,77,54,0
1,note_on,89,64,0
1,note_on,89,0,240
1,note_on,77,0,0
1,note_on,75,57,0
1,note_on,87,68,0
1,note_on,87,0,240
1,note_on,75,0,0
1,note_on,73,55,0
1,note_on,85,65,0
1,note_on,85,0,240
1,note_on,73,0,0
1,note_on,63,35,240
1,note_on,66,35,0
1,note_on,70,35,0
1,note_on,70,0,120
1,note_on,66,0,0
1,note_on,63,0,0
1,note_on,61,35,0
1,note_on,61,0,110
1,note_on,61,35,250
1,note_on,66,35,0
1,note_on,70,35,0
1,note_on,70,0,60
1,note_on,66,0,0
1,note_on,61,0,0
1,note_on,61,35,420
1,note_on,66,35,0
1,note_on,70,35,0
1,note_on,70,0,60
1,note_on,66,0,0
1,note_on,61,0,0
1,note_on,74,73,420
1,note_on,62,61,0
1,note_on,69,61,0
1,note_on,69,0,120
1,note_on,62,0,0
1,note_on,74,0,0
1,note_on,64,66,120
1,note_on,76,79,0
1,note_on,76,0,120
1,note_on,64,0,0
1,note_on,66,62,120
1,note_on,78,74,0
1,note_on,78,0,120
1,note_on,66,0,0
1,note_on,67,66,120
1,note_on,74,66,0
1,note_on,79,79,0
1,note_on,79,0,120
1,note_on,74,0,0
1,note_on,67,0,0
1,note_on,69,61,120
1,note_on,81,73,0
1,note_on,81,0,120
1,note_on,69,0,0
1,note_on,70,66,120
1,note_on,74,66,0
1,note_on,82,79,0
1,note_on,82,0,120
1,note_on,74,0,0
1,note_on,70,0,0
1,note_on,71,67,120
1,note_on,83,80,0
1,note_on,83,0,120
1,note_on,71,0,0
1,note_on,86,83,120
1,note_on,74,71,0
1,note_on,74,0,120
1,note_on,86,0,0
1,note_on,91,83,120
1,note_on,79,71,0
1,note_on,79,0,120
1,note_on,91,0,0
1,note_on,95,84,120
1,note_on,83,71,0
1,note_on,83,0,120
1,note_on,95,0,0
1,note_on,98,86,120
1,note_on,86,73,0
1,note_on,86,0,120
1,note_on,98,0,0
1,note_on,59,50,360
1,note_on,61,50,0
1,note_on,61,0,120
1,note_on,59,0,0
1,note_on,59,54,120
1,note_on,63,54,0
1,note_on,63,0,120
1,note_on,59,0,0
1,note_on,59,50,120
1,note_on,65,50,0
1,note_on,65,0,120
1,note_on,59,0,0
1,note_on,63,45,0
1,note_on,63,0,60
1,note_on,65,46,0
1,note_on,65,0,60
1,note_on,59,54,0
1,note_on,63,54,0
1,note_on,63,0,120
1,note_on,59,0,0
1,note_on,59,50,120
1,note_on,61,50,0
1,note_on,61,0,120
1,note_on,59,0,0
1,note_on,63,35,360
1,note_on,66,35,0
1,note_on,70,35,0
1,note_on,70,0,120
1,note_on,66,0,0
1,note_on,63,0,0
1,note_on,61,35,0
1,note_on,61,0,110
1,note_on,61,35,250
1,note_on,66,35,0
1,note_on,70,35,0
1,note_on,70,0,60
1,note_on,66,0,0
1,note_on,61,0,0
1,note_on,61,35,420
1,note_on,66,35,0
1,note_on,70,35,0
1,note_on,70,0,60
1,note_on,66,0,0
1,note_on,61,0,0
1,note_on,83,53,420
1,note_on,77,47,0
1,note_on,73,44,0
1,note_on,85,60,0
1,note_on,85,0,240
1,note_on,83,0,0
1,note_on,77,0,0
1,note_on,73,0,0
1,note_on,75,48,0
1,note_on,87,68,0
1,note_on,87,0,240
1,note_on,75,0,0
1,note_on,77,54,0
1,note_on,89,64,0
1,note_on,89,0,240
1,note_on,77,0,0
1,note_on,75,57,0
1,note_on,87,68,0
1,note_on,87,0,240
1,note_on,75,0,0
1,note_on,73,55,0
1,note_on,85,65,0
1,note_on,85,0,240
1,note_on,73,0,0
1,note_on,63,35,240
1,note_on,66,35,0
1,note_on,70,35,0
1,note_on,70,0,120
1,note_on,66,0,0
1,note_on,63,0,0
1,note_on,61,35,0
1,note_on,61,0,110
1,note_on,61,35,250
1,note_on,66,35,0
1,note_on,70,35,0
1,note_on,70,0,60
1,note_on,66,0,0
1,note_on,61,0,0
1,note_on,61,35,420
1,note_on,66,35,0
1,note_on,70,35,0
1,note_on,70,0,60
1,note_on,66,0,0
1,note_on,61,0,0
1,note_on,83,49,420
1,note_on,77,46,0
1,note_on,73,44,0
1,note_on,85,60,0
1,note_on,85,0,240
1,note_on,83,0,0
1,note_on,77,0,0
1,note_on,73,0,0
1,note_on,75,48,0
1,note_on,87,68,0
1,note_on,87,0,240
1,note_on,75,0,0
1,note_on,77,54,0
1,note_on,89,64,0
1,note_on,89,0,240
1,note_on,77,0,0
1,note_on,75,57,0
1,note_on,87,68,0
1,note_on,87,0,240
1,note_on,75,0,0
1,note_on,73,55,0
1,note_on,85,65,0
1,note_on,85,0,240
1,note_on,73,0,0
1,note_on,63,35,240
1,note_on,66,35,0
1,note_on,70,35,0
1,note_on,70,0,120
1,note_on,66,0,0
1,note_on,63,0,0
1,note_on,61,35,0
1,note_on,61,0,110
1,note_on,61,35,250
1,note_on,66,35,0
1,note_on,70,35,0
1,note_on,70,0,60
1,note_on,66,0,0
1,note_on,61,0,0
1,note_on,61,35,420
1,note_on,66,35,0
1,note_on,70,35,0
1,note_on,70,0,60
1,note_on,66,0,0
1,note_on,61,0,0
1,note_on,74,73,420
1,note_on,62,61,0
1,note_on,69,61,0
1,note_on,69,0,120
1,note_on,62,0,0
1,note_on,74,0,0
1,note_on,64,66,120
1,note_on,76,79,0
1,note_on,76,0,120
1,note_on,64,0,0
1,note_on,66,62,120
1,note_on,78,74,0
1,note_on,78,0,120
1,note_on,66,0,0
1,note_on,67,66,120
1,note_on,74,66,0
1,note_on,79,79,0
1,note_on,79,0,120
1,note_on,74,0,0
1,note_on,67,0,0
1,note_on,69,61,120
1,note_on,81,73,0
1,note_on,81,0,120
1,note_on,69,0,0
1,note_on,70,66,120
1,note_on,74,66,0
1,note_on,82,79,0
1,note_on,82,0,120
1,note_on,74,0,0
1,note_on,70,0,0
1,note_on,71,61,120
1,note_on,83,77,0
1,note_on,83,0,120
1,note_on,71,0,0
1,note_on,86,83,120
1,note_on,74,71,0
1,note_on,74,0,120
1,note_on,86,0,0
1,note_on,91,83,120
1,note_on,79,71,0
1,note_on,79,0,120
1,note_on,91,0,0
1,note_on,95,84,120
1,note_on,83,71,0
1,note_on,83,0,120
1,note_on,95,0,0
1,note_on,98,86,120
1,note_on,86,73,0
1,note_on,86,0,120
1,note_on,98,0,0
1,note_on,59,50,360
1,note_on,61,50,0
1,note_on,61,0,120
1,note_on,59,0,0
1,note_on,59,54,120
1,note_on,63,54,0
1,note_on,63,0,120
1,note_on,59,0,0
1,note_on,59,50,120
1,note_on,65,50,0
1,note_on,65,0,120
1,note_on,59,0,0
1,note_on,63,45,0
1,note_on,63,0,60
1,note_on,65,46,0
1,note_on,65,0,60
1,note_on,59,54,0
1,note_on,63,54,0
1,note_on,63,0,120
1,note_on,59,0,0
1,note_on,59,50,120
1,note_on,61,50,0
1,note_on,61,0,120
1,note_on,59,0,0
1,note_on,58,76,120
1,note_on,66,79,0
1,note_on,66,0,120
1,note_on,58,0,0
1,note_on,90,57,120
1,note_on,85,48,0
1,note_on,82,48,0
1,note_on,82,0,120
1,note_on,85,0,0
1,note_on,90,0,0
1,note_on,78,57,0
1,note_on,78,0,120
1,note_on,90,57,240
1,note_on,85,48,0
1,note_on,82,48,0
1,note_on,82,0,120
1,note_on,85,0,0
1,note_on,90,0,0
1,note_on,78,57,0
1,note_on,78,0,120
1,note_on,90,57,240
1,note_on,85,48,0
1,note_on,82,48,0
1,note_on,82,0,120
1,note_on,85,0,0
1,note_on,90,0,0
1,note_on,78,57,0
1,note_on,78,0,120
1,note_on,90,57,240
1,note_on,85,48,0
1,note_on,82,48,0
1,note_on,82,0,120
1,note_on,85,0,0
1,note_on,90,0,0
1,note_on,78,57,0
1,note_on,78,0,120
1,note_on,90,57,240
1,note_on,85,48,0
1,note_on,82,48,0
1,note_on,82,0,120
1,note_on,85,0,0
1,note_on,90,0,0
1,note_on,78,57,0
1,note_on,78,0,120
1,note_on,78,54,240
1,note_on,90,64,0
1,note_on,85,54,0
1,note_on,82,54,0
1,note_on,82,0,120
1,note_on,78,0,0
1,note_on,90,0,0
1,note_on,85,0,0
1,note_on,93,91,120
1,note_on,84,77,0
1,note_on,81,77,0
1,note_on,81,0,120
1,note_on,84,0,0
1,note_on,93,0,0
1,note_on,74,51,120
1,note_on,69,43,0
1,note_on,66,43,0
1,note_on,66,0,120
1,note_on,69,0,0
1,note_on,74,0,0
1,note_on,62,51,0
1,note_on,62,0,120
1,note_on,74,51,240
1,note_on,69,43,0
1,note_on,66,43,0
1,note_on,66,0,120
1,note_on,69,0,0
1,note_on,74,0,0
1,note_on,62,51,0
1,note_on,62,0,120
1,note_on,74,51,240
1,note_on,69,43,0
1,note_on,66,43,0
1,note_on,66,0,120
1,note_on,69,0,0
1,note_on,74,0,0
1,note_on,62,51,0
1,note_on,62,0,120
1,note_on,74,51,240
1,note_on,69,43,0
1,note_on,66,43,0
1,note_on,66,0,120
1,note_on,69,0,0
1,note_on,74,0,0
1,note_on,62,51,0
1,note_on,62,0,120
1,note_on,74,51,240
1,note_on,69,43,0
1,note_on,66,43,0
1,note_on,66,0,120
1,note_on,69,0,0
1,note_on,74,0,0
1,note_on,62,51,0
1,note_on,62,0,120
1,note_on,62,48,240
1,note_on,74,57,0
1,note_on,69,48,0
1,note_on,66,48,0
1,note_on,66,0,120
1,note_on,62,0,0
1,note_on,74,0,0
1,note_on,69,0,0
1,note_on,66,76,120
1,note_on,70,76,0
1,note_on,73,76,0
1,note_on,78,91,0
1,note_on,78,0,120
1,note_on,66,0,0
1,note_on,70,0,0
1,note_on,73,0,0
1,note_on,90,57,120
1,note_on,85,48,0
1,note_on,82,48,0
1,note_on,82,0,120
1,note_on,85,0,0
1,note_on,90,0,0
1,note_on,78,57,0
1,note_on,78,0,120
1,note_on,90,57,240
1,note_on,85,48,0
1,note_on,82,48,0
1,note_on,82,0,120
1,note_on,85,0,0
1,note_on,90,0,0
1,note_on,78,57,0
1,note_on,78,0,120
1,note_on,90,57,240
1,note_on,85,48,0
1,note_on,82,48,0
1,note_on,82,0,120
1,note_on,85,0,0
1,note_on,90,0,0
1,note_on,78,57,0
1,note_on,78,0,120
1,note_on,90,57,240
1,note_on,85,48,0
1,note_on,82,48,0
1,note_on,82,0,120
1,note_on,85,0,0
1,note_on,90,0,0
1,note_on,78,57,0
1,note_on,78,0,120
1,note_on,90,57,240
1,note_on,85,48,0
1,note_on,82,48,0
1,note_on,82,0,120
1,note_on,85,0,0
1,note_on,90,0,0
1,note_on,78,57,0
1,note_on,78,0,120
1,note_on,78,54,240
1,note_on,90,64,0
1,note_on,85,54,0
1,note_on,82,54,0
1,note_on,82,0,120
1,note_on,78,0,0
1,note_on,90,0,0
1,note_on,85,0,0
1,note_on,90,91,120
1,note_on,94,91,0
1,note_on,87,76,0
1,note_on,82,76,0
1,note_on,82,0,120
1,note_on,90,0,0
1,note_on,94,0,0
1,note_on,87,0,0
1,note_on,75,51,120
1,note_on,70,43,0
1,note_on,66,43,0
1,note_on,66,0,120
1,note_on,70,0,0
1,note_on,75,0,0
1,note_on,63,51,0
1,note_on,63,0,120
1,note_on,75,51,240
1,note_on,70,43,0
1,note_on,66,43,0
1,note_on,66,0,120
1,note_on,70,0,0
1,note_on,75,0,0
1,note_on,63,51,0
1,note_on,63,0,120
1,note_on,75,51,240
1,note_on,70,43,0
1,note_on,66,43,0
1,note_on,66,0,120
1,note_on,70,0,0
1,note_on,75,0,0
1,note_on,63,51,0
1,note_on,63,0,120
1,note_on,75,51,240
1,note_on,70,43,0
1,note_on,66,43,0
1,note_on,66,0,120
1,note_on,70,0,0
1,note_on,75,0,0
1,note_on,63,51,0
1,note_on,63,0,120
1,note_on,75,51,240
1,note_on,70,43,0
1,note_on,66,43,0
1,note_on,66,0,120
1,note_on,70,0,0
1,note_on,75,0,0
1,note_on,63,51,0
1,note_on,63,0,120
1,note_on,87,74,0
1,note_on,83,74,0
1,note_on,78,63,0
1,note_on,75,63,0
1,note_on,75,0,120
1,note_on,87,0,0
1,note_on,83,0,0
1,note_on,78,0,0
1,note_on,78,64,120
1,note_on,83,64,0
1,note_on,87,77,0
1,note_on,90,77,0
1,note_on,90,0,120
1,note_on,78,0,0
1,note_on,83,0,0
1,note_on,87,0,0
1,note_on,94,82,120
1,note_on,90,82,0
1,note_on,85,69,0
1,note_on,82,69,0
1,note_on,82,0,120
1,note_on,94,0,0
1,note_on,90,0,0
1,note_on,85,0,0
1,note_on,71,57,120
1,note_on,66,48,0
1,note_on,63,48,0
1,note_on,63,0,120
1,note_on,66,0,0
1,note_on,71,0,0
1,note_on,61,57,0
1,note_on,61,0,110
1,note_on,73,59,250
1,note_on,71,49,0
1,note_on,68,49,0
1,note_on,68,0,120
1,note_on,71,0,0
1,note_on,73,0,0
1,note_on,66,59,0
1,note_on,66,0,110
1,note_on,82,61,250
1,note_on,78,51,0
1,note_on,75,51,0
1,note_on,75,0,120
1,note_on,78,0,0
1,note_on,82,0,0
1,note_on,73,62,0
1,note_on,73,0,110
1,note_on,85,63,250
1,note_on,83,53,0
1,note_on,80,53,0
1,note_on,80,0,120
1,note_on,83,0,0
1,note_on,85,0,0
1,note_on,78,64,0
1,note_on,78,0,110
1,note_on,94,66,250
1,note_on,90,55,0
1,note_on,87,55,0
1,note_on,87,0,120
1,note_on,90,0,0
1,note_on,94,0,0
1,note_on,85,66,0
1,note_on,85,0,110
1,note_on,97,68,250
1,note_on,95,57,0
1,note_on,92,57,0
1,note_on,92,0,120
1,note_on,95,0,0
1,note_on,97,0,0
1,note_on,90,68,0
1,note_on,90,0,110
1,note_on,90,92,970
1,note_on,86,92,0
1,note_on,83,77,0
1,note_on,78,77,0
1,note_on,78,0,240
1,note_on,90,0,0
1,note_on,86,0,0
1,note_on,83,0,0
1,note_on,94,97,240
1,note_on,90,97,0
1,note_on,85,82,0
1,note_on,82,82,0
1,note_on,82,0,240
1,note_on,94,0,0
1,note_on,90,0,0
1,note_on,85,0,0
1,note_on,90,82,1200
1,note_on,97,82,0
1,note_on,102,97,0
1,note_on,102,0,240
1,note_on,97,0,0
1,note_on,90,0,0
2,note_on,61,75,0
2,note_on,61,0,14
2,note_on,68,72,360
2,note_on,68,0,120
2,note_on,73,72,360
2,note_on,73,0,120
2,note_on,80,72,360
2,note_on,80,0,35
2,note_on,73,71,360
2,note_on,73,0,120
2,note_on,68,71,360
2,note_on,68,0,120
2,note_on,61,75,360
2,note_on,61,0,42
2,note_on,71,45,360
2,note_on,77,64,0
2,note_on,68,45,0
2,note_on,68,0,120
2,note_on,77,0,0
2,note_on,71,0,0
2,note_on,61,72,360
2,note_on,61,0,120
2,note_on,71,45,360
2,note_on,77,68,0
2,note_on,68,45,0
2,note_on,68,0,35
2,note_on,77,0,0
2,note_on,71,0,0
2,note_on,61,74,360
2,note_on,61,0,120
2,note_on,71,45,360
2,note_on,77,67,0
2,note_on,68,45,0
2,note_on,68,0,120
2,note_on,77,0,0
2,note_on,71,0,0
2,note_on,54,51,0
2,note_on,54,0,28
2,note_on,61,49,360
2,note_on,61,0,56
2,note_on,49,49,106
2,note_on,49,0,60
2,note_on,54,51,127
2,note_on,54,0,60
2,note_on,61,49,360
2,note_on,61,0,54
2,note_on,49,49,64
2,note_on,49,0,60
2,note_on,56,51,99
2,note_on,56,0,69
2,note_on,61,51,360
2,note_on,61,0,350
2,note_on,63,55,130
2,note_on,63,0,230
2,note_on,65,58,250
2,note_on,65,0,148
2,note_on,68,61,250
2,note_on,68,0,240
2,note_on,61,58,240
2,note_on,61,0,350
2,note_on,54,51,130
2,note_on,54,0,28
2,note_on,61,49,360
2,note_on,61,0,50
2,note_on,49,49,46
2,note_on,49,0,60
2,note_on,54,51,85
2,note_on,54,0,78
2,note_on,61,49,360
2,note_on,61,0,54
2,note_on,49,49,56
2,note_on,49,0,60
2,note_on,56,51,71
2,note_on,56,0,63
2,note_on,61,51,360
2,note_on,61,0,350
2,note_on,63,55,130
2,note_on,63,0,230
2,note_on,65,58,250
2,note_on,65,0,59
2,note_on,68,61,250
2,note_on,68,0,480
2,note_on,61,58,0
2,note_on,61,0,350
2,note_on,54,54,130
2,note_on,58,54,0
2,note_on,58,0,240
2,note_on,54,0,0
2,note_on,61,50,0
2,note_on,61,0,120
2,note_on,66,50,0
2,note_on,66,0,99
2,note_on,70,54,120
2,note_on,70,0,120
2,note_on,73,56,120
2,note_on,73,0,120
2,note_on,78,54,120
2,note_on,78,0,120
2,note_on,82,63,120
2,note_on,82,0,120
2,note_on,42,58,7
2,note_on,49,61,30
2,note_on,58,70,30
2,note_on,58,0,480
2,note_on,49,0,0
2,note_on,42,0,0
2,note_on,66,53,476
2,note_on,66,0,208
2,note_on,68,55,0
2,note_on,68,0,240
2,note_on,70,56,0
2,note_on,70,0,28
2,note_on,68,54,0
2,note_on,68,0,212
2,note_on,66,50,0
2,note_on,66,0,74
2,note_on,68,56,0
2,note_on,68,0,311
2,note_on,66,54,0
2,note_on,66,0,127
2,note_on,63,50,0
2,note_on,63,0,240
2,note_on,61,47,0
2,note_on,61,0,367
2,note_on,59,59,0
2,note_on,66,59,0
2,note_on,66,0,353
2,note_on,59,0,0
2,note_on,56,56,0
2,note_on,66,56,0
2,note_on,66,0,321
2,note_on,56,0,0
2,note_on,49,42,0
2,note_on,59,43,30
2,note_on,65,54,30
2,note_on,65,0,353
2,note_on,59,0,0
2,note_on,49,0,0
2,note_on,54,54,0
2,note_on,61,54,0
2,note_on,61,0,3
2,note_on,54,0,0
2,note_on,61,49,0
2,note_on,61,0,60
2,note_on,49,49,106
2,note_on,49,0,60
2,note_on,54,51,127
2,note_on,54,0,85
2,note_on,61,49,360
2,note_on,61,0,58
2,note_on,49,49,64
2,note_on,49,0,60
2,note_on,56,51,99
2,note_on,56,0,69
2,note_on,61,51,360
2,note_on,61,0,350
2,note_on,63,55,130
2,note_on,63,0,230
2,note_on,65,58,250
2,note_on,65,0,141
2,note_on,68,61,250
2,note_on,68,0,480
2,note_on,61,58,0
2,note_on,61,0,350
2,note_on,54,51,130
2,note_on,54,0,32
2,note_on,61,49,360
2,note_on,61,0,49
2,note_on,49,49,46
2,note_on,49,0,60
2,note_on,54,51,85
2,note_on,54,0,81
2,note_on,61,49,360
2,note_on,61,0,56
2,note_on,49,49,56
2,note_on,49,0,60
2,note_on,56,51,71
2,note_on,56,0,51
2,note_on,61,51,360
2,note_on,61,0,350
2,note_on,63,55,130
2,note_on,63,0,230
2,note_on,65,58,250
2,note_on,65,0,167
2,note_on,68,61,250
2,note_on,68,0,480
2,note_on,61,58,0
2,note_on,61,0,230
2,note_on,58,54,0
2,note_on,54,54,0
2,note_on,54,0,240
2,note_on,58,0,0
2,note_on,61,50,0
2,note_on,61,0,120
2,note_on,66,50,0
2,note_on,66,0,99
2,note_on,70,54,120
2,note_on,70,0,120
2,note_on,73,56,120
2,note_on,73,0,120
2,note_on,78,54,120
2,note_on,78,0,120
2,note_on,82,63,120
2,note_on,82,0,120
2,note_on,42,58,7
2,note_on,49,61,30
2,note_on,58,70,30
2,note_on,58,0,120
2,note_on,49,0,0
2,note_on,42,0,0
2,note_on,63,49,480
2,note_on,63,0,208
2,note_on,65,50,0
2,note_on,65,0,240
2,note_on,66,51,0
2,note_on,66,0,402
2,note_on,65,49,0
2,note_on,65,0,155
2,note_on,63,46,0
2,note_on,63,0,67
2,note_on,65,51,0
2,note_on,65,0,325
2,note_on,63,49,0
2,note_on,63,0,84
2,note_on,58,46,0
2,note_on,58,0,240
2,note_on,54,42,0
2,note_on,54,0,296
2,note_on,51,55,0
2,note_on,61,55,0
2,note_on,85,58,331
2,note_on,85,0,274
2,note_on,61,0,0
2,note_on,51,0,0
2,note_on,56,39,0
2,note_on,63,49,0
2,note_on,63,0,353
2,note_on,56,0,0
2,note_on,49,53,0
2,note_on,56,53,0
2,note_on,56,0,187
2,note_on,49,0,0
2,note_on,56,49,0
2,note_on,56,0,60
2,note_on,44,49,106
2,note_on,44,0,60
2,note_on,49,51,127
2,note_on,49,0,92
2,note_on,56,49,32
2,note_on,56,0,60
2,note_on,44,49,64
2,note_on,44,0,60
2,note_on,48,51,99
2,note_on,48,0,83
2,note_on,56,51,360
2,note_on,56,0,120
2,note_on,58,55,360
2,note_on,58,0,120
2,note_on,60,58,360
2,note_on,60,0,49
2,note_on,63,61,360
2,note_on,63,0,120
2,note_on,56,58,360
2,note_on,56,0,120
2,note_on,49,51,360
2,note_on,49,0,116
2,note_on,56,49,360
2,note_on,56,0,49
2,note_on,44,49,201
2,note_on,44,0,42
2,note_on,49,51,85
2,note_on,49,0,81
2,note_on,56,49,360
2,note_on,56,0,56
2,note_on,44,49,205
2,note_on,44,0,56
2,note_on,51,51,71
2,note_on,51,0,70
2,note_on,56,51,360
2,note_on,56,0,120
2,note_on,58,55,360
2,note_on,58,0,120
2,note_on,60,58,360
2,note_on,60,0,68
2,note_on,63,61,360
2,note_on,63,0,120
2,note_on,56,58,360
2,note_on,56,0,120
2,note_on,49,54,360
2,note_on,53,54,0
2,note_on,53,0,240
2,note_on,49,0,0
2,note_on,56,50,0
2,note_on,56,0,120
2,note_on,61,50,0
2,note_on,61,0,99
2,note_on,65,54,120
2,note_on,65,0,120
2,note_on,68,56,120
2,note_on,68,0,120
2,note_on,73,54,120
2,note_on,73,0,120
2,note_on,61,56,60
2,note_on,68,56,30
2,note_on,77,63,30
2,note_on,77,0,208
2,note_on,68,0,0
2,note_on,61,0,0
2,note_on,37,58,236
2,note_on,49,70,0
2,note_on,49,0,402
2,note_on,37,0,0
2,note_on,71,49,469
2,note_on,71,0,176
2,note_on,73,50,0
2,note_on,73,0,240
2,note_on,75,51,0
2,note_on,75,0,377
2,note_on,77,49,0
2,note_on,77,0,130
2,note_on,75,46,0
2,note_on,75,0,71
2,note_on,73,51,0
2,note_on,73,0,325
2,note_on,71,49,0
2,note_on,71,0,99
2,note_on,73,46,0
2,note_on,73,0,240
2,note_on,70,42,0
2,note_on,70,0,282
2,note_on,51,43,0
2,note_on,67,43,0
2,note_on,61,43,0
2,note_on,67,0,184
2,note_on,63,39,0
2,note_on,61,0,240
2,note_on,51,0,0
2,note_on,56,44,0
2,note_on,68,44,0
2,note_on,68,0,272
2,note_on,56,0,0
2,note_on,63,0,0
2,note_on,49,35,0
2,note_on,59,36,30
2,note_on,65,45,30
2,note_on,65,0,353
2,note_on,59,0,0
2,note_on,49,0,0
2,note_on,54,45,0
2,note_on,61,45,0
2,note_on,61,0,64
2,note_on,54,0,130
2,note_on,61,49,0
2,note_on,61,0,56
2,note_on,49,49,106
2,note_on,49,0,60
2,note_on,54,51,127
2,note_on,54,0,56
2,note_on,61,49,360
2,note_on,61,0,46
2,note_on,49,49,64
2,note_on,49,0,60
2,note_on,56,51,99
2,note_on,56,0,76
2,note_on,61,51,360
2,note_on,61,0,350
2,note_on,63,55,130
2,note_on,63,0,230
2,note_on,65,58,250
2,note_on,65,0,154
2,note_on,68,61,250
2,note_on,68,0,480
2,note_on,61,58,0
2,note_on,61,0,350
2,note_on,54,51,69
2,note_on,54,0,49
2,note_on,61,49,360
2,note_on,61,0,46
2,note_on,49,49,46
2,note_on,49,0,60
2,note_on,54,51,85
2,note_on,54,0,71
2,note_on,61,49,360
2,note_on,61,0,54
2,note_on,49,49,56
2,note_on,49,0,60
2,note_on,56,51,71
2,note_on,56,0,76
2,note_on,61,51,360
2,note_on,61,0,350
2,note_on,63,55,130
2,note_on,63,0,230
2,note_on,65,58,250
2,note_on,65,0,135
2,note_on,68,61,250
2,note_on,68,0,480
2,note_on,61,58,0
2,note_on,61,0,350
2,note_on,54,54,130
2,note_on,58,54,0
2,note_on,58,0,240
2,note_on,54,0,0
2,note_on,61,50,0
2,note_on,61,0,120
2,note_on,66,50,0
2,note_on,66,0,99
2,note_on,70,54,120
2,note_on,70,0,120
2,note_on,73,56,120
2,note_on,73,0,120
2,note_on,78,54,120
2,note_on,78,0,120
2,note_on,82,63,120
2,note_on,82,0,120
2,note_on,42,58,300
2,note_on,49,61,30
2,note_on,58,70,30
2,note_on,58,0,448
2,note_on,49,0,0
2,note_on,42,0,0
2,note_on,54,32,476
2,note_on,57,40,0
2,note_on,57,0,120
2,note_on,54,0,0
2,note_on,54,28,120
2,note_on,59,35,0
2,note_on,59,0,120
2,note_on,54,0,0
2,note_on,54,36,120
2,note_on,61,45,0
2,note_on,61,0,480
2,note_on,54,0,0
2,note_on,54,32,0
2,note_on,62,40,0
2,note_on,62,0,120
2,note_on,54,0,0
2,note_on,54,28,120
2,note_on,61,35,0
2,note_on,61,0,120
2,note_on,54,0,0
2,note_on,54,41,120
2,note_on,59,41,0
2,note_on,59,0,480
2,note_on,54,0,0
2,note_on,54,42,0
2,note_on,65,53,0
2,note_on,65,0,423
2,note_on,54,0,0
2,note_on,66,50,0
2,note_on,54,40,0
2,note_on,54,0,320
2,note_on,66,0,0
2,note_on,65,53,0
2,note_on,53,42,0
2,note_on,65,0,103
2,note_on,63,49,0
2,note_on,63,0,240
2,note_on,53,0,0
2,note_on,52,40,0
2,note_on,64,50,0
2,note_on,64,0,320
2,note_on,52,0,0
2,note_on,62,45,0
2,note_on,52,36,0
2,note_on,52,0,297
2,note_on,62,0,0
2,note_on,57,56,0
2,note_on,57,0,155
2,note_on,76,57,240
2,note_on,76,0,229
2,note_on,52,53,106
2,note_on,52,0,127
2,note_on,57,32,0
2,note_on,64,40,0
2,note_on,64,0,120
2,note_on,57,0,0
2,note_on,57,28,120
2,note_on,65,35,0
2,note_on,65,0,120
2,note_on,57,0,0
2,note_on,57,36,120
2,note_on,67,45,0
2,note_on,67,0,480
2,note_on,57,0,0
2,note_on,57,32,0
2,note_on,69,40,0
2,note_on,69,0,120
2,note_on,57,0,0
2,note_on,57,28,120
2,note_on,67,35,0
2,note_on,67,0,120
2,note_on,57,0,0
2,note_on,57,31,120
2,note_on,65,39,0
2,note_on,65,0,480
2,note_on,57,0,0
2,note_on,57,36,0
2,note_on,64,45,0
2,note_on,64,0,120
2,note_on,57,0,0
2,note_on,57,31,120
2,note_on,62,39,0
2,note_on,62,0,120
2,note_on,57,0,0
2,note_on,61,44,120
2,note_on,57,35,0
2,note_on,57,0,343
2,note_on,61,0,0
2,note_on,67,45,0
2,note_on,67,0,103
2,note_on,62,48,0
2,note_on,62,0,240
2,note_on,61,53,0
2,note_on,61,0,320
2,note_on,57,49,0
2,note_on,57,0,297
2,note_on,62,70,0
2,note_on,62,0,155
2,note_on,81,69,240
2,note_on,81,0,226
2,note_on,69,66,106
2,note_on,69,0,127
2,note_on,65,40,0
2,note_on,65,0,120
2,note_on,64,35,120
2,note_on,64,0,120
2,note_on,62,45,120
2,note_on,62,0,480
2,note_on,64,40,0
2,note_on,64,0,120
2,note_on,65,35,120
2,note_on,65,0,120
2,note_on,64,39,120
2,note_on,64,0,480
2,note_on,62,45,0
2,note_on,62,0,126
2,note_on,60,39,0
2,note_on,60,0,240
2,note_on,59,44,0
2,note_on,59,0,297
2,note_on,53,45,0
2,note_on,59,45,0
2,note_on,59,0,310
2,note_on,53,0,0
2,note_on,77,59,0
2,note_on,77,0,320
2,note_on,78,55,0
2,note_on,35,60,222
2,note_on,47,60,0
2,note_on,47,0,127
2,note_on,35,0,0
2,note_on,78,0,0
2,note_on,28,70,0
2,note_on,40,70,0
2,note_on,40,0,155
2,note_on,28,0,0
2,note_on,71,70,240
2,note_on,71,0,226
2,note_on,47,66,106
2,note_on,47,0,127
2,note_on,45,66,0
2,note_on,52,66,0
2,note_on,52,0,408
2,note_on,45,0,0
2,note_on,62,58,0
2,note_on,62,0,110
2,note_on,40,59,240
2,note_on,40,0,91
2,note_on,45,56,240
2,note_on,52,56,0
2,note_on,61,56,0
2,note_on,61,0,127
2,note_on,52,0,0
2,note_on,45,0,0
2,note_on,63,51,0
2,note_on,63,0,120
2,note_on,64,55,92
2,note_on,64,0,120
2,note_on,69,58,120
2,note_on,69,0,120
2,note_on,73,62,120
2,note_on,73,0,120
2,note_on,76,65,120
2,note_on,76,0,120
2,note_on,66,69,120
2,note_on,73,69,0
2,note_on,73,0,42
2,note_on,66,0,0
2,note_on,78,60,240
2,note_on,78,0,480
2,note_on,59,59,0
2,note_on,63,63,0
2,note_on,59,0,84
2,note_on,47,53,0
2,note_on,47,0,240
2,note_on,63,0,0
2,note_on,52,63,0
2,note_on,52,0,85
2,note_on,40,69,240
2,note_on,40,0,240
2,note_on,48,51,0
2,note_on,48,0,120
2,note_on,55,49,360
2,note_on,55,0,49
2,note_on,43,49,229
2,note_on,43,0,46
2,note_on,48,51,127
2,note_on,48,0,60
2,note_on,55,49,360
2,note_on,55,0,57
2,note_on,43,49,64
2,note_on,43,0,60
2,note_on,50,51,99
2,note_on,50,0,44
2,note_on,55,51,360
2,note_on,55,0,350
2,note_on,57,55,130
2,note_on,57,0,480
2,note_on,59,58,0
2,note_on,59,0,59
2,note_on,62,59,250
2,note_on,62,0,480
2,note_on,55,58,0
2,note_on,55,0,250
2,note_on,48,43,0
2,note_on,48,0,18
2,note_on,55,41,360
2,note_on,55,0,49
2,note_on,43,41,106
2,note_on,43,0,60
2,note_on,48,43,127
2,note_on,48,0,81
2,note_on,55,41,360
2,note_on,55,0,42
2,note_on,43,41,64
2,note_on,43,0,60
2,note_on,50,43,99
2,note_on,50,0,63
2,note_on,55,43,360
2,note_on,55,0,350
2,note_on,57,46,130
2,note_on,57,0,230
2,note_on,59,49,250
2,note_on,59,0,97
2,note_on,62,50,250
2,note_on,62,0,480
2,note_on,55,49,0
2,note_on,55,0,350
2,note_on,64,44,0
2,note_on,64,0,120
2,note_on,67,45,120
2,note_on,67,0,120
2,note_on,72,45,120
2,note_on,72,0,85
2,note_on,71,43,120
2,note_on,71,0,120
2,note_on,70,44,120
2,note_on,70,0,106
2,note_on,69,41,120
2,note_on,69,0,120
2,note_on,68,45,71
2,note_on,68,0,64
2,note_on,66,42,120
2,note_on,66,0,120
2,note_on,67,44,120
2,note_on,67,0,103
2,note_on,64,41,120
2,note_on,64,0,120
2,note_on,60,37,120
2,note_on,60,0,40
2,note_on,58,37,120
2,note_on,58,0,240
2,note_on,57,34,0
2,note_on,57,0,103
2,note_on,66,36,0
2,note_on,66,0,240
2,note_on,67,37,0
2,note_on,67,0,103
2,note_on,62,39,0
2,note_on,62,0,240
2,note_on,61,41,0
2,note_on,61,0,103
2,note_on,57,43,0
2,note_on,57,0,240
2,note_on,62,45,0
2,note_on,72,42,114
2,note_on,72,0,240
2,note_on,71,44,0
2,note_on,71,0,126
2,note_on,70,45,0
2,note_on,70,0,240
2,note_on,69,47,0
2,note_on,62,0,91
2,note_on,57,37,0
2,note_on,57,0,240
2,note_on,69,0,0
2,note_on,65,48,0
2,note_on,65,0,120
2,note_on,69,49,120
2,note_on,69,0,120
2,note_on,74,49,120
2,note_on,74,0,85
2,note_on,73,47,120
2,note_on,73,0,120
2,note_on,72,48,120
2,note_on,72,0,109
2,note_on,71,45,120
2,note_on,71,0,120
2,note_on,70,49,95
2,note_on,70,0,64
2,note_on,68,46,120
2,note_on,68,0,120
2,note_on,69,48,120
2,note_on,69,0,108
2,note_on,65,45,120
2,note_on,65,0,120
2,note_on,62,40,120
2,note_on,62,0,40
2,note_on,60,40,120
2,note_on,60,0,240
2,note_on,59,34,0
2,note_on,67,36,137
2,note_on,67,0,240
2,note_on,69,37,0
2,note_on,69,0,114
2,note_on,64,39,0
2,note_on,64,0,240
2,note_on,63,41,0
2,note_on,63,0,80
2,note_on,59,0,0
2,note_on,59,43,0
2,note_on,59,0,240
2,note_on,64,45,0
2,note_on,69,42,114
2,note_on,69,0,240
2,note_on,67,44,0
2,note_on,67,0,126
2,note_on,72,45,0
2,note_on,72,0,240
2,note_on,71,47,0
2,note_on,64,0,91
2,note_on,59,37,0
2,note_on,59,0,240
2,note_on,71,0,0
2,note_on,67,48,0
2,note_on,67,0,116
2,note_on,71,49,120
2,note_on,71,0,120
2,note_on,76,49,120
2,note_on,76,0,85
2,note_on,75,47,120
2,note_on,75,0,120
2,note_on,74,48,120
2,note_on,74,0,109
2,note_on,73,45,120
2,note_on,73,0,120
2,note_on,72,49,85
2,note_on,72,0,64
2,note_on,70,46,120
2,note_on,70,0,120
2,note_on,71,48,120
2,note_on,71,0,108
2,note_on,67,45,120
2,note_on,67,0,120
2,note_on,64,40,120
2,note_on,64,0,86
2,note_on,59,40,120
2,note_on,59,0,120
2,note_on,70,52,120
2,note_on,70,0,109
2,note_on,74,53,120
2,note_on,74,0,120
2,note_on,79,53,120
2,note_on,79,0,85
2,note_on,78,51,120
2,note_on,78,0,120
2,note_on,77,52,120
2,note_on,77,0,106
2,note_on,76,49,120
2,note_on,76,0,120
2,note_on,75,53,102
2,note_on,75,0,64
2,note_on,73,50,120
2,note_on,73,0,120
2,note_on,74,52,120
2,note_on,74,0,108
2,note_on,70,49,120
2,note_on,70,0,120
2,note_on,67,44,120
2,note_on,67,0,120
2,note_on,62,44,120
2,note_on,62,0,120
2,note_on,79,57,0
2,note_on,79,0,34
2,note_on,81,58,120
2,note_on,81,0,120
2,note_on,82,58,120
2,note_on,82,0,40
2,note_on,84,56,120
2,note_on,84,0,120
2,note_on,82,57,120
2,note_on,82,0,11
2,note_on,81,53,120
2,note_on,81,0,120
2,note_on,80,58,120
2,note_on,80,0,64
2,note_on,79,55,120
2,note_on,79,0,120
2,note_on,76,57,120
2,note_on,76,0,104
2,note_on,73,53,114
2,note_on,73,0,120
2,note_on,70,48,120
2,note_on,70,0,103
2,note_on,67,48,120
2,note_on,67,0,120
2,note_on,73,58,0
2,note_on,73,0,64
2,note_on,70,55,120
2,note_on,70,0,120
2,note_on,67,54,120
2,note_on,67,0,104
2,note_on,64,53,114
2,note_on,64,0,120
2,note_on,61,48,120
2,note_on,61,0,103
2,note_on,58,48,120
2,note_on,58,0,120
2,note_on,67,52,120
2,note_on,67,0,64
2,note_on,64,49,120
2,note_on,64,0,120
2,note_on,61,48,120
2,note_on,61,0,104
2,note_on,58,47,114
2,note_on,58,0,120
2,note_on,55,43,120
2,note_on,55,0,120
2,note_on,52,43,0
2,note_on,52,0,240
2,note_on,35,44,0
2,note_on,35,0,103
2,note_on,42,45,0
2,note_on,42,0,240
2,note_on,43,45,0
2,note_on,43,0,91
2,note_on,42,43,0
2,note_on,42,0,240
2,note_on,47,44,0
2,note_on,47,0,45
2,note_on,51,41,0
2,note_on,51,0,240
2,note_on,52,45,0
2,note_on,52,0,148
2,note_on,54,39,0
2,note_on,54,0,240
2,note_on,55,44,0
2,note_on,55,0,114
2,note_on,52,41,0
2,note_on,52,0,240
2,note_on,58,37,0
2,note_on,58,0,91
2,note_on,59,37,0
2,note_on,59,0,240
2,note_on,35,46,0
2,note_on,35,0,120
2,note_on,42,47,0
2,note_on,42,0,240
2,note_on,43,47,0
2,note_on,43,0,103
2,note_on,42,45,0
2,note_on,42,0,240
2,note_on,47,46,0
2,note_on,47,0,68
2,note_on,51,43,0
2,note_on,51,0,240
2,note_on,52,47,0
2,note_on,52,0,114
2,note_on,54,38,0
2,note_on,54,0,240
2,note_on,55,47,0
2,note_on,55,0,91
2,note_on,52,45,0
2,note_on,52,0,240
2,note_on,58,40,0
2,note_on,58,0,91
2,note_on,59,40,0
2,note_on,59,0,240
2,note_on,35,54,0
2,note_on,35,0,120
2,note_on,42,56,0
2,note_on,42,0,240
2,note_on,43,56,0
2,note_on,43,0,114
2,note_on,42,53,0
2,note_on,42,0,240
2,note_on,47,54,0
2,note_on,47,0,114
2,note_on,51,51,0
2,note_on,51,0,240
2,note_on,48,56,0
2,note_on,48,0,120
2,note_on,56,58,0
2,note_on,56,0,240
2,note_on,57,58,0
2,note_on,57,0,169
2,note_on,60,55,0
2,note_on,60,0,240
2,note_on,63,56,0
2,note_on,63,0,120
2,note_on,66,53,0
2,note_on,66,0,240
2,note_on,49,55,0
2,note_on,49,0,143
2,note_on,66,51,240
2,note_on,58,51,0
2,note_on,61,51,0
2,note_on,61,0,171
2,note_on,58,0,0
2,note_on,66,0,0
2,note_on,49,54,240
2,note_on,49,0,171
2,note_on,37,61,240
2,note_on,37,0,188
2,note_on,71,47,240
2,note_on,65,42,0
2,note_on,61,40,0
2,note_on,61,0,126
2,note_on,65,0,0
2,note_on,71,0,0
2,note_on,37,61,240
2,note_on,49,61,0
2,note_on,49,0,396
2,note_on,37,0,0
2,note_on,42,70,0
2,note_on,42,0,159
2,note_on,49,63,0
2,note_on,58,75,0
2,note_on,58,0,388
2,note_on,49,0,0
2,note_on,49,57,0
2,note_on,58,68,0
2,note_on,58,0,240
2,note_on,49,0,0
2,note_on,42,70,0
2,note_on,42,0,160
2,note_on,49,55,0
2,note_on,58,65,0
2,note_on,58,0,240
2,note_on,49,0,0
2,note_on,42,72,0
2,note_on,42,0,171
2,note_on,50,54,0
2,note_on,59,63,0
2,note_on,59,0,480
2,note_on,50,0,0
2,note_on,50,55,0
2,note_on,59,65,0
2,note_on,59,0,240
2,note_on,50,0,0
2,note_on,42,59,0
2,note_on,42,0,240
2,note_on,50,50,0
2,note_on,59,59,0
2,note_on,59,0,240
2,note_on,50,0,0
2,note_on,42,63,0
2,note_on,42,0,113
2,note_on,49,56,0
2,note_on,58,67,0
2,note_on,58,0,480
2,note_on,49,0,0
2,note_on,49,51,0
2,note_on,58,61,0
2,note_on,58,0,240
2,note_on,49,0,0
2,note_on,42,63,0
2,note_on,42,0,240
2,note_on,49,49,0
2,note_on,58,58,0
2,note_on,58,0,240
2,note_on,49,0,0
2,note_on,42,64,0
2,note_on,42,0,113
2,note_on,53,48,0
2,note_on,62,56,0
2,note_on,62,0,480
2,note_on,53,0,0
2,note_on,53,46,0
2,note_on,62,55,0
2,note_on,62,0,240
2,note_on,53,0,0
2,note_on,42,50,0
2,note_on,42,0,240
2,note_on,53,42,0
2,note_on,62,50,0
2,note_on,62,0,240
2,note_on,53,0,0
2,note_on,42,70,0
2,note_on,42,0,152
2,note_on,49,63,0
2,note_on,58,75,0
2,note_on,58,0,134
2,note_on,49,0,0
2,note_on,49,57,0
2,note_on,58,68,0
2,note_on,58,0,240
2,note_on,49,0,0
2,note_on,42,70,0
2,note_on,42,0,160
2,note_on,49,55,0
2,note_on,58,65,0
2,note_on,58,0,240
2,note_on,49,0,0
2,note_on,42,72,0
2,note_on,42,0,184
2,note_on,50,54,0
2,note_on,59,63,0
2,note_on,59,0,480
2,note_on,50,0,0
2,note_on,50,55,0
2,note_on,59,65,0
2,note_on,59,0,240
2,note_on,50,0,0
2,note_on,42,59,0
2,note_on,42,0,240
2,note_on,50,50,0
2,note_on,59,59,0
2,note_on,59,0,240
2,note_on,50,0,0
2,note_on,42,63,0
2,note_on,42,0,84
2,note_on,49,56,0
2,note_on,58,67,0
2,note_on,58,0,480
2,note_on,49,0,0
2,note_on,49,51,0
2,note_on,58,61,0
2,note_on,58,0,240
2,note_on,49,0,0
2,note_on,42,63,0
2,note_on,42,0,240
2,note_on,49,49,0
2,note_on,58,58,0
2,note_on,58,0,240
2,note_on,49,0,0
2,note_on,42,64,0
2,note_on,42,0,70
2,note_on,53,48,0
2,note_on,62,56,0
2,note_on,62,0,480
2,note_on,53,0,0
2,note_on,53,46,0
2,note_on,62,55,0
2,note_on,62,0,240
2,note_on,53,0,0
2,note_on,42,50,0
2,note_on,42,0,240
2,note_on,53,42,0
2,note_on,62,50,0
2,note_on,62,0,240
2,note_on,53,0,0
2,note_on,54,51,0
2,note_on,54,0,17
2,note_on,61,49,360
2,note_on,61,0,46
2,note_on,49,49,106
2,note_on,49,0,60
2,note_on,56,48,127
2,note_on,56,0,126
2,note_on,61,44,0
2,note_on,65,44,0
2,note_on,71,53,0
2,note_on,71,0,480
2,note_on,65,0,0
2,note_on,61,0,0
2,note_on,61,32,0
2,note_on,65,32,0
2,note_on,71,45,0
2,note_on,71,0,240
2,note_on,65,0,0
2,note_on,61,0,0
2,note_on,49,53,0
2,note_on,49,0,240
2,note_on,61,31,0
2,note_on,65,31,0
2,note_on,71,43,0
2,note_on,71,0,240
2,note_on,65,0,0
2,note_on,61,0,0
2,note_on,54,51,0
2,note_on,54,0,21
2,note_on,61,49,360
2,note_on,61,0,56
2,note_on,49,49,106
2,note_on,49,0,60
2,note_on,56,48,127
2,note_on,56,0,50
2,note_on,61,44,0
2,note_on,65,44,0
2,note_on,71,53,0
2,note_on,71,0,480
2,note_on,65,0,0
2,note_on,61,0,0
2,note_on,61,32,0
2,note_on,65,32,0
2,note_on,71,45,0
2,note_on,71,0,240
2,note_on,65,0,0
2,note_on,61,0,0
2,note_on,49,53,0
2,note_on,49,0,240
2,note_on,61,31,0
2,note_on,65,31,0
2,note_on,71,43,0
2,note_on,71,0,240
2,note_on,65,0,0
2,note_on,61,0,0
2,note_on,54,51,0
2,note_on,54,0,21
2,note_on,61,49,360
2,note_on,61,0,46
2,note_on,49,49,106
2,note_on,49,0,60
2,note_on,42,58,127
2,note_on,42,0,451
2,note_on,50,52,0
2,note_on,60,52,0
2,note_on,60,0,480
2,note_on,50,0,0
2,note_on,38,52,0
2,note_on,38,0,406
2,note_on,43,59,0
2,note_on,43,0,394
2,note_on,50,55,0
2,note_on,59,55,0
2,note_on,59,0,480
2,note_on,50,0,0
2,note_on,43,55,0
2,note_on,43,0,371
2,note_on,49,50,0
2,note_on,53,38,240
2,note_on,53,0,60
2,note_on,54,45,180
2,note_on,54,0,60
2,note_on,56,39,180
2,note_on,56,0,60
2,note_on,54,44,180
2,note_on,54,0,60
2,note_on,53,40,180
2,note_on,53,0,60
2,note_on,49,0,180
2,note_on,54,51,0
2,note_on,54,0,54
2,note_on,61,49,360
2,note_on,61,0,56
2,note_on,49,49,106
2,note_on,49,0,60
2,note_on,56,48,127
2,note_on,56,0,194
2,note_on,61,44,0
2,note_on,65,44,0
2,note_on,71,53,0
2,note_on,71,0,480
2,note_on,65,0,0
2,note_on,61,0,0
2,note_on,61,32,0
2,note_on,65,32,0
2,note_on,71,45,0
2,note_on,71,0,240
2,note_on,65,0,0
2,note_on,61,0,0
2,note_on,49,53,0
2,note_on,49,0,240
2,note_on,61,31,0
2,note_on,65,31,0
2,note_on,71,43,0
2,note_on,71,0,240
2,note_on,65,0,0
2,note_on,61,0,0
2,note_on,54,51,0
2,note_on,54,0,28
2,note_on,61,49,360
2,note_on,61,0,53
2,note_on,49,49,106
2,note_on,49,0,60
2,note_on,56,48,127
2,note_on,56,0,194
2,note_on,61,44,0
2,note_on,65,44,0
2,note_on,71,53,0
2,note_on,71,0,480
2,note_on,65,0,0
2,note_on,61,0,0
2,note_on,61,32,0
2,note_on,65,32,0
2,note_on,71,45,0
2,note_on,71,0,240
2,note_on,65,0,0
2,note_on,61,0,0
2,note_on,49,53,0
2,note_on,49,0,240
2,note_on,61,31,0
2,note_on,65,31,0
2,note_on,71,43,0
2,note_on,71,0,240
2,note_on,65,0,0
2,note_on,61,0,0
2,note_on,54,51,0
2,note_on,54,0,120
2,note_on,61,49,360
2,note_on,61,0,49
2,note_on,49,49,106
2,note_on,49,0,60
2,note_on,42,58,127
2,note_on,42,0,388
2,note_on,50,52,0
2,note_on,60,52,0
2,note_on,60,0,480
2,note_on,50,0,0
2,note_on,38,52,0
2,note_on,38,0,406
2,note_on,43,59,0
2,note_on,43,0,394
2,note_on,50,55,0
2,note_on,59,55,0
2,note_on,59,0,480
2,note_on,50,0,0
2,note_on,43,55,0
2,note_on,43,0,371
2,note_on,49,50,0
2,note_on,53,38,240
2,note_on,53,0,60
2,note_on,54,45,180
2,note_on,54,0,60
2,note_on,56,39,180
2,note_on,56,0,60
2,note_on,54,44,180
2,note_on,54,0,60
2,note_on,53,40,180
2,note_on,53,0,60
2,note_on,49,0,180
2,note_on,42,61,0
2,note_on,49,61,0
2,note_on,49,0,169
2,note_on,42,0,0
2,note_on,80,69,240
2,note_on,80,0,120
2,note_on,80,69,360
2,note_on,80,0,120
2,note_on,80,69,360
2,note_on,80,0,120
2,note_on,80,69,360
2,note_on,80,0,120
2,note_on,80,69,360
2,note_on,80,0,120
2,note_on,54,73,360
2,note_on,50,73,0
2,note_on,42,62,0
2,note_on,42,0,114
2,note_on,50,0,0
2,note_on,54,0,0
2,note_on,64,64,240
2,note_on,64,0,120
2,note_on,64,64,360
2,note_on,64,0,120
2,note_on,64,64,360
2,note_on,64,0,120
2,note_on,64,64,360
2,note_on,64,0,120
2,note_on,64,64,360
2,note_on,64,0,120
2,note_on,49,61,360
2,note_on,42,61,0
2,note_on,54,73,0
2,note_on,54,0,120
2,note_on,42,0,0
2,note_on,49,0,0
2,note_on,80,68,240
2,note_on,80,0,120
2,note_on,80,68,360
2,note_on,80,0,120
2,note_on,80,68,360
2,note_on,80,0,120
2,note_on,80,68,360
2,note_on,80,0,120
2,note_on,80,68,360
2,note_on,80,0,120
2,note_on,51,73,360
2,note_on,46,61,0
2,note_on,39,61,0
2,note_on,39,0,160
2,note_on,46,0,0
2,note_on,51,0,0
2,note_on,65,64,240
2,note_on,65,0,120
2,note_on,65,64,360
2,note_on,65,0,120
2,note_on,65,64,360
2,note_on,65,0,120
2,note_on,65,64,360
2,note_on,65,0,120
2,note_on,47,52,360
2,note_on,54,62,0
2,note_on,59,62,0
2,note_on,59,0,21
2,note_on,54,0,0
2,note_on,47,0,0
2,note_on,47,51,120
2,note_on,54,61,0
2,note_on,59,61,0
2,note_on,59,0,120
2,note_on,54,0,0
2,note_on,47,0,0
2,note_on,42,58,120
2,note_on,49,58,0
2,note_on,54,69,0
2,note_on,54,0,132
2,note_on,49,0,0
2,note_on,42,0,0
2,note_on,61,68,240
2,note_on,61,0,120
2,note_on,66,72,360
2,note_on,66,0,120
2,note_on,73,73,360
2,note_on,73,0,120
2,note_on,78,77,360
2,note_on,78,0,120
2,note_on,85,79,360
2,note_on,85,0,120
2,note_on,90,90,360
2,note_on,90,0,53
2,note_on,47,55,46
2,note_on,54,55,0
2,note_on,59,66,0
2,note_on,59,0,240
2,note_on,54,0,0
2,note_on,47,0,0
2,note_on,42,61,169
2,note_on,49,61,30
2,note_on,58,73,30
2,note_on,58,0,113
2,note_on,49,0,0
2,note_on,42,0,0
2,note_on,54,62,875
2,note_on,61,62,30
2,note_on,70,73,30
2,note_on,70,0,169
2,note_on,61,0,0
2,note_on,54,0,0
