Track,Message Type,Note,Velocity,Time
1,note_on,58,38,0
1,note_on,67,49,0
1,note_on,63,41,0
1,note_on,58,0,240
1,note_on,57,37,0
1,note_on,57,0,240
1,note_on,58,38,0
1,note_on,58,0,240
1,note_on,63,0,0
1,note_on,67,0,0
1,note_on,55,45,0
1,note_on,55,0,240
1,note_on,67,50,0
1,note_on,63,50,0
1,note_on,55,47,0
1,note_on,55,0,240
1,note_on,58,42,0
1,note_on,58,0,240
1,note_on,63,0,0
1,note_on,67,0,0
1,note_on,57,38,0
1,note_on,62,41,0
1,note_on,68,49,0
1,note_on,57,0,240
1,note_on,58,38,0
1,note_on,58,0,240
1,note_on,60,42,0
1,note_on,60,0,240
1,note_on,68,0,0
1,note_on,62,0,0
1,note_on,61,39,0
1,note_on,61,0,240
1,note_on,62,38,0
1,note_on,68,48,0
1,note_on,62,0,240
1,note_on,58,40,0
1,note_on,58,0,240
1,note_on,68,0,0
1,note_on,67,46,0
1,note_on,58,36,0
1,note_on,63,38,0
1,note_on,58,0,240
1,note_on,57,38,0
1,note_on,57,0,240
1,note_on,58,42,0
1,note_on,58,0,240
1,note_on,63,0,0
1,note_on,67,0,0
1,note_on,55,45,0
1,note_on,55,0,240
1,note_on,67,50,0
1,note_on,63,50,0
1,note_on,55,47,0
1,note_on,55,0,240
1,note_on,58,41,0
1,note_on,58,0,240
1,note_on,63,0,0
1,note_on,67,0,0
1,note_on,62,38,0
1,note_on,57,36,0
1,note_on,68,46,0
1,note_on,57,0,240
1,note_on,58,37,0
1,note_on,58,0,240
1,note_on,60,42,0
1,note_on,60,0,240
1,note_on,68,0,0
1,note_on,62,0,0
1,note_on,61,42,0
1,note_on,61,0,240
1,note_on,62,38,0
1,note_on,68,48,0
1,note_on,62,0,240
1,note_on,58,40,0
1,note_on,58,0,240
1,note_on,68,0,0
1,note_on,63,47,0
1,note_on,75,47,0
1,note_on,75,0,240
1,note_on,63,0,0
1,note_on,65,41,0
1,note_on,77,41,0
1,note_on,77,0,240
1,note_on,65,0,0
1,note_on,79,49,0
1,note_on,79,0,240
1,note_on,70,52,0
1,note_on,82,52,0
1,note_on,82,0,360
1,note_on,70,0,0
1,note_on,70,43,0
1,note_on,82,43,0
1,note_on,82,0,360
1,note_on,70,0,0
1,note_on,70,52,240
1,note_on,82,52,0
1,note_on,82,0,240
1,note_on,70,0,0
1,note_on,72,50,0
1,note_on,84,50,0
1,note_on,84,0,240
1,note_on,72,0,0
1,note_on,74,55,0
1,note_on,86,55,0
1,note_on,86,0,240
1,note_on,74,0,0
1,note_on,89,54,0
1,note_on,77,54,0
1,note_on,77,0,240
1,note_on,89,0,0
1,note_on,86,53,0
1,note_on,74,53,0
1,note_on,74,0,240
1,note_on,86,0,0
1,note_on,84,55,0
1,note_on,72,55,0
1,note_on,72,0,240
1,note_on,84,0,0
1,note_on,74,53,0
1,note_on,86,53,0
1,note_on,86,0,240
1,note_on,74,0,0
1,note_on,72,46,0
1,note_on,84,46,0
1,note_on,84,0,240
1,note_on,72,0,0
1,note_on,67,51,0
1,note_on,79,51,0
1,note_on,79,0,360
1,note_on,67,0,0
1,note_on,67,43,0
1,note_on,79,43,0
1,note_on,79,0,360
1,note_on,67,0,0
1,note_on,65,52,240
1,note_on,77,52,0
1,note_on,77,0,240
1,note_on,65,0,0
1,note_on,67,50,0
1,note_on,79,50,0
1,note_on,79,0,240
1,note_on,67,0,0
1,note_on,68,55,0
1,note_on,80,55,0
1,note_on,80,0,240
1,note_on,68,0,0
1,note_on,82,53,0
1,note_on,70,53,0
1,note_on,70,0,240
1,note_on,82,0,0
1,note_on,80,53,0
1,note_on,68,53,0
1,note_on,68,0,240
1,note_on,80,0,0
1,note_on,79,55,0
1,note_on,67,55,0
1,note_on,67,0,238
1,note_on,79,0,2
1,note_on,65,50,0
1,note_on,77,50,0
1,note_on,77,0,240
1,note_on,65,0,0
1,note_on,63,46,0
1,note_on,75,46,0
1,note_on,75,0,240
1,note_on,63,0,0
1,note_on,58,46,0
1,note_on,70,46,0
1,note_on,70,0,360
1,note_on,58,0,0
1,note_on,58,43,0
1,note_on,70,43,0
1,note_on,70,0,360
1,note_on,58,0,0
1,note_on,62,46,240
1,note_on,65,52,0
1,note_on,65,0,240
1,note_on,67,49,0
1,note_on,67,0,240
1,note_on,68,55,0
1,note_on,68,0,240
1,note_on,70,53,0
1,note_on,70,0,240
1,note_on,68,53,0
1,note_on,68,0,120
1,note_on,67,49,0
1,note_on,67,0,60
1,note_on,68,50,0
1,note_on,68,0,60
1,note_on,62,0,0
1,note_on,63,48,0
1,note_on,67,55,0
1,note_on,67,0,240
1,note_on,65,50,0
1,note_on,65,0,240
1,note_on,63,0,0
1,note_on,63,46,0
1,note_on,63,0,240
1,note_on,58,51,0
1,note_on,58,0,238
1,note_on,60,50,2
1,note_on,60,0,240
1,note_on,63,50,0
1,note_on,63,0,240
1,note_on,56,48,0
1,note_on,62,55,0
1,note_on,56,0,238
1,note_on,62,0,2
1,note_on,65,50,0
1,note_on,65,0,240
1,note_on,62,46,0
1,note_on,62,0,120
1,note_on,60,41,0
1,note_on,60,0,60
1,note_on,62,41,0
1,note_on,62,0,60
1,note_on,60,50,0
1,note_on,60,0,360
1,note_on,58,45,0
1,note_on,56,45,0
1,note_on,56,0,360
1,note_on,58,0,0
1,note_on,58,38,0
1,note_on,67,49,0
1,note_on,63,41,0
1,note_on,58,0,240
1,note_on,57,41,0
1,note_on,57,0,240
1,note_on,58,41,0
1,note_on,58,0,240
1,note_on,63,0,0
1,note_on,67,0,0
1,note_on,55,47,0
1,note_on,55,0,240
1,note_on,67,50,0
1,note_on,63,50,0
1,note_on,55,47,0
1,note_on,55,0,240
1,note_on,58,42,0
1,note_on,58,0,240
1,note_on,63,0,0
1,note_on,67,0,0
1,note_on,57,38,0
1,note_on,62,41,0
1,note_on,68,49,0
1,note_on,57,0,240
1,note_on,58,38,0
1,note_on,58,0,240
1,note_on,60,42,0
1,note_on,60,0,240
1,note_on,68,0,0
1,note_on,62,0,0
1,note_on,61,39,0
1,note_on,61,0,240
1,note_on,62,38,0
1,note_on,68,48,0
1,note_on,62,0,240
1,note_on,58,40,0
1,note_on,58,0,240
1,note_on,68,0,0
1,note_on,58,36,0
1,note_on,67,46,0
1,note_on,63,38,0
1,note_on,58,0,240
1,note_on,57,44,0
1,note_on,57,0,240
1,note_on,58,44,0
1,note_on,58,0,240
1,note_on,63,0,0
1,note_on,67,0,0
1,note_on,55,47,0
1,note_on,55,0,240
1,note_on,67,50,0
1,note_on,63,50,0
1,note_on,55,47,0
1,note_on,55,0,240
1,note_on,58,41,0
1,note_on,58,0,240
1,note_on,63,0,0
1,note_on,67,0,0
1,note_on,57,36,0
1,note_on,62,38,0
1,note_on,68,46,0
1,note_on,57,0,240
1,note_on,58,39,0
1,note_on,58,0,240
1,note_on,60,42,0
1,note_on,60,0,240
1,note_on,68,0,0
1,note_on,62,0,0
1,note_on,61,39,0
1,note_on,61,0,240
1,note_on,62,38,0
1,note_on,68,48,0
1,note_on,62,0,240
1,note_on,58,40,0
1,note_on,58,0,240
1,note_on,68,0,0
1,note_on,63,47,0
1,note_on,75,47,0
1,note_on,75,0,240
1,note_on,63,0,0
1,note_on,65,41,0
1,note_on,77,41,0
1,note_on,77,0,240
1,note_on,65,0,0
1,note_on,79,42,0
1,note_on,79,0,240
1,note_on,70,54,0
1,note_on,82,54,0
1,note_on,82,0,360
1,note_on,70,0,0
1,note_on,70,43,0
1,note_on,82,43,0
1,note_on,82,0,360
1,note_on,70,0,0
1,note_on,70,52,240
1,note_on,82,52,0
1,note_on,82,0,240
1,note_on,70,0,0
1,note_on,72,48,0
1,note_on,84,48,0
1,note_on,84,0,240
1,note_on,72,0,0
1,note_on,74,55,0
1,note_on,86,55,0
1,note_on,86,0,240
1,note_on,74,0,0
1,note_on,89,50,0
1,note_on,77,50,0
1,note_on,77,0,240
1,note_on,89,0,0
1,note_on,86,53,0
1,note_on,74,53,0
1,note_on,74,0,240
1,note_on,86,0,0
1,note_on,84,55,0
1,note_on,72,55,0
1,note_on,72,0,240
1,note_on,84,0,0
1,note_on,74,53,0
1,note_on,86,53,0
1,note_on,86,0,240
1,note_on,74,0,0
1,note_on,72,46,0
1,note_on,84,46,0
1,note_on,84,0,240
1,note_on,72,0,0
1,note_on,67,51,0
1,note_on,79,51,0
1,note_on,79,0,360
1,note_on,67,0,0
1,note_on,67,43,0
1,note_on,79,43,0
1,note_on,79,0,360
1,note_on,67,0,0
1,note_on,65,52,240
1,note_on,77,52,0
1,note_on,77,0,240
1,note_on,65,0,0
1,note_on,67,53,0
1,note_on,79,53,0
1,note_on,79,0,240
1,note_on,67,0,0
1,note_on,68,53,0
1,note_on,80,53,0
1,note_on,80,0,240
1,note_on,68,0,0
1,note_on,82,53,0
1,note_on,70,53,0
1,note_on,70,0,240
1,note_on,82,0,0
1,note_on,80,53,0
1,note_on,68,53,0
1,note_on,68,0,240
1,note_on,80,0,0
1,note_on,79,55,0
1,note_on,67,55,0
1,note_on,67,0,238
1,note_on,79,0,2
1,note_on,65,48,0
1,note_on,77,48,0
1,note_on,77,0,240
1,note_on,65,0,0
1,note_on,63,46,0
1,note_on,75,46,0
1,note_on,75,0,240
1,note_on,63,0,0
1,note_on,58,49,0
1,note_on,70,49,0
1,note_on,70,0,360
1,note_on,58,0,0
1,note_on,58,43,0
1,note_on,70,43,0
1,note_on,70,0,360
1,note_on,58,0,0
1,note_on,62,46,240
1,note_on,65,52,0
1,note_on,65,0,240
1,note_on,67,53,0
1,note_on,67,0,240
1,note_on,68,55,0
1,note_on,68,0,240
1,note_on,70,53,0
1,note_on,70,0,240
1,note_on,68,53,0
1,note_on,68,0,120
1,note_on,67,49,0
1,note_on,67,0,60
1,note_on,68,50,0
1,note_on,68,0,60
1,note_on,62,0,0
1,note_on,63,48,0
1,note_on,67,55,0
1,note_on,67,0,240
1,note_on,65,50,0
1,note_on,65,0,240
1,note_on,63,0,0
1,note_on,63,46,0
1,note_on,63,0,240
1,note_on,58,51,0
1,note_on,58,0,238
1,note_on,60,50,2
1,note_on,60,0,240
1,note_on,63,50,0
1,note_on,63,0,240
1,note_on,56,48,0
1,note_on,62,55,0
1,note_on,56,0,238
1,note_on,62,0,2
1,note_on,65,50,0
1,note_on,65,0,240
1,note_on,62,46,0
1,note_on,62,0,120
1,note_on,60,41,0
1,note_on,60,0,60
1,note_on,62,41,0
1,note_on,62,0,60
1,note_on,60,50,0
1,note_on,60,0,360
1,note_on,58,45,0
1,note_on,56,45,0
1,note_on,56,0,360
1,note_on,58,0,0
1,note_on,58,38,0
1,note_on,67,49,0
1,note_on,63,41,0
1,note_on,58,0,240
1,note_on,57,44,0
1,note_on,57,0,240
1,note_on,58,44,0
1,note_on,58,0,240
1,note_on,63,0,0
1,note_on,67,0,0
1,note_on,55,47,0
1,note_on,55,0,240
1,note_on,67,50,0
1,note_on,63,50,0
1,note_on,55,47,0
1,note_on,55,0,240
1,note_on,58,42,0
1,note_on,58,0,240
1,note_on,63,0,0
1,note_on,67,0,0
1,note_on,57,38,0
1,note_on,62,41,0
1,note_on,68,49,0
1,note_on,57,0,240
1,note_on,58,42,0
1,note_on,58,0,240
1,note_on,60,42,0
1,note_on,60,0,240
1,note_on,68,0,0
1,note_on,62,0,0
1,note_on,61,42,0
1,note_on,61,0,240
1,note_on,62,38,0
1,note_on,68,48,0
1,note_on,62,0,240
1,note_on,58,40,0
1,note_on,58,0,240
1,note_on,68,0,0
1,note_on,58,36,0
1,note_on,67,46,0
1,note_on,63,38,0
1,note_on,58,0,240
1,note_on,57,44,0
1,note_on,57,0,240
1,note_on,58,44,0
1,note_on,58,0,240
1,note_on,63,0,0
1,note_on,67,0,0
1,note_on,55,47,0
1,note_on,55,0,240
1,note_on,67,50,0
1,note_on,63,50,0
1,note_on,55,47,0
1,note_on,55,0,240
1,note_on,58,41,0
1,note_on,58,0,240
1,note_on,63,0,0
1,note_on,67,0,0
1,note_on,57,36,0
1,note_on,62,38,0
1,note_on,68,46,0
1,note_on,57,0,240
1,note_on,58,42,0
1,note_on,58,0,240
1,note_on,60,42,0
1,note_on,60,0,240
1,note_on,68,0,0
1,note_on,62,0,0
1,note_on,61,38,0
1,note_on,61,0,240
1,note_on,62,38,0
1,note_on,68,48,0
1,note_on,62,0,240
1,note_on,58,40,0
1,note_on,58,0,240
1,note_on,68,0,0
1,note_on,63,47,0
1,note_on,75,47,0
1,note_on,75,0,240
1,note_on,63,0,0
1,note_on,65,46,0
1,note_on,77,46,0
1,note_on,77,0,240
1,note_on,65,0,0
1,note_on,79,42,0
1,note_on,79,0,240
1,note_on,70,53,0
1,note_on,82,53,0
1,note_on,82,0,720
1,note_on,70,0,0
1,note_on,70,52,240
1,note_on,82,52,0
1,note_on,82,0,240
1,note_on,70,0,0
1,note_on,72,50,0
1,note_on,84,50,0
1,note_on,84,0,240
1,note_on,72,0,0
1,note_on,73,55,0
1,note_on,85,55,0
1,note_on,85,0,240
1,note_on,73,0,0
1,note_on,89,47,0
1,note_on,77,38,0
1,note_on,77,0,240
1,note_on,89,0,0
1,note_on,85,53,0
1,note_on,73,53,0
1,note_on,73,0,240
1,note_on,85,0,0
1,note_on,84,55,0
1,note_on,72,55,0
1,note_on,72,0,240
1,note_on,84,0,0
1,note_on,70,52,0
1,note_on,82,52,0
1,note_on,82,0,240
1,note_on,70,0,0
1,note_on,63,46,0
1,note_on,75,46,0
1,note_on,75,0,240
1,note_on,63,0,0
1,note_on,63,51,0
1,note_on,75,51,0
1,note_on,75,0,240
1,note_on,63,0,0
1,note_on,65,49,0
1,note_on,77,51,0
1,note_on,77,0,480
1,note_on,65,0,0
1,note_on,67,52,240
1,note_on,79,52,0
1,note_on,79,0,240
1,note_on,67,0,0
1,note_on,68,49,0
1,note_on,80,49,0
1,note_on,80,0,240
1,note_on,68,0,0
1,note_on,70,55,0
1,note_on,82,55,0
1,note_on,82,0,240
1,note_on,70,0,0
1,note_on,87,55,0
1,note_on,75,55,0
1,note_on,75,0,240
1,note_on,87,0,0
1,note_on,84,49,0
1,note_on,72,49,0
1,note_on,72,0,240
1,note_on,84,0,0
1,note_on,82,55,0
1,note_on,70,55,0
1,note_on,70,0,240
1,note_on,82,0,0
1,note_on,68,50,0
1,note_on,80,50,0
1,note_on,80,0,240
1,note_on,68,0,0
1,note_on,63,46,0
1,note_on,75,46,0
1,note_on,75,0,240
1,note_on,63,0,0
1,note_on,63,51,0
1,note_on,75,51,0
1,note_on,75,0,240
1,note_on,63,0,0
1,note_on,68,55,0
1,note_on,80,55,0
1,note_on,80,0,720
1,note_on,68,0,0
1,note_on,72,52,0
1,note_on,75,52,0
1,note_on,84,61,0
1,note_on,80,61,0
1,note_on,80,0,720
1,note_on,72,0,0
1,note_on,75,0,0
1,note_on,84,0,0
1,note_on,87,67,0
1,note_on,84,67,0
1,note_on,80,55,0
1,note_on,75,55,0
1,note_on,75,0,480
1,note_on,87,0,0
1,note_on,84,0,0
1,note_on,80,0,0
1,note_on,63,57,240
1,note_on,75,57,0
1,note_on,75,0,720
1,note_on,63,0,0
1,note_on,68,63,0
1,note_on,80,64,0
1,note_on,80,0,720
1,note_on,68,0,0
1,note_on,71,56,0
1,note_on,75,56,0
1,note_on,83,67,0
1,note_on,80,67,0
1,note_on,80,0,720
1,note_on,71,0,0
1,note_on,75,0,0
1,note_on,83,0,0
1,note_on,87,71,0
1,note_on,83,71,0
1,note_on,80,59,0
1,note_on,75,59,0
1,note_on,75,0,480
1,note_on,87,0,0
1,note_on,83,0,0
1,note_on,80,0,0
1,note_on,63,46,0
1,note_on,75,60,0
1,note_on,75,0,240
1,note_on,63,0,0
1,note_on,65,56,0
1,note_on,77,56,0
1,note_on,77,0,240
1,note_on,65,0,0
1,note_on,79,55,0
1,note_on,79,0,240
1,note_on,70,54,0
1,note_on,82,66,0
1,note_on,82,0,360
1,note_on,70,0,0
1,note_on,70,43,0
1,note_on,82,53,0
1,note_on,82,0,360
1,note_on,70,0,0
1,note_on,70,52,240
1,note_on,82,65,0
1,note_on,82,0,240
1,note_on,70,0,0
1,note_on,72,60,0
1,note_on,84,60,0
1,note_on,84,0,240
1,note_on,72,0,0
1,note_on,74,66,0
1,note_on,86,66,0
1,note_on,86,0,240
1,note_on,74,0,0
1,note_on,89,61,0
1,note_on,77,54,0
1,note_on,77,0,240
1,note_on,89,0,0
1,note_on,86,66,0
1,note_on,74,53,0
1,note_on,74,0,240
1,note_on,86,0,0
1,note_on,84,68,0
1,note_on,72,68,0
1,note_on,72,0,240
1,note_on,84,0,0
1,note_on,74,53,0
1,note_on,86,66,0
1,note_on,86,0,240
1,note_on,74,0,0
1,note_on,72,45,0
1,note_on,84,57,0
1,note_on,84,0,240
1,note_on,72,0,0
1,note_on,67,51,0
1,note_on,79,63,0
1,note_on,79,0,360
1,note_on,67,0,0
1,note_on,67,43,0
1,note_on,79,53,0
1,note_on,79,0,360
1,note_on,67,0,0
1,note_on,70,52,240
1,note_on,82,62,0
1,note_on,82,0,240
1,note_on,70,0,0
1,note_on,72,51,0
1,note_on,84,51,0
1,note_on,84,0,240
1,note_on,72,0,0
1,note_on,70,55,0
1,note_on,82,65,0
1,note_on,82,0,240
1,note_on,70,0,0
1,note_on,80,60,0
1,note_on,68,51,0
1,note_on,68,0,240
1,note_on,80,0,0
1,note_on,79,58,0
1,note_on,67,49,0
1,note_on,67,0,240
1,note_on,79,0,0
1,note_on,77,62,0
1,note_on,65,52,0
1,note_on,65,0,240
1,note_on,77,0,0
1,note_on,67,49,0
1,note_on,79,58,0
1,note_on,79,0,240
1,note_on,67,0,0
1,note_on,68,47,0
1,note_on,80,56,0
1,note_on,80,0,240
1,note_on,68,0,0
1,note_on,75,62,0
1,note_on,87,66,0
1,note_on,87,0,360
1,note_on,75,0,0
1,note_on,72,51,0
1,note_on,84,55,0
1,note_on,84,0,360
1,note_on,72,0,0
1,note_on,72,52,240
1,note_on,84,62,0
1,note_on,84,0,240
1,note_on,72,0,0
1,note_on,75,49,0
1,note_on,87,58,0
1,note_on,87,0,240
1,note_on,75,0,0
1,note_on,72,54,0
1,note_on,84,60,0
1,note_on,84,0,240
1,note_on,72,0,0
1,note_on,80,57,0
1,note_on,68,52,0
1,note_on,68,0,240
1,note_on,80,0,0
1,note_on,79,58,0
1,note_on,67,49,0
1,note_on,67,0,240
1,note_on,79,0,0
1,note_on,77,58,0
1,note_on,65,49,0
1,note_on,65,0,240
1,note_on,77,0,0
1,note_on,67,49,0
1,note_on,79,58,0
1,note_on,79,0,240
1,note_on,67,0,0
1,note_on,68,47,0
1,note_on,80,56,0
1,note_on,80,0,240
1,note_on,68,0,0
1,note_on,74,57,0
1,note_on,86,68,0
1,note_on,86,0,360
1,note_on,74,0,0
1,note_on,72,48,0
1,note_on,84,57,0
1,note_on,84,0,600
1,note_on,72,0,0
1,note_on,64,44,0
1,note_on,76,52,0
1,note_on,76,0,240
1,note_on,64,0,0
1,note_on,65,40,0
1,note_on,77,48,0
1,note_on,77,0,240
1,note_on,65,0,0
1,note_on,68,47,0
1,note_on,80,57,0
1,note_on,80,0,360
1,note_on,68,0,0
1,note_on,67,43,0
1,note_on,79,51,0
1,note_on,79,0,360
1,note_on,67,0,0
1,note_on,58,38,0
1,note_on,67,49,0
1,note_on,63,41,0
1,note_on,58,0,240
1,note_on,57,44,0
1,note_on,57,0,240
1,note_on,58,44,0
1,note_on,58,0,240
1,note_on,63,0,0
1,note_on,67,0,0
1,note_on,55,47,0
1,note_on,55,0,240
1,note_on,67,50,0
1,note_on,63,50,0
1,note_on,55,47,0
1,note_on,55,0,240
1,note_on,58,42,0
1,note_on,58,0,240
1,note_on,63,0,0
1,note_on,67,0,0
1,note_on,57,38,0
1,note_on,62,41,0
1,note_on,68,49,0
1,note_on,57,0,240
1,note_on,58,37,0
1,note_on,58,0,240
1,note_on,60,42,0
1,note_on,60,0,240
1,note_on,68,0,0
1,note_on,62,0,0
1,note_on,61,38,0
1,note_on,61,0,240
1,note_on,62,38,0
1,note_on,68,48,0
1,note_on,62,0,240
1,note_on,58,40,0
1,note_on,58,0,240
1,note_on,68,0,0
1,note_on,58,36,0
1,note_on,67,46,0
1,note_on,63,38,0
1,note_on,58,0,240
1,note_on,57,40,0
1,note_on,57,0,240
1,note_on,58,44,0
1,note_on,58,0,240
1,note_on,63,0,0
1,note_on,67,0,0
1,note_on,55,47,0
1,note_on,55,0,240
1,note_on,67,50,0
1,note_on,63,50,0
1,note_on,55,47,0
1,note_on,55,0,240
1,note_on,58,41,0
1,note_on,58,0,240
1,note_on,63,0,0
1,note_on,67,0,0
1,note_on,57,36,0
1,note_on,62,38,0
1,note_on,68,46,0
1,note_on,57,0,240
1,note_on,58,38,0
1,note_on,58,0,240
1,note_on,60,42,0
1,note_on,60,0,240
1,note_on,68,0,0
1,note_on,62,0,0
1,note_on,61,38,0
1,note_on,61,0,240
1,note_on,62,38,0
1,note_on,68,48,0
1,note_on,62,0,240
1,note_on,58,40,0
1,note_on,58,0,240
1,note_on,68,0,0
1,note_on,63,31,0
1,note_on,75,31,0
1,note_on,75,0,240
1,note_on,63,0,0
1,note_on,65,32,0
1,note_on,77,32,0
1,note_on,77,0,240
1,note_on,65,0,0
1,note_on,79,32,0
1,note_on,79,0,240
1,note_on,70,36,0
1,note_on,82,36,0
1,note_on,82,0,360
1,note_on,70,0,0
1,note_on,70,28,0
1,note_on,82,28,0
1,note_on,82,0,360
1,note_on,70,0,0
1,note_on,70,35,240
1,note_on,82,35,0
1,note_on,82,0,240
1,note_on,70,0,0
1,note_on,72,29,0
1,note_on,84,29,0
1,note_on,84,0,240
1,note_on,72,0,0
1,note_on,74,36,0
1,note_on,86,36,0
1,note_on,86,0,240
1,note_on,74,0,0
1,note_on,89,37,0
1,note_on,77,35,0
1,note_on,77,0,240
1,note_on,89,0,0
1,note_on,86,36,0
1,note_on,74,36,0
1,note_on,74,0,240
1,note_on,86,0,0
1,note_on,84,36,0
1,note_on,72,36,0
1,note_on,72,0,240
1,note_on,84,0,0
1,note_on,74,36,0
1,note_on,86,36,0
1,note_on,86,0,240
1,note_on,74,0,0
1,note_on,72,31,0
1,note_on,84,31,0
1,note_on,84,0,240
1,note_on,72,0,0
1,note_on,67,34,0
1,note_on,79,34,0
1,note_on,79,0,360
1,note_on,67,0,0
1,note_on,67,28,0
1,note_on,79,28,0
1,note_on,79,0,360
1,note_on,67,0,0
1,note_on,65,35,240
1,note_on,77,35,0
1,note_on,77,0,240
1,note_on,65,0,0
1,note_on,67,36,0
1,note_on,79,36,0
1,note_on,79,0,240
1,note_on,67,0,0
1,note_on,68,36,0
1,note_on,80,36,0
1,note_on,80,0,240
1,note_on,68,0,0
1,note_on,82,36,0
1,note_on,70,36,0
1,note_on,70,0,240
1,note_on,82,0,0
1,note_on,80,32,0
1,note_on,68,32,0
1,note_on,68,0,240
1,note_on,80,0,0
1,note_on,79,36,0
1,note_on,67,36,0
1,note_on,67,0,238
1,note_on,79,0,2
1,note_on,65,33,0
1,note_on,77,33,0
1,note_on,77,0,240
1,note_on,65,0,0
1,note_on,63,31,0
1,note_on,75,31,0
1,note_on,75,0,240
1,note_on,63,0,0
1,note_on,58,34,0
1,note_on,70,34,0
1,note_on,70,0,360
1,note_on,58,0,0
1,note_on,58,28,0
1,note_on,70,28,0
1,note_on,70,0,360
1,note_on,58,0,0
1,note_on,62,31,240
1,note_on,65,35,0
1,note_on,65,0,240
1,note_on,67,36,0
1,note_on,67,0,240
1,note_on,68,36,0
1,note_on,68,0,240
1,note_on,70,36,0
1,note_on,70,0,240
1,note_on,68,36,0
1,note_on,68,0,120
1,note_on,67,32,0
1,note_on,67,0,60
1,note_on,68,33,0
1,note_on,68,0,60
1,note_on,62,0,0
1,note_on,63,32,0
1,note_on,67,36,0
1,note_on,67,0,240
1,note_on,65,33,0
1,note_on,65,0,240
1,note_on,63,0,0
1,note_on,63,31,0
1,note_on,63,0,240
1,note_on,58,34,0
1,note_on,58,0,238
1,note_on,60,33,2
1,note_on,60,0,240
1,note_on,63,33,0
1,note_on,63,0,240
1,note_on,56,32,0
1,note_on,62,36,0
1,note_on,56,0,238
1,note_on,62,0,2
1,note_on,65,33,0
1,note_on,65,0,240
1,note_on,62,31,0
1,note_on,62,0,120
1,note_on,60,27,0
1,note_on,60,0,60
1,note_on,62,27,0
1,note_on,62,0,60
1,note_on,60,33,0
1,note_on,60,0,360
1,note_on,58,30,0
1,note_on,56,30,0
1,note_on,56,0,360
1,note_on,58,0,0
1,note_on,63,31,0
1,note_on,75,31,0
1,note_on,75,0,240
1,note_on,63,0,0
1,note_on,65,28,0
1,note_on,77,28,0
1,note_on,77,0,240
1,note_on,65,0,0
1,note_on,79,32,0
1,note_on,79,0,240
1,note_on,70,36,0
1,note_on,82,36,0
1,note_on,82,0,360
1,note_on,70,0,0
1,note_on,70,28,0
1,note_on,82,28,0
1,note_on,82,0,360
1,note_on,70,0,0
1,note_on,70,35,240
1,note_on,82,35,0
1,note_on,82,0,240
1,note_on,70,0,0
1,note_on,72,31,0
1,note_on,84,31,0
1,note_on,84,0,240
1,note_on,72,0,0
1,note_on,74,36,0
1,note_on,86,36,0
1,note_on,86,0,240
1,note_on,74,0,0
1,note_on,89,37,0
1,note_on,77,33,0
1,note_on,77,0,240
1,note_on,89,0,0
1,note_on,86,36,0
1,note_on,74,36,0
1,note_on,74,0,240
1,note_on,86,0,0
1,note_on,84,36,0
1,note_on,72,36,0
1,note_on,72,0,240
1,note_on,84,0,0
1,note_on,74,36,0
1,note_on,86,36,0
1,note_on,86,0,240
1,note_on,74,0,0
1,note_on,72,28,0
1,note_on,84,28,0
1,note_on,84,0,240
1,note_on,72,0,0
1,note_on,67,34,0
1,note_on,79,34,0
1,note_on,79,0,360
1,note_on,67,0,0
1,note_on,67,28,0
1,note_on,79,28,0
1,note_on,79,0,360
1,note_on,67,0,0
1,note_on,65,35,240
1,note_on,77,35,0
1,note_on,77,0,240
1,note_on,65,0,0
1,note_on,67,36,0
1,note_on,79,36,0
1,note_on,79,0,240
1,note_on,67,0,0
1,note_on,68,36,0
1,note_on,80,36,0
1,note_on,80,0,240
1,note_on,68,0,0
1,note_on,82,36,0
1,note_on,70,36,0
1,note_on,70,0,240
1,note_on,82,0,0
1,note_on,80,36,0
1,note_on,68,36,0
1,note_on,68,0,240
1,note_on,80,0,0
1,note_on,79,36,0
1,note_on,67,36,0
1,note_on,67,0,238
1,note_on,79,0,2
1,note_on,65,33,0
1,note_on,77,33,0
1,note_on,77,0,240
1,note_on,65,0,0
1,note_on,63,31,0
1,note_on,75,31,0
1,note_on,75,0,240
1,note_on,63,0,0
1,note_on,58,34,0
1,note_on,70,34,0
1,note_on,70,0,360
1,note_on,58,0,0
1,note_on,58,28,0
1,note_on,70,28,0
1,note_on,70,0,360
1,note_on,58,0,0
1,note_on,62,31,240
1,note_on,65,35,0
1,note_on,65,0,240
1,note_on,67,36,0
1,note_on,67,0,240
1,note_on,68,36,0
1,note_on,68,0,240
1,note_on,70,36,0
1,note_on,70,0,240
1,note_on,68,36,0
1,note_on,68,0,120
1,note_on,67,32,0
1,note_on,67,0,60
1,note_on,68,33,0
1,note_on,68,0,60
1,note_on,62,0,0
1,note_on,63,32,0
1,note_on,67,36,0
1,note_on,67,0,240
1,note_on,65,33,0
1,note_on,65,0,240
1,note_on,63,0,0
1,note_on,63,31,0
1,note_on,63,0,240
1,note_on,58,34,0
1,note_on,58,0,238
1,note_on,60,33,2
1,note_on,60,0,240
1,note_on,63,33,0
1,note_on,63,0,240
1,note_on,56,32,0
1,note_on,62,36,0
1,note_on,56,0,238
1,note_on,62,0,2
1,note_on,65,33,0
1,note_on,65,0,240
1,note_on,62,31,0
1,note_on,62,0,120
1,note_on,60,27,0
1,note_on,60,0,60
1,note_on,62,27,0
1,note_on,62,0,60
1,note_on,60,33,0
1,note_on,60,0,360
1,note_on,58,30,0
1,note_on,56,30,0
1,note_on,56,0,360
1,note_on,58,0,0
1,note_on,58,28,0
1,note_on,67,36,0
1,note_on,63,30,0
1,note_on,58,0,240
1,note_on,57,33,0
1,note_on,57,0,240
1,note_on,58,33,0
1,note_on,58,0,240
1,note_on,63,0,0
1,note_on,67,0,0
1,note_on,55,35,0
1,note_on,55,0,240
1,note_on,67,37,0
1,note_on,63,37,0
1,note_on,55,35,0
1,note_on,55,0,240
1,note_on,58,31,0
1,note_on,58,0,240
1,note_on,63,0,0
1,note_on,67,0,0
1,note_on,57,28,0
1,note_on,62,30,0
1,note_on,68,36,0
1,note_on,57,0,240
1,note_on,58,31,0
1,note_on,58,0,240
1,note_on,60,31,0
1,note_on,60,0,240
1,note_on,68,0,0
1,note_on,62,0,0
1,note_on,61,31,0
1,note_on,61,0,240
1,note_on,62,28,0
1,note_on,68,36,0
1,note_on,62,0,240
1,note_on,58,30,0
1,note_on,58,0,240
1,note_on,68,0,0
1,note_on,58,27,0
1,note_on,67,35,0
1,note_on,63,28,0
1,note_on,58,0,240
1,note_on,57,33,0
1,note_on,57,0,240
1,note_on,58,33,0
1,note_on,58,0,240
1,note_on,63,0,0
1,note_on,67,0,0
1,note_on,55,35,0
1,note_on,55,0,240
1,note_on,67,37,0
1,note_on,63,37,0
1,note_on,55,35,0
1,note_on,55,0,240
1,note_on,58,30,0
1,note_on,58,0,240
1,note_on,63,0,0
1,note_on,67,0,0
1,note_on,57,27,0
1,note_on,62,28,0
1,note_on,68,35,0
1,note_on,57,0,240
1,note_on,58,31,0
1,note_on,58,0,240
1,note_on,60,31,0
1,note_on,60,0,240
1,note_on,68,0,0
1,note_on,62,0,0
1,note_on,61,31,0
1,note_on,61,0,240
1,note_on,62,28,0
1,note_on,68,36,0
1,note_on,62,0,240
1,note_on,58,30,0
1,note_on,58,0,240
1,note_on,68,0,0
1,note_on,58,27,0
1,note_on,67,35,0
1,note_on,63,28,0
1,note_on,58,0,240
1,note_on,57,32,0
1,note_on,57,0,240
1,note_on,58,32,0
1,note_on,58,0,240
1,note_on,63,0,0
1,note_on,67,0,0
1,note_on,55,33,0
1,note_on,55,0,240
1,note_on,67,36,0
1,note_on,63,36,0
1,note_on,55,33,0
1,note_on,55,0,240
1,note_on,58,28,0
1,note_on,58,0,240
1,note_on,63,0,0
1,note_on,67,0,0
1,note_on,58,25,0
1,note_on,67,32,0
1,note_on,63,27,0
1,note_on,58,0,240
1,note_on,57,27,0
1,note_on,57,0,240
1,note_on,58,30,0
1,note_on,58,0,240
1,note_on,63,0,0
1,note_on,67,0,0
1,note_on,55,31,0
1,note_on,55,0,240
1,note_on,67,29,0
1,note_on,63,29,0
1,note_on,55,27,0
1,note_on,55,0,240
1,note_on,58,23,0
1,note_on,58,0,240
1,note_on,63,0,0
1,note_on,67,0,0
1,note_on,55,22,0
1,note_on,63,22,0
1,note_on,67,27,0
1,note_on,67,0,2160
1,note_on,63,0,0
1,note_on,55,0,0
1,note_on,71,51,720
1,note_on,75,51,0
1,note_on,75,0,1440
1,note_on,71,0,0
1,note_on,73,57,0
1,note_on,73,0,240
1,note_on,75,52,0
1,note_on,75,0,240
1,note_on,76,50,0
1,note_on,76,0,240
1,note_on,78,53,0
1,note_on,78,0,240
1,note_on,82,53,0
1,note_on,82,0,240
1,note_on,80,51,0
1,note_on,80,0,240
1,note_on,71,51,0
1,note_on,75,51,0
1,note_on,75,0,1440
1,note_on,71,0,0
1,note_on,73,57,0
1,note_on,73,0,240
1,note_on,75,50,0
1,note_on,75,0,240
1,note_on,76,50,0
1,note_on,76,0,240
1,note_on,78,53,0
1,note_on,78,0,240
1,note_on,80,53,0
1,note_on,80,0,240
1,note_on,76,55,0
1,note_on,76,0,240
1,note_on,75,58,0
1,note_on,75,0,240
1,note_on,73,53,0
1,note_on,73,0,240
1,note_on,71,55,0
1,note_on,71,0,240
1,note_on,68,52,0
1,note_on,68,0,240
1,note_on,70,52,0
1,note_on,70,0,240
1,note_on,71,52,0
1,note_on,71,0,240
1,note_on,68,51,0
1,note_on,73,57,0
1,note_on,73,0,240
1,note_on,68,0,0
1,note_on,75,50,0
1,note_on,75,0,240
1,note_on,73,48,0
1,note_on,73,0,240
1,note_on,76,44,0
1,note_on,76,0,240
1,note_on,78,42,0
1,note_on,78,0,240
1,note_on,76,41,0
1,note_on,76,0,240
1,note_on,68,38,0
1,note_on,71,38,0
1,note_on,75,38,0
1,note_on,80,38,0
1,note_on,80,0,1440
1,note_on,68,0,0
1,note_on,71,0,0
1,note_on,75,0,0
1,note_on,75,38,0
1,note_on,75,0,1440
1,note_on,71,51,0
1,note_on,75,51,0
1,note_on,75,0,1440
1,note_on,71,0,0
1,note_on,73,57,0
1,note_on,73,0,240
1,note_on,75,51,0
1,note_on,75,0,240
1,note_on,76,51,0
1,note_on,76,0,240
1,note_on,78,53,0
1,note_on,78,0,240
1,note_on,82,55,0
1,note_on,82,0,240
1,note_on,80,53,0
1,note_on,80,0,240
1,note_on,71,51,0
1,note_on,75,51,0
1,note_on,75,0,1440
1,note_on,71,0,0
1,note_on,73,57,0
1,note_on,73,0,240
1,note_on,75,51,0
1,note_on,75,0,240
1,note_on,76,52,0
1,note_on,76,0,240
1,note_on,78,52,0
1,note_on,78,0,240
1,note_on,80,53,0
1,note_on,80,0,240
1,note_on,76,55,0
1,note_on,76,0,240
1,note_on,75,58,0
1,note_on,75,0,240
1,note_on,73,53,0
1,note_on,73,0,240
1,note_on,71,55,0
1,note_on,71,0,240
1,note_on,68,52,0
1,note_on,68,0,240
1,note_on,70,52,0
1,note_on,70,0,240
1,note_on,71,52,0
1,note_on,71,0,240
1,note_on,68,49,0
1,note_on,73,57,0
1,note_on,73,0,240
1,note_on,68,0,0
1,note_on,75,49,0
1,note_on,75,0,240
1,note_on,73,47,0
1,note_on,73,0,240
1,note_on,76,45,0
1,note_on,76,0,240
1,note_on,78,42,0
1,note_on,78,0,240
1,note_on,76,41,0
1,note_on,76,0,240
1,note_on,68,38,0
1,note_on,71,38,0
1,note_on,75,38,0
1,note_on,80,38,0
1,note_on,80,0,1440
1,note_on,68,0,0
1,note_on,71,0,0
1,note_on,75,0,0
1,note_on,70,44,1380
1,note_on,70,0,60
1,note_on,75,55,0
1,note_on,75,0,1440
1,note_on,73,52,240
1,note_on,73,0,240
1,note_on,75,50,0
1,note_on,75,0,240
1,note_on,76,50,0
1,note_on,76,0,240
1,note_on,78,53,0
1,note_on,78,0,240
1,note_on,80,50,0
1,note_on,80,0,180
1,note_on,70,42,0
1,note_on,70,0,60
1,note_on,75,51,0
1,note_on,75,0,1440
1,note_on,70,54,240
1,note_on,70,0,240
1,note_on,73,57,0
1,note_on,73,0,120
1,note_on,71,38,0
1,note_on,73,37,60
1,note_on,71,0,20
1,note_on,71,49,40
1,note_on,73,0,20
1,note_on,71,0,220
1,note_on,70,58,0
1,note_on,70,0,240
1,note_on,68,56,0
1,note_on,68,0,180
1,note_on,67,63,60
1,note_on,67,0,240
1,note_on,68,58,0
1,note_on,68,0,240
1,note_on,70,60,0
1,note_on,70,0,240
1,note_on,75,57,0
1,note_on,75,0,240
1,note_on,77,61,0
1,note_on,77,0,240
1,note_on,79,57,0
1,note_on,79,0,240
1,note_on,71,62,0
1,note_on,80,62,0
1,note_on,80,0,240
1,note_on,71,0,0
1,note_on,75,59,0
1,note_on,75,0,240
1,note_on,73,59,0
1,note_on,73,0,120
1,note_on,71,42,0
1,note_on,73,42,60
1,note_on,71,0,20
1,note_on,71,53,40
1,note_on,73,0,20
1,note_on,71,0,220
1,note_on,70,49,0
1,note_on,70,0,240
1,note_on,68,49,0
1,note_on,68,0,180
1,note_on,67,48,0
1,note_on,75,59,60
1,note_on,75,0,1440
1,note_on,67,0,0
1,note_on,62,46,0
1,note_on,68,54,0
1,note_on,68,0,1380
1,note_on,62,0,0
1,note_on,70,49,0
1,note_on,70,0,60
1,note_on,75,59,0
1,note_on,75,0,1440
1,note_on,73,52,240
1,note_on,73,0,240
1,note_on,75,52,0
1,note_on,75,0,240
1,note_on,76,50,0
1,note_on,76,0,240
1,note_on,78,53,0
1,note_on,78,0,240
1,note_on,80,50,0
1,note_on,80,0,180
1,note_on,70,42,0
1,note_on,70,0,60
1,note_on,75,51,0
1,note_on,75,0,1440
1,note_on,70,52,240
1,note_on,70,0,240
1,note_on,73,57,0
1,note_on,73,0,120
1,note_on,71,36,0
1,note_on,73,36,60
1,note_on,71,0,20
1,note_on,71,49,40
1,note_on,73,0,20
1,note_on,71,0,220
1,note_on,70,58,0
1,note_on,70,0,240
1,note_on,68,52,0
1,note_on,68,0,180
1,note_on,67,63,60
1,note_on,67,0,240
1,note_on,68,58,0
1,note_on,68,0,240
1,note_on,70,60,0
1,note_on,70,0,240
1,note_on,75,57,0
1,note_on,75,0,240
1,note_on,77,61,0
1,note_on,77,0,240
1,note_on,79,57,0
1,note_on,79,0,240
1,note_on,71,62,0
1,note_on,80,62,0
1,note_on,80,0,240
1,note_on,71,0,0
1,note_on,75,55,0
1,note_on,75,0,240
1,note_on,73,59,0
1,note_on,73,0,120
1,note_on,71,38,0
1,note_on,73,39,60
1,note_on,71,0,20
1,note_on,71,51,40
1,note_on,73,0,20
1,note_on,71,0,220
1,note_on,70,49,0
1,note_on,70,0,240
1,note_on,68,49,0
1,note_on,68,0,180
1,note_on,67,48,0
1,note_on,75,59,60
1,note_on,75,0,2880
1,note_on,67,0,0
1,note_on,71,51,0
1,note_on,75,51,0
1,note_on,75,0,1440
1,note_on,71,0,0
1,note_on,73,57,0
1,note_on,73,0,240
1,note_on,75,51,0
1,note_on,75,0,240
1,note_on,76,52,0
1,note_on,76,0,240
1,note_on,78,51,0
1,note_on,78,0,240
1,note_on,82,53,0
1,note_on,82,0,240
1,note_on,80,52,0
1,note_on,80,0,240
1,note_on,71,51,0
1,note_on,75,51,0
1,note_on,75,0,1440
1,note_on,71,0,0
1,note_on,73,57,0
1,note_on,73,0,240
1,note_on,75,52,0
1,note_on,75,0,240
1,note_on,76,52,0
1,note_on,76,0,240
1,note_on,78,51,0
1,note_on,78,0,240
1,note_on,80,53,0
1,note_on,80,0,240
1,note_on,76,55,0
1,note_on,76,0,240
1,note_on,75,58,0
1,note_on,75,0,240
1,note_on,73,53,0
1,note_on,73,0,240
1,note_on,71,55,0
1,note_on,71,0,240
1,note_on,68,52,0
1,note_on,68,0,240
1,note_on,70,52,0
1,note_on,70,0,240
1,note_on,71,49,0
1,note_on,71,0,240
1,note_on,68,43,0
1,note_on,73,57,0
1,note_on,73,0,240
1,note_on,68,0,0
1,note_on,75,50,0
1,note_on,75,0,240
1,note_on,73,49,0
1,note_on,73,0,240
1,note_on,76,42,0
1,note_on,76,0,240
1,note_on,78,42,0
1,note_on,78,0,240
1,note_on,76,41,0
1,note_on,76,0,240
1,note_on,68,38,0
1,note_on,71,38,0
1,note_on,75,38,0
1,note_on,80,38,0
1,note_on,68,0,1190
1,note_on,71,0,250
1,note_on,75,0,0
1,note_on,80,0,0
1,note_on,71,38,0
1,note_on,71,0,240
1,note_on,70,38,0
1,note_on,70,0,240
1,note_on,68,36,0
1,note_on,68,0,240
1,note_on,63,33,0
1,note_on,63,0,240
1,note_on,59,36,0
1,note_on,59,0,240
1,note_on,56,35,0
1,note_on,56,0,240
1,note_on,59,28,0
1,note_on,68,37,0
1,note_on,63,30,0
1,note_on,59,0,240
1,note_on,58,30,0
1,note_on,58,0,240
1,note_on,59,32,0
1,note_on,59,0,240
1,note_on,63,0,0
1,note_on,68,0,0
1,note_on,56,31,0
1,note_on,56,0,240
1,note_on,59,33,0
1,note_on,59,0,240
1,note_on,63,31,0
1,note_on,63,0,240
1,note_on,59,28,0
1,note_on,68,37,0
1,note_on,63,30,0
1,note_on,59,0,240
1,note_on,58,30,0
1,note_on,58,0,240
1,note_on,59,33,0
1,note_on,59,0,240
1,note_on,63,0,0
1,note_on,68,0,0
1,note_on,56,30,0
1,note_on,56,0,240
1,note_on,59,35,0
1,note_on,59,0,240
1,note_on,63,31,0
1,note_on,63,0,240
1,note_on,59,29,0
1,note_on,68,39,0
1,note_on,63,31,0
1,note_on,59,0,240
1,note_on,58,31,0
1,note_on,58,0,240
1,note_on,59,34,0
1,note_on,59,0,240
1,note_on,63,0,0
1,note_on,68,0,0
1,note_on,56,31,0
1,note_on,56,0,240
1,note_on,59,37,0
1,note_on,59,0,240
1,note_on,63,32,0
1,note_on,63,0,240
1,note_on,59,29,0
1,note_on,68,39,0
1,note_on,63,31,0
1,note_on,59,0,240
1,note_on,58,32,0
1,note_on,58,0,240
1,note_on,59,34,0
1,note_on,59,0,240
1,note_on,63,0,0
1,note_on,68,0,0
1,note_on,56,30,0
1,note_on,56,0,240
1,note_on,59,37,0
1,note_on,59,0,240
1,note_on,63,32,0
1,note_on,63,0,240
1,note_on,58,25,0
1,note_on,67,33,0
1,note_on,63,27,0
1,note_on,58,0,240
1,note_on,57,28,0
1,note_on,57,0,240
1,note_on,58,29,0
1,note_on,58,0,240
1,note_on,63,0,0
1,note_on,67,0,0
1,note_on,55,27,0
1,note_on,55,0,240
1,note_on,58,31,0
1,note_on,58,0,240
1,note_on,63,28,0
1,note_on,63,0,240
1,note_on,58,25,0
1,note_on,67,33,0
1,note_on,63,27,0
1,note_on,58,0,240
1,note_on,57,28,0
1,note_on,57,0,240
1,note_on,58,29,0
1,note_on,58,0,240
1,note_on,63,0,0
1,note_on,67,0,0
1,note_on,55,28,0
1,note_on,55,0,240
1,note_on,58,31,0
1,note_on,58,0,240
1,note_on,63,28,0
1,note_on,63,0,240
1,note_on,62,35,0
1,note_on,68,35,0
1,note_on,72,35,0
1,note_on,72,0,240
1,note_on,68,0,0
1,note_on,62,0,0
1,note_on,62,32,0
1,note_on,68,32,0
1,note_on,70,32,0
1,note_on,70,0,240
1,note_on,68,0,0
1,note_on,62,0,0
1,note_on,62,39,0
1,note_on,68,39,0
1,note_on,72,39,0
1,note_on,72,0,240
1,note_on,68,0,0
1,note_on,62,0,0
1,note_on,62,34,0
1,note_on,68,34,0
1,note_on,70,34,0
1,note_on,70,0,240
1,note_on,68,0,0
1,note_on,62,0,0
1,note_on,62,45,0
1,note_on,68,45,0
1,note_on,72,45,0
1,note_on,72,0,240
1,note_on,68,0,0
1,note_on,62,0,0
1,note_on,62,39,0
1,note_on,68,39,0
1,note_on,70,39,0
1,note_on,70,0,240
1,note_on,68,0,0
1,note_on,62,0,0
1,note_on,74,52,0
1,note_on,80,52,0
1,note_on,84,52,0
1,note_on,84,0,240
1,note_on,80,0,0
1,note_on,74,0,0
1,note_on,74,47,0
1,note_on,82,47,0
1,note_on,80,47,0
1,note_on,80,0,240
1,note_on,82,0,0
1,note_on,74,0,0
1,note_on,74,55,0
1,note_on,80,55,0
1,note_on,84,55,0
1,note_on,84,0,240
1,note_on,80,0,0
1,note_on,74,0,0
1,note_on,74,47,0
1,note_on,80,47,0
1,note_on,82,47,0
1,note_on,82,0,240
1,note_on,80,0,0
1,note_on,74,0,0
1,note_on,74,60,0
1,note_on,80,60,0
1,note_on,84,60,0
1,note_on,84,0,240
1,note_on,80,0,0
1,note_on,74,0,0
1,note_on,74,52,0
1,note_on,80,52,0
1,note_on,82,52,0
1,note_on,82,0,240
1,note_on,80,0,0
1,note_on,74,0,0
1,note_on,58,38,0
1,note_on,67,49,0
1,note_on,63,41,0
1,note_on,58,0,240
1,note_on,57,44,0
1,note_on,57,0,240
1,note_on,58,44,0
1,note_on,58,0,240
1,note_on,63,0,0
1,note_on,67,0,0
1,note_on,55,47,0
1,note_on,55,0,240
1,note_on,67,50,0
1,note_on,63,50,0
1,note_on,55,47,0
1,note_on,55,0,240
1,note_on,58,42,0
1,note_on,58,0,240
1,note_on,63,0,0
1,note_on,67,0,0
1,note_on,57,38,0
1,note_on,62,41,0
1,note_on,68,49,0
1,note_on,57,0,240
1,note_on,58,39,0
1,note_on,58,0,240
1,note_on,60,42,0
1,note_on,60,0,240
1,note_on,68,0,0
1,note_on,62,0,0
1,note_on,61,38,0
1,note_on,61,0,240
1,note_on,62,38,0
1,note_on,68,48,0
1,note_on,62,0,240
1,note_on,58,40,0
1,note_on,58,0,240
1,note_on,68,0,0
1,note_on,58,36,0
1,note_on,67,46,0
1,note_on,63,38,0
1,note_on,58,0,240
1,note_on,57,40,0
1,note_on,57,0,240
1,note_on,58,44,0
1,note_on,58,0,240
1,note_on,63,0,0
1,note_on,67,0,0
1,note_on,55,47,0
1,note_on,55,0,240
1,note_on,67,50,0
1,note_on,63,50,0
1,note_on,55,47,0
1,note_on,55,0,240
1,note_on,58,41,0
1,note_on,58,0,240
1,note_on,63,0,0
1,note_on,67,0,0
1,note_on,57,36,0
1,note_on,62,38,0
1,note_on,68,46,0
1,note_on,57,0,240
1,note_on,58,42,0
1,note_on,58,0,240
1,note_on,60,42,0
1,note_on,60,0,240
1,note_on,68,0,0
1,note_on,62,0,0
1,note_on,61,42,0
1,note_on,61,0,240
1,note_on,62,38,0
1,note_on,68,48,0
1,note_on,62,0,240
1,note_on,58,40,0
1,note_on,58,0,240
1,note_on,68,0,0
1,note_on,63,47,0
1,note_on,75,47,0
1,note_on,75,0,240
1,note_on,63,0,0
1,note_on,65,46,0
1,note_on,77,46,0
1,note_on,77,0,240
1,note_on,65,0,0
1,note_on,79,41,0
1,note_on,79,0,240
1,note_on,70,54,0
1,note_on,82,54,0
1,note_on,82,0,360
1,note_on,70,0,0
1,note_on,70,43,0
1,note_on,82,43,0
1,note_on,82,0,360
1,note_on,70,0,0
1,note_on,70,52,240
1,note_on,82,52,0
1,note_on,82,0,240
1,note_on,70,0,0
1,note_on,72,52,0
1,note_on,84,52,0
1,note_on,84,0,240
1,note_on,72,0,0
1,note_on,74,55,0
1,note_on,86,55,0
1,note_on,86,0,240
1,note_on,74,0,0
1,note_on,89,52,0
1,note_on,77,49,0
1,note_on,77,0,240
1,note_on,89,0,0
1,note_on,86,53,0
1,note_on,74,53,0
1,note_on,74,0,240
1,note_on,86,0,0
1,note_on,84,55,0
1,note_on,72,55,0
1,note_on,72,0,240
1,note_on,84,0,0
1,note_on,74,53,0
1,note_on,86,53,0
1,note_on,86,0,240
1,note_on,74,0,0
1,note_on,72,42,0
1,note_on,84,42,0
1,note_on,84,0,240
1,note_on,72,0,0
1,note_on,67,50,0
1,note_on,79,50,0
1,note_on,79,0,360
1,note_on,67,0,0
1,note_on,67,43,0
1,note_on,79,43,0
1,note_on,79,0,360
1,note_on,67,0,0
1,note_on,65,52,240
1,note_on,77,52,0
1,note_on,77,0,240
1,note_on,65,0,0
1,note_on,67,51,0
1,note_on,79,51,0
1,note_on,79,0,240
1,note_on,67,0,0
1,note_on,68,55,0
1,note_on,80,55,0
1,note_on,80,0,240
1,note_on,68,0,0
1,note_on,82,53,0
1,note_on,70,53,0
1,note_on,70,0,240
1,note_on,82,0,0
1,note_on,80,49,0
1,note_on,68,49,0
1,note_on,68,0,240
1,note_on,80,0,0
1,note_on,79,55,0
1,note_on,67,55,0
1,note_on,67,0,238
1,note_on,79,0,2
1,note_on,65,47,0
1,note_on,77,47,0
1,note_on,77,0,240
1,note_on,65,0,0
1,note_on,63,46,0
1,note_on,75,46,0
1,note_on,75,0,240
1,note_on,63,0,0
1,note_on,58,51,0
1,note_on,70,51,0
1,note_on,70,0,360
1,note_on,58,0,0
1,note_on,58,43,0
1,note_on,70,43,0
1,note_on,70,0,360
1,note_on,58,0,0
1,note_on,62,46,240
1,note_on,65,52,0
1,note_on,65,0,240
1,note_on,67,53,0
1,note_on,67,0,240
1,note_on,68,55,0
1,note_on,68,0,240
1,note_on,70,53,0
1,note_on,70,0,240
1,note_on,68,50,0
1,note_on,68,0,120
1,note_on,67,49,0
1,note_on,67,0,60
1,note_on,68,50,0
1,note_on,68,0,60
1,note_on,62,0,0
1,note_on,63,48,0
1,note_on,67,55,0
1,note_on,67,0,240
1,note_on,65,50,0
1,note_on,65,0,240
1,note_on,63,0,0
1,note_on,63,46,0
1,note_on,63,0,240
1,note_on,58,51,0
1,note_on,58,0,238
1,note_on,60,50,2
1,note_on,60,0,240
1,note_on,63,50,0
1,note_on,63,0,240
1,note_on,56,48,0
1,note_on,62,55,0
1,note_on,56,0,238
1,note_on,62,0,2
1,note_on,65,50,0
1,note_on,65,0,240
1,note_on,62,46,0
1,note_on,62,0,120
1,note_on,60,41,0
1,note_on,60,0,60
1,note_on,62,41,0
1,note_on,62,0,60
1,note_on,60,50,0
1,note_on,60,0,360
1,note_on,58,45,0
1,note_on,56,45,0
1,note_on,56,0,360
1,note_on,58,0,0
1,note_on,58,38,0
1,note_on,67,49,0
1,note_on,63,41,0
1,note_on,58,0,240
1,note_on,57,44,0
1,note_on,57,0,240
1,note_on,58,44,0
1,note_on,58,0,240
1,note_on,63,0,0
1,note_on,67,0,0
1,note_on,55,47,0
1,note_on,55,0,240
1,note_on,67,50,0
1,note_on,63,50,0
1,note_on,55,47,0
1,note_on,55,0,240
1,note_on,58,42,0
1,note_on,58,0,240
1,note_on,63,0,0
1,note_on,67,0,0
1,note_on,57,38,0
1,note_on,62,41,0
1,note_on,68,49,0
1,note_on,57,0,240
1,note_on,58,42,0
1,note_on,58,0,240
1,note_on,60,42,0
1,note_on,60,0,240
1,note_on,68,0,0
1,note_on,62,0,0
1,note_on,61,42,0
1,note_on,61,0,240
1,note_on,62,38,0
1,note_on,68,48,0
1,note_on,62,0,240
1,note_on,58,40,0
1,note_on,58,0,240
1,note_on,68,0,0
1,note_on,58,36,0
1,note_on,67,46,0
1,note_on,63,38,0
1,note_on,58,0,240
1,note_on,57,44,0
1,note_on,57,0,240
1,note_on,58,44,0
1,note_on,58,0,240
1,note_on,63,0,0
1,note_on,67,0,0
1,note_on,55,47,0
1,note_on,55,0,240
1,note_on,67,50,0
1,note_on,63,50,0
1,note_on,55,47,0
1,note_on,55,0,240
1,note_on,58,41,0
1,note_on,58,0,240
1,note_on,63,0,0
1,note_on,67,0,0
1,note_on,57,36,0
1,note_on,62,38,0
1,note_on,68,46,0
1,note_on,57,0,240
1,note_on,58,42,0
1,note_on,58,0,240
1,note_on,60,42,0
1,note_on,60,0,240
1,note_on,68,0,0
1,note_on,62,0,0
1,note_on,61,42,0
1,note_on,61,0,240
1,note_on,62,38,0
1,note_on,68,48,0
1,note_on,62,0,240
1,note_on,58,40,0
1,note_on,58,0,240
1,note_on,68,0,0
1,note_on,63,47,0
1,note_on,75,47,0
1,note_on,75,0,240
1,note_on,63,0,0
1,note_on,65,47,0
1,note_on,77,47,0
1,note_on,77,0,240
1,note_on,65,0,0
1,note_on,79,47,0
1,note_on,79,0,240
1,note_on,70,53,0
1,note_on,82,53,0
1,note_on,82,0,720
1,note_on,70,0,0
1,note_on,70,52,240
1,note_on,82,52,0
1,note_on,82,0,240
1,note_on,70,0,0
1,note_on,72,43,0
1,note_on,84,43,0
1,note_on,84,0,240
1,note_on,72,0,0
1,note_on,73,55,0
1,note_on,85,55,0
1,note_on,85,0,240
1,note_on,73,0,0
1,note_on,89,44,0
1,note_on,77,38,0
1,note_on,77,0,240
1,note_on,89,0,0
1,note_on,85,53,0
1,note_on,73,53,0
1,note_on,73,0,240
1,note_on,85,0,0
1,note_on,84,55,0
1,note_on,72,55,0
1,note_on,72,0,240
1,note_on,84,0,0
1,note_on,70,53,0
1,note_on,82,53,0
1,note_on,82,0,240
1,note_on,70,0,0
1,note_on,63,46,0
1,note_on,75,46,0
1,note_on,75,0,240
1,note_on,63,0,0
1,note_on,63,51,0
1,note_on,75,51,0
1,note_on,75,0,240
1,note_on,63,0,0
1,note_on,65,51,0
1,note_on,77,51,0
1,note_on,77,0,480
1,note_on,65,0,0
1,note_on,67,52,240
1,note_on,79,52,0
1,note_on,79,0,240
1,note_on,67,0,0
1,note_on,68,47,0
1,note_on,80,47,0
1,note_on,80,0,240
1,note_on,68,0,0
1,note_on,70,55,0
1,note_on,82,55,0
1,note_on,82,0,240
1,note_on,70,0,0
1,note_on,87,53,0
1,note_on,75,51,0
1,note_on,75,0,240
1,note_on,87,0,0
1,note_on,84,47,0
1,note_on,72,47,0
1,note_on,72,0,240
1,note_on,84,0,0
1,note_on,82,55,0
1,note_on,70,55,0
1,note_on,70,0,240
1,note_on,82,0,0
1,note_on,68,50,0
1,note_on,80,50,0
1,note_on,80,0,240
1,note_on,68,0,0
1,note_on,63,46,0
1,note_on,75,46,0
1,note_on,75,0,240
1,note_on,63,0,0
1,note_on,63,51,0
1,note_on,75,51,0
1,note_on,75,0,240
1,note_on,63,0,0
1,note_on,68,49,0
1,note_on,80,55,0
1,note_on,80,0,720
1,note_on,68,0,0
1,note_on,72,52,0
1,note_on,75,52,0
1,note_on,84,61,0
1,note_on,80,61,0
1,note_on,80,0,720
1,note_on,72,0,0
1,note_on,75,0,0
1,note_on,84,0,0
1,note_on,87,67,0
1,note_on,84,67,0
1,note_on,80,55,0
1,note_on,75,55,0
1,note_on,75,0,480
1,note_on,87,0,0
1,note_on,84,0,0
1,note_on,80,0,0
1,note_on,63,57,240
1,note_on,75,57,0
1,note_on,75,0,720
1,note_on,63,0,0
1,note_on,68,58,0
1,note_on,80,64,0
1,note_on,80,0,720
1,note_on,68,0,0
1,note_on,71,56,0
1,note_on,75,56,0
1,note_on,83,67,0
1,note_on,80,67,0
1,note_on,80,0,720
1,note_on,71,0,0
1,note_on,75,0,0
1,note_on,83,0,0
1,note_on,87,71,0
1,note_on,83,71,0
1,note_on,80,59,0
1,note_on,75,59,0
1,note_on,75,0,480
1,note_on,87,0,0
1,note_on,83,0,0
1,note_on,80,0,0
1,note_on,63,46,0
1,note_on,75,60,0
1,note_on,75,0,240
1,note_on,63,0,0
1,note_on,65,48,0
1,note_on,77,55,0
1,note_on,77,0,240
1,note_on,65,0,0
1,note_on,67,50,0
1,note_on,79,57,0
1,note_on,79,0,240
1,note_on,67,0,0
1,note_on,70,54,0
1,note_on,82,66,0
1,note_on,82,0,360
1,note_on,70,0,0
1,note_on,70,43,0
1,note_on,82,53,0
1,note_on,82,0,360
1,note_on,70,0,0
1,note_on,70,52,240
1,note_on,82,65,0
1,note_on,82,0,240
1,note_on,70,0,0
1,note_on,72,47,0
1,note_on,84,59,0
1,note_on,84,0,240
1,note_on,72,0,0
1,note_on,74,54,0
1,note_on,86,70,0
1,note_on,86,0,240
1,note_on,74,0,0
1,note_on,89,58,0
1,note_on,77,52,0
1,note_on,77,0,240
1,note_on,89,0,0
1,note_on,86,66,0
1,note_on,74,53,0
1,note_on,74,0,240
1,note_on,86,0,0
1,note_on,84,67,0
1,note_on,72,53,0
1,note_on,72,0,240
1,note_on,84,0,0
1,note_on,74,53,0
1,note_on,86,66,0
1,note_on,86,0,240
1,note_on,74,0,0
1,note_on,72,45,0
1,note_on,84,57,0
1,note_on,84,0,240
1,note_on,72,0,0
1,note_on,67,51,0
1,note_on,79,63,0
1,note_on,79,0,360
1,note_on,67,0,0
1,note_on,67,43,0
1,note_on,79,53,0
1,note_on,79,0,360
1,note_on,67,0,0
1,note_on,70,52,240
1,note_on,82,62,0
1,note_on,82,0,240
1,note_on,70,0,0
1,note_on,72,44,0
1,note_on,84,52,0
1,note_on,84,0,240
1,note_on,72,0,0
1,note_on,70,55,0
1,note_on,82,65,0
1,note_on,82,0,240
1,note_on,70,0,0
1,note_on,80,60,0
1,note_on,68,48,0
1,note_on,68,0,240
1,note_on,80,0,0
1,note_on,79,58,0
1,note_on,67,49,0
1,note_on,67,0,240
1,note_on,79,0,0
1,note_on,77,62,0
1,note_on,65,52,0
1,note_on,65,0,240
1,note_on,77,0,0
1,note_on,67,49,0
1,note_on,79,58,0
1,note_on,79,0,240
1,note_on,67,0,0
1,note_on,68,47,0
1,note_on,80,56,0
1,note_on,80,0,240
1,note_on,68,0,0
1,note_on,75,57,0
1,note_on,87,71,0
1,note_on,87,0,360
1,note_on,75,0,0
1,note_on,72,48,0
1,note_on,84,57,0
1,note_on,84,0,360
1,note_on,72,0,0
1,note_on,72,52,240
1,note_on,84,62,0
1,note_on,84,0,240
1,note_on,72,0,0
1,note_on,75,49,0
1,note_on,87,58,0
1,note_on,87,0,240
1,note_on,75,0,0
1,note_on,72,49,0
1,note_on,84,61,0
1,note_on,84,0,240
1,note_on,72,0,0
1,note_on,80,60,0
1,note_on,68,51,0
1,note_on,68,0,240
1,note_on,80,0,0
1,note_on,79,58,0
1,note_on,67,49,0
1,note_on,67,0,240
1,note_on,79,0,0
1,note_on,77,58,0
1,note_on,65,49,0
1,note_on,65,0,240
1,note_on,77,0,0
1,note_on,67,49,0
1,note_on,79,58,0
1,note_on,79,0,240
1,note_on,67,0,0
1,note_on,68,47,0
1,note_on,80,56,0
1,note_on,80,0,240
1,note_on,68,0,0
1,note_on,74,57,0
1,note_on,86,71,0
1,note_on,86,0,360
1,note_on,74,0,0
1,note_on,72,48,0
1,note_on,84,57,0
1,note_on,84,0,600
1,note_on,72,0,0
1,note_on,64,44,0
1,note_on,76,52,0
1,note_on,76,0,240
1,note_on,64,0,0
1,note_on,65,40,0
1,note_on,77,48,0
1,note_on,77,0,240
1,note_on,65,0,0
1,note_on,68,47,0
1,note_on,80,57,0
1,note_on,80,0,360
1,note_on,68,0,0
1,note_on,67,43,0
1,note_on,79,51,0
1,note_on,79,0,360
1,note_on,67,0,0
1,note_on,58,38,0
1,note_on,67,49,0
1,note_on,63,41,0
1,note_on,58,0,240
1,note_on,57,41,0
1,note_on,57,0,240
1,note_on,58,44,0
1,note_on,58,0,240
1,note_on,63,0,0
1,note_on,67,0,0
1,note_on,55,47,0
1,note_on,55,0,240
1,note_on,67,50,0
1,note_on,63,50,0
1,note_on,55,47,0
1,note_on,55,0,240
1,note_on,58,42,0
1,note_on,58,0,240
1,note_on,63,0,0
1,note_on,67,0,0
1,note_on,57,38,0
1,note_on,62,41,0
1,note_on,68,49,0
1,note_on,57,0,240
1,note_on,58,39,0
1,note_on,58,0,240
1,note_on,60,42,0
1,note_on,60,0,240
1,note_on,68,0,0
1,note_on,62,0,0
1,note_on,61,38,0
1,note_on,61,0,240
1,note_on,62,38,0
1,note_on,68,48,0
1,note_on,62,0,240
1,note_on,58,40,0
1,note_on,58,0,240
1,note_on,68,0,0
1,note_on,58,36,0
1,note_on,67,46,0
1,note_on,63,38,0
1,note_on,58,0,240
1,note_on,57,44,0
1,note_on,57,0,240
1,note_on,58,42,0
1,note_on,58,0,240
1,note_on,63,0,0
1,note_on,67,0,0
1,note_on,55,47,0
1,note_on,55,0,240
1,note_on,67,50,0
1,note_on,63,50,0
1,note_on,55,47,0
1,note_on,55,0,240
1,note_on,58,41,0
1,note_on,58,0,240
1,note_on,63,0,0
1,note_on,67,0,0
1,note_on,57,36,0
1,note_on,62,38,0
1,note_on,68,46,0
1,note_on,57,0,240
1,note_on,58,39,0
1,note_on,58,0,240
1,note_on,60,42,0
1,note_on,60,0,240
1,note_on,68,0,0
1,note_on,62,0,0
1,note_on,61,37,0
1,note_on,61,0,240
1,note_on,62,38,0
1,note_on,68,48,0
1,note_on,62,0,240
1,note_on,58,40,0
1,note_on,58,0,240
1,note_on,68,0,0
1,note_on,63,31,0
1,note_on,75,31,0
1,note_on,75,0,240
1,note_on,63,0,0
1,note_on,65,30,0
1,note_on,77,30,0
1,note_on,77,0,240
1,note_on,65,0,0
1,note_on,79,30,0
1,note_on,79,0,240
1,note_on,70,36,0
1,note_on,82,36,0
1,note_on,82,0,360
1,note_on,70,0,0
1,note_on,70,28,0
1,note_on,82,28,0
1,note_on,82,0,360
1,note_on,70,0,0
1,note_on,70,35,240
1,note_on,82,35,0
1,note_on,82,0,240
1,note_on,70,0,0
1,note_on,72,31,0
1,note_on,84,31,0
1,note_on,84,0,240
1,note_on,72,0,0
1,note_on,74,36,0
1,note_on,86,36,0
1,note_on,86,0,240
1,note_on,74,0,0
1,note_on,89,33,0
1,note_on,77,33,0
1,note_on,77,0,240
1,note_on,89,0,0
1,note_on,86,36,0
1,note_on,74,36,0
1,note_on,74,0,240
1,note_on,86,0,0
1,note_on,84,36,0
1,note_on,72,36,0
1,note_on,72,0,240
1,note_on,84,0,0
1,note_on,74,33,0
1,note_on,86,33,0
1,note_on,86,0,240
1,note_on,74,0,0
1,note_on,72,31,0
1,note_on,84,31,0
1,note_on,84,0,240
1,note_on,72,0,0
1,note_on,67,34,0
1,note_on,79,34,0
1,note_on,79,0,360
1,note_on,67,0,0
1,note_on,67,28,0
1,note_on,79,28,0
1,note_on,79,0,360
1,note_on,67,0,0
1,note_on,65,35,240
1,note_on,77,35,0
1,note_on,77,0,240
1,note_on,65,0,0
1,note_on,67,32,0
1,note_on,79,32,0
1,note_on,79,0,240
1,note_on,67,0,0
1,note_on,68,36,0
1,note_on,80,36,0
1,note_on,80,0,240
1,note_on,68,0,0
1,note_on,82,36,0
1,note_on,70,36,0
1,note_on,70,0,240
1,note_on,82,0,0
1,note_on,80,36,0
1,note_on,68,36,0
1,note_on,68,0,240
1,note_on,80,0,0
1,note_on,79,36,0
1,note_on,67,36,0
1,note_on,67,0,238
1,note_on,79,0,2
1,note_on,65,33,0
1,note_on,77,33,0
1,note_on,77,0,240
1,note_on,65,0,0
1,note_on,63,31,0
1,note_on,75,31,0
1,note_on,75,0,240
1,note_on,63,0,0
1,note_on,58,34,0
1,note_on,70,34,0
1,note_on,70,0,360
1,note_on,58,0,0
1,note_on,58,28,0
1,note_on,70,28,0
1,note_on,70,0,360
1,note_on,58,0,0
1,note_on,62,31,240
1,note_on,65,35,0
1,note_on,65,0,240
1,note_on,67,32,0
1,note_on,67,0,240
1,note_on,68,36,0
1,note_on,68,0,240
1,note_on,70,36,0
1,note_on,70,0,240
1,note_on,68,36,0
1,note_on,68,0,120
1,note_on,67,32,0
1,note_on,67,0,60
1,note_on,68,33,0
1,note_on,68,0,60
1,note_on,62,0,0
1,note_on,63,32,0
1,note_on,67,36,0
1,note_on,67,0,240
1,note_on,65,33,0
1,note_on,65,0,240
1,note_on,63,0,0
1,note_on,63,31,0
1,note_on,63,0,240
1,note_on,58,34,0
1,note_on,58,0,238
1,note_on,60,33,2
1,note_on,60,0,240
1,note_on,63,33,0
1,note_on,63,0,240
1,note_on,56,32,0
1,note_on,62,36,0
1,note_on,56,0,238
1,note_on,62,0,2
1,note_on,65,33,0
1,note_on,65,0,240
1,note_on,62,31,0
1,note_on,62,0,120
1,note_on,60,27,0
1,note_on,60,0,60
1,note_on,62,27,0
1,note_on,62,0,60
1,note_on,60,33,0
1,note_on,60,0,360
1,note_on,58,30,0
1,note_on,56,30,0
1,note_on,56,0,360
1,note_on,58,0,0
1,note_on,63,31,0
1,note_on,75,31,0
1,note_on,75,0,240
1,note_on,63,0,0
1,note_on,65,28,0
1,note_on,77,28,0
1,note_on,77,0,240
1,note_on,65,0,0
1,note_on,79,27,0
1,note_on,79,0,240
1,note_on,70,36,0
1,note_on,82,36,0
1,note_on,82,0,360
1,note_on,70,0,0
1,note_on,70,28,0
1,note_on,82,28,0
1,note_on,82,0,360
1,note_on,70,0,0
1,note_on,70,35,240
1,note_on,82,35,0
1,note_on,82,0,240
1,note_on,70,0,0
1,note_on,72,28,0
1,note_on,84,28,0
1,note_on,84,0,240
1,note_on,72,0,0
1,note_on,74,36,0
1,note_on,86,36,0
1,note_on,86,0,240
1,note_on,74,0,0
1,note_on,89,30,0
1,note_on,77,28,0
1,note_on,77,0,240
1,note_on,89,0,0
1,note_on,86,36,0
1,note_on,74,36,0
1,note_on,74,0,240
1,note_on,86,0,0
1,note_on,84,36,0
1,note_on,72,36,0
1,note_on,72,0,240
1,note_on,84,0,0
1,note_on,74,32,0
1,note_on,86,32,0
1,note_on,86,0,240
1,note_on,74,0,0
1,note_on,72,31,0
1,note_on,84,31,0
1,note_on,84,0,240
1,note_on,72,0,0
1,note_on,67,34,0
1,note_on,79,34,0
1,note_on,79,0,360
1,note_on,67,0,0
1,note_on,67,28,0
1,note_on,79,28,0
1,note_on,79,0,360
1,note_on,67,0,0
1,note_on,65,35,240
1,note_on,77,35,0
1,note_on,77,0,240
1,note_on,65,0,0
1,note_on,67,32,0
1,note_on,79,32,0
1,note_on,79,0,240
1,note_on,67,0,0
1,note_on,68,36,0
1,note_on,80,36,0
1,note_on,80,0,240
1,note_on,68,0,0
1,note_on,82,32,0
1,note_on,70,32,0
1,note_on,70,0,240
1,note_on,82,0,0
1,note_on,80,36,0
1,note_on,68,36,0
1,note_on,68,0,240
1,note_on,80,0,0
1,note_on,79,36,0
1,note_on,67,36,0
1,note_on,67,0,238
1,note_on,79,0,2
1,note_on,65,33,0
1,note_on,77,33,0
1,note_on,77,0,240
1,note_on,65,0,0
1,note_on,63,31,0
1,note_on,75,31,0
1,note_on,75,0,240
1,note_on,63,0,0
1,note_on,58,34,0
1,note_on,70,34,0
1,note_on,70,0,360
1,note_on,58,0,0
1,note_on,58,28,0
1,note_on,70,28,0
1,note_on,70,0,360
1,note_on,58,0,0
1,note_on,62,31,240
1,note_on,65,35,0
1,note_on,65,0,240
1,note_on,67,32,0
1,note_on,67,0,240
1,note_on,68,36,0
1,note_on,68,0,240
1,note_on,70,34,0
1,note_on,70,0,240
1,note_on,68,36,0
1,note_on,68,0,120
1,note_on,67,32,0
1,note_on,67,0,60
1,note_on,68,33,0
1,note_on,68,0,60
1,note_on,62,0,0
1,note_on,63,32,0
1,note_on,67,36,0
1,note_on,67,0,240
1,note_on,65,33,0
1,note_on,65,0,240
1,note_on,63,0,0
1,note_on,63,31,0
1,note_on,63,0,240
1,note_on,58,34,0
1,note_on,58,0,238
1,note_on,60,33,2
1,note_on,60,0,240
1,note_on,63,33,0
1,note_on,63,0,240
1,note_on,56,32,0
1,note_on,62,36,0
1,note_on,56,0,238
1,note_on,62,0,2
1,note_on,65,33,0
1,note_on,65,0,240
1,note_on,62,31,0
1,note_on,62,0,120
1,note_on,60,27,0
1,note_on,60,0,60
1,note_on,62,27,0
1,note_on,62,0,60
1,note_on,60,33,0
1,note_on,60,0,360
1,note_on,58,30,0
1,note_on,56,30,0
1,note_on,56,0,360
1,note_on,58,0,0
1,note_on,58,28,0
1,note_on,67,36,0
1,note_on,63,30,0
1,note_on,58,0,240
1,note_on,57,33,0
1,note_on,57,0,240
1,note_on,58,33,0
1,note_on,58,0,240
1,note_on,63,0,0
1,note_on,67,0,0
1,note_on,55,35,0
1,note_on,55,0,240
1,note_on,67,37,0
1,note_on,63,37,0
1,note_on,55,35,0
1,note_on,55,0,240
1,note_on,58,31,0
1,note_on,58,0,240
1,note_on,63,0,0
1,note_on,67,0,0
1,note_on,57,28,0
1,note_on,62,30,0
1,note_on,68,36,0
1,note_on,57,0,240
1,note_on,58,31,0
1,note_on,58,0,240
1,note_on,60,31,0
1,note_on,60,0,240
1,note_on,68,0,0
1,note_on,62,0,0
1,note_on,61,31,0
1,note_on,61,0,240
1,note_on,62,28,0
1,note_on,68,36,0
1,note_on,62,0,240
1,note_on,58,30,0
1,note_on,58,0,240
1,note_on,68,0,0
1,note_on,58,27,0
1,note_on,67,35,0
1,note_on,63,28,0
1,note_on,58,0,240
1,note_on,57,33,0
1,note_on,57,0,240
1,note_on,58,33,0
1,note_on,58,0,240
1,note_on,63,0,0
1,note_on,67,0,0
1,note_on,55,35,0
1,note_on,55,0,240
1,note_on,67,37,0
1,note_on,63,37,0
1,note_on,55,35,0
1,note_on,55,0,240
1,note_on,58,30,0
1,note_on,58,0,240
1,note_on,63,0,0
1,note_on,67,0,0
1,note_on,57,27,0
1,note_on,62,28,0
1,note_on,68,35,0
1,note_on,57,0,240
1,note_on,58,31,0
1,note_on,58,0,240
1,note_on,60,31,0
1,note_on,60,0,240
1,note_on,68,0,0
1,note_on,62,0,0
1,note_on,61,31,0
1,note_on,61,0,240
1,note_on,62,28,0
1,note_on,68,36,0
1,note_on,62,0,240
1,note_on,58,30,0
1,note_on,58,0,240
1,note_on,68,0,0
1,note_on,58,27,0
1,note_on,67,35,0
1,note_on,63,28,0
1,note_on,58,0,240
1,note_on,57,31,0
1,note_on,57,0,240
1,note_on,58,31,0
1,note_on,58,0,240
1,note_on,63,0,0
1,note_on,67,0,0
1,note_on,55,33,0
1,note_on,55,0,240
1,note_on,67,36,0
1,note_on,63,36,0
1,note_on,55,33,0
1,note_on,55,0,240
1,note_on,58,28,0
1,note_on,58,0,240
1,note_on,63,0,0
1,note_on,67,0,0
1,note_on,58,25,0
1,note_on,67,32,0
1,note_on,63,27,0
1,note_on,58,0,240
1,note_on,57,29,0
1,note_on,57,0,240
1,note_on,58,28,0
1,note_on,58,0,240
1,note_on,63,0,0
1,note_on,67,0,0
1,note_on,55,31,0
1,note_on,55,0,240
1,note_on,67,29,0
1,note_on,63,29,0
1,note_on,55,27,0
1,note_on,55,0,240
1,note_on,58,23,0
1,note_on,58,0,240
1,note_on,63,0,0
1,note_on,67,0,0
1,note_on,55,22,0
1,note_on,63,22,0
1,note_on,67,27,0
1,note_on,63,0,2158
1,note_on,67,0,2
1,note_on,55,0,0
1,note_on,75,27,0
1,note_on,79,27,0
1,note_on,87,33,0
1,note_on,87,0,720
1,note_on,79,0,0
1,note_on,75,0,0
1,note_on,94,27,0
1,note_on,87,27,0
1,note_on,91,27,0
1,note_on,99,33,0
1,note_on,99,0,1440
1,note_on,94,0,0
1,note_on,87,0,0
1,note_on,91,0,0
2,note_on,39,36,0
2,note_on,51,43,0
2,note_on,51,0,720
2,note_on,39,0,0
2,note_on,34,34,240
2,note_on,46,41,0
2,note_on,46,0,343
2,note_on,34,0,0
2,note_on,53,44,0
2,note_on,41,36,0
2,note_on,41,0,583
2,note_on,53,0,0
2,note_on,34,34,240
2,note_on,46,41,0
2,note_on,46,0,320
2,note_on,34,0,0
2,note_on,51,40,0
2,note_on,39,34,0
2,note_on,39,0,583
2,note_on,51,0,0
2,note_on,34,34,240
2,note_on,46,41,0
2,note_on,46,0,297
2,note_on,34,0,0
2,note_on,53,41,0
2,note_on,41,34,0
2,note_on,41,0,583
2,note_on,53,0,0
2,note_on,34,34,240
2,note_on,46,41,0
2,note_on,46,0,285
2,note_on,34,0,0
2,note_on,51,44,0
2,note_on,51,0,113
2,note_on,67,39,0
2,note_on,67,0,240
2,note_on,67,39,0
2,note_on,67,0,120
2,note_on,63,36,0
2,note_on,63,0,240
2,note_on,58,32,0
2,note_on,58,0,240
2,note_on,51,44,0
2,note_on,51,0,93
2,note_on,68,39,0
2,note_on,68,0,93
2,note_on,62,37,0
2,note_on,62,0,240
2,note_on,58,37,0
2,note_on,58,0,240
2,note_on,51,44,0
2,note_on,51,0,141
2,note_on,67,39,0
2,note_on,67,0,478
2,note_on,63,37,99
2,note_on,63,0,240
2,note_on,58,37,0
2,note_on,58,0,240
2,note_on,51,44,0
2,note_on,51,0,13
2,note_on,68,39,0
2,note_on,68,0,478
2,note_on,62,37,80
2,note_on,62,0,240
2,note_on,58,37,0
2,note_on,58,0,240
2,note_on,51,44,0
2,note_on,51,0,141
2,note_on,67,39,0
2,note_on,67,0,155
2,note_on,63,37,0
2,note_on,63,0,240
2,note_on,55,36,0
2,note_on,55,0,240
2,note_on,46,44,0
2,note_on,46,0,147
2,note_on,56,39,0
2,note_on,56,0,159
2,note_on,52,37,0
2,note_on,52,0,240
2,note_on,53,37,0
2,note_on,53,0,240
2,note_on,46,44,0
2,note_on,46,0,133
2,note_on,55,39,0
2,note_on,55,0,120
2,note_on,58,37,0
2,note_on,58,0,240
2,note_on,55,37,0
2,note_on,55,0,240
2,note_on,46,44,0
2,note_on,46,0,184
2,note_on,56,39,0
2,note_on,56,0,155
2,note_on,52,37,0
2,note_on,52,0,240
2,note_on,53,37,0
2,note_on,53,0,240
2,note_on,39,36,0
2,note_on,51,43,0
2,note_on,51,0,571
2,note_on,39,0,0
2,note_on,34,34,240
2,note_on,46,41,0
2,note_on,46,0,331
2,note_on,34,0,0
2,note_on,41,36,0
2,note_on,53,44,0
2,note_on,53,0,583
2,note_on,41,0,0
2,note_on,34,34,240
2,note_on,46,41,0
2,note_on,46,0,389
2,note_on,34,0,0
2,note_on,39,34,0
2,note_on,51,40,0
2,note_on,51,0,583
2,note_on,39,0,0
2,note_on,34,34,240
2,note_on,46,41,0
2,note_on,46,0,331
2,note_on,34,0,0
2,note_on,41,34,0
2,note_on,53,41,0
2,note_on,53,0,583
2,note_on,41,0,0
2,note_on,34,34,240
2,note_on,46,41,0
2,note_on,46,0,297
2,note_on,34,0,0
2,note_on,51,44,0
2,note_on,51,0,113
2,note_on,67,39,0
2,note_on,67,0,240
2,note_on,67,39,0
2,note_on,67,0,120
2,note_on,63,37,0
2,note_on,63,0,240
2,note_on,58,37,0
2,note_on,58,0,240
2,note_on,51,44,0
2,note_on,51,0,93
2,note_on,68,39,0
2,note_on,68,0,93
2,note_on,62,37,0
2,note_on,62,0,240
2,note_on,58,37,0
2,note_on,58,0,240
2,note_on,51,44,0
2,note_on,51,0,141
2,note_on,67,39,0
2,note_on,67,0,478
2,note_on,63,37,99
2,note_on,63,0,240
2,note_on,58,33,0
2,note_on,58,0,240
2,note_on,51,44,0
2,note_on,51,0,13
2,note_on,68,39,0
2,note_on,68,0,478
2,note_on,62,37,80
2,note_on,62,0,240
2,note_on,58,37,0
2,note_on,58,0,240
2,note_on,51,44,0
2,note_on,51,0,141
2,note_on,67,39,0
2,note_on,67,0,155
2,note_on,63,37,0
2,note_on,63,0,240
2,note_on,55,35,0
2,note_on,55,0,240
2,note_on,46,44,0
2,note_on,46,0,147
2,note_on,56,39,0
2,note_on,56,0,159
2,note_on,52,37,0
2,note_on,52,0,240
2,note_on,53,37,0
2,note_on,53,0,240
2,note_on,46,44,0
2,note_on,46,0,133
2,note_on,55,39,0
2,note_on,55,0,120
2,note_on,58,37,0
2,note_on,58,0,240
2,note_on,55,37,0
2,note_on,55,0,240
2,note_on,46,44,0
2,note_on,46,0,184
2,note_on,56,39,0
2,note_on,56,0,155
2,note_on,52,37,0
2,note_on,52,0,240
2,note_on,53,37,0
2,note_on,53,0,240
2,note_on,39,36,0
2,note_on,51,43,0
2,note_on,51,0,571
2,note_on,39,0,0
2,note_on,34,34,240
2,note_on,46,41,0
2,note_on,46,0,331
2,note_on,34,0,0
2,note_on,41,36,0
2,note_on,53,44,0
2,note_on,53,0,583
2,note_on,41,0,0
2,note_on,34,34,240
2,note_on,46,41,0
2,note_on,46,0,389
2,note_on,34,0,0
2,note_on,39,34,0
2,note_on,51,40,0
2,note_on,51,0,583
2,note_on,39,0,0
2,note_on,34,34,240
2,note_on,46,41,0
2,note_on,46,0,331
2,note_on,34,0,0
2,note_on,41,34,0
2,note_on,53,41,0
2,note_on,53,0,583
2,note_on,41,0,0
2,note_on,34,34,240
2,note_on,46,41,0
2,note_on,46,0,297
2,note_on,34,0,0
2,note_on,51,44,0
2,note_on,51,0,93
2,note_on,67,39,0
2,note_on,67,0,240
2,note_on,67,41,0
2,note_on,67,0,60
2,note_on,63,37,0
2,note_on,63,0,240
2,note_on,58,37,0
2,note_on,58,0,240
2,note_on,51,44,0
2,note_on,51,0,120
2,note_on,68,39,0
2,note_on,68,0,80
2,note_on,61,37,0
2,note_on,61,0,240
2,note_on,58,37,0
2,note_on,58,0,240
2,note_on,51,44,0
2,note_on,51,0,120
2,note_on,67,39,0
2,note_on,67,0,120
2,note_on,61,37,0
2,note_on,61,0,240
2,note_on,58,37,0
2,note_on,58,0,240
2,note_on,51,44,0
2,note_on,51,0,120
2,note_on,61,39,0
2,note_on,61,0,80
2,note_on,55,37,0
2,note_on,55,0,240
2,note_on,51,37,0
2,note_on,51,0,240
2,note_on,44,44,0
2,note_on,44,0,120
2,note_on,60,39,0
2,note_on,60,0,60
2,note_on,56,39,0
2,note_on,56,0,240
2,note_on,51,39,0
2,note_on,51,0,240
2,note_on,44,48,0
2,note_on,44,0,240
2,note_on,63,42,0
2,note_on,63,0,720
2,note_on,60,48,0
2,note_on,60,0,240
2,note_on,56,46,0
2,note_on,56,0,240
2,note_on,44,50,0
2,note_on,44,0,120
2,note_on,59,45,0
2,note_on,59,0,120
2,note_on,56,44,0
2,note_on,56,0,240
2,note_on,51,45,0
2,note_on,51,0,240
2,note_on,44,54,0
2,note_on,44,0,240
2,note_on,63,49,0
2,note_on,63,0,720
2,note_on,59,48,0
2,note_on,59,0,240
2,note_on,56,49,0
2,note_on,56,0,240
2,note_on,46,65,0
2,note_on,46,0,120
2,note_on,67,45,0
2,note_on,67,0,240
2,note_on,67,45,0
2,note_on,67,0,120
2,note_on,63,43,0
2,note_on,63,0,240
2,note_on,58,43,0
2,note_on,58,0,240
2,note_on,46,51,0
2,note_on,46,0,120
2,note_on,68,45,0
2,note_on,68,0,80
2,note_on,62,43,0
2,note_on,62,0,240
2,note_on,58,43,0
2,note_on,58,0,240
2,note_on,51,51,0
2,note_on,51,0,120
2,note_on,67,45,0
2,note_on,67,0,478
2,note_on,63,43,120
2,note_on,63,0,240
2,note_on,58,43,0
2,note_on,58,0,240
2,note_on,48,51,0
2,note_on,48,0,120
2,note_on,61,45,0
2,note_on,61,0,80
2,note_on,60,43,0
2,note_on,60,0,240
2,note_on,64,43,0
2,note_on,64,0,240
2,note_on,41,51,0
2,note_on,41,0,120
2,note_on,63,45,0
2,note_on,63,0,155
2,note_on,53,43,0
2,note_on,53,0,240
2,note_on,63,43,0
2,note_on,63,0,240
2,note_on,46,51,0
2,note_on,46,0,60
2,note_on,56,45,0
2,note_on,56,0,80
2,note_on,53,43,0
2,note_on,53,0,240
2,note_on,63,43,0
2,note_on,63,0,240
2,note_on,46,48,0
2,note_on,46,0,120
2,note_on,63,45,0
2,note_on,63,0,155
2,note_on,58,43,0
2,note_on,58,0,240
2,note_on,68,43,0
2,note_on,68,0,240
2,note_on,46,45,0
2,note_on,46,0,120
2,note_on,55,40,0
2,note_on,55,0,240
2,note_on,56,38,0
2,note_on,56,0,240
2,note_on,60,35,0
2,note_on,60,0,275
2,note_on,58,34,0
2,note_on,58,0,360
2,note_on,39,36,0
2,note_on,51,43,0
2,note_on,51,0,606
2,note_on,39,0,0
2,note_on,34,34,240
2,note_on,46,41,0
2,note_on,46,0,366
2,note_on,34,0,0
2,note_on,41,36,0
2,note_on,53,44,0
2,note_on,53,0,583
2,note_on,41,0,0
2,note_on,34,34,240
2,note_on,46,41,0
2,note_on,46,0,360
2,note_on,34,0,0
2,note_on,39,34,0
2,note_on,51,40,0
2,note_on,51,0,583
2,note_on,39,0,0
2,note_on,34,34,240
2,note_on,46,41,0
2,note_on,46,0,360
2,note_on,34,0,0
2,note_on,41,34,0
2,note_on,53,41,0
2,note_on,53,0,583
2,note_on,41,0,0
2,note_on,34,34,240
2,note_on,46,41,0
2,note_on,46,0,360
2,note_on,34,0,0
2,note_on,51,29,0
2,note_on,51,0,120
2,note_on,67,26,0
2,note_on,67,0,240
2,note_on,67,26,0
2,note_on,67,0,141
2,note_on,63,24,0
2,note_on,63,0,240
2,note_on,58,23,0
2,note_on,58,0,240
2,note_on,53,29,0
2,note_on,53,0,120
2,note_on,68,26,0
2,note_on,68,0,80
2,note_on,62,24,0
2,note_on,62,0,240
2,note_on,58,24,0
2,note_on,58,0,240
2,note_on,51,29,0
2,note_on,51,0,120
2,note_on,67,26,0
2,note_on,67,0,478
2,note_on,63,24,120
2,note_on,63,0,240
2,note_on,58,24,0
2,note_on,58,0,240
2,note_on,53,29,0
2,note_on,53,0,60
2,note_on,68,26,0
2,note_on,68,0,478
2,note_on,62,24,80
2,note_on,62,0,240
2,note_on,58,24,0
2,note_on,58,0,240
2,note_on,51,29,0
2,note_on,51,0,120
2,note_on,67,26,0
2,note_on,67,0,155
2,note_on,63,24,0
2,note_on,63,0,240
2,note_on,55,24,0
2,note_on,55,0,240
2,note_on,46,29,0
2,note_on,46,0,147
2,note_on,56,26,0
2,note_on,56,0,134
2,note_on,52,24,0
2,note_on,52,0,240
2,note_on,53,24,0
2,note_on,53,0,240
2,note_on,46,29,0
2,note_on,46,0,93
2,note_on,55,26,0
2,note_on,55,0,66
2,note_on,58,24,0
2,note_on,58,0,240
2,note_on,55,24,0
2,note_on,55,0,240
2,note_on,46,29,0
2,note_on,46,0,184
2,note_on,56,26,0
2,note_on,56,0,155
2,note_on,52,24,0
2,note_on,52,0,240
2,note_on,53,24,0
2,note_on,53,0,240
2,note_on,51,29,0
2,note_on,51,0,120
2,note_on,67,26,0
2,note_on,67,0,240
2,note_on,67,26,0
2,note_on,67,0,141
2,note_on,63,24,0
2,note_on,63,0,240
2,note_on,58,24,0
2,note_on,58,0,240
2,note_on,53,29,0
2,note_on,53,0,93
2,note_on,68,26,0
2,note_on,68,0,80
2,note_on,62,24,0
2,note_on,62,0,240
2,note_on,58,24,0
2,note_on,58,0,240
2,note_on,51,29,0
2,note_on,51,0,127
2,note_on,67,26,0
2,note_on,67,0,478
2,note_on,63,24,155
2,note_on,63,0,240
2,note_on,58,24,0
2,note_on,58,0,240
2,note_on,53,29,0
2,note_on,53,0,80
2,note_on,68,26,0
2,note_on,68,0,478
2,note_on,62,24,80
2,note_on,62,0,240
2,note_on,58,24,0
2,note_on,58,0,240
2,note_on,51,29,0
2,note_on,51,0,120
2,note_on,67,26,0
2,note_on,67,0,120
2,note_on,63,24,0
2,note_on,63,0,240
2,note_on,55,24,0
2,note_on,55,0,240
2,note_on,46,29,0
2,note_on,46,0,147
2,note_on,56,26,0
2,note_on,56,0,130
2,note_on,52,24,0
2,note_on,52,0,240
2,note_on,53,24,0
2,note_on,53,0,240
2,note_on,46,29,0
2,note_on,46,0,93
2,note_on,55,26,0
2,note_on,55,0,106
2,note_on,58,24,0
2,note_on,58,0,240
2,note_on,55,24,0
2,note_on,55,0,240
2,note_on,46,29,0
2,note_on,46,0,184
2,note_on,56,26,0
2,note_on,56,0,155
2,note_on,52,24,0
2,note_on,52,0,240
2,note_on,53,24,0
2,note_on,53,0,240
2,note_on,39,27,0
2,note_on,51,32,0
2,note_on,51,0,560
2,note_on,39,0,0
2,note_on,34,25,240
2,note_on,46,30,0
2,note_on,46,0,331
2,note_on,34,0,0
2,note_on,41,27,0
2,note_on,53,33,0
2,note_on,53,0,583
2,note_on,41,0,0
2,note_on,34,25,240
2,note_on,46,30,0
2,note_on,46,0,297
2,note_on,34,0,0
2,note_on,39,25,0
2,note_on,51,30,0
2,note_on,51,0,583
2,note_on,39,0,0
2,note_on,34,25,240
2,note_on,46,30,0
2,note_on,46,0,263
2,note_on,34,0,0
2,note_on,41,25,0
2,note_on,53,30,0
2,note_on,53,0,583
2,note_on,41,0,0
2,note_on,34,25,240
2,note_on,46,30,0
2,note_on,46,0,331
2,note_on,34,0,0
2,note_on,39,25,0
2,note_on,51,30,0
2,note_on,51,0,514
2,note_on,39,0,0
2,note_on,34,23,240
2,note_on,46,28,0
2,note_on,46,0,320
2,note_on,34,0,0
2,note_on,39,23,0
2,note_on,51,27,0
2,note_on,51,0,583
2,note_on,39,0,0
2,note_on,34,19,240
2,note_on,46,24,0
2,note_on,46,0,331
2,note_on,34,0,0
2,note_on,39,20,0
2,note_on,51,25,0
2,note_on,51,0,1800
2,note_on,39,0,0
2,note_on,44,36,0
2,note_on,44,0,240
2,note_on,51,33,0
2,note_on,51,0,240
2,note_on,56,30,0
2,note_on,56,0,240
2,note_on,59,31,0
2,note_on,59,0,240
2,note_on,61,34,0
2,note_on,61,0,80
2,note_on,63,33,0
2,note_on,63,0,240
2,note_on,68,36,0
2,note_on,64,36,0
2,note_on,64,0,253
2,note_on,68,0,0
2,note_on,44,36,0
2,note_on,44,0,133
2,note_on,51,33,0
2,note_on,51,0,240
2,note_on,56,30,0
2,note_on,56,0,240
2,note_on,59,31,0
2,note_on,59,0,240
2,note_on,61,34,0
2,note_on,61,0,80
2,note_on,63,36,0
2,note_on,63,0,240
2,note_on,68,36,0
2,note_on,64,36,0
2,note_on,64,0,333
2,note_on,68,0,0
2,note_on,44,36,0
2,note_on,44,0,133
2,note_on,51,33,0
2,note_on,51,0,240
2,note_on,56,30,0
2,note_on,56,0,240
2,note_on,59,31,0
2,note_on,59,0,240
2,note_on,61,34,0
2,note_on,61,0,147
2,note_on,63,36,0
2,note_on,63,0,240
2,note_on,64,36,0
2,note_on,56,36,0
2,note_on,56,0,307
2,note_on,64,0,0
2,note_on,44,24,0
2,note_on,44,0,133
2,note_on,51,21,0
2,note_on,51,0,240
2,note_on,56,20,0
2,note_on,56,0,240
2,note_on,59,20,0
2,note_on,59,0,240
2,note_on,61,22,0
2,note_on,61,0,120
2,note_on,63,24,0
2,note_on,63,0,240
2,note_on,67,24,0
2,note_on,61,23,0
2,note_on,61,0,1200
2,note_on,67,0,0
2,note_on,44,36,0
2,note_on,44,0,40
2,note_on,51,33,0
2,note_on,51,0,240
2,note_on,56,30,0
2,note_on,56,0,240
2,note_on,59,31,0
2,note_on,59,0,240
2,note_on,61,34,0
2,note_on,61,0,133
2,note_on,63,36,0
2,note_on,63,0,240
2,note_on,68,36,0
2,note_on,64,36,0
2,note_on,64,0,347
2,note_on,68,0,0
2,note_on,44,36,0
2,note_on,44,0,133
2,note_on,51,33,0
2,note_on,51,0,240
2,note_on,56,30,0
2,note_on,56,0,240
2,note_on,59,31,0
2,note_on,59,0,240
2,note_on,61,34,0
2,note_on,61,0,133
2,note_on,63,36,0
2,note_on,63,0,240
2,note_on,68,36,0
2,note_on,64,36,0
2,note_on,64,0,360
2,note_on,68,0,0
2,note_on,44,36,0
2,note_on,44,0,133
2,note_on,51,33,0
2,note_on,51,0,240
2,note_on,56,30,0
2,note_on,56,0,240
2,note_on,59,31,0
2,note_on,59,0,240
2,note_on,61,34,0
2,note_on,61,0,107
2,note_on,63,36,0
2,note_on,63,0,240
2,note_on,64,36,0
2,note_on,56,36,0
2,note_on,56,0,347
2,note_on,64,0,0
2,note_on,44,24,0
2,note_on,44,0,133
2,note_on,51,21,0
2,note_on,51,0,240
2,note_on,56,20,0
2,note_on,56,0,240
2,note_on,59,20,0
2,note_on,59,0,240
2,note_on,61,22,0
2,note_on,61,0,147
2,note_on,63,24,0
2,note_on,63,0,240
2,note_on,68,30,0
2,note_on,68,0,133
2,note_on,63,30,0
2,note_on,63,0,240
2,note_on,61,28,0
2,note_on,61,0,240
2,note_on,59,28,0
2,note_on,59,0,240
2,note_on,58,27,0
2,note_on,58,0,173
2,note_on,56,25,0
2,note_on,56,0,240
2,note_on,39,30,0
2,note_on,39,0,23
2,note_on,46,29,0
2,note_on,46,0,240
2,note_on,51,28,0
2,note_on,51,0,240
2,note_on,55,30,0
2,note_on,55,0,240
2,note_on,58,34,0
2,note_on,58,0,80
2,note_on,63,38,0
2,note_on,63,0,240
2,note_on,58,41,0
2,note_on,68,41,0
2,note_on,64,41,0
2,note_on,64,0,356
2,note_on,68,0,0
2,note_on,58,0,0
2,note_on,39,36,0
2,note_on,39,0,133
2,note_on,46,33,0
2,note_on,46,0,240
2,note_on,51,30,0
2,note_on,51,0,240
2,note_on,55,31,0
2,note_on,55,0,240
2,note_on,58,34,0
2,note_on,58,0,180
2,note_on,63,36,0
2,note_on,51,35,195
2,note_on,58,38,15
2,note_on,61,40,15
2,note_on,63,0,15
2,note_on,64,42,0
2,note_on,64,0,339
2,note_on,61,0,0
2,note_on,58,0,0
2,note_on,51,0,0
2,note_on,39,39,0
2,note_on,39,0,12
2,note_on,63,39,0
2,note_on,63,0,240
2,note_on,59,36,0
2,note_on,59,0,240
2,note_on,58,33,0
2,note_on,58,0,240
2,note_on,55,35,0
2,note_on,55,0,240
2,note_on,50,39,0
2,note_on,50,0,68
2,note_on,51,45,0
2,note_on,51,0,240
2,note_on,44,49,0
2,note_on,44,0,120
2,note_on,50,46,0
2,note_on,50,0,240
2,note_on,51,45,0
2,note_on,51,0,240
2,note_on,55,36,0
2,note_on,55,0,240
2,note_on,56,42,0
2,note_on,56,0,107
2,note_on,59,41,0
2,note_on,59,0,240
2,note_on,39,36,0
2,note_on,39,0,133
2,note_on,45,38,0
2,note_on,45,0,240
2,note_on,46,40,0
2,note_on,46,0,240
2,note_on,51,41,0
2,note_on,51,0,240
2,note_on,55,44,0
2,note_on,55,0,120
2,note_on,58,46,0
2,note_on,58,0,240
2,note_on,59,45,0
2,note_on,59,0,93
2,note_on,56,39,0
2,note_on,56,0,240
2,note_on,52,39,0
2,note_on,52,0,240
2,note_on,47,38,0
2,note_on,47,0,240
2,note_on,44,36,0
2,note_on,44,0,240
2,note_on,40,34,0
2,note_on,40,0,180
2,note_on,39,36,53
2,note_on,39,0,240
2,note_on,46,35,0
2,note_on,46,0,240
2,note_on,51,34,0
2,note_on,51,0,240
2,note_on,55,36,0
2,note_on,55,0,240
2,note_on,58,40,0
2,note_on,58,0,103
2,note_on,63,45,0
2,note_on,63,0,240
2,note_on,58,49,0
2,note_on,68,49,0
2,note_on,64,49,0
2,note_on,64,0,399
2,note_on,68,0,0
2,note_on,58,0,0
2,note_on,39,36,0
2,note_on,39,0,133
2,note_on,46,33,0
2,note_on,46,0,240
2,note_on,51,30,0
2,note_on,51,0,240
2,note_on,55,31,0
2,note_on,55,0,240
2,note_on,58,34,0
2,note_on,58,0,180
2,note_on,63,36,0
2,note_on,51,35,195
2,note_on,58,38,15
2,note_on,61,40,15
2,note_on,63,0,15
2,note_on,64,42,0
2,note_on,64,0,360
2,note_on,61,0,0
2,note_on,58,0,0
2,note_on,51,0,0
2,note_on,39,39,0
2,note_on,39,0,31
2,note_on,63,39,0
2,note_on,63,0,240
2,note_on,59,36,0
2,note_on,59,0,240
2,note_on,58,33,0
2,note_on,58,0,240
2,note_on,55,35,0
2,note_on,55,0,240
2,note_on,50,39,0
2,note_on,50,0,133
2,note_on,51,45,0
2,note_on,51,0,240
2,note_on,44,49,0
2,note_on,44,0,120
2,note_on,50,46,0
2,note_on,50,0,240
2,note_on,51,45,0
2,note_on,51,0,240
2,note_on,55,38,0
2,note_on,55,0,240
2,note_on,56,42,0
2,note_on,56,0,107
2,note_on,59,41,0
2,note_on,59,0,240
2,note_on,39,36,0
2,note_on,39,0,133
2,note_on,45,38,0
2,note_on,45,0,240
2,note_on,46,40,0
2,note_on,46,0,240
2,note_on,51,41,0
2,note_on,51,0,240
2,note_on,55,44,0
2,note_on,55,0,120
2,note_on,58,46,0
2,note_on,58,0,240
2,note_on,61,45,0
2,note_on,61,0,93
2,note_on,59,35,0
2,note_on,59,0,240
2,note_on,58,39,0
2,note_on,58,0,240
2,note_on,55,38,0
2,note_on,55,0,240
2,note_on,52,36,0
2,note_on,52,0,137
2,note_on,51,34,0
2,note_on,51,0,240
2,note_on,44,36,0
2,note_on,44,0,80
2,note_on,51,33,0
2,note_on,51,0,240
2,note_on,56,30,0
2,note_on,56,0,240
2,note_on,59,31,0
2,note_on,59,0,240
2,note_on,61,34,0
2,note_on,61,0,133
2,note_on,63,32,0
2,note_on,63,0,240
2,note_on,68,36,0
2,note_on,64,36,0
2,note_on,64,0,320
2,note_on,68,0,0
2,note_on,44,36,0
2,note_on,44,0,133
2,note_on,51,33,0
2,note_on,51,0,240
2,note_on,56,30,0
2,note_on,56,0,240
2,note_on,59,31,0
2,note_on,59,0,240
2,note_on,61,34,0
2,note_on,61,0,106
2,note_on,63,36,0
2,note_on,63,0,240
2,note_on,68,36,0
2,note_on,64,36,0
2,note_on,64,0,347
2,note_on,68,0,0
2,note_on,44,36,0
2,note_on,44,0,133
2,note_on,51,33,0
2,note_on,51,0,240
2,note_on,56,30,0
2,note_on,56,0,240
2,note_on,59,31,0
2,note_on,59,0,240
2,note_on,61,34,0
2,note_on,61,0,133
2,note_on,63,36,0
2,note_on,63,0,240
2,note_on,64,36,0
2,note_on,56,36,0
2,note_on,56,0,306
2,note_on,64,0,0
2,note_on,44,24,0
2,note_on,44,0,133
2,note_on,51,21,0
2,note_on,51,0,240
2,note_on,56,20,0
2,note_on,56,0,240
2,note_on,59,20,0
2,note_on,59,0,240
2,note_on,63,22,0
2,note_on,63,0,240
2,note_on,68,24,0
2,note_on,68,0,240
2,note_on,41,27,600
2,note_on,51,32,0
2,note_on,51,0,1266
2,note_on,41,0,0
2,note_on,71,32,0
2,note_on,71,0,1306
2,note_on,41,28,0
2,note_on,47,33,0
2,note_on,47,0,1337
2,note_on,41,0,0
2,note_on,71,33,0
2,note_on,71,0,1337
2,note_on,34,23,0
2,note_on,46,28,0
2,note_on,46,0,1337
2,note_on,34,0,0
2,note_on,70,28,0
2,note_on,70,0,1280
2,note_on,34,28,0
2,note_on,46,28,0
2,note_on,77,33,83
2,note_on,77,0,60
2,note_on,46,0,0
2,note_on,34,0,0
2,note_on,82,49,0
2,note_on,82,0,354
2,note_on,46,42,0
2,note_on,58,42,0
2,note_on,89,45,83
2,note_on,89,0,60
2,note_on,58,0,0
2,note_on,46,0,0
2,note_on,94,68,0
2,note_on,94,0,354
2,note_on,39,36,0
2,note_on,51,43,0
2,note_on,51,0,571
2,note_on,39,0,0
2,note_on,34,34,240
2,note_on,46,41,0
2,note_on,46,0,343
2,note_on,34,0,0
2,note_on,41,36,0
2,note_on,53,44,0
2,note_on,53,0,583
2,note_on,41,0,0
2,note_on,34,34,240
2,note_on,46,41,0
2,note_on,46,0,331
2,note_on,34,0,0
2,note_on,39,34,0
2,note_on,51,40,0
2,note_on,51,0,583
2,note_on,39,0,0
2,note_on,34,34,240
2,note_on,46,41,0
2,note_on,46,0,366
2,note_on,34,0,0
2,note_on,41,34,0
2,note_on,53,41,0
2,note_on,53,0,583
2,note_on,41,0,0
2,note_on,34,34,240
2,note_on,46,41,0
2,note_on,46,0,297
2,note_on,34,0,0
2,note_on,51,44,0
2,note_on,51,0,127
2,note_on,67,39,0
2,note_on,67,0,240
2,note_on,67,39,0
2,note_on,67,0,141
2,note_on,63,37,0
2,note_on,63,0,240
2,note_on,58,37,0
2,note_on,58,0,240
2,note_on,51,44,0
2,note_on,51,0,147
2,note_on,68,39,0
2,note_on,68,0,80
2,note_on,62,37,0
2,note_on,62,0,240
2,note_on,58,37,0
2,note_on,58,0,240
2,note_on,51,44,0
2,note_on,51,0,184
2,note_on,67,39,0
2,note_on,67,0,478
2,note_on,63,35,155
2,note_on,63,0,240
2,note_on,58,31,0
2,note_on,58,0,240
2,note_on,51,44,0
2,note_on,51,0,80
2,note_on,68,39,0
2,note_on,68,0,478
2,note_on,62,37,80
2,note_on,62,0,240
2,note_on,58,37,0
2,note_on,58,0,240
2,note_on,51,44,0
2,note_on,51,0,184
2,note_on,67,39,0
2,note_on,67,0,155
2,note_on,63,36,0
2,note_on,63,0,240
2,note_on,55,34,0
2,note_on,55,0,240
2,note_on,46,44,0
2,note_on,46,0,147
2,note_on,56,39,0
2,note_on,56,0,162
2,note_on,52,37,0
2,note_on,52,0,240
2,note_on,53,37,0
2,note_on,53,0,240
2,note_on,46,44,0
2,note_on,46,0,106
2,note_on,55,39,0
2,note_on,55,0,66
2,note_on,58,37,0
2,note_on,58,0,240
2,note_on,55,37,0
2,note_on,55,0,240
2,note_on,46,44,0
2,note_on,46,0,184
2,note_on,56,39,0
2,note_on,56,0,155
2,note_on,52,37,0
2,note_on,52,0,240
2,note_on,53,37,0
2,note_on,53,0,240
2,note_on,39,36,0
2,note_on,51,43,0
2,note_on,51,0,537
2,note_on,39,0,0
2,note_on,34,34,240
2,note_on,46,41,0
2,note_on,46,0,308
2,note_on,34,0,0
2,note_on,41,36,0
2,note_on,53,44,0
2,note_on,53,0,583
2,note_on,41,0,0
2,note_on,34,34,240
2,note_on,46,41,0
2,note_on,46,0,377
2,note_on,34,0,0
2,note_on,39,34,0
2,note_on,51,40,0
2,note_on,51,0,583
2,note_on,39,0,0
2,note_on,34,34,240
2,note_on,46,41,0
2,note_on,46,0,308
2,note_on,34,0,0
2,note_on,41,34,0
2,note_on,53,41,0
2,note_on,53,0,583
2,note_on,41,0,0
2,note_on,34,34,240
2,note_on,46,41,0
2,note_on,46,0,320
2,note_on,34,0,0
2,note_on,51,44,0
2,note_on,51,0,106
2,note_on,67,39,0
2,note_on,67,0,240
2,note_on,67,39,0
2,note_on,67,0,66
2,note_on,63,37,0
2,note_on,63,0,240
2,note_on,58,37,0
2,note_on,58,0,240
2,note_on,51,44,0
2,note_on,51,0,91
2,note_on,68,39,0
2,note_on,68,0,80
2,note_on,61,37,0
2,note_on,61,0,240
2,note_on,58,37,0
2,note_on,58,0,240
2,note_on,51,44,0
2,note_on,51,0,125
2,note_on,67,39,0
2,note_on,67,0,103
2,note_on,61,37,0
2,note_on,61,0,240
2,note_on,58,37,0
2,note_on,58,0,240
2,note_on,51,44,0
2,note_on,51,0,66
2,note_on,61,39,0
2,note_on,61,0,80
2,note_on,55,37,0
2,note_on,55,0,240
2,note_on,51,37,0
2,note_on,51,0,240
2,note_on,44,44,0
2,note_on,44,0,93
2,note_on,60,39,0
2,note_on,60,0,53
2,note_on,56,39,0
2,note_on,56,0,240
2,note_on,51,39,0
2,note_on,51,0,240
2,note_on,44,48,0
2,note_on,44,0,240
2,note_on,63,42,0
2,note_on,63,0,720
2,note_on,60,39,0
2,note_on,60,0,240
2,note_on,56,39,0
2,note_on,56,0,240
2,note_on,44,50,0
2,note_on,44,0,133
2,note_on,59,45,0
2,note_on,59,0,80
2,note_on,56,44,0
2,note_on,56,0,240
2,note_on,51,45,0
2,note_on,51,0,240
2,note_on,44,54,0
2,note_on,44,0,240
2,note_on,63,49,0
2,note_on,63,0,720
2,note_on,59,48,0
2,note_on,59,0,240
2,note_on,56,49,0
2,note_on,56,0,240
2,note_on,46,65,0
2,note_on,46,0,77
2,note_on,67,45,0
2,note_on,67,0,240
2,note_on,67,45,0
2,note_on,67,0,139
2,note_on,63,43,2
2,note_on,63,0,240
2,note_on,58,43,0
2,note_on,58,0,240
2,note_on,46,51,0
2,note_on,46,0,93
2,note_on,68,45,0
2,note_on,68,0,80
2,note_on,62,43,0
2,note_on,62,0,240
2,note_on,58,43,0
2,note_on,58,0,240
2,note_on,51,51,0
2,note_on,51,0,134
2,note_on,67,45,0
2,note_on,67,0,478
2,note_on,63,43,155
2,note_on,63,0,240
2,note_on,58,43,0
2,note_on,58,0,240
2,note_on,48,51,0
2,note_on,48,0,103
2,note_on,61,45,0
2,note_on,61,0,80
2,note_on,60,43,0
2,note_on,60,0,240
2,note_on,64,43,0
2,note_on,64,0,240
2,note_on,41,51,0
2,note_on,41,0,134
2,note_on,63,45,0
2,note_on,63,0,155
2,note_on,53,43,0
2,note_on,53,0,240
2,note_on,63,43,0
2,note_on,63,0,240
2,note_on,46,51,0
2,note_on,46,0,93
2,note_on,56,45,0
2,note_on,56,0,80
2,note_on,55,43,0
2,note_on,55,0,240
2,note_on,63,43,0
2,note_on,63,0,240
2,note_on,46,48,0
2,note_on,46,0,184
2,note_on,63,45,0
2,note_on,63,0,155
2,note_on,58,43,0
2,note_on,58,0,240
2,note_on,68,43,0
2,note_on,68,0,240
2,note_on,46,45,0
2,note_on,46,0,134
2,note_on,55,40,0
2,note_on,55,0,240
2,note_on,56,38,0
2,note_on,56,0,240
2,note_on,60,35,0
2,note_on,60,0,275
2,note_on,58,34,0
2,note_on,58,0,360
2,note_on,39,36,0
2,note_on,51,43,0
2,note_on,51,0,571
2,note_on,39,0,0
2,note_on,34,34,240
2,note_on,46,41,0
2,note_on,46,0,377
2,note_on,34,0,0
2,note_on,41,36,0
2,note_on,53,44,0
2,note_on,53,0,583
2,note_on,41,0,0
2,note_on,34,34,240
2,note_on,46,41,0
2,note_on,46,0,389
2,note_on,34,0,0
2,note_on,39,34,0
2,note_on,51,40,0
2,note_on,51,0,583
2,note_on,39,0,0
2,note_on,34,34,240
2,note_on,46,41,0
2,note_on,46,0,377
2,note_on,34,0,0
2,note_on,41,34,0
2,note_on,53,41,0
2,note_on,53,0,583
2,note_on,41,0,0
2,note_on,34,34,240
2,note_on,46,41,0
2,note_on,46,0,354
2,note_on,34,0,0
2,note_on,51,29,0
2,note_on,51,0,127
2,note_on,67,26,0
2,note_on,67,0,240
2,note_on,67,26,0
2,note_on,67,0,141
2,note_on,63,24,0
2,note_on,63,0,240
2,note_on,58,24,0
2,note_on,58,0,240
2,note_on,51,29,0
2,note_on,51,0,66
2,note_on,68,26,0
2,note_on,68,0,80
2,note_on,62,24,0
2,note_on,62,0,240
2,note_on,58,24,0
2,note_on,58,0,240
2,note_on,51,29,0
2,note_on,51,0,148
2,note_on,67,26,0
2,note_on,67,0,478
2,note_on,63,24,155
2,note_on,63,0,240
2,note_on,58,24,0
2,note_on,58,0,240
2,note_on,51,29,0
2,note_on,51,0,40
2,note_on,68,26,0
2,note_on,68,0,478
2,note_on,62,24,80
2,note_on,62,0,240
2,note_on,58,24,0
2,note_on,58,0,240
2,note_on,51,29,0
2,note_on,51,0,184
2,note_on,67,26,0
2,note_on,67,0,155
2,note_on,63,24,0
2,note_on,63,0,240
2,note_on,55,24,0
2,note_on,55,0,240
2,note_on,46,29,0
2,note_on,46,0,147
2,note_on,56,26,0
2,note_on,56,0,80
2,note_on,52,24,0
2,note_on,52,0,240
2,note_on,53,24,0
2,note_on,53,0,240
2,note_on,46,29,0
2,note_on,46,0,93
2,note_on,55,26,0
2,note_on,55,0,66
2,note_on,58,24,0
2,note_on,58,0,240
2,note_on,55,24,0
2,note_on,55,0,240
2,note_on,46,29,0
2,note_on,46,0,184
2,note_on,56,26,0
2,note_on,56,0,155
2,note_on,52,24,0
2,note_on,52,0,240
2,note_on,53,24,0
2,note_on,53,0,240
2,note_on,51,29,0
2,note_on,51,0,92
2,note_on,67,26,0
2,note_on,67,0,240
2,note_on,67,26,0
2,note_on,67,0,106
2,note_on,63,24,0
2,note_on,63,0,240
2,note_on,58,24,0
2,note_on,58,0,240
2,note_on,51,29,0
2,note_on,51,0,133
2,note_on,68,26,0
2,note_on,68,0,80
2,note_on,62,24,0
2,note_on,62,0,240
2,note_on,58,24,0
2,note_on,58,0,240
2,note_on,51,29,0
2,note_on,51,0,127
2,note_on,67,26,0
2,note_on,67,0,478
2,note_on,63,24,155
2,note_on,63,0,240
2,note_on,58,24,0
2,note_on,58,0,240
2,note_on,51,29,0
2,note_on,51,0,147
2,note_on,68,26,0
2,note_on,68,0,478
2,note_on,62,24,80
2,note_on,62,0,240
2,note_on,58,24,0
2,note_on,58,0,240
2,note_on,51,29,0
2,note_on,51,0,141
2,note_on,67,26,0
2,note_on,67,0,155
2,note_on,63,24,0
2,note_on,63,0,240
2,note_on,55,24,0
2,note_on,55,0,240
2,note_on,46,29,0
2,note_on,46,0,147
2,note_on,56,26,0
2,note_on,56,0,120
2,note_on,52,24,0
2,note_on,52,0,240
2,note_on,53,24,0
2,note_on,53,0,240
2,note_on,46,29,0
2,note_on,46,0,66
2,note_on,55,26,0
2,note_on,55,0,106
2,note_on,58,24,0
2,note_on,58,0,240
2,note_on,55,24,0
2,note_on,55,0,240
2,note_on,46,29,0
2,note_on,46,0,184
2,note_on,56,26,0
2,note_on,56,0,155
2,note_on,52,24,0
2,note_on,52,0,240
2,note_on,53,24,0
2,note_on,53,0,240
2,note_on,39,27,0
2,note_on,51,32,0
2,note_on,51,0,560
2,note_on,39,0,0
2,note_on,34,25,240
2,note_on,46,30,0
2,note_on,46,0,366
2,note_on,34,0,0
2,note_on,41,27,0
2,note_on,53,33,0
2,note_on,53,0,583
2,note_on,41,0,0
2,note_on,34,25,240
2,note_on,46,30,0
2,note_on,46,0,354
2,note_on,34,0,0
2,note_on,39,25,0
2,note_on,51,30,0
2,note_on,51,0,583
2,note_on,39,0,0
2,note_on,34,25,240
2,note_on,46,30,0
2,note_on,46,0,389
2,note_on,34,0,0
2,note_on,41,25,0
2,note_on,53,30,0
2,note_on,53,0,583
2,note_on,41,0,0
2,note_on,34,25,240
2,note_on,46,30,0
2,note_on,46,0,343
2,note_on,34,0,0
2,note_on,39,25,0
2,note_on,51,30,0
2,note_on,51,0,583
2,note_on,39,0,0
2,note_on,34,23,240
2,note_on,46,28,0
2,note_on,46,0,343
2,note_on,34,0,0
2,note_on,39,23,0
2,note_on,51,27,0
2,note_on,51,0,583
2,note_on,39,0,0
2,note_on,34,19,240
2,note_on,46,24,0
2,note_on,46,0,331
2,note_on,34,0,0
2,note_on,39,20,0
2,note_on,51,25,0
2,note_on,51,0,1973
2,note_on,39,0,0
2,note_on,51,25,0
2,note_on,63,30,0
2,note_on,63,0,720
2,note_on,51,0,0
2,note_on,39,25,0
2,note_on,51,30,0
2,note_on,51,0,1440
2,note_on,39,0,0
