Track,Message Type,Note,Velocity,Time
1,note_on,75,52,1920
1,note_on,79,52,0
1,note_on,79,0,720
1,note_on,75,0,0
1,note_on,77,50,0
1,note_on,74,50,0
1,note_on,74,0,240
1,note_on,77,0,0
1,note_on,80,52,0
1,note_on,77,52,0
1,note_on,77,0,480
1,note_on,80,0,0
1,note_on,77,52,0
1,note_on,74,52,0
1,note_on,74,0,240
1,note_on,77,0,0
1,note_on,75,50,0
1,note_on,79,50,0
1,note_on,79,0,240
1,note_on,75,0,0
1,note_on,72,52,0
1,note_on,75,52,0
1,note_on,75,0,480
1,note_on,72,0,0
1,note_on,72,49,0
1,note_on,68,49,0
1,note_on,68,0,480
1,note_on,72,0,0
1,note_on,67,47,0
1,note_on,70,47,0
1,note_on,70,0,960
1,note_on,67,0,0
1,note_on,72,51,0
1,note_on,68,51,0
1,note_on,72,0,480
1,note_on,74,56,0
1,note_on,74,0,240
1,note_on,77,55,0
1,note_on,77,0,240
1,note_on,68,0,0
1,note_on,68,55,0
1,note_on,74,55,0
1,note_on,74,0,480
1,note_on,70,51,0
1,note_on,70,0,480
1,note_on,68,0,0
1,note_on,67,51,0
1,note_on,72,51,0
1,note_on,72,0,240
1,note_on,74,49,0
1,note_on,74,0,240
1,note_on,79,52,0
1,note_on,79,0,240
1,note_on,72,50,0
1,note_on,72,0,240
1,note_on,67,0,0
1,note_on,67,47,0
1,note_on,70,47,0
1,note_on,70,0,960
1,note_on,67,0,0
1,note_on,74,64,0
1,note_on,70,64,0
1,note_on,70,0,720
1,note_on,74,0,0
1,note_on,70,55,0
1,note_on,67,55,0
1,note_on,67,0,240
1,note_on,70,0,0
1,note_on,72,51,0
1,note_on,69,60,0
1,note_on,72,0,480
1,note_on,78,65,0
1,note_on,78,0,240
1,note_on,81,60,0
1,note_on,81,0,240
1,note_on,69,0,0
1,note_on,70,57,0
1,note_on,79,64,0
1,note_on,79,0,240
1,note_on,74,56,0
1,note_on,74,0,240
1,note_on,70,0,0
1,note_on,72,58,0
1,note_on,69,51,0
1,note_on,72,0,240
1,note_on,74,53,0
1,note_on,74,0,240
1,note_on,69,0,0
1,note_on,67,47,0
1,note_on,70,47,0
1,note_on,70,0,960
1,note_on,67,0,0
1,note_on,70,51,0
1,note_on,77,60,0
1,note_on,77,0,720
1,note_on,70,0,0
1,note_on,79,58,0
1,note_on,69,49,0
1,note_on,79,0,240
1,note_on,75,57,0
1,note_on,75,0,240
1,note_on,77,60,0
1,note_on,77,0,240
1,note_on,79,64,0
1,note_on,79,0,240
1,note_on,81,61,0
1,note_on,81,0,240
1,note_on,69,0,0
1,note_on,70,58,0
1,note_on,77,69,0
1,note_on,77,0,240
1,note_on,70,0,0
1,note_on,68,48,0
1,note_on,74,57,0
1,note_on,74,0,240
1,note_on,68,0,0
1,note_on,75,61,0
1,note_on,69,52,0
1,note_on,69,0,240
1,note_on,75,0,0
1,note_on,65,46,0
1,note_on,73,54,0
1,note_on,73,0,240
1,note_on,74,59,0
1,note_on,74,0,240
1,note_on,72,52,0
1,note_on,68,38,0
1,note_on,72,0,240
1,note_on,71,46,0
1,note_on,71,0,240
1,note_on,68,0,0
1,note_on,70,43,0
1,note_on,70,0,240
1,note_on,65,0,0
1,note_on,75,52,0
1,note_on,79,52,0
1,note_on,79,0,720
1,note_on,75,0,0
1,note_on,74,50,0
1,note_on,77,50,0
1,note_on,77,0,240
1,note_on,74,0,0
1,note_on,80,52,0
1,note_on,77,52,0
1,note_on,77,0,480
1,note_on,80,0,0
1,note_on,77,52,0
1,note_on,74,52,0
1,note_on,74,0,240
1,note_on,77,0,0
1,note_on,75,50,0
1,note_on,79,50,0
1,note_on,79,0,240
1,note_on,75,0,0
1,note_on,75,52,0
1,note_on,72,52,0
1,note_on,72,0,480
1,note_on,75,0,0
1,note_on,68,49,0
1,note_on,72,49,0
1,note_on,72,0,480
1,note_on,68,0,0
1,note_on,67,47,0
1,note_on,70,47,0
1,note_on,70,0,960
1,note_on,67,0,0
1,note_on,72,51,0
1,note_on,68,51,0
1,note_on,72,0,480
1,note_on,74,56,0
1,note_on,74,0,240
1,note_on,77,55,0
1,note_on,77,0,240
1,note_on,68,0,0
1,note_on,68,55,0
1,note_on,74,55,0
1,note_on,74,0,480
1,note_on,70,51,0
1,note_on,70,0,480
1,note_on,68,0,0
1,note_on,72,51,0
1,note_on,67,51,0
1,note_on,72,0,240
1,note_on,74,49,0
1,note_on,74,0,240
1,note_on,79,52,0
1,note_on,79,0,240
1,note_on,72,50,0
1,note_on,72,0,240
1,note_on,67,0,0
1,note_on,70,47,0
1,note_on,67,47,0
1,note_on,67,0,960
1,note_on,70,0,0
1,note_on,74,64,0
1,note_on,70,64,0
1,note_on,70,0,720
1,note_on,74,0,0
1,note_on,70,55,0
1,note_on,67,55,0
1,note_on,67,0,240
1,note_on,70,0,0
1,note_on,72,51,0
1,note_on,69,60,0
1,note_on,72,0,480
1,note_on,78,65,0
1,note_on,78,0,240
1,note_on,81,60,0
1,note_on,81,0,240
1,note_on,69,0,0
1,note_on,79,64,0
1,note_on,70,57,0
1,note_on,79,0,240
1,note_on,74,56,0
1,note_on,74,0,240
1,note_on,70,0,0
1,note_on,69,51,0
1,note_on,72,58,0
1,note_on,72,0,240
1,note_on,74,53,0
1,note_on,74,0,240
1,note_on,69,0,0
1,note_on,67,47,0
1,note_on,70,47,0
1,note_on,70,0,960
1,note_on,67,0,0
1,note_on,65,52,0
1,note_on,70,58,0
1,note_on,70,0,480
1,note_on,65,0,0
1,note_on,72,57,0
1,note_on,66,51,0
1,note_on,66,0,240
1,note_on,72,0,0
1,note_on,70,55,0
1,note_on,75,55,0
1,note_on,75,0,240
1,note_on,70,0,0
1,note_on,72,60,0
1,note_on,66,54,0
1,note_on,66,0,240
1,note_on,72,0,0
1,note_on,70,47,0
1,note_on,75,53,0
1,note_on,75,0,240
1,note_on,70,0,0
1,note_on,78,60,0
1,note_on,72,54,0
1,note_on,72,0,240
1,note_on,78,0,0
1,note_on,75,54,0
1,note_on,70,48,0
1,note_on,70,0,240
1,note_on,75,0,0
1,note_on,69,54,0
1,note_on,74,54,0
1,note_on,74,0,480
1,note_on,72,53,0
1,note_on,72,0,240
1,note_on,74,49,0
1,note_on,74,0,240
1,note_on,69,0,0
1,note_on,70,47,0
1,note_on,65,47,0
1,note_on,65,0,960
1,note_on,70,0,0
1,note_on,77,52,0
1,note_on,74,52,0
1,note_on,74,0,720
1,note_on,77,0,0
1,note_on,72,50,0
1,note_on,68,50,0
1,note_on,68,0,240
1,note_on,72,0,0
1,note_on,75,52,0
1,note_on,72,52,0
1,note_on,72,0,480
1,note_on,75,0,0
1,note_on,70,52,0
1,note_on,74,52,0
1,note_on,74,0,240
1,note_on,70,0,0
1,note_on,70,50,0
1,note_on,67,50,0
1,note_on,67,0,240
1,note_on,70,0,0
1,note_on,70,52,0
1,note_on,74,52,0
1,note_on,74,0,480
1,note_on,70,0,0
1,note_on,72,49,0
1,note_on,68,49,0
1,note_on,68,0,480
1,note_on,72,0,0
1,note_on,65,47,0
1,note_on,68,47,0
1,note_on,68,0,960
1,note_on,65,0,0
1,note_on,80,72,0
1,note_on,77,72,0
1,note_on,77,0,720
1,note_on,80,0,0
1,note_on,79,57,0
1,note_on,76,57,0
1,note_on,76,0,240
1,note_on,79,0,0
1,note_on,76,63,0
1,note_on,73,63,0
1,note_on,73,0,240
1,note_on,76,0,0
1,note_on,79,56,0
1,note_on,76,56,0
1,note_on,76,0,240
1,note_on,79,0,0
1,note_on,74,61,0
1,note_on,77,61,0
1,note_on,77,0,240
1,note_on,74,0,0
1,note_on,71,56,0
1,note_on,74,56,0
1,note_on,74,0,240
1,note_on,71,0,0
1,note_on,77,60,0
1,note_on,74,60,0
1,note_on,74,0,240
1,note_on,77,0,0
1,note_on,75,53,0
1,note_on,72,53,0
1,note_on,72,0,240
1,note_on,75,0,0
1,note_on,68,53,0
1,note_on,72,53,0
1,note_on,72,0,240
1,note_on,68,0,0
1,note_on,68,50,0
1,note_on,65,50,0
1,note_on,65,0,240
1,note_on,68,0,0
1,note_on,62,48,0
1,note_on,65,48,0
1,note_on,65,0,960
1,note_on,62,0,0
1,note_on,69,51,0
1,note_on,78,57,0
1,note_on,69,0,240
1,note_on,70,47,0
1,note_on,70,0,240
1,note_on,71,52,0
1,note_on,71,0,240
1,note_on,78,0,0
1,note_on,72,40,0
1,note_on,80,52,0
1,note_on,80,0,240
1,note_on,78,60,0
1,note_on,78,0,80
1,note_on,80,49,0
1,note_on,80,0,80
1,note_on,78,49,0
1,note_on,78,0,80
1,note_on,77,55,0
1,note_on,77,0,240
1,note_on,76,56,0
1,note_on,76,0,240
1,note_on,77,49,0
1,note_on,77,0,240
1,note_on,72,0,0
1,note_on,73,57,0
1,note_on,64,51,0
1,note_on,64,0,240
1,note_on,65,47,0
1,note_on,65,0,180
1,note_on,68,46,0
1,note_on,68,0,60
1,note_on,66,52,0
1,note_on,66,0,240
1,note_on,73,0,0
1,note_on,73,52,0
1,note_on,65,40,0
1,note_on,65,0,240
1,note_on,73,0,0
1,note_on,64,39,0
1,note_on,70,40,0
1,note_on,73,60,0
1,note_on,73,0,240
1,note_on,72,55,0
1,note_on,72,0,240
1,note_on,71,56,0
1,note_on,71,0,240
1,note_on,72,49,0
1,note_on,72,0,240
1,note_on,70,0,0
1,note_on,64,0,0
1,note_on,68,51,0
1,note_on,72,51,0
1,note_on,72,0,480
1,note_on,68,0,0
1,note_on,73,56,0
1,note_on,70,56,0
1,note_on,70,0,240
1,note_on,73,0,0
1,note_on,73,52,0
1,note_on,77,52,0
1,note_on,77,0,240
1,note_on,73,0,0
1,note_on,73,55,0
1,note_on,70,55,0
1,note_on,70,0,480
1,note_on,73,0,0
1,note_on,67,51,0
1,note_on,70,51,0
1,note_on,70,0,480
1,note_on,67,0,0
1,note_on,67,51,0
1,note_on,64,51,0
1,note_on,64,0,240
1,note_on,67,0,0
1,note_on,68,52,0
1,note_on,65,52,0
1,note_on,65,0,240
1,note_on,68,0,0
1,note_on,67,57,0
1,note_on,70,57,0
1,note_on,70,0,240
1,note_on,67,0,0
1,note_on,70,52,0
1,note_on,73,52,0
1,note_on,73,0,240
1,note_on,70,0,0
1,note_on,72,47,0
1,note_on,68,47,0
1,note_on,68,0,960
1,note_on,72,0,0
1,note_on,68,69,0
1,note_on,72,69,0
1,note_on,72,0,480
1,note_on,68,0,0
1,note_on,75,65,0
1,note_on,72,65,0
1,note_on,72,0,240
1,note_on,75,0,0
1,note_on,77,59,0
1,note_on,80,59,0
1,note_on,80,0,240
1,note_on,77,0,0
1,note_on,73,63,0
1,note_on,77,63,0
1,note_on,77,0,480
1,note_on,73,0,0
1,note_on,73,60,0
1,note_on,70,60,0
1,note_on,70,0,480
1,note_on,73,0,0
1,note_on,67,65,0
1,note_on,70,65,0
1,note_on,70,0,240
1,note_on,67,0,0
1,note_on,72,60,0
1,note_on,68,60,0
1,note_on,68,0,240
1,note_on,72,0,0
1,note_on,70,70,0
1,note_on,73,70,0
1,note_on,73,0,240
1,note_on,70,0,0
1,note_on,73,59,0
1,note_on,76,59,0
1,note_on,76,0,240
1,note_on,73,0,0
1,note_on,75,53,0
1,note_on,72,53,0
1,note_on,72,0,960
1,note_on,75,0,0
1,note_on,68,39,0
1,note_on,72,39,0
1,note_on,75,47,0
1,note_on,75,0,240
1,note_on,72,0,0
1,note_on,68,0,0
1,note_on,72,35,0
1,note_on,68,35,0
1,note_on,75,42,0
1,note_on,75,0,480
1,note_on,68,0,0
1,note_on,72,0,0
1,note_on,68,31,0
1,note_on,75,37,0
1,note_on,72,31,0
1,note_on,72,0,240
1,note_on,75,0,0
1,note_on,68,0,0
1,note_on,68,39,0
1,note_on,75,47,0
1,note_on,72,39,0
1,note_on,72,0,240
1,note_on,75,0,0
1,note_on,68,0,0
1,note_on,75,42,0
1,note_on,72,35,0
1,note_on,68,35,0
1,note_on,68,0,480
1,note_on,72,0,0
1,note_on,75,0,0
1,note_on,72,31,0
1,note_on,68,31,0
1,note_on,75,37,0
1,note_on,75,0,240
1,note_on,68,0,0
1,note_on,72,0,0
1,note_on,68,35,240
1,note_on,75,43,0
1,note_on,72,35,0
1,note_on,72,0,240
1,note_on,75,0,0
1,note_on,68,0,0
1,note_on,68,36,240
1,note_on,72,36,0
1,note_on,75,44,0
1,note_on,75,0,240
1,note_on,72,0,0
1,note_on,68,0,0
1,note_on,72,36,240
1,note_on,75,44,0
1,note_on,68,36,0
1,note_on,68,0,240
1,note_on,75,0,0
1,note_on,72,0,0
1,note_on,68,34,240
1,note_on,72,34,0
1,note_on,75,40,0
1,note_on,75,0,240
1,note_on,72,0,0
1,note_on,68,0,0
1,note_on,72,35,0
1,note_on,68,35,0
1,note_on,75,42,0
1,note_on,75,0,240
1,note_on,68,0,0
1,note_on,72,0,0
1,note_on,68,35,0
1,note_on,75,42,0
1,note_on,72,35,0
1,note_on,72,0,480
1,note_on,75,0,0
1,note_on,68,0,0
1,note_on,68,31,0
1,note_on,72,31,0
1,note_on,75,37,0
1,note_on,75,0,240
1,note_on,72,0,0
1,note_on,68,0,0
1,note_on,72,39,0
1,note_on,75,47,0
1,note_on,68,39,0
1,note_on,68,0,240
1,note_on,75,0,0
1,note_on,72,0,0
1,note_on,68,35,0
1,note_on,72,35,0
1,note_on,75,42,0
1,note_on,75,0,480
1,note_on,72,0,0
1,note_on,68,0,0
1,note_on,72,31,0
1,note_on,68,31,0
1,note_on,75,37,0
1,note_on,75,0,240
1,note_on,68,0,0
1,note_on,72,0,0
1,note_on,68,35,240
1,note_on,75,43,0
1,note_on,72,35,0
1,note_on,68,0,238
1,note_on,72,0,2
1,note_on,75,0,0
1,note_on,68,36,240
1,note_on,75,44,0
1,note_on,72,36,0
1,note_on,72,0,240
1,note_on,75,0,0
1,note_on,68,0,0
1,note_on,72,36,240
1,note_on,75,44,0
1,note_on,68,36,0
1,note_on,68,0,240
1,note_on,75,0,0
1,note_on,72,0,0
1,note_on,68,34,240
1,note_on,72,34,0
1,note_on,75,40,0
1,note_on,75,0,240
1,note_on,72,0,0
1,note_on,68,0,0
1,note_on,80,72,0
1,note_on,84,72,0
1,note_on,84,0,720
1,note_on,80,0,0
1,note_on,76,57,0
1,note_on,79,57,0
1,note_on,79,0,240
1,note_on,76,0,0
1,note_on,82,63,0
1,note_on,79,63,0
1,note_on,79,0,480
1,note_on,82,0,0
1,note_on,80,61,0
1,note_on,77,61,0
1,note_on,77,0,240
1,note_on,80,0,0
1,note_on,74,56,0
1,note_on,77,56,0
1,note_on,77,0,240
1,note_on,74,0,0
1,note_on,74,63,0
1,note_on,70,63,0
1,note_on,70,0,480
1,note_on,74,0,0
1,note_on,67,54,0
1,note_on,70,54,0
1,note_on,70,0,480
1,note_on,67,0,0
1,note_on,64,56,0
1,note_on,67,56,0
1,note_on,67,0,480
1,note_on,64,0,0
1,note_on,68,52,0
1,note_on,65,52,0
1,note_on,65,0,480
1,note_on,68,0,0
1,note_on,66,50,0
1,note_on,71,56,0
1,note_on,71,0,720
1,note_on,73,51,0
1,note_on,73,0,240
1,note_on,66,0,0
1,note_on,71,54,0
1,note_on,64,46,0
1,note_on,64,0,240
1,note_on,71,0,0
1,note_on,76,55,0
1,note_on,76,0,240
1,note_on,78,57,0
1,note_on,78,0,240
1,note_on,80,59,0
1,note_on,80,0,240
1,note_on,83,59,0
1,note_on,83,0,240
1,note_on,80,57,0
1,note_on,80,0,240
1,note_on,78,55,0
1,note_on,78,0,240
1,note_on,76,53,0
1,note_on,76,0,240
1,note_on,75,51,0
1,note_on,68,42,0
1,note_on,75,0,480
1,note_on,74,50,0
1,note_on,74,0,480
1,note_on,68,0,0
1,note_on,79,52,0
1,note_on,75,52,0
1,note_on,75,0,720
1,note_on,79,0,0
1,note_on,74,50,0
1,note_on,77,50,0
1,note_on,77,0,240
1,note_on,74,0,0
1,note_on,80,52,0
1,note_on,77,52,0
1,note_on,77,0,480
1,note_on,80,0,0
1,note_on,74,52,0
1,note_on,77,52,0
1,note_on,77,0,240
1,note_on,74,0,0
1,note_on,75,50,0
1,note_on,79,50,0
1,note_on,79,0,240
1,note_on,75,0,0
1,note_on,72,52,0
1,note_on,75,52,0
1,note_on,75,0,480
1,note_on,72,0,0
1,note_on,68,49,0
1,note_on,72,49,0
1,note_on,72,0,480
1,note_on,68,0,0
1,note_on,67,47,0
1,note_on,70,47,0
1,note_on,70,0,960
1,note_on,67,0,0
1,note_on,68,51,0
1,note_on,72,51,0
1,note_on,72,0,480
1,note_on,74,56,0
1,note_on,74,0,240
1,note_on,77,55,0
1,note_on,77,0,240
1,note_on,68,0,0
1,note_on,68,55,0
1,note_on,74,55,0
1,note_on,74,0,480
1,note_on,70,51,0
1,note_on,70,0,480
1,note_on,68,0,0
1,note_on,67,51,0
1,note_on,72,51,0
1,note_on,72,0,240
1,note_on,74,49,0
1,note_on,74,0,240
1,note_on,79,52,0
1,note_on,79,0,240
1,note_on,72,50,0
1,note_on,72,0,240
1,note_on,67,0,0
1,note_on,67,47,0
1,note_on,70,47,0
1,note_on,70,0,960
1,note_on,67,0,0
1,note_on,74,64,0
1,note_on,70,64,0
1,note_on,70,0,720
1,note_on,74,0,0
1,note_on,67,55,0
1,note_on,70,55,0
1,note_on,70,0,240
1,note_on,67,0,0
1,note_on,72,51,0
1,note_on,69,60,0
1,note_on,72,0,480
1,note_on,78,65,0
1,note_on,78,0,240
1,note_on,81,60,0
1,note_on,81,0,240
1,note_on,69,0,0
1,note_on,70,57,0
1,note_on,79,64,0
1,note_on,79,0,240
1,note_on,74,56,0
1,note_on,74,0,240
1,note_on,70,0,0
1,note_on,69,51,0
1,note_on,72,58,0
1,note_on,72,0,240
1,note_on,74,53,0
1,note_on,74,0,240
1,note_on,69,0,0
1,note_on,67,47,0
1,note_on,70,47,0
1,note_on,70,0,960
1,note_on,67,0,0
1,note_on,70,51,0
1,note_on,77,60,0
1,note_on,77,0,720
1,note_on,70,0,0
1,note_on,69,49,0
1,note_on,79,58,0
1,note_on,79,0,240
1,note_on,75,57,0
1,note_on,75,0,240
1,note_on,77,60,0
1,note_on,77,0,240
1,note_on,79,64,0
1,note_on,79,0,240
1,note_on,81,61,0
1,note_on,81,0,240
1,note_on,69,0,0
1,note_on,70,58,0
1,note_on,77,69,0
1,note_on,77,0,240
1,note_on,70,0,0
1,note_on,68,48,0
1,note_on,74,57,0
1,note_on,74,0,240
1,note_on,68,0,0
1,note_on,69,52,0
1,note_on,75,61,0
1,note_on,75,0,240
1,note_on,69,0,0
1,note_on,65,46,0
1,note_on,73,54,0
1,note_on,73,0,240
1,note_on,74,59,0
1,note_on,74,0,240
1,note_on,68,38,0
1,note_on,72,52,0
1,note_on,72,0,240
1,note_on,71,46,0
1,note_on,71,0,240
1,note_on,68,0,0
1,note_on,70,43,0
1,note_on,70,0,240
1,note_on,65,0,0
1,note_on,79,52,0
1,note_on,75,52,0
1,note_on,75,0,720
1,note_on,79,0,0
1,note_on,74,50,0
1,note_on,77,50,0
1,note_on,77,0,240
1,note_on,74,0,0
1,note_on,80,52,0
1,note_on,77,52,0
1,note_on,77,0,480
1,note_on,80,0,0
1,note_on,74,52,0
1,note_on,77,52,0
1,note_on,77,0,240
1,note_on,74,0,0
1,note_on,75,50,0
1,note_on,79,50,0
1,note_on,79,0,240
1,note_on,75,0,0
1,note_on,72,52,0
1,note_on,75,52,0
1,note_on,75,0,480
1,note_on,72,0,0
1,note_on,68,49,0
1,note_on,72,49,0
1,note_on,72,0,480
1,note_on,68,0,0
1,note_on,67,47,0
1,note_on,70,47,0
1,note_on,70,0,960
1,note_on,67,0,0
1,note_on,68,51,0
1,note_on,72,51,0
1,note_on,72,0,480
1,note_on,74,56,0
1,note_on,74,0,240
1,note_on,77,55,0
1,note_on,77,0,240
1,note_on,68,0,0
1,note_on,68,55,0
1,note_on,74,55,0
1,note_on,74,0,480
1,note_on,70,51,0
1,note_on,70,0,480
1,note_on,68,0,0
1,note_on,67,51,0
1,note_on,72,51,0
1,note_on,72,0,240
1,note_on,74,49,0
1,note_on,74,0,240
1,note_on,79,52,0
1,note_on,79,0,240
1,note_on,72,50,0
1,note_on,72,0,240
1,note_on,67,0,0
1,note_on,67,47,0
1,note_on,70,47,0
1,note_on,70,0,960
1,note_on,67,0,0
1,note_on,67,47,0
1,note_on,73,55,0
1,note_on,73,0,720
1,note_on,67,0,0
1,note_on,67,45,0
1,note_on,72,53,0
1,note_on,72,0,240
1,note_on,67,0,0
1,note_on,67,47,0
1,note_on,72,56,0
1,note_on,72,0,720
1,note_on,70,52,0
1,note_on,70,0,240
1,note_on,67,0,0
1,note_on,63,45,0
1,note_on,67,53,0
1,note_on,67,0,240
1,note_on,68,55,0
1,note_on,68,0,240
1,note_on,63,0,0
1,note_on,71,56,0
1,note_on,71,0,240
1,note_on,72,57,0
1,note_on,72,0,240
1,note_on,74,59,0
1,note_on,74,0,240
1,note_on,75,56,0
1,note_on,75,0,240
1,note_on,72,47,0
1,note_on,75,47,0
1,note_on,80,61,0
1,note_on,80,0,240
1,note_on,75,0,0
1,note_on,72,0,0
1,note_on,63,38,0
1,note_on,68,38,0
1,note_on,72,55,0
1,note_on,72,0,240
1,note_on,68,0,0
1,note_on,63,0,0
1,note_on,63,44,0
1,note_on,72,52,0
1,note_on,68,44,0
1,note_on,68,0,720
1,note_on,72,0,0
1,note_on,63,0,0
1,note_on,65,42,0
1,note_on,68,42,0
1,note_on,74,50,0
1,note_on,74,0,240
1,note_on,68,0,0
1,note_on,65,0,0
1,note_on,63,44,0
1,note_on,72,52,0
1,note_on,68,44,0
1,note_on,68,0,480
1,note_on,72,0,0
1,note_on,63,0,0
1,note_on,62,40,0
1,note_on,68,40,0
1,note_on,70,49,0
1,note_on,70,0,480
1,note_on,68,0,0
1,note_on,62,0,0
1,note_on,67,52,0
1,note_on,63,44,0
1,note_on,63,0,720
1,note_on,67,0,0
1,note_on,63,42,0
1,note_on,70,50,0
1,note_on,70,0,240
1,note_on,63,0,0
1,note_on,63,44,0
1,note_on,68,52,0
1,note_on,68,0,480
1,note_on,63,0,0
1,note_on,63,40,0
1,note_on,67,49,0
1,note_on,67,0,480
1,note_on,63,0,0
1,note_on,60,47,0
1,note_on,65,47,0
1,note_on,65,0,240
1,note_on,60,0,0
1,note_on,63,38,0
1,note_on,68,38,0
1,note_on,68,0,240
1,note_on,63,0,0
1,note_on,60,46,0
1,note_on,65,46,0
1,note_on,65,0,240
1,note_on,60,0,0
1,note_on,62,37,0
1,note_on,67,37,0
1,note_on,67,0,240
1,note_on,62,0,0
1,note_on,60,42,0
1,note_on,65,42,0
1,note_on,65,0,480
1,note_on,60,0,0
1,note_on,62,37,0
1,note_on,67,37,0
1,note_on,70,37,0
1,note_on,70,0,480
1,note_on,67,0,0
1,note_on,62,0,0
1,note_on,79,42,1920
1,note_on,75,42,0
1,note_on,75,0,720
1,note_on,79,0,0
1,note_on,74,38,0
1,note_on,77,38,0
1,note_on,77,0,240
1,note_on,74,0,0
1,note_on,80,39,0
1,note_on,77,39,0
1,note_on,77,0,480
1,note_on,80,0,0
1,note_on,74,38,0
1,note_on,77,38,0
1,note_on,77,0,240
1,note_on,74,0,0
1,note_on,75,35,0
1,note_on,79,35,0
1,note_on,79,0,240
1,note_on,75,0,0
1,note_on,72,35,0
1,note_on,75,35,0
1,note_on,75,0,480
1,note_on,72,0,0
1,note_on,68,31,0
1,note_on,72,31,0
1,note_on,72,0,480
1,note_on,68,0,0
1,note_on,67,29,0
1,note_on,70,29,0
1,note_on,70,0,960
1,note_on,67,0,0
1,note_on,54,25,0
1,note_on,57,25,0
1,note_on,63,29,0
1,note_on,63,0,1920
1,note_on,57,0,0
1,note_on,54,0,0
1,note_on,87,39,0
1,note_on,79,39,0
1,note_on,79,0,1440
1,note_on,87,0,0
1,note_on,89,34,0
1,note_on,89,0,80
1,note_on,91,33,0
1,note_on,91,0,80
1,note_on,89,33,0
1,note_on,89,0,80
1,note_on,87,32,0
1,note_on,87,0,80
1,note_on,84,31,0
1,note_on,84,0,80
1,note_on,82,31,0
1,note_on,82,0,80
1,note_on,79,35,0
1,note_on,79,0,960
1,note_on,71,34,0
1,note_on,77,34,0
1,note_on,75,34,0
1,note_on,75,0,960
1,note_on,77,0,0
1,note_on,71,0,0
1,note_on,99,37,0
1,note_on,94,31,0
1,note_on,91,31,0
1,note_on,87,31,0
1,note_on,87,0,1920
1,note_on,99,0,0
1,note_on,94,0,0
1,note_on,91,0,0
2,note_on,58,38,0
2,note_on,51,32,0
2,note_on,58,0,240
2,note_on,58,35,0
2,note_on,58,0,480
2,note_on,58,33,0
2,note_on,58,0,240
2,note_on,51,0,0
2,note_on,58,37,0
2,note_on,51,32,0
2,note_on,58,0,240
2,note_on,58,35,0
2,note_on,58,0,480
2,note_on,58,34,0
2,note_on,58,0,240
2,note_on,51,0,0
2,note_on,58,38,0
2,note_on,51,32,0
2,note_on,58,0,70
2,note_on,58,35,0
2,note_on,58,0,480
2,note_on,58,33,0
2,note_on,58,0,240
2,note_on,51,0,0
2,note_on,58,37,0
2,note_on,51,32,0
2,note_on,58,0,240
2,note_on,58,35,0
2,note_on,58,0,480
2,note_on,58,34,0
2,note_on,58,0,240
2,note_on,51,0,0
2,note_on,58,38,0
2,note_on,51,32,0
2,note_on,58,0,70
2,note_on,58,35,0
2,note_on,58,0,480
2,note_on,58,33,0
2,note_on,58,0,240
2,note_on,51,0,0
2,note_on,58,37,0
2,note_on,51,32,0
2,note_on,58,0,70
2,note_on,58,35,0
2,note_on,58,0,480
2,note_on,58,34,0
2,note_on,58,0,240
2,note_on,51,0,0
2,note_on,65,37,0
2,note_on,51,32,0
2,note_on,58,35,84
2,note_on,58,0,480
2,note_on,58,34,0
2,note_on,58,0,240
2,note_on,51,0,0
2,note_on,65,0,0
2,note_on,65,37,0
2,note_on,51,32,0
2,note_on,58,35,56
2,note_on,58,0,480
2,note_on,58,34,0
2,note_on,58,0,240
2,note_on,51,0,0
2,note_on,65,0,0
2,note_on,58,37,0
2,note_on,51,32,0
2,note_on,58,0,14
2,note_on,58,35,0
2,note_on,58,0,480
2,note_on,58,34,0
2,note_on,58,0,240
2,note_on,51,0,0
2,note_on,51,32,0
2,note_on,58,37,0
2,note_on,58,0,27
2,note_on,58,35,0
2,note_on,58,0,480
2,note_on,58,34,0
2,note_on,58,0,240
2,note_on,51,0,0
2,note_on,62,42,0
2,note_on,55,35,0
2,note_on,62,0,141
2,note_on,62,38,0
2,note_on,62,0,480
2,note_on,62,36,0
2,note_on,62,0,240
2,note_on,55,0,0
2,note_on,63,40,0
2,note_on,55,35,0
2,note_on,63,0,103
2,note_on,63,38,0
2,note_on,63,0,480
2,note_on,63,37,0
2,note_on,63,0,240
2,note_on,55,0,0
2,note_on,62,43,0
2,note_on,55,38,0
2,note_on,62,0,14
2,note_on,62,37,0
2,note_on,62,0,240
2,note_on,55,0,0
2,note_on,55,35,0
2,note_on,63,39,0
2,note_on,63,0,240
2,note_on,63,35,0
2,note_on,63,0,240
2,note_on,55,0,0
2,note_on,55,31,0
2,note_on,62,36,0
2,note_on,62,0,27
2,note_on,62,34,0
2,note_on,62,0,480
2,note_on,62,33,0
2,note_on,62,0,240
2,note_on,55,0,0
2,note_on,53,42,0
2,note_on,62,60,0
2,note_on,53,0,114
2,note_on,53,42,0
2,note_on,62,0,480
2,note_on,63,47,0
2,note_on,63,0,240
2,note_on,60,48,0
2,note_on,60,0,114
2,note_on,62,49,0
2,note_on,62,0,240
2,note_on,63,50,0
2,note_on,63,0,240
2,note_on,65,50,0
2,note_on,65,0,240
2,note_on,53,0,0
2,note_on,62,56,0
2,note_on,62,0,114
2,note_on,59,49,0
2,note_on,59,0,240
2,note_on,60,52,0
2,note_on,60,0,137
2,note_on,57,48,0
2,note_on,57,0,240
2,note_on,58,51,0
2,note_on,63,39,125
2,note_on,63,0,240
2,note_on,62,36,0
2,note_on,62,0,480
2,note_on,58,0,0
2,note_on,58,38,0
2,note_on,51,32,0
2,note_on,58,0,70
2,note_on,58,35,0
2,note_on,58,0,480
2,note_on,58,33,0
2,note_on,58,0,240
2,note_on,51,0,0
2,note_on,58,37,0
2,note_on,51,32,0
2,note_on,58,0,240
2,note_on,58,35,0
2,note_on,58,0,480
2,note_on,58,34,0
2,note_on,58,0,240
2,note_on,51,0,0
2,note_on,58,38,0
2,note_on,51,32,0
2,note_on,58,0,56
2,note_on,58,35,0
2,note_on,58,0,480
2,note_on,58,33,0
2,note_on,58,0,240
2,note_on,51,0,0
2,note_on,58,37,0
2,note_on,51,32,0
2,note_on,58,0,99
2,note_on,58,35,0
2,note_on,58,0,480
2,note_on,58,34,0
2,note_on,58,0,240
2,note_on,51,0,0
2,note_on,65,37,0
2,note_on,51,32,0
2,note_on,58,35,28
2,note_on,58,0,480
2,note_on,58,34,0
2,note_on,58,0,240
2,note_on,51,0,0
2,note_on,65,0,0
2,note_on,65,37,0
2,note_on,51,32,0
2,note_on,58,35,56
2,note_on,58,0,480
2,note_on,58,34,0
2,note_on,58,0,240
2,note_on,51,0,0
2,note_on,65,0,0
2,note_on,58,37,0
2,note_on,51,32,0
2,note_on,58,0,56
2,note_on,58,35,0
2,note_on,58,0,480
2,note_on,58,34,0
2,note_on,58,0,240
2,note_on,51,0,0
2,note_on,51,32,0
2,note_on,58,37,0
2,note_on,58,0,27
2,note_on,58,35,0
2,note_on,58,0,480
2,note_on,58,34,0
2,note_on,58,0,240
2,note_on,51,0,0
2,note_on,62,42,0
2,note_on,55,35,0
2,note_on,62,0,56
2,note_on,62,38,0
2,note_on,62,0,480
2,note_on,62,36,0
2,note_on,62,0,240
2,note_on,55,0,0
2,note_on,63,40,0
2,note_on,55,35,0
2,note_on,63,0,103
2,note_on,63,38,0
2,note_on,63,0,480
2,note_on,63,37,0
2,note_on,63,0,240
2,note_on,55,0,0
2,note_on,62,43,0
2,note_on,55,38,0
2,note_on,62,0,14
2,note_on,62,37,0
2,note_on,62,0,240
2,note_on,55,0,0
2,note_on,55,35,0
2,note_on,63,39,0
2,note_on,63,0,240
2,note_on,63,35,0
2,note_on,63,0,240
2,note_on,55,0,0
2,note_on,55,31,0
2,note_on,62,36,0
2,note_on,62,0,27
2,note_on,62,34,0
2,note_on,62,0,480
2,note_on,62,33,0
2,note_on,62,0,240
2,note_on,55,0,0
2,note_on,53,34,0
2,note_on,62,39,0
2,note_on,62,0,27
2,note_on,62,37,0
2,note_on,62,0,240
2,note_on,53,0,0
2,note_on,63,49,0
2,note_on,63,0,80
2,note_on,66,43,0
2,note_on,66,0,240
2,note_on,63,49,0
2,note_on,63,0,240
2,note_on,66,44,0
2,note_on,66,0,240
2,note_on,70,51,0
2,note_on,70,0,240
2,note_on,66,47,0
2,note_on,66,0,240
2,note_on,53,43,0
2,note_on,65,43,0
2,note_on,65,0,70
2,note_on,65,39,0
2,note_on,65,0,240
2,note_on,63,42,0
2,note_on,63,0,240
2,note_on,63,37,0
2,note_on,63,0,240
2,note_on,53,0,0
2,note_on,62,42,0
2,note_on,58,42,0
2,note_on,58,0,169
2,note_on,62,0,0
2,note_on,59,36,0
2,note_on,59,0,180
2,note_on,62,32,0
2,note_on,60,38,60
2,note_on,62,0,7
2,note_on,60,0,166
2,note_on,58,35,0
2,note_on,58,0,240
2,note_on,34,38,0
2,note_on,34,0,42
2,note_on,58,35,0
2,note_on,58,0,480
2,note_on,58,33,0
2,note_on,58,0,240
2,note_on,58,37,0
2,note_on,58,0,240
2,note_on,58,35,0
2,note_on,58,0,480
2,note_on,58,34,0
2,note_on,58,0,240
2,note_on,58,38,0
2,note_on,58,0,56
2,note_on,58,35,0
2,note_on,58,0,480
2,note_on,58,33,0
2,note_on,58,0,240
2,note_on,58,37,0
2,note_on,58,0,28
2,note_on,58,35,0
2,note_on,58,0,480
2,note_on,58,34,0
2,note_on,58,0,240
2,note_on,34,54,0
2,note_on,34,0,91
2,note_on,58,47,0
2,note_on,58,0,480
2,note_on,58,38,0
2,note_on,58,0,240
2,note_on,58,39,0
2,note_on,58,0,240
2,note_on,58,38,0
2,note_on,58,0,480
2,note_on,58,36,0
2,note_on,58,0,240
2,note_on,58,40,0
2,note_on,58,0,28
2,note_on,58,38,0
2,note_on,58,0,480
2,note_on,58,35,0
2,note_on,58,0,240
2,note_on,57,45,0
2,note_on,57,0,141
2,note_on,58,39,0
2,note_on,58,0,60
2,note_on,61,34,0
2,note_on,59,40,60
2,note_on,61,0,20
2,note_on,58,38,220
2,note_on,59,0,20
2,note_on,58,0,220
2,note_on,63,44,0
2,note_on,63,0,388
2,note_on,56,30,0
2,note_on,56,0,480
2,note_on,57,44,0
2,note_on,63,47,185
2,note_on,63,0,480
2,note_on,60,36,0
2,note_on,60,0,240
2,note_on,57,0,0
2,note_on,58,44,0
2,note_on,58,0,430
2,note_on,56,30,0
2,note_on,56,0,480
2,note_on,55,40,0
2,note_on,48,36,537
2,note_on,48,0,240
2,note_on,55,0,0
2,note_on,48,34,0
2,note_on,41,37,0
2,note_on,48,0,68
2,note_on,48,35,0
2,note_on,48,0,480
2,note_on,48,34,0
2,note_on,48,0,240
2,note_on,41,0,0
2,note_on,48,34,0
2,note_on,41,37,0
2,note_on,48,0,70
2,note_on,48,35,0
2,note_on,48,0,480
2,note_on,48,34,0
2,note_on,48,0,240
2,note_on,41,0,0
2,note_on,48,34,0
2,note_on,41,37,0
2,note_on,48,0,68
2,note_on,48,35,0
2,note_on,48,0,480
2,note_on,48,34,0
2,note_on,48,0,240
2,note_on,41,0,0
2,note_on,41,50,0
2,note_on,48,50,0
2,note_on,41,0,80
2,note_on,41,53,0
2,note_on,41,0,480
2,note_on,40,54,0
2,note_on,40,0,240
2,note_on,48,0,0
2,note_on,39,56,0
2,note_on,39,0,14
2,note_on,63,44,0
2,note_on,63,0,480
2,note_on,63,42,0
2,note_on,63,0,240
2,note_on,63,42,0
2,note_on,63,0,84
2,note_on,63,44,0
2,note_on,63,0,480
2,note_on,63,42,0
2,note_on,63,0,240
2,note_on,63,42,0
2,note_on,63,0,14
2,note_on,63,44,0
2,note_on,63,0,480
2,note_on,63,42,0
2,note_on,63,0,240
2,note_on,56,49,0
2,note_on,56,0,27
2,note_on,63,46,0
2,note_on,63,0,240
2,note_on,68,53,0
2,note_on,68,0,240
2,note_on,67,48,0
2,note_on,67,0,240
2,note_on,67,54,0
2,note_on,67,0,564
2,note_on,65,50,0
2,note_on,65,0,240
2,note_on,60,53,0
2,note_on,60,0,308
2,note_on,59,48,0
2,note_on,59,0,240
2,note_on,60,42,0
2,note_on,60,0,240
2,note_on,65,53,0
2,note_on,65,0,353
2,note_on,67,51,0
2,note_on,67,0,480
2,note_on,67,53,0
2,note_on,67,0,324
2,note_on,65,52,0
2,note_on,65,0,480
2,note_on,67,54,0
2,note_on,67,0,522
2,note_on,65,50,0
2,note_on,65,0,240
2,note_on,60,53,0
2,note_on,60,0,308
2,note_on,59,48,0
2,note_on,59,0,240
2,note_on,60,42,0
2,note_on,60,0,240
2,note_on,65,53,0
2,note_on,65,0,113
2,note_on,67,49,0
2,note_on,67,0,240
2,note_on,68,51,0
2,note_on,68,0,240
2,note_on,67,47,0
2,note_on,67,0,240
2,note_on,67,53,0
2,note_on,67,0,254
2,note_on,65,52,0
2,note_on,65,0,480
2,note_on,34,54,0
2,note_on,34,0,11
2,note_on,58,47,0
2,note_on,58,0,480
2,note_on,58,38,0
2,note_on,58,0,240
2,note_on,58,39,0
2,note_on,58,0,240
2,note_on,58,38,0
2,note_on,58,0,480
2,note_on,58,36,0
2,note_on,58,0,240
2,note_on,58,39,0
2,note_on,58,0,70
2,note_on,58,38,0
2,note_on,58,0,480
2,note_on,58,36,0
2,note_on,58,0,240
2,note_on,58,39,0
2,note_on,58,0,56
2,note_on,58,38,0
2,note_on,58,0,480
2,note_on,58,36,0
2,note_on,58,0,240
2,note_on,57,37,0
2,note_on,63,56,0
2,note_on,57,0,125
2,note_on,57,37,0
2,note_on,57,0,480
2,note_on,57,37,0
2,note_on,57,0,240
2,note_on,63,0,0
2,note_on,56,39,0
2,note_on,56,0,308
2,note_on,65,35,811
2,note_on,58,35,0
2,note_on,58,0,666
2,note_on,65,0,0
2,note_on,58,38,0
2,note_on,51,32,0
2,note_on,58,0,56
2,note_on,58,35,0
2,note_on,58,0,480
2,note_on,58,33,0
2,note_on,58,0,240
2,note_on,51,0,0
2,note_on,58,37,0
2,note_on,51,32,0
2,note_on,58,0,240
2,note_on,58,35,0
2,note_on,58,0,480
2,note_on,58,34,0
2,note_on,58,0,240
2,note_on,51,0,0
2,note_on,58,38,0
2,note_on,51,32,0
2,note_on,58,0,28
2,note_on,58,35,0
2,note_on,58,0,480
2,note_on,58,33,0
2,note_on,58,0,240
2,note_on,51,0,0
2,note_on,58,37,0
2,note_on,51,32,0
2,note_on,58,0,84
2,note_on,58,35,0
2,note_on,58,0,480
2,note_on,58,34,0
2,note_on,58,0,240
2,note_on,51,0,0
2,note_on,65,37,0
2,note_on,51,32,0
2,note_on,58,35,42
2,note_on,58,0,480
2,note_on,58,34,0
2,note_on,58,0,240
2,note_on,51,0,0
2,note_on,65,0,0
2,note_on,65,37,0
2,note_on,51,32,0
2,note_on,58,35,14
2,note_on,58,0,480
2,note_on,58,34,0
2,note_on,58,0,240
2,note_on,51,0,0
2,note_on,65,0,0
2,note_on,58,37,0
2,note_on,51,32,0
2,note_on,58,0,56
2,note_on,58,35,0
2,note_on,58,0,480
2,note_on,58,34,0
2,note_on,58,0,240
2,note_on,51,0,0
2,note_on,51,32,0
2,note_on,58,37,0
2,note_on,58,0,27
2,note_on,58,35,0
2,note_on,58,0,480
2,note_on,58,34,0
2,note_on,58,0,240
2,note_on,51,0,0
2,note_on,62,42,0
2,note_on,55,35,0
2,note_on,62,0,84
2,note_on,62,38,0
2,note_on,62,0,480
2,note_on,62,36,0
2,note_on,62,0,240
2,note_on,55,0,0
2,note_on,63,40,0
2,note_on,55,35,0
2,note_on,63,0,80
2,note_on,63,38,0
2,note_on,63,0,480
2,note_on,63,37,0
2,note_on,63,0,240
2,note_on,55,0,0
2,note_on,62,43,0
2,note_on,55,38,0
2,note_on,62,0,14
2,note_on,62,37,0
2,note_on,62,0,240
2,note_on,55,0,0
2,note_on,55,35,0
2,note_on,63,39,0
2,note_on,63,0,240
2,note_on,63,35,0
2,note_on,63,0,240
2,note_on,55,0,0
2,note_on,55,31,0
2,note_on,62,36,0
2,note_on,62,0,27
2,note_on,62,34,0
2,note_on,62,0,480
2,note_on,62,33,0
2,note_on,62,0,240
2,note_on,55,0,0
2,note_on,53,42,0
2,note_on,62,60,0
2,note_on,53,0,103
2,note_on,53,42,0
2,note_on,62,0,480
2,note_on,63,47,0
2,note_on,63,0,240
2,note_on,60,48,0
2,note_on,60,0,57
2,note_on,62,49,0
2,note_on,62,0,240
2,note_on,63,50,0
2,note_on,63,0,240
2,note_on,65,50,0
2,note_on,65,0,240
2,note_on,53,0,0
2,note_on,62,56,0
2,note_on,62,0,149
2,note_on,59,49,0
2,note_on,59,0,240
2,note_on,60,52,0
2,note_on,60,0,114
2,note_on,57,48,0
2,note_on,57,0,240
2,note_on,58,51,0
2,note_on,63,39,68
2,note_on,63,0,240
2,note_on,62,36,0
2,note_on,62,0,480
2,note_on,58,0,0
2,note_on,58,38,0
2,note_on,51,32,0
2,note_on,58,0,70
2,note_on,58,35,0
2,note_on,58,0,480
2,note_on,58,33,0
2,note_on,58,0,240
2,note_on,51,0,0
2,note_on,58,37,0
2,note_on,51,32,0
2,note_on,58,0,240
2,note_on,58,35,0
2,note_on,58,0,480
2,note_on,58,34,0
2,note_on,58,0,240
2,note_on,51,0,0
2,note_on,58,38,0
2,note_on,51,32,0
2,note_on,58,0,28
2,note_on,58,35,0
2,note_on,58,0,480
2,note_on,58,33,0
2,note_on,58,0,240
2,note_on,51,0,0
2,note_on,58,37,0
2,note_on,51,32,0
2,note_on,58,0,84
2,note_on,58,35,0
2,note_on,58,0,480
2,note_on,58,34,0
2,note_on,58,0,240
2,note_on,51,0,0
2,note_on,65,37,0
2,note_on,51,32,0
2,note_on,58,35,14
2,note_on,58,0,480
2,note_on,58,34,0
2,note_on,58,0,240
2,note_on,51,0,0
2,note_on,65,0,0
2,note_on,65,37,0
2,note_on,51,32,0
2,note_on,58,35,84
2,note_on,58,0,480
2,note_on,58,34,0
2,note_on,58,0,240
2,note_on,51,0,0
2,note_on,65,0,0
2,note_on,58,37,0
2,note_on,51,32,0
2,note_on,58,0,70
2,note_on,58,35,0
2,note_on,58,0,480
2,note_on,58,34,0
2,note_on,58,0,240
2,note_on,51,0,0
2,note_on,51,32,0
2,note_on,58,37,0
2,note_on,58,0,84
2,note_on,58,35,0
2,note_on,58,0,480
2,note_on,58,34,0
2,note_on,58,0,240
2,note_on,51,0,0
2,note_on,65,52,0
2,note_on,65,0,99
2,note_on,51,47,0
2,note_on,51,0,480
2,note_on,63,40,0
2,note_on,63,0,240
2,note_on,63,49,0
2,note_on,63,0,113
2,note_on,62,42,0
2,note_on,62,0,240
2,note_on,61,39,0
2,note_on,61,0,480
2,note_on,59,49,0
2,note_on,59,0,68
2,note_on,60,46,0
2,note_on,60,0,240
2,note_on,55,52,0
2,note_on,55,0,240
2,note_on,56,47,0
2,note_on,56,0,240
2,note_on,59,51,0
2,note_on,59,0,103
2,note_on,60,48,0
2,note_on,60,0,240
2,note_on,53,45,0
2,note_on,53,0,480
2,note_on,46,44,0
2,note_on,46,0,99
2,note_on,58,36,0
2,note_on,58,0,480
2,note_on,58,36,0
2,note_on,58,0,480
2,note_on,58,35,0
2,note_on,58,0,480
2,note_on,58,34,0
2,note_on,58,0,240
2,note_on,46,44,0
2,note_on,46,0,99
2,note_on,58,48,0
2,note_on,58,0,480
2,note_on,62,36,0
2,note_on,62,0,480
2,note_on,60,35,0
2,note_on,60,0,480
2,note_on,58,34,0
2,note_on,58,0,240
2,note_on,46,33,0
2,note_on,56,33,0
2,note_on,56,0,70
2,note_on,46,0,0
2,note_on,60,30,0
2,note_on,60,0,240
2,note_on,56,32,0
2,note_on,56,0,240
2,note_on,58,30,0
2,note_on,58,0,240
2,note_on,56,31,0
2,note_on,56,0,266
2,note_on,46,28,0
2,note_on,56,28,0
2,note_on,56,0,480
2,note_on,46,0,0
2,note_on,46,32,0
2,note_on,39,28,0
2,note_on,46,0,28
2,note_on,46,30,0
2,note_on,46,0,480
2,note_on,46,28,0
2,note_on,46,0,240
2,note_on,39,0,0
2,note_on,46,30,0
2,note_on,39,27,0
2,note_on,46,0,240
2,note_on,46,28,0
2,note_on,46,0,480
2,note_on,46,27,0
2,note_on,46,0,240
2,note_on,39,0,0
2,note_on,46,29,0
2,note_on,39,25,0
2,note_on,46,0,56
2,note_on,46,27,0
2,note_on,46,0,480
2,note_on,46,26,0
2,note_on,46,0,240
2,note_on,39,0,0
2,note_on,46,28,0
2,note_on,39,23,0
2,note_on,46,0,240
2,note_on,46,26,0
2,note_on,46,0,480
2,note_on,46,25,0
2,note_on,46,0,240
2,note_on,39,0,0
2,note_on,46,26,0
2,note_on,39,21,0
2,note_on,46,0,84
2,note_on,46,25,0
2,note_on,46,0,480
2,note_on,46,21,0
2,note_on,46,0,240
2,note_on,39,0,0
2,note_on,46,25,0
2,note_on,39,19,0
2,note_on,46,0,70
2,note_on,46,21,0
2,note_on,46,0,480
2,note_on,46,19,0
2,note_on,46,0,240
2,note_on,39,0,0
2,note_on,47,23,0
2,note_on,39,18,0
2,note_on,47,0,57
2,note_on,47,19,0
2,note_on,47,0,480
2,note_on,47,17,0
2,note_on,47,0,240
2,note_on,39,0,0
2,note_on,47,19,0
2,note_on,39,16,0
2,note_on,47,0,240
2,note_on,47,17,0
2,note_on,47,0,480
2,note_on,47,15,0
2,note_on,47,0,240
2,note_on,39,0,0
2,note_on,39,33,0
2,note_on,39,0,169
2,note_on,46,29,0
2,note_on,46,0,240
2,note_on,51,34,0
2,note_on,51,0,240
2,note_on,55,31,0
2,note_on,55,0,240
2,note_on,58,36,0
2,note_on,58,0,960
2,note_on,63,30,693
2,note_on,56,30,0
2,note_on,56,0,960
2,note_on,63,0,0
2,note_on,27,19,0
2,note_on,39,23,0
2,note_on,39,0,1493
2,note_on,27,0,0
