Track,Message Type,Note,Velocity,Time
1,note_on,69,46,0
1,note_on,77,56,0
1,note_on,77,0,240
1,note_on,69,0,0
1,note_on,69,46,0
1,note_on,76,50,0
1,note_on,76,0,80
1,note_on,77,47,0
1,note_on,77,0,80
1,note_on,76,47,0
1,note_on,76,0,80
1,note_on,69,0,0
1,note_on,74,50,0
1,note_on,69,33,0
1,note_on,74,0,120
1,note_on,76,47,0
1,note_on,76,0,120
1,note_on,69,0,0
1,note_on,69,34,0
1,note_on,77,53,0
1,note_on,77,0,120
1,note_on,74,49,0
1,note_on,74,0,120
1,note_on,69,0,0
1,note_on,69,43,0
1,note_on,76,51,0
1,note_on,76,0,90
1,note_on,69,0,0
1,note_on,69,38,150
1,note_on,72,44,0
1,note_on,72,0,90
1,note_on,69,0,0
1,note_on,77,56,150
1,note_on,69,46,0
1,note_on,69,0,240
1,note_on,77,0,0
1,note_on,69,46,0
1,note_on,76,50,0
1,note_on,76,0,80
1,note_on,77,47,0
1,note_on,77,0,80
1,note_on,76,47,0
1,note_on,76,0,80
1,note_on,69,0,0
1,note_on,69,32,0
1,note_on,74,50,0
1,note_on,74,0,120
1,note_on,76,47,0
1,note_on,76,0,120
1,note_on,69,0,0
1,note_on,77,53,0
1,note_on,69,33,0
1,note_on,77,0,120
1,note_on,74,49,0
1,note_on,74,0,120
1,note_on,69,0,0
1,note_on,69,43,0
1,note_on,76,51,0
1,note_on,76,0,90
1,note_on,69,0,0
1,note_on,72,44,150
1,note_on,69,38,0
1,note_on,69,0,90
1,note_on,72,0,0
1,note_on,69,43,150
1,note_on,74,58,0
1,note_on,74,0,120
1,note_on,76,52,0
1,note_on,76,0,120
1,note_on,69,0,0
1,note_on,72,54,0
1,note_on,69,38,0
1,note_on,69,0,210
1,note_on,72,0,0
1,note_on,69,43,30
1,note_on,74,58,0
1,note_on,74,0,120
1,note_on,76,60,0
1,note_on,76,0,120
1,note_on,69,0,0
1,note_on,77,64,0
1,note_on,69,45,0
1,note_on,69,0,210
1,note_on,77,0,0
1,note_on,69,43,30
1,note_on,74,58,0
1,note_on,74,0,120
1,note_on,76,52,0
1,note_on,76,0,120
1,note_on,69,0,0
1,note_on,72,48,0
1,note_on,69,34,0
1,note_on,69,0,210
1,note_on,72,0,0
1,note_on,69,41,30
1,note_on,74,56,0
1,note_on,74,0,120
1,note_on,76,51,0
1,note_on,76,0,120
1,note_on,69,0,0
1,note_on,72,47,0
1,note_on,69,32,0
1,note_on,69,0,210
1,note_on,72,0,0
1,note_on,69,46,30
1,note_on,74,52,0
1,note_on,74,0,120
1,note_on,76,54,0
1,note_on,76,0,120
1,note_on,69,0,0
1,note_on,79,57,0
1,note_on,69,43,0
1,note_on,79,0,120
1,note_on,77,51,0
1,note_on,77,0,120
1,note_on,69,0,0
1,note_on,69,43,0
1,note_on,74,55,0
1,note_on,74,0,120
1,note_on,76,54,0
1,note_on,76,0,120
1,note_on,69,0,0
1,note_on,72,49,0
1,note_on,69,40,0
1,note_on,69,0,240
1,note_on,72,0,0
1,note_on,73,43,0
1,note_on,81,52,0
1,note_on,81,0,240
1,note_on,73,0,0
1,note_on,80,47,0
1,note_on,73,43,0
1,note_on,80,0,80
1,note_on,81,44,0
1,note_on,81,0,80
1,note_on,80,44,0
1,note_on,80,0,80
1,note_on,73,0,0
1,note_on,73,37,0
1,note_on,78,47,0
1,note_on,78,0,120
1,note_on,80,44,0
1,note_on,80,0,120
1,note_on,73,0,0
1,note_on,73,36,0
1,note_on,81,49,0
1,note_on,81,0,120
1,note_on,78,46,0
1,note_on,78,0,120
1,note_on,73,0,0
1,note_on,80,47,0
1,note_on,73,39,0
1,note_on,73,0,90
1,note_on,80,0,0
1,note_on,73,39,150
1,note_on,76,46,0
1,note_on,76,0,90
1,note_on,73,0,0
1,note_on,73,43,150
1,note_on,81,52,0
1,note_on,81,0,240
1,note_on,73,0,0
1,note_on,73,43,0
1,note_on,80,47,0
1,note_on,80,0,80
1,note_on,81,44,0
1,note_on,81,0,80
1,note_on,80,44,0
1,note_on,80,0,80
1,note_on,73,0,0
1,note_on,73,37,0
1,note_on,78,47,0
1,note_on,78,0,120
1,note_on,80,44,0
1,note_on,80,0,120
1,note_on,73,0,0
1,note_on,73,36,0
1,note_on,81,49,0
1,note_on,81,0,120
1,note_on,78,46,0
1,note_on,78,0,120
1,note_on,73,0,0
1,note_on,80,47,0
1,note_on,73,39,0
1,note_on,73,0,90
1,note_on,80,0,0
1,note_on,73,39,150
1,note_on,76,46,0
1,note_on,76,0,90
1,note_on,73,0,0
1,note_on,73,45,150
1,note_on,78,54,0
1,note_on,78,0,120
1,note_on,80,48,0
1,note_on,80,0,120
1,note_on,73,0,0
1,note_on,73,40,0
1,note_on,76,50,0
1,note_on,76,0,210
1,note_on,73,0,0
1,note_on,73,45,30
1,note_on,78,54,0
1,note_on,78,0,120
1,note_on,80,56,0
1,note_on,80,0,120
1,note_on,73,0,0
1,note_on,73,47,0
1,note_on,81,59,0
1,note_on,81,0,210
1,note_on,73,0,0
1,note_on,73,45,30
1,note_on,78,54,0
1,note_on,78,0,120
1,note_on,80,48,0
1,note_on,80,0,120
1,note_on,73,0,0
1,note_on,73,36,0
1,note_on,76,45,0
1,note_on,76,0,210
1,note_on,73,0,0
1,note_on,73,43,30
1,note_on,78,52,0
1,note_on,78,0,120
1,note_on,80,47,0
1,note_on,80,0,120
1,note_on,73,0,0
1,note_on,73,34,0
1,note_on,76,44,0
1,note_on,76,0,210
1,note_on,73,0,0
1,note_on,73,48,30
1,note_on,78,48,0
1,note_on,78,0,120
1,note_on,80,50,0
1,note_on,80,0,120
1,note_on,73,0,0
1,note_on,73,45,0
1,note_on,83,53,0
1,note_on,83,0,120
1,note_on,81,47,0
1,note_on,81,0,120
1,note_on,73,0,0
1,note_on,78,51,0
1,note_on,73,45,0
1,note_on,78,0,120
1,note_on,80,50,0
1,note_on,80,0,120
1,note_on,73,0,0
1,note_on,73,42,0
1,note_on,76,46,0
1,note_on,76,0,240
1,note_on,73,0,0
1,note_on,84,84,0
1,note_on,76,56,0
1,note_on,76,0,240
1,note_on,84,0,0
1,note_on,76,56,0
1,note_on,83,76,0
1,note_on,83,0,80
1,note_on,84,66,0
1,note_on,84,0,80
1,note_on,83,66,0
1,note_on,83,0,80
1,note_on,76,0,0
1,note_on,81,72,0
1,note_on,76,41,0
1,note_on,81,0,120
1,note_on,83,66,0
1,note_on,83,0,120
1,note_on,76,0,0
1,note_on,77,42,0
1,note_on,84,76,0
1,note_on,84,0,120
1,note_on,81,67,0
1,note_on,81,0,120
1,note_on,77,0,0
1,note_on,77,51,0
1,note_on,83,77,0
1,note_on,83,0,90
1,note_on,77,0,0
1,note_on,77,51,150
1,note_on,79,73,0
1,note_on,79,0,90
1,note_on,77,0,0
1,note_on,84,84,150
1,note_on,76,56,0
1,note_on,76,0,240
1,note_on,84,0,0
1,note_on,76,56,0
1,note_on,83,76,0
1,note_on,83,0,80
1,note_on,84,67,0
1,note_on,84,0,80
1,note_on,83,67,0
1,note_on,83,0,80
1,note_on,76,0,0
1,note_on,76,41,0
1,note_on,81,73,0
1,note_on,81,0,120
1,note_on,83,68,0
1,note_on,83,0,120
1,note_on,76,0,0
1,note_on,84,77,0
1,note_on,77,40,0
1,note_on,84,0,120
1,note_on,81,67,0
1,note_on,81,0,120
1,note_on,77,0,0
1,note_on,77,51,0
1,note_on,83,77,0
1,note_on,83,0,90
1,note_on,77,0,0
1,note_on,79,73,150
1,note_on,77,51,0
1,note_on,77,0,90
1,note_on,79,0,0
1,note_on,60,54,150
1,note_on,64,61,0
1,note_on,64,0,120
1,note_on,60,0,0
1,note_on,62,51,0
1,note_on,65,57,0
1,note_on,65,0,120
1,note_on,62,0,0
1,note_on,64,55,0
1,note_on,67,62,0
1,note_on,67,0,240
1,note_on,64,0,0
1,note_on,64,51,0
1,note_on,67,57,0
1,note_on,67,0,120
1,note_on,64,0,0
1,note_on,62,51,0
1,note_on,65,57,0
1,note_on,65,0,120
1,note_on,62,0,0
1,note_on,64,54,0
1,note_on,60,48,0
1,note_on,60,0,120
1,note_on,64,0,0
1,note_on,62,48,0
1,note_on,65,54,0
1,note_on,65,0,120
1,note_on,62,0,0
1,note_on,67,55,0
1,note_on,64,49,0
1,note_on,64,0,120
1,note_on,67,0,0
1,note_on,65,51,0
1,note_on,68,57,0
1,note_on,68,0,120
1,note_on,65,0,0
1,note_on,67,52,0
1,note_on,70,58,0
1,note_on,70,0,120
1,note_on,67,0,0
1,note_on,72,60,0
1,note_on,68,54,0
1,note_on,68,0,120
1,note_on,72,0,0
1,note_on,67,53,0
1,note_on,70,59,0
1,note_on,70,0,120
1,note_on,67,0,0
1,note_on,73,62,0
1,note_on,70,55,0
1,note_on,70,0,120
1,note_on,73,0,0
1,note_on,68,55,0
1,note_on,72,62,0
1,note_on,72,0,120
1,note_on,68,0,0
1,note_on,65,51,0
1,note_on,68,57,0
1,note_on,68,0,120
1,note_on,65,0,0
1,note_on,70,60,0
1,note_on,67,54,0
1,note_on,67,0,120
1,note_on,70,0,0
1,note_on,64,51,0
1,note_on,67,57,0
1,note_on,67,0,120
1,note_on,64,0,0
1,note_on,65,57,0
1,note_on,60,51,0
1,note_on,60,0,120
1,note_on,65,0,0
1,note_on,61,45,0
1,note_on,67,51,0
1,note_on,67,0,120
1,note_on,61,0,0
1,note_on,58,49,0
1,note_on,64,55,0
1,note_on,64,0,120
1,note_on,58,0,0
1,note_on,65,50,0
1,note_on,60,45,0
1,note_on,60,0,120
1,note_on,65,0,0
1,note_on,56,47,0
1,note_on,61,53,0
1,note_on,61,0,120
1,note_on,56,0,0
1,note_on,63,50,0
1,note_on,58,45,0
1,note_on,58,0,120
1,note_on,63,0,0
1,note_on,76,56,0
1,note_on,84,84,0
1,note_on,84,0,240
1,note_on,76,0,0
1,note_on,76,56,0
1,note_on,83,76,0
1,note_on,83,0,80
1,note_on,84,66,0
1,note_on,84,0,80
1,note_on,83,66,0
1,note_on,83,0,80
1,note_on,76,0,0
1,note_on,76,42,0
1,note_on,81,73,0
1,note_on,81,0,120
1,note_on,83,69,0
1,note_on,83,0,120
1,note_on,76,0,0
1,note_on,84,75,0
1,note_on,77,41,0
1,note_on,84,0,120
1,note_on,81,66,0
1,note_on,81,0,120
1,note_on,77,0,0
1,note_on,77,51,0
1,note_on,83,77,0
1,note_on,83,0,90
1,note_on,77,0,0
1,note_on,79,73,150
1,note_on,77,51,0
1,note_on,77,0,90
1,note_on,79,0,0
1,note_on,76,56,150
1,note_on,84,84,0
1,note_on,84,0,240
1,note_on,76,0,0
1,note_on,83,76,0
1,note_on,76,56,0
1,note_on,83,0,80
1,note_on,84,67,0
1,note_on,84,0,80
1,note_on,83,67,0
1,note_on,83,0,80
1,note_on,76,0,0
1,note_on,76,39,0
1,note_on,81,72,0
1,note_on,81,0,120
1,note_on,83,68,0
1,note_on,83,0,120
1,note_on,76,0,0
1,note_on,77,41,0
1,note_on,84,75,0
1,note_on,84,0,120
1,note_on,81,65,0
1,note_on,81,0,120
1,note_on,77,0,0
1,note_on,83,77,0
1,note_on,77,51,0
1,note_on,77,0,90
1,note_on,83,0,0
1,note_on,77,51,150
1,note_on,79,73,0
1,note_on,79,0,90
1,note_on,77,0,0
1,note_on,72,48,150
1,note_on,76,54,0
1,note_on,76,0,120
1,note_on,72,0,0
1,note_on,77,51,0
1,note_on,74,45,0
1,note_on,74,0,120
1,note_on,77,0,0
1,note_on,76,49,0
1,note_on,79,55,0
1,note_on,79,0,240
1,note_on,76,0,0
1,note_on,79,51,0
1,note_on,76,45,0
1,note_on,76,0,120
1,note_on,79,0,0
1,note_on,77,51,0
1,note_on,74,45,0
1,note_on,74,0,120
1,note_on,77,0,0
1,note_on,72,43,0
1,note_on,76,48,0
1,note_on,76,0,120
1,note_on,72,0,0
1,note_on,77,48,0
1,note_on,74,43,0
1,note_on,74,0,120
1,note_on,77,0,0
1,note_on,76,44,0
1,note_on,79,49,0
1,note_on,79,0,120
1,note_on,76,0,0
1,note_on,77,45,0
1,note_on,80,51,0
1,note_on,80,0,120
1,note_on,77,0,0
1,note_on,82,52,0
1,note_on,79,46,0
1,note_on,79,0,120
1,note_on,82,0,0
1,note_on,80,48,0
1,note_on,84,53,0
1,note_on,84,0,120
1,note_on,80,0,0
1,note_on,82,52,0
1,note_on,79,47,0
1,note_on,79,0,120
1,note_on,82,0,0
1,note_on,82,49,0
1,note_on,85,55,0
1,note_on,85,0,120
1,note_on,82,0,0
1,note_on,80,49,0
1,note_on,84,55,0
1,note_on,84,0,120
1,note_on,80,0,0
1,note_on,80,51,0
1,note_on,77,45,0
1,note_on,77,0,120
1,note_on,80,0,0
1,note_on,79,48,0
1,note_on,82,53,0
1,note_on,82,0,120
1,note_on,79,0,0
1,note_on,79,51,0
1,note_on,76,45,0
1,note_on,76,0,120
1,note_on,79,0,0
1,note_on,72,45,0
1,note_on,77,51,0
1,note_on,77,0,120
1,note_on,72,0,0
1,note_on,73,40,0
1,note_on,79,45,0
1,note_on,79,0,120
1,note_on,73,0,0
1,note_on,76,49,0
1,note_on,70,44,0
1,note_on,70,0,120
1,note_on,76,0,0
1,note_on,72,40,0
1,note_on,77,44,0
1,note_on,77,0,120
1,note_on,72,0,0
1,note_on,73,47,0
1,note_on,68,42,0
1,note_on,68,0,120
1,note_on,73,0,0
1,note_on,70,40,0
1,note_on,75,44,0
1,note_on,75,0,120
1,note_on,70,0,0
1,note_on,64,45,0
1,note_on,72,67,0
1,note_on,72,0,240
1,note_on,64,0,0
1,note_on,71,60,0
1,note_on,64,45,0
1,note_on,71,0,80
1,note_on,72,54,0
1,note_on,72,0,80
1,note_on,71,54,0
1,note_on,71,0,80
1,note_on,64,0,0
1,note_on,69,60,0
1,note_on,64,33,0
1,note_on,69,0,120
1,note_on,71,56,0
1,note_on,71,0,120
1,note_on,64,0,0
1,note_on,65,33,0
1,note_on,72,59,0
1,note_on,72,0,120
1,note_on,69,58,0
1,note_on,69,0,120
1,note_on,65,0,0
1,note_on,71,61,0
1,note_on,65,41,0
1,note_on,65,0,90
1,note_on,71,0,0
1,note_on,65,41,150
1,note_on,67,58,0
1,note_on,67,0,90
1,note_on,65,0,0
1,note_on,72,67,150
1,note_on,64,45,0
1,note_on,64,0,240
1,note_on,72,0,0
1,note_on,64,45,0
1,note_on,71,60,0
1,note_on,71,0,80
1,note_on,72,56,0
1,note_on,72,0,80
1,note_on,71,52,0
1,note_on,71,0,80
1,note_on,64,0,0
1,note_on,69,60,0
1,note_on,64,30,0
1,note_on,69,0,120
1,note_on,71,56,0
1,note_on,71,0,120
1,note_on,64,0,0
1,note_on,65,32,0
1,note_on,72,59,0
1,note_on,72,0,120
1,note_on,69,58,0
1,note_on,69,0,120
1,note_on,65,0,0
1,note_on,65,41,0
1,note_on,71,61,0
1,note_on,71,0,90
1,note_on,65,0,0
1,note_on,65,41,150
1,note_on,67,58,0
1,note_on,67,0,90
1,note_on,65,0,0
1,note_on,72,67,150
1,note_on,67,45,0
1,note_on,67,0,90
1,note_on,72,0,0
1,note_on,67,43,150
1,note_on,70,45,0
1,note_on,74,60,0
1,note_on,74,0,80
1,note_on,76,53,0
1,note_on,76,0,80
1,note_on,74,53,0
1,note_on,74,0,80
1,note_on,70,0,0
1,note_on,67,0,0
1,note_on,67,57,0
1,note_on,72,57,0
1,note_on,72,0,90
1,note_on,67,0,0
1,note_on,86,66,150
1,note_on,82,49,0
1,note_on,79,47,0
1,note_on,86,0,80
1,note_on,88,58,0
1,note_on,88,0,80
1,note_on,86,58,0
1,note_on,86,0,80
1,note_on,79,0,0
1,note_on,82,0,0
1,note_on,79,62,0
1,note_on,84,62,0
1,note_on,84,0,90
1,note_on,79,0,0
1,note_on,98,66,150
1,note_on,91,47,0
1,note_on,94,49,0
1,note_on,98,0,80
1,note_on,100,58,0
1,note_on,100,0,80
1,note_on,98,58,0
1,note_on,98,0,80
1,note_on,94,0,0
1,note_on,91,0,0
1,note_on,96,65,0
1,note_on,91,65,0
1,note_on,91,0,90
1,note_on,96,0,0
1,note_on,79,53,150
1,note_on,82,55,0
1,note_on,86,75,0
1,note_on,86,0,80
1,note_on,88,66,0
1,note_on,88,0,80
1,note_on,86,66,0
1,note_on,86,0,80
1,note_on,82,0,0
1,note_on,79,0,0
1,note_on,79,71,0
1,note_on,84,71,0
1,note_on,84,0,90
1,note_on,79,0,0
1,note_on,67,60,150
1,note_on,74,85,0
1,note_on,70,62,0
1,note_on,74,0,80
1,note_on,76,73,0
1,note_on,76,0,80
1,note_on,74,69,0
1,note_on,74,0,80
1,note_on,70,0,0
1,note_on,67,0,0
1,note_on,67,81,0
1,note_on,72,81,0
1,note_on,72,0,90
1,note_on,67,0,0
1,note_on,76,88,150
1,note_on,82,88,0
1,note_on,84,88,0
1,note_on,72,88,0
1,note_on,72,0,240
1,note_on,76,0,0
1,note_on,82,0,0
1,note_on,84,0,0
1,note_on,77,87,0
1,note_on,69,71,0
1,note_on,69,0,240
1,note_on,77,0,0
1,note_on,69,71,0
1,note_on,76,78,0
1,note_on,76,0,80
1,note_on,77,69,0
1,note_on,77,0,80
1,note_on,76,69,0
1,note_on,76,0,80
1,note_on,69,0,0
1,note_on,74,74,0
1,note_on,69,54,0
1,note_on,74,0,120
1,note_on,76,71,0
1,note_on,76,0,120
1,note_on,69,0,0
1,note_on,69,55,0
1,note_on,77,76,0
1,note_on,77,0,120
1,note_on,74,72,0
1,note_on,74,0,120
1,note_on,69,0,0
1,note_on,69,67,0
1,note_on,76,79,0
1,note_on,76,0,90
1,note_on,69,0,0
1,note_on,69,60,150
1,note_on,72,68,0
1,note_on,72,0,90
1,note_on,69,0,0
1,note_on,77,83,150
1,note_on,69,68,0
1,note_on,69,0,240
1,note_on,77,0,0
1,note_on,69,68,0
1,note_on,76,75,0
1,note_on,76,0,80
1,note_on,77,69,0
1,note_on,77,0,80
1,note_on,76,69,0
1,note_on,76,0,80
1,note_on,69,0,0
1,note_on,69,54,0
1,note_on,74,75,0
1,note_on,74,0,120
1,note_on,76,69,0
1,note_on,76,0,120
1,note_on,69,0,0
1,note_on,77,77,0
1,note_on,69,51,0
1,note_on,77,0,120
1,note_on,74,70,0
1,note_on,74,0,120
1,note_on,69,0,0
1,note_on,69,64,0
1,note_on,76,76,0
1,note_on,76,0,90
1,note_on,69,0,0
1,note_on,72,64,150
1,note_on,69,57,0
1,note_on,69,0,90
1,note_on,72,0,0
1,note_on,69,53,150
1,note_on,74,78,0
1,note_on,74,0,120
1,note_on,76,72,0
1,note_on,76,0,120
1,note_on,69,0,0
1,note_on,72,76,0
1,note_on,69,43,0
1,note_on,69,0,210
1,note_on,72,0,0
1,note_on,69,51,30
1,note_on,74,72,0
1,note_on,74,0,120
1,note_on,76,73,0
1,note_on,76,0,120
1,note_on,69,0,0
1,note_on,77,77,0
1,note_on,69,53,0
1,note_on,69,0,210
1,note_on,77,0,0
1,note_on,69,53,30
1,note_on,74,78,0
1,note_on,74,0,120
1,note_on,76,72,0
1,note_on,76,0,120
1,note_on,69,0,0
1,note_on,72,73,0
1,note_on,69,43,0
1,note_on,69,0,210
1,note_on,72,0,0
1,note_on,69,45,30
1,note_on,74,79,0
1,note_on,74,0,120
1,note_on,76,71,0
1,note_on,76,0,120
1,note_on,69,0,0
1,note_on,72,72,0
1,note_on,69,40,0
1,note_on,69,0,210
1,note_on,72,0,0
1,note_on,74,71,30
1,note_on,69,50,0
1,note_on,74,0,120
1,note_on,76,73,0
1,note_on,76,0,120
1,note_on,69,0,0
1,note_on,69,53,0
1,note_on,79,78,0
1,note_on,79,0,120
1,note_on,77,71,0
1,note_on,77,0,120
1,note_on,74,77,0
1,note_on,74,0,120
1,note_on,76,72,0
1,note_on,76,0,120
1,note_on,69,0,0
1,note_on,72,68,0
1,note_on,72,0,240
1,note_on,80,83,0
1,note_on,72,68,0
1,note_on,72,0,240
1,note_on,80,0,0
1,note_on,72,68,0
1,note_on,79,75,0
1,note_on,79,0,80
1,note_on,80,67,0
1,note_on,80,0,80
1,note_on,79,67,0
1,note_on,79,0,80
1,note_on,72,0,0
1,note_on,77,75,0
1,note_on,72,57,0
1,note_on,77,0,120
1,note_on,79,69,0
1,note_on,79,0,120
1,note_on,72,0,0
1,note_on,72,54,0
1,note_on,80,79,0
1,note_on,80,0,120
1,note_on,77,72,0
1,note_on,77,0,120
1,note_on,72,0,0
1,note_on,73,64,0
1,note_on,79,76,0
1,note_on,79,0,90
1,note_on,73,0,0
1,note_on,73,64,150
1,note_on,75,72,0
1,note_on,75,0,90
1,note_on,73,0,0
1,note_on,80,83,150
1,note_on,72,68,0
1,note_on,72,0,240
1,note_on,80,0,0
1,note_on,72,68,0
1,note_on,79,75,0
1,note_on,79,0,80
1,note_on,80,67,0
1,note_on,80,0,80
1,note_on,79,69,0
1,note_on,79,0,80
1,note_on,72,0,0
1,note_on,72,58,0
1,note_on,77,75,0
1,note_on,77,0,120
1,note_on,79,69,0
1,note_on,79,0,120
1,note_on,72,0,0
1,note_on,80,79,0
1,note_on,72,53,0
1,note_on,80,0,120
1,note_on,77,72,0
1,note_on,77,0,120
1,note_on,72,0,0
1,note_on,73,64,0
1,note_on,79,76,0
1,note_on,79,0,90
1,note_on,73,0,0
1,note_on,75,72,150
1,note_on,73,64,0
1,note_on,73,0,90
1,note_on,75,0,0
1,note_on,72,53,150
1,note_on,77,78,0
1,note_on,77,0,120
1,note_on,79,72,0
1,note_on,79,0,120
1,note_on,72,0,0
1,note_on,75,76,0
1,note_on,72,43,0
1,note_on,72,0,210
1,note_on,75,0,0
1,note_on,72,51,30
1,note_on,77,72,0
1,note_on,77,0,120
1,note_on,79,73,0
1,note_on,79,0,120
1,note_on,72,0,0
1,note_on,80,77,0
1,note_on,72,53,0
1,note_on,72,0,210
1,note_on,80,0,0
1,note_on,72,53,30
1,note_on,77,78,0
1,note_on,77,0,120
1,note_on,79,72,0
1,note_on,79,0,120
1,note_on,72,0,0
1,note_on,75,72,0
1,note_on,72,40,0
1,note_on,72,0,210
1,note_on,75,0,0
1,note_on,72,45,30
1,note_on,77,79,0
1,note_on,77,0,120
1,note_on,79,71,0
1,note_on,79,0,120
1,note_on,72,0,0
1,note_on,75,71,0
1,note_on,72,37,0
1,note_on,72,0,210
1,note_on,75,0,0
1,note_on,72,50,30
1,note_on,77,71,0
1,note_on,77,0,120
1,note_on,79,73,0
1,note_on,79,0,120
1,note_on,72,0,0
1,note_on,82,78,0
1,note_on,72,53,0
1,note_on,82,0,120
1,note_on,80,71,0
1,note_on,80,0,120
1,note_on,72,0,0
1,note_on,72,49,0
1,note_on,77,77,0
1,note_on,77,0,120
1,note_on,79,72,0
1,note_on,79,0,120
1,note_on,72,0,0
1,note_on,75,68,0
1,note_on,72,44,0
1,note_on,72,0,240
1,note_on,75,0,0
1,note_on,58,53,240
1,note_on,61,60,0
1,note_on,65,68,0
1,note_on,65,0,120
1,note_on,61,0,0
1,note_on,58,0,0
1,note_on,53,58,0
1,note_on,53,0,120
1,note_on,70,60,240
1,note_on,73,60,0
1,note_on,77,68,0
1,note_on,77,0,120
1,note_on,73,0,0
1,note_on,70,0,0
1,note_on,65,57,0
1,note_on,65,0,120
1,note_on,79,60,240
1,note_on,82,60,0
1,note_on,85,68,0
1,note_on,85,0,120
1,note_on,82,0,0
1,note_on,79,0,0
1,note_on,77,61,0
1,note_on,77,0,120
1,note_on,82,75,240
1,note_on,77,67,0
1,note_on,77,0,60
1,note_on,82,0,0
1,note_on,77,67,60
1,note_on,82,75,0
1,note_on,82,0,60
1,note_on,77,0,0
1,note_on,89,80,60
1,note_on,82,72,0
1,note_on,82,0,120
1,note_on,89,0,0
1,note_on,77,69,120
1,note_on,82,77,0
1,note_on,82,0,120
1,note_on,77,0,0
1,note_on,89,81,120
1,note_on,82,72,0
1,note_on,82,0,120
1,note_on,89,0,0
1,note_on,82,78,120
1,note_on,77,70,0
1,note_on,77,0,120
1,note_on,82,0,0
1,note_on,61,60,360
1,note_on,58,60,0
1,note_on,65,68,0
1,note_on,65,0,120
1,note_on,58,0,0
1,note_on,61,0,0
1,note_on,53,56,0
1,note_on,53,0,120
1,note_on,77,68,240
1,note_on,70,60,0
1,note_on,73,60,0
1,note_on,73,0,120
1,note_on,70,0,0
1,note_on,77,0,0
1,note_on,65,57,0
1,note_on,65,0,120
1,note_on,85,68,240
1,note_on,79,60,0
1,note_on,82,60,0
1,note_on,82,0,120
1,note_on,79,0,0
1,note_on,85,0,0
1,note_on,77,57,0
1,note_on,77,0,120
1,note_on,82,75,240
1,note_on,77,67,0
1,note_on,77,0,60
1,note_on,82,0,0
1,note_on,77,67,60
1,note_on,82,75,0
1,note_on,82,0,60
1,note_on,77,0,0
1,note_on,89,80,60
1,note_on,82,72,0
1,note_on,82,0,120
1,note_on,89,0,0
1,note_on,82,77,120
1,note_on,77,69,0
1,note_on,77,0,120
1,note_on,82,0,0
1,note_on,82,72,120
1,note_on,89,81,0
1,note_on,89,0,120
1,note_on,82,0,0
1,note_on,82,78,120
1,note_on,77,70,0
1,note_on,77,0,120
1,note_on,82,0,0
1,note_on,88,75,120
1,note_on,84,63,0
1,note_on,88,0,240
1,note_on,86,70,0
1,note_on,86,0,80
1,note_on,88,65,0
1,note_on,88,0,80
1,note_on,86,65,0
1,note_on,86,0,80
1,note_on,84,0,0
1,note_on,84,70,0
1,note_on,86,65,120
1,note_on,86,0,120
1,note_on,88,74,0
1,note_on,88,0,120
1,note_on,84,64,0
1,note_on,84,0,120
1,note_on,84,0,0
1,note_on,80,48,0
1,note_on,85,68,0
1,note_on,85,0,90
1,note_on,84,62,30
1,note_on,84,0,90
1,note_on,80,0,30
1,note_on,80,52,0
1,note_on,85,67,0
1,note_on,85,0,90
1,note_on,89,62,30
1,note_on,89,0,90
1,note_on,80,0,30
1,note_on,88,75,0
1,note_on,84,63,0
1,note_on,88,0,240
1,note_on,86,70,0
1,note_on,86,0,80
1,note_on,88,65,0
1,note_on,88,0,80
1,note_on,86,65,0
1,note_on,86,0,80
1,note_on,84,0,0
1,note_on,84,70,0
1,note_on,86,65,120
1,note_on,86,0,120
1,note_on,88,74,0
1,note_on,88,0,120
1,note_on,84,64,0
1,note_on,84,0,120
1,note_on,84,0,0
1,note_on,80,51,0
1,note_on,85,68,0
1,note_on,85,0,90
1,note_on,84,62,30
1,note_on,84,0,90
1,note_on,80,0,30
1,note_on,80,49,0
1,note_on,85,67,0
1,note_on,85,0,90
1,note_on,89,62,30
1,note_on,89,0,90
1,note_on,80,0,30
1,note_on,76,75,0
1,note_on,72,63,0
1,note_on,76,0,240
1,note_on,74,70,0
1,note_on,74,0,80
1,note_on,76,65,0
1,note_on,76,0,80
1,note_on,74,65,0
1,note_on,74,0,80
1,note_on,72,0,0
1,note_on,72,70,0
1,note_on,72,0,60
1,note_on,74,65,60
1,note_on,74,0,60
1,note_on,76,66,60
1,note_on,76,0,60
1,note_on,77,67,60
1,note_on,77,0,60
1,note_on,79,69,60
1,note_on,79,0,60
1,note_on,80,71,60
1,note_on,80,0,60
1,note_on,82,73,60
1,note_on,82,0,60
1,note_on,84,74,60
1,note_on,84,0,60
1,note_on,82,72,60
1,note_on,82,0,80
1,note_on,84,68,0
1,note_on,84,0,80
1,note_on,82,68,0
1,note_on,82,0,80
1,note_on,80,70,0
1,note_on,80,0,80
1,note_on,82,65,0
1,note_on,82,0,80
1,note_on,80,69,0
1,note_on,80,0,80
1,note_on,79,68,0
1,note_on,79,0,80
1,note_on,80,65,0
1,note_on,80,0,80
1,note_on,79,64,0
1,note_on,79,0,80
1,note_on,77,66,0
1,note_on,77,0,80
1,note_on,79,61,0
1,note_on,79,0,80
1,note_on,77,61,0
1,note_on,77,0,80
1,note_on,75,64,0
1,note_on,75,0,80
1,note_on,77,60,0
1,note_on,77,0,80
1,note_on,75,60,0
1,note_on,75,0,80
1,note_on,73,62,0
1,note_on,73,0,80
1,note_on,75,57,0
1,note_on,75,0,80
1,note_on,73,57,0
1,note_on,73,0,80
1,note_on,77,57,240
1,note_on,70,51,0
1,note_on,73,51,0
1,note_on,73,0,120
1,note_on,70,0,0
1,note_on,77,0,0
1,note_on,67,53,0
1,note_on,67,0,120
1,note_on,82,51,240
1,note_on,89,57,0
1,note_on,85,51,0
1,note_on,85,0,120
1,note_on,89,0,0
1,note_on,82,0,0
1,note_on,79,52,0
1,note_on,79,0,120
1,note_on,77,57,240
1,note_on,73,51,0
1,note_on,70,51,0
1,note_on,70,0,120
1,note_on,73,0,0
1,note_on,77,0,0
1,note_on,67,53,0
1,note_on,67,0,120
1,note_on,82,69,240
1,note_on,77,61,0
1,note_on,77,0,60
1,note_on,82,0,0
1,note_on,82,69,60
1,note_on,77,61,0
1,note_on,77,0,60
1,note_on,82,0,0
1,note_on,82,66,60
1,note_on,89,73,0
1,note_on,89,0,120
1,note_on,82,0,0
1,note_on,82,70,120
1,note_on,77,63,0
1,note_on,77,0,120
1,note_on,82,0,0
1,note_on,82,66,120
1,note_on,89,74,0
1,note_on,89,0,120
1,note_on,82,0,0
1,note_on,82,71,120
1,note_on,77,64,0
1,note_on,77,0,120
1,note_on,82,0,0
1,note_on,70,48,360
1,note_on,77,53,0
1,note_on,73,48,0
1,note_on,73,0,120
1,note_on,77,0,0
1,note_on,70,0,0
1,note_on,67,51,0
1,note_on,67,0,120
1,note_on,82,46,240
1,note_on,85,46,0
1,note_on,89,52,0
1,note_on,89,0,120
1,note_on,85,0,0
1,note_on,82,0,0
1,note_on,79,49,0
1,note_on,79,0,120
1,note_on,77,51,240
1,note_on,73,45,0
1,note_on,70,45,0
1,note_on,70,0,120
1,note_on,73,0,0
1,note_on,77,0,0
1,note_on,67,46,0
1,note_on,67,0,120
1,note_on,65,54,240
1,note_on,70,62,0
1,note_on,70,0,60
1,note_on,65,0,0
1,note_on,70,61,60
1,note_on,65,54,0
1,note_on,65,0,60
1,note_on,70,0,0
1,note_on,70,58,60
1,note_on,77,64,0
1,note_on,77,0,120
1,note_on,70,0,0
1,note_on,70,61,120
1,note_on,65,55,0
1,note_on,65,0,120
1,note_on,70,0,0
1,note_on,77,64,120
1,note_on,70,57,0
1,note_on,70,0,120
1,note_on,77,0,0
1,note_on,65,55,120
1,note_on,70,61,0
1,note_on,70,0,120
1,note_on,65,0,0
1,note_on,70,45,360
1,note_on,73,45,0
1,note_on,77,50,0
1,note_on,77,0,120
1,note_on,73,0,0
1,note_on,70,0,0
1,note_on,67,50,0
1,note_on,67,0,120
1,note_on,70,41,240
1,note_on,73,41,0
1,note_on,77,44,0
1,note_on,77,0,120
1,note_on,73,0,0
1,note_on,70,0,0
1,note_on,67,44,0
1,note_on,67,0,120
1,note_on,73,36,240
1,note_on,70,36,0
1,note_on,77,40,0
1,note_on,77,0,120
1,note_on,70,0,0
1,note_on,73,0,0
1,note_on,67,39,0
1,note_on,67,0,120
1,note_on,70,59,2160
1,note_on,74,59,0
1,note_on,74,0,240
1,note_on,70,0,0
1,note_on,70,56,0
1,note_on,74,56,0
1,note_on,74,0,120
1,note_on,70,0,0
1,note_on,70,56,0
1,note_on,74,56,0
1,note_on,74,0,120
1,note_on,70,0,0
1,note_on,79,59,0
1,note_on,76,59,0
1,note_on,76,0,840
1,note_on,79,0,0
1,note_on,74,54,0
1,note_on,77,54,0
1,note_on,77,0,120
1,note_on,74,0,0
1,note_on,72,45,0
1,note_on,76,45,0
1,note_on,76,0,80
1,note_on,77,45,0
1,note_on,77,0,80
1,note_on,76,45,0
1,note_on,76,0,80
1,note_on,72,0,0
1,note_on,69,45,0
1,note_on,72,51,0
1,note_on,72,0,240
1,note_on,69,0,0
1,note_on,65,27,120
1,note_on,69,27,0
1,note_on,72,33,0
1,note_on,72,0,60
1,note_on,69,0,0
1,note_on,65,0,0
1,note_on,72,29,180
1,note_on,69,25,0
1,note_on,65,25,0
1,note_on,65,0,60
1,note_on,69,0,0
1,note_on,72,0,0
1,note_on,72,33,180
1,note_on,69,27,0
1,note_on,65,27,0
1,note_on,65,0,60
1,note_on,69,0,0
1,note_on,72,0,0
1,note_on,72,27,180
1,note_on,69,22,0
1,note_on,65,22,0
1,note_on,65,0,60
1,note_on,69,0,0
1,note_on,72,0,0
1,note_on,77,59,60
1,note_on,81,59,0
1,note_on,81,0,240
1,note_on,77,0,0
1,note_on,76,53,0
1,note_on,79,53,0
1,note_on,79,0,120
1,note_on,76,0,0
1,note_on,74,53,0
1,note_on,77,53,0
1,note_on,77,0,120
1,note_on,74,0,0
1,note_on,77,57,0
1,note_on,74,57,0
1,note_on,74,0,480
1,note_on,77,0,0
1,note_on,75,50,0
1,note_on,72,45,0
1,note_on,72,0,120
1,note_on,75,0,0
1,note_on,78,39,0
1,note_on,74,35,0
1,note_on,74,0,120
1,note_on,78,0,0
1,note_on,70,45,0
1,note_on,74,50,0
1,note_on,74,0,120
1,note_on,70,0,0
1,note_on,72,37,0
1,note_on,75,42,0
1,note_on,75,0,120
1,note_on,72,0,0
1,note_on,69,45,0
1,note_on,72,45,0
1,note_on,72,0,80
1,note_on,74,45,0
1,note_on,74,0,80
1,note_on,72,45,0
1,note_on,72,0,80
1,note_on,69,0,0
1,note_on,67,46,0
1,note_on,70,51,0
1,note_on,70,0,240
1,note_on,67,0,0
1,note_on,62,27,120
1,note_on,67,27,0
1,note_on,70,33,0
1,note_on,70,0,60
1,note_on,67,0,0
1,note_on,62,0,0
1,note_on,70,29,180
1,note_on,67,25,0
1,note_on,62,25,0
1,note_on,62,0,60
1,note_on,67,0,0
1,note_on,70,0,0
1,note_on,70,33,180
1,note_on,67,27,0
1,note_on,62,27,0
1,note_on,62,0,60
1,note_on,67,0,0
1,note_on,70,0,0
1,note_on,70,27,180
1,note_on,67,22,0
1,note_on,62,22,0
1,note_on,62,0,60
1,note_on,67,0,0
1,note_on,70,0,0
1,note_on,70,64,60
1,note_on,74,64,0
1,note_on,74,0,240
1,note_on,70,0,0
1,note_on,70,61,0
1,note_on,74,61,0
1,note_on,74,0,120
1,note_on,70,0,0
1,note_on,70,61,0
1,note_on,74,61,0
1,note_on,74,0,120
1,note_on,70,0,0
1,note_on,79,64,0
1,note_on,76,64,0
1,note_on,76,0,840
1,note_on,79,0,0
1,note_on,74,54,0
1,note_on,77,54,0
1,note_on,77,0,120
1,note_on,74,0,0
1,note_on,72,45,0
1,note_on,76,45,0
1,note_on,76,0,80
1,note_on,77,45,0
1,note_on,77,0,80
1,note_on,76,45,0
1,note_on,76,0,80
1,note_on,72,0,0
1,note_on,69,41,0
1,note_on,72,46,0
1,note_on,72,0,240
1,note_on,69,0,0
1,note_on,65,27,120
1,note_on,69,27,0
1,note_on,72,33,0
1,note_on,72,0,60
1,note_on,69,0,0
1,note_on,65,0,0
1,note_on,72,29,180
1,note_on,69,25,0
1,note_on,65,25,0
1,note_on,65,0,60
1,note_on,69,0,0
1,note_on,72,0,0
1,note_on,72,33,180
1,note_on,69,27,0
1,note_on,65,27,0
1,note_on,65,0,60
1,note_on,69,0,0
1,note_on,72,0,0
1,note_on,72,27,180
1,note_on,69,22,0
1,note_on,65,22,0
1,note_on,65,0,60
1,note_on,69,0,0
1,note_on,72,0,0
1,note_on,72,52,0
1,note_on,72,0,60
1,note_on,81,64,0
1,note_on,84,64,0
1,note_on,84,0,240
1,note_on,81,0,0
1,note_on,79,58,0
1,note_on,82,58,0
1,note_on,82,0,120
1,note_on,79,0,0
1,note_on,77,58,0
1,note_on,81,58,0
1,note_on,81,0,120
1,note_on,77,0,0
1,note_on,81,62,0
1,note_on,77,62,0
1,note_on,77,0,240
1,note_on,81,0,0
1,note_on,76,58,0
1,note_on,79,58,0
1,note_on,79,0,120
1,note_on,76,0,0
1,note_on,74,58,0
1,note_on,77,58,0
1,note_on,77,0,120
1,note_on,74,0,0
1,note_on,77,58,0
1,note_on,81,58,0
1,note_on,81,0,120
1,note_on,77,0,0
1,note_on,76,50,120
1,note_on,79,50,0
1,note_on,79,0,120
1,note_on,76,0,0
1,note_on,72,45,0
1,note_on,76,45,0
1,note_on,76,0,120
1,note_on,72,0,0
1,note_on,70,45,0
1,note_on,74,45,0
1,note_on,74,0,240
1,note_on,70,0,0
1,note_on,70,40,0
1,note_on,67,40,0
1,note_on,70,0,80
1,note_on,72,40,0
1,note_on,72,0,80
1,note_on,70,40,0
1,note_on,70,0,80
1,note_on,67,0,0
1,note_on,67,43,0
1,note_on,64,38,0
1,note_on,64,0,240
1,note_on,67,0,0
1,note_on,70,27,120
1,note_on,72,27,0
1,note_on,64,27,0
1,note_on,64,0,60
1,note_on,72,0,0
1,note_on,70,0,0
1,note_on,70,31,180
1,note_on,72,31,0
1,note_on,64,31,0
1,note_on,64,0,60
1,note_on,72,0,0
1,note_on,70,0,0
1,note_on,64,25,180
1,note_on,72,25,0
1,note_on,70,25,0
1,note_on,70,0,60
1,note_on,72,0,0
1,note_on,64,0,0
1,note_on,67,59,60
1,note_on,70,59,0
1,note_on,70,0,240
1,note_on,67,0,0
1,note_on,69,56,0
1,note_on,72,56,0
1,note_on,72,0,120
1,note_on,69,0,0
1,note_on,70,56,0
1,note_on,74,56,0
1,note_on,74,0,120
1,note_on,70,0,0
1,note_on,79,59,0
1,note_on,76,59,0
1,note_on,76,0,840
1,note_on,79,0,0
1,note_on,74,54,0
1,note_on,77,54,0
1,note_on,77,0,120
1,note_on,74,0,0
1,note_on,72,45,0
1,note_on,76,45,0
1,note_on,76,0,80
1,note_on,77,45,0
1,note_on,77,0,80
1,note_on,76,45,0
1,note_on,76,0,80
1,note_on,72,0,0
1,note_on,69,41,0
1,note_on,72,46,0
1,note_on,72,0,240
1,note_on,69,0,0
1,note_on,65,27,120
1,note_on,69,27,0
1,note_on,72,33,0
1,note_on,72,0,60
1,note_on,69,0,0
1,note_on,65,0,0
1,note_on,72,29,180
1,note_on,69,25,0
1,note_on,65,25,0
1,note_on,65,0,60
1,note_on,69,0,0
1,note_on,72,0,0
1,note_on,72,33,180
1,note_on,69,27,0
1,note_on,65,27,0
1,note_on,65,0,60
1,note_on,69,0,0
1,note_on,72,0,0
1,note_on,72,27,180
1,note_on,69,22,0
1,note_on,65,22,0
1,note_on,65,0,60
1,note_on,69,0,0
1,note_on,72,0,0
1,note_on,77,59,60
1,note_on,81,59,0
1,note_on,81,0,240
1,note_on,77,0,0
1,note_on,76,53,0
1,note_on,79,53,0
1,note_on,79,0,120
1,note_on,76,0,0
1,note_on,74,53,0
1,note_on,77,53,0
1,note_on,77,0,120
1,note_on,74,0,0
1,note_on,77,57,0
1,note_on,74,57,0
1,note_on,74,0,480
1,note_on,77,0,0
1,note_on,75,51,0
1,note_on,72,45,0
1,note_on,72,0,120
1,note_on,75,0,0
1,note_on,78,40,0
1,note_on,74,36,0
1,note_on,74,0,120
1,note_on,78,0,0
1,note_on,70,45,0
1,note_on,74,51,0
1,note_on,74,0,120
1,note_on,70,0,0
1,note_on,72,36,0
1,note_on,75,41,0
1,note_on,75,0,120
1,note_on,72,0,0
1,note_on,69,45,0
1,note_on,72,45,0
1,note_on,72,0,80
1,note_on,74,45,0
1,note_on,74,0,80
1,note_on,72,45,0
1,note_on,72,0,80
1,note_on,69,0,0
1,note_on,67,44,0
1,note_on,70,51,0
1,note_on,70,0,240
1,note_on,67,0,0
1,note_on,62,27,120
1,note_on,67,27,0
1,note_on,70,33,0
1,note_on,70,0,60
1,note_on,67,0,0
1,note_on,62,0,0
1,note_on,70,29,180
1,note_on,67,25,0
1,note_on,62,25,0
1,note_on,62,0,60
1,note_on,67,0,0
1,note_on,70,0,0
1,note_on,70,33,180
1,note_on,67,27,0
1,note_on,62,27,0
1,note_on,62,0,60
1,note_on,67,0,0
1,note_on,70,0,0
1,note_on,70,27,180
1,note_on,67,22,0
1,note_on,62,22,0
1,note_on,62,0,60
1,note_on,67,0,0
1,note_on,70,0,0
1,note_on,79,59,60
1,note_on,82,59,0
1,note_on,82,0,120
1,note_on,79,0,0
1,note_on,76,56,120
1,note_on,79,56,0
1,note_on,79,0,120
1,note_on,76,0,0
1,note_on,72,56,0
1,note_on,76,56,0
1,note_on,76,0,120
1,note_on,72,0,0
1,note_on,72,59,0
1,note_on,69,59,0
1,note_on,69,0,720
1,note_on,72,0,0
1,note_on,70,46,0
1,note_on,74,51,0
1,note_on,74,0,240
1,note_on,70,0,0
1,note_on,67,45,0
1,note_on,70,45,0
1,note_on,70,0,80
1,note_on,72,45,0
1,note_on,72,0,80
1,note_on,70,45,0
1,note_on,70,0,80
1,note_on,67,0,0
1,note_on,65,43,0
1,note_on,69,45,0
1,note_on,69,0,240
1,note_on,65,0,0
1,note_on,57,46,480
1,note_on,65,50,0
1,note_on,65,0,80
1,note_on,67,47,0
1,note_on,67,0,80
1,note_on,65,47,0
1,note_on,65,0,80
1,note_on,57,0,0
1,note_on,57,43,0
1,note_on,64,50,0
1,note_on,64,0,120
1,note_on,62,47,0
1,note_on,62,0,120
1,note_on,57,0,0
1,note_on,57,39,0
1,note_on,65,53,0
1,note_on,65,0,240
1,note_on,57,0,0
1,note_on,57,43,0
1,note_on,64,51,0
1,note_on,64,0,90
1,note_on,57,0,0
1,note_on,62,48,30
1,note_on,62,0,90
1,note_on,57,43,30
1,note_on,60,49,0
1,note_on,60,0,90
1,note_on,57,0,0
1,note_on,64,46,30
1,note_on,64,0,90
1,note_on,57,39,30
1,note_on,62,51,0
1,note_on,62,0,90
1,note_on,64,48,30
1,note_on,64,0,90
1,note_on,57,0,30
1,note_on,57,46,0
1,note_on,65,50,0
1,note_on,65,0,80
1,note_on,67,47,0
1,note_on,67,0,80
1,note_on,65,47,0
1,note_on,65,0,80
1,note_on,57,0,0
1,note_on,57,43,0
1,note_on,64,50,0
1,note_on,64,0,120
1,note_on,62,47,0
1,note_on,62,0,120
1,note_on,57,0,0
1,note_on,57,39,0
1,note_on,65,53,0
1,note_on,65,0,240
1,note_on,57,0,0
1,note_on,57,43,0
1,note_on,64,51,0
1,note_on,64,0,90
1,note_on,57,0,0
1,note_on,62,48,30
1,note_on,62,0,90
1,note_on,57,43,30
1,note_on,60,49,0
1,note_on,60,0,90
1,note_on,57,0,0
1,note_on,64,46,30
1,note_on,64,0,90
1,note_on,57,39,30
1,note_on,62,51,0
1,note_on,62,0,90
1,note_on,64,48,30
1,note_on,64,0,90
1,note_on,57,0,30
1,note_on,57,46,0
1,note_on,65,50,0
1,note_on,65,0,80
1,note_on,67,47,0
1,note_on,67,0,80
1,note_on,65,47,0
1,note_on,65,0,80
1,note_on,57,0,0
1,note_on,57,43,0
1,note_on,64,50,0
1,note_on,64,0,120
1,note_on,62,47,0
1,note_on,62,0,120
1,note_on,57,0,0
1,note_on,57,51,0
1,note_on,65,60,0
1,note_on,65,0,120
1,note_on,64,48,0
1,note_on,64,0,90
1,note_on,57,0,30
1,note_on,57,48,0
1,note_on,62,57,0
1,note_on,62,0,90
1,note_on,57,0,0
1,note_on,64,48,30
1,note_on,64,0,90
1,note_on,57,45,30
1,note_on,60,54,0
1,note_on,60,0,90
1,note_on,57,0,0
1,note_on,64,46,30
1,note_on,64,0,90
1,note_on,57,39,30
1,note_on,62,51,0
1,note_on,62,0,90
1,note_on,64,48,30
1,note_on,64,0,90
1,note_on,57,0,30
1,note_on,57,46,0
1,note_on,65,50,0
1,note_on,65,0,80
1,note_on,67,47,0
1,note_on,67,0,80
1,note_on,65,47,0
1,note_on,65,0,80
1,note_on,57,0,0
1,note_on,57,43,0
1,note_on,64,50,0
1,note_on,64,0,120
1,note_on,62,47,0
1,note_on,62,0,120
1,note_on,57,0,0
1,note_on,58,51,0
1,note_on,65,57,0
1,note_on,65,0,120
1,note_on,64,48,0
1,note_on,64,0,90
1,note_on,58,0,30
1,note_on,58,48,0
1,note_on,62,53,0
1,note_on,62,0,90
1,note_on,58,0,0
1,note_on,65,48,30
1,note_on,65,0,90
1,note_on,58,45,30
1,note_on,64,54,0
1,note_on,64,0,240
1,note_on,58,0,0
1,note_on,79,67,240
1,note_on,82,67,0
1,note_on,82,0,80
1,note_on,84,57,0
1,note_on,84,0,80
1,note_on,82,57,0
1,note_on,82,0,80
1,note_on,79,0,0
1,note_on,78,65,0
1,note_on,81,65,0
1,note_on,81,0,80
1,note_on,82,57,0
1,note_on,82,0,80
1,note_on,81,57,0
1,note_on,81,0,80
1,note_on,78,0,0
1,note_on,77,66,0
1,note_on,80,66,0
1,note_on,80,0,240
1,note_on,77,0,0
1,note_on,89,78,0
1,note_on,89,0,60
1,note_on,77,70,60
1,note_on,80,70,0
1,note_on,80,0,60
1,note_on,77,0,0
1,note_on,95,76,60
1,note_on,95,0,120
1,note_on,77,67,360
1,note_on,80,67,0
1,note_on,80,0,80
1,note_on,82,57,0
1,note_on,82,0,80
1,note_on,80,57,0
1,note_on,80,0,80
1,note_on,77,0,0
1,note_on,76,65,0
1,note_on,79,65,0
1,note_on,79,0,80
1,note_on,80,57,0
1,note_on,80,0,80
1,note_on,79,57,0
1,note_on,79,0,80
1,note_on,76,0,0
1,note_on,75,66,0
1,note_on,78,66,0
1,note_on,78,0,240
1,note_on,75,0,0
1,note_on,87,78,0
1,note_on,87,0,60
1,note_on,75,70,60
1,note_on,78,70,0
1,note_on,78,0,60
1,note_on,75,0,0
1,note_on,93,76,60
1,note_on,93,0,120
1,note_on,75,58,360
1,note_on,78,74,0
1,note_on,78,0,80
1,note_on,80,63,0
1,note_on,75,0,40
1,note_on,80,0,40
1,note_on,78,63,0
1,note_on,78,0,80
1,note_on,74,56,0
1,note_on,77,72,0
1,note_on,77,0,80
1,note_on,78,63,0
1,note_on,74,0,40
1,note_on,78,0,40
1,note_on,77,63,0
1,note_on,77,0,80
1,note_on,73,54,0
1,note_on,76,71,0
1,note_on,76,0,80
1,note_on,78,61,0
1,note_on,73,0,40
1,note_on,78,0,40
1,note_on,76,60,0
1,note_on,76,0,80
1,note_on,72,54,0
1,note_on,75,69,0
1,note_on,75,0,80
1,note_on,77,59,0
1,note_on,72,0,40
1,note_on,77,0,40
1,note_on,75,59,0
1,note_on,75,0,80
1,note_on,71,52,0
1,note_on,74,67,0
1,note_on,74,0,80
1,note_on,75,55,0
1,note_on,71,0,40
1,note_on,75,0,40
1,note_on,74,55,0
1,note_on,74,0,80
1,note_on,70,51,0
1,note_on,73,65,0
1,note_on,73,0,80
1,note_on,75,56,0
1,note_on,70,0,40
1,note_on,75,0,40
1,note_on,73,55,0
1,note_on,73,0,80
1,note_on,70,49,0
1,note_on,72,63,0
1,note_on,72,0,80
1,note_on,74,54,0
1,note_on,70,0,40
1,note_on,74,0,40
1,note_on,72,54,0
1,note_on,72,0,80
1,note_on,82,68,0
1,note_on,74,68,0
1,note_on,74,0,80
1,note_on,72,56,0
1,note_on,72,0,80
1,note_on,74,56,0
1,note_on,74,0,80
1,note_on,82,0,0
1,note_on,72,61,0
1,note_on,81,69,0
1,note_on,81,0,120
1,note_on,72,0,0
1,note_on,77,48,0
1,note_on,77,0,60
1,note_on,79,48,0
1,note_on,79,0,60
1,note_on,69,57,0
1,note_on,77,57,0
1,note_on,77,0,120
1,note_on,74,57,0
1,note_on,74,0,120
1,note_on,69,0,0
1,note_on,72,63,0
1,note_on,72,0,240
1,note_on,57,46,240
1,note_on,65,50,0
1,note_on,65,0,80
1,note_on,67,47,0
1,note_on,67,0,80
1,note_on,65,47,0
1,note_on,65,0,80
1,note_on,57,0,0
1,note_on,57,43,0
1,note_on,64,50,0
1,note_on,64,0,120
1,note_on,62,47,0
1,note_on,62,0,120
1,note_on,57,0,0
1,note_on,57,39,0
1,note_on,65,53,0
1,note_on,65,0,240
1,note_on,57,0,0
1,note_on,57,43,0
1,note_on,64,51,0
1,note_on,64,0,90
1,note_on,57,0,0
1,note_on,62,48,30
1,note_on,62,0,90
1,note_on,57,43,30
1,note_on,60,49,0
1,note_on,60,0,90
1,note_on,57,0,0
1,note_on,64,46,30
1,note_on,64,0,90
1,note_on,57,39,30
1,note_on,62,51,0
1,note_on,62,0,90
1,note_on,64,48,30
1,note_on,64,0,90
1,note_on,57,0,30
1,note_on,57,46,0
1,note_on,65,50,0
1,note_on,65,0,80
1,note_on,67,47,0
1,note_on,67,0,80
1,note_on,65,47,0
1,note_on,65,0,80
1,note_on,57,0,0
1,note_on,57,43,0
1,note_on,64,50,0
1,note_on,64,0,120
1,note_on,62,47,0
1,note_on,62,0,120
1,note_on,57,0,0
1,note_on,57,39,0
1,note_on,65,53,0
1,note_on,65,0,240
1,note_on,57,0,0
1,note_on,57,43,0
1,note_on,64,51,0
1,note_on,64,0,90
1,note_on,57,0,0
1,note_on,62,48,30
1,note_on,62,0,90
1,note_on,57,43,30
1,note_on,60,49,0
1,note_on,60,0,90
1,note_on,57,0,0
1,note_on,64,46,30
1,note_on,64,0,90
1,note_on,57,39,30
1,note_on,62,51,0
1,note_on,62,0,90
1,note_on,64,48,30
1,note_on,64,0,90
1,note_on,57,0,30
1,note_on,57,46,0
1,note_on,65,50,0
1,note_on,65,0,80
1,note_on,67,47,0
1,note_on,67,0,80
1,note_on,65,47,0
1,note_on,65,0,80
1,note_on,57,0,0
1,note_on,57,43,0
1,note_on,64,50,0
1,note_on,64,0,120
1,note_on,62,47,0
1,note_on,62,0,120
1,note_on,57,0,0
1,note_on,57,51,0
1,note_on,65,60,0
1,note_on,65,0,120
1,note_on,64,48,0
1,note_on,64,0,90
1,note_on,57,0,30
1,note_on,57,48,0
1,note_on,62,57,0
1,note_on,62,0,90
1,note_on,57,0,0
1,note_on,64,48,30
1,note_on,64,0,90
1,note_on,57,45,30
1,note_on,60,54,0
1,note_on,60,0,90
1,note_on,57,0,0
1,note_on,64,46,30
1,note_on,64,0,90
1,note_on,57,39,30
1,note_on,62,51,0
1,note_on,62,0,90
1,note_on,64,48,30
1,note_on,64,0,90
1,note_on,57,0,30
1,note_on,57,46,0
1,note_on,65,50,0
1,note_on,65,0,80
1,note_on,67,47,0
1,note_on,67,0,80
1,note_on,65,47,0
1,note_on,65,0,80
1,note_on,57,0,0
1,note_on,57,43,0
1,note_on,64,50,0
1,note_on,64,0,120
1,note_on,62,47,0
1,note_on,62,0,120
1,note_on,57,0,0
1,note_on,58,51,0
1,note_on,65,57,0
1,note_on,65,0,120
1,note_on,64,48,0
1,note_on,64,0,90
1,note_on,58,0,30
1,note_on,58,48,0
1,note_on,62,53,0
1,note_on,62,0,90
1,note_on,58,0,0
1,note_on,65,48,30
1,note_on,65,0,90
1,note_on,58,45,30
1,note_on,64,54,0
1,note_on,64,0,240
1,note_on,58,0,0
1,note_on,79,69,240
1,note_on,82,69,0
1,note_on,82,0,80
1,note_on,84,58,0
1,note_on,84,0,80
1,note_on,82,58,0
1,note_on,82,0,80
1,note_on,79,0,0
1,note_on,79,67,0
1,note_on,79,0,80
1,note_on,81,58,0
1,note_on,81,0,80
1,note_on,79,58,0
1,note_on,79,0,80
1,note_on,76,68,0
1,note_on,76,0,240
1,note_on,86,71,0
1,note_on,88,76,0
1,note_on,88,0,120
1,note_on,86,0,0
1,note_on,79,68,0
1,note_on,79,0,120
1,note_on,91,74,0
1,note_on,91,0,240
1,note_on,76,69,240
1,note_on,79,69,0
1,note_on,79,0,80
1,note_on,81,58,0
1,note_on,81,0,80
1,note_on,79,58,0
1,note_on,79,0,80
1,note_on,76,0,0
1,note_on,76,67,0
1,note_on,76,0,80
1,note_on,77,58,0
1,note_on,77,0,80
1,note_on,76,58,0
1,note_on,76,0,80
1,note_on,73,68,0
1,note_on,73,0,240
1,note_on,81,69,0
1,note_on,88,73,0
1,note_on,88,0,120
1,note_on,81,0,0
1,note_on,79,65,0
1,note_on,79,0,120
1,note_on,85,48,0
1,note_on,93,70,0
1,note_on,93,0,240
1,note_on,85,0,0
1,note_on,70,59,240
1,note_on,76,76,0
1,note_on,76,0,80
1,note_on,77,65,0
1,note_on,70,0,40
1,note_on,77,0,40
1,note_on,76,65,0
1,note_on,76,0,80
1,note_on,69,57,0
1,note_on,74,75,0
1,note_on,74,0,80
1,note_on,76,65,0
1,note_on,69,0,40
1,note_on,76,0,40
1,note_on,74,65,0
1,note_on,74,0,80
1,note_on,67,56,0
1,note_on,73,74,0
1,note_on,73,0,80
1,note_on,74,63,0
1,note_on,67,0,40
1,note_on,74,0,40
1,note_on,73,62,0
1,note_on,73,0,80
1,note_on,65,56,0
1,note_on,70,71,0
1,note_on,70,0,80
1,note_on,72,60,0
1,note_on,65,0,40
1,note_on,72,0,40
1,note_on,70,60,0
1,note_on,70,0,80
1,note_on,64,54,0
1,note_on,69,69,0
1,note_on,69,0,80
1,note_on,70,57,0
1,note_on,64,0,40
1,note_on,70,0,40
1,note_on,69,57,0
1,note_on,69,0,80
1,note_on,61,53,0
1,note_on,67,67,0
1,note_on,67,0,80
1,note_on,69,57,0
1,note_on,69,0,80
1,note_on,67,57,0
1,note_on,67,0,80
1,note_on,65,65,0
1,note_on,65,0,80
1,note_on,67,56,0
1,note_on,67,0,80
1,note_on,65,56,0
1,note_on,65,0,80
1,note_on,64,63,0
1,note_on,64,0,80
1,note_on,65,54,0
1,note_on,65,0,80
1,note_on,64,54,0
1,note_on,64,0,80
1,note_on,61,0,0
1,note_on,74,68,240
1,note_on,77,68,0
1,note_on,81,68,0
1,note_on,81,0,120
1,note_on,77,0,0
1,note_on,74,0,0
1,note_on,69,60,0
1,note_on,69,0,120
1,note_on,75,39,480
1,note_on,81,50,0
1,note_on,81,0,80
1,note_on,82,47,0
1,note_on,82,0,80
1,note_on,81,47,0
1,note_on,81,0,80
1,note_on,79,50,0
1,note_on,79,0,120
1,note_on,78,47,0
1,note_on,78,0,120
1,note_on,75,0,0
1,note_on,74,39,0
1,note_on,81,53,0
1,note_on,81,0,240
1,note_on,74,0,0
1,note_on,74,39,0
1,note_on,79,51,0
1,note_on,79,0,90
1,note_on,77,48,30
1,note_on,77,0,90
1,note_on,76,49,30
1,note_on,76,0,90
1,note_on,77,46,30
1,note_on,77,0,90
1,note_on,74,0,30
1,note_on,73,39,0
1,note_on,76,51,0
1,note_on,76,0,90
1,note_on,77,48,30
1,note_on,77,0,90
1,note_on,73,0,30
1,note_on,73,46,0
1,note_on,79,50,0
1,note_on,79,0,80
1,note_on,81,47,0
1,note_on,81,0,80
1,note_on,79,47,0
1,note_on,79,0,80
1,note_on,73,0,0
1,note_on,73,43,0
1,note_on,77,50,0
1,note_on,77,0,120
1,note_on,76,47,0
1,note_on,76,0,120
1,note_on,73,0,0
1,note_on,73,39,0
1,note_on,79,53,0
1,note_on,79,0,240
1,note_on,76,51,0
1,note_on,76,0,90
1,note_on,77,48,30
1,note_on,77,0,90
1,note_on,73,0,30
1,note_on,69,43,0
1,note_on,74,49,0
1,note_on,74,0,240
1,note_on,69,0,0
1,note_on,75,39,240
1,note_on,81,50,0
1,note_on,81,0,80
1,note_on,82,47,0
1,note_on,82,0,80
1,note_on,81,47,0
1,note_on,81,0,80
1,note_on,79,50,0
1,note_on,79,0,120
1,note_on,78,47,0
1,note_on,78,0,120
1,note_on,75,0,0
1,note_on,74,39,0
1,note_on,81,53,0
1,note_on,81,0,240
1,note_on,74,0,0
1,note_on,74,39,0
1,note_on,79,51,0
1,note_on,79,0,90
1,note_on,77,48,30
1,note_on,77,0,90
1,note_on,76,49,30
1,note_on,76,0,90
1,note_on,77,46,30
1,note_on,77,0,90
1,note_on,74,0,30
1,note_on,73,39,0
1,note_on,76,51,0
1,note_on,76,0,90
1,note_on,77,48,30
1,note_on,77,0,90
1,note_on,73,0,30
1,note_on,73,46,0
1,note_on,79,50,0
1,note_on,79,0,80
1,note_on,81,47,0
1,note_on,81,0,80
1,note_on,79,47,0
1,note_on,79,0,80
1,note_on,73,0,0
1,note_on,73,43,0
1,note_on,77,50,0
1,note_on,77,0,120
1,note_on,76,47,0
1,note_on,76,0,120
1,note_on,73,0,0
1,note_on,73,39,0
1,note_on,79,53,0
1,note_on,79,0,240
1,note_on,76,51,0
1,note_on,76,0,90
1,note_on,77,48,30
1,note_on,77,0,90
1,note_on,73,0,30
1,note_on,69,43,0
1,note_on,74,49,0
1,note_on,74,0,240
1,note_on,69,0,0
1,note_on,75,57,240
1,note_on,81,57,0
1,note_on,81,0,80
1,note_on,82,48,0
1,note_on,82,0,80
1,note_on,81,48,0
1,note_on,81,0,80
1,note_on,75,0,0
1,note_on,79,55,0
1,note_on,79,0,120
1,note_on,78,48,0
1,note_on,78,0,120
1,note_on,75,56,0
1,note_on,81,56,0
1,note_on,81,0,120
1,note_on,75,0,0
1,note_on,81,59,120
1,note_on,87,59,0
1,note_on,87,0,120
1,note_on,81,0,0
1,note_on,75,57,0
1,note_on,75,0,120
1,note_on,93,63,0
1,note_on,93,0,120
1,note_on,75,60,360
1,note_on,81,60,0
1,note_on,81,0,80
1,note_on,82,51,0
1,note_on,82,0,80
1,note_on,81,51,0
1,note_on,81,0,80
1,note_on,75,0,0
1,note_on,79,58,0
1,note_on,79,0,120
1,note_on,78,51,0
1,note_on,78,0,120
1,note_on,75,59,0
1,note_on,81,59,0
1,note_on,81,0,120
1,note_on,75,0,0
1,note_on,81,63,120
1,note_on,87,63,0
1,note_on,87,0,120
1,note_on,81,0,0
1,note_on,75,57,0
1,note_on,75,0,120
1,note_on,93,65,0
1,note_on,93,0,120
1,note_on,75,63,360
1,note_on,81,63,0
1,note_on,81,0,80
1,note_on,82,53,0
1,note_on,82,0,80
1,note_on,81,53,0
1,note_on,81,0,80
1,note_on,75,0,0
1,note_on,79,60,0
1,note_on,79,0,120
1,note_on,78,53,0
1,note_on,78,0,120
1,note_on,75,60,0
1,note_on,81,60,0
1,note_on,81,0,120
1,note_on,75,0,0
1,note_on,75,64,120
1,note_on,81,64,0
1,note_on,81,0,80
1,note_on,82,54,0
1,note_on,82,0,80
1,note_on,81,53,0
1,note_on,81,0,80
1,note_on,75,0,0
1,note_on,79,60,0
1,note_on,79,0,120
1,note_on,78,52,0
1,note_on,78,0,120
1,note_on,75,60,0
1,note_on,81,60,0
1,note_on,81,0,120
1,note_on,75,0,0
1,note_on,75,74,120
1,note_on,81,74,0
1,note_on,81,0,80
1,note_on,83,65,0
1,note_on,83,0,80
1,note_on,81,66,0
1,note_on,81,0,80
1,note_on,75,0,0
1,note_on,80,72,0
1,note_on,80,0,120
1,note_on,81,67,0
1,note_on,81,0,120
1,note_on,75,83,0
1,note_on,81,83,0
1,note_on,87,83,0
1,note_on,87,0,120
1,note_on,81,0,0
1,note_on,75,0,0
1,note_on,87,81,120
1,note_on,93,81,0
1,note_on,93,0,80
1,note_on,95,71,0
1,note_on,95,0,80
1,note_on,93,72,0
1,note_on,93,0,80
1,note_on,87,0,0
1,note_on,92,79,0
1,note_on,92,0,120
1,note_on,93,73,0
1,note_on,93,0,90
1,note_on,93,74,0
1,note_on,97,78,15
1,note_on,100,95,15
1,note_on,100,0,210
1,note_on,97,0,0
1,note_on,93,0,0
1,note_on,81,38,0
1,note_on,85,39,15
1,note_on,88,45,15
1,note_on,88,0,210
1,note_on,85,0,0
1,note_on,81,0,0
1,note_on,81,40,0
1,note_on,85,41,15
1,note_on,88,45,15
1,note_on,88,0,210
1,note_on,85,0,0
1,note_on,81,0,0
1,note_on,81,41,0
1,note_on,85,41,15
1,note_on,88,45,15
1,note_on,88,0,210
1,note_on,85,0,0
1,note_on,81,0,0
1,note_on,81,40,0
1,note_on,85,40,15
1,note_on,88,45,15
1,note_on,88,0,210
1,note_on,85,0,0
1,note_on,81,0,0
1,note_on,81,39,0
1,note_on,85,40,15
1,note_on,88,45,15
1,note_on,76,34,195
1,note_on,88,0,15
1,note_on,81,0,0
1,note_on,85,0,0
1,note_on,80,34,0
1,note_on,86,39,15
1,note_on,88,45,15
1,note_on,88,0,195
1,note_on,76,0,0
1,note_on,80,0,0
1,note_on,86,0,0
1,note_on,76,34,0
1,note_on,80,34,15
1,note_on,86,39,15
1,note_on,88,45,15
1,note_on,88,0,195
1,note_on,76,0,0
1,note_on,80,0,0
1,note_on,86,0,0
1,note_on,76,34,0
1,note_on,80,34,15
1,note_on,86,39,15
1,note_on,88,45,15
1,note_on,88,0,195
1,note_on,76,0,0
1,note_on,80,0,0
1,note_on,86,0,0
1,note_on,76,34,0
1,note_on,80,34,15
1,note_on,86,39,15
1,note_on,88,45,15
1,note_on,88,0,195
1,note_on,76,0,0
1,note_on,80,0,0
1,note_on,86,0,0
1,note_on,76,34,0
1,note_on,80,34,15
1,note_on,86,39,15
1,note_on,88,45,15
1,note_on,88,0,195
1,note_on,76,0,0
1,note_on,80,0,0
1,note_on,86,0,0
1,note_on,76,34,0
1,note_on,80,34,15
1,note_on,86,39,15
1,note_on,88,45,15
1,note_on,88,0,210
1,note_on,76,0,0
1,note_on,80,0,0
1,note_on,86,0,0
1,note_on,80,34,0
1,note_on,86,39,15
1,note_on,88,45,15
1,note_on,88,0,210
1,note_on,86,0,0
1,note_on,80,0,0
1,note_on,80,34,0
1,note_on,86,39,15
1,note_on,88,45,15
1,note_on,88,0,210
1,note_on,86,0,0
1,note_on,80,0,0
1,note_on,80,34,0
1,note_on,86,39,15
1,note_on,88,45,15
1,note_on,88,0,210
1,note_on,86,0,0
1,note_on,80,0,0
1,note_on,80,34,0
1,note_on,86,39,15
1,note_on,88,45,15
1,note_on,88,0,210
1,note_on,86,0,0
1,note_on,80,0,0
1,note_on,80,34,0
1,note_on,86,39,15
1,note_on,88,45,15
1,note_on,88,0,210
1,note_on,86,0,0
1,note_on,80,0,0
1,note_on,80,34,0
1,note_on,86,39,15
1,note_on,88,45,15
1,note_on,88,0,210
1,note_on,86,0,0
1,note_on,80,0,0
1,note_on,81,41,0
1,note_on,85,41,15
1,note_on,88,45,15
1,note_on,88,0,210
1,note_on,85,0,0
1,note_on,81,0,0
1,note_on,81,40,0
1,note_on,85,40,15
1,note_on,88,45,15
1,note_on,88,0,210
1,note_on,85,0,0
1,note_on,81,0,0
1,note_on,81,39,0
1,note_on,85,40,15
1,note_on,88,45,15
1,note_on,88,0,210
1,note_on,85,0,0
1,note_on,81,0,0
1,note_on,81,41,0
1,note_on,85,41,15
1,note_on,88,45,15
1,note_on,88,0,210
1,note_on,85,0,0
1,note_on,81,0,0
1,note_on,81,40,0
1,note_on,85,40,15
1,note_on,88,45,15
1,note_on,88,0,210
1,note_on,85,0,0
1,note_on,81,0,0
1,note_on,81,39,0
1,note_on,85,40,15
1,note_on,88,45,15
1,note_on,88,0,210
1,note_on,85,0,0
1,note_on,81,0,0
1,note_on,80,41,0
1,note_on,86,41,15
1,note_on,88,45,15
1,note_on,88,0,210
1,note_on,86,0,0
1,note_on,80,0,0
1,note_on,80,40,0
1,note_on,86,40,15
1,note_on,88,45,15
1,note_on,88,0,210
1,note_on,86,0,0
1,note_on,80,0,0
1,note_on,80,39,0
1,note_on,86,40,15
1,note_on,88,45,15
1,note_on,88,0,210
1,note_on,86,0,0
1,note_on,80,0,0
1,note_on,80,34,0
1,note_on,86,39,15
1,note_on,88,45,15
1,note_on,88,0,210
1,note_on,86,0,0
1,note_on,80,0,0
1,note_on,80,34,0
1,note_on,86,39,15
1,note_on,88,45,15
1,note_on,88,0,210
1,note_on,86,0,0
1,note_on,80,0,0
1,note_on,80,34,0
1,note_on,86,39,15
1,note_on,88,45,15
1,note_on,88,0,210
1,note_on,86,0,0
1,note_on,80,0,0
1,note_on,80,34,0
1,note_on,86,39,15
1,note_on,88,45,15
1,note_on,88,0,210
1,note_on,86,0,0
1,note_on,80,0,0
1,note_on,80,34,0
1,note_on,86,39,15
1,note_on,88,45,15
1,note_on,88,0,210
1,note_on,86,0,0
1,note_on,80,0,0
1,note_on,80,34,0
1,note_on,86,39,15
1,note_on,88,45,15
1,note_on,88,0,210
1,note_on,86,0,0
1,note_on,80,0,0
1,note_on,80,34,0
1,note_on,86,39,15
1,note_on,88,45,15
1,note_on,88,0,210
1,note_on,86,0,0
1,note_on,80,0,0
1,note_on,80,34,0
1,note_on,86,39,15
1,note_on,88,45,15
1,note_on,88,0,210
1,note_on,86,0,0
1,note_on,80,0,0
1,note_on,80,34,0
1,note_on,86,39,15
1,note_on,88,45,15
1,note_on,88,0,210
1,note_on,86,0,0
1,note_on,80,0,0
1,note_on,81,34,0
1,note_on,85,39,15
1,note_on,88,45,15
1,note_on,88,0,210
1,note_on,85,0,0
1,note_on,81,0,0
1,note_on,81,34,0
1,note_on,85,39,15
1,note_on,88,45,15
1,note_on,88,0,210
1,note_on,85,0,0
1,note_on,81,0,0
1,note_on,81,34,0
1,note_on,85,39,15
1,note_on,88,45,15
1,note_on,88,0,210
1,note_on,85,0,0
1,note_on,81,0,0
1,note_on,81,34,0
1,note_on,85,39,15
1,note_on,88,45,15
1,note_on,88,0,210
1,note_on,85,0,0
1,note_on,81,0,0
1,note_on,81,34,0
1,note_on,85,39,15
1,note_on,88,45,15
1,note_on,88,0,210
1,note_on,85,0,0
1,note_on,81,0,0
1,note_on,81,34,0
1,note_on,85,39,15
1,note_on,88,45,15
1,note_on,88,0,210
1,note_on,85,0,0
1,note_on,81,0,0
1,note_on,81,41,0
1,note_on,85,41,15
1,note_on,88,45,15
1,note_on,88,0,210
1,note_on,85,0,0
1,note_on,81,0,0
1,note_on,81,41,0
1,note_on,85,41,15
1,note_on,88,46,15
1,note_on,88,0,210
1,note_on,85,0,0
1,note_on,81,0,0
1,note_on,81,41,0
1,note_on,85,42,15
1,note_on,88,48,15
1,note_on,88,0,210
1,note_on,85,0,0
1,note_on,81,0,0
1,note_on,81,41,0
1,note_on,85,41,15
1,note_on,88,45,15
1,note_on,88,0,210
1,note_on,85,0,0
1,note_on,81,0,0
1,note_on,81,40,0
1,note_on,85,40,15
1,note_on,88,45,15
1,note_on,88,0,210
1,note_on,85,0,0
1,note_on,81,0,0
1,note_on,81,39,0
1,note_on,85,40,15
1,note_on,88,45,15
1,note_on,88,0,195
1,note_on,85,0,0
1,note_on,81,0,0
1,note_on,76,34,0
1,note_on,80,34,15
1,note_on,86,39,15
1,note_on,88,45,15
1,note_on,88,0,195
1,note_on,76,0,0
1,note_on,80,0,0
1,note_on,86,0,0
1,note_on,76,34,0
1,note_on,80,34,15
1,note_on,86,39,15
1,note_on,88,45,15
1,note_on,88,0,195
1,note_on,76,0,0
1,note_on,80,0,0
1,note_on,86,0,0
1,note_on,76,34,0
1,note_on,80,34,15
1,note_on,86,39,15
1,note_on,88,45,15
1,note_on,88,0,195
1,note_on,76,0,0
1,note_on,80,0,0
1,note_on,86,0,0
1,note_on,76,34,0
1,note_on,80,34,15
1,note_on,86,39,15
1,note_on,88,45,15
1,note_on,88,0,195
1,note_on,76,0,0
1,note_on,80,0,0
1,note_on,86,0,0
1,note_on,76,34,0
1,note_on,80,34,15
1,note_on,86,39,15
1,note_on,88,45,15
1,note_on,88,0,195
1,note_on,76,0,0
1,note_on,80,0,0
1,note_on,86,0,0
1,note_on,76,34,0
1,note_on,80,34,15
1,note_on,86,39,15
1,note_on,88,45,15
1,note_on,88,0,195
1,note_on,76,0,0
1,note_on,80,0,0
1,note_on,86,0,0
1,note_on,76,34,0
1,note_on,80,34,15
1,note_on,86,39,15
1,note_on,88,45,15
1,note_on,88,0,195
1,note_on,76,0,0
1,note_on,80,0,0
1,note_on,86,0,0
1,note_on,76,34,0
1,note_on,80,34,15
1,note_on,86,39,15
1,note_on,88,45,15
1,note_on,88,0,195
1,note_on,76,0,0
1,note_on,80,0,0
1,note_on,86,0,0
1,note_on,76,34,0
1,note_on,80,34,15
1,note_on,86,39,15
1,note_on,88,45,15
1,note_on,88,0,195
1,note_on,76,0,0
1,note_on,80,0,0
1,note_on,86,0,0
1,note_on,76,34,0
1,note_on,80,34,15
1,note_on,86,39,15
1,note_on,88,45,15
1,note_on,88,0,195
1,note_on,76,0,0
1,note_on,80,0,0
1,note_on,86,0,0
1,note_on,76,34,0
1,note_on,80,34,15
1,note_on,86,39,15
1,note_on,88,45,15
1,note_on,88,0,195
1,note_on,76,0,0
1,note_on,80,0,0
1,note_on,86,0,0
1,note_on,76,34,0
1,note_on,80,34,15
1,note_on,86,39,15
1,note_on,88,45,15
1,note_on,88,0,195
1,note_on,76,0,0
1,note_on,80,0,0
1,note_on,86,0,0
1,note_on,76,34,0
1,note_on,81,34,15
1,note_on,85,39,15
1,note_on,88,45,15
1,note_on,88,0,195
1,note_on,76,0,0
1,note_on,81,0,0
1,note_on,85,0,0
1,note_on,76,34,0
1,note_on,81,34,15
1,note_on,85,39,15
1,note_on,88,45,15
1,note_on,88,0,195
1,note_on,76,0,0
1,note_on,81,0,0
1,note_on,85,0,0
1,note_on,76,34,0
1,note_on,81,34,15
1,note_on,85,39,15
1,note_on,88,45,15
1,note_on,88,0,195
1,note_on,76,0,0
1,note_on,81,0,0
1,note_on,85,0,0
1,note_on,76,34,0
1,note_on,81,34,15
1,note_on,85,39,15
1,note_on,88,44,15
1,note_on,88,0,195
1,note_on,76,0,0
1,note_on,81,0,0
1,note_on,85,0,0
1,note_on,76,31,0
1,note_on,81,31,15
1,note_on,85,36,15
1,note_on,88,41,15
1,note_on,88,0,195
1,note_on,76,0,0
1,note_on,81,0,0
1,note_on,85,0,0
1,note_on,76,29,0
1,note_on,81,29,15
1,note_on,85,33,15
1,note_on,88,38,15
1,note_on,88,0,195
1,note_on,76,0,0
1,note_on,81,0,0
1,note_on,85,0,0
1,note_on,76,27,0
1,note_on,81,27,15
1,note_on,84,31,15
1,note_on,88,36,15
1,note_on,88,0,195
1,note_on,76,0,0
1,note_on,81,0,0
1,note_on,84,0,0
1,note_on,76,27,0
1,note_on,81,27,15
1,note_on,84,31,15
1,note_on,88,36,15
1,note_on,88,0,195
1,note_on,76,0,0
1,note_on,81,0,0
1,note_on,84,0,0
1,note_on,76,27,0
1,note_on,81,27,15
1,note_on,84,31,15
1,note_on,88,36,15
1,note_on,88,0,195
1,note_on,76,0,0
1,note_on,81,0,0
1,note_on,84,0,0
1,note_on,76,27,0
1,note_on,81,27,15
1,note_on,84,31,15
1,note_on,88,36,15
1,note_on,88,0,195
1,note_on,76,0,0
1,note_on,81,0,0
1,note_on,84,0,0
1,note_on,76,27,0
1,note_on,81,27,15
1,note_on,84,31,15
1,note_on,88,36,15
1,note_on,88,0,195
1,note_on,76,0,0
1,note_on,81,0,0
1,note_on,84,0,0
1,note_on,76,27,0
1,note_on,81,27,15
1,note_on,84,31,15
1,note_on,88,36,15
1,note_on,88,0,195
1,note_on,76,0,0
1,note_on,81,0,0
1,note_on,84,0,0
1,note_on,68,51,285
1,note_on,71,54,0
1,note_on,74,72,0
1,note_on,74,0,80
1,note_on,76,60,0
1,note_on,76,0,80
1,note_on,74,59,0
1,note_on,74,0,80
1,note_on,71,0,0
1,note_on,68,0,0
1,note_on,71,54,0
1,note_on,68,68,0
1,note_on,73,68,0
1,note_on,73,0,90
1,note_on,68,0,0
1,note_on,71,0,30
1,note_on,80,51,120
1,note_on,83,53,0
1,note_on,86,72,0
1,note_on,86,0,80
1,note_on,88,61,0
1,note_on,88,0,80
1,note_on,86,61,0
1,note_on,86,0,80
1,note_on,83,0,0
1,note_on,80,0,0
1,note_on,83,61,0
1,note_on,80,62,0
1,note_on,85,68,0
1,note_on,85,0,90
1,note_on,80,0,0
1,note_on,83,0,0
1,note_on,92,51,150
1,note_on,95,53,0
1,note_on,98,72,0
1,note_on,98,0,80
1,note_on,100,60,0
1,note_on,100,0,80
1,note_on,98,61,0
1,note_on,98,0,80
1,note_on,95,0,0
1,note_on,92,0,0
1,note_on,95,62,0
1,note_on,92,64,0
1,note_on,97,71,0
1,note_on,97,0,90
1,note_on,92,0,0
1,note_on,95,0,0
1,note_on,80,53,150
1,note_on,83,55,0
1,note_on,86,75,0
1,note_on,86,0,80
1,note_on,88,65,0
1,note_on,88,0,80
1,note_on,86,67,0
1,note_on,86,0,80
1,note_on,83,0,0
1,note_on,80,0,0
1,note_on,83,59,0
1,note_on,80,59,0
1,note_on,85,71,0
1,note_on,85,0,90
1,note_on,80,0,0
1,note_on,83,0,0
1,note_on,67,57,150
1,note_on,70,59,0
1,note_on,74,81,0
1,note_on,74,0,80
1,note_on,76,72,0
1,note_on,76,0,80
1,note_on,74,72,0
1,note_on,74,0,80
1,note_on,70,0,0
1,note_on,67,0,0
1,note_on,70,70,0
1,note_on,67,70,0
1,note_on,72,77,0
1,note_on,72,0,90
1,note_on,67,0,0
1,note_on,70,0,0
1,note_on,84,84,150
1,note_on,88,84,0
1,note_on,96,84,0
1,note_on,94,84,0
1,note_on,94,0,240
1,note_on,84,0,0
1,note_on,88,0,0
1,note_on,96,0,0
1,note_on,69,71,0
1,note_on,77,87,0
1,note_on,77,0,240
1,note_on,69,0,0
1,note_on,69,71,0
1,note_on,76,77,0
1,note_on,76,0,80
1,note_on,77,66,0
1,note_on,77,0,80
1,note_on,76,67,0
1,note_on,76,0,80
1,note_on,69,0,0
1,note_on,69,67,0
1,note_on,74,77,0
1,note_on,74,0,120
1,note_on,76,70,0
1,note_on,76,0,120
1,note_on,69,0,0
1,note_on,69,58,0
1,note_on,77,79,0
1,note_on,77,0,120
1,note_on,74,71,0
1,note_on,74,0,120
1,note_on,69,0,0
1,note_on,69,67,0
1,note_on,76,78,0
1,note_on,76,0,90
1,note_on,69,0,0
1,note_on,69,67,150
1,note_on,72,75,0
1,note_on,72,0,90
1,note_on,69,0,0
1,note_on,69,68,150
1,note_on,77,83,0
1,note_on,77,0,240
1,note_on,69,0,0
1,note_on,69,68,0
1,note_on,76,74,0
1,note_on,76,0,80
1,note_on,77,67,0
1,note_on,77,0,80
1,note_on,76,67,0
1,note_on,76,0,80
1,note_on,69,0,0
1,note_on,69,64,0
1,note_on,74,74,0
1,note_on,74,0,120
1,note_on,76,69,0
1,note_on,76,0,120
1,note_on,69,0,0
1,note_on,69,56,0
1,note_on,77,76,0
1,note_on,77,0,120
1,note_on,74,67,0
1,note_on,74,0,120
1,note_on,69,0,0
1,note_on,69,64,0
1,note_on,76,75,0
1,note_on,76,0,90
1,note_on,69,0,0
1,note_on,69,64,150
1,note_on,72,72,0
1,note_on,72,0,90
1,note_on,69,0,0
1,note_on,69,59,150
1,note_on,74,77,0
1,note_on,74,0,120
1,note_on,76,72,0
1,note_on,76,0,120
1,note_on,69,0,0
1,note_on,69,48,0
1,note_on,72,75,0
1,note_on,72,0,210
1,note_on,69,0,0
1,note_on,69,56,30
1,note_on,74,72,0
1,note_on,74,0,120
1,note_on,76,73,0
1,note_on,76,0,120
1,note_on,69,0,0
1,note_on,69,59,0
1,note_on,77,76,0
1,note_on,77,0,210
1,note_on,69,0,0
1,note_on,69,59,30
1,note_on,74,77,0
1,note_on,74,0,120
1,note_on,76,72,0
1,note_on,76,0,120
1,note_on,69,0,0
1,note_on,69,48,0
1,note_on,72,68,0
1,note_on,72,0,210
1,note_on,69,0,0
1,note_on,69,50,30
1,note_on,74,78,0
1,note_on,74,0,120
1,note_on,76,71,0
1,note_on,76,0,120
1,note_on,69,0,0
1,note_on,69,45,0
1,note_on,72,74,0
1,note_on,72,0,210
1,note_on,69,0,0
1,note_on,69,55,30
1,note_on,74,71,0
1,note_on,74,0,120
1,note_on,76,73,0
1,note_on,76,0,120
1,note_on,69,0,0
1,note_on,69,59,0
1,note_on,79,77,0
1,note_on,79,0,120
1,note_on,77,71,0
1,note_on,77,0,120
1,note_on,69,0,0
1,note_on,69,59,0
1,note_on,74,76,0
1,note_on,74,0,120
1,note_on,76,72,0
1,note_on,76,0,120
1,note_on,69,0,0
1,note_on,69,49,0
1,note_on,72,68,0
1,note_on,72,0,240
1,note_on,69,0,0
1,note_on,58,35,240
1,note_on,62,41,0
1,note_on,65,46,0
1,note_on,65,0,120
1,note_on,62,0,0
1,note_on,58,0,0
1,note_on,55,40,0
1,note_on,55,0,120
1,note_on,70,41,240
1,note_on,74,41,0
1,note_on,77,46,0
1,note_on,77,0,120
1,note_on,74,0,0
1,note_on,70,0,0
1,note_on,67,38,0
1,note_on,67,0,120
1,note_on,89,46,240
1,note_on,86,41,0
1,note_on,82,41,0
1,note_on,82,0,120
1,note_on,86,0,0
1,note_on,89,0,0
1,note_on,79,43,0
1,note_on,79,0,120
1,note_on,82,48,240
1,note_on,77,42,0
1,note_on,77,0,60
1,note_on,82,0,0
1,note_on,82,48,60
1,note_on,77,42,0
1,note_on,77,0,60
1,note_on,82,0,0
1,note_on,89,51,60
1,note_on,82,46,0
1,note_on,82,0,120
1,note_on,89,0,0
1,note_on,82,49,120
1,note_on,77,44,0
1,note_on,77,0,120
1,note_on,82,0,0
1,note_on,89,51,120
1,note_on,82,46,0
1,note_on,82,0,120
1,note_on,89,0,0
1,note_on,82,49,120
1,note_on,77,44,0
1,note_on,77,0,120
1,note_on,82,0,0
1,note_on,58,41,360
1,note_on,62,41,0
1,note_on,65,46,0
1,note_on,65,0,120
1,note_on,62,0,0
1,note_on,58,0,0
1,note_on,55,38,0
1,note_on,55,0,120
1,note_on,70,41,240
1,note_on,74,41,0
1,note_on,77,46,0
1,note_on,77,0,120
1,note_on,74,0,0
1,note_on,70,0,0
1,note_on,67,39,0
1,note_on,67,0,120
1,note_on,89,46,240
1,note_on,86,41,0
1,note_on,82,41,0
1,note_on,82,0,120
1,note_on,86,0,0
1,note_on,89,0,0
1,note_on,79,38,0
1,note_on,79,0,120
1,note_on,79,42,240
1,note_on,86,48,0
1,note_on,82,42,0
1,note_on,82,0,60
1,note_on,86,0,0
1,note_on,79,0,0
1,note_on,79,42,60
1,note_on,86,48,0
1,note_on,82,42,0
1,note_on,82,0,60
1,note_on,86,0,0
1,note_on,79,0,0
1,note_on,79,46,60
1,note_on,91,51,0
1,note_on,82,46,0
1,note_on,82,0,120
1,note_on,91,0,0
1,note_on,79,0,0
1,note_on,86,48,120
1,note_on,82,42,0
1,note_on,79,42,0
1,note_on,79,0,60
1,note_on,82,0,0
1,note_on,86,0,0
1,note_on,82,42,60
1,note_on,79,42,0
1,note_on,86,48,0
1,note_on,86,0,60
1,note_on,79,0,0
1,note_on,82,0,0
1,note_on,79,46,60
1,note_on,82,46,0
1,note_on,91,51,0
1,note_on,91,0,120
1,note_on,82,0,0
1,note_on,79,0,0
1,note_on,79,44,120
1,note_on,82,44,0
1,note_on,84,49,0
1,note_on,84,0,120
1,note_on,82,0,0
1,note_on,79,0,0
1,note_on,69,73,120
1,note_on,77,89,0
1,note_on,77,0,240
1,note_on,69,0,0
1,note_on,69,73,0
1,note_on,76,79,0
1,note_on,76,0,80
1,note_on,77,69,0
1,note_on,77,0,80
1,note_on,76,69,0
1,note_on,76,0,80
1,note_on,69,0,0
1,note_on,69,69,0
1,note_on,74,79,0
1,note_on,74,0,120
1,note_on,76,69,0
1,note_on,76,0,120
1,note_on,69,0,0
1,note_on,69,60,0
1,note_on,77,81,0
1,note_on,77,0,120
1,note_on,74,72,0
1,note_on,74,0,120
1,note_on,69,0,0
1,note_on,69,69,0
1,note_on,76,80,0
1,note_on,76,0,90
1,note_on,69,0,0
1,note_on,69,69,150
1,note_on,72,77,0
1,note_on,72,0,90
1,note_on,69,0,0
1,note_on,69,70,150
1,note_on,77,85,0
1,note_on,77,0,240
1,note_on,69,0,0
1,note_on,69,70,0
1,note_on,76,76,0
1,note_on,76,0,80
1,note_on,77,68,0
1,note_on,77,0,80
1,note_on,76,68,0
1,note_on,76,0,80
1,note_on,69,0,0
1,note_on,69,66,0
1,note_on,74,76,0
1,note_on,74,0,120
1,note_on,76,69,0
1,note_on,76,0,120
1,note_on,69,0,0
1,note_on,69,58,0
1,note_on,77,78,0
1,note_on,77,0,120
1,note_on,74,71,0
1,note_on,74,0,120
1,note_on,69,0,0
1,note_on,69,66,0
1,note_on,76,77,0
1,note_on,76,0,90
1,note_on,69,0,0
1,note_on,69,66,150
1,note_on,72,74,0
1,note_on,72,0,90
1,note_on,69,0,0
1,note_on,69,61,150
1,note_on,74,79,0
1,note_on,74,0,120
1,note_on,76,74,0
1,note_on,76,0,120
1,note_on,69,0,0
1,note_on,69,49,0
1,note_on,72,77,0
1,note_on,72,0,210
1,note_on,69,0,0
1,note_on,69,58,30
1,note_on,74,74,0
1,note_on,74,0,120
1,note_on,76,75,0
1,note_on,76,0,120
1,note_on,69,0,0
1,note_on,69,61,0
1,note_on,77,78,0
1,note_on,77,0,210
1,note_on,69,0,0
1,note_on,69,61,30
1,note_on,74,79,0
1,note_on,74,0,120
1,note_on,76,74,0
1,note_on,76,0,120
1,note_on,69,0,0
1,note_on,69,49,0
1,note_on,72,77,0
1,note_on,72,0,210
1,note_on,69,0,0
1,note_on,69,52,30
1,note_on,74,80,0
1,note_on,74,0,120
1,note_on,76,73,0
1,note_on,76,0,120
1,note_on,69,0,0
1,note_on,69,46,0
1,note_on,72,76,0
1,note_on,72,0,210
1,note_on,69,0,0
1,note_on,69,57,30
1,note_on,74,73,0
1,note_on,74,0,120
1,note_on,76,75,0
1,note_on,76,0,120
1,note_on,69,0,0
1,note_on,69,61,0
1,note_on,79,79,0
1,note_on,79,0,120
1,note_on,77,73,0
1,note_on,77,0,120
1,note_on,69,0,0
1,note_on,69,61,0
1,note_on,74,78,0
1,note_on,74,0,120
1,note_on,76,74,0
1,note_on,76,0,120
1,note_on,69,0,0
1,note_on,69,51,0
1,note_on,72,70,0
1,note_on,72,0,240
1,note_on,69,0,0
1,note_on,58,56,240
1,note_on,62,66,0
1,note_on,65,74,0
1,note_on,65,0,120
1,note_on,62,0,0
1,note_on,58,0,0
1,note_on,55,69,0
1,note_on,55,0,120
1,note_on,70,66,240
1,note_on,74,66,0
1,note_on,77,74,0
1,note_on,77,0,120
1,note_on,74,0,0
1,note_on,70,0,0
1,note_on,67,65,0
1,note_on,67,0,120
1,note_on,89,74,240
1,note_on,86,66,0
1,note_on,82,66,0
1,note_on,82,0,120
1,note_on,86,0,0
1,note_on,89,0,0
1,note_on,79,67,0
1,note_on,79,0,120
1,note_on,82,82,240
1,note_on,77,72,0
1,note_on,77,0,60
1,note_on,82,0,0
1,note_on,82,82,60
1,note_on,77,72,0
1,note_on,77,0,60
1,note_on,82,0,0
1,note_on,89,87,60
1,note_on,82,78,0
1,note_on,82,0,120
1,note_on,89,0,0
1,note_on,82,84,120
1,note_on,77,75,0
1,note_on,77,0,120
1,note_on,82,0,0
1,note_on,89,87,120
1,note_on,82,78,0
1,note_on,82,0,120
1,note_on,89,0,0
1,note_on,82,84,120
1,note_on,77,75,0
1,note_on,77,0,120
1,note_on,82,0,0
1,note_on,58,66,360
1,note_on,62,66,0
1,note_on,65,74,0
1,note_on,65,0,120
1,note_on,62,0,0
1,note_on,58,0,0
1,note_on,55,67,0
1,note_on,55,0,120
1,note_on,70,66,240
1,note_on,74,66,0
1,note_on,77,74,0
1,note_on,77,0,120
1,note_on,74,0,0
1,note_on,70,0,0
1,note_on,67,69,0
1,note_on,67,0,120
1,note_on,89,72,240
1,note_on,86,66,0
1,note_on,82,66,0
1,note_on,82,0,120
1,note_on,86,0,0
1,note_on,89,0,0
1,note_on,79,68,0
1,note_on,79,0,120
1,note_on,79,72,240
1,note_on,86,82,0
1,note_on,82,72,0
1,note_on,82,0,60
1,note_on,86,0,0
1,note_on,79,0,0
1,note_on,79,72,60
1,note_on,86,82,0
1,note_on,82,72,0
1,note_on,82,0,60
1,note_on,86,0,0
1,note_on,79,0,0
1,note_on,79,78,60
1,note_on,91,87,0
1,note_on,82,78,0
1,note_on,82,0,120
1,note_on,91,0,0
1,note_on,79,0,0
1,note_on,86,82,120
1,note_on,82,72,0
1,note_on,79,72,0
1,note_on,79,0,60
1,note_on,82,0,0
1,note_on,86,0,0
1,note_on,82,72,60
1,note_on,79,72,0
1,note_on,86,82,0
1,note_on,86,0,60
1,note_on,79,0,0
1,note_on,82,0,0
1,note_on,79,78,60
1,note_on,82,78,0
1,note_on,91,87,0
1,note_on,91,0,120
1,note_on,82,0,0
1,note_on,79,0,0
1,note_on,79,75,120
1,note_on,82,75,0
1,note_on,84,84,0
1,note_on,84,0,120
1,note_on,82,0,0
1,note_on,79,0,0
1,note_on,69,54,120
1,note_on,77,54,0
1,note_on,81,54,0
1,note_on,79,45,120
1,note_on,79,0,60
1,note_on,69,0,0
1,note_on,77,0,0
1,note_on,81,0,0
1,note_on,81,45,0
1,note_on,81,0,60
1,note_on,79,53,0
1,note_on,79,0,120
1,note_on,77,49,0
1,note_on,77,0,120
1,note_on,69,46,0
1,note_on,69,0,120
1,note_on,77,46,0
1,note_on,77,0,120
1,note_on,81,51,0
1,note_on,81,0,120
1,note_on,79,47,0
1,note_on,79,0,120
1,note_on,77,53,0
1,note_on,77,0,120
1,note_on,69,45,0
1,note_on,69,0,120
1,note_on,65,48,0
1,note_on,65,0,120
1,note_on,69,44,0
1,note_on,69,0,120
1,note_on,77,57,0
1,note_on,81,57,0
1,note_on,79,51,120
1,note_on,79,0,60
1,note_on,81,0,0
1,note_on,77,0,0
1,note_on,81,51,0
1,note_on,81,0,60
1,note_on,79,57,0
1,note_on,79,0,120
1,note_on,77,55,0
1,note_on,77,0,120
1,note_on,69,51,0
1,note_on,69,0,120
1,note_on,77,53,0
1,note_on,77,0,120
1,note_on,81,60,0
1,note_on,81,0,120
1,note_on,79,56,0
1,note_on,79,0,120
1,note_on,77,62,0
1,note_on,77,0,120
1,note_on,69,49,0
1,note_on,69,0,120
1,note_on,65,57,0
1,note_on,65,0,120
1,note_on,69,51,0
1,note_on,69,0,120
1,note_on,69,66,0
1,note_on,77,66,0
1,note_on,81,66,0
1,note_on,79,58,120
1,note_on,79,0,60
1,note_on,69,0,0
1,note_on,77,0,0
1,note_on,81,0,0
1,note_on,81,59,0
1,note_on,81,0,60
1,note_on,79,67,0
1,note_on,79,0,120
1,note_on,77,64,0
1,note_on,77,0,120
1,note_on,69,59,0
1,note_on,69,0,120
1,note_on,77,61,0
1,note_on,77,0,120
1,note_on,74,70,0
1,note_on,77,70,0
1,note_on,81,70,0
1,note_on,79,61,120
1,note_on,79,0,60
1,note_on,74,0,0
1,note_on,77,0,0
1,note_on,81,0,0
1,note_on,81,61,0
1,note_on,81,0,60
1,note_on,79,71,0
1,note_on,79,0,120
1,note_on,77,60,0
1,note_on,77,0,120
1,note_on,69,63,0
1,note_on,69,0,120
1,note_on,67,58,0
1,note_on,67,0,120
1,note_on,65,57,0
1,note_on,69,57,0
1,note_on,74,78,0
1,note_on,74,0,120
1,note_on,72,70,0
1,note_on,72,0,120
1,note_on,69,0,0
1,note_on,65,0,0
1,note_on,69,61,0
1,note_on,72,61,0
1,note_on,79,82,0
1,note_on,79,0,120
1,note_on,77,75,0
1,note_on,77,0,120
1,note_on,72,0,0
1,note_on,69,0,0
1,note_on,77,63,0
1,note_on,81,63,0
1,note_on,86,85,0
1,note_on,86,0,120
1,note_on,84,75,0
1,note_on,84,0,120
1,note_on,81,0,0
1,note_on,77,0,0
1,note_on,76,75,0
1,note_on,82,75,0
1,note_on,86,100,0
1,note_on,86,0,120
1,note_on,84,83,0
1,note_on,84,0,120
1,note_on,82,0,0
1,note_on,76,0,0
1,note_on,94,74,0
1,note_on,88,74,0
1,note_on,98,99,0
1,note_on,98,0,120
1,note_on,96,80,0
1,note_on,96,0,120
1,note_on,88,0,0
1,note_on,94,0,0
1,note_on,82,74,0
1,note_on,76,74,0
1,note_on,86,99,0
1,note_on,86,0,120
1,note_on,84,79,0
1,note_on,84,0,120
1,note_on,76,0,0
1,note_on,82,0,0
1,note_on,69,54,0
1,note_on,77,54,0
1,note_on,81,54,0
1,note_on,79,48,120
1,note_on,79,0,60
1,note_on,69,0,0
1,note_on,77,0,0
1,note_on,81,0,0
1,note_on,81,48,0
1,note_on,81,0,60
1,note_on,79,53,0
1,note_on,79,0,120
1,note_on,77,49,0
1,note_on,77,0,120
1,note_on,69,46,0
1,note_on,69,0,120
1,note_on,77,46,0
1,note_on,77,0,120
1,note_on,81,51,0
1,note_on,81,0,120
1,note_on,79,47,0
1,note_on,79,0,120
1,note_on,77,53,0
1,note_on,77,0,120
1,note_on,69,45,0
1,note_on,69,0,120
1,note_on,65,48,0
1,note_on,65,0,120
1,note_on,69,43,0
1,note_on,69,0,120
1,note_on,77,57,0
1,note_on,81,57,0
1,note_on,79,51,120
1,note_on,79,0,60
1,note_on,81,0,0
1,note_on,77,0,0
1,note_on,81,51,0
1,note_on,81,0,60
1,note_on,79,57,0
1,note_on,79,0,120
1,note_on,77,55,0
1,note_on,77,0,120
1,note_on,69,51,0
1,note_on,69,0,120
1,note_on,77,53,0
1,note_on,77,0,120
1,note_on,81,60,0
1,note_on,81,0,120
1,note_on,79,56,0
1,note_on,79,0,120
1,note_on,77,62,0
1,note_on,77,0,120
1,note_on,69,52,0
1,note_on,69,0,120
1,note_on,65,57,0
1,note_on,65,0,120
1,note_on,69,50,0
1,note_on,69,0,120
1,note_on,69,66,0
1,note_on,77,66,0
1,note_on,81,66,0
1,note_on,79,58,120
1,note_on,79,0,60
1,note_on,69,0,0
1,note_on,77,0,0
1,note_on,81,0,0
1,note_on,81,56,0
1,note_on,81,0,60
1,note_on,79,67,0
1,note_on,79,0,120
1,note_on,77,64,0
1,note_on,77,0,120
1,note_on,69,59,0
1,note_on,69,0,120
1,note_on,77,61,0
1,note_on,77,0,120
1,note_on,74,70,0
1,note_on,77,70,0
1,note_on,81,70,0
1,note_on,79,63,120
1,note_on,79,0,60
1,note_on,74,0,0
1,note_on,77,0,0
1,note_on,81,0,0
1,note_on,81,63,0
1,note_on,81,0,60
1,note_on,79,71,0
1,note_on,79,0,120
1,note_on,77,63,0
1,note_on,77,0,120
1,note_on,69,63,0
1,note_on,69,0,120
1,note_on,67,57,0
1,note_on,67,0,120
1,note_on,65,57,0
1,note_on,69,57,0
1,note_on,74,78,0
1,note_on,74,0,120
1,note_on,72,69,0
1,note_on,72,0,120
1,note_on,69,0,0
1,note_on,65,0,0
1,note_on,69,61,0
1,note_on,72,61,0
1,note_on,79,82,0
1,note_on,79,0,120
1,note_on,77,73,0
1,note_on,77,0,120
1,note_on,72,0,0
1,note_on,69,0,0
1,note_on,77,63,0
1,note_on,81,63,0
1,note_on,86,85,0
1,note_on,86,0,120
1,note_on,84,76,0
1,note_on,84,0,120
1,note_on,81,0,0
1,note_on,77,0,0
1,note_on,76,75,0
1,note_on,82,75,0
1,note_on,86,100,0
1,note_on,86,0,120
1,note_on,84,77,0
1,note_on,84,0,120
1,note_on,82,0,0
1,note_on,76,0,0
1,note_on,94,74,0
1,note_on,88,74,0
1,note_on,98,99,0
1,note_on,98,0,120
1,note_on,96,80,0
1,note_on,96,0,120
1,note_on,88,0,0
1,note_on,94,0,0
1,note_on,82,74,0
1,note_on,76,74,0
1,note_on,86,99,0
1,note_on,86,0,120
1,note_on,84,76,0
1,note_on,84,0,120
1,note_on,76,0,0
1,note_on,82,0,0
1,note_on,56,60,240
1,note_on,61,73,0
1,note_on,65,80,0
1,note_on,65,0,120
1,note_on,61,0,0
1,note_on,56,0,0
1,note_on,53,71,0
1,note_on,53,0,120
1,note_on,68,73,240
1,note_on,73,73,0
1,note_on,77,80,0
1,note_on,77,0,120
1,note_on,73,0,0
1,note_on,68,0,0
1,note_on,65,71,0
1,note_on,65,0,120
1,note_on,89,79,240
1,note_on,85,72,0
1,note_on,80,72,0
1,note_on,80,0,120
1,note_on,85,0,0
1,note_on,89,0,0
1,note_on,77,72,0
1,note_on,77,0,120
1,note_on,89,81,240
1,note_on,83,71,0
1,note_on,83,0,60
1,note_on,89,0,0
1,note_on,89,81,60
1,note_on,83,71,0
1,note_on,83,0,60
1,note_on,89,0,0
1,note_on,95,85,60
1,note_on,89,76,0
1,note_on,89,0,120
1,note_on,95,0,0
1,note_on,89,82,120
1,note_on,83,73,0
1,note_on,83,0,120
1,note_on,89,0,0
1,note_on,95,85,120
1,note_on,89,76,0
1,note_on,89,0,120
1,note_on,95,0,0
1,note_on,89,82,120
1,note_on,83,73,0
1,note_on,83,0,120
1,note_on,89,0,0
1,note_on,56,60,360
1,note_on,61,73,0
1,note_on,65,80,0
1,note_on,65,0,120
1,note_on,61,0,0
1,note_on,56,0,0
1,note_on,53,71,0
1,note_on,53,0,120
1,note_on,68,73,240
1,note_on,73,73,0
1,note_on,77,80,0
1,note_on,77,0,120
1,note_on,73,0,0
1,note_on,68,0,0
1,note_on,65,71,0
1,note_on,65,0,120
1,note_on,89,80,240
1,note_on,85,73,0
1,note_on,80,73,0
1,note_on,80,0,120
1,note_on,85,0,0
1,note_on,89,0,0
1,note_on,77,73,0
1,note_on,77,0,120
1,note_on,89,90,240
1,note_on,83,79,0
1,note_on,83,0,60
1,note_on,89,0,0
1,note_on,89,81,60
1,note_on,83,71,0
1,note_on,83,0,60
1,note_on,89,0,0
1,note_on,95,85,60
1,note_on,89,76,0
1,note_on,89,0,120
1,note_on,95,0,0
1,note_on,89,82,120
1,note_on,83,73,0
1,note_on,83,0,120
1,note_on,89,0,0
1,note_on,95,85,120
1,note_on,89,76,0
1,note_on,89,0,120
1,note_on,95,0,0
1,note_on,89,82,120
1,note_on,83,73,0
1,note_on,83,0,120
1,note_on,89,0,0
1,note_on,89,76,120
1,note_on,96,78,0
1,note_on,101,90,0
1,note_on,101,0,60
1,note_on,96,0,0
1,note_on,89,0,0
1,note_on,91,69,60
1,note_on,91,0,60
1,note_on,93,70,0
1,note_on,93,0,60
1,note_on,91,75,0
1,note_on,91,0,120
1,note_on,89,68,0
1,note_on,89,0,120
1,note_on,86,72,0
1,note_on,86,0,120
1,note_on,79,62,240
1,note_on,79,0,60
1,note_on,81,63,0
1,note_on,81,0,60
1,note_on,79,69,0
1,note_on,79,0,120
1,note_on,77,68,0
1,note_on,77,0,120
1,note_on,74,72,0
1,note_on,74,0,120
1,note_on,67,62,240
1,note_on,67,0,60
1,note_on,69,63,0
1,note_on,69,0,60
1,note_on,67,69,0
1,note_on,67,0,120
1,note_on,65,68,0
1,note_on,65,0,120
1,note_on,62,72,0
1,note_on,62,0,120
1,note_on,55,63,240
1,note_on,55,0,60
1,note_on,57,63,0
1,note_on,57,0,60
1,note_on,55,70,0
1,note_on,55,0,120
1,note_on,53,67,0
1,note_on,53,0,120
1,note_on,48,73,0
1,note_on,48,0,120
1,note_on,65,68,795
1,note_on,70,74,15
1,note_on,73,79,15
1,note_on,77,87,15
1,note_on,77,0,720
1,note_on,65,0,0
1,note_on,70,0,0
1,note_on,73,0,0
1,note_on,89,101,0
1,note_on,84,85,0
1,note_on,81,85,0
1,note_on,77,85,0
1,note_on,77,0,720
1,note_on,89,0,0
1,note_on,84,0,0
1,note_on,81,0,0
1,note_on,93,107,240
1,note_on,89,107,0
1,note_on,84,91,0
1,note_on,81,91,0
1,note_on,81,0,120
1,note_on,93,0,0
1,note_on,89,0,0
1,note_on,84,0,0
1,note_on,53,107,120
1,note_on,53,0,240
2,note_on,53,42,0
2,note_on,60,42,0
2,note_on,65,42,0
2,note_on,65,0,233
2,note_on,60,0,0
2,note_on,53,0,0
2,note_on,64,37,0
2,note_on,64,0,34
2,note_on,65,35,0
2,note_on,65,0,80
2,note_on,64,35,0
2,note_on,64,0,80
2,note_on,62,37,0
2,note_on,62,0,81
2,note_on,64,35,0
2,note_on,64,0,120
2,note_on,65,40,0
2,note_on,65,0,35
2,note_on,62,36,0
2,note_on,62,0,120
2,note_on,64,38,0
2,note_on,64,0,81
2,note_on,60,32,150
2,note_on,60,0,90
2,note_on,60,42,150
2,note_on,53,42,0
2,note_on,65,42,0
2,note_on,65,0,187
2,note_on,53,0,0
2,note_on,60,0,0
2,note_on,64,37,0
2,note_on,64,0,34
2,note_on,65,35,0
2,note_on,65,0,80
2,note_on,64,35,0
2,note_on,64,0,80
2,note_on,62,37,0
2,note_on,62,0,81
2,note_on,64,35,0
2,note_on,64,0,120
2,note_on,65,40,0
2,note_on,65,0,35
2,note_on,62,36,0
2,note_on,62,0,120
2,note_on,64,38,0
2,note_on,64,0,69
2,note_on,60,32,150
2,note_on,60,0,90
2,note_on,62,44,150
2,note_on,62,0,56
2,note_on,64,39,0
2,note_on,64,0,120
2,note_on,60,36,0
2,note_on,60,0,205
2,note_on,62,44,30
2,note_on,62,0,49
2,note_on,64,45,0
2,note_on,64,0,120
2,note_on,65,48,0
2,note_on,65,0,204
2,note_on,62,44,30
2,note_on,62,0,49
2,note_on,64,39,0
2,note_on,64,0,120
2,note_on,60,32,0
2,note_on,60,0,185
2,note_on,62,42,30
2,note_on,62,0,56
2,note_on,64,38,0
2,note_on,64,0,120
2,note_on,60,31,0
2,note_on,60,0,201
2,note_on,62,36,30
2,note_on,62,0,49
2,note_on,64,38,0
2,note_on,64,0,120
2,note_on,67,43,0
2,note_on,67,0,56
2,note_on,65,38,0
2,note_on,65,0,120
2,note_on,62,42,0
2,note_on,62,0,28
2,note_on,64,40,0
2,note_on,64,0,120
2,note_on,60,36,0
2,note_on,60,0,113
2,note_on,64,38,0
2,note_on,57,38,0
2,note_on,69,44,0
2,note_on,69,0,176
2,note_on,57,0,0
2,note_on,64,0,0
2,note_on,68,38,0
2,note_on,68,0,34
2,note_on,69,36,0
2,note_on,69,0,80
2,note_on,68,36,0
2,note_on,68,0,80
2,note_on,66,38,0
2,note_on,66,0,81
2,note_on,68,36,0
2,note_on,68,0,120
2,note_on,69,42,0
2,note_on,69,0,35
2,note_on,66,37,0
2,note_on,66,0,120
2,note_on,68,39,0
2,note_on,68,0,76
2,note_on,64,37,150
2,note_on,64,0,90
2,note_on,64,38,150
2,note_on,57,38,0
2,note_on,69,44,0
2,note_on,69,0,194
2,note_on,57,0,0
2,note_on,64,0,0
2,note_on,68,38,0
2,note_on,68,0,34
2,note_on,69,36,0
2,note_on,69,0,80
2,note_on,68,36,0
2,note_on,68,0,80
2,note_on,66,38,0
2,note_on,66,0,81
2,note_on,68,36,0
2,note_on,68,0,120
2,note_on,69,42,0
2,note_on,69,0,35
2,note_on,66,37,0
2,note_on,66,0,120
2,note_on,68,39,0
2,note_on,68,0,74
2,note_on,64,37,150
2,note_on,64,0,90
2,note_on,66,46,150
2,note_on,66,0,77
2,note_on,68,40,0
2,note_on,68,0,120
2,note_on,64,37,0
2,note_on,64,0,199
2,note_on,66,46,30
2,note_on,66,0,49
2,note_on,68,47,0
2,note_on,68,0,120
2,note_on,69,50,0
2,note_on,69,0,118
2,note_on,66,46,30
2,note_on,66,0,21
2,note_on,68,40,0
2,note_on,68,0,120
2,note_on,64,33,0
2,note_on,64,0,196
2,note_on,66,44,30
2,note_on,66,0,70
2,note_on,68,39,0
2,note_on,68,0,120
2,note_on,64,32,0
2,note_on,64,0,90
2,note_on,66,37,30
2,note_on,66,0,14
2,note_on,68,39,0
2,note_on,68,0,120
2,note_on,71,45,0
2,note_on,71,0,49
2,note_on,69,39,0
2,note_on,69,0,120
2,note_on,66,44,0
2,note_on,66,0,7
2,note_on,68,42,0
2,note_on,68,0,120
2,note_on,64,37,0
2,note_on,64,0,106
2,note_on,48,55,0
2,note_on,55,62,0
2,note_on,55,0,63
2,note_on,48,0,0
2,note_on,55,56,120
2,note_on,43,50,0
2,note_on,43,0,74
2,note_on,55,0,0
2,note_on,55,49,120
2,note_on,48,43,0
2,note_on,48,0,49
2,note_on,55,0,0
2,note_on,50,55,120
2,note_on,55,62,0
2,note_on,55,0,35
2,note_on,50,0,0
2,note_on,55,56,120
2,note_on,43,50,0
2,note_on,43,0,72
2,note_on,55,0,0
2,note_on,55,56,150
2,note_on,50,50,0
2,note_on,50,0,90
2,note_on,55,0,0
2,note_on,55,62,150
2,note_on,48,55,0
2,note_on,48,0,74
2,note_on,55,0,0
2,note_on,55,56,120
2,note_on,43,50,0
2,note_on,43,0,74
2,note_on,55,0,0
2,note_on,55,49,120
2,note_on,48,42,0
2,note_on,48,0,70
2,note_on,55,0,0
2,note_on,50,55,120
2,note_on,55,62,0
2,note_on,55,0,35
2,note_on,50,0,0
2,note_on,43,50,120
2,note_on,55,56,0
2,note_on,55,0,70
2,note_on,43,0,0
2,note_on,55,56,150
2,note_on,50,50,0
2,note_on,50,0,90
2,note_on,55,0,0
2,note_on,48,45,150
2,note_on,55,48,0
2,note_on,55,0,120
2,note_on,56,45,0
2,note_on,56,0,120
2,note_on,48,0,0
2,note_on,58,49,0
2,note_on,58,0,240
2,note_on,58,45,0
2,note_on,58,0,120
2,note_on,56,45,0
2,note_on,56,0,120
2,note_on,55,43,0
2,note_on,55,0,120
2,note_on,56,43,0
2,note_on,56,0,120
2,note_on,58,44,0
2,note_on,58,0,120
2,note_on,60,45,0
2,note_on,60,0,120
2,note_on,61,46,0
2,note_on,61,0,120
2,note_on,63,48,0
2,note_on,63,0,120
2,note_on,61,47,0
2,note_on,61,0,120
2,note_on,65,49,0
2,note_on,65,0,120
2,note_on,64,49,0
2,note_on,64,0,120
2,note_on,60,45,0
2,note_on,60,0,120
2,note_on,61,48,0
2,note_on,61,0,120
2,note_on,58,45,0
2,note_on,58,0,120
2,note_on,56,45,0
2,note_on,56,0,120
2,note_on,58,40,0
2,note_on,58,0,120
2,note_on,55,44,0
2,note_on,55,0,120
2,note_on,56,40,0
2,note_on,56,0,120
2,note_on,53,42,0
2,note_on,53,0,120
2,note_on,55,40,0
2,note_on,55,0,120
2,note_on,55,62,0
2,note_on,48,55,0
2,note_on,48,0,60
2,note_on,55,0,0
2,note_on,55,56,120
2,note_on,43,50,0
2,note_on,43,0,74
2,note_on,55,0,0
2,note_on,55,48,120
2,note_on,48,43,0
2,note_on,48,0,81
2,note_on,55,0,0
2,note_on,55,62,120
2,note_on,50,55,0
2,note_on,50,0,35
2,note_on,55,0,0
2,note_on,55,56,120
2,note_on,43,50,0
2,note_on,43,0,71
2,note_on,55,0,0
2,note_on,55,56,150
2,note_on,50,50,0
2,note_on,50,0,90
2,note_on,55,0,0
2,note_on,55,62,150
2,note_on,48,55,0
2,note_on,48,0,88
2,note_on,55,0,0
2,note_on,55,56,120
2,note_on,43,50,0
2,note_on,43,0,74
2,note_on,55,0,0
2,note_on,55,49,120
2,note_on,48,41,0
2,note_on,48,0,81
2,note_on,55,0,0
2,note_on,55,62,120
2,note_on,50,55,0
2,note_on,50,0,35
2,note_on,55,0,0
2,note_on,55,56,120
2,note_on,43,50,0
2,note_on,43,0,71
2,note_on,55,0,0
2,note_on,55,56,150
2,note_on,50,50,0
2,note_on,50,0,90
2,note_on,55,0,0
2,note_on,67,43,150
2,note_on,60,40,0
2,note_on,67,0,120
2,note_on,68,40,0
2,note_on,68,0,120
2,note_on,60,0,0
2,note_on,70,44,0
2,note_on,70,0,240
2,note_on,70,40,0
2,note_on,70,0,120
2,note_on,68,40,0
2,note_on,68,0,120
2,note_on,67,38,0
2,note_on,67,0,120
2,note_on,68,38,0
2,note_on,68,0,120
2,note_on,70,39,0
2,note_on,70,0,120
2,note_on,72,40,0
2,note_on,72,0,120
2,note_on,73,41,0
2,note_on,73,0,120
2,note_on,75,43,0
2,note_on,75,0,120
2,note_on,73,42,0
2,note_on,73,0,120
2,note_on,77,44,0
2,note_on,77,0,120
2,note_on,76,44,0
2,note_on,76,0,120
2,note_on,72,40,0
2,note_on,72,0,120
2,note_on,73,43,0
2,note_on,73,0,120
2,note_on,70,40,0
2,note_on,70,0,120
2,note_on,68,40,0
2,note_on,68,0,120
2,note_on,70,36,0
2,note_on,70,0,120
2,note_on,67,39,0
2,note_on,67,0,120
2,note_on,68,36,0
2,note_on,68,0,120
2,note_on,65,37,0
2,note_on,65,0,120
2,note_on,67,36,0
2,note_on,67,0,120
2,note_on,60,45,0
2,note_on,60,0,60
2,note_on,79,65,120
2,note_on,79,0,74
2,note_on,55,41,120
2,note_on,55,0,81
2,note_on,62,45,120
2,note_on,62,0,35
2,note_on,79,65,120
2,note_on,79,0,71
2,note_on,55,41,150
2,note_on,55,0,90
2,note_on,60,45,150
2,note_on,60,0,60
2,note_on,79,64,120
2,note_on,79,0,74
2,note_on,55,41,120
2,note_on,55,0,81
2,note_on,62,45,120
2,note_on,62,0,35
2,note_on,79,65,120
2,note_on,79,0,77
2,note_on,55,41,150
2,note_on,55,0,90
2,note_on,64,45,150
2,note_on,60,43,0
2,note_on,60,0,180
2,note_on,64,0,0
2,note_on,65,50,0
2,note_on,60,41,0
2,note_on,60,0,194
2,note_on,65,0,0
2,note_on,64,38,0
2,note_on,60,36,0
2,note_on,60,0,106
2,note_on,64,0,0
2,note_on,77,55,120
2,note_on,72,45,0
2,note_on,72,0,194
2,note_on,77,0,0
2,note_on,76,41,0
2,note_on,72,39,0
2,note_on,72,0,106
2,note_on,76,0,0
2,note_on,84,45,120
2,note_on,89,55,0
2,note_on,89,0,194
2,note_on,84,0,0
2,note_on,88,43,0
2,note_on,84,40,0
2,note_on,84,0,106
2,note_on,88,0,0
2,note_on,77,63,120
2,note_on,72,51,0
2,note_on,72,0,194
2,note_on,77,0,0
2,note_on,72,44,0
2,note_on,76,47,0
2,note_on,76,0,106
2,note_on,72,0,0
2,note_on,60,58,120
2,note_on,65,72,0
2,note_on,65,0,194
2,note_on,60,0,0
2,note_on,64,53,0
2,note_on,60,50,0
2,note_on,60,0,106
2,note_on,64,0,0
2,note_on,48,61,120
2,note_on,36,61,0
2,note_on,36,0,95
2,note_on,48,0,0
2,note_on,53,64,120
2,note_on,65,64,0
2,note_on,60,64,0
2,note_on,60,0,169
2,note_on,65,0,0
2,note_on,53,0,0
2,note_on,64,57,0
2,note_on,64,0,34
2,note_on,65,50,0
2,note_on,65,0,80
2,note_on,64,50,0
2,note_on,64,0,80
2,note_on,62,57,0
2,note_on,62,0,81
2,note_on,64,53,0
2,note_on,64,0,120
2,note_on,65,61,0
2,note_on,65,0,35
2,note_on,62,56,0
2,note_on,62,0,120
2,note_on,64,59,0
2,note_on,64,0,76
2,note_on,60,50,150
2,note_on,60,0,90
2,note_on,60,61,150
2,note_on,53,61,0
2,note_on,65,61,0
2,note_on,65,0,197
2,note_on,53,0,0
2,note_on,60,0,0
2,note_on,64,55,0
2,note_on,64,0,34
2,note_on,65,50,0
2,note_on,65,0,80
2,note_on,64,50,0
2,note_on,64,0,80
2,note_on,62,55,0
2,note_on,62,0,81
2,note_on,64,50,0
2,note_on,64,0,120
2,note_on,65,56,0
2,note_on,65,0,35
2,note_on,62,54,0
2,note_on,62,0,120
2,note_on,64,57,0
2,note_on,64,0,74
2,note_on,60,49,150
2,note_on,60,0,90
2,note_on,62,54,150
2,note_on,62,0,84
2,note_on,64,48,0
2,note_on,64,0,120
2,note_on,60,45,0
2,note_on,60,0,200
2,note_on,62,48,30
2,note_on,62,0,49
2,note_on,64,51,0
2,note_on,64,0,120
2,note_on,65,55,0
2,note_on,65,0,154
2,note_on,62,54,30
2,note_on,62,0,35
2,note_on,64,48,0
2,note_on,64,0,120
2,note_on,60,42,0
2,note_on,60,0,111
2,note_on,62,51,30
2,note_on,62,0,64
2,note_on,64,48,0
2,note_on,64,0,120
2,note_on,60,39,0
2,note_on,60,0,97
2,note_on,62,43,30
2,note_on,62,0,49
2,note_on,64,44,0
2,note_on,64,0,120
2,note_on,67,48,0
2,note_on,67,0,56
2,note_on,65,44,0
2,note_on,65,0,120
2,note_on,62,49,0
2,note_on,62,0,28
2,note_on,64,46,0
2,note_on,64,0,120
2,note_on,60,46,0
2,note_on,60,0,134
2,note_on,56,61,0
2,note_on,68,61,0
2,note_on,63,61,0
2,note_on,63,0,176
2,note_on,68,0,0
2,note_on,56,0,0
2,note_on,67,55,0
2,note_on,67,0,34
2,note_on,68,50,0
2,note_on,68,0,80
2,note_on,67,50,0
2,note_on,67,0,80
2,note_on,65,55,0
2,note_on,65,0,81
2,note_on,67,50,0
2,note_on,67,0,120
2,note_on,68,59,0
2,note_on,68,0,35
2,note_on,65,54,0
2,note_on,65,0,120
2,note_on,67,57,0
2,note_on,67,0,72
2,note_on,63,54,150
2,note_on,63,0,90
2,note_on,63,61,150
2,note_on,56,61,0
2,note_on,68,61,0
2,note_on,68,0,183
2,note_on,56,0,0
2,note_on,63,0,0
2,note_on,67,55,0
2,note_on,67,0,34
2,note_on,68,50,0
2,note_on,68,0,80
2,note_on,67,50,0
2,note_on,67,0,80
2,note_on,65,55,0
2,note_on,65,0,49
2,note_on,67,50,0
2,note_on,67,0,120
2,note_on,68,59,0
2,note_on,68,0,35
2,note_on,65,54,0
2,note_on,65,0,120
2,note_on,67,57,0
2,note_on,67,0,76
2,note_on,63,54,150
2,note_on,63,0,90
2,note_on,56,44,150
2,note_on,65,54,0
2,note_on,65,0,92
2,note_on,67,48,0
2,note_on,67,0,120
2,note_on,56,0,0
2,note_on,63,45,0
2,note_on,63,0,118
2,note_on,65,48,30
2,note_on,65,0,14
2,note_on,67,51,0
2,note_on,67,0,120
2,note_on,68,55,0
2,note_on,68,0,132
2,note_on,65,54,30
2,note_on,65,0,21
2,note_on,67,48,0
2,note_on,67,0,120
2,note_on,63,42,0
2,note_on,63,0,194
2,note_on,56,41,30
2,note_on,65,51,0
2,note_on,65,0,70
2,note_on,67,48,0
2,note_on,67,0,120
2,note_on,56,0,0
2,note_on,63,40,0
2,note_on,63,0,97
2,note_on,65,43,30
2,note_on,65,0,49
2,note_on,67,44,0
2,note_on,67,0,120
2,note_on,70,48,0
2,note_on,70,0,56
2,note_on,68,44,0
2,note_on,68,0,120
2,note_on,65,49,0
2,note_on,65,0,28
2,note_on,67,46,0
2,note_on,67,0,120
2,note_on,63,46,0
2,note_on,63,0,141
2,note_on,36,92,0
2,note_on,36,0,120
2,note_on,60,53,339
2,note_on,60,0,120
2,note_on,72,54,360
2,note_on,72,0,120
2,note_on,84,55,360
2,note_on,84,0,60
2,note_on,67,51,120
2,note_on,73,56,0
2,note_on,73,0,60
2,note_on,67,0,0
2,note_on,67,51,60
2,note_on,73,56,0
2,note_on,73,0,60
2,note_on,67,0,0
2,note_on,79,63,60
2,note_on,79,0,120
2,note_on,67,45,120
2,note_on,73,52,0
2,note_on,73,0,120
2,note_on,67,0,0
2,note_on,79,54,120
2,note_on,79,0,120
2,note_on,73,52,120
2,note_on,67,45,0
2,note_on,67,0,120
2,note_on,73,0,0
2,note_on,36,92,120
2,note_on,36,0,71
2,note_on,60,54,360
2,note_on,60,0,120
2,note_on,72,54,360
2,note_on,72,0,120
2,note_on,84,54,360
2,note_on,84,0,78
2,note_on,73,56,120
2,note_on,67,51,0
2,note_on,67,0,60
2,note_on,73,0,0
2,note_on,73,56,60
2,note_on,67,51,0
2,note_on,67,0,60
2,note_on,73,0,0
2,note_on,79,63,60
2,note_on,79,0,120
2,note_on,67,45,120
2,note_on,73,52,0
2,note_on,73,0,120
2,note_on,67,0,0
2,note_on,79,54,120
2,note_on,79,0,120
2,note_on,67,45,120
2,note_on,73,52,0
2,note_on,73,0,120
2,note_on,67,0,0
2,note_on,72,44,120
2,note_on,79,58,0
2,note_on,79,0,176
2,note_on,77,52,0
2,note_on,77,0,34
2,note_on,79,48,0
2,note_on,79,0,80
2,note_on,77,48,0
2,note_on,77,0,80
2,note_on,76,52,0
2,note_on,76,0,81
2,note_on,77,48,0
2,note_on,77,0,120
2,note_on,79,56,0
2,note_on,79,0,35
2,note_on,76,46,0
2,note_on,76,0,120
2,note_on,77,50,0
2,note_on,77,0,27
2,note_on,76,45,30
2,note_on,76,0,90
2,note_on,77,49,30
2,note_on,77,0,27
2,note_on,80,45,30
2,note_on,80,0,90
2,note_on,72,0,30
2,note_on,72,44,0
2,note_on,79,58,0
2,note_on,79,0,176
2,note_on,77,52,0
2,note_on,77,0,34
2,note_on,79,48,0
2,note_on,79,0,80
2,note_on,77,48,0
2,note_on,77,0,80
2,note_on,76,52,0
2,note_on,76,0,81
2,note_on,77,48,0
2,note_on,77,0,120
2,note_on,79,56,0
2,note_on,79,0,35
2,note_on,76,46,0
2,note_on,76,0,120
2,note_on,77,50,0
2,note_on,77,0,27
2,note_on,76,45,30
2,note_on,76,0,90
2,note_on,77,49,30
2,note_on,77,0,27
2,note_on,80,45,30
2,note_on,80,0,90
2,note_on,72,0,30
2,note_on,67,58,0
2,note_on,60,44,0
2,note_on,67,0,176
2,note_on,65,52,0
2,note_on,65,0,34
2,note_on,67,48,0
2,note_on,67,0,80
2,note_on,65,48,0
2,note_on,65,0,80
2,note_on,64,52,0
2,note_on,64,0,46
2,note_on,65,48,60
2,note_on,65,0,60
2,note_on,60,0,60
2,note_on,67,46,0
2,note_on,67,0,60
2,note_on,68,48,60
2,note_on,68,0,60
2,note_on,70,50,60
2,note_on,70,0,60
2,note_on,72,52,60
2,note_on,72,0,60
2,note_on,73,54,60
2,note_on,73,0,60
2,note_on,75,55,60
2,note_on,75,0,60
2,note_on,73,54,60
2,note_on,73,0,62
2,note_on,75,51,0
2,note_on,75,0,80
2,note_on,73,51,0
2,note_on,73,0,80
2,note_on,72,53,0
2,note_on,72,0,52
2,note_on,73,49,0
2,note_on,73,0,80
2,note_on,72,52,0
2,note_on,72,0,80
2,note_on,70,51,0
2,note_on,70,0,30
2,note_on,72,49,0
2,note_on,72,0,80
2,note_on,70,48,0
2,note_on,70,0,80
2,note_on,68,50,0
2,note_on,68,0,30
2,note_on,70,45,0
2,note_on,70,0,80
2,note_on,68,45,0
2,note_on,68,0,80
2,note_on,67,48,0
2,note_on,67,0,45
2,note_on,68,45,0
2,note_on,68,0,80
2,note_on,67,45,0
2,note_on,67,0,80
2,note_on,65,46,0
2,note_on,65,0,37
2,note_on,67,43,0
2,note_on,67,0,80
2,note_on,65,43,0
2,note_on,65,0,80
2,note_on,36,77,0
2,note_on,36,0,120
2,note_on,72,50,324
2,note_on,72,0,120
2,note_on,84,52,360
2,note_on,84,0,120
2,note_on,72,51,360
2,note_on,72,0,53
2,note_on,73,52,120
2,note_on,67,46,0
2,note_on,67,0,60
2,note_on,73,0,0
2,note_on,67,46,60
2,note_on,73,52,0
2,note_on,73,0,60
2,note_on,67,0,0
2,note_on,79,57,60
2,note_on,79,0,120
2,note_on,73,47,120
2,note_on,67,42,0
2,note_on,67,0,120
2,note_on,73,0,0
2,note_on,79,49,120
2,note_on,79,0,120
2,note_on,67,42,120
2,note_on,73,47,0
2,note_on,73,0,120
2,note_on,67,0,0
2,note_on,36,73,120
2,note_on,36,0,71
2,note_on,72,45,360
2,note_on,72,0,120
2,note_on,84,46,360
2,note_on,84,0,120
2,note_on,72,44,360
2,note_on,72,0,120
2,note_on,61,46,120
2,note_on,55,41,0
2,note_on,55,0,60
2,note_on,61,0,0
2,note_on,61,45,60
2,note_on,55,41,0
2,note_on,55,0,60
2,note_on,61,0,0
2,note_on,67,50,60
2,note_on,67,0,120
2,note_on,61,41,120
2,note_on,55,36,0
2,note_on,55,0,120
2,note_on,61,0,0
2,note_on,67,42,120
2,note_on,67,0,120
2,note_on,61,40,120
2,note_on,55,36,0
2,note_on,55,0,120
2,note_on,61,0,0
2,note_on,48,56,120
2,note_on,48,0,71
2,note_on,72,38,360
2,note_on,72,0,120
2,note_on,72,34,360
2,note_on,72,0,120
2,note_on,72,32,360
2,note_on,72,0,85
2,note_on,48,38,120
2,note_on,48,0,113
2,note_on,48,38,0
2,note_on,48,0,120
2,note_on,48,38,0
2,note_on,48,0,120
2,note_on,48,38,0
2,note_on,48,0,120
2,note_on,48,37,0
2,note_on,48,0,120
2,note_on,48,37,0
2,note_on,48,0,120
2,note_on,48,37,0
2,note_on,48,0,120
2,note_on,48,36,0
2,note_on,48,0,120
2,note_on,48,36,0
2,note_on,48,0,120
2,note_on,48,36,0
2,note_on,48,0,120
2,note_on,48,36,0
2,note_on,48,0,720
2,note_on,36,49,0
2,note_on,36,0,579
2,note_on,48,47,0
2,note_on,48,0,113
2,note_on,72,37,120
2,note_on,72,0,120
2,note_on,60,37,120
2,note_on,60,0,120
2,note_on,41,46,0
2,note_on,69,43,162
2,note_on,69,0,42
2,note_on,41,0,180
2,note_on,64,41,0
2,note_on,64,0,60
2,note_on,65,44,180
2,note_on,65,0,60
2,note_on,60,41,180
2,note_on,60,0,60
2,note_on,37,51,180
2,note_on,37,0,40
2,note_on,69,45,120
2,note_on,69,0,120
2,note_on,57,47,120
2,note_on,57,0,120
2,note_on,38,47,120
2,note_on,38,0,42
2,note_on,50,37,120
2,note_on,50,0,120
2,note_on,66,38,120
2,note_on,66,0,120
2,note_on,43,46,120
2,note_on,43,0,201
2,note_on,66,43,0
2,note_on,66,0,54
2,note_on,61,41,180
2,note_on,61,0,60
2,note_on,63,44,180
2,note_on,63,0,60
2,note_on,62,41,180
2,note_on,62,0,60
2,note_on,36,52,180
2,note_on,36,0,628
2,note_on,48,51,0
2,note_on,48,0,42
2,note_on,72,40,120
2,note_on,72,0,120
2,note_on,60,38,120
2,note_on,60,0,120
2,note_on,41,46,0
2,note_on,69,43,155
2,note_on,69,0,49
2,note_on,41,0,180
2,note_on,64,41,0
2,note_on,64,0,60
2,note_on,65,44,180
2,note_on,65,0,60
2,note_on,60,41,180
2,note_on,60,0,60
2,note_on,48,44,120
2,note_on,48,0,60
2,note_on,33,56,0
2,note_on,33,0,205
2,note_on,40,49,0
2,note_on,40,0,480
2,note_on,48,51,0
2,note_on,48,0,120
2,note_on,60,40,0
2,note_on,60,0,155
2,note_on,51,35,0
2,note_on,51,0,81
2,note_on,52,31,0
2,note_on,52,0,120
2,note_on,60,41,0
2,note_on,60,0,78
2,note_on,60,41,120
2,note_on,60,0,42
2,note_on,65,38,0
2,note_on,65,0,60
2,note_on,64,41,180
2,note_on,64,0,60
2,note_on,62,38,180
2,note_on,62,0,60
2,note_on,36,49,180
2,note_on,36,0,607
2,note_on,48,47,0
2,note_on,48,0,7
2,note_on,72,37,120
2,note_on,72,0,120
2,note_on,60,37,120
2,note_on,60,0,120
2,note_on,41,46,120
2,note_on,41,0,169
2,note_on,69,43,0
2,note_on,69,0,50
2,note_on,64,41,180
2,note_on,64,0,60
2,note_on,65,44,180
2,note_on,65,0,60
2,note_on,60,41,180
2,note_on,60,0,60
2,note_on,37,51,180
2,note_on,37,0,85
2,note_on,69,45,120
2,note_on,69,0,120
2,note_on,57,47,120
2,note_on,57,0,120
2,note_on,38,47,120
2,note_on,38,0,42
2,note_on,50,37,120
2,note_on,50,0,120
2,note_on,66,38,120
2,note_on,66,0,120
2,note_on,43,46,120
2,note_on,43,0,201
2,note_on,66,43,0
2,note_on,66,0,51
2,note_on,61,41,180
2,note_on,61,0,60
2,note_on,63,44,180
2,note_on,63,0,60
2,note_on,62,41,180
2,note_on,62,0,60
2,note_on,36,51,180
2,note_on,36,0,621
2,note_on,60,47,0
2,note_on,60,0,21
2,note_on,72,37,120
2,note_on,72,0,120
2,note_on,48,39,120
2,note_on,48,0,120
2,note_on,41,46,120
2,note_on,41,0,198
2,note_on,47,31,0
2,note_on,47,0,85
2,note_on,48,29,0
2,note_on,48,0,120
2,note_on,57,30,0
2,note_on,57,0,152
2,note_on,36,42,0
2,note_on,36,0,32
2,note_on,53,37,120
2,note_on,53,0,16
2,note_on,55,35,0
2,note_on,55,0,80
2,note_on,53,35,0
2,note_on,53,0,80
2,note_on,52,37,0
2,note_on,52,0,81
2,note_on,50,35,0
2,note_on,50,0,120
2,note_on,41,40,0
2,note_on,53,40,0
2,note_on,53,0,155
2,note_on,41,0,0
2,note_on,52,43,0
2,note_on,52,0,69
2,note_on,50,40,14
2,note_on,50,0,90
2,note_on,48,41,30
2,note_on,48,0,26
2,note_on,52,39,30
2,note_on,52,0,90
2,note_on,50,43,0
2,note_on,50,0,51
2,note_on,52,40,30
2,note_on,52,0,90
2,note_on,53,37,30
2,note_on,53,0,34
2,note_on,55,35,0
2,note_on,55,0,80
2,note_on,53,35,0
2,note_on,53,0,80
2,note_on,52,37,0
2,note_on,52,0,81
2,note_on,50,35,0
2,note_on,50,0,120
2,note_on,41,40,0
2,note_on,53,40,0
2,note_on,53,0,155
2,note_on,41,0,0
2,note_on,52,43,0
2,note_on,52,0,69
2,note_on,50,40,21
2,note_on,50,0,90
2,note_on,48,41,30
2,note_on,48,0,77
2,note_on,52,39,0
2,note_on,52,0,90
2,note_on,50,43,0
2,note_on,50,0,51
2,note_on,52,40,30
2,note_on,52,0,90
2,note_on,53,37,30
2,note_on,53,0,34
2,note_on,55,35,0
2,note_on,55,0,80
2,note_on,53,35,0
2,note_on,53,0,80
2,note_on,52,37,0
2,note_on,52,0,81
2,note_on,50,35,0
2,note_on,50,0,120
2,note_on,53,40,0
2,note_on,53,0,35
2,note_on,52,40,0
2,note_on,52,0,90
2,note_on,50,43,30
2,note_on,50,0,69
2,note_on,52,40,21
2,note_on,52,0,90
2,note_on,48,41,30
2,note_on,48,0,12
2,note_on,52,39,30
2,note_on,52,0,90
2,note_on,50,43,0
2,note_on,50,0,51
2,note_on,52,40,30
2,note_on,52,0,90
2,note_on,53,37,30
2,note_on,53,0,34
2,note_on,55,35,0
2,note_on,55,0,80
2,note_on,53,35,0
2,note_on,53,0,80
2,note_on,52,37,0
2,note_on,52,0,81
2,note_on,50,35,0
2,note_on,50,0,120
2,note_on,43,40,0
2,note_on,53,40,0
2,note_on,53,0,35
2,note_on,52,40,0
2,note_on,52,0,90
2,note_on,50,43,30
2,note_on,50,0,69
2,note_on,53,40,21
2,note_on,53,0,90
2,note_on,52,41,30
2,note_on,52,0,148
2,note_on,43,0,0
2,note_on,36,54,0
2,note_on,36,0,148
2,note_on,73,57,0
2,note_on,73,0,88
2,note_on,76,52,0
2,note_on,76,0,120
2,note_on,72,57,0
2,note_on,72,0,39
2,note_on,75,52,0
2,note_on,75,0,28
2,note_on,71,57,0
2,note_on,71,0,120
2,note_on,71,65,120
2,note_on,71,0,60
2,note_on,74,56,60
2,note_on,74,0,60
2,note_on,68,65,60
2,note_on,68,0,120
2,note_on,35,54,120
2,note_on,35,0,226
2,note_on,71,57,0
2,note_on,71,0,88
2,note_on,74,52,0
2,note_on,74,0,120
2,note_on,70,57,0
2,note_on,70,0,77
2,note_on,73,52,0
2,note_on,73,0,28
2,note_on,69,57,0
2,note_on,69,0,120
2,note_on,71,65,120
2,note_on,71,0,60
2,note_on,72,56,60
2,note_on,72,0,60
2,note_on,66,65,60
2,note_on,66,0,120
2,note_on,54,54,120
2,note_on,54,0,94
2,note_on,69,63,120
2,note_on,69,0,54
2,note_on,72,58,0
2,note_on,72,0,120
2,note_on,68,61,0
2,note_on,68,0,65
2,note_on,71,57,0
2,note_on,71,0,120
2,note_on,67,59,0
2,note_on,67,0,77
2,note_on,70,53,0
2,note_on,70,0,120
2,note_on,66,59,0
2,note_on,66,0,71
2,note_on,69,52,0
2,note_on,69,0,120
2,note_on,65,57,0
2,note_on,65,0,51
2,note_on,68,50,0
2,note_on,68,0,120
2,note_on,65,56,0
2,note_on,65,0,77
2,note_on,67,49,0
2,note_on,67,0,120
2,note_on,64,53,0
2,note_on,64,0,80
2,note_on,67,48,0
2,note_on,67,0,120
2,note_on,48,52,0
2,note_on,48,0,177
2,note_on,41,56,0
2,note_on,41,0,194
2,note_on,59,49,0
2,note_on,59,0,56
2,note_on,60,49,0
2,note_on,60,0,120
2,note_on,69,54,0
2,note_on,69,0,166
2,note_on,36,42,0
2,note_on,36,0,32
2,note_on,53,37,120
2,note_on,53,0,16
2,note_on,55,35,0
2,note_on,55,0,80
2,note_on,53,35,0
2,note_on,53,0,80
2,note_on,52,37,0
2,note_on,52,0,81
2,note_on,50,35,0
2,note_on,50,0,120
2,note_on,53,40,0
2,note_on,41,40,0
2,note_on,41,0,155
2,note_on,53,0,0
2,note_on,52,43,0
2,note_on,52,0,69
2,note_on,50,40,14
2,note_on,50,0,90
2,note_on,48,41,30
2,note_on,48,0,26
2,note_on,52,39,30
2,note_on,52,0,90
2,note_on,50,43,30
2,note_on,50,0,51
2,note_on,52,40,30
2,note_on,52,0,90
2,note_on,53,37,30
2,note_on,53,0,34
2,note_on,55,35,0
2,note_on,55,0,80
2,note_on,53,35,0
2,note_on,53,0,80
2,note_on,52,37,0
2,note_on,52,0,81
2,note_on,50,35,0
2,note_on,50,0,120
2,note_on,41,40,0
2,note_on,53,40,0
2,note_on,53,0,155
2,note_on,41,0,0
2,note_on,52,43,0
2,note_on,52,0,69
2,note_on,50,40,21
2,note_on,50,0,90
2,note_on,48,41,30
2,note_on,48,0,77
2,note_on,52,39,0
2,note_on,52,0,90
2,note_on,50,43,30
2,note_on,50,0,51
2,note_on,52,40,30
2,note_on,52,0,90
2,note_on,53,37,30
2,note_on,53,0,34
2,note_on,55,35,0
2,note_on,55,0,80
2,note_on,53,35,0
2,note_on,53,0,80
2,note_on,52,37,0
2,note_on,52,0,81
2,note_on,50,35,0
2,note_on,50,0,120
2,note_on,53,40,0
2,note_on,53,0,35
2,note_on,52,40,0
2,note_on,52,0,90
2,note_on,50,43,30
2,note_on,50,0,69
2,note_on,52,40,21
2,note_on,52,0,90
2,note_on,48,41,30
2,note_on,48,0,12
2,note_on,52,39,30
2,note_on,52,0,90
2,note_on,50,43,0
2,note_on,50,0,51
2,note_on,52,40,30
2,note_on,52,0,90
2,note_on,53,37,30
2,note_on,53,0,34
2,note_on,55,35,0
2,note_on,55,0,80
2,note_on,53,35,0
2,note_on,53,0,80
2,note_on,52,37,0
2,note_on,52,0,81
2,note_on,50,35,0
2,note_on,50,0,120
2,note_on,53,40,0
2,note_on,43,40,0
2,note_on,53,0,35
2,note_on,52,40,0
2,note_on,52,0,90
2,note_on,50,43,30
2,note_on,50,0,69
2,note_on,53,40,21
2,note_on,53,0,90
2,note_on,52,41,30
2,note_on,52,0,148
2,note_on,43,0,0
2,note_on,31,56,0
2,note_on,31,0,169
2,note_on,74,59,0
2,note_on,74,0,63
2,note_on,76,53,0
2,note_on,76,0,120
2,note_on,70,59,0
2,note_on,70,0,53
2,note_on,74,53,0
2,note_on,74,0,120
2,note_on,67,59,0
2,note_on,67,0,158
2,note_on,70,62,0
2,note_on,70,0,120
2,note_on,74,54,0
2,note_on,74,0,120
2,note_on,64,62,0
2,note_on,64,0,240
2,note_on,52,56,0
2,note_on,52,0,134
2,note_on,70,59,0
2,note_on,70,0,60
2,note_on,74,53,0
2,note_on,74,0,120
2,note_on,67,59,0
2,note_on,67,0,56
2,note_on,70,53,0
2,note_on,70,0,120
2,note_on,64,59,0
2,note_on,64,0,120
2,note_on,61,59,0
2,note_on,61,0,120
2,note_on,69,52,0
2,note_on,69,0,120
2,note_on,57,59,0
2,note_on,57,0,240
2,note_on,45,56,0
2,note_on,45,0,169
2,note_on,55,45,0
2,note_on,55,0,48
2,note_on,57,38,0
2,note_on,57,0,80
2,note_on,55,38,0
2,note_on,55,0,80
2,note_on,53,44,0
2,note_on,53,0,43
2,note_on,55,38,0
2,note_on,55,0,80
2,note_on,53,38,0
2,note_on,53,0,80
2,note_on,52,43,0
2,note_on,52,0,37
2,note_on,53,37,0
2,note_on,53,0,80
2,note_on,52,37,0
2,note_on,52,0,80
2,note_on,50,42,0
2,note_on,50,0,31
2,note_on,52,36,0
2,note_on,52,0,80
2,note_on,50,36,0
2,note_on,50,0,80
2,note_on,49,41,0
2,note_on,49,0,40
2,note_on,50,34,0
2,note_on,50,0,80
2,note_on,49,34,0
2,note_on,49,0,80
2,note_on,58,41,0
2,note_on,45,41,0
2,note_on,58,0,197
2,note_on,57,41,0
2,note_on,57,0,194
2,note_on,55,41,0
2,note_on,55,0,162
2,note_on,45,0,0
2,note_on,38,64,0
2,note_on,38,0,7
2,note_on,74,71,360
2,note_on,74,0,120
2,note_on,38,42,120
2,note_on,38,0,240
2,note_on,62,37,0
2,note_on,72,37,0
2,note_on,72,0,180
2,note_on,70,37,0
2,note_on,70,0,81
2,note_on,69,35,0
2,note_on,69,0,120
2,note_on,62,0,0
2,note_on,72,40,0
2,note_on,62,38,0
2,note_on,72,0,155
2,note_on,70,43,0
2,note_on,70,0,26
2,note_on,69,40,30
2,note_on,69,0,90
2,note_on,67,41,30
2,note_on,67,0,90
2,note_on,69,39,30
2,note_on,69,0,90
2,note_on,67,43,30
2,note_on,67,0,51
2,note_on,69,40,30
2,note_on,69,0,90
2,note_on,70,37,30
2,note_on,70,0,187
2,note_on,69,37,0
2,note_on,69,0,49
2,note_on,67,35,0
2,note_on,67,0,120
2,note_on,62,0,0
2,note_on,70,40,0
2,note_on,62,40,0
2,note_on,70,0,155
2,note_on,67,43,0
2,note_on,67,0,90
2,note_on,69,40,30
2,note_on,69,0,90
2,note_on,62,0,30
2,note_on,65,41,0
2,note_on,65,0,134
2,note_on,38,42,0
2,note_on,38,0,184
2,note_on,72,37,0
2,note_on,62,37,0
2,note_on,72,0,194
2,note_on,70,37,0
2,note_on,70,0,46
2,note_on,69,35,0
2,note_on,69,0,120
2,note_on,62,0,0
2,note_on,72,40,0
2,note_on,62,38,0
2,note_on,72,0,155
2,note_on,70,43,0
2,note_on,70,0,12
2,note_on,69,40,30
2,note_on,69,0,90
2,note_on,67,41,30
2,note_on,67,0,90
2,note_on,69,39,30
2,note_on,69,0,90
2,note_on,67,43,30
2,note_on,67,0,51
2,note_on,69,40,30
2,note_on,69,0,90
2,note_on,70,37,30
2,note_on,70,0,194
2,note_on,69,37,0
2,note_on,69,0,56
2,note_on,67,35,0
2,note_on,67,0,120
2,note_on,62,0,0
2,note_on,70,40,0
2,note_on,62,40,0
2,note_on,70,0,155
2,note_on,67,43,0
2,note_on,67,0,90
2,note_on,69,40,30
2,note_on,69,0,90
2,note_on,62,0,30
2,note_on,65,41,0
2,note_on,65,0,120
2,note_on,38,45,0
2,note_on,38,0,173
2,note_on,72,43,0
2,note_on,72,0,176
2,note_on,70,43,0
2,note_on,70,0,53
2,note_on,69,40,0
2,note_on,69,0,120
2,note_on,72,43,0
2,note_on,72,0,103
2,note_on,66,49,103
2,note_on,66,0,120
2,note_on,72,42,0
2,note_on,72,0,120
2,note_on,63,49,0
2,note_on,63,0,120
2,note_on,54,48,91
2,note_on,54,0,183
2,note_on,72,46,0
2,note_on,72,0,208
2,note_on,70,46,0
2,note_on,70,0,63
2,note_on,69,43,0
2,note_on,69,0,120
2,note_on,72,46,0
2,note_on,72,0,103
2,note_on,66,52,103
2,note_on,66,0,120
2,note_on,72,45,0
2,note_on,72,0,120
2,note_on,63,52,0
2,note_on,63,0,120
2,note_on,54,48,91
2,note_on,54,0,208
2,note_on,72,48,0
2,note_on,72,0,208
2,note_on,70,47,0
2,note_on,70,0,60
2,note_on,69,44,0
2,note_on,69,0,120
2,note_on,72,47,0
2,note_on,72,0,100
2,note_on,72,48,120
2,note_on,72,0,7
2,note_on,70,47,0
2,note_on,70,0,92
2,note_on,69,44,0
2,note_on,69,0,120
2,note_on,72,46,0
2,note_on,72,0,100
2,note_on,53,61,120
2,note_on,41,61,0
2,note_on,41,0,220
2,note_on,53,0,0
2,note_on,29,61,0
2,note_on,41,61,0
2,note_on,41,0,212
2,note_on,29,0,0
2,note_on,28,53,0
2,note_on,40,61,0
2,note_on,40,0,1267
2,note_on,28,0,0
2,note_on,59,53,198
2,note_on,59,0,120
2,note_on,61,49,0
2,note_on,61,0,120
2,note_on,62,54,0
2,note_on,62,0,279
2,note_on,64,51,0
2,note_on,64,0,120
2,note_on,66,54,0
2,note_on,66,0,300
2,note_on,69,50,0
2,note_on,69,0,120
2,note_on,66,54,0
2,note_on,66,0,38
2,note_on,68,49,0
2,note_on,68,0,80
2,note_on,66,50,0
2,note_on,66,0,80
2,note_on,64,50,0
2,note_on,64,0,155
2,note_on,59,42,120
2,note_on,59,0,78
2,note_on,56,45,0
2,note_on,56,0,360
2,note_on,47,42,0
2,note_on,47,0,120
2,note_on,40,46,0
2,note_on,40,0,240
2,note_on,64,52,93
2,note_on,64,0,240
2,note_on,69,50,0
2,note_on,69,0,71
2,note_on,71,50,0
2,note_on,71,0,120
2,note_on,68,53,0
2,note_on,68,0,35
2,note_on,69,50,0
2,note_on,69,0,120
2,note_on,66,53,0
2,note_on,66,0,28
2,note_on,68,50,0
2,note_on,68,0,120
2,note_on,64,50,0
2,note_on,64,0,48
2,note_on,66,46,0
2,note_on,66,0,56
2,note_on,64,49,0
2,note_on,64,0,60
2,note_on,62,43,0
2,note_on,62,0,60
2,note_on,59,47,0
2,note_on,59,0,314
2,note_on,59,42,0
2,note_on,59,0,78
2,note_on,52,45,0
2,note_on,52,0,360
2,note_on,47,42,0
2,note_on,47,0,120
2,note_on,40,46,0
2,note_on,40,0,240
2,note_on,59,53,134
2,note_on,59,0,120
2,note_on,61,49,0
2,note_on,61,0,120
2,note_on,62,54,0
2,note_on,62,0,279
2,note_on,64,51,0
2,note_on,64,0,120
2,note_on,66,54,0
2,note_on,66,0,247
2,note_on,69,50,0
2,note_on,69,0,120
2,note_on,66,54,0
2,note_on,66,0,38
2,note_on,68,48,0
2,note_on,68,0,80
2,note_on,66,50,0
2,note_on,66,0,80
2,note_on,64,50,0
2,note_on,64,0,155
2,note_on,52,42,120
2,note_on,52,0,78
2,note_on,45,45,0
2,note_on,45,0,360
2,note_on,40,42,0
2,note_on,40,0,120
2,note_on,33,46,0
2,note_on,33,0,40
2,note_on,64,48,0
2,note_on,64,0,120
2,note_on,69,51,0
2,note_on,69,0,120
2,note_on,71,54,0
2,note_on,71,0,120
2,note_on,74,59,0
2,note_on,74,0,71
2,note_on,73,52,0
2,note_on,73,0,120
2,note_on,71,55,0
2,note_on,71,0,35
2,note_on,69,52,0
2,note_on,69,0,120
2,note_on,66,55,0
2,note_on,66,0,71
2,note_on,68,52,0
2,note_on,68,0,120
2,note_on,64,52,0
2,note_on,64,0,44
2,note_on,66,48,0
2,note_on,66,0,56
2,note_on,64,52,0
2,note_on,64,0,60
2,note_on,62,48,0
2,note_on,62,0,60
2,note_on,59,52,0
2,note_on,59,0,314
2,note_on,59,42,0
2,note_on,59,0,78
2,note_on,52,45,0
2,note_on,52,0,360
2,note_on,47,42,0
2,note_on,47,0,120
2,note_on,40,46,0
2,note_on,40,0,240
2,note_on,59,53,144
2,note_on,59,0,120
2,note_on,61,49,0
2,note_on,61,0,120
2,note_on,62,54,0
2,note_on,62,0,279
2,note_on,64,51,0
2,note_on,64,0,120
2,note_on,66,54,0
2,note_on,66,0,300
2,note_on,69,50,0
2,note_on,69,0,120
2,note_on,66,54,0
2,note_on,66,0,38
2,note_on,68,46,0
2,note_on,68,0,80
2,note_on,66,50,0
2,note_on,66,0,80
2,note_on,64,50,0
2,note_on,64,0,1098
2,note_on,65,44,0
2,note_on,65,0,38
2,note_on,67,37,0
2,note_on,67,0,80
2,note_on,65,37,0
2,note_on,65,0,80
2,note_on,64,38,0
2,note_on,64,0,53
2,note_on,37,69,0
2,note_on,37,0,130
2,note_on,66,60,0
2,note_on,61,49,0
2,note_on,61,0,187
2,note_on,66,0,0
2,note_on,65,45,0
2,note_on,61,43,0
2,note_on,61,0,106
2,note_on,65,0,0
2,note_on,73,49,120
2,note_on,78,60,0
2,note_on,78,0,194
2,note_on,73,0,0
2,note_on,77,45,0
2,note_on,73,42,0
2,note_on,73,0,106
2,note_on,77,0,0
2,note_on,90,60,120
2,note_on,85,49,0
2,note_on,85,0,194
2,note_on,90,0,0
2,note_on,85,44,0
2,note_on,89,47,0
2,note_on,89,0,106
2,note_on,85,0,0
2,note_on,78,63,120
2,note_on,73,51,0
2,note_on,73,0,194
2,note_on,78,0,0
2,note_on,73,44,0
2,note_on,77,47,0
2,note_on,77,0,106
2,note_on,73,0,0
2,note_on,60,55,120
2,note_on,65,69,0
2,note_on,65,0,194
2,note_on,60,0,0
2,note_on,64,51,0
2,note_on,60,48,0
2,note_on,60,0,106
2,note_on,64,0,0
2,note_on,36,58,120
2,note_on,48,58,0
2,note_on,48,0,95
2,note_on,36,0,0
2,note_on,41,64,42
2,note_on,53,64,0
2,note_on,53,0,233
2,note_on,41,0,0
2,note_on,57,58,0
2,note_on,60,58,0
2,note_on,65,58,0
2,note_on,65,0,194
2,note_on,60,0,0
2,note_on,57,0,0
2,note_on,57,58,0
2,note_on,60,58,0
2,note_on,65,58,0
2,note_on,65,0,201
2,note_on,60,0,0
2,note_on,57,0,0
2,note_on,36,64,0
2,note_on,48,64,0
2,note_on,48,0,155
2,note_on,36,0,0
2,note_on,57,58,0
2,note_on,60,58,0
2,note_on,65,58,0
2,note_on,65,0,114
2,note_on,60,0,0
2,note_on,57,0,0
2,note_on,57,58,120
2,note_on,60,58,0
2,note_on,65,58,0
2,note_on,65,0,120
2,note_on,60,0,0
2,note_on,57,0,0
2,note_on,41,64,120
2,note_on,53,64,0
2,note_on,53,0,187
2,note_on,41,0,0
2,note_on,65,58,0
2,note_on,57,58,0
2,note_on,60,58,0
2,note_on,60,0,194
2,note_on,57,0,0
2,note_on,65,0,0
2,note_on,57,58,0
2,note_on,65,58,0
2,note_on,60,58,0
2,note_on,60,0,201
2,note_on,65,0,0
2,note_on,57,0,0
2,note_on,48,64,0
2,note_on,36,64,0
2,note_on,36,0,155
2,note_on,48,0,0
2,note_on,57,58,0
2,note_on,65,58,0
2,note_on,60,58,0
2,note_on,60,0,117
2,note_on,65,0,0
2,note_on,57,0,0
2,note_on,57,58,120
2,note_on,65,58,0
2,note_on,60,58,0
2,note_on,60,0,120
2,note_on,65,0,0
2,note_on,57,0,0
2,note_on,53,58,120
2,note_on,53,0,212
2,note_on,59,59,0
2,note_on,59,0,81
2,note_on,60,52,0
2,note_on,60,0,120
2,note_on,48,51,0
2,note_on,48,0,109
2,note_on,62,52,0
2,note_on,62,0,60
2,note_on,60,59,0
2,note_on,60,0,63
2,note_on,59,50,0
2,note_on,59,0,120
2,note_on,60,58,0
2,note_on,60,0,57
2,note_on,62,51,0
2,note_on,62,0,120
2,note_on,60,49,0
2,note_on,60,0,200
2,note_on,53,58,30
2,note_on,53,0,197
2,note_on,59,58,0
2,note_on,59,0,81
2,note_on,60,53,0
2,note_on,60,0,120
2,note_on,48,51,0
2,note_on,48,0,109
2,note_on,62,52,0
2,note_on,62,0,60
2,note_on,60,59,0
2,note_on,60,0,56
2,note_on,59,49,0
2,note_on,59,0,120
2,note_on,60,58,0
2,note_on,60,0,64
2,note_on,62,49,0
2,note_on,62,0,120
2,note_on,60,49,0
2,note_on,60,0,124
2,note_on,36,55,0
2,note_on,36,0,120
2,note_on,60,36,339
2,note_on,60,0,120
2,note_on,72,36,205
2,note_on,72,0,120
2,note_on,84,36,169
2,note_on,84,0,120
2,note_on,67,36,113
2,note_on,74,40,0
2,note_on,74,0,60
2,note_on,67,0,0
2,note_on,67,36,60
2,note_on,74,40,0
2,note_on,74,0,60
2,note_on,67,0,0
2,note_on,79,44,60
2,note_on,79,0,120
2,note_on,67,32,120
2,note_on,74,37,0
2,note_on,74,0,120
2,note_on,67,0,0
2,note_on,79,38,120
2,note_on,79,0,120
2,note_on,67,32,120
2,note_on,74,37,0
2,note_on,74,0,120
2,note_on,67,0,0
2,note_on,36,52,120
2,note_on,36,0,71
2,note_on,60,37,360
2,note_on,60,0,120
2,note_on,72,38,169
2,note_on,72,0,120
2,note_on,84,38,162
2,note_on,84,0,32
2,note_on,72,36,120
2,note_on,77,40,0
2,note_on,77,0,60
2,note_on,72,0,0
2,note_on,72,36,60
2,note_on,77,40,0
2,note_on,77,0,60
2,note_on,72,0,0
2,note_on,72,44,60
2,note_on,77,44,0
2,note_on,77,0,120
2,note_on,72,0,0
2,note_on,72,36,120
2,note_on,77,40,0
2,note_on,77,0,60
2,note_on,72,0,0
2,note_on,72,36,60
2,note_on,77,40,0
2,note_on,77,0,60
2,note_on,72,0,0
2,note_on,72,44,60
2,note_on,77,44,0
2,note_on,77,0,120
2,note_on,72,0,0
2,note_on,72,32,120
2,note_on,76,37,0
2,note_on,76,0,120
2,note_on,72,0,0
2,note_on,41,66,120
2,note_on,53,66,0
2,note_on,53,0,197
2,note_on,41,0,0
2,note_on,57,60,0
2,note_on,60,60,0
2,note_on,65,60,0
2,note_on,65,0,194
2,note_on,60,0,0
2,note_on,57,0,0
2,note_on,57,60,0
2,note_on,60,60,0
2,note_on,65,60,0
2,note_on,65,0,201
2,note_on,60,0,0
2,note_on,57,0,0
2,note_on,36,66,0
2,note_on,48,66,0
2,note_on,48,0,155
2,note_on,36,0,0
2,note_on,57,60,0
2,note_on,60,60,0
2,note_on,65,60,0
2,note_on,65,0,112
2,note_on,60,0,0
2,note_on,57,0,0
2,note_on,57,60,120
2,note_on,60,60,0
2,note_on,65,60,0
2,note_on,65,0,120
2,note_on,60,0,0
2,note_on,57,0,0
2,note_on,41,66,120
2,note_on,53,66,0
2,note_on,53,0,215
2,note_on,41,0,0
2,note_on,65,60,0
2,note_on,57,60,0
2,note_on,60,60,0
2,note_on,60,0,194
2,note_on,57,0,0
2,note_on,65,0,0
2,note_on,57,60,0
2,note_on,65,60,0
2,note_on,60,60,0
2,note_on,60,0,201
2,note_on,65,0,0
2,note_on,57,0,0
2,note_on,48,66,0
2,note_on,36,66,0
2,note_on,36,0,155
2,note_on,48,0,0
2,note_on,57,60,0
2,note_on,65,60,0
2,note_on,60,60,0
2,note_on,60,0,112
2,note_on,65,0,0
2,note_on,57,0,0
2,note_on,57,60,120
2,note_on,65,60,0
2,note_on,60,60,0
2,note_on,60,0,120
2,note_on,65,0,0
2,note_on,57,0,0
2,note_on,53,60,120
2,note_on,53,0,204
2,note_on,59,61,0
2,note_on,59,0,53
2,note_on,60,54,0
2,note_on,60,0,120
2,note_on,48,53,0
2,note_on,48,0,109
2,note_on,62,54,0
2,note_on,62,0,60
2,note_on,60,61,0
2,note_on,60,0,51
2,note_on,59,51,0
2,note_on,59,0,120
2,note_on,60,60,0
2,note_on,60,0,45
2,note_on,62,53,0
2,note_on,62,0,120
2,note_on,60,50,0
2,note_on,60,0,201
2,note_on,53,60,30
2,note_on,53,0,212
2,note_on,59,64,0
2,note_on,59,0,35
2,note_on,60,55,0
2,note_on,60,0,120
2,note_on,48,53,0
2,note_on,48,0,109
2,note_on,62,54,0
2,note_on,62,0,60
2,note_on,60,61,0
2,note_on,60,0,56
2,note_on,59,49,0
2,note_on,59,0,120
2,note_on,60,60,0
2,note_on,60,0,64
2,note_on,62,53,0
2,note_on,62,0,120
2,note_on,60,50,0
2,note_on,60,0,118
2,note_on,36,98,0
2,note_on,36,0,7
2,note_on,60,62,360
2,note_on,60,0,120
2,note_on,72,60,184
2,note_on,72,0,120
2,note_on,84,61,162
2,note_on,84,0,60
2,note_on,67,54,120
2,note_on,74,62,0
2,note_on,74,0,60
2,note_on,67,0,0
2,note_on,67,54,60
2,note_on,74,62,0
2,note_on,74,0,60
2,note_on,67,0,0
2,note_on,79,67,60
2,note_on,79,0,120
2,note_on,67,48,120
2,note_on,74,56,0
2,note_on,74,0,120
2,note_on,67,0,0
2,note_on,79,58,120
2,note_on,79,0,120
2,note_on,67,48,120
2,note_on,74,56,0
2,note_on,74,0,120
2,note_on,67,0,0
2,note_on,36,98,120
2,note_on,36,0,71
2,note_on,60,59,360
2,note_on,60,0,120
2,note_on,72,60,148
2,note_on,72,0,120
2,note_on,84,59,141
2,note_on,84,0,78
2,note_on,72,54,120
2,note_on,77,62,0
2,note_on,77,0,60
2,note_on,72,0,0
2,note_on,72,54,60
2,note_on,77,62,0
2,note_on,77,0,60
2,note_on,72,0,0
2,note_on,72,67,60
2,note_on,77,67,0
2,note_on,77,0,120
2,note_on,72,0,0
2,note_on,72,54,120
2,note_on,77,62,0
2,note_on,77,0,60
2,note_on,72,0,0
2,note_on,72,54,60
2,note_on,77,62,0
2,note_on,77,0,60
2,note_on,72,0,0
2,note_on,72,67,60
2,note_on,77,67,0
2,note_on,77,0,120
2,note_on,72,0,0
2,note_on,72,48,120
2,note_on,76,56,0
2,note_on,76,0,120
2,note_on,72,0,0
2,note_on,53,35,0
2,note_on,60,35,0
2,note_on,65,35,0
2,note_on,65,0,240
2,note_on,60,0,0
2,note_on,53,0,0
2,note_on,53,32,0
2,note_on,60,32,0
2,note_on,65,32,0
2,note_on,65,0,183
2,note_on,60,0,0
2,note_on,53,0,0
2,note_on,53,27,0
2,note_on,60,27,0
2,note_on,65,27,0
2,note_on,65,0,240
2,note_on,60,0,0
2,note_on,53,0,0
2,note_on,53,35,0
2,note_on,61,35,0
2,note_on,65,35,0
2,note_on,65,0,69
2,note_on,61,0,0
2,note_on,53,0,0
2,note_on,53,31,120
2,note_on,61,31,0
2,note_on,65,31,0
2,note_on,65,0,34
2,note_on,61,0,0
2,note_on,53,0,0
2,note_on,53,28,120
2,note_on,61,28,0
2,note_on,61,0,120
2,note_on,53,0,0
2,note_on,53,37,0
2,note_on,62,37,0
2,note_on,65,37,0
2,note_on,65,0,191
2,note_on,62,0,0
2,note_on,53,0,0
2,note_on,53,34,0
2,note_on,62,34,0
2,note_on,65,34,0
2,note_on,65,0,159
2,note_on,62,0,0
2,note_on,53,0,0
2,note_on,53,30,0
2,note_on,62,30,0
2,note_on,65,30,0
2,note_on,65,0,240
2,note_on,62,0,0
2,note_on,53,0,0
2,note_on,53,40,0
2,note_on,61,40,0
2,note_on,65,40,0
2,note_on,65,0,69
2,note_on,61,0,0
2,note_on,53,0,0
2,note_on,53,36,120
2,note_on,61,36,0
2,note_on,65,36,0
2,note_on,65,0,34
2,note_on,61,0,0
2,note_on,53,0,0
2,note_on,53,33,120
2,note_on,61,33,0
2,note_on,61,0,120
2,note_on,53,0,0
2,note_on,53,42,0
2,note_on,60,42,0
2,note_on,65,42,0
2,note_on,65,0,191
2,note_on,60,0,0
2,note_on,53,0,0
2,note_on,53,39,0
2,note_on,60,39,0
2,note_on,65,39,0
2,note_on,65,0,173
2,note_on,60,0,0
2,note_on,53,0,0
2,note_on,53,34,0
2,note_on,60,34,0
2,note_on,65,34,0
2,note_on,65,0,240
2,note_on,60,0,0
2,note_on,53,0,0
2,note_on,47,45,0
2,note_on,47,0,191
2,note_on,55,42,0
2,note_on,59,42,0
2,note_on,59,0,162
2,note_on,65,36,0
2,note_on,65,0,240
2,note_on,55,0,0
2,note_on,36,63,0
2,note_on,36,0,143
2,note_on,59,62,0
2,note_on,59,0,34
2,note_on,60,57,0
2,note_on,60,0,120
2,note_on,57,64,0
2,note_on,57,0,40
2,note_on,53,57,0
2,note_on,53,0,120
2,note_on,36,82,0
2,note_on,36,0,28
2,note_on,72,78,120
2,note_on,72,0,14
2,note_on,60,79,120
2,note_on,60,0,49
2,note_on,53,35,120
2,note_on,60,35,0
2,note_on,65,35,0
2,note_on,65,0,166
2,note_on,60,0,0
2,note_on,53,0,0
2,note_on,53,32,0
2,note_on,60,32,0
2,note_on,65,32,0
2,note_on,65,0,173
2,note_on,60,0,0
2,note_on,53,0,0
2,note_on,53,27,0
2,note_on,60,27,0
2,note_on,65,27,0
2,note_on,65,0,240
2,note_on,60,0,0
2,note_on,53,0,0
2,note_on,53,35,0
2,note_on,61,35,0
2,note_on,65,35,0
2,note_on,65,0,69
2,note_on,61,0,0
2,note_on,53,0,0
2,note_on,53,31,120
2,note_on,61,31,0
2,note_on,65,31,0
2,note_on,65,0,34
2,note_on,61,0,0
2,note_on,53,0,0
2,note_on,53,28,120
2,note_on,61,28,0
2,note_on,61,0,120
2,note_on,53,0,0
2,note_on,53,37,120
2,note_on,62,37,0
2,note_on,65,37,0
2,note_on,65,0,191
2,note_on,62,0,0
2,note_on,53,0,0
2,note_on,53,34,0
2,note_on,62,34,0
2,note_on,65,34,0
2,note_on,65,0,176
2,note_on,62,0,0
2,note_on,53,0,0
2,note_on,53,30,0
2,note_on,62,30,0
2,note_on,65,30,0
2,note_on,65,0,240
2,note_on,62,0,0
2,note_on,53,0,0
2,note_on,53,40,0
2,note_on,61,40,0
2,note_on,65,40,0
2,note_on,65,0,69
2,note_on,61,0,0
2,note_on,53,0,0
2,note_on,53,36,120
2,note_on,61,36,0
2,note_on,65,36,0
2,note_on,65,0,34
2,note_on,61,0,0
2,note_on,53,0,0
2,note_on,53,33,120
2,note_on,61,33,0
2,note_on,61,0,120
2,note_on,53,0,0
2,note_on,53,42,120
2,note_on,60,42,0
2,note_on,65,42,0
2,note_on,65,0,191
2,note_on,60,0,0
2,note_on,53,0,0
2,note_on,53,39,0
2,note_on,60,39,0
2,note_on,65,39,0
2,note_on,65,0,166
2,note_on,60,0,0
2,note_on,53,0,0
2,note_on,53,34,0
2,note_on,60,34,0
2,note_on,65,34,0
2,note_on,65,0,240
2,note_on,60,0,0
2,note_on,53,0,0
2,note_on,47,45,0
2,note_on,47,0,191
2,note_on,55,42,0
2,note_on,59,42,0
2,note_on,59,0,127
2,note_on,65,36,0
2,note_on,65,0,240
2,note_on,55,0,0
2,note_on,36,63,0
2,note_on,36,0,160
2,note_on,59,62,0
2,note_on,59,0,57
2,note_on,60,57,0
2,note_on,60,0,120
2,note_on,57,64,0
2,note_on,57,0,40
2,note_on,53,57,0
2,note_on,53,0,120
2,note_on,36,82,0
2,note_on,36,0,28
2,note_on,72,78,120
2,note_on,72,0,14
2,note_on,60,79,120
2,note_on,60,0,106
2,note_on,41,107,0
2,note_on,41,0,120
2,note_on,59,70,360
2,note_on,59,0,120
2,note_on,71,70,183
2,note_on,71,0,120
2,note_on,83,69,165
2,note_on,83,0,11
2,note_on,65,54,120
2,note_on,73,60,0
2,note_on,73,0,20
2,note_on,65,0,0
2,note_on,65,54,60
2,note_on,73,60,0
2,note_on,73,0,60
2,note_on,65,0,0
2,note_on,73,65,60
2,note_on,79,65,0
2,note_on,79,0,120
2,note_on,73,0,0
2,note_on,65,47,120
2,note_on,73,55,0
2,note_on,73,0,120
2,note_on,65,0,0
2,note_on,73,56,120
2,note_on,79,56,0
2,note_on,79,0,120
2,note_on,73,0,0
2,note_on,65,47,120
2,note_on,73,55,0
2,note_on,73,0,11
2,note_on,65,0,0
2,note_on,41,107,120
2,note_on,41,0,71
2,note_on,59,68,360
2,note_on,59,0,120
2,note_on,71,68,200
2,note_on,71,0,120
2,note_on,83,69,154
2,note_on,83,0,40
2,note_on,65,60,120
2,note_on,73,67,0
2,note_on,73,0,28
2,note_on,65,0,0
2,note_on,65,54,60
2,note_on,73,60,0
2,note_on,73,0,60
2,note_on,65,0,0
2,note_on,73,65,60
2,note_on,79,65,0
2,note_on,79,0,120
2,note_on,73,0,0
2,note_on,65,47,120
2,note_on,73,55,0
2,note_on,73,0,120
2,note_on,65,0,0
2,note_on,73,56,120
2,note_on,79,56,0
2,note_on,79,0,120
2,note_on,73,0,0
2,note_on,65,47,120
2,note_on,73,55,0
2,note_on,73,0,120
2,note_on,65,0,0
2,note_on,41,69,0
2,note_on,48,69,0
2,note_on,57,69,0
2,note_on,57,0,14
2,note_on,48,0,0
2,note_on,41,0,0
2,note_on,84,63,430
2,note_on,84,0,120
2,note_on,81,68,0
2,note_on,81,0,74
2,note_on,72,63,360
2,note_on,72,0,120
2,note_on,69,68,0
2,note_on,69,0,84
2,note_on,60,63,360
2,note_on,60,0,120
2,note_on,57,68,0
2,note_on,57,0,25
2,note_on,45,63,430
2,note_on,45,0,120
2,note_on,41,76,0
2,note_on,46,57,33
2,note_on,53,57,15
2,note_on,61,57,0
2,note_on,41,0,60
2,note_on,46,0,720
2,note_on,53,0,0
2,note_on,61,0,0
2,note_on,41,71,0
2,note_on,48,71,0
2,note_on,57,84,0
2,note_on,57,0,573
2,note_on,48,0,0
2,note_on,41,0,0
2,note_on,65,74,240
2,note_on,72,74,0
2,note_on,77,74,0
2,note_on,77,0,120
2,note_on,72,0,0
2,note_on,65,0,0
2,note_on,29,74,14
2,note_on,41,88,0
2,note_on,41,0,240
2,note_on,29,0,0
