Track,Message Type,Note,Velocity,Time
1,note_on,62,74,0
1,note_on,61,69,720
1,note_on,61,0,720
1,note_on,60,64,0
1,note_on,57,61,720
1,note_on,54,57,720
1,note_on,54,0,2160
1,note_on,62,0,0
1,note_on,60,0,0
1,note_on,57,0,0
1,note_on,62,53,0
1,note_on,62,0,360
1,note_on,62,53,0
1,note_on,62,0,120
1,note_on,62,53,0
1,note_on,62,0,240
1,note_on,67,56,0
1,note_on,58,47,0
1,note_on,62,47,0
1,note_on,62,0,480
1,note_on,58,0,0
1,note_on,67,0,0
1,note_on,69,53,0
1,note_on,69,0,240
1,note_on,66,50,0
1,note_on,63,51,0
1,note_on,70,60,0
1,note_on,70,0,480
1,note_on,63,0,0
1,note_on,66,0,0
1,note_on,69,52,0
1,note_on,69,0,240
1,note_on,62,48,0
1,note_on,67,57,0
1,note_on,67,0,480
1,note_on,62,0,0
1,note_on,67,53,0
1,note_on,67,0,240
1,note_on,60,53,0
1,note_on,62,53,0
1,note_on,62,0,360
1,note_on,60,0,0
1,note_on,62,53,0
1,note_on,60,53,0
1,note_on,60,0,120
1,note_on,62,0,0
1,note_on,60,53,0
1,note_on,62,53,0
1,note_on,62,0,240
1,note_on,60,0,0
1,note_on,58,47,0
1,note_on,67,56,0
1,note_on,62,56,0
1,note_on,62,0,480
1,note_on,67,0,0
1,note_on,58,0,0
1,note_on,69,53,0
1,note_on,69,0,240
1,note_on,63,60,0
1,note_on,66,51,0
1,note_on,70,60,0
1,note_on,70,0,480
1,note_on,66,0,0
1,note_on,63,0,0
1,note_on,69,51,0
1,note_on,69,0,240
1,note_on,62,41,0
1,note_on,67,57,0
1,note_on,67,0,480
1,note_on,62,0,0
1,note_on,67,53,0
1,note_on,67,0,240
1,note_on,58,53,0
1,note_on,62,53,0
1,note_on,62,0,360
1,note_on,58,0,0
1,note_on,58,53,0
1,note_on,62,53,0
1,note_on,62,0,120
1,note_on,58,0,0
1,note_on,62,53,0
1,note_on,58,53,0
1,note_on,58,0,240
1,note_on,62,0,0
1,note_on,58,60,0
1,note_on,65,60,0
1,note_on,65,0,480
1,note_on,58,0,0
1,note_on,65,58,0
1,note_on,65,0,240
1,note_on,57,58,0
1,note_on,65,58,0
1,note_on,65,0,480
1,note_on,57,0,0
1,note_on,62,57,0
1,note_on,62,0,240
1,note_on,53,61,0
1,note_on,58,61,0
1,note_on,58,0,480
1,note_on,53,0,0
1,note_on,58,62,0
1,note_on,58,0,240
1,note_on,58,59,0
1,note_on,55,59,0
1,note_on,58,0,360
1,note_on,58,59,0
1,note_on,58,0,120
1,note_on,60,53,0
1,note_on,60,0,240
1,note_on,55,0,0
1,note_on,53,49,0
1,note_on,62,49,0
1,note_on,58,49,0
1,note_on,58,0,720
1,note_on,62,0,0
1,note_on,53,0,0
1,note_on,54,46,0
1,note_on,58,55,0
1,note_on,58,0,360
1,note_on,58,50,0
1,note_on,58,0,120
1,note_on,60,56,0
1,note_on,60,0,240
1,note_on,54,0,0
1,note_on,62,57,0
1,note_on,53,48,0
1,note_on,58,57,0
1,note_on,58,0,480
1,note_on,53,0,0
1,note_on,62,0,0
1,note_on,65,60,0
1,note_on,65,0,240
1,note_on,63,66,0
1,note_on,57,56,0
1,note_on,67,66,0
1,note_on,67,0,480
1,note_on,57,0,0
1,note_on,63,0,0
1,note_on,65,56,0
1,note_on,65,0,240
1,note_on,62,58,0
1,note_on,53,49,0
1,note_on,58,52,0
1,note_on,58,0,480
1,note_on,53,0,0
1,note_on,62,0,0
1,note_on,60,52,0
1,note_on,60,0,240
1,note_on,55,49,0
1,note_on,58,49,0
1,note_on,58,0,360
1,note_on,58,48,0
1,note_on,58,0,120
1,note_on,55,0,0
1,note_on,60,41,0
1,note_on,55,41,0
1,note_on,55,0,240
1,note_on,60,0,0
1,note_on,57,40,0
1,note_on,54,36,0
1,note_on,62,49,0
1,note_on,62,0,2160
1,note_on,54,0,0
1,note_on,57,0,0
1,note_on,74,53,0
1,note_on,74,0,360
1,note_on,74,53,0
1,note_on,74,0,120
1,note_on,74,53,0
1,note_on,74,0,240
1,note_on,74,47,0
1,note_on,70,47,0
1,note_on,79,56,0
1,note_on,79,0,480
1,note_on,70,0,0
1,note_on,74,0,0
1,note_on,81,53,0
1,note_on,81,0,240
1,note_on,75,47,0
1,note_on,78,51,0
1,note_on,82,60,0
1,note_on,82,0,480
1,note_on,78,0,0
1,note_on,75,0,0
1,note_on,81,51,0
1,note_on,81,0,240
1,note_on,74,48,0
1,note_on,79,57,0
1,note_on,79,0,480
1,note_on,74,0,0
1,note_on,79,53,0
1,note_on,79,0,240
1,note_on,72,53,0
1,note_on,74,53,0
1,note_on,74,0,360
1,note_on,72,0,0
1,note_on,72,53,0
1,note_on,74,53,0
1,note_on,74,0,120
1,note_on,72,0,0
1,note_on,74,53,0
1,note_on,72,53,0
1,note_on,72,0,240
1,note_on,74,0,0
1,note_on,79,56,0
1,note_on,74,56,0
1,note_on,70,47,0
1,note_on,70,0,480
1,note_on,74,0,0
1,note_on,79,0,0
1,note_on,81,53,0
1,note_on,81,0,240
1,note_on,78,52,0
1,note_on,75,52,0
1,note_on,82,60,0
1,note_on,82,0,480
1,note_on,75,0,0
1,note_on,78,0,0
1,note_on,81,51,0
1,note_on,81,0,240
1,note_on,74,57,0
1,note_on,79,57,0
1,note_on,79,0,480
1,note_on,74,0,0
1,note_on,79,53,0
1,note_on,79,0,240
1,note_on,70,53,0
1,note_on,74,53,0
1,note_on,74,0,360
1,note_on,70,0,0
1,note_on,74,53,0
1,note_on,70,53,0
1,note_on,70,0,120
1,note_on,74,0,0
1,note_on,70,53,0
1,note_on,74,53,0
1,note_on,74,0,240
1,note_on,70,0,0
1,note_on,70,60,0
1,note_on,77,60,0
1,note_on,77,0,480
1,note_on,70,0,0
1,note_on,77,55,0
1,note_on,77,0,240
1,note_on,69,51,0
1,note_on,77,58,0
1,note_on,77,0,480
1,note_on,69,0,0
1,note_on,70,61,0
1,note_on,70,0,240
1,note_on,65,55,0
1,note_on,70,61,0
1,note_on,70,0,480
1,note_on,65,0,0
1,note_on,70,62,0
1,note_on,70,0,240
1,note_on,67,59,0
1,note_on,70,59,0
1,note_on,70,0,360
1,note_on,70,59,0
1,note_on,70,0,120
1,note_on,72,58,0
1,note_on,72,0,240
1,note_on,67,0,0
1,note_on,65,49,0
1,note_on,74,49,0
1,note_on,70,49,0
1,note_on,70,0,720
1,note_on,74,0,0
1,note_on,65,0,0
1,note_on,66,46,0
1,note_on,70,55,0
1,note_on,70,0,360
1,note_on,70,50,0
1,note_on,70,0,120
1,note_on,72,56,0
1,note_on,72,0,240
1,note_on,66,0,0
1,note_on,74,57,0
1,note_on,65,48,0
1,note_on,70,57,0
1,note_on,70,0,480
1,note_on,65,0,0
1,note_on,74,0,0
1,note_on,77,57,0
1,note_on,77,0,240
1,note_on,75,56,0
1,note_on,69,56,0
1,note_on,79,66,0
1,note_on,79,0,480
1,note_on,69,0,0
1,note_on,75,0,0
1,note_on,77,56,0
1,note_on,77,0,240
1,note_on,74,58,0
1,note_on,65,49,0
1,note_on,70,58,0
1,note_on,70,0,480
1,note_on,65,0,0
1,note_on,74,0,0
1,note_on,72,52,0
1,note_on,72,0,240
1,note_on,67,49,0
1,note_on,70,49,0
1,note_on,70,0,360
1,note_on,70,48,0
1,note_on,70,0,120
1,note_on,72,41,0
1,note_on,72,0,240
1,note_on,67,0,0
1,note_on,74,49,0
1,note_on,69,40,0
1,note_on,66,40,0
1,note_on,66,0,2160
1,note_on,69,0,0
1,note_on,74,0,0
1,note_on,62,53,0
1,note_on,62,0,360
1,note_on,62,53,0
1,note_on,62,0,120
1,note_on,62,53,0
1,note_on,62,0,240
1,note_on,59,47,0
1,note_on,62,47,0
1,note_on,65,56,0
1,note_on,65,0,480
1,note_on,62,0,0
1,note_on,59,0,0
1,note_on,67,54,0
1,note_on,67,0,180
1,note_on,70,51,0
1,note_on,70,0,60
1,note_on,62,60,0
1,note_on,59,51,0
1,note_on,68,60,0
1,note_on,68,0,480
1,note_on,59,0,0
1,note_on,62,0,0
1,note_on,67,55,0
1,note_on,67,0,240
1,note_on,59,48,0
1,note_on,62,48,0
1,note_on,65,57,0
1,note_on,65,0,480
1,note_on,62,0,0
1,note_on,59,0,0
1,note_on,65,53,0
1,note_on,65,0,240
1,note_on,56,53,0
1,note_on,59,53,0
1,note_on,59,0,360
1,note_on,60,53,0
1,note_on,60,0,120
1,note_on,62,53,0
1,note_on,62,0,240
1,note_on,56,0,0
1,note_on,62,47,0
1,note_on,59,47,0
1,note_on,65,56,0
1,note_on,65,0,480
1,note_on,59,0,0
1,note_on,62,0,0
1,note_on,67,58,0
1,note_on,67,0,180
1,note_on,70,51,0
1,note_on,70,0,60
1,note_on,59,51,0
1,note_on,62,53,0
1,note_on,68,60,0
1,note_on,68,0,480
1,note_on,62,0,0
1,note_on,59,0,0
1,note_on,67,55,0
1,note_on,67,0,240
1,note_on,65,57,0
1,note_on,59,48,0
1,note_on,62,48,0
1,note_on,62,0,480
1,note_on,59,0,0
1,note_on,65,0,0
1,note_on,65,53,0
1,note_on,65,0,240
1,note_on,74,67,0
1,note_on,67,67,0
1,note_on,77,79,0
1,note_on,79,79,0
1,note_on,79,0,360
1,note_on,74,0,0
1,note_on,67,0,0
1,note_on,77,0,0
1,note_on,70,61,0
1,note_on,79,72,0
1,note_on,67,61,0
1,note_on,77,72,0
1,note_on,77,0,120
1,note_on,70,0,0
1,note_on,79,0,0
1,note_on,67,0,0
1,note_on,77,72,0
1,note_on,79,72,0
1,note_on,71,61,0
1,note_on,67,61,0
1,note_on,67,0,240
1,note_on,77,0,0
1,note_on,79,0,0
1,note_on,71,0,0
1,note_on,87,70,0
1,note_on,91,84,0
1,note_on,79,70,0
1,note_on,84,70,0
1,note_on,84,0,480
1,note_on,87,0,0
1,note_on,91,0,0
1,note_on,79,0,0
1,note_on,75,68,0
1,note_on,79,68,0
1,note_on,87,81,0
1,note_on,87,0,240
1,note_on,79,0,0
1,note_on,75,0,0
1,note_on,79,72,0
1,note_on,75,72,0
1,note_on,87,85,0
1,note_on,87,0,360
1,note_on,75,0,0
1,note_on,79,0,0
1,note_on,74,67,0
1,note_on,79,67,0
1,note_on,86,79,0
1,note_on,86,0,120
1,note_on,79,0,0
1,note_on,74,0,0
1,note_on,84,79,0
1,note_on,79,67,0
1,note_on,72,67,0
1,note_on,72,0,240
1,note_on,79,0,0
1,note_on,84,0,0
1,note_on,77,72,0
1,note_on,74,72,0
1,note_on,86,85,0
1,note_on,86,0,360
1,note_on,74,0,0
1,note_on,77,0,0
1,note_on,71,62,0
1,note_on,74,62,0
1,note_on,77,74,0
1,note_on,77,0,120
1,note_on,74,0,0
1,note_on,71,0,0
1,note_on,79,74,0
1,note_on,74,62,0
1,note_on,71,62,0
1,note_on,71,0,180
1,note_on,74,0,0
1,note_on,79,0,0
1,note_on,82,66,0
1,note_on,82,0,60
1,note_on,80,78,0
1,note_on,74,64,0
1,note_on,71,64,0
1,note_on,71,0,360
1,note_on,74,0,0
1,note_on,80,0,0
1,note_on,79,73,0
1,note_on,71,62,0
1,note_on,74,62,0
1,note_on,74,0,120
1,note_on,71,0,0
1,note_on,79,0,0
1,note_on,77,69,0
1,note_on,74,58,0
1,note_on,71,58,0
1,note_on,71,0,240
1,note_on,74,0,0
1,note_on,77,0,0
1,note_on,75,80,0
1,note_on,72,66,0
1,note_on,72,0,360
1,note_on,75,0,0
1,note_on,75,62,0
1,note_on,72,62,0
1,note_on,78,74,0
1,note_on,78,0,120
1,note_on,72,0,0
1,note_on,75,0,0
1,note_on,75,62,0
1,note_on,79,74,0
1,note_on,72,62,0
1,note_on,72,0,240
1,note_on,79,0,0
1,note_on,75,0,0
1,note_on,75,72,0
1,note_on,79,72,0
1,note_on,87,85,0
1,note_on,87,0,360
1,note_on,79,0,0
1,note_on,75,0,0
1,note_on,79,67,0
1,note_on,74,67,0
1,note_on,86,79,0
1,note_on,86,0,120
1,note_on,74,0,0
1,note_on,79,0,0
1,note_on,79,63,0
1,note_on,84,75,0
1,note_on,72,63,0
1,note_on,72,0,240
1,note_on,84,0,0
1,note_on,79,0,0
1,note_on,74,72,0
1,note_on,77,72,0
1,note_on,86,85,0
1,note_on,86,0,360
1,note_on,77,0,0
1,note_on,74,0,0
1,note_on,77,74,0
1,note_on,74,62,0
1,note_on,71,62,0
1,note_on,71,0,120
1,note_on,74,0,0
1,note_on,77,0,0
1,note_on,79,74,0
1,note_on,74,62,0
1,note_on,71,62,0
1,note_on,71,0,180
1,note_on,74,0,0
1,note_on,79,0,0
1,note_on,82,67,0
1,note_on,82,0,60
1,note_on,80,78,0
1,note_on,74,64,0
1,note_on,71,64,0
1,note_on,71,0,360
1,note_on,74,0,0
1,note_on,80,0,0
1,note_on,79,73,0
1,note_on,71,62,0
1,note_on,74,62,0
1,note_on,74,0,120
1,note_on,71,0,0
1,note_on,79,0,0
1,note_on,71,62,0
1,note_on,77,73,0
1,note_on,74,62,0
1,note_on,74,0,240
1,note_on,77,0,0
1,note_on,71,0,0
1,note_on,75,80,0
1,note_on,72,66,0
1,note_on,72,0,360
1,note_on,75,0,0
1,note_on,72,62,0
1,note_on,75,62,0
1,note_on,78,74,0
1,note_on,78,0,120
1,note_on,75,0,0
1,note_on,72,0,0
1,note_on,79,74,0
1,note_on,75,62,0
1,note_on,72,62,0
1,note_on,72,0,240
1,note_on,75,0,0
1,note_on,79,0,0
1,note_on,74,68,0
1,note_on,79,68,0
1,note_on,86,81,0
1,note_on,79,0,360
1,note_on,74,0,0
1,note_on,79,74,4
1,note_on,74,74,112
1,note_on,79,0,8
1,note_on,74,0,232
1,note_on,86,0,4
1,note_on,79,68,0
1,note_on,84,81,0
1,note_on,72,68,0
1,note_on,72,0,360
1,note_on,79,0,0
1,note_on,79,70,4
1,note_on,72,68,116
1,note_on,79,0,4
1,note_on,72,0,116
1,note_on,84,0,0
1,note_on,81,62,0
1,note_on,81,0,60
1,note_on,84,62,0
1,note_on,84,0,60
1,note_on,74,51,0
1,note_on,72,51,0
1,note_on,78,51,0
1,note_on,81,72,0
1,note_on,81,0,360
1,note_on,74,0,0
1,note_on,72,0,0
1,note_on,78,0,0
1,note_on,79,69,0
1,note_on,79,0,120
1,note_on,81,69,0
1,note_on,81,0,240
1,note_on,70,68,0
1,note_on,82,81,0
1,note_on,74,68,0
1,note_on,74,0,360
1,note_on,70,0,0
1,note_on,79,74,4
1,note_on,74,74,116
1,note_on,79,0,4
1,note_on,74,0,236
1,note_on,82,0,0
1,note_on,82,72,0
1,note_on,74,72,0
1,note_on,79,72,0
1,note_on,86,72,0
1,note_on,86,0,360
1,note_on,82,0,0
1,note_on,74,0,0
1,note_on,79,0,0
1,note_on,79,69,0
1,note_on,79,0,120
1,note_on,74,69,0
1,note_on,74,0,240
1,note_on,69,57,0
1,note_on,74,68,0
1,note_on,81,68,0
1,note_on,74,0,360
1,note_on,69,0,0
1,note_on,74,74,0
1,note_on,74,0,120
1,note_on,69,56,0
1,note_on,69,0,240
1,note_on,81,0,0
1,note_on,73,61,0
1,note_on,79,61,0
1,note_on,81,72,0
1,note_on,81,0,360
1,note_on,82,69,0
1,note_on,82,0,120
1,note_on,81,69,0
1,note_on,81,0,240
1,note_on,79,0,0
1,note_on,73,0,0
1,note_on,81,67,0
1,note_on,86,79,0
1,note_on,74,67,0
1,note_on,74,0,720
1,note_on,86,0,0
1,note_on,81,0,0
1,note_on,74,63,360
1,note_on,74,0,120
1,note_on,74,63,0
1,note_on,74,0,240
1,note_on,75,71,0
1,note_on,72,60,0
1,note_on,69,60,0
1,note_on,75,0,360
1,note_on,79,61,0
1,note_on,79,0,120
1,note_on,82,61,0
1,note_on,82,0,240
1,note_on,69,0,0
1,note_on,72,0,0
1,note_on,75,58,0
1,note_on,79,58,0
1,note_on,86,69,0
1,note_on,86,0,360
1,note_on,84,63,0
1,note_on,84,0,120
1,note_on,79,63,0
1,note_on,79,0,240
1,note_on,79,0,0
1,note_on,75,0,0
1,note_on,72,56,0
1,note_on,81,71,0
1,note_on,74,56,0
1,note_on,81,0,360
1,note_on,82,61,0
1,note_on,82,0,120
1,note_on,81,61,0
1,note_on,81,0,240
1,note_on,74,0,0
1,note_on,72,0,0
1,note_on,75,58,0
1,note_on,78,58,0
1,note_on,84,69,0
1,note_on,84,0,360
1,note_on,78,0,0
1,note_on,75,0,0
1,note_on,74,53,0
1,note_on,78,53,0
1,note_on,82,63,0
1,note_on,82,0,120
1,note_on,78,0,0
1,note_on,74,0,0
1,note_on,72,53,0
1,note_on,78,53,0
1,note_on,81,63,0
1,note_on,81,0,240
1,note_on,78,0,0
1,note_on,72,0,0
1,note_on,70,60,0
1,note_on,74,60,0
1,note_on,79,71,0
1,note_on,79,0,360
1,note_on,74,0,0
1,note_on,70,0,0
1,note_on,72,51,0
1,note_on,75,51,0
1,note_on,81,61,0
1,note_on,81,0,120
1,note_on,75,0,0
1,note_on,72,0,0
1,note_on,70,51,0
1,note_on,74,51,0
1,note_on,79,61,0
1,note_on,79,0,240
1,note_on,74,0,0
1,note_on,70,0,0
1,note_on,69,55,0
1,note_on,77,64,0
1,note_on,72,55,0
1,note_on,72,0,360
1,note_on,77,0,0
1,note_on,69,0,0
1,note_on,74,49,0
1,note_on,79,58,0
1,note_on,70,49,0
1,note_on,70,0,120
1,note_on,79,0,0
1,note_on,74,0,0
1,note_on,75,58,0
1,note_on,67,49,0
1,note_on,70,49,0
1,note_on,70,0,240
1,note_on,67,0,0
1,note_on,75,0,0
1,note_on,74,61,0
1,note_on,66,51,0
1,note_on,69,51,0
1,note_on,69,0,720
1,note_on,66,0,0
1,note_on,74,0,0
1,note_on,62,47,360
1,note_on,62,0,120
1,note_on,62,47,0
1,note_on,62,0,240
1,note_on,60,53,0
1,note_on,57,53,0
1,note_on,63,63,0
1,note_on,63,0,360
1,note_on,67,55,0
1,note_on,67,0,120
1,note_on,70,55,0
1,note_on,70,0,240
1,note_on,57,0,0
1,note_on,60,0,0
1,note_on,67,51,0
1,note_on,63,51,0
1,note_on,74,61,0
1,note_on,74,0,360
1,note_on,72,57,0
1,note_on,72,0,120
1,note_on,67,57,0
1,note_on,67,0,240
1,note_on,63,0,0
1,note_on,67,0,0
1,note_on,69,63,0
1,note_on,62,48,0
1,note_on,60,45,0
1,note_on,69,0,360
1,note_on,70,55,0
1,note_on,70,0,120
1,note_on,69,55,0
1,note_on,69,0,240
1,note_on,60,0,0
1,note_on,62,0,0
1,note_on,66,51,0
1,note_on,63,51,0
1,note_on,72,61,0
1,note_on,72,0,360
1,note_on,70,57,0
1,note_on,70,0,120
1,note_on,69,57,0
1,note_on,69,0,240
1,note_on,63,0,0
1,note_on,66,0,0
1,note_on,67,63,0
1,note_on,58,53,0
1,note_on,62,53,0
1,note_on,62,0,360
1,note_on,58,0,0
1,note_on,67,0,0
1,note_on,69,55,0
1,note_on,60,46,0
1,note_on,63,46,0
1,note_on,63,0,120
1,note_on,60,0,0
1,note_on,69,0,0
1,note_on,67,55,0
1,note_on,58,46,0
1,note_on,62,46,0
1,note_on,62,0,240
1,note_on,58,0,0
1,note_on,67,0,0
1,note_on,65,58,0
1,note_on,57,49,0
1,note_on,60,49,0
1,note_on,60,0,360
1,note_on,57,0,0
1,note_on,65,0,0
1,note_on,67,51,0
1,note_on,58,42,0
1,note_on,62,42,0
1,note_on,62,0,120
1,note_on,58,0,0
1,note_on,67,0,0
1,note_on,63,51,0
1,note_on,55,42,0
1,note_on,58,42,0
1,note_on,58,0,240
1,note_on,55,0,0
1,note_on,63,0,0
1,note_on,57,58,0
1,note_on,62,58,0
1,note_on,62,0,720
1,note_on,57,0,0
1,note_on,60,53,0
1,note_on,62,53,0
1,note_on,62,0,360
1,note_on,62,53,0
1,note_on,62,0,120
1,note_on,62,53,0
1,note_on,62,0,240
1,note_on,60,0,0
1,note_on,58,47,0
1,note_on,62,47,0
1,note_on,67,56,0
1,note_on,67,0,480
1,note_on,62,0,0
1,note_on,58,0,0
1,note_on,69,56,0
1,note_on,69,0,240
1,note_on,63,51,0
1,note_on,66,60,0
1,note_on,70,60,0
1,note_on,70,0,480
1,note_on,66,0,0
1,note_on,63,0,0
1,note_on,69,55,0
1,note_on,69,0,240
1,note_on,58,48,0
1,note_on,62,48,0
1,note_on,67,57,0
1,note_on,67,0,480
1,note_on,62,0,0
1,note_on,58,0,0
1,note_on,67,53,0
1,note_on,67,0,240
1,note_on,60,53,0
1,note_on,62,53,0
1,note_on,62,0,360
1,note_on,60,0,0
1,note_on,60,53,0
1,note_on,62,53,0
1,note_on,62,0,120
1,note_on,60,0,0
1,note_on,60,49,0
1,note_on,62,49,0
1,note_on,62,0,240
1,note_on,60,0,0
1,note_on,58,47,0
1,note_on,62,56,0
1,note_on,67,56,0
1,note_on,67,0,480
1,note_on,62,0,0
1,note_on,58,0,0
1,note_on,69,53,0
1,note_on,69,0,240
1,note_on,63,60,0
1,note_on,66,60,0
1,note_on,70,60,0
1,note_on,70,0,480
1,note_on,66,0,0
1,note_on,63,0,0
1,note_on,69,52,0
1,note_on,69,0,240
1,note_on,58,43,0
1,note_on,62,48,0
1,note_on,67,57,0
1,note_on,67,0,480
1,note_on,62,0,0
1,note_on,58,0,0
1,note_on,67,53,0
1,note_on,67,0,240
1,note_on,58,53,0
1,note_on,62,53,0
1,note_on,62,0,360
1,note_on,58,0,0
1,note_on,58,53,0
1,note_on,62,53,0
1,note_on,62,0,120
1,note_on,58,0,0
1,note_on,58,49,0
1,note_on,62,49,0
1,note_on,62,0,240
1,note_on,58,0,0
1,note_on,58,60,0
1,note_on,65,60,0
1,note_on,65,0,480
1,note_on,58,0,0
1,note_on,65,58,0
1,note_on,65,0,240
1,note_on,57,58,0
1,note_on,65,58,0
1,note_on,65,0,480
1,note_on,57,0,0
1,note_on,62,55,0
1,note_on,62,0,240
1,note_on,53,61,0
1,note_on,58,61,0
1,note_on,58,0,480
1,note_on,53,0,0
1,note_on,58,62,0
1,note_on,58,0,240
1,note_on,55,59,0
1,note_on,58,59,0
1,note_on,58,0,360
1,note_on,58,59,0
1,note_on,58,0,120
1,note_on,60,58,0
1,note_on,60,0,240
1,note_on,55,0,0
1,note_on,53,49,0
1,note_on,62,49,0
1,note_on,58,49,0
1,note_on,58,0,720
1,note_on,62,0,0
1,note_on,53,0,0
1,note_on,54,46,0
1,note_on,58,55,0
1,note_on,58,0,360
1,note_on,58,50,0
1,note_on,58,0,120
1,note_on,60,56,0
1,note_on,60,0,240
1,note_on,54,0,0
1,note_on,53,48,0
1,note_on,58,57,0
1,note_on,62,57,0
1,note_on,62,0,480
1,note_on,58,0,0
1,note_on,53,0,0
1,note_on,65,60,0
1,note_on,65,0,240
1,note_on,57,56,0
1,note_on,63,66,0
1,note_on,67,66,0
1,note_on,67,0,480
1,note_on,63,0,0
1,note_on,57,0,0
1,note_on,65,56,0
1,note_on,65,0,240
1,note_on,62,58,0
1,note_on,53,49,0
1,note_on,58,51,0
1,note_on,58,0,480
1,note_on,53,0,0
1,note_on,62,0,0
1,note_on,60,52,0
1,note_on,60,0,240
1,note_on,55,49,0
1,note_on,58,49,0
1,note_on,58,0,360
1,note_on,58,48,0
1,note_on,58,0,120
1,note_on,55,0,0
1,note_on,55,41,0
1,note_on,60,41,0
1,note_on,60,0,240
1,note_on,55,0,0
1,note_on,54,40,0
1,note_on,57,40,0
1,note_on,62,49,0
1,note_on,62,0,2160
1,note_on,57,0,0
1,note_on,54,0,0
1,note_on,62,53,0
1,note_on,62,0,360
1,note_on,62,53,0
1,note_on,62,0,120
1,note_on,62,53,0
1,note_on,62,0,240
1,note_on,59,47,0
1,note_on,62,47,0
1,note_on,65,56,0
1,note_on,65,0,480
1,note_on,62,0,0
1,note_on,59,0,0
1,note_on,67,56,0
1,note_on,67,0,180
1,note_on,70,51,0
1,note_on,70,0,60
1,note_on,59,51,0
1,note_on,62,60,0
1,note_on,68,60,0
1,note_on,68,0,480
1,note_on,62,0,0
1,note_on,59,0,0
1,note_on,67,56,0
1,note_on,67,0,240
1,note_on,59,48,0
1,note_on,62,48,0
1,note_on,65,57,0
1,note_on,65,0,480
1,note_on,62,0,0
1,note_on,59,0,0
1,note_on,65,53,0
1,note_on,65,0,240
1,note_on,56,53,0
1,note_on,59,53,0
1,note_on,59,0,360
1,note_on,60,53,0
1,note_on,60,0,120
1,note_on,62,53,0
1,note_on,62,0,240
1,note_on,56,0,0
1,note_on,59,47,0
1,note_on,62,47,0
1,note_on,65,56,0
1,note_on,65,0,480
1,note_on,62,0,0
1,note_on,59,0,0
1,note_on,67,58,0
1,note_on,67,0,180
1,note_on,70,51,0
1,note_on,70,0,60
1,note_on,59,51,0
1,note_on,62,60,0
1,note_on,68,60,0
1,note_on,68,0,480
1,note_on,62,0,0
1,note_on,59,0,0
1,note_on,67,59,0
1,note_on,67,0,240
1,note_on,59,48,0
1,note_on,62,48,0
1,note_on,65,57,0
1,note_on,65,0,480
1,note_on,62,0,0
1,note_on,59,0,0
1,note_on,65,53,0
1,note_on,65,0,240
1,note_on,67,67,0
1,note_on,74,67,0
1,note_on,77,79,0
1,note_on,79,79,0
1,note_on,79,0,360
1,note_on,67,0,0
1,note_on,74,0,0
1,note_on,77,0,0
1,note_on,70,61,0
1,note_on,67,61,0
1,note_on,77,72,0
1,note_on,79,72,0
1,note_on,79,0,120
1,note_on,70,0,0
1,note_on,67,0,0
1,note_on,77,0,0
1,note_on,67,61,0
1,note_on,71,61,0
1,note_on,77,72,0
1,note_on,79,72,0
1,note_on,79,0,240
1,note_on,67,0,0
1,note_on,71,0,0
1,note_on,77,0,0
1,note_on,91,84,0
1,note_on,87,70,0
1,note_on,84,70,0
1,note_on,79,70,0
1,note_on,79,0,1440
1,note_on,91,0,0
1,note_on,87,0,0
1,note_on,84,0,0
1,note_on,63,58,720
1,note_on,67,58,0
1,note_on,69,58,0
1,note_on,69,0,360
1,note_on,67,0,0
1,note_on,63,0,0
1,note_on,63,58,0
1,note_on,67,58,0
1,note_on,70,70,0
1,note_on,70,0,120
1,note_on,67,0,0
1,note_on,63,0,0
1,note_on,63,58,0
1,note_on,67,58,0
1,note_on,72,70,0
1,note_on,72,0,240
1,note_on,67,0,0
1,note_on,63,0,0
1,note_on,63,63,0
1,note_on,67,63,0
1,note_on,72,77,0
1,note_on,75,77,0
1,note_on,75,0,720
1,note_on,63,0,0
1,note_on,67,0,0
1,note_on,72,0,0
1,note_on,67,58,0
1,note_on,69,58,0
1,note_on,72,70,0
1,note_on,72,0,360
1,note_on,69,0,0
1,note_on,67,0,0
1,note_on,67,63,0
1,note_on,69,63,0
1,note_on,74,77,0
1,note_on,74,0,120
1,note_on,69,0,0
1,note_on,67,0,0
1,note_on,67,62,0
1,note_on,69,62,0
1,note_on,75,74,0
1,note_on,75,0,240
1,note_on,69,0,0
1,note_on,67,0,0
1,note_on,67,70,0
1,note_on,69,70,0
1,note_on,75,82,0
1,note_on,81,82,0
1,note_on,81,0,720
1,note_on,67,0,0
1,note_on,69,0,0
1,note_on,75,0,0
1,note_on,60,58,0
1,note_on,67,69,0
1,note_on,63,58,0
1,note_on,67,0,360
1,note_on,69,60,0
1,note_on,69,0,120
1,note_on,67,58,0
1,note_on,67,0,240
1,note_on,63,0,0
1,note_on,60,0,0
1,note_on,67,58,0
1,note_on,62,58,0
1,note_on,74,69,0
1,note_on,74,0,720
1,note_on,62,0,0
1,note_on,67,0,0
1,note_on,62,57,360
1,note_on,62,0,120
1,note_on,62,57,0
1,note_on,62,0,240
1,note_on,60,56,0
1,note_on,63,67,0
1,note_on,57,56,0
1,note_on,63,0,360
1,note_on,67,59,0
1,note_on,67,0,120
1,note_on,69,59,0
1,note_on,69,0,240
1,note_on,57,0,0
1,note_on,60,0,0
1,note_on,63,57,0
1,note_on,67,57,0
1,note_on,72,68,0
1,note_on,72,0,360
1,note_on,74,59,0
1,note_on,74,0,120
1,note_on,75,59,0
1,note_on,75,0,240
1,note_on,67,0,0
1,note_on,63,0,0
1,note_on,67,56,0
1,note_on,74,67,0
1,note_on,62,56,0
1,note_on,62,0,720
1,note_on,74,0,0
1,note_on,67,0,0
1,note_on,61,55,0
1,note_on,67,66,0
1,note_on,67,0,360
1,note_on,72,56,0
1,note_on,72,0,120
1,note_on,70,59,0
1,note_on,70,0,240
1,note_on,61,0,0
1,note_on,60,55,0
1,note_on,68,66,0
1,note_on,68,0,360
1,note_on,72,55,0
1,note_on,72,0,120
1,note_on,67,56,0
1,note_on,67,0,120
1,note_on,60,0,0
1,note_on,66,55,0
1,note_on,66,0,60
1,note_on,67,56,0
1,note_on,67,0,60
1,note_on,60,52,0
1,note_on,66,62,0
1,note_on,66,0,360
1,note_on,64,55,0
1,note_on,64,0,120
1,note_on,66,55,0
1,note_on,66,0,240
1,note_on,60,0,0
1,note_on,67,52,0
1,note_on,58,44,0
1,note_on,58,0,720
1,note_on,67,0,0
1,note_on,57,45,0
1,note_on,60,45,0
1,note_on,62,53,0
1,note_on,62,0,360
1,note_on,60,0,0
1,note_on,60,45,0
1,note_on,62,53,0
1,note_on,62,0,120
1,note_on,60,0,0
1,note_on,60,45,0
1,note_on,62,53,0
1,note_on,62,0,240
1,note_on,60,0,0
1,note_on,57,0,0
1,note_on,58,47,0
1,note_on,62,47,0
1,note_on,67,56,0
1,note_on,67,0,480
1,note_on,62,0,0
1,note_on,58,0,0
1,note_on,69,55,0
1,note_on,69,0,240
1,note_on,63,51,0
1,note_on,66,50,0
1,note_on,70,60,0
1,note_on,70,0,480
1,note_on,66,0,0
1,note_on,63,0,0
1,note_on,69,53,0
1,note_on,69,0,240
1,note_on,62,48,0
1,note_on,67,57,0
1,note_on,67,0,480
1,note_on,62,0,0
1,note_on,67,53,0
1,note_on,67,0,240
1,note_on,60,53,0
1,note_on,62,53,0
1,note_on,62,0,360
1,note_on,60,0,0
1,note_on,60,53,0
1,note_on,62,53,0
1,note_on,62,0,120
1,note_on,60,0,0
1,note_on,60,51,0
1,note_on,62,51,0
1,note_on,62,0,240
1,note_on,60,0,0
1,note_on,58,47,0
1,note_on,62,56,0
1,note_on,67,56,0
1,note_on,67,0,480
1,note_on,62,0,0
1,note_on,58,0,0
1,note_on,69,55,0
1,note_on,69,0,240
1,note_on,63,51,0
1,note_on,66,51,0
1,note_on,70,60,0
1,note_on,70,0,480
1,note_on,66,0,0
1,note_on,63,0,0
1,note_on,69,51,0
1,note_on,69,0,240
1,note_on,62,51,0
1,note_on,67,57,0
1,note_on,67,0,480
1,note_on,62,0,0
1,note_on,67,53,0
1,note_on,67,0,240
1,note_on,58,53,0
1,note_on,62,53,0
1,note_on,62,0,360
1,note_on,58,0,0
1,note_on,58,53,0
1,note_on,62,53,0
1,note_on,62,0,120
1,note_on,58,0,0
1,note_on,58,50,0
1,note_on,62,50,0
1,note_on,62,0,240
1,note_on,58,0,0
1,note_on,58,60,0
1,note_on,65,60,0
1,note_on,65,0,480
1,note_on,58,0,0
1,note_on,65,58,0
1,note_on,65,0,240
1,note_on,57,58,0
1,note_on,65,58,0
1,note_on,65,0,480
1,note_on,57,0,0
1,note_on,62,56,0
1,note_on,62,0,240
1,note_on,53,61,0
1,note_on,58,61,0
1,note_on,58,0,480
1,note_on,53,0,0
1,note_on,58,62,0
1,note_on,58,0,240
1,note_on,55,59,0
1,note_on,58,59,0
1,note_on,58,0,360
1,note_on,58,59,0
1,note_on,58,0,120
1,note_on,60,58,0
1,note_on,60,0,240
1,note_on,55,0,0
1,note_on,53,49,0
1,note_on,62,49,0
1,note_on,58,49,0
1,note_on,58,0,720
1,note_on,62,0,0
1,note_on,53,0,0
1,note_on,54,46,0
1,note_on,58,55,0
1,note_on,58,0,360
1,note_on,58,50,0
1,note_on,58,0,120
1,note_on,60,56,0
1,note_on,60,0,240
1,note_on,54,0,0
1,note_on,53,48,0
1,note_on,58,57,0
1,note_on,62,57,0
1,note_on,62,0,480
1,note_on,58,0,0
1,note_on,53,0,0
1,note_on,65,60,0
1,note_on,65,0,240
1,note_on,57,56,0
1,note_on,63,66,0
1,note_on,67,66,0
1,note_on,67,0,480
1,note_on,63,0,0
1,note_on,57,0,0
1,note_on,65,56,0
1,note_on,65,0,240
1,note_on,62,58,0
1,note_on,53,49,0
1,note_on,58,52,0
1,note_on,58,0,480
1,note_on,53,0,0
1,note_on,62,0,0
1,note_on,60,52,0
1,note_on,60,0,240
1,note_on,55,49,0
1,note_on,58,49,0
1,note_on,58,0,360
1,note_on,58,48,0
1,note_on,58,0,120
1,note_on,55,0,0
1,note_on,55,41,0
1,note_on,60,41,0
1,note_on,60,0,240
1,note_on,55,0,0
1,note_on,54,38,0
1,note_on,57,40,0
1,note_on,62,49,0
1,note_on,62,0,2160
1,note_on,57,0,0
1,note_on,54,0,0
1,note_on,74,53,0
1,note_on,74,0,360
1,note_on,74,53,0
1,note_on,74,0,120
1,note_on,74,53,0
1,note_on,74,0,240
1,note_on,70,47,0
1,note_on,74,47,0
1,note_on,79,56,0
1,note_on,79,0,480
1,note_on,74,0,0
1,note_on,70,0,0
1,note_on,81,53,0
1,note_on,81,0,240
1,note_on,75,51,0
1,note_on,78,51,0
1,note_on,82,60,0
1,note_on,82,0,480
1,note_on,78,0,0
1,note_on,75,0,0
1,note_on,81,50,0
1,note_on,81,0,240
1,note_on,74,48,0
1,note_on,79,57,0
1,note_on,79,0,480
1,note_on,74,0,0
1,note_on,79,53,0
1,note_on,79,0,240
1,note_on,72,53,0
1,note_on,74,53,0
1,note_on,74,0,360
1,note_on,72,0,0
1,note_on,72,53,0
1,note_on,74,53,0
1,note_on,74,0,120
1,note_on,72,0,0
1,note_on,72,53,0
1,note_on,74,53,0
1,note_on,74,0,240
1,note_on,72,0,0
1,note_on,70,47,0
1,note_on,74,56,0
1,note_on,79,56,0
1,note_on,79,0,480
1,note_on,74,0,0
1,note_on,70,0,0
1,note_on,81,55,0
1,note_on,81,0,240
1,note_on,75,51,0
1,note_on,78,51,0
1,note_on,82,60,0
1,note_on,82,0,480
1,note_on,78,0,0
1,note_on,75,0,0
1,note_on,81,53,0
1,note_on,81,0,240
1,note_on,74,57,0
1,note_on,79,57,0
1,note_on,79,0,480
1,note_on,74,0,0
1,note_on,79,53,0
1,note_on,79,0,240
1,note_on,70,53,0
1,note_on,74,53,0
1,note_on,74,0,360
1,note_on,70,0,0
1,note_on,70,53,0
1,note_on,74,53,0
1,note_on,74,0,120
1,note_on,70,0,0
1,note_on,70,53,0
1,note_on,74,53,0
1,note_on,74,0,240
1,note_on,70,0,0
1,note_on,70,60,0
1,note_on,77,60,0
1,note_on,77,0,480
1,note_on,70,0,0
1,note_on,77,58,0
1,note_on,77,0,240
1,note_on,69,58,0
1,note_on,77,58,0
1,note_on,77,0,480
1,note_on,69,0,0
1,note_on,70,61,0
1,note_on,70,0,240
1,note_on,65,54,0
1,note_on,70,61,0
1,note_on,70,0,480
1,note_on,65,0,0
1,note_on,70,62,0
1,note_on,70,0,240
1,note_on,67,59,0
1,note_on,70,59,0
1,note_on,70,0,360
1,note_on,70,59,0
1,note_on,70,0,120
1,note_on,72,58,0
1,note_on,72,0,240
1,note_on,67,0,0
1,note_on,65,49,0
1,note_on,74,49,0
1,note_on,70,49,0
1,note_on,70,0,720
1,note_on,74,0,0
1,note_on,65,0,0
1,note_on,66,46,0
1,note_on,70,55,0
1,note_on,70,0,360
1,note_on,70,50,0
1,note_on,70,0,120
1,note_on,72,56,0
1,note_on,72,0,240
1,note_on,66,0,0
1,note_on,65,48,0
1,note_on,70,57,0
1,note_on,74,57,0
1,note_on,74,0,480
1,note_on,70,0,0
1,note_on,65,0,0
1,note_on,77,60,0
1,note_on,77,0,240
1,note_on,69,56,0
1,note_on,75,66,0
1,note_on,79,66,0
1,note_on,79,0,480
1,note_on,75,0,0
1,note_on,69,0,0
1,note_on,77,56,0
1,note_on,77,0,240
1,note_on,74,58,0
1,note_on,65,49,0
1,note_on,70,58,0
1,note_on,70,0,480
1,note_on,65,0,0
1,note_on,74,0,0
1,note_on,72,52,0
1,note_on,72,0,240
1,note_on,67,49,0
1,note_on,70,49,0
1,note_on,70,0,360
1,note_on,70,48,0
1,note_on,70,0,120
1,note_on,72,41,0
1,note_on,72,0,240
1,note_on,67,0,0
1,note_on,66,40,0
1,note_on,69,40,0
1,note_on,74,49,0
1,note_on,74,0,2160
1,note_on,69,0,0
1,note_on,66,0,0
1,note_on,62,53,0
1,note_on,62,0,360
1,note_on,62,53,0
1,note_on,62,0,120
1,note_on,62,53,0
1,note_on,62,0,240
1,note_on,59,47,0
1,note_on,62,47,0
1,note_on,65,56,0
1,note_on,65,0,480
1,note_on,62,0,0
1,note_on,59,0,0
1,note_on,67,55,0
1,note_on,67,0,180
1,note_on,70,51,0
1,note_on,70,0,60
1,note_on,59,51,0
1,note_on,62,60,0
1,note_on,68,60,0
1,note_on,68,0,480
1,note_on,62,0,0
1,note_on,59,0,0
1,note_on,67,55,0
1,note_on,67,0,240
1,note_on,59,48,0
1,note_on,62,48,0
1,note_on,65,57,0
1,note_on,65,0,480
1,note_on,62,0,0
1,note_on,59,0,0
1,note_on,65,53,0
1,note_on,65,0,240
1,note_on,56,53,0
1,note_on,59,53,0
1,note_on,59,0,360
1,note_on,60,53,0
1,note_on,60,0,120
1,note_on,62,53,0
1,note_on,62,0,240
1,note_on,56,0,0
1,note_on,59,47,0
1,note_on,62,47,0
1,note_on,65,56,0
1,note_on,65,0,480
1,note_on,62,0,0
1,note_on,59,0,0
1,note_on,67,57,0
1,note_on,67,0,180
1,note_on,70,51,0
1,note_on,70,0,60
1,note_on,59,51,0
1,note_on,62,60,0
1,note_on,68,60,0
1,note_on,68,0,480
1,note_on,62,0,0
1,note_on,59,0,0
1,note_on,67,55,0
1,note_on,67,0,240
1,note_on,59,48,0
1,note_on,62,48,0
1,note_on,65,57,0
1,note_on,65,0,480
1,note_on,62,0,0
1,note_on,59,0,0
1,note_on,65,53,0
1,note_on,65,0,240
1,note_on,67,67,0
1,note_on,74,67,0
1,note_on,77,79,0
1,note_on,79,79,0
1,note_on,79,0,360
1,note_on,67,0,0
1,note_on,74,0,0
1,note_on,77,0,0
1,note_on,70,61,0
1,note_on,67,61,0
1,note_on,77,72,0
1,note_on,79,72,0
1,note_on,79,0,120
1,note_on,70,0,0
1,note_on,67,0,0
1,note_on,77,0,0
1,note_on,67,61,0
1,note_on,71,61,0
1,note_on,77,72,0
1,note_on,79,72,0
1,note_on,79,0,240
1,note_on,67,0,0
1,note_on,71,0,0
1,note_on,77,0,0
1,note_on,91,84,0
1,note_on,87,70,0
1,note_on,84,70,0
1,note_on,79,70,0
1,note_on,79,0,480
1,note_on,91,0,0
1,note_on,87,0,0
1,note_on,84,0,0
1,note_on,87,81,0
1,note_on,79,68,0
1,note_on,75,68,0
1,note_on,75,0,240
1,note_on,79,0,0
1,note_on,87,0,0
1,note_on,79,72,0
1,note_on,75,72,0
1,note_on,87,85,0
1,note_on,87,0,360
1,note_on,75,0,0
1,note_on,79,0,0
1,note_on,74,67,0
1,note_on,79,67,0
1,note_on,86,79,0
1,note_on,86,0,120
1,note_on,79,0,0
1,note_on,74,0,0
1,note_on,84,79,0
1,note_on,79,67,0
1,note_on,72,67,0
1,note_on,72,0,240
1,note_on,79,0,0
1,note_on,84,0,0
1,note_on,77,72,0
1,note_on,74,72,0
1,note_on,86,85,0
1,note_on,86,0,360
1,note_on,74,0,0
1,note_on,77,0,0
1,note_on,71,62,0
1,note_on,74,62,0
1,note_on,77,74,0
1,note_on,77,0,120
1,note_on,74,0,0
1,note_on,71,0,0
1,note_on,79,74,0
1,note_on,74,62,0
1,note_on,71,62,0
1,note_on,71,0,180
1,note_on,74,0,0
1,note_on,79,0,0
1,note_on,82,66,0
1,note_on,82,0,60
1,note_on,74,64,0
1,note_on,71,64,0
1,note_on,80,78,0
1,note_on,80,0,360
1,note_on,71,0,0
1,note_on,74,0,0
1,note_on,71,62,0
1,note_on,74,62,0
1,note_on,79,73,0
1,note_on,79,0,120
1,note_on,74,0,0
1,note_on,71,0,0
1,note_on,77,73,0
1,note_on,74,62,0
1,note_on,71,62,0
1,note_on,71,0,240
1,note_on,74,0,0
1,note_on,77,0,0
1,note_on,75,80,0
1,note_on,72,66,0
1,note_on,72,0,360
1,note_on,75,0,0
1,note_on,72,62,0
1,note_on,75,62,0
1,note_on,78,74,0
1,note_on,78,0,120
1,note_on,75,0,0
1,note_on,72,0,0
1,note_on,79,74,0
1,note_on,75,62,0
1,note_on,72,62,0
1,note_on,72,0,240
1,note_on,75,0,0
1,note_on,79,0,0
1,note_on,79,72,0
1,note_on,75,72,0
1,note_on,87,85,0
1,note_on,87,0,360
1,note_on,75,0,0
1,note_on,79,0,0
1,note_on,74,67,0
1,note_on,79,67,0
1,note_on,86,79,0
1,note_on,86,0,120
1,note_on,79,0,0
1,note_on,74,0,0
1,note_on,84,79,0
1,note_on,79,67,0
1,note_on,72,67,0
1,note_on,72,0,240
1,note_on,79,0,0
1,note_on,84,0,0
1,note_on,77,72,0
1,note_on,74,72,0
1,note_on,86,85,0
1,note_on,86,0,360
1,note_on,74,0,0
1,note_on,77,0,0
1,note_on,71,62,0
1,note_on,74,62,0
1,note_on,77,74,0
1,note_on,77,0,120
1,note_on,74,0,0
1,note_on,71,0,0
1,note_on,79,74,0
1,note_on,74,62,0
1,note_on,71,62,0
1,note_on,71,0,180
1,note_on,74,0,0
1,note_on,79,0,0
1,note_on,82,67,0
1,note_on,82,0,60
1,note_on,74,64,0
1,note_on,71,64,0
1,note_on,80,78,0
1,note_on,80,0,360
1,note_on,71,0,0
1,note_on,74,0,0
1,note_on,71,62,0
1,note_on,74,62,0
1,note_on,79,73,0
1,note_on,79,0,120
1,note_on,74,0,0
1,note_on,71,0,0
1,note_on,77,73,0
1,note_on,74,62,0
1,note_on,71,62,0
1,note_on,71,0,240
1,note_on,74,0,0
1,note_on,77,0,0
1,note_on,75,80,0
1,note_on,72,66,0
1,note_on,72,0,360
1,note_on,75,0,0
1,note_on,72,62,0
1,note_on,75,62,0
1,note_on,78,74,0
1,note_on,78,0,120
1,note_on,75,0,0
1,note_on,72,0,0
1,note_on,79,74,0
1,note_on,75,62,0
1,note_on,72,62,0
1,note_on,72,0,240
1,note_on,75,0,0
1,note_on,79,0,0
1,note_on,74,68,0
1,note_on,86,81,0
1,note_on,79,68,0
1,note_on,79,0,360
1,note_on,74,0,0
1,note_on,79,74,4
1,note_on,74,68,112
1,note_on,79,0,8
1,note_on,74,0,232
1,note_on,86,0,4
1,note_on,84,81,0
1,note_on,72,68,0
1,note_on,79,68,0
1,note_on,79,0,360
1,note_on,72,0,0
1,note_on,79,70,4
1,note_on,72,66,116
1,note_on,79,0,4
1,note_on,72,0,116
1,note_on,84,0,0
1,note_on,81,62,0
1,note_on,81,0,60
1,note_on,84,62,0
1,note_on,84,0,60
1,note_on,72,51,0
1,note_on,74,51,0
1,note_on,78,51,0
1,note_on,81,72,0
1,note_on,81,0,360
1,note_on,72,0,0
1,note_on,74,0,0
1,note_on,78,0,0
1,note_on,79,69,0
1,note_on,79,0,120
1,note_on,81,69,0
1,note_on,81,0,240
1,note_on,82,81,0
1,note_on,70,68,0
1,note_on,74,68,0
1,note_on,74,0,360
1,note_on,70,0,0
1,note_on,79,71,4
1,note_on,74,68,116
1,note_on,79,0,4
1,note_on,74,0,236
1,note_on,82,0,0
1,note_on,74,72,0
1,note_on,79,72,0
1,note_on,82,72,0
1,note_on,86,72,0
1,note_on,86,0,360
1,note_on,74,0,0
1,note_on,79,0,0
1,note_on,82,0,0
1,note_on,79,69,0
1,note_on,79,0,120
1,note_on,74,69,0
1,note_on,74,0,240
1,note_on,81,68,0
1,note_on,69,57,0
1,note_on,74,68,0
1,note_on,74,0,360
1,note_on,69,0,0
1,note_on,74,74,0
1,note_on,74,0,120
1,note_on,69,66,0
1,note_on,69,0,240
1,note_on,81,0,0
1,note_on,73,61,0
1,note_on,79,61,0
1,note_on,81,72,0
1,note_on,81,0,360
1,note_on,82,69,0
1,note_on,82,0,120
1,note_on,81,69,0
1,note_on,81,0,240
1,note_on,79,0,0
1,note_on,73,0,0
1,note_on,86,79,0
1,note_on,81,67,0
1,note_on,74,67,0
1,note_on,74,0,720
1,note_on,81,0,0
1,note_on,86,0,0
1,note_on,74,63,360
1,note_on,74,0,120
1,note_on,74,63,0
1,note_on,74,0,240
1,note_on,72,60,0
1,note_on,69,60,0
1,note_on,75,71,0
1,note_on,75,0,360
1,note_on,79,61,0
1,note_on,79,0,120
1,note_on,82,61,0
1,note_on,82,0,240
1,note_on,69,0,0
1,note_on,72,0,0
1,note_on,75,58,0
1,note_on,79,58,0
1,note_on,86,69,0
1,note_on,86,0,360
1,note_on,84,63,0
1,note_on,84,0,120
1,note_on,79,63,0
1,note_on,79,0,240
1,note_on,79,0,0
1,note_on,75,0,0
1,note_on,74,52,0
1,note_on,72,52,0
1,note_on,81,71,0
1,note_on,81,0,360
1,note_on,82,61,0
1,note_on,82,0,120
1,note_on,81,61,0
1,note_on,81,0,240
1,note_on,72,0,0
1,note_on,74,0,0
1,note_on,75,58,0
1,note_on,78,58,0
1,note_on,84,69,0
1,note_on,84,0,360
1,note_on,78,0,0
1,note_on,75,0,0
1,note_on,74,53,0
1,note_on,78,53,0
1,note_on,82,63,0
1,note_on,82,0,120
1,note_on,78,0,0
1,note_on,74,0,0
1,note_on,72,53,0
1,note_on,78,53,0
1,note_on,81,63,0
1,note_on,81,0,240
1,note_on,78,0,0
1,note_on,72,0,0
1,note_on,70,60,0
1,note_on,74,60,0
1,note_on,79,71,0
1,note_on,79,0,360
1,note_on,74,0,0
1,note_on,70,0,0
1,note_on,72,51,0
1,note_on,75,51,0
1,note_on,81,61,0
1,note_on,81,0,120
1,note_on,75,0,0
1,note_on,72,0,0
1,note_on,70,51,0
1,note_on,74,51,0
1,note_on,79,61,0
1,note_on,79,0,240
1,note_on,74,0,0
1,note_on,70,0,0
1,note_on,69,55,0
1,note_on,72,55,0
1,note_on,77,64,0
1,note_on,77,0,360
1,note_on,72,0,0
1,note_on,69,0,0
1,note_on,70,49,0
1,note_on,74,49,0
1,note_on,79,58,0
1,note_on,79,0,120
1,note_on,74,0,0
1,note_on,70,0,0
1,note_on,67,49,0
1,note_on,70,49,0
1,note_on,75,58,0
1,note_on,75,0,240
1,note_on,70,0,0
1,note_on,67,0,0
1,note_on,66,51,0
1,note_on,69,51,0
1,note_on,74,61,0
1,note_on,74,0,720
1,note_on,69,0,0
1,note_on,66,0,0
1,note_on,62,47,360
1,note_on,62,0,120
1,note_on,62,47,0
1,note_on,62,0,240
1,note_on,60,53,0
1,note_on,57,53,0
1,note_on,63,63,0
1,note_on,63,0,360
1,note_on,67,55,0
1,note_on,67,0,120
1,note_on,70,55,0
1,note_on,70,0,240
1,note_on,57,0,0
1,note_on,60,0,0
1,note_on,63,51,0
1,note_on,67,51,0
1,note_on,74,61,0
1,note_on,74,0,360
1,note_on,72,57,0
1,note_on,72,0,120
1,note_on,67,57,0
1,note_on,67,0,240
1,note_on,67,0,0
1,note_on,63,0,0
1,note_on,62,50,0
1,note_on,60,47,0
1,note_on,69,63,0
1,note_on,69,0,360
1,note_on,70,55,0
1,note_on,70,0,120
1,note_on,69,55,0
1,note_on,69,0,240
1,note_on,60,0,0
1,note_on,62,0,0
1,note_on,63,51,0
1,note_on,66,51,0
1,note_on,72,61,0
1,note_on,72,0,360
1,note_on,70,57,0
1,note_on,70,0,120
1,note_on,69,57,0
1,note_on,69,0,240
1,note_on,66,0,0
1,note_on,63,0,0
1,note_on,58,53,0
1,note_on,62,53,0
1,note_on,67,63,0
1,note_on,67,0,360
1,note_on,62,0,0
1,note_on,58,0,0
1,note_on,60,46,0
1,note_on,63,46,0
1,note_on,69,55,0
1,note_on,69,0,120
1,note_on,63,0,0
1,note_on,60,0,0
1,note_on,58,46,0
1,note_on,62,46,0
1,note_on,67,55,0
1,note_on,67,0,240
1,note_on,62,0,0
1,note_on,58,0,0
1,note_on,57,49,0
1,note_on,60,49,0
1,note_on,65,58,0
1,note_on,65,0,360
1,note_on,60,0,0
1,note_on,57,0,0
1,note_on,58,42,0
1,note_on,62,42,0
1,note_on,67,51,0
1,note_on,67,0,120
1,note_on,62,0,0
1,note_on,58,0,0
1,note_on,55,42,0
1,note_on,58,42,0
1,note_on,63,51,0
1,note_on,63,0,240
1,note_on,58,0,0
1,note_on,55,0,0
1,note_on,57,58,0
1,note_on,62,58,0
1,note_on,62,0,720
1,note_on,57,0,0
1,note_on,60,53,0
1,note_on,62,53,0
1,note_on,62,0,360
1,note_on,62,53,0
1,note_on,62,0,120
1,note_on,62,53,0
1,note_on,62,0,240
1,note_on,60,0,0
1,note_on,58,47,0
1,note_on,62,47,0
1,note_on,67,56,0
1,note_on,67,0,480
1,note_on,62,0,0
1,note_on,58,0,0
1,note_on,69,56,0
1,note_on,69,0,240
1,note_on,63,51,0
1,note_on,66,60,0
1,note_on,70,60,0
1,note_on,70,0,480
1,note_on,66,0,0
1,note_on,63,0,0
1,note_on,69,59,0
1,note_on,69,0,240
1,note_on,58,48,0
1,note_on,62,48,0
1,note_on,67,57,0
1,note_on,67,0,480
1,note_on,62,0,0
1,note_on,58,0,0
1,note_on,67,53,0
1,note_on,67,0,240
1,note_on,60,53,0
1,note_on,62,53,0
1,note_on,62,0,360
1,note_on,60,0,0
1,note_on,60,53,0
1,note_on,62,53,0
1,note_on,62,0,120
1,note_on,60,0,0
1,note_on,60,51,0
1,note_on,62,51,0
1,note_on,62,0,240
1,note_on,60,0,0
1,note_on,58,47,0
1,note_on,62,56,0
1,note_on,67,56,0
1,note_on,67,0,480
1,note_on,62,0,0
1,note_on,58,0,0
1,note_on,69,56,0
1,note_on,69,0,240
1,note_on,63,60,0
1,note_on,66,60,0
1,note_on,70,60,0
1,note_on,70,0,480
1,note_on,66,0,0
1,note_on,63,0,0
1,note_on,69,53,0
1,note_on,69,0,240
1,note_on,58,48,0
1,note_on,62,48,0
1,note_on,67,57,0
1,note_on,67,0,480
1,note_on,62,0,0
1,note_on,58,0,0
1,note_on,67,53,0
1,note_on,67,0,240
1,note_on,58,53,0
1,note_on,62,53,0
1,note_on,62,0,360
1,note_on,58,0,0
1,note_on,58,53,0
1,note_on,62,53,0
1,note_on,62,0,120
1,note_on,58,0,0
1,note_on,58,49,0
1,note_on,62,49,0
1,note_on,62,0,240
1,note_on,58,0,0
1,note_on,58,60,0
1,note_on,65,60,0
1,note_on,65,0,480
1,note_on,58,0,0
1,note_on,65,58,0
1,note_on,65,0,240
1,note_on,57,58,0
1,note_on,65,58,0
1,note_on,65,0,480
1,note_on,57,0,0
1,note_on,62,59,0
1,note_on,62,0,240
1,note_on,53,61,0
1,note_on,58,61,0
1,note_on,58,0,480
1,note_on,53,0,0
1,note_on,58,62,0
1,note_on,58,0,240
1,note_on,55,59,0
1,note_on,58,59,0
1,note_on,58,0,360
1,note_on,58,59,0
1,note_on,58,0,120
1,note_on,60,58,0
1,note_on,60,0,240
1,note_on,55,0,0
1,note_on,53,49,0
1,note_on,62,49,0
1,note_on,58,49,0
1,note_on,58,0,720
1,note_on,62,0,0
1,note_on,53,0,0
1,note_on,54,46,0
1,note_on,58,55,0
1,note_on,58,0,360
1,note_on,58,50,0
1,note_on,58,0,120
1,note_on,60,56,0
1,note_on,60,0,240
1,note_on,54,0,0
1,note_on,53,48,0
1,note_on,58,57,0
1,note_on,62,57,0
1,note_on,62,0,480
1,note_on,58,0,0
1,note_on,53,0,0
1,note_on,65,60,0
1,note_on,65,0,240
1,note_on,57,56,0
1,note_on,63,66,0
1,note_on,67,66,0
1,note_on,67,0,480
1,note_on,63,0,0
1,note_on,57,0,0
1,note_on,65,56,0
1,note_on,65,0,240
1,note_on,62,58,0
1,note_on,53,49,0
1,note_on,58,50,0
1,note_on,58,0,480
1,note_on,53,0,0
1,note_on,62,0,0
1,note_on,60,52,0
1,note_on,60,0,240
1,note_on,55,49,0
1,note_on,58,49,0
1,note_on,58,0,360
1,note_on,58,48,0
1,note_on,58,0,120
1,note_on,55,0,0
1,note_on,55,41,0
1,note_on,60,41,0
1,note_on,60,0,240
1,note_on,55,0,0
1,note_on,54,40,0
1,note_on,57,40,0
1,note_on,62,49,0
1,note_on,62,0,2160
1,note_on,57,0,0
1,note_on,54,0,0
1,note_on,62,53,0
1,note_on,62,0,360
1,note_on,62,53,0
1,note_on,62,0,120
1,note_on,62,53,0
1,note_on,62,0,240
1,note_on,59,47,0
1,note_on,62,47,0
1,note_on,65,56,0
1,note_on,65,0,480
1,note_on,62,0,0
1,note_on,59,0,0
1,note_on,67,58,0
1,note_on,67,0,180
1,note_on,70,51,0
1,note_on,70,0,60
1,note_on,59,51,0
1,note_on,62,60,0
1,note_on,68,60,0
1,note_on,68,0,480
1,note_on,62,0,0
1,note_on,59,0,0
1,note_on,67,55,0
1,note_on,67,0,240
1,note_on,59,48,0
1,note_on,62,48,0
1,note_on,65,57,0
1,note_on,65,0,480
1,note_on,62,0,0
1,note_on,59,0,0
1,note_on,65,53,0
1,note_on,65,0,240
1,note_on,56,53,0
1,note_on,59,53,0
1,note_on,59,0,360
1,note_on,60,53,0
1,note_on,60,0,120
1,note_on,62,53,0
1,note_on,62,0,240
1,note_on,56,0,0
1,note_on,59,47,0
1,note_on,62,47,0
1,note_on,65,56,0
1,note_on,65,0,480
1,note_on,62,0,0
1,note_on,59,0,0
1,note_on,67,58,0
1,note_on,67,0,180
1,note_on,70,51,0
1,note_on,70,0,60
1,note_on,59,51,0
1,note_on,62,60,0
1,note_on,68,60,0
1,note_on,68,0,480
1,note_on,62,0,0
1,note_on,59,0,0
1,note_on,67,56,0
1,note_on,67,0,240
1,note_on,59,48,0
1,note_on,62,48,0
1,note_on,65,57,0
1,note_on,65,0,480
1,note_on,62,0,0
1,note_on,59,0,0
1,note_on,65,53,0
1,note_on,65,0,240
1,note_on,67,67,0
1,note_on,74,67,0
1,note_on,77,79,0
1,note_on,79,79,0
1,note_on,79,0,360
1,note_on,67,0,0
1,note_on,74,0,0
1,note_on,77,0,0
1,note_on,70,61,0
1,note_on,67,61,0
1,note_on,77,72,0
1,note_on,79,72,0
1,note_on,79,0,120
1,note_on,70,0,0
1,note_on,67,0,0
1,note_on,77,0,0
1,note_on,67,61,0
1,note_on,71,61,0
1,note_on,77,72,0
1,note_on,79,72,0
1,note_on,79,0,240
1,note_on,67,0,0
1,note_on,71,0,0
1,note_on,77,0,0
1,note_on,91,84,0
1,note_on,87,70,0
1,note_on,84,70,0
1,note_on,79,70,0
1,note_on,79,0,1440
1,note_on,91,0,0
1,note_on,87,0,0
1,note_on,84,0,0
1,note_on,63,58,720
1,note_on,67,58,0
1,note_on,69,58,0
1,note_on,69,0,360
1,note_on,67,0,0
1,note_on,63,0,0
1,note_on,63,58,0
1,note_on,67,58,0
1,note_on,70,70,0
1,note_on,70,0,120
1,note_on,67,0,0
1,note_on,63,0,0
1,note_on,63,58,0
1,note_on,67,58,0
1,note_on,72,70,0
1,note_on,72,0,240
1,note_on,67,0,0
1,note_on,63,0,0
1,note_on,63,63,0
1,note_on,67,63,0
1,note_on,72,77,0
1,note_on,75,77,0
1,note_on,75,0,720
1,note_on,63,0,0
1,note_on,67,0,0
1,note_on,72,0,0
1,note_on,67,58,0
1,note_on,69,58,0
1,note_on,72,70,0
1,note_on,72,0,360
1,note_on,69,0,0
1,note_on,67,0,0
1,note_on,67,63,0
1,note_on,69,63,0
1,note_on,74,77,0
1,note_on,74,0,120
1,note_on,69,0,0
1,note_on,67,0,0
1,note_on,67,62,0
1,note_on,69,62,0
1,note_on,75,74,0
1,note_on,75,0,240
1,note_on,69,0,0
1,note_on,67,0,0
1,note_on,67,70,0
1,note_on,69,70,0
1,note_on,75,82,0
1,note_on,81,82,0
1,note_on,81,0,720
1,note_on,67,0,0
1,note_on,69,0,0
1,note_on,75,0,0
1,note_on,60,58,0
1,note_on,67,69,0
1,note_on,63,58,0
1,note_on,67,0,360
1,note_on,69,60,0
1,note_on,69,0,120
1,note_on,67,58,0
1,note_on,67,0,240
1,note_on,63,0,0
1,note_on,60,0,0
1,note_on,67,58,0
1,note_on,62,58,0
1,note_on,74,69,0
1,note_on,74,0,720
1,note_on,62,0,0
1,note_on,67,0,0
1,note_on,62,57,360
1,note_on,62,0,120
1,note_on,62,53,0
1,note_on,62,0,240
1,note_on,60,56,0
1,note_on,63,67,0
1,note_on,57,56,0
1,note_on,63,0,360
1,note_on,67,59,0
1,note_on,67,0,120
1,note_on,69,59,0
1,note_on,69,0,240
1,note_on,57,0,0
1,note_on,60,0,0
1,note_on,63,57,0
1,note_on,67,57,0
1,note_on,72,68,0
1,note_on,72,0,360
1,note_on,74,59,0
1,note_on,74,0,120
1,note_on,75,59,0
1,note_on,75,0,240
1,note_on,67,0,0
1,note_on,63,0,0
1,note_on,67,56,0
1,note_on,74,67,0
1,note_on,62,56,0
1,note_on,62,0,720
1,note_on,74,0,0
1,note_on,67,0,0
1,note_on,61,55,0
1,note_on,67,66,0
1,note_on,67,0,360
1,note_on,72,56,0
1,note_on,72,0,120
1,note_on,70,59,0
1,note_on,70,0,240
1,note_on,61,0,0
1,note_on,60,55,0
1,note_on,68,66,0
1,note_on,68,0,360
1,note_on,72,55,0
1,note_on,72,0,120
1,note_on,67,56,0
1,note_on,67,0,120
1,note_on,60,0,0
1,note_on,66,55,0
1,note_on,66,0,60
1,note_on,67,56,0
1,note_on,67,0,60
1,note_on,60,52,0
1,note_on,66,62,0
1,note_on,66,0,360
1,note_on,64,55,0
1,note_on,64,0,120
1,note_on,66,55,0
1,note_on,66,0,240
1,note_on,60,0,0
1,note_on,67,52,0
1,note_on,58,44,0
1,note_on,58,0,720
1,note_on,67,0,0
1,note_on,57,45,0
1,note_on,60,45,0
1,note_on,62,53,0
1,note_on,62,0,360
1,note_on,60,0,0
1,note_on,60,45,0
1,note_on,62,53,0
1,note_on,62,0,120
1,note_on,60,0,0
1,note_on,60,49,0
1,note_on,62,49,0
1,note_on,62,0,240
1,note_on,60,0,0
1,note_on,57,0,0
1,note_on,58,47,0
1,note_on,62,47,0
1,note_on,67,56,0
1,note_on,67,0,480
1,note_on,62,0,0
1,note_on,58,0,0
1,note_on,69,55,0
1,note_on,69,0,240
1,note_on,63,51,0
1,note_on,66,60,0
1,note_on,70,60,0
1,note_on,70,0,480
1,note_on,66,0,0
1,note_on,63,0,0
1,note_on,69,54,0
1,note_on,69,0,240
1,note_on,62,48,0
1,note_on,67,57,0
1,note_on,67,0,480
1,note_on,62,0,0
1,note_on,67,53,0
1,note_on,67,0,240
1,note_on,57,40,0
1,note_on,60,53,0
1,note_on,62,53,0
1,note_on,62,0,360
1,note_on,60,0,0
1,note_on,60,53,0
1,note_on,62,53,0
1,note_on,62,0,120
1,note_on,60,0,0
1,note_on,60,53,0
1,note_on,62,53,0
1,note_on,62,0,240
1,note_on,60,0,0
1,note_on,57,0,0
1,note_on,58,47,0
1,note_on,62,56,0
1,note_on,67,56,0
1,note_on,67,0,480
1,note_on,62,0,0
1,note_on,58,0,0
1,note_on,69,54,0
1,note_on,69,0,180
1,note_on,72,44,0
1,note_on,63,56,60
1,note_on,66,56,0
1,note_on,70,56,0
1,note_on,72,0,20
1,note_on,63,0,460
1,note_on,66,0,0
1,note_on,70,0,0
1,note_on,69,52,0
1,note_on,69,0,240
1,note_on,58,49,0
1,note_on,62,49,0
1,note_on,67,49,0
1,note_on,67,0,240
1,note_on,62,0,0
1,note_on,58,0,0
1,note_on,54,49,0
1,note_on,54,0,120
1,note_on,55,49,0
1,note_on,55,0,120
1,note_on,57,50,0
1,note_on,57,0,120
1,note_on,58,51,0
1,note_on,58,0,120
1,note_on,61,52,0
1,note_on,61,0,120
1,note_on,62,53,0
1,note_on,62,0,120
1,note_on,57,50,0
1,note_on,57,0,120
1,note_on,58,51,0
1,note_on,58,0,120
1,note_on,61,51,0
1,note_on,61,0,120
1,note_on,62,52,0
1,note_on,62,0,120
1,note_on,66,53,0
1,note_on,66,0,120
1,note_on,67,56,0
1,note_on,67,0,120
1,note_on,61,51,0
1,note_on,61,0,120
1,note_on,62,52,0
1,note_on,62,0,120
1,note_on,66,56,0
1,note_on,66,0,120
1,note_on,67,57,0
1,note_on,67,0,120
1,note_on,69,59,0
1,note_on,69,0,120
1,note_on,70,60,0
1,note_on,70,0,120
1,note_on,66,56,0
1,note_on,66,0,120
1,note_on,67,58,0
1,note_on,67,0,120
1,note_on,69,59,0
1,note_on,69,0,120
1,note_on,70,60,0
1,note_on,70,0,120
1,note_on,73,61,0
1,note_on,73,0,120
1,note_on,74,62,0
1,note_on,74,0,120
1,note_on,69,57,0
1,note_on,69,0,120
1,note_on,70,58,0
1,note_on,70,0,120
1,note_on,73,60,0
1,note_on,73,0,120
1,note_on,74,61,0
1,note_on,74,0,120
1,note_on,78,64,0
1,note_on,78,0,120
1,note_on,79,66,0
1,note_on,79,0,120
1,note_on,73,59,0
1,note_on,73,0,120
1,note_on,74,61,0
1,note_on,74,0,120
1,note_on,78,63,0
1,note_on,78,0,120
1,note_on,79,64,0
1,note_on,79,0,120
1,note_on,81,66,0
1,note_on,81,0,120
1,note_on,82,68,0
1,note_on,82,0,120
1,note_on,78,64,0
1,note_on,78,0,120
1,note_on,79,66,0
1,note_on,79,0,120
1,note_on,81,69,0
1,note_on,81,0,120
1,note_on,82,72,0
1,note_on,82,0,120
1,note_on,85,74,0
1,note_on,85,0,120
1,note_on,86,77,0
1,note_on,86,0,120
1,note_on,81,74,0
1,note_on,81,0,120
1,note_on,82,77,0
1,note_on,82,0,120
1,note_on,85,81,0
1,note_on,85,0,120
1,note_on,86,83,0
1,note_on,86,0,120
1,note_on,91,93,0
1,note_on,91,0,720
1,note_on,72,79,0
1,note_on,74,79,0
1,note_on,78,93,0
1,note_on,86,93,0
1,note_on,81,93,0
1,note_on,81,0,720
1,note_on,78,0,0
1,note_on,72,0,0
1,note_on,74,0,0
1,note_on,86,0,0
1,note_on,70,79,0
1,note_on,74,79,0
1,note_on,82,93,0
1,note_on,79,93,0
1,note_on,79,0,720
1,note_on,70,0,0
1,note_on,74,0,0
1,note_on,82,0,0
1,note_on,69,79,0
1,note_on,72,79,0
1,note_on,74,93,0
1,note_on,78,93,0
1,note_on,78,0,720
1,note_on,69,0,0
1,note_on,72,0,0
1,note_on,74,0,0
1,note_on,67,86,0
1,note_on,70,86,0
1,note_on,74,96,0
1,note_on,79,102,0
1,note_on,79,0,1440
1,note_on,67,0,0
1,note_on,70,0,0
1,note_on,74,0,0
1,note_on,91,108,0
1,note_on,86,102,0
1,note_on,79,90,0
1,note_on,79,0,1440
1,note_on,86,0,0
1,note_on,91,0,0
2,note_on,50,45,3480
2,note_on,50,0,7
2,note_on,53,39,0
2,note_on,53,0,60
2,note_on,51,49,0
2,note_on,51,0,536
2,note_on,50,48,0
2,note_on,50,0,550
2,note_on,50,40,0
2,note_on,43,34,0
2,note_on,55,40,0
2,note_on,55,0,453
2,note_on,43,0,0
2,note_on,50,0,0
2,note_on,43,38,0
2,note_on,60,47,0
2,note_on,60,0,560
2,note_on,43,0,0
2,note_on,43,35,0
2,note_on,58,41,0
2,note_on,58,0,574
2,note_on,43,0,0
2,note_on,43,35,0
2,note_on,57,41,0
2,note_on,50,41,0
2,note_on,50,0,635
2,note_on,57,0,0
2,note_on,43,0,0
2,note_on,50,40,0
2,note_on,43,34,0
2,note_on,55,40,0
2,note_on,55,0,507
2,note_on,43,0,0
2,note_on,50,0,0
2,note_on,60,47,0
2,note_on,43,38,0
2,note_on,43,0,480
2,note_on,60,0,0
2,note_on,43,35,0
2,note_on,58,41,0
2,note_on,58,0,611
2,note_on,43,0,2
2,note_on,54,41,0
2,note_on,42,35,0
2,note_on,42,0,557
2,note_on,54,0,0
2,note_on,41,39,0
2,note_on,50,48,0
2,note_on,50,0,533
2,note_on,51,42,0
2,note_on,51,0,466
2,note_on,41,0,0
2,note_on,46,48,0
2,note_on,50,48,0
2,note_on,50,0,613
2,note_on,46,0,0
2,note_on,39,39,0
2,note_on,46,48,0
2,note_on,46,0,635
2,note_on,39,0,0
2,note_on,34,36,0
2,note_on,46,42,0
2,note_on,46,0,614
2,note_on,34,0,0
2,note_on,39,48,0
2,note_on,46,48,0
2,note_on,46,0,600
2,note_on,39,0,0
2,note_on,34,38,0
2,note_on,46,46,0
2,note_on,46,0,560
2,note_on,34,0,0
2,note_on,48,46,0
2,note_on,41,38,0
2,note_on,41,0,520
2,note_on,48,0,0
2,note_on,46,48,0
2,note_on,46,0,613
2,note_on,39,33,0
2,note_on,51,39,0
2,note_on,51,0,332
2,note_on,39,0,0
2,note_on,45,37,0
2,note_on,45,0,240
2,note_on,38,31,0
2,note_on,50,38,0
2,note_on,50,0,1880
2,note_on,38,0,0
2,note_on,55,34,536
2,note_on,67,40,0
2,note_on,62,40,0
2,note_on,62,0,493
2,note_on,67,0,0
2,note_on,55,0,0
2,note_on,55,36,0
2,note_on,72,44,0
2,note_on,72,0,453
2,note_on,55,0,0
2,note_on,55,35,0
2,note_on,70,41,0
2,note_on,70,0,613
2,note_on,55,0,0
2,note_on,62,41,0
2,note_on,69,41,0
2,note_on,55,35,0
2,note_on,55,0,574
2,note_on,69,0,0
2,note_on,62,0,0
2,note_on,55,34,0
2,note_on,67,40,0
2,note_on,62,40,0
2,note_on,62,0,560
2,note_on,67,0,0
2,note_on,55,0,0
2,note_on,55,33,0
2,note_on,72,44,0
2,note_on,72,0,520
2,note_on,55,0,0
2,note_on,55,35,0
2,note_on,70,41,0
2,note_on,70,0,611
2,note_on,55,0,2
2,note_on,66,41,0
2,note_on,54,35,0
2,note_on,54,0,564
2,note_on,66,0,0
2,note_on,53,36,0
2,note_on,62,48,0
2,note_on,62,0,520
2,note_on,63,42,0
2,note_on,63,0,493
2,note_on,53,0,0
2,note_on,62,48,0
2,note_on,58,48,0
2,note_on,58,0,613
2,note_on,62,0,0
2,note_on,63,48,0
2,note_on,51,39,0
2,note_on,51,0,564
2,note_on,63,0,0
2,note_on,46,36,0
2,note_on,58,42,0
2,note_on,58,0,543
2,note_on,46,0,0
2,note_on,51,48,0
2,note_on,58,48,0
2,note_on,58,0,635
2,note_on,51,0,0
2,note_on,46,38,0
2,note_on,58,46,0
2,note_on,58,0,547
2,note_on,46,0,0
2,note_on,53,38,0
2,note_on,60,46,0
2,note_on,60,0,506
2,note_on,53,0,0
2,note_on,58,48,0
2,note_on,58,0,613
2,note_on,63,39,0
2,note_on,51,33,0
2,note_on,51,0,360
2,note_on,63,0,0
2,note_on,57,37,0
2,note_on,57,0,240
2,note_on,50,31,0
2,note_on,62,38,0
2,note_on,62,0,1900
2,note_on,50,0,7
2,note_on,56,40,536
2,note_on,43,34,0
2,note_on,43,0,586
2,note_on,56,0,0
2,note_on,55,41,0
2,note_on,43,35,0
2,note_on,55,0,544
2,note_on,53,41,0
2,note_on,53,0,204
2,note_on,51,39,0
2,note_on,51,0,120
2,note_on,50,40,0
2,note_on,50,0,240
2,note_on,43,0,0
2,note_on,56,40,0
2,note_on,43,34,0
2,note_on,43,0,589
2,note_on,56,0,0
2,note_on,56,41,0
2,note_on,43,35,0
2,note_on,43,0,553
2,note_on,43,66,0
2,note_on,56,0,60
2,note_on,59,62,0
2,note_on,59,0,257
2,note_on,61,55,0
2,note_on,61,0,120
2,note_on,62,57,0
2,note_on,62,0,240
2,note_on,43,0,0
2,note_on,36,69,0
2,note_on,48,69,0
2,note_on,48,0,296
2,note_on,36,0,0
2,note_on,60,50,0
2,note_on,72,60,0
2,note_on,67,50,0
2,note_on,67,0,240
2,note_on,72,0,0
2,note_on,60,0,0
2,note_on,67,53,0
2,note_on,72,64,0
2,note_on,60,53,0
2,note_on,60,0,212
2,note_on,72,0,0
2,note_on,67,0,0
2,note_on,67,52,0
2,note_on,60,52,0
2,note_on,72,62,0
2,note_on,72,0,120
2,note_on,60,0,0
2,note_on,67,0,0
2,note_on,67,62,0
2,note_on,60,52,0
2,note_on,60,0,240
2,note_on,67,0,0
2,note_on,60,53,0
2,note_on,71,64,0
2,note_on,68,53,0
2,note_on,68,0,268
2,note_on,71,0,0
2,note_on,60,0,0
2,note_on,60,49,0
2,note_on,68,59,0
2,note_on,68,0,120
2,note_on,60,0,0
2,note_on,60,49,0
2,note_on,68,59,0
2,note_on,68,0,180
2,note_on,60,0,0
2,note_on,60,50,60
2,note_on,68,61,0
2,note_on,68,0,215
2,note_on,60,0,0
2,note_on,68,58,0
2,note_on,60,48,0
2,note_on,60,0,120
2,note_on,68,0,0
2,note_on,68,55,0
2,note_on,60,45,0
2,note_on,60,0,240
2,note_on,68,0,0
2,note_on,67,61,0
2,note_on,60,50,0
2,note_on,60,0,211
2,note_on,67,0,0
2,note_on,67,57,0
2,note_on,60,47,0
2,note_on,60,0,120
2,note_on,67,0,0
2,note_on,67,57,0
2,note_on,60,47,0
2,note_on,60,0,240
2,note_on,67,0,0
2,note_on,67,53,0
2,note_on,72,64,0
2,note_on,60,53,0
2,note_on,60,0,194
2,note_on,72,0,0
2,note_on,67,0,0
2,note_on,60,52,0
2,note_on,72,62,0
2,note_on,67,52,0
2,note_on,67,0,120
2,note_on,72,0,0
2,note_on,60,0,0
2,note_on,60,49,0
2,note_on,67,49,0
2,note_on,67,0,240
2,note_on,60,0,0
2,note_on,68,53,0
2,note_on,71,64,0
2,note_on,60,53,0
2,note_on,60,0,268
2,note_on,71,0,0
2,note_on,68,0,0
2,note_on,60,49,0
2,note_on,68,59,0
2,note_on,68,0,120
2,note_on,60,0,0
2,note_on,60,49,0
2,note_on,68,59,0
2,note_on,68,0,180
2,note_on,60,0,0
2,note_on,60,50,60
2,note_on,68,61,0
2,note_on,68,0,240
2,note_on,60,0,0
2,note_on,68,58,0
2,note_on,60,48,0
2,note_on,60,0,120
2,note_on,68,0,0
2,note_on,68,58,0
2,note_on,60,48,0
2,note_on,60,0,240
2,note_on,68,0,0
2,note_on,60,50,0
2,note_on,67,61,0
2,note_on,67,0,591
2,note_on,60,0,0
2,note_on,58,50,0
2,note_on,67,50,0
2,note_on,67,0,596
2,note_on,58,0,0
2,note_on,57,50,0
2,note_on,63,50,0
2,note_on,63,0,572
2,note_on,62,50,0
2,note_on,62,0,624
2,note_on,57,0,0
2,note_on,62,50,0
2,note_on,55,50,0
2,note_on,62,0,543
2,note_on,64,50,0
2,note_on,64,0,515
2,note_on,55,0,0
2,note_on,57,50,0
2,note_on,65,50,0
2,note_on,65,0,543
2,note_on,64,50,0
2,note_on,64,0,332
2,note_on,67,45,0
2,note_on,67,0,240
2,note_on,57,0,0
2,note_on,62,53,0
2,note_on,66,45,0
2,note_on,62,0,280
2,note_on,61,50,0
2,note_on,61,0,110
2,note_on,62,50,0
2,note_on,62,0,240
2,note_on,66,0,0
2,note_on,62,53,0
2,note_on,62,0,600
2,note_on,67,49,0
2,note_on,62,49,0
2,note_on,62,0,280
2,note_on,61,42,0
2,note_on,61,0,120
2,note_on,62,49,0
2,note_on,62,0,240
2,note_on,62,50,0
2,note_on,62,0,577
2,note_on,67,0,0
2,note_on,62,49,0
2,note_on,66,49,0
2,note_on,62,0,240
2,note_on,61,42,0
2,note_on,61,0,120
2,note_on,62,49,0
2,note_on,62,0,240
2,note_on,62,50,0
2,note_on,62,0,554
2,note_on,66,0,0
2,note_on,62,49,0
2,note_on,62,0,198
2,note_on,62,42,0
2,note_on,62,0,120
2,note_on,62,49,0
2,note_on,62,0,240
2,note_on,62,50,0
2,note_on,62,0,579
2,note_on,62,49,0
2,note_on,62,0,191
2,note_on,63,39,0
2,note_on,63,0,120
2,note_on,62,44,0
2,note_on,62,0,240
2,note_on,62,44,0
2,note_on,62,0,42
2,note_on,55,44,480
2,note_on,50,44,0
2,note_on,50,0,211
2,note_on,49,38,0
2,note_on,49,0,120
2,note_on,50,44,0
2,note_on,50,0,240
2,note_on,50,45,0
2,note_on,50,0,634
2,note_on,55,0,0
2,note_on,54,44,0
2,note_on,50,44,0
2,note_on,50,0,228
2,note_on,49,38,0
2,note_on,49,0,120
2,note_on,50,44,0
2,note_on,50,0,240
2,note_on,50,45,0
2,note_on,50,0,623
2,note_on,54,0,0
2,note_on,50,44,0
2,note_on,50,0,268
2,note_on,50,38,0
2,note_on,50,0,120
2,note_on,50,44,0
2,note_on,50,0,240
2,note_on,50,45,0
2,note_on,50,0,579
2,note_on,54,38,0
2,note_on,50,38,0
2,note_on,50,0,69
2,note_on,49,38,0
2,note_on,49,0,120
2,note_on,50,38,0
2,note_on,50,0,120
2,note_on,49,37,0
2,note_on,49,0,120
2,note_on,50,38,0
2,note_on,50,0,120
2,note_on,49,33,0
2,note_on,49,0,120
2,note_on,54,0,0
2,note_on,54,38,0
2,note_on,51,38,0
2,note_on,51,0,34
2,note_on,50,33,0
2,note_on,50,0,120
2,note_on,49,38,0
2,note_on,49,0,120
2,note_on,50,34,0
2,note_on,50,0,120
2,note_on,51,38,0
2,note_on,51,0,120
2,note_on,50,30,0
2,note_on,50,0,120
2,note_on,54,0,0
2,note_on,55,37,0
2,note_on,43,37,0
2,note_on,55,0,57
2,note_on,54,40,0
2,note_on,54,0,120
2,note_on,53,41,0
2,note_on,53,0,120
2,note_on,52,42,0
2,note_on,52,0,120
2,note_on,51,44,0
2,note_on,51,0,120
2,note_on,50,47,0
2,note_on,50,0,120
2,note_on,43,0,0
2,note_on,49,47,0
2,note_on,49,0,34
2,note_on,50,44,0
2,note_on,50,0,120
2,note_on,51,42,0
2,note_on,51,0,120
2,note_on,52,41,0
2,note_on,52,0,120
2,note_on,53,40,0
2,note_on,53,0,120
2,note_on,54,40,0
2,note_on,54,0,120
2,note_on,43,41,0
2,note_on,55,41,0
2,note_on,55,0,57
2,note_on,54,36,0
2,note_on,54,0,120
2,note_on,55,41,0
2,note_on,55,0,120
2,note_on,50,37,0
2,note_on,50,0,120
2,note_on,49,41,0
2,note_on,49,0,120
2,note_on,50,36,0
2,note_on,50,0,120
2,note_on,43,0,0
2,note_on,54,41,0
2,note_on,54,0,40
2,note_on,50,40,0
2,note_on,50,0,120
2,note_on,49,41,0
2,note_on,49,0,120
2,note_on,50,36,0
2,note_on,50,0,120
2,note_on,51,42,0
2,note_on,51,0,120
2,note_on,50,41,0
2,note_on,50,0,120
2,note_on,55,37,0
2,note_on,43,37,0
2,note_on,55,0,68
2,note_on,54,40,0
2,note_on,54,0,120
2,note_on,53,42,0
2,note_on,53,0,120
2,note_on,52,44,0
2,note_on,52,0,120
2,note_on,51,44,0
2,note_on,51,0,120
2,note_on,50,42,0
2,note_on,50,0,120
2,note_on,43,0,0
2,note_on,49,42,0
2,note_on,49,0,34
2,note_on,50,41,0
2,note_on,50,0,120
2,note_on,51,40,0
2,note_on,51,0,120
2,note_on,52,37,0
2,note_on,52,0,120
2,note_on,53,41,0
2,note_on,53,0,120
2,note_on,54,41,0
2,note_on,54,0,120
2,note_on,43,41,0
2,note_on,55,41,0
2,note_on,55,0,63
2,note_on,54,36,0
2,note_on,54,0,120
2,note_on,55,41,0
2,note_on,55,0,120
2,note_on,50,37,0
2,note_on,50,0,120
2,note_on,49,47,0
2,note_on,49,0,120
2,note_on,50,42,0
2,note_on,50,0,120
2,note_on,43,0,0
2,note_on,42,47,0
2,note_on,50,41,23
2,note_on,50,0,120
2,note_on,49,40,0
2,note_on,49,0,120
2,note_on,50,41,0
2,note_on,50,0,120
2,note_on,51,41,0
2,note_on,51,0,120
2,note_on,50,41,0
2,note_on,50,0,120
2,note_on,42,0,0
2,note_on,50,49,0
2,note_on,41,49,0
2,note_on,50,0,63
2,note_on,49,40,0
2,note_on,49,0,120
2,note_on,50,49,0
2,note_on,50,0,120
2,note_on,49,40,0
2,note_on,49,0,120
2,note_on,50,48,0
2,note_on,50,0,120
2,note_on,49,42,0
2,note_on,49,0,120
2,note_on,41,0,0
2,note_on,51,47,0
2,note_on,41,47,0
2,note_on,51,0,34
2,note_on,50,41,0
2,note_on,50,0,120
2,note_on,51,48,0
2,note_on,51,0,120
2,note_on,48,41,0
2,note_on,48,0,120
2,note_on,53,47,0
2,note_on,53,0,120
2,note_on,51,41,0
2,note_on,51,0,120
2,note_on,41,0,0
2,note_on,46,47,0
2,note_on,50,47,0
2,note_on,50,0,57
2,note_on,49,38,0
2,note_on,49,0,120
2,note_on,50,47,0
2,note_on,50,0,120
2,note_on,49,38,0
2,note_on,49,0,120
2,note_on,50,47,0
2,note_on,50,0,120
2,note_on,49,41,0
2,note_on,49,0,120
2,note_on,46,0,0
2,note_on,39,47,0
2,note_on,39,0,45
2,note_on,45,41,0
2,note_on,45,0,120
2,note_on,46,48,0
2,note_on,46,0,120
2,note_on,51,44,0
2,note_on,51,0,120
2,note_on,55,52,0
2,note_on,55,0,120
2,note_on,51,41,0
2,note_on,51,0,120
2,note_on,46,49,0
2,note_on,46,0,45
2,note_on,52,44,0
2,note_on,52,0,120
2,note_on,53,48,0
2,note_on,53,0,120
2,note_on,49,41,0
2,note_on,49,0,120
2,note_on,50,49,0
2,note_on,50,0,120
2,note_on,46,41,0
2,note_on,46,0,120
2,note_on,39,47,0
2,note_on,39,0,6
2,note_on,45,41,0
2,note_on,45,0,120
2,note_on,46,42,0
2,note_on,46,0,120
2,note_on,52,41,0
2,note_on,52,0,120
2,note_on,54,47,0
2,note_on,54,0,120
2,note_on,52,41,0
2,note_on,52,0,120
2,note_on,46,48,0
2,note_on,46,0,40
2,note_on,45,41,0
2,note_on,45,0,120
2,note_on,46,48,0
2,note_on,46,0,120
2,note_on,49,44,0
2,note_on,49,0,120
2,note_on,50,47,0
2,note_on,50,0,120
2,note_on,46,41,0
2,note_on,46,0,120
2,note_on,41,52,0
2,note_on,41,0,34
2,note_on,47,41,0
2,note_on,47,0,120
2,note_on,48,44,0
2,note_on,48,0,120
2,note_on,50,47,0
2,note_on,50,0,120
2,note_on,51,48,0
2,note_on,51,0,120
2,note_on,41,41,0
2,note_on,41,0,120
2,note_on,46,49,0
2,note_on,46,0,34
2,note_on,45,41,0
2,note_on,45,0,120
2,note_on,46,47,0
2,note_on,46,0,120
2,note_on,49,40,0
2,note_on,49,0,120
2,note_on,50,47,0
2,note_on,50,0,120
2,note_on,46,41,0
2,note_on,46,0,120
2,note_on,39,44,0
2,note_on,39,0,6
2,note_on,45,41,0
2,note_on,45,0,120
2,note_on,46,44,0
2,note_on,46,0,120
2,note_on,48,37,0
2,note_on,48,0,120
2,note_on,51,41,0
2,note_on,51,0,120
2,note_on,45,37,0
2,note_on,45,0,120
2,note_on,38,47,0
2,note_on,38,0,34
2,note_on,49,41,0
2,note_on,49,0,120
2,note_on,50,47,0
2,note_on,50,0,57
2,note_on,44,41,0
2,note_on,44,0,120
2,note_on,46,47,0
2,note_on,46,0,63
2,note_on,45,41,0
2,note_on,45,0,120
2,note_on,41,47,0
2,note_on,41,0,68
2,note_on,42,41,0
2,note_on,42,0,120
2,note_on,37,47,0
2,note_on,37,0,57
2,note_on,38,41,0
2,note_on,38,0,120
2,note_on,32,47,0
2,note_on,32,0,63
2,note_on,33,41,0
2,note_on,33,0,120
2,note_on,38,49,0
2,note_on,38,0,1240
2,note_on,43,34,0
2,note_on,56,40,0
2,note_on,56,0,596
2,note_on,43,0,0
2,note_on,43,35,0
2,note_on,56,41,0
2,note_on,56,0,608
2,note_on,53,41,5
2,note_on,53,0,204
2,note_on,51,39,0
2,note_on,51,0,120
2,note_on,50,40,0
2,note_on,50,0,240
2,note_on,43,0,0
2,note_on,43,34,0
2,note_on,56,40,0
2,note_on,56,0,547
2,note_on,43,0,0
2,note_on,43,35,0
2,note_on,56,41,0
2,note_on,43,0,553
2,note_on,43,66,0
2,note_on,56,0,60
2,note_on,59,62,0
2,note_on,59,0,295
2,note_on,61,55,0
2,note_on,61,0,120
2,note_on,62,57,0
2,note_on,62,0,240
2,note_on,43,0,0
2,note_on,36,69,0
2,note_on,36,0,7
2,note_on,43,61,0
2,note_on,43,0,120
2,note_on,48,61,0
2,note_on,48,0,120
2,note_on,51,61,0
2,note_on,51,0,120
2,note_on,55,69,0
2,note_on,55,0,120
2,note_on,60,61,0
2,note_on,60,0,120
2,note_on,63,61,0
2,note_on,63,0,120
2,note_on,67,61,0
2,note_on,67,0,120
2,note_on,72,59,0
2,note_on,72,0,120
2,note_on,75,63,0
2,note_on,75,0,120
2,note_on,79,68,0
2,note_on,79,0,120
2,note_on,84,72,0
2,note_on,84,0,120
2,note_on,87,79,0
2,note_on,87,0,720
2,note_on,60,53,0
2,note_on,60,0,204
2,note_on,58,51,0
2,note_on,58,0,120
2,note_on,57,52,0
2,note_on,57,0,240
2,note_on,57,59,0
2,note_on,57,0,581
2,note_on,63,59,0
2,note_on,63,0,177
2,note_on,62,57,0
2,note_on,62,0,120
2,note_on,60,57,0
2,note_on,60,0,240
2,note_on,60,61,0
2,note_on,60,0,546
2,note_on,57,52,5
2,note_on,57,0,593
2,note_on,58,51,0
2,note_on,50,51,0
2,note_on,50,0,217
2,note_on,49,41,0
2,note_on,49,0,120
2,note_on,50,47,0
2,note_on,50,0,240
2,note_on,58,0,0
2,note_on,50,47,0
2,note_on,50,0,560
2,note_on,50,49,0
2,note_on,55,49,0
2,note_on,50,0,240
2,note_on,49,41,0
2,note_on,49,0,120
2,note_on,50,49,0
2,note_on,50,0,240
2,note_on,50,48,0
2,note_on,50,0,583
2,note_on,55,0,0
2,note_on,50,49,0
2,note_on,58,49,0
2,note_on,50,0,257
2,note_on,49,41,0
2,note_on,49,0,120
2,note_on,50,49,0
2,note_on,50,0,240
2,note_on,58,0,0
2,note_on,58,48,0
2,note_on,51,48,0
2,note_on,51,0,594
2,note_on,58,0,0
2,note_on,51,48,0
2,note_on,44,48,0
2,note_on,44,0,640
2,note_on,51,0,0
2,note_on,50,48,0
2,note_on,50,0,600
2,note_on,50,49,0
2,note_on,43,49,0
2,note_on,50,0,240
2,note_on,51,41,0
2,note_on,51,0,120
2,note_on,50,49,0
2,note_on,50,0,240
2,note_on,43,0,0
2,note_on,50,48,0
2,note_on,50,0,613
2,note_on,43,34,0
2,note_on,50,40,0
2,note_on,55,40,0
2,note_on,55,0,453
2,note_on,50,0,0
2,note_on,43,0,0
2,note_on,60,47,0
2,note_on,43,38,0
2,note_on,43,0,560
2,note_on,60,0,0
2,note_on,58,41,0
2,note_on,43,35,0
2,note_on,43,0,574
2,note_on,58,0,0
2,note_on,43,35,0
2,note_on,50,41,0
2,note_on,57,41,0
2,note_on,57,0,635
2,note_on,50,0,0
2,note_on,43,0,0
2,note_on,43,34,0
2,note_on,50,40,0
2,note_on,55,40,0
2,note_on,55,0,507
2,note_on,50,0,0
2,note_on,43,0,0
2,note_on,43,38,0
2,note_on,60,47,0
2,note_on,60,0,480
2,note_on,43,0,0
2,note_on,43,35,0
2,note_on,58,41,0
2,note_on,58,0,608
2,note_on,43,0,5
2,note_on,42,35,0
2,note_on,54,41,0
2,note_on,54,0,557
2,note_on,42,0,0
2,note_on,50,48,0
2,note_on,41,39,0
2,note_on,50,0,533
2,note_on,51,42,0
2,note_on,51,0,466
2,note_on,41,0,0
2,note_on,46,45,0
2,note_on,50,45,0
2,note_on,50,0,613
2,note_on,46,0,0
2,note_on,39,39,0
2,note_on,46,48,0
2,note_on,46,0,635
2,note_on,39,0,0
2,note_on,34,36,0
2,note_on,46,42,0
2,note_on,46,0,614
2,note_on,34,0,0
2,note_on,39,48,0
2,note_on,46,48,0
2,note_on,46,0,600
2,note_on,39,0,0
2,note_on,34,38,0
2,note_on,46,46,0
2,note_on,46,0,560
2,note_on,34,0,0
2,note_on,41,38,0
2,note_on,48,46,0
2,note_on,48,0,520
2,note_on,41,0,0
2,note_on,46,48,0
2,note_on,46,0,613
2,note_on,39,33,0
2,note_on,51,39,0
2,note_on,51,0,395
2,note_on,39,0,0
2,note_on,45,37,0
2,note_on,45,0,240
2,note_on,50,35,0
2,note_on,38,31,0
2,note_on,38,0,1880
2,note_on,50,0,0
2,note_on,62,40,607
2,note_on,55,34,0
2,note_on,67,40,0
2,note_on,67,0,493
2,note_on,55,0,0
2,note_on,62,0,0
2,note_on,72,43,0
2,note_on,55,38,0
2,note_on,55,0,453
2,note_on,72,0,0
2,note_on,55,35,0
2,note_on,70,41,0
2,note_on,70,0,613
2,note_on,55,0,0
2,note_on,55,35,0
2,note_on,62,41,0
2,note_on,69,41,0
2,note_on,69,0,574
2,note_on,62,0,0
2,note_on,55,0,0
2,note_on,55,34,0
2,note_on,62,40,0
2,note_on,67,40,0
2,note_on,67,0,560
2,note_on,62,0,0
2,note_on,55,0,0
2,note_on,55,38,0
2,note_on,72,45,0
2,note_on,72,0,520
2,note_on,55,0,0
2,note_on,55,35,0
2,note_on,70,41,0
2,note_on,70,0,608
2,note_on,55,0,5
2,note_on,66,41,0
2,note_on,54,35,0
2,note_on,54,0,564
2,note_on,66,0,0
2,note_on,62,48,0
2,note_on,53,39,0
2,note_on,62,0,520
2,note_on,63,42,0
2,note_on,63,0,493
2,note_on,53,0,0
2,note_on,58,42,0
2,note_on,62,48,0
2,note_on,62,0,613
2,note_on,58,0,0
2,note_on,51,39,0
2,note_on,63,48,0
2,note_on,63,0,635
2,note_on,51,0,0
2,note_on,46,36,0
2,note_on,58,42,0
2,note_on,58,0,600
2,note_on,46,0,0
2,note_on,58,48,0
2,note_on,51,48,0
2,note_on,51,0,635
2,note_on,58,0,0
2,note_on,58,46,0
2,note_on,46,38,0
2,note_on,46,0,547
2,note_on,58,0,0
2,note_on,60,46,0
2,note_on,53,38,0
2,note_on,53,0,506
2,note_on,60,0,0
2,note_on,58,48,0
2,note_on,58,0,613
2,note_on,51,33,0
2,note_on,63,39,0
2,note_on,63,0,360
2,note_on,51,0,0
2,note_on,57,37,0
2,note_on,57,0,240
2,note_on,50,31,0
2,note_on,62,38,0
2,note_on,62,0,1902
2,note_on,50,0,5
2,note_on,43,34,536
2,note_on,56,40,0
2,note_on,56,0,586
2,note_on,43,0,0
2,note_on,55,41,0
2,note_on,43,35,0
2,note_on,55,0,544
2,note_on,53,41,0
2,note_on,53,0,204
2,note_on,51,39,0
2,note_on,51,0,120
2,note_on,50,40,0
2,note_on,50,0,240
2,note_on,43,0,0
2,note_on,43,34,0
2,note_on,56,40,0
2,note_on,56,0,589
2,note_on,43,0,0
2,note_on,43,35,0
2,note_on,56,41,0
2,note_on,43,0,553
2,note_on,43,66,0
2,note_on,56,0,60
2,note_on,59,62,0
2,note_on,59,0,257
2,note_on,61,55,0
2,note_on,61,0,120
2,note_on,62,57,0
2,note_on,62,0,240
2,note_on,43,0,0
2,note_on,36,69,0
2,note_on,48,69,0
2,note_on,48,0,296
2,note_on,36,0,0
2,note_on,67,50,0
2,note_on,72,60,0
2,note_on,60,50,0
2,note_on,60,0,240
2,note_on,72,0,0
2,note_on,67,0,0
2,note_on,67,53,0
2,note_on,60,53,0
2,note_on,72,64,0
2,note_on,72,0,212
2,note_on,60,0,0
2,note_on,67,0,0
2,note_on,60,52,0
2,note_on,72,62,0
2,note_on,67,52,0
2,note_on,67,0,120
2,note_on,72,0,0
2,note_on,60,0,0
2,note_on,67,62,0
2,note_on,60,52,0
2,note_on,60,0,240
2,note_on,67,0,0
2,note_on,71,64,0
2,note_on,60,53,0
2,note_on,68,53,0
2,note_on,68,0,268
2,note_on,60,0,0
2,note_on,71,0,0
2,note_on,68,59,0
2,note_on,60,49,0
2,note_on,60,0,120
2,note_on,68,0,0
2,note_on,68,59,0
2,note_on,60,49,0
2,note_on,60,0,180
2,note_on,68,0,0
2,note_on,68,61,60
2,note_on,60,50,0
2,note_on,60,0,215
2,note_on,68,0,0
2,note_on,68,58,0
2,note_on,60,48,0
2,note_on,60,0,120
2,note_on,68,0,0
2,note_on,68,58,0
2,note_on,60,48,0
2,note_on,60,0,240
2,note_on,68,0,0
2,note_on,60,50,0
2,note_on,67,61,0
2,note_on,67,0,211
2,note_on,60,0,0
2,note_on,67,57,0
2,note_on,60,47,0
2,note_on,60,0,120
2,note_on,67,0,0
2,note_on,67,57,0
2,note_on,60,47,0
2,note_on,60,0,240
2,note_on,67,0,0
2,note_on,60,53,0
2,note_on,67,53,0
2,note_on,72,64,0
2,note_on,72,0,194
2,note_on,67,0,0
2,note_on,60,0,0
2,note_on,60,52,0
2,note_on,67,52,0
2,note_on,72,62,0
2,note_on,72,0,120
2,note_on,67,0,0
2,note_on,60,0,0
2,note_on,67,52,0
2,note_on,60,52,0
2,note_on,60,0,240
2,note_on,67,0,0
2,note_on,68,53,0
2,note_on,60,53,0
2,note_on,71,64,0
2,note_on,71,0,268
2,note_on,60,0,0
2,note_on,68,0,0
2,note_on,60,49,0
2,note_on,68,59,0
2,note_on,68,0,120
2,note_on,60,0,0
2,note_on,60,49,0
2,note_on,68,59,0
2,note_on,68,0,180
2,note_on,60,0,0
2,note_on,60,50,60
2,note_on,68,61,0
2,note_on,68,0,240
2,note_on,60,0,0
2,note_on,60,48,0
2,note_on,68,58,0
2,note_on,68,0,120
2,note_on,60,0,0
2,note_on,60,48,0
2,note_on,68,58,0
2,note_on,68,0,240
2,note_on,60,0,0
2,note_on,60,50,0
2,note_on,67,61,0
2,note_on,67,0,591
2,note_on,60,0,0
2,note_on,58,50,0
2,note_on,67,50,0
2,note_on,67,0,596
2,note_on,58,0,0
2,note_on,57,50,0
2,note_on,63,50,0
2,note_on,63,0,572
2,note_on,62,50,0
2,note_on,62,0,624
2,note_on,57,0,0
2,note_on,55,50,0
2,note_on,62,50,0
2,note_on,62,0,543
2,note_on,64,50,0
2,note_on,64,0,515
2,note_on,55,0,0
2,note_on,65,50,0
2,note_on,57,50,0
2,note_on,65,0,543
2,note_on,64,50,0
2,note_on,64,0,332
2,note_on,67,45,0
2,note_on,67,0,240
2,note_on,57,0,0
2,note_on,62,53,0
2,note_on,66,45,0
2,note_on,62,0,280
2,note_on,61,50,0
2,note_on,61,0,110
2,note_on,62,50,0
2,note_on,62,0,240
2,note_on,66,0,0
2,note_on,62,53,0
2,note_on,62,0,600
2,note_on,62,49,0
2,note_on,67,49,0
2,note_on,62,0,280
2,note_on,61,42,0
2,note_on,61,0,120
2,note_on,62,49,0
2,note_on,62,0,240
2,note_on,62,50,0
2,note_on,62,0,577
2,note_on,67,0,0
2,note_on,66,49,0
2,note_on,62,49,0
2,note_on,62,0,240
2,note_on,61,42,0
2,note_on,61,0,120
2,note_on,62,49,0
2,note_on,62,0,240
2,note_on,62,50,0
2,note_on,62,0,554
2,note_on,66,0,0
2,note_on,62,49,0
2,note_on,62,0,198
2,note_on,62,42,0
2,note_on,62,0,120
2,note_on,62,49,0
2,note_on,62,0,240
2,note_on,62,50,0
2,note_on,62,0,579
2,note_on,62,49,0
2,note_on,62,0,191
2,note_on,63,39,0
2,note_on,63,0,120
2,note_on,62,44,0
2,note_on,62,0,240
2,note_on,62,44,0
2,note_on,62,0,42
2,note_on,50,44,480
2,note_on,55,44,0
2,note_on,50,0,211
2,note_on,49,38,0
2,note_on,49,0,120
2,note_on,50,44,0
2,note_on,50,0,240
2,note_on,50,45,0
2,note_on,50,0,634
2,note_on,55,0,0
2,note_on,50,44,0
2,note_on,54,44,0
2,note_on,50,0,228
2,note_on,49,38,0
2,note_on,49,0,120
2,note_on,50,44,0
2,note_on,50,0,240
2,note_on,50,45,0
2,note_on,50,0,623
2,note_on,54,0,0
2,note_on,50,44,0
2,note_on,50,0,268
2,note_on,50,38,0
2,note_on,50,0,120
2,note_on,50,44,0
2,note_on,50,0,240
2,note_on,50,45,0
2,note_on,50,0,579
2,note_on,54,38,0
2,note_on,50,38,0
2,note_on,50,0,69
2,note_on,49,38,0
2,note_on,49,0,120
2,note_on,50,38,0
2,note_on,50,0,120
2,note_on,49,37,0
2,note_on,49,0,120
2,note_on,50,38,0
2,note_on,50,0,120
2,note_on,49,33,0
2,note_on,49,0,120
2,note_on,54,0,0
2,note_on,51,38,0
2,note_on,54,38,0
2,note_on,51,0,34
2,note_on,50,33,0
2,note_on,50,0,120
2,note_on,49,38,0
2,note_on,49,0,120
2,note_on,50,34,0
2,note_on,50,0,120
2,note_on,51,38,0
2,note_on,51,0,120
2,note_on,50,33,0
2,note_on,50,0,120
2,note_on,54,0,0
2,note_on,43,37,0
2,note_on,55,37,0
2,note_on,55,0,57
2,note_on,54,40,0
2,note_on,54,0,120
2,note_on,53,41,0
2,note_on,53,0,120
2,note_on,52,42,0
2,note_on,52,0,120
2,note_on,51,44,0
2,note_on,51,0,120
2,note_on,50,47,0
2,note_on,50,0,120
2,note_on,43,0,0
2,note_on,49,47,0
2,note_on,49,0,34
2,note_on,50,44,0
2,note_on,50,0,120
2,note_on,51,42,0
2,note_on,51,0,120
2,note_on,52,41,0
2,note_on,52,0,120
2,note_on,53,40,0
2,note_on,53,0,120
2,note_on,54,40,0
2,note_on,54,0,120
2,note_on,43,41,0
2,note_on,55,41,0
2,note_on,55,0,57
2,note_on,54,36,0
2,note_on,54,0,120
2,note_on,55,41,0
2,note_on,55,0,120
2,note_on,50,37,0
2,note_on,50,0,120
2,note_on,49,41,0
2,note_on,49,0,120
2,note_on,50,36,0
2,note_on,50,0,120
2,note_on,43,0,0
2,note_on,54,41,0
2,note_on,54,0,40
2,note_on,50,40,0
2,note_on,50,0,120
2,note_on,49,41,0
2,note_on,49,0,120
2,note_on,50,36,0
2,note_on,50,0,120
2,note_on,51,42,0
2,note_on,51,0,120
2,note_on,50,41,0
2,note_on,50,0,120
2,note_on,43,37,0
2,note_on,55,37,0
2,note_on,55,0,68
2,note_on,54,40,0
2,note_on,54,0,120
2,note_on,53,42,0
2,note_on,53,0,120
2,note_on,52,44,0
2,note_on,52,0,120
2,note_on,51,44,0
2,note_on,51,0,120
2,note_on,50,42,0
2,note_on,50,0,120
2,note_on,43,0,0
2,note_on,49,42,0
2,note_on,49,0,34
2,note_on,50,41,0
2,note_on,50,0,120
2,note_on,51,40,0
2,note_on,51,0,120
2,note_on,52,37,0
2,note_on,52,0,120
2,note_on,53,41,0
2,note_on,53,0,120
2,note_on,54,41,0
2,note_on,54,0,120
2,note_on,43,41,0
2,note_on,55,41,0
2,note_on,55,0,63
2,note_on,54,36,0
2,note_on,54,0,120
2,note_on,55,41,0
2,note_on,55,0,120
2,note_on,50,37,0
2,note_on,50,0,120
2,note_on,49,47,0
2,note_on,49,0,120
2,note_on,50,42,0
2,note_on,50,0,120
2,note_on,43,0,0
2,note_on,42,47,0
2,note_on,50,41,23
2,note_on,50,0,120
2,note_on,49,37,0
2,note_on,49,0,120
2,note_on,50,41,0
2,note_on,50,0,120
2,note_on,51,42,0
2,note_on,51,0,120
2,note_on,50,41,0
2,note_on,50,0,120
2,note_on,42,0,0
2,note_on,50,49,0
2,note_on,41,49,0
2,note_on,50,0,63
2,note_on,49,44,0
2,note_on,49,0,120
2,note_on,50,49,0
2,note_on,50,0,120
2,note_on,49,42,0
2,note_on,49,0,120
2,note_on,50,48,0
2,note_on,50,0,120
2,note_on,49,42,0
2,note_on,49,0,120
2,note_on,41,0,0
2,note_on,51,47,0
2,note_on,41,47,0
2,note_on,51,0,34
2,note_on,50,41,0
2,note_on,50,0,120
2,note_on,51,48,0
2,note_on,51,0,120
2,note_on,48,41,0
2,note_on,48,0,120
2,note_on,53,47,0
2,note_on,53,0,120
2,note_on,51,41,0
2,note_on,51,0,120
2,note_on,41,0,0
2,note_on,46,47,0
2,note_on,50,47,0
2,note_on,50,0,57
2,note_on,49,39,0
2,note_on,49,0,120
2,note_on,50,47,0
2,note_on,50,0,120
2,note_on,49,41,0
2,note_on,49,0,120
2,note_on,50,47,0
2,note_on,50,0,120
2,note_on,49,41,0
2,note_on,49,0,120
2,note_on,46,0,0
2,note_on,39,47,0
2,note_on,39,0,45
2,note_on,45,41,0
2,note_on,45,0,120
2,note_on,46,48,0
2,note_on,46,0,120
2,note_on,51,44,0
2,note_on,51,0,120
2,note_on,55,52,0
2,note_on,55,0,120
2,note_on,51,41,0
2,note_on,51,0,120
2,note_on,46,49,0
2,note_on,46,0,45
2,note_on,52,44,0
2,note_on,52,0,120
2,note_on,53,48,0
2,note_on,53,0,120
2,note_on,49,41,0
2,note_on,49,0,120
2,note_on,50,49,0
2,note_on,50,0,120
2,note_on,46,41,0
2,note_on,46,0,120
2,note_on,39,47,0
2,note_on,39,0,6
2,note_on,45,41,0
2,note_on,45,0,120
2,note_on,46,42,0
2,note_on,46,0,120
2,note_on,52,41,0
2,note_on,52,0,120
2,note_on,54,47,0
2,note_on,54,0,120
2,note_on,52,41,0
2,note_on,52,0,120
2,note_on,46,48,0
2,note_on,46,0,40
2,note_on,45,41,0
2,note_on,45,0,120
2,note_on,46,48,0
2,note_on,46,0,120
2,note_on,49,44,0
2,note_on,49,0,120
2,note_on,50,47,0
2,note_on,50,0,120
2,note_on,46,41,0
2,note_on,46,0,120
2,note_on,41,52,0
2,note_on,41,0,34
2,note_on,47,41,0
2,note_on,47,0,120
2,note_on,48,44,0
2,note_on,48,0,120
2,note_on,50,47,0
2,note_on,50,0,120
2,note_on,51,48,0
2,note_on,51,0,120
2,note_on,41,41,0
2,note_on,41,0,120
2,note_on,46,49,0
2,note_on,46,0,34
2,note_on,45,41,0
2,note_on,45,0,120
2,note_on,46,47,0
2,note_on,46,0,120
2,note_on,49,40,0
2,note_on,49,0,120
2,note_on,50,47,0
2,note_on,50,0,120
2,note_on,46,41,0
2,note_on,46,0,120
2,note_on,39,44,0
2,note_on,39,0,6
2,note_on,45,41,0
2,note_on,45,0,120
2,note_on,46,44,0
2,note_on,46,0,120
2,note_on,48,37,0
2,note_on,48,0,120
2,note_on,51,41,0
2,note_on,51,0,120
2,note_on,45,37,0
2,note_on,45,0,120
2,note_on,38,47,0
2,note_on,38,0,34
2,note_on,49,41,0
2,note_on,49,0,120
2,note_on,50,47,0
2,note_on,50,0,57
2,note_on,44,41,0
2,note_on,44,0,120
2,note_on,46,47,0
2,note_on,46,0,63
2,note_on,45,41,0
2,note_on,45,0,120
2,note_on,41,47,0
2,note_on,41,0,68
2,note_on,42,41,0
2,note_on,42,0,120
2,note_on,37,47,0
2,note_on,37,0,57
2,note_on,38,41,0
2,note_on,38,0,120
2,note_on,32,47,0
2,note_on,32,0,63
2,note_on,33,41,0
2,note_on,33,0,120
2,note_on,38,49,0
2,note_on,38,0,1240
2,note_on,43,34,0
2,note_on,56,40,0
2,note_on,56,0,596
2,note_on,43,0,0
2,note_on,43,35,0
2,note_on,56,41,0
2,note_on,56,0,608
2,note_on,53,41,5
2,note_on,53,0,204
2,note_on,51,39,0
2,note_on,51,0,120
2,note_on,50,40,0
2,note_on,50,0,240
2,note_on,43,0,0
2,note_on,43,34,0
2,note_on,56,40,0
2,note_on,56,0,547
2,note_on,43,0,0
2,note_on,56,41,0
2,note_on,43,35,0
2,note_on,43,0,553
2,note_on,43,66,0
2,note_on,56,0,60
2,note_on,59,62,0
2,note_on,59,0,295
2,note_on,61,55,0
2,note_on,61,0,120
2,note_on,62,57,0
2,note_on,62,0,240
2,note_on,43,0,0
2,note_on,36,69,0
2,note_on,36,0,7
2,note_on,43,61,0
2,note_on,43,0,120
2,note_on,48,61,0
2,note_on,48,0,120
2,note_on,51,61,0
2,note_on,51,0,120
2,note_on,55,69,0
2,note_on,55,0,120
2,note_on,60,61,0
2,note_on,60,0,120
2,note_on,63,61,0
2,note_on,63,0,120
2,note_on,67,61,0
2,note_on,67,0,120
2,note_on,72,59,0
2,note_on,72,0,120
2,note_on,75,63,0
2,note_on,75,0,120
2,note_on,79,68,0
2,note_on,79,0,120
2,note_on,84,72,0
2,note_on,84,0,120
2,note_on,87,79,0
2,note_on,87,0,720
2,note_on,60,53,0
2,note_on,60,0,204
2,note_on,58,51,0
2,note_on,58,0,120
2,note_on,57,52,0
2,note_on,57,0,240
2,note_on,57,59,0
2,note_on,57,0,581
2,note_on,63,59,0
2,note_on,63,0,177
2,note_on,62,57,0
2,note_on,62,0,120
2,note_on,60,57,0
2,note_on,60,0,240
2,note_on,60,61,0
2,note_on,60,0,546
2,note_on,57,52,5
2,note_on,57,0,593
2,note_on,58,51,0
2,note_on,50,51,0
2,note_on,50,0,217
2,note_on,49,41,0
2,note_on,49,0,120
2,note_on,50,47,0
2,note_on,50,0,240
2,note_on,58,0,0
2,note_on,50,47,0
2,note_on,50,0,588
2,note_on,55,49,0
2,note_on,50,49,0
2,note_on,50,0,240
2,note_on,49,41,0
2,note_on,49,0,120
2,note_on,50,49,0
2,note_on,50,0,240
2,note_on,50,48,0
2,note_on,50,0,583
2,note_on,55,0,0
2,note_on,50,49,0
2,note_on,58,49,0
2,note_on,50,0,257
2,note_on,49,41,0
2,note_on,49,0,120
2,note_on,50,49,0
2,note_on,50,0,240
2,note_on,58,0,0
2,note_on,51,48,0
2,note_on,58,48,0
2,note_on,58,0,594
2,note_on,51,0,0
2,note_on,51,48,0
2,note_on,44,48,0
2,note_on,44,0,640
2,note_on,51,0,0
2,note_on,50,48,0
2,note_on,50,0,600
2,note_on,43,49,0
2,note_on,50,49,0
2,note_on,50,0,240
2,note_on,51,41,0
2,note_on,51,0,120
2,note_on,50,49,0
2,note_on,50,0,240
2,note_on,43,0,0
2,note_on,50,48,0
2,note_on,50,0,613
2,note_on,43,51,0
2,note_on,50,51,0
2,note_on,50,0,212
2,note_on,51,42,0
2,note_on,51,0,120
2,note_on,50,51,0
2,note_on,50,0,240
2,note_on,43,0,0
2,note_on,50,50,0
2,note_on,50,0,586
2,note_on,50,51,0
2,note_on,43,51,0
2,note_on,50,0,253
2,note_on,51,42,0
2,note_on,51,0,120
2,note_on,50,51,0
2,note_on,50,0,240
2,note_on,43,0,0
2,note_on,50,50,0
2,note_on,50,0,594
2,note_on,50,51,0
2,note_on,43,51,0
2,note_on,50,0,229
2,note_on,51,40,0
2,note_on,51,0,120
2,note_on,50,49,0
2,note_on,50,0,240
2,note_on,43,0,0
2,note_on,50,47,0
2,note_on,60,47,0
2,note_on,60,0,627
2,note_on,50,0,0
2,note_on,50,41,0
2,note_on,43,41,0
2,note_on,43,0,198
2,note_on,50,0,0
2,note_on,42,49,0
2,note_on,42,0,68
2,note_on,43,49,0
2,note_on,43,0,120
2,note_on,45,50,0
2,note_on,45,0,120
2,note_on,46,51,0
2,note_on,46,0,120
2,note_on,49,52,0
2,note_on,49,0,120
2,note_on,50,53,0
2,note_on,50,0,120
2,note_on,45,50,0
2,note_on,45,0,51
2,note_on,46,51,0
2,note_on,46,0,120
2,note_on,49,51,0
2,note_on,49,0,120
2,note_on,50,52,0
2,note_on,50,0,120
2,note_on,54,53,0
2,note_on,54,0,120
2,note_on,55,56,0
2,note_on,55,0,120
2,note_on,49,51,0
2,note_on,49,0,63
2,note_on,50,52,0
2,note_on,50,0,120
2,note_on,54,56,0
2,note_on,54,0,120
2,note_on,55,57,0
2,note_on,55,0,120
2,note_on,57,59,0
2,note_on,57,0,120
2,note_on,58,60,0
2,note_on,58,0,120
2,note_on,54,56,0
2,note_on,54,0,45
2,note_on,55,58,0
2,note_on,55,0,120
2,note_on,57,59,0
2,note_on,57,0,120
2,note_on,58,60,0
2,note_on,58,0,120
2,note_on,61,61,0
2,note_on,61,0,120
2,note_on,62,62,0
2,note_on,62,0,120
2,note_on,57,57,0
2,note_on,57,0,51
2,note_on,58,58,0
2,note_on,58,0,120
2,note_on,61,60,0
2,note_on,61,0,120
2,note_on,62,61,0
2,note_on,62,0,120
2,note_on,66,64,0
2,note_on,66,0,120
2,note_on,67,66,0
2,note_on,67,0,120
2,note_on,61,68,0
2,note_on,61,0,40
2,note_on,62,61,0
2,note_on,62,0,120
2,note_on,66,63,0
2,note_on,66,0,120
2,note_on,67,65,0
2,note_on,67,0,120
2,note_on,69,67,0
2,note_on,69,0,120
2,note_on,70,68,0
2,note_on,70,0,120
2,note_on,66,70,0
2,note_on,66,0,34
2,note_on,67,62,0
2,note_on,67,0,120
2,note_on,69,66,0
2,note_on,69,0,120
2,note_on,70,69,0
2,note_on,70,0,120
2,note_on,73,72,0
2,note_on,73,0,120
2,note_on,74,76,0
2,note_on,74,0,120
2,note_on,69,74,0
2,note_on,69,0,51
2,note_on,70,77,0
2,note_on,70,0,120
2,note_on,73,81,0
2,note_on,73,0,120
2,note_on,74,83,0
2,note_on,74,0,120
2,note_on,79,93,0
2,note_on,79,0,453
2,note_on,50,84,0
2,note_on,38,70,0
2,note_on,38,0,400
2,note_on,50,0,0
2,note_on,43,84,0
2,note_on,55,84,0
2,note_on,55,0,506
2,note_on,43,0,0
2,note_on,50,84,0
2,note_on,38,70,0
2,note_on,38,0,440
2,note_on,50,0,0
2,note_on,31,77,0
2,note_on,43,92,0
2,note_on,43,0,1160
2,note_on,31,0,0
2,note_on,70,93,0
2,note_on,55,79,0
2,note_on,62,79,0
2,note_on,62,0,1440
2,note_on,55,0,0
2,note_on,70,0,0
