Track,Message Type,Note,Velocity,Time
1,note_on,67,53,0
1,note_on,71,49,0
1,note_on,62,49,1
1,note_on,71,0,239
1,note_on,67,0,0
1,note_on,62,46,0
1,note_on,67,49,0
1,note_on,71,46,0
1,note_on,62,0,1
1,note_on,62,0,119
1,note_on,67,0,0
1,note_on,66,49,0
1,note_on,66,0,120
1,note_on,71,0,0
1,note_on,65,53,0
1,note_on,71,49,0
1,note_on,71,0,240
1,note_on,65,0,0
1,note_on,64,49,0
1,note_on,71,46,0
1,note_on,64,0,120
1,note_on,63,53,0
1,note_on,63,0,120
1,note_on,71,0,0
1,note_on,62,57,0
1,note_on,66,51,0
1,note_on,72,51,0
1,note_on,72,0,240
1,note_on,66,0,0
1,note_on,62,0,0
1,note_on,66,51,0
1,note_on,72,48,0
1,note_on,66,0,120
1,note_on,62,51,0
1,note_on,62,0,120
1,note_on,72,0,0
1,note_on,62,53,0
1,note_on,67,59,0
1,note_on,71,53,0
1,note_on,71,0,240
1,note_on,67,0,0
1,note_on,62,0,0
1,note_on,62,49,0
1,note_on,67,53,0
1,note_on,71,49,0
1,note_on,67,0,120
1,note_on,62,0,0
1,note_on,66,53,0
1,note_on,66,0,120
1,note_on,71,0,0
1,note_on,65,58,0
1,note_on,71,52,0
1,note_on,71,0,240
1,note_on,65,0,0
1,note_on,64,49,0
1,note_on,71,46,0
1,note_on,64,0,120
1,note_on,63,50,0
1,note_on,63,0,120
1,note_on,71,0,0
1,note_on,62,57,0
1,note_on,66,51,0
1,note_on,72,51,0
1,note_on,72,0,240
1,note_on,66,0,0
1,note_on,62,0,0
1,note_on,66,50,0
1,note_on,72,47,0
1,note_on,66,0,120
1,note_on,62,50,0
1,note_on,62,0,120
1,note_on,72,0,0
1,note_on,67,44,0
1,note_on,71,44,0
1,note_on,74,51,0
1,note_on,79,68,0
1,note_on,79,0,960
1,note_on,67,0,0
1,note_on,71,0,0
1,note_on,74,0,0
1,note_on,66,40,0
1,note_on,72,49,0
1,note_on,78,59,0
1,note_on,78,0,360
1,note_on,72,0,0
1,note_on,66,0,0
1,note_on,74,57,0
1,note_on,74,0,120
1,note_on,76,61,0
1,note_on,67,51,0
1,note_on,71,51,0
1,note_on,76,0,240
1,note_on,76,53,0
1,note_on,76,0,80
1,note_on,78,53,0
1,note_on,78,0,80
1,note_on,76,53,0
1,note_on,76,0,80
1,note_on,74,58,0
1,note_on,74,0,480
1,note_on,71,0,0
1,note_on,67,0,0
1,note_on,60,35,0
1,note_on,72,51,0
1,note_on,62,35,0
1,note_on,66,35,0
1,note_on,69,35,0
1,note_on,69,0,360
1,note_on,62,0,0
1,note_on,60,0,0
1,note_on,72,0,0
1,note_on,66,0,0
1,note_on,69,48,0
1,note_on,69,0,120
1,note_on,71,57,0
1,note_on,62,39,0
1,note_on,67,39,0
1,note_on,71,0,120
1,note_on,72,50,0
1,note_on,72,0,120
1,note_on,74,53,0
1,note_on,74,0,240
1,note_on,74,53,0
1,note_on,67,0,240
1,note_on,62,0,0
1,note_on,59,38,0
1,note_on,59,0,120
1,note_on,62,34,0
1,note_on,62,0,120
1,note_on,74,0,0
1,note_on,60,38,0
1,note_on,60,0,120
1,note_on,62,34,0
1,note_on,62,0,120
1,note_on,60,38,0
1,note_on,60,0,120
1,note_on,62,34,0
1,note_on,62,0,120
1,note_on,59,42,0
1,note_on,59,0,240
1,note_on,59,38,0
1,note_on,62,38,0
1,note_on,62,0,120
1,note_on,64,35,0
1,note_on,64,0,120
1,note_on,62,40,0
1,note_on,62,0,120
1,note_on,64,36,0
1,note_on,64,0,120
1,note_on,67,42,0
1,note_on,67,0,120
1,note_on,64,39,0
1,note_on,64,0,120
1,note_on,59,0,0
1,note_on,60,40,0
1,note_on,66,46,0
1,note_on,66,0,240
1,note_on,64,42,0
1,note_on,64,0,120
1,note_on,62,42,0
1,note_on,62,0,120
1,note_on,60,0,0
1,note_on,67,48,0
1,note_on,71,48,0
1,note_on,74,57,0
1,note_on,79,73,0
1,note_on,79,0,960
1,note_on,67,0,0
1,note_on,71,0,0
1,note_on,74,0,0
1,note_on,66,40,0
1,note_on,72,53,0
1,note_on,78,60,0
1,note_on,78,0,360
1,note_on,72,0,0
1,note_on,66,0,0
1,note_on,74,59,0
1,note_on,74,0,120
1,note_on,76,61,0
1,note_on,67,51,0
1,note_on,71,51,0
1,note_on,76,0,240
1,note_on,76,53,0
1,note_on,76,0,80
1,note_on,78,53,0
1,note_on,78,0,80
1,note_on,76,53,0
1,note_on,76,0,80
1,note_on,74,58,0
1,note_on,74,0,480
1,note_on,71,0,0
1,note_on,67,0,0
1,note_on,60,35,0
1,note_on,72,51,0
1,note_on,62,35,0
1,note_on,66,35,0
1,note_on,69,35,0
1,note_on,69,0,360
1,note_on,62,0,0
1,note_on,60,0,0
1,note_on,72,0,0
1,note_on,66,0,0
1,note_on,69,48,0
1,note_on,69,0,120
1,note_on,71,57,0
1,note_on,62,39,0
1,note_on,67,39,0
1,note_on,71,0,120
1,note_on,72,50,0
1,note_on,72,0,120
1,note_on,74,53,0
1,note_on,74,0,240
1,note_on,74,53,0
1,note_on,67,0,240
1,note_on,62,0,0
1,note_on,59,38,0
1,note_on,59,0,120
1,note_on,62,34,0
1,note_on,62,0,120
1,note_on,74,0,0
1,note_on,60,38,0
1,note_on,60,0,120
1,note_on,62,34,0
1,note_on,62,0,120
1,note_on,60,38,0
1,note_on,60,0,120
1,note_on,62,34,0
1,note_on,62,0,120
1,note_on,59,42,0
1,note_on,59,0,240
1,note_on,59,38,0
1,note_on,62,38,0
1,note_on,62,0,120
1,note_on,64,35,0
1,note_on,64,0,120
1,note_on,62,40,0
1,note_on,62,0,120
1,note_on,64,36,0
1,note_on,64,0,120
1,note_on,67,42,0
1,note_on,67,0,120
1,note_on,64,39,0
1,note_on,64,0,120
1,note_on,59,0,0
1,note_on,60,38,0
1,note_on,66,46,0
1,note_on,66,0,240
1,note_on,64,42,0
1,note_on,64,0,120
1,note_on,62,42,0
1,note_on,62,0,120
1,note_on,60,0,0
1,note_on,67,49,0
1,note_on,74,59,0
1,note_on,79,70,0
1,note_on,79,0,960
1,note_on,74,0,0
1,note_on,67,0,0
1,note_on,65,42,0
1,note_on,69,50,0
1,note_on,77,62,0
1,note_on,77,0,360
1,note_on,69,0,0
1,note_on,65,0,0
1,note_on,72,60,0
1,note_on,72,0,120
1,note_on,74,64,0
1,note_on,65,53,0
1,note_on,70,53,0
1,note_on,74,0,240
1,note_on,74,59,0
1,note_on,74,0,120
1,note_on,75,59,0
1,note_on,75,0,120
1,note_on,77,64,0
1,note_on,77,0,480
1,note_on,70,0,0
1,note_on,65,0,0
1,note_on,75,59,0
1,note_on,65,36,0
1,note_on,69,36,0
1,note_on,69,0,360
1,note_on,65,0,0
1,note_on,75,0,0
1,note_on,72,49,0
1,note_on,72,0,120
1,note_on,74,64,0
1,note_on,70,41,0
1,note_on,65,38,0
1,note_on,74,0,120
1,note_on,75,57,0
1,note_on,75,0,120
1,note_on,74,60,0
1,note_on,74,0,120
1,note_on,75,55,0
1,note_on,75,0,120
1,note_on,77,62,0
1,note_on,77,0,120
1,note_on,79,56,0
1,note_on,79,0,120
1,note_on,81,61,0
1,note_on,81,0,120
1,note_on,79,53,0
1,note_on,79,0,120
1,note_on,65,0,0
1,note_on,70,0,0
1,note_on,69,39,0
1,note_on,77,61,0
1,note_on,77,0,120
1,note_on,75,61,0
1,note_on,75,0,120
1,note_on,74,67,0
1,note_on,74,0,120
1,note_on,72,61,0
1,note_on,72,0,120
1,note_on,69,0,0
1,note_on,74,69,0
1,note_on,70,45,0
1,note_on,65,45,0
1,note_on,74,0,120
1,note_on,75,59,0
1,note_on,75,0,120
1,note_on,74,64,0
1,note_on,74,0,120
1,note_on,75,55,0
1,note_on,75,0,120
1,note_on,77,62,0
1,note_on,77,0,120
1,note_on,79,56,0
1,note_on,79,0,120
1,note_on,81,61,0
1,note_on,81,0,120
1,note_on,79,53,0
1,note_on,79,0,120
1,note_on,65,0,0
1,note_on,70,0,0
1,note_on,69,55,0
1,note_on,77,59,0
1,note_on,77,0,120
1,note_on,75,59,0
1,note_on,75,0,120
1,note_on,74,57,0
1,note_on,74,0,120
1,note_on,72,56,0
1,note_on,72,0,120
1,note_on,69,0,0
1,note_on,65,44,0
1,note_on,70,52,0
1,note_on,74,67,0
1,note_on,74,0,960
1,note_on,70,0,0
1,note_on,65,0,0
1,note_on,72,50,0
1,note_on,62,42,0
1,note_on,66,42,0
1,note_on,74,56,0
1,note_on,74,0,240
1,note_on,72,0,0
1,note_on,74,51,0
1,note_on,74,0,120
1,note_on,72,51,0
1,note_on,72,0,120
1,note_on,66,0,0
1,note_on,62,0,0
1,note_on,62,44,0
1,note_on,67,52,0
1,note_on,71,61,0
1,note_on,71,0,720
1,note_on,72,51,0
1,note_on,72,0,120
1,note_on,74,51,0
1,note_on,74,0,120
1,note_on,67,0,0
1,note_on,62,0,0
1,note_on,67,42,0
1,note_on,72,42,0
1,note_on,75,56,0
1,note_on,75,0,240
1,note_on,77,51,0
1,note_on,77,0,120
1,note_on,75,51,0
1,note_on,75,0,120
1,note_on,72,0,0
1,note_on,67,0,0
1,note_on,67,52,0
1,note_on,74,67,0
1,note_on,74,0,240
1,note_on,71,51,0
1,note_on,71,0,120
1,note_on,72,51,0
1,note_on,72,0,120
1,note_on,67,0,0
1,note_on,71,47,0
1,note_on,67,44,0
1,note_on,74,60,0
1,note_on,74,0,240
1,note_on,71,0,0
1,note_on,71,49,0
1,note_on,71,0,120
1,note_on,72,49,0
1,note_on,72,0,120
1,note_on,67,0,0
1,note_on,62,40,0
1,note_on,66,40,0
1,note_on,71,53,0
1,note_on,71,0,240
1,note_on,69,49,0
1,note_on,69,0,120
1,note_on,71,49,0
1,note_on,71,0,120
1,note_on,66,0,0
1,note_on,62,0,0
1,note_on,62,49,0
1,note_on,67,53,0
1,note_on,67,0,240
1,note_on,62,0,0
1,note_on,62,46,0
1,note_on,67,49,0
1,note_on,71,46,0
1,note_on,67,0,120
1,note_on,62,0,0
1,note_on,66,49,0
1,note_on,66,0,120
1,note_on,71,0,0
1,note_on,65,53,0
1,note_on,71,49,0
1,note_on,71,0,240
1,note_on,65,0,0
1,note_on,64,49,0
1,note_on,71,46,0
1,note_on,64,0,120
1,note_on,63,53,0
1,note_on,63,0,120
1,note_on,71,0,0
1,note_on,62,57,0
1,note_on,66,51,0
1,note_on,72,51,0
1,note_on,72,0,240
1,note_on,66,0,0
1,note_on,62,0,0
1,note_on,66,51,0
1,note_on,72,48,0
1,note_on,66,0,120
1,note_on,62,51,0
1,note_on,62,0,120
1,note_on,72,0,0
1,note_on,62,53,0
1,note_on,67,59,0
1,note_on,71,53,0
1,note_on,71,0,240
1,note_on,67,0,0
1,note_on,62,0,0
1,note_on,62,49,0
1,note_on,67,53,0
1,note_on,71,49,0
1,note_on,67,0,120
1,note_on,62,0,0
1,note_on,66,53,0
1,note_on,66,0,120
1,note_on,71,0,0
1,note_on,65,58,0
1,note_on,71,52,0
1,note_on,71,0,240
1,note_on,65,0,0
1,note_on,64,49,0
1,note_on,71,46,0
1,note_on,64,0,120
1,note_on,63,50,0
1,note_on,63,0,120
1,note_on,71,0,0
1,note_on,62,57,0
1,note_on,66,51,0
1,note_on,72,51,0
1,note_on,72,0,240
1,note_on,66,0,0
1,note_on,62,0,0
1,note_on,66,50,0
1,note_on,72,47,0
1,note_on,66,0,120
1,note_on,62,50,0
1,note_on,62,0,120
1,note_on,72,0,0
1,note_on,62,53,0
1,note_on,67,59,0
1,note_on,71,53,0
1,note_on,71,0,240
1,note_on,67,0,0
1,note_on,62,0,0
1,note_on,62,49,0
1,note_on,67,53,0
1,note_on,71,49,0
1,note_on,67,0,120
1,note_on,62,0,0
1,note_on,66,53,0
1,note_on,66,0,120
1,note_on,71,0,0
1,note_on,62,52,0
1,note_on,67,52,0
1,note_on,71,58,0
1,note_on,71,0,240
1,note_on,67,0,0
1,note_on,62,0,0
1,note_on,71,49,0
1,note_on,67,46,0
1,note_on,74,46,0
1,note_on,67,0,120
1,note_on,71,0,0
1,note_on,70,50,0
1,note_on,70,0,120
1,note_on,74,0,0
1,note_on,67,51,0
1,note_on,71,51,0
1,note_on,74,57,0
1,note_on,74,0,240
1,note_on,71,0,0
1,note_on,67,0,0
1,note_on,71,47,0
1,note_on,74,50,0
1,note_on,79,47,0
1,note_on,74,0,120
1,note_on,71,0,0
1,note_on,73,50,0
1,note_on,73,0,120
1,note_on,79,0,0
1,note_on,74,53,0
1,note_on,79,59,0
1,note_on,83,53,0
1,note_on,83,0,240
1,note_on,79,0,0
1,note_on,74,0,0
1,note_on,74,49,0
1,note_on,79,53,0
1,note_on,83,49,0
1,note_on,79,0,120
1,note_on,74,0,0
1,note_on,78,53,0
1,note_on,78,0,120
1,note_on,83,0,0
1,note_on,74,52,0
1,note_on,79,52,0
1,note_on,83,58,0
1,note_on,83,0,240
1,note_on,79,0,0
1,note_on,74,0,0
1,note_on,83,49,0
1,note_on,79,46,0
1,note_on,86,46,0
1,note_on,79,0,120
1,note_on,83,0,0
1,note_on,82,50,0
1,note_on,82,0,120
1,note_on,86,0,0
1,note_on,79,50,0
1,note_on,83,50,0
1,note_on,86,50,0
1,note_on,86,0,240
1,note_on,83,0,0
1,note_on,79,0,0
1,note_on,83,46,0
1,note_on,86,49,0
1,note_on,91,46,0
1,note_on,86,0,120
1,note_on,83,0,0
1,note_on,85,49,0
1,note_on,85,0,120
1,note_on,91,0,0
1,note_on,83,50,0
1,note_on,86,56,0
1,note_on,91,50,0
1,note_on,91,0,240
1,note_on,86,0,0
1,note_on,83,0,0
1,note_on,83,45,0
1,note_on,86,49,0
1,note_on,91,45,0
1,note_on,86,0,120
1,note_on,83,0,0
1,note_on,82,48,0
1,note_on,82,0,120
1,note_on,91,0,0
1,note_on,83,48,0
1,note_on,86,51,0
1,note_on,91,48,0
1,note_on,91,0,240
1,note_on,86,0,0
1,note_on,83,0,0
1,note_on,83,42,0
1,note_on,86,47,0
1,note_on,91,42,0
1,note_on,86,0,120
1,note_on,83,0,0
1,note_on,82,46,0
1,note_on,82,0,120
1,note_on,91,0,0
1,note_on,83,46,0
1,note_on,86,49,0
1,note_on,91,46,0
1,note_on,91,0,240
1,note_on,86,0,0
1,note_on,83,0,0
1,note_on,83,39,0
1,note_on,86,44,0
1,note_on,91,39,0
1,note_on,86,0,120
1,note_on,83,0,0
1,note_on,82,44,0
1,note_on,82,0,120
1,note_on,91,0,0
1,note_on,83,44,0
1,note_on,86,48,0
1,note_on,91,44,0
1,note_on,91,0,240
1,note_on,86,0,0
1,note_on,83,0,0
1,note_on,83,38,0
1,note_on,86,40,0
1,note_on,91,38,0
1,note_on,86,0,120
1,note_on,83,0,0
1,note_on,82,40,0
1,note_on,82,0,120
1,note_on,91,0,0
1,note_on,83,40,0
1,note_on,86,45,0
1,note_on,91,40,0
1,note_on,91,0,240
1,note_on,86,0,0
1,note_on,83,0,0
1,note_on,83,36,0
1,note_on,86,39,0
1,note_on,91,36,0
1,note_on,86,0,120
1,note_on,83,0,0
1,note_on,82,38,0
1,note_on,82,0,120
1,note_on,91,0,0
1,note_on,83,39,0
1,note_on,86,42,0
1,note_on,91,39,0
1,note_on,91,0,240
1,note_on,86,0,0
1,note_on,83,0,0
1,note_on,83,34,0
1,note_on,86,37,0
1,note_on,91,34,0
1,note_on,86,0,120
1,note_on,83,0,0
1,note_on,82,36,0
1,note_on,82,0,120
1,note_on,91,0,0
1,note_on,83,33,0
1,note_on,86,33,0
1,note_on,91,33,0
1,note_on,91,0,480
1,note_on,86,0,0
1,note_on,83,0,0
1,note_on,75,61,2400
1,note_on,79,61,0
1,note_on,82,72,0
1,note_on,87,92,0
1,note_on,87,0,960
1,note_on,75,0,0
1,note_on,79,0,0
1,note_on,82,0,0
1,note_on,74,52,0
1,note_on,80,62,0
1,note_on,86,80,0
1,note_on,86,0,360
1,note_on,80,0,0
1,note_on,74,0,0
1,note_on,82,68,0
1,note_on,82,0,120
1,note_on,84,67,0
1,note_on,75,60,0
1,note_on,79,60,0
1,note_on,84,0,240
1,note_on,84,59,0
1,note_on,84,0,80
1,note_on,86,59,0
1,note_on,86,0,80
1,note_on,84,59,0
1,note_on,84,0,80
1,note_on,82,66,0
1,note_on,82,0,480
1,note_on,79,0,0
1,note_on,75,0,0
1,note_on,80,64,0
1,note_on,70,48,0
1,note_on,74,48,0
1,note_on,74,0,360
1,note_on,70,0,0
1,note_on,80,0,0
1,note_on,77,57,0
1,note_on,77,0,120
1,note_on,79,68,0
1,note_on,70,51,0
1,note_on,75,51,0
1,note_on,79,0,120
1,note_on,80,60,0
1,note_on,80,0,120
1,note_on,82,65,0
1,note_on,82,0,240
1,note_on,82,65,0
1,note_on,75,0,240
1,note_on,70,0,0
1,note_on,55,42,0
1,note_on,55,0,120
1,note_on,58,38,0
1,note_on,58,0,120
1,note_on,82,0,0
1,note_on,56,42,0
1,note_on,56,0,120
1,note_on,58,38,0
1,note_on,58,0,120
1,note_on,56,42,0
1,note_on,56,0,120
1,note_on,58,38,0
1,note_on,58,0,120
1,note_on,55,48,0
1,note_on,55,0,240
1,note_on,55,42,0
1,note_on,58,42,0
1,note_on,58,0,120
1,note_on,60,39,0
1,note_on,60,0,120
1,note_on,58,46,0
1,note_on,58,0,120
1,note_on,60,40,0
1,note_on,60,0,120
1,note_on,63,48,0
1,note_on,63,0,120
1,note_on,60,44,0
1,note_on,60,0,120
1,note_on,55,0,0
1,note_on,56,46,0
1,note_on,62,51,0
1,note_on,62,0,240
1,note_on,60,48,0
1,note_on,60,0,120
1,note_on,58,48,0
1,note_on,58,0,120
1,note_on,56,0,0
1,note_on,75,61,0
1,note_on,79,61,0
1,note_on,82,72,0
1,note_on,87,89,0
1,note_on,87,0,960
1,note_on,75,0,0
1,note_on,79,0,0
1,note_on,82,0,0
1,note_on,74,52,0
1,note_on,80,62,0
1,note_on,86,80,0
1,note_on,86,0,360
1,note_on,80,0,0
1,note_on,74,0,0
1,note_on,82,68,0
1,note_on,82,0,120
1,note_on,84,71,0
1,note_on,75,60,0
1,note_on,79,57,0
1,note_on,84,0,240
1,note_on,84,57,0
1,note_on,84,0,80
1,note_on,86,57,0
1,note_on,86,0,80
1,note_on,84,57,0
1,note_on,84,0,80
1,note_on,82,65,0
1,note_on,82,0,480
1,note_on,79,0,0
1,note_on,75,0,0
1,note_on,67,41,0
1,note_on,81,61,0
1,note_on,69,41,0
1,note_on,73,41,0
1,note_on,73,0,360
1,note_on,67,0,0
1,note_on,81,0,0
1,note_on,69,0,0
1,note_on,79,52,0
1,note_on,79,0,120
1,note_on,78,62,0
1,note_on,69,44,0
1,note_on,74,44,0
1,note_on,78,0,120
1,note_on,79,55,0
1,note_on,79,0,120
1,note_on,81,58,0
1,note_on,81,0,240
1,note_on,81,58,0
1,note_on,74,0,240
1,note_on,69,0,0
1,note_on,54,38,0
1,note_on,54,0,120
1,note_on,57,34,0
1,note_on,57,0,120
1,note_on,81,0,0
1,note_on,55,38,0
1,note_on,55,0,120
1,note_on,57,34,0
1,note_on,57,0,120
1,note_on,55,38,0
1,note_on,55,0,120
1,note_on,57,35,0
1,note_on,57,0,120
1,note_on,54,44,0
1,note_on,54,0,240
1,note_on,54,39,0
1,note_on,57,39,0
1,note_on,57,0,120
1,note_on,59,37,0
1,note_on,59,0,120
1,note_on,57,42,0
1,note_on,57,0,120
1,note_on,59,38,0
1,note_on,59,0,120
1,note_on,57,46,0
1,note_on,57,0,120
1,note_on,59,41,0
1,note_on,59,0,120
1,note_on,54,0,0
1,note_on,55,44,0
1,note_on,61,49,0
1,note_on,61,0,240
1,note_on,59,47,0
1,note_on,59,0,120
1,note_on,57,47,0
1,note_on,57,0,120
1,note_on,55,0,0
1,note_on,74,61,0
1,note_on,78,61,0
1,note_on,81,72,0
1,note_on,86,89,0
1,note_on,86,0,960
1,note_on,74,0,0
1,note_on,78,0,0
1,note_on,81,0,0
1,note_on,73,52,0
1,note_on,79,62,0
1,note_on,85,75,0
1,note_on,85,0,360
1,note_on,79,0,0
1,note_on,73,0,0
1,note_on,81,67,0
1,note_on,81,0,120
1,note_on,83,75,0
1,note_on,74,60,0
1,note_on,78,60,0
1,note_on,83,0,240
1,note_on,83,59,0
1,note_on,83,0,80
1,note_on,85,59,0
1,note_on,85,0,80
1,note_on,83,59,0
1,note_on,83,0,80
1,note_on,81,67,0
1,note_on,81,0,480
1,note_on,78,0,0
1,note_on,74,0,0
1,note_on,67,48,0
1,note_on,79,68,0
1,note_on,69,48,0
1,note_on,73,48,0
1,note_on,73,0,360
1,note_on,67,0,0
1,note_on,79,0,0
1,note_on,69,0,0
1,note_on,76,60,0
1,note_on,76,0,120
1,note_on,78,68,0
1,note_on,69,51,0
1,note_on,74,51,0
1,note_on,78,0,120
1,note_on,79,60,0
1,note_on,79,0,120
1,note_on,81,65,0
1,note_on,81,0,240
1,note_on,81,65,0
1,note_on,74,0,240
1,note_on,69,0,0
1,note_on,54,42,0
1,note_on,54,0,120
1,note_on,57,38,0
1,note_on,57,0,120
1,note_on,81,0,0
1,note_on,55,42,0
1,note_on,55,0,120
1,note_on,57,38,0
1,note_on,57,0,120
1,note_on,55,42,0
1,note_on,55,0,120
1,note_on,57,38,0
1,note_on,57,0,120
1,note_on,54,48,0
1,note_on,54,0,240
1,note_on,54,42,0
1,note_on,57,42,0
1,note_on,57,0,120
1,note_on,59,39,0
1,note_on,59,0,120
1,note_on,57,46,0
1,note_on,57,0,120
1,note_on,59,40,0
1,note_on,59,0,120
1,note_on,62,48,0
1,note_on,62,0,120
1,note_on,59,44,0
1,note_on,59,0,120
1,note_on,54,0,0
1,note_on,55,46,0
1,note_on,61,51,0
1,note_on,61,0,240
1,note_on,59,48,0
1,note_on,59,0,120
1,note_on,57,48,0
1,note_on,57,0,120
1,note_on,55,0,0
1,note_on,74,60,0
1,note_on,78,60,0
1,note_on,81,72,0
1,note_on,86,94,0
1,note_on,86,0,960
1,note_on,74,0,0
1,note_on,78,0,0
1,note_on,81,0,0
1,note_on,73,57,0
1,note_on,79,69,0
1,note_on,85,82,0
1,note_on,85,0,360
1,note_on,79,0,0
1,note_on,73,0,0
1,note_on,69,68,0
1,note_on,81,68,0
1,note_on,81,0,120
1,note_on,69,0,0
1,note_on,71,63,0
1,note_on,83,82,0
1,note_on,74,63,0
1,note_on,78,63,0
1,note_on,78,0,720
1,note_on,71,0,0
1,note_on,83,0,0
1,note_on,74,0,0
1,note_on,74,82,0
1,note_on,86,91,0
1,note_on,86,0,240
1,note_on,74,0,0
1,note_on,85,79,0
1,note_on,73,52,0
1,note_on,79,57,0
1,note_on,79,0,360
1,note_on,73,0,0
1,note_on,85,0,0
1,note_on,69,64,0
1,note_on,81,71,0
1,note_on,81,0,120
1,note_on,69,0,0
1,note_on,71,67,0
1,note_on,83,88,0
1,note_on,74,66,0
1,note_on,78,66,0
1,note_on,78,0,720
1,note_on,71,0,0
1,note_on,83,0,0
1,note_on,74,0,0
1,note_on,74,79,0
1,note_on,86,86,0
1,note_on,86,0,240
1,note_on,74,0,0
1,note_on,84,72,0
1,note_on,72,48,0
1,note_on,79,48,0
1,note_on,79,0,360
1,note_on,72,0,0
1,note_on,84,0,0
1,note_on,69,56,0
1,note_on,81,60,0
1,note_on,81,0,120
1,note_on,69,0,0
1,note_on,72,45,0
1,note_on,72,0,90
1,note_on,74,47,30
1,note_on,74,0,90
1,note_on,75,49,30
1,note_on,75,0,90
1,note_on,77,51,30
1,note_on,77,0,90
1,note_on,75,53,30
1,note_on,75,0,90
1,note_on,77,51,30
1,note_on,77,0,90
1,note_on,75,51,30
1,note_on,75,0,90
1,note_on,74,51,30
1,note_on,74,0,90
1,note_on,72,53,30
1,note_on,72,0,90
1,note_on,74,49,30
1,note_on,74,0,90
1,note_on,72,49,30
1,note_on,72,0,90
1,note_on,70,49,30
1,note_on,70,0,90
1,note_on,69,46,30
1,note_on,69,0,90
1,note_on,70,48,30
1,note_on,70,0,90
1,note_on,72,49,30
1,note_on,72,0,90
1,note_on,74,51,30
1,note_on,74,0,90
1,note_on,72,53,30
1,note_on,72,0,90
1,note_on,74,50,30
1,note_on,74,0,90
1,note_on,72,50,30
1,note_on,72,0,90
1,note_on,70,50,30
1,note_on,70,0,90
1,note_on,69,53,30
1,note_on,69,0,90
1,note_on,70,50,30
1,note_on,70,0,90
1,note_on,69,50,30
1,note_on,69,0,90
1,note_on,67,50,30
1,note_on,67,0,90
1,note_on,66,48,30
1,note_on,66,0,90
1,note_on,67,49,30
1,note_on,67,0,90
1,note_on,69,51,30
1,note_on,69,0,90
1,note_on,70,53,30
1,note_on,70,0,90
1,note_on,72,53,30
1,note_on,72,0,90
1,note_on,70,51,30
1,note_on,70,0,90
1,note_on,69,51,30
1,note_on,69,0,90
1,note_on,67,51,30
1,note_on,67,0,90
1,note_on,65,53,30
1,note_on,65,0,90
1,note_on,67,51,30
1,note_on,67,0,90
1,note_on,65,51,30
1,note_on,65,0,90
1,note_on,63,51,30
1,note_on,63,0,90
1,note_on,62,73,30
1,note_on,66,73,0
1,note_on,69,73,0
1,note_on,74,86,0
1,note_on,74,0,240
1,note_on,62,0,0
1,note_on,66,0,0
1,note_on,69,0,0
1,note_on,66,74,0
1,note_on,69,74,0
1,note_on,74,74,0
1,note_on,78,89,0
1,note_on,78,0,240
1,note_on,66,0,0
1,note_on,69,0,0
1,note_on,74,0,0
1,note_on,69,75,0
1,note_on,74,75,0
1,note_on,78,75,0
1,note_on,81,90,0
1,note_on,81,0,240
1,note_on,69,0,0
1,note_on,74,0,0
1,note_on,78,0,0
1,note_on,86,94,0
1,note_on,81,80,0
1,note_on,78,80,0
1,note_on,74,80,0
1,note_on,74,0,240
1,note_on,86,0,0
1,note_on,81,0,0
1,note_on,78,0,0
1,note_on,87,80,0
1,note_on,91,80,0
1,note_on,94,89,0
1,note_on,99,106,0
1,note_on,99,0,240
1,note_on,87,0,0
1,note_on,91,0,0
1,note_on,94,0,0
1,note_on,63,73,0
1,note_on,67,73,0
1,note_on,70,73,0
1,note_on,75,88,0
1,note_on,75,0,240
1,note_on,63,0,0
1,note_on,67,0,0
1,note_on,70,0,0
1,note_on,62,73,0
1,note_on,66,73,0
1,note_on,69,73,0
1,note_on,74,86,0
1,note_on,74,0,240
1,note_on,62,0,0
1,note_on,66,0,0
1,note_on,69,0,0
1,note_on,66,74,0
1,note_on,69,74,0
1,note_on,74,74,0
1,note_on,78,89,0
1,note_on,78,0,240
1,note_on,66,0,0
1,note_on,69,0,0
1,note_on,74,0,0
1,note_on,69,75,0
1,note_on,74,75,0
1,note_on,78,75,0
1,note_on,81,90,0
1,note_on,81,0,240
1,note_on,69,0,0
1,note_on,74,0,0
1,note_on,78,0,0
1,note_on,86,94,0
1,note_on,81,80,0
1,note_on,78,80,0
1,note_on,74,80,0
1,note_on,74,0,240
1,note_on,86,0,0
1,note_on,81,0,0
1,note_on,78,0,0
1,note_on,87,80,0
1,note_on,91,80,0
1,note_on,94,89,0
1,note_on,99,106,0
1,note_on,99,0,240
1,note_on,87,0,0
1,note_on,91,0,0
1,note_on,94,0,0
1,note_on,63,73,0
1,note_on,67,73,0
1,note_on,70,73,0
1,note_on,75,88,0
1,note_on,75,0,240
1,note_on,63,0,0
1,note_on,67,0,0
1,note_on,70,0,0
1,note_on,57,72,0
1,note_on,62,72,0
1,note_on,66,72,0
1,note_on,66,0,240
1,note_on,62,0,0
1,note_on,57,0,0
1,note_on,57,67,0
1,note_on,62,67,0
1,note_on,66,67,0
1,note_on,62,0,120
1,note_on,57,0,0
1,note_on,61,67,0
1,note_on,61,0,120
1,note_on,66,0,0
1,note_on,60,72,0
1,note_on,66,72,0
1,note_on,66,0,240
1,note_on,60,0,0
1,note_on,59,67,0
1,note_on,66,67,0
1,note_on,59,0,120
1,note_on,58,72,0
1,note_on,58,0,120
1,note_on,66,0,0
1,note_on,57,75,0
1,note_on,61,75,0
1,note_on,67,75,0
1,note_on,67,0,240
1,note_on,61,0,0
1,note_on,57,0,0
1,note_on,61,69,0
1,note_on,67,69,0
1,note_on,61,0,120
1,note_on,57,69,0
1,note_on,57,0,120
1,note_on,67,0,0
1,note_on,57,79,0
1,note_on,62,79,0
1,note_on,66,79,0
1,note_on,66,0,240
1,note_on,62,0,0
1,note_on,57,0,0
1,note_on,57,72,0
1,note_on,62,72,0
1,note_on,66,72,0
1,note_on,62,0,120
1,note_on,57,0,0
1,note_on,61,72,0
1,note_on,61,0,120
1,note_on,66,0,0
1,note_on,60,77,0
1,note_on,66,77,0
1,note_on,66,0,240
1,note_on,60,0,0
1,note_on,59,67,0
1,note_on,66,67,0
1,note_on,59,0,120
1,note_on,58,68,0
1,note_on,58,0,120
1,note_on,66,0,0
1,note_on,57,75,0
1,note_on,61,75,0
1,note_on,67,75,0
1,note_on,67,0,240
1,note_on,61,0,0
1,note_on,57,0,0
1,note_on,61,68,0
1,note_on,67,68,0
1,note_on,61,0,120
1,note_on,57,68,0
1,note_on,57,0,120
1,note_on,67,0,0
1,note_on,57,68,0
1,note_on,62,68,0
1,note_on,66,68,0
1,note_on,66,0,480
1,note_on,62,0,0
1,note_on,57,0,0
1,note_on,72,75,960
1,note_on,74,75,0
1,note_on,78,75,0
1,note_on,81,75,0
1,note_on,86,90,0
1,note_on,86,0,240
1,note_on,78,0,0
1,note_on,72,0,0
1,note_on,74,0,0
1,note_on,81,0,0
1,note_on,72,70,0
1,note_on,74,70,0
1,note_on,78,70,0
1,note_on,81,70,0
1,note_on,86,84,0
1,note_on,86,0,120
1,note_on,78,0,0
1,note_on,72,0,0
1,note_on,74,0,0
1,note_on,81,0,0
1,note_on,72,70,0
1,note_on,74,70,0
1,note_on,78,70,0
1,note_on,81,70,0
1,note_on,86,84,0
1,note_on,86,0,120
1,note_on,78,0,0
1,note_on,72,0,0
1,note_on,74,0,0
1,note_on,81,0,0
1,note_on,72,75,0
1,note_on,74,75,0
1,note_on,78,75,0
1,note_on,81,75,0
1,note_on,86,90,0
1,note_on,86,0,240
1,note_on,78,0,0
1,note_on,72,0,0
1,note_on,74,0,0
1,note_on,81,0,0
1,note_on,72,67,0
1,note_on,74,67,0
1,note_on,78,67,0
1,note_on,81,67,0
1,note_on,86,80,0
1,note_on,86,0,120
1,note_on,78,0,0
1,note_on,72,0,0
1,note_on,74,0,0
1,note_on,81,0,0
1,note_on,72,67,0
1,note_on,74,67,0
1,note_on,78,67,0
1,note_on,81,67,0
1,note_on,86,80,0
1,note_on,86,0,120
1,note_on,78,0,0
1,note_on,72,0,0
1,note_on,74,0,0
1,note_on,81,0,0
1,note_on,72,75,0
1,note_on,74,75,0
1,note_on,78,75,0
1,note_on,81,75,0
1,note_on,86,90,0
1,note_on,86,0,240
1,note_on,78,0,0
1,note_on,72,0,0
1,note_on,74,0,0
1,note_on,81,0,0
1,note_on,72,68,0
1,note_on,74,68,0
1,note_on,78,68,0
1,note_on,81,68,0
1,note_on,86,81,0
1,note_on,86,0,120
1,note_on,78,0,0
1,note_on,72,0,0
1,note_on,74,0,0
1,note_on,81,0,0
1,note_on,72,68,0
1,note_on,74,68,0
1,note_on,78,68,0
1,note_on,81,68,0
1,note_on,86,81,0
1,note_on,86,0,120
1,note_on,78,0,0
1,note_on,72,0,0
1,note_on,74,0,0
1,note_on,81,0,0
1,note_on,74,77,45
1,note_on,79,77,15
1,note_on,83,77,15
1,note_on,86,91,15
1,note_on,91,91,15
1,note_on,91,0,135
1,note_on,83,0,0
1,note_on,74,0,0
1,note_on,79,0,0
1,note_on,86,0,0
1,note_on,62,61,0
1,note_on,67,67,0
1,note_on,71,61,0
1,note_on,67,0,120
1,note_on,62,0,0
1,note_on,66,67,0
1,note_on,66,0,120
1,note_on,71,0,0
1,note_on,65,71,0
1,note_on,71,64,0
1,note_on,71,0,240
1,note_on,65,0,0
1,note_on,64,64,0
1,note_on,71,59,0
1,note_on,64,0,120
1,note_on,63,69,0
1,note_on,63,0,120
1,note_on,71,0,0
1,note_on,62,72,0
1,note_on,66,66,0
1,note_on,72,66,0
1,note_on,72,0,240
1,note_on,66,0,0
1,note_on,62,0,0
1,note_on,66,64,0
1,note_on,72,60,0
1,note_on,66,0,120
1,note_on,62,64,0
1,note_on,62,0,120
1,note_on,72,0,0
1,note_on,62,67,0
1,note_on,67,72,0
1,note_on,71,67,0
1,note_on,71,0,240
1,note_on,67,0,0
1,note_on,62,0,0
1,note_on,62,60,0
1,note_on,67,66,0
1,note_on,71,60,0
1,note_on,67,0,120
1,note_on,62,0,0
1,note_on,66,64,0
1,note_on,66,0,120
1,note_on,71,0,0
1,note_on,65,69,0
1,note_on,71,63,0
1,note_on,71,0,240
1,note_on,65,0,0
1,note_on,64,59,0
1,note_on,71,53,0
1,note_on,64,0,120
1,note_on,63,59,0
1,note_on,63,0,120
1,note_on,71,0,0
1,note_on,62,66,0
1,note_on,66,60,0
1,note_on,72,60,0
1,note_on,72,0,240
1,note_on,66,0,0
1,note_on,62,0,0
1,note_on,66,58,0
1,note_on,72,52,0
1,note_on,66,0,120
1,note_on,62,57,0
1,note_on,62,0,120
1,note_on,72,0,0
1,note_on,67,49,0
1,note_on,71,49,0
1,note_on,74,58,0
1,note_on,79,75,0
1,note_on,79,0,960
1,note_on,67,0,0
1,note_on,71,0,0
1,note_on,74,0,0
1,note_on,66,46,0
1,note_on,72,55,0
1,note_on,78,66,0
1,note_on,78,0,360
1,note_on,72,0,0
1,note_on,66,0,0
1,note_on,74,63,0
1,note_on,74,0,120
1,note_on,76,69,0
1,note_on,67,58,0
1,note_on,71,58,0
1,note_on,76,0,240
1,note_on,76,60,0
1,note_on,76,0,80
1,note_on,78,60,0
1,note_on,78,0,80
1,note_on,76,60,0
1,note_on,76,0,80
1,note_on,74,64,0
1,note_on,74,0,480
1,note_on,71,0,0
1,note_on,67,0,0
1,note_on,60,39,0
1,note_on,72,58,0
1,note_on,62,39,0
1,note_on,66,39,0
1,note_on,69,39,0
1,note_on,69,0,360
1,note_on,62,0,0
1,note_on,60,0,0
1,note_on,72,0,0
1,note_on,66,0,0
1,note_on,69,53,0
1,note_on,69,0,120
1,note_on,71,63,0
1,note_on,62,45,0
1,note_on,67,45,0
1,note_on,71,0,120
1,note_on,72,57,0
1,note_on,72,0,120
1,note_on,74,60,0
1,note_on,74,0,240
1,note_on,74,60,0
1,note_on,67,0,240
1,note_on,62,0,0
1,note_on,59,42,0
1,note_on,59,0,120
1,note_on,62,38,0
1,note_on,62,0,120
1,note_on,74,0,0
1,note_on,60,42,0
1,note_on,60,0,120
1,note_on,62,38,0
1,note_on,62,0,120
1,note_on,60,42,0
1,note_on,60,0,120
1,note_on,62,38,0
1,note_on,62,0,120
1,note_on,59,48,0
1,note_on,59,0,240
1,note_on,59,42,0
1,note_on,62,42,0
1,note_on,62,0,120
1,note_on,64,39,0
1,note_on,64,0,120
1,note_on,62,46,0
1,note_on,62,0,120
1,note_on,64,40,0
1,note_on,64,0,120
1,note_on,67,48,0
1,note_on,67,0,120
1,note_on,64,44,0
1,note_on,64,0,120
1,note_on,59,0,0
1,note_on,60,46,0
1,note_on,66,51,0
1,note_on,66,0,240
1,note_on,64,48,0
1,note_on,64,0,120
1,note_on,62,48,0
1,note_on,62,0,120
1,note_on,60,0,0
1,note_on,67,53,0
1,note_on,71,53,0
1,note_on,74,63,0
1,note_on,79,82,0
1,note_on,79,0,960
1,note_on,67,0,0
1,note_on,71,0,0
1,note_on,74,0,0
1,note_on,66,46,0
1,note_on,72,60,0
1,note_on,78,68,0
1,note_on,78,0,360
1,note_on,72,0,0
1,note_on,66,0,0
1,note_on,74,66,0
1,note_on,74,0,120
1,note_on,76,69,0
1,note_on,67,58,0
1,note_on,71,58,0
1,note_on,76,0,240
1,note_on,76,60,0
1,note_on,76,0,80
1,note_on,78,60,0
1,note_on,78,0,80
1,note_on,76,60,0
1,note_on,76,0,80
1,note_on,74,64,0
1,note_on,74,0,480
1,note_on,71,0,0
1,note_on,67,0,0
1,note_on,60,39,0
1,note_on,72,58,0
1,note_on,62,39,0
1,note_on,66,39,0
1,note_on,69,39,0
1,note_on,69,0,360
1,note_on,62,0,0
1,note_on,60,0,0
1,note_on,72,0,0
1,note_on,66,0,0
1,note_on,69,53,0
1,note_on,69,0,120
1,note_on,71,63,0
1,note_on,62,45,0
1,note_on,67,45,0
1,note_on,71,0,120
1,note_on,72,57,0
1,note_on,72,0,120
1,note_on,74,60,0
1,note_on,74,0,240
1,note_on,74,60,0
1,note_on,67,0,240
1,note_on,62,0,0
1,note_on,59,42,0
1,note_on,59,0,120
1,note_on,62,38,0
1,note_on,62,0,120
1,note_on,74,0,0
1,note_on,60,42,0
1,note_on,60,0,120
1,note_on,62,38,0
1,note_on,62,0,120
1,note_on,60,42,0
1,note_on,60,0,120
1,note_on,62,38,0
1,note_on,62,0,120
1,note_on,59,48,0
1,note_on,59,0,240
1,note_on,59,42,0
1,note_on,62,42,0
1,note_on,62,0,120
1,note_on,64,39,0
1,note_on,64,0,120
1,note_on,62,46,0
1,note_on,62,0,120
1,note_on,64,40,0
1,note_on,64,0,120
1,note_on,67,48,0
1,note_on,67,0,120
1,note_on,64,44,0
1,note_on,64,0,120
1,note_on,59,0,0
1,note_on,60,42,0
1,note_on,66,51,0
1,note_on,66,0,240
1,note_on,64,48,0
1,note_on,64,0,120
1,note_on,62,48,0
1,note_on,62,0,120
1,note_on,60,0,0
1,note_on,67,56,0
1,note_on,74,66,0
1,note_on,79,79,0
1,note_on,79,0,960
1,note_on,74,0,0
1,note_on,67,0,0
1,note_on,65,48,0
1,note_on,69,57,0
1,note_on,77,70,0
1,note_on,77,0,360
1,note_on,69,0,0
1,note_on,65,0,0
1,note_on,72,68,0
1,note_on,72,0,120
1,note_on,74,72,0
1,note_on,65,60,0
1,note_on,70,60,0
1,note_on,74,0,240
1,note_on,74,66,0
1,note_on,74,0,120
1,note_on,75,66,0
1,note_on,75,0,120
1,note_on,77,72,0
1,note_on,77,0,480
1,note_on,70,0,0
1,note_on,65,0,0
1,note_on,75,67,0
1,note_on,65,40,0
1,note_on,69,40,0
1,note_on,69,0,360
1,note_on,65,0,0
1,note_on,75,0,0
1,note_on,72,56,0
1,note_on,72,0,120
1,note_on,74,72,0
1,note_on,70,47,0
1,note_on,65,42,0
1,note_on,74,0,120
1,note_on,75,63,0
1,note_on,75,0,120
1,note_on,74,68,0
1,note_on,74,0,120
1,note_on,75,61,0
1,note_on,75,0,120
1,note_on,77,70,0
1,note_on,77,0,120
1,note_on,79,62,0
1,note_on,79,0,120
1,note_on,81,69,0
1,note_on,81,0,120
1,note_on,79,60,0
1,note_on,79,0,120
1,note_on,65,0,0
1,note_on,70,0,0
1,note_on,69,44,0
1,note_on,77,69,0
1,note_on,77,0,120
1,note_on,75,69,0
1,note_on,75,0,120
1,note_on,74,74,0
1,note_on,74,0,120
1,note_on,72,69,0
1,note_on,72,0,120
1,note_on,69,0,0
1,note_on,74,77,0
1,note_on,70,50,0
1,note_on,65,50,0
1,note_on,74,0,120
1,note_on,75,66,0
1,note_on,75,0,120
1,note_on,74,72,0
1,note_on,74,0,120
1,note_on,75,61,0
1,note_on,75,0,120
1,note_on,77,70,0
1,note_on,77,0,120
1,note_on,79,62,0
1,note_on,79,0,120
1,note_on,81,69,0
1,note_on,81,0,120
1,note_on,79,60,0
1,note_on,79,0,120
1,note_on,65,0,0
1,note_on,70,0,0
1,note_on,69,61,0
1,note_on,77,67,0
1,note_on,77,0,120
1,note_on,75,66,0
1,note_on,75,0,120
1,note_on,74,63,0
1,note_on,74,0,120
1,note_on,72,62,0
1,note_on,72,0,120
1,note_on,69,0,0
1,note_on,65,49,0
1,note_on,70,59,0
1,note_on,74,74,0
1,note_on,74,0,960
1,note_on,70,0,0
1,note_on,65,0,0
1,note_on,72,57,0
1,note_on,62,48,0
1,note_on,66,48,0
1,note_on,74,62,0
1,note_on,74,0,240
1,note_on,72,0,0
1,note_on,74,58,0
1,note_on,74,0,120
1,note_on,72,58,0
1,note_on,72,0,120
1,note_on,66,0,0
1,note_on,62,0,0
1,note_on,62,49,0
1,note_on,67,59,0
1,note_on,71,69,0
1,note_on,71,0,720
1,note_on,72,58,0
1,note_on,72,0,120
1,note_on,74,58,0
1,note_on,74,0,120
1,note_on,67,0,0
1,note_on,62,0,0
1,note_on,67,48,0
1,note_on,72,48,0
1,note_on,75,62,0
1,note_on,75,0,240
1,note_on,77,58,0
1,note_on,77,0,120
1,note_on,75,58,0
1,note_on,75,0,120
1,note_on,72,0,0
1,note_on,67,0,0
1,note_on,67,59,0
1,note_on,74,74,0
1,note_on,74,0,240
1,note_on,71,58,0
1,note_on,71,0,120
1,note_on,72,58,0
1,note_on,72,0,120
1,note_on,67,0,0
1,note_on,71,52,0
1,note_on,67,49,0
1,note_on,74,68,0
1,note_on,74,0,240
1,note_on,71,0,0
1,note_on,71,55,0
1,note_on,71,0,120
1,note_on,72,55,0
1,note_on,72,0,120
1,note_on,67,0,0
1,note_on,62,46,0
1,note_on,66,46,0
1,note_on,71,60,0
1,note_on,71,0,240
1,note_on,69,55,0
1,note_on,69,0,120
1,note_on,71,55,0
1,note_on,71,0,120
1,note_on,66,0,0
1,note_on,62,0,0
1,note_on,62,55,0
1,note_on,67,60,0
1,note_on,67,0,240
1,note_on,62,0,0
1,note_on,62,51,0
1,note_on,67,56,0
1,note_on,71,51,0
1,note_on,67,0,120
1,note_on,62,0,0
1,note_on,66,56,0
1,note_on,66,0,120
1,note_on,71,0,0
1,note_on,65,60,0
1,note_on,71,55,0
1,note_on,71,0,240
1,note_on,65,0,0
1,note_on,64,56,0
1,note_on,71,51,0
1,note_on,64,0,120
1,note_on,63,60,0
1,note_on,63,0,120
1,note_on,71,0,0
1,note_on,62,63,0
1,note_on,66,58,0
1,note_on,72,58,0
1,note_on,72,0,240
1,note_on,66,0,0
1,note_on,62,0,0
1,note_on,66,58,0
1,note_on,72,53,0
1,note_on,66,0,120
1,note_on,62,58,0
1,note_on,62,0,120
1,note_on,72,0,0
1,note_on,62,60,0
1,note_on,67,66,0
1,note_on,71,60,0
1,note_on,71,0,240
1,note_on,67,0,0
1,note_on,62,0,0
1,note_on,62,55,0
1,note_on,67,60,0
1,note_on,71,55,0
1,note_on,67,0,120
1,note_on,62,0,0
1,note_on,66,60,0
1,note_on,66,0,120
1,note_on,71,0,0
1,note_on,65,64,0
1,note_on,71,59,0
1,note_on,71,0,240
1,note_on,65,0,0
1,note_on,64,56,0
1,note_on,71,51,0
1,note_on,64,0,120
1,note_on,63,57,0
1,note_on,63,0,120
1,note_on,71,0,0
1,note_on,62,63,0
1,note_on,66,58,0
1,note_on,72,58,0
1,note_on,72,0,240
1,note_on,66,0,0
1,note_on,62,0,0
1,note_on,66,57,0
1,note_on,72,52,0
1,note_on,66,0,120
1,note_on,62,57,0
1,note_on,62,0,120
1,note_on,72,0,0
1,note_on,62,60,0
1,note_on,67,66,0
1,note_on,71,60,0
1,note_on,71,0,240
1,note_on,67,0,0
1,note_on,62,0,0
1,note_on,62,55,0
1,note_on,67,60,0
1,note_on,71,55,0
1,note_on,67,0,120
1,note_on,62,0,0
1,note_on,66,60,0
1,note_on,66,0,120
1,note_on,71,0,0
1,note_on,62,59,0
1,note_on,67,59,0
1,note_on,71,64,0
1,note_on,71,0,240
1,note_on,67,0,0
1,note_on,62,0,0
1,note_on,71,56,0
1,note_on,67,51,0
1,note_on,74,51,0
1,note_on,67,0,120
1,note_on,71,0,0
1,note_on,70,57,0
1,note_on,70,0,120
1,note_on,74,0,0
1,note_on,67,58,0
1,note_on,71,58,0
1,note_on,74,63,0
1,note_on,74,0,240
1,note_on,71,0,0
1,note_on,67,0,0
1,note_on,71,52,0
1,note_on,74,57,0
1,note_on,79,52,0
1,note_on,74,0,120
1,note_on,71,0,0
1,note_on,73,57,0
1,note_on,73,0,120
1,note_on,79,0,0
1,note_on,74,60,0
1,note_on,79,66,0
1,note_on,83,60,0
1,note_on,83,0,240
1,note_on,79,0,0
1,note_on,74,0,0
1,note_on,74,55,0
1,note_on,79,60,0
1,note_on,83,55,0
1,note_on,79,0,120
1,note_on,74,0,0
1,note_on,78,60,0
1,note_on,78,0,120
1,note_on,83,0,0
1,note_on,74,59,0
1,note_on,79,59,0
1,note_on,83,64,0
1,note_on,83,0,240
1,note_on,79,0,0
1,note_on,74,0,0
1,note_on,83,56,0
1,note_on,79,51,0
1,note_on,86,51,0
1,note_on,79,0,120
1,note_on,83,0,0
1,note_on,82,57,0
1,note_on,82,0,120
1,note_on,86,0,0
1,note_on,79,57,0
1,note_on,83,57,0
1,note_on,86,57,0
1,note_on,86,0,240
1,note_on,83,0,0
1,note_on,79,0,0
1,note_on,83,51,0
1,note_on,86,56,0
1,note_on,91,51,0
1,note_on,86,0,120
1,note_on,83,0,0
1,note_on,85,56,0
1,note_on,85,0,120
1,note_on,91,0,0
1,note_on,83,57,0
1,note_on,86,62,0
1,note_on,91,57,0
1,note_on,91,0,240
1,note_on,86,0,0
1,note_on,83,0,0
1,note_on,83,50,0
1,note_on,86,55,0
1,note_on,91,50,0
1,note_on,86,0,120
1,note_on,83,0,0
1,note_on,82,53,0
1,note_on,82,0,120
1,note_on,91,0,0
1,note_on,83,53,0
1,note_on,86,58,0
1,note_on,91,53,0
1,note_on,91,0,240
1,note_on,86,0,0
1,note_on,83,0,0
1,note_on,83,48,0
1,note_on,86,52,0
1,note_on,91,48,0
1,note_on,86,0,120
1,note_on,83,0,0
1,note_on,82,51,0
1,note_on,82,0,120
1,note_on,91,0,0
1,note_on,83,51,0
1,note_on,86,56,0
1,note_on,91,51,0
1,note_on,91,0,240
1,note_on,86,0,0
1,note_on,83,0,0
1,note_on,83,45,0
1,note_on,86,49,0
1,note_on,91,45,0
1,note_on,86,0,120
1,note_on,83,0,0
1,note_on,82,49,0
1,note_on,82,0,120
1,note_on,91,0,0
1,note_on,83,49,0
1,note_on,86,53,0
1,note_on,91,49,0
1,note_on,91,0,240
1,note_on,86,0,0
1,note_on,83,0,0
1,note_on,83,42,0
1,note_on,86,46,0
1,note_on,91,42,0
1,note_on,86,0,120
1,note_on,83,0,0
1,note_on,82,46,0
1,note_on,82,0,120
1,note_on,91,0,0
1,note_on,83,46,0
1,note_on,86,50,0
1,note_on,91,46,0
1,note_on,91,0,240
1,note_on,86,0,0
1,note_on,83,0,0
1,note_on,83,40,0
1,note_on,86,44,0
1,note_on,91,40,0
1,note_on,86,0,120
1,note_on,83,0,0
1,note_on,82,42,0
1,note_on,82,0,120
1,note_on,91,0,0
1,note_on,83,44,0
1,note_on,86,48,0
1,note_on,91,44,0
1,note_on,91,0,240
1,note_on,86,0,0
1,note_on,83,0,0
1,note_on,83,38,0
1,note_on,86,41,0
1,note_on,91,38,0
1,note_on,86,0,120
1,note_on,83,0,0
1,note_on,82,40,0
1,note_on,82,0,120
1,note_on,91,0,0
1,note_on,83,37,0
1,note_on,86,37,0
1,note_on,91,37,0
1,note_on,91,0,480
1,note_on,86,0,0
1,note_on,83,0,0
1,note_on,84,53,4080
1,note_on,84,0,240
1,note_on,86,59,0
1,note_on,86,0,240
1,note_on,87,55,0
1,note_on,87,0,240
1,note_on,89,58,0
1,note_on,89,0,240
1,note_on,92,61,0
1,note_on,92,0,240
1,note_on,96,72,0
1,note_on,96,0,600
1,note_on,94,56,0
1,note_on,94,0,120
1,note_on,92,57,0
1,note_on,92,0,120
1,note_on,91,53,0
1,note_on,91,0,120
1,note_on,89,57,0
1,note_on,89,0,120
1,note_on,91,53,0
1,note_on,91,0,120
1,note_on,92,56,0
1,note_on,92,0,120
1,note_on,89,52,0
1,note_on,89,0,120
1,note_on,91,60,0
1,note_on,91,0,120
1,note_on,92,55,0
1,note_on,92,0,120
1,note_on,91,58,0
1,note_on,91,0,120
1,note_on,89,50,0
1,note_on,89,0,120
1,note_on,87,56,0
1,note_on,87,0,120
1,note_on,89,52,0
1,note_on,89,0,120
1,note_on,87,53,0
1,note_on,87,0,120
1,note_on,86,49,0
1,note_on,86,0,120
1,note_on,84,55,0
1,note_on,84,0,120
1,note_on,86,51,0
1,note_on,86,0,120
1,note_on,87,56,0
1,note_on,87,0,120
1,note_on,91,51,0
1,note_on,91,0,120
1,note_on,91,58,0
1,note_on,91,0,720
1,note_on,89,55,0
1,note_on,89,0,120
1,note_on,87,49,0
1,note_on,87,0,120
1,note_on,86,57,0
1,note_on,86,0,120
1,note_on,87,51,0
1,note_on,87,0,120
1,note_on,89,51,0
1,note_on,89,0,120
1,note_on,92,51,0
1,note_on,92,0,120
1,note_on,91,53,0
1,note_on,91,0,80
1,note_on,92,45,0
1,note_on,92,0,80
1,note_on,91,45,0
1,note_on,91,0,80
1,note_on,89,51,0
1,note_on,89,0,120
1,note_on,87,48,0
1,note_on,87,0,120
1,note_on,86,49,0
1,note_on,86,0,120
1,note_on,87,50,0
1,note_on,87,0,120
1,note_on,89,51,0
1,note_on,89,0,120
1,note_on,91,45,0
1,note_on,91,0,120
1,note_on,83,39,0
1,note_on,89,52,0
1,note_on,89,0,80
1,note_on,83,0,0
1,note_on,91,40,0
1,note_on,91,0,80
1,note_on,89,40,0
1,note_on,89,0,80
1,note_on,87,41,0
1,note_on,87,0,120
1,note_on,86,38,0
1,note_on,86,0,120
1,note_on,96,45,0
1,note_on,91,37,0
1,note_on,87,37,0
1,note_on,84,37,0
1,note_on,84,0,240
1,note_on,96,0,0
1,note_on,91,0,0
1,note_on,87,0,0
1,note_on,60,37,240
1,note_on,65,37,0
1,note_on,68,37,0
1,note_on,72,37,0
1,note_on,72,0,960
1,note_on,60,0,0
1,note_on,65,0,0
1,note_on,68,0,0
1,note_on,63,51,0
1,note_on,67,51,0
1,note_on,72,60,0
1,note_on,67,0,120
1,note_on,63,0,0
1,note_on,62,46,0
1,note_on,62,0,120
1,note_on,72,0,0
1,note_on,60,39,0
1,note_on,63,39,0
1,note_on,67,48,0
1,note_on,63,0,120
1,note_on,60,0,0
1,note_on,55,44,0
1,note_on,55,0,120
1,note_on,67,0,0
1,note_on,63,50,0
1,note_on,67,50,0
1,note_on,72,59,0
1,note_on,67,0,120
1,note_on,63,0,0
1,note_on,62,44,0
1,note_on,62,0,120
1,note_on,72,0,0
1,note_on,60,38,0
1,note_on,63,38,0
1,note_on,67,46,0
1,note_on,63,0,120
1,note_on,60,0,0
1,note_on,55,44,0
1,note_on,55,0,120
1,note_on,67,0,0
1,note_on,65,49,0
1,note_on,67,49,0
1,note_on,71,58,0
1,note_on,67,0,120
1,note_on,65,0,0
1,note_on,63,41,0
1,note_on,63,0,120
1,note_on,71,0,0
1,note_on,62,38,0
1,note_on,65,38,0
1,note_on,67,46,0
1,note_on,65,0,120
1,note_on,62,0,0
1,note_on,55,41,0
1,note_on,55,0,120
1,note_on,67,0,0
1,note_on,60,39,0
1,note_on,63,39,0
1,note_on,67,49,0
1,note_on,72,49,0
1,note_on,72,0,240
1,note_on,60,0,0
1,note_on,63,0,0
1,note_on,67,0,0
1,note_on,84,58,0
1,note_on,84,0,240
1,note_on,86,67,0
1,note_on,86,0,240
1,note_on,87,61,0
1,note_on,87,0,240
1,note_on,89,66,0
1,note_on,89,0,240
1,note_on,92,69,0
1,note_on,92,0,240
1,note_on,99,85,0
1,note_on,99,0,600
1,note_on,98,67,0
1,note_on,98,0,120
1,note_on,96,68,0
1,note_on,96,0,120
1,note_on,94,63,0
1,note_on,94,0,120
1,note_on,96,68,0
1,note_on,96,0,80
1,note_on,98,68,0
1,note_on,98,0,80
1,note_on,96,68,0
1,note_on,96,0,80
1,note_on,94,67,0
1,note_on,94,0,120
1,note_on,92,62,0
1,note_on,92,0,120
1,note_on,94,72,0
1,note_on,94,0,120
1,note_on,96,66,0
1,note_on,96,0,120
1,note_on,94,69,0
1,note_on,94,0,120
1,note_on,92,60,0
1,note_on,92,0,120
1,note_on,91,67,0
1,note_on,91,0,240
1,note_on,89,63,0
1,note_on,89,0,120
1,note_on,91,58,0
1,note_on,91,0,120
1,note_on,92,66,0
1,note_on,92,0,120
1,note_on,94,61,0
1,note_on,94,0,120
1,note_on,96,67,0
1,note_on,96,0,120
1,note_on,92,61,0
1,note_on,92,0,120
1,note_on,91,73,0
1,note_on,91,0,80
1,note_on,92,63,0
1,note_on,92,0,80
1,note_on,91,63,0
1,note_on,91,0,80
1,note_on,89,67,0
1,note_on,89,0,120
1,note_on,91,70,0
1,note_on,91,0,120
1,note_on,87,73,0
1,note_on,87,0,240
1,note_on,86,70,0
1,note_on,86,0,120
1,note_on,87,67,0
1,note_on,87,0,120
1,note_on,89,75,0
1,note_on,89,0,80
1,note_on,91,67,0
1,note_on,91,0,80
1,note_on,89,67,0
1,note_on,89,0,80
1,note_on,87,73,0
1,note_on,87,0,120
1,note_on,89,67,0
1,note_on,89,0,120
1,note_on,86,73,0
1,note_on,86,0,80
1,note_on,87,63,0
1,note_on,87,0,80
1,note_on,86,63,0
1,note_on,86,0,80
1,note_on,84,67,0
1,note_on,84,0,120
1,note_on,87,70,0
1,note_on,87,0,120
1,note_on,86,73,0
1,note_on,86,0,240
1,note_on,84,70,0
1,note_on,84,0,120
1,note_on,86,67,0
1,note_on,86,0,120
1,note_on,87,75,0
1,note_on,87,0,120
1,note_on,89,75,0
1,note_on,89,0,120
1,note_on,91,73,0
1,note_on,91,0,120
1,note_on,92,67,0
1,note_on,92,0,120
1,note_on,89,73,0
1,note_on,89,0,80
1,note_on,91,63,0
1,note_on,91,0,80
1,note_on,89,62,0
1,note_on,89,0,80
1,note_on,87,72,0
1,note_on,87,0,80
1,note_on,89,62,0
1,note_on,89,0,80
1,note_on,87,62,0
1,note_on,87,0,80
1,note_on,86,71,0
1,note_on,86,0,80
1,note_on,87,61,0
1,note_on,87,0,80
1,note_on,86,61,0
1,note_on,86,0,80
1,note_on,84,70,0
1,note_on,84,0,80
1,note_on,86,60,0
1,note_on,86,0,80
1,note_on,84,60,0
1,note_on,84,0,80
1,note_on,82,69,0
1,note_on,82,0,80
1,note_on,84,59,0
1,note_on,84,0,80
1,note_on,82,59,0
1,note_on,82,0,80
1,note_on,80,68,0
1,note_on,80,0,80
1,note_on,82,59,0
1,note_on,82,0,80
1,note_on,80,58,0
1,note_on,80,0,80
1,note_on,79,67,0
1,note_on,79,0,480
1,note_on,62,46,0
1,note_on,60,46,0
1,note_on,66,46,0
1,note_on,69,46,0
1,note_on,74,46,0
1,note_on,74,0,960
1,note_on,66,0,0
1,note_on,62,0,0
1,note_on,60,0,0
1,note_on,69,0,0
1,note_on,62,51,0
1,note_on,67,51,0
1,note_on,71,60,0
1,note_on,71,0,120
1,note_on,67,0,0
1,note_on,62,0,0
1,note_on,60,46,0
1,note_on,60,0,120
1,note_on,59,39,0
1,note_on,62,39,0
1,note_on,67,48,0
1,note_on,67,0,120
1,note_on,62,0,0
1,note_on,59,0,0
1,note_on,55,44,0
1,note_on,55,0,120
1,note_on,62,50,0
1,note_on,67,50,0
1,note_on,71,59,0
1,note_on,71,0,120
1,note_on,67,0,0
1,note_on,62,0,0
1,note_on,60,44,0
1,note_on,60,0,120
1,note_on,59,38,0
1,note_on,62,38,0
1,note_on,67,46,0
1,note_on,67,0,120
1,note_on,62,0,0
1,note_on,59,0,0
1,note_on,55,44,0
1,note_on,55,0,120
1,note_on,64,49,0
1,note_on,66,49,0
1,note_on,72,58,0
1,note_on,72,0,120
1,note_on,66,0,0
1,note_on,64,0,0
1,note_on,62,41,0
1,note_on,62,0,120
1,note_on,60,38,0
1,note_on,62,38,0
1,note_on,66,46,0
1,note_on,66,0,120
1,note_on,62,0,0
1,note_on,60,0,0
1,note_on,57,41,0
1,note_on,57,0,120
1,note_on,55,46,0
1,note_on,67,46,0
1,note_on,67,0,240
1,note_on,55,0,0
1,note_on,79,61,0
1,note_on,79,0,240
1,note_on,79,60,0
1,note_on,79,0,240
1,note_on,79,58,0
1,note_on,79,0,240
1,note_on,79,57,0
1,note_on,79,0,360
1,note_on,79,55,0
1,note_on,79,0,120
1,note_on,79,60,0
1,note_on,79,0,480
1,note_on,77,57,0
1,note_on,77,0,360
1,note_on,74,52,0
1,note_on,74,0,120
1,note_on,75,57,0
1,note_on,75,0,120
1,note_on,77,53,0
1,note_on,77,0,120
1,note_on,79,57,0
1,note_on,79,0,120
1,note_on,80,53,0
1,note_on,80,0,120
1,note_on,79,60,0
1,note_on,79,0,240
1,note_on,80,57,0
1,note_on,80,0,120
1,note_on,79,55,0
1,note_on,79,0,120
1,note_on,77,58,0
1,note_on,77,0,240
1,note_on,74,56,0
1,note_on,74,0,120
1,note_on,77,56,0
1,note_on,77,0,120
1,note_on,75,61,0
1,note_on,75,0,80
1,note_on,77,50,0
1,note_on,77,0,80
1,note_on,75,50,0
1,note_on,75,0,80
1,note_on,74,58,0
1,note_on,74,0,120
1,note_on,72,51,0
1,note_on,72,0,120
1,note_on,71,56,0
1,note_on,71,0,360
1,note_on,74,52,0
1,note_on,74,0,120
1,note_on,74,55,0
1,note_on,74,0,960
1,note_on,79,61,240
1,note_on,79,0,240
1,note_on,79,60,0
1,note_on,79,0,240
1,note_on,79,58,0
1,note_on,79,0,240
1,note_on,79,57,0
1,note_on,79,0,360
1,note_on,79,55,0
1,note_on,79,0,120
1,note_on,79,60,0
1,note_on,79,0,480
1,note_on,77,57,0
1,note_on,77,0,240
1,note_on,74,52,0
1,note_on,74,0,120
1,note_on,75,52,0
1,note_on,75,0,120
1,note_on,77,57,0
1,note_on,77,0,60
1,note_on,79,53,0
1,note_on,79,0,60
1,note_on,80,57,0
1,note_on,80,0,60
1,note_on,82,53,0
1,note_on,82,0,60
1,note_on,84,53,0
1,note_on,84,0,80
1,note_on,82,53,0
1,note_on,82,0,80
1,note_on,80,53,0
1,note_on,80,0,80
1,note_on,79,60,0
1,note_on,79,0,240
1,note_on,80,57,0
1,note_on,80,0,120
1,note_on,79,55,0
1,note_on,79,0,120
1,note_on,77,58,0
1,note_on,77,0,240
1,note_on,74,56,0
1,note_on,74,0,120
1,note_on,75,56,0
1,note_on,75,0,120
1,note_on,77,61,0
1,note_on,77,0,80
1,note_on,79,52,0
1,note_on,79,0,80
1,note_on,77,53,0
1,note_on,77,0,80
1,note_on,75,58,0
1,note_on,75,0,80
1,note_on,74,61,0
1,note_on,74,0,80
1,note_on,72,63,0
1,note_on,72,0,80
1,note_on,71,74,0
1,note_on,71,0,240
1,note_on,65,68,0
1,note_on,65,0,60
1,note_on,65,68,60
1,note_on,65,0,60
1,note_on,68,75,60
1,note_on,68,0,120
1,note_on,62,69,120
1,note_on,62,0,60
1,note_on,62,70,60
1,note_on,62,0,60
1,note_on,65,75,60
1,note_on,65,0,120
1,note_on,59,68,120
1,note_on,59,0,60
1,note_on,59,68,60
1,note_on,59,0,60
1,note_on,62,81,60
1,note_on,62,0,120
1,note_on,56,74,120
1,note_on,56,0,60
1,note_on,56,74,60
1,note_on,56,0,60
1,note_on,60,83,60
1,note_on,60,0,120
1,note_on,53,75,120
1,note_on,53,0,60
1,note_on,53,75,60
1,note_on,53,0,60
1,note_on,56,83,60
1,note_on,56,0,120
1,note_on,50,74,120
1,note_on,50,0,60
1,note_on,50,74,60
1,note_on,50,0,60
1,note_on,55,81,60
1,note_on,55,0,120
1,note_on,65,74,120
1,note_on,65,0,60
1,note_on,65,74,60
1,note_on,65,0,60
1,note_on,68,83,60
1,note_on,68,0,60
1,note_on,68,74,60
1,note_on,68,0,60
1,note_on,62,79,60
1,note_on,62,0,60
1,note_on,62,75,60
1,note_on,62,0,60
1,note_on,65,83,60
1,note_on,65,0,60
1,note_on,65,73,60
1,note_on,65,0,60
1,note_on,59,79,60
1,note_on,59,0,60
1,note_on,59,74,60
1,note_on,59,0,60
1,note_on,62,81,60
1,note_on,62,0,60
1,note_on,62,81,60
1,note_on,62,0,60
1,note_on,56,74,60
1,note_on,56,0,60
1,note_on,56,74,60
1,note_on,56,0,60
1,note_on,60,83,60
1,note_on,60,0,60
1,note_on,60,74,60
1,note_on,60,0,60
1,note_on,53,79,60
1,note_on,53,0,60
1,note_on,53,75,60
1,note_on,53,0,60
1,note_on,56,83,60
1,note_on,56,0,60
1,note_on,56,73,60
1,note_on,56,0,60
1,note_on,50,79,60
1,note_on,50,0,60
1,note_on,50,74,60
1,note_on,50,0,60
1,note_on,55,79,60
1,note_on,55,0,240
1,note_on,84,53,2880
1,note_on,84,0,240
1,note_on,86,59,0
1,note_on,86,0,240
1,note_on,87,55,0
1,note_on,87,0,240
1,note_on,89,58,0
1,note_on,89,0,240
1,note_on,92,61,0
1,note_on,92,0,240
1,note_on,96,72,0
1,note_on,96,0,600
1,note_on,94,56,0
1,note_on,94,0,120
1,note_on,92,57,0
1,note_on,92,0,120
1,note_on,91,53,0
1,note_on,91,0,120
1,note_on,89,57,0
1,note_on,89,0,120
1,note_on,91,53,0
1,note_on,91,0,120
1,note_on,92,56,0
1,note_on,92,0,120
1,note_on,89,52,0
1,note_on,89,0,120
1,note_on,91,60,0
1,note_on,91,0,120
1,note_on,92,55,0
1,note_on,92,0,120
1,note_on,91,58,0
1,note_on,91,0,120
1,note_on,89,50,0
1,note_on,89,0,120
1,note_on,87,56,0
1,note_on,87,0,120
1,note_on,89,52,0
1,note_on,89,0,120
1,note_on,87,53,0
1,note_on,87,0,120
1,note_on,86,49,0
1,note_on,86,0,120
1,note_on,84,55,0
1,note_on,84,0,120
1,note_on,86,51,0
1,note_on,86,0,120
1,note_on,87,56,0
1,note_on,87,0,120
1,note_on,91,51,0
1,note_on,91,0,120
1,note_on,91,58,0
1,note_on,91,0,720
1,note_on,89,55,0
1,note_on,89,0,120
1,note_on,87,49,0
1,note_on,87,0,120
1,note_on,86,57,0
1,note_on,86,0,120
1,note_on,87,51,0
1,note_on,87,0,120
1,note_on,89,51,0
1,note_on,89,0,120
1,note_on,92,51,0
1,note_on,92,0,120
1,note_on,91,53,0
1,note_on,91,0,80
1,note_on,92,45,0
1,note_on,92,0,80
1,note_on,91,45,0
1,note_on,91,0,80
1,note_on,89,51,0
1,note_on,89,0,120
1,note_on,87,48,0
1,note_on,87,0,120
1,note_on,86,49,0
1,note_on,86,0,120
1,note_on,87,50,0
1,note_on,87,0,120
1,note_on,89,51,0
1,note_on,89,0,120
1,note_on,91,45,0
1,note_on,91,0,120
1,note_on,83,52,0
1,note_on,89,52,0
1,note_on,89,0,80
1,note_on,83,0,0
1,note_on,91,40,0
1,note_on,91,0,80
1,note_on,89,40,0
1,note_on,89,0,80
1,note_on,87,41,0
1,note_on,87,0,120
1,note_on,86,38,0
1,note_on,86,0,120
1,note_on,96,45,0
1,note_on,91,37,0
1,note_on,87,37,0
1,note_on,84,37,0
1,note_on,84,0,240
1,note_on,96,0,0
1,note_on,91,0,0
1,note_on,87,0,0
1,note_on,60,37,240
1,note_on,65,37,0
1,note_on,68,37,0
1,note_on,72,37,0
1,note_on,72,0,960
1,note_on,60,0,0
1,note_on,65,0,0
1,note_on,68,0,0
1,note_on,63,51,0
1,note_on,67,51,0
1,note_on,72,60,0
1,note_on,67,0,120
1,note_on,63,0,0
1,note_on,62,46,0
1,note_on,62,0,120
1,note_on,72,0,0
1,note_on,60,39,0
1,note_on,63,39,0
1,note_on,67,48,0
1,note_on,63,0,120
1,note_on,60,0,0
1,note_on,55,44,0
1,note_on,55,0,120
1,note_on,67,0,0
1,note_on,63,50,0
1,note_on,67,50,0
1,note_on,72,59,0
1,note_on,67,0,120
1,note_on,63,0,0
1,note_on,62,44,0
1,note_on,62,0,120
1,note_on,72,0,0
1,note_on,60,38,0
1,note_on,63,38,0
1,note_on,67,46,0
1,note_on,63,0,120
1,note_on,60,0,0
1,note_on,55,44,0
1,note_on,55,0,120
1,note_on,67,0,0
1,note_on,65,49,0
1,note_on,67,49,0
1,note_on,71,58,0
1,note_on,67,0,120
1,note_on,65,0,0
1,note_on,63,41,0
1,note_on,63,0,120
1,note_on,71,0,0
1,note_on,62,38,0
1,note_on,65,38,0
1,note_on,67,46,0
1,note_on,65,0,120
1,note_on,62,0,0
1,note_on,55,41,0
1,note_on,55,0,120
1,note_on,67,0,0
1,note_on,63,56,0
1,note_on,67,56,0
1,note_on,72,66,0
1,note_on,72,0,240
1,note_on,67,0,0
1,note_on,63,0,0
1,note_on,63,42,0
1,note_on,67,42,0
1,note_on,72,52,0
1,note_on,67,0,120
1,note_on,63,0,0
1,note_on,62,48,0
1,note_on,62,0,120
1,note_on,72,0,0
1,note_on,63,55,0
1,note_on,67,55,0
1,note_on,72,64,0
1,note_on,72,0,240
1,note_on,67,0,0
1,note_on,63,0,0
1,note_on,63,50,0
1,note_on,60,41,0
1,note_on,67,50,0
1,note_on,60,0,120
1,note_on,59,48,0
1,note_on,59,0,120
1,note_on,67,0,0
1,note_on,63,0,0
1,note_on,60,53,0
1,note_on,63,53,0
1,note_on,67,63,0
1,note_on,67,0,240
1,note_on,63,0,0
1,note_on,60,0,0
1,note_on,55,50,0
1,note_on,55,0,240
1,note_on,67,61,0
1,note_on,70,61,0
1,note_on,75,72,0
1,note_on,75,0,240
1,note_on,70,0,0
1,note_on,67,0,0
1,note_on,67,46,0
1,note_on,70,46,0
1,note_on,75,57,0
1,note_on,70,0,120
1,note_on,67,0,0
1,note_on,66,52,0
1,note_on,66,0,120
1,note_on,75,0,0
1,note_on,67,60,0
1,note_on,70,60,0
1,note_on,75,70,0
1,note_on,75,0,240
1,note_on,70,0,0
1,note_on,67,0,0
1,note_on,67,55,0
1,note_on,63,45,0
1,note_on,70,55,0
1,note_on,63,0,120
1,note_on,62,52,0
1,note_on,62,0,120
1,note_on,70,0,0
1,note_on,67,0,0
1,note_on,63,58,0
1,note_on,67,58,0
1,note_on,70,69,0
1,note_on,70,0,240
1,note_on,67,0,0
1,note_on,63,0,0
1,note_on,58,55,0
1,note_on,63,55,0
1,note_on,67,55,0
1,note_on,67,0,240
1,note_on,63,0,0
1,note_on,58,0,0
1,note_on,67,66,0
1,note_on,62,66,0
1,note_on,71,72,0
1,note_on,74,66,0
1,note_on,74,0,240
1,note_on,67,0,0
1,note_on,62,0,0
1,note_on,71,0,0
1,note_on,67,60,0
1,note_on,71,66,0
1,note_on,74,60,0
1,note_on,71,0,120
1,note_on,67,0,0
1,note_on,66,66,0
1,note_on,66,0,120
1,note_on,74,0,0
1,note_on,67,64,0
1,note_on,71,64,0
1,note_on,74,70,0
1,note_on,74,0,240
1,note_on,71,0,0
1,note_on,67,0,0
1,note_on,74,62,0
1,note_on,71,57,0
1,note_on,79,57,0
1,note_on,71,0,120
1,note_on,74,0,0
1,note_on,70,63,0
1,note_on,70,0,120
1,note_on,79,0,0
1,note_on,71,64,0
1,note_on,74,64,0
1,note_on,79,70,0
1,note_on,79,0,240
1,note_on,74,0,0
1,note_on,71,0,0
1,note_on,83,59,0
1,note_on,74,64,0
1,note_on,79,59,0
1,note_on,74,0,120
1,note_on,73,64,0
1,note_on,73,0,120
1,note_on,79,0,0
1,note_on,83,0,0
1,note_on,74,70,0
1,note_on,79,70,0
1,note_on,83,82,0
1,note_on,83,0,240
1,note_on,79,0,0
1,note_on,74,0,0
1,note_on,79,67,0
1,note_on,74,67,0
1,note_on,83,67,0
1,note_on,86,80,0
1,note_on,83,0,120
1,note_on,79,0,0
1,note_on,74,0,0
1,note_on,82,83,0
1,note_on,82,0,120
1,note_on,86,0,0
1,note_on,74,70,0
1,note_on,79,70,0
1,note_on,83,70,0
1,note_on,86,83,0
1,note_on,86,0,240
1,note_on,74,0,0
1,note_on,79,0,0
1,note_on,83,0,0
1,note_on,74,73,0
1,note_on,86,73,0
1,note_on,86,0,120
1,note_on,74,0,0
1,note_on,74,73,0
1,note_on,86,73,0
1,note_on,86,0,120
1,note_on,74,0,0
1,note_on,74,72,0
1,note_on,84,85,0
1,note_on,78,72,0
1,note_on,86,85,0
1,note_on,86,0,240
1,note_on,74,0,0
1,note_on,84,0,0
1,note_on,78,0,0
1,note_on,74,67,0
1,note_on,86,78,0
1,note_on,78,67,0
1,note_on,84,78,0
1,note_on,84,0,240
1,note_on,74,0,0
1,note_on,86,0,0
1,note_on,78,0,0
1,note_on,62,69,0
1,note_on,67,75,0
1,note_on,71,69,0
1,note_on,71,0,240
1,note_on,67,0,0
1,note_on,62,0,0
1,note_on,62,63,0
1,note_on,67,70,0
1,note_on,71,63,0
1,note_on,67,0,120
1,note_on,62,0,0
1,note_on,66,70,0
1,note_on,66,0,120
1,note_on,71,0,0
1,note_on,65,75,0
1,note_on,71,69,0
1,note_on,71,0,240
1,note_on,65,0,0
1,note_on,64,70,0
1,note_on,71,63,0
1,note_on,64,0,120
1,note_on,63,75,0
1,note_on,63,0,120
1,note_on,71,0,0
1,note_on,62,79,0
1,note_on,66,72,0
1,note_on,72,72,0
1,note_on,72,0,240
1,note_on,66,0,0
1,note_on,62,0,0
1,note_on,66,72,0
1,note_on,72,66,0
1,note_on,66,0,120
1,note_on,62,72,0
1,note_on,62,0,120
1,note_on,72,0,0
1,note_on,62,75,0
1,note_on,67,82,0
1,note_on,71,75,0
1,note_on,71,0,240
1,note_on,67,0,0
1,note_on,62,0,0
1,note_on,62,69,0
1,note_on,67,75,0
1,note_on,71,69,0
1,note_on,67,0,120
1,note_on,62,0,0
1,note_on,66,75,0
1,note_on,66,0,120
1,note_on,71,0,0
1,note_on,65,80,0
1,note_on,71,73,0
1,note_on,71,0,240
1,note_on,65,0,0
1,note_on,64,70,0
1,note_on,71,63,0
1,note_on,64,0,120
1,note_on,63,71,0
1,note_on,63,0,120
1,note_on,71,0,0
1,note_on,62,79,0
1,note_on,66,72,0
1,note_on,72,72,0
1,note_on,72,0,240
1,note_on,66,0,0
1,note_on,62,0,0
1,note_on,66,71,0
1,note_on,72,64,0
1,note_on,66,0,120
1,note_on,62,71,0
1,note_on,62,0,120
1,note_on,72,0,0
1,note_on,67,49,0
1,note_on,71,49,0
1,note_on,74,58,0
1,note_on,79,75,0
1,note_on,79,0,960
1,note_on,67,0,0
1,note_on,71,0,0
1,note_on,74,0,0
1,note_on,66,46,0
1,note_on,72,55,0
1,note_on,78,66,0
1,note_on,78,0,360
1,note_on,72,0,0
1,note_on,66,0,0
1,note_on,74,63,0
1,note_on,74,0,120
1,note_on,76,69,0
1,note_on,67,58,0
1,note_on,71,58,0
1,note_on,76,0,240
1,note_on,76,60,0
1,note_on,76,0,80
1,note_on,78,60,0
1,note_on,78,0,80
1,note_on,76,60,0
1,note_on,76,0,80
1,note_on,74,64,0
1,note_on,74,0,480
1,note_on,71,0,0
1,note_on,67,0,0
1,note_on,60,39,0
1,note_on,72,58,0
1,note_on,62,39,0
1,note_on,66,39,0
1,note_on,69,39,0
1,note_on,69,0,360
1,note_on,62,0,0
1,note_on,60,0,0
1,note_on,72,0,0
1,note_on,66,0,0
1,note_on,69,53,0
1,note_on,69,0,120
1,note_on,71,63,0
1,note_on,62,45,0
1,note_on,67,45,0
1,note_on,71,0,120
1,note_on,72,57,0
1,note_on,72,0,120
1,note_on,74,60,0
1,note_on,74,0,240
1,note_on,74,60,0
1,note_on,67,0,240
1,note_on,62,0,0
1,note_on,59,42,0
1,note_on,59,0,120
1,note_on,62,38,0
1,note_on,62,0,120
1,note_on,74,0,0
1,note_on,60,42,0
1,note_on,60,0,120
1,note_on,62,38,0
1,note_on,62,0,120
1,note_on,60,42,0
1,note_on,60,0,120
1,note_on,62,38,0
1,note_on,62,0,120
1,note_on,59,48,0
1,note_on,59,0,240
1,note_on,59,42,0
1,note_on,62,42,0
1,note_on,62,0,120
1,note_on,64,39,0
1,note_on,64,0,120
1,note_on,62,46,0
1,note_on,62,0,120
1,note_on,64,40,0
1,note_on,64,0,120
1,note_on,67,48,0
1,note_on,67,0,120
1,note_on,64,44,0
1,note_on,64,0,120
1,note_on,59,0,0
1,note_on,60,46,0
1,note_on,66,51,0
1,note_on,66,0,240
1,note_on,64,48,0
1,note_on,64,0,120
1,note_on,62,48,0
1,note_on,62,0,120
1,note_on,60,0,0
1,note_on,67,53,0
1,note_on,71,53,0
1,note_on,74,63,0
1,note_on,79,82,0
1,note_on,79,0,960
1,note_on,67,0,0
1,note_on,71,0,0
1,note_on,74,0,0
1,note_on,66,46,0
1,note_on,72,60,0
1,note_on,78,68,0
1,note_on,78,0,360
1,note_on,72,0,0
1,note_on,66,0,0
1,note_on,74,66,0
1,note_on,74,0,120
1,note_on,76,69,0
1,note_on,67,58,0
1,note_on,71,58,0
1,note_on,76,0,240
1,note_on,76,60,0
1,note_on,76,0,80
1,note_on,78,60,0
1,note_on,78,0,80
1,note_on,76,60,0
1,note_on,76,0,80
1,note_on,74,64,0
1,note_on,74,0,480
1,note_on,71,0,0
1,note_on,67,0,0
1,note_on,60,39,0
1,note_on,72,58,0
1,note_on,62,39,0
1,note_on,66,39,0
1,note_on,69,39,0
1,note_on,69,0,360
1,note_on,62,0,0
1,note_on,60,0,0
1,note_on,72,0,0
1,note_on,66,0,0
1,note_on,69,53,0
1,note_on,69,0,120
1,note_on,71,63,0
1,note_on,62,45,0
1,note_on,67,45,0
1,note_on,71,0,120
1,note_on,72,57,0
1,note_on,72,0,120
1,note_on,74,60,0
1,note_on,74,0,240
1,note_on,74,60,0
1,note_on,67,0,240
1,note_on,62,0,0
1,note_on,59,42,0
1,note_on,59,0,120
1,note_on,62,38,0
1,note_on,62,0,120
1,note_on,74,0,0
1,note_on,60,42,0
1,note_on,60,0,120
1,note_on,62,38,0
1,note_on,62,0,120
1,note_on,60,42,0
1,note_on,60,0,120
1,note_on,62,38,0
1,note_on,62,0,120
1,note_on,59,48,0
1,note_on,59,0,240
1,note_on,59,42,0
1,note_on,62,42,0
1,note_on,62,0,120
1,note_on,64,39,0
1,note_on,64,0,120
1,note_on,62,46,0
1,note_on,62,0,120
1,note_on,64,40,0
1,note_on,64,0,120
1,note_on,67,48,0
1,note_on,67,0,120
1,note_on,64,44,0
1,note_on,64,0,120
1,note_on,59,0,0
1,note_on,60,42,0
1,note_on,66,51,0
1,note_on,66,0,240
1,note_on,64,48,0
1,note_on,64,0,120
1,note_on,62,48,0
1,note_on,62,0,120
1,note_on,60,0,0
1,note_on,67,56,0
1,note_on,74,66,0
1,note_on,79,79,0
1,note_on,79,0,960
1,note_on,74,0,0
1,note_on,67,0,0
1,note_on,65,48,0
1,note_on,69,57,0
1,note_on,77,70,0
1,note_on,77,0,360
1,note_on,69,0,0
1,note_on,65,0,0
1,note_on,72,68,0
1,note_on,72,0,120
1,note_on,74,72,0
1,note_on,65,60,0
1,note_on,70,60,0
1,note_on,74,0,240
1,note_on,74,66,0
1,note_on,74,0,120
1,note_on,75,66,0
1,note_on,75,0,120
1,note_on,77,72,0
1,note_on,77,0,480
1,note_on,70,0,0
1,note_on,65,0,0
1,note_on,75,67,0
1,note_on,65,40,0
1,note_on,69,40,0
1,note_on,69,0,360
1,note_on,65,0,0
1,note_on,75,0,0
1,note_on,72,56,0
1,note_on,72,0,120
1,note_on,74,72,0
1,note_on,70,47,0
1,note_on,65,42,0
1,note_on,74,0,120
1,note_on,75,63,0
1,note_on,75,0,120
1,note_on,74,68,0
1,note_on,74,0,120
1,note_on,75,61,0
1,note_on,75,0,120
1,note_on,77,70,0
1,note_on,77,0,120
1,note_on,79,62,0
1,note_on,79,0,120
1,note_on,81,69,0
1,note_on,81,0,120
1,note_on,79,60,0
1,note_on,79,0,120
1,note_on,65,0,0
1,note_on,70,0,0
1,note_on,69,44,0
1,note_on,77,69,0
1,note_on,77,0,120
1,note_on,75,69,0
1,note_on,75,0,120
1,note_on,74,74,0
1,note_on,74,0,120
1,note_on,72,69,0
1,note_on,72,0,120
1,note_on,69,0,0
1,note_on,74,77,0
1,note_on,70,50,0
1,note_on,65,50,0
1,note_on,74,0,120
1,note_on,75,66,0
1,note_on,75,0,120
1,note_on,74,72,0
1,note_on,74,0,120
1,note_on,75,61,0
1,note_on,75,0,120
1,note_on,77,70,0
1,note_on,77,0,120
1,note_on,79,62,0
1,note_on,79,0,120
1,note_on,81,69,0
1,note_on,81,0,120
1,note_on,79,60,0
1,note_on,79,0,120
1,note_on,65,0,0
1,note_on,70,0,0
1,note_on,69,61,0
1,note_on,77,67,0
1,note_on,77,0,120
1,note_on,75,66,0
1,note_on,75,0,120
1,note_on,74,63,0
1,note_on,74,0,120
1,note_on,72,62,0
1,note_on,72,0,120
1,note_on,69,0,0
1,note_on,65,49,0
1,note_on,70,59,0
1,note_on,74,74,0
1,note_on,74,0,960
1,note_on,70,0,0
1,note_on,65,0,0
1,note_on,72,57,0
1,note_on,62,48,0
1,note_on,66,48,0
1,note_on,74,62,0
1,note_on,74,0,240
1,note_on,72,0,0
1,note_on,74,58,0
1,note_on,74,0,120
1,note_on,72,58,0
1,note_on,72,0,120
1,note_on,66,0,0
1,note_on,62,0,0
1,note_on,62,49,0
1,note_on,67,59,0
1,note_on,71,69,0
1,note_on,71,0,720
1,note_on,72,58,0
1,note_on,72,0,120
1,note_on,74,58,0
1,note_on,74,0,120
1,note_on,67,0,0
1,note_on,62,0,0
1,note_on,67,48,0
1,note_on,72,48,0
1,note_on,75,62,0
1,note_on,75,0,240
1,note_on,77,58,0
1,note_on,77,0,120
1,note_on,75,58,0
1,note_on,75,0,120
1,note_on,72,0,0
1,note_on,67,0,0
1,note_on,67,59,0
1,note_on,74,74,0
1,note_on,74,0,240
1,note_on,71,58,0
1,note_on,71,0,120
1,note_on,72,58,0
1,note_on,72,0,120
1,note_on,67,0,0
1,note_on,71,52,0
1,note_on,67,49,0
1,note_on,74,68,0
1,note_on,74,0,240
1,note_on,71,0,0
1,note_on,71,55,0
1,note_on,71,0,120
1,note_on,72,55,0
1,note_on,72,0,120
1,note_on,67,0,0
1,note_on,62,46,0
1,note_on,66,46,0
1,note_on,71,60,0
1,note_on,71,0,240
1,note_on,69,55,0
1,note_on,69,0,120
1,note_on,71,55,0
1,note_on,71,0,120
1,note_on,66,0,0
1,note_on,62,0,0
1,note_on,62,55,0
1,note_on,67,60,0
1,note_on,67,0,240
1,note_on,62,0,0
1,note_on,62,51,0
1,note_on,67,56,0
1,note_on,71,51,0
1,note_on,67,0,120
1,note_on,62,0,0
1,note_on,66,56,0
1,note_on,66,0,120
1,note_on,71,0,0
1,note_on,65,60,0
1,note_on,71,55,0
1,note_on,71,0,240
1,note_on,65,0,0
1,note_on,64,56,0
1,note_on,71,51,0
1,note_on,64,0,120
1,note_on,63,60,0
1,note_on,63,0,120
1,note_on,71,0,0
1,note_on,62,63,0
1,note_on,66,58,0
1,note_on,72,58,0
1,note_on,72,0,240
1,note_on,66,0,0
1,note_on,62,0,0
1,note_on,66,58,0
1,note_on,72,53,0
1,note_on,66,0,120
1,note_on,62,58,0
1,note_on,62,0,120
1,note_on,72,0,0
1,note_on,62,60,0
1,note_on,67,66,0
1,note_on,71,60,0
1,note_on,71,0,240
1,note_on,67,0,0
1,note_on,62,0,0
1,note_on,62,55,0
1,note_on,67,60,0
1,note_on,71,55,0
1,note_on,67,0,120
1,note_on,62,0,0
1,note_on,66,60,0
1,note_on,66,0,120
1,note_on,71,0,0
1,note_on,65,64,0
1,note_on,71,59,0
1,note_on,71,0,240
1,note_on,65,0,0
1,note_on,64,56,0
1,note_on,71,51,0
1,note_on,64,0,120
1,note_on,63,57,0
1,note_on,63,0,120
1,note_on,71,0,0
1,note_on,62,63,0
1,note_on,66,58,0
1,note_on,72,58,0
1,note_on,72,0,240
1,note_on,66,0,0
1,note_on,62,0,0
1,note_on,66,57,0
1,note_on,72,52,0
1,note_on,66,0,120
1,note_on,62,57,0
1,note_on,62,0,120
1,note_on,72,0,0
1,note_on,62,60,0
1,note_on,67,66,0
1,note_on,71,60,0
1,note_on,71,0,240
1,note_on,67,0,0
1,note_on,62,0,0
1,note_on,62,55,0
1,note_on,67,60,0
1,note_on,71,55,0
1,note_on,67,0,120
1,note_on,62,0,0
1,note_on,66,60,0
1,note_on,66,0,120
1,note_on,71,0,0
1,note_on,62,59,0
1,note_on,67,59,0
1,note_on,71,64,0
1,note_on,71,0,240
1,note_on,67,0,0
1,note_on,62,0,0
1,note_on,71,56,0
1,note_on,67,51,0
1,note_on,74,51,0
1,note_on,67,0,120
1,note_on,71,0,0
1,note_on,70,57,0
1,note_on,70,0,120
1,note_on,74,0,0
1,note_on,67,58,0
1,note_on,71,58,0
1,note_on,74,63,0
1,note_on,74,0,240
1,note_on,71,0,0
1,note_on,67,0,0
1,note_on,71,52,0
1,note_on,74,57,0
1,note_on,79,52,0
1,note_on,74,0,120
1,note_on,71,0,0
1,note_on,73,57,0
1,note_on,73,0,120
1,note_on,79,0,0
1,note_on,74,60,0
1,note_on,79,66,0
1,note_on,83,60,0
1,note_on,83,0,240
1,note_on,79,0,0
1,note_on,74,0,0
1,note_on,74,55,0
1,note_on,79,60,0
1,note_on,83,55,0
1,note_on,79,0,120
1,note_on,74,0,0
1,note_on,78,60,0
1,note_on,78,0,120
1,note_on,83,0,0
1,note_on,74,59,0
1,note_on,79,59,0
1,note_on,83,64,0
1,note_on,83,0,240
1,note_on,79,0,0
1,note_on,74,0,0
1,note_on,83,56,0
1,note_on,79,51,0
1,note_on,86,51,0
1,note_on,79,0,120
1,note_on,83,0,0
1,note_on,82,57,0
1,note_on,82,0,120
1,note_on,86,0,0
1,note_on,79,57,0
1,note_on,83,57,0
1,note_on,86,57,0
1,note_on,86,0,240
1,note_on,83,0,0
1,note_on,79,0,0
1,note_on,83,51,0
1,note_on,86,56,0
1,note_on,91,51,0
1,note_on,86,0,120
1,note_on,83,0,0
1,note_on,85,56,0
1,note_on,85,0,120
1,note_on,91,0,0
1,note_on,83,57,0
1,note_on,86,62,0
1,note_on,91,57,0
1,note_on,91,0,240
1,note_on,86,0,0
1,note_on,83,0,0
1,note_on,83,50,0
1,note_on,86,55,0
1,note_on,91,50,0
1,note_on,86,0,120
1,note_on,83,0,0
1,note_on,82,53,0
1,note_on,82,0,120
1,note_on,91,0,0
1,note_on,83,53,0
1,note_on,86,58,0
1,note_on,91,53,0
1,note_on,91,0,240
1,note_on,86,0,0
1,note_on,83,0,0
1,note_on,83,48,0
1,note_on,86,52,0
1,note_on,91,48,0
1,note_on,86,0,120
1,note_on,83,0,0
1,note_on,82,51,0
1,note_on,82,0,120
1,note_on,91,0,0
1,note_on,83,51,0
1,note_on,86,56,0
1,note_on,91,51,0
1,note_on,91,0,240
1,note_on,86,0,0
1,note_on,83,0,0
1,note_on,83,45,0
1,note_on,86,49,0
1,note_on,91,45,0
1,note_on,86,0,120
1,note_on,83,0,0
1,note_on,82,49,0
1,note_on,82,0,120
1,note_on,91,0,0
1,note_on,83,49,0
1,note_on,86,53,0
1,note_on,91,49,0
1,note_on,91,0,240
1,note_on,86,0,0
1,note_on,83,0,0
1,note_on,83,42,0
1,note_on,86,46,0
1,note_on,91,42,0
1,note_on,86,0,120
1,note_on,83,0,0
1,note_on,82,46,0
1,note_on,82,0,120
1,note_on,91,0,0
1,note_on,83,46,0
1,note_on,86,50,0
1,note_on,91,46,0
1,note_on,91,0,240
1,note_on,86,0,0
1,note_on,83,0,0
1,note_on,83,40,0
1,note_on,86,44,0
1,note_on,91,40,0
1,note_on,86,0,120
1,note_on,83,0,0
1,note_on,82,42,0
1,note_on,82,0,120
1,note_on,91,0,0
1,note_on,83,44,0
1,note_on,86,48,0
1,note_on,91,44,0
1,note_on,91,0,240
1,note_on,86,0,0
1,note_on,83,0,0
1,note_on,83,38,0
1,note_on,86,41,0
1,note_on,91,38,0
1,note_on,86,0,120
1,note_on,83,0,0
1,note_on,82,40,0
1,note_on,82,0,120
1,note_on,91,0,0
1,note_on,83,33,0
1,note_on,86,33,0
1,note_on,91,37,0
1,note_on,91,0,2400
1,note_on,86,0,0
1,note_on,83,0,0
1,note_on,83,81,0
1,note_on,86,81,0
1,note_on,91,92,0
1,note_on,95,92,0
1,note_on,95,0,480
1,note_on,83,0,0
1,note_on,86,0,0
1,note_on,91,0,0
1,note_on,55,99,0
1,note_on,55,0,1440
2,note_on,43,35,0
2,note_on,55,41,0
2,note_on,55,0,165
2,note_on,43,0,0
2,note_on,38,29,0
2,note_on,50,36,0
2,note_on,50,0,240
2,note_on,38,0,0
2,note_on,45,33,0
2,note_on,57,39,0
2,note_on,57,0,149
2,note_on,45,0,0
2,note_on,38,37,0
2,note_on,50,44,0
2,note_on,50,0,240
2,note_on,38,0,0
2,note_on,43,39,0
2,note_on,55,47,0
2,note_on,55,0,160
2,note_on,43,0,0
2,note_on,38,38,0
2,note_on,50,45,0
2,note_on,50,0,240
2,note_on,38,0,0
2,note_on,45,35,0
2,note_on,57,41,0
2,note_on,57,0,137
2,note_on,45,0,0
2,note_on,38,33,0
2,note_on,50,39,0
2,note_on,50,0,240
2,note_on,38,0,0
2,note_on,43,35,0
2,note_on,55,41,0
2,note_on,50,44,113
2,note_on,50,0,120
2,note_on,52,44,0
2,note_on,52,0,120
2,note_on,50,47,0
2,note_on,50,0,115
2,note_on,50,44,120
2,note_on,50,0,120
2,note_on,55,0,120
2,note_on,43,0,0
2,note_on,43,35,0
2,note_on,57,41,0
2,note_on,50,41,204
2,note_on,50,0,240
2,note_on,57,0,0
2,note_on,43,0,0
2,note_on,43,41,0
2,note_on,59,41,0
2,note_on,50,44,155
2,note_on,50,0,120
2,note_on,52,44,0
2,note_on,52,0,120
2,note_on,50,47,0
2,note_on,50,0,114
2,note_on,50,44,120
2,note_on,50,0,120
2,note_on,59,0,120
2,note_on,43,0,0
2,note_on,43,35,0
2,note_on,57,41,0
2,note_on,50,36,176
2,note_on,50,0,240
2,note_on,57,0,0
2,note_on,43,0,0
2,note_on,43,30,0
2,note_on,55,37,0
2,note_on,50,39,155
2,note_on,50,0,120
2,note_on,52,39,0
2,note_on,52,0,120
2,note_on,50,41,0
2,note_on,50,0,106
2,note_on,50,39,120
2,note_on,50,0,84
2,note_on,55,0,120
2,note_on,43,0,0
2,note_on,43,37,0
2,note_on,54,37,0
2,note_on,50,37,155
2,note_on,50,0,240
2,note_on,54,0,0
2,note_on,43,0,0
2,note_on,43,35,0
2,note_on,55,41,0
2,note_on,50,44,120
2,note_on,50,0,120
2,note_on,52,44,0
2,note_on,52,0,120
2,note_on,50,47,0
2,note_on,50,0,104
2,note_on,50,44,120
2,note_on,50,0,120
2,note_on,55,0,120
2,note_on,43,0,0
2,note_on,43,37,0
2,note_on,57,41,0
2,note_on,50,41,204
2,note_on,50,0,240
2,note_on,57,0,0
2,note_on,43,0,0
2,note_on,43,38,0
2,note_on,55,46,0
2,note_on,50,48,155
2,note_on,50,0,120
2,note_on,52,48,0
2,note_on,52,0,120
2,note_on,50,50,0
2,note_on,50,0,106
2,note_on,50,48,120
2,note_on,50,0,120
2,note_on,55,0,120
2,note_on,43,0,0
2,note_on,43,35,0
2,note_on,57,41,0
2,note_on,50,41,134
2,note_on,50,0,240
2,note_on,57,0,0
2,note_on,43,0,0
2,note_on,43,41,0
2,note_on,59,41,0
2,note_on,50,44,155
2,note_on,50,0,120
2,note_on,52,44,0
2,note_on,52,0,120
2,note_on,50,47,0
2,note_on,50,0,109
2,note_on,50,44,120
2,note_on,50,0,120
2,note_on,59,0,120
2,note_on,43,0,0
2,note_on,43,35,0
2,note_on,57,41,0
2,note_on,50,36,180
2,note_on,50,0,240
2,note_on,57,0,0
2,note_on,43,0,0
2,note_on,43,30,0
2,note_on,55,37,0
2,note_on,50,39,106
2,note_on,50,0,120
2,note_on,52,39,0
2,note_on,52,0,120
2,note_on,50,41,0
2,note_on,50,0,110
2,note_on,50,39,120
2,note_on,50,0,92
2,note_on,55,0,120
2,note_on,43,0,0
2,note_on,43,37,0
2,note_on,54,37,0
2,note_on,50,37,162
2,note_on,50,0,240
2,note_on,54,0,0
2,note_on,43,0,0
2,note_on,43,35,0
2,note_on,55,41,0
2,note_on,50,44,127
2,note_on,50,0,120
2,note_on,52,44,0
2,note_on,52,0,120
2,note_on,50,47,0
2,note_on,50,0,110
2,note_on,50,44,120
2,note_on,50,0,120
2,note_on,55,0,21
2,note_on,43,0,0
2,note_on,43,35,0
2,note_on,57,41,0
2,note_on,50,41,240
2,note_on,50,0,240
2,note_on,57,0,0
2,note_on,43,0,0
2,note_on,43,39,0
2,note_on,58,48,0
2,note_on,50,49,155
2,note_on,50,0,120
2,note_on,51,49,0
2,note_on,51,0,120
2,note_on,50,52,0
2,note_on,50,0,103
2,note_on,50,49,120
2,note_on,50,0,120
2,note_on,58,0,120
2,note_on,43,0,0
2,note_on,41,36,0
2,note_on,63,44,0
2,note_on,53,44,194
2,note_on,53,0,240
2,note_on,63,0,0
2,note_on,41,0,0
2,note_on,46,44,0
2,note_on,62,44,0
2,note_on,53,46,155
2,note_on,53,0,120
2,note_on,55,46,0
2,note_on,55,0,120
2,note_on,53,49,0
2,note_on,53,0,103
2,note_on,53,46,120
2,note_on,53,0,120
2,note_on,62,0,120
2,note_on,46,0,0
2,note_on,46,36,0
2,note_on,63,44,0
2,note_on,53,37,188
2,note_on,53,0,240
2,note_on,63,0,0
2,note_on,46,0,0
2,note_on,46,36,0
2,note_on,62,44,0
2,note_on,53,46,155
2,note_on,53,0,120
2,note_on,55,46,0
2,note_on,55,0,120
2,note_on,53,49,0
2,note_on,53,0,103
2,note_on,53,46,120
2,note_on,53,0,120
2,note_on,62,0,120
2,note_on,46,0,0
2,note_on,46,36,0
2,note_on,63,44,0
2,note_on,53,44,183
2,note_on,53,0,240
2,note_on,63,0,0
2,note_on,46,0,0
2,note_on,46,36,0
2,note_on,62,44,0
2,note_on,53,46,155
2,note_on,53,0,120
2,note_on,55,46,0
2,note_on,55,0,120
2,note_on,53,49,0
2,note_on,53,0,103
2,note_on,53,46,120
2,note_on,53,0,120
2,note_on,62,0,120
2,note_on,46,0,0
2,note_on,46,40,0
2,note_on,63,40,0
2,note_on,53,38,194
2,note_on,53,0,240
2,note_on,63,0,0
2,note_on,46,0,0
2,note_on,46,35,0
2,note_on,62,42,0
2,note_on,53,39,155
2,note_on,53,0,120
2,note_on,55,39,0
2,note_on,55,0,120
2,note_on,53,44,0
2,note_on,53,0,108
2,note_on,53,39,120
2,note_on,53,0,120
2,note_on,62,0,120
2,note_on,46,0,0
2,note_on,45,31,0
2,note_on,57,39,0
2,note_on,57,0,194
2,note_on,50,39,0
2,note_on,50,0,240
2,note_on,45,0,0
2,note_on,43,35,0
2,note_on,55,42,0
2,note_on,55,0,155
2,note_on,55,39,0
2,note_on,55,0,120
2,note_on,56,39,0
2,note_on,56,0,120
2,note_on,55,44,0
2,note_on,55,0,104
2,note_on,55,39,120
2,note_on,55,0,120
2,note_on,43,0,120
2,note_on,48,31,0
2,note_on,55,39,0
2,note_on,55,0,194
2,note_on,57,39,0
2,note_on,57,0,240
2,note_on,48,0,0
2,note_on,50,35,0
2,note_on,59,42,0
2,note_on,59,0,155
2,note_on,62,39,0
2,note_on,62,0,120
2,note_on,64,39,0
2,note_on,64,0,120
2,note_on,62,44,0
2,note_on,62,0,35
2,note_on,62,39,120
2,note_on,62,0,120
2,note_on,50,0,120
2,note_on,50,31,0
2,note_on,60,39,0
2,note_on,60,0,134
2,note_on,60,37,0
2,note_on,60,0,240
2,note_on,50,0,0
2,note_on,43,35,0
2,note_on,59,41,0
2,note_on,59,0,148
2,note_on,43,0,0
2,note_on,38,29,0
2,note_on,50,36,0
2,note_on,50,0,240
2,note_on,38,0,0
2,note_on,45,33,0
2,note_on,57,39,0
2,note_on,57,0,160
2,note_on,45,0,0
2,note_on,38,37,0
2,note_on,50,44,0
2,note_on,50,0,240
2,note_on,38,0,0
2,note_on,43,39,0
2,note_on,55,47,0
2,note_on,55,0,143
2,note_on,43,0,0
2,note_on,38,38,0
2,note_on,50,45,0
2,note_on,50,0,240
2,note_on,38,0,0
2,note_on,45,35,0
2,note_on,57,41,0
2,note_on,57,0,149
2,note_on,45,0,0
2,note_on,38,33,0
2,note_on,50,39,0
2,note_on,50,0,240
2,note_on,38,0,0
2,note_on,43,39,0
2,note_on,55,47,0
2,note_on,55,0,17
2,note_on,43,0,0
2,note_on,55,47,360
2,note_on,55,0,57
2,note_on,62,41,360
2,note_on,62,0,45
2,note_on,67,47,360
2,note_on,67,0,63
2,note_on,71,47,360
2,note_on,71,0,45
2,note_on,74,41,360
2,note_on,74,0,40
2,note_on,79,41,360
2,note_on,79,0,34
2,note_on,79,39,360
2,note_on,79,0,17
2,note_on,79,38,360
2,note_on,79,0,17
2,note_on,79,36,360
2,note_on,79,0,28
2,note_on,79,34,360
2,note_on,79,0,34
2,note_on,79,31,360
2,note_on,79,0,74
2,note_on,79,31,360
2,note_on,79,0,84
2,note_on,43,49,0
2,note_on,43,0,120
2,note_on,43,42,0
2,note_on,43,0,120
2,note_on,43,49,0
2,note_on,43,0,120
2,note_on,43,42,0
2,note_on,43,0,120
2,note_on,43,49,0
2,note_on,43,0,120
2,note_on,43,42,0
2,note_on,43,0,120
2,note_on,43,49,0
2,note_on,43,0,120
2,note_on,43,42,0
2,note_on,43,0,120
2,note_on,43,49,0
2,note_on,43,0,120
2,note_on,43,42,0
2,note_on,43,0,120
2,note_on,43,49,0
2,note_on,43,0,240
2,note_on,43,42,0
2,note_on,43,0,120
2,note_on,43,42,0
2,note_on,43,0,120
2,note_on,43,45,0
2,note_on,43,0,240
2,note_on,43,40,0
2,note_on,43,0,120
2,note_on,43,40,0
2,note_on,43,0,120
2,note_on,43,44,0
2,note_on,43,0,240
2,note_on,43,38,0
2,note_on,43,0,240
2,note_on,39,48,0
2,note_on,51,58,0
2,note_on,46,56,155
2,note_on,46,0,120
2,note_on,48,56,0
2,note_on,48,0,120
2,note_on,46,59,0
2,note_on,46,0,103
2,note_on,46,56,120
2,note_on,46,0,120
2,note_on,51,0,120
2,note_on,39,0,0
2,note_on,39,44,0
2,note_on,53,53,0
2,note_on,46,53,155
2,note_on,46,0,240
2,note_on,53,0,0
2,note_on,39,0,0
2,note_on,39,53,0
2,note_on,55,53,0
2,note_on,46,56,155
2,note_on,46,0,120
2,note_on,48,56,0
2,note_on,48,0,120
2,note_on,46,59,0
2,note_on,46,0,109
2,note_on,46,56,120
2,note_on,46,0,120
2,note_on,55,0,120
2,note_on,39,0,0
2,note_on,39,44,0
2,note_on,53,53,0
2,note_on,46,46,183
2,note_on,46,0,240
2,note_on,53,0,0
2,note_on,39,0,0
2,note_on,39,39,0
2,note_on,51,47,0
2,note_on,46,50,155
2,note_on,46,0,120
2,note_on,48,50,0
2,note_on,48,0,120
2,note_on,46,53,0
2,note_on,46,0,113
2,note_on,46,44,120
2,note_on,46,0,106
2,note_on,51,0,120
2,note_on,39,0,0
2,note_on,39,41,0
2,note_on,50,41,0
2,note_on,46,41,155
2,note_on,46,0,240
2,note_on,50,0,0
2,note_on,39,0,0
2,note_on,39,39,0
2,note_on,51,47,0
2,note_on,46,49,120
2,note_on,46,0,120
2,note_on,48,49,0
2,note_on,48,0,120
2,note_on,46,52,0
2,note_on,46,0,111
2,note_on,46,49,120
2,note_on,46,0,120
2,note_on,51,0,120
2,note_on,39,0,0
2,note_on,39,41,0
2,note_on,53,47,0
2,note_on,46,47,155
2,note_on,46,0,240
2,note_on,53,0,0
2,note_on,39,0,0
2,note_on,39,48,0
2,note_on,51,58,0
2,note_on,46,56,120
2,note_on,46,0,120
2,note_on,48,56,0
2,note_on,48,0,120
2,note_on,46,59,0
2,note_on,46,0,99
2,note_on,46,56,120
2,note_on,46,0,120
2,note_on,51,0,120
2,note_on,39,0,0
2,note_on,39,44,0
2,note_on,53,53,0
2,note_on,46,53,183
2,note_on,46,0,240
2,note_on,53,0,0
2,note_on,39,0,0
2,note_on,39,53,0
2,note_on,55,53,0
2,note_on,46,56,155
2,note_on,46,0,120
2,note_on,48,56,0
2,note_on,48,0,120
2,note_on,46,59,0
2,note_on,46,0,105
2,note_on,46,56,120
2,note_on,46,0,120
2,note_on,55,0,120
2,note_on,39,0,0
2,note_on,39,41,0
2,note_on,51,50,0
2,note_on,45,39,194
2,note_on,45,0,240
2,note_on,51,0,0
2,note_on,39,0,0
2,note_on,38,34,0
2,note_on,50,39,0
2,note_on,45,42,92
2,note_on,45,0,120
2,note_on,47,42,0
2,note_on,47,0,120
2,note_on,45,46,0
2,note_on,45,0,113
2,note_on,45,39,120
2,note_on,45,0,92
2,note_on,50,0,120
2,note_on,38,0,0
2,note_on,38,37,0
2,note_on,52,37,0
2,note_on,45,37,155
2,note_on,45,0,240
2,note_on,52,0,0
2,note_on,38,0,0
2,note_on,38,36,0
2,note_on,50,42,0
2,note_on,45,46,120
2,note_on,45,0,120
2,note_on,47,46,0
2,note_on,47,0,120
2,note_on,45,49,0
2,note_on,45,0,106
2,note_on,45,47,120
2,note_on,45,0,120
2,note_on,50,0,120
2,note_on,38,0,0
2,note_on,38,39,0
2,note_on,52,45,0
2,note_on,45,46,190
2,note_on,45,0,240
2,note_on,52,0,0
2,note_on,38,0,0
2,note_on,38,48,0
2,note_on,50,58,0
2,note_on,45,56,120
2,note_on,45,0,120
2,note_on,47,56,0
2,note_on,47,0,120
2,note_on,45,59,0
2,note_on,45,0,101
2,note_on,45,56,120
2,note_on,45,0,120
2,note_on,50,0,120
2,note_on,38,0,0
2,note_on,38,44,0
2,note_on,52,53,0
2,note_on,45,53,169
2,note_on,45,0,240
2,note_on,52,0,0
2,note_on,38,0,0
2,note_on,38,53,0
2,note_on,54,53,0
2,note_on,45,56,155
2,note_on,45,0,120
2,note_on,47,56,0
2,note_on,47,0,120
2,note_on,45,59,0
2,note_on,45,0,109
2,note_on,45,56,120
2,note_on,45,0,120
2,note_on,54,0,120
2,note_on,38,0,0
2,note_on,38,44,0
2,note_on,52,53,0
2,note_on,45,46,201
2,note_on,45,0,240
2,note_on,52,0,0
2,note_on,38,0,0
2,note_on,38,39,0
2,note_on,50,47,0
2,note_on,45,50,106
2,note_on,45,0,120
2,note_on,47,50,0
2,note_on,47,0,120
2,note_on,45,53,0
2,note_on,45,0,106
2,note_on,45,44,120
2,note_on,45,0,92
2,note_on,50,0,120
2,note_on,38,0,0
2,note_on,38,41,0
2,note_on,52,41,0
2,note_on,45,41,155
2,note_on,45,0,240
2,note_on,52,0,0
2,note_on,38,0,0
2,note_on,38,39,0
2,note_on,50,47,0
2,note_on,45,49,113
2,note_on,45,0,120
2,note_on,47,49,0
2,note_on,47,0,120
2,note_on,45,52,0
2,note_on,45,0,99
2,note_on,45,49,120
2,note_on,45,0,120
2,note_on,50,0,120
2,note_on,38,0,0
2,note_on,38,41,0
2,note_on,52,47,0
2,note_on,45,47,197
2,note_on,45,0,240
2,note_on,52,0,0
2,note_on,38,0,0
2,note_on,38,52,0
2,note_on,50,63,0
2,note_on,45,60,120
2,note_on,45,0,120
2,note_on,47,60,0
2,note_on,47,0,120
2,note_on,45,64,0
2,note_on,45,0,102
2,note_on,45,60,120
2,note_on,45,0,120
2,note_on,50,0,120
2,note_on,38,0,0
2,note_on,40,48,0
2,note_on,52,58,0
2,note_on,45,58,183
2,note_on,45,0,240
2,note_on,52,0,0
2,note_on,40,0,0
2,note_on,42,58,0
2,note_on,54,58,0
2,note_on,45,60,106
2,note_on,45,0,120
2,note_on,47,60,0
2,note_on,47,0,120
2,note_on,45,64,0
2,note_on,45,0,102
2,note_on,45,60,120
2,note_on,45,0,35
2,note_on,54,0,120
2,note_on,42,0,0
2,note_on,40,48,0
2,note_on,52,58,0
2,note_on,45,50,240
2,note_on,45,0,240
2,note_on,52,0,0
2,note_on,40,0,0
2,note_on,42,58,0
2,note_on,54,58,0
2,note_on,45,60,155
2,note_on,45,0,120
2,note_on,47,60,0
2,note_on,47,0,120
2,note_on,45,64,0
2,note_on,45,0,99
2,note_on,45,61,120
2,note_on,45,0,120
2,note_on,54,0,120
2,note_on,42,0,0
2,note_on,39,48,0
2,note_on,51,58,0
2,note_on,45,46,169
2,note_on,45,0,240
2,note_on,51,0,0
2,note_on,39,0,0
2,note_on,63,33,0
2,note_on,63,0,88
2,note_on,65,35,30
2,note_on,65,0,90
2,note_on,67,37,30
2,note_on,67,0,90
2,note_on,69,38,30
2,note_on,69,0,90
2,note_on,67,40,30
2,note_on,67,0,90
2,note_on,69,38,30
2,note_on,69,0,90
2,note_on,67,38,30
2,note_on,67,0,90
2,note_on,65,38,30
2,note_on,65,0,90
2,note_on,63,40,30
2,note_on,63,0,90
2,note_on,65,37,30
2,note_on,65,0,90
2,note_on,63,37,30
2,note_on,63,0,90
2,note_on,62,37,30
2,note_on,62,0,90
2,note_on,60,34,30
2,note_on,60,0,90
2,note_on,62,36,30
2,note_on,62,0,90
2,note_on,63,37,30
2,note_on,63,0,90
2,note_on,65,38,30
2,note_on,65,0,90
2,note_on,63,40,30
2,note_on,63,0,90
2,note_on,65,37,30
2,note_on,65,0,90
2,note_on,63,37,30
2,note_on,63,0,90
2,note_on,62,37,30
2,note_on,62,0,90
2,note_on,60,40,30
2,note_on,60,0,90
2,note_on,62,37,30
2,note_on,62,0,90
2,note_on,60,37,30
2,note_on,60,0,90
2,note_on,58,37,30
2,note_on,58,0,90
2,note_on,57,36,30
2,note_on,57,0,90
2,note_on,58,37,30
2,note_on,58,0,90
2,note_on,60,38,30
2,note_on,60,0,90
2,note_on,62,40,30
2,note_on,62,0,90
2,note_on,63,40,30
2,note_on,63,0,90
2,note_on,62,38,30
2,note_on,62,0,90
2,note_on,60,38,30
2,note_on,60,0,90
2,note_on,58,38,30
2,note_on,58,0,90
2,note_on,57,40,30
2,note_on,57,0,90
2,note_on,58,38,30
2,note_on,58,0,90
2,note_on,57,38,30
2,note_on,57,0,90
2,note_on,55,38,30
2,note_on,55,0,90
2,note_on,38,58,30
2,note_on,50,69,0
2,note_on,50,0,114
2,note_on,38,0,0
2,note_on,62,69,0
2,note_on,50,58,0
2,note_on,50,0,240
2,note_on,62,0,0
2,note_on,45,60,0
2,note_on,57,72,0
2,note_on,57,0,240
2,note_on,45,0,0
2,note_on,42,58,0
2,note_on,54,69,0
2,note_on,54,0,240
2,note_on,42,0,0
2,note_on,37,68,0
2,note_on,49,81,0
2,note_on,49,0,103
2,note_on,37,0,0
2,note_on,49,58,0
2,note_on,55,58,0
2,note_on,61,69,0
2,note_on,61,0,240
2,note_on,55,0,0
2,note_on,49,0,0
2,note_on,38,58,0
2,note_on,50,69,0
2,note_on,50,0,80
2,note_on,38,0,0
2,note_on,62,69,0
2,note_on,50,58,0
2,note_on,50,0,240
2,note_on,62,0,0
2,note_on,45,60,0
2,note_on,57,72,0
2,note_on,57,0,240
2,note_on,45,0,0
2,note_on,42,58,0
2,note_on,54,69,0
2,note_on,54,0,240
2,note_on,42,0,0
2,note_on,37,68,0
2,note_on,49,81,0
2,note_on,49,0,34
2,note_on,37,0,0
2,note_on,49,58,0
2,note_on,55,58,0
2,note_on,61,69,0
2,note_on,61,0,240
2,note_on,55,0,0
2,note_on,49,0,0
2,note_on,38,51,0
2,note_on,50,61,0
2,note_on,50,0,160
2,note_on,38,0,0
2,note_on,33,44,0
2,note_on,45,52,0
2,note_on,45,0,240
2,note_on,33,0,0
2,note_on,40,48,0
2,note_on,52,58,0
2,note_on,52,0,131
2,note_on,40,0,0
2,note_on,33,53,0
2,note_on,45,64,0
2,note_on,45,0,240
2,note_on,33,0,0
2,note_on,38,57,0
2,note_on,50,68,0
2,note_on,50,0,131
2,note_on,38,0,0
2,note_on,33,55,0
2,note_on,45,66,0
2,note_on,45,0,240
2,note_on,33,0,0
2,note_on,40,51,0
2,note_on,52,61,0
2,note_on,52,0,154
2,note_on,40,0,0
2,note_on,33,48,0
2,note_on,45,57,0
2,note_on,45,0,240
2,note_on,33,0,0
2,note_on,38,57,0
2,note_on,38,0,56
2,note_on,50,60,0
2,note_on,50,0,120
2,note_on,50,61,0
2,note_on,50,0,120
2,note_on,50,61,0
2,note_on,50,0,120
2,note_on,50,62,0
2,note_on,50,0,120
2,note_on,50,63,0
2,note_on,50,0,120
2,note_on,50,64,0
2,note_on,50,0,120
2,note_on,50,66,0
2,note_on,50,0,120
2,note_on,50,67,0
2,note_on,50,0,120
2,note_on,50,68,0
2,note_on,50,0,120
2,note_on,50,68,0
2,note_on,50,0,120
2,note_on,38,57,0
2,note_on,50,68,0
2,note_on,50,0,120
2,note_on,38,0,0
2,note_on,38,52,0
2,note_on,50,62,0
2,note_on,50,0,120
2,note_on,38,0,0
2,note_on,38,52,0
2,note_on,50,62,0
2,note_on,50,0,120
2,note_on,38,0,0
2,note_on,38,57,0
2,note_on,50,68,0
2,note_on,50,0,240
2,note_on,38,0,0
2,note_on,38,51,0
2,note_on,50,61,0
2,note_on,50,0,120
2,note_on,38,0,0
2,note_on,38,51,0
2,note_on,50,61,0
2,note_on,50,0,120
2,note_on,38,0,0
2,note_on,38,57,0
2,note_on,50,68,0
2,note_on,50,0,240
2,note_on,38,0,0
2,note_on,38,51,0
2,note_on,50,61,0
2,note_on,50,0,120
2,note_on,38,0,0
2,note_on,38,51,0
2,note_on,50,61,0
2,note_on,50,0,120
2,note_on,38,0,0
2,note_on,43,57,0
2,note_on,50,57,7
2,note_on,55,68,15
2,note_on,55,0,162
2,note_on,50,0,0
2,note_on,43,0,0
2,note_on,38,39,0
2,note_on,50,47,0
2,note_on,50,0,240
2,note_on,38,0,0
2,note_on,45,42,0
2,note_on,57,51,0
2,note_on,57,0,113
2,note_on,45,0,0
2,note_on,38,46,0
2,note_on,50,55,0
2,note_on,50,0,240
2,note_on,38,0,0
2,note_on,43,48,0
2,note_on,55,58,0
2,note_on,55,0,165
2,note_on,43,0,0
2,note_on,38,45,0
2,note_on,50,52,0
2,note_on,50,0,240
2,note_on,38,0,0
2,note_on,45,40,0
2,note_on,57,48,0
2,note_on,57,0,137
2,note_on,45,0,0
2,note_on,38,37,0
2,note_on,50,44,0
2,note_on,50,0,240
2,note_on,38,0,0
2,note_on,43,39,0
2,note_on,55,47,0
2,note_on,50,49,113
2,note_on,50,0,120
2,note_on,52,49,0
2,note_on,52,0,120
2,note_on,50,52,0
2,note_on,50,0,104
2,note_on,50,49,120
2,note_on,50,0,120
2,note_on,55,0,120
2,note_on,43,0,0
2,note_on,43,39,0
2,note_on,57,47,0
2,note_on,50,47,169
2,note_on,50,0,240
2,note_on,57,0,0
2,note_on,43,0,0
2,note_on,43,47,0
2,note_on,59,47,0
2,note_on,50,49,155
2,note_on,50,0,120
2,note_on,52,49,0
2,note_on,52,0,120
2,note_on,50,52,0
2,note_on,50,0,113
2,note_on,50,49,120
2,note_on,50,0,120
2,note_on,59,0,120
2,note_on,43,0,0
2,note_on,43,39,0
2,note_on,57,47,0
2,note_on,50,40,176
2,note_on,50,0,240
2,note_on,57,0,0
2,note_on,43,0,0
2,note_on,43,35,0
2,note_on,55,41,0
2,note_on,50,44,155
2,note_on,50,0,120
2,note_on,52,44,0
2,note_on,52,0,120
2,note_on,50,47,0
2,note_on,50,0,104
2,note_on,50,44,120
2,note_on,50,0,120
2,note_on,55,0,120
2,note_on,43,0,0
2,note_on,43,41,0
2,note_on,54,41,0
2,note_on,50,41,197
2,note_on,50,0,240
2,note_on,54,0,0
2,note_on,43,0,0
2,note_on,43,39,0
2,note_on,55,47,0
2,note_on,50,49,120
2,note_on,50,0,120
2,note_on,52,49,0
2,note_on,52,0,120
2,note_on,50,52,0
2,note_on,50,0,103
2,note_on,50,49,120
2,note_on,50,0,120
2,note_on,55,0,120
2,note_on,43,0,0
2,note_on,43,41,0
2,note_on,57,47,0
2,note_on,50,47,169
2,note_on,50,0,240
2,note_on,57,0,0
2,note_on,43,0,0
2,note_on,43,42,0
2,note_on,55,51,0
2,note_on,50,53,99
2,note_on,50,0,120
2,note_on,52,53,0
2,note_on,52,0,120
2,note_on,50,57,0
2,note_on,50,0,113
2,note_on,50,53,120
2,note_on,50,0,120
2,note_on,55,0,120
2,note_on,43,0,0
2,note_on,43,39,0
2,note_on,57,47,0
2,note_on,50,47,176
2,note_on,50,0,240
2,note_on,57,0,0
2,note_on,43,0,0
2,note_on,43,47,0
2,note_on,59,47,0
2,note_on,50,49,155
2,note_on,50,0,120
2,note_on,52,49,0
2,note_on,52,0,120
2,note_on,50,52,0
2,note_on,50,0,111
2,note_on,50,49,120
2,note_on,50,0,120
2,note_on,59,0,120
2,note_on,43,0,0
2,note_on,43,39,0
2,note_on,57,47,0
2,note_on,50,40,201
2,note_on,50,0,240
2,note_on,57,0,0
2,note_on,43,0,0
2,note_on,43,35,0
2,note_on,55,41,0
2,note_on,50,44,155
2,note_on,50,0,120
2,note_on,52,44,0
2,note_on,52,0,120
2,note_on,50,47,0
2,note_on,50,0,101
2,note_on,50,44,120
2,note_on,50,0,113
2,note_on,55,0,120
2,note_on,43,0,0
2,note_on,43,41,0
2,note_on,54,41,0
2,note_on,50,41,92
2,note_on,50,0,240
2,note_on,54,0,0
2,note_on,43,0,0
2,note_on,43,39,0
2,note_on,55,47,0
2,note_on,50,49,70
2,note_on,50,0,120
2,note_on,52,49,0
2,note_on,52,0,120
2,note_on,50,52,0
2,note_on,50,0,106
2,note_on,50,49,120
2,note_on,50,0,120
2,note_on,55,0,120
2,note_on,43,0,0
2,note_on,43,39,0
2,note_on,57,47,0
2,note_on,50,47,162
2,note_on,50,0,240
2,note_on,57,0,0
2,note_on,43,0,0
2,note_on,43,44,0
2,note_on,58,53,0
2,note_on,50,56,114
2,note_on,50,0,120
2,note_on,51,56,0
2,note_on,51,0,120
2,note_on,50,59,0
2,note_on,50,0,111
2,note_on,50,56,120
2,note_on,50,0,120
2,note_on,58,0,120
2,note_on,43,0,0
2,note_on,41,40,0
2,note_on,63,49,0
2,note_on,53,49,194
2,note_on,53,0,240
2,note_on,63,0,0
2,note_on,41,0,0
2,note_on,46,49,0
2,note_on,62,49,0
2,note_on,53,51,120
2,note_on,53,0,120
2,note_on,55,51,0
2,note_on,55,0,120
2,note_on,53,55,0
2,note_on,53,0,103
2,note_on,53,51,120
2,note_on,53,0,120
2,note_on,62,0,120
2,note_on,46,0,0
2,note_on,46,40,0
2,note_on,63,49,0
2,note_on,53,41,154
2,note_on,53,0,240
2,note_on,63,0,0
2,note_on,46,0,0
2,note_on,46,40,0
2,note_on,62,49,0
2,note_on,53,51,155
2,note_on,53,0,120
2,note_on,55,51,0
2,note_on,55,0,120
2,note_on,53,55,0
2,note_on,53,0,99
2,note_on,53,51,120
2,note_on,53,0,120
2,note_on,62,0,120
2,note_on,46,0,0
2,note_on,46,40,0
2,note_on,63,49,0
2,note_on,53,49,183
2,note_on,53,0,240
2,note_on,63,0,0
2,note_on,46,0,0
2,note_on,46,40,0
2,note_on,62,49,0
2,note_on,53,51,108
2,note_on,53,0,120
2,note_on,55,51,0
2,note_on,55,0,120
2,note_on,53,55,0
2,note_on,53,0,96
2,note_on,53,51,120
2,note_on,53,0,120
2,note_on,62,0,120
2,note_on,46,0,0
2,note_on,46,46,0
2,note_on,63,46,0
2,note_on,53,42,171
2,note_on,53,0,240
2,note_on,63,0,0
2,note_on,46,0,0
2,note_on,46,39,0
2,note_on,62,48,0
2,note_on,53,44,155
2,note_on,53,0,120
2,note_on,55,44,0
2,note_on,55,0,120
2,note_on,53,49,0
2,note_on,53,0,103
2,note_on,53,45,120
2,note_on,53,0,120
2,note_on,62,0,120
2,note_on,46,0,0
2,note_on,45,36,0
2,note_on,57,44,0
2,note_on,57,0,194
2,note_on,50,44,0
2,note_on,50,0,240
2,note_on,45,0,0
2,note_on,43,39,0
2,note_on,55,48,0
2,note_on,55,0,155
2,note_on,55,44,0
2,note_on,55,0,120
2,note_on,56,44,0
2,note_on,56,0,120
2,note_on,55,49,0
2,note_on,55,0,104
2,note_on,55,45,120
2,note_on,55,0,120
2,note_on,43,0,120
2,note_on,48,36,0
2,note_on,55,44,0
2,note_on,55,0,194
2,note_on,57,44,0
2,note_on,57,0,240
2,note_on,48,0,0
2,note_on,50,39,0
2,note_on,59,48,0
2,note_on,59,0,155
2,note_on,62,44,0
2,note_on,62,0,120
2,note_on,64,44,0
2,note_on,64,0,120
2,note_on,62,49,0
2,note_on,62,0,107
2,note_on,62,45,120
2,note_on,62,0,120
2,note_on,50,0,120
2,note_on,50,36,0
2,note_on,60,44,0
2,note_on,60,0,134
2,note_on,60,41,0
2,note_on,60,0,240
2,note_on,50,0,0
2,note_on,43,39,0
2,note_on,59,47,0
2,note_on,59,0,137
2,note_on,43,0,0
2,note_on,38,34,0
2,note_on,50,40,0
2,note_on,50,0,240
2,note_on,38,0,0
2,note_on,45,37,0
2,note_on,57,45,0
2,note_on,57,0,120
2,note_on,45,0,0
2,note_on,38,41,0
2,note_on,50,49,0
2,note_on,50,0,240
2,note_on,38,0,0
2,note_on,43,44,0
2,note_on,55,52,0
2,note_on,55,0,165
2,note_on,43,0,0
2,note_on,38,42,0
2,note_on,50,50,0
2,note_on,50,0,240
2,note_on,38,0,0
2,note_on,45,39,0
2,note_on,57,47,0
2,note_on,57,0,137
2,note_on,45,0,0
2,note_on,38,37,0
2,note_on,50,44,0
2,note_on,50,0,240
2,note_on,38,0,0
2,note_on,43,44,0
2,note_on,55,52,0
2,note_on,55,0,5
2,note_on,43,0,0
2,note_on,55,52,360
2,note_on,55,0,45
2,note_on,62,47,360
2,note_on,62,0,23
2,note_on,67,52,360
2,note_on,67,0,23
2,note_on,71,52,360
2,note_on,71,0,40
2,note_on,74,47,360
2,note_on,74,0,28
2,note_on,79,47,360
2,note_on,79,0,28
2,note_on,79,45,360
2,note_on,79,0,23
2,note_on,79,42,360
2,note_on,79,0,34
2,note_on,79,40,360
2,note_on,79,0,40
2,note_on,79,38,360
2,note_on,79,0,17
2,note_on,79,36,360
2,note_on,79,0,40
2,note_on,79,34,360
2,note_on,79,0,84
2,note_on,43,45,0
2,note_on,43,0,120
2,note_on,43,39,0
2,note_on,43,0,120
2,note_on,43,45,0
2,note_on,43,0,120
2,note_on,43,39,0
2,note_on,43,0,120
2,note_on,43,45,0
2,note_on,43,0,120
2,note_on,43,39,0
2,note_on,43,0,120
2,note_on,43,45,0
2,note_on,43,0,120
2,note_on,43,39,0
2,note_on,43,0,120
2,note_on,43,45,0
2,note_on,43,0,120
2,note_on,43,39,0
2,note_on,43,0,120
2,note_on,43,45,0
2,note_on,43,0,240
2,note_on,43,39,0
2,note_on,43,0,120
2,note_on,43,39,0
2,note_on,43,0,120
2,note_on,43,41,0
2,note_on,43,0,240
2,note_on,43,37,0
2,note_on,43,0,120
2,note_on,43,37,0
2,note_on,43,0,120
2,note_on,43,40,0
2,note_on,43,0,240
2,note_on,43,35,0
2,note_on,43,0,240
2,note_on,43,40,0
2,note_on,43,0,240
2,note_on,60,42,1426
2,note_on,60,0,240
2,note_on,62,47,0
2,note_on,62,0,141
2,note_on,63,44,0
2,note_on,63,0,240
2,note_on,65,42,0
2,note_on,65,0,240
2,note_on,68,46,0
2,note_on,68,0,240
2,note_on,72,51,0
2,note_on,72,0,522
2,note_on,70,44,0
2,note_on,70,0,120
2,note_on,68,45,0
2,note_on,68,0,120
2,note_on,67,42,0
2,note_on,67,0,120
2,note_on,65,45,0
2,note_on,65,0,21
2,note_on,67,42,0
2,note_on,67,0,120
2,note_on,68,44,0
2,note_on,68,0,120
2,note_on,65,41,0
2,note_on,65,0,120
2,note_on,67,48,0
2,note_on,67,0,35
2,note_on,68,44,0
2,note_on,68,0,120
2,note_on,67,46,0
2,note_on,67,0,120
2,note_on,65,39,0
2,note_on,65,0,120
2,note_on,63,44,0
2,note_on,63,0,35
2,note_on,65,41,0
2,note_on,65,0,120
2,note_on,63,42,0
2,note_on,63,0,120
2,note_on,62,38,0
2,note_on,62,0,120
2,note_on,60,44,0
2,note_on,60,0,56
2,note_on,62,40,0
2,note_on,62,0,120
2,note_on,63,44,0
2,note_on,63,0,120
2,note_on,67,40,0
2,note_on,67,0,120
2,note_on,67,44,0
2,note_on,67,0,233
2,note_on,41,44,0
2,note_on,41,0,141
2,note_on,60,38,0
2,note_on,62,38,0
2,note_on,68,44,0
2,note_on,68,0,240
2,note_on,65,44,0
2,note_on,65,0,120
2,note_on,63,39,0
2,note_on,63,0,120
2,note_on,62,45,0
2,note_on,62,0,120
2,note_on,63,40,0
2,note_on,63,0,120
2,note_on,65,40,0
2,note_on,65,0,120
2,note_on,68,40,0
2,note_on,68,0,120
2,note_on,62,0,0
2,note_on,60,0,0
2,note_on,67,42,0
2,note_on,67,0,43
2,note_on,68,35,0
2,note_on,68,0,80
2,note_on,67,35,0
2,note_on,67,0,80
2,note_on,65,40,0
2,note_on,65,0,120
2,note_on,63,38,0
2,note_on,63,0,120
2,note_on,62,39,0
2,note_on,62,0,51
2,note_on,63,39,0
2,note_on,63,0,120
2,note_on,65,40,0
2,note_on,65,0,120
2,note_on,67,35,0
2,note_on,67,0,120
2,note_on,55,33,0
2,note_on,65,41,0
2,note_on,65,0,40
2,note_on,67,31,0
2,note_on,67,0,80
2,note_on,65,31,0
2,note_on,65,0,80
2,note_on,63,33,0
2,note_on,63,0,120
2,note_on,62,30,0
2,note_on,62,0,120
2,note_on,55,0,0
2,note_on,48,29,0
2,note_on,60,35,0
2,note_on,60,0,85
2,note_on,48,0,0
2,note_on,53,44,0
2,note_on,53,0,120
2,note_on,55,40,0
2,note_on,55,0,120
2,note_on,53,44,0
2,note_on,53,0,14
2,note_on,55,41,0
2,note_on,55,0,120
2,note_on,56,41,0
2,note_on,56,0,120
2,note_on,58,46,0
2,note_on,58,0,120
2,note_on,60,49,0
2,note_on,60,0,28
2,note_on,56,46,0
2,note_on,56,0,120
2,note_on,55,47,0
2,note_on,55,0,120
2,note_on,53,44,0
2,note_on,53,0,120
2,note_on,43,56,0
2,note_on,43,0,126
2,note_on,55,47,0
2,note_on,55,0,240
2,note_on,43,56,0
2,note_on,43,0,240
2,note_on,55,46,0
2,note_on,55,0,240
2,note_on,43,56,0
2,note_on,43,0,126
2,note_on,55,46,0
2,note_on,55,0,240
2,note_on,36,47,0
2,note_on,48,56,0
2,note_on,48,0,229
2,note_on,36,0,0
2,note_on,60,46,0
2,note_on,60,0,169
2,note_on,62,56,0
2,note_on,62,0,240
2,note_on,63,53,0
2,note_on,63,0,240
2,note_on,65,58,0
2,note_on,65,0,240
2,note_on,68,55,0
2,note_on,68,0,240
2,note_on,75,64,0
2,note_on,75,0,490
2,note_on,74,52,0
2,note_on,74,0,120
2,note_on,72,53,0
2,note_on,72,0,120
2,note_on,70,50,0
2,note_on,70,0,120
2,note_on,72,53,0
2,note_on,72,0,16
2,note_on,74,53,0
2,note_on,74,0,80
2,note_on,72,53,0
2,note_on,72,0,80
2,note_on,70,52,0
2,note_on,70,0,120
2,note_on,68,49,0
2,note_on,68,0,120
2,note_on,70,57,0
2,note_on,70,0,14
2,note_on,72,52,0
2,note_on,72,0,120
2,note_on,70,55,0
2,note_on,70,0,120
2,note_on,68,46,0
2,note_on,68,0,120
2,note_on,67,52,0
2,note_on,67,0,127
2,note_on,65,50,0
2,note_on,65,0,120
2,note_on,67,45,0
2,note_on,67,0,120
2,note_on,68,52,0
2,note_on,68,0,21
2,note_on,70,48,0
2,note_on,70,0,120
2,note_on,72,52,0
2,note_on,72,0,120
2,note_on,68,48,0
2,note_on,68,0,120
2,note_on,67,57,0
2,note_on,67,0,23
2,note_on,68,50,0
2,note_on,68,0,80
2,note_on,67,50,0
2,note_on,67,0,80
2,note_on,65,52,0
2,note_on,65,0,120
2,note_on,67,56,0
2,note_on,67,0,120
2,note_on,63,57,0
2,note_on,63,0,180
2,note_on,62,56,0
2,note_on,62,0,120
2,note_on,63,52,0
2,note_on,63,0,120
2,note_on,65,60,0
2,note_on,65,0,30
2,note_on,67,52,0
2,note_on,67,0,80
2,note_on,65,52,0
2,note_on,65,0,80
2,note_on,63,57,0
2,note_on,63,0,120
2,note_on,65,52,0
2,note_on,65,0,120
2,note_on,62,57,0
2,note_on,62,0,45
2,note_on,63,50,0
2,note_on,63,0,80
2,note_on,62,50,0
2,note_on,62,0,80
2,note_on,60,52,0
2,note_on,60,0,120
2,note_on,63,56,0
2,note_on,63,0,120
2,note_on,62,57,0
2,note_on,62,0,194
2,note_on,60,56,0
2,note_on,60,0,120
2,note_on,62,52,0
2,note_on,62,0,120
2,note_on,63,60,0
2,note_on,63,0,63
2,note_on,65,60,0
2,note_on,65,0,120
2,note_on,67,57,0
2,note_on,67,0,120
2,note_on,68,52,0
2,note_on,68,0,120
2,note_on,65,57,0
2,note_on,65,0,45
2,note_on,67,50,0
2,note_on,67,0,80
2,note_on,65,49,0
2,note_on,65,0,80
2,note_on,63,57,0
2,note_on,63,0,80
2,note_on,65,49,0
2,note_on,65,0,80
2,note_on,63,49,0
2,note_on,63,0,80
2,note_on,62,56,0
2,note_on,62,0,44
2,note_on,63,48,0
2,note_on,63,0,80
2,note_on,62,48,0
2,note_on,62,0,80
2,note_on,60,55,0
2,note_on,60,0,80
2,note_on,62,48,0
2,note_on,62,0,80
2,note_on,60,47,0
2,note_on,60,0,80
2,note_on,58,53,0
2,note_on,58,0,52
2,note_on,60,47,0
2,note_on,60,0,80
2,note_on,58,47,0
2,note_on,58,0,80
2,note_on,56,52,0
2,note_on,56,0,80
2,note_on,58,46,0
2,note_on,58,0,80
2,note_on,56,46,0
2,note_on,56,0,80
2,note_on,55,53,0
2,note_on,55,0,131
2,note_on,43,46,0
2,note_on,43,0,240
2,note_on,50,56,0
2,note_on,50,0,23
2,note_on,52,51,0
2,note_on,52,0,120
2,note_on,54,51,0
2,note_on,54,0,120
2,note_on,55,57,0
2,note_on,55,0,120
2,note_on,57,61,0
2,note_on,57,0,40
2,note_on,59,57,0
2,note_on,59,0,120
2,note_on,60,58,0
2,note_on,60,0,120
2,note_on,57,55,0
2,note_on,57,0,120
2,note_on,38,56,0
2,note_on,38,0,185
2,note_on,50,47,0
2,note_on,50,0,240
2,note_on,38,56,0
2,note_on,38,0,168
2,note_on,50,46,0
2,note_on,50,0,240
2,note_on,38,56,0
2,note_on,38,0,189
2,note_on,50,46,0
2,note_on,50,0,240
2,note_on,43,56,0
2,note_on,43,0,289
2,note_on,44,42,960
2,note_on,44,0,169
2,note_on,53,37,0
2,note_on,53,0,120
2,note_on,60,41,0
2,note_on,60,0,240
2,note_on,62,39,0
2,note_on,62,0,240
2,note_on,68,39,0
2,note_on,68,0,360
2,note_on,44,42,0
2,note_on,44,0,275
2,note_on,53,37,0
2,note_on,53,0,120
2,note_on,60,41,0
2,note_on,60,0,240
2,note_on,62,39,0
2,note_on,62,0,240
2,note_on,68,39,0
2,note_on,68,0,399
2,note_on,43,42,0
2,note_on,43,0,184
2,note_on,50,37,0
2,note_on,50,0,120
2,note_on,55,41,0
2,note_on,55,0,240
2,note_on,59,31,0
2,note_on,59,0,240
2,note_on,62,36,0
2,note_on,62,0,240
2,note_on,67,31,0
2,note_on,67,0,240
2,note_on,71,42,0
2,note_on,71,0,1440
2,note_on,44,42,0
2,note_on,44,0,247
2,note_on,53,37,0
2,note_on,53,0,120
2,note_on,60,41,0
2,note_on,60,0,240
2,note_on,62,39,0
2,note_on,62,0,240
2,note_on,68,39,0
2,note_on,68,0,409
2,note_on,44,42,0
2,note_on,44,0,264
2,note_on,53,37,0
2,note_on,53,0,120
2,note_on,60,41,0
2,note_on,60,0,240
2,note_on,62,39,0
2,note_on,62,0,240
2,note_on,68,48,0
2,note_on,68,0,409
2,note_on,43,59,0
2,note_on,55,59,0
2,note_on,55,0,231
2,note_on,43,0,0
2,note_on,53,53,0
2,note_on,53,0,120
2,note_on,56,59,120
2,note_on,56,0,120
2,note_on,50,52,120
2,note_on,50,0,120
2,note_on,53,59,120
2,note_on,53,0,120
2,note_on,47,52,120
2,note_on,47,0,120
2,note_on,50,62,120
2,note_on,50,0,120
2,note_on,44,56,120
2,note_on,44,0,120
2,note_on,48,59,120
2,note_on,48,0,120
2,note_on,41,52,120
2,note_on,41,0,120
2,note_on,44,59,120
2,note_on,44,0,120
2,note_on,38,52,120
2,note_on,38,0,120
2,note_on,43,62,120
2,note_on,43,0,120
2,note_on,53,56,120
2,note_on,53,0,80
2,note_on,56,59,120
2,note_on,56,0,68
2,note_on,50,52,120
2,note_on,50,0,120
2,note_on,53,59,120
2,note_on,53,0,77
2,note_on,47,52,120
2,note_on,47,0,120
2,note_on,50,62,120
2,note_on,50,0,70
2,note_on,44,56,120
2,note_on,44,0,120
2,note_on,48,59,120
2,note_on,48,0,56
2,note_on,41,52,120
2,note_on,41,0,120
2,note_on,44,59,120
2,note_on,44,0,67
2,note_on,38,52,120
2,note_on,38,0,120
2,note_on,43,59,120
2,note_on,43,0,99
2,note_on,43,54,0
2,note_on,43,0,120
2,note_on,43,54,0
2,note_on,43,0,120
2,note_on,43,55,0
2,note_on,43,0,120
2,note_on,43,51,0
2,note_on,43,0,120
2,note_on,43,50,0
2,note_on,43,0,120
2,note_on,43,49,0
2,note_on,43,0,120
2,note_on,43,51,0
2,note_on,43,0,120
2,note_on,43,47,0
2,note_on,43,0,120
2,note_on,43,49,0
2,note_on,43,0,120
2,note_on,43,45,0
2,note_on,43,0,120
2,note_on,43,47,0
2,note_on,43,0,240
2,note_on,60,42,1355
2,note_on,60,0,240
2,note_on,62,47,0
2,note_on,62,0,212
2,note_on,63,44,0
2,note_on,63,0,240
2,note_on,65,42,0
2,note_on,65,0,240
2,note_on,68,46,0
2,note_on,68,0,240
2,note_on,72,51,0
2,note_on,72,0,452
2,note_on,70,44,0
2,note_on,70,0,120
2,note_on,68,45,0
2,note_on,68,0,120
2,note_on,67,42,0
2,note_on,67,0,120
2,note_on,65,45,0
2,note_on,65,0,35
2,note_on,67,42,0
2,note_on,67,0,120
2,note_on,68,44,0
2,note_on,68,0,120
2,note_on,65,41,0
2,note_on,65,0,120
2,note_on,67,48,0
2,note_on,67,0,42
2,note_on,68,44,0
2,note_on,68,0,120
2,note_on,67,46,0
2,note_on,67,0,120
2,note_on,65,39,0
2,note_on,65,0,120
2,note_on,63,44,0
2,note_on,63,0,35
2,note_on,65,41,0
2,note_on,65,0,120
2,note_on,63,42,0
2,note_on,63,0,120
2,note_on,62,38,0
2,note_on,62,0,120
2,note_on,60,44,0
2,note_on,60,0,49
2,note_on,62,40,0
2,note_on,62,0,120
2,note_on,63,44,0
2,note_on,63,0,120
2,note_on,67,40,0
2,note_on,67,0,120
2,note_on,67,44,0
2,note_on,67,0,237
2,note_on,41,44,0
2,note_on,41,0,148
2,note_on,60,38,0
2,note_on,62,38,0
2,note_on,68,44,0
2,note_on,68,0,240
2,note_on,65,44,0
2,note_on,65,0,120
2,note_on,63,39,0
2,note_on,63,0,120
2,note_on,62,45,0
2,note_on,62,0,120
2,note_on,63,40,0
2,note_on,63,0,120
2,note_on,65,40,0
2,note_on,65,0,120
2,note_on,68,40,0
2,note_on,68,0,120
2,note_on,62,0,0
2,note_on,60,0,0
2,note_on,67,42,0
2,note_on,67,0,43
2,note_on,68,35,0
2,note_on,68,0,80
2,note_on,67,35,0
2,note_on,67,0,80
2,note_on,65,40,0
2,note_on,65,0,120
2,note_on,63,38,0
2,note_on,63,0,120
2,note_on,62,39,0
2,note_on,62,0,83
2,note_on,63,39,0
2,note_on,63,0,120
2,note_on,65,40,0
2,note_on,65,0,120
2,note_on,67,35,0
2,note_on,67,0,120
2,note_on,55,33,0
2,note_on,65,41,0
2,note_on,65,0,40
2,note_on,67,31,0
2,note_on,67,0,80
2,note_on,65,31,0
2,note_on,65,0,80
2,note_on,63,33,0
2,note_on,63,0,120
2,note_on,62,30,0
2,note_on,62,0,120
2,note_on,55,0,0
2,note_on,48,29,0
2,note_on,60,35,0
2,note_on,60,0,85
2,note_on,48,0,0
2,note_on,53,44,0
2,note_on,53,0,120
2,note_on,55,40,0
2,note_on,55,0,120
2,note_on,53,44,0
2,note_on,53,0,35
2,note_on,55,41,0
2,note_on,55,0,120
2,note_on,56,41,0
2,note_on,56,0,120
2,note_on,58,46,0
2,note_on,58,0,120
2,note_on,60,49,0
2,note_on,60,0,35
2,note_on,56,46,0
2,note_on,56,0,120
2,note_on,55,47,0
2,note_on,55,0,120
2,note_on,53,44,0
2,note_on,53,0,120
2,note_on,43,56,0
2,note_on,43,0,120
2,note_on,55,47,0
2,note_on,55,0,240
2,note_on,43,56,0
2,note_on,43,0,145
2,note_on,55,46,0
2,note_on,55,0,240
2,note_on,43,56,0
2,note_on,43,0,151
2,note_on,55,46,0
2,note_on,55,0,240
2,note_on,36,61,0
2,note_on,48,61,0
2,note_on,48,0,365
2,note_on,36,0,0
2,note_on,37,67,0
2,note_on,49,67,0
2,note_on,49,0,377
2,note_on,37,0,0
2,note_on,38,52,0
2,note_on,50,62,0
2,note_on,50,0,143
2,note_on,38,0,0
2,note_on,50,62,240
2,note_on,38,62,0
2,note_on,38,0,148
2,note_on,50,0,0
2,note_on,38,57,240
2,note_on,50,57,0
2,note_on,50,0,165
2,note_on,38,0,0
2,note_on,38,55,240
2,note_on,50,64,0
2,note_on,50,0,131
2,note_on,38,0,0
2,note_on,50,60,240
2,note_on,38,60,0
2,note_on,38,0,148
2,note_on,50,0,0
2,note_on,38,66,240
2,note_on,50,66,0
2,note_on,50,0,143
2,note_on,38,0,0
2,note_on,38,61,0
2,note_on,50,61,0
2,note_on,50,0,240
2,note_on,38,0,0
2,note_on,43,49,0
2,note_on,55,58,0
2,note_on,55,0,171
2,note_on,43,0,0
2,note_on,38,41,0
2,note_on,50,50,0
2,note_on,50,0,240
2,note_on,38,0,0
2,note_on,45,46,0
2,note_on,57,56,0
2,note_on,57,0,131
2,note_on,45,0,0
2,note_on,38,51,0
2,note_on,50,61,0
2,note_on,50,0,240
2,note_on,38,0,0
2,note_on,43,55,0
2,note_on,55,64,0
2,note_on,55,0,148
2,note_on,43,0,0
2,note_on,38,52,0
2,note_on,50,62,0
2,note_on,50,0,240
2,note_on,38,0,0
2,note_on,45,49,0
2,note_on,57,58,0
2,note_on,57,0,125
2,note_on,45,0,0
2,note_on,38,46,0
2,note_on,50,55,0
2,note_on,50,0,240
2,note_on,38,0,0
2,note_on,43,39,0
2,note_on,55,47,0
2,note_on,50,49,113
2,note_on,50,0,120
2,note_on,52,49,0
2,note_on,52,0,120
2,note_on,50,52,0
2,note_on,50,0,111
2,note_on,50,49,120
2,note_on,50,0,120
2,note_on,55,0,120
2,note_on,43,0,0
2,note_on,43,39,0
2,note_on,57,47,0
2,note_on,50,47,176
2,note_on,50,0,240
2,note_on,57,0,0
2,note_on,43,0,0
2,note_on,43,47,0
2,note_on,59,47,0
2,note_on,50,49,155
2,note_on,50,0,120
2,note_on,52,49,0
2,note_on,52,0,120
2,note_on,50,52,0
2,note_on,50,0,109
2,note_on,50,49,120
2,note_on,50,0,120
2,note_on,59,0,120
2,note_on,43,0,0
2,note_on,43,39,0
2,note_on,57,47,0
2,note_on,50,40,166
2,note_on,50,0,240
2,note_on,57,0,0
2,note_on,43,0,0
2,note_on,43,35,0
2,note_on,55,41,0
2,note_on,50,44,155
2,note_on,50,0,120
2,note_on,52,44,0
2,note_on,52,0,120
2,note_on,50,47,0
2,note_on,50,0,102
2,note_on,50,44,120
2,note_on,50,0,120
2,note_on,55,0,120
2,note_on,43,0,0
2,note_on,43,41,0
2,note_on,54,41,0
2,note_on,50,41,169
2,note_on,50,0,240
2,note_on,54,0,0
2,note_on,43,0,0
2,note_on,43,39,0
2,note_on,55,47,0
2,note_on,50,49,106
2,note_on,50,0,120
2,note_on,52,49,0
2,note_on,52,0,120
2,note_on,50,52,0
2,note_on,50,0,102
2,note_on,50,49,120
2,note_on,50,0,120
2,note_on,55,0,120
2,note_on,43,0,0
2,note_on,43,41,0
2,note_on,57,47,0
2,note_on,50,47,190
2,note_on,50,0,240
2,note_on,57,0,0
2,note_on,43,0,0
2,note_on,43,42,0
2,note_on,55,51,0
2,note_on,50,53,155
2,note_on,50,0,120
2,note_on,52,53,0
2,note_on,52,0,120
2,note_on,50,57,0
2,note_on,50,0,99
2,note_on,50,53,120
2,note_on,50,0,120
2,note_on,55,0,120
2,note_on,43,0,0
2,note_on,43,39,0
2,note_on,57,47,0
2,note_on,50,47,176
2,note_on,50,0,240
2,note_on,57,0,0
2,note_on,43,0,0
2,note_on,43,47,0
2,note_on,59,47,0
2,note_on,50,49,155
2,note_on,50,0,120
2,note_on,52,49,0
2,note_on,52,0,120
2,note_on,50,52,0
2,note_on,50,0,106
2,note_on,50,49,120
2,note_on,50,0,120
2,note_on,59,0,120
2,note_on,43,0,0
2,note_on,43,39,0
2,note_on,57,47,0
2,note_on,50,40,169
2,note_on,50,0,240
2,note_on,57,0,0
2,note_on,43,0,0
2,note_on,43,35,0
2,note_on,55,41,0
2,note_on,50,44,92
2,note_on,50,0,120
2,note_on,52,44,0
2,note_on,52,0,120
2,note_on,50,47,0
2,note_on,50,0,113
2,note_on,50,44,120
2,note_on,50,0,42
2,note_on,55,0,120
2,note_on,43,0,0
2,note_on,43,41,0
2,note_on,54,41,0
2,note_on,50,41,127
2,note_on,50,0,240
2,note_on,54,0,0
2,note_on,43,0,0
2,note_on,43,39,0
2,note_on,55,47,0
2,note_on,50,49,77
2,note_on,50,0,120
2,note_on,52,49,0
2,note_on,52,0,120
2,note_on,50,52,0
2,note_on,50,0,99
2,note_on,50,49,120
2,note_on,50,0,120
2,note_on,55,0,120
2,note_on,43,0,0
2,note_on,43,39,0
2,note_on,57,47,0
2,note_on,50,47,176
2,note_on,50,0,240
2,note_on,57,0,0
2,note_on,43,0,0
2,note_on,43,44,0
2,note_on,58,53,0
2,note_on,50,56,108
2,note_on,50,0,120
2,note_on,51,56,0
2,note_on,51,0,120
2,note_on,50,59,0
2,note_on,50,0,101
2,note_on,50,56,120
2,note_on,50,0,120
2,note_on,58,0,120
2,note_on,43,0,0
2,note_on,41,40,0
2,note_on,63,49,0
2,note_on,53,49,194
2,note_on,53,0,240
2,note_on,63,0,0
2,note_on,41,0,0
2,note_on,46,49,0
2,note_on,62,49,0
2,note_on,53,51,155
2,note_on,53,0,120
2,note_on,55,51,0
2,note_on,55,0,120
2,note_on,53,55,0
2,note_on,53,0,103
2,note_on,53,51,120
2,note_on,53,0,120
2,note_on,62,0,120
2,note_on,46,0,0
2,note_on,46,40,0
2,note_on,63,49,0
2,note_on,53,41,171
2,note_on,53,0,240
2,note_on,63,0,0
2,note_on,46,0,0
2,note_on,46,40,0
2,note_on,62,49,0
2,note_on,53,51,155
2,note_on,53,0,120
2,note_on,55,51,0
2,note_on,55,0,120
2,note_on,53,55,0
2,note_on,53,0,102
2,note_on,53,51,120
2,note_on,53,0,120
2,note_on,62,0,120
2,note_on,46,0,0
2,note_on,46,40,0
2,note_on,63,49,0
2,note_on,53,49,177
2,note_on,53,0,240
2,note_on,63,0,0
2,note_on,46,0,0
2,note_on,46,40,0
2,note_on,62,49,0
2,note_on,53,51,155
2,note_on,53,0,120
2,note_on,55,51,0
2,note_on,55,0,120
2,note_on,53,55,0
2,note_on,53,0,104
2,note_on,53,51,120
2,note_on,53,0,120
2,note_on,62,0,120
2,note_on,46,0,0
2,note_on,46,46,0
2,note_on,63,46,0
2,note_on,53,42,194
2,note_on,53,0,240
2,note_on,63,0,0
2,note_on,46,0,0
2,note_on,46,39,0
2,note_on,62,48,0
2,note_on,53,44,155
2,note_on,53,0,120
2,note_on,55,44,0
2,note_on,55,0,120
2,note_on,53,49,0
2,note_on,53,0,103
2,note_on,53,45,120
2,note_on,53,0,120
2,note_on,62,0,120
2,note_on,46,0,0
2,note_on,45,36,0
2,note_on,57,44,0
2,note_on,57,0,194
2,note_on,50,44,0
2,note_on,50,0,240
2,note_on,45,0,0
2,note_on,43,39,0
2,note_on,55,48,0
2,note_on,55,0,155
2,note_on,55,44,0
2,note_on,55,0,120
2,note_on,56,44,0
2,note_on,56,0,120
2,note_on,55,49,0
2,note_on,55,0,103
2,note_on,55,45,120
2,note_on,55,0,120
2,note_on,43,0,120
2,note_on,48,36,0
2,note_on,55,44,0
2,note_on,55,0,194
2,note_on,57,44,0
2,note_on,57,0,240
2,note_on,48,0,0
2,note_on,50,39,0
2,note_on,59,48,0
2,note_on,59,0,155
2,note_on,62,44,0
2,note_on,62,0,120
2,note_on,64,44,0
2,note_on,64,0,120
2,note_on,62,49,0
2,note_on,62,0,35
2,note_on,62,45,120
2,note_on,62,0,120
2,note_on,50,0,120
2,note_on,50,36,0
2,note_on,60,44,0
2,note_on,60,0,120
2,note_on,60,41,0
2,note_on,60,0,240
2,note_on,50,0,0
2,note_on,43,39,0
2,note_on,59,47,0
2,note_on,59,0,137
2,note_on,43,0,0
2,note_on,38,34,0
2,note_on,50,40,0
2,note_on,50,0,240
2,note_on,38,0,0
2,note_on,45,37,0
2,note_on,57,45,0
2,note_on,57,0,131
2,note_on,45,0,0
2,note_on,38,41,0
2,note_on,50,49,0
2,note_on,50,0,240
2,note_on,38,0,0
2,note_on,43,44,0
2,note_on,55,52,0
2,note_on,55,0,160
2,note_on,43,0,0
2,note_on,38,42,0
2,note_on,50,50,0
2,note_on,50,0,240
2,note_on,38,0,0
2,note_on,45,39,0
2,note_on,57,47,0
2,note_on,57,0,137
2,note_on,45,0,0
2,note_on,38,37,0
2,note_on,50,44,0
2,note_on,50,0,240
2,note_on,38,0,0
2,note_on,43,44,0
2,note_on,55,52,0
2,note_on,55,0,23
2,note_on,43,0,0
2,note_on,55,52,360
2,note_on,55,0,34
2,note_on,62,47,360
2,note_on,62,0,17
2,note_on,67,52,360
2,note_on,67,0,63
2,note_on,71,52,360
2,note_on,71,0,23
2,note_on,74,47,360
2,note_on,74,0,34
2,note_on,79,47,360
2,note_on,79,0,109
2,note_on,79,45,354
2,note_on,79,0,28
2,note_on,79,42,360
2,note_on,79,0,28
2,note_on,79,40,360
2,note_on,79,0,17
2,note_on,79,38,360
2,note_on,79,0,40
2,note_on,79,36,360
2,note_on,79,0,17
2,note_on,67,29,360
2,note_on,74,34,0
2,note_on,74,0,1946
2,note_on,67,0,0
2,note_on,67,71,0
2,note_on,74,71,0
2,note_on,79,80,0
2,note_on,79,0,480
2,note_on,74,0,0
2,note_on,67,0,0
2,note_on,31,75,0
2,note_on,43,85,0
2,note_on,43,0,1440
2,note_on,31,0,0
