Track,Message Type,Note,Velocity,Time
1,note_on,68,39,240
1,note_on,65,39,80
1,note_on,68,0,20
1,note_on,61,39,60
1,note_on,65,0,20
1,note_on,56,44,60
1,note_on,61,0,20
1,note_on,56,0,100
1,note_on,56,33,120
1,note_on,68,40,0
1,note_on,61,33,0
1,note_on,65,39,0
1,note_on,65,0,480
1,note_on,56,0,0
1,note_on,68,0,0
1,note_on,61,0,0
1,note_on,56,36,0
1,note_on,59,36,0
1,note_on,68,43,0
1,note_on,65,43,0
1,note_on,65,0,240
1,note_on,56,0,0
1,note_on,59,0,0
1,note_on,68,0,0
1,note_on,68,39,240
1,note_on,66,39,80
1,note_on,68,0,20
1,note_on,60,39,60
1,note_on,66,0,20
1,note_on,56,44,60
1,note_on,60,0,20
1,note_on,56,0,100
1,note_on,66,41,120
1,note_on,68,42,0
1,note_on,60,34,0
1,note_on,56,34,0
1,note_on,56,0,480
1,note_on,66,0,0
1,note_on,68,0,0
1,note_on,60,0,0
1,note_on,56,32,0
1,note_on,68,38,0
1,note_on,64,38,0
1,note_on,64,0,240
1,note_on,68,0,0
1,note_on,56,0,0
1,note_on,68,27,240
1,note_on,65,27,80
1,note_on,68,0,20
1,note_on,61,27,60
1,note_on,65,0,20
1,note_on,56,30,60
1,note_on,61,0,20
1,note_on,56,0,100
1,note_on,65,27,120
1,note_on,68,29,0
1,note_on,61,27,0
1,note_on,56,27,0
1,note_on,56,0,480
1,note_on,65,0,0
1,note_on,68,0,0
1,note_on,61,0,0
1,note_on,56,26,0
1,note_on,68,26,0
1,note_on,65,26,0
1,note_on,59,26,0
1,note_on,59,0,240
1,note_on,56,0,0
1,note_on,68,0,0
1,note_on,65,0,0
1,note_on,68,27,240
1,note_on,66,27,80
1,note_on,68,0,20
1,note_on,60,27,60
1,note_on,66,0,20
1,note_on,56,30,60
1,note_on,60,0,20
1,note_on,56,0,100
1,note_on,60,31,120
1,note_on,68,33,0
1,note_on,66,31,0
1,note_on,56,31,0
1,note_on,56,0,480
1,note_on,60,0,0
1,note_on,68,0,0
1,note_on,66,0,0
1,note_on,68,31,0
1,note_on,64,31,0
1,note_on,56,31,0
1,note_on,56,0,220
1,note_on,64,0,0
1,note_on,68,0,0
1,note_on,77,46,20
1,note_on,65,45,0
1,note_on,65,0,240
1,note_on,77,0,0
1,note_on,65,45,240
1,note_on,77,47,0
1,note_on,77,0,720
1,note_on,65,0,0
1,note_on,77,41,0
1,note_on,65,41,0
1,note_on,65,0,240
1,note_on,77,0,0
1,note_on,65,46,0
1,note_on,77,46,0
1,note_on,77,0,360
1,note_on,65,0,0
1,note_on,80,43,0
1,note_on,68,43,0
1,note_on,68,0,120
1,note_on,80,0,0
1,note_on,80,43,0
1,note_on,68,43,0
1,note_on,68,0,960
1,note_on,80,0,0
1,note_on,78,55,240
1,note_on,66,55,0
1,note_on,80,58,240
1,note_on,68,58,0
1,note_on,66,0,20
1,note_on,78,0,0
1,note_on,70,61,220
1,note_on,82,61,0
1,note_on,80,0,20
1,note_on,68,0,0
1,note_on,73,64,220
1,note_on,85,64,0
1,note_on,70,0,20
1,note_on,82,0,0
1,note_on,72,62,220
1,note_on,84,62,0
1,note_on,73,0,20
1,note_on,85,0,0
1,note_on,75,71,220
1,note_on,87,71,0
1,note_on,72,0,20
1,note_on,84,0,0
1,note_on,70,56,220
1,note_on,82,56,0
1,note_on,75,0,20
1,note_on,87,0,0
1,note_on,80,55,220
1,note_on,68,55,0
1,note_on,70,0,20
1,note_on,82,0,0
1,note_on,80,0,940
1,note_on,68,0,0
1,note_on,77,53,0
1,note_on,65,53,0
1,note_on,65,0,240
1,note_on,77,0,0
1,note_on,77,53,240
1,note_on,65,53,0
1,note_on,65,0,720
1,note_on,77,0,0
1,note_on,77,49,0
1,note_on,65,49,0
1,note_on,65,0,240
1,note_on,77,0,0
1,note_on,65,55,0
1,note_on,77,55,0
1,note_on,77,0,360
1,note_on,65,0,0
1,note_on,80,51,0
1,note_on,68,51,0
1,note_on,68,0,120
1,note_on,80,0,0
1,note_on,68,51,0
1,note_on,80,51,0
1,note_on,80,0,960
1,note_on,68,0,0
1,note_on,78,55,240
1,note_on,66,55,0
1,note_on,68,58,240
1,note_on,80,58,0
1,note_on,66,0,20
1,note_on,78,0,0
1,note_on,82,61,220
1,note_on,70,61,0
1,note_on,68,0,20
1,note_on,80,0,0
1,note_on,73,64,220
1,note_on,85,64,0
1,note_on,82,0,20
1,note_on,70,0,0
1,note_on,84,62,220
1,note_on,72,62,0
1,note_on,73,0,20
1,note_on,85,0,0
1,note_on,78,59,220
1,note_on,90,68,0
1,note_on,84,0,20
1,note_on,72,0,0
1,note_on,70,56,220
1,note_on,82,56,0
1,note_on,78,0,20
1,note_on,90,0,0
1,note_on,68,55,220
1,note_on,80,55,0
1,note_on,70,0,20
1,note_on,82,0,0
1,note_on,68,0,940
1,note_on,80,0,0
1,note_on,85,58,0
1,note_on,73,58,0
1,note_on,73,0,240
1,note_on,85,0,0
1,note_on,73,58,240
1,note_on,85,58,0
1,note_on,85,0,720
1,note_on,73,0,0
1,note_on,84,53,0
1,note_on,72,53,0
1,note_on,72,0,240
1,note_on,84,0,0
1,note_on,84,58,0
1,note_on,72,58,0
1,note_on,72,0,480
1,note_on,84,0,0
1,note_on,82,55,0
1,note_on,70,55,0
1,note_on,70,0,240
1,note_on,82,0,0
1,note_on,77,55,0
1,note_on,65,55,0
1,note_on,65,0,240
1,note_on,77,0,0
1,note_on,68,58,0
1,note_on,80,58,0
1,note_on,80,0,240
1,note_on,68,0,0
1,note_on,82,53,0
1,note_on,70,53,0
1,note_on,70,0,240
1,note_on,82,0,0
1,note_on,80,58,0
1,note_on,68,58,0
1,note_on,68,0,480
1,note_on,80,0,0
1,note_on,66,58,0
1,note_on,78,58,0
1,note_on,78,0,240
1,note_on,66,0,0
1,note_on,71,57,0
1,note_on,74,57,0
1,note_on,74,0,180
1,note_on,71,0,0
1,note_on,71,53,0
1,note_on,78,58,60
1,note_on,78,0,240
1,note_on,71,0,0
1,note_on,71,54,0
1,note_on,77,54,0
1,note_on,77,0,180
1,note_on,71,0,0
1,note_on,66,41,0
1,note_on,77,56,60
1,note_on,77,0,480
1,note_on,75,56,0
1,note_on,75,0,960
1,note_on,66,0,0
1,note_on,67,47,0
1,note_on,73,56,0
1,note_on,65,47,0
1,note_on,65,0,240
1,note_on,73,0,0
1,note_on,67,0,0
1,note_on,67,45,0
1,note_on,63,45,0
1,note_on,72,53,0
1,note_on,72,0,240
1,note_on,63,0,0
1,note_on,67,0,0
1,note_on,61,45,0
1,note_on,72,53,0
1,note_on,67,45,0
1,note_on,67,0,480
1,note_on,72,0,0
1,note_on,61,0,0
1,note_on,61,47,0
1,note_on,67,47,0
1,note_on,70,56,0
1,note_on,70,0,180
1,note_on,67,0,0
1,note_on,61,0,0
1,note_on,61,35,0
1,note_on,67,42,30
1,note_on,75,55,30
1,note_on,75,0,240
1,note_on,67,0,0
1,note_on,61,0,0
1,note_on,63,54,0
1,note_on,68,54,0
1,note_on,68,0,240
1,note_on,63,0,0
1,note_on,65,49,0
1,note_on,70,49,0
1,note_on,70,0,240
1,note_on,65,0,0
1,note_on,73,54,0
1,note_on,68,54,0
1,note_on,68,0,240
1,note_on,73,0,0
1,note_on,67,50,0
1,note_on,72,50,0
1,note_on,72,0,180
1,note_on,67,0,0
1,note_on,68,50,0
1,note_on,75,55,60
1,note_on,75,0,240
1,note_on,68,0,0
1,note_on,72,50,0
1,note_on,67,50,0
1,note_on,67,0,180
1,note_on,72,0,0
1,note_on,61,41,0
1,note_on,67,41,30
1,note_on,73,56,30
1,note_on,73,0,480
1,note_on,67,0,0
1,note_on,61,0,0
1,note_on,67,55,0
1,note_on,65,55,0
1,note_on,73,55,0
1,note_on,73,0,480
1,note_on,65,0,0
1,note_on,67,0,0
1,note_on,61,52,0
1,note_on,72,52,0
1,note_on,67,52,0
1,note_on,67,0,480
1,note_on,72,0,0
1,note_on,61,0,0
1,note_on,68,54,0
1,note_on,63,48,0
1,note_on,63,0,240
1,note_on,68,0,0
1,note_on,65,48,0
1,note_on,70,54,0
1,note_on,70,0,240
1,note_on,65,0,0
1,note_on,72,59,0
1,note_on,66,53,0
1,note_on,66,0,240
1,note_on,72,0,0
1,note_on,72,54,0
1,note_on,78,59,0
1,note_on,78,0,240
1,note_on,72,0,0
1,note_on,72,52,0
1,note_on,77,58,0
1,note_on,77,0,240
1,note_on,72,0,0
1,note_on,72,45,0
1,note_on,76,54,0
1,note_on,76,0,240
1,note_on,72,0,0
1,note_on,65,50,0
1,note_on,77,56,0
1,note_on,77,0,240
1,note_on,65,0,0
1,note_on,65,55,240
1,note_on,77,62,0
1,note_on,77,0,720
1,note_on,65,0,0
1,note_on,77,63,0
1,note_on,65,56,0
1,note_on,65,0,240
1,note_on,77,0,0
1,note_on,65,61,0
1,note_on,77,68,0
1,note_on,77,0,360
1,note_on,65,0,0
1,note_on,68,61,0
1,note_on,80,68,0
1,note_on,80,0,120
1,note_on,68,0,0
1,note_on,68,61,0
1,note_on,80,68,0
1,note_on,80,0,960
1,note_on,68,0,0
1,note_on,78,69,240
1,note_on,66,61,0
1,note_on,68,63,240
1,note_on,80,71,0
1,note_on,66,0,20
1,note_on,78,0,0
1,note_on,82,73,220
1,note_on,70,66,0
1,note_on,68,0,20
1,note_on,80,0,0
1,note_on,73,69,220
1,note_on,85,77,0
1,note_on,82,0,20
1,note_on,70,0,0
1,note_on,84,72,220
1,note_on,72,64,0
1,note_on,73,0,20
1,note_on,85,0,0
1,note_on,87,83,220
1,note_on,75,72,0
1,note_on,84,0,20
1,note_on,72,0,0
1,note_on,70,62,220
1,note_on,82,70,0
1,note_on,87,0,20
1,note_on,75,0,0
1,note_on,80,66,220
1,note_on,68,59,0
1,note_on,70,0,20
1,note_on,82,0,0
1,note_on,80,0,940
1,note_on,68,0,0
1,note_on,77,45,0
1,note_on,65,45,0
1,note_on,65,0,240
1,note_on,77,0,0
1,note_on,65,45,240
1,note_on,77,45,0
1,note_on,77,0,720
1,note_on,65,0,0
1,note_on,65,41,0
1,note_on,77,41,0
1,note_on,77,0,240
1,note_on,65,0,0
1,note_on,65,46,0
1,note_on,77,46,0
1,note_on,77,0,360
1,note_on,65,0,0
1,note_on,68,43,0
1,note_on,80,43,0
1,note_on,80,0,120
1,note_on,68,0,0
1,note_on,80,43,0
1,note_on,68,43,0
1,note_on,68,0,960
1,note_on,80,0,0
1,note_on,78,55,240
1,note_on,66,55,0
1,note_on,80,57,240
1,note_on,68,57,0
1,note_on,66,0,20
1,note_on,78,0,0
1,note_on,82,59,220
1,note_on,70,59,0
1,note_on,80,0,20
1,note_on,68,0,0
1,note_on,73,61,220
1,note_on,85,61,0
1,note_on,82,0,20
1,note_on,70,0,0
1,note_on,84,58,220
1,note_on,72,58,0
1,note_on,73,0,20
1,note_on,85,0,0
1,note_on,78,65,220
1,note_on,90,65,0
1,note_on,84,0,20
1,note_on,72,0,0
1,note_on,70,56,220
1,note_on,82,56,0
1,note_on,78,0,20
1,note_on,90,0,0
1,note_on,68,55,220
1,note_on,80,55,0
1,note_on,70,0,20
1,note_on,82,0,0
1,note_on,68,0,460
1,note_on,80,0,0
1,note_on,69,33,0
1,note_on,75,33,0
1,note_on,80,40,0
1,note_on,75,0,240
1,note_on,69,0,0
1,note_on,79,37,0
1,note_on,80,0,20
1,note_on,79,0,220
1,note_on,68,45,0
1,note_on,80,49,0
1,note_on,80,0,240
1,note_on,68,0,0
1,note_on,68,52,240
1,note_on,80,52,0
1,note_on,80,0,720
1,note_on,68,0,0
1,note_on,80,53,0
1,note_on,68,53,0
1,note_on,68,0,240
1,note_on,80,0,0
1,note_on,71,52,0
1,note_on,83,58,0
1,note_on,83,0,240
1,note_on,71,0,0
1,note_on,69,52,0
1,note_on,81,58,0
1,note_on,81,0,240
1,note_on,69,0,0
1,note_on,85,65,0
1,note_on,73,58,0
1,note_on,73,0,240
1,note_on,85,0,0
1,note_on,75,54,0
1,note_on,87,61,0
1,note_on,87,0,240
1,note_on,75,0,0
1,note_on,80,64,0
1,note_on,92,72,0
1,note_on,92,0,240
1,note_on,80,0,0
1,note_on,78,61,0
1,note_on,90,68,0
1,note_on,90,0,240
1,note_on,78,0,0
1,note_on,80,49,0
1,note_on,68,49,0
1,note_on,68,0,240
1,note_on,80,0,0
1,note_on,68,49,240
1,note_on,80,49,0
1,note_on,80,0,720
1,note_on,68,0,0
1,note_on,80,45,0
1,note_on,68,45,0
1,note_on,68,0,240
1,note_on,80,0,0
1,note_on,83,49,0
1,note_on,71,49,0
1,note_on,71,0,240
1,note_on,83,0,0
1,note_on,81,49,0
1,note_on,69,49,0
1,note_on,69,0,240
1,note_on,81,0,0
1,note_on,73,51,0
1,note_on,85,51,0
1,note_on,85,0,240
1,note_on,73,0,0
1,note_on,75,48,0
1,note_on,87,48,0
1,note_on,87,0,180
1,note_on,75,0,0
1,note_on,80,48,0
1,note_on,92,55,60
1,note_on,92,0,240
1,note_on,80,0,0
1,note_on,90,52,0
1,note_on,78,52,0
1,note_on,78,0,240
1,note_on,90,0,0
1,note_on,80,63,0
1,note_on,68,53,0
1,note_on,68,0,480
1,note_on,80,0,0
1,note_on,80,58,0
1,note_on,68,49,0
1,note_on,78,58,0
1,note_on,78,0,480
1,note_on,68,0,0
1,note_on,80,0,0
1,note_on,68,56,0
1,note_on,76,66,0
1,note_on,80,66,0
1,note_on,76,0,480
1,note_on,77,66,0
1,note_on,77,0,240
1,note_on,80,0,0
1,note_on,68,0,0
1,note_on,72,57,0
1,note_on,66,48,0
1,note_on,75,57,0
1,note_on,75,0,240
1,note_on,66,0,0
1,note_on,72,0,0
1,note_on,65,53,0
1,note_on,73,63,0
1,note_on,73,0,240
1,note_on,65,0,0
1,note_on,72,56,0
1,note_on,69,56,0
1,note_on,63,47,0
1,note_on,63,0,240
1,note_on,69,0,0
1,note_on,72,0,0
1,note_on,61,51,0
1,note_on,70,60,0
1,note_on,70,0,240
1,note_on,61,0,0
1,note_on,68,53,0
1,note_on,65,53,0
1,note_on,65,0,240
1,note_on,68,0,0
1,note_on,66,58,0
1,note_on,66,0,240
1,note_on,68,55,0
1,note_on,68,0,240
1,note_on,69,55,0
1,note_on,69,0,240
1,note_on,70,60,0
1,note_on,70,0,240
1,note_on,73,65,0
1,note_on,73,0,240
1,note_on,66,58,0
1,note_on,66,0,180
1,note_on,60,50,0
1,note_on,66,51,30
1,note_on,70,58,30
1,note_on,70,0,420
1,note_on,66,0,0
1,note_on,60,0,0
1,note_on,66,48,0
1,note_on,77,58,60
1,note_on,77,0,720
1,note_on,72,53,0
1,note_on,72,0,240
1,note_on,66,0,0
1,note_on,68,46,240
1,note_on,65,46,80
1,note_on,68,0,20
1,note_on,61,46,60
1,note_on,65,0,20
1,note_on,56,52,60
1,note_on,61,0,20
1,note_on,56,0,100
1,note_on,61,39,120
1,note_on,68,48,0
1,note_on,65,46,0
1,note_on,56,39,0
1,note_on,56,0,480
1,note_on,61,0,0
1,note_on,68,0,0
1,note_on,65,0,0
1,note_on,65,51,0
1,note_on,68,51,0
1,note_on,59,43,0
1,note_on,56,43,0
1,note_on,56,0,240
1,note_on,65,0,0
1,note_on,68,0,0
1,note_on,59,0,0
1,note_on,68,46,240
1,note_on,66,46,80
1,note_on,68,0,20
1,note_on,60,46,60
1,note_on,66,0,20
1,note_on,56,52,60
1,note_on,60,0,20
1,note_on,56,0,100
1,note_on,56,41,120
1,note_on,60,41,0
1,note_on,66,49,0
1,note_on,68,51,0
1,note_on,68,0,480
1,note_on,56,0,0
1,note_on,60,0,0
1,note_on,66,0,0
1,note_on,64,45,0
1,note_on,56,38,0
1,note_on,68,45,0
1,note_on,68,0,240
1,note_on,56,0,0
1,note_on,64,0,0
1,note_on,68,27,240
1,note_on,65,27,80
1,note_on,68,0,20
1,note_on,61,27,60
1,note_on,65,0,20
1,note_on,56,30,60
1,note_on,61,0,20
1,note_on,56,0,100
1,note_on,56,27,120
1,note_on,61,27,0
1,note_on,65,27,0
1,note_on,68,28,0
1,note_on,68,0,480
1,note_on,56,0,0
1,note_on,61,0,0
1,note_on,65,0,0
1,note_on,59,26,0
1,note_on,68,26,0
1,note_on,65,26,0
1,note_on,56,26,0
1,note_on,56,0,240
1,note_on,59,0,0
1,note_on,68,0,0
1,note_on,65,0,0
1,note_on,68,27,240
1,note_on,66,27,80
1,note_on,68,0,20
1,note_on,60,27,60
1,note_on,66,0,20
1,note_on,56,30,60
1,note_on,60,0,20
1,note_on,56,0,100
1,note_on,56,31,120
1,note_on,60,31,0
1,note_on,68,31,0
1,note_on,66,31,0
1,note_on,66,0,480
1,note_on,56,0,0
1,note_on,60,0,0
1,note_on,68,0,0
1,note_on,56,31,0
1,note_on,64,31,0
1,note_on,68,31,0
1,note_on,68,0,240
1,note_on,64,0,0
1,note_on,56,0,0
1,note_on,64,40,0
1,note_on,68,40,0
1,note_on,68,0,120
1,note_on,64,0,0
1,note_on,64,41,120
1,note_on,68,41,0
1,note_on,68,0,120
1,note_on,64,0,0
1,note_on,64,40,120
1,note_on,68,40,0
1,note_on,68,0,120
1,note_on,64,0,0
1,note_on,64,42,120
1,note_on,68,42,0
1,note_on,68,0,120
1,note_on,64,0,0
1,note_on,64,45,120
1,note_on,68,45,0
1,note_on,68,0,120
1,note_on,64,0,0
1,note_on,64,48,120
1,note_on,68,48,0
1,note_on,68,0,120
1,note_on,64,0,0
1,note_on,64,50,120
1,note_on,68,50,0
1,note_on,68,0,120
1,note_on,64,0,0
1,note_on,64,45,120
1,note_on,68,45,0
1,note_on,68,0,120
1,note_on,64,0,0
1,note_on,64,47,120
1,note_on,68,47,0
1,note_on,68,0,120
1,note_on,64,0,0
1,note_on,64,32,120
1,note_on,68,32,0
1,note_on,68,0,120
1,note_on,64,0,0
1,note_on,64,29,120
1,note_on,68,29,0
1,note_on,68,0,120
1,note_on,64,0,0
1,note_on,64,28,120
1,note_on,68,28,0
1,note_on,68,0,120
1,note_on,64,0,0
1,note_on,76,33,120
1,note_on,64,24,0
1,note_on,68,24,0
1,note_on,68,0,120
1,note_on,64,0,0
1,note_on,64,24,120
1,note_on,68,24,0
1,note_on,68,0,120
1,note_on,64,0,0
1,note_on,64,24,120
1,note_on,68,24,0
1,note_on,68,0,120
1,note_on,64,0,0
1,note_on,64,24,120
1,note_on,68,24,0
1,note_on,68,0,120
1,note_on,64,0,0
1,note_on,64,27,120
1,note_on,68,27,0
1,note_on,68,0,120
1,note_on,64,0,0
1,note_on,64,28,120
1,note_on,68,28,0
1,note_on,68,0,120
1,note_on,64,0,0
1,note_on,64,30,120
1,note_on,68,30,0
1,note_on,68,0,120
1,note_on,64,0,0
1,note_on,64,27,120
1,note_on,68,27,0
1,note_on,68,0,120
1,note_on,64,0,0
1,note_on,64,27,120
1,note_on,68,27,0
1,note_on,68,0,120
1,note_on,64,0,0
1,note_on,64,23,120
1,note_on,68,23,0
1,note_on,68,0,120
1,note_on,64,0,0
1,note_on,64,21,120
1,note_on,68,21,0
1,note_on,68,0,120
1,note_on,64,0,0
1,note_on,64,21,120
1,note_on,68,21,0
1,note_on,68,0,120
1,note_on,64,0,0
1,note_on,76,0,120
1,note_on,69,54,0
1,note_on,76,73,0
1,note_on,76,0,240
1,note_on,75,64,0
1,note_on,76,63,80
1,note_on,75,0,20
1,note_on,75,63,60
1,note_on,76,0,20
1,note_on,75,0,60
1,note_on,73,74,0
1,note_on,73,0,240
1,note_on,75,63,0
1,note_on,75,0,240
1,note_on,69,0,0
1,note_on,64,50,0
1,note_on,76,70,0
1,note_on,76,0,240
1,note_on,73,62,0
1,note_on,73,0,240
1,note_on,64,0,0
1,note_on,69,38,0
1,note_on,76,47,0
1,note_on,76,0,240
1,note_on,75,42,0
1,note_on,76,41,80
1,note_on,75,0,20
1,note_on,75,41,60
1,note_on,76,0,20
1,note_on,75,0,60
1,note_on,73,48,0
1,note_on,73,0,240
1,note_on,75,41,0
1,note_on,75,0,240
1,note_on,69,0,0
1,note_on,64,35,0
1,note_on,76,45,0
1,note_on,76,0,240
1,note_on,73,40,0
1,note_on,73,0,240
1,note_on,64,0,0
1,note_on,64,38,0
1,note_on,71,47,0
1,note_on,71,0,240
1,note_on,69,42,0
1,note_on,71,41,80
1,note_on,69,0,20
1,note_on,69,41,60
1,note_on,71,0,20
1,note_on,69,0,60
1,note_on,64,0,0
1,note_on,63,35,0
1,note_on,68,48,0
1,note_on,63,0,240
1,note_on,63,39,0
1,note_on,63,0,240
1,note_on,68,0,0
1,note_on,64,41,0
1,note_on,69,46,0
1,note_on,69,0,240
1,note_on,64,0,0
1,note_on,66,44,0
1,note_on,71,49,0
1,note_on,71,0,240
1,note_on,66,0,0
1,note_on,68,46,0
1,note_on,73,52,0
1,note_on,73,0,240
1,note_on,68,0,0
1,note_on,66,44,0
1,note_on,71,49,0
1,note_on,71,0,240
1,note_on,66,0,0
1,note_on,64,43,0
1,note_on,69,48,0
1,note_on,69,0,240
1,note_on,64,0,0
1,note_on,66,41,0
1,note_on,71,46,0
1,note_on,71,0,240
1,note_on,66,0,0
1,note_on,63,40,0
1,note_on,68,45,0
1,note_on,68,0,480
1,note_on,63,0,0
1,note_on,64,30,0
1,note_on,68,30,0
1,note_on,68,0,120
1,note_on,64,0,0
1,note_on,64,30,120
1,note_on,68,30,0
1,note_on,68,0,120
1,note_on,64,0,0
1,note_on,64,30,120
1,note_on,68,30,0
1,note_on,68,0,120
1,note_on,64,0,0
1,note_on,64,31,120
1,note_on,68,31,0
1,note_on,68,0,120
1,note_on,64,0,0
1,note_on,64,34,120
1,note_on,68,34,0
1,note_on,68,0,120
1,note_on,64,0,0
1,note_on,64,36,120
1,note_on,68,36,0
1,note_on,68,0,120
1,note_on,64,0,0
1,note_on,64,38,120
1,note_on,68,38,0
1,note_on,68,0,120
1,note_on,64,0,0
1,note_on,64,34,120
1,note_on,68,34,0
1,note_on,68,0,120
1,note_on,64,0,0
1,note_on,64,35,120
1,note_on,68,35,0
1,note_on,68,0,120
1,note_on,64,0,0
1,note_on,64,25,120
1,note_on,68,25,0
1,note_on,68,0,120
1,note_on,64,0,0
1,note_on,64,24,120
1,note_on,68,24,0
1,note_on,68,0,120
1,note_on,64,0,0
1,note_on,64,23,120
1,note_on,68,23,0
1,note_on,68,0,120
1,note_on,64,0,0
1,note_on,76,33,120
1,note_on,64,24,0
1,note_on,68,24,0
1,note_on,68,0,120
1,note_on,64,0,0
1,note_on,64,24,120
1,note_on,68,24,0
1,note_on,68,0,120
1,note_on,64,0,0
1,note_on,64,24,120
1,note_on,68,24,0
1,note_on,68,0,120
1,note_on,64,0,0
1,note_on,64,24,120
1,note_on,68,24,0
1,note_on,68,0,120
1,note_on,64,0,0
1,note_on,64,27,120
1,note_on,68,27,0
1,note_on,68,0,120
1,note_on,64,0,0
1,note_on,64,28,120
1,note_on,68,28,0
1,note_on,68,0,120
1,note_on,64,0,0
1,note_on,64,30,120
1,note_on,68,30,0
1,note_on,68,0,120
1,note_on,64,0,0
1,note_on,64,27,120
1,note_on,68,27,0
1,note_on,68,0,120
1,note_on,64,0,0
1,note_on,64,27,120
1,note_on,68,27,0
1,note_on,68,0,120
1,note_on,64,0,0
1,note_on,64,23,120
1,note_on,68,23,0
1,note_on,68,0,120
1,note_on,64,0,0
1,note_on,64,21,120
1,note_on,68,21,0
1,note_on,68,0,120
1,note_on,64,0,0
1,note_on,64,21,120
1,note_on,68,21,0
1,note_on,68,0,120
1,note_on,64,0,0
1,note_on,76,0,120
1,note_on,69,54,0
1,note_on,76,73,0
1,note_on,76,0,240
1,note_on,75,64,0
1,note_on,76,63,80
1,note_on,75,0,20
1,note_on,75,63,60
1,note_on,76,0,20
1,note_on,75,0,60
1,note_on,73,74,0
1,note_on,73,0,240
1,note_on,75,63,0
1,note_on,75,0,240
1,note_on,69,0,0
1,note_on,64,50,0
1,note_on,76,70,0
1,note_on,76,0,240
1,note_on,73,62,0
1,note_on,73,0,240
1,note_on,64,0,0
1,note_on,69,38,0
1,note_on,76,47,0
1,note_on,76,0,240
1,note_on,75,42,0
1,note_on,76,41,80
1,note_on,75,0,20
1,note_on,75,41,60
1,note_on,76,0,20
1,note_on,75,0,60
1,note_on,73,48,0
1,note_on,73,0,240
1,note_on,75,41,0
1,note_on,75,0,240
1,note_on,69,0,0
1,note_on,64,35,0
1,note_on,76,45,0
1,note_on,76,0,240
1,note_on,73,40,0
1,note_on,73,0,240
1,note_on,64,0,0
1,note_on,61,34,0
1,note_on,64,34,0
1,note_on,64,0,240
1,note_on,61,0,0
1,note_on,61,30,0
1,note_on,64,30,0
1,note_on,64,0,240
1,note_on,61,0,0
1,note_on,60,34,0
1,note_on,64,34,0
1,note_on,64,0,240
1,note_on,60,0,0
1,note_on,61,30,0
1,note_on,64,30,0
1,note_on,64,0,240
1,note_on,61,0,0
1,note_on,63,48,0
1,note_on,68,48,0
1,note_on,68,0,240
1,note_on,63,0,0
1,note_on,61,44,0
1,note_on,66,44,0
1,note_on,66,0,120
1,note_on,61,0,0
1,note_on,57,41,60
1,note_on,60,41,30
1,note_on,64,48,30
1,note_on,64,0,240
1,note_on,63,42,0
1,note_on,64,42,80
1,note_on,63,0,20
1,note_on,63,42,60
1,note_on,64,0,20
1,note_on,57,0,60
1,note_on,60,0,0
1,note_on,56,47,0
1,note_on,61,47,0
1,note_on,63,0,20
1,note_on,61,0,220
1,note_on,56,0,0
1,note_on,57,45,0
1,note_on,57,0,180
1,note_on,56,45,0
1,note_on,61,45,60
1,note_on,61,0,480
1,note_on,56,0,0
1,note_on,60,36,0
1,note_on,63,36,0
1,note_on,63,0,240
1,note_on,60,0,0
1,note_on,60,36,0
1,note_on,63,36,0
1,note_on,63,0,240
1,note_on,60,0,0
1,note_on,63,36,0
1,note_on,61,36,0
1,note_on,61,0,240
1,note_on,63,0,0
1,note_on,61,36,0
1,note_on,63,36,0
1,note_on,63,0,240
1,note_on,61,0,0
1,note_on,61,41,0
1,note_on,63,41,0
1,note_on,63,0,240
1,note_on,61,0,0
1,note_on,61,39,0
1,note_on,63,39,0
1,note_on,63,0,240
1,note_on,61,0,0
1,note_on,60,45,0
1,note_on,63,45,0
1,note_on,63,0,240
1,note_on,60,0,0
1,note_on,61,45,0
1,note_on,63,45,0
1,note_on,61,0,240
1,note_on,60,45,0
1,note_on,60,0,240
1,note_on,63,0,0
1,note_on,73,48,0
1,note_on,75,48,0
1,note_on,73,0,240
1,note_on,72,47,0
1,note_on,72,0,240
1,note_on,75,0,0
1,note_on,80,63,0
1,note_on,80,0,240
1,note_on,69,66,0
1,note_on,72,66,0
1,note_on,80,66,0
1,note_on,80,0,480
1,note_on,78,62,0
1,note_on,78,0,240
1,note_on,72,0,0
1,note_on,69,0,0
1,note_on,69,58,0
1,note_on,72,58,0
1,note_on,72,0,240
1,note_on,69,0,0
1,note_on,69,50,0
1,note_on,72,50,0
1,note_on,76,63,0
1,note_on,76,0,240
1,note_on,75,57,0
1,note_on,75,0,240
1,note_on,72,0,0
1,note_on,69,0,0
1,note_on,68,52,0
1,note_on,73,58,0
1,note_on,75,54,80
1,note_on,73,0,20
1,note_on,73,55,60
1,note_on,75,0,20
1,note_on,68,0,60
1,note_on,66,52,0
1,note_on,71,58,0
1,note_on,73,0,20
1,note_on,64,51,100
1,note_on,69,57,0
1,note_on,71,0,20
1,note_on,66,0,0
1,note_on,63,47,100
1,note_on,68,53,0
1,note_on,64,0,20
1,note_on,69,0,0
1,note_on,63,0,220
1,note_on,64,45,0
1,note_on,64,0,240
1,note_on,68,0,0
1,note_on,63,49,0
1,note_on,68,55,0
1,note_on,68,0,480
1,note_on,63,0,0
1,note_on,60,32,0
1,note_on,63,32,0
1,note_on,63,0,240
1,note_on,60,0,0
1,note_on,60,32,0
1,note_on,63,32,0
1,note_on,63,0,240
1,note_on,60,0,0
1,note_on,63,32,0
1,note_on,61,32,0
1,note_on,61,0,240
1,note_on,63,0,0
1,note_on,61,32,0
1,note_on,63,32,0
1,note_on,63,0,240
1,note_on,61,0,0
1,note_on,61,36,0
1,note_on,63,36,0
1,note_on,63,0,240
1,note_on,61,0,0
1,note_on,61,35,0
1,note_on,63,35,0
1,note_on,63,0,240
1,note_on,61,0,0
1,note_on,60,40,0
1,note_on,63,40,0
1,note_on,63,0,240
1,note_on,60,0,0
1,note_on,61,40,0
1,note_on,63,40,0
1,note_on,61,0,240
1,note_on,60,40,0
1,note_on,60,0,240
1,note_on,63,0,0
1,note_on,73,43,0
1,note_on,75,43,0
1,note_on,73,0,240
1,note_on,72,40,0
1,note_on,72,0,240
1,note_on,75,0,0
1,note_on,71,43,0
1,note_on,75,43,0
1,note_on,75,0,240
1,note_on,71,0,0
1,note_on,71,45,0
1,note_on,76,45,0
1,note_on,76,0,240
1,note_on,75,42,0
1,note_on,76,42,80
1,note_on,75,0,20
1,note_on,75,42,60
1,note_on,76,0,20
1,note_on,71,0,60
1,note_on,73,45,0
1,note_on,75,0,20
1,note_on,73,0,340
1,note_on,73,42,0
1,note_on,73,0,120
1,note_on,71,48,0
1,note_on,75,48,0
1,note_on,75,0,120
1,note_on,78,45,0
1,note_on,78,0,120
1,note_on,75,47,0
1,note_on,75,0,120
1,note_on,71,0,0
1,note_on,71,45,0
1,note_on,71,0,120
1,note_on,73,46,0
1,note_on,73,0,120
1,note_on,73,43,120
1,note_on,75,43,80
1,note_on,73,0,20
1,note_on,73,43,60
1,note_on,75,0,20
1,note_on,71,46,60
1,note_on,73,0,20
1,note_on,71,0,100
1,note_on,76,42,0
1,note_on,76,0,120
1,note_on,73,44,0
1,note_on,73,0,120
1,note_on,75,43,0
1,note_on,75,0,120
1,note_on,71,43,0
1,note_on,71,0,480
1,note_on,61,53,0
1,note_on,63,53,0
1,note_on,61,0,480
1,note_on,60,53,0
1,note_on,60,0,480
1,note_on,63,0,0
1,note_on,63,57,0
1,note_on,61,57,0
1,note_on,61,0,480
1,note_on,60,53,0
1,note_on,63,0,230
1,note_on,60,0,10
1,note_on,87,48,0
1,note_on,87,0,120
1,note_on,88,45,0
1,note_on,88,0,120
1,note_on,90,48,0
1,note_on,90,0,120
1,note_on,92,45,0
1,note_on,92,0,120
1,note_on,90,45,0
1,note_on,90,0,120
1,note_on,87,45,0
1,note_on,87,0,120
1,note_on,84,48,0
1,note_on,84,0,120
1,note_on,88,45,0
1,note_on,88,0,120
1,note_on,87,45,0
1,note_on,87,0,120
1,note_on,81,45,0
1,note_on,81,0,120
1,note_on,80,55,0
1,note_on,80,0,240
1,note_on,63,53,240
1,note_on,60,53,0
1,note_on,60,0,480
1,note_on,63,0,0
1,note_on,63,57,0
1,note_on,61,57,0
1,note_on,61,0,480
1,note_on,60,53,0
1,note_on,63,0,230
1,note_on,60,0,10
1,note_on,87,62,0
1,note_on,87,0,120
1,note_on,88,58,0
1,note_on,88,0,120
1,note_on,90,62,0
1,note_on,90,0,120
1,note_on,92,58,0
1,note_on,92,0,120
1,note_on,90,58,0
1,note_on,90,0,120
1,note_on,87,58,0
1,note_on,87,0,120
1,note_on,84,66,0
1,note_on,84,0,120
1,note_on,88,63,0
1,note_on,88,0,120
1,note_on,87,61,0
1,note_on,87,0,120
1,note_on,81,61,0
1,note_on,81,0,120
1,note_on,80,66,0
1,note_on,80,0,240
1,note_on,78,68,0
1,note_on,78,0,120
1,note_on,80,63,0
1,note_on,80,0,120
1,note_on,81,68,0
1,note_on,81,0,120
1,note_on,85,63,0
1,note_on,85,0,120
1,note_on,83,63,0
1,note_on,83,0,120
1,note_on,80,63,0
1,note_on,80,0,120
1,note_on,78,68,0
1,note_on,78,0,120
1,note_on,81,63,0
1,note_on,81,0,120
1,note_on,80,63,0
1,note_on,80,0,120
1,note_on,76,63,0
1,note_on,76,0,120
1,note_on,75,68,0
1,note_on,75,0,120
1,note_on,76,66,0
1,note_on,76,0,120
1,note_on,78,66,0
1,note_on,78,0,120
1,note_on,80,66,0
1,note_on,80,0,120
1,note_on,78,72,0
1,note_on,78,0,120
1,note_on,75,69,0
1,note_on,75,0,120
1,note_on,76,70,0
1,note_on,76,0,120
1,note_on,73,68,0
1,note_on,73,0,120
1,note_on,75,68,0
1,note_on,75,0,120
1,note_on,71,65,0
1,note_on,71,0,120
1,note_on,73,68,0
1,note_on,73,0,120
1,note_on,69,64,0
1,note_on,69,0,120
1,note_on,68,68,0
1,note_on,68,0,240
1,note_on,61,68,0
1,note_on,66,68,0
1,note_on,66,0,80
1,note_on,68,58,0
1,note_on,68,0,80
1,note_on,69,57,0
1,note_on,69,0,80
1,note_on,61,0,0
1,note_on,63,63,0
1,note_on,68,63,0
1,note_on,68,0,80
1,note_on,69,54,0
1,note_on,69,0,80
1,note_on,68,55,0
1,note_on,68,0,80
1,note_on,63,0,0
1,note_on,61,68,0
1,note_on,66,68,0
1,note_on,66,0,80
1,note_on,68,56,0
1,note_on,68,0,80
1,note_on,69,56,0
1,note_on,69,0,80
1,note_on,61,0,0
1,note_on,63,59,0
1,note_on,68,59,0
1,note_on,68,0,80
1,note_on,69,55,0
1,note_on,69,0,80
1,note_on,68,55,0
1,note_on,68,0,80
1,note_on,63,0,0
1,note_on,61,65,0
1,note_on,66,65,0
1,note_on,66,0,80
1,note_on,68,55,0
1,note_on,68,0,80
1,note_on,69,55,0
1,note_on,69,0,80
1,note_on,61,0,0
1,note_on,63,68,0
1,note_on,68,68,0
1,note_on,68,0,240
1,note_on,63,0,0
1,note_on,68,55,1440
1,note_on,65,55,80
1,note_on,68,0,20
1,note_on,61,55,60
1,note_on,65,0,20
1,note_on,56,62,60
1,note_on,61,0,20
1,note_on,56,0,100
1,note_on,56,46,120
1,note_on,61,46,0
1,note_on,65,55,0
1,note_on,68,57,0
1,note_on,68,0,480
1,note_on,56,0,0
1,note_on,61,0,0
1,note_on,65,0,0
1,note_on,56,51,0
1,note_on,59,51,0
1,note_on,65,61,0
1,note_on,68,61,0
1,note_on,68,0,240
1,note_on,56,0,0
1,note_on,59,0,0
1,note_on,65,0,0
1,note_on,68,55,240
1,note_on,66,55,80
1,note_on,68,0,20
1,note_on,60,55,60
1,note_on,66,0,20
1,note_on,56,62,60
1,note_on,60,0,20
1,note_on,56,0,100
1,note_on,56,49,120
1,note_on,60,49,0
1,note_on,66,58,0
1,note_on,68,60,0
1,note_on,68,0,480
1,note_on,56,0,0
1,note_on,60,0,0
1,note_on,66,0,0
1,note_on,56,45,0
1,note_on,64,54,0
1,note_on,68,54,0
1,note_on,68,0,240
1,note_on,64,0,0
1,note_on,56,0,0
1,note_on,68,30,240
1,note_on,65,30,80
1,note_on,68,0,20
1,note_on,61,30,60
1,note_on,65,0,20
1,note_on,56,34,60
1,note_on,61,0,20
1,note_on,56,0,100
1,note_on,56,30,120
1,note_on,61,30,0
1,note_on,65,30,0
1,note_on,68,32,0
1,note_on,68,0,480
1,note_on,56,0,0
1,note_on,61,0,0
1,note_on,65,0,0
1,note_on,56,29,0
1,note_on,59,29,0
1,note_on,65,29,0
1,note_on,68,29,0
1,note_on,68,0,240
1,note_on,56,0,0
1,note_on,59,0,0
1,note_on,65,0,0
1,note_on,68,30,240
1,note_on,66,30,80
1,note_on,68,0,20
1,note_on,60,30,60
1,note_on,66,0,20
1,note_on,56,34,60
1,note_on,60,0,20
1,note_on,56,0,100
1,note_on,56,35,120
1,note_on,60,35,0
1,note_on,66,35,0
1,note_on,68,37,0
1,note_on,68,0,480
1,note_on,56,0,0
1,note_on,60,0,0
1,note_on,66,0,0
1,note_on,56,35,0
1,note_on,64,35,0
1,note_on,68,35,0
1,note_on,68,0,210
1,note_on,64,0,0
1,note_on,56,0,0
1,note_on,77,45,30
1,note_on,65,45,0
1,note_on,65,0,240
1,note_on,77,0,0
1,note_on,65,45,240
1,note_on,77,47,0
1,note_on,77,0,720
1,note_on,65,0,0
1,note_on,65,41,0
1,note_on,77,41,0
1,note_on,77,0,240
1,note_on,65,0,0
1,note_on,65,46,0
1,note_on,77,46,0
1,note_on,77,0,360
1,note_on,65,0,0
1,note_on,68,43,0
1,note_on,80,43,0
1,note_on,80,0,120
1,note_on,68,0,0
1,note_on,68,43,0
1,note_on,80,43,0
1,note_on,80,0,960
1,note_on,68,0,0
1,note_on,78,55,240
1,note_on,66,55,0
1,note_on,68,58,240
1,note_on,80,58,0
1,note_on,66,0,20
1,note_on,78,0,0
1,note_on,70,61,220
1,note_on,82,61,0
1,note_on,68,0,20
1,note_on,80,0,0
1,note_on,73,64,220
1,note_on,85,64,0
1,note_on,70,0,20
1,note_on,82,0,0
1,note_on,72,62,220
1,note_on,84,62,0
1,note_on,73,0,20
1,note_on,85,0,0
1,note_on,75,71,220
1,note_on,87,71,0
1,note_on,72,0,20
1,note_on,84,0,0
1,note_on,70,56,220
1,note_on,82,56,0
1,note_on,75,0,20
1,note_on,87,0,0
1,note_on,68,55,220
1,note_on,80,55,0
1,note_on,70,0,20
1,note_on,82,0,0
1,note_on,68,0,940
1,note_on,80,0,0
1,note_on,77,45,0
1,note_on,65,45,0
1,note_on,65,0,240
1,note_on,77,0,0
1,note_on,65,45,240
1,note_on,77,45,0
1,note_on,77,0,720
1,note_on,65,0,0
1,note_on,65,41,0
1,note_on,77,41,0
1,note_on,77,0,240
1,note_on,65,0,0
1,note_on,65,46,0
1,note_on,77,46,0
1,note_on,77,0,360
1,note_on,65,0,0
1,note_on,68,43,0
1,note_on,80,43,0
1,note_on,80,0,120
1,note_on,68,0,0
1,note_on,68,43,0
1,note_on,80,43,0
1,note_on,80,0,960
1,note_on,68,0,0
1,note_on,78,55,240
1,note_on,66,55,0
1,note_on,68,58,240
1,note_on,80,58,0
1,note_on,66,0,20
1,note_on,78,0,0
1,note_on,70,61,220
1,note_on,82,61,0
1,note_on,68,0,20
1,note_on,80,0,0
1,note_on,73,64,220
1,note_on,85,64,0
1,note_on,70,0,20
1,note_on,82,0,0
1,note_on,72,62,220
1,note_on,84,62,0
1,note_on,73,0,20
1,note_on,85,0,0
1,note_on,78,65,220
1,note_on,90,69,0
1,note_on,72,0,20
1,note_on,84,0,0
1,note_on,70,56,220
1,note_on,82,56,0
1,note_on,78,0,20
1,note_on,90,0,0
1,note_on,68,55,220
1,note_on,80,55,0
1,note_on,70,0,20
1,note_on,82,0,0
1,note_on,68,0,940
1,note_on,80,0,0
1,note_on,85,58,0
1,note_on,73,58,0
1,note_on,73,0,240
1,note_on,85,0,0
1,note_on,73,58,240
1,note_on,85,58,0
1,note_on,85,0,720
1,note_on,73,0,0
1,note_on,72,53,0
1,note_on,84,53,0
1,note_on,84,0,240
1,note_on,72,0,0
1,note_on,84,58,0
1,note_on,72,58,0
1,note_on,72,0,480
1,note_on,84,0,0
1,note_on,70,55,0
1,note_on,82,55,0
1,note_on,82,0,240
1,note_on,70,0,0
1,note_on,65,55,0
1,note_on,77,55,0
1,note_on,77,0,240
1,note_on,65,0,0
1,note_on,68,58,0
1,note_on,80,58,0
1,note_on,80,0,240
1,note_on,68,0,0
1,note_on,70,53,0
1,note_on,82,53,0
1,note_on,82,0,240
1,note_on,70,0,0
1,note_on,80,58,0
1,note_on,68,58,0
1,note_on,68,0,480
1,note_on,80,0,0
1,note_on,66,58,0
1,note_on,78,58,0
1,note_on,78,0,240
1,note_on,66,0,0
1,note_on,71,57,0
1,note_on,74,57,0
1,note_on,74,0,180
1,note_on,71,0,0
1,note_on,71,53,0
1,note_on,78,58,60
1,note_on,78,0,240
1,note_on,71,0,0
1,note_on,71,54,0
1,note_on,77,54,0
1,note_on,77,0,180
1,note_on,71,0,0
1,note_on,66,41,0
1,note_on,77,56,60
1,note_on,77,0,480
1,note_on,75,56,0
1,note_on,75,0,960
1,note_on,66,0,0
1,note_on,67,47,0
1,note_on,65,47,0
1,note_on,73,56,0
1,note_on,73,0,240
1,note_on,65,0,0
1,note_on,67,0,0
1,note_on,63,45,0
1,note_on,67,45,0
1,note_on,72,53,0
1,note_on,72,0,240
1,note_on,67,0,0
1,note_on,63,0,0
1,note_on,61,45,0
1,note_on,67,45,0
1,note_on,72,53,0
1,note_on,72,0,480
1,note_on,67,0,0
1,note_on,61,0,0
1,note_on,61,47,0
1,note_on,67,47,0
1,note_on,70,56,0
1,note_on,70,0,180
1,note_on,67,0,0
1,note_on,61,0,0
1,note_on,61,35,0
1,note_on,67,42,30
1,note_on,75,55,30
1,note_on,75,0,240
1,note_on,67,0,0
1,note_on,61,0,0
1,note_on,63,45,0
1,note_on,68,45,0
1,note_on,68,0,240
1,note_on,63,0,0
1,note_on,65,41,0
1,note_on,70,41,0
1,note_on,70,0,240
1,note_on,65,0,0
1,note_on,68,45,0
1,note_on,73,45,0
1,note_on,73,0,240
1,note_on,68,0,0
1,note_on,67,42,0
1,note_on,72,42,0
1,note_on,72,0,180
1,note_on,67,0,0
1,note_on,68,42,0
1,note_on,75,46,60
1,note_on,75,0,240
1,note_on,68,0,0
1,note_on,67,42,0
1,note_on,72,42,0
1,note_on,72,0,180
1,note_on,67,0,0
1,note_on,61,34,0
1,note_on,67,34,30
1,note_on,73,47,30
1,note_on,73,0,480
1,note_on,67,0,0
1,note_on,61,0,0
1,note_on,65,46,0
1,note_on,67,46,0
1,note_on,73,46,0
1,note_on,73,0,480
1,note_on,67,0,0
1,note_on,65,0,0
1,note_on,61,44,0
1,note_on,67,44,0
1,note_on,72,44,0
1,note_on,72,0,480
1,note_on,67,0,0
1,note_on,61,0,0
1,note_on,63,45,0
1,note_on,68,45,0
1,note_on,68,0,240
1,note_on,63,0,0
1,note_on,65,42,0
1,note_on,70,42,0
1,note_on,70,0,240
1,note_on,65,0,0
1,note_on,66,48,0
1,note_on,72,48,0
1,note_on,72,0,240
1,note_on,66,0,0
1,note_on,72,47,0
1,note_on,78,53,0
1,note_on,78,0,240
1,note_on,72,0,0
1,note_on,72,41,0
1,note_on,77,46,0
1,note_on,77,0,240
1,note_on,72,0,0
1,note_on,72,34,0
1,note_on,76,38,0
1,note_on,76,0,240
1,note_on,72,0,0
1,note_on,77,52,0
1,note_on,65,46,0
1,note_on,65,0,240
1,note_on,77,0,0
1,note_on,65,55,240
1,note_on,77,62,0
1,note_on,77,0,720
1,note_on,65,0,0
1,note_on,65,56,0
1,note_on,77,63,0
1,note_on,77,0,240
1,note_on,65,0,0
1,note_on,65,63,0
1,note_on,77,71,0
1,note_on,77,0,360
1,note_on,65,0,0
1,note_on,68,60,0
1,note_on,80,67,0
1,note_on,80,0,120
1,note_on,68,0,0
1,note_on,68,60,0
1,note_on,80,67,0
1,note_on,80,0,960
1,note_on,68,0,0
1,note_on,78,66,240
1,note_on,66,59,0
1,note_on,68,61,240
1,note_on,80,68,0
1,note_on,66,0,20
1,note_on,78,0,0
1,note_on,70,63,220
1,note_on,82,70,0
1,note_on,68,0,20
1,note_on,80,0,0
1,note_on,73,65,220
1,note_on,85,73,0
1,note_on,70,0,20
1,note_on,82,0,0
1,note_on,72,62,220
1,note_on,84,69,0
1,note_on,73,0,20
1,note_on,85,0,0
1,note_on,75,70,220
1,note_on,87,83,0
1,note_on,72,0,20
1,note_on,84,0,0
1,note_on,70,60,220
1,note_on,82,67,0
1,note_on,75,0,20
1,note_on,87,0,0
1,note_on,68,56,220
1,note_on,80,63,0
1,note_on,70,0,20
1,note_on,82,0,0
1,note_on,68,0,940
1,note_on,80,0,0
1,note_on,77,45,0
1,note_on,65,45,0
1,note_on,65,0,240
1,note_on,77,0,0
1,note_on,65,45,240
1,note_on,77,45,0
1,note_on,77,0,720
1,note_on,65,0,0
1,note_on,65,41,0
1,note_on,77,41,0
1,note_on,77,0,240
1,note_on,65,0,0
1,note_on,65,46,0
1,note_on,77,46,0
1,note_on,77,0,360
1,note_on,65,0,0
1,note_on,68,43,0
1,note_on,80,43,0
1,note_on,80,0,120
1,note_on,68,0,0
1,note_on,68,43,0
1,note_on,80,43,0
1,note_on,80,0,960
1,note_on,68,0,0
1,note_on,78,55,240
1,note_on,66,55,0
1,note_on,68,57,240
1,note_on,80,57,0
1,note_on,66,0,20
1,note_on,78,0,0
1,note_on,70,59,220
1,note_on,82,59,0
1,note_on,68,0,20
1,note_on,80,0,0
1,note_on,73,61,220
1,note_on,85,61,0
1,note_on,70,0,20
1,note_on,82,0,0
1,note_on,72,58,220
1,note_on,84,58,0
1,note_on,73,0,20
1,note_on,85,0,0
1,note_on,78,65,220
1,note_on,90,65,0
1,note_on,72,0,20
1,note_on,84,0,0
1,note_on,70,56,220
1,note_on,82,56,0
1,note_on,78,0,20
1,note_on,90,0,0
1,note_on,68,55,220
1,note_on,80,55,0
1,note_on,70,0,20
1,note_on,82,0,0
1,note_on,68,0,460
1,note_on,80,0,0
1,note_on,69,33,0
1,note_on,75,33,0
1,note_on,80,40,0
1,note_on,75,0,240
1,note_on,69,0,0
1,note_on,79,37,0
1,note_on,80,0,20
1,note_on,79,0,220
1,note_on,80,49,0
1,note_on,68,49,0
1,note_on,68,0,240
1,note_on,80,0,0
1,note_on,68,52,240
1,note_on,80,52,0
1,note_on,80,0,720
1,note_on,68,0,0
1,note_on,68,53,0
1,note_on,80,53,0
1,note_on,80,0,240
1,note_on,68,0,0
1,note_on,83,58,0
1,note_on,71,52,0
1,note_on,71,0,240
1,note_on,83,0,0
1,note_on,69,52,0
1,note_on,81,58,0
1,note_on,81,0,240
1,note_on,69,0,0
1,note_on,73,58,0
1,note_on,85,65,0
1,note_on,85,0,240
1,note_on,73,0,0
1,note_on,75,54,0
1,note_on,87,61,0
1,note_on,87,0,240
1,note_on,75,0,0
1,note_on,80,64,0
1,note_on,92,72,0
1,note_on,92,0,240
1,note_on,80,0,0
1,note_on,78,61,0
1,note_on,90,68,0
1,note_on,90,0,240
1,note_on,78,0,0
1,note_on,80,49,0
1,note_on,68,49,0
1,note_on,68,0,240
1,note_on,80,0,0
1,note_on,68,49,240
1,note_on,80,49,0
1,note_on,80,0,720
1,note_on,68,0,0
1,note_on,68,45,0
1,note_on,80,45,0
1,note_on,80,0,240
1,note_on,68,0,0
1,note_on,83,49,0
1,note_on,71,49,0
1,note_on,71,0,240
1,note_on,83,0,0
1,note_on,69,49,0
1,note_on,81,49,0
1,note_on,81,0,240
1,note_on,69,0,0
1,note_on,73,51,0
1,note_on,85,51,0
1,note_on,85,0,240
1,note_on,73,0,0
1,note_on,75,48,0
1,note_on,87,48,0
1,note_on,87,0,180
1,note_on,75,0,0
1,note_on,80,48,0
1,note_on,92,55,60
1,note_on,92,0,240
1,note_on,80,0,0
1,note_on,78,52,0
1,note_on,90,52,0
1,note_on,90,0,240
1,note_on,78,0,0
1,note_on,80,63,0
1,note_on,68,53,0
1,note_on,68,0,480
1,note_on,80,0,0
1,note_on,78,58,0
1,note_on,68,49,0
1,note_on,80,58,0
1,note_on,80,0,480
1,note_on,68,0,0
1,note_on,78,0,0
1,note_on,68,56,0
1,note_on,76,66,0
1,note_on,80,66,0
1,note_on,76,0,480
1,note_on,77,66,0
1,note_on,77,0,240
1,note_on,80,0,0
1,note_on,68,0,0
1,note_on,66,48,0
1,note_on,72,57,0
1,note_on,75,57,0
1,note_on,75,0,240
1,note_on,72,0,0
1,note_on,66,0,0
1,note_on,65,53,0
1,note_on,73,63,0
1,note_on,73,0,240
1,note_on,65,0,0
1,note_on,63,47,0
1,note_on,69,56,0
1,note_on,72,56,0
1,note_on,72,0,240
1,note_on,69,0,0
1,note_on,63,0,0
1,note_on,61,51,0
1,note_on,70,60,0
1,note_on,70,0,240
1,note_on,61,0,0
1,note_on,65,53,0
1,note_on,68,53,0
1,note_on,68,0,240
1,note_on,65,0,0
1,note_on,66,58,0
1,note_on,66,0,240
1,note_on,68,55,0
1,note_on,68,0,240
1,note_on,69,55,0
1,note_on,69,0,240
1,note_on,70,60,0
1,note_on,70,0,240
1,note_on,73,65,0
1,note_on,73,0,240
1,note_on,66,58,0
1,note_on,66,0,180
1,note_on,60,50,0
1,note_on,66,51,30
1,note_on,70,58,30
1,note_on,70,0,420
1,note_on,66,0,0
1,note_on,60,0,0
1,note_on,66,48,0
1,note_on,77,58,60
1,note_on,77,0,720
1,note_on,72,53,0
1,note_on,72,0,240
1,note_on,66,0,0
1,note_on,68,39,240
1,note_on,65,39,80
1,note_on,68,0,20
1,note_on,61,39,60
1,note_on,65,0,20
1,note_on,56,44,60
1,note_on,61,0,20
1,note_on,56,0,100
1,note_on,56,33,120
1,note_on,61,33,0
1,note_on,68,40,0
1,note_on,65,39,0
1,note_on,65,0,480
1,note_on,56,0,0
1,note_on,61,0,0
1,note_on,68,0,0
1,note_on,56,36,0
1,note_on,59,36,0
1,note_on,65,43,0
1,note_on,68,43,0
1,note_on,68,0,240
1,note_on,56,0,0
1,note_on,59,0,0
1,note_on,65,0,0
1,note_on,68,39,240
1,note_on,66,39,80
1,note_on,68,0,20
1,note_on,60,39,60
1,note_on,66,0,20
1,note_on,56,44,60
1,note_on,60,0,20
1,note_on,56,0,100
1,note_on,56,34,120
1,note_on,60,34,0
1,note_on,66,41,0
1,note_on,68,43,0
1,note_on,68,0,480
1,note_on,56,0,0
1,note_on,60,0,0
1,note_on,66,0,0
1,note_on,56,32,0
1,note_on,64,38,0
1,note_on,68,38,0
1,note_on,68,0,240
1,note_on,64,0,0
1,note_on,56,0,0
1,note_on,68,27,240
1,note_on,65,27,80
1,note_on,68,0,20
1,note_on,61,27,60
1,note_on,65,0,20
1,note_on,56,30,60
1,note_on,61,0,20
1,note_on,56,0,100
1,note_on,56,27,120
1,note_on,61,27,0
1,note_on,65,27,0
1,note_on,68,28,0
1,note_on,68,0,480
1,note_on,56,0,0
1,note_on,61,0,0
1,note_on,65,0,0
1,note_on,56,26,0
1,note_on,59,26,0
1,note_on,65,26,0
1,note_on,68,26,0
1,note_on,68,0,240
1,note_on,56,0,0
1,note_on,59,0,0
1,note_on,65,0,0
1,note_on,68,27,240
1,note_on,66,27,80
1,note_on,68,0,20
1,note_on,60,27,60
1,note_on,66,0,20
1,note_on,56,30,60
1,note_on,60,0,20
1,note_on,56,0,100
1,note_on,56,31,120
1,note_on,60,31,0
1,note_on,66,31,0
1,note_on,68,33,0
1,note_on,68,0,480
1,note_on,56,0,0
1,note_on,60,0,0
1,note_on,66,0,0
1,note_on,56,31,0
1,note_on,64,31,0
1,note_on,68,31,0
1,note_on,68,0,240
1,note_on,64,0,0
1,note_on,56,0,0
1,note_on,56,31,0
1,note_on,65,31,0
1,note_on,68,31,0
1,note_on,68,0,240
1,note_on,65,0,0
1,note_on,56,0,0
1,note_on,65,33,120
1,note_on,61,33,0
1,note_on,61,0,60
1,note_on,65,0,0
1,note_on,68,33,180
1,note_on,65,33,0
1,note_on,65,0,60
1,note_on,68,0,0
1,note_on,73,33,180
1,note_on,68,33,0
1,note_on,68,0,60
1,note_on,73,0,0
1,note_on,77,32,180
1,note_on,73,32,0
1,note_on,73,0,60
1,note_on,77,0,0
1,note_on,80,32,180
1,note_on,77,32,0
1,note_on,77,0,60
1,note_on,80,0,0
1,note_on,85,31,180
1,note_on,80,31,0
1,note_on,80,0,60
1,note_on,85,0,0
1,note_on,73,31,180
1,note_on,77,31,0
1,note_on,77,0,60
1,note_on,73,0,0
1,note_on,80,30,180
1,note_on,77,30,0
1,note_on,77,0,60
1,note_on,80,0,0
1,note_on,85,30,180
1,note_on,80,30,0
1,note_on,80,0,60
1,note_on,85,0,0
1,note_on,89,30,180
1,note_on,85,30,0
1,note_on,85,0,60
1,note_on,89,0,0
1,note_on,92,29,180
1,note_on,89,29,0
1,note_on,89,0,60
1,note_on,92,0,0
1,note_on,85,29,30
1,note_on,89,35,15
1,note_on,97,35,15
1,note_on,97,0,1440
1,note_on,89,0,0
1,note_on,85,0,0
1,note_on,65,26,0
1,note_on,61,20,0
1,note_on,53,20,0
1,note_on,53,0,1440
1,note_on,61,0,0
1,note_on,65,0,0
2,note_on,49,34,0
2,note_on,49,0,219
2,note_on,44,34,0
2,note_on,44,0,240
2,note_on,50,39,0
2,note_on,50,0,226
2,note_on,51,49,0
2,note_on,51,0,194
2,note_on,44,39,0
2,note_on,44,0,240
2,note_on,48,35,0
2,note_on,48,0,222
2,note_on,49,27,0
2,note_on,49,0,219
2,note_on,44,27,0
2,note_on,44,0,240
2,note_on,50,31,0
2,note_on,50,0,233
2,note_on,51,36,0
2,note_on,51,0,194
2,note_on,44,31,0
2,note_on,44,0,240
2,note_on,48,34,0
2,note_on,48,0,206
2,note_on,49,39,20
2,note_on,49,0,120
2,note_on,55,32,120
2,note_on,56,32,80
2,note_on,55,0,20
2,note_on,61,31,60
2,note_on,56,0,20
2,note_on,61,0,60
2,note_on,68,42,137
2,note_on,68,0,240
2,note_on,44,38,0
2,note_on,44,0,120
2,note_on,61,34,0
2,note_on,68,34,0
2,note_on,56,34,0
2,note_on,56,0,120
2,note_on,68,0,0
2,note_on,61,0,0
2,note_on,49,39,120
2,note_on,49,0,100
2,note_on,55,32,120
2,note_on,56,32,80
2,note_on,55,0,20
2,note_on,61,31,60
2,note_on,56,0,20
2,note_on,65,38,60
2,note_on,61,0,14
2,note_on,65,0,100
2,note_on,56,40,94
2,note_on,65,40,0
2,note_on,61,40,0
2,note_on,61,0,240
2,note_on,65,0,0
2,note_on,56,0,0
2,note_on,44,38,0
2,note_on,44,0,120
2,note_on,61,30,77
2,note_on,65,30,0
2,note_on,56,30,0
2,note_on,56,0,120
2,note_on,65,0,0
2,note_on,61,0,0
2,note_on,51,46,120
2,note_on,51,0,74
2,note_on,55,38,120
2,note_on,56,38,80
2,note_on,55,0,20
2,note_on,60,37,60
2,note_on,56,0,20
2,note_on,66,45,60
2,note_on,60,0,3
2,note_on,66,0,28
2,note_on,56,49,120
2,note_on,66,49,0
2,note_on,60,49,0
2,note_on,60,0,240
2,note_on,66,0,0
2,note_on,56,0,0
2,note_on,44,47,0
2,note_on,44,0,31
2,note_on,66,38,120
2,note_on,56,38,0
2,note_on,60,38,0
2,note_on,60,0,120
2,note_on,56,0,0
2,note_on,66,0,0
2,note_on,51,53,120
2,note_on,51,0,43
2,note_on,55,38,120
2,note_on,56,38,80
2,note_on,55,0,20
2,note_on,60,37,60
2,note_on,56,0,20
2,note_on,66,45,60
2,note_on,60,0,20
2,note_on,66,0,93
2,note_on,56,43,103
2,note_on,66,43,0
2,note_on,60,43,0
2,note_on,60,0,240
2,note_on,66,0,0
2,note_on,56,0,0
2,note_on,44,37,0
2,note_on,44,0,120
2,note_on,60,36,120
2,note_on,56,36,0
2,note_on,66,36,0
2,note_on,66,0,120
2,note_on,56,0,0
2,note_on,60,0,0
2,note_on,49,46,120
2,note_on,49,0,57
2,note_on,55,38,120
2,note_on,56,38,80
2,note_on,55,0,20
2,note_on,61,37,60
2,note_on,56,0,20
2,note_on,61,0,60
2,note_on,68,50,137
2,note_on,68,0,240
2,note_on,44,45,0
2,note_on,44,0,120
2,note_on,68,40,120
2,note_on,61,40,0
2,note_on,56,40,0
2,note_on,56,0,114
2,note_on,61,0,0
2,note_on,68,0,0
2,note_on,49,46,120
2,note_on,49,0,65
2,note_on,55,38,120
2,note_on,56,38,80
2,note_on,55,0,20
2,note_on,61,37,60
2,note_on,56,0,20
2,note_on,65,45,60
2,note_on,61,0,13
2,note_on,65,0,40
2,note_on,61,48,120
2,note_on,65,48,0
2,note_on,56,48,0
2,note_on,56,0,240
2,note_on,65,0,0
2,note_on,61,0,0
2,note_on,44,45,0
2,note_on,44,0,120
2,note_on,65,36,111
2,note_on,56,36,0
2,note_on,61,36,0
2,note_on,61,0,120
2,note_on,56,0,0
2,note_on,65,0,0
2,note_on,51,46,120
2,note_on,51,0,74
2,note_on,55,38,120
2,note_on,56,38,80
2,note_on,55,0,20
2,note_on,60,37,60
2,note_on,56,0,20
2,note_on,66,45,60
2,note_on,60,0,5
2,note_on,66,0,34
2,note_on,60,49,120
2,note_on,66,49,0
2,note_on,56,49,0
2,note_on,56,0,240
2,note_on,66,0,0
2,note_on,60,0,0
2,note_on,44,47,0
2,note_on,44,0,23
2,note_on,60,38,120
2,note_on,66,38,0
2,note_on,56,38,0
2,note_on,56,0,120
2,note_on,66,0,0
2,note_on,60,0,0
2,note_on,51,53,0
2,note_on,51,0,66
2,note_on,55,38,120
2,note_on,56,38,80
2,note_on,55,0,20
2,note_on,60,37,60
2,note_on,56,0,20
2,note_on,66,45,60
2,note_on,60,0,20
2,note_on,66,0,93
2,note_on,60,43,103
2,note_on,56,43,0
2,note_on,66,43,0
2,note_on,66,0,240
2,note_on,56,0,0
2,note_on,60,0,0
2,note_on,44,37,0
2,note_on,44,0,120
2,note_on,64,36,117
2,note_on,56,36,0
2,note_on,60,36,0
2,note_on,60,0,120
2,note_on,56,0,0
2,note_on,64,0,0
2,note_on,53,50,120
2,note_on,53,0,57
2,note_on,57,41,120
2,note_on,61,41,80
2,note_on,57,0,20
2,note_on,65,40,60
2,note_on,61,0,20
2,note_on,65,0,60
2,note_on,69,55,0
2,note_on,69,0,106
2,note_on,65,49,77
2,note_on,61,49,0
2,note_on,61,0,240
2,note_on,65,0,0
2,note_on,53,49,0
2,note_on,53,0,120
2,note_on,57,44,120
2,note_on,63,44,0
2,note_on,63,0,105
2,note_on,57,0,0
2,note_on,54,50,120
2,note_on,54,0,57
2,note_on,60,41,120
2,note_on,61,41,80
2,note_on,60,0,20
2,note_on,66,40,60
2,note_on,61,0,20
2,note_on,66,0,60
2,note_on,62,55,137
2,note_on,62,0,240
2,note_on,50,49,0
2,note_on,50,0,120
2,note_on,65,44,120
2,note_on,58,44,0
2,note_on,58,0,120
2,note_on,65,0,0
2,note_on,51,50,0
2,note_on,51,0,45
2,note_on,57,41,120
2,note_on,58,41,80
2,note_on,57,0,20
2,note_on,63,40,60
2,note_on,58,0,20
2,note_on,63,0,60
2,note_on,58,50,222
2,note_on,70,46,168
2,note_on,70,0,240
2,note_on,68,43,0
2,note_on,68,0,237
2,note_on,58,0,0
2,note_on,51,46,0
2,note_on,51,0,57
2,note_on,57,38,120
2,note_on,58,38,80
2,note_on,57,0,20
2,note_on,59,37,60
2,note_on,58,0,20
2,note_on,58,50,54
2,note_on,59,0,6
2,note_on,58,0,228
2,note_on,62,50,9
2,note_on,62,0,191
2,note_on,65,55,0
2,note_on,65,0,240
2,note_on,63,51,0
2,note_on,39,46,237
2,note_on,63,0,3
2,note_on,39,0,25
2,note_on,50,38,120
2,note_on,51,38,80
2,note_on,50,0,20
2,note_on,53,37,60
2,note_on,51,0,20
2,note_on,53,0,60
2,note_on,51,50,0
2,note_on,51,0,112
2,note_on,51,50,120
2,note_on,51,0,411
2,note_on,51,46,0
2,note_on,51,0,232
2,note_on,60,49,0
2,note_on,51,49,0
2,note_on,60,0,123
2,note_on,61,46,0
2,note_on,61,0,240
2,note_on,65,49,0
2,note_on,65,0,155
2,note_on,63,45,0
2,note_on,63,0,240
2,note_on,67,48,0
2,note_on,67,0,113
2,note_on,63,45,0
2,note_on,63,0,240
2,note_on,51,0,0
2,note_on,51,46,0
2,note_on,51,0,14
2,note_on,62,38,120
2,note_on,63,38,80
2,note_on,62,0,20
2,note_on,65,37,60
2,note_on,63,0,20
2,note_on,65,0,60
2,note_on,63,43,0
2,note_on,63,0,110
2,note_on,63,50,0
2,note_on,63,0,480
2,note_on,63,46,0
2,note_on,63,0,240
2,note_on,60,49,0
2,note_on,56,49,0
2,note_on,60,0,91
2,note_on,61,46,0
2,note_on,61,0,240
2,note_on,63,49,0
2,note_on,63,0,80
2,note_on,70,50,0
2,note_on,70,0,240
2,note_on,68,50,0
2,note_on,68,0,148
2,note_on,66,47,0
2,note_on,66,0,240
2,note_on,56,0,0
2,note_on,49,55,0
2,note_on,49,0,57
2,note_on,55,49,120
2,note_on,56,49,80
2,note_on,55,0,20
2,note_on,61,48,60
2,note_on,56,0,20
2,note_on,61,0,60
2,note_on,68,61,137
2,note_on,68,0,240
2,note_on,44,59,0
2,note_on,44,0,120
2,note_on,61,52,0
2,note_on,56,52,0
2,note_on,68,52,0
2,note_on,68,0,120
2,note_on,56,0,0
2,note_on,61,0,0
2,note_on,49,60,120
2,note_on,49,0,100
2,note_on,55,49,120
2,note_on,56,49,80
2,note_on,55,0,20
2,note_on,61,48,60
2,note_on,56,0,20
2,note_on,65,60,60
2,note_on,61,0,7
2,note_on,65,0,45
2,note_on,56,57,120
2,note_on,65,57,0
2,note_on,61,57,0
2,note_on,61,0,240
2,note_on,65,0,0
2,note_on,56,0,0
2,note_on,44,61,0
2,note_on,44,0,120
2,note_on,61,49,120
2,note_on,56,49,0
2,note_on,65,49,0
2,note_on,65,0,117
2,note_on,56,0,0
2,note_on,61,0,0
2,note_on,51,57,120
2,note_on,51,0,68
2,note_on,55,47,120
2,note_on,56,47,80
2,note_on,55,0,20
2,note_on,60,46,60
2,note_on,56,0,20
2,note_on,66,56,60
2,note_on,60,0,3
2,note_on,66,0,25
2,note_on,56,59,120
2,note_on,66,59,0
2,note_on,60,59,0
2,note_on,60,0,240
2,note_on,66,0,0
2,note_on,56,0,0
2,note_on,44,56,0
2,note_on,44,0,28
2,note_on,66,44,120
2,note_on,56,44,0
2,note_on,60,44,0
2,note_on,60,0,120
2,note_on,56,0,0
2,note_on,66,0,0
2,note_on,51,60,120
2,note_on,51,0,66
2,note_on,55,47,120
2,note_on,56,47,80
2,note_on,55,0,20
2,note_on,60,44,60
2,note_on,56,0,20
2,note_on,66,55,60
2,note_on,60,0,20
2,note_on,66,0,94
2,note_on,56,51,103
2,note_on,66,51,0
2,note_on,60,51,0
2,note_on,60,0,240
2,note_on,66,0,0
2,note_on,56,0,0
2,note_on,44,42,0
2,note_on,44,0,120
2,note_on,60,40,108
2,note_on,66,40,0
2,note_on,56,40,0
2,note_on,56,0,120
2,note_on,66,0,0
2,note_on,60,0,0
2,note_on,49,39,120
2,note_on,49,0,57
2,note_on,55,32,120
2,note_on,56,32,80
2,note_on,55,0,20
2,note_on,61,31,60
2,note_on,56,0,20
2,note_on,61,0,60
2,note_on,68,42,137
2,note_on,68,0,240
2,note_on,44,38,0
2,note_on,44,0,120
2,note_on,68,34,120
2,note_on,56,34,0
2,note_on,61,34,0
2,note_on,61,0,110
2,note_on,56,0,0
2,note_on,68,0,0
2,note_on,49,39,120
2,note_on,49,0,65
2,note_on,55,32,120
2,note_on,56,32,80
2,note_on,55,0,20
2,note_on,61,31,60
2,note_on,56,0,20
2,note_on,65,38,60
2,note_on,61,0,5
2,note_on,65,0,34
2,note_on,61,40,120
2,note_on,56,40,0
2,note_on,65,40,0
2,note_on,65,0,240
2,note_on,56,0,0
2,note_on,61,0,0
2,note_on,44,38,0
2,note_on,44,0,120
2,note_on,65,30,114
2,note_on,56,30,0
2,note_on,61,30,0
2,note_on,61,0,120
2,note_on,56,0,0
2,note_on,65,0,0
2,note_on,51,46,120
2,note_on,51,0,68
2,note_on,55,38,120
2,note_on,56,38,80
2,note_on,55,0,20
2,note_on,60,37,60
2,note_on,56,0,20
2,note_on,66,45,60
2,note_on,60,0,9
2,note_on,66,0,28
2,note_on,60,48,120
2,note_on,56,48,0
2,note_on,66,48,0
2,note_on,66,0,240
2,note_on,56,0,0
2,note_on,60,0,0
2,note_on,44,45,0
2,note_on,44,0,8
2,note_on,60,36,120
2,note_on,56,36,0
2,note_on,66,36,0
2,note_on,66,0,120
2,note_on,56,0,0
2,note_on,60,0,0
2,note_on,51,49,0
2,note_on,51,0,60
2,note_on,55,38,120
2,note_on,56,38,80
2,note_on,55,0,20
2,note_on,60,37,60
2,note_on,56,0,20
2,note_on,66,45,60
2,note_on,60,0,20
2,note_on,66,0,99
2,note_on,60,43,103
2,note_on,66,43,0
2,note_on,56,43,0
2,note_on,56,0,240
2,note_on,66,0,0
2,note_on,60,0,0
2,note_on,47,33,0
2,note_on,58,23,65
2,note_on,58,0,60
2,note_on,59,28,0
2,note_on,59,0,120
2,note_on,47,0,120
2,note_on,52,42,0
2,note_on,52,0,57
2,note_on,58,36,120
2,note_on,59,36,80
2,note_on,58,0,20
2,note_on,61,36,60
2,note_on,59,0,20
2,note_on,61,0,60
2,note_on,59,49,0
2,note_on,59,0,17
2,note_on,59,44,120
2,note_on,59,0,240
2,note_on,47,44,0
2,note_on,47,0,120
2,note_on,59,44,120
2,note_on,53,44,0
2,note_on,62,44,0
2,note_on,62,0,120
2,note_on,53,0,0
2,note_on,59,0,0
2,note_on,54,50,120
2,note_on,54,0,20
2,note_on,58,41,120
2,note_on,59,41,80
2,note_on,58,0,20
2,note_on,61,40,60
2,note_on,59,0,20
2,note_on,61,0,60
2,note_on,59,55,0
2,note_on,59,0,17
2,note_on,59,56,120
2,note_on,59,0,240
2,note_on,47,51,0
2,note_on,47,0,120
2,note_on,63,47,120
2,note_on,59,47,0
2,note_on,69,47,0
2,note_on,69,0,120
2,note_on,59,0,0
2,note_on,63,0,0
2,note_on,52,42,120
2,note_on,52,0,110
2,note_on,58,34,120
2,note_on,59,34,80
2,note_on,58,0,20
2,note_on,61,34,60
2,note_on,59,0,20
2,note_on,61,0,60
2,note_on,59,46,0
2,note_on,59,0,17
2,note_on,59,41,120
2,note_on,59,0,240
2,note_on,47,41,0
2,note_on,47,0,120
2,note_on,59,37,120
2,note_on,53,37,0
2,note_on,62,37,0
2,note_on,62,0,120
2,note_on,53,0,0
2,note_on,59,0,0
2,note_on,54,42,120
2,note_on,54,0,57
2,note_on,58,34,120
2,note_on,59,34,80
2,note_on,58,0,20
2,note_on,61,34,60
2,note_on,59,0,20
2,note_on,61,0,60
2,note_on,59,46,0
2,note_on,59,0,17
2,note_on,59,46,120
2,note_on,59,0,240
2,note_on,47,48,0
2,note_on,47,0,120
2,note_on,63,43,120
2,note_on,59,43,0
2,note_on,69,43,0
2,note_on,69,0,120
2,note_on,59,0,0
2,note_on,63,0,0
2,note_on,64,69,0
2,note_on,64,0,88
2,note_on,63,56,0
2,note_on,64,56,80
2,note_on,63,0,20
2,note_on,63,56,60
2,note_on,64,0,20
2,note_on,63,0,60
2,note_on,62,66,0
2,note_on,62,0,137
2,note_on,63,53,0
2,note_on,63,0,240
2,note_on,60,60,0
2,note_on,60,0,159
2,note_on,56,55,0
2,note_on,56,0,240
2,note_on,61,60,0
2,note_on,61,0,232
2,note_on,57,55,0
2,note_on,57,0,183
2,note_on,58,58,0
2,note_on,58,0,137
2,note_on,53,54,0
2,note_on,53,0,149
2,note_on,54,57,0
2,note_on,54,0,148
2,note_on,50,53,0
2,note_on,59,53,0
2,note_on,59,0,137
2,note_on,50,0,0
2,note_on,58,49,0
2,note_on,51,49,0
2,note_on,51,0,384
2,note_on,58,0,0
2,note_on,44,50,0
2,note_on,44,0,131
2,note_on,55,41,0
2,note_on,56,41,80
2,note_on,55,0,20
2,note_on,58,40,60
2,note_on,56,0,20
2,note_on,58,0,60
2,note_on,56,50,0
2,note_on,56,0,232
2,note_on,56,50,0
2,note_on,56,0,231
2,note_on,44,46,0
2,note_on,56,43,240
2,note_on,56,0,240
2,note_on,44,0,0
2,note_on,49,40,0
2,note_on,49,0,219
2,note_on,44,40,0
2,note_on,44,0,240
2,note_on,50,47,0
2,note_on,50,0,226
2,note_on,51,58,0
2,note_on,51,0,194
2,note_on,44,47,0
2,note_on,44,0,240
2,note_on,48,42,0
2,note_on,48,0,227
2,note_on,49,27,0
2,note_on,49,0,148
2,note_on,44,27,0
2,note_on,44,0,240
2,note_on,50,31,0
2,note_on,50,0,226
2,note_on,51,36,0
2,note_on,51,0,194
2,note_on,44,31,0
2,note_on,44,0,240
2,note_on,48,34,0
2,note_on,48,0,240
2,note_on,61,63,0
2,note_on,61,0,177
2,note_on,59,56,0
2,note_on,61,56,80
2,note_on,59,0,20
2,note_on,59,56,60
2,note_on,61,0,20
2,note_on,59,0,60
2,note_on,57,62,0
2,note_on,57,0,137
2,note_on,59,56,0
2,note_on,59,0,240
2,note_on,61,63,0
2,note_on,61,0,155
2,note_on,63,58,0
2,note_on,63,0,240
2,note_on,61,68,0
2,note_on,61,0,177
2,note_on,60,52,0
2,note_on,61,52,80
2,note_on,60,0,20
2,note_on,60,52,60
2,note_on,61,0,20
2,note_on,60,0,60
2,note_on,56,57,0
2,note_on,56,0,857
2,note_on,61,34,0
2,note_on,61,0,134
2,note_on,59,30,0
2,note_on,61,30,80
2,note_on,59,0,20
2,note_on,59,30,60
2,note_on,61,0,20
2,note_on,59,0,60
2,note_on,57,33,0
2,note_on,57,0,137
2,note_on,59,30,0
2,note_on,59,0,240
2,note_on,61,34,0
2,note_on,61,0,141
2,note_on,63,31,0
2,note_on,63,0,240
2,note_on,61,39,0
2,note_on,61,0,177
2,note_on,60,28,0
2,note_on,61,28,80
2,note_on,60,0,20
2,note_on,60,28,60
2,note_on,61,0,20
2,note_on,60,0,60
2,note_on,56,30,0
2,note_on,56,0,857
2,note_on,54,46,0
2,note_on,61,52,0
2,note_on,61,0,346
2,note_on,54,0,0
2,note_on,49,47,0
2,note_on,56,47,0
2,note_on,56,0,384
2,note_on,49,0,0
2,note_on,54,37,0
2,note_on,61,37,0
2,note_on,61,0,346
2,note_on,54,0,0
2,note_on,49,33,0
2,note_on,56,33,0
2,note_on,56,0,360
2,note_on,49,0,0
2,note_on,56,37,0
2,note_on,63,41,0
2,note_on,63,0,67
2,note_on,61,37,0
2,note_on,61,0,240
2,note_on,60,41,0
2,note_on,60,0,346
2,note_on,61,34,0
2,note_on,61,0,134
2,note_on,63,36,0
2,note_on,63,0,240
2,note_on,64,39,0
2,note_on,64,0,80
2,note_on,63,36,0
2,note_on,63,0,240
2,note_on,61,39,0
2,note_on,61,0,125
2,note_on,63,34,0
2,note_on,63,0,240
2,note_on,60,37,0
2,note_on,60,0,80
2,note_on,56,0,0
2,note_on,56,34,0
2,note_on,56,0,240
2,note_on,61,48,0
2,note_on,61,0,141
2,note_on,59,41,0
2,note_on,61,41,80
2,note_on,59,0,20
2,note_on,59,41,60
2,note_on,61,0,20
2,note_on,59,0,60
2,note_on,57,47,0
2,note_on,57,0,137
2,note_on,59,41,0
2,note_on,59,0,240
2,note_on,61,48,0
2,note_on,61,0,144
2,note_on,63,43,0
2,note_on,63,0,240
2,note_on,61,53,0
2,note_on,61,0,177
2,note_on,60,39,0
2,note_on,61,39,80
2,note_on,60,0,20
2,note_on,60,39,60
2,note_on,61,0,20
2,note_on,60,0,60
2,note_on,56,42,0
2,note_on,56,0,857
2,note_on,61,34,0
2,note_on,61,0,113
2,note_on,59,30,0
2,note_on,61,30,80
2,note_on,59,0,20
2,note_on,59,30,60
2,note_on,61,0,20
2,note_on,59,0,60
2,note_on,57,33,0
2,note_on,57,0,137
2,note_on,59,30,0
2,note_on,59,0,240
2,note_on,61,34,0
2,note_on,61,0,159
2,note_on,63,31,0
2,note_on,63,0,240
2,note_on,61,39,0
2,note_on,61,0,140
2,note_on,60,28,0
2,note_on,61,28,80
2,note_on,60,0,20
2,note_on,60,28,60
2,note_on,61,0,20
2,note_on,60,0,60
2,note_on,56,30,0
2,note_on,56,0,857
2,note_on,54,47,0
2,note_on,61,52,0
2,note_on,61,0,346
2,note_on,54,0,0
2,note_on,49,47,0
2,note_on,56,47,0
2,note_on,56,0,399
2,note_on,49,0,0
2,note_on,54,37,0
2,note_on,61,37,0
2,note_on,61,0,346
2,note_on,54,0,0
2,note_on,49,33,0
2,note_on,56,33,0
2,note_on,56,0,392
2,note_on,49,0,0
2,note_on,59,51,0
2,note_on,59,0,134
2,note_on,57,46,0
2,note_on,59,45,80
2,note_on,57,0,20
2,note_on,57,45,60
2,note_on,59,0,20
2,note_on,57,0,60
2,note_on,56,52,0
2,note_on,56,0,377
2,note_on,59,41,0
2,note_on,59,0,137
2,note_on,57,39,0
2,note_on,57,0,120
2,note_on,44,37,0
2,note_on,54,45,30
2,note_on,54,0,360
2,note_on,44,0,0
2,note_on,49,40,0
2,note_on,52,40,0
2,note_on,52,0,166
2,note_on,54,39,0
2,note_on,54,0,240
2,note_on,52,40,0
2,note_on,52,0,357
2,note_on,49,0,0
2,note_on,56,50,0
2,note_on,56,0,127
2,note_on,54,50,0
2,note_on,54,0,120
2,note_on,56,48,0
2,note_on,56,0,120
2,note_on,57,52,0
2,note_on,57,0,120
2,note_on,59,50,0
2,note_on,59,0,120
2,note_on,57,50,0
2,note_on,57,0,120
2,note_on,54,46,0
2,note_on,54,0,120
2,note_on,56,52,0
2,note_on,56,0,134
2,note_on,57,47,0
2,note_on,59,47,80
2,note_on,57,0,20
2,note_on,57,47,60
2,note_on,59,0,20
2,note_on,56,52,60
2,note_on,57,0,1
2,note_on,56,0,134
2,note_on,69,54,0
2,note_on,71,54,80
2,note_on,69,0,20
2,note_on,69,55,60
2,note_on,71,0,20
2,note_on,68,65,60
2,note_on,69,0,1
2,note_on,68,0,134
2,note_on,44,57,240
2,note_on,44,0,7
2,note_on,63,51,120
2,note_on,64,51,80
2,note_on,63,0,20
2,note_on,63,51,60
2,note_on,64,0,20
2,note_on,56,60,60
2,note_on,63,0,7
2,note_on,63,50,155
2,note_on,63,0,240
2,note_on,68,53,0
2,note_on,68,0,137
2,note_on,66,50,0
2,note_on,66,0,240
2,note_on,64,56,0
2,note_on,64,0,166
2,note_on,63,52,0
2,note_on,63,0,120
2,note_on,61,52,0
2,note_on,61,0,120
2,note_on,60,55,0
2,note_on,60,0,152
2,note_on,61,53,0
2,note_on,61,0,240
2,note_on,60,53,0
2,note_on,60,0,346
2,note_on,56,0,0
2,note_on,56,45,0
2,note_on,56,0,92
2,note_on,54,45,0
2,note_on,54,0,120
2,note_on,56,43,0
2,note_on,56,0,120
2,note_on,57,46,0
2,note_on,57,0,120
2,note_on,59,45,0
2,note_on,59,0,120
2,note_on,57,45,0
2,note_on,57,0,120
2,note_on,54,41,0
2,note_on,54,0,120
2,note_on,56,46,0
2,note_on,56,0,127
2,note_on,57,42,0
2,note_on,59,42,80
2,note_on,57,0,20
2,note_on,57,42,60
2,note_on,59,0,20
2,note_on,56,46,60
2,note_on,57,0,6
2,note_on,56,0,106
2,note_on,69,48,0
2,note_on,71,48,80
2,note_on,69,0,20
2,note_on,69,48,60
2,note_on,71,0,20
2,note_on,68,50,60
2,note_on,69,0,10
2,note_on,68,0,184
2,note_on,59,30,0
2,note_on,69,39,0
2,note_on,69,0,173
2,note_on,59,0,0
2,note_on,64,40,0
2,note_on,68,40,0
2,note_on,68,0,374
2,note_on,69,40,0
2,note_on,69,0,321
2,note_on,66,42,0
2,note_on,66,0,152
2,note_on,69,39,0
2,note_on,69,0,240
2,note_on,64,0,0
2,note_on,69,41,0
2,note_on,64,41,0
2,note_on,69,0,399
2,note_on,68,41,0
2,note_on,68,0,134
2,note_on,69,39,0
2,note_on,69,0,240
2,note_on,68,39,0
2,note_on,68,0,371
2,note_on,64,0,0
2,note_on,57,62,0
2,note_on,57,0,180
2,note_on,57,56,0
2,note_on,59,56,80
2,note_on,57,0,20
2,note_on,57,56,60
2,note_on,59,0,20
2,note_on,56,62,60
2,note_on,57,0,6
2,note_on,56,0,127
2,note_on,51,58,0
2,note_on,51,0,100
2,note_on,56,58,20
2,note_on,56,0,100
2,note_on,57,62,20
2,note_on,57,0,81
2,note_on,57,56,0
2,note_on,59,56,80
2,note_on,57,0,20
2,note_on,57,56,60
2,note_on,59,0,20
2,note_on,56,62,60
2,note_on,57,0,14
2,note_on,56,0,137
2,note_on,63,38,0
2,note_on,63,0,51
2,note_on,64,35,0
2,note_on,64,0,120
2,note_on,66,38,0
2,note_on,66,0,120
2,note_on,68,35,0
2,note_on,68,0,120
2,note_on,66,35,0
2,note_on,66,0,120
2,note_on,63,35,0
2,note_on,63,0,120
2,note_on,60,38,0
2,note_on,60,0,120
2,note_on,64,35,0
2,note_on,64,0,120
2,note_on,63,35,0
2,note_on,63,0,120
2,note_on,57,35,0
2,note_on,57,0,120
2,note_on,56,57,0
2,note_on,56,0,120
2,note_on,57,56,0
2,note_on,59,56,80
2,note_on,57,0,20
2,note_on,57,56,60
2,note_on,59,0,20
2,note_on,56,62,60
2,note_on,57,0,20
2,note_on,56,0,120
2,note_on,51,58,0
2,note_on,51,0,100
2,note_on,56,58,20
2,note_on,56,0,100
2,note_on,57,62,20
2,note_on,57,0,184
2,note_on,57,56,0
2,note_on,59,56,80
2,note_on,57,0,20
2,note_on,57,56,60
2,note_on,59,0,20
2,note_on,56,62,0
2,note_on,57,0,20
2,note_on,56,0,149
2,note_on,63,49,0
2,note_on,63,0,51
2,note_on,64,46,0
2,note_on,64,0,120
2,note_on,66,49,0
2,note_on,66,0,120
2,note_on,68,46,0
2,note_on,68,0,120
2,note_on,66,46,0
2,note_on,66,0,120
2,note_on,63,46,0
2,note_on,63,0,120
2,note_on,60,54,0
2,note_on,60,0,120
2,note_on,64,48,0
2,note_on,64,0,120
2,note_on,63,48,0
2,note_on,63,0,120
2,note_on,57,48,0
2,note_on,57,0,120
2,note_on,56,62,0
2,note_on,56,0,240
2,note_on,54,54,0
2,note_on,54,0,28
2,note_on,56,50,0
2,note_on,56,0,120
2,note_on,57,54,0
2,note_on,57,0,120
2,note_on,61,50,0
2,note_on,61,0,120
2,note_on,59,50,0
2,note_on,59,0,120
2,note_on,56,50,0
2,note_on,56,0,120
2,note_on,54,54,0
2,note_on,54,0,120
2,note_on,57,50,0
2,note_on,57,0,120
2,note_on,56,50,0
2,note_on,56,0,120
2,note_on,52,50,0
2,note_on,52,0,120
2,note_on,51,54,0
2,note_on,51,0,28
2,note_on,52,52,0
2,note_on,52,0,120
2,note_on,54,52,0
2,note_on,54,0,120
2,note_on,56,52,0
2,note_on,56,0,120
2,note_on,54,57,0
2,note_on,54,0,35
2,note_on,51,55,0
2,note_on,51,0,120
2,note_on,52,56,0
2,note_on,52,0,120
2,note_on,49,54,0
2,note_on,49,0,120
2,note_on,51,54,0
2,note_on,51,0,7
2,note_on,47,52,0
2,note_on,47,0,120
2,note_on,49,54,0
2,note_on,49,0,120
2,note_on,45,51,0
2,note_on,45,0,120
2,note_on,44,68,0
2,note_on,44,0,127
2,note_on,51,49,0
2,note_on,57,58,0
2,note_on,57,0,197
2,note_on,51,0,0
2,note_on,56,44,0
2,note_on,60,52,0
2,note_on,60,0,176
2,note_on,56,0,0
2,note_on,51,48,0
2,note_on,57,57,0
2,note_on,57,0,180
2,note_on,51,0,0
2,note_on,56,42,0
2,note_on,60,50,0
2,note_on,60,0,191
2,note_on,56,0,0
2,note_on,51,46,0
2,note_on,57,55,0
2,note_on,57,0,21
2,note_on,51,0,0
2,note_on,56,42,0
2,note_on,60,50,0
2,note_on,60,0,91
2,note_on,56,0,0
2,note_on,56,57,0
2,note_on,56,0,480
2,note_on,56,65,0
2,note_on,56,0,480
2,note_on,56,68,0
2,note_on,56,0,240
2,note_on,49,48,0
2,note_on,49,0,166
2,note_on,44,48,0
2,note_on,44,0,240
2,note_on,50,56,0
2,note_on,50,0,240
2,note_on,51,69,0
2,note_on,51,0,194
2,note_on,44,56,0
2,note_on,44,0,240
2,note_on,48,50,0
2,note_on,48,0,233
2,note_on,49,30,0
2,note_on,49,0,219
2,note_on,44,30,0
2,note_on,44,0,240
2,note_on,50,35,0
2,note_on,50,0,229
2,note_on,51,40,0
2,note_on,51,0,194
2,note_on,44,35,0
2,note_on,44,0,240
2,note_on,48,39,0
2,note_on,48,0,196
2,note_on,49,39,30
2,note_on,49,0,57
2,note_on,55,32,120
2,note_on,56,32,80
2,note_on,55,0,20
2,note_on,61,31,60
2,note_on,56,0,20
2,note_on,61,0,60
2,note_on,68,42,137
2,note_on,68,0,240
2,note_on,44,38,0
2,note_on,44,0,120
2,note_on,68,34,120
2,note_on,61,34,0
2,note_on,56,34,0
2,note_on,56,0,108
2,note_on,61,0,0
2,note_on,68,0,0
2,note_on,49,39,120
2,note_on,49,0,40
2,note_on,55,32,120
2,note_on,56,32,80
2,note_on,55,0,20
2,note_on,61,31,60
2,note_on,56,0,20
2,note_on,65,38,60
2,note_on,61,0,4
2,note_on,65,0,40
2,note_on,56,40,120
2,note_on,61,40,0
2,note_on,65,40,0
2,note_on,65,0,240
2,note_on,61,0,0
2,note_on,56,0,0
2,note_on,44,38,0
2,note_on,44,0,120
2,note_on,65,30,108
2,note_on,61,30,0
2,note_on,56,30,0
2,note_on,56,0,120
2,note_on,61,0,0
2,note_on,65,0,0
2,note_on,51,46,120
2,note_on,51,0,63
2,note_on,55,38,120
2,note_on,56,38,80
2,note_on,55,0,20
2,note_on,60,37,60
2,note_on,56,0,20
2,note_on,66,45,60
2,note_on,60,0,20
2,note_on,66,0,37
2,note_on,56,49,120
2,note_on,60,49,0
2,note_on,66,49,0
2,note_on,66,0,240
2,note_on,60,0,0
2,note_on,56,0,0
2,note_on,44,47,0
2,note_on,44,0,113
2,note_on,66,38,74
2,note_on,60,38,0
2,note_on,56,38,0
2,note_on,56,0,120
2,note_on,60,0,0
2,note_on,66,0,0
2,note_on,51,53,0
2,note_on,51,0,63
2,note_on,55,38,120
2,note_on,56,38,80
2,note_on,55,0,20
2,note_on,60,37,60
2,note_on,56,0,20
2,note_on,66,45,60
2,note_on,60,0,20
2,note_on,66,0,94
2,note_on,56,43,103
2,note_on,60,43,0
2,note_on,66,43,0
2,note_on,66,0,240
2,note_on,60,0,0
2,note_on,56,0,0
2,note_on,44,37,0
2,note_on,44,0,120
2,note_on,66,36,114
2,note_on,60,36,0
2,note_on,56,36,0
2,note_on,56,0,120
2,note_on,60,0,0
2,note_on,66,0,0
2,note_on,49,39,120
2,note_on,49,0,57
2,note_on,55,32,120
2,note_on,56,32,80
2,note_on,55,0,20
2,note_on,61,31,60
2,note_on,56,0,20
2,note_on,61,0,60
2,note_on,68,42,137
2,note_on,68,0,240
2,note_on,44,38,0
2,note_on,44,0,120
2,note_on,68,34,120
2,note_on,61,34,0
2,note_on,56,34,0
2,note_on,56,0,112
2,note_on,61,0,0
2,note_on,68,0,0
2,note_on,49,39,120
2,note_on,49,0,63
2,note_on,55,32,120
2,note_on,56,32,80
2,note_on,55,0,20
2,note_on,61,31,60
2,note_on,56,0,20
2,note_on,65,38,60
2,note_on,61,0,11
2,note_on,65,0,34
2,note_on,56,40,120
2,note_on,61,40,0
2,note_on,65,40,0
2,note_on,65,0,240
2,note_on,61,0,0
2,note_on,56,0,0
2,note_on,44,38,0
2,note_on,44,0,120
2,note_on,65,30,114
2,note_on,61,30,0
2,note_on,56,30,0
2,note_on,56,0,120
2,note_on,61,0,0
2,note_on,65,0,0
2,note_on,51,46,120
2,note_on,51,0,68
2,note_on,55,38,120
2,note_on,56,38,80
2,note_on,55,0,20
2,note_on,60,37,60
2,note_on,56,0,20
2,note_on,66,45,60
2,note_on,60,0,3
2,note_on,66,0,34
2,note_on,56,49,120
2,note_on,60,49,0
2,note_on,66,49,0
2,note_on,66,0,240
2,note_on,60,0,0
2,note_on,56,0,0
2,note_on,44,47,0
2,note_on,44,0,3
2,note_on,66,38,120
2,note_on,60,38,0
2,note_on,56,38,0
2,note_on,56,0,120
2,note_on,60,0,0
2,note_on,66,0,0
2,note_on,51,53,0
2,note_on,51,0,80
2,note_on,55,38,120
2,note_on,56,38,80
2,note_on,55,0,20
2,note_on,60,37,60
2,note_on,56,0,20
2,note_on,66,45,60
2,note_on,60,0,20
2,note_on,66,0,92
2,note_on,56,43,103
2,note_on,60,43,0
2,note_on,66,43,0
2,note_on,66,0,240
2,note_on,60,0,0
2,note_on,56,0,0
2,note_on,44,37,0
2,note_on,44,0,120
2,note_on,64,36,77
2,note_on,60,36,0
2,note_on,56,36,0
2,note_on,56,0,120
2,note_on,60,0,0
2,note_on,64,0,0
2,note_on,53,50,120
2,note_on,53,0,57
2,note_on,57,41,120
2,note_on,61,41,80
2,note_on,57,0,20
2,note_on,65,40,60
2,note_on,61,0,20
2,note_on,65,0,60
2,note_on,69,55,0
2,note_on,69,0,17
2,note_on,61,49,120
2,note_on,65,49,0
2,note_on,65,0,240
2,note_on,61,0,0
2,note_on,53,49,0
2,note_on,53,0,120
2,note_on,63,44,120
2,note_on,57,44,0
2,note_on,57,0,118
2,note_on,63,0,0
2,note_on,54,50,120
2,note_on,54,0,57
2,note_on,60,41,120
2,note_on,61,41,80
2,note_on,60,0,20
2,note_on,66,40,60
2,note_on,61,0,20
2,note_on,66,0,60
2,note_on,62,55,137
2,note_on,62,0,240
2,note_on,50,49,0
2,note_on,50,0,120
2,note_on,65,44,120
2,note_on,58,44,0
2,note_on,58,0,120
2,note_on,65,0,0
2,note_on,51,50,120
2,note_on,51,0,57
2,note_on,57,41,120
2,note_on,58,41,80
2,note_on,57,0,20
2,note_on,63,40,60
2,note_on,58,0,20
2,note_on,63,0,60
2,note_on,58,50,225
2,note_on,70,46,177
2,note_on,70,0,240
2,note_on,68,43,0
2,note_on,68,0,226
2,note_on,58,0,0
2,note_on,51,46,0
2,note_on,51,0,57
2,note_on,57,38,120
2,note_on,58,38,80
2,note_on,57,0,20
2,note_on,59,37,60
2,note_on,58,0,20
2,note_on,59,0,60
2,note_on,58,50,0
2,note_on,58,0,108
2,note_on,62,50,0
2,note_on,62,0,240
2,note_on,65,55,0
2,note_on,65,0,240
2,note_on,63,51,0
2,note_on,63,0,240
2,note_on,39,46,0
2,note_on,39,0,57
2,note_on,50,38,120
2,note_on,51,38,80
2,note_on,50,0,20
2,note_on,53,37,60
2,note_on,51,0,20
2,note_on,53,0,60
2,note_on,51,50,0
2,note_on,51,0,103
2,note_on,51,50,120
2,note_on,51,0,434
2,note_on,51,46,0
2,note_on,51,0,240
2,note_on,51,41,0
2,note_on,60,41,0
2,note_on,60,0,123
2,note_on,61,39,0
2,note_on,61,0,240
2,note_on,65,41,0
2,note_on,65,0,155
2,note_on,63,38,0
2,note_on,63,0,240
2,note_on,67,40,0
2,note_on,67,0,134
2,note_on,63,38,0
2,note_on,63,0,240
2,note_on,51,0,0
2,note_on,51,39,0
2,note_on,51,0,20
2,note_on,62,32,120
2,note_on,63,32,80
2,note_on,62,0,20
2,note_on,65,31,60
2,note_on,63,0,20
2,note_on,65,0,60
2,note_on,63,36,0
2,note_on,63,0,105
2,note_on,63,42,120
2,note_on,63,0,425
2,note_on,63,39,0
2,note_on,63,0,240
2,note_on,56,41,0
2,note_on,60,41,0
2,note_on,60,0,45
2,note_on,61,40,0
2,note_on,61,0,240
2,note_on,63,44,0
2,note_on,63,0,137
2,note_on,70,47,0
2,note_on,70,0,240
2,note_on,68,44,0
2,note_on,68,0,103
2,note_on,66,36,0
2,note_on,66,0,240
2,note_on,56,0,0
2,note_on,49,54,0
2,note_on,49,0,57
2,note_on,55,49,120
2,note_on,56,49,80
2,note_on,55,0,20
2,note_on,61,48,60
2,note_on,56,0,20
2,note_on,61,0,60
2,note_on,68,59,137
2,note_on,68,0,240
2,note_on,44,58,0
2,note_on,44,0,120
2,note_on,68,52,120
2,note_on,61,52,0
2,note_on,56,52,0
2,note_on,56,0,106
2,note_on,61,0,0
2,note_on,68,0,0
2,note_on,49,59,120
2,note_on,49,0,100
2,note_on,55,49,120
2,note_on,56,49,80
2,note_on,55,0,20
2,note_on,61,48,60
2,note_on,56,0,20
2,note_on,65,59,60
2,note_on,61,0,12
2,note_on,65,0,40
2,note_on,56,56,120
2,note_on,61,56,0
2,note_on,65,56,0
2,note_on,65,0,240
2,note_on,61,0,0
2,note_on,56,0,0
2,note_on,44,61,0
2,note_on,44,0,120
2,note_on,65,49,111
2,note_on,61,49,0
2,note_on,56,49,0
2,note_on,56,0,120
2,note_on,61,0,0
2,note_on,65,0,0
2,note_on,51,55,120
2,note_on,51,0,63
2,note_on,55,45,120
2,note_on,56,45,80
2,note_on,55,0,20
2,note_on,60,44,60
2,note_on,56,0,20
2,note_on,66,53,60
2,note_on,60,0,8
2,note_on,66,0,40
2,note_on,56,57,120
2,note_on,60,57,0
2,note_on,66,57,0
2,note_on,66,0,3
2,note_on,60,0,0
2,note_on,56,0,0
2,note_on,44,53,4
2,note_on,44,0,120
2,note_on,66,42,111
2,note_on,60,42,0
2,note_on,56,42,0
2,note_on,56,0,120
2,note_on,60,0,0
2,note_on,66,0,0
2,note_on,51,58,120
2,note_on,51,0,57
2,note_on,55,45,120
2,note_on,56,45,80
2,note_on,55,0,20
2,note_on,60,42,60
2,note_on,56,0,20
2,note_on,66,52,60
2,note_on,60,0,20
2,note_on,66,0,92
2,note_on,56,49,103
2,note_on,60,49,0
2,note_on,66,49,0
2,note_on,66,0,240
2,note_on,60,0,0
2,note_on,56,0,0
2,note_on,44,41,0
2,note_on,44,0,120
2,note_on,66,39,117
2,note_on,60,39,0
2,note_on,56,39,0
2,note_on,56,0,120
2,note_on,60,0,0
2,note_on,66,0,0
2,note_on,49,39,120
2,note_on,49,0,57
2,note_on,55,32,120
2,note_on,56,32,80
2,note_on,55,0,20
2,note_on,61,31,60
2,note_on,56,0,20
2,note_on,61,0,60
2,note_on,68,42,137
2,note_on,68,0,240
2,note_on,44,38,0
2,note_on,44,0,120
2,note_on,68,34,120
2,note_on,61,34,0
2,note_on,56,34,0
2,note_on,56,0,110
2,note_on,61,0,0
2,note_on,68,0,0
2,note_on,49,39,120
2,note_on,49,0,74
2,note_on,55,32,120
2,note_on,56,32,80
2,note_on,55,0,20
2,note_on,61,31,60
2,note_on,56,0,20
2,note_on,65,38,60
2,note_on,61,0,3
2,note_on,65,0,25
2,note_on,56,40,120
2,note_on,61,40,0
2,note_on,65,40,0
2,note_on,65,0,240
2,note_on,61,0,0
2,note_on,56,0,0
2,note_on,44,38,0
2,note_on,44,0,120
2,note_on,65,30,77
2,note_on,61,30,0
2,note_on,56,30,0
2,note_on,56,0,120
2,note_on,61,0,0
2,note_on,65,0,0
2,note_on,51,46,120
2,note_on,51,0,71
2,note_on,55,38,120
2,note_on,56,38,80
2,note_on,55,0,20
2,note_on,60,37,60
2,note_on,56,0,20
2,note_on,66,45,60
2,note_on,60,0,5
2,note_on,66,0,43
2,note_on,56,48,120
2,note_on,60,48,0
2,note_on,66,48,0
2,note_on,66,0,240
2,note_on,60,0,0
2,note_on,56,0,0
2,note_on,44,45,0
2,note_on,44,0,114
2,note_on,66,36,103
2,note_on,60,36,0
2,note_on,56,36,0
2,note_on,56,0,120
2,note_on,60,0,0
2,note_on,66,0,0
2,note_on,51,49,120
2,note_on,51,0,66
2,note_on,55,38,120
2,note_on,56,38,80
2,note_on,55,0,20
2,note_on,60,37,60
2,note_on,56,0,20
2,note_on,66,45,60
2,note_on,60,0,20
2,note_on,66,0,92
2,note_on,56,43,103
2,note_on,60,43,0
2,note_on,66,43,0
2,note_on,66,0,240
2,note_on,60,0,0
2,note_on,56,0,0
2,note_on,47,33,0
2,note_on,58,23,31
2,note_on,58,0,60
2,note_on,59,28,0
2,note_on,59,0,120
2,note_on,47,0,120
2,note_on,52,42,0
2,note_on,52,0,57
2,note_on,58,36,120
2,note_on,59,36,80
2,note_on,58,0,20
2,note_on,61,36,60
2,note_on,59,0,20
2,note_on,61,0,60
2,note_on,59,49,0
2,note_on,59,0,17
2,note_on,59,44,120
2,note_on,59,0,240
2,note_on,47,44,0
2,note_on,47,0,120
2,note_on,59,44,120
2,note_on,62,44,0
2,note_on,53,44,0
2,note_on,53,0,120
2,note_on,62,0,0
2,note_on,59,0,0
2,note_on,54,50,120
2,note_on,54,0,57
2,note_on,58,41,120
2,note_on,59,41,80
2,note_on,58,0,20
2,note_on,61,40,60
2,note_on,59,0,20
2,note_on,61,0,60
2,note_on,59,55,0
2,note_on,59,0,17
2,note_on,59,56,120
2,note_on,59,0,240
2,note_on,47,51,0
2,note_on,47,0,120
2,note_on,63,47,120
2,note_on,69,47,0
2,note_on,59,47,0
2,note_on,59,0,120
2,note_on,69,0,0
2,note_on,63,0,0
2,note_on,52,42,120
2,note_on,52,0,5
2,note_on,58,34,120
2,note_on,59,34,80
2,note_on,58,0,20
2,note_on,61,34,60
2,note_on,59,0,20
2,note_on,61,0,60
2,note_on,59,46,0
2,note_on,59,0,17
2,note_on,59,41,120
2,note_on,59,0,240
2,note_on,47,41,0
2,note_on,47,0,120
2,note_on,59,37,120
2,note_on,62,37,0
2,note_on,53,37,0
2,note_on,53,0,120
2,note_on,62,0,0
2,note_on,59,0,0
2,note_on,54,42,120
2,note_on,54,0,23
2,note_on,58,34,120
2,note_on,59,34,80
2,note_on,58,0,20
2,note_on,61,34,60
2,note_on,59,0,20
2,note_on,61,0,60
2,note_on,59,46,0
2,note_on,59,0,17
2,note_on,59,46,120
2,note_on,59,0,240
2,note_on,47,48,0
2,note_on,47,0,120
2,note_on,63,43,120
2,note_on,69,43,0
2,note_on,59,43,0
2,note_on,59,0,120
2,note_on,69,0,0
2,note_on,63,0,0
2,note_on,64,69,0
2,note_on,64,0,134
2,note_on,63,56,0
2,note_on,64,56,80
2,note_on,63,0,20
2,note_on,63,56,60
2,note_on,64,0,20
2,note_on,63,0,60
2,note_on,62,66,0
2,note_on,62,0,137
2,note_on,63,53,0
2,note_on,63,0,240
2,note_on,60,60,0
2,note_on,60,0,148
2,note_on,56,55,0
2,note_on,56,0,28
2,note_on,61,60,0
2,note_on,61,0,240
2,note_on,57,55,0
2,note_on,57,0,180
2,note_on,58,58,0
2,note_on,58,0,171
2,note_on,53,54,0
2,note_on,53,0,137
2,note_on,54,57,0
2,note_on,54,0,137
2,note_on,50,53,0
2,note_on,59,53,0
2,note_on,59,0,126
2,note_on,50,0,0
2,note_on,51,49,0
2,note_on,58,49,0
2,note_on,58,0,388
2,note_on,51,0,0
2,note_on,44,50,0
2,note_on,44,0,177
2,note_on,55,41,0
2,note_on,56,41,80
2,note_on,55,0,20
2,note_on,58,40,60
2,note_on,56,0,20
2,note_on,58,0,60
2,note_on,56,50,0
2,note_on,56,0,131
2,note_on,56,50,0
2,note_on,56,0,240
2,note_on,44,46,0
2,note_on,56,43,240
2,note_on,56,0,240
2,note_on,44,0,0
2,note_on,49,34,0
2,note_on,49,0,219
2,note_on,44,34,0
2,note_on,44,0,240
2,note_on,50,39,0
2,note_on,50,0,229
2,note_on,51,49,0
2,note_on,51,0,155
2,note_on,44,39,0
2,note_on,44,0,240
2,note_on,48,35,0
2,note_on,48,0,226
2,note_on,49,27,0
2,note_on,49,0,219
2,note_on,44,27,0
2,note_on,44,0,240
2,note_on,50,31,0
2,note_on,50,0,221
2,note_on,51,36,0
2,note_on,51,0,194
2,note_on,44,31,0
2,note_on,44,0,240
2,note_on,48,34,0
2,note_on,48,0,225
2,note_on,49,31,0
2,note_on,49,0,162
2,note_on,56,32,0
2,note_on,56,0,60
2,note_on,61,32,180
2,note_on,61,0,60
2,note_on,65,31,180
2,note_on,65,0,60
2,note_on,68,31,180
2,note_on,68,0,60
2,note_on,73,30,180
2,note_on,73,0,60
2,note_on,77,30,180
2,note_on,77,0,60
2,note_on,68,29,180
2,note_on,68,0,60
2,note_on,73,29,180
2,note_on,73,0,60
2,note_on,77,29,180
2,note_on,77,0,60
2,note_on,80,28,180
2,note_on,80,0,60
2,note_on,85,28,180
2,note_on,85,0,60
2,note_on,73,28,120
2,note_on,80,28,25
2,note_on,73,0,1475
2,note_on,37,17,0
2,note_on,44,17,0
2,note_on,49,22,0
2,note_on,80,0,10
2,note_on,37,0,1430
2,note_on,44,0,0
2,note_on,49,0,0
