Track,Message Type,Note,Velocity,Time
1,note_on,60,35,2160
1,note_on,60,0,600
1,note_on,56,31,0
1,note_on,56,0,120
1,note_on,53,28,0
1,note_on,53,0,2160
1,note_on,56,35,0
1,note_on,56,0,600
1,note_on,60,30,0
1,note_on,60,0,120
1,note_on,65,35,0
1,note_on,65,0,720
1,note_on,68,35,0
1,note_on,68,0,600
1,note_on,72,30,0
1,note_on,72,0,120
1,note_on,77,35,0
1,note_on,77,0,710
1,note_on,65,33,10
1,note_on,65,0,720
1,note_on,72,35,0
1,note_on,72,0,1200
1,note_on,74,33,0
1,note_on,74,0,180
1,note_on,72,31,0
1,note_on,72,0,60
1,note_on,74,32,0
1,note_on,74,0,80
1,note_on,76,28,0
1,note_on,76,0,80
1,note_on,74,32,0
1,note_on,74,0,80
1,note_on,76,28,0
1,note_on,76,0,80
1,note_on,74,32,0
1,note_on,74,0,80
1,note_on,76,29,0
1,note_on,76,0,80
1,note_on,74,32,0
1,note_on,74,0,80
1,note_on,76,28,0
1,note_on,76,0,80
1,note_on,74,31,0
1,note_on,74,0,80
1,note_on,76,29,0
1,note_on,76,0,80
1,note_on,74,27,0
1,note_on,74,0,80
1,note_on,76,32,0
1,note_on,76,0,80
1,note_on,74,27,0
1,note_on,74,0,120
1,note_on,72,28,0
1,note_on,72,0,120
1,note_on,76,31,0
1,note_on,76,0,120
1,note_on,74,28,0
1,note_on,74,0,120
1,note_on,72,35,0
1,note_on,72,0,480
1,note_on,61,35,1680
1,note_on,61,0,600
1,note_on,58,31,0
1,note_on,58,0,120
1,note_on,54,28,0
1,note_on,54,0,2160
1,note_on,58,35,0
1,note_on,58,0,600
1,note_on,61,30,0
1,note_on,61,0,120
1,note_on,66,35,0
1,note_on,66,0,720
1,note_on,70,35,0
1,note_on,70,0,600
1,note_on,73,30,0
1,note_on,73,0,120
1,note_on,78,34,0
1,note_on,78,0,720
1,note_on,66,33,0
1,note_on,66,0,720
1,note_on,73,35,0
1,note_on,73,0,1200
1,note_on,75,32,0
1,note_on,75,0,180
1,note_on,73,31,0
1,note_on,73,0,60
1,note_on,75,30,0
1,note_on,75,0,80
1,note_on,77,27,0
1,note_on,77,0,80
1,note_on,75,30,0
1,note_on,75,0,80
1,note_on,77,27,0
1,note_on,77,0,80
1,note_on,75,30,0
1,note_on,75,0,80
1,note_on,77,27,0
1,note_on,77,0,80
1,note_on,75,29,0
1,note_on,75,0,80
1,note_on,77,27,0
1,note_on,77,0,80
1,note_on,75,29,0
1,note_on,75,0,80
1,note_on,77,28,0
1,note_on,77,0,80
1,note_on,75,30,0
1,note_on,75,0,80
1,note_on,77,28,0
1,note_on,77,0,80
1,note_on,75,26,0
1,note_on,75,0,120
1,note_on,73,28,0
1,note_on,73,0,120
1,note_on,77,31,0
1,note_on,77,0,120
1,note_on,75,29,0
1,note_on,75,0,120
1,note_on,73,35,0
1,note_on,73,0,480
1,note_on,72,35,2400
1,note_on,72,0,1200
1,note_on,74,42,0
1,note_on,74,0,180
1,note_on,72,38,0
1,note_on,72,0,60
1,note_on,74,43,0
1,note_on,74,0,80
1,note_on,76,35,0
1,note_on,76,0,80
1,note_on,74,40,0
1,note_on,74,0,80
1,note_on,76,36,0
1,note_on,76,0,80
1,note_on,74,39,0
1,note_on,74,0,80
1,note_on,76,36,0
1,note_on,76,0,80
1,note_on,74,41,0
1,note_on,74,0,80
1,note_on,76,37,0
1,note_on,76,0,80
1,note_on,74,40,0
1,note_on,74,0,80
1,note_on,76,35,0
1,note_on,76,0,80
1,note_on,74,31,0
1,note_on,74,0,80
1,note_on,76,37,0
1,note_on,76,0,80
1,note_on,74,33,0
1,note_on,74,0,120
1,note_on,72,33,0
1,note_on,72,0,120
1,note_on,76,37,0
1,note_on,76,0,120
1,note_on,74,33,0
1,note_on,74,0,120
1,note_on,72,35,0
1,note_on,72,0,480
1,note_on,76,35,2400
1,note_on,76,0,1200
1,note_on,77,38,0
1,note_on,77,0,240
1,note_on,77,39,0
1,note_on,77,0,80
1,note_on,79,34,0
1,note_on,79,0,80
1,note_on,77,39,0
1,note_on,77,0,80
1,note_on,79,35,0
1,note_on,79,0,80
1,note_on,77,39,0
1,note_on,77,0,80
1,note_on,79,35,0
1,note_on,79,0,80
1,note_on,77,39,0
1,note_on,77,0,80
1,note_on,79,35,0
1,note_on,79,0,80
1,note_on,77,39,0
1,note_on,77,0,80
1,note_on,79,36,0
1,note_on,79,0,80
1,note_on,77,33,0
1,note_on,77,0,80
1,note_on,79,39,0
1,note_on,79,0,80
1,note_on,77,33,0
1,note_on,77,0,120
1,note_on,76,34,0
1,note_on,76,0,120
1,note_on,79,40,0
1,note_on,79,0,120
1,note_on,77,35,0
1,note_on,77,0,120
1,note_on,76,35,0
1,note_on,76,0,480
1,note_on,76,35,1680
1,note_on,79,35,0
1,note_on,79,0,240
1,note_on,76,0,0
1,note_on,79,31,0
1,note_on,76,31,0
1,note_on,76,0,240
1,note_on,79,0,0
1,note_on,76,35,0
1,note_on,79,35,0
1,note_on,79,0,240
1,note_on,76,0,0
1,note_on,79,35,0
1,note_on,82,35,0
1,note_on,82,0,480
1,note_on,79,0,0
1,note_on,82,83,1680
1,note_on,79,83,0
1,note_on,79,0,240
1,note_on,82,0,0
1,note_on,82,77,0
1,note_on,79,77,0
1,note_on,79,0,240
1,note_on,82,0,0
1,note_on,79,83,0
1,note_on,82,83,0
1,note_on,82,0,240
1,note_on,79,0,0
1,note_on,88,85,0
1,note_on,88,0,120
1,note_on,82,76,0
1,note_on,82,0,120
1,note_on,91,85,0
1,note_on,91,0,120
1,note_on,88,75,0
1,note_on,88,0,120
1,note_on,94,85,0
1,note_on,94,0,120
1,note_on,91,76,0
1,note_on,91,0,120
1,note_on,88,85,0
1,note_on,88,0,120
1,note_on,91,76,0
1,note_on,91,0,120
1,note_on,82,83,0
1,note_on,82,0,120
1,note_on,88,75,0
1,note_on,88,0,120
1,note_on,79,83,0
1,note_on,79,0,120
1,note_on,82,74,0
1,note_on,82,0,120
1,note_on,76,81,0
1,note_on,76,0,120
1,note_on,79,74,0
1,note_on,79,0,120
1,note_on,70,81,0
1,note_on,70,0,120
1,note_on,76,71,0
1,note_on,76,0,120
1,note_on,67,80,0
1,note_on,67,0,120
1,note_on,70,73,0
1,note_on,70,0,120
1,note_on,64,80,0
1,note_on,64,0,120
1,note_on,67,70,0
1,note_on,67,0,120
1,note_on,58,79,0
1,note_on,58,0,120
1,note_on,64,71,0
1,note_on,64,0,120
1,note_on,60,35,5280
1,note_on,60,0,600
1,note_on,56,31,0
1,note_on,56,0,120
1,note_on,53,103,0
1,note_on,53,0,240
1,note_on,60,85,0
1,note_on,65,101,0
1,note_on,56,75,0
1,note_on,53,75,0
1,note_on,53,0,475
1,note_on,60,0,0
1,note_on,65,0,0
1,note_on,56,0,0
1,note_on,60,72,5
1,note_on,56,72,0
1,note_on,65,81,0
1,note_on,68,96,0
1,note_on,68,0,475
1,note_on,60,0,0
1,note_on,56,0,0
1,note_on,65,0,0
1,note_on,60,71,5
1,note_on,72,96,0
1,note_on,65,71,0
1,note_on,68,79,0
1,note_on,68,0,475
1,note_on,60,0,0
1,note_on,72,0,0
1,note_on,65,0,0
1,note_on,72,80,5
1,note_on,77,95,0
1,note_on,65,72,0
1,note_on,68,72,0
1,note_on,68,0,475
1,note_on,72,0,0
1,note_on,77,0,0
1,note_on,65,0,0
1,note_on,77,86,5
1,note_on,68,76,0
1,note_on,72,76,0
1,note_on,80,103,0
1,note_on,80,0,475
1,note_on,77,0,0
1,note_on,68,0,0
1,note_on,72,0,0
1,note_on,77,78,5
1,note_on,84,94,0
1,note_on,80,78,0
1,note_on,72,71,0
1,note_on,72,0,238
1,note_on,77,0,0
1,note_on,84,0,0
1,note_on,80,0,0
1,note_on,89,103,2
1,note_on,77,76,0
1,note_on,84,86,0
1,note_on,80,86,0
1,note_on,80,0,2160
1,note_on,89,0,0
1,note_on,77,0,0
1,note_on,84,0,0
1,note_on,56,41,0
1,note_on,56,0,600
1,note_on,60,35,0
1,note_on,60,0,120
1,note_on,65,39,0
1,note_on,65,0,720
1,note_on,68,41,0
1,note_on,68,0,600
1,note_on,72,36,0
1,note_on,72,0,120
1,note_on,77,39,0
1,note_on,77,0,715
1,note_on,65,39,5
1,note_on,65,0,720
1,note_on,60,103,0
1,note_on,60,0,240
1,note_on,60,85,0
1,note_on,64,101,0
1,note_on,64,0,475
1,note_on,60,0,0
1,note_on,64,81,5
1,note_on,67,96,0
1,note_on,60,72,0
1,note_on,60,0,475
1,note_on,67,0,0
1,note_on,64,0,0
1,note_on,72,96,5
1,note_on,64,71,0
1,note_on,67,79,0
1,note_on,67,0,475
1,note_on,64,0,0
1,note_on,72,0,0
1,note_on,76,95,5
1,note_on,67,72,0
1,note_on,72,80,0
1,note_on,72,0,475
1,note_on,67,0,0
1,note_on,76,0,0
1,note_on,79,103,5
1,note_on,72,76,0
1,note_on,76,86,0
1,note_on,76,0,475
1,note_on,72,0,0
1,note_on,79,0,0
1,note_on,84,94,5
1,note_on,76,78,0
1,note_on,79,78,0
1,note_on,79,0,238
1,note_on,76,0,0
1,note_on,84,0,0
1,note_on,72,41,2
1,note_on,72,0,1200
1,note_on,74,45,0
1,note_on,74,0,240
1,note_on,74,39,0
1,note_on,74,0,80
1,note_on,76,35,0
1,note_on,74,39,80
1,note_on,76,0,40
1,note_on,74,0,40
1,note_on,76,36,0
1,note_on,76,0,80
1,note_on,74,38,0
1,note_on,74,0,80
1,note_on,76,36,0
1,note_on,76,0,80
1,note_on,74,38,0
1,note_on,74,0,80
1,note_on,76,36,0
1,note_on,76,0,80
1,note_on,74,39,0
1,note_on,74,0,80
1,note_on,76,37,0
1,note_on,76,0,80
1,note_on,74,35,0
1,note_on,74,0,80
1,note_on,76,39,0
1,note_on,76,0,80
1,note_on,74,35,0
1,note_on,74,0,120
1,note_on,72,36,0
1,note_on,72,0,120
1,note_on,76,41,0
1,note_on,76,0,120
1,note_on,74,38,0
1,note_on,74,0,120
1,note_on,60,103,0
1,note_on,60,0,238
1,note_on,60,85,2
1,note_on,64,101,0
1,note_on,64,0,475
1,note_on,60,0,0
1,note_on,60,72,5
1,note_on,64,81,0
1,note_on,67,96,0
1,note_on,67,0,475
1,note_on,64,0,0
1,note_on,60,0,0
1,note_on,64,71,5
1,note_on,67,79,0
1,note_on,72,96,0
1,note_on,72,0,475
1,note_on,67,0,0
1,note_on,64,0,0
1,note_on,67,72,5
1,note_on,72,80,0
1,note_on,76,95,0
1,note_on,76,0,475
1,note_on,72,0,0
1,note_on,67,0,0
1,note_on,72,76,5
1,note_on,76,86,0
1,note_on,79,103,0
1,note_on,79,0,475
1,note_on,76,0,0
1,note_on,72,0,0
1,note_on,76,78,5
1,note_on,84,94,0
1,note_on,79,78,0
1,note_on,79,0,238
1,note_on,84,0,0
1,note_on,76,0,0
1,note_on,72,48,2
1,note_on,72,0,1200
1,note_on,73,52,0
1,note_on,73,0,180
1,note_on,72,48,0
1,note_on,72,0,60
1,note_on,73,46,0
1,note_on,73,0,80
1,note_on,75,41,0
1,note_on,75,0,80
1,note_on,73,46,0
1,note_on,73,0,80
1,note_on,75,41,0
1,note_on,75,0,80
1,note_on,73,44,0
1,note_on,73,0,80
1,note_on,75,41,0
1,note_on,75,0,80
1,note_on,73,46,0
1,note_on,73,0,80
1,note_on,75,42,0
1,note_on,75,0,80
1,note_on,73,46,0
1,note_on,73,0,80
1,note_on,75,43,0
1,note_on,75,0,120
1,note_on,73,40,0
1,note_on,73,0,120
1,note_on,75,46,0
1,note_on,75,0,120
1,note_on,73,42,0
1,note_on,73,0,120
1,note_on,72,48,0
1,note_on,72,0,120
1,note_on,73,44,0
1,note_on,73,0,120
1,note_on,79,58,0
1,note_on,82,58,0
1,note_on,82,0,720
1,note_on,79,0,0
1,note_on,83,56,2160
1,note_on,80,56,0
1,note_on,80,0,720
1,note_on,83,0,0
1,note_on,88,75,2160
1,note_on,80,75,0
1,note_on,83,75,0
1,note_on,83,0,2880
1,note_on,80,0,0
1,note_on,88,0,0
1,note_on,82,52,0
1,note_on,87,52,0
1,note_on,79,52,0
1,note_on,79,0,480
1,note_on,87,0,0
1,note_on,82,0,0
1,note_on,79,56,1680
1,note_on,82,56,0
1,note_on,82,0,600
1,note_on,79,0,0
1,note_on,82,52,0
1,note_on,79,52,0
1,note_on,79,0,120
1,note_on,82,0,0
1,note_on,83,58,0
1,note_on,80,58,0
1,note_on,80,0,480
1,note_on,83,0,0
1,note_on,79,52,0
1,note_on,82,52,0
1,note_on,82,0,240
1,note_on,79,0,0
1,note_on,70,50,480
1,note_on,67,50,0
1,note_on,67,0,240
1,note_on,70,0,0
1,note_on,58,49,480
1,note_on,55,49,0
1,note_on,55,0,240
1,note_on,58,0,0
1,note_on,79,58,600
1,note_on,82,58,0
1,note_on,82,0,120
1,note_on,79,0,0
1,note_on,85,61,0
1,note_on,82,61,0
1,note_on,82,0,480
1,note_on,85,0,0
1,note_on,83,52,0
1,note_on,80,52,0
1,note_on,80,0,240
1,note_on,83,0,0
1,note_on,71,49,480
1,note_on,68,49,0
1,note_on,68,0,240
1,note_on,71,0,0
1,note_on,59,47,480
1,note_on,56,47,0
1,note_on,56,0,235
1,note_on,59,0,0
1,note_on,80,52,605
1,note_on,83,52,0
1,note_on,83,0,120
1,note_on,80,0,0
1,note_on,80,75,0
1,note_on,88,75,0
1,note_on,83,75,0
1,note_on,83,0,2880
1,note_on,88,0,0
1,note_on,80,0,0
1,note_on,79,61,0
1,note_on,87,61,0
1,note_on,82,61,0
1,note_on,82,0,480
1,note_on,87,0,0
1,note_on,79,0,0
1,note_on,75,52,960
1,note_on,66,52,0
1,note_on,69,52,0
1,note_on,69,0,1440
1,note_on,66,0,0
1,note_on,75,0,0
1,note_on,74,52,0
1,note_on,65,52,0
1,note_on,68,52,0
1,note_on,68,0,480
1,note_on,65,0,0
1,note_on,74,0,0
1,note_on,73,46,960
1,note_on,64,46,0
1,note_on,67,46,0
1,note_on,67,0,480
1,note_on,64,0,0
1,note_on,73,0,0
1,note_on,73,41,960
1,note_on,63,41,0
1,note_on,67,41,0
1,note_on,67,0,720
1,note_on,63,0,0
1,note_on,73,0,0
1,note_on,60,44,7200
1,note_on,60,0,600
1,note_on,63,40,0
1,note_on,63,0,120
1,note_on,56,38,0
1,note_on,68,41,0
1,note_on,68,0,720
1,note_on,56,0,0
1,note_on,72,44,0
1,note_on,60,40,0
1,note_on,60,0,600
1,note_on,72,0,0
1,note_on,56,36,0
1,note_on,68,39,0
1,note_on,68,0,120
1,note_on,56,0,0
1,note_on,67,41,0
1,note_on,55,38,0
1,note_on,55,0,720
1,note_on,67,0,0
1,note_on,58,40,0
1,note_on,70,44,0
1,note_on,70,0,600
1,note_on,58,0,0
1,note_on,55,36,0
1,note_on,67,39,0
1,note_on,67,0,120
1,note_on,55,0,0
1,note_on,68,41,0
1,note_on,56,38,0
1,note_on,56,0,720
1,note_on,68,0,0
1,note_on,63,40,0
1,note_on,63,0,1440
1,note_on,65,44,0
1,note_on,65,0,600
1,note_on,61,40,0
1,note_on,61,0,120
1,note_on,60,44,0
1,note_on,60,0,720
1,note_on,63,44,0
1,note_on,63,0,600
1,note_on,60,39,0
1,note_on,60,0,120
1,note_on,58,44,0
1,note_on,58,0,720
1,note_on,63,44,0
1,note_on,63,0,600
1,note_on,61,39,0
1,note_on,61,0,120
1,note_on,60,42,0
1,note_on,60,0,720
1,note_on,63,42,0
1,note_on,63,0,1440
1,note_on,72,55,0
1,note_on,72,0,600
1,note_on,75,53,0
1,note_on,75,0,120
1,note_on,80,56,0
1,note_on,68,51,0
1,note_on,68,0,720
1,note_on,80,0,0
1,note_on,72,57,0
1,note_on,84,62,0
1,note_on,84,0,600
1,note_on,72,0,0
1,note_on,80,58,0
1,note_on,68,53,0
1,note_on,68,0,120
1,note_on,80,0,0
1,note_on,67,57,0
1,note_on,79,61,0
1,note_on,79,0,720
1,note_on,67,0,0
1,note_on,70,62,0
1,note_on,82,68,0
1,note_on,82,0,600
1,note_on,70,0,0
1,note_on,79,63,0
1,note_on,67,58,0
1,note_on,67,0,120
1,note_on,79,0,0
1,note_on,68,51,0
1,note_on,80,57,0
1,note_on,80,0,720
1,note_on,68,0,0
1,note_on,63,45,0
1,note_on,75,52,0
1,note_on,75,0,2160
1,note_on,63,0,0
1,note_on,76,85,0
1,note_on,64,72,0
1,note_on,64,0,720
1,note_on,76,0,0
1,note_on,61,69,0
1,note_on,73,81,0
1,note_on,73,0,2160
1,note_on,61,0,0
1,note_on,71,58,0
1,note_on,71,0,2160
1,note_on,70,51,0
1,note_on,70,0,480
1,note_on,68,49,0
1,note_on,68,0,180
1,note_on,69,38,0
1,note_on,69,0,60
1,note_on,70,44,0
1,note_on,70,0,120
1,note_on,71,38,0
1,note_on,71,0,120
1,note_on,70,46,0
1,note_on,70,0,120
1,note_on,71,40,0
1,note_on,71,0,120
1,note_on,70,47,0
1,note_on,70,0,120
1,note_on,71,40,0
1,note_on,71,0,120
1,note_on,70,48,0
1,note_on,70,0,120
1,note_on,71,41,0
1,note_on,71,0,120
1,note_on,70,49,0
1,note_on,70,0,120
1,note_on,71,42,0
1,note_on,71,0,120
1,note_on,70,50,0
1,note_on,70,0,120
1,note_on,71,42,0
1,note_on,71,0,120
1,note_on,70,51,0
1,note_on,70,0,120
1,note_on,71,44,0
1,note_on,71,0,120
1,note_on,70,51,0
1,note_on,70,0,120
1,note_on,71,45,0
1,note_on,71,0,120
1,note_on,70,52,0
1,note_on,70,0,120
1,note_on,71,46,0
1,note_on,71,0,120
1,note_on,70,53,0
1,note_on,70,0,120
1,note_on,71,48,0
1,note_on,71,0,120
1,note_on,70,55,0
1,note_on,70,0,120
1,note_on,71,48,0
1,note_on,71,0,120
1,note_on,70,56,0
1,note_on,70,0,120
1,note_on,71,48,0
1,note_on,71,0,120
1,note_on,76,46,0
1,note_on,76,0,120
1,note_on,75,39,0
1,note_on,75,0,120
1,note_on,76,46,0
1,note_on,76,0,120
1,note_on,75,40,0
1,note_on,75,0,120
1,note_on,76,48,0
1,note_on,76,0,120
1,note_on,75,41,0
1,note_on,75,0,120
1,note_on,76,50,0
1,note_on,76,0,120
1,note_on,75,44,0
1,note_on,75,0,120
1,note_on,76,51,0
1,note_on,76,0,120
1,note_on,75,45,0
1,note_on,75,0,120
1,note_on,76,53,0
1,note_on,76,0,120
1,note_on,75,47,0
1,note_on,75,0,120
1,note_on,76,56,0
1,note_on,76,0,120
1,note_on,75,48,0
1,note_on,75,0,120
1,note_on,76,56,0
1,note_on,76,0,120
1,note_on,75,47,0
1,note_on,75,0,120
1,note_on,76,56,0
1,note_on,76,0,120
1,note_on,75,48,0
1,note_on,75,0,120
1,note_on,76,56,0
1,note_on,76,0,120
1,note_on,75,49,0
1,note_on,75,0,120
1,note_on,76,56,0
1,note_on,76,0,120
1,note_on,75,49,0
1,note_on,75,0,120
1,note_on,74,56,0
1,note_on,74,0,120
1,note_on,75,48,0
1,note_on,75,0,120
1,note_on,88,55,0
1,note_on,88,0,120
1,note_on,87,46,0
1,note_on,87,0,120
1,note_on,88,55,0
1,note_on,88,0,120
1,note_on,87,48,0
1,note_on,87,0,120
1,note_on,88,57,0
1,note_on,88,0,120
1,note_on,87,50,0
1,note_on,87,0,120
1,note_on,88,60,0
1,note_on,88,0,120
1,note_on,87,51,0
1,note_on,87,0,120
1,note_on,88,62,0
1,note_on,88,0,120
1,note_on,87,52,0
1,note_on,87,0,120
1,note_on,88,63,0
1,note_on,88,0,120
1,note_on,87,55,0
1,note_on,87,0,120
1,note_on,88,67,0
1,note_on,88,0,120
1,note_on,87,56,0
1,note_on,87,0,120
1,note_on,88,68,0
1,note_on,88,0,120
1,note_on,87,57,0
1,note_on,87,0,120
1,note_on,88,67,0
1,note_on,88,0,120
1,note_on,87,56,0
1,note_on,87,0,120
1,note_on,88,67,0
1,note_on,88,0,120
1,note_on,87,58,0
1,note_on,87,0,120
1,note_on,88,67,0
1,note_on,88,0,120
1,note_on,87,58,0
1,note_on,87,0,120
1,note_on,86,67,0
1,note_on,86,0,120
1,note_on,87,56,0
1,note_on,87,0,120
1,note_on,88,64,0
1,note_on,88,0,240
1,note_on,87,55,0
1,note_on,87,0,240
1,note_on,85,48,0
1,note_on,85,0,240
1,note_on,83,49,0
1,note_on,83,0,240
1,note_on,82,48,0
1,note_on,82,0,240
1,note_on,80,48,0
1,note_on,80,0,240
1,note_on,79,49,0
1,note_on,79,0,240
1,note_on,78,47,0
1,note_on,78,0,240
1,note_on,76,47,0
1,note_on,76,0,240
1,note_on,75,48,0
1,note_on,75,0,240
1,note_on,73,48,0
1,note_on,73,0,240
1,note_on,71,45,0
1,note_on,71,0,240
1,note_on,70,48,0
1,note_on,70,0,240
1,note_on,68,44,0
1,note_on,68,0,240
1,note_on,67,44,0
1,note_on,67,0,240
1,note_on,66,45,0
1,note_on,66,0,240
1,note_on,64,45,0
1,note_on,64,0,240
1,note_on,63,45,0
1,note_on,63,0,240
1,note_on,61,45,0
1,note_on,61,0,240
1,note_on,56,83,6960
1,note_on,56,0,120
1,note_on,51,66,0
1,note_on,51,0,120
1,note_on,47,66,0
1,note_on,47,0,120
1,note_on,51,66,0
1,note_on,51,0,120
1,note_on,56,80,0
1,note_on,56,0,120
1,note_on,51,64,0
1,note_on,51,0,120
1,note_on,59,84,0
1,note_on,59,0,120
1,note_on,51,66,0
1,note_on,51,0,120
1,note_on,58,83,0
1,note_on,58,0,120
1,note_on,51,66,0
1,note_on,51,0,120
1,note_on,56,81,0
1,note_on,56,0,120
1,note_on,51,66,0
1,note_on,51,0,120
1,note_on,56,83,0
1,note_on,56,0,120
1,note_on,51,63,0
1,note_on,51,0,120
1,note_on,47,63,0
1,note_on,47,0,120
1,note_on,51,63,0
1,note_on,51,0,120
1,note_on,56,79,0
1,note_on,56,0,120
1,note_on,51,62,0
1,note_on,51,0,120
1,note_on,59,83,0
1,note_on,59,0,120
1,note_on,51,63,0
1,note_on,51,0,120
1,note_on,58,80,0
1,note_on,58,0,120
1,note_on,51,66,0
1,note_on,51,0,120
1,note_on,56,80,0
1,note_on,56,0,120
1,note_on,51,64,0
1,note_on,51,0,120
1,note_on,64,83,0
1,note_on,64,0,120
1,note_on,59,66,0
1,note_on,59,0,120
1,note_on,56,66,0
1,note_on,56,0,120
1,note_on,59,66,0
1,note_on,59,0,120
1,note_on,64,80,0
1,note_on,64,0,120
1,note_on,59,64,0
1,note_on,59,0,120
1,note_on,68,84,0
1,note_on,68,0,120
1,note_on,59,66,0
1,note_on,59,0,120
1,note_on,66,83,0
1,note_on,66,0,120
1,note_on,59,66,0
1,note_on,59,0,120
1,note_on,64,81,0
1,note_on,64,0,120
1,note_on,59,66,0
1,note_on,59,0,120
1,note_on,64,83,0
1,note_on,64,0,120
1,note_on,59,63,0
1,note_on,59,0,120
1,note_on,56,63,0
1,note_on,56,0,120
1,note_on,59,63,0
1,note_on,59,0,120
1,note_on,64,80,0
1,note_on,64,0,120
1,note_on,59,62,0
1,note_on,59,0,120
1,note_on,68,83,0
1,note_on,68,0,120
1,note_on,59,63,0
1,note_on,59,0,120
1,note_on,66,80,0
1,note_on,66,0,120
1,note_on,59,66,0
1,note_on,59,0,120
1,note_on,64,80,0
1,note_on,64,0,120
1,note_on,59,64,0
1,note_on,59,0,120
1,note_on,73,92,0
1,note_on,73,0,120
1,note_on,76,67,0
1,note_on,76,0,120
1,note_on,73,77,0
1,note_on,73,0,120
1,note_on,76,67,0
1,note_on,76,0,120
1,note_on,73,74,0
1,note_on,73,0,120
1,note_on,76,67,0
1,note_on,76,0,120
1,note_on,73,73,0
1,note_on,73,0,120
1,note_on,76,67,0
1,note_on,76,0,120
1,note_on,73,73,0
1,note_on,73,0,120
1,note_on,76,67,0
1,note_on,76,0,120
1,note_on,73,73,0
1,note_on,73,0,120
1,note_on,76,67,0
1,note_on,76,0,120
1,note_on,73,73,0
1,note_on,73,0,120
1,note_on,76,67,0
1,note_on,76,0,120
1,note_on,73,73,0
1,note_on,73,0,120
1,note_on,76,67,0
1,note_on,76,0,120
1,note_on,73,72,0
1,note_on,73,0,120
1,note_on,76,67,0
1,note_on,76,0,120
1,note_on,73,95,0
1,note_on,73,0,120
1,note_on,76,78,0
1,note_on,76,0,120
1,note_on,70,89,0
1,note_on,70,0,120
1,note_on,73,78,0
1,note_on,73,0,120
1,note_on,67,84,0
1,note_on,67,0,120
1,note_on,70,77,0
1,note_on,70,0,120
1,note_on,64,82,0
1,note_on,64,0,120
1,note_on,67,70,0
1,note_on,67,0,120
1,note_on,61,81,0
1,note_on,61,0,120
1,note_on,64,71,0
1,note_on,64,0,120
1,note_on,58,82,0
1,note_on,58,0,120
1,note_on,61,68,0
1,note_on,61,0,120
1,note_on,56,81,0
1,note_on,56,0,120
1,note_on,58,70,0
1,note_on,58,0,120
1,note_on,61,80,0
1,note_on,61,0,120
1,note_on,58,70,0
1,note_on,58,0,120
1,note_on,56,80,0
1,note_on,56,0,120
1,note_on,58,69,0
1,note_on,58,0,120
1,note_on,56,70,120
1,note_on,56,0,120
1,note_on,61,80,0
1,note_on,61,0,120
1,note_on,58,69,0
1,note_on,58,0,120
1,note_on,56,77,0
1,note_on,56,0,120
1,note_on,61,70,0
1,note_on,61,0,120
1,note_on,55,69,120
1,note_on,55,0,120
1,note_on,61,80,0
1,note_on,61,0,120
1,note_on,58,69,0
1,note_on,58,0,120
1,note_on,55,78,0
1,note_on,55,0,120
1,note_on,61,69,0
1,note_on,61,0,120
1,note_on,68,83,0
1,note_on,68,0,120
1,note_on,63,66,0
1,note_on,63,0,120
1,note_on,59,66,0
1,note_on,59,0,120
1,note_on,63,66,0
1,note_on,63,0,120
1,note_on,68,80,0
1,note_on,68,0,120
1,note_on,63,64,0
1,note_on,63,0,120
1,note_on,71,84,0
1,note_on,71,0,120
1,note_on,63,66,0
1,note_on,63,0,120
1,note_on,70,83,0
1,note_on,70,0,120
1,note_on,63,66,0
1,note_on,63,0,120
1,note_on,68,81,0
1,note_on,68,0,120
1,note_on,63,66,0
1,note_on,63,0,120
1,note_on,68,83,0
1,note_on,68,0,120
1,note_on,63,63,0
1,note_on,63,0,120
1,note_on,59,63,0
1,note_on,59,0,120
1,note_on,63,63,0
1,note_on,63,0,120
1,note_on,68,80,0
1,note_on,68,0,120
1,note_on,63,62,0
1,note_on,63,0,120
1,note_on,71,83,0
1,note_on,71,0,120
1,note_on,63,63,0
1,note_on,63,0,120
1,note_on,70,80,0
1,note_on,70,0,120
1,note_on,63,66,0
1,note_on,63,0,120
1,note_on,68,80,0
1,note_on,68,0,120
1,note_on,63,64,0
1,note_on,63,0,120
1,note_on,76,83,0
1,note_on,76,0,120
1,note_on,71,66,0
1,note_on,71,0,120
1,note_on,68,66,0
1,note_on,68,0,120
1,note_on,71,66,0
1,note_on,71,0,120
1,note_on,76,80,0
1,note_on,76,0,120
1,note_on,71,64,0
1,note_on,71,0,120
1,note_on,80,84,0
1,note_on,80,0,120
1,note_on,71,66,0
1,note_on,71,0,120
1,note_on,78,83,0
1,note_on,78,0,120
1,note_on,71,66,0
1,note_on,71,0,120
1,note_on,76,81,0
1,note_on,76,0,120
1,note_on,71,66,0
1,note_on,71,0,120
1,note_on,76,83,0
1,note_on,76,0,120
1,note_on,71,63,0
1,note_on,71,0,120
1,note_on,68,63,0
1,note_on,68,0,120
1,note_on,71,63,0
1,note_on,71,0,120
1,note_on,76,80,0
1,note_on,76,0,120
1,note_on,71,62,0
1,note_on,71,0,120
1,note_on,80,83,0
1,note_on,80,0,120
1,note_on,71,63,0
1,note_on,71,0,120
1,note_on,78,80,0
1,note_on,78,0,120
1,note_on,71,66,0
1,note_on,71,0,120
1,note_on,76,80,0
1,note_on,76,0,120
1,note_on,71,64,0
1,note_on,71,0,120
1,note_on,85,94,0
1,note_on,85,0,120
1,note_on,88,77,0
1,note_on,88,0,120
1,note_on,85,78,0
1,note_on,85,0,120
1,note_on,88,69,0
1,note_on,88,0,120
1,note_on,85,75,0
1,note_on,85,0,120
1,note_on,88,69,0
1,note_on,88,0,120
1,note_on,85,75,0
1,note_on,85,0,120
1,note_on,88,69,0
1,note_on,88,0,120
1,note_on,85,74,0
1,note_on,85,0,120
1,note_on,88,69,0
1,note_on,88,0,120
1,note_on,85,71,0
1,note_on,85,0,120
1,note_on,88,69,0
1,note_on,88,0,120
1,note_on,85,71,0
1,note_on,85,0,120
1,note_on,88,69,0
1,note_on,88,0,120
1,note_on,85,71,0
1,note_on,85,0,120
1,note_on,88,69,0
1,note_on,88,0,120
1,note_on,85,73,0
1,note_on,85,0,120
1,note_on,88,69,0
1,note_on,88,0,120
1,note_on,85,76,0
1,note_on,85,0,120
1,note_on,88,69,0
1,note_on,88,0,120
1,note_on,85,77,0
1,note_on,85,0,120
1,note_on,88,69,0
1,note_on,88,0,120
1,note_on,85,77,0
1,note_on,85,0,120
1,note_on,88,69,0
1,note_on,88,0,120
1,note_on,85,82,0
1,note_on,85,0,120
1,note_on,88,70,0
1,note_on,88,0,120
1,note_on,82,81,0
1,note_on,82,0,120
1,note_on,85,71,0
1,note_on,85,0,120
1,note_on,80,82,0
1,note_on,80,0,120
1,note_on,82,68,0
1,note_on,82,0,120
1,note_on,80,81,0
1,note_on,80,0,120
1,note_on,82,70,0
1,note_on,82,0,120
1,note_on,85,80,0
1,note_on,85,0,120
1,note_on,82,70,0
1,note_on,82,0,120
1,note_on,80,80,0
1,note_on,80,0,120
1,note_on,82,69,0
1,note_on,82,0,120
1,note_on,80,72,120
1,note_on,80,0,120
1,note_on,85,77,0
1,note_on,85,0,120
1,note_on,82,70,0
1,note_on,82,0,120
1,note_on,80,74,0
1,note_on,80,0,120
1,note_on,85,69,0
1,note_on,85,0,120
1,note_on,79,67,120
1,note_on,79,0,120
1,note_on,85,71,0
1,note_on,85,0,120
1,note_on,82,64,0
1,note_on,82,0,120
1,note_on,79,68,0
1,note_on,79,0,120
1,note_on,85,62,0
1,note_on,85,0,120
1,note_on,76,72,120
1,note_on,76,0,120
1,note_on,85,78,0
1,note_on,85,0,120
1,note_on,82,70,0
1,note_on,82,0,120
1,note_on,76,77,0
1,note_on,76,0,120
1,note_on,85,69,0
1,note_on,85,0,120
1,note_on,75,67,120
1,note_on,75,0,120
1,note_on,85,74,0
1,note_on,85,0,120
1,note_on,82,64,0
1,note_on,82,0,120
1,note_on,75,70,0
1,note_on,75,0,120
1,note_on,85,62,0
1,note_on,85,0,120
1,note_on,80,72,120
1,note_on,80,0,120
1,note_on,85,78,0
1,note_on,85,0,120
1,note_on,82,70,0
1,note_on,82,0,120
1,note_on,80,76,0
1,note_on,80,0,120
1,note_on,85,69,0
1,note_on,85,0,120
1,note_on,79,67,120
1,note_on,79,0,120
1,note_on,85,73,0
1,note_on,85,0,120
1,note_on,82,64,0
1,note_on,82,0,120
1,note_on,79,70,0
1,note_on,79,0,120
1,note_on,85,62,0
1,note_on,85,0,120
1,note_on,83,79,360
1,note_on,83,0,120
1,note_on,86,83,0
1,note_on,86,0,120
1,note_on,89,74,0
1,note_on,89,0,120
1,note_on,92,85,0
1,note_on,92,0,120
1,note_on,89,81,0
1,note_on,89,0,120
1,note_on,86,86,0
1,note_on,86,0,120
1,note_on,95,83,0
1,note_on,95,0,120
1,note_on,94,86,0
1,note_on,94,0,120
1,note_on,92,78,0
1,note_on,92,0,120
1,note_on,91,83,0
1,note_on,91,0,120
1,note_on,94,81,0
1,note_on,94,0,120
1,note_on,92,84,0
1,note_on,92,0,120
1,note_on,91,82,0
1,note_on,91,0,120
1,note_on,88,81,0
1,note_on,88,0,120
1,note_on,87,74,0
1,note_on,87,0,120
1,note_on,85,78,0
1,note_on,85,0,120
1,note_on,88,75,0
1,note_on,88,0,120
1,note_on,87,74,0
1,note_on,87,0,120
1,note_on,85,72,0
1,note_on,85,0,120
1,note_on,83,71,0
1,note_on,83,0,120
1,note_on,82,66,0
1,note_on,82,0,120
1,note_on,80,42,120
1,note_on,80,0,120
1,note_on,83,45,0
1,note_on,83,0,120
1,note_on,87,47,0
1,note_on,87,0,120
1,note_on,92,49,0
1,note_on,92,0,120
1,note_on,80,45,0
1,note_on,80,0,120
1,note_on,92,49,360
1,note_on,92,0,120
1,note_on,80,45,0
1,note_on,80,0,120
1,note_on,92,49,0
1,note_on,92,0,120
1,note_on,92,48,360
1,note_on,92,0,120
1,note_on,80,45,0
1,note_on,80,0,120
1,note_on,92,48,0
1,note_on,92,0,120
1,note_on,91,48,360
1,note_on,91,0,120
1,note_on,79,45,0
1,note_on,79,0,120
1,note_on,91,49,0
1,note_on,91,0,120
1,note_on,80,42,120
1,note_on,80,0,120
1,note_on,83,45,0
1,note_on,83,0,120
1,note_on,87,47,0
1,note_on,87,0,120
1,note_on,92,49,0
1,note_on,92,0,120
1,note_on,80,45,0
1,note_on,80,0,120
1,note_on,80,49,360
1,note_on,80,0,120
1,note_on,68,45,0
1,note_on,68,0,120
1,note_on,80,49,0
1,note_on,80,0,120
1,note_on,80,48,360
1,note_on,80,0,120
1,note_on,68,45,0
1,note_on,68,0,120
1,note_on,80,48,0
1,note_on,80,0,120
1,note_on,79,48,360
1,note_on,79,0,120
1,note_on,67,45,0
1,note_on,67,0,120
1,note_on,79,49,0
1,note_on,79,0,120
1,note_on,80,42,120
1,note_on,80,0,120
1,note_on,83,45,0
1,note_on,83,0,120
1,note_on,87,47,0
1,note_on,87,0,120
1,note_on,92,49,0
1,note_on,92,0,120
1,note_on,80,45,0
1,note_on,80,0,120
1,note_on,92,49,360
1,note_on,92,0,120
1,note_on,80,45,0
1,note_on,80,0,120
1,note_on,92,49,0
1,note_on,92,0,120
1,note_on,92,48,360
1,note_on,92,0,120
1,note_on,80,45,0
1,note_on,80,0,120
1,note_on,92,48,0
1,note_on,92,0,120
1,note_on,91,48,360
1,note_on,91,0,120
1,note_on,79,45,0
1,note_on,79,0,120
1,note_on,91,49,0
1,note_on,91,0,120
1,note_on,92,48,0
1,note_on,92,0,120
1,note_on,87,45,0
1,note_on,87,0,120
1,note_on,83,44,0
1,note_on,83,0,120
1,note_on,87,39,0
1,note_on,87,0,120
1,note_on,92,42,0
1,note_on,92,0,120
1,note_on,87,39,0
1,note_on,87,0,120
1,note_on,83,46,0
1,note_on,83,0,120
1,note_on,87,41,0
1,note_on,87,0,120
1,note_on,92,41,0
1,note_on,92,0,120
1,note_on,87,37,0
1,note_on,87,0,120
1,note_on,83,40,0
1,note_on,83,0,120
1,note_on,87,36,0
1,note_on,87,0,120
1,note_on,92,42,0
1,note_on,92,0,120
1,note_on,87,39,0
1,note_on,87,0,120
1,note_on,83,39,0
1,note_on,83,0,120
1,note_on,87,35,0
1,note_on,87,0,120
1,note_on,92,38,0
1,note_on,92,0,120
1,note_on,87,34,0
1,note_on,87,0,120
1,note_on,92,39,0
1,note_on,92,0,120
1,note_on,87,35,0
1,note_on,87,0,120
1,note_on,92,37,0
1,note_on,92,0,120
1,note_on,87,31,0
1,note_on,87,0,120
1,note_on,92,36,0
1,note_on,92,0,120
1,note_on,87,30,0
1,note_on,87,0,120
1,note_on,92,33,0
1,note_on,92,0,2160
1,note_on,59,35,0
1,note_on,59,0,600
1,note_on,56,31,0
1,note_on,56,0,120
1,note_on,51,28,0
1,note_on,51,0,2160
1,note_on,59,35,0
1,note_on,59,0,600
1,note_on,56,31,0
1,note_on,56,0,120
1,note_on,52,28,0
1,note_on,52,0,2160
1,note_on,56,35,0
1,note_on,56,0,600
1,note_on,59,30,0
1,note_on,59,0,120
1,note_on,64,35,0
1,note_on,64,0,720
1,note_on,68,36,0
1,note_on,68,0,600
1,note_on,71,31,0
1,note_on,71,0,120
1,note_on,76,36,0
1,note_on,76,0,715
1,note_on,64,34,5
1,note_on,64,0,720
1,note_on,71,35,0
1,note_on,71,0,1200
1,note_on,73,33,0
1,note_on,73,0,180
1,note_on,71,34,0
1,note_on,71,0,60
1,note_on,73,31,0
1,note_on,73,0,80
1,note_on,75,27,0
1,note_on,75,0,80
1,note_on,73,31,0
1,note_on,73,0,80
1,note_on,75,27,0
1,note_on,75,0,80
1,note_on,73,31,0
1,note_on,73,0,80
1,note_on,75,28,0
1,note_on,75,0,80
1,note_on,73,31,0
1,note_on,73,0,80
1,note_on,75,27,0
1,note_on,75,0,80
1,note_on,73,31,0
1,note_on,73,0,80
1,note_on,75,28,0
1,note_on,75,0,80
1,note_on,73,26,0
1,note_on,73,0,80
1,note_on,75,31,0
1,note_on,75,0,80
1,note_on,73,26,0
1,note_on,73,0,120
1,note_on,71,30,0
1,note_on,71,0,120
1,note_on,75,35,0
1,note_on,75,0,120
1,note_on,73,31,0
1,note_on,73,0,120
1,note_on,71,35,0
1,note_on,71,0,480
1,note_on,78,35,2400
1,note_on,78,0,1200
1,note_on,80,35,0
1,note_on,80,0,240
1,note_on,77,35,0
1,note_on,80,44,0
1,note_on,80,0,80
1,note_on,81,35,0
1,note_on,81,0,80
1,note_on,80,40,0
1,note_on,80,0,80
1,note_on,81,36,0
1,note_on,81,0,80
1,note_on,80,39,0
1,note_on,80,0,80
1,note_on,81,36,0
1,note_on,81,0,80
1,note_on,80,38,0
1,note_on,80,0,80
1,note_on,81,34,0
1,note_on,81,0,80
1,note_on,80,37,0
1,note_on,80,0,80
1,note_on,81,35,0
1,note_on,81,0,80
1,note_on,80,31,0
1,note_on,80,0,80
1,note_on,81,36,0
1,note_on,81,0,80
1,note_on,80,33,0
1,note_on,80,0,120
1,note_on,78,33,0
1,note_on,78,0,120
1,note_on,81,37,0
1,note_on,81,0,120
1,note_on,80,33,0
1,note_on,80,0,120
1,note_on,77,0,0
1,note_on,78,35,0
1,note_on,78,0,480
1,note_on,64,35,2400
1,note_on,64,0,1200
1,note_on,66,35,0
1,note_on,66,0,240
1,note_on,63,35,0
1,note_on,66,44,0
1,note_on,66,0,80
1,note_on,68,35,0
1,note_on,68,0,80
1,note_on,66,40,0
1,note_on,66,0,80
1,note_on,68,36,0
1,note_on,68,0,80
1,note_on,66,39,0
1,note_on,66,0,80
1,note_on,68,36,0
1,note_on,68,0,80
1,note_on,66,39,0
1,note_on,66,0,80
1,note_on,68,35,0
1,note_on,68,0,80
1,note_on,66,39,0
1,note_on,66,0,80
1,note_on,68,35,0
1,note_on,68,0,80
1,note_on,66,31,0
1,note_on,66,0,80
1,note_on,68,36,0
1,note_on,68,0,80
1,note_on,66,33,0
1,note_on,66,0,120
1,note_on,64,33,0
1,note_on,64,0,120
1,note_on,68,37,0
1,note_on,68,0,120
1,note_on,66,33,0
1,note_on,66,0,120
1,note_on,63,0,0
1,note_on,64,35,0
1,note_on,64,0,720
1,note_on,57,45,0
1,note_on,61,45,0
1,note_on,69,53,0
1,note_on,69,0,1440
1,note_on,61,0,0
1,note_on,57,0,0
1,note_on,57,36,0
1,note_on,61,36,0
1,note_on,66,44,0
1,note_on,66,0,600
1,note_on,68,39,0
1,note_on,68,0,120
1,note_on,61,0,0
1,note_on,57,0,0
1,note_on,64,42,0
1,note_on,56,35,0
1,note_on,59,35,0
1,note_on,59,0,1440
1,note_on,56,0,0
1,note_on,64,0,0
1,note_on,63,36,0
1,note_on,57,30,0
1,note_on,54,30,0
1,note_on,54,0,1440
1,note_on,57,0,0
1,note_on,63,0,0
1,note_on,76,35,0
1,note_on,76,0,1200
1,note_on,78,35,0
1,note_on,78,0,240
1,note_on,78,36,0
1,note_on,75,29,0
1,note_on,78,0,80
1,note_on,80,33,0
1,note_on,80,0,80
1,note_on,78,36,0
1,note_on,78,0,80
1,note_on,80,34,0
1,note_on,80,0,80
1,note_on,78,36,0
1,note_on,78,0,80
1,note_on,80,34,0
1,note_on,80,0,80
1,note_on,78,36,0
1,note_on,78,0,80
1,note_on,80,32,0
1,note_on,80,0,80
1,note_on,78,36,0
1,note_on,78,0,80
1,note_on,80,33,0
1,note_on,80,0,80
1,note_on,78,30,0
1,note_on,78,0,80
1,note_on,80,34,0
1,note_on,80,0,80
1,note_on,78,31,0
1,note_on,78,0,120
1,note_on,76,33,0
1,note_on,76,0,120
1,note_on,80,37,0
1,note_on,80,0,120
1,note_on,78,33,0
1,note_on,78,0,120
1,note_on,75,0,0
1,note_on,76,35,0
1,note_on,76,0,720
1,note_on,69,45,0
1,note_on,73,45,0
1,note_on,81,53,0
1,note_on,81,0,1440
1,note_on,73,0,0
1,note_on,69,0,0
1,note_on,69,36,0
1,note_on,73,36,0
1,note_on,78,44,0
1,note_on,78,0,600
1,note_on,80,39,0
1,note_on,80,0,120
1,note_on,73,0,0
1,note_on,69,0,0
1,note_on,68,35,0
1,note_on,76,42,0
1,note_on,71,35,0
1,note_on,71,0,1440
1,note_on,76,0,0
1,note_on,68,0,0
1,note_on,75,36,0
1,note_on,69,30,0
1,note_on,66,30,0
1,note_on,66,0,480
1,note_on,69,0,0
1,note_on,75,0,0
1,note_on,71,70,960
1,note_on,71,0,120
1,note_on,67,61,0
1,note_on,67,0,120
1,note_on,71,70,0
1,note_on,71,0,120
1,note_on,67,60,0
1,note_on,67,0,120
1,note_on,71,70,0
1,note_on,71,0,120
1,note_on,67,61,0
1,note_on,67,0,120
1,note_on,71,70,0
1,note_on,71,0,120
1,note_on,67,60,0
1,note_on,67,0,120
1,note_on,71,70,0
1,note_on,71,0,120
1,note_on,67,60,0
1,note_on,67,0,120
1,note_on,71,70,0
1,note_on,71,0,120
1,note_on,67,59,0
1,note_on,67,0,120
1,note_on,71,70,0
1,note_on,71,0,120
1,note_on,67,61,0
1,note_on,67,0,120
1,note_on,71,70,0
1,note_on,71,0,120
1,note_on,67,60,0
1,note_on,67,0,120
1,note_on,71,70,0
1,note_on,71,0,120
1,note_on,67,61,0
1,note_on,67,0,120
1,note_on,71,70,0
1,note_on,71,0,120
1,note_on,67,60,0
1,note_on,67,0,120
1,note_on,71,70,0
1,note_on,71,0,120
1,note_on,67,60,0
1,note_on,67,0,120
1,note_on,71,70,0
1,note_on,71,0,120
1,note_on,67,59,0
1,note_on,67,0,120
1,note_on,71,70,0
1,note_on,71,0,120
1,note_on,67,61,0
1,note_on,67,0,120
1,note_on,71,70,0
1,note_on,71,0,120
1,note_on,67,60,0
1,note_on,67,0,120
1,note_on,71,70,0
1,note_on,71,0,120
1,note_on,67,61,0
1,note_on,67,0,120
1,note_on,71,70,0
1,note_on,71,0,120
1,note_on,67,60,0
1,note_on,67,0,120
1,note_on,71,70,0
1,note_on,71,0,120
1,note_on,67,60,0
1,note_on,67,0,120
1,note_on,71,70,0
1,note_on,71,0,120
1,note_on,67,59,0
1,note_on,67,0,120
1,note_on,71,70,0
1,note_on,71,0,120
1,note_on,67,61,0
1,note_on,67,0,120
1,note_on,71,70,0
1,note_on,71,0,120
1,note_on,67,60,0
1,note_on,67,0,120
1,note_on,71,70,0
1,note_on,71,0,120
1,note_on,67,61,0
1,note_on,67,0,120
1,note_on,71,70,0
1,note_on,71,0,120
1,note_on,67,60,0
1,note_on,67,0,120
1,note_on,71,70,0
1,note_on,71,0,120
1,note_on,67,60,0
1,note_on,67,0,120
1,note_on,71,70,0
1,note_on,71,0,120
1,note_on,67,59,0
1,note_on,67,0,120
1,note_on,65,83,0
1,note_on,65,0,144
1,note_on,67,67,0
1,note_on,67,0,144
1,note_on,71,70,0
1,note_on,71,0,144
1,note_on,67,68,0
1,note_on,67,0,144
1,note_on,65,68,0
1,note_on,65,0,144
1,note_on,62,81,0
1,note_on,62,0,144
1,note_on,65,67,0
1,note_on,65,0,144
1,note_on,67,70,0
1,note_on,67,0,144
1,note_on,65,68,0
1,note_on,65,0,144
1,note_on,62,68,0
1,note_on,62,0,144
1,note_on,59,77,0
1,note_on,59,0,144
1,note_on,62,62,0
1,note_on,62,0,144
1,note_on,65,67,0
1,note_on,65,0,144
1,note_on,62,63,0
1,note_on,62,0,144
1,note_on,59,63,0
1,note_on,59,0,144
1,note_on,71,89,0
1,note_on,71,0,600
1,note_on,74,80,0
1,note_on,74,0,120
1,note_on,79,89,0
1,note_on,79,0,720
1,note_on,83,91,0
1,note_on,83,0,600
1,note_on,86,80,0
1,note_on,86,0,120
1,note_on,79,82,0
1,note_on,91,90,0
1,note_on,91,0,720
1,note_on,79,0,0
1,note_on,91,86,0
1,note_on,79,79,0
1,note_on,79,0,720
1,note_on,91,0,0
1,note_on,79,91,0
1,note_on,91,91,0
1,note_on,91,0,144
1,note_on,79,0,0
1,note_on,87,73,0
1,note_on,87,0,144
1,note_on,91,77,0
1,note_on,91,0,144
1,note_on,87,74,0
1,note_on,87,0,144
1,note_on,84,74,0
1,note_on,84,0,144
1,note_on,79,91,0
1,note_on,79,0,144
1,note_on,84,73,0
1,note_on,84,0,144
1,note_on,87,77,0
1,note_on,87,0,144
1,note_on,84,74,0
1,note_on,84,0,144
1,note_on,79,74,0
1,note_on,79,0,144
1,note_on,75,91,0
1,note_on,75,0,144
1,note_on,79,73,0
1,note_on,79,0,144
1,note_on,84,77,0
1,note_on,84,0,144
1,note_on,79,74,0
1,note_on,79,0,144
1,note_on,75,74,0
1,note_on,75,0,144
1,note_on,72,91,0
1,note_on,72,0,144
1,note_on,75,73,0
1,note_on,75,0,144
1,note_on,79,77,0
1,note_on,79,0,144
1,note_on,75,74,0
1,note_on,75,0,144
1,note_on,72,74,0
1,note_on,72,0,144
1,note_on,67,91,0
1,note_on,67,0,144
1,note_on,72,73,0
1,note_on,72,0,144
1,note_on,75,77,0
1,note_on,75,0,144
1,note_on,72,74,0
1,note_on,72,0,144
1,note_on,67,74,0
1,note_on,67,0,144
1,note_on,63,91,0
1,note_on,63,0,144
1,note_on,67,73,0
1,note_on,67,0,144
1,note_on,72,77,0
1,note_on,72,0,144
1,note_on,67,74,0
1,note_on,67,0,144
1,note_on,63,74,0
1,note_on,63,0,144
1,note_on,63,91,0
1,note_on,63,0,144
1,note_on,67,73,0
1,note_on,67,0,144
1,note_on,72,77,0
1,note_on,72,0,144
1,note_on,67,74,0
1,note_on,67,0,144
1,note_on,63,74,0
1,note_on,63,0,144
1,note_on,63,91,0
1,note_on,63,0,144
1,note_on,67,73,0
1,note_on,67,0,144
1,note_on,72,77,0
1,note_on,72,0,144
1,note_on,67,74,0
1,note_on,67,0,144
1,note_on,63,74,0
1,note_on,63,0,144
1,note_on,61,83,0
1,note_on,61,0,144
1,note_on,63,67,0
1,note_on,63,0,144
1,note_on,67,70,0
1,note_on,67,0,144
1,note_on,63,68,0
1,note_on,63,0,144
1,note_on,61,68,0
1,note_on,61,0,144
1,note_on,58,81,0
1,note_on,58,0,144
1,note_on,61,67,0
1,note_on,61,0,144
1,note_on,63,70,0
1,note_on,63,0,144
1,note_on,61,68,0
1,note_on,61,0,144
1,note_on,58,68,0
1,note_on,58,0,144
1,note_on,55,77,0
1,note_on,55,0,144
1,note_on,58,62,0
1,note_on,58,0,144
1,note_on,61,67,0
1,note_on,61,0,144
1,note_on,58,63,0
1,note_on,58,0,144
1,note_on,55,63,0
1,note_on,55,0,144
1,note_on,67,89,0
1,note_on,67,0,600
1,note_on,70,80,0
1,note_on,70,0,120
1,note_on,75,89,0
1,note_on,75,0,720
1,note_on,79,91,0
1,note_on,79,0,600
1,note_on,82,80,0
1,note_on,82,0,120
1,note_on,75,82,0
1,note_on,87,90,0
1,note_on,87,0,720
1,note_on,75,0,0
1,note_on,75,79,0
1,note_on,87,86,0
1,note_on,87,0,720
1,note_on,75,0,0
1,note_on,87,100,0
1,note_on,87,0,144
1,note_on,92,80,0
1,note_on,92,0,144
1,note_on,96,83,0
1,note_on,96,0,144
1,note_on,92,81,0
1,note_on,92,0,144
1,note_on,87,80,0
1,note_on,87,0,144
1,note_on,84,97,0
1,note_on,84,0,144
1,note_on,87,78,0
1,note_on,87,0,144
1,note_on,92,81,0
1,note_on,92,0,144
1,note_on,87,79,0
1,note_on,87,0,144
1,note_on,84,75,0
1,note_on,84,0,144
1,note_on,80,95,0
1,note_on,80,0,144
1,note_on,84,77,0
1,note_on,84,0,144
1,note_on,87,79,0
1,note_on,87,0,144
1,note_on,84,77,0
1,note_on,84,0,144
1,note_on,80,77,0
1,note_on,80,0,144
1,note_on,75,93,0
1,note_on,75,0,144
1,note_on,80,74,0
1,note_on,80,0,144
1,note_on,84,78,0
1,note_on,84,0,144
1,note_on,80,74,0
1,note_on,80,0,144
1,note_on,75,74,0
1,note_on,75,0,144
1,note_on,72,91,0
1,note_on,72,0,144
1,note_on,75,73,0
1,note_on,75,0,144
1,note_on,80,77,0
1,note_on,80,0,144
1,note_on,75,74,0
1,note_on,75,0,144
1,note_on,72,74,0
1,note_on,72,0,144
1,note_on,68,91,0
1,note_on,68,0,144
1,note_on,72,73,0
1,note_on,72,0,144
1,note_on,75,77,0
1,note_on,75,0,144
1,note_on,72,74,0
1,note_on,72,0,144
1,note_on,68,74,0
1,note_on,68,0,144
1,note_on,63,91,0
1,note_on,63,0,144
1,note_on,68,73,0
1,note_on,68,0,144
1,note_on,72,77,0
1,note_on,72,0,144
1,note_on,68,74,0
1,note_on,68,0,144
1,note_on,63,74,0
1,note_on,63,0,144
1,note_on,60,91,0
1,note_on,60,0,144
1,note_on,63,73,0
1,note_on,63,0,144
1,note_on,68,77,0
1,note_on,68,0,144
1,note_on,63,74,0
1,note_on,63,0,144
1,note_on,60,74,0
1,note_on,60,0,144
1,note_on,66,83,0
1,note_on,66,0,2160
1,note_on,72,89,0
1,note_on,72,0,600
1,note_on,75,85,0
1,note_on,75,0,120
1,note_on,78,92,0
1,note_on,78,0,720
1,note_on,84,95,0
1,note_on,84,0,600
1,note_on,87,84,0
1,note_on,87,0,120
1,note_on,90,96,0
1,note_on,90,0,720
1,note_on,90,93,0
1,note_on,90,0,720
1,note_on,90,105,0
1,note_on,90,0,960
1,note_on,90,77,0
1,note_on,90,0,120
1,note_on,87,76,0
1,note_on,87,0,120
1,note_on,84,75,0
1,note_on,84,0,120
1,note_on,78,75,0
1,note_on,78,0,120
1,note_on,90,103,0
1,note_on,90,0,960
1,note_on,78,77,0
1,note_on,78,0,120
1,note_on,75,76,0
1,note_on,75,0,120
1,note_on,72,75,0
1,note_on,72,0,120
1,note_on,66,75,0
1,note_on,66,0,120
1,note_on,78,94,0
1,note_on,78,0,960
1,note_on,66,72,0
1,note_on,66,0,120
1,note_on,63,71,0
1,note_on,63,0,120
1,note_on,60,69,0
1,note_on,60,0,120
1,note_on,54,69,0
1,note_on,54,0,120
1,note_on,66,91,0
1,note_on,66,0,240
1,note_on,66,74,0
1,note_on,66,0,120
1,note_on,63,70,0
1,note_on,63,0,120
1,note_on,60,70,0
1,note_on,60,0,120
1,note_on,54,69,0
1,note_on,54,0,120
1,note_on,66,89,0
1,note_on,66,0,240
1,note_on,66,74,0
1,note_on,66,0,120
1,note_on,63,72,0
1,note_on,63,0,120
1,note_on,60,72,0
1,note_on,60,0,120
1,note_on,54,71,0
1,note_on,54,0,120
1,note_on,66,84,0
1,note_on,66,0,720
1,note_on,63,58,2160
1,note_on,60,58,0
1,note_on,60,0,720
1,note_on,63,0,0
1,note_on,72,59,720
1,note_on,75,59,0
1,note_on,75,0,720
1,note_on,72,0,0
1,note_on,65,55,720
1,note_on,61,55,0
1,note_on,61,0,720
1,note_on,65,0,0
1,note_on,73,58,720
1,note_on,77,58,0
1,note_on,77,0,720
1,note_on,73,0,0
1,note_on,61,61,720
1,note_on,70,61,0
1,note_on,65,61,0
1,note_on,65,0,2880
1,note_on,70,0,0
1,note_on,61,0,0
1,note_on,60,52,0
1,note_on,63,52,0
1,note_on,68,52,0
1,note_on,68,0,480
1,note_on,63,0,0
1,note_on,60,0,0
1,note_on,60,55,1680
1,note_on,63,55,0
1,note_on,63,0,600
1,note_on,60,0,0
1,note_on,60,50,0
1,note_on,63,50,0
1,note_on,63,0,120
1,note_on,60,0,0
1,note_on,61,55,0
1,note_on,65,55,0
1,note_on,65,0,480
1,note_on,61,0,0
1,note_on,60,50,0
1,note_on,63,50,0
1,note_on,63,0,240
1,note_on,60,0,0
1,note_on,72,58,480
1,note_on,75,58,0
1,note_on,75,0,240
1,note_on,72,0,0
1,note_on,87,56,480
1,note_on,84,56,0
1,note_on,84,0,240
1,note_on,87,0,0
1,note_on,60,53,600
1,note_on,63,53,0
1,note_on,63,0,120
1,note_on,60,0,0
1,note_on,63,57,0
1,note_on,66,57,0
1,note_on,66,0,480
1,note_on,63,0,0
1,note_on,65,52,0
1,note_on,61,52,0
1,note_on,61,0,240
1,note_on,65,0,0
1,note_on,73,60,480
1,note_on,77,60,0
1,note_on,77,0,240
1,note_on,73,0,0
1,note_on,89,56,480
1,note_on,85,56,0
1,note_on,85,0,235
1,note_on,89,0,0
1,note_on,65,52,605
1,note_on,61,52,0
1,note_on,61,0,120
1,note_on,65,0,0
1,note_on,61,61,0
1,note_on,65,61,0
1,note_on,70,61,0
1,note_on,70,0,2880
1,note_on,65,0,0
1,note_on,61,0,0
1,note_on,60,56,0
1,note_on,63,56,0
1,note_on,68,56,0
1,note_on,68,0,480
1,note_on,63,0,0
1,note_on,60,0,0
1,note_on,61,52,960
1,note_on,64,52,0
1,note_on,69,52,0
1,note_on,69,0,1440
1,note_on,64,0,0
1,note_on,61,0,0
1,note_on,60,57,0
1,note_on,68,57,0
1,note_on,63,57,0
1,note_on,63,0,480
1,note_on,68,0,0
1,note_on,60,0,0
1,note_on,73,58,960
1,note_on,81,58,0
1,note_on,76,58,0
1,note_on,76,0,1440
1,note_on,81,0,0
1,note_on,73,0,0
1,note_on,75,56,0
1,note_on,80,56,0
1,note_on,72,56,0
1,note_on,72,0,480
1,note_on,80,0,0
1,note_on,75,0,0
1,note_on,62,46,960
1,note_on,59,46,0
1,note_on,68,46,0
1,note_on,68,0,480
1,note_on,59,0,0
1,note_on,62,0,0
1,note_on,61,44,960
1,note_on,58,44,0
1,note_on,67,44,0
1,note_on,67,0,480
1,note_on,58,0,0
1,note_on,61,0,0
1,note_on,57,39,960
1,note_on,60,39,0
1,note_on,66,39,0
1,note_on,66,0,480
1,note_on,60,0,0
1,note_on,57,0,0
1,note_on,66,47,960
1,note_on,60,47,0
1,note_on,56,47,0
1,note_on,56,0,480
1,note_on,60,0,0
1,note_on,66,0,0
1,note_on,75,67,960
1,note_on,75,0,240
1,note_on,77,61,0
1,note_on,77,0,240
1,note_on,75,59,0
1,note_on,75,0,240
1,note_on,73,69,0
1,note_on,73,0,240
1,note_on,75,66,0
1,note_on,75,0,240
1,note_on,73,64,0
1,note_on,73,0,240
1,note_on,72,70,0
1,note_on,72,0,240
1,note_on,78,66,0
1,note_on,78,0,240
1,note_on,78,73,960
1,note_on,78,0,240
1,note_on,80,70,0
1,note_on,80,0,240
1,note_on,78,70,0
1,note_on,78,0,240
1,note_on,77,74,0
1,note_on,77,0,240
1,note_on,78,71,0
1,note_on,78,0,240
1,note_on,77,68,0
1,note_on,77,0,240
1,note_on,75,81,0
1,note_on,75,0,240
1,note_on,87,72,0
1,note_on,87,0,240
1,note_on,87,83,960
1,note_on,87,0,240
1,note_on,89,77,0
1,note_on,89,0,240
1,note_on,87,73,0
1,note_on,87,0,240
1,note_on,85,77,0
1,note_on,85,0,240
1,note_on,87,75,0
1,note_on,87,0,240
1,note_on,85,73,0
1,note_on,85,0,240
1,note_on,84,76,0
1,note_on,84,0,240
1,note_on,85,75,0
1,note_on,85,0,240
1,note_on,84,72,0
1,note_on,84,0,240
1,note_on,82,76,0
1,note_on,82,0,240
1,note_on,84,73,0
1,note_on,84,0,240
1,note_on,82,69,0
1,note_on,82,0,240
1,note_on,80,74,0
1,note_on,80,0,240
1,note_on,82,70,0
1,note_on,82,0,240
1,note_on,80,67,0
1,note_on,80,0,240
1,note_on,78,72,0
1,note_on,78,0,240
1,note_on,80,66,0
1,note_on,80,0,240
1,note_on,78,63,0
1,note_on,78,0,240
1,note_on,77,73,0
1,note_on,77,0,480
1,note_on,65,55,1680
1,note_on,53,44,0
1,note_on,53,0,600
1,note_on,65,0,0
1,note_on,68,49,0
1,note_on,56,39,0
1,note_on,56,0,120
1,note_on,68,0,0
1,note_on,73,53,0
1,note_on,61,49,0
1,note_on,61,0,720
1,note_on,73,0,0
1,note_on,77,57,0
1,note_on,65,52,0
1,note_on,65,0,600
1,note_on,77,0,0
1,note_on,73,50,0
1,note_on,61,46,0
1,note_on,61,0,120
1,note_on,73,0,0
1,note_on,72,53,0
1,note_on,60,49,0
1,note_on,60,0,720
1,note_on,72,0,0
1,note_on,63,52,0
1,note_on,75,57,0
1,note_on,75,0,600
1,note_on,63,0,0
1,note_on,60,46,0
1,note_on,72,50,0
1,note_on,72,0,120
1,note_on,60,0,0
1,note_on,73,53,0
1,note_on,61,49,0
1,note_on,61,0,720
1,note_on,73,0,0
1,note_on,56,52,0
1,note_on,68,52,0
1,note_on,68,0,1440
1,note_on,56,0,0
1,note_on,58,52,0
1,note_on,70,57,0
1,note_on,70,0,600
1,note_on,58,0,0
1,note_on,66,53,0
1,note_on,66,0,120
1,note_on,65,59,0
1,note_on,65,0,720
1,note_on,68,61,0
1,note_on,68,0,600
1,note_on,65,55,0
1,note_on,65,0,120
1,note_on,63,63,0
1,note_on,63,0,720
1,note_on,66,66,0
1,note_on,66,0,600
1,note_on,63,59,0
1,note_on,63,0,120
1,note_on,60,72,0
1,note_on,60,0,720
1,note_on,65,63,0
1,note_on,65,0,1440
1,note_on,73,60,0
1,note_on,61,56,0
1,note_on,61,0,600
1,note_on,73,0,0
1,note_on,77,58,0
1,note_on,65,53,0
1,note_on,65,0,120
1,note_on,77,0,0
1,note_on,82,60,0
1,note_on,70,51,0
1,note_on,70,0,720
1,note_on,82,0,0
1,note_on,85,62,0
1,note_on,73,57,0
1,note_on,73,0,600
1,note_on,85,0,0
1,note_on,70,53,0
1,note_on,82,58,0
1,note_on,82,0,120
1,note_on,70,0,0
1,note_on,81,61,0
1,note_on,69,57,0
1,note_on,69,0,720
1,note_on,81,0,0
1,note_on,72,59,0
1,note_on,84,65,0
1,note_on,84,0,600
1,note_on,72,0,0
1,note_on,69,58,0
1,note_on,81,63,0
1,note_on,81,0,120
1,note_on,69,0,0
1,note_on,70,51,0
1,note_on,82,57,0
1,note_on,82,0,720
1,note_on,70,0,0
1,note_on,77,52,0
1,note_on,65,52,0
1,note_on,65,0,1440
1,note_on,77,0,0
1,note_on,78,68,0
1,note_on,66,62,0
1,note_on,78,0,600
1,note_on,75,63,0
1,note_on,75,0,120
1,note_on,66,0,0
1,note_on,73,70,0
1,note_on,73,0,720
1,note_on,77,67,0
1,note_on,77,0,600
1,note_on,73,61,0
1,note_on,73,0,120
1,note_on,72,70,0
1,note_on,72,0,720
1,note_on,75,71,0
1,note_on,75,0,600
1,note_on,72,67,0
1,note_on,72,0,120
1,note_on,70,78,0
1,note_on,70,0,720
1,note_on,73,73,0
1,note_on,73,0,1440
1,note_on,70,73,0
1,note_on,82,79,0
1,note_on,82,0,600
1,note_on,70,0,0
1,note_on,85,75,0
1,note_on,73,69,0
1,note_on,73,0,120
1,note_on,85,0,0
1,note_on,78,71,0
1,note_on,90,80,0
1,note_on,90,0,720
1,note_on,78,0,0
1,note_on,82,74,0
1,note_on,94,81,0
1,note_on,94,0,600
1,note_on,82,0,0
1,note_on,90,75,0
1,note_on,78,69,0
1,note_on,78,0,120
1,note_on,90,0,0
1,note_on,77,74,0
1,note_on,89,80,0
1,note_on,89,0,720
1,note_on,77,0,0
1,note_on,80,77,0
1,note_on,92,85,0
1,note_on,92,0,600
1,note_on,80,0,0
1,note_on,77,75,0
1,note_on,89,82,0
1,note_on,89,0,120
1,note_on,77,0,0
1,note_on,78,80,0
1,note_on,90,89,0
1,note_on,90,0,720
1,note_on,78,0,0
1,note_on,73,68,0
1,note_on,85,81,0
1,note_on,85,0,2160
1,note_on,73,0,0
1,note_on,90,89,0
1,note_on,78,80,0
1,note_on,78,0,720
1,note_on,90,0,0
1,note_on,86,83,0
1,note_on,74,70,0
1,note_on,74,0,2160
1,note_on,86,0,0
1,note_on,79,96,0
1,note_on,91,96,0
1,note_on,91,0,720
1,note_on,79,0,0
1,note_on,74,74,0
1,note_on,86,89,0
1,note_on,86,0,2160
1,note_on,74,0,0
1,note_on,79,102,0
1,note_on,91,102,0
1,note_on,91,0,720
1,note_on,79,0,0
1,note_on,88,94,0
1,note_on,76,80,0
1,note_on,76,0,2160
1,note_on,88,0,0
1,note_on,79,75,720
1,note_on,82,71,120
1,note_on,85,70,120
1,note_on,85,0,120
1,note_on,88,70,0
1,note_on,82,0,120
1,note_on,91,73,0
1,note_on,91,0,120
1,note_on,88,0,0
1,note_on,79,0,0
1,note_on,79,71,0
1,note_on,79,0,120
1,note_on,79,77,720
1,note_on,82,72,120
1,note_on,85,72,120
1,note_on,85,0,120
1,note_on,88,70,0
1,note_on,82,0,120
1,note_on,91,74,0
1,note_on,91,0,120
1,note_on,88,0,0
1,note_on,79,0,0
1,note_on,79,72,0
1,note_on,79,0,120
1,note_on,79,77,720
1,note_on,82,71,120
1,note_on,85,71,120
1,note_on,85,0,120
1,note_on,88,70,0
1,note_on,82,0,120
1,note_on,91,76,0
1,note_on,91,0,120
1,note_on,88,0,0
1,note_on,79,0,0
1,note_on,79,71,0
1,note_on,79,0,120
1,note_on,79,77,720
1,note_on,82,71,120
1,note_on,85,73,120
1,note_on,85,0,120
1,note_on,88,70,0
1,note_on,82,0,120
1,note_on,91,76,0
1,note_on,91,0,120
1,note_on,88,0,0
1,note_on,79,0,0
1,note_on,79,71,0
1,note_on,79,0,120
1,note_on,82,77,240
1,note_on,85,71,120
1,note_on,88,74,120
1,note_on,88,0,120
1,note_on,91,70,0
1,note_on,91,0,120
1,note_on,85,0,0
1,note_on,82,0,0
1,note_on,85,77,240
1,note_on,88,72,120
1,note_on,91,74,120
1,note_on,91,0,120
1,note_on,94,70,0
1,note_on,94,0,120
1,note_on,88,0,0
1,note_on,85,0,0
1,note_on,88,73,360
1,note_on,88,0,120
1,note_on,91,74,0
1,note_on,91,0,120
1,note_on,94,73,0
1,note_on,94,0,120
1,note_on,88,73,360
1,note_on,88,0,120
1,note_on,91,74,0
1,note_on,91,0,120
1,note_on,94,73,0
1,note_on,94,0,120
1,note_on,88,77,240
1,note_on,88,0,120
1,note_on,91,75,0
1,note_on,91,0,120
1,note_on,94,74,0
1,note_on,94,0,240
1,note_on,85,77,240
1,note_on,85,0,120
1,note_on,88,75,0
1,note_on,88,0,120
1,note_on,91,74,0
1,note_on,91,0,240
1,note_on,82,77,240
1,note_on,82,0,120
1,note_on,85,75,0
1,note_on,85,0,120
1,note_on,88,74,0
1,note_on,88,0,240
1,note_on,79,77,240
1,note_on,79,0,120
1,note_on,82,75,0
1,note_on,82,0,120
1,note_on,85,74,0
1,note_on,85,0,240
1,note_on,76,77,240
1,note_on,76,0,120
1,note_on,79,72,0
1,note_on,79,0,120
1,note_on,82,74,0
1,note_on,82,0,240
1,note_on,73,77,240
1,note_on,73,0,120
1,note_on,76,75,0
1,note_on,76,0,120
1,note_on,79,74,0
1,note_on,79,0,240
1,note_on,70,77,240
1,note_on,70,0,120
1,note_on,73,75,0
1,note_on,73,0,120
1,note_on,76,74,0
1,note_on,76,0,240
1,note_on,67,77,240
1,note_on,67,0,120
1,note_on,70,75,0
1,note_on,70,0,120
1,note_on,73,74,0
1,note_on,73,0,240
1,note_on,64,72,240
1,note_on,64,0,120
1,note_on,67,71,0
1,note_on,67,0,120
1,note_on,70,70,0
1,note_on,70,0,240
1,note_on,61,72,240
1,note_on,61,0,120
1,note_on,64,71,0
1,note_on,64,0,120
1,note_on,67,70,0
1,note_on,67,0,240
1,note_on,58,72,240
1,note_on,58,0,120
1,note_on,61,71,0
1,note_on,61,0,120
1,note_on,64,70,0
1,note_on,64,0,240
1,note_on,55,72,240
1,note_on,55,0,120
1,note_on,58,71,0
1,note_on,58,0,120
1,note_on,61,70,0
1,note_on,61,0,240
1,note_on,52,72,240
1,note_on,52,0,120
1,note_on,55,71,0
1,note_on,55,0,120
1,note_on,58,70,0
1,note_on,58,0,240
1,note_on,49,72,240
1,note_on,49,0,120
1,note_on,52,71,0
1,note_on,52,0,120
1,note_on,55,70,0
1,note_on,55,0,240
1,note_on,46,72,240
1,note_on,46,0,120
1,note_on,49,71,0
1,note_on,49,0,120
1,note_on,52,70,0
1,note_on,52,0,240
1,note_on,43,72,240
1,note_on,43,0,120
1,note_on,46,71,0
1,note_on,46,0,120
1,note_on,49,70,0
1,note_on,49,0,240
1,note_on,46,71,0
1,note_on,43,71,0
1,note_on,43,0,120
1,note_on,46,0,0
1,note_on,52,63,0
1,note_on,52,0,120
1,note_on,46,71,0
1,note_on,43,71,0
1,note_on,43,0,120
1,note_on,46,0,0
1,note_on,52,63,0
1,note_on,52,0,120
1,note_on,46,71,0
1,note_on,43,71,0
1,note_on,43,0,120
1,note_on,46,0,0
1,note_on,52,63,0
1,note_on,52,0,120
1,note_on,46,71,0
1,note_on,43,71,0
1,note_on,43,0,120
1,note_on,46,0,0
1,note_on,52,63,0
1,note_on,52,0,120
1,note_on,46,71,0
1,note_on,43,71,0
1,note_on,43,0,120
1,note_on,46,0,0
1,note_on,52,63,0
1,note_on,52,0,120
1,note_on,43,71,0
1,note_on,46,71,0
1,note_on,46,0,120
1,note_on,43,0,0
1,note_on,52,63,0
1,note_on,52,0,120
1,note_on,46,71,0
1,note_on,43,71,0
1,note_on,43,0,120
1,note_on,46,0,0
1,note_on,52,63,0
1,note_on,52,0,120
1,note_on,43,71,0
1,note_on,46,71,0
1,note_on,46,0,120
1,note_on,43,0,0
1,note_on,52,63,0
1,note_on,52,0,120
1,note_on,46,71,0
1,note_on,43,71,0
1,note_on,43,0,120
1,note_on,46,0,0
1,note_on,52,63,0
1,note_on,52,0,120
1,note_on,46,71,0
1,note_on,43,71,0
1,note_on,43,0,120
1,note_on,46,0,0
1,note_on,52,63,0
1,note_on,52,0,120
1,note_on,46,71,0
1,note_on,43,71,0
1,note_on,43,0,120
1,note_on,46,0,0
1,note_on,52,63,0
1,note_on,52,0,120
1,note_on,43,71,0
1,note_on,46,71,0
1,note_on,46,0,120
1,note_on,43,0,0
1,note_on,52,63,0
1,note_on,52,0,120
1,note_on,43,71,0
1,note_on,46,71,0
1,note_on,46,0,120
1,note_on,43,0,0
1,note_on,52,63,0
1,note_on,52,0,120
1,note_on,46,71,0
1,note_on,43,71,0
1,note_on,43,0,120
1,note_on,46,0,0
1,note_on,52,63,0
1,note_on,52,0,120
1,note_on,43,71,0
1,note_on,46,71,0
1,note_on,46,0,120
1,note_on,43,0,0
1,note_on,52,63,0
1,note_on,52,0,120
1,note_on,43,71,0
1,note_on,46,71,0
1,note_on,46,0,120
1,note_on,43,0,0
1,note_on,52,63,0
1,note_on,52,0,120
1,note_on,46,71,0
1,note_on,43,71,0
1,note_on,43,0,120
1,note_on,46,0,0
1,note_on,52,63,0
1,note_on,52,0,120
1,note_on,43,71,0
1,note_on,46,71,0
1,note_on,46,0,120
1,note_on,43,0,0
1,note_on,52,63,0
1,note_on,52,0,120
1,note_on,43,71,0
1,note_on,46,71,0
1,note_on,46,0,120
1,note_on,43,0,0
1,note_on,52,63,0
1,note_on,52,0,120
1,note_on,43,71,0
1,note_on,46,71,0
1,note_on,46,0,120
1,note_on,43,0,0
1,note_on,52,63,0
1,note_on,52,0,120
1,note_on,43,71,0
1,note_on,46,71,0
1,note_on,46,0,120
1,note_on,43,0,0
1,note_on,52,63,0
1,note_on,52,0,120
1,note_on,46,71,0
1,note_on,43,71,0
1,note_on,43,0,120
1,note_on,46,0,0
1,note_on,52,63,0
1,note_on,52,0,120
1,note_on,43,71,0
1,note_on,46,71,0
1,note_on,46,0,120
1,note_on,43,0,0
1,note_on,52,63,0
1,note_on,52,0,120
1,note_on,46,71,0
1,note_on,43,71,0
1,note_on,43,0,120
1,note_on,46,0,0
1,note_on,52,63,0
1,note_on,52,0,120
1,note_on,46,71,0
1,note_on,43,71,0
1,note_on,43,0,120
1,note_on,46,0,0
1,note_on,52,63,0
1,note_on,52,0,120
1,note_on,43,71,0
1,note_on,46,71,0
1,note_on,46,0,120
1,note_on,43,0,0
1,note_on,52,63,0
1,note_on,52,0,120
1,note_on,43,71,0
1,note_on,46,71,0
1,note_on,46,0,120
1,note_on,43,0,0
1,note_on,52,63,0
1,note_on,52,0,120
1,note_on,46,71,0
1,note_on,43,71,0
1,note_on,43,0,120
1,note_on,46,0,0
1,note_on,52,63,0
1,note_on,52,0,120
1,note_on,43,71,0
1,note_on,46,71,0
1,note_on,46,0,120
1,note_on,43,0,0
1,note_on,52,63,0
1,note_on,52,0,120
1,note_on,46,71,0
1,note_on,43,71,0
1,note_on,43,0,120
1,note_on,46,0,0
1,note_on,52,63,0
1,note_on,52,0,120
1,note_on,46,71,0
1,note_on,43,71,0
1,note_on,43,0,120
1,note_on,46,0,0
1,note_on,52,63,0
1,note_on,52,0,120
1,note_on,43,71,0
1,note_on,46,71,0
1,note_on,46,0,120
1,note_on,43,0,0
1,note_on,52,63,0
1,note_on,52,0,120
1,note_on,43,71,0
1,note_on,46,71,0
1,note_on,46,0,120
1,note_on,43,0,0
1,note_on,52,63,0
1,note_on,52,0,120
1,note_on,46,71,0
1,note_on,43,71,0
1,note_on,43,0,120
1,note_on,46,0,0
1,note_on,52,63,0
1,note_on,52,0,120
1,note_on,43,71,0
1,note_on,46,71,0
1,note_on,46,0,120
1,note_on,43,0,0
1,note_on,52,63,0
1,note_on,52,0,120
1,note_on,43,71,0
1,note_on,46,71,0
1,note_on,46,0,120
1,note_on,43,0,0
1,note_on,52,63,0
1,note_on,52,0,120
1,note_on,43,71,0
1,note_on,46,71,0
1,note_on,46,0,120
1,note_on,43,0,0
1,note_on,52,63,0
1,note_on,52,0,120
1,note_on,43,71,0
1,note_on,46,71,0
1,note_on,46,0,120
1,note_on,43,0,0
1,note_on,52,63,0
1,note_on,52,0,120
1,note_on,43,71,0
1,note_on,46,71,0
1,note_on,46,0,120
1,note_on,43,0,0
1,note_on,52,63,0
1,note_on,52,0,120
1,note_on,46,71,0
1,note_on,43,71,0
1,note_on,43,0,120
1,note_on,46,0,0
1,note_on,52,63,0
1,note_on,52,0,120
1,note_on,43,71,0
1,note_on,46,71,0
1,note_on,46,0,120
1,note_on,43,0,0
1,note_on,52,63,0
1,note_on,52,0,120
1,note_on,46,71,0
1,note_on,43,71,0
1,note_on,43,0,120
1,note_on,46,0,0
1,note_on,52,63,0
1,note_on,52,0,120
1,note_on,46,71,0
1,note_on,43,71,0
1,note_on,43,0,120
1,note_on,46,0,0
1,note_on,52,63,0
1,note_on,52,0,120
1,note_on,43,71,0
1,note_on,46,71,0
1,note_on,46,0,120
1,note_on,43,0,0
1,note_on,52,63,0
1,note_on,52,0,120
1,note_on,43,71,0
1,note_on,46,71,0
1,note_on,46,0,120
1,note_on,43,0,0
1,note_on,52,63,0
1,note_on,52,0,120
1,note_on,43,71,0
1,note_on,46,71,0
1,note_on,46,0,120
1,note_on,43,0,0
1,note_on,52,63,0
1,note_on,52,0,120
1,note_on,46,71,0
1,note_on,43,71,0
1,note_on,43,0,120
1,note_on,46,0,0
1,note_on,52,63,0
1,note_on,52,0,120
1,note_on,43,71,0
1,note_on,46,71,0
1,note_on,46,0,120
1,note_on,43,0,0
1,note_on,52,63,0
1,note_on,52,0,120
1,note_on,43,65,0
1,note_on,52,65,0
1,note_on,46,65,0
1,note_on,46,0,480
1,note_on,52,0,0
1,note_on,43,0,0
1,note_on,48,27,4560
1,note_on,60,35,0
1,note_on,60,0,600
1,note_on,48,0,0
1,note_on,56,31,0
1,note_on,44,25,0
1,note_on,44,0,120
1,note_on,56,0,0
1,note_on,41,22,0
1,note_on,53,28,0
1,note_on,53,0,2160
1,note_on,41,0,0
1,note_on,56,35,0
1,note_on,44,27,0
1,note_on,44,0,600
1,note_on,56,0,0
1,note_on,48,24,0
1,note_on,60,30,0
1,note_on,60,0,120
1,note_on,48,0,0
1,note_on,65,35,0
1,note_on,53,27,0
1,note_on,53,0,720
1,note_on,65,0,0
1,note_on,68,36,0
1,note_on,56,28,0
1,note_on,56,0,600
1,note_on,68,0,0
1,note_on,72,31,0
1,note_on,60,25,0
1,note_on,60,0,120
1,note_on,72,0,0
1,note_on,77,40,0
1,note_on,65,31,0
1,note_on,65,0,715
1,note_on,77,0,0
1,note_on,65,33,5
1,note_on,53,26,0
1,note_on,53,0,720
1,note_on,65,0,0
1,note_on,67,26,0
1,note_on,64,26,0
1,note_on,72,35,0
1,note_on,72,0,1200
1,note_on,74,33,0
1,note_on,74,0,240
1,note_on,64,0,0
1,note_on,67,0,0
1,note_on,65,26,0
1,note_on,71,26,0
1,note_on,74,33,0
1,note_on,74,0,80
1,note_on,76,29,0
1,note_on,76,0,80
1,note_on,74,33,0
1,note_on,74,0,80
1,note_on,76,29,0
1,note_on,76,0,80
1,note_on,74,33,0
1,note_on,74,0,80
1,note_on,76,30,0
1,note_on,76,0,80
1,note_on,74,33,0
1,note_on,74,0,80
1,note_on,76,29,0
1,note_on,76,0,80
1,note_on,74,33,0
1,note_on,74,0,80
1,note_on,76,30,0
1,note_on,76,0,80
1,note_on,74,28,0
1,note_on,74,0,80
1,note_on,76,33,0
1,note_on,76,0,80
1,note_on,74,28,0
1,note_on,74,0,120
1,note_on,72,30,0
1,note_on,72,0,120
1,note_on,76,35,0
1,note_on,76,0,120
1,note_on,74,31,0
1,note_on,74,0,120
1,note_on,71,0,0
1,note_on,65,0,0
1,note_on,72,35,0
1,note_on,64,19,0
1,note_on,67,22,0
1,note_on,67,0,480
1,note_on,64,0,0
1,note_on,72,0,0
1,note_on,61,35,1680
1,note_on,49,27,0
1,note_on,49,0,600
1,note_on,61,0,0
1,note_on,58,31,0
1,note_on,46,25,0
1,note_on,46,0,120
1,note_on,58,0,0
1,note_on,54,28,0
1,note_on,42,22,0
1,note_on,42,0,2160
1,note_on,54,0,0
1,note_on,46,27,0
1,note_on,58,35,0
1,note_on,58,0,600
1,note_on,46,0,0
1,note_on,61,30,0
1,note_on,49,24,0
1,note_on,49,0,120
1,note_on,61,0,0
1,note_on,54,27,0
1,note_on,66,35,0
1,note_on,66,0,720
1,note_on,54,0,0
1,note_on,70,36,0
1,note_on,58,28,0
1,note_on,58,0,600
1,note_on,70,0,0
1,note_on,61,25,0
1,note_on,73,31,0
1,note_on,73,0,120
1,note_on,61,0,0
1,note_on,78,40,0
1,note_on,66,31,0
1,note_on,66,0,720
1,note_on,78,0,0
1,note_on,54,26,0
1,note_on,66,33,0
1,note_on,66,0,720
1,note_on,54,0,0
1,note_on,65,26,0
1,note_on,68,26,0
1,note_on,73,35,0
1,note_on,73,0,1200
1,note_on,75,33,0
1,note_on,75,0,240
1,note_on,68,0,0
1,note_on,65,0,0
1,note_on,75,28,0
1,note_on,66,26,0
1,note_on,72,26,0
1,note_on,75,0,80
1,note_on,77,25,0
1,note_on,77,0,80
1,note_on,75,28,0
1,note_on,75,0,80
1,note_on,77,25,0
1,note_on,77,0,80
1,note_on,75,28,0
1,note_on,75,0,80
1,note_on,77,25,0
1,note_on,77,0,80
1,note_on,75,29,0
1,note_on,75,0,80
1,note_on,77,25,0
1,note_on,77,0,80
1,note_on,75,29,0
1,note_on,75,0,80
1,note_on,77,26,0
1,note_on,77,0,80
1,note_on,75,29,0
1,note_on,75,0,80
1,note_on,77,27,0
1,note_on,77,0,80
1,note_on,75,24,0
1,note_on,75,0,120
1,note_on,73,30,0
1,note_on,73,0,120
1,note_on,77,35,0
1,note_on,77,0,120
1,note_on,75,31,0
1,note_on,75,0,120
1,note_on,72,0,0
1,note_on,66,0,0
1,note_on,73,35,0
1,note_on,65,19,0
1,note_on,68,22,0
1,note_on,68,0,480
1,note_on,65,0,0
1,note_on,73,0,0
1,note_on,72,35,2400
1,note_on,72,0,1200
1,note_on,74,38,0
1,note_on,74,0,180
1,note_on,72,38,0
1,note_on,72,0,60
1,note_on,74,37,0
1,note_on,74,0,80
1,note_on,76,32,0
1,note_on,76,0,80
1,note_on,74,37,0
1,note_on,74,0,80
1,note_on,76,33,0
1,note_on,76,0,80
1,note_on,74,37,0
1,note_on,74,0,80
1,note_on,76,33,0
1,note_on,76,0,80
1,note_on,74,37,0
1,note_on,74,0,80
1,note_on,76,33,0
1,note_on,76,0,80
1,note_on,74,37,0
1,note_on,74,0,80
1,note_on,76,34,0
1,note_on,76,0,80
1,note_on,74,31,0
1,note_on,74,0,80
1,note_on,76,37,0
1,note_on,76,0,80
1,note_on,74,31,0
1,note_on,74,0,120
1,note_on,72,34,0
1,note_on,72,0,120
1,note_on,76,40,0
1,note_on,76,0,120
1,note_on,74,35,0
1,note_on,74,0,120
1,note_on,72,35,0
1,note_on,72,0,480
1,note_on,76,40,2400
1,note_on,76,0,1200
1,note_on,77,38,0
1,note_on,77,0,180
1,note_on,76,38,0
1,note_on,76,0,60
1,note_on,77,37,0
1,note_on,77,0,80
1,note_on,79,32,0
1,note_on,79,0,80
1,note_on,77,37,0
1,note_on,77,0,80
1,note_on,79,33,0
1,note_on,79,0,80
1,note_on,77,37,0
1,note_on,77,0,80
1,note_on,79,33,0
1,note_on,79,0,80
1,note_on,77,37,0
1,note_on,77,0,80
1,note_on,79,33,0
1,note_on,79,0,80
1,note_on,77,37,0
1,note_on,77,0,80
1,note_on,79,34,0
1,note_on,79,0,80
1,note_on,77,31,0
1,note_on,77,0,80
1,note_on,79,37,0
1,note_on,79,0,80
1,note_on,77,31,0
1,note_on,77,0,120
1,note_on,76,34,0
1,note_on,76,0,120
1,note_on,79,40,0
1,note_on,79,0,120
1,note_on,77,35,0
1,note_on,77,0,120
1,note_on,76,35,0
1,note_on,76,0,480
1,note_on,76,35,1680
1,note_on,79,35,0
1,note_on,79,0,240
1,note_on,76,0,0
1,note_on,76,31,0
1,note_on,79,31,0
1,note_on,79,0,240
1,note_on,76,0,0
1,note_on,79,35,0
1,note_on,76,35,0
1,note_on,76,0,240
1,note_on,79,0,0
1,note_on,82,35,0
1,note_on,79,35,0
1,note_on,79,0,480
1,note_on,82,0,0
1,note_on,79,66,1680
1,note_on,82,66,0
1,note_on,82,0,240
1,note_on,79,0,0
1,note_on,79,62,0
1,note_on,82,62,0
1,note_on,82,0,240
1,note_on,79,0,0
1,note_on,82,68,0
1,note_on,79,68,0
1,note_on,79,0,240
1,note_on,82,0,0
1,note_on,88,71,0
1,note_on,88,0,120
1,note_on,82,64,0
1,note_on,82,0,120
1,note_on,91,72,0
1,note_on,91,0,120
1,note_on,88,64,0
1,note_on,88,0,120
1,note_on,94,73,0
1,note_on,94,0,120
1,note_on,91,66,0
1,note_on,91,0,120
1,note_on,88,74,0
1,note_on,88,0,120
1,note_on,91,67,0
1,note_on,91,0,120
1,note_on,82,74,0
1,note_on,82,0,120
1,note_on,88,68,0
1,note_on,88,0,120
1,note_on,79,75,0
1,note_on,79,0,120
1,note_on,82,68,0
1,note_on,82,0,120
1,note_on,76,75,0
1,note_on,76,0,120
1,note_on,79,69,0
1,note_on,79,0,120
1,note_on,70,76,0
1,note_on,70,0,120
1,note_on,76,67,0
1,note_on,76,0,120
1,note_on,67,76,0
1,note_on,67,0,120
1,note_on,70,70,0
1,note_on,70,0,120
1,note_on,64,77,0
1,note_on,64,0,120
1,note_on,67,68,0
1,note_on,67,0,120
1,note_on,58,78,0
1,note_on,58,0,120
1,note_on,64,71,0
1,note_on,64,0,120
1,note_on,60,35,5280
1,note_on,60,0,600
1,note_on,57,31,0
1,note_on,57,0,120
1,note_on,53,103,0
1,note_on,53,0,238
1,note_on,57,75,2
1,note_on,53,75,0
1,note_on,60,85,0
1,note_on,65,101,0
1,note_on,65,0,475
1,note_on,57,0,0
1,note_on,53,0,0
1,note_on,60,0,0
1,note_on,60,72,5
1,note_on,65,81,0
1,note_on,69,96,0
1,note_on,57,72,0
1,note_on,57,0,475
1,note_on,60,0,0
1,note_on,65,0,0
1,note_on,69,0,0
1,note_on,60,71,5
1,note_on,65,71,0
1,note_on,72,96,0
1,note_on,69,79,0
1,note_on,69,0,475
1,note_on,60,0,0
1,note_on,65,0,0
1,note_on,72,0,0
1,note_on,69,72,5
1,note_on,77,95,0
1,note_on,72,80,0
1,note_on,65,72,0
1,note_on,65,0,475
1,note_on,69,0,0
1,note_on,77,0,0
1,note_on,72,0,0
1,note_on,77,86,5
1,note_on,69,76,0
1,note_on,72,76,0
1,note_on,81,103,0
1,note_on,81,0,475
1,note_on,77,0,0
1,note_on,69,0,0
1,note_on,72,0,0
1,note_on,77,78,5
1,note_on,84,94,0
1,note_on,72,71,0
1,note_on,81,78,0
1,note_on,81,0,238
1,note_on,77,0,0
1,note_on,84,0,0
1,note_on,72,0,0
1,note_on,81,86,2
1,note_on,84,86,0
1,note_on,89,103,0
1,note_on,77,76,0
1,note_on,77,0,2160
1,note_on,81,0,0
1,note_on,84,0,0
1,note_on,89,0,0
1,note_on,57,41,0
1,note_on,57,0,600
1,note_on,60,35,0
1,note_on,60,0,120
1,note_on,65,40,0
1,note_on,65,0,720
1,note_on,69,43,0
1,note_on,69,0,600
1,note_on,72,37,0
1,note_on,72,0,120
1,note_on,77,40,0
1,note_on,77,0,715
1,note_on,65,40,5
1,note_on,65,0,720
1,note_on,60,103,0
1,note_on,60,0,238
1,note_on,60,85,2
1,note_on,64,101,0
1,note_on,64,0,475
1,note_on,60,0,0
1,note_on,60,72,5
1,note_on,67,96,0
1,note_on,64,81,0
1,note_on,64,0,475
1,note_on,67,0,0
1,note_on,60,0,0
1,note_on,67,81,5
1,note_on,72,98,0
1,note_on,64,72,0
1,note_on,64,0,475
1,note_on,72,0,0
1,note_on,67,0,0
1,note_on,76,95,5
1,note_on,67,72,0
1,note_on,72,80,0
1,note_on,72,0,475
1,note_on,67,0,0
1,note_on,76,0,0
1,note_on,79,103,5
1,note_on,72,76,0
1,note_on,76,86,0
1,note_on,76,0,475
1,note_on,72,0,0
1,note_on,79,0,0
1,note_on,84,94,5
1,note_on,76,78,0
1,note_on,79,78,0
1,note_on,79,0,238
1,note_on,76,0,0
1,note_on,84,0,0
1,note_on,72,41,2
1,note_on,72,0,1200
1,note_on,74,45,0
1,note_on,74,0,240
1,note_on,74,38,0
1,note_on,74,0,80
1,note_on,76,35,0
1,note_on,74,38,80
1,note_on,76,0,40
1,note_on,74,0,40
1,note_on,76,36,0
1,note_on,76,0,80
1,note_on,74,39,0
1,note_on,74,0,80
1,note_on,76,36,0
1,note_on,76,0,80
1,note_on,74,38,0
1,note_on,74,0,80
1,note_on,76,36,0
1,note_on,76,0,80
1,note_on,74,39,0
1,note_on,74,0,80
1,note_on,76,37,0
1,note_on,76,0,80
1,note_on,74,35,0
1,note_on,74,0,80
1,note_on,76,39,0
1,note_on,76,0,80
1,note_on,74,35,0
1,note_on,74,0,120
1,note_on,72,36,0
1,note_on,72,0,120
1,note_on,76,41,0
1,note_on,76,0,120
1,note_on,74,38,0
1,note_on,74,0,120
1,note_on,60,103,0
1,note_on,60,0,238
1,note_on,64,101,2
1,note_on,60,85,0
1,note_on,60,0,475
1,note_on,64,0,0
1,note_on,64,81,5
1,note_on,67,96,0
1,note_on,60,72,0
1,note_on,60,0,475
1,note_on,67,0,0
1,note_on,64,0,0
1,note_on,72,98,5
1,note_on,64,72,0
1,note_on,67,81,0
1,note_on,67,0,475
1,note_on,64,0,0
1,note_on,72,0,0
1,note_on,76,95,5
1,note_on,67,72,0
1,note_on,72,80,0
1,note_on,72,0,475
1,note_on,67,0,0
1,note_on,76,0,0
1,note_on,79,103,5
1,note_on,72,76,0
1,note_on,76,86,0
1,note_on,76,0,475
1,note_on,72,0,0
1,note_on,79,0,0
1,note_on,76,78,5
1,note_on,84,94,0
1,note_on,79,78,0
1,note_on,79,0,238
1,note_on,84,0,0
1,note_on,76,0,0
1,note_on,72,41,2
1,note_on,72,0,1200
1,note_on,74,45,0
1,note_on,74,0,240
1,note_on,74,44,0
1,note_on,74,0,80
1,note_on,76,39,0
1,note_on,76,0,80
1,note_on,74,42,0
1,note_on,74,0,80
1,note_on,76,37,0
1,note_on,76,0,80
1,note_on,74,41,0
1,note_on,74,0,80
1,note_on,76,36,0
1,note_on,76,0,80
1,note_on,74,40,0
1,note_on,74,0,80
1,note_on,76,37,0
1,note_on,76,0,80
1,note_on,74,41,0
1,note_on,74,0,80
1,note_on,76,38,0
1,note_on,76,0,120
1,note_on,74,37,0
1,note_on,74,0,120
1,note_on,76,42,0
1,note_on,76,0,120
1,note_on,74,41,0
1,note_on,74,0,120
1,note_on,72,48,0
1,note_on,72,0,120
1,note_on,74,44,0
1,note_on,74,0,120
1,note_on,55,81,0
1,note_on,64,103,0
1,note_on,58,81,0
1,note_on,58,0,238
1,note_on,64,0,0
1,note_on,55,0,0
1,note_on,64,85,2
1,note_on,58,85,0
1,note_on,67,101,0
1,note_on,67,0,475
1,note_on,58,0,0
1,note_on,64,0,0
1,note_on,67,81,5
1,note_on,70,96,0
1,note_on,64,72,0
1,note_on,64,0,475
1,note_on,70,0,0
1,note_on,67,0,0
1,note_on,70,85,5
1,note_on,76,101,0
1,note_on,67,75,0
1,note_on,67,0,475
1,note_on,76,0,0
1,note_on,70,0,0
1,note_on,70,72,5
1,note_on,79,95,0
1,note_on,76,80,0
1,note_on,76,0,475
1,note_on,79,0,0
1,note_on,70,0,0
1,note_on,76,76,5
1,note_on,82,103,0
1,note_on,79,86,0
1,note_on,79,0,475
1,note_on,82,0,0
1,note_on,76,0,0
1,note_on,79,78,5
1,note_on,88,94,0
1,note_on,82,78,0
1,note_on,82,0,238
1,note_on,88,0,0
1,note_on,79,0,0
1,note_on,76,48,2
1,note_on,76,0,1200
1,note_on,77,52,0
1,note_on,77,0,240
1,note_on,77,46,0
1,note_on,77,0,80
1,note_on,79,41,0
1,note_on,79,0,80
1,note_on,77,46,0
1,note_on,77,0,80
1,note_on,79,41,0
1,note_on,79,0,80
1,note_on,77,46,0
1,note_on,77,0,80
1,note_on,79,41,0
1,note_on,79,0,80
1,note_on,77,46,0
1,note_on,77,0,80
1,note_on,79,42,0
1,note_on,79,0,80
1,note_on,77,46,0
1,note_on,77,0,80
1,note_on,79,43,0
1,note_on,79,0,120
1,note_on,77,40,0
1,note_on,77,0,120
1,note_on,79,46,0
1,note_on,79,0,120
1,note_on,77,42,0
1,note_on,77,0,120
1,note_on,76,48,0
1,note_on,76,0,120
1,note_on,77,44,0
1,note_on,77,0,120
1,note_on,67,103,0
1,note_on,64,81,0
1,note_on,64,0,238
1,note_on,67,0,0
1,note_on,76,101,2
1,note_on,73,85,0
1,note_on,73,0,475
1,note_on,76,0,0
1,note_on,76,81,5
1,note_on,79,96,0
1,note_on,79,0,475
1,note_on,76,0,0
1,note_on,82,101,5
1,note_on,79,85,0
1,note_on,79,0,475
1,note_on,82,0,0
1,note_on,82,80,5
1,note_on,85,95,0
1,note_on,85,0,475
1,note_on,82,0,0
1,note_on,85,86,5
1,note_on,88,103,0
1,note_on,88,0,475
1,note_on,85,0,0
1,note_on,88,78,5
1,note_on,91,94,0
1,note_on,91,0,238
1,note_on,88,0,0
1,note_on,79,79,2
1,note_on,76,59,0
1,note_on,79,0,1200
1,note_on,80,87,0
1,note_on,80,0,240
1,note_on,76,0,0
1,note_on,77,64,0
1,note_on,80,76,0
1,note_on,80,0,120
1,note_on,82,68,0
1,note_on,82,0,120
1,note_on,80,76,0
1,note_on,80,0,120
1,note_on,82,68,0
1,note_on,82,0,120
1,note_on,80,76,0
1,note_on,80,0,120
1,note_on,82,68,0
1,note_on,82,0,120
1,note_on,80,76,0
1,note_on,80,0,120
1,note_on,82,67,0
1,note_on,82,0,120
1,note_on,80,67,0
1,note_on,80,0,120
1,note_on,79,70,0
1,note_on,79,0,120
1,note_on,82,79,0
1,note_on,82,0,120
1,note_on,80,73,0
1,note_on,80,0,120
1,note_on,77,0,0
1,note_on,76,58,0
1,note_on,79,58,0
1,note_on,79,0,720
1,note_on,76,0,0
1,note_on,77,56,2160
1,note_on,80,56,0
1,note_on,80,0,720
1,note_on,77,0,0
1,note_on,80,75,2160
1,note_on,77,75,0
1,note_on,85,75,0
1,note_on,85,0,2880
1,note_on,77,0,0
1,note_on,80,0,0
1,note_on,79,52,0
1,note_on,76,52,0
1,note_on,84,52,0
1,note_on,84,0,480
1,note_on,76,0,0
1,note_on,79,0,0
1,note_on,76,56,1680
1,note_on,79,56,0
1,note_on,79,0,600
1,note_on,76,0,0
1,note_on,79,52,0
1,note_on,76,52,0
1,note_on,76,0,120
1,note_on,79,0,0
1,note_on,80,58,0
1,note_on,77,58,0
1,note_on,77,0,480
1,note_on,80,0,0
1,note_on,79,52,0
1,note_on,76,52,0
1,note_on,76,0,240
1,note_on,79,0,0
1,note_on,67,50,480
1,note_on,64,50,0
1,note_on,64,0,240
1,note_on,67,0,0
1,note_on,55,49,480
1,note_on,52,49,0
1,note_on,52,0,240
1,note_on,55,0,0
1,note_on,79,58,600
1,note_on,76,58,0
1,note_on,76,0,120
1,note_on,79,0,0
1,note_on,82,61,0
1,note_on,79,61,0
1,note_on,79,0,480
1,note_on,82,0,0
1,note_on,77,52,0
1,note_on,80,52,0
1,note_on,80,0,240
1,note_on,77,0,0
1,note_on,65,49,480
1,note_on,68,49,0
1,note_on,68,0,240
1,note_on,65,0,0
1,note_on,53,47,480
1,note_on,56,47,0
1,note_on,56,0,235
1,note_on,53,0,0
1,note_on,77,52,605
1,note_on,80,52,0
1,note_on,80,0,120
1,note_on,77,0,0
1,note_on,80,75,0
1,note_on,77,75,0
1,note_on,85,75,0
1,note_on,85,0,2880
1,note_on,77,0,0
1,note_on,80,0,0
1,note_on,79,61,0
1,note_on,76,61,0
1,note_on,84,61,0
1,note_on,84,0,480
1,note_on,76,0,0
1,note_on,79,0,0
1,note_on,66,52,960
1,note_on,63,52,0
1,note_on,72,52,0
1,note_on,72,0,1440
1,note_on,63,0,0
1,note_on,66,0,0
1,note_on,65,52,0
1,note_on,71,52,0
1,note_on,62,52,0
1,note_on,62,0,480
1,note_on,71,0,0
1,note_on,65,0,0
1,note_on,61,46,960
1,note_on,70,46,0
1,note_on,65,46,0
1,note_on,65,0,480
1,note_on,70,0,0
1,note_on,61,0,0
1,note_on,60,41,960
1,note_on,68,41,0
1,note_on,65,41,0
1,note_on,65,0,720
1,note_on,68,0,0
1,note_on,60,0,0
1,note_on,57,44,7200
1,note_on,57,0,600
1,note_on,60,40,0
1,note_on,60,0,120
1,note_on,53,38,0
1,note_on,65,41,0
1,note_on,65,0,720
1,note_on,53,0,0
1,note_on,57,40,0
1,note_on,69,44,0
1,note_on,69,0,600
1,note_on,57,0,0
1,note_on,65,39,0
1,note_on,53,36,0
1,note_on,53,0,120
1,note_on,65,0,0
1,note_on,64,41,0
1,note_on,52,38,0
1,note_on,52,0,720
1,note_on,64,0,0
1,note_on,67,44,0
1,note_on,55,40,0
1,note_on,55,0,600
1,note_on,67,0,0
1,note_on,64,39,0
1,note_on,52,36,0
1,note_on,52,0,120
1,note_on,64,0,0
1,note_on,53,38,0
1,note_on,65,41,0
1,note_on,65,0,720
1,note_on,53,0,0
1,note_on,60,40,0
1,note_on,60,0,1440
1,note_on,62,44,0
1,note_on,62,0,600
1,note_on,58,40,0
1,note_on,58,0,120
1,note_on,57,44,0
1,note_on,57,0,720
1,note_on,60,44,0
1,note_on,60,0,600
1,note_on,57,39,0
1,note_on,57,0,120
1,note_on,55,44,0
1,note_on,55,0,720
1,note_on,60,44,0
1,note_on,60,0,600
1,note_on,58,39,0
1,note_on,58,0,120
1,note_on,57,42,0
1,note_on,57,0,720
1,note_on,60,42,0
1,note_on,60,0,1440
1,note_on,69,55,0
1,note_on,69,0,600
1,note_on,72,53,0
1,note_on,72,0,120
1,note_on,65,51,0
1,note_on,77,56,0
1,note_on,77,0,720
1,note_on,65,0,0
1,note_on,81,62,0
1,note_on,69,57,0
1,note_on,69,0,600
1,note_on,81,0,0
1,note_on,77,58,0
1,note_on,65,53,0
1,note_on,65,0,120
1,note_on,77,0,0
1,note_on,76,61,0
1,note_on,64,57,0
1,note_on,64,0,720
1,note_on,76,0,0
1,note_on,79,68,0
1,note_on,67,62,0
1,note_on,67,0,600
1,note_on,79,0,0
1,note_on,76,63,0
1,note_on,64,58,0
1,note_on,64,0,120
1,note_on,76,0,0
1,note_on,77,57,0
1,note_on,65,51,0
1,note_on,65,0,720
1,note_on,77,0,0
1,note_on,60,48,0
1,note_on,72,52,0
1,note_on,72,0,2160
1,note_on,60,0,0
1,note_on,61,72,0
1,note_on,73,85,0
1,note_on,73,0,720
1,note_on,61,0,0
1,note_on,58,69,0
1,note_on,70,81,0
1,note_on,70,0,2160
1,note_on,58,0,0
1,note_on,68,58,0
1,note_on,68,0,2160
1,note_on,67,51,0
1,note_on,67,0,480
1,note_on,65,49,0
1,note_on,65,0,240
1,note_on,67,46,0
1,note_on,67,0,120
1,note_on,68,39,0
1,note_on,68,0,120
1,note_on,67,46,0
1,note_on,67,0,120
1,note_on,68,40,0
1,note_on,68,0,120
1,note_on,67,47,0
1,note_on,67,0,120
1,note_on,68,40,0
1,note_on,68,0,120
1,note_on,67,48,0
1,note_on,67,0,120
1,note_on,68,41,0
1,note_on,68,0,120
1,note_on,67,49,0
1,note_on,67,0,120
1,note_on,68,42,0
1,note_on,68,0,120
1,note_on,67,50,0
1,note_on,67,0,120
1,note_on,68,42,0
1,note_on,68,0,120
1,note_on,67,51,0
1,note_on,67,0,120
1,note_on,68,44,0
1,note_on,68,0,120
1,note_on,67,51,0
1,note_on,67,0,120
1,note_on,68,45,0
1,note_on,68,0,120
1,note_on,67,52,0
1,note_on,67,0,120
1,note_on,68,46,0
1,note_on,68,0,120
1,note_on,67,53,0
1,note_on,67,0,120
1,note_on,68,48,0
1,note_on,68,0,120
1,note_on,67,55,0
1,note_on,67,0,120
1,note_on,68,48,0
1,note_on,68,0,120
1,note_on,67,56,0
1,note_on,67,0,120
1,note_on,68,48,0
1,note_on,68,0,120
1,note_on,73,46,0
1,note_on,73,0,120
1,note_on,72,39,0
1,note_on,72,0,120
1,note_on,73,46,0
1,note_on,73,0,120
1,note_on,72,40,0
1,note_on,72,0,120
1,note_on,73,48,0
1,note_on,73,0,120
1,note_on,72,41,0
1,note_on,72,0,120
1,note_on,73,50,0
1,note_on,73,0,120
1,note_on,72,44,0
1,note_on,72,0,120
1,note_on,73,51,0
1,note_on,73,0,120
1,note_on,72,45,0
1,note_on,72,0,120
1,note_on,73,53,0
1,note_on,73,0,120
1,note_on,72,47,0
1,note_on,72,0,120
1,note_on,73,56,0
1,note_on,73,0,120
1,note_on,72,48,0
1,note_on,72,0,120
1,note_on,73,56,0
1,note_on,73,0,120
1,note_on,72,47,0
1,note_on,72,0,120
1,note_on,73,56,0
1,note_on,73,0,120
1,note_on,72,48,0
1,note_on,72,0,120
1,note_on,73,56,0
1,note_on,73,0,120
1,note_on,72,49,0
1,note_on,72,0,120
1,note_on,73,56,0
1,note_on,73,0,120
1,note_on,72,49,0
1,note_on,72,0,120
1,note_on,71,56,0
1,note_on,71,0,120
1,note_on,72,48,0
1,note_on,72,0,120
1,note_on,85,49,0
1,note_on,85,0,120
1,note_on,84,41,0
1,note_on,84,0,120
1,note_on,85,49,0
1,note_on,85,0,120
1,note_on,84,43,0
1,note_on,84,0,120
1,note_on,85,51,0
1,note_on,85,0,120
1,note_on,84,45,0
1,note_on,84,0,120
1,note_on,85,54,0
1,note_on,85,0,120
1,note_on,84,45,0
1,note_on,84,0,120
1,note_on,85,55,0
1,note_on,85,0,120
1,note_on,84,46,0
1,note_on,84,0,120
1,note_on,85,56,0
1,note_on,85,0,120
1,note_on,84,49,0
1,note_on,84,0,120
1,note_on,85,60,0
1,note_on,85,0,120
1,note_on,84,49,0
1,note_on,84,0,120
1,note_on,85,58,0
1,note_on,85,0,120
1,note_on,84,48,0
1,note_on,84,0,120
1,note_on,85,55,0
1,note_on,85,0,120
1,note_on,84,45,0
1,note_on,84,0,120
1,note_on,85,54,0
1,note_on,85,0,120
1,note_on,84,45,0
1,note_on,84,0,120
1,note_on,85,52,0
1,note_on,85,0,120
1,note_on,84,44,0
1,note_on,84,0,120
1,note_on,83,50,0
1,note_on,83,0,120
1,note_on,84,40,0
1,note_on,84,0,120
1,note_on,85,47,0
1,note_on,85,0,240
1,note_on,84,47,0
1,note_on,84,0,240
1,note_on,82,45,0
1,note_on,82,0,240
1,note_on,80,42,0
1,note_on,80,0,240
1,note_on,79,43,0
1,note_on,79,0,240
1,note_on,78,42,0
1,note_on,78,0,240
1,note_on,77,42,0
1,note_on,77,0,240
1,note_on,76,42,0
1,note_on,76,0,240
1,note_on,75,42,0
1,note_on,75,0,240
1,note_on,73,42,0
1,note_on,73,0,240
1,note_on,72,41,0
1,note_on,72,0,240
1,note_on,70,41,0
1,note_on,70,0,240
1,note_on,68,41,0
1,note_on,68,0,240
1,note_on,67,39,0
1,note_on,67,0,240
1,note_on,66,39,0
1,note_on,66,0,240
1,note_on,65,38,0
1,note_on,65,0,240
1,note_on,64,37,0
1,note_on,64,0,240
1,note_on,63,36,0
1,note_on,63,0,240
1,note_on,61,36,0
1,note_on,61,0,240
1,note_on,60,36,0
1,note_on,60,0,240
1,note_on,58,35,0
1,note_on,58,0,240
1,note_on,53,83,6480
1,note_on,53,0,120
1,note_on,48,66,0
1,note_on,48,0,120
1,note_on,44,66,0
1,note_on,44,0,120
1,note_on,48,66,0
1,note_on,48,0,120
1,note_on,53,72,0
1,note_on,53,0,120
1,note_on,48,64,0
1,note_on,48,0,120
1,note_on,56,84,0
1,note_on,56,0,120
1,note_on,48,66,0
1,note_on,48,0,120
1,note_on,55,83,0
1,note_on,55,0,120
1,note_on,48,66,0
1,note_on,48,0,120
1,note_on,53,81,0
1,note_on,53,0,120
1,note_on,48,66,0
1,note_on,48,0,120
1,note_on,53,83,0
1,note_on,53,0,120
1,note_on,48,63,0
1,note_on,48,0,120
1,note_on,44,63,0
1,note_on,44,0,120
1,note_on,48,63,0
1,note_on,48,0,120
1,note_on,53,66,0
1,note_on,53,0,120
1,note_on,48,62,0
1,note_on,48,0,120
1,note_on,56,83,0
1,note_on,56,0,120
1,note_on,48,63,0
1,note_on,48,0,120
1,note_on,55,80,0
1,note_on,55,0,120
1,note_on,48,66,0
1,note_on,48,0,120
1,note_on,53,80,0
1,note_on,53,0,120
1,note_on,48,64,0
1,note_on,48,0,120
1,note_on,61,83,0
1,note_on,61,0,120
1,note_on,56,66,0
1,note_on,56,0,120
1,note_on,53,66,0
1,note_on,53,0,120
1,note_on,56,66,0
1,note_on,56,0,120
1,note_on,61,77,0
1,note_on,61,0,120
1,note_on,56,64,0
1,note_on,56,0,120
1,note_on,65,84,0
1,note_on,65,0,120
1,note_on,56,66,0
1,note_on,56,0,120
1,note_on,63,83,0
1,note_on,63,0,120
1,note_on,56,66,0
1,note_on,56,0,120
1,note_on,61,81,0
1,note_on,61,0,120
1,note_on,56,66,0
1,note_on,56,0,120
1,note_on,61,83,0
1,note_on,61,0,120
1,note_on,56,63,0
1,note_on,56,0,120
1,note_on,53,63,0
1,note_on,53,0,120
1,note_on,56,63,0
1,note_on,56,0,120
1,note_on,61,75,0
1,note_on,61,0,120
1,note_on,56,62,0
1,note_on,56,0,120
1,note_on,65,83,0
1,note_on,65,0,120
1,note_on,56,63,0
1,note_on,56,0,120
1,note_on,63,80,0
1,note_on,63,0,120
1,note_on,56,66,0
1,note_on,56,0,120
1,note_on,61,80,0
1,note_on,61,0,120
1,note_on,56,64,0
1,note_on,56,0,120
1,note_on,70,93,0
1,note_on,70,0,120
1,note_on,73,74,0
1,note_on,73,0,120
1,note_on,70,76,0
1,note_on,70,0,120
1,note_on,73,67,0
1,note_on,73,0,120
1,note_on,70,72,0
1,note_on,70,0,120
1,note_on,73,67,0
1,note_on,73,0,120
1,note_on,70,72,0
1,note_on,70,0,120
1,note_on,73,67,0
1,note_on,73,0,120
1,note_on,70,72,0
1,note_on,70,0,120
1,note_on,73,67,0
1,note_on,73,0,120
1,note_on,70,72,0
1,note_on,70,0,120
1,note_on,73,67,0
1,note_on,73,0,120
1,note_on,70,76,0
1,note_on,70,0,120
1,note_on,73,67,0
1,note_on,73,0,120
1,note_on,70,76,0
1,note_on,70,0,120
1,note_on,73,67,0
1,note_on,73,0,120
1,note_on,70,76,0
1,note_on,70,0,120
1,note_on,73,67,0
1,note_on,73,0,120
1,note_on,70,95,0
1,note_on,70,0,120
1,note_on,73,78,0
1,note_on,73,0,120
1,note_on,67,89,0
1,note_on,67,0,120
1,note_on,70,78,0
1,note_on,70,0,120
1,note_on,64,84,0
1,note_on,64,0,120
1,note_on,67,77,0
1,note_on,67,0,120
1,note_on,61,82,0
1,note_on,61,0,120
1,note_on,64,70,0
1,note_on,64,0,120
1,note_on,58,81,0
1,note_on,58,0,120
1,note_on,61,71,0
1,note_on,61,0,120
1,note_on,55,82,0
1,note_on,55,0,120
1,note_on,58,68,0
1,note_on,58,0,120
1,note_on,53,81,0
1,note_on,53,0,120
1,note_on,55,70,0
1,note_on,55,0,120
1,note_on,58,80,0
1,note_on,58,0,120
1,note_on,55,70,0
1,note_on,55,0,120
1,note_on,53,80,0
1,note_on,53,0,120
1,note_on,55,69,0
1,note_on,55,0,120
1,note_on,53,70,120
1,note_on,53,0,120
1,note_on,58,80,0
1,note_on,58,0,120
1,note_on,55,69,0
1,note_on,55,0,120
1,note_on,53,77,0
1,note_on,53,0,120
1,note_on,58,70,0
1,note_on,58,0,120
1,note_on,52,69,120
1,note_on,52,0,120
1,note_on,58,80,0
1,note_on,58,0,120
1,note_on,55,69,0
1,note_on,55,0,120
1,note_on,52,78,0
1,note_on,52,0,120
1,note_on,58,69,0
1,note_on,58,0,120
1,note_on,65,83,0
1,note_on,65,0,120
1,note_on,60,66,0
1,note_on,60,0,120
1,note_on,56,66,0
1,note_on,56,0,120
1,note_on,60,66,0
1,note_on,60,0,120
1,note_on,65,80,0
1,note_on,65,0,120
1,note_on,60,64,0
1,note_on,60,0,120
1,note_on,68,84,0
1,note_on,68,0,120
1,note_on,60,66,0
1,note_on,60,0,120
1,note_on,67,83,0
1,note_on,67,0,120
1,note_on,60,66,0
1,note_on,60,0,120
1,note_on,65,81,0
1,note_on,65,0,120
1,note_on,60,66,0
1,note_on,60,0,120
1,note_on,65,83,0
1,note_on,65,0,120
1,note_on,60,63,0
1,note_on,60,0,120
1,note_on,56,63,0
1,note_on,56,0,120
1,note_on,60,63,0
1,note_on,60,0,120
1,note_on,65,80,0
1,note_on,65,0,120
1,note_on,60,62,0
1,note_on,60,0,120
1,note_on,68,83,0
1,note_on,68,0,120
1,note_on,60,63,0
1,note_on,60,0,120
1,note_on,67,80,0
1,note_on,67,0,120
1,note_on,60,66,0
1,note_on,60,0,120
1,note_on,65,80,0
1,note_on,65,0,120
1,note_on,60,64,0
1,note_on,60,0,120
1,note_on,73,83,0
1,note_on,73,0,120
1,note_on,68,66,0
1,note_on,68,0,120
1,note_on,65,66,0
1,note_on,65,0,120
1,note_on,68,66,0
1,note_on,68,0,120
1,note_on,73,80,0
1,note_on,73,0,120
1,note_on,68,64,0
1,note_on,68,0,120
1,note_on,77,84,0
1,note_on,77,0,120
1,note_on,68,66,0
1,note_on,68,0,120
1,note_on,75,83,0
1,note_on,75,0,120
1,note_on,68,66,0
1,note_on,68,0,120
1,note_on,73,81,0
1,note_on,73,0,120
1,note_on,68,66,0
1,note_on,68,0,120
1,note_on,73,83,0
1,note_on,73,0,120
1,note_on,68,63,0
1,note_on,68,0,120
1,note_on,65,63,0
1,note_on,65,0,120
1,note_on,68,63,0
1,note_on,68,0,120
1,note_on,73,80,0
1,note_on,73,0,120
1,note_on,68,62,0
1,note_on,68,0,120
1,note_on,77,83,0
1,note_on,77,0,120
1,note_on,68,63,0
1,note_on,68,0,120
1,note_on,75,80,0
1,note_on,75,0,120
1,note_on,68,66,0
1,note_on,68,0,120
1,note_on,73,80,0
1,note_on,73,0,120
1,note_on,68,64,0
1,note_on,68,0,120
1,note_on,82,93,0
1,note_on,82,0,120
1,note_on,85,75,0
1,note_on,85,0,120
1,note_on,82,80,0
1,note_on,82,0,120
1,note_on,85,69,0
1,note_on,85,0,120
1,note_on,82,77,0
1,note_on,82,0,120
1,note_on,85,69,0
1,note_on,85,0,120
1,note_on,82,78,0
1,note_on,82,0,120
1,note_on,85,69,0
1,note_on,85,0,120
1,note_on,82,74,0
1,note_on,82,0,120
1,note_on,85,69,0
1,note_on,85,0,120
1,note_on,82,74,0
1,note_on,82,0,120
1,note_on,85,69,0
1,note_on,85,0,120
1,note_on,82,74,0
1,note_on,82,0,120
1,note_on,85,69,0
1,note_on,85,0,120
1,note_on,82,74,0
1,note_on,82,0,120
1,note_on,85,69,0
1,note_on,85,0,120
1,note_on,82,74,0
1,note_on,82,0,120
1,note_on,85,69,0
1,note_on,85,0,120
1,note_on,82,75,0
1,note_on,82,0,120
1,note_on,85,69,0
1,note_on,85,0,120
1,note_on,82,77,0
1,note_on,82,0,120
1,note_on,85,69,0
1,note_on,85,0,120
1,note_on,82,77,0
1,note_on,82,0,120
1,note_on,85,69,0
1,note_on,85,0,120
1,note_on,82,82,0
1,note_on,82,0,120
1,note_on,85,70,0
1,note_on,85,0,120
1,note_on,79,81,0
1,note_on,79,0,120
1,note_on,82,71,0
1,note_on,82,0,120
1,note_on,77,82,0
1,note_on,77,0,120
1,note_on,79,68,0
1,note_on,79,0,120
1,note_on,77,81,0
1,note_on,77,0,120
1,note_on,79,70,0
1,note_on,79,0,120
1,note_on,82,80,0
1,note_on,82,0,120
1,note_on,79,70,0
1,note_on,79,0,120
1,note_on,77,80,0
1,note_on,77,0,120
1,note_on,79,69,0
1,note_on,79,0,120
1,note_on,77,72,120
1,note_on,77,0,120
1,note_on,82,82,0
1,note_on,82,0,120
1,note_on,79,70,0
1,note_on,79,0,120
1,note_on,77,77,0
1,note_on,77,0,120
1,note_on,82,69,0
1,note_on,82,0,120
1,note_on,76,67,120
1,note_on,76,0,120
1,note_on,82,75,0
1,note_on,82,0,120
1,note_on,79,64,0
1,note_on,79,0,120
1,note_on,76,72,0
1,note_on,76,0,120
1,note_on,82,62,0
1,note_on,82,0,120
1,note_on,73,72,120
1,note_on,73,0,120
1,note_on,82,82,0
1,note_on,82,0,120
1,note_on,79,70,0
1,note_on,79,0,120
1,note_on,73,77,0
1,note_on,73,0,120
1,note_on,82,69,0
1,note_on,82,0,120
1,note_on,72,67,120
1,note_on,72,0,120
1,note_on,82,75,0
1,note_on,82,0,120
1,note_on,79,64,0
1,note_on,79,0,120
1,note_on,72,72,0
1,note_on,72,0,120
1,note_on,82,62,0
1,note_on,82,0,120
1,note_on,77,72,120
1,note_on,77,0,120
1,note_on,82,82,0
1,note_on,82,0,120
1,note_on,79,70,0
1,note_on,79,0,120
1,note_on,77,77,0
1,note_on,77,0,120
1,note_on,82,69,0
1,note_on,82,0,120
1,note_on,76,67,120
1,note_on,76,0,120
1,note_on,82,75,0
1,note_on,82,0,120
1,note_on,79,64,0
1,note_on,79,0,120
1,note_on,76,72,0
1,note_on,76,0,120
1,note_on,82,62,0
1,note_on,82,0,120
1,note_on,83,83,480
1,note_on,83,0,120
1,note_on,86,79,0
1,note_on,86,0,120
1,note_on,89,87,0
1,note_on,89,0,120
1,note_on,86,79,0
1,note_on,86,0,120
1,note_on,83,86,0
1,note_on,83,0,120
1,note_on,92,83,0
1,note_on,92,0,120
1,note_on,91,84,0
1,note_on,91,0,120
1,note_on,89,79,0
1,note_on,89,0,120
1,note_on,88,79,0
1,note_on,88,0,120
1,note_on,91,74,0
1,note_on,91,0,120
1,note_on,89,79,0
1,note_on,89,0,120
1,note_on,88,72,0
1,note_on,88,0,120
1,note_on,85,73,0
1,note_on,85,0,120
1,note_on,84,72,0
1,note_on,84,0,120
1,note_on,82,78,0
1,note_on,82,0,120
1,note_on,85,73,0
1,note_on,85,0,120
1,note_on,84,75,0
1,note_on,84,0,120
1,note_on,82,72,0
1,note_on,82,0,120
1,note_on,80,71,0
1,note_on,80,0,120
1,note_on,79,70,0
1,note_on,79,0,120
1,note_on,77,39,120
1,note_on,77,0,120
1,note_on,80,41,0
1,note_on,80,0,120
1,note_on,84,43,0
1,note_on,84,0,120
1,note_on,89,45,0
1,note_on,89,0,120
1,note_on,77,41,0
1,note_on,77,0,120
1,note_on,89,45,360
1,note_on,89,0,120
1,note_on,77,41,0
1,note_on,77,0,120
1,note_on,89,45,0
1,note_on,89,0,120
1,note_on,89,44,360
1,note_on,89,0,120
1,note_on,77,41,0
1,note_on,77,0,120
1,note_on,89,44,0
1,note_on,89,0,120
1,note_on,88,44,360
1,note_on,88,0,120
1,note_on,76,41,0
1,note_on,76,0,120
1,note_on,88,45,0
1,note_on,88,0,120
1,note_on,77,39,120
1,note_on,77,0,120
1,note_on,80,41,0
1,note_on,80,0,120
1,note_on,84,43,0
1,note_on,84,0,120
1,note_on,89,45,0
1,note_on,89,0,120
1,note_on,77,41,0
1,note_on,77,0,120
1,note_on,77,45,360
1,note_on,77,0,120
1,note_on,65,41,0
1,note_on,65,0,120
1,note_on,77,45,0
1,note_on,77,0,120
1,note_on,77,44,360
1,note_on,77,0,120
1,note_on,65,41,0
1,note_on,65,0,120
1,note_on,77,44,0
1,note_on,77,0,120
1,note_on,76,44,360
1,note_on,76,0,120
1,note_on,64,41,0
1,note_on,64,0,120
1,note_on,76,45,0
1,note_on,76,0,120
1,note_on,77,39,120
1,note_on,77,0,120
1,note_on,80,41,0
1,note_on,80,0,120
1,note_on,84,43,0
1,note_on,84,0,120
1,note_on,89,45,0
1,note_on,89,0,120
1,note_on,77,41,0
1,note_on,77,0,120
1,note_on,89,45,360
1,note_on,89,0,120
1,note_on,77,41,0
1,note_on,77,0,120
1,note_on,89,45,0
1,note_on,89,0,120
1,note_on,89,44,360
1,note_on,89,0,120
1,note_on,77,41,0
1,note_on,77,0,120
1,note_on,89,44,0
1,note_on,89,0,120
1,note_on,88,44,360
1,note_on,88,0,120
1,note_on,76,41,0
1,note_on,76,0,120
1,note_on,88,45,0
1,note_on,88,0,120
1,note_on,89,44,0
1,note_on,89,0,120
1,note_on,84,41,0
1,note_on,84,0,120
1,note_on,80,40,0
1,note_on,80,0,120
1,note_on,84,36,0
1,note_on,84,0,120
1,note_on,89,39,0
1,note_on,89,0,120
1,note_on,84,36,0
1,note_on,84,0,120
1,note_on,80,42,0
1,note_on,80,0,120
1,note_on,84,38,0
1,note_on,84,0,120
1,note_on,89,38,0
1,note_on,89,0,120
1,note_on,84,34,0
1,note_on,84,0,120
1,note_on,80,37,0
1,note_on,80,0,120
1,note_on,84,33,0
1,note_on,84,0,120
1,note_on,89,39,0
1,note_on,89,0,120
1,note_on,84,36,0
1,note_on,84,0,120
1,note_on,80,36,0
1,note_on,80,0,120
1,note_on,84,32,0
1,note_on,84,0,120
1,note_on,89,35,0
1,note_on,89,0,120
1,note_on,84,31,0
1,note_on,84,0,120
1,note_on,89,36,0
1,note_on,89,0,120
1,note_on,84,34,0
1,note_on,84,0,120
1,note_on,89,34,0
1,note_on,89,0,120
1,note_on,84,30,0
1,note_on,84,0,120
1,note_on,89,33,0
1,note_on,89,0,120
1,note_on,84,30,0
1,note_on,84,0,120
1,note_on,89,38,0
1,note_on,89,0,120
1,note_on,84,30,0
1,note_on,84,0,120
1,note_on,80,37,0
1,note_on,80,0,120
1,note_on,84,30,0
1,note_on,84,0,120
1,note_on,89,33,0
1,note_on,89,0,120
1,note_on,84,30,0
1,note_on,84,0,120
1,note_on,80,36,0
1,note_on,80,0,120
1,note_on,84,30,0
1,note_on,84,0,120
1,note_on,89,35,0
1,note_on,89,0,120
1,note_on,84,30,0
1,note_on,84,0,120
1,note_on,80,31,0
1,note_on,80,0,120
1,note_on,84,30,0
1,note_on,84,0,120
1,note_on,89,38,0
1,note_on,89,0,120
1,note_on,84,30,0
1,note_on,84,0,120
1,note_on,80,33,0
1,note_on,80,0,120
1,note_on,84,29,0
1,note_on,84,0,120
1,note_on,89,33,0
1,note_on,89,0,120
1,note_on,84,28,0
1,note_on,84,0,120
1,note_on,89,37,0
1,note_on,89,0,120
1,note_on,84,33,0
1,note_on,84,0,120
1,note_on,80,34,0
1,note_on,80,0,120
1,note_on,84,29,0
1,note_on,84,0,120
1,note_on,89,33,0
1,note_on,89,0,120
1,note_on,84,29,0
1,note_on,84,0,120
1,note_on,89,38,0
1,note_on,89,0,120
1,note_on,84,30,0
1,note_on,84,0,120
1,note_on,80,37,0
1,note_on,80,0,120
1,note_on,84,30,0
1,note_on,84,0,120
1,note_on,89,33,0
1,note_on,89,0,120
1,note_on,84,30,0
1,note_on,84,0,120
1,note_on,89,36,0
1,note_on,89,0,120
1,note_on,84,30,0
1,note_on,84,0,120
1,note_on,80,35,0
1,note_on,80,0,120
1,note_on,84,30,0
1,note_on,84,0,120
1,note_on,89,31,0
1,note_on,89,0,120
1,note_on,84,30,0
1,note_on,84,0,120
1,note_on,89,38,0
1,note_on,89,0,120
1,note_on,84,30,0
1,note_on,84,0,120
1,note_on,80,33,0
1,note_on,80,0,120
1,note_on,84,29,0
1,note_on,84,0,120
1,note_on,89,33,0
1,note_on,89,0,120
1,note_on,84,28,0
1,note_on,84,0,120
1,note_on,89,37,0
1,note_on,89,0,120
1,note_on,84,33,0
1,note_on,84,0,120
1,note_on,80,34,0
1,note_on,80,0,120
1,note_on,84,29,0
1,note_on,84,0,120
1,note_on,89,33,0
1,note_on,89,0,120
1,note_on,84,29,0
1,note_on,84,0,120
1,note_on,87,38,0
1,note_on,87,0,120
1,note_on,84,30,0
1,note_on,84,0,120
1,note_on,80,37,0
1,note_on,80,0,120
1,note_on,84,30,0
1,note_on,84,0,120
1,note_on,87,33,0
1,note_on,87,0,120
1,note_on,84,30,0
1,note_on,84,0,120
1,note_on,80,36,0
1,note_on,80,0,120
1,note_on,84,30,0
1,note_on,84,0,120
1,note_on,87,35,0
1,note_on,87,0,120
1,note_on,84,30,0
1,note_on,84,0,120
1,note_on,80,31,0
1,note_on,80,0,120
1,note_on,84,30,0
1,note_on,84,0,120
1,note_on,87,38,0
1,note_on,87,0,120
1,note_on,84,30,0
1,note_on,84,0,120
1,note_on,80,33,0
1,note_on,80,0,120
1,note_on,84,29,0
1,note_on,84,0,120
1,note_on,87,33,0
1,note_on,87,0,120
1,note_on,84,28,0
1,note_on,84,0,120
1,note_on,87,37,0
1,note_on,87,0,120
1,note_on,84,33,0
1,note_on,84,0,120
1,note_on,80,34,0
1,note_on,80,0,120
1,note_on,84,29,0
1,note_on,84,0,120
1,note_on,87,33,0
1,note_on,87,0,120
1,note_on,84,29,0
1,note_on,84,0,120
1,note_on,87,38,0
1,note_on,87,0,120
1,note_on,84,30,0
1,note_on,84,0,120
1,note_on,80,37,0
1,note_on,80,0,120
1,note_on,84,30,0
1,note_on,84,0,120
1,note_on,87,33,0
1,note_on,87,0,120
1,note_on,84,30,0
1,note_on,84,0,120
1,note_on,87,36,0
1,note_on,87,0,120
1,note_on,84,30,0
1,note_on,84,0,120
1,note_on,80,35,0
1,note_on,80,0,120
1,note_on,84,30,0
1,note_on,84,0,120
1,note_on,87,31,0
1,note_on,87,0,120
1,note_on,84,30,0
1,note_on,84,0,120
1,note_on,87,38,0
1,note_on,87,0,120
1,note_on,84,30,0
1,note_on,84,0,120
1,note_on,80,33,0
1,note_on,80,0,120
1,note_on,84,29,0
1,note_on,84,0,120
1,note_on,87,33,0
1,note_on,87,0,120
1,note_on,84,28,0
1,note_on,84,0,120
1,note_on,87,37,0
1,note_on,87,0,120
1,note_on,84,33,0
1,note_on,84,0,120
1,note_on,80,34,0
1,note_on,80,0,120
1,note_on,84,29,0
1,note_on,84,0,120
1,note_on,87,33,0
1,note_on,87,0,120
1,note_on,84,29,0
1,note_on,84,0,120
1,note_on,89,38,0
1,note_on,89,0,120
1,note_on,85,30,0
1,note_on,85,0,120
1,note_on,80,37,0
1,note_on,80,0,120
1,note_on,85,30,0
1,note_on,85,0,120
1,note_on,89,33,0
1,note_on,89,0,120
1,note_on,85,31,0
1,note_on,85,0,120
1,note_on,89,37,0
1,note_on,89,0,120
1,note_on,85,30,0
1,note_on,85,0,120
1,note_on,80,36,0
1,note_on,80,0,120
1,note_on,85,31,0
1,note_on,85,0,120
1,note_on,89,34,0
1,note_on,89,0,120
1,note_on,85,33,0
1,note_on,85,0,120
1,note_on,89,40,0
1,note_on,89,0,120
1,note_on,85,33,0
1,note_on,85,0,120
1,note_on,80,35,0
1,note_on,80,0,120
1,note_on,85,31,0
1,note_on,85,0,120
1,note_on,89,35,0
1,note_on,89,0,120
1,note_on,85,30,0
1,note_on,85,0,120
1,note_on,89,40,0
1,note_on,89,0,120
1,note_on,85,36,0
1,note_on,85,0,120
1,note_on,80,37,0
1,note_on,80,0,120
1,note_on,85,33,0
1,note_on,85,0,120
1,note_on,89,36,0
1,note_on,89,0,120
1,note_on,85,33,0
1,note_on,85,0,120
1,note_on,90,40,0
1,note_on,90,0,120
1,note_on,84,35,0
1,note_on,84,0,120
1,note_on,80,40,0
1,note_on,80,0,120
1,note_on,84,35,0
1,note_on,84,0,120
1,note_on,90,37,0
1,note_on,90,0,120
1,note_on,84,36,0
1,note_on,84,0,120
1,note_on,90,42,0
1,note_on,90,0,120
1,note_on,84,35,0
1,note_on,84,0,120
1,note_on,80,41,0
1,note_on,80,0,120
1,note_on,84,37,0
1,note_on,84,0,120
1,note_on,90,38,0
1,note_on,90,0,120
1,note_on,84,37,0
1,note_on,84,0,120
1,note_on,90,44,0
1,note_on,90,0,120
1,note_on,84,36,0
1,note_on,84,0,120
1,note_on,80,44,0
1,note_on,80,0,120
1,note_on,84,38,0
1,note_on,84,0,120
1,note_on,90,39,0
1,note_on,90,0,120
1,note_on,84,38,0
1,note_on,84,0,120
1,note_on,90,45,0
1,note_on,90,0,120
1,note_on,87,38,0
1,note_on,87,0,120
1,note_on,80,44,0
1,note_on,80,0,120
1,note_on,87,39,0
1,note_on,87,0,120
1,note_on,90,39,0
1,note_on,90,0,120
1,note_on,87,39,0
1,note_on,87,0,120
1,note_on,89,55,0
1,note_on,89,0,480
1,note_on,77,62,1680
1,note_on,77,0,600
1,note_on,80,57,0
1,note_on,80,0,120
1,note_on,85,66,0
1,note_on,85,0,720
1,note_on,89,62,0
1,note_on,89,0,600
1,note_on,85,55,0
1,note_on,85,0,120
1,note_on,84,63,0
1,note_on,84,0,720
1,note_on,87,66,0
1,note_on,87,0,600
1,note_on,84,55,0
1,note_on,84,0,120
1,note_on,85,66,0
1,note_on,85,0,720
1,note_on,80,59,0
1,note_on,80,0,1440
1,note_on,77,68,0
1,note_on,77,0,600
1,note_on,80,62,0
1,note_on,80,0,120
1,note_on,85,71,0
1,note_on,85,0,720
1,note_on,89,74,0
1,note_on,89,0,600
1,note_on,85,64,0
1,note_on,85,0,120
1,note_on,84,75,0
1,note_on,84,0,720
1,note_on,87,80,0
1,note_on,87,0,600
1,note_on,84,71,0
1,note_on,84,0,120
1,note_on,83,85,0
1,note_on,83,0,720
1,note_on,86,95,0
1,note_on,86,0,1440
1,note_on,86,84,0
1,note_on,86,0,600
1,note_on,83,79,0
1,note_on,83,0,120
1,note_on,84,85,0
1,note_on,84,0,720
1,note_on,88,97,0
1,note_on,88,0,1440
1,note_on,91,84,0
1,note_on,79,71,0
1,note_on,79,0,600
1,note_on,91,0,0
1,note_on,77,67,0
1,note_on,89,79,0
1,note_on,89,0,120
1,note_on,77,0,0
1,note_on,88,85,0
1,note_on,76,72,0
1,note_on,76,0,720
1,note_on,88,0,0
1,note_on,79,79,0
1,note_on,91,93,0
1,note_on,91,0,1440
1,note_on,79,0,0
1,note_on,79,74,0
1,note_on,91,88,0
1,note_on,91,0,600
1,note_on,79,0,0
1,note_on,76,70,0
1,note_on,88,82,0
1,note_on,88,0,120
1,note_on,76,0,0
1,note_on,89,89,0
1,note_on,77,75,0
1,note_on,77,0,720
1,note_on,89,0,0
1,note_on,92,96,0
1,note_on,80,81,0
1,note_on,80,0,1440
1,note_on,92,0,0
1,note_on,92,88,0
1,note_on,80,74,0
1,note_on,80,0,600
1,note_on,92,0,0
1,note_on,89,82,0
1,note_on,77,70,0
1,note_on,77,0,120
1,note_on,89,0,0
1,note_on,61,80,120
1,note_on,61,0,120
1,note_on,58,77,0
1,note_on,58,0,120
1,note_on,66,72,0
1,note_on,66,0,120
1,note_on,66,75,360
1,note_on,66,0,120
1,note_on,61,78,0
1,note_on,61,0,120
1,note_on,70,73,0
1,note_on,70,0,120
1,note_on,70,74,360
1,note_on,70,0,120
1,note_on,66,80,0
1,note_on,66,0,120
1,note_on,73,74,0
1,note_on,73,0,120
1,note_on,73,75,360
1,note_on,73,0,120
1,note_on,70,80,0
1,note_on,70,0,120
1,note_on,78,72,0
1,note_on,78,0,120
1,note_on,78,74,360
1,note_on,78,0,120
1,note_on,73,77,0
1,note_on,73,0,120
1,note_on,82,72,0
1,note_on,82,0,120
1,note_on,82,71,360
1,note_on,82,0,120
1,note_on,78,75,0
1,note_on,78,0,120
1,note_on,85,73,0
1,note_on,85,0,120
1,note_on,85,74,360
1,note_on,85,0,120
1,note_on,82,80,0
1,note_on,82,0,120
1,note_on,90,74,0
1,note_on,90,0,120
1,note_on,90,82,480
1,note_on,90,0,120
1,note_on,85,79,0
1,note_on,85,0,120
1,note_on,94,84,0
1,note_on,94,0,240
1,note_on,63,80,120
1,note_on,63,0,120
1,note_on,60,77,0
1,note_on,60,0,120
1,note_on,69,72,0
1,note_on,69,0,120
1,note_on,69,75,360
1,note_on,69,0,120
1,note_on,63,78,0
1,note_on,63,0,120
1,note_on,72,73,0
1,note_on,72,0,120
1,note_on,72,74,360
1,note_on,72,0,120
1,note_on,69,80,0
1,note_on,69,0,120
1,note_on,75,74,0
1,note_on,75,0,120
1,note_on,75,75,360
1,note_on,75,0,120
1,note_on,72,80,0
1,note_on,72,0,120
1,note_on,81,72,0
1,note_on,81,0,120
1,note_on,81,75,360
1,note_on,81,0,120
1,note_on,75,77,0
1,note_on,75,0,120
1,note_on,84,72,0
1,note_on,84,0,120
1,note_on,84,71,360
1,note_on,84,0,120
1,note_on,81,75,0
1,note_on,81,0,120
1,note_on,87,73,0
1,note_on,87,0,120
1,note_on,87,74,360
1,note_on,87,0,120
1,note_on,84,80,0
1,note_on,84,0,120
1,note_on,93,74,0
1,note_on,93,0,120
1,note_on,93,83,480
1,note_on,93,0,120
1,note_on,87,77,0
1,note_on,87,0,120
1,note_on,96,83,0
1,note_on,96,0,240
1,note_on,65,74,120
1,note_on,65,0,120
1,note_on,61,77,0
1,note_on,61,0,120
1,note_on,70,72,0
1,note_on,70,0,120
1,note_on,70,75,480
1,note_on,70,0,120
1,note_on,65,72,0
1,note_on,65,0,120
1,note_on,73,73,0
1,note_on,73,0,240
1,note_on,67,75,120
1,note_on,67,0,120
1,note_on,64,77,0
1,note_on,64,0,120
1,note_on,72,72,0
1,note_on,72,0,120
1,note_on,72,75,480
1,note_on,72,0,120
1,note_on,67,72,0
1,note_on,67,0,120
1,note_on,76,73,0
1,note_on,76,0,240
1,note_on,68,73,120
1,note_on,68,0,120
1,note_on,65,77,0
1,note_on,65,0,120
1,note_on,73,72,0
1,note_on,73,0,120
1,note_on,73,75,480
1,note_on,73,0,120
1,note_on,68,71,0
1,note_on,68,0,120
1,note_on,77,73,0
1,note_on,77,0,240
1,note_on,70,80,120
1,note_on,70,0,120
1,note_on,67,77,0
1,note_on,67,0,120
1,note_on,76,72,0
1,note_on,76,0,120
1,note_on,76,75,480
1,note_on,76,0,120
1,note_on,70,73,0
1,note_on,70,0,120
1,note_on,79,73,0
1,note_on,79,0,240
1,note_on,72,64,120
1,note_on,72,0,120
1,note_on,68,69,0
1,note_on,68,0,120
1,note_on,77,64,0
1,note_on,77,0,120
1,note_on,73,64,360
1,note_on,73,0,120
1,note_on,70,69,0
1,note_on,70,0,120
1,note_on,79,67,0
1,note_on,79,0,120
1,note_on,75,69,360
1,note_on,75,0,120
1,note_on,72,73,0
1,note_on,72,0,120
1,note_on,81,69,0
1,note_on,81,0,120
1,note_on,77,71,360
1,note_on,77,0,120
1,note_on,73,68,0
1,note_on,73,0,120
1,note_on,82,70,0
1,note_on,82,0,120
1,note_on,79,71,360
1,note_on,79,0,120
1,note_on,76,73,0
1,note_on,76,0,120
1,note_on,84,70,0
1,note_on,84,0,120
1,note_on,80,69,360
1,note_on,80,0,120
1,note_on,77,73,0
1,note_on,77,0,120
1,note_on,85,72,0
1,note_on,85,0,120
1,note_on,82,74,360
1,note_on,82,0,120
1,note_on,79,78,0
1,note_on,79,0,120
1,note_on,88,74,0
1,note_on,88,0,120
1,note_on,84,75,360
1,note_on,84,0,120
1,note_on,80,77,0
1,note_on,80,0,120
1,note_on,89,75,0
1,note_on,89,0,120
1,note_on,85,78,360
1,note_on,85,0,120
1,note_on,82,79,0
1,note_on,82,0,120
1,note_on,91,74,0
1,note_on,91,0,120
1,note_on,87,74,360
1,note_on,87,0,120
1,note_on,84,79,0
1,note_on,84,0,120
1,note_on,93,74,0
1,note_on,93,0,120
1,note_on,89,79,360
1,note_on,89,0,120
1,note_on,85,80,0
1,note_on,85,0,120
1,note_on,94,79,0
1,note_on,94,0,120
1,note_on,89,81,360
1,note_on,89,0,120
1,note_on,85,83,0
1,note_on,85,0,120
1,note_on,94,80,0
1,note_on,94,0,120
1,note_on,89,78,600
1,note_on,89,0,120
1,note_on,85,82,0
1,note_on,85,0,120
1,note_on,94,79,0
1,note_on,94,0,120
1,note_on,89,89,0
1,note_on,89,0,120
1,note_on,85,83,0
1,note_on,85,0,120
1,note_on,82,78,0
1,note_on,82,0,120
1,note_on,77,78,0
1,note_on,77,0,120
1,note_on,73,82,0
1,note_on,73,0,120
1,note_on,82,79,0
1,note_on,82,0,120
1,note_on,77,86,0
1,note_on,77,0,120
1,note_on,73,82,0
1,note_on,73,0,120
1,note_on,70,80,0
1,note_on,70,0,120
1,note_on,65,74,0
1,note_on,65,0,120
1,note_on,61,78,0
1,note_on,61,0,120
1,note_on,70,73,0
1,note_on,70,0,120
1,note_on,65,81,0
1,note_on,65,0,120
1,note_on,61,78,0
1,note_on,61,0,120
1,note_on,61,80,1200
1,note_on,61,0,120
1,note_on,65,75,0
1,note_on,65,0,120
1,note_on,70,75,0
1,note_on,70,0,120
1,note_on,73,75,0
1,note_on,73,0,120
1,note_on,77,79,0
1,note_on,77,0,120
1,note_on,73,73,0
1,note_on,73,0,120
1,note_on,70,80,0
1,note_on,70,0,120
1,note_on,73,74,0
1,note_on,73,0,120
1,note_on,77,79,0
1,note_on,77,0,120
1,note_on,82,74,0
1,note_on,82,0,120
1,note_on,85,82,0
1,note_on,85,0,120
1,note_on,82,75,0
1,note_on,82,0,120
1,note_on,89,83,0
1,note_on,89,0,120
1,note_on,85,78,0
1,note_on,85,0,120
1,note_on,94,83,0
1,note_on,94,0,120
1,note_on,89,78,0
1,note_on,89,0,120
1,note_on,85,80,0
1,note_on,85,0,120
1,note_on,82,75,0
1,note_on,82,0,120
1,note_on,92,78,360
1,note_on,92,0,120
1,note_on,89,85,0
1,note_on,89,0,120
1,note_on,95,81,0
1,note_on,95,0,120
1,note_on,92,92,0
1,note_on,92,0,120
1,note_on,89,80,0
1,note_on,89,0,120
1,note_on,86,81,0
1,note_on,86,0,120
1,note_on,83,77,0
1,note_on,83,0,120
1,note_on,80,81,0
1,note_on,80,0,120
1,note_on,77,79,0
1,note_on,77,0,120
1,note_on,83,85,0
1,note_on,83,0,120
1,note_on,80,82,0
1,note_on,80,0,120
1,note_on,77,78,0
1,note_on,77,0,120
1,note_on,74,74,0
1,note_on,74,0,120
1,note_on,71,75,0
1,note_on,71,0,120
1,note_on,68,73,0
1,note_on,68,0,120
1,note_on,74,81,0
1,note_on,74,0,120
1,note_on,71,78,0
1,note_on,71,0,120
1,note_on,68,74,0
1,note_on,68,0,120
1,note_on,65,74,0
1,note_on,65,0,120
1,note_on,62,74,0
1,note_on,62,0,120
1,note_on,59,74,0
1,note_on,59,0,120
1,note_on,68,79,0
1,note_on,68,0,120
1,note_on,65,71,0
1,note_on,65,0,120
1,note_on,62,74,0
1,note_on,62,0,120
1,note_on,62,80,1080
1,note_on,62,0,120
1,note_on,65,74,0
1,note_on,65,0,120
1,note_on,68,79,0
1,note_on,68,0,120
1,note_on,71,74,0
1,note_on,71,0,120
1,note_on,74,82,0
1,note_on,74,0,120
1,note_on,77,75,0
1,note_on,77,0,120
1,note_on,80,83,0
1,note_on,80,0,120
1,note_on,83,78,0
1,note_on,83,0,120
1,note_on,86,83,0
1,note_on,86,0,120
1,note_on,89,78,0
1,note_on,89,0,120
1,note_on,92,80,0
1,note_on,92,0,120
1,note_on,95,75,0
1,note_on,95,0,120
1,note_on,92,78,360
1,note_on,92,0,120
1,note_on,89,82,0
1,note_on,89,0,120
1,note_on,96,79,0
1,note_on,96,0,120
1,note_on,92,92,0
1,note_on,92,0,120
1,note_on,89,83,0
1,note_on,89,0,120
1,note_on,84,82,0
1,note_on,84,0,120
1,note_on,80,78,0
1,note_on,80,0,120
1,note_on,77,82,0
1,note_on,77,0,120
1,note_on,84,79,0
1,note_on,84,0,120
1,note_on,80,86,0
1,note_on,80,0,120
1,note_on,77,82,0
1,note_on,77,0,120
1,note_on,72,80,0
1,note_on,72,0,120
1,note_on,68,74,0
1,note_on,68,0,120
1,note_on,65,78,0
1,note_on,65,0,120
1,note_on,72,73,0
1,note_on,72,0,120
1,note_on,68,81,0
1,note_on,68,0,120
1,note_on,65,78,0
1,note_on,65,0,120
1,note_on,65,80,1920
1,note_on,65,0,120
1,note_on,68,74,0
1,note_on,68,0,120
1,note_on,72,79,0
1,note_on,72,0,120
1,note_on,77,74,0
1,note_on,77,0,120
1,note_on,80,78,0
1,note_on,80,0,120
1,note_on,84,75,0
1,note_on,84,0,120
1,note_on,89,83,0
1,note_on,89,0,120
1,note_on,92,78,0
1,note_on,92,0,120
1,note_on,96,83,0
1,note_on,96,0,120
1,note_on,92,78,0
1,note_on,92,0,120
1,note_on,89,80,0
1,note_on,89,0,120
1,note_on,84,75,0
1,note_on,84,0,120
1,note_on,91,72,360
1,note_on,91,0,120
1,note_on,88,77,0
1,note_on,88,0,120
1,note_on,94,73,0
1,note_on,94,0,120
1,note_on,91,78,0
1,note_on,91,0,120
1,note_on,88,77,0
1,note_on,88,0,120
1,note_on,84,74,0
1,note_on,84,0,120
1,note_on,82,72,0
1,note_on,82,0,120
1,note_on,79,77,0
1,note_on,79,0,120
1,note_on,76,73,0
1,note_on,76,0,120
1,note_on,72,78,0
1,note_on,72,0,120
1,note_on,70,75,0
1,note_on,70,0,120
1,note_on,67,71,0
1,note_on,67,0,120
1,note_on,64,70,0
1,note_on,64,0,120
1,note_on,60,71,1920
1,note_on,60,0,120
1,note_on,64,71,0
1,note_on,64,0,120
1,note_on,67,73,0
1,note_on,67,0,120
1,note_on,70,69,0
1,note_on,70,0,120
1,note_on,72,73,0
1,note_on,72,0,120
1,note_on,76,66,0
1,note_on,76,0,120
1,note_on,79,70,0
1,note_on,79,0,120
1,note_on,76,66,0
1,note_on,76,0,120
1,note_on,72,70,0
1,note_on,72,0,120
1,note_on,76,66,0
1,note_on,76,0,120
1,note_on,79,70,0
1,note_on,79,0,120
1,note_on,76,60,0
1,note_on,76,0,120
1,note_on,82,65,0
1,note_on,82,0,120
1,note_on,79,58,0
1,note_on,79,0,120
1,note_on,76,63,0
1,note_on,76,0,120
1,note_on,79,56,0
1,note_on,79,0,120
1,note_on,82,57,0
1,note_on,82,0,480
1,note_on,79,46,1680
1,note_on,76,46,0
1,note_on,76,0,240
1,note_on,79,0,0
1,note_on,76,42,0
1,note_on,79,42,0
1,note_on,79,0,240
1,note_on,76,0,0
1,note_on,76,46,0
1,note_on,79,46,0
1,note_on,79,0,240
1,note_on,76,0,0
1,note_on,82,46,0
1,note_on,79,46,0
1,note_on,79,0,480
1,note_on,82,0,0
1,note_on,64,39,1680
1,note_on,67,39,0
1,note_on,67,0,240
1,note_on,64,0,0
1,note_on,64,37,0
1,note_on,67,37,0
1,note_on,67,0,240
1,note_on,64,0,0
1,note_on,67,37,0
1,note_on,64,37,0
1,note_on,64,0,240
1,note_on,67,0,0
1,note_on,67,41,0
1,note_on,70,41,0
1,note_on,70,0,480
1,note_on,67,0,0
1,note_on,70,32,3120
1,note_on,67,32,0
1,note_on,76,32,0
1,note_on,76,0,240
1,note_on,67,0,0
1,note_on,70,0,0
1,note_on,76,36,0
1,note_on,70,36,0
1,note_on,67,36,0
1,note_on,67,0,240
1,note_on,70,0,0
1,note_on,76,0,0
1,note_on,76,39,0
1,note_on,67,39,0
1,note_on,70,39,0
1,note_on,70,0,240
1,note_on,67,0,0
1,note_on,76,0,0
1,note_on,76,43,0
1,note_on,70,43,0
1,note_on,67,43,0
1,note_on,67,0,720
1,note_on,70,0,0
1,note_on,76,0,0
1,note_on,84,87,0
1,note_on,82,87,0
1,note_on,79,87,0
1,note_on,76,87,0
1,note_on,88,102,0
1,note_on,88,0,240
1,note_on,79,0,0
1,note_on,84,0,0
1,note_on,82,0,0
1,note_on,76,0,0
1,note_on,76,78,0
1,note_on,84,78,0
1,note_on,79,78,0
1,note_on,88,93,0
1,note_on,82,78,0
1,note_on,82,0,240
1,note_on,79,0,0
1,note_on,76,0,0
1,note_on,84,0,0
1,note_on,88,0,0
1,note_on,79,78,0
1,note_on,76,78,0
1,note_on,82,78,0
1,note_on,84,78,0
1,note_on,88,93,0
1,note_on,88,0,240
1,note_on,82,0,0
1,note_on,79,0,0
1,note_on,76,0,0
1,note_on,84,0,0
1,note_on,84,87,0
1,note_on,80,87,0
1,note_on,89,102,0
1,note_on,77,87,0
1,note_on,77,0,480
1,note_on,84,0,0
1,note_on,80,0,0
1,note_on,89,0,0
1,note_on,68,66,1680
1,note_on,68,0,600
1,note_on,72,58,0
1,note_on,72,0,120
1,note_on,77,63,0
1,note_on,77,0,720
1,note_on,80,68,0
1,note_on,80,0,600
1,note_on,77,60,0
1,note_on,77,0,120
1,note_on,76,63,0
1,note_on,76,0,720
1,note_on,79,68,0
1,note_on,79,0,600
1,note_on,76,60,0
1,note_on,76,0,120
1,note_on,77,63,0
1,note_on,77,0,720
1,note_on,72,62,0
1,note_on,72,0,1440
1,note_on,80,71,0
1,note_on,68,60,0
1,note_on,68,0,600
1,note_on,80,0,0
1,note_on,84,62,0
1,note_on,72,52,0
1,note_on,72,0,120
1,note_on,84,0,0
1,note_on,77,61,0
1,note_on,89,73,0
1,note_on,89,0,720
1,note_on,77,0,0
1,note_on,92,78,0
1,note_on,80,65,0
1,note_on,80,0,600
1,note_on,92,0,0
1,note_on,89,71,0
1,note_on,77,59,0
1,note_on,77,0,120
1,note_on,89,0,0
1,note_on,88,76,0
1,note_on,76,64,0
1,note_on,76,0,720
1,note_on,88,0,0
1,note_on,91,82,0
1,note_on,79,68,0
1,note_on,79,0,600
1,note_on,91,0,0
1,note_on,88,77,0
1,note_on,76,65,0
1,note_on,76,0,120
1,note_on,88,0,0
1,note_on,90,99,0
1,note_on,78,82,0
1,note_on,78,0,720
1,note_on,90,0,0
1,note_on,72,63,0
1,note_on,84,79,0
1,note_on,84,0,1440
1,note_on,72,0,0
1,note_on,75,70,0
1,note_on,87,84,0
1,note_on,87,0,600
1,note_on,75,0,0
1,note_on,72,66,0
1,note_on,84,78,0
1,note_on,84,0,120
1,note_on,72,0,0
1,note_on,89,99,0
1,note_on,77,82,0
1,note_on,77,0,720
1,note_on,89,0,0
1,note_on,70,63,0
1,note_on,82,79,0
1,note_on,82,0,1440
1,note_on,70,0,0
1,note_on,73,70,0
1,note_on,85,84,0
1,note_on,85,0,600
1,note_on,73,0,0
1,note_on,82,78,0
1,note_on,70,66,0
1,note_on,70,0,120
1,note_on,82,0,0
1,note_on,68,75,0
1,note_on,80,90,0
1,note_on,80,0,720
1,note_on,68,0,0
1,note_on,84,84,0
1,note_on,72,70,0
1,note_on,72,0,600
1,note_on,84,0,0
1,note_on,80,78,0
1,note_on,68,66,0
1,note_on,68,0,120
1,note_on,80,0,0
1,note_on,79,90,0
1,note_on,67,75,0
1,note_on,67,0,720
1,note_on,79,0,0
1,note_on,79,77,0
1,note_on,91,92,0
1,note_on,91,0,600
1,note_on,79,0,0
1,note_on,76,72,0
1,note_on,88,85,0
1,note_on,78,84,100
1,note_on,90,103,0
1,note_on,88,0,20
1,note_on,76,0,0
1,note_on,78,0,700
1,note_on,90,0,0
1,note_on,72,69,20
1,note_on,84,86,0
1,note_on,84,0,1440
1,note_on,72,0,0
1,note_on,87,92,0
1,note_on,75,77,0
1,note_on,75,0,600
1,note_on,87,0,0
1,note_on,72,72,0
1,note_on,84,85,0
1,note_on,84,0,120
1,note_on,72,0,0
1,note_on,89,103,0
1,note_on,77,84,0
1,note_on,77,0,720
1,note_on,89,0,0
1,note_on,82,86,0
1,note_on,70,69,0
1,note_on,70,0,1440
1,note_on,82,0,0
1,note_on,73,77,0
1,note_on,85,92,0
1,note_on,85,0,600
1,note_on,73,0,0
1,note_on,70,72,0
1,note_on,82,85,0
1,note_on,82,0,120
1,note_on,70,0,0
1,note_on,68,82,0
1,note_on,80,99,0
1,note_on,80,0,720
1,note_on,68,0,0
1,note_on,84,92,0
1,note_on,72,77,0
1,note_on,72,0,600
1,note_on,84,0,0
1,note_on,80,85,0
1,note_on,68,72,0
1,note_on,68,0,120
1,note_on,80,0,0
1,note_on,79,99,0
1,note_on,67,82,0
1,note_on,67,0,720
1,note_on,79,0,0
1,note_on,84,101,0
1,note_on,72,84,0
1,note_on,72,0,480
1,note_on,84,0,0
1,note_on,84,95,0
1,note_on,72,80,0
1,note_on,72,0,240
1,note_on,84,0,0
1,note_on,84,105,0
1,note_on,72,87,0
1,note_on,72,0,240
1,note_on,84,0,0
1,note_on,65,59,0
1,note_on,60,59,0
1,note_on,72,79,0
1,note_on,68,66,0
1,note_on,68,0,220
1,note_on,65,0,0
1,note_on,60,0,0
1,note_on,72,0,0
1,note_on,68,66,20
1,note_on,72,79,0
1,note_on,60,59,0
1,note_on,65,59,0
1,note_on,65,0,220
1,note_on,68,0,0
1,note_on,72,0,0
1,note_on,60,0,0
1,note_on,68,69,20
1,note_on,65,62,0
1,note_on,72,84,0
1,note_on,60,62,0
1,note_on,60,0,720
1,note_on,68,0,0
1,note_on,65,0,0
1,note_on,72,0,0
1,note_on,60,59,240
1,note_on,72,79,0
1,note_on,64,66,0
1,note_on,67,66,0
1,note_on,67,0,220
1,note_on,60,0,0
1,note_on,72,0,0
1,note_on,64,0,0
1,note_on,72,79,20
1,note_on,60,59,0
1,note_on,64,66,0
1,note_on,67,66,0
1,note_on,67,0,220
1,note_on,72,0,0
1,note_on,60,0,0
1,note_on,64,0,0
1,note_on,72,84,20
1,note_on,70,69,0
1,note_on,67,62,0
1,note_on,60,62,0
1,note_on,60,0,720
1,note_on,72,0,0
1,note_on,70,0,0
1,note_on,67,0,0
1,note_on,68,66,240
1,note_on,60,59,0
1,note_on,65,59,0
1,note_on,72,79,0
1,note_on,72,0,220
1,note_on,68,0,0
1,note_on,60,0,0
1,note_on,65,0,0
1,note_on,68,66,20
1,note_on,72,79,0
1,note_on,60,59,0
1,note_on,65,59,0
1,note_on,65,0,220
1,note_on,68,0,0
1,note_on,72,0,0
1,note_on,60,0,0
1,note_on,60,62,20
1,note_on,68,69,0
1,note_on,65,62,0
1,note_on,72,84,0
1,note_on,72,0,720
1,note_on,60,0,0
1,note_on,68,0,0
1,note_on,65,0,0
1,note_on,64,66,240
1,note_on,60,59,0
1,note_on,72,79,0
1,note_on,67,66,0
1,note_on,67,0,220
1,note_on,64,0,0
1,note_on,60,0,0
1,note_on,72,0,0
1,note_on,64,66,20
1,note_on,67,66,0
1,note_on,60,59,0
1,note_on,72,79,0
1,note_on,72,0,220
1,note_on,64,0,0
1,note_on,67,0,0
1,note_on,60,0,0
1,note_on,72,84,20
1,note_on,67,62,0
1,note_on,70,69,0
1,note_on,60,62,0
1,note_on,60,0,720
1,note_on,72,0,0
1,note_on,67,0,0
1,note_on,70,0,0
1,note_on,65,65,240
1,note_on,60,65,0
1,note_on,72,77,0
1,note_on,68,65,0
1,note_on,68,0,220
1,note_on,65,0,0
1,note_on,60,0,0
1,note_on,72,0,0
1,note_on,65,73,260
1,note_on,61,73,0
1,note_on,73,85,0
1,note_on,67,73,0
1,note_on,67,0,220
1,note_on,65,0,0
1,note_on,61,0,0
1,note_on,73,0,0
1,note_on,61,65,260
1,note_on,65,65,0
1,note_on,67,65,0
1,note_on,73,77,0
1,note_on,73,0,220
1,note_on,61,0,0
1,note_on,65,0,0
1,note_on,67,0,0
1,note_on,60,69,260
1,note_on,72,83,0
1,note_on,68,69,0
1,note_on,65,69,0
1,note_on,65,0,220
1,note_on,60,0,0
1,note_on,72,0,0
1,note_on,68,0,0
1,note_on,60,70,260
1,note_on,64,70,0
1,note_on,72,82,0
1,note_on,67,70,0
1,note_on,67,0,220
1,note_on,60,0,0
1,note_on,64,0,0
1,note_on,72,0,0
1,note_on,64,59,260
1,note_on,67,59,0
1,note_on,60,59,0
1,note_on,72,71,0
1,note_on,72,0,220
1,note_on,64,0,0
1,note_on,67,0,0
1,note_on,60,0,0
1,note_on,65,76,20
1,note_on,68,76,0
1,note_on,60,76,0
1,note_on,72,92,0
1,note_on,72,0,240
1,note_on,65,0,0
1,note_on,68,0,0
1,note_on,60,0,0
1,note_on,53,59,0
1,note_on,48,59,0
1,note_on,56,66,0
1,note_on,60,79,0
1,note_on,60,0,220
1,note_on,53,0,0
1,note_on,48,0,0
1,note_on,56,0,0
1,note_on,48,59,20
1,note_on,60,79,0
1,note_on,56,66,0
1,note_on,53,59,0
1,note_on,53,0,220
1,note_on,48,0,0
1,note_on,60,0,0
1,note_on,56,0,0
1,note_on,48,62,20
1,note_on,53,62,0
1,note_on,60,84,0
1,note_on,56,69,0
1,note_on,56,0,720
1,note_on,48,0,0
1,note_on,53,0,0
1,note_on,60,0,0
1,note_on,48,59,240
1,note_on,55,66,0
1,note_on,60,79,0
1,note_on,52,66,0
1,note_on,52,0,220
1,note_on,48,0,0
1,note_on,55,0,0
1,note_on,60,0,0
1,note_on,55,66,20
1,note_on,52,66,0
1,note_on,48,59,0
1,note_on,60,79,0
1,note_on,60,0,220
1,note_on,55,0,0
1,note_on,52,0,0
1,note_on,48,0,0
1,note_on,55,62,20
1,note_on,58,69,0
1,note_on,60,84,0
1,note_on,48,62,0
1,note_on,48,0,720
1,note_on,55,0,0
1,note_on,58,0,0
1,note_on,60,0,0
1,note_on,48,59,240
1,note_on,53,59,0
1,note_on,56,66,0
1,note_on,60,79,0
1,note_on,60,0,220
1,note_on,48,0,0
1,note_on,53,0,0
1,note_on,56,0,0
1,note_on,48,59,20
1,note_on,56,66,0
1,note_on,60,79,0
1,note_on,53,59,0
1,note_on,53,0,220
1,note_on,48,0,0
1,note_on,56,0,0
1,note_on,60,0,0
1,note_on,53,62,20
1,note_on,48,62,0
1,note_on,56,69,0
1,note_on,60,84,0
1,note_on,60,0,720
1,note_on,53,0,0
1,note_on,48,0,0
1,note_on,56,0,0
1,note_on,52,66,240
1,note_on,55,66,0
1,note_on,48,59,0
1,note_on,60,79,0
1,note_on,60,0,220
1,note_on,52,0,0
1,note_on,55,0,0
1,note_on,48,0,0
1,note_on,55,66,20
1,note_on,60,79,0
1,note_on,52,66,0
1,note_on,48,59,0
1,note_on,48,0,220
1,note_on,55,0,0
1,note_on,60,0,0
1,note_on,52,0,0
1,note_on,58,69,20
1,note_on,48,62,0
1,note_on,55,62,0
1,note_on,60,84,0
1,note_on,60,0,720
1,note_on,58,0,0
1,note_on,48,0,0
1,note_on,55,0,0
1,note_on,53,63,240
1,note_on,56,63,0
1,note_on,60,81,0
1,note_on,48,63,0
1,note_on,48,0,220
1,note_on,53,0,0
1,note_on,56,0,0
1,note_on,60,0,0
1,note_on,49,69,260
1,note_on,61,89,0
1,note_on,55,69,0
1,note_on,53,69,0
1,note_on,53,0,220
1,note_on,49,0,0
1,note_on,61,0,0
1,note_on,55,0,0
1,note_on,49,63,260
1,note_on,53,63,0
1,note_on,55,63,0
1,note_on,61,81,0
1,note_on,61,0,220
1,note_on,49,0,0
1,note_on,53,0,0
1,note_on,55,0,0
1,note_on,56,66,260
1,note_on,60,87,0
1,note_on,48,66,0
1,note_on,53,66,0
1,note_on,53,0,220
1,note_on,56,0,0
1,note_on,60,0,0
1,note_on,48,0,0
1,note_on,55,66,260
1,note_on,52,66,0
1,note_on,60,87,0
1,note_on,48,66,0
1,note_on,48,0,220
1,note_on,55,0,0
1,note_on,52,0,0
1,note_on,60,0,0
1,note_on,52,63,260
1,note_on,55,63,0
1,note_on,48,63,0
1,note_on,60,81,0
1,note_on,60,0,220
1,note_on,52,0,0
1,note_on,55,0,0
1,note_on,48,0,0
1,note_on,68,63,260
1,note_on,72,81,0
1,note_on,65,63,0
1,note_on,60,63,0
1,note_on,60,0,220
1,note_on,68,0,0
1,note_on,72,0,0
1,note_on,65,0,0
1,note_on,65,69,260
1,note_on,61,69,0
1,note_on,73,89,0
1,note_on,67,69,0
1,note_on,67,0,220
1,note_on,65,0,0
1,note_on,61,0,0
1,note_on,73,0,0
1,note_on,65,63,260
1,note_on,61,63,0
1,note_on,67,63,0
1,note_on,73,81,0
1,note_on,73,0,220
1,note_on,65,0,0
1,note_on,61,0,0
1,note_on,67,0,0
1,note_on,72,87,260
1,note_on,65,66,0
1,note_on,60,66,0
1,note_on,68,66,0
1,note_on,68,0,220
1,note_on,72,0,0
1,note_on,65,0,0
1,note_on,60,0,0
1,note_on,60,66,260
1,note_on,64,66,0
1,note_on,72,87,0
1,note_on,67,66,0
1,note_on,67,0,220
1,note_on,60,0,0
1,note_on,64,0,0
1,note_on,72,0,0
1,note_on,64,63,260
1,note_on,67,63,0
1,note_on,60,63,0
1,note_on,72,81,0
1,note_on,72,0,220
1,note_on,64,0,0
1,note_on,67,0,0
1,note_on,60,0,0
1,note_on,80,72,260
1,note_on,84,93,0
1,note_on,77,72,0
1,note_on,72,72,0
1,note_on,72,0,220
1,note_on,80,0,0
1,note_on,84,0,0
1,note_on,77,0,0
1,note_on,79,79,260
1,note_on,73,79,0
1,note_on,77,79,0
1,note_on,85,101,0
1,note_on,85,0,220
1,note_on,79,0,0
1,note_on,73,0,0
1,note_on,77,0,0
1,note_on,85,93,260
1,note_on,73,72,0
1,note_on,77,72,0
1,note_on,79,72,0
1,note_on,79,0,220
1,note_on,85,0,0
1,note_on,73,0,0
1,note_on,77,0,0
1,note_on,84,99,260
1,note_on,80,76,0
1,note_on,77,76,0
1,note_on,72,76,0
1,note_on,72,0,220
1,note_on,84,0,0
1,note_on,80,0,0
1,note_on,77,0,0
1,note_on,84,99,260
1,note_on,72,75,0
1,note_on,76,75,0
1,note_on,79,75,0
1,note_on,79,0,220
1,note_on,84,0,0
1,note_on,72,0,0
1,note_on,76,0,0
1,note_on,84,93,260
1,note_on,76,72,0
1,note_on,72,72,0
1,note_on,79,72,0
1,note_on,79,0,220
1,note_on,84,0,0
1,note_on,76,0,0
1,note_on,72,0,0
1,note_on,60,64,20
1,note_on,60,0,120
1,note_on,56,55,0
1,note_on,56,0,120
1,note_on,60,59,0
1,note_on,60,0,120
1,note_on,56,50,0
1,note_on,56,0,120
1,note_on,60,55,0
1,note_on,60,0,120
1,note_on,56,48,0
1,note_on,56,0,120
1,note_on,60,43,0
1,note_on,60,0,120
1,note_on,56,37,0
1,note_on,56,0,120
1,note_on,60,43,0
1,note_on,60,0,120
1,note_on,56,37,0
1,note_on,56,0,120
1,note_on,60,43,0
1,note_on,60,0,120
1,note_on,56,36,0
1,note_on,56,0,120
1,note_on,60,43,0
1,note_on,60,0,120
1,note_on,56,36,0
1,note_on,56,0,120
1,note_on,60,42,0
1,note_on,60,0,120
1,note_on,56,36,0
1,note_on,56,0,120
1,note_on,60,42,0
1,note_on,60,0,120
1,note_on,56,35,0
1,note_on,56,0,120
1,note_on,60,42,0
1,note_on,60,0,120
1,note_on,56,35,0
1,note_on,56,0,120
1,note_on,60,41,0
1,note_on,60,0,120
1,note_on,56,35,0
1,note_on,56,0,120
1,note_on,60,41,0
1,note_on,60,0,120
1,note_on,56,35,0
1,note_on,56,0,120
1,note_on,60,41,0
1,note_on,60,0,120
1,note_on,56,35,0
1,note_on,56,0,120
1,note_on,60,41,0
1,note_on,60,0,120
1,note_on,56,34,0
1,note_on,56,0,120
1,note_on,60,40,0
1,note_on,60,0,120
1,note_on,56,34,0
1,note_on,56,0,120
1,note_on,60,40,0
1,note_on,60,0,120
1,note_on,56,34,0
1,note_on,56,0,120
1,note_on,60,40,0
1,note_on,60,0,120
1,note_on,56,33,0
1,note_on,56,0,120
1,note_on,60,40,0
1,note_on,60,0,120
1,note_on,56,33,0
1,note_on,56,0,120
1,note_on,60,40,0
1,note_on,60,0,120
1,note_on,56,33,0
1,note_on,56,0,120
1,note_on,60,39,0
1,note_on,60,0,120
1,note_on,56,33,0
1,note_on,56,0,120
1,note_on,60,39,0
1,note_on,60,0,120
1,note_on,56,33,0
1,note_on,56,0,120
1,note_on,60,39,0
1,note_on,60,0,120
1,note_on,56,32,0
1,note_on,56,0,120
1,note_on,60,38,0
1,note_on,60,0,120
1,note_on,56,32,0
1,note_on,56,0,120
1,note_on,60,38,0
1,note_on,60,0,120
1,note_on,56,32,0
1,note_on,56,0,120
1,note_on,60,38,0
1,note_on,60,0,120
1,note_on,56,32,0
1,note_on,56,0,120
1,note_on,60,37,0
1,note_on,60,0,120
1,note_on,56,31,0
1,note_on,56,0,120
1,note_on,60,37,0
1,note_on,60,0,120
1,note_on,56,31,0
1,note_on,56,0,120
1,note_on,72,37,0
1,note_on,72,0,120
1,note_on,68,31,0
1,note_on,68,0,120
1,note_on,72,37,0
1,note_on,72,0,120
1,note_on,68,31,0
1,note_on,68,0,120
1,note_on,72,36,0
1,note_on,72,0,120
1,note_on,68,31,0
1,note_on,68,0,120
1,note_on,72,36,0
1,note_on,72,0,120
1,note_on,68,30,0
1,note_on,68,0,120
1,note_on,72,36,0
1,note_on,72,0,120
1,note_on,68,30,0
1,note_on,68,0,120
1,note_on,72,35,0
1,note_on,72,0,120
1,note_on,68,30,0
1,note_on,68,0,120
1,note_on,72,35,0
1,note_on,72,0,120
1,note_on,68,30,0
1,note_on,68,0,120
1,note_on,72,35,0
1,note_on,72,0,120
1,note_on,68,30,0
1,note_on,68,0,120
1,note_on,72,34,0
1,note_on,72,0,120
1,note_on,68,29,0
1,note_on,68,0,120
1,note_on,72,34,0
1,note_on,72,0,120
1,note_on,68,29,0
1,note_on,68,0,120
1,note_on,72,34,0
1,note_on,72,0,120
1,note_on,68,28,0
1,note_on,68,0,120
1,note_on,72,33,0
1,note_on,72,0,120
1,note_on,68,27,0
1,note_on,68,0,120
1,note_on,72,33,0
1,note_on,72,0,120
1,note_on,68,27,0
1,note_on,68,0,120
1,note_on,72,32,0
1,note_on,72,0,120
1,note_on,68,27,0
1,note_on,68,0,120
1,note_on,72,31,0
1,note_on,72,0,120
1,note_on,68,26,0
1,note_on,68,0,120
1,note_on,72,31,0
1,note_on,72,0,120
1,note_on,68,26,0
1,note_on,68,0,120
1,note_on,72,31,0
1,note_on,72,0,120
1,note_on,68,25,0
1,note_on,68,0,120
1,note_on,72,30,0
1,note_on,72,0,120
1,note_on,68,25,0
1,note_on,68,0,120
1,note_on,72,29,0
1,note_on,72,0,120
1,note_on,68,25,0
1,note_on,68,0,120
1,note_on,72,29,0
1,note_on,72,0,120
1,note_on,68,24,0
1,note_on,68,0,120
1,note_on,72,29,0
1,note_on,72,0,120
1,note_on,68,24,0
1,note_on,68,0,120
1,note_on,72,28,0
1,note_on,72,0,120
1,note_on,68,23,0
1,note_on,68,0,120
1,note_on,72,27,0
1,note_on,72,0,120
1,note_on,68,23,0
1,note_on,68,0,120
1,note_on,72,26,0
1,note_on,72,0,120
1,note_on,68,22,0
1,note_on,68,0,120
1,note_on,72,26,0
1,note_on,72,0,120
1,note_on,68,22,0
1,note_on,68,0,120
1,note_on,72,25,0
1,note_on,72,0,120
1,note_on,68,21,0
1,note_on,68,0,120
1,note_on,72,24,0
1,note_on,72,0,120
1,note_on,68,20,0
1,note_on,68,0,120
1,note_on,72,23,0
1,note_on,72,0,120
1,note_on,68,20,0
1,note_on,68,0,120
1,note_on,72,23,0
1,note_on,72,0,120
1,note_on,68,19,0
1,note_on,68,0,120
1,note_on,72,22,0
1,note_on,72,0,120
1,note_on,68,18,0
1,note_on,68,0,120
1,note_on,72,21,0
1,note_on,72,0,120
1,note_on,68,18,0
1,note_on,68,0,120
1,note_on,72,21,0
1,note_on,72,0,120
1,note_on,68,17,0
1,note_on,68,0,120
1,note_on,72,20,0
1,note_on,72,0,120
1,note_on,68,17,0
1,note_on,68,0,120
1,note_on,72,18,0
1,note_on,68,15,0
1,note_on,68,0,2880
1,note_on,72,0,0
2,note_on,36,27,2160
2,note_on,36,0,600
2,note_on,32,25,0
2,note_on,32,0,120
2,note_on,29,22,0
2,note_on,29,0,2160
2,note_on,32,27,0
2,note_on,32,0,600
2,note_on,36,24,0
2,note_on,36,0,120
2,note_on,41,27,0
2,note_on,41,0,720
2,note_on,44,27,0
2,note_on,44,0,600
2,note_on,48,24,0
2,note_on,48,0,120
2,note_on,53,27,0
2,note_on,53,0,710
2,note_on,56,26,10
2,note_on,56,0,720
2,note_on,55,26,0
2,note_on,60,26,0
2,note_on,52,26,0
2,note_on,52,0,1440
2,note_on,60,0,0
2,note_on,55,0,0
2,note_on,53,26,0
2,note_on,59,26,0
2,note_on,56,26,0
2,note_on,56,0,1440
2,note_on,59,0,0
2,note_on,53,0,0
2,note_on,55,22,0
2,note_on,52,19,0
2,note_on,60,26,0
2,note_on,60,0,480
2,note_on,52,0,0
2,note_on,55,0,0
2,note_on,37,27,1680
2,note_on,37,0,600
2,note_on,34,25,0
2,note_on,34,0,120
2,note_on,30,22,0
2,note_on,30,0,2160
2,note_on,34,27,0
2,note_on,34,0,600
2,note_on,37,24,0
2,note_on,37,0,120
2,note_on,42,27,0
2,note_on,42,0,720
2,note_on,46,27,0
2,note_on,46,0,600
2,note_on,49,24,0
2,note_on,49,0,120
2,note_on,54,29,0
2,note_on,54,0,720
2,note_on,58,26,0
2,note_on,58,0,720
2,note_on,53,26,0
2,note_on,61,26,0
2,note_on,56,26,0
2,note_on,56,0,1440
2,note_on,61,0,0
2,note_on,53,0,0
2,note_on,57,26,0
2,note_on,60,26,0
2,note_on,54,26,0
2,note_on,54,0,1440
2,note_on,60,0,0
2,note_on,57,0,0
2,note_on,53,19,0
2,note_on,56,22,0
2,note_on,61,26,0
2,note_on,61,0,480
2,note_on,56,0,0
2,note_on,53,0,0
2,note_on,67,26,2400
2,note_on,64,26,0
2,note_on,64,0,1440
2,note_on,67,0,0
2,note_on,68,26,0
2,note_on,71,26,0
2,note_on,65,26,0
2,note_on,65,0,1440
2,note_on,71,0,0
2,note_on,68,0,0
2,note_on,64,22,0
2,note_on,67,26,0
2,note_on,67,0,480
2,note_on,64,0,0
2,note_on,37,27,240
2,note_on,37,0,120
2,note_on,37,26,120
2,note_on,37,0,120
2,note_on,37,26,120
2,note_on,37,0,120
2,note_on,36,26,120
2,note_on,36,0,240
2,note_on,67,26,1200
2,note_on,73,26,0
2,note_on,70,26,0
2,note_on,70,0,1440
2,note_on,73,0,0
2,note_on,67,0,0
2,note_on,70,26,0
2,note_on,73,26,0
2,note_on,68,26,0
2,note_on,68,0,1440
2,note_on,73,0,0
2,note_on,70,0,0
2,note_on,67,22,0
2,note_on,70,22,0
2,note_on,73,26,0
2,note_on,73,0,480
2,note_on,70,0,0
2,note_on,67,0,0
2,note_on,37,27,240
2,note_on,37,0,120
2,note_on,37,26,120
2,note_on,37,0,120
2,note_on,37,26,120
2,note_on,37,0,120
2,note_on,36,26,120
2,note_on,36,0,240
2,note_on,37,27,1920
2,note_on,37,0,240
2,note_on,37,26,0
2,note_on,37,0,240
2,note_on,37,26,0
2,note_on,37,0,240
2,note_on,36,26,0
2,note_on,36,0,480
2,note_on,55,75,3600
2,note_on,55,0,120
2,note_on,58,63,0
2,note_on,58,0,120
2,note_on,52,75,0
2,note_on,52,0,120
2,note_on,55,64,0
2,note_on,55,0,120
2,note_on,46,75,0
2,note_on,46,0,120
2,note_on,52,60,0
2,note_on,52,0,120
2,note_on,31,73,0
2,note_on,31,0,120
2,note_on,34,67,0
2,note_on,34,0,120
2,note_on,40,77,0
2,note_on,40,0,120
2,note_on,43,67,0
2,note_on,43,0,120
2,note_on,46,77,0
2,note_on,46,0,120
2,note_on,49,67,0
2,note_on,49,0,120
2,note_on,52,82,0
2,note_on,52,0,120
2,note_on,55,73,0
2,note_on,55,0,120
2,note_on,58,89,0
2,note_on,58,0,240
2,note_on,41,72,480
2,note_on,29,72,0
2,note_on,56,86,0
2,note_on,61,86,0
2,note_on,49,86,0
2,note_on,49,0,240
2,note_on,56,0,0
2,note_on,41,0,0
2,note_on,29,0,0
2,note_on,61,0,0
2,note_on,40,40,480
2,note_on,52,48,0
2,note_on,48,40,0
2,note_on,60,48,0
2,note_on,55,48,0
2,note_on,55,0,2100
2,note_on,48,0,0
2,note_on,40,0,0
2,note_on,52,0,0
2,note_on,60,0,0
2,note_on,36,27,60
2,note_on,36,0,600
2,note_on,32,25,0
2,note_on,32,0,120
2,note_on,29,81,0
2,note_on,29,0,240
2,note_on,32,61,240
2,note_on,29,61,0
2,note_on,41,81,0
2,note_on,36,69,0
2,note_on,36,0,475
2,note_on,32,0,0
2,note_on,29,0,0
2,note_on,41,0,0
2,note_on,32,57,5
2,note_on,36,64,0
2,note_on,41,76,0
2,note_on,29,57,0
2,note_on,29,0,475
2,note_on,32,0,0
2,note_on,36,0,0
2,note_on,41,0,0
2,note_on,32,55,5
2,note_on,36,63,0
2,note_on,41,73,0
2,note_on,29,55,0
2,note_on,29,0,475
2,note_on,32,0,0
2,note_on,36,0,0
2,note_on,41,0,0
2,note_on,32,61,5
2,note_on,29,61,0
2,note_on,41,81,0
2,note_on,36,69,0
2,note_on,36,0,475
2,note_on,32,0,0
2,note_on,29,0,0
2,note_on,41,0,0
2,note_on,32,55,5
2,note_on,36,63,0
2,note_on,41,73,0
2,note_on,29,55,0
2,note_on,29,0,475
2,note_on,32,0,0
2,note_on,36,0,0
2,note_on,41,0,0
2,note_on,29,61,5
2,note_on,36,69,0
2,note_on,41,81,0
2,note_on,32,61,0
2,note_on,32,0,2160
2,note_on,29,0,0
2,note_on,36,0,0
2,note_on,41,0,0
2,note_on,32,33,0
2,note_on,32,0,600
2,note_on,36,28,0
2,note_on,36,0,120
2,note_on,41,33,0
2,note_on,41,0,720
2,note_on,44,33,0
2,note_on,44,0,600
2,note_on,48,28,0
2,note_on,48,0,120
2,note_on,53,33,0
2,note_on,53,0,715
2,note_on,41,30,5
2,note_on,41,0,720
2,note_on,55,81,0
2,note_on,52,81,0
2,note_on,52,0,240
2,note_on,55,0,0
2,note_on,55,75,0
2,note_on,43,69,240
2,note_on,48,81,0
2,note_on,40,61,0
2,note_on,55,0,235
2,note_on,43,0,240
2,note_on,48,0,0
2,note_on,40,0,0
2,note_on,40,57,5
2,note_on,48,76,0
2,note_on,43,64,0
2,note_on,43,0,475
2,note_on,48,0,0
2,note_on,40,0,0
2,note_on,43,63,5
2,note_on,40,55,0
2,note_on,48,73,0
2,note_on,48,0,475
2,note_on,40,0,0
2,note_on,43,0,0
2,note_on,40,61,5
2,note_on,48,81,0
2,note_on,43,69,0
2,note_on,43,0,475
2,note_on,48,0,0
2,note_on,40,0,0
2,note_on,43,63,5
2,note_on,48,73,0
2,note_on,40,55,0
2,note_on,40,0,475
2,note_on,48,0,0
2,note_on,43,0,0
2,note_on,67,30,5
2,note_on,64,30,0
2,note_on,64,0,1440
2,note_on,67,0,0
2,note_on,68,30,0
2,note_on,71,30,0
2,note_on,65,30,0
2,note_on,65,0,1440
2,note_on,71,0,0
2,note_on,68,0,0
2,note_on,55,81,0
2,note_on,52,81,0
2,note_on,52,0,238
2,note_on,55,0,0
2,note_on,55,75,2
2,note_on,43,69,240
2,note_on,48,81,0
2,note_on,40,61,0
2,note_on,55,0,235
2,note_on,43,0,240
2,note_on,48,0,0
2,note_on,40,0,0
2,note_on,40,57,5
2,note_on,48,76,0
2,note_on,43,64,0
2,note_on,43,0,475
2,note_on,48,0,0
2,note_on,40,0,0
2,note_on,43,63,5
2,note_on,40,55,0
2,note_on,48,73,0
2,note_on,48,0,475
2,note_on,40,0,0
2,note_on,43,0,0
2,note_on,40,61,5
2,note_on,48,81,0
2,note_on,43,69,0
2,note_on,43,0,475
2,note_on,48,0,0
2,note_on,40,0,0
2,note_on,43,63,5
2,note_on,48,73,0
2,note_on,40,55,0
2,note_on,40,0,475
2,note_on,48,0,0
2,note_on,43,0,0
2,note_on,67,36,5
2,note_on,64,36,0
2,note_on,64,0,1440
2,note_on,67,0,0
2,note_on,67,36,0
2,note_on,63,36,0
2,note_on,63,0,1680
2,note_on,67,0,0
2,note_on,75,36,0
2,note_on,75,0,220
2,note_on,75,36,20
2,note_on,75,0,220
2,note_on,75,39,20
2,note_on,75,0,220
2,note_on,75,37,20
2,note_on,75,0,220
2,note_on,75,36,20
2,note_on,75,0,220
2,note_on,75,39,20
2,note_on,75,0,220
2,note_on,75,35,20
2,note_on,75,0,220
2,note_on,75,35,20
2,note_on,75,0,220
2,note_on,75,39,20
2,note_on,75,0,220
2,note_on,75,36,20
2,note_on,75,0,220
2,note_on,75,36,20
2,note_on,75,0,220
2,note_on,75,38,260
2,note_on,75,0,220
2,note_on,75,38,20
2,note_on,75,0,220
2,note_on,71,39,20
2,note_on,68,39,0
2,note_on,68,0,240
2,note_on,71,0,0
2,note_on,75,37,0
2,note_on,75,0,220
2,note_on,75,37,20
2,note_on,75,0,220
2,note_on,75,41,20
2,note_on,75,0,220
2,note_on,75,37,20
2,note_on,75,0,220
2,note_on,75,38,20
2,note_on,75,0,220
2,note_on,75,46,20
2,note_on,75,0,220
2,note_on,75,40,20
2,note_on,75,0,220
2,note_on,75,40,20
2,note_on,75,0,220
2,note_on,75,38,260
2,note_on,75,0,220
2,note_on,75,38,20
2,note_on,75,0,220
2,note_on,68,40,20
2,note_on,71,40,0
2,note_on,71,0,240
2,note_on,68,0,0
2,note_on,75,37,0
2,note_on,75,0,220
2,note_on,75,37,20
2,note_on,75,0,220
2,note_on,68,37,20
2,note_on,71,37,0
2,note_on,71,0,240
2,note_on,68,0,0
2,note_on,75,37,0
2,note_on,75,0,220
2,note_on,75,37,20
2,note_on,75,0,220
2,note_on,68,37,20
2,note_on,71,37,0
2,note_on,71,0,240
2,note_on,68,0,0
2,note_on,75,37,0
2,note_on,75,0,220
2,note_on,75,37,20
2,note_on,75,0,220
2,note_on,67,39,20
2,note_on,70,39,0
2,note_on,70,0,240
2,note_on,67,0,0
2,note_on,63,37,0
2,note_on,63,0,220
2,note_on,63,37,20
2,note_on,63,0,220
2,note_on,63,38,20
2,note_on,63,0,220
2,note_on,63,37,20
2,note_on,63,0,220
2,note_on,63,37,20
2,note_on,63,0,220
2,note_on,63,37,20
2,note_on,63,0,220
2,note_on,63,37,20
2,note_on,63,0,220
2,note_on,63,37,20
2,note_on,63,0,220
2,note_on,63,38,20
2,note_on,63,0,220
2,note_on,63,37,20
2,note_on,63,0,220
2,note_on,63,37,20
2,note_on,63,0,220
2,note_on,63,39,20
2,note_on,63,0,220
2,note_on,63,37,20
2,note_on,63,0,220
2,note_on,63,37,20
2,note_on,63,0,220
2,note_on,63,38,20
2,note_on,63,0,220
2,note_on,63,37,20
2,note_on,63,0,220
2,note_on,63,37,20
2,note_on,63,0,220
2,note_on,63,38,20
2,note_on,63,0,220
2,note_on,63,39,20
2,note_on,63,0,220
2,note_on,63,37,20
2,note_on,63,0,220
2,note_on,58,44,20
2,note_on,61,44,0
2,note_on,61,0,240
2,note_on,58,0,0
2,note_on,63,37,0
2,note_on,63,0,220
2,note_on,63,37,20
2,note_on,63,0,220
2,note_on,63,39,20
2,note_on,63,0,220
2,note_on,63,37,20
2,note_on,63,0,220
2,note_on,63,37,20
2,note_on,63,0,220
2,note_on,63,37,20
2,note_on,63,0,220
2,note_on,63,37,20
2,note_on,63,0,220
2,note_on,63,37,20
2,note_on,63,0,220
2,note_on,63,38,20
2,note_on,63,0,220
2,note_on,63,37,20
2,note_on,63,0,220
2,note_on,63,37,20
2,note_on,63,0,220
2,note_on,59,48,20
2,note_on,56,44,0
2,note_on,56,0,240
2,note_on,59,0,0
2,note_on,63,37,0
2,note_on,63,0,220
2,note_on,63,37,20
2,note_on,63,0,220
2,note_on,63,38,260
2,note_on,63,0,220
2,note_on,63,38,20
2,note_on,63,0,220
2,note_on,56,40,20
2,note_on,59,40,0
2,note_on,59,0,240
2,note_on,56,0,0
2,note_on,63,37,0
2,note_on,63,0,220
2,note_on,63,37,20
2,note_on,63,0,220
2,note_on,59,37,20
2,note_on,56,37,0
2,note_on,56,0,240
2,note_on,59,0,0
2,note_on,63,37,0
2,note_on,63,0,220
2,note_on,63,37,20
2,note_on,63,0,220
2,note_on,59,36,20
2,note_on,56,36,0
2,note_on,56,0,240
2,note_on,59,0,0
2,note_on,63,37,0
2,note_on,63,0,220
2,note_on,63,37,20
2,note_on,63,0,220
2,note_on,63,38,260
2,note_on,63,0,220
2,note_on,63,38,20
2,note_on,63,0,220
2,note_on,58,40,20
2,note_on,55,40,0
2,note_on,55,0,240
2,note_on,58,0,0
2,note_on,63,37,0
2,note_on,63,0,220
2,note_on,63,37,20
2,note_on,63,0,220
2,note_on,63,37,260
2,note_on,63,0,220
2,note_on,63,37,20
2,note_on,63,0,220
2,note_on,54,36,20
2,note_on,57,36,0
2,note_on,57,0,240
2,note_on,54,0,0
2,note_on,63,37,0
2,note_on,63,0,220
2,note_on,63,37,20
2,note_on,63,0,220
2,note_on,63,37,260
2,note_on,63,0,220
2,note_on,63,36,20
2,note_on,63,0,220
2,note_on,56,38,20
2,note_on,53,38,0
2,note_on,53,0,240
2,note_on,56,0,0
2,note_on,63,34,0
2,note_on,63,0,220
2,note_on,63,34,20
2,note_on,63,0,220
2,note_on,63,32,260
2,note_on,63,0,220
2,note_on,63,32,20
2,note_on,63,0,220
2,note_on,52,30,20
2,note_on,55,30,0
2,note_on,55,0,240
2,note_on,52,0,0
2,note_on,63,31,0
2,note_on,63,0,220
2,note_on,63,30,20
2,note_on,63,0,220
2,note_on,51,25,260
2,note_on,51,0,220
2,note_on,51,26,20
2,note_on,51,0,220
2,note_on,51,28,20
2,note_on,51,0,220
2,note_on,51,26,20
2,note_on,51,0,220
2,note_on,51,26,20
2,note_on,51,0,220
2,note_on,51,28,20
2,note_on,51,0,220
2,note_on,51,26,20
2,note_on,51,0,220
2,note_on,51,26,20
2,note_on,51,0,220
2,note_on,51,28,20
2,note_on,51,0,220
2,note_on,51,26,20
2,note_on,51,0,220
2,note_on,51,27,20
2,note_on,51,0,220
2,note_on,58,41,20
2,note_on,61,41,0
2,note_on,55,41,0
2,note_on,39,25,240
2,note_on,39,0,220
2,note_on,39,26,20
2,note_on,39,0,220
2,note_on,55,0,20
2,note_on,61,0,0
2,note_on,58,0,0
2,note_on,39,28,0
2,note_on,39,0,220
2,note_on,39,26,20
2,note_on,39,0,220
2,note_on,39,26,20
2,note_on,39,0,220
2,note_on,39,28,20
2,note_on,39,0,220
2,note_on,39,26,20
2,note_on,39,0,220
2,note_on,39,26,20
2,note_on,39,0,220
2,note_on,39,28,20
2,note_on,39,0,220
2,note_on,39,26,20
2,note_on,39,0,220
2,note_on,39,27,20
2,note_on,39,0,220
2,note_on,32,28,20
2,note_on,32,0,240
2,note_on,44,25,0
2,note_on,36,20,0
2,note_on,39,20,0
2,note_on,39,0,240
2,note_on,36,0,0
2,note_on,44,0,0
2,note_on,32,26,0
2,note_on,32,0,240
2,note_on,44,28,0
2,note_on,36,22,0
2,note_on,39,22,0
2,note_on,39,0,240
2,note_on,36,0,0
2,note_on,44,0,0
2,note_on,32,26,0
2,note_on,32,0,240
2,note_on,44,26,0
2,note_on,36,20,0
2,note_on,39,20,0
2,note_on,39,0,240
2,note_on,36,0,0
2,note_on,44,0,0
2,note_on,32,28,0
2,note_on,32,0,240
2,note_on,44,26,0
2,note_on,39,20,0
2,note_on,36,20,0
2,note_on,36,0,240
2,note_on,39,0,0
2,note_on,44,0,0
2,note_on,32,26,0
2,note_on,32,0,240
2,note_on,36,22,0
2,note_on,48,40,0
2,note_on,44,28,0
2,note_on,39,22,0
2,note_on,39,0,240
2,note_on,44,0,0
2,note_on,36,0,0
2,note_on,32,26,0
2,note_on,32,0,240
2,note_on,36,21,0
2,note_on,39,21,0
2,note_on,44,27,0
2,note_on,48,0,120
2,note_on,51,37,0
2,note_on,51,0,120
2,note_on,44,0,0
2,note_on,39,0,0
2,note_on,36,0,0
2,note_on,32,28,0
2,note_on,32,0,240
2,note_on,44,25,0
2,note_on,36,20,0
2,note_on,39,20,0
2,note_on,39,0,240
2,note_on,36,0,0
2,note_on,44,0,0
2,note_on,32,26,0
2,note_on,32,0,240
2,note_on,44,28,0
2,note_on,36,22,0
2,note_on,39,22,0
2,note_on,39,0,240
2,note_on,36,0,0
2,note_on,44,0,0
2,note_on,32,26,0
2,note_on,32,0,240
2,note_on,36,20,0
2,note_on,39,20,0
2,note_on,44,26,0
2,note_on,44,0,240
2,note_on,39,0,0
2,note_on,36,0,0
2,note_on,34,28,0
2,note_on,34,0,240
2,note_on,46,26,0
2,note_on,39,20,0
2,note_on,37,20,0
2,note_on,37,0,240
2,note_on,39,0,0
2,note_on,46,0,0
2,note_on,34,26,0
2,note_on,34,0,240
2,note_on,39,22,0
2,note_on,46,28,0
2,note_on,37,22,0
2,note_on,37,0,240
2,note_on,46,0,0
2,note_on,39,0,0
2,note_on,34,26,0
2,note_on,34,0,240
2,note_on,37,21,0
2,note_on,46,27,0
2,note_on,39,21,0
2,note_on,39,0,240
2,note_on,46,0,0
2,note_on,37,0,0
2,note_on,36,28,0
2,note_on,36,0,240
2,note_on,39,20,0
2,note_on,44,20,0
2,note_on,48,25,0
2,note_on,48,0,240
2,note_on,44,0,0
2,note_on,39,0,0
2,note_on,36,26,0
2,note_on,36,0,240
2,note_on,39,22,0
2,note_on,51,40,0
2,note_on,44,22,0
2,note_on,48,28,0
2,note_on,48,0,240
2,note_on,44,0,0
2,note_on,39,0,0
2,note_on,36,26,0
2,note_on,36,0,240
2,note_on,44,20,0
2,note_on,48,26,0
2,note_on,39,20,0
2,note_on,39,0,240
2,note_on,48,0,0
2,note_on,44,0,0
2,note_on,36,28,0
2,note_on,36,0,240
2,note_on,39,20,0
2,note_on,44,20,0
2,note_on,48,26,0
2,note_on,48,0,240
2,note_on,44,0,0
2,note_on,39,0,0
2,note_on,36,26,0
2,note_on,36,0,240
2,note_on,51,0,0
2,note_on,53,40,0
2,note_on,44,28,0
2,note_on,44,0,240
2,note_on,37,26,0
2,note_on,37,0,240
2,note_on,44,27,0
2,note_on,53,0,120
2,note_on,49,37,0
2,note_on,49,0,120
2,note_on,44,0,0
2,note_on,48,40,0
2,note_on,39,28,0
2,note_on,39,0,240
2,note_on,44,25,0
2,note_on,44,0,240
2,note_on,39,26,0
2,note_on,39,0,240
2,note_on,48,0,0
2,note_on,44,28,0
2,note_on,51,40,0
2,note_on,44,0,240
2,note_on,39,25,0
2,note_on,39,0,240
2,note_on,44,25,0
2,note_on,51,0,120
2,note_on,48,36,0
2,note_on,48,0,120
2,note_on,44,0,0
2,note_on,46,40,0
2,note_on,39,28,0
2,note_on,39,0,240
2,note_on,43,25,0
2,note_on,43,0,240
2,note_on,39,25,0
2,note_on,39,0,240
2,note_on,46,0,0
2,note_on,51,40,0
2,note_on,43,28,0
2,note_on,43,0,240
2,note_on,39,25,0
2,note_on,39,0,240
2,note_on,43,25,0
2,note_on,51,0,120
2,note_on,49,36,0
2,note_on,49,0,120
2,note_on,43,0,0
2,note_on,44,28,0
2,note_on,44,0,240
2,note_on,56,25,0
2,note_on,48,20,0
2,note_on,51,20,0
2,note_on,51,0,240
2,note_on,48,0,0
2,note_on,56,0,0
2,note_on,44,27,0
2,note_on,44,0,240
2,note_on,56,29,0
2,note_on,48,23,0
2,note_on,51,23,0
2,note_on,51,0,240
2,note_on,48,0,0
2,note_on,56,0,0
2,note_on,44,28,0
2,note_on,44,0,240
2,note_on,56,29,0
2,note_on,48,22,0
2,note_on,51,22,0
2,note_on,51,0,240
2,note_on,48,0,0
2,note_on,56,0,0
2,note_on,44,32,0
2,note_on,44,0,240
2,note_on,56,31,0
2,note_on,51,24,0
2,note_on,48,24,0
2,note_on,48,0,240
2,note_on,51,0,0
2,note_on,56,0,0
2,note_on,44,31,0
2,note_on,44,0,240
2,note_on,48,27,0
2,note_on,51,27,0
2,note_on,56,35,0
2,note_on,60,51,0
2,note_on,56,0,240
2,note_on,48,0,0
2,note_on,51,0,0
2,note_on,44,33,0
2,note_on,44,0,240
2,note_on,48,27,0
2,note_on,51,27,0
2,note_on,56,34,0
2,note_on,60,0,120
2,note_on,63,49,0
2,note_on,63,0,120
2,note_on,56,0,0
2,note_on,51,0,0
2,note_on,48,0,0
2,note_on,44,37,0
2,note_on,44,0,240
2,note_on,56,34,0
2,note_on,51,27,0
2,note_on,48,27,0
2,note_on,48,0,240
2,note_on,51,0,0
2,note_on,56,0,0
2,note_on,44,36,0
2,note_on,44,0,240
2,note_on,56,39,0
2,note_on,51,30,0
2,note_on,48,30,0
2,note_on,48,0,240
2,note_on,51,0,0
2,note_on,56,0,0
2,note_on,44,37,0
2,note_on,44,0,240
2,note_on,48,29,0
2,note_on,56,38,0
2,note_on,51,29,0
2,note_on,51,0,240
2,note_on,56,0,0
2,note_on,48,0,0
2,note_on,46,40,0
2,note_on,46,0,240
2,note_on,58,38,0
2,note_on,51,29,0
2,note_on,49,29,0
2,note_on,49,0,240
2,note_on,51,0,0
2,note_on,58,0,0
2,note_on,46,39,0
2,note_on,46,0,240
2,note_on,51,34,0
2,note_on,58,42,0
2,note_on,49,34,0
2,note_on,49,0,240
2,note_on,58,0,0
2,note_on,51,0,0
2,note_on,46,40,0
2,note_on,46,0,240
2,note_on,49,33,0
2,note_on,58,42,0
2,note_on,51,33,0
2,note_on,51,0,240
2,note_on,58,0,0
2,note_on,49,0,0
2,note_on,60,36,0
2,note_on,51,28,0
2,note_on,48,28,0
2,note_on,56,36,0
2,note_on,56,0,2880
2,note_on,60,0,0
2,note_on,51,0,0
2,note_on,48,0,0
2,note_on,56,59,0
2,note_on,49,50,0
2,note_on,52,50,0
2,note_on,56,0,720
2,note_on,57,57,0
2,note_on,57,0,2160
2,note_on,52,0,0
2,note_on,49,0,0
2,note_on,56,36,0
2,note_on,51,28,0
2,note_on,59,36,0
2,note_on,59,0,2880
2,note_on,51,0,0
2,note_on,56,0,0
2,note_on,55,31,0
2,note_on,61,31,0
2,note_on,51,25,0
2,note_on,51,0,2880
2,note_on,61,0,0
2,note_on,55,0,0
2,note_on,59,44,10320
2,note_on,59,0,240
2,note_on,58,42,0
2,note_on,58,0,240
2,note_on,56,42,0
2,note_on,56,0,240
2,note_on,55,41,0
2,note_on,55,0,240
2,note_on,54,39,0
2,note_on,54,0,240
2,note_on,52,42,0
2,note_on,52,0,240
2,note_on,51,41,0
2,note_on,51,0,240
2,note_on,49,41,0
2,note_on,49,0,240
2,note_on,47,40,0
2,note_on,47,0,240
2,note_on,46,39,0
2,note_on,46,0,240
2,note_on,44,39,0
2,note_on,44,0,240
2,note_on,43,42,0
2,note_on,43,0,240
2,note_on,42,41,0
2,note_on,42,0,240
2,note_on,41,41,0
2,note_on,41,0,240
2,note_on,39,41,0
2,note_on,39,0,240
2,note_on,37,41,0
2,note_on,37,0,240
2,note_on,35,41,0
2,note_on,35,0,240
2,note_on,34,42,0
2,note_on,34,0,240
2,note_on,35,42,0
2,note_on,35,0,240
2,note_on,37,42,0
2,note_on,37,0,240
2,note_on,39,42,0
2,note_on,39,0,240
2,note_on,40,41,0
2,note_on,40,0,240
2,note_on,39,39,0
2,note_on,39,0,240
2,note_on,37,42,0
2,note_on,37,0,240
2,note_on,35,40,0
2,note_on,35,0,240
2,note_on,34,40,0
2,note_on,34,0,240
2,note_on,39,45,0
2,note_on,39,0,240
2,note_on,37,42,0
2,note_on,37,0,240
2,note_on,39,40,0
2,note_on,39,0,240
2,note_on,32,64,0
2,note_on,32,0,120
2,note_on,39,52,0
2,note_on,39,0,120
2,note_on,44,52,0
2,note_on,44,0,120
2,note_on,39,52,0
2,note_on,39,0,120
2,note_on,32,58,0
2,note_on,32,0,120
2,note_on,39,51,0
2,note_on,39,0,120
2,note_on,32,68,0
2,note_on,32,0,120
2,note_on,39,52,0
2,note_on,39,0,120
2,note_on,32,64,0
2,note_on,32,0,120
2,note_on,39,52,0
2,note_on,39,0,120
2,note_on,32,62,0
2,note_on,32,0,120
2,note_on,39,52,0
2,note_on,39,0,120
2,note_on,32,64,0
2,note_on,32,0,120
2,note_on,39,52,0
2,note_on,39,0,120
2,note_on,44,52,0
2,note_on,44,0,120
2,note_on,39,52,0
2,note_on,39,0,120
2,note_on,32,58,0
2,note_on,32,0,120
2,note_on,39,51,0
2,note_on,39,0,120
2,note_on,32,68,0
2,note_on,32,0,120
2,note_on,39,52,0
2,note_on,39,0,120
2,note_on,32,64,0
2,note_on,32,0,120
2,note_on,39,52,0
2,note_on,39,0,120
2,note_on,32,62,0
2,note_on,32,0,120
2,note_on,39,52,0
2,note_on,39,0,120
2,note_on,32,64,0
2,note_on,32,0,120
2,note_on,40,52,0
2,note_on,40,0,120
2,note_on,44,52,0
2,note_on,44,0,120
2,note_on,40,52,0
2,note_on,40,0,120
2,note_on,32,58,0
2,note_on,32,0,120
2,note_on,40,51,0
2,note_on,40,0,120
2,note_on,32,68,0
2,note_on,32,0,120
2,note_on,40,52,0
2,note_on,40,0,120
2,note_on,32,64,0
2,note_on,32,0,120
2,note_on,40,52,0
2,note_on,40,0,120
2,note_on,32,62,0
2,note_on,32,0,120
2,note_on,40,52,0
2,note_on,40,0,120
2,note_on,32,64,0
2,note_on,32,0,120
2,note_on,40,52,0
2,note_on,40,0,120
2,note_on,44,52,0
2,note_on,44,0,120
2,note_on,40,52,0
2,note_on,40,0,120
2,note_on,32,58,0
2,note_on,32,0,120
2,note_on,40,51,0
2,note_on,40,0,120
2,note_on,32,68,0
2,note_on,32,0,120
2,note_on,40,52,0
2,note_on,40,0,120
2,note_on,32,64,0
2,note_on,32,0,120
2,note_on,40,52,0
2,note_on,40,0,120
2,note_on,32,62,0
2,note_on,32,0,120
2,note_on,40,52,0
2,note_on,40,0,120
2,note_on,33,90,0
2,note_on,45,106,0
2,note_on,45,0,2160
2,note_on,33,0,0
2,note_on,46,88,0
2,note_on,34,74,0
2,note_on,34,0,240
2,note_on,46,0,0
2,note_on,37,72,0
2,note_on,37,0,240
2,note_on,40,82,0
2,note_on,40,0,240
2,note_on,43,95,0
2,note_on,43,0,240
2,note_on,46,82,0
2,note_on,46,0,240
2,note_on,49,82,0
2,note_on,49,0,240
2,note_on,52,85,0
2,note_on,52,0,230
2,note_on,52,83,10
2,note_on,52,0,230
2,note_on,52,83,10
2,note_on,52,0,230
2,note_on,52,97,10
2,note_on,52,0,720
2,note_on,51,89,0
2,note_on,51,0,720
2,note_on,44,64,0
2,note_on,44,0,120
2,note_on,51,52,0
2,note_on,51,0,120
2,note_on,56,52,0
2,note_on,56,0,120
2,note_on,51,52,0
2,note_on,51,0,120
2,note_on,44,58,0
2,note_on,44,0,120
2,note_on,51,51,0
2,note_on,51,0,120
2,note_on,44,68,0
2,note_on,44,0,120
2,note_on,51,52,0
2,note_on,51,0,120
2,note_on,44,64,0
2,note_on,44,0,120
2,note_on,51,52,0
2,note_on,51,0,120
2,note_on,44,62,0
2,note_on,44,0,120
2,note_on,51,52,0
2,note_on,51,0,120
2,note_on,44,64,0
2,note_on,44,0,120
2,note_on,51,52,0
2,note_on,51,0,120
2,note_on,56,52,0
2,note_on,56,0,120
2,note_on,51,52,0
2,note_on,51,0,120
2,note_on,44,58,0
2,note_on,44,0,120
2,note_on,51,51,0
2,note_on,51,0,120
2,note_on,44,68,0
2,note_on,44,0,120
2,note_on,51,52,0
2,note_on,51,0,120
2,note_on,44,64,0
2,note_on,44,0,120
2,note_on,51,52,0
2,note_on,51,0,120
2,note_on,44,62,0
2,note_on,44,0,120
2,note_on,51,52,0
2,note_on,51,0,120
2,note_on,44,64,0
2,note_on,44,0,120
2,note_on,52,52,0
2,note_on,52,0,120
2,note_on,56,52,0
2,note_on,56,0,120
2,note_on,52,52,0
2,note_on,52,0,120
2,note_on,44,58,0
2,note_on,44,0,120
2,note_on,52,51,0
2,note_on,52,0,120
2,note_on,44,68,0
2,note_on,44,0,120
2,note_on,52,52,0
2,note_on,52,0,120
2,note_on,44,64,0
2,note_on,44,0,120
2,note_on,52,52,0
2,note_on,52,0,120
2,note_on,44,62,0
2,note_on,44,0,120
2,note_on,52,52,0
2,note_on,52,0,120
2,note_on,44,64,0
2,note_on,44,0,120
2,note_on,52,52,0
2,note_on,52,0,120
2,note_on,56,52,0
2,note_on,56,0,120
2,note_on,52,52,0
2,note_on,52,0,120
2,note_on,44,58,0
2,note_on,44,0,120
2,note_on,52,51,0
2,note_on,52,0,120
2,note_on,44,68,0
2,note_on,44,0,120
2,note_on,52,52,0
2,note_on,52,0,120
2,note_on,44,64,0
2,note_on,44,0,120
2,note_on,52,52,0
2,note_on,52,0,120
2,note_on,44,62,0
2,note_on,44,0,120
2,note_on,52,52,0
2,note_on,52,0,120
2,note_on,57,106,0
2,note_on,45,90,0
2,note_on,45,0,2160
2,note_on,57,0,0
2,note_on,46,59,0
2,note_on,58,88,0
2,note_on,58,0,240
2,note_on,46,0,0
2,note_on,61,72,0
2,note_on,49,58,0
2,note_on,49,0,240
2,note_on,61,0,0
2,note_on,64,82,0
2,note_on,52,63,0
2,note_on,52,0,240
2,note_on,64,0,0
2,note_on,67,95,0
2,note_on,55,75,0
2,note_on,55,0,240
2,note_on,67,0,0
2,note_on,70,82,0
2,note_on,58,63,0
2,note_on,58,0,240
2,note_on,70,0,0
2,note_on,73,82,0
2,note_on,61,63,0
2,note_on,61,0,240
2,note_on,73,0,0
2,note_on,64,68,0
2,note_on,76,85,0
2,note_on,76,0,230
2,note_on,64,0,0
2,note_on,76,83,10
2,note_on,64,64,0
2,note_on,64,0,230
2,note_on,76,0,0
2,note_on,76,83,10
2,note_on,64,64,0
2,note_on,64,0,230
2,note_on,76,0,0
2,note_on,64,80,10
2,note_on,76,102,0
2,note_on,76,0,720
2,note_on,64,0,0
2,note_on,75,86,0
2,note_on,63,69,0
2,note_on,63,0,720
2,note_on,75,0,0
2,note_on,68,102,0
2,note_on,68,0,720
2,note_on,67,86,0
2,note_on,67,0,720
2,note_on,76,102,0
2,note_on,76,0,720
2,note_on,75,86,0
2,note_on,75,0,720
2,note_on,74,97,0
2,note_on,77,91,120
2,note_on,80,97,120
2,note_on,80,0,1200
2,note_on,77,0,0
2,note_on,74,0,0
2,note_on,75,85,0
2,note_on,79,77,120
2,note_on,79,0,1320
2,note_on,75,0,0
2,note_on,68,45,0
2,note_on,71,45,0
2,note_on,71,0,720
2,note_on,68,0,0
2,note_on,73,44,0
2,note_on,76,44,0
2,note_on,76,0,720
2,note_on,73,0,0
2,note_on,71,45,0
2,note_on,75,45,0
2,note_on,75,0,720
2,note_on,71,0,0
2,note_on,75,60,0
2,note_on,70,60,0
2,note_on,73,60,0
2,note_on,73,0,720
2,note_on,70,0,0
2,note_on,75,0,0
2,note_on,68,45,0
2,note_on,71,45,0
2,note_on,71,0,720
2,note_on,68,0,0
2,note_on,61,44,0
2,note_on,64,44,0
2,note_on,64,0,720
2,note_on,61,0,0
2,note_on,59,45,0
2,note_on,63,45,0
2,note_on,63,0,720
2,note_on,59,0,0
2,note_on,58,60,0
2,note_on,61,60,0
2,note_on,63,60,0
2,note_on,63,0,720
2,note_on,61,0,0
2,note_on,58,0,0
2,note_on,59,45,0
2,note_on,56,45,0
2,note_on,56,0,720
2,note_on,59,0,0
2,note_on,52,44,0
2,note_on,49,44,0
2,note_on,49,0,720
2,note_on,52,0,0
2,note_on,51,45,0
2,note_on,47,45,0
2,note_on,47,0,720
2,note_on,51,0,0
2,note_on,51,60,0
2,note_on,49,60,0
2,note_on,46,60,0
2,note_on,46,0,720
2,note_on,49,0,0
2,note_on,51,0,0
2,note_on,44,48,0
2,note_on,44,0,1440
2,note_on,39,38,0
2,note_on,39,0,720
2,note_on,35,30,0
2,note_on,35,0,720
2,note_on,32,27,0
2,note_on,32,0,2160
2,note_on,47,27,0
2,note_on,47,0,600
2,note_on,44,25,0
2,note_on,44,0,120
2,note_on,39,22,0
2,note_on,39,0,2160
2,note_on,47,27,0
2,note_on,47,0,600
2,note_on,44,25,0
2,note_on,44,0,120
2,note_on,40,22,0
2,note_on,40,0,2160
2,note_on,44,27,0
2,note_on,44,0,600
2,note_on,47,24,0
2,note_on,47,0,120
2,note_on,52,27,0
2,note_on,52,0,720
2,note_on,56,28,0
2,note_on,56,0,600
2,note_on,59,25,0
2,note_on,59,0,120
2,note_on,64,28,0
2,note_on,64,0,715
2,note_on,52,27,5
2,note_on,52,0,720
2,note_on,54,26,0
2,note_on,51,26,0
2,note_on,59,26,0
2,note_on,59,0,1440
2,note_on,51,0,0
2,note_on,54,0,0
2,note_on,52,26,0
2,note_on,58,26,0
2,note_on,55,26,0
2,note_on,55,0,1440
2,note_on,58,0,0
2,note_on,52,0,0
2,note_on,54,22,0
2,note_on,51,19,0
2,note_on,59,26,0
2,note_on,59,0,480
2,note_on,51,0,0
2,note_on,54,0,0
2,note_on,73,26,2400
2,note_on,69,26,0
2,note_on,69,0,1440
2,note_on,73,0,0
2,note_on,71,28,0
2,note_on,74,28,0
2,note_on,74,0,1440
2,note_on,71,0,0
2,note_on,69,22,0
2,note_on,73,26,0
2,note_on,73,0,480
2,note_on,69,0,0
2,note_on,59,26,2400
2,note_on,56,26,0
2,note_on,56,0,1440
2,note_on,59,0,0
2,note_on,57,28,0
2,note_on,60,28,0
2,note_on,60,0,1440
2,note_on,57,0,0
2,note_on,56,22,0
2,note_on,59,26,0
2,note_on,59,0,720
2,note_on,56,0,0
2,note_on,42,44,0
2,note_on,42,0,1440
2,note_on,45,40,0
2,note_on,45,0,720
2,note_on,47,35,0
2,note_on,47,0,1440
2,note_on,35,30,0
2,note_on,35,0,1440
2,note_on,71,26,0
2,note_on,68,26,0
2,note_on,68,0,1440
2,note_on,71,0,0
2,note_on,69,28,0
2,note_on,72,28,0
2,note_on,72,0,1440
2,note_on,69,0,0
2,note_on,68,22,0
2,note_on,71,26,0
2,note_on,71,0,720
2,note_on,68,0,0
2,note_on,66,44,0
2,note_on,54,38,0
2,note_on,54,0,1440
2,note_on,66,0,0
2,note_on,57,40,0
2,note_on,57,0,720
2,note_on,59,35,0
2,note_on,59,0,1440
2,note_on,47,30,0
2,note_on,47,0,480
2,note_on,47,83,240
2,note_on,47,0,600
2,note_on,43,75,0
2,note_on,43,0,120
2,note_on,40,80,0
2,note_on,40,0,2160
2,note_on,43,81,0
2,note_on,43,0,600
2,note_on,47,73,0
2,note_on,47,0,120
2,note_on,52,81,0
2,note_on,52,0,720
2,note_on,55,83,0
2,note_on,55,0,600
2,note_on,59,73,0
2,note_on,59,0,120
2,note_on,64,82,0
2,note_on,64,0,720
2,note_on,64,79,0
2,note_on,64,0,720
2,note_on,55,70,2160
2,note_on,55,0,144
2,note_on,59,59,0
2,note_on,59,0,144
2,note_on,62,62,0
2,note_on,62,0,144
2,note_on,59,60,0
2,note_on,59,0,144
2,note_on,55,60,0
2,note_on,55,0,144
2,note_on,53,70,0
2,note_on,53,0,144
2,note_on,55,59,0
2,note_on,55,0,144
2,note_on,59,62,0
2,note_on,59,0,144
2,note_on,55,60,0
2,note_on,55,0,144
2,note_on,53,60,0
2,note_on,53,0,144
2,note_on,50,70,0
2,note_on,50,0,144
2,note_on,53,59,0
2,note_on,53,0,144
2,note_on,55,62,0
2,note_on,55,0,144
2,note_on,53,60,0
2,note_on,53,0,144
2,note_on,50,60,0
2,note_on,50,0,144
2,note_on,47,70,0
2,note_on,47,0,120
2,note_on,50,59,0
2,note_on,50,0,120
2,note_on,53,60,0
2,note_on,53,0,120
2,note_on,50,66,0
2,note_on,50,0,120
2,note_on,47,59,0
2,note_on,47,0,120
2,note_on,43,60,0
2,note_on,43,0,120
2,note_on,41,70,0
2,note_on,41,0,120
2,note_on,43,60,0
2,note_on,43,0,120
2,note_on,47,60,0
2,note_on,47,0,120
2,note_on,43,66,0
2,note_on,43,0,120
2,note_on,41,66,0
2,note_on,41,0,120
2,note_on,38,60,0
2,note_on,38,0,120
2,note_on,36,80,0
2,note_on,36,0,2160
2,note_on,39,81,0
2,note_on,39,0,600
2,note_on,43,73,0
2,note_on,43,0,120
2,note_on,48,81,0
2,note_on,48,0,720
2,note_on,51,83,0
2,note_on,51,0,600
2,note_on,55,73,0
2,note_on,55,0,120
2,note_on,60,82,0
2,note_on,60,0,720
2,note_on,60,79,0
2,note_on,60,0,56
2,note_on,51,70,2160
2,note_on,51,0,144
2,note_on,55,59,0
2,note_on,55,0,144
2,note_on,58,62,0
2,note_on,58,0,144
2,note_on,55,60,0
2,note_on,55,0,144
2,note_on,51,60,0
2,note_on,51,0,144
2,note_on,49,70,0
2,note_on,49,0,144
2,note_on,51,59,0
2,note_on,51,0,144
2,note_on,55,62,0
2,note_on,55,0,144
2,note_on,51,60,0
2,note_on,51,0,144
2,note_on,49,60,0
2,note_on,49,0,144
2,note_on,46,70,0
2,note_on,46,0,144
2,note_on,49,59,0
2,note_on,49,0,144
2,note_on,51,62,0
2,note_on,51,0,144
2,note_on,49,60,0
2,note_on,49,0,144
2,note_on,46,60,0
2,note_on,46,0,144
2,note_on,43,70,0
2,note_on,43,0,120
2,note_on,46,59,0
2,note_on,46,0,120
2,note_on,49,60,0
2,note_on,49,0,120
2,note_on,46,66,0
2,note_on,46,0,120
2,note_on,43,59,0
2,note_on,43,0,120
2,note_on,39,60,0
2,note_on,39,0,120
2,note_on,37,70,0
2,note_on,37,0,120
2,note_on,39,60,0
2,note_on,39,0,120
2,note_on,43,60,0
2,note_on,43,0,120
2,note_on,39,66,0
2,note_on,39,0,120
2,note_on,37,66,0
2,note_on,37,0,120
2,note_on,34,60,0
2,note_on,34,0,120
2,note_on,32,80,0
2,note_on,32,0,2160
2,note_on,36,81,0
2,note_on,36,0,600
2,note_on,39,73,0
2,note_on,39,0,120
2,note_on,44,81,0
2,note_on,44,0,720
2,note_on,48,83,0
2,note_on,48,0,600
2,note_on,51,73,0
2,note_on,51,0,120
2,note_on,56,82,0
2,note_on,56,0,720
2,note_on,56,79,0
2,note_on,56,0,720
2,note_on,57,83,0
2,note_on,57,0,144
2,note_on,60,67,0
2,note_on,60,0,144
2,note_on,63,70,0
2,note_on,63,0,144
2,note_on,60,68,0
2,note_on,60,0,144
2,note_on,57,68,0
2,note_on,57,0,144
2,note_on,54,81,0
2,note_on,54,0,144
2,note_on,57,67,0
2,note_on,57,0,144
2,note_on,60,70,0
2,note_on,60,0,144
2,note_on,57,68,0
2,note_on,57,0,144
2,note_on,54,68,0
2,note_on,54,0,144
2,note_on,51,77,0
2,note_on,51,0,144
2,note_on,54,62,0
2,note_on,54,0,144
2,note_on,57,67,0
2,note_on,57,0,144
2,note_on,54,63,0
2,note_on,54,0,144
2,note_on,51,63,0
2,note_on,51,0,144
2,note_on,48,70,0
2,note_on,48,0,144
2,note_on,51,59,0
2,note_on,51,0,144
2,note_on,54,62,0
2,note_on,54,0,144
2,note_on,51,60,0
2,note_on,51,0,144
2,note_on,48,60,0
2,note_on,48,0,144
2,note_on,45,70,0
2,note_on,45,0,144
2,note_on,48,59,0
2,note_on,48,0,144
2,note_on,51,62,0
2,note_on,51,0,144
2,note_on,48,60,0
2,note_on,48,0,144
2,note_on,45,60,0
2,note_on,45,0,144
2,note_on,42,70,0
2,note_on,42,0,144
2,note_on,45,59,0
2,note_on,45,0,144
2,note_on,48,62,0
2,note_on,48,0,144
2,note_on,45,60,0
2,note_on,45,0,144
2,note_on,42,60,0
2,note_on,42,0,144
2,note_on,39,70,0
2,note_on,39,0,120
2,note_on,42,59,0
2,note_on,42,0,120
2,note_on,45,60,0
2,note_on,45,0,120
2,note_on,42,66,0
2,note_on,42,0,120
2,note_on,39,59,0
2,note_on,39,0,120
2,note_on,36,60,0
2,note_on,36,0,120
2,note_on,33,70,0
2,note_on,33,0,120
2,note_on,36,60,0
2,note_on,36,0,120
2,note_on,39,60,0
2,note_on,39,0,120
2,note_on,42,66,0
2,note_on,42,0,120
2,note_on,39,66,0
2,note_on,39,0,120
2,note_on,36,60,0
2,note_on,36,0,120
2,note_on,32,70,0
2,note_on,32,0,120
2,note_on,36,60,0
2,note_on,36,0,120
2,note_on,39,60,0
2,note_on,39,0,120
2,note_on,42,66,0
2,note_on,42,0,120
2,note_on,39,66,0
2,note_on,39,0,120
2,note_on,36,60,0
2,note_on,36,0,120
2,note_on,33,70,0
2,note_on,33,0,120
2,note_on,36,60,0
2,note_on,36,0,120
2,note_on,39,60,0
2,note_on,39,0,120
2,note_on,42,66,0
2,note_on,42,0,120
2,note_on,39,66,0
2,note_on,39,0,120
2,note_on,36,60,0
2,note_on,36,0,120
2,note_on,32,70,0
2,note_on,32,0,120
2,note_on,36,60,0
2,note_on,36,0,120
2,note_on,39,60,0
2,note_on,39,0,120
2,note_on,42,66,0
2,note_on,42,0,120
2,note_on,39,66,0
2,note_on,39,0,120
2,note_on,36,60,0
2,note_on,36,0,120
2,note_on,33,70,0
2,note_on,33,0,120
2,note_on,36,60,0
2,note_on,36,0,120
2,note_on,39,60,0
2,note_on,39,0,120
2,note_on,42,66,0
2,note_on,42,0,120
2,note_on,39,66,0
2,note_on,39,0,120
2,note_on,36,60,0
2,note_on,36,0,120
2,note_on,32,70,0
2,note_on,32,0,120
2,note_on,36,60,0
2,note_on,36,0,120
2,note_on,39,60,0
2,note_on,39,0,120
2,note_on,42,60,0
2,note_on,42,0,120
2,note_on,39,66,0
2,note_on,39,0,120
2,note_on,36,60,0
2,note_on,36,0,120
2,note_on,33,70,0
2,note_on,33,0,120
2,note_on,36,60,0
2,note_on,36,0,120
2,note_on,39,60,0
2,note_on,39,0,120
2,note_on,42,61,0
2,note_on,42,0,120
2,note_on,39,66,0
2,note_on,39,0,120
2,note_on,36,60,0
2,note_on,36,0,120
2,note_on,32,70,0
2,note_on,32,0,120
2,note_on,36,60,0
2,note_on,36,0,120
2,note_on,39,60,0
2,note_on,39,0,120
2,note_on,42,61,0
2,note_on,42,0,120
2,note_on,39,66,0
2,note_on,39,0,120
2,note_on,36,60,0
2,note_on,36,0,120
2,note_on,33,70,0
2,note_on,33,0,120
2,note_on,36,60,0
2,note_on,36,0,120
2,note_on,39,60,0
2,note_on,39,0,120
2,note_on,42,60,0
2,note_on,42,0,120
2,note_on,39,66,0
2,note_on,39,0,120
2,note_on,36,60,0
2,note_on,36,0,120
2,note_on,32,60,0
2,note_on,44,60,0
2,note_on,44,0,240
2,note_on,32,0,0
2,note_on,56,36,0
2,note_on,56,0,220
2,note_on,56,36,20
2,note_on,56,0,220
2,note_on,56,39,20
2,note_on,56,0,220
2,note_on,56,37,20
2,note_on,56,0,220
2,note_on,56,36,20
2,note_on,56,0,220
2,note_on,56,39,20
2,note_on,56,0,220
2,note_on,56,35,20
2,note_on,56,0,220
2,note_on,56,35,20
2,note_on,56,0,220
2,note_on,56,39,20
2,note_on,56,0,220
2,note_on,56,36,20
2,note_on,56,0,220
2,note_on,56,36,20
2,note_on,56,0,220
2,note_on,56,36,260
2,note_on,56,0,220
2,note_on,56,36,20
2,note_on,56,0,220
2,note_on,56,39,20
2,note_on,56,0,220
2,note_on,56,37,20
2,note_on,56,0,220
2,note_on,56,36,20
2,note_on,56,0,220
2,note_on,54,39,20
2,note_on,54,0,240
2,note_on,56,35,0
2,note_on,56,0,220
2,note_on,56,35,20
2,note_on,56,0,220
2,note_on,56,39,20
2,note_on,56,0,220
2,note_on,56,36,20
2,note_on,56,0,220
2,note_on,56,36,20
2,note_on,56,0,220
2,note_on,56,36,260
2,note_on,56,0,220
2,note_on,56,36,20
2,note_on,56,0,220
2,note_on,56,39,20
2,note_on,56,0,220
2,note_on,56,37,20
2,note_on,56,0,220
2,note_on,56,36,20
2,note_on,56,0,220
2,note_on,53,39,20
2,note_on,53,0,240
2,note_on,56,35,0
2,note_on,56,0,220
2,note_on,56,35,20
2,note_on,56,0,220
2,note_on,56,39,20
2,note_on,56,0,220
2,note_on,56,36,20
2,note_on,56,0,220
2,note_on,56,36,20
2,note_on,56,0,220
2,note_on,56,38,260
2,note_on,56,0,220
2,note_on,56,38,20
2,note_on,56,0,220
2,note_on,53,40,20
2,note_on,49,40,0
2,note_on,49,0,240
2,note_on,53,0,0
2,note_on,56,37,0
2,note_on,56,0,220
2,note_on,56,37,20
2,note_on,56,0,220
2,note_on,49,37,20
2,note_on,53,37,0
2,note_on,53,0,240
2,note_on,49,0,0
2,note_on,56,37,0
2,note_on,56,0,220
2,note_on,56,37,20
2,note_on,56,0,220
2,note_on,49,37,20
2,note_on,53,37,0
2,note_on,53,0,240
2,note_on,49,0,0
2,note_on,56,37,0
2,note_on,56,0,220
2,note_on,56,37,20
2,note_on,56,0,220
2,note_on,48,39,20
2,note_on,51,39,0
2,note_on,51,0,240
2,note_on,48,0,0
2,note_on,56,37,0
2,note_on,56,0,220
2,note_on,56,37,20
2,note_on,56,0,220
2,note_on,56,38,20
2,note_on,56,0,220
2,note_on,56,37,20
2,note_on,56,0,220
2,note_on,56,37,20
2,note_on,56,0,220
2,note_on,56,37,20
2,note_on,56,0,220
2,note_on,56,37,20
2,note_on,56,0,220
2,note_on,56,37,20
2,note_on,56,0,220
2,note_on,56,38,20
2,note_on,56,0,220
2,note_on,56,37,20
2,note_on,56,0,220
2,note_on,56,37,20
2,note_on,56,0,220
2,note_on,56,39,20
2,note_on,56,0,220
2,note_on,56,37,20
2,note_on,56,0,220
2,note_on,56,37,20
2,note_on,56,0,220
2,note_on,56,38,20
2,note_on,56,0,220
2,note_on,56,37,20
2,note_on,56,0,220
2,note_on,56,37,20
2,note_on,56,0,220
2,note_on,56,38,20
2,note_on,56,0,220
2,note_on,56,39,20
2,note_on,56,0,220
2,note_on,54,44,260
2,note_on,51,44,0
2,note_on,51,0,240
2,note_on,54,0,0
2,note_on,56,37,0
2,note_on,56,0,220
2,note_on,56,37,20
2,note_on,56,0,220
2,note_on,56,39,20
2,note_on,56,0,220
2,note_on,56,37,20
2,note_on,56,0,220
2,note_on,56,37,20
2,note_on,56,0,220
2,note_on,56,37,20
2,note_on,56,0,220
2,note_on,56,37,20
2,note_on,56,0,220
2,note_on,56,37,20
2,note_on,56,0,220
2,note_on,56,38,20
2,note_on,56,0,220
2,note_on,56,37,20
2,note_on,56,0,220
2,note_on,56,37,20
2,note_on,56,0,220
2,note_on,49,44,20
2,note_on,53,48,0
2,note_on,53,0,240
2,note_on,49,0,0
2,note_on,56,37,0
2,note_on,56,0,220
2,note_on,56,37,20
2,note_on,56,0,220
2,note_on,56,38,260
2,note_on,56,0,220
2,note_on,56,38,20
2,note_on,56,0,220
2,note_on,53,40,20
2,note_on,49,40,0
2,note_on,49,0,240
2,note_on,53,0,0
2,note_on,56,37,0
2,note_on,56,0,220
2,note_on,56,37,20
2,note_on,56,0,220
2,note_on,49,37,20
2,note_on,53,37,0
2,note_on,53,0,240
2,note_on,49,0,0
2,note_on,56,37,0
2,note_on,56,0,220
2,note_on,56,37,20
2,note_on,56,0,220
2,note_on,49,36,20
2,note_on,53,36,0
2,note_on,53,0,240
2,note_on,49,0,0
2,note_on,56,37,0
2,note_on,56,0,220
2,note_on,56,37,20
2,note_on,56,0,220
2,note_on,56,38,260
2,note_on,56,0,220
2,note_on,56,38,20
2,note_on,56,0,220
2,note_on,51,40,20
2,note_on,48,40,0
2,note_on,48,0,240
2,note_on,51,0,0
2,note_on,56,37,0
2,note_on,56,0,220
2,note_on,56,37,20
2,note_on,56,0,220
2,note_on,56,37,260
2,note_on,56,0,220
2,note_on,56,37,20
2,note_on,56,0,220
2,note_on,49,36,20
2,note_on,52,36,0
2,note_on,52,0,240
2,note_on,49,0,0
2,note_on,56,37,0
2,note_on,56,0,220
2,note_on,56,37,20
2,note_on,56,0,220
2,note_on,56,38,260
2,note_on,56,0,220
2,note_on,56,38,20
2,note_on,56,0,220
2,note_on,51,40,20
2,note_on,48,40,0
2,note_on,48,0,240
2,note_on,51,0,0
2,note_on,56,37,0
2,note_on,56,0,220
2,note_on,56,37,20
2,note_on,56,0,220
2,note_on,56,37,260
2,note_on,56,0,220
2,note_on,56,37,20
2,note_on,56,0,220
2,note_on,49,36,20
2,note_on,52,36,0
2,note_on,52,0,240
2,note_on,49,0,0
2,note_on,56,37,0
2,note_on,56,0,220
2,note_on,56,37,20
2,note_on,56,0,220
2,note_on,56,37,260
2,note_on,56,0,220
2,note_on,56,36,20
2,note_on,56,0,220
2,note_on,51,38,20
2,note_on,48,38,0
2,note_on,48,0,240
2,note_on,51,0,0
2,note_on,56,34,0
2,note_on,56,0,220
2,note_on,56,34,20
2,note_on,56,0,220
2,note_on,56,32,260
2,note_on,56,0,220
2,note_on,56,32,20
2,note_on,56,0,220
2,note_on,47,30,20
2,note_on,50,30,0
2,note_on,50,0,240
2,note_on,47,0,0
2,note_on,56,31,0
2,note_on,56,0,220
2,note_on,56,30,20
2,note_on,56,0,220
2,note_on,56,31,260
2,note_on,56,0,220
2,note_on,56,30,20
2,note_on,56,0,220
2,note_on,49,32,20
2,note_on,46,32,0
2,note_on,46,0,240
2,note_on,49,0,0
2,note_on,56,28,0
2,note_on,56,0,220
2,note_on,56,28,20
2,note_on,56,0,220
2,note_on,56,27,260
2,note_on,56,0,220
2,note_on,56,27,20
2,note_on,56,0,220
2,note_on,48,25,20
2,note_on,45,25,0
2,note_on,45,0,240
2,note_on,48,0,0
2,note_on,56,26,0
2,note_on,56,0,220
2,note_on,56,25,20
2,note_on,56,0,220
2,note_on,44,44,260
2,note_on,43,39,240
2,note_on,43,0,240
2,note_on,44,0,0
2,note_on,44,44,0
2,note_on,46,41,240
2,note_on,46,0,240
2,note_on,44,0,0
2,note_on,44,45,0
2,note_on,42,41,240
2,note_on,42,0,240
2,note_on,44,0,0
2,note_on,44,41,0
2,note_on,42,48,240
2,note_on,42,0,240
2,note_on,41,42,0
2,note_on,41,0,240
2,note_on,42,42,0
2,note_on,42,0,240
2,note_on,41,47,0
2,note_on,41,0,240
2,note_on,44,0,0
2,note_on,39,55,0
2,note_on,39,0,240
2,note_on,44,48,0
2,note_on,43,42,240
2,note_on,43,0,240
2,note_on,44,0,0
2,note_on,44,48,0
2,note_on,46,45,240
2,note_on,46,0,240
2,note_on,44,0,0
2,note_on,44,49,0
2,note_on,39,46,240
2,note_on,39,0,240
2,note_on,41,46,0
2,note_on,41,0,240
2,note_on,39,50,0
2,note_on,39,0,240
2,note_on,37,47,0
2,note_on,37,0,240
2,note_on,39,47,0
2,note_on,39,0,240
2,note_on,37,51,0
2,note_on,37,0,240
2,note_on,44,0,0
2,note_on,36,57,0
2,note_on,36,0,240
2,note_on,44,52,0
2,note_on,43,47,240
2,note_on,43,0,240
2,note_on,44,0,0
2,note_on,44,52,0
2,note_on,46,49,240
2,note_on,46,0,240
2,note_on,44,0,0
2,note_on,44,53,0
2,note_on,36,50,240
2,note_on,36,0,240
2,note_on,37,50,0
2,note_on,37,0,240
2,note_on,36,54,0
2,note_on,36,0,240
2,note_on,34,50,0
2,note_on,34,0,240
2,note_on,36,51,0
2,note_on,36,0,240
2,note_on,34,51,0
2,note_on,34,0,240
2,note_on,44,0,0
2,note_on,32,55,0
2,note_on,32,0,240
2,note_on,31,49,0
2,note_on,31,0,240
2,note_on,32,49,0
2,note_on,32,0,240
2,note_on,34,53,0
2,note_on,34,0,240
2,note_on,32,46,0
2,note_on,32,0,240
2,note_on,34,45,0
2,note_on,34,0,240
2,note_on,35,50,0
2,note_on,35,0,240
2,note_on,34,44,0
2,note_on,34,0,240
2,note_on,35,42,0
2,note_on,35,0,240
2,note_on,36,47,0
2,note_on,36,0,240
2,note_on,35,40,0
2,note_on,35,0,240
2,note_on,36,40,0
2,note_on,36,0,240
2,note_on,37,36,0
2,note_on,37,0,240
2,note_on,49,32,0
2,note_on,41,26,0
2,note_on,44,26,0
2,note_on,44,0,240
2,note_on,41,0,0
2,note_on,49,0,0
2,note_on,37,33,0
2,note_on,37,0,240
2,note_on,49,36,0
2,note_on,41,28,0
2,note_on,44,28,0
2,note_on,44,0,240
2,note_on,41,0,0
2,note_on,49,0,0
2,note_on,37,33,0
2,note_on,37,0,240
2,note_on,49,33,0
2,note_on,44,26,0
2,note_on,41,26,0
2,note_on,41,0,240
2,note_on,44,0,0
2,note_on,49,0,0
2,note_on,37,36,0
2,note_on,37,0,240
2,note_on,49,33,0
2,note_on,41,26,0
2,note_on,44,26,0
2,note_on,44,0,240
2,note_on,41,0,0
2,note_on,49,0,0
2,note_on,37,33,0
2,note_on,37,0,240
2,note_on,44,28,0
2,note_on,41,28,0
2,note_on,49,36,0
2,note_on,49,0,240
2,note_on,41,0,0
2,note_on,44,0,0
2,note_on,37,33,0
2,note_on,37,0,240
2,note_on,49,35,0
2,note_on,41,27,0
2,note_on,44,27,0
2,note_on,44,0,240
2,note_on,41,0,0
2,note_on,49,0,0
2,note_on,37,36,0
2,note_on,37,0,240
2,note_on,49,32,0
2,note_on,44,26,0
2,note_on,41,26,0
2,note_on,41,0,240
2,note_on,44,0,0
2,note_on,49,0,0
2,note_on,37,33,0
2,note_on,37,0,240
2,note_on,49,36,0
2,note_on,44,28,0
2,note_on,41,28,0
2,note_on,41,0,240
2,note_on,44,0,0
2,note_on,49,0,0
2,note_on,37,33,0
2,note_on,37,0,240
2,note_on,41,26,0
2,note_on,49,33,0
2,note_on,44,26,0
2,note_on,44,0,240
2,note_on,49,0,0
2,note_on,41,0,0
2,note_on,39,36,0
2,note_on,39,0,240
2,note_on,51,33,0
2,note_on,42,26,0
2,note_on,44,26,0
2,note_on,44,0,240
2,note_on,42,0,0
2,note_on,51,0,0
2,note_on,39,33,0
2,note_on,39,0,240
2,note_on,44,28,0
2,note_on,42,28,0
2,note_on,51,36,0
2,note_on,51,0,240
2,note_on,42,0,0
2,note_on,44,0,0
2,note_on,39,33,0
2,note_on,39,0,240
2,note_on,42,27,0
2,note_on,44,27,0
2,note_on,51,35,0
2,note_on,51,0,240
2,note_on,44,0,0
2,note_on,42,0,0
2,note_on,41,36,0
2,note_on,41,0,240
2,note_on,44,26,0
2,note_on,53,32,0
2,note_on,49,26,0
2,note_on,49,0,240
2,note_on,53,0,0
2,note_on,44,0,0
2,note_on,41,33,0
2,note_on,41,0,240
2,note_on,53,36,0
2,note_on,49,28,0
2,note_on,44,28,0
2,note_on,44,0,240
2,note_on,49,0,0
2,note_on,53,0,0
2,note_on,41,33,0
2,note_on,41,0,240
2,note_on,44,26,0
2,note_on,53,33,0
2,note_on,49,26,0
2,note_on,49,0,240
2,note_on,53,0,0
2,note_on,44,0,0
2,note_on,41,36,0
2,note_on,41,0,240
2,note_on,53,33,0
2,note_on,44,26,0
2,note_on,49,26,0
2,note_on,49,0,240
2,note_on,44,0,0
2,note_on,53,0,0
2,note_on,41,33,0
2,note_on,41,0,240
2,note_on,49,28,0
2,note_on,54,36,0
2,note_on,51,28,0
2,note_on,51,0,240
2,note_on,54,0,0
2,note_on,49,0,0
2,note_on,42,33,0
2,note_on,42,0,240
2,note_on,49,27,0
2,note_on,54,35,0
2,note_on,51,27,0
2,note_on,51,0,240
2,note_on,54,0,0
2,note_on,49,0,0
2,note_on,44,37,0
2,note_on,44,0,240
2,note_on,49,27,0
2,note_on,56,33,0
2,note_on,53,27,0
2,note_on,53,0,240
2,note_on,56,0,0
2,note_on,49,0,0
2,note_on,44,34,0
2,note_on,44,0,240
2,note_on,49,30,0
2,note_on,56,38,0
2,note_on,53,30,0
2,note_on,53,0,240
2,note_on,56,0,0
2,note_on,49,0,0
2,note_on,44,34,0
2,note_on,44,0,240
2,note_on,49,28,0
2,note_on,56,35,0
2,note_on,53,28,0
2,note_on,53,0,240
2,note_on,56,0,0
2,note_on,49,0,0
2,note_on,44,40,0
2,note_on,44,0,240
2,note_on,48,29,0
2,note_on,56,36,0
2,note_on,51,29,0
2,note_on,51,0,240
2,note_on,56,0,0
2,note_on,48,0,0
2,note_on,44,36,0
2,note_on,44,0,240
2,note_on,48,32,0
2,note_on,56,41,0
2,note_on,51,32,0
2,note_on,51,0,240
2,note_on,56,0,0
2,note_on,48,0,0
2,note_on,44,37,0
2,note_on,44,0,240
2,note_on,48,30,0
2,note_on,56,37,0
2,note_on,51,30,0
2,note_on,51,0,240
2,note_on,56,0,0
2,note_on,48,0,0
2,note_on,45,51,0
2,note_on,45,0,162
2,note_on,48,33,0
2,note_on,53,33,0
2,note_on,57,41,0
2,note_on,57,0,240
2,note_on,53,0,0
2,note_on,48,0,0
2,note_on,45,45,0
2,note_on,45,0,240
2,note_on,48,29,0
2,note_on,53,29,0
2,note_on,57,38,0
2,note_on,57,0,240
2,note_on,53,0,0
2,note_on,48,0,0
2,note_on,45,36,0
2,note_on,45,0,240
2,note_on,48,28,0
2,note_on,53,28,0
2,note_on,57,38,0
2,note_on,57,0,240
2,note_on,53,0,0
2,note_on,48,0,0
2,note_on,45,39,0
2,note_on,45,0,240
2,note_on,48,28,0
2,note_on,53,28,0
2,note_on,57,36,0
2,note_on,57,0,240
2,note_on,53,0,0
2,note_on,48,0,0
2,note_on,45,39,0
2,note_on,45,0,240
2,note_on,53,27,0
2,note_on,58,35,0
2,note_on,49,27,0
2,note_on,49,0,240
2,note_on,58,0,0
2,note_on,53,0,0
2,note_on,46,33,0
2,note_on,46,0,240
2,note_on,49,27,0
2,note_on,53,27,0
2,note_on,58,34,0
2,note_on,58,0,240
2,note_on,53,0,0
2,note_on,49,0,0
2,note_on,46,37,0
2,note_on,46,0,240
2,note_on,49,27,0
2,note_on,53,27,0
2,note_on,58,34,0
2,note_on,58,0,240
2,note_on,53,0,0
2,note_on,49,0,0
2,note_on,46,36,0
2,note_on,46,0,240
2,note_on,49,30,0
2,note_on,53,30,0
2,note_on,58,39,0
2,note_on,58,0,240
2,note_on,53,0,0
2,note_on,49,0,0
2,note_on,46,37,0
2,note_on,46,0,240
2,note_on,53,29,0
2,note_on,58,38,0
2,note_on,49,29,0
2,note_on,49,0,240
2,note_on,58,0,0
2,note_on,53,0,0
2,note_on,48,40,0
2,note_on,48,0,240
2,note_on,51,29,0
2,note_on,53,29,0
2,note_on,60,38,0
2,note_on,60,0,240
2,note_on,53,0,0
2,note_on,51,0,0
2,note_on,48,39,0
2,note_on,48,0,240
2,note_on,51,34,0
2,note_on,60,42,0
2,note_on,53,34,0
2,note_on,53,0,240
2,note_on,60,0,0
2,note_on,51,0,0
2,note_on,48,40,0
2,note_on,48,0,240
2,note_on,53,33,0
2,note_on,60,42,0
2,note_on,51,33,0
2,note_on,51,0,240
2,note_on,60,0,0
2,note_on,53,0,0
2,note_on,49,37,0
2,note_on,49,0,240
2,note_on,53,27,0
2,note_on,58,27,0
2,note_on,61,34,0
2,note_on,61,0,240
2,note_on,58,0,0
2,note_on,53,0,0
2,note_on,49,36,0
2,note_on,49,0,240
2,note_on,53,30,0
2,note_on,58,30,0
2,note_on,61,39,0
2,note_on,61,0,240
2,note_on,58,0,0
2,note_on,53,0,0
2,note_on,49,37,0
2,note_on,49,0,240
2,note_on,58,29,0
2,note_on,61,38,0
2,note_on,53,29,0
2,note_on,53,0,240
2,note_on,61,0,0
2,note_on,58,0,0
2,note_on,49,40,0
2,note_on,49,0,240
2,note_on,53,29,0
2,note_on,58,29,0
2,note_on,61,38,0
2,note_on,61,0,240
2,note_on,58,0,0
2,note_on,53,0,0
2,note_on,49,39,0
2,note_on,49,0,240
2,note_on,54,28,0
2,note_on,63,36,0
2,note_on,58,28,0
2,note_on,58,0,240
2,note_on,63,0,0
2,note_on,54,0,0
2,note_on,51,33,0
2,note_on,51,0,240
2,note_on,54,27,0
2,note_on,63,35,0
2,note_on,58,27,0
2,note_on,58,0,240
2,note_on,63,0,0
2,note_on,54,0,0
2,note_on,53,37,0
2,note_on,53,0,240
2,note_on,58,27,0
2,note_on,65,33,0
2,note_on,61,27,0
2,note_on,61,0,240
2,note_on,65,0,0
2,note_on,58,0,0
2,note_on,53,34,0
2,note_on,53,0,240
2,note_on,58,30,0
2,note_on,65,38,0
2,note_on,61,30,0
2,note_on,61,0,240
2,note_on,65,0,0
2,note_on,58,0,0
2,note_on,53,34,0
2,note_on,53,0,240
2,note_on,61,28,0
2,note_on,65,35,0
2,note_on,58,28,0
2,note_on,58,0,240
2,note_on,65,0,0
2,note_on,61,0,0
2,note_on,53,40,0
2,note_on,53,0,240
2,note_on,60,29,0
2,note_on,57,29,0
2,note_on,63,37,0
2,note_on,63,0,240
2,note_on,57,0,0
2,note_on,60,0,0
2,note_on,53,37,0
2,note_on,53,0,240
2,note_on,60,33,0
2,note_on,57,33,0
2,note_on,63,42,0
2,note_on,63,0,240
2,note_on,57,0,0
2,note_on,60,0,0
2,note_on,53,38,0
2,note_on,53,0,240
2,note_on,60,31,0
2,note_on,57,31,0
2,note_on,63,38,0
2,note_on,63,0,240
2,note_on,57,0,0
2,note_on,60,0,0
2,note_on,54,53,0
2,note_on,54,0,240
2,note_on,66,43,0
2,note_on,61,34,0
2,note_on,58,34,0
2,note_on,58,0,240
2,note_on,61,0,0
2,note_on,66,0,0
2,note_on,54,47,0
2,note_on,54,0,240
2,note_on,66,46,0
2,note_on,61,35,0
2,note_on,58,35,0
2,note_on,58,0,240
2,note_on,61,0,0
2,note_on,66,0,0
2,note_on,54,43,0
2,note_on,54,0,240
2,note_on,66,46,0
2,note_on,61,34,0
2,note_on,58,34,0
2,note_on,58,0,240
2,note_on,61,0,0
2,note_on,66,0,0
2,note_on,54,47,0
2,note_on,54,0,240
2,note_on,66,44,0
2,note_on,61,34,0
2,note_on,58,34,0
2,note_on,58,0,240
2,note_on,61,0,0
2,note_on,66,0,0
2,note_on,54,47,0
2,note_on,54,0,240
2,note_on,58,35,0
2,note_on,61,35,0
2,note_on,66,46,0
2,note_on,66,0,240
2,note_on,61,0,0
2,note_on,58,0,0
2,note_on,54,42,0
2,note_on,54,0,240
2,note_on,66,44,0
2,note_on,58,35,0
2,note_on,61,35,0
2,note_on,61,0,240
2,note_on,58,0,0
2,note_on,66,0,0
2,note_on,54,48,0
2,note_on,54,0,240
2,note_on,66,44,0
2,note_on,61,35,0
2,note_on,58,35,0
2,note_on,58,0,240
2,note_on,61,0,0
2,note_on,66,0,0
2,note_on,54,47,0
2,note_on,54,0,240
2,note_on,66,50,0
2,note_on,61,39,0
2,note_on,58,39,0
2,note_on,58,0,240
2,note_on,61,0,0
2,note_on,66,0,0
2,note_on,54,48,0
2,note_on,54,0,240
2,note_on,58,37,0
2,note_on,66,49,0
2,note_on,61,37,0
2,note_on,61,0,240
2,note_on,66,0,0
2,note_on,58,0,0
2,note_on,56,52,0
2,note_on,56,0,240
2,note_on,68,49,0
2,note_on,59,37,0
2,note_on,61,37,0
2,note_on,61,0,240
2,note_on,59,0,0
2,note_on,68,0,0
2,note_on,56,50,0
2,note_on,56,0,240
2,note_on,61,44,0
2,note_on,68,55,0
2,note_on,59,44,0
2,note_on,59,0,240
2,note_on,68,0,0
2,note_on,61,0,0
2,note_on,56,52,0
2,note_on,56,0,240
2,note_on,59,42,0
2,note_on,68,55,0
2,note_on,61,42,0
2,note_on,61,0,240
2,note_on,68,0,0
2,note_on,59,0,0
2,note_on,58,48,0
2,note_on,58,0,240
2,note_on,70,44,0
2,note_on,61,35,0
2,note_on,66,35,0
2,note_on,66,0,240
2,note_on,61,0,0
2,note_on,70,0,0
2,note_on,58,47,0
2,note_on,58,0,240
2,note_on,70,42,0
2,note_on,61,33,0
2,note_on,66,33,0
2,note_on,66,0,240
2,note_on,61,0,0
2,note_on,70,0,0
2,note_on,58,40,0
2,note_on,58,0,240
2,note_on,61,33,0
2,note_on,66,33,0
2,note_on,70,44,0
2,note_on,70,0,240
2,note_on,66,0,0
2,note_on,61,0,0
2,note_on,58,50,0
2,note_on,58,0,240
2,note_on,70,49,0
2,note_on,66,37,0
2,note_on,61,37,0
2,note_on,61,0,240
2,note_on,66,0,0
2,note_on,70,0,0
2,note_on,58,52,0
2,note_on,58,0,240
2,note_on,66,38,0
2,note_on,70,51,0
2,note_on,61,38,0
2,note_on,61,0,240
2,note_on,70,0,0
2,note_on,66,0,0
2,note_on,58,48,0
2,note_on,58,0,240
2,note_on,66,41,0
2,note_on,70,55,0
2,note_on,61,41,0
2,note_on,61,0,240
2,note_on,70,0,0
2,note_on,66,0,0
2,note_on,59,57,0
2,note_on,59,0,240
2,note_on,71,44,0
2,note_on,62,35,0
2,note_on,66,35,0
2,note_on,66,0,240
2,note_on,62,0,0
2,note_on,71,0,0
2,note_on,59,47,0
2,note_on,59,0,240
2,note_on,71,42,0
2,note_on,62,33,0
2,note_on,66,33,0
2,note_on,66,0,240
2,note_on,62,0,0
2,note_on,71,0,0
2,note_on,59,40,0
2,note_on,59,0,240
2,note_on,62,33,0
2,note_on,66,33,0
2,note_on,71,44,0
2,note_on,71,0,240
2,note_on,66,0,0
2,note_on,62,0,0
2,note_on,59,50,0
2,note_on,59,0,240
2,note_on,71,49,0
2,note_on,66,37,0
2,note_on,62,37,0
2,note_on,62,0,240
2,note_on,66,0,0
2,note_on,71,0,0
2,note_on,59,53,0
2,note_on,59,0,240
2,note_on,66,38,0
2,note_on,71,52,0
2,note_on,62,38,0
2,note_on,62,0,240
2,note_on,71,0,0
2,note_on,66,0,0
2,note_on,59,49,0
2,note_on,59,0,240
2,note_on,66,42,0
2,note_on,71,56,0
2,note_on,62,42,0
2,note_on,62,0,240
2,note_on,71,0,0
2,note_on,66,0,0
2,note_on,59,60,0
2,note_on,59,0,240
2,note_on,62,36,0
2,note_on,67,36,0
2,note_on,71,46,0
2,note_on,71,0,240
2,note_on,67,0,0
2,note_on,62,0,0
2,note_on,59,49,0
2,note_on,59,0,240
2,note_on,62,34,0
2,note_on,67,34,0
2,note_on,71,45,0
2,note_on,71,0,240
2,note_on,67,0,0
2,note_on,62,0,0
2,note_on,59,42,0
2,note_on,59,0,240
2,note_on,67,35,0
2,note_on,71,47,0
2,note_on,62,35,0
2,note_on,62,0,240
2,note_on,71,0,0
2,note_on,67,0,0
2,note_on,59,53,0
2,note_on,59,0,240
2,note_on,62,39,0
2,note_on,67,39,0
2,note_on,71,51,0
2,note_on,71,0,240
2,note_on,67,0,0
2,note_on,62,0,0
2,note_on,59,56,0
2,note_on,59,0,240
2,note_on,62,40,0
2,note_on,71,55,0
2,note_on,67,40,0
2,note_on,67,0,240
2,note_on,71,0,0
2,note_on,62,0,0
2,note_on,59,51,0
2,note_on,59,0,240
2,note_on,62,44,0
2,note_on,71,59,0
2,note_on,67,44,0
2,note_on,67,0,240
2,note_on,71,0,0
2,note_on,62,0,0
2,note_on,60,64,0
2,note_on,60,0,240
2,note_on,64,38,0
2,note_on,67,38,0
2,note_on,72,48,0
2,note_on,72,0,240
2,note_on,67,0,0
2,note_on,64,0,0
2,note_on,60,51,0
2,note_on,60,0,240
2,note_on,64,37,0
2,note_on,67,37,0
2,note_on,72,48,0
2,note_on,72,0,240
2,note_on,67,0,0
2,note_on,64,0,0
2,note_on,60,47,0
2,note_on,60,0,240
2,note_on,67,37,0
2,note_on,72,50,0
2,note_on,64,37,0
2,note_on,64,0,240
2,note_on,72,0,0
2,note_on,67,0,0
2,note_on,60,57,0
2,note_on,60,0,240
2,note_on,64,41,0
2,note_on,67,41,0
2,note_on,72,55,0
2,note_on,72,0,240
2,note_on,67,0,0
2,note_on,64,0,0
2,note_on,60,59,0
2,note_on,60,0,240
2,note_on,64,44,0
2,note_on,72,58,0
2,note_on,67,44,0
2,note_on,67,0,240
2,note_on,72,0,0
2,note_on,64,0,0
2,note_on,60,55,0
2,note_on,60,0,240
2,note_on,64,47,0
2,note_on,72,61,0
2,note_on,67,47,0
2,note_on,67,0,240
2,note_on,72,0,0
2,note_on,64,0,0
2,note_on,61,102,0
2,note_on,64,78,120
2,note_on,67,78,120
2,note_on,70,78,120
2,note_on,73,78,120
2,note_on,73,0,960
2,note_on,67,0,0
2,note_on,61,0,0
2,note_on,64,0,0
2,note_on,70,0,0
2,note_on,64,101,0
2,note_on,67,78,120
2,note_on,70,78,120
2,note_on,73,78,120
2,note_on,76,79,120
2,note_on,76,0,960
2,note_on,70,0,0
2,note_on,64,0,0
2,note_on,67,0,0
2,note_on,73,0,0
2,note_on,67,101,0
2,note_on,70,84,120
2,note_on,73,84,120
2,note_on,76,84,120
2,note_on,76,0,1080
2,note_on,67,0,0
2,note_on,70,0,0
2,note_on,73,0,0
2,note_on,70,100,0
2,note_on,73,84,120
2,note_on,76,86,120
2,note_on,76,0,1200
2,note_on,73,0,0
2,note_on,70,0,0
2,note_on,73,96,0
2,note_on,76,84,120
2,note_on,79,84,120
2,note_on,79,0,480
2,note_on,76,0,0
2,note_on,73,0,0
2,note_on,76,98,0
2,note_on,79,84,120
2,note_on,82,84,120
2,note_on,82,0,480
2,note_on,79,0,0
2,note_on,76,0,0
2,note_on,79,100,0
2,note_on,79,0,120
2,note_on,82,84,0
2,note_on,82,0,120
2,note_on,85,84,0
2,note_on,85,0,120
2,note_on,82,100,360
2,note_on,82,0,120
2,note_on,85,84,0
2,note_on,85,0,120
2,note_on,88,84,0
2,note_on,88,0,120
2,note_on,85,102,360
2,note_on,85,0,120
2,note_on,88,84,0
2,note_on,88,0,114
2,note_on,82,97,486
2,note_on,82,0,120
2,note_on,85,84,0
2,note_on,85,0,114
2,note_on,79,96,486
2,note_on,79,0,120
2,note_on,82,84,0
2,note_on,82,0,114
2,note_on,76,96,486
2,note_on,76,0,120
2,note_on,79,84,0
2,note_on,79,0,114
2,note_on,73,96,486
2,note_on,73,0,120
2,note_on,76,84,0
2,note_on,76,0,114
2,note_on,70,96,486
2,note_on,70,0,120
2,note_on,73,84,0
2,note_on,73,0,114
2,note_on,67,96,486
2,note_on,67,0,120
2,note_on,70,84,0
2,note_on,70,0,114
2,note_on,64,96,486
2,note_on,64,0,120
2,note_on,67,84,0
2,note_on,67,0,114
2,note_on,61,91,486
2,note_on,61,0,120
2,note_on,64,80,0
2,note_on,64,0,114
2,note_on,58,91,486
2,note_on,58,0,120
2,note_on,61,80,0
2,note_on,61,0,114
2,note_on,55,91,486
2,note_on,55,0,120
2,note_on,58,80,0
2,note_on,58,0,114
2,note_on,52,91,486
2,note_on,52,0,120
2,note_on,55,80,0
2,note_on,55,0,114
2,note_on,49,91,486
2,note_on,49,0,120
2,note_on,52,80,0
2,note_on,52,0,114
2,note_on,46,91,486
2,note_on,46,0,120
2,note_on,49,80,0
2,note_on,49,0,114
2,note_on,43,91,486
2,note_on,43,0,120
2,note_on,46,80,0
2,note_on,46,0,114
2,note_on,40,91,486
2,note_on,40,0,120
2,note_on,43,80,0
2,note_on,43,0,114
2,note_on,37,104,486
2,note_on,37,0,480
2,note_on,73,106,240
2,note_on,73,0,240
2,note_on,73,100,0
2,note_on,73,0,240
2,note_on,73,100,0
2,note_on,73,0,240
2,note_on,73,105,0
2,note_on,73,0,480
2,note_on,37,98,240
2,note_on,37,0,240
2,note_on,37,93,0
2,note_on,37,0,240
2,note_on,37,93,0
2,note_on,37,0,240
2,note_on,37,100,0
2,note_on,37,0,480
2,note_on,73,106,240
2,note_on,73,0,240
2,note_on,73,100,0
2,note_on,73,0,240
2,note_on,73,100,0
2,note_on,73,0,240
2,note_on,73,105,0
2,note_on,73,0,480
2,note_on,37,98,240
2,note_on,37,0,240
2,note_on,37,93,0
2,note_on,37,0,240
2,note_on,37,93,0
2,note_on,37,0,240
2,note_on,36,100,0
2,note_on,36,0,480
2,note_on,73,106,240
2,note_on,73,0,240
2,note_on,73,100,0
2,note_on,73,0,240
2,note_on,73,100,0
2,note_on,73,0,240
2,note_on,72,105,0
2,note_on,72,0,480
2,note_on,37,98,240
2,note_on,37,0,240
2,note_on,37,93,0
2,note_on,37,0,240
2,note_on,37,93,0
2,note_on,37,0,240
2,note_on,36,100,0
2,note_on,36,0,480
2,note_on,73,106,240
2,note_on,73,0,240
2,note_on,73,100,0
2,note_on,73,0,240
2,note_on,73,100,0
2,note_on,73,0,240
2,note_on,72,105,0
2,note_on,72,0,480
2,note_on,37,110,240
2,note_on,37,0,240
2,note_on,37,105,0
2,note_on,37,0,240
2,note_on,37,105,0
2,note_on,37,0,240
2,note_on,36,59,0
2,note_on,36,0,220
2,note_on,36,30,20
2,note_on,36,0,220
2,note_on,36,30,20
2,note_on,36,0,220
2,note_on,36,32,20
2,note_on,36,0,220
2,note_on,36,27,20
2,note_on,36,0,220
2,note_on,36,27,20
2,note_on,36,0,220
2,note_on,36,30,20
2,note_on,36,0,220
2,note_on,36,24,20
2,note_on,36,0,220
2,note_on,36,24,20
2,note_on,36,0,220
2,note_on,36,28,20
2,note_on,36,0,220
2,note_on,36,22,20
2,note_on,36,0,220
2,note_on,36,22,20
2,note_on,36,0,220
2,note_on,36,24,20
2,note_on,36,0,220
2,note_on,36,22,20
2,note_on,36,0,220
2,note_on,36,22,20
2,note_on,36,0,220
2,note_on,36,24,20
2,note_on,36,0,220
2,note_on,36,20,20
2,note_on,36,0,220
2,note_on,36,20,20
2,note_on,36,0,220
2,note_on,36,23,20
2,note_on,36,0,220
2,note_on,36,18,20
2,note_on,36,0,220
2,note_on,36,23,20
2,note_on,36,0,220
2,note_on,36,23,20
2,note_on,36,0,220
2,note_on,36,20,20
2,note_on,36,0,220
2,note_on,36,22,20
2,note_on,36,0,220
2,note_on,36,23,20
2,note_on,36,0,220
2,note_on,36,20,20
2,note_on,36,0,220
2,note_on,36,22,20
2,note_on,36,0,220
2,note_on,36,23,20
2,note_on,36,0,220
2,note_on,36,20,20
2,note_on,36,0,220
2,note_on,36,22,20
2,note_on,36,0,220
2,note_on,36,23,20
2,note_on,36,0,220
2,note_on,36,20,20
2,note_on,36,0,220
2,note_on,36,22,20
2,note_on,36,0,220
2,note_on,36,23,20
2,note_on,36,0,220
2,note_on,36,20,20
2,note_on,36,0,220
2,note_on,36,22,20
2,note_on,36,0,220
2,note_on,36,23,20
2,note_on,36,0,220
2,note_on,36,20,20
2,note_on,36,0,220
2,note_on,36,22,20
2,note_on,36,0,220
2,note_on,36,23,20
2,note_on,36,0,220
2,note_on,36,20,20
2,note_on,36,0,220
2,note_on,36,22,20
2,note_on,36,0,220
2,note_on,36,23,20
2,note_on,36,0,220
2,note_on,36,20,20
2,note_on,36,0,220
2,note_on,36,22,20
2,note_on,36,0,220
2,note_on,36,23,20
2,note_on,36,0,220
2,note_on,36,20,20
2,note_on,36,0,220
2,note_on,36,22,20
2,note_on,36,0,220
2,note_on,36,23,20
2,note_on,36,0,220
2,note_on,36,20,20
2,note_on,36,0,220
2,note_on,36,22,20
2,note_on,36,0,220
2,note_on,36,23,20
2,note_on,36,0,220
2,note_on,36,20,20
2,note_on,36,0,220
2,note_on,36,22,20
2,note_on,36,0,220
2,note_on,36,23,20
2,note_on,36,0,220
2,note_on,36,20,20
2,note_on,36,0,220
2,note_on,36,22,20
2,note_on,36,0,220
2,note_on,36,23,20
2,note_on,36,0,220
2,note_on,36,20,20
2,note_on,36,0,220
2,note_on,36,22,20
2,note_on,36,0,220
2,note_on,36,23,20
2,note_on,36,0,220
2,note_on,36,20,20
2,note_on,36,0,220
2,note_on,36,22,20
2,note_on,36,0,220
2,note_on,36,23,20
2,note_on,36,0,220
2,note_on,36,20,20
2,note_on,36,0,220
2,note_on,36,22,20
2,note_on,36,0,220
2,note_on,36,23,20
2,note_on,36,0,220
2,note_on,37,20,20
2,note_on,37,0,220
2,note_on,37,22,20
2,note_on,37,0,220
2,note_on,37,23,20
2,note_on,37,0,220
2,note_on,37,20,20
2,note_on,37,0,220
2,note_on,37,22,20
2,note_on,37,0,220
2,note_on,37,23,20
2,note_on,37,0,220
2,note_on,37,20,20
2,note_on,37,0,220
2,note_on,37,22,20
2,note_on,37,0,220
2,note_on,37,23,20
2,note_on,37,0,220
2,note_on,37,20,20
2,note_on,37,0,220
2,note_on,37,22,20
2,note_on,37,0,220
2,note_on,37,23,20
2,note_on,37,0,220
2,note_on,37,20,20
2,note_on,37,0,220
2,note_on,37,22,20
2,note_on,37,0,220
2,note_on,37,23,20
2,note_on,37,0,220
2,note_on,37,20,20
2,note_on,37,0,220
2,note_on,37,22,20
2,note_on,37,0,220
2,note_on,37,23,20
2,note_on,37,0,220
2,note_on,37,20,20
2,note_on,37,0,220
2,note_on,37,22,20
2,note_on,37,0,220
2,note_on,37,23,20
2,note_on,37,0,220
2,note_on,37,20,20
2,note_on,37,0,220
2,note_on,37,22,20
2,note_on,37,0,220
2,note_on,37,23,20
2,note_on,37,0,220
2,note_on,37,20,20
2,note_on,37,0,220
2,note_on,37,22,20
2,note_on,37,0,220
2,note_on,37,23,20
2,note_on,37,0,220
2,note_on,37,20,20
2,note_on,37,0,220
2,note_on,37,22,20
2,note_on,37,0,220
2,note_on,37,23,20
2,note_on,37,0,220
2,note_on,37,20,20
2,note_on,37,0,220
2,note_on,37,22,20
2,note_on,37,0,220
2,note_on,37,23,20
2,note_on,37,0,220
2,note_on,37,20,20
2,note_on,37,0,220
2,note_on,37,22,20
2,note_on,37,0,220
2,note_on,37,23,20
2,note_on,37,0,220
2,note_on,37,20,20
2,note_on,37,0,220
2,note_on,37,22,20
2,note_on,37,0,220
2,note_on,37,23,20
2,note_on,37,0,220
2,note_on,37,20,20
2,note_on,37,0,220
2,note_on,37,22,20
2,note_on,37,0,220
2,note_on,37,23,20
2,note_on,37,0,220
2,note_on,41,20,20
2,note_on,35,15,0
2,note_on,35,0,220
2,note_on,41,0,0
2,note_on,41,22,20
2,note_on,35,16,0
2,note_on,35,0,220
2,note_on,41,0,0
2,note_on,41,23,20
2,note_on,35,17,0
2,note_on,35,0,220
2,note_on,41,0,0
2,note_on,41,20,20
2,note_on,35,15,0
2,note_on,35,0,220
2,note_on,41,0,0
2,note_on,41,22,20
2,note_on,35,16,0
2,note_on,35,0,220
2,note_on,41,0,0
2,note_on,41,23,20
2,note_on,35,17,0
2,note_on,35,0,220
2,note_on,41,0,0
2,note_on,35,15,20
2,note_on,41,20,0
2,note_on,41,0,220
2,note_on,35,0,0
2,note_on,35,16,20
2,note_on,41,22,0
2,note_on,41,0,220
2,note_on,35,0,0
2,note_on,35,17,20
2,note_on,41,23,0
2,note_on,41,0,220
2,note_on,35,0,0
2,note_on,35,15,20
2,note_on,41,20,0
2,note_on,41,0,220
2,note_on,35,0,0
2,note_on,35,16,20
2,note_on,41,22,0
2,note_on,41,0,220
2,note_on,35,0,0
2,note_on,40,26,20
2,note_on,36,20,240
2,note_on,36,0,220
2,note_on,36,22,20
2,note_on,36,0,220
2,note_on,36,23,20
2,note_on,36,0,220
2,note_on,36,20,20
2,note_on,36,0,220
2,note_on,36,22,20
2,note_on,36,0,220
2,note_on,40,0,20
2,note_on,41,26,0
2,note_on,36,20,240
2,note_on,36,0,220
2,note_on,36,22,20
2,note_on,36,0,220
2,note_on,36,23,20
2,note_on,36,0,220
2,note_on,36,20,20
2,note_on,36,0,220
2,note_on,36,22,20
2,note_on,36,0,220
2,note_on,41,0,20
2,note_on,40,26,0
2,note_on,40,0,220
2,note_on,36,20,20
2,note_on,36,0,220
2,note_on,36,22,20
2,note_on,36,0,220
2,note_on,49,27,20
2,note_on,36,23,0
2,note_on,36,0,220
2,note_on,49,0,0
2,note_on,36,20,20
2,note_on,49,26,0
2,note_on,49,0,220
2,note_on,36,0,0
2,note_on,49,26,20
2,note_on,36,22,0
2,note_on,36,0,220
2,note_on,49,0,0
2,note_on,48,26,20
2,note_on,36,26,0
2,note_on,36,0,220
2,note_on,36,20,20
2,note_on,36,0,220
2,note_on,48,0,20
2,note_on,36,22,0
2,note_on,36,0,220
2,note_on,36,23,20
2,note_on,36,0,220
2,note_on,36,20,20
2,note_on,36,0,220
2,note_on,36,22,20
2,note_on,36,0,220
2,note_on,43,26,20
2,note_on,36,20,240
2,note_on,36,0,220
2,note_on,36,22,20
2,note_on,36,0,220
2,note_on,36,23,20
2,note_on,36,0,220
2,note_on,36,20,20
2,note_on,36,0,220
2,note_on,36,22,20
2,note_on,36,0,220
2,note_on,43,0,20
2,note_on,44,26,0
2,note_on,36,20,240
2,note_on,36,0,220
2,note_on,36,22,20
2,note_on,36,0,220
2,note_on,36,23,20
2,note_on,36,0,220
2,note_on,36,20,20
2,note_on,36,0,220
2,note_on,36,22,20
2,note_on,36,0,220
2,note_on,44,0,20
2,note_on,43,26,0
2,note_on,43,0,220
2,note_on,36,20,20
2,note_on,36,0,220
2,note_on,36,22,20
2,note_on,36,0,220
2,note_on,36,23,20
2,note_on,49,27,0
2,note_on,49,0,220
2,note_on,36,0,0
2,note_on,49,26,20
2,note_on,36,20,0
2,note_on,36,0,220
2,note_on,49,0,0
2,note_on,49,26,20
2,note_on,36,22,0
2,note_on,36,0,220
2,note_on,49,0,0
2,note_on,48,26,20
2,note_on,36,26,0
2,note_on,36,0,220
2,note_on,36,20,20
2,note_on,36,0,220
2,note_on,48,0,20
2,note_on,36,22,0
2,note_on,36,0,220
2,note_on,36,23,20
2,note_on,36,0,220
2,note_on,36,20,20
2,note_on,36,0,220
2,note_on,36,22,20
2,note_on,36,0,220
2,note_on,36,26,20
2,note_on,36,0,220
2,note_on,36,20,20
2,note_on,36,0,220
2,note_on,36,22,20
2,note_on,36,0,220
2,note_on,49,27,20
2,note_on,36,23,0
2,note_on,36,0,220
2,note_on,49,0,0
2,note_on,36,20,20
2,note_on,49,26,0
2,note_on,49,0,220
2,note_on,36,0,0
2,note_on,36,22,20
2,note_on,49,26,0
2,note_on,49,0,220
2,note_on,36,0,0
2,note_on,48,26,20
2,note_on,36,26,0
2,note_on,36,0,220
2,note_on,36,20,20
2,note_on,36,0,220
2,note_on,48,0,20
2,note_on,36,22,0
2,note_on,36,0,220
2,note_on,36,43,20
2,note_on,36,0,220
2,note_on,36,38,20
2,note_on,36,0,220
2,note_on,36,41,20
2,note_on,36,0,220
2,note_on,36,50,20
2,note_on,36,0,220
2,note_on,36,40,20
2,note_on,36,0,220
2,note_on,36,43,20
2,note_on,36,0,220
2,note_on,36,47,20
2,note_on,36,0,220
2,note_on,36,43,20
2,note_on,36,0,220
2,note_on,36,45,20
2,note_on,36,0,220
2,note_on,36,55,20
2,note_on,36,0,220
2,note_on,36,45,20
2,note_on,36,0,220
2,note_on,36,48,20
2,note_on,36,0,220
2,note_on,36,52,20
2,note_on,36,0,220
2,note_on,36,47,20
2,note_on,36,0,220
2,note_on,55,75,20
2,note_on,36,50,0
2,note_on,55,0,120
2,note_on,58,63,0
2,note_on,36,0,100
2,note_on,58,0,20
2,note_on,36,61,0
2,note_on,52,76,0
2,note_on,52,0,120
2,note_on,55,65,0
2,note_on,36,0,100
2,note_on,55,0,20
2,note_on,36,49,0
2,note_on,46,77,0
2,note_on,46,0,120
2,note_on,52,62,0
2,note_on,36,0,100
2,note_on,52,0,20
2,note_on,43,76,0
2,note_on,36,52,0
2,note_on,43,0,120
2,note_on,46,69,0
2,note_on,36,0,100
2,note_on,46,0,20
2,note_on,36,57,0
2,note_on,49,80,0
2,note_on,49,0,120
2,note_on,46,70,0
2,note_on,36,0,100
2,note_on,46,0,20
2,note_on,52,81,0
2,note_on,36,51,0
2,note_on,52,0,120
2,note_on,49,71,0
2,note_on,36,0,100
2,note_on,49,0,20
2,note_on,36,54,0
2,note_on,55,86,0
2,note_on,55,0,120
2,note_on,52,78,0
2,note_on,36,0,100
2,note_on,52,0,20
2,note_on,58,94,0
2,note_on,43,66,0
2,note_on,31,61,0
2,note_on,31,0,240
2,note_on,43,0,0
2,note_on,58,0,0
2,note_on,36,58,0
2,note_on,36,0,240
2,note_on,36,57,0
2,note_on,36,0,240
2,note_on,49,93,0
2,note_on,61,93,0
2,note_on,56,93,0
2,note_on,41,68,0
2,note_on,29,62,0
2,note_on,29,0,240
2,note_on,56,0,0
2,note_on,49,0,0
2,note_on,61,0,0
2,note_on,41,0,0
2,note_on,36,78,0
2,note_on,36,0,240
2,note_on,36,66,0
2,note_on,36,0,240
2,note_on,52,48,0
2,note_on,36,40,0
2,note_on,60,48,0
2,note_on,40,40,0
2,note_on,55,48,0
2,note_on,55,0,2100
2,note_on,60,0,0
2,note_on,52,0,0
2,note_on,36,0,0
2,note_on,40,0,0
2,note_on,36,27,60
2,note_on,36,0,600
2,note_on,33,25,0
2,note_on,33,0,120
2,note_on,29,81,0
2,note_on,29,0,240
2,note_on,33,61,240
2,note_on,29,61,0
2,note_on,41,81,0
2,note_on,36,69,0
2,note_on,36,0,475
2,note_on,33,0,0
2,note_on,29,0,0
2,note_on,41,0,0
2,note_on,33,57,5
2,note_on,36,64,0
2,note_on,41,76,0
2,note_on,29,57,0
2,note_on,29,0,475
2,note_on,33,0,0
2,note_on,36,0,0
2,note_on,41,0,0
2,note_on,33,55,5
2,note_on,29,55,0
2,note_on,41,73,0
2,note_on,36,63,0
2,note_on,36,0,475
2,note_on,33,0,0
2,note_on,29,0,0
2,note_on,41,0,0
2,note_on,33,61,5
2,note_on,36,69,0
2,note_on,41,81,0
2,note_on,29,61,0
2,note_on,29,0,475
2,note_on,33,0,0
2,note_on,36,0,0
2,note_on,41,0,0
2,note_on,33,55,5
2,note_on,29,55,0
2,note_on,41,73,0
2,note_on,36,63,0
2,note_on,36,0,475
2,note_on,33,0,0
2,note_on,29,0,0
2,note_on,41,0,0
2,note_on,29,61,5
2,note_on,33,61,0
2,note_on,36,69,0
2,note_on,41,81,0
2,note_on,41,0,2160
2,note_on,29,0,0
2,note_on,33,0,0
2,note_on,36,0,0
2,note_on,33,33,0
2,note_on,33,0,600
2,note_on,36,28,0
2,note_on,36,0,120
2,note_on,41,34,0
2,note_on,41,0,720
2,note_on,45,34,0
2,note_on,45,0,600
2,note_on,48,29,0
2,note_on,48,0,120
2,note_on,53,34,0
2,note_on,53,0,715
2,note_on,41,31,5
2,note_on,41,0,720
2,note_on,52,81,0
2,note_on,55,81,0
2,note_on,55,0,238
2,note_on,52,0,0
2,note_on,55,75,2
2,note_on,40,61,240
2,note_on,48,81,0
2,note_on,43,69,0
2,note_on,55,0,235
2,note_on,40,0,240
2,note_on,48,0,0
2,note_on,43,0,0
2,note_on,43,64,5
2,note_on,40,57,0
2,note_on,48,76,0
2,note_on,48,0,475
2,note_on,40,0,0
2,note_on,43,0,0
2,note_on,40,55,5
2,note_on,48,73,0
2,note_on,43,63,0
2,note_on,43,0,475
2,note_on,48,0,0
2,note_on,40,0,0
2,note_on,43,69,5
2,note_on,48,81,0
2,note_on,40,61,0
2,note_on,40,0,475
2,note_on,48,0,0
2,note_on,43,0,0
2,note_on,40,55,5
2,note_on,48,73,0
2,note_on,43,63,0
2,note_on,43,0,475
2,note_on,48,0,0
2,note_on,40,0,0
2,note_on,64,30,5
2,note_on,67,30,0
2,note_on,67,0,1440
2,note_on,64,0,0
2,note_on,65,30,0
2,note_on,71,30,0
2,note_on,68,30,0
2,note_on,68,0,1440
2,note_on,71,0,0
2,note_on,65,0,0
2,note_on,55,81,0
2,note_on,52,81,0
2,note_on,52,0,238
2,note_on,55,0,0
2,note_on,55,75,2
2,note_on,43,69,240
2,note_on,40,61,0
2,note_on,48,81,0
2,note_on,55,0,235
2,note_on,43,0,240
2,note_on,40,0,0
2,note_on,48,0,0
2,note_on,40,57,5
2,note_on,48,76,0
2,note_on,43,64,0
2,note_on,43,0,475
2,note_on,48,0,0
2,note_on,40,0,0
2,note_on,43,63,5
2,note_on,48,73,0
2,note_on,40,55,0
2,note_on,40,0,475
2,note_on,48,0,0
2,note_on,43,0,0
2,note_on,40,61,5
2,note_on,48,81,0
2,note_on,43,69,0
2,note_on,43,0,475
2,note_on,48,0,0
2,note_on,40,0,0
2,note_on,43,63,5
2,note_on,48,73,0
2,note_on,40,55,0
2,note_on,40,0,475
2,note_on,48,0,0
2,note_on,43,0,0
2,note_on,67,30,5
2,note_on,64,30,0
2,note_on,64,0,1440
2,note_on,67,0,0
2,note_on,68,29,0
2,note_on,65,30,0
2,note_on,65,0,1440
2,note_on,68,0,0
2,note_on,43,61,480
2,note_on,52,81,0
2,note_on,46,69,0
2,note_on,46,0,475
2,note_on,52,0,0
2,note_on,43,0,0
2,note_on,46,64,5
2,note_on,43,57,0
2,note_on,52,76,0
2,note_on,52,0,475
2,note_on,43,0,0
2,note_on,46,0,0
2,note_on,43,55,5
2,note_on,52,73,0
2,note_on,46,63,0
2,note_on,46,0,475
2,note_on,52,0,0
2,note_on,43,0,0
2,note_on,46,69,5
2,note_on,52,81,0
2,note_on,43,61,0
2,note_on,43,0,475
2,note_on,52,0,0
2,note_on,46,0,0
2,note_on,43,55,5
2,note_on,52,73,0
2,note_on,46,63,0
2,note_on,46,0,475
2,note_on,52,0,0
2,note_on,43,0,0
2,note_on,67,36,5
2,note_on,70,36,0
2,note_on,70,0,1440
2,note_on,67,0,0
2,note_on,68,36,0
2,note_on,72,36,0
2,note_on,72,0,1440
2,note_on,68,0,0
2,note_on,46,61,480
2,note_on,52,69,0
2,note_on,55,81,0
2,note_on,49,61,0
2,note_on,49,0,475
2,note_on,46,0,0
2,note_on,52,0,0
2,note_on,55,0,0
2,note_on,58,57,5
2,note_on,64,64,0
2,note_on,61,57,0
2,note_on,67,76,0
2,note_on,67,0,475
2,note_on,58,0,0
2,note_on,64,0,0
2,note_on,61,0,0
2,note_on,58,55,5
2,note_on,64,63,0
2,note_on,67,73,0
2,note_on,61,55,0
2,note_on,61,0,475
2,note_on,58,0,0
2,note_on,64,0,0
2,note_on,67,0,0
2,note_on,61,61,5
2,note_on,64,69,0
2,note_on,67,81,0
2,note_on,58,61,0
2,note_on,58,0,475
2,note_on,61,0,0
2,note_on,64,0,0
2,note_on,67,0,0
2,note_on,61,55,5
2,note_on,58,55,0
2,note_on,67,73,0
2,note_on,64,63,0
2,note_on,64,0,475
2,note_on,61,0,0
2,note_on,58,0,0
2,note_on,67,0,0
2,note_on,70,59,5
2,note_on,73,59,0
2,note_on,73,0,1440
2,note_on,70,0,0
2,note_on,71,59,0
2,note_on,74,59,0
2,note_on,74,0,1440
2,note_on,71,0,0
2,note_on,60,39,0
2,note_on,60,0,240
2,note_on,72,36,0
2,note_on,72,0,220
2,note_on,72,36,20
2,note_on,72,0,220
2,note_on,72,39,20
2,note_on,72,0,220
2,note_on,72,37,20
2,note_on,72,0,220
2,note_on,72,36,20
2,note_on,72,0,220
2,note_on,72,39,20
2,note_on,72,0,220
2,note_on,72,35,20
2,note_on,72,0,220
2,note_on,72,35,20
2,note_on,72,0,220
2,note_on,72,39,20
2,note_on,72,0,220
2,note_on,72,36,20
2,note_on,72,0,220
2,note_on,72,36,20
2,note_on,72,0,220
2,note_on,72,38,260
2,note_on,72,0,220
2,note_on,72,38,20
2,note_on,72,0,220
2,note_on,68,39,20
2,note_on,65,39,0
2,note_on,65,0,240
2,note_on,68,0,0
2,note_on,72,37,0
2,note_on,72,0,220
2,note_on,72,37,20
2,note_on,72,0,220
2,note_on,72,41,20
2,note_on,72,0,220
2,note_on,72,37,20
2,note_on,72,0,220
2,note_on,72,38,20
2,note_on,72,0,220
2,note_on,72,46,20
2,note_on,72,0,220
2,note_on,72,40,20
2,note_on,72,0,220
2,note_on,72,40,20
2,note_on,72,0,220
2,note_on,72,38,260
2,note_on,72,0,220
2,note_on,72,38,20
2,note_on,72,0,220
2,note_on,68,40,20
2,note_on,65,40,0
2,note_on,65,0,240
2,note_on,68,0,0
2,note_on,72,37,0
2,note_on,72,0,220
2,note_on,72,37,20
2,note_on,72,0,220
2,note_on,65,37,20
2,note_on,68,37,0
2,note_on,68,0,240
2,note_on,65,0,0
2,note_on,72,37,0
2,note_on,72,0,220
2,note_on,72,37,20
2,note_on,72,0,220
2,note_on,65,37,20
2,note_on,68,37,0
2,note_on,68,0,240
2,note_on,65,0,0
2,note_on,72,37,0
2,note_on,72,0,220
2,note_on,72,37,20
2,note_on,72,0,220
2,note_on,64,39,20
2,note_on,67,39,0
2,note_on,67,0,240
2,note_on,64,0,0
2,note_on,60,37,0
2,note_on,60,0,220
2,note_on,60,37,20
2,note_on,60,0,220
2,note_on,60,38,20
2,note_on,60,0,220
2,note_on,60,37,20
2,note_on,60,0,220
2,note_on,60,37,20
2,note_on,60,0,220
2,note_on,60,37,20
2,note_on,60,0,220
2,note_on,60,37,20
2,note_on,60,0,220
2,note_on,60,37,20
2,note_on,60,0,220
2,note_on,60,38,20
2,note_on,60,0,220
2,note_on,60,37,20
2,note_on,60,0,220
2,note_on,60,37,20
2,note_on,60,0,220
2,note_on,60,39,20
2,note_on,60,0,220
2,note_on,60,37,20
2,note_on,60,0,220
2,note_on,60,37,20
2,note_on,60,0,220
2,note_on,60,38,20
2,note_on,60,0,220
2,note_on,60,37,20
2,note_on,60,0,220
2,note_on,60,37,20
2,note_on,60,0,220
2,note_on,60,38,20
2,note_on,60,0,220
2,note_on,60,39,20
2,note_on,60,0,220
2,note_on,60,37,20
2,note_on,60,0,220
2,note_on,55,44,20
2,note_on,58,44,0
2,note_on,58,0,240
2,note_on,55,0,0
2,note_on,60,37,0
2,note_on,60,0,220
2,note_on,60,37,20
2,note_on,60,0,220
2,note_on,60,39,20
2,note_on,60,0,220
2,note_on,60,37,20
2,note_on,60,0,220
2,note_on,60,37,20
2,note_on,60,0,220
2,note_on,60,37,20
2,note_on,60,0,220
2,note_on,60,37,20
2,note_on,60,0,220
2,note_on,60,37,20
2,note_on,60,0,220
2,note_on,60,38,20
2,note_on,60,0,220
2,note_on,60,37,20
2,note_on,60,0,220
2,note_on,60,37,20
2,note_on,60,0,220
2,note_on,56,48,20
2,note_on,53,44,0
2,note_on,53,0,240
2,note_on,56,0,0
2,note_on,60,37,0
2,note_on,60,0,220
2,note_on,60,37,20
2,note_on,60,0,220
2,note_on,60,38,260
2,note_on,60,0,220
2,note_on,60,38,20
2,note_on,60,0,220
2,note_on,53,40,20
2,note_on,56,40,0
2,note_on,56,0,240
2,note_on,53,0,0
2,note_on,60,37,0
2,note_on,60,0,220
2,note_on,60,37,20
2,note_on,60,0,220
2,note_on,56,37,20
2,note_on,53,37,0
2,note_on,53,0,240
2,note_on,56,0,0
2,note_on,60,37,0
2,note_on,60,0,220
2,note_on,60,37,20
2,note_on,60,0,220
2,note_on,56,36,20
2,note_on,53,36,0
2,note_on,53,0,240
2,note_on,56,0,0
2,note_on,60,37,0
2,note_on,60,0,220
2,note_on,60,37,20
2,note_on,60,0,220
2,note_on,60,38,260
2,note_on,60,0,220
2,note_on,60,38,20
2,note_on,60,0,220
2,note_on,52,40,20
2,note_on,55,40,0
2,note_on,55,0,240
2,note_on,52,0,0
2,note_on,60,37,0
2,note_on,60,0,220
2,note_on,60,37,20
2,note_on,60,0,220
2,note_on,60,37,260
2,note_on,60,0,220
2,note_on,60,37,20
2,note_on,60,0,220
2,note_on,54,36,20
2,note_on,51,36,0
2,note_on,51,0,240
2,note_on,54,0,0
2,note_on,60,37,0
2,note_on,60,0,220
2,note_on,60,37,20
2,note_on,60,0,220
2,note_on,60,37,260
2,note_on,60,0,220
2,note_on,60,36,20
2,note_on,60,0,220
2,note_on,50,38,20
2,note_on,53,38,0
2,note_on,53,0,240
2,note_on,50,0,0
2,note_on,60,34,0
2,note_on,60,0,220
2,note_on,60,34,20
2,note_on,60,0,220
2,note_on,60,32,260
2,note_on,60,0,220
2,note_on,60,32,20
2,note_on,60,0,220
2,note_on,53,30,20
2,note_on,49,30,0
2,note_on,49,0,240
2,note_on,53,0,0
2,note_on,60,31,0
2,note_on,60,0,220
2,note_on,60,30,20
2,note_on,60,0,220
2,note_on,48,25,260
2,note_on,48,0,220
2,note_on,48,26,20
2,note_on,48,0,220
2,note_on,48,28,20
2,note_on,48,0,220
2,note_on,48,26,20
2,note_on,48,0,220
2,note_on,48,26,20
2,note_on,48,0,220
2,note_on,48,28,20
2,note_on,48,0,220
2,note_on,48,26,20
2,note_on,48,0,220
2,note_on,48,26,20
2,note_on,48,0,220
2,note_on,48,28,20
2,note_on,48,0,220
2,note_on,48,26,20
2,note_on,48,0,220
2,note_on,48,27,20
2,note_on,48,0,220
2,note_on,55,41,20
2,note_on,46,41,0
2,note_on,52,41,0
2,note_on,48,41,0
2,note_on,36,25,240
2,note_on,36,0,240
2,note_on,36,26,0
2,note_on,36,0,240
2,note_on,48,0,0
2,note_on,55,0,0
2,note_on,46,0,0
2,note_on,52,0,0
2,note_on,36,28,0
2,note_on,36,0,240
2,note_on,36,26,0
2,note_on,36,0,240
2,note_on,36,26,0
2,note_on,36,0,240
2,note_on,36,28,0
2,note_on,36,0,240
2,note_on,36,26,0
2,note_on,36,0,240
2,note_on,36,26,0
2,note_on,36,0,240
2,note_on,36,28,0
2,note_on,36,0,240
2,note_on,36,26,0
2,note_on,36,0,240
2,note_on,36,27,0
2,note_on,36,0,240
2,note_on,29,28,0
2,note_on,29,0,240
2,note_on,33,20,0
2,note_on,36,20,0
2,note_on,41,25,0
2,note_on,41,0,240
2,note_on,36,0,0
2,note_on,33,0,0
2,note_on,29,26,0
2,note_on,29,0,240
2,note_on,33,22,0
2,note_on,36,22,0
2,note_on,41,28,0
2,note_on,41,0,240
2,note_on,36,0,0
2,note_on,33,0,0
2,note_on,29,26,0
2,note_on,29,0,240
2,note_on,33,20,0
2,note_on,36,20,0
2,note_on,41,26,0
2,note_on,41,0,240
2,note_on,36,0,0
2,note_on,33,0,0
2,note_on,29,28,0
2,note_on,29,0,240
2,note_on,33,20,0
2,note_on,36,20,0
2,note_on,41,26,0
2,note_on,41,0,240
2,note_on,36,0,0
2,note_on,33,0,0
2,note_on,29,26,0
2,note_on,29,0,240
2,note_on,45,40,0
2,note_on,36,22,0
2,note_on,33,22,0
2,note_on,41,28,0
2,note_on,41,0,240
2,note_on,33,0,0
2,note_on,36,0,0
2,note_on,29,26,0
2,note_on,29,0,240
2,note_on,41,27,0
2,note_on,33,21,0
2,note_on,36,21,0
2,note_on,45,0,120
2,note_on,48,37,0
2,note_on,48,0,120
2,note_on,36,0,0
2,note_on,33,0,0
2,note_on,41,0,0
2,note_on,29,28,0
2,note_on,29,0,240
2,note_on,33,20,0
2,note_on,36,20,0
2,note_on,41,25,0
2,note_on,41,0,240
2,note_on,36,0,0
2,note_on,33,0,0
2,note_on,29,26,0
2,note_on,29,0,240
2,note_on,41,28,0
2,note_on,36,22,0
2,note_on,33,22,0
2,note_on,33,0,240
2,note_on,36,0,0
2,note_on,41,0,0
2,note_on,29,26,0
2,note_on,29,0,240
2,note_on,36,20,0
2,note_on,41,26,0
2,note_on,33,20,0
2,note_on,33,0,240
2,note_on,41,0,0
2,note_on,36,0,0
2,note_on,31,28,0
2,note_on,31,0,240
2,note_on,34,20,0
2,note_on,40,20,0
2,note_on,43,26,0
2,note_on,43,0,240
2,note_on,40,0,0
2,note_on,34,0,0
2,note_on,31,26,0
2,note_on,31,0,240
2,note_on,34,22,0
2,note_on,43,28,0
2,note_on,40,22,0
2,note_on,40,0,240
2,note_on,43,0,0
2,note_on,34,0,0
2,note_on,31,26,0
2,note_on,31,0,240
2,note_on,40,21,0
2,note_on,43,27,0
2,note_on,34,21,0
2,note_on,34,0,240
2,note_on,43,0,0
2,note_on,40,0,0
2,note_on,33,28,0
2,note_on,33,0,240
2,note_on,41,20,0
2,note_on,45,25,0
2,note_on,36,20,0
2,note_on,36,0,240
2,note_on,45,0,0
2,note_on,41,0,0
2,note_on,33,26,0
2,note_on,33,0,240
2,note_on,48,40,0
2,note_on,45,28,0
2,note_on,41,22,0
2,note_on,36,22,0
2,note_on,36,0,240
2,note_on,41,0,0
2,note_on,45,0,0
2,note_on,33,26,0
2,note_on,33,0,240
2,note_on,36,20,0
2,note_on,45,26,0
2,note_on,41,20,0
2,note_on,41,0,240
2,note_on,45,0,0
2,note_on,36,0,0
2,note_on,33,28,0
2,note_on,33,0,240
2,note_on,45,26,0
2,note_on,36,20,0
2,note_on,41,20,0
2,note_on,41,0,240
2,note_on,36,0,0
2,note_on,45,0,0
2,note_on,33,26,0
2,note_on,33,0,240
2,note_on,48,0,0
2,note_on,41,28,0
2,note_on,50,40,0
2,note_on,41,0,240
2,note_on,34,26,0
2,note_on,34,0,240
2,note_on,41,27,0
2,note_on,50,0,120
2,note_on,46,37,0
2,note_on,46,0,120
2,note_on,41,0,0
2,note_on,45,40,0
2,note_on,36,28,0
2,note_on,36,0,240
2,note_on,41,25,0
2,note_on,41,0,240
2,note_on,36,26,0
2,note_on,36,0,240
2,note_on,45,0,0
2,note_on,41,28,0
2,note_on,48,40,0
2,note_on,41,0,240
2,note_on,36,25,0
2,note_on,36,0,240
2,note_on,41,25,0
2,note_on,48,0,120
2,note_on,45,36,0
2,note_on,45,0,120
2,note_on,41,0,0
2,note_on,43,40,0
2,note_on,36,28,0
2,note_on,36,0,240
2,note_on,40,25,0
2,note_on,40,0,240
2,note_on,36,25,0
2,note_on,36,0,240
2,note_on,43,0,0
2,note_on,48,40,0
2,note_on,40,28,0
2,note_on,40,0,240
2,note_on,36,25,0
2,note_on,36,0,240
2,note_on,40,25,0
2,note_on,48,0,120
2,note_on,46,36,0
2,note_on,46,0,120
2,note_on,40,0,0
2,note_on,41,28,0
2,note_on,41,0,240
2,note_on,45,20,0
2,note_on,48,20,0
2,note_on,53,25,0
2,note_on,53,0,240
2,note_on,48,0,0
2,note_on,45,0,0
2,note_on,41,27,0
2,note_on,41,0,240
2,note_on,45,23,0
2,note_on,48,23,0
2,note_on,53,29,0
2,note_on,53,0,240
2,note_on,48,0,0
2,note_on,45,0,0
2,note_on,41,28,0
2,note_on,41,0,240
2,note_on,45,22,0
2,note_on,48,22,0
2,note_on,53,29,0
2,note_on,53,0,240
2,note_on,48,0,0
2,note_on,45,0,0
2,note_on,41,32,0
2,note_on,41,0,240
2,note_on,45,24,0
2,note_on,48,24,0
2,note_on,53,31,0
2,note_on,53,0,240
2,note_on,48,0,0
2,note_on,45,0,0
2,note_on,41,31,0
2,note_on,41,0,240
2,note_on,57,51,0
2,note_on,48,27,0
2,note_on,45,27,0
2,note_on,53,35,0
2,note_on,53,0,240
2,note_on,45,0,0
2,note_on,48,0,0
2,note_on,41,33,0
2,note_on,41,0,240
2,note_on,53,34,0
2,note_on,45,27,0
2,note_on,48,27,0
2,note_on,57,0,120
2,note_on,60,49,0
2,note_on,60,0,120
2,note_on,48,0,0
2,note_on,45,0,0
2,note_on,53,0,0
2,note_on,41,37,0
2,note_on,41,0,240
2,note_on,45,27,0
2,note_on,48,27,0
2,note_on,53,34,0
2,note_on,53,0,240
2,note_on,48,0,0
2,note_on,45,0,0
2,note_on,41,36,0
2,note_on,41,0,240
2,note_on,45,30,0
2,note_on,48,30,0
2,note_on,53,39,0
2,note_on,53,0,240
2,note_on,48,0,0
2,note_on,45,0,0
2,note_on,41,37,0
2,note_on,41,0,240
2,note_on,48,29,0
2,note_on,53,38,0
2,note_on,45,29,0
2,note_on,45,0,240
2,note_on,53,0,0
2,note_on,48,0,0
2,note_on,43,40,0
2,note_on,43,0,240
2,note_on,46,29,0
2,note_on,48,29,0
2,note_on,55,38,0
2,note_on,55,0,240
2,note_on,48,0,0
2,note_on,46,0,0
2,note_on,43,39,0
2,note_on,43,0,240
2,note_on,46,34,0
2,note_on,55,42,0
2,note_on,48,34,0
2,note_on,48,0,240
2,note_on,55,0,0
2,note_on,46,0,0
2,note_on,43,40,0
2,note_on,43,0,240
2,note_on,48,33,0
2,note_on,55,42,0
2,note_on,46,33,0
2,note_on,46,0,240
2,note_on,55,0,0
2,note_on,48,0,0
2,note_on,57,36,0
2,note_on,48,28,0
2,note_on,45,28,0
2,note_on,53,36,0
2,note_on,53,0,2880
2,note_on,57,0,0
2,note_on,48,0,0
2,note_on,45,0,0
2,note_on,49,50,0
2,note_on,53,59,0
2,note_on,46,50,0
2,note_on,53,0,720
2,note_on,54,57,0
2,note_on,54,0,2160
2,note_on,46,0,0
2,note_on,49,0,0
2,note_on,48,28,0
2,note_on,56,36,0
2,note_on,53,36,0
2,note_on,53,0,2880
2,note_on,56,0,0
2,note_on,48,0,0
2,note_on,48,25,0
2,note_on,52,31,0
2,note_on,58,31,0
2,note_on,58,0,2880
2,note_on,52,0,0
2,note_on,48,0,0
2,note_on,56,34,10800
2,note_on,56,0,240
2,note_on,55,35,0
2,note_on,55,0,240
2,note_on,54,33,0
2,note_on,54,0,240
2,note_on,53,34,0
2,note_on,53,0,240
2,note_on,52,33,0
2,note_on,52,0,240
2,note_on,51,33,0
2,note_on,51,0,240
2,note_on,49,33,0
2,note_on,49,0,240
2,note_on,48,32,0
2,note_on,48,0,240
2,note_on,46,32,0
2,note_on,46,0,240
2,note_on,44,34,0
2,note_on,44,0,240
2,note_on,43,33,0
2,note_on,43,0,240
2,note_on,42,33,0
2,note_on,42,0,240
2,note_on,41,33,0
2,note_on,41,0,240
2,note_on,40,33,0
2,note_on,40,0,240
2,note_on,39,33,0
2,note_on,39,0,240
2,note_on,37,34,0
2,note_on,37,0,240
2,note_on,36,34,0
2,note_on,36,0,240
2,note_on,34,34,0
2,note_on,34,0,240
2,note_on,32,34,0
2,note_on,32,0,240
2,note_on,31,33,0
2,note_on,31,0,240
2,note_on,32,31,0
2,note_on,32,0,240
2,note_on,34,34,0
2,note_on,34,0,240
2,note_on,36,33,0
2,note_on,36,0,240
2,note_on,35,33,0
2,note_on,35,0,240
2,note_on,36,36,0
2,note_on,36,0,240
2,note_on,35,34,0
2,note_on,35,0,240
2,note_on,36,33,0
2,note_on,36,0,240
2,note_on,29,64,0
2,note_on,29,0,120
2,note_on,36,52,0
2,note_on,36,0,120
2,note_on,41,52,0
2,note_on,41,0,120
2,note_on,36,52,0
2,note_on,36,0,120
2,note_on,29,58,0
2,note_on,29,0,120
2,note_on,36,51,0
2,note_on,36,0,120
2,note_on,29,68,0
2,note_on,29,0,120
2,note_on,36,52,0
2,note_on,36,0,120
2,note_on,29,64,0
2,note_on,29,0,120
2,note_on,36,52,0
2,note_on,36,0,120
2,note_on,29,62,0
2,note_on,29,0,120
2,note_on,36,52,0
2,note_on,36,0,120
2,note_on,29,64,0
2,note_on,29,0,120
2,note_on,36,52,0
2,note_on,36,0,120
2,note_on,41,52,0
2,note_on,41,0,120
2,note_on,36,52,0
2,note_on,36,0,120
2,note_on,29,58,0
2,note_on,29,0,120
2,note_on,36,51,0
2,note_on,36,0,120
2,note_on,29,68,0
2,note_on,29,0,120
2,note_on,36,52,0
2,note_on,36,0,120
2,note_on,29,64,0
2,note_on,29,0,120
2,note_on,36,52,0
2,note_on,36,0,120
2,note_on,29,62,0
2,note_on,29,0,120
2,note_on,36,52,0
2,note_on,36,0,120
2,note_on,29,64,0
2,note_on,29,0,120
2,note_on,37,52,0
2,note_on,37,0,120
2,note_on,41,52,0
2,note_on,41,0,120
2,note_on,37,52,0
2,note_on,37,0,120
2,note_on,29,58,0
2,note_on,29,0,120
2,note_on,37,51,0
2,note_on,37,0,120
2,note_on,29,68,0
2,note_on,29,0,120
2,note_on,37,52,0
2,note_on,37,0,120
2,note_on,29,64,0
2,note_on,29,0,120
2,note_on,37,52,0
2,note_on,37,0,120
2,note_on,29,62,0
2,note_on,29,0,120
2,note_on,37,52,0
2,note_on,37,0,120
2,note_on,29,64,0
2,note_on,29,0,120
2,note_on,37,52,0
2,note_on,37,0,120
2,note_on,41,52,0
2,note_on,41,0,120
2,note_on,37,52,0
2,note_on,37,0,120
2,note_on,29,58,0
2,note_on,29,0,120
2,note_on,37,51,0
2,note_on,37,0,120
2,note_on,29,68,0
2,note_on,29,0,120
2,note_on,37,52,0
2,note_on,37,0,120
2,note_on,29,64,0
2,note_on,29,0,120
2,note_on,37,52,0
2,note_on,37,0,120
2,note_on,29,62,0
2,note_on,29,0,120
2,note_on,37,52,0
2,note_on,37,0,120
2,note_on,42,107,0
2,note_on,30,91,0
2,note_on,30,0,2149
2,note_on,42,0,0
2,note_on,31,74,0
2,note_on,43,88,0
2,note_on,43,0,240
2,note_on,31,0,0
2,note_on,34,72,0
2,note_on,34,0,240
2,note_on,37,82,0
2,note_on,37,0,240
2,note_on,40,95,0
2,note_on,40,0,240
2,note_on,43,82,0
2,note_on,43,0,240
2,note_on,46,82,0
2,note_on,46,0,240
2,note_on,49,85,0
2,note_on,49,0,230
2,note_on,49,83,10
2,note_on,49,0,230
2,note_on,49,83,10
2,note_on,49,0,230
2,note_on,49,97,10
2,note_on,49,0,720
2,note_on,48,89,0
2,note_on,48,0,720
2,note_on,41,64,0
2,note_on,41,0,120
2,note_on,48,52,0
2,note_on,48,0,120
2,note_on,53,52,0
2,note_on,53,0,120
2,note_on,48,52,0
2,note_on,48,0,120
2,note_on,41,58,0
2,note_on,41,0,120
2,note_on,48,51,0
2,note_on,48,0,120
2,note_on,41,68,0
2,note_on,41,0,120
2,note_on,48,52,0
2,note_on,48,0,120
2,note_on,41,64,0
2,note_on,41,0,120
2,note_on,48,52,0
2,note_on,48,0,120
2,note_on,41,62,0
2,note_on,41,0,120
2,note_on,48,52,0
2,note_on,48,0,120
2,note_on,41,64,0
2,note_on,41,0,120
2,note_on,48,52,0
2,note_on,48,0,120
2,note_on,53,52,0
2,note_on,53,0,120
2,note_on,48,52,0
2,note_on,48,0,120
2,note_on,41,58,0
2,note_on,41,0,120
2,note_on,48,51,0
2,note_on,48,0,120
2,note_on,41,68,0
2,note_on,41,0,120
2,note_on,48,52,0
2,note_on,48,0,120
2,note_on,41,64,0
2,note_on,41,0,120
2,note_on,48,52,0
2,note_on,48,0,120
2,note_on,41,62,0
2,note_on,41,0,120
2,note_on,48,52,0
2,note_on,48,0,120
2,note_on,41,64,0
2,note_on,41,0,120
2,note_on,49,52,0
2,note_on,49,0,120
2,note_on,53,52,0
2,note_on,53,0,120
2,note_on,49,52,0
2,note_on,49,0,120
2,note_on,41,58,0
2,note_on,41,0,120
2,note_on,49,51,0
2,note_on,49,0,120
2,note_on,41,68,0
2,note_on,41,0,120
2,note_on,49,52,0
2,note_on,49,0,120
2,note_on,41,64,0
2,note_on,41,0,120
2,note_on,49,52,0
2,note_on,49,0,120
2,note_on,41,62,0
2,note_on,41,0,120
2,note_on,49,52,0
2,note_on,49,0,120
2,note_on,41,64,0
2,note_on,41,0,120
2,note_on,49,52,0
2,note_on,49,0,120
2,note_on,53,52,0
2,note_on,53,0,120
2,note_on,49,52,0
2,note_on,49,0,120
2,note_on,41,58,0
2,note_on,41,0,120
2,note_on,49,51,0
2,note_on,49,0,120
2,note_on,41,68,0
2,note_on,41,0,120
2,note_on,49,52,0
2,note_on,49,0,120
2,note_on,41,64,0
2,note_on,41,0,120
2,note_on,49,52,0
2,note_on,49,0,120
2,note_on,41,62,0
2,note_on,41,0,120
2,note_on,49,52,0
2,note_on,49,0,120
2,note_on,42,90,0
2,note_on,54,106,0
2,note_on,54,0,2160
2,note_on,42,0,0
2,note_on,55,88,0
2,note_on,43,59,0
2,note_on,43,0,240
2,note_on,55,0,0
2,note_on,46,58,0
2,note_on,58,72,0
2,note_on,58,0,240
2,note_on,46,0,0
2,note_on,49,63,0
2,note_on,61,82,0
2,note_on,61,0,240
2,note_on,49,0,0
2,note_on,64,95,0
2,note_on,52,75,0
2,note_on,52,0,240
2,note_on,64,0,0
2,note_on,55,63,0
2,note_on,67,82,0
2,note_on,67,0,240
2,note_on,55,0,0
2,note_on,58,63,0
2,note_on,70,82,0
2,note_on,70,0,240
2,note_on,58,0,0
2,note_on,73,85,0
2,note_on,61,68,0
2,note_on,61,0,230
2,note_on,73,0,0
2,note_on,61,64,10
2,note_on,73,83,0
2,note_on,73,0,230
2,note_on,61,0,0
2,note_on,61,64,10
2,note_on,73,83,0
2,note_on,73,0,230
2,note_on,61,0,0
2,note_on,73,102,10
2,note_on,61,80,0
2,note_on,61,0,720
2,note_on,73,0,0
2,note_on,60,69,0
2,note_on,72,86,0
2,note_on,72,0,720
2,note_on,60,0,0
2,note_on,65,102,0
2,note_on,65,0,720
2,note_on,64,86,0
2,note_on,64,0,720
2,note_on,73,102,0
2,note_on,73,0,720
2,note_on,72,86,0
2,note_on,72,0,720
2,note_on,71,97,0
2,note_on,74,91,120
2,note_on,77,95,120
2,note_on,80,87,120
2,note_on,80,0,1080
2,note_on,71,0,0
2,note_on,74,0,0
2,note_on,77,0,0
2,note_on,72,85,0
2,note_on,76,77,120
2,note_on,79,77,120
2,note_on,79,0,1200
2,note_on,76,0,0
2,note_on,72,0,0
2,note_on,68,41,0
2,note_on,65,41,0
2,note_on,65,0,720
2,note_on,68,0,0
2,note_on,73,40,0
2,note_on,70,40,0
2,note_on,70,0,720
2,note_on,73,0,0
2,note_on,72,41,0
2,note_on,68,41,0
2,note_on,68,0,720
2,note_on,72,0,0
2,note_on,72,55,0
2,note_on,70,55,0
2,note_on,67,55,0
2,note_on,67,0,720
2,note_on,70,0,0
2,note_on,72,0,0
2,note_on,65,41,0
2,note_on,68,41,0
2,note_on,68,0,720
2,note_on,65,0,0
2,note_on,58,40,0
2,note_on,61,40,0
2,note_on,61,0,720
2,note_on,58,0,0
2,note_on,56,41,0
2,note_on,60,41,0
2,note_on,60,0,720
2,note_on,56,0,0
2,note_on,60,55,0
2,note_on,58,55,0
2,note_on,55,55,0
2,note_on,55,0,720
2,note_on,58,0,0
2,note_on,60,0,0
2,note_on,53,41,0
2,note_on,56,41,0
2,note_on,56,0,720
2,note_on,53,0,0
2,note_on,46,40,0
2,note_on,49,40,0
2,note_on,49,0,720
2,note_on,46,0,0
2,note_on,44,41,0
2,note_on,48,41,0
2,note_on,48,0,720
2,note_on,44,0,0
2,note_on,43,55,0
2,note_on,46,55,0
2,note_on,48,55,0
2,note_on,48,0,720
2,note_on,46,0,0
2,note_on,43,0,0
2,note_on,41,44,0
2,note_on,41,0,1440
2,note_on,36,36,0
2,note_on,36,0,720
2,note_on,32,30,0
2,note_on,32,0,720
2,note_on,29,24,0
2,note_on,29,0,2160
2,note_on,32,29,0
2,note_on,32,0,600
2,note_on,36,26,0
2,note_on,36,0,120
2,note_on,41,29,0
2,note_on,41,0,720
2,note_on,44,29,0
2,note_on,44,0,600
2,note_on,48,26,0
2,note_on,48,0,120
2,note_on,53,29,0
2,note_on,53,0,720
2,note_on,41,28,0
2,note_on,41,0,720
2,note_on,42,34,0
2,note_on,42,0,2160
2,note_on,48,33,0
2,note_on,48,0,600
2,note_on,51,28,0
2,note_on,51,0,120
2,note_on,54,33,0
2,note_on,54,0,720
2,note_on,60,33,0
2,note_on,60,0,600
2,note_on,63,28,0
2,note_on,63,0,120
2,note_on,66,33,0
2,note_on,66,0,720
2,note_on,54,30,0
2,note_on,54,0,720
2,note_on,53,33,0
2,note_on,53,0,720
2,note_on,56,34,0
2,note_on,56,0,600
2,note_on,61,30,0
2,note_on,61,0,120
2,note_on,65,36,0
2,note_on,65,0,720
2,note_on,53,35,0
2,note_on,53,0,720
2,note_on,51,40,0
2,note_on,51,0,600
2,note_on,54,36,0
2,note_on,54,0,120
2,note_on,56,42,0
2,note_on,56,0,600
2,note_on,60,38,0
2,note_on,60,0,120
2,note_on,63,44,0
2,note_on,63,0,600
2,note_on,66,39,0
2,note_on,66,0,120
2,note_on,68,47,0
2,note_on,68,0,600
2,note_on,72,42,0
2,note_on,72,0,120
2,note_on,61,33,0
2,note_on,61,0,240
2,note_on,65,24,0
2,note_on,68,24,0
2,note_on,73,30,0
2,note_on,73,0,240
2,note_on,68,0,0
2,note_on,65,0,0
2,note_on,61,31,0
2,note_on,61,0,240
2,note_on,65,26,0
2,note_on,68,26,0
2,note_on,73,33,0
2,note_on,73,0,240
2,note_on,68,0,0
2,note_on,65,0,0
2,note_on,61,31,0
2,note_on,61,0,240
2,note_on,65,24,0
2,note_on,68,24,0
2,note_on,73,31,0
2,note_on,73,0,240
2,note_on,68,0,0
2,note_on,65,0,0
2,note_on,61,33,0
2,note_on,61,0,240
2,note_on,65,24,0
2,note_on,68,24,0
2,note_on,73,31,0
2,note_on,73,0,240
2,note_on,68,0,0
2,note_on,65,0,0
2,note_on,61,31,0
2,note_on,61,0,240
2,note_on,65,26,0
2,note_on,73,33,0
2,note_on,68,26,0
2,note_on,68,0,240
2,note_on,73,0,0
2,note_on,65,0,0
2,note_on,61,31,0
2,note_on,61,0,240
2,note_on,65,25,0
2,note_on,68,25,0
2,note_on,73,32,0
2,note_on,73,0,240
2,note_on,68,0,0
2,note_on,65,0,0
2,note_on,61,33,0
2,note_on,61,0,240
2,note_on,65,24,0
2,note_on,68,24,0
2,note_on,73,30,0
2,note_on,73,0,240
2,note_on,68,0,0
2,note_on,65,0,0
2,note_on,61,31,0
2,note_on,61,0,240
2,note_on,65,26,0
2,note_on,68,26,0
2,note_on,73,33,0
2,note_on,73,0,240
2,note_on,68,0,0
2,note_on,65,0,0
2,note_on,61,31,0
2,note_on,61,0,240
2,note_on,68,24,0
2,note_on,73,31,0
2,note_on,65,24,0
2,note_on,65,0,240
2,note_on,73,0,0
2,note_on,68,0,0
2,note_on,63,33,0
2,note_on,63,0,240
2,note_on,66,24,0
2,note_on,68,24,0
2,note_on,75,31,0
2,note_on,75,0,240
2,note_on,68,0,0
2,note_on,66,0,0
2,note_on,63,31,0
2,note_on,63,0,240
2,note_on,68,26,0
2,note_on,66,26,0
2,note_on,75,33,0
2,note_on,75,0,240
2,note_on,66,0,0
2,note_on,68,0,0
2,note_on,63,31,0
2,note_on,63,0,240
2,note_on,66,25,0
2,note_on,68,25,0
2,note_on,75,32,0
2,note_on,75,0,240
2,note_on,68,0,0
2,note_on,66,0,0
2,note_on,65,33,0
2,note_on,65,0,240
2,note_on,68,24,0
2,note_on,77,30,0
2,note_on,73,24,0
2,note_on,73,0,240
2,note_on,77,0,0
2,note_on,68,0,0
2,note_on,65,31,0
2,note_on,65,0,240
2,note_on,77,33,0
2,note_on,73,26,0
2,note_on,68,26,0
2,note_on,68,0,240
2,note_on,73,0,0
2,note_on,77,0,0
2,note_on,65,31,0
2,note_on,65,0,240
2,note_on,68,24,0
2,note_on,77,31,0
2,note_on,73,24,0
2,note_on,73,0,240
2,note_on,77,0,0
2,note_on,68,0,0
2,note_on,65,33,0
2,note_on,65,0,240
2,note_on,77,31,0
2,note_on,68,24,0
2,note_on,73,24,0
2,note_on,73,0,240
2,note_on,68,0,0
2,note_on,77,0,0
2,note_on,65,31,0
2,note_on,65,0,240
2,note_on,73,36,0
2,note_on,68,36,0
2,note_on,68,0,240
2,note_on,73,0,0
2,note_on,68,34,0
2,note_on,68,0,240
2,note_on,68,35,0
2,note_on,73,35,0
2,note_on,73,0,240
2,note_on,68,0,0
2,note_on,65,36,0
2,note_on,65,0,240
2,note_on,68,26,0
2,note_on,73,26,0
2,note_on,77,33,0
2,note_on,77,0,240
2,note_on,73,0,0
2,note_on,68,0,0
2,note_on,65,34,0
2,note_on,65,0,240
2,note_on,73,29,0
2,note_on,68,29,0
2,note_on,77,37,0
2,note_on,77,0,240
2,note_on,68,0,0
2,note_on,73,0,0
2,note_on,65,35,0
2,note_on,65,0,240
2,note_on,77,36,0
2,note_on,73,27,0
2,note_on,68,27,0
2,note_on,68,0,240
2,note_on,73,0,0
2,note_on,77,0,0
2,note_on,66,39,0
2,note_on,66,0,240
2,note_on,69,28,0
2,note_on,75,37,0
2,note_on,72,28,0
2,note_on,72,0,240
2,note_on,75,0,0
2,note_on,69,0,0
2,note_on,66,38,0
2,note_on,66,0,240
2,note_on,75,40,0
2,note_on,69,40,0
2,note_on,72,40,0
2,note_on,72,0,240
2,note_on,69,0,0
2,note_on,75,0,0
2,note_on,66,38,0
2,note_on,66,0,240
2,note_on,75,40,0
2,note_on,69,40,0
2,note_on,72,40,0
2,note_on,72,0,240
2,note_on,69,0,0
2,note_on,75,0,0
2,note_on,65,49,0
2,note_on,65,0,240
2,note_on,74,39,0
2,note_on,71,30,0
2,note_on,68,30,0
2,note_on,68,0,240
2,note_on,71,0,0
2,note_on,74,0,0
2,note_on,65,41,0
2,note_on,65,0,240
2,note_on,68,35,0
2,note_on,74,44,0
2,note_on,71,35,0
2,note_on,71,0,240
2,note_on,74,0,0
2,note_on,68,0,0
2,note_on,65,42,0
2,note_on,65,0,240
2,note_on,68,34,0
2,note_on,74,44,0
2,note_on,71,34,0
2,note_on,71,0,240
2,note_on,74,0,0
2,note_on,68,0,0
2,note_on,65,49,0
2,note_on,65,0,240
2,note_on,68,36,0
2,note_on,71,36,0
2,note_on,74,48,0
2,note_on,74,0,240
2,note_on,71,0,0
2,note_on,68,0,0
2,note_on,65,48,0
2,note_on,65,0,240
2,note_on,71,41,0
2,note_on,68,41,0
2,note_on,74,55,0
2,note_on,74,0,240
2,note_on,68,0,0
2,note_on,71,0,0
2,note_on,65,50,0
2,note_on,65,0,240
2,note_on,74,52,0
2,note_on,68,41,0
2,note_on,71,41,0
2,note_on,71,0,240
2,note_on,68,0,0
2,note_on,74,0,0
2,note_on,64,54,0
2,note_on,64,0,240
2,note_on,76,47,0
2,note_on,72,37,0
2,note_on,67,37,0
2,note_on,67,0,240
2,note_on,72,0,0
2,note_on,76,0,0
2,note_on,64,51,0
2,note_on,64,0,240
2,note_on,67,42,0
2,note_on,76,53,0
2,note_on,72,42,0
2,note_on,72,0,240
2,note_on,76,0,0
2,note_on,67,0,0
2,note_on,64,47,0
2,note_on,64,0,240
2,note_on,67,41,0
2,note_on,76,52,0
2,note_on,72,41,0
2,note_on,72,0,240
2,note_on,76,0,0
2,note_on,67,0,0
2,note_on,64,49,0
2,note_on,64,0,240
2,note_on,67,43,0
2,note_on,72,43,0
2,note_on,76,54,0
2,note_on,76,0,240
2,note_on,72,0,0
2,note_on,67,0,0
2,note_on,64,48,0
2,note_on,64,0,240
2,note_on,72,41,0
2,note_on,67,41,0
2,note_on,76,55,0
2,note_on,76,0,240
2,note_on,67,0,0
2,note_on,72,0,0
2,note_on,64,50,0
2,note_on,64,0,240
2,note_on,76,52,0
2,note_on,67,41,0
2,note_on,72,41,0
2,note_on,72,0,240
2,note_on,67,0,0
2,note_on,76,0,0
2,note_on,58,54,0
2,note_on,58,0,240
2,note_on,67,47,0
2,note_on,64,37,0
2,note_on,61,37,0
2,note_on,61,0,240
2,note_on,64,0,0
2,note_on,67,0,0
2,note_on,58,51,0
2,note_on,58,0,240
2,note_on,61,42,0
2,note_on,67,53,0
2,note_on,64,42,0
2,note_on,64,0,240
2,note_on,67,0,0
2,note_on,61,0,0
2,note_on,58,47,0
2,note_on,58,0,240
2,note_on,61,41,0
2,note_on,67,52,0
2,note_on,64,41,0
2,note_on,64,0,240
2,note_on,67,0,0
2,note_on,61,0,0
2,note_on,58,49,0
2,note_on,58,0,240
2,note_on,64,43,0
2,note_on,67,54,0
2,note_on,61,43,0
2,note_on,61,0,240
2,note_on,67,0,0
2,note_on,64,0,0
2,note_on,58,48,0
2,note_on,58,0,240
2,note_on,61,43,0
2,note_on,67,57,0
2,note_on,64,43,0
2,note_on,64,0,240
2,note_on,67,0,0
2,note_on,61,0,0
2,note_on,58,52,0
2,note_on,58,0,240
2,note_on,61,43,0
2,note_on,64,43,0
2,note_on,67,54,0
2,note_on,67,0,240
2,note_on,64,0,0
2,note_on,61,0,0
2,note_on,56,56,0
2,note_on,56,0,240
2,note_on,60,38,0
2,note_on,65,38,0
2,note_on,68,49,0
2,note_on,68,0,240
2,note_on,65,0,0
2,note_on,60,0,0
2,note_on,56,53,0
2,note_on,56,0,240
2,note_on,65,44,0
2,note_on,68,55,0
2,note_on,60,44,0
2,note_on,60,0,240
2,note_on,68,0,0
2,note_on,65,0,0
2,note_on,56,49,0
2,note_on,56,0,240
2,note_on,65,43,0
2,note_on,68,54,0
2,note_on,60,43,0
2,note_on,60,0,240
2,note_on,68,0,0
2,note_on,65,0,0
2,note_on,56,51,0
2,note_on,56,0,240
2,note_on,65,45,0
2,note_on,68,56,0
2,note_on,60,45,0
2,note_on,60,0,240
2,note_on,68,0,0
2,note_on,65,0,0
2,note_on,56,50,0
2,note_on,56,0,240
2,note_on,60,43,0
2,note_on,68,57,0
2,note_on,65,43,0
2,note_on,65,0,240
2,note_on,68,0,0
2,note_on,60,0,0
2,note_on,56,52,0
2,note_on,56,0,240
2,note_on,60,43,0
2,note_on,65,43,0
2,note_on,68,54,0
2,note_on,68,0,240
2,note_on,65,0,0
2,note_on,60,0,0
2,note_on,34,101,0
2,note_on,46,101,0
2,note_on,46,0,240
2,note_on,34,0,0
2,note_on,49,75,240
2,note_on,49,0,120
2,note_on,54,69,0
2,note_on,54,0,120
2,note_on,58,86,0
2,note_on,58,0,240
2,note_on,54,75,240
2,note_on,54,0,120
2,note_on,58,73,0
2,note_on,58,0,120
2,note_on,61,86,0
2,note_on,61,0,240
2,note_on,58,78,240
2,note_on,58,0,120
2,note_on,61,73,0
2,note_on,61,0,120
2,note_on,66,84,0
2,note_on,66,0,240
2,note_on,61,77,240
2,note_on,61,0,120
2,note_on,66,71,0
2,note_on,66,0,120
2,note_on,70,81,0
2,note_on,70,0,240
2,note_on,66,75,240
2,note_on,66,0,120
2,note_on,70,74,0
2,note_on,70,0,120
2,note_on,73,81,0
2,note_on,73,0,240
2,note_on,70,75,240
2,note_on,70,0,120
2,note_on,73,73,0
2,note_on,73,0,120
2,note_on,78,84,0
2,note_on,78,0,240
2,note_on,73,75,240
2,note_on,73,0,120
2,note_on,78,74,0
2,note_on,78,0,120
2,note_on,82,83,0
2,note_on,82,0,240
2,note_on,48,101,480
2,note_on,36,101,0
2,note_on,36,0,240
2,note_on,48,0,0
2,note_on,51,80,240
2,note_on,51,0,120
2,note_on,57,73,0
2,note_on,57,0,120
2,note_on,60,89,0
2,note_on,60,0,240
2,note_on,57,78,240
2,note_on,57,0,120
2,note_on,60,73,0
2,note_on,60,0,120
2,note_on,63,86,0
2,note_on,63,0,240
2,note_on,60,78,240
2,note_on,60,0,120
2,note_on,63,73,0
2,note_on,63,0,120
2,note_on,69,84,0
2,note_on,69,0,240
2,note_on,63,77,240
2,note_on,63,0,120
2,note_on,69,71,0
2,note_on,69,0,120
2,note_on,72,82,0
2,note_on,72,0,240
2,note_on,69,75,240
2,note_on,69,0,120
2,note_on,72,73,0
2,note_on,72,0,120
2,note_on,75,85,0
2,note_on,75,0,240
2,note_on,72,75,240
2,note_on,72,0,120
2,note_on,75,73,0
2,note_on,75,0,120
2,note_on,81,84,0
2,note_on,81,0,240
2,note_on,75,80,240
2,note_on,75,0,120
2,note_on,81,74,0
2,note_on,81,0,120
2,note_on,84,85,0
2,note_on,84,0,240
2,note_on,37,101,480
2,note_on,49,101,0
2,note_on,49,0,240
2,note_on,37,0,0
2,note_on,53,78,240
2,note_on,53,0,120
2,note_on,58,73,0
2,note_on,58,0,120
2,note_on,61,84,0
2,note_on,61,0,240
2,note_on,52,101,480
2,note_on,40,101,0
2,note_on,40,0,240
2,note_on,52,0,0
2,note_on,55,80,240
2,note_on,55,0,120
2,note_on,60,73,0
2,note_on,60,0,120
2,note_on,64,82,0
2,note_on,64,0,240
2,note_on,53,101,480
2,note_on,41,101,0
2,note_on,41,0,240
2,note_on,53,0,0
2,note_on,56,80,240
2,note_on,56,0,120
2,note_on,61,73,0
2,note_on,61,0,120
2,note_on,65,86,0
2,note_on,65,0,240
2,note_on,43,101,480
2,note_on,55,101,0
2,note_on,55,0,240
2,note_on,43,0,0
2,note_on,58,80,240
2,note_on,58,0,120
2,note_on,64,73,0
2,note_on,64,0,120
2,note_on,67,86,0
2,note_on,67,0,240
2,note_on,44,75,91
2,note_on,44,0,240
2,note_on,56,69,240
2,note_on,56,0,120
2,note_on,60,61,0
2,note_on,60,0,120
2,note_on,46,77,0
2,note_on,46,0,240
2,note_on,58,69,240
2,note_on,58,0,120
2,note_on,61,64,0
2,note_on,61,0,120
2,note_on,48,78,0
2,note_on,48,0,240
2,note_on,60,71,240
2,note_on,60,0,120
2,note_on,63,67,0
2,note_on,63,0,120
2,note_on,49,81,0
2,note_on,49,0,240
2,note_on,61,77,240
2,note_on,61,0,120
2,note_on,65,71,0
2,note_on,65,0,120
2,note_on,52,80,0
2,note_on,52,0,240
2,note_on,64,77,240
2,note_on,64,0,120
2,note_on,67,73,0
2,note_on,67,0,120
2,note_on,53,83,0
2,note_on,53,0,240
2,note_on,65,77,240
2,note_on,65,0,120
2,note_on,68,72,0
2,note_on,68,0,120
2,note_on,55,84,0
2,note_on,55,0,240
2,note_on,67,78,240
2,note_on,67,0,120
2,note_on,70,74,0
2,note_on,70,0,120
2,note_on,56,85,0
2,note_on,56,0,240
2,note_on,68,77,240
2,note_on,68,0,120
2,note_on,72,73,0
2,note_on,72,0,120
2,note_on,58,86,0
2,note_on,58,0,240
2,note_on,70,81,240
2,note_on,70,0,120
2,note_on,73,77,0
2,note_on,73,0,120
2,note_on,60,89,0
2,note_on,60,0,240
2,note_on,72,80,240
2,note_on,72,0,120
2,note_on,75,78,0
2,note_on,75,0,120
2,note_on,61,89,0
2,note_on,61,0,240
2,note_on,73,83,240
2,note_on,73,0,120
2,note_on,77,80,0
2,note_on,77,0,120
2,note_on,61,92,0
2,note_on,61,0,240
2,note_on,73,84,240
2,note_on,73,0,120
2,note_on,77,80,0
2,note_on,77,0,120
2,note_on,41,108,0
2,note_on,41,0,120
2,note_on,53,100,0
2,note_on,53,0,120
2,note_on,56,92,0
2,note_on,56,0,120
2,note_on,58,74,2040
2,note_on,58,0,120
2,note_on,53,74,0
2,note_on,53,0,120
2,note_on,49,74,0
2,note_on,49,0,120
2,note_on,58,74,0
2,note_on,58,0,120
2,note_on,53,79,0
2,note_on,53,0,120
2,note_on,49,71,0
2,note_on,49,0,120
2,note_on,46,74,0
2,note_on,46,0,120
2,note_on,49,71,0
2,note_on,49,0,120
2,note_on,53,74,0
2,note_on,53,0,120
2,note_on,58,72,0
2,note_on,58,0,120
2,note_on,62,105,2160
2,note_on,62,0,120
2,note_on,74,100,0
2,note_on,74,0,120
2,note_on,77,92,0
2,note_on,77,0,120
2,note_on,59,71,2880
2,note_on,59,0,120
2,note_on,56,74,0
2,note_on,56,0,120
2,note_on,53,72,0
2,note_on,53,0,120
2,note_on,50,80,0
2,note_on,50,0,120
2,note_on,47,75,0
2,note_on,47,0,120
2,note_on,50,75,0
2,note_on,50,0,120
2,note_on,53,75,0
2,note_on,53,0,120
2,note_on,56,79,0
2,note_on,56,0,120
2,note_on,59,73,0
2,note_on,59,0,120
2,note_on,36,125,1440
2,note_on,36,0,240
2,note_on,60,74,2160
2,note_on,60,0,120
2,note_on,56,74,0
2,note_on,56,0,120
2,note_on,53,74,0
2,note_on,53,0,120
2,note_on,60,74,0
2,note_on,60,0,120
2,note_on,56,79,0
2,note_on,56,0,120
2,note_on,53,71,0
2,note_on,53,0,120
2,note_on,48,74,0
2,note_on,48,0,120
2,note_on,44,71,0
2,note_on,44,0,120
2,note_on,41,74,0
2,note_on,41,0,120
2,note_on,36,72,0
2,note_on,36,0,120
2,note_on,41,80,0
2,note_on,41,0,120
2,note_on,44,75,0
2,note_on,44,0,120
2,note_on,48,75,0
2,note_on,48,0,120
2,note_on,53,75,0
2,note_on,53,0,120
2,note_on,56,79,0
2,note_on,56,0,120
2,note_on,60,73,0
2,note_on,60,0,120
2,note_on,36,82,1440
2,note_on,36,0,120
2,note_on,48,72,0
2,note_on,48,0,120
2,note_on,52,73,0
2,note_on,52,0,120
2,note_on,55,74,0
2,note_on,55,0,120
2,note_on,58,74,0
2,note_on,58,0,240
2,note_on,60,73,1200
2,note_on,60,0,120
2,note_on,58,69,0
2,note_on,58,0,120
2,note_on,55,74,0
2,note_on,55,0,120
2,note_on,52,69,0
2,note_on,52,0,120
2,note_on,48,71,0
2,note_on,48,0,120
2,note_on,46,70,0
2,note_on,46,0,120
2,note_on,43,70,0
2,note_on,43,0,120
2,note_on,40,70,0
2,note_on,40,0,120
2,note_on,36,75,0
2,note_on,36,0,120
2,note_on,40,67,0
2,note_on,40,0,120
2,note_on,43,70,0
2,note_on,43,0,120
2,note_on,46,67,0
2,note_on,46,0,120
2,note_on,48,70,0
2,note_on,48,0,120
2,note_on,52,68,0
2,note_on,52,0,120
2,note_on,55,76,0
2,note_on,55,0,120
2,note_on,58,71,0
2,note_on,58,0,120
2,note_on,49,37,2640
2,note_on,49,0,240
2,note_on,49,35,0
2,note_on,49,0,240
2,note_on,49,35,0
2,note_on,49,0,240
2,note_on,48,36,0
2,note_on,48,0,480
2,note_on,49,35,1680
2,note_on,49,0,240
2,note_on,49,33,0
2,note_on,49,0,240
2,note_on,49,33,0
2,note_on,49,0,240
2,note_on,48,34,0
2,note_on,48,0,480
2,note_on,37,32,1680
2,note_on,37,0,240
2,note_on,37,30,0
2,note_on,37,0,240
2,note_on,37,30,0
2,note_on,37,0,240
2,note_on,36,31,0
2,note_on,36,0,720
2,note_on,37,31,0
2,note_on,37,0,240
2,note_on,37,29,0
2,note_on,37,0,240
2,note_on,37,29,0
2,note_on,37,0,240
2,note_on,36,29,0
2,note_on,36,0,720
2,note_on,37,21,0
2,note_on,37,0,240
2,note_on,37,24,0
2,note_on,37,0,240
2,note_on,37,26,0
2,note_on,37,0,240
2,note_on,36,28,0
2,note_on,36,0,720
2,note_on,36,70,0
2,note_on,48,83,0
2,note_on,48,0,240
2,note_on,36,0,0
2,note_on,48,78,0
2,note_on,36,65,0
2,note_on,36,0,240
2,note_on,48,0,0
2,note_on,48,78,0
2,note_on,36,65,0
2,note_on,36,0,240
2,note_on,48,0,0
2,note_on,29,71,0
2,note_on,41,85,0
2,note_on,41,0,240
2,note_on,29,0,0
2,note_on,65,30,0
2,note_on,60,30,0
2,note_on,60,0,240
2,note_on,65,0,0
2,note_on,56,37,0
2,note_on,56,0,240
2,note_on,65,42,0
2,note_on,60,32,0
2,note_on,60,0,240
2,note_on,65,0,0
2,note_on,56,37,0
2,note_on,56,0,240
2,note_on,60,30,0
2,note_on,65,37,0
2,note_on,65,0,240
2,note_on,60,0,0
2,note_on,56,42,0
2,note_on,56,0,240
2,note_on,65,37,0
2,note_on,60,30,0
2,note_on,60,0,240
2,note_on,65,0,0
2,note_on,56,37,0
2,note_on,56,0,240
2,note_on,65,42,0
2,note_on,60,32,0
2,note_on,60,0,240
2,note_on,65,0,0
2,note_on,56,37,0
2,note_on,56,0,240
2,note_on,65,41,0
2,note_on,60,31,0
2,note_on,60,0,240
2,note_on,65,0,0
2,note_on,56,42,0
2,note_on,56,0,240
2,note_on,60,30,0
2,note_on,65,36,0
2,note_on,65,0,240
2,note_on,60,0,0
2,note_on,56,37,0
2,note_on,56,0,240
2,note_on,65,42,0
2,note_on,60,32,0
2,note_on,60,0,240
2,note_on,65,0,0
2,note_on,56,37,0
2,note_on,56,0,240
2,note_on,65,37,0
2,note_on,60,30,0
2,note_on,60,0,240
2,note_on,65,0,0
2,note_on,58,42,0
2,note_on,58,0,240
2,note_on,67,37,0
2,note_on,60,30,0
2,note_on,60,0,240
2,note_on,67,0,0
2,note_on,58,37,0
2,note_on,58,0,240
2,note_on,67,42,0
2,note_on,60,32,0
2,note_on,60,0,240
2,note_on,67,0,0
2,note_on,58,37,0
2,note_on,58,0,240
2,note_on,67,41,0
2,note_on,60,31,0
2,note_on,60,0,240
2,note_on,67,0,0
2,note_on,56,42,0
2,note_on,56,0,240
2,note_on,60,30,0
2,note_on,65,36,0
2,note_on,65,0,240
2,note_on,60,0,0
2,note_on,56,37,0
2,note_on,56,0,240
2,note_on,60,32,0
2,note_on,65,42,0
2,note_on,65,0,240
2,note_on,60,0,0
2,note_on,56,37,0
2,note_on,56,0,240
2,note_on,60,30,0
2,note_on,65,37,0
2,note_on,65,0,240
2,note_on,60,0,0
2,note_on,56,42,0
2,note_on,56,0,240
2,note_on,60,30,0
2,note_on,65,37,0
2,note_on,65,0,240
2,note_on,60,0,0
2,note_on,56,42,0
2,note_on,56,0,240
2,note_on,60,34,0
2,note_on,65,44,0
2,note_on,65,0,240
2,note_on,60,0,0
2,note_on,56,40,0
2,note_on,56,0,240
2,note_on,60,33,0
2,note_on,65,44,0
2,note_on,65,0,240
2,note_on,60,0,0
2,note_on,56,46,0
2,note_on,56,0,240
2,note_on,68,40,0
2,note_on,60,34,0
2,note_on,65,40,0
2,note_on,65,0,240
2,note_on,60,0,0
2,note_on,68,0,0
2,note_on,56,42,0
2,note_on,56,0,240
2,note_on,68,47,0
2,note_on,60,36,0
2,note_on,65,47,0
2,note_on,65,0,240
2,note_on,60,0,0
2,note_on,68,0,0
2,note_on,56,43,0
2,note_on,56,0,240
2,note_on,68,44,0
2,note_on,65,44,0
2,note_on,60,36,0
2,note_on,60,0,240
2,note_on,65,0,0
2,note_on,68,0,0
2,note_on,58,49,0
2,note_on,58,0,240
2,note_on,64,36,0
2,note_on,60,36,0
2,note_on,67,45,0
2,note_on,67,0,240
2,note_on,60,0,0
2,note_on,64,0,0
2,note_on,58,46,0
2,note_on,58,0,240
2,note_on,64,39,0
2,note_on,67,51,0
2,note_on,60,39,0
2,note_on,60,0,240
2,note_on,67,0,0
2,note_on,64,0,0
2,note_on,58,47,0
2,note_on,58,0,240
2,note_on,64,38,0
2,note_on,67,51,0
2,note_on,60,38,0
2,note_on,60,0,240
2,note_on,67,0,0
2,note_on,64,0,0
2,note_on,57,55,0
2,note_on,57,0,240
2,note_on,66,48,0
2,note_on,63,48,0
2,note_on,60,39,0
2,note_on,60,0,240
2,note_on,63,0,0
2,note_on,66,0,0
2,note_on,57,49,0
2,note_on,57,0,240
2,note_on,66,55,0
2,note_on,60,41,0
2,note_on,63,55,0
2,note_on,63,0,240
2,note_on,60,0,0
2,note_on,66,0,0
2,note_on,57,49,0
2,note_on,57,0,240
2,note_on,60,39,0
2,note_on,63,49,0
2,note_on,66,49,0
2,note_on,66,0,240
2,note_on,63,0,0
2,note_on,60,0,0
2,note_on,57,55,0
2,note_on,57,0,240
2,note_on,66,49,0
2,note_on,60,39,0
2,note_on,63,49,0
2,note_on,63,0,240
2,note_on,60,0,0
2,note_on,66,0,0
2,note_on,57,55,0
2,note_on,57,0,240
2,note_on,63,40,0
2,note_on,66,53,0
2,note_on,60,40,0
2,note_on,60,0,240
2,note_on,66,0,0
2,note_on,63,0,0
2,note_on,57,48,0
2,note_on,57,0,240
2,note_on,63,39,0
2,note_on,66,52,0
2,note_on,60,39,0
2,note_on,60,0,240
2,note_on,66,0,0
2,note_on,63,0,0
2,note_on,57,55,0
2,note_on,57,0,240
2,note_on,65,48,0
2,note_on,63,48,0
2,note_on,60,39,0
2,note_on,60,0,240
2,note_on,63,0,0
2,note_on,65,0,0
2,note_on,57,49,0
2,note_on,57,0,240
2,note_on,65,55,0
2,note_on,61,55,0
2,note_on,61,0,240
2,note_on,65,0,0
2,note_on,58,49,0
2,note_on,58,0,240
2,note_on,61,49,0
2,note_on,65,49,0
2,note_on,65,0,240
2,note_on,61,0,0
2,note_on,58,55,0
2,note_on,58,0,240
2,note_on,65,49,0
2,note_on,61,49,0
2,note_on,61,0,240
2,note_on,65,0,0
2,note_on,58,55,0
2,note_on,58,0,240
2,note_on,67,53,0
2,note_on,64,40,0
2,note_on,64,0,240
2,note_on,67,0,0
2,note_on,58,48,0
2,note_on,58,0,240
2,note_on,64,39,0
2,note_on,67,52,0
2,note_on,67,0,240
2,note_on,64,0,0
2,note_on,48,55,0
2,note_on,48,0,240
2,note_on,53,39,0
2,note_on,56,48,0
2,note_on,60,48,0
2,note_on,60,0,240
2,note_on,56,0,0
2,note_on,53,0,0
2,note_on,48,49,0
2,note_on,48,0,240
2,note_on,56,40,0
2,note_on,60,53,0
2,note_on,53,40,0
2,note_on,53,0,240
2,note_on,60,0,0
2,note_on,56,0,0
2,note_on,48,48,0
2,note_on,48,0,240
2,note_on,56,39,0
2,note_on,53,39,0
2,note_on,60,52,0
2,note_on,60,0,240
2,note_on,53,0,0
2,note_on,56,0,0
2,note_on,46,55,0
2,note_on,46,0,240
2,note_on,48,39,0
2,note_on,52,48,0
2,note_on,55,48,0
2,note_on,55,0,240
2,note_on,52,0,0
2,note_on,48,0,0
2,note_on,46,49,0
2,note_on,46,0,240
2,note_on,52,39,0
2,note_on,48,39,0
2,note_on,55,51,0
2,note_on,55,0,240
2,note_on,48,0,0
2,note_on,52,0,0
2,note_on,46,47,0
2,note_on,46,0,240
2,note_on,55,50,0
2,note_on,48,38,0
2,note_on,52,38,0
2,note_on,52,0,240
2,note_on,48,0,0
2,note_on,55,0,0
2,note_on,45,53,0
2,note_on,45,0,240
2,note_on,51,38,0
2,note_on,57,47,0
2,note_on,54,47,0
2,note_on,45,48,220
2,note_on,54,0,20
2,note_on,51,0,0
2,note_on,57,0,0
2,note_on,45,0,220
2,note_on,51,53,20
2,note_on,57,53,0
2,note_on,54,53,0
2,note_on,54,0,240
2,note_on,57,0,0
2,note_on,51,0,0
2,note_on,45,48,0
2,note_on,45,0,240
2,note_on,51,48,0
2,note_on,57,48,0
2,note_on,54,48,0
2,note_on,54,0,240
2,note_on,57,0,0
2,note_on,51,0,0
2,note_on,45,53,0
2,note_on,45,0,240
2,note_on,51,48,0
2,note_on,57,48,0
2,note_on,54,48,0
2,note_on,54,0,240
2,note_on,57,0,0
2,note_on,51,0,0
2,note_on,45,53,0
2,note_on,45,0,240
2,note_on,54,45,0
2,note_on,57,59,0
2,note_on,51,45,0
2,note_on,51,0,240
2,note_on,57,0,0
2,note_on,54,0,0
2,note_on,45,49,0
2,note_on,45,0,240
2,note_on,54,39,0
2,note_on,57,55,0
2,note_on,51,39,0
2,note_on,51,0,240
2,note_on,57,0,0
2,note_on,54,0,0
2,note_on,45,57,0
2,note_on,45,0,240
2,note_on,57,49,0
2,note_on,53,49,0
2,note_on,51,39,0
2,note_on,51,0,240
2,note_on,53,0,0
2,note_on,57,0,0
2,note_on,45,49,0
2,note_on,45,0,240
2,note_on,49,57,0
2,note_on,53,57,0
2,note_on,58,57,0
2,note_on,58,0,240
2,note_on,53,0,0
2,note_on,49,0,0
2,note_on,46,49,0
2,note_on,46,0,240
2,note_on,49,49,0
2,note_on,53,49,0
2,note_on,58,49,0
2,note_on,58,0,240
2,note_on,53,0,0
2,note_on,49,0,0
2,note_on,46,57,0
2,note_on,46,0,240
2,note_on,49,49,0
2,note_on,53,49,0
2,note_on,58,49,0
2,note_on,58,0,240
2,note_on,53,0,0
2,note_on,49,0,0
2,note_on,46,57,0
2,note_on,46,0,240
2,note_on,55,56,0
2,note_on,58,56,0
2,note_on,52,40,0
2,note_on,52,0,240
2,note_on,58,0,0
2,note_on,55,0,0
2,note_on,46,49,0
2,note_on,46,0,240
2,note_on,52,39,0
2,note_on,58,55,0
2,note_on,55,55,0
2,note_on,55,0,240
2,note_on,58,0,0
2,note_on,52,0,0
2,note_on,48,57,0
2,note_on,48,0,240
2,note_on,60,49,0
2,note_on,56,49,0
2,note_on,53,39,0
2,note_on,53,0,240
2,note_on,56,0,0
2,note_on,60,0,0
2,note_on,48,49,0
2,note_on,48,0,240
2,note_on,53,40,0
2,note_on,60,56,0
2,note_on,56,40,0
2,note_on,56,0,240
2,note_on,60,0,0
2,note_on,53,0,0
2,note_on,48,49,0
2,note_on,48,0,240
2,note_on,53,39,0
2,note_on,60,55,0
2,note_on,56,39,0
2,note_on,56,0,240
2,note_on,60,0,0
2,note_on,53,0,0
2,note_on,48,57,0
2,note_on,48,0,240
2,note_on,60,49,0
2,note_on,52,49,0
2,note_on,55,39,0
2,note_on,55,0,240
2,note_on,52,0,0
2,note_on,60,0,0
2,note_on,48,49,0
2,note_on,48,0,240
2,note_on,60,49,0
2,note_on,55,37,0
2,note_on,52,37,0
2,note_on,52,0,240
2,note_on,55,0,0
2,note_on,60,0,0
2,note_on,48,44,0
2,note_on,48,0,240
2,note_on,60,48,0
2,note_on,55,36,0
2,note_on,52,36,0
2,note_on,52,0,240
2,note_on,55,0,0
2,note_on,60,0,0
2,note_on,41,63,0
2,note_on,48,63,0
2,note_on,53,75,0
2,note_on,44,63,0
2,note_on,44,0,480
2,note_on,41,0,0
2,note_on,48,0,0
2,note_on,53,0,0
2,note_on,53,79,480
2,note_on,56,79,0
2,note_on,56,0,220
2,note_on,53,0,0
2,note_on,53,76,20
2,note_on,56,76,0
2,note_on,56,0,220
2,note_on,53,0,0
2,note_on,52,80,20
2,note_on,55,80,0
2,note_on,55,0,480
2,note_on,52,0,0
2,note_on,55,79,480
2,note_on,58,79,0
2,note_on,58,0,220
2,note_on,55,0,0
2,note_on,55,76,20
2,note_on,58,76,0
2,note_on,58,0,220
2,note_on,55,0,0
2,note_on,53,80,20
2,note_on,56,80,0
2,note_on,56,0,480
2,note_on,53,0,0
2,note_on,56,79,480
2,note_on,53,79,0
2,note_on,53,0,220
2,note_on,56,0,0
2,note_on,56,76,20
2,note_on,53,76,0
2,note_on,53,0,220
2,note_on,56,0,0
2,note_on,55,80,20
2,note_on,52,80,0
2,note_on,52,0,480
2,note_on,55,0,0
2,note_on,58,79,480
2,note_on,55,79,0
2,note_on,55,0,220
2,note_on,58,0,0
2,note_on,55,76,20
2,note_on,58,76,0
2,note_on,58,0,220
2,note_on,55,0,0
2,note_on,56,80,20
2,note_on,53,66,0
2,note_on,53,0,220
2,note_on,56,0,0
2,note_on,56,76,260
2,note_on,53,63,0
2,note_on,53,0,220
2,note_on,56,0,0
2,note_on,53,59,260
2,note_on,46,59,0
2,note_on,55,73,0
2,note_on,55,0,220
2,note_on,46,0,0
2,note_on,53,0,0
2,note_on,53,66,260
2,note_on,56,80,0
2,note_on,48,66,0
2,note_on,48,0,220
2,note_on,56,0,0
2,note_on,53,0,0
2,note_on,53,63,260
2,note_on,56,76,0
2,note_on,48,63,0
2,note_on,48,0,220
2,note_on,56,0,0
2,note_on,53,0,0
2,note_on,48,63,260
2,note_on,55,76,0
2,note_on,52,63,0
2,note_on,52,0,220
2,note_on,55,0,0
2,note_on,48,0,0
2,note_on,44,61,260
2,note_on,48,61,0
2,note_on,53,73,0
2,note_on,41,61,0
2,note_on,41,0,480
2,note_on,44,0,0
2,note_on,48,0,0
2,note_on,53,0,0
2,note_on,44,75,480
2,note_on,41,75,0
2,note_on,41,0,220
2,note_on,44,0,0
2,note_on,44,72,20
2,note_on,41,72,0
2,note_on,41,0,220
2,note_on,44,0,0
2,note_on,43,76,20
2,note_on,40,76,0
2,note_on,40,0,480
2,note_on,43,0,0
2,note_on,46,75,480
2,note_on,43,75,0
2,note_on,43,0,220
2,note_on,46,0,0
2,note_on,46,72,20
2,note_on,43,72,0
2,note_on,43,0,220
2,note_on,46,0,0
2,note_on,44,76,20
2,note_on,41,76,0
2,note_on,41,0,480
2,note_on,44,0,0
2,note_on,44,75,480
2,note_on,41,75,0
2,note_on,41,0,220
2,note_on,44,0,0
2,note_on,44,72,20
2,note_on,41,72,0
2,note_on,41,0,220
2,note_on,44,0,0
2,note_on,43,76,20
2,note_on,40,76,0
2,note_on,40,0,480
2,note_on,43,0,0
2,note_on,46,75,480
2,note_on,43,75,0
2,note_on,43,0,220
2,note_on,46,0,0
2,note_on,46,72,20
2,note_on,43,72,0
2,note_on,43,0,220
2,note_on,46,0,0
2,note_on,41,66,20
2,note_on,44,79,0
2,note_on,44,0,220
2,note_on,41,0,0
2,note_on,44,71,260
2,note_on,41,59,0
2,note_on,41,0,220
2,note_on,44,0,0
2,note_on,34,55,260
2,note_on,43,66,0
2,note_on,41,55,0
2,note_on,41,0,220
2,note_on,43,0,0
2,note_on,34,0,0
2,note_on,44,75,260
2,note_on,36,62,0
2,note_on,41,62,0
2,note_on,41,0,220
2,note_on,36,0,0
2,note_on,44,0,0
2,note_on,44,71,260
2,note_on,36,59,0
2,note_on,41,59,0
2,note_on,41,0,220
2,note_on,36,0,0
2,note_on,44,0,0
2,note_on,40,59,260
2,note_on,43,71,0
2,note_on,36,59,0
2,note_on,36,0,220
2,note_on,43,0,0
2,note_on,40,0,0
2,note_on,36,62,260
2,note_on,41,62,0
2,note_on,44,75,0
2,note_on,32,62,0
2,note_on,32,0,220
2,note_on,36,0,0
2,note_on,41,0,0
2,note_on,44,0,0
2,note_on,32,59,260
2,note_on,41,59,0
2,note_on,36,59,0
2,note_on,44,71,0
2,note_on,44,0,220
2,note_on,32,0,0
2,note_on,41,0,0
2,note_on,36,0,0
2,note_on,46,66,260
2,note_on,41,55,0
2,note_on,43,60,0
2,note_on,34,55,0
2,note_on,34,0,220
2,note_on,46,0,0
2,note_on,41,0,0
2,note_on,43,0,0
2,note_on,48,75,260
2,note_on,44,69,0
2,note_on,41,62,0
2,note_on,36,62,0
2,note_on,36,0,220
2,note_on,48,0,0
2,note_on,44,0,0
2,note_on,41,0,0
2,note_on,48,71,260
2,note_on,41,59,0
2,note_on,44,66,0
2,note_on,36,59,0
2,note_on,36,0,220
2,note_on,48,0,0
2,note_on,41,0,0
2,note_on,44,0,0
2,note_on,46,71,260
2,note_on,40,59,0
2,note_on,43,66,0
2,note_on,34,59,0
2,note_on,34,0,220
2,note_on,46,0,0
2,note_on,40,0,0
2,note_on,43,0,0
2,note_on,36,65,260
2,note_on,41,65,0
2,note_on,44,77,0
2,note_on,32,65,0
2,note_on,32,0,220
2,note_on,36,0,0
2,note_on,41,0,0
2,note_on,44,0,0
2,note_on,32,62,260
2,note_on,41,62,0
2,note_on,36,62,0
2,note_on,44,74,0
2,note_on,44,0,220
2,note_on,32,0,0
2,note_on,41,0,0
2,note_on,36,0,0
2,note_on,46,69,260
2,note_on,41,57,0
2,note_on,43,63,0
2,note_on,34,57,0
2,note_on,34,0,220
2,note_on,46,0,0
2,note_on,41,0,0
2,note_on,43,0,0
2,note_on,48,77,260
2,note_on,41,65,0
2,note_on,36,65,0
2,note_on,44,72,0
2,note_on,44,0,220
2,note_on,48,0,0
2,note_on,41,0,0
2,note_on,36,0,0
2,note_on,44,69,260
2,note_on,41,62,0
2,note_on,36,62,0
2,note_on,48,74,0
2,note_on,48,0,220
2,note_on,44,0,0
2,note_on,41,0,0
2,note_on,36,0,0
2,note_on,36,62,260
2,note_on,48,74,0
2,note_on,43,69,0
2,note_on,40,62,0
2,note_on,40,0,220
2,note_on,36,0,0
2,note_on,48,0,0
2,note_on,43,0,0
2,note_on,29,82,260
2,note_on,41,110,0
2,note_on,41,0,480
2,note_on,29,0,0
2,note_on,68,62,240
2,note_on,68,0,600
2,note_on,72,54,0
2,note_on,72,0,120
2,note_on,77,59,0
2,note_on,77,0,720
2,note_on,80,60,0
2,note_on,80,0,600
2,note_on,84,52,0
2,note_on,84,0,120
2,note_on,89,56,0
2,note_on,89,0,720
2,note_on,84,58,0
2,note_on,84,0,600
2,note_on,80,50,0
2,note_on,80,0,120
2,note_on,77,54,0
2,note_on,77,0,720
2,note_on,72,56,0
2,note_on,72,0,600
2,note_on,68,48,0
2,note_on,68,0,120
2,note_on,65,52,0
2,note_on,65,0,720
2,note_on,60,47,0
2,note_on,60,0,600
2,note_on,56,41,0
2,note_on,56,0,120
2,note_on,53,44,0
2,note_on,53,0,720
2,note_on,48,45,0
2,note_on,48,0,600
2,note_on,44,39,0
2,note_on,44,0,120
2,note_on,41,42,0
2,note_on,41,0,720
2,note_on,36,38,0
2,note_on,36,0,600
2,note_on,32,27,0
2,note_on,32,0,120
2,note_on,29,28,0
2,note_on,29,0,720
2,note_on,29,27,0
2,note_on,29,0,720
2,note_on,29,27,0
2,note_on,29,0,1440
2,note_on,29,19,0
2,note_on,29,0,1440
2,note_on,29,12,0
2,note_on,29,0,2880
