Track,Message Type,Note,Velocity,Time
1,note_on,64,89,0
1,note_on,73,105,0
1,note_on,73,0,713
1,note_on,64,0,0
1,note_on,64,82,7
1,note_on,73,97,0
1,note_on,73,0,238
1,note_on,64,0,0
1,note_on,73,105,2
1,note_on,64,89,0
1,note_on,64,0,713
1,note_on,73,0,0
1,note_on,64,82,7
1,note_on,73,98,0
1,note_on,73,0,238
1,note_on,64,0,0
1,note_on,64,89,2
1,note_on,73,105,0
1,note_on,73,0,357
1,note_on,64,0,0
1,note_on,73,97,3
1,note_on,64,82,0
1,note_on,64,0,119
1,note_on,73,0,0
1,note_on,64,89,1
1,note_on,73,105,0
1,note_on,73,0,357
1,note_on,64,0,0
1,note_on,64,81,3
1,note_on,73,96,0
1,note_on,73,0,119
1,note_on,64,0,0
1,note_on,73,105,1
1,note_on,64,89,0
1,note_on,64,0,357
1,note_on,73,0,0
1,note_on,64,82,3
1,note_on,73,97,0
1,note_on,73,0,119
1,note_on,64,0,0
1,note_on,73,105,1
1,note_on,64,89,0
1,note_on,64,0,357
1,note_on,73,0,0
1,note_on,64,82,3
1,note_on,73,97,0
1,note_on,73,0,119
1,note_on,64,0,0
1,note_on,64,89,1
1,note_on,73,105,0
1,note_on,73,0,480
1,note_on,64,0,0
1,note_on,85,50,240
1,note_on,85,0,120
1,note_on,84,50,0
1,note_on,84,0,120
1,note_on,82,54,0
1,note_on,82,0,120
1,note_on,84,50,0
1,note_on,84,0,120
1,note_on,82,50,0
1,note_on,82,0,120
1,note_on,80,50,0
1,note_on,80,0,120
1,note_on,79,54,0
1,note_on,79,0,120
1,note_on,80,50,0
1,note_on,80,0,120
1,note_on,79,50,0
1,note_on,79,0,120
1,note_on,77,50,0
1,note_on,77,0,120
1,note_on,76,54,0
1,note_on,76,0,480
1,note_on,73,50,240
1,note_on,73,0,120
1,note_on,72,50,0
1,note_on,72,0,120
1,note_on,70,53,0
1,note_on,70,0,120
1,note_on,72,50,0
1,note_on,72,0,120
1,note_on,70,50,0
1,note_on,70,0,120
1,note_on,68,50,0
1,note_on,68,0,120
1,note_on,67,53,0
1,note_on,67,0,120
1,note_on,68,50,0
1,note_on,68,0,120
1,note_on,67,50,0
1,note_on,67,0,120
1,note_on,65,50,0
1,note_on,65,0,120
1,note_on,64,52,0
1,note_on,64,0,480
1,note_on,73,50,240
1,note_on,73,0,120
1,note_on,72,50,0
1,note_on,72,0,120
1,note_on,70,51,0
1,note_on,70,0,120
1,note_on,72,51,0
1,note_on,72,0,120
1,note_on,70,52,0
1,note_on,70,0,120
1,note_on,68,52,0
1,note_on,68,0,120
1,note_on,67,53,0
1,note_on,67,0,120
1,note_on,68,54,0
1,note_on,68,0,120
1,note_on,67,54,0
1,note_on,67,0,120
1,note_on,65,55,0
1,note_on,65,0,120
1,note_on,64,55,0
1,note_on,64,0,120
1,note_on,65,56,0
1,note_on,65,0,120
1,note_on,64,57,0
1,note_on,64,0,120
1,note_on,61,57,0
1,note_on,61,0,120
1,note_on,60,58,0
1,note_on,60,0,120
1,note_on,61,61,0
1,note_on,61,0,120
1,note_on,60,62,0
1,note_on,60,0,120
1,note_on,59,63,0
1,note_on,59,0,120
1,note_on,58,64,0
1,note_on,58,0,120
1,note_on,60,65,0
1,note_on,60,0,120
1,note_on,58,66,0
1,note_on,58,0,120
1,note_on,56,67,0
1,note_on,56,0,120
1,note_on,55,68,0
1,note_on,55,0,120
1,note_on,56,69,0
1,note_on,56,0,120
1,note_on,55,70,0
1,note_on,55,0,120
1,note_on,53,71,0
1,note_on,53,0,120
1,note_on,52,73,0
1,note_on,52,0,120
1,note_on,53,71,0
1,note_on,53,0,120
1,note_on,52,72,0
1,note_on,52,0,120
1,note_on,49,71,0
1,note_on,49,0,120
1,note_on,48,75,0
1,note_on,49,75,120
1,note_on,48,0,10
1,note_on,48,75,110
1,note_on,49,0,10
1,note_on,47,75,110
1,note_on,48,0,10
1,note_on,48,75,110
1,note_on,47,0,10
1,note_on,49,75,110
1,note_on,48,0,10
1,note_on,48,75,110
1,note_on,49,0,10
1,note_on,47,75,110
1,note_on,48,0,10
1,note_on,48,75,110
1,note_on,47,0,10
1,note_on,49,75,110
1,note_on,48,0,10
1,note_on,48,75,110
1,note_on,49,0,10
1,note_on,47,75,110
1,note_on,48,0,10
1,note_on,48,75,110
1,note_on,47,0,10
1,note_on,49,75,110
1,note_on,48,0,10
1,note_on,48,75,110
1,note_on,49,0,10
1,note_on,47,75,110
1,note_on,48,0,10
1,note_on,48,75,110
1,note_on,47,0,10
1,note_on,49,75,110
1,note_on,48,0,10
1,note_on,48,75,110
1,note_on,49,0,10
1,note_on,47,75,110
1,note_on,48,0,10
1,note_on,46,74,110
1,note_on,47,0,10
1,note_on,48,74,110
1,note_on,46,0,10
1,note_on,46,74,110
1,note_on,48,0,10
1,note_on,45,74,110
1,note_on,46,0,10
1,note_on,46,74,110
1,note_on,45,0,10
1,note_on,48,74,110
1,note_on,46,0,10
1,note_on,46,74,110
1,note_on,48,0,10
1,note_on,45,74,110
1,note_on,46,0,10
1,note_on,46,74,110
1,note_on,45,0,10
1,note_on,48,74,110
1,note_on,46,0,10
1,note_on,46,74,110
1,note_on,48,0,10
1,note_on,45,74,110
1,note_on,46,0,10
1,note_on,46,73,110
1,note_on,45,0,10
1,note_on,48,73,110
1,note_on,46,0,10
1,note_on,46,73,110
1,note_on,48,0,10
1,note_on,45,73,110
1,note_on,46,0,10
1,note_on,46,74,110
1,note_on,45,0,10
1,note_on,48,72,110
1,note_on,46,0,10
1,note_on,46,70,110
1,note_on,48,0,10
1,note_on,45,68,110
1,note_on,46,0,10
1,note_on,46,67,110
1,note_on,45,0,10
1,note_on,48,65,110
1,note_on,46,0,10
1,note_on,46,63,110
1,note_on,48,0,10
1,note_on,45,61,110
1,note_on,46,0,10
1,note_on,46,60,110
1,note_on,45,0,10
1,note_on,43,58,110
1,note_on,46,0,10
1,note_on,44,56,110
1,note_on,43,0,10
1,note_on,46,54,110
1,note_on,44,0,10
1,note_on,48,53,110
1,note_on,46,0,10
1,note_on,46,51,110
1,note_on,48,0,10
1,note_on,44,49,110
1,note_on,46,0,10
1,note_on,43,47,110
1,note_on,44,0,10
1,note_on,43,0,120
1,note_on,48,40,110
1,note_on,48,0,120
1,note_on,53,37,0
1,note_on,53,0,120
1,note_on,56,37,0
1,note_on,56,0,120
1,note_on,60,40,0
1,note_on,60,0,120
1,note_on,61,38,0
1,note_on,61,0,120
1,note_on,60,38,0
1,note_on,60,0,120
1,note_on,58,38,0
1,note_on,58,0,120
1,note_on,56,40,0
1,note_on,56,0,120
1,note_on,58,37,0
1,note_on,58,0,120
1,note_on,56,37,0
1,note_on,56,0,120
1,note_on,55,37,0
1,note_on,55,0,120
1,note_on,53,40,0
1,note_on,53,0,120
1,note_on,55,37,0
1,note_on,55,0,120
1,note_on,56,37,0
1,note_on,56,0,120
1,note_on,53,37,0
1,note_on,53,0,120
1,note_on,48,40,120
1,note_on,48,0,120
1,note_on,53,37,0
1,note_on,53,0,120
1,note_on,56,37,0
1,note_on,56,0,120
1,note_on,60,40,0
1,note_on,60,0,120
1,note_on,61,38,0
1,note_on,61,0,120
1,note_on,60,38,0
1,note_on,60,0,120
1,note_on,58,38,0
1,note_on,58,0,120
1,note_on,56,40,0
1,note_on,56,0,120
1,note_on,58,37,0
1,note_on,58,0,120
1,note_on,56,37,0
1,note_on,56,0,120
1,note_on,55,37,0
1,note_on,55,0,120
1,note_on,53,40,0
1,note_on,53,0,120
1,note_on,55,37,0
1,note_on,55,0,120
1,note_on,56,37,0
1,note_on,56,0,120
1,note_on,53,37,0
1,note_on,53,0,120
1,note_on,49,44,120
1,note_on,49,0,120
1,note_on,54,40,0
1,note_on,54,0,120
1,note_on,58,40,0
1,note_on,58,0,120
1,note_on,61,44,0
1,note_on,61,0,120
1,note_on,63,41,0
1,note_on,63,0,120
1,note_on,61,41,0
1,note_on,61,0,120
1,note_on,60,41,0
1,note_on,60,0,120
1,note_on,58,44,0
1,note_on,58,0,120
1,note_on,60,40,0
1,note_on,60,0,120
1,note_on,58,40,0
1,note_on,58,0,120
1,note_on,56,40,0
1,note_on,56,0,120
1,note_on,54,44,0
1,note_on,54,0,120
1,note_on,56,40,0
1,note_on,56,0,120
1,note_on,54,40,0
1,note_on,54,0,120
1,note_on,53,40,0
1,note_on,53,0,120
1,note_on,52,44,0
1,note_on,52,0,120
1,note_on,53,40,0
1,note_on,53,0,120
1,note_on,55,40,0
1,note_on,55,0,120
1,note_on,52,40,0
1,note_on,52,0,120
1,note_on,53,44,0
1,note_on,53,0,120
1,note_on,55,40,0
1,note_on,55,0,120
1,note_on,56,40,0
1,note_on,56,0,120
1,note_on,53,40,0
1,note_on,53,0,120
1,note_on,55,44,0
1,note_on,55,0,120
1,note_on,56,40,0
1,note_on,56,0,120
1,note_on,58,40,0
1,note_on,58,0,120
1,note_on,55,40,0
1,note_on,55,0,120
1,note_on,52,44,0
1,note_on,52,0,120
1,note_on,53,37,0
1,note_on,53,0,120
1,note_on,55,38,0
1,note_on,55,0,120
1,note_on,52,40,0
1,note_on,52,0,120
1,note_on,53,44,0
1,note_on,53,0,120
1,note_on,48,40,0
1,note_on,48,0,120
1,note_on,53,37,0
1,note_on,53,0,120
1,note_on,56,37,0
1,note_on,56,0,120
1,note_on,60,40,0
1,note_on,60,0,120
1,note_on,61,38,0
1,note_on,61,0,120
1,note_on,60,38,0
1,note_on,60,0,120
1,note_on,58,38,0
1,note_on,58,0,120
1,note_on,56,40,0
1,note_on,56,0,120
1,note_on,58,37,0
1,note_on,58,0,120
1,note_on,56,37,0
1,note_on,56,0,120
1,note_on,55,37,0
1,note_on,55,0,120
1,note_on,53,40,0
1,note_on,53,0,120
1,note_on,55,37,0
1,note_on,55,0,120
1,note_on,56,37,0
1,note_on,56,0,120
1,note_on,53,37,0
1,note_on,53,0,120
1,note_on,48,40,120
1,note_on,48,0,120
1,note_on,53,37,0
1,note_on,53,0,120
1,note_on,56,37,0
1,note_on,56,0,120
1,note_on,60,40,0
1,note_on,60,0,120
1,note_on,61,38,0
1,note_on,61,0,120
1,note_on,60,38,0
1,note_on,60,0,120
1,note_on,58,38,0
1,note_on,58,0,120
1,note_on,56,40,0
1,note_on,56,0,120
1,note_on,58,37,0
1,note_on,58,0,120
1,note_on,56,37,0
1,note_on,56,0,120
1,note_on,55,37,0
1,note_on,55,0,120
1,note_on,53,40,0
1,note_on,53,0,120
1,note_on,55,37,0
1,note_on,55,0,120
1,note_on,56,37,0
1,note_on,56,0,120
1,note_on,53,37,0
1,note_on,53,0,120
1,note_on,49,44,120
1,note_on,49,0,120
1,note_on,54,40,0
1,note_on,54,0,120
1,note_on,58,40,0
1,note_on,58,0,120
1,note_on,61,44,0
1,note_on,61,0,120
1,note_on,63,41,0
1,note_on,63,0,120
1,note_on,61,41,0
1,note_on,61,0,120
1,note_on,60,41,0
1,note_on,60,0,120
1,note_on,58,44,0
1,note_on,58,0,120
1,note_on,60,40,0
1,note_on,60,0,120
1,note_on,58,40,0
1,note_on,58,0,120
1,note_on,56,40,0
1,note_on,56,0,120
1,note_on,54,44,0
1,note_on,54,0,120
1,note_on,56,40,0
1,note_on,56,0,120
1,note_on,54,40,0
1,note_on,54,0,120
1,note_on,53,40,0
1,note_on,53,0,120
1,note_on,52,44,0
1,note_on,52,0,120
1,note_on,53,40,0
1,note_on,53,0,120
1,note_on,55,40,0
1,note_on,55,0,120
1,note_on,52,40,0
1,note_on,52,0,120
1,note_on,53,44,0
1,note_on,53,0,120
1,note_on,55,40,0
1,note_on,55,0,120
1,note_on,56,40,0
1,note_on,56,0,120
1,note_on,53,40,0
1,note_on,53,0,120
1,note_on,55,44,0
1,note_on,55,0,120
1,note_on,56,40,0
1,note_on,56,0,120
1,note_on,58,40,0
1,note_on,58,0,120
1,note_on,55,40,0
1,note_on,55,0,120
1,note_on,52,44,0
1,note_on,52,0,120
1,note_on,53,37,0
1,note_on,53,0,120
1,note_on,55,38,0
1,note_on,55,0,120
1,note_on,52,40,0
1,note_on,52,0,120
1,note_on,53,37,0
1,note_on,53,0,120
1,note_on,60,38,0
1,note_on,60,0,120
1,note_on,65,40,0
1,note_on,65,0,120
1,note_on,68,42,0
1,note_on,68,0,120
1,note_on,72,43,0
1,note_on,72,0,120
1,note_on,60,45,0
1,note_on,60,0,120
1,note_on,65,46,0
1,note_on,65,0,120
1,note_on,68,48,0
1,note_on,68,0,120
1,note_on,60,46,120
1,note_on,60,0,120
1,note_on,65,47,0
1,note_on,65,0,120
1,note_on,68,49,0
1,note_on,68,0,120
1,note_on,72,50,0
1,note_on,72,0,120
1,note_on,60,52,0
1,note_on,60,0,120
1,note_on,65,53,0
1,note_on,65,0,120
1,note_on,68,38,0
1,note_on,68,0,120
1,note_on,59,51,120
1,note_on,59,0,120
1,note_on,62,52,0
1,note_on,62,0,120
1,note_on,68,52,0
1,note_on,68,0,120
1,note_on,71,54,0
1,note_on,59,52,120
1,note_on,59,0,120
1,note_on,62,52,0
1,note_on,62,0,120
1,note_on,68,52,0
1,note_on,68,0,120
1,note_on,71,0,0
1,note_on,71,54,0
1,note_on,59,52,120
1,note_on,59,0,120
1,note_on,64,50,0
1,note_on,64,0,120
1,note_on,67,49,0
1,note_on,67,0,120
1,note_on,71,0,0
1,note_on,72,52,0
1,note_on,60,46,120
1,note_on,60,0,120
1,note_on,64,44,0
1,note_on,64,0,120
1,note_on,67,38,0
1,note_on,67,0,120
1,note_on,72,0,0
1,note_on,60,38,120
1,note_on,60,0,120
1,note_on,64,40,0
1,note_on,64,0,120
1,note_on,67,42,0
1,note_on,67,0,120
1,note_on,72,43,0
1,note_on,72,0,120
1,note_on,60,45,0
1,note_on,60,0,120
1,note_on,64,46,0
1,note_on,64,0,120
1,note_on,67,48,0
1,note_on,67,0,120
1,note_on,60,46,120
1,note_on,60,0,120
1,note_on,64,47,0
1,note_on,64,0,120
1,note_on,67,49,0
1,note_on,67,0,120
1,note_on,72,50,0
1,note_on,72,0,120
1,note_on,60,52,0
1,note_on,60,0,120
1,note_on,64,53,0
1,note_on,64,0,120
1,note_on,67,38,0
1,note_on,67,0,120
1,note_on,60,51,120
1,note_on,60,0,120
1,note_on,64,52,0
1,note_on,64,0,120
1,note_on,67,52,0
1,note_on,67,0,120
1,note_on,72,54,0
1,note_on,60,52,120
1,note_on,60,0,120
1,note_on,64,52,0
1,note_on,64,0,120
1,note_on,67,52,0
1,note_on,67,0,120
1,note_on,72,0,0
1,note_on,72,53,0
1,note_on,60,52,120
1,note_on,60,0,120
1,note_on,64,50,0
1,note_on,64,0,120
1,note_on,67,49,0
1,note_on,67,0,120
1,note_on,72,0,0
1,note_on,72,47,0
1,note_on,60,46,120
1,note_on,60,0,120
1,note_on,65,44,0
1,note_on,65,0,120
1,note_on,68,38,0
1,note_on,68,0,120
1,note_on,72,0,0
1,note_on,65,38,120
1,note_on,65,0,120
1,note_on,69,40,0
1,note_on,69,0,120
1,note_on,72,42,0
1,note_on,72,0,120
1,note_on,77,43,0
1,note_on,77,0,120
1,note_on,65,45,0
1,note_on,65,0,120
1,note_on,69,46,0
1,note_on,69,0,120
1,note_on,72,48,0
1,note_on,72,0,120
1,note_on,65,46,120
1,note_on,65,0,120
1,note_on,69,47,0
1,note_on,69,0,120
1,note_on,72,49,0
1,note_on,72,0,120
1,note_on,77,50,0
1,note_on,77,0,120
1,note_on,65,52,0
1,note_on,65,0,120
1,note_on,69,53,0
1,note_on,69,0,120
1,note_on,72,54,0
1,note_on,72,0,120
1,note_on,65,50,120
1,note_on,65,0,120
1,note_on,69,50,0
1,note_on,69,0,120
1,note_on,72,50,0
1,note_on,72,0,120
1,note_on,77,55,0
1,note_on,65,53,120
1,note_on,65,0,120
1,note_on,69,52,0
1,note_on,69,0,120
1,note_on,72,52,0
1,note_on,72,0,120
1,note_on,77,0,0
1,note_on,65,54,0
1,note_on,69,54,0
1,note_on,69,0,120
1,note_on,65,0,0
1,note_on,77,54,0
1,note_on,77,0,120
1,note_on,70,53,0
1,note_on,65,53,0
1,note_on,65,0,120
1,note_on,70,0,0
1,note_on,77,52,0
1,note_on,77,0,120
1,note_on,72,52,0
1,note_on,65,52,0
1,note_on,65,0,120
1,note_on,72,0,0
1,note_on,77,51,0
1,note_on,77,0,120
1,note_on,65,50,0
1,note_on,73,50,0
1,note_on,73,0,120
1,note_on,65,0,0
1,note_on,77,50,0
1,note_on,77,0,120
1,note_on,60,52,120
1,note_on,60,0,120
1,note_on,65,49,0
1,note_on,65,0,120
1,note_on,68,50,0
1,note_on,68,0,120
1,note_on,72,56,0
1,note_on,60,50,120
1,note_on,60,0,120
1,note_on,65,50,0
1,note_on,65,0,120
1,note_on,68,50,0
1,note_on,68,0,120
1,note_on,72,0,0
1,note_on,72,56,0
1,note_on,60,52,120
1,note_on,60,0,120
1,note_on,67,52,0
1,note_on,67,0,120
1,note_on,70,52,0
1,note_on,70,0,120
1,note_on,72,0,0
1,note_on,72,56,0
1,note_on,60,52,120
1,note_on,60,0,120
1,note_on,64,52,0
1,note_on,64,0,120
1,note_on,67,52,0
1,note_on,67,0,120
1,note_on,72,0,0
1,note_on,60,59,0
1,note_on,72,59,0
1,note_on,65,59,0
1,note_on,68,59,0
1,note_on,68,0,480
1,note_on,60,0,0
1,note_on,72,0,0
1,note_on,65,0,0
1,note_on,80,69,360
1,note_on,77,69,0
1,note_on,77,0,120
1,note_on,80,0,0
1,note_on,80,74,0
1,note_on,77,74,0
1,note_on,77,0,480
1,note_on,80,0,0
1,note_on,77,70,360
1,note_on,80,70,0
1,note_on,80,0,120
1,note_on,77,0,0
1,note_on,77,75,0
1,note_on,80,75,0
1,note_on,80,0,960
1,note_on,77,0,0
1,note_on,76,68,0
1,note_on,79,68,0
1,note_on,79,0,240
1,note_on,76,0,0
1,note_on,82,69,1560
1,note_on,79,69,0
1,note_on,79,0,120
1,note_on,82,0,0
1,note_on,82,74,0
1,note_on,79,74,0
1,note_on,79,0,480
1,note_on,82,0,0
1,note_on,79,70,360
1,note_on,82,70,0
1,note_on,82,0,120
1,note_on,79,0,0
1,note_on,82,75,0
1,note_on,79,75,0
1,note_on,79,0,960
1,note_on,82,0,0
1,note_on,80,68,0
1,note_on,77,68,0
1,note_on,77,0,240
1,note_on,80,0,0
1,note_on,84,82,1560
1,note_on,87,82,0
1,note_on,87,0,120
1,note_on,84,0,0
1,note_on,87,89,0
1,note_on,84,89,0
1,note_on,84,0,480
1,note_on,87,0,0
1,note_on,84,84,360
1,note_on,87,84,0
1,note_on,87,0,120
1,note_on,84,0,0
1,note_on,87,90,0
1,note_on,84,90,0
1,note_on,84,0,1200
1,note_on,87,0,0
1,note_on,85,79,0
1,note_on,82,79,0
1,note_on,82,0,240
1,note_on,85,0,0
1,note_on,80,77,0
1,note_on,84,77,0
1,note_on,84,0,240
1,note_on,80,0,0
1,note_on,79,73,0
1,note_on,82,73,0
1,note_on,82,0,240
1,note_on,79,0,0
1,note_on,77,82,0
1,note_on,80,82,0
1,note_on,80,0,480
1,note_on,77,0,0
1,note_on,77,79,360
1,note_on,89,79,0
1,note_on,80,79,0
1,note_on,80,0,120
1,note_on,89,0,0
1,note_on,77,0,0
1,note_on,79,82,0
1,note_on,91,82,0
1,note_on,82,82,0
1,note_on,82,0,480
1,note_on,91,0,0
1,note_on,79,0,0
1,note_on,76,79,360
1,note_on,88,79,0
1,note_on,79,79,0
1,note_on,79,0,120
1,note_on,88,0,0
1,note_on,76,0,0
1,note_on,77,73,0
1,note_on,89,73,0
1,note_on,80,73,0
1,note_on,80,0,120
1,note_on,89,0,0
1,note_on,77,0,0
1,note_on,72,61,0
1,note_on,72,0,120
1,note_on,77,62,0
1,note_on,77,0,120
1,note_on,80,63,0
1,note_on,80,0,120
1,note_on,84,68,0
1,note_on,84,0,120
1,note_on,85,65,0
1,note_on,85,0,120
1,note_on,84,66,0
1,note_on,84,0,120
1,note_on,82,65,0
1,note_on,82,0,120
1,note_on,80,68,0
1,note_on,80,0,120
1,note_on,82,67,0
1,note_on,82,0,120
1,note_on,80,66,0
1,note_on,80,0,120
1,note_on,79,65,0
1,note_on,79,0,120
1,note_on,77,64,0
1,note_on,77,0,120
1,note_on,79,63,0
1,note_on,79,0,120
1,note_on,80,63,0
1,note_on,80,0,120
1,note_on,77,62,0
1,note_on,77,0,120
1,note_on,72,61,120
1,note_on,72,0,120
1,note_on,77,62,0
1,note_on,77,0,120
1,note_on,80,63,0
1,note_on,80,0,120
1,note_on,84,68,0
1,note_on,84,0,120
1,note_on,85,65,0
1,note_on,85,0,120
1,note_on,84,66,0
1,note_on,84,0,120
1,note_on,82,65,0
1,note_on,82,0,120
1,note_on,80,68,0
1,note_on,80,0,120
1,note_on,82,67,0
1,note_on,82,0,120
1,note_on,80,66,0
1,note_on,80,0,120
1,note_on,79,65,0
1,note_on,79,0,120
1,note_on,77,64,0
1,note_on,77,0,120
1,note_on,79,63,0
1,note_on,79,0,120
1,note_on,80,63,0
1,note_on,80,0,120
1,note_on,77,62,0
1,note_on,77,0,120
1,note_on,77,64,120
1,note_on,77,0,120
1,note_on,83,65,0
1,note_on,83,0,120
1,note_on,86,66,0
1,note_on,86,0,120
1,note_on,89,72,0
1,note_on,89,0,120
1,note_on,91,69,0
1,note_on,91,0,120
1,note_on,89,70,0
1,note_on,89,0,120
1,note_on,87,69,0
1,note_on,87,0,120
1,note_on,86,72,0
1,note_on,86,0,120
1,note_on,87,71,0
1,note_on,87,0,120
1,note_on,86,70,0
1,note_on,86,0,120
1,note_on,84,69,0
1,note_on,84,0,120
1,note_on,83,68,0
1,note_on,83,0,120
1,note_on,84,67,0
1,note_on,84,0,120
1,note_on,86,66,0
1,note_on,86,0,120
1,note_on,83,65,0
1,note_on,83,0,120
1,note_on,77,64,120
1,note_on,77,0,120
1,note_on,83,65,0
1,note_on,83,0,120
1,note_on,86,66,0
1,note_on,86,0,120
1,note_on,89,72,0
1,note_on,89,0,120
1,note_on,91,69,0
1,note_on,91,0,120
1,note_on,89,70,0
1,note_on,89,0,120
1,note_on,87,69,0
1,note_on,87,0,120
1,note_on,86,72,0
1,note_on,86,0,120
1,note_on,87,71,0
1,note_on,87,0,120
1,note_on,86,70,0
1,note_on,86,0,120
1,note_on,84,69,0
1,note_on,84,0,120
1,note_on,83,68,0
1,note_on,83,0,120
1,note_on,84,67,0
1,note_on,84,0,120
1,note_on,86,66,0
1,note_on,86,0,120
1,note_on,83,65,0
1,note_on,83,0,120
1,note_on,79,67,120
1,note_on,79,0,120
1,note_on,84,68,0
1,note_on,84,0,120
1,note_on,87,69,0
1,note_on,87,0,120
1,note_on,91,75,0
1,note_on,91,0,120
1,note_on,92,72,0
1,note_on,92,0,120
1,note_on,91,73,0
1,note_on,91,0,120
1,note_on,89,72,0
1,note_on,89,0,120
1,note_on,87,75,0
1,note_on,87,0,120
1,note_on,89,74,0
1,note_on,89,0,120
1,note_on,87,73,0
1,note_on,87,0,120
1,note_on,86,72,0
1,note_on,86,0,120
1,note_on,84,71,0
1,note_on,84,0,120
1,note_on,86,70,0
1,note_on,86,0,120
1,note_on,87,69,0
1,note_on,87,0,120
1,note_on,84,68,0
1,note_on,84,0,120
1,note_on,79,67,120
1,note_on,79,0,120
1,note_on,84,68,0
1,note_on,84,0,120
1,note_on,87,69,0
1,note_on,87,0,120
1,note_on,91,76,0
1,note_on,91,0,120
1,note_on,92,74,0
1,note_on,92,0,120
1,note_on,91,75,0
1,note_on,91,0,120
1,note_on,89,74,0
1,note_on,89,0,120
1,note_on,87,78,0
1,note_on,87,0,120
1,note_on,89,77,0
1,note_on,89,0,120
1,note_on,87,77,0
1,note_on,87,0,120
1,note_on,86,76,0
1,note_on,86,0,120
1,note_on,84,75,0
1,note_on,84,0,120
1,note_on,86,75,0
1,note_on,86,0,120
1,note_on,87,74,0
1,note_on,87,0,120
1,note_on,84,74,0
1,note_on,84,0,120
1,note_on,85,70,120
1,note_on,85,0,120
1,note_on,87,73,0
1,note_on,87,0,120
1,note_on,85,70,0
1,note_on,85,0,120
1,note_on,87,65,0
1,note_on,87,0,120
1,note_on,85,63,0
1,note_on,85,0,120
1,note_on,84,59,0
1,note_on,84,0,120
1,note_on,85,59,0
1,note_on,85,0,120
1,note_on,83,58,120
1,note_on,83,0,120
1,note_on,84,60,0
1,note_on,84,0,120
1,note_on,83,57,0
1,note_on,83,0,120
1,note_on,84,57,120
1,note_on,84,0,120
1,note_on,86,60,0
1,note_on,86,0,120
1,note_on,84,56,0
1,note_on,84,0,120
1,note_on,85,70,120
1,note_on,85,0,120
1,note_on,87,73,0
1,note_on,87,0,120
1,note_on,85,70,0
1,note_on,85,0,120
1,note_on,87,65,0
1,note_on,87,0,120
1,note_on,85,63,0
1,note_on,85,0,120
1,note_on,84,59,0
1,note_on,84,0,120
1,note_on,85,59,0
1,note_on,85,0,120
1,note_on,83,58,120
1,note_on,83,0,120
1,note_on,84,60,0
1,note_on,84,0,120
1,note_on,83,57,0
1,note_on,83,0,120
1,note_on,84,57,120
1,note_on,84,0,120
1,note_on,86,60,0
1,note_on,86,0,120
1,note_on,84,56,0
1,note_on,84,0,120
1,note_on,85,70,120
1,note_on,85,0,120
1,note_on,87,73,0
1,note_on,87,0,120
1,note_on,85,70,0
1,note_on,85,0,120
1,note_on,87,73,0
1,note_on,87,0,120
1,note_on,85,70,0
1,note_on,85,0,120
1,note_on,84,59,0
1,note_on,84,0,120
1,note_on,86,59,0
1,note_on,86,0,120
1,note_on,83,58,120
1,note_on,83,0,120
1,note_on,84,60,0
1,note_on,84,0,120
1,note_on,83,58,0
1,note_on,83,0,120
1,note_on,80,58,120
1,note_on,80,0,120
1,note_on,82,61,0
1,note_on,82,0,120
1,note_on,80,57,0
1,note_on,80,0,120
1,note_on,79,60,120
1,note_on,79,0,120
1,note_on,80,62,0
1,note_on,80,0,120
1,note_on,79,60,0
1,note_on,79,0,120
1,note_on,78,61,120
1,note_on,78,0,120
1,note_on,79,65,0
1,note_on,79,0,120
1,note_on,78,62,0
1,note_on,78,0,120
1,note_on,77,65,120
1,note_on,77,0,120
1,note_on,79,67,0
1,note_on,79,0,120
1,note_on,77,64,0
1,note_on,77,0,120
1,note_on,75,66,120
1,note_on,75,0,120
1,note_on,77,69,0
1,note_on,77,0,120
1,note_on,75,67,0
1,note_on,75,0,120
1,note_on,75,67,120
1,note_on,75,0,120
1,note_on,77,70,0
1,note_on,77,0,120
1,note_on,75,68,0
1,note_on,75,0,120
1,note_on,74,66,120
1,note_on,74,0,120
1,note_on,75,69,0
1,note_on,75,0,120
1,note_on,74,64,0
1,note_on,74,0,120
1,note_on,72,64,120
1,note_on,72,0,120
1,note_on,74,65,0
1,note_on,74,0,120
1,note_on,72,62,0
1,note_on,72,0,120
1,note_on,71,60,120
1,note_on,71,0,120
1,note_on,72,62,0
1,note_on,72,0,120
1,note_on,71,57,0
1,note_on,71,0,120
1,note_on,68,66,120
1,note_on,68,0,120
1,note_on,80,73,0
1,note_on,80,0,120
1,note_on,68,59,0
1,note_on,68,0,120
1,note_on,80,71,0
1,note_on,80,0,120
1,note_on,68,58,0
1,note_on,68,0,120
1,note_on,80,63,0
1,note_on,80,0,120
1,note_on,68,59,0
1,note_on,68,0,120
1,note_on,68,60,120
1,note_on,68,0,120
1,note_on,80,71,0
1,note_on,80,0,120
1,note_on,79,66,0
1,note_on,79,0,120
1,note_on,77,68,0
1,note_on,77,0,120
1,note_on,75,66,0
1,note_on,75,0,120
1,note_on,74,65,0
1,note_on,74,0,120
1,note_on,72,58,0
1,note_on,72,0,120
1,note_on,80,68,120
1,note_on,80,0,120
1,note_on,92,75,0
1,note_on,92,0,120
1,note_on,80,67,0
1,note_on,80,0,120
1,note_on,92,74,0
1,note_on,92,0,120
1,note_on,80,67,0
1,note_on,80,0,120
1,note_on,92,69,0
1,note_on,92,0,120
1,note_on,80,60,0
1,note_on,80,0,120
1,note_on,80,61,120
1,note_on,80,0,120
1,note_on,92,73,0
1,note_on,92,0,120
1,note_on,91,66,0
1,note_on,91,0,120
1,note_on,89,70,0
1,note_on,89,0,120
1,note_on,87,68,0
1,note_on,87,0,120
1,note_on,86,67,0
1,note_on,86,0,120
1,note_on,84,65,0
1,note_on,84,0,120
1,note_on,68,66,120
1,note_on,68,0,120
1,note_on,80,73,0
1,note_on,80,0,120
1,note_on,68,66,0
1,note_on,68,0,120
1,note_on,80,73,0
1,note_on,80,0,120
1,note_on,68,66,0
1,note_on,68,0,120
1,note_on,80,68,0
1,note_on,80,0,120
1,note_on,68,61,0
1,note_on,68,0,120
1,note_on,80,68,120
1,note_on,80,0,120
1,note_on,68,60,0
1,note_on,68,0,120
1,note_on,80,68,0
1,note_on,80,0,120
1,note_on,92,78,120
1,note_on,92,0,120
1,note_on,80,69,0
1,note_on,80,0,120
1,note_on,92,75,0
1,note_on,92,0,120
1,note_on,91,78,120
1,note_on,91,0,120
1,note_on,79,71,0
1,note_on,79,0,120
1,note_on,91,74,0
1,note_on,91,0,120
1,note_on,90,75,120
1,note_on,90,0,120
1,note_on,78,71,0
1,note_on,78,0,120
1,note_on,90,74,0
1,note_on,90,0,120
1,note_on,89,78,120
1,note_on,89,0,120
1,note_on,77,69,0
1,note_on,77,0,120
1,note_on,89,74,0
1,note_on,89,0,120
1,note_on,87,77,120
1,note_on,87,0,120
1,note_on,79,71,0
1,note_on,75,71,0
1,note_on,75,0,120
1,note_on,79,0,0
1,note_on,87,75,0
1,note_on,87,0,120
1,note_on,87,75,120
1,note_on,87,0,120
1,note_on,81,68,0
1,note_on,75,68,0
1,note_on,75,0,120
1,note_on,81,0,0
1,note_on,87,75,0
1,note_on,87,0,120
1,note_on,86,73,120
1,note_on,86,0,120
1,note_on,81,66,0
1,note_on,74,66,0
1,note_on,74,0,120
1,note_on,81,0,0
1,note_on,86,73,0
1,note_on,86,0,120
1,note_on,84,71,120
1,note_on,84,0,120
1,note_on,75,66,0
1,note_on,72,66,0
1,note_on,72,0,120
1,note_on,75,0,0
1,note_on,84,71,0
1,note_on,84,0,120
1,note_on,83,69,120
1,note_on,83,0,120
1,note_on,71,62,0
1,note_on,74,62,0
1,note_on,74,0,120
1,note_on,71,0,0
1,note_on,83,64,0
1,note_on,83,0,120
1,note_on,79,65,0
1,note_on,84,77,0
1,note_on,75,65,0
1,note_on,72,65,0
1,note_on,72,0,120
1,note_on,79,0,0
1,note_on,84,0,0
1,note_on,75,0,0
1,note_on,67,74,0
1,note_on,67,0,120
1,note_on,72,76,0
1,note_on,72,0,120
1,note_on,75,78,0
1,note_on,75,0,120
1,note_on,79,80,0
1,note_on,79,0,120
1,note_on,80,76,0
1,note_on,80,0,120
1,note_on,79,76,0
1,note_on,79,0,120
1,note_on,77,76,0
1,note_on,77,0,120
1,note_on,75,77,0
1,note_on,75,0,120
1,note_on,77,71,0
1,note_on,77,0,120
1,note_on,75,72,0
1,note_on,75,0,120
1,note_on,74,72,0
1,note_on,74,0,120
1,note_on,72,78,0
1,note_on,72,0,120
1,note_on,70,73,0
1,note_on,70,0,120
1,note_on,68,73,0
1,note_on,68,0,120
1,note_on,67,72,0
1,note_on,67,0,120
1,note_on,65,75,0
1,note_on,65,0,120
1,note_on,63,70,0
1,note_on,63,0,120
1,note_on,62,70,0
1,note_on,62,0,120
1,note_on,60,70,0
1,note_on,60,0,120
1,note_on,59,73,0
1,note_on,59,0,240
1,note_on,62,69,0
1,note_on,55,69,0
1,note_on,59,69,0
1,note_on,67,82,0
1,note_on,67,0,180
1,note_on,62,0,0
1,note_on,55,0,0
1,note_on,59,0,0
1,note_on,59,61,60
1,note_on,65,73,0
1,note_on,55,61,0
1,note_on,67,73,0
1,note_on,67,0,180
1,note_on,59,0,0
1,note_on,65,0,0
1,note_on,55,0,0
1,note_on,59,60,60
1,note_on,55,60,0
1,note_on,65,71,0
1,note_on,67,71,0
1,note_on,67,0,180
1,note_on,59,0,0
1,note_on,55,0,0
1,note_on,65,0,0
1,note_on,55,61,60
1,note_on,67,72,0
1,note_on,59,61,0
1,note_on,65,72,0
1,note_on,65,0,180
1,note_on,55,0,0
1,note_on,67,0,0
1,note_on,59,0,0
1,note_on,65,72,60
1,note_on,67,72,0
1,note_on,55,61,0
1,note_on,59,61,0
1,note_on,59,0,180
1,note_on,65,0,0
1,note_on,67,0,0
1,note_on,55,0,0
1,note_on,63,77,60
1,note_on,55,77,0
1,note_on,60,77,0
1,note_on,67,77,0
1,note_on,67,0,120
1,note_on,63,0,0
1,note_on,55,0,0
1,note_on,60,0,0
1,note_on,79,74,0
1,note_on,79,0,120
1,note_on,84,76,0
1,note_on,84,0,120
1,note_on,87,78,0
1,note_on,87,0,120
1,note_on,91,80,0
1,note_on,91,0,120
1,note_on,92,76,0
1,note_on,92,0,120
1,note_on,91,76,0
1,note_on,91,0,120
1,note_on,89,76,0
1,note_on,89,0,120
1,note_on,87,77,0
1,note_on,87,0,120
1,note_on,89,71,0
1,note_on,89,0,120
1,note_on,87,72,0
1,note_on,87,0,120
1,note_on,86,72,0
1,note_on,86,0,120
1,note_on,84,78,0
1,note_on,84,0,120
1,note_on,82,73,0
1,note_on,82,0,120
1,note_on,80,73,0
1,note_on,80,0,120
1,note_on,79,72,0
1,note_on,79,0,120
1,note_on,77,75,0
1,note_on,77,0,120
1,note_on,75,70,0
1,note_on,75,0,120
1,note_on,74,70,0
1,note_on,74,0,120
1,note_on,72,70,0
1,note_on,72,0,120
1,note_on,71,73,0
1,note_on,71,0,240
1,note_on,71,69,0
1,note_on,79,82,0
1,note_on,74,69,0
1,note_on,67,58,0
1,note_on,67,0,180
1,note_on,71,0,0
1,note_on,79,0,0
1,note_on,74,0,0
1,note_on,67,51,60
1,note_on,79,73,0
1,note_on,71,61,0
1,note_on,77,73,0
1,note_on,77,0,180
1,note_on,67,0,0
1,note_on,79,0,0
1,note_on,71,0,0
1,note_on,77,70,60
1,note_on,67,50,0
1,note_on,71,59,0
1,note_on,79,70,0
1,note_on,79,0,180
1,note_on,77,0,0
1,note_on,67,0,0
1,note_on,71,0,0
1,note_on,71,61,60
1,note_on,77,73,0
1,note_on,67,51,0
1,note_on,79,73,0
1,note_on,79,0,180
1,note_on,71,0,0
1,note_on,77,0,0
1,note_on,67,0,0
1,note_on,71,60,60
1,note_on,67,51,0
1,note_on,77,71,0
1,note_on,79,71,0
1,note_on,79,0,180
1,note_on,71,0,0
1,note_on,67,0,0
1,note_on,77,0,0
1,note_on,67,51,60
1,note_on,79,73,0
1,note_on,72,61,0
1,note_on,75,73,0
1,note_on,75,0,240
1,note_on,67,0,0
1,note_on,79,0,0
1,note_on,72,0,0
1,note_on,87,69,480
1,note_on,91,82,0
1,note_on,79,58,0
1,note_on,84,69,0
1,note_on,84,0,180
1,note_on,87,0,0
1,note_on,91,0,0
1,note_on,79,0,0
1,note_on,89,73,60
1,note_on,79,51,0
1,note_on,83,61,0
1,note_on,91,73,0
1,note_on,91,0,180
1,note_on,89,0,0
1,note_on,79,0,0
1,note_on,83,0,0
1,note_on,83,59,60
1,note_on,91,70,0
1,note_on,89,70,0
1,note_on,79,50,0
1,note_on,79,0,180
1,note_on,83,0,0
1,note_on,91,0,0
1,note_on,89,0,0
1,note_on,79,51,60
1,note_on,91,73,0
1,note_on,89,73,0
1,note_on,83,61,0
1,note_on,83,0,180
1,note_on,79,0,0
1,note_on,91,0,0
1,note_on,89,0,0
1,note_on,83,60,60
1,note_on,91,71,0
1,note_on,89,71,0
1,note_on,79,51,0
1,note_on,79,0,180
1,note_on,83,0,0
1,note_on,91,0,0
1,note_on,89,0,0
1,note_on,79,51,60
1,note_on,91,73,0
1,note_on,84,61,0
1,note_on,87,73,0
1,note_on,87,0,180
1,note_on,79,0,0
1,note_on,91,0,0
1,note_on,84,0,0
1,note_on,75,69,540
1,note_on,67,58,0
1,note_on,72,69,0
1,note_on,79,82,0
1,note_on,79,0,180
1,note_on,75,0,0
1,note_on,67,0,0
1,note_on,72,0,0
1,note_on,71,61,60
1,note_on,77,73,0
1,note_on,67,51,0
1,note_on,79,73,0
1,note_on,79,0,180
1,note_on,71,0,0
1,note_on,77,0,0
1,note_on,67,0,0
1,note_on,71,59,60
1,note_on,67,50,0
1,note_on,77,70,0
1,note_on,79,70,0
1,note_on,79,0,180
1,note_on,71,0,0
1,note_on,67,0,0
1,note_on,77,0,0
1,note_on,67,51,60
1,note_on,79,73,0
1,note_on,71,61,0
1,note_on,77,73,0
1,note_on,77,0,180
1,note_on,67,0,0
1,note_on,79,0,0
1,note_on,71,0,0
1,note_on,77,71,60
1,note_on,79,71,0
1,note_on,67,51,0
1,note_on,71,60,0
1,note_on,71,0,180
1,note_on,77,0,0
1,note_on,79,0,0
1,note_on,67,0,0
1,note_on,75,61,60
1,note_on,67,51,0
1,note_on,72,61,0
1,note_on,79,73,0
1,note_on,79,0,180
1,note_on,75,0,0
1,note_on,67,0,0
1,note_on,72,0,0
1,note_on,75,69,540
1,note_on,84,82,0
1,note_on,79,69,0
1,note_on,72,58,0
1,note_on,72,0,180
1,note_on,75,0,0
1,note_on,84,0,0
1,note_on,79,0,0
1,note_on,72,51,60
1,note_on,84,73,0
1,note_on,76,61,0
1,note_on,79,61,0
1,note_on,79,0,180
1,note_on,72,0,0
1,note_on,84,0,0
1,note_on,76,0,0
1,note_on,72,50,60
1,note_on,84,70,0
1,note_on,76,59,0
1,note_on,79,59,0
1,note_on,79,0,180
1,note_on,72,0,0
1,note_on,84,0,0
1,note_on,76,0,0
1,note_on,79,61,60
1,note_on,84,73,0
1,note_on,76,61,0
1,note_on,72,51,0
1,note_on,72,0,180
1,note_on,79,0,0
1,note_on,84,0,0
1,note_on,76,0,0
1,note_on,76,60,60
1,note_on,72,51,0
1,note_on,84,71,0
1,note_on,79,60,0
1,note_on,79,0,180
1,note_on,76,0,0
1,note_on,72,0,0
1,note_on,84,0,0
1,note_on,77,61,60
1,note_on,84,73,0
1,note_on,80,61,0
1,note_on,72,51,0
1,note_on,72,0,180
1,note_on,77,0,0
1,note_on,84,0,0
1,note_on,80,0,0
1,note_on,60,58,540
1,note_on,72,82,0
1,note_on,65,69,0
1,note_on,68,69,0
1,note_on,68,0,240
1,note_on,60,0,0
1,note_on,72,0,0
1,note_on,65,0,0
1,note_on,70,73,0
1,note_on,60,51,0
1,note_on,64,61,0
1,note_on,72,73,0
1,note_on,72,0,240
1,note_on,70,0,0
1,note_on,60,0,0
1,note_on,64,0,0
1,note_on,64,59,0
1,note_on,70,70,0
1,note_on,60,50,0
1,note_on,72,70,0
1,note_on,72,0,240
1,note_on,64,0,0
1,note_on,70,0,0
1,note_on,60,0,0
1,note_on,64,61,0
1,note_on,60,51,0
1,note_on,70,73,0
1,note_on,72,73,0
1,note_on,72,0,240
1,note_on,64,0,0
1,note_on,60,0,0
1,note_on,70,0,0
1,note_on,60,51,0
1,note_on,72,71,0
1,note_on,64,60,0
1,note_on,70,71,0
1,note_on,70,0,240
1,note_on,60,0,0
1,note_on,72,0,0
1,note_on,64,0,0
1,note_on,69,89,0
1,note_on,72,89,0
1,note_on,60,63,0
1,note_on,63,75,0
1,note_on,63,0,120
1,note_on,69,0,0
1,note_on,72,0,0
1,note_on,60,0,0
1,note_on,57,70,0
1,note_on,57,0,120
1,note_on,60,71,0
1,note_on,60,0,120
1,note_on,63,72,0
1,note_on,63,0,120
1,note_on,66,72,0
1,note_on,66,0,120
1,note_on,69,72,0
1,note_on,69,0,120
1,note_on,72,73,0
1,note_on,72,0,120
1,note_on,75,74,0
1,note_on,75,0,120
1,note_on,78,75,0
1,note_on,78,0,120
1,note_on,81,77,0
1,note_on,81,0,120
1,note_on,84,79,0
1,note_on,84,0,120
1,note_on,87,81,0
1,note_on,87,0,120
1,note_on,90,83,0
1,note_on,90,0,120
1,note_on,87,83,0
1,note_on,87,0,120
1,note_on,84,82,0
1,note_on,84,0,120
1,note_on,81,81,0
1,note_on,81,0,120
1,note_on,78,81,0
1,note_on,78,0,120
1,note_on,75,80,0
1,note_on,75,0,120
1,note_on,72,79,0
1,note_on,72,0,120
1,note_on,69,78,0
1,note_on,69,0,120
1,note_on,66,77,0
1,note_on,66,0,120
1,note_on,63,76,0
1,note_on,63,0,120
1,note_on,60,75,0
1,note_on,60,0,120
1,note_on,57,40,3120
1,note_on,57,0,120
1,note_on,60,37,0
1,note_on,60,0,120
1,note_on,63,37,0
1,note_on,63,0,120
1,note_on,66,40,0
1,note_on,66,0,120
1,note_on,68,38,0
1,note_on,68,0,120
1,note_on,66,38,0
1,note_on,66,0,120
1,note_on,65,38,0
1,note_on,65,0,120
1,note_on,63,40,0
1,note_on,63,0,120
1,note_on,65,37,0
1,note_on,65,0,120
1,note_on,63,37,0
1,note_on,63,0,120
1,note_on,61,37,0
1,note_on,61,0,120
1,note_on,60,40,0
1,note_on,60,0,120
1,note_on,61,37,0
1,note_on,61,0,120
1,note_on,63,37,0
1,note_on,63,0,120
1,note_on,60,37,0
1,note_on,60,0,120
1,note_on,57,40,120
1,note_on,57,0,120
1,note_on,60,37,0
1,note_on,60,0,120
1,note_on,63,37,0
1,note_on,63,0,120
1,note_on,66,40,0
1,note_on,66,0,120
1,note_on,68,38,0
1,note_on,68,0,120
1,note_on,66,38,0
1,note_on,66,0,120
1,note_on,65,38,0
1,note_on,65,0,120
1,note_on,63,40,0
1,note_on,63,0,120
1,note_on,65,37,0
1,note_on,65,0,120
1,note_on,63,37,0
1,note_on,63,0,120
1,note_on,61,37,0
1,note_on,61,0,120
1,note_on,60,40,0
1,note_on,60,0,120
1,note_on,61,37,0
1,note_on,61,0,120
1,note_on,63,37,0
1,note_on,63,0,120
1,note_on,60,37,0
1,note_on,60,0,120
1,note_on,57,47,120
1,note_on,57,0,120
1,note_on,60,49,0
1,note_on,60,0,120
1,note_on,63,50,0
1,note_on,63,0,120
1,note_on,66,52,0
1,note_on,66,0,120
1,note_on,68,54,0
1,note_on,68,0,120
1,note_on,66,56,0
1,note_on,66,0,120
1,note_on,65,58,0
1,note_on,65,0,120
1,note_on,63,67,0
1,note_on,63,0,240
1,note_on,63,47,0
1,note_on,63,0,120
1,note_on,65,49,0
1,note_on,65,0,120
1,note_on,66,52,0
1,note_on,66,0,120
1,note_on,68,54,0
1,note_on,68,0,120
1,note_on,66,56,0
1,note_on,66,0,120
1,note_on,65,59,0
1,note_on,65,0,120
1,note_on,63,67,0
1,note_on,63,0,240
1,note_on,63,50,0
1,note_on,63,0,120
1,note_on,65,50,0
1,note_on,65,0,120
1,note_on,66,56,0
1,note_on,66,0,120
1,note_on,68,49,0
1,note_on,68,0,120
1,note_on,66,50,0
1,note_on,66,0,120
1,note_on,65,50,0
1,note_on,65,0,120
1,note_on,63,67,0
1,note_on,63,0,240
1,note_on,66,56,0
1,note_on,78,56,0
1,note_on,78,0,240
1,note_on,66,0,0
1,note_on,65,60,0
1,note_on,77,60,0
1,note_on,77,0,240
1,note_on,65,0,0
1,note_on,69,54,0
1,note_on,81,54,0
1,note_on,81,0,240
1,note_on,69,0,0
1,note_on,82,56,0
1,note_on,70,56,0
1,note_on,70,0,120
1,note_on,82,0,0
1,note_on,65,51,0
1,note_on,65,0,120
1,note_on,70,52,0
1,note_on,70,0,120
1,note_on,73,53,0
1,note_on,73,0,120
1,note_on,77,57,0
1,note_on,77,0,120
1,note_on,78,55,0
1,note_on,78,0,120
1,note_on,77,56,0
1,note_on,77,0,120
1,note_on,75,55,0
1,note_on,75,0,120
1,note_on,73,57,0
1,note_on,73,0,120
1,note_on,75,56,0
1,note_on,75,0,120
1,note_on,73,56,0
1,note_on,73,0,120
1,note_on,72,55,0
1,note_on,72,0,120
1,note_on,70,54,0
1,note_on,70,0,120
1,note_on,72,53,0
1,note_on,72,0,120
1,note_on,73,53,0
1,note_on,73,0,120
1,note_on,70,52,0
1,note_on,70,0,120
1,note_on,65,51,120
1,note_on,65,0,120
1,note_on,70,52,0
1,note_on,70,0,120
1,note_on,73,53,0
1,note_on,73,0,120
1,note_on,77,57,0
1,note_on,77,0,120
1,note_on,78,55,0
1,note_on,78,0,120
1,note_on,77,56,0
1,note_on,77,0,120
1,note_on,75,55,0
1,note_on,75,0,120
1,note_on,73,57,0
1,note_on,73,0,120
1,note_on,75,56,0
1,note_on,75,0,120
1,note_on,73,56,0
1,note_on,73,0,120
1,note_on,72,55,0
1,note_on,72,0,120
1,note_on,70,54,0
1,note_on,70,0,120
1,note_on,72,53,0
1,note_on,72,0,120
1,note_on,73,53,0
1,note_on,73,0,120
1,note_on,70,52,0
1,note_on,70,0,120
1,note_on,66,51,120
1,note_on,66,0,120
1,note_on,71,53,0
1,note_on,71,0,120
1,note_on,75,54,0
1,note_on,75,0,120
1,note_on,78,59,0
1,note_on,78,0,120
1,note_on,80,58,0
1,note_on,80,0,120
1,note_on,78,59,0
1,note_on,78,0,120
1,note_on,77,59,0
1,note_on,77,0,120
1,note_on,75,62,0
1,note_on,75,0,120
1,note_on,77,62,0
1,note_on,77,0,120
1,note_on,75,62,0
1,note_on,75,0,120
1,note_on,73,62,0
1,note_on,73,0,120
1,note_on,71,62,0
1,note_on,71,0,120
1,note_on,73,61,0
1,note_on,73,0,120
1,note_on,75,64,0
1,note_on,75,0,120
1,note_on,71,61,0
1,note_on,71,0,120
1,note_on,70,68,0
1,note_on,70,0,120
1,note_on,72,64,0
1,note_on,72,0,120
1,note_on,70,66,0
1,note_on,70,0,120
1,note_on,69,64,0
1,note_on,69,0,120
1,note_on,70,62,0
1,note_on,70,0,120
1,note_on,72,60,0
1,note_on,72,0,120
1,note_on,73,59,0
1,note_on,73,0,120
1,note_on,70,58,0
1,note_on,70,0,120
1,note_on,69,62,0
1,note_on,69,0,120
1,note_on,70,61,0
1,note_on,70,0,120
1,note_on,69,60,0
1,note_on,69,0,120
1,note_on,67,58,0
1,note_on,67,0,120
1,note_on,69,56,0
1,note_on,69,0,120
1,note_on,70,55,0
1,note_on,70,0,120
1,note_on,72,54,0
1,note_on,72,0,120
1,note_on,69,53,0
1,note_on,69,0,120
1,note_on,70,61,0
1,note_on,70,0,240
1,note_on,70,57,0
1,note_on,70,0,120
1,note_on,73,58,0
1,note_on,73,0,120
1,note_on,77,62,0
1,note_on,77,0,120
1,note_on,78,60,0
1,note_on,78,0,120
1,note_on,77,61,0
1,note_on,77,0,120
1,note_on,75,60,0
1,note_on,75,0,120
1,note_on,73,62,0
1,note_on,73,0,120
1,note_on,75,61,0
1,note_on,75,0,120
1,note_on,73,61,0
1,note_on,73,0,120
1,note_on,72,60,0
1,note_on,72,0,120
1,note_on,82,69,0
1,note_on,70,69,0
1,note_on,70,0,120
1,note_on,72,58,0
1,note_on,72,0,120
1,note_on,82,0,0
1,note_on,73,59,0
1,note_on,73,0,120
1,note_on,70,58,0
1,note_on,70,0,120
1,note_on,81,71,0
1,note_on,81,0,240
1,note_on,70,60,0
1,note_on,70,0,120
1,note_on,73,62,0
1,note_on,73,0,120
1,note_on,82,69,0
1,note_on,77,69,0
1,note_on,77,0,120
1,note_on,78,65,0
1,note_on,78,0,120
1,note_on,82,0,0
1,note_on,77,67,0
1,note_on,77,0,120
1,note_on,75,66,0
1,note_on,75,0,120
1,note_on,73,69,0
1,note_on,73,0,120
1,note_on,75,68,0
1,note_on,75,0,120
1,note_on,73,69,0
1,note_on,73,0,120
1,note_on,72,69,0
1,note_on,72,0,120
1,note_on,82,82,0
1,note_on,70,68,0
1,note_on,70,0,120
1,note_on,72,67,0
1,note_on,72,0,120
1,note_on,82,0,0
1,note_on,73,68,0
1,note_on,73,0,120
1,note_on,70,67,0
1,note_on,70,0,120
1,note_on,71,88,0
1,note_on,83,88,0
1,note_on,83,0,120
1,note_on,71,0,0
1,note_on,78,74,0
1,note_on,78,0,120
1,note_on,83,76,0
1,note_on,83,0,120
1,note_on,87,78,0
1,note_on,87,0,120
1,note_on,90,80,0
1,note_on,90,0,120
1,note_on,92,76,0
1,note_on,92,0,120
1,note_on,90,76,0
1,note_on,90,0,120
1,note_on,89,76,0
1,note_on,89,0,120
1,note_on,87,77,0
1,note_on,87,0,120
1,note_on,89,71,0
1,note_on,89,0,120
1,note_on,87,72,0
1,note_on,87,0,120
1,note_on,85,72,0
1,note_on,85,0,120
1,note_on,83,78,0
1,note_on,83,0,120
1,note_on,85,73,0
1,note_on,85,0,120
1,note_on,83,73,0
1,note_on,83,0,120
1,note_on,82,72,0
1,note_on,82,0,120
1,note_on,81,77,0
1,note_on,81,0,120
1,note_on,84,71,0
1,note_on,84,0,120
1,note_on,87,72,0
1,note_on,87,0,120
1,note_on,85,72,0
1,note_on,85,0,120
1,note_on,84,78,0
1,note_on,84,0,120
1,note_on,85,73,0
1,note_on,85,0,120
1,note_on,84,73,0
1,note_on,84,0,120
1,note_on,82,72,0
1,note_on,82,0,120
1,note_on,81,77,0
1,note_on,81,0,120
1,note_on,82,71,0
1,note_on,82,0,120
1,note_on,81,72,0
1,note_on,81,0,120
1,note_on,78,72,0
1,note_on,78,0,120
1,note_on,77,74,0
1,note_on,77,0,120
1,note_on,75,71,0
1,note_on,75,0,120
1,note_on,73,71,0
1,note_on,73,0,120
1,note_on,72,69,0
1,note_on,72,0,120
1,note_on,70,73,0
1,note_on,70,0,120
1,note_on,77,74,120
1,note_on,77,0,480
1,note_on,77,61,0
1,note_on,77,0,120
1,note_on,77,61,120
1,note_on,77,0,120
1,note_on,78,72,120
1,note_on,78,0,480
1,note_on,78,60,0
1,note_on,78,0,120
1,note_on,78,59,120
1,note_on,78,0,120
1,note_on,77,73,120
1,note_on,77,0,480
1,note_on,77,63,0
1,note_on,77,0,120
1,note_on,77,65,120
1,note_on,77,0,120
1,note_on,72,61,120
1,note_on,72,0,120
1,note_on,73,61,120
1,note_on,73,0,120
1,note_on,75,61,120
1,note_on,75,0,120
1,note_on,73,65,120
1,note_on,73,0,120
1,note_on,89,80,120
1,note_on,77,73,0
1,note_on,77,0,480
1,note_on,89,0,0
1,note_on,89,74,0
1,note_on,77,68,0
1,note_on,77,0,120
1,note_on,89,0,0
1,note_on,89,74,120
1,note_on,77,68,0
1,note_on,77,0,120
1,note_on,89,0,0
1,note_on,90,81,120
1,note_on,78,74,0
1,note_on,78,0,480
1,note_on,90,0,0
1,note_on,90,73,0
1,note_on,78,67,0
1,note_on,78,0,120
1,note_on,90,0,0
1,note_on,90,72,120
1,note_on,78,66,0
1,note_on,78,0,120
1,note_on,90,0,0
1,note_on,89,82,120
1,note_on,77,75,0
1,note_on,77,0,480
1,note_on,89,0,0
1,note_on,89,77,0
1,note_on,77,70,0
1,note_on,77,0,120
1,note_on,89,0,0
1,note_on,89,80,120
1,note_on,77,73,0
1,note_on,77,0,120
1,note_on,89,0,0
1,note_on,84,74,120
1,note_on,72,68,0
1,note_on,72,0,120
1,note_on,84,0,0
1,note_on,85,74,120
1,note_on,73,68,0
1,note_on,73,0,120
1,note_on,85,0,0
1,note_on,87,74,120
1,note_on,75,68,0
1,note_on,75,0,120
1,note_on,87,0,0
1,note_on,85,80,120
1,note_on,73,73,0
1,note_on,73,0,120
1,note_on,85,0,0
1,note_on,72,72,120
1,note_on,72,0,480
1,note_on,72,61,0
1,note_on,72,0,120
1,note_on,72,61,120
1,note_on,72,0,120
1,note_on,71,72,120
1,note_on,71,0,480
1,note_on,71,60,0
1,note_on,71,0,120
1,note_on,71,59,120
1,note_on,71,0,120
1,note_on,72,71,120
1,note_on,72,0,480
1,note_on,72,63,0
1,note_on,72,0,120
1,note_on,72,65,120
1,note_on,72,0,120
1,note_on,67,61,120
1,note_on,67,0,120
1,note_on,68,61,120
1,note_on,68,0,120
1,note_on,70,61,120
1,note_on,70,0,120
1,note_on,68,65,120
1,note_on,68,0,120
1,note_on,84,80,120
1,note_on,72,73,0
1,note_on,72,0,480
1,note_on,84,0,0
1,note_on,84,74,0
1,note_on,72,68,0
1,note_on,72,0,120
1,note_on,84,0,0
1,note_on,84,74,120
1,note_on,72,68,0
1,note_on,72,0,120
1,note_on,84,0,0
1,note_on,83,81,120
1,note_on,71,74,0
1,note_on,71,0,480
1,note_on,83,0,0
1,note_on,83,73,0
1,note_on,71,67,0
1,note_on,71,0,120
1,note_on,83,0,0
1,note_on,83,72,120
1,note_on,71,66,0
1,note_on,71,0,120
1,note_on,83,0,0
1,note_on,84,82,120
1,note_on,72,75,0
1,note_on,72,0,480
1,note_on,84,0,0
1,note_on,84,77,0
1,note_on,72,70,0
1,note_on,72,0,120
1,note_on,84,0,0
1,note_on,84,80,120
1,note_on,72,73,0
1,note_on,72,0,120
1,note_on,84,0,0
1,note_on,79,74,120
1,note_on,67,68,0
1,note_on,67,0,120
1,note_on,79,0,0
1,note_on,80,74,120
1,note_on,68,68,0
1,note_on,68,0,120
1,note_on,80,0,0
1,note_on,82,74,120
1,note_on,70,68,0
1,note_on,70,0,120
1,note_on,82,0,0
1,note_on,80,80,120
1,note_on,68,73,0
1,note_on,68,0,120
1,note_on,80,0,0
1,note_on,60,70,0
1,note_on,60,0,120
1,note_on,65,72,0
1,note_on,65,0,120
1,note_on,68,74,0
1,note_on,68,0,120
1,note_on,72,76,0
1,note_on,72,0,120
1,note_on,73,72,0
1,note_on,73,0,120
1,note_on,72,72,0
1,note_on,72,0,120
1,note_on,70,72,0
1,note_on,70,0,120
1,note_on,68,73,0
1,note_on,68,0,120
1,note_on,70,67,0
1,note_on,70,0,120
1,note_on,68,69,0
1,note_on,68,0,120
1,note_on,67,69,0
1,note_on,67,0,120
1,note_on,65,75,0
1,note_on,65,0,120
1,note_on,67,70,0
1,note_on,67,0,120
1,note_on,68,70,0
1,note_on,68,0,120
1,note_on,65,70,0
1,note_on,65,0,120
1,note_on,66,75,0
1,note_on,66,0,120
1,note_on,61,72,0
1,note_on,61,0,120
1,note_on,66,74,0
1,note_on,66,0,120
1,note_on,70,76,0
1,note_on,70,0,120
1,note_on,73,78,0
1,note_on,73,0,120
1,note_on,75,75,0
1,note_on,75,0,120
1,note_on,73,75,0
1,note_on,73,0,120
1,note_on,72,75,0
1,note_on,72,0,120
1,note_on,70,76,0
1,note_on,70,0,120
1,note_on,72,70,0
1,note_on,72,0,120
1,note_on,70,71,0
1,note_on,70,0,120
1,note_on,68,71,0
1,note_on,68,0,120
1,note_on,66,76,0
1,note_on,66,0,120
1,note_on,68,73,0
1,note_on,68,0,120
1,note_on,70,73,0
1,note_on,70,0,120
1,note_on,66,72,0
1,note_on,66,0,120
1,note_on,69,77,0
1,note_on,69,0,120
1,note_on,63,74,0
1,note_on,63,0,120
1,note_on,69,76,0
1,note_on,69,0,120
1,note_on,72,78,0
1,note_on,72,0,120
1,note_on,75,80,0
1,note_on,75,0,120
1,note_on,77,76,0
1,note_on,77,0,120
1,note_on,75,76,0
1,note_on,75,0,120
1,note_on,73,77,0
1,note_on,73,0,120
1,note_on,72,78,0
1,note_on,72,0,120
1,note_on,73,72,0
1,note_on,73,0,120
1,note_on,72,73,0
1,note_on,72,0,120
1,note_on,70,73,0
1,note_on,70,0,120
1,note_on,69,80,0
1,note_on,69,0,120
1,note_on,70,75,0
1,note_on,70,0,120
1,note_on,72,75,0
1,note_on,72,0,120
1,note_on,69,74,0
1,note_on,69,0,120
1,note_on,70,90,0
1,note_on,70,0,120
1,note_on,65,76,0
1,note_on,65,0,120
1,note_on,70,79,0
1,note_on,70,0,120
1,note_on,73,82,0
1,note_on,73,0,120
1,note_on,77,83,0
1,note_on,77,0,120
1,note_on,78,83,0
1,note_on,78,0,120
1,note_on,77,82,0
1,note_on,77,0,120
1,note_on,75,82,0
1,note_on,75,0,120
1,note_on,73,81,0
1,note_on,73,0,120
1,note_on,72,81,0
1,note_on,72,0,120
1,note_on,70,80,0
1,note_on,70,0,120
1,note_on,68,80,0
1,note_on,68,0,120
1,note_on,66,79,0
1,note_on,66,0,120
1,note_on,65,79,0
1,note_on,65,0,120
1,note_on,63,78,0
1,note_on,63,0,120
1,note_on,61,78,0
1,note_on,61,0,120
1,note_on,60,77,0
1,note_on,60,0,120
1,note_on,58,77,0
1,note_on,58,0,120
1,note_on,56,76,0
1,note_on,56,0,120
1,note_on,54,76,0
1,note_on,54,0,120
1,note_on,53,73,0
1,note_on,53,0,120
1,note_on,51,73,0
1,note_on,51,0,120
1,note_on,49,74,0
1,note_on,49,0,120
1,note_on,48,76,0
1,note_on,48,0,120
1,note_on,46,78,0
1,note_on,46,0,120
1,note_on,48,79,0
1,note_on,48,0,120
1,note_on,49,81,0
1,note_on,49,0,120
1,note_on,46,82,0
1,note_on,46,0,120
1,note_on,46,82,0
1,note_on,46,0,240
1,note_on,47,77,0
1,note_on,50,77,0
1,note_on,53,77,0
1,note_on,56,90,0
1,note_on,56,0,240
1,note_on,47,0,0
1,note_on,50,0,0
1,note_on,53,0,0
1,note_on,48,82,0
1,note_on,52,82,0
1,note_on,55,98,0
1,note_on,55,0,120
1,note_on,52,0,0
1,note_on,48,0,0
1,note_on,48,66,0
1,note_on,60,66,0
1,note_on,60,0,120
1,note_on,48,0,0
1,note_on,60,66,120
1,note_on,48,66,0
1,note_on,48,0,120
1,note_on,60,0,0
1,note_on,60,66,120
1,note_on,48,66,0
1,note_on,48,0,120
1,note_on,60,0,0
1,note_on,60,66,120
1,note_on,48,66,0
1,note_on,48,0,120
1,note_on,60,0,0
1,note_on,60,66,120
1,note_on,48,66,0
1,note_on,48,0,120
1,note_on,60,0,0
1,note_on,60,66,120
1,note_on,48,66,0
1,note_on,48,0,120
1,note_on,60,0,0
1,note_on,60,66,120
1,note_on,48,66,0
1,note_on,48,0,120
1,note_on,60,0,0
1,note_on,60,66,120
1,note_on,48,66,0
1,note_on,48,0,120
1,note_on,60,0,0
1,note_on,60,64,120
1,note_on,72,64,0
1,note_on,72,0,120
1,note_on,60,0,0
1,note_on,60,64,120
1,note_on,72,64,0
1,note_on,72,0,120
1,note_on,60,0,0
1,note_on,60,65,120
1,note_on,72,65,0
1,note_on,72,0,120
1,note_on,60,0,0
1,note_on,60,66,120
1,note_on,72,66,0
1,note_on,72,0,120
1,note_on,60,0,0
1,note_on,60,64,120
1,note_on,72,64,0
1,note_on,72,0,120
1,note_on,60,0,0
1,note_on,60,64,120
1,note_on,72,64,0
1,note_on,72,0,120
1,note_on,60,0,0
1,note_on,60,65,120
1,note_on,72,65,0
1,note_on,72,0,120
1,note_on,60,0,0
1,note_on,60,66,120
1,note_on,72,66,0
1,note_on,72,0,120
1,note_on,60,0,0
1,note_on,72,67,120
1,note_on,84,67,0
1,note_on,84,0,120
1,note_on,72,0,0
1,note_on,72,68,120
1,note_on,84,68,0
1,note_on,84,0,120
1,note_on,72,0,0
1,note_on,72,69,120
1,note_on,84,69,0
1,note_on,84,0,120
1,note_on,72,0,0
1,note_on,72,70,120
1,note_on,84,70,0
1,note_on,84,0,120
1,note_on,72,0,0
1,note_on,72,71,120
1,note_on,84,71,0
1,note_on,84,0,120
1,note_on,72,0,0
1,note_on,72,72,120
1,note_on,84,72,0
1,note_on,84,0,120
1,note_on,72,0,0
1,note_on,72,73,120
1,note_on,84,73,0
1,note_on,84,0,120
1,note_on,72,0,0
1,note_on,72,74,120
1,note_on,84,74,0
1,note_on,84,0,120
1,note_on,72,0,0
1,note_on,84,75,120
1,note_on,96,75,0
1,note_on,96,0,120
1,note_on,84,0,0
1,note_on,84,76,120
1,note_on,96,76,0
1,note_on,96,0,120
1,note_on,84,0,0
1,note_on,84,78,120
1,note_on,96,78,0
1,note_on,96,0,120
1,note_on,84,0,0
1,note_on,84,81,120
1,note_on,96,81,0
1,note_on,96,0,120
1,note_on,84,0,0
1,note_on,84,82,120
1,note_on,96,82,0
1,note_on,96,0,120
1,note_on,84,0,0
1,note_on,84,84,120
1,note_on,96,84,0
1,note_on,96,0,120
1,note_on,84,0,0
1,note_on,84,86,120
1,note_on,96,86,0
1,note_on,96,0,120
1,note_on,84,0,0
1,note_on,84,88,120
1,note_on,96,88,0
1,note_on,96,0,120
1,note_on,84,0,0
1,note_on,61,72,1080
1,note_on,61,0,120
1,note_on,66,75,0
1,note_on,66,0,120
1,note_on,70,76,0
1,note_on,70,0,120
1,note_on,73,88,0
1,note_on,73,0,120
1,note_on,73,77,480
1,note_on,73,0,120
1,note_on,78,79,0
1,note_on,78,0,120
1,note_on,82,81,0
1,note_on,82,0,120
1,note_on,85,89,0
1,note_on,85,0,240
1,note_on,64,89,1680
1,note_on,64,0,120
1,note_on,64,72,480
1,note_on,64,0,120
1,note_on,67,75,0
1,note_on,67,0,120
1,note_on,70,76,0
1,note_on,70,0,120
1,note_on,76,87,0
1,note_on,76,0,120
1,note_on,76,77,480
1,note_on,76,0,120
1,note_on,79,79,0
1,note_on,79,0,120
1,note_on,82,81,0
1,note_on,82,0,120
1,note_on,88,93,0
1,note_on,88,0,240
1,note_on,61,51,1920
1,note_on,61,0,120
1,note_on,64,53,0
1,note_on,64,0,120
1,note_on,67,54,0
1,note_on,67,0,240
1,note_on,58,47,1200
1,note_on,58,0,120
1,note_on,61,51,0
1,note_on,61,0,120
1,note_on,64,48,0
1,note_on,64,0,120
1,note_on,67,50,0
1,note_on,67,0,120
1,note_on,70,51,0
1,note_on,70,0,240
1,note_on,61,44,1200
1,note_on,61,0,120
1,note_on,64,48,0
1,note_on,64,0,120
1,note_on,67,45,0
1,note_on,67,0,120
1,note_on,70,47,0
1,note_on,70,0,120
1,note_on,73,48,0
1,note_on,73,0,240
1,note_on,64,41,1200
1,note_on,64,0,120
1,note_on,67,45,0
1,note_on,67,0,120
1,note_on,70,42,0
1,note_on,70,0,120
1,note_on,73,44,0
1,note_on,73,0,120
1,note_on,76,45,0
1,note_on,76,0,240
1,note_on,61,35,1680
1,note_on,61,0,240
1,note_on,64,36,0
1,note_on,64,0,240
1,note_on,67,37,0
1,note_on,67,0,240
1,note_on,70,38,0
1,note_on,70,0,240
1,note_on,73,39,0
1,note_on,73,0,240
1,note_on,76,40,0
1,note_on,76,0,240
1,note_on,79,40,0
1,note_on,79,0,240
1,note_on,82,41,0
1,note_on,82,0,240
1,note_on,85,42,0
1,note_on,85,0,240
1,note_on,88,43,0
1,note_on,88,0,240
1,note_on,91,44,0
1,note_on,91,0,240
1,note_on,94,46,0
1,note_on,94,0,240
1,note_on,91,46,0
1,note_on,91,0,240
1,note_on,88,45,0
1,note_on,88,0,240
1,note_on,85,45,0
1,note_on,85,0,240
1,note_on,82,44,0
1,note_on,82,0,240
1,note_on,79,44,0
1,note_on,79,0,240
1,note_on,76,43,0
1,note_on,76,0,240
1,note_on,73,43,0
1,note_on,73,0,240
1,note_on,70,42,0
1,note_on,70,0,240
1,note_on,67,42,0
1,note_on,67,0,240
1,note_on,64,41,0
1,note_on,64,0,240
1,note_on,61,40,0
1,note_on,61,0,240
1,note_on,55,34,8880
1,note_on,58,34,0
1,note_on,60,34,0
1,note_on,64,34,0
1,note_on,64,0,720
1,note_on,55,0,0
1,note_on,58,0,0
1,note_on,60,0,0
1,note_on,67,34,240
1,note_on,70,34,0
1,note_on,72,34,0
1,note_on,76,34,0
1,note_on,76,0,720
1,note_on,67,0,0
1,note_on,70,0,0
1,note_on,72,0,0
1,note_on,88,34,240
1,note_on,84,34,0
1,note_on,82,34,0
1,note_on,79,34,0
1,note_on,79,0,720
1,note_on,88,0,0
1,note_on,84,0,0
1,note_on,82,0,0
1,note_on,48,40,1320
1,note_on,48,0,120
1,note_on,53,37,0
1,note_on,53,0,120
1,note_on,56,37,0
1,note_on,56,0,120
1,note_on,60,40,0
1,note_on,60,0,120
1,note_on,61,38,0
1,note_on,61,0,120
1,note_on,60,38,0
1,note_on,60,0,120
1,note_on,58,38,0
1,note_on,58,0,120
1,note_on,56,40,0
1,note_on,56,0,120
1,note_on,58,37,0
1,note_on,58,0,120
1,note_on,56,37,0
1,note_on,56,0,120
1,note_on,55,37,0
1,note_on,55,0,120
1,note_on,53,40,0
1,note_on,53,0,120
1,note_on,55,37,0
1,note_on,55,0,120
1,note_on,56,37,0
1,note_on,56,0,120
1,note_on,53,37,0
1,note_on,53,0,120
1,note_on,48,40,120
1,note_on,48,0,120
1,note_on,53,37,0
1,note_on,53,0,120
1,note_on,56,37,0
1,note_on,56,0,120
1,note_on,60,40,0
1,note_on,60,0,120
1,note_on,61,38,0
1,note_on,61,0,120
1,note_on,60,38,0
1,note_on,60,0,120
1,note_on,58,38,0
1,note_on,58,0,120
1,note_on,56,40,0
1,note_on,56,0,120
1,note_on,58,37,0
1,note_on,58,0,120
1,note_on,56,37,0
1,note_on,56,0,120
1,note_on,55,37,0
1,note_on,55,0,120
1,note_on,53,40,0
1,note_on,53,0,120
1,note_on,55,37,0
1,note_on,55,0,120
1,note_on,56,37,0
1,note_on,56,0,120
1,note_on,53,37,0
1,note_on,53,0,120
1,note_on,49,44,120
1,note_on,49,0,120
1,note_on,54,40,0
1,note_on,54,0,120
1,note_on,58,40,0
1,note_on,58,0,120
1,note_on,61,44,0
1,note_on,61,0,120
1,note_on,63,41,0
1,note_on,63,0,120
1,note_on,61,41,0
1,note_on,61,0,120
1,note_on,60,41,0
1,note_on,60,0,120
1,note_on,58,44,0
1,note_on,58,0,120
1,note_on,60,40,0
1,note_on,60,0,120
1,note_on,58,40,0
1,note_on,58,0,120
1,note_on,56,40,0
1,note_on,56,0,120
1,note_on,54,44,0
1,note_on,54,0,120
1,note_on,56,40,0
1,note_on,56,0,120
1,note_on,54,40,0
1,note_on,54,0,120
1,note_on,53,40,0
1,note_on,53,0,120
1,note_on,52,44,0
1,note_on,52,0,120
1,note_on,53,40,0
1,note_on,53,0,120
1,note_on,55,40,0
1,note_on,55,0,120
1,note_on,52,40,0
1,note_on,52,0,120
1,note_on,53,44,0
1,note_on,53,0,120
1,note_on,55,40,0
1,note_on,55,0,120
1,note_on,56,40,0
1,note_on,56,0,120
1,note_on,53,40,0
1,note_on,53,0,120
1,note_on,55,44,0
1,note_on,55,0,120
1,note_on,56,40,0
1,note_on,56,0,120
1,note_on,58,40,0
1,note_on,58,0,120
1,note_on,55,40,0
1,note_on,55,0,120
1,note_on,52,44,0
1,note_on,52,0,120
1,note_on,53,37,0
1,note_on,53,0,120
1,note_on,55,38,0
1,note_on,55,0,120
1,note_on,52,40,0
1,note_on,52,0,120
1,note_on,53,38,0
1,note_on,53,0,480
1,note_on,64,57,240
1,note_on,64,0,120
1,note_on,65,62,120
1,note_on,65,0,120
1,note_on,67,57,120
1,note_on,67,0,120
1,note_on,68,62,120
1,note_on,68,0,120
1,note_on,65,59,120
1,note_on,65,0,120
1,note_on,76,60,840
1,note_on,64,52,0
1,note_on,64,0,120
1,note_on,76,0,0
1,note_on,77,66,120
1,note_on,65,57,0
1,note_on,65,0,120
1,note_on,77,0,0
1,note_on,67,53,120
1,note_on,79,63,0
1,note_on,79,0,120
1,note_on,67,0,0
1,note_on,68,57,120
1,note_on,80,68,0
1,note_on,80,0,120
1,note_on,68,0,0
1,note_on,65,53,120
1,note_on,77,63,0
1,note_on,77,0,120
1,note_on,65,0,0
1,note_on,65,59,840
1,note_on,77,71,0
1,note_on,77,0,240
1,note_on,65,0,0
1,note_on,66,63,0
1,note_on,78,77,0
1,note_on,78,0,240
1,note_on,66,0,0
1,note_on,70,66,0
1,note_on,82,79,0
1,note_on,82,0,240
1,note_on,70,0,0
1,note_on,73,69,0
1,note_on,85,81,0
1,note_on,85,0,120
1,note_on,73,0,0
1,note_on,73,66,120
1,note_on,85,79,0
1,note_on,85,0,120
1,note_on,73,0,0
1,note_on,73,71,120
1,note_on,85,83,0
1,note_on,85,0,480
1,note_on,73,0,0
1,note_on,84,78,0
1,note_on,72,64,0
1,note_on,72,0,960
1,note_on,84,0,0
1,note_on,64,64,0
1,note_on,76,64,0
1,note_on,76,0,480
1,note_on,64,0,0
1,note_on,77,57,0
1,note_on,65,57,0
1,note_on,65,0,120
1,note_on,77,0,0
1,note_on,60,41,0
1,note_on,60,0,120
1,note_on,65,44,0
1,note_on,65,0,120
1,note_on,68,46,0
1,note_on,68,0,120
1,note_on,72,43,0
1,note_on,72,0,120
1,note_on,60,45,0
1,note_on,60,0,120
1,note_on,65,46,0
1,note_on,65,0,120
1,note_on,68,48,0
1,note_on,68,0,120
1,note_on,60,46,120
1,note_on,60,0,120
1,note_on,65,47,0
1,note_on,65,0,120
1,note_on,68,49,0
1,note_on,68,0,120
1,note_on,72,50,0
1,note_on,72,0,120
1,note_on,60,52,0
1,note_on,60,0,120
1,note_on,65,53,0
1,note_on,65,0,120
1,note_on,68,38,0
1,note_on,68,0,120
1,note_on,59,51,120
1,note_on,59,0,120
1,note_on,62,52,0
1,note_on,62,0,120
1,note_on,68,52,0
1,note_on,68,0,120
1,note_on,71,54,0
1,note_on,59,52,120
1,note_on,59,0,120
1,note_on,62,52,0
1,note_on,62,0,120
1,note_on,68,52,0
1,note_on,68,0,120
1,note_on,71,0,0
1,note_on,71,54,0
1,note_on,59,52,120
1,note_on,59,0,120
1,note_on,64,50,0
1,note_on,64,0,120
1,note_on,67,49,0
1,note_on,67,0,120
1,note_on,71,0,0
1,note_on,72,52,0
1,note_on,60,46,120
1,note_on,60,0,120
1,note_on,64,44,0
1,note_on,64,0,120
1,note_on,67,38,0
1,note_on,67,0,120
1,note_on,72,0,0
1,note_on,60,38,120
1,note_on,60,0,120
1,note_on,64,40,0
1,note_on,64,0,120
1,note_on,67,42,0
1,note_on,67,0,120
1,note_on,72,43,0
1,note_on,72,0,120
1,note_on,60,45,0
1,note_on,60,0,120
1,note_on,64,46,0
1,note_on,64,0,120
1,note_on,67,48,0
1,note_on,67,0,120
1,note_on,60,46,120
1,note_on,60,0,120
1,note_on,64,47,0
1,note_on,64,0,120
1,note_on,67,49,0
1,note_on,67,0,120
1,note_on,72,50,0
1,note_on,72,0,120
1,note_on,60,52,0
1,note_on,60,0,120
1,note_on,64,53,0
1,note_on,64,0,120
1,note_on,67,38,0
1,note_on,67,0,120
1,note_on,60,51,120
1,note_on,60,0,120
1,note_on,64,52,0
1,note_on,64,0,120
1,note_on,67,52,0
1,note_on,67,0,120
1,note_on,72,54,0
1,note_on,60,52,120
1,note_on,60,0,120
1,note_on,64,52,0
1,note_on,64,0,120
1,note_on,67,52,0
1,note_on,67,0,120
1,note_on,72,0,0
1,note_on,72,53,0
1,note_on,60,52,120
1,note_on,60,0,120
1,note_on,64,50,0
1,note_on,64,0,120
1,note_on,67,49,0
1,note_on,67,0,120
1,note_on,72,0,0
1,note_on,72,47,0
1,note_on,60,46,120
1,note_on,60,0,120
1,note_on,65,44,0
1,note_on,65,0,120
1,note_on,68,38,0
1,note_on,68,0,120
1,note_on,72,0,0
1,note_on,65,38,120
1,note_on,65,0,120
1,note_on,69,40,0
1,note_on,69,0,120
1,note_on,72,42,0
1,note_on,72,0,120
1,note_on,77,43,0
1,note_on,77,0,120
1,note_on,65,45,0
1,note_on,65,0,120
1,note_on,69,46,0
1,note_on,69,0,120
1,note_on,72,48,0
1,note_on,72,0,120
1,note_on,65,46,120
1,note_on,65,0,120
1,note_on,69,47,0
1,note_on,69,0,120
1,note_on,72,49,0
1,note_on,72,0,120
1,note_on,77,50,0
1,note_on,77,0,120
1,note_on,65,52,0
1,note_on,65,0,120
1,note_on,69,53,0
1,note_on,69,0,120
1,note_on,72,54,0
1,note_on,72,0,120
1,note_on,65,50,120
1,note_on,65,0,120
1,note_on,69,50,0
1,note_on,69,0,120
1,note_on,72,50,0
1,note_on,72,0,120
1,note_on,77,55,0
1,note_on,65,53,120
1,note_on,65,0,120
1,note_on,69,52,0
1,note_on,69,0,120
1,note_on,72,52,0
1,note_on,72,0,120
1,note_on,77,0,0
1,note_on,69,54,0
1,note_on,65,54,0
1,note_on,65,0,120
1,note_on,69,0,0
1,note_on,77,54,0
1,note_on,77,0,120
1,note_on,65,53,0
1,note_on,70,53,0
1,note_on,70,0,120
1,note_on,65,0,0
1,note_on,77,52,0
1,note_on,77,0,120
1,note_on,65,52,0
1,note_on,72,52,0
1,note_on,72,0,120
1,note_on,65,0,0
1,note_on,77,51,0
1,note_on,77,0,120
1,note_on,73,50,0
1,note_on,65,50,0
1,note_on,65,0,120
1,note_on,73,0,0
1,note_on,77,50,0
1,note_on,77,0,120
1,note_on,60,52,120
1,note_on,60,0,120
1,note_on,65,49,0
1,note_on,65,0,120
1,note_on,68,50,0
1,note_on,68,0,120
1,note_on,72,56,0
1,note_on,60,50,120
1,note_on,60,0,120
1,note_on,65,50,0
1,note_on,65,0,120
1,note_on,68,50,0
1,note_on,68,0,120
1,note_on,72,0,0
1,note_on,72,56,0
1,note_on,60,52,120
1,note_on,60,0,120
1,note_on,67,52,0
1,note_on,67,0,120
1,note_on,70,52,0
1,note_on,70,0,120
1,note_on,72,0,0
1,note_on,72,56,0
1,note_on,60,52,120
1,note_on,60,0,120
1,note_on,64,52,0
1,note_on,64,0,120
1,note_on,67,52,0
1,note_on,67,0,120
1,note_on,72,0,0
1,note_on,60,59,0
1,note_on,65,59,0
1,note_on,68,59,0
1,note_on,72,59,0
1,note_on,72,0,480
1,note_on,60,0,0
1,note_on,65,0,0
1,note_on,68,0,0
1,note_on,80,69,360
1,note_on,77,69,0
1,note_on,77,0,120
1,note_on,80,0,0
1,note_on,80,74,0
1,note_on,77,74,0
1,note_on,77,0,480
1,note_on,80,0,0
1,note_on,80,70,360
1,note_on,77,70,0
1,note_on,77,0,120
1,note_on,80,0,0
1,note_on,80,75,0
1,note_on,77,75,0
1,note_on,77,0,960
1,note_on,80,0,0
1,note_on,79,68,0
1,note_on,76,68,0
1,note_on,76,0,240
1,note_on,79,0,0
1,note_on,82,75,1560
1,note_on,79,75,0
1,note_on,79,0,120
1,note_on,82,0,0
1,note_on,82,81,0
1,note_on,79,81,0
1,note_on,79,0,480
1,note_on,82,0,0
1,note_on,82,77,360
1,note_on,79,77,0
1,note_on,79,0,120
1,note_on,82,0,0
1,note_on,82,82,0
1,note_on,79,82,0
1,note_on,79,0,960
1,note_on,82,0,0
1,note_on,80,74,0
1,note_on,77,74,0
1,note_on,77,0,240
1,note_on,80,0,0
1,note_on,87,82,1560
1,note_on,84,82,0
1,note_on,84,0,120
1,note_on,87,0,0
1,note_on,87,89,0
1,note_on,84,89,0
1,note_on,84,0,480
1,note_on,87,0,0
1,note_on,87,84,360
1,note_on,84,84,0
1,note_on,84,0,120
1,note_on,87,0,0
1,note_on,87,90,0
1,note_on,84,90,0
1,note_on,84,0,1200
1,note_on,87,0,0
1,note_on,85,79,0
1,note_on,82,79,0
1,note_on,82,0,240
1,note_on,85,0,0
1,note_on,84,77,0
1,note_on,80,77,0
1,note_on,80,0,240
1,note_on,84,0,0
1,note_on,82,73,0
1,note_on,79,73,0
1,note_on,79,0,240
1,note_on,82,0,0
1,note_on,80,82,0
1,note_on,77,82,0
1,note_on,77,0,480
1,note_on,80,0,0
1,note_on,89,79,360
1,note_on,80,79,0
1,note_on,77,79,0
1,note_on,77,0,120
1,note_on,80,0,0
1,note_on,89,0,0
1,note_on,91,82,0
1,note_on,82,82,0
1,note_on,79,82,0
1,note_on,79,0,480
1,note_on,82,0,0
1,note_on,91,0,0
1,note_on,88,79,360
1,note_on,79,79,0
1,note_on,76,79,0
1,note_on,76,0,120
1,note_on,79,0,0
1,note_on,88,0,0
1,note_on,89,73,0
1,note_on,80,73,0
1,note_on,77,73,0
1,note_on,77,0,120
1,note_on,80,0,0
1,note_on,89,0,0
1,note_on,72,61,0
1,note_on,72,0,120
1,note_on,77,62,0
1,note_on,77,0,120
1,note_on,80,63,0
1,note_on,80,0,120
1,note_on,84,68,0
1,note_on,84,0,120
1,note_on,85,65,0
1,note_on,85,0,120
1,note_on,84,66,0
1,note_on,84,0,120
1,note_on,82,65,0
1,note_on,82,0,120
1,note_on,80,68,0
1,note_on,80,0,120
1,note_on,82,67,0
1,note_on,82,0,120
1,note_on,80,66,0
1,note_on,80,0,120
1,note_on,79,65,0
1,note_on,79,0,120
1,note_on,77,64,0
1,note_on,77,0,120
1,note_on,79,63,0
1,note_on,79,0,120
1,note_on,80,63,0
1,note_on,80,0,120
1,note_on,77,62,0
1,note_on,77,0,120
1,note_on,72,61,120
1,note_on,72,0,120
1,note_on,77,62,0
1,note_on,77,0,120
1,note_on,80,63,0
1,note_on,80,0,120
1,note_on,84,68,0
1,note_on,84,0,120
1,note_on,85,65,0
1,note_on,85,0,120
1,note_on,84,66,0
1,note_on,84,0,120
1,note_on,82,65,0
1,note_on,82,0,120
1,note_on,80,68,0
1,note_on,80,0,120
1,note_on,82,67,0
1,note_on,82,0,120
1,note_on,80,66,0
1,note_on,80,0,120
1,note_on,79,65,0
1,note_on,79,0,120
1,note_on,77,64,0
1,note_on,77,0,120
1,note_on,79,63,0
1,note_on,79,0,120
1,note_on,80,63,0
1,note_on,80,0,120
1,note_on,77,62,0
1,note_on,77,0,120
1,note_on,78,64,120
1,note_on,78,0,120
1,note_on,84,65,0
1,note_on,84,0,120
1,note_on,87,66,0
1,note_on,87,0,120
1,note_on,90,72,0
1,note_on,90,0,120
1,note_on,92,69,0
1,note_on,92,0,120
1,note_on,90,70,0
1,note_on,90,0,120
1,note_on,89,69,0
1,note_on,89,0,120
1,note_on,87,72,0
1,note_on,87,0,120
1,note_on,89,71,0
1,note_on,89,0,120
1,note_on,87,70,0
1,note_on,87,0,120
1,note_on,85,69,0
1,note_on,85,0,120
1,note_on,84,68,0
1,note_on,84,0,120
1,note_on,85,67,0
1,note_on,85,0,120
1,note_on,87,66,0
1,note_on,87,0,120
1,note_on,84,65,0
1,note_on,84,0,120
1,note_on,78,64,120
1,note_on,78,0,120
1,note_on,84,65,0
1,note_on,84,0,120
1,note_on,87,66,0
1,note_on,87,0,120
1,note_on,90,72,0
1,note_on,90,0,120
1,note_on,92,69,0
1,note_on,92,0,120
1,note_on,90,70,0
1,note_on,90,0,120
1,note_on,89,69,0
1,note_on,89,0,120
1,note_on,87,72,0
1,note_on,87,0,120
1,note_on,89,71,0
1,note_on,89,0,120
1,note_on,87,70,0
1,note_on,87,0,120
1,note_on,85,69,0
1,note_on,85,0,120
1,note_on,84,68,0
1,note_on,84,0,120
1,note_on,82,67,0
1,note_on,82,0,120
1,note_on,80,66,0
1,note_on,80,0,120
1,note_on,78,65,0
1,note_on,78,0,120
1,note_on,77,68,0
1,note_on,77,0,120
1,note_on,80,67,0
1,note_on,80,0,120
1,note_on,85,68,0
1,note_on,85,0,120
1,note_on,89,69,0
1,note_on,89,0,120
1,note_on,92,75,0
1,note_on,92,0,120
1,note_on,94,72,0
1,note_on,94,0,120
1,note_on,92,73,0
1,note_on,92,0,120
1,note_on,90,72,0
1,note_on,90,0,120
1,note_on,89,75,0
1,note_on,89,0,120
1,note_on,90,74,0
1,note_on,90,0,120
1,note_on,89,73,0
1,note_on,89,0,120
1,note_on,87,72,0
1,note_on,87,0,120
1,note_on,85,71,0
1,note_on,85,0,120
1,note_on,87,70,0
1,note_on,87,0,120
1,note_on,89,69,0
1,note_on,89,0,120
1,note_on,85,68,0
1,note_on,85,0,120
1,note_on,80,67,120
1,note_on,80,0,120
1,note_on,85,68,0
1,note_on,85,0,120
1,note_on,89,69,0
1,note_on,89,0,120
1,note_on,92,76,0
1,note_on,92,0,120
1,note_on,94,74,0
1,note_on,94,0,120
1,note_on,92,75,0
1,note_on,92,0,120
1,note_on,90,74,0
1,note_on,90,0,120
1,note_on,89,78,0
1,note_on,89,0,120
1,note_on,90,77,0
1,note_on,90,0,120
1,note_on,92,77,0
1,note_on,92,0,120
1,note_on,90,76,0
1,note_on,90,0,120
1,note_on,89,75,0
1,note_on,89,0,120
1,note_on,90,75,0
1,note_on,90,0,120
1,note_on,92,74,0
1,note_on,92,0,120
1,note_on,89,74,0
1,note_on,89,0,120
1,note_on,90,70,120
1,note_on,90,0,120
1,note_on,92,73,0
1,note_on,92,0,120
1,note_on,90,70,0
1,note_on,90,0,120
1,note_on,92,65,0
1,note_on,92,0,120
1,note_on,90,63,0
1,note_on,90,0,120
1,note_on,89,59,0
1,note_on,89,0,120
1,note_on,90,59,0
1,note_on,90,0,120
1,note_on,88,58,120
1,note_on,88,0,120
1,note_on,89,60,0
1,note_on,89,0,120
1,note_on,88,57,0
1,note_on,88,0,120
1,note_on,89,57,120
1,note_on,89,0,120
1,note_on,91,60,0
1,note_on,91,0,120
1,note_on,89,56,0
1,note_on,89,0,120
1,note_on,90,70,120
1,note_on,90,0,120
1,note_on,92,73,0
1,note_on,92,0,120
1,note_on,90,70,0
1,note_on,90,0,120
1,note_on,92,65,0
1,note_on,92,0,120
1,note_on,90,63,0
1,note_on,90,0,120
1,note_on,89,59,0
1,note_on,89,0,120
1,note_on,90,59,0
1,note_on,90,0,120
1,note_on,88,58,120
1,note_on,88,0,120
1,note_on,89,60,0
1,note_on,89,0,120
1,note_on,88,57,0
1,note_on,88,0,120
1,note_on,89,57,120
1,note_on,89,0,120
1,note_on,91,60,0
1,note_on,91,0,120
1,note_on,89,56,0
1,note_on,89,0,120
1,note_on,90,70,120
1,note_on,90,0,120
1,note_on,92,73,0
1,note_on,92,0,120
1,note_on,90,70,0
1,note_on,90,0,120
1,note_on,92,73,0
1,note_on,92,0,120
1,note_on,90,70,0
1,note_on,90,0,120
1,note_on,89,59,0
1,note_on,89,0,120
1,note_on,91,59,0
1,note_on,91,0,120
1,note_on,88,58,120
1,note_on,88,0,120
1,note_on,89,60,0
1,note_on,89,0,120
1,note_on,88,58,0
1,note_on,88,0,120
1,note_on,85,58,120
1,note_on,85,0,120
1,note_on,87,61,0
1,note_on,87,0,120
1,note_on,85,57,0
1,note_on,85,0,120
1,note_on,84,60,120
1,note_on,84,0,120
1,note_on,85,62,0
1,note_on,85,0,120
1,note_on,84,60,0
1,note_on,84,0,120
1,note_on,83,61,120
1,note_on,83,0,120
1,note_on,84,65,0
1,note_on,84,0,120
1,note_on,83,62,0
1,note_on,83,0,120
1,note_on,82,65,120
1,note_on,82,0,120
1,note_on,84,67,0
1,note_on,84,0,120
1,note_on,82,64,0
1,note_on,82,0,120
1,note_on,80,66,120
1,note_on,80,0,120
1,note_on,82,69,0
1,note_on,82,0,120
1,note_on,80,67,0
1,note_on,80,0,120
1,note_on,80,67,120
1,note_on,80,0,120
1,note_on,82,70,0
1,note_on,82,0,120
1,note_on,80,68,0
1,note_on,80,0,120
1,note_on,79,66,120
1,note_on,79,0,120
1,note_on,80,69,0
1,note_on,80,0,120
1,note_on,79,64,0
1,note_on,79,0,120
1,note_on,77,64,120
1,note_on,77,0,120
1,note_on,79,65,0
1,note_on,79,0,120
1,note_on,77,62,0
1,note_on,77,0,120
1,note_on,76,60,120
1,note_on,76,0,120
1,note_on,77,62,0
1,note_on,77,0,120
1,note_on,76,57,0
1,note_on,76,0,120
1,note_on,61,66,120
1,note_on,61,0,120
1,note_on,73,73,0
1,note_on,73,0,120
1,note_on,61,59,0
1,note_on,61,0,120
1,note_on,73,71,0
1,note_on,73,0,120
1,note_on,61,58,0
1,note_on,61,0,120
1,note_on,73,63,0
1,note_on,73,0,120
1,note_on,61,59,0
1,note_on,61,0,120
1,note_on,61,60,120
1,note_on,61,0,120
1,note_on,73,71,0
1,note_on,73,0,120
1,note_on,72,66,0
1,note_on,72,0,120
1,note_on,70,68,0
1,note_on,70,0,120
1,note_on,68,66,0
1,note_on,68,0,120
1,note_on,67,65,0
1,note_on,67,0,120
1,note_on,65,58,0
1,note_on,65,0,120
1,note_on,73,68,120
1,note_on,73,0,120
1,note_on,85,75,0
1,note_on,85,0,120
1,note_on,73,67,0
1,note_on,73,0,120
1,note_on,85,74,0
1,note_on,85,0,120
1,note_on,73,67,0
1,note_on,73,0,120
1,note_on,85,69,0
1,note_on,85,0,120
1,note_on,73,60,0
1,note_on,73,0,120
1,note_on,73,61,120
1,note_on,73,0,120
1,note_on,85,73,0
1,note_on,85,0,120
1,note_on,84,66,0
1,note_on,84,0,120
1,note_on,82,70,0
1,note_on,82,0,120
1,note_on,80,68,0
1,note_on,80,0,120
1,note_on,79,67,0
1,note_on,79,0,120
1,note_on,77,65,0
1,note_on,77,0,120
1,note_on,61,66,120
1,note_on,61,0,120
1,note_on,73,73,0
1,note_on,73,0,120
1,note_on,61,66,0
1,note_on,61,0,120
1,note_on,73,73,0
1,note_on,73,0,120
1,note_on,61,66,0
1,note_on,61,0,120
1,note_on,73,68,0
1,note_on,73,0,120
1,note_on,61,61,0
1,note_on,61,0,120
1,note_on,73,68,120
1,note_on,73,0,120
1,note_on,61,60,0
1,note_on,61,0,120
1,note_on,73,68,0
1,note_on,73,0,120
1,note_on,85,78,120
1,note_on,85,0,120
1,note_on,73,69,0
1,note_on,73,0,120
1,note_on,85,75,0
1,note_on,85,0,120
1,note_on,84,76,120
1,note_on,84,0,120
1,note_on,72,71,0
1,note_on,72,0,120
1,note_on,84,75,0
1,note_on,84,0,120
1,note_on,83,77,120
1,note_on,83,0,120
1,note_on,71,71,0
1,note_on,71,0,120
1,note_on,83,74,0
1,note_on,83,0,120
1,note_on,82,78,120
1,note_on,82,0,120
1,note_on,70,69,0
1,note_on,70,0,120
1,note_on,82,77,0
1,note_on,82,0,120
1,note_on,80,77,120
1,note_on,80,0,120
1,note_on,68,71,0
1,note_on,72,71,0
1,note_on,72,0,120
1,note_on,68,0,0
1,note_on,80,77,0
1,note_on,80,0,120
1,note_on,80,75,120
1,note_on,80,0,120
1,note_on,74,68,0
1,note_on,68,68,0
1,note_on,68,0,120
1,note_on,74,0,0
1,note_on,80,75,0
1,note_on,80,0,120
1,note_on,79,73,120
1,note_on,79,0,120
1,note_on,74,66,0
1,note_on,67,66,0
1,note_on,67,0,120
1,note_on,74,0,0
1,note_on,79,73,0
1,note_on,79,0,120
1,note_on,77,71,120
1,note_on,77,0,120
1,note_on,68,66,0
1,note_on,65,66,0
1,note_on,65,0,120
1,note_on,68,0,0
1,note_on,77,71,0
1,note_on,77,0,120
1,note_on,76,72,120
1,note_on,76,0,120
1,note_on,67,66,0
1,note_on,64,66,0
1,note_on,64,0,120
1,note_on,67,0,0
1,note_on,76,69,0
1,note_on,76,0,120
1,note_on,65,65,0
1,note_on,68,65,0
1,note_on,77,77,0
1,note_on,77,0,120
1,note_on,68,0,0
1,note_on,65,0,0
1,note_on,60,74,0
1,note_on,60,0,120
1,note_on,65,76,0
1,note_on,65,0,120
1,note_on,68,78,0
1,note_on,68,0,120
1,note_on,72,80,0
1,note_on,72,0,120
1,note_on,73,76,0
1,note_on,73,0,120
1,note_on,72,76,0
1,note_on,72,0,120
1,note_on,70,76,0
1,note_on,70,0,120
1,note_on,68,77,0
1,note_on,68,0,120
1,note_on,70,71,0
1,note_on,70,0,120
1,note_on,68,72,0
1,note_on,68,0,120
1,note_on,67,72,0
1,note_on,67,0,120
1,note_on,65,78,0
1,note_on,65,0,120
1,note_on,63,73,0
1,note_on,63,0,120
1,note_on,61,73,0
1,note_on,61,0,120
1,note_on,60,72,0
1,note_on,60,0,120
1,note_on,58,75,0
1,note_on,58,0,120
1,note_on,56,70,0
1,note_on,56,0,120
1,note_on,54,70,0
1,note_on,54,0,120
1,note_on,53,70,0
1,note_on,53,0,120
1,note_on,52,73,0
1,note_on,52,0,240
1,note_on,48,69,0
1,note_on,52,69,0
1,note_on,54,69,0
1,note_on,60,82,0
1,note_on,60,0,180
1,note_on,48,0,0
1,note_on,52,0,0
1,note_on,54,0,0
1,note_on,48,61,60
1,note_on,52,61,0
1,note_on,58,73,0
1,note_on,60,73,0
1,note_on,60,0,180
1,note_on,48,0,0
1,note_on,52,0,0
1,note_on,58,0,0
1,note_on,48,60,60
1,note_on,52,60,0
1,note_on,58,71,0
1,note_on,60,71,0
1,note_on,60,0,180
1,note_on,48,0,0
1,note_on,52,0,0
1,note_on,58,0,0
1,note_on,48,61,60
1,note_on,52,61,0
1,note_on,58,72,0
1,note_on,60,72,0
1,note_on,60,0,180
1,note_on,48,0,0
1,note_on,52,0,0
1,note_on,58,0,0
1,note_on,48,61,60
1,note_on,52,61,0
1,note_on,58,72,0
1,note_on,60,72,0
1,note_on,60,0,180
1,note_on,48,0,0
1,note_on,52,0,0
1,note_on,58,0,0
1,note_on,48,77,60
1,note_on,53,77,0
1,note_on,56,77,0
1,note_on,60,77,0
1,note_on,60,0,120
1,note_on,48,0,0
1,note_on,53,0,0
1,note_on,56,0,0
1,note_on,72,74,0
1,note_on,72,0,120
1,note_on,77,76,0
1,note_on,77,0,120
1,note_on,80,78,0
1,note_on,80,0,120
1,note_on,84,80,0
1,note_on,84,0,120
1,note_on,85,76,0
1,note_on,85,0,120
1,note_on,84,76,0
1,note_on,84,0,120
1,note_on,82,76,0
1,note_on,82,0,120
1,note_on,80,77,0
1,note_on,80,0,120
1,note_on,82,71,0
1,note_on,82,0,120
1,note_on,80,72,0
1,note_on,80,0,120
1,note_on,79,72,0
1,note_on,79,0,120
1,note_on,77,78,0
1,note_on,77,0,120
1,note_on,75,73,0
1,note_on,75,0,120
1,note_on,73,73,0
1,note_on,73,0,120
1,note_on,72,72,0
1,note_on,72,0,120
1,note_on,70,75,0
1,note_on,70,0,120
1,note_on,68,70,0
1,note_on,68,0,120
1,note_on,67,70,0
1,note_on,67,0,120
1,note_on,65,70,0
1,note_on,65,0,120
1,note_on,64,73,0
1,note_on,64,0,240
1,note_on,60,58,0
1,note_on,64,69,0
1,note_on,67,69,0
1,note_on,72,82,0
1,note_on,72,0,180
1,note_on,60,0,0
1,note_on,64,0,0
1,note_on,67,0,0
1,note_on,60,51,60
1,note_on,64,61,0
1,note_on,70,73,0
1,note_on,72,73,0
1,note_on,72,0,180
1,note_on,60,0,0
1,note_on,64,0,0
1,note_on,70,0,0
1,note_on,60,50,60
1,note_on,64,59,0
1,note_on,70,70,0
1,note_on,72,70,0
1,note_on,72,0,180
1,note_on,60,0,0
1,note_on,64,0,0
1,note_on,70,0,0
1,note_on,60,51,60
1,note_on,64,61,0
1,note_on,70,73,0
1,note_on,72,73,0
1,note_on,72,0,180
1,note_on,60,0,0
1,note_on,64,0,0
1,note_on,70,0,0
1,note_on,60,51,60
1,note_on,64,60,0
1,note_on,70,71,0
1,note_on,72,71,0
1,note_on,72,0,180
1,note_on,60,0,0
1,note_on,64,0,0
1,note_on,70,0,0
1,note_on,60,51,60
1,note_on,65,61,0
1,note_on,68,73,0
1,note_on,72,73,0
1,note_on,72,0,240
1,note_on,60,0,0
1,note_on,65,0,0
1,note_on,68,0,0
1,note_on,72,63,480
1,note_on,77,75,0
1,note_on,80,75,0
1,note_on,84,90,0
1,note_on,84,0,180
1,note_on,72,0,0
1,note_on,77,0,0
1,note_on,80,0,0
1,note_on,72,56,60
1,note_on,76,67,0
1,note_on,82,80,0
1,note_on,84,80,0
1,note_on,84,0,180
1,note_on,72,0,0
1,note_on,76,0,0
1,note_on,82,0,0
1,note_on,72,55,60
1,note_on,76,64,0
1,note_on,82,77,0
1,note_on,84,77,0
1,note_on,84,0,180
1,note_on,72,0,0
1,note_on,76,0,0
1,note_on,82,0,0
1,note_on,72,56,60
1,note_on,76,67,0
1,note_on,82,80,0
1,note_on,84,80,0
1,note_on,84,0,180
1,note_on,72,0,0
1,note_on,76,0,0
1,note_on,82,0,0
1,note_on,72,56,60
1,note_on,76,66,0
1,note_on,82,78,0
1,note_on,84,78,0
1,note_on,84,0,180
1,note_on,72,0,0
1,note_on,76,0,0
1,note_on,82,0,0
1,note_on,72,56,60
1,note_on,77,67,0
1,note_on,80,80,0
1,note_on,84,80,0
1,note_on,84,0,180
1,note_on,72,0,0
1,note_on,77,0,0
1,note_on,80,0,0
1,note_on,60,58,540
1,note_on,65,69,0
1,note_on,68,69,0
1,note_on,72,82,0
1,note_on,72,0,180
1,note_on,60,0,0
1,note_on,65,0,0
1,note_on,68,0,0
1,note_on,60,51,60
1,note_on,64,61,0
1,note_on,70,73,0
1,note_on,72,73,0
1,note_on,72,0,180
1,note_on,60,0,0
1,note_on,64,0,0
1,note_on,70,0,0
1,note_on,60,50,60
1,note_on,64,59,0
1,note_on,70,70,0
1,note_on,72,70,0
1,note_on,72,0,180
1,note_on,60,0,0
1,note_on,64,0,0
1,note_on,70,0,0
1,note_on,60,51,60
1,note_on,64,61,0
1,note_on,70,73,0
1,note_on,72,73,0
1,note_on,72,0,180
1,note_on,60,0,0
1,note_on,64,0,0
1,note_on,70,0,0
1,note_on,60,51,60
1,note_on,64,60,0
1,note_on,70,71,0
1,note_on,72,71,0
1,note_on,72,0,180
1,note_on,60,0,0
1,note_on,64,0,0
1,note_on,70,0,0
1,note_on,60,56,60
1,note_on,65,67,0
1,note_on,68,67,0
1,note_on,72,80,0
1,note_on,72,0,180
1,note_on,60,0,0
1,note_on,65,0,0
1,note_on,68,0,0
1,note_on,72,70,60
1,note_on,77,70,0
1,note_on,80,70,0
1,note_on,84,84,0
1,note_on,84,0,180
1,note_on,72,0,0
1,note_on,77,0,0
1,note_on,80,0,0
1,note_on,72,74,60
1,note_on,77,74,0
1,note_on,80,74,0
1,note_on,84,90,0
1,note_on,84,0,180
1,note_on,72,0,0
1,note_on,77,0,0
1,note_on,80,0,0
1,note_on,72,73,60
1,note_on,77,73,0
1,note_on,80,73,0
1,note_on,84,88,0
1,note_on,84,0,180
1,note_on,72,0,0
1,note_on,77,0,0
1,note_on,80,0,0
1,note_on,72,64,60
1,note_on,76,78,0
1,note_on,82,78,0
1,note_on,84,93,0
1,note_on,84,0,180
1,note_on,72,0,0
1,note_on,76,0,0
1,note_on,82,0,0
1,note_on,72,64,60
1,note_on,76,75,0
1,note_on,82,75,0
1,note_on,84,91,0
1,note_on,84,0,180
1,note_on,72,0,0
1,note_on,76,0,0
1,note_on,82,0,0
1,note_on,72,68,60
1,note_on,76,81,0
1,note_on,82,81,0
1,note_on,84,97,0
1,note_on,84,0,180
1,note_on,72,0,0
1,note_on,76,0,0
1,note_on,82,0,0
1,note_on,72,69,60
1,note_on,76,82,0
1,note_on,82,82,0
1,note_on,84,96,0
1,note_on,84,0,180
1,note_on,72,0,0
1,note_on,76,0,0
1,note_on,82,0,0
1,note_on,72,72,60
1,note_on,75,85,0
1,note_on,81,102,0
1,note_on,84,102,0
1,note_on,84,0,120
1,note_on,72,0,0
1,note_on,75,0,0
1,note_on,81,0,0
1,note_on,57,70,0
1,note_on,57,0,120
1,note_on,60,71,0
1,note_on,60,0,120
1,note_on,63,72,0
1,note_on,63,0,120
1,note_on,66,72,0
1,note_on,66,0,120
1,note_on,69,72,0
1,note_on,69,0,120
1,note_on,72,73,0
1,note_on,72,0,120
1,note_on,75,74,0
1,note_on,75,0,120
1,note_on,78,75,0
1,note_on,78,0,120
1,note_on,81,77,0
1,note_on,81,0,120
1,note_on,84,79,0
1,note_on,84,0,120
1,note_on,87,81,0
1,note_on,87,0,120
1,note_on,90,83,0
1,note_on,90,0,120
1,note_on,87,83,0
1,note_on,87,0,120
1,note_on,84,82,0
1,note_on,84,0,120
1,note_on,81,81,0
1,note_on,81,0,120
1,note_on,78,81,0
1,note_on,78,0,120
1,note_on,75,80,0
1,note_on,75,0,120
1,note_on,72,79,0
1,note_on,72,0,120
1,note_on,69,78,0
1,note_on,69,0,120
1,note_on,66,77,0
1,note_on,66,0,120
1,note_on,63,76,0
1,note_on,63,0,120
1,note_on,60,75,0
1,note_on,60,0,120
1,note_on,57,40,3120
1,note_on,57,0,120
1,note_on,60,37,0
1,note_on,60,0,120
1,note_on,63,37,0
1,note_on,63,0,120
1,note_on,66,40,0
1,note_on,66,0,120
1,note_on,68,38,0
1,note_on,68,0,120
1,note_on,66,38,0
1,note_on,66,0,120
1,note_on,65,38,0
1,note_on,65,0,120
1,note_on,63,40,0
1,note_on,63,0,120
1,note_on,65,37,0
1,note_on,65,0,120
1,note_on,63,37,0
1,note_on,63,0,120
1,note_on,61,37,0
1,note_on,61,0,120
1,note_on,60,40,0
1,note_on,60,0,120
1,note_on,61,37,0
1,note_on,61,0,120
1,note_on,63,37,0
1,note_on,63,0,120
1,note_on,60,37,0
1,note_on,60,0,120
1,note_on,57,40,120
1,note_on,57,0,120
1,note_on,60,37,0
1,note_on,60,0,120
1,note_on,63,37,0
1,note_on,63,0,120
1,note_on,66,40,0
1,note_on,66,0,120
1,note_on,68,38,0
1,note_on,68,0,120
1,note_on,66,38,0
1,note_on,66,0,120
1,note_on,65,38,0
1,note_on,65,0,120
1,note_on,63,40,0
1,note_on,63,0,120
1,note_on,65,37,0
1,note_on,65,0,120
1,note_on,63,37,0
1,note_on,63,0,120
1,note_on,61,37,0
1,note_on,61,0,120
1,note_on,60,40,0
1,note_on,60,0,120
1,note_on,61,37,0
1,note_on,61,0,120
1,note_on,63,37,0
1,note_on,63,0,120
1,note_on,60,37,0
1,note_on,60,0,120
1,note_on,57,47,120
1,note_on,57,0,120
1,note_on,60,49,0
1,note_on,60,0,120
1,note_on,63,50,0
1,note_on,63,0,120
1,note_on,66,52,0
1,note_on,66,0,120
1,note_on,68,54,0
1,note_on,68,0,120
1,note_on,66,56,0
1,note_on,66,0,120
1,note_on,65,58,0
1,note_on,65,0,120
1,note_on,63,67,0
1,note_on,63,0,240
1,note_on,63,47,0
1,note_on,63,0,120
1,note_on,65,49,0
1,note_on,65,0,120
1,note_on,66,52,0
1,note_on,66,0,120
1,note_on,68,54,0
1,note_on,68,0,120
1,note_on,66,56,0
1,note_on,66,0,120
1,note_on,65,59,0
1,note_on,65,0,120
1,note_on,63,67,0
1,note_on,63,0,240
1,note_on,63,50,0
1,note_on,63,0,120
1,note_on,65,50,0
1,note_on,65,0,120
1,note_on,66,56,0
1,note_on,66,0,120
1,note_on,68,49,0
1,note_on,68,0,120
1,note_on,66,50,0
1,note_on,66,0,120
1,note_on,65,50,0
1,note_on,65,0,120
1,note_on,63,67,0
1,note_on,63,0,240
1,note_on,66,56,0
1,note_on,78,56,0
1,note_on,78,0,240
1,note_on,66,0,0
1,note_on,65,60,0
1,note_on,77,60,0
1,note_on,77,0,240
1,note_on,65,0,0
1,note_on,69,54,0
1,note_on,81,54,0
1,note_on,81,0,240
1,note_on,69,0,0
1,note_on,82,56,0
1,note_on,70,56,0
1,note_on,70,0,120
1,note_on,82,0,0
1,note_on,65,51,0
1,note_on,65,0,120
1,note_on,70,52,0
1,note_on,70,0,120
1,note_on,73,53,0
1,note_on,73,0,120
1,note_on,77,57,0
1,note_on,77,0,120
1,note_on,78,55,0
1,note_on,78,0,120
1,note_on,77,56,0
1,note_on,77,0,120
1,note_on,75,55,0
1,note_on,75,0,120
1,note_on,73,57,0
1,note_on,73,0,120
1,note_on,75,56,0
1,note_on,75,0,120
1,note_on,73,56,0
1,note_on,73,0,120
1,note_on,72,55,0
1,note_on,72,0,120
1,note_on,70,54,0
1,note_on,70,0,120
1,note_on,72,53,0
1,note_on,72,0,120
1,note_on,73,53,0
1,note_on,73,0,120
1,note_on,70,52,0
1,note_on,70,0,120
1,note_on,65,51,120
1,note_on,65,0,120
1,note_on,70,52,0
1,note_on,70,0,120
1,note_on,73,53,0
1,note_on,73,0,120
1,note_on,77,57,0
1,note_on,77,0,120
1,note_on,78,55,0
1,note_on,78,0,120
1,note_on,77,56,0
1,note_on,77,0,120
1,note_on,75,55,0
1,note_on,75,0,120
1,note_on,73,57,0
1,note_on,73,0,120
1,note_on,75,56,0
1,note_on,75,0,120
1,note_on,73,56,0
1,note_on,73,0,120
1,note_on,72,55,0
1,note_on,72,0,120
1,note_on,70,54,0
1,note_on,70,0,120
1,note_on,72,53,0
1,note_on,72,0,120
1,note_on,73,53,0
1,note_on,73,0,120
1,note_on,70,52,0
1,note_on,70,0,120
1,note_on,66,51,120
1,note_on,66,0,120
1,note_on,71,53,0
1,note_on,71,0,120
1,note_on,75,54,0
1,note_on,75,0,120
1,note_on,78,59,0
1,note_on,78,0,120
1,note_on,80,58,0
1,note_on,80,0,120
1,note_on,78,59,0
1,note_on,78,0,120
1,note_on,77,59,0
1,note_on,77,0,120
1,note_on,75,62,0
1,note_on,75,0,120
1,note_on,77,62,0
1,note_on,77,0,120
1,note_on,75,62,0
1,note_on,75,0,120
1,note_on,73,62,0
1,note_on,73,0,120
1,note_on,71,62,0
1,note_on,71,0,120
1,note_on,73,61,0
1,note_on,73,0,120
1,note_on,75,64,0
1,note_on,75,0,120
1,note_on,71,61,0
1,note_on,71,0,120
1,note_on,70,68,0
1,note_on,70,0,120
1,note_on,72,64,0
1,note_on,72,0,120
1,note_on,70,66,0
1,note_on,70,0,120
1,note_on,69,64,0
1,note_on,69,0,120
1,note_on,70,62,0
1,note_on,70,0,120
1,note_on,72,60,0
1,note_on,72,0,120
1,note_on,73,59,0
1,note_on,73,0,120
1,note_on,70,58,0
1,note_on,70,0,120
1,note_on,69,62,0
1,note_on,69,0,120
1,note_on,70,61,0
1,note_on,70,0,120
1,note_on,69,60,0
1,note_on,69,0,120
1,note_on,67,58,0
1,note_on,67,0,120
1,note_on,69,56,0
1,note_on,69,0,120
1,note_on,70,55,0
1,note_on,70,0,120
1,note_on,72,54,0
1,note_on,72,0,120
1,note_on,69,53,0
1,note_on,69,0,120
1,note_on,70,61,0
1,note_on,70,0,240
1,note_on,70,57,0
1,note_on,70,0,120
1,note_on,73,58,0
1,note_on,73,0,120
1,note_on,77,62,0
1,note_on,77,0,120
1,note_on,78,60,0
1,note_on,78,0,120
1,note_on,77,61,0
1,note_on,77,0,120
1,note_on,75,61,0
1,note_on,75,0,120
1,note_on,73,63,0
1,note_on,73,0,120
1,note_on,75,62,0
1,note_on,75,0,120
1,note_on,73,62,0
1,note_on,73,0,120
1,note_on,72,61,0
1,note_on,72,0,120
1,note_on,82,71,0
1,note_on,70,71,0
1,note_on,70,0,120
1,note_on,72,60,0
1,note_on,72,0,120
1,note_on,82,0,0
1,note_on,73,61,0
1,note_on,73,0,120
1,note_on,70,60,0
1,note_on,70,0,120
1,note_on,81,74,0
1,note_on,81,0,240
1,note_on,70,63,0
1,note_on,70,0,120
1,note_on,73,65,0
1,note_on,73,0,120
1,note_on,82,73,0
1,note_on,77,73,0
1,note_on,77,0,120
1,note_on,78,68,0
1,note_on,78,0,120
1,note_on,82,0,0
1,note_on,77,71,0
1,note_on,77,0,120
1,note_on,75,70,0
1,note_on,75,0,120
1,note_on,73,73,0
1,note_on,73,0,120
1,note_on,75,72,0
1,note_on,75,0,120
1,note_on,73,74,0
1,note_on,73,0,120
1,note_on,72,74,0
1,note_on,72,0,120
1,note_on,82,88,0
1,note_on,70,73,0
1,note_on,70,0,120
1,note_on,72,73,0
1,note_on,72,0,120
1,note_on,82,0,0
1,note_on,73,74,0
1,note_on,73,0,120
1,note_on,70,73,0
1,note_on,70,0,120
1,note_on,71,88,0
1,note_on,83,88,0
1,note_on,83,0,120
1,note_on,71,0,0
1,note_on,78,74,0
1,note_on,78,0,120
1,note_on,83,76,0
1,note_on,83,0,120
1,note_on,87,78,0
1,note_on,87,0,120
1,note_on,90,80,0
1,note_on,90,0,120
1,note_on,92,76,0
1,note_on,92,0,120
1,note_on,90,76,0
1,note_on,90,0,120
1,note_on,89,76,0
1,note_on,89,0,120
1,note_on,87,77,0
1,note_on,87,0,120
1,note_on,89,71,0
1,note_on,89,0,120
1,note_on,87,72,0
1,note_on,87,0,120
1,note_on,85,72,0
1,note_on,85,0,120
1,note_on,83,78,0
1,note_on,83,0,120
1,note_on,85,73,0
1,note_on,85,0,120
1,note_on,83,73,0
1,note_on,83,0,120
1,note_on,82,72,0
1,note_on,82,0,120
1,note_on,81,77,0
1,note_on,81,0,120
1,note_on,84,71,0
1,note_on,84,0,120
1,note_on,87,72,0
1,note_on,87,0,120
1,note_on,85,72,0
1,note_on,85,0,120
1,note_on,84,78,0
1,note_on,84,0,120
1,note_on,85,73,0
1,note_on,85,0,120
1,note_on,84,73,0
1,note_on,84,0,120
1,note_on,82,72,0
1,note_on,82,0,120
1,note_on,81,77,0
1,note_on,81,0,120
1,note_on,82,71,0
1,note_on,82,0,120
1,note_on,81,72,0
1,note_on,81,0,120
1,note_on,78,72,0
1,note_on,78,0,120
1,note_on,77,74,0
1,note_on,77,0,120
1,note_on,75,71,0
1,note_on,75,0,120
1,note_on,73,71,0
1,note_on,73,0,120
1,note_on,72,69,0
1,note_on,72,0,120
1,note_on,70,73,0
1,note_on,70,0,120
1,note_on,77,74,120
1,note_on,77,0,480
1,note_on,77,61,0
1,note_on,77,0,120
1,note_on,77,61,120
1,note_on,77,0,120
1,note_on,78,72,120
1,note_on,78,0,480
1,note_on,78,60,0
1,note_on,78,0,120
1,note_on,78,59,120
1,note_on,78,0,120
1,note_on,77,73,120
1,note_on,77,0,480
1,note_on,77,63,0
1,note_on,77,0,120
1,note_on,77,65,120
1,note_on,77,0,120
1,note_on,72,61,120
1,note_on,72,0,120
1,note_on,73,61,120
1,note_on,73,0,120
1,note_on,75,61,120
1,note_on,75,0,120
1,note_on,73,65,120
1,note_on,73,0,120
1,note_on,89,80,120
1,note_on,77,73,0
1,note_on,77,0,480
1,note_on,89,0,0
1,note_on,89,74,0
1,note_on,77,68,0
1,note_on,77,0,120
1,note_on,89,0,0
1,note_on,89,74,120
1,note_on,77,68,0
1,note_on,77,0,120
1,note_on,89,0,0
1,note_on,90,81,120
1,note_on,78,74,0
1,note_on,78,0,480
1,note_on,90,0,0
1,note_on,90,73,0
1,note_on,78,67,0
1,note_on,78,0,120
1,note_on,90,0,0
1,note_on,90,72,120
1,note_on,78,66,0
1,note_on,78,0,120
1,note_on,90,0,0
1,note_on,89,82,120
1,note_on,77,75,0
1,note_on,77,0,480
1,note_on,89,0,0
1,note_on,89,77,0
1,note_on,77,70,0
1,note_on,77,0,120
1,note_on,89,0,0
1,note_on,89,80,120
1,note_on,77,73,0
1,note_on,77,0,120
1,note_on,89,0,0
1,note_on,84,74,120
1,note_on,72,68,0
1,note_on,72,0,120
1,note_on,84,0,0
1,note_on,85,74,120
1,note_on,73,68,0
1,note_on,73,0,120
1,note_on,85,0,0
1,note_on,87,74,120
1,note_on,75,68,0
1,note_on,75,0,120
1,note_on,87,0,0
1,note_on,85,80,120
1,note_on,73,73,0
1,note_on,73,0,120
1,note_on,85,0,0
1,note_on,72,72,120
1,note_on,72,0,480
1,note_on,72,61,0
1,note_on,72,0,120
1,note_on,72,61,120
1,note_on,72,0,120
1,note_on,71,72,120
1,note_on,71,0,480
1,note_on,71,60,0
1,note_on,71,0,120
1,note_on,71,59,120
1,note_on,71,0,120
1,note_on,72,71,120
1,note_on,72,0,480
1,note_on,72,63,0
1,note_on,72,0,120
1,note_on,72,65,120
1,note_on,72,0,120
1,note_on,67,61,120
1,note_on,67,0,120
1,note_on,68,61,120
1,note_on,68,0,120
1,note_on,70,61,120
1,note_on,70,0,120
1,note_on,68,65,120
1,note_on,68,0,120
1,note_on,84,80,120
1,note_on,72,73,0
1,note_on,72,0,480
1,note_on,84,0,0
1,note_on,84,74,0
1,note_on,72,68,0
1,note_on,72,0,120
1,note_on,84,0,0
1,note_on,84,74,120
1,note_on,72,68,0
1,note_on,72,0,120
1,note_on,84,0,0
1,note_on,83,81,120
1,note_on,71,74,0
1,note_on,71,0,480
1,note_on,83,0,0
1,note_on,83,73,0
1,note_on,71,67,0
1,note_on,71,0,120
1,note_on,83,0,0
1,note_on,83,72,120
1,note_on,71,66,0
1,note_on,71,0,120
1,note_on,83,0,0
1,note_on,84,82,120
1,note_on,72,75,0
1,note_on,72,0,480
1,note_on,84,0,0
1,note_on,84,77,0
1,note_on,72,70,0
1,note_on,72,0,120
1,note_on,84,0,0
1,note_on,84,80,120
1,note_on,72,73,0
1,note_on,72,0,120
1,note_on,84,0,0
1,note_on,79,74,120
1,note_on,67,68,0
1,note_on,67,0,120
1,note_on,79,0,0
1,note_on,80,74,120
1,note_on,68,68,0
1,note_on,68,0,120
1,note_on,80,0,0
1,note_on,82,74,120
1,note_on,70,68,0
1,note_on,70,0,120
1,note_on,82,0,0
1,note_on,80,80,120
1,note_on,68,73,0
1,note_on,68,0,120
1,note_on,80,0,0
1,note_on,60,70,0
1,note_on,60,0,120
1,note_on,65,72,0
1,note_on,65,0,120
1,note_on,68,74,0
1,note_on,68,0,120
1,note_on,72,76,0
1,note_on,72,0,120
1,note_on,73,72,0
1,note_on,73,0,120
1,note_on,72,72,0
1,note_on,72,0,120
1,note_on,70,72,0
1,note_on,70,0,120
1,note_on,68,73,0
1,note_on,68,0,120
1,note_on,70,67,0
1,note_on,70,0,120
1,note_on,68,69,0
1,note_on,68,0,120
1,note_on,67,69,0
1,note_on,67,0,120
1,note_on,65,75,0
1,note_on,65,0,120
1,note_on,67,70,0
1,note_on,67,0,120
1,note_on,68,70,0
1,note_on,68,0,120
1,note_on,65,70,0
1,note_on,65,0,120
1,note_on,66,75,0
1,note_on,66,0,120
1,note_on,61,72,0
1,note_on,61,0,120
1,note_on,66,74,0
1,note_on,66,0,120
1,note_on,70,76,0
1,note_on,70,0,120
1,note_on,73,78,0
1,note_on,73,0,120
1,note_on,75,75,0
1,note_on,75,0,120
1,note_on,73,75,0
1,note_on,73,0,120
1,note_on,72,75,0
1,note_on,72,0,120
1,note_on,70,76,0
1,note_on,70,0,120
1,note_on,72,70,0
1,note_on,72,0,120
1,note_on,70,71,0
1,note_on,70,0,120
1,note_on,68,71,0
1,note_on,68,0,120
1,note_on,66,76,0
1,note_on,66,0,120
1,note_on,68,73,0
1,note_on,68,0,120
1,note_on,70,73,0
1,note_on,70,0,120
1,note_on,66,72,0
1,note_on,66,0,120
1,note_on,69,77,0
1,note_on,69,0,120
1,note_on,63,74,0
1,note_on,63,0,120
1,note_on,69,76,0
1,note_on,69,0,120
1,note_on,72,78,0
1,note_on,72,0,120
1,note_on,75,80,0
1,note_on,75,0,120
1,note_on,77,76,0
1,note_on,77,0,120
1,note_on,75,76,0
1,note_on,75,0,120
1,note_on,73,77,0
1,note_on,73,0,120
1,note_on,72,78,0
1,note_on,72,0,120
1,note_on,73,72,0
1,note_on,73,0,120
1,note_on,72,73,0
1,note_on,72,0,120
1,note_on,70,73,0
1,note_on,70,0,120
1,note_on,69,80,0
1,note_on,69,0,120
1,note_on,70,75,0
1,note_on,70,0,120
1,note_on,72,75,0
1,note_on,72,0,120
1,note_on,69,74,0
1,note_on,69,0,120
1,note_on,70,90,0
1,note_on,70,0,120
1,note_on,65,76,0
1,note_on,65,0,120
1,note_on,70,79,0
1,note_on,70,0,120
1,note_on,73,82,0
1,note_on,73,0,120
1,note_on,77,83,0
1,note_on,77,0,120
1,note_on,78,83,0
1,note_on,78,0,120
1,note_on,77,82,0
1,note_on,77,0,120
1,note_on,75,82,0
1,note_on,75,0,120
1,note_on,73,81,0
1,note_on,73,0,120
1,note_on,72,81,0
1,note_on,72,0,120
1,note_on,70,80,0
1,note_on,70,0,120
1,note_on,68,80,0
1,note_on,68,0,120
1,note_on,66,79,0
1,note_on,66,0,120
1,note_on,65,79,0
1,note_on,65,0,120
1,note_on,63,78,0
1,note_on,63,0,120
1,note_on,61,78,0
1,note_on,61,0,120
1,note_on,60,77,0
1,note_on,60,0,120
1,note_on,58,77,0
1,note_on,58,0,120
1,note_on,56,76,0
1,note_on,56,0,120
1,note_on,54,76,0
1,note_on,54,0,120
1,note_on,53,73,0
1,note_on,53,0,120
1,note_on,51,73,0
1,note_on,51,0,120
1,note_on,49,74,0
1,note_on,49,0,120
1,note_on,48,76,0
1,note_on,48,0,120
1,note_on,46,78,0
1,note_on,46,0,120
1,note_on,48,79,0
1,note_on,48,0,120
1,note_on,49,81,0
1,note_on,49,0,120
1,note_on,46,82,0
1,note_on,46,0,120
1,note_on,46,82,0
1,note_on,46,0,240
1,note_on,47,77,0
1,note_on,50,77,0
1,note_on,53,77,0
1,note_on,56,90,0
1,note_on,56,0,240
1,note_on,47,0,0
1,note_on,50,0,0
1,note_on,53,0,0
1,note_on,48,82,0
1,note_on,52,82,0
1,note_on,55,98,0
1,note_on,55,0,120
1,note_on,52,0,0
1,note_on,48,0,0
1,note_on,48,66,0
1,note_on,60,66,0
1,note_on,60,0,120
1,note_on,48,0,0
1,note_on,60,66,120
1,note_on,48,66,0
1,note_on,48,0,120
1,note_on,60,0,0
1,note_on,60,66,120
1,note_on,48,66,0
1,note_on,48,0,120
1,note_on,60,0,0
1,note_on,60,66,120
1,note_on,48,66,0
1,note_on,48,0,120
1,note_on,60,0,0
1,note_on,60,66,120
1,note_on,48,66,0
1,note_on,48,0,120
1,note_on,60,0,0
1,note_on,60,66,120
1,note_on,48,66,0
1,note_on,48,0,120
1,note_on,60,0,0
1,note_on,60,66,120
1,note_on,48,66,0
1,note_on,48,0,120
1,note_on,60,0,0
1,note_on,60,66,120
1,note_on,48,66,0
1,note_on,48,0,120
1,note_on,60,0,0
1,note_on,60,64,120
1,note_on,72,64,0
1,note_on,72,0,120
1,note_on,60,0,0
1,note_on,60,64,120
1,note_on,72,64,0
1,note_on,72,0,120
1,note_on,60,0,0
1,note_on,60,65,120
1,note_on,72,65,0
1,note_on,72,0,120
1,note_on,60,0,0
1,note_on,60,66,120
1,note_on,72,66,0
1,note_on,72,0,120
1,note_on,60,0,0
1,note_on,60,64,120
1,note_on,72,64,0
1,note_on,72,0,120
1,note_on,60,0,0
1,note_on,60,64,120
1,note_on,72,64,0
1,note_on,72,0,120
1,note_on,60,0,0
1,note_on,60,65,120
1,note_on,72,65,0
1,note_on,72,0,120
1,note_on,60,0,0
1,note_on,60,66,120
1,note_on,72,66,0
1,note_on,72,0,120
1,note_on,60,0,0
1,note_on,72,67,120
1,note_on,84,67,0
1,note_on,84,0,120
1,note_on,72,0,0
1,note_on,72,68,120
1,note_on,84,68,0
1,note_on,84,0,120
1,note_on,72,0,0
1,note_on,72,69,120
1,note_on,84,69,0
1,note_on,84,0,120
1,note_on,72,0,0
1,note_on,72,70,120
1,note_on,84,70,0
1,note_on,84,0,120
1,note_on,72,0,0
1,note_on,72,71,120
1,note_on,84,71,0
1,note_on,84,0,120
1,note_on,72,0,0
1,note_on,72,72,120
1,note_on,84,72,0
1,note_on,84,0,120
1,note_on,72,0,0
1,note_on,72,73,120
1,note_on,84,73,0
1,note_on,84,0,120
1,note_on,72,0,0
1,note_on,72,74,120
1,note_on,84,74,0
1,note_on,84,0,120
1,note_on,72,0,0
1,note_on,84,75,120
1,note_on,96,75,0
1,note_on,96,0,120
1,note_on,84,0,0
1,note_on,84,76,120
1,note_on,96,76,0
1,note_on,96,0,120
1,note_on,84,0,0
1,note_on,84,78,120
1,note_on,96,78,0
1,note_on,96,0,120
1,note_on,84,0,0
1,note_on,84,81,120
1,note_on,96,81,0
1,note_on,96,0,120
1,note_on,84,0,0
1,note_on,84,82,120
1,note_on,96,82,0
1,note_on,96,0,120
1,note_on,84,0,0
1,note_on,84,84,120
1,note_on,96,84,0
1,note_on,96,0,120
1,note_on,84,0,0
1,note_on,84,86,120
1,note_on,96,86,0
1,note_on,96,0,120
1,note_on,84,0,0
1,note_on,84,88,120
1,note_on,96,88,0
1,note_on,96,0,120
1,note_on,84,0,0
1,note_on,61,72,1080
1,note_on,61,0,120
1,note_on,66,75,0
1,note_on,66,0,120
1,note_on,70,76,0
1,note_on,70,0,120
1,note_on,73,88,0
1,note_on,73,0,120
1,note_on,73,77,480
1,note_on,73,0,120
1,note_on,78,79,0
1,note_on,78,0,120
1,note_on,82,81,0
1,note_on,82,0,120
1,note_on,85,89,0
1,note_on,85,0,240
1,note_on,64,89,1680
1,note_on,64,0,120
1,note_on,64,72,480
1,note_on,64,0,120
1,note_on,67,75,0
1,note_on,67,0,120
1,note_on,70,76,0
1,note_on,70,0,120
1,note_on,76,87,0
1,note_on,76,0,120
1,note_on,76,77,480
1,note_on,76,0,120
1,note_on,79,79,0
1,note_on,79,0,120
1,note_on,82,81,0
1,note_on,82,0,120
1,note_on,88,93,0
1,note_on,88,0,240
1,note_on,61,51,1920
1,note_on,61,0,120
1,note_on,64,53,0
1,note_on,64,0,120
1,note_on,67,54,0
1,note_on,67,0,240
1,note_on,58,47,1200
1,note_on,58,0,120
1,note_on,61,51,0
1,note_on,61,0,120
1,note_on,64,48,0
1,note_on,64,0,120
1,note_on,67,50,0
1,note_on,67,0,120
1,note_on,70,51,0
1,note_on,70,0,240
1,note_on,61,44,1200
1,note_on,61,0,120
1,note_on,64,48,0
1,note_on,64,0,120
1,note_on,67,45,0
1,note_on,67,0,120
1,note_on,70,47,0
1,note_on,70,0,120
1,note_on,73,48,0
1,note_on,73,0,240
1,note_on,64,41,1200
1,note_on,64,0,120
1,note_on,67,45,0
1,note_on,67,0,120
1,note_on,70,42,0
1,note_on,70,0,120
1,note_on,73,44,0
1,note_on,73,0,120
1,note_on,76,45,0
1,note_on,76,0,240
1,note_on,61,35,1680
1,note_on,61,0,240
1,note_on,64,36,0
1,note_on,64,0,240
1,note_on,67,37,0
1,note_on,67,0,240
1,note_on,70,38,0
1,note_on,70,0,240
1,note_on,73,39,0
1,note_on,73,0,240
1,note_on,76,40,0
1,note_on,76,0,240
1,note_on,79,40,0
1,note_on,79,0,240
1,note_on,82,41,0
1,note_on,82,0,240
1,note_on,85,42,0
1,note_on,85,0,240
1,note_on,88,43,0
1,note_on,88,0,240
1,note_on,91,44,0
1,note_on,91,0,240
1,note_on,94,46,0
1,note_on,94,0,240
1,note_on,91,46,0
1,note_on,91,0,240
1,note_on,88,45,0
1,note_on,88,0,240
1,note_on,85,45,0
1,note_on,85,0,240
1,note_on,82,44,0
1,note_on,82,0,240
1,note_on,79,44,0
1,note_on,79,0,240
1,note_on,76,43,0
1,note_on,76,0,240
1,note_on,73,43,0
1,note_on,73,0,240
1,note_on,70,42,0
1,note_on,70,0,240
1,note_on,67,42,0
1,note_on,67,0,240
1,note_on,64,41,0
1,note_on,64,0,240
1,note_on,61,40,0
1,note_on,61,0,240
1,note_on,55,34,8880
1,note_on,58,34,0
1,note_on,60,34,0
1,note_on,64,34,0
1,note_on,64,0,720
1,note_on,55,0,0
1,note_on,58,0,0
1,note_on,60,0,0
1,note_on,67,34,240
1,note_on,70,34,0
1,note_on,72,34,0
1,note_on,76,34,0
1,note_on,76,0,720
1,note_on,67,0,0
1,note_on,70,0,0
1,note_on,72,0,0
1,note_on,88,34,240
1,note_on,84,34,0
1,note_on,82,34,0
1,note_on,79,34,0
1,note_on,79,0,720
1,note_on,88,0,0
1,note_on,84,0,0
1,note_on,82,0,0
1,note_on,48,40,1320
1,note_on,48,0,120
1,note_on,53,37,0
1,note_on,53,0,120
1,note_on,56,37,0
1,note_on,56,0,120
1,note_on,60,40,0
1,note_on,60,0,120
1,note_on,61,38,0
1,note_on,61,0,120
1,note_on,60,38,0
1,note_on,60,0,120
1,note_on,58,38,0
1,note_on,58,0,120
1,note_on,56,40,0
1,note_on,56,0,120
1,note_on,58,37,0
1,note_on,58,0,120
1,note_on,56,37,0
1,note_on,56,0,120
1,note_on,55,37,0
1,note_on,55,0,120
1,note_on,53,40,0
1,note_on,53,0,120
1,note_on,55,37,0
1,note_on,55,0,120
1,note_on,56,37,0
1,note_on,56,0,120
1,note_on,53,37,0
1,note_on,53,0,120
1,note_on,48,40,120
1,note_on,48,0,120
1,note_on,53,37,0
1,note_on,53,0,120
1,note_on,56,37,0
1,note_on,56,0,120
1,note_on,60,40,0
1,note_on,60,0,120
1,note_on,61,38,0
1,note_on,61,0,120
1,note_on,60,38,0
1,note_on,60,0,120
1,note_on,58,38,0
1,note_on,58,0,120
1,note_on,56,40,0
1,note_on,56,0,120
1,note_on,58,37,0
1,note_on,58,0,120
1,note_on,56,37,0
1,note_on,56,0,120
1,note_on,55,37,0
1,note_on,55,0,120
1,note_on,53,40,0
1,note_on,53,0,120
1,note_on,55,37,0
1,note_on,55,0,120
1,note_on,56,37,0
1,note_on,56,0,120
1,note_on,53,37,0
1,note_on,53,0,120
1,note_on,49,44,120
1,note_on,49,0,120
1,note_on,54,40,0
1,note_on,54,0,120
1,note_on,58,40,0
1,note_on,58,0,120
1,note_on,61,44,0
1,note_on,61,0,120
1,note_on,63,41,0
1,note_on,63,0,120
1,note_on,61,41,0
1,note_on,61,0,120
1,note_on,60,41,0
1,note_on,60,0,120
1,note_on,58,44,0
1,note_on,58,0,120
1,note_on,60,40,0
1,note_on,60,0,120
1,note_on,58,40,0
1,note_on,58,0,120
1,note_on,56,40,0
1,note_on,56,0,120
1,note_on,54,44,0
1,note_on,54,0,120
1,note_on,56,40,0
1,note_on,56,0,120
1,note_on,54,40,0
1,note_on,54,0,120
1,note_on,53,40,0
1,note_on,53,0,120
1,note_on,52,44,0
1,note_on,52,0,120
1,note_on,53,40,0
1,note_on,53,0,120
1,note_on,55,40,0
1,note_on,55,0,120
1,note_on,52,40,0
1,note_on,52,0,120
1,note_on,53,44,0
1,note_on,53,0,120
1,note_on,55,40,0
1,note_on,55,0,120
1,note_on,56,40,0
1,note_on,56,0,120
1,note_on,53,40,0
1,note_on,53,0,120
1,note_on,55,44,0
1,note_on,55,0,120
1,note_on,56,40,0
1,note_on,56,0,120
1,note_on,58,40,0
1,note_on,58,0,120
1,note_on,55,40,0
1,note_on,55,0,120
1,note_on,52,44,0
1,note_on,52,0,120
1,note_on,53,37,0
1,note_on,53,0,120
1,note_on,55,38,0
1,note_on,55,0,120
1,note_on,52,40,0
1,note_on,52,0,120
1,note_on,53,38,0
1,note_on,53,0,480
1,note_on,64,57,240
1,note_on,64,0,120
1,note_on,65,62,120
1,note_on,65,0,120
1,note_on,67,57,120
1,note_on,67,0,120
1,note_on,68,62,120
1,note_on,68,0,120
1,note_on,65,59,120
1,note_on,65,0,120
1,note_on,76,60,840
1,note_on,64,52,0
1,note_on,64,0,120
1,note_on,76,0,0
1,note_on,77,66,120
1,note_on,65,57,0
1,note_on,65,0,120
1,note_on,77,0,0
1,note_on,67,53,120
1,note_on,79,63,0
1,note_on,79,0,120
1,note_on,67,0,0
1,note_on,68,57,120
1,note_on,80,68,0
1,note_on,80,0,120
1,note_on,68,0,0
1,note_on,65,53,120
1,note_on,77,63,0
1,note_on,77,0,120
1,note_on,65,0,0
1,note_on,65,59,840
1,note_on,77,71,0
1,note_on,77,0,240
1,note_on,65,0,0
1,note_on,66,63,0
1,note_on,78,77,0
1,note_on,78,0,240
1,note_on,66,0,0
1,note_on,70,66,0
1,note_on,82,79,0
1,note_on,82,0,240
1,note_on,70,0,0
1,note_on,73,69,0
1,note_on,85,81,0
1,note_on,85,0,120
1,note_on,73,0,0
1,note_on,73,66,120
1,note_on,85,79,0
1,note_on,85,0,120
1,note_on,73,0,0
1,note_on,73,71,120
1,note_on,85,83,0
1,note_on,85,0,480
1,note_on,73,0,0
1,note_on,84,78,0
1,note_on,72,64,0
1,note_on,72,0,960
1,note_on,84,0,0
1,note_on,64,64,0
1,note_on,76,64,0
1,note_on,76,0,480
1,note_on,64,0,0
1,note_on,77,57,0
1,note_on,65,57,0
1,note_on,65,0,120
1,note_on,77,0,0
1,note_on,60,41,0
1,note_on,60,0,120
1,note_on,65,44,0
1,note_on,65,0,120
1,note_on,68,46,0
1,note_on,68,0,120
1,note_on,72,43,0
1,note_on,72,0,120
1,note_on,60,45,0
1,note_on,60,0,120
1,note_on,65,46,0
1,note_on,65,0,120
1,note_on,68,48,0
1,note_on,68,0,120
1,note_on,60,46,120
1,note_on,60,0,120
1,note_on,65,47,0
1,note_on,65,0,120
1,note_on,68,49,0
1,note_on,68,0,120
1,note_on,72,50,0
1,note_on,72,0,120
1,note_on,60,52,0
1,note_on,60,0,120
1,note_on,65,53,0
1,note_on,65,0,120
1,note_on,68,38,0
1,note_on,68,0,120
1,note_on,59,51,120
1,note_on,59,0,120
1,note_on,62,52,0
1,note_on,62,0,120
1,note_on,68,52,0
1,note_on,68,0,120
1,note_on,71,54,0
1,note_on,59,52,120
1,note_on,59,0,120
1,note_on,62,52,0
1,note_on,62,0,120
1,note_on,68,52,0
1,note_on,68,0,120
1,note_on,71,0,0
1,note_on,71,54,0
1,note_on,59,52,120
1,note_on,59,0,120
1,note_on,64,50,0
1,note_on,64,0,120
1,note_on,67,49,0
1,note_on,67,0,120
1,note_on,71,0,0
1,note_on,72,52,0
1,note_on,60,46,120
1,note_on,60,0,120
1,note_on,64,44,0
1,note_on,64,0,120
1,note_on,67,38,0
1,note_on,67,0,120
1,note_on,72,0,0
1,note_on,60,38,120
1,note_on,60,0,120
1,note_on,64,40,0
1,note_on,64,0,120
1,note_on,67,42,0
1,note_on,67,0,120
1,note_on,72,43,0
1,note_on,72,0,120
1,note_on,60,45,0
1,note_on,60,0,120
1,note_on,64,46,0
1,note_on,64,0,120
1,note_on,67,48,0
1,note_on,67,0,120
1,note_on,60,46,120
1,note_on,60,0,120
1,note_on,64,47,0
1,note_on,64,0,120
1,note_on,67,49,0
1,note_on,67,0,120
1,note_on,72,50,0
1,note_on,72,0,120
1,note_on,60,52,0
1,note_on,60,0,120
1,note_on,64,53,0
1,note_on,64,0,120
1,note_on,67,38,0
1,note_on,67,0,120
1,note_on,60,51,120
1,note_on,60,0,120
1,note_on,64,52,0
1,note_on,64,0,120
1,note_on,67,52,0
1,note_on,67,0,120
1,note_on,72,54,0
1,note_on,60,52,120
1,note_on,60,0,120
1,note_on,64,52,0
1,note_on,64,0,120
1,note_on,67,52,0
1,note_on,67,0,120
1,note_on,72,0,0
1,note_on,72,53,0
1,note_on,60,52,120
1,note_on,60,0,120
1,note_on,64,50,0
1,note_on,64,0,120
1,note_on,67,49,0
1,note_on,67,0,120
1,note_on,72,0,0
1,note_on,72,47,0
1,note_on,60,46,120
1,note_on,60,0,120
1,note_on,65,44,0
1,note_on,65,0,120
1,note_on,68,38,0
1,note_on,68,0,120
1,note_on,72,0,0
1,note_on,65,38,120
1,note_on,65,0,120
1,note_on,69,40,0
1,note_on,69,0,120
1,note_on,72,42,0
1,note_on,72,0,120
1,note_on,77,43,0
1,note_on,77,0,120
1,note_on,65,45,0
1,note_on,65,0,120
1,note_on,69,46,0
1,note_on,69,0,120
1,note_on,72,48,0
1,note_on,72,0,120
1,note_on,65,46,120
1,note_on,65,0,120
1,note_on,69,47,0
1,note_on,69,0,120
1,note_on,72,49,0
1,note_on,72,0,120
1,note_on,77,50,0
1,note_on,77,0,120
1,note_on,65,52,0
1,note_on,65,0,120
1,note_on,69,53,0
1,note_on,69,0,120
1,note_on,72,54,0
1,note_on,72,0,120
1,note_on,65,50,120
1,note_on,65,0,120
1,note_on,69,50,0
1,note_on,69,0,120
1,note_on,72,50,0
1,note_on,72,0,120
1,note_on,77,55,0
1,note_on,65,53,120
1,note_on,65,0,120
1,note_on,69,52,0
1,note_on,69,0,120
1,note_on,72,52,0
1,note_on,72,0,120
1,note_on,77,0,0
1,note_on,69,54,0
1,note_on,65,54,0
1,note_on,65,0,120
1,note_on,69,0,0
1,note_on,77,54,0
1,note_on,77,0,120
1,note_on,65,53,0
1,note_on,70,53,0
1,note_on,70,0,120
1,note_on,65,0,0
1,note_on,77,52,0
1,note_on,77,0,120
1,note_on,65,52,0
1,note_on,72,52,0
1,note_on,72,0,120
1,note_on,65,0,0
1,note_on,77,51,0
1,note_on,77,0,120
1,note_on,73,50,0
1,note_on,65,50,0
1,note_on,65,0,120
1,note_on,73,0,0
1,note_on,77,50,0
1,note_on,77,0,120
1,note_on,60,52,120
1,note_on,60,0,120
1,note_on,65,49,0
1,note_on,65,0,120
1,note_on,68,50,0
1,note_on,68,0,120
1,note_on,72,56,0
1,note_on,60,50,120
1,note_on,60,0,120
1,note_on,65,50,0
1,note_on,65,0,120
1,note_on,68,50,0
1,note_on,68,0,120
1,note_on,72,0,0
1,note_on,72,56,0
1,note_on,60,52,120
1,note_on,60,0,120
1,note_on,67,52,0
1,note_on,67,0,120
1,note_on,70,52,0
1,note_on,70,0,120
1,note_on,72,0,0
1,note_on,72,56,0
1,note_on,60,52,120
1,note_on,60,0,120
1,note_on,64,52,0
1,note_on,64,0,120
1,note_on,67,52,0
1,note_on,67,0,120
1,note_on,72,0,0
1,note_on,60,59,0
1,note_on,65,59,0
1,note_on,68,59,0
1,note_on,72,59,0
1,note_on,72,0,480
1,note_on,60,0,0
1,note_on,65,0,0
1,note_on,68,0,0
1,note_on,80,69,360
1,note_on,77,69,0
1,note_on,77,0,120
1,note_on,80,0,0
1,note_on,80,74,0
1,note_on,77,74,0
1,note_on,77,0,480
1,note_on,80,0,0
1,note_on,80,70,360
1,note_on,77,70,0
1,note_on,77,0,120
1,note_on,80,0,0
1,note_on,80,75,0
1,note_on,77,75,0
1,note_on,77,0,960
1,note_on,80,0,0
1,note_on,79,68,0
1,note_on,76,68,0
1,note_on,76,0,240
1,note_on,79,0,0
1,note_on,82,75,1560
1,note_on,79,75,0
1,note_on,79,0,120
1,note_on,82,0,0
1,note_on,82,81,0
1,note_on,79,81,0
1,note_on,79,0,480
1,note_on,82,0,0
1,note_on,82,77,360
1,note_on,79,77,0
1,note_on,79,0,120
1,note_on,82,0,0
1,note_on,82,82,0
1,note_on,79,82,0
1,note_on,79,0,960
1,note_on,82,0,0
1,note_on,80,74,0
1,note_on,77,74,0
1,note_on,77,0,240
1,note_on,80,0,0
1,note_on,87,82,1560
1,note_on,84,82,0
1,note_on,84,0,120
1,note_on,87,0,0
1,note_on,87,89,0
1,note_on,84,89,0
1,note_on,84,0,480
1,note_on,87,0,0
1,note_on,87,84,360
1,note_on,84,84,0
1,note_on,84,0,120
1,note_on,87,0,0
1,note_on,87,90,0
1,note_on,84,90,0
1,note_on,84,0,1200
1,note_on,87,0,0
1,note_on,85,79,0
1,note_on,82,79,0
1,note_on,82,0,240
1,note_on,85,0,0
1,note_on,84,77,0
1,note_on,80,77,0
1,note_on,80,0,240
1,note_on,84,0,0
1,note_on,82,73,0
1,note_on,79,73,0
1,note_on,79,0,240
1,note_on,82,0,0
1,note_on,80,82,0
1,note_on,77,82,0
1,note_on,77,0,480
1,note_on,80,0,0
1,note_on,89,79,360
1,note_on,80,79,0
1,note_on,77,79,0
1,note_on,77,0,120
1,note_on,80,0,0
1,note_on,89,0,0
1,note_on,91,82,0
1,note_on,82,82,0
1,note_on,79,82,0
1,note_on,79,0,480
1,note_on,82,0,0
1,note_on,91,0,0
1,note_on,88,79,360
1,note_on,79,79,0
1,note_on,76,79,0
1,note_on,76,0,120
1,note_on,79,0,0
1,note_on,88,0,0
1,note_on,89,73,0
1,note_on,80,73,0
1,note_on,77,73,0
1,note_on,77,0,120
1,note_on,80,0,0
1,note_on,89,0,0
1,note_on,72,61,0
1,note_on,72,0,120
1,note_on,77,62,0
1,note_on,77,0,120
1,note_on,80,63,0
1,note_on,80,0,120
1,note_on,84,68,0
1,note_on,84,0,120
1,note_on,85,65,0
1,note_on,85,0,120
1,note_on,84,66,0
1,note_on,84,0,120
1,note_on,82,65,0
1,note_on,82,0,120
1,note_on,80,68,0
1,note_on,80,0,120
1,note_on,82,67,0
1,note_on,82,0,120
1,note_on,80,66,0
1,note_on,80,0,120
1,note_on,79,65,0
1,note_on,79,0,120
1,note_on,77,64,0
1,note_on,77,0,120
1,note_on,79,63,0
1,note_on,79,0,120
1,note_on,80,63,0
1,note_on,80,0,120
1,note_on,77,62,0
1,note_on,77,0,120
1,note_on,72,61,120
1,note_on,72,0,120
1,note_on,77,62,0
1,note_on,77,0,120
1,note_on,80,63,0
1,note_on,80,0,120
1,note_on,84,68,0
1,note_on,84,0,120
1,note_on,85,65,0
1,note_on,85,0,120
1,note_on,84,66,0
1,note_on,84,0,120
1,note_on,82,65,0
1,note_on,82,0,120
1,note_on,80,68,0
1,note_on,80,0,120
1,note_on,82,67,0
1,note_on,82,0,120
1,note_on,80,66,0
1,note_on,80,0,120
1,note_on,79,65,0
1,note_on,79,0,120
1,note_on,77,64,0
1,note_on,77,0,120
1,note_on,79,63,0
1,note_on,79,0,120
1,note_on,80,63,0
1,note_on,80,0,120
1,note_on,77,62,0
1,note_on,77,0,120
1,note_on,78,64,120
1,note_on,78,0,120
1,note_on,84,65,0
1,note_on,84,0,120
1,note_on,87,66,0
1,note_on,87,0,120
1,note_on,90,72,0
1,note_on,90,0,120
1,note_on,92,69,0
1,note_on,92,0,120
1,note_on,90,70,0
1,note_on,90,0,120
1,note_on,89,69,0
1,note_on,89,0,120
1,note_on,87,72,0
1,note_on,87,0,120
1,note_on,89,71,0
1,note_on,89,0,120
1,note_on,87,70,0
1,note_on,87,0,120
1,note_on,85,69,0
1,note_on,85,0,120
1,note_on,84,68,0
1,note_on,84,0,120
1,note_on,85,67,0
1,note_on,85,0,120
1,note_on,87,66,0
1,note_on,87,0,120
1,note_on,84,65,0
1,note_on,84,0,120
1,note_on,78,64,120
1,note_on,78,0,120
1,note_on,84,65,0
1,note_on,84,0,120
1,note_on,87,66,0
1,note_on,87,0,120
1,note_on,90,72,0
1,note_on,90,0,120
1,note_on,92,69,0
1,note_on,92,0,120
1,note_on,90,70,0
1,note_on,90,0,120
1,note_on,89,69,0
1,note_on,89,0,120
1,note_on,87,72,0
1,note_on,87,0,120
1,note_on,89,71,0
1,note_on,89,0,120
1,note_on,87,70,0
1,note_on,87,0,120
1,note_on,85,69,0
1,note_on,85,0,120
1,note_on,84,68,0
1,note_on,84,0,120
1,note_on,82,67,0
1,note_on,82,0,120
1,note_on,80,66,0
1,note_on,80,0,120
1,note_on,78,65,0
1,note_on,78,0,120
1,note_on,77,68,0
1,note_on,77,0,120
1,note_on,80,67,0
1,note_on,80,0,120
1,note_on,85,68,0
1,note_on,85,0,120
1,note_on,89,69,0
1,note_on,89,0,120
1,note_on,92,75,0
1,note_on,92,0,120
1,note_on,94,72,0
1,note_on,94,0,120
1,note_on,92,73,0
1,note_on,92,0,120
1,note_on,90,72,0
1,note_on,90,0,120
1,note_on,89,75,0
1,note_on,89,0,120
1,note_on,90,74,0
1,note_on,90,0,120
1,note_on,89,73,0
1,note_on,89,0,120
1,note_on,87,72,0
1,note_on,87,0,120
1,note_on,85,71,0
1,note_on,85,0,120
1,note_on,87,70,0
1,note_on,87,0,120
1,note_on,89,69,0
1,note_on,89,0,120
1,note_on,85,68,0
1,note_on,85,0,120
1,note_on,80,67,120
1,note_on,80,0,120
1,note_on,85,68,0
1,note_on,85,0,120
1,note_on,89,69,0
1,note_on,89,0,120
1,note_on,92,76,0
1,note_on,92,0,120
1,note_on,94,74,0
1,note_on,94,0,120
1,note_on,92,75,0
1,note_on,92,0,120
1,note_on,90,74,0
1,note_on,90,0,120
1,note_on,89,78,0
1,note_on,89,0,120
1,note_on,90,77,0
1,note_on,90,0,120
1,note_on,92,77,0
1,note_on,92,0,120
1,note_on,90,76,0
1,note_on,90,0,120
1,note_on,89,75,0
1,note_on,89,0,120
1,note_on,90,75,0
1,note_on,90,0,120
1,note_on,92,74,0
1,note_on,92,0,120
1,note_on,89,74,0
1,note_on,89,0,120
1,note_on,90,70,120
1,note_on,90,0,120
1,note_on,92,73,0
1,note_on,92,0,120
1,note_on,90,70,0
1,note_on,90,0,120
1,note_on,92,65,0
1,note_on,92,0,120
1,note_on,90,63,0
1,note_on,90,0,120
1,note_on,89,59,0
1,note_on,89,0,120
1,note_on,90,59,0
1,note_on,90,0,120
1,note_on,88,58,120
1,note_on,88,0,120
1,note_on,89,60,0
1,note_on,89,0,120
1,note_on,88,57,0
1,note_on,88,0,120
1,note_on,89,57,120
1,note_on,89,0,120
1,note_on,91,60,0
1,note_on,91,0,120
1,note_on,89,56,0
1,note_on,89,0,120
1,note_on,90,70,120
1,note_on,90,0,120
1,note_on,92,73,0
1,note_on,92,0,120
1,note_on,90,70,0
1,note_on,90,0,120
1,note_on,92,65,0
1,note_on,92,0,120
1,note_on,90,63,0
1,note_on,90,0,120
1,note_on,89,59,0
1,note_on,89,0,120
1,note_on,90,59,0
1,note_on,90,0,120
1,note_on,88,58,120
1,note_on,88,0,120
1,note_on,89,60,0
1,note_on,89,0,120
1,note_on,88,57,0
1,note_on,88,0,120
1,note_on,89,57,120
1,note_on,89,0,120
1,note_on,91,60,0
1,note_on,91,0,120
1,note_on,89,56,0
1,note_on,89,0,120
1,note_on,90,70,120
1,note_on,90,0,120
1,note_on,92,73,0
1,note_on,92,0,120
1,note_on,90,70,0
1,note_on,90,0,120
1,note_on,92,73,0
1,note_on,92,0,120
1,note_on,90,70,0
1,note_on,90,0,120
1,note_on,89,59,0
1,note_on,89,0,120
1,note_on,91,59,0
1,note_on,91,0,120
1,note_on,88,58,120
1,note_on,88,0,120
1,note_on,89,60,0
1,note_on,89,0,120
1,note_on,88,58,0
1,note_on,88,0,120
1,note_on,85,58,120
1,note_on,85,0,120
1,note_on,87,61,0
1,note_on,87,0,120
1,note_on,85,57,0
1,note_on,85,0,120
1,note_on,84,60,120
1,note_on,84,0,120
1,note_on,85,62,0
1,note_on,85,0,120
1,note_on,84,60,0
1,note_on,84,0,120
1,note_on,83,61,120
1,note_on,83,0,120
1,note_on,84,65,0
1,note_on,84,0,120
1,note_on,83,62,0
1,note_on,83,0,120
1,note_on,82,65,120
1,note_on,82,0,120
1,note_on,84,67,0
1,note_on,84,0,120
1,note_on,82,64,0
1,note_on,82,0,120
1,note_on,80,66,120
1,note_on,80,0,120
1,note_on,82,69,0
1,note_on,82,0,120
1,note_on,80,67,0
1,note_on,80,0,120
1,note_on,80,67,120
1,note_on,80,0,120
1,note_on,82,70,0
1,note_on,82,0,120
1,note_on,80,68,0
1,note_on,80,0,120
1,note_on,79,66,120
1,note_on,79,0,120
1,note_on,80,69,0
1,note_on,80,0,120
1,note_on,79,64,0
1,note_on,79,0,120
1,note_on,77,64,120
1,note_on,77,0,120
1,note_on,79,65,0
1,note_on,79,0,120
1,note_on,77,62,0
1,note_on,77,0,120
1,note_on,76,60,120
1,note_on,76,0,120
1,note_on,77,62,0
1,note_on,77,0,120
1,note_on,76,57,0
1,note_on,76,0,120
1,note_on,61,66,120
1,note_on,61,0,120
1,note_on,73,73,0
1,note_on,73,0,120
1,note_on,61,59,0
1,note_on,61,0,120
1,note_on,73,71,0
1,note_on,73,0,120
1,note_on,61,58,0
1,note_on,61,0,120
1,note_on,73,63,0
1,note_on,73,0,120
1,note_on,61,59,0
1,note_on,61,0,120
1,note_on,61,60,120
1,note_on,61,0,120
1,note_on,73,71,0
1,note_on,73,0,120
1,note_on,72,66,0
1,note_on,72,0,120
1,note_on,70,68,0
1,note_on,70,0,120
1,note_on,68,66,0
1,note_on,68,0,120
1,note_on,67,65,0
1,note_on,67,0,120
1,note_on,65,58,0
1,note_on,65,0,120
1,note_on,73,68,120
1,note_on,73,0,120
1,note_on,85,75,0
1,note_on,85,0,120
1,note_on,73,67,0
1,note_on,73,0,120
1,note_on,85,74,0
1,note_on,85,0,120
1,note_on,73,67,0
1,note_on,73,0,120
1,note_on,85,69,0
1,note_on,85,0,120
1,note_on,73,60,0
1,note_on,73,0,120
1,note_on,73,61,120
1,note_on,73,0,120
1,note_on,85,73,0
1,note_on,85,0,120
1,note_on,84,66,0
1,note_on,84,0,120
1,note_on,82,70,0
1,note_on,82,0,120
1,note_on,80,68,0
1,note_on,80,0,120
1,note_on,79,67,0
1,note_on,79,0,120
1,note_on,77,65,0
1,note_on,77,0,120
1,note_on,61,66,120
1,note_on,61,0,120
1,note_on,73,73,0
1,note_on,73,0,120
1,note_on,61,66,0
1,note_on,61,0,120
1,note_on,73,73,0
1,note_on,73,0,120
1,note_on,61,66,0
1,note_on,61,0,120
1,note_on,73,68,0
1,note_on,73,0,120
1,note_on,61,61,0
1,note_on,61,0,120
1,note_on,73,68,120
1,note_on,73,0,120
1,note_on,61,60,0
1,note_on,61,0,120
1,note_on,73,68,0
1,note_on,73,0,120
1,note_on,85,78,120
1,note_on,85,0,120
1,note_on,73,69,0
1,note_on,73,0,120
1,note_on,85,75,0
1,note_on,85,0,120
1,note_on,84,76,120
1,note_on,84,0,120
1,note_on,72,71,0
1,note_on,72,0,120
1,note_on,84,74,0
1,note_on,84,0,120
1,note_on,83,77,120
1,note_on,83,0,120
1,note_on,71,71,0
1,note_on,71,0,120
1,note_on,83,74,0
1,note_on,83,0,120
1,note_on,82,78,120
1,note_on,82,0,120
1,note_on,70,69,0
1,note_on,70,0,120
1,note_on,82,74,0
1,note_on,82,0,120
1,note_on,80,77,120
1,note_on,80,0,120
1,note_on,68,71,0
1,note_on,72,71,0
1,note_on,72,0,120
1,note_on,68,0,0
1,note_on,80,73,0
1,note_on,80,0,120
1,note_on,80,75,120
1,note_on,80,0,120
1,note_on,74,68,0
1,note_on,68,68,0
1,note_on,68,0,120
1,note_on,74,0,0
1,note_on,80,72,0
1,note_on,80,0,120
1,note_on,79,73,120
1,note_on,79,0,120
1,note_on,74,66,0
1,note_on,67,66,0
1,note_on,67,0,120
1,note_on,74,0,0
1,note_on,79,73,0
1,note_on,79,0,120
1,note_on,77,71,120
1,note_on,77,0,120
1,note_on,68,66,0
1,note_on,65,66,0
1,note_on,65,0,120
1,note_on,68,0,0
1,note_on,77,71,0
1,note_on,77,0,120
1,note_on,76,72,120
1,note_on,76,0,120
1,note_on,67,66,0
1,note_on,64,66,0
1,note_on,64,0,120
1,note_on,67,0,0
1,note_on,76,69,0
1,note_on,76,0,120
1,note_on,65,65,0
1,note_on,68,65,0
1,note_on,77,77,0
1,note_on,77,0,120
1,note_on,68,0,0
1,note_on,65,0,0
1,note_on,60,74,0
1,note_on,60,0,120
1,note_on,65,76,0
1,note_on,65,0,120
1,note_on,68,78,0
1,note_on,68,0,120
1,note_on,72,80,0
1,note_on,72,0,120
1,note_on,73,76,0
1,note_on,73,0,120
1,note_on,72,76,0
1,note_on,72,0,120
1,note_on,70,76,0
1,note_on,70,0,120
1,note_on,68,77,0
1,note_on,68,0,120
1,note_on,70,71,0
1,note_on,70,0,120
1,note_on,68,72,0
1,note_on,68,0,120
1,note_on,67,72,0
1,note_on,67,0,120
1,note_on,65,78,0
1,note_on,65,0,120
1,note_on,63,73,0
1,note_on,63,0,120
1,note_on,61,73,0
1,note_on,61,0,120
1,note_on,60,72,0
1,note_on,60,0,120
1,note_on,58,75,0
1,note_on,58,0,120
1,note_on,56,70,0
1,note_on,56,0,120
1,note_on,54,70,0
1,note_on,54,0,120
1,note_on,53,70,0
1,note_on,53,0,120
1,note_on,52,73,0
1,note_on,52,0,240
1,note_on,48,69,0
1,note_on,52,69,0
1,note_on,54,69,0
1,note_on,60,82,0
1,note_on,60,0,180
1,note_on,48,0,0
1,note_on,52,0,0
1,note_on,54,0,0
1,note_on,48,61,60
1,note_on,52,61,0
1,note_on,58,73,0
1,note_on,60,73,0
1,note_on,60,0,180
1,note_on,48,0,0
1,note_on,52,0,0
1,note_on,58,0,0
1,note_on,48,60,60
1,note_on,52,60,0
1,note_on,58,71,0
1,note_on,60,71,0
1,note_on,60,0,180
1,note_on,48,0,0
1,note_on,52,0,0
1,note_on,58,0,0
1,note_on,48,61,60
1,note_on,52,61,0
1,note_on,58,72,0
1,note_on,60,72,0
1,note_on,60,0,180
1,note_on,48,0,0
1,note_on,52,0,0
1,note_on,58,0,0
1,note_on,48,61,60
1,note_on,52,61,0
1,note_on,58,72,0
1,note_on,60,72,0
1,note_on,60,0,180
1,note_on,48,0,0
1,note_on,52,0,0
1,note_on,58,0,0
1,note_on,48,77,60
1,note_on,53,77,0
1,note_on,56,77,0
1,note_on,60,77,0
1,note_on,60,0,120
1,note_on,48,0,0
1,note_on,53,0,0
1,note_on,56,0,0
1,note_on,72,74,0
1,note_on,72,0,120
1,note_on,77,76,0
1,note_on,77,0,120
1,note_on,80,78,0
1,note_on,80,0,120
1,note_on,84,80,0
1,note_on,84,0,120
1,note_on,85,76,0
1,note_on,85,0,120
1,note_on,84,76,0
1,note_on,84,0,120
1,note_on,82,76,0
1,note_on,82,0,120
1,note_on,80,77,0
1,note_on,80,0,120
1,note_on,82,71,0
1,note_on,82,0,120
1,note_on,80,72,0
1,note_on,80,0,120
1,note_on,79,72,0
1,note_on,79,0,120
1,note_on,77,78,0
1,note_on,77,0,120
1,note_on,75,73,0
1,note_on,75,0,120
1,note_on,73,73,0
1,note_on,73,0,120
1,note_on,72,72,0
1,note_on,72,0,120
1,note_on,70,75,0
1,note_on,70,0,120
1,note_on,68,70,0
1,note_on,68,0,120
1,note_on,67,70,0
1,note_on,67,0,120
1,note_on,65,70,0
1,note_on,65,0,120
1,note_on,64,73,0
1,note_on,64,0,240
1,note_on,60,58,0
1,note_on,64,69,0
1,note_on,67,69,0
1,note_on,72,82,0
1,note_on,72,0,180
1,note_on,60,0,0
1,note_on,64,0,0
1,note_on,67,0,0
1,note_on,60,51,60
1,note_on,64,61,0
1,note_on,70,73,0
1,note_on,72,73,0
1,note_on,72,0,180
1,note_on,60,0,0
1,note_on,64,0,0
1,note_on,70,0,0
1,note_on,60,50,60
1,note_on,64,59,0
1,note_on,70,70,0
1,note_on,72,70,0
1,note_on,72,0,180
1,note_on,60,0,0
1,note_on,64,0,0
1,note_on,70,0,0
1,note_on,60,51,60
1,note_on,64,61,0
1,note_on,70,73,0
1,note_on,72,73,0
1,note_on,72,0,180
1,note_on,60,0,0
1,note_on,64,0,0
1,note_on,70,0,0
1,note_on,60,51,60
1,note_on,64,60,0
1,note_on,70,71,0
1,note_on,72,71,0
1,note_on,72,0,180
1,note_on,60,0,0
1,note_on,64,0,0
1,note_on,70,0,0
1,note_on,60,51,60
1,note_on,65,61,0
1,note_on,68,73,0
1,note_on,72,73,0
1,note_on,72,0,240
1,note_on,60,0,0
1,note_on,65,0,0
1,note_on,68,0,0
1,note_on,72,63,480
1,note_on,77,75,0
1,note_on,80,75,0
1,note_on,84,90,0
1,note_on,84,0,180
1,note_on,72,0,0
1,note_on,77,0,0
1,note_on,80,0,0
1,note_on,72,56,60
1,note_on,76,67,0
1,note_on,82,80,0
1,note_on,84,80,0
1,note_on,84,0,180
1,note_on,72,0,0
1,note_on,76,0,0
1,note_on,82,0,0
1,note_on,72,55,60
1,note_on,76,64,0
1,note_on,82,77,0
1,note_on,84,77,0
1,note_on,84,0,180
1,note_on,72,0,0
1,note_on,76,0,0
1,note_on,82,0,0
1,note_on,72,56,60
1,note_on,76,67,0
1,note_on,82,80,0
1,note_on,84,80,0
1,note_on,84,0,180
1,note_on,72,0,0
1,note_on,76,0,0
1,note_on,82,0,0
1,note_on,72,56,60
1,note_on,76,66,0
1,note_on,82,78,0
1,note_on,84,78,0
1,note_on,84,0,180
1,note_on,72,0,0
1,note_on,76,0,0
1,note_on,82,0,0
1,note_on,72,56,60
1,note_on,77,67,0
1,note_on,80,80,0
1,note_on,84,80,0
1,note_on,84,0,180
1,note_on,72,0,0
1,note_on,77,0,0
1,note_on,80,0,0
1,note_on,60,58,540
1,note_on,65,69,0
1,note_on,68,69,0
1,note_on,72,82,0
1,note_on,72,0,180
1,note_on,60,0,0
1,note_on,65,0,0
1,note_on,68,0,0
1,note_on,60,51,60
1,note_on,64,61,0
1,note_on,70,73,0
1,note_on,72,73,0
1,note_on,72,0,180
1,note_on,60,0,0
1,note_on,64,0,0
1,note_on,70,0,0
1,note_on,60,50,60
1,note_on,64,59,0
1,note_on,70,70,0
1,note_on,72,70,0
1,note_on,72,0,180
1,note_on,60,0,0
1,note_on,64,0,0
1,note_on,70,0,0
1,note_on,60,51,60
1,note_on,64,61,0
1,note_on,70,73,0
1,note_on,72,73,0
1,note_on,72,0,180
1,note_on,60,0,0
1,note_on,64,0,0
1,note_on,70,0,0
1,note_on,60,51,60
1,note_on,64,60,0
1,note_on,70,71,0
1,note_on,72,71,0
1,note_on,72,0,180
1,note_on,60,0,0
1,note_on,64,0,0
1,note_on,70,0,0
1,note_on,60,73,60
1,note_on,65,73,0
1,note_on,68,73,0
1,note_on,72,73,0
1,note_on,72,0,120
1,note_on,60,0,0
1,note_on,65,0,0
1,note_on,68,0,0
1,note_on,67,74,0
1,note_on,67,0,120
1,note_on,68,75,0
1,note_on,68,0,120
1,note_on,70,76,0
1,note_on,70,0,120
1,note_on,72,77,0
1,note_on,72,0,120
1,note_on,74,78,0
1,note_on,74,0,120
1,note_on,76,79,0
1,note_on,76,0,120
1,note_on,77,80,0
1,note_on,77,0,120
1,note_on,79,80,0
1,note_on,79,0,120
1,note_on,77,79,0
1,note_on,77,0,120
1,note_on,76,79,0
1,note_on,76,0,120
1,note_on,73,78,0
1,note_on,73,0,120
1,note_on,72,77,0
1,note_on,72,0,120
1,note_on,70,76,0
1,note_on,70,0,120
1,note_on,68,75,0
1,note_on,68,0,120
1,note_on,67,74,0
1,note_on,67,0,120
1,note_on,65,73,0
1,note_on,65,0,120
1,note_on,67,74,0
1,note_on,67,0,120
1,note_on,68,75,0
1,note_on,68,0,120
1,note_on,70,76,0
1,note_on,70,0,120
1,note_on,72,77,0
1,note_on,72,0,120
1,note_on,74,78,0
1,note_on,74,0,120
1,note_on,76,79,0
1,note_on,76,0,120
1,note_on,77,80,0
1,note_on,77,0,120
1,note_on,79,80,0
1,note_on,79,0,120
1,note_on,77,79,0
1,note_on,77,0,120
1,note_on,76,79,0
1,note_on,76,0,120
1,note_on,73,78,0
1,note_on,73,0,120
1,note_on,72,77,0
1,note_on,72,0,120
1,note_on,70,76,0
1,note_on,70,0,120
1,note_on,68,75,0
1,note_on,68,0,120
1,note_on,67,74,0
1,note_on,67,0,120
1,note_on,65,73,0
1,note_on,65,0,120
1,note_on,67,74,0
1,note_on,67,0,120
1,note_on,68,75,0
1,note_on,68,0,120
1,note_on,70,76,0
1,note_on,70,0,120
1,note_on,72,77,0
1,note_on,72,0,120
1,note_on,74,78,0
1,note_on,74,0,120
1,note_on,76,79,0
1,note_on,76,0,120
1,note_on,77,80,0
1,note_on,77,0,120
1,note_on,79,80,0
1,note_on,79,0,120
1,note_on,78,76,0
1,note_on,78,0,120
1,note_on,79,79,0
1,note_on,79,0,120
1,note_on,78,73,0
1,note_on,78,0,120
1,note_on,79,77,0
1,note_on,79,0,120
1,note_on,78,72,0
1,note_on,78,0,120
1,note_on,79,75,0
1,note_on,79,0,120
1,note_on,78,70,0
1,note_on,78,0,120
1,note_on,79,77,0
1,note_on,79,0,120
1,note_on,78,72,0
1,note_on,78,0,120
1,note_on,79,76,0
1,note_on,79,0,120
1,note_on,78,72,0
1,note_on,78,0,120
1,note_on,79,75,0
1,note_on,79,0,120
1,note_on,78,71,0
1,note_on,78,0,120
1,note_on,79,74,0
1,note_on,79,0,120
1,note_on,78,71,0
1,note_on,78,0,120
1,note_on,79,80,0
1,note_on,79,0,120
1,note_on,77,79,0
1,note_on,77,0,120
1,note_on,76,79,0
1,note_on,76,0,120
1,note_on,73,78,0
1,note_on,73,0,120
1,note_on,72,77,0
1,note_on,72,0,120
1,note_on,70,76,0
1,note_on,70,0,120
1,note_on,68,75,0
1,note_on,68,0,120
1,note_on,67,74,0
1,note_on,67,0,120
1,note_on,56,94,0
1,note_on,60,94,0
1,note_on,65,111,0
1,note_on,65,0,960
1,note_on,60,0,0
1,note_on,56,0,0
1,note_on,56,88,0
1,note_on,60,88,0
1,note_on,68,105,0
1,note_on,68,0,960
1,note_on,60,0,0
1,note_on,56,0,0
1,note_on,55,50,0
1,note_on,58,50,0
1,note_on,67,50,0
1,note_on,67,0,120
1,note_on,58,0,0
1,note_on,55,0,0
1,note_on,55,50,120
1,note_on,58,50,0
1,note_on,64,50,0
1,note_on,64,0,120
1,note_on,58,0,0
1,note_on,55,0,0
1,note_on,55,46,120
1,note_on,58,46,0
1,note_on,60,46,0
1,note_on,60,0,120
1,note_on,58,0,0
1,note_on,55,0,0
1,note_on,55,46,120
1,note_on,58,46,0
1,note_on,64,46,0
1,note_on,64,0,120
1,note_on,58,0,0
1,note_on,55,0,0
1,note_on,56,50,120
1,note_on,60,50,0
1,note_on,65,50,0
1,note_on,65,0,120
1,note_on,60,0,0
1,note_on,56,0,0
1,note_on,56,47,120
1,note_on,60,47,0
1,note_on,60,0,120
1,note_on,56,0,0
1,note_on,56,47,120
1,note_on,60,47,0
1,note_on,65,47,0
1,note_on,65,0,120
1,note_on,60,0,0
1,note_on,56,0,0
1,note_on,56,47,120
1,note_on,60,47,0
1,note_on,68,47,0
1,note_on,68,0,120
1,note_on,60,0,0
1,note_on,56,0,0
1,note_on,55,50,120
1,note_on,58,50,0
1,note_on,67,50,0
1,note_on,67,0,120
1,note_on,58,0,0
1,note_on,55,0,0
1,note_on,55,50,120
1,note_on,58,50,0
1,note_on,64,50,0
1,note_on,64,0,120
1,note_on,58,0,0
1,note_on,55,0,0
1,note_on,55,46,120
1,note_on,58,46,0
1,note_on,60,46,0
1,note_on,60,0,120
1,note_on,58,0,0
1,note_on,55,0,0
1,note_on,55,46,120
1,note_on,58,46,0
1,note_on,64,46,0
1,note_on,64,0,120
1,note_on,58,0,0
1,note_on,55,0,0
1,note_on,56,50,120
1,note_on,60,50,0
1,note_on,65,50,0
1,note_on,65,0,120
1,note_on,60,0,0
1,note_on,56,0,0
1,note_on,56,47,120
1,note_on,60,47,0
1,note_on,60,0,120
1,note_on,56,0,0
1,note_on,56,49,120
1,note_on,60,49,0
1,note_on,65,49,0
1,note_on,65,0,120
1,note_on,60,0,0
1,note_on,56,0,0
1,note_on,56,50,120
1,note_on,60,50,0
1,note_on,68,50,0
1,note_on,68,0,120
1,note_on,60,0,0
1,note_on,56,0,0
1,note_on,55,55,120
1,note_on,60,55,0
1,note_on,67,55,0
1,note_on,67,0,120
1,note_on,60,0,0
1,note_on,55,0,0
1,note_on,55,50,120
1,note_on,60,50,0
1,note_on,63,50,0
1,note_on,63,0,120
1,note_on,60,0,0
1,note_on,55,0,0
1,note_on,55,49,120
1,note_on,59,49,0
1,note_on,62,49,0
1,note_on,62,0,120
1,note_on,59,0,0
1,note_on,55,0,0
1,note_on,55,48,120
1,note_on,59,48,0
1,note_on,67,48,0
1,note_on,67,0,120
1,note_on,59,0,0
1,note_on,55,0,0
1,note_on,60,60,120
1,note_on,60,0,480
1,note_on,60,75,240
1,note_on,60,0,80
1,note_on,62,78,0
1,note_on,62,0,80
1,note_on,64,80,0
1,note_on,64,0,80
1,note_on,56,94,0
1,note_on,60,94,0
1,note_on,65,111,0
1,note_on,65,0,960
1,note_on,60,0,0
1,note_on,56,0,0
1,note_on,56,88,0
1,note_on,60,88,0
1,note_on,68,105,0
1,note_on,68,0,960
1,note_on,60,0,0
1,note_on,56,0,0
1,note_on,55,50,0
1,note_on,58,50,0
1,note_on,67,50,0
1,note_on,67,0,120
1,note_on,58,0,0
1,note_on,55,0,0
1,note_on,55,50,120
1,note_on,58,50,0
1,note_on,64,50,0
1,note_on,64,0,120
1,note_on,58,0,0
1,note_on,55,0,0
1,note_on,55,46,120
1,note_on,58,46,0
1,note_on,60,46,0
1,note_on,60,0,120
1,note_on,58,0,0
1,note_on,55,0,0
1,note_on,55,46,120
1,note_on,58,46,0
1,note_on,64,46,0
1,note_on,64,0,120
1,note_on,58,0,0
1,note_on,55,0,0
1,note_on,56,50,120
1,note_on,60,50,0
1,note_on,65,50,0
1,note_on,65,0,120
1,note_on,60,0,0
1,note_on,56,0,0
1,note_on,56,47,120
1,note_on,60,47,0
1,note_on,60,0,120
1,note_on,56,0,0
1,note_on,56,47,120
1,note_on,60,47,0
1,note_on,65,47,0
1,note_on,65,0,120
1,note_on,60,0,0
1,note_on,56,0,0
1,note_on,56,47,120
1,note_on,60,47,0
1,note_on,68,47,0
1,note_on,68,0,120
1,note_on,60,0,0
1,note_on,56,0,0
1,note_on,55,50,120
1,note_on,58,50,0
1,note_on,67,50,0
1,note_on,67,0,120
1,note_on,58,0,0
1,note_on,55,0,0
1,note_on,55,50,120
1,note_on,58,50,0
1,note_on,64,50,0
1,note_on,64,0,120
1,note_on,58,0,0
1,note_on,55,0,0
1,note_on,55,46,120
1,note_on,58,46,0
1,note_on,60,46,0
1,note_on,60,0,120
1,note_on,58,0,0
1,note_on,55,0,0
1,note_on,55,46,120
1,note_on,58,46,0
1,note_on,64,46,0
1,note_on,64,0,120
1,note_on,58,0,0
1,note_on,55,0,0
1,note_on,56,50,120
1,note_on,60,50,0
1,note_on,65,50,0
1,note_on,65,0,120
1,note_on,60,0,0
1,note_on,56,0,0
1,note_on,56,47,120
1,note_on,60,47,0
1,note_on,60,0,120
1,note_on,56,0,0
1,note_on,56,49,120
1,note_on,60,49,0
1,note_on,65,49,0
1,note_on,65,0,120
1,note_on,60,0,0
1,note_on,56,0,0
1,note_on,56,50,120
1,note_on,60,50,0
1,note_on,68,50,0
1,note_on,68,0,120
1,note_on,60,0,0
1,note_on,56,0,0
1,note_on,55,55,120
1,note_on,60,55,0
1,note_on,67,55,0
1,note_on,67,0,120
1,note_on,60,0,0
1,note_on,55,0,0
1,note_on,55,50,120
1,note_on,60,50,0
1,note_on,63,50,0
1,note_on,63,0,120
1,note_on,60,0,0
1,note_on,55,0,0
1,note_on,55,49,120
1,note_on,59,49,0
1,note_on,62,49,0
1,note_on,62,0,120
1,note_on,59,0,0
1,note_on,55,0,0
1,note_on,55,48,120
1,note_on,59,48,0
1,note_on,67,48,0
1,note_on,67,0,120
1,note_on,59,0,0
1,note_on,55,0,0
1,note_on,60,60,120
1,note_on,60,0,480
1,note_on,63,75,240
1,note_on,63,0,80
1,note_on,65,78,0
1,note_on,65,0,80
1,note_on,67,80,0
1,note_on,67,0,80
1,note_on,60,94,0
1,note_on,63,94,0
1,note_on,68,111,0
1,note_on,68,0,960
1,note_on,63,0,0
1,note_on,60,0,0
1,note_on,60,88,0
1,note_on,63,88,0
1,note_on,72,105,0
1,note_on,72,0,960
1,note_on,63,0,0
1,note_on,60,0,0
1,note_on,58,50,0
1,note_on,61,50,0
1,note_on,70,50,0
1,note_on,70,0,120
1,note_on,61,0,0
1,note_on,58,0,0
1,note_on,58,50,120
1,note_on,61,50,0
1,note_on,67,50,0
1,note_on,67,0,120
1,note_on,61,0,0
1,note_on,58,0,0
1,note_on,58,46,120
1,note_on,61,46,0
1,note_on,63,46,0
1,note_on,63,0,120
1,note_on,61,0,0
1,note_on,58,0,0
1,note_on,58,46,120
1,note_on,61,46,0
1,note_on,67,46,0
1,note_on,67,0,120
1,note_on,61,0,0
1,note_on,58,0,0
1,note_on,60,50,120
1,note_on,63,50,0
1,note_on,68,50,0
1,note_on,68,0,120
1,note_on,63,0,0
1,note_on,60,0,0
1,note_on,60,47,120
1,note_on,63,47,0
1,note_on,63,0,120
1,note_on,60,0,0
1,note_on,60,47,120
1,note_on,63,47,0
1,note_on,68,47,0
1,note_on,68,0,120
1,note_on,63,0,0
1,note_on,60,0,0
1,note_on,60,47,120
1,note_on,63,47,0
1,note_on,72,47,0
1,note_on,72,0,120
1,note_on,63,0,0
1,note_on,60,0,0
1,note_on,58,50,120
1,note_on,61,50,0
1,note_on,70,50,0
1,note_on,70,0,120
1,note_on,61,0,0
1,note_on,58,0,0
1,note_on,58,50,120
1,note_on,61,50,0
1,note_on,67,50,0
1,note_on,67,0,120
1,note_on,61,0,0
1,note_on,58,0,0
1,note_on,58,46,120
1,note_on,61,46,0
1,note_on,63,46,0
1,note_on,63,0,120
1,note_on,61,0,0
1,note_on,58,0,0
1,note_on,58,46,120
1,note_on,61,46,0
1,note_on,67,46,0
1,note_on,67,0,120
1,note_on,61,0,0
1,note_on,58,0,0
1,note_on,60,50,120
1,note_on,63,50,0
1,note_on,68,50,0
1,note_on,68,0,120
1,note_on,63,0,0
1,note_on,60,0,0
1,note_on,60,47,120
1,note_on,63,47,0
1,note_on,63,0,120
1,note_on,60,0,0
1,note_on,60,47,120
1,note_on,63,47,0
1,note_on,68,47,0
1,note_on,68,0,120
1,note_on,63,0,0
1,note_on,60,0,0
1,note_on,60,47,120
1,note_on,63,47,0
1,note_on,72,47,0
1,note_on,72,0,120
1,note_on,63,0,0
1,note_on,60,0,0
1,note_on,60,52,120
1,note_on,63,52,0
1,note_on,69,52,0
1,note_on,69,0,120
1,note_on,63,0,0
1,note_on,60,0,0
1,note_on,60,52,120
1,note_on,63,52,0
1,note_on,65,52,0
1,note_on,65,0,120
1,note_on,63,0,0
1,note_on,60,0,0
1,note_on,60,48,120
1,note_on,63,48,0
1,note_on,69,48,0
1,note_on,69,0,120
1,note_on,63,0,0
1,note_on,60,0,0
1,note_on,60,49,120
1,note_on,63,49,0
1,note_on,72,49,0
1,note_on,72,0,120
1,note_on,63,0,0
1,note_on,60,0,0
1,note_on,61,54,120
1,note_on,65,54,0
1,note_on,70,54,0
1,note_on,70,0,120
1,note_on,65,0,0
1,note_on,61,0,0
1,note_on,61,52,120
1,note_on,65,52,0
1,note_on,65,0,120
1,note_on,61,0,0
1,note_on,61,53,120
1,note_on,65,53,0
1,note_on,70,53,0
1,note_on,70,0,120
1,note_on,65,0,0
1,note_on,61,0,0
1,note_on,61,54,120
1,note_on,65,54,0
1,note_on,73,54,0
1,note_on,73,0,120
1,note_on,65,0,0
1,note_on,61,0,0
1,note_on,60,60,120
1,note_on,65,60,0
1,note_on,72,60,0
1,note_on,72,0,120
1,note_on,65,0,0
1,note_on,60,0,0
1,note_on,60,60,120
1,note_on,65,60,0
1,note_on,68,60,0
1,note_on,68,0,120
1,note_on,65,0,0
1,note_on,60,0,0
1,note_on,60,53,120
1,note_on,64,53,0
1,note_on,67,53,0
1,note_on,67,0,120
1,note_on,64,0,0
1,note_on,60,0,0
1,note_on,60,53,120
1,note_on,64,53,0
1,note_on,72,53,0
1,note_on,72,0,120
1,note_on,64,0,0
1,note_on,60,0,0
1,note_on,65,70,120
1,note_on,65,0,480
1,note_on,63,75,240
1,note_on,63,0,80
1,note_on,65,78,0
1,note_on,65,0,80
1,note_on,67,80,0
1,note_on,67,0,80
1,note_on,60,94,0
1,note_on,63,94,0
1,note_on,68,111,0
1,note_on,68,0,960
1,note_on,63,0,0
1,note_on,60,0,0
1,note_on,60,88,0
1,note_on,63,88,0
1,note_on,72,105,0
1,note_on,72,0,960
1,note_on,63,0,0
1,note_on,60,0,0
1,note_on,58,50,0
1,note_on,61,50,0
1,note_on,70,50,0
1,note_on,70,0,120
1,note_on,61,0,0
1,note_on,58,0,0
1,note_on,58,50,120
1,note_on,61,50,0
1,note_on,67,50,0
1,note_on,67,0,120
1,note_on,61,0,0
1,note_on,58,0,0
1,note_on,58,46,120
1,note_on,61,46,0
1,note_on,63,46,0
1,note_on,63,0,120
1,note_on,61,0,0
1,note_on,58,0,0
1,note_on,58,46,120
1,note_on,61,46,0
1,note_on,67,46,0
1,note_on,67,0,120
1,note_on,61,0,0
1,note_on,58,0,0
1,note_on,60,50,120
1,note_on,63,50,0
1,note_on,68,50,0
1,note_on,68,0,120
1,note_on,63,0,0
1,note_on,60,0,0
1,note_on,60,47,120
1,note_on,63,47,0
1,note_on,63,0,120
1,note_on,60,0,0
1,note_on,60,47,120
1,note_on,63,47,0
1,note_on,68,47,0
1,note_on,68,0,120
1,note_on,63,0,0
1,note_on,60,0,0
1,note_on,60,47,120
1,note_on,63,47,0
1,note_on,72,47,0
1,note_on,72,0,120
1,note_on,63,0,0
1,note_on,60,0,0
1,note_on,58,50,120
1,note_on,61,50,0
1,note_on,70,50,0
1,note_on,70,0,120
1,note_on,61,0,0
1,note_on,58,0,0
1,note_on,58,50,120
1,note_on,61,50,0
1,note_on,67,50,0
1,note_on,67,0,120
1,note_on,61,0,0
1,note_on,58,0,0
1,note_on,58,46,120
1,note_on,61,46,0
1,note_on,63,46,0
1,note_on,63,0,120
1,note_on,61,0,0
1,note_on,58,0,0
1,note_on,58,46,120
1,note_on,61,46,0
1,note_on,67,46,0
1,note_on,67,0,120
1,note_on,61,0,0
1,note_on,58,0,0
1,note_on,60,50,120
1,note_on,63,50,0
1,note_on,68,50,0
1,note_on,68,0,120
1,note_on,63,0,0
1,note_on,60,0,0
1,note_on,60,47,120
1,note_on,63,47,0
1,note_on,63,0,120
1,note_on,60,0,0
1,note_on,60,47,120
1,note_on,63,47,0
1,note_on,68,47,0
1,note_on,68,0,120
1,note_on,63,0,0
1,note_on,60,0,0
1,note_on,60,47,120
1,note_on,63,47,0
1,note_on,72,47,0
1,note_on,72,0,120
1,note_on,63,0,0
1,note_on,60,0,0
1,note_on,60,52,120
1,note_on,63,52,0
1,note_on,69,52,0
1,note_on,69,0,120
1,note_on,63,0,0
1,note_on,60,0,0
1,note_on,60,52,120
1,note_on,63,52,0
1,note_on,65,52,0
1,note_on,65,0,120
1,note_on,63,0,0
1,note_on,60,0,0
1,note_on,60,48,120
1,note_on,63,48,0
1,note_on,69,48,0
1,note_on,69,0,120
1,note_on,63,0,0
1,note_on,60,0,0
1,note_on,60,49,120
1,note_on,63,49,0
1,note_on,72,49,0
1,note_on,72,0,120
1,note_on,63,0,0
1,note_on,60,0,0
1,note_on,61,54,120
1,note_on,65,54,0
1,note_on,70,54,0
1,note_on,70,0,120
1,note_on,65,0,0
1,note_on,61,0,0
1,note_on,61,52,120
1,note_on,65,52,0
1,note_on,65,0,120
1,note_on,61,0,0
1,note_on,61,53,120
1,note_on,65,53,0
1,note_on,70,53,0
1,note_on,70,0,120
1,note_on,65,0,0
1,note_on,61,0,0
1,note_on,61,54,120
1,note_on,65,54,0
1,note_on,73,54,0
1,note_on,73,0,120
1,note_on,65,0,0
1,note_on,61,0,0
1,note_on,60,60,120
1,note_on,65,60,0
1,note_on,72,60,0
1,note_on,72,0,120
1,note_on,65,0,0
1,note_on,60,0,0
1,note_on,60,60,120
1,note_on,65,60,0
1,note_on,68,60,0
1,note_on,68,0,120
1,note_on,65,0,0
1,note_on,60,0,0
1,note_on,60,53,120
1,note_on,64,53,0
1,note_on,67,53,0
1,note_on,67,0,120
1,note_on,64,0,0
1,note_on,60,0,0
1,note_on,60,53,120
1,note_on,64,53,0
1,note_on,72,53,0
1,note_on,72,0,120
1,note_on,64,0,0
1,note_on,60,0,0
1,note_on,65,70,120
1,note_on,65,0,120
1,note_on,60,65,0
1,note_on,60,0,120
1,note_on,65,63,0
1,note_on,65,0,120
1,note_on,68,62,0
1,note_on,68,0,120
1,note_on,72,62,0
1,note_on,72,0,120
1,note_on,73,58,0
1,note_on,73,0,120
1,note_on,72,62,0
1,note_on,72,0,120
1,note_on,70,57,0
1,note_on,70,0,120
1,note_on,68,65,0
1,note_on,68,0,120
1,note_on,70,60,0
1,note_on,70,0,120
1,note_on,68,60,0
1,note_on,68,0,120
1,note_on,67,54,0
1,note_on,67,0,120
1,note_on,65,63,0
1,note_on,65,0,120
1,note_on,67,54,0
1,note_on,67,0,120
1,note_on,68,57,0
1,note_on,68,0,120
1,note_on,65,54,0
1,note_on,65,0,120
1,note_on,68,67,0
1,note_on,68,0,120
1,note_on,60,63,0
1,note_on,60,0,120
1,note_on,65,63,0
1,note_on,65,0,120
1,note_on,68,60,0
1,note_on,68,0,120
1,note_on,72,63,0
1,note_on,72,0,120
1,note_on,73,59,0
1,note_on,73,0,120
1,note_on,72,61,0
1,note_on,72,0,120
1,note_on,70,61,0
1,note_on,70,0,120
1,note_on,68,64,0
1,note_on,68,0,120
1,note_on,70,61,0
1,note_on,70,0,120
1,note_on,68,60,0
1,note_on,68,0,120
1,note_on,67,54,0
1,note_on,67,0,120
1,note_on,65,63,0
1,note_on,65,0,120
1,note_on,67,54,0
1,note_on,67,0,120
1,note_on,68,57,0
1,note_on,68,0,120
1,note_on,65,54,0
1,note_on,65,0,120
1,note_on,66,67,0
1,note_on,66,0,120
1,note_on,61,63,0
1,note_on,61,0,120
1,note_on,66,63,0
1,note_on,66,0,120
1,note_on,70,62,0
1,note_on,70,0,120
1,note_on,73,63,0
1,note_on,73,0,120
1,note_on,75,61,0
1,note_on,75,0,120
1,note_on,73,63,0
1,note_on,73,0,120
1,note_on,72,61,0
1,note_on,72,0,120
1,note_on,70,64,0
1,note_on,70,0,120
1,note_on,72,60,0
1,note_on,72,0,120
1,note_on,70,60,0
1,note_on,70,0,120
1,note_on,68,54,0
1,note_on,68,0,120
1,note_on,66,63,0
1,note_on,66,0,120
1,note_on,68,54,0
1,note_on,68,0,120
1,note_on,66,57,0
1,note_on,66,0,120
1,note_on,65,54,0
1,note_on,65,0,120
1,note_on,64,69,0
1,note_on,64,0,120
1,note_on,65,63,0
1,note_on,65,0,120
1,note_on,67,63,0
1,note_on,67,0,120
1,note_on,68,62,0
1,note_on,68,0,120
1,note_on,70,63,0
1,note_on,70,0,120
1,note_on,68,61,0
1,note_on,68,0,120
1,note_on,67,63,0
1,note_on,67,0,120
1,note_on,65,61,0
1,note_on,65,0,120
1,note_on,64,63,0
1,note_on,64,0,120
1,note_on,65,64,0
1,note_on,65,0,120
1,note_on,67,61,0
1,note_on,67,0,120
1,note_on,68,54,0
1,note_on,68,0,120
1,note_on,70,62,0
1,note_on,70,0,120
1,note_on,72,63,0
1,note_on,72,0,120
1,note_on,74,65,0
1,note_on,74,0,120
1,note_on,76,69,0
1,note_on,76,0,120
1,note_on,77,72,0
1,note_on,77,0,120
1,note_on,72,69,0
1,note_on,72,0,120
1,note_on,77,65,0
1,note_on,77,0,120
1,note_on,80,64,0
1,note_on,80,0,120
1,note_on,84,67,0
1,note_on,84,0,120
1,note_on,85,64,0
1,note_on,85,0,120
1,note_on,84,64,0
1,note_on,84,0,120
1,note_on,82,64,0
1,note_on,82,0,120
1,note_on,80,66,0
1,note_on,80,0,120
1,note_on,82,63,0
1,note_on,82,0,120
1,note_on,80,63,0
1,note_on,80,0,120
1,note_on,79,55,0
1,note_on,79,0,120
1,note_on,77,63,0
1,note_on,77,0,120
1,note_on,79,56,0
1,note_on,79,0,120
1,note_on,80,60,0
1,note_on,80,0,120
1,note_on,77,55,0
1,note_on,77,0,120
1,note_on,80,72,0
1,note_on,80,0,120
1,note_on,72,65,0
1,note_on,72,0,120
1,note_on,77,65,0
1,note_on,77,0,120
1,note_on,80,64,0
1,note_on,80,0,120
1,note_on,84,67,0
1,note_on,84,0,120
1,note_on,85,64,0
1,note_on,85,0,120
1,note_on,84,64,0
1,note_on,84,0,120
1,note_on,82,64,0
1,note_on,82,0,120
1,note_on,80,64,0
1,note_on,80,0,120
1,note_on,82,63,0
1,note_on,82,0,120
1,note_on,80,63,0
1,note_on,80,0,120
1,note_on,79,55,0
1,note_on,79,0,120
1,note_on,77,63,0
1,note_on,77,0,120
1,note_on,79,56,0
1,note_on,79,0,120
1,note_on,80,60,0
1,note_on,80,0,120
1,note_on,77,55,0
1,note_on,77,0,120
1,note_on,78,71,0
1,note_on,78,0,120
1,note_on,73,65,0
1,note_on,73,0,120
1,note_on,78,65,0
1,note_on,78,0,120
1,note_on,82,64,0
1,note_on,82,0,120
1,note_on,85,67,0
1,note_on,85,0,120
1,note_on,87,64,0
1,note_on,87,0,120
1,note_on,85,64,0
1,note_on,85,0,120
1,note_on,84,64,0
1,note_on,84,0,120
1,note_on,82,67,0
1,note_on,82,0,120
1,note_on,84,63,0
1,note_on,84,0,120
1,note_on,82,63,0
1,note_on,82,0,120
1,note_on,80,55,0
1,note_on,80,0,120
1,note_on,78,63,0
1,note_on,78,0,120
1,note_on,80,56,0
1,note_on,80,0,120
1,note_on,78,60,0
1,note_on,78,0,120
1,note_on,77,55,0
1,note_on,77,0,120
1,note_on,76,72,0
1,note_on,76,0,120
1,note_on,77,65,0
1,note_on,77,0,120
1,note_on,79,65,0
1,note_on,79,0,120
1,note_on,80,64,0
1,note_on,80,0,120
1,note_on,82,70,0
1,note_on,82,0,120
1,note_on,80,66,0
1,note_on,80,0,120
1,note_on,79,65,0
1,note_on,79,0,120
1,note_on,77,63,0
1,note_on,77,0,120
1,note_on,76,66,0
1,note_on,76,0,120
1,note_on,77,67,0
1,note_on,77,0,120
1,note_on,79,63,0
1,note_on,79,0,120
1,note_on,80,55,0
1,note_on,80,0,120
1,note_on,82,63,0
1,note_on,82,0,120
1,note_on,84,66,0
1,note_on,84,0,120
1,note_on,86,71,0
1,note_on,86,0,120
1,note_on,88,73,0
1,note_on,88,0,120
1,note_on,89,80,0
1,note_on,89,0,120
1,note_on,80,75,0
1,note_on,80,0,120
1,note_on,84,70,0
1,note_on,84,0,120
1,note_on,89,70,0
1,note_on,89,0,120
1,note_on,92,86,0
1,note_on,92,0,600
1,note_on,84,70,0
1,note_on,84,0,120
1,note_on,89,70,0
1,note_on,89,0,120
1,note_on,92,73,0
1,note_on,92,0,120
1,note_on,96,77,0
1,note_on,96,0,120
1,note_on,92,76,0
1,note_on,92,0,120
1,note_on,91,73,0
1,note_on,91,0,120
1,note_on,88,73,0
1,note_on,88,0,120
1,note_on,89,78,0
1,note_on,89,0,120
1,note_on,80,75,0
1,note_on,80,0,120
1,note_on,84,70,0
1,note_on,84,0,120
1,note_on,89,70,0
1,note_on,89,0,120
1,note_on,92,86,0
1,note_on,92,0,600
1,note_on,84,69,0
1,note_on,84,0,120
1,note_on,89,72,0
1,note_on,89,0,120
1,note_on,92,75,0
1,note_on,92,0,120
1,note_on,96,77,0
1,note_on,96,0,120
1,note_on,92,76,0
1,note_on,92,0,120
1,note_on,91,75,0
1,note_on,91,0,120
1,note_on,88,72,0
1,note_on,88,0,120
1,note_on,89,78,0
1,note_on,89,0,120
1,note_on,80,75,0
1,note_on,80,0,120
1,note_on,84,70,0
1,note_on,84,0,120
1,note_on,89,70,0
1,note_on,89,0,120
1,note_on,92,86,0
1,note_on,92,0,600
1,note_on,84,69,0
1,note_on,84,0,120
1,note_on,89,72,0
1,note_on,89,0,120
1,note_on,92,75,0
1,note_on,92,0,120
1,note_on,96,77,0
1,note_on,96,0,120
1,note_on,92,76,0
1,note_on,92,0,120
1,note_on,91,75,0
1,note_on,91,0,120
1,note_on,88,73,0
1,note_on,88,0,120
1,note_on,89,77,0
1,note_on,89,0,120
1,note_on,80,75,0
1,note_on,80,0,120
1,note_on,84,70,0
1,note_on,84,0,120
1,note_on,89,70,0
1,note_on,89,0,120
1,note_on,92,86,0
1,note_on,92,0,600
1,note_on,84,70,0
1,note_on,84,0,120
1,note_on,89,72,0
1,note_on,89,0,120
1,note_on,92,75,0
1,note_on,92,0,120
1,note_on,96,76,0
1,note_on,96,0,120
1,note_on,92,76,0
1,note_on,92,0,120
1,note_on,91,75,0
1,note_on,91,0,120
1,note_on,88,73,0
1,note_on,88,0,120
1,note_on,89,77,0
1,note_on,89,0,120
1,note_on,84,72,0
1,note_on,84,0,120
1,note_on,89,72,0
1,note_on,89,0,120
1,note_on,92,76,0
1,note_on,92,0,120
1,note_on,96,79,0
1,note_on,96,0,120
1,note_on,92,78,0
1,note_on,92,0,120
1,note_on,91,77,0
1,note_on,91,0,120
1,note_on,88,76,0
1,note_on,88,0,120
1,note_on,89,79,0
1,note_on,89,0,120
1,note_on,84,75,0
1,note_on,84,0,120
1,note_on,89,77,0
1,note_on,89,0,120
1,note_on,92,80,0
1,note_on,92,0,120
1,note_on,96,80,0
1,note_on,96,0,120
1,note_on,92,79,0
1,note_on,92,0,120
1,note_on,91,77,0
1,note_on,91,0,120
1,note_on,88,77,0
1,note_on,88,0,120
1,note_on,89,89,0
1,note_on,89,0,120
1,note_on,84,82,0
1,note_on,84,0,120
1,note_on,89,85,0
1,note_on,89,0,120
1,note_on,92,88,0
1,note_on,92,0,120
1,note_on,96,84,0
1,note_on,96,0,120
1,note_on,92,82,0
1,note_on,92,0,120
1,note_on,91,82,0
1,note_on,91,0,120
1,note_on,88,80,0
1,note_on,88,0,120
1,note_on,96,89,0
1,note_on,96,0,120
1,note_on,92,75,0
1,note_on,92,0,120
1,note_on,91,79,0
1,note_on,91,0,120
1,note_on,88,84,0
1,note_on,88,0,120
1,note_on,96,90,0
1,note_on,96,0,120
1,note_on,92,89,0
1,note_on,92,0,120
1,note_on,91,87,0
1,note_on,91,0,120
1,note_on,88,89,0
1,note_on,88,0,120
1,note_on,96,93,0
1,note_on,96,0,120
1,note_on,92,79,0
1,note_on,92,0,120
1,note_on,89,80,0
1,note_on,89,0,120
1,note_on,84,80,0
1,note_on,84,0,120
1,note_on,92,93,0
1,note_on,92,0,120
1,note_on,89,82,0
1,note_on,89,0,120
1,note_on,84,82,0
1,note_on,84,0,120
1,note_on,80,82,0
1,note_on,80,0,120
1,note_on,89,93,0
1,note_on,89,0,120
1,note_on,84,81,0
1,note_on,84,0,120
1,note_on,80,81,0
1,note_on,80,0,120
1,note_on,77,82,0
1,note_on,77,0,120
1,note_on,84,93,0
1,note_on,84,0,120
1,note_on,80,81,0
1,note_on,80,0,120
1,note_on,77,81,0
1,note_on,77,0,120
1,note_on,72,81,0
1,note_on,72,0,120
1,note_on,80,93,0
1,note_on,80,0,120
1,note_on,77,80,0
1,note_on,77,0,120
1,note_on,72,80,0
1,note_on,72,0,120
1,note_on,68,80,0
1,note_on,68,0,120
1,note_on,77,93,0
1,note_on,77,0,120
1,note_on,72,82,0
1,note_on,72,0,120
1,note_on,68,81,0
1,note_on,68,0,120
1,note_on,65,81,0
1,note_on,65,0,120
1,note_on,72,93,0
1,note_on,72,0,120
1,note_on,68,80,0
1,note_on,68,0,120
1,note_on,65,80,0
1,note_on,65,0,120
1,note_on,60,80,0
1,note_on,60,0,120
1,note_on,68,93,0
1,note_on,68,0,120
1,note_on,65,80,0
1,note_on,65,0,120
1,note_on,60,81,0
1,note_on,60,0,120
1,note_on,56,81,0
1,note_on,56,0,120
1,note_on,65,93,0
1,note_on,65,0,120
1,note_on,60,81,0
1,note_on,60,0,120
1,note_on,56,81,0
1,note_on,56,0,120
1,note_on,53,81,0
1,note_on,53,0,120
1,note_on,60,93,0
1,note_on,60,0,120
1,note_on,56,81,0
1,note_on,56,0,120
1,note_on,53,81,0
1,note_on,53,0,120
1,note_on,48,81,0
1,note_on,48,0,120
1,note_on,56,93,0
1,note_on,56,0,120
1,note_on,53,81,0
1,note_on,53,0,120
1,note_on,48,81,0
1,note_on,48,0,120
1,note_on,44,81,0
1,note_on,44,0,120
1,note_on,53,93,0
1,note_on,53,0,120
1,note_on,48,85,0
1,note_on,48,0,120
1,note_on,44,80,0
1,note_on,44,0,120
1,note_on,48,80,0
1,note_on,48,0,120
1,note_on,41,90,0
1,note_on,44,90,0
1,note_on,48,90,0
1,note_on,53,106,0
1,note_on,53,0,240
1,note_on,41,0,0
1,note_on,44,0,0
1,note_on,48,0,0
1,note_on,65,94,720
1,note_on,68,94,0
1,note_on,72,94,0
1,note_on,77,111,0
1,note_on,77,0,240
1,note_on,65,0,0
1,note_on,68,0,0
1,note_on,72,0,0
1,note_on,53,94,720
1,note_on,56,94,0
1,note_on,60,94,0
1,note_on,65,111,0
1,note_on,65,0,240
1,note_on,53,0,0
1,note_on,56,0,0
1,note_on,60,0,0
2,note_on,46,71,0
2,note_on,55,84,0
2,note_on,55,0,713
2,note_on,46,0,0
2,note_on,55,77,7
2,note_on,46,65,0
2,note_on,46,0,238
2,note_on,55,0,0
2,note_on,46,71,2
2,note_on,55,84,0
2,note_on,55,0,713
2,note_on,46,0,0
2,note_on,55,76,7
2,note_on,46,65,0
2,note_on,46,0,238
2,note_on,55,0,0
2,note_on,46,71,2
2,note_on,55,84,0
2,note_on,55,0,357
2,note_on,46,0,0
2,note_on,55,77,3
2,note_on,46,65,0
2,note_on,46,0,119
2,note_on,55,0,0
2,note_on,46,71,1
2,note_on,55,84,0
2,note_on,55,0,357
2,note_on,46,0,0
2,note_on,46,65,3
2,note_on,55,76,0
2,note_on,55,0,119
2,note_on,46,0,0
2,note_on,55,84,1
2,note_on,46,71,0
2,note_on,46,0,357
2,note_on,55,0,0
2,note_on,46,64,3
2,note_on,55,75,0
2,note_on,55,0,119
2,note_on,46,0,0
2,note_on,55,84,1
2,note_on,46,71,0
2,note_on,46,0,357
2,note_on,55,0,0
2,note_on,46,64,3
2,note_on,55,75,0
2,note_on,55,0,119
2,note_on,46,0,0
2,note_on,55,84,1
2,note_on,46,71,0
2,note_on,46,0,480
2,note_on,55,0,0
2,note_on,36,60,7680
2,note_on,37,60,120
2,note_on,36,0,10
2,note_on,36,60,110
2,note_on,37,0,10
2,note_on,35,60,110
2,note_on,36,0,10
2,note_on,36,60,110
2,note_on,35,0,10
2,note_on,37,60,110
2,note_on,36,0,10
2,note_on,36,60,110
2,note_on,37,0,10
2,note_on,35,60,110
2,note_on,36,0,10
2,note_on,36,60,110
2,note_on,35,0,10
2,note_on,37,60,110
2,note_on,36,0,10
2,note_on,36,60,110
2,note_on,37,0,10
2,note_on,35,60,110
2,note_on,36,0,10
2,note_on,36,60,110
2,note_on,35,0,10
2,note_on,37,60,110
2,note_on,36,0,10
2,note_on,36,60,110
2,note_on,37,0,10
2,note_on,35,60,110
2,note_on,36,0,10
2,note_on,36,60,110
2,note_on,35,0,10
2,note_on,37,60,110
2,note_on,36,0,10
2,note_on,36,60,110
2,note_on,37,0,10
2,note_on,35,60,110
2,note_on,36,0,10
2,note_on,34,57,110
2,note_on,35,0,10
2,note_on,36,57,110
2,note_on,34,0,10
2,note_on,34,57,110
2,note_on,36,0,10
2,note_on,33,57,110
2,note_on,34,0,10
2,note_on,34,57,110
2,note_on,33,0,10
2,note_on,36,57,110
2,note_on,34,0,10
2,note_on,34,57,110
2,note_on,36,0,10
2,note_on,33,57,110
2,note_on,34,0,10
2,note_on,34,57,110
2,note_on,33,0,10
2,note_on,36,56,110
2,note_on,34,0,10
2,note_on,34,56,110
2,note_on,36,0,10
2,note_on,33,56,110
2,note_on,34,0,10
2,note_on,34,55,110
2,note_on,33,0,10
2,note_on,36,55,110
2,note_on,34,0,10
2,note_on,34,55,110
2,note_on,36,0,10
2,note_on,33,55,110
2,note_on,34,0,10
2,note_on,34,55,110
2,note_on,33,0,10
2,note_on,36,54,110
2,note_on,34,0,10
2,note_on,34,53,110
2,note_on,36,0,10
2,note_on,33,52,110
2,note_on,34,0,10
2,note_on,34,51,110
2,note_on,33,0,10
2,note_on,36,50,110
2,note_on,34,0,10
2,note_on,34,49,110
2,note_on,36,0,10
2,note_on,33,48,110
2,note_on,34,0,10
2,note_on,34,47,110
2,note_on,33,0,10
2,note_on,31,46,110
2,note_on,34,0,10
2,note_on,32,45,110
2,note_on,31,0,10
2,note_on,34,44,110
2,note_on,32,0,10
2,note_on,36,43,110
2,note_on,34,0,10
2,note_on,34,42,110
2,note_on,36,0,10
2,note_on,32,41,110
2,note_on,34,0,10
2,note_on,31,40,110
2,note_on,32,0,10
2,note_on,29,39,110
2,note_on,31,0,10
2,note_on,29,0,470
2,note_on,41,35,1320
2,note_on,41,0,120
2,note_on,29,40,0
2,note_on,29,0,480
2,note_on,41,35,1320
2,note_on,41,0,120
2,note_on,34,40,0
2,note_on,34,0,480
2,note_on,37,36,1320
2,note_on,37,0,120
2,note_on,36,40,0
2,note_on,36,0,240
2,note_on,37,38,240
2,note_on,37,0,240
2,note_on,34,40,240
2,note_on,34,0,240
2,note_on,36,37,240
2,note_on,36,0,240
2,note_on,41,40,240
2,note_on,29,40,0
2,note_on,29,0,480
2,note_on,41,0,0
2,note_on,72,49,360
2,note_on,68,49,0
2,note_on,68,0,120
2,note_on,72,0,0
2,note_on,68,57,0
2,note_on,72,57,0
2,note_on,72,0,480
2,note_on,68,0,0
2,note_on,68,30,0
2,note_on,65,30,0
2,note_on,65,0,240
2,note_on,68,0,0
2,note_on,41,40,240
2,note_on,29,40,0
2,note_on,29,0,480
2,note_on,41,0,0
2,note_on,68,51,360
2,note_on,72,51,0
2,note_on,72,0,120
2,note_on,68,0,0
2,note_on,72,56,0
2,note_on,68,56,0
2,note_on,68,0,480
2,note_on,72,0,0
2,note_on,65,30,0
2,note_on,68,30,0
2,note_on,68,0,240
2,note_on,65,0,0
2,note_on,34,40,240
2,note_on,46,40,0
2,note_on,46,0,480
2,note_on,34,0,0
2,note_on,70,63,360
2,note_on,73,63,0
2,note_on,73,0,120
2,note_on,70,0,0
2,note_on,73,70,0
2,note_on,70,70,0
2,note_on,70,0,960
2,note_on,73,0,0
2,note_on,70,51,0
2,note_on,72,51,0
2,note_on,72,0,240
2,note_on,70,0,0
2,note_on,48,43,0
2,note_on,36,43,0
2,note_on,36,0,240
2,note_on,48,0,0
2,note_on,37,37,240
2,note_on,49,37,0
2,note_on,49,0,240
2,note_on,37,0,0
2,note_on,34,39,240
2,note_on,46,39,0
2,note_on,46,0,240
2,note_on,34,0,0
2,note_on,48,35,240
2,note_on,36,35,0
2,note_on,36,0,240
2,note_on,48,0,0
2,note_on,29,44,0
2,note_on,41,44,0
2,note_on,41,0,480
2,note_on,29,0,0
2,note_on,56,52,360
2,note_on,53,52,0
2,note_on,53,0,120
2,note_on,56,0,0
2,note_on,53,65,0
2,note_on,56,65,0
2,note_on,56,0,480
2,note_on,53,0,0
2,note_on,56,54,360
2,note_on,53,54,0
2,note_on,53,0,120
2,note_on,56,0,0
2,note_on,48,66,0
2,note_on,56,66,0
2,note_on,53,66,0
2,note_on,53,0,960
2,note_on,56,0,0
2,note_on,48,0,0
2,note_on,48,48,0
2,note_on,52,48,0
2,note_on,55,48,0
2,note_on,55,0,240
2,note_on,52,0,0
2,note_on,48,0,0
2,note_on,36,42,720
2,note_on,48,42,0
2,note_on,48,0,480
2,note_on,36,0,0
2,note_on,58,60,360
2,note_on,55,60,0
2,note_on,55,0,120
2,note_on,58,0,0
2,note_on,58,68,0
2,note_on,55,68,0
2,note_on,55,0,480
2,note_on,58,0,0
2,note_on,55,61,360
2,note_on,58,61,0
2,note_on,58,0,120
2,note_on,55,0,0
2,note_on,53,58,0
2,note_on,58,69,0
2,note_on,55,58,0
2,note_on,55,0,960
2,note_on,58,0,0
2,note_on,53,0,0
2,note_on,56,52,0
2,note_on,53,47,0
2,note_on,53,0,240
2,note_on,56,0,0
2,note_on,41,45,720
2,note_on,53,45,0
2,note_on,53,0,480
2,note_on,41,0,0
2,note_on,60,59,360
2,note_on,63,59,0
2,note_on,63,0,120
2,note_on,60,0,0
2,note_on,60,68,0
2,note_on,63,68,0
2,note_on,63,0,480
2,note_on,60,0,0
2,note_on,63,66,360
2,note_on,60,66,0
2,note_on,60,0,120
2,note_on,63,0,0
2,note_on,60,72,0
2,note_on,63,72,0
2,note_on,58,72,0
2,note_on,58,0,1200
2,note_on,63,0,0
2,note_on,60,0,0
2,note_on,58,64,0
2,note_on,61,64,0
2,note_on,61,0,240
2,note_on,58,0,0
2,note_on,60,61,0
2,note_on,56,61,0
2,note_on,56,0,240
2,note_on,60,0,0
2,note_on,55,59,0
2,note_on,58,59,0
2,note_on,58,0,240
2,note_on,55,0,0
2,note_on,53,56,0
2,note_on,56,56,0
2,note_on,48,56,0
2,note_on,48,0,480
2,note_on,56,0,0
2,note_on,53,0,0
2,note_on,56,56,360
2,note_on,53,56,0
2,note_on,53,0,120
2,note_on,56,0,0
2,note_on,55,63,0
2,note_on,58,63,0
2,note_on,48,63,0
2,note_on,48,0,480
2,note_on,58,0,0
2,note_on,55,0,0
2,note_on,55,53,360
2,note_on,52,53,0
2,note_on,52,0,120
2,note_on,55,0,0
2,note_on,53,56,0
2,note_on,53,0,120
2,note_on,60,49,0
2,note_on,60,0,120
2,note_on,56,49,0
2,note_on,56,0,120
2,note_on,53,49,0
2,note_on,53,0,120
2,note_on,48,53,0
2,note_on,48,0,120
2,note_on,56,49,0
2,note_on,56,0,120
2,note_on,53,49,0
2,note_on,53,0,120
2,note_on,48,49,0
2,note_on,48,0,120
2,note_on,44,53,0
2,note_on,44,0,120
2,note_on,53,49,0
2,note_on,53,0,120
2,note_on,48,49,0
2,note_on,48,0,120
2,note_on,44,49,0
2,note_on,44,0,120
2,note_on,41,53,0
2,note_on,41,0,120
2,note_on,48,49,0
2,note_on,48,0,120
2,note_on,44,49,0
2,note_on,44,0,120
2,note_on,41,49,0
2,note_on,41,0,120
2,note_on,36,53,0
2,note_on,36,0,120
2,note_on,41,49,0
2,note_on,41,0,120
2,note_on,44,49,0
2,note_on,44,0,120
2,note_on,48,49,0
2,note_on,48,0,120
2,note_on,47,53,0
2,note_on,47,0,120
2,note_on,48,49,0
2,note_on,48,0,120
2,note_on,47,49,0
2,note_on,47,0,120
2,note_on,48,49,0
2,note_on,48,0,120
2,note_on,47,53,0
2,note_on,47,0,120
2,note_on,48,49,0
2,note_on,48,0,120
2,note_on,43,49,0
2,note_on,43,0,120
2,note_on,48,49,0
2,note_on,48,0,120
2,note_on,40,53,0
2,note_on,40,0,120
2,note_on,48,49,0
2,note_on,48,0,120
2,note_on,43,49,0
2,note_on,43,0,120
2,note_on,48,49,0
2,note_on,48,0,120
2,note_on,36,56,0
2,note_on,36,0,120
2,note_on,40,49,0
2,note_on,40,0,120
2,note_on,43,49,0
2,note_on,43,0,120
2,note_on,48,49,0
2,note_on,48,0,120
2,note_on,40,53,0
2,note_on,40,0,120
2,note_on,43,49,0
2,note_on,43,0,120
2,note_on,48,49,0
2,note_on,48,0,120
2,note_on,52,49,0
2,note_on,52,0,120
2,note_on,43,53,0
2,note_on,43,0,120
2,note_on,48,49,0
2,note_on,48,0,120
2,note_on,52,49,0
2,note_on,52,0,120
2,note_on,55,49,0
2,note_on,55,0,120
2,note_on,48,53,0
2,note_on,48,0,120
2,note_on,52,49,0
2,note_on,52,0,120
2,note_on,55,49,0
2,note_on,55,0,120
2,note_on,60,49,0
2,note_on,60,0,120
2,note_on,53,59,0
2,note_on,53,0,120
2,note_on,56,49,0
2,note_on,56,0,120
2,note_on,60,49,0
2,note_on,60,0,120
2,note_on,65,49,0
2,note_on,65,0,120
2,note_on,64,53,0
2,note_on,64,0,120
2,note_on,65,49,0
2,note_on,65,0,120
2,note_on,64,49,0
2,note_on,64,0,120
2,note_on,65,49,0
2,note_on,65,0,120
2,note_on,64,53,0
2,note_on,64,0,120
2,note_on,65,49,0
2,note_on,65,0,120
2,note_on,60,49,0
2,note_on,60,0,120
2,note_on,65,49,0
2,note_on,65,0,120
2,note_on,56,53,0
2,note_on,56,0,120
2,note_on,65,49,0
2,note_on,65,0,120
2,note_on,60,49,0
2,note_on,60,0,120
2,note_on,65,49,0
2,note_on,65,0,120
2,note_on,53,61,0
2,note_on,53,0,120
2,note_on,57,53,0
2,note_on,57,0,120
2,note_on,60,53,0
2,note_on,60,0,120
2,note_on,65,53,0
2,note_on,65,0,120
2,note_on,57,58,0
2,note_on,57,0,120
2,note_on,60,53,0
2,note_on,60,0,120
2,note_on,65,53,0
2,note_on,65,0,120
2,note_on,69,53,0
2,note_on,69,0,120
2,note_on,60,58,0
2,note_on,60,0,56
2,note_on,65,53,0
2,note_on,65,0,120
2,note_on,69,53,0
2,note_on,69,0,120
2,note_on,72,53,0
2,note_on,72,0,120
2,note_on,65,58,0
2,note_on,65,0,120
2,note_on,69,53,0
2,note_on,69,0,120
2,note_on,72,53,0
2,note_on,72,0,120
2,note_on,77,53,0
2,note_on,77,0,120
2,note_on,69,67,0
2,note_on,69,0,120
2,note_on,77,53,0
2,note_on,77,0,120
2,note_on,76,53,0
2,note_on,76,0,120
2,note_on,77,53,0
2,note_on,77,0,120
2,note_on,69,58,0
2,note_on,69,0,120
2,note_on,77,53,0
2,note_on,77,0,120
2,note_on,69,53,0
2,note_on,69,0,120
2,note_on,77,53,0
2,note_on,77,0,120
2,note_on,69,57,0
2,note_on,69,0,120
2,note_on,77,56,0
2,note_on,77,0,120
2,note_on,70,56,0
2,note_on,70,0,120
2,note_on,77,55,0
2,note_on,77,0,120
2,note_on,72,54,0
2,note_on,72,0,120
2,note_on,77,53,0
2,note_on,77,0,120
2,note_on,73,52,0
2,note_on,73,0,120
2,note_on,77,52,0
2,note_on,77,0,120
2,note_on,60,52,0
2,note_on,60,0,120
2,note_on,65,47,0
2,note_on,65,0,120
2,note_on,68,47,0
2,note_on,68,0,120
2,note_on,72,47,0
2,note_on,72,0,120
2,note_on,71,52,0
2,note_on,71,0,120
2,note_on,72,47,0
2,note_on,72,0,120
2,note_on,71,47,0
2,note_on,71,0,120
2,note_on,72,47,0
2,note_on,72,0,120
2,note_on,60,52,0
2,note_on,60,0,120
2,note_on,64,47,0
2,note_on,64,0,120
2,note_on,67,47,0
2,note_on,67,0,120
2,note_on,72,47,0
2,note_on,72,0,120
2,note_on,60,52,0
2,note_on,60,0,120
2,note_on,67,47,0
2,note_on,67,0,120
2,note_on,70,47,0
2,note_on,70,0,120
2,note_on,72,47,0
2,note_on,72,0,120
2,note_on,53,52,0
2,note_on,53,0,120
2,note_on,65,38,0
2,note_on,68,38,0
2,note_on,68,0,120
2,note_on,65,0,0
2,note_on,60,39,0
2,note_on,72,39,0
2,note_on,72,0,120
2,note_on,60,0,0
2,note_on,68,41,0
2,note_on,65,41,0
2,note_on,65,0,120
2,note_on,68,0,0
2,note_on,72,45,0
2,note_on,60,45,0
2,note_on,60,0,120
2,note_on,72,0,0
2,note_on,68,44,0
2,note_on,65,44,0
2,note_on,65,0,120
2,note_on,68,0,0
2,note_on,72,45,0
2,note_on,60,45,0
2,note_on,60,0,120
2,note_on,72,0,0
2,note_on,68,45,0
2,note_on,65,45,0
2,note_on,65,0,120
2,note_on,68,0,0
2,note_on,72,46,0
2,note_on,60,46,0
2,note_on,60,0,120
2,note_on,72,0,0
2,note_on,68,46,0
2,note_on,65,46,0
2,note_on,65,0,120
2,note_on,68,0,0
2,note_on,72,45,0
2,note_on,60,45,0
2,note_on,60,0,120
2,note_on,72,0,0
2,note_on,68,45,0
2,note_on,65,45,0
2,note_on,65,0,120
2,note_on,68,0,0
2,note_on,72,45,0
2,note_on,60,45,0
2,note_on,60,0,120
2,note_on,72,0,0
2,note_on,68,44,0
2,note_on,65,44,0
2,note_on,65,0,120
2,note_on,68,0,0
2,note_on,72,44,0
2,note_on,60,44,0
2,note_on,60,0,120
2,note_on,72,0,0
2,note_on,68,43,0
2,note_on,65,43,0
2,note_on,65,0,120
2,note_on,68,0,0
2,note_on,53,54,0
2,note_on,53,0,120
2,note_on,68,38,0
2,note_on,65,38,0
2,note_on,65,0,120
2,note_on,68,0,0
2,note_on,72,39,0
2,note_on,60,39,0
2,note_on,60,0,120
2,note_on,72,0,0
2,note_on,68,41,0
2,note_on,65,41,0
2,note_on,65,0,120
2,note_on,68,0,0
2,note_on,72,45,0
2,note_on,60,45,0
2,note_on,60,0,120
2,note_on,72,0,0
2,note_on,68,44,0
2,note_on,65,44,0
2,note_on,65,0,120
2,note_on,68,0,0
2,note_on,60,45,0
2,note_on,72,45,0
2,note_on,72,0,120
2,note_on,60,0,0
2,note_on,65,45,0
2,note_on,68,45,0
2,note_on,68,0,120
2,note_on,65,0,0
2,note_on,72,46,0
2,note_on,60,46,0
2,note_on,60,0,120
2,note_on,72,0,0
2,note_on,68,46,0
2,note_on,65,46,0
2,note_on,65,0,120
2,note_on,68,0,0
2,note_on,72,45,0
2,note_on,60,45,0
2,note_on,60,0,120
2,note_on,72,0,0
2,note_on,68,45,0
2,note_on,65,45,0
2,note_on,65,0,120
2,note_on,68,0,0
2,note_on,72,45,0
2,note_on,60,45,0
2,note_on,60,0,120
2,note_on,72,0,0
2,note_on,68,44,0
2,note_on,65,44,0
2,note_on,65,0,120
2,note_on,68,0,0
2,note_on,72,44,0
2,note_on,60,44,0
2,note_on,60,0,120
2,note_on,72,0,0
2,note_on,68,43,0
2,note_on,65,43,0
2,note_on,65,0,120
2,note_on,68,0,0
2,note_on,43,55,0
2,note_on,43,0,120
2,note_on,55,40,0
2,note_on,53,40,0
2,note_on,53,0,120
2,note_on,55,0,0
2,note_on,59,41,0
2,note_on,50,41,0
2,note_on,50,0,120
2,note_on,59,0,0
2,note_on,55,43,0
2,note_on,53,43,0
2,note_on,53,0,120
2,note_on,55,0,0
2,note_on,59,47,0
2,note_on,50,47,0
2,note_on,50,0,120
2,note_on,59,0,0
2,note_on,55,46,0
2,note_on,53,46,0
2,note_on,53,0,120
2,note_on,55,0,0
2,note_on,50,47,0
2,note_on,59,47,0
2,note_on,59,0,120
2,note_on,50,0,0
2,note_on,53,48,0
2,note_on,55,48,0
2,note_on,55,0,120
2,note_on,53,0,0
2,note_on,50,49,0
2,note_on,59,49,0
2,note_on,59,0,120
2,note_on,50,0,0
2,note_on,56,49,0
2,note_on,53,49,0
2,note_on,53,0,120
2,note_on,56,0,0
2,note_on,59,48,0
2,note_on,50,48,0
2,note_on,50,0,120
2,note_on,59,0,0
2,note_on,56,47,0
2,note_on,53,47,0
2,note_on,53,0,120
2,note_on,56,0,0
2,note_on,50,47,0
2,note_on,59,47,0
2,note_on,59,0,120
2,note_on,50,0,0
2,note_on,53,46,0
2,note_on,55,46,0
2,note_on,55,0,120
2,note_on,53,0,0
2,note_on,50,46,0
2,note_on,59,46,0
2,note_on,59,0,120
2,note_on,50,0,0
2,note_on,53,45,0
2,note_on,55,45,0
2,note_on,55,0,120
2,note_on,53,0,0
2,note_on,43,54,0
2,note_on,43,0,120
2,note_on,53,40,0
2,note_on,55,40,0
2,note_on,55,0,120
2,note_on,53,0,0
2,note_on,50,41,0
2,note_on,59,41,0
2,note_on,59,0,120
2,note_on,50,0,0
2,note_on,53,43,0
2,note_on,55,43,0
2,note_on,55,0,120
2,note_on,53,0,0
2,note_on,50,47,0
2,note_on,59,47,0
2,note_on,59,0,120
2,note_on,50,0,0
2,note_on,53,46,0
2,note_on,55,46,0
2,note_on,55,0,120
2,note_on,53,0,0
2,note_on,50,47,0
2,note_on,59,47,0
2,note_on,59,0,120
2,note_on,50,0,0
2,note_on,55,48,0
2,note_on,53,48,0
2,note_on,53,0,120
2,note_on,55,0,0
2,note_on,59,49,0
2,note_on,50,49,0
2,note_on,50,0,120
2,note_on,59,0,0
2,note_on,53,49,0
2,note_on,56,49,0
2,note_on,56,0,120
2,note_on,53,0,0
2,note_on,50,48,0
2,note_on,59,48,0
2,note_on,59,0,120
2,note_on,50,0,0
2,note_on,53,47,0
2,note_on,56,47,0
2,note_on,56,0,120
2,note_on,53,0,0
2,note_on,50,47,0
2,note_on,59,47,0
2,note_on,59,0,120
2,note_on,50,0,0
2,note_on,55,46,0
2,note_on,53,46,0
2,note_on,53,0,120
2,note_on,55,0,0
2,note_on,59,46,0
2,note_on,50,46,0
2,note_on,50,0,120
2,note_on,59,0,0
2,note_on,55,45,0
2,note_on,53,45,0
2,note_on,53,0,120
2,note_on,55,0,0
2,note_on,48,56,0
2,note_on,48,0,120
2,note_on,60,42,0
2,note_on,63,42,0
2,note_on,63,0,120
2,note_on,60,0,0
2,note_on,55,43,0
2,note_on,67,43,0
2,note_on,67,0,120
2,note_on,55,0,0
2,note_on,63,45,0
2,note_on,60,45,0
2,note_on,60,0,120
2,note_on,63,0,0
2,note_on,67,49,0
2,note_on,55,49,0
2,note_on,55,0,120
2,note_on,67,0,0
2,note_on,63,48,0
2,note_on,60,48,0
2,note_on,60,0,120
2,note_on,63,0,0
2,note_on,67,49,0
2,note_on,55,49,0
2,note_on,55,0,120
2,note_on,67,0,0
2,note_on,63,50,0
2,note_on,60,50,0
2,note_on,60,0,120
2,note_on,63,0,0
2,note_on,67,51,0
2,note_on,55,51,0
2,note_on,55,0,120
2,note_on,67,0,0
2,note_on,63,51,0
2,note_on,60,51,0
2,note_on,60,0,120
2,note_on,63,0,0
2,note_on,67,50,0
2,note_on,55,50,0
2,note_on,55,0,120
2,note_on,67,0,0
2,note_on,60,49,0
2,note_on,63,49,0
2,note_on,63,0,120
2,note_on,60,0,0
2,note_on,55,49,0
2,note_on,67,49,0
2,note_on,67,0,120
2,note_on,55,0,0
2,note_on,63,48,0
2,note_on,60,48,0
2,note_on,60,0,120
2,note_on,63,0,0
2,note_on,67,48,0
2,note_on,55,48,0
2,note_on,55,0,120
2,note_on,67,0,0
2,note_on,63,47,0
2,note_on,60,47,0
2,note_on,60,0,120
2,note_on,63,0,0
2,note_on,48,56,0
2,note_on,48,0,240
2,note_on,67,43,0
2,note_on,67,0,120
2,note_on,63,45,0
2,note_on,63,0,120
2,note_on,72,49,0
2,note_on,72,0,120
2,note_on,67,49,0
2,note_on,67,0,120
2,note_on,72,50,0
2,note_on,72,0,120
2,note_on,67,52,0
2,note_on,67,0,120
2,note_on,75,53,0
2,note_on,75,0,120
2,note_on,72,53,0
2,note_on,72,0,120
2,note_on,75,53,0
2,note_on,75,0,120
2,note_on,72,51,0
2,note_on,72,0,120
2,note_on,79,52,0
2,note_on,79,0,120
2,note_on,75,51,0
2,note_on,75,0,120
2,note_on,79,51,0
2,note_on,79,0,120
2,note_on,75,51,0
2,note_on,75,0,120
2,note_on,77,80,0
2,note_on,80,80,0
2,note_on,80,0,720
2,note_on,77,0,0
2,note_on,79,66,0
2,note_on,75,66,0
2,note_on,75,0,240
2,note_on,79,0,0
2,note_on,74,68,0
2,note_on,77,68,0
2,note_on,77,0,480
2,note_on,74,0,0
2,note_on,75,64,0
2,note_on,79,64,0
2,note_on,79,0,480
2,note_on,75,0,0
2,note_on,80,80,0
2,note_on,77,80,0
2,note_on,77,0,720
2,note_on,80,0,0
2,note_on,79,66,0
2,note_on,75,66,0
2,note_on,75,0,240
2,note_on,79,0,0
2,note_on,77,68,0
2,note_on,74,68,0
2,note_on,74,0,480
2,note_on,77,0,0
2,note_on,79,64,0
2,note_on,75,64,0
2,note_on,75,0,480
2,note_on,79,0,0
2,note_on,77,80,0
2,note_on,80,80,0
2,note_on,80,0,720
2,note_on,77,0,0
2,note_on,79,66,0
2,note_on,75,66,0
2,note_on,75,0,240
2,note_on,79,0,0
2,note_on,74,68,0
2,note_on,77,68,0
2,note_on,77,0,480
2,note_on,74,0,0
2,note_on,72,65,0
2,note_on,75,65,0
2,note_on,75,0,480
2,note_on,72,0,0
2,note_on,71,70,0
2,note_on,74,70,0
2,note_on,74,0,480
2,note_on,71,0,0
2,note_on,72,70,0
2,note_on,69,70,0
2,note_on,69,0,480
2,note_on,72,0,0
2,note_on,72,75,0
2,note_on,68,75,0
2,note_on,68,0,480
2,note_on,72,0,0
2,note_on,72,75,0
2,note_on,67,75,0
2,note_on,67,0,480
2,note_on,72,0,0
2,note_on,66,76,0
2,note_on,68,75,480
2,note_on,68,0,480
2,note_on,66,0,0
2,note_on,55,72,0
2,note_on,63,72,0
2,note_on,67,72,0
2,note_on,63,0,480
2,note_on,62,68,0
2,note_on,62,0,480
2,note_on,67,0,0
2,note_on,55,0,0
2,note_on,53,61,0
2,note_on,61,72,0
2,note_on,56,61,0
2,note_on,56,0,720
2,note_on,61,0,0
2,note_on,53,0,0
2,note_on,55,50,0
2,note_on,60,59,0
2,note_on,51,50,0
2,note_on,51,0,240
2,note_on,60,0,0
2,note_on,55,0,0
2,note_on,50,51,0
2,note_on,53,54,0
2,note_on,59,64,0
2,note_on,59,0,480
2,note_on,53,0,0
2,note_on,50,0,0
2,note_on,55,48,0
2,note_on,60,57,0
2,note_on,51,48,0
2,note_on,51,0,480
2,note_on,60,0,0
2,note_on,55,0,0
2,note_on,53,61,0
2,note_on,61,72,0
2,note_on,56,61,0
2,note_on,56,0,720
2,note_on,61,0,0
2,note_on,53,0,0
2,note_on,55,50,0
2,note_on,60,59,0
2,note_on,51,50,0
2,note_on,51,0,240
2,note_on,60,0,0
2,note_on,55,0,0
2,note_on,50,51,0
2,note_on,59,61,0
2,note_on,53,51,0
2,note_on,53,0,480
2,note_on,59,0,0
2,note_on,50,0,0
2,note_on,51,48,0
2,note_on,55,48,0
2,note_on,60,57,0
2,note_on,60,0,480
2,note_on,55,0,0
2,note_on,51,0,0
2,note_on,61,72,0
2,note_on,56,61,0
2,note_on,53,61,0
2,note_on,53,0,720
2,note_on,56,0,0
2,note_on,61,0,0
2,note_on,60,59,0
2,note_on,51,50,0
2,note_on,55,50,0
2,note_on,55,0,240
2,note_on,51,0,0
2,note_on,60,0,0
2,note_on,50,51,0
2,note_on,59,61,0
2,note_on,53,51,0
2,note_on,53,0,480
2,note_on,59,0,0
2,note_on,50,0,0
2,note_on,56,58,0
2,note_on,51,49,0
2,note_on,48,49,0
2,note_on,48,0,480
2,note_on,51,0,0
2,note_on,56,0,0
2,note_on,55,63,0
2,note_on,47,53,0
2,note_on,50,63,0
2,note_on,50,0,480
2,note_on,47,0,0
2,note_on,55,0,0
2,note_on,54,63,0
2,note_on,51,63,0
2,note_on,48,53,0
2,note_on,45,53,0
2,note_on,45,0,480
2,note_on,54,0,0
2,note_on,51,0,0
2,note_on,48,0,0
2,note_on,50,56,0
2,note_on,47,56,0
2,note_on,53,67,0
2,note_on,53,0,480
2,note_on,47,0,0
2,note_on,50,0,0
2,note_on,51,67,0
2,note_on,48,56,0
2,note_on,48,0,480
2,note_on,51,0,0
2,note_on,42,56,0
2,note_on,51,66,0
2,note_on,45,56,0
2,note_on,51,0,480
2,note_on,50,64,0
2,note_on,50,0,480
2,note_on,45,0,0
2,note_on,42,0,0
2,note_on,48,61,0
2,note_on,43,61,0
2,note_on,48,0,480
2,note_on,47,59,0
2,note_on,47,0,480
2,note_on,43,0,0
2,note_on,36,59,0
2,note_on,43,59,0
2,note_on,48,70,0
2,note_on,39,59,0
2,note_on,39,0,240
2,note_on,36,0,0
2,note_on,43,0,0
2,note_on,48,0,0
2,note_on,55,59,360
2,note_on,55,0,120
2,note_on,60,62,0
2,note_on,60,0,120
2,note_on,63,64,0
2,note_on,63,0,120
2,note_on,67,70,0
2,note_on,67,0,120
2,note_on,68,64,0
2,note_on,68,0,120
2,note_on,67,64,0
2,note_on,67,0,120
2,note_on,65,64,0
2,note_on,65,0,120
2,note_on,63,70,0
2,note_on,63,0,120
2,note_on,62,63,0
2,note_on,62,0,120
2,note_on,60,63,0
2,note_on,60,0,120
2,note_on,58,63,0
2,note_on,58,0,120
2,note_on,56,67,0
2,note_on,56,0,120
2,note_on,55,60,0
2,note_on,55,0,120
2,note_on,53,60,0
2,note_on,53,0,120
2,note_on,51,60,0
2,note_on,51,0,120
2,note_on,50,71,0
2,note_on,50,0,120
2,note_on,51,65,0
2,note_on,51,0,120
2,note_on,53,73,0
2,note_on,53,0,120
2,note_on,51,69,0
2,note_on,51,0,120
2,note_on,50,73,0
2,note_on,50,0,120
2,note_on,48,73,0
2,note_on,48,0,120
2,note_on,47,72,0
2,note_on,47,0,120
2,note_on,44,72,0
2,note_on,44,0,120
2,note_on,43,71,0
2,note_on,43,0,120
2,note_on,41,71,0
2,note_on,41,0,120
2,note_on,39,70,0
2,note_on,39,0,120
2,note_on,38,70,0
2,note_on,38,0,120
2,note_on,36,70,0
2,note_on,43,70,0
2,note_on,48,70,0
2,note_on,39,70,0
2,note_on,39,0,240
2,note_on,36,0,0
2,note_on,43,0,0
2,note_on,48,0,0
2,note_on,67,59,360
2,note_on,67,0,120
2,note_on,72,62,0
2,note_on,72,0,120
2,note_on,75,64,0
2,note_on,75,0,120
2,note_on,79,70,0
2,note_on,79,0,120
2,note_on,80,64,0
2,note_on,80,0,120
2,note_on,79,64,0
2,note_on,79,0,120
2,note_on,77,64,0
2,note_on,77,0,120
2,note_on,75,70,0
2,note_on,75,0,120
2,note_on,74,63,0
2,note_on,74,0,120
2,note_on,72,63,0
2,note_on,72,0,120
2,note_on,70,63,0
2,note_on,70,0,120
2,note_on,68,67,0
2,note_on,68,0,120
2,note_on,67,60,0
2,note_on,67,0,120
2,note_on,65,60,0
2,note_on,65,0,120
2,note_on,63,60,0
2,note_on,63,0,120
2,note_on,62,71,0
2,note_on,62,0,120
2,note_on,63,65,0
2,note_on,63,0,120
2,note_on,65,73,0
2,note_on,65,0,120
2,note_on,63,69,0
2,note_on,63,0,120
2,note_on,62,73,0
2,note_on,62,0,120
2,note_on,60,73,0
2,note_on,60,0,120
2,note_on,59,72,0
2,note_on,59,0,120
2,note_on,56,72,0
2,note_on,56,0,120
2,note_on,55,71,0
2,note_on,55,0,120
2,note_on,53,71,0
2,note_on,53,0,120
2,note_on,51,70,0
2,note_on,51,0,120
2,note_on,50,70,0
2,note_on,50,0,120
2,note_on,48,67,0
2,note_on,48,0,120
2,note_on,50,60,0
2,note_on,50,0,120
2,note_on,51,60,0
2,note_on,51,0,120
2,note_on,53,60,0
2,note_on,53,0,120
2,note_on,55,71,0
2,note_on,55,0,120
2,note_on,57,65,0
2,note_on,57,0,120
2,note_on,59,73,0
2,note_on,59,0,120
2,note_on,60,69,0
2,note_on,60,0,120
2,note_on,62,73,0
2,note_on,62,0,120
2,note_on,60,73,0
2,note_on,60,0,120
2,note_on,59,72,0
2,note_on,59,0,120
2,note_on,56,72,0
2,note_on,56,0,120
2,note_on,55,71,0
2,note_on,55,0,120
2,note_on,53,71,0
2,note_on,53,0,120
2,note_on,51,70,0
2,note_on,51,0,120
2,note_on,50,70,0
2,note_on,50,0,120
2,note_on,48,67,0
2,note_on,48,0,120
2,note_on,50,60,0
2,note_on,50,0,120
2,note_on,51,60,0
2,note_on,51,0,120
2,note_on,53,60,0
2,note_on,53,0,120
2,note_on,55,71,0
2,note_on,55,0,120
2,note_on,57,65,0
2,note_on,57,0,120
2,note_on,59,73,0
2,note_on,59,0,120
2,note_on,60,69,0
2,note_on,60,0,120
2,note_on,62,73,0
2,note_on,62,0,120
2,note_on,60,73,0
2,note_on,60,0,120
2,note_on,59,72,0
2,note_on,59,0,120
2,note_on,56,72,0
2,note_on,56,0,120
2,note_on,55,71,0
2,note_on,55,0,120
2,note_on,53,71,0
2,note_on,53,0,120
2,note_on,51,70,0
2,note_on,51,0,120
2,note_on,50,70,0
2,note_on,50,0,120
2,note_on,48,67,0
2,note_on,48,0,120
2,note_on,50,60,0
2,note_on,50,0,120
2,note_on,51,60,0
2,note_on,51,0,120
2,note_on,53,60,0
2,note_on,53,0,120
2,note_on,55,71,0
2,note_on,55,0,120
2,note_on,57,65,0
2,note_on,57,0,120
2,note_on,59,73,0
2,note_on,59,0,120
2,note_on,60,69,0
2,note_on,60,0,120
2,note_on,58,73,0
2,note_on,58,0,120
2,note_on,56,73,0
2,note_on,56,0,120
2,note_on,55,72,0
2,note_on,55,0,120
2,note_on,53,72,0
2,note_on,53,0,120
2,note_on,52,71,0
2,note_on,52,0,120
2,note_on,50,71,0
2,note_on,50,0,120
2,note_on,48,70,0
2,note_on,48,0,120
2,note_on,46,70,0
2,note_on,46,0,120
2,note_on,44,67,0
2,note_on,44,0,120
2,note_on,46,60,0
2,note_on,46,0,120
2,note_on,48,60,0
2,note_on,48,0,120
2,note_on,50,60,0
2,note_on,50,0,120
2,note_on,52,71,0
2,note_on,52,0,120
2,note_on,53,65,0
2,note_on,53,0,120
2,note_on,55,73,0
2,note_on,55,0,120
2,note_on,56,69,0
2,note_on,56,0,120
2,note_on,55,73,0
2,note_on,55,0,120
2,note_on,53,73,0
2,note_on,53,0,120
2,note_on,52,72,0
2,note_on,52,0,120
2,note_on,50,72,0
2,note_on,50,0,120
2,note_on,48,71,0
2,note_on,48,0,120
2,note_on,46,71,0
2,note_on,46,0,120
2,note_on,44,70,0
2,note_on,44,0,120
2,note_on,43,70,0
2,note_on,43,0,120
2,note_on,30,76,0
2,note_on,42,78,0
2,note_on,42,0,120
2,note_on,30,0,0
2,note_on,57,69,2640
2,note_on,57,0,120
2,note_on,54,68,0
2,note_on,54,0,120
2,note_on,51,68,0
2,note_on,51,0,120
2,note_on,48,67,0
2,note_on,48,0,120
2,note_on,45,66,0
2,note_on,45,0,120
2,note_on,42,66,0
2,note_on,42,0,120
2,note_on,39,65,0
2,note_on,39,0,120
2,note_on,36,64,0
2,note_on,36,0,120
2,note_on,33,63,0
2,note_on,33,0,120
2,note_on,30,60,0
2,note_on,30,0,120
2,note_on,33,59,0
2,note_on,33,0,120
2,note_on,36,58,0
2,note_on,36,0,120
2,note_on,39,57,0
2,note_on,39,0,120
2,note_on,30,56,0
2,note_on,30,0,120
2,note_on,33,54,0
2,note_on,33,0,120
2,note_on,36,53,0
2,note_on,36,0,120
2,note_on,39,52,0
2,note_on,39,0,120
2,note_on,30,51,0
2,note_on,30,0,120
2,note_on,33,47,0
2,note_on,33,0,120
2,note_on,36,47,0
2,note_on,36,0,120
2,note_on,39,47,0
2,note_on,39,0,120
2,note_on,30,52,0
2,note_on,30,0,120
2,note_on,33,47,0
2,note_on,33,0,120
2,note_on,36,46,0
2,note_on,36,0,120
2,note_on,39,46,0
2,note_on,39,0,120
2,note_on,29,39,0
2,note_on,29,0,480
2,note_on,41,35,1320
2,note_on,41,0,120
2,note_on,29,40,0
2,note_on,29,0,480
2,note_on,41,35,1320
2,note_on,41,0,120
2,note_on,29,40,0
2,note_on,29,0,480
2,note_on,57,38,240
2,note_on,57,0,120
2,note_on,58,42,0
2,note_on,58,0,120
2,note_on,60,49,0
2,note_on,60,0,120
2,note_on,61,42,0
2,note_on,61,0,120
2,note_on,60,43,0
2,note_on,60,0,120
2,note_on,58,43,0
2,note_on,58,0,120
2,note_on,57,47,0
2,note_on,57,0,240
2,note_on,57,41,0
2,note_on,57,0,120
2,note_on,58,46,0
2,note_on,58,0,120
2,note_on,60,53,0
2,note_on,60,0,120
2,note_on,61,42,0
2,note_on,61,0,120
2,note_on,60,43,0
2,note_on,60,0,120
2,note_on,58,43,0
2,note_on,58,0,120
2,note_on,57,47,0
2,note_on,57,0,240
2,note_on,57,43,0
2,note_on,57,0,120
2,note_on,58,47,0
2,note_on,58,0,120
2,note_on,60,52,0
2,note_on,60,0,120
2,note_on,61,42,0
2,note_on,61,0,120
2,note_on,60,43,0
2,note_on,60,0,120
2,note_on,58,43,0
2,note_on,58,0,120
2,note_on,57,44,0
2,note_on,57,0,120
2,note_on,54,42,0
2,note_on,54,0,120
2,note_on,53,41,0
2,note_on,53,0,120
2,note_on,51,39,0
2,note_on,51,0,120
2,note_on,49,44,0
2,note_on,53,32,120
2,note_on,53,0,120
2,note_on,58,33,0
2,note_on,58,0,120
2,note_on,53,34,0
2,note_on,53,0,120
2,note_on,58,38,0
2,note_on,58,0,120
2,note_on,53,37,0
2,note_on,53,0,120
2,note_on,58,38,0
2,note_on,58,0,120
2,note_on,53,38,0
2,note_on,53,0,120
2,note_on,58,39,0
2,note_on,58,0,120
2,note_on,53,39,0
2,note_on,53,0,120
2,note_on,58,38,0
2,note_on,58,0,120
2,note_on,53,38,0
2,note_on,53,0,120
2,note_on,58,38,0
2,note_on,58,0,120
2,note_on,53,37,0
2,note_on,53,0,120
2,note_on,58,37,0
2,note_on,58,0,120
2,note_on,53,36,0
2,note_on,53,0,120
2,note_on,49,0,0
2,note_on,49,44,0
2,note_on,53,32,120
2,note_on,53,0,120
2,note_on,58,33,0
2,note_on,58,0,120
2,note_on,53,34,0
2,note_on,53,0,120
2,note_on,58,38,0
2,note_on,58,0,120
2,note_on,53,37,0
2,note_on,53,0,120
2,note_on,58,38,0
2,note_on,58,0,120
2,note_on,53,38,0
2,note_on,53,0,120
2,note_on,58,39,0
2,note_on,58,0,120
2,note_on,53,39,0
2,note_on,53,0,120
2,note_on,58,38,0
2,note_on,58,0,120
2,note_on,53,38,0
2,note_on,53,0,120
2,note_on,58,38,0
2,note_on,58,0,120
2,note_on,53,37,0
2,note_on,53,0,120
2,note_on,58,37,0
2,note_on,58,0,120
2,note_on,53,36,0
2,note_on,53,0,120
2,note_on,49,0,0
2,note_on,51,44,0
2,note_on,54,32,120
2,note_on,54,0,120
2,note_on,59,33,0
2,note_on,59,0,120
2,note_on,54,35,0
2,note_on,54,0,120
2,note_on,59,39,0
2,note_on,59,0,120
2,note_on,54,39,0
2,note_on,54,0,120
2,note_on,59,40,0
2,note_on,59,0,120
2,note_on,54,41,0
2,note_on,54,0,120
2,note_on,59,42,0
2,note_on,59,0,120
2,note_on,54,43,0
2,note_on,54,0,120
2,note_on,59,42,0
2,note_on,59,0,120
2,note_on,54,42,0
2,note_on,54,0,120
2,note_on,59,43,0
2,note_on,59,0,120
2,note_on,54,42,0
2,note_on,54,0,120
2,note_on,59,45,0
2,note_on,59,0,120
2,note_on,54,42,0
2,note_on,54,0,120
2,note_on,51,0,0
2,note_on,53,46,0
2,note_on,58,46,120
2,note_on,58,0,120
2,note_on,61,44,0
2,note_on,61,0,120
2,note_on,58,44,0
2,note_on,58,0,120
2,note_on,61,43,0
2,note_on,61,0,120
2,note_on,58,42,0
2,note_on,58,0,120
2,note_on,61,41,0
2,note_on,61,0,120
2,note_on,58,40,0
2,note_on,58,0,120
2,note_on,53,0,0
2,note_on,51,42,0
2,note_on,53,42,120
2,note_on,53,0,120
2,note_on,60,41,0
2,note_on,60,0,120
2,note_on,53,40,0
2,note_on,53,0,120
2,note_on,60,39,0
2,note_on,60,0,120
2,note_on,53,38,0
2,note_on,53,0,120
2,note_on,60,38,0
2,note_on,60,0,120
2,note_on,53,36,0
2,note_on,53,0,120
2,note_on,51,0,0
2,note_on,49,48,0
2,note_on,49,0,120
2,note_on,65,48,0
2,note_on,65,0,120
2,note_on,58,58,240
2,note_on,61,40,120
2,note_on,61,0,120
2,note_on,65,41,0
2,note_on,65,0,120
2,note_on,61,41,0
2,note_on,61,0,120
2,note_on,58,0,0
2,note_on,57,62,0
2,note_on,61,42,120
2,note_on,61,0,120
2,note_on,65,41,0
2,note_on,65,0,120
2,note_on,61,41,0
2,note_on,61,0,120
2,note_on,57,0,0
2,note_on,58,54,0
2,note_on,61,40,120
2,note_on,61,0,120
2,note_on,65,40,0
2,note_on,65,0,120
2,note_on,61,40,0
2,note_on,61,0,120
2,note_on,58,0,0
2,note_on,49,49,0
2,note_on,49,0,120
2,note_on,65,50,0
2,note_on,65,0,120
2,note_on,58,65,240
2,note_on,61,43,120
2,note_on,61,0,120
2,note_on,65,45,0
2,note_on,65,0,120
2,note_on,61,45,0
2,note_on,61,0,120
2,note_on,58,0,0
2,note_on,57,70,0
2,note_on,61,47,120
2,note_on,61,0,120
2,note_on,65,46,0
2,note_on,65,0,120
2,note_on,61,47,0
2,note_on,61,0,120
2,note_on,57,0,0
2,note_on,58,72,0
2,note_on,61,46,120
2,note_on,61,0,120
2,note_on,65,47,0
2,note_on,65,0,120
2,note_on,61,46,0
2,note_on,61,0,120
2,note_on,58,0,0
2,note_on,51,70,0
2,note_on,51,0,120
2,note_on,66,55,0
2,note_on,71,55,0
2,note_on,71,0,120
2,note_on,66,0,0
2,note_on,63,59,0
2,note_on,63,0,120
2,note_on,66,55,0
2,note_on,71,55,0
2,note_on,71,0,120
2,note_on,66,0,0
2,note_on,63,59,0
2,note_on,63,0,120
2,note_on,66,55,0
2,note_on,71,55,0
2,note_on,71,0,120
2,note_on,66,0,0
2,note_on,63,59,0
2,note_on,63,0,120
2,note_on,66,56,0
2,note_on,71,56,0
2,note_on,71,0,120
2,note_on,66,0,0
2,note_on,63,59,0
2,note_on,63,0,120
2,note_on,66,55,0
2,note_on,71,55,0
2,note_on,71,0,120
2,note_on,66,0,0
2,note_on,63,59,0
2,note_on,63,0,120
2,note_on,66,55,0
2,note_on,71,55,0
2,note_on,71,0,120
2,note_on,66,0,0
2,note_on,63,59,0
2,note_on,63,0,120
2,note_on,66,55,0
2,note_on,71,55,0
2,note_on,71,0,120
2,note_on,66,0,0
2,note_on,63,59,0
2,note_on,63,0,120
2,note_on,66,56,0
2,note_on,71,56,0
2,note_on,71,0,120
2,note_on,66,0,0
2,note_on,65,59,0
2,note_on,65,0,120
2,note_on,69,55,0
2,note_on,72,55,0
2,note_on,75,55,0
2,note_on,75,0,120
2,note_on,72,0,0
2,note_on,69,0,0
2,note_on,65,59,0
2,note_on,65,0,120
2,note_on,69,55,0
2,note_on,72,55,0
2,note_on,75,55,0
2,note_on,75,0,120
2,note_on,72,0,0
2,note_on,69,0,0
2,note_on,65,59,0
2,note_on,65,0,120
2,note_on,69,55,0
2,note_on,72,55,0
2,note_on,75,55,0
2,note_on,75,0,120
2,note_on,72,0,0
2,note_on,69,0,0
2,note_on,65,59,0
2,note_on,65,0,120
2,note_on,69,55,0
2,note_on,72,56,0
2,note_on,75,56,0
2,note_on,75,0,120
2,note_on,72,0,0
2,note_on,69,0,0
2,note_on,65,59,0
2,note_on,65,0,120
2,note_on,69,55,0
2,note_on,69,0,120
2,note_on,65,59,0
2,note_on,65,0,120
2,note_on,69,55,0
2,note_on,69,0,120
2,note_on,53,59,0
2,note_on,53,0,120
2,note_on,65,50,0
2,note_on,65,0,120
2,note_on,53,57,0
2,note_on,53,0,120
2,note_on,65,49,0
2,note_on,65,0,120
2,note_on,46,59,0
2,note_on,46,0,240
2,note_on,58,44,0
2,note_on,61,44,0
2,note_on,61,0,120
2,note_on,58,0,0
2,note_on,65,38,0
2,note_on,65,0,120
2,note_on,58,44,0
2,note_on,61,44,0
2,note_on,61,0,120
2,note_on,58,0,0
2,note_on,65,38,0
2,note_on,65,0,120
2,note_on,61,44,0
2,note_on,58,44,0
2,note_on,58,0,120
2,note_on,61,0,0
2,note_on,65,38,0
2,note_on,65,0,120
2,note_on,58,44,0
2,note_on,61,44,0
2,note_on,61,0,120
2,note_on,58,0,0
2,note_on,65,38,0
2,note_on,65,0,120
2,note_on,61,44,0
2,note_on,58,44,0
2,note_on,58,0,120
2,note_on,61,0,0
2,note_on,64,38,0
2,note_on,64,0,120
2,note_on,58,44,0
2,note_on,61,44,0
2,note_on,61,0,120
2,note_on,58,0,0
2,note_on,64,38,0
2,note_on,64,0,120
2,note_on,58,44,0
2,note_on,61,44,0
2,note_on,61,0,120
2,note_on,58,0,0
2,note_on,64,38,0
2,note_on,64,0,120
2,note_on,57,44,0
2,note_on,60,44,0
2,note_on,60,0,120
2,note_on,57,0,0
2,note_on,64,38,0
2,note_on,64,0,120
2,note_on,60,44,0
2,note_on,57,44,0
2,note_on,57,0,120
2,note_on,60,0,0
2,note_on,65,38,0
2,note_on,65,0,120
2,note_on,57,44,0
2,note_on,60,44,0
2,note_on,60,0,120
2,note_on,57,0,0
2,note_on,65,38,0
2,note_on,65,0,120
2,note_on,57,44,0
2,note_on,60,44,0
2,note_on,60,0,120
2,note_on,57,0,0
2,note_on,65,38,0
2,note_on,65,0,120
2,note_on,57,44,0
2,note_on,60,44,0
2,note_on,60,0,120
2,note_on,57,0,0
2,note_on,65,38,0
2,note_on,65,0,120
2,note_on,60,44,0
2,note_on,57,44,0
2,note_on,57,0,120
2,note_on,60,0,0
2,note_on,65,38,0
2,note_on,65,0,120
2,note_on,57,44,0
2,note_on,60,44,0
2,note_on,60,0,120
2,note_on,57,0,0
2,note_on,65,38,0
2,note_on,65,0,120
2,note_on,57,44,0
2,note_on,60,44,0
2,note_on,60,0,120
2,note_on,57,0,0
2,note_on,65,38,0
2,note_on,65,0,120
2,note_on,61,44,0
2,note_on,58,44,0
2,note_on,58,0,120
2,note_on,61,0,0
2,note_on,65,38,0
2,note_on,65,0,120
2,note_on,58,58,0
2,note_on,61,58,0
2,note_on,61,0,120
2,note_on,58,0,0
2,note_on,65,51,0
2,note_on,65,0,120
2,note_on,58,58,0
2,note_on,61,58,0
2,note_on,61,0,120
2,note_on,58,0,0
2,note_on,65,51,0
2,note_on,65,0,120
2,note_on,61,58,0
2,note_on,58,58,0
2,note_on,58,0,120
2,note_on,61,0,0
2,note_on,65,51,0
2,note_on,65,0,120
2,note_on,58,58,0
2,note_on,61,58,0
2,note_on,61,0,120
2,note_on,58,0,0
2,note_on,65,51,0
2,note_on,65,0,120
2,note_on,61,58,0
2,note_on,58,58,0
2,note_on,58,0,120
2,note_on,61,0,0
2,note_on,64,51,0
2,note_on,64,0,120
2,note_on,58,58,0
2,note_on,61,58,0
2,note_on,61,0,120
2,note_on,58,0,0
2,note_on,64,51,0
2,note_on,64,0,120
2,note_on,58,58,0
2,note_on,61,58,0
2,note_on,61,0,120
2,note_on,58,0,0
2,note_on,64,51,0
2,note_on,64,0,120
2,note_on,57,58,0
2,note_on,60,58,0
2,note_on,60,0,120
2,note_on,57,0,0
2,note_on,64,51,0
2,note_on,64,0,120
2,note_on,60,58,0
2,note_on,57,58,0
2,note_on,57,0,120
2,note_on,60,0,0
2,note_on,65,51,0
2,note_on,65,0,120
2,note_on,57,58,0
2,note_on,60,58,0
2,note_on,60,0,120
2,note_on,57,0,0
2,note_on,65,51,0
2,note_on,65,0,120
2,note_on,57,58,0
2,note_on,60,58,0
2,note_on,60,0,120
2,note_on,57,0,0
2,note_on,65,51,0
2,note_on,65,0,120
2,note_on,57,58,0
2,note_on,60,58,0
2,note_on,60,0,120
2,note_on,57,0,0
2,note_on,65,51,0
2,note_on,65,0,120
2,note_on,60,58,0
2,note_on,57,58,0
2,note_on,57,0,120
2,note_on,60,0,0
2,note_on,65,51,0
2,note_on,65,0,120
2,note_on,57,58,0
2,note_on,60,58,0
2,note_on,60,0,120
2,note_on,57,0,0
2,note_on,65,51,0
2,note_on,65,0,120
2,note_on,57,58,0
2,note_on,60,58,0
2,note_on,60,0,120
2,note_on,57,0,0
2,note_on,65,51,0
2,note_on,65,0,120
2,note_on,61,58,0
2,note_on,58,58,0
2,note_on,58,0,120
2,note_on,61,0,0
2,note_on,65,51,0
2,note_on,65,0,120
2,note_on,52,44,0
2,note_on,55,44,0
2,note_on,55,0,120
2,note_on,52,0,0
2,note_on,60,38,0
2,note_on,60,0,120
2,note_on,52,44,0
2,note_on,55,44,0
2,note_on,55,0,120
2,note_on,52,0,0
2,note_on,60,38,0
2,note_on,60,0,120
2,note_on,55,44,0
2,note_on,52,44,0
2,note_on,52,0,120
2,note_on,55,0,0
2,note_on,60,38,0
2,note_on,60,0,120
2,note_on,53,44,0
2,note_on,56,44,0
2,note_on,56,0,120
2,note_on,53,0,0
2,note_on,60,38,0
2,note_on,60,0,120
2,note_on,56,44,0
2,note_on,53,44,0
2,note_on,53,0,120
2,note_on,56,0,0
2,note_on,62,38,0
2,note_on,62,0,120
2,note_on,53,44,0
2,note_on,56,44,0
2,note_on,56,0,120
2,note_on,53,0,0
2,note_on,62,38,0
2,note_on,62,0,120
2,note_on,53,44,0
2,note_on,56,44,0
2,note_on,56,0,120
2,note_on,53,0,0
2,note_on,62,38,0
2,note_on,62,0,120
2,note_on,52,44,0
2,note_on,55,44,0
2,note_on,55,0,120
2,note_on,52,0,0
2,note_on,62,38,0
2,note_on,62,0,120
2,note_on,55,44,0
2,note_on,52,44,0
2,note_on,52,0,120
2,note_on,55,0,0
2,note_on,60,38,0
2,note_on,60,0,120
2,note_on,52,44,0
2,note_on,55,44,0
2,note_on,55,0,120
2,note_on,52,0,0
2,note_on,60,38,0
2,note_on,60,0,120
2,note_on,52,44,0
2,note_on,55,44,0
2,note_on,55,0,120
2,note_on,52,0,0
2,note_on,60,38,0
2,note_on,60,0,120
2,note_on,52,44,0
2,note_on,55,44,0
2,note_on,55,0,120
2,note_on,52,0,0
2,note_on,60,38,0
2,note_on,60,0,120
2,note_on,55,44,0
2,note_on,52,44,0
2,note_on,52,0,120
2,note_on,55,0,0
2,note_on,60,38,0
2,note_on,60,0,120
2,note_on,52,44,0
2,note_on,55,44,0
2,note_on,55,0,120
2,note_on,52,0,0
2,note_on,60,38,0
2,note_on,60,0,120
2,note_on,52,44,0
2,note_on,55,44,0
2,note_on,55,0,120
2,note_on,52,0,0
2,note_on,60,38,0
2,note_on,60,0,120
2,note_on,56,44,0
2,note_on,53,44,0
2,note_on,53,0,120
2,note_on,56,0,0
2,note_on,60,38,0
2,note_on,60,0,120
2,note_on,56,58,0
2,note_on,53,58,0
2,note_on,53,0,120
2,note_on,56,0,0
2,note_on,60,51,0
2,note_on,60,0,120
2,note_on,56,58,0
2,note_on,53,58,0
2,note_on,53,0,120
2,note_on,56,0,0
2,note_on,60,51,0
2,note_on,60,0,120
2,note_on,56,58,0
2,note_on,53,58,0
2,note_on,53,0,120
2,note_on,56,0,0
2,note_on,60,51,0
2,note_on,60,0,120
2,note_on,56,58,0
2,note_on,53,58,0
2,note_on,53,0,120
2,note_on,56,0,0
2,note_on,60,51,0
2,note_on,60,0,120
2,note_on,56,58,0
2,note_on,53,58,0
2,note_on,53,0,120
2,note_on,56,0,0
2,note_on,62,51,0
2,note_on,62,0,120
2,note_on,56,58,0
2,note_on,53,58,0
2,note_on,53,0,120
2,note_on,56,0,0
2,note_on,62,51,0
2,note_on,62,0,120
2,note_on,53,58,0
2,note_on,56,58,0
2,note_on,56,0,120
2,note_on,53,0,0
2,note_on,62,51,0
2,note_on,62,0,120
2,note_on,55,58,0
2,note_on,52,58,0
2,note_on,52,0,120
2,note_on,55,0,0
2,note_on,62,51,0
2,note_on,62,0,120
2,note_on,52,58,0
2,note_on,55,58,0
2,note_on,55,0,120
2,note_on,52,0,0
2,note_on,60,51,0
2,note_on,60,0,120
2,note_on,52,58,0
2,note_on,55,58,0
2,note_on,55,0,120
2,note_on,52,0,0
2,note_on,60,51,0
2,note_on,60,0,120
2,note_on,52,58,0
2,note_on,55,58,0
2,note_on,55,0,120
2,note_on,52,0,0
2,note_on,60,51,0
2,note_on,60,0,120
2,note_on,55,58,0
2,note_on,52,58,0
2,note_on,52,0,120
2,note_on,55,0,0
2,note_on,60,51,0
2,note_on,60,0,120
2,note_on,55,58,0
2,note_on,52,58,0
2,note_on,52,0,120
2,note_on,55,0,0
2,note_on,60,51,0
2,note_on,60,0,120
2,note_on,55,58,0
2,note_on,52,58,0
2,note_on,52,0,120
2,note_on,55,0,0
2,note_on,60,51,0
2,note_on,60,0,120
2,note_on,55,58,0
2,note_on,52,58,0
2,note_on,52,0,120
2,note_on,55,0,0
2,note_on,60,51,0
2,note_on,60,0,120
2,note_on,44,61,0
2,note_on,48,61,0
2,note_on,53,72,0
2,note_on,41,61,0
2,note_on,41,0,480
2,note_on,44,0,0
2,note_on,48,0,0
2,note_on,53,0,0
2,note_on,48,56,120
2,note_on,48,0,120
2,note_on,53,58,0
2,note_on,53,0,120
2,note_on,56,60,0
2,note_on,56,0,120
2,note_on,60,66,0
2,note_on,60,0,120
2,note_on,61,60,0
2,note_on,61,0,120
2,note_on,60,61,0
2,note_on,60,0,120
2,note_on,58,61,0
2,note_on,58,0,120
2,note_on,56,67,0
2,note_on,56,0,120
2,note_on,58,60,0
2,note_on,58,0,120
2,note_on,60,60,0
2,note_on,60,0,120
2,note_on,56,60,0
2,note_on,56,0,120
2,note_on,58,72,0
2,note_on,58,0,120
2,note_on,60,60,0
2,note_on,60,0,120
2,note_on,58,60,0
2,note_on,58,0,120
2,note_on,56,60,0
2,note_on,56,0,120
2,note_on,54,68,0
2,note_on,54,0,120
2,note_on,49,57,0
2,note_on,49,0,120
2,note_on,54,60,0
2,note_on,54,0,120
2,note_on,58,62,0
2,note_on,58,0,120
2,note_on,61,69,0
2,note_on,61,0,120
2,note_on,63,63,0
2,note_on,63,0,120
2,note_on,61,63,0
2,note_on,61,0,120
2,note_on,60,63,0
2,note_on,60,0,120
2,note_on,58,69,0
2,note_on,58,0,120
2,note_on,60,62,0
2,note_on,60,0,120
2,note_on,61,62,0
2,note_on,61,0,120
2,note_on,58,62,0
2,note_on,58,0,120
2,note_on,60,74,0
2,note_on,60,0,120
2,note_on,61,62,0
2,note_on,61,0,120
2,note_on,60,63,0
2,note_on,60,0,120
2,note_on,58,63,0
2,note_on,58,0,120
2,note_on,57,70,0
2,note_on,57,0,120
2,note_on,51,59,0
2,note_on,51,0,120
2,note_on,57,62,0
2,note_on,57,0,120
2,note_on,60,65,0
2,note_on,60,0,120
2,note_on,63,71,0
2,note_on,63,0,120
2,note_on,65,65,0
2,note_on,65,0,120
2,note_on,63,65,0
2,note_on,63,0,120
2,note_on,61,65,0
2,note_on,61,0,120
2,note_on,60,72,0
2,note_on,60,0,120
2,note_on,61,64,0
2,note_on,61,0,120
2,note_on,63,64,0
2,note_on,63,0,120
2,note_on,60,64,0
2,note_on,60,0,120
2,note_on,61,70,0
2,note_on,61,0,120
2,note_on,53,59,0
2,note_on,53,0,120
2,note_on,58,63,0
2,note_on,58,0,120
2,note_on,61,66,0
2,note_on,61,0,120
2,note_on,65,65,0
2,note_on,65,0,120
2,note_on,66,65,0
2,note_on,66,0,120
2,note_on,65,65,0
2,note_on,65,0,120
2,note_on,63,64,0
2,note_on,63,0,120
2,note_on,61,64,0
2,note_on,61,0,120
2,note_on,60,64,0
2,note_on,60,0,120
2,note_on,58,63,0
2,note_on,58,0,120
2,note_on,56,63,0
2,note_on,56,0,120
2,note_on,54,62,0
2,note_on,54,0,120
2,note_on,53,62,0
2,note_on,53,0,120
2,note_on,51,62,0
2,note_on,51,0,120
2,note_on,49,61,0
2,note_on,49,0,120
2,note_on,48,61,0
2,note_on,48,0,120
2,note_on,46,61,0
2,note_on,46,0,120
2,note_on,44,60,0
2,note_on,44,0,120
2,note_on,42,60,0
2,note_on,42,0,120
2,note_on,41,59,0
2,note_on,41,0,120
2,note_on,39,59,0
2,note_on,39,0,120
2,note_on,37,59,0
2,note_on,37,0,120
2,note_on,36,59,0
2,note_on,36,0,120
2,note_on,34,59,0
2,note_on,34,0,120
2,note_on,36,59,0
2,note_on,36,0,120
2,note_on,37,62,0
2,note_on,37,0,120
2,note_on,36,64,0
2,note_on,36,0,120
2,note_on,34,65,0
2,note_on,34,0,240
2,note_on,35,72,0
2,note_on,35,0,240
2,note_on,36,89,0
2,note_on,36,0,120
2,note_on,40,76,120
2,note_on,40,0,120
2,note_on,36,76,120
2,note_on,36,0,120
2,note_on,41,76,120
2,note_on,41,0,120
2,note_on,36,76,120
2,note_on,36,0,120
2,note_on,43,76,120
2,note_on,43,0,120
2,note_on,36,76,120
2,note_on,36,0,120
2,note_on,44,76,120
2,note_on,44,0,120
2,note_on,36,74,120
2,note_on,36,0,120
2,note_on,46,74,120
2,note_on,46,0,120
2,note_on,36,75,120
2,note_on,36,0,120
2,note_on,44,76,120
2,note_on,44,0,120
2,note_on,36,77,120
2,note_on,36,0,120
2,note_on,43,78,120
2,note_on,43,0,120
2,note_on,36,79,120
2,note_on,36,0,120
2,note_on,41,80,120
2,note_on,41,0,120
2,note_on,36,81,120
2,note_on,36,0,120
2,note_on,40,82,120
2,note_on,40,0,120
2,note_on,36,82,120
2,note_on,36,0,120
2,note_on,41,83,120
2,note_on,41,0,120
2,note_on,36,84,120
2,note_on,36,0,120
2,note_on,43,85,120
2,note_on,43,0,120
2,note_on,36,86,120
2,note_on,36,0,120
2,note_on,44,87,120
2,note_on,44,0,120
2,note_on,36,88,120
2,note_on,36,0,120
2,note_on,45,89,120
2,note_on,45,0,120
2,note_on,36,91,120
2,note_on,36,0,120
2,note_on,46,92,120
2,note_on,46,0,120
2,note_on,36,94,120
2,note_on,36,0,120
2,note_on,47,96,120
2,note_on,47,0,120
2,note_on,36,99,120
2,note_on,36,0,120
2,note_on,48,101,120
2,note_on,48,0,120
2,note_on,34,86,120
2,note_on,42,86,0
2,note_on,37,86,0
2,note_on,46,102,0
2,note_on,49,72,120
2,note_on,49,0,120
2,note_on,37,0,0
2,note_on,34,0,0
2,note_on,42,0,0
2,note_on,46,0,0
2,note_on,54,75,0
2,note_on,54,0,120
2,note_on,58,76,0
2,note_on,58,0,120
2,note_on,61,90,0
2,note_on,61,0,120
2,note_on,46,71,0
2,note_on,46,0,120
2,note_on,49,74,0
2,note_on,49,0,120
2,note_on,54,76,0
2,note_on,54,0,120
2,note_on,58,91,0
2,note_on,58,0,120
2,note_on,58,73,480
2,note_on,58,0,120
2,note_on,61,76,0
2,note_on,61,0,120
2,note_on,66,78,0
2,note_on,66,0,120
2,note_on,70,86,0
2,note_on,70,0,120
2,note_on,36,79,1800
2,note_on,46,94,0
2,note_on,43,79,0
2,note_on,48,97,0
2,note_on,52,72,120
2,note_on,52,0,120
2,note_on,43,0,0
2,note_on,36,0,0
2,note_on,46,0,0
2,note_on,48,0,0
2,note_on,55,75,0
2,note_on,55,0,120
2,note_on,58,76,0
2,note_on,58,0,120
2,note_on,48,71,120
2,note_on,48,0,120
2,note_on,55,74,0
2,note_on,55,0,120
2,note_on,58,76,0
2,note_on,58,0,120
2,note_on,60,90,0
2,note_on,60,0,120
2,note_on,60,73,480
2,note_on,60,0,120
2,note_on,67,76,0
2,note_on,67,0,120
2,note_on,70,78,0
2,note_on,70,0,120
2,note_on,72,89,0
2,note_on,72,0,120
2,note_on,37,58,1800
2,note_on,37,0,160
2,note_on,49,50,0
2,note_on,49,0,160
2,note_on,52,50,0
2,note_on,52,0,160
2,note_on,55,50,0
2,note_on,55,0,120
2,note_on,58,54,0
2,note_on,58,0,120
2,note_on,40,55,1200
2,note_on,40,0,160
2,note_on,52,47,0
2,note_on,52,0,160
2,note_on,55,47,0
2,note_on,55,0,160
2,note_on,43,52,1440
2,note_on,43,0,160
2,note_on,55,44,0
2,note_on,55,0,160
2,note_on,58,44,0
2,note_on,58,0,160
2,note_on,46,49,1440
2,note_on,46,0,160
2,note_on,58,41,0
2,note_on,58,0,160
2,note_on,61,41,0
2,note_on,61,0,160
2,note_on,49,40,1440
2,note_on,49,0,240
2,note_on,52,36,0
2,note_on,52,0,240
2,note_on,55,36,0
2,note_on,55,0,240
2,note_on,58,36,0
2,note_on,58,0,240
2,note_on,58,38,5520
2,note_on,58,0,240
2,note_on,55,38,0
2,note_on,55,0,240
2,note_on,52,37,0
2,note_on,52,0,240
2,note_on,49,36,0
2,note_on,49,0,240
2,note_on,46,35,0
2,note_on,46,0,240
2,note_on,43,35,0
2,note_on,43,0,960
2,note_on,40,36,0
2,note_on,40,0,960
2,note_on,37,35,0
2,note_on,37,0,960
2,note_on,34,34,0
2,note_on,34,0,960
2,note_on,31,34,0
2,note_on,31,0,1920
2,note_on,52,34,0
2,note_on,46,34,0
2,note_on,43,34,0
2,note_on,36,34,0
2,note_on,48,34,0
2,note_on,48,0,720
2,note_on,52,0,0
2,note_on,43,0,0
2,note_on,46,0,0
2,note_on,46,34,4080
2,note_on,43,34,0
2,note_on,52,34,0
2,note_on,48,34,0
2,note_on,48,0,720
2,note_on,43,0,0
2,note_on,52,0,0
2,note_on,46,0,0
2,note_on,36,0,120
2,note_on,36,34,0
2,note_on,36,0,120
2,note_on,41,39,0
2,note_on,29,39,0
2,note_on,29,0,480
2,note_on,41,0,0
2,note_on,29,40,1440
2,note_on,41,40,0
2,note_on,41,0,480
2,note_on,29,0,0
2,note_on,68,51,360
2,note_on,72,51,0
2,note_on,72,0,120
2,note_on,68,0,0
2,note_on,68,56,0
2,note_on,72,56,0
2,note_on,72,0,480
2,note_on,68,0,0
2,note_on,68,30,0
2,note_on,65,30,0
2,note_on,65,0,240
2,note_on,68,0,0
2,note_on,34,40,240
2,note_on,46,40,0
2,note_on,46,0,480
2,note_on,34,0,0
2,note_on,73,63,360
2,note_on,70,63,0
2,note_on,70,0,120
2,note_on,73,0,0
2,note_on,73,70,0
2,note_on,70,70,0
2,note_on,70,0,960
2,note_on,73,0,0
2,note_on,70,51,0
2,note_on,72,51,0
2,note_on,72,0,240
2,note_on,70,0,0
2,note_on,48,43,0
2,note_on,36,43,0
2,note_on,36,0,240
2,note_on,48,0,0
2,note_on,37,37,240
2,note_on,49,37,0
2,note_on,49,0,240
2,note_on,37,0,0
2,note_on,34,39,240
2,note_on,46,39,0
2,note_on,46,0,240
2,note_on,34,0,0
2,note_on,36,35,240
2,note_on,48,35,0
2,note_on,48,0,240
2,note_on,36,0,0
2,note_on,41,40,0
2,note_on,29,40,0
2,note_on,29,0,120
2,note_on,41,0,0
2,note_on,48,37,0
2,note_on,48,0,120
2,note_on,53,37,0
2,note_on,53,0,120
2,note_on,56,40,0
2,note_on,56,0,120
2,note_on,60,38,0
2,note_on,60,0,120
2,note_on,61,38,0
2,note_on,61,0,120
2,note_on,60,38,0
2,note_on,60,0,120
2,note_on,58,40,0
2,note_on,58,0,120
2,note_on,56,37,0
2,note_on,56,0,120
2,note_on,58,37,0
2,note_on,58,0,120
2,note_on,56,37,0
2,note_on,56,0,120
2,note_on,55,40,0
2,note_on,55,0,120
2,note_on,53,37,0
2,note_on,53,0,120
2,note_on,55,37,0
2,note_on,55,0,120
2,note_on,56,37,0
2,note_on,56,0,120
2,note_on,53,37,0
2,note_on,53,0,120
2,note_on,56,40,0
2,note_on,56,0,120
2,note_on,48,37,0
2,note_on,48,0,120
2,note_on,53,37,0
2,note_on,53,0,120
2,note_on,56,40,0
2,note_on,56,0,120
2,note_on,60,38,0
2,note_on,60,0,120
2,note_on,61,38,0
2,note_on,61,0,120
2,note_on,60,38,0
2,note_on,60,0,120
2,note_on,58,40,0
2,note_on,58,0,120
2,note_on,56,37,0
2,note_on,56,0,120
2,note_on,58,37,0
2,note_on,58,0,120
2,note_on,56,37,0
2,note_on,56,0,120
2,note_on,55,40,0
2,note_on,55,0,120
2,note_on,53,37,0
2,note_on,53,0,120
2,note_on,55,37,0
2,note_on,55,0,120
2,note_on,56,37,0
2,note_on,56,0,120
2,note_on,53,37,0
2,note_on,53,0,120
2,note_on,58,44,0
2,note_on,58,0,120
2,note_on,49,40,0
2,note_on,49,0,120
2,note_on,54,40,0
2,note_on,54,0,120
2,note_on,58,44,0
2,note_on,58,0,120
2,note_on,61,41,0
2,note_on,61,0,120
2,note_on,63,41,0
2,note_on,63,0,120
2,note_on,61,41,0
2,note_on,61,0,120
2,note_on,60,44,0
2,note_on,60,0,120
2,note_on,58,40,0
2,note_on,58,0,120
2,note_on,60,40,0
2,note_on,60,0,120
2,note_on,58,40,0
2,note_on,58,0,120
2,note_on,56,44,0
2,note_on,56,0,120
2,note_on,54,40,0
2,note_on,54,0,120
2,note_on,56,40,0
2,note_on,56,0,120
2,note_on,54,40,0
2,note_on,54,0,120
2,note_on,53,44,0
2,note_on,53,0,120
2,note_on,52,40,0
2,note_on,52,0,120
2,note_on,53,40,0
2,note_on,53,0,120
2,note_on,55,40,0
2,note_on,55,0,120
2,note_on,56,44,0
2,note_on,56,0,120
2,note_on,58,40,0
2,note_on,58,0,120
2,note_on,56,40,0
2,note_on,56,0,120
2,note_on,55,40,0
2,note_on,55,0,120
2,note_on,53,44,0
2,note_on,53,0,120
2,note_on,52,40,0
2,note_on,52,0,120
2,note_on,53,40,0
2,note_on,53,0,120
2,note_on,52,40,0
2,note_on,52,0,120
2,note_on,49,44,0
2,note_on,49,0,120
2,note_on,48,37,0
2,note_on,48,0,120
2,note_on,46,38,0
2,note_on,46,0,120
2,note_on,44,40,0
2,note_on,44,0,120
2,note_on,43,40,0
2,note_on,43,0,120
2,note_on,41,44,0
2,note_on,41,0,480
2,note_on,56,52,360
2,note_on,53,52,0
2,note_on,53,0,120
2,note_on,56,0,0
2,note_on,53,65,0
2,note_on,56,65,0
2,note_on,56,0,480
2,note_on,53,0,0
2,note_on,56,54,360
2,note_on,53,54,0
2,note_on,53,0,120
2,note_on,56,0,0
2,note_on,48,66,0
2,note_on,56,66,0
2,note_on,53,66,0
2,note_on,53,0,960
2,note_on,56,0,0
2,note_on,48,0,0
2,note_on,52,48,0
2,note_on,48,48,0
2,note_on,55,48,0
2,note_on,55,0,240
2,note_on,48,0,0
2,note_on,52,0,0
2,note_on,48,42,720
2,note_on,36,42,0
2,note_on,36,0,480
2,note_on,48,0,0
2,note_on,58,60,360
2,note_on,55,60,0
2,note_on,55,0,120
2,note_on,58,0,0
2,note_on,55,68,0
2,note_on,58,68,0
2,note_on,58,0,480
2,note_on,55,0,0
2,note_on,55,61,360
2,note_on,58,61,0
2,note_on,58,0,120
2,note_on,55,0,0
2,note_on,53,58,0
2,note_on,58,69,0
2,note_on,55,58,0
2,note_on,55,0,960
2,note_on,58,0,0
2,note_on,53,0,0
2,note_on,53,47,0
2,note_on,56,52,0
2,note_on,56,0,240
2,note_on,53,0,0
2,note_on,41,45,720
2,note_on,53,45,0
2,note_on,53,0,480
2,note_on,41,0,0
2,note_on,63,59,360
2,note_on,60,59,0
2,note_on,60,0,120
2,note_on,63,0,0
2,note_on,60,68,0
2,note_on,63,68,0
2,note_on,63,0,480
2,note_on,60,0,0
2,note_on,60,66,360
2,note_on,63,66,0
2,note_on,63,0,120
2,note_on,60,0,0
2,note_on,58,72,0
2,note_on,63,72,0
2,note_on,60,72,0
2,note_on,60,0,1200
2,note_on,63,0,0
2,note_on,58,0,0
2,note_on,61,64,0
2,note_on,58,64,0
2,note_on,58,0,240
2,note_on,61,0,0
2,note_on,60,61,0
2,note_on,56,61,0
2,note_on,56,0,240
2,note_on,60,0,0
2,note_on,58,59,0
2,note_on,55,59,0
2,note_on,55,0,240
2,note_on,58,0,0
2,note_on,48,56,0
2,note_on,56,56,0
2,note_on,53,56,0
2,note_on,53,0,480
2,note_on,56,0,0
2,note_on,48,0,0
2,note_on,56,56,360
2,note_on,53,56,0
2,note_on,53,0,120
2,note_on,56,0,0
2,note_on,48,63,0
2,note_on,58,63,0
2,note_on,55,63,0
2,note_on,55,0,480
2,note_on,58,0,0
2,note_on,48,0,0
2,note_on,55,53,360
2,note_on,52,53,0
2,note_on,52,0,120
2,note_on,55,0,0
2,note_on,53,56,0
2,note_on,53,0,120
2,note_on,60,49,0
2,note_on,60,0,120
2,note_on,56,49,0
2,note_on,56,0,120
2,note_on,53,49,0
2,note_on,53,0,120
2,note_on,48,53,0
2,note_on,48,0,120
2,note_on,56,49,0
2,note_on,56,0,120
2,note_on,53,49,0
2,note_on,53,0,120
2,note_on,48,49,0
2,note_on,48,0,120
2,note_on,44,53,0
2,note_on,44,0,120
2,note_on,53,49,0
2,note_on,53,0,120
2,note_on,48,49,0
2,note_on,48,0,120
2,note_on,44,49,0
2,note_on,44,0,120
2,note_on,41,53,0
2,note_on,41,0,120
2,note_on,48,49,0
2,note_on,48,0,120
2,note_on,44,49,0
2,note_on,44,0,120
2,note_on,41,49,0
2,note_on,41,0,120
2,note_on,36,53,0
2,note_on,36,0,120
2,note_on,41,49,0
2,note_on,41,0,120
2,note_on,44,49,0
2,note_on,44,0,120
2,note_on,48,49,0
2,note_on,48,0,120
2,note_on,47,53,0
2,note_on,47,0,120
2,note_on,48,49,0
2,note_on,48,0,120
2,note_on,47,49,0
2,note_on,47,0,120
2,note_on,48,49,0
2,note_on,48,0,120
2,note_on,47,53,0
2,note_on,47,0,120
2,note_on,48,49,0
2,note_on,48,0,120
2,note_on,43,49,0
2,note_on,43,0,120
2,note_on,48,49,0
2,note_on,48,0,120
2,note_on,40,53,0
2,note_on,40,0,120
2,note_on,48,49,0
2,note_on,48,0,120
2,note_on,43,49,0
2,note_on,43,0,120
2,note_on,48,49,0
2,note_on,48,0,120
2,note_on,36,56,0
2,note_on,36,0,120
2,note_on,40,49,0
2,note_on,40,0,120
2,note_on,43,49,0
2,note_on,43,0,120
2,note_on,48,49,0
2,note_on,48,0,120
2,note_on,40,53,0
2,note_on,40,0,120
2,note_on,43,49,0
2,note_on,43,0,120
2,note_on,48,49,0
2,note_on,48,0,120
2,note_on,52,49,0
2,note_on,52,0,120
2,note_on,43,53,0
2,note_on,43,0,120
2,note_on,48,49,0
2,note_on,48,0,120
2,note_on,52,49,0
2,note_on,52,0,120
2,note_on,55,49,0
2,note_on,55,0,120
2,note_on,48,53,0
2,note_on,48,0,120
2,note_on,52,49,0
2,note_on,52,0,120
2,note_on,55,49,0
2,note_on,55,0,120
2,note_on,60,49,0
2,note_on,60,0,120
2,note_on,53,59,0
2,note_on,53,0,120
2,note_on,56,49,0
2,note_on,56,0,120
2,note_on,60,49,0
2,note_on,60,0,120
2,note_on,65,49,0
2,note_on,65,0,120
2,note_on,64,53,0
2,note_on,64,0,120
2,note_on,65,49,0
2,note_on,65,0,120
2,note_on,64,49,0
2,note_on,64,0,120
2,note_on,65,49,0
2,note_on,65,0,120
2,note_on,64,53,0
2,note_on,64,0,120
2,note_on,65,49,0
2,note_on,65,0,120
2,note_on,60,49,0
2,note_on,60,0,120
2,note_on,65,49,0
2,note_on,65,0,120
2,note_on,56,53,0
2,note_on,56,0,120
2,note_on,65,49,0
2,note_on,65,0,120
2,note_on,60,49,0
2,note_on,60,0,120
2,note_on,65,49,0
2,note_on,65,0,120
2,note_on,53,61,0
2,note_on,53,0,120
2,note_on,57,53,0
2,note_on,57,0,120
2,note_on,60,53,0
2,note_on,60,0,120
2,note_on,65,53,0
2,note_on,65,0,120
2,note_on,57,58,0
2,note_on,57,0,120
2,note_on,60,53,0
2,note_on,60,0,120
2,note_on,65,53,0
2,note_on,65,0,120
2,note_on,69,53,0
2,note_on,69,0,120
2,note_on,60,58,0
2,note_on,60,0,120
2,note_on,65,53,0
2,note_on,65,0,120
2,note_on,69,53,0
2,note_on,69,0,120
2,note_on,72,53,0
2,note_on,72,0,120
2,note_on,65,58,0
2,note_on,65,0,120
2,note_on,69,53,0
2,note_on,69,0,120
2,note_on,72,53,0
2,note_on,72,0,120
2,note_on,77,53,0
2,note_on,77,0,120
2,note_on,69,67,0
2,note_on,69,0,120
2,note_on,77,53,0
2,note_on,77,0,120
2,note_on,76,53,0
2,note_on,76,0,120
2,note_on,77,53,0
2,note_on,77,0,120
2,note_on,69,58,0
2,note_on,69,0,120
2,note_on,77,53,0
2,note_on,77,0,120
2,note_on,69,53,0
2,note_on,69,0,120
2,note_on,77,53,0
2,note_on,77,0,120
2,note_on,69,57,0
2,note_on,69,0,120
2,note_on,77,56,0
2,note_on,77,0,120
2,note_on,70,56,0
2,note_on,70,0,120
2,note_on,77,55,0
2,note_on,77,0,120
2,note_on,72,54,0
2,note_on,72,0,120
2,note_on,77,53,0
2,note_on,77,0,120
2,note_on,73,52,0
2,note_on,73,0,120
2,note_on,77,52,0
2,note_on,77,0,120
2,note_on,60,52,0
2,note_on,60,0,120
2,note_on,65,47,0
2,note_on,65,0,120
2,note_on,68,47,0
2,note_on,68,0,120
2,note_on,72,47,0
2,note_on,72,0,120
2,note_on,71,52,0
2,note_on,71,0,120
2,note_on,72,47,0
2,note_on,72,0,120
2,note_on,71,47,0
2,note_on,71,0,120
2,note_on,72,47,0
2,note_on,72,0,120
2,note_on,60,52,0
2,note_on,60,0,120
2,note_on,64,47,0
2,note_on,64,0,120
2,note_on,67,47,0
2,note_on,67,0,120
2,note_on,72,47,0
2,note_on,72,0,120
2,note_on,60,52,0
2,note_on,60,0,120
2,note_on,67,47,0
2,note_on,67,0,120
2,note_on,70,47,0
2,note_on,70,0,120
2,note_on,72,47,0
2,note_on,72,0,120
2,note_on,53,52,0
2,note_on,53,0,120
2,note_on,65,38,0
2,note_on,68,38,0
2,note_on,68,0,120
2,note_on,65,0,0
2,note_on,60,39,0
2,note_on,72,39,0
2,note_on,72,0,120
2,note_on,60,0,0
2,note_on,68,41,0
2,note_on,65,41,0
2,note_on,65,0,120
2,note_on,68,0,0
2,note_on,72,45,0
2,note_on,60,45,0
2,note_on,60,0,120
2,note_on,72,0,0
2,note_on,65,44,0
2,note_on,68,44,0
2,note_on,68,0,120
2,note_on,65,0,0
2,note_on,72,45,0
2,note_on,60,45,0
2,note_on,60,0,120
2,note_on,72,0,0
2,note_on,65,45,0
2,note_on,68,45,0
2,note_on,68,0,120
2,note_on,65,0,0
2,note_on,60,46,0
2,note_on,72,46,0
2,note_on,72,0,120
2,note_on,60,0,0
2,note_on,65,46,0
2,note_on,68,46,0
2,note_on,68,0,120
2,note_on,65,0,0
2,note_on,60,45,0
2,note_on,72,45,0
2,note_on,72,0,120
2,note_on,60,0,0
2,note_on,68,45,0
2,note_on,65,45,0
2,note_on,65,0,120
2,note_on,68,0,0
2,note_on,72,45,0
2,note_on,60,45,0
2,note_on,60,0,120
2,note_on,72,0,0
2,note_on,65,44,0
2,note_on,68,44,0
2,note_on,68,0,120
2,note_on,65,0,0
2,note_on,72,44,0
2,note_on,60,44,0
2,note_on,60,0,120
2,note_on,72,0,0
2,note_on,65,43,0
2,note_on,68,43,0
2,note_on,68,0,120
2,note_on,65,0,0
2,note_on,53,54,0
2,note_on,53,0,120
2,note_on,65,38,0
2,note_on,68,38,0
2,note_on,68,0,120
2,note_on,65,0,0
2,note_on,72,39,0
2,note_on,60,39,0
2,note_on,60,0,120
2,note_on,72,0,0
2,note_on,65,41,0
2,note_on,68,41,0
2,note_on,68,0,120
2,note_on,65,0,0
2,note_on,72,45,0
2,note_on,60,45,0
2,note_on,60,0,120
2,note_on,72,0,0
2,note_on,65,44,0
2,note_on,68,44,0
2,note_on,68,0,120
2,note_on,65,0,0
2,note_on,72,45,0
2,note_on,60,45,0
2,note_on,60,0,120
2,note_on,72,0,0
2,note_on,68,45,0
2,note_on,65,45,0
2,note_on,65,0,120
2,note_on,68,0,0
2,note_on,60,46,0
2,note_on,72,46,0
2,note_on,72,0,120
2,note_on,60,0,0
2,note_on,65,46,0
2,note_on,68,46,0
2,note_on,68,0,120
2,note_on,65,0,0
2,note_on,72,45,0
2,note_on,60,45,0
2,note_on,60,0,120
2,note_on,72,0,0
2,note_on,65,45,0
2,note_on,68,45,0
2,note_on,68,0,120
2,note_on,65,0,0
2,note_on,60,45,0
2,note_on,72,45,0
2,note_on,72,0,120
2,note_on,60,0,0
2,note_on,68,44,0
2,note_on,65,44,0
2,note_on,65,0,120
2,note_on,68,0,0
2,note_on,72,44,0
2,note_on,60,44,0
2,note_on,60,0,120
2,note_on,72,0,0
2,note_on,68,43,0
2,note_on,65,43,0
2,note_on,65,0,120
2,note_on,68,0,0
2,note_on,44,55,0
2,note_on,44,0,120
2,note_on,54,40,0
2,note_on,56,40,0
2,note_on,56,0,120
2,note_on,54,0,0
2,note_on,60,41,0
2,note_on,51,41,0
2,note_on,51,0,120
2,note_on,60,0,0
2,note_on,54,43,0
2,note_on,56,43,0
2,note_on,56,0,120
2,note_on,54,0,0
2,note_on,60,47,0
2,note_on,51,47,0
2,note_on,51,0,120
2,note_on,60,0,0
2,note_on,54,46,0
2,note_on,56,46,0
2,note_on,56,0,120
2,note_on,54,0,0
2,note_on,60,47,0
2,note_on,51,47,0
2,note_on,51,0,120
2,note_on,60,0,0
2,note_on,56,48,0
2,note_on,54,48,0
2,note_on,54,0,120
2,note_on,56,0,0
2,note_on,51,49,0
2,note_on,60,49,0
2,note_on,60,0,120
2,note_on,51,0,0
2,note_on,56,49,0
2,note_on,54,49,0
2,note_on,54,0,120
2,note_on,56,0,0
2,note_on,51,48,0
2,note_on,60,48,0
2,note_on,60,0,120
2,note_on,51,0,0
2,note_on,54,47,0
2,note_on,56,47,0
2,note_on,56,0,120
2,note_on,54,0,0
2,note_on,60,47,0
2,note_on,51,47,0
2,note_on,51,0,120
2,note_on,60,0,0
2,note_on,54,46,0
2,note_on,56,46,0
2,note_on,56,0,120
2,note_on,54,0,0
2,note_on,60,46,0
2,note_on,51,46,0
2,note_on,51,0,120
2,note_on,60,0,0
2,note_on,56,45,0
2,note_on,54,45,0
2,note_on,54,0,120
2,note_on,56,0,0
2,note_on,44,54,0
2,note_on,44,0,120
2,note_on,54,40,0
2,note_on,56,40,0
2,note_on,56,0,120
2,note_on,54,0,0
2,note_on,60,41,0
2,note_on,51,41,0
2,note_on,51,0,120
2,note_on,60,0,0
2,note_on,54,43,0
2,note_on,56,43,0
2,note_on,56,0,120
2,note_on,54,0,0
2,note_on,60,47,0
2,note_on,51,47,0
2,note_on,51,0,120
2,note_on,60,0,0
2,note_on,54,46,0
2,note_on,56,46,0
2,note_on,56,0,120
2,note_on,54,0,0
2,note_on,51,47,0
2,note_on,60,47,0
2,note_on,60,0,120
2,note_on,51,0,0
2,note_on,56,48,0
2,note_on,54,48,0
2,note_on,54,0,120
2,note_on,56,0,0
2,note_on,60,49,0
2,note_on,51,49,0
2,note_on,51,0,120
2,note_on,60,0,0
2,note_on,54,49,0
2,note_on,56,49,0
2,note_on,56,0,120
2,note_on,54,0,0
2,note_on,60,48,0
2,note_on,51,48,0
2,note_on,51,0,120
2,note_on,60,0,0
2,note_on,56,47,0
2,note_on,54,47,0
2,note_on,54,0,120
2,note_on,56,0,0
2,note_on,51,47,0
2,note_on,60,47,0
2,note_on,60,0,120
2,note_on,51,0,0
2,note_on,54,46,0
2,note_on,56,46,0
2,note_on,56,0,120
2,note_on,54,0,0
2,note_on,51,46,0
2,note_on,60,46,0
2,note_on,60,0,120
2,note_on,51,0,0
2,note_on,56,45,0
2,note_on,54,45,0
2,note_on,54,0,120
2,note_on,56,0,0
2,note_on,49,56,0
2,note_on,49,0,120
2,note_on,61,42,0
2,note_on,65,42,0
2,note_on,65,0,120
2,note_on,61,0,0
2,note_on,68,43,0
2,note_on,56,43,0
2,note_on,56,0,120
2,note_on,68,0,0
2,note_on,65,45,0
2,note_on,61,45,0
2,note_on,61,0,120
2,note_on,65,0,0
2,note_on,56,49,0
2,note_on,68,49,0
2,note_on,68,0,120
2,note_on,56,0,0
2,note_on,61,48,0
2,note_on,65,48,0
2,note_on,65,0,120
2,note_on,61,0,0
2,note_on,68,49,0
2,note_on,56,49,0
2,note_on,56,0,120
2,note_on,68,0,0
2,note_on,61,50,0
2,note_on,65,50,0
2,note_on,65,0,120
2,note_on,61,0,0
2,note_on,68,51,0
2,note_on,56,51,0
2,note_on,56,0,120
2,note_on,68,0,0
2,note_on,61,51,0
2,note_on,65,51,0
2,note_on,65,0,120
2,note_on,61,0,0
2,note_on,56,50,0
2,note_on,68,50,0
2,note_on,68,0,120
2,note_on,56,0,0
2,note_on,65,49,0
2,note_on,61,49,0
2,note_on,61,0,120
2,note_on,65,0,0
2,note_on,68,49,0
2,note_on,56,49,0
2,note_on,56,0,120
2,note_on,68,0,0
2,note_on,61,48,0
2,note_on,65,48,0
2,note_on,65,0,120
2,note_on,61,0,0
2,note_on,68,48,0
2,note_on,56,48,0
2,note_on,56,0,120
2,note_on,68,0,0
2,note_on,61,47,0
2,note_on,65,47,0
2,note_on,65,0,120
2,note_on,61,0,0
2,note_on,49,56,0
2,note_on,49,0,120
2,note_on,61,42,0
2,note_on,65,42,0
2,note_on,65,0,120
2,note_on,61,0,0
2,note_on,68,43,0
2,note_on,56,43,0
2,note_on,56,0,120
2,note_on,68,0,0
2,note_on,61,45,0
2,note_on,65,45,0
2,note_on,65,0,120
2,note_on,61,0,0
2,note_on,68,49,0
2,note_on,68,0,240
2,note_on,73,55,0
2,note_on,73,0,240
2,note_on,77,58,0
2,note_on,77,0,240
2,note_on,80,62,0
2,note_on,80,0,240
2,note_on,85,66,0
2,note_on,85,0,240
2,note_on,85,69,0
2,note_on,85,0,240
2,note_on,85,80,0
2,note_on,82,80,0
2,note_on,82,0,720
2,note_on,85,0,0
2,note_on,80,66,0
2,note_on,84,66,0
2,note_on,84,0,240
2,note_on,80,0,0
2,note_on,79,68,0
2,note_on,82,68,0
2,note_on,82,0,480
2,note_on,79,0,0
2,note_on,84,64,0
2,note_on,80,64,0
2,note_on,80,0,480
2,note_on,84,0,0
2,note_on,82,80,0
2,note_on,85,80,0
2,note_on,85,0,720
2,note_on,82,0,0
2,note_on,84,66,0
2,note_on,80,66,0
2,note_on,80,0,240
2,note_on,84,0,0
2,note_on,79,68,0
2,note_on,82,68,0
2,note_on,82,0,480
2,note_on,79,0,0
2,note_on,80,64,0
2,note_on,84,64,0
2,note_on,84,0,480
2,note_on,80,0,0
2,note_on,85,80,0
2,note_on,82,80,0
2,note_on,82,0,720
2,note_on,85,0,0
2,note_on,84,66,0
2,note_on,80,66,0
2,note_on,80,0,240
2,note_on,84,0,0
2,note_on,79,68,0
2,note_on,82,68,0
2,note_on,82,0,480
2,note_on,79,0,0
2,note_on,80,65,0
2,note_on,77,65,0
2,note_on,77,0,480
2,note_on,80,0,0
2,note_on,76,70,0
2,note_on,79,70,0
2,note_on,79,0,480
2,note_on,76,0,0
2,note_on,77,70,0
2,note_on,74,70,0
2,note_on,74,0,480
2,note_on,77,0,0
2,note_on,77,75,0
2,note_on,73,75,0
2,note_on,73,0,480
2,note_on,77,0,0
2,note_on,72,75,0
2,note_on,77,75,0
2,note_on,77,0,480
2,note_on,72,0,0
2,note_on,71,76,0
2,note_on,74,75,480
2,note_on,74,0,480
2,note_on,71,0,0
2,note_on,60,72,0
2,note_on,68,72,0
2,note_on,72,72,0
2,note_on,68,0,480
2,note_on,67,68,0
2,note_on,67,0,480
2,note_on,72,0,0
2,note_on,60,0,0
2,note_on,46,61,0
2,note_on,54,72,0
2,note_on,49,61,0
2,note_on,49,0,720
2,note_on,54,0,0
2,note_on,46,0,0
2,note_on,44,50,0
2,note_on,53,59,0
2,note_on,48,50,0
2,note_on,48,0,240
2,note_on,53,0,0
2,note_on,44,0,0
2,note_on,52,61,0
2,note_on,46,51,0
2,note_on,43,51,0
2,note_on,43,0,480
2,note_on,46,0,0
2,note_on,52,0,0
2,note_on,48,48,0
2,note_on,44,48,0
2,note_on,53,57,0
2,note_on,53,0,480
2,note_on,44,0,0
2,note_on,48,0,0
2,note_on,54,72,0
2,note_on,49,61,0
2,note_on,46,61,0
2,note_on,46,0,720
2,note_on,49,0,0
2,note_on,54,0,0
2,note_on,48,50,0
2,note_on,53,59,0
2,note_on,44,50,0
2,note_on,44,0,240
2,note_on,53,0,0
2,note_on,48,0,0
2,note_on,52,65,0
2,note_on,46,54,0
2,note_on,43,51,0
2,note_on,43,0,480
2,note_on,46,0,0
2,note_on,52,0,0
2,note_on,44,48,0
2,note_on,53,57,0
2,note_on,48,48,0
2,note_on,48,0,480
2,note_on,53,0,0
2,note_on,44,0,0
2,note_on,46,61,0
2,note_on,54,72,0
2,note_on,49,61,0
2,note_on,49,0,720
2,note_on,54,0,0
2,note_on,46,0,0
2,note_on,44,50,0
2,note_on,48,50,0
2,note_on,53,59,0
2,note_on,53,0,240
2,note_on,48,0,0
2,note_on,44,0,0
2,note_on,52,61,0
2,note_on,46,61,0
2,note_on,43,51,0
2,note_on,43,0,480
2,note_on,46,0,0
2,note_on,52,0,0
2,note_on,41,49,0
2,note_on,49,58,0
2,note_on,44,49,0
2,note_on,44,0,480
2,note_on,49,0,0
2,note_on,41,0,0
2,note_on,40,53,0
2,note_on,48,63,0
2,note_on,43,53,0
2,note_on,43,0,480
2,note_on,48,0,0
2,note_on,40,0,0
2,note_on,47,63,0
2,note_on,38,53,0
2,note_on,44,53,0
2,note_on,41,53,0
2,note_on,41,0,480
2,note_on,47,0,0
2,note_on,38,0,0
2,note_on,44,0,0
2,note_on,46,67,0
2,note_on,40,56,0
2,note_on,43,56,0
2,note_on,43,0,480
2,note_on,40,0,0
2,note_on,46,0,0
2,note_on,44,67,0
2,note_on,41,67,0
2,note_on,41,0,480
2,note_on,44,0,0
2,note_on,35,66,0
2,note_on,44,66,0
2,note_on,44,0,480
2,note_on,42,64,0
2,note_on,42,0,480
2,note_on,35,0,0
2,note_on,36,61,0
2,note_on,41,61,0
2,note_on,41,0,480
2,note_on,40,59,0
2,note_on,40,0,480
2,note_on,36,0,0
2,note_on,29,59,0
2,note_on,32,59,0
2,note_on,36,59,0
2,note_on,41,70,0
2,note_on,41,0,240
2,note_on,29,0,0
2,note_on,32,0,0
2,note_on,36,0,0
2,note_on,48,59,360
2,note_on,48,0,120
2,note_on,53,62,0
2,note_on,53,0,120
2,note_on,56,64,0
2,note_on,56,0,120
2,note_on,60,70,0
2,note_on,60,0,120
2,note_on,61,64,0
2,note_on,61,0,120
2,note_on,60,64,0
2,note_on,60,0,120
2,note_on,58,64,0
2,note_on,58,0,120
2,note_on,56,70,0
2,note_on,56,0,120
2,note_on,55,63,0
2,note_on,55,0,120
2,note_on,53,63,0
2,note_on,53,0,120
2,note_on,51,63,0
2,note_on,51,0,120
2,note_on,49,67,0
2,note_on,49,0,120
2,note_on,48,60,0
2,note_on,48,0,120
2,note_on,46,60,0
2,note_on,46,0,120
2,note_on,44,60,0
2,note_on,44,0,120
2,note_on,43,71,0
2,note_on,43,0,120
2,note_on,44,65,0
2,note_on,44,0,120
2,note_on,46,73,0
2,note_on,46,0,120
2,note_on,44,69,0
2,note_on,44,0,120
2,note_on,43,73,0
2,note_on,43,0,120
2,note_on,41,73,0
2,note_on,41,0,120
2,note_on,40,72,0
2,note_on,40,0,120
2,note_on,38,72,0
2,note_on,38,0,120
2,note_on,36,71,0
2,note_on,36,0,120
2,note_on,34,71,0
2,note_on,34,0,120
2,note_on,32,70,0
2,note_on,32,0,120
2,note_on,31,70,0
2,note_on,31,0,120
2,note_on,29,70,0
2,note_on,36,70,0
2,note_on,41,70,0
2,note_on,32,70,0
2,note_on,32,0,240
2,note_on,29,0,0
2,note_on,36,0,0
2,note_on,41,0,0
2,note_on,60,59,360
2,note_on,60,0,120
2,note_on,65,62,0
2,note_on,65,0,120
2,note_on,68,64,0
2,note_on,68,0,120
2,note_on,72,70,0
2,note_on,72,0,120
2,note_on,73,64,0
2,note_on,73,0,120
2,note_on,72,64,0
2,note_on,72,0,120
2,note_on,70,64,0
2,note_on,70,0,120
2,note_on,68,70,0
2,note_on,68,0,120
2,note_on,67,63,0
2,note_on,67,0,120
2,note_on,65,63,0
2,note_on,65,0,120
2,note_on,63,63,0
2,note_on,63,0,120
2,note_on,61,67,0
2,note_on,61,0,120
2,note_on,60,60,0
2,note_on,60,0,120
2,note_on,58,60,0
2,note_on,58,0,120
2,note_on,56,60,0
2,note_on,56,0,120
2,note_on,55,71,0
2,note_on,55,0,120
2,note_on,56,65,0
2,note_on,56,0,120
2,note_on,58,73,0
2,note_on,58,0,120
2,note_on,56,69,0
2,note_on,56,0,120
2,note_on,55,73,0
2,note_on,55,0,120
2,note_on,53,73,0
2,note_on,53,0,120
2,note_on,52,72,0
2,note_on,52,0,120
2,note_on,50,72,0
2,note_on,50,0,120
2,note_on,48,71,0
2,note_on,48,0,120
2,note_on,46,71,0
2,note_on,46,0,120
2,note_on,44,70,0
2,note_on,44,0,120
2,note_on,43,70,0
2,note_on,43,0,120
2,note_on,41,67,0
2,note_on,41,0,120
2,note_on,43,60,0
2,note_on,43,0,120
2,note_on,44,60,0
2,note_on,44,0,120
2,note_on,46,60,0
2,note_on,46,0,120
2,note_on,48,71,0
2,note_on,48,0,120
2,note_on,50,65,0
2,note_on,50,0,120
2,note_on,52,73,0
2,note_on,52,0,120
2,note_on,53,69,0
2,note_on,53,0,120
2,note_on,55,73,0
2,note_on,55,0,120
2,note_on,53,73,0
2,note_on,53,0,120
2,note_on,52,72,0
2,note_on,52,0,120
2,note_on,50,72,0
2,note_on,50,0,120
2,note_on,48,71,0
2,note_on,48,0,120
2,note_on,46,71,0
2,note_on,46,0,120
2,note_on,44,70,0
2,note_on,44,0,120
2,note_on,43,70,0
2,note_on,43,0,120
2,note_on,41,67,0
2,note_on,41,0,120
2,note_on,43,60,0
2,note_on,43,0,120
2,note_on,44,60,0
2,note_on,44,0,120
2,note_on,46,60,0
2,note_on,46,0,120
2,note_on,48,71,0
2,note_on,48,0,120
2,note_on,50,65,0
2,note_on,50,0,120
2,note_on,52,73,0
2,note_on,52,0,120
2,note_on,53,69,0
2,note_on,53,0,120
2,note_on,55,73,0
2,note_on,55,0,120
2,note_on,53,73,0
2,note_on,53,0,120
2,note_on,52,72,0
2,note_on,52,0,120
2,note_on,50,72,0
2,note_on,50,0,120
2,note_on,48,71,0
2,note_on,48,0,120
2,note_on,46,71,0
2,note_on,46,0,120
2,note_on,44,70,0
2,note_on,44,0,120
2,note_on,43,70,0
2,note_on,43,0,120
2,note_on,41,67,0
2,note_on,41,0,120
2,note_on,40,60,0
2,note_on,40,0,120
2,note_on,38,60,0
2,note_on,38,0,120
2,note_on,36,60,0
2,note_on,36,0,120
2,note_on,34,64,0
2,note_on,34,0,120
2,note_on,32,59,0
2,note_on,32,0,120
2,note_on,31,65,0
2,note_on,31,0,120
2,note_on,29,58,0
2,note_on,29,0,120
2,note_on,31,68,0
2,note_on,31,0,120
2,note_on,32,69,0
2,note_on,32,0,120
2,note_on,34,71,0
2,note_on,34,0,120
2,note_on,36,72,0
2,note_on,36,0,120
2,note_on,38,74,0
2,note_on,38,0,120
2,note_on,40,75,0
2,note_on,40,0,120
2,note_on,41,77,0
2,note_on,41,0,120
2,note_on,43,78,0
2,note_on,43,0,120
2,note_on,30,76,0
2,note_on,42,78,0
2,note_on,42,0,120
2,note_on,30,0,0
2,note_on,57,69,2640
2,note_on,57,0,120
2,note_on,54,68,0
2,note_on,54,0,120
2,note_on,51,68,0
2,note_on,51,0,120
2,note_on,48,67,0
2,note_on,48,0,120
2,note_on,45,66,0
2,note_on,45,0,120
2,note_on,42,66,0
2,note_on,42,0,120
2,note_on,39,65,0
2,note_on,39,0,120
2,note_on,36,64,0
2,note_on,36,0,120
2,note_on,33,63,0
2,note_on,33,0,120
2,note_on,30,60,0
2,note_on,30,0,120
2,note_on,39,59,0
2,note_on,39,0,120
2,note_on,36,58,0
2,note_on,36,0,120
2,note_on,33,57,0
2,note_on,33,0,120
2,note_on,30,56,0
2,note_on,30,0,120
2,note_on,39,54,0
2,note_on,39,0,120
2,note_on,36,53,0
2,note_on,36,0,120
2,note_on,33,52,0
2,note_on,33,0,120
2,note_on,30,51,0
2,note_on,30,0,120
2,note_on,39,47,0
2,note_on,39,0,120
2,note_on,36,47,0
2,note_on,36,0,120
2,note_on,33,43,0
2,note_on,33,0,120
2,note_on,30,47,0
2,note_on,30,0,120
2,note_on,39,41,0
2,note_on,39,0,120
2,note_on,36,39,0
2,note_on,36,0,120
2,note_on,33,38,0
2,note_on,33,0,120
2,note_on,29,39,0
2,note_on,29,0,480
2,note_on,41,35,1320
2,note_on,41,0,120
2,note_on,29,40,0
2,note_on,29,0,480
2,note_on,41,35,1320
2,note_on,41,0,120
2,note_on,29,40,0
2,note_on,29,0,480
2,note_on,57,38,240
2,note_on,57,0,120
2,note_on,58,42,0
2,note_on,58,0,120
2,note_on,60,49,0
2,note_on,60,0,120
2,note_on,61,42,0
2,note_on,61,0,120
2,note_on,60,43,0
2,note_on,60,0,120
2,note_on,58,43,0
2,note_on,58,0,120
2,note_on,57,47,0
2,note_on,57,0,240
2,note_on,57,41,0
2,note_on,57,0,120
2,note_on,58,46,0
2,note_on,58,0,120
2,note_on,60,53,0
2,note_on,60,0,120
2,note_on,61,42,0
2,note_on,61,0,120
2,note_on,60,43,0
2,note_on,60,0,120
2,note_on,58,43,0
2,note_on,58,0,120
2,note_on,57,47,0
2,note_on,57,0,240
2,note_on,57,43,0
2,note_on,57,0,120
2,note_on,58,47,0
2,note_on,58,0,120
2,note_on,60,52,0
2,note_on,60,0,120
2,note_on,61,42,0
2,note_on,61,0,120
2,note_on,60,43,0
2,note_on,60,0,120
2,note_on,58,43,0
2,note_on,58,0,120
2,note_on,57,44,0
2,note_on,57,0,120
2,note_on,54,42,0
2,note_on,54,0,120
2,note_on,53,41,0
2,note_on,53,0,120
2,note_on,51,39,0
2,note_on,51,0,120
2,note_on,49,44,0
2,note_on,53,32,120
2,note_on,53,0,120
2,note_on,58,33,0
2,note_on,58,0,120
2,note_on,53,34,0
2,note_on,53,0,120
2,note_on,58,38,0
2,note_on,58,0,120
2,note_on,53,37,0
2,note_on,53,0,120
2,note_on,58,38,0
2,note_on,58,0,120
2,note_on,53,38,0
2,note_on,53,0,120
2,note_on,58,39,0
2,note_on,58,0,120
2,note_on,53,39,0
2,note_on,53,0,120
2,note_on,58,38,0
2,note_on,58,0,120
2,note_on,53,38,0
2,note_on,53,0,120
2,note_on,58,38,0
2,note_on,58,0,120
2,note_on,53,37,0
2,note_on,53,0,120
2,note_on,58,37,0
2,note_on,58,0,120
2,note_on,53,36,0
2,note_on,53,0,120
2,note_on,49,0,0
2,note_on,49,44,0
2,note_on,53,32,120
2,note_on,53,0,120
2,note_on,58,33,0
2,note_on,58,0,120
2,note_on,53,34,0
2,note_on,53,0,120
2,note_on,58,38,0
2,note_on,58,0,120
2,note_on,53,37,0
2,note_on,53,0,120
2,note_on,58,38,0
2,note_on,58,0,120
2,note_on,53,38,0
2,note_on,53,0,120
2,note_on,58,39,0
2,note_on,58,0,120
2,note_on,53,39,0
2,note_on,53,0,120
2,note_on,58,38,0
2,note_on,58,0,120
2,note_on,53,38,0
2,note_on,53,0,120
2,note_on,58,38,0
2,note_on,58,0,120
2,note_on,53,37,0
2,note_on,53,0,120
2,note_on,58,37,0
2,note_on,58,0,120
2,note_on,53,36,0
2,note_on,53,0,120
2,note_on,49,0,0
2,note_on,51,44,0
2,note_on,54,32,120
2,note_on,54,0,120
2,note_on,59,33,0
2,note_on,59,0,120
2,note_on,54,35,0
2,note_on,54,0,120
2,note_on,59,39,0
2,note_on,59,0,120
2,note_on,54,39,0
2,note_on,54,0,120
2,note_on,59,40,0
2,note_on,59,0,120
2,note_on,54,41,0
2,note_on,54,0,120
2,note_on,59,42,0
2,note_on,59,0,120
2,note_on,54,43,0
2,note_on,54,0,120
2,note_on,59,42,0
2,note_on,59,0,120
2,note_on,54,42,0
2,note_on,54,0,120
2,note_on,59,43,0
2,note_on,59,0,120
2,note_on,54,42,0
2,note_on,54,0,120
2,note_on,59,45,0
2,note_on,59,0,120
2,note_on,54,42,0
2,note_on,54,0,120
2,note_on,51,0,0
2,note_on,53,46,0
2,note_on,58,46,120
2,note_on,58,0,120
2,note_on,61,44,0
2,note_on,61,0,120
2,note_on,58,44,0
2,note_on,58,0,120
2,note_on,61,43,0
2,note_on,61,0,120
2,note_on,58,42,0
2,note_on,58,0,120
2,note_on,61,41,0
2,note_on,61,0,120
2,note_on,58,40,0
2,note_on,58,0,120
2,note_on,53,0,0
2,note_on,51,42,0
2,note_on,53,42,120
2,note_on,53,0,120
2,note_on,60,41,0
2,note_on,60,0,120
2,note_on,53,40,0
2,note_on,53,0,120
2,note_on,60,39,0
2,note_on,60,0,120
2,note_on,53,38,0
2,note_on,53,0,120
2,note_on,60,38,0
2,note_on,60,0,120
2,note_on,53,36,0
2,note_on,53,0,120
2,note_on,51,0,0
2,note_on,49,48,0
2,note_on,49,0,120
2,note_on,65,48,0
2,note_on,65,0,120
2,note_on,58,58,240
2,note_on,61,40,120
2,note_on,61,0,120
2,note_on,65,41,0
2,note_on,65,0,120
2,note_on,61,41,0
2,note_on,61,0,120
2,note_on,58,0,0
2,note_on,57,63,0
2,note_on,61,42,120
2,note_on,61,0,120
2,note_on,65,42,0
2,note_on,65,0,120
2,note_on,61,42,0
2,note_on,61,0,120
2,note_on,57,0,0
2,note_on,58,55,0
2,note_on,61,41,120
2,note_on,61,0,120
2,note_on,65,41,0
2,note_on,65,0,120
2,note_on,61,41,0
2,note_on,61,0,120
2,note_on,58,0,0
2,note_on,49,51,0
2,note_on,49,0,120
2,note_on,65,52,0
2,note_on,65,0,120
2,note_on,58,68,240
2,note_on,61,45,120
2,note_on,61,0,120
2,note_on,65,47,0
2,note_on,65,0,120
2,note_on,61,48,0
2,note_on,61,0,120
2,note_on,58,0,0
2,note_on,57,74,0
2,note_on,61,50,120
2,note_on,61,0,120
2,note_on,65,49,0
2,note_on,65,0,120
2,note_on,61,50,0
2,note_on,61,0,120
2,note_on,57,0,0
2,note_on,58,77,0
2,note_on,61,50,120
2,note_on,61,0,120
2,note_on,65,51,0
2,note_on,65,0,120
2,note_on,61,50,0
2,note_on,61,0,120
2,note_on,58,0,0
2,note_on,51,70,0
2,note_on,51,0,120
2,note_on,66,55,0
2,note_on,71,55,0
2,note_on,71,0,120
2,note_on,66,0,0
2,note_on,63,59,0
2,note_on,63,0,120
2,note_on,66,55,0
2,note_on,71,55,0
2,note_on,71,0,120
2,note_on,66,0,0
2,note_on,63,59,0
2,note_on,63,0,120
2,note_on,66,55,0
2,note_on,71,55,0
2,note_on,71,0,120
2,note_on,66,0,0
2,note_on,63,59,0
2,note_on,63,0,120
2,note_on,66,56,0
2,note_on,71,56,0
2,note_on,71,0,120
2,note_on,66,0,0
2,note_on,63,59,0
2,note_on,63,0,120
2,note_on,66,55,0
2,note_on,71,55,0
2,note_on,71,0,120
2,note_on,66,0,0
2,note_on,63,59,0
2,note_on,63,0,120
2,note_on,66,55,0
2,note_on,71,55,0
2,note_on,71,0,120
2,note_on,66,0,0
2,note_on,63,59,0
2,note_on,63,0,120
2,note_on,66,55,0
2,note_on,71,55,0
2,note_on,71,0,120
2,note_on,66,0,0
2,note_on,63,59,0
2,note_on,63,0,120
2,note_on,66,56,0
2,note_on,71,56,0
2,note_on,71,0,120
2,note_on,66,0,0
2,note_on,65,59,0
2,note_on,65,0,120
2,note_on,69,55,0
2,note_on,72,55,0
2,note_on,75,55,0
2,note_on,75,0,120
2,note_on,72,0,0
2,note_on,69,0,0
2,note_on,65,59,0
2,note_on,65,0,120
2,note_on,69,55,0
2,note_on,72,55,0
2,note_on,75,55,0
2,note_on,75,0,120
2,note_on,72,0,0
2,note_on,69,0,0
2,note_on,65,59,0
2,note_on,65,0,120
2,note_on,69,55,0
2,note_on,72,55,0
2,note_on,75,55,0
2,note_on,75,0,120
2,note_on,72,0,0
2,note_on,69,0,0
2,note_on,65,59,0
2,note_on,65,0,120
2,note_on,69,55,0
2,note_on,72,56,0
2,note_on,75,56,0
2,note_on,75,0,120
2,note_on,72,0,0
2,note_on,69,0,0
2,note_on,65,59,0
2,note_on,65,0,120
2,note_on,69,55,0
2,note_on,69,0,120
2,note_on,65,59,0
2,note_on,65,0,120
2,note_on,69,55,0
2,note_on,69,0,120
2,note_on,53,59,0
2,note_on,53,0,120
2,note_on,65,50,0
2,note_on,65,0,120
2,note_on,53,57,0
2,note_on,53,0,120
2,note_on,65,49,0
2,note_on,65,0,120
2,note_on,46,59,0
2,note_on,46,0,240
2,note_on,58,44,0
2,note_on,61,44,0
2,note_on,61,0,120
2,note_on,58,0,0
2,note_on,65,38,0
2,note_on,65,0,120
2,note_on,58,44,0
2,note_on,61,44,0
2,note_on,61,0,120
2,note_on,58,0,0
2,note_on,65,38,0
2,note_on,65,0,120
2,note_on,61,44,0
2,note_on,58,44,0
2,note_on,58,0,120
2,note_on,61,0,0
2,note_on,65,38,0
2,note_on,65,0,120
2,note_on,58,44,0
2,note_on,61,44,0
2,note_on,61,0,120
2,note_on,58,0,0
2,note_on,65,38,0
2,note_on,65,0,120
2,note_on,61,44,0
2,note_on,58,44,0
2,note_on,58,0,120
2,note_on,61,0,0
2,note_on,64,38,0
2,note_on,64,0,120
2,note_on,58,44,0
2,note_on,61,44,0
2,note_on,61,0,120
2,note_on,58,0,0
2,note_on,64,38,0
2,note_on,64,0,120
2,note_on,58,44,0
2,note_on,61,44,0
2,note_on,61,0,120
2,note_on,58,0,0
2,note_on,64,38,0
2,note_on,64,0,120
2,note_on,57,44,0
2,note_on,60,44,0
2,note_on,60,0,120
2,note_on,57,0,0
2,note_on,64,38,0
2,note_on,64,0,120
2,note_on,60,44,0
2,note_on,57,44,0
2,note_on,57,0,120
2,note_on,60,0,0
2,note_on,65,38,0
2,note_on,65,0,120
2,note_on,57,44,0
2,note_on,60,44,0
2,note_on,60,0,120
2,note_on,57,0,0
2,note_on,65,38,0
2,note_on,65,0,120
2,note_on,57,44,0
2,note_on,60,44,0
2,note_on,60,0,120
2,note_on,57,0,0
2,note_on,65,38,0
2,note_on,65,0,120
2,note_on,57,44,0
2,note_on,60,44,0
2,note_on,60,0,120
2,note_on,57,0,0
2,note_on,65,38,0
2,note_on,65,0,120
2,note_on,60,44,0
2,note_on,57,44,0
2,note_on,57,0,120
2,note_on,60,0,0
2,note_on,65,38,0
2,note_on,65,0,120
2,note_on,57,44,0
2,note_on,60,44,0
2,note_on,60,0,120
2,note_on,57,0,0
2,note_on,65,38,0
2,note_on,65,0,120
2,note_on,57,44,0
2,note_on,60,44,0
2,note_on,60,0,120
2,note_on,57,0,0
2,note_on,65,38,0
2,note_on,65,0,120
2,note_on,61,44,0
2,note_on,58,44,0
2,note_on,58,0,120
2,note_on,61,0,0
2,note_on,65,38,0
2,note_on,65,0,120
2,note_on,58,58,0
2,note_on,61,58,0
2,note_on,61,0,120
2,note_on,58,0,0
2,note_on,65,51,0
2,note_on,65,0,120
2,note_on,58,58,0
2,note_on,61,58,0
2,note_on,61,0,120
2,note_on,58,0,0
2,note_on,65,51,0
2,note_on,65,0,120
2,note_on,61,58,0
2,note_on,58,58,0
2,note_on,58,0,120
2,note_on,61,0,0
2,note_on,65,51,0
2,note_on,65,0,120
2,note_on,58,58,0
2,note_on,61,58,0
2,note_on,61,0,120
2,note_on,58,0,0
2,note_on,65,51,0
2,note_on,65,0,120
2,note_on,61,58,0
2,note_on,58,58,0
2,note_on,58,0,120
2,note_on,61,0,0
2,note_on,64,51,0
2,note_on,64,0,120
2,note_on,58,58,0
2,note_on,61,58,0
2,note_on,61,0,120
2,note_on,58,0,0
2,note_on,64,51,0
2,note_on,64,0,120
2,note_on,58,58,0
2,note_on,61,58,0
2,note_on,61,0,120
2,note_on,58,0,0
2,note_on,64,51,0
2,note_on,64,0,120
2,note_on,57,58,0
2,note_on,60,58,0
2,note_on,60,0,120
2,note_on,57,0,0
2,note_on,64,51,0
2,note_on,64,0,120
2,note_on,60,58,0
2,note_on,57,58,0
2,note_on,57,0,120
2,note_on,60,0,0
2,note_on,65,51,0
2,note_on,65,0,120
2,note_on,57,58,0
2,note_on,60,58,0
2,note_on,60,0,120
2,note_on,57,0,0
2,note_on,65,51,0
2,note_on,65,0,120
2,note_on,57,58,0
2,note_on,60,58,0
2,note_on,60,0,120
2,note_on,57,0,0
2,note_on,65,51,0
2,note_on,65,0,120
2,note_on,57,58,0
2,note_on,60,58,0
2,note_on,60,0,120
2,note_on,57,0,0
2,note_on,65,51,0
2,note_on,65,0,120
2,note_on,60,58,0
2,note_on,57,58,0
2,note_on,57,0,120
2,note_on,60,0,0
2,note_on,65,51,0
2,note_on,65,0,120
2,note_on,57,58,0
2,note_on,60,58,0
2,note_on,60,0,120
2,note_on,57,0,0
2,note_on,65,51,0
2,note_on,65,0,120
2,note_on,57,58,0
2,note_on,60,58,0
2,note_on,60,0,120
2,note_on,57,0,0
2,note_on,65,51,0
2,note_on,65,0,120
2,note_on,61,58,0
2,note_on,58,58,0
2,note_on,58,0,120
2,note_on,61,0,0
2,note_on,65,51,0
2,note_on,65,0,120
2,note_on,52,44,0
2,note_on,55,44,0
2,note_on,55,0,120
2,note_on,52,0,0
2,note_on,60,38,0
2,note_on,60,0,120
2,note_on,52,44,0
2,note_on,55,44,0
2,note_on,55,0,120
2,note_on,52,0,0
2,note_on,60,38,0
2,note_on,60,0,120
2,note_on,55,44,0
2,note_on,52,44,0
2,note_on,52,0,120
2,note_on,55,0,0
2,note_on,60,38,0
2,note_on,60,0,120
2,note_on,53,44,0
2,note_on,56,44,0
2,note_on,56,0,120
2,note_on,53,0,0
2,note_on,60,38,0
2,note_on,60,0,120
2,note_on,56,44,0
2,note_on,53,44,0
2,note_on,53,0,120
2,note_on,56,0,0
2,note_on,62,38,0
2,note_on,62,0,120
2,note_on,53,44,0
2,note_on,56,44,0
2,note_on,56,0,120
2,note_on,53,0,0
2,note_on,62,38,0
2,note_on,62,0,120
2,note_on,53,44,0
2,note_on,56,44,0
2,note_on,56,0,120
2,note_on,53,0,0
2,note_on,62,38,0
2,note_on,62,0,120
2,note_on,52,44,0
2,note_on,55,44,0
2,note_on,55,0,120
2,note_on,52,0,0
2,note_on,62,38,0
2,note_on,62,0,120
2,note_on,55,44,0
2,note_on,52,44,0
2,note_on,52,0,120
2,note_on,55,0,0
2,note_on,60,38,0
2,note_on,60,0,120
2,note_on,52,44,0
2,note_on,55,44,0
2,note_on,55,0,120
2,note_on,52,0,0
2,note_on,60,38,0
2,note_on,60,0,120
2,note_on,52,44,0
2,note_on,55,44,0
2,note_on,55,0,120
2,note_on,52,0,0
2,note_on,60,38,0
2,note_on,60,0,120
2,note_on,52,44,0
2,note_on,55,44,0
2,note_on,55,0,120
2,note_on,52,0,0
2,note_on,60,38,0
2,note_on,60,0,120
2,note_on,55,44,0
2,note_on,52,44,0
2,note_on,52,0,120
2,note_on,55,0,0
2,note_on,60,38,0
2,note_on,60,0,120
2,note_on,52,44,0
2,note_on,55,44,0
2,note_on,55,0,120
2,note_on,52,0,0
2,note_on,60,38,0
2,note_on,60,0,120
2,note_on,52,44,0
2,note_on,55,44,0
2,note_on,55,0,120
2,note_on,52,0,0
2,note_on,60,38,0
2,note_on,60,0,120
2,note_on,56,44,0
2,note_on,53,44,0
2,note_on,53,0,120
2,note_on,56,0,0
2,note_on,60,38,0
2,note_on,60,0,120
2,note_on,53,58,0
2,note_on,56,58,0
2,note_on,56,0,120
2,note_on,53,0,0
2,note_on,60,51,0
2,note_on,60,0,120
2,note_on,53,58,0
2,note_on,56,58,0
2,note_on,56,0,120
2,note_on,53,0,0
2,note_on,60,51,0
2,note_on,60,0,120
2,note_on,56,58,0
2,note_on,53,58,0
2,note_on,53,0,120
2,note_on,56,0,0
2,note_on,60,51,0
2,note_on,60,0,120
2,note_on,53,58,0
2,note_on,56,58,0
2,note_on,56,0,120
2,note_on,53,0,0
2,note_on,60,51,0
2,note_on,60,0,120
2,note_on,56,58,0
2,note_on,53,58,0
2,note_on,53,0,120
2,note_on,56,0,0
2,note_on,62,51,0
2,note_on,62,0,120
2,note_on,53,58,0
2,note_on,56,58,0
2,note_on,56,0,120
2,note_on,53,0,0
2,note_on,62,51,0
2,note_on,62,0,120
2,note_on,53,58,0
2,note_on,56,58,0
2,note_on,56,0,120
2,note_on,53,0,0
2,note_on,62,51,0
2,note_on,62,0,120
2,note_on,52,58,0
2,note_on,55,58,0
2,note_on,55,0,120
2,note_on,52,0,0
2,note_on,62,51,0
2,note_on,62,0,120
2,note_on,55,58,0
2,note_on,52,58,0
2,note_on,52,0,120
2,note_on,55,0,0
2,note_on,60,51,0
2,note_on,60,0,120
2,note_on,52,58,0
2,note_on,55,58,0
2,note_on,55,0,120
2,note_on,52,0,0
2,note_on,60,51,0
2,note_on,60,0,120
2,note_on,52,58,0
2,note_on,55,58,0
2,note_on,55,0,120
2,note_on,52,0,0
2,note_on,60,51,0
2,note_on,60,0,120
2,note_on,52,58,0
2,note_on,55,58,0
2,note_on,55,0,120
2,note_on,52,0,0
2,note_on,60,51,0
2,note_on,60,0,120
2,note_on,55,58,0
2,note_on,52,58,0
2,note_on,52,0,120
2,note_on,55,0,0
2,note_on,60,51,0
2,note_on,60,0,120
2,note_on,52,58,0
2,note_on,55,58,0
2,note_on,55,0,120
2,note_on,52,0,0
2,note_on,60,51,0
2,note_on,60,0,120
2,note_on,52,58,0
2,note_on,55,58,0
2,note_on,55,0,120
2,note_on,52,0,0
2,note_on,60,51,0
2,note_on,60,0,120
2,note_on,41,61,0
2,note_on,44,61,0
2,note_on,48,61,0
2,note_on,53,72,0
2,note_on,53,0,480
2,note_on,41,0,0
2,note_on,44,0,0
2,note_on,48,0,0
2,note_on,48,56,120
2,note_on,48,0,120
2,note_on,53,58,0
2,note_on,53,0,120
2,note_on,56,60,0
2,note_on,56,0,120
2,note_on,60,66,0
2,note_on,60,0,120
2,note_on,61,60,0
2,note_on,61,0,120
2,note_on,60,61,0
2,note_on,60,0,120
2,note_on,58,61,0
2,note_on,58,0,120
2,note_on,56,67,0
2,note_on,56,0,120
2,note_on,58,60,0
2,note_on,58,0,120
2,note_on,60,60,0
2,note_on,60,0,120
2,note_on,56,60,0
2,note_on,56,0,120
2,note_on,58,72,0
2,note_on,58,0,120
2,note_on,60,60,0
2,note_on,60,0,120
2,note_on,58,60,0
2,note_on,58,0,120
2,note_on,56,60,0
2,note_on,56,0,120
2,note_on,54,68,0
2,note_on,54,0,120
2,note_on,49,57,0
2,note_on,49,0,120
2,note_on,54,60,0
2,note_on,54,0,120
2,note_on,58,62,0
2,note_on,58,0,120
2,note_on,61,69,0
2,note_on,61,0,120
2,note_on,63,63,0
2,note_on,63,0,120
2,note_on,61,63,0
2,note_on,61,0,120
2,note_on,60,63,0
2,note_on,60,0,120
2,note_on,58,69,0
2,note_on,58,0,120
2,note_on,60,62,0
2,note_on,60,0,120
2,note_on,61,62,0
2,note_on,61,0,120
2,note_on,58,62,0
2,note_on,58,0,120
2,note_on,60,74,0
2,note_on,60,0,120
2,note_on,61,62,0
2,note_on,61,0,120
2,note_on,60,63,0
2,note_on,60,0,120
2,note_on,58,63,0
2,note_on,58,0,120
2,note_on,57,70,0
2,note_on,57,0,120
2,note_on,51,59,0
2,note_on,51,0,120
2,note_on,57,62,0
2,note_on,57,0,120
2,note_on,60,65,0
2,note_on,60,0,120
2,note_on,63,71,0
2,note_on,63,0,120
2,note_on,65,65,0
2,note_on,65,0,120
2,note_on,63,65,0
2,note_on,63,0,120
2,note_on,61,65,0
2,note_on,61,0,120
2,note_on,60,72,0
2,note_on,60,0,120
2,note_on,61,64,0
2,note_on,61,0,120
2,note_on,63,64,0
2,note_on,63,0,120
2,note_on,60,64,0
2,note_on,60,0,120
2,note_on,61,70,0
2,note_on,61,0,120
2,note_on,53,59,0
2,note_on,53,0,120
2,note_on,58,63,0
2,note_on,58,0,120
2,note_on,61,66,0
2,note_on,61,0,120
2,note_on,65,65,0
2,note_on,65,0,120
2,note_on,66,65,0
2,note_on,66,0,120
2,note_on,65,65,0
2,note_on,65,0,120
2,note_on,63,64,0
2,note_on,63,0,120
2,note_on,61,64,0
2,note_on,61,0,120
2,note_on,60,64,0
2,note_on,60,0,120
2,note_on,58,63,0
2,note_on,58,0,120
2,note_on,56,63,0
2,note_on,56,0,120
2,note_on,54,62,0
2,note_on,54,0,120
2,note_on,53,62,0
2,note_on,53,0,120
2,note_on,51,62,0
2,note_on,51,0,120
2,note_on,49,61,0
2,note_on,49,0,120
2,note_on,48,61,0
2,note_on,48,0,120
2,note_on,46,61,0
2,note_on,46,0,120
2,note_on,44,60,0
2,note_on,44,0,120
2,note_on,42,60,0
2,note_on,42,0,120
2,note_on,41,59,0
2,note_on,41,0,120
2,note_on,39,59,0
2,note_on,39,0,120
2,note_on,37,59,0
2,note_on,37,0,120
2,note_on,36,59,0
2,note_on,36,0,120
2,note_on,34,59,0
2,note_on,34,0,120
2,note_on,36,59,0
2,note_on,36,0,120
2,note_on,37,62,0
2,note_on,37,0,120
2,note_on,36,64,0
2,note_on,36,0,120
2,note_on,34,65,0
2,note_on,34,0,240
2,note_on,35,72,0
2,note_on,35,0,240
2,note_on,36,89,0
2,note_on,36,0,120
2,note_on,40,76,120
2,note_on,40,0,120
2,note_on,36,76,120
2,note_on,36,0,120
2,note_on,41,76,120
2,note_on,41,0,120
2,note_on,36,76,120
2,note_on,36,0,120
2,note_on,43,76,120
2,note_on,43,0,120
2,note_on,36,76,120
2,note_on,36,0,120
2,note_on,44,76,120
2,note_on,44,0,120
2,note_on,36,74,120
2,note_on,36,0,120
2,note_on,46,74,120
2,note_on,46,0,120
2,note_on,36,75,120
2,note_on,36,0,120
2,note_on,44,76,120
2,note_on,44,0,120
2,note_on,36,77,120
2,note_on,36,0,120
2,note_on,43,78,120
2,note_on,43,0,120
2,note_on,36,79,120
2,note_on,36,0,120
2,note_on,41,80,120
2,note_on,41,0,120
2,note_on,36,81,120
2,note_on,36,0,120
2,note_on,40,82,120
2,note_on,40,0,120
2,note_on,36,82,120
2,note_on,36,0,120
2,note_on,41,83,120
2,note_on,41,0,120
2,note_on,36,84,120
2,note_on,36,0,120
2,note_on,43,85,120
2,note_on,43,0,120
2,note_on,36,86,120
2,note_on,36,0,120
2,note_on,44,87,120
2,note_on,44,0,120
2,note_on,36,88,120
2,note_on,36,0,120
2,note_on,45,89,120
2,note_on,45,0,120
2,note_on,36,91,120
2,note_on,36,0,120
2,note_on,46,92,120
2,note_on,46,0,120
2,note_on,36,94,120
2,note_on,36,0,120
2,note_on,47,96,120
2,note_on,47,0,120
2,note_on,36,99,120
2,note_on,36,0,120
2,note_on,48,101,120
2,note_on,48,0,120
2,note_on,34,86,120
2,note_on,37,86,0
2,note_on,42,86,0
2,note_on,46,102,0
2,note_on,49,72,120
2,note_on,49,0,120
2,note_on,42,0,0
2,note_on,34,0,0
2,note_on,37,0,0
2,note_on,46,0,0
2,note_on,54,75,0
2,note_on,54,0,120
2,note_on,58,76,0
2,note_on,58,0,120
2,note_on,61,90,0
2,note_on,61,0,120
2,note_on,46,71,0
2,note_on,46,0,120
2,note_on,49,74,0
2,note_on,49,0,120
2,note_on,54,76,0
2,note_on,54,0,120
2,note_on,58,91,0
2,note_on,58,0,120
2,note_on,58,73,480
2,note_on,58,0,120
2,note_on,61,76,0
2,note_on,61,0,120
2,note_on,66,78,0
2,note_on,66,0,120
2,note_on,70,86,0
2,note_on,70,0,120
2,note_on,36,79,1800
2,note_on,43,79,0
2,note_on,46,94,0
2,note_on,48,97,0
2,note_on,52,72,120
2,note_on,52,0,120
2,note_on,46,0,0
2,note_on,36,0,0
2,note_on,43,0,0
2,note_on,48,0,0
2,note_on,55,75,0
2,note_on,55,0,120
2,note_on,58,76,0
2,note_on,58,0,120
2,note_on,48,71,120
2,note_on,48,0,120
2,note_on,55,74,0
2,note_on,55,0,120
2,note_on,58,76,0
2,note_on,58,0,120
2,note_on,60,90,0
2,note_on,60,0,120
2,note_on,60,73,480
2,note_on,60,0,120
2,note_on,67,76,0
2,note_on,67,0,120
2,note_on,70,78,0
2,note_on,70,0,120
2,note_on,72,89,0
2,note_on,72,0,120
2,note_on,37,58,1800
2,note_on,37,0,160
2,note_on,49,50,0
2,note_on,49,0,160
2,note_on,52,50,0
2,note_on,52,0,160
2,note_on,55,50,0
2,note_on,55,0,120
2,note_on,58,54,0
2,note_on,58,0,120
2,note_on,40,55,1200
2,note_on,40,0,160
2,note_on,52,47,0
2,note_on,52,0,160
2,note_on,55,47,0
2,note_on,55,0,160
2,note_on,43,52,1440
2,note_on,43,0,160
2,note_on,55,44,0
2,note_on,55,0,160
2,note_on,58,44,0
2,note_on,58,0,160
2,note_on,46,49,1440
2,note_on,46,0,160
2,note_on,58,41,0
2,note_on,58,0,160
2,note_on,61,41,0
2,note_on,61,0,160
2,note_on,49,40,1440
2,note_on,49,0,240
2,note_on,52,36,0
2,note_on,52,0,240
2,note_on,55,36,0
2,note_on,55,0,240
2,note_on,58,36,0
2,note_on,58,0,240
2,note_on,58,38,5520
2,note_on,58,0,240
2,note_on,55,38,0
2,note_on,55,0,240
2,note_on,52,37,0
2,note_on,52,0,240
2,note_on,49,36,0
2,note_on,49,0,240
2,note_on,46,35,0
2,note_on,46,0,240
2,note_on,43,35,0
2,note_on,43,0,960
2,note_on,40,36,0
2,note_on,40,0,960
2,note_on,37,35,0
2,note_on,37,0,960
2,note_on,34,34,0
2,note_on,34,0,960
2,note_on,31,34,0
2,note_on,31,0,1920
2,note_on,52,34,0
2,note_on,48,34,0
2,note_on,46,34,0
2,note_on,43,34,0
2,note_on,36,34,0
2,note_on,43,0,720
2,note_on,46,0,0
2,note_on,52,0,0
2,note_on,48,0,0
2,note_on,43,34,4080
2,note_on,46,34,0
2,note_on,48,34,0
2,note_on,52,34,0
2,note_on,52,0,720
2,note_on,46,0,0
2,note_on,48,0,0
2,note_on,43,0,0
2,note_on,36,0,120
2,note_on,36,34,0
2,note_on,36,0,120
2,note_on,41,39,0
2,note_on,29,39,0
2,note_on,29,0,480
2,note_on,41,0,0
2,note_on,41,40,1440
2,note_on,29,40,0
2,note_on,29,0,480
2,note_on,41,0,0
2,note_on,68,51,360
2,note_on,72,51,0
2,note_on,72,0,120
2,note_on,68,0,0
2,note_on,68,56,0
2,note_on,72,56,0
2,note_on,72,0,480
2,note_on,68,0,0
2,note_on,65,30,0
2,note_on,68,30,0
2,note_on,68,0,240
2,note_on,65,0,0
2,note_on,46,40,240
2,note_on,34,40,0
2,note_on,34,0,480
2,note_on,46,0,0
2,note_on,70,63,360
2,note_on,73,63,0
2,note_on,73,0,120
2,note_on,70,0,0
2,note_on,70,70,0
2,note_on,73,70,0
2,note_on,73,0,960
2,note_on,70,0,0
2,note_on,70,51,0
2,note_on,72,51,0
2,note_on,72,0,240
2,note_on,70,0,0
2,note_on,48,43,0
2,note_on,36,43,0
2,note_on,36,0,240
2,note_on,48,0,0
2,note_on,49,37,240
2,note_on,37,37,0
2,note_on,37,0,240
2,note_on,49,0,0
2,note_on,46,39,240
2,note_on,34,39,0
2,note_on,34,0,240
2,note_on,46,0,0
2,note_on,48,35,240
2,note_on,36,35,0
2,note_on,36,0,240
2,note_on,48,0,0
2,note_on,29,40,0
2,note_on,41,40,0
2,note_on,41,0,120
2,note_on,29,0,0
2,note_on,48,37,0
2,note_on,48,0,120
2,note_on,53,37,0
2,note_on,53,0,120
2,note_on,56,40,0
2,note_on,56,0,120
2,note_on,60,38,0
2,note_on,60,0,120
2,note_on,61,38,0
2,note_on,61,0,120
2,note_on,60,38,0
2,note_on,60,0,120
2,note_on,58,40,0
2,note_on,58,0,120
2,note_on,56,37,0
2,note_on,56,0,120
2,note_on,58,37,0
2,note_on,58,0,120
2,note_on,56,37,0
2,note_on,56,0,120
2,note_on,55,40,0
2,note_on,55,0,120
2,note_on,53,37,0
2,note_on,53,0,120
2,note_on,55,37,0
2,note_on,55,0,120
2,note_on,56,37,0
2,note_on,56,0,120
2,note_on,53,37,0
2,note_on,53,0,120
2,note_on,56,40,0
2,note_on,56,0,120
2,note_on,48,37,0
2,note_on,48,0,120
2,note_on,53,37,0
2,note_on,53,0,120
2,note_on,56,40,0
2,note_on,56,0,120
2,note_on,60,38,0
2,note_on,60,0,120
2,note_on,61,38,0
2,note_on,61,0,120
2,note_on,60,38,0
2,note_on,60,0,120
2,note_on,58,40,0
2,note_on,58,0,120
2,note_on,56,37,0
2,note_on,56,0,120
2,note_on,58,37,0
2,note_on,58,0,120
2,note_on,56,37,0
2,note_on,56,0,120
2,note_on,55,40,0
2,note_on,55,0,120
2,note_on,53,37,0
2,note_on,53,0,120
2,note_on,55,37,0
2,note_on,55,0,120
2,note_on,56,37,0
2,note_on,56,0,120
2,note_on,53,37,0
2,note_on,53,0,120
2,note_on,58,44,0
2,note_on,58,0,120
2,note_on,49,40,0
2,note_on,49,0,120
2,note_on,54,40,0
2,note_on,54,0,120
2,note_on,58,44,0
2,note_on,58,0,120
2,note_on,61,41,0
2,note_on,61,0,120
2,note_on,63,41,0
2,note_on,63,0,120
2,note_on,61,41,0
2,note_on,61,0,120
2,note_on,60,44,0
2,note_on,60,0,120
2,note_on,58,40,0
2,note_on,58,0,120
2,note_on,60,40,0
2,note_on,60,0,120
2,note_on,58,40,0
2,note_on,58,0,120
2,note_on,56,44,0
2,note_on,56,0,120
2,note_on,54,40,0
2,note_on,54,0,120
2,note_on,56,40,0
2,note_on,56,0,120
2,note_on,54,40,0
2,note_on,54,0,120
2,note_on,53,44,0
2,note_on,53,0,120
2,note_on,52,40,0
2,note_on,52,0,120
2,note_on,53,40,0
2,note_on,53,0,120
2,note_on,55,40,0
2,note_on,55,0,120
2,note_on,56,44,0
2,note_on,56,0,120
2,note_on,58,40,0
2,note_on,58,0,120
2,note_on,56,40,0
2,note_on,56,0,120
2,note_on,55,40,0
2,note_on,55,0,120
2,note_on,53,44,0
2,note_on,53,0,120
2,note_on,52,40,0
2,note_on,52,0,120
2,note_on,53,40,0
2,note_on,53,0,120
2,note_on,52,40,0
2,note_on,52,0,120
2,note_on,49,44,0
2,note_on,49,0,120
2,note_on,48,37,0
2,note_on,48,0,120
2,note_on,46,38,0
2,note_on,46,0,120
2,note_on,44,40,0
2,note_on,44,0,120
2,note_on,43,40,0
2,note_on,43,0,120
2,note_on,41,44,0
2,note_on,41,0,480
2,note_on,53,52,360
2,note_on,56,52,0
2,note_on,56,0,120
2,note_on,53,0,0
2,note_on,53,65,0
2,note_on,56,65,0
2,note_on,56,0,480
2,note_on,53,0,0
2,note_on,53,54,360
2,note_on,56,54,0
2,note_on,56,0,120
2,note_on,53,0,0
2,note_on,48,66,0
2,note_on,53,66,0
2,note_on,56,66,0
2,note_on,56,0,960
2,note_on,53,0,0
2,note_on,48,0,0
2,note_on,48,48,0
2,note_on,52,48,0
2,note_on,55,48,0
2,note_on,55,0,240
2,note_on,52,0,0
2,note_on,48,0,0
2,note_on,36,42,720
2,note_on,48,42,0
2,note_on,48,0,480
2,note_on,36,0,0
2,note_on,55,60,360
2,note_on,58,60,0
2,note_on,58,0,120
2,note_on,55,0,0
2,note_on,55,68,0
2,note_on,58,68,0
2,note_on,58,0,480
2,note_on,55,0,0
2,note_on,55,61,360
2,note_on,58,61,0
2,note_on,58,0,120
2,note_on,55,0,0
2,note_on,53,58,0
2,note_on,55,58,0
2,note_on,58,69,0
2,note_on,58,0,960
2,note_on,55,0,0
2,note_on,53,0,0
2,note_on,53,47,0
2,note_on,56,52,0
2,note_on,56,0,240
2,note_on,53,0,0
2,note_on,41,45,720
2,note_on,53,45,0
2,note_on,53,0,480
2,note_on,41,0,0
2,note_on,60,59,360
2,note_on,63,59,0
2,note_on,63,0,120
2,note_on,60,0,0
2,note_on,60,68,0
2,note_on,63,68,0
2,note_on,63,0,480
2,note_on,60,0,0
2,note_on,60,66,360
2,note_on,63,66,0
2,note_on,63,0,120
2,note_on,60,0,0
2,note_on,58,72,0
2,note_on,60,72,0
2,note_on,63,72,0
2,note_on,63,0,1200
2,note_on,60,0,0
2,note_on,58,0,0
2,note_on,58,64,0
2,note_on,61,64,0
2,note_on,61,0,240
2,note_on,58,0,0
2,note_on,56,61,0
2,note_on,60,61,0
2,note_on,60,0,240
2,note_on,56,0,0
2,note_on,55,59,0
2,note_on,58,59,0
2,note_on,58,0,240
2,note_on,55,0,0
2,note_on,48,56,0
2,note_on,53,56,0
2,note_on,56,56,0
2,note_on,56,0,480
2,note_on,53,0,0
2,note_on,48,0,0
2,note_on,53,56,360
2,note_on,56,56,0
2,note_on,56,0,120
2,note_on,53,0,0
2,note_on,48,63,0
2,note_on,55,63,0
2,note_on,58,63,0
2,note_on,58,0,480
2,note_on,55,0,0
2,note_on,48,0,0
2,note_on,52,53,360
2,note_on,55,53,0
2,note_on,55,0,120
2,note_on,52,0,0
2,note_on,53,56,0
2,note_on,53,0,120
2,note_on,60,49,0
2,note_on,60,0,120
2,note_on,56,49,0
2,note_on,56,0,120
2,note_on,53,49,0
2,note_on,53,0,120
2,note_on,48,53,0
2,note_on,48,0,120
2,note_on,56,49,0
2,note_on,56,0,120
2,note_on,53,49,0
2,note_on,53,0,120
2,note_on,48,49,0
2,note_on,48,0,120
2,note_on,44,53,0
2,note_on,44,0,120
2,note_on,53,49,0
2,note_on,53,0,120
2,note_on,48,49,0
2,note_on,48,0,120
2,note_on,44,49,0
2,note_on,44,0,120
2,note_on,41,53,0
2,note_on,41,0,120
2,note_on,48,49,0
2,note_on,48,0,120
2,note_on,44,49,0
2,note_on,44,0,120
2,note_on,41,49,0
2,note_on,41,0,120
2,note_on,36,53,0
2,note_on,36,0,120
2,note_on,41,49,0
2,note_on,41,0,120
2,note_on,44,49,0
2,note_on,44,0,120
2,note_on,48,49,0
2,note_on,48,0,120
2,note_on,47,53,0
2,note_on,47,0,120
2,note_on,48,49,0
2,note_on,48,0,120
2,note_on,47,49,0
2,note_on,47,0,120
2,note_on,48,49,0
2,note_on,48,0,120
2,note_on,47,53,0
2,note_on,47,0,120
2,note_on,48,49,0
2,note_on,48,0,120
2,note_on,43,49,0
2,note_on,43,0,120
2,note_on,48,49,0
2,note_on,48,0,120
2,note_on,40,53,0
2,note_on,40,0,120
2,note_on,48,49,0
2,note_on,48,0,120
2,note_on,43,49,0
2,note_on,43,0,120
2,note_on,48,49,0
2,note_on,48,0,120
2,note_on,36,56,0
2,note_on,36,0,120
2,note_on,40,49,0
2,note_on,40,0,120
2,note_on,43,49,0
2,note_on,43,0,120
2,note_on,48,49,0
2,note_on,48,0,120
2,note_on,40,53,0
2,note_on,40,0,120
2,note_on,43,49,0
2,note_on,43,0,120
2,note_on,48,49,0
2,note_on,48,0,120
2,note_on,52,49,0
2,note_on,52,0,120
2,note_on,43,53,0
2,note_on,43,0,120
2,note_on,48,49,0
2,note_on,48,0,120
2,note_on,52,49,0
2,note_on,52,0,120
2,note_on,55,49,0
2,note_on,55,0,120
2,note_on,48,53,0
2,note_on,48,0,120
2,note_on,52,49,0
2,note_on,52,0,120
2,note_on,55,49,0
2,note_on,55,0,120
2,note_on,60,49,0
2,note_on,60,0,120
2,note_on,53,59,0
2,note_on,53,0,120
2,note_on,56,49,0
2,note_on,56,0,120
2,note_on,60,49,0
2,note_on,60,0,120
2,note_on,65,49,0
2,note_on,65,0,120
2,note_on,64,53,0
2,note_on,64,0,120
2,note_on,65,49,0
2,note_on,65,0,120
2,note_on,64,49,0
2,note_on,64,0,120
2,note_on,65,49,0
2,note_on,65,0,120
2,note_on,64,53,0
2,note_on,64,0,120
2,note_on,65,49,0
2,note_on,65,0,120
2,note_on,60,49,0
2,note_on,60,0,120
2,note_on,65,49,0
2,note_on,65,0,120
2,note_on,56,53,0
2,note_on,56,0,120
2,note_on,65,49,0
2,note_on,65,0,120
2,note_on,60,49,0
2,note_on,60,0,120
2,note_on,65,49,0
2,note_on,65,0,120
2,note_on,53,61,0
2,note_on,53,0,120
2,note_on,57,53,0
2,note_on,57,0,120
2,note_on,60,53,0
2,note_on,60,0,120
2,note_on,65,53,0
2,note_on,65,0,120
2,note_on,57,58,0
2,note_on,57,0,120
2,note_on,60,53,0
2,note_on,60,0,120
2,note_on,65,53,0
2,note_on,65,0,120
2,note_on,69,53,0
2,note_on,69,0,120
2,note_on,60,58,0
2,note_on,60,0,120
2,note_on,65,53,0
2,note_on,65,0,120
2,note_on,69,53,0
2,note_on,69,0,120
2,note_on,72,53,0
2,note_on,72,0,120
2,note_on,65,58,0
2,note_on,65,0,120
2,note_on,69,53,0
2,note_on,69,0,120
2,note_on,72,53,0
2,note_on,72,0,120
2,note_on,77,53,0
2,note_on,77,0,120
2,note_on,69,67,0
2,note_on,69,0,120
2,note_on,77,53,0
2,note_on,77,0,120
2,note_on,76,53,0
2,note_on,76,0,120
2,note_on,77,53,0
2,note_on,77,0,120
2,note_on,69,58,0
2,note_on,69,0,120
2,note_on,77,53,0
2,note_on,77,0,120
2,note_on,69,53,0
2,note_on,69,0,120
2,note_on,77,53,0
2,note_on,77,0,120
2,note_on,69,57,0
2,note_on,69,0,120
2,note_on,77,56,0
2,note_on,77,0,120
2,note_on,70,56,0
2,note_on,70,0,120
2,note_on,77,55,0
2,note_on,77,0,120
2,note_on,72,54,0
2,note_on,72,0,120
2,note_on,77,53,0
2,note_on,77,0,120
2,note_on,73,52,0
2,note_on,73,0,120
2,note_on,77,52,0
2,note_on,77,0,120
2,note_on,60,52,0
2,note_on,60,0,120
2,note_on,65,47,0
2,note_on,65,0,120
2,note_on,68,47,0
2,note_on,68,0,120
2,note_on,72,47,0
2,note_on,72,0,120
2,note_on,71,52,0
2,note_on,71,0,120
2,note_on,72,47,0
2,note_on,72,0,120
2,note_on,71,47,0
2,note_on,71,0,120
2,note_on,72,47,0
2,note_on,72,0,120
2,note_on,60,52,0
2,note_on,60,0,120
2,note_on,64,47,0
2,note_on,64,0,120
2,note_on,67,47,0
2,note_on,67,0,120
2,note_on,72,47,0
2,note_on,72,0,120
2,note_on,60,52,0
2,note_on,60,0,120
2,note_on,67,47,0
2,note_on,67,0,120
2,note_on,70,47,0
2,note_on,70,0,120
2,note_on,72,47,0
2,note_on,72,0,120
2,note_on,53,52,0
2,note_on,53,0,120
2,note_on,68,38,0
2,note_on,65,38,0
2,note_on,65,0,120
2,note_on,68,0,0
2,note_on,60,39,0
2,note_on,72,39,0
2,note_on,72,0,120
2,note_on,60,0,0
2,note_on,68,41,0
2,note_on,65,41,0
2,note_on,65,0,120
2,note_on,68,0,0
2,note_on,60,45,0
2,note_on,72,45,0
2,note_on,72,0,120
2,note_on,60,0,0
2,note_on,68,44,0
2,note_on,65,44,0
2,note_on,65,0,120
2,note_on,68,0,0
2,note_on,60,45,0
2,note_on,72,45,0
2,note_on,72,0,120
2,note_on,60,0,0
2,note_on,68,45,0
2,note_on,65,45,0
2,note_on,65,0,120
2,note_on,68,0,0
2,note_on,60,46,0
2,note_on,72,46,0
2,note_on,72,0,120
2,note_on,60,0,0
2,note_on,68,46,0
2,note_on,65,46,0
2,note_on,65,0,120
2,note_on,68,0,0
2,note_on,60,45,0
2,note_on,72,45,0
2,note_on,72,0,120
2,note_on,60,0,0
2,note_on,68,45,0
2,note_on,65,45,0
2,note_on,65,0,120
2,note_on,68,0,0
2,note_on,60,45,0
2,note_on,72,45,0
2,note_on,72,0,120
2,note_on,60,0,0
2,note_on,68,44,0
2,note_on,65,44,0
2,note_on,65,0,120
2,note_on,68,0,0
2,note_on,60,44,0
2,note_on,72,44,0
2,note_on,72,0,120
2,note_on,60,0,0
2,note_on,68,43,0
2,note_on,65,43,0
2,note_on,65,0,120
2,note_on,68,0,0
2,note_on,53,54,0
2,note_on,53,0,120
2,note_on,68,38,0
2,note_on,65,38,0
2,note_on,65,0,120
2,note_on,68,0,0
2,note_on,60,39,0
2,note_on,72,39,0
2,note_on,72,0,120
2,note_on,60,0,0
2,note_on,68,41,0
2,note_on,65,41,0
2,note_on,65,0,120
2,note_on,68,0,0
2,note_on,60,45,0
2,note_on,72,45,0
2,note_on,72,0,120
2,note_on,60,0,0
2,note_on,68,44,0
2,note_on,65,44,0
2,note_on,65,0,120
2,note_on,68,0,0
2,note_on,60,45,0
2,note_on,72,45,0
2,note_on,72,0,120
2,note_on,60,0,0
2,note_on,68,45,0
2,note_on,65,45,0
2,note_on,65,0,120
2,note_on,68,0,0
2,note_on,60,46,0
2,note_on,72,46,0
2,note_on,72,0,120
2,note_on,60,0,0
2,note_on,68,46,0
2,note_on,65,46,0
2,note_on,65,0,120
2,note_on,68,0,0
2,note_on,60,45,0
2,note_on,72,45,0
2,note_on,72,0,120
2,note_on,60,0,0
2,note_on,68,45,0
2,note_on,65,45,0
2,note_on,65,0,120
2,note_on,68,0,0
2,note_on,60,45,0
2,note_on,72,45,0
2,note_on,72,0,120
2,note_on,60,0,0
2,note_on,68,44,0
2,note_on,65,44,0
2,note_on,65,0,120
2,note_on,68,0,0
2,note_on,60,44,0
2,note_on,72,44,0
2,note_on,72,0,120
2,note_on,60,0,0
2,note_on,68,43,0
2,note_on,65,43,0
2,note_on,65,0,120
2,note_on,68,0,0
2,note_on,44,55,0
2,note_on,44,0,120
2,note_on,56,40,0
2,note_on,54,40,0
2,note_on,54,0,120
2,note_on,56,0,0
2,note_on,51,41,0
2,note_on,60,41,0
2,note_on,60,0,120
2,note_on,51,0,0
2,note_on,56,43,0
2,note_on,54,43,0
2,note_on,54,0,120
2,note_on,56,0,0
2,note_on,51,47,0
2,note_on,60,47,0
2,note_on,60,0,120
2,note_on,51,0,0
2,note_on,56,46,0
2,note_on,54,46,0
2,note_on,54,0,120
2,note_on,56,0,0
2,note_on,51,47,0
2,note_on,60,47,0
2,note_on,60,0,120
2,note_on,51,0,0
2,note_on,56,48,0
2,note_on,54,48,0
2,note_on,54,0,120
2,note_on,56,0,0
2,note_on,51,49,0
2,note_on,60,49,0
2,note_on,60,0,120
2,note_on,51,0,0
2,note_on,56,49,0
2,note_on,54,49,0
2,note_on,54,0,120
2,note_on,56,0,0
2,note_on,51,48,0
2,note_on,60,48,0
2,note_on,60,0,120
2,note_on,51,0,0
2,note_on,56,47,0
2,note_on,54,47,0
2,note_on,54,0,120
2,note_on,56,0,0
2,note_on,51,47,0
2,note_on,60,47,0
2,note_on,60,0,120
2,note_on,51,0,0
2,note_on,56,46,0
2,note_on,54,46,0
2,note_on,54,0,120
2,note_on,56,0,0
2,note_on,51,46,0
2,note_on,60,46,0
2,note_on,60,0,120
2,note_on,51,0,0
2,note_on,56,45,0
2,note_on,54,45,0
2,note_on,54,0,120
2,note_on,56,0,0
2,note_on,44,54,0
2,note_on,44,0,120
2,note_on,56,40,0
2,note_on,54,40,0
2,note_on,54,0,120
2,note_on,56,0,0
2,note_on,51,41,0
2,note_on,60,41,0
2,note_on,60,0,120
2,note_on,51,0,0
2,note_on,56,43,0
2,note_on,54,43,0
2,note_on,54,0,120
2,note_on,56,0,0
2,note_on,51,47,0
2,note_on,60,47,0
2,note_on,60,0,120
2,note_on,51,0,0
2,note_on,56,46,0
2,note_on,54,46,0
2,note_on,54,0,120
2,note_on,56,0,0
2,note_on,51,47,0
2,note_on,60,47,0
2,note_on,60,0,120
2,note_on,51,0,0
2,note_on,56,48,0
2,note_on,54,48,0
2,note_on,54,0,120
2,note_on,56,0,0
2,note_on,51,49,0
2,note_on,60,49,0
2,note_on,60,0,120
2,note_on,51,0,0
2,note_on,56,49,0
2,note_on,54,49,0
2,note_on,54,0,120
2,note_on,56,0,0
2,note_on,51,48,0
2,note_on,60,48,0
2,note_on,60,0,120
2,note_on,51,0,0
2,note_on,56,47,0
2,note_on,54,47,0
2,note_on,54,0,120
2,note_on,56,0,0
2,note_on,51,47,0
2,note_on,60,47,0
2,note_on,60,0,120
2,note_on,51,0,0
2,note_on,56,46,0
2,note_on,54,46,0
2,note_on,54,0,120
2,note_on,56,0,0
2,note_on,51,46,0
2,note_on,60,46,0
2,note_on,60,0,120
2,note_on,51,0,0
2,note_on,56,45,0
2,note_on,54,45,0
2,note_on,54,0,120
2,note_on,56,0,0
2,note_on,49,56,0
2,note_on,49,0,120
2,note_on,65,42,0
2,note_on,61,42,0
2,note_on,61,0,120
2,note_on,65,0,0
2,note_on,56,43,0
2,note_on,68,43,0
2,note_on,68,0,120
2,note_on,56,0,0
2,note_on,65,45,0
2,note_on,61,45,0
2,note_on,61,0,120
2,note_on,65,0,0
2,note_on,56,49,0
2,note_on,68,49,0
2,note_on,68,0,120
2,note_on,56,0,0
2,note_on,65,48,0
2,note_on,61,48,0
2,note_on,61,0,120
2,note_on,65,0,0
2,note_on,56,49,0
2,note_on,68,49,0
2,note_on,68,0,120
2,note_on,56,0,0
2,note_on,65,50,0
2,note_on,61,50,0
2,note_on,61,0,120
2,note_on,65,0,0
2,note_on,56,51,0
2,note_on,68,51,0
2,note_on,68,0,120
2,note_on,56,0,0
2,note_on,65,51,0
2,note_on,61,51,0
2,note_on,61,0,120
2,note_on,65,0,0
2,note_on,56,50,0
2,note_on,68,50,0
2,note_on,68,0,120
2,note_on,56,0,0
2,note_on,65,49,0
2,note_on,61,49,0
2,note_on,61,0,120
2,note_on,65,0,0
2,note_on,56,49,0
2,note_on,68,49,0
2,note_on,68,0,120
2,note_on,56,0,0
2,note_on,65,48,0
2,note_on,61,48,0
2,note_on,61,0,120
2,note_on,65,0,0
2,note_on,56,48,0
2,note_on,68,48,0
2,note_on,68,0,120
2,note_on,56,0,0
2,note_on,65,47,0
2,note_on,61,47,0
2,note_on,61,0,120
2,note_on,65,0,0
2,note_on,49,56,0
2,note_on,49,0,120
2,note_on,61,42,0
2,note_on,65,42,0
2,note_on,65,0,120
2,note_on,61,0,0
2,note_on,56,43,0
2,note_on,68,43,0
2,note_on,68,0,120
2,note_on,56,0,0
2,note_on,61,45,0
2,note_on,65,45,0
2,note_on,65,0,120
2,note_on,61,0,0
2,note_on,68,49,0
2,note_on,68,0,240
2,note_on,73,55,0
2,note_on,73,0,240
2,note_on,77,58,0
2,note_on,77,0,240
2,note_on,80,62,0
2,note_on,80,0,240
2,note_on,85,66,0
2,note_on,85,0,240
2,note_on,85,69,0
2,note_on,85,0,240
2,note_on,85,80,0
2,note_on,82,80,0
2,note_on,82,0,720
2,note_on,85,0,0
2,note_on,80,66,0
2,note_on,84,66,0
2,note_on,84,0,240
2,note_on,80,0,0
2,note_on,79,68,0
2,note_on,82,68,0
2,note_on,82,0,480
2,note_on,79,0,0
2,note_on,80,64,0
2,note_on,84,64,0
2,note_on,84,0,480
2,note_on,80,0,0
2,note_on,85,80,0
2,note_on,82,80,0
2,note_on,82,0,720
2,note_on,85,0,0
2,note_on,80,66,0
2,note_on,84,66,0
2,note_on,84,0,240
2,note_on,80,0,0
2,note_on,79,68,0
2,note_on,82,68,0
2,note_on,82,0,480
2,note_on,79,0,0
2,note_on,80,64,0
2,note_on,84,64,0
2,note_on,84,0,480
2,note_on,80,0,0
2,note_on,85,80,0
2,note_on,82,80,0
2,note_on,82,0,720
2,note_on,85,0,0
2,note_on,80,66,0
2,note_on,84,66,0
2,note_on,84,0,240
2,note_on,80,0,0
2,note_on,79,68,0
2,note_on,82,68,0
2,note_on,82,0,480
2,note_on,79,0,0
2,note_on,77,65,0
2,note_on,80,65,0
2,note_on,80,0,480
2,note_on,77,0,0
2,note_on,79,70,0
2,note_on,76,70,0
2,note_on,76,0,480
2,note_on,79,0,0
2,note_on,74,70,0
2,note_on,77,70,0
2,note_on,77,0,480
2,note_on,74,0,0
2,note_on,77,75,0
2,note_on,73,75,0
2,note_on,73,0,480
2,note_on,77,0,0
2,note_on,72,75,0
2,note_on,77,75,0
2,note_on,77,0,480
2,note_on,72,0,0
2,note_on,71,76,0
2,note_on,74,75,480
2,note_on,74,0,480
2,note_on,71,0,0
2,note_on,68,72,0
2,note_on,60,72,0
2,note_on,72,72,0
2,note_on,68,0,480
2,note_on,67,68,0
2,note_on,67,0,480
2,note_on,72,0,0
2,note_on,60,0,0
2,note_on,46,61,0
2,note_on,54,72,0
2,note_on,49,61,0
2,note_on,49,0,720
2,note_on,54,0,0
2,note_on,46,0,0
2,note_on,44,50,0
2,note_on,48,50,0
2,note_on,53,59,0
2,note_on,53,0,240
2,note_on,48,0,0
2,note_on,44,0,0
2,note_on,52,61,0
2,note_on,43,51,0
2,note_on,46,51,0
2,note_on,46,0,480
2,note_on,43,0,0
2,note_on,52,0,0
2,note_on,44,48,0
2,note_on,48,48,0
2,note_on,53,57,0
2,note_on,53,0,480
2,note_on,48,0,0
2,note_on,44,0,0
2,note_on,46,61,0
2,note_on,54,72,0
2,note_on,49,61,0
2,note_on,49,0,720
2,note_on,54,0,0
2,note_on,46,0,0
2,note_on,44,50,0
2,note_on,48,50,0
2,note_on,53,59,0
2,note_on,53,0,240
2,note_on,48,0,0
2,note_on,44,0,0
2,note_on,52,65,0
2,note_on,43,51,0
2,note_on,46,54,0
2,note_on,46,0,480
2,note_on,43,0,0
2,note_on,52,0,0
2,note_on,44,48,0
2,note_on,48,48,0
2,note_on,53,57,0
2,note_on,53,0,480
2,note_on,48,0,0
2,note_on,44,0,0
2,note_on,46,61,0
2,note_on,54,72,0
2,note_on,49,61,0
2,note_on,49,0,720
2,note_on,54,0,0
2,note_on,46,0,0
2,note_on,53,59,0
2,note_on,44,50,0
2,note_on,48,50,0
2,note_on,48,0,240
2,note_on,44,0,0
2,note_on,53,0,0
2,note_on,52,61,0
2,note_on,43,51,0
2,note_on,46,61,0
2,note_on,46,0,480
2,note_on,43,0,0
2,note_on,52,0,0
2,note_on,49,58,0
2,note_on,41,49,0
2,note_on,44,49,0
2,note_on,44,0,480
2,note_on,41,0,0
2,note_on,49,0,0
2,note_on,40,53,0
2,note_on,48,63,0
2,note_on,43,53,0
2,note_on,43,0,480
2,note_on,48,0,0
2,note_on,40,0,0
2,note_on,47,63,0
2,note_on,44,53,0
2,note_on,38,53,0
2,note_on,41,53,0
2,note_on,41,0,480
2,note_on,47,0,0
2,note_on,44,0,0
2,note_on,38,0,0
2,note_on,46,67,0
2,note_on,43,56,0
2,note_on,40,56,0
2,note_on,40,0,480
2,note_on,43,0,0
2,note_on,46,0,0
2,note_on,41,67,0
2,note_on,44,67,0
2,note_on,44,0,480
2,note_on,41,0,0
2,note_on,44,66,0
2,note_on,35,66,0
2,note_on,44,0,480
2,note_on,42,64,0
2,note_on,42,0,480
2,note_on,35,0,0
2,note_on,41,61,0
2,note_on,36,61,0
2,note_on,41,0,480
2,note_on,40,59,0
2,note_on,40,0,480
2,note_on,36,0,0
2,note_on,29,59,0
2,note_on,32,59,0
2,note_on,36,59,0
2,note_on,41,70,0
2,note_on,41,0,240
2,note_on,29,0,0
2,note_on,32,0,0
2,note_on,36,0,0
2,note_on,48,59,360
2,note_on,48,0,120
2,note_on,53,62,0
2,note_on,53,0,120
2,note_on,56,64,0
2,note_on,56,0,120
2,note_on,60,70,0
2,note_on,60,0,120
2,note_on,61,64,0
2,note_on,61,0,120
2,note_on,60,64,0
2,note_on,60,0,120
2,note_on,58,64,0
2,note_on,58,0,120
2,note_on,56,70,0
2,note_on,56,0,120
2,note_on,55,63,0
2,note_on,55,0,120
2,note_on,53,63,0
2,note_on,53,0,120
2,note_on,51,63,0
2,note_on,51,0,120
2,note_on,49,67,0
2,note_on,49,0,120
2,note_on,48,60,0
2,note_on,48,0,120
2,note_on,46,60,0
2,note_on,46,0,120
2,note_on,44,60,0
2,note_on,44,0,120
2,note_on,43,71,0
2,note_on,43,0,120
2,note_on,44,65,0
2,note_on,44,0,120
2,note_on,46,73,0
2,note_on,46,0,120
2,note_on,44,69,0
2,note_on,44,0,120
2,note_on,43,73,0
2,note_on,43,0,120
2,note_on,41,73,0
2,note_on,41,0,120
2,note_on,40,72,0
2,note_on,40,0,120
2,note_on,38,72,0
2,note_on,38,0,120
2,note_on,36,71,0
2,note_on,36,0,120
2,note_on,34,71,0
2,note_on,34,0,120
2,note_on,32,70,0
2,note_on,32,0,120
2,note_on,31,70,0
2,note_on,31,0,120
2,note_on,29,70,0
2,note_on,32,70,0
2,note_on,36,70,0
2,note_on,41,70,0
2,note_on,41,0,240
2,note_on,29,0,0
2,note_on,32,0,0
2,note_on,36,0,0
2,note_on,60,59,360
2,note_on,60,0,120
2,note_on,65,62,0
2,note_on,65,0,120
2,note_on,68,64,0
2,note_on,68,0,120
2,note_on,72,70,0
2,note_on,72,0,120
2,note_on,73,64,0
2,note_on,73,0,120
2,note_on,72,64,0
2,note_on,72,0,120
2,note_on,70,64,0
2,note_on,70,0,120
2,note_on,68,70,0
2,note_on,68,0,120
2,note_on,67,63,0
2,note_on,67,0,120
2,note_on,65,63,0
2,note_on,65,0,120
2,note_on,63,63,0
2,note_on,63,0,120
2,note_on,61,67,0
2,note_on,61,0,120
2,note_on,60,60,0
2,note_on,60,0,120
2,note_on,58,60,0
2,note_on,58,0,120
2,note_on,56,60,0
2,note_on,56,0,120
2,note_on,55,71,0
2,note_on,55,0,120
2,note_on,56,65,0
2,note_on,56,0,120
2,note_on,58,73,0
2,note_on,58,0,120
2,note_on,56,69,0
2,note_on,56,0,120
2,note_on,55,73,0
2,note_on,55,0,120
2,note_on,53,73,0
2,note_on,53,0,120
2,note_on,52,72,0
2,note_on,52,0,120
2,note_on,50,72,0
2,note_on,50,0,120
2,note_on,48,71,0
2,note_on,48,0,120
2,note_on,46,71,0
2,note_on,46,0,120
2,note_on,44,70,0
2,note_on,44,0,120
2,note_on,43,70,0
2,note_on,43,0,120
2,note_on,41,67,0
2,note_on,41,0,120
2,note_on,43,60,0
2,note_on,43,0,120
2,note_on,44,60,0
2,note_on,44,0,120
2,note_on,46,60,0
2,note_on,46,0,120
2,note_on,48,71,0
2,note_on,48,0,120
2,note_on,50,65,0
2,note_on,50,0,120
2,note_on,52,73,0
2,note_on,52,0,120
2,note_on,53,69,0
2,note_on,53,0,120
2,note_on,55,73,0
2,note_on,55,0,120
2,note_on,53,73,0
2,note_on,53,0,120
2,note_on,52,72,0
2,note_on,52,0,120
2,note_on,50,72,0
2,note_on,50,0,120
2,note_on,48,71,0
2,note_on,48,0,120
2,note_on,46,71,0
2,note_on,46,0,120
2,note_on,44,70,0
2,note_on,44,0,120
2,note_on,43,70,0
2,note_on,43,0,120
2,note_on,41,67,0
2,note_on,41,0,74
2,note_on,43,60,0
2,note_on,43,0,120
2,note_on,44,60,0
2,note_on,44,0,120
2,note_on,46,60,0
2,note_on,46,0,120
2,note_on,48,71,0
2,note_on,48,0,40
2,note_on,50,65,0
2,note_on,50,0,25
2,note_on,52,73,0
2,note_on,52,0,120
2,note_on,53,69,0
2,note_on,53,0,120
2,note_on,55,73,0
2,note_on,55,0,120
2,note_on,53,73,0
2,note_on,53,0,120
2,note_on,52,72,0
2,note_on,52,0,120
2,note_on,50,72,0
2,note_on,50,0,120
2,note_on,48,71,0
2,note_on,48,0,120
2,note_on,46,71,0
2,note_on,46,0,120
2,note_on,44,70,0
2,note_on,44,0,120
2,note_on,43,70,0
2,note_on,43,0,120
2,note_on,41,67,0
2,note_on,41,0,480
2,note_on,48,72,240
2,note_on,36,60,0
2,note_on,41,60,0
2,note_on,44,60,0
2,note_on,44,0,180
2,note_on,48,0,0
2,note_on,36,0,0
2,note_on,41,0,0
2,note_on,43,63,60
2,note_on,40,63,0
2,note_on,46,63,0
2,note_on,36,53,0
2,note_on,48,76,0
2,note_on,48,0,180
2,note_on,46,0,0
2,note_on,43,0,0
2,note_on,40,0,0
2,note_on,36,0,0
2,note_on,43,62,60
2,note_on,36,53,0
2,note_on,40,62,0
2,note_on,46,62,0
2,note_on,48,74,0
2,note_on,48,0,180
2,note_on,40,0,0
2,note_on,43,0,0
2,note_on,36,0,0
2,note_on,46,0,0
2,note_on,43,52,60
2,note_on,40,52,0
2,note_on,36,52,0
2,note_on,46,62,0
2,note_on,48,76,0
2,note_on,48,0,180
2,note_on,36,0,0
2,note_on,43,0,0
2,note_on,40,0,0
2,note_on,46,0,0
2,note_on,43,59,60
2,note_on,46,59,0
2,note_on,36,50,0
2,note_on,40,59,0
2,note_on,48,71,0
2,note_on,48,0,180
2,note_on,36,0,0
2,note_on,43,0,0
2,note_on,46,0,0
2,note_on,40,0,0
2,note_on,36,56,60
2,note_on,48,67,0
2,note_on,44,56,0
2,note_on,41,56,0
2,note_on,41,0,480
2,note_on,36,0,0
2,note_on,48,0,0
2,note_on,44,0,0
2,note_on,60,72,240
2,note_on,48,60,0
2,note_on,53,60,0
2,note_on,56,60,0
2,note_on,56,0,180
2,note_on,60,0,0
2,note_on,48,0,0
2,note_on,53,0,0
2,note_on,55,63,60
2,note_on,52,63,0
2,note_on,58,63,0
2,note_on,48,53,0
2,note_on,60,76,0
2,note_on,60,0,180
2,note_on,58,0,0
2,note_on,55,0,0
2,note_on,52,0,0
2,note_on,48,0,0
2,note_on,55,62,60
2,note_on,48,53,0
2,note_on,52,62,0
2,note_on,58,62,0
2,note_on,60,74,0
2,note_on,60,0,180
2,note_on,52,0,0
2,note_on,55,0,0
2,note_on,48,0,0
2,note_on,58,0,0
2,note_on,55,52,60
2,note_on,52,52,0
2,note_on,48,52,0
2,note_on,58,62,0
2,note_on,60,76,0
2,note_on,60,0,180
2,note_on,48,0,0
2,note_on,55,0,0
2,note_on,52,0,0
2,note_on,58,0,0
2,note_on,55,59,60
2,note_on,58,59,0
2,note_on,48,50,0
2,note_on,52,59,0
2,note_on,60,71,0
2,note_on,60,0,180
2,note_on,48,0,0
2,note_on,55,0,0
2,note_on,58,0,0
2,note_on,52,0,0
2,note_on,48,56,60
2,note_on,60,67,0
2,note_on,56,56,0
2,note_on,53,56,0
2,note_on,53,0,480
2,note_on,48,0,0
2,note_on,60,0,0
2,note_on,56,0,0
2,note_on,48,64,240
2,note_on,36,54,0
2,note_on,41,54,0
2,note_on,44,54,0
2,note_on,44,0,180
2,note_on,48,0,0
2,note_on,36,0,0
2,note_on,41,0,0
2,note_on,43,56,60
2,note_on,40,56,0
2,note_on,46,56,0
2,note_on,36,47,0
2,note_on,48,68,0
2,note_on,48,0,180
2,note_on,46,0,0
2,note_on,43,0,0
2,note_on,40,0,0
2,note_on,36,0,0
2,note_on,43,55,60
2,note_on,36,47,0
2,note_on,40,55,0
2,note_on,46,55,0
2,note_on,48,66,0
2,note_on,48,0,180
2,note_on,40,0,0
2,note_on,43,0,0
2,note_on,36,0,0
2,note_on,46,0,0
2,note_on,43,46,60
2,note_on,40,46,0
2,note_on,36,46,0
2,note_on,46,55,0
2,note_on,48,68,0
2,note_on,48,0,180
2,note_on,36,0,0
2,note_on,43,0,0
2,note_on,40,0,0
2,note_on,46,0,0
2,note_on,43,53,60
2,note_on,46,53,0
2,note_on,36,45,0
2,note_on,40,53,0
2,note_on,48,63,0
2,note_on,48,0,180
2,note_on,36,0,0
2,note_on,43,0,0
2,note_on,46,0,0
2,note_on,40,0,0
2,note_on,43,56,60
2,note_on,40,56,0
2,note_on,46,56,0
2,note_on,36,47,0
2,note_on,48,68,0
2,note_on,48,0,180
2,note_on,46,0,0
2,note_on,43,0,0
2,note_on,40,0,0
2,note_on,36,0,0
2,note_on,43,55,60
2,note_on,36,47,0
2,note_on,40,55,0
2,note_on,46,55,0
2,note_on,48,66,0
2,note_on,48,0,180
2,note_on,40,0,0
2,note_on,43,0,0
2,note_on,36,0,0
2,note_on,46,0,0
2,note_on,43,46,60
2,note_on,40,46,0
2,note_on,36,46,0
2,note_on,46,55,0
2,note_on,48,68,0
2,note_on,48,0,180
2,note_on,36,0,0
2,note_on,43,0,0
2,note_on,40,0,0
2,note_on,46,0,0
2,note_on,43,53,60
2,note_on,46,53,0
2,note_on,36,45,0
2,note_on,40,53,0
2,note_on,48,63,0
2,note_on,48,0,180
2,note_on,36,0,0
2,note_on,43,0,0
2,note_on,46,0,0
2,note_on,40,0,0
2,note_on,43,56,60
2,note_on,40,56,0
2,note_on,46,56,0
2,note_on,36,47,0
2,note_on,48,68,0
2,note_on,48,0,180
2,note_on,46,0,0
2,note_on,43,0,0
2,note_on,40,0,0
2,note_on,36,0,0
2,note_on,43,55,60
2,note_on,36,47,0
2,note_on,40,55,0
2,note_on,46,55,0
2,note_on,48,66,0
2,note_on,48,0,180
2,note_on,40,0,0
2,note_on,43,0,0
2,note_on,36,0,0
2,note_on,46,0,0
2,note_on,43,46,60
2,note_on,40,46,0
2,note_on,36,46,0
2,note_on,46,55,0
2,note_on,48,68,0
2,note_on,48,0,180
2,note_on,36,0,0
2,note_on,43,0,0
2,note_on,40,0,0
2,note_on,46,0,0
2,note_on,48,63,60
2,note_on,43,53,0
2,note_on,46,53,0
2,note_on,36,45,0
2,note_on,40,53,0
2,note_on,40,0,180
2,note_on,46,0,0
2,note_on,48,0,0
2,note_on,43,0,0
2,note_on,36,0,0
2,note_on,29,62,60
2,note_on,32,62,0
2,note_on,36,62,0
2,note_on,41,75,0
2,note_on,41,0,960
2,note_on,29,0,0
2,note_on,32,0,0
2,note_on,36,0,0
2,note_on,29,62,0
2,note_on,32,62,0
2,note_on,36,62,0
2,note_on,41,75,0
2,note_on,41,0,960
2,note_on,29,0,0
2,note_on,32,0,0
2,note_on,36,0,0
2,note_on,36,40,0
2,note_on,48,40,0
2,note_on,48,0,120
2,note_on,36,0,0
2,note_on,36,36,120
2,note_on,36,0,120
2,note_on,36,36,120
2,note_on,36,0,120
2,note_on,36,36,120
2,note_on,36,0,120
2,note_on,29,40,120
2,note_on,41,40,0
2,note_on,41,0,120
2,note_on,29,0,0
2,note_on,41,37,120
2,note_on,41,0,120
2,note_on,41,37,120
2,note_on,41,0,120
2,note_on,41,37,120
2,note_on,41,0,120
2,note_on,36,40,120
2,note_on,48,40,0
2,note_on,48,0,120
2,note_on,36,0,0
2,note_on,36,36,120
2,note_on,36,0,120
2,note_on,36,36,120
2,note_on,36,0,120
2,note_on,36,36,120
2,note_on,36,0,120
2,note_on,29,40,120
2,note_on,41,40,0
2,note_on,41,0,120
2,note_on,29,0,0
2,note_on,41,37,120
2,note_on,41,0,120
2,note_on,41,38,120
2,note_on,41,0,120
2,note_on,41,39,120
2,note_on,41,0,120
2,note_on,31,44,120
2,note_on,31,0,120
2,note_on,43,39,120
2,note_on,43,0,120
2,note_on,31,38,120
2,note_on,31,0,120
2,note_on,31,38,120
2,note_on,31,0,120
2,note_on,36,48,120
2,note_on,36,0,480
2,note_on,36,53,240
2,note_on,36,0,60
2,note_on,34,55,0
2,note_on,34,0,60
2,note_on,32,57,0
2,note_on,32,0,60
2,note_on,31,61,0
2,note_on,31,0,60
2,note_on,29,62,0
2,note_on,32,62,0
2,note_on,36,62,0
2,note_on,41,75,0
2,note_on,41,0,960
2,note_on,29,0,0
2,note_on,32,0,0
2,note_on,36,0,0
2,note_on,29,62,0
2,note_on,32,62,0
2,note_on,36,62,0
2,note_on,41,75,0
2,note_on,41,0,960
2,note_on,29,0,0
2,note_on,32,0,0
2,note_on,36,0,0
2,note_on,36,40,0
2,note_on,48,40,0
2,note_on,48,0,120
2,note_on,36,0,0
2,note_on,36,36,120
2,note_on,36,0,120
2,note_on,36,36,120
2,note_on,36,0,120
2,note_on,36,36,120
2,note_on,36,0,120
2,note_on,29,40,120
2,note_on,41,40,0
2,note_on,41,0,120
2,note_on,29,0,0
2,note_on,41,37,120
2,note_on,41,0,120
2,note_on,41,37,120
2,note_on,41,0,120
2,note_on,41,37,120
2,note_on,41,0,120
2,note_on,36,40,120
2,note_on,48,40,0
2,note_on,48,0,120
2,note_on,36,0,0
2,note_on,36,36,120
2,note_on,36,0,120
2,note_on,36,36,120
2,note_on,36,0,120
2,note_on,36,36,120
2,note_on,36,0,120
2,note_on,29,40,120
2,note_on,41,40,0
2,note_on,41,0,120
2,note_on,29,0,0
2,note_on,41,37,120
2,note_on,41,0,120
2,note_on,41,38,120
2,note_on,41,0,120
2,note_on,41,39,120
2,note_on,41,0,120
2,note_on,31,44,120
2,note_on,31,0,120
2,note_on,43,39,120
2,note_on,43,0,120
2,note_on,31,38,120
2,note_on,31,0,120
2,note_on,31,38,120
2,note_on,31,0,120
2,note_on,36,48,120
2,note_on,36,0,480
2,note_on,39,63,240
2,note_on,39,0,80
2,note_on,41,66,0
2,note_on,41,0,80
2,note_on,43,68,0
2,note_on,43,0,80
2,note_on,32,62,0
2,note_on,36,62,0
2,note_on,39,62,0
2,note_on,44,75,0
2,note_on,44,0,960
2,note_on,32,0,0
2,note_on,36,0,0
2,note_on,39,0,0
2,note_on,32,62,0
2,note_on,36,62,0
2,note_on,39,62,0
2,note_on,44,75,0
2,note_on,44,0,960
2,note_on,32,0,0
2,note_on,36,0,0
2,note_on,39,0,0
2,note_on,39,40,0
2,note_on,51,40,0
2,note_on,51,0,120
2,note_on,39,0,0
2,note_on,39,36,120
2,note_on,39,0,120
2,note_on,39,36,120
2,note_on,39,0,120
2,note_on,39,36,120
2,note_on,39,0,120
2,note_on,32,40,120
2,note_on,44,40,0
2,note_on,44,0,120
2,note_on,32,0,0
2,note_on,44,37,120
2,note_on,44,0,120
2,note_on,44,37,120
2,note_on,44,0,120
2,note_on,44,37,120
2,note_on,44,0,120
2,note_on,39,40,120
2,note_on,51,40,0
2,note_on,51,0,120
2,note_on,39,0,0
2,note_on,39,36,120
2,note_on,39,0,120
2,note_on,39,36,120
2,note_on,39,0,120
2,note_on,39,36,120
2,note_on,39,0,120
2,note_on,32,40,120
2,note_on,44,40,0
2,note_on,44,0,120
2,note_on,32,0,0
2,note_on,44,37,120
2,note_on,44,0,120
2,note_on,44,37,120
2,note_on,44,0,120
2,note_on,44,37,120
2,note_on,44,0,120
2,note_on,29,42,120
2,note_on,41,42,0
2,note_on,41,0,120
2,note_on,29,0,0
2,note_on,29,37,120
2,note_on,29,0,120
2,note_on,29,38,120
2,note_on,29,0,120
2,note_on,29,38,120
2,note_on,29,0,120
2,note_on,34,43,120
2,note_on,46,43,0
2,note_on,46,0,120
2,note_on,34,0,0
2,note_on,46,40,120
2,note_on,46,0,120
2,note_on,46,42,120
2,note_on,46,0,120
2,note_on,46,42,120
2,note_on,46,0,120
2,note_on,36,48,120
2,note_on,36,0,120
2,note_on,48,43,120
2,note_on,48,0,120
2,note_on,36,42,120
2,note_on,36,0,120
2,note_on,36,42,120
2,note_on,36,0,120
2,note_on,29,48,120
2,note_on,41,48,0
2,note_on,41,0,480
2,note_on,29,0,0
2,note_on,39,63,240
2,note_on,39,0,80
2,note_on,41,66,0
2,note_on,41,0,80
2,note_on,43,68,0
2,note_on,43,0,80
2,note_on,32,62,0
2,note_on,36,62,0
2,note_on,39,62,0
2,note_on,44,75,0
2,note_on,44,0,960
2,note_on,32,0,0
2,note_on,36,0,0
2,note_on,39,0,0
2,note_on,32,62,0
2,note_on,36,62,0
2,note_on,39,62,0
2,note_on,44,75,0
2,note_on,44,0,960
2,note_on,32,0,0
2,note_on,36,0,0
2,note_on,39,0,0
2,note_on,39,40,0
2,note_on,51,40,0
2,note_on,51,0,120
2,note_on,39,0,0
2,note_on,39,36,120
2,note_on,39,0,120
2,note_on,39,36,120
2,note_on,39,0,120
2,note_on,39,36,120
2,note_on,39,0,120
2,note_on,32,40,120
2,note_on,44,40,0
2,note_on,44,0,120
2,note_on,32,0,0
2,note_on,44,37,120
2,note_on,44,0,120
2,note_on,44,37,120
2,note_on,44,0,120
2,note_on,44,37,120
2,note_on,44,0,120
2,note_on,39,40,120
2,note_on,51,40,0
2,note_on,51,0,120
2,note_on,39,0,0
2,note_on,39,36,120
2,note_on,39,0,120
2,note_on,39,36,120
2,note_on,39,0,120
2,note_on,39,36,120
2,note_on,39,0,120
2,note_on,32,40,120
2,note_on,44,40,0
2,note_on,44,0,120
2,note_on,32,0,0
2,note_on,44,37,120
2,note_on,44,0,120
2,note_on,44,37,120
2,note_on,44,0,120
2,note_on,44,37,120
2,note_on,44,0,120
2,note_on,29,42,120
2,note_on,41,42,0
2,note_on,41,0,120
2,note_on,29,0,0
2,note_on,29,37,120
2,note_on,29,0,120
2,note_on,29,38,120
2,note_on,29,0,120
2,note_on,29,38,120
2,note_on,29,0,120
2,note_on,34,43,120
2,note_on,46,43,0
2,note_on,46,0,120
2,note_on,34,0,0
2,note_on,46,40,120
2,note_on,46,0,120
2,note_on,46,42,120
2,note_on,46,0,120
2,note_on,46,42,120
2,note_on,46,0,120
2,note_on,36,48,120
2,note_on,36,0,120
2,note_on,48,43,120
2,note_on,48,0,120
2,note_on,36,42,120
2,note_on,36,0,120
2,note_on,36,42,120
2,note_on,36,0,120
2,note_on,29,54,120
2,note_on,41,54,0
2,note_on,41,0,120
2,note_on,29,0,0
2,note_on,41,45,0
2,note_on,44,49,120
2,note_on,48,52,120
2,note_on,53,67,120
2,note_on,53,0,600
2,note_on,41,0,0
2,note_on,44,0,0
2,note_on,48,0,0
2,note_on,41,45,0
2,note_on,44,49,120
2,note_on,48,52,120
2,note_on,53,67,120
2,note_on,53,0,600
2,note_on,41,0,0
2,note_on,44,0,0
2,note_on,48,0,0
2,note_on,41,45,0
2,note_on,44,49,120
2,note_on,48,52,120
2,note_on,53,67,120
2,note_on,53,0,600
2,note_on,41,0,0
2,note_on,44,0,0
2,note_on,48,0,0
2,note_on,41,45,0
2,note_on,44,49,120
2,note_on,48,52,120
2,note_on,53,67,120
2,note_on,53,0,480
2,note_on,41,0,0
2,note_on,44,0,0
2,note_on,48,0,0
2,note_on,46,45,120
2,note_on,49,49,120
2,note_on,54,52,120
2,note_on,58,67,120
2,note_on,58,0,600
2,note_on,46,0,0
2,note_on,49,0,0
2,note_on,54,0,0
2,note_on,46,45,0
2,note_on,49,49,120
2,note_on,54,52,120
2,note_on,58,67,120
2,note_on,58,0,480
2,note_on,46,0,0
2,note_on,49,0,0
2,note_on,54,0,0
2,note_on,48,45,120
2,note_on,55,49,120
2,note_on,58,52,120
2,note_on,60,67,120
2,note_on,60,0,600
2,note_on,48,0,0
2,note_on,55,0,0
2,note_on,58,0,0
2,note_on,48,45,0
2,note_on,55,49,120
2,note_on,58,52,120
2,note_on,60,67,120
2,note_on,60,0,480
2,note_on,48,0,0
2,note_on,55,0,0
2,note_on,58,0,0
2,note_on,41,56,0
2,note_on,53,56,0
2,note_on,53,0,120
2,note_on,41,0,0
2,note_on,53,47,0
2,note_on,56,51,120
2,note_on,60,54,120
2,note_on,65,71,120
2,note_on,65,0,600
2,note_on,53,0,0
2,note_on,56,0,0
2,note_on,60,0,0
2,note_on,53,47,0
2,note_on,56,51,120
2,note_on,60,54,120
2,note_on,65,71,120
2,note_on,65,0,600
2,note_on,53,0,0
2,note_on,56,0,0
2,note_on,60,0,0
2,note_on,53,47,0
2,note_on,56,51,120
2,note_on,60,54,120
2,note_on,65,71,120
2,note_on,65,0,600
2,note_on,53,0,0
2,note_on,56,0,0
2,note_on,60,0,0
2,note_on,53,47,0
2,note_on,56,51,120
2,note_on,60,54,120
2,note_on,65,71,120
2,note_on,65,0,480
2,note_on,53,0,0
2,note_on,56,0,0
2,note_on,60,0,0
2,note_on,58,47,120
2,note_on,61,51,120
2,note_on,66,54,120
2,note_on,70,71,120
2,note_on,70,0,600
2,note_on,58,0,0
2,note_on,61,0,0
2,note_on,66,0,0
2,note_on,58,47,0
2,note_on,61,51,120
2,note_on,66,54,120
2,note_on,70,71,120
2,note_on,70,0,480
2,note_on,58,0,0
2,note_on,61,0,0
2,note_on,66,0,0
2,note_on,60,47,120
2,note_on,64,51,120
2,note_on,67,54,120
2,note_on,72,71,120
2,note_on,72,0,600
2,note_on,60,0,0
2,note_on,64,0,0
2,note_on,67,0,0
2,note_on,48,47,0
2,note_on,52,51,120
2,note_on,55,54,120
2,note_on,60,73,120
2,note_on,60,0,480
2,note_on,48,0,0
2,note_on,52,0,0
2,note_on,55,0,0
2,note_on,41,77,0
2,note_on,53,77,0
2,note_on,53,0,120
2,note_on,41,0,0
2,note_on,72,71,600
2,note_on,77,74,120
2,note_on,80,89,120
2,note_on,80,0,720
2,note_on,77,0,0
2,note_on,72,0,0
2,note_on,60,67,0
2,note_on,60,0,240
2,note_on,65,82,0
2,note_on,65,0,240
2,note_on,72,71,480
2,note_on,77,74,120
2,note_on,80,87,120
2,note_on,80,0,720
2,note_on,77,0,0
2,note_on,72,0,0
2,note_on,60,67,0
2,note_on,60,0,240
2,note_on,65,82,0
2,note_on,65,0,240
2,note_on,72,71,480
2,note_on,77,74,120
2,note_on,80,86,120
2,note_on,80,0,720
2,note_on,77,0,0
2,note_on,72,0,0
2,note_on,60,67,0
2,note_on,60,0,240
2,note_on,65,85,0
2,note_on,65,0,240
2,note_on,72,71,480
2,note_on,77,74,120
2,note_on,80,88,120
2,note_on,80,0,720
2,note_on,77,0,0
2,note_on,72,0,0
2,note_on,60,66,0
2,note_on,60,0,240
2,note_on,65,88,0
2,note_on,65,0,480
2,note_on,60,67,240
2,note_on,60,0,240
2,note_on,53,89,0
2,note_on,53,0,480
2,note_on,48,66,240
2,note_on,48,0,240
2,note_on,41,92,0
2,note_on,41,0,480
2,note_on,36,63,240
2,note_on,36,0,240
2,note_on,29,87,0
2,note_on,29,0,240
2,note_on,36,65,0
2,note_on,36,0,240
2,note_on,29,89,0
2,note_on,29,0,240
2,note_on,36,64,0
2,note_on,36,0,240
2,note_on,29,72,0
2,note_on,29,0,120
2,note_on,32,63,0
2,note_on,32,0,120
2,note_on,36,63,0
2,note_on,36,0,120
2,note_on,41,63,0
2,note_on,41,0,120
2,note_on,29,72,0
2,note_on,29,0,120
2,note_on,32,63,0
2,note_on,32,0,120
2,note_on,36,63,0
2,note_on,36,0,120
2,note_on,41,63,0
2,note_on,41,0,120
2,note_on,29,72,0
2,note_on,29,0,120
2,note_on,32,63,0
2,note_on,32,0,120
2,note_on,36,63,0
2,note_on,36,0,120
2,note_on,41,63,0
2,note_on,41,0,120
2,note_on,29,72,0
2,note_on,29,0,120
2,note_on,32,63,0
2,note_on,32,0,120
2,note_on,36,63,0
2,note_on,36,0,120
2,note_on,41,63,0
2,note_on,41,0,120
2,note_on,29,72,0
2,note_on,29,0,120
2,note_on,32,63,0
2,note_on,32,0,120
2,note_on,36,63,0
2,note_on,36,0,120
2,note_on,41,63,0
2,note_on,41,0,120
2,note_on,29,72,0
2,note_on,29,0,120
2,note_on,32,63,0
2,note_on,32,0,120
2,note_on,36,63,0
2,note_on,36,0,120
2,note_on,41,63,0
2,note_on,41,0,120
2,note_on,29,72,0
2,note_on,29,0,120
2,note_on,32,63,0
2,note_on,32,0,120
2,note_on,36,63,0
2,note_on,36,0,120
2,note_on,41,63,0
2,note_on,41,0,120
2,note_on,29,72,0
2,note_on,29,0,120
2,note_on,32,63,0
2,note_on,32,0,120
2,note_on,36,63,0
2,note_on,36,0,120
2,note_on,41,63,0
2,note_on,41,0,120
2,note_on,29,72,0
2,note_on,29,0,120
2,note_on,32,63,0
2,note_on,32,0,120
2,note_on,36,63,0
2,note_on,36,0,120
2,note_on,41,63,0
2,note_on,41,0,120
2,note_on,29,72,0
2,note_on,29,0,120
2,note_on,32,63,0
2,note_on,32,0,120
2,note_on,36,63,0
2,note_on,36,0,120
2,note_on,41,63,0
2,note_on,41,0,120
2,note_on,29,72,0
2,note_on,29,0,120
2,note_on,32,63,0
2,note_on,32,0,120
2,note_on,36,63,0
2,note_on,36,0,120
2,note_on,41,63,0
2,note_on,41,0,120
2,note_on,29,72,0
2,note_on,29,0,120
2,note_on,32,63,0
2,note_on,32,0,120
2,note_on,36,63,0
2,note_on,36,0,120
2,note_on,41,63,0
2,note_on,41,0,120
2,note_on,29,69,0
2,note_on,32,69,0
2,note_on,36,69,0
2,note_on,41,81,0
2,note_on,41,0,240
2,note_on,29,0,0
2,note_on,32,0,0
2,note_on,36,0,0
2,note_on,29,72,720
2,note_on,32,72,0
2,note_on,36,72,0
2,note_on,41,85,0
2,note_on,41,0,240
2,note_on,29,0,0
2,note_on,32,0,0
2,note_on,36,0,0
2,note_on,29,72,720
2,note_on,32,72,0
2,note_on,36,72,0
2,note_on,41,85,0
2,note_on,41,0,240
2,note_on,29,0,0
2,note_on,32,0,0
2,note_on,36,0,0
