Track,Message Type,Note,Velocity,Time
1,note_on,49,39,0
1,note_on,53,39,0
1,note_on,56,47,0
1,note_on,56,0,480
1,note_on,53,0,0
1,note_on,49,0,0
1,note_on,49,37,0
1,note_on,58,44,0
1,note_on,54,44,0
1,note_on,54,0,480
1,note_on,58,0,0
1,note_on,49,0,0
1,note_on,49,37,0
1,note_on,53,37,0
1,note_on,56,44,0
1,note_on,56,0,720
1,note_on,53,0,0
1,note_on,49,0,0
1,note_on,58,44,0
1,note_on,51,37,0
1,note_on,49,37,0
1,note_on,49,0,240
1,note_on,51,0,0
1,note_on,58,0,0
1,note_on,49,39,0
1,note_on,51,39,0
1,note_on,56,47,0
1,note_on,56,0,480
1,note_on,51,0,0
1,note_on,49,0,0
1,note_on,56,46,0
1,note_on,48,38,0
1,note_on,51,38,0
1,note_on,51,0,480
1,note_on,48,0,0
1,note_on,56,0,0
1,note_on,49,39,0
1,note_on,53,39,0
1,note_on,56,47,0
1,note_on,56,0,960
1,note_on,53,0,0
1,note_on,49,0,0
1,note_on,61,54,0
1,note_on,56,45,0
1,note_on,53,45,0
1,note_on,53,0,480
1,note_on,56,0,0
1,note_on,61,0,0
1,note_on,54,47,0
1,note_on,58,47,0
1,note_on,61,56,0
1,note_on,61,0,480
1,note_on,58,0,0
1,note_on,54,0,0
1,note_on,56,36,0
1,note_on,53,36,0
1,note_on,61,44,0
1,note_on,61,0,720
1,note_on,53,0,0
1,note_on,56,0,0
1,note_on,52,37,0
1,note_on,61,44,0
1,note_on,55,37,0
1,note_on,55,0,240
1,note_on,61,0,0
1,note_on,52,0,0
1,note_on,54,39,0
1,note_on,51,39,0
1,note_on,61,47,0
1,note_on,61,0,480
1,note_on,51,0,0
1,note_on,54,0,0
1,note_on,51,37,0
1,note_on,60,43,0
1,note_on,54,37,0
1,note_on,54,0,480
1,note_on,60,0,0
1,note_on,51,0,0
1,note_on,49,37,0
1,note_on,53,37,0
1,note_on,61,43,0
1,note_on,61,0,720
1,note_on,53,0,0
1,note_on,49,0,0
1,note_on,49,39,240
1,note_on,53,39,0
1,note_on,56,47,0
1,note_on,56,0,480
1,note_on,53,0,0
1,note_on,49,0,0
1,note_on,49,37,0
1,note_on,54,44,0
1,note_on,58,44,0
1,note_on,58,0,480
1,note_on,54,0,0
1,note_on,49,0,0
1,note_on,49,37,0
1,note_on,53,37,0
1,note_on,56,44,0
1,note_on,56,0,720
1,note_on,53,0,0
1,note_on,49,0,0
1,note_on,49,37,0
1,note_on,51,37,0
1,note_on,58,44,0
1,note_on,58,0,240
1,note_on,51,0,0
1,note_on,49,0,0
1,note_on,49,39,0
1,note_on,51,39,0
1,note_on,56,47,0
1,note_on,56,0,480
1,note_on,51,0,0
1,note_on,49,0,0
1,note_on,48,38,0
1,note_on,51,38,0
1,note_on,56,46,0
1,note_on,56,0,480
1,note_on,51,0,0
1,note_on,48,0,0
1,note_on,49,39,0
1,note_on,53,39,0
1,note_on,56,47,0
1,note_on,56,0,960
1,note_on,53,0,0
1,note_on,49,0,0
1,note_on,53,45,0
1,note_on,56,45,0
1,note_on,61,54,0
1,note_on,61,0,480
1,note_on,56,0,0
1,note_on,53,0,0
1,note_on,54,47,0
1,note_on,58,47,0
1,note_on,61,56,0
1,note_on,61,0,480
1,note_on,58,0,0
1,note_on,54,0,0
1,note_on,53,34,0
1,note_on,56,34,0
1,note_on,61,41,0
1,note_on,61,0,720
1,note_on,56,0,0
1,note_on,53,0,0
1,note_on,52,37,0
1,note_on,55,37,0
1,note_on,61,44,0
1,note_on,61,0,240
1,note_on,55,0,0
1,note_on,52,0,0
1,note_on,51,39,0
1,note_on,54,39,0
1,note_on,61,47,0
1,note_on,61,0,480
1,note_on,54,0,0
1,note_on,51,0,0
1,note_on,51,37,0
1,note_on,54,37,0
1,note_on,60,43,0
1,note_on,60,0,480
1,note_on,54,0,0
1,note_on,51,0,0
1,note_on,49,37,0
1,note_on,53,37,0
1,note_on,61,43,0
1,note_on,61,0,720
1,note_on,53,0,0
1,note_on,49,0,0
1,note_on,48,39,240
1,note_on,51,39,0
1,note_on,56,47,0
1,note_on,56,0,480
1,note_on,51,0,0
1,note_on,48,0,0
1,note_on,48,37,0
1,note_on,54,44,0
1,note_on,56,44,0
1,note_on,56,0,420
1,note_on,54,0,0
1,note_on,48,0,0
1,note_on,48,37,0
1,note_on,51,44,0
1,note_on,56,44,0
1,note_on,56,0,60
1,note_on,51,0,0
1,note_on,48,0,0
1,note_on,49,39,0
1,note_on,53,39,0
1,note_on,56,47,0
1,note_on,56,0,360
1,note_on,53,0,0
1,note_on,49,0,0
1,note_on,53,45,0
1,note_on,56,45,0
1,note_on,61,53,0
1,note_on,61,0,120
1,note_on,56,0,0
1,note_on,53,0,0
1,note_on,56,41,0
1,note_on,54,41,0
1,note_on,60,49,0
1,note_on,60,0,240
1,note_on,54,0,0
1,note_on,56,0,0
1,note_on,53,31,0
1,note_on,56,31,0
1,note_on,61,37,0
1,note_on,61,0,240
1,note_on,56,0,0
1,note_on,53,0,0
1,note_on,48,39,0
1,note_on,51,39,0
1,note_on,56,47,0
1,note_on,56,0,480
1,note_on,51,0,0
1,note_on,48,0,0
1,note_on,48,37,0
1,note_on,54,44,0
1,note_on,56,44,0
1,note_on,56,0,420
1,note_on,54,0,0
1,note_on,48,0,0
1,note_on,48,37,0
1,note_on,51,44,0
1,note_on,56,44,0
1,note_on,56,0,60
1,note_on,51,0,0
1,note_on,48,0,0
1,note_on,49,39,0
1,note_on,53,39,0
1,note_on,56,47,0
1,note_on,56,0,360
1,note_on,53,0,0
1,note_on,49,0,0
1,note_on,53,45,0
1,note_on,56,45,0
1,note_on,65,55,0
1,note_on,65,0,120
1,note_on,56,0,0
1,note_on,53,0,0
1,note_on,56,45,0
1,note_on,54,45,0
1,note_on,65,58,0
1,note_on,65,0,120
1,note_on,63,51,0
1,note_on,63,0,120
1,note_on,54,0,0
1,note_on,56,0,0
1,note_on,53,31,0
1,note_on,56,31,0
1,note_on,61,37,0
1,note_on,61,0,240
1,note_on,56,0,0
1,note_on,53,0,0
1,note_on,48,46,0
1,note_on,51,46,0
1,note_on,56,56,0
1,note_on,56,0,480
1,note_on,51,0,0
1,note_on,48,0,0
1,note_on,48,52,0
1,note_on,54,62,0
1,note_on,56,62,0
1,note_on,56,0,420
1,note_on,54,0,0
1,note_on,48,0,0
1,note_on,48,57,0
1,note_on,51,68,0
1,note_on,56,68,0
1,note_on,56,0,60
1,note_on,51,0,0
1,note_on,48,0,0
1,note_on,56,70,0
1,note_on,61,70,0
1,note_on,68,87,0
1,note_on,68,0,360
1,note_on,61,0,0
1,note_on,56,0,0
1,note_on,61,60,0
1,note_on,65,60,0
1,note_on,68,72,0
1,note_on,68,0,120
1,note_on,65,0,0
1,note_on,61,0,0
1,note_on,63,61,0
1,note_on,60,61,0
1,note_on,68,79,0
1,note_on,68,0,120
1,note_on,66,66,0
1,note_on,66,0,120
1,note_on,60,0,0
1,note_on,63,0,0
1,note_on,56,44,0
1,note_on,61,44,0
1,note_on,65,55,0
1,note_on,65,0,240
1,note_on,61,0,0
1,note_on,56,0,0
1,note_on,54,39,0
1,note_on,58,39,0
1,note_on,63,47,0
1,note_on,63,0,480
1,note_on,58,0,0
1,note_on,54,0,0
1,note_on,48,37,0
1,note_on,51,37,0
1,note_on,56,43,0
1,note_on,56,0,480
1,note_on,51,0,0
1,note_on,48,0,0
1,note_on,49,37,0
1,note_on,53,37,0
1,note_on,61,43,0
1,note_on,61,0,720
1,note_on,53,0,0
1,note_on,49,0,0
1,note_on,48,39,240
1,note_on,51,39,0
1,note_on,56,47,0
1,note_on,56,0,480
1,note_on,51,0,0
1,note_on,48,0,0
1,note_on,48,37,0
1,note_on,54,44,0
1,note_on,56,44,0
1,note_on,56,0,420
1,note_on,54,0,0
1,note_on,48,0,0
1,note_on,48,37,0
1,note_on,51,44,0
1,note_on,56,44,0
1,note_on,56,0,60
1,note_on,51,0,0
1,note_on,48,0,0
1,note_on,49,39,0
1,note_on,53,39,0
1,note_on,56,47,0
1,note_on,56,0,360
1,note_on,53,0,0
1,note_on,49,0,0
1,note_on,53,45,0
1,note_on,56,45,0
1,note_on,61,53,0
1,note_on,61,0,120
1,note_on,56,0,0
1,note_on,53,0,0
1,note_on,56,41,0
1,note_on,54,41,0
1,note_on,60,49,0
1,note_on,60,0,240
1,note_on,54,0,0
1,note_on,56,0,0
1,note_on,53,31,0
1,note_on,56,31,0
1,note_on,61,37,0
1,note_on,61,0,240
1,note_on,56,0,0
1,note_on,53,0,0
1,note_on,48,39,0
1,note_on,51,39,0
1,note_on,56,47,0
1,note_on,56,0,480
1,note_on,51,0,0
1,note_on,48,0,0
1,note_on,48,37,0
1,note_on,54,44,0
1,note_on,56,44,0
1,note_on,56,0,420
1,note_on,54,0,0
1,note_on,48,0,0
1,note_on,48,37,0
1,note_on,51,44,0
1,note_on,56,44,0
1,note_on,56,0,60
1,note_on,51,0,0
1,note_on,48,0,0
1,note_on,49,39,0
1,note_on,53,39,0
1,note_on,56,47,0
1,note_on,56,0,360
1,note_on,53,0,0
1,note_on,49,0,0
1,note_on,53,45,0
1,note_on,56,45,0
1,note_on,65,55,0
1,note_on,65,0,120
1,note_on,56,0,0
1,note_on,53,0,0
1,note_on,56,45,0
1,note_on,54,45,0
1,note_on,65,58,0
1,note_on,65,0,120
1,note_on,63,51,0
1,note_on,63,0,120
1,note_on,54,0,0
1,note_on,56,0,0
1,note_on,53,31,0
1,note_on,56,31,0
1,note_on,61,37,0
1,note_on,61,0,240
1,note_on,56,0,0
1,note_on,53,0,0
1,note_on,48,46,0
1,note_on,51,46,0
1,note_on,56,56,0
1,note_on,56,0,480
1,note_on,51,0,0
1,note_on,48,0,0
1,note_on,48,52,0
1,note_on,54,62,0
1,note_on,56,62,0
1,note_on,56,0,420
1,note_on,54,0,0
1,note_on,48,0,0
1,note_on,48,57,0
1,note_on,51,68,0
1,note_on,56,68,0
1,note_on,56,0,60
1,note_on,51,0,0
1,note_on,48,0,0
1,note_on,56,70,0
1,note_on,61,70,0
1,note_on,68,87,0
1,note_on,68,0,360
1,note_on,61,0,0
1,note_on,56,0,0
1,note_on,61,61,0
1,note_on,65,61,0
1,note_on,68,73,0
1,note_on,68,0,120
1,note_on,65,0,0
1,note_on,61,0,0
1,note_on,63,61,0
1,note_on,60,61,0
1,note_on,68,79,0
1,note_on,68,0,120
1,note_on,66,66,0
1,note_on,66,0,120
1,note_on,60,0,0
1,note_on,63,0,0
1,note_on,56,44,0
1,note_on,61,44,0
1,note_on,65,55,0
1,note_on,65,0,240
1,note_on,61,0,0
1,note_on,56,0,0
1,note_on,54,39,0
1,note_on,58,39,0
1,note_on,63,47,0
1,note_on,63,0,480
1,note_on,58,0,0
1,note_on,54,0,0
1,note_on,48,37,0
1,note_on,51,37,0
1,note_on,56,43,0
1,note_on,56,0,480
1,note_on,51,0,0
1,note_on,48,0,0
1,note_on,49,37,0
1,note_on,53,37,0
1,note_on,61,43,0
1,note_on,61,0,720
1,note_on,53,0,0
1,note_on,49,0,0
1,note_on,49,39,240
1,note_on,53,39,0
1,note_on,56,47,0
1,note_on,56,0,240
1,note_on,53,0,0
1,note_on,49,0,0
1,note_on,49,37,240
1,note_on,54,37,0
1,note_on,58,44,0
1,note_on,58,0,240
1,note_on,54,0,0
1,note_on,49,0,0
1,note_on,49,39,240
1,note_on,53,39,0
1,note_on,56,47,0
1,note_on,56,0,240
1,note_on,53,0,0
1,note_on,49,0,0
1,note_on,49,37,240
1,note_on,51,37,0
1,note_on,58,44,0
1,note_on,58,0,240
1,note_on,51,0,0
1,note_on,49,0,0
1,note_on,49,39,240
1,note_on,51,39,0
1,note_on,56,47,0
1,note_on,56,0,240
1,note_on,51,0,0
1,note_on,49,0,0
1,note_on,48,38,240
1,note_on,51,38,0
1,note_on,56,46,0
1,note_on,56,0,240
1,note_on,51,0,0
1,note_on,48,0,0
1,note_on,54,38,240
1,note_on,54,0,120
1,note_on,53,37,120
1,note_on,53,0,120
1,note_on,51,36,120
1,note_on,51,0,120
1,note_on,49,35,120
1,note_on,49,0,120
1,note_on,53,40,120
1,note_on,56,40,0
1,note_on,61,49,0
1,note_on,61,0,240
1,note_on,56,0,0
1,note_on,53,0,0
1,note_on,54,38,240
1,note_on,58,46,0
1,note_on,61,46,0
1,note_on,61,0,240
1,note_on,58,0,0
1,note_on,54,0,0
1,note_on,53,40,240
1,note_on,56,40,0
1,note_on,61,49,0
1,note_on,61,0,240
1,note_on,56,0,0
1,note_on,53,0,0
1,note_on,52,38,240
1,note_on,55,38,0
1,note_on,61,46,0
1,note_on,61,0,240
1,note_on,55,0,0
1,note_on,52,0,0
1,note_on,51,39,240
1,note_on,54,39,0
1,note_on,61,47,0
1,note_on,61,0,240
1,note_on,54,0,0
1,note_on,51,0,0
1,note_on,51,38,240
1,note_on,54,38,0
1,note_on,60,46,0
1,note_on,60,0,240
1,note_on,54,0,0
1,note_on,51,0,0
1,note_on,49,35,240
1,note_on,53,35,0
1,note_on,61,42,0
1,note_on,61,0,120
1,note_on,53,0,0
1,note_on,49,0,0
1,note_on,56,39,120
1,note_on,56,0,120
1,note_on,53,42,120
1,note_on,53,0,120
1,note_on,51,39,120
1,note_on,51,0,120
1,note_on,49,39,120
1,note_on,53,39,0
1,note_on,56,47,0
1,note_on,56,0,240
1,note_on,53,0,0
1,note_on,49,0,0
1,note_on,49,37,240
1,note_on,54,37,0
1,note_on,58,44,0
1,note_on,58,0,240
1,note_on,54,0,0
1,note_on,49,0,0
1,note_on,49,39,240
1,note_on,53,39,0
1,note_on,56,47,0
1,note_on,56,0,240
1,note_on,53,0,0
1,note_on,49,0,0
1,note_on,49,37,240
1,note_on,51,37,0
1,note_on,58,44,0
1,note_on,58,0,240
1,note_on,51,0,0
1,note_on,49,0,0
1,note_on,49,39,240
1,note_on,51,39,0
1,note_on,56,47,0
1,note_on,56,0,240
1,note_on,51,0,0
1,note_on,49,0,0
1,note_on,48,38,240
1,note_on,51,38,0
1,note_on,56,46,0
1,note_on,56,0,240
1,note_on,51,0,0
1,note_on,48,0,0
1,note_on,54,39,240
1,note_on,54,0,120
1,note_on,53,38,120
1,note_on,53,0,120
1,note_on,51,38,120
1,note_on,51,0,120
1,note_on,49,37,120
1,note_on,49,0,120
1,note_on,53,40,120
1,note_on,56,40,0
1,note_on,61,49,0
1,note_on,61,0,240
1,note_on,56,0,0
1,note_on,53,0,0
1,note_on,54,38,240
1,note_on,58,46,0
1,note_on,61,46,0
1,note_on,61,0,240
1,note_on,58,0,0
1,note_on,54,0,0
1,note_on,53,40,240
1,note_on,56,40,0
1,note_on,61,49,0
1,note_on,61,0,240
1,note_on,56,0,0
1,note_on,53,0,0
1,note_on,52,38,240
1,note_on,55,38,0
1,note_on,61,46,0
1,note_on,61,0,240
1,note_on,55,0,0
1,note_on,52,0,0
1,note_on,51,39,240
1,note_on,54,39,0
1,note_on,61,47,0
1,note_on,61,0,240
1,note_on,54,0,0
1,note_on,51,0,0
1,note_on,51,38,240
1,note_on,54,38,0
1,note_on,60,46,0
1,note_on,60,0,240
1,note_on,54,0,0
1,note_on,51,0,0
1,note_on,49,35,240
1,note_on,53,35,0
1,note_on,61,42,0
1,note_on,61,0,120
1,note_on,53,0,0
1,note_on,49,0,0
1,note_on,56,39,120
1,note_on,56,0,120
1,note_on,53,42,120
1,note_on,53,0,120
1,note_on,49,39,120
1,note_on,49,0,120
1,note_on,48,39,120
1,note_on,51,39,0
1,note_on,56,47,0
1,note_on,56,0,240
1,note_on,51,0,0
1,note_on,48,0,0
1,note_on,48,38,240
1,note_on,51,38,0
1,note_on,56,46,0
1,note_on,56,0,240
1,note_on,51,0,0
1,note_on,48,0,0
1,note_on,49,42,240
1,note_on,53,42,0
1,note_on,56,42,0
1,note_on,56,0,240
1,note_on,53,0,0
1,note_on,49,0,0
1,note_on,53,45,0
1,note_on,53,0,120
1,note_on,54,52,120
1,note_on,54,0,120
1,note_on,56,54,120
1,note_on,56,0,120
1,note_on,48,50,120
1,note_on,51,50,0
1,note_on,56,61,0
1,note_on,56,0,240
1,note_on,51,0,0
1,note_on,48,0,0
1,note_on,51,49,240
1,note_on,56,49,0
1,note_on,60,60,0
1,note_on,60,0,240
1,note_on,56,0,0
1,note_on,51,0,0
1,note_on,53,60,240
1,note_on,56,60,0
1,note_on,61,60,0
1,note_on,61,0,240
1,note_on,56,0,0
1,note_on,53,0,0
1,note_on,56,67,0
1,note_on,56,0,120
1,note_on,60,73,120
1,note_on,60,0,120
1,note_on,61,75,120
1,note_on,61,0,120
1,note_on,48,77,120
1,note_on,51,77,0
1,note_on,56,91,0
1,note_on,56,0,240
1,note_on,51,0,0
1,note_on,48,0,0
1,note_on,54,57,240
1,note_on,60,57,0
1,note_on,63,84,0
1,note_on,63,0,240
1,note_on,60,0,0
1,note_on,54,0,0
1,note_on,53,74,240
1,note_on,61,74,0
1,note_on,65,89,0
1,note_on,65,0,240
1,note_on,61,0,0
1,note_on,53,0,0
1,note_on,65,73,0
1,note_on,53,61,0
1,note_on,53,0,120
1,note_on,65,0,0
1,note_on,66,78,120
1,note_on,54,66,0
1,note_on,54,0,120
1,note_on,66,0,0
1,note_on,68,75,120
1,note_on,56,65,0
1,note_on,56,0,120
1,note_on,68,0,0
1,note_on,58,58,120
1,note_on,70,58,0
1,note_on,70,0,240
1,note_on,58,0,0
1,note_on,48,38,240
1,note_on,51,38,0
1,note_on,56,46,0
1,note_on,56,0,240
1,note_on,51,0,0
1,note_on,48,0,0
1,note_on,54,40,240
1,note_on,54,0,120
1,note_on,53,39,120
1,note_on,53,0,120
1,note_on,51,38,120
1,note_on,51,0,120
1,note_on,49,37,120
1,note_on,49,0,120
1,note_on,48,39,120
1,note_on,51,39,0
1,note_on,56,47,0
1,note_on,56,0,240
1,note_on,51,0,0
1,note_on,48,0,0
1,note_on,48,38,240
1,note_on,51,38,0
1,note_on,56,46,0
1,note_on,56,0,240
1,note_on,51,0,0
1,note_on,48,0,0
1,note_on,49,42,240
1,note_on,53,42,0
1,note_on,56,42,0
1,note_on,56,0,240
1,note_on,53,0,0
1,note_on,49,0,0
1,note_on,53,45,0
1,note_on,53,0,120
1,note_on,54,52,120
1,note_on,54,0,120
1,note_on,56,54,120
1,note_on,56,0,120
1,note_on,48,50,120
1,note_on,51,50,0
1,note_on,56,61,0
1,note_on,56,0,240
1,note_on,51,0,0
1,note_on,48,0,0
1,note_on,51,49,240
1,note_on,56,49,0
1,note_on,60,60,0
1,note_on,60,0,240
1,note_on,56,0,0
1,note_on,51,0,0
1,note_on,53,60,240
1,note_on,56,60,0
1,note_on,61,60,0
1,note_on,61,0,240
1,note_on,56,0,0
1,note_on,53,0,0
1,note_on,56,67,0
1,note_on,56,0,120
1,note_on,60,73,120
1,note_on,60,0,120
1,note_on,61,75,120
1,note_on,61,0,120
1,note_on,48,77,120
1,note_on,51,77,0
1,note_on,56,91,0
1,note_on,56,0,240
1,note_on,51,0,0
1,note_on,48,0,0
1,note_on,54,57,240
1,note_on,60,57,0
1,note_on,63,84,0
1,note_on,63,0,240
1,note_on,60,0,0
1,note_on,54,0,0
1,note_on,53,74,240
1,note_on,61,74,0
1,note_on,65,89,0
1,note_on,65,0,240
1,note_on,61,0,0
1,note_on,53,0,0
1,note_on,65,73,0
1,note_on,53,61,0
1,note_on,53,0,120
1,note_on,65,0,0
1,note_on,66,78,120
1,note_on,54,66,0
1,note_on,54,0,120
1,note_on,66,0,0
1,note_on,68,75,120
1,note_on,56,65,0
1,note_on,56,0,120
1,note_on,68,0,0
1,note_on,58,58,120
1,note_on,70,58,0
1,note_on,70,0,240
1,note_on,58,0,0
1,note_on,48,38,240
1,note_on,51,38,0
1,note_on,56,46,0
1,note_on,56,0,240
1,note_on,51,0,0
1,note_on,48,0,0
1,note_on,53,42,240
1,note_on,53,0,120
1,note_on,51,39,120
1,note_on,51,0,120
1,note_on,49,37,120
1,note_on,49,0,120
1,note_on,68,47,360
1,note_on,68,0,120
1,note_on,65,40,0
1,note_on,65,0,120
1,note_on,61,43,0
1,note_on,61,0,120
1,note_on,68,39,0
1,note_on,68,0,120
1,note_on,61,44,0
1,note_on,61,0,120
1,note_on,70,40,0
1,note_on,70,0,120
1,note_on,66,40,0
1,note_on,66,0,120
1,note_on,61,38,0
1,note_on,61,0,120
1,note_on,68,47,0
1,note_on,68,0,120
1,note_on,65,43,0
1,note_on,65,0,120
1,note_on,61,43,0
1,note_on,61,0,120
1,note_on,68,44,0
1,note_on,68,0,120
1,note_on,61,42,0
1,note_on,61,0,120
1,note_on,68,39,0
1,note_on,68,0,120
1,note_on,61,44,0
1,note_on,63,44,0
1,note_on,63,0,120
1,note_on,61,0,0
1,note_on,70,40,0
1,note_on,70,0,120
1,note_on,68,47,0
1,note_on,68,0,120
1,note_on,63,43,0
1,note_on,63,0,120
1,note_on,61,40,0
1,note_on,61,0,120
1,note_on,68,40,0
1,note_on,68,0,120
1,note_on,60,46,0
1,note_on,60,0,120
1,note_on,68,40,0
1,note_on,68,0,120
1,note_on,63,43,0
1,note_on,63,0,120
1,note_on,60,43,0
1,note_on,60,0,120
1,note_on,68,47,0
1,note_on,68,0,120
1,note_on,65,44,0
1,note_on,65,0,120
1,note_on,61,43,0
1,note_on,61,0,120
1,note_on,68,43,0
1,note_on,68,0,120
1,note_on,65,47,0
1,note_on,65,0,120
1,note_on,73,44,0
1,note_on,73,0,120
1,note_on,68,41,0
1,note_on,68,0,120
1,note_on,65,38,0
1,note_on,65,0,120
1,note_on,73,47,0
1,note_on,73,0,120
1,note_on,68,43,0
1,note_on,68,0,120
1,note_on,65,43,0
1,note_on,65,0,120
1,note_on,73,39,0
1,note_on,73,0,120
1,note_on,66,64,0
1,note_on,66,0,120
1,note_on,73,43,0
1,note_on,73,0,120
1,note_on,70,47,0
1,note_on,70,0,120
1,note_on,66,38,0
1,note_on,66,0,120
1,note_on,73,47,0
1,note_on,73,0,120
1,note_on,68,43,0
1,note_on,68,0,120
1,note_on,65,43,0
1,note_on,65,0,120
1,note_on,73,44,0
1,note_on,73,0,120
1,note_on,65,42,0
1,note_on,65,0,120
1,note_on,73,39,0
1,note_on,73,0,120
1,note_on,64,44,0
1,note_on,67,44,0
1,note_on,67,0,120
1,note_on,64,0,0
1,note_on,73,40,0
1,note_on,73,0,120
1,note_on,63,47,0
1,note_on,63,0,120
1,note_on,73,43,0
1,note_on,73,0,120
1,note_on,66,43,0
1,note_on,66,0,120
1,note_on,63,39,0
1,note_on,63,0,120
1,note_on,72,46,0
1,note_on,72,0,120
1,note_on,66,43,0
1,note_on,66,0,120
1,note_on,63,43,0
1,note_on,63,0,120
1,note_on,72,39,0
1,note_on,72,0,120
1,note_on,73,47,0
1,note_on,73,0,120
1,note_on,68,44,0
1,note_on,68,0,120
1,note_on,65,43,0
1,note_on,65,0,120
1,note_on,73,43,0
1,note_on,73,0,120
1,note_on,68,47,0
1,note_on,68,0,120
1,note_on,65,40,0
1,note_on,65,0,120
1,note_on,61,41,0
1,note_on,61,0,120
1,note_on,68,38,0
1,note_on,68,0,120
1,note_on,68,47,0
1,note_on,68,0,120
1,note_on,65,40,0
1,note_on,65,0,120
1,note_on,61,43,0
1,note_on,61,0,120
1,note_on,68,39,0
1,note_on,68,0,120
1,note_on,61,44,0
1,note_on,61,0,120
1,note_on,70,40,0
1,note_on,70,0,120
1,note_on,66,40,0
1,note_on,66,0,120
1,note_on,61,38,0
1,note_on,61,0,120
1,note_on,68,47,0
1,note_on,68,0,120
1,note_on,65,43,0
1,note_on,65,0,120
1,note_on,61,43,0
1,note_on,61,0,120
1,note_on,68,44,0
1,note_on,68,0,120
1,note_on,61,42,0
1,note_on,61,0,120
1,note_on,68,39,0
1,note_on,68,0,120
1,note_on,61,44,0
1,note_on,63,44,0
1,note_on,63,0,120
1,note_on,61,0,0
1,note_on,70,40,0
1,note_on,70,0,120
1,note_on,68,47,0
1,note_on,68,0,120
1,note_on,63,43,0
1,note_on,63,0,120
1,note_on,61,40,0
1,note_on,61,0,120
1,note_on,68,40,0
1,note_on,68,0,120
1,note_on,60,46,0
1,note_on,60,0,120
1,note_on,68,40,0
1,note_on,68,0,120
1,note_on,63,43,0
1,note_on,63,0,120
1,note_on,60,43,0
1,note_on,60,0,120
1,note_on,68,47,0
1,note_on,68,0,120
1,note_on,65,44,0
1,note_on,65,0,120
1,note_on,61,43,0
1,note_on,61,0,120
1,note_on,68,43,0
1,note_on,68,0,120
1,note_on,65,47,0
1,note_on,65,0,120
1,note_on,73,44,0
1,note_on,73,0,120
1,note_on,68,41,0
1,note_on,68,0,120
1,note_on,65,38,0
1,note_on,65,0,120
1,note_on,73,47,0
1,note_on,73,0,120
1,note_on,68,43,0
1,note_on,68,0,120
1,note_on,65,43,0
1,note_on,65,0,120
1,note_on,73,39,0
1,note_on,73,0,120
1,note_on,66,59,0
1,note_on,66,0,120
1,note_on,73,43,0
1,note_on,73,0,120
1,note_on,70,47,0
1,note_on,70,0,120
1,note_on,66,38,0
1,note_on,66,0,120
1,note_on,73,47,0
1,note_on,73,0,120
1,note_on,68,43,0
1,note_on,68,0,120
1,note_on,65,43,0
1,note_on,65,0,120
1,note_on,73,44,0
1,note_on,73,0,120
1,note_on,65,42,0
1,note_on,65,0,120
1,note_on,73,39,0
1,note_on,73,0,120
1,note_on,64,44,0
1,note_on,67,44,0
1,note_on,67,0,120
1,note_on,64,0,0
1,note_on,73,40,0
1,note_on,73,0,120
1,note_on,63,47,0
1,note_on,63,0,120
1,note_on,73,43,0
1,note_on,73,0,120
1,note_on,66,43,0
1,note_on,66,0,120
1,note_on,63,39,0
1,note_on,63,0,120
1,note_on,72,46,0
1,note_on,72,0,120
1,note_on,66,43,0
1,note_on,66,0,120
1,note_on,63,43,0
1,note_on,63,0,120
1,note_on,72,39,0
1,note_on,72,0,120
1,note_on,73,47,0
1,note_on,73,0,120
1,note_on,68,44,0
1,note_on,68,0,120
1,note_on,65,43,0
1,note_on,65,0,120
1,note_on,73,43,0
1,note_on,73,0,120
1,note_on,68,47,0
1,note_on,68,0,120
1,note_on,65,40,0
1,note_on,65,0,120
1,note_on,61,41,0
1,note_on,61,0,120
1,note_on,68,38,0
1,note_on,68,0,120
1,note_on,68,47,0
1,note_on,68,0,120
1,note_on,63,40,0
1,note_on,63,0,120
1,note_on,60,43,0
1,note_on,60,0,120
1,note_on,68,39,0
1,note_on,68,0,120
1,note_on,60,44,0
1,note_on,60,0,120
1,note_on,68,40,0
1,note_on,68,0,120
1,note_on,66,40,0
1,note_on,66,0,120
1,note_on,60,38,0
1,note_on,60,0,120
1,note_on,61,49,0
1,note_on,61,0,120
1,note_on,65,49,0
1,note_on,65,0,120
1,note_on,68,53,0
1,note_on,68,0,120
1,note_on,73,57,0
1,note_on,73,0,120
1,note_on,72,62,0
1,note_on,72,0,120
1,note_on,66,49,0
1,note_on,66,0,120
1,note_on,73,55,0
1,note_on,73,0,120
1,note_on,65,43,0
1,note_on,65,0,120
1,note_on,68,47,0
1,note_on,68,0,120
1,note_on,63,40,0
1,note_on,63,0,120
1,note_on,60,43,0
1,note_on,60,0,120
1,note_on,68,39,0
1,note_on,68,0,120
1,note_on,60,44,0
1,note_on,60,0,120
1,note_on,68,40,0
1,note_on,68,0,120
1,note_on,66,40,0
1,note_on,66,0,120
1,note_on,60,38,0
1,note_on,60,0,120
1,note_on,61,49,0
1,note_on,61,0,120
1,note_on,65,49,0
1,note_on,65,0,120
1,note_on,68,53,0
1,note_on,68,0,120
1,note_on,77,55,0
1,note_on,77,0,120
1,note_on,75,62,0
1,note_on,75,0,120
1,note_on,66,49,0
1,note_on,66,0,120
1,note_on,73,55,0
1,note_on,73,0,120
1,note_on,65,43,0
1,note_on,65,0,120
1,note_on,68,58,0
1,note_on,68,0,120
1,note_on,63,50,0
1,note_on,63,0,120
1,note_on,60,58,0
1,note_on,60,0,120
1,note_on,68,53,0
1,note_on,68,0,120
1,note_on,60,67,0
1,note_on,60,0,120
1,note_on,68,62,0
1,note_on,68,0,120
1,note_on,66,67,0
1,note_on,66,0,120
1,note_on,60,63,0
1,note_on,60,0,120
1,note_on,80,73,120
1,note_on,80,0,120
1,note_on,68,74,0
1,note_on,68,0,120
1,note_on,80,65,0
1,note_on,80,0,120
1,note_on,78,70,0
1,note_on,78,0,120
1,note_on,68,58,0
1,note_on,68,0,120
1,note_on,77,63,0
1,note_on,77,0,120
1,note_on,68,48,0
1,note_on,68,0,120
1,note_on,75,47,0
1,note_on,75,0,120
1,note_on,70,43,0
1,note_on,70,0,120
1,note_on,66,43,0
1,note_on,66,0,120
1,note_on,75,39,0
1,note_on,75,0,120
1,note_on,68,46,0
1,note_on,68,0,120
1,note_on,66,43,0
1,note_on,66,0,120
1,note_on,63,43,0
1,note_on,63,0,120
1,note_on,68,39,0
1,note_on,68,0,120
1,note_on,65,47,0
1,note_on,65,0,120
1,note_on,73,44,0
1,note_on,73,0,120
1,note_on,68,43,0
1,note_on,68,0,120
1,note_on,65,43,0
1,note_on,65,0,120
1,note_on,61,47,0
1,note_on,61,0,120
1,note_on,68,47,360
1,note_on,68,0,120
1,note_on,63,40,0
1,note_on,63,0,120
1,note_on,60,43,0
1,note_on,60,0,120
1,note_on,68,39,0
1,note_on,68,0,120
1,note_on,60,44,0
1,note_on,60,0,120
1,note_on,68,40,0
1,note_on,68,0,120
1,note_on,66,40,0
1,note_on,66,0,120
1,note_on,60,38,0
1,note_on,60,0,120
1,note_on,61,49,0
1,note_on,61,0,120
1,note_on,65,49,0
1,note_on,65,0,120
1,note_on,68,53,0
1,note_on,68,0,120
1,note_on,73,57,0
1,note_on,73,0,120
1,note_on,72,62,0
1,note_on,72,0,120
1,note_on,66,49,0
1,note_on,66,0,120
1,note_on,73,55,0
1,note_on,73,0,120
1,note_on,65,43,0
1,note_on,65,0,120
1,note_on,68,47,0
1,note_on,68,0,120
1,note_on,63,40,0
1,note_on,63,0,120
1,note_on,60,43,0
1,note_on,60,0,120
1,note_on,68,39,0
1,note_on,68,0,120
1,note_on,60,44,0
1,note_on,60,0,120
1,note_on,68,40,0
1,note_on,68,0,120
1,note_on,66,40,0
1,note_on,66,0,120
1,note_on,60,38,0
1,note_on,60,0,120
1,note_on,61,49,0
1,note_on,61,0,120
1,note_on,65,49,0
1,note_on,65,0,120
1,note_on,68,53,0
1,note_on,68,0,120
1,note_on,77,54,0
1,note_on,77,0,120
1,note_on,75,62,0
1,note_on,75,0,120
1,note_on,66,49,0
1,note_on,66,0,120
1,note_on,73,55,0
1,note_on,73,0,120
1,note_on,65,43,0
1,note_on,65,0,120
1,note_on,68,58,0
1,note_on,68,0,120
1,note_on,63,50,0
1,note_on,63,0,120
1,note_on,60,58,0
1,note_on,60,0,120
1,note_on,68,53,0
1,note_on,68,0,120
1,note_on,60,67,0
1,note_on,60,0,120
1,note_on,68,62,0
1,note_on,68,0,120
1,note_on,66,67,0
1,note_on,66,0,120
1,note_on,60,64,0
1,note_on,60,0,120
1,note_on,80,74,120
1,note_on,80,0,120
1,note_on,68,74,0
1,note_on,68,0,120
1,note_on,80,66,0
1,note_on,80,0,120
1,note_on,78,73,0
1,note_on,78,0,120
1,note_on,68,58,0
1,note_on,68,0,120
1,note_on,77,63,0
1,note_on,77,0,120
1,note_on,68,48,0
1,note_on,68,0,120
1,note_on,75,47,0
1,note_on,75,0,120
1,note_on,70,43,0
1,note_on,70,0,120
1,note_on,66,43,0
1,note_on,66,0,120
1,note_on,75,39,0
1,note_on,75,0,120
1,note_on,68,46,0
1,note_on,68,0,120
1,note_on,66,43,0
1,note_on,66,0,120
1,note_on,63,43,0
1,note_on,63,0,120
1,note_on,68,39,0
1,note_on,68,0,120
1,note_on,65,47,0
1,note_on,65,0,120
1,note_on,73,44,0
1,note_on,73,0,120
1,note_on,68,43,0
1,note_on,68,0,120
1,note_on,65,43,0
1,note_on,65,0,120
1,note_on,61,47,0
1,note_on,61,0,120
1,note_on,80,72,600
1,note_on,80,0,480
1,note_on,82,74,0
1,note_on,82,0,480
1,note_on,80,72,0
1,note_on,80,0,480
1,note_on,73,65,0
1,note_on,75,65,0
1,note_on,82,77,0
1,note_on,82,0,240
1,note_on,75,0,0
1,note_on,73,0,0
1,note_on,73,68,0
1,note_on,75,68,0
1,note_on,80,80,0
1,note_on,80,0,240
1,note_on,75,0,0
1,note_on,73,0,0
1,note_on,73,65,0
1,note_on,75,65,0
1,note_on,80,77,0
1,note_on,80,0,240
1,note_on,75,0,0
1,note_on,73,0,0
1,note_on,72,69,0
1,note_on,75,69,0
1,note_on,80,81,0
1,note_on,80,0,240
1,note_on,75,0,0
1,note_on,72,0,0
1,note_on,72,65,0
1,note_on,75,65,0
1,note_on,80,76,0
1,note_on,80,0,240
1,note_on,75,0,0
1,note_on,72,0,0
1,note_on,73,68,0
1,note_on,77,68,0
1,note_on,80,80,0
1,note_on,80,0,240
1,note_on,77,0,0
1,note_on,73,0,0
1,note_on,85,72,960
1,note_on,80,60,0
1,note_on,80,0,480
1,note_on,85,0,0
1,note_on,85,73,0
1,note_on,82,61,0
1,note_on,82,0,480
1,note_on,85,0,0
1,note_on,85,74,0
1,note_on,80,63,0
1,note_on,80,0,480
1,note_on,85,0,0
1,note_on,73,65,0
1,note_on,79,65,0
1,note_on,85,77,0
1,note_on,85,0,240
1,note_on,79,0,0
1,note_on,73,0,0
1,note_on,73,68,0
1,note_on,78,68,0
1,note_on,85,80,0
1,note_on,85,0,240
1,note_on,78,0,0
1,note_on,73,0,0
1,note_on,73,65,0
1,note_on,78,65,0
1,note_on,85,77,0
1,note_on,85,0,240
1,note_on,78,0,0
1,note_on,73,0,0
1,note_on,72,69,0
1,note_on,78,69,0
1,note_on,84,81,0
1,note_on,84,0,240
1,note_on,78,0,0
1,note_on,72,0,0
1,note_on,72,65,0
1,note_on,78,65,0
1,note_on,84,76,0
1,note_on,84,0,240
1,note_on,78,0,0
1,note_on,72,0,0
1,note_on,85,66,0
1,note_on,85,0,60
1,note_on,87,57,0
1,note_on,87,0,60
1,note_on,89,59,0
1,note_on,89,0,60
1,note_on,84,60,0
1,note_on,84,0,60
1,note_on,85,66,0
1,note_on,85,0,60
1,note_on,80,56,0
1,note_on,80,0,60
1,note_on,82,58,0
1,note_on,82,0,60
1,note_on,78,57,0
1,note_on,78,0,60
1,note_on,77,51,0
1,note_on,77,0,60
1,note_on,80,54,0
1,note_on,80,0,60
1,note_on,78,55,0
1,note_on,78,0,60
1,note_on,75,56,0
1,note_on,75,0,60
1,note_on,73,63,0
1,note_on,73,0,60
1,note_on,77,53,0
1,note_on,77,0,60
1,note_on,75,57,0
1,note_on,75,0,60
1,note_on,72,53,0
1,note_on,72,0,60
1,note_on,73,52,0
1,note_on,73,0,60
1,note_on,75,46,0
1,note_on,75,0,60
1,note_on,73,46,0
1,note_on,73,0,60
1,note_on,72,46,0
1,note_on,72,0,60
1,note_on,73,52,0
1,note_on,73,0,60
1,note_on,80,46,0
1,note_on,80,0,60
1,note_on,79,46,0
1,note_on,79,0,60
1,note_on,80,46,0
1,note_on,80,0,60
1,note_on,73,52,0
1,note_on,73,0,60
1,note_on,75,45,0
1,note_on,75,0,60
1,note_on,73,48,0
1,note_on,73,0,60
1,note_on,72,48,0
1,note_on,72,0,60
1,note_on,73,52,0
1,note_on,73,0,60
1,note_on,82,48,0
1,note_on,82,0,60
1,note_on,81,48,0
1,note_on,81,0,60
1,note_on,82,48,0
1,note_on,82,0,60
1,note_on,73,52,0
1,note_on,73,0,60
1,note_on,75,48,0
1,note_on,75,0,60
1,note_on,73,48,0
1,note_on,73,0,60
1,note_on,72,48,0
1,note_on,72,0,60
1,note_on,73,52,0
1,note_on,73,0,60
1,note_on,80,48,0
1,note_on,80,0,60
1,note_on,79,48,0
1,note_on,79,0,60
1,note_on,80,48,0
1,note_on,80,0,60
1,note_on,73,52,0
1,note_on,73,0,60
1,note_on,80,48,0
1,note_on,80,0,60
1,note_on,79,48,0
1,note_on,79,0,60
1,note_on,80,48,0
1,note_on,80,0,60
1,note_on,73,73,0
1,note_on,73,0,60
1,note_on,82,63,0
1,note_on,82,0,60
1,note_on,81,63,0
1,note_on,81,0,60
1,note_on,82,63,0
1,note_on,82,0,60
1,note_on,73,80,0
1,note_on,73,0,60
1,note_on,80,66,0
1,note_on,80,0,60
1,note_on,79,67,0
1,note_on,79,0,60
1,note_on,80,67,0
1,note_on,80,0,60
1,note_on,73,80,0
1,note_on,73,0,60
1,note_on,80,66,0
1,note_on,80,0,60
1,note_on,79,66,0
1,note_on,79,0,60
1,note_on,80,66,0
1,note_on,80,0,60
1,note_on,72,83,0
1,note_on,72,0,60
1,note_on,80,67,0
1,note_on,80,0,60
1,note_on,79,67,0
1,note_on,79,0,60
1,note_on,80,67,0
1,note_on,80,0,60
1,note_on,72,81,0
1,note_on,72,0,60
1,note_on,80,63,0
1,note_on,80,0,60
1,note_on,79,63,0
1,note_on,79,0,60
1,note_on,80,63,0
1,note_on,80,0,60
1,note_on,80,53,0
1,note_on,80,0,60
1,note_on,78,54,0
1,note_on,78,0,60
1,note_on,77,55,0
1,note_on,77,0,60
1,note_on,75,56,0
1,note_on,75,0,60
1,note_on,73,60,0
1,note_on,73,0,60
1,note_on,75,56,0
1,note_on,75,0,60
1,note_on,77,58,0
1,note_on,77,0,60
1,note_on,78,57,0
1,note_on,78,0,60
1,note_on,80,51,0
1,note_on,80,0,60
1,note_on,78,54,0
1,note_on,78,0,60
1,note_on,77,55,0
1,note_on,77,0,60
1,note_on,78,56,0
1,note_on,78,0,60
1,note_on,80,63,0
1,note_on,80,0,60
1,note_on,82,53,0
1,note_on,82,0,60
1,note_on,84,57,0
1,note_on,84,0,60
1,note_on,85,53,0
1,note_on,85,0,60
1,note_on,77,52,0
1,note_on,77,0,60
1,note_on,78,46,0
1,note_on,78,0,60
1,note_on,77,46,0
1,note_on,77,0,60
1,note_on,76,46,0
1,note_on,76,0,60
1,note_on,77,52,0
1,note_on,77,0,60
1,note_on,85,46,0
1,note_on,85,0,60
1,note_on,84,46,0
1,note_on,84,0,60
1,note_on,85,46,0
1,note_on,85,0,60
1,note_on,78,52,0
1,note_on,78,0,60
1,note_on,80,45,0
1,note_on,80,0,60
1,note_on,78,48,0
1,note_on,78,0,60
1,note_on,77,48,0
1,note_on,77,0,60
1,note_on,78,52,0
1,note_on,78,0,60
1,note_on,85,48,0
1,note_on,85,0,60
1,note_on,84,48,0
1,note_on,84,0,60
1,note_on,85,48,0
1,note_on,85,0,60
1,note_on,77,52,0
1,note_on,77,0,60
1,note_on,78,48,0
1,note_on,78,0,60
1,note_on,77,48,0
1,note_on,77,0,60
1,note_on,76,48,0
1,note_on,76,0,60
1,note_on,77,52,0
1,note_on,77,0,60
1,note_on,85,48,0
1,note_on,85,0,60
1,note_on,84,48,0
1,note_on,84,0,60
1,note_on,85,48,0
1,note_on,85,0,60
1,note_on,77,52,0
1,note_on,77,0,60
1,note_on,85,48,0
1,note_on,85,0,60
1,note_on,84,48,0
1,note_on,84,0,60
1,note_on,85,48,0
1,note_on,85,0,60
1,note_on,79,73,0
1,note_on,76,60,0
1,note_on,76,0,60
1,note_on,79,0,0
1,note_on,85,63,0
1,note_on,85,0,60
1,note_on,84,63,0
1,note_on,84,0,60
1,note_on,85,63,0
1,note_on,85,0,60
1,note_on,78,80,0
1,note_on,75,66,0
1,note_on,75,0,60
1,note_on,78,0,0
1,note_on,85,66,0
1,note_on,85,0,60
1,note_on,84,66,0
1,note_on,84,0,60
1,note_on,85,66,0
1,note_on,85,0,60
1,note_on,78,80,0
1,note_on,75,66,0
1,note_on,75,0,60
1,note_on,78,0,0
1,note_on,85,67,0
1,note_on,85,0,60
1,note_on,84,67,0
1,note_on,84,0,60
1,note_on,85,67,0
1,note_on,85,0,60
1,note_on,78,83,0
1,note_on,75,68,0
1,note_on,75,0,60
1,note_on,78,0,0
1,note_on,84,67,0
1,note_on,84,0,60
1,note_on,83,67,0
1,note_on,83,0,60
1,note_on,84,67,0
1,note_on,84,0,60
1,note_on,78,81,0
1,note_on,75,68,0
1,note_on,75,0,60
1,note_on,78,0,0
1,note_on,84,67,0
1,note_on,84,0,60
1,note_on,83,67,0
1,note_on,83,0,60
1,note_on,84,67,0
1,note_on,84,0,60
1,note_on,73,74,0
1,note_on,77,74,0
1,note_on,85,87,0
1,note_on,85,0,240
1,note_on,77,0,0
1,note_on,73,0,0
1,note_on,80,69,960
1,note_on,80,0,480
1,note_on,80,59,0
1,note_on,80,0,240
1,note_on,80,59,0
1,note_on,80,0,240
1,note_on,80,55,0
1,note_on,80,0,240
1,note_on,80,59,0
1,note_on,80,0,240
1,note_on,80,56,0
1,note_on,80,0,240
1,note_on,80,69,240
1,note_on,80,0,480
1,note_on,80,57,0
1,note_on,80,0,240
1,note_on,80,60,0
1,note_on,80,0,240
1,note_on,80,56,0
1,note_on,80,0,240
1,note_on,80,59,0
1,note_on,80,0,240
1,note_on,80,56,0
1,note_on,80,0,240
1,note_on,84,67,240
1,note_on,84,0,240
1,note_on,83,72,0
1,note_on,83,0,240
1,note_on,84,70,0
1,note_on,84,0,240
1,note_on,85,77,0
1,note_on,85,0,240
1,note_on,89,75,0
1,note_on,89,0,240
1,note_on,87,86,0
1,note_on,87,0,240
1,note_on,85,82,0
1,note_on,85,0,240
1,note_on,90,94,0
1,note_on,90,0,480
1,note_on,75,69,0
1,note_on,78,69,0
1,note_on,80,81,0
1,note_on,80,0,480
1,note_on,78,0,0
1,note_on,75,0,0
1,note_on,77,50,0
1,note_on,80,50,0
1,note_on,80,0,60
1,note_on,77,0,0
1,note_on,82,45,0
1,note_on,82,0,60
1,note_on,80,45,0
1,note_on,80,0,60
1,note_on,78,44,0
1,note_on,78,0,60
1,note_on,77,41,0
1,note_on,77,0,60
1,note_on,78,45,0
1,note_on,78,0,60
1,note_on,80,47,0
1,note_on,80,0,60
1,note_on,82,50,0
1,note_on,82,0,60
1,note_on,84,52,0
1,note_on,84,0,60
1,note_on,85,50,0
1,note_on,85,0,60
1,note_on,80,48,0
1,note_on,80,0,60
1,note_on,78,49,0
1,note_on,78,0,60
1,note_on,77,50,0
1,note_on,77,0,60
1,note_on,80,45,0
1,note_on,80,0,60
1,note_on,77,46,0
1,note_on,77,0,60
1,note_on,73,46,0
1,note_on,73,0,60
1,note_on,72,55,0
1,note_on,72,0,60
1,note_on,80,42,0
1,note_on,80,0,60
1,note_on,82,42,0
1,note_on,82,0,60
1,note_on,80,42,0
1,note_on,80,0,60
1,note_on,84,51,0
1,note_on,84,0,60
1,note_on,80,42,0
1,note_on,80,0,60
1,note_on,82,42,0
1,note_on,82,0,60
1,note_on,80,42,0
1,note_on,80,0,60
1,note_on,87,55,0
1,note_on,87,0,60
1,note_on,80,41,0
1,note_on,80,0,60
1,note_on,82,44,0
1,note_on,82,0,60
1,note_on,80,44,0
1,note_on,80,0,60
1,note_on,84,48,0
1,note_on,84,0,60
1,note_on,80,44,0
1,note_on,80,0,60
1,note_on,82,44,0
1,note_on,82,0,60
1,note_on,80,44,0
1,note_on,80,0,60
1,note_on,85,53,0
1,note_on,85,0,60
1,note_on,80,44,0
1,note_on,80,0,60
1,note_on,82,44,0
1,note_on,82,0,60
1,note_on,80,44,0
1,note_on,80,0,60
1,note_on,85,55,0
1,note_on,85,0,60
1,note_on,80,44,0
1,note_on,80,0,60
1,note_on,82,44,0
1,note_on,82,0,60
1,note_on,80,44,0
1,note_on,80,0,60
1,note_on,78,48,0
1,note_on,78,0,60
1,note_on,80,44,0
1,note_on,80,0,60
1,note_on,82,44,0
1,note_on,82,0,60
1,note_on,80,44,0
1,note_on,80,0,60
1,note_on,77,48,0
1,note_on,77,0,60
1,note_on,80,45,0
1,note_on,80,0,60
1,note_on,82,45,0
1,note_on,82,0,60
1,note_on,80,45,0
1,note_on,80,0,60
1,note_on,72,55,0
1,note_on,72,0,60
1,note_on,80,42,0
1,note_on,80,0,60
1,note_on,82,42,0
1,note_on,82,0,60
1,note_on,80,42,0
1,note_on,80,0,60
1,note_on,84,51,0
1,note_on,84,0,60
1,note_on,80,42,0
1,note_on,80,0,60
1,note_on,82,42,0
1,note_on,82,0,60
1,note_on,80,42,0
1,note_on,80,0,60
1,note_on,87,55,0
1,note_on,87,0,60
1,note_on,80,41,0
1,note_on,80,0,60
1,note_on,82,44,0
1,note_on,82,0,60
1,note_on,80,44,0
1,note_on,80,0,60
1,note_on,82,48,0
1,note_on,82,0,60
1,note_on,80,44,0
1,note_on,80,0,60
1,note_on,82,44,0
1,note_on,82,0,60
1,note_on,80,44,0
1,note_on,80,0,60
1,note_on,82,53,0
1,note_on,82,0,60
1,note_on,80,44,0
1,note_on,80,0,60
1,note_on,82,44,0
1,note_on,82,0,60
1,note_on,80,44,0
1,note_on,80,0,60
1,note_on,85,55,0
1,note_on,85,0,60
1,note_on,80,44,0
1,note_on,80,0,60
1,note_on,82,44,0
1,note_on,82,0,60
1,note_on,80,44,0
1,note_on,80,0,60
1,note_on,87,59,0
1,note_on,87,0,60
1,note_on,80,47,0
1,note_on,80,0,60
1,note_on,82,47,0
1,note_on,82,0,60
1,note_on,80,44,0
1,note_on,80,0,60
1,note_on,89,57,0
1,note_on,89,0,60
1,note_on,80,47,0
1,note_on,80,0,60
1,note_on,82,47,0
1,note_on,82,0,60
1,note_on,80,48,0
1,note_on,80,0,60
1,note_on,87,71,0
1,note_on,87,0,60
1,note_on,84,58,0
1,note_on,84,0,60
1,note_on,85,58,0
1,note_on,85,0,60
1,note_on,84,58,0
1,note_on,84,0,60
1,note_on,87,72,0
1,note_on,87,0,60
1,note_on,84,58,0
1,note_on,84,0,60
1,note_on,85,59,0
1,note_on,85,0,60
1,note_on,84,61,0
1,note_on,84,0,60
1,note_on,92,75,0
1,note_on,92,0,60
1,note_on,84,57,0
1,note_on,84,0,60
1,note_on,85,61,0
1,note_on,85,0,60
1,note_on,84,61,0
1,note_on,84,0,60
1,note_on,92,78,0
1,note_on,92,0,60
1,note_on,84,68,0
1,note_on,84,0,60
1,note_on,85,69,0
1,note_on,85,0,60
1,note_on,84,70,0
1,note_on,84,0,60
1,note_on,92,82,0
1,note_on,92,0,60
1,note_on,84,72,0
1,note_on,84,0,60
1,note_on,85,73,0
1,note_on,85,0,60
1,note_on,84,74,0
1,note_on,84,0,60
1,note_on,92,90,0
1,note_on,92,0,60
1,note_on,85,78,0
1,note_on,85,0,60
1,note_on,87,78,0
1,note_on,87,0,60
1,note_on,85,80,0
1,note_on,85,0,60
1,note_on,92,97,0
1,note_on,92,0,60
1,note_on,87,81,0
1,note_on,87,0,60
1,note_on,89,82,0
1,note_on,89,0,60
1,note_on,87,84,0
1,note_on,87,0,60
1,note_on,92,99,0
1,note_on,92,0,60
1,note_on,89,84,0
1,note_on,89,0,60
1,note_on,90,85,0
1,note_on,90,0,60
1,note_on,89,88,0
1,note_on,89,0,60
1,note_on,94,104,0
1,note_on,94,0,60
1,note_on,90,92,0
1,note_on,90,0,60
1,note_on,94,97,0
1,note_on,94,0,60
1,note_on,92,86,0
1,note_on,92,0,60
1,note_on,90,97,0
1,note_on,90,0,60
1,note_on,89,83,0
1,note_on,89,0,60
1,note_on,87,90,0
1,note_on,87,0,60
1,note_on,85,78,0
1,note_on,85,0,60
1,note_on,84,86,0
1,note_on,84,0,60
1,note_on,82,79,0
1,note_on,82,0,60
1,note_on,80,82,0
1,note_on,80,0,60
1,note_on,78,75,0
1,note_on,78,0,60
1,note_on,77,79,0
1,note_on,77,0,60
1,note_on,75,72,0
1,note_on,75,0,60
1,note_on,73,75,0
1,note_on,73,0,60
1,note_on,72,69,0
1,note_on,72,0,60
1,note_on,73,72,0
1,note_on,73,0,60
1,note_on,70,70,0
1,note_on,70,0,60
1,note_on,68,69,0
1,note_on,68,0,60
1,note_on,66,67,0
1,note_on,66,0,60
1,note_on,65,64,0
1,note_on,65,0,60
1,note_on,63,63,0
1,note_on,63,0,60
1,note_on,61,61,0
1,note_on,61,0,60
1,note_on,60,60,0
1,note_on,60,0,60
1,note_on,49,39,480
1,note_on,53,39,0
1,note_on,56,47,0
1,note_on,56,0,480
1,note_on,53,0,0
1,note_on,49,0,0
1,note_on,49,37,0
1,note_on,54,44,0
1,note_on,58,44,0
1,note_on,58,0,480
1,note_on,54,0,0
1,note_on,49,0,0
1,note_on,49,37,0
1,note_on,53,37,0
1,note_on,56,44,0
1,note_on,56,0,720
1,note_on,53,0,0
1,note_on,49,0,0
1,note_on,61,37,0
1,note_on,63,37,0
1,note_on,70,44,0
1,note_on,70,0,240
1,note_on,63,0,0
1,note_on,61,0,0
1,note_on,61,39,0
1,note_on,63,39,0
1,note_on,68,47,0
1,note_on,68,0,480
1,note_on,63,0,0
1,note_on,61,0,0
1,note_on,60,38,0
1,note_on,63,38,0
1,note_on,68,46,0
1,note_on,68,0,480
1,note_on,63,0,0
1,note_on,60,0,0
1,note_on,61,39,0
1,note_on,65,39,0
1,note_on,68,47,0
1,note_on,68,0,240
1,note_on,65,0,0
1,note_on,61,0,0
1,note_on,53,45,720
1,note_on,56,45,0
1,note_on,61,54,0
1,note_on,61,0,480
1,note_on,56,0,0
1,note_on,53,0,0
1,note_on,54,47,0
1,note_on,58,47,0
1,note_on,61,56,0
1,note_on,61,0,480
1,note_on,58,0,0
1,note_on,54,0,0
1,note_on,53,36,0
1,note_on,56,36,0
1,note_on,61,44,0
1,note_on,61,0,720
1,note_on,56,0,0
1,note_on,53,0,0
1,note_on,64,37,0
1,note_on,67,37,0
1,note_on,73,44,0
1,note_on,73,0,240
1,note_on,67,0,0
1,note_on,64,0,0
1,note_on,63,39,0
1,note_on,66,39,0
1,note_on,73,47,0
1,note_on,73,0,480
1,note_on,66,0,0
1,note_on,63,0,0
1,note_on,63,37,0
1,note_on,66,37,0
1,note_on,72,43,0
1,note_on,72,0,480
1,note_on,66,0,0
1,note_on,63,0,0
1,note_on,61,37,0
1,note_on,65,37,0
1,note_on,73,43,0
1,note_on,73,0,240
1,note_on,65,0,0
1,note_on,61,0,0
1,note_on,48,39,720
1,note_on,51,39,0
1,note_on,56,47,0
1,note_on,56,0,480
1,note_on,51,0,0
1,note_on,48,0,0
1,note_on,48,37,0
1,note_on,54,44,0
1,note_on,56,44,0
1,note_on,56,0,420
1,note_on,54,0,0
1,note_on,48,0,0
1,note_on,48,37,0
1,note_on,51,44,0
1,note_on,56,44,0
1,note_on,56,0,60
1,note_on,51,0,0
1,note_on,48,0,0
1,note_on,49,39,0
1,note_on,53,39,0
1,note_on,56,47,0
1,note_on,56,0,360
1,note_on,53,0,0
1,note_on,49,0,0
1,note_on,65,45,0
1,note_on,68,45,0
1,note_on,73,53,0
1,note_on,73,0,120
1,note_on,68,0,0
1,note_on,65,0,0
1,note_on,68,41,0
1,note_on,66,41,0
1,note_on,72,49,0
1,note_on,72,0,240
1,note_on,66,0,0
1,note_on,68,0,0
1,note_on,65,31,0
1,note_on,68,31,0
1,note_on,73,37,0
1,note_on,73,0,240
1,note_on,68,0,0
1,note_on,65,0,0
1,note_on,48,39,0
1,note_on,51,39,0
1,note_on,56,47,0
1,note_on,56,0,480
1,note_on,51,0,0
1,note_on,48,0,0
1,note_on,48,37,0
1,note_on,54,44,0
1,note_on,56,44,0
1,note_on,56,0,420
1,note_on,54,0,0
1,note_on,48,0,0
1,note_on,48,37,0
1,note_on,51,44,0
1,note_on,56,44,0
1,note_on,56,0,60
1,note_on,51,0,0
1,note_on,48,0,0
1,note_on,49,39,0
1,note_on,53,39,0
1,note_on,56,47,0
1,note_on,56,0,360
1,note_on,53,0,0
1,note_on,49,0,0
1,note_on,65,45,0
1,note_on,68,45,0
1,note_on,77,55,0
1,note_on,77,0,120
1,note_on,68,0,0
1,note_on,65,0,0
1,note_on,68,45,0
1,note_on,66,45,0
1,note_on,77,58,0
1,note_on,77,0,120
1,note_on,75,51,0
1,note_on,75,0,120
1,note_on,66,0,0
1,note_on,68,0,0
1,note_on,65,31,0
1,note_on,68,31,0
1,note_on,73,37,0
1,note_on,73,0,240
1,note_on,68,0,0
1,note_on,65,0,0
1,note_on,48,53,0
1,note_on,51,53,0
1,note_on,56,66,0
1,note_on,56,0,480
1,note_on,51,0,0
1,note_on,48,0,0
1,note_on,48,61,0
1,note_on,54,72,0
1,note_on,56,72,0
1,note_on,56,0,420
1,note_on,54,0,0
1,note_on,48,0,0
1,note_on,48,65,0
1,note_on,51,77,0
1,note_on,56,77,0
1,note_on,56,0,60
1,note_on,51,0,0
1,note_on,48,0,0
1,note_on,68,80,0
1,note_on,73,80,0
1,note_on,80,98,0
1,note_on,80,0,360
1,note_on,73,0,0
1,note_on,68,0,0
1,note_on,73,70,0
1,note_on,77,70,0
1,note_on,80,83,0
1,note_on,80,0,120
1,note_on,77,0,0
1,note_on,73,0,0
1,note_on,75,70,0
1,note_on,72,70,0
1,note_on,80,87,0
1,note_on,80,0,120
1,note_on,78,68,0
1,note_on,78,0,120
1,note_on,72,0,0
1,note_on,75,0,0
1,note_on,73,57,0
1,note_on,77,71,0
1,note_on,77,0,240
1,note_on,73,0,0
1,note_on,66,39,0
1,note_on,70,39,0
1,note_on,75,47,0
1,note_on,75,0,480
1,note_on,70,0,0
1,note_on,66,0,0
1,note_on,63,37,0
1,note_on,68,43,0
1,note_on,68,0,480
1,note_on,63,0,0
1,note_on,61,30,300
1,note_on,64,32,60
1,note_on,67,34,60
1,note_on,73,38,60
1,note_on,73,0,480
1,note_on,61,0,0
1,note_on,64,0,0
1,note_on,67,0,0
1,note_on,85,102,240
1,note_on,79,86,0
1,note_on,76,86,0
1,note_on,73,86,0
1,note_on,73,0,720
1,note_on,85,0,0
1,note_on,79,0,0
1,note_on,76,0,0
2,note_on,37,47,0
2,note_on,37,0,480
2,note_on,30,35,0
2,note_on,30,0,480
2,note_on,37,37,0
2,note_on,37,0,720
2,note_on,30,35,0
2,note_on,30,0,240
2,note_on,32,40,0
2,note_on,32,0,480
2,note_on,44,40,0
2,note_on,44,0,420
2,note_on,42,36,0
2,note_on,42,0,60
2,note_on,41,43,0
2,note_on,41,0,360
2,note_on,42,36,0
2,note_on,42,0,120
2,note_on,44,41,0
2,note_on,44,0,180
2,note_on,42,37,0
2,note_on,42,0,60
2,note_on,41,40,0
2,note_on,41,0,180
2,note_on,39,40,0
2,note_on,39,0,60
2,note_on,37,39,0
2,note_on,49,46,0
2,note_on,49,0,480
2,note_on,37,0,0
2,note_on,42,48,0
2,note_on,30,40,0
2,note_on,30,0,480
2,note_on,42,0,0
2,note_on,37,27,0
2,note_on,49,32,0
2,note_on,49,0,720
2,note_on,37,0,0
2,note_on,33,30,0
2,note_on,45,36,0
2,note_on,45,0,240
2,note_on,33,0,0
2,note_on,32,31,0
2,note_on,44,37,0
2,note_on,44,0,480
2,note_on,32,0,0
2,note_on,44,34,0
2,note_on,44,0,660
2,note_on,42,28,0
2,note_on,42,0,60
2,note_on,41,32,0
2,note_on,41,0,180
2,note_on,39,27,0
2,note_on,39,0,60
2,note_on,37,27,0
2,note_on,37,0,240
2,note_on,37,47,240
2,note_on,37,0,480
2,note_on,30,35,0
2,note_on,30,0,480
2,note_on,37,37,0
2,note_on,37,0,720
2,note_on,30,35,0
2,note_on,30,0,240
2,note_on,32,40,0
2,note_on,32,0,480
2,note_on,44,40,0
2,note_on,44,0,420
2,note_on,42,36,0
2,note_on,42,0,60
2,note_on,41,43,0
2,note_on,41,0,360
2,note_on,42,36,0
2,note_on,42,0,120
2,note_on,44,41,0
2,note_on,44,0,180
2,note_on,42,37,0
2,note_on,42,0,60
2,note_on,41,40,0
2,note_on,41,0,180
2,note_on,39,40,0
2,note_on,39,0,60
2,note_on,37,39,0
2,note_on,49,46,0
2,note_on,49,0,480
2,note_on,37,0,0
2,note_on,30,40,0
2,note_on,42,48,0
2,note_on,42,0,480
2,note_on,30,0,0
2,note_on,37,25,0
2,note_on,49,30,0
2,note_on,49,0,720
2,note_on,37,0,0
2,note_on,33,30,0
2,note_on,45,36,0
2,note_on,45,0,240
2,note_on,33,0,0
2,note_on,32,31,0
2,note_on,44,37,0
2,note_on,44,0,480
2,note_on,32,0,0
2,note_on,44,34,0
2,note_on,44,0,660
2,note_on,42,28,0
2,note_on,42,0,60
2,note_on,41,31,0
2,note_on,41,0,180
2,note_on,39,27,0
2,note_on,39,0,60
2,note_on,37,27,0
2,note_on,37,0,240
2,note_on,42,40,240
2,note_on,44,40,0
2,note_on,44,0,480
2,note_on,42,0,0
2,note_on,39,35,0
2,note_on,44,35,0
2,note_on,44,0,420
2,note_on,39,0,0
2,note_on,42,35,0
2,note_on,44,35,0
2,note_on,44,0,60
2,note_on,42,0,0
2,note_on,41,33,0
2,note_on,44,39,0
2,note_on,44,0,360
2,note_on,41,0,0
2,note_on,37,39,0
2,note_on,44,46,0
2,note_on,44,0,120
2,note_on,37,0,0
2,note_on,39,37,0
2,note_on,44,44,0
2,note_on,44,0,240
2,note_on,39,0,0
2,note_on,37,28,0
2,note_on,44,34,0
2,note_on,44,0,240
2,note_on,37,0,0
2,note_on,42,40,0
2,note_on,44,40,0
2,note_on,44,0,480
2,note_on,42,0,0
2,note_on,39,35,0
2,note_on,44,35,0
2,note_on,44,0,420
2,note_on,39,0,0
2,note_on,42,35,0
2,note_on,44,35,0
2,note_on,44,0,60
2,note_on,42,0,0
2,note_on,41,33,0
2,note_on,44,39,0
2,note_on,44,0,360
2,note_on,41,0,0
2,note_on,37,39,0
2,note_on,44,46,0
2,note_on,44,0,120
2,note_on,37,0,0
2,note_on,36,37,0
2,note_on,44,44,0
2,note_on,44,0,240
2,note_on,36,0,0
2,note_on,37,28,0
2,note_on,44,34,0
2,note_on,44,0,240
2,note_on,37,0,0
2,note_on,42,48,0
2,note_on,44,48,0
2,note_on,44,0,480
2,note_on,42,0,0
2,note_on,39,49,0
2,note_on,44,49,0
2,note_on,44,0,420
2,note_on,39,0,0
2,note_on,42,55,0
2,note_on,44,55,0
2,note_on,44,0,60
2,note_on,42,0,0
2,note_on,41,73,0
2,note_on,53,73,0
2,note_on,53,0,360
2,note_on,41,0,0
2,note_on,37,48,0
2,note_on,49,53,0
2,note_on,49,0,120
2,note_on,37,0,0
2,note_on,39,52,0
2,note_on,51,62,0
2,note_on,51,0,240
2,note_on,39,0,0
2,note_on,41,36,0
2,note_on,53,42,0
2,note_on,53,0,240
2,note_on,41,0,0
2,note_on,42,37,0
2,note_on,42,0,480
2,note_on,44,34,0
2,note_on,44,0,660
2,note_on,42,28,0
2,note_on,42,0,60
2,note_on,41,30,0
2,note_on,41,0,180
2,note_on,39,27,0
2,note_on,39,0,60
2,note_on,37,26,0
2,note_on,37,0,240
2,note_on,42,40,240
2,note_on,44,40,0
2,note_on,44,0,480
2,note_on,42,0,0
2,note_on,39,35,0
2,note_on,44,35,0
2,note_on,44,0,420
2,note_on,39,0,0
2,note_on,42,35,0
2,note_on,44,35,0
2,note_on,44,0,60
2,note_on,42,0,0
2,note_on,41,33,0
2,note_on,44,39,0
2,note_on,44,0,360
2,note_on,41,0,0
2,note_on,37,39,0
2,note_on,44,46,0
2,note_on,44,0,120
2,note_on,37,0,0
2,note_on,39,37,0
2,note_on,44,44,0
2,note_on,44,0,240
2,note_on,39,0,0
2,note_on,37,28,0
2,note_on,44,34,0
2,note_on,44,0,240
2,note_on,37,0,0
2,note_on,42,40,0
2,note_on,44,40,0
2,note_on,44,0,480
2,note_on,42,0,0
2,note_on,39,35,0
2,note_on,44,35,0
2,note_on,44,0,420
2,note_on,39,0,0
2,note_on,42,35,0
2,note_on,44,35,0
2,note_on,44,0,60
2,note_on,42,0,0
2,note_on,41,33,0
2,note_on,44,39,0
2,note_on,44,0,360
2,note_on,41,0,0
2,note_on,37,39,0
2,note_on,44,46,0
2,note_on,44,0,120
2,note_on,37,0,0
2,note_on,36,37,0
2,note_on,44,44,0
2,note_on,44,0,240
2,note_on,36,0,0
2,note_on,37,28,0
2,note_on,44,34,0
2,note_on,44,0,240
2,note_on,37,0,0
2,note_on,42,48,0
2,note_on,44,48,0
2,note_on,44,0,480
2,note_on,42,0,0
2,note_on,39,49,0
2,note_on,44,49,0
2,note_on,44,0,420
2,note_on,39,0,0
2,note_on,42,55,0
2,note_on,44,55,0
2,note_on,44,0,60
2,note_on,42,0,0
2,note_on,41,73,0
2,note_on,53,73,0
2,note_on,53,0,360
2,note_on,41,0,0
2,note_on,37,49,0
2,note_on,49,55,0
2,note_on,49,0,120
2,note_on,37,0,0
2,note_on,39,52,0
2,note_on,51,62,0
2,note_on,51,0,240
2,note_on,39,0,0
2,note_on,41,36,0
2,note_on,53,42,0
2,note_on,53,0,240
2,note_on,41,0,0
2,note_on,42,37,0
2,note_on,42,0,480
2,note_on,44,34,0
2,note_on,44,0,660
2,note_on,42,28,0
2,note_on,42,0,60
2,note_on,41,30,0
2,note_on,41,0,180
2,note_on,39,28,0
2,note_on,39,0,60
2,note_on,37,26,0
2,note_on,37,0,240
2,note_on,37,40,480
2,note_on,37,0,480
2,note_on,30,31,0
2,note_on,30,0,480
2,note_on,32,39,0
2,note_on,32,0,480
2,note_on,31,35,0
2,note_on,31,0,480
2,note_on,32,40,0
2,note_on,32,0,480
2,note_on,42,38,0
2,note_on,42,0,360
2,note_on,41,31,0
2,note_on,41,0,240
2,note_on,39,29,0
2,note_on,39,0,240
2,note_on,37,28,0
2,note_on,37,0,240
2,note_on,36,26,0
2,note_on,36,0,360
2,note_on,37,42,0
2,note_on,37,0,480
2,note_on,42,32,0
2,note_on,42,0,480
2,note_on,44,40,0
2,note_on,44,0,480
2,note_on,45,36,0
2,note_on,45,0,480
2,note_on,44,40,0
2,note_on,44,0,480
2,note_on,32,38,0
2,note_on,32,0,360
2,note_on,37,34,0
2,note_on,37,0,240
2,note_on,44,30,0
2,note_on,44,0,240
2,note_on,41,34,0
2,note_on,41,0,240
2,note_on,39,31,0
2,note_on,39,0,360
2,note_on,37,40,0
2,note_on,37,0,480
2,note_on,30,31,0
2,note_on,30,0,480
2,note_on,32,39,0
2,note_on,32,0,480
2,note_on,31,35,0
2,note_on,31,0,480
2,note_on,32,40,0
2,note_on,32,0,480
2,note_on,42,38,0
2,note_on,42,0,360
2,note_on,41,31,0
2,note_on,41,0,240
2,note_on,39,30,0
2,note_on,39,0,240
2,note_on,37,29,0
2,note_on,37,0,240
2,note_on,36,28,0
2,note_on,36,0,360
2,note_on,37,42,0
2,note_on,37,0,480
2,note_on,42,32,0
2,note_on,42,0,480
2,note_on,44,40,0
2,note_on,44,0,480
2,note_on,45,36,0
2,note_on,45,0,480
2,note_on,44,40,0
2,note_on,44,0,480
2,note_on,32,38,0
2,note_on,32,0,360
2,note_on,37,34,0
2,note_on,37,0,240
2,note_on,44,30,0
2,note_on,44,0,240
2,note_on,41,34,0
2,note_on,41,0,240
2,note_on,37,31,0
2,note_on,37,0,120
2,note_on,42,40,240
2,note_on,42,0,480
2,note_on,66,57,0
2,note_on,66,0,360
2,note_on,65,38,0
2,note_on,65,0,120
2,note_on,49,38,120
2,note_on,49,0,120
2,note_on,51,45,120
2,note_on,51,0,120
2,note_on,53,45,120
2,note_on,53,0,120
2,note_on,42,59,240
2,note_on,42,0,480
2,note_on,68,63,0
2,note_on,66,52,0
2,note_on,66,0,360
2,note_on,68,0,0
2,note_on,65,60,0
2,note_on,65,0,120
2,note_on,53,55,120
2,note_on,49,45,0
2,note_on,49,0,120
2,note_on,53,0,0
2,note_on,54,63,120
2,note_on,51,52,0
2,note_on,51,0,120
2,note_on,54,0,0
2,note_on,56,62,120
2,note_on,53,51,0
2,note_on,53,0,118
2,note_on,56,0,0
2,note_on,30,61,242
2,note_on,42,73,0
2,note_on,42,0,480
2,note_on,30,0,0
2,note_on,75,85,0
2,note_on,72,58,0
2,note_on,72,0,360
2,note_on,75,0,0
2,note_on,73,61,0
2,note_on,77,72,0
2,note_on,77,0,120
2,note_on,73,0,0
2,note_on,49,66,120
2,note_on,37,55,0
2,note_on,37,0,120
2,note_on,49,0,0
2,note_on,51,70,120
2,note_on,39,58,0
2,note_on,39,0,120
2,note_on,51,0,0
2,note_on,53,66,120
2,note_on,41,45,0
2,note_on,41,0,360
2,note_on,53,0,0
2,note_on,42,42,0
2,note_on,42,0,480
2,note_on,44,38,0
2,note_on,44,0,360
2,note_on,42,31,0
2,note_on,42,0,240
2,note_on,41,30,0
2,note_on,41,0,240
2,note_on,39,28,0
2,note_on,39,0,240
2,note_on,37,27,0
2,note_on,37,0,120
2,note_on,42,40,240
2,note_on,42,0,480
2,note_on,66,57,0
2,note_on,66,0,360
2,note_on,65,38,0
2,note_on,65,0,120
2,note_on,49,38,120
2,note_on,49,0,120
2,note_on,51,45,120
2,note_on,51,0,120
2,note_on,53,45,120
2,note_on,53,0,120
2,note_on,42,59,240
2,note_on,42,0,480
2,note_on,68,63,0
2,note_on,66,52,0
2,note_on,66,0,360
2,note_on,68,0,0
2,note_on,65,60,0
2,note_on,65,0,120
2,note_on,53,55,120
2,note_on,49,45,0
2,note_on,49,0,120
2,note_on,53,0,0
2,note_on,54,63,120
2,note_on,51,52,0
2,note_on,51,0,120
2,note_on,54,0,0
2,note_on,56,62,120
2,note_on,53,51,0
2,note_on,53,0,118
2,note_on,56,0,0
2,note_on,30,61,242
2,note_on,42,73,0
2,note_on,42,0,480
2,note_on,30,0,0
2,note_on,75,85,0
2,note_on,72,58,0
2,note_on,72,0,360
2,note_on,75,0,0
2,note_on,73,61,0
2,note_on,77,72,0
2,note_on,77,0,120
2,note_on,73,0,0
2,note_on,49,66,120
2,note_on,37,55,0
2,note_on,37,0,120
2,note_on,49,0,0
2,note_on,51,70,120
2,note_on,39,58,0
2,note_on,39,0,120
2,note_on,51,0,0
2,note_on,53,66,120
2,note_on,41,45,0
2,note_on,41,0,360
2,note_on,53,0,0
2,note_on,42,42,0
2,note_on,42,0,480
2,note_on,44,38,0
2,note_on,44,0,360
2,note_on,41,30,0
2,note_on,41,0,240
2,note_on,39,27,0
2,note_on,39,0,360
2,note_on,37,26,0
2,note_on,37,0,240
2,note_on,49,51,0
2,note_on,49,0,480
2,note_on,42,38,0
2,note_on,42,0,480
2,note_on,49,42,0
2,note_on,49,0,720
2,note_on,42,38,0
2,note_on,42,0,240
2,note_on,44,44,0
2,note_on,44,0,480
2,note_on,56,44,0
2,note_on,56,0,720
2,note_on,54,39,0
2,note_on,54,0,120
2,note_on,53,39,0
2,note_on,53,0,120
2,note_on,51,41,0
2,note_on,51,0,240
2,note_on,49,38,0
2,note_on,49,0,240
2,note_on,61,51,0
2,note_on,61,0,480
2,note_on,54,58,0
2,note_on,54,0,480
2,note_on,61,42,0
2,note_on,61,0,720
2,note_on,57,38,0
2,note_on,57,0,240
2,note_on,56,44,0
2,note_on,56,0,480
2,note_on,44,44,0
2,note_on,44,0,720
2,note_on,37,36,0
2,note_on,37,0,120
2,note_on,41,36,0
2,note_on,41,0,120
2,note_on,44,38,0
2,note_on,44,0,120
2,note_on,49,34,0
2,note_on,49,0,120
2,note_on,53,35,0
2,note_on,53,0,120
2,note_on,51,30,0
2,note_on,51,0,120
2,note_on,49,51,0
2,note_on,49,0,480
2,note_on,42,38,0
2,note_on,42,0,480
2,note_on,49,42,0
2,note_on,49,0,720
2,note_on,42,38,0
2,note_on,42,0,240
2,note_on,44,44,0
2,note_on,44,0,480
2,note_on,56,44,0
2,note_on,56,0,720
2,note_on,54,39,0
2,note_on,54,0,120
2,note_on,53,39,0
2,note_on,53,0,120
2,note_on,51,41,0
2,note_on,51,0,240
2,note_on,49,38,0
2,note_on,49,0,240
2,note_on,61,51,0
2,note_on,61,0,480
2,note_on,54,58,0
2,note_on,54,0,480
2,note_on,61,42,0
2,note_on,61,0,720
2,note_on,57,38,0
2,note_on,57,0,240
2,note_on,56,44,0
2,note_on,56,0,480
2,note_on,44,44,0
2,note_on,44,0,720
2,note_on,49,36,0
2,note_on,49,0,120
2,note_on,53,36,0
2,note_on,53,0,120
2,note_on,53,38,0
2,note_on,53,0,120
2,note_on,49,34,0
2,note_on,49,0,120
2,note_on,53,35,0
2,note_on,53,0,120
2,note_on,56,30,0
2,note_on,56,0,120
2,note_on,56,51,0
2,note_on,54,51,0
2,note_on,54,0,480
2,note_on,51,38,0
2,note_on,51,0,480
2,note_on,56,0,0
2,note_on,53,38,0
2,note_on,56,46,0
2,note_on,56,0,240
2,note_on,53,0,0
2,note_on,51,41,0
2,note_on,56,49,0
2,note_on,56,0,120
2,note_on,51,0,0
2,note_on,53,45,0
2,note_on,56,54,0
2,note_on,56,0,120
2,note_on,53,0,0
2,note_on,51,49,0
2,note_on,56,59,0
2,note_on,56,0,240
2,note_on,51,0,0
2,note_on,49,42,0
2,note_on,56,50,0
2,note_on,56,0,240
2,note_on,49,0,0
2,note_on,56,51,0
2,note_on,54,51,0
2,note_on,54,0,480
2,note_on,51,38,0
2,note_on,51,0,480
2,note_on,56,0,0
2,note_on,53,38,0
2,note_on,56,46,0
2,note_on,56,0,240
2,note_on,53,0,0
2,note_on,51,41,0
2,note_on,56,49,0
2,note_on,56,0,120
2,note_on,51,0,0
2,note_on,49,45,0
2,note_on,56,54,0
2,note_on,56,0,120
2,note_on,49,0,0
2,note_on,48,49,0
2,note_on,56,59,0
2,note_on,56,0,240
2,note_on,48,0,0
2,note_on,49,42,0
2,note_on,56,50,0
2,note_on,56,0,240
2,note_on,49,0,0
2,note_on,56,58,0
2,note_on,54,58,0
2,note_on,54,0,480
2,note_on,51,62,0
2,note_on,51,0,480
2,note_on,56,0,0
2,note_on,53,59,0
2,note_on,56,59,0
2,note_on,61,73,0
2,note_on,61,0,240
2,note_on,56,0,0
2,note_on,53,0,0
2,note_on,54,55,0
2,note_on,51,55,0
2,note_on,61,65,0
2,note_on,61,0,120
2,note_on,51,0,0
2,note_on,54,0,0
2,note_on,49,49,0
2,note_on,53,49,0
2,note_on,61,59,0
2,note_on,61,0,120
2,note_on,53,0,0
2,note_on,49,0,0
2,note_on,54,56,0
2,note_on,51,56,0
2,note_on,60,66,0
2,note_on,60,0,240
2,note_on,51,0,0
2,note_on,54,0,0
2,note_on,56,40,0
2,note_on,53,40,0
2,note_on,61,58,0
2,note_on,61,0,240
2,note_on,53,0,0
2,note_on,56,0,0
2,note_on,54,34,0
2,note_on,58,34,0
2,note_on,63,40,0
2,note_on,63,0,480
2,note_on,58,0,0
2,note_on,54,0,0
2,note_on,56,34,0
2,note_on,60,40,0
2,note_on,60,0,480
2,note_on,56,0,0
2,note_on,56,34,0
2,note_on,61,40,0
2,note_on,61,0,240
2,note_on,56,0,0
2,note_on,49,36,0
2,note_on,49,0,120
2,note_on,51,36,0
2,note_on,51,0,120
2,note_on,53,38,0
2,note_on,53,0,120
2,note_on,49,28,0
2,note_on,56,34,0
2,note_on,56,0,120
2,note_on,49,0,0
2,note_on,51,29,0
2,note_on,56,35,0
2,note_on,56,0,120
2,note_on,51,0,0
2,note_on,53,25,0
2,note_on,56,30,0
2,note_on,56,0,120
2,note_on,53,0,0
2,note_on,56,51,0
2,note_on,54,51,0
2,note_on,54,0,480
2,note_on,51,38,0
2,note_on,51,0,480
2,note_on,56,0,0
2,note_on,53,38,0
2,note_on,56,46,0
2,note_on,56,0,240
2,note_on,53,0,0
2,note_on,51,41,0
2,note_on,56,49,0
2,note_on,56,0,120
2,note_on,51,0,0
2,note_on,53,45,0
2,note_on,56,54,0
2,note_on,56,0,120
2,note_on,53,0,0
2,note_on,51,49,0
2,note_on,56,59,0
2,note_on,56,0,240
2,note_on,51,0,0
2,note_on,49,42,0
2,note_on,56,50,0
2,note_on,56,0,240
2,note_on,49,0,0
2,note_on,56,51,0
2,note_on,54,51,0
2,note_on,54,0,480
2,note_on,51,38,0
2,note_on,51,0,480
2,note_on,56,0,0
2,note_on,53,38,0
2,note_on,56,46,0
2,note_on,56,0,240
2,note_on,53,0,0
2,note_on,51,41,0
2,note_on,56,49,0
2,note_on,56,0,120
2,note_on,51,0,0
2,note_on,49,45,0
2,note_on,56,54,0
2,note_on,56,0,120
2,note_on,49,0,0
2,note_on,48,49,0
2,note_on,56,59,0
2,note_on,56,0,240
2,note_on,48,0,0
2,note_on,49,42,0
2,note_on,56,50,0
2,note_on,56,0,240
2,note_on,49,0,0
2,note_on,56,58,0
2,note_on,54,58,0
2,note_on,54,0,480
2,note_on,51,62,0
2,note_on,51,0,480
2,note_on,56,0,0
2,note_on,53,59,0
2,note_on,56,59,0
2,note_on,61,73,0
2,note_on,61,0,240
2,note_on,56,0,0
2,note_on,53,0,0
2,note_on,54,55,0
2,note_on,51,55,0
2,note_on,61,65,0
2,note_on,61,0,120
2,note_on,51,0,0
2,note_on,54,0,0
2,note_on,49,49,0
2,note_on,53,49,0
2,note_on,61,59,0
2,note_on,61,0,120
2,note_on,53,0,0
2,note_on,49,0,0
2,note_on,54,56,0
2,note_on,51,56,0
2,note_on,60,66,0
2,note_on,60,0,240
2,note_on,51,0,0
2,note_on,54,0,0
2,note_on,56,40,0
2,note_on,53,40,0
2,note_on,61,58,0
2,note_on,61,0,240
2,note_on,53,0,0
2,note_on,56,0,0
2,note_on,54,34,0
2,note_on,58,34,0
2,note_on,63,40,0
2,note_on,63,0,480
2,note_on,58,0,0
2,note_on,54,0,0
2,note_on,56,34,0
2,note_on,60,40,0
2,note_on,60,0,480
2,note_on,56,0,0
2,note_on,56,34,0
2,note_on,61,40,0
2,note_on,61,0,240
2,note_on,56,0,0
2,note_on,49,36,0
2,note_on,49,0,240
2,note_on,68,40,60
2,note_on,68,0,60
2,note_on,65,37,0
2,note_on,65,0,60
2,note_on,68,37,0
2,note_on,68,0,60
2,note_on,64,40,0
2,note_on,64,0,60
2,note_on,68,37,0
2,note_on,68,0,60
2,note_on,65,37,0
2,note_on,65,0,60
2,note_on,68,37,0
2,note_on,68,0,60
2,note_on,61,40,0
2,note_on,61,0,60
2,note_on,68,36,0
2,note_on,68,0,60
2,note_on,65,36,0
2,note_on,65,0,60
2,note_on,68,36,0
2,note_on,68,0,60
2,note_on,73,40,0
2,note_on,73,0,60
2,note_on,68,36,0
2,note_on,68,0,60
2,note_on,65,36,0
2,note_on,65,0,60
2,note_on,68,36,0
2,note_on,68,0,60
2,note_on,61,40,0
2,note_on,61,0,60
2,note_on,70,35,0
2,note_on,70,0,60
2,note_on,66,37,0
2,note_on,66,0,60
2,note_on,70,37,0
2,note_on,70,0,60
2,note_on,73,40,0
2,note_on,73,0,60
2,note_on,70,37,0
2,note_on,70,0,60
2,note_on,66,37,0
2,note_on,66,0,60
2,note_on,70,37,0
2,note_on,70,0,60
2,note_on,61,40,0
2,note_on,61,0,60
2,note_on,68,37,0
2,note_on,68,0,60
2,note_on,65,37,0
2,note_on,65,0,60
2,note_on,68,37,0
2,note_on,68,0,60
2,note_on,73,40,0
2,note_on,73,0,60
2,note_on,68,37,0
2,note_on,68,0,60
2,note_on,65,37,0
2,note_on,65,0,60
2,note_on,68,37,0
2,note_on,68,0,60
2,note_on,61,40,0
2,note_on,61,0,60
2,note_on,68,37,0
2,note_on,68,0,60
2,note_on,65,37,0
2,note_on,65,0,60
2,note_on,68,37,0
2,note_on,68,0,60
2,note_on,54,52,0
2,note_on,54,0,60
2,note_on,66,46,0
2,note_on,66,0,60
2,note_on,63,46,0
2,note_on,63,0,60
2,note_on,66,46,0
2,note_on,66,0,60
2,note_on,56,57,0
2,note_on,56,0,60
2,note_on,66,46,0
2,note_on,66,0,60
2,note_on,63,46,0
2,note_on,63,0,60
2,note_on,66,46,0
2,note_on,66,0,60
2,note_on,56,57,0
2,note_on,56,0,60
2,note_on,66,46,0
2,note_on,66,0,60
2,note_on,63,46,0
2,note_on,63,0,60
2,note_on,66,46,0
2,note_on,66,0,60
2,note_on,56,59,0
2,note_on,56,0,60
2,note_on,66,46,0
2,note_on,66,0,60
2,note_on,63,46,0
2,note_on,63,0,60
2,note_on,66,46,0
2,note_on,66,0,60
2,note_on,56,58,0
2,note_on,56,0,60
2,note_on,66,46,0
2,note_on,66,0,60
2,note_on,63,46,0
2,note_on,63,0,60
2,note_on,66,46,0
2,note_on,66,0,60
2,note_on,61,46,0
2,note_on,61,0,60
2,note_on,63,47,0
2,note_on,63,0,60
2,note_on,65,48,0
2,note_on,65,0,60
2,note_on,66,49,0
2,note_on,66,0,60
2,note_on,68,52,0
2,note_on,68,0,60
2,note_on,70,49,0
2,note_on,70,0,60
2,note_on,68,51,0
2,note_on,68,0,60
2,note_on,66,50,0
2,note_on,66,0,60
2,note_on,65,45,0
2,note_on,65,0,60
2,note_on,66,47,0
2,note_on,66,0,60
2,note_on,68,48,0
2,note_on,68,0,60
2,note_on,70,49,0
2,note_on,70,0,60
2,note_on,72,54,0
2,note_on,72,0,60
2,note_on,73,46,0
2,note_on,73,0,60
2,note_on,68,50,0
2,note_on,68,0,60
2,note_on,66,46,0
2,note_on,66,0,60
2,note_on,65,40,0
2,note_on,65,0,60
2,note_on,73,36,0
2,note_on,73,0,60
2,note_on,68,36,0
2,note_on,68,0,60
2,note_on,73,36,0
2,note_on,73,0,60
2,note_on,77,40,0
2,note_on,77,0,60
2,note_on,73,36,0
2,note_on,73,0,60
2,note_on,68,36,0
2,note_on,68,0,60
2,note_on,73,36,0
2,note_on,73,0,60
2,note_on,66,40,0
2,note_on,66,0,60
2,note_on,73,35,0
2,note_on,73,0,60
2,note_on,70,37,0
2,note_on,70,0,60
2,note_on,73,37,0
2,note_on,73,0,60
2,note_on,78,40,0
2,note_on,78,0,60
2,note_on,73,37,0
2,note_on,73,0,60
2,note_on,70,37,0
2,note_on,70,0,60
2,note_on,73,37,0
2,note_on,73,0,60
2,note_on,65,40,0
2,note_on,65,0,60
2,note_on,73,37,0
2,note_on,73,0,60
2,note_on,68,37,0
2,note_on,68,0,60
2,note_on,73,37,0
2,note_on,73,0,60
2,note_on,77,40,0
2,note_on,77,0,60
2,note_on,73,37,0
2,note_on,73,0,60
2,note_on,68,37,0
2,note_on,68,0,60
2,note_on,73,37,0
2,note_on,73,0,60
2,note_on,65,40,0
2,note_on,65,0,60
2,note_on,73,37,0
2,note_on,73,0,60
2,note_on,68,37,0
2,note_on,68,0,60
2,note_on,73,37,0
2,note_on,73,0,60
2,note_on,64,52,0
2,note_on,64,0,60
2,note_on,70,46,0
2,note_on,70,0,60
2,note_on,67,46,0
2,note_on,67,0,60
2,note_on,70,46,0
2,note_on,70,0,60
2,note_on,63,57,0
2,note_on,63,0,60
2,note_on,69,46,0
2,note_on,69,0,60
2,note_on,66,46,0
2,note_on,66,0,60
2,note_on,69,46,0
2,note_on,69,0,60
2,note_on,63,57,0
2,note_on,63,0,60
2,note_on,69,46,0
2,note_on,69,0,60
2,note_on,66,46,0
2,note_on,66,0,60
2,note_on,69,46,0
2,note_on,69,0,60
2,note_on,63,59,0
2,note_on,63,0,60
2,note_on,68,46,0
2,note_on,68,0,60
2,note_on,66,46,0
2,note_on,66,0,60
2,note_on,68,46,0
2,note_on,68,0,60
2,note_on,63,58,0
2,note_on,63,0,60
2,note_on,68,46,0
2,note_on,68,0,60
2,note_on,66,46,0
2,note_on,66,0,60
2,note_on,68,46,0
2,note_on,68,0,60
2,note_on,61,68,0
2,note_on,65,68,0
2,note_on,68,80,0
2,note_on,68,0,240
2,note_on,65,0,0
2,note_on,61,0,0
2,note_on,61,52,960
2,note_on,68,62,0
2,note_on,65,52,0
2,note_on,65,0,480
2,note_on,68,0,0
2,note_on,61,0,0
2,note_on,61,53,0
2,note_on,70,63,0
2,note_on,66,53,0
2,note_on,66,0,480
2,note_on,70,0,0
2,note_on,61,0,0
2,note_on,61,54,0
2,note_on,68,63,0
2,note_on,65,54,0
2,note_on,65,0,480
2,note_on,68,0,0
2,note_on,61,0,0
2,note_on,63,58,0
2,note_on,54,58,0
2,note_on,61,58,0
2,note_on,66,71,0
2,note_on,66,0,240
2,note_on,63,0,0
2,note_on,54,0,0
2,note_on,61,0,0
2,note_on,61,62,0
2,note_on,56,62,0
2,note_on,63,62,0
2,note_on,66,75,0
2,note_on,66,0,240
2,note_on,61,0,0
2,note_on,56,0,0
2,note_on,63,0,0
2,note_on,61,58,0
2,note_on,56,58,0
2,note_on,63,58,0
2,note_on,66,71,0
2,note_on,66,0,240
2,note_on,61,0,0
2,note_on,56,0,0
2,note_on,63,0,0
2,note_on,60,55,0
2,note_on,56,54,0
2,note_on,63,60,0
2,note_on,66,73,0
2,note_on,66,0,240
2,note_on,60,0,0
2,note_on,56,0,0
2,note_on,63,0,0
2,note_on,60,53,0
2,note_on,56,52,0
2,note_on,63,57,0
2,note_on,66,67,0
2,note_on,66,0,240
2,note_on,60,0,0
2,note_on,56,0,0
2,note_on,63,0,0
2,note_on,61,65,0
2,note_on,65,76,0
2,note_on,65,0,240
2,note_on,61,0,0
2,note_on,73,62,960
2,note_on,68,52,0
2,note_on,68,0,480
2,note_on,73,0,0
2,note_on,73,63,0
2,note_on,70,53,0
2,note_on,70,0,480
2,note_on,73,0,0
2,note_on,73,63,0
2,note_on,68,54,0
2,note_on,68,0,480
2,note_on,73,0,0
2,note_on,69,71,0
2,note_on,69,0,240
2,note_on,68,75,0
2,note_on,68,0,240
2,note_on,68,71,0
2,note_on,68,0,240
2,note_on,56,76,0
2,note_on,56,0,240
2,note_on,56,70,0
2,note_on,56,0,240
2,note_on,56,54,0
2,note_on,56,0,60
2,note_on,58,55,0
2,note_on,58,0,60
2,note_on,60,57,0
2,note_on,60,0,60
2,note_on,61,58,0
2,note_on,61,0,60
2,note_on,60,59,0
2,note_on,60,0,60
2,note_on,61,53,0
2,note_on,61,0,60
2,note_on,63,56,0
2,note_on,63,0,60
2,note_on,65,53,0
2,note_on,65,0,60
2,note_on,63,48,0
2,note_on,63,0,60
2,note_on,65,49,0
2,note_on,65,0,60
2,note_on,66,50,0
2,note_on,66,0,60
2,note_on,68,51,0
2,note_on,68,0,60
2,note_on,70,54,0
2,note_on,70,0,60
2,note_on,72,46,0
2,note_on,72,0,60
2,note_on,73,50,0
2,note_on,73,0,60
2,note_on,68,46,0
2,note_on,68,0,60
2,note_on,66,40,0
2,note_on,66,0,60
2,note_on,75,36,0
2,note_on,75,0,60
2,note_on,72,36,0
2,note_on,72,0,60
2,note_on,75,36,0
2,note_on,75,0,60
2,note_on,71,40,0
2,note_on,71,0,60
2,note_on,75,36,0
2,note_on,75,0,60
2,note_on,72,36,0
2,note_on,72,0,60
2,note_on,75,36,0
2,note_on,75,0,60
2,note_on,78,57,0
2,note_on,78,0,60
2,note_on,75,35,0
2,note_on,75,0,60
2,note_on,72,37,0
2,note_on,72,0,60
2,note_on,75,37,0
2,note_on,75,0,60
2,note_on,66,40,0
2,note_on,66,0,60
2,note_on,75,37,0
2,note_on,75,0,60
2,note_on,72,37,0
2,note_on,72,0,60
2,note_on,75,37,0
2,note_on,75,0,60
2,note_on,65,40,0
2,note_on,65,0,60
2,note_on,73,37,0
2,note_on,73,0,60
2,note_on,68,37,0
2,note_on,68,0,60
2,note_on,73,37,0
2,note_on,73,0,60
2,note_on,65,40,0
2,note_on,65,0,60
2,note_on,73,37,0
2,note_on,73,0,60
2,note_on,68,37,0
2,note_on,68,0,60
2,note_on,73,37,0
2,note_on,73,0,60
2,note_on,63,40,0
2,note_on,63,0,60
2,note_on,72,37,0
2,note_on,72,0,60
2,note_on,66,37,0
2,note_on,66,0,60
2,note_on,72,37,0
2,note_on,72,0,60
2,note_on,61,40,0
2,note_on,61,0,60
2,note_on,73,38,0
2,note_on,73,0,60
2,note_on,65,38,0
2,note_on,65,0,60
2,note_on,73,38,0
2,note_on,73,0,60
2,note_on,66,40,0
2,note_on,66,0,60
2,note_on,75,36,0
2,note_on,75,0,60
2,note_on,72,36,0
2,note_on,72,0,60
2,note_on,75,36,0
2,note_on,75,0,60
2,note_on,71,40,0
2,note_on,71,0,60
2,note_on,75,36,0
2,note_on,75,0,60
2,note_on,72,36,0
2,note_on,72,0,60
2,note_on,75,36,0
2,note_on,75,0,60
2,note_on,78,58,0
2,note_on,78,0,60
2,note_on,75,35,0
2,note_on,75,0,60
2,note_on,72,37,0
2,note_on,72,0,60
2,note_on,75,37,0
2,note_on,75,0,60
2,note_on,66,40,0
2,note_on,66,0,60
2,note_on,75,37,0
2,note_on,75,0,60
2,note_on,72,37,0
2,note_on,72,0,60
2,note_on,75,37,0
2,note_on,75,0,60
2,note_on,65,40,0
2,note_on,65,0,60
2,note_on,77,37,0
2,note_on,77,0,60
2,note_on,73,37,0
2,note_on,73,0,60
2,note_on,77,37,0
2,note_on,77,0,60
2,note_on,68,40,0
2,note_on,68,0,60
2,note_on,77,37,0
2,note_on,77,0,60
2,note_on,73,37,0
2,note_on,73,0,60
2,note_on,77,37,0
2,note_on,77,0,60
2,note_on,66,40,0
2,note_on,66,0,60
2,note_on,75,37,0
2,note_on,75,0,60
2,note_on,72,37,0
2,note_on,72,0,60
2,note_on,75,37,0
2,note_on,75,0,60
2,note_on,65,40,0
2,note_on,65,0,60
2,note_on,73,38,0
2,note_on,73,0,60
2,note_on,68,38,0
2,note_on,68,0,60
2,note_on,73,38,0
2,note_on,73,0,60
2,note_on,72,48,0
2,note_on,72,0,60
2,note_on,78,47,0
2,note_on,78,0,60
2,note_on,75,47,0
2,note_on,75,0,60
2,note_on,78,47,0
2,note_on,78,0,60
2,note_on,80,53,0
2,note_on,80,0,60
2,note_on,78,48,0
2,note_on,78,0,60
2,note_on,75,48,0
2,note_on,75,0,60
2,note_on,78,48,0
2,note_on,78,0,60
2,note_on,80,55,0
2,note_on,80,0,60
2,note_on,78,48,0
2,note_on,78,0,60
2,note_on,75,50,0
2,note_on,75,0,60
2,note_on,78,50,0
2,note_on,78,0,60
2,note_on,80,56,0
2,note_on,80,0,60
2,note_on,78,52,0
2,note_on,78,0,60
2,note_on,75,52,0
2,note_on,75,0,60
2,note_on,78,53,0
2,note_on,78,0,60
2,note_on,77,57,0
2,note_on,77,0,60
2,note_on,80,52,0
2,note_on,80,0,60
2,note_on,77,53,0
2,note_on,77,0,60
2,note_on,80,53,0
2,note_on,80,0,60
2,note_on,85,60,0
2,note_on,85,0,60
2,note_on,80,53,0
2,note_on,80,0,60
2,note_on,85,55,0
2,note_on,85,0,60
2,note_on,80,55,0
2,note_on,80,0,60
2,note_on,84,61,0
2,note_on,84,0,60
2,note_on,78,53,0
2,note_on,78,0,60
2,note_on,84,57,0
2,note_on,84,0,60
2,note_on,78,57,0
2,note_on,78,0,60
2,note_on,77,67,0
2,note_on,77,0,60
2,note_on,80,62,0
2,note_on,80,0,60
2,note_on,77,62,0
2,note_on,77,0,60
2,note_on,80,62,0
2,note_on,80,0,60
2,note_on,82,81,0
2,note_on,82,0,60
2,note_on,78,69,0
2,note_on,78,0,60
2,note_on,82,74,0
2,note_on,82,0,60
2,note_on,80,61,0
2,note_on,80,0,60
2,note_on,78,68,0
2,note_on,78,0,60
2,note_on,77,60,0
2,note_on,77,0,60
2,note_on,75,63,0
2,note_on,75,0,60
2,note_on,73,61,0
2,note_on,73,0,60
2,note_on,72,60,0
2,note_on,72,0,60
2,note_on,70,59,0
2,note_on,70,0,60
2,note_on,68,57,0
2,note_on,68,0,60
2,note_on,66,56,0
2,note_on,66,0,60
2,note_on,65,55,0
2,note_on,65,0,60
2,note_on,63,52,0
2,note_on,63,0,60
2,note_on,61,51,0
2,note_on,61,0,60
2,note_on,60,49,0
2,note_on,60,0,60
2,note_on,61,55,0
2,note_on,61,0,240
2,note_on,54,66,960
2,note_on,54,0,480
2,note_on,66,55,0
2,note_on,68,55,0
2,note_on,75,66,0
2,note_on,75,0,480
2,note_on,68,0,0
2,note_on,66,0,0
2,note_on,65,49,0
2,note_on,68,49,0
2,note_on,73,58,0
2,note_on,73,0,120
2,note_on,68,0,0
2,note_on,65,0,0
2,note_on,63,46,120
2,note_on,68,46,0
2,note_on,72,56,0
2,note_on,72,0,120
2,note_on,68,0,0
2,note_on,63,0,0
2,note_on,61,42,120
2,note_on,68,42,0
2,note_on,73,50,0
2,note_on,73,0,120
2,note_on,68,0,0
2,note_on,61,0,0
2,note_on,54,66,360
2,note_on,54,0,480
2,note_on,72,55,0
2,note_on,75,55,0
2,note_on,78,66,0
2,note_on,78,0,480
2,note_on,75,0,0
2,note_on,72,0,0
2,note_on,68,42,0
2,note_on,73,42,0
2,note_on,77,61,0
2,note_on,77,0,120
2,note_on,73,0,0
2,note_on,68,0,0
2,note_on,66,48,120
2,note_on,72,48,0
2,note_on,75,58,0
2,note_on,75,0,120
2,note_on,72,0,0
2,note_on,66,0,0
2,note_on,65,45,120
2,note_on,68,45,0
2,note_on,73,53,0
2,note_on,73,0,120
2,note_on,68,0,0
2,note_on,65,0,0
2,note_on,66,74,360
2,note_on,72,74,0
2,note_on,75,74,0
2,note_on,75,0,480
2,note_on,72,0,0
2,note_on,66,0,0
2,note_on,75,68,0
2,note_on,78,68,0
2,note_on,80,81,0
2,note_on,80,0,480
2,note_on,78,0,0
2,note_on,75,0,0
2,note_on,73,52,0
2,note_on,77,52,0
2,note_on,80,75,0
2,note_on,80,0,120
2,note_on,77,0,0
2,note_on,73,0,0
2,note_on,72,61,120
2,note_on,66,61,0
2,note_on,75,61,0
2,note_on,78,74,0
2,note_on,78,0,120
2,note_on,72,0,0
2,note_on,66,0,0
2,note_on,75,0,0
2,note_on,68,60,120
2,note_on,65,60,0
2,note_on,73,60,0
2,note_on,77,72,0
2,note_on,77,0,120
2,note_on,68,0,0
2,note_on,65,0,0
2,note_on,73,0,0
2,note_on,63,68,360
2,note_on,66,68,0
2,note_on,70,68,0
2,note_on,73,81,0
2,note_on,73,0,120
2,note_on,63,0,0
2,note_on,66,0,0
2,note_on,70,0,0
2,note_on,56,69,360
2,note_on,60,69,0
2,note_on,63,69,0
2,note_on,66,82,0
2,note_on,66,0,120
2,note_on,56,0,0
2,note_on,60,0,0
2,note_on,63,0,0
2,note_on,58,54,600
2,note_on,58,0,60
2,note_on,56,53,0
2,note_on,56,0,60
2,note_on,54,51,0
2,note_on,54,0,60
2,note_on,53,50,0
2,note_on,53,0,60
2,note_on,51,48,0
2,note_on,51,0,60
2,note_on,49,47,0
2,note_on,49,0,60
2,note_on,44,45,0
2,note_on,44,0,60
2,note_on,41,44,0
2,note_on,41,0,60
2,note_on,37,47,0
2,note_on,37,0,480
2,note_on,30,35,0
2,note_on,30,0,480
2,note_on,37,37,0
2,note_on,37,0,720
2,note_on,54,35,0
2,note_on,54,0,240
2,note_on,56,40,0
2,note_on,56,0,600
2,note_on,54,38,0
2,note_on,54,0,120
2,note_on,53,38,0
2,note_on,53,0,120
2,note_on,51,38,0
2,note_on,51,0,120
2,note_on,49,40,0
2,note_on,49,0,120
2,note_on,46,37,0
2,note_on,46,0,120
2,note_on,44,37,0
2,note_on,44,0,120
2,note_on,42,37,0
2,note_on,42,0,120
2,note_on,41,40,0
2,note_on,41,0,120
2,note_on,44,38,0
2,note_on,44,0,120
2,note_on,42,38,0
2,note_on,42,0,120
2,note_on,39,38,0
2,note_on,39,0,120
2,note_on,37,39,0
2,note_on,49,46,0
2,note_on,49,0,480
2,note_on,37,0,0
2,note_on,30,40,0
2,note_on,42,48,0
2,note_on,42,0,480
2,note_on,30,0,0
2,note_on,37,27,0
2,note_on,49,32,0
2,note_on,49,0,720
2,note_on,37,0,0
2,note_on,57,36,0
2,note_on,57,0,240
2,note_on,56,37,0
2,note_on,56,0,600
2,note_on,54,37,0
2,note_on,54,0,120
2,note_on,51,37,0
2,note_on,51,0,120
2,note_on,48,37,0
2,note_on,48,0,120
2,note_on,44,40,0
2,note_on,44,0,120
2,note_on,41,37,0
2,note_on,41,0,120
2,note_on,39,37,0
2,note_on,39,0,120
2,note_on,37,37,0
2,note_on,37,0,120
2,note_on,36,40,0
2,note_on,36,0,120
2,note_on,37,37,0
2,note_on,37,0,120
2,note_on,41,37,0
2,note_on,41,0,120
2,note_on,37,37,0
2,note_on,37,0,120
2,note_on,42,40,0
2,note_on,44,40,0
2,note_on,44,0,480
2,note_on,42,0,0
2,note_on,39,35,0
2,note_on,44,35,0
2,note_on,44,0,420
2,note_on,39,0,0
2,note_on,42,35,0
2,note_on,44,35,0
2,note_on,44,0,60
2,note_on,42,0,0
2,note_on,41,33,0
2,note_on,44,39,0
2,note_on,44,0,360
2,note_on,41,0,0
2,note_on,61,46,0
2,note_on,61,0,120
2,note_on,63,44,0
2,note_on,63,0,240
2,note_on,61,34,0
2,note_on,61,0,240
2,note_on,42,40,0
2,note_on,44,40,0
2,note_on,44,0,480
2,note_on,42,0,0
2,note_on,39,35,0
2,note_on,44,35,0
2,note_on,44,0,420
2,note_on,39,0,0
2,note_on,42,35,0
2,note_on,44,35,0
2,note_on,44,0,60
2,note_on,42,0,0
2,note_on,41,33,0
2,note_on,44,39,0
2,note_on,44,0,360
2,note_on,41,0,0
2,note_on,61,46,0
2,note_on,61,0,120
2,note_on,60,44,0
2,note_on,60,0,240
2,note_on,61,34,0
2,note_on,61,0,240
2,note_on,42,56,0
2,note_on,44,56,0
2,note_on,44,0,480
2,note_on,42,0,0
2,note_on,39,57,0
2,note_on,44,57,0
2,note_on,44,0,420
2,note_on,39,0,0
2,note_on,42,62,0
2,note_on,44,62,0
2,note_on,44,0,60
2,note_on,42,0,0
2,note_on,65,82,0
2,note_on,65,0,360
2,note_on,61,56,0
2,note_on,65,63,0
2,note_on,65,0,120
2,note_on,61,0,0
2,note_on,63,59,0
2,note_on,66,71,0
2,note_on,66,0,240
2,note_on,63,0,0
2,note_on,65,47,0
2,note_on,68,53,0
2,note_on,68,0,120
2,note_on,65,0,0
2,note_on,61,37,0
2,note_on,65,50,0
2,note_on,65,0,120
2,note_on,61,0,0
2,note_on,54,37,0
2,note_on,58,37,0
2,note_on,58,0,480
2,note_on,54,0,0
2,note_on,60,34,0
2,note_on,56,34,0
2,note_on,56,0,480
2,note_on,60,0,0
2,note_on,46,27,0
2,note_on,49,28,60
2,note_on,52,30,60
2,note_on,55,31,60
2,note_on,58,34,60
2,note_on,58,0,720
2,note_on,52,0,0
2,note_on,46,0,0
2,note_on,49,0,0
2,note_on,55,0,0
2,note_on,58,74,0
2,note_on,61,79,60
2,note_on,64,82,60
2,note_on,67,86,60
2,note_on,70,90,60
2,note_on,70,0,720
2,note_on,64,0,0
2,note_on,58,0,0
2,note_on,61,0,0
2,note_on,67,0,0
