Track,Message Type,Note,Velocity,Time
1,note_on,72,96,2
1,note_on,63,80,118
1,note_on,72,0,22
1,note_on,62,77,97
1,note_on,63,0,21
1,note_on,63,77,99
1,note_on,62,0,20
1,note_on,60,80,103
1,note_on,63,0,17
1,note_on,63,76,102
1,note_on,60,0,21
1,note_on,62,76,99
1,note_on,63,0,20
1,note_on,63,76,97
1,note_on,62,0,23
1,note_on,63,0,97
1,note_on,72,96,4
1,note_on,63,80,119
1,note_on,72,0,21
1,note_on,62,78,98
1,note_on,63,0,21
1,note_on,63,78,97
1,note_on,62,0,22
1,note_on,60,80,97
1,note_on,63,0,21
1,note_on,63,78,99
1,note_on,60,0,20
1,note_on,62,77,102
1,note_on,63,0,18
1,note_on,63,77,100
1,note_on,62,0,22
1,note_on,63,0,98
1,note_on,68,96,0
1,note_on,65,80,125
1,note_on,68,0,15
1,note_on,64,76,102
1,note_on,65,0,23
1,note_on,65,76,95
1,note_on,64,0,22
1,note_on,60,80,98
1,note_on,65,0,20
1,note_on,65,76,100
1,note_on,60,0,20
1,note_on,64,76,102
1,note_on,65,0,18
1,note_on,65,76,103
1,note_on,64,0,19
1,note_on,65,0,101
1,note_on,68,96,0
1,note_on,65,80,120
1,note_on,68,0,20
1,note_on,64,77,100
1,note_on,65,0,20
1,note_on,65,77,97
1,note_on,64,0,23
1,note_on,60,80,100
1,note_on,65,0,17
1,note_on,65,76,102
1,note_on,60,0,21
1,note_on,64,76,99
1,note_on,65,0,20
1,note_on,65,76,98
1,note_on,64,0,22
1,note_on,65,0,98
1,note_on,71,96,3
1,note_on,65,80,121
1,note_on,71,0,19
1,note_on,63,76,101
1,note_on,65,0,20
1,note_on,65,75,99
1,note_on,63,0,21
1,note_on,62,80,97
1,note_on,65,0,22
1,note_on,65,76,102
1,note_on,62,0,16
1,note_on,63,76,103
1,note_on,65,0,21
1,note_on,65,76,100
1,note_on,63,0,19
1,note_on,65,0,101
1,note_on,71,96,0
1,note_on,65,80,118
1,note_on,71,0,22
1,note_on,63,76,95
1,note_on,65,0,23
1,note_on,65,80,99
1,note_on,63,0,18
1,note_on,62,80,101
1,note_on,65,0,21
1,note_on,65,77,103
1,note_on,62,0,16
1,note_on,63,77,100
1,note_on,65,0,24
1,note_on,65,77,99
1,note_on,63,0,17
1,note_on,65,0,103
1,note_on,72,96,1
1,note_on,67,80,120
1,note_on,72,0,20
1,note_on,65,75,100
1,note_on,67,0,20
1,note_on,67,75,98
1,note_on,65,0,22
1,note_on,63,80,97
1,note_on,67,0,21
1,note_on,67,76,98
1,note_on,63,0,21
1,note_on,65,76,99
1,note_on,67,0,20
1,note_on,67,76,104
1,note_on,65,0,16
1,note_on,72,96,99
1,note_on,67,0,5
1,note_on,67,80,117
1,note_on,72,0,18
1,note_on,65,75,100
1,note_on,67,0,22
1,note_on,67,75,102
1,note_on,65,0,16
1,note_on,63,80,100
1,note_on,67,0,24
1,note_on,67,76,96
1,note_on,63,0,20
1,note_on,65,76,105
1,note_on,67,0,15
1,note_on,67,76,101
1,note_on,65,0,24
1,note_on,67,0,96
1,note_on,75,96,0
1,note_on,68,80,122
1,note_on,75,0,18
1,note_on,67,76,103
1,note_on,68,0,19
1,note_on,68,76,102
1,note_on,67,0,19
1,note_on,63,80,100
1,note_on,68,0,21
1,note_on,68,75,97
1,note_on,63,0,22
1,note_on,67,75,97
1,note_on,68,0,21
1,note_on,68,76,102
1,note_on,67,0,17
1,note_on,75,96,101
1,note_on,68,0,2
1,note_on,68,80,118
1,note_on,75,0,20
1,note_on,67,75,103
1,note_on,68,0,17
1,note_on,68,75,102
1,note_on,67,0,21
1,note_on,63,80,95
1,note_on,68,0,24
1,note_on,68,75,99
1,note_on,63,0,17
1,note_on,67,76,102
1,note_on,68,0,21
1,note_on,68,76,101
1,note_on,67,0,18
1,note_on,74,96,101
1,note_on,68,0,1
1,note_on,66,80,119
1,note_on,74,0,20
1,note_on,64,76,99
1,note_on,66,0,21
1,note_on,66,76,97
1,note_on,64,0,22
1,note_on,62,80,99
1,note_on,66,0,19
1,note_on,66,76,102
1,note_on,62,0,19
1,note_on,64,76,103
1,note_on,66,0,18
1,note_on,66,76,101
1,note_on,64,0,21
1,note_on,66,0,99
1,note_on,74,96,2
1,note_on,66,80,119
1,note_on,74,0,21
1,note_on,64,75,97
1,note_on,66,0,22
1,note_on,66,75,97
1,note_on,64,0,21
1,note_on,62,80,101
1,note_on,66,0,18
1,note_on,66,76,101
1,note_on,62,0,21
1,note_on,64,77,97
1,note_on,66,0,22
1,note_on,66,77,102
1,note_on,64,0,16
1,note_on,74,96,103
1,note_on,66,0,1
1,note_on,67,80,116
1,note_on,74,0,23
1,note_on,66,75,102
1,note_on,67,0,15
1,note_on,67,75,100
1,note_on,66,0,25
1,note_on,62,80,100
1,note_on,67,0,15
1,note_on,67,75,104
1,note_on,62,0,21
1,note_on,66,75,96
1,note_on,67,0,23
1,note_on,67,75,98
1,note_on,66,0,19
1,note_on,74,96,99
1,note_on,67,0,2
1,note_on,67,80,123
1,note_on,74,0,15
1,note_on,66,76,104
1,note_on,67,0,21
1,note_on,67,77,95
1,note_on,66,0,24
1,note_on,62,80,101
1,note_on,67,0,15
1,note_on,67,75,104
1,note_on,62,0,21
1,note_on,66,75,98
1,note_on,67,0,21
1,note_on,67,74,97
1,note_on,66,0,22
1,note_on,67,0,98
1,note_on,72,96,0
1,note_on,64,80,123
1,note_on,72,0,17
1,note_on,62,76,101
1,note_on,64,0,22
1,note_on,64,76,96
1,note_on,62,0,22
1,note_on,60,80,101
1,note_on,64,0,17
1,note_on,64,76,104
1,note_on,60,0,19
1,note_on,62,76,99
1,note_on,64,0,22
1,note_on,64,75,97
1,note_on,62,0,21
1,note_on,64,0,99
1,note_on,72,96,2
1,note_on,64,80,121
1,note_on,72,0,19
1,note_on,62,76,101
1,note_on,64,0,20
1,note_on,64,76,100
1,note_on,62,0,20
1,note_on,60,80,98
1,note_on,64,0,22
1,note_on,64,75,96
1,note_on,60,0,22
1,note_on,62,75,100
1,note_on,64,0,18
1,note_on,64,75,105
1,note_on,62,0,17
1,note_on,72,96,98
1,note_on,64,0,5
1,note_on,65,80,118
1,note_on,72,0,17
1,note_on,64,76,103
1,note_on,65,0,20
1,note_on,65,76,99
1,note_on,64,0,21
1,note_on,60,80,97
1,note_on,65,0,22
1,note_on,65,74,103
1,note_on,60,0,15
1,note_on,64,74,105
1,note_on,65,0,20
1,note_on,65,74,98
1,note_on,64,0,22
1,note_on,72,96,97
1,note_on,65,0,1
1,note_on,65,80,119
1,note_on,72,0,20
1,note_on,64,75,100
1,note_on,65,0,20
1,note_on,65,75,103
1,note_on,64,0,17
1,note_on,60,80,99
1,note_on,65,0,24
1,note_on,65,75,97
1,note_on,60,0,19
1,note_on,64,75,100
1,note_on,65,0,21
1,note_on,65,75,103
1,note_on,64,0,16
1,note_on,70,96,100
1,note_on,65,0,4
1,note_on,65,80,119
1,note_on,70,0,17
1,note_on,63,76,102
1,note_on,65,0,21
1,note_on,65,76,97
1,note_on,63,0,22
1,note_on,62,79,101
1,note_on,65,0,17
1,note_on,65,75,104
1,note_on,62,0,19
1,note_on,63,74,98
1,note_on,65,0,23
1,note_on,65,74,98
1,note_on,63,0,19
1,note_on,65,0,101
1,note_on,70,94,2
1,note_on,65,78,115
1,note_on,70,0,25
1,note_on,63,74,100
1,note_on,65,0,15
1,note_on,65,74,103
1,note_on,63,0,22
1,note_on,62,77,95
1,note_on,65,0,23
1,note_on,65,76,100
1,note_on,62,0,17
1,note_on,63,73,101
1,note_on,65,0,22
1,note_on,65,72,102
1,note_on,63,0,16
1,note_on,70,91,102
1,note_on,65,0,2
1,note_on,67,76,118
1,note_on,70,0,20
1,note_on,65,72,98
1,note_on,67,0,22
1,note_on,67,72,102
1,note_on,65,0,16
1,note_on,63,75,99
1,note_on,67,0,25
1,note_on,67,72,95
1,note_on,63,0,20
1,note_on,65,72,104
1,note_on,67,0,16
1,note_on,67,71,101
1,note_on,65,0,23
1,note_on,67,0,97
1,note_on,70,89,4
1,note_on,67,74,116
1,note_on,70,0,24
1,note_on,65,69,97
1,note_on,67,0,19
1,note_on,67,69,99
1,note_on,65,0,22
1,note_on,63,73,102
1,note_on,67,0,16
1,note_on,67,68,105
1,note_on,63,0,19
1,note_on,65,68,100
1,note_on,67,0,21
1,note_on,67,68,98
1,note_on,65,0,21
1,note_on,67,0,99
1,note_on,68,86,1
1,note_on,67,72,117
1,note_on,68,0,23
1,note_on,65,68,96
1,note_on,67,0,21
1,note_on,67,68,99
1,note_on,65,0,20
1,note_on,63,71,100
1,note_on,67,0,20
1,note_on,67,67,104
1,note_on,63,0,16
1,note_on,65,67,105
1,note_on,67,0,19
1,note_on,67,66,97
1,note_on,65,0,24
1,note_on,68,84,95
1,note_on,67,0,1
1,note_on,67,70,122
1,note_on,68,0,17
1,note_on,65,65,100
1,note_on,67,0,23
1,note_on,67,65,97
1,note_on,65,0,20
1,note_on,63,69,102
1,note_on,67,0,18
1,note_on,67,63,104
1,note_on,63,0,18
1,note_on,65,63,102
1,note_on,67,0,20
1,note_on,67,63,99
1,note_on,65,0,21
1,note_on,68,81,96
1,note_on,67,0,3
1,note_on,62,68,119
1,note_on,68,0,18
1,note_on,60,64,101
1,note_on,62,0,21
1,note_on,62,64,102
1,note_on,60,0,17
1,note_on,58,67,100
1,note_on,62,0,23
1,note_on,62,61,98
1,note_on,58,0,19
1,note_on,60,61,100
1,note_on,62,0,21
1,note_on,62,61,101
1,note_on,60,0,18
1,note_on,62,0,102
1,note_on,68,79,0
1,note_on,62,60,120
1,note_on,68,0,20
1,note_on,60,57,97
1,note_on,62,0,23
1,note_on,62,57,100
1,note_on,60,0,17
1,note_on,58,60,105
1,note_on,62,0,18
1,note_on,62,54,101
1,note_on,58,0,21
1,note_on,60,54,100
1,note_on,62,0,19
1,note_on,62,55,97
1,note_on,60,0,24
1,note_on,62,0,96
1,note_on,67,76,1
1,note_on,58,58,119
1,note_on,67,0,21
1,note_on,56,54,103
1,note_on,58,0,16
1,note_on,58,54,101
1,note_on,56,0,23
1,note_on,63,64,100
1,note_on,58,0,17
1,note_on,58,54,98
1,note_on,63,0,25
1,note_on,56,54,98
1,note_on,58,0,17
1,note_on,58,54,100
1,note_on,56,0,23
1,note_on,58,0,97
1,note_on,67,76,2
1,note_on,58,57,123
1,note_on,67,0,17
1,note_on,56,53,98
1,note_on,58,0,25
1,note_on,58,53,100
1,note_on,56,0,15
1,note_on,63,57,101
1,note_on,58,0,24
1,note_on,58,53,96
1,note_on,63,0,20
1,note_on,56,53,103
1,note_on,58,0,17
1,note_on,58,53,101
1,note_on,56,0,22
1,note_on,65,76,97
1,note_on,58,0,1
1,note_on,60,58,121
1,note_on,65,0,18
1,note_on,58,53,102
1,note_on,60,0,20
1,note_on,60,53,99
1,note_on,58,0,21
1,note_on,57,58,99
1,note_on,60,0,20
1,note_on,60,53,101
1,note_on,57,0,19
1,note_on,58,53,101
1,note_on,60,0,20
1,note_on,60,53,102
1,note_on,58,0,18
1,note_on,65,76,101
1,note_on,60,0,1
1,note_on,60,59,118
1,note_on,65,0,21
1,note_on,58,54,100
1,note_on,60,0,19
1,note_on,60,54,100
1,note_on,58,0,21
1,note_on,57,59,98
1,note_on,60,0,21
1,note_on,60,54,98
1,note_on,57,0,21
1,note_on,58,54,102
1,note_on,60,0,17
1,note_on,60,53,102
1,note_on,58,0,21
1,note_on,60,0,99
1,note_on,65,76,2
1,note_on,62,60,116
1,note_on,65,0,24
1,note_on,60,55,96
1,note_on,62,0,20
1,note_on,62,55,102
1,note_on,60,0,18
1,note_on,59,60,103
1,note_on,62,0,19
1,note_on,62,55,100
1,note_on,59,0,21
1,note_on,60,55,98
1,note_on,62,0,21
1,note_on,62,55,99
1,note_on,60,0,20
1,note_on,65,76,98
1,note_on,62,0,2
1,note_on,62,60,122
1,note_on,65,0,16
1,note_on,60,56,103
1,note_on,62,0,21
1,note_on,62,56,99
1,note_on,60,0,20
1,note_on,59,60,101
1,note_on,62,0,19
1,note_on,62,55,101
1,note_on,59,0,20
1,note_on,60,55,96
1,note_on,62,0,24
1,note_on,62,55,99
1,note_on,60,0,17
1,note_on,62,0,103
1,note_on,65,76,2
1,note_on,62,61,120
1,note_on,65,0,20
1,note_on,60,52,98
1,note_on,62,0,22
1,note_on,62,54,99
1,note_on,60,0,19
1,note_on,59,61,97
1,note_on,62,0,24
1,note_on,62,55,100
1,note_on,59,0,16
1,note_on,60,55,105
1,note_on,62,0,19
1,note_on,62,55,97
1,note_on,60,0,24
1,note_on,62,0,96
1,note_on,65,76,2
1,note_on,62,61,118
1,note_on,65,0,22
1,note_on,60,55,98
1,note_on,62,0,20
1,note_on,62,55,99
1,note_on,60,0,21
1,note_on,59,61,104
1,note_on,62,0,15
1,note_on,62,54,105
1,note_on,59,0,20
1,note_on,60,54,99
1,note_on,62,0,21
1,note_on,62,54,95
1,note_on,60,0,24
1,note_on,62,0,96
1,note_on,63,76,1
1,note_on,60,61,119
1,note_on,63,0,21
1,note_on,59,61,99
1,note_on,60,0,20
1,note_on,60,55,103
1,note_on,59,0,17
1,note_on,55,61,104
1,note_on,60,0,19
1,note_on,60,55,100
1,note_on,55,0,21
1,note_on,59,55,98
1,note_on,60,0,21
1,note_on,60,55,99
1,note_on,59,0,20
1,note_on,63,76,99
1,note_on,60,0,1
1,note_on,60,61,120
1,note_on,63,0,19
1,note_on,59,55,102
1,note_on,60,0,19
1,note_on,60,55,98
1,note_on,59,0,23
1,note_on,55,61,98
1,note_on,60,0,19
1,note_on,60,55,104
1,note_on,55,0,17
1,note_on,59,55,100
1,note_on,60,0,23
1,note_on,60,56,100
1,note_on,59,0,17
1,note_on,60,0,103
1,note_on,53,76,1
1,note_on,63,64,120
1,note_on,53,0,20
1,note_on,62,57,99
1,note_on,63,0,21
1,note_on,63,57,96
1,note_on,62,0,23
1,note_on,65,64,101
1,note_on,63,0,16
1,note_on,63,58,99
1,note_on,65,0,25
1,note_on,62,58,95
1,note_on,63,0,20
1,note_on,63,58,104
1,note_on,62,0,16
1,note_on,53,76,103
1,note_on,63,0,1
1,note_on,63,64,119
1,note_on,53,0,20
1,note_on,62,57,102
1,note_on,63,0,18
1,note_on,63,59,97
1,note_on,62,0,25
1,note_on,65,64,100
1,note_on,63,0,15
1,note_on,63,57,103
1,note_on,65,0,22
1,note_on,62,57,96
1,note_on,63,0,22
1,note_on,63,57,97
1,note_on,62,0,21
1,note_on,63,0,99
1,note_on,54,76,3
1,note_on,60,64,118
1,note_on,54,0,22
1,note_on,59,57,98
1,note_on,60,0,20
1,note_on,60,58,104
1,note_on,59,0,16
1,note_on,63,64,102
1,note_on,60,0,22
1,note_on,60,58,98
1,note_on,63,0,20
1,note_on,59,58,97
1,note_on,60,0,23
1,note_on,60,58,99
1,note_on,59,0,18
1,note_on,60,0,102
1,note_on,54,76,0
1,note_on,60,64,120
1,note_on,54,0,20
1,note_on,59,58,102
1,note_on,60,0,18
1,note_on,60,58,101
1,note_on,59,0,21
1,note_on,63,64,98
1,note_on,60,0,21
1,note_on,60,58,101
1,note_on,63,0,18
1,note_on,59,58,101
1,note_on,60,0,21
1,note_on,60,58,99
1,note_on,59,0,20
1,note_on,63,76,99
1,note_on,60,0,1
1,note_on,60,64,117
1,note_on,63,0,22
1,note_on,59,58,102
1,note_on,60,0,16
1,note_on,60,58,100
1,note_on,59,0,24
1,note_on,55,63,99
1,note_on,60,0,17
1,note_on,60,57,105
1,note_on,55,0,18
1,note_on,59,57,99
1,note_on,60,0,23
1,note_on,60,57,99
1,note_on,59,0,18
1,note_on,63,76,100
1,note_on,60,0,2
1,note_on,60,58,118
1,note_on,63,0,20
1,note_on,59,58,102
1,note_on,60,0,18
1,note_on,60,58,101
1,note_on,59,0,21
1,note_on,55,63,98
1,note_on,60,0,21
1,note_on,60,57,102
1,note_on,55,0,17
1,note_on,59,58,101
1,note_on,60,0,22
1,note_on,60,58,96
1,note_on,59,0,22
1,note_on,60,0,98
1,note_on,66,76,1
1,note_on,60,64,118
1,note_on,66,0,22
1,note_on,59,57,102
1,note_on,60,0,16
1,note_on,60,58,105
1,note_on,59,0,19
1,note_on,57,63,99
1,note_on,60,0,22
1,note_on,60,57,95
1,note_on,57,0,23
1,note_on,59,57,98
1,note_on,60,0,19
1,note_on,60,57,100
1,note_on,59,0,21
1,note_on,60,0,99
1,note_on,66,76,3
1,note_on,60,64,117
1,note_on,66,0,23
1,note_on,59,57,102
1,note_on,60,0,15
1,note_on,60,57,105
1,note_on,59,0,20
1,note_on,57,64,98
1,note_on,60,0,22
1,note_on,60,58,99
1,note_on,57,0,19
1,note_on,59,58,102
1,note_on,60,0,19
1,note_on,60,58,96
1,note_on,59,0,25
1,note_on,60,0,95
1,note_on,67,79,0
1,note_on,60,65,124
1,note_on,67,0,16
1,note_on,59,57,103
1,note_on,60,0,21
1,note_on,60,58,97
1,note_on,59,0,22
1,note_on,62,66,97
1,note_on,60,0,21
1,note_on,60,58,100
1,note_on,62,0,19
1,note_on,59,58,103
1,note_on,60,0,18
1,note_on,60,58,101
1,note_on,59,0,21
1,note_on,67,79,98
1,note_on,60,0,1
1,note_on,60,67,120
1,note_on,67,0,19
1,note_on,59,58,102
1,note_on,60,0,19
1,note_on,60,58,102
1,note_on,59,0,19
1,note_on,62,67,101
1,note_on,60,0,20
1,note_on,60,59,99
1,note_on,62,0,21
1,note_on,59,59,99
1,note_on,60,0,20
1,note_on,60,59,101
1,note_on,59,0,19
1,note_on,60,0,101
1,note_on,68,80,1
1,note_on,60,67,115
1,note_on,68,0,25
1,note_on,59,61,98
1,note_on,60,0,17
1,note_on,60,61,102
1,note_on,59,0,21
1,note_on,62,68,98
1,note_on,60,0,21
1,note_on,60,60,98
1,note_on,62,0,21
1,note_on,59,60,104
1,note_on,60,0,15
1,note_on,60,60,100
1,note_on,59,0,25
1,note_on,60,0,95
1,note_on,68,83,2
1,note_on,60,69,121
1,note_on,68,0,19
1,note_on,59,62,99
1,note_on,60,0,22
1,note_on,60,62,100
1,note_on,59,0,18
1,note_on,62,69,100
1,note_on,60,0,22
1,note_on,60,61,98
1,note_on,62,0,20
1,note_on,59,61,99
1,note_on,60,0,21
1,note_on,60,61,103
1,note_on,59,0,16
1,note_on,60,0,104
1,note_on,53,74,358
1,note_on,56,74,120
1,note_on,53,0,20
1,note_on,53,70,100
1,note_on,56,0,20
1,note_on,52,70,100
1,note_on,53,0,20
1,note_on,53,70,100
1,note_on,52,0,20
1,note_on,59,74,100
1,note_on,53,0,20
1,note_on,53,70,100
1,note_on,59,0,20
1,note_on,62,74,100
1,note_on,53,0,20
1,note_on,59,70,100
1,note_on,62,0,20
1,note_on,56,72,100
1,note_on,59,0,20
1,note_on,53,71,100
1,note_on,56,0,20
1,note_on,52,70,100
1,note_on,53,0,20
1,note_on,53,69,100
1,note_on,52,0,20
1,note_on,53,0,100
1,note_on,55,72,360
1,note_on,60,75,120
1,note_on,55,0,20
1,note_on,55,70,100
1,note_on,60,0,20
1,note_on,54,70,100
1,note_on,55,0,20
1,note_on,55,70,100
1,note_on,54,0,20
1,note_on,63,74,100
1,note_on,55,0,20
1,note_on,60,70,100
1,note_on,63,0,20
1,note_on,67,74,100
1,note_on,60,0,20
1,note_on,63,70,100
1,note_on,67,0,20
1,note_on,60,74,100
1,note_on,63,0,20
1,note_on,56,70,100
1,note_on,60,0,20
1,note_on,55,72,100
1,note_on,56,0,20
1,note_on,56,70,100
1,note_on,55,0,20
1,note_on,56,0,100
1,note_on,60,71,360
1,note_on,63,75,120
1,note_on,60,0,20
1,note_on,60,70,100
1,note_on,63,0,20
1,note_on,59,70,100
1,note_on,60,0,20
1,note_on,60,70,100
1,note_on,59,0,20
1,note_on,66,74,100
1,note_on,60,0,20
1,note_on,60,70,100
1,note_on,66,0,20
1,note_on,69,74,100
1,note_on,60,0,20
1,note_on,66,70,100
1,note_on,69,0,20
1,note_on,63,73,100
1,note_on,66,0,20
1,note_on,60,70,100
1,note_on,63,0,20
1,note_on,59,70,100
1,note_on,60,0,20
1,note_on,60,70,100
1,note_on,59,0,20
1,note_on,60,0,100
1,note_on,74,67,120
1,note_on,72,65,120
1,note_on,74,0,20
1,note_on,74,65,100
1,note_on,72,0,20
1,note_on,75,72,100
1,note_on,74,0,20
1,note_on,72,67,100
1,note_on,75,0,20
1,note_on,71,63,100
1,note_on,72,0,20
1,note_on,72,63,100
1,note_on,71,0,20
1,note_on,69,73,100
1,note_on,72,0,20
1,note_on,72,67,100
1,note_on,69,0,20
1,note_on,71,64,100
1,note_on,72,0,20
1,note_on,72,64,100
1,note_on,71,0,20
1,note_on,74,67,100
1,note_on,72,0,20
1,note_on,71,64,100
1,note_on,74,0,20
1,note_on,69,64,100
1,note_on,71,0,20
1,note_on,71,64,100
1,note_on,69,0,20
1,note_on,71,0,100
1,note_on,67,75,0
1,note_on,71,67,120
1,note_on,67,0,20
1,note_on,69,64,100
1,note_on,71,0,20
1,note_on,71,64,100
1,note_on,69,0,20
1,note_on,72,70,100
1,note_on,71,0,20
1,note_on,69,64,100
1,note_on,72,0,20
1,note_on,67,64,100
1,note_on,69,0,20
1,note_on,69,65,100
1,note_on,67,0,20
1,note_on,69,0,100
1,note_on,66,75,0
1,note_on,69,67,120
1,note_on,66,0,20
1,note_on,67,64,100
1,note_on,69,0,20
1,note_on,69,64,100
1,note_on,67,0,20
1,note_on,71,70,100
1,note_on,69,0,20
1,note_on,67,65,100
1,note_on,71,0,20
1,note_on,66,65,100
1,note_on,67,0,20
1,note_on,67,65,100
1,note_on,66,0,20
1,note_on,67,0,100
1,note_on,62,75,0
1,note_on,79,70,120
1,note_on,62,0,20
1,note_on,77,67,100
1,note_on,79,0,20
1,note_on,79,67,100
1,note_on,77,0,20
1,note_on,80,73,100
1,note_on,79,0,20
1,note_on,77,68,100
1,note_on,80,0,20
1,note_on,75,68,100
1,note_on,77,0,20
1,note_on,77,68,100
1,note_on,75,0,20
1,note_on,77,0,100
1,note_on,74,77,0
1,note_on,77,70,120
1,note_on,74,0,20
1,note_on,75,66,100
1,note_on,77,0,20
1,note_on,77,66,100
1,note_on,75,0,20
1,note_on,79,73,100
1,note_on,77,0,20
1,note_on,75,67,100
1,note_on,79,0,20
1,note_on,74,67,100
1,note_on,75,0,20
1,note_on,75,68,100
1,note_on,74,0,20
1,note_on,75,0,100
1,note_on,72,75,0
1,note_on,75,67,120
1,note_on,72,0,20
1,note_on,74,65,100
1,note_on,75,0,20
1,note_on,75,67,100
1,note_on,74,0,20
1,note_on,77,71,100
1,note_on,75,0,20
1,note_on,74,65,100
1,note_on,77,0,20
1,note_on,72,65,100
1,note_on,74,0,20
1,note_on,74,65,100
1,note_on,72,0,20
1,note_on,74,0,100
1,note_on,71,75,0
1,note_on,74,67,120
1,note_on,71,0,20
1,note_on,72,65,100
1,note_on,74,0,20
1,note_on,74,67,100
1,note_on,72,0,20
1,note_on,75,71,100
1,note_on,74,0,20
1,note_on,72,65,100
1,note_on,75,0,20
1,note_on,71,65,100
1,note_on,72,0,20
1,note_on,72,65,100
1,note_on,71,0,20
1,note_on,72,0,100
1,note_on,67,75,0
1,note_on,72,67,120
1,note_on,67,0,20
1,note_on,71,64,100
1,note_on,72,0,20
1,note_on,72,65,100
1,note_on,71,0,20
1,note_on,68,80,100
1,note_on,72,0,20
1,note_on,77,65,100
1,note_on,68,0,20
1,note_on,75,65,100
1,note_on,77,0,20
1,note_on,77,64,100
1,note_on,75,0,20
1,note_on,77,0,100
1,note_on,67,80,0
1,note_on,75,67,120
1,note_on,67,0,20
1,note_on,74,65,100
1,note_on,75,0,20
1,note_on,75,67,100
1,note_on,74,0,20
1,note_on,65,81,100
1,note_on,75,0,20
1,note_on,74,65,100
1,note_on,65,0,20
1,note_on,72,65,100
1,note_on,74,0,20
1,note_on,74,65,100
1,note_on,72,0,20
1,note_on,74,0,100
1,note_on,63,81,0
1,note_on,72,67,120
1,note_on,63,0,20
1,note_on,71,65,100
1,note_on,72,0,20
1,note_on,72,67,100
1,note_on,71,0,20
1,note_on,68,81,100
1,note_on,72,0,20
1,note_on,65,66,100
1,note_on,68,0,20
1,note_on,63,66,100
1,note_on,65,0,20
1,note_on,65,66,100
1,note_on,63,0,20
1,note_on,65,0,100
1,note_on,67,81,0
1,note_on,63,67,120
1,note_on,67,0,20
1,note_on,62,65,100
1,note_on,63,0,20
1,note_on,63,65,100
1,note_on,62,0,20
1,note_on,65,81,100
1,note_on,63,0,20
1,note_on,62,66,100
1,note_on,65,0,20
1,note_on,60,66,100
1,note_on,62,0,20
1,note_on,62,67,100
1,note_on,60,0,20
1,note_on,62,0,100
1,note_on,60,67,45
1,note_on,64,67,15
1,note_on,64,0,240
1,note_on,60,58,0
1,note_on,60,0,60
1,note_on,62,60,0
1,note_on,62,0,60
1,note_on,64,63,0
1,note_on,64,0,60
1,note_on,60,0,0
1,note_on,65,66,0
1,note_on,65,0,30
1,note_on,67,67,0
1,note_on,67,0,30
1,note_on,68,68,0
1,note_on,68,0,30
1,note_on,70,68,0
1,note_on,70,0,30
1,note_on,72,66,0
1,note_on,72,0,30
1,note_on,70,65,0
1,note_on,70,0,30
1,note_on,68,64,0
1,note_on,68,0,30
1,note_on,67,63,0
1,note_on,67,0,30
1,note_on,65,62,0
1,note_on,65,0,120
1,note_on,67,67,0
1,note_on,67,0,60
1,note_on,64,67,0
1,note_on,64,0,60
1,note_on,60,67,45
1,note_on,65,80,15
1,note_on,65,0,20
1,note_on,64,70,0
1,note_on,64,0,20
1,note_on,65,78,0
1,note_on,65,0,200
1,note_on,67,67,0
1,note_on,67,0,60
1,note_on,65,64,0
1,note_on,65,0,60
1,note_on,64,64,0
1,note_on,64,0,60
1,note_on,60,0,0
1,note_on,65,65,0
1,note_on,65,0,60
1,note_on,67,65,0
1,note_on,67,0,60
1,note_on,68,67,0
1,note_on,68,0,60
1,note_on,67,67,0
1,note_on,67,0,60
1,note_on,65,66,0
1,note_on,65,0,30
1,note_on,63,65,0
1,note_on,63,0,30
1,note_on,62,64,0
1,note_on,62,0,30
1,note_on,63,65,0
1,note_on,63,0,30
1,note_on,65,68,0
1,note_on,65,0,30
1,note_on,62,63,0
1,note_on,62,0,30
1,note_on,63,65,0
1,note_on,63,0,30
1,note_on,65,67,0
1,note_on,65,0,30
1,note_on,59,67,0
1,note_on,59,0,360
1,note_on,50,69,0
1,note_on,53,69,120
1,note_on,50,0,20
1,note_on,56,72,100
1,note_on,53,0,20
1,note_on,55,71,100
1,note_on,56,0,20
1,note_on,53,69,100
1,note_on,55,0,20
1,note_on,59,72,100
1,note_on,53,0,20
1,note_on,53,67,100
1,note_on,59,0,20
1,note_on,62,74,100
1,note_on,53,0,20
1,note_on,53,67,100
1,note_on,62,0,20
1,note_on,59,70,100
1,note_on,53,0,20
1,note_on,56,69,100
1,note_on,59,0,20
1,note_on,55,68,100
1,note_on,56,0,20
1,note_on,53,67,100
1,note_on,55,0,20
1,note_on,53,0,100
1,note_on,52,72,0
1,note_on,61,67,120
1,note_on,52,0,20
1,note_on,58,67,100
1,note_on,61,0,20
1,note_on,55,67,100
1,note_on,58,0,20
1,note_on,60,72,100
1,note_on,55,0,20
1,note_on,56,67,100
1,note_on,60,0,20
1,note_on,53,67,100
1,note_on,56,0,20
1,note_on,56,67,100
1,note_on,53,0,20
1,note_on,55,72,100
1,note_on,56,0,20
1,note_on,58,67,100
1,note_on,55,0,20
1,note_on,55,67,100
1,note_on,58,0,20
1,note_on,52,67,100
1,note_on,55,0,20
1,note_on,56,72,100
1,note_on,52,0,20
1,note_on,53,67,100
1,note_on,56,0,20
1,note_on,50,67,100
1,note_on,53,0,20
1,note_on,53,67,100
1,note_on,50,0,20
1,note_on,52,71,100
1,note_on,53,0,20
1,note_on,55,67,100
1,note_on,52,0,20
1,note_on,52,67,100
1,note_on,55,0,20
1,note_on,48,67,100
1,note_on,52,0,20
1,note_on,53,73,100
1,note_on,48,0,20
1,note_on,50,67,100
1,note_on,53,0,20
1,note_on,47,67,100
1,note_on,50,0,20
1,note_on,50,67,100
1,note_on,47,0,20
1,note_on,50,0,100
1,note_on,50,67,360
1,note_on,52,68,120
1,note_on,50,0,20
1,note_on,55,67,100
1,note_on,52,0,20
1,note_on,58,71,100
1,note_on,55,0,20
1,note_on,55,67,100
1,note_on,58,0,20
1,note_on,56,68,100
1,note_on,55,0,20
1,note_on,60,65,100
1,note_on,56,0,20
1,note_on,65,68,100
1,note_on,60,0,20
1,note_on,62,67,100
1,note_on,65,0,20
1,note_on,65,64,100
1,note_on,62,0,20
1,note_on,68,59,100
1,note_on,65,0,20
1,note_on,72,62,100
1,note_on,68,0,20
1,note_on,71,57,100
1,note_on,72,0,20
1,note_on,72,59,100
1,note_on,71,0,20
1,note_on,67,54,100
1,note_on,72,0,20
1,note_on,65,52,100
1,note_on,67,0,20
1,note_on,62,49,100
1,note_on,65,0,20
1,note_on,64,42,100
1,note_on,62,0,20
1,note_on,64,0,340
2,note_on,48,88,3
2,note_on,55,73,120
2,note_on,48,0,20
2,note_on,53,72,99
2,note_on,55,0,21
2,note_on,55,72,99
2,note_on,53,0,20
2,note_on,51,80,99
2,note_on,55,0,21
2,note_on,55,72,98
2,note_on,51,0,21
2,note_on,53,73,102
2,note_on,55,0,17
2,note_on,55,73,99
2,note_on,53,0,24
2,note_on,55,0,96
2,note_on,48,88,4
2,note_on,55,74,116
2,note_on,48,0,24
2,note_on,53,74,96
2,note_on,55,0,20
2,note_on,55,72,102
2,note_on,53,0,18
2,note_on,51,80,104
2,note_on,55,0,18
2,note_on,55,73,97
2,note_on,51,0,25
2,note_on,53,73,95
2,note_on,55,0,20
2,note_on,55,73,103
2,note_on,53,0,17
2,note_on,48,88,102
2,note_on,55,0,1
2,note_on,56,73,117
2,note_on,48,0,22
2,note_on,55,73,99
2,note_on,56,0,19
2,note_on,56,73,105
2,note_on,55,0,16
2,note_on,53,80,100
2,note_on,56,0,24
2,note_on,56,73,95
2,note_on,53,0,21
2,note_on,55,73,99
2,note_on,56,0,20
2,note_on,56,73,105
2,note_on,55,0,15
2,note_on,48,88,100
2,note_on,56,0,5
2,note_on,56,74,115
2,note_on,48,0,20
2,note_on,55,72,100
2,note_on,56,0,20
2,note_on,56,72,102
2,note_on,55,0,18
2,note_on,53,80,105
2,note_on,56,0,17
2,note_on,56,74,100
2,note_on,53,0,23
2,note_on,55,74,97
2,note_on,56,0,20
2,note_on,56,74,103
2,note_on,55,0,17
2,note_on,56,0,103
2,note_on,48,88,0
2,note_on,56,74,118
2,note_on,48,0,22
2,note_on,55,74,100
2,note_on,56,0,18
2,note_on,56,74,101
2,note_on,55,0,21
2,note_on,53,80,97
2,note_on,56,0,22
2,note_on,56,74,97
2,note_on,53,0,21
2,note_on,55,74,98
2,note_on,56,0,21
2,note_on,56,73,102
2,note_on,55,0,17
2,note_on,56,0,103
2,note_on,48,88,2
2,note_on,56,75,117
2,note_on,48,0,23
2,note_on,55,75,96
2,note_on,56,0,21
2,note_on,56,75,101
2,note_on,55,0,18
2,note_on,53,80,100
2,note_on,56,0,22
2,note_on,56,74,101
2,note_on,53,0,17
2,note_on,55,74,104
2,note_on,56,0,19
2,note_on,56,74,98
2,note_on,55,0,23
2,note_on,56,0,97
2,note_on,48,88,3
2,note_on,51,75,115
2,note_on,48,0,25
2,note_on,50,75,100
2,note_on,51,0,15
2,note_on,51,75,103
2,note_on,50,0,22
2,note_on,55,80,99
2,note_on,51,0,19
2,note_on,51,75,100
2,note_on,55,0,21
2,note_on,50,75,96
2,note_on,51,0,23
2,note_on,51,75,98
2,note_on,50,0,19
2,note_on,51,0,101
2,note_on,48,88,1
2,note_on,51,75,118
2,note_on,48,0,22
2,note_on,50,75,100
2,note_on,51,0,18
2,note_on,51,75,100
2,note_on,50,0,22
2,note_on,55,80,101
2,note_on,51,0,17
2,note_on,51,75,105
2,note_on,55,0,18
2,note_on,50,75,97
2,note_on,51,0,25
2,note_on,51,75,99
2,note_on,50,0,16
2,note_on,48,88,103
2,note_on,51,0,1
2,note_on,60,75,120
2,note_on,48,0,19
2,note_on,58,75,101
2,note_on,60,0,20
2,note_on,60,75,99
2,note_on,58,0,21
2,note_on,56,80,100
2,note_on,60,0,19
2,note_on,60,75,97
2,note_on,56,0,24
2,note_on,58,75,100
2,note_on,60,0,16
2,note_on,60,74,104
2,note_on,58,0,20
2,note_on,60,0,100
2,note_on,48,88,0
2,note_on,60,76,116
2,note_on,48,0,24
2,note_on,58,76,101
2,note_on,60,0,15
2,note_on,60,76,103
2,note_on,58,0,22
2,note_on,56,80,99
2,note_on,60,0,19
2,note_on,60,75,97
2,note_on,56,0,24
2,note_on,58,75,99
2,note_on,60,0,17
2,note_on,60,75,105
2,note_on,58,0,18
2,note_on,48,88,97
2,note_on,60,0,5
2,note_on,57,76,116
2,note_on,48,0,19
2,note_on,55,76,100
2,note_on,57,0,21
2,note_on,57,76,104
2,note_on,55,0,15
2,note_on,54,80,103
2,note_on,57,0,22
2,note_on,57,75,96
2,note_on,54,0,22
2,note_on,55,75,102
2,note_on,57,0,16
2,note_on,57,75,101
2,note_on,55,0,23
2,note_on,57,0,97
2,note_on,48,88,2
2,note_on,57,75,117
2,note_on,48,0,23
2,note_on,55,75,96
2,note_on,57,0,21
2,note_on,57,75,100
2,note_on,55,0,19
2,note_on,54,80,103
2,note_on,57,0,18
2,note_on,57,74,104
2,note_on,54,0,18
2,note_on,55,74,97
2,note_on,57,0,25
2,note_on,57,74,100
2,note_on,55,0,15
2,note_on,46,88,102
2,note_on,57,0,3
2,note_on,58,75,115
2,note_on,46,0,22
2,note_on,57,75,102
2,note_on,58,0,16
2,note_on,58,75,101
2,note_on,57,0,23
2,note_on,55,80,101
2,note_on,58,0,16
2,note_on,58,74,103
2,note_on,55,0,21
2,note_on,57,74,100
2,note_on,58,0,19
2,note_on,58,74,97
2,note_on,57,0,24
2,note_on,58,0,96
2,note_on,46,88,1
2,note_on,58,74,118
2,note_on,46,0,22
2,note_on,57,74,102
2,note_on,58,0,16
2,note_on,58,74,100
2,note_on,57,0,24
2,note_on,55,80,98
2,note_on,58,0,18
2,note_on,58,74,101
2,note_on,55,0,21
2,note_on,57,74,103
2,note_on,58,0,16
2,note_on,58,74,99
2,note_on,57,0,25
2,note_on,58,0,95
2,note_on,46,88,1
2,note_on,55,75,120
2,note_on,46,0,20
2,note_on,53,75,100
2,note_on,55,0,20
2,note_on,55,75,99
2,note_on,53,0,21
2,note_on,52,80,102
2,note_on,55,0,17
2,note_on,55,74,105
2,note_on,52,0,18
2,note_on,53,74,102
2,note_on,55,0,20
2,note_on,55,74,96
2,note_on,53,0,24
2,note_on,55,0,96
2,note_on,46,88,3
2,note_on,55,73,119
2,note_on,46,0,21
2,note_on,53,73,99
2,note_on,55,0,20
2,note_on,55,73,102
2,note_on,53,0,18
2,note_on,52,80,99
2,note_on,55,0,23
2,note_on,55,73,100
2,note_on,52,0,17
2,note_on,53,73,101
2,note_on,55,0,22
2,note_on,55,73,95
2,note_on,53,0,23
2,note_on,55,0,97
2,note_on,44,88,3
2,note_on,56,73,120
2,note_on,44,0,20
2,note_on,55,73,99
2,note_on,56,0,21
2,note_on,56,73,102
2,note_on,55,0,17
2,note_on,53,80,101
2,note_on,56,0,22
2,note_on,56,73,98
2,note_on,53,0,20
2,note_on,55,73,100
2,note_on,56,0,20
2,note_on,56,74,98
2,note_on,55,0,22
2,note_on,56,0,98
2,note_on,44,88,1
2,note_on,56,75,120
2,note_on,44,0,20
2,note_on,55,76,98
2,note_on,56,0,22
2,note_on,56,74,102
2,note_on,55,0,16
2,note_on,53,80,101
2,note_on,56,0,23
2,note_on,56,74,96
2,note_on,53,0,21
2,note_on,55,74,101
2,note_on,56,0,18
2,note_on,56,74,103
2,note_on,55,0,19
2,note_on,44,88,98
2,note_on,56,0,3
2,note_on,50,75,118
2,note_on,44,0,19
2,note_on,48,75,100
2,note_on,50,0,21
2,note_on,50,75,102
2,note_on,48,0,17
2,note_on,53,79,102
2,note_on,50,0,21
2,note_on,50,74,100
2,note_on,53,0,19
2,note_on,48,74,102
2,note_on,50,0,19
2,note_on,50,74,99
2,note_on,48,0,22
2,note_on,50,0,98
2,note_on,44,86,2
2,note_on,50,73,118
2,note_on,44,0,22
2,note_on,48,72,101
2,note_on,50,0,17
2,note_on,50,77,101
2,note_on,48,0,22
2,note_on,53,77,96
2,note_on,50,0,22
2,note_on,50,72,102
2,note_on,53,0,16
2,note_on,48,72,104
2,note_on,50,0,20
2,note_on,50,72,97
2,note_on,48,0,23
2,note_on,50,0,97
2,note_on,43,83,3
2,note_on,51,72,116
2,note_on,43,0,24
2,note_on,50,72,100
2,note_on,51,0,16
2,note_on,51,72,102
2,note_on,50,0,22
2,note_on,55,75,97
2,note_on,51,0,21
2,note_on,51,70,100
2,note_on,55,0,19
2,note_on,50,70,102
2,note_on,51,0,19
2,note_on,51,70,97
2,note_on,50,0,24
2,note_on,51,0,96
2,note_on,43,81,1
2,note_on,51,69,120
2,note_on,43,0,20
2,note_on,50,69,101
2,note_on,51,0,19
2,note_on,51,69,104
2,note_on,50,0,17
2,note_on,55,73,102
2,note_on,51,0,21
2,note_on,51,67,99
2,note_on,55,0,20
2,note_on,50,66,101
2,note_on,51,0,19
2,note_on,51,66,98
2,note_on,50,0,23
2,note_on,51,0,97
2,note_on,48,79,0
2,note_on,51,69,123
2,note_on,48,0,17
2,note_on,50,69,99
2,note_on,51,0,24
2,note_on,51,65,97
2,note_on,50,0,19
2,note_on,56,71,102
2,note_on,51,0,19
2,note_on,51,65,100
2,note_on,56,0,21
2,note_on,50,63,101
2,note_on,51,0,18
2,note_on,51,63,102
2,note_on,50,0,20
2,note_on,51,0,100
2,note_on,48,77,0
2,note_on,51,64,120
2,note_on,48,0,20
2,note_on,50,64,96
2,note_on,51,0,24
2,note_on,51,64,97
2,note_on,50,0,19
2,note_on,56,69,101
2,note_on,51,0,20
2,note_on,51,61,103
2,note_on,56,0,17
2,note_on,50,61,104
2,note_on,51,0,19
2,note_on,51,61,98
2,note_on,50,0,23
2,note_on,51,0,97
2,note_on,50,74,1
2,note_on,53,59,117
2,note_on,50,0,23
2,note_on,51,60,102
2,note_on,53,0,15
2,note_on,53,59,101
2,note_on,51,0,24
2,note_on,56,66,98
2,note_on,53,0,18
2,note_on,53,59,102
2,note_on,56,0,20
2,note_on,51,59,99
2,note_on,53,0,21
2,note_on,53,59,101
2,note_on,51,0,18
2,note_on,50,73,98
2,note_on,53,0,4
2,note_on,53,56,116
2,note_on,50,0,20
2,note_on,51,55,100
2,note_on,53,0,20
2,note_on,53,55,100
2,note_on,51,0,20
2,note_on,56,61,102
2,note_on,53,0,18
2,note_on,53,56,101
2,note_on,56,0,21
2,note_on,51,56,102
2,note_on,53,0,17
2,note_on,53,56,99
2,note_on,51,0,24
2,note_on,53,0,96
2,note_on,51,70,2
2,note_on,55,53,118
2,note_on,51,0,22
2,note_on,53,53,102
2,note_on,55,0,16
2,note_on,55,53,104
2,note_on,53,0,20
2,note_on,56,57,97
2,note_on,55,0,23
2,note_on,55,53,100
2,note_on,56,0,17
2,note_on,53,53,102
2,note_on,55,0,21
2,note_on,55,53,99
2,note_on,53,0,20
2,note_on,55,0,100
2,note_on,51,70,0
2,note_on,55,53,117
2,note_on,51,0,23
2,note_on,53,53,100
2,note_on,55,0,17
2,note_on,55,53,100
2,note_on,53,0,23
2,note_on,56,56,102
2,note_on,55,0,15
2,note_on,55,52,102
2,note_on,56,0,23
2,note_on,53,52,100
2,note_on,55,0,17
2,note_on,55,52,102
2,note_on,53,0,21
2,note_on,51,70,98
2,note_on,55,0,1
2,note_on,57,52,120
2,note_on,51,0,19
2,note_on,55,52,101
2,note_on,57,0,20
2,note_on,57,52,98
2,note_on,55,0,22
2,note_on,57,0,96
2,note_on,53,55,2
2,note_on,57,52,118
2,note_on,53,0,22
2,note_on,55,52,102
2,note_on,57,0,16
2,note_on,57,52,101
2,note_on,55,0,23
2,note_on,51,70,96
2,note_on,57,0,1
2,note_on,57,51,120
2,note_on,51,0,19
2,note_on,55,51,104
2,note_on,57,0,17
2,note_on,57,51,100
2,note_on,55,0,23
2,note_on,57,0,95
2,note_on,53,56,2
2,note_on,57,51,121
2,note_on,53,0,19
2,note_on,55,51,99
2,note_on,57,0,22
2,note_on,57,51,100
2,note_on,55,0,18
2,note_on,57,0,102
2,note_on,50,70,1
2,note_on,53,52,120
2,note_on,50,0,20
2,note_on,51,52,101
2,note_on,53,0,19
2,note_on,53,52,99
2,note_on,51,0,22
2,note_on,56,58,98
2,note_on,53,0,20
2,note_on,53,52,103
2,note_on,56,0,17
2,note_on,51,52,103
2,note_on,53,0,20
2,note_on,53,52,98
2,note_on,51,0,22
2,note_on,53,0,98
2,note_on,50,70,2
2,note_on,53,54,115
2,note_on,50,0,25
2,note_on,51,54,98
2,note_on,53,0,17
2,note_on,53,54,105
2,note_on,51,0,18
2,note_on,56,60,99
2,note_on,53,0,23
2,note_on,53,53,96
2,note_on,56,0,21
2,note_on,51,54,99
2,note_on,53,0,20
2,note_on,53,54,99
2,note_on,51,0,21
2,note_on,53,0,99
2,note_on,48,70,3
2,note_on,53,52,119
2,note_on,48,0,21
2,note_on,52,52,97
2,note_on,53,0,22
2,note_on,53,52,98
2,note_on,52,0,20
2,note_on,56,60,102
2,note_on,53,0,18
2,note_on,53,53,105
2,note_on,56,0,17
2,note_on,52,53,103
2,note_on,53,0,20
2,note_on,53,53,97
2,note_on,52,0,23
2,note_on,53,0,97
2,note_on,48,70,2
2,note_on,53,53,119
2,note_on,48,0,21
2,note_on,52,53,100
2,note_on,53,0,19
2,note_on,53,53,102
2,note_on,52,0,19
2,note_on,56,60,99
2,note_on,53,0,22
2,note_on,53,53,98
2,note_on,56,0,20
2,note_on,52,53,97
2,note_on,53,0,23
2,note_on,53,53,101
2,note_on,52,0,16
2,note_on,48,70,102
2,note_on,53,0,2
2,note_on,51,54,119
2,note_on,48,0,19
2,note_on,50,54,101
2,note_on,51,0,20
2,note_on,51,54,100
2,note_on,50,0,20
2,note_on,53,60,101
2,note_on,51,0,19
2,note_on,51,54,101
2,note_on,53,0,20
2,note_on,50,54,98
2,note_on,51,0,22
2,note_on,51,54,96
2,note_on,50,0,22
2,note_on,51,0,98
2,note_on,46,70,1
2,note_on,51,54,121
2,note_on,46,0,19
2,note_on,50,54,100
2,note_on,51,0,21
2,note_on,51,54,102
2,note_on,50,0,17
2,note_on,53,61,101
2,note_on,51,0,22
2,note_on,51,53,101
2,note_on,53,0,17
2,note_on,50,53,98
2,note_on,51,0,25
2,note_on,51,53,99
2,note_on,50,0,16
2,note_on,44,70,103
2,note_on,51,0,1
2,note_on,48,54,121
2,note_on,44,0,18
2,note_on,47,53,98
2,note_on,48,0,24
2,note_on,48,53,98
2,note_on,47,0,18
2,note_on,50,64,104
2,note_on,48,0,18
2,note_on,48,54,101
2,note_on,50,0,21
2,note_on,47,54,100
2,note_on,48,0,19
2,note_on,48,54,97
2,note_on,47,0,24
2,note_on,48,0,96
2,note_on,44,70,4
2,note_on,48,55,119
2,note_on,44,0,21
2,note_on,47,55,100
2,note_on,48,0,19
2,note_on,48,55,101
2,note_on,47,0,20
2,note_on,50,64,100
2,note_on,48,0,20
2,note_on,48,56,98
2,note_on,50,0,22
2,note_on,47,56,96
2,note_on,48,0,22
2,note_on,48,56,100
2,note_on,47,0,18
2,note_on,45,70,100
2,note_on,48,0,2
2,note_on,51,56,118
2,note_on,45,0,20
2,note_on,50,56,103
2,note_on,51,0,17
2,note_on,51,56,103
2,note_on,50,0,20
2,note_on,48,64,97
2,note_on,51,0,23
2,note_on,51,56,100
2,note_on,48,0,17
2,note_on,50,56,101
2,note_on,51,0,22
2,note_on,51,56,96
2,note_on,50,0,22
2,note_on,51,0,98
2,note_on,45,70,4
2,note_on,51,57,121
2,note_on,45,0,19
2,note_on,50,58,96
2,note_on,51,0,25
2,note_on,51,58,96
2,note_on,50,0,19
2,note_on,48,64,103
2,note_on,51,0,18
2,note_on,51,56,101
2,note_on,48,0,21
2,note_on,50,56,101
2,note_on,51,0,18
2,note_on,51,56,99
2,note_on,50,0,23
2,note_on,51,0,97
2,note_on,43,70,3
2,note_on,51,56,121
2,note_on,43,0,19
2,note_on,50,56,96
2,note_on,51,0,25
2,note_on,51,56,98
2,note_on,50,0,17
2,note_on,53,64,104
2,note_on,51,0,19
2,note_on,51,56,98
2,note_on,53,0,23
2,note_on,50,56,96
2,note_on,51,0,21
2,note_on,51,56,100
2,note_on,50,0,19
2,note_on,51,0,101
2,note_on,43,70,3
2,note_on,51,57,121
2,note_on,43,0,19
2,note_on,50,57,99
2,note_on,51,0,22
2,note_on,51,57,97
2,note_on,50,0,21
2,note_on,53,64,101
2,note_on,51,0,18
2,note_on,51,57,99
2,note_on,53,0,23
2,note_on,50,57,99
2,note_on,51,0,18
2,note_on,51,57,100
2,note_on,50,0,22
2,note_on,51,0,98
2,note_on,43,70,0
2,note_on,51,56,124
2,note_on,43,0,16
2,note_on,50,56,100
2,note_on,51,0,24
2,note_on,51,56,95
2,note_on,50,0,21
2,note_on,48,64,103
2,note_on,51,0,16
2,note_on,51,56,100
2,note_on,48,0,24
2,note_on,50,56,96
2,note_on,51,0,20
2,note_on,51,56,100
2,note_on,50,0,20
2,note_on,51,0,100
2,note_on,43,71,2
2,note_on,51,56,121
2,note_on,43,0,19
2,note_on,50,56,100
2,note_on,51,0,21
2,note_on,51,56,99
2,note_on,50,0,20
2,note_on,48,65,100
2,note_on,51,0,20
2,note_on,51,56,98
2,note_on,48,0,22
2,note_on,50,57,101
2,note_on,51,0,17
2,note_on,51,57,104
2,note_on,50,0,19
2,note_on,43,73,99
2,note_on,51,0,2
2,note_on,51,58,119
2,note_on,43,0,19
2,note_on,50,58,103
2,note_on,51,0,18
2,note_on,51,58,100
2,note_on,50,0,22
2,note_on,53,66,98
2,note_on,51,0,20
2,note_on,51,58,97
2,note_on,53,0,23
2,note_on,50,58,99
2,note_on,51,0,18
2,note_on,51,58,101
2,note_on,50,0,21
2,note_on,51,0,99
2,note_on,43,73,1
2,note_on,51,58,123
2,note_on,43,0,17
2,note_on,50,58,100
2,note_on,51,0,23
2,note_on,51,58,95
2,note_on,50,0,22
2,note_on,53,67,101
2,note_on,51,0,17
2,note_on,51,58,104
2,note_on,53,0,19
2,note_on,50,58,101
2,note_on,51,0,20
2,note_on,51,58,101
2,note_on,50,0,19
2,note_on,51,0,101
2,note_on,43,75,0
2,note_on,51,59,116
2,note_on,43,0,24
2,note_on,50,59,100
2,note_on,51,0,16
2,note_on,51,59,102
2,note_on,50,0,22
2,note_on,53,68,99
2,note_on,51,0,19
2,note_on,51,58,101
2,note_on,53,0,20
2,note_on,50,58,100
2,note_on,51,0,20
2,note_on,51,59,101
2,note_on,50,0,19
2,note_on,51,0,101
2,note_on,43,75,0
2,note_on,51,60,120
2,note_on,43,0,20
2,note_on,50,60,98
2,note_on,51,0,22
2,note_on,51,60,97
2,note_on,50,0,21
2,note_on,53,69,97
2,note_on,51,0,22
2,note_on,51,61,100
2,note_on,53,0,18
2,note_on,50,61,104
2,note_on,51,0,18
2,note_on,51,61,100
2,note_on,50,0,22
2,note_on,51,0,98
2,note_on,43,65,0
2,note_on,47,68,120
2,note_on,43,0,20
2,note_on,50,71,100
2,note_on,47,0,20
2,note_on,50,0,120
2,note_on,43,64,1540
2,note_on,48,66,120
2,note_on,43,0,20
2,note_on,51,68,100
2,note_on,48,0,20
2,note_on,51,0,120
2,note_on,43,67,1540
2,note_on,45,70,120
2,note_on,43,0,20
2,note_on,54,70,100
2,note_on,45,0,20
2,note_on,54,0,120
2,note_on,43,67,1540
2,note_on,43,0,2040
2,note_on,62,60,0
2,note_on,60,60,120
2,note_on,62,0,20
2,note_on,62,61,100
2,note_on,60,0,20
2,note_on,63,70,100
2,note_on,62,0,20
2,note_on,60,67,100
2,note_on,63,0,20
2,note_on,59,60,100
2,note_on,60,0,20
2,note_on,60,60,100
2,note_on,59,0,20
2,note_on,60,0,100
2,note_on,57,75,0
2,note_on,60,61,120
2,note_on,57,0,20
2,note_on,59,61,100
2,note_on,60,0,20
2,note_on,60,61,100
2,note_on,59,0,20
2,note_on,62,70,100
2,note_on,60,0,20
2,note_on,59,61,100
2,note_on,62,0,20
2,note_on,57,61,100
2,note_on,59,0,20
2,note_on,59,61,100
2,note_on,57,0,20
2,note_on,59,0,100
2,note_on,55,74,0
2,note_on,59,61,120
2,note_on,55,0,20
2,note_on,57,61,100
2,note_on,59,0,20
2,note_on,59,61,100
2,note_on,57,0,20
2,note_on,60,71,100
2,note_on,59,0,20
2,note_on,56,61,100
2,note_on,60,0,20
2,note_on,55,61,100
2,note_on,56,0,20
2,note_on,56,61,100
2,note_on,55,0,20
2,note_on,56,0,100
2,note_on,53,74,0
2,note_on,57,63,120
2,note_on,53,0,20
2,note_on,55,63,100
2,note_on,57,0,20
2,note_on,57,63,100
2,note_on,55,0,20
2,note_on,59,71,100
2,note_on,57,0,20
2,note_on,55,62,100
2,note_on,59,0,20
2,note_on,53,62,100
2,note_on,55,0,20
2,note_on,55,62,100
2,note_on,53,0,20
2,note_on,55,0,100
2,note_on,51,76,0
2,note_on,67,63,120
2,note_on,51,0,20
2,note_on,65,63,100
2,note_on,67,0,20
2,note_on,67,63,100
2,note_on,65,0,20
2,note_on,68,71,100
2,note_on,67,0,20
2,note_on,65,63,100
2,note_on,68,0,20
2,note_on,63,63,100
2,note_on,65,0,20
2,note_on,65,63,100
2,note_on,63,0,20
2,note_on,65,0,100
2,note_on,62,76,0
2,note_on,65,64,120
2,note_on,62,0,20
2,note_on,63,65,100
2,note_on,65,0,20
2,note_on,65,63,100
2,note_on,63,0,20
2,note_on,67,71,100
2,note_on,65,0,20
2,note_on,63,63,100
2,note_on,67,0,20
2,note_on,62,62,100
2,note_on,63,0,20
2,note_on,63,62,100
2,note_on,62,0,20
2,note_on,63,0,100
2,note_on,60,74,0
2,note_on,63,63,120
2,note_on,60,0,20
2,note_on,62,63,100
2,note_on,63,0,20
2,note_on,63,63,100
2,note_on,62,0,20
2,note_on,65,77,100
2,note_on,63,0,20
2,note_on,62,60,100
2,note_on,65,0,20
2,note_on,60,60,100
2,note_on,62,0,20
2,note_on,62,61,100
2,note_on,60,0,20
2,note_on,62,0,100
2,note_on,63,77,0
2,note_on,60,62,120
2,note_on,63,0,20
2,note_on,59,63,100
2,note_on,60,0,20
2,note_on,60,63,100
2,note_on,59,0,20
2,note_on,62,77,100
2,note_on,60,0,20
2,note_on,59,63,100
2,note_on,62,0,20
2,note_on,57,63,100
2,note_on,59,0,20
2,note_on,59,62,100
2,note_on,57,0,20
2,note_on,59,0,100
2,note_on,60,77,0
2,note_on,63,60,120
2,note_on,60,0,20
2,note_on,62,60,100
2,note_on,63,0,20
2,note_on,63,61,100
2,note_on,62,0,20
2,note_on,53,77,100
2,note_on,63,0,20
2,note_on,62,62,100
2,note_on,53,0,20
2,note_on,60,62,100
2,note_on,62,0,20
2,note_on,62,62,100
2,note_on,60,0,20
2,note_on,62,0,100
2,note_on,51,77,0
2,note_on,60,62,120
2,note_on,51,0,20
2,note_on,59,62,100
2,note_on,60,0,20
2,note_on,60,62,100
2,note_on,59,0,20
2,note_on,50,77,100
2,note_on,60,0,20
2,note_on,59,61,100
2,note_on,50,0,20
2,note_on,57,61,100
2,note_on,59,0,20
2,note_on,59,61,100
2,note_on,57,0,20
2,note_on,59,0,100
2,note_on,48,67,0
2,note_on,55,67,15
2,note_on,58,67,15
2,note_on,58,0,450
2,note_on,55,0,0
2,note_on,48,0,0
2,note_on,48,67,480
2,note_on,53,67,15
2,note_on,56,67,15
2,note_on,56,0,450
2,note_on,53,0,0
2,note_on,48,0,0
2,note_on,36,60,600
2,note_on,47,65,120
2,note_on,36,0,20
2,note_on,47,0,1660
2,note_on,36,72,2880
2,note_on,43,67,120
2,note_on,48,67,120
2,note_on,43,0,20
2,note_on,48,0,2500
2,note_on,36,0,0
3,note_on,79,81,240
3,note_on,79,0,120
3,note_on,78,81,0
3,note_on,78,0,120
3,note_on,79,86,0
3,note_on,79,0,120
3,note_on,72,71,120
3,note_on,72,0,240
3,note_on,75,72,0
3,note_on,75,0,120
3,note_on,79,81,120
3,note_on,79,0,120
3,note_on,78,81,0
3,note_on,78,0,120
3,note_on,79,86,0
3,note_on,79,0,120
3,note_on,81,76,120
3,note_on,81,0,240
3,note_on,74,73,0
3,note_on,74,0,120
3,note_on,79,81,120
3,note_on,79,0,120
3,note_on,78,81,0
3,note_on,78,0,120
3,note_on,79,86,0
3,note_on,79,0,120
3,note_on,81,77,120
3,note_on,81,0,240
3,note_on,72,75,0
3,note_on,72,0,120
3,note_on,74,75,0
3,note_on,74,0,120
3,note_on,75,81,0
3,note_on,75,0,480
3,note_on,74,73,0
3,note_on,74,0,120
3,note_on,72,73,0
3,note_on,72,0,120
3,note_on,70,78,0
3,note_on,70,0,120
3,note_on,75,81,120
3,note_on,75,0,120
3,note_on,74,81,0
3,note_on,74,0,120
3,note_on,75,86,0
3,note_on,75,0,120
3,note_on,67,71,120
3,note_on,67,0,240
3,note_on,68,72,0
3,note_on,68,0,120
3,note_on,77,81,120
3,note_on,77,0,120
3,note_on,75,81,0
3,note_on,75,0,120
3,note_on,77,86,0
3,note_on,77,0,120
3,note_on,69,76,120
3,note_on,69,0,240
3,note_on,70,78,0
3,note_on,70,0,120
3,note_on,79,81,120
3,note_on,79,0,120
3,note_on,77,81,0
3,note_on,77,0,120
3,note_on,79,86,0
3,note_on,79,0,120
3,note_on,71,71,120
3,note_on,71,0,240
3,note_on,72,72,0
3,note_on,72,0,120
3,note_on,74,81,120
3,note_on,74,0,120
3,note_on,75,81,0
3,note_on,75,0,120
3,note_on,77,86,0
3,note_on,77,0,720
3,note_on,75,71,0
3,note_on,75,0,120
3,note_on,74,71,0
3,note_on,74,0,120
3,note_on,72,70,0
3,note_on,72,0,120
3,note_on,70,69,0
3,note_on,70,0,120
3,note_on,68,69,0
3,note_on,68,0,120
3,note_on,67,68,0
3,note_on,67,0,120
3,note_on,65,68,0
3,note_on,65,0,120
3,note_on,80,74,120
3,note_on,80,0,240
3,note_on,79,73,0
3,note_on,79,0,240
3,note_on,77,73,0
3,note_on,77,0,240
3,note_on,75,72,0
3,note_on,75,0,120
3,note_on,74,74,120
3,note_on,74,0,240
3,note_on,75,74,0
3,note_on,75,0,240
3,note_on,77,74,0
3,note_on,77,0,240
3,note_on,71,81,0
3,note_on,71,0,120
3,note_on,72,77,120
3,note_on,72,0,240
3,note_on,74,77,0
3,note_on,74,0,240
3,note_on,71,77,0
3,note_on,71,0,240
3,note_on,72,81,0
3,note_on,72,0,240
3,note_on,79,81,0
3,note_on,79,0,120
3,note_on,78,81,0
3,note_on,78,0,120
3,note_on,79,86,0
3,note_on,79,0,120
3,note_on,74,71,120
3,note_on,74,0,240
3,note_on,75,72,0
3,note_on,75,0,480
3,note_on,76,72,240
3,note_on,76,0,240
3,note_on,77,81,0
3,note_on,77,0,120
3,note_on,77,81,120
3,note_on,77,0,120
3,note_on,76,81,0
3,note_on,76,0,120
3,note_on,77,86,0
3,note_on,77,0,120
3,note_on,72,71,120
3,note_on,72,0,240
3,note_on,74,72,0
3,note_on,74,0,480
3,note_on,74,72,240
3,note_on,74,0,240
3,note_on,75,81,0
3,note_on,75,0,120
3,note_on,75,81,120
3,note_on,75,0,120
3,note_on,74,81,0
3,note_on,74,0,120
3,note_on,75,86,0
3,note_on,75,0,120
3,note_on,70,71,120
3,note_on,70,0,240
3,note_on,72,76,0
3,note_on,72,0,120
3,note_on,75,81,120
3,note_on,75,0,120
3,note_on,74,81,0
3,note_on,74,0,120
3,note_on,75,86,0
3,note_on,75,0,120
3,note_on,77,81,120
3,note_on,77,0,240
3,note_on,70,81,0
3,note_on,70,0,120
3,note_on,75,81,120
3,note_on,75,0,120
3,note_on,74,81,0
3,note_on,74,0,120
3,note_on,75,86,0
3,note_on,75,0,240
3,note_on,77,81,0
3,note_on,77,0,180
3,note_on,68,75,60
3,note_on,68,0,120
3,note_on,70,75,0
3,note_on,70,0,120
3,note_on,72,81,0
3,note_on,72,0,480
3,note_on,70,76,0
3,note_on,70,0,120
3,note_on,68,76,0
3,note_on,68,0,120
3,note_on,67,72,0
3,note_on,67,0,60
3,note_on,63,69,60
3,note_on,63,0,120
3,note_on,65,70,0
3,note_on,65,0,120
3,note_on,67,71,0
3,note_on,67,0,120
3,note_on,68,72,0
3,note_on,68,0,120
3,note_on,70,74,0
3,note_on,70,0,120
3,note_on,72,75,0
3,note_on,72,0,120
3,note_on,74,76,0
3,note_on,74,0,120
3,note_on,75,77,0
3,note_on,75,0,120
3,note_on,74,76,0
3,note_on,74,0,120
3,note_on,72,75,0
3,note_on,72,0,120
3,note_on,74,75,0
3,note_on,74,0,120
3,note_on,75,77,0
3,note_on,75,0,120
3,note_on,77,80,0
3,note_on,77,0,120
3,note_on,79,82,0
3,note_on,79,0,120
3,note_on,81,85,0
3,note_on,81,0,120
3,note_on,82,88,0
3,note_on,82,0,60
3,note_on,65,67,60
3,note_on,65,0,120
3,note_on,67,68,0
3,note_on,67,0,120
3,note_on,68,69,0
3,note_on,68,0,120
3,note_on,70,71,0
3,note_on,70,0,120
3,note_on,72,72,0
3,note_on,72,0,120
3,note_on,74,73,0
3,note_on,74,0,120
3,note_on,76,74,0
3,note_on,76,0,120
3,note_on,77,76,0
3,note_on,77,0,120
3,note_on,75,75,0
3,note_on,75,0,120
3,note_on,74,73,0
3,note_on,74,0,120
3,note_on,75,76,0
3,note_on,75,0,120
3,note_on,77,75,0
3,note_on,77,0,120
3,note_on,79,78,0
3,note_on,79,0,120
3,note_on,81,81,0
3,note_on,81,0,120
3,note_on,83,84,0
3,note_on,83,0,120
3,note_on,84,87,0
3,note_on,84,0,120
3,note_on,83,82,120
3,note_on,83,0,120
3,note_on,81,80,0
3,note_on,81,0,120
3,note_on,79,79,0
3,note_on,79,0,120
3,note_on,77,78,0
3,note_on,77,0,120
3,note_on,75,77,0
3,note_on,75,0,120
3,note_on,74,76,0
3,note_on,74,0,120
3,note_on,72,75,0
3,note_on,72,0,120
3,note_on,75,73,120
3,note_on,75,0,240
3,note_on,74,71,0
3,note_on,74,0,240
3,note_on,72,70,0
3,note_on,72,0,240
3,note_on,70,68,0
3,note_on,70,0,120
3,note_on,69,67,120
3,note_on,69,0,240
3,note_on,70,68,0
3,note_on,70,0,240
3,note_on,72,72,0
3,note_on,72,0,180
3,note_on,66,67,60
3,note_on,66,0,240
3,note_on,67,67,0
3,note_on,67,0,240
3,note_on,69,70,0
3,note_on,69,0,240
3,note_on,66,65,0
3,note_on,66,0,240
3,note_on,67,71,0
3,note_on,67,0,120
3,note_on,74,72,120
3,note_on,74,0,120
3,note_on,72,72,0
3,note_on,72,0,120
3,note_on,74,76,0
3,note_on,74,0,240
3,note_on,76,77,480
3,note_on,76,0,120
3,note_on,74,77,0
3,note_on,74,0,120
3,note_on,76,81,0
3,note_on,76,0,240
3,note_on,78,84,480
3,note_on,78,0,120
3,note_on,76,84,0
3,note_on,76,0,120
3,note_on,78,89,0
3,note_on,78,0,240
3,note_on,67,72,480
3,note_on,67,0,120
3,note_on,65,72,0
3,note_on,65,0,120
3,note_on,67,77,0
3,note_on,67,0,120
3,note_on,69,71,600
3,note_on,69,0,120
3,note_on,67,71,0
3,note_on,67,0,120
3,note_on,69,76,0
3,note_on,69,0,120
3,note_on,71,71,600
3,note_on,71,0,120
3,note_on,69,71,0
3,note_on,69,0,120
3,note_on,71,76,0
3,note_on,71,0,120
3,note_on,72,81,240
3,note_on,72,0,120
3,note_on,71,81,0
3,note_on,71,0,120
3,note_on,72,86,0
3,note_on,72,0,120
3,note_on,67,71,120
3,note_on,67,0,240
3,note_on,68,72,0
3,note_on,68,0,120
3,note_on,72,81,120
3,note_on,72,0,120
3,note_on,71,81,0
3,note_on,71,0,120
3,note_on,72,86,0
3,note_on,72,0,120
3,note_on,74,76,120
3,note_on,74,0,240
3,note_on,67,73,0
3,note_on,67,0,120
3,note_on,72,81,120
3,note_on,72,0,120
3,note_on,71,81,0
3,note_on,71,0,120
3,note_on,72,86,0
3,note_on,72,0,120
3,note_on,74,77,120
3,note_on,74,0,120
3,note_on,65,75,120
3,note_on,65,0,120
3,note_on,67,75,0
3,note_on,67,0,120
3,note_on,68,81,0
3,note_on,68,0,480
3,note_on,67,73,0
3,note_on,67,0,120
3,note_on,65,73,0
3,note_on,65,0,120
3,note_on,63,73,0
3,note_on,63,0,120
3,note_on,72,81,120
3,note_on,72,0,120
3,note_on,71,81,0
3,note_on,71,0,120
3,note_on,72,86,0
3,note_on,72,0,120
3,note_on,67,71,120
3,note_on,67,0,240
3,note_on,68,72,0
3,note_on,68,0,480
3,note_on,69,72,240
3,note_on,69,0,240
3,note_on,70,73,0
3,note_on,70,0,120
3,note_on,70,81,120
3,note_on,70,0,120
3,note_on,69,81,0
3,note_on,69,0,120
3,note_on,70,86,0
3,note_on,70,0,120
3,note_on,65,71,120
3,note_on,65,0,240
3,note_on,67,72,0
3,note_on,67,0,480
3,note_on,67,72,240
3,note_on,67,0,480
3,note_on,68,71,0
3,note_on,68,0,120
3,note_on,70,72,0
3,note_on,70,0,120
3,note_on,72,74,0
3,note_on,72,0,120
3,note_on,71,72,0
3,note_on,71,0,120
3,note_on,72,76,0
3,note_on,72,0,120
3,note_on,68,72,0
3,note_on,68,0,120
3,note_on,65,76,0
3,note_on,65,0,1200
3,note_on,74,80,0
3,note_on,74,0,120
3,note_on,72,80,0
3,note_on,72,0,120
3,note_on,74,86,0
3,note_on,74,0,120
3,note_on,65,73,120
3,note_on,65,0,240
3,note_on,63,73,0
3,note_on,63,0,120
3,note_on,75,80,120
3,note_on,75,0,120
3,note_on,74,80,0
3,note_on,74,0,120
3,note_on,75,84,0
3,note_on,75,0,120
3,note_on,67,73,120
3,note_on,67,0,240
3,note_on,65,73,0
3,note_on,65,0,120
3,note_on,77,82,120
3,note_on,77,0,120
3,note_on,75,82,0
3,note_on,75,0,120
3,note_on,77,88,0
3,note_on,77,0,120
3,note_on,68,77,120
3,note_on,68,0,240
3,note_on,67,77,0
3,note_on,67,0,60
3,note_on,77,81,60
3,note_on,77,0,120
3,note_on,75,80,0
3,note_on,75,0,120
3,note_on,74,79,0
3,note_on,74,0,120
3,note_on,72,78,0
3,note_on,72,0,120
3,note_on,71,77,0
3,note_on,71,0,120
3,note_on,69,76,0
3,note_on,69,0,120
3,note_on,67,75,0
3,note_on,67,0,120
3,note_on,72,73,0
3,note_on,72,0,120
3,note_on,77,78,120
3,note_on,77,0,240
3,note_on,75,76,0
3,note_on,75,0,240
3,note_on,74,73,0
3,note_on,74,0,240
3,note_on,68,76,240
3,note_on,68,0,240
3,note_on,67,74,0
3,note_on,67,0,240
3,note_on,65,71,0
3,note_on,65,0,240
3,note_on,67,73,0
3,note_on,67,0,120
3,note_on,65,76,120
3,note_on,65,0,120
3,note_on,63,76,0
3,note_on,63,0,120
3,note_on,65,81,0
3,note_on,65,0,120
3,note_on,62,73,120
3,note_on,62,0,240
3,note_on,68,89,0
3,note_on,68,0,240
3,note_on,67,76,0
3,note_on,67,0,240
3,note_on,69,78,240
3,note_on,69,0,240
3,note_on,71,82,0
3,note_on,71,0,240
3,note_on,72,80,0
3,note_on,72,0,240
3,note_on,65,76,0
3,note_on,65,0,120
3,note_on,63,75,0
3,note_on,63,0,120
3,note_on,62,75,0
3,note_on,62,0,120
3,note_on,60,74,0
3,note_on,60,0,120
3,note_on,72,81,240
3,note_on,72,0,120
3,note_on,71,81,0
3,note_on,71,0,120
3,note_on,72,87,0
3,note_on,72,0,120
3,note_on,67,77,120
3,note_on,67,0,240
3,note_on,68,77,0
3,note_on,68,0,120
3,note_on,72,80,120
3,note_on,72,0,120
3,note_on,71,80,0
3,note_on,71,0,120
3,note_on,72,86,0
3,note_on,72,0,240
3,note_on,74,74,0
3,note_on,74,0,240
3,note_on,67,76,0
3,note_on,67,0,120
3,note_on,72,79,120
3,note_on,72,0,120
3,note_on,71,79,0
3,note_on,71,0,120
3,note_on,72,86,0
3,note_on,72,0,240
3,note_on,74,78,0
3,note_on,74,0,220
3,note_on,65,56,20
3,note_on,65,0,120
3,note_on,67,56,0
3,note_on,67,0,120
3,note_on,68,60,0
3,note_on,68,0,480
3,note_on,67,47,0
3,note_on,67,0,120
3,note_on,65,45,0
3,note_on,65,0,120
3,note_on,64,43,0
3,note_on,64,0,960
4,note_on,72,81,240
4,note_on,72,0,120
4,note_on,71,81,0
4,note_on,71,0,120
4,note_on,72,86,0
4,note_on,72,0,120
4,note_on,67,71,120
4,note_on,67,0,240
4,note_on,68,72,0
4,note_on,68,0,120
4,note_on,72,81,120
4,note_on,72,0,120
4,note_on,71,81,0
4,note_on,71,0,120
4,note_on,72,86,0
4,note_on,72,0,120
4,note_on,74,76,120
4,note_on,74,0,240
4,note_on,67,73,0
4,note_on,67,0,120
4,note_on,72,81,120
4,note_on,72,0,120
4,note_on,71,81,0
4,note_on,71,0,120
4,note_on,72,86,0
4,note_on,72,0,120
4,note_on,74,77,120
4,note_on,74,0,120
4,note_on,65,75,120
4,note_on,65,0,120
4,note_on,67,75,0
4,note_on,67,0,120
4,note_on,68,81,0
4,note_on,68,0,480
4,note_on,67,73,0
4,note_on,67,0,120
4,note_on,65,71,0
4,note_on,65,0,120
4,note_on,63,75,0
4,note_on,63,0,60
4,note_on,72,71,60
4,note_on,72,0,120
4,note_on,71,62,0
4,note_on,71,0,120
4,note_on,68,62,0
4,note_on,68,0,120
4,note_on,67,62,0
4,note_on,67,0,120
4,note_on,65,62,0
4,note_on,65,0,120
4,note_on,63,62,0
4,note_on,63,0,120
4,note_on,62,62,0
4,note_on,62,0,120
4,note_on,60,67,0
4,note_on,60,0,120
4,note_on,75,65,120
4,note_on,75,0,240
4,note_on,74,65,0
4,note_on,74,0,240
4,note_on,72,65,0
4,note_on,72,0,240
4,note_on,70,68,0
4,note_on,70,0,120
4,note_on,69,63,120
4,note_on,69,0,240
4,note_on,70,67,0
4,note_on,70,0,240
4,note_on,72,62,0
4,note_on,72,0,238
4,note_on,66,67,2
4,note_on,66,0,240
4,note_on,67,62,0
4,note_on,67,0,240
4,note_on,69,66,0
4,note_on,69,0,240
4,note_on,66,63,0
4,note_on,66,0,240
4,note_on,67,69,0
4,note_on,67,0,480
4,note_on,60,70,120
4,note_on,60,0,120
4,note_on,62,72,0
4,note_on,62,0,120
4,note_on,63,74,0
4,note_on,63,0,120
4,note_on,65,75,0
4,note_on,65,0,120
4,note_on,67,75,0
4,note_on,67,0,120
4,note_on,68,79,0
4,note_on,68,0,360
4,note_on,62,71,0
4,note_on,62,0,120
4,note_on,63,73,0
4,note_on,63,0,120
4,note_on,65,74,0
4,note_on,65,0,120
4,note_on,67,76,0
4,note_on,67,0,120
4,note_on,69,77,0
4,note_on,69,0,120
4,note_on,70,79,0
4,note_on,70,0,360
4,note_on,63,69,0
4,note_on,63,0,120
4,note_on,65,71,0
4,note_on,65,0,120
4,note_on,67,73,0
4,note_on,67,0,120
4,note_on,68,74,0
4,note_on,68,0,120
4,note_on,67,73,0
4,note_on,67,0,120
4,note_on,65,72,0
4,note_on,65,0,120
4,note_on,63,71,0
4,note_on,63,0,120
4,note_on,62,70,0
4,note_on,62,0,120
4,note_on,72,78,120
4,note_on,72,0,120
4,note_on,71,78,0
4,note_on,71,0,120
4,note_on,72,83,0
4,note_on,72,0,120
4,note_on,77,74,1080
4,note_on,77,0,240
4,note_on,75,73,0
4,note_on,75,0,240
4,note_on,74,72,0
4,note_on,74,0,240
4,note_on,68,73,240
4,note_on,68,0,240
4,note_on,67,73,0
4,note_on,67,0,240
4,note_on,65,73,0
4,note_on,65,0,240
4,note_on,67,75,0
4,note_on,67,0,120
4,note_on,65,78,120
4,note_on,65,0,120
4,note_on,63,78,0
4,note_on,63,0,120
4,note_on,65,84,0
4,note_on,65,0,120
4,note_on,62,76,120
4,note_on,62,0,240
4,note_on,67,82,0
4,note_on,67,0,480
4,note_on,71,72,240
4,note_on,71,0,240
4,note_on,72,72,0
4,note_on,72,0,120
4,note_on,72,82,120
4,note_on,72,0,120
4,note_on,71,82,0
4,note_on,71,0,120
4,note_on,72,87,0
4,note_on,72,0,120
4,note_on,67,73,120
4,note_on,67,0,240
4,note_on,68,73,0
4,note_on,68,0,480
4,note_on,69,71,240
4,note_on,69,0,240
4,note_on,70,71,0
4,note_on,70,0,120
4,note_on,70,82,120
4,note_on,70,0,120
4,note_on,69,82,0
4,note_on,69,0,120
4,note_on,70,86,0
4,note_on,70,0,120
4,note_on,65,75,120
4,note_on,65,0,240
4,note_on,67,75,0
4,note_on,67,0,480
4,note_on,67,74,240
4,note_on,67,0,240
4,note_on,68,74,0
4,note_on,68,0,120
4,note_on,68,75,120
4,note_on,68,0,240
4,note_on,67,74,0
4,note_on,67,0,240
4,note_on,65,72,0
4,note_on,65,0,240
4,note_on,56,66,240
4,note_on,56,0,240
4,note_on,58,69,0
4,note_on,58,0,240
4,note_on,60,71,0
4,note_on,60,0,180
4,note_on,56,73,300
4,note_on,56,0,120
4,note_on,55,73,0
4,note_on,55,0,120
4,note_on,56,78,0
4,note_on,56,0,120
4,note_on,53,72,120
4,note_on,53,0,240
4,note_on,58,71,0
4,note_on,58,0,120
4,note_on,60,65,120
4,note_on,60,0,240
4,note_on,58,63,0
4,note_on,58,0,240
4,note_on,56,61,0
4,note_on,56,0,240
4,note_on,58,57,0
4,note_on,58,0,120
4,note_on,55,68,120
4,note_on,55,0,240
4,note_on,53,66,0
4,note_on,53,0,240
4,note_on,51,65,0
4,note_on,51,0,240
4,note_on,53,63,0
4,note_on,53,0,120
4,note_on,61,71,120
4,note_on,61,0,240
4,note_on,60,69,0
4,note_on,60,0,240
4,note_on,58,67,0
4,note_on,58,0,240
4,note_on,60,65,0
4,note_on,60,0,120
4,note_on,56,68,120
4,note_on,56,0,240
4,note_on,55,67,0
4,note_on,55,0,240
4,note_on,53,65,0
4,note_on,53,0,240
4,note_on,55,64,0
4,note_on,55,0,120
4,note_on,67,80,120
4,note_on,67,0,120
4,note_on,66,80,0
4,note_on,66,0,120
4,note_on,67,88,0
4,note_on,67,0,120
4,note_on,60,74,120
4,note_on,60,0,240
4,note_on,63,74,0
4,note_on,63,0,120
4,note_on,67,80,120
4,note_on,67,0,120
4,note_on,66,80,0
4,note_on,66,0,120
4,note_on,67,87,0
4,note_on,67,0,240
4,note_on,69,77,0
4,note_on,69,0,240
4,note_on,62,76,0
4,note_on,62,0,120
4,note_on,67,80,120
4,note_on,67,0,120
4,note_on,66,80,0
4,note_on,66,0,120
4,note_on,67,86,0
4,note_on,67,0,240
4,note_on,69,79,0
4,note_on,69,0,180
4,note_on,60,73,60
4,note_on,60,0,120
4,note_on,62,73,0
4,note_on,62,0,120
4,note_on,63,80,0
4,note_on,63,0,480
4,note_on,62,77,0
4,note_on,62,0,120
4,note_on,60,77,0
4,note_on,60,0,120
4,note_on,58,75,0
4,note_on,58,0,120
4,note_on,62,67,480
4,note_on,62,0,120
4,note_on,64,69,0
4,note_on,64,0,120
4,note_on,66,71,0
4,note_on,66,0,120
4,note_on,67,73,0
4,note_on,67,0,120
4,note_on,69,75,0
4,note_on,69,0,120
4,note_on,70,77,0
4,note_on,70,0,360
4,note_on,64,73,0
4,note_on,64,0,120
4,note_on,65,75,0
4,note_on,65,0,120
4,note_on,67,77,0
4,note_on,67,0,120
4,note_on,69,79,0
4,note_on,69,0,120
4,note_on,70,79,0
4,note_on,70,0,120
4,note_on,72,83,0
4,note_on,72,0,360
4,note_on,66,75,0
4,note_on,66,0,120
4,note_on,67,78,0
4,note_on,67,0,120
4,note_on,69,80,0
4,note_on,69,0,120
4,note_on,70,83,0
4,note_on,70,0,240
4,note_on,63,71,0
4,note_on,63,0,120
4,note_on,62,71,0
4,note_on,62,0,120
4,note_on,63,74,0
4,note_on,63,0,120
4,note_on,55,64,120
4,note_on,55,0,120
4,note_on,56,64,120
4,note_on,56,0,120
4,note_on,65,72,120
4,note_on,65,0,120
4,note_on,63,72,0
4,note_on,63,0,120
4,note_on,65,76,0
4,note_on,65,0,120
4,note_on,57,64,120
4,note_on,57,0,120
4,note_on,58,64,120
4,note_on,58,0,120
4,note_on,67,72,120
4,note_on,67,0,120
4,note_on,65,72,0
4,note_on,65,0,120
4,note_on,67,75,0
4,note_on,67,0,120
4,note_on,59,64,120
4,note_on,59,0,120
4,note_on,60,69,120
4,note_on,60,0,60
4,note_on,65,68,60
4,note_on,65,0,120
4,note_on,63,67,0
4,note_on,63,0,120
4,note_on,62,66,0
4,note_on,62,0,120
4,note_on,60,66,0
4,note_on,60,0,120
4,note_on,58,65,0
4,note_on,58,0,120
4,note_on,56,64,0
4,note_on,56,0,120
4,note_on,55,63,0
4,note_on,55,0,120
4,note_on,53,62,0
4,note_on,53,0,120
4,note_on,68,64,120
4,note_on,68,0,240
4,note_on,67,68,0
4,note_on,67,0,240
4,note_on,65,68,0
4,note_on,65,0,240
4,note_on,63,66,0
4,note_on,63,0,120
4,note_on,62,64,120
4,note_on,62,0,240
4,note_on,63,64,0
4,note_on,63,0,240
4,note_on,65,64,0
4,note_on,65,0,238
4,note_on,59,69,2
4,note_on,59,0,120
4,note_on,60,64,120
4,note_on,60,0,240
4,note_on,62,67,0
4,note_on,62,0,240
4,note_on,59,59,0
4,note_on,59,0,240
4,note_on,60,66,0
4,note_on,60,0,480
4,note_on,64,64,240
4,note_on,64,0,240
4,note_on,65,64,0
4,note_on,65,0,120
4,note_on,65,82,120
4,note_on,65,0,120
4,note_on,64,82,0
4,note_on,64,0,120
4,note_on,65,84,0
4,note_on,65,0,120
4,note_on,60,72,120
4,note_on,60,0,240
4,note_on,62,72,0
4,note_on,62,0,480
4,note_on,62,69,240
4,note_on,62,0,240
4,note_on,63,69,0
4,note_on,63,0,120
4,note_on,63,79,120
4,note_on,63,0,120
4,note_on,62,79,0
4,note_on,62,0,120
4,note_on,63,84,0
4,note_on,63,0,120
4,note_on,58,73,120
4,note_on,58,0,240
4,note_on,60,73,0
4,note_on,60,0,1200
4,note_on,62,72,0
4,note_on,62,0,120
4,note_on,63,73,0
4,note_on,63,0,120
4,note_on,65,75,0
4,note_on,65,0,120
4,note_on,63,73,0
4,note_on,63,0,120
4,note_on,65,75,0
4,note_on,65,0,120
4,note_on,62,73,0
4,note_on,62,0,120
4,note_on,59,75,0
4,note_on,59,0,120
4,note_on,59,63,600
4,note_on,59,0,240
4,note_on,60,63,0
4,note_on,60,0,120
4,note_on,63,65,600
4,note_on,63,0,240
4,note_on,62,65,0
4,note_on,62,0,120
4,note_on,65,70,600
4,note_on,65,0,480
4,note_on,65,67,480
4,note_on,65,0,240
4,note_on,63,65,0
4,note_on,63,0,120
4,note_on,68,66,120
4,note_on,68,0,240
4,note_on,67,65,0
4,note_on,67,0,240
4,note_on,65,64,0
4,note_on,65,0,240
4,note_on,63,71,0
4,note_on,63,0,120
4,note_on,62,69,120
4,note_on,62,0,240
4,note_on,63,67,0
4,note_on,63,0,240
4,note_on,59,69,240
4,note_on,59,0,120
4,note_on,60,65,120
4,note_on,60,0,240
4,note_on,62,69,0
4,note_on,62,0,120
4,note_on,59,65,120
4,note_on,59,0,240
4,note_on,59,88,0
4,note_on,59,0,240
4,note_on,60,62,0
4,note_on,60,0,240
4,note_on,60,68,240
4,note_on,60,0,240
4,note_on,65,75,0
4,note_on,65,0,120
4,note_on,62,72,0
4,note_on,62,0,120
4,note_on,63,77,0
4,note_on,63,0,120
4,note_on,60,71,0
4,note_on,60,0,360
4,note_on,59,74,0
4,note_on,59,0,240
4,note_on,60,81,0
4,note_on,60,0,240
4,note_on,64,65,480
4,note_on,64,0,240
4,note_on,65,66,0
4,note_on,65,0,120
4,note_on,71,45,600
4,note_on,68,45,0
4,note_on,65,45,0
4,note_on,65,0,240
4,note_on,68,0,0
4,note_on,71,0,0
4,note_on,65,60,0
4,note_on,65,0,120
4,note_on,63,64,120
4,note_on,63,0,120
4,note_on,62,64,0
4,note_on,62,0,120
4,note_on,63,69,0
4,note_on,63,0,240
4,note_on,68,57,0
4,note_on,65,57,0
4,note_on,65,0,220
4,note_on,68,0,0
4,note_on,59,53,20
4,note_on,62,53,0
4,note_on,62,0,240
4,note_on,59,0,0
4,note_on,59,46,240
4,note_on,62,46,0
4,note_on,62,0,240
4,note_on,59,0,0
4,note_on,55,36,240
4,note_on,60,36,0
4,note_on,60,0,960
4,note_on,55,0,0
5,note_on,60,81,240
5,note_on,60,0,120
5,note_on,59,81,0
5,note_on,59,0,120
5,note_on,60,86,0
5,note_on,60,0,120
5,note_on,55,71,120
5,note_on,55,0,240
5,note_on,56,72,0
5,note_on,56,0,120
5,note_on,60,81,120
5,note_on,60,0,120
5,note_on,59,81,0
5,note_on,59,0,120
5,note_on,60,86,0
5,note_on,60,0,120
5,note_on,62,76,120
5,note_on,62,0,240
5,note_on,55,73,0
5,note_on,55,0,120
5,note_on,60,81,120
5,note_on,60,0,120
5,note_on,59,81,0
5,note_on,59,0,120
5,note_on,60,86,0
5,note_on,60,0,120
5,note_on,62,77,120
5,note_on,62,0,120
5,note_on,53,72,120
5,note_on,53,0,120
5,note_on,55,72,0
5,note_on,55,0,120
5,note_on,56,74,0
5,note_on,56,0,480
5,note_on,55,73,0
5,note_on,55,0,120
5,note_on,53,73,0
5,note_on,53,0,120
5,note_on,51,72,0
5,note_on,51,0,60
5,note_on,60,75,60
5,note_on,60,0,120
5,note_on,59,74,0
5,note_on,59,0,120
5,note_on,57,73,0
5,note_on,57,0,120
5,note_on,55,72,0
5,note_on,55,0,120
5,note_on,53,70,0
5,note_on,53,0,120
5,note_on,51,69,0
5,note_on,51,0,120
5,note_on,50,68,0
5,note_on,50,0,120
5,note_on,48,67,0
5,note_on,48,0,120
5,note_on,50,70,0
5,note_on,50,0,120
5,note_on,51,71,0
5,note_on,51,0,120
5,note_on,50,70,0
5,note_on,50,0,120
5,note_on,48,67,0
5,note_on,48,0,120
5,note_on,46,71,0
5,note_on,46,0,120
5,note_on,44,70,0
5,note_on,44,0,120
5,note_on,43,68,0
5,note_on,43,0,120
5,note_on,41,67,0
5,note_on,41,0,60
5,note_on,58,74,60
5,note_on,58,0,120
5,note_on,56,74,0
5,note_on,56,0,120
5,note_on,55,73,0
5,note_on,55,0,120
5,note_on,53,72,0
5,note_on,53,0,120
5,note_on,51,72,0
5,note_on,51,0,120
5,note_on,50,71,0
5,note_on,50,0,120
5,note_on,48,70,0
5,note_on,48,0,120
5,note_on,46,70,0
5,note_on,46,0,120
5,note_on,48,71,0
5,note_on,48,0,120
5,note_on,50,71,0
5,note_on,50,0,120
5,note_on,48,73,0
5,note_on,48,0,120
5,note_on,46,71,0
5,note_on,46,0,120
5,note_on,44,70,0
5,note_on,44,0,120
5,note_on,43,68,0
5,note_on,43,0,120
5,note_on,41,66,0
5,note_on,41,0,120
5,note_on,39,65,0
5,note_on,39,0,60
5,note_on,56,75,60
5,note_on,56,0,120
5,note_on,55,74,0
5,note_on,55,0,120
5,note_on,53,73,0
5,note_on,53,0,120
5,note_on,51,72,0
5,note_on,51,0,120
5,note_on,49,71,0
5,note_on,49,0,120
5,note_on,48,70,0
5,note_on,48,0,120
5,note_on,46,69,0
5,note_on,46,0,120
5,note_on,44,68,0
5,note_on,44,0,120
5,note_on,60,75,120
5,note_on,60,0,240
5,note_on,58,74,0
5,note_on,58,0,240
5,note_on,56,72,0
5,note_on,56,0,240
5,note_on,55,72,0
5,note_on,55,0,120
5,note_on,53,66,120
5,note_on,53,0,240
5,note_on,55,69,0
5,note_on,55,0,240
5,note_on,56,71,0
5,note_on,56,0,180
5,note_on,50,65,60
5,note_on,50,0,240
5,note_on,51,69,0
5,note_on,51,0,240
5,note_on,53,72,0
5,note_on,53,0,240
5,note_on,50,68,0
5,note_on,50,0,240
5,note_on,51,67,0
5,note_on,51,0,120
5,note_on,56,56,120
5,note_on,56,0,240
5,note_on,55,55,0
5,note_on,55,0,240
5,note_on,53,53,0
5,note_on,53,0,240
5,note_on,55,55,0
5,note_on,55,0,120
5,note_on,53,56,120
5,note_on,53,0,240
5,note_on,50,55,0
5,note_on,50,0,240
5,note_on,48,52,0
5,note_on,48,0,240
5,note_on,50,50,0
5,note_on,50,0,120
5,note_on,58,54,120
5,note_on,58,0,240
5,note_on,56,52,0
5,note_on,56,0,240
5,note_on,55,51,0
5,note_on,55,0,240
5,note_on,56,54,0
5,note_on,56,0,120
5,note_on,53,55,120
5,note_on,53,0,240
5,note_on,51,52,0
5,note_on,51,0,240
5,note_on,50,48,0
5,note_on,50,0,240
5,note_on,51,63,0
5,note_on,51,0,120
5,note_on,48,59,1080
5,note_on,48,0,240
5,note_on,46,58,0
5,note_on,46,0,240
5,note_on,45,56,0
5,note_on,45,0,240
5,note_on,51,57,240
5,note_on,51,0,240
5,note_on,50,56,0
5,note_on,50,0,240
5,note_on,48,55,0
5,note_on,48,0,180
5,note_on,50,59,60
5,note_on,50,0,240
5,note_on,48,58,0
5,note_on,48,0,120
5,note_on,46,58,0
5,note_on,46,0,120
5,note_on,48,58,0
5,note_on,48,0,240
5,note_on,50,56,0
5,note_on,50,0,240
5,note_on,43,63,0
5,note_on,43,0,120
5,note_on,58,70,120
5,note_on,58,0,120
5,note_on,57,70,0
5,note_on,57,0,120
5,note_on,58,73,0
5,note_on,58,0,120
5,note_on,50,58,120
5,note_on,50,0,120
5,note_on,51,63,120
5,note_on,51,0,120
5,note_on,60,69,120
5,note_on,60,0,120
5,note_on,59,69,0
5,note_on,59,0,120
5,note_on,60,73,0
5,note_on,60,0,120
5,note_on,52,58,120
5,note_on,52,0,120
5,note_on,53,63,120
5,note_on,53,0,120
5,note_on,62,75,120
5,note_on,62,0,120
5,note_on,60,75,0
5,note_on,60,0,120
5,note_on,62,80,0
5,note_on,62,0,120
5,note_on,54,63,120
5,note_on,54,0,120
5,note_on,55,65,120
5,note_on,55,0,120
5,note_on,43,54,480
5,note_on,43,0,120
5,note_on,45,57,0
5,note_on,45,0,120
5,note_on,47,59,0
5,note_on,47,0,120
5,note_on,48,62,0
5,note_on,48,0,120
5,note_on,50,64,0
5,note_on,50,0,120
5,note_on,51,66,0
5,note_on,51,0,360
5,note_on,45,58,0
5,note_on,45,0,120
5,note_on,46,60,0
5,note_on,46,0,120
5,note_on,48,63,0
5,note_on,48,0,120
5,note_on,50,65,0
5,note_on,50,0,120
5,note_on,51,67,0
5,note_on,51,0,120
5,note_on,53,70,0
5,note_on,53,0,360
5,note_on,47,59,0
5,note_on,47,0,120
5,note_on,48,62,0
5,note_on,48,0,120
5,note_on,50,64,0
5,note_on,50,0,120
5,note_on,51,67,0
5,note_on,51,0,120
5,note_on,52,61,600
5,note_on,52,0,240
5,note_on,56,66,0
5,note_on,56,0,120
5,note_on,41,60,120
5,note_on,41,0,240
5,note_on,39,59,0
5,note_on,39,0,240
5,note_on,38,58,0
5,note_on,38,0,240
5,note_on,44,61,240
5,note_on,44,0,240
5,note_on,43,59,0
5,note_on,43,0,240
5,note_on,41,57,0
5,note_on,41,0,240
5,note_on,43,56,0
5,note_on,43,0,120
5,note_on,41,62,120
5,note_on,41,0,120
5,note_on,39,62,0
5,note_on,39,0,120
5,note_on,41,67,0
5,note_on,41,0,120
5,note_on,43,55,120
5,note_on,43,0,120
5,note_on,48,58,120
5,note_on,48,0,120
5,note_on,50,58,0
5,note_on,50,0,120
5,note_on,51,59,0
5,note_on,51,0,120
5,note_on,50,58,0
5,note_on,50,0,120
5,note_on,48,57,0
5,note_on,48,0,120
5,note_on,46,57,0
5,note_on,46,0,120
5,note_on,44,56,0
5,note_on,44,0,120
5,note_on,43,55,0
5,note_on,43,0,120
5,note_on,41,54,0
5,note_on,41,0,60
5,note_on,58,59,60
5,note_on,58,0,120
5,note_on,56,59,0
5,note_on,56,0,120
5,note_on,55,58,0
5,note_on,55,0,120
5,note_on,53,57,0
5,note_on,53,0,120
5,note_on,51,57,0
5,note_on,51,0,120
5,note_on,50,56,0
5,note_on,50,0,120
5,note_on,48,55,0
5,note_on,48,0,120
5,note_on,46,55,0
5,note_on,46,0,120
5,note_on,48,57,0
5,note_on,48,0,120
5,note_on,50,60,0
5,note_on,50,0,120
5,note_on,48,59,0
5,note_on,48,0,120
5,note_on,46,58,0
5,note_on,46,0,120
5,note_on,44,57,0
5,note_on,44,0,120
5,note_on,43,57,0
5,note_on,43,0,120
5,note_on,41,56,0
5,note_on,41,0,120
5,note_on,39,55,0
5,note_on,39,0,60
5,note_on,56,61,60
5,note_on,56,0,120
5,note_on,55,60,0
5,note_on,55,0,120
5,note_on,53,60,0
5,note_on,53,0,120
5,note_on,51,59,0
5,note_on,51,0,120
5,note_on,50,58,0
5,note_on,50,0,120
5,note_on,48,57,0
5,note_on,48,0,120
5,note_on,46,57,0
5,note_on,46,0,120
5,note_on,44,56,0
5,note_on,44,0,120
5,note_on,46,57,0
5,note_on,46,0,120
5,note_on,48,60,0
5,note_on,48,0,120
5,note_on,46,58,0
5,note_on,46,0,120
5,note_on,44,58,0
5,note_on,44,0,120
5,note_on,43,57,0
5,note_on,43,0,120
5,note_on,41,57,0
5,note_on,41,0,120
5,note_on,39,56,0
5,note_on,39,0,120
5,note_on,38,56,0
5,note_on,38,0,60
5,note_on,55,56,60
5,note_on,55,0,120
5,note_on,53,60,0
5,note_on,53,0,120
5,note_on,51,59,0
5,note_on,51,0,120
5,note_on,50,59,0
5,note_on,50,0,120
5,note_on,48,58,0
5,note_on,48,0,120
5,note_on,47,57,0
5,note_on,47,0,120
5,note_on,45,56,0
5,note_on,45,0,120
5,note_on,43,55,0
5,note_on,43,0,480
5,note_on,43,49,600
5,note_on,43,0,120
5,note_on,45,51,0
5,note_on,45,0,120
5,note_on,47,52,0
5,note_on,47,0,120
5,note_on,48,54,0
5,note_on,48,0,120
5,note_on,50,55,0
5,note_on,50,0,120
5,note_on,51,57,0
5,note_on,51,0,120
5,note_on,53,58,0
5,note_on,53,0,120
5,note_on,55,60,0
5,note_on,55,0,120
5,note_on,53,57,0
5,note_on,53,0,120
5,note_on,56,62,0
5,note_on,56,0,120
5,note_on,55,61,0
5,note_on,55,0,120
5,note_on,53,60,0
5,note_on,53,0,120
5,note_on,51,59,0
5,note_on,51,0,120
5,note_on,50,58,0
5,note_on,50,0,120
5,note_on,48,57,0
5,note_on,48,0,120
5,note_on,47,56,0
5,note_on,47,0,120
5,note_on,48,77,120
5,note_on,48,0,120
5,note_on,47,77,0
5,note_on,47,0,120
5,note_on,48,80,0
5,note_on,48,0,120
5,note_on,43,71,120
5,note_on,43,0,240
5,note_on,44,71,0
5,note_on,44,0,120
5,note_on,48,78,120
5,note_on,48,0,120
5,note_on,47,78,0
5,note_on,47,0,120
5,note_on,48,81,0
5,note_on,48,0,120
5,note_on,50,75,120
5,note_on,50,0,240
5,note_on,43,71,0
5,note_on,43,0,120
5,note_on,48,77,120
5,note_on,48,0,120
5,note_on,47,77,0
5,note_on,47,0,120
5,note_on,48,80,0
5,note_on,48,0,120
5,note_on,50,71,120
5,note_on,50,0,120
5,note_on,41,74,120
5,note_on,41,0,120
5,note_on,43,74,0
5,note_on,43,0,120
5,note_on,44,78,0
5,note_on,44,0,480
5,note_on,43,73,0
5,note_on,43,0,120
5,note_on,41,73,0
5,note_on,41,0,120
5,note_on,39,69,0
5,note_on,39,0,480
5,note_on,51,57,240
5,note_on,51,0,240
5,note_on,50,61,0
5,note_on,50,0,240
5,note_on,48,57,0
5,note_on,48,0,240
5,note_on,55,69,0
5,note_on,55,0,240
5,note_on,43,64,0
5,note_on,43,0,240
5,note_on,48,82,0
5,note_on,36,82,0
5,note_on,36,0,4800
5,note_on,48,0,0
