Track,Message Type,Note,Velocity,Time
1,note_on,58,42,1440
1,note_on,62,50,0
1,note_on,58,0,120
1,note_on,57,40,0
1,note_on,57,0,120
1,note_on,58,45,0
1,note_on,58,0,120
1,note_on,53,39,0
1,note_on,53,0,120
1,note_on,62,0,0
1,note_on,62,35,0
1,note_on,65,42,0
1,note_on,65,0,90
1,note_on,62,0,0
1,note_on,58,32,390
1,note_on,62,38,0
1,note_on,62,0,90
1,note_on,58,0,0
1,note_on,58,42,870
1,note_on,62,50,0
1,note_on,58,0,120
1,note_on,57,40,0
1,note_on,57,0,120
1,note_on,58,45,0
1,note_on,58,0,120
1,note_on,53,39,0
1,note_on,53,0,120
1,note_on,62,0,0
1,note_on,62,35,0
1,note_on,65,42,0
1,note_on,65,0,90
1,note_on,62,0,0
1,note_on,58,32,390
1,note_on,62,38,0
1,note_on,62,0,90
1,note_on,58,0,0
1,note_on,62,50,870
1,note_on,58,42,0
1,note_on,57,40,120
1,note_on,58,0,12
1,note_on,62,0,108
1,note_on,58,46,0
1,note_on,57,0,12
1,note_on,53,40,108
1,note_on,58,0,12
1,note_on,53,0,108
1,note_on,65,53,0
1,note_on,62,44,0
1,note_on,61,42,120
1,note_on,62,0,12
1,note_on,65,0,108
1,note_on,62,49,0
1,note_on,61,0,12
1,note_on,58,42,108
1,note_on,62,0,12
1,note_on,58,0,108
1,note_on,65,47,0
1,note_on,70,56,0
1,note_on,64,45,120
1,note_on,65,0,12
1,note_on,70,0,108
1,note_on,65,51,0
1,note_on,64,0,12
1,note_on,62,45,108
1,note_on,65,0,12
1,note_on,62,0,108
1,note_on,70,49,0
1,note_on,74,59,0
1,note_on,69,47,120
1,note_on,70,0,12
1,note_on,74,0,108
1,note_on,70,54,0
1,note_on,69,0,12
1,note_on,65,47,108
1,note_on,70,0,12
1,note_on,65,0,108
1,note_on,74,52,0
1,note_on,77,62,0
1,note_on,73,50,120
1,note_on,74,0,12
1,note_on,77,0,108
1,note_on,74,57,0
1,note_on,73,0,12
1,note_on,70,49,108
1,note_on,74,0,12
1,note_on,70,0,108
1,note_on,82,72,0
1,note_on,82,0,1440
1,note_on,81,60,0
1,note_on,81,0,120
1,note_on,82,57,0
1,note_on,82,0,120
1,note_on,84,60,0
1,note_on,84,0,120
1,note_on,82,54,0
1,note_on,82,0,120
1,note_on,81,60,0
1,note_on,81,0,240
1,note_on,79,51,0
1,note_on,79,0,240
1,note_on,77,54,0
1,note_on,77,0,240
1,note_on,75,50,0
1,note_on,75,0,240
1,note_on,74,59,0
1,note_on,74,0,240
1,note_on,72,48,0
1,note_on,72,0,240
1,note_on,79,56,0
1,note_on,79,0,240
1,note_on,77,47,0
1,note_on,77,0,240
1,note_on,75,54,0
1,note_on,75,0,480
1,note_on,74,47,0
1,note_on,74,0,480
1,note_on,69,58,480
1,note_on,69,0,120
1,note_on,70,54,0
1,note_on,70,0,120
1,note_on,72,58,0
1,note_on,72,0,120
1,note_on,70,54,0
1,note_on,70,0,120
1,note_on,68,60,0
1,note_on,68,0,240
1,note_on,67,54,0
1,note_on,67,0,240
1,note_on,65,66,0
1,note_on,65,0,240
1,note_on,63,61,0
1,note_on,63,0,240
1,note_on,62,69,0
1,note_on,62,0,240
1,note_on,60,62,0
1,note_on,60,0,240
1,note_on,63,73,0
1,note_on,63,0,240
1,note_on,57,63,0
1,note_on,57,0,240
1,note_on,58,79,0
1,note_on,58,0,120
1,note_on,62,68,120
1,note_on,62,0,120
1,note_on,60,65,0
1,note_on,60,0,120
1,note_on,58,71,0
1,note_on,58,0,120
1,note_on,57,65,0
1,note_on,57,0,120
1,note_on,58,71,0
1,note_on,58,0,120
1,note_on,55,65,0
1,note_on,55,0,120
1,note_on,53,79,0
1,note_on,53,0,120
1,note_on,67,68,120
1,note_on,67,0,120
1,note_on,65,65,0
1,note_on,65,0,120
1,note_on,63,71,0
1,note_on,63,0,120
1,note_on,62,65,0
1,note_on,62,0,120
1,note_on,63,71,0
1,note_on,63,0,120
1,note_on,60,65,0
1,note_on,60,0,120
1,note_on,58,79,0
1,note_on,58,0,120
1,note_on,74,68,120
1,note_on,74,0,120
1,note_on,72,65,0
1,note_on,72,0,120
1,note_on,70,71,0
1,note_on,70,0,120
1,note_on,69,65,0
1,note_on,69,0,120
1,note_on,70,71,0
1,note_on,70,0,120
1,note_on,67,65,0
1,note_on,67,0,120
1,note_on,65,79,0
1,note_on,65,0,120
1,note_on,79,78,120
1,note_on,79,0,120
1,note_on,77,74,0
1,note_on,77,0,120
1,note_on,75,81,0
1,note_on,75,0,120
1,note_on,74,74,0
1,note_on,74,0,120
1,note_on,75,81,0
1,note_on,75,0,120
1,note_on,72,74,0
1,note_on,72,0,120
1,note_on,70,90,0
1,note_on,70,0,120
1,note_on,72,68,120
1,note_on,72,0,120
1,note_on,74,68,0
1,note_on,74,0,120
1,note_on,75,77,0
1,note_on,75,0,120
1,note_on,77,70,0
1,note_on,77,0,120
1,note_on,79,70,0
1,note_on,79,0,120
1,note_on,81,71,0
1,note_on,81,0,120
1,note_on,82,73,0
1,note_on,82,0,30
1,note_on,84,65,0
1,note_on,84,0,30
1,note_on,82,81,0
1,note_on,82,0,60
1,note_on,81,72,0
1,note_on,81,0,120
1,note_on,82,73,0
1,note_on,82,0,120
1,note_on,84,74,0
1,note_on,84,0,120
1,note_on,86,74,0
1,note_on,86,0,30
1,note_on,87,66,0
1,note_on,87,0,30
1,note_on,86,83,0
1,note_on,84,75,60
1,note_on,86,0,60
1,note_on,84,0,60
1,note_on,86,76,0
1,note_on,86,0,120
1,note_on,88,76,0
1,note_on,88,0,120
1,note_on,89,92,0
1,note_on,89,0,120
1,note_on,65,79,360
1,note_on,65,0,120
1,note_on,77,75,4200
1,note_on,71,56,1440
1,note_on,71,0,480
1,note_on,77,0,0
1,note_on,72,44,0
1,note_on,75,53,0
1,note_on,75,0,480
1,note_on,72,0,0
1,note_on,69,41,0
1,note_on,74,49,0
1,note_on,69,0,480
1,note_on,70,55,0
1,note_on,70,0,480
1,note_on,74,0,0
1,note_on,67,41,0
1,note_on,72,49,0
1,note_on,67,0,480
1,note_on,69,55,0
1,note_on,69,0,480
1,note_on,72,0,0
1,note_on,65,42,0
1,note_on,71,50,0
1,note_on,71,0,480
1,note_on,65,0,0
1,note_on,72,68,0
1,note_on,72,0,120
1,note_on,64,34,0
1,note_on,67,40,0
1,note_on,67,0,120
1,note_on,64,0,0
1,note_on,72,62,0
1,note_on,72,0,120
1,note_on,64,33,0
1,note_on,67,39,0
1,note_on,67,0,120
1,note_on,64,0,0
1,note_on,72,64,0
1,note_on,72,0,120
1,note_on,64,34,0
1,note_on,67,41,0
1,note_on,67,0,120
1,note_on,64,0,0
1,note_on,74,68,0
1,note_on,74,0,120
1,note_on,64,34,0
1,note_on,67,40,0
1,note_on,67,0,120
1,note_on,64,0,0
1,note_on,76,62,0
1,note_on,76,0,120
1,note_on,67,38,0
1,note_on,70,45,0
1,note_on,70,0,120
1,note_on,67,0,0
1,note_on,72,68,0
1,note_on,72,0,120
1,note_on,67,38,0
1,note_on,70,45,0
1,note_on,70,0,120
1,note_on,67,0,0
1,note_on,74,68,0
1,note_on,74,0,120
1,note_on,67,38,0
1,note_on,70,45,0
1,note_on,70,0,120
1,note_on,67,0,0
1,note_on,76,70,0
1,note_on,76,0,120
1,note_on,67,38,0
1,note_on,70,45,0
1,note_on,70,0,120
1,note_on,67,0,0
1,note_on,77,68,0
1,note_on,77,0,120
1,note_on,65,34,0
1,note_on,69,40,0
1,note_on,69,0,120
1,note_on,65,0,0
1,note_on,77,62,0
1,note_on,77,0,120
1,note_on,65,33,0
1,note_on,69,39,0
1,note_on,69,0,120
1,note_on,65,0,0
1,note_on,77,64,0
1,note_on,77,0,120
1,note_on,65,34,0
1,note_on,69,41,0
1,note_on,69,0,120
1,note_on,65,0,0
1,note_on,76,68,0
1,note_on,76,0,120
1,note_on,65,34,0
1,note_on,69,40,0
1,note_on,69,0,120
1,note_on,65,0,0
1,note_on,74,62,0
1,note_on,74,0,120
1,note_on,65,38,0
1,note_on,68,45,0
1,note_on,68,0,120
1,note_on,65,0,0
1,note_on,72,68,0
1,note_on,72,0,120
1,note_on,65,38,0
1,note_on,68,45,0
1,note_on,68,0,120
1,note_on,65,0,0
1,note_on,71,68,0
1,note_on,71,0,120
1,note_on,65,38,0
1,note_on,68,45,0
1,note_on,68,0,120
1,note_on,65,0,0
1,note_on,74,70,0
1,note_on,74,0,120
1,note_on,65,38,0
1,note_on,68,45,0
1,note_on,68,0,120
1,note_on,65,0,0
1,note_on,72,68,0
1,note_on,72,0,120
1,note_on,64,34,0
1,note_on,67,40,0
1,note_on,67,0,120
1,note_on,64,0,0
1,note_on,71,62,0
1,note_on,71,0,120
1,note_on,64,33,0
1,note_on,67,39,0
1,note_on,67,0,120
1,note_on,64,0,0
1,note_on,72,64,0
1,note_on,72,0,120
1,note_on,64,34,0
1,note_on,67,41,0
1,note_on,67,0,120
1,note_on,64,0,0
1,note_on,74,68,0
1,note_on,74,0,120
1,note_on,64,34,0
1,note_on,67,40,0
1,note_on,67,0,120
1,note_on,64,0,0
1,note_on,76,62,0
1,note_on,76,0,120
1,note_on,67,38,0
1,note_on,70,45,0
1,note_on,70,0,120
1,note_on,67,0,0
1,note_on,72,68,0
1,note_on,72,0,120
1,note_on,67,38,0
1,note_on,70,45,0
1,note_on,70,0,120
1,note_on,67,0,0
1,note_on,74,68,0
1,note_on,74,0,120
1,note_on,67,38,0
1,note_on,70,45,0
1,note_on,70,0,120
1,note_on,67,0,0
1,note_on,76,70,0
1,note_on,76,0,120
1,note_on,67,38,0
1,note_on,70,45,0
1,note_on,70,0,120
1,note_on,67,0,0
1,note_on,77,68,0
1,note_on,77,0,120
1,note_on,65,34,0
1,note_on,69,40,0
1,note_on,69,0,120
1,note_on,65,0,0
1,note_on,77,62,0
1,note_on,77,0,120
1,note_on,65,33,0
1,note_on,69,39,0
1,note_on,69,0,120
1,note_on,65,0,0
1,note_on,77,64,0
1,note_on,77,0,120
1,note_on,65,34,0
1,note_on,69,41,0
1,note_on,69,0,120
1,note_on,65,0,0
1,note_on,76,68,0
1,note_on,76,0,120
1,note_on,65,34,0
1,note_on,69,40,0
1,note_on,69,0,120
1,note_on,65,0,0
1,note_on,74,62,0
1,note_on,74,0,120
1,note_on,65,38,0
1,note_on,68,45,0
1,note_on,68,0,120
1,note_on,65,0,0
1,note_on,72,68,0
1,note_on,72,0,120
1,note_on,65,38,0
1,note_on,68,45,0
1,note_on,68,0,120
1,note_on,65,0,0
1,note_on,71,68,0
1,note_on,71,0,120
1,note_on,65,38,0
1,note_on,68,45,0
1,note_on,68,0,120
1,note_on,65,0,0
1,note_on,74,70,0
1,note_on,74,0,120
1,note_on,65,38,0
1,note_on,68,45,0
1,note_on,68,0,120
1,note_on,65,0,0
1,note_on,72,78,0
1,note_on,72,0,120
1,note_on,64,38,0
1,note_on,67,45,0
1,note_on,67,0,120
1,note_on,64,0,0
1,note_on,72,68,0
1,note_on,72,0,120
1,note_on,64,38,0
1,note_on,67,45,0
1,note_on,67,0,120
1,note_on,64,0,0
1,note_on,71,68,0
1,note_on,71,0,120
1,note_on,65,38,0
1,note_on,68,45,0
1,note_on,68,0,120
1,note_on,65,0,0
1,note_on,74,70,0
1,note_on,74,0,120
1,note_on,65,38,0
1,note_on,68,45,0
1,note_on,68,0,120
1,note_on,65,0,0
1,note_on,72,76,0
1,note_on,72,0,120
1,note_on,64,38,0
1,note_on,67,45,0
1,note_on,67,0,120
1,note_on,64,0,0
1,note_on,72,68,0
1,note_on,72,0,120
1,note_on,64,38,0
1,note_on,67,45,0
1,note_on,67,0,120
1,note_on,64,0,0
1,note_on,71,68,0
1,note_on,71,0,120
1,note_on,65,38,0
1,note_on,68,45,0
1,note_on,68,0,120
1,note_on,65,0,0
1,note_on,74,70,0
1,note_on,74,0,120
1,note_on,65,38,0
1,note_on,68,45,0
1,note_on,68,0,120
1,note_on,65,0,0
1,note_on,64,59,0
1,note_on,67,59,0
1,note_on,72,70,0
1,note_on,72,0,120
1,note_on,67,0,0
1,note_on,64,0,0
1,note_on,60,35,0
1,note_on,62,40,120
1,note_on,60,0,12
1,note_on,64,35,108
1,note_on,62,0,12
1,note_on,65,40,108
1,note_on,64,0,12
1,note_on,67,35,108
1,note_on,65,0,12
1,note_on,69,40,108
1,note_on,67,0,12
1,note_on,71,33,108
1,note_on,69,0,12
1,note_on,72,40,108
1,note_on,71,0,12
1,note_on,71,33,108
1,note_on,72,0,12
1,note_on,72,40,108
1,note_on,71,0,12
1,note_on,71,33,108
1,note_on,72,0,12
1,note_on,72,40,108
1,note_on,71,0,12
1,note_on,71,34,108
1,note_on,72,0,12
1,note_on,72,40,108
1,note_on,71,0,12
1,note_on,71,33,108
1,note_on,72,0,12
1,note_on,71,0,108
1,note_on,69,38,0
1,note_on,72,43,0
1,note_on,72,0,960
1,note_on,69,0,0
1,note_on,69,49,0
1,note_on,69,0,480
1,note_on,77,47,0
1,note_on,77,0,480
1,note_on,69,41,0
1,note_on,72,49,0
1,note_on,72,0,480
1,note_on,69,0,0
1,note_on,81,43,0
1,note_on,77,36,0
1,note_on,77,0,480
1,note_on,81,0,0
1,note_on,69,42,0
1,note_on,72,50,0
1,note_on,72,0,480
1,note_on,69,0,0
1,note_on,84,43,0
1,note_on,81,36,0
1,note_on,81,0,480
1,note_on,84,0,0
1,note_on,69,38,0
1,note_on,72,43,0
1,note_on,72,0,960
1,note_on,69,0,0
1,note_on,69,49,0
1,note_on,69,0,480
1,note_on,77,46,0
1,note_on,77,0,480
1,note_on,69,41,0
1,note_on,72,49,0
1,note_on,72,0,480
1,note_on,69,0,0
1,note_on,81,43,0
1,note_on,77,36,0
1,note_on,77,0,480
1,note_on,81,0,0
1,note_on,69,42,0
1,note_on,72,50,0
1,note_on,72,0,480
1,note_on,69,0,0
1,note_on,84,43,0
1,note_on,81,36,0
1,note_on,81,0,480
1,note_on,84,0,0
1,note_on,69,41,0
1,note_on,72,41,0
1,note_on,74,49,0
1,note_on,78,49,0
1,note_on,78,0,960
1,note_on,69,0,0
1,note_on,72,0,0
1,note_on,74,0,0
1,note_on,78,70,1440
1,note_on,78,0,480
1,note_on,81,68,0
1,note_on,81,0,480
1,note_on,84,66,0
1,note_on,78,72,480
1,note_on,84,0,480
1,note_on,82,73,0
1,note_on,78,0,480
1,note_on,79,75,0
1,note_on,73,66,480
1,note_on,73,0,480
1,note_on,72,74,0
1,note_on,79,0,480
1,note_on,82,0,0
1,note_on,81,67,0
1,note_on,77,57,0
1,note_on,77,0,480
1,note_on,81,0,0
1,note_on,72,0,0
1,note_on,70,61,0
1,note_on,74,61,0
1,note_on,79,72,0
1,note_on,79,0,480
1,note_on,74,0,0
1,note_on,70,0,0
1,note_on,67,53,0
1,note_on,70,53,0
1,note_on,76,64,0
1,note_on,76,0,480
1,note_on,70,0,0
1,note_on,67,0,0
1,note_on,65,64,0
1,note_on,69,64,0
1,note_on,77,77,0
1,note_on,77,0,240
1,note_on,69,0,0
1,note_on,65,0,0
1,note_on,65,73,720
1,note_on,69,88,0
1,note_on,65,0,950
1,note_on,69,0,10
1,note_on,62,57,0
1,note_on,65,68,0
1,note_on,62,0,470
1,note_on,65,0,10
1,note_on,58,59,0
1,note_on,62,70,0
1,note_on,62,0,240
1,note_on,58,0,0
1,note_on,67,73,240
1,note_on,70,88,0
1,note_on,70,0,720
1,note_on,67,0,0
1,note_on,65,57,0
1,note_on,69,68,0
1,note_on,69,0,240
1,note_on,65,0,0
1,note_on,67,77,0
1,note_on,64,64,0
1,note_on,64,0,470
1,note_on,67,0,10
1,note_on,60,57,0
1,note_on,64,68,0
1,note_on,64,0,240
1,note_on,60,0,0
1,note_on,69,73,240
1,note_on,72,88,0
1,note_on,69,0,950
1,note_on,72,0,10
1,note_on,65,57,0
1,note_on,69,68,0
1,note_on,65,0,470
1,note_on,69,0,10
1,note_on,62,59,0
1,note_on,65,70,0
1,note_on,65,0,240
1,note_on,62,0,0
1,note_on,70,73,240
1,note_on,74,88,0
1,note_on,74,0,720
1,note_on,70,0,0
1,note_on,69,57,0
1,note_on,72,68,0
1,note_on,72,0,240
1,note_on,69,0,0
1,note_on,70,77,0
1,note_on,67,64,0
1,note_on,67,0,470
1,note_on,70,0,10
1,note_on,64,57,0
1,note_on,67,68,0
1,note_on,67,0,240
1,note_on,64,0,0
1,note_on,70,73,240
1,note_on,79,88,0
1,note_on,79,0,720
1,note_on,70,0,0
1,note_on,69,57,0
1,note_on,77,68,0
1,note_on,77,0,240
1,note_on,69,0,0
1,note_on,67,73,0
1,note_on,76,88,0
1,note_on,76,0,720
1,note_on,67,0,0
1,note_on,65,57,0
1,note_on,74,68,0
1,note_on,74,0,240
1,note_on,65,0,0
1,note_on,64,51,0
1,note_on,72,60,0
1,note_on,72,0,480
1,note_on,64,0,0
1,note_on,58,44,0
1,note_on,70,52,0
1,note_on,70,0,480
1,note_on,58,0,0
1,note_on,57,49,0
1,note_on,69,58,0
1,note_on,69,0,480
1,note_on,57,0,0
1,note_on,61,39,0
1,note_on,67,46,0
1,note_on,67,0,480
1,note_on,61,0,0
1,note_on,62,45,0
1,note_on,65,53,0
1,note_on,65,0,480
1,note_on,62,0,0
1,note_on,53,40,0
1,note_on,55,40,0
1,note_on,62,48,0
1,note_on,62,0,480
1,note_on,55,0,0
1,note_on,53,0,0
1,note_on,53,32,480
1,note_on,57,32,0
1,note_on,60,38,0
1,note_on,60,0,240
1,note_on,57,0,0
1,note_on,53,0,0
1,note_on,48,31,720
1,note_on,52,31,0
1,note_on,55,31,0
1,note_on,60,37,0
1,note_on,60,0,240
1,note_on,48,0,0
1,note_on,52,0,0
1,note_on,55,0,0
1,note_on,57,35,720
1,note_on,53,29,0
1,note_on,48,29,0
1,note_on,48,0,450
1,note_on,53,0,0
1,note_on,57,0,0
1,note_on,65,55,270
1,note_on,69,66,0
1,note_on,69,0,480
1,note_on,65,0,0
1,note_on,65,43,0
1,note_on,69,51,0
1,note_on,69,0,120
1,note_on,65,0,0
1,note_on,62,41,360
1,note_on,65,49,0
1,note_on,65,0,120
1,note_on,62,0,0
1,note_on,58,38,360
1,note_on,62,45,0
1,note_on,62,0,120
1,note_on,58,0,0
1,note_on,67,60,360
1,note_on,70,73,0
1,note_on,70,0,480
1,note_on,67,0,0
1,note_on,65,43,0
1,note_on,69,51,0
1,note_on,69,0,120
1,note_on,65,0,0
1,note_on,64,41,360
1,note_on,67,49,0
1,note_on,67,0,120
1,note_on,64,0,0
1,note_on,60,38,360
1,note_on,64,45,0
1,note_on,64,0,120
1,note_on,60,0,0
1,note_on,69,60,360
1,note_on,72,72,0
1,note_on,72,0,480
1,note_on,69,0,0
1,note_on,69,47,0
1,note_on,72,56,0
1,note_on,72,0,120
1,note_on,69,0,0
1,note_on,65,45,360
1,note_on,69,53,0
1,note_on,69,0,120
1,note_on,65,0,0
1,note_on,62,41,360
1,note_on,65,49,0
1,note_on,65,0,120
1,note_on,62,0,0
1,note_on,70,68,360
1,note_on,74,84,0
1,note_on,74,0,480
1,note_on,70,0,0
1,note_on,69,49,0
1,note_on,72,58,0
1,note_on,72,0,120
1,note_on,69,0,0
1,note_on,67,47,360
1,note_on,70,55,0
1,note_on,70,0,120
1,note_on,67,0,0
1,note_on,64,43,360
1,note_on,67,51,0
1,note_on,67,0,120
1,note_on,64,0,0
1,note_on,70,79,360
1,note_on,79,96,0
1,note_on,79,0,480
1,note_on,70,0,0
1,note_on,69,56,0
1,note_on,77,67,0
1,note_on,77,0,120
1,note_on,69,0,0
1,note_on,67,79,360
1,note_on,76,96,0
1,note_on,76,0,480
1,note_on,67,0,0
1,note_on,65,56,0
1,note_on,74,67,0
1,note_on,74,0,120
1,note_on,65,0,0
1,note_on,64,44,360
1,note_on,72,52,0
1,note_on,72,0,120
1,note_on,64,0,0
1,note_on,58,39,360
1,note_on,70,46,0
1,note_on,70,0,120
1,note_on,58,0,0
1,note_on,69,54,120
1,note_on,69,0,120
1,note_on,57,46,0
1,note_on,57,0,120
1,note_on,61,43,0
1,note_on,61,0,120
1,note_on,64,43,0
1,note_on,64,0,120
1,note_on,69,53,0
1,note_on,69,0,120
1,note_on,73,42,0
1,note_on,73,0,120
1,note_on,76,42,0
1,note_on,76,0,120
1,note_on,80,42,0
1,note_on,80,0,120
1,note_on,81,49,0
1,note_on,81,0,120
1,note_on,80,39,0
1,note_on,80,0,120
1,note_on,81,42,0
1,note_on,81,0,120
1,note_on,80,38,0
1,note_on,80,0,120
1,note_on,81,48,0
1,note_on,81,0,120
1,note_on,76,38,0
1,note_on,76,0,120
1,note_on,73,38,0
1,note_on,73,0,120
1,note_on,69,38,0
1,note_on,69,0,120
1,note_on,57,46,120
1,note_on,57,0,120
1,note_on,62,43,0
1,note_on,62,0,120
1,note_on,65,43,0
1,note_on,65,0,120
1,note_on,69,53,0
1,note_on,69,0,120
1,note_on,74,42,0
1,note_on,74,0,120
1,note_on,77,42,0
1,note_on,77,0,120
1,note_on,80,42,0
1,note_on,80,0,120
1,note_on,81,49,0
1,note_on,81,0,120
1,note_on,80,39,0
1,note_on,80,0,120
1,note_on,81,42,0
1,note_on,81,0,120
1,note_on,80,38,0
1,note_on,80,0,120
1,note_on,81,48,0
1,note_on,81,0,120
1,note_on,77,38,0
1,note_on,77,0,120
1,note_on,74,38,0
1,note_on,74,0,120
1,note_on,69,38,0
1,note_on,69,0,120
1,note_on,56,46,120
1,note_on,56,0,120
1,note_on,59,43,0
1,note_on,59,0,120
1,note_on,62,43,0
1,note_on,62,0,120
1,note_on,65,50,0
1,note_on,65,0,120
1,note_on,68,42,0
1,note_on,68,0,120
1,note_on,71,42,0
1,note_on,71,0,120
1,note_on,74,42,0
1,note_on,74,0,120
1,note_on,77,49,0
1,note_on,77,0,120
1,note_on,74,41,0
1,note_on,74,0,120
1,note_on,80,48,0
1,note_on,80,0,120
1,note_on,77,41,0
1,note_on,77,0,120
1,note_on,74,48,0
1,note_on,74,0,120
1,note_on,71,45,0
1,note_on,71,0,120
1,note_on,68,42,0
1,note_on,68,0,120
1,note_on,65,39,0
1,note_on,65,0,120
1,note_on,64,48,120
1,note_on,64,0,120
1,note_on,67,50,0
1,note_on,67,0,120
1,note_on,70,51,0
1,note_on,70,0,120
1,note_on,73,53,0
1,note_on,73,0,120
1,note_on,76,55,0
1,note_on,76,0,120
1,note_on,79,57,0
1,note_on,79,0,120
1,note_on,82,59,0
1,note_on,82,0,120
1,note_on,85,65,0
1,note_on,85,0,120
1,note_on,88,57,0
1,note_on,88,0,120
1,note_on,76,64,0
1,note_on,76,0,120
1,note_on,88,56,0
1,note_on,88,0,120
1,note_on,76,64,0
1,note_on,76,0,120
1,note_on,88,58,0
1,note_on,88,0,120
1,note_on,76,64,0
1,note_on,76,0,120
1,note_on,88,59,0
1,note_on,88,0,120
1,note_on,77,74,0
1,note_on,77,0,120
1,note_on,89,59,0
1,note_on,89,0,120
1,note_on,76,67,0
1,note_on,76,0,120
1,note_on,88,54,0
1,note_on,88,0,120
1,note_on,77,66,0
1,note_on,77,0,120
1,note_on,89,57,0
1,note_on,89,0,120
1,note_on,70,59,0
1,note_on,70,0,120
1,note_on,82,50,0
1,note_on,82,0,120
1,note_on,69,79,0
1,note_on,69,0,120
1,note_on,81,54,0
1,note_on,81,0,120
1,note_on,76,65,0
1,note_on,76,0,120
1,note_on,88,57,0
1,note_on,88,0,120
1,note_on,77,68,0
1,note_on,77,0,120
1,note_on,89,60,0
1,note_on,89,0,120
1,note_on,70,67,0
1,note_on,70,0,120
1,note_on,82,58,0
1,note_on,82,0,120
1,note_on,69,81,0
1,note_on,69,0,120
1,note_on,81,58,0
1,note_on,81,0,120
1,note_on,76,64,0
1,note_on,76,0,120
1,note_on,88,59,0
1,note_on,88,0,120
1,note_on,77,67,0
1,note_on,77,0,120
1,note_on,89,55,0
1,note_on,89,0,120
1,note_on,70,62,0
1,note_on,70,0,120
1,note_on,82,51,0
1,note_on,82,0,120
1,note_on,69,72,0
1,note_on,69,0,120
1,note_on,81,52,0
1,note_on,81,0,120
1,note_on,76,64,0
1,note_on,76,0,120
1,note_on,88,54,0
1,note_on,88,0,120
1,note_on,77,64,0
1,note_on,77,0,120
1,note_on,89,51,0
1,note_on,89,0,120
1,note_on,70,60,0
1,note_on,70,0,120
1,note_on,82,51,0
1,note_on,82,0,120
1,note_on,69,83,0
1,note_on,69,0,120
1,note_on,81,53,0
1,note_on,81,0,120
1,note_on,67,62,0
1,note_on,67,0,120
1,note_on,79,54,0
1,note_on,79,0,120
1,note_on,65,62,0
1,note_on,65,0,120
1,note_on,77,54,0
1,note_on,77,0,120
1,note_on,64,62,0
1,note_on,64,0,120
1,note_on,76,53,0
1,note_on,76,0,120
1,note_on,62,81,0
1,note_on,62,0,120
1,note_on,74,53,0
1,note_on,74,0,120
1,note_on,60,60,0
1,note_on,60,0,120
1,note_on,72,52,0
1,note_on,72,0,120
1,note_on,58,59,0
1,note_on,58,0,120
1,note_on,70,52,0
1,note_on,70,0,120
1,note_on,57,59,0
1,note_on,57,0,120
1,note_on,69,50,0
1,note_on,69,0,120
1,note_on,55,79,0
1,note_on,55,0,120
1,note_on,67,50,0
1,note_on,67,0,120
1,note_on,53,59,0
1,note_on,53,0,120
1,note_on,65,49,0
1,note_on,65,0,120
1,note_on,52,59,0
1,note_on,52,0,120
1,note_on,64,49,0
1,note_on,64,0,120
1,note_on,50,59,0
1,note_on,50,0,120
1,note_on,62,51,0
1,note_on,62,0,120
1,note_on,48,79,0
1,note_on,48,0,120
1,note_on,60,49,0
1,note_on,60,0,120
1,note_on,46,59,0
1,note_on,46,0,120
1,note_on,58,50,0
1,note_on,58,0,120
1,note_on,45,59,0
1,note_on,45,0,120
1,note_on,57,48,0
1,note_on,57,0,120
1,note_on,43,58,0
1,note_on,43,0,120
1,note_on,55,49,0
1,note_on,55,0,120
1,note_on,53,76,0
1,note_on,41,64,0
1,note_on,41,0,120
1,note_on,53,0,0
1,note_on,52,49,120
1,note_on,52,0,120
1,note_on,60,42,0
1,note_on,60,0,120
1,note_on,53,49,0
1,note_on,53,0,120
1,note_on,60,41,0
1,note_on,60,0,120
1,note_on,58,49,0
1,note_on,58,0,120
1,note_on,60,42,0
1,note_on,60,0,120
1,note_on,57,49,0
1,note_on,57,0,120
1,note_on,60,41,0
1,note_on,60,0,120
1,note_on,52,49,0
1,note_on,52,0,120
1,note_on,60,42,0
1,note_on,60,0,120
1,note_on,53,49,0
1,note_on,53,0,120
1,note_on,60,43,0
1,note_on,60,0,120
1,note_on,58,49,0
1,note_on,58,0,120
1,note_on,60,40,0
1,note_on,60,0,120
1,note_on,57,49,0
1,note_on,57,0,120
1,note_on,60,41,0
1,note_on,60,0,120
1,note_on,52,49,0
1,note_on,52,0,120
1,note_on,60,42,0
1,note_on,60,0,120
1,note_on,53,49,0
1,note_on,53,0,120
1,note_on,60,43,0
1,note_on,60,0,120
1,note_on,58,49,0
1,note_on,58,0,120
1,note_on,60,40,0
1,note_on,60,0,120
1,note_on,57,56,0
1,note_on,57,0,120
1,note_on,60,45,0
1,note_on,60,0,120
1,note_on,49,60,0
1,note_on,49,0,120
1,note_on,61,52,0
1,note_on,61,0,120
1,note_on,50,61,0
1,note_on,50,0,120
1,note_on,62,49,0
1,note_on,62,0,120
1,note_on,52,67,0
1,note_on,52,0,120
1,note_on,64,60,0
1,note_on,64,0,120
1,note_on,53,71,0
1,note_on,53,0,120
1,note_on,65,62,0
1,note_on,65,0,120
1,note_on,54,70,0
1,note_on,54,0,120
1,note_on,66,64,0
1,note_on,66,0,120
1,note_on,55,70,0
1,note_on,55,0,120
1,note_on,67,64,0
1,note_on,67,0,120
1,note_on,57,74,0
1,note_on,57,0,120
1,note_on,69,65,0
1,note_on,69,0,120
1,note_on,58,82,0
1,note_on,58,0,120
1,note_on,70,71,0
1,note_on,70,0,120
1,note_on,60,79,0
1,note_on,60,0,120
1,note_on,72,70,0
1,note_on,72,0,120
1,note_on,62,83,0
1,note_on,62,0,120
1,note_on,74,72,0
1,note_on,74,0,120
1,note_on,60,81,0
1,note_on,60,0,120
1,note_on,72,69,0
1,note_on,72,0,120
1,note_on,58,84,0
1,note_on,58,0,120
1,note_on,70,69,0
1,note_on,70,0,120
1,note_on,57,81,0
1,note_on,57,0,120
1,note_on,69,69,0
1,note_on,69,0,120
1,note_on,55,79,0
1,note_on,55,0,120
1,note_on,67,69,0
1,note_on,67,0,120
1,note_on,53,78,0
1,note_on,53,0,120
1,note_on,65,65,0
1,note_on,65,0,120
1,note_on,52,79,0
1,note_on,52,0,120
1,note_on,64,69,0
1,note_on,64,0,120
1,note_on,50,77,0
1,note_on,50,0,120
1,note_on,62,65,0
1,note_on,62,0,120
1,note_on,48,77,0
1,note_on,48,0,120
1,note_on,60,67,0
1,note_on,60,0,120
1,note_on,52,75,0
1,note_on,52,0,120
1,note_on,64,66,0
1,note_on,64,0,120
1,note_on,65,79,0
1,note_on,53,79,0
1,note_on,53,0,480
1,note_on,65,0,0
1,note_on,60,40,480
1,note_on,57,34,0
1,note_on,53,39,720
1,note_on,53,0,240
1,note_on,57,0,0
1,note_on,60,0,0
1,note_on,61,46,0
1,note_on,58,39,0
1,note_on,56,40,720
1,note_on,56,0,240
1,note_on,58,0,0
1,note_on,61,0,0
1,note_on,60,32,0
1,note_on,58,32,0
1,note_on,54,45,0
1,note_on,54,0,240
1,note_on,53,40,0
1,note_on,53,0,240
1,note_on,58,0,0
1,note_on,60,0,0
1,note_on,60,33,0
1,note_on,58,33,0
1,note_on,54,46,0
1,note_on,54,0,240
1,note_on,52,40,0
1,note_on,52,0,240
1,note_on,58,0,0
1,note_on,60,0,0
1,note_on,60,46,0
1,note_on,57,39,0
1,note_on,53,39,0
1,note_on,53,0,720
1,note_on,57,0,0
1,note_on,60,0,0
1,note_on,69,52,240
1,note_on,60,52,0
1,note_on,57,44,0
1,note_on,69,0,720
1,note_on,65,50,0
1,note_on,65,0,240
1,note_on,57,0,0
1,note_on,60,0,0
1,note_on,70,52,0
1,note_on,61,59,0
1,note_on,58,50,0
1,note_on,70,0,720
1,note_on,68,52,0
1,note_on,68,0,240
1,note_on,58,0,0
1,note_on,61,0,0
1,note_on,61,41,0
1,note_on,58,41,0
1,note_on,66,58,0
1,note_on,66,0,240
1,note_on,65,52,0
1,note_on,65,0,240
1,note_on,58,0,0
1,note_on,61,0,0
1,note_on,61,42,0
1,note_on,58,42,0
1,note_on,66,59,0
1,note_on,66,0,240
1,note_on,64,52,0
1,note_on,64,0,240
1,note_on,58,0,0
1,note_on,61,0,0
1,note_on,65,59,0
1,note_on,60,50,0
1,note_on,57,50,0
1,note_on,57,0,720
1,note_on,60,0,0
1,note_on,65,0,0
1,note_on,61,37,240
1,note_on,58,37,0
1,note_on,67,53,0
1,note_on,67,0,240
1,note_on,65,46,0
1,note_on,65,0,240
1,note_on,58,0,0
1,note_on,61,0,0
1,note_on,61,36,0
1,note_on,58,36,0
1,note_on,67,51,0
1,note_on,67,0,240
1,note_on,64,44,0
1,note_on,64,0,240
1,note_on,58,0,0
1,note_on,61,0,0
1,note_on,65,49,0
1,note_on,60,42,0
1,note_on,57,42,0
1,note_on,57,0,720
1,note_on,60,0,0
1,note_on,65,0,0
1,note_on,61,30,240
1,note_on,58,30,0
1,note_on,66,43,0
1,note_on,66,0,240
1,note_on,65,39,0
1,note_on,65,0,240
1,note_on,58,0,0
1,note_on,61,0,0
1,note_on,61,31,0
1,note_on,58,31,0
1,note_on,66,44,0
1,note_on,66,0,240
1,note_on,64,39,0
1,note_on,64,0,240
1,note_on,58,0,0
1,note_on,61,0,0
1,note_on,53,74,0
1,note_on,65,88,0
1,note_on,65,0,720
1,note_on,53,0,0
1,note_on,55,67,0
1,note_on,67,79,0
1,note_on,67,0,120
1,note_on,55,0,0
1,note_on,57,74,120
1,note_on,69,89,0
1,note_on,69,0,720
1,note_on,57,0,0
1,note_on,58,68,0
1,note_on,70,81,0
1,note_on,70,0,120
1,note_on,58,0,0
1,note_on,60,77,120
1,note_on,72,91,0
1,note_on,72,0,720
1,note_on,60,0,0
1,note_on,62,62,0
1,note_on,74,74,0
1,note_on,74,0,120
1,note_on,62,0,0
1,note_on,64,71,120
1,note_on,76,84,0
1,note_on,76,0,120
1,note_on,64,0,0
1,note_on,65,68,120
1,note_on,77,81,0
1,note_on,77,0,120
1,note_on,65,0,0
1,note_on,67,74,120
1,note_on,79,87,0
1,note_on,79,0,120
1,note_on,67,0,0
1,note_on,69,69,120
1,note_on,81,83,0
1,note_on,81,0,120
1,note_on,69,0,0
1,note_on,70,81,120
1,note_on,82,96,0
1,note_on,82,0,720
1,note_on,70,0,0
1,note_on,69,71,0
1,note_on,81,84,0
1,note_on,81,0,120
1,note_on,69,0,0
1,note_on,67,78,120
1,note_on,79,94,0
1,note_on,79,0,720
1,note_on,67,0,0
1,note_on,65,70,0
1,note_on,77,83,0
1,note_on,77,0,120
1,note_on,65,0,0
1,note_on,64,78,120
1,note_on,76,92,0
1,note_on,76,0,720
1,note_on,64,0,0
1,note_on,62,62,0
1,note_on,74,74,0
1,note_on,74,0,120
1,note_on,62,0,0
1,note_on,60,70,120
1,note_on,72,83,0
1,note_on,72,0,120
1,note_on,60,0,0
1,note_on,58,66,120
1,note_on,70,78,0
1,note_on,70,0,120
1,note_on,58,0,0
1,note_on,57,70,120
1,note_on,69,83,0
1,note_on,69,0,120
1,note_on,57,0,0
1,note_on,55,64,120
1,note_on,67,77,0
1,note_on,67,0,120
1,note_on,55,0,0
1,note_on,53,78,120
1,note_on,65,90,0
1,note_on,65,0,120
1,note_on,53,0,0
1,note_on,64,53,360
1,note_on,64,0,120
1,note_on,63,45,0
1,note_on,63,0,120
1,note_on,64,53,0
1,note_on,64,0,120
1,note_on,60,43,0
1,note_on,60,0,120
1,note_on,65,57,0
1,note_on,65,0,120
1,note_on,76,53,360
1,note_on,76,0,120
1,note_on,75,45,0
1,note_on,75,0,120
1,note_on,76,53,0
1,note_on,76,0,120
1,note_on,72,43,0
1,note_on,72,0,120
1,note_on,77,57,0
1,note_on,77,0,120
1,note_on,88,91,840
1,note_on,84,77,0
1,note_on,82,77,0
1,note_on,79,77,0
1,note_on,76,77,0
1,note_on,76,0,480
1,note_on,82,0,0
1,note_on,88,0,0
1,note_on,84,0,0
1,note_on,79,0,0
1,note_on,89,97,480
1,note_on,84,82,0
1,note_on,81,82,0
1,note_on,77,82,0
1,note_on,77,0,480
1,note_on,89,0,0
1,note_on,84,0,0
1,note_on,81,0,0
1,note_on,58,42,960
1,note_on,62,50,0
1,note_on,58,0,120
1,note_on,57,40,0
1,note_on,57,0,120
1,note_on,58,45,0
1,note_on,58,0,120
1,note_on,53,39,0
1,note_on,53,0,120
1,note_on,62,0,0
1,note_on,62,35,0
1,note_on,65,42,0
1,note_on,65,0,90
1,note_on,62,0,0
1,note_on,58,32,390
1,note_on,62,38,0
1,note_on,62,0,90
1,note_on,58,0,0
1,note_on,58,42,870
1,note_on,62,50,0
1,note_on,58,0,120
1,note_on,57,40,0
1,note_on,57,0,120
1,note_on,58,45,0
1,note_on,58,0,120
1,note_on,53,39,0
1,note_on,53,0,120
1,note_on,62,0,0
1,note_on,62,35,0
1,note_on,65,42,0
1,note_on,65,0,90
1,note_on,62,0,0
1,note_on,58,32,390
1,note_on,62,38,0
1,note_on,62,0,90
1,note_on,58,0,0
1,note_on,62,50,870
1,note_on,58,42,0
1,note_on,57,40,120
1,note_on,58,0,12
1,note_on,62,0,108
1,note_on,58,46,0
1,note_on,57,0,12
1,note_on,53,40,108
1,note_on,58,0,12
1,note_on,53,0,108
1,note_on,65,53,0
1,note_on,62,44,0
1,note_on,61,42,120
1,note_on,62,0,12
1,note_on,65,0,108
1,note_on,62,49,0
1,note_on,61,0,12
1,note_on,58,42,108
1,note_on,62,0,12
1,note_on,58,0,108
1,note_on,65,47,0
1,note_on,70,56,0
1,note_on,64,45,120
1,note_on,65,0,12
1,note_on,70,0,108
1,note_on,65,51,0
1,note_on,64,0,12
1,note_on,62,45,108
1,note_on,65,0,12
1,note_on,62,0,108
1,note_on,70,49,0
1,note_on,74,59,0
1,note_on,69,47,120
1,note_on,70,0,12
1,note_on,74,0,108
1,note_on,70,54,0
1,note_on,69,0,12
1,note_on,65,47,108
1,note_on,70,0,12
1,note_on,65,0,108
1,note_on,74,52,0
1,note_on,77,62,0
1,note_on,73,50,120
1,note_on,74,0,12
1,note_on,77,0,108
1,note_on,74,57,0
1,note_on,73,0,12
1,note_on,70,49,108
1,note_on,74,0,12
1,note_on,70,0,108
1,note_on,82,72,0
1,note_on,82,0,1440
1,note_on,81,60,0
1,note_on,81,0,120
1,note_on,82,57,0
1,note_on,82,0,120
1,note_on,84,60,0
1,note_on,84,0,120
1,note_on,82,54,0
1,note_on,82,0,120
1,note_on,81,60,0
1,note_on,81,0,240
1,note_on,79,51,0
1,note_on,79,0,240
1,note_on,77,54,0
1,note_on,77,0,240
1,note_on,75,50,0
1,note_on,75,0,240
1,note_on,74,59,0
1,note_on,74,0,240
1,note_on,72,48,0
1,note_on,72,0,240
1,note_on,79,56,0
1,note_on,79,0,240
1,note_on,77,47,0
1,note_on,77,0,240
1,note_on,75,54,0
1,note_on,75,0,480
1,note_on,74,47,0
1,note_on,74,0,480
1,note_on,69,58,480
1,note_on,69,0,120
1,note_on,70,54,0
1,note_on,70,0,120
1,note_on,72,58,0
1,note_on,72,0,120
1,note_on,70,54,0
1,note_on,70,0,120
1,note_on,68,60,0
1,note_on,68,0,240
1,note_on,67,54,0
1,note_on,67,0,240
1,note_on,65,66,0
1,note_on,65,0,240
1,note_on,63,61,0
1,note_on,63,0,240
1,note_on,62,69,0
1,note_on,62,0,240
1,note_on,60,62,0
1,note_on,60,0,240
1,note_on,63,73,0
1,note_on,63,0,240
1,note_on,57,63,0
1,note_on,57,0,240
1,note_on,58,79,0
1,note_on,58,0,120
1,note_on,62,68,120
1,note_on,62,0,120
1,note_on,60,65,0
1,note_on,60,0,120
1,note_on,58,71,0
1,note_on,58,0,120
1,note_on,57,65,0
1,note_on,57,0,120
1,note_on,58,71,0
1,note_on,58,0,120
1,note_on,55,65,0
1,note_on,55,0,120
1,note_on,53,79,0
1,note_on,53,0,120
1,note_on,67,68,120
1,note_on,67,0,120
1,note_on,65,65,0
1,note_on,65,0,120
1,note_on,63,71,0
1,note_on,63,0,120
1,note_on,62,65,0
1,note_on,62,0,120
1,note_on,63,71,0
1,note_on,63,0,120
1,note_on,60,65,0
1,note_on,60,0,120
1,note_on,58,79,0
1,note_on,58,0,120
1,note_on,74,68,120
1,note_on,74,0,120
1,note_on,72,65,0
1,note_on,72,0,120
1,note_on,70,71,0
1,note_on,70,0,120
1,note_on,69,65,0
1,note_on,69,0,120
1,note_on,70,71,0
1,note_on,70,0,120
1,note_on,67,65,0
1,note_on,67,0,120
1,note_on,65,79,0
1,note_on,65,0,120
1,note_on,79,78,120
1,note_on,79,0,120
1,note_on,77,74,0
1,note_on,77,0,120
1,note_on,75,81,0
1,note_on,75,0,120
1,note_on,74,74,0
1,note_on,74,0,120
1,note_on,75,81,0
1,note_on,75,0,120
1,note_on,72,74,0
1,note_on,72,0,120
1,note_on,70,90,0
1,note_on,70,0,120
1,note_on,72,68,120
1,note_on,72,0,120
1,note_on,74,68,0
1,note_on,74,0,120
1,note_on,75,77,0
1,note_on,75,0,120
1,note_on,77,70,0
1,note_on,77,0,120
1,note_on,79,70,0
1,note_on,79,0,120
1,note_on,81,71,0
1,note_on,81,0,120
1,note_on,82,73,0
1,note_on,82,0,30
1,note_on,84,65,0
1,note_on,84,0,30
1,note_on,82,81,0
1,note_on,82,0,60
1,note_on,81,72,0
1,note_on,81,0,120
1,note_on,82,73,0
1,note_on,82,0,120
1,note_on,84,74,0
1,note_on,84,0,120
1,note_on,86,74,0
1,note_on,86,0,30
1,note_on,87,66,0
1,note_on,87,0,30
1,note_on,86,83,0
1,note_on,84,75,60
1,note_on,86,0,60
1,note_on,84,0,60
1,note_on,86,76,0
1,note_on,86,0,120
1,note_on,88,76,0
1,note_on,88,0,120
1,note_on,89,97,0
1,note_on,89,0,120
1,note_on,65,79,360
1,note_on,65,0,120
1,note_on,77,75,4200
1,note_on,71,56,1440
1,note_on,71,0,480
1,note_on,77,0,0
1,note_on,72,44,0
1,note_on,75,53,0
1,note_on,75,0,480
1,note_on,72,0,0
1,note_on,69,41,0
1,note_on,74,49,0
1,note_on,69,0,480
1,note_on,70,55,0
1,note_on,70,0,480
1,note_on,74,0,0
1,note_on,67,41,0
1,note_on,72,49,0
1,note_on,67,0,480
1,note_on,69,55,0
1,note_on,69,0,480
1,note_on,72,0,0
1,note_on,65,42,0
1,note_on,71,50,0
1,note_on,71,0,480
1,note_on,65,0,0
1,note_on,72,68,0
1,note_on,72,0,120
1,note_on,64,34,0
1,note_on,67,40,0
1,note_on,67,0,120
1,note_on,64,0,0
1,note_on,72,62,0
1,note_on,72,0,120
1,note_on,64,33,0
1,note_on,67,39,0
1,note_on,67,0,120
1,note_on,64,0,0
1,note_on,72,64,0
1,note_on,72,0,120
1,note_on,64,34,0
1,note_on,67,41,0
1,note_on,67,0,120
1,note_on,64,0,0
1,note_on,74,68,0
1,note_on,74,0,120
1,note_on,64,34,0
1,note_on,67,40,0
1,note_on,67,0,120
1,note_on,64,0,0
1,note_on,76,62,0
1,note_on,76,0,120
1,note_on,67,38,0
1,note_on,70,45,0
1,note_on,70,0,120
1,note_on,67,0,0
1,note_on,72,68,0
1,note_on,72,0,120
1,note_on,67,38,0
1,note_on,70,45,0
1,note_on,70,0,120
1,note_on,67,0,0
1,note_on,74,68,0
1,note_on,74,0,120
1,note_on,67,38,0
1,note_on,70,45,0
1,note_on,70,0,120
1,note_on,67,0,0
1,note_on,76,70,0
1,note_on,76,0,120
1,note_on,67,38,0
1,note_on,70,45,0
1,note_on,70,0,120
1,note_on,67,0,0
1,note_on,77,68,0
1,note_on,77,0,120
1,note_on,65,34,0
1,note_on,69,40,0
1,note_on,69,0,120
1,note_on,65,0,0
1,note_on,77,62,0
1,note_on,77,0,120
1,note_on,65,33,0
1,note_on,69,39,0
1,note_on,69,0,120
1,note_on,65,0,0
1,note_on,77,64,0
1,note_on,77,0,120
1,note_on,65,34,0
1,note_on,69,41,0
1,note_on,69,0,120
1,note_on,65,0,0
1,note_on,76,68,0
1,note_on,76,0,120
1,note_on,65,34,0
1,note_on,69,40,0
1,note_on,69,0,120
1,note_on,65,0,0
1,note_on,74,62,0
1,note_on,74,0,120
1,note_on,65,38,0
1,note_on,68,45,0
1,note_on,68,0,120
1,note_on,65,0,0
1,note_on,72,68,0
1,note_on,72,0,120
1,note_on,65,38,0
1,note_on,68,45,0
1,note_on,68,0,120
1,note_on,65,0,0
1,note_on,71,68,0
1,note_on,71,0,120
1,note_on,65,38,0
1,note_on,68,45,0
1,note_on,68,0,120
1,note_on,65,0,0
1,note_on,74,70,0
1,note_on,74,0,120
1,note_on,65,38,0
1,note_on,68,45,0
1,note_on,68,0,120
1,note_on,65,0,0
1,note_on,72,68,0
1,note_on,72,0,120
1,note_on,64,34,0
1,note_on,67,40,0
1,note_on,67,0,120
1,note_on,64,0,0
1,note_on,71,62,0
1,note_on,71,0,120
1,note_on,64,33,0
1,note_on,67,39,0
1,note_on,67,0,120
1,note_on,64,0,0
1,note_on,72,64,0
1,note_on,72,0,120
1,note_on,64,34,0
1,note_on,67,41,0
1,note_on,67,0,120
1,note_on,64,0,0
1,note_on,74,68,0
1,note_on,74,0,120
1,note_on,64,34,0
1,note_on,67,40,0
1,note_on,67,0,120
1,note_on,64,0,0
1,note_on,76,62,0
1,note_on,76,0,120
1,note_on,67,38,0
1,note_on,70,45,0
1,note_on,70,0,120
1,note_on,67,0,0
1,note_on,72,68,0
1,note_on,72,0,120
1,note_on,67,38,0
1,note_on,70,45,0
1,note_on,70,0,120
1,note_on,67,0,0
1,note_on,74,68,0
1,note_on,74,0,120
1,note_on,67,38,0
1,note_on,70,45,0
1,note_on,70,0,120
1,note_on,67,0,0
1,note_on,76,70,0
1,note_on,76,0,120
1,note_on,67,38,0
1,note_on,70,45,0
1,note_on,70,0,120
1,note_on,67,0,0
1,note_on,77,68,0
1,note_on,77,0,120
1,note_on,65,34,0
1,note_on,69,40,0
1,note_on,69,0,120
1,note_on,65,0,0
1,note_on,77,62,0
1,note_on,77,0,120
1,note_on,65,33,0
1,note_on,69,39,0
1,note_on,69,0,120
1,note_on,65,0,0
1,note_on,77,64,0
1,note_on,77,0,120
1,note_on,65,34,0
1,note_on,69,41,0
1,note_on,69,0,120
1,note_on,65,0,0
1,note_on,76,68,0
1,note_on,76,0,120
1,note_on,65,34,0
1,note_on,69,40,0
1,note_on,69,0,120
1,note_on,65,0,0
1,note_on,74,62,0
1,note_on,74,0,120
1,note_on,65,38,0
1,note_on,68,45,0
1,note_on,68,0,120
1,note_on,65,0,0
1,note_on,72,68,0
1,note_on,72,0,120
1,note_on,65,38,0
1,note_on,68,45,0
1,note_on,68,0,120
1,note_on,65,0,0
1,note_on,71,68,0
1,note_on,71,0,120
1,note_on,65,38,0
1,note_on,68,45,0
1,note_on,68,0,120
1,note_on,65,0,0
1,note_on,74,70,0
1,note_on,74,0,120
1,note_on,65,38,0
1,note_on,68,45,0
1,note_on,68,0,120
1,note_on,65,0,0
1,note_on,72,78,0
1,note_on,72,0,120
1,note_on,64,38,0
1,note_on,67,45,0
1,note_on,67,0,120
1,note_on,64,0,0
1,note_on,72,68,0
1,note_on,72,0,120
1,note_on,64,38,0
1,note_on,67,45,0
1,note_on,67,0,120
1,note_on,64,0,0
1,note_on,71,68,0
1,note_on,71,0,120
1,note_on,65,38,0
1,note_on,68,45,0
1,note_on,68,0,120
1,note_on,65,0,0
1,note_on,74,70,0
1,note_on,74,0,120
1,note_on,65,38,0
1,note_on,68,45,0
1,note_on,68,0,120
1,note_on,65,0,0
1,note_on,72,76,0
1,note_on,72,0,120
1,note_on,64,38,0
1,note_on,67,45,0
1,note_on,67,0,120
1,note_on,64,0,0
1,note_on,72,68,0
1,note_on,72,0,120
1,note_on,64,38,0
1,note_on,67,45,0
1,note_on,67,0,120
1,note_on,64,0,0
1,note_on,71,68,0
1,note_on,71,0,120
1,note_on,65,38,0
1,note_on,68,45,0
1,note_on,68,0,120
1,note_on,65,0,0
1,note_on,74,70,0
1,note_on,74,0,120
1,note_on,65,38,0
1,note_on,68,45,0
1,note_on,68,0,120
1,note_on,65,0,0
1,note_on,64,59,0
1,note_on,67,59,0
1,note_on,72,70,0
1,note_on,72,0,120
1,note_on,67,0,0
1,note_on,64,0,0
1,note_on,60,35,0
1,note_on,62,40,120
1,note_on,60,0,12
1,note_on,64,35,108
1,note_on,62,0,12
1,note_on,65,40,108
1,note_on,64,0,12
1,note_on,67,35,108
1,note_on,65,0,12
1,note_on,69,40,108
1,note_on,67,0,12
1,note_on,71,33,108
1,note_on,69,0,12
1,note_on,72,40,108
1,note_on,71,0,12
1,note_on,71,33,108
1,note_on,72,0,12
1,note_on,72,40,108
1,note_on,71,0,12
1,note_on,71,33,108
1,note_on,72,0,12
1,note_on,72,40,108
1,note_on,71,0,12
1,note_on,71,34,108
1,note_on,72,0,12
1,note_on,72,40,108
1,note_on,71,0,12
1,note_on,71,33,108
1,note_on,72,0,12
1,note_on,71,0,108
1,note_on,69,38,0
1,note_on,72,43,0
1,note_on,72,0,960
1,note_on,69,0,0
1,note_on,69,49,0
1,note_on,69,0,480
1,note_on,77,47,0
1,note_on,77,0,480
1,note_on,69,41,0
1,note_on,72,49,0
1,note_on,72,0,480
1,note_on,69,0,0
1,note_on,81,43,0
1,note_on,77,36,0
1,note_on,77,0,480
1,note_on,81,0,0
1,note_on,69,42,0
1,note_on,72,50,0
1,note_on,72,0,480
1,note_on,69,0,0
1,note_on,84,43,0
1,note_on,81,36,0
1,note_on,81,0,480
1,note_on,84,0,0
1,note_on,69,38,0
1,note_on,72,43,0
1,note_on,72,0,960
1,note_on,69,0,0
1,note_on,69,49,0
1,note_on,69,0,480
1,note_on,77,46,0
1,note_on,77,0,480
1,note_on,69,41,0
1,note_on,72,49,0
1,note_on,72,0,480
1,note_on,69,0,0
1,note_on,81,43,0
1,note_on,77,36,0
1,note_on,77,0,480
1,note_on,81,0,0
1,note_on,69,42,0
1,note_on,72,50,0
1,note_on,72,0,480
1,note_on,69,0,0
1,note_on,84,43,0
1,note_on,81,36,0
1,note_on,81,0,480
1,note_on,84,0,0
1,note_on,69,41,0
1,note_on,72,41,0
1,note_on,74,49,0
1,note_on,78,49,0
1,note_on,78,0,960
1,note_on,69,0,0
1,note_on,72,0,0
1,note_on,74,0,0
1,note_on,78,70,1440
1,note_on,78,0,480
1,note_on,81,68,0
1,note_on,81,0,480
1,note_on,84,66,0
1,note_on,78,72,480
1,note_on,84,0,480
1,note_on,82,73,0
1,note_on,78,0,480
1,note_on,79,75,0
1,note_on,73,66,480
1,note_on,73,0,480
1,note_on,72,74,0
1,note_on,79,0,480
1,note_on,82,0,0
1,note_on,81,67,0
1,note_on,77,57,0
1,note_on,77,0,480
1,note_on,81,0,0
1,note_on,72,0,0
1,note_on,70,61,0
1,note_on,74,61,0
1,note_on,79,72,0
1,note_on,79,0,480
1,note_on,74,0,0
1,note_on,70,0,0
1,note_on,67,53,0
1,note_on,70,53,0
1,note_on,76,64,0
1,note_on,76,0,480
1,note_on,70,0,0
1,note_on,67,0,0
1,note_on,65,64,0
1,note_on,69,64,0
1,note_on,77,77,0
1,note_on,77,0,240
1,note_on,69,0,0
1,note_on,65,0,0
1,note_on,65,73,720
1,note_on,69,88,0
1,note_on,65,0,950
1,note_on,69,0,10
1,note_on,62,57,0
1,note_on,65,68,0
1,note_on,62,0,470
1,note_on,65,0,10
1,note_on,58,59,0
1,note_on,62,70,0
1,note_on,62,0,240
1,note_on,58,0,0
1,note_on,67,73,240
1,note_on,70,88,0
1,note_on,70,0,720
1,note_on,67,0,0
1,note_on,65,57,0
1,note_on,69,68,0
1,note_on,69,0,240
1,note_on,65,0,0
1,note_on,67,77,0
1,note_on,64,64,0
1,note_on,64,0,470
1,note_on,67,0,10
1,note_on,60,57,0
1,note_on,64,68,0
1,note_on,64,0,240
1,note_on,60,0,0
1,note_on,69,73,240
1,note_on,72,88,0
1,note_on,69,0,950
1,note_on,72,0,10
1,note_on,65,57,0
1,note_on,69,68,0
1,note_on,65,0,470
1,note_on,69,0,10
1,note_on,62,59,0
1,note_on,65,70,0
1,note_on,65,0,240
1,note_on,62,0,0
1,note_on,70,73,240
1,note_on,74,88,0
1,note_on,74,0,720
1,note_on,70,0,0
1,note_on,69,57,0
1,note_on,72,68,0
1,note_on,72,0,240
1,note_on,69,0,0
1,note_on,70,77,0
1,note_on,67,64,0
1,note_on,67,0,470
1,note_on,70,0,10
1,note_on,64,57,0
1,note_on,67,68,0
1,note_on,67,0,240
1,note_on,64,0,0
1,note_on,70,73,240
1,note_on,79,88,0
1,note_on,79,0,720
1,note_on,70,0,0
1,note_on,69,57,0
1,note_on,77,68,0
1,note_on,77,0,240
1,note_on,69,0,0
1,note_on,67,73,0
1,note_on,76,88,0
1,note_on,76,0,720
1,note_on,67,0,0
1,note_on,65,57,0
1,note_on,74,68,0
1,note_on,74,0,240
1,note_on,65,0,0
1,note_on,64,51,0
1,note_on,72,60,0
1,note_on,72,0,480
1,note_on,64,0,0
1,note_on,58,44,0
1,note_on,70,52,0
1,note_on,70,0,480
1,note_on,58,0,0
1,note_on,57,49,0
1,note_on,69,58,0
1,note_on,69,0,480
1,note_on,57,0,0
1,note_on,61,39,0
1,note_on,67,46,0
1,note_on,67,0,480
1,note_on,61,0,0
1,note_on,62,45,0
1,note_on,65,53,0
1,note_on,65,0,480
1,note_on,62,0,0
1,note_on,53,40,0
1,note_on,55,40,0
1,note_on,62,48,0
1,note_on,62,0,480
1,note_on,55,0,0
1,note_on,53,0,0
1,note_on,53,32,480
1,note_on,57,32,0
1,note_on,60,38,0
1,note_on,60,0,240
1,note_on,57,0,0
1,note_on,53,0,0
1,note_on,48,31,720
1,note_on,52,31,0
1,note_on,55,31,0
1,note_on,60,37,0
1,note_on,60,0,240
1,note_on,48,0,0
1,note_on,52,0,0
1,note_on,55,0,0
1,note_on,57,35,720
1,note_on,53,29,0
1,note_on,48,29,0
1,note_on,48,0,450
1,note_on,53,0,0
1,note_on,57,0,0
1,note_on,65,55,270
1,note_on,69,66,0
1,note_on,69,0,480
1,note_on,65,0,0
1,note_on,65,43,0
1,note_on,69,51,0
1,note_on,69,0,120
1,note_on,65,0,0
1,note_on,62,41,360
1,note_on,65,49,0
1,note_on,65,0,120
1,note_on,62,0,0
1,note_on,58,38,360
1,note_on,62,45,0
1,note_on,62,0,120
1,note_on,58,0,0
1,note_on,67,60,360
1,note_on,70,73,0
1,note_on,70,0,480
1,note_on,67,0,0
1,note_on,65,43,0
1,note_on,69,51,0
1,note_on,69,0,120
1,note_on,65,0,0
1,note_on,64,41,360
1,note_on,67,49,0
1,note_on,67,0,120
1,note_on,64,0,0
1,note_on,60,38,360
1,note_on,64,45,0
1,note_on,64,0,120
1,note_on,60,0,0
1,note_on,69,60,360
1,note_on,72,72,0
1,note_on,72,0,480
1,note_on,69,0,0
1,note_on,69,47,0
1,note_on,72,56,0
1,note_on,72,0,120
1,note_on,69,0,0
1,note_on,65,45,360
1,note_on,69,53,0
1,note_on,69,0,120
1,note_on,65,0,0
1,note_on,62,41,360
1,note_on,65,49,0
1,note_on,65,0,120
1,note_on,62,0,0
1,note_on,70,68,360
1,note_on,74,84,0
1,note_on,74,0,480
1,note_on,70,0,0
1,note_on,69,49,0
1,note_on,72,58,0
1,note_on,72,0,120
1,note_on,69,0,0
1,note_on,67,47,360
1,note_on,70,55,0
1,note_on,70,0,120
1,note_on,67,0,0
1,note_on,64,43,360
1,note_on,67,51,0
1,note_on,67,0,120
1,note_on,64,0,0
1,note_on,70,79,360
1,note_on,79,96,0
1,note_on,79,0,480
1,note_on,70,0,0
1,note_on,69,56,0
1,note_on,77,67,0
1,note_on,77,0,120
1,note_on,69,0,0
1,note_on,67,79,360
1,note_on,76,96,0
1,note_on,76,0,480
1,note_on,67,0,0
1,note_on,65,56,0
1,note_on,74,67,0
1,note_on,74,0,120
1,note_on,65,0,0
1,note_on,64,44,360
1,note_on,72,52,0
1,note_on,72,0,120
1,note_on,64,0,0
1,note_on,58,39,360
1,note_on,70,46,0
1,note_on,70,0,120
1,note_on,58,0,0
1,note_on,69,54,120
1,note_on,69,0,120
1,note_on,57,46,0
1,note_on,57,0,120
1,note_on,61,43,0
1,note_on,61,0,120
1,note_on,64,43,0
1,note_on,64,0,120
1,note_on,69,53,0
1,note_on,69,0,120
1,note_on,73,42,0
1,note_on,73,0,120
1,note_on,76,42,0
1,note_on,76,0,120
1,note_on,80,42,0
1,note_on,80,0,120
1,note_on,81,49,0
1,note_on,81,0,120
1,note_on,80,39,0
1,note_on,80,0,120
1,note_on,81,42,0
1,note_on,81,0,120
1,note_on,80,38,0
1,note_on,80,0,120
1,note_on,81,48,0
1,note_on,81,0,120
1,note_on,76,38,0
1,note_on,76,0,120
1,note_on,73,38,0
1,note_on,73,0,120
1,note_on,69,38,0
1,note_on,69,0,120
1,note_on,57,46,120
1,note_on,57,0,120
1,note_on,62,43,0
1,note_on,62,0,120
1,note_on,65,43,0
1,note_on,65,0,120
1,note_on,69,53,0
1,note_on,69,0,120
1,note_on,74,42,0
1,note_on,74,0,120
1,note_on,77,42,0
1,note_on,77,0,120
1,note_on,80,42,0
1,note_on,80,0,120
1,note_on,81,49,0
1,note_on,81,0,120
1,note_on,80,39,0
1,note_on,80,0,120
1,note_on,81,42,0
1,note_on,81,0,120
1,note_on,80,38,0
1,note_on,80,0,120
1,note_on,81,48,0
1,note_on,81,0,120
1,note_on,77,38,0
1,note_on,77,0,120
1,note_on,74,38,0
1,note_on,74,0,120
1,note_on,69,38,0
1,note_on,69,0,120
1,note_on,56,46,120
1,note_on,56,0,120
1,note_on,59,43,0
1,note_on,59,0,120
1,note_on,62,43,0
1,note_on,62,0,120
1,note_on,65,50,0
1,note_on,65,0,120
1,note_on,68,42,0
1,note_on,68,0,120
1,note_on,71,42,0
1,note_on,71,0,120
1,note_on,74,42,0
1,note_on,74,0,120
1,note_on,77,49,0
1,note_on,77,0,120
1,note_on,74,41,0
1,note_on,74,0,120
1,note_on,80,48,0
1,note_on,80,0,120
1,note_on,77,41,0
1,note_on,77,0,120
1,note_on,74,48,0
1,note_on,74,0,120
1,note_on,71,45,0
1,note_on,71,0,120
1,note_on,68,42,0
1,note_on,68,0,120
1,note_on,65,39,0
1,note_on,65,0,120
1,note_on,64,48,120
1,note_on,64,0,120
1,note_on,67,50,0
1,note_on,67,0,120
1,note_on,70,51,0
1,note_on,70,0,120
1,note_on,73,53,0
1,note_on,73,0,120
1,note_on,76,55,0
1,note_on,76,0,120
1,note_on,79,57,0
1,note_on,79,0,120
1,note_on,82,59,0
1,note_on,82,0,120
1,note_on,85,65,0
1,note_on,85,0,120
1,note_on,88,57,0
1,note_on,88,0,120
1,note_on,76,64,0
1,note_on,76,0,120
1,note_on,88,56,0
1,note_on,88,0,120
1,note_on,76,64,0
1,note_on,76,0,120
1,note_on,88,58,0
1,note_on,88,0,120
1,note_on,76,64,0
1,note_on,76,0,120
1,note_on,88,59,0
1,note_on,88,0,120
1,note_on,77,74,0
1,note_on,77,0,120
1,note_on,89,59,0
1,note_on,89,0,120
1,note_on,76,67,0
1,note_on,76,0,120
1,note_on,88,54,0
1,note_on,88,0,120
1,note_on,77,66,0
1,note_on,77,0,120
1,note_on,89,57,0
1,note_on,89,0,120
1,note_on,70,59,0
1,note_on,70,0,120
1,note_on,82,50,0
1,note_on,82,0,120
1,note_on,69,79,0
1,note_on,69,0,120
1,note_on,81,54,0
1,note_on,81,0,120
1,note_on,76,65,0
1,note_on,76,0,120
1,note_on,88,57,0
1,note_on,88,0,120
1,note_on,77,68,0
1,note_on,77,0,120
1,note_on,89,60,0
1,note_on,89,0,120
1,note_on,70,67,0
1,note_on,70,0,120
1,note_on,82,58,0
1,note_on,82,0,120
1,note_on,69,81,0
1,note_on,69,0,120
1,note_on,81,58,0
1,note_on,81,0,120
1,note_on,76,64,0
1,note_on,76,0,120
1,note_on,88,59,0
1,note_on,88,0,120
1,note_on,77,67,0
1,note_on,77,0,120
1,note_on,89,55,0
1,note_on,89,0,120
1,note_on,70,62,0
1,note_on,70,0,120
1,note_on,82,51,0
1,note_on,82,0,120
1,note_on,69,72,0
1,note_on,69,0,120
1,note_on,81,52,0
1,note_on,81,0,120
1,note_on,76,64,0
1,note_on,76,0,120
1,note_on,88,54,0
1,note_on,88,0,120
1,note_on,77,64,0
1,note_on,77,0,120
1,note_on,89,51,0
1,note_on,89,0,120
1,note_on,70,60,0
1,note_on,70,0,120
1,note_on,82,51,0
1,note_on,82,0,120
1,note_on,69,83,0
1,note_on,69,0,120
1,note_on,81,53,0
1,note_on,81,0,120
1,note_on,67,62,0
1,note_on,67,0,120
1,note_on,79,54,0
1,note_on,79,0,120
1,note_on,65,62,0
1,note_on,65,0,120
1,note_on,77,54,0
1,note_on,77,0,120
1,note_on,64,62,0
1,note_on,64,0,120
1,note_on,76,53,0
1,note_on,76,0,120
1,note_on,62,81,0
1,note_on,62,0,120
1,note_on,74,53,0
1,note_on,74,0,120
1,note_on,60,60,0
1,note_on,60,0,120
1,note_on,72,52,0
1,note_on,72,0,120
1,note_on,58,59,0
1,note_on,58,0,120
1,note_on,70,52,0
1,note_on,70,0,120
1,note_on,57,59,0
1,note_on,57,0,120
1,note_on,69,50,0
1,note_on,69,0,120
1,note_on,55,79,0
1,note_on,55,0,120
1,note_on,67,50,0
1,note_on,67,0,120
1,note_on,53,59,0
1,note_on,53,0,120
1,note_on,65,49,0
1,note_on,65,0,120
1,note_on,52,59,0
1,note_on,52,0,120
1,note_on,64,49,0
1,note_on,64,0,120
1,note_on,50,59,0
1,note_on,50,0,120
1,note_on,62,51,0
1,note_on,62,0,120
1,note_on,48,79,0
1,note_on,48,0,120
1,note_on,60,49,0
1,note_on,60,0,120
1,note_on,46,59,0
1,note_on,46,0,120
1,note_on,58,50,0
1,note_on,58,0,120
1,note_on,45,59,0
1,note_on,45,0,120
1,note_on,57,48,0
1,note_on,57,0,120
1,note_on,43,58,0
1,note_on,43,0,120
1,note_on,55,49,0
1,note_on,55,0,120
1,note_on,53,76,0
1,note_on,41,64,0
1,note_on,41,0,120
1,note_on,53,0,0
1,note_on,52,49,120
1,note_on,52,0,120
1,note_on,60,42,0
1,note_on,60,0,120
1,note_on,53,49,0
1,note_on,53,0,120
1,note_on,60,41,0
1,note_on,60,0,120
1,note_on,58,49,0
1,note_on,58,0,120
1,note_on,60,42,0
1,note_on,60,0,120
1,note_on,57,49,0
1,note_on,57,0,120
1,note_on,60,41,0
1,note_on,60,0,120
1,note_on,52,49,0
1,note_on,52,0,120
1,note_on,60,42,0
1,note_on,60,0,120
1,note_on,53,49,0
1,note_on,53,0,120
1,note_on,60,43,0
1,note_on,60,0,120
1,note_on,58,49,0
1,note_on,58,0,120
1,note_on,60,40,0
1,note_on,60,0,120
1,note_on,57,49,0
1,note_on,57,0,120
1,note_on,60,41,0
1,note_on,60,0,120
1,note_on,52,49,0
1,note_on,52,0,120
1,note_on,60,42,0
1,note_on,60,0,120
1,note_on,53,49,0
1,note_on,53,0,120
1,note_on,60,43,0
1,note_on,60,0,120
1,note_on,58,49,0
1,note_on,58,0,120
1,note_on,60,40,0
1,note_on,60,0,120
1,note_on,57,56,0
1,note_on,57,0,120
1,note_on,60,45,0
1,note_on,60,0,120
1,note_on,49,60,0
1,note_on,49,0,120
1,note_on,61,52,0
1,note_on,61,0,120
1,note_on,50,61,0
1,note_on,50,0,120
1,note_on,62,49,0
1,note_on,62,0,120
1,note_on,52,67,0
1,note_on,52,0,120
1,note_on,64,60,0
1,note_on,64,0,120
1,note_on,53,71,0
1,note_on,53,0,120
1,note_on,65,62,0
1,note_on,65,0,120
1,note_on,54,70,0
1,note_on,54,0,120
1,note_on,66,64,0
1,note_on,66,0,120
1,note_on,55,70,0
1,note_on,55,0,120
1,note_on,67,64,0
1,note_on,67,0,120
1,note_on,57,74,0
1,note_on,57,0,120
1,note_on,69,65,0
1,note_on,69,0,120
1,note_on,58,82,0
1,note_on,58,0,120
1,note_on,70,71,0
1,note_on,70,0,120
1,note_on,60,79,0
1,note_on,60,0,120
1,note_on,72,70,0
1,note_on,72,0,120
1,note_on,62,83,0
1,note_on,62,0,120
1,note_on,74,72,0
1,note_on,74,0,120
1,note_on,60,81,0
1,note_on,60,0,120
1,note_on,72,69,0
1,note_on,72,0,120
1,note_on,58,84,0
1,note_on,58,0,120
1,note_on,70,69,0
1,note_on,70,0,120
1,note_on,57,81,0
1,note_on,57,0,120
1,note_on,69,69,0
1,note_on,69,0,120
1,note_on,55,79,0
1,note_on,55,0,120
1,note_on,67,69,0
1,note_on,67,0,120
1,note_on,53,78,0
1,note_on,53,0,120
1,note_on,65,65,0
1,note_on,65,0,120
1,note_on,52,79,0
1,note_on,52,0,120
1,note_on,64,69,0
1,note_on,64,0,120
1,note_on,50,77,0
1,note_on,50,0,120
1,note_on,62,65,0
1,note_on,62,0,120
1,note_on,48,77,0
1,note_on,48,0,120
1,note_on,60,67,0
1,note_on,60,0,120
1,note_on,52,75,0
1,note_on,52,0,120
1,note_on,64,66,0
1,note_on,64,0,120
1,note_on,65,79,0
1,note_on,53,79,0
1,note_on,53,0,480
1,note_on,65,0,0
1,note_on,60,40,480
1,note_on,57,34,0
1,note_on,53,39,720
1,note_on,53,0,240
1,note_on,57,0,0
1,note_on,60,0,0
1,note_on,61,46,0
1,note_on,58,39,0
1,note_on,56,40,720
1,note_on,56,0,240
1,note_on,58,0,0
1,note_on,61,0,0
1,note_on,60,32,0
1,note_on,58,32,0
1,note_on,54,45,0
1,note_on,54,0,240
1,note_on,53,40,0
1,note_on,53,0,240
1,note_on,58,0,0
1,note_on,60,0,0
1,note_on,60,33,0
1,note_on,58,33,0
1,note_on,54,46,0
1,note_on,54,0,240
1,note_on,52,40,0
1,note_on,52,0,240
1,note_on,58,0,0
1,note_on,60,0,0
1,note_on,60,46,0
1,note_on,57,39,0
1,note_on,53,39,0
1,note_on,53,0,720
1,note_on,57,0,0
1,note_on,60,0,0
1,note_on,69,52,240
1,note_on,60,52,0
1,note_on,57,44,0
1,note_on,69,0,720
1,note_on,65,50,0
1,note_on,65,0,240
1,note_on,57,0,0
1,note_on,60,0,0
1,note_on,70,52,0
1,note_on,61,59,0
1,note_on,58,50,0
1,note_on,70,0,720
1,note_on,68,52,0
1,note_on,68,0,240
1,note_on,58,0,0
1,note_on,61,0,0
1,note_on,61,41,0
1,note_on,58,41,0
1,note_on,66,58,0
1,note_on,66,0,240
1,note_on,65,52,0
1,note_on,65,0,240
1,note_on,58,0,0
1,note_on,61,0,0
1,note_on,61,42,0
1,note_on,58,42,0
1,note_on,66,59,0
1,note_on,66,0,240
1,note_on,64,52,0
1,note_on,64,0,240
1,note_on,58,0,0
1,note_on,61,0,0
1,note_on,65,59,0
1,note_on,60,50,0
1,note_on,57,50,0
1,note_on,57,0,720
1,note_on,60,0,0
1,note_on,65,0,0
1,note_on,61,37,240
1,note_on,58,37,0
1,note_on,67,53,0
1,note_on,67,0,240
1,note_on,65,46,0
1,note_on,65,0,240
1,note_on,58,0,0
1,note_on,61,0,0
1,note_on,61,36,0
1,note_on,58,36,0
1,note_on,67,51,0
1,note_on,67,0,240
1,note_on,64,44,0
1,note_on,64,0,240
1,note_on,58,0,0
1,note_on,61,0,0
1,note_on,65,49,0
1,note_on,60,42,0
1,note_on,57,42,0
1,note_on,57,0,720
1,note_on,60,0,0
1,note_on,65,0,0
1,note_on,61,30,240
1,note_on,58,30,0
1,note_on,66,43,0
1,note_on,66,0,240
1,note_on,65,39,0
1,note_on,65,0,240
1,note_on,58,0,0
1,note_on,61,0,0
1,note_on,61,31,0
1,note_on,58,31,0
1,note_on,66,44,0
1,note_on,66,0,240
1,note_on,64,39,0
1,note_on,64,0,240
1,note_on,58,0,0
1,note_on,61,0,0
1,note_on,53,74,0
1,note_on,65,88,0
1,note_on,65,0,720
1,note_on,53,0,0
1,note_on,55,67,0
1,note_on,67,79,0
1,note_on,67,0,120
1,note_on,55,0,0
1,note_on,57,74,120
1,note_on,69,89,0
1,note_on,69,0,720
1,note_on,57,0,0
1,note_on,58,68,0
1,note_on,70,81,0
1,note_on,70,0,120
1,note_on,58,0,0
1,note_on,60,77,120
1,note_on,72,91,0
1,note_on,72,0,720
1,note_on,60,0,0
1,note_on,62,62,0
1,note_on,74,74,0
1,note_on,74,0,120
1,note_on,62,0,0
1,note_on,64,71,120
1,note_on,76,84,0
1,note_on,76,0,120
1,note_on,64,0,0
1,note_on,65,68,120
1,note_on,77,81,0
1,note_on,77,0,120
1,note_on,65,0,0
1,note_on,67,74,120
1,note_on,79,87,0
1,note_on,79,0,120
1,note_on,67,0,0
1,note_on,69,69,120
1,note_on,81,83,0
1,note_on,81,0,120
1,note_on,69,0,0
1,note_on,70,81,120
1,note_on,82,96,0
1,note_on,82,0,720
1,note_on,70,0,0
1,note_on,69,71,0
1,note_on,81,84,0
1,note_on,81,0,120
1,note_on,69,0,0
1,note_on,67,78,120
1,note_on,79,94,0
1,note_on,79,0,720
1,note_on,67,0,0
1,note_on,65,70,0
1,note_on,77,83,0
1,note_on,77,0,120
1,note_on,65,0,0
1,note_on,64,78,120
1,note_on,76,92,0
1,note_on,76,0,720
1,note_on,64,0,0
1,note_on,62,62,0
1,note_on,74,74,0
1,note_on,74,0,120
1,note_on,62,0,0
1,note_on,60,70,120
1,note_on,72,83,0
1,note_on,72,0,120
1,note_on,60,0,0
1,note_on,58,66,120
1,note_on,70,78,0
1,note_on,70,0,120
1,note_on,58,0,0
1,note_on,57,70,120
1,note_on,69,83,0
1,note_on,69,0,120
1,note_on,57,0,0
1,note_on,55,64,120
1,note_on,67,77,0
1,note_on,67,0,120
1,note_on,55,0,0
1,note_on,53,78,120
1,note_on,65,90,0
1,note_on,65,0,120
1,note_on,53,0,0
1,note_on,64,53,360
1,note_on,64,0,120
1,note_on,63,45,0
1,note_on,63,0,120
1,note_on,64,53,0
1,note_on,64,0,120
1,note_on,60,43,0
1,note_on,60,0,120
1,note_on,65,57,0
1,note_on,65,0,120
1,note_on,76,53,360
1,note_on,76,0,120
1,note_on,75,45,0
1,note_on,75,0,120
1,note_on,76,53,0
1,note_on,76,0,120
1,note_on,72,43,0
1,note_on,72,0,120
1,note_on,77,57,0
1,note_on,77,0,120
1,note_on,88,91,840
1,note_on,84,77,0
1,note_on,82,77,0
1,note_on,79,77,0
1,note_on,76,77,0
1,note_on,76,0,480
1,note_on,82,0,0
1,note_on,88,0,0
1,note_on,84,0,0
1,note_on,79,0,0
1,note_on,89,97,480
1,note_on,84,82,0
1,note_on,81,82,0
1,note_on,77,82,0
1,note_on,77,0,480
1,note_on,89,0,0
1,note_on,84,0,0
1,note_on,81,0,0
1,note_on,60,42,960
1,note_on,60,0,120
1,note_on,59,40,0
1,note_on,59,0,120
1,note_on,60,45,0
1,note_on,60,0,120
1,note_on,57,39,0
1,note_on,57,0,120
1,note_on,65,50,0
1,note_on,65,0,120
1,note_on,60,42,1320
1,note_on,60,0,120
1,note_on,59,40,0
1,note_on,59,0,120
1,note_on,60,45,0
1,note_on,60,0,120
1,note_on,57,39,0
1,note_on,57,0,120
1,note_on,65,50,0
1,note_on,65,0,120
1,note_on,60,70,1320
1,note_on,60,0,120
1,note_on,59,66,0
1,note_on,59,0,120
1,note_on,60,77,0
1,note_on,60,0,120
1,note_on,57,71,0
1,note_on,57,0,120
1,note_on,65,92,0
1,note_on,65,0,720
1,note_on,67,82,0
1,note_on,67,0,120
1,note_on,69,93,120
1,note_on,69,0,720
1,note_on,70,86,0
1,note_on,70,0,120
1,note_on,72,97,120
1,note_on,72,0,720
1,note_on,74,82,0
1,note_on,74,0,120
1,note_on,75,90,120
1,note_on,75,0,120
1,note_on,74,85,120
1,note_on,74,0,120
1,note_on,72,93,120
1,note_on,72,0,120
1,note_on,74,86,120
1,note_on,74,0,120
1,note_on,75,97,120
1,note_on,75,0,720
1,note_on,74,77,0
1,note_on,74,0,120
1,note_on,72,85,120
1,note_on,72,0,120
1,note_on,70,80,120
1,note_on,70,0,120
1,note_on,69,88,120
1,note_on,69,0,120
1,note_on,70,81,120
1,note_on,70,0,120
1,note_on,72,92,120
1,note_on,72,0,720
1,note_on,70,76,0
1,note_on,70,0,120
1,note_on,69,81,120
1,note_on,69,0,120
1,note_on,67,74,120
1,note_on,67,0,120
1,note_on,66,79,120
1,note_on,66,0,120
1,note_on,64,71,120
1,note_on,64,0,120
1,note_on,62,75,120
1,note_on,62,0,960
1,note_on,57,40,0
1,note_on,60,40,0
1,note_on,66,34,0
1,note_on,66,0,720
1,note_on,62,39,0
1,note_on,62,0,240
1,note_on,60,0,0
1,note_on,57,0,0
1,note_on,55,39,0
1,note_on,67,46,0
1,note_on,58,39,0
1,note_on,67,0,720
1,note_on,65,40,0
1,note_on,65,0,240
1,note_on,58,0,0
1,note_on,55,0,0
1,note_on,58,32,0
1,note_on,55,32,0
1,note_on,63,45,0
1,note_on,63,0,240
1,note_on,62,40,0
1,note_on,62,0,240
1,note_on,55,0,0
1,note_on,58,0,0
1,note_on,58,33,0
1,note_on,55,33,0
1,note_on,63,46,0
1,note_on,63,0,240
1,note_on,61,40,0
1,note_on,61,0,240
1,note_on,55,0,0
1,note_on,58,0,0
1,note_on,62,46,0
1,note_on,57,39,0
1,note_on,54,39,0
1,note_on,54,0,720
1,note_on,57,0,0
1,note_on,62,0,0
1,note_on,78,41,240
1,note_on,69,40,0
1,note_on,72,40,0
1,note_on,78,0,720
1,note_on,74,42,0
1,note_on,74,0,240
1,note_on,72,0,0
1,note_on,69,0,0
1,note_on,79,53,0
1,note_on,67,39,0
1,note_on,70,39,0
1,note_on,79,0,720
1,note_on,77,44,0
1,note_on,77,0,240
1,note_on,70,0,0
1,note_on,67,0,0
1,note_on,70,32,0
1,note_on,67,32,0
1,note_on,75,49,0
1,note_on,75,0,240
1,note_on,74,44,0
1,note_on,74,0,240
1,note_on,67,0,0
1,note_on,70,0,0
1,note_on,70,33,0
1,note_on,67,33,0
1,note_on,75,50,0
1,note_on,75,0,240
1,note_on,73,44,0
1,note_on,73,0,240
1,note_on,67,0,0
1,note_on,70,0,0
1,note_on,74,50,0
1,note_on,69,39,0
1,note_on,66,39,0
1,note_on,66,0,720
1,note_on,69,0,0
1,note_on,74,0,0
1,note_on,70,32,240
1,note_on,67,32,0
1,note_on,76,49,0
1,note_on,76,0,240
1,note_on,74,44,0
1,note_on,74,0,240
1,note_on,67,0,0
1,note_on,70,0,0
1,note_on,70,33,0
1,note_on,67,33,0
1,note_on,76,50,0
1,note_on,76,0,240
1,note_on,73,44,0
1,note_on,73,0,240
1,note_on,67,0,0
1,note_on,70,0,0
1,note_on,74,50,0
1,note_on,69,39,0
1,note_on,66,39,0
1,note_on,66,0,720
1,note_on,69,0,0
1,note_on,74,0,0
1,note_on,70,25,240
1,note_on,67,25,0
1,note_on,75,39,0
1,note_on,75,0,240
1,note_on,74,35,0
1,note_on,74,0,240
1,note_on,67,0,0
1,note_on,70,0,0
1,note_on,70,26,0
1,note_on,67,26,0
1,note_on,75,40,0
1,note_on,75,0,240
1,note_on,73,35,0
1,note_on,73,0,240
1,note_on,67,0,0
1,note_on,70,0,0
1,note_on,74,50,0
1,note_on,69,39,0
1,note_on,66,39,0
1,note_on,66,0,720
1,note_on,69,0,0
1,note_on,74,0,0
1,note_on,75,86,1680
1,note_on,75,0,120
1,note_on,74,75,120
1,note_on,74,0,120
1,note_on,72,84,120
1,note_on,72,0,120
1,note_on,70,74,120
1,note_on,70,0,120
1,note_on,69,84,120
1,note_on,69,0,120
1,note_on,67,75,120
1,note_on,67,0,120
1,note_on,66,84,120
1,note_on,66,0,120
1,note_on,81,61,360
1,note_on,81,0,120
1,note_on,80,50,0
1,note_on,80,0,120
1,note_on,81,54,0
1,note_on,81,0,120
1,note_on,78,50,0
1,note_on,78,0,120
1,note_on,84,61,0
1,note_on,84,0,120
1,note_on,83,50,0
1,note_on,83,0,120
1,note_on,84,54,0
1,note_on,84,0,120
1,note_on,81,50,0
1,note_on,81,0,120
1,note_on,87,63,0
1,note_on,87,0,120
1,note_on,86,50,0
1,note_on,86,0,120
1,note_on,84,57,0
1,note_on,84,0,120
1,note_on,82,50,0
1,note_on,82,0,120
1,note_on,81,58,0
1,note_on,81,0,120
1,note_on,82,50,0
1,note_on,82,0,120
1,note_on,84,59,0
1,note_on,84,0,120
1,note_on,82,49,0
1,note_on,82,0,120
1,note_on,81,58,0
1,note_on,81,0,120
1,note_on,79,50,0
1,note_on,79,0,120
1,note_on,78,55,0
1,note_on,78,0,120
1,note_on,79,50,0
1,note_on,79,0,120
1,note_on,81,60,0
1,note_on,81,0,120
1,note_on,79,47,0
1,note_on,79,0,120
1,note_on,78,53,0
1,note_on,78,0,120
1,note_on,75,46,0
1,note_on,75,0,120
1,note_on,74,64,0
1,note_on,74,0,120
1,note_on,72,51,0
1,note_on,72,0,120
1,note_on,71,57,0
1,note_on,71,0,120
1,note_on,72,52,0
1,note_on,72,0,120
1,note_on,71,72,0
1,note_on,71,0,480
1,note_on,80,81,1920
1,note_on,80,0,120
1,note_on,79,75,120
1,note_on,79,0,120
1,note_on,77,84,120
1,note_on,77,0,120
1,note_on,75,74,120
1,note_on,75,0,120
1,note_on,74,84,120
1,note_on,74,0,120
1,note_on,72,75,120
1,note_on,72,0,120
1,note_on,71,84,120
1,note_on,71,0,120
1,note_on,74,61,360
1,note_on,74,0,120
1,note_on,73,50,0
1,note_on,73,0,120
1,note_on,74,54,0
1,note_on,74,0,120
1,note_on,71,50,0
1,note_on,71,0,120
1,note_on,77,61,0
1,note_on,77,0,120
1,note_on,76,50,0
1,note_on,76,0,120
1,note_on,77,54,0
1,note_on,77,0,120
1,note_on,74,50,0
1,note_on,74,0,120
1,note_on,80,63,0
1,note_on,80,0,120
1,note_on,79,50,0
1,note_on,79,0,120
1,note_on,77,57,0
1,note_on,77,0,120
1,note_on,75,50,0
1,note_on,75,0,120
1,note_on,74,58,0
1,note_on,74,0,120
1,note_on,75,50,0
1,note_on,75,0,120
1,note_on,77,59,0
1,note_on,77,0,120
1,note_on,75,49,0
1,note_on,75,0,120
1,note_on,74,62,0
1,note_on,74,0,120
1,note_on,72,50,0
1,note_on,72,0,120
1,note_on,71,55,0
1,note_on,71,0,120
1,note_on,72,50,0
1,note_on,72,0,120
1,note_on,74,62,0
1,note_on,74,0,120
1,note_on,72,51,0
1,note_on,72,0,120
1,note_on,71,55,0
1,note_on,71,0,120
1,note_on,68,46,0
1,note_on,68,0,120
1,note_on,67,65,0
1,note_on,67,0,120
1,note_on,65,47,0
1,note_on,65,0,120
1,note_on,64,55,0
1,note_on,64,0,120
1,note_on,65,50,0
1,note_on,65,0,120
1,note_on,64,71,0
1,note_on,64,0,480
1,note_on,73,86,1920
1,note_on,73,0,120
1,note_on,72,75,120
1,note_on,72,0,120
1,note_on,70,84,120
1,note_on,70,0,120
1,note_on,68,74,120
1,note_on,68,0,120
1,note_on,67,84,120
1,note_on,67,0,120
1,note_on,65,75,120
1,note_on,65,0,120
1,note_on,64,84,120
1,note_on,64,0,120
1,note_on,79,67,360
1,note_on,79,0,120
1,note_on,78,55,0
1,note_on,78,0,120
1,note_on,79,59,0
1,note_on,79,0,120
1,note_on,76,55,0
1,note_on,76,0,120
1,note_on,82,67,0
1,note_on,82,0,120
1,note_on,81,55,0
1,note_on,81,0,120
1,note_on,82,59,0
1,note_on,82,0,120
1,note_on,79,55,0
1,note_on,79,0,120
1,note_on,85,69,0
1,note_on,85,0,120
1,note_on,84,55,0
1,note_on,84,0,120
1,note_on,85,62,0
1,note_on,85,0,120
1,note_on,84,55,0
1,note_on,84,0,120
1,note_on,85,73,0
1,note_on,85,0,120
1,note_on,82,55,0
1,note_on,82,0,120
1,note_on,79,64,0
1,note_on,79,0,120
1,note_on,76,53,0
1,note_on,76,0,120
1,note_on,82,71,0
1,note_on,82,0,120
1,note_on,79,55,0
1,note_on,79,0,120
1,note_on,76,64,0
1,note_on,76,0,120
1,note_on,73,55,0
1,note_on,73,0,120
1,note_on,79,71,0
1,note_on,79,0,120
1,note_on,76,51,0
1,note_on,76,0,120
1,note_on,73,63,0
1,note_on,73,0,120
1,note_on,70,50,0
1,note_on,70,0,120
1,note_on,76,69,0
1,note_on,76,0,120
1,note_on,73,51,0
1,note_on,73,0,120
1,note_on,70,60,0
1,note_on,70,0,120
1,note_on,67,50,0
1,note_on,67,0,120
1,note_on,77,67,480
1,note_on,77,0,120
1,note_on,76,55,0
1,note_on,76,0,120
1,note_on,77,59,0
1,note_on,77,0,120
1,note_on,72,55,0
1,note_on,72,0,120
1,note_on,80,67,0
1,note_on,80,0,120
1,note_on,79,55,0
1,note_on,79,0,120
1,note_on,80,59,0
1,note_on,80,0,120
1,note_on,77,55,0
1,note_on,77,0,120
1,note_on,84,69,0
1,note_on,84,0,120
1,note_on,83,55,0
1,note_on,83,0,120
1,note_on,84,62,0
1,note_on,84,0,120
1,note_on,80,55,0
1,note_on,80,0,120
1,note_on,89,73,0
1,note_on,89,0,120
1,note_on,84,55,0
1,note_on,84,0,120
1,note_on,80,64,0
1,note_on,80,0,120
1,note_on,77,53,0
1,note_on,77,0,120
1,note_on,84,71,0
1,note_on,84,0,120
1,note_on,80,55,0
1,note_on,80,0,120
1,note_on,77,64,0
1,note_on,77,0,120
1,note_on,72,55,0
1,note_on,72,0,120
1,note_on,80,71,0
1,note_on,80,0,120
1,note_on,77,51,0
1,note_on,77,0,120
1,note_on,72,63,0
1,note_on,72,0,120
1,note_on,68,50,0
1,note_on,68,0,120
1,note_on,77,69,0
1,note_on,77,0,120
1,note_on,72,51,0
1,note_on,72,0,120
1,note_on,68,60,0
1,note_on,68,0,120
1,note_on,65,50,0
1,note_on,65,0,120
1,note_on,77,67,480
1,note_on,77,0,120
1,note_on,76,55,0
1,note_on,76,0,120
1,note_on,77,59,0
1,note_on,77,0,120
1,note_on,74,55,0
1,note_on,74,0,120
1,note_on,83,67,0
1,note_on,83,0,120
1,note_on,82,55,0
1,note_on,82,0,120
1,note_on,83,59,0
1,note_on,83,0,120
1,note_on,77,55,0
1,note_on,77,0,120
1,note_on,86,69,0
1,note_on,86,0,120
1,note_on,85,55,0
1,note_on,85,0,120
1,note_on,86,62,0
1,note_on,86,0,120
1,note_on,83,55,0
1,note_on,83,0,120
1,note_on,89,73,0
1,note_on,89,0,120
1,note_on,86,55,0
1,note_on,86,0,120
1,note_on,83,64,0
1,note_on,83,0,120
1,note_on,77,53,0
1,note_on,77,0,120
1,note_on,86,71,0
1,note_on,86,0,120
1,note_on,83,55,0
1,note_on,83,0,120
1,note_on,77,64,0
1,note_on,77,0,120
1,note_on,74,55,0
1,note_on,74,0,120
1,note_on,83,71,0
1,note_on,83,0,120
1,note_on,77,51,0
1,note_on,77,0,120
1,note_on,74,63,0
1,note_on,74,0,120
1,note_on,71,50,0
1,note_on,71,0,120
1,note_on,77,69,0
1,note_on,77,0,120
1,note_on,74,51,0
1,note_on,74,0,120
1,note_on,71,60,0
1,note_on,71,0,120
1,note_on,65,50,0
1,note_on,65,0,120
1,note_on,75,67,480
1,note_on,75,0,120
1,note_on,74,54,0
1,note_on,74,0,120
1,note_on,75,58,0
1,note_on,75,0,120
1,note_on,72,54,0
1,note_on,72,0,120
1,note_on,79,66,0
1,note_on,79,0,120
1,note_on,78,53,0
1,note_on,78,0,120
1,note_on,79,57,0
1,note_on,79,0,120
1,note_on,75,53,0
1,note_on,75,0,120
1,note_on,84,67,0
1,note_on,84,0,120
1,note_on,83,53,0
1,note_on,83,0,120
1,note_on,84,60,0
1,note_on,84,0,120
1,note_on,79,53,0
1,note_on,79,0,120
1,note_on,87,70,0
1,note_on,87,0,120
1,note_on,84,53,0
1,note_on,84,0,120
1,note_on,81,61,0
1,note_on,81,0,120
1,note_on,75,50,0
1,note_on,75,0,120
1,note_on,84,68,0
1,note_on,84,0,120
1,note_on,81,52,0
1,note_on,81,0,120
1,note_on,75,60,0
1,note_on,75,0,120
1,note_on,72,52,0
1,note_on,72,0,120
1,note_on,81,67,0
1,note_on,81,0,120
1,note_on,75,48,0
1,note_on,75,0,120
1,note_on,72,59,0
1,note_on,72,0,120
1,note_on,69,47,0
1,note_on,69,0,120
1,note_on,75,64,0
1,note_on,75,0,120
1,note_on,72,47,0
1,note_on,72,0,120
1,note_on,69,55,0
1,note_on,69,0,120
1,note_on,63,46,0
1,note_on,63,0,120
1,note_on,75,61,480
1,note_on,75,0,120
1,note_on,74,50,0
1,note_on,74,0,120
1,note_on,75,54,0
1,note_on,75,0,120
1,note_on,72,50,0
1,note_on,72,0,120
1,note_on,81,60,0
1,note_on,81,0,120
1,note_on,80,50,0
1,note_on,80,0,120
1,note_on,81,53,0
1,note_on,81,0,120
1,note_on,75,49,0
1,note_on,75,0,120
1,note_on,84,62,0
1,note_on,84,0,120
1,note_on,83,49,0
1,note_on,83,0,120
1,note_on,84,55,0
1,note_on,84,0,120
1,note_on,81,48,0
1,note_on,81,0,120
1,note_on,87,64,0
1,note_on,87,0,120
1,note_on,84,48,0
1,note_on,84,0,120
1,note_on,81,56,0
1,note_on,81,0,120
1,note_on,75,47,0
1,note_on,75,0,120
1,note_on,84,62,0
1,note_on,84,0,120
1,note_on,81,48,0
1,note_on,81,0,120
1,note_on,75,56,0
1,note_on,75,0,120
1,note_on,72,48,0
1,note_on,72,0,120
1,note_on,81,61,0
1,note_on,81,0,120
1,note_on,75,44,0
1,note_on,75,0,120
1,note_on,72,54,0
1,note_on,72,0,120
1,note_on,69,43,0
1,note_on,69,0,120
1,note_on,75,59,0
1,note_on,75,0,120
1,note_on,72,43,0
1,note_on,72,0,120
1,note_on,69,51,0
1,note_on,69,0,120
1,note_on,63,43,0
1,note_on,63,0,120
1,note_on,73,56,480
1,note_on,73,0,120
1,note_on,72,46,0
1,note_on,72,0,120
1,note_on,73,49,0
1,note_on,73,0,120
1,note_on,70,46,0
1,note_on,70,0,120
1,note_on,77,56,0
1,note_on,77,0,120
1,note_on,76,45,0
1,note_on,76,0,120
1,note_on,77,48,0
1,note_on,77,0,120
1,note_on,73,45,0
1,note_on,73,0,120
1,note_on,82,57,0
1,note_on,82,0,120
1,note_on,81,45,0
1,note_on,81,0,120
1,note_on,82,50,0
1,note_on,82,0,120
1,note_on,77,45,0
1,note_on,77,0,120
1,note_on,85,59,0
1,note_on,85,0,120
1,note_on,82,44,0
1,note_on,82,0,120
1,note_on,79,51,0
1,note_on,79,0,120
1,note_on,73,42,0
1,note_on,73,0,120
1,note_on,82,57,0
1,note_on,82,0,120
1,note_on,79,44,0
1,note_on,79,0,120
1,note_on,73,51,0
1,note_on,73,0,120
1,note_on,70,44,0
1,note_on,70,0,120
1,note_on,79,56,0
1,note_on,79,0,120
1,note_on,73,40,0
1,note_on,73,0,120
1,note_on,70,49,0
1,note_on,70,0,120
1,note_on,67,39,0
1,note_on,67,0,120
1,note_on,73,54,0
1,note_on,73,0,120
1,note_on,70,40,0
1,note_on,70,0,120
1,note_on,67,46,0
1,note_on,67,0,120
1,note_on,61,39,0
1,note_on,61,0,120
1,note_on,73,51,480
1,note_on,73,0,120
1,note_on,72,42,0
1,note_on,72,0,120
1,note_on,73,45,0
1,note_on,73,0,120
1,note_on,70,41,0
1,note_on,70,0,120
1,note_on,79,50,0
1,note_on,79,0,120
1,note_on,78,41,0
1,note_on,78,0,120
1,note_on,79,44,0
1,note_on,79,0,120
1,note_on,73,41,0
1,note_on,73,0,120
1,note_on,82,51,0
1,note_on,82,0,120
1,note_on,81,41,0
1,note_on,81,0,120
1,note_on,82,46,0
1,note_on,82,0,120
1,note_on,79,40,0
1,note_on,79,0,120
1,note_on,85,54,0
1,note_on,85,0,120
1,note_on,82,40,0
1,note_on,82,0,120
1,note_on,79,47,0
1,note_on,79,0,120
1,note_on,73,38,0
1,note_on,73,0,120
1,note_on,82,51,0
1,note_on,82,0,120
1,note_on,79,40,0
1,note_on,79,0,120
1,note_on,73,46,0
1,note_on,73,0,120
1,note_on,70,40,0
1,note_on,70,0,120
1,note_on,79,51,0
1,note_on,79,0,120
1,note_on,73,36,0
1,note_on,73,0,120
1,note_on,70,45,0
1,note_on,70,0,120
1,note_on,67,36,0
1,note_on,67,0,120
1,note_on,73,48,0
1,note_on,73,0,120
1,note_on,70,36,0
1,note_on,70,0,120
1,note_on,67,42,0
1,note_on,67,0,120
1,note_on,61,35,0
1,note_on,61,0,120
1,note_on,70,37,0
1,note_on,70,0,120
1,note_on,67,28,0
1,note_on,67,0,120
1,note_on,61,28,0
1,note_on,61,0,120
1,note_on,58,28,0
1,note_on,58,0,120
1,note_on,67,35,0
1,note_on,67,0,120
1,note_on,61,28,0
1,note_on,61,0,120
1,note_on,58,28,0
1,note_on,58,0,120
1,note_on,55,28,0
1,note_on,55,0,120
1,note_on,63,34,0
1,note_on,63,0,120
1,note_on,61,29,0
1,note_on,61,0,120
1,note_on,58,29,0
1,note_on,58,0,120
1,note_on,55,28,0
1,note_on,55,0,120
1,note_on,63,34,0
1,note_on,63,0,120
1,note_on,61,28,0
1,note_on,61,0,120
1,note_on,58,28,0
1,note_on,58,0,120
1,note_on,55,28,0
1,note_on,55,0,120
1,note_on,63,37,0
1,note_on,63,0,120
1,note_on,61,28,0
1,note_on,61,0,120
1,note_on,58,28,0
1,note_on,58,0,120
1,note_on,55,28,0
1,note_on,55,0,120
1,note_on,63,35,0
1,note_on,63,0,120
1,note_on,61,28,0
1,note_on,61,0,120
1,note_on,58,28,0
1,note_on,58,0,120
1,note_on,55,28,0
1,note_on,55,0,120
1,note_on,63,34,0
1,note_on,63,0,120
1,note_on,61,29,0
1,note_on,61,0,120
1,note_on,58,29,0
1,note_on,58,0,120
1,note_on,55,28,0
1,note_on,55,0,120
1,note_on,63,34,0
1,note_on,63,0,120
1,note_on,61,28,0
1,note_on,61,0,120
1,note_on,58,28,0
1,note_on,58,0,120
1,note_on,55,28,0
1,note_on,55,0,120
1,note_on,63,37,0
1,note_on,63,0,120
1,note_on,61,28,0
1,note_on,61,0,120
1,note_on,58,28,0
1,note_on,58,0,120
1,note_on,55,28,0
1,note_on,55,0,120
1,note_on,63,35,0
1,note_on,63,0,120
1,note_on,61,28,0
1,note_on,61,0,120
1,note_on,58,28,0
1,note_on,58,0,120
1,note_on,55,28,0
1,note_on,55,0,120
1,note_on,63,34,0
1,note_on,63,0,120
1,note_on,61,29,0
1,note_on,61,0,120
1,note_on,58,29,0
1,note_on,58,0,120
1,note_on,55,28,0
1,note_on,55,0,120
1,note_on,63,34,0
1,note_on,63,0,120
1,note_on,61,28,0
1,note_on,61,0,120
1,note_on,58,28,0
1,note_on,58,0,120
1,note_on,55,28,0
1,note_on,55,0,120
1,note_on,63,37,0
1,note_on,63,0,120
1,note_on,61,27,0
1,note_on,61,0,120
1,note_on,58,27,0
1,note_on,58,0,120
1,note_on,55,27,0
1,note_on,55,0,120
1,note_on,63,32,0
1,note_on,63,0,120
1,note_on,61,25,0
1,note_on,61,0,120
1,note_on,58,24,0
1,note_on,58,0,120
1,note_on,55,24,0
1,note_on,55,0,120
1,note_on,63,32,0
1,note_on,63,0,120
1,note_on,61,23,0
1,note_on,61,0,120
1,note_on,58,23,0
1,note_on,58,0,120
1,note_on,55,21,0
1,note_on,55,0,120
1,note_on,63,27,0
1,note_on,63,0,120
1,note_on,61,20,0
1,note_on,61,0,120
1,note_on,58,20,0
1,note_on,58,0,120
1,note_on,55,19,0
1,note_on,55,0,120
1,note_on,64,29,0
1,note_on,64,0,120
1,note_on,61,22,0
1,note_on,61,0,120
1,note_on,58,22,0
1,note_on,58,0,120
1,note_on,55,22,0
1,note_on,55,0,120
1,note_on,64,27,0
1,note_on,64,0,120
1,note_on,61,22,0
1,note_on,61,0,120
1,note_on,58,22,0
1,note_on,58,0,120
1,note_on,55,22,0
1,note_on,55,0,120
1,note_on,64,27,0
1,note_on,64,0,120
1,note_on,61,23,0
1,note_on,61,0,120
1,note_on,58,23,0
1,note_on,58,0,120
1,note_on,55,22,0
1,note_on,55,0,120
1,note_on,64,27,0
1,note_on,64,0,120
1,note_on,61,22,0
1,note_on,61,0,120
1,note_on,58,22,0
1,note_on,58,0,120
1,note_on,55,22,0
1,note_on,55,0,120
1,note_on,64,29,0
1,note_on,64,0,120
1,note_on,61,22,0
1,note_on,61,0,120
1,note_on,58,22,0
1,note_on,58,0,120
1,note_on,55,22,0
1,note_on,55,0,120
1,note_on,64,27,0
1,note_on,64,0,120
1,note_on,61,22,0
1,note_on,61,0,120
1,note_on,58,22,0
1,note_on,58,0,120
1,note_on,55,22,0
1,note_on,55,0,120
1,note_on,64,27,0
1,note_on,64,0,120
1,note_on,61,23,0
1,note_on,61,0,120
1,note_on,58,23,0
1,note_on,58,0,120
1,note_on,55,22,0
1,note_on,55,0,120
1,note_on,64,27,0
1,note_on,64,0,120
1,note_on,61,22,0
1,note_on,61,0,120
1,note_on,58,22,0
1,note_on,58,0,120
1,note_on,55,22,0
1,note_on,55,0,120
1,note_on,64,29,0
1,note_on,64,0,120
1,note_on,61,22,0
1,note_on,61,0,120
1,note_on,58,22,0
1,note_on,58,0,120
1,note_on,55,22,0
1,note_on,55,0,120
1,note_on,64,27,0
1,note_on,64,0,120
1,note_on,61,22,0
1,note_on,61,0,120
1,note_on,58,22,0
1,note_on,58,0,120
1,note_on,55,22,0
1,note_on,55,0,120
1,note_on,64,27,0
1,note_on,64,0,120
1,note_on,61,23,0
1,note_on,61,0,120
1,note_on,58,23,0
1,note_on,58,0,120
1,note_on,55,22,0
1,note_on,55,0,120
1,note_on,64,27,0
1,note_on,64,0,120
1,note_on,61,22,0
1,note_on,61,0,120
1,note_on,58,22,0
1,note_on,58,0,120
1,note_on,55,22,0
1,note_on,55,0,120
1,note_on,64,29,0
1,note_on,64,0,120
1,note_on,61,22,0
1,note_on,61,0,120
1,note_on,58,22,0
1,note_on,58,0,120
1,note_on,55,22,0
1,note_on,55,0,120
1,note_on,64,27,0
1,note_on,64,0,120
1,note_on,61,22,0
1,note_on,61,0,120
1,note_on,58,22,0
1,note_on,58,0,120
1,note_on,55,22,0
1,note_on,55,0,120
1,note_on,64,27,0
1,note_on,64,0,120
1,note_on,61,23,0
1,note_on,61,0,120
1,note_on,58,23,0
1,note_on,58,0,120
1,note_on,55,22,0
1,note_on,55,0,120
1,note_on,64,27,0
1,note_on,64,0,120
1,note_on,61,22,0
1,note_on,61,0,120
1,note_on,58,22,0
1,note_on,58,0,120
1,note_on,55,22,0
1,note_on,55,0,120
1,note_on,63,29,0
1,note_on,63,0,120
1,note_on,60,22,0
1,note_on,60,0,120
1,note_on,57,22,0
1,note_on,57,0,120
1,note_on,54,22,0
1,note_on,54,0,120
1,note_on,63,27,0
1,note_on,63,0,120
1,note_on,60,22,0
1,note_on,60,0,120
1,note_on,57,22,0
1,note_on,57,0,120
1,note_on,54,22,0
1,note_on,54,0,120
1,note_on,63,27,0
1,note_on,63,0,120
1,note_on,60,23,0
1,note_on,60,0,120
1,note_on,57,23,0
1,note_on,57,0,120
1,note_on,54,22,0
1,note_on,54,0,120
1,note_on,63,27,0
1,note_on,63,0,120
1,note_on,60,22,0
1,note_on,60,0,120
1,note_on,57,22,0
1,note_on,57,0,120
1,note_on,54,22,0
1,note_on,54,0,120
1,note_on,63,29,0
1,note_on,63,0,120
1,note_on,60,22,0
1,note_on,60,0,120
1,note_on,57,22,0
1,note_on,57,0,120
1,note_on,54,22,0
1,note_on,54,0,120
1,note_on,63,27,0
1,note_on,63,0,120
1,note_on,60,22,0
1,note_on,60,0,120
1,note_on,57,22,0
1,note_on,57,0,120
1,note_on,54,22,0
1,note_on,54,0,120
1,note_on,63,27,0
1,note_on,63,0,120
1,note_on,60,23,0
1,note_on,60,0,120
1,note_on,57,23,0
1,note_on,57,0,120
1,note_on,54,22,0
1,note_on,54,0,120
1,note_on,63,27,0
1,note_on,63,0,120
1,note_on,60,22,0
1,note_on,60,0,120
1,note_on,57,22,0
1,note_on,57,0,120
1,note_on,54,22,0
1,note_on,54,0,120
1,note_on,63,29,0
1,note_on,63,0,120
1,note_on,60,22,0
1,note_on,60,0,120
1,note_on,57,22,0
1,note_on,57,0,120
1,note_on,54,22,0
1,note_on,54,0,120
1,note_on,63,27,0
1,note_on,63,0,120
1,note_on,60,22,0
1,note_on,60,0,120
1,note_on,57,22,0
1,note_on,57,0,120
1,note_on,54,22,0
1,note_on,54,0,120
1,note_on,63,27,0
1,note_on,63,0,120
1,note_on,60,23,0
1,note_on,60,0,120
1,note_on,57,23,0
1,note_on,57,0,120
1,note_on,54,22,0
1,note_on,54,0,120
1,note_on,63,27,0
1,note_on,63,0,120
1,note_on,60,22,0
1,note_on,60,0,120
1,note_on,57,22,0
1,note_on,57,0,120
1,note_on,54,22,0
1,note_on,54,0,120
1,note_on,63,29,0
1,note_on,63,0,120
1,note_on,60,22,0
1,note_on,60,0,120
1,note_on,57,22,0
1,note_on,57,0,120
1,note_on,54,22,0
1,note_on,54,0,120
1,note_on,63,27,0
1,note_on,63,0,120
1,note_on,60,22,0
1,note_on,60,0,120
1,note_on,57,22,0
1,note_on,57,0,120
1,note_on,54,22,0
1,note_on,54,0,120
1,note_on,63,27,0
1,note_on,63,0,120
1,note_on,60,23,0
1,note_on,60,0,120
1,note_on,57,23,0
1,note_on,57,0,120
1,note_on,53,22,0
1,note_on,53,0,120
1,note_on,63,27,0
1,note_on,63,0,120
1,note_on,60,22,0
1,note_on,60,0,120
1,note_on,57,22,0
1,note_on,57,0,120
1,note_on,53,22,0
1,note_on,53,0,120
1,note_on,63,29,0
1,note_on,63,0,120
1,note_on,60,22,0
1,note_on,60,0,120
1,note_on,57,22,0
1,note_on,57,0,120
1,note_on,53,22,0
1,note_on,53,0,120
1,note_on,63,27,0
1,note_on,63,0,120
1,note_on,60,22,0
1,note_on,60,0,120
1,note_on,57,22,0
1,note_on,57,0,120
1,note_on,53,22,0
1,note_on,53,0,120
1,note_on,63,27,0
1,note_on,63,0,120
1,note_on,60,23,0
1,note_on,60,0,120
1,note_on,57,23,0
1,note_on,57,0,120
1,note_on,53,22,0
1,note_on,53,0,120
1,note_on,63,27,0
1,note_on,63,0,120
1,note_on,60,22,0
1,note_on,60,0,120
1,note_on,57,22,0
1,note_on,57,0,120
1,note_on,53,22,0
1,note_on,53,0,120
1,note_on,63,29,0
1,note_on,63,0,120
1,note_on,60,22,0
1,note_on,60,0,120
1,note_on,57,22,0
1,note_on,57,0,120
1,note_on,53,22,0
1,note_on,53,0,120
1,note_on,63,27,0
1,note_on,63,0,120
1,note_on,60,22,0
1,note_on,60,0,120
1,note_on,57,22,0
1,note_on,57,0,120
1,note_on,53,22,0
1,note_on,53,0,120
1,note_on,63,27,0
1,note_on,63,0,120
1,note_on,60,23,0
1,note_on,60,0,120
1,note_on,57,23,0
1,note_on,57,0,120
1,note_on,53,22,0
1,note_on,53,0,120
1,note_on,63,27,0
1,note_on,63,0,120
1,note_on,60,22,0
1,note_on,60,0,120
1,note_on,57,22,0
1,note_on,57,0,120
1,note_on,53,22,0
1,note_on,53,0,120
1,note_on,63,29,0
1,note_on,63,0,120
1,note_on,60,22,0
1,note_on,60,0,120
1,note_on,57,22,0
1,note_on,57,0,120
1,note_on,53,22,0
1,note_on,53,0,120
1,note_on,63,28,0
1,note_on,63,0,120
1,note_on,60,23,0
1,note_on,60,0,120
1,note_on,57,23,0
1,note_on,57,0,120
1,note_on,53,23,0
1,note_on,53,0,120
1,note_on,63,28,0
1,note_on,63,0,120
1,note_on,60,24,0
1,note_on,60,0,120
1,note_on,57,24,0
1,note_on,57,0,120
1,note_on,53,24,0
1,note_on,53,0,120
1,note_on,63,29,0
1,note_on,63,0,120
1,note_on,60,24,0
1,note_on,60,0,120
1,note_on,57,24,0
1,note_on,57,0,120
1,note_on,53,24,0
1,note_on,53,0,120
1,note_on,63,33,0
1,note_on,63,0,120
1,note_on,60,25,0
1,note_on,60,0,120
1,note_on,57,25,0
1,note_on,57,0,120
1,note_on,53,25,0
1,note_on,53,0,120
1,note_on,63,32,0
1,note_on,63,0,120
1,note_on,60,26,0
1,note_on,60,0,120
1,note_on,57,26,0
1,note_on,57,0,120
1,note_on,53,26,0
1,note_on,53,0,120
1,note_on,63,32,0
1,note_on,63,0,120
1,note_on,60,28,0
1,note_on,60,0,120
1,note_on,57,28,0
1,note_on,57,0,120
1,note_on,53,27,0
1,note_on,53,0,120
1,note_on,63,33,0
1,note_on,63,0,120
1,note_on,60,28,0
1,note_on,60,0,120
1,note_on,57,28,0
1,note_on,57,0,120
1,note_on,53,28,0
1,note_on,53,0,120
1,note_on,63,38,0
1,note_on,63,0,120
1,note_on,60,29,0
1,note_on,60,0,120
1,note_on,57,29,0
1,note_on,57,0,120
1,note_on,53,29,0
1,note_on,53,0,120
1,note_on,63,37,0
1,note_on,63,0,120
1,note_on,60,30,0
1,note_on,60,0,120
1,note_on,57,30,0
1,note_on,57,0,120
1,note_on,53,30,0
1,note_on,53,0,120
1,note_on,63,37,0
1,note_on,63,0,120
1,note_on,60,32,0
1,note_on,60,0,120
1,note_on,57,33,0
1,note_on,57,0,120
1,note_on,53,32,0
1,note_on,53,0,120
1,note_on,63,38,0
1,note_on,63,0,120
1,note_on,60,32,0
1,note_on,60,0,120
1,note_on,57,33,0
1,note_on,57,0,120
1,note_on,53,33,0
1,note_on,53,0,120
1,note_on,63,44,0
1,note_on,63,0,120
1,note_on,60,33,0
1,note_on,60,0,120
1,note_on,57,34,0
1,note_on,57,0,120
1,note_on,53,34,0
1,note_on,53,0,120
1,note_on,63,43,0
1,note_on,63,0,120
1,note_on,60,36,0
1,note_on,60,0,120
1,note_on,57,39,0
1,note_on,57,0,120
1,note_on,53,41,0
1,note_on,53,0,120
1,note_on,63,53,0
1,note_on,63,0,120
1,note_on,60,43,0
1,note_on,60,0,120
1,note_on,57,44,0
1,note_on,57,0,120
1,note_on,53,44,0
1,note_on,53,0,120
1,note_on,63,55,0
1,note_on,63,0,120
1,note_on,60,45,0
1,note_on,60,0,120
1,note_on,57,45,0
1,note_on,57,0,120
1,note_on,53,45,0
1,note_on,53,0,120
1,note_on,63,56,0
1,note_on,63,0,120
1,note_on,60,46,0
1,note_on,60,0,120
1,note_on,57,46,0
1,note_on,57,0,120
1,note_on,53,46,0
1,note_on,53,0,120
1,note_on,63,57,0
1,note_on,63,0,120
1,note_on,60,47,0
1,note_on,60,0,120
1,note_on,57,47,0
1,note_on,57,0,120
1,note_on,53,47,0
1,note_on,53,0,120
1,note_on,63,59,0
1,note_on,63,0,120
1,note_on,60,48,0
1,note_on,60,0,120
1,note_on,57,48,0
1,note_on,57,0,120
1,note_on,53,49,0
1,note_on,53,0,120
1,note_on,63,60,0
1,note_on,63,0,120
1,note_on,60,49,0
1,note_on,60,0,120
1,note_on,57,49,0
1,note_on,57,0,120
1,note_on,53,50,0
1,note_on,53,0,120
1,note_on,52,54,240
1,note_on,53,44,240
1,note_on,52,0,12
1,note_on,55,44,228
1,note_on,53,0,12
1,note_on,57,53,228
1,note_on,55,0,12
1,note_on,58,40,228
1,note_on,57,0,12
1,note_on,60,40,228
1,note_on,58,0,12
1,note_on,62,40,228
1,note_on,60,0,12
1,note_on,63,52,228
1,note_on,62,0,12
1,note_on,64,45,228
1,note_on,63,0,12
1,note_on,65,43,228
1,note_on,64,0,12
1,note_on,67,41,228
1,note_on,65,0,12
1,note_on,69,45,228
1,note_on,67,0,12
1,note_on,70,41,228
1,note_on,69,0,12
1,note_on,72,38,228
1,note_on,70,0,12
1,note_on,74,38,228
1,note_on,72,0,12
1,note_on,63,38,228
1,note_on,72,38,0
1,note_on,75,45,0
1,note_on,74,0,12
1,note_on,63,0,3108
1,note_on,72,0,0
1,note_on,75,0,0
1,note_on,58,42,240
1,note_on,62,50,0
1,note_on,58,0,120
1,note_on,57,40,0
1,note_on,57,0,120
1,note_on,58,45,0
1,note_on,58,0,120
1,note_on,53,39,0
1,note_on,53,0,120
1,note_on,62,0,0
1,note_on,62,35,0
1,note_on,65,42,0
1,note_on,65,0,90
1,note_on,62,0,0
1,note_on,58,32,390
1,note_on,62,38,0
1,note_on,62,0,90
1,note_on,58,0,0
1,note_on,58,42,870
1,note_on,62,50,0
1,note_on,58,0,120
1,note_on,57,40,0
1,note_on,57,0,120
1,note_on,58,45,0
1,note_on,58,0,120
1,note_on,53,39,0
1,note_on,53,0,120
1,note_on,62,0,0
1,note_on,62,35,0
1,note_on,65,42,0
1,note_on,65,0,90
1,note_on,62,0,0
1,note_on,58,32,390
1,note_on,62,38,0
1,note_on,62,0,90
1,note_on,58,0,0
1,note_on,62,50,870
1,note_on,58,42,0
1,note_on,57,40,120
1,note_on,58,0,12
1,note_on,62,0,108
1,note_on,58,46,0
1,note_on,57,0,12
1,note_on,53,40,108
1,note_on,58,0,12
1,note_on,53,0,108
1,note_on,65,53,0
1,note_on,62,44,0
1,note_on,61,42,120
1,note_on,62,0,12
1,note_on,65,0,108
1,note_on,62,49,0
1,note_on,61,0,12
1,note_on,58,42,108
1,note_on,62,0,12
1,note_on,58,0,108
1,note_on,65,47,0
1,note_on,70,56,0
1,note_on,64,45,120
1,note_on,65,0,12
1,note_on,70,0,108
1,note_on,65,51,0
1,note_on,64,0,12
1,note_on,62,45,108
1,note_on,65,0,12
1,note_on,62,0,108
1,note_on,70,49,0
1,note_on,74,59,0
1,note_on,69,47,120
1,note_on,70,0,12
1,note_on,74,0,108
1,note_on,70,54,0
1,note_on,69,0,12
1,note_on,65,47,108
1,note_on,70,0,12
1,note_on,65,0,108
1,note_on,74,52,0
1,note_on,77,62,0
1,note_on,73,50,120
1,note_on,74,0,12
1,note_on,77,0,108
1,note_on,74,57,0
1,note_on,73,0,12
1,note_on,70,49,108
1,note_on,74,0,12
1,note_on,70,0,108
1,note_on,82,72,0
1,note_on,82,0,1440
1,note_on,81,60,0
1,note_on,81,0,120
1,note_on,82,57,0
1,note_on,82,0,120
1,note_on,84,60,0
1,note_on,84,0,120
1,note_on,82,54,0
1,note_on,82,0,120
1,note_on,81,60,0
1,note_on,81,0,240
1,note_on,79,51,0
1,note_on,79,0,240
1,note_on,77,54,0
1,note_on,77,0,240
1,note_on,75,50,0
1,note_on,75,0,240
1,note_on,74,59,0
1,note_on,74,0,240
1,note_on,72,48,0
1,note_on,72,0,240
1,note_on,79,56,0
1,note_on,79,0,240
1,note_on,77,47,0
1,note_on,77,0,240
1,note_on,75,54,0
1,note_on,75,0,480
1,note_on,74,47,0
1,note_on,74,0,480
1,note_on,69,58,480
1,note_on,69,0,120
1,note_on,70,54,0
1,note_on,70,0,120
1,note_on,72,58,0
1,note_on,72,0,120
1,note_on,70,54,0
1,note_on,70,0,120
1,note_on,68,60,0
1,note_on,68,0,240
1,note_on,67,54,0
1,note_on,67,0,240
1,note_on,65,66,0
1,note_on,65,0,240
1,note_on,63,61,0
1,note_on,63,0,240
1,note_on,62,69,0
1,note_on,62,0,240
1,note_on,60,62,0
1,note_on,60,0,240
1,note_on,63,73,0
1,note_on,63,0,240
1,note_on,57,63,0
1,note_on,57,0,240
1,note_on,58,79,0
1,note_on,58,0,120
1,note_on,62,68,120
1,note_on,62,0,120
1,note_on,60,65,0
1,note_on,60,0,120
1,note_on,58,71,0
1,note_on,58,0,120
1,note_on,57,65,0
1,note_on,57,0,120
1,note_on,58,71,0
1,note_on,58,0,120
1,note_on,55,65,0
1,note_on,55,0,120
1,note_on,53,79,0
1,note_on,53,0,120
1,note_on,67,68,120
1,note_on,67,0,120
1,note_on,65,65,0
1,note_on,65,0,120
1,note_on,63,71,0
1,note_on,63,0,120
1,note_on,62,65,0
1,note_on,62,0,120
1,note_on,63,71,0
1,note_on,63,0,120
1,note_on,60,65,0
1,note_on,60,0,120
1,note_on,58,79,0
1,note_on,58,0,120
1,note_on,74,68,120
1,note_on,74,0,120
1,note_on,72,65,0
1,note_on,72,0,120
1,note_on,70,71,0
1,note_on,70,0,120
1,note_on,69,65,0
1,note_on,69,0,120
1,note_on,70,71,0
1,note_on,70,0,120
1,note_on,67,65,0
1,note_on,67,0,120
1,note_on,65,79,0
1,note_on,65,0,120
1,note_on,79,78,120
1,note_on,79,0,120
1,note_on,77,74,0
1,note_on,77,0,120
1,note_on,75,81,0
1,note_on,75,0,120
1,note_on,74,74,0
1,note_on,74,0,120
1,note_on,75,81,0
1,note_on,75,0,120
1,note_on,72,74,0
1,note_on,72,0,120
1,note_on,70,90,0
1,note_on,70,0,120
1,note_on,72,68,120
1,note_on,72,0,120
1,note_on,74,68,0
1,note_on,74,0,120
1,note_on,75,77,0
1,note_on,75,0,120
1,note_on,77,70,0
1,note_on,77,0,120
1,note_on,79,70,0
1,note_on,79,0,120
1,note_on,81,71,0
1,note_on,81,0,120
1,note_on,82,73,0
1,note_on,82,0,30
1,note_on,84,65,0
1,note_on,84,0,30
1,note_on,82,81,0
1,note_on,82,0,60
1,note_on,81,72,0
1,note_on,81,0,120
1,note_on,82,73,0
1,note_on,82,0,120
1,note_on,84,74,0
1,note_on,84,0,120
1,note_on,86,74,0
1,note_on,86,0,30
1,note_on,87,66,0
1,note_on,87,0,30
1,note_on,86,83,0
1,note_on,84,75,60
1,note_on,86,0,60
1,note_on,84,0,60
1,note_on,86,76,0
1,note_on,86,0,120
1,note_on,88,76,0
1,note_on,88,0,120
1,note_on,89,94,0
1,note_on,89,0,120
1,note_on,65,79,360
1,note_on,65,0,120
1,note_on,62,54,1800
1,note_on,65,65,0
1,note_on,62,0,120
1,note_on,61,52,0
1,note_on,61,0,120
1,note_on,62,58,0
1,note_on,62,0,120
1,note_on,58,50,0
1,note_on,58,0,120
1,note_on,65,0,0
1,note_on,65,65,0
1,note_on,74,65,0
1,note_on,74,0,120
1,note_on,65,0,0
1,note_on,62,58,360
1,note_on,70,58,0
1,note_on,70,0,120
1,note_on,62,0,0
1,note_on,62,54,840
1,note_on,65,65,0
1,note_on,62,0,120
1,note_on,61,52,0
1,note_on,61,0,120
1,note_on,62,58,0
1,note_on,62,0,120
1,note_on,58,50,0
1,note_on,58,0,120
1,note_on,65,0,0
1,note_on,65,65,0
1,note_on,74,65,0
1,note_on,74,0,120
1,note_on,65,0,0
1,note_on,62,58,360
1,note_on,70,58,0
1,note_on,70,0,120
1,note_on,62,0,0
1,note_on,80,75,3240
1,note_on,74,56,960
1,note_on,79,53,480
1,note_on,74,0,480
1,note_on,80,0,0
1,note_on,75,44,0
1,note_on,75,0,480
1,note_on,79,0,0
1,note_on,72,41,0
1,note_on,77,49,0
1,note_on,72,0,480
1,note_on,74,55,0
1,note_on,74,0,480
1,note_on,77,0,0
1,note_on,71,41,0
1,note_on,75,49,0
1,note_on,71,0,480
1,note_on,72,55,0
1,note_on,72,0,480
1,note_on,75,0,0
1,note_on,69,42,0
1,note_on,74,50,0
1,note_on,69,0,480
1,note_on,70,55,0
1,note_on,70,0,480
1,note_on,74,0,0
1,note_on,67,41,0
1,note_on,72,49,0
1,note_on,67,0,480
1,note_on,68,55,0
1,note_on,68,0,480
1,note_on,72,0,0
1,note_on,65,42,0
1,note_on,70,50,0
1,note_on,65,0,480
1,note_on,67,55,0
1,note_on,67,0,480
1,note_on,70,0,0
1,note_on,63,41,0
1,note_on,69,49,0
1,note_on,69,0,480
1,note_on,63,0,0
1,note_on,70,50,0
1,note_on,62,55,0
1,note_on,62,0,470
1,note_on,70,0,10
1,note_on,58,42,0
1,note_on,62,42,0
1,note_on,62,0,480
1,note_on,58,0,0
1,note_on,57,60,0
1,note_on,60,68,0
1,note_on,60,0,240
1,note_on,57,0,0
1,note_on,65,62,0
1,note_on,65,0,120
1,note_on,57,33,0
1,note_on,60,39,0
1,note_on,60,0,120
1,note_on,57,0,0
1,note_on,65,64,0
1,note_on,65,0,120
1,note_on,57,34,0
1,note_on,60,41,0
1,note_on,60,0,120
1,note_on,57,0,0
1,note_on,67,68,0
1,note_on,67,0,120
1,note_on,57,34,0
1,note_on,60,40,0
1,note_on,60,0,120
1,note_on,57,0,0
1,note_on,69,62,0
1,note_on,69,0,120
1,note_on,60,38,0
1,note_on,63,45,0
1,note_on,63,0,120
1,note_on,60,0,0
1,note_on,65,68,0
1,note_on,65,0,120
1,note_on,60,38,0
1,note_on,63,45,0
1,note_on,63,0,120
1,note_on,60,0,0
1,note_on,67,68,0
1,note_on,67,0,120
1,note_on,60,38,0
1,note_on,63,45,0
1,note_on,63,0,120
1,note_on,60,0,0
1,note_on,69,70,0
1,note_on,69,0,120
1,note_on,60,38,0
1,note_on,63,45,0
1,note_on,63,0,120
1,note_on,60,0,0
1,note_on,70,68,0
1,note_on,70,0,120
1,note_on,58,34,0
1,note_on,61,40,0
1,note_on,61,0,120
1,note_on,58,0,0
1,note_on,70,62,0
1,note_on,70,0,120
1,note_on,58,33,0
1,note_on,61,39,0
1,note_on,61,0,120
1,note_on,58,0,0
1,note_on,70,64,0
1,note_on,70,0,120
1,note_on,58,34,0
1,note_on,61,41,0
1,note_on,61,0,120
1,note_on,58,0,0
1,note_on,68,68,0
1,note_on,68,0,120
1,note_on,58,34,0
1,note_on,61,40,0
1,note_on,61,0,120
1,note_on,58,0,0
1,note_on,67,62,0
1,note_on,67,0,120
1,note_on,58,38,0
1,note_on,61,45,0
1,note_on,61,0,120
1,note_on,58,0,0
1,note_on,65,68,0
1,note_on,65,0,120
1,note_on,58,38,0
1,note_on,61,45,0
1,note_on,61,0,120
1,note_on,58,0,0
1,note_on,64,68,0
1,note_on,64,0,120
1,note_on,58,38,0
1,note_on,61,45,0
1,note_on,61,0,120
1,note_on,58,0,0
1,note_on,67,70,0
1,note_on,67,0,120
1,note_on,58,38,0
1,note_on,61,45,0
1,note_on,61,0,120
1,note_on,58,0,0
1,note_on,60,60,0
1,note_on,57,60,0
1,note_on,65,68,0
1,note_on,65,0,240
1,note_on,57,0,0
1,note_on,60,0,0
1,note_on,77,62,0
1,note_on,77,0,120
1,note_on,69,33,0
1,note_on,72,39,0
1,note_on,72,0,120
1,note_on,69,0,0
1,note_on,77,64,0
1,note_on,77,0,120
1,note_on,69,34,0
1,note_on,72,41,0
1,note_on,72,0,120
1,note_on,69,0,0
1,note_on,79,68,0
1,note_on,79,0,120
1,note_on,69,34,0
1,note_on,72,40,0
1,note_on,72,0,120
1,note_on,69,0,0
1,note_on,81,62,0
1,note_on,81,0,120
1,note_on,72,38,0
1,note_on,75,45,0
1,note_on,75,0,120
1,note_on,72,0,0
1,note_on,77,68,0
1,note_on,77,0,120
1,note_on,72,38,0
1,note_on,75,45,0
1,note_on,75,0,120
1,note_on,72,0,0
1,note_on,79,68,0
1,note_on,79,0,120
1,note_on,72,38,0
1,note_on,75,45,0
1,note_on,75,0,120
1,note_on,72,0,0
1,note_on,81,70,0
1,note_on,81,0,120
1,note_on,72,38,0
1,note_on,75,45,0
1,note_on,75,0,120
1,note_on,72,0,0
1,note_on,82,68,0
1,note_on,82,0,120
1,note_on,70,34,0
1,note_on,73,40,0
1,note_on,73,0,120
1,note_on,70,0,0
1,note_on,82,62,0
1,note_on,82,0,120
1,note_on,70,33,0
1,note_on,73,39,0
1,note_on,73,0,120
1,note_on,70,0,0
1,note_on,82,64,0
1,note_on,82,0,120
1,note_on,70,34,0
1,note_on,73,41,0
1,note_on,73,0,120
1,note_on,70,0,0
1,note_on,80,68,0
1,note_on,80,0,120
1,note_on,70,34,0
1,note_on,73,40,0
1,note_on,73,0,120
1,note_on,70,0,0
1,note_on,79,62,0
1,note_on,79,0,120
1,note_on,70,38,0
1,note_on,73,45,0
1,note_on,73,0,120
1,note_on,70,0,0
1,note_on,77,68,0
1,note_on,77,0,120
1,note_on,70,38,0
1,note_on,73,45,0
1,note_on,73,0,120
1,note_on,70,0,0
1,note_on,76,68,0
1,note_on,76,0,120
1,note_on,70,38,0
1,note_on,73,45,0
1,note_on,73,0,120
1,note_on,70,0,0
1,note_on,79,70,0
1,note_on,79,0,120
1,note_on,70,38,0
1,note_on,73,45,0
1,note_on,73,0,120
1,note_on,70,0,0
1,note_on,77,78,0
1,note_on,77,0,120
1,note_on,69,38,0
1,note_on,72,45,0
1,note_on,72,0,120
1,note_on,69,0,0
1,note_on,77,68,0
1,note_on,77,0,120
1,note_on,69,38,0
1,note_on,72,45,0
1,note_on,72,0,120
1,note_on,69,0,0
1,note_on,76,68,0
1,note_on,76,0,120
1,note_on,70,38,0
1,note_on,73,45,0
1,note_on,73,0,120
1,note_on,70,0,0
1,note_on,79,70,0
1,note_on,79,0,120
1,note_on,70,38,0
1,note_on,73,45,0
1,note_on,73,0,120
1,note_on,70,0,0
1,note_on,77,76,0
1,note_on,77,0,120
1,note_on,69,38,0
1,note_on,72,45,0
1,note_on,72,0,120
1,note_on,69,0,0
1,note_on,77,68,0
1,note_on,77,0,120
1,note_on,69,38,0
1,note_on,72,45,0
1,note_on,72,0,120
1,note_on,69,0,0
1,note_on,76,68,0
1,note_on,76,0,120
1,note_on,70,38,0
1,note_on,73,45,0
1,note_on,73,0,120
1,note_on,70,0,0
1,note_on,79,70,0
1,note_on,79,0,120
1,note_on,70,38,0
1,note_on,73,45,0
1,note_on,73,0,120
1,note_on,70,0,0
1,note_on,69,59,0
1,note_on,72,59,0
1,note_on,77,70,0
1,note_on,77,0,120
1,note_on,72,0,0
1,note_on,69,0,0
1,note_on,65,35,0
1,note_on,67,40,120
1,note_on,65,0,12
1,note_on,69,35,108
1,note_on,67,0,12
1,note_on,70,40,108
1,note_on,69,0,12
1,note_on,72,35,108
1,note_on,70,0,12
1,note_on,74,40,108
1,note_on,72,0,12
1,note_on,76,33,108
1,note_on,74,0,12
1,note_on,77,40,108
1,note_on,76,0,12
1,note_on,76,33,108
1,note_on,77,0,12
1,note_on,77,40,108
1,note_on,76,0,12
1,note_on,76,33,108
1,note_on,77,0,12
1,note_on,77,40,108
1,note_on,76,0,12
1,note_on,76,34,108
1,note_on,77,0,12
1,note_on,77,40,108
1,note_on,76,0,12
1,note_on,76,33,108
1,note_on,77,0,12
1,note_on,76,0,108
1,note_on,74,38,0
1,note_on,77,43,0
1,note_on,77,0,960
1,note_on,74,0,0
1,note_on,74,49,0
1,note_on,74,0,480
1,note_on,82,47,0
1,note_on,82,0,480
1,note_on,74,41,0
1,note_on,77,49,0
1,note_on,77,0,480
1,note_on,74,0,0
1,note_on,86,43,0
1,note_on,82,36,0
1,note_on,82,0,480
1,note_on,86,0,0
1,note_on,74,42,0
1,note_on,77,50,0
1,note_on,77,0,480
1,note_on,74,0,0
1,note_on,89,43,0
1,note_on,86,36,0
1,note_on,86,0,480
1,note_on,89,0,0
1,note_on,74,38,0
1,note_on,77,43,0
1,note_on,77,0,960
1,note_on,74,0,0
1,note_on,74,49,0
1,note_on,74,0,480
1,note_on,82,46,0
1,note_on,82,0,480
1,note_on,74,41,0
1,note_on,77,49,0
1,note_on,77,0,480
1,note_on,74,0,0
1,note_on,86,43,0
1,note_on,82,36,0
1,note_on,82,0,480
1,note_on,86,0,0
1,note_on,74,42,0
1,note_on,77,50,0
1,note_on,77,0,480
1,note_on,74,0,0
1,note_on,89,43,0
1,note_on,86,36,0
1,note_on,86,0,480
1,note_on,89,0,0
1,note_on,74,49,0
1,note_on,77,49,0
1,note_on,79,49,0
1,note_on,83,49,0
1,note_on,83,0,960
1,note_on,74,0,0
1,note_on,77,0,0
1,note_on,79,0,0
1,note_on,83,70,1440
1,note_on,83,0,480
1,note_on,86,70,0
1,note_on,86,0,480
1,note_on,89,66,0
1,note_on,83,72,480
1,note_on,89,0,480
1,note_on,87,75,0
1,note_on,83,0,480
1,note_on,84,75,0
1,note_on,78,66,480
1,note_on,78,0,480
1,note_on,77,74,0
1,note_on,84,0,480
1,note_on,87,0,0
1,note_on,86,70,0
1,note_on,82,57,0
1,note_on,82,0,480
1,note_on,86,0,0
1,note_on,77,0,0
1,note_on,75,61,0
1,note_on,79,61,0
1,note_on,84,70,0
1,note_on,84,0,480
1,note_on,79,0,0
1,note_on,75,0,0
1,note_on,72,53,0
1,note_on,75,53,0
1,note_on,81,64,0
1,note_on,81,0,480
1,note_on,75,0,0
1,note_on,72,0,0
1,note_on,70,64,0
1,note_on,74,64,0
1,note_on,82,77,0
1,note_on,82,0,240
1,note_on,74,0,0
1,note_on,70,0,0
1,note_on,70,73,720
1,note_on,74,88,0
1,note_on,70,0,950
1,note_on,74,0,10
1,note_on,67,57,0
1,note_on,70,68,0
1,note_on,67,0,470
1,note_on,70,0,10
1,note_on,63,59,0
1,note_on,67,70,0
1,note_on,67,0,240
1,note_on,63,0,0
1,note_on,72,73,240
1,note_on,75,88,0
1,note_on,75,0,720
1,note_on,72,0,0
1,note_on,70,57,0
1,note_on,74,68,0
1,note_on,74,0,240
1,note_on,70,0,0
1,note_on,72,77,0
1,note_on,69,64,0
1,note_on,69,0,470
1,note_on,72,0,10
1,note_on,65,57,0
1,note_on,69,68,0
1,note_on,69,0,240
1,note_on,65,0,0
1,note_on,74,73,240
1,note_on,77,88,0
1,note_on,74,0,950
1,note_on,77,0,10
1,note_on,70,57,0
1,note_on,74,68,0
1,note_on,70,0,470
1,note_on,74,0,10
1,note_on,67,59,0
1,note_on,70,70,0
1,note_on,70,0,240
1,note_on,67,0,0
1,note_on,75,73,240
1,note_on,79,88,0
1,note_on,79,0,720
1,note_on,75,0,0
1,note_on,74,57,0
1,note_on,77,68,0
1,note_on,77,0,240
1,note_on,74,0,0
1,note_on,75,77,0
1,note_on,72,64,0
1,note_on,72,0,470
1,note_on,75,0,10
1,note_on,69,57,0
1,note_on,72,68,0
1,note_on,72,0,240
1,note_on,69,0,0
1,note_on,75,73,240
1,note_on,84,88,0
1,note_on,84,0,720
1,note_on,75,0,0
1,note_on,74,57,0
1,note_on,82,68,0
1,note_on,82,0,240
1,note_on,74,0,0
1,note_on,72,73,0
1,note_on,81,88,0
1,note_on,81,0,720
1,note_on,72,0,0
1,note_on,70,57,0
1,note_on,79,68,0
1,note_on,79,0,240
1,note_on,70,0,0
1,note_on,69,51,0
1,note_on,77,60,0
1,note_on,77,0,480
1,note_on,69,0,0
1,note_on,63,44,0
1,note_on,75,52,0
1,note_on,75,0,480
1,note_on,63,0,0
1,note_on,62,49,0
1,note_on,74,58,0
1,note_on,74,0,480
1,note_on,62,0,0
1,note_on,66,39,0
1,note_on,72,46,0
1,note_on,72,0,480
1,note_on,66,0,0
1,note_on,67,45,0
1,note_on,70,53,0
1,note_on,70,0,480
1,note_on,67,0,0
1,note_on,60,40,0
1,note_on,67,48,0
1,note_on,67,0,480
1,note_on,60,0,0
1,note_on,58,32,480
1,note_on,62,32,0
1,note_on,65,38,0
1,note_on,65,0,240
1,note_on,62,0,0
1,note_on,58,0,0
1,note_on,57,31,720
1,note_on,60,31,0
1,note_on,65,37,0
1,note_on,65,0,240
1,note_on,60,0,0
1,note_on,57,0,0
1,note_on,62,35,720
1,note_on,58,29,0
1,note_on,53,29,0
1,note_on,53,0,450
1,note_on,58,0,0
1,note_on,62,0,0
1,note_on,70,60,270
1,note_on,74,72,0
1,note_on,74,0,480
1,note_on,70,0,0
1,note_on,70,47,0
1,note_on,74,56,0
1,note_on,74,0,120
1,note_on,70,0,0
1,note_on,67,41,360
1,note_on,70,49,0
1,note_on,70,0,120
1,note_on,67,0,0
1,note_on,63,38,360
1,note_on,67,45,0
1,note_on,67,0,120
1,note_on,63,0,0
1,note_on,72,60,360
1,note_on,75,73,0
1,note_on,75,0,480
1,note_on,72,0,0
1,note_on,70,43,0
1,note_on,74,51,0
1,note_on,74,0,120
1,note_on,70,0,0
1,note_on,69,41,360
1,note_on,72,49,0
1,note_on,72,0,120
1,note_on,69,0,0
1,note_on,65,38,360
1,note_on,69,45,0
1,note_on,69,0,120
1,note_on,65,0,0
1,note_on,74,60,360
1,note_on,77,72,0
1,note_on,77,0,480
1,note_on,74,0,0
1,note_on,74,47,0
1,note_on,77,56,0
1,note_on,77,0,120
1,note_on,74,0,0
1,note_on,70,45,360
1,note_on,74,53,0
1,note_on,74,0,120
1,note_on,70,0,0
1,note_on,67,41,360
1,note_on,70,49,0
1,note_on,70,0,120
1,note_on,67,0,0
1,note_on,75,68,360
1,note_on,79,84,0
1,note_on,79,0,480
1,note_on,75,0,0
1,note_on,74,49,0
1,note_on,77,58,0
1,note_on,77,0,120
1,note_on,74,0,0
1,note_on,72,47,360
1,note_on,75,55,0
1,note_on,75,0,120
1,note_on,72,0,0
1,note_on,69,43,360
1,note_on,72,51,0
1,note_on,72,0,120
1,note_on,69,0,0
1,note_on,75,75,360
1,note_on,84,93,0
1,note_on,84,0,480
1,note_on,75,0,0
1,note_on,74,56,0
1,note_on,82,67,0
1,note_on,82,0,120
1,note_on,74,0,0
1,note_on,72,71,360
1,note_on,81,82,0
1,note_on,81,0,480
1,note_on,72,0,0
1,note_on,70,56,0
1,note_on,79,67,0
1,note_on,79,0,120
1,note_on,70,0,0
1,note_on,69,44,360
1,note_on,77,52,0
1,note_on,77,0,120
1,note_on,69,0,0
1,note_on,63,39,360
1,note_on,75,46,0
1,note_on,75,0,120
1,note_on,63,0,0
1,note_on,74,54,120
1,note_on,74,0,120
1,note_on,62,46,0
1,note_on,62,0,120
1,note_on,66,43,0
1,note_on,66,0,120
1,note_on,69,43,0
1,note_on,69,0,120
1,note_on,74,53,0
1,note_on,74,0,120
1,note_on,78,42,0
1,note_on,78,0,120
1,note_on,81,42,0
1,note_on,81,0,120
1,note_on,85,42,0
1,note_on,85,0,120
1,note_on,86,49,0
1,note_on,86,0,120
1,note_on,85,39,0
1,note_on,85,0,120
1,note_on,86,42,0
1,note_on,86,0,120
1,note_on,85,38,0
1,note_on,85,0,120
1,note_on,86,48,0
1,note_on,86,0,120
1,note_on,81,38,0
1,note_on,81,0,120
1,note_on,78,38,0
1,note_on,78,0,120
1,note_on,74,38,0
1,note_on,74,0,120
1,note_on,62,46,120
1,note_on,62,0,120
1,note_on,67,43,0
1,note_on,67,0,120
1,note_on,70,43,0
1,note_on,70,0,120
1,note_on,74,53,0
1,note_on,74,0,120
1,note_on,79,42,0
1,note_on,79,0,120
1,note_on,82,42,0
1,note_on,82,0,120
1,note_on,85,42,0
1,note_on,85,0,120
1,note_on,86,49,0
1,note_on,86,0,120
1,note_on,85,39,0
1,note_on,85,0,120
1,note_on,86,42,0
1,note_on,86,0,120
1,note_on,85,38,0
1,note_on,85,0,120
1,note_on,86,48,0
1,note_on,86,0,120
1,note_on,82,38,0
1,note_on,82,0,120
1,note_on,79,38,0
1,note_on,79,0,120
1,note_on,74,38,0
1,note_on,74,0,120
1,note_on,61,46,120
1,note_on,61,0,120
1,note_on,64,43,0
1,note_on,64,0,120
1,note_on,67,43,0
1,note_on,67,0,120
1,note_on,70,50,0
1,note_on,70,0,120
1,note_on,73,42,0
1,note_on,73,0,120
1,note_on,76,42,0
1,note_on,76,0,120
1,note_on,79,42,0
1,note_on,79,0,120
1,note_on,82,49,0
1,note_on,82,0,120
1,note_on,79,41,0
1,note_on,79,0,120
1,note_on,85,48,0
1,note_on,85,0,120
1,note_on,82,41,0
1,note_on,82,0,120
1,note_on,79,48,0
1,note_on,79,0,120
1,note_on,76,45,0
1,note_on,76,0,120
1,note_on,73,42,0
1,note_on,73,0,120
1,note_on,70,39,0
1,note_on,70,0,120
1,note_on,57,48,120
1,note_on,57,0,120
1,note_on,60,50,0
1,note_on,60,0,120
1,note_on,63,51,0
1,note_on,63,0,120
1,note_on,66,53,0
1,note_on,66,0,120
1,note_on,69,55,0
1,note_on,69,0,120
1,note_on,72,57,0
1,note_on,72,0,120
1,note_on,75,59,0
1,note_on,75,0,120
1,note_on,78,65,0
1,note_on,78,0,120
1,note_on,81,57,0
1,note_on,81,0,120
1,note_on,69,64,0
1,note_on,69,0,120
1,note_on,81,56,0
1,note_on,81,0,120
1,note_on,69,64,0
1,note_on,69,0,120
1,note_on,81,58,0
1,note_on,81,0,120
1,note_on,69,64,0
1,note_on,69,0,120
1,note_on,81,59,0
1,note_on,81,0,120
1,note_on,70,74,0
1,note_on,70,0,120
1,note_on,82,59,0
1,note_on,82,0,120
1,note_on,69,67,0
1,note_on,69,0,120
1,note_on,81,54,0
1,note_on,81,0,120
1,note_on,70,66,0
1,note_on,70,0,120
1,note_on,82,57,0
1,note_on,82,0,120
1,note_on,63,59,0
1,note_on,63,0,120
1,note_on,75,50,0
1,note_on,75,0,120
1,note_on,62,79,0
1,note_on,62,0,120
1,note_on,74,54,0
1,note_on,74,0,120
1,note_on,69,65,0
1,note_on,69,0,120
1,note_on,81,57,0
1,note_on,81,0,120
1,note_on,70,68,0
1,note_on,70,0,120
1,note_on,82,60,0
1,note_on,82,0,120
1,note_on,63,67,0
1,note_on,63,0,120
1,note_on,75,58,0
1,note_on,75,0,120
1,note_on,62,81,0
1,note_on,62,0,120
1,note_on,74,58,0
1,note_on,74,0,120
1,note_on,69,64,0
1,note_on,69,0,120
1,note_on,81,59,0
1,note_on,81,0,120
1,note_on,70,67,0
1,note_on,70,0,120
1,note_on,82,55,0
1,note_on,82,0,120
1,note_on,63,62,0
1,note_on,63,0,120
1,note_on,75,51,0
1,note_on,75,0,120
1,note_on,62,72,0
1,note_on,62,0,120
1,note_on,74,52,0
1,note_on,74,0,120
1,note_on,69,64,0
1,note_on,69,0,120
1,note_on,81,54,0
1,note_on,81,0,120
1,note_on,70,64,0
1,note_on,70,0,120
1,note_on,82,51,0
1,note_on,82,0,120
1,note_on,63,60,0
1,note_on,63,0,120
1,note_on,75,51,0
1,note_on,75,0,120
1,note_on,62,83,0
1,note_on,62,0,120
1,note_on,74,53,0
1,note_on,74,0,120
1,note_on,69,62,0
1,note_on,69,0,120
1,note_on,81,54,0
1,note_on,81,0,120
1,note_on,70,62,0
1,note_on,70,0,120
1,note_on,82,54,0
1,note_on,82,0,120
1,note_on,69,62,0
1,note_on,69,0,120
1,note_on,81,53,0
1,note_on,81,0,120
1,note_on,67,81,0
1,note_on,67,0,120
1,note_on,79,53,0
1,note_on,79,0,120
1,note_on,65,60,0
1,note_on,65,0,120
1,note_on,77,52,0
1,note_on,77,0,120
1,note_on,63,59,0
1,note_on,63,0,120
1,note_on,75,52,0
1,note_on,75,0,120
1,note_on,62,59,0
1,note_on,62,0,120
1,note_on,74,50,0
1,note_on,74,0,120
1,note_on,60,79,0
1,note_on,60,0,120
1,note_on,72,50,0
1,note_on,72,0,120
1,note_on,58,59,0
1,note_on,58,0,120
1,note_on,70,49,0
1,note_on,70,0,120
1,note_on,57,59,0
1,note_on,57,0,120
1,note_on,69,49,0
1,note_on,69,0,120
1,note_on,55,59,0
1,note_on,55,0,120
1,note_on,67,51,0
1,note_on,67,0,120
1,note_on,53,79,0
1,note_on,53,0,120
1,note_on,65,49,0
1,note_on,65,0,120
1,note_on,51,59,0
1,note_on,51,0,120
1,note_on,63,50,0
1,note_on,63,0,120
1,note_on,50,59,0
1,note_on,50,0,120
1,note_on,62,48,0
1,note_on,62,0,120
1,note_on,48,58,0
1,note_on,48,0,120
1,note_on,60,49,0
1,note_on,60,0,120
1,note_on,58,76,0
1,note_on,46,64,0
1,note_on,46,0,120
1,note_on,58,0,0
1,note_on,57,49,120
1,note_on,57,0,120
1,note_on,53,42,0
1,note_on,53,0,120
1,note_on,58,49,0
1,note_on,58,0,120
1,note_on,53,41,0
1,note_on,53,0,120
1,note_on,63,49,0
1,note_on,63,0,120
1,note_on,53,42,0
1,note_on,53,0,120
1,note_on,62,49,0
1,note_on,62,0,120
1,note_on,53,41,0
1,note_on,53,0,120
1,note_on,57,49,0
1,note_on,57,0,120
1,note_on,53,42,0
1,note_on,53,0,120
1,note_on,58,49,0
1,note_on,58,0,120
1,note_on,53,43,0
1,note_on,53,0,120
1,note_on,63,49,0
1,note_on,63,0,120
1,note_on,53,40,0
1,note_on,53,0,120
1,note_on,62,49,0
1,note_on,62,0,120
1,note_on,53,41,0
1,note_on,53,0,120
1,note_on,57,49,0
1,note_on,57,0,120
1,note_on,53,42,0
1,note_on,53,0,120
1,note_on,58,49,0
1,note_on,58,0,120
1,note_on,53,43,0
1,note_on,53,0,120
1,note_on,63,49,0
1,note_on,63,0,120
1,note_on,53,40,0
1,note_on,53,0,120
1,note_on,62,56,0
1,note_on,62,0,240
1,note_on,54,60,0
1,note_on,54,0,120
1,note_on,66,52,0
1,note_on,66,0,120
1,note_on,55,61,0
1,note_on,55,0,120
1,note_on,67,49,0
1,note_on,67,0,120
1,note_on,57,67,0
1,note_on,57,0,120
1,note_on,69,60,0
1,note_on,69,0,120
1,note_on,58,71,0
1,note_on,58,0,120
1,note_on,70,62,0
1,note_on,70,0,120
1,note_on,59,70,0
1,note_on,59,0,120
1,note_on,71,64,0
1,note_on,71,0,120
1,note_on,60,70,0
1,note_on,60,0,120
1,note_on,72,64,0
1,note_on,72,0,120
1,note_on,62,74,0
1,note_on,62,0,120
1,note_on,74,65,0
1,note_on,74,0,120
1,note_on,63,82,0
1,note_on,63,0,120
1,note_on,75,71,0
1,note_on,75,0,120
1,note_on,65,79,0
1,note_on,65,0,120
1,note_on,77,70,0
1,note_on,77,0,120
1,note_on,67,83,0
1,note_on,67,0,120
1,note_on,79,72,0
1,note_on,79,0,120
1,note_on,65,81,0
1,note_on,65,0,120
1,note_on,77,69,0
1,note_on,77,0,120
1,note_on,63,84,0
1,note_on,63,0,120
1,note_on,75,69,0
1,note_on,75,0,120
1,note_on,62,81,0
1,note_on,62,0,120
1,note_on,74,69,0
1,note_on,74,0,120
1,note_on,60,79,0
1,note_on,60,0,120
1,note_on,72,69,0
1,note_on,72,0,120
1,note_on,58,78,0
1,note_on,58,0,120
1,note_on,70,65,0
1,note_on,70,0,120
1,note_on,57,79,0
1,note_on,57,0,120
1,note_on,69,69,0
1,note_on,69,0,120
1,note_on,55,77,0
1,note_on,55,0,120
1,note_on,67,65,0
1,note_on,67,0,120
1,note_on,53,77,0
1,note_on,53,0,120
1,note_on,65,67,0
1,note_on,65,0,120
1,note_on,57,75,0
1,note_on,57,0,120
1,note_on,69,66,0
1,note_on,69,0,120
1,note_on,70,79,0
1,note_on,58,79,0
1,note_on,58,0,480
1,note_on,70,0,0
1,note_on,65,40,480
1,note_on,62,34,0
1,note_on,58,39,720
1,note_on,58,0,240
1,note_on,62,0,0
1,note_on,65,0,0
1,note_on,66,46,0
1,note_on,63,39,0
1,note_on,61,40,720
1,note_on,61,0,240
1,note_on,63,0,0
1,note_on,66,0,0
1,note_on,66,32,0
1,note_on,63,32,0
1,note_on,59,45,0
1,note_on,59,0,240
1,note_on,58,40,0
1,note_on,58,0,240
1,note_on,63,0,0
1,note_on,66,0,0
1,note_on,66,33,0
1,note_on,63,33,0
1,note_on,59,46,0
1,note_on,59,0,240
1,note_on,57,40,0
1,note_on,57,0,240
1,note_on,63,0,0
1,note_on,66,0,0
1,note_on,65,46,0
1,note_on,62,39,0
1,note_on,58,39,0
1,note_on,58,0,720
1,note_on,62,0,0
1,note_on,65,0,0
1,note_on,74,52,240
1,note_on,65,52,0
1,note_on,62,44,0
1,note_on,74,0,720
1,note_on,70,50,0
1,note_on,70,0,240
1,note_on,62,0,0
1,note_on,65,0,0
1,note_on,75,52,0
1,note_on,66,59,0
1,note_on,63,50,0
1,note_on,75,0,720
1,note_on,73,52,0
1,note_on,73,0,240
1,note_on,63,0,0
1,note_on,66,0,0
1,note_on,66,41,0
1,note_on,63,41,0
1,note_on,71,58,0
1,note_on,71,0,240
1,note_on,70,52,0
1,note_on,70,0,240
1,note_on,63,0,0
1,note_on,66,0,0
1,note_on,66,42,0
1,note_on,63,42,0
1,note_on,71,59,0
1,note_on,71,0,240
1,note_on,69,52,0
1,note_on,69,0,240
1,note_on,63,0,0
1,note_on,66,0,0
1,note_on,70,59,0
1,note_on,65,50,0
1,note_on,62,50,0
1,note_on,62,0,720
1,note_on,65,0,0
1,note_on,70,0,0
1,note_on,66,37,240
1,note_on,63,37,0
1,note_on,72,53,0
1,note_on,72,0,240
1,note_on,70,46,0
1,note_on,70,0,240
1,note_on,63,0,0
1,note_on,66,0,0
1,note_on,66,36,0
1,note_on,63,36,0
1,note_on,72,51,0
1,note_on,72,0,240
1,note_on,69,44,0
1,note_on,69,0,240
1,note_on,63,0,0
1,note_on,66,0,0
1,note_on,70,49,0
1,note_on,65,42,0
1,note_on,62,42,0
1,note_on,62,0,720
1,note_on,65,0,0
1,note_on,70,0,0
1,note_on,66,30,240
1,note_on,63,30,0
1,note_on,71,43,0
1,note_on,71,0,240
1,note_on,70,39,0
1,note_on,70,0,240
1,note_on,63,0,0
1,note_on,66,0,0
1,note_on,66,31,0
1,note_on,63,31,0
1,note_on,71,44,0
1,note_on,71,0,240
1,note_on,69,39,0
1,note_on,69,0,240
1,note_on,63,0,0
1,note_on,66,0,0
1,note_on,58,74,0
1,note_on,70,88,0
1,note_on,70,0,720
1,note_on,58,0,0
1,note_on,60,67,0
1,note_on,72,79,0
1,note_on,72,0,120
1,note_on,60,0,0
1,note_on,62,74,120
1,note_on,74,89,0
1,note_on,74,0,720
1,note_on,62,0,0
1,note_on,63,68,0
1,note_on,75,81,0
1,note_on,75,0,120
1,note_on,63,0,0
1,note_on,65,77,120
1,note_on,77,91,0
1,note_on,77,0,720
1,note_on,65,0,0
1,note_on,67,62,0
1,note_on,79,74,0
1,note_on,79,0,120
1,note_on,67,0,0
1,note_on,69,71,120
1,note_on,81,84,0
1,note_on,81,0,120
1,note_on,69,0,0
1,note_on,70,68,120
1,note_on,82,81,0
1,note_on,82,0,120
1,note_on,70,0,0
1,note_on,72,74,120
1,note_on,84,87,0
1,note_on,84,0,120
1,note_on,72,0,0
1,note_on,74,69,120
1,note_on,86,83,0
1,note_on,86,0,120
1,note_on,74,0,0
1,note_on,75,81,120
1,note_on,87,96,0
1,note_on,87,0,720
1,note_on,75,0,0
1,note_on,74,71,0
1,note_on,86,84,0
1,note_on,86,0,120
1,note_on,74,0,0
1,note_on,72,78,120
1,note_on,84,94,0
1,note_on,84,0,720
1,note_on,72,0,0
1,note_on,70,70,0
1,note_on,82,83,0
1,note_on,82,0,120
1,note_on,70,0,0
1,note_on,69,78,120
1,note_on,81,92,0
1,note_on,81,0,720
1,note_on,69,0,0
1,note_on,67,62,0
1,note_on,79,74,0
1,note_on,79,0,120
1,note_on,67,0,0
1,note_on,65,70,120
1,note_on,77,83,0
1,note_on,77,0,120
1,note_on,65,0,0
1,note_on,63,66,120
1,note_on,75,78,0
1,note_on,75,0,120
1,note_on,63,0,0
1,note_on,62,70,120
1,note_on,74,83,0
1,note_on,74,0,120
1,note_on,62,0,0
1,note_on,60,64,120
1,note_on,72,77,0
1,note_on,72,0,120
1,note_on,60,0,0
1,note_on,58,78,120
1,note_on,70,90,0
1,note_on,70,0,120
1,note_on,58,0,0
1,note_on,69,53,360
1,note_on,69,0,120
1,note_on,68,45,0
1,note_on,68,0,120
1,note_on,69,53,0
1,note_on,69,0,120
1,note_on,65,43,0
1,note_on,65,0,120
1,note_on,70,57,0
1,note_on,70,0,120
1,note_on,81,53,360
1,note_on,81,0,120
1,note_on,80,45,0
1,note_on,80,0,120
1,note_on,81,53,0
1,note_on,81,0,120
1,note_on,77,43,0
1,note_on,77,0,120
1,note_on,82,57,0
1,note_on,82,0,120
1,note_on,81,91,840
1,note_on,77,77,0
1,note_on,75,77,0
1,note_on,72,77,0
1,note_on,69,77,0
1,note_on,69,0,480
1,note_on,75,0,0
1,note_on,81,0,0
1,note_on,77,0,0
1,note_on,72,0,0
1,note_on,82,97,480
1,note_on,77,82,0
1,note_on,74,82,0
1,note_on,70,82,0
1,note_on,70,0,480
1,note_on,82,0,0
1,note_on,77,0,0
1,note_on,74,0,0
2,note_on,34,30,1920
2,note_on,46,36,0
2,note_on,46,0,90
2,note_on,34,0,0
2,note_on,34,27,390
2,note_on,46,32,0
2,note_on,46,0,90
2,note_on,34,0,0
2,note_on,34,30,1350
2,note_on,46,36,0
2,note_on,46,0,90
2,note_on,34,0,0
2,note_on,34,27,390
2,note_on,46,32,0
2,note_on,46,0,90
2,note_on,34,0,0
2,note_on,46,44,3270
2,note_on,46,0,120
2,note_on,50,31,0
2,note_on,50,0,120
2,note_on,53,31,0
2,note_on,53,0,120
2,note_on,58,31,0
2,note_on,58,0,120
2,note_on,46,44,0
2,note_on,46,0,120
2,note_on,50,32,0
2,note_on,50,0,120
2,note_on,53,32,0
2,note_on,53,0,120
2,note_on,58,32,0
2,note_on,58,0,120
2,note_on,46,44,0
2,note_on,46,0,120
2,note_on,50,33,0
2,note_on,50,0,120
2,note_on,53,33,0
2,note_on,53,0,120
2,note_on,58,33,0
2,note_on,58,0,120
2,note_on,46,44,0
2,note_on,46,0,120
2,note_on,50,33,0
2,note_on,50,0,120
2,note_on,53,33,0
2,note_on,53,0,120
2,note_on,58,33,0
2,note_on,58,0,120
2,note_on,46,44,0
2,note_on,46,0,120
2,note_on,51,31,0
2,note_on,51,0,120
2,note_on,55,31,0
2,note_on,55,0,120
2,note_on,58,31,0
2,note_on,58,0,120
2,note_on,46,42,0
2,note_on,46,0,120
2,note_on,51,28,0
2,note_on,51,0,120
2,note_on,55,28,0
2,note_on,55,0,120
2,note_on,58,28,0
2,note_on,58,0,120
2,note_on,46,41,0
2,note_on,46,0,120
2,note_on,51,29,0
2,note_on,51,0,120
2,note_on,53,29,0
2,note_on,53,0,120
2,note_on,57,29,0
2,note_on,57,0,120
2,note_on,46,41,0
2,note_on,46,0,120
2,note_on,51,31,0
2,note_on,51,0,120
2,note_on,53,31,0
2,note_on,53,0,120
2,note_on,57,31,0
2,note_on,57,0,120
2,note_on,46,44,0
2,note_on,46,0,120
2,note_on,50,31,0
2,note_on,50,0,120
2,note_on,53,31,0
2,note_on,53,0,120
2,note_on,58,31,0
2,note_on,58,0,120
2,note_on,46,44,0
2,note_on,46,0,120
2,note_on,50,32,0
2,note_on,50,0,120
2,note_on,53,32,0
2,note_on,53,0,120
2,note_on,58,32,0
2,note_on,58,0,120
2,note_on,46,44,0
2,note_on,46,0,120
2,note_on,50,32,0
2,note_on,50,0,120
2,note_on,53,32,0
2,note_on,53,0,120
2,note_on,56,32,0
2,note_on,56,0,120
2,note_on,46,44,0
2,note_on,46,0,120
2,note_on,50,32,0
2,note_on,50,0,120
2,note_on,53,32,0
2,note_on,53,0,120
2,note_on,56,32,0
2,note_on,56,0,120
2,note_on,46,44,0
2,note_on,46,0,120
2,note_on,51,32,0
2,note_on,51,0,120
2,note_on,55,32,0
2,note_on,55,0,120
2,note_on,51,32,0
2,note_on,51,0,120
2,note_on,46,44,0
2,note_on,46,0,120
2,note_on,51,36,0
2,note_on,51,0,120
2,note_on,55,36,0
2,note_on,55,0,120
2,note_on,51,36,0
2,note_on,51,0,120
2,note_on,46,48,0
2,note_on,46,0,120
2,note_on,48,37,0
2,note_on,48,0,120
2,note_on,51,38,0
2,note_on,51,0,120
2,note_on,53,40,0
2,note_on,53,0,120
2,note_on,46,50,0
2,note_on,46,0,120
2,note_on,48,40,0
2,note_on,48,0,120
2,note_on,51,39,0
2,note_on,51,0,120
2,note_on,53,43,0
2,note_on,53,0,120
2,note_on,46,60,0
2,note_on,46,0,120
2,note_on,46,53,360
2,note_on,46,0,120
2,note_on,45,46,0
2,note_on,45,0,120
2,note_on,46,53,0
2,note_on,46,0,120
2,note_on,43,46,0
2,note_on,43,0,120
2,note_on,41,60,0
2,note_on,41,0,120
2,note_on,51,53,360
2,note_on,51,0,120
2,note_on,50,46,0
2,note_on,50,0,120
2,note_on,51,53,0
2,note_on,51,0,120
2,note_on,48,46,0
2,note_on,48,0,120
2,note_on,46,60,0
2,note_on,46,0,120
2,note_on,58,53,360
2,note_on,58,0,120
2,note_on,57,46,0
2,note_on,57,0,120
2,note_on,58,53,0
2,note_on,58,0,120
2,note_on,55,46,0
2,note_on,55,0,120
2,note_on,53,60,0
2,note_on,53,0,120
2,note_on,63,60,360
2,note_on,63,0,120
2,note_on,62,52,0
2,note_on,62,0,120
2,note_on,63,60,0
2,note_on,63,0,120
2,note_on,60,52,0
2,note_on,60,0,120
2,note_on,58,69,0
2,note_on,58,0,120
2,note_on,60,53,120
2,note_on,60,0,120
2,note_on,62,48,0
2,note_on,62,0,120
2,note_on,63,54,0
2,note_on,63,0,120
2,note_on,65,48,0
2,note_on,65,0,120
2,note_on,67,48,0
2,note_on,67,0,120
2,note_on,69,49,0
2,note_on,69,0,120
2,note_on,70,56,0
2,note_on,70,0,120
2,note_on,69,50,0
2,note_on,69,0,120
2,note_on,70,50,0
2,note_on,70,0,120
2,note_on,72,51,0
2,note_on,72,0,120
2,note_on,74,58,0
2,note_on,74,0,120
2,note_on,72,52,0
2,note_on,72,0,120
2,note_on,74,52,0
2,note_on,74,0,120
2,note_on,76,53,0
2,note_on,76,0,120
2,note_on,77,73,0
2,note_on,77,0,120
2,note_on,53,60,360
2,note_on,53,0,120
2,note_on,46,65,840
2,note_on,46,0,120
2,note_on,45,57,0
2,note_on,45,0,120
2,note_on,46,62,0
2,note_on,46,0,120
2,note_on,41,55,0
2,note_on,41,0,120
2,note_on,50,65,0
2,note_on,50,0,120
2,note_on,49,58,0
2,note_on,49,0,120
2,note_on,50,63,0
2,note_on,50,0,120
2,note_on,46,57,0
2,note_on,46,0,120
2,note_on,53,65,0
2,note_on,53,0,120
2,note_on,52,58,0
2,note_on,52,0,120
2,note_on,53,63,0
2,note_on,53,0,120
2,note_on,50,57,0
2,note_on,50,0,120
2,note_on,58,65,0
2,note_on,58,0,120
2,note_on,57,58,0
2,note_on,57,0,120
2,note_on,58,63,0
2,note_on,58,0,120
2,note_on,53,57,0
2,note_on,53,0,120
2,note_on,62,63,0
2,note_on,62,0,120
2,note_on,61,58,0
2,note_on,61,0,120
2,note_on,62,62,0
2,note_on,62,0,120
2,note_on,58,57,0
2,note_on,58,0,120
2,note_on,65,72,0
2,note_on,65,0,840
2,note_on,63,63,0
2,note_on,63,0,120
2,note_on,62,71,0
2,note_on,62,0,360
2,note_on,60,63,0
2,note_on,60,0,120
2,note_on,58,72,0
2,note_on,58,0,360
2,note_on,56,63,0
2,note_on,56,0,120
2,note_on,55,72,0
2,note_on,55,0,960
2,note_on,56,48,0
2,note_on,56,0,480
2,note_on,54,42,0
2,note_on,54,0,480
2,note_on,55,51,0
2,note_on,55,0,480
2,note_on,52,44,0
2,note_on,52,0,480
2,note_on,53,52,0
2,note_on,53,0,480
2,note_on,50,34,0
2,note_on,50,0,480
2,note_on,36,51,0
2,note_on,48,51,0
2,note_on,48,0,240
2,note_on,36,0,0
2,note_on,60,42,0
2,note_on,60,0,137
2,note_on,60,42,103
2,note_on,60,0,137
2,note_on,60,42,103
2,note_on,60,0,137
2,note_on,60,51,103
2,note_on,60,0,137
2,note_on,60,43,103
2,note_on,60,0,137
2,note_on,60,43,103
2,note_on,60,0,137
2,note_on,60,43,103
2,note_on,60,0,137
2,note_on,60,51,103
2,note_on,60,0,137
2,note_on,60,42,103
2,note_on,60,0,137
2,note_on,60,42,103
2,note_on,60,0,137
2,note_on,60,42,103
2,note_on,60,0,137
2,note_on,60,51,103
2,note_on,60,0,137
2,note_on,60,43,103
2,note_on,60,0,137
2,note_on,60,43,103
2,note_on,60,0,137
2,note_on,60,43,103
2,note_on,60,0,144
2,note_on,36,51,96
2,note_on,48,51,0
2,note_on,48,0,240
2,note_on,36,0,0
2,note_on,60,42,0
2,note_on,60,0,137
2,note_on,60,42,103
2,note_on,60,0,137
2,note_on,60,42,103
2,note_on,60,0,137
2,note_on,60,51,103
2,note_on,60,0,137
2,note_on,60,43,103
2,note_on,60,0,137
2,note_on,60,43,103
2,note_on,60,0,137
2,note_on,60,43,103
2,note_on,60,0,137
2,note_on,60,51,103
2,note_on,60,0,137
2,note_on,60,42,103
2,note_on,60,0,137
2,note_on,60,42,103
2,note_on,60,0,137
2,note_on,60,42,103
2,note_on,60,0,137
2,note_on,60,51,103
2,note_on,60,0,137
2,note_on,60,43,103
2,note_on,60,0,137
2,note_on,60,43,103
2,note_on,60,0,137
2,note_on,60,43,103
2,note_on,60,0,144
2,note_on,48,51,96
2,note_on,48,0,228
2,note_on,60,43,12
2,note_on,60,0,137
2,note_on,60,43,103
2,note_on,60,0,137
2,note_on,60,43,103
2,note_on,60,0,144
2,note_on,48,51,96
2,note_on,48,0,228
2,note_on,60,43,12
2,note_on,60,0,137
2,note_on,60,43,103
2,note_on,60,0,137
2,note_on,60,43,103
2,note_on,60,0,144
2,note_on,48,51,96
2,note_on,48,0,480
2,note_on,53,31,1560
2,note_on,55,36,120
2,note_on,53,0,12
2,note_on,57,31,108
2,note_on,55,0,12
2,note_on,58,36,108
2,note_on,57,0,12
2,note_on,60,31,108
2,note_on,58,0,12
2,note_on,62,36,108
2,note_on,60,0,12
2,note_on,64,29,108
2,note_on,62,0,12
2,note_on,65,36,108
2,note_on,64,0,12
2,note_on,64,29,108
2,note_on,65,0,12
2,note_on,65,36,108
2,note_on,64,0,12
2,note_on,64,29,108
2,note_on,65,0,12
2,note_on,65,36,108
2,note_on,64,0,12
2,note_on,64,27,108
2,note_on,65,0,12
2,note_on,65,34,108
2,note_on,64,0,12
2,note_on,64,26,108
2,note_on,65,0,12
2,note_on,64,0,108
2,note_on,65,30,0
2,note_on,64,25,120
2,note_on,65,0,12
2,note_on,65,30,108
2,note_on,64,0,12
2,note_on,64,25,108
2,note_on,65,0,12
2,note_on,65,30,108
2,note_on,64,0,12
2,note_on,64,25,108
2,note_on,65,0,12
2,note_on,65,30,108
2,note_on,64,0,12
2,note_on,64,25,108
2,note_on,65,0,12
2,note_on,65,30,108
2,note_on,64,0,12
2,note_on,64,25,108
2,note_on,65,0,12
2,note_on,65,30,108
2,note_on,64,0,12
2,note_on,64,25,108
2,note_on,65,0,12
2,note_on,65,30,108
2,note_on,64,0,12
2,note_on,64,25,108
2,note_on,65,0,12
2,note_on,65,30,108
2,note_on,64,0,12
2,note_on,64,25,108
2,note_on,65,0,12
2,note_on,64,0,108
2,note_on,65,30,0
2,note_on,65,0,120
2,note_on,53,31,0
2,note_on,55,36,120
2,note_on,53,0,12
2,note_on,57,31,108
2,note_on,55,0,12
2,note_on,58,36,108
2,note_on,57,0,12
2,note_on,60,31,108
2,note_on,58,0,12
2,note_on,62,36,108
2,note_on,60,0,12
2,note_on,64,29,108
2,note_on,62,0,12
2,note_on,65,36,108
2,note_on,64,0,12
2,note_on,64,29,108
2,note_on,65,0,12
2,note_on,65,36,108
2,note_on,64,0,12
2,note_on,64,29,108
2,note_on,65,0,12
2,note_on,65,36,108
2,note_on,64,0,12
2,note_on,64,27,108
2,note_on,65,0,12
2,note_on,65,34,108
2,note_on,64,0,12
2,note_on,64,26,108
2,note_on,65,0,12
2,note_on,64,0,108
2,note_on,65,30,0
2,note_on,64,25,120
2,note_on,65,0,12
2,note_on,65,30,108
2,note_on,64,0,12
2,note_on,64,25,108
2,note_on,65,0,12
2,note_on,65,30,108
2,note_on,64,0,12
2,note_on,64,25,108
2,note_on,65,0,12
2,note_on,65,30,108
2,note_on,64,0,12
2,note_on,64,25,108
2,note_on,65,0,12
2,note_on,65,30,108
2,note_on,64,0,12
2,note_on,64,25,108
2,note_on,65,0,12
2,note_on,65,30,108
2,note_on,64,0,12
2,note_on,64,25,108
2,note_on,65,0,12
2,note_on,65,30,108
2,note_on,64,0,12
2,note_on,63,25,108
2,note_on,65,0,12
2,note_on,65,30,108
2,note_on,63,0,12
2,note_on,63,25,108
2,note_on,65,0,12
2,note_on,63,0,108
2,note_on,61,39,0
2,note_on,62,34,120
2,note_on,61,0,60
2,note_on,62,0,60
2,note_on,61,39,0
2,note_on,62,35,120
2,note_on,61,0,60
2,note_on,62,0,60
2,note_on,59,41,0
2,note_on,60,35,120
2,note_on,59,0,60
2,note_on,60,0,60
2,note_on,59,42,0
2,note_on,60,36,120
2,note_on,59,0,60
2,note_on,60,0,60
2,note_on,56,44,0
2,note_on,57,37,120
2,note_on,56,0,60
2,note_on,57,0,60
2,note_on,56,45,0
2,note_on,57,37,120
2,note_on,56,0,60
2,note_on,57,0,60
2,note_on,53,44,0
2,note_on,54,38,120
2,note_on,53,0,60
2,note_on,54,0,60
2,note_on,53,44,0
2,note_on,54,39,120
2,note_on,53,0,60
2,note_on,54,0,60
2,note_on,49,45,0
2,note_on,50,39,120
2,note_on,49,0,60
2,note_on,50,0,60
2,note_on,49,46,0
2,note_on,50,40,120
2,note_on,49,0,60
2,note_on,50,0,60
2,note_on,47,48,0
2,note_on,48,41,120
2,note_on,47,0,60
2,note_on,48,0,60
2,note_on,47,48,0
2,note_on,48,41,120
2,note_on,47,0,60
2,note_on,48,0,60
2,note_on,44,54,0
2,note_on,45,42,120
2,note_on,44,0,60
2,note_on,45,0,60
2,note_on,44,52,0
2,note_on,45,43,120
2,note_on,44,0,60
2,note_on,45,0,60
2,note_on,41,55,0
2,note_on,42,44,120
2,note_on,41,0,60
2,note_on,42,0,60
2,note_on,41,51,0
2,note_on,42,44,120
2,note_on,41,0,60
2,note_on,42,0,60
2,note_on,37,57,0
2,note_on,38,44,120
2,note_on,37,0,60
2,note_on,38,0,60
2,note_on,37,51,0
2,note_on,38,44,120
2,note_on,37,0,60
2,note_on,38,0,60
2,note_on,37,56,0
2,note_on,38,50,120
2,note_on,37,0,60
2,note_on,38,0,60
2,note_on,37,57,0
2,note_on,38,44,120
2,note_on,37,0,60
2,note_on,38,0,50
2,note_on,38,61,10
2,note_on,39,52,120
2,note_on,38,0,60
2,note_on,39,0,60
2,note_on,38,58,0
2,note_on,39,52,120
2,note_on,38,0,60
2,note_on,39,0,60
2,note_on,39,58,0
2,note_on,40,44,120
2,note_on,39,0,60
2,note_on,40,0,60
2,note_on,39,54,0
2,note_on,40,44,120
2,note_on,39,0,60
2,note_on,40,0,60
2,note_on,40,56,0
2,note_on,41,48,120
2,note_on,40,0,60
2,note_on,41,0,60
2,note_on,40,51,0
2,note_on,41,44,120
2,note_on,40,0,60
2,note_on,41,0,60
2,note_on,40,51,0
2,note_on,41,44,120
2,note_on,40,0,60
2,note_on,41,0,60
2,note_on,40,51,0
2,note_on,41,44,120
2,note_on,40,0,60
2,note_on,41,0,50
2,note_on,33,51,10
2,note_on,34,44,120
2,note_on,33,0,60
2,note_on,34,0,60
2,note_on,33,51,0
2,note_on,34,44,120
2,note_on,33,0,60
2,note_on,34,0,50
2,note_on,35,51,10
2,note_on,36,44,120
2,note_on,35,0,60
2,note_on,36,0,60
2,note_on,35,51,0
2,note_on,36,44,120
2,note_on,35,0,60
2,note_on,36,0,50
2,note_on,29,48,10
2,note_on,29,0,240
2,note_on,53,54,720
2,note_on,57,64,0
2,note_on,53,0,950
2,note_on,57,0,10
2,note_on,50,41,0
2,note_on,53,49,0
2,note_on,50,0,470
2,note_on,53,0,10
2,note_on,46,41,0
2,note_on,50,49,0
2,note_on,50,0,240
2,note_on,46,0,0
2,note_on,55,54,240
2,note_on,58,64,0
2,note_on,58,0,720
2,note_on,55,0,0
2,note_on,53,41,0
2,note_on,57,49,0
2,note_on,57,0,240
2,note_on,53,0,0
2,note_on,52,49,0
2,note_on,55,58,0
2,note_on,52,0,470
2,note_on,55,0,10
2,note_on,48,44,0
2,note_on,52,52,0
2,note_on,52,0,240
2,note_on,48,0,0
2,note_on,57,54,240
2,note_on,60,64,0
2,note_on,57,0,950
2,note_on,60,0,10
2,note_on,53,41,0
2,note_on,57,49,0
2,note_on,53,0,470
2,note_on,57,0,10
2,note_on,50,41,0
2,note_on,53,49,0
2,note_on,53,0,240
2,note_on,50,0,0
2,note_on,58,54,240
2,note_on,62,64,0
2,note_on,62,0,720
2,note_on,58,0,0
2,note_on,57,41,0
2,note_on,60,49,0
2,note_on,60,0,240
2,note_on,57,0,0
2,note_on,55,49,0
2,note_on,58,58,0
2,note_on,55,0,470
2,note_on,58,0,10
2,note_on,52,44,0
2,note_on,55,52,0
2,note_on,55,0,240
2,note_on,52,0,0
2,note_on,58,54,240
2,note_on,67,64,0
2,note_on,67,0,720
2,note_on,58,0,0
2,note_on,57,41,0
2,note_on,65,49,0
2,note_on,65,0,240
2,note_on,57,0,0
2,note_on,55,54,0
2,note_on,64,64,0
2,note_on,64,0,720
2,note_on,55,0,0
2,note_on,53,41,0
2,note_on,62,41,0
2,note_on,62,0,240
2,note_on,53,0,0
2,note_on,52,41,0
2,note_on,60,49,0
2,note_on,60,0,480
2,note_on,52,0,0
2,note_on,50,34,0
2,note_on,53,41,0
2,note_on,53,0,480
2,note_on,50,0,0
2,note_on,49,36,0
2,note_on,52,43,0
2,note_on,52,0,480
2,note_on,49,0,0
2,note_on,45,27,0
2,note_on,52,32,0
2,note_on,52,0,480
2,note_on,45,0,0
2,note_on,46,33,0
2,note_on,50,39,0
2,note_on,50,0,480
2,note_on,46,0,0
2,note_on,47,31,0
2,note_on,47,0,480
2,note_on,48,38,0
2,note_on,48,0,960
2,note_on,36,32,0
2,note_on,36,0,960
2,note_on,29,35,0
2,note_on,29,0,960
2,note_on,57,66,0
2,note_on,53,55,0
2,note_on,53,0,720
2,note_on,57,0,0
2,note_on,53,37,0
2,note_on,57,44,0
2,note_on,57,0,120
2,note_on,53,0,0
2,note_on,50,45,120
2,note_on,53,53,0
2,note_on,53,0,120
2,note_on,50,0,0
2,note_on,46,39,360
2,note_on,50,47,0
2,note_on,50,0,120
2,note_on,46,0,0
2,note_on,58,66,360
2,note_on,55,55,0
2,note_on,55,0,720
2,note_on,58,0,0
2,note_on,53,37,0
2,note_on,57,44,0
2,note_on,57,0,120
2,note_on,53,0,0
2,note_on,52,45,120
2,note_on,55,53,0
2,note_on,55,0,120
2,note_on,52,0,0
2,note_on,48,39,360
2,note_on,52,47,0
2,note_on,52,0,120
2,note_on,48,0,0
2,note_on,60,72,360
2,note_on,57,60,0
2,note_on,57,0,720
2,note_on,60,0,0
2,note_on,57,40,0
2,note_on,60,48,0
2,note_on,60,0,120
2,note_on,57,0,0
2,note_on,53,49,120
2,note_on,57,58,0
2,note_on,57,0,120
2,note_on,53,0,0
2,note_on,50,42,360
2,note_on,53,51,0
2,note_on,53,0,120
2,note_on,50,0,0
2,note_on,62,75,360
2,note_on,58,62,0
2,note_on,58,0,720
2,note_on,62,0,0
2,note_on,57,42,0
2,note_on,60,50,0
2,note_on,60,0,120
2,note_on,57,0,0
2,note_on,55,51,120
2,note_on,58,60,0
2,note_on,58,0,120
2,note_on,55,0,0
2,note_on,52,44,360
2,note_on,55,53,0
2,note_on,55,0,120
2,note_on,52,0,0
2,note_on,67,79,360
2,note_on,58,66,0
2,note_on,58,0,720
2,note_on,67,0,0
2,note_on,57,44,0
2,note_on,65,52,0
2,note_on,65,0,120
2,note_on,57,0,0
2,note_on,64,79,120
2,note_on,55,66,0
2,note_on,55,0,720
2,note_on,64,0,0
2,note_on,53,44,0
2,note_on,62,52,0
2,note_on,62,0,120
2,note_on,53,0,0
2,note_on,52,49,120
2,note_on,60,58,0
2,note_on,60,0,120
2,note_on,52,0,0
2,note_on,50,40,360
2,note_on,53,49,0
2,note_on,53,0,120
2,note_on,50,0,0
2,note_on,49,34,360
2,note_on,52,34,0
2,note_on,55,40,0
2,note_on,55,0,1920
2,note_on,52,0,0
2,note_on,49,0,0
2,note_on,50,34,0
2,note_on,53,40,0
2,note_on,53,0,1920
2,note_on,50,0,0
2,note_on,47,34,0
2,note_on,50,34,0
2,note_on,53,40,0
2,note_on,53,0,1920
2,note_on,50,0,0
2,note_on,47,0,0
2,note_on,46,57,0
2,note_on,49,57,0
2,note_on,52,57,0
2,note_on,55,68,0
2,note_on,55,0,1200
2,note_on,46,0,0
2,note_on,49,0,0
2,note_on,52,0,0
2,note_on,46,50,0
2,note_on,48,50,0
2,note_on,55,60,0
2,note_on,55,0,120
2,note_on,48,0,0
2,note_on,46,0,0
2,note_on,46,61,120
2,note_on,48,61,0
2,note_on,55,72,0
2,note_on,55,0,120
2,note_on,48,0,0
2,note_on,46,0,0
2,note_on,46,51,120
2,note_on,48,51,0
2,note_on,55,61,0
2,note_on,55,0,120
2,note_on,48,0,0
2,note_on,46,0,0
2,note_on,45,73,120
2,note_on,48,73,0
2,note_on,53,73,0
2,note_on,53,0,480
2,note_on,48,0,0
2,note_on,45,0,0
2,note_on,40,57,240
2,note_on,48,68,0
2,note_on,48,0,120
2,note_on,40,0,0
2,note_on,41,63,120
2,note_on,48,75,0
2,note_on,48,0,120
2,note_on,41,0,0
2,note_on,46,56,120
2,note_on,48,67,0
2,note_on,48,0,120
2,note_on,46,0,0
2,note_on,45,63,120
2,note_on,48,75,0
2,note_on,48,0,120
2,note_on,45,0,0
2,note_on,40,56,120
2,note_on,48,67,0
2,note_on,48,0,120
2,note_on,40,0,0
2,note_on,41,63,120
2,note_on,48,75,0
2,note_on,48,0,120
2,note_on,41,0,0
2,note_on,46,56,120
2,note_on,48,67,0
2,note_on,48,0,120
2,note_on,46,0,0
2,note_on,45,63,120
2,note_on,48,75,0
2,note_on,48,0,120
2,note_on,45,0,0
2,note_on,40,56,120
2,note_on,48,67,0
2,note_on,48,0,120
2,note_on,40,0,0
2,note_on,41,63,120
2,note_on,48,75,0
2,note_on,48,0,120
2,note_on,41,0,0
2,note_on,46,56,120
2,note_on,48,67,0
2,note_on,48,0,120
2,note_on,46,0,0
2,note_on,45,63,120
2,note_on,48,75,0
2,note_on,48,0,120
2,note_on,45,0,0
2,note_on,40,57,120
2,note_on,48,68,0
2,note_on,48,0,120
2,note_on,40,0,0
2,note_on,41,89,120
2,note_on,41,0,960
2,note_on,38,80,0
2,note_on,38,0,960
2,note_on,34,88,0
2,note_on,34,0,960
2,note_on,36,84,0
2,note_on,36,0,960
2,note_on,29,81,0
2,note_on,29,0,120
2,note_on,46,54,120
2,note_on,46,0,120
2,note_on,45,60,120
2,note_on,45,0,120
2,note_on,40,54,120
2,note_on,40,0,120
2,note_on,41,60,120
2,note_on,41,0,120
2,note_on,46,52,120
2,note_on,46,0,120
2,note_on,45,60,120
2,note_on,45,0,120
2,note_on,40,58,120
2,note_on,40,0,120
2,note_on,41,60,120
2,note_on,41,0,120
2,note_on,46,52,120
2,note_on,46,0,120
2,note_on,45,60,120
2,note_on,45,0,120
2,note_on,40,58,120
2,note_on,40,0,120
2,note_on,41,67,120
2,note_on,41,0,120
2,note_on,43,59,120
2,note_on,43,0,120
2,note_on,41,72,120
2,note_on,41,0,120
2,note_on,40,67,120
2,note_on,40,0,120
2,note_on,38,75,120
2,note_on,38,0,120
2,note_on,36,77,120
2,note_on,36,0,120
2,note_on,34,80,120
2,note_on,34,0,120
2,note_on,33,82,120
2,note_on,33,0,120
2,note_on,31,94,120
2,note_on,31,0,1920
2,note_on,36,87,0
2,note_on,36,0,960
2,note_on,29,30,0
2,note_on,29,0,120
2,note_on,41,26,0
2,note_on,41,0,120
2,note_on,29,30,0
2,note_on,29,0,120
2,note_on,41,25,0
2,note_on,41,0,120
2,note_on,29,30,0
2,note_on,29,0,120
2,note_on,41,26,0
2,note_on,41,0,120
2,note_on,29,30,0
2,note_on,29,0,120
2,note_on,41,27,0
2,note_on,41,0,120
2,note_on,29,30,0
2,note_on,29,0,120
2,note_on,41,27,0
2,note_on,41,0,120
2,note_on,29,30,0
2,note_on,29,0,120
2,note_on,41,25,0
2,note_on,41,0,120
2,note_on,29,30,0
2,note_on,29,0,120
2,note_on,41,26,0
2,note_on,41,0,120
2,note_on,29,30,0
2,note_on,29,0,120
2,note_on,41,26,0
2,note_on,41,0,120
2,note_on,29,30,0
2,note_on,29,0,120
2,note_on,41,26,0
2,note_on,41,0,120
2,note_on,29,30,0
2,note_on,29,0,120
2,note_on,41,25,0
2,note_on,41,0,120
2,note_on,29,30,0
2,note_on,29,0,120
2,note_on,41,26,0
2,note_on,41,0,120
2,note_on,29,30,0
2,note_on,29,0,120
2,note_on,41,27,0
2,note_on,41,0,120
2,note_on,29,30,0
2,note_on,29,0,120
2,note_on,41,27,0
2,note_on,41,0,120
2,note_on,29,30,0
2,note_on,29,0,120
2,note_on,41,25,0
2,note_on,41,0,120
2,note_on,29,30,0
2,note_on,29,0,120
2,note_on,41,26,0
2,note_on,41,0,120
2,note_on,29,30,0
2,note_on,29,0,120
2,note_on,41,26,0
2,note_on,41,0,120
2,note_on,29,30,0
2,note_on,29,0,120
2,note_on,41,26,0
2,note_on,41,0,120
2,note_on,29,30,0
2,note_on,29,0,120
2,note_on,41,25,0
2,note_on,41,0,120
2,note_on,29,30,0
2,note_on,29,0,120
2,note_on,41,26,0
2,note_on,41,0,120
2,note_on,29,30,0
2,note_on,29,0,120
2,note_on,41,27,0
2,note_on,41,0,120
2,note_on,29,30,0
2,note_on,29,0,120
2,note_on,41,27,0
2,note_on,41,0,120
2,note_on,29,35,0
2,note_on,29,0,120
2,note_on,41,29,0
2,note_on,41,0,120
2,note_on,29,34,0
2,note_on,29,0,120
2,note_on,41,26,0
2,note_on,41,0,120
2,note_on,29,35,0
2,note_on,29,0,120
2,note_on,41,31,0
2,note_on,41,0,120
2,note_on,29,38,0
2,note_on,29,0,120
2,note_on,41,30,0
2,note_on,41,0,120
2,note_on,29,34,0
2,note_on,29,0,120
2,note_on,41,25,0
2,note_on,41,0,120
2,note_on,29,33,0
2,note_on,29,0,120
2,note_on,41,26,0
2,note_on,41,0,120
2,note_on,29,30,0
2,note_on,29,0,120
2,note_on,41,27,0
2,note_on,41,0,120
2,note_on,29,30,0
2,note_on,29,0,120
2,note_on,41,27,0
2,note_on,41,0,120
2,note_on,29,30,0
2,note_on,29,0,120
2,note_on,41,25,0
2,note_on,41,0,120
2,note_on,29,30,0
2,note_on,29,0,120
2,note_on,41,26,0
2,note_on,41,0,120
2,note_on,29,30,0
2,note_on,29,0,120
2,note_on,41,26,0
2,note_on,41,0,120
2,note_on,29,30,0
2,note_on,29,0,120
2,note_on,41,25,0
2,note_on,41,0,120
2,note_on,29,29,0
2,note_on,29,0,120
2,note_on,41,24,0
2,note_on,41,0,120
2,note_on,29,28,0
2,note_on,29,0,120
2,note_on,41,24,0
2,note_on,41,0,120
2,note_on,29,28,0
2,note_on,29,0,120
2,note_on,41,25,0
2,note_on,41,0,120
2,note_on,29,27,0
2,note_on,29,0,120
2,note_on,41,24,0
2,note_on,41,0,120
2,note_on,29,27,0
2,note_on,29,0,120
2,note_on,41,22,0
2,note_on,41,0,120
2,note_on,29,26,0
2,note_on,29,0,120
2,note_on,41,22,0
2,note_on,41,0,120
2,note_on,29,25,0
2,note_on,29,0,120
2,note_on,41,22,0
2,note_on,41,0,120
2,note_on,29,25,0
2,note_on,29,0,120
2,note_on,41,21,0
2,note_on,41,0,120
2,note_on,29,24,0
2,note_on,29,0,120
2,note_on,41,20,0
2,note_on,41,0,120
2,note_on,29,24,0
2,note_on,29,0,120
2,note_on,41,20,0
2,note_on,41,0,120
2,note_on,29,23,0
2,note_on,29,0,120
2,note_on,41,20,0
2,note_on,41,0,120
2,note_on,29,22,0
2,note_on,29,0,120
2,note_on,41,20,0
2,note_on,41,0,120
2,note_on,29,22,0
2,note_on,29,0,120
2,note_on,41,18,0
2,note_on,41,0,120
2,note_on,29,22,0
2,note_on,29,0,120
2,note_on,41,19,0
2,note_on,41,0,120
2,note_on,29,22,0
2,note_on,29,0,120
2,note_on,41,19,0
2,note_on,41,0,120
2,note_on,29,56,0
2,note_on,41,66,0
2,note_on,41,0,720
2,note_on,29,0,0
2,note_on,31,49,0
2,note_on,43,59,0
2,note_on,43,0,120
2,note_on,31,0,0
2,note_on,33,56,120
2,note_on,45,66,0
2,note_on,45,0,720
2,note_on,33,0,0
2,note_on,34,50,0
2,note_on,46,60,0
2,note_on,46,0,120
2,note_on,34,0,0
2,note_on,36,57,120
2,note_on,48,68,0
2,note_on,48,0,720
2,note_on,36,0,0
2,note_on,38,47,0
2,note_on,50,56,0
2,note_on,50,0,120
2,note_on,38,0,0
2,note_on,40,53,120
2,note_on,52,63,0
2,note_on,52,0,120
2,note_on,40,0,0
2,note_on,41,50,120
2,note_on,53,60,0
2,note_on,53,0,120
2,note_on,41,0,0
2,note_on,43,55,120
2,note_on,55,65,0
2,note_on,55,0,120
2,note_on,43,0,0
2,note_on,45,51,120
2,note_on,57,61,0
2,note_on,57,0,120
2,note_on,45,0,0
2,note_on,46,61,120
2,note_on,58,72,0
2,note_on,58,0,720
2,note_on,46,0,0
2,note_on,45,52,0
2,note_on,57,63,0
2,note_on,57,0,120
2,note_on,45,0,0
2,note_on,43,59,120
2,note_on,55,69,0
2,note_on,55,0,720
2,note_on,43,0,0
2,note_on,41,51,0
2,note_on,53,61,0
2,note_on,53,0,120
2,note_on,41,0,0
2,note_on,40,58,120
2,note_on,52,69,0
2,note_on,52,0,720
2,note_on,40,0,0
2,note_on,38,47,0
2,note_on,50,56,0
2,note_on,50,0,120
2,note_on,38,0,0
2,note_on,36,52,120
2,note_on,48,62,0
2,note_on,48,0,120
2,note_on,36,0,0
2,note_on,34,49,120
2,note_on,46,58,0
2,note_on,46,0,120
2,note_on,34,0,0
2,note_on,33,52,120
2,note_on,45,62,0
2,note_on,45,0,120
2,note_on,33,0,0
2,note_on,31,48,120
2,note_on,43,57,0
2,note_on,43,0,120
2,note_on,31,0,0
2,note_on,29,58,120
2,note_on,41,69,0
2,note_on,41,0,120
2,note_on,29,0,0
2,note_on,48,34,360
2,note_on,55,34,0
2,note_on,58,41,0
2,note_on,58,0,120
2,note_on,55,0,0
2,note_on,48,0,0
2,note_on,53,41,360
2,note_on,57,49,0
2,note_on,57,0,120
2,note_on,53,0,0
2,note_on,60,34,360
2,note_on,67,34,0
2,note_on,70,41,0
2,note_on,70,0,120
2,note_on,67,0,0
2,note_on,60,0,0
2,note_on,65,41,360
2,note_on,69,49,0
2,note_on,69,0,120
2,note_on,65,0,0
2,note_on,48,56,840
2,note_on,60,67,0
2,note_on,60,0,480
2,note_on,48,0,0
2,note_on,41,64,480
2,note_on,53,76,0
2,note_on,53,0,480
2,note_on,41,0,0
2,note_on,34,30,1440
2,note_on,46,36,0
2,note_on,46,0,90
2,note_on,34,0,0
2,note_on,34,27,390
2,note_on,46,32,0
2,note_on,46,0,90
2,note_on,34,0,0
2,note_on,34,30,1350
2,note_on,46,36,0
2,note_on,46,0,90
2,note_on,34,0,0
2,note_on,34,27,390
2,note_on,46,32,0
2,note_on,46,0,90
2,note_on,34,0,0
2,note_on,46,44,3270
2,note_on,46,0,120
2,note_on,50,31,0
2,note_on,50,0,120
2,note_on,53,31,0
2,note_on,53,0,120
2,note_on,58,31,0
2,note_on,58,0,120
2,note_on,46,44,0
2,note_on,46,0,120
2,note_on,50,32,0
2,note_on,50,0,120
2,note_on,53,32,0
2,note_on,53,0,120
2,note_on,58,32,0
2,note_on,58,0,120
2,note_on,46,44,0
2,note_on,46,0,120
2,note_on,50,33,0
2,note_on,50,0,120
2,note_on,53,33,0
2,note_on,53,0,120
2,note_on,58,33,0
2,note_on,58,0,120
2,note_on,46,44,0
2,note_on,46,0,120
2,note_on,50,33,0
2,note_on,50,0,120
2,note_on,53,33,0
2,note_on,53,0,120
2,note_on,58,33,0
2,note_on,58,0,120
2,note_on,46,44,0
2,note_on,46,0,120
2,note_on,51,31,0
2,note_on,51,0,120
2,note_on,55,31,0
2,note_on,55,0,120
2,note_on,58,31,0
2,note_on,58,0,120
2,note_on,46,42,0
2,note_on,46,0,120
2,note_on,51,28,0
2,note_on,51,0,120
2,note_on,55,28,0
2,note_on,55,0,120
2,note_on,58,28,0
2,note_on,58,0,120
2,note_on,46,41,0
2,note_on,46,0,120
2,note_on,51,29,0
2,note_on,51,0,120
2,note_on,53,29,0
2,note_on,53,0,120
2,note_on,57,29,0
2,note_on,57,0,120
2,note_on,46,41,0
2,note_on,46,0,120
2,note_on,51,31,0
2,note_on,51,0,120
2,note_on,53,31,0
2,note_on,53,0,120
2,note_on,57,31,0
2,note_on,57,0,120
2,note_on,46,44,0
2,note_on,46,0,120
2,note_on,50,31,0
2,note_on,50,0,120
2,note_on,53,31,0
2,note_on,53,0,120
2,note_on,58,31,0
2,note_on,58,0,120
2,note_on,46,44,0
2,note_on,46,0,120
2,note_on,50,32,0
2,note_on,50,0,120
2,note_on,53,32,0
2,note_on,53,0,120
2,note_on,58,32,0
2,note_on,58,0,120
2,note_on,46,44,0
2,note_on,46,0,120
2,note_on,50,32,0
2,note_on,50,0,120
2,note_on,53,32,0
2,note_on,53,0,120
2,note_on,56,32,0
2,note_on,56,0,120
2,note_on,46,44,0
2,note_on,46,0,120
2,note_on,50,32,0
2,note_on,50,0,120
2,note_on,53,32,0
2,note_on,53,0,120
2,note_on,56,32,0
2,note_on,56,0,120
2,note_on,46,44,0
2,note_on,46,0,120
2,note_on,51,32,0
2,note_on,51,0,120
2,note_on,55,32,0
2,note_on,55,0,120
2,note_on,51,32,0
2,note_on,51,0,120
2,note_on,46,44,0
2,note_on,46,0,120
2,note_on,51,36,0
2,note_on,51,0,120
2,note_on,55,36,0
2,note_on,55,0,120
2,note_on,51,36,0
2,note_on,51,0,120
2,note_on,46,48,0
2,note_on,46,0,120
2,note_on,48,37,0
2,note_on,48,0,120
2,note_on,51,38,0
2,note_on,51,0,120
2,note_on,53,40,0
2,note_on,53,0,120
2,note_on,46,50,0
2,note_on,46,0,120
2,note_on,48,40,0
2,note_on,48,0,120
2,note_on,51,39,0
2,note_on,51,0,120
2,note_on,53,43,0
2,note_on,53,0,120
2,note_on,46,60,0
2,note_on,46,0,120
2,note_on,46,53,360
2,note_on,46,0,120
2,note_on,45,46,0
2,note_on,45,0,120
2,note_on,46,53,0
2,note_on,46,0,120
2,note_on,43,46,0
2,note_on,43,0,120
2,note_on,41,60,0
2,note_on,41,0,120
2,note_on,51,53,360
2,note_on,51,0,120
2,note_on,50,46,0
2,note_on,50,0,120
2,note_on,51,53,0
2,note_on,51,0,120
2,note_on,48,46,0
2,note_on,48,0,120
2,note_on,46,60,0
2,note_on,46,0,120
2,note_on,58,53,360
2,note_on,58,0,120
2,note_on,57,46,0
2,note_on,57,0,120
2,note_on,58,53,0
2,note_on,58,0,120
2,note_on,55,46,0
2,note_on,55,0,120
2,note_on,53,60,0
2,note_on,53,0,120
2,note_on,63,60,360
2,note_on,63,0,120
2,note_on,62,52,0
2,note_on,62,0,120
2,note_on,63,60,0
2,note_on,63,0,120
2,note_on,60,52,0
2,note_on,60,0,120
2,note_on,58,69,0
2,note_on,58,0,120
2,note_on,60,53,120
2,note_on,60,0,120
2,note_on,62,48,0
2,note_on,62,0,120
2,note_on,63,54,0
2,note_on,63,0,120
2,note_on,65,48,0
2,note_on,65,0,120
2,note_on,67,48,0
2,note_on,67,0,120
2,note_on,69,49,0
2,note_on,69,0,120
2,note_on,70,56,0
2,note_on,70,0,120
2,note_on,69,50,0
2,note_on,69,0,120
2,note_on,70,50,0
2,note_on,70,0,120
2,note_on,72,51,0
2,note_on,72,0,120
2,note_on,74,58,0
2,note_on,74,0,120
2,note_on,72,52,0
2,note_on,72,0,120
2,note_on,74,52,0
2,note_on,74,0,120
2,note_on,76,53,0
2,note_on,76,0,120
2,note_on,77,73,0
2,note_on,77,0,120
2,note_on,53,60,360
2,note_on,53,0,120
2,note_on,46,65,840
2,note_on,46,0,120
2,note_on,45,57,0
2,note_on,45,0,120
2,note_on,46,62,0
2,note_on,46,0,120
2,note_on,41,55,0
2,note_on,41,0,120
2,note_on,50,65,0
2,note_on,50,0,120
2,note_on,49,58,0
2,note_on,49,0,120
2,note_on,50,63,0
2,note_on,50,0,120
2,note_on,46,57,0
2,note_on,46,0,120
2,note_on,53,65,0
2,note_on,53,0,120
2,note_on,52,58,0
2,note_on,52,0,120
2,note_on,53,63,0
2,note_on,53,0,120
2,note_on,50,57,0
2,note_on,50,0,120
2,note_on,58,65,0
2,note_on,58,0,120
2,note_on,57,58,0
2,note_on,57,0,120
2,note_on,58,63,0
2,note_on,58,0,120
2,note_on,53,57,0
2,note_on,53,0,120
2,note_on,62,63,0
2,note_on,62,0,120
2,note_on,61,58,0
2,note_on,61,0,120
2,note_on,62,62,0
2,note_on,62,0,120
2,note_on,58,57,0
2,note_on,58,0,120
2,note_on,65,72,0
2,note_on,65,0,840
2,note_on,63,63,0
2,note_on,63,0,120
2,note_on,62,71,0
2,note_on,62,0,360
2,note_on,60,63,0
2,note_on,60,0,120
2,note_on,58,72,0
2,note_on,58,0,360
2,note_on,56,63,0
2,note_on,56,0,120
2,note_on,55,72,0
2,note_on,55,0,960
2,note_on,56,48,0
2,note_on,56,0,480
2,note_on,54,42,0
2,note_on,54,0,480
2,note_on,55,51,0
2,note_on,55,0,480
2,note_on,52,44,0
2,note_on,52,0,480
2,note_on,53,52,0
2,note_on,53,0,480
2,note_on,50,34,0
2,note_on,50,0,480
2,note_on,36,51,0
2,note_on,48,51,0
2,note_on,48,0,240
2,note_on,36,0,0
2,note_on,60,42,0
2,note_on,60,0,137
2,note_on,60,42,103
2,note_on,60,0,137
2,note_on,60,42,103
2,note_on,60,0,137
2,note_on,60,51,103
2,note_on,60,0,137
2,note_on,60,43,103
2,note_on,60,0,137
2,note_on,60,43,103
2,note_on,60,0,137
2,note_on,60,43,103
2,note_on,60,0,137
2,note_on,60,51,103
2,note_on,60,0,137
2,note_on,60,42,103
2,note_on,60,0,137
2,note_on,60,42,103
2,note_on,60,0,137
2,note_on,60,42,103
2,note_on,60,0,137
2,note_on,60,51,103
2,note_on,60,0,137
2,note_on,60,43,103
2,note_on,60,0,137
2,note_on,60,43,103
2,note_on,60,0,137
2,note_on,60,43,103
2,note_on,60,0,144
2,note_on,36,51,96
2,note_on,48,51,0
2,note_on,48,0,240
2,note_on,36,0,0
2,note_on,60,42,0
2,note_on,60,0,137
2,note_on,60,42,103
2,note_on,60,0,137
2,note_on,60,42,103
2,note_on,60,0,137
2,note_on,60,51,103
2,note_on,60,0,137
2,note_on,60,43,103
2,note_on,60,0,137
2,note_on,60,43,103
2,note_on,60,0,137
2,note_on,60,43,103
2,note_on,60,0,137
2,note_on,60,51,103
2,note_on,60,0,137
2,note_on,60,42,103
2,note_on,60,0,137
2,note_on,60,42,103
2,note_on,60,0,137
2,note_on,60,42,103
2,note_on,60,0,137
2,note_on,60,51,103
2,note_on,60,0,137
2,note_on,60,43,103
2,note_on,60,0,137
2,note_on,60,43,103
2,note_on,60,0,137
2,note_on,60,43,103
2,note_on,60,0,144
2,note_on,48,51,96
2,note_on,48,0,228
2,note_on,60,43,12
2,note_on,60,0,137
2,note_on,60,43,103
2,note_on,60,0,137
2,note_on,60,43,103
2,note_on,60,0,144
2,note_on,48,51,96
2,note_on,48,0,228
2,note_on,60,43,12
2,note_on,60,0,137
2,note_on,60,43,103
2,note_on,60,0,137
2,note_on,60,43,103
2,note_on,60,0,144
2,note_on,48,51,96
2,note_on,48,0,480
2,note_on,53,31,1560
2,note_on,55,36,120
2,note_on,53,0,12
2,note_on,57,31,108
2,note_on,55,0,12
2,note_on,58,36,108
2,note_on,57,0,12
2,note_on,60,31,108
2,note_on,58,0,12
2,note_on,62,36,108
2,note_on,60,0,12
2,note_on,64,29,108
2,note_on,62,0,12
2,note_on,65,36,108
2,note_on,64,0,12
2,note_on,64,29,108
2,note_on,65,0,12
2,note_on,65,36,108
2,note_on,64,0,12
2,note_on,64,29,108
2,note_on,65,0,12
2,note_on,65,36,108
2,note_on,64,0,12
2,note_on,64,27,108
2,note_on,65,0,12
2,note_on,65,34,108
2,note_on,64,0,12
2,note_on,64,26,108
2,note_on,65,0,12
2,note_on,64,0,108
2,note_on,65,30,0
2,note_on,64,25,120
2,note_on,65,0,12
2,note_on,65,30,108
2,note_on,64,0,12
2,note_on,64,25,108
2,note_on,65,0,12
2,note_on,65,30,108
2,note_on,64,0,12
2,note_on,64,25,108
2,note_on,65,0,12
2,note_on,65,30,108
2,note_on,64,0,12
2,note_on,64,25,108
2,note_on,65,0,12
2,note_on,65,30,108
2,note_on,64,0,12
2,note_on,64,25,108
2,note_on,65,0,12
2,note_on,65,30,108
2,note_on,64,0,12
2,note_on,64,25,108
2,note_on,65,0,12
2,note_on,65,30,108
2,note_on,64,0,12
2,note_on,64,25,108
2,note_on,65,0,12
2,note_on,65,30,108
2,note_on,64,0,12
2,note_on,64,25,108
2,note_on,65,0,12
2,note_on,64,0,108
2,note_on,65,30,0
2,note_on,65,0,120
2,note_on,53,31,0
2,note_on,55,36,120
2,note_on,53,0,12
2,note_on,57,31,108
2,note_on,55,0,12
2,note_on,58,36,108
2,note_on,57,0,12
2,note_on,60,31,108
2,note_on,58,0,12
2,note_on,62,36,108
2,note_on,60,0,12
2,note_on,64,29,108
2,note_on,62,0,12
2,note_on,65,36,108
2,note_on,64,0,12
2,note_on,64,29,108
2,note_on,65,0,12
2,note_on,65,36,108
2,note_on,64,0,12
2,note_on,64,29,108
2,note_on,65,0,12
2,note_on,65,36,108
2,note_on,64,0,12
2,note_on,64,27,108
2,note_on,65,0,12
2,note_on,65,34,108
2,note_on,64,0,12
2,note_on,64,26,108
2,note_on,65,0,12
2,note_on,64,0,108
2,note_on,65,30,0
2,note_on,64,25,120
2,note_on,65,0,12
2,note_on,65,30,108
2,note_on,64,0,12
2,note_on,64,25,108
2,note_on,65,0,12
2,note_on,65,30,108
2,note_on,64,0,12
2,note_on,64,25,108
2,note_on,65,0,12
2,note_on,65,30,108
2,note_on,64,0,12
2,note_on,64,25,108
2,note_on,65,0,12
2,note_on,65,30,108
2,note_on,64,0,12
2,note_on,64,25,108
2,note_on,65,0,12
2,note_on,65,30,108
2,note_on,64,0,12
2,note_on,64,25,108
2,note_on,65,0,12
2,note_on,65,30,108
2,note_on,64,0,12
2,note_on,63,25,108
2,note_on,65,0,12
2,note_on,65,30,108
2,note_on,63,0,12
2,note_on,63,25,108
2,note_on,65,0,12
2,note_on,63,0,108
2,note_on,61,39,0
2,note_on,62,34,120
2,note_on,61,0,60
2,note_on,62,0,60
2,note_on,61,39,0
2,note_on,62,35,120
2,note_on,61,0,60
2,note_on,62,0,60
2,note_on,59,41,0
2,note_on,60,35,120
2,note_on,59,0,60
2,note_on,60,0,60
2,note_on,59,42,0
2,note_on,60,36,120
2,note_on,59,0,60
2,note_on,60,0,60
2,note_on,56,44,0
2,note_on,57,37,120
2,note_on,56,0,60
2,note_on,57,0,60
2,note_on,56,45,0
2,note_on,57,37,120
2,note_on,56,0,60
2,note_on,57,0,60
2,note_on,53,44,0
2,note_on,54,38,120
2,note_on,53,0,60
2,note_on,54,0,60
2,note_on,53,44,0
2,note_on,54,39,120
2,note_on,53,0,60
2,note_on,54,0,60
2,note_on,49,45,0
2,note_on,50,39,120
2,note_on,49,0,60
2,note_on,50,0,60
2,note_on,49,46,0
2,note_on,50,40,120
2,note_on,49,0,60
2,note_on,50,0,60
2,note_on,47,48,0
2,note_on,48,41,120
2,note_on,47,0,60
2,note_on,48,0,60
2,note_on,47,48,0
2,note_on,48,41,120
2,note_on,47,0,60
2,note_on,48,0,60
2,note_on,44,54,0
2,note_on,45,42,120
2,note_on,44,0,60
2,note_on,45,0,60
2,note_on,44,52,0
2,note_on,45,43,120
2,note_on,44,0,60
2,note_on,45,0,60
2,note_on,41,55,0
2,note_on,42,44,120
2,note_on,41,0,60
2,note_on,42,0,60
2,note_on,41,51,0
2,note_on,42,44,120
2,note_on,41,0,60
2,note_on,42,0,60
2,note_on,37,57,0
2,note_on,38,44,120
2,note_on,37,0,60
2,note_on,38,0,60
2,note_on,37,51,0
2,note_on,38,44,120
2,note_on,37,0,60
2,note_on,38,0,60
2,note_on,37,56,0
2,note_on,38,50,120
2,note_on,37,0,60
2,note_on,38,0,60
2,note_on,37,57,0
2,note_on,38,44,120
2,note_on,37,0,60
2,note_on,38,0,50
2,note_on,38,61,10
2,note_on,39,52,120
2,note_on,38,0,60
2,note_on,39,0,60
2,note_on,38,58,0
2,note_on,39,52,120
2,note_on,38,0,60
2,note_on,39,0,60
2,note_on,39,58,0
2,note_on,40,44,120
2,note_on,39,0,60
2,note_on,40,0,60
2,note_on,39,54,0
2,note_on,40,44,120
2,note_on,39,0,60
2,note_on,40,0,60
2,note_on,40,56,0
2,note_on,41,48,120
2,note_on,40,0,60
2,note_on,41,0,60
2,note_on,40,51,0
2,note_on,41,44,120
2,note_on,40,0,60
2,note_on,41,0,60
2,note_on,40,51,0
2,note_on,41,44,120
2,note_on,40,0,60
2,note_on,41,0,60
2,note_on,40,51,0
2,note_on,41,44,120
2,note_on,40,0,60
2,note_on,41,0,50
2,note_on,33,51,10
2,note_on,34,44,120
2,note_on,33,0,60
2,note_on,34,0,60
2,note_on,33,51,0
2,note_on,34,44,120
2,note_on,33,0,60
2,note_on,34,0,50
2,note_on,35,51,10
2,note_on,36,44,120
2,note_on,35,0,60
2,note_on,36,0,60
2,note_on,35,51,0
2,note_on,36,44,120
2,note_on,35,0,60
2,note_on,36,0,50
2,note_on,29,48,10
2,note_on,29,0,240
2,note_on,53,54,720
2,note_on,57,64,0
2,note_on,53,0,950
2,note_on,57,0,10
2,note_on,50,41,0
2,note_on,53,49,0
2,note_on,50,0,470
2,note_on,53,0,10
2,note_on,46,41,0
2,note_on,50,49,0
2,note_on,50,0,240
2,note_on,46,0,0
2,note_on,55,54,240
2,note_on,58,64,0
2,note_on,58,0,720
2,note_on,55,0,0
2,note_on,53,41,0
2,note_on,57,49,0
2,note_on,57,0,240
2,note_on,53,0,0
2,note_on,52,49,0
2,note_on,55,58,0
2,note_on,52,0,470
2,note_on,55,0,10
2,note_on,48,44,0
2,note_on,52,52,0
2,note_on,52,0,240
2,note_on,48,0,0
2,note_on,57,54,240
2,note_on,60,64,0
2,note_on,57,0,950
2,note_on,60,0,10
2,note_on,53,41,0
2,note_on,57,49,0
2,note_on,53,0,470
2,note_on,57,0,10
2,note_on,50,41,0
2,note_on,53,49,0
2,note_on,53,0,240
2,note_on,50,0,0
2,note_on,58,54,240
2,note_on,62,64,0
2,note_on,62,0,720
2,note_on,58,0,0
2,note_on,57,41,0
2,note_on,60,49,0
2,note_on,60,0,240
2,note_on,57,0,0
2,note_on,55,49,0
2,note_on,58,58,0
2,note_on,55,0,470
2,note_on,58,0,10
2,note_on,52,44,0
2,note_on,55,52,0
2,note_on,55,0,240
2,note_on,52,0,0
2,note_on,58,54,240
2,note_on,67,64,0
2,note_on,67,0,720
2,note_on,58,0,0
2,note_on,57,41,0
2,note_on,65,49,0
2,note_on,65,0,240
2,note_on,57,0,0
2,note_on,55,54,0
2,note_on,64,64,0
2,note_on,64,0,720
2,note_on,55,0,0
2,note_on,53,41,0
2,note_on,62,41,0
2,note_on,62,0,240
2,note_on,53,0,0
2,note_on,52,41,0
2,note_on,60,49,0
2,note_on,60,0,480
2,note_on,52,0,0
2,note_on,50,34,0
2,note_on,53,41,0
2,note_on,53,0,480
2,note_on,50,0,0
2,note_on,49,36,0
2,note_on,52,43,0
2,note_on,52,0,480
2,note_on,49,0,0
2,note_on,45,27,0
2,note_on,52,32,0
2,note_on,52,0,480
2,note_on,45,0,0
2,note_on,46,33,0
2,note_on,50,39,0
2,note_on,50,0,480
2,note_on,46,0,0
2,note_on,47,31,0
2,note_on,47,0,480
2,note_on,48,38,0
2,note_on,48,0,960
2,note_on,36,32,0
2,note_on,36,0,960
2,note_on,29,35,0
2,note_on,29,0,960
2,note_on,57,66,0
2,note_on,53,55,0
2,note_on,53,0,720
2,note_on,57,0,0
2,note_on,53,37,0
2,note_on,57,44,0
2,note_on,57,0,120
2,note_on,53,0,0
2,note_on,50,45,120
2,note_on,53,53,0
2,note_on,53,0,120
2,note_on,50,0,0
2,note_on,46,39,360
2,note_on,50,47,0
2,note_on,50,0,120
2,note_on,46,0,0
2,note_on,58,66,360
2,note_on,55,55,0
2,note_on,55,0,720
2,note_on,58,0,0
2,note_on,53,37,0
2,note_on,57,44,0
2,note_on,57,0,120
2,note_on,53,0,0
2,note_on,52,45,120
2,note_on,55,53,0
2,note_on,55,0,120
2,note_on,52,0,0
2,note_on,48,39,360
2,note_on,52,47,0
2,note_on,52,0,120
2,note_on,48,0,0
2,note_on,60,72,360
2,note_on,57,60,0
2,note_on,57,0,720
2,note_on,60,0,0
2,note_on,57,40,0
2,note_on,60,48,0
2,note_on,60,0,120
2,note_on,57,0,0
2,note_on,53,49,120
2,note_on,57,58,0
2,note_on,57,0,120
2,note_on,53,0,0
2,note_on,50,42,360
2,note_on,53,51,0
2,note_on,53,0,120
2,note_on,50,0,0
2,note_on,62,75,360
2,note_on,58,62,0
2,note_on,58,0,720
2,note_on,62,0,0
2,note_on,57,42,0
2,note_on,60,50,0
2,note_on,60,0,120
2,note_on,57,0,0
2,note_on,55,51,120
2,note_on,58,60,0
2,note_on,58,0,120
2,note_on,55,0,0
2,note_on,52,44,360
2,note_on,55,53,0
2,note_on,55,0,120
2,note_on,52,0,0
2,note_on,67,79,360
2,note_on,58,66,0
2,note_on,58,0,720
2,note_on,67,0,0
2,note_on,57,44,0
2,note_on,65,52,0
2,note_on,65,0,120
2,note_on,57,0,0
2,note_on,64,79,120
2,note_on,55,66,0
2,note_on,55,0,720
2,note_on,64,0,0
2,note_on,53,44,0
2,note_on,62,52,0
2,note_on,62,0,120
2,note_on,53,0,0
2,note_on,52,49,120
2,note_on,60,58,0
2,note_on,60,0,120
2,note_on,52,0,0
2,note_on,50,40,360
2,note_on,53,49,0
2,note_on,53,0,120
2,note_on,50,0,0
2,note_on,49,34,360
2,note_on,52,34,0
2,note_on,55,40,0
2,note_on,55,0,1920
2,note_on,52,0,0
2,note_on,49,0,0
2,note_on,50,34,0
2,note_on,53,40,0
2,note_on,53,0,1920
2,note_on,50,0,0
2,note_on,47,34,0
2,note_on,50,34,0
2,note_on,53,40,0
2,note_on,53,0,1920
2,note_on,50,0,0
2,note_on,47,0,0
2,note_on,46,57,0
2,note_on,49,57,0
2,note_on,52,57,0
2,note_on,55,68,0
2,note_on,55,0,1200
2,note_on,46,0,0
2,note_on,49,0,0
2,note_on,52,0,0
2,note_on,46,50,0
2,note_on,48,50,0
2,note_on,55,60,0
2,note_on,55,0,120
2,note_on,48,0,0
2,note_on,46,0,0
2,note_on,46,61,120
2,note_on,48,61,0
2,note_on,55,72,0
2,note_on,55,0,120
2,note_on,48,0,0
2,note_on,46,0,0
2,note_on,46,51,120
2,note_on,48,51,0
2,note_on,55,61,0
2,note_on,55,0,120
2,note_on,48,0,0
2,note_on,46,0,0
2,note_on,45,73,120
2,note_on,48,73,0
2,note_on,53,73,0
2,note_on,53,0,480
2,note_on,48,0,0
2,note_on,45,0,0
2,note_on,40,57,240
2,note_on,48,68,0
2,note_on,48,0,120
2,note_on,40,0,0
2,note_on,41,63,120
2,note_on,48,75,0
2,note_on,48,0,120
2,note_on,41,0,0
2,note_on,46,56,120
2,note_on,48,67,0
2,note_on,48,0,120
2,note_on,46,0,0
2,note_on,45,63,120
2,note_on,48,75,0
2,note_on,48,0,120
2,note_on,45,0,0
2,note_on,40,56,120
2,note_on,48,67,0
2,note_on,48,0,120
2,note_on,40,0,0
2,note_on,41,63,120
2,note_on,48,75,0
2,note_on,48,0,120
2,note_on,41,0,0
2,note_on,46,56,120
2,note_on,48,67,0
2,note_on,48,0,120
2,note_on,46,0,0
2,note_on,45,63,120
2,note_on,48,75,0
2,note_on,48,0,120
2,note_on,45,0,0
2,note_on,40,56,120
2,note_on,48,67,0
2,note_on,48,0,120
2,note_on,40,0,0
2,note_on,41,63,120
2,note_on,48,75,0
2,note_on,48,0,120
2,note_on,41,0,0
2,note_on,46,56,120
2,note_on,48,67,0
2,note_on,48,0,120
2,note_on,46,0,0
2,note_on,45,63,120
2,note_on,48,75,0
2,note_on,48,0,120
2,note_on,45,0,0
2,note_on,40,57,120
2,note_on,48,68,0
2,note_on,48,0,120
2,note_on,40,0,0
2,note_on,41,89,120
2,note_on,41,0,960
2,note_on,38,80,0
2,note_on,38,0,960
2,note_on,34,88,0
2,note_on,34,0,960
2,note_on,36,84,0
2,note_on,36,0,960
2,note_on,29,81,0
2,note_on,29,0,120
2,note_on,46,54,120
2,note_on,46,0,120
2,note_on,45,60,120
2,note_on,45,0,120
2,note_on,40,54,120
2,note_on,40,0,120
2,note_on,41,60,120
2,note_on,41,0,120
2,note_on,46,52,120
2,note_on,46,0,120
2,note_on,45,60,120
2,note_on,45,0,120
2,note_on,40,58,120
2,note_on,40,0,120
2,note_on,41,60,120
2,note_on,41,0,120
2,note_on,46,52,120
2,note_on,46,0,120
2,note_on,45,60,120
2,note_on,45,0,120
2,note_on,40,58,120
2,note_on,40,0,120
2,note_on,41,67,120
2,note_on,41,0,120
2,note_on,43,59,120
2,note_on,43,0,120
2,note_on,41,72,120
2,note_on,41,0,120
2,note_on,40,67,120
2,note_on,40,0,120
2,note_on,38,75,120
2,note_on,38,0,120
2,note_on,36,77,120
2,note_on,36,0,120
2,note_on,34,80,120
2,note_on,34,0,120
2,note_on,33,82,120
2,note_on,33,0,120
2,note_on,31,94,120
2,note_on,31,0,1920
2,note_on,36,87,0
2,note_on,36,0,960
2,note_on,29,30,0
2,note_on,29,0,120
2,note_on,41,26,0
2,note_on,41,0,120
2,note_on,29,30,0
2,note_on,29,0,120
2,note_on,41,25,0
2,note_on,41,0,120
2,note_on,29,30,0
2,note_on,29,0,120
2,note_on,41,26,0
2,note_on,41,0,120
2,note_on,29,30,0
2,note_on,29,0,120
2,note_on,41,27,0
2,note_on,41,0,120
2,note_on,29,30,0
2,note_on,29,0,120
2,note_on,41,27,0
2,note_on,41,0,120
2,note_on,29,30,0
2,note_on,29,0,120
2,note_on,41,25,0
2,note_on,41,0,120
2,note_on,29,30,0
2,note_on,29,0,120
2,note_on,41,26,0
2,note_on,41,0,120
2,note_on,29,30,0
2,note_on,29,0,120
2,note_on,41,26,0
2,note_on,41,0,120
2,note_on,29,30,0
2,note_on,29,0,120
2,note_on,41,26,0
2,note_on,41,0,120
2,note_on,29,30,0
2,note_on,29,0,120
2,note_on,41,25,0
2,note_on,41,0,120
2,note_on,29,30,0
2,note_on,29,0,120
2,note_on,41,26,0
2,note_on,41,0,120
2,note_on,29,30,0
2,note_on,29,0,120
2,note_on,41,27,0
2,note_on,41,0,120
2,note_on,29,30,0
2,note_on,29,0,120
2,note_on,41,27,0
2,note_on,41,0,120
2,note_on,29,30,0
2,note_on,29,0,120
2,note_on,41,25,0
2,note_on,41,0,120
2,note_on,29,30,0
2,note_on,29,0,120
2,note_on,41,26,0
2,note_on,41,0,120
2,note_on,29,30,0
2,note_on,29,0,120
2,note_on,41,26,0
2,note_on,41,0,120
2,note_on,29,30,0
2,note_on,29,0,120
2,note_on,41,26,0
2,note_on,41,0,120
2,note_on,29,30,0
2,note_on,29,0,120
2,note_on,41,25,0
2,note_on,41,0,120
2,note_on,29,30,0
2,note_on,29,0,120
2,note_on,41,26,0
2,note_on,41,0,120
2,note_on,29,30,0
2,note_on,29,0,120
2,note_on,41,27,0
2,note_on,41,0,120
2,note_on,29,30,0
2,note_on,29,0,120
2,note_on,41,27,0
2,note_on,41,0,120
2,note_on,29,35,0
2,note_on,29,0,120
2,note_on,41,29,0
2,note_on,41,0,120
2,note_on,29,34,0
2,note_on,29,0,120
2,note_on,41,26,0
2,note_on,41,0,120
2,note_on,29,35,0
2,note_on,29,0,120
2,note_on,41,31,0
2,note_on,41,0,120
2,note_on,29,38,0
2,note_on,29,0,120
2,note_on,41,30,0
2,note_on,41,0,120
2,note_on,29,34,0
2,note_on,29,0,120
2,note_on,41,25,0
2,note_on,41,0,120
2,note_on,29,33,0
2,note_on,29,0,120
2,note_on,41,26,0
2,note_on,41,0,120
2,note_on,29,30,0
2,note_on,29,0,120
2,note_on,41,27,0
2,note_on,41,0,120
2,note_on,29,30,0
2,note_on,29,0,120
2,note_on,41,27,0
2,note_on,41,0,120
2,note_on,29,30,0
2,note_on,29,0,120
2,note_on,41,25,0
2,note_on,41,0,120
2,note_on,29,30,0
2,note_on,29,0,120
2,note_on,41,26,0
2,note_on,41,0,120
2,note_on,29,30,0
2,note_on,29,0,120
2,note_on,41,26,0
2,note_on,41,0,120
2,note_on,29,30,0
2,note_on,29,0,120
2,note_on,41,25,0
2,note_on,41,0,120
2,note_on,29,29,0
2,note_on,29,0,120
2,note_on,41,24,0
2,note_on,41,0,120
2,note_on,29,28,0
2,note_on,29,0,120
2,note_on,41,24,0
2,note_on,41,0,120
2,note_on,29,28,0
2,note_on,29,0,120
2,note_on,41,25,0
2,note_on,41,0,120
2,note_on,29,27,0
2,note_on,29,0,120
2,note_on,41,24,0
2,note_on,41,0,120
2,note_on,29,27,0
2,note_on,29,0,120
2,note_on,41,22,0
2,note_on,41,0,120
2,note_on,29,26,0
2,note_on,29,0,120
2,note_on,41,22,0
2,note_on,41,0,120
2,note_on,29,25,0
2,note_on,29,0,120
2,note_on,41,22,0
2,note_on,41,0,120
2,note_on,29,25,0
2,note_on,29,0,120
2,note_on,41,21,0
2,note_on,41,0,120
2,note_on,29,24,0
2,note_on,29,0,120
2,note_on,41,20,0
2,note_on,41,0,120
2,note_on,29,24,0
2,note_on,29,0,120
2,note_on,41,20,0
2,note_on,41,0,120
2,note_on,29,23,0
2,note_on,29,0,120
2,note_on,41,20,0
2,note_on,41,0,120
2,note_on,29,22,0
2,note_on,29,0,120
2,note_on,41,20,0
2,note_on,41,0,120
2,note_on,29,22,0
2,note_on,29,0,120
2,note_on,41,18,0
2,note_on,41,0,120
2,note_on,29,22,0
2,note_on,29,0,120
2,note_on,41,19,0
2,note_on,41,0,120
2,note_on,29,22,0
2,note_on,29,0,120
2,note_on,41,19,0
2,note_on,41,0,120
2,note_on,29,56,0
2,note_on,41,66,0
2,note_on,41,0,720
2,note_on,29,0,0
2,note_on,31,49,0
2,note_on,43,59,0
2,note_on,43,0,120
2,note_on,31,0,0
2,note_on,33,56,120
2,note_on,45,66,0
2,note_on,45,0,720
2,note_on,33,0,0
2,note_on,34,50,0
2,note_on,46,60,0
2,note_on,46,0,120
2,note_on,34,0,0
2,note_on,36,57,120
2,note_on,48,68,0
2,note_on,48,0,720
2,note_on,36,0,0
2,note_on,38,47,0
2,note_on,50,56,0
2,note_on,50,0,120
2,note_on,38,0,0
2,note_on,40,53,120
2,note_on,52,63,0
2,note_on,52,0,120
2,note_on,40,0,0
2,note_on,41,50,120
2,note_on,53,60,0
2,note_on,53,0,120
2,note_on,41,0,0
2,note_on,43,55,120
2,note_on,55,65,0
2,note_on,55,0,120
2,note_on,43,0,0
2,note_on,45,51,120
2,note_on,57,61,0
2,note_on,57,0,120
2,note_on,45,0,0
2,note_on,46,61,120
2,note_on,58,72,0
2,note_on,58,0,720
2,note_on,46,0,0
2,note_on,45,52,0
2,note_on,57,63,0
2,note_on,57,0,120
2,note_on,45,0,0
2,note_on,43,59,120
2,note_on,55,69,0
2,note_on,55,0,720
2,note_on,43,0,0
2,note_on,41,51,0
2,note_on,53,61,0
2,note_on,53,0,120
2,note_on,41,0,0
2,note_on,40,58,120
2,note_on,52,69,0
2,note_on,52,0,720
2,note_on,40,0,0
2,note_on,38,47,0
2,note_on,50,56,0
2,note_on,50,0,120
2,note_on,38,0,0
2,note_on,36,52,120
2,note_on,48,62,0
2,note_on,48,0,120
2,note_on,36,0,0
2,note_on,34,49,120
2,note_on,46,58,0
2,note_on,46,0,120
2,note_on,34,0,0
2,note_on,33,52,120
2,note_on,45,62,0
2,note_on,45,0,120
2,note_on,33,0,0
2,note_on,31,48,120
2,note_on,43,57,0
2,note_on,43,0,120
2,note_on,31,0,0
2,note_on,29,58,120
2,note_on,41,69,0
2,note_on,41,0,120
2,note_on,29,0,0
2,note_on,48,34,360
2,note_on,55,34,0
2,note_on,58,41,0
2,note_on,58,0,120
2,note_on,55,0,0
2,note_on,48,0,0
2,note_on,53,41,360
2,note_on,57,49,0
2,note_on,57,0,120
2,note_on,53,0,0
2,note_on,60,34,360
2,note_on,67,34,0
2,note_on,70,41,0
2,note_on,70,0,120
2,note_on,67,0,0
2,note_on,60,0,0
2,note_on,65,41,360
2,note_on,69,49,0
2,note_on,69,0,120
2,note_on,65,0,0
2,note_on,48,56,840
2,note_on,60,67,0
2,note_on,60,0,480
2,note_on,48,0,0
2,note_on,41,64,480
2,note_on,53,76,0
2,note_on,53,0,480
2,note_on,41,0,0
2,note_on,48,42,1920
2,note_on,48,0,120
2,note_on,47,40,0
2,note_on,47,0,120
2,note_on,48,45,0
2,note_on,48,0,120
2,note_on,45,39,0
2,note_on,45,0,120
2,note_on,53,50,0
2,note_on,53,0,120
2,note_on,48,42,1320
2,note_on,48,0,120
2,note_on,47,40,0
2,note_on,47,0,120
2,note_on,48,45,0
2,note_on,48,0,120
2,note_on,45,39,0
2,note_on,45,0,120
2,note_on,53,50,0
2,note_on,53,0,120
2,note_on,41,56,840
2,note_on,53,66,0
2,note_on,53,0,720
2,note_on,41,0,0
2,note_on,43,49,0
2,note_on,55,59,0
2,note_on,55,0,120
2,note_on,43,0,0
2,note_on,45,56,120
2,note_on,57,66,0
2,note_on,57,0,720
2,note_on,45,0,0
2,note_on,46,50,0
2,note_on,58,60,0
2,note_on,58,0,120
2,note_on,46,0,0
2,note_on,48,57,120
2,note_on,60,68,0
2,note_on,60,0,720
2,note_on,48,0,0
2,note_on,50,47,0
2,note_on,62,56,0
2,note_on,62,0,120
2,note_on,50,0,0
2,note_on,51,53,120
2,note_on,63,63,0
2,note_on,63,0,120
2,note_on,51,0,0
2,note_on,50,50,120
2,note_on,62,60,0
2,note_on,62,0,120
2,note_on,50,0,0
2,note_on,48,55,120
2,note_on,60,65,0
2,note_on,60,0,120
2,note_on,48,0,0
2,note_on,50,51,120
2,note_on,62,61,0
2,note_on,62,0,120
2,note_on,50,0,0
2,note_on,51,57,120
2,note_on,63,68,0
2,note_on,63,0,720
2,note_on,51,0,0
2,note_on,50,44,0
2,note_on,62,53,0
2,note_on,62,0,120
2,note_on,50,0,0
2,note_on,48,50,120
2,note_on,60,59,0
2,note_on,60,0,120
2,note_on,48,0,0
2,note_on,46,47,120
2,note_on,58,57,0
2,note_on,58,0,120
2,note_on,46,0,0
2,note_on,45,52,120
2,note_on,57,61,0
2,note_on,57,0,120
2,note_on,45,0,0
2,note_on,46,48,120
2,note_on,58,57,0
2,note_on,58,0,120
2,note_on,46,0,0
2,note_on,48,54,120
2,note_on,60,64,0
2,note_on,60,0,720
2,note_on,48,0,0
2,note_on,46,43,0
2,note_on,58,52,0
2,note_on,58,0,120
2,note_on,46,0,0
2,note_on,45,47,120
2,note_on,57,56,0
2,note_on,57,0,120
2,note_on,45,0,0
2,note_on,43,44,120
2,note_on,55,52,0
2,note_on,55,0,120
2,note_on,43,0,0
2,note_on,42,46,120
2,note_on,54,55,0
2,note_on,54,0,120
2,note_on,42,0,0
2,note_on,40,42,120
2,note_on,52,50,0
2,note_on,52,0,120
2,note_on,40,0,0
2,note_on,38,30,120
2,note_on,38,0,120
2,note_on,50,26,0
2,note_on,50,0,120
2,note_on,38,30,0
2,note_on,38,0,120
2,note_on,50,25,0
2,note_on,50,0,120
2,note_on,38,30,0
2,note_on,38,0,120
2,note_on,50,26,0
2,note_on,50,0,120
2,note_on,38,30,0
2,note_on,38,0,120
2,note_on,50,27,0
2,note_on,50,0,120
2,note_on,38,30,0
2,note_on,38,0,120
2,note_on,50,27,0
2,note_on,50,0,120
2,note_on,38,30,0
2,note_on,38,0,120
2,note_on,50,25,0
2,note_on,50,0,120
2,note_on,38,30,0
2,note_on,38,0,120
2,note_on,50,26,0
2,note_on,50,0,120
2,note_on,38,30,0
2,note_on,38,0,120
2,note_on,50,26,0
2,note_on,50,0,120
2,note_on,38,30,0
2,note_on,38,0,120
2,note_on,50,26,0
2,note_on,50,0,120
2,note_on,38,30,0
2,note_on,38,0,120
2,note_on,50,25,0
2,note_on,50,0,120
2,note_on,38,30,0
2,note_on,38,0,120
2,note_on,50,26,0
2,note_on,50,0,120
2,note_on,38,30,0
2,note_on,38,0,120
2,note_on,50,27,0
2,note_on,50,0,120
2,note_on,38,30,0
2,note_on,38,0,120
2,note_on,50,27,0
2,note_on,50,0,120
2,note_on,38,30,0
2,note_on,38,0,120
2,note_on,50,25,0
2,note_on,50,0,120
2,note_on,38,30,0
2,note_on,38,0,120
2,note_on,50,26,0
2,note_on,50,0,120
2,note_on,38,30,0
2,note_on,38,0,120
2,note_on,50,26,0
2,note_on,50,0,120
2,note_on,38,30,0
2,note_on,38,0,120
2,note_on,50,26,0
2,note_on,50,0,120
2,note_on,38,30,0
2,note_on,38,0,120
2,note_on,50,25,0
2,note_on,50,0,120
2,note_on,38,30,0
2,note_on,38,0,120
2,note_on,50,26,0
2,note_on,50,0,120
2,note_on,38,30,0
2,note_on,38,0,120
2,note_on,50,27,0
2,note_on,50,0,120
2,note_on,38,30,0
2,note_on,38,0,120
2,note_on,50,27,0
2,note_on,50,0,120
2,note_on,38,30,0
2,note_on,38,0,120
2,note_on,50,25,0
2,note_on,50,0,120
2,note_on,38,30,0
2,note_on,38,0,120
2,note_on,50,26,0
2,note_on,50,0,120
2,note_on,38,30,0
2,note_on,38,0,120
2,note_on,50,26,0
2,note_on,50,0,120
2,note_on,38,30,0
2,note_on,38,0,120
2,note_on,50,26,0
2,note_on,50,0,120
2,note_on,38,30,0
2,note_on,38,0,120
2,note_on,50,25,0
2,note_on,50,0,120
2,note_on,38,30,0
2,note_on,38,0,120
2,note_on,50,26,0
2,note_on,50,0,120
2,note_on,38,30,0
2,note_on,38,0,120
2,note_on,50,27,0
2,note_on,50,0,120
2,note_on,38,30,0
2,note_on,38,0,120
2,note_on,50,27,0
2,note_on,50,0,120
2,note_on,38,30,0
2,note_on,38,0,120
2,note_on,50,25,0
2,note_on,50,0,120
2,note_on,38,30,0
2,note_on,38,0,120
2,note_on,50,26,0
2,note_on,50,0,120
2,note_on,38,30,0
2,note_on,38,0,120
2,note_on,50,26,0
2,note_on,50,0,120
2,note_on,38,30,0
2,note_on,38,0,120
2,note_on,50,26,0
2,note_on,50,0,120
2,note_on,38,30,0
2,note_on,38,0,120
2,note_on,50,25,0
2,note_on,50,0,120
2,note_on,38,30,0
2,note_on,38,0,120
2,note_on,50,26,0
2,note_on,50,0,120
2,note_on,38,30,0
2,note_on,38,0,120
2,note_on,50,27,0
2,note_on,50,0,120
2,note_on,38,30,0
2,note_on,38,0,120
2,note_on,50,27,0
2,note_on,50,0,120
2,note_on,38,30,0
2,note_on,38,0,120
2,note_on,50,25,0
2,note_on,50,0,120
2,note_on,38,30,0
2,note_on,38,0,120
2,note_on,50,26,0
2,note_on,50,0,120
2,note_on,38,30,0
2,note_on,38,0,120
2,note_on,50,26,0
2,note_on,50,0,120
2,note_on,38,30,0
2,note_on,38,0,120
2,note_on,50,26,0
2,note_on,50,0,120
2,note_on,38,30,0
2,note_on,38,0,120
2,note_on,50,25,0
2,note_on,50,0,120
2,note_on,38,30,0
2,note_on,38,0,120
2,note_on,50,26,0
2,note_on,50,0,120
2,note_on,38,30,0
2,note_on,38,0,120
2,note_on,50,27,0
2,note_on,50,0,120
2,note_on,38,24,0
2,note_on,38,0,120
2,note_on,50,21,0
2,note_on,50,0,120
2,note_on,38,24,0
2,note_on,38,0,120
2,note_on,50,20,0
2,note_on,50,0,120
2,note_on,38,24,0
2,note_on,38,0,120
2,note_on,50,20,0
2,note_on,50,0,120
2,note_on,38,24,0
2,note_on,38,0,120
2,note_on,50,20,0
2,note_on,50,0,120
2,note_on,38,97,0
2,note_on,38,0,720
2,note_on,40,70,0
2,note_on,40,0,120
2,note_on,42,68,120
2,note_on,50,81,0
2,note_on,50,0,720
2,note_on,42,0,0
2,note_on,43,57,0
2,note_on,52,68,0
2,note_on,52,0,120
2,note_on,43,0,0
2,note_on,48,64,120
2,note_on,45,64,0
2,note_on,54,76,0
2,note_on,54,0,720
2,note_on,45,0,0
2,note_on,48,0,0
2,note_on,50,54,0
2,note_on,46,54,0
2,note_on,55,64,0
2,note_on,55,0,120
2,note_on,46,0,0
2,note_on,50,0,0
2,note_on,54,61,120
2,note_on,57,72,0
2,note_on,57,0,120
2,note_on,54,0,0
2,note_on,55,56,120
2,note_on,58,66,0
2,note_on,58,0,120
2,note_on,55,0,0
2,note_on,57,62,120
2,note_on,60,73,0
2,note_on,60,0,120
2,note_on,57,0,0
2,note_on,58,56,120
2,note_on,62,66,0
2,note_on,62,0,120
2,note_on,58,0,0
2,note_on,60,64,120
2,note_on,63,76,0
2,note_on,63,0,120
2,note_on,60,0,0
2,note_on,43,97,3720
2,note_on,43,0,720
2,note_on,45,70,0
2,note_on,45,0,120
2,note_on,47,68,120
2,note_on,55,81,0
2,note_on,55,0,720
2,note_on,47,0,0
2,note_on,48,57,0
2,note_on,57,68,0
2,note_on,57,0,120
2,note_on,48,0,0
2,note_on,53,64,120
2,note_on,50,64,0
2,note_on,59,76,0
2,note_on,59,0,720
2,note_on,50,0,0
2,note_on,53,0,0
2,note_on,55,54,0
2,note_on,51,54,0
2,note_on,60,64,0
2,note_on,60,0,120
2,note_on,51,0,0
2,note_on,55,0,0
2,note_on,59,61,120
2,note_on,62,72,0
2,note_on,62,0,120
2,note_on,59,0,0
2,note_on,60,56,120
2,note_on,63,66,0
2,note_on,63,0,120
2,note_on,60,0,0
2,note_on,62,62,120
2,note_on,65,73,0
2,note_on,65,0,120
2,note_on,62,0,0
2,note_on,63,56,120
2,note_on,67,66,0
2,note_on,67,0,120
2,note_on,63,0,0
2,note_on,65,64,120
2,note_on,68,76,0
2,note_on,68,0,120
2,note_on,65,0,0
2,note_on,36,97,3720
2,note_on,36,0,720
2,note_on,38,70,0
2,note_on,38,0,120
2,note_on,40,68,120
2,note_on,48,81,0
2,note_on,48,0,720
2,note_on,40,0,0
2,note_on,41,57,0
2,note_on,50,68,0
2,note_on,50,0,120
2,note_on,41,0,0
2,note_on,46,64,120
2,note_on,43,64,0
2,note_on,52,76,0
2,note_on,52,0,720
2,note_on,43,0,0
2,note_on,46,0,0
2,note_on,48,54,0
2,note_on,44,54,0
2,note_on,53,64,0
2,note_on,53,0,120
2,note_on,44,0,0
2,note_on,48,0,0
2,note_on,52,61,120
2,note_on,55,72,0
2,note_on,55,0,120
2,note_on,52,0,0
2,note_on,53,56,120
2,note_on,56,66,0
2,note_on,56,0,120
2,note_on,53,0,0
2,note_on,55,62,120
2,note_on,58,73,0
2,note_on,58,0,120
2,note_on,55,0,0
2,note_on,56,56,120
2,note_on,60,66,0
2,note_on,60,0,120
2,note_on,56,0,0
2,note_on,58,64,120
2,note_on,61,76,0
2,note_on,61,0,120
2,note_on,58,0,0
2,note_on,46,76,1800
2,note_on,49,67,480
2,note_on,52,67,480
2,note_on,55,67,480
2,note_on,55,0,480
2,note_on,46,0,0
2,note_on,49,0,0
2,note_on,52,0,0
2,note_on,44,76,0
2,note_on,48,67,480
2,note_on,53,67,480
2,note_on,56,67,480
2,note_on,56,0,480
2,note_on,44,0,0
2,note_on,48,0,0
2,note_on,53,0,0
2,note_on,44,76,0
2,note_on,48,67,480
2,note_on,53,67,480
2,note_on,56,67,480
2,note_on,56,0,480
2,note_on,44,0,0
2,note_on,48,0,0
2,note_on,53,0,0
2,note_on,43,76,0
2,note_on,50,67,480
2,note_on,53,67,480
2,note_on,55,67,480
2,note_on,55,0,480
2,note_on,43,0,0
2,note_on,50,0,0
2,note_on,53,0,0
2,note_on,43,76,0
2,note_on,47,67,480
2,note_on,50,67,480
2,note_on,55,67,480
2,note_on,55,0,480
2,note_on,43,0,0
2,note_on,47,0,0
2,note_on,50,0,0
2,note_on,43,76,0
2,note_on,48,67,480
2,note_on,51,66,480
2,note_on,55,65,480
2,note_on,55,0,480
2,note_on,43,0,0
2,note_on,48,0,0
2,note_on,51,0,0
2,note_on,42,73,0
2,note_on,48,64,480
2,note_on,51,63,480
2,note_on,54,62,480
2,note_on,54,0,480
2,note_on,42,0,0
2,note_on,48,0,0
2,note_on,51,0,0
2,note_on,41,70,0
2,note_on,48,61,480
2,note_on,51,60,480
2,note_on,53,60,480
2,note_on,53,0,480
2,note_on,41,0,0
2,note_on,48,0,0
2,note_on,51,0,0
2,note_on,41,67,0
2,note_on,45,58,480
2,note_on,48,58,480
2,note_on,53,57,480
2,note_on,53,0,480
2,note_on,41,0,0
2,note_on,45,0,0
2,note_on,48,0,0
2,note_on,41,64,0
2,note_on,46,56,480
2,note_on,49,56,480
2,note_on,53,55,480
2,note_on,53,0,480
2,note_on,41,0,0
2,note_on,46,0,0
2,note_on,49,0,0
2,note_on,40,62,0
2,note_on,46,54,480
2,note_on,49,53,480
2,note_on,52,52,480
2,note_on,52,0,480
2,note_on,40,0,0
2,note_on,46,0,0
2,note_on,49,0,0
2,note_on,39,59,0
2,note_on,46,51,480
2,note_on,49,50,480
2,note_on,51,50,480
2,note_on,51,0,480
2,note_on,39,0,0
2,note_on,46,0,0
2,note_on,49,0,0
2,note_on,39,56,0
2,note_on,46,48,480
2,note_on,49,48,480
2,note_on,51,47,480
2,note_on,51,0,480
2,note_on,39,0,0
2,note_on,46,0,0
2,note_on,49,0,0
2,note_on,39,49,0
2,note_on,39,0,720
2,note_on,41,44,0
2,note_on,41,0,240
2,note_on,43,49,0
2,note_on,43,0,720
2,note_on,44,44,0
2,note_on,44,0,240
2,note_on,46,47,0
2,note_on,46,0,720
2,note_on,48,44,0
2,note_on,48,0,240
2,note_on,49,46,0
2,note_on,49,0,240
2,note_on,48,44,0
2,note_on,48,0,240
2,note_on,46,46,0
2,note_on,46,0,240
2,note_on,44,38,0
2,note_on,44,0,240
2,note_on,43,47,0
2,note_on,43,0,720
2,note_on,44,44,0
2,note_on,44,0,240
2,note_on,46,46,0
2,note_on,46,0,240
2,note_on,44,44,0
2,note_on,44,0,240
2,note_on,43,46,0
2,note_on,43,0,240
2,note_on,41,38,0
2,note_on,41,0,240
2,note_on,39,47,5
2,note_on,39,0,720
2,note_on,36,39,1195
2,note_on,36,0,720
2,note_on,38,35,0
2,note_on,38,0,240
2,note_on,40,39,0
2,note_on,40,0,720
2,note_on,41,35,0
2,note_on,41,0,240
2,note_on,43,37,0
2,note_on,43,0,720
2,note_on,44,35,0
2,note_on,44,0,240
2,note_on,46,36,0
2,note_on,46,0,240
2,note_on,44,35,0
2,note_on,44,0,240
2,note_on,43,36,0
2,note_on,43,0,240
2,note_on,41,30,0
2,note_on,41,0,240
2,note_on,40,37,0
2,note_on,40,0,720
2,note_on,41,35,0
2,note_on,41,0,240
2,note_on,43,36,0
2,note_on,43,0,240
2,note_on,41,35,0
2,note_on,41,0,240
2,note_on,40,36,0
2,note_on,40,0,240
2,note_on,38,30,0
2,note_on,38,0,240
2,note_on,36,37,0
2,note_on,36,0,720
2,note_on,29,39,1200
2,note_on,29,0,720
2,note_on,31,35,0
2,note_on,31,0,240
2,note_on,33,39,0
2,note_on,33,0,720
2,note_on,34,35,0
2,note_on,34,0,240
2,note_on,36,37,0
2,note_on,36,0,720
2,note_on,37,35,0
2,note_on,37,0,240
2,note_on,39,36,0
2,note_on,39,0,240
2,note_on,37,35,0
2,note_on,37,0,240
2,note_on,36,36,0
2,note_on,36,0,240
2,note_on,34,30,0
2,note_on,34,0,240
2,note_on,33,37,0
2,note_on,33,0,720
2,note_on,34,35,0
2,note_on,34,0,240
2,note_on,36,36,0
2,note_on,36,0,240
2,note_on,34,35,0
2,note_on,34,0,240
2,note_on,33,36,0
2,note_on,33,0,240
2,note_on,31,30,0
2,note_on,31,0,240
2,note_on,29,37,0
2,note_on,29,0,2880
2,note_on,36,36,0
2,note_on,36,0,240
2,note_on,34,35,0
2,note_on,34,0,240
2,note_on,33,36,0
2,note_on,33,0,240
2,note_on,31,30,0
2,note_on,31,0,240
2,note_on,29,37,0
2,note_on,29,0,2880
2,note_on,36,41,0
2,note_on,36,0,240
2,note_on,34,40,0
2,note_on,34,0,240
2,note_on,33,41,0
2,note_on,33,0,240
2,note_on,31,34,0
2,note_on,31,0,240
2,note_on,29,42,0
2,note_on,29,0,960
2,note_on,36,43,0
2,note_on,36,0,240
2,note_on,34,43,0
2,note_on,34,0,240
2,note_on,33,46,0
2,note_on,33,0,240
2,note_on,31,39,0
2,note_on,31,0,240
2,note_on,29,48,0
2,note_on,29,0,960
2,note_on,36,51,0
2,note_on,36,0,240
2,note_on,34,50,0
2,note_on,34,0,240
2,note_on,33,52,0
2,note_on,33,0,240
2,note_on,31,44,0
2,note_on,31,0,240
2,note_on,29,56,0
2,note_on,29,0,720
2,note_on,31,54,0
2,note_on,31,0,240
2,note_on,33,59,0
2,note_on,33,0,240
2,note_on,34,54,0
2,note_on,34,0,240
2,note_on,36,62,0
2,note_on,36,0,240
2,note_on,38,54,0
2,note_on,38,0,240
2,note_on,39,59,0
2,note_on,39,0,240
2,note_on,40,54,0
2,note_on,40,0,240
2,note_on,41,64,0
2,note_on,41,0,240
2,note_on,43,57,0
2,note_on,43,0,240
2,note_on,45,59,0
2,note_on,45,0,240
2,note_on,46,55,0
2,note_on,46,0,240
2,note_on,48,66,0
2,note_on,48,0,240
2,note_on,50,60,0
2,note_on,50,0,240
2,note_on,51,63,0
2,note_on,41,63,0
2,note_on,41,0,1920
2,note_on,51,0,0
2,note_on,41,50,0
2,note_on,48,50,0
2,note_on,48,0,960
2,note_on,41,0,0
2,note_on,41,42,0
2,note_on,46,42,0
2,note_on,46,0,960
2,note_on,41,0,0
2,note_on,41,20,0
2,note_on,45,20,0
2,note_on,53,25,0
2,note_on,53,0,3120
2,note_on,45,0,0
2,note_on,41,0,0
2,note_on,34,30,720
2,note_on,46,36,0
2,note_on,46,0,90
2,note_on,34,0,0
2,note_on,34,27,390
2,note_on,46,32,0
2,note_on,46,0,90
2,note_on,34,0,0
2,note_on,34,30,1350
2,note_on,46,36,0
2,note_on,46,0,90
2,note_on,34,0,0
2,note_on,34,27,390
2,note_on,46,32,0
2,note_on,46,0,90
2,note_on,34,0,0
2,note_on,46,44,3270
2,note_on,46,0,120
2,note_on,50,31,0
2,note_on,50,0,120
2,note_on,53,31,0
2,note_on,53,0,120
2,note_on,58,31,0
2,note_on,58,0,120
2,note_on,46,44,0
2,note_on,46,0,120
2,note_on,50,32,0
2,note_on,50,0,120
2,note_on,53,32,0
2,note_on,53,0,120
2,note_on,58,32,0
2,note_on,58,0,120
2,note_on,46,44,0
2,note_on,46,0,120
2,note_on,50,33,0
2,note_on,50,0,120
2,note_on,53,33,0
2,note_on,53,0,120
2,note_on,58,33,0
2,note_on,58,0,120
2,note_on,46,44,0
2,note_on,46,0,120
2,note_on,50,33,0
2,note_on,50,0,120
2,note_on,53,33,0
2,note_on,53,0,120
2,note_on,58,33,0
2,note_on,58,0,120
2,note_on,46,44,0
2,note_on,46,0,120
2,note_on,51,31,0
2,note_on,51,0,120
2,note_on,55,31,0
2,note_on,55,0,120
2,note_on,58,31,0
2,note_on,58,0,120
2,note_on,46,42,0
2,note_on,46,0,120
2,note_on,51,28,0
2,note_on,51,0,120
2,note_on,55,28,0
2,note_on,55,0,120
2,note_on,58,28,0
2,note_on,58,0,120
2,note_on,46,41,0
2,note_on,46,0,120
2,note_on,51,29,0
2,note_on,51,0,120
2,note_on,53,29,0
2,note_on,53,0,120
2,note_on,57,29,0
2,note_on,57,0,120
2,note_on,46,41,0
2,note_on,46,0,120
2,note_on,51,31,0
2,note_on,51,0,120
2,note_on,53,31,0
2,note_on,53,0,120
2,note_on,57,31,0
2,note_on,57,0,120
2,note_on,46,44,0
2,note_on,46,0,120
2,note_on,50,31,0
2,note_on,50,0,120
2,note_on,53,31,0
2,note_on,53,0,120
2,note_on,58,31,0
2,note_on,58,0,120
2,note_on,46,44,0
2,note_on,46,0,120
2,note_on,50,32,0
2,note_on,50,0,120
2,note_on,53,32,0
2,note_on,53,0,120
2,note_on,58,32,0
2,note_on,58,0,120
2,note_on,46,44,0
2,note_on,46,0,120
2,note_on,50,32,0
2,note_on,50,0,120
2,note_on,53,32,0
2,note_on,53,0,120
2,note_on,56,32,0
2,note_on,56,0,120
2,note_on,46,44,0
2,note_on,46,0,120
2,note_on,50,32,0
2,note_on,50,0,120
2,note_on,53,32,0
2,note_on,53,0,120
2,note_on,56,32,0
2,note_on,56,0,120
2,note_on,46,44,0
2,note_on,46,0,120
2,note_on,51,32,0
2,note_on,51,0,120
2,note_on,55,32,0
2,note_on,55,0,120
2,note_on,51,32,0
2,note_on,51,0,120
2,note_on,46,44,0
2,note_on,46,0,120
2,note_on,51,36,0
2,note_on,51,0,120
2,note_on,55,36,0
2,note_on,55,0,120
2,note_on,51,36,0
2,note_on,51,0,120
2,note_on,46,48,0
2,note_on,46,0,120
2,note_on,48,37,0
2,note_on,48,0,120
2,note_on,51,38,0
2,note_on,51,0,120
2,note_on,53,40,0
2,note_on,53,0,120
2,note_on,46,50,0
2,note_on,46,0,120
2,note_on,48,40,0
2,note_on,48,0,120
2,note_on,51,39,0
2,note_on,51,0,120
2,note_on,53,43,0
2,note_on,53,0,120
2,note_on,46,60,0
2,note_on,46,0,120
2,note_on,46,53,360
2,note_on,46,0,120
2,note_on,45,46,0
2,note_on,45,0,120
2,note_on,46,53,0
2,note_on,46,0,120
2,note_on,43,46,0
2,note_on,43,0,120
2,note_on,41,60,0
2,note_on,41,0,120
2,note_on,51,53,360
2,note_on,51,0,120
2,note_on,50,46,0
2,note_on,50,0,120
2,note_on,51,53,0
2,note_on,51,0,120
2,note_on,48,46,0
2,note_on,48,0,120
2,note_on,46,60,0
2,note_on,46,0,120
2,note_on,58,53,360
2,note_on,58,0,120
2,note_on,57,46,0
2,note_on,57,0,120
2,note_on,58,53,0
2,note_on,58,0,120
2,note_on,55,46,0
2,note_on,55,0,120
2,note_on,53,60,0
2,note_on,53,0,120
2,note_on,63,60,360
2,note_on,63,0,120
2,note_on,62,52,0
2,note_on,62,0,120
2,note_on,63,60,0
2,note_on,63,0,120
2,note_on,60,52,0
2,note_on,60,0,120
2,note_on,58,69,0
2,note_on,58,0,120
2,note_on,60,53,120
2,note_on,60,0,120
2,note_on,62,48,0
2,note_on,62,0,120
2,note_on,63,54,0
2,note_on,63,0,120
2,note_on,65,48,0
2,note_on,65,0,120
2,note_on,67,48,0
2,note_on,67,0,120
2,note_on,69,49,0
2,note_on,69,0,120
2,note_on,70,56,0
2,note_on,70,0,120
2,note_on,69,50,0
2,note_on,69,0,120
2,note_on,70,50,0
2,note_on,70,0,120
2,note_on,72,51,0
2,note_on,72,0,120
2,note_on,74,58,0
2,note_on,74,0,120
2,note_on,72,52,0
2,note_on,72,0,120
2,note_on,74,52,0
2,note_on,74,0,120
2,note_on,76,53,0
2,note_on,76,0,120
2,note_on,77,73,0
2,note_on,77,0,120
2,note_on,53,60,360
2,note_on,53,0,120
2,note_on,46,54,840
2,note_on,50,65,0
2,note_on,46,0,120
2,note_on,45,52,0
2,note_on,45,0,120
2,note_on,46,58,0
2,note_on,46,0,120
2,note_on,41,50,0
2,note_on,41,0,120
2,note_on,50,0,0
2,note_on,50,65,0
2,note_on,53,65,0
2,note_on,53,0,120
2,note_on,50,0,0
2,note_on,46,58,360
2,note_on,50,58,0
2,note_on,50,0,120
2,note_on,46,0,0
2,note_on,46,54,840
2,note_on,50,65,0
2,note_on,46,0,120
2,note_on,45,52,0
2,note_on,45,0,120
2,note_on,46,58,0
2,note_on,46,0,120
2,note_on,41,50,0
2,note_on,41,0,120
2,note_on,50,0,0
2,note_on,50,65,0
2,note_on,53,65,0
2,note_on,53,0,120
2,note_on,50,0,0
2,note_on,46,58,360
2,note_on,50,58,0
2,note_on,50,0,120
2,note_on,46,0,0
2,note_on,50,65,840
2,note_on,50,0,120
2,note_on,49,57,0
2,note_on,49,0,120
2,note_on,50,62,0
2,note_on,50,0,120
2,note_on,46,55,0
2,note_on,46,0,120
2,note_on,53,65,0
2,note_on,53,0,120
2,note_on,52,58,0
2,note_on,52,0,120
2,note_on,53,63,0
2,note_on,53,0,120
2,note_on,50,57,0
2,note_on,50,0,120
2,note_on,58,65,0
2,note_on,58,0,120
2,note_on,57,58,0
2,note_on,57,0,120
2,note_on,58,63,0
2,note_on,58,0,120
2,note_on,53,57,0
2,note_on,53,0,120
2,note_on,62,65,0
2,note_on,62,0,120
2,note_on,61,58,0
2,note_on,61,0,120
2,note_on,62,63,0
2,note_on,62,0,120
2,note_on,58,57,0
2,note_on,58,0,120
2,note_on,65,63,0
2,note_on,65,0,120
2,note_on,64,58,0
2,note_on,64,0,120
2,note_on,65,62,0
2,note_on,65,0,120
2,note_on,62,57,0
2,note_on,62,0,120
2,note_on,68,75,0
2,note_on,68,0,840
2,note_on,67,63,0
2,note_on,67,0,120
2,note_on,65,71,0
2,note_on,65,0,360
2,note_on,63,63,0
2,note_on,63,0,120
2,note_on,62,72,0
2,note_on,62,0,360
2,note_on,60,63,0
2,note_on,60,0,120
2,note_on,59,72,0
2,note_on,59,0,960
2,note_on,60,48,0
2,note_on,60,0,480
2,note_on,57,42,0
2,note_on,57,0,480
2,note_on,58,51,0
2,note_on,58,0,480
2,note_on,55,44,0
2,note_on,55,0,480
2,note_on,56,52,0
2,note_on,56,0,480
2,note_on,54,34,0
2,note_on,54,0,480
2,note_on,55,51,0
2,note_on,55,0,480
2,note_on,52,44,0
2,note_on,52,0,480
2,note_on,53,52,0
2,note_on,53,0,480
2,note_on,50,34,0
2,note_on,50,0,480
2,note_on,51,51,0
2,note_on,51,0,480
2,note_on,48,44,0
2,note_on,48,0,480
2,note_on,50,52,0
2,note_on,50,0,480
2,note_on,52,34,0
2,note_on,52,0,480
2,note_on,41,51,0
2,note_on,41,0,240
2,note_on,53,42,0
2,note_on,53,0,137
2,note_on,53,42,103
2,note_on,53,0,137
2,note_on,53,42,103
2,note_on,53,0,137
2,note_on,53,51,103
2,note_on,53,0,137
2,note_on,53,43,103
2,note_on,53,0,137
2,note_on,53,43,103
2,note_on,53,0,137
2,note_on,53,43,103
2,note_on,53,0,137
2,note_on,53,51,103
2,note_on,53,0,137
2,note_on,53,42,103
2,note_on,53,0,137
2,note_on,53,42,103
2,note_on,53,0,137
2,note_on,53,42,103
2,note_on,53,0,137
2,note_on,53,51,103
2,note_on,53,0,137
2,note_on,53,43,103
2,note_on,53,0,137
2,note_on,53,43,103
2,note_on,53,0,137
2,note_on,53,43,103
2,note_on,53,0,144
2,note_on,41,46,96
2,note_on,53,51,0
2,note_on,53,0,240
2,note_on,41,0,0
2,note_on,65,42,0
2,note_on,65,0,137
2,note_on,65,42,103
2,note_on,65,0,137
2,note_on,65,42,103
2,note_on,65,0,137
2,note_on,65,51,103
2,note_on,65,0,137
2,note_on,65,43,103
2,note_on,65,0,137
2,note_on,65,43,103
2,note_on,65,0,137
2,note_on,65,43,103
2,note_on,65,0,137
2,note_on,65,51,103
2,note_on,65,0,137
2,note_on,65,42,103
2,note_on,65,0,137
2,note_on,65,42,103
2,note_on,65,0,137
2,note_on,65,42,103
2,note_on,65,0,137
2,note_on,65,51,103
2,note_on,65,0,137
2,note_on,65,43,103
2,note_on,65,0,137
2,note_on,65,43,103
2,note_on,65,0,137
2,note_on,65,43,103
2,note_on,65,0,144
2,note_on,53,51,96
2,note_on,53,0,228
2,note_on,65,43,12
2,note_on,65,0,137
2,note_on,65,43,103
2,note_on,65,0,137
2,note_on,65,43,103
2,note_on,65,0,144
2,note_on,53,51,96
2,note_on,53,0,228
2,note_on,65,43,12
2,note_on,65,0,137
2,note_on,65,43,103
2,note_on,65,0,137
2,note_on,65,43,103
2,note_on,65,0,144
2,note_on,53,51,96
2,note_on,53,0,480
2,note_on,58,31,1560
2,note_on,60,36,120
2,note_on,58,0,12
2,note_on,62,31,108
2,note_on,60,0,12
2,note_on,63,36,108
2,note_on,62,0,12
2,note_on,65,31,108
2,note_on,63,0,12
2,note_on,67,36,108
2,note_on,65,0,12
2,note_on,69,29,108
2,note_on,67,0,12
2,note_on,70,36,108
2,note_on,69,0,12
2,note_on,69,29,108
2,note_on,70,0,12
2,note_on,70,36,108
2,note_on,69,0,12
2,note_on,69,29,108
2,note_on,70,0,12
2,note_on,70,36,108
2,note_on,69,0,12
2,note_on,69,27,108
2,note_on,70,0,12
2,note_on,70,34,108
2,note_on,69,0,12
2,note_on,69,26,108
2,note_on,70,0,12
2,note_on,69,0,108
2,note_on,70,30,0
2,note_on,69,25,120
2,note_on,70,0,12
2,note_on,70,30,108
2,note_on,69,0,12
2,note_on,69,25,108
2,note_on,70,0,12
2,note_on,70,30,108
2,note_on,69,0,12
2,note_on,69,25,108
2,note_on,70,0,12
2,note_on,70,30,108
2,note_on,69,0,12
2,note_on,69,25,108
2,note_on,70,0,12
2,note_on,70,30,108
2,note_on,69,0,12
2,note_on,69,25,108
2,note_on,70,0,12
2,note_on,70,30,108
2,note_on,69,0,12
2,note_on,69,25,108
2,note_on,70,0,12
2,note_on,70,30,108
2,note_on,69,0,12
2,note_on,69,25,108
2,note_on,70,0,12
2,note_on,70,30,108
2,note_on,69,0,12
2,note_on,69,25,108
2,note_on,70,0,12
2,note_on,69,0,108
2,note_on,70,30,0
2,note_on,70,0,120
2,note_on,58,31,0
2,note_on,60,36,120
2,note_on,58,0,12
2,note_on,62,31,108
2,note_on,60,0,12
2,note_on,63,36,108
2,note_on,62,0,12
2,note_on,65,31,108
2,note_on,63,0,12
2,note_on,67,36,108
2,note_on,65,0,12
2,note_on,69,29,108
2,note_on,67,0,12
2,note_on,70,36,108
2,note_on,69,0,12
2,note_on,69,29,108
2,note_on,70,0,12
2,note_on,70,36,108
2,note_on,69,0,12
2,note_on,69,29,108
2,note_on,70,0,12
2,note_on,70,36,108
2,note_on,69,0,12
2,note_on,69,27,108
2,note_on,70,0,12
2,note_on,70,34,108
2,note_on,69,0,12
2,note_on,69,26,108
2,note_on,70,0,12
2,note_on,69,0,108
2,note_on,70,30,0
2,note_on,69,25,120
2,note_on,70,0,12
2,note_on,70,30,108
2,note_on,69,0,12
2,note_on,69,25,108
2,note_on,70,0,12
2,note_on,70,30,108
2,note_on,69,0,12
2,note_on,69,25,108
2,note_on,70,0,12
2,note_on,70,30,108
2,note_on,69,0,12
2,note_on,69,25,108
2,note_on,70,0,12
2,note_on,70,30,108
2,note_on,69,0,12
2,note_on,69,25,108
2,note_on,70,0,12
2,note_on,70,30,108
2,note_on,69,0,12
2,note_on,69,25,108
2,note_on,70,0,12
2,note_on,70,30,108
2,note_on,69,0,12
2,note_on,68,25,108
2,note_on,70,0,12
2,note_on,70,30,108
2,note_on,68,0,12
2,note_on,68,25,108
2,note_on,70,0,12
2,note_on,68,0,108
2,note_on,66,39,0
2,note_on,67,34,120
2,note_on,66,0,60
2,note_on,67,0,60
2,note_on,66,39,0
2,note_on,67,35,120
2,note_on,66,0,60
2,note_on,67,0,60
2,note_on,64,41,0
2,note_on,65,35,120
2,note_on,64,0,60
2,note_on,65,0,60
2,note_on,64,42,0
2,note_on,65,36,120
2,note_on,64,0,60
2,note_on,65,0,60
2,note_on,61,44,0
2,note_on,62,37,120
2,note_on,61,0,60
2,note_on,62,0,60
2,note_on,61,45,0
2,note_on,62,37,120
2,note_on,61,0,60
2,note_on,62,0,60
2,note_on,58,44,0
2,note_on,59,38,120
2,note_on,58,0,60
2,note_on,59,0,60
2,note_on,58,44,0
2,note_on,59,39,120
2,note_on,58,0,60
2,note_on,59,0,60
2,note_on,54,45,0
2,note_on,55,39,120
2,note_on,54,0,60
2,note_on,55,0,60
2,note_on,54,46,0
2,note_on,55,40,120
2,note_on,54,0,60
2,note_on,55,0,60
2,note_on,52,48,0
2,note_on,53,41,120
2,note_on,52,0,60
2,note_on,53,0,60
2,note_on,52,48,0
2,note_on,53,41,120
2,note_on,52,0,60
2,note_on,53,0,60
2,note_on,49,54,0
2,note_on,50,42,120
2,note_on,49,0,60
2,note_on,50,0,60
2,note_on,49,52,0
2,note_on,50,43,120
2,note_on,49,0,60
2,note_on,50,0,60
2,note_on,46,55,0
2,note_on,47,44,120
2,note_on,46,0,60
2,note_on,47,0,60
2,note_on,46,51,0
2,note_on,47,44,120
2,note_on,46,0,60
2,note_on,47,0,60
2,note_on,42,57,0
2,note_on,43,44,120
2,note_on,42,0,60
2,note_on,43,0,60
2,note_on,42,51,0
2,note_on,43,44,120
2,note_on,42,0,60
2,note_on,43,0,60
2,note_on,42,56,0
2,note_on,43,50,120
2,note_on,42,0,60
2,note_on,43,0,60
2,note_on,42,57,0
2,note_on,43,44,120
2,note_on,42,0,60
2,note_on,43,0,50
2,note_on,43,61,10
2,note_on,44,52,120
2,note_on,43,0,60
2,note_on,44,0,60
2,note_on,43,58,0
2,note_on,44,52,120
2,note_on,43,0,60
2,note_on,44,0,60
2,note_on,44,58,0
2,note_on,45,44,120
2,note_on,44,0,60
2,note_on,45,0,60
2,note_on,44,54,0
2,note_on,45,44,120
2,note_on,44,0,60
2,note_on,45,0,60
2,note_on,45,56,0
2,note_on,46,48,120
2,note_on,45,0,60
2,note_on,46,0,60
2,note_on,45,51,0
2,note_on,46,44,120
2,note_on,45,0,60
2,note_on,46,0,60
2,note_on,45,51,0
2,note_on,46,44,120
2,note_on,45,0,60
2,note_on,46,0,60
2,note_on,45,51,0
2,note_on,46,44,120
2,note_on,45,0,60
2,note_on,46,0,50
2,note_on,38,51,10
2,note_on,39,44,120
2,note_on,38,0,60
2,note_on,39,0,60
2,note_on,38,51,0
2,note_on,39,44,120
2,note_on,38,0,60
2,note_on,39,0,50
2,note_on,40,51,10
2,note_on,41,44,120
2,note_on,40,0,60
2,note_on,41,0,60
2,note_on,40,51,0
2,note_on,41,44,120
2,note_on,40,0,60
2,note_on,41,0,50
2,note_on,34,48,10
2,note_on,34,0,240
2,note_on,58,54,720
2,note_on,62,64,0
2,note_on,58,0,950
2,note_on,62,0,10
2,note_on,55,41,0
2,note_on,58,49,0
2,note_on,55,0,470
2,note_on,58,0,10
2,note_on,51,41,0
2,note_on,55,49,0
2,note_on,55,0,240
2,note_on,51,0,0
2,note_on,60,54,240
2,note_on,63,64,0
2,note_on,63,0,720
2,note_on,60,0,0
2,note_on,58,41,0
2,note_on,62,49,0
2,note_on,62,0,240
2,note_on,58,0,0
2,note_on,57,49,0
2,note_on,60,58,0
2,note_on,57,0,470
2,note_on,60,0,10
2,note_on,53,44,0
2,note_on,57,52,0
2,note_on,57,0,240
2,note_on,53,0,0
2,note_on,62,54,240
2,note_on,65,64,0
2,note_on,62,0,950
2,note_on,65,0,10
2,note_on,58,41,0
2,note_on,62,49,0
2,note_on,58,0,470
2,note_on,62,0,10
2,note_on,55,41,0
2,note_on,58,49,0
2,note_on,58,0,240
2,note_on,55,0,0
2,note_on,63,54,240
2,note_on,67,64,0
2,note_on,67,0,720
2,note_on,63,0,0
2,note_on,62,41,0
2,note_on,65,49,0
2,note_on,65,0,240
2,note_on,62,0,0
2,note_on,60,49,0
2,note_on,63,58,0
2,note_on,60,0,470
2,note_on,63,0,10
2,note_on,57,44,0
2,note_on,60,52,0
2,note_on,60,0,240
2,note_on,57,0,0
2,note_on,63,54,240
2,note_on,72,64,0
2,note_on,72,0,720
2,note_on,63,0,0
2,note_on,62,41,0
2,note_on,70,49,0
2,note_on,70,0,240
2,note_on,62,0,0
2,note_on,60,54,0
2,note_on,69,64,0
2,note_on,69,0,720
2,note_on,60,0,0
2,note_on,58,41,0
2,note_on,67,41,0
2,note_on,67,0,240
2,note_on,58,0,0
2,note_on,57,41,0
2,note_on,65,49,0
2,note_on,65,0,480
2,note_on,57,0,0
2,note_on,55,34,0
2,note_on,58,41,0
2,note_on,58,0,480
2,note_on,55,0,0
2,note_on,54,36,0
2,note_on,57,43,0
2,note_on,57,0,480
2,note_on,54,0,0
2,note_on,50,27,0
2,note_on,57,32,0
2,note_on,57,0,480
2,note_on,50,0,0
2,note_on,51,33,0
2,note_on,55,39,0
2,note_on,55,0,480
2,note_on,51,0,0
2,note_on,58,40,0
2,note_on,52,31,0
2,note_on,52,0,480
2,note_on,58,0,0
2,note_on,53,38,0
2,note_on,53,0,960
2,note_on,41,32,0
2,note_on,41,0,960
2,note_on,34,35,0
2,note_on,34,0,960
2,note_on,62,66,0
2,note_on,58,55,0
2,note_on,58,0,720
2,note_on,62,0,0
2,note_on,58,37,0
2,note_on,62,44,0
2,note_on,62,0,120
2,note_on,58,0,0
2,note_on,55,45,120
2,note_on,58,53,0
2,note_on,58,0,120
2,note_on,55,0,0
2,note_on,51,39,360
2,note_on,55,47,0
2,note_on,55,0,120
2,note_on,51,0,0
2,note_on,63,66,360
2,note_on,60,55,0
2,note_on,60,0,720
2,note_on,63,0,0
2,note_on,58,37,0
2,note_on,62,44,0
2,note_on,62,0,120
2,note_on,58,0,0
2,note_on,57,45,120
2,note_on,60,53,0
2,note_on,60,0,120
2,note_on,57,0,0
2,note_on,53,39,360
2,note_on,57,47,0
2,note_on,57,0,120
2,note_on,53,0,0
2,note_on,65,72,360
2,note_on,62,60,0
2,note_on,62,0,720
2,note_on,65,0,0
2,note_on,62,40,0
2,note_on,65,48,0
2,note_on,65,0,120
2,note_on,62,0,0
2,note_on,58,49,120
2,note_on,62,58,0
2,note_on,62,0,120
2,note_on,58,0,0
2,note_on,55,42,360
2,note_on,58,51,0
2,note_on,58,0,120
2,note_on,55,0,0
2,note_on,67,75,360
2,note_on,63,62,0
2,note_on,63,0,720
2,note_on,67,0,0
2,note_on,62,42,0
2,note_on,65,50,0
2,note_on,65,0,120
2,note_on,62,0,0
2,note_on,60,51,120
2,note_on,63,60,0
2,note_on,63,0,120
2,note_on,60,0,0
2,note_on,57,44,360
2,note_on,60,53,0
2,note_on,60,0,120
2,note_on,57,0,0
2,note_on,72,79,360
2,note_on,63,66,0
2,note_on,63,0,720
2,note_on,72,0,0
2,note_on,62,44,0
2,note_on,70,52,0
2,note_on,70,0,120
2,note_on,62,0,0
2,note_on,69,79,120
2,note_on,60,66,0
2,note_on,60,0,720
2,note_on,69,0,0
2,note_on,58,44,0
2,note_on,67,52,0
2,note_on,67,0,120
2,note_on,58,0,0
2,note_on,57,49,120
2,note_on,65,58,0
2,note_on,65,0,120
2,note_on,57,0,0
2,note_on,55,40,360
2,note_on,58,49,0
2,note_on,58,0,120
2,note_on,55,0,0
2,note_on,54,34,360
2,note_on,57,34,0
2,note_on,60,40,0
2,note_on,60,0,1920
2,note_on,57,0,0
2,note_on,54,0,0
2,note_on,55,34,0
2,note_on,58,40,0
2,note_on,58,0,1920
2,note_on,55,0,0
2,note_on,52,34,0
2,note_on,55,40,0
2,note_on,55,0,1920
2,note_on,52,0,0
2,note_on,51,57,0
2,note_on,54,68,0
2,note_on,54,0,1200
2,note_on,51,0,0
2,note_on,51,50,0
2,note_on,53,50,0
2,note_on,60,60,0
2,note_on,60,0,120
2,note_on,53,0,0
2,note_on,51,0,0
2,note_on,51,61,120
2,note_on,53,61,0
2,note_on,60,72,0
2,note_on,60,0,120
2,note_on,53,0,0
2,note_on,51,0,0
2,note_on,51,51,120
2,note_on,53,51,0
2,note_on,60,61,0
2,note_on,60,0,120
2,note_on,53,0,0
2,note_on,51,0,0
2,note_on,50,73,120
2,note_on,53,73,0
2,note_on,58,73,0
2,note_on,58,0,480
2,note_on,53,0,0
2,note_on,50,0,0
2,note_on,45,57,240
2,note_on,53,68,0
2,note_on,53,0,120
2,note_on,45,0,0
2,note_on,46,63,120
2,note_on,53,75,0
2,note_on,53,0,120
2,note_on,46,0,0
2,note_on,51,56,120
2,note_on,53,67,0
2,note_on,53,0,120
2,note_on,51,0,0
2,note_on,50,63,120
2,note_on,53,75,0
2,note_on,53,0,120
2,note_on,50,0,0
2,note_on,45,56,120
2,note_on,53,67,0
2,note_on,53,0,120
2,note_on,45,0,0
2,note_on,46,63,120
2,note_on,53,75,0
2,note_on,53,0,120
2,note_on,46,0,0
2,note_on,51,56,120
2,note_on,53,67,0
2,note_on,53,0,120
2,note_on,51,0,0
2,note_on,50,63,120
2,note_on,53,75,0
2,note_on,53,0,120
2,note_on,50,0,0
2,note_on,45,56,120
2,note_on,53,67,0
2,note_on,53,0,120
2,note_on,45,0,0
2,note_on,46,63,120
2,note_on,53,75,0
2,note_on,53,0,120
2,note_on,46,0,0
2,note_on,51,56,120
2,note_on,53,67,0
2,note_on,53,0,120
2,note_on,51,0,0
2,note_on,50,63,120
2,note_on,53,75,0
2,note_on,53,0,120
2,note_on,50,0,0
2,note_on,45,57,120
2,note_on,53,68,0
2,note_on,53,0,120
2,note_on,45,0,0
2,note_on,46,89,120
2,note_on,46,0,960
2,note_on,43,80,0
2,note_on,43,0,960
2,note_on,39,88,0
2,note_on,39,0,960
2,note_on,41,84,0
2,note_on,41,0,960
2,note_on,34,81,0
2,note_on,34,0,120
2,note_on,51,54,120
2,note_on,51,0,120
2,note_on,50,60,120
2,note_on,50,0,120
2,note_on,45,54,120
2,note_on,45,0,120
2,note_on,46,60,120
2,note_on,46,0,120
2,note_on,51,52,120
2,note_on,51,0,120
2,note_on,50,60,120
2,note_on,50,0,120
2,note_on,45,58,120
2,note_on,45,0,120
2,note_on,46,60,120
2,note_on,46,0,120
2,note_on,51,52,120
2,note_on,51,0,120
2,note_on,50,60,120
2,note_on,50,0,120
2,note_on,45,58,120
2,note_on,45,0,120
2,note_on,46,67,120
2,note_on,46,0,120
2,note_on,48,59,120
2,note_on,48,0,120
2,note_on,46,72,120
2,note_on,46,0,120
2,note_on,45,67,120
2,note_on,45,0,120
2,note_on,43,75,120
2,note_on,43,0,120
2,note_on,41,77,120
2,note_on,41,0,120
2,note_on,39,80,120
2,note_on,39,0,120
2,note_on,38,82,120
2,note_on,38,0,120
2,note_on,36,94,120
2,note_on,36,0,1920
2,note_on,29,73,0
2,note_on,41,87,0
2,note_on,41,0,960
2,note_on,29,0,0
2,note_on,34,30,0
2,note_on,34,0,120
2,note_on,46,26,0
2,note_on,46,0,120
2,note_on,34,30,0
2,note_on,34,0,120
2,note_on,46,25,0
2,note_on,46,0,120
2,note_on,34,30,0
2,note_on,34,0,120
2,note_on,46,26,0
2,note_on,46,0,120
2,note_on,34,30,0
2,note_on,34,0,120
2,note_on,46,27,0
2,note_on,46,0,120
2,note_on,34,30,0
2,note_on,34,0,120
2,note_on,46,27,0
2,note_on,46,0,120
2,note_on,34,30,0
2,note_on,34,0,120
2,note_on,46,25,0
2,note_on,46,0,120
2,note_on,34,30,0
2,note_on,34,0,120
2,note_on,46,26,0
2,note_on,46,0,120
2,note_on,34,30,0
2,note_on,34,0,120
2,note_on,46,26,0
2,note_on,46,0,120
2,note_on,34,30,0
2,note_on,34,0,120
2,note_on,46,26,0
2,note_on,46,0,120
2,note_on,34,30,0
2,note_on,34,0,120
2,note_on,46,25,0
2,note_on,46,0,120
2,note_on,34,30,0
2,note_on,34,0,120
2,note_on,46,26,0
2,note_on,46,0,120
2,note_on,34,30,0
2,note_on,34,0,120
2,note_on,46,27,0
2,note_on,46,0,120
2,note_on,34,30,0
2,note_on,34,0,120
2,note_on,46,27,0
2,note_on,46,0,120
2,note_on,34,30,0
2,note_on,34,0,120
2,note_on,46,25,0
2,note_on,46,0,120
2,note_on,34,30,0
2,note_on,34,0,120
2,note_on,46,26,0
2,note_on,46,0,120
2,note_on,34,30,0
2,note_on,34,0,120
2,note_on,46,26,0
2,note_on,46,0,120
2,note_on,34,30,0
2,note_on,34,0,120
2,note_on,46,26,0
2,note_on,46,0,120
2,note_on,34,30,0
2,note_on,34,0,120
2,note_on,46,25,0
2,note_on,46,0,120
2,note_on,34,30,0
2,note_on,34,0,120
2,note_on,46,26,0
2,note_on,46,0,120
2,note_on,34,30,0
2,note_on,34,0,120
2,note_on,46,27,0
2,note_on,46,0,120
2,note_on,34,30,0
2,note_on,34,0,120
2,note_on,46,27,0
2,note_on,46,0,120
2,note_on,34,35,0
2,note_on,34,0,120
2,note_on,46,29,0
2,note_on,46,0,120
2,note_on,34,34,0
2,note_on,34,0,120
2,note_on,46,26,0
2,note_on,46,0,120
2,note_on,34,35,0
2,note_on,34,0,120
2,note_on,46,31,0
2,note_on,46,0,120
2,note_on,34,38,0
2,note_on,34,0,120
2,note_on,46,30,0
2,note_on,46,0,120
2,note_on,34,34,0
2,note_on,34,0,120
2,note_on,46,25,0
2,note_on,46,0,120
2,note_on,34,33,0
2,note_on,34,0,120
2,note_on,46,26,0
2,note_on,46,0,120
2,note_on,34,30,0
2,note_on,34,0,120
2,note_on,46,27,0
2,note_on,46,0,120
2,note_on,34,30,0
2,note_on,34,0,120
2,note_on,46,27,0
2,note_on,46,0,120
2,note_on,34,30,0
2,note_on,34,0,120
2,note_on,46,25,0
2,note_on,46,0,120
2,note_on,34,30,0
2,note_on,34,0,120
2,note_on,46,26,0
2,note_on,46,0,120
2,note_on,34,30,0
2,note_on,34,0,120
2,note_on,46,26,0
2,note_on,46,0,120
2,note_on,34,30,0
2,note_on,34,0,120
2,note_on,46,25,0
2,note_on,46,0,120
2,note_on,34,29,0
2,note_on,34,0,120
2,note_on,46,24,0
2,note_on,46,0,120
2,note_on,34,28,0
2,note_on,34,0,120
2,note_on,46,24,0
2,note_on,46,0,120
2,note_on,34,28,0
2,note_on,34,0,120
2,note_on,46,25,0
2,note_on,46,0,120
2,note_on,34,27,0
2,note_on,34,0,120
2,note_on,46,24,0
2,note_on,46,0,120
2,note_on,34,27,0
2,note_on,34,0,120
2,note_on,46,22,0
2,note_on,46,0,120
2,note_on,34,26,0
2,note_on,34,0,120
2,note_on,46,22,0
2,note_on,46,0,120
2,note_on,34,25,0
2,note_on,34,0,120
2,note_on,46,22,0
2,note_on,46,0,120
2,note_on,34,25,0
2,note_on,34,0,120
2,note_on,46,21,0
2,note_on,46,0,120
2,note_on,34,24,0
2,note_on,34,0,120
2,note_on,46,20,0
2,note_on,46,0,120
2,note_on,34,24,0
2,note_on,34,0,120
2,note_on,46,20,0
2,note_on,46,0,120
2,note_on,34,23,0
2,note_on,34,0,120
2,note_on,46,20,0
2,note_on,46,0,120
2,note_on,34,22,0
2,note_on,34,0,120
2,note_on,46,20,0
2,note_on,46,0,120
2,note_on,34,22,0
2,note_on,34,0,120
2,note_on,46,18,0
2,note_on,46,0,120
2,note_on,34,22,0
2,note_on,34,0,120
2,note_on,46,19,0
2,note_on,46,0,120
2,note_on,34,22,0
2,note_on,34,0,120
2,note_on,46,19,0
2,note_on,46,0,120
2,note_on,34,56,0
2,note_on,46,66,0
2,note_on,46,0,720
2,note_on,34,0,0
2,note_on,36,49,0
2,note_on,48,59,0
2,note_on,48,0,120
2,note_on,36,0,0
2,note_on,38,56,120
2,note_on,50,66,0
2,note_on,50,0,720
2,note_on,38,0,0
2,note_on,39,50,0
2,note_on,51,60,0
2,note_on,51,0,120
2,note_on,39,0,0
2,note_on,41,57,120
2,note_on,53,68,0
2,note_on,53,0,720
2,note_on,41,0,0
2,note_on,43,47,0
2,note_on,55,56,0
2,note_on,55,0,120
2,note_on,43,0,0
2,note_on,45,53,120
2,note_on,57,63,0
2,note_on,57,0,120
2,note_on,45,0,0
2,note_on,46,50,120
2,note_on,58,60,0
2,note_on,58,0,120
2,note_on,46,0,0
2,note_on,48,55,120
2,note_on,60,65,0
2,note_on,60,0,120
2,note_on,48,0,0
2,note_on,50,51,120
2,note_on,62,61,0
2,note_on,62,0,120
2,note_on,50,0,0
2,note_on,51,61,120
2,note_on,63,72,0
2,note_on,63,0,720
2,note_on,51,0,0
2,note_on,50,52,0
2,note_on,62,63,0
2,note_on,62,0,120
2,note_on,50,0,0
2,note_on,48,59,120
2,note_on,60,69,0
2,note_on,60,0,720
2,note_on,48,0,0
2,note_on,46,51,0
2,note_on,58,61,0
2,note_on,58,0,120
2,note_on,46,0,0
2,note_on,45,58,120
2,note_on,57,69,0
2,note_on,57,0,720
2,note_on,45,0,0
2,note_on,43,47,0
2,note_on,55,56,0
2,note_on,55,0,120
2,note_on,43,0,0
2,note_on,41,52,120
2,note_on,53,62,0
2,note_on,53,0,120
2,note_on,41,0,0
2,note_on,39,49,120
2,note_on,51,58,0
2,note_on,51,0,120
2,note_on,39,0,0
2,note_on,38,52,120
2,note_on,50,62,0
2,note_on,50,0,120
2,note_on,38,0,0
2,note_on,36,48,120
2,note_on,48,57,0
2,note_on,48,0,120
2,note_on,36,0,0
2,note_on,34,58,120
2,note_on,46,69,0
2,note_on,46,0,120
2,note_on,34,0,0
2,note_on,53,34,360
2,note_on,60,34,0
2,note_on,63,41,0
2,note_on,63,0,120
2,note_on,60,0,0
2,note_on,53,0,0
2,note_on,58,41,360
2,note_on,62,49,0
2,note_on,62,0,120
2,note_on,58,0,0
2,note_on,65,34,360
2,note_on,72,34,0
2,note_on,75,41,0
2,note_on,75,0,120
2,note_on,72,0,0
2,note_on,65,0,0
2,note_on,70,41,360
2,note_on,74,49,0
2,note_on,74,0,120
2,note_on,70,0,0
2,note_on,41,56,840
2,note_on,53,67,0
2,note_on,53,0,480
2,note_on,41,0,0
2,note_on,34,64,480
2,note_on,46,76,0
2,note_on,46,0,480
2,note_on,34,0,0
