Track,Message Type,Note,Velocity,Time
1,note_on,67,38,1440
1,note_on,67,0,180
1,note_on,68,36,0
1,note_on,68,0,60
1,note_on,67,39,0
1,note_on,67,0,120
1,note_on,65,36,0
1,note_on,65,0,120
1,note_on,67,40,0
1,note_on,67,0,120
1,note_on,68,36,0
1,note_on,68,0,120
1,note_on,69,44,0
1,note_on,69,0,720
1,note_on,70,51,0
1,note_on,70,0,900
1,note_on,72,39,0
1,note_on,72,0,60
1,note_on,70,49,0
1,note_on,70,0,120
1,note_on,69,42,0
1,note_on,69,0,120
1,note_on,70,51,0
1,note_on,70,0,120
1,note_on,71,46,0
1,note_on,71,0,120
1,note_on,71,50,0
1,note_on,72,39,360
1,note_on,72,0,30
1,note_on,71,33,0
1,note_on,71,0,30
1,note_on,71,0,0
1,note_on,69,41,0
1,note_on,69,0,30
1,note_on,71,37,0
1,note_on,71,0,30
1,note_on,74,53,0
1,note_on,74,0,180
1,note_on,72,44,0
1,note_on,72,0,60
1,note_on,65,55,0
1,note_on,65,0,900
1,note_on,67,39,0
1,note_on,67,0,60
1,note_on,65,46,0
1,note_on,65,0,120
1,note_on,64,42,0
1,note_on,64,0,120
1,note_on,65,49,0
1,note_on,65,0,120
1,note_on,67,46,0
1,note_on,67,0,120
1,note_on,68,55,0
1,note_on,68,0,840
1,note_on,67,47,0
1,note_on,67,0,120
1,note_on,65,48,0
1,note_on,65,0,120
1,note_on,64,44,0
1,note_on,64,0,120
1,note_on,65,49,0
1,note_on,65,0,120
1,note_on,67,44,0
1,note_on,67,0,120
1,note_on,68,50,0
1,note_on,68,0,120
1,note_on,70,45,0
1,note_on,70,0,120
1,note_on,72,54,0
1,note_on,72,0,120
1,note_on,71,45,0
1,note_on,71,0,120
1,note_on,72,48,0
1,note_on,72,0,120
1,note_on,68,39,0
1,note_on,68,0,120
1,note_on,66,58,0
1,note_on,66,0,720
1,note_on,67,55,0
1,note_on,67,0,840
1,note_on,63,55,0
1,note_on,63,0,120
1,note_on,67,59,0
1,note_on,67,0,120
1,note_on,70,62,0
1,note_on,70,0,120
1,note_on,75,66,0
1,note_on,75,0,120
1,note_on,79,69,0
1,note_on,79,0,120
1,note_on,82,72,0
1,note_on,82,0,960
1,note_on,79,69,0
1,note_on,79,0,240
1,note_on,75,65,0
1,note_on,75,0,240
1,note_on,70,65,0
1,note_on,70,0,240
1,note_on,67,68,0
1,note_on,67,0,240
1,note_on,63,66,0
1,note_on,63,0,240
1,note_on,60,72,0
1,note_on,60,0,720
1,note_on,84,72,0
1,note_on,84,0,960
1,note_on,82,67,0
1,note_on,82,0,120
1,note_on,80,61,0
1,note_on,80,0,120
1,note_on,79,67,0
1,note_on,79,0,120
1,note_on,77,60,0
1,note_on,77,0,110
1,note_on,77,67,10
1,note_on,77,0,240
1,note_on,75,60,0
1,note_on,75,0,720
1,note_on,75,56,0
1,note_on,75,0,240
1,note_on,75,54,0
1,note_on,75,0,240
1,note_on,75,53,0
1,note_on,75,0,30
1,note_on,77,43,0
1,note_on,77,0,30
1,note_on,75,54,0
1,note_on,75,0,30
1,note_on,77,46,0
1,note_on,77,0,30
1,note_on,75,52,0
1,note_on,75,0,30
1,note_on,77,44,0
1,note_on,77,0,30
1,note_on,75,51,0
1,note_on,75,0,20
1,note_on,74,43,0
1,note_on,74,0,20
1,note_on,75,43,0
1,note_on,75,0,20
1,note_on,77,54,0
1,note_on,77,0,240
1,note_on,74,47,0
1,note_on,74,0,240
1,note_on,75,47,0
1,note_on,75,0,240
1,note_on,70,43,0
1,note_on,70,0,216
1,note_on,70,43,24
1,note_on,70,0,216
1,note_on,70,49,24
1,note_on,70,0,240
1,note_on,72,41,0
1,note_on,72,0,240
1,note_on,68,32,0
1,note_on,68,0,240
1,note_on,63,36,0
1,note_on,67,43,0
1,note_on,67,0,240
1,note_on,68,37,0
1,note_on,68,0,240
1,note_on,63,0,0
1,note_on,62,27,0
1,note_on,65,32,0
1,note_on,65,0,240
1,note_on,62,0,0
1,note_on,63,47,0
1,note_on,63,0,240
1,note_on,58,38,0
1,note_on,58,0,216
1,note_on,58,38,24
1,note_on,58,0,216
1,note_on,58,34,24
1,note_on,58,0,30
1,note_on,60,27,0
1,note_on,60,0,30
1,note_on,58,34,0
1,note_on,58,0,30
1,note_on,60,29,0
1,note_on,60,0,30
1,note_on,58,33,0
1,note_on,58,0,30
1,note_on,60,27,0
1,note_on,60,0,30
1,note_on,58,32,0
1,note_on,58,0,20
1,note_on,57,27,0
1,note_on,57,0,20
1,note_on,58,27,0
1,note_on,58,0,20
1,note_on,60,34,0
1,note_on,60,0,240
1,note_on,56,28,0
1,note_on,56,0,240
1,note_on,51,28,0
1,note_on,55,34,0
1,note_on,55,0,30
1,note_on,56,27,0
1,note_on,56,0,30
1,note_on,55,34,0
1,note_on,55,0,30
1,note_on,56,29,0
1,note_on,56,0,30
1,note_on,55,33,0
1,note_on,55,0,30
1,note_on,56,27,0
1,note_on,56,0,30
1,note_on,55,32,0
1,note_on,55,0,20
1,note_on,53,27,0
1,note_on,53,0,20
1,note_on,55,27,0
1,note_on,55,0,20
1,note_on,56,34,0
1,note_on,53,28,235
1,note_on,56,0,5
1,note_on,51,0,0
1,note_on,53,0,235
1,note_on,51,28,5
1,note_on,51,0,480
1,note_on,50,33,0
1,note_on,53,39,0
1,note_on,53,0,240
1,note_on,50,0,0
1,note_on,51,28,0
1,note_on,51,0,480
1,note_on,50,34,0
1,note_on,53,40,0
1,note_on,53,0,240
1,note_on,50,0,0
1,note_on,51,28,0
1,note_on,51,0,480
1,note_on,50,36,0
1,note_on,53,36,0
1,note_on,58,43,0
1,note_on,58,0,220
1,note_on,53,0,0
1,note_on,50,0,0
1,note_on,50,23,20
1,note_on,53,23,0
1,note_on,58,28,0
1,note_on,58,0,720
1,note_on,53,0,0
1,note_on,50,0,0
1,note_on,51,25,0
1,note_on,51,0,480
1,note_on,55,32,240
1,note_on,55,0,240
1,note_on,58,37,0
1,note_on,58,0,240
1,note_on,63,42,0
1,note_on,63,0,230
1,note_on,55,38,10
1,note_on,58,38,0
1,note_on,63,38,0
1,note_on,67,45,0
1,note_on,67,0,950
1,note_on,55,0,0
1,note_on,58,0,0
1,note_on,63,0,0
1,note_on,58,36,10
1,note_on,63,36,0
1,note_on,67,43,0
1,note_on,67,0,230
1,note_on,63,0,0
1,note_on,58,0,0
1,note_on,63,35,10
1,note_on,67,42,0
1,note_on,67,0,230
1,note_on,63,0,0
1,note_on,63,23,10
1,note_on,67,34,0
1,note_on,67,0,30
1,note_on,68,27,0
1,note_on,68,0,30
1,note_on,67,34,0
1,note_on,67,0,30
1,note_on,68,29,0
1,note_on,68,0,30
1,note_on,67,33,0
1,note_on,67,0,30
1,note_on,68,27,0
1,note_on,68,0,30
1,note_on,67,32,0
1,note_on,67,0,20
1,note_on,65,27,0
1,note_on,65,0,20
1,note_on,67,27,0
1,note_on,67,0,20
1,note_on,65,38,0
1,note_on,68,45,0
1,note_on,68,0,240
1,note_on,65,0,0
1,note_on,63,0,0
1,note_on,58,32,0
1,note_on,62,32,0
1,note_on,65,38,0
1,note_on,65,0,230
1,note_on,62,0,0
1,note_on,58,0,0
1,note_on,58,28,10
1,note_on,62,28,0
1,note_on,65,34,0
1,note_on,65,0,720
1,note_on,62,0,0
1,note_on,63,32,0
1,note_on,63,0,240
1,note_on,58,0,0
1,note_on,55,36,480
1,note_on,58,43,0
1,note_on,58,0,240
1,note_on,55,0,0
1,note_on,58,40,0
1,note_on,63,48,0
1,note_on,63,0,240
1,note_on,58,0,0
1,note_on,63,45,0
1,note_on,67,54,0
1,note_on,67,0,230
1,note_on,63,0,10
1,note_on,67,51,0
1,note_on,70,60,0
1,note_on,75,70,960
1,note_on,75,0,219
1,note_on,75,64,21
1,note_on,75,0,219
1,note_on,75,67,21
1,note_on,75,0,228
1,note_on,70,0,12
1,note_on,67,0,0
1,note_on,66,44,0
1,note_on,69,44,0
1,note_on,75,57,0
1,note_on,75,0,228
1,note_on,69,0,12
1,note_on,66,0,0
1,note_on,75,64,0
1,note_on,66,50,0
1,note_on,70,50,0
1,note_on,75,0,228
1,note_on,70,0,2
1,note_on,66,0,0
1,note_on,66,45,10
1,note_on,72,45,0
1,note_on,75,68,0
1,note_on,66,0,480
1,note_on,65,38,0
1,note_on,65,0,240
1,note_on,75,0,0
1,note_on,72,0,0
1,note_on,66,34,240
1,note_on,72,34,0
1,note_on,75,40,0
1,note_on,66,0,240
1,note_on,65,29,0
1,note_on,65,0,240
1,note_on,75,0,0
1,note_on,72,0,0
1,note_on,66,34,240
1,note_on,70,34,0
1,note_on,73,40,0
1,note_on,66,0,240
1,note_on,65,27,0
1,note_on,65,0,240
1,note_on,73,0,0
1,note_on,70,0,0
1,note_on,73,34,240
1,note_on,63,34,0
1,note_on,66,40,0
1,note_on,73,0,240
1,note_on,71,34,0
1,note_on,71,0,240
1,note_on,66,0,0
1,note_on,63,0,0
1,note_on,71,34,240
1,note_on,61,34,0
1,note_on,67,40,0
1,note_on,71,0,240
1,note_on,70,34,0
1,note_on,70,0,240
1,note_on,67,0,0
1,note_on,61,0,0
1,note_on,70,34,240
1,note_on,60,34,0
1,note_on,63,40,0
1,note_on,70,0,240
1,note_on,69,34,0
1,note_on,69,0,240
1,note_on,63,0,0
1,note_on,60,0,0
1,note_on,62,34,0
1,note_on,70,34,0
1,note_on,70,0,480
1,note_on,62,0,0
1,note_on,74,57,960
1,note_on,74,0,480
1,note_on,72,48,0
1,note_on,72,0,120
1,note_on,70,47,0
1,note_on,70,0,120
1,note_on,60,30,0
1,note_on,63,35,0
1,note_on,70,54,0
1,note_on,70,0,240
1,note_on,69,47,0
1,note_on,63,0,230
1,note_on,69,0,10
1,note_on,60,0,0
1,note_on,58,43,0
1,note_on,63,37,0
1,note_on,67,51,0
1,note_on,67,0,120
1,note_on,58,0,0
1,note_on,57,36,0
1,note_on,65,43,0
1,note_on,65,0,110
1,note_on,57,0,0
1,note_on,63,0,0
1,note_on,57,48,10
1,note_on,63,35,0
1,note_on,65,50,0
1,note_on,57,0,480
1,note_on,55,45,0
1,note_on,55,0,120
1,note_on,53,38,0
1,note_on,53,0,110
1,note_on,53,51,10
1,note_on,65,0,240
1,note_on,67,44,0
1,note_on,53,0,120
1,note_on,51,38,0
1,note_on,51,0,120
1,note_on,67,0,0
1,note_on,50,38,0
1,note_on,69,46,0
1,note_on,50,0,120
1,note_on,51,38,0
1,note_on,51,0,120
1,note_on,69,0,0
1,note_on,63,0,0
1,note_on,70,51,0
1,note_on,50,51,0
1,note_on,70,0,120
1,note_on,72,44,0
1,note_on,72,0,40
1,note_on,70,38,0
1,note_on,70,0,40
1,note_on,69,38,0
1,note_on,69,0,40
1,note_on,70,51,0
1,note_on,70,0,120
1,note_on,72,47,0
1,note_on,72,0,120
1,note_on,50,0,0
1,note_on,74,49,0
1,note_on,74,0,120
1,note_on,75,50,0
1,note_on,75,0,90
1,note_on,74,48,0
1,note_on,74,0,30
1,note_on,77,57,0
1,note_on,77,0,720
1,note_on,76,47,0
1,note_on,76,0,120
1,note_on,77,52,0
1,note_on,77,0,120
1,note_on,79,53,0
1,note_on,79,0,120
1,note_on,77,51,0
1,note_on,77,0,120
1,note_on,75,53,0
1,note_on,75,0,120
1,note_on,74,51,0
1,note_on,74,0,110
1,note_on,63,30,10
1,note_on,67,35,0
1,note_on,74,57,0
1,note_on,74,0,240
1,note_on,72,47,0
1,note_on,67,0,230
1,note_on,72,0,10
1,note_on,63,0,0
1,note_on,62,36,0
1,note_on,70,51,0
1,note_on,65,43,0
1,note_on,65,0,120
1,note_on,70,0,0
1,note_on,62,0,0
1,note_on,60,30,0
1,note_on,69,43,0
1,note_on,63,36,0
1,note_on,63,0,110
1,note_on,69,0,0
1,note_on,60,0,0
1,note_on,60,40,10
1,note_on,69,50,0
1,note_on,63,35,0
1,note_on,63,0,470
1,note_on,69,0,10
1,note_on,60,0,0
1,note_on,63,35,0
1,note_on,58,45,0
1,note_on,67,51,0
1,note_on,67,0,120
1,note_on,58,0,0
1,note_on,65,43,0
1,note_on,57,38,0
1,note_on,57,0,110
1,note_on,63,0,0
1,note_on,65,0,10
1,note_on,63,35,0
1,note_on,65,54,0
1,note_on,57,51,0
1,note_on,57,0,120
1,note_on,55,38,0
1,note_on,55,0,120
1,note_on,65,0,0
1,note_on,53,38,0
1,note_on,67,44,0
1,note_on,53,0,120
1,note_on,51,38,0
1,note_on,51,0,120
1,note_on,67,0,0
1,note_on,50,38,0
1,note_on,69,46,0
1,note_on,50,0,120
1,note_on,48,38,0
1,note_on,48,0,120
1,note_on,69,0,0
1,note_on,63,0,0
1,note_on,62,54,0
1,note_on,70,54,0
1,note_on,70,0,240
1,note_on,62,0,0
1,note_on,73,40,0
1,note_on,73,0,240
1,note_on,74,44,0
1,note_on,74,0,240
1,note_on,76,41,240
1,note_on,76,0,240
1,note_on,77,44,0
1,note_on,77,0,240
1,note_on,81,40,240
1,note_on,81,0,240
1,note_on,82,44,0
1,note_on,82,0,240
1,note_on,78,41,240
1,note_on,78,0,240
1,note_on,79,44,0
1,note_on,79,0,240
1,note_on,74,40,240
1,note_on,74,0,240
1,note_on,75,42,0
1,note_on,75,0,240
1,note_on,71,38,240
1,note_on,71,0,240
1,note_on,72,42,0
1,note_on,72,0,240
1,note_on,77,59,240
1,note_on,77,0,600
1,note_on,79,60,0
1,note_on,79,0,60
1,note_on,81,62,0
1,note_on,81,0,60
1,note_on,82,64,0
1,note_on,82,0,60
1,note_on,84,66,0
1,note_on,84,0,60
1,note_on,86,68,0
1,note_on,86,0,60
1,note_on,87,70,0
1,note_on,87,0,60
1,note_on,89,72,0
1,note_on,89,0,480
1,note_on,87,70,0
1,note_on,87,0,240
1,note_on,84,66,0
1,note_on,84,0,240
1,note_on,82,58,0
1,note_on,82,0,300
1,note_on,81,50,0
1,note_on,81,0,60
1,note_on,86,57,0
1,note_on,84,54,60
1,note_on,86,0,6
1,note_on,82,53,54
1,note_on,84,0,6
1,note_on,81,51,54
1,note_on,82,0,6
1,note_on,79,49,54
1,note_on,81,0,6
1,note_on,77,47,54
1,note_on,79,0,6
1,note_on,76,53,54
1,note_on,77,0,6
1,note_on,77,51,54
1,note_on,76,0,6
1,note_on,82,59,54
1,note_on,77,0,6
1,note_on,81,54,54
1,note_on,82,0,6
1,note_on,79,54,54
1,note_on,81,0,6
1,note_on,77,52,54
1,note_on,79,0,6
1,note_on,75,50,54
1,note_on,77,0,6
1,note_on,74,50,54
1,note_on,75,0,6
1,note_on,73,52,54
1,note_on,74,0,6
1,note_on,74,46,54
1,note_on,73,0,6
1,note_on,79,56,54
1,note_on,74,0,6
1,note_on,77,55,54
1,note_on,79,0,6
1,note_on,75,54,54
1,note_on,77,0,6
1,note_on,74,52,54
1,note_on,75,0,6
1,note_on,72,50,54
1,note_on,74,0,6
1,note_on,70,48,54
1,note_on,72,0,6
1,note_on,69,46,54
1,note_on,70,0,6
1,note_on,70,45,54
1,note_on,69,0,6
1,note_on,75,52,54
1,note_on,70,0,6
1,note_on,74,51,54
1,note_on,75,0,6
1,note_on,72,49,54
1,note_on,74,0,6
1,note_on,70,47,54
1,note_on,72,0,6
1,note_on,69,44,54
1,note_on,70,0,6
1,note_on,67,42,54
1,note_on,69,0,6
1,note_on,64,39,54
1,note_on,67,0,6
1,note_on,64,0,54
1,note_on,65,39,0
1,note_on,65,0,60
1,note_on,66,40,0
1,note_on,66,0,60
1,note_on,67,41,0
1,note_on,67,0,60
1,note_on,68,42,0
1,note_on,68,0,60
1,note_on,69,42,0
1,note_on,69,0,60
1,note_on,70,43,0
1,note_on,70,0,60
1,note_on,71,44,0
1,note_on,71,0,60
1,note_on,72,45,0
1,note_on,72,0,60
1,note_on,73,45,0
1,note_on,73,0,60
1,note_on,74,46,0
1,note_on,74,0,60
1,note_on,75,47,0
1,note_on,75,0,60
1,note_on,76,49,0
1,note_on,76,0,60
1,note_on,77,50,0
1,note_on,77,0,60
1,note_on,78,52,0
1,note_on,78,0,60
1,note_on,79,54,0
1,note_on,79,0,60
1,note_on,80,56,0
1,note_on,80,0,60
1,note_on,81,58,0
1,note_on,81,0,60
1,note_on,82,60,0
1,note_on,82,0,60
1,note_on,83,61,0
1,note_on,83,0,60
1,note_on,84,64,0
1,note_on,84,0,48
1,note_on,85,65,0
1,note_on,85,0,48
1,note_on,86,67,0
1,note_on,86,0,48
1,note_on,87,69,0
1,note_on,87,0,48
1,note_on,88,70,0
1,note_on,88,0,48
1,note_on,89,80,0
1,note_on,89,0,300
1,note_on,87,69,0
1,note_on,87,0,60
1,note_on,84,66,0
1,note_on,84,0,60
1,note_on,81,63,0
1,note_on,81,0,60
1,note_on,77,60,0
1,note_on,77,0,60
1,note_on,75,57,0
1,note_on,75,0,60
1,note_on,72,54,0
1,note_on,72,0,60
1,note_on,69,51,0
1,note_on,69,0,60
1,note_on,70,56,0
1,note_on,70,0,480
1,note_on,70,56,720
1,note_on,73,67,0
1,note_on,73,0,480
1,note_on,74,54,0
1,note_on,74,0,240
1,note_on,70,0,0
1,note_on,69,50,0
1,note_on,75,59,0
1,note_on,75,0,180
1,note_on,72,53,0
1,note_on,72,0,60
1,note_on,69,0,0
1,note_on,62,46,0
1,note_on,70,56,0
1,note_on,70,0,480
1,note_on,62,0,0
1,note_on,61,60,720
1,note_on,58,50,0
1,note_on,61,0,480
1,note_on,62,48,0
1,note_on,62,0,240
1,note_on,58,0,0
1,note_on,63,53,0
1,note_on,57,45,0
1,note_on,63,0,180
1,note_on,60,43,0
1,note_on,60,0,60
1,note_on,57,0,0
1,note_on,58,48,0
1,note_on,58,0,240
1,note_on,57,43,0
1,note_on,63,51,0
1,note_on,63,0,360
1,note_on,60,44,0
1,note_on,60,0,120
1,note_on,57,0,0
1,note_on,58,48,0
1,note_on,58,0,240
1,note_on,57,43,0
1,note_on,63,51,0
1,note_on,63,0,360
1,note_on,60,44,0
1,note_on,60,0,120
1,note_on,57,0,0
1,note_on,58,48,0
1,note_on,58,0,240
1,note_on,63,59,0
1,note_on,57,50,0
1,note_on,63,0,120
1,note_on,62,55,0
1,note_on,62,0,120
1,note_on,57,0,0
1,note_on,63,69,0
1,note_on,57,51,0
1,note_on,63,0,120
1,note_on,60,62,0
1,note_on,60,0,120
1,note_on,57,0,0
1,note_on,59,39,0
1,note_on,59,0,40
1,note_on,60,38,0
1,note_on,60,0,40
1,note_on,62,32,0
1,note_on,62,0,40
1,note_on,60,42,0
1,note_on,57,35,0
1,note_on,57,0,600
1,note_on,60,0,0
1,note_on,58,39,0
1,note_on,58,0,480
1,note_on,59,33,2400
1,note_on,59,0,180
1,note_on,60,28,0
1,note_on,60,0,60
1,note_on,59,34,0
1,note_on,59,0,120
1,note_on,57,29,0
1,note_on,57,0,120
1,note_on,59,38,0
1,note_on,59,0,120
1,note_on,60,37,0
1,note_on,60,0,120
1,note_on,53,25,0
1,note_on,61,34,0
1,note_on,56,25,0
1,note_on,59,25,0
1,note_on,61,0,720
1,note_on,62,34,0
1,note_on,62,0,480
1,note_on,59,0,0
1,note_on,56,0,0
1,note_on,53,0,0
1,note_on,63,28,420
1,note_on,63,0,60
1,note_on,62,38,0
1,note_on,62,0,120
1,note_on,61,33,0
1,note_on,61,0,120
1,note_on,62,39,0
1,note_on,62,0,120
1,note_on,63,41,0
1,note_on,63,0,120
1,note_on,62,25,0
1,note_on,64,34,0
1,note_on,56,25,0
1,note_on,59,25,0
1,note_on,64,0,720
1,note_on,65,34,0
1,note_on,65,0,480
1,note_on,59,0,0
1,note_on,56,0,0
1,note_on,62,0,0
1,note_on,72,45,420
1,note_on,60,38,0
1,note_on,60,0,60
1,note_on,72,0,0
1,note_on,59,44,0
1,note_on,71,52,0
1,note_on,71,0,120
1,note_on,59,0,0
1,note_on,57,43,0
1,note_on,69,51,0
1,note_on,69,0,120
1,note_on,57,0,0
1,note_on,59,50,0
1,note_on,71,59,0
1,note_on,71,0,120
1,note_on,59,0,0
1,note_on,72,61,0
1,note_on,60,51,0
1,note_on,60,0,120
1,note_on,72,0,0
1,note_on,73,70,0
1,note_on,61,59,0
1,note_on,61,0,720
1,note_on,73,0,0
1,note_on,62,41,0
1,note_on,74,49,0
1,note_on,74,0,180
1,note_on,62,0,0
1,note_on,75,52,0
1,note_on,75,0,60
1,note_on,74,57,0
1,note_on,74,0,120
1,note_on,73,52,0
1,note_on,73,0,120
1,note_on,74,52,0
1,note_on,74,0,120
1,note_on,75,52,0
1,note_on,75,0,120
1,note_on,77,58,0
1,note_on,77,0,120
1,note_on,79,55,0
1,note_on,79,0,120
1,note_on,80,62,0
1,note_on,80,0,120
1,note_on,79,55,0
1,note_on,79,0,120
1,note_on,80,66,0
1,note_on,80,0,120
1,note_on,77,60,0
1,note_on,77,0,120
1,note_on,77,70,0
1,note_on,77,0,720
1,note_on,67,41,0
1,note_on,76,49,0
1,note_on,76,0,180
1,note_on,67,0,0
1,note_on,68,48,0
1,note_on,68,0,60
1,note_on,67,52,0
1,note_on,67,0,120
1,note_on,66,48,0
1,note_on,66,0,120
1,note_on,67,48,0
1,note_on,67,0,120
1,note_on,69,48,0
1,note_on,69,0,120
1,note_on,70,55,0
1,note_on,70,0,120
1,note_on,72,50,0
1,note_on,72,0,120
1,note_on,73,64,0
1,note_on,73,0,120
1,note_on,72,60,0
1,note_on,72,0,120
1,note_on,73,68,0
1,note_on,73,0,120
1,note_on,70,64,0
1,note_on,70,0,120
1,note_on,70,70,0
1,note_on,70,0,720
1,note_on,72,49,0
1,note_on,69,41,0
1,note_on,69,0,180
1,note_on,72,0,0
1,note_on,73,48,0
1,note_on,73,0,60
1,note_on,72,52,0
1,note_on,72,0,120
1,note_on,71,48,0
1,note_on,71,0,120
1,note_on,72,48,0
1,note_on,72,0,120
1,note_on,74,48,0
1,note_on,74,0,120
1,note_on,75,60,0
1,note_on,75,0,120
1,note_on,77,56,0
1,note_on,77,0,120
1,note_on,78,64,0
1,note_on,78,0,120
1,note_on,77,58,0
1,note_on,77,0,120
1,note_on,78,67,0
1,note_on,78,0,120
1,note_on,75,64,0
1,note_on,75,0,120
1,note_on,75,70,0
1,note_on,75,0,720
1,note_on,65,41,0
1,note_on,74,49,0
1,note_on,74,0,180
1,note_on,65,0,0
1,note_on,66,48,0
1,note_on,66,0,60
1,note_on,65,52,0
1,note_on,65,0,120
1,note_on,64,48,0
1,note_on,64,0,120
1,note_on,65,48,0
1,note_on,65,0,120
1,note_on,67,48,0
1,note_on,67,0,120
1,note_on,68,60,0
1,note_on,68,0,120
1,note_on,70,54,0
1,note_on,70,0,120
1,note_on,71,64,0
1,note_on,71,0,120
1,note_on,70,56,0
1,note_on,70,0,120
1,note_on,71,67,0
1,note_on,71,0,120
1,note_on,68,59,0
1,note_on,68,0,120
1,note_on,68,70,0
1,note_on,68,0,720
1,note_on,67,41,0
1,note_on,70,49,0
1,note_on,70,0,180
1,note_on,71,48,0
1,note_on,71,0,60
1,note_on,70,53,0
1,note_on,70,0,120
1,note_on,69,49,0
1,note_on,69,0,120
1,note_on,70,50,0
1,note_on,70,0,120
1,note_on,71,50,0
1,note_on,71,0,120
1,note_on,73,64,0
1,note_on,73,0,120
1,note_on,75,60,0
1,note_on,67,0,110
1,note_on,75,0,10
1,note_on,76,70,0
1,note_on,67,45,0
1,note_on,76,0,120
1,note_on,75,64,0
1,note_on,67,0,96
1,note_on,75,0,24
1,note_on,67,45,0
1,note_on,76,75,0
1,note_on,76,0,120
1,note_on,73,69,0
1,note_on,73,0,120
1,note_on,67,0,0
1,note_on,68,49,0
1,note_on,71,49,0
1,note_on,71,0,120
1,note_on,73,46,0
1,note_on,73,0,120
1,note_on,75,52,0
1,note_on,75,0,120
1,note_on,73,45,0
1,note_on,73,0,120
1,note_on,68,0,0
1,note_on,75,51,0
1,note_on,75,0,120
1,note_on,71,48,0
1,note_on,71,0,120
1,note_on,70,49,0
1,note_on,70,0,120
1,note_on,71,44,0
1,note_on,71,0,120
1,note_on,73,52,0
1,note_on,73,0,120
1,note_on,71,46,0
1,note_on,71,0,120
1,note_on,73,49,0
1,note_on,73,0,120
1,note_on,70,42,0
1,note_on,70,0,120
1,note_on,68,49,0
1,note_on,68,0,120
1,note_on,70,45,0
1,note_on,70,0,120
1,note_on,71,49,0
1,note_on,75,60,0
1,note_on,71,0,120
1,note_on,70,45,0
1,note_on,75,0,110
1,note_on,70,0,10
1,note_on,71,49,0
1,note_on,75,60,0
1,note_on,71,0,120
1,note_on,68,45,0
1,note_on,68,0,120
1,note_on,75,0,0
1,note_on,76,65,0
1,note_on,67,44,0
1,note_on,67,0,120
1,note_on,68,41,0
1,note_on,68,0,120
1,note_on,70,46,0
1,note_on,70,0,120
1,note_on,68,40,0
1,note_on,68,0,120
1,note_on,76,0,0
1,note_on,70,45,0
1,note_on,75,60,0
1,note_on,70,0,120
1,note_on,67,43,0
1,note_on,67,0,120
1,note_on,75,0,0
1,note_on,68,44,0
1,note_on,68,0,120
1,note_on,70,39,0
1,note_on,70,0,120
1,note_on,71,46,0
1,note_on,71,0,120
1,note_on,70,41,0
1,note_on,70,0,120
1,note_on,71,44,0
1,note_on,71,0,120
1,note_on,68,37,0
1,note_on,68,0,120
1,note_on,65,44,0
1,note_on,65,0,120
1,note_on,66,40,0
1,note_on,66,0,120
1,note_on,74,60,0
1,note_on,68,44,0
1,note_on,68,0,120
1,note_on,66,40,0
1,note_on,74,0,110
1,note_on,66,0,10
1,note_on,74,60,0
1,note_on,68,44,0
1,note_on,68,0,120
1,note_on,65,40,0
1,note_on,65,0,120
1,note_on,74,0,0
1,note_on,75,65,0
1,note_on,63,44,0
1,note_on,63,0,120
1,note_on,65,41,0
1,note_on,65,0,120
1,note_on,66,46,0
1,note_on,66,0,120
1,note_on,65,40,0
1,note_on,65,0,120
1,note_on,75,0,0
1,note_on,70,60,0
1,note_on,66,45,0
1,note_on,66,0,120
1,note_on,63,43,0
1,note_on,63,0,120
1,note_on,70,0,0
1,note_on,62,44,0
1,note_on,62,0,120
1,note_on,63,39,0
1,note_on,63,0,120
1,note_on,65,46,0
1,note_on,65,0,120
1,note_on,63,41,0
1,note_on,63,0,120
1,note_on,65,44,0
1,note_on,65,0,120
1,note_on,62,37,0
1,note_on,62,0,120
1,note_on,63,44,0
1,note_on,63,0,120
1,note_on,65,40,0
1,note_on,65,0,120
1,note_on,66,44,0
1,note_on,70,60,0
1,note_on,66,0,120
1,note_on,65,40,0
1,note_on,70,0,110
1,note_on,65,0,10
1,note_on,70,60,0
1,note_on,66,44,0
1,note_on,66,0,120
1,note_on,63,40,0
1,note_on,63,0,120
1,note_on,70,0,0
1,note_on,71,65,0
1,note_on,65,44,0
1,note_on,65,0,120
1,note_on,66,41,0
1,note_on,66,0,120
1,note_on,68,46,0
1,note_on,68,0,120
1,note_on,66,40,0
1,note_on,66,0,120
1,note_on,71,0,0
1,note_on,70,60,0
1,note_on,68,45,0
1,note_on,68,0,120
1,note_on,65,43,0
1,note_on,65,0,120
1,note_on,70,0,0
1,note_on,66,44,0
1,note_on,66,0,120
1,note_on,68,39,0
1,note_on,68,0,120
1,note_on,70,46,0
1,note_on,70,0,120
1,note_on,68,41,0
1,note_on,68,0,120
1,note_on,70,44,0
1,note_on,70,0,120
1,note_on,66,37,0
1,note_on,66,0,120
1,note_on,63,44,0
1,note_on,63,0,120
1,note_on,65,40,0
1,note_on,65,0,120
1,note_on,66,44,0
1,note_on,69,60,0
1,note_on,66,0,120
1,note_on,65,40,0
1,note_on,69,0,110
1,note_on,65,0,10
1,note_on,66,44,0
1,note_on,69,60,0
1,note_on,66,0,120
1,note_on,63,40,0
1,note_on,63,0,120
1,note_on,69,0,0
1,note_on,70,65,0
1,note_on,62,44,0
1,note_on,62,0,120
1,note_on,63,41,0
1,note_on,63,0,120
1,note_on,65,46,0
1,note_on,65,0,120
1,note_on,63,40,0
1,note_on,63,0,120
1,note_on,62,45,0
1,note_on,62,0,120
1,note_on,63,43,0
1,note_on,63,0,120
1,note_on,65,44,0
1,note_on,65,0,120
1,note_on,66,39,0
1,note_on,66,0,120
1,note_on,68,46,0
1,note_on,68,0,120
1,note_on,66,41,0
1,note_on,66,0,120
1,note_on,65,44,0
1,note_on,65,0,120
1,note_on,68,37,0
1,note_on,68,0,120
1,note_on,66,44,0
1,note_on,66,0,120
1,note_on,65,40,0
1,note_on,65,0,120
1,note_on,70,0,0
1,note_on,69,60,0
1,note_on,63,44,0
1,note_on,63,0,120
1,note_on,65,40,0
1,note_on,69,0,110
1,note_on,65,0,10
1,note_on,69,60,0
1,note_on,66,44,0
1,note_on,66,0,120
1,note_on,63,40,0
1,note_on,63,0,120
1,note_on,69,0,0
1,note_on,58,44,0
1,note_on,70,65,0
1,note_on,58,0,120
1,note_on,60,41,0
1,note_on,60,0,120
1,note_on,62,46,0
1,note_on,62,0,120
1,note_on,60,40,0
1,note_on,60,0,120
1,note_on,58,45,0
1,note_on,58,0,120
1,note_on,60,43,0
1,note_on,60,0,120
1,note_on,62,44,0
1,note_on,62,0,120
1,note_on,63,39,0
1,note_on,63,0,120
1,note_on,65,46,0
1,note_on,65,0,120
1,note_on,63,41,0
1,note_on,63,0,120
1,note_on,62,44,0
1,note_on,62,0,120
1,note_on,65,37,0
1,note_on,65,0,120
1,note_on,63,44,0
1,note_on,63,0,120
1,note_on,62,40,0
1,note_on,62,0,120
1,note_on,70,0,0
1,note_on,69,60,0
1,note_on,60,44,0
1,note_on,60,0,120
1,note_on,62,40,0
1,note_on,69,0,110
1,note_on,62,0,10
1,note_on,63,44,0
1,note_on,69,60,0
1,note_on,63,0,120
1,note_on,60,40,0
1,note_on,60,0,120
1,note_on,69,0,0
1,note_on,58,44,0
1,note_on,58,0,120
1,note_on,60,37,0
1,note_on,60,0,120
1,note_on,62,44,0
1,note_on,62,0,120
1,note_on,61,38,0
1,note_on,61,0,120
1,note_on,62,41,0
1,note_on,62,0,120
1,note_on,58,34,0
1,note_on,58,0,120
1,note_on,62,44,0
1,note_on,64,39,120
1,note_on,62,0,12
1,note_on,65,40,108
1,note_on,64,0,12
1,note_on,64,33,108
1,note_on,65,0,12
1,note_on,65,39,108
1,note_on,64,0,12
1,note_on,62,34,108
1,note_on,65,0,12
1,note_on,65,47,108
1,note_on,62,0,12
1,note_on,67,43,108
1,note_on,65,0,12
1,note_on,68,50,108
1,note_on,67,0,12
1,note_on,67,42,108
1,note_on,68,0,12
1,note_on,68,53,108
1,note_on,67,0,12
1,note_on,65,37,108
1,note_on,68,0,12
1,note_on,68,41,108
1,note_on,65,0,12
1,note_on,71,36,108
1,note_on,68,0,12
1,note_on,72,41,108
1,note_on,71,0,12
1,note_on,71,37,108
1,note_on,72,0,12
1,note_on,74,41,108
1,note_on,71,0,12
1,note_on,72,36,108
1,note_on,74,0,12
1,note_on,70,41,108
1,note_on,72,0,12
1,note_on,68,36,108
1,note_on,70,0,12
1,note_on,67,41,108
1,note_on,68,0,12
1,note_on,65,35,108
1,note_on,67,0,12
1,note_on,64,35,108
1,note_on,65,0,12
1,note_on,65,29,108
1,note_on,64,0,12
1,note_on,67,41,108
1,note_on,65,0,12
1,note_on,65,36,108
1,note_on,67,0,12
1,note_on,68,41,108
1,note_on,65,0,12
1,note_on,65,32,108
1,note_on,68,0,12
1,note_on,60,38,108
1,note_on,65,0,12
1,note_on,62,32,108
1,note_on,60,0,12
1,note_on,62,0,108
1,note_on,63,38,0
1,note_on,63,0,480
1,note_on,67,38,960
1,note_on,67,0,180
1,note_on,68,36,0
1,note_on,68,0,60
1,note_on,67,39,0
1,note_on,67,0,120
1,note_on,65,36,0
1,note_on,65,0,120
1,note_on,67,40,0
1,note_on,67,0,120
1,note_on,68,36,0
1,note_on,68,0,120
1,note_on,69,44,0
1,note_on,69,0,720
1,note_on,70,51,0
1,note_on,70,0,900
1,note_on,72,39,0
1,note_on,72,0,60
1,note_on,70,49,0
1,note_on,70,0,120
1,note_on,69,42,0
1,note_on,69,0,120
1,note_on,70,51,0
1,note_on,70,0,120
1,note_on,71,46,0
1,note_on,71,0,120
1,note_on,71,50,0
1,note_on,72,39,360
1,note_on,72,0,30
1,note_on,71,33,0
1,note_on,71,0,30
1,note_on,71,0,0
1,note_on,69,41,0
1,note_on,69,0,30
1,note_on,71,37,0
1,note_on,71,0,30
1,note_on,74,53,0
1,note_on,74,0,180
1,note_on,72,44,0
1,note_on,72,0,60
1,note_on,65,55,0
1,note_on,65,0,900
1,note_on,67,39,0
1,note_on,67,0,60
1,note_on,65,46,0
1,note_on,65,0,120
1,note_on,64,42,0
1,note_on,64,0,120
1,note_on,65,49,0
1,note_on,65,0,120
1,note_on,67,46,0
1,note_on,67,0,120
1,note_on,68,55,0
1,note_on,68,0,780
1,note_on,67,47,0
1,note_on,67,0,60
1,note_on,65,48,0
1,note_on,65,0,60
1,note_on,64,48,0
1,note_on,64,0,60
1,note_on,65,49,0
1,note_on,65,0,60
1,note_on,67,50,0
1,note_on,67,0,60
1,note_on,68,50,0
1,note_on,68,0,60
1,note_on,70,51,0
1,note_on,70,0,60
1,note_on,72,52,0
1,note_on,72,0,60
1,note_on,74,51,0
1,note_on,74,0,60
1,note_on,75,53,0
1,note_on,75,0,60
1,note_on,76,54,0
1,note_on,76,0,60
1,note_on,77,56,0
1,note_on,77,0,60
1,note_on,79,57,0
1,note_on,79,0,60
1,note_on,80,59,0
1,note_on,80,0,60
1,note_on,82,60,0
1,note_on,82,0,60
1,note_on,84,63,0
1,note_on,84,0,60
1,note_on,83,59,0
1,note_on,83,0,60
1,note_on,86,63,0
1,note_on,86,0,60
1,note_on,84,61,0
1,note_on,84,0,60
1,note_on,82,60,0
1,note_on,82,0,60
1,note_on,80,58,0
1,note_on,80,0,60
1,note_on,79,56,0
1,note_on,79,0,60
1,note_on,77,53,0
1,note_on,77,0,60
1,note_on,78,58,0
1,note_on,78,0,720
1,note_on,79,55,0
1,note_on,79,0,840
1,note_on,63,55,0
1,note_on,63,0,120
1,note_on,67,59,0
1,note_on,67,0,120
1,note_on,70,62,0
1,note_on,70,0,120
1,note_on,75,66,0
1,note_on,75,0,120
1,note_on,79,69,0
1,note_on,79,0,120
1,note_on,82,72,0
1,note_on,82,0,840
1,note_on,78,55,0
1,note_on,78,0,120
1,note_on,79,62,0
1,note_on,79,0,120
1,note_on,74,57,0
1,note_on,74,0,120
1,note_on,75,64,0
1,note_on,75,0,120
1,note_on,69,57,0
1,note_on,69,0,120
1,note_on,70,66,0
1,note_on,70,0,120
1,note_on,66,57,0
1,note_on,66,0,120
1,note_on,67,68,0
1,note_on,67,0,120
1,note_on,62,59,0
1,note_on,62,0,120
1,note_on,63,69,0
1,note_on,63,0,120
1,note_on,67,57,0
1,note_on,67,0,120
1,note_on,67,69,0
1,note_on,67,0,240
1,note_on,60,63,0
1,note_on,60,0,720
1,note_on,72,69,0
1,note_on,72,0,720
1,note_on,84,69,0
1,note_on,84,0,60
1,note_on,83,62,0
1,note_on,83,0,60
1,note_on,86,69,0
1,note_on,86,0,60
1,note_on,84,68,0
1,note_on,84,0,60
1,note_on,82,67,0
1,note_on,82,0,60
1,note_on,80,65,0
1,note_on,80,0,60
1,note_on,79,64,0
1,note_on,79,0,60
1,note_on,77,62,0
1,note_on,77,0,50
1,note_on,77,67,10
1,note_on,77,0,240
1,note_on,75,60,0
1,note_on,75,0,720
1,note_on,75,56,0
1,note_on,75,0,240
1,note_on,75,54,0
1,note_on,75,0,240
1,note_on,75,53,0
1,note_on,75,0,30
1,note_on,77,43,0
1,note_on,77,0,30
1,note_on,75,54,0
1,note_on,75,0,30
1,note_on,77,46,0
1,note_on,77,0,30
1,note_on,75,52,0
1,note_on,75,0,30
1,note_on,77,44,0
1,note_on,77,0,30
1,note_on,75,51,0
1,note_on,75,0,20
1,note_on,74,43,0
1,note_on,74,0,20
1,note_on,75,43,0
1,note_on,75,0,20
1,note_on,77,54,0
1,note_on,77,0,240
1,note_on,74,47,0
1,note_on,74,0,240
1,note_on,75,47,0
1,note_on,75,0,240
1,note_on,70,43,0
1,note_on,70,0,216
1,note_on,70,43,24
1,note_on,70,0,216
1,note_on,70,49,24
1,note_on,70,0,240
1,note_on,72,41,0
1,note_on,72,0,240
1,note_on,68,32,0
1,note_on,68,0,240
1,note_on,67,43,0
1,note_on,63,36,0
1,note_on,67,0,240
1,note_on,68,37,0
1,note_on,68,0,240
1,note_on,63,0,0
1,note_on,65,32,0
1,note_on,62,27,0
1,note_on,62,0,240
1,note_on,65,0,0
1,note_on,63,47,0
1,note_on,63,0,240
1,note_on,58,38,0
1,note_on,58,0,216
1,note_on,58,38,24
1,note_on,58,0,216
1,note_on,58,34,24
1,note_on,58,0,30
1,note_on,60,27,0
1,note_on,60,0,30
1,note_on,58,34,0
1,note_on,58,0,30
1,note_on,60,29,0
1,note_on,60,0,30
1,note_on,58,33,0
1,note_on,58,0,30
1,note_on,60,27,0
1,note_on,60,0,30
1,note_on,58,32,0
1,note_on,58,0,20
1,note_on,57,27,0
1,note_on,57,0,20
1,note_on,58,27,0
1,note_on,58,0,20
1,note_on,60,34,0
1,note_on,60,0,240
1,note_on,56,28,0
1,note_on,56,0,240
1,note_on,51,28,0
1,note_on,55,34,0
1,note_on,55,0,30
1,note_on,56,27,0
1,note_on,56,0,30
1,note_on,55,34,0
1,note_on,55,0,30
1,note_on,56,29,0
1,note_on,56,0,30
1,note_on,55,33,0
1,note_on,55,0,30
1,note_on,56,27,0
1,note_on,56,0,30
1,note_on,55,32,0
1,note_on,55,0,20
1,note_on,53,27,0
1,note_on,53,0,20
1,note_on,55,27,0
1,note_on,55,0,20
1,note_on,56,34,0
1,note_on,53,28,235
1,note_on,56,0,5
1,note_on,51,0,0
1,note_on,53,0,235
1,note_on,51,30,5
1,note_on,51,0,240
1,note_on,55,28,0
1,note_on,55,0,240
1,note_on,58,29,0
1,note_on,58,0,240
1,note_on,55,34,0
1,note_on,55,0,240
1,note_on,58,31,0
1,note_on,58,0,240
1,note_on,63,31,0
1,note_on,63,0,240
1,note_on,58,32,0
1,note_on,58,0,240
1,note_on,63,37,0
1,note_on,63,0,240
1,note_on,67,42,0
1,note_on,67,0,230
1,note_on,67,45,10
1,note_on,58,38,0
1,note_on,63,38,0
1,note_on,55,38,0
1,note_on,55,0,950
1,note_on,67,0,0
1,note_on,58,0,0
1,note_on,63,0,0
1,note_on,67,43,10
1,note_on,63,36,0
1,note_on,58,36,0
1,note_on,58,0,230
1,note_on,63,0,0
1,note_on,67,0,0
1,note_on,63,35,10
1,note_on,67,42,0
1,note_on,67,0,230
1,note_on,63,0,0
1,note_on,63,23,10
1,note_on,67,34,0
1,note_on,67,0,30
1,note_on,68,27,0
1,note_on,68,0,30
1,note_on,67,34,0
1,note_on,67,0,30
1,note_on,68,29,0
1,note_on,68,0,30
1,note_on,67,33,0
1,note_on,67,0,30
1,note_on,68,27,0
1,note_on,68,0,30
1,note_on,67,32,0
1,note_on,67,0,20
1,note_on,65,27,0
1,note_on,65,0,20
1,note_on,67,27,0
1,note_on,67,0,20
1,note_on,65,38,0
1,note_on,68,45,0
1,note_on,68,0,240
1,note_on,65,0,0
1,note_on,63,0,0
1,note_on,62,32,0
1,note_on,65,38,0
1,note_on,58,32,0
1,note_on,58,0,230
1,note_on,65,0,0
1,note_on,62,0,0
1,note_on,62,28,10
1,note_on,65,34,0
1,note_on,58,28,0
1,note_on,65,0,720
1,note_on,62,0,0
1,note_on,63,32,0
1,note_on,63,0,240
1,note_on,58,0,0
1,note_on,58,43,480
1,note_on,54,36,0
1,note_on,54,0,240
1,note_on,58,0,0
1,note_on,58,40,0
1,note_on,63,48,0
1,note_on,63,0,240
1,note_on,58,0,0
1,note_on,66,54,0
1,note_on,63,45,0
1,note_on,66,0,230
1,note_on,63,0,10
1,note_on,66,51,0
1,note_on,70,60,0
1,note_on,75,70,960
1,note_on,75,0,219
1,note_on,75,64,21
1,note_on,75,0,219
1,note_on,75,67,21
1,note_on,75,0,228
1,note_on,70,0,12
1,note_on,66,0,0
1,note_on,68,44,0
1,note_on,75,57,0
1,note_on,75,0,228
1,note_on,68,0,12
1,note_on,70,50,0
1,note_on,66,50,0
1,note_on,75,64,0
1,note_on,75,0,228
1,note_on,66,0,2
1,note_on,70,0,0
1,note_on,75,68,10
1,note_on,71,45,0
1,note_on,65,45,0
1,note_on,75,0,480
1,note_on,73,38,0
1,note_on,73,0,240
1,note_on,65,0,0
1,note_on,71,0,0
1,note_on,68,34,240
1,note_on,75,40,0
1,note_on,71,34,0
1,note_on,75,0,240
1,note_on,73,29,0
1,note_on,73,0,240
1,note_on,71,0,0
1,note_on,68,0,0
1,note_on,75,40,240
1,note_on,66,34,0
1,note_on,70,34,0
1,note_on,75,0,240
1,note_on,73,27,0
1,note_on,73,0,240
1,note_on,70,0,0
1,note_on,66,0,0
1,note_on,73,40,240
1,note_on,68,34,0
1,note_on,63,34,0
1,note_on,73,0,240
1,note_on,71,27,0
1,note_on,71,0,240
1,note_on,63,0,0
1,note_on,68,0,0
1,note_on,61,34,240
1,note_on,71,40,0
1,note_on,66,34,0
1,note_on,71,0,240
1,note_on,70,27,0
1,note_on,70,0,240
1,note_on,66,0,0
1,note_on,61,0,0
1,note_on,70,40,240
1,note_on,65,34,0
1,note_on,59,34,0
1,note_on,70,0,240
1,note_on,68,27,0
1,note_on,65,0,230
1,note_on,68,0,10
1,note_on,59,0,0
1,note_on,68,45,0
1,note_on,59,68,0
1,note_on,65,45,0
1,note_on,59,0,480
1,note_on,58,38,0
1,note_on,58,0,240
1,note_on,65,0,0
1,note_on,68,0,0
1,note_on,68,34,240
1,note_on,59,40,0
1,note_on,65,34,0
1,note_on,59,0,240
1,note_on,58,29,0
1,note_on,58,0,240
1,note_on,65,0,0
1,note_on,68,0,0
1,note_on,66,34,240
1,note_on,59,40,0
1,note_on,63,34,0
1,note_on,59,0,240
1,note_on,58,27,0
1,note_on,58,0,240
1,note_on,63,0,0
1,note_on,66,0,0
1,note_on,66,40,240
1,note_on,56,34,0
1,note_on,59,34,0
1,note_on,66,0,240
1,note_on,64,27,0
1,note_on,64,0,240
1,note_on,59,0,0
1,note_on,56,0,0
1,note_on,54,34,240
1,note_on,64,40,0
1,note_on,60,34,0
1,note_on,64,0,240
1,note_on,63,27,0
1,note_on,63,0,240
1,note_on,60,0,0
1,note_on,54,0,0
1,note_on,53,34,240
1,note_on,63,40,0
1,note_on,56,34,0
1,note_on,63,0,240
1,note_on,62,27,0
1,note_on,62,0,240
1,note_on,56,0,0
1,note_on,53,0,0
1,note_on,63,34,0
1,note_on,55,34,0
1,note_on,55,0,480
1,note_on,63,0,0
1,note_on,79,57,960
1,note_on,79,0,480
1,note_on,77,48,0
1,note_on,77,0,120
1,note_on,75,47,0
1,note_on,75,0,120
1,note_on,65,30,0
1,note_on,75,54,0
1,note_on,68,35,0
1,note_on,75,0,240
1,note_on,74,47,0
1,note_on,68,0,230
1,note_on,74,0,10
1,note_on,65,0,0
1,note_on,72,51,0
1,note_on,68,37,0
1,note_on,63,43,0
1,note_on,63,0,120
1,note_on,72,0,0
1,note_on,70,43,0
1,note_on,62,36,0
1,note_on,62,0,110
1,note_on,70,0,0
1,note_on,68,0,0
1,note_on,68,35,10
1,note_on,70,50,0
1,note_on,62,48,0
1,note_on,62,0,480
1,note_on,60,45,0
1,note_on,60,0,120
1,note_on,58,38,0
1,note_on,58,0,110
1,note_on,58,51,10
1,note_on,70,0,240
1,note_on,72,44,0
1,note_on,58,0,120
1,note_on,56,38,0
1,note_on,56,0,120
1,note_on,72,0,0
1,note_on,55,38,0
1,note_on,74,46,0
1,note_on,55,0,120
1,note_on,56,38,0
1,note_on,56,0,120
1,note_on,74,0,0
1,note_on,68,0,0
1,note_on,55,51,0
1,note_on,75,51,0
1,note_on,75,0,120
1,note_on,77,44,0
1,note_on,77,0,40
1,note_on,75,38,0
1,note_on,75,0,40
1,note_on,74,38,0
1,note_on,74,0,40
1,note_on,75,51,0
1,note_on,75,0,120
1,note_on,77,47,0
1,note_on,77,0,120
1,note_on,55,0,0
1,note_on,79,49,0
1,note_on,79,0,120
1,note_on,80,50,0
1,note_on,80,0,90
1,note_on,79,48,0
1,note_on,79,0,30
1,note_on,82,57,0
1,note_on,82,0,720
1,note_on,81,47,0
1,note_on,81,0,120
1,note_on,82,52,0
1,note_on,82,0,120
1,note_on,84,53,0
1,note_on,84,0,120
1,note_on,82,51,0
1,note_on,82,0,120
1,note_on,80,53,0
1,note_on,80,0,120
1,note_on,79,51,0
1,note_on,79,0,110
1,note_on,68,30,10
1,note_on,72,35,0
1,note_on,79,57,0
1,note_on,79,0,240
1,note_on,77,47,0
1,note_on,72,0,230
1,note_on,77,0,10
1,note_on,68,0,0
1,note_on,70,43,0
1,note_on,75,51,0
1,note_on,67,36,0
1,note_on,67,0,120
1,note_on,75,0,0
1,note_on,70,0,0
1,note_on,74,43,0
1,note_on,65,30,0
1,note_on,68,36,0
1,note_on,68,0,110
1,note_on,65,0,10
1,note_on,74,0,0
1,note_on,65,40,0
1,note_on,74,50,0
1,note_on,68,35,0
1,note_on,68,0,470
1,note_on,74,0,10
1,note_on,65,0,0
1,note_on,63,45,0
1,note_on,72,51,0
1,note_on,68,35,0
1,note_on,72,0,120
1,note_on,63,0,0
1,note_on,70,43,0
1,note_on,62,38,0
1,note_on,62,0,110
1,note_on,68,0,0
1,note_on,70,0,10
1,note_on,68,35,0
1,note_on,62,51,0
1,note_on,70,54,0
1,note_on,62,0,120
1,note_on,60,38,0
1,note_on,60,0,120
1,note_on,70,0,0
1,note_on,58,38,0
1,note_on,72,44,0
1,note_on,58,0,120
1,note_on,56,38,0
1,note_on,56,0,120
1,note_on,72,0,0
1,note_on,74,46,0
1,note_on,55,38,0
1,note_on,55,0,120
1,note_on,53,38,0
1,note_on,53,0,120
1,note_on,74,0,0
1,note_on,68,0,0
1,note_on,75,54,0
1,note_on,67,54,0
1,note_on,67,0,240
1,note_on,75,0,0
1,note_on,78,40,0
1,note_on,78,0,240
1,note_on,79,44,0
1,note_on,79,0,240
1,note_on,81,41,240
1,note_on,81,0,240
1,note_on,82,44,0
1,note_on,82,0,240
1,note_on,86,40,240
1,note_on,86,0,240
1,note_on,87,44,0
1,note_on,87,0,240
1,note_on,83,41,240
1,note_on,83,0,240
1,note_on,84,44,0
1,note_on,84,0,240
1,note_on,71,40,240
1,note_on,71,0,240
1,note_on,72,42,0
1,note_on,72,0,240
1,note_on,64,38,240
1,note_on,64,0,240
1,note_on,65,42,0
1,note_on,65,0,240
1,note_on,70,59,240
1,note_on,70,0,600
1,note_on,72,60,0
1,note_on,72,0,60
1,note_on,74,62,0
1,note_on,74,0,60
1,note_on,75,64,0
1,note_on,75,0,60
1,note_on,77,66,0
1,note_on,77,0,60
1,note_on,79,68,0
1,note_on,79,0,60
1,note_on,80,70,0
1,note_on,80,0,60
1,note_on,82,72,0
1,note_on,82,0,480
1,note_on,80,70,0
1,note_on,80,0,240
1,note_on,77,66,0
1,note_on,77,0,240
1,note_on,75,58,0
1,note_on,75,0,300
1,note_on,74,50,0
1,note_on,74,0,60
1,note_on,79,57,0
1,note_on,77,54,60
1,note_on,79,0,6
1,note_on,75,53,54
1,note_on,77,0,6
1,note_on,74,51,54
1,note_on,75,0,6
1,note_on,72,49,54
1,note_on,74,0,6
1,note_on,70,47,54
1,note_on,72,0,6
1,note_on,69,53,54
1,note_on,70,0,6
1,note_on,70,51,54
1,note_on,69,0,6
1,note_on,75,59,54
1,note_on,70,0,6
1,note_on,74,54,54
1,note_on,75,0,6
1,note_on,72,54,54
1,note_on,74,0,6
1,note_on,70,52,54
1,note_on,72,0,6
1,note_on,68,50,54
1,note_on,70,0,6
1,note_on,67,50,54
1,note_on,68,0,6
1,note_on,66,52,54
1,note_on,67,0,6
1,note_on,67,46,54
1,note_on,66,0,6
1,note_on,72,56,54
1,note_on,67,0,6
1,note_on,70,55,54
1,note_on,72,0,6
1,note_on,68,54,54
1,note_on,70,0,6
1,note_on,67,52,54
1,note_on,68,0,6
1,note_on,65,50,54
1,note_on,67,0,6
1,note_on,63,48,54
1,note_on,65,0,6
1,note_on,62,46,54
1,note_on,63,0,6
1,note_on,63,45,54
1,note_on,62,0,6
1,note_on,68,52,54
1,note_on,63,0,6
1,note_on,67,51,54
1,note_on,68,0,6
1,note_on,65,49,54
1,note_on,67,0,6
1,note_on,63,47,54
1,note_on,65,0,6
1,note_on,62,44,54
1,note_on,63,0,6
1,note_on,60,42,54
1,note_on,62,0,6
1,note_on,57,39,54
1,note_on,60,0,6
1,note_on,57,0,54
1,note_on,58,39,0
1,note_on,58,0,60
1,note_on,59,40,0
1,note_on,59,0,60
1,note_on,60,41,0
1,note_on,60,0,60
1,note_on,61,42,0
1,note_on,61,0,60
1,note_on,62,42,0
1,note_on,62,0,60
1,note_on,63,43,0
1,note_on,63,0,60
1,note_on,64,44,0
1,note_on,64,0,60
1,note_on,65,45,0
1,note_on,65,0,60
1,note_on,66,45,0
1,note_on,66,0,60
1,note_on,67,46,0
1,note_on,67,0,60
1,note_on,68,47,0
1,note_on,68,0,60
1,note_on,69,49,0
1,note_on,69,0,60
1,note_on,70,50,0
1,note_on,70,0,60
1,note_on,71,52,0
1,note_on,71,0,60
1,note_on,72,54,0
1,note_on,72,0,60
1,note_on,73,56,0
1,note_on,73,0,60
1,note_on,74,58,0
1,note_on,74,0,60
1,note_on,75,60,0
1,note_on,75,0,60
1,note_on,76,61,0
1,note_on,76,0,60
1,note_on,77,64,0
1,note_on,77,0,48
1,note_on,78,65,0
1,note_on,78,0,48
1,note_on,79,67,0
1,note_on,79,0,48
1,note_on,80,69,0
1,note_on,80,0,48
1,note_on,81,70,0
1,note_on,81,0,48
1,note_on,82,80,0
1,note_on,82,0,300
1,note_on,80,69,0
1,note_on,80,0,60
1,note_on,77,66,0
1,note_on,77,0,60
1,note_on,74,63,0
1,note_on,74,0,60
1,note_on,70,60,0
1,note_on,70,0,60
1,note_on,68,57,0
1,note_on,68,0,60
1,note_on,65,54,0
1,note_on,65,0,60
1,note_on,62,51,0
1,note_on,62,0,60
1,note_on,63,56,0
1,note_on,63,0,480
1,note_on,75,56,720
1,note_on,78,67,0
1,note_on,78,0,480
1,note_on,79,54,0
1,note_on,79,0,240
1,note_on,75,0,0
1,note_on,80,59,0
1,note_on,74,50,0
1,note_on,80,0,180
1,note_on,77,53,0
1,note_on,77,0,60
1,note_on,74,0,0
1,note_on,67,48,0
1,note_on,75,56,0
1,note_on,75,0,480
1,note_on,67,0,0
1,note_on,66,60,720
1,note_on,63,50,0
1,note_on,66,0,480
1,note_on,67,48,0
1,note_on,67,0,240
1,note_on,63,0,0
1,note_on,68,53,0
1,note_on,62,45,0
1,note_on,68,0,180
1,note_on,65,43,0
1,note_on,65,0,60
1,note_on,62,0,0
1,note_on,63,48,0
1,note_on,63,0,240
1,note_on,68,51,0
1,note_on,62,43,0
1,note_on,68,0,360
1,note_on,65,44,0
1,note_on,65,0,120
1,note_on,62,0,0
1,note_on,63,48,0
1,note_on,63,0,240
1,note_on,68,51,0
1,note_on,62,43,0
1,note_on,68,0,360
1,note_on,65,44,0
1,note_on,65,0,120
1,note_on,62,0,0
1,note_on,63,48,0
1,note_on,63,0,240
1,note_on,68,60,0
1,note_on,56,50,0
1,note_on,68,0,120
1,note_on,67,56,0
1,note_on,56,0,110
1,note_on,67,0,10
1,note_on,56,49,0
1,note_on,68,66,0
1,note_on,68,0,120
1,note_on,65,61,0
1,note_on,56,0,110
1,note_on,65,0,10
1,note_on,64,35,0
1,note_on,64,0,40
1,note_on,65,34,0
1,note_on,65,0,40
1,note_on,67,28,0
1,note_on,67,0,40
1,note_on,56,31,0
1,note_on,65,37,0
1,note_on,65,0,600
1,note_on,56,0,0
1,note_on,55,27,0
1,note_on,63,27,0
1,note_on,63,0,480
1,note_on,55,0,0
2,note_on,51,18,0
2,note_on,55,18,0
2,note_on,58,22,0
2,note_on,58,0,216
2,note_on,55,0,0
2,note_on,51,0,0
2,note_on,51,15,24
2,note_on,55,15,0
2,note_on,58,18,0
2,note_on,58,0,216
2,note_on,55,0,0
2,note_on,51,0,0
2,note_on,51,15,24
2,note_on,55,15,0
2,note_on,58,18,0
2,note_on,58,0,216
2,note_on,55,0,0
2,note_on,51,0,0
2,note_on,51,17,24
2,note_on,55,17,0
2,note_on,58,20,0
2,note_on,58,0,216
2,note_on,55,0,0
2,note_on,51,0,0
2,note_on,51,15,24
2,note_on,55,15,0
2,note_on,58,18,0
2,note_on,58,0,216
2,note_on,55,0,0
2,note_on,51,0,0
2,note_on,51,15,24
2,note_on,55,15,0
2,note_on,58,18,0
2,note_on,58,0,216
2,note_on,55,0,0
2,note_on,51,0,0
2,note_on,51,18,24
2,note_on,55,18,0
2,note_on,58,21,0
2,note_on,58,0,216
2,note_on,55,0,0
2,note_on,51,0,0
2,note_on,51,15,24
2,note_on,55,15,0
2,note_on,58,18,0
2,note_on,58,0,216
2,note_on,55,0,0
2,note_on,51,0,0
2,note_on,51,15,24
2,note_on,55,15,0
2,note_on,58,18,0
2,note_on,58,0,216
2,note_on,55,0,0
2,note_on,51,0,0
2,note_on,51,18,24
2,note_on,55,18,0
2,note_on,58,22,0
2,note_on,58,0,216
2,note_on,55,0,0
2,note_on,51,0,0
2,note_on,51,15,24
2,note_on,55,15,0
2,note_on,58,18,0
2,note_on,58,0,216
2,note_on,55,0,0
2,note_on,51,0,0
2,note_on,51,15,24
2,note_on,55,15,0
2,note_on,58,18,0
2,note_on,58,0,216
2,note_on,55,0,0
2,note_on,51,0,0
2,note_on,51,17,24
2,note_on,55,17,0
2,note_on,58,20,0
2,note_on,58,0,216
2,note_on,55,0,0
2,note_on,51,0,0
2,note_on,51,15,24
2,note_on,55,15,0
2,note_on,58,18,0
2,note_on,58,0,216
2,note_on,55,0,0
2,note_on,51,0,0
2,note_on,51,15,24
2,note_on,55,15,0
2,note_on,58,18,0
2,note_on,58,0,216
2,note_on,55,0,0
2,note_on,51,0,0
2,note_on,51,18,24
2,note_on,55,18,0
2,note_on,58,21,0
2,note_on,58,0,216
2,note_on,55,0,0
2,note_on,51,0,0
2,note_on,51,15,24
2,note_on,55,15,0
2,note_on,58,18,0
2,note_on,58,0,216
2,note_on,55,0,0
2,note_on,51,0,0
2,note_on,51,15,24
2,note_on,55,15,0
2,note_on,58,18,0
2,note_on,58,0,216
2,note_on,55,0,0
2,note_on,51,0,0
2,note_on,50,18,24
2,note_on,56,18,0
2,note_on,58,22,0
2,note_on,58,0,216
2,note_on,56,0,0
2,note_on,50,0,0
2,note_on,50,15,24
2,note_on,56,15,0
2,note_on,58,18,0
2,note_on,58,0,216
2,note_on,56,0,0
2,note_on,50,0,0
2,note_on,50,15,24
2,note_on,56,15,0
2,note_on,58,18,0
2,note_on,58,0,216
2,note_on,56,0,0
2,note_on,50,0,0
2,note_on,50,17,24
2,note_on,56,17,0
2,note_on,58,20,0
2,note_on,58,0,216
2,note_on,56,0,0
2,note_on,50,0,0
2,note_on,50,15,24
2,note_on,56,15,0
2,note_on,58,18,0
2,note_on,58,0,216
2,note_on,56,0,0
2,note_on,50,0,0
2,note_on,50,15,24
2,note_on,56,15,0
2,note_on,58,18,0
2,note_on,58,0,216
2,note_on,56,0,0
2,note_on,50,0,0
2,note_on,50,18,24
2,note_on,56,18,0
2,note_on,58,21,0
2,note_on,58,0,216
2,note_on,56,0,0
2,note_on,50,0,0
2,note_on,50,15,24
2,note_on,56,15,0
2,note_on,58,18,0
2,note_on,58,0,216
2,note_on,56,0,0
2,note_on,50,0,0
2,note_on,50,15,24
2,note_on,56,15,0
2,note_on,58,18,0
2,note_on,58,0,216
2,note_on,56,0,0
2,note_on,50,0,0
2,note_on,53,18,24
2,note_on,50,18,0
2,note_on,56,18,0
2,note_on,58,22,0
2,note_on,58,0,216
2,note_on,53,0,0
2,note_on,50,0,0
2,note_on,56,0,0
2,note_on,53,15,24
2,note_on,50,15,0
2,note_on,56,15,0
2,note_on,58,18,0
2,note_on,58,0,216
2,note_on,53,0,0
2,note_on,50,0,0
2,note_on,56,0,0
2,note_on,53,15,24
2,note_on,50,15,0
2,note_on,56,15,0
2,note_on,58,18,0
2,note_on,58,0,216
2,note_on,53,0,0
2,note_on,50,0,0
2,note_on,56,0,0
2,note_on,53,17,24
2,note_on,50,17,0
2,note_on,56,17,0
2,note_on,58,20,0
2,note_on,58,0,216
2,note_on,53,0,0
2,note_on,50,0,0
2,note_on,56,0,0
2,note_on,53,15,24
2,note_on,50,15,0
2,note_on,56,15,0
2,note_on,58,18,0
2,note_on,58,0,216
2,note_on,53,0,0
2,note_on,50,0,0
2,note_on,56,0,0
2,note_on,53,15,24
2,note_on,50,15,0
2,note_on,56,15,0
2,note_on,58,18,0
2,note_on,58,0,216
2,note_on,53,0,0
2,note_on,50,0,0
2,note_on,56,0,0
2,note_on,53,18,24
2,note_on,50,18,0
2,note_on,56,18,0
2,note_on,58,21,0
2,note_on,58,0,216
2,note_on,53,0,0
2,note_on,50,0,0
2,note_on,56,0,0
2,note_on,53,15,24
2,note_on,50,15,0
2,note_on,56,15,0
2,note_on,58,18,0
2,note_on,58,0,216
2,note_on,53,0,0
2,note_on,50,0,0
2,note_on,56,0,0
2,note_on,53,15,24
2,note_on,50,15,0
2,note_on,56,15,0
2,note_on,58,18,0
2,note_on,58,0,216
2,note_on,53,0,0
2,note_on,50,0,0
2,note_on,56,0,0
2,note_on,51,18,24
2,note_on,56,18,0
2,note_on,58,22,0
2,note_on,58,0,216
2,note_on,56,0,0
2,note_on,51,0,0
2,note_on,51,15,24
2,note_on,56,15,0
2,note_on,58,18,0
2,note_on,58,0,216
2,note_on,56,0,0
2,note_on,51,0,0
2,note_on,51,15,24
2,note_on,56,15,0
2,note_on,58,18,0
2,note_on,58,0,216
2,note_on,56,0,0
2,note_on,51,0,0
2,note_on,51,17,24
2,note_on,55,17,0
2,note_on,58,20,0
2,note_on,58,0,216
2,note_on,55,0,0
2,note_on,51,0,0
2,note_on,51,15,24
2,note_on,55,15,0
2,note_on,58,18,0
2,note_on,58,0,216
2,note_on,55,0,0
2,note_on,51,0,0
2,note_on,51,15,24
2,note_on,55,15,0
2,note_on,58,18,0
2,note_on,58,0,216
2,note_on,55,0,0
2,note_on,51,0,0
2,note_on,51,36,24
2,note_on,51,0,240
2,note_on,46,40,0
2,note_on,46,0,240
2,note_on,44,43,0
2,note_on,44,0,240
2,note_on,43,48,0
2,note_on,43,0,240
2,note_on,43,29,0
2,note_on,46,29,0
2,note_on,51,35,0
2,note_on,51,0,216
2,note_on,46,0,0
2,note_on,43,0,0
2,note_on,43,29,24
2,note_on,46,29,0
2,note_on,51,35,0
2,note_on,51,0,216
2,note_on,46,0,0
2,note_on,43,0,0
2,note_on,43,29,24
2,note_on,46,29,0
2,note_on,51,35,0
2,note_on,51,0,216
2,note_on,46,0,0
2,note_on,43,0,0
2,note_on,43,27,24
2,note_on,46,27,0
2,note_on,51,32,0
2,note_on,51,0,216
2,note_on,46,0,0
2,note_on,43,0,0
2,note_on,43,27,24
2,note_on,46,27,0
2,note_on,51,32,0
2,note_on,51,0,216
2,note_on,46,0,0
2,note_on,43,0,0
2,note_on,43,29,24
2,note_on,46,29,0
2,note_on,51,35,0
2,note_on,51,0,216
2,note_on,46,0,0
2,note_on,43,0,0
2,note_on,43,25,24
2,note_on,46,25,0
2,note_on,51,30,0
2,note_on,51,0,216
2,note_on,46,0,0
2,note_on,43,0,0
2,note_on,43,25,24
2,note_on,46,25,0
2,note_on,51,30,0
2,note_on,51,0,216
2,note_on,46,0,0
2,note_on,43,0,0
2,note_on,44,31,24
2,note_on,48,31,0
2,note_on,51,38,0
2,note_on,51,0,216
2,note_on,48,0,0
2,note_on,44,0,0
2,note_on,44,27,24
2,note_on,48,27,0
2,note_on,51,33,0
2,note_on,51,0,216
2,note_on,48,0,0
2,note_on,44,0,0
2,note_on,44,27,24
2,note_on,48,27,0
2,note_on,51,33,0
2,note_on,51,0,216
2,note_on,48,0,0
2,note_on,44,0,0
2,note_on,44,31,24
2,note_on,48,31,0
2,note_on,52,38,0
2,note_on,52,0,216
2,note_on,48,0,0
2,note_on,44,0,0
2,note_on,44,27,24
2,note_on,48,27,0
2,note_on,52,33,0
2,note_on,52,0,216
2,note_on,48,0,0
2,note_on,44,0,0
2,note_on,44,27,24
2,note_on,48,27,0
2,note_on,52,33,0
2,note_on,52,0,216
2,note_on,48,0,0
2,note_on,44,0,0
2,note_on,44,31,24
2,note_on,48,31,0
2,note_on,53,38,0
2,note_on,53,0,216
2,note_on,48,0,0
2,note_on,44,0,0
2,note_on,44,25,24
2,note_on,48,25,0
2,note_on,53,30,0
2,note_on,53,0,216
2,note_on,48,0,0
2,note_on,44,0,0
2,note_on,44,25,24
2,note_on,48,25,0
2,note_on,53,30,0
2,note_on,53,0,216
2,note_on,48,0,0
2,note_on,44,0,0
2,note_on,46,29,24
2,note_on,51,29,0
2,note_on,55,35,0
2,note_on,55,0,216
2,note_on,51,0,0
2,note_on,46,0,0
2,note_on,46,23,24
2,note_on,51,23,0
2,note_on,55,28,0
2,note_on,55,0,216
2,note_on,51,0,0
2,note_on,46,0,0
2,note_on,46,23,24
2,note_on,51,23,0
2,note_on,55,28,0
2,note_on,55,0,216
2,note_on,51,0,0
2,note_on,46,0,0
2,note_on,46,20,24
2,note_on,51,20,0
2,note_on,55,25,0
2,note_on,55,0,216
2,note_on,51,0,0
2,note_on,46,0,0
2,note_on,46,18,24
2,note_on,51,18,0
2,note_on,55,21,0
2,note_on,55,0,216
2,note_on,51,0,0
2,note_on,46,0,0
2,note_on,46,17,24
2,note_on,51,17,0
2,note_on,55,21,0
2,note_on,55,0,216
2,note_on,51,0,0
2,note_on,46,0,0
2,note_on,46,20,24
2,note_on,53,20,0
2,note_on,56,24,0
2,note_on,56,0,216
2,note_on,53,0,0
2,note_on,46,0,0
2,note_on,46,17,24
2,note_on,53,17,0
2,note_on,56,20,0
2,note_on,56,0,216
2,note_on,53,0,0
2,note_on,46,0,0
2,note_on,46,16,24
2,note_on,53,16,0
2,note_on,56,20,0
2,note_on,56,0,216
2,note_on,53,0,0
2,note_on,46,0,0
2,note_on,51,26,24
2,note_on,55,31,0
2,note_on,55,0,480
2,note_on,51,0,0
2,note_on,46,26,960
2,note_on,58,31,0
2,note_on,58,0,480
2,note_on,56,29,0
2,note_on,56,0,240
2,note_on,46,0,0
2,note_on,51,26,0
2,note_on,55,31,0
2,note_on,55,0,480
2,note_on,51,0,0
2,note_on,46,31,960
2,note_on,34,26,0
2,note_on,46,0,480
2,note_on,44,22,0
2,note_on,53,27,0
2,note_on,53,0,240
2,note_on,44,0,0
2,note_on,34,0,0
2,note_on,39,20,0
2,note_on,43,24,0
2,note_on,43,0,480
2,note_on,39,0,0
2,note_on,34,27,0
2,note_on,44,32,0
2,note_on,44,0,240
2,note_on,34,0,0
2,note_on,39,22,0
2,note_on,43,26,0
2,note_on,43,0,480
2,note_on,39,0,0
2,note_on,34,28,0
2,note_on,44,34,0
2,note_on,44,0,240
2,note_on,34,0,0
2,note_on,39,21,0
2,note_on,43,25,0
2,note_on,43,0,480
2,note_on,39,0,0
2,note_on,34,29,0
2,note_on,44,35,0
2,note_on,44,0,220
2,note_on,34,0,0
2,note_on,39,21,20
2,note_on,44,25,0
2,note_on,39,0,710
2,note_on,44,0,10
2,note_on,39,19,0
2,note_on,43,23,0
2,note_on,43,0,480
2,note_on,39,0,0
2,note_on,39,32,960
2,note_on,39,0,240
2,note_on,43,32,0
2,note_on,43,0,240
2,note_on,46,32,0
2,note_on,46,0,240
2,note_on,51,36,0
2,note_on,51,0,240
2,note_on,55,38,0
2,note_on,55,0,240
2,note_on,58,40,0
2,note_on,58,0,230
2,note_on,46,36,10
2,note_on,58,43,0
2,note_on,58,0,480
2,note_on,46,0,0
2,note_on,46,33,0
2,note_on,56,39,0
2,note_on,56,0,230
2,note_on,46,0,0
2,note_on,51,32,10
2,note_on,56,38,0
2,note_on,56,0,720
2,note_on,55,30,0
2,note_on,55,0,240
2,note_on,51,0,0
2,note_on,39,37,1200
2,note_on,39,0,240
2,note_on,43,40,0
2,note_on,43,0,240
2,note_on,46,44,0
2,note_on,46,0,240
2,note_on,51,49,0
2,note_on,51,0,240
2,note_on,55,53,0
2,note_on,55,0,240
2,note_on,58,57,0
2,note_on,58,0,230
2,note_on,63,62,10
2,note_on,63,0,240
2,note_on,60,58,0
2,note_on,60,0,240
2,note_on,58,54,0
2,note_on,58,0,230
2,note_on,57,53,10
2,note_on,57,0,720
2,note_on,56,43,0
2,note_on,56,0,720
2,note_on,58,40,0
2,note_on,58,0,720
2,note_on,51,35,0
2,note_on,51,0,720
2,note_on,52,35,0
2,note_on,52,0,720
2,note_on,53,35,0
2,note_on,53,0,720
2,note_on,34,35,0
2,note_on,46,29,240
2,note_on,46,0,216
2,note_on,46,29,24
2,note_on,46,0,216
2,note_on,46,32,24
2,note_on,46,0,216
2,note_on,46,29,24
2,note_on,46,0,216
2,note_on,46,29,24
2,note_on,46,0,216
2,note_on,46,32,24
2,note_on,46,0,216
2,note_on,46,27,24
2,note_on,46,0,216
2,note_on,46,27,24
2,note_on,46,0,216
2,note_on,34,0,24
2,note_on,46,32,0
2,note_on,46,0,216
2,note_on,46,28,24
2,note_on,46,0,216
2,note_on,46,28,24
2,note_on,46,0,216
2,note_on,46,32,24
2,note_on,46,0,216
2,note_on,46,28,24
2,note_on,46,0,216
2,note_on,46,28,24
2,note_on,46,0,216
2,note_on,46,32,24
2,note_on,46,0,216
2,note_on,46,28,24
2,note_on,46,0,216
2,note_on,46,28,24
2,note_on,46,0,216
2,note_on,46,32,24
2,note_on,46,0,216
2,note_on,46,28,24
2,note_on,46,0,216
2,note_on,46,28,24
2,note_on,46,0,216
2,note_on,46,32,24
2,note_on,46,0,216
2,note_on,46,28,24
2,note_on,46,0,216
2,note_on,46,28,24
2,note_on,46,0,216
2,note_on,46,32,24
2,note_on,46,0,216
2,note_on,46,28,24
2,note_on,46,0,216
2,note_on,46,28,24
2,note_on,46,0,216
2,note_on,46,32,24
2,note_on,46,0,216
2,note_on,46,28,24
2,note_on,46,0,216
2,note_on,46,28,24
2,note_on,46,0,216
2,note_on,46,32,24
2,note_on,46,0,216
2,note_on,46,28,24
2,note_on,46,0,216
2,note_on,46,28,24
2,note_on,46,0,216
2,note_on,46,32,24
2,note_on,46,0,216
2,note_on,46,28,24
2,note_on,46,0,216
2,note_on,46,28,24
2,note_on,46,0,216
2,note_on,46,32,24
2,note_on,46,0,480
2,note_on,58,28,240
2,note_on,53,23,0
2,note_on,50,23,0
2,note_on,50,0,480
2,note_on,53,0,0
2,note_on,58,0,0
2,note_on,62,23,240
2,note_on,65,23,0
2,note_on,70,28,0
2,note_on,70,0,480
2,note_on,65,0,0
2,note_on,62,0,0
2,note_on,63,23,240
2,note_on,67,23,0
2,note_on,70,28,0
2,note_on,70,0,480
2,note_on,67,0,0
2,note_on,63,0,0
2,note_on,63,28,240
2,note_on,58,23,0
2,note_on,55,23,0
2,note_on,55,0,480
2,note_on,58,0,0
2,note_on,63,0,0
2,note_on,52,23,240
2,note_on,60,28,0
2,note_on,58,23,0
2,note_on,58,0,480
2,note_on,60,0,0
2,note_on,52,0,0
2,note_on,53,35,240
2,note_on,62,29,240
2,note_on,58,24,0
2,note_on,58,0,240
2,note_on,62,0,0
2,note_on,62,31,0
2,note_on,58,25,0
2,note_on,58,0,240
2,note_on,62,0,0
2,note_on,58,32,0
2,note_on,62,39,0
2,note_on,62,0,240
2,note_on,58,0,0
2,note_on,58,35,0
2,note_on,62,42,0
2,note_on,62,0,240
2,note_on,58,0,0
2,note_on,58,39,0
2,note_on,62,46,0
2,note_on,53,0,230
2,note_on,62,0,10
2,note_on,58,0,0
2,note_on,53,37,0
2,note_on,63,44,0
2,note_on,57,37,0
2,note_on,57,0,240
2,note_on,63,0,0
2,note_on,57,33,0
2,note_on,63,39,0
2,note_on,63,0,240
2,note_on,57,0,0
2,note_on,57,32,0
2,note_on,63,38,0
2,note_on,63,0,240
2,note_on,57,0,0
2,note_on,53,0,0
2,note_on,62,40,0
2,note_on,58,38,0
2,note_on,58,0,480
2,note_on,62,0,0
2,note_on,41,35,1680
2,note_on,50,29,240
2,note_on,46,24,0
2,note_on,46,0,240
2,note_on,50,0,0
2,note_on,50,30,0
2,note_on,46,25,0
2,note_on,46,0,240
2,note_on,50,0,0
2,note_on,46,31,0
2,note_on,50,38,0
2,note_on,50,0,240
2,note_on,46,0,0
2,note_on,46,34,0
2,note_on,50,41,0
2,note_on,50,0,240
2,note_on,46,0,0
2,note_on,46,38,0
2,note_on,50,45,0
2,note_on,41,0,230
2,note_on,50,0,10
2,note_on,46,0,0
2,note_on,41,45,0
2,note_on,51,54,0
2,note_on,45,45,0
2,note_on,45,0,240
2,note_on,51,0,0
2,note_on,48,33,0
2,note_on,51,39,0
2,note_on,51,0,240
2,note_on,48,0,0
2,note_on,48,32,0
2,note_on,51,38,0
2,note_on,51,0,240
2,note_on,48,0,0
2,note_on,41,0,0
2,note_on,46,44,0
2,note_on,46,0,240
2,note_on,50,39,0
2,note_on,50,0,240
2,note_on,53,39,0
2,note_on,53,0,240
2,note_on,58,44,0
2,note_on,58,0,240
2,note_on,62,38,0
2,note_on,62,0,240
2,note_on,64,38,0
2,note_on,64,0,240
2,note_on,65,44,0
2,note_on,65,0,480
2,note_on,60,44,0
2,note_on,53,37,0
2,note_on,60,0,180
2,note_on,63,40,0
2,note_on,63,0,60
2,note_on,53,0,0
2,note_on,34,44,0
2,note_on,34,0,240
2,note_on,38,39,0
2,note_on,38,0,240
2,note_on,41,39,0
2,note_on,41,0,240
2,note_on,46,44,0
2,note_on,46,0,240
2,note_on,50,38,0
2,note_on,50,0,240
2,note_on,52,34,0
2,note_on,52,0,240
2,note_on,53,39,0
2,note_on,53,0,480
2,note_on,48,39,0
2,note_on,41,33,0
2,note_on,48,0,180
2,note_on,51,36,0
2,note_on,51,0,60
2,note_on,41,0,0
2,note_on,46,34,0
2,note_on,50,40,0
2,note_on,50,0,240
2,note_on,46,0,0
2,note_on,41,33,0
2,note_on,48,39,0
2,note_on,48,0,360
2,note_on,51,34,0
2,note_on,51,0,120
2,note_on,41,0,0
2,note_on,46,34,0
2,note_on,50,40,0
2,note_on,50,0,240
2,note_on,46,0,0
2,note_on,41,33,0
2,note_on,48,39,0
2,note_on,48,0,360
2,note_on,51,34,0
2,note_on,51,0,120
2,note_on,41,0,0
2,note_on,46,34,0
2,note_on,50,40,0
2,note_on,50,0,240
2,note_on,46,0,0
2,note_on,41,38,0
2,note_on,48,45,0
2,note_on,48,0,120
2,note_on,47,42,0
2,note_on,47,0,120
2,note_on,41,0,0
2,note_on,41,39,0
2,note_on,48,52,0
2,note_on,48,0,120
2,note_on,51,48,0
2,note_on,51,0,120
2,note_on,41,0,0
2,note_on,46,29,120
2,note_on,51,35,0
2,note_on,51,0,600
2,note_on,50,35,0
2,note_on,50,0,480
2,note_on,46,0,0
2,note_on,43,25,960
2,note_on,31,21,0
2,note_on,31,0,216
2,note_on,43,0,0
2,note_on,31,17,24
2,note_on,43,21,0
2,note_on,43,0,216
2,note_on,31,0,0
2,note_on,31,17,24
2,note_on,43,21,0
2,note_on,43,0,216
2,note_on,31,0,0
2,note_on,31,17,24
2,note_on,43,21,0
2,note_on,43,0,216
2,note_on,31,0,0
2,note_on,31,17,24
2,note_on,43,21,0
2,note_on,43,0,216
2,note_on,31,0,0
2,note_on,31,17,24
2,note_on,43,21,0
2,note_on,43,0,216
2,note_on,31,0,0
2,note_on,31,17,24
2,note_on,43,21,0
2,note_on,43,0,216
2,note_on,31,0,0
2,note_on,31,17,24
2,note_on,43,21,0
2,note_on,43,0,216
2,note_on,31,0,0
2,note_on,31,17,24
2,note_on,43,21,0
2,note_on,43,0,216
2,note_on,31,0,0
2,note_on,43,25,24
2,note_on,31,21,0
2,note_on,31,0,216
2,note_on,43,0,0
2,note_on,31,17,24
2,note_on,43,21,0
2,note_on,43,0,216
2,note_on,31,0,0
2,note_on,31,17,24
2,note_on,43,21,0
2,note_on,43,0,216
2,note_on,31,0,0
2,note_on,31,17,24
2,note_on,43,21,0
2,note_on,43,0,216
2,note_on,31,0,0
2,note_on,31,17,24
2,note_on,43,21,0
2,note_on,43,0,216
2,note_on,31,0,0
2,note_on,31,17,24
2,note_on,43,21,0
2,note_on,43,0,216
2,note_on,31,0,0
2,note_on,31,17,24
2,note_on,43,21,0
2,note_on,43,0,216
2,note_on,31,0,0
2,note_on,31,17,24
2,note_on,43,21,0
2,note_on,43,0,216
2,note_on,31,0,0
2,note_on,31,17,24
2,note_on,43,21,0
2,note_on,43,0,216
2,note_on,31,0,0
2,note_on,43,25,24
2,note_on,31,21,0
2,note_on,31,0,216
2,note_on,43,0,0
2,note_on,31,17,24
2,note_on,43,21,0
2,note_on,43,0,216
2,note_on,31,0,0
2,note_on,31,17,24
2,note_on,43,21,0
2,note_on,43,0,216
2,note_on,31,0,0
2,note_on,31,17,24
2,note_on,43,21,0
2,note_on,43,0,216
2,note_on,31,0,0
2,note_on,31,17,24
2,note_on,43,21,0
2,note_on,43,0,216
2,note_on,31,0,0
2,note_on,31,17,24
2,note_on,43,21,0
2,note_on,43,0,216
2,note_on,31,0,0
2,note_on,31,17,24
2,note_on,43,21,0
2,note_on,43,0,216
2,note_on,31,0,0
2,note_on,31,17,24
2,note_on,43,21,0
2,note_on,43,0,216
2,note_on,31,0,0
2,note_on,31,17,24
2,note_on,43,21,0
2,note_on,43,0,216
2,note_on,31,0,0
2,note_on,31,48,24
2,note_on,43,60,0
2,note_on,43,0,240
2,note_on,31,0,0
2,note_on,43,20,0
2,note_on,47,20,0
2,note_on,50,20,0
2,note_on,53,26,0
2,note_on,53,0,216
2,note_on,43,0,0
2,note_on,47,0,0
2,note_on,50,0,0
2,note_on,43,20,24
2,note_on,47,20,0
2,note_on,50,20,0
2,note_on,53,26,0
2,note_on,53,0,216
2,note_on,43,0,0
2,note_on,47,0,0
2,note_on,50,0,0
2,note_on,43,23,24
2,note_on,47,23,0
2,note_on,50,23,0
2,note_on,53,29,0
2,note_on,53,0,216
2,note_on,43,0,0
2,note_on,47,0,0
2,note_on,50,0,0
2,note_on,43,20,24
2,note_on,47,20,0
2,note_on,50,20,0
2,note_on,53,26,0
2,note_on,53,0,216
2,note_on,43,0,0
2,note_on,47,0,0
2,note_on,50,0,0
2,note_on,43,20,24
2,note_on,47,20,0
2,note_on,50,20,0
2,note_on,53,26,0
2,note_on,53,0,216
2,note_on,43,0,0
2,note_on,47,0,0
2,note_on,50,0,0
2,note_on,43,24,24
2,note_on,47,24,0
2,note_on,50,24,0
2,note_on,53,30,0
2,note_on,53,0,216
2,note_on,43,0,0
2,note_on,47,0,0
2,note_on,50,0,0
2,note_on,43,23,24
2,note_on,47,23,0
2,note_on,50,23,0
2,note_on,53,30,0
2,note_on,53,0,216
2,note_on,43,0,0
2,note_on,47,0,0
2,note_on,50,0,0
2,note_on,43,24,24
2,note_on,47,24,0
2,note_on,50,24,0
2,note_on,53,31,0
2,note_on,53,0,216
2,note_on,43,0,0
2,note_on,47,0,0
2,note_on,50,0,0
2,note_on,36,48,24
2,note_on,48,60,0
2,note_on,48,0,240
2,note_on,36,0,0
2,note_on,48,20,0
2,note_on,55,20,0
2,note_on,58,26,0
2,note_on,58,0,216
2,note_on,55,0,0
2,note_on,48,0,0
2,note_on,48,20,24
2,note_on,55,20,0
2,note_on,58,26,0
2,note_on,58,0,216
2,note_on,55,0,0
2,note_on,48,0,0
2,note_on,48,23,24
2,note_on,55,23,0
2,note_on,58,29,0
2,note_on,58,0,216
2,note_on,55,0,0
2,note_on,48,0,0
2,note_on,48,20,24
2,note_on,55,20,0
2,note_on,58,26,0
2,note_on,58,0,216
2,note_on,55,0,0
2,note_on,48,0,0
2,note_on,48,20,24
2,note_on,55,20,0
2,note_on,58,26,0
2,note_on,58,0,216
2,note_on,55,0,0
2,note_on,48,0,0
2,note_on,48,24,24
2,note_on,55,24,0
2,note_on,58,30,0
2,note_on,58,0,216
2,note_on,55,0,0
2,note_on,48,0,0
2,note_on,48,23,24
2,note_on,55,23,0
2,note_on,58,30,0
2,note_on,58,0,216
2,note_on,55,0,0
2,note_on,48,0,0
2,note_on,48,24,24
2,note_on,55,24,0
2,note_on,58,31,0
2,note_on,58,0,216
2,note_on,55,0,0
2,note_on,48,0,0
2,note_on,41,48,24
2,note_on,53,60,0
2,note_on,53,0,240
2,note_on,41,0,0
2,note_on,53,20,0
2,note_on,60,20,0
2,note_on,63,26,0
2,note_on,63,0,216
2,note_on,60,0,0
2,note_on,53,0,0
2,note_on,53,20,24
2,note_on,60,20,0
2,note_on,63,26,0
2,note_on,63,0,216
2,note_on,60,0,0
2,note_on,53,0,0
2,note_on,53,23,24
2,note_on,60,23,0
2,note_on,63,29,0
2,note_on,63,0,216
2,note_on,60,0,0
2,note_on,53,0,0
2,note_on,53,20,24
2,note_on,60,20,0
2,note_on,63,26,0
2,note_on,63,0,216
2,note_on,60,0,0
2,note_on,53,0,0
2,note_on,53,20,24
2,note_on,60,20,0
2,note_on,63,26,0
2,note_on,63,0,216
2,note_on,60,0,0
2,note_on,53,0,0
2,note_on,53,24,24
2,note_on,60,24,0
2,note_on,63,30,0
2,note_on,63,0,216
2,note_on,60,0,0
2,note_on,53,0,0
2,note_on,53,24,24
2,note_on,60,24,0
2,note_on,63,31,0
2,note_on,63,0,216
2,note_on,60,0,0
2,note_on,53,0,0
2,note_on,53,26,24
2,note_on,60,26,0
2,note_on,63,33,0
2,note_on,63,0,216
2,note_on,60,0,0
2,note_on,53,0,0
2,note_on,34,48,24
2,note_on,46,60,0
2,note_on,46,0,240
2,note_on,34,0,0
2,note_on,46,20,0
2,note_on,53,20,0
2,note_on,56,26,0
2,note_on,56,0,216
2,note_on,53,0,0
2,note_on,46,0,0
2,note_on,46,20,24
2,note_on,53,20,0
2,note_on,56,26,0
2,note_on,56,0,216
2,note_on,53,0,0
2,note_on,46,0,0
2,note_on,46,23,24
2,note_on,53,23,0
2,note_on,56,29,0
2,note_on,56,0,216
2,note_on,53,0,0
2,note_on,46,0,0
2,note_on,46,20,24
2,note_on,53,20,0
2,note_on,56,26,0
2,note_on,56,0,216
2,note_on,53,0,0
2,note_on,46,0,0
2,note_on,46,20,24
2,note_on,53,20,0
2,note_on,56,26,0
2,note_on,56,0,216
2,note_on,53,0,0
2,note_on,46,0,0
2,note_on,46,24,24
2,note_on,53,24,0
2,note_on,56,30,0
2,note_on,56,0,216
2,note_on,53,0,0
2,note_on,46,0,0
2,note_on,46,23,24
2,note_on,53,23,0
2,note_on,56,30,0
2,note_on,56,0,216
2,note_on,53,0,0
2,note_on,46,0,0
2,note_on,46,24,24
2,note_on,53,24,0
2,note_on,56,31,0
2,note_on,56,0,216
2,note_on,53,0,0
2,note_on,46,0,0
2,note_on,39,48,24
2,note_on,51,60,0
2,note_on,51,0,240
2,note_on,39,0,0
2,note_on,51,20,0
2,note_on,58,20,0
2,note_on,61,26,0
2,note_on,61,0,216
2,note_on,58,0,0
2,note_on,51,0,0
2,note_on,51,20,24
2,note_on,58,20,0
2,note_on,61,26,0
2,note_on,61,0,216
2,note_on,58,0,0
2,note_on,51,0,0
2,note_on,51,23,24
2,note_on,58,23,0
2,note_on,61,29,0
2,note_on,61,0,216
2,note_on,58,0,0
2,note_on,51,0,0
2,note_on,51,20,24
2,note_on,58,20,0
2,note_on,61,26,0
2,note_on,61,0,216
2,note_on,58,0,0
2,note_on,51,0,0
2,note_on,51,21,24
2,note_on,58,21,0
2,note_on,61,27,0
2,note_on,61,0,216
2,note_on,58,0,0
2,note_on,51,0,0
2,note_on,51,26,24
2,note_on,58,26,0
2,note_on,61,33,0
2,note_on,61,0,216
2,note_on,58,0,0
2,note_on,51,0,0
2,note_on,51,27,24
2,note_on,58,27,0
2,note_on,61,35,0
2,note_on,61,0,216
2,note_on,58,0,0
2,note_on,51,0,0
2,note_on,51,29,24
2,note_on,58,29,0
2,note_on,61,39,0
2,note_on,61,0,216
2,note_on,58,0,0
2,note_on,51,0,0
2,note_on,51,24,24
2,note_on,59,24,0
2,note_on,63,29,0
2,note_on,63,0,480
2,note_on,59,0,0
2,note_on,51,0,0
2,note_on,61,41,240
2,note_on,61,0,120
2,note_on,63,34,0
2,note_on,63,0,120
2,note_on,64,41,0
2,note_on,64,0,120
2,note_on,63,36,0
2,note_on,63,0,120
2,note_on,64,41,0
2,note_on,64,0,120
2,note_on,61,37,0
2,note_on,61,0,120
2,note_on,59,41,0
2,note_on,59,0,120
2,note_on,61,38,0
2,note_on,61,0,120
2,note_on,63,41,0
2,note_on,63,0,120
2,note_on,61,35,0
2,note_on,61,0,120
2,note_on,63,41,0
2,note_on,63,0,120
2,note_on,59,35,0
2,note_on,59,0,120
2,note_on,58,41,0
2,note_on,58,0,120
2,note_on,59,34,0
2,note_on,59,0,120
2,note_on,61,41,0
2,note_on,61,0,120
2,note_on,59,36,0
2,note_on,59,0,120
2,note_on,61,41,0
2,note_on,61,0,120
2,note_on,58,37,0
2,note_on,58,0,120
2,note_on,59,41,0
2,note_on,59,0,120
2,note_on,61,34,0
2,note_on,61,0,120
2,note_on,63,41,0
2,note_on,63,0,120
2,note_on,61,36,0
2,note_on,61,0,120
2,note_on,63,41,0
2,note_on,63,0,120
2,note_on,59,37,0
2,note_on,59,0,120
2,note_on,56,41,0
2,note_on,56,0,120
2,note_on,58,38,0
2,note_on,58,0,120
2,note_on,59,41,0
2,note_on,59,0,120
2,note_on,58,35,0
2,note_on,58,0,120
2,note_on,59,41,0
2,note_on,59,0,120
2,note_on,56,35,0
2,note_on,56,0,120
2,note_on,54,41,0
2,note_on,54,0,120
2,note_on,56,34,0
2,note_on,56,0,120
2,note_on,58,41,0
2,note_on,58,0,120
2,note_on,56,36,0
2,note_on,56,0,120
2,note_on,58,41,0
2,note_on,58,0,120
2,note_on,54,37,0
2,note_on,54,0,120
2,note_on,53,41,0
2,note_on,53,0,120
2,note_on,54,34,0
2,note_on,54,0,120
2,note_on,56,41,0
2,note_on,56,0,120
2,note_on,54,36,0
2,note_on,54,0,120
2,note_on,56,41,0
2,note_on,56,0,120
2,note_on,53,37,0
2,note_on,53,0,120
2,note_on,54,41,0
2,note_on,54,0,120
2,note_on,56,38,0
2,note_on,56,0,120
2,note_on,58,41,0
2,note_on,58,0,120
2,note_on,56,35,0
2,note_on,56,0,120
2,note_on,58,41,0
2,note_on,58,0,120
2,note_on,54,35,0
2,note_on,54,0,120
2,note_on,50,41,0
2,note_on,50,0,120
2,note_on,51,34,0
2,note_on,51,0,120
2,note_on,53,41,0
2,note_on,53,0,120
2,note_on,51,36,0
2,note_on,51,0,120
2,note_on,53,41,0
2,note_on,53,0,120
2,note_on,50,37,0
2,note_on,50,0,120
2,note_on,51,41,0
2,note_on,51,0,120
2,note_on,53,34,0
2,note_on,53,0,120
2,note_on,54,41,0
2,note_on,54,0,120
2,note_on,53,36,0
2,note_on,53,0,120
2,note_on,54,41,0
2,note_on,54,0,120
2,note_on,51,37,0
2,note_on,51,0,120
2,note_on,48,41,0
2,note_on,48,0,120
2,note_on,50,38,0
2,note_on,50,0,120
2,note_on,51,41,0
2,note_on,51,0,120
2,note_on,50,35,0
2,note_on,50,0,120
2,note_on,51,41,0
2,note_on,51,0,120
2,note_on,47,35,0
2,note_on,47,0,120
2,note_on,46,41,0
2,note_on,48,34,120
2,note_on,48,0,120
2,note_on,50,41,0
2,note_on,50,0,120
2,note_on,48,36,0
2,note_on,48,0,120
2,note_on,46,41,0
2,note_on,46,0,120
2,note_on,48,37,0
2,note_on,48,0,120
2,note_on,50,41,0
2,note_on,50,0,120
2,note_on,51,34,0
2,note_on,51,0,120
2,note_on,53,41,0
2,note_on,53,0,120
2,note_on,51,36,0
2,note_on,51,0,120
2,note_on,50,41,0
2,note_on,50,0,120
2,note_on,53,37,0
2,note_on,53,0,120
2,note_on,51,41,0
2,note_on,51,0,120
2,note_on,50,38,0
2,note_on,46,0,110
2,note_on,50,0,10
2,note_on,46,39,0
2,note_on,48,41,0
2,note_on,48,0,120
2,note_on,50,35,0
2,note_on,46,0,110
2,note_on,50,0,10
2,note_on,46,39,0
2,note_on,51,41,0
2,note_on,51,0,120
2,note_on,48,35,0
2,note_on,46,0,110
2,note_on,48,0,10
2,note_on,50,41,0
2,note_on,46,41,0
2,note_on,50,0,120
2,note_on,51,34,0
2,note_on,51,0,120
2,note_on,53,41,0
2,note_on,53,0,120
2,note_on,51,36,0
2,note_on,51,0,120
2,note_on,50,41,0
2,note_on,50,0,120
2,note_on,51,37,0
2,note_on,51,0,120
2,note_on,53,41,0
2,note_on,53,0,120
2,note_on,54,34,0
2,note_on,54,0,120
2,note_on,56,41,0
2,note_on,56,0,120
2,note_on,54,36,0
2,note_on,54,0,120
2,note_on,53,41,0
2,note_on,53,0,120
2,note_on,56,37,0
2,note_on,56,0,120
2,note_on,54,41,0
2,note_on,54,0,120
2,note_on,53,38,0
2,note_on,46,0,110
2,note_on,53,0,10
2,note_on,46,39,0
2,note_on,51,41,0
2,note_on,51,0,120
2,note_on,53,35,0
2,note_on,46,0,110
2,note_on,53,0,10
2,note_on,46,39,0
2,note_on,54,41,0
2,note_on,54,0,120
2,note_on,51,35,0
2,note_on,46,0,110
2,note_on,51,0,10
2,note_on,46,39,0
2,note_on,50,39,0
2,note_on,53,39,0
2,note_on,53,0,480
2,note_on,50,0,0
2,note_on,46,0,0
2,note_on,39,25,3840
2,note_on,39,0,216
2,note_on,58,20,24
2,note_on,55,17,0
2,note_on,51,17,0
2,note_on,51,0,216
2,note_on,55,0,0
2,note_on,58,0,0
2,note_on,51,17,24
2,note_on,55,17,0
2,note_on,58,20,0
2,note_on,58,0,216
2,note_on,55,0,0
2,note_on,51,0,0
2,note_on,51,19,24
2,note_on,55,19,0
2,note_on,58,23,0
2,note_on,58,0,216
2,note_on,55,0,0
2,note_on,51,0,0
2,note_on,55,17,24
2,note_on,51,17,0
2,note_on,58,20,0
2,note_on,58,0,216
2,note_on,51,0,0
2,note_on,55,0,0
2,note_on,51,17,24
2,note_on,55,17,0
2,note_on,58,20,0
2,note_on,58,0,216
2,note_on,55,0,0
2,note_on,51,0,0
2,note_on,58,24,24
2,note_on,55,20,0
2,note_on,51,20,0
2,note_on,51,0,216
2,note_on,55,0,0
2,note_on,58,0,0
2,note_on,51,17,24
2,note_on,55,17,0
2,note_on,58,21,0
2,note_on,58,0,216
2,note_on,55,0,0
2,note_on,51,0,0
2,note_on,51,17,24
2,note_on,55,17,0
2,note_on,58,21,0
2,note_on,58,0,216
2,note_on,55,0,0
2,note_on,51,0,0
2,note_on,55,21,24
2,note_on,51,21,0
2,note_on,58,25,0
2,note_on,58,0,216
2,note_on,51,0,0
2,note_on,55,0,0
2,note_on,51,17,24
2,note_on,55,17,0
2,note_on,58,20,0
2,note_on,58,0,216
2,note_on,55,0,0
2,note_on,51,0,0
2,note_on,58,20,24
2,note_on,55,17,0
2,note_on,51,17,0
2,note_on,51,0,216
2,note_on,55,0,0
2,note_on,58,0,0
2,note_on,51,19,24
2,note_on,55,19,0
2,note_on,58,23,0
2,note_on,58,0,216
2,note_on,55,0,0
2,note_on,51,0,0
2,note_on,51,17,24
2,note_on,55,17,0
2,note_on,58,20,0
2,note_on,58,0,216
2,note_on,55,0,0
2,note_on,51,0,0
2,note_on,55,17,24
2,note_on,51,17,0
2,note_on,58,20,0
2,note_on,58,0,216
2,note_on,51,0,0
2,note_on,55,0,0
2,note_on,51,20,24
2,note_on,55,20,0
2,note_on,58,24,0
2,note_on,58,0,216
2,note_on,55,0,0
2,note_on,51,0,0
2,note_on,58,21,24
2,note_on,55,17,0
2,note_on,51,17,0
2,note_on,51,0,216
2,note_on,55,0,0
2,note_on,58,0,0
2,note_on,51,17,24
2,note_on,55,17,0
2,note_on,58,21,0
2,note_on,58,0,216
2,note_on,55,0,0
2,note_on,51,0,0
2,note_on,50,21,24
2,note_on,56,21,0
2,note_on,58,25,0
2,note_on,58,0,216
2,note_on,56,0,0
2,note_on,50,0,0
2,note_on,56,17,24
2,note_on,50,17,0
2,note_on,58,20,0
2,note_on,58,0,216
2,note_on,50,0,0
2,note_on,56,0,0
2,note_on,50,17,24
2,note_on,56,17,0
2,note_on,58,20,0
2,note_on,58,0,216
2,note_on,56,0,0
2,note_on,50,0,0
2,note_on,58,23,24
2,note_on,56,19,0
2,note_on,50,19,0
2,note_on,50,0,216
2,note_on,56,0,0
2,note_on,58,0,0
2,note_on,50,17,24
2,note_on,56,17,0
2,note_on,58,20,0
2,note_on,58,0,216
2,note_on,56,0,0
2,note_on,50,0,0
2,note_on,50,17,24
2,note_on,56,17,0
2,note_on,58,20,0
2,note_on,58,0,216
2,note_on,56,0,0
2,note_on,50,0,0
2,note_on,56,20,24
2,note_on,50,20,0
2,note_on,58,24,0
2,note_on,58,0,216
2,note_on,50,0,0
2,note_on,56,0,0
2,note_on,50,17,24
2,note_on,56,17,0
2,note_on,58,21,0
2,note_on,58,0,216
2,note_on,56,0,0
2,note_on,50,0,0
2,note_on,58,21,24
2,note_on,56,17,0
2,note_on,50,17,0
2,note_on,50,0,216
2,note_on,56,0,0
2,note_on,58,0,0
2,note_on,53,21,24
2,note_on,50,21,0
2,note_on,56,21,0
2,note_on,58,25,0
2,note_on,58,0,216
2,note_on,53,0,0
2,note_on,50,0,0
2,note_on,56,0,0
2,note_on,58,20,24
2,note_on,53,17,0
2,note_on,50,17,0
2,note_on,56,17,0
2,note_on,56,0,216
2,note_on,58,0,0
2,note_on,53,0,0
2,note_on,50,0,0
2,note_on,53,17,24
2,note_on,50,17,0
2,note_on,56,17,0
2,note_on,58,20,0
2,note_on,58,0,216
2,note_on,53,0,0
2,note_on,50,0,0
2,note_on,56,0,0
2,note_on,56,20,24
2,note_on,58,25,0
2,note_on,53,20,0
2,note_on,50,20,0
2,note_on,50,0,216
2,note_on,56,0,0
2,note_on,58,0,0
2,note_on,53,0,0
2,note_on,53,19,24
2,note_on,50,19,0
2,note_on,56,19,0
2,note_on,58,23,0
2,note_on,58,0,216
2,note_on,53,0,0
2,note_on,50,0,0
2,note_on,56,0,0
2,note_on,56,20,24
2,note_on,53,20,0
2,note_on,50,20,0
2,note_on,58,24,0
2,note_on,58,0,216
2,note_on,56,0,0
2,note_on,53,0,0
2,note_on,50,0,0
2,note_on,53,25,24
2,note_on,50,25,0
2,note_on,58,30,0
2,note_on,56,25,0
2,note_on,56,0,216
2,note_on,53,0,0
2,note_on,50,0,0
2,note_on,58,0,0
2,note_on,56,22,24
2,note_on,50,22,0
2,note_on,53,22,0
2,note_on,58,27,0
2,note_on,58,0,216
2,note_on,56,0,0
2,note_on,50,0,0
2,note_on,53,0,0
2,note_on,53,22,24
2,note_on,50,22,0
2,note_on,56,22,0
2,note_on,58,28,0
2,note_on,58,0,216
2,note_on,53,0,0
2,note_on,50,0,0
2,note_on,56,0,0
2,note_on,56,21,24
2,note_on,51,21,0
2,note_on,58,25,0
2,note_on,58,0,216
2,note_on,51,0,0
2,note_on,56,0,0
2,note_on,51,17,24
2,note_on,56,17,0
2,note_on,58,20,0
2,note_on,58,0,216
2,note_on,56,0,0
2,note_on,51,0,0
2,note_on,58,20,24
2,note_on,56,17,0
2,note_on,51,17,0
2,note_on,51,0,216
2,note_on,56,0,0
2,note_on,58,0,0
2,note_on,51,19,24
2,note_on,55,19,0
2,note_on,58,23,0
2,note_on,58,0,216
2,note_on,55,0,0
2,note_on,51,0,0
2,note_on,51,17,24
2,note_on,55,17,0
2,note_on,58,20,0
2,note_on,58,0,216
2,note_on,55,0,0
2,note_on,51,0,0
2,note_on,55,17,24
2,note_on,51,17,0
2,note_on,58,20,0
2,note_on,58,0,216
2,note_on,51,0,0
2,note_on,55,0,0
2,note_on,51,36,24
2,note_on,51,0,240
2,note_on,46,40,0
2,note_on,46,0,240
2,note_on,44,43,0
2,note_on,44,0,240
2,note_on,43,48,0
2,note_on,43,0,240
2,note_on,51,35,0
2,note_on,46,29,0
2,note_on,43,29,0
2,note_on,43,0,216
2,note_on,46,0,0
2,note_on,51,0,0
2,note_on,43,29,24
2,note_on,46,29,0
2,note_on,51,35,0
2,note_on,51,0,216
2,note_on,46,0,0
2,note_on,43,0,0
2,note_on,51,35,24
2,note_on,43,29,0
2,note_on,46,29,0
2,note_on,46,0,216
2,note_on,43,0,0
2,note_on,51,0,0
2,note_on,43,27,24
2,note_on,46,27,0
2,note_on,51,32,0
2,note_on,51,0,216
2,note_on,46,0,0
2,note_on,43,0,0
2,note_on,43,27,24
2,note_on,51,32,0
2,note_on,46,27,0
2,note_on,46,0,216
2,note_on,51,0,0
2,note_on,43,0,0
2,note_on,51,35,24
2,note_on,46,29,0
2,note_on,43,29,0
2,note_on,43,0,216
2,note_on,46,0,0
2,note_on,51,0,0
2,note_on,43,25,24
2,note_on,46,25,0
2,note_on,51,30,0
2,note_on,51,0,216
2,note_on,46,0,0
2,note_on,43,0,0
2,note_on,51,30,24
2,note_on,43,25,0
2,note_on,46,25,0
2,note_on,46,0,216
2,note_on,43,0,0
2,note_on,51,0,0
2,note_on,44,32,24
2,note_on,48,34,0
2,note_on,51,48,0
2,note_on,51,0,240
2,note_on,48,0,0
2,note_on,44,0,0
2,note_on,44,29,0
2,note_on,51,35,0
2,note_on,48,29,0
2,note_on,48,0,216
2,note_on,51,0,0
2,note_on,44,0,0
2,note_on,51,35,24
2,note_on,48,29,0
2,note_on,44,29,0
2,note_on,44,0,216
2,note_on,48,0,0
2,note_on,51,0,0
2,note_on,44,34,24
2,note_on,48,34,0
2,note_on,52,41,0
2,note_on,52,0,216
2,note_on,48,0,0
2,note_on,44,0,0
2,note_on,52,35,24
2,note_on,44,29,0
2,note_on,48,29,0
2,note_on,48,0,216
2,note_on,44,0,0
2,note_on,52,0,0
2,note_on,44,33,24
2,note_on,48,33,0
2,note_on,52,39,0
2,note_on,52,0,216
2,note_on,48,0,0
2,note_on,44,0,0
2,note_on,44,37,24
2,note_on,53,44,0
2,note_on,48,37,0
2,note_on,48,0,216
2,note_on,53,0,0
2,note_on,44,0,0
2,note_on,53,36,24
2,note_on,48,30,0
2,note_on,44,30,0
2,note_on,44,0,216
2,note_on,48,0,0
2,note_on,53,0,0
2,note_on,44,30,24
2,note_on,48,30,0
2,note_on,53,36,0
2,note_on,53,0,216
2,note_on,48,0,0
2,note_on,44,0,0
2,note_on,55,35,24
2,note_on,46,29,0
2,note_on,51,29,0
2,note_on,51,0,216
2,note_on,46,0,0
2,note_on,55,0,0
2,note_on,46,23,24
2,note_on,51,23,0
2,note_on,55,28,0
2,note_on,55,0,216
2,note_on,51,0,0
2,note_on,46,0,0
2,note_on,46,23,24
2,note_on,55,28,0
2,note_on,51,23,0
2,note_on,51,0,216
2,note_on,55,0,0
2,note_on,46,0,0
2,note_on,55,32,24
2,note_on,51,26,0
2,note_on,46,26,0
2,note_on,46,0,216
2,note_on,51,0,0
2,note_on,55,0,0
2,note_on,46,23,24
2,note_on,51,23,0
2,note_on,55,27,0
2,note_on,55,0,216
2,note_on,51,0,0
2,note_on,46,0,0
2,note_on,55,27,24
2,note_on,46,22,0
2,note_on,51,22,0
2,note_on,51,0,216
2,note_on,46,0,0
2,note_on,55,0,0
2,note_on,46,25,24
2,note_on,53,25,0
2,note_on,56,31,0
2,note_on,56,0,216
2,note_on,53,0,0
2,note_on,46,0,0
2,note_on,46,22,24
2,note_on,56,26,0
2,note_on,53,22,0
2,note_on,53,0,216
2,note_on,56,0,0
2,note_on,46,0,0
2,note_on,56,26,24
2,note_on,53,21,0
2,note_on,46,21,0
2,note_on,46,0,216
2,note_on,53,0,0
2,note_on,56,0,0
2,note_on,51,26,24
2,note_on,55,31,0
2,note_on,55,0,480
2,note_on,51,0,0
2,note_on,46,26,960
2,note_on,58,31,0
2,note_on,58,0,480
2,note_on,56,29,0
2,note_on,56,0,240
2,note_on,46,0,0
2,note_on,55,31,0
2,note_on,51,26,0
2,note_on,51,0,480
2,note_on,55,0,0
2,note_on,46,31,960
2,note_on,34,26,0
2,note_on,46,0,480
2,note_on,44,22,0
2,note_on,53,27,0
2,note_on,53,0,240
2,note_on,44,0,0
2,note_on,34,0,0
2,note_on,39,27,0
2,note_on,43,27,0
2,note_on,43,0,480
2,note_on,39,0,0
2,note_on,39,32,1680
2,note_on,39,0,240
2,note_on,43,32,0
2,note_on,43,0,240
2,note_on,46,32,0
2,note_on,46,0,240
2,note_on,51,36,0
2,note_on,51,0,240
2,note_on,55,38,0
2,note_on,55,0,240
2,note_on,58,40,0
2,note_on,58,0,230
2,note_on,46,36,10
2,note_on,58,43,0
2,note_on,58,0,480
2,note_on,46,0,0
2,note_on,46,33,0
2,note_on,56,39,0
2,note_on,56,0,230
2,note_on,46,0,0
2,note_on,56,38,10
2,note_on,51,32,0
2,note_on,56,0,720
2,note_on,55,30,0
2,note_on,55,0,240
2,note_on,51,0,0
2,note_on,39,37,1200
2,note_on,39,0,240
2,note_on,42,40,0
2,note_on,42,0,240
2,note_on,46,44,0
2,note_on,46,0,240
2,note_on,51,49,0
2,note_on,51,0,240
2,note_on,54,53,0
2,note_on,54,0,240
2,note_on,58,57,0
2,note_on,58,0,230
2,note_on,63,62,10
2,note_on,63,0,240
2,note_on,59,58,0
2,note_on,59,0,240
2,note_on,58,54,0
2,note_on,58,0,230
2,note_on,56,53,10
2,note_on,56,0,720
2,note_on,53,43,0
2,note_on,53,0,720
2,note_on,54,40,0
2,note_on,54,0,720
2,note_on,47,32,0
2,note_on,47,0,720
2,note_on,49,32,0
2,note_on,49,0,720
2,note_on,37,32,0
2,note_on,37,0,720
2,note_on,38,53,0
2,note_on,38,0,720
2,note_on,50,43,0
2,note_on,50,0,720
2,note_on,51,40,0
2,note_on,51,0,720
2,note_on,44,32,0
2,note_on,44,0,720
2,note_on,45,32,0
2,note_on,45,0,720
2,note_on,46,32,0
2,note_on,46,0,720
2,note_on,39,35,0
2,note_on,51,29,240
2,note_on,51,0,216
2,note_on,51,29,24
2,note_on,51,0,216
2,note_on,51,32,24
2,note_on,51,0,216
2,note_on,51,29,24
2,note_on,51,0,216
2,note_on,51,29,24
2,note_on,51,0,216
2,note_on,51,32,24
2,note_on,51,0,216
2,note_on,51,27,24
2,note_on,51,0,216
2,note_on,51,27,24
2,note_on,51,0,216
2,note_on,39,0,24
2,note_on,51,32,0
2,note_on,51,0,216
2,note_on,51,28,24
2,note_on,51,0,216
2,note_on,51,28,24
2,note_on,51,0,216
2,note_on,51,32,24
2,note_on,51,0,216
2,note_on,51,28,24
2,note_on,51,0,216
2,note_on,51,28,24
2,note_on,51,0,216
2,note_on,51,32,24
2,note_on,51,0,216
2,note_on,51,28,24
2,note_on,51,0,216
2,note_on,51,28,24
2,note_on,51,0,216
2,note_on,51,32,24
2,note_on,51,0,216
2,note_on,51,28,24
2,note_on,51,0,216
2,note_on,51,28,24
2,note_on,51,0,216
2,note_on,51,32,24
2,note_on,51,0,216
2,note_on,51,28,24
2,note_on,51,0,216
2,note_on,51,28,24
2,note_on,51,0,216
2,note_on,51,32,24
2,note_on,51,0,216
2,note_on,51,28,24
2,note_on,51,0,216
2,note_on,51,28,24
2,note_on,51,0,216
2,note_on,51,32,24
2,note_on,51,0,216
2,note_on,51,28,24
2,note_on,51,0,216
2,note_on,51,28,24
2,note_on,51,0,216
2,note_on,51,32,24
2,note_on,51,0,216
2,note_on,51,28,24
2,note_on,51,0,216
2,note_on,51,28,24
2,note_on,51,0,216
2,note_on,51,32,24
2,note_on,51,0,216
2,note_on,51,28,24
2,note_on,51,0,216
2,note_on,51,28,24
2,note_on,51,0,216
2,note_on,51,32,24
2,note_on,51,0,480
2,note_on,63,28,240
2,note_on,58,23,0
2,note_on,55,23,0
2,note_on,55,0,480
2,note_on,58,0,0
2,note_on,63,0,0
2,note_on,67,23,240
2,note_on,70,23,0
2,note_on,75,28,0
2,note_on,75,0,480
2,note_on,70,0,0
2,note_on,67,0,0
2,note_on,68,23,240
2,note_on,72,23,0
2,note_on,75,28,0
2,note_on,75,0,480
2,note_on,72,0,0
2,note_on,68,0,0
2,note_on,63,28,240
2,note_on,60,23,0
2,note_on,56,23,0
2,note_on,56,0,480
2,note_on,60,0,0
2,note_on,63,0,0
2,note_on,57,23,240
2,note_on,63,28,0
2,note_on,60,23,0
2,note_on,60,0,480
2,note_on,63,0,0
2,note_on,57,0,0
2,note_on,58,35,240
2,note_on,67,29,240
2,note_on,63,24,0
2,note_on,63,0,240
2,note_on,67,0,0
2,note_on,67,30,0
2,note_on,63,25,0
2,note_on,63,0,240
2,note_on,67,0,0
2,note_on,63,31,0
2,note_on,67,38,0
2,note_on,67,0,240
2,note_on,63,0,0
2,note_on,63,35,0
2,note_on,67,42,0
2,note_on,67,0,240
2,note_on,63,0,0
2,note_on,63,39,0
2,note_on,67,46,0
2,note_on,58,0,230
2,note_on,67,0,10
2,note_on,63,0,0
2,note_on,58,37,0
2,note_on,68,44,0
2,note_on,62,37,0
2,note_on,62,0,240
2,note_on,68,0,0
2,note_on,62,33,0
2,note_on,68,39,0
2,note_on,68,0,240
2,note_on,62,0,0
2,note_on,62,32,0
2,note_on,68,38,0
2,note_on,68,0,240
2,note_on,62,0,0
2,note_on,58,0,0
2,note_on,67,40,0
2,note_on,63,38,0
2,note_on,63,0,480
2,note_on,67,0,0
2,note_on,46,35,1680
2,note_on,55,29,240
2,note_on,51,24,0
2,note_on,51,0,240
2,note_on,55,0,0
2,note_on,55,32,0
2,note_on,51,27,0
2,note_on,51,0,240
2,note_on,55,0,0
2,note_on,51,35,0
2,note_on,55,43,0
2,note_on,55,0,240
2,note_on,51,0,0
2,note_on,51,41,0
2,note_on,55,49,0
2,note_on,55,0,240
2,note_on,51,0,0
2,note_on,51,47,0
2,note_on,55,55,0
2,note_on,46,0,230
2,note_on,55,0,10
2,note_on,51,0,0
2,note_on,46,45,0
2,note_on,56,62,0
2,note_on,50,52,0
2,note_on,50,0,240
2,note_on,56,0,0
2,note_on,50,33,0
2,note_on,56,39,0
2,note_on,56,0,240
2,note_on,50,0,0
2,note_on,50,32,0
2,note_on,56,38,0
2,note_on,56,0,240
2,note_on,50,0,0
2,note_on,46,0,0
2,note_on,51,44,0
2,note_on,51,0,240
2,note_on,55,39,0
2,note_on,55,0,240
2,note_on,58,39,0
2,note_on,58,0,240
2,note_on,63,44,0
2,note_on,63,0,240
2,note_on,67,38,0
2,note_on,67,0,240
2,note_on,69,38,0
2,note_on,69,0,240
2,note_on,70,44,0
2,note_on,70,0,480
2,note_on,65,44,0
2,note_on,58,37,0
2,note_on,65,0,180
2,note_on,68,40,0
2,note_on,68,0,60
2,note_on,58,0,0
2,note_on,39,44,0
2,note_on,39,0,240
2,note_on,43,39,0
2,note_on,43,0,240
2,note_on,46,39,0
2,note_on,46,0,240
2,note_on,51,44,0
2,note_on,51,0,240
2,note_on,55,38,0
2,note_on,55,0,240
2,note_on,57,34,0
2,note_on,57,0,240
2,note_on,58,39,0
2,note_on,58,0,480
2,note_on,53,39,0
2,note_on,46,33,0
2,note_on,53,0,180
2,note_on,56,36,0
2,note_on,56,0,60
2,note_on,46,0,0
2,note_on,51,34,0
2,note_on,55,40,0
2,note_on,55,0,240
2,note_on,51,0,0
2,note_on,46,33,0
2,note_on,53,39,0
2,note_on,53,0,360
2,note_on,56,34,0
2,note_on,56,0,120
2,note_on,46,0,0
2,note_on,51,34,0
2,note_on,55,40,0
2,note_on,55,0,240
2,note_on,51,0,0
2,note_on,46,33,0
2,note_on,53,39,0
2,note_on,53,0,360
2,note_on,56,34,0
2,note_on,56,0,120
2,note_on,46,0,0
2,note_on,51,34,0
2,note_on,55,40,0
2,note_on,55,0,240
2,note_on,51,0,0
2,note_on,46,38,0
2,note_on,53,46,0
2,note_on,53,0,120
2,note_on,52,43,0
2,note_on,52,0,120
2,note_on,46,0,0
2,note_on,46,38,0
2,note_on,53,51,0
2,note_on,53,0,120
2,note_on,50,47,0
2,note_on,50,0,120
2,note_on,46,0,0
2,note_on,39,26,120
2,note_on,50,31,0
2,note_on,46,26,0
2,note_on,50,0,600
2,note_on,51,25,0
2,note_on,51,0,480
2,note_on,46,0,0
2,note_on,39,0,0
