Track,Message Type,Note,Velocity,Time
1,note_on,74,50,480
1,note_on,74,0,180
1,note_on,69,42,0
1,note_on,77,50,0
1,note_on,77,0,54
1,note_on,69,0,0
1,note_on,72,53,6
1,note_on,77,62,0
1,note_on,77,0,240
1,note_on,72,0,0
1,note_on,65,46,0
1,note_on,74,55,0
1,note_on,74,0,120
1,note_on,65,0,0
1,note_on,70,50,120
1,note_on,70,0,180
1,note_on,66,42,0
1,note_on,74,50,0
1,note_on,74,0,54
1,note_on,66,0,0
1,note_on,69,53,6
1,note_on,74,62,0
1,note_on,74,0,240
1,note_on,69,0,0
1,note_on,62,46,0
1,note_on,70,55,0
1,note_on,70,0,120
1,note_on,62,0,0
1,note_on,67,52,120
1,note_on,67,0,180
1,note_on,62,44,0
1,note_on,70,53,0
1,note_on,70,0,54
1,note_on,62,0,0
1,note_on,65,57,6
1,note_on,70,66,0
1,note_on,70,0,240
1,note_on,65,0,0
1,note_on,58,51,0
1,note_on,67,61,0
1,note_on,67,0,120
1,note_on,58,0,0
1,note_on,58,47,120
1,note_on,67,57,0
1,note_on,67,0,180
1,note_on,58,0,0
1,note_on,63,48,0
1,note_on,69,58,0
1,note_on,69,0,54
1,note_on,63,0,0
1,note_on,63,62,6
1,note_on,69,72,0
1,note_on,69,0,240
1,note_on,63,0,0
1,note_on,58,55,0
1,note_on,70,66,0
1,note_on,70,0,120
1,note_on,58,0,0
1,note_on,65,51,120
1,note_on,70,61,0
1,note_on,70,0,180
1,note_on,72,63,0
1,note_on,72,0,54
1,note_on,65,0,6
1,note_on,65,67,0
1,note_on,72,79,0
1,note_on,72,0,240
1,note_on,65,0,0
1,note_on,70,60,0
1,note_on,65,60,0
1,note_on,74,72,0
1,note_on,74,0,120
1,note_on,65,0,0
1,note_on,70,0,0
1,note_on,70,56,120
1,note_on,74,67,0
1,note_on,74,0,180
1,note_on,75,70,0
1,note_on,75,0,54
1,note_on,70,0,6
1,note_on,70,75,0
1,note_on,75,88,0
1,note_on,75,0,240
1,note_on,70,0,0
1,note_on,73,68,0
1,note_on,70,68,0
1,note_on,65,68,0
1,note_on,77,82,0
1,note_on,77,0,60
1,note_on,73,0,0
1,note_on,70,0,0
1,note_on,65,0,0
1,note_on,67,79,180
1,note_on,70,79,0
1,note_on,72,79,0
1,note_on,79,94,0
1,note_on,79,0,60
1,note_on,67,0,0
1,note_on,70,0,0
1,note_on,72,0,0
1,note_on,60,79,180
1,note_on,69,79,0
1,note_on,72,94,0
1,note_on,72,0,120
1,note_on,69,0,0
1,note_on,60,0,0
1,note_on,86,50,360
1,note_on,86,0,180
1,note_on,81,42,0
1,note_on,89,50,0
1,note_on,89,0,54
1,note_on,81,0,0
1,note_on,84,53,6
1,note_on,89,62,0
1,note_on,89,0,240
1,note_on,84,0,0
1,note_on,77,46,0
1,note_on,86,55,0
1,note_on,86,0,120
1,note_on,77,0,0
1,note_on,82,50,120
1,note_on,82,0,180
1,note_on,78,42,0
1,note_on,86,50,0
1,note_on,86,0,54
1,note_on,78,0,0
1,note_on,81,53,6
1,note_on,86,62,0
1,note_on,86,0,240
1,note_on,81,0,0
1,note_on,74,46,0
1,note_on,82,55,0
1,note_on,82,0,120
1,note_on,74,0,0
1,note_on,79,52,120
1,note_on,79,0,180
1,note_on,74,44,0
1,note_on,82,53,0
1,note_on,82,0,54
1,note_on,74,0,0
1,note_on,77,57,6
1,note_on,82,66,0
1,note_on,82,0,240
1,note_on,77,0,0
1,note_on,70,51,0
1,note_on,79,61,0
1,note_on,79,0,120
1,note_on,70,0,0
1,note_on,70,47,120
1,note_on,79,57,0
1,note_on,79,0,180
1,note_on,70,0,0
1,note_on,75,48,0
1,note_on,81,58,0
1,note_on,81,0,54
1,note_on,75,0,0
1,note_on,75,62,6
1,note_on,81,72,0
1,note_on,81,0,240
1,note_on,75,0,0
1,note_on,70,55,0
1,note_on,82,66,0
1,note_on,82,0,120
1,note_on,70,0,0
1,note_on,77,51,120
1,note_on,82,61,0
1,note_on,82,0,180
1,note_on,84,63,0
1,note_on,84,0,54
1,note_on,77,0,6
1,note_on,77,67,0
1,note_on,84,79,0
1,note_on,84,0,240
1,note_on,77,0,0
1,note_on,77,60,0
1,note_on,86,72,0
1,note_on,86,0,120
1,note_on,77,0,0
1,note_on,82,56,120
1,note_on,87,67,0
1,note_on,87,0,180
1,note_on,88,70,0
1,note_on,88,0,54
1,note_on,82,0,6
1,note_on,82,75,0
1,note_on,88,88,0
1,note_on,88,0,240
1,note_on,82,0,0
1,note_on,81,68,0
1,note_on,77,68,0
1,note_on,89,82,0
1,note_on,89,0,60
1,note_on,77,0,0
1,note_on,81,0,0
1,note_on,79,79,180
1,note_on,82,79,0
1,note_on,88,79,0
1,note_on,91,94,0
1,note_on,91,0,60
1,note_on,79,0,0
1,note_on,82,0,0
1,note_on,88,0,0
1,note_on,77,79,180
1,note_on,81,79,0
1,note_on,89,94,0
1,note_on,89,0,120
1,note_on,81,0,0
1,note_on,77,0,0
1,note_on,71,43,360
1,note_on,74,50,0
1,note_on,74,0,180
1,note_on,71,0,0
1,note_on,74,42,0
1,note_on,77,50,0
1,note_on,77,0,45
1,note_on,74,0,0
1,note_on,74,53,15
1,note_on,77,62,0
1,note_on,77,0,240
1,note_on,74,0,0
1,note_on,71,46,0
1,note_on,74,55,0
1,note_on,74,0,120
1,note_on,71,0,0
1,note_on,71,43,120
1,note_on,74,50,0
1,note_on,74,0,180
1,note_on,71,0,0
1,note_on,75,42,0
1,note_on,79,50,0
1,note_on,79,0,45
1,note_on,75,0,0
1,note_on,75,53,15
1,note_on,79,62,0
1,note_on,79,0,240
1,note_on,75,0,0
1,note_on,72,46,0
1,note_on,75,55,0
1,note_on,75,0,120
1,note_on,72,0,0
1,note_on,69,43,120
1,note_on,72,50,0
1,note_on,72,0,180
1,note_on,69,0,0
1,note_on,72,42,0
1,note_on,75,50,0
1,note_on,75,0,45
1,note_on,72,0,0
1,note_on,72,53,15
1,note_on,75,62,0
1,note_on,75,0,240
1,note_on,72,0,0
1,note_on,69,46,0
1,note_on,72,55,0
1,note_on,72,0,120
1,note_on,69,0,0
1,note_on,69,43,120
1,note_on,72,50,0
1,note_on,72,0,180
1,note_on,69,0,0
1,note_on,73,42,0
1,note_on,77,50,0
1,note_on,77,0,45
1,note_on,73,0,0
1,note_on,74,53,15
1,note_on,77,62,0
1,note_on,77,0,240
1,note_on,74,0,0
1,note_on,70,46,0
1,note_on,74,55,0
1,note_on,74,0,120
1,note_on,70,0,0
1,note_on,57,38,120
1,note_on,60,45,0
1,note_on,60,0,180
1,note_on,57,0,0
1,note_on,60,37,0
1,note_on,63,45,0
1,note_on,63,0,45
1,note_on,60,0,0
1,note_on,60,47,15
1,note_on,63,55,0
1,note_on,63,0,480
1,note_on,60,0,0
1,note_on,58,40,0
1,note_on,62,48,0
1,note_on,62,0,240
1,note_on,58,0,0
1,note_on,57,39,0
1,note_on,60,46,0
1,note_on,60,0,240
1,note_on,57,0,0
1,note_on,55,38,0
1,note_on,58,45,0
1,note_on,58,0,240
1,note_on,55,0,0
1,note_on,53,36,0
1,note_on,57,43,0
1,note_on,57,0,480
1,note_on,53,0,0
1,note_on,52,33,0
1,note_on,55,39,0
1,note_on,55,0,240
1,note_on,52,0,0
1,note_on,51,32,0
1,note_on,55,32,0
1,note_on,60,38,0
1,note_on,60,0,480
1,note_on,51,0,0
1,note_on,50,32,0
1,note_on,59,38,0
1,note_on,59,0,240
1,note_on,50,0,0
1,note_on,55,0,0
1,note_on,59,40,720
1,note_on,59,0,180
1,note_on,62,40,0
1,note_on,62,0,54
1,note_on,62,49,6
1,note_on,62,0,240
1,note_on,59,44,0
1,note_on,59,0,120
1,note_on,62,33,120
1,note_on,71,40,0
1,note_on,71,0,180
1,note_on,74,40,0
1,note_on,74,0,54
1,note_on,74,49,6
1,note_on,74,0,240
1,note_on,71,44,0
1,note_on,71,0,120
1,note_on,62,0,0
1,note_on,84,46,120
1,note_on,84,0,180
1,note_on,87,46,0
1,note_on,87,0,54
1,note_on,87,56,6
1,note_on,87,0,240
1,note_on,84,50,0
1,note_on,84,0,120
1,note_on,62,43,120
1,note_on,71,50,0
1,note_on,71,0,180
1,note_on,62,0,0
1,note_on,65,42,0
1,note_on,74,50,0
1,note_on,74,0,45
1,note_on,65,0,0
1,note_on,65,53,15
1,note_on,74,62,0
1,note_on,74,0,240
1,note_on,65,0,0
1,note_on,62,47,0
1,note_on,71,56,0
1,note_on,71,0,120
1,note_on,62,0,0
1,note_on,62,51,120
1,note_on,71,59,0
1,note_on,71,0,180
1,note_on,62,0,0
1,note_on,67,50,0
1,note_on,75,60,0
1,note_on,75,0,45
1,note_on,67,0,0
1,note_on,67,63,15
1,note_on,75,75,0
1,note_on,75,0,240
1,note_on,67,0,0
1,note_on,63,56,0
1,note_on,72,68,0
1,note_on,72,0,120
1,note_on,63,0,0
1,note_on,69,61,120
1,note_on,72,73,0
1,note_on,72,0,180
1,note_on,69,0,0
1,note_on,72,66,0
1,note_on,81,75,0
1,note_on,81,0,54
1,note_on,72,0,0
1,note_on,72,80,6
1,note_on,81,94,0
1,note_on,81,0,240
1,note_on,72,0,0
1,note_on,69,71,0
1,note_on,77,85,0
1,note_on,77,0,60
1,note_on,69,0,0
1,note_on,70,86,180
1,note_on,82,103,0
1,note_on,82,0,60
1,note_on,70,0,0
1,note_on,70,86,180
1,note_on,82,103,0
1,note_on,82,0,120
1,note_on,70,0,0
1,note_on,83,43,360
1,note_on,86,50,0
1,note_on,86,0,180
1,note_on,83,0,0
1,note_on,86,42,0
1,note_on,89,50,0
1,note_on,89,0,45
1,note_on,86,0,0
1,note_on,86,53,15
1,note_on,89,62,0
1,note_on,89,0,240
1,note_on,86,0,0
1,note_on,83,46,0
1,note_on,86,55,0
1,note_on,86,0,120
1,note_on,83,0,0
1,note_on,83,43,120
1,note_on,86,50,0
1,note_on,86,0,180
1,note_on,83,0,0
1,note_on,87,42,0
1,note_on,91,50,0
1,note_on,91,0,45
1,note_on,87,0,0
1,note_on,87,53,15
1,note_on,91,62,0
1,note_on,91,0,240
1,note_on,87,0,0
1,note_on,84,46,0
1,note_on,87,55,0
1,note_on,87,0,120
1,note_on,84,0,0
1,note_on,81,43,120
1,note_on,84,50,0
1,note_on,84,0,180
1,note_on,81,0,0
1,note_on,84,42,0
1,note_on,87,50,0
1,note_on,87,0,45
1,note_on,84,0,0
1,note_on,84,53,15
1,note_on,87,62,0
1,note_on,87,0,240
1,note_on,84,0,0
1,note_on,81,46,0
1,note_on,84,55,0
1,note_on,84,0,120
1,note_on,81,0,0
1,note_on,81,43,120
1,note_on,84,50,0
1,note_on,84,0,180
1,note_on,81,0,0
1,note_on,85,42,0
1,note_on,89,50,0
1,note_on,89,0,45
1,note_on,85,0,0
1,note_on,86,53,15
1,note_on,89,62,0
1,note_on,89,0,240
1,note_on,86,0,0
1,note_on,82,46,0
1,note_on,86,55,0
1,note_on,86,0,120
1,note_on,82,0,0
1,note_on,69,38,120
1,note_on,72,45,0
1,note_on,72,0,180
1,note_on,69,0,0
1,note_on,72,37,0
1,note_on,75,45,0
1,note_on,75,0,45
1,note_on,72,0,0
1,note_on,72,47,15
1,note_on,75,55,0
1,note_on,75,0,480
1,note_on,72,0,0
1,note_on,70,40,0
1,note_on,74,48,0
1,note_on,74,0,240
1,note_on,70,0,0
1,note_on,69,39,0
1,note_on,72,46,0
1,note_on,72,0,240
1,note_on,69,0,0
1,note_on,67,38,0
1,note_on,70,45,0
1,note_on,70,0,240
1,note_on,67,0,0
1,note_on,65,36,0
1,note_on,69,43,0
1,note_on,69,0,480
1,note_on,65,0,0
1,note_on,64,33,0
1,note_on,67,39,0
1,note_on,67,0,240
1,note_on,64,0,0
1,note_on,63,32,0
1,note_on,67,32,0
1,note_on,72,38,0
1,note_on,72,0,480
1,note_on,63,0,0
1,note_on,62,32,0
1,note_on,71,38,0
1,note_on,71,0,240
1,note_on,62,0,0
1,note_on,67,0,0
1,note_on,71,40,720
1,note_on,71,0,180
1,note_on,74,40,0
1,note_on,74,0,54
1,note_on,74,49,6
1,note_on,74,0,240
1,note_on,71,44,0
1,note_on,71,0,120
1,note_on,74,33,120
1,note_on,83,40,0
1,note_on,83,0,180
1,note_on,86,40,0
1,note_on,86,0,54
1,note_on,86,49,6
1,note_on,86,0,240
1,note_on,83,44,0
1,note_on,83,0,120
1,note_on,74,0,0
1,note_on,72,46,120
1,note_on,72,0,180
1,note_on,75,46,0
1,note_on,75,0,54
1,note_on,75,56,6
1,note_on,75,0,240
1,note_on,72,50,0
1,note_on,72,0,120
1,note_on,74,43,120
1,note_on,83,50,0
1,note_on,83,0,180
1,note_on,74,0,0
1,note_on,77,42,0
1,note_on,86,50,0
1,note_on,86,0,45
1,note_on,77,0,0
1,note_on,77,54,15
1,note_on,86,63,0
1,note_on,86,0,240
1,note_on,77,0,0
1,note_on,74,48,0
1,note_on,83,57,0
1,note_on,83,0,120
1,note_on,74,0,0
1,note_on,74,52,120
1,note_on,83,60,0
1,note_on,83,0,180
1,note_on,74,0,0
1,note_on,79,52,0
1,note_on,87,62,0
1,note_on,87,0,45
1,note_on,79,0,0
1,note_on,79,66,15
1,note_on,87,78,0
1,note_on,87,0,240
1,note_on,79,0,0
1,note_on,75,58,0
1,note_on,84,70,0
1,note_on,84,0,120
1,note_on,75,0,0
1,note_on,81,64,120
1,note_on,84,77,0
1,note_on,84,0,180
1,note_on,81,0,0
1,note_on,84,69,0
1,note_on,93,79,0
1,note_on,93,0,54
1,note_on,84,0,0
1,note_on,84,83,6
1,note_on,93,98,0
1,note_on,93,0,240
1,note_on,84,0,0
1,note_on,81,74,0
1,note_on,89,89,0
1,note_on,89,0,60
1,note_on,81,0,0
1,note_on,82,94,180
1,note_on,94,112,0
1,note_on,94,0,60
1,note_on,82,0,0
1,note_on,82,94,180
1,note_on,94,112,0
1,note_on,94,0,120
1,note_on,82,0,0
1,note_on,73,52,360
1,note_on,85,62,0
1,note_on,85,0,480
1,note_on,73,0,0
1,note_on,89,58,0
1,note_on,77,58,0
1,note_on,77,0,240
1,note_on,89,0,0
1,note_on,73,52,0
1,note_on,85,62,0
1,note_on,85,0,480
1,note_on,73,0,0
1,note_on,70,52,0
1,note_on,82,62,0
1,note_on,82,0,240
1,note_on,70,0,0
1,note_on,65,48,0
1,note_on,77,57,0
1,note_on,77,0,240
1,note_on,65,0,0
1,note_on,70,53,0
1,note_on,82,63,0
1,note_on,82,0,480
1,note_on,70,0,0
1,note_on,85,66,0
1,note_on,73,55,0
1,note_on,73,0,240
1,note_on,85,0,0
1,note_on,77,58,0
1,note_on,89,69,0
1,note_on,89,0,480
1,note_on,77,0,0
1,note_on,85,79,0
1,note_on,73,67,0
1,note_on,73,0,240
1,note_on,85,0,0
1,note_on,82,81,0
1,note_on,70,68,0
1,note_on,70,0,480
1,note_on,82,0,0
1,note_on,77,82,0
1,note_on,65,68,0
1,note_on,65,0,240
1,note_on,77,0,0
1,note_on,70,72,0
1,note_on,82,86,0
1,note_on,82,0,480
1,note_on,70,0,0
1,note_on,85,78,0
1,note_on,73,66,0
1,note_on,73,0,240
1,note_on,85,0,0
1,note_on,77,60,0
1,note_on,89,72,0
1,note_on,89,0,480
1,note_on,77,0,0
1,note_on,92,51,0
1,note_on,80,42,0
1,note_on,80,0,240
1,note_on,92,0,0
1,note_on,85,48,0
1,note_on,73,40,0
1,note_on,73,0,240
1,note_on,85,0,0
1,note_on,70,34,240
1,note_on,82,40,0
1,note_on,82,0,60
1,note_on,70,0,0
1,note_on,70,34,180
1,note_on,82,40,0
1,note_on,82,0,60
1,note_on,70,0,0
1,note_on,73,37,420
1,note_on,73,0,80
1,note_on,70,30,0
1,note_on,70,0,80
1,note_on,65,30,0
1,note_on,65,0,80
1,note_on,73,37,0
1,note_on,73,0,80
1,note_on,70,31,0
1,note_on,70,0,80
1,note_on,65,31,0
1,note_on,65,0,80
1,note_on,77,37,0
1,note_on,77,0,80
1,note_on,73,31,0
1,note_on,73,0,80
1,note_on,70,30,0
1,note_on,70,0,80
1,note_on,73,37,0
1,note_on,73,0,80
1,note_on,70,31,0
1,note_on,70,0,80
1,note_on,65,31,0
1,note_on,65,0,80
1,note_on,73,37,0
1,note_on,73,0,80
1,note_on,70,31,0
1,note_on,70,0,80
1,note_on,65,31,0
1,note_on,65,0,80
1,note_on,70,39,0
1,note_on,70,0,80
1,note_on,65,32,0
1,note_on,65,0,80
1,note_on,61,32,0
1,note_on,61,0,80
1,note_on,65,40,0
1,note_on,65,0,80
1,note_on,61,34,0
1,note_on,61,0,80
1,note_on,58,36,0
1,note_on,58,0,80
1,note_on,61,49,0
1,note_on,70,49,0
1,note_on,70,0,80
1,note_on,61,0,0
1,note_on,58,42,0
1,note_on,58,0,80
1,note_on,61,42,0
1,note_on,61,0,80
1,note_on,70,50,0
1,note_on,70,0,80
1,note_on,61,43,0
1,note_on,61,0,80
1,note_on,58,43,0
1,note_on,58,0,80
1,note_on,65,54,0
1,note_on,73,54,0
1,note_on,73,0,80
1,note_on,65,0,0
1,note_on,61,46,0
1,note_on,61,0,80
1,note_on,65,51,0
1,note_on,65,0,80
1,note_on,77,63,0
1,note_on,77,0,80
1,note_on,73,55,0
1,note_on,73,0,80
1,note_on,70,59,0
1,note_on,70,0,80
1,note_on,77,71,0
1,note_on,77,0,80
1,note_on,73,60,0
1,note_on,73,0,80
1,note_on,70,64,0
1,note_on,70,0,80
1,note_on,73,77,0
1,note_on,73,0,80
1,note_on,70,67,0
1,note_on,70,0,80
1,note_on,65,61,0
1,note_on,65,0,80
1,note_on,70,83,0
1,note_on,70,0,80
1,note_on,65,68,0
1,note_on,65,0,80
1,note_on,61,58,0
1,note_on,61,0,80
1,note_on,70,64,0
1,note_on,70,0,80
1,note_on,65,54,0
1,note_on,65,0,80
1,note_on,61,46,0
1,note_on,61,0,80
1,note_on,65,60,0
1,note_on,65,0,80
1,note_on,61,45,0
1,note_on,61,0,80
1,note_on,58,44,0
1,note_on,58,0,80
1,note_on,61,31,0
1,note_on,68,44,0
1,note_on,68,0,80
1,note_on,61,0,0
1,note_on,56,36,0
1,note_on,56,0,80
1,note_on,61,35,0
1,note_on,61,0,80
1,note_on,68,41,0
1,note_on,68,0,80
1,note_on,65,34,0
1,note_on,65,0,80
1,note_on,61,32,0
1,note_on,61,0,80
1,note_on,65,27,0
1,note_on,73,39,0
1,note_on,73,0,80
1,note_on,65,0,0
1,note_on,61,32,0
1,note_on,61,0,80
1,note_on,65,31,0
1,note_on,65,0,80
1,note_on,77,37,0
1,note_on,77,0,80
1,note_on,73,26,0
1,note_on,73,0,80
1,note_on,68,26,0
1,note_on,68,0,80
1,note_on,77,30,0
1,note_on,77,0,80
1,note_on,73,25,0
1,note_on,73,0,80
1,note_on,68,25,0
1,note_on,68,0,80
1,note_on,80,30,0
1,note_on,80,0,80
1,note_on,77,25,0
1,note_on,77,0,80
1,note_on,73,25,0
1,note_on,73,0,78
1,note_on,65,33,2
1,note_on,73,40,0
1,note_on,73,0,240
1,note_on,65,0,0
1,note_on,77,48,240
1,note_on,89,57,0
1,note_on,89,0,480
1,note_on,77,0,0
1,note_on,92,53,0
1,note_on,80,53,0
1,note_on,80,0,240
1,note_on,92,0,0
1,note_on,77,48,0
1,note_on,89,57,0
1,note_on,89,0,480
1,note_on,77,0,0
1,note_on,73,48,0
1,note_on,85,57,0
1,note_on,85,0,240
1,note_on,73,0,0
1,note_on,68,44,0
1,note_on,80,52,0
1,note_on,80,0,240
1,note_on,68,0,0
1,note_on,73,49,0
1,note_on,85,58,0
1,note_on,85,0,480
1,note_on,73,0,0
1,note_on,89,60,0
1,note_on,77,50,0
1,note_on,77,0,240
1,note_on,89,0,0
1,note_on,80,53,0
1,note_on,92,63,0
1,note_on,92,0,480
1,note_on,80,0,0
1,note_on,89,72,0
1,note_on,77,61,0
1,note_on,77,0,240
1,note_on,89,0,0
1,note_on,85,81,0
1,note_on,73,68,0
1,note_on,73,0,480
1,note_on,85,0,0
1,note_on,82,82,0
1,note_on,70,68,0
1,note_on,70,0,240
1,note_on,82,0,0
1,note_on,65,72,0
1,note_on,77,86,0
1,note_on,77,0,480
1,note_on,65,0,0
1,note_on,82,78,0
1,note_on,70,66,0
1,note_on,70,0,240
1,note_on,82,0,0
1,note_on,73,60,0
1,note_on,85,72,0
1,note_on,85,0,480
1,note_on,73,0,0
1,note_on,89,51,0
1,note_on,77,42,0
1,note_on,77,0,240
1,note_on,89,0,0
1,note_on,82,48,0
1,note_on,70,40,0
1,note_on,70,0,240
1,note_on,82,0,0
1,note_on,61,34,240
1,note_on,73,40,0
1,note_on,73,0,60
1,note_on,61,0,0
1,note_on,61,34,180
1,note_on,73,40,0
1,note_on,73,0,60
1,note_on,61,0,0
1,note_on,61,37,180
1,note_on,61,0,80
1,note_on,65,32,0
1,note_on,65,0,80
1,note_on,73,32,0
1,note_on,73,0,80
1,note_on,77,37,0
1,note_on,73,30,80
1,note_on,73,0,80
1,note_on,68,30,0
1,note_on,68,0,80
1,note_on,77,0,0
1,note_on,77,37,0
1,note_on,73,31,80
1,note_on,73,0,80
1,note_on,68,31,0
1,note_on,68,0,80
1,note_on,77,0,0
1,note_on,77,37,0
1,note_on,80,37,0
1,note_on,77,0,80
1,note_on,73,31,0
1,note_on,73,0,80
1,note_on,68,30,0
1,note_on,68,0,80
1,note_on,80,0,0
1,note_on,77,37,0
1,note_on,77,0,80
1,note_on,73,31,0
1,note_on,73,0,80
1,note_on,68,31,0
1,note_on,68,0,80
1,note_on,77,37,0
1,note_on,77,0,80
1,note_on,73,31,0
1,note_on,73,0,80
1,note_on,68,31,0
1,note_on,68,0,80
1,note_on,73,38,0
1,note_on,73,0,80
1,note_on,68,32,0
1,note_on,68,0,80
1,note_on,65,31,0
1,note_on,65,0,80
1,note_on,61,34,0
1,note_on,68,39,0
1,note_on,68,0,80
1,note_on,61,0,0
1,note_on,56,33,0
1,note_on,56,0,80
1,note_on,61,34,0
1,note_on,61,0,80
1,note_on,65,32,0
1,note_on,73,41,0
1,note_on,73,0,80
1,note_on,65,0,0
1,note_on,61,35,0
1,note_on,61,0,80
1,note_on,65,35,0
1,note_on,65,0,80
1,note_on,73,50,0
1,note_on,73,0,80
1,note_on,68,40,0
1,note_on,68,0,80
1,note_on,65,43,0
1,note_on,65,0,80
1,note_on,77,54,0
1,note_on,77,0,80
1,note_on,73,47,0
1,note_on,73,0,80
1,note_on,68,50,0
1,note_on,68,0,80
1,note_on,80,62,0
1,note_on,80,0,80
1,note_on,77,53,0
1,note_on,77,0,80
1,note_on,73,55,0
1,note_on,73,0,80
1,note_on,77,67,0
1,note_on,77,0,80
1,note_on,73,60,0
1,note_on,73,0,80
1,note_on,77,62,0
1,note_on,77,0,78
1,note_on,77,72,2
1,note_on,77,0,80
1,note_on,73,63,0
1,note_on,73,0,80
1,note_on,65,60,0
1,note_on,65,0,80
1,note_on,73,75,0
1,note_on,73,0,80
1,note_on,70,66,0
1,note_on,70,0,80
1,note_on,65,52,0
1,note_on,65,0,80
1,note_on,73,55,0
1,note_on,73,0,80
1,note_on,70,45,0
1,note_on,70,0,80
1,note_on,65,42,0
1,note_on,65,0,80
1,note_on,70,60,0
1,note_on,70,0,80
1,note_on,65,45,0
1,note_on,65,0,80
1,note_on,61,44,0
1,note_on,61,0,80
1,note_on,65,44,0
1,note_on,65,0,80
1,note_on,61,36,0
1,note_on,61,0,80
1,note_on,58,35,0
1,note_on,58,0,80
1,note_on,65,41,0
1,note_on,65,0,80
1,note_on,61,34,0
1,note_on,61,0,80
1,note_on,58,32,0
1,note_on,58,0,80
1,note_on,61,27,0
1,note_on,70,39,0
1,note_on,70,0,80
1,note_on,61,0,0
1,note_on,58,32,0
1,note_on,58,0,80
1,note_on,61,31,0
1,note_on,61,0,80
1,note_on,73,37,0
1,note_on,73,0,80
1,note_on,70,26,0
1,note_on,70,0,80
1,note_on,65,26,0
1,note_on,65,0,80
1,note_on,73,30,0
1,note_on,73,0,80
1,note_on,70,25,0
1,note_on,70,0,80
1,note_on,65,25,0
1,note_on,65,0,80
1,note_on,77,30,0
1,note_on,77,0,80
1,note_on,73,25,0
1,note_on,73,0,80
1,note_on,65,25,0
1,note_on,65,0,80
1,note_on,70,40,0
1,note_on,70,0,240
1,note_on,70,50,480
1,note_on,70,0,60
1,note_on,73,44,180
1,note_on,73,0,60
1,note_on,72,50,180
1,note_on,72,0,60
1,note_on,65,43,180
1,note_on,65,0,60
1,note_on,77,50,180
1,note_on,77,0,60
1,note_on,75,45,180
1,note_on,75,0,60
1,note_on,73,45,180
1,note_on,73,0,60
1,note_on,72,45,180
1,note_on,72,0,60
1,note_on,70,50,180
1,note_on,70,0,60
1,note_on,73,43,180
1,note_on,73,0,60
1,note_on,72,50,180
1,note_on,72,0,60
1,note_on,68,42,180
1,note_on,68,0,60
1,note_on,72,50,180
1,note_on,72,0,60
1,note_on,67,42,180
1,note_on,67,0,60
1,note_on,65,46,180
1,note_on,65,0,480
1,note_on,65,42,120
1,note_on,68,42,0
1,note_on,72,50,0
1,note_on,72,0,120
1,note_on,68,0,0
1,note_on,65,0,0
1,note_on,65,40,120
1,note_on,68,40,0
1,note_on,72,48,0
1,note_on,72,0,120
1,note_on,68,0,0
1,note_on,65,0,0
1,note_on,64,41,120
1,note_on,70,41,0
1,note_on,72,49,0
1,note_on,72,0,120
1,note_on,70,0,0
1,note_on,64,0,0
1,note_on,64,42,120
1,note_on,67,42,0
1,note_on,70,42,0
1,note_on,72,51,0
1,note_on,72,0,120
1,note_on,64,0,0
1,note_on,67,0,0
1,note_on,70,0,0
1,note_on,64,46,120
1,note_on,67,46,0
1,note_on,72,57,0
1,note_on,72,0,120
1,note_on,67,0,0
1,note_on,64,0,0
1,note_on,64,47,120
1,note_on,67,47,0
1,note_on,72,57,0
1,note_on,72,0,120
1,note_on,67,0,0
1,note_on,64,0,0
1,note_on,65,48,120
1,note_on,68,48,0
1,note_on,72,58,0
1,note_on,72,0,120
1,note_on,68,0,0
1,note_on,65,0,0
1,note_on,64,49,120
1,note_on,70,49,0
1,note_on,72,59,0
1,note_on,72,0,120
1,note_on,70,0,0
1,note_on,64,0,0
1,note_on,65,58,120
1,note_on,68,58,0
1,note_on,72,70,0
1,note_on,72,0,120
1,note_on,68,0,0
1,note_on,65,0,0
1,note_on,65,54,120
1,note_on,68,54,0
1,note_on,72,54,0
1,note_on,77,65,0
1,note_on,77,0,120
1,note_on,65,0,0
1,note_on,68,0,0
1,note_on,72,0,0
1,note_on,65,56,120
1,note_on,70,56,0
1,note_on,72,56,0
1,note_on,77,66,0
1,note_on,77,0,120
1,note_on,65,0,0
1,note_on,70,0,0
1,note_on,72,0,0
1,note_on,64,57,120
1,note_on,70,57,0
1,note_on,72,57,0
1,note_on,76,69,0
1,note_on,76,0,120
1,note_on,64,0,0
1,note_on,70,0,0
1,note_on,72,0,0
1,note_on,65,69,120
1,note_on,72,69,0
1,note_on,77,82,0
1,note_on,77,0,120
1,note_on,72,0,0
1,note_on,65,0,0
1,note_on,65,60,120
1,note_on,72,60,0
1,note_on,75,73,0
1,note_on,75,0,120
1,note_on,72,0,0
1,note_on,65,0,0
1,note_on,65,62,120
1,note_on,70,62,0
1,note_on,73,75,0
1,note_on,73,0,120
1,note_on,70,0,0
1,note_on,65,0,0
1,note_on,63,63,120
1,note_on,69,63,0
1,note_on,72,76,0
1,note_on,72,0,120
1,note_on,69,0,0
1,note_on,63,0,0
1,note_on,70,76,0
1,note_on,77,76,0
1,note_on,82,90,0
1,note_on,82,0,120
1,note_on,77,0,0
1,note_on,70,0,0
1,note_on,85,85,120
1,note_on,82,72,0
1,note_on,77,72,0
1,note_on,73,72,0
1,note_on,73,0,120
1,note_on,85,0,0
1,note_on,82,0,0
1,note_on,77,0,0
1,note_on,84,85,120
1,note_on,81,85,0
1,note_on,77,72,0
1,note_on,72,72,0
1,note_on,72,0,120
1,note_on,84,0,0
1,note_on,81,0,0
1,note_on,77,0,0
1,note_on,77,85,120
1,note_on,72,72,0
1,note_on,69,72,0
1,note_on,65,72,0
1,note_on,65,0,120
1,note_on,77,0,0
1,note_on,72,0,0
1,note_on,69,0,0
1,note_on,89,99,120
1,note_on,82,83,0
1,note_on,77,83,0
1,note_on,77,0,120
1,note_on,82,0,0
1,note_on,89,0,0
1,note_on,87,84,120
1,note_on,81,71,0
1,note_on,77,71,0
1,note_on,75,71,0
1,note_on,75,0,120
1,note_on,87,0,0
1,note_on,81,0,0
1,note_on,77,0,0
1,note_on,85,84,120
1,note_on,82,71,0
1,note_on,77,71,0
1,note_on,73,71,0
1,note_on,73,0,120
1,note_on,85,0,0
1,note_on,82,0,0
1,note_on,77,0,0
1,note_on,84,84,120
1,note_on,77,71,0
1,note_on,72,71,0
1,note_on,72,0,120
1,note_on,77,0,0
1,note_on,84,0,0
1,note_on,82,90,120
1,note_on,77,76,0
1,note_on,73,76,0
1,note_on,70,76,0
1,note_on,70,0,120
1,note_on,82,0,0
1,note_on,77,0,0
1,note_on,73,0,0
1,note_on,85,82,120
1,note_on,82,69,0
1,note_on,77,69,0
1,note_on,73,69,0
1,note_on,73,0,120
1,note_on,85,0,0
1,note_on,82,0,0
1,note_on,77,0,0
1,note_on,84,90,120
1,note_on,77,76,0
1,note_on,72,76,0
1,note_on,72,0,120
1,note_on,77,0,0
1,note_on,84,0,0
1,note_on,77,81,120
1,note_on,72,68,0
1,note_on,69,68,0
1,note_on,65,68,0
1,note_on,65,0,120
1,note_on,77,0,0
1,note_on,72,0,0
1,note_on,69,0,0
1,note_on,89,109,120
1,note_on,77,92,0
1,note_on,77,0,120
1,note_on,89,0,0
1,note_on,85,92,120
1,note_on,82,78,0
1,note_on,73,78,0
1,note_on,73,0,120
1,note_on,82,0,0
1,note_on,85,0,0
1,note_on,84,101,120
1,note_on,81,85,0
1,note_on,72,85,0
1,note_on,72,0,480
1,note_on,81,0,0
1,note_on,84,0,0
1,note_on,89,109,0
1,note_on,77,92,0
1,note_on,77,0,120
1,note_on,89,0,0
1,note_on,85,92,120
1,note_on,82,78,0
1,note_on,82,0,120
1,note_on,85,0,0
1,note_on,84,101,120
1,note_on,81,85,0
1,note_on,81,0,480
1,note_on,84,0,0
1,note_on,72,97,0
1,note_on,69,81,0
1,note_on,69,0,480
1,note_on,72,0,0
1,note_on,60,98,0
1,note_on,57,80,0
1,note_on,57,0,480
1,note_on,60,0,0
1,note_on,48,101,0
1,note_on,45,85,0
1,note_on,45,0,480
1,note_on,48,0,0
1,note_on,36,101,0
1,note_on,33,85,0
1,note_on,33,0,1200
1,note_on,36,0,0
1,note_on,65,81,2160
1,note_on,65,0,80
1,note_on,67,81,0
1,note_on,67,0,80
1,note_on,69,81,0
1,note_on,69,0,80
1,note_on,70,81,0
1,note_on,70,0,120
1,note_on,72,82,0
1,note_on,72,0,120
1,note_on,74,82,0
1,note_on,74,0,120
1,note_on,76,83,0
1,note_on,76,0,120
1,note_on,77,83,0
1,note_on,77,0,80
1,note_on,79,83,0
1,note_on,79,0,80
1,note_on,81,84,0
1,note_on,81,0,80
1,note_on,82,84,0
1,note_on,82,0,120
1,note_on,84,84,0
1,note_on,84,0,120
1,note_on,86,85,0
1,note_on,86,0,120
1,note_on,88,85,0
1,note_on,88,0,120
1,note_on,89,86,0
1,note_on,89,0,80
1,note_on,91,88,0
1,note_on,91,0,80
1,note_on,93,89,0
1,note_on,93,0,80
1,note_on,94,90,0
1,note_on,94,0,120
1,note_on,96,92,0
1,note_on,96,0,120
1,note_on,98,94,0
1,note_on,98,0,120
1,note_on,100,96,0
1,note_on,100,0,120
1,note_on,101,98,0
1,note_on,101,0,120
1,note_on,75,68,120
1,note_on,78,81,0
1,note_on,78,0,60
1,note_on,75,0,0
1,note_on,69,70,0
1,note_on,69,0,60
1,note_on,75,67,0
1,note_on,78,79,0
1,note_on,78,0,60
1,note_on,75,0,0
1,note_on,69,70,0
1,note_on,69,0,60
1,note_on,75,67,0
1,note_on,78,79,0
1,note_on,78,0,60
1,note_on,75,0,0
1,note_on,69,70,0
1,note_on,69,0,60
1,note_on,75,67,0
1,note_on,78,79,0
1,note_on,78,0,60
1,note_on,75,0,0
1,note_on,69,70,0
1,note_on,69,0,60
1,note_on,75,68,0
1,note_on,78,80,0
1,note_on,78,0,60
1,note_on,75,0,0
1,note_on,69,70,0
1,note_on,69,0,60
1,note_on,75,65,0
1,note_on,78,77,0
1,note_on,78,0,60
1,note_on,75,0,0
1,note_on,69,70,0
1,note_on,69,0,60
1,note_on,74,50,720
1,note_on,74,0,180
1,note_on,69,42,0
1,note_on,77,50,0
1,note_on,77,0,54
1,note_on,69,0,0
1,note_on,72,53,6
1,note_on,77,62,0
1,note_on,77,0,240
1,note_on,72,0,0
1,note_on,65,46,0
1,note_on,74,55,0
1,note_on,74,0,120
1,note_on,65,0,0
1,note_on,70,50,120
1,note_on,70,0,180
1,note_on,66,42,0
1,note_on,74,50,0
1,note_on,74,0,54
1,note_on,66,0,0
1,note_on,69,53,6
1,note_on,74,62,0
1,note_on,74,0,240
1,note_on,69,0,0
1,note_on,62,46,0
1,note_on,70,55,0
1,note_on,70,0,120
1,note_on,62,0,0
1,note_on,67,52,120
1,note_on,67,0,180
1,note_on,62,44,0
1,note_on,70,53,0
1,note_on,70,0,54
1,note_on,62,0,0
1,note_on,65,57,6
1,note_on,70,66,0
1,note_on,70,0,240
1,note_on,65,0,0
1,note_on,58,51,0
1,note_on,67,61,0
1,note_on,67,0,120
1,note_on,58,0,0
1,note_on,58,47,120
1,note_on,67,57,0
1,note_on,67,0,180
1,note_on,58,0,0
1,note_on,63,48,0
1,note_on,69,58,0
1,note_on,69,0,54
1,note_on,63,0,0
1,note_on,63,62,6
1,note_on,69,72,0
1,note_on,69,0,240
1,note_on,63,0,0
1,note_on,58,55,0
1,note_on,70,66,0
1,note_on,70,0,120
1,note_on,58,0,0
1,note_on,65,51,120
1,note_on,70,61,0
1,note_on,70,0,180
1,note_on,72,63,0
1,note_on,72,0,54
1,note_on,65,0,6
1,note_on,65,67,0
1,note_on,72,79,0
1,note_on,72,0,240
1,note_on,65,0,0
1,note_on,70,60,0
1,note_on,65,60,0
1,note_on,74,72,0
1,note_on,74,0,120
1,note_on,65,0,0
1,note_on,70,0,0
1,note_on,70,56,120
1,note_on,74,67,0
1,note_on,74,0,180
1,note_on,75,70,0
1,note_on,75,0,54
1,note_on,70,0,6
1,note_on,70,75,0
1,note_on,75,88,0
1,note_on,75,0,240
1,note_on,70,0,0
1,note_on,73,68,0
1,note_on,70,68,0
1,note_on,65,68,0
1,note_on,77,82,0
1,note_on,77,0,60
1,note_on,73,0,0
1,note_on,70,0,0
1,note_on,65,0,0
1,note_on,67,79,180
1,note_on,70,79,0
1,note_on,72,79,0
1,note_on,79,94,0
1,note_on,79,0,60
1,note_on,67,0,0
1,note_on,70,0,0
1,note_on,72,0,0
1,note_on,60,79,180
1,note_on,69,79,0
1,note_on,72,94,0
1,note_on,72,0,120
1,note_on,69,0,0
1,note_on,60,0,0
1,note_on,86,50,360
1,note_on,86,0,180
1,note_on,81,42,0
1,note_on,89,50,0
1,note_on,89,0,54
1,note_on,81,0,0
1,note_on,81,53,6
1,note_on,89,62,0
1,note_on,77,46,120
1,note_on,89,0,120
1,note_on,81,0,0
1,note_on,86,55,0
1,note_on,86,0,120
1,note_on,77,0,0
1,note_on,82,50,120
1,note_on,82,0,180
1,note_on,78,42,0
1,note_on,86,50,0
1,note_on,86,0,54
1,note_on,78,0,0
1,note_on,86,62,6
1,note_on,74,46,120
1,note_on,86,0,120
1,note_on,82,55,0
1,note_on,82,0,120
1,note_on,74,0,0
1,note_on,79,52,120
1,note_on,79,0,180
1,note_on,74,44,0
1,note_on,82,53,0
1,note_on,82,0,54
1,note_on,74,0,0
1,note_on,82,66,6
1,note_on,70,51,120
1,note_on,82,0,120
1,note_on,79,61,0
1,note_on,79,0,120
1,note_on,70,0,0
1,note_on,70,47,120
1,note_on,79,57,0
1,note_on,79,0,180
1,note_on,70,0,0
1,note_on,75,48,0
1,note_on,81,58,0
1,note_on,81,0,54
1,note_on,75,0,0
1,note_on,81,72,6
1,note_on,75,62,129
1,note_on,81,0,111
1,note_on,70,55,0
1,note_on,82,66,0
1,note_on,75,0,9
1,note_on,82,0,111
1,note_on,70,0,0
1,note_on,77,51,120
1,note_on,82,61,0
1,note_on,82,0,180
1,note_on,84,63,0
1,note_on,84,0,54
1,note_on,77,0,6
1,note_on,84,79,0
1,note_on,77,67,120
1,note_on,84,0,120
1,note_on,86,72,0
1,note_on,86,0,120
1,note_on,77,0,0
1,note_on,82,56,120
1,note_on,87,67,0
1,note_on,87,0,180
1,note_on,88,70,0
1,note_on,88,0,54
1,note_on,82,0,6
1,note_on,88,88,0
1,note_on,82,76,120
1,note_on,82,0,120
1,note_on,88,0,0
1,note_on,81,68,0
1,note_on,89,82,0
1,note_on,89,0,60
1,note_on,81,0,0
1,note_on,79,79,180
1,note_on,82,79,0
1,note_on,88,79,0
1,note_on,91,94,0
1,note_on,91,0,60
1,note_on,79,0,0
1,note_on,82,0,0
1,note_on,88,0,0
1,note_on,77,79,180
1,note_on,81,79,0
1,note_on,89,94,0
1,note_on,89,0,120
1,note_on,81,0,0
1,note_on,77,0,0
1,note_on,71,43,360
1,note_on,74,50,0
1,note_on,74,0,180
1,note_on,71,0,0
1,note_on,74,42,0
1,note_on,77,50,0
1,note_on,77,0,45
1,note_on,74,0,0
1,note_on,74,53,15
1,note_on,77,62,0
1,note_on,77,0,240
1,note_on,74,0,0
1,note_on,71,46,0
1,note_on,74,55,0
1,note_on,74,0,120
1,note_on,71,0,0
1,note_on,71,43,120
1,note_on,74,50,0
1,note_on,74,0,180
1,note_on,71,0,0
1,note_on,75,42,0
1,note_on,79,50,0
1,note_on,79,0,45
1,note_on,75,0,0
1,note_on,75,53,15
1,note_on,79,62,0
1,note_on,79,0,240
1,note_on,75,0,0
1,note_on,72,46,0
1,note_on,75,55,0
1,note_on,75,0,120
1,note_on,72,0,0
1,note_on,69,43,120
1,note_on,72,50,0
1,note_on,72,0,180
1,note_on,69,0,0
1,note_on,72,42,0
1,note_on,75,50,0
1,note_on,75,0,45
1,note_on,72,0,0
1,note_on,72,53,15
1,note_on,75,62,0
1,note_on,63,34,120
1,note_on,75,0,120
1,note_on,72,0,0
1,note_on,69,46,0
1,note_on,72,55,0
1,note_on,72,0,120
1,note_on,69,0,0
1,note_on,63,0,0
1,note_on,69,43,120
1,note_on,72,50,0
1,note_on,72,0,180
1,note_on,69,0,0
1,note_on,73,42,0
1,note_on,77,50,0
1,note_on,77,0,45
1,note_on,73,0,0
1,note_on,74,53,15
1,note_on,77,62,0
1,note_on,65,34,120
1,note_on,77,0,120
1,note_on,74,0,0
1,note_on,70,46,0
1,note_on,74,55,0
1,note_on,74,0,120
1,note_on,70,0,0
1,note_on,65,0,0
1,note_on,57,38,120
1,note_on,60,45,0
1,note_on,60,0,180
1,note_on,57,0,0
1,note_on,60,37,0
1,note_on,63,45,0
1,note_on,63,0,45
1,note_on,60,0,0
1,note_on,60,47,15
1,note_on,63,55,0
1,note_on,63,0,480
1,note_on,60,0,0
1,note_on,58,40,0
1,note_on,62,48,0
1,note_on,62,0,240
1,note_on,58,0,0
1,note_on,57,39,0
1,note_on,60,46,0
1,note_on,60,0,240
1,note_on,57,0,0
1,note_on,55,38,0
1,note_on,58,45,0
1,note_on,58,0,240
1,note_on,55,0,0
1,note_on,53,36,0
1,note_on,57,43,0
1,note_on,57,0,480
1,note_on,53,0,0
1,note_on,52,33,0
1,note_on,55,39,0
1,note_on,55,0,240
1,note_on,52,0,0
1,note_on,51,32,0
1,note_on,55,32,0
1,note_on,60,38,0
1,note_on,60,0,480
1,note_on,51,0,0
1,note_on,50,32,0
1,note_on,59,38,0
1,note_on,59,0,240
1,note_on,50,0,0
1,note_on,55,0,0
1,note_on,59,40,720
1,note_on,59,0,180
1,note_on,62,40,0
1,note_on,62,0,54
1,note_on,62,49,6
1,note_on,62,0,240
1,note_on,59,44,0
1,note_on,59,0,120
1,note_on,62,33,120
1,note_on,71,40,0
1,note_on,71,0,180
1,note_on,74,40,0
1,note_on,74,0,54
1,note_on,74,49,6
1,note_on,62,0,118
1,note_on,62,33,2
1,note_on,74,0,120
1,note_on,71,44,0
1,note_on,71,0,120
1,note_on,62,0,0
1,note_on,84,46,120
1,note_on,84,0,180
1,note_on,87,46,0
1,note_on,87,0,54
1,note_on,87,56,6
1,note_on,87,0,240
1,note_on,84,50,0
1,note_on,84,0,120
1,note_on,62,43,120
1,note_on,71,50,0
1,note_on,71,0,180
1,note_on,62,0,0
1,note_on,65,42,0
1,note_on,74,50,0
1,note_on,74,0,45
1,note_on,65,0,0
1,note_on,65,53,15
1,note_on,74,62,0
1,note_on,74,0,240
1,note_on,65,0,0
1,note_on,62,46,0
1,note_on,71,55,0
1,note_on,71,0,120
1,note_on,62,0,0
1,note_on,62,49,120
1,note_on,71,57,0
1,note_on,71,0,180
1,note_on,62,0,0
1,note_on,67,48,0
1,note_on,75,57,0
1,note_on,75,0,45
1,note_on,67,0,0
1,note_on,67,61,15
1,note_on,75,72,0
1,note_on,75,0,240
1,note_on,67,0,0
1,note_on,63,54,0
1,note_on,72,66,0
1,note_on,72,0,120
1,note_on,63,0,0
1,note_on,69,59,120
1,note_on,72,71,0
1,note_on,72,0,180
1,note_on,69,0,0
1,note_on,72,65,0
1,note_on,81,75,0
1,note_on,81,0,54
1,note_on,72,0,0
1,note_on,72,80,6
1,note_on,81,94,0
1,note_on,81,0,240
1,note_on,72,0,0
1,note_on,69,72,0
1,note_on,77,87,0
1,note_on,77,0,60
1,note_on,69,0,0
1,note_on,70,90,180
1,note_on,82,108,0
1,note_on,82,0,60
1,note_on,70,0,0
1,note_on,70,90,180
1,note_on,82,108,0
1,note_on,82,0,120
1,note_on,70,0,0
1,note_on,83,43,360
1,note_on,86,50,0
1,note_on,86,0,180
1,note_on,83,0,0
1,note_on,86,42,0
1,note_on,89,50,0
1,note_on,89,0,45
1,note_on,86,0,0
1,note_on,86,53,15
1,note_on,89,62,0
1,note_on,89,0,240
1,note_on,86,0,0
1,note_on,83,46,0
1,note_on,86,55,0
1,note_on,86,0,120
1,note_on,83,0,0
1,note_on,83,43,120
1,note_on,86,50,0
1,note_on,86,0,180
1,note_on,83,0,0
1,note_on,87,42,0
1,note_on,91,50,0
1,note_on,91,0,45
1,note_on,87,0,0
1,note_on,87,53,15
1,note_on,91,62,0
1,note_on,91,0,240
1,note_on,87,0,0
1,note_on,84,46,0
1,note_on,87,55,0
1,note_on,87,0,120
1,note_on,84,0,0
1,note_on,81,43,120
1,note_on,84,50,0
1,note_on,84,0,180
1,note_on,81,0,0
1,note_on,84,42,0
1,note_on,87,50,0
1,note_on,87,0,45
1,note_on,84,0,0
1,note_on,84,53,15
1,note_on,87,62,0
1,note_on,75,39,120
1,note_on,87,0,120
1,note_on,84,0,0
1,note_on,81,46,0
1,note_on,84,55,0
1,note_on,84,0,120
1,note_on,81,0,0
1,note_on,75,0,0
1,note_on,81,43,120
1,note_on,84,50,0
1,note_on,84,0,180
1,note_on,81,0,0
1,note_on,85,42,0
1,note_on,89,50,0
1,note_on,89,0,45
1,note_on,85,0,0
1,note_on,86,53,15
1,note_on,89,62,0
1,note_on,77,39,120
1,note_on,89,0,120
1,note_on,86,0,0
1,note_on,82,46,0
1,note_on,86,55,0
1,note_on,86,0,120
1,note_on,82,0,0
1,note_on,77,0,0
1,note_on,69,38,120
1,note_on,72,45,0
1,note_on,72,0,180
1,note_on,69,0,0
1,note_on,72,37,0
1,note_on,75,45,0
1,note_on,75,0,45
1,note_on,72,0,0
1,note_on,72,47,15
1,note_on,75,55,0
1,note_on,75,0,480
1,note_on,72,0,0
1,note_on,70,40,0
1,note_on,74,48,0
1,note_on,74,0,240
1,note_on,70,0,0
1,note_on,69,39,0
1,note_on,72,46,0
1,note_on,72,0,240
1,note_on,69,0,0
1,note_on,67,38,0
1,note_on,70,45,0
1,note_on,70,0,240
1,note_on,67,0,0
1,note_on,65,36,0
1,note_on,69,43,0
1,note_on,69,0,480
1,note_on,65,0,0
1,note_on,64,33,0
1,note_on,67,39,0
1,note_on,67,0,240
1,note_on,64,0,0
1,note_on,63,32,0
1,note_on,67,32,0
1,note_on,72,38,0
1,note_on,72,0,480
1,note_on,63,0,0
1,note_on,62,32,0
1,note_on,71,38,0
1,note_on,71,0,240
1,note_on,62,0,0
1,note_on,67,0,0
1,note_on,71,40,720
1,note_on,71,0,180
1,note_on,74,40,0
1,note_on,74,0,54
1,note_on,74,49,6
1,note_on,74,0,240
1,note_on,71,44,0
1,note_on,71,0,120
1,note_on,50,33,120
1,note_on,59,40,0
1,note_on,59,0,180
1,note_on,62,40,0
1,note_on,62,0,54
1,note_on,62,49,6
1,note_on,50,0,120
1,note_on,50,33,0
1,note_on,62,0,120
1,note_on,59,44,0
1,note_on,59,0,120
1,note_on,50,0,0
1,note_on,84,46,120
1,note_on,84,0,180
1,note_on,87,46,0
1,note_on,87,0,54
1,note_on,87,56,6
1,note_on,87,0,240
1,note_on,84,50,0
1,note_on,84,0,120
1,note_on,74,43,120
1,note_on,83,50,0
1,note_on,83,0,180
1,note_on,74,0,0
1,note_on,77,42,0
1,note_on,86,50,0
1,note_on,86,0,45
1,note_on,77,0,0
1,note_on,77,53,15
1,note_on,86,62,0
1,note_on,86,0,240
1,note_on,77,0,0
1,note_on,74,47,0
1,note_on,83,56,0
1,note_on,83,0,120
1,note_on,74,0,0
1,note_on,74,51,120
1,note_on,83,59,0
1,note_on,83,0,180
1,note_on,74,0,0
1,note_on,79,50,0
1,note_on,87,60,0
1,note_on,87,0,45
1,note_on,79,0,0
1,note_on,79,63,15
1,note_on,87,75,0
1,note_on,87,0,240
1,note_on,79,0,0
1,note_on,75,56,0
1,note_on,84,68,0
1,note_on,84,0,120
1,note_on,75,0,0
1,note_on,81,63,120
1,note_on,84,77,0
1,note_on,84,0,180
1,note_on,81,0,0
1,note_on,84,69,0
1,note_on,93,80,0
1,note_on,93,0,54
1,note_on,84,0,0
1,note_on,84,85,6
1,note_on,93,101,0
1,note_on,93,0,240
1,note_on,84,0,0
1,note_on,81,77,0
1,note_on,89,93,0
1,note_on,89,0,60
1,note_on,81,0,0
1,note_on,82,99,180
1,note_on,94,117,0
1,note_on,94,0,60
1,note_on,82,0,0
1,note_on,82,99,180
1,note_on,94,117,0
1,note_on,94,0,120
1,note_on,82,0,0
1,note_on,59,28,360
1,note_on,71,35,0
1,note_on,71,0,60
1,note_on,59,0,0
1,note_on,59,28,180
1,note_on,71,35,0
1,note_on,71,0,120
1,note_on,59,0,0
1,note_on,82,99,360
1,note_on,94,117,0
1,note_on,94,0,60
1,note_on,82,0,0
1,note_on,82,99,180
1,note_on,94,117,0
1,note_on,94,0,120
1,note_on,82,0,0
1,note_on,59,25,360
1,note_on,71,31,0
1,note_on,71,0,60
1,note_on,59,0,0
1,note_on,59,25,180
1,note_on,71,30,0
1,note_on,71,0,120
1,note_on,59,0,0
1,note_on,58,23,360
1,note_on,70,28,0
1,note_on,70,0,60
1,note_on,58,0,0
1,note_on,58,22,180
1,note_on,70,27,0
1,note_on,70,0,120
1,note_on,58,0,0
1,note_on,62,31,360
1,note_on,62,0,180
1,note_on,66,28,0
1,note_on,66,0,57
1,note_on,66,33,3
1,note_on,66,0,240
1,note_on,62,28,0
1,note_on,62,0,120
1,note_on,59,22,120
1,note_on,71,28,0
1,note_on,71,0,60
1,note_on,59,0,0
1,note_on,59,22,180
1,note_on,71,27,0
1,note_on,71,0,120
1,note_on,59,0,0
1,note_on,59,22,360
1,note_on,71,28,0
1,note_on,71,0,60
1,note_on,59,0,0
1,note_on,59,22,180
1,note_on,71,27,0
1,note_on,71,0,120
1,note_on,59,0,0
1,note_on,59,39,360
1,note_on,71,46,0
1,note_on,71,0,119
1,note_on,59,0,0
1,note_on,59,39,121
1,note_on,71,47,0
1,note_on,71,0,238
1,note_on,59,0,0
1,note_on,59,43,2
1,note_on,71,51,0
1,note_on,71,0,238
1,note_on,59,0,0
1,note_on,59,45,2
1,note_on,71,55,0
1,note_on,71,0,238
1,note_on,59,0,0
1,note_on,59,50,2
1,note_on,71,59,0
1,note_on,71,0,238
1,note_on,59,0,0
1,note_on,59,55,2
1,note_on,71,65,0
1,note_on,71,0,238
1,note_on,59,0,0
1,note_on,71,60,2
1,note_on,83,72,0
1,note_on,83,0,238
1,note_on,71,0,0
1,note_on,71,66,2
1,note_on,83,79,0
1,note_on,83,0,238
1,note_on,71,0,0
1,note_on,71,73,2
1,note_on,83,87,0
1,note_on,83,0,238
1,note_on,71,0,0
1,note_on,71,96,2
1,note_on,83,81,0
1,note_on,83,0,238
1,note_on,71,0,0
1,note_on,83,81,2
1,note_on,95,97,0
1,note_on,95,0,238
1,note_on,83,0,0
1,note_on,83,82,2
1,note_on,95,97,0
1,note_on,95,0,238
1,note_on,83,0,0
1,note_on,83,83,2
1,note_on,95,98,0
1,note_on,95,0,238
1,note_on,83,0,0
1,note_on,95,105,2
1,note_on,83,88,0
1,note_on,83,0,238
1,note_on,95,0,0
1,note_on,95,99,2
1,note_on,83,83,0
1,note_on,83,0,238
1,note_on,95,0,0
1,note_on,95,100,2
1,note_on,83,84,0
1,note_on,83,0,240
1,note_on,95,0,0
1,note_on,82,92,0
1,note_on,94,109,0
1,note_on,94,0,120
1,note_on,82,0,0
1,note_on,82,92,120
1,note_on,94,109,0
1,note_on,94,0,120
1,note_on,82,0,0
1,note_on,62,40,360
1,note_on,62,0,180
1,note_on,65,40,0
1,note_on,65,0,54
1,note_on,65,49,6
1,note_on,60,46,120
1,note_on,65,0,120
1,note_on,53,33,0
1,note_on,62,44,0
1,note_on,62,0,120
1,note_on,53,0,0
1,note_on,60,0,0
1,note_on,74,40,110
1,note_on,74,0,180
1,note_on,77,40,0
1,note_on,77,0,54
1,note_on,77,49,6
1,note_on,72,33,120
1,note_on,77,0,120
1,note_on,65,33,0
1,note_on,74,44,0
1,note_on,74,0,120
1,note_on,65,0,0
1,note_on,72,0,0
1,note_on,86,34,127
1,note_on,86,0,180
1,note_on,89,34,0
1,note_on,89,0,54
1,note_on,89,41,6
1,note_on,84,35,120
1,note_on,89,0,120
1,note_on,77,28,0
1,note_on,86,37,0
1,note_on,86,0,120
1,note_on,77,0,0
1,note_on,84,0,0
2,note_on,62,40,480
2,note_on,58,34,0
2,note_on,58,0,180
2,note_on,62,0,0
2,note_on,53,34,0
2,note_on,60,40,0
2,note_on,60,0,54
2,note_on,53,0,0
2,note_on,60,50,6
2,note_on,57,42,0
2,note_on,57,0,240
2,note_on,60,0,0
2,note_on,62,44,0
2,note_on,58,37,0
2,note_on,58,0,120
2,note_on,62,0,0
2,note_on,58,40,120
2,note_on,55,34,0
2,note_on,55,0,180
2,note_on,58,0,0
2,note_on,50,34,0
2,note_on,57,40,0
2,note_on,57,0,54
2,note_on,50,0,0
2,note_on,57,50,6
2,note_on,54,42,0
2,note_on,54,0,240
2,note_on,57,0,0
2,note_on,58,44,0
2,note_on,55,37,0
2,note_on,55,0,120
2,note_on,58,0,0
2,note_on,55,42,120
2,note_on,51,35,0
2,note_on,51,0,180
2,note_on,55,0,0
2,note_on,46,36,0
2,note_on,53,42,0
2,note_on,53,0,54
2,note_on,46,0,0
2,note_on,53,54,6
2,note_on,50,45,0
2,note_on,50,0,240
2,note_on,53,0,0
2,note_on,55,48,0
2,note_on,51,41,0
2,note_on,51,0,120
2,note_on,55,0,0
2,note_on,55,45,120
2,note_on,51,38,0
2,note_on,51,0,180
2,note_on,55,0,0
2,note_on,48,39,0
2,note_on,53,46,0
2,note_on,53,0,54
2,note_on,48,0,0
2,note_on,53,58,6
2,note_on,48,49,0
2,note_on,48,0,240
2,note_on,50,44,0
2,note_on,50,0,120
2,note_on,53,0,0
2,note_on,53,41,120
2,note_on,50,49,0
2,note_on,50,0,180
2,note_on,45,42,0
2,note_on,45,0,54
2,note_on,53,0,6
2,note_on,53,64,0
2,note_on,45,53,0
2,note_on,45,0,240
2,note_on,44,48,0
2,note_on,44,0,120
2,note_on,53,0,0
2,note_on,44,45,120
2,note_on,53,53,0
2,note_on,53,0,180
2,note_on,44,0,0
2,note_on,43,46,0
2,note_on,51,46,0
2,note_on,51,0,54
2,note_on,43,0,0
2,note_on,51,71,6
2,note_on,43,59,0
2,note_on,43,0,240
2,note_on,51,0,0
2,note_on,49,56,0
2,note_on,41,49,0
2,note_on,41,0,60
2,note_on,49,0,0
2,note_on,40,58,180
2,note_on,48,62,0
2,note_on,48,0,60
2,note_on,40,0,0
2,note_on,41,58,180
2,note_on,53,62,0
2,note_on,53,0,120
2,note_on,41,0,0
2,note_on,74,40,360
2,note_on,70,34,0
2,note_on,70,0,180
2,note_on,74,0,0
2,note_on,65,34,0
2,note_on,72,40,0
2,note_on,72,0,54
2,note_on,65,0,0
2,note_on,72,50,6
2,note_on,69,42,0
2,note_on,69,0,240
2,note_on,72,0,0
2,note_on,74,44,0
2,note_on,70,37,0
2,note_on,70,0,120
2,note_on,74,0,0
2,note_on,70,40,120
2,note_on,67,34,0
2,note_on,67,0,180
2,note_on,70,0,0
2,note_on,62,34,0
2,note_on,69,40,0
2,note_on,69,0,54
2,note_on,62,0,0
2,note_on,69,50,6
2,note_on,66,42,0
2,note_on,66,0,240
2,note_on,69,0,0
2,note_on,70,44,0
2,note_on,67,37,0
2,note_on,67,0,120
2,note_on,70,0,0
2,note_on,67,42,120
2,note_on,63,35,0
2,note_on,63,0,180
2,note_on,67,0,0
2,note_on,58,36,0
2,note_on,65,42,0
2,note_on,65,0,54
2,note_on,58,0,0
2,note_on,65,54,6
2,note_on,62,45,0
2,note_on,62,0,240
2,note_on,65,0,0
2,note_on,67,48,0
2,note_on,63,41,0
2,note_on,63,0,120
2,note_on,67,0,0
2,note_on,67,45,120
2,note_on,63,38,0
2,note_on,63,0,180
2,note_on,67,0,0
2,note_on,60,39,0
2,note_on,65,46,0
2,note_on,65,0,54
2,note_on,60,0,0
2,note_on,65,58,6
2,note_on,60,49,0
2,note_on,60,0,240
2,note_on,62,44,0
2,note_on,62,0,120
2,note_on,65,0,0
2,note_on,74,49,120
2,note_on,74,0,180
2,note_on,72,42,0
2,note_on,69,42,0
2,note_on,69,0,54
2,note_on,72,0,0
2,note_on,72,64,6
2,note_on,69,53,0
2,note_on,69,0,240
2,note_on,72,0,0
2,note_on,70,52,0
2,note_on,68,48,0
2,note_on,68,0,120
2,note_on,70,0,0
2,note_on,67,45,120
2,note_on,70,53,0
2,note_on,67,0,180
2,note_on,66,46,0
2,note_on,66,0,54
2,note_on,70,0,6
2,note_on,70,71,0
2,note_on,66,59,0
2,note_on,66,0,240
2,note_on,70,0,0
2,note_on,72,56,0
2,note_on,65,49,0
2,note_on,65,0,60
2,note_on,72,0,0
2,note_on,48,58,180
2,note_on,60,62,0
2,note_on,60,0,60
2,note_on,48,0,0
2,note_on,53,58,180
2,note_on,65,62,0
2,note_on,65,0,120
2,note_on,53,0,0
2,note_on,65,40,360
2,note_on,53,34,0
2,note_on,53,0,720
2,note_on,65,0,0
2,note_on,53,40,0
2,note_on,41,34,0
2,note_on,41,0,720
2,note_on,53,0,0
2,note_on,53,40,0
2,note_on,41,34,0
2,note_on,41,0,720
2,note_on,53,0,0
2,note_on,41,36,0
2,note_on,29,30,0
2,note_on,29,0,720
2,note_on,41,0,0
2,note_on,42,36,0
2,note_on,30,30,0
2,note_on,30,0,480
2,note_on,42,0,0
2,note_on,31,28,0
2,note_on,43,34,0
2,note_on,43,0,480
2,note_on,31,0,0
2,note_on,33,28,0
2,note_on,45,34,0
2,note_on,45,0,240
2,note_on,33,0,0
2,note_on,34,28,0
2,note_on,46,33,0
2,note_on,46,0,240
2,note_on,34,0,0
2,note_on,35,28,0
2,note_on,47,33,0
2,note_on,47,0,240
2,note_on,35,0,0
2,note_on,36,28,0
2,note_on,48,33,0
2,note_on,48,0,480
2,note_on,36,0,0
2,note_on,36,32,0
2,note_on,36,0,240
2,note_on,43,32,0
2,note_on,43,0,480
2,note_on,43,32,1440
2,note_on,55,27,0
2,note_on,43,0,180
2,note_on,47,32,0
2,note_on,47,0,54
2,note_on,47,40,6
2,note_on,47,0,240
2,note_on,43,35,0
2,note_on,43,0,120
2,note_on,55,0,0
2,note_on,72,36,120
2,note_on,72,0,180
2,note_on,75,36,0
2,note_on,75,0,54
2,note_on,75,46,6
2,note_on,75,0,240
2,note_on,72,40,0
2,note_on,72,0,120
2,note_on,55,40,120
2,note_on,43,34,0
2,note_on,43,0,720
2,note_on,55,0,0
2,note_on,48,48,0
2,note_on,36,40,0
2,note_on,36,0,720
2,note_on,48,0,0
2,note_on,29,57,0
2,note_on,41,71,0
2,note_on,41,0,480
2,note_on,29,0,0
2,note_on,41,57,0
2,note_on,53,60,0
2,note_on,53,0,60
2,note_on,41,0,0
2,note_on,34,63,180
2,note_on,46,68,0
2,note_on,46,0,60
2,note_on,34,0,0
2,note_on,34,63,180
2,note_on,46,68,0
2,note_on,46,0,120
2,note_on,34,0,0
2,note_on,77,40,360
2,note_on,65,34,0
2,note_on,65,0,720
2,note_on,77,0,0
2,note_on,65,40,0
2,note_on,53,34,0
2,note_on,53,0,720
2,note_on,65,0,0
2,note_on,65,40,0
2,note_on,53,34,0
2,note_on,53,0,720
2,note_on,65,0,0
2,note_on,53,36,0
2,note_on,41,30,0
2,note_on,41,0,720
2,note_on,53,0,0
2,note_on,54,36,0
2,note_on,42,30,0
2,note_on,42,0,480
2,note_on,54,0,0
2,note_on,54,28,0
2,note_on,60,28,0
2,note_on,63,34,0
2,note_on,63,0,240
2,note_on,60,0,0
2,note_on,54,0,0
2,note_on,55,28,0
2,note_on,58,28,0
2,note_on,62,34,0
2,note_on,62,0,240
2,note_on,58,0,0
2,note_on,55,0,0
2,note_on,57,28,0
2,note_on,60,34,0
2,note_on,60,0,240
2,note_on,57,0,0
2,note_on,46,28,0
2,note_on,55,28,0
2,note_on,58,33,0
2,note_on,58,0,240
2,note_on,55,0,0
2,note_on,46,0,0
2,note_on,53,28,0
2,note_on,47,28,0
2,note_on,57,33,0
2,note_on,47,0,240
2,note_on,48,28,0
2,note_on,57,0,240
2,note_on,53,0,0
2,note_on,52,27,0
2,note_on,55,33,0
2,note_on,55,0,240
2,note_on,52,0,0
2,note_on,48,0,0
2,note_on,51,27,0
2,note_on,55,33,0
2,note_on,60,32,0
2,note_on,55,0,240
2,note_on,51,0,0
2,note_on,55,32,0
2,note_on,60,0,240
2,note_on,59,30,0
2,note_on,59,0,240
2,note_on,55,0,0
2,note_on,55,32,1440
2,note_on,67,27,0
2,note_on,55,0,180
2,note_on,59,32,0
2,note_on,59,0,54
2,note_on,59,40,6
2,note_on,59,0,240
2,note_on,55,35,0
2,note_on,55,0,120
2,note_on,67,0,0
2,note_on,60,36,120
2,note_on,60,0,180
2,note_on,63,36,0
2,note_on,63,0,54
2,note_on,63,46,6
2,note_on,63,0,240
2,note_on,60,40,0
2,note_on,60,0,120
2,note_on,67,40,120
2,note_on,55,34,0
2,note_on,55,0,720
2,note_on,67,0,0
2,note_on,60,49,0
2,note_on,48,41,0
2,note_on,48,0,720
2,note_on,60,0,0
2,note_on,41,59,0
2,note_on,53,74,0
2,note_on,53,0,720
2,note_on,41,0,0
2,note_on,34,69,0
2,note_on,46,74,0
2,note_on,46,0,60
2,note_on,34,0,0
2,note_on,34,69,180
2,note_on,46,74,0
2,note_on,46,0,120
2,note_on,34,0,0
2,note_on,34,31,360
2,note_on,46,37,0
2,note_on,46,0,120
2,note_on,34,0,0
2,note_on,34,31,120
2,note_on,46,37,0
2,note_on,46,0,120
2,note_on,34,0,0
2,note_on,34,37,360
2,note_on,34,0,80
2,note_on,41,30,0
2,note_on,41,0,80
2,note_on,49,30,0
2,note_on,49,0,80
2,note_on,34,37,0
2,note_on,34,0,80
2,note_on,41,31,0
2,note_on,41,0,80
2,note_on,49,31,0
2,note_on,49,0,80
2,note_on,34,37,0
2,note_on,34,0,80
2,note_on,41,31,0
2,note_on,41,0,80
2,note_on,49,30,0
2,note_on,49,0,80
2,note_on,34,37,0
2,note_on,34,0,80
2,note_on,41,31,0
2,note_on,41,0,80
2,note_on,49,31,0
2,note_on,49,0,80
2,note_on,34,37,0
2,note_on,34,0,80
2,note_on,41,31,0
2,note_on,41,0,80
2,note_on,49,31,0
2,note_on,49,0,80
2,note_on,34,38,0
2,note_on,34,0,80
2,note_on,41,32,0
2,note_on,41,0,80
2,note_on,49,31,0
2,note_on,49,0,80
2,note_on,34,39,0
2,note_on,34,0,80
2,note_on,41,33,0
2,note_on,41,0,80
2,note_on,49,34,0
2,note_on,49,0,80
2,note_on,34,41,0
2,note_on,34,0,80
2,note_on,41,35,0
2,note_on,41,0,80
2,note_on,49,35,0
2,note_on,49,0,80
2,note_on,34,42,0
2,note_on,34,0,80
2,note_on,41,36,0
2,note_on,41,0,80
2,note_on,49,35,0
2,note_on,49,0,80
2,note_on,34,44,0
2,note_on,34,0,80
2,note_on,41,37,0
2,note_on,41,0,80
2,note_on,49,38,0
2,note_on,49,0,80
2,note_on,34,49,0
2,note_on,34,0,80
2,note_on,41,42,0
2,note_on,41,0,80
2,note_on,49,42,0
2,note_on,49,0,80
2,note_on,34,54,0
2,note_on,34,0,80
2,note_on,41,49,0
2,note_on,41,0,80
2,note_on,49,49,0
2,note_on,49,0,80
2,note_on,34,61,0
2,note_on,34,0,80
2,note_on,41,56,0
2,note_on,41,0,80
2,note_on,49,58,0
2,note_on,49,0,80
2,note_on,34,69,0
2,note_on,34,0,80
2,note_on,41,57,0
2,note_on,41,0,80
2,note_on,49,52,0
2,note_on,49,0,80
2,note_on,34,61,0
2,note_on,34,0,80
2,note_on,41,51,0
2,note_on,41,0,80
2,note_on,49,51,0
2,note_on,49,0,80
2,note_on,32,60,0
2,note_on,32,0,80
2,note_on,41,50,0
2,note_on,41,0,80
2,note_on,49,46,0
2,note_on,49,0,80
2,note_on,32,44,0
2,note_on,32,0,80
2,note_on,41,36,0
2,note_on,41,0,80
2,note_on,49,35,0
2,note_on,49,0,80
2,note_on,32,41,0
2,note_on,32,0,80
2,note_on,41,34,0
2,note_on,41,0,80
2,note_on,49,32,0
2,note_on,49,0,80
2,note_on,37,39,0
2,note_on,37,0,80
2,note_on,41,32,0
2,note_on,41,0,80
2,note_on,49,31,0
2,note_on,49,0,80
2,note_on,37,37,0
2,note_on,37,0,80
2,note_on,41,26,0
2,note_on,41,0,80
2,note_on,49,26,0
2,note_on,49,0,80
2,note_on,37,30,0
2,note_on,37,0,80
2,note_on,41,25,0
2,note_on,41,0,80
2,note_on,49,25,0
2,note_on,49,0,80
2,note_on,37,40,0
2,note_on,49,48,0
2,note_on,49,0,480
2,note_on,37,0,0
2,note_on,53,50,0
2,note_on,41,50,0
2,note_on,41,0,240
2,note_on,53,0,0
2,note_on,37,44,0
2,note_on,49,52,0
2,note_on,49,0,480
2,note_on,37,0,0
2,note_on,34,44,0
2,note_on,46,52,0
2,note_on,46,0,240
2,note_on,34,0,0
2,note_on,29,40,0
2,note_on,41,49,0
2,note_on,41,0,240
2,note_on,29,0,0
2,note_on,34,46,0
2,note_on,46,53,0
2,note_on,46,0,480
2,note_on,34,0,0
2,note_on,49,61,0
2,note_on,37,51,0
2,note_on,37,0,240
2,note_on,49,0,0
2,note_on,41,51,0
2,note_on,53,61,0
2,note_on,53,0,480
2,note_on,41,0,0
2,note_on,49,70,0
2,note_on,37,59,0
2,note_on,37,0,240
2,note_on,49,0,0
2,note_on,46,79,0
2,note_on,34,67,0
2,note_on,34,0,480
2,note_on,46,0,0
2,note_on,41,73,0
2,note_on,29,61,0
2,note_on,29,0,240
2,note_on,41,0,0
2,note_on,34,64,0
2,note_on,46,77,0
2,note_on,46,0,480
2,note_on,34,0,0
2,note_on,49,69,0
2,note_on,37,58,0
2,note_on,37,0,240
2,note_on,49,0,0
2,note_on,41,54,0
2,note_on,53,64,0
2,note_on,53,0,480
2,note_on,41,0,0
2,note_on,56,45,0
2,note_on,44,37,0
2,note_on,44,0,240
2,note_on,56,0,0
2,note_on,49,43,0
2,note_on,37,36,0
2,note_on,37,0,240
2,note_on,49,0,0
2,note_on,37,37,240
2,note_on,49,37,0
2,note_on,49,0,120
2,note_on,37,0,0
2,note_on,37,34,120
2,note_on,49,34,0
2,note_on,49,0,120
2,note_on,37,0,0
2,note_on,37,37,120
2,note_on,37,0,80
2,note_on,41,31,0
2,note_on,41,0,80
2,note_on,49,30,0
2,note_on,49,0,80
2,note_on,37,37,0
2,note_on,37,0,80
2,note_on,41,30,0
2,note_on,41,0,80
2,note_on,49,30,0
2,note_on,49,0,80
2,note_on,37,37,0
2,note_on,37,0,80
2,note_on,41,31,0
2,note_on,41,0,80
2,note_on,49,31,0
2,note_on,49,0,80
2,note_on,37,37,0
2,note_on,37,0,80
2,note_on,41,31,0
2,note_on,41,0,80
2,note_on,49,30,0
2,note_on,49,0,80
2,note_on,37,37,0
2,note_on,37,0,80
2,note_on,41,30,0
2,note_on,41,0,80
2,note_on,49,30,0
2,note_on,49,0,80
2,note_on,37,37,0
2,note_on,37,0,80
2,note_on,41,31,0
2,note_on,41,0,80
2,note_on,49,31,0
2,note_on,49,0,80
2,note_on,37,37,0
2,note_on,37,0,80
2,note_on,41,31,0
2,note_on,41,0,80
2,note_on,49,30,0
2,note_on,49,0,80
2,note_on,37,37,0
2,note_on,37,0,80
2,note_on,41,31,0
2,note_on,41,0,80
2,note_on,49,31,0
2,note_on,49,0,80
2,note_on,37,37,0
2,note_on,37,0,80
2,note_on,41,31,0
2,note_on,41,0,80
2,note_on,49,31,0
2,note_on,49,0,80
2,note_on,37,38,0
2,note_on,37,0,80
2,note_on,41,32,0
2,note_on,41,0,80
2,note_on,49,31,0
2,note_on,49,0,80
2,note_on,32,39,0
2,note_on,32,0,80
2,note_on,41,33,0
2,note_on,41,0,80
2,note_on,49,34,0
2,note_on,49,0,80
2,note_on,32,41,0
2,note_on,32,0,80
2,note_on,41,35,0
2,note_on,41,0,80
2,note_on,49,35,0
2,note_on,49,0,80
2,note_on,32,42,0
2,note_on,32,0,80
2,note_on,41,36,0
2,note_on,41,0,80
2,note_on,49,35,0
2,note_on,49,0,80
2,note_on,32,46,0
2,note_on,32,0,80
2,note_on,41,37,0
2,note_on,41,0,80
2,note_on,49,40,0
2,note_on,49,0,80
2,note_on,34,51,0
2,note_on,34,0,80
2,note_on,41,43,0
2,note_on,41,0,80
2,note_on,49,43,0
2,note_on,49,0,80
2,note_on,34,55,0
2,note_on,34,0,80
2,note_on,41,48,0
2,note_on,41,0,80
2,note_on,49,51,0
2,note_on,49,0,80
2,note_on,34,61,0
2,note_on,34,0,80
2,note_on,41,53,0
2,note_on,41,0,80
2,note_on,49,55,0
2,note_on,49,0,80
2,note_on,34,66,0
2,note_on,34,0,80
2,note_on,41,57,0
2,note_on,41,0,80
2,note_on,49,52,0
2,note_on,49,0,80
2,note_on,34,55,0
2,note_on,34,0,80
2,note_on,41,45,0
2,note_on,41,0,80
2,note_on,49,42,0
2,note_on,49,0,80
2,note_on,34,50,0
2,note_on,34,0,80
2,note_on,41,45,0
2,note_on,41,0,80
2,note_on,49,44,0
2,note_on,49,0,80
2,note_on,29,44,0
2,note_on,29,0,80
2,note_on,41,36,0
2,note_on,41,0,80
2,note_on,49,35,0
2,note_on,49,0,80
2,note_on,29,41,0
2,note_on,29,0,80
2,note_on,41,27,0
2,note_on,41,0,80
2,note_on,49,27,0
2,note_on,49,0,80
2,note_on,29,33,0
2,note_on,29,0,80
2,note_on,41,32,0
2,note_on,41,0,80
2,note_on,49,28,0
2,note_on,49,0,80
2,note_on,34,37,0
2,note_on,34,0,80
2,note_on,41,26,0
2,note_on,41,0,80
2,note_on,49,26,0
2,note_on,49,0,80
2,note_on,34,30,0
2,note_on,34,0,240
2,note_on,41,39,0
2,note_on,53,46,0
2,note_on,53,0,480
2,note_on,41,0,0
2,note_on,56,48,0
2,note_on,44,48,0
2,note_on,44,0,240
2,note_on,56,0,0
2,note_on,41,42,0
2,note_on,53,50,0
2,note_on,53,0,480
2,note_on,41,0,0
2,note_on,37,42,0
2,note_on,49,50,0
2,note_on,49,0,240
2,note_on,37,0,0
2,note_on,32,39,0
2,note_on,44,47,0
2,note_on,44,0,240
2,note_on,32,0,0
2,note_on,37,44,0
2,note_on,49,51,0
2,note_on,49,0,480
2,note_on,37,0,0
2,note_on,53,59,0
2,note_on,41,49,0
2,note_on,41,0,240
2,note_on,53,0,0
2,note_on,44,51,0
2,note_on,56,61,0
2,note_on,56,0,480
2,note_on,44,0,0
2,note_on,53,70,0
2,note_on,41,59,0
2,note_on,41,0,240
2,note_on,53,0,0
2,note_on,49,79,0
2,note_on,37,67,0
2,note_on,37,0,480
2,note_on,49,0,0
2,note_on,34,61,0
2,note_on,46,73,0
2,note_on,46,0,240
2,note_on,34,0,0
2,note_on,29,64,0
2,note_on,41,77,0
2,note_on,41,0,480
2,note_on,29,0,0
2,note_on,34,58,0
2,note_on,46,69,0
2,note_on,46,0,240
2,note_on,34,0,0
2,note_on,37,54,0
2,note_on,49,64,0
2,note_on,49,0,480
2,note_on,37,0,0
2,note_on,41,37,0
2,note_on,53,45,0
2,note_on,53,0,240
2,note_on,41,0,0
2,note_on,34,36,0
2,note_on,46,43,0
2,note_on,46,0,240
2,note_on,34,0,0
2,note_on,61,29,480
2,note_on,61,0,80
2,note_on,58,20,0
2,note_on,58,0,80
2,note_on,53,20,0
2,note_on,53,0,80
2,note_on,61,24,0
2,note_on,61,0,80
2,note_on,58,20,0
2,note_on,58,0,80
2,note_on,53,20,0
2,note_on,53,0,80
2,note_on,65,24,0
2,note_on,65,0,80
2,note_on,61,20,0
2,note_on,61,0,80
2,note_on,53,20,0
2,note_on,53,0,80
2,note_on,58,42,0
2,note_on,58,0,60
2,note_on,61,37,180
2,note_on,61,0,60
2,note_on,60,42,180
2,note_on,60,0,60
2,note_on,53,36,180
2,note_on,53,0,60
2,note_on,65,42,180
2,note_on,65,0,60
2,note_on,63,38,180
2,note_on,63,0,60
2,note_on,61,38,180
2,note_on,61,0,60
2,note_on,60,38,180
2,note_on,60,0,60
2,note_on,58,42,180
2,note_on,58,0,60
2,note_on,61,36,180
2,note_on,61,0,60
2,note_on,60,42,180
2,note_on,60,0,60
2,note_on,56,35,180
2,note_on,56,0,60
2,note_on,60,42,180
2,note_on,60,0,60
2,note_on,55,35,180
2,note_on,55,0,60
2,note_on,53,39,180
2,note_on,53,0,480
2,note_on,41,46,0
2,note_on,53,55,0
2,note_on,53,0,180
2,note_on,41,0,0
2,note_on,44,41,60
2,note_on,56,49,0
2,note_on,56,0,180
2,note_on,44,0,0
2,note_on,43,48,60
2,note_on,55,57,0
2,note_on,55,0,180
2,note_on,43,0,0
2,note_on,36,41,60
2,note_on,48,50,0
2,note_on,48,0,180
2,note_on,36,0,0
2,note_on,48,51,60
2,note_on,60,61,0
2,note_on,60,0,180
2,note_on,48,0,0
2,note_on,46,48,60
2,note_on,58,57,0
2,note_on,58,0,180
2,note_on,46,0,0
2,note_on,44,49,60
2,note_on,56,58,0
2,note_on,56,0,180
2,note_on,44,0,0
2,note_on,43,50,60
2,note_on,55,60,0
2,note_on,55,0,180
2,note_on,43,0,0
2,note_on,41,57,60
2,note_on,53,69,0
2,note_on,53,0,180
2,note_on,41,0,0
2,note_on,44,50,60
2,note_on,56,60,0
2,note_on,56,0,180
2,note_on,44,0,0
2,note_on,43,60,60
2,note_on,55,73,0
2,note_on,55,0,180
2,note_on,43,0,0
2,note_on,48,50,60
2,note_on,60,61,0
2,note_on,60,0,180
2,note_on,48,0,0
2,note_on,45,63,60
2,note_on,57,75,0
2,note_on,57,0,180
2,note_on,45,0,0
2,note_on,41,54,60
2,note_on,53,65,0
2,note_on,53,0,180
2,note_on,41,0,0
2,note_on,46,66,60
2,note_on,58,79,0
2,note_on,58,0,180
2,note_on,46,0,0
2,note_on,48,56,60
2,note_on,60,68,0
2,note_on,60,0,180
2,note_on,48,0,0
2,note_on,49,78,60
2,note_on,49,0,120
2,note_on,61,69,0
2,note_on,61,0,120
2,note_on,46,78,0
2,note_on,46,0,120
2,note_on,58,68,0
2,note_on,58,0,120
2,note_on,41,78,0
2,note_on,41,0,120
2,note_on,53,67,0
2,note_on,53,0,120
2,note_on,39,78,0
2,note_on,39,0,120
2,note_on,51,66,0
2,note_on,51,0,120
2,note_on,37,78,0
2,note_on,37,0,120
2,note_on,49,67,0
2,note_on,49,0,120
2,note_on,36,78,0
2,note_on,36,0,120
2,note_on,48,67,0
2,note_on,48,0,120
2,note_on,34,73,0
2,note_on,34,0,120
2,note_on,46,62,0
2,note_on,46,0,120
2,note_on,33,73,0
2,note_on,33,0,120
2,note_on,45,61,0
2,note_on,45,0,120
2,note_on,34,75,0
2,note_on,34,0,120
2,note_on,46,63,0
2,note_on,46,0,120
2,note_on,34,73,0
2,note_on,34,0,120
2,note_on,46,65,0
2,note_on,46,0,120
2,note_on,33,74,0
2,note_on,33,0,120
2,note_on,45,62,0
2,note_on,45,0,120
2,note_on,39,73,0
2,note_on,39,0,120
2,note_on,51,60,0
2,note_on,51,0,120
2,note_on,37,71,0
2,note_on,37,0,120
2,note_on,49,61,0
2,note_on,49,0,120
2,note_on,34,70,0
2,note_on,34,0,120
2,note_on,46,63,0
2,note_on,46,0,120
2,note_on,41,75,0
2,note_on,53,75,0
2,note_on,53,0,480
2,note_on,41,0,0
2,note_on,61,71,0
2,note_on,61,0,120
2,note_on,73,61,0
2,note_on,73,0,120
2,note_on,58,70,0
2,note_on,58,0,120
2,note_on,70,63,0
2,note_on,70,0,120
2,note_on,77,80,240
2,note_on,77,0,240
2,note_on,65,80,240
2,note_on,65,0,240
2,note_on,53,80,240
2,note_on,53,0,240
2,note_on,41,80,240
2,note_on,41,0,240
2,note_on,29,89,240
2,note_on,29,0,960
2,note_on,29,65,0
2,note_on,29,0,80
2,note_on,31,65,0
2,note_on,31,0,80
2,note_on,33,66,0
2,note_on,33,0,80
2,note_on,34,66,0
2,note_on,34,0,120
2,note_on,36,67,0
2,note_on,36,0,120
2,note_on,38,68,0
2,note_on,38,0,120
2,note_on,40,69,0
2,note_on,40,0,120
2,note_on,41,69,0
2,note_on,41,0,80
2,note_on,43,70,0
2,note_on,43,0,80
2,note_on,45,70,0
2,note_on,45,0,80
2,note_on,46,71,0
2,note_on,46,0,120
2,note_on,48,72,0
2,note_on,48,0,120
2,note_on,50,73,0
2,note_on,50,0,120
2,note_on,52,73,0
2,note_on,52,0,120
2,note_on,53,74,0
2,note_on,53,0,80
2,note_on,55,75,0
2,note_on,55,0,80
2,note_on,57,75,0
2,note_on,57,0,80
2,note_on,58,76,0
2,note_on,58,0,120
2,note_on,60,77,0
2,note_on,60,0,120
2,note_on,62,77,0
2,note_on,62,0,120
2,note_on,64,78,0
2,note_on,64,0,120
2,note_on,65,60,1440
2,note_on,65,0,80
2,note_on,67,61,0
2,note_on,67,0,80
2,note_on,69,62,0
2,note_on,69,0,80
2,note_on,70,63,0
2,note_on,70,0,120
2,note_on,72,64,0
2,note_on,72,0,120
2,note_on,74,65,0
2,note_on,74,0,120
2,note_on,76,67,0
2,note_on,76,0,120
2,note_on,77,68,0
2,note_on,77,0,120
2,note_on,53,66,120
2,note_on,53,0,60
2,note_on,63,58,0
2,note_on,63,0,60
2,note_on,53,66,0
2,note_on,53,0,60
2,note_on,63,58,0
2,note_on,63,0,60
2,note_on,53,66,0
2,note_on,53,0,60
2,note_on,63,58,0
2,note_on,63,0,60
2,note_on,53,66,0
2,note_on,53,0,60
2,note_on,63,58,0
2,note_on,63,0,60
2,note_on,53,66,0
2,note_on,53,0,60
2,note_on,63,57,0
2,note_on,63,0,60
2,note_on,53,65,0
2,note_on,53,0,60
2,note_on,63,58,0
2,note_on,63,0,60
2,note_on,62,40,720
2,note_on,58,34,0
2,note_on,58,0,180
2,note_on,62,0,0
2,note_on,53,34,0
2,note_on,60,40,0
2,note_on,60,0,54
2,note_on,53,0,0
2,note_on,60,50,6
2,note_on,57,42,0
2,note_on,57,0,240
2,note_on,60,0,0
2,note_on,62,44,0
2,note_on,58,37,0
2,note_on,58,0,120
2,note_on,62,0,0
2,note_on,58,40,120
2,note_on,55,34,0
2,note_on,55,0,180
2,note_on,58,0,0
2,note_on,50,34,0
2,note_on,57,40,0
2,note_on,57,0,54
2,note_on,50,0,0
2,note_on,57,50,6
2,note_on,54,42,0
2,note_on,54,0,240
2,note_on,57,0,0
2,note_on,58,44,0
2,note_on,55,37,0
2,note_on,55,0,120
2,note_on,58,0,0
2,note_on,55,42,120
2,note_on,51,35,0
2,note_on,51,0,180
2,note_on,55,0,0
2,note_on,46,36,0
2,note_on,53,42,0
2,note_on,53,0,54
2,note_on,46,0,0
2,note_on,53,54,6
2,note_on,50,45,0
2,note_on,50,0,240
2,note_on,53,0,0
2,note_on,55,48,0
2,note_on,51,41,0
2,note_on,51,0,120
2,note_on,55,0,0
2,note_on,55,45,120
2,note_on,51,38,0
2,note_on,51,0,180
2,note_on,55,0,0
2,note_on,48,39,0
2,note_on,53,46,0
2,note_on,53,0,54
2,note_on,48,0,0
2,note_on,53,58,6
2,note_on,48,49,0
2,note_on,48,0,240
2,note_on,50,44,0
2,note_on,50,0,120
2,note_on,53,0,0
2,note_on,53,41,120
2,note_on,50,49,0
2,note_on,50,0,180
2,note_on,45,42,0
2,note_on,45,0,54
2,note_on,53,0,6
2,note_on,53,64,0
2,note_on,45,53,0
2,note_on,45,0,240
2,note_on,44,48,0
2,note_on,44,0,120
2,note_on,53,0,0
2,note_on,44,45,120
2,note_on,53,53,0
2,note_on,53,0,180
2,note_on,44,0,0
2,note_on,43,46,0
2,note_on,51,46,0
2,note_on,51,0,54
2,note_on,43,0,0
2,note_on,51,71,6
2,note_on,43,59,0
2,note_on,43,0,240
2,note_on,51,0,0
2,note_on,49,56,0
2,note_on,41,49,0
2,note_on,41,0,60
2,note_on,49,0,0
2,note_on,40,58,180
2,note_on,48,62,0
2,note_on,48,0,60
2,note_on,40,0,0
2,note_on,41,58,180
2,note_on,53,62,0
2,note_on,53,0,120
2,note_on,41,0,0
2,note_on,74,40,360
2,note_on,70,34,0
2,note_on,70,0,180
2,note_on,74,0,0
2,note_on,65,34,0
2,note_on,72,40,0
2,note_on,72,0,54
2,note_on,65,0,0
2,note_on,72,50,6
2,note_on,69,42,0
2,note_on,69,0,240
2,note_on,72,0,0
2,note_on,74,44,0
2,note_on,70,37,0
2,note_on,70,0,120
2,note_on,74,0,0
2,note_on,70,40,120
2,note_on,67,34,0
2,note_on,67,0,180
2,note_on,70,0,0
2,note_on,62,34,0
2,note_on,69,40,0
2,note_on,69,0,54
2,note_on,62,0,0
2,note_on,69,50,6
2,note_on,66,42,0
2,note_on,66,0,240
2,note_on,69,0,0
2,note_on,70,44,0
2,note_on,67,37,0
2,note_on,67,0,120
2,note_on,70,0,0
2,note_on,67,42,120
2,note_on,63,35,0
2,note_on,63,0,180
2,note_on,67,0,0
2,note_on,58,36,0
2,note_on,65,42,0
2,note_on,65,0,54
2,note_on,58,0,0
2,note_on,65,54,6
2,note_on,62,45,0
2,note_on,62,0,240
2,note_on,65,0,0
2,note_on,67,48,0
2,note_on,63,41,0
2,note_on,63,0,120
2,note_on,67,0,0
2,note_on,67,45,120
2,note_on,63,38,0
2,note_on,63,0,180
2,note_on,67,0,0
2,note_on,60,39,0
2,note_on,65,46,0
2,note_on,65,0,54
2,note_on,60,0,0
2,note_on,65,58,6
2,note_on,60,49,0
2,note_on,60,0,240
2,note_on,62,44,0
2,note_on,62,0,120
2,note_on,65,0,0
2,note_on,74,49,120
2,note_on,74,0,180
2,note_on,72,42,0
2,note_on,69,42,0
2,note_on,69,0,54
2,note_on,72,0,0
2,note_on,72,64,6
2,note_on,69,53,0
2,note_on,69,0,240
2,note_on,72,0,0
2,note_on,70,52,0
2,note_on,68,48,0
2,note_on,68,0,120
2,note_on,70,0,0
2,note_on,67,45,120
2,note_on,70,53,0
2,note_on,67,0,180
2,note_on,66,46,0
2,note_on,66,0,54
2,note_on,70,0,6
2,note_on,70,71,0
2,note_on,66,59,0
2,note_on,66,0,240
2,note_on,70,0,0
2,note_on,72,56,0
2,note_on,65,49,0
2,note_on,65,0,60
2,note_on,72,0,0
2,note_on,48,58,180
2,note_on,60,62,0
2,note_on,60,0,60
2,note_on,48,0,0
2,note_on,53,58,180
2,note_on,65,62,0
2,note_on,65,0,120
2,note_on,53,0,0
2,note_on,65,40,360
2,note_on,53,34,0
2,note_on,53,0,360
2,note_on,65,0,0
2,note_on,53,34,0
2,note_on,53,0,120
2,note_on,65,39,0
2,note_on,65,0,120
2,note_on,53,40,120
2,note_on,41,34,0
2,note_on,41,0,360
2,note_on,53,0,0
2,note_on,41,34,0
2,note_on,41,0,120
2,note_on,53,39,0
2,note_on,53,0,120
2,note_on,53,40,120
2,note_on,41,34,0
2,note_on,41,0,360
2,note_on,53,0,0
2,note_on,41,34,0
2,note_on,41,0,120
2,note_on,53,39,0
2,note_on,53,0,120
2,note_on,41,36,120
2,note_on,29,30,0
2,note_on,29,0,360
2,note_on,41,0,0
2,note_on,29,34,0
2,note_on,29,0,120
2,note_on,41,39,0
2,note_on,41,0,120
2,note_on,42,36,120
2,note_on,30,30,0
2,note_on,30,0,480
2,note_on,42,0,0
2,note_on,31,28,0
2,note_on,43,34,0
2,note_on,43,0,720
2,note_on,31,0,0
2,note_on,33,28,0
2,note_on,45,33,0
2,note_on,45,0,240
2,note_on,33,0,0
2,note_on,34,28,0
2,note_on,46,33,0
2,note_on,46,0,240
2,note_on,34,0,0
2,note_on,35,28,0
2,note_on,47,33,0
2,note_on,47,0,240
2,note_on,35,0,0
2,note_on,36,28,0
2,note_on,48,33,0
2,note_on,48,0,240
2,note_on,36,0,0
2,note_on,36,32,0
2,note_on,36,0,240
2,note_on,43,32,0
2,note_on,43,0,480
2,note_on,43,32,1440
2,note_on,55,27,0
2,note_on,43,0,180
2,note_on,47,32,0
2,note_on,47,0,54
2,note_on,47,40,6
2,note_on,47,0,240
2,note_on,43,35,0
2,note_on,43,0,120
2,note_on,55,0,120
2,note_on,72,36,0
2,note_on,72,0,180
2,note_on,75,36,0
2,note_on,75,0,54
2,note_on,75,46,6
2,note_on,75,0,240
2,note_on,72,40,0
2,note_on,72,0,120
2,note_on,55,40,120
2,note_on,43,34,0
2,note_on,43,0,358
2,note_on,55,0,0
2,note_on,43,34,2
2,note_on,43,0,120
2,note_on,55,39,0
2,note_on,55,0,120
2,note_on,48,46,120
2,note_on,36,39,0
2,note_on,36,0,360
2,note_on,48,0,0
2,note_on,36,54,0
2,note_on,36,0,120
2,note_on,48,64,0
2,note_on,48,0,120
2,note_on,29,55,120
2,note_on,41,69,0
2,note_on,41,0,358
2,note_on,29,0,0
2,note_on,41,75,2
2,note_on,41,0,120
2,note_on,53,86,0
2,note_on,53,0,60
2,note_on,34,66,180
2,note_on,46,71,0
2,note_on,46,0,60
2,note_on,34,0,0
2,note_on,34,66,180
2,note_on,46,71,0
2,note_on,46,0,120
2,note_on,34,0,0
2,note_on,77,40,360
2,note_on,65,34,0
2,note_on,65,0,358
2,note_on,77,0,0
2,note_on,65,34,2
2,note_on,65,0,120
2,note_on,77,39,0
2,note_on,77,0,120
2,note_on,53,34,120
2,note_on,65,40,0
2,note_on,65,0,358
2,note_on,53,0,0
2,note_on,53,34,2
2,note_on,53,0,120
2,note_on,65,39,0
2,note_on,65,0,120
2,note_on,65,40,120
2,note_on,53,34,0
2,note_on,53,0,358
2,note_on,65,0,0
2,note_on,53,34,2
2,note_on,53,0,120
2,note_on,65,39,0
2,note_on,65,0,120
2,note_on,41,30,120
2,note_on,53,36,0
2,note_on,53,0,358
2,note_on,41,0,0
2,note_on,41,34,2
2,note_on,41,0,120
2,note_on,53,39,0
2,note_on,53,0,120
2,note_on,60,30,120
2,note_on,63,36,0
2,note_on,54,30,0
2,note_on,54,0,475
2,note_on,63,0,0
2,note_on,60,0,0
2,note_on,54,28,5
2,note_on,60,28,0
2,note_on,63,34,0
2,note_on,63,0,240
2,note_on,60,0,0
2,note_on,54,0,0
2,note_on,62,34,0
2,note_on,55,28,0
2,note_on,58,28,0
2,note_on,58,0,240
2,note_on,55,0,0
2,note_on,62,0,0
2,note_on,57,28,0
2,note_on,60,34,0
2,note_on,60,0,120
2,note_on,57,0,0
2,note_on,45,28,0
2,note_on,45,0,120
2,note_on,58,33,0
2,note_on,55,28,0
2,note_on,46,28,0
2,note_on,46,0,240
2,note_on,55,0,0
2,note_on,58,0,0
2,note_on,53,28,0
2,note_on,47,28,0
2,note_on,57,33,0
2,note_on,47,0,240
2,note_on,48,28,0
2,note_on,57,0,240
2,note_on,53,0,0
2,note_on,55,33,0
2,note_on,52,27,0
2,note_on,52,0,240
2,note_on,55,0,0
2,note_on,48,0,0
2,note_on,51,27,0
2,note_on,55,33,0
2,note_on,60,32,0
2,note_on,55,0,240
2,note_on,51,0,0
2,note_on,55,32,0
2,note_on,60,0,240
2,note_on,59,30,0
2,note_on,59,0,240
2,note_on,55,0,0
2,note_on,31,32,1440
2,note_on,43,27,0
2,note_on,31,0,180
2,note_on,35,32,0
2,note_on,35,0,54
2,note_on,35,40,6
2,note_on,35,0,240
2,note_on,31,35,0
2,note_on,31,0,120
2,note_on,43,0,120
2,note_on,72,36,0
2,note_on,72,0,180
2,note_on,75,36,0
2,note_on,75,0,54
2,note_on,75,46,6
2,note_on,75,0,240
2,note_on,72,40,0
2,note_on,72,0,120
2,note_on,67,40,120
2,note_on,55,34,0
2,note_on,55,0,360
2,note_on,67,0,0
2,note_on,55,34,0
2,note_on,55,0,120
2,note_on,67,40,0
2,note_on,67,0,120
2,note_on,60,48,120
2,note_on,48,40,0
2,note_on,48,0,360
2,note_on,60,0,0
2,note_on,48,55,0
2,note_on,48,0,120
2,note_on,60,64,0
2,note_on,60,0,120
2,note_on,41,59,120
2,note_on,53,74,0
2,note_on,53,0,360
2,note_on,41,0,0
2,note_on,41,70,0
2,note_on,41,0,120
2,note_on,53,78,0
2,note_on,53,0,60
2,note_on,34,72,180
2,note_on,46,78,0
2,note_on,46,0,60
2,note_on,34,0,0
2,note_on,34,72,180
2,note_on,46,78,0
2,note_on,46,0,120
2,note_on,34,0,0
2,note_on,35,21,360
2,note_on,47,23,0
2,note_on,47,0,60
2,note_on,35,0,0
2,note_on,35,21,180
2,note_on,47,23,0
2,note_on,47,0,120
2,note_on,35,0,0
2,note_on,34,72,360
2,note_on,46,78,0
2,note_on,46,0,60
2,note_on,34,0,0
2,note_on,34,72,180
2,note_on,46,78,0
2,note_on,46,0,120
2,note_on,34,0,0
2,note_on,35,18,360
2,note_on,47,20,0
2,note_on,47,0,60
2,note_on,35,0,0
2,note_on,35,18,180
2,note_on,47,19,0
2,note_on,47,0,120
2,note_on,35,0,0
2,note_on,34,17,360
2,note_on,46,18,0
2,note_on,46,0,60
2,note_on,34,0,0
2,note_on,34,17,180
2,note_on,46,18,0
2,note_on,46,0,120
2,note_on,34,0,0
2,note_on,35,16,1080
2,note_on,47,18,0
2,note_on,47,0,60
2,note_on,35,0,0
2,note_on,35,16,180
2,note_on,47,17,0
2,note_on,47,0,120
2,note_on,35,0,0
2,note_on,35,16,360
2,note_on,47,18,0
2,note_on,47,0,60
2,note_on,35,0,0
2,note_on,35,16,180
2,note_on,47,17,0
2,note_on,47,0,120
2,note_on,35,0,0
2,note_on,35,25,360
2,note_on,47,30,0
2,note_on,47,0,119
2,note_on,35,0,0
2,note_on,35,34,121
2,note_on,47,41,0
2,note_on,47,0,238
2,note_on,35,0,0
2,note_on,35,38,2
2,note_on,47,45,0
2,note_on,47,0,238
2,note_on,35,0,0
2,note_on,35,42,2
2,note_on,47,51,0
2,note_on,47,0,238
2,note_on,35,0,0
2,note_on,35,46,2
2,note_on,47,55,0
2,note_on,47,0,238
2,note_on,35,0,0
2,note_on,35,52,2
2,note_on,47,61,0
2,note_on,47,0,238
2,note_on,35,0,0
2,note_on,35,55,2
2,note_on,47,66,0
2,note_on,47,0,238
2,note_on,35,0,0
2,note_on,35,60,2
2,note_on,47,72,0
2,note_on,47,0,238
2,note_on,35,0,0
2,note_on,35,65,2
2,note_on,47,77,0
2,note_on,47,0,238
2,note_on,35,0,0
2,note_on,35,70,2
2,note_on,47,83,0
2,note_on,47,0,238
2,note_on,35,0,0
2,note_on,35,67,2
2,note_on,47,80,0
2,note_on,47,0,238
2,note_on,35,0,0
2,note_on,35,70,2
2,note_on,47,83,0
2,note_on,47,0,238
2,note_on,35,0,0
2,note_on,35,71,2
2,note_on,47,84,0
2,note_on,47,0,238
2,note_on,35,0,0
2,note_on,35,72,2
2,note_on,47,86,0
2,note_on,47,0,238
2,note_on,35,0,0
2,note_on,35,70,2
2,note_on,47,82,0
2,note_on,47,0,238
2,note_on,35,0,0
2,note_on,35,70,2
2,note_on,47,83,0
2,note_on,47,0,240
2,note_on,35,0,0
2,note_on,34,84,0
2,note_on,46,99,0
2,note_on,46,0,120
2,note_on,34,0,0
2,note_on,34,84,120
2,note_on,46,99,0
2,note_on,46,0,120
2,note_on,34,0,0
2,note_on,58,32,360
2,note_on,58,0,180
2,note_on,53,32,0
2,note_on,53,0,54
2,note_on,57,40,6
2,note_on,57,0,240
2,note_on,58,35,0
2,note_on,58,0,120
2,note_on,70,32,110
2,note_on,70,0,180
2,note_on,65,32,0
2,note_on,65,0,54
2,note_on,69,40,6
2,note_on,69,0,240
2,note_on,70,35,0
2,note_on,70,0,120
2,note_on,82,27,127
2,note_on,82,0,180
2,note_on,77,27,0
2,note_on,77,0,54
2,note_on,81,34,6
2,note_on,81,0,240
2,note_on,82,29,0
2,note_on,82,0,120
