Track,Message Type,Note,Velocity,Time
1,note_on,67,40,0
1,note_on,63,34,0
1,note_on,63,0,480
1,note_on,67,0,0
1,note_on,65,39,0
1,note_on,58,33,0
1,note_on,58,0,480
1,note_on,65,0,0
1,note_on,55,33,0
1,note_on,63,39,0
1,note_on,63,0,720
1,note_on,55,0,0
1,note_on,63,44,0
1,note_on,63,0,180
1,note_on,68,37,0
1,note_on,68,0,60
1,note_on,67,44,0
1,note_on,67,0,240
1,note_on,67,46,0
1,note_on,67,0,180
1,note_on,73,44,0
1,note_on,73,0,60
1,note_on,72,50,0
1,note_on,72,0,240
1,note_on,72,55,0
1,note_on,72,0,60
1,note_on,74,48,0
1,note_on,74,0,20
1,note_on,72,48,0
1,note_on,72,0,20
1,note_on,71,48,0
1,note_on,71,0,20
1,note_on,72,55,0
1,note_on,72,0,60
1,note_on,74,48,0
1,note_on,74,0,60
1,note_on,75,58,0
1,note_on,63,44,0
1,note_on,63,0,240
1,note_on,66,39,0
1,note_on,63,33,0
1,note_on,75,0,120
1,note_on,72,44,0
1,note_on,72,0,120
1,note_on,63,0,0
1,note_on,66,0,0
1,note_on,71,46,0
1,note_on,62,32,0
1,note_on,67,37,0
1,note_on,67,0,240
1,note_on,62,0,0
1,note_on,71,0,0
1,note_on,79,62,0
1,note_on,79,0,120
1,note_on,87,58,0
1,note_on,87,0,120
1,note_on,87,63,0
1,note_on,75,48,0
1,note_on,75,0,240
1,note_on,78,48,0
1,note_on,75,40,0
1,note_on,87,0,120
1,note_on,84,53,0
1,note_on,84,0,120
1,note_on,75,0,0
1,note_on,78,0,0
1,note_on,74,40,0
1,note_on,79,40,0
1,note_on,83,50,0
1,note_on,83,0,238
1,note_on,79,0,0
1,note_on,74,0,0
1,note_on,82,60,2
1,note_on,74,46,0
1,note_on,79,46,0
1,note_on,79,0,240
1,note_on,74,0,0
1,note_on,82,0,0
1,note_on,82,68,0
1,note_on,74,55,0
1,note_on,74,0,240
1,note_on,75,55,0
1,note_on,75,0,240
1,note_on,77,46,0
1,note_on,77,0,80
1,note_on,82,0,0
1,note_on,70,51,0
1,note_on,70,0,80
1,note_on,72,46,0
1,note_on,72,0,80
1,note_on,69,55,0
1,note_on,69,0,80
1,note_on,70,46,0
1,note_on,70,0,80
1,note_on,68,46,0
1,note_on,68,0,40
1,note_on,58,34,40
1,note_on,64,40,0
1,note_on,67,40,0
1,note_on,61,34,0
1,note_on,61,0,480
1,note_on,58,0,0
1,note_on,64,0,0
1,note_on,67,0,0
1,note_on,62,33,0
1,note_on,65,39,0
1,note_on,56,33,0
1,note_on,56,0,480
1,note_on,65,0,0
1,note_on,62,0,0
1,note_on,54,33,0
1,note_on,63,39,0
1,note_on,63,0,720
1,note_on,54,0,0
1,note_on,66,44,0
1,note_on,63,34,0
1,note_on,66,0,180
1,note_on,71,37,0
1,note_on,71,0,60
1,note_on,63,0,0
1,note_on,71,44,0
1,note_on,64,34,0
1,note_on,64,0,240
1,note_on,71,0,0
1,note_on,64,34,0
1,note_on,70,46,0
1,note_on,70,0,180
1,note_on,76,44,0
1,note_on,76,0,60
1,note_on,64,0,0
1,note_on,75,50,0
1,note_on,63,34,0
1,note_on,63,0,240
1,note_on,75,0,0
1,note_on,75,55,0
1,note_on,75,0,60
1,note_on,77,48,0
1,note_on,77,0,20
1,note_on,75,48,0
1,note_on,75,0,20
1,note_on,74,48,0
1,note_on,74,0,20
1,note_on,75,55,0
1,note_on,75,0,60
1,note_on,77,48,0
1,note_on,77,0,60
1,note_on,78,58,0
1,note_on,72,37,0
1,note_on,72,0,240
1,note_on,72,44,0
1,note_on,78,0,120
1,note_on,75,49,0
1,note_on,75,0,120
1,note_on,72,0,0
1,note_on,74,46,0
1,note_on,70,37,0
1,note_on,70,0,240
1,note_on,74,0,0
1,note_on,70,37,0
1,note_on,73,55,0
1,note_on,73,0,60
1,note_on,75,48,0
1,note_on,75,0,20
1,note_on,73,48,0
1,note_on,73,0,20
1,note_on,72,48,0
1,note_on,72,0,20
1,note_on,73,55,0
1,note_on,73,0,60
1,note_on,75,48,0
1,note_on,75,0,60
1,note_on,76,58,0
1,note_on,70,0,240
1,note_on,70,44,0
1,note_on,76,0,120
1,note_on,75,49,0
1,note_on,75,0,60
1,note_on,73,44,0
1,note_on,73,0,60
1,note_on,70,0,0
1,note_on,71,46,0
1,note_on,68,37,0
1,note_on,68,0,240
1,note_on,71,0,0
1,note_on,63,42,0
1,note_on,75,55,0
1,note_on,70,42,0
1,note_on,70,0,240
1,note_on,75,0,0
1,note_on,63,0,0
1,note_on,74,51,0
1,note_on,68,39,0
1,note_on,62,39,0
1,note_on,70,39,0
1,note_on,70,0,240
1,note_on,74,0,0
1,note_on,68,0,0
1,note_on,62,0,0
1,note_on,62,32,360
1,note_on,70,38,0
1,note_on,74,45,0
1,note_on,68,32,0
1,note_on,68,0,119
1,note_on,62,0,0
1,note_on,70,0,0
1,note_on,74,0,0
1,note_on,70,39,1
1,note_on,63,33,0
1,note_on,66,33,0
1,note_on,75,47,0
1,note_on,75,0,119
1,note_on,70,0,0
1,note_on,63,0,0
1,note_on,66,0,0
1,note_on,66,30,1
1,note_on,75,43,0
1,note_on,70,36,0
1,note_on,63,30,0
1,note_on,63,0,119
1,note_on,66,0,0
1,note_on,75,0,0
1,note_on,70,0,0
1,note_on,77,55,1
1,note_on,65,39,0
1,note_on,70,46,0
1,note_on,70,0,240
1,note_on,65,0,0
1,note_on,77,0,0
1,note_on,74,45,360
1,note_on,70,38,0
1,note_on,70,0,119
1,note_on,74,0,0
1,note_on,70,39,1
1,note_on,75,47,0
1,note_on,75,0,119
1,note_on,70,0,0
1,note_on,75,43,1
1,note_on,70,36,0
1,note_on,70,0,119
1,note_on,75,0,0
1,note_on,77,55,1
1,note_on,70,46,0
1,note_on,70,0,240
1,note_on,77,0,0
1,note_on,70,41,360
1,note_on,77,49,0
1,note_on,77,0,119
1,note_on,70,0,0
1,note_on,79,54,1
1,note_on,70,44,0
1,note_on,70,0,119
1,note_on,79,0,0
1,note_on,68,42,1
1,note_on,80,51,0
1,note_on,80,0,119
1,note_on,68,0,0
1,note_on,68,46,1
1,note_on,80,55,0
1,note_on,80,0,240
1,note_on,68,0,0
1,note_on,77,49,360
1,note_on,70,41,0
1,note_on,70,0,119
1,note_on,77,0,0
1,note_on,79,54,1
1,note_on,70,44,0
1,note_on,70,0,119
1,note_on,79,0,0
1,note_on,80,51,1
1,note_on,68,42,0
1,note_on,68,0,119
1,note_on,80,0,0
1,note_on,80,44,241
1,note_on,68,36,0
1,note_on,68,0,240
1,note_on,80,0,0
1,note_on,68,36,240
1,note_on,80,44,0
1,note_on,80,0,240
1,note_on,68,0,0
1,note_on,80,77,0
1,note_on,68,64,0
1,note_on,68,0,720
1,note_on,80,0,0
1,note_on,67,59,0
1,note_on,74,70,0
1,note_on,74,0,120
1,note_on,79,67,0
1,note_on,79,0,60
1,note_on,67,0,60
1,note_on,67,59,0
1,note_on,79,70,0
1,note_on,79,0,240
1,note_on,67,0,0
1,note_on,72,70,0
1,note_on,65,59,0
1,note_on,72,0,120
1,note_on,77,67,0
1,note_on,77,0,60
1,note_on,65,0,60
1,note_on,65,59,0
1,note_on,77,70,0
1,note_on,77,0,240
1,note_on,65,0,0
1,note_on,70,70,0
1,note_on,63,59,0
1,note_on,70,0,120
1,note_on,75,67,0
1,note_on,75,0,60
1,note_on,63,0,60
1,note_on,68,59,0
1,note_on,63,59,0
1,note_on,75,70,0
1,note_on,70,59,0
1,note_on,75,0,480
1,note_on,63,0,0
1,note_on,74,59,0
1,note_on,62,50,0
1,note_on,62,0,240
1,note_on,70,0,0
1,note_on,68,0,0
1,note_on,74,0,0
1,note_on,75,59,0
1,note_on,70,50,0
1,note_on,63,50,0
1,note_on,63,0,240
1,note_on,70,0,0
1,note_on,75,0,0
1,note_on,65,48,0
1,note_on,70,48,0
1,note_on,77,57,0
1,note_on,77,0,240
1,note_on,70,0,0
1,note_on,65,0,0
1,note_on,67,51,0
1,note_on,70,51,0
1,note_on,79,60,0
1,note_on,79,0,240
1,note_on,70,0,0
1,note_on,67,0,0
1,note_on,70,54,0
1,note_on,80,64,0
1,note_on,68,54,0
1,note_on,68,0,240
1,note_on,80,0,0
1,note_on,70,0,0
1,note_on,70,57,0
1,note_on,82,68,0
1,note_on,82,0,240
1,note_on,70,0,0
1,note_on,67,66,0
1,note_on,70,66,0
1,note_on,82,78,0
1,note_on,82,0,240
1,note_on,70,0,0
1,note_on,67,0,0
1,note_on,82,81,240
1,note_on,70,69,0
1,note_on,70,0,240
1,note_on,82,0,0
1,note_on,82,78,240
1,note_on,94,93,0
1,note_on,94,0,720
1,note_on,82,0,0
1,note_on,82,65,0
1,note_on,70,55,0
1,note_on,70,0,960
1,note_on,82,0,0
1,note_on,67,62,0
1,note_on,79,62,0
1,note_on,79,0,240
1,note_on,67,0,0
1,note_on,77,65,0
1,note_on,65,55,0
1,note_on,65,0,240
1,note_on,77,0,0
1,note_on,74,57,0
1,note_on,62,48,0
1,note_on,62,0,240
1,note_on,74,0,0
1,note_on,71,57,0
1,note_on,59,48,0
1,note_on,59,0,240
1,note_on,71,0,0
1,note_on,70,56,0
1,note_on,58,47,0
1,note_on,58,0,238
1,note_on,70,0,0
1,note_on,70,78,2
1,note_on,58,66,0
1,note_on,58,0,240
1,note_on,70,0,0
1,note_on,82,81,240
1,note_on,70,69,0
1,note_on,70,0,240
1,note_on,82,0,0
1,note_on,82,78,240
1,note_on,94,93,0
1,note_on,94,0,720
1,note_on,82,0,0
1,note_on,70,55,0
1,note_on,82,65,0
1,note_on,82,0,960
1,note_on,70,0,0
1,note_on,67,62,0
1,note_on,79,62,0
1,note_on,79,0,240
1,note_on,67,0,0
1,note_on,64,55,0
1,note_on,76,65,0
1,note_on,76,0,240
1,note_on,64,0,0
1,note_on,77,57,0
1,note_on,65,48,0
1,note_on,65,0,240
1,note_on,77,0,0
1,note_on,72,57,0
1,note_on,60,48,0
1,note_on,60,0,240
1,note_on,72,0,0
1,note_on,63,47,0
1,note_on,75,56,0
1,note_on,75,0,240
1,note_on,63,0,0
1,note_on,74,56,0
1,note_on,62,56,0
1,note_on,62,0,120
1,note_on,74,0,0
1,note_on,70,49,0
1,note_on,70,0,120
1,note_on,69,51,0
1,note_on,69,0,120
1,note_on,70,53,0
1,note_on,70,0,120
1,note_on,72,55,0
1,note_on,69,46,0
1,note_on,69,0,120
1,note_on,72,0,0
1,note_on,70,48,0
1,note_on,74,57,0
1,note_on,74,0,120
1,note_on,70,0,0
1,note_on,72,50,0
1,note_on,75,59,0
1,note_on,75,0,120
1,note_on,72,0,0
1,note_on,74,51,0
1,note_on,77,61,0
1,note_on,77,0,120
1,note_on,74,0,0
1,note_on,75,53,0
1,note_on,79,63,0
1,note_on,79,0,480
1,note_on,75,0,0
1,note_on,84,62,0
1,note_on,80,52,0
1,note_on,80,0,120
1,note_on,84,0,0
1,note_on,82,59,0
1,note_on,79,50,0
1,note_on,79,0,120
1,note_on,82,0,0
1,note_on,77,47,0
1,note_on,80,56,0
1,note_on,80,0,120
1,note_on,77,0,0
1,note_on,79,53,0
1,note_on,75,45,0
1,note_on,75,0,120
1,note_on,79,0,0
1,note_on,77,61,0
1,note_on,74,51,0
1,note_on,74,0,240
1,note_on,77,0,0
1,note_on,96,68,240
1,note_on,92,57,0
1,note_on,92,0,120
1,note_on,96,0,0
1,note_on,94,64,0
1,note_on,91,55,0
1,note_on,91,0,120
1,note_on,94,0,0
1,note_on,89,51,0
1,note_on,92,61,0
1,note_on,92,0,120
1,note_on,89,0,0
1,note_on,91,58,0
1,note_on,87,49,0
1,note_on,87,0,120
1,note_on,91,0,0
1,note_on,89,67,0
1,note_on,86,56,0
1,note_on,86,0,240
1,note_on,89,0,0
1,note_on,84,68,0
1,note_on,74,57,0
1,note_on,74,0,120
1,note_on,84,0,0
1,note_on,82,67,0
1,note_on,75,56,0
1,note_on,75,0,120
1,note_on,82,0,0
1,note_on,71,56,0
1,note_on,80,67,0
1,note_on,80,0,120
1,note_on,71,0,0
1,note_on,79,66,0
1,note_on,72,56,0
1,note_on,72,0,120
1,note_on,79,0,0
1,note_on,67,55,0
1,note_on,77,64,0
1,note_on,77,0,90
1,note_on,67,0,0
1,note_on,75,53,30
1,note_on,78,63,0
1,note_on,78,0,90
1,note_on,75,0,0
1,note_on,79,61,30
1,note_on,74,51,0
1,note_on,74,0,90
1,note_on,79,0,0
1,note_on,74,55,30
1,note_on,78,55,0
1,note_on,81,64,0
1,note_on,81,0,90
1,note_on,78,0,0
1,note_on,74,0,0
1,note_on,74,57,30
1,note_on,79,57,0
1,note_on,83,68,0
1,note_on,83,0,90
1,note_on,79,0,0
1,note_on,74,0,0
1,note_on,74,60,30
1,note_on,83,71,0
1,note_on,79,60,0
1,note_on,79,0,90
1,note_on,83,0,0
1,note_on,74,0,0
1,note_on,75,63,30
1,note_on,79,63,0
1,note_on,84,75,0
1,note_on,84,0,90
1,note_on,79,0,0
1,note_on,75,0,0
1,note_on,77,67,30
1,note_on,83,67,0
1,note_on,86,79,0
1,note_on,86,0,90
1,note_on,83,0,0
1,note_on,77,0,0
1,note_on,79,69,30
1,note_on,84,69,0
1,note_on,87,82,0
1,note_on,87,0,90
1,note_on,84,0,0
1,note_on,79,0,0
1,note_on,88,85,30
1,note_on,84,72,0
1,note_on,79,72,0
1,note_on,79,0,90
1,note_on,84,0,0
1,note_on,88,0,0
1,note_on,88,89,30
1,note_on,84,74,0
1,note_on,79,74,0
1,note_on,79,0,120
1,note_on,84,0,0
1,note_on,88,0,0
1,note_on,89,92,360
1,note_on,77,92,0
1,note_on,84,92,0
1,note_on,84,0,120
1,note_on,77,0,0
1,note_on,89,0,0
1,note_on,70,65,360
1,note_on,75,84,0
1,note_on,75,0,720
1,note_on,77,85,0
1,note_on,77,0,120
1,note_on,78,93,120
1,note_on,70,0,240
1,note_on,70,61,0
1,note_on,70,0,120
1,note_on,69,52,0
1,note_on,69,0,120
1,note_on,70,61,0
1,note_on,70,0,120
1,note_on,69,54,0
1,note_on,69,0,120
1,note_on,70,61,0
1,note_on,70,0,120
1,note_on,69,54,0
1,note_on,69,0,120
1,note_on,78,0,0
1,note_on,70,65,0
1,note_on,75,84,0
1,note_on,75,0,720
1,note_on,77,85,0
1,note_on,77,0,120
1,note_on,79,93,120
1,note_on,70,0,240
1,note_on,70,61,0
1,note_on,70,0,120
1,note_on,69,52,0
1,note_on,69,0,120
1,note_on,70,61,0
1,note_on,70,0,120
1,note_on,69,54,0
1,note_on,69,0,120
1,note_on,70,61,0
1,note_on,70,0,120
1,note_on,69,54,0
1,note_on,69,0,120
1,note_on,79,0,0
1,note_on,78,70,0
1,note_on,78,0,240
1,note_on,70,51,0
1,note_on,70,0,120
1,note_on,69,44,0
1,note_on,69,0,120
1,note_on,70,51,0
1,note_on,70,0,120
1,note_on,69,43,0
1,note_on,69,0,120
1,note_on,70,51,0
1,note_on,70,0,120
1,note_on,69,45,0
1,note_on,69,0,120
1,note_on,77,70,0
1,note_on,77,0,240
1,note_on,72,51,0
1,note_on,72,0,120
1,note_on,71,44,0
1,note_on,71,0,120
1,note_on,72,51,0
1,note_on,72,0,120
1,note_on,71,43,0
1,note_on,71,0,120
1,note_on,72,51,0
1,note_on,72,0,120
1,note_on,71,45,0
1,note_on,71,0,120
1,note_on,77,70,0
1,note_on,77,0,120
1,note_on,74,51,120
1,note_on,74,0,120
1,note_on,72,44,0
1,note_on,72,0,120
1,note_on,77,70,0
1,note_on,77,0,120
1,note_on,72,51,120
1,note_on,72,0,120
1,note_on,70,44,0
1,note_on,70,0,120
1,note_on,77,70,0
1,note_on,77,0,120
1,note_on,70,51,120
1,note_on,70,0,120
1,note_on,69,44,0
1,note_on,69,0,120
1,note_on,77,70,0
1,note_on,77,0,120
1,note_on,72,51,120
1,note_on,72,0,120
1,note_on,70,44,0
1,note_on,70,0,120
1,note_on,78,70,0
1,note_on,78,0,240
1,note_on,70,51,0
1,note_on,70,0,120
1,note_on,69,44,0
1,note_on,69,0,120
1,note_on,70,51,0
1,note_on,70,0,120
1,note_on,69,43,0
1,note_on,69,0,120
1,note_on,70,51,0
1,note_on,70,0,120
1,note_on,69,45,0
1,note_on,69,0,120
1,note_on,77,70,0
1,note_on,77,0,240
1,note_on,72,51,0
1,note_on,72,0,120
1,note_on,71,44,0
1,note_on,71,0,120
1,note_on,72,51,0
1,note_on,72,0,120
1,note_on,71,43,0
1,note_on,71,0,120
1,note_on,72,51,0
1,note_on,72,0,120
1,note_on,71,45,0
1,note_on,71,0,120
1,note_on,77,70,0
1,note_on,77,0,120
1,note_on,74,51,120
1,note_on,74,0,120
1,note_on,72,44,0
1,note_on,72,0,120
1,note_on,77,70,0
1,note_on,77,0,120
1,note_on,72,51,120
1,note_on,72,0,120
1,note_on,71,44,0
1,note_on,71,0,120
1,note_on,77,70,0
1,note_on,77,0,120
1,note_on,74,51,120
1,note_on,74,0,120
1,note_on,72,44,0
1,note_on,72,0,120
1,note_on,77,64,0
1,note_on,77,0,240
1,note_on,72,59,0
1,note_on,75,70,0
1,note_on,65,45,240
1,note_on,75,0,240
1,note_on,72,0,0
1,note_on,74,65,0
1,note_on,70,55,0
1,note_on,70,0,240
1,note_on,74,0,0
1,note_on,65,0,0
1,note_on,72,65,0
1,note_on,69,55,0
1,note_on,69,0,240
1,note_on,72,0,0
1,note_on,84,59,0
1,note_on,87,70,0
1,note_on,77,45,240
1,note_on,87,0,240
1,note_on,84,0,0
1,note_on,82,55,0
1,note_on,86,65,0
1,note_on,86,0,240
1,note_on,82,0,0
1,note_on,77,0,0
1,note_on,84,65,0
1,note_on,81,55,0
1,note_on,81,0,240
1,note_on,84,0,0
1,note_on,91,77,0
1,note_on,84,64,0
1,note_on,81,64,0
1,note_on,81,0,240
1,note_on,84,0,0
1,note_on,77,65,0
1,note_on,82,65,0
1,note_on,82,0,240
1,note_on,77,0,0
1,note_on,91,0,0
1,note_on,77,63,0
1,note_on,89,75,0
1,note_on,82,63,0
1,note_on,82,0,240
1,note_on,89,0,0
1,note_on,77,0,0
1,note_on,79,69,0
1,note_on,82,69,0
1,note_on,82,0,240
1,note_on,79,0,0
1,note_on,87,79,0
1,note_on,84,67,0
1,note_on,81,67,0
1,note_on,81,0,240
1,note_on,84,0,0
1,note_on,87,0,0
1,note_on,86,88,0
1,note_on,77,49,120
1,note_on,77,0,120
1,note_on,79,55,0
1,note_on,79,0,120
1,note_on,77,50,0
1,note_on,77,0,120
1,note_on,79,55,0
1,note_on,79,0,120
1,note_on,77,47,0
1,note_on,77,0,120
1,note_on,79,55,0
1,note_on,79,0,120
1,note_on,77,48,0
1,note_on,77,0,120
1,note_on,86,0,0
1,note_on,84,80,0
1,note_on,75,46,120
1,note_on,75,0,120
1,note_on,77,54,0
1,note_on,77,0,120
1,note_on,75,50,0
1,note_on,75,0,120
1,note_on,77,53,0
1,note_on,77,0,120
1,note_on,75,47,0
1,note_on,75,0,120
1,note_on,77,53,0
1,note_on,77,0,120
1,note_on,75,48,0
1,note_on,75,0,120
1,note_on,84,0,0
1,note_on,82,70,0
1,note_on,74,53,0
1,note_on,74,0,120
1,note_on,70,48,0
1,note_on,70,0,120
1,note_on,72,53,0
1,note_on,72,0,120
1,note_on,70,48,0
1,note_on,70,0,120
1,note_on,82,0,0
1,note_on,79,68,0
1,note_on,70,48,120
1,note_on,70,0,120
1,note_on,79,0,0
1,note_on,77,60,0
1,note_on,70,48,120
1,note_on,70,0,120
1,note_on,77,0,0
1,note_on,77,68,0
1,note_on,70,53,0
1,note_on,70,0,120
1,note_on,65,48,0
1,note_on,65,0,120
1,note_on,77,0,0
1,note_on,69,53,0
1,note_on,75,58,0
1,note_on,69,0,120
1,note_on,65,48,0
1,note_on,65,0,120
1,note_on,75,0,0
1,note_on,70,53,0
1,note_on,74,66,0
1,note_on,70,0,120
1,note_on,65,48,0
1,note_on,65,0,120
1,note_on,74,0,0
1,note_on,72,57,0
1,note_on,65,48,120
1,note_on,65,0,120
1,note_on,72,0,0
1,note_on,74,79,0
1,note_on,65,44,120
1,note_on,65,0,120
1,note_on,67,49,0
1,note_on,67,0,120
1,note_on,65,45,0
1,note_on,65,0,120
1,note_on,67,49,0
1,note_on,67,0,120
1,note_on,65,42,0
1,note_on,65,0,120
1,note_on,67,49,0
1,note_on,67,0,120
1,note_on,65,43,0
1,note_on,65,0,120
1,note_on,74,0,0
1,note_on,72,72,0
1,note_on,63,41,120
1,note_on,63,0,120
1,note_on,65,48,0
1,note_on,65,0,120
1,note_on,63,45,0
1,note_on,63,0,120
1,note_on,65,47,0
1,note_on,65,0,120
1,note_on,63,42,0
1,note_on,63,0,120
1,note_on,65,47,0
1,note_on,65,0,120
1,note_on,63,43,0
1,note_on,63,0,120
1,note_on,72,0,0
1,note_on,70,63,0
1,note_on,62,47,0
1,note_on,62,0,120
1,note_on,58,43,0
1,note_on,58,0,120
1,note_on,60,47,0
1,note_on,60,0,120
1,note_on,58,43,0
1,note_on,58,0,120
1,note_on,70,0,0
1,note_on,67,61,0
1,note_on,58,43,120
1,note_on,58,0,120
1,note_on,67,0,0
1,note_on,65,54,0
1,note_on,58,43,120
1,note_on,58,0,120
1,note_on,65,0,0
1,note_on,58,47,0
1,note_on,65,61,0
1,note_on,58,0,120
1,note_on,53,43,0
1,note_on,53,0,120
1,note_on,65,0,0
1,note_on,63,52,0
1,note_on,57,47,0
1,note_on,57,0,120
1,note_on,53,43,0
1,note_on,53,0,120
1,note_on,63,0,0
1,note_on,58,47,0
1,note_on,62,59,0
1,note_on,58,0,120
1,note_on,53,43,0
1,note_on,53,0,120
1,note_on,62,0,0
1,note_on,60,51,0
1,note_on,53,43,120
1,note_on,53,0,120
1,note_on,60,0,0
1,note_on,58,57,0
1,note_on,54,46,120
1,note_on,50,55,120
1,note_on,50,0,240
1,note_on,54,0,0
1,note_on,58,0,120
1,note_on,53,47,10
1,note_on,50,47,110
1,note_on,53,0,10
1,note_on,50,0,110
1,note_on,58,47,0
1,note_on,58,0,240
1,note_on,58,47,0
1,note_on,58,0,120
1,note_on,57,51,0
1,note_on,57,0,120
1,note_on,58,49,0
1,note_on,58,0,120
1,note_on,60,52,0
1,note_on,60,0,120
1,note_on,62,44,0
1,note_on,62,0,120
1,note_on,63,51,0
1,note_on,63,0,120
1,note_on,60,47,0
1,note_on,60,0,120
1,note_on,70,57,0
1,note_on,66,46,120
1,note_on,62,55,120
1,note_on,62,0,240
1,note_on,66,0,0
1,note_on,70,0,120
1,note_on,65,47,10
1,note_on,62,47,110
1,note_on,65,0,10
1,note_on,62,0,110
1,note_on,70,47,0
1,note_on,65,47,120
1,note_on,70,0,120
1,note_on,70,47,0
1,note_on,70,0,120
1,note_on,69,51,0
1,note_on,69,0,120
1,note_on,70,49,0
1,note_on,70,0,120
1,note_on,65,0,0
1,note_on,72,52,0
1,note_on,72,0,120
1,note_on,74,44,0
1,note_on,74,0,120
1,note_on,75,51,0
1,note_on,75,0,120
1,note_on,72,47,0
1,note_on,72,0,120
1,note_on,74,51,0
1,note_on,74,0,120
1,note_on,72,42,0
1,note_on,72,0,120
1,note_on,70,49,0
1,note_on,70,0,360
1,note_on,67,41,0
1,note_on,67,0,120
1,note_on,65,48,0
1,note_on,65,0,360
1,note_on,63,42,0
1,note_on,63,0,120
1,note_on,62,48,0
1,note_on,62,0,360
1,note_on,60,42,0
1,note_on,60,0,120
1,note_on,58,47,0
1,note_on,58,0,360
1,note_on,55,41,0
1,note_on,55,0,120
1,note_on,53,47,0
1,note_on,53,0,360
1,note_on,51,38,0
1,note_on,51,0,120
1,note_on,50,43,0
1,note_on,50,0,360
1,note_on,48,37,0
1,note_on,48,0,120
1,note_on,46,44,0
1,note_on,46,0,360
1,note_on,48,36,0
1,note_on,48,0,120
1,note_on,46,41,0
1,note_on,46,0,480
1,note_on,70,45,1680
1,note_on,77,53,0
1,note_on,77,0,960
1,note_on,70,0,0
1,note_on,70,43,0
1,note_on,79,51,0
1,note_on,79,0,960
1,note_on,70,0,0
1,note_on,80,77,0
1,note_on,68,64,0
1,note_on,68,0,720
1,note_on,80,0,0
1,note_on,67,59,0
1,note_on,74,70,0
1,note_on,74,0,120
1,note_on,79,67,0
1,note_on,79,0,60
1,note_on,67,0,60
1,note_on,79,70,0
1,note_on,67,59,0
1,note_on,67,0,240
1,note_on,79,0,0
1,note_on,72,70,0
1,note_on,65,59,0
1,note_on,72,0,120
1,note_on,77,67,0
1,note_on,77,0,60
1,note_on,65,0,60
1,note_on,77,70,0
1,note_on,65,59,0
1,note_on,65,0,240
1,note_on,77,0,0
1,note_on,63,59,0
1,note_on,70,70,0
1,note_on,70,0,120
1,note_on,75,67,0
1,note_on,75,0,60
1,note_on,63,0,60
1,note_on,63,59,0
1,note_on,70,59,0
1,note_on,68,59,0
1,note_on,75,70,0
1,note_on,75,0,480
1,note_on,63,0,0
1,note_on,74,59,0
1,note_on,62,50,0
1,note_on,62,0,240
1,note_on,70,0,0
1,note_on,68,0,0
1,note_on,74,0,0
1,note_on,75,59,0
1,note_on,70,50,0
1,note_on,63,50,0
1,note_on,63,0,240
1,note_on,70,0,0
1,note_on,75,0,0
1,note_on,70,48,0
1,note_on,65,48,0
1,note_on,77,57,0
1,note_on,77,0,240
1,note_on,65,0,0
1,note_on,70,0,0
1,note_on,70,51,0
1,note_on,79,60,0
1,note_on,67,51,0
1,note_on,67,0,240
1,note_on,79,0,0
1,note_on,70,0,0
1,note_on,68,54,0
1,note_on,70,54,0
1,note_on,80,64,0
1,note_on,80,0,240
1,note_on,70,0,0
1,note_on,68,0,0
1,note_on,70,57,0
1,note_on,82,68,0
1,note_on,82,0,240
1,note_on,70,0,0
1,note_on,70,66,0
1,note_on,82,78,0
1,note_on,67,66,0
1,note_on,67,0,240
1,note_on,82,0,0
1,note_on,70,0,0
1,note_on,82,81,240
1,note_on,70,69,0
1,note_on,70,0,240
1,note_on,82,0,0
1,note_on,82,78,240
1,note_on,94,93,0
1,note_on,94,0,720
1,note_on,82,0,0
1,note_on,82,65,0
1,note_on,70,55,0
1,note_on,70,0,960
1,note_on,82,0,0
1,note_on,67,62,0
1,note_on,79,62,0
1,note_on,79,0,240
1,note_on,67,0,0
1,note_on,77,65,0
1,note_on,65,55,0
1,note_on,65,0,240
1,note_on,77,0,0
1,note_on,74,57,0
1,note_on,62,48,0
1,note_on,62,0,240
1,note_on,74,0,0
1,note_on,71,57,0
1,note_on,59,48,0
1,note_on,59,0,240
1,note_on,71,0,0
1,note_on,58,47,0
1,note_on,70,56,0
1,note_on,70,0,240
1,note_on,58,0,0
1,note_on,58,66,0
1,note_on,70,78,0
1,note_on,70,0,240
1,note_on,58,0,0
1,note_on,82,81,240
1,note_on,70,69,0
1,note_on,70,0,240
1,note_on,82,0,0
1,note_on,82,78,240
1,note_on,94,93,0
1,note_on,94,0,720
1,note_on,82,0,0
1,note_on,82,65,0
1,note_on,70,55,0
1,note_on,70,0,960
1,note_on,82,0,0
1,note_on,79,62,0
1,note_on,67,62,0
1,note_on,67,0,240
1,note_on,79,0,0
1,note_on,64,55,0
1,note_on,76,65,0
1,note_on,76,0,240
1,note_on,64,0,0
1,note_on,65,48,0
1,note_on,77,57,0
1,note_on,77,0,240
1,note_on,65,0,0
1,note_on,72,57,0
1,note_on,60,48,0
1,note_on,60,0,240
1,note_on,72,0,0
1,note_on,63,47,0
1,note_on,75,56,0
1,note_on,75,0,240
1,note_on,63,0,0
1,note_on,62,56,0
1,note_on,74,56,0
1,note_on,74,0,120
1,note_on,62,0,0
1,note_on,70,49,0
1,note_on,70,0,120
1,note_on,69,51,0
1,note_on,69,0,120
1,note_on,70,53,0
1,note_on,70,0,120
1,note_on,72,55,0
1,note_on,69,46,0
1,note_on,69,0,120
1,note_on,72,0,0
1,note_on,74,57,0
1,note_on,70,48,0
1,note_on,70,0,120
1,note_on,74,0,0
1,note_on,72,50,0
1,note_on,75,59,0
1,note_on,75,0,120
1,note_on,72,0,0
1,note_on,77,61,0
1,note_on,74,51,0
1,note_on,74,0,120
1,note_on,77,0,0
1,note_on,79,63,0
1,note_on,75,53,0
1,note_on,75,0,480
1,note_on,79,0,0
1,note_on,84,62,0
1,note_on,80,52,0
1,note_on,80,0,120
1,note_on,84,0,0
1,note_on,79,50,0
1,note_on,82,59,0
1,note_on,82,0,120
1,note_on,79,0,0
1,note_on,77,47,0
1,note_on,80,56,0
1,note_on,80,0,120
1,note_on,77,0,0
1,note_on,75,45,0
1,note_on,79,53,0
1,note_on,79,0,120
1,note_on,75,0,0
1,note_on,77,61,0
1,note_on,74,51,0
1,note_on,74,0,240
1,note_on,77,0,0
1,note_on,96,68,240
1,note_on,92,57,0
1,note_on,92,0,120
1,note_on,96,0,0
1,note_on,94,64,0
1,note_on,91,55,0
1,note_on,91,0,120
1,note_on,94,0,0
1,note_on,89,51,0
1,note_on,92,61,0
1,note_on,92,0,120
1,note_on,89,0,0
1,note_on,87,49,0
1,note_on,91,58,0
1,note_on,91,0,120
1,note_on,87,0,0
1,note_on,89,67,0
1,note_on,86,56,0
1,note_on,86,0,240
1,note_on,89,0,0
1,note_on,84,68,0
1,note_on,74,57,0
1,note_on,74,0,120
1,note_on,84,0,0
1,note_on,75,56,0
1,note_on,82,67,0
1,note_on,82,0,120
1,note_on,75,0,0
1,note_on,80,67,0
1,note_on,71,56,0
1,note_on,71,0,120
1,note_on,80,0,0
1,note_on,79,66,0
1,note_on,72,56,0
1,note_on,72,0,120
1,note_on,79,0,0
1,note_on,67,55,0
1,note_on,77,64,0
1,note_on,77,0,90
1,note_on,67,0,0
1,note_on,75,53,30
1,note_on,78,63,0
1,note_on,78,0,90
1,note_on,75,0,0
1,note_on,79,61,30
1,note_on,74,51,0
1,note_on,74,0,90
1,note_on,79,0,0
1,note_on,81,64,30
1,note_on,74,55,0
1,note_on,78,55,0
1,note_on,78,0,90
1,note_on,74,0,0
1,note_on,81,0,0
1,note_on,74,57,30
1,note_on,79,57,0
1,note_on,83,68,0
1,note_on,83,0,90
1,note_on,79,0,0
1,note_on,74,0,0
1,note_on,83,71,30
1,note_on,74,60,0
1,note_on,79,60,0
1,note_on,79,0,90
1,note_on,74,0,0
1,note_on,83,0,0
1,note_on,84,75,30
1,note_on,79,63,0
1,note_on,75,63,0
1,note_on,75,0,90
1,note_on,79,0,0
1,note_on,84,0,0
1,note_on,77,67,30
1,note_on,86,79,0
1,note_on,83,67,0
1,note_on,83,0,90
1,note_on,86,0,0
1,note_on,77,0,0
1,note_on,84,69,30
1,note_on,87,82,0
1,note_on,79,69,0
1,note_on,79,0,90
1,note_on,87,0,0
1,note_on,84,0,0
1,note_on,79,72,30
1,note_on,84,72,0
1,note_on,88,85,0
1,note_on,88,0,90
1,note_on,84,0,0
1,note_on,79,0,0
1,note_on,88,89,30
1,note_on,79,74,0
1,note_on,84,74,0
1,note_on,84,0,120
1,note_on,79,0,0
1,note_on,88,0,0
1,note_on,84,92,360
1,note_on,77,92,0
1,note_on,89,92,0
1,note_on,89,0,120
1,note_on,77,0,0
1,note_on,84,0,0
1,note_on,75,84,360
1,note_on,70,65,0
1,note_on,75,0,720
1,note_on,77,85,0
1,note_on,77,0,120
1,note_on,78,93,120
1,note_on,70,0,240
1,note_on,70,61,0
1,note_on,70,0,120
1,note_on,69,52,0
1,note_on,69,0,120
1,note_on,70,61,0
1,note_on,70,0,120
1,note_on,69,54,0
1,note_on,69,0,120
1,note_on,70,61,0
1,note_on,70,0,120
1,note_on,69,54,0
1,note_on,69,0,120
1,note_on,78,0,0
1,note_on,75,84,0
1,note_on,70,65,0
1,note_on,75,0,720
1,note_on,77,85,0
1,note_on,77,0,120
1,note_on,79,93,120
1,note_on,70,0,240
1,note_on,70,61,0
1,note_on,70,0,120
1,note_on,69,52,0
1,note_on,69,0,120
1,note_on,70,61,0
1,note_on,70,0,120
1,note_on,69,54,0
1,note_on,69,0,120
1,note_on,70,61,0
1,note_on,70,0,120
1,note_on,69,54,0
1,note_on,69,0,120
1,note_on,79,0,0
1,note_on,78,70,0
1,note_on,78,0,240
1,note_on,70,51,0
1,note_on,70,0,120
1,note_on,69,44,0
1,note_on,69,0,120
1,note_on,70,51,0
1,note_on,70,0,120
1,note_on,69,43,0
1,note_on,69,0,120
1,note_on,70,51,0
1,note_on,70,0,120
1,note_on,69,45,0
1,note_on,69,0,120
1,note_on,77,70,0
1,note_on,77,0,240
1,note_on,72,51,0
1,note_on,72,0,120
1,note_on,71,44,0
1,note_on,71,0,120
1,note_on,72,51,0
1,note_on,72,0,120
1,note_on,71,43,0
1,note_on,71,0,120
1,note_on,72,51,0
1,note_on,72,0,120
1,note_on,71,45,0
1,note_on,71,0,120
1,note_on,77,70,0
1,note_on,77,0,120
1,note_on,74,51,120
1,note_on,74,0,120
1,note_on,72,44,0
1,note_on,72,0,120
1,note_on,77,70,0
1,note_on,77,0,120
1,note_on,72,51,120
1,note_on,72,0,120
1,note_on,70,44,0
1,note_on,70,0,120
1,note_on,77,70,0
1,note_on,77,0,120
1,note_on,70,51,120
1,note_on,70,0,120
1,note_on,69,44,0
1,note_on,69,0,120
1,note_on,77,70,0
1,note_on,77,0,120
1,note_on,72,51,120
1,note_on,72,0,120
1,note_on,70,44,0
1,note_on,70,0,120
1,note_on,78,70,0
1,note_on,78,0,240
1,note_on,70,51,0
1,note_on,70,0,120
1,note_on,69,44,0
1,note_on,69,0,120
1,note_on,70,51,0
1,note_on,70,0,120
1,note_on,69,43,0
1,note_on,69,0,120
1,note_on,70,51,0
1,note_on,70,0,120
1,note_on,69,45,0
1,note_on,69,0,120
1,note_on,77,70,0
1,note_on,77,0,240
1,note_on,72,51,0
1,note_on,72,0,120
1,note_on,71,44,0
1,note_on,71,0,120
1,note_on,72,51,0
1,note_on,72,0,120
1,note_on,71,43,0
1,note_on,71,0,120
1,note_on,72,51,0
1,note_on,72,0,120
1,note_on,71,45,0
1,note_on,71,0,120
1,note_on,77,70,0
1,note_on,77,0,120
1,note_on,74,51,120
1,note_on,74,0,120
1,note_on,72,44,0
1,note_on,72,0,120
1,note_on,77,70,0
1,note_on,77,0,120
1,note_on,72,51,120
1,note_on,72,0,120
1,note_on,71,44,0
1,note_on,71,0,120
1,note_on,77,70,0
1,note_on,77,0,120
1,note_on,74,51,120
1,note_on,74,0,120
1,note_on,72,44,0
1,note_on,72,0,120
1,note_on,77,64,0
1,note_on,77,0,240
1,note_on,72,59,0
1,note_on,75,70,0
1,note_on,65,45,240
1,note_on,75,0,240
1,note_on,72,0,0
1,note_on,74,65,0
1,note_on,70,55,0
1,note_on,70,0,240
1,note_on,74,0,0
1,note_on,65,0,0
1,note_on,72,65,0
1,note_on,69,55,0
1,note_on,69,0,240
1,note_on,72,0,0
1,note_on,84,59,0
1,note_on,87,70,0
1,note_on,77,45,240
1,note_on,87,0,240
1,note_on,84,0,0
1,note_on,86,65,0
1,note_on,82,55,0
1,note_on,82,0,240
1,note_on,86,0,0
1,note_on,77,0,0
1,note_on,81,55,0
1,note_on,84,65,0
1,note_on,84,0,240
1,note_on,81,0,0
1,note_on,81,64,0
1,note_on,84,64,0
1,note_on,91,77,0
1,note_on,84,0,240
1,note_on,81,0,0
1,note_on,82,65,0
1,note_on,77,65,0
1,note_on,77,0,240
1,note_on,82,0,0
1,note_on,91,0,0
1,note_on,82,63,0
1,note_on,77,63,0
1,note_on,89,75,0
1,note_on,89,0,240
1,note_on,77,0,0
1,note_on,82,0,0
1,note_on,82,69,0
1,note_on,79,69,0
1,note_on,79,0,240
1,note_on,82,0,0
1,note_on,87,79,0
1,note_on,81,67,0
1,note_on,84,67,0
1,note_on,84,0,240
1,note_on,81,0,0
1,note_on,87,0,0
1,note_on,86,88,0
1,note_on,77,49,120
1,note_on,77,0,120
1,note_on,79,55,0
1,note_on,79,0,120
1,note_on,77,50,0
1,note_on,77,0,120
1,note_on,79,55,0
1,note_on,79,0,120
1,note_on,77,47,0
1,note_on,77,0,120
1,note_on,79,55,0
1,note_on,79,0,120
1,note_on,77,48,0
1,note_on,77,0,120
1,note_on,86,0,0
1,note_on,84,80,0
1,note_on,75,46,120
1,note_on,75,0,120
1,note_on,77,54,0
1,note_on,77,0,120
1,note_on,75,50,0
1,note_on,75,0,120
1,note_on,77,53,0
1,note_on,77,0,120
1,note_on,75,47,0
1,note_on,75,0,120
1,note_on,77,53,0
1,note_on,77,0,120
1,note_on,75,48,0
1,note_on,75,0,120
1,note_on,84,0,0
1,note_on,74,53,0
1,note_on,82,70,0
1,note_on,74,0,120
1,note_on,70,48,0
1,note_on,70,0,120
1,note_on,72,53,0
1,note_on,72,0,120
1,note_on,70,48,0
1,note_on,70,0,120
1,note_on,82,0,0
1,note_on,79,68,0
1,note_on,70,48,120
1,note_on,70,0,120
1,note_on,79,0,0
1,note_on,77,60,0
1,note_on,70,48,120
1,note_on,70,0,120
1,note_on,77,0,0
1,note_on,70,53,0
1,note_on,77,68,0
1,note_on,70,0,120
1,note_on,65,48,0
1,note_on,65,0,120
1,note_on,77,0,0
1,note_on,69,53,0
1,note_on,75,58,0
1,note_on,69,0,120
1,note_on,65,48,0
1,note_on,65,0,120
1,note_on,75,0,0
1,note_on,74,66,0
1,note_on,70,53,0
1,note_on,70,0,120
1,note_on,65,48,0
1,note_on,65,0,120
1,note_on,74,0,0
1,note_on,72,57,0
1,note_on,65,48,120
1,note_on,65,0,120
1,note_on,72,0,0
1,note_on,74,79,0
1,note_on,65,44,120
1,note_on,65,0,120
1,note_on,67,49,0
1,note_on,67,0,120
1,note_on,65,45,0
1,note_on,65,0,120
1,note_on,67,49,0
1,note_on,67,0,120
1,note_on,65,42,0
1,note_on,65,0,120
1,note_on,67,49,0
1,note_on,67,0,120
1,note_on,65,43,0
1,note_on,65,0,120
1,note_on,74,0,0
1,note_on,72,72,0
1,note_on,63,41,120
1,note_on,63,0,120
1,note_on,65,48,0
1,note_on,65,0,120
1,note_on,63,45,0
1,note_on,63,0,120
1,note_on,65,47,0
1,note_on,65,0,120
1,note_on,63,42,0
1,note_on,63,0,120
1,note_on,65,47,0
1,note_on,65,0,120
1,note_on,63,43,0
1,note_on,63,0,120
1,note_on,72,0,0
1,note_on,70,63,0
1,note_on,62,47,0
1,note_on,62,0,120
1,note_on,58,43,0
1,note_on,58,0,120
1,note_on,60,47,0
1,note_on,60,0,120
1,note_on,58,43,0
1,note_on,58,0,120
1,note_on,70,0,0
1,note_on,67,61,0
1,note_on,58,43,120
1,note_on,58,0,120
1,note_on,67,0,0
1,note_on,65,54,0
1,note_on,58,43,120
1,note_on,58,0,120
1,note_on,65,0,0
1,note_on,58,47,0
1,note_on,65,61,0
1,note_on,58,0,120
1,note_on,53,43,0
1,note_on,53,0,120
1,note_on,65,0,0
1,note_on,57,47,0
1,note_on,63,52,0
1,note_on,57,0,120
1,note_on,53,43,0
1,note_on,53,0,120
1,note_on,63,0,0
1,note_on,62,59,0
1,note_on,58,47,0
1,note_on,58,0,120
1,note_on,53,43,0
1,note_on,53,0,120
1,note_on,62,0,0
1,note_on,60,51,0
1,note_on,53,43,120
1,note_on,53,0,120
1,note_on,60,0,0
1,note_on,58,57,0
1,note_on,54,46,120
1,note_on,50,55,120
1,note_on,50,0,240
1,note_on,54,0,0
1,note_on,58,0,120
1,note_on,53,47,10
1,note_on,50,47,110
1,note_on,53,0,10
1,note_on,50,0,110
1,note_on,58,47,0
1,note_on,58,0,240
1,note_on,58,47,0
1,note_on,58,0,120
1,note_on,57,51,0
1,note_on,57,0,120
1,note_on,58,49,0
1,note_on,58,0,120
1,note_on,60,52,0
1,note_on,60,0,120
1,note_on,62,44,0
1,note_on,62,0,120
1,note_on,63,51,0
1,note_on,63,0,120
1,note_on,60,47,0
1,note_on,60,0,120
1,note_on,70,57,0
1,note_on,66,46,120
1,note_on,62,55,120
1,note_on,62,0,240
1,note_on,66,0,0
1,note_on,70,0,120
1,note_on,65,47,10
1,note_on,62,47,110
1,note_on,65,0,10
1,note_on,62,0,110
1,note_on,70,47,0
1,note_on,65,47,120
1,note_on,70,0,120
1,note_on,70,47,0
1,note_on,70,0,120
1,note_on,69,51,0
1,note_on,69,0,120
1,note_on,70,49,0
1,note_on,70,0,120
1,note_on,65,0,0
1,note_on,72,52,0
1,note_on,72,0,120
1,note_on,74,44,0
1,note_on,74,0,120
1,note_on,75,51,0
1,note_on,75,0,120
1,note_on,72,47,0
1,note_on,72,0,120
1,note_on,74,51,0
1,note_on,74,0,120
1,note_on,72,42,0
1,note_on,72,0,120
1,note_on,70,49,0
1,note_on,70,0,360
1,note_on,67,41,0
1,note_on,67,0,120
1,note_on,65,48,0
1,note_on,65,0,360
1,note_on,63,42,0
1,note_on,63,0,120
1,note_on,62,48,0
1,note_on,62,0,360
1,note_on,60,42,0
1,note_on,60,0,120
1,note_on,58,47,0
1,note_on,58,0,360
1,note_on,55,41,0
1,note_on,55,0,120
1,note_on,53,47,0
1,note_on,53,0,360
1,note_on,51,38,0
1,note_on,51,0,120
1,note_on,50,43,0
1,note_on,50,0,360
1,note_on,48,37,0
1,note_on,48,0,120
1,note_on,46,44,0
1,note_on,46,0,360
1,note_on,48,36,0
1,note_on,48,0,120
1,note_on,46,41,0
1,note_on,46,0,480
1,note_on,70,45,1680
1,note_on,77,53,0
1,note_on,77,0,960
1,note_on,70,0,0
1,note_on,80,51,0
1,note_on,68,43,0
1,note_on,68,0,960
1,note_on,80,0,0
1,note_on,67,73,0
1,note_on,79,88,0
1,note_on,79,0,720
1,note_on,67,0,0
1,note_on,74,79,0
1,note_on,74,0,120
1,note_on,79,76,0
1,note_on,79,0,60
1,note_on,79,79,60
1,note_on,67,66,0
1,note_on,67,0,240
1,note_on,79,0,0
1,note_on,72,78,0
1,note_on,72,0,120
1,note_on,77,74,0
1,note_on,77,0,60
1,note_on,65,65,60
1,note_on,77,77,0
1,note_on,77,0,240
1,note_on,65,0,0
1,note_on,72,77,0
1,note_on,72,0,120
1,note_on,75,73,0
1,note_on,75,0,60
1,note_on,63,63,60
1,note_on,75,75,0
1,note_on,75,0,240
1,note_on,63,0,0
1,note_on,69,74,0
1,note_on,69,0,120
1,note_on,74,71,0
1,note_on,74,0,60
1,note_on,62,62,60
1,note_on,74,74,0
1,note_on,67,62,0
1,note_on,67,0,240
1,note_on,74,0,0
1,note_on,62,0,0
1,note_on,72,64,0
1,note_on,79,64,0
1,note_on,79,0,120
1,note_on,84,57,0
1,note_on,84,0,60
1,note_on,72,0,60
1,note_on,65,45,0
1,note_on,65,0,960
1,note_on,63,45,0
1,note_on,63,0,960
1,note_on,66,38,0
1,note_on,69,38,0
1,note_on,75,45,0
1,note_on,75,0,1680
1,note_on,69,0,0
1,note_on,66,0,0
1,note_on,70,45,0
1,note_on,73,45,0
1,note_on,65,45,0
1,note_on,65,0,120
1,note_on,73,0,0
1,note_on,70,0,0
1,note_on,73,55,120
1,note_on,73,0,960
1,note_on,72,50,0
1,note_on,72,0,960
1,note_on,74,45,0
1,note_on,72,45,0
1,note_on,81,45,0
1,note_on,78,45,0
1,note_on,78,0,1920
1,note_on,74,0,0
1,note_on,72,0,0
1,note_on,81,0,0
1,note_on,72,55,0
1,note_on,72,0,960
1,note_on,71,50,0
1,note_on,71,0,960
1,note_on,71,45,0
1,note_on,75,45,0
1,note_on,81,45,0
1,note_on,78,45,0
1,note_on,78,0,1920
1,note_on,71,0,0
1,note_on,75,0,0
1,note_on,81,0,0
1,note_on,71,55,0
1,note_on,71,0,960
1,note_on,70,50,0
1,note_on,70,0,960
1,note_on,74,45,0
1,note_on,77,45,0
1,note_on,70,45,0
1,note_on,80,45,0
1,note_on,80,0,1200
1,note_on,74,0,0
1,note_on,77,0,0
1,note_on,70,0,0
1,note_on,82,62,0
1,note_on,82,0,240
1,note_on,83,69,0
1,note_on,83,0,240
1,note_on,82,62,0
1,note_on,82,0,240
1,note_on,74,45,0
1,note_on,70,45,0
1,note_on,77,45,0
1,note_on,80,45,0
1,note_on,80,0,1200
1,note_on,74,0,0
1,note_on,70,0,0
1,note_on,77,0,0
1,note_on,82,62,0
1,note_on,77,52,0
1,note_on,77,0,240
1,note_on,82,0,0
1,note_on,78,58,0
1,note_on,83,69,0
1,note_on,83,0,240
1,note_on,78,0,0
1,note_on,82,62,0
1,note_on,77,52,0
1,note_on,77,0,240
1,note_on,82,0,0
1,note_on,79,64,0
1,note_on,82,64,0
1,note_on,75,64,0
1,note_on,87,77,0
1,note_on,87,0,720
1,note_on,79,0,0
1,note_on,82,0,0
1,note_on,75,0,0
1,note_on,77,45,0
1,note_on,80,62,0
1,note_on,80,0,120
1,note_on,85,52,0
1,note_on,85,0,60
1,note_on,77,0,60
1,note_on,78,51,0
1,note_on,85,61,0
1,note_on,85,0,240
1,note_on,78,0,0
1,note_on,77,51,0
1,note_on,71,51,0
1,note_on,77,0,120
1,note_on,83,51,0
1,note_on,83,0,60
1,note_on,71,0,60
1,note_on,83,55,0
1,note_on,80,46,0
1,note_on,71,46,0
1,note_on,71,0,240
1,note_on,80,0,0
1,note_on,83,0,0
1,note_on,66,47,0
1,note_on,82,47,0
1,note_on,78,47,0
1,note_on,78,0,240
1,note_on,82,0,0
1,note_on,66,0,0
1,note_on,80,50,0
1,note_on,68,42,0
1,note_on,68,0,240
1,note_on,80,0,0
1,note_on,66,38,0
1,note_on,78,45,0
1,note_on,78,0,240
1,note_on,66,0,0
1,note_on,77,50,0
1,note_on,65,42,0
1,note_on,65,0,240
1,note_on,77,0,0
1,note_on,66,39,0
1,note_on,78,47,0
1,note_on,78,0,240
1,note_on,66,0,0
1,note_on,71,38,0
1,note_on,68,38,0
1,note_on,80,45,0
1,note_on,80,0,960
1,note_on,68,0,0
1,note_on,71,0,0
1,note_on,80,45,0
1,note_on,71,38,0
1,note_on,68,38,0
1,note_on,68,0,960
1,note_on,71,0,0
1,note_on,80,0,0
1,note_on,67,38,0
1,note_on,72,38,0
1,note_on,79,45,0
1,note_on,79,0,960
1,note_on,72,0,0
1,note_on,67,0,0
1,note_on,77,44,0
1,note_on,65,37,0
1,note_on,67,37,0
1,note_on,71,37,0
1,note_on,71,0,960
1,note_on,77,0,0
1,note_on,65,0,0
1,note_on,67,0,0
1,note_on,63,36,0
1,note_on,75,42,0
1,note_on,67,36,0
1,note_on,72,36,0
1,note_on,72,0,960
1,note_on,63,0,0
1,note_on,75,0,0
1,note_on,67,0,0
1,note_on,74,41,0
1,note_on,71,35,0
1,note_on,65,35,0
1,note_on,68,35,4
1,note_on,68,0,956
1,note_on,74,0,0
1,note_on,71,0,0
1,note_on,65,0,0
1,note_on,67,34,0
1,note_on,63,34,0
1,note_on,72,40,0
1,note_on,72,0,960
1,note_on,63,0,0
1,note_on,67,0,0
1,note_on,65,33,0
1,note_on,62,33,0
1,note_on,59,33,0
1,note_on,68,39,0
1,note_on,68,0,960
1,note_on,65,0,0
1,note_on,62,0,0
1,note_on,59,0,0
1,note_on,60,32,0
1,note_on,63,32,0
1,note_on,67,38,0
1,note_on,60,0,898
1,note_on,67,0,62
1,note_on,63,0,0
1,note_on,68,37,0
1,note_on,63,31,0
1,note_on,60,31,0
1,note_on,60,0,898
1,note_on,63,0,62
1,note_on,68,0,0
1,note_on,63,30,0
1,note_on,68,36,0
1,note_on,68,0,960
1,note_on,63,0,0
1,note_on,62,30,0
1,note_on,68,36,0
1,note_on,68,0,960
1,note_on,62,0,0
1,note_on,68,36,0
1,note_on,63,30,0
1,note_on,63,0,960
1,note_on,68,0,0
1,note_on,63,30,0
1,note_on,68,36,0
1,note_on,68,0,960
1,note_on,63,0,0
1,note_on,63,30,0
1,note_on,68,36,0
1,note_on,68,0,720
1,note_on,63,0,0
1,note_on,56,50,0
1,note_on,56,0,120
1,note_on,68,52,0
1,note_on,68,0,120
1,note_on,56,55,0
1,note_on,56,0,120
1,note_on,68,56,0
1,note_on,68,0,108
1,note_on,68,59,12
1,note_on,68,0,120
1,note_on,80,61,0
1,note_on,80,0,120
1,note_on,68,64,0
1,note_on,68,0,120
1,note_on,80,66,0
1,note_on,80,0,120
1,note_on,68,69,0
1,note_on,68,0,120
1,note_on,80,71,0
1,note_on,80,0,108
1,note_on,80,84,12
1,note_on,68,68,0
1,note_on,68,0,720
1,note_on,80,0,0
1,note_on,67,59,0
1,note_on,74,70,0
1,note_on,74,0,120
1,note_on,79,67,0
1,note_on,79,0,60
1,note_on,67,0,60
1,note_on,79,70,0
1,note_on,67,59,0
1,note_on,67,0,240
1,note_on,79,0,0
1,note_on,72,70,0
1,note_on,65,59,0
1,note_on,72,0,120
1,note_on,77,67,0
1,note_on,77,0,60
1,note_on,65,0,60
1,note_on,77,70,0
1,note_on,65,59,0
1,note_on,65,0,240
1,note_on,77,0,0
1,note_on,63,59,0
1,note_on,70,70,0
1,note_on,70,0,120
1,note_on,75,67,0
1,note_on,75,0,60
1,note_on,63,0,60
1,note_on,70,59,0
1,note_on,63,59,0
1,note_on,75,70,0
1,note_on,68,59,0
1,note_on,75,0,480
1,note_on,63,0,0
1,note_on,74,59,0
1,note_on,62,50,0
1,note_on,62,0,240
1,note_on,68,0,0
1,note_on,70,0,0
1,note_on,74,0,0
1,note_on,75,59,0
1,note_on,70,50,0
1,note_on,63,50,0
1,note_on,63,0,240
1,note_on,70,0,0
1,note_on,75,0,0
1,note_on,65,48,0
1,note_on,70,48,0
1,note_on,77,57,0
1,note_on,77,0,240
1,note_on,70,0,0
1,note_on,65,0,0
1,note_on,70,51,0
1,note_on,67,51,0
1,note_on,79,60,0
1,note_on,79,0,240
1,note_on,67,0,0
1,note_on,70,0,0
1,note_on,68,54,0
1,note_on,80,64,0
1,note_on,70,54,0
1,note_on,70,0,240
1,note_on,80,0,0
1,note_on,68,0,0
1,note_on,82,68,0
1,note_on,70,57,0
1,note_on,70,0,240
1,note_on,82,0,0
1,note_on,67,66,0
1,note_on,82,78,0
1,note_on,70,66,0
1,note_on,70,0,240
1,note_on,82,0,0
1,note_on,67,0,0
1,note_on,82,81,240
1,note_on,70,69,0
1,note_on,70,0,240
1,note_on,82,0,0
1,note_on,94,93,240
1,note_on,82,78,0
1,note_on,82,0,720
1,note_on,94,0,0
1,note_on,82,65,0
1,note_on,70,55,0
1,note_on,70,0,960
1,note_on,82,0,0
1,note_on,79,62,0
1,note_on,67,62,0
1,note_on,67,0,240
1,note_on,79,0,0
1,note_on,65,55,0
1,note_on,77,65,0
1,note_on,77,0,240
1,note_on,65,0,0
1,note_on,62,48,0
1,note_on,74,57,0
1,note_on,74,0,240
1,note_on,62,0,0
1,note_on,71,57,0
1,note_on,59,48,0
1,note_on,59,0,240
1,note_on,71,0,0
1,note_on,58,47,0
1,note_on,70,56,0
1,note_on,70,0,240
1,note_on,58,0,0
1,note_on,70,78,0
1,note_on,58,66,0
1,note_on,58,0,240
1,note_on,70,0,0
1,note_on,82,81,240
1,note_on,70,69,0
1,note_on,70,0,240
1,note_on,82,0,0
1,note_on,94,93,240
1,note_on,82,78,0
1,note_on,82,0,720
1,note_on,94,0,0
1,note_on,82,65,0
1,note_on,70,55,0
1,note_on,70,0,960
1,note_on,82,0,0
1,note_on,79,62,0
1,note_on,67,62,0
1,note_on,67,0,240
1,note_on,79,0,0
1,note_on,64,55,0
1,note_on,76,65,0
1,note_on,76,0,240
1,note_on,64,0,0
1,note_on,77,57,0
1,note_on,65,48,0
1,note_on,65,0,240
1,note_on,77,0,0
1,note_on,60,48,0
1,note_on,72,57,0
1,note_on,72,0,240
1,note_on,60,0,0
1,note_on,63,47,0
1,note_on,75,56,0
1,note_on,75,0,240
1,note_on,63,0,0
1,note_on,74,56,0
1,note_on,62,56,0
1,note_on,62,0,120
1,note_on,74,0,0
1,note_on,70,49,0
1,note_on,70,0,120
1,note_on,69,51,0
1,note_on,69,0,120
1,note_on,70,53,0
1,note_on,70,0,120
1,note_on,72,55,0
1,note_on,69,46,0
1,note_on,69,0,120
1,note_on,72,0,0
1,note_on,74,57,0
1,note_on,70,48,0
1,note_on,70,0,120
1,note_on,74,0,0
1,note_on,75,59,0
1,note_on,72,50,0
1,note_on,72,0,120
1,note_on,75,0,0
1,note_on,74,51,0
1,note_on,77,61,0
1,note_on,77,0,120
1,note_on,74,0,0
1,note_on,79,63,0
1,note_on,75,53,0
1,note_on,75,0,480
1,note_on,79,0,0
1,note_on,80,52,0
1,note_on,84,62,0
1,note_on,84,0,120
1,note_on,80,0,0
1,note_on,82,59,0
1,note_on,79,50,0
1,note_on,79,0,120
1,note_on,82,0,0
1,note_on,77,47,0
1,note_on,80,56,0
1,note_on,80,0,120
1,note_on,77,0,0
1,note_on,75,45,0
1,note_on,79,53,0
1,note_on,79,0,120
1,note_on,75,0,0
1,note_on,77,67,0
1,note_on,74,56,0
1,note_on,74,0,240
1,note_on,77,0,0
1,note_on,80,68,0
1,note_on,71,57,0
1,note_on,71,0,120
1,note_on,80,0,0
1,note_on,72,56,0
1,note_on,79,67,0
1,note_on,79,0,120
1,note_on,72,0,0
1,note_on,67,56,0
1,note_on,77,67,0
1,note_on,77,0,120
1,note_on,67,0,0
1,note_on,78,66,0
1,note_on,75,56,0
1,note_on,75,0,120
1,note_on,78,0,0
1,note_on,74,55,0
1,note_on,79,64,0
1,note_on,79,0,90
1,note_on,74,0,0
1,note_on,77,53,30
1,note_on,74,53,0
1,note_on,81,63,0
1,note_on,81,0,90
1,note_on,74,0,0
1,note_on,77,0,0
1,note_on,79,51,30
1,note_on,74,51,0
1,note_on,83,61,0
1,note_on,83,0,90
1,note_on,74,0,0
1,note_on,79,0,0
1,note_on,79,55,30
1,note_on,74,55,0
1,note_on,83,64,0
1,note_on,83,0,90
1,note_on,74,0,0
1,note_on,79,0,0
1,note_on,75,57,30
1,note_on,79,57,0
1,note_on,84,68,0
1,note_on,84,0,90
1,note_on,79,0,0
1,note_on,75,0,0
1,note_on,77,60,30
1,note_on,86,71,0
1,note_on,83,60,0
1,note_on,83,0,90
1,note_on,86,0,0
1,note_on,77,0,0
1,note_on,87,75,30
1,note_on,84,63,0
1,note_on,79,63,0
1,note_on,79,0,90
1,note_on,84,0,0
1,note_on,87,0,0
1,note_on,79,67,30
1,note_on,88,79,0
1,note_on,84,67,0
1,note_on,84,0,90
1,note_on,88,0,0
1,note_on,79,0,0
1,note_on,89,82,30
1,note_on,84,69,0
1,note_on,77,69,0
1,note_on,77,0,90
1,note_on,84,0,0
1,note_on,89,0,0
1,note_on,89,85,30
1,note_on,84,72,0
1,note_on,77,72,0
1,note_on,77,0,90
1,note_on,84,0,0
1,note_on,89,0,0
1,note_on,82,81,30
1,note_on,86,93,0
1,note_on,77,77,0
1,note_on,77,0,120
1,note_on,86,0,0
1,note_on,82,0,0
1,note_on,87,92,360
1,note_on,82,92,0
1,note_on,75,92,0
1,note_on,75,0,120
1,note_on,82,0,0
1,note_on,87,0,0
1,note_on,68,84,360
1,note_on,63,65,0
1,note_on,68,0,720
1,note_on,70,85,0
1,note_on,70,0,120
1,note_on,71,93,120
1,note_on,63,0,240
1,note_on,63,61,0
1,note_on,63,0,120
1,note_on,62,52,0
1,note_on,62,0,120
1,note_on,63,61,0
1,note_on,63,0,120
1,note_on,62,54,0
1,note_on,62,0,120
1,note_on,63,61,0
1,note_on,63,0,120
1,note_on,62,54,0
1,note_on,62,0,120
1,note_on,71,0,0
1,note_on,68,84,0
1,note_on,63,65,0
1,note_on,68,0,720
1,note_on,70,85,0
1,note_on,70,0,120
1,note_on,72,93,120
1,note_on,63,0,240
1,note_on,63,61,0
1,note_on,63,0,120
1,note_on,62,52,0
1,note_on,62,0,120
1,note_on,63,61,0
1,note_on,63,0,120
1,note_on,62,54,0
1,note_on,62,0,120
1,note_on,63,61,0
1,note_on,63,0,120
1,note_on,62,54,0
1,note_on,62,0,120
1,note_on,72,0,0
1,note_on,71,70,0
1,note_on,71,0,240
1,note_on,63,51,0
1,note_on,63,0,120
1,note_on,62,44,0
1,note_on,62,0,120
1,note_on,63,51,0
1,note_on,63,0,120
1,note_on,62,43,0
1,note_on,62,0,120
1,note_on,63,51,0
1,note_on,63,0,120
1,note_on,62,45,0
1,note_on,62,0,120
1,note_on,70,70,0
1,note_on,70,0,240
1,note_on,65,51,0
1,note_on,65,0,120
1,note_on,64,44,0
1,note_on,64,0,120
1,note_on,65,51,0
1,note_on,65,0,120
1,note_on,64,43,0
1,note_on,64,0,120
1,note_on,65,51,0
1,note_on,65,0,120
1,note_on,64,45,0
1,note_on,64,0,120
1,note_on,70,70,0
1,note_on,70,0,120
1,note_on,67,51,120
1,note_on,67,0,120
1,note_on,65,44,0
1,note_on,65,0,120
1,note_on,70,70,0
1,note_on,70,0,120
1,note_on,65,51,120
1,note_on,65,0,120
1,note_on,63,44,0
1,note_on,63,0,120
1,note_on,70,70,0
1,note_on,70,0,120
1,note_on,63,51,120
1,note_on,63,0,120
1,note_on,62,44,0
1,note_on,62,0,120
1,note_on,70,70,0
1,note_on,70,0,120
1,note_on,65,51,120
1,note_on,65,0,120
1,note_on,63,44,0
1,note_on,63,0,120
1,note_on,83,70,0
1,note_on,83,0,240
1,note_on,75,51,0
1,note_on,75,0,120
1,note_on,74,44,0
1,note_on,74,0,120
1,note_on,75,51,0
1,note_on,75,0,120
1,note_on,74,43,0
1,note_on,74,0,120
1,note_on,75,51,0
1,note_on,75,0,120
1,note_on,74,45,0
1,note_on,74,0,120
1,note_on,82,70,0
1,note_on,82,0,240
1,note_on,77,51,0
1,note_on,77,0,120
1,note_on,76,44,0
1,note_on,76,0,120
1,note_on,77,51,0
1,note_on,77,0,120
1,note_on,76,43,0
1,note_on,76,0,120
1,note_on,77,51,0
1,note_on,77,0,120
1,note_on,76,45,0
1,note_on,76,0,120
1,note_on,82,70,0
1,note_on,82,0,120
1,note_on,79,51,120
1,note_on,79,0,120
1,note_on,77,44,0
1,note_on,77,0,120
1,note_on,82,70,0
1,note_on,82,0,120
1,note_on,77,51,120
1,note_on,77,0,120
1,note_on,76,44,0
1,note_on,76,0,120
1,note_on,82,70,0
1,note_on,82,0,120
1,note_on,79,51,120
1,note_on,79,0,120
1,note_on,77,44,0
1,note_on,77,0,120
1,note_on,82,64,0
1,note_on,82,0,240
1,note_on,80,70,0
1,note_on,77,59,0
1,note_on,70,45,240
1,note_on,77,0,240
1,note_on,80,0,0
1,note_on,79,65,0
1,note_on,75,55,0
1,note_on,75,0,240
1,note_on,79,0,0
1,note_on,70,0,0
1,note_on,77,65,0
1,note_on,74,55,0
1,note_on,74,0,240
1,note_on,77,0,0
1,note_on,89,59,0
1,note_on,92,70,0
1,note_on,82,45,240
1,note_on,92,0,240
1,note_on,89,0,0
1,note_on,87,55,0
1,note_on,91,65,0
1,note_on,91,0,240
1,note_on,87,0,0
1,note_on,82,0,0
1,note_on,89,65,0
1,note_on,86,55,0
1,note_on,86,0,240
1,note_on,89,0,0
1,note_on,86,64,0
1,note_on,89,64,0
1,note_on,96,77,0
1,note_on,89,0,240
1,note_on,86,0,0
1,note_on,87,65,0
1,note_on,82,65,0
1,note_on,82,0,240
1,note_on,87,0,0
1,note_on,96,0,0
1,note_on,94,75,0
1,note_on,87,63,0
1,note_on,82,63,0
1,note_on,82,0,240
1,note_on,87,0,0
1,note_on,94,0,0
1,note_on,87,69,0
1,note_on,84,69,0
1,note_on,84,0,240
1,note_on,87,0,0
1,note_on,92,79,0
1,note_on,89,67,0
1,note_on,86,67,0
1,note_on,86,0,240
1,note_on,89,0,0
1,note_on,92,0,0
1,note_on,79,70,0
1,note_on,91,88,0
1,note_on,82,49,120
1,note_on,82,0,120
1,note_on,84,55,0
1,note_on,84,0,120
1,note_on,82,50,0
1,note_on,82,0,120
1,note_on,84,55,0
1,note_on,84,0,120
1,note_on,82,47,0
1,note_on,82,0,120
1,note_on,84,55,0
1,note_on,84,0,120
1,note_on,82,48,0
1,note_on,82,0,120
1,note_on,91,0,0
1,note_on,79,0,0
1,note_on,77,70,0
1,note_on,89,80,0
1,note_on,80,46,120
1,note_on,80,0,120
1,note_on,82,54,0
1,note_on,82,0,120
1,note_on,80,50,0
1,note_on,80,0,120
1,note_on,82,53,0
1,note_on,82,0,120
1,note_on,80,47,0
1,note_on,80,0,120
1,note_on,82,53,0
1,note_on,82,0,120
1,note_on,80,48,0
1,note_on,80,0,120
1,note_on,89,0,0
1,note_on,77,0,0
1,note_on,87,70,0
1,note_on,79,53,0
1,note_on,79,0,120
1,note_on,75,48,0
1,note_on,75,0,120
1,note_on,77,53,0
1,note_on,77,0,120
1,note_on,75,48,0
1,note_on,75,0,120
1,note_on,87,0,0
1,note_on,84,68,0
1,note_on,75,48,120
1,note_on,75,0,120
1,note_on,84,0,0
1,note_on,82,60,0
1,note_on,75,48,120
1,note_on,75,0,120
1,note_on,82,0,0
1,note_on,82,68,0
1,note_on,75,53,0
1,note_on,75,0,120
1,note_on,70,48,0
1,note_on,70,0,120
1,note_on,82,0,0
1,note_on,74,53,0
1,note_on,80,58,0
1,note_on,74,0,120
1,note_on,70,48,0
1,note_on,70,0,120
1,note_on,80,0,0
1,note_on,75,53,0
1,note_on,79,66,0
1,note_on,75,0,120
1,note_on,70,48,0
1,note_on,70,0,120
1,note_on,79,0,0
1,note_on,68,53,0
1,note_on,77,57,0
1,note_on,68,0,120
1,note_on,70,48,0
1,note_on,70,0,120
1,note_on,77,0,0
1,note_on,67,65,0
1,note_on,79,79,0
1,note_on,70,44,120
1,note_on,70,0,120
1,note_on,72,49,0
1,note_on,72,0,120
1,note_on,70,45,0
1,note_on,70,0,120
1,note_on,72,49,0
1,note_on,72,0,120
1,note_on,70,42,0
1,note_on,70,0,120
1,note_on,72,49,0
1,note_on,72,0,120
1,note_on,70,43,0
1,note_on,70,0,120
1,note_on,79,0,0
1,note_on,67,0,0
1,note_on,65,65,0
1,note_on,77,72,0
1,note_on,68,41,120
1,note_on,68,0,120
1,note_on,70,48,0
1,note_on,70,0,120
1,note_on,68,45,0
1,note_on,68,0,120
1,note_on,70,47,0
1,note_on,70,0,120
1,note_on,68,42,0
1,note_on,68,0,120
1,note_on,70,47,0
1,note_on,70,0,120
1,note_on,68,43,0
1,note_on,68,0,120
1,note_on,77,0,0
1,note_on,65,0,0
1,note_on,67,47,0
1,note_on,75,63,0
1,note_on,67,0,120
1,note_on,63,43,0
1,note_on,63,0,120
1,note_on,65,47,0
1,note_on,65,0,120
1,note_on,63,43,0
1,note_on,63,0,120
1,note_on,75,0,0
1,note_on,72,61,0
1,note_on,60,47,0
1,note_on,68,51,0
1,note_on,60,0,120
1,note_on,63,43,0
1,note_on,63,0,120
1,note_on,68,0,0
1,note_on,72,0,0
1,note_on,67,45,0
1,note_on,58,47,0
1,note_on,70,54,0
1,note_on,58,0,120
1,note_on,63,43,0
1,note_on,63,0,120
1,note_on,70,0,0
1,note_on,67,0,0
1,note_on,67,47,0
1,note_on,70,61,0
1,note_on,67,0,120
1,note_on,58,43,0
1,note_on,58,0,120
1,note_on,70,0,0
1,note_on,68,52,0
1,note_on,65,47,0
1,note_on,65,0,120
1,note_on,56,43,0
1,note_on,56,0,120
1,note_on,68,0,0
1,note_on,67,59,0
1,note_on,63,47,0
1,note_on,63,0,120
1,note_on,55,43,0
1,note_on,55,0,120
1,note_on,67,0,0
1,note_on,65,51,0
1,note_on,62,51,0
1,note_on,53,43,120
1,note_on,53,0,120
1,note_on,62,0,0
1,note_on,65,0,0
1,note_on,63,57,0
1,note_on,59,46,120
1,note_on,55,55,120
1,note_on,55,0,240
1,note_on,59,0,0
1,note_on,63,0,120
1,note_on,58,47,10
1,note_on,55,47,110
1,note_on,58,0,10
1,note_on,55,0,110
1,note_on,63,47,0
1,note_on,58,47,120
1,note_on,63,0,120
1,note_on,63,47,0
1,note_on,63,0,120
1,note_on,62,51,0
1,note_on,62,0,120
1,note_on,63,49,0
1,note_on,63,0,120
1,note_on,58,0,0
1,note_on,65,52,0
1,note_on,65,0,120
1,note_on,67,44,0
1,note_on,67,0,120
1,note_on,68,51,0
1,note_on,68,0,120
1,note_on,65,47,0
1,note_on,65,0,120
1,note_on,75,57,0
1,note_on,71,46,120
1,note_on,67,55,120
1,note_on,67,0,240
1,note_on,71,0,0
1,note_on,75,0,120
1,note_on,70,47,10
1,note_on,67,47,110
1,note_on,70,0,10
1,note_on,67,0,110
1,note_on,75,47,0
1,note_on,70,47,120
1,note_on,75,0,120
1,note_on,75,47,0
1,note_on,75,0,120
1,note_on,74,51,0
1,note_on,74,0,120
1,note_on,75,49,0
1,note_on,75,0,120
1,note_on,70,0,0
1,note_on,77,52,0
1,note_on,77,0,120
1,note_on,79,44,0
1,note_on,79,0,120
1,note_on,80,51,0
1,note_on,80,0,120
1,note_on,77,47,0
1,note_on,77,0,120
1,note_on,79,51,0
1,note_on,79,0,120
1,note_on,77,42,0
1,note_on,77,0,120
1,note_on,75,49,0
1,note_on,75,0,360
1,note_on,72,41,0
1,note_on,72,0,120
1,note_on,70,48,0
1,note_on,70,0,360
1,note_on,68,42,0
1,note_on,68,0,120
1,note_on,67,48,0
1,note_on,67,0,360
1,note_on,65,42,0
1,note_on,65,0,120
1,note_on,63,47,0
1,note_on,63,0,360
1,note_on,60,41,0
1,note_on,60,0,120
1,note_on,58,47,0
1,note_on,58,0,360
1,note_on,56,38,0
1,note_on,56,0,120
1,note_on,55,43,0
1,note_on,55,0,360
1,note_on,53,37,0
1,note_on,53,0,120
1,note_on,51,44,0
1,note_on,51,0,360
1,note_on,53,36,0
1,note_on,53,0,120
1,note_on,51,41,0
1,note_on,51,0,480
1,note_on,75,45,1680
1,note_on,82,53,0
1,note_on,82,0,960
1,note_on,75,0,0
1,note_on,85,55,0
1,note_on,73,46,0
1,note_on,73,0,960
1,note_on,85,0,0
1,note_on,84,84,0
1,note_on,72,70,0
1,note_on,72,0,720
1,note_on,84,0,0
1,note_on,72,59,0
1,note_on,77,70,0
1,note_on,77,0,120
1,note_on,72,0,0
1,note_on,73,56,0
1,note_on,82,67,0
1,note_on,82,0,60
1,note_on,73,0,0
1,note_on,82,70,60
1,note_on,73,59,0
1,note_on,73,0,240
1,note_on,82,0,0
1,note_on,70,59,0
1,note_on,75,70,0
1,note_on,75,0,120
1,note_on,70,0,0
1,note_on,72,56,0
1,note_on,80,67,0
1,note_on,80,0,60
1,note_on,72,0,0
1,note_on,80,70,60
1,note_on,72,59,0
1,note_on,72,0,240
1,note_on,80,0,0
1,note_on,68,59,0
1,note_on,73,70,0
1,note_on,73,0,120
1,note_on,68,0,0
1,note_on,79,67,0
1,note_on,70,56,0
1,note_on,70,0,60
1,note_on,79,0,0
1,note_on,79,70,60
1,note_on,70,59,0
1,note_on,70,0,240
1,note_on,79,0,0
1,note_on,72,70,0
1,note_on,67,59,0
1,note_on,67,0,120
1,note_on,72,0,0
1,note_on,68,56,0
1,note_on,77,67,0
1,note_on,77,0,60
1,note_on,68,0,0
1,note_on,68,59,60
1,note_on,77,70,0
1,note_on,77,0,238
1,note_on,68,0,0
1,note_on,77,70,2
1,note_on,65,59,0
1,note_on,65,0,238
1,note_on,77,0,0
1,note_on,77,70,2
1,note_on,65,59,0
1,note_on,65,0,480
1,note_on,77,0,0
1,note_on,64,50,0
1,note_on,76,59,0
1,note_on,76,0,240
1,note_on,64,0,0
1,note_on,72,50,0
1,note_on,65,50,0
1,note_on,77,59,0
1,note_on,77,0,240
1,note_on,65,0,0
1,note_on,72,0,0
1,note_on,72,48,0
1,note_on,67,48,0
1,note_on,79,57,0
1,note_on,79,0,240
1,note_on,67,0,0
1,note_on,72,0,0
1,note_on,80,60,0
1,note_on,72,51,0
1,note_on,68,51,0
1,note_on,68,0,240
1,note_on,72,0,0
1,note_on,80,0,0
1,note_on,70,54,0
1,note_on,72,54,0
1,note_on,82,64,0
1,note_on,82,0,240
1,note_on,72,0,0
1,note_on,70,0,0
1,note_on,67,57,0
1,note_on,72,57,0
1,note_on,76,57,0
1,note_on,79,68,0
1,note_on,79,0,240
1,note_on,67,0,0
1,note_on,72,0,0
1,note_on,76,0,0
1,note_on,77,66,0
1,note_on,68,66,0
1,note_on,80,78,0
1,note_on,72,66,0
1,note_on,72,0,240
1,note_on,77,0,0
1,note_on,68,0,0
1,note_on,80,0,0
1,note_on,72,75,240
1,note_on,84,89,0
1,note_on,84,0,240
1,note_on,72,0,0
1,note_on,96,102,240
1,note_on,84,85,0
1,note_on,84,0,720
1,note_on,96,0,0
1,note_on,84,65,0
1,note_on,72,55,0
1,note_on,72,0,960
1,note_on,84,0,0
1,note_on,80,62,0
1,note_on,68,62,0
1,note_on,68,0,240
1,note_on,80,0,0
1,note_on,67,55,0
1,note_on,79,65,0
1,note_on,79,0,240
1,note_on,67,0,0
1,note_on,76,57,0
1,note_on,64,48,0
1,note_on,64,0,240
1,note_on,76,0,0
1,note_on,61,48,0
1,note_on,73,57,0
1,note_on,73,0,240
1,note_on,61,0,0
1,note_on,72,56,0
1,note_on,60,47,0
1,note_on,60,0,238
1,note_on,72,0,0
1,note_on,60,66,2
1,note_on,72,78,0
1,note_on,72,0,240
1,note_on,60,0,0
1,note_on,72,75,240
1,note_on,84,89,0
1,note_on,84,0,240
1,note_on,72,0,0
1,note_on,84,85,240
1,note_on,96,102,0
1,note_on,96,0,720
1,note_on,84,0,0
1,note_on,84,65,0
1,note_on,72,55,0
1,note_on,72,0,960
1,note_on,84,0,0
1,note_on,68,62,0
1,note_on,80,62,0
1,note_on,80,0,240
1,note_on,68,0,0
1,note_on,77,65,0
1,note_on,65,55,0
1,note_on,65,0,240
1,note_on,77,0,0
1,note_on,74,57,0
1,note_on,62,48,0
1,note_on,62,0,240
1,note_on,74,0,0
1,note_on,71,57,0
1,note_on,59,48,0
1,note_on,59,0,240
1,note_on,71,0,0
1,note_on,70,56,0
1,note_on,58,47,0
1,note_on,58,0,240
1,note_on,70,0,0
1,note_on,70,78,0
1,note_on,58,66,0
1,note_on,58,0,240
1,note_on,70,0,0
1,note_on,70,75,240
1,note_on,82,89,0
1,note_on,82,0,240
1,note_on,70,0,0
1,note_on,94,102,240
1,note_on,82,85,0
1,note_on,82,0,720
1,note_on,94,0,0
1,note_on,82,65,0
1,note_on,70,55,0
1,note_on,70,0,960
1,note_on,82,0,0
1,note_on,66,62,0
1,note_on,78,62,0
1,note_on,78,0,240
1,note_on,66,0,0
1,note_on,65,55,0
1,note_on,77,65,0
1,note_on,77,0,240
1,note_on,65,0,0
1,note_on,74,57,0
1,note_on,62,48,0
1,note_on,62,0,240
1,note_on,74,0,0
1,note_on,59,48,0
1,note_on,71,57,0
1,note_on,71,0,240
1,note_on,59,0,0
1,note_on,70,56,0
1,note_on,58,47,0
1,note_on,58,0,238
1,note_on,70,0,0
1,note_on,70,78,2
1,note_on,58,66,0
1,note_on,58,0,240
1,note_on,70,0,0
1,note_on,82,89,240
1,note_on,70,75,0
1,note_on,70,0,240
1,note_on,82,0,0
1,note_on,82,78,240
1,note_on,94,90,0
1,note_on,94,0,240
1,note_on,82,0,0
1,note_on,83,86,240
1,note_on,95,103,0
1,note_on,95,0,240
1,note_on,83,0,0
1,note_on,71,55,240
1,note_on,71,0,960
1,note_on,70,50,0
1,note_on,70,0,960
1,note_on,68,48,0
1,note_on,68,0,240
1,note_on,72,55,1680
1,note_on,72,0,960
1,note_on,70,50,0
1,note_on,70,0,960
1,note_on,69,48,0
1,note_on,69,0,240
1,note_on,77,55,1680
1,note_on,77,0,960
1,note_on,75,50,0
1,note_on,75,0,960
1,note_on,74,48,0
1,note_on,74,0,240
1,note_on,70,51,1680
1,note_on,82,60,0
1,note_on,82,0,960
1,note_on,70,0,0
1,note_on,68,52,0
1,note_on,80,61,0
1,note_on,80,0,960
1,note_on,68,0,0
1,note_on,67,59,0
1,note_on,79,70,0
1,note_on,79,0,1440
1,note_on,67,0,0
1,note_on,68,38,0
1,note_on,80,45,0
1,note_on,80,0,240
1,note_on,68,0,0
1,note_on,65,34,0
1,note_on,77,40,0
1,note_on,77,0,240
1,note_on,65,0,0
1,note_on,75,39,0
1,note_on,79,47,0
1,note_on,79,0,960
1,note_on,75,0,0
1,note_on,70,40,0
1,note_on,77,48,0
1,note_on,77,0,960
1,note_on,70,0,0
1,note_on,67,40,0
1,note_on,75,48,0
1,note_on,75,0,480
1,note_on,67,0,0
1,note_on,68,35,0
1,note_on,72,42,0
1,note_on,72,0,240
1,note_on,68,0,0
1,note_on,70,41,0
1,note_on,67,34,0
1,note_on,67,0,238
1,note_on,70,0,0
1,note_on,67,39,2
1,note_on,70,46,0
1,note_on,70,0,240
1,note_on,67,0,0
1,note_on,65,34,0
1,note_on,68,40,0
1,note_on,68,0,240
1,note_on,65,0,0
1,note_on,63,34,0
1,note_on,67,40,0
1,note_on,67,0,240
1,note_on,63,0,0
1,note_on,58,34,0
1,note_on,65,40,0
1,note_on,65,0,240
1,note_on,58,0,0
1,note_on,63,42,0
1,note_on,63,0,120
1,note_on,58,36,0
1,note_on,58,0,120
1,note_on,60,36,0
1,note_on,60,0,120
1,note_on,58,36,0
1,note_on,58,0,120
1,note_on,57,42,0
1,note_on,57,0,120
1,note_on,58,36,0
1,note_on,58,0,120
1,note_on,67,36,0
1,note_on,67,0,120
1,note_on,63,36,0
1,note_on,63,0,120
1,note_on,62,42,0
1,note_on,62,0,120
1,note_on,63,36,0
1,note_on,63,0,120
1,note_on,65,36,0
1,note_on,65,0,120
1,note_on,67,36,0
1,note_on,67,0,120
1,note_on,68,42,0
1,note_on,68,0,120
1,note_on,69,37,0
1,note_on,69,0,120
1,note_on,72,37,0
1,note_on,72,0,120
1,note_on,70,37,0
1,note_on,70,0,120
1,note_on,69,42,0
1,note_on,69,0,120
1,note_on,70,35,0
1,note_on,70,0,120
1,note_on,72,35,0
1,note_on,72,0,120
1,note_on,70,35,0
1,note_on,70,0,120
1,note_on,69,42,0
1,note_on,69,0,120
1,note_on,70,35,0
1,note_on,70,0,120
1,note_on,79,35,0
1,note_on,79,0,120
1,note_on,75,35,0
1,note_on,75,0,120
1,note_on,74,47,0
1,note_on,74,0,120
1,note_on,75,40,0
1,note_on,75,0,120
1,note_on,77,40,0
1,note_on,77,0,120
1,note_on,79,40,0
1,note_on,79,0,120
1,note_on,80,48,0
1,note_on,80,0,120
1,note_on,81,39,0
1,note_on,81,0,120
1,note_on,84,39,0
1,note_on,84,0,120
1,note_on,82,39,0
1,note_on,82,0,120
1,note_on,81,46,0
1,note_on,81,0,120
1,note_on,82,38,0
1,note_on,82,0,120
1,note_on,84,39,0
1,note_on,84,0,120
1,note_on,82,39,0
1,note_on,82,0,120
1,note_on,81,48,0
1,note_on,81,0,120
1,note_on,82,40,0
1,note_on,82,0,120
1,note_on,91,41,0
1,note_on,91,0,120
1,note_on,87,41,0
1,note_on,87,0,120
1,note_on,86,57,0
1,note_on,86,0,120
1,note_on,87,50,0
1,note_on,87,0,120
1,note_on,89,50,0
1,note_on,89,0,120
1,note_on,91,51,0
1,note_on,91,0,120
1,note_on,92,61,0
1,note_on,92,0,120
1,note_on,93,50,0
1,note_on,93,0,120
1,note_on,96,50,0
1,note_on,96,0,120
1,note_on,94,51,0
1,note_on,94,0,120
1,note_on,93,63,0
1,note_on,93,0,120
1,note_on,94,54,0
1,note_on,94,0,120
1,note_on,92,53,0
1,note_on,92,0,120
1,note_on,91,53,0
1,note_on,91,0,120
1,note_on,89,60,0
1,note_on,89,0,120
1,note_on,87,51,0
1,note_on,87,0,120
1,note_on,86,51,0
1,note_on,86,0,120
1,note_on,84,50,0
1,note_on,84,0,120
1,note_on,82,59,0
1,note_on,82,0,120
1,note_on,80,45,0
1,note_on,80,0,120
1,note_on,79,45,0
1,note_on,79,0,120
1,note_on,77,45,0
1,note_on,77,0,120
1,note_on,75,52,0
1,note_on,75,0,120
1,note_on,74,47,0
1,note_on,74,0,120
1,note_on,77,43,0
1,note_on,77,0,120
1,note_on,80,41,0
1,note_on,80,0,120
1,note_on,75,39,0
1,note_on,79,47,0
1,note_on,79,0,960
1,note_on,75,0,0
1,note_on,70,40,0
1,note_on,77,48,0
1,note_on,77,0,960
1,note_on,70,0,0
1,note_on,67,40,0
1,note_on,75,48,0
1,note_on,75,0,480
1,note_on,67,0,0
1,note_on,68,35,0
1,note_on,72,42,0
1,note_on,72,0,240
1,note_on,68,0,0
1,note_on,70,41,0
1,note_on,67,34,0
1,note_on,67,0,238
1,note_on,70,0,0
1,note_on,67,39,2
1,note_on,70,46,0
1,note_on,70,0,240
1,note_on,67,0,0
1,note_on,65,34,0
1,note_on,68,40,0
1,note_on,68,0,240
1,note_on,65,0,0
1,note_on,63,34,0
1,note_on,67,40,0
1,note_on,67,0,240
1,note_on,63,0,0
1,note_on,58,34,0
1,note_on,65,40,0
1,note_on,65,0,240
1,note_on,58,0,0
1,note_on,63,42,0
1,note_on,63,0,120
1,note_on,58,36,0
1,note_on,58,0,120
1,note_on,60,36,0
1,note_on,60,0,120
1,note_on,58,36,0
1,note_on,58,0,120
1,note_on,57,42,0
1,note_on,57,0,120
1,note_on,58,36,0
1,note_on,58,0,120
1,note_on,67,36,0
1,note_on,67,0,120
1,note_on,63,36,0
1,note_on,63,0,120
1,note_on,62,42,0
1,note_on,62,0,120
1,note_on,63,36,0
1,note_on,63,0,120
1,note_on,65,36,0
1,note_on,65,0,120
1,note_on,67,36,0
1,note_on,67,0,120
1,note_on,68,42,0
1,note_on,68,0,120
1,note_on,69,37,0
1,note_on,69,0,120
1,note_on,72,37,0
1,note_on,72,0,120
1,note_on,70,37,0
1,note_on,70,0,120
1,note_on,69,42,0
1,note_on,69,0,120
1,note_on,70,35,0
1,note_on,70,0,120
1,note_on,72,35,0
1,note_on,72,0,120
1,note_on,70,35,0
1,note_on,70,0,120
1,note_on,69,42,0
1,note_on,69,0,120
1,note_on,70,37,0
1,note_on,70,0,120
1,note_on,79,37,0
1,note_on,79,0,120
1,note_on,75,37,0
1,note_on,75,0,120
1,note_on,74,51,0
1,note_on,74,0,120
1,note_on,75,42,0
1,note_on,75,0,120
1,note_on,77,42,0
1,note_on,77,0,120
1,note_on,79,42,0
1,note_on,79,0,120
1,note_on,80,51,0
1,note_on,80,0,120
1,note_on,81,43,0
1,note_on,81,0,120
1,note_on,84,42,0
1,note_on,84,0,120
1,note_on,82,42,0
1,note_on,82,0,120
1,note_on,81,53,0
1,note_on,81,0,120
1,note_on,82,44,0
1,note_on,82,0,120
1,note_on,84,45,0
1,note_on,84,0,120
1,note_on,82,46,0
1,note_on,82,0,120
1,note_on,81,54,0
1,note_on,81,0,120
1,note_on,82,45,0
1,note_on,82,0,120
1,note_on,91,47,0
1,note_on,91,0,120
1,note_on,87,47,0
1,note_on,87,0,120
1,note_on,86,57,0
1,note_on,86,0,120
1,note_on,87,50,0
1,note_on,87,0,120
1,note_on,89,50,0
1,note_on,89,0,120
1,note_on,91,51,0
1,note_on,91,0,120
1,note_on,92,65,0
1,note_on,92,0,120
1,note_on,93,52,0
1,note_on,93,0,120
1,note_on,96,54,0
1,note_on,96,0,120
1,note_on,94,51,0
1,note_on,94,0,118
1,note_on,94,73,2
1,note_on,94,0,120
1,note_on,70,47,0
1,note_on,70,0,120
1,note_on,72,47,0
1,note_on,72,0,120
1,note_on,70,47,0
1,note_on,70,0,120
1,note_on,69,56,0
1,note_on,69,0,120
1,note_on,70,41,0
1,note_on,70,0,120
1,note_on,79,42,0
1,note_on,79,0,120
1,note_on,75,44,0
1,note_on,75,0,120
1,note_on,74,59,0
1,note_on,74,0,120
1,note_on,75,48,0
1,note_on,75,0,120
1,note_on,77,45,0
1,note_on,77,0,120
1,note_on,79,42,0
1,note_on,79,0,120
1,note_on,80,54,0
1,note_on,80,0,120
1,note_on,81,41,0
1,note_on,81,0,120
1,note_on,84,41,0
1,note_on,84,0,120
1,note_on,82,41,0
1,note_on,82,0,120
1,note_on,82,60,0
1,note_on,82,0,120
1,note_on,58,39,0
1,note_on,58,0,120
1,note_on,60,36,0
1,note_on,60,0,120
1,note_on,58,36,0
1,note_on,58,0,120
1,note_on,57,45,0
1,note_on,57,0,120
1,note_on,58,34,0
1,note_on,58,0,120
1,note_on,67,34,0
1,note_on,67,0,120
1,note_on,63,37,0
1,note_on,63,0,120
1,note_on,57,50,0
1,note_on,57,0,120
1,note_on,58,37,0
1,note_on,58,0,120
1,note_on,68,35,0
1,note_on,68,0,120
1,note_on,65,35,0
1,note_on,65,0,120
1,note_on,62,45,0
1,note_on,62,0,120
1,note_on,72,39,0
1,note_on,72,0,120
1,note_on,70,39,0
1,note_on,70,0,120
1,note_on,62,39,0
1,note_on,62,0,120
1,note_on,63,55,0
1,note_on,63,0,960
1,note_on,58,50,0
1,note_on,58,0,960
1,note_on,55,48,0
1,note_on,55,0,240
1,note_on,63,46,1680
1,note_on,67,55,0
1,note_on,67,0,960
1,note_on,63,0,0
1,note_on,65,50,0
1,note_on,58,42,0
1,note_on,58,0,960
1,note_on,65,0,0
1,note_on,63,48,0
1,note_on,55,40,0
1,note_on,55,0,240
1,note_on,63,0,0
1,note_on,63,31,1440
1,note_on,67,39,0
1,note_on,67,0,240
1,note_on,63,0,0
1,note_on,58,42,0
1,note_on,65,52,0
1,note_on,65,0,960
1,note_on,58,0,0
1,note_on,55,37,0
1,note_on,63,46,0
1,note_on,63,0,240
1,note_on,55,0,0
1,note_on,75,31,480
1,note_on,79,39,0
1,note_on,79,0,240
1,note_on,75,0,0
1,note_on,70,44,0
1,note_on,77,46,0
1,note_on,77,0,960
1,note_on,70,0,0
1,note_on,67,33,0
1,note_on,75,39,0
1,note_on,75,0,240
1,note_on,67,0,0
1,note_on,87,37,480
1,note_on,91,45,0
1,note_on,91,0,240
1,note_on,87,0,0
1,note_on,87,41,240
1,note_on,91,49,0
1,note_on,91,0,240
1,note_on,87,0,0
1,note_on,82,45,0
1,note_on,89,53,0
1,note_on,89,0,240
1,note_on,82,0,0
1,note_on,87,50,0
1,note_on,79,42,0
1,note_on,79,0,238
1,note_on,87,0,0
1,note_on,79,41,2
1,note_on,87,49,0
1,note_on,79,0,238
1,note_on,87,0,2
1,note_on,63,38,960
1,note_on,67,45,0
1,note_on,67,0,240
1,note_on,63,0,0
1,note_on,58,41,0
1,note_on,65,49,0
1,note_on,65,0,240
1,note_on,58,0,0
1,note_on,63,46,0
1,note_on,55,39,0
1,note_on,55,0,238
1,note_on,63,0,0
1,note_on,55,38,2
1,note_on,63,45,0
1,note_on,55,0,238
1,note_on,63,0,2
1,note_on,53,43,720
1,note_on,58,51,0
1,note_on,53,0,478
1,note_on,58,0,242
1,note_on,51,46,0
1,note_on,55,55,0
1,note_on,55,0,120
1,note_on,51,0,0
1,note_on,53,48,120
1,note_on,58,57,0
1,note_on,53,0,478
1,note_on,58,0,242
1,note_on,51,52,0
1,note_on,55,62,0
1,note_on,55,0,120
1,note_on,51,0,0
1,note_on,53,53,120
1,note_on,58,63,0
1,note_on,53,0,478
1,note_on,58,0,242
1,note_on,51,56,0
1,note_on,55,67,0
1,note_on,55,0,120
1,note_on,51,0,0
1,note_on,50,59,120
1,note_on,53,59,0
1,note_on,58,70,0
1,note_on,58,0,720
1,note_on,53,0,0
1,note_on,50,0,0
1,note_on,62,75,0
1,note_on,53,63,0
1,note_on,56,63,0
1,note_on,56,0,120
1,note_on,53,0,0
1,note_on,62,0,0
1,note_on,55,41,120
1,note_on,63,41,0
1,note_on,63,0,240
1,note_on,55,0,0
1,note_on,63,41,1680
1,note_on,63,0,120
1,note_on,65,35,0
1,note_on,65,0,120
1,note_on,63,35,0
1,note_on,63,0,120
1,note_on,62,35,0
1,note_on,62,0,120
1,note_on,63,41,0
1,note_on,63,0,120
1,note_on,65,37,0
1,note_on,65,0,120
1,note_on,67,37,0
1,note_on,67,0,120
1,note_on,68,37,0
1,note_on,68,0,120
1,note_on,70,46,0
1,note_on,70,0,120
1,note_on,72,40,0
1,note_on,72,0,120
1,note_on,74,41,0
1,note_on,74,0,120
1,note_on,75,43,0
1,note_on,75,0,120
1,note_on,77,44,0
1,note_on,77,0,120
1,note_on,79,45,0
1,note_on,79,0,120
1,note_on,80,47,0
1,note_on,80,0,120
1,note_on,82,48,0
1,note_on,82,0,120
1,note_on,84,55,0
1,note_on,84,0,160
1,note_on,86,48,0
1,note_on,86,0,160
1,note_on,87,49,0
1,note_on,87,0,160
1,note_on,89,51,0
1,note_on,89,0,120
1,note_on,91,54,0
1,note_on,91,0,120
1,note_on,92,58,0
1,note_on,92,0,120
1,note_on,94,61,0
1,note_on,94,0,120
1,note_on,96,64,0
1,note_on,96,0,480
1,note_on,94,52,0
1,note_on,94,0,240
1,note_on,87,57,240
1,note_on,87,0,120
1,note_on,89,42,0
1,note_on,89,0,120
1,note_on,87,43,0
1,note_on,87,0,120
1,note_on,86,45,0
1,note_on,86,0,120
1,note_on,87,47,0
1,note_on,87,0,96
1,note_on,89,48,0
1,note_on,89,0,96
1,note_on,91,49,0
1,note_on,91,0,96
1,note_on,92,51,0
1,note_on,92,0,96
1,note_on,94,52,0
1,note_on,94,0,96
1,note_on,96,62,0
1,note_on,96,0,480
1,note_on,94,48,0
1,note_on,94,0,240
1,note_on,87,65,240
1,note_on,87,0,120
1,note_on,89,50,0
1,note_on,89,0,120
1,note_on,87,54,0
1,note_on,87,0,120
1,note_on,86,58,0
1,note_on,86,0,120
1,note_on,87,62,0
1,note_on,87,0,96
1,note_on,89,64,0
1,note_on,89,0,96
1,note_on,91,67,0
1,note_on,91,0,96
1,note_on,92,71,0
1,note_on,92,0,96
1,note_on,94,74,0
1,note_on,94,0,96
1,note_on,84,77,0
1,note_on,96,77,0
1,note_on,96,0,960
1,note_on,84,0,0
1,note_on,82,68,0
1,note_on,94,68,0
1,note_on,94,0,240
1,note_on,82,0,0
1,note_on,53,79,720
1,note_on,56,79,0
1,note_on,58,79,0
1,note_on,62,93,0
1,note_on,62,0,120
1,note_on,53,0,0
1,note_on,56,0,0
1,note_on,58,0,0
1,note_on,55,79,840
1,note_on,58,79,0
1,note_on,63,93,0
1,note_on,63,0,120
1,note_on,58,0,0
1,note_on,55,0,0
2,note_on,36,27,960
2,note_on,48,32,0
2,note_on,48,0,720
2,note_on,36,0,0
2,note_on,48,27,0
2,note_on,51,32,0
2,note_on,51,0,240
2,note_on,48,0,0
2,note_on,46,28,0
2,note_on,52,33,0
2,note_on,52,0,238
2,note_on,46,0,0
2,note_on,46,28,2
2,note_on,52,34,0
2,note_on,52,0,238
2,note_on,46,0,0
2,note_on,45,30,2
2,note_on,53,36,0
2,note_on,53,0,240
2,note_on,45,0,0
2,note_on,54,38,0
2,note_on,44,32,0
2,note_on,44,0,240
2,note_on,54,0,0
2,note_on,55,40,0
2,note_on,43,34,0
2,note_on,55,0,240
2,note_on,57,26,0
2,note_on,57,0,240
2,note_on,59,29,0
2,note_on,59,0,240
2,note_on,43,0,0
2,note_on,67,44,240
2,note_on,55,44,0
2,note_on,67,0,240
2,note_on,69,37,0
2,note_on,69,0,240
2,note_on,71,33,0
2,note_on,71,0,240
2,note_on,55,0,0
2,note_on,70,33,0
2,note_on,67,24,0
2,note_on,67,0,240
2,note_on,70,0,0
2,note_on,68,45,0
2,note_on,65,45,0
2,note_on,70,53,0
2,note_on,65,0,240
2,note_on,68,0,0
2,note_on,63,39,0
2,note_on,67,46,0
2,note_on,67,0,240
2,note_on,63,0,0
2,note_on,62,43,0
2,note_on,65,51,0
2,note_on,65,0,240
2,note_on,62,0,0
2,note_on,70,0,0
2,note_on,62,46,0
2,note_on,58,39,0
2,note_on,58,0,240
2,note_on,62,0,0
2,note_on,46,32,480
2,note_on,34,27,0
2,note_on,34,0,480
2,note_on,46,0,0
2,note_on,35,27,0
2,note_on,47,32,0
2,note_on,47,0,720
2,note_on,35,0,0
2,note_on,47,27,0
2,note_on,54,32,0
2,note_on,54,0,240
2,note_on,47,0,0
2,note_on,54,33,0
2,note_on,49,28,0
2,note_on,49,0,238
2,note_on,54,0,0
2,note_on,54,34,2
2,note_on,49,28,0
2,note_on,49,0,238
2,note_on,54,0,0
2,note_on,47,30,2
2,note_on,54,36,0
2,note_on,54,0,238
2,note_on,47,0,0
2,note_on,46,32,2
2,note_on,54,38,0
2,note_on,46,0,240
2,note_on,45,40,0
2,note_on,54,0,240
2,note_on,53,34,0
2,note_on,53,0,240
2,note_on,45,0,0
2,note_on,53,30,0
2,note_on,46,25,0
2,note_on,46,0,240
2,note_on,53,0,0
2,note_on,44,32,0
2,note_on,52,38,0
2,note_on,44,0,240
2,note_on,43,40,0
2,note_on,52,0,240
2,note_on,51,34,0
2,note_on,51,0,240
2,note_on,43,0,0
2,note_on,51,30,0
2,note_on,44,25,0
2,note_on,44,0,240
2,note_on,51,0,0
2,note_on,54,31,0
2,note_on,42,26,0
2,note_on,46,26,0
2,note_on,46,0,240
2,note_on,42,0,0
2,note_on,54,0,0
2,note_on,41,27,0
2,note_on,46,27,0
2,note_on,53,32,0
2,note_on,53,0,240
2,note_on,46,0,0
2,note_on,41,0,0
2,note_on,46,34,360
2,note_on,53,40,0
2,note_on,41,28,0
2,note_on,41,0,119
2,note_on,53,0,0
2,note_on,46,0,0
2,note_on,39,28,1
2,note_on,46,34,0
2,note_on,51,40,0
2,note_on,51,0,119
2,note_on,46,0,0
2,note_on,39,0,0
2,note_on,46,28,1
2,note_on,39,23,0
2,note_on,51,34,0
2,note_on,51,0,119
2,note_on,39,0,0
2,note_on,46,0,0
2,note_on,46,39,1
2,note_on,50,47,0
2,note_on,38,33,0
2,note_on,38,0,240
2,note_on,50,0,0
2,note_on,46,0,0
2,note_on,65,34,360
2,note_on,68,40,0
2,note_on,68,0,119
2,note_on,65,0,0
2,note_on,66,40,1
2,note_on,63,34,0
2,note_on,63,0,119
2,note_on,66,0,0
2,note_on,66,34,1
2,note_on,63,28,0
2,note_on,63,0,119
2,note_on,66,0,0
2,note_on,62,39,1
2,note_on,65,47,0
2,note_on,65,0,240
2,note_on,62,0,0
2,note_on,65,44,360
2,note_on,62,37,0
2,note_on,62,0,119
2,note_on,65,0,0
2,note_on,63,46,1
2,note_on,61,39,0
2,note_on,61,0,119
2,note_on,63,0,0
2,note_on,59,33,1
2,note_on,63,40,0
2,note_on,63,0,119
2,note_on,59,0,0
2,note_on,59,39,1
2,note_on,63,47,0
2,note_on,63,0,240
2,note_on,59,0,0
2,note_on,62,37,360
2,note_on,65,44,0
2,note_on,65,0,119
2,note_on,62,0,0
2,note_on,61,39,1
2,note_on,63,46,0
2,note_on,63,0,119
2,note_on,61,0,0
2,note_on,60,33,1
2,note_on,63,40,0
2,note_on,63,0,119
2,note_on,60,0,0
2,note_on,60,31,241
2,note_on,63,37,0
2,note_on,63,0,240
2,note_on,60,0,0
2,note_on,63,37,240
2,note_on,60,31,0
2,note_on,60,0,240
2,note_on,63,0,0
2,note_on,63,77,0
2,note_on,60,64,0
2,note_on,60,0,720
2,note_on,63,0,0
2,note_on,62,60,0
2,note_on,59,51,0
2,note_on,59,0,120
2,note_on,62,0,0
2,note_on,61,59,0
2,note_on,58,50,0
2,note_on,58,0,60
2,note_on,61,0,0
2,note_on,58,56,60
2,note_on,61,67,0
2,note_on,61,0,240
2,note_on,58,0,0
2,note_on,57,51,0
2,note_on,60,60,0
2,note_on,60,0,120
2,note_on,57,0,0
2,note_on,56,50,0
2,note_on,59,59,0
2,note_on,59,0,60
2,note_on,56,0,0
2,note_on,56,56,60
2,note_on,59,67,0
2,note_on,59,0,240
2,note_on,56,0,0
2,note_on,58,60,0
2,note_on,55,51,0
2,note_on,55,0,120
2,note_on,58,0,0
2,note_on,54,50,0
2,note_on,57,59,0
2,note_on,57,0,60
2,note_on,54,0,0
2,note_on,56,67,60
2,note_on,53,56,0
2,note_on,53,0,720
2,note_on,56,0,0
2,note_on,55,45,0
2,note_on,51,38,0
2,note_on,51,0,240
2,note_on,55,0,0
2,note_on,50,40,0
2,note_on,53,48,0
2,note_on,53,0,240
2,note_on,50,0,0
2,note_on,48,42,0
2,note_on,51,50,0
2,note_on,51,0,240
2,note_on,48,0,0
2,note_on,46,45,0
2,note_on,50,53,0
2,note_on,50,0,240
2,note_on,46,0,0
2,note_on,53,56,0
2,note_on,46,47,0
2,note_on,50,47,0
2,note_on,50,0,240
2,note_on,46,0,0
2,note_on,53,0,0
2,note_on,39,56,0
2,note_on,39,0,120
2,note_on,46,40,0
2,note_on,46,0,120
2,note_on,55,40,0
2,note_on,55,0,120
2,note_on,46,40,0
2,note_on,46,0,120
2,note_on,39,54,0
2,note_on,39,0,120
2,note_on,46,44,0
2,note_on,46,0,120
2,note_on,55,43,0
2,note_on,55,0,120
2,note_on,46,43,0
2,note_on,46,0,120
2,note_on,41,58,0
2,note_on,41,0,120
2,note_on,46,49,0
2,note_on,46,0,120
2,note_on,56,49,0
2,note_on,56,0,120
2,note_on,46,47,0
2,note_on,46,0,120
2,note_on,41,53,0
2,note_on,41,0,120
2,note_on,46,44,0
2,note_on,46,0,120
2,note_on,56,44,0
2,note_on,56,0,120
2,note_on,46,44,0
2,note_on,46,0,120
2,note_on,43,53,0
2,note_on,43,0,120
2,note_on,46,43,0
2,note_on,46,0,120
2,note_on,58,43,0
2,note_on,58,0,120
2,note_on,46,43,0
2,note_on,46,0,120
2,note_on,43,53,0
2,note_on,43,0,120
2,note_on,46,43,0
2,note_on,46,0,120
2,note_on,58,43,0
2,note_on,58,0,120
2,note_on,46,43,0
2,note_on,46,0,120
2,note_on,44,53,0
2,note_on,44,0,120
2,note_on,46,44,0
2,note_on,46,0,120
2,note_on,56,44,0
2,note_on,56,0,120
2,note_on,46,44,0
2,note_on,46,0,120
2,note_on,34,53,0
2,note_on,34,0,120
2,note_on,46,46,0
2,note_on,46,0,120
2,note_on,53,46,0
2,note_on,53,0,120
2,note_on,46,46,0
2,note_on,46,0,120
2,note_on,39,56,0
2,note_on,39,0,120
2,note_on,46,40,0
2,note_on,46,0,120
2,note_on,55,40,0
2,note_on,55,0,120
2,note_on,46,40,0
2,note_on,46,0,120
2,note_on,39,54,0
2,note_on,39,0,120
2,note_on,46,44,0
2,note_on,46,0,120
2,note_on,55,43,0
2,note_on,55,0,120
2,note_on,46,43,0
2,note_on,46,0,120
2,note_on,41,58,0
2,note_on,41,0,120
2,note_on,46,49,0
2,note_on,46,0,120
2,note_on,56,49,0
2,note_on,56,0,120
2,note_on,46,47,0
2,note_on,46,0,120
2,note_on,41,53,0
2,note_on,41,0,120
2,note_on,46,44,0
2,note_on,46,0,120
2,note_on,56,44,0
2,note_on,56,0,120
2,note_on,46,44,0
2,note_on,46,0,120
2,note_on,43,53,0
2,note_on,43,0,120
2,note_on,51,43,0
2,note_on,51,0,120
2,note_on,58,43,0
2,note_on,58,0,120
2,note_on,51,43,0
2,note_on,51,0,120
2,note_on,43,53,0
2,note_on,43,0,120
2,note_on,51,43,0
2,note_on,51,0,120
2,note_on,58,43,0
2,note_on,58,0,120
2,note_on,51,43,0
2,note_on,51,0,120
2,note_on,44,53,0
2,note_on,44,0,120
2,note_on,51,44,0
2,note_on,51,0,120
2,note_on,60,44,0
2,note_on,60,0,120
2,note_on,51,44,0
2,note_on,51,0,120
2,note_on,45,53,0
2,note_on,45,0,120
2,note_on,53,46,0
2,note_on,53,0,120
2,note_on,60,46,0
2,note_on,60,0,120
2,note_on,53,46,0
2,note_on,53,0,120
2,note_on,46,52,0
2,note_on,58,52,0
2,note_on,58,0,240
2,note_on,46,0,0
2,note_on,63,46,0
2,note_on,63,0,120
2,note_on,62,49,0
2,note_on,62,0,120
2,note_on,60,48,0
2,note_on,60,0,120
2,note_on,58,47,0
2,note_on,58,0,120
2,note_on,57,46,0
2,note_on,57,0,120
2,note_on,56,45,0
2,note_on,56,0,120
2,note_on,55,44,0
2,note_on,55,0,120
2,note_on,53,43,0
2,note_on,53,0,120
2,note_on,51,42,0
2,note_on,51,0,120
2,note_on,50,41,0
2,note_on,50,0,120
2,note_on,51,40,0
2,note_on,51,0,120
2,note_on,53,42,0
2,note_on,53,0,120
2,note_on,55,44,0
2,note_on,55,0,120
2,note_on,56,46,0
2,note_on,56,0,120
2,note_on,58,48,0
2,note_on,58,0,240
2,note_on,60,42,0
2,note_on,60,0,120
2,note_on,62,46,0
2,note_on,62,0,120
2,note_on,63,44,0
2,note_on,63,0,120
2,note_on,65,46,0
2,note_on,65,0,120
2,note_on,67,48,0
2,note_on,67,0,120
2,note_on,68,50,0
2,note_on,68,0,120
2,note_on,70,57,0
2,note_on,70,0,240
2,note_on,68,46,0
2,note_on,68,0,120
2,note_on,67,53,0
2,note_on,67,0,120
2,note_on,65,52,0
2,note_on,65,0,120
2,note_on,63,51,0
2,note_on,63,0,120
2,note_on,62,50,0
2,note_on,62,0,90
2,note_on,60,49,30
2,note_on,60,0,90
2,note_on,59,47,30
2,note_on,59,0,90
2,note_on,57,48,30
2,note_on,57,0,90
2,note_on,55,51,30
2,note_on,55,0,90
2,note_on,53,55,30
2,note_on,53,0,90
2,note_on,51,59,30
2,note_on,51,0,90
2,note_on,50,62,30
2,note_on,50,0,90
2,note_on,48,66,30
2,note_on,48,0,90
2,note_on,46,58,30
2,note_on,48,69,0
2,note_on,48,0,90
2,note_on,46,0,0
2,note_on,48,72,30
2,note_on,46,61,0
2,note_on,46,0,120
2,note_on,48,0,0
2,note_on,48,75,360
2,note_on,45,63,0
2,note_on,45,0,120
2,note_on,48,0,0
2,note_on,42,71,360
2,note_on,48,65,0
2,note_on,42,0,720
2,note_on,41,71,0
2,note_on,41,0,120
2,note_on,39,80,120
2,note_on,39,0,960
2,note_on,48,0,0
2,note_on,42,71,0
2,note_on,48,65,0
2,note_on,42,0,720
2,note_on,41,71,0
2,note_on,41,0,120
2,note_on,40,80,120
2,note_on,40,0,960
2,note_on,48,0,0
2,note_on,48,48,0
2,note_on,41,40,0
2,note_on,41,0,240
2,note_on,48,0,0
2,note_on,50,48,720
2,note_on,41,40,0
2,note_on,41,0,240
2,note_on,50,0,0
2,note_on,41,40,720
2,note_on,51,48,0
2,note_on,51,0,240
2,note_on,41,0,0
2,note_on,41,40,240
2,note_on,50,48,0
2,note_on,50,0,240
2,note_on,41,0,0
2,note_on,41,40,240
2,note_on,48,48,0
2,note_on,48,0,240
2,note_on,41,0,0
2,note_on,41,40,240
2,note_on,50,48,0
2,note_on,50,0,240
2,note_on,41,0,0
2,note_on,48,48,240
2,note_on,41,40,0
2,note_on,41,0,240
2,note_on,48,0,0
2,note_on,50,48,720
2,note_on,41,40,0
2,note_on,41,0,240
2,note_on,50,0,0
2,note_on,41,40,720
2,note_on,51,48,0
2,note_on,51,0,240
2,note_on,41,0,0
2,note_on,41,40,240
2,note_on,50,48,0
2,note_on,50,0,240
2,note_on,41,0,0
2,note_on,51,48,240
2,note_on,41,40,0
2,note_on,41,0,240
2,note_on,51,0,0
2,note_on,53,48,240
2,note_on,53,0,240
2,note_on,55,38,0
2,note_on,55,0,120
2,note_on,57,40,0
2,note_on,57,0,120
2,note_on,58,42,0
2,note_on,58,0,120
2,note_on,60,44,0
2,note_on,60,0,120
2,note_on,62,46,0
2,note_on,62,0,120
2,note_on,63,48,0
2,note_on,63,0,120
2,note_on,65,50,0
2,note_on,65,0,240
2,note_on,67,38,0
2,note_on,67,0,120
2,note_on,69,40,0
2,note_on,69,0,120
2,note_on,70,42,0
2,note_on,70,0,120
2,note_on,72,44,0
2,note_on,72,0,120
2,note_on,74,46,0
2,note_on,74,0,120
2,note_on,75,48,0
2,note_on,75,0,120
2,note_on,77,50,0
2,note_on,77,0,240
2,note_on,75,47,0
2,note_on,75,0,240
2,note_on,74,56,0
2,note_on,74,0,240
2,note_on,73,46,0
2,note_on,73,0,240
2,note_on,72,55,0
2,note_on,72,0,240
2,note_on,65,47,0
2,note_on,65,0,240
2,note_on,58,39,0
2,note_on,61,39,240
2,note_on,64,39,0
2,note_on,64,0,480
2,note_on,61,0,0
2,note_on,62,39,0
2,note_on,65,39,0
2,note_on,65,0,240
2,note_on,62,0,0
2,note_on,58,0,0
2,note_on,58,39,0
2,note_on,66,39,240
2,note_on,69,39,0
2,note_on,69,0,480
2,note_on,66,0,0
2,note_on,65,39,0
2,note_on,65,0,240
2,note_on,58,0,0
2,note_on,58,39,0
2,note_on,62,33,240
2,note_on,65,39,0
2,note_on,65,0,240
2,note_on,62,0,0
2,note_on,63,33,0
2,note_on,67,39,0
2,note_on,67,0,240
2,note_on,63,0,0
2,note_on,62,30,0
2,note_on,65,39,0
2,note_on,65,0,240
2,note_on,62,0,0
2,note_on,58,0,0
2,note_on,62,39,0
2,note_on,53,39,0
2,note_on,62,0,240
2,note_on,63,39,0
2,note_on,60,33,0
2,note_on,60,0,240
2,note_on,63,0,0
2,note_on,58,33,0
2,note_on,62,39,0
2,note_on,62,0,240
2,note_on,58,0,0
2,note_on,60,39,0
2,note_on,57,30,0
2,note_on,57,0,240
2,note_on,60,0,0
2,note_on,53,0,0
2,note_on,46,35,0
2,note_on,49,35,240
2,note_on,52,35,0
2,note_on,52,0,480
2,note_on,49,0,0
2,note_on,53,35,0
2,note_on,50,35,0
2,note_on,50,0,240
2,note_on,53,0,0
2,note_on,46,0,0
2,note_on,46,35,0
2,note_on,54,35,240
2,note_on,57,35,0
2,note_on,57,0,480
2,note_on,54,0,0
2,note_on,53,35,0
2,note_on,53,0,240
2,note_on,46,0,0
2,note_on,46,35,0
2,note_on,50,29,240
2,note_on,53,35,0
2,note_on,53,0,240
2,note_on,50,0,0
2,note_on,55,35,0
2,note_on,51,29,0
2,note_on,51,0,240
2,note_on,55,0,0
2,note_on,50,27,0
2,note_on,53,35,0
2,note_on,53,0,240
2,note_on,50,0,0
2,note_on,46,0,0
2,note_on,41,35,0
2,note_on,50,35,0
2,note_on,50,0,240
2,note_on,48,29,0
2,note_on,51,35,0
2,note_on,51,0,240
2,note_on,48,0,0
2,note_on,46,29,0
2,note_on,50,35,0
2,note_on,50,0,240
2,note_on,46,0,0
2,note_on,45,27,0
2,note_on,48,35,0
2,note_on,48,0,240
2,note_on,45,0,0
2,note_on,41,0,0
2,note_on,46,43,0
2,note_on,34,43,0
2,note_on,34,0,360
2,note_on,46,0,0
2,note_on,42,39,0
2,note_on,42,0,120
2,note_on,41,45,0
2,note_on,41,0,240
2,note_on,34,38,0
2,note_on,34,0,240
2,note_on,29,55,0
2,note_on,53,47,0
2,note_on,29,0,240
2,note_on,51,44,0
2,note_on,51,0,120
2,note_on,50,36,0
2,note_on,50,0,120
2,note_on,53,0,0
2,note_on,48,43,0
2,note_on,48,0,120
2,note_on,46,39,0
2,note_on,46,0,120
2,note_on,45,39,0
2,note_on,41,39,0
2,note_on,41,0,120
2,note_on,45,0,0
2,note_on,53,39,0
2,note_on,53,0,120
2,note_on,46,43,0
2,note_on,46,0,360
2,note_on,54,39,0
2,note_on,54,0,120
2,note_on,53,45,0
2,note_on,53,0,240
2,note_on,46,38,0
2,note_on,46,0,240
2,note_on,41,55,0
2,note_on,41,0,240
2,note_on,63,44,0
2,note_on,63,0,120
2,note_on,62,36,0
2,note_on,62,0,120
2,note_on,60,43,0
2,note_on,60,0,120
2,note_on,58,39,0
2,note_on,58,0,120
2,note_on,57,39,0
2,note_on,53,39,0
2,note_on,53,0,120
2,note_on,57,0,0
2,note_on,60,39,0
2,note_on,60,0,120
2,note_on,58,39,0
2,note_on,62,39,0
2,note_on,62,0,360
2,note_on,58,0,0
2,note_on,60,33,0
2,note_on,60,0,120
2,note_on,58,39,0
2,note_on,58,0,360
2,note_on,55,34,0
2,note_on,55,0,120
2,note_on,53,39,0
2,note_on,53,0,360
2,note_on,51,35,0
2,note_on,51,0,120
2,note_on,50,39,0
2,note_on,50,0,360
2,note_on,48,33,0
2,note_on,48,0,120
2,note_on,46,39,0
2,note_on,46,0,360
2,note_on,43,31,0
2,note_on,43,0,120
2,note_on,41,39,0
2,note_on,41,0,360
2,note_on,39,34,0
2,note_on,39,0,120
2,note_on,38,39,0
2,note_on,38,0,360
2,note_on,36,35,0
2,note_on,36,0,120
2,note_on,34,39,0
2,note_on,34,0,360
2,note_on,68,37,0
2,note_on,65,30,0
2,note_on,65,0,120
2,note_on,68,0,0
2,note_on,65,36,0
2,note_on,68,42,0
2,note_on,68,0,960
2,note_on,65,0,0
2,note_on,63,36,0
2,note_on,67,42,0
2,note_on,67,0,960
2,note_on,63,0,0
2,note_on,62,36,0
2,note_on,65,42,0
2,note_on,65,0,960
2,note_on,62,0,0
2,note_on,63,42,0
2,note_on,61,36,0
2,note_on,61,0,960
2,note_on,63,0,0
2,note_on,63,77,0
2,note_on,60,64,0
2,note_on,60,0,720
2,note_on,63,0,0
2,note_on,59,51,0
2,note_on,62,60,0
2,note_on,62,0,120
2,note_on,59,0,0
2,note_on,58,50,0
2,note_on,61,59,0
2,note_on,61,0,60
2,note_on,58,0,0
2,note_on,58,56,60
2,note_on,61,67,0
2,note_on,61,0,240
2,note_on,58,0,0
2,note_on,57,51,0
2,note_on,60,60,0
2,note_on,60,0,120
2,note_on,57,0,0
2,note_on,59,59,0
2,note_on,56,50,0
2,note_on,56,0,60
2,note_on,59,0,0
2,note_on,56,56,60
2,note_on,59,67,0
2,note_on,59,0,240
2,note_on,56,0,0
2,note_on,55,51,0
2,note_on,58,60,0
2,note_on,58,0,120
2,note_on,55,0,0
2,note_on,54,50,0
2,note_on,57,59,0
2,note_on,57,0,60
2,note_on,54,0,0
2,note_on,56,67,60
2,note_on,53,56,0
2,note_on,53,0,720
2,note_on,56,0,0
2,note_on,51,38,0
2,note_on,55,45,0
2,note_on,55,0,240
2,note_on,51,0,0
2,note_on,53,48,0
2,note_on,50,40,0
2,note_on,50,0,240
2,note_on,53,0,0
2,note_on,48,42,0
2,note_on,51,50,0
2,note_on,51,0,240
2,note_on,48,0,0
2,note_on,46,45,0
2,note_on,50,53,0
2,note_on,50,0,240
2,note_on,46,0,0
2,note_on,53,56,0
2,note_on,50,47,0
2,note_on,46,47,0
2,note_on,46,0,240
2,note_on,50,0,0
2,note_on,53,0,0
2,note_on,39,56,0
2,note_on,39,0,120
2,note_on,46,40,0
2,note_on,46,0,120
2,note_on,55,40,0
2,note_on,55,0,120
2,note_on,46,40,0
2,note_on,46,0,120
2,note_on,39,54,0
2,note_on,39,0,120
2,note_on,46,44,0
2,note_on,46,0,120
2,note_on,55,43,0
2,note_on,55,0,120
2,note_on,46,43,0
2,note_on,46,0,120
2,note_on,41,58,0
2,note_on,41,0,120
2,note_on,46,49,0
2,note_on,46,0,120
2,note_on,56,49,0
2,note_on,56,0,120
2,note_on,46,47,0
2,note_on,46,0,120
2,note_on,41,53,0
2,note_on,41,0,120
2,note_on,46,44,0
2,note_on,46,0,120
2,note_on,56,44,0
2,note_on,56,0,120
2,note_on,46,44,0
2,note_on,46,0,120
2,note_on,43,53,0
2,note_on,43,0,120
2,note_on,46,43,0
2,note_on,46,0,120
2,note_on,58,43,0
2,note_on,58,0,120
2,note_on,46,43,0
2,note_on,46,0,120
2,note_on,43,53,0
2,note_on,43,0,120
2,note_on,46,43,0
2,note_on,46,0,120
2,note_on,58,43,0
2,note_on,58,0,120
2,note_on,46,43,0
2,note_on,46,0,120
2,note_on,44,53,0
2,note_on,44,0,120
2,note_on,46,44,0
2,note_on,46,0,120
2,note_on,56,44,0
2,note_on,56,0,120
2,note_on,46,44,0
2,note_on,46,0,120
2,note_on,34,53,0
2,note_on,34,0,120
2,note_on,46,46,0
2,note_on,46,0,120
2,note_on,53,46,0
2,note_on,53,0,120
2,note_on,46,46,0
2,note_on,46,0,120
2,note_on,39,56,0
2,note_on,39,0,120
2,note_on,46,40,0
2,note_on,46,0,120
2,note_on,55,40,0
2,note_on,55,0,120
2,note_on,46,40,0
2,note_on,46,0,120
2,note_on,39,54,0
2,note_on,39,0,120
2,note_on,46,44,0
2,note_on,46,0,120
2,note_on,55,43,0
2,note_on,55,0,120
2,note_on,46,43,0
2,note_on,46,0,120
2,note_on,41,58,0
2,note_on,41,0,120
2,note_on,46,49,0
2,note_on,46,0,120
2,note_on,56,49,0
2,note_on,56,0,120
2,note_on,46,47,0
2,note_on,46,0,120
2,note_on,41,53,0
2,note_on,41,0,120
2,note_on,46,44,0
2,note_on,46,0,120
2,note_on,56,44,0
2,note_on,56,0,120
2,note_on,46,44,0
2,note_on,46,0,120
2,note_on,43,53,0
2,note_on,43,0,120
2,note_on,51,43,0
2,note_on,51,0,120
2,note_on,58,43,0
2,note_on,58,0,120
2,note_on,51,43,0
2,note_on,51,0,120
2,note_on,43,53,0
2,note_on,43,0,120
2,note_on,51,43,0
2,note_on,51,0,120
2,note_on,58,43,0
2,note_on,58,0,120
2,note_on,51,43,0
2,note_on,51,0,120
2,note_on,44,53,0
2,note_on,44,0,120
2,note_on,51,44,0
2,note_on,51,0,120
2,note_on,60,44,0
2,note_on,60,0,120
2,note_on,51,44,0
2,note_on,51,0,120
2,note_on,45,53,0
2,note_on,45,0,120
2,note_on,53,46,0
2,note_on,53,0,120
2,note_on,60,46,0
2,note_on,60,0,120
2,note_on,53,46,0
2,note_on,53,0,120
2,note_on,46,52,0
2,note_on,58,52,0
2,note_on,58,0,240
2,note_on,46,0,0
2,note_on,63,46,0
2,note_on,63,0,120
2,note_on,62,49,0
2,note_on,62,0,120
2,note_on,60,48,0
2,note_on,60,0,120
2,note_on,58,47,0
2,note_on,58,0,120
2,note_on,57,46,0
2,note_on,57,0,120
2,note_on,56,45,0
2,note_on,56,0,120
2,note_on,55,44,0
2,note_on,55,0,120
2,note_on,53,43,0
2,note_on,53,0,120
2,note_on,51,42,0
2,note_on,51,0,120
2,note_on,50,41,0
2,note_on,50,0,120
2,note_on,51,40,0
2,note_on,51,0,120
2,note_on,53,42,0
2,note_on,53,0,120
2,note_on,55,44,0
2,note_on,55,0,120
2,note_on,56,46,0
2,note_on,56,0,120
2,note_on,58,48,0
2,note_on,58,0,240
2,note_on,60,42,0
2,note_on,60,0,120
2,note_on,62,46,0
2,note_on,62,0,120
2,note_on,63,44,0
2,note_on,63,0,120
2,note_on,65,46,0
2,note_on,65,0,120
2,note_on,67,48,0
2,note_on,67,0,120
2,note_on,68,50,0
2,note_on,68,0,120
2,note_on,70,57,0
2,note_on,70,0,240
2,note_on,68,46,0
2,note_on,68,0,120
2,note_on,67,53,0
2,note_on,67,0,120
2,note_on,65,52,0
2,note_on,65,0,120
2,note_on,63,51,0
2,note_on,63,0,120
2,note_on,62,50,0
2,note_on,62,0,90
2,note_on,60,49,30
2,note_on,60,0,90
2,note_on,59,47,30
2,note_on,59,0,90
2,note_on,57,48,30
2,note_on,57,0,90
2,note_on,55,51,30
2,note_on,55,0,90
2,note_on,53,55,30
2,note_on,53,0,90
2,note_on,51,59,30
2,note_on,51,0,90
2,note_on,50,62,30
2,note_on,50,0,90
2,note_on,48,66,30
2,note_on,48,0,90
2,note_on,46,58,30
2,note_on,48,69,0
2,note_on,48,0,90
2,note_on,46,0,0
2,note_on,46,61,30
2,note_on,48,72,0
2,note_on,48,0,120
2,note_on,46,0,0
2,note_on,48,75,360
2,note_on,45,63,0
2,note_on,45,0,120
2,note_on,48,0,0
2,note_on,48,65,360
2,note_on,42,71,0
2,note_on,42,0,720
2,note_on,41,71,0
2,note_on,41,0,120
2,note_on,39,80,120
2,note_on,39,0,960
2,note_on,48,0,0
2,note_on,48,65,0
2,note_on,42,71,0
2,note_on,42,0,720
2,note_on,41,71,0
2,note_on,41,0,120
2,note_on,40,80,120
2,note_on,40,0,960
2,note_on,48,0,0
2,note_on,41,40,0
2,note_on,48,48,0
2,note_on,48,0,240
2,note_on,41,0,0
2,note_on,41,40,720
2,note_on,50,48,0
2,note_on,50,0,240
2,note_on,41,0,0
2,note_on,51,48,720
2,note_on,41,40,0
2,note_on,41,0,240
2,note_on,51,0,0
2,note_on,41,40,240
2,note_on,50,48,0
2,note_on,50,0,240
2,note_on,41,0,0
2,note_on,41,40,240
2,note_on,48,48,0
2,note_on,48,0,240
2,note_on,41,0,0
2,note_on,41,40,240
2,note_on,50,48,0
2,note_on,50,0,240
2,note_on,41,0,0
2,note_on,41,40,240
2,note_on,48,48,0
2,note_on,48,0,240
2,note_on,41,0,0
2,note_on,41,40,720
2,note_on,50,48,0
2,note_on,50,0,240
2,note_on,41,0,0
2,note_on,41,40,720
2,note_on,51,48,0
2,note_on,51,0,240
2,note_on,41,0,0
2,note_on,41,40,240
2,note_on,50,48,0
2,note_on,50,0,240
2,note_on,41,0,0
2,note_on,51,48,240
2,note_on,41,40,0
2,note_on,41,0,240
2,note_on,51,0,0
2,note_on,53,48,247
2,note_on,55,38,233
2,note_on,53,0,7
2,note_on,55,0,113
2,note_on,57,40,0
2,note_on,57,0,120
2,note_on,58,42,0
2,note_on,58,0,120
2,note_on,60,44,0
2,note_on,60,0,120
2,note_on,62,46,0
2,note_on,62,0,120
2,note_on,63,48,0
2,note_on,63,0,120
2,note_on,65,50,0
2,note_on,65,0,240
2,note_on,67,38,0
2,note_on,67,0,120
2,note_on,69,40,0
2,note_on,69,0,120
2,note_on,70,42,0
2,note_on,70,0,120
2,note_on,72,44,0
2,note_on,72,0,120
2,note_on,74,46,0
2,note_on,74,0,120
2,note_on,75,48,0
2,note_on,75,0,120
2,note_on,77,50,0
2,note_on,77,0,240
2,note_on,75,47,0
2,note_on,75,0,240
2,note_on,74,56,0
2,note_on,74,0,240
2,note_on,73,46,0
2,note_on,73,0,240
2,note_on,72,55,0
2,note_on,72,0,240
2,note_on,65,47,0
2,note_on,65,0,240
2,note_on,58,39,0
2,note_on,64,39,240
2,note_on,61,39,0
2,note_on,61,0,480
2,note_on,64,0,0
2,note_on,62,39,0
2,note_on,65,39,0
2,note_on,65,0,240
2,note_on,62,0,0
2,note_on,58,0,0
2,note_on,58,39,0
2,note_on,66,39,240
2,note_on,69,39,0
2,note_on,69,0,480
2,note_on,66,0,0
2,note_on,65,39,0
2,note_on,65,0,240
2,note_on,58,0,0
2,note_on,58,39,0
2,note_on,62,33,240
2,note_on,65,39,0
2,note_on,65,0,240
2,note_on,62,0,0
2,note_on,67,39,0
2,note_on,63,33,0
2,note_on,63,0,240
2,note_on,67,0,0
2,note_on,65,39,0
2,note_on,62,30,0
2,note_on,62,0,240
2,note_on,65,0,0
2,note_on,58,0,0
2,note_on,62,39,0
2,note_on,53,39,0
2,note_on,62,0,240
2,note_on,63,39,0
2,note_on,60,33,0
2,note_on,60,0,240
2,note_on,63,0,0
2,note_on,58,33,0
2,note_on,62,39,0
2,note_on,62,0,240
2,note_on,58,0,0
2,note_on,60,39,0
2,note_on,57,30,0
2,note_on,57,0,240
2,note_on,60,0,0
2,note_on,53,0,0
2,note_on,46,35,0
2,note_on,49,35,240
2,note_on,52,35,0
2,note_on,52,0,480
2,note_on,49,0,0
2,note_on,50,35,0
2,note_on,53,35,0
2,note_on,53,0,240
2,note_on,50,0,0
2,note_on,46,0,0
2,note_on,46,35,0
2,note_on,54,35,240
2,note_on,57,35,0
2,note_on,57,0,480
2,note_on,54,0,0
2,note_on,53,35,0
2,note_on,53,0,240
2,note_on,46,0,0
2,note_on,46,35,0
2,note_on,53,35,240
2,note_on,50,29,0
2,note_on,50,0,240
2,note_on,53,0,0
2,note_on,55,35,0
2,note_on,51,29,0
2,note_on,51,0,240
2,note_on,55,0,0
2,note_on,50,27,0
2,note_on,53,35,0
2,note_on,53,0,240
2,note_on,50,0,0
2,note_on,46,0,0
2,note_on,50,35,0
2,note_on,41,35,0
2,note_on,50,0,240
2,note_on,51,35,0
2,note_on,48,29,0
2,note_on,48,0,240
2,note_on,51,0,0
2,note_on,46,29,0
2,note_on,50,35,0
2,note_on,50,0,240
2,note_on,46,0,0
2,note_on,45,27,0
2,note_on,48,35,0
2,note_on,48,0,240
2,note_on,45,0,0
2,note_on,41,0,0
2,note_on,34,43,0
2,note_on,46,43,0
2,note_on,46,0,360
2,note_on,34,0,0
2,note_on,42,39,0
2,note_on,42,0,120
2,note_on,41,45,0
2,note_on,41,0,240
2,note_on,34,38,0
2,note_on,34,0,240
2,note_on,29,55,0
2,note_on,53,47,0
2,note_on,29,0,240
2,note_on,51,44,0
2,note_on,51,0,120
2,note_on,50,36,0
2,note_on,50,0,120
2,note_on,53,0,0
2,note_on,48,43,0
2,note_on,48,0,120
2,note_on,46,39,0
2,note_on,46,0,120
2,note_on,41,39,0
2,note_on,45,39,0
2,note_on,45,0,120
2,note_on,41,0,0
2,note_on,53,39,0
2,note_on,53,0,120
2,note_on,46,43,0
2,note_on,46,0,360
2,note_on,54,39,0
2,note_on,54,0,120
2,note_on,53,45,0
2,note_on,53,0,240
2,note_on,46,38,0
2,note_on,46,0,240
2,note_on,41,55,0
2,note_on,41,0,240
2,note_on,63,44,0
2,note_on,63,0,120
2,note_on,62,36,0
2,note_on,62,0,120
2,note_on,60,43,0
2,note_on,60,0,120
2,note_on,58,39,0
2,note_on,58,0,120
2,note_on,53,39,0
2,note_on,57,39,0
2,note_on,57,0,120
2,note_on,53,0,0
2,note_on,60,39,0
2,note_on,60,0,120
2,note_on,62,39,0
2,note_on,58,39,0
2,note_on,58,0,360
2,note_on,62,0,0
2,note_on,60,33,0
2,note_on,60,0,120
2,note_on,58,39,0
2,note_on,58,0,360
2,note_on,55,34,0
2,note_on,55,0,120
2,note_on,53,39,0
2,note_on,53,0,360
2,note_on,51,35,0
2,note_on,51,0,120
2,note_on,50,39,0
2,note_on,50,0,360
2,note_on,48,33,0
2,note_on,48,0,120
2,note_on,46,39,0
2,note_on,46,0,360
2,note_on,43,31,0
2,note_on,43,0,120
2,note_on,41,39,0
2,note_on,41,0,360
2,note_on,39,34,0
2,note_on,39,0,120
2,note_on,38,39,0
2,note_on,38,0,360
2,note_on,36,35,0
2,note_on,36,0,120
2,note_on,34,39,0
2,note_on,34,0,360
2,note_on,65,30,0
2,note_on,68,37,0
2,note_on,68,0,120
2,note_on,65,0,0
2,note_on,68,42,0
2,note_on,65,36,0
2,note_on,65,0,960
2,note_on,68,0,0
2,note_on,63,36,0
2,note_on,67,42,0
2,note_on,67,0,960
2,note_on,63,0,0
2,note_on,62,36,0
2,note_on,65,42,0
2,note_on,65,0,960
2,note_on,62,0,0
2,note_on,63,42,0
2,note_on,60,36,0
2,note_on,60,0,960
2,note_on,63,0,0
2,note_on,62,77,0
2,note_on,59,64,0
2,note_on,59,0,720
2,note_on,62,0,0
2,note_on,58,51,0
2,note_on,62,60,0
2,note_on,62,0,240
2,note_on,58,0,0
2,note_on,56,56,0
2,note_on,60,67,0
2,note_on,60,0,240
2,note_on,56,0,0
2,note_on,59,67,240
2,note_on,56,56,0
2,note_on,56,0,240
2,note_on,59,0,0
2,note_on,60,62,240
2,note_on,55,52,0
2,note_on,55,0,240
2,note_on,60,0,0
2,note_on,60,49,0
2,note_on,54,41,0
2,note_on,54,0,240
2,note_on,60,0,0
2,note_on,59,61,0
2,note_on,53,51,0
2,note_on,55,51,0
2,note_on,55,0,240
2,note_on,53,0,0
2,note_on,59,0,0
2,note_on,55,34,0
2,note_on,60,41,0
2,note_on,51,34,0
2,note_on,51,0,240
2,note_on,60,0,0
2,note_on,55,0,0
2,note_on,48,50,2160
2,note_on,48,0,120
2,note_on,54,41,0
2,note_on,54,0,60
2,note_on,54,48,60
2,note_on,54,0,120
2,note_on,45,47,120
2,note_on,45,0,120
2,note_on,51,37,0
2,note_on,51,0,60
2,note_on,51,48,60
2,note_on,51,0,120
2,note_on,41,48,120
2,note_on,41,0,120
2,note_on,48,39,0
2,note_on,48,0,60
2,note_on,48,48,60
2,note_on,48,0,120
2,note_on,49,45,120
2,note_on,49,0,120
2,note_on,62,50,2280
2,note_on,62,0,120
2,note_on,69,41,0
2,note_on,69,0,60
2,note_on,69,48,60
2,note_on,69,0,120
2,note_on,54,47,120
2,note_on,54,0,120
2,note_on,60,37,0
2,note_on,60,0,60
2,note_on,60,48,60
2,note_on,60,0,120
2,note_on,50,48,120
2,note_on,50,0,120
2,note_on,57,39,0
2,note_on,57,0,60
2,note_on,57,48,60
2,note_on,57,0,120
2,note_on,38,48,120
2,note_on,38,0,120
2,note_on,50,39,0
2,note_on,50,0,60
2,note_on,54,50,2220
2,note_on,54,0,120
2,note_on,63,41,0
2,note_on,63,0,60
2,note_on,63,48,60
2,note_on,63,0,120
2,note_on,51,47,120
2,note_on,51,0,120
2,note_on,59,37,0
2,note_on,59,0,60
2,note_on,59,48,60
2,note_on,59,0,120
2,note_on,47,48,120
2,note_on,47,0,120
2,note_on,54,39,0
2,note_on,54,0,60
2,note_on,54,48,60
2,note_on,54,0,120
2,note_on,42,48,120
2,note_on,42,0,120
2,note_on,51,39,0
2,note_on,51,0,60
2,note_on,56,50,2220
2,note_on,56,0,120
2,note_on,65,41,0
2,note_on,65,0,60
2,note_on,65,48,60
2,note_on,65,0,120
2,note_on,53,47,120
2,note_on,53,0,120
2,note_on,62,37,0
2,note_on,62,0,60
2,note_on,62,48,60
2,note_on,62,0,120
2,note_on,50,40,120
2,note_on,53,48,0
2,note_on,53,0,120
2,note_on,50,0,0
2,note_on,53,33,0
2,note_on,56,39,0
2,note_on,56,0,60
2,note_on,53,0,0
2,note_on,53,40,60
2,note_on,56,48,0
2,note_on,56,0,120
2,note_on,53,0,0
2,note_on,53,48,120
2,note_on,50,40,0
2,note_on,50,0,120
2,note_on,53,0,0
2,note_on,53,33,0
2,note_on,56,39,0
2,note_on,56,0,60
2,note_on,53,0,0
2,note_on,56,50,300
2,note_on,56,0,120
2,note_on,65,41,0
2,note_on,65,0,60
2,note_on,65,48,60
2,note_on,65,0,120
2,note_on,53,47,120
2,note_on,53,0,120
2,note_on,62,37,0
2,note_on,62,0,60
2,note_on,62,48,60
2,note_on,62,0,120
2,note_on,74,52,120
2,note_on,74,0,240
2,note_on,75,58,0
2,note_on,75,0,240
2,note_on,74,52,0
2,note_on,74,0,240
2,note_on,70,77,0
2,note_on,67,64,0
2,note_on,61,64,0
2,note_on,61,0,720
2,note_on,67,0,0
2,note_on,70,0,0
2,note_on,68,43,0
2,note_on,59,43,0
2,note_on,65,43,0
2,note_on,65,0,240
2,note_on,59,0,0
2,note_on,68,0,0
2,note_on,66,48,0
2,note_on,58,40,0
2,note_on,61,40,0
2,note_on,61,0,240
2,note_on,58,0,0
2,note_on,66,0,0
2,note_on,56,42,0
2,note_on,61,42,0
2,note_on,61,0,240
2,note_on,56,0,0
2,note_on,53,42,0
2,note_on,61,42,0
2,note_on,61,0,240
2,note_on,53,0,0
2,note_on,61,42,0
2,note_on,54,42,0
2,note_on,54,0,240
2,note_on,61,0,0
2,note_on,63,48,0
2,note_on,59,40,0
2,note_on,59,0,240
2,note_on,63,0,0
2,note_on,58,34,0
2,note_on,61,40,0
2,note_on,61,0,240
2,note_on,58,0,0
2,note_on,59,40,0
2,note_on,56,34,0
2,note_on,56,0,240
2,note_on,59,0,0
2,note_on,54,34,0
2,note_on,58,40,0
2,note_on,58,0,240
2,note_on,54,0,0
2,note_on,41,50,240
2,note_on,41,0,120
2,note_on,49,41,0
2,note_on,49,0,60
2,note_on,49,48,60
2,note_on,49,0,120
2,note_on,53,47,120
2,note_on,53,0,120
2,note_on,61,37,0
2,note_on,61,0,60
2,note_on,41,50,300
2,note_on,41,0,120
2,note_on,50,41,0
2,note_on,50,0,60
2,note_on,50,48,60
2,note_on,50,0,120
2,note_on,53,47,120
2,note_on,53,0,120
2,note_on,62,37,0
2,note_on,62,0,60
2,note_on,39,50,300
2,note_on,39,0,120
2,note_on,48,41,0
2,note_on,48,0,60
2,note_on,48,47,60
2,note_on,48,0,120
2,note_on,51,46,120
2,note_on,51,0,120
2,note_on,60,36,0
2,note_on,60,0,60
2,note_on,38,48,300
2,note_on,38,0,120
2,note_on,47,39,0
2,note_on,47,0,60
2,note_on,47,46,60
2,note_on,47,0,120
2,note_on,50,45,120
2,note_on,50,0,120
2,note_on,59,35,0
2,note_on,59,0,60
2,note_on,36,47,300
2,note_on,36,0,120
2,note_on,48,38,0
2,note_on,48,0,60
2,note_on,48,45,60
2,note_on,48,0,120
2,note_on,48,44,120
2,note_on,48,0,120
2,note_on,60,34,0
2,note_on,60,0,60
2,note_on,36,46,300
2,note_on,36,0,120
2,note_on,48,37,0
2,note_on,48,0,60
2,note_on,48,44,60
2,note_on,48,0,120
2,note_on,48,42,120
2,note_on,48,0,120
2,note_on,60,33,0
2,note_on,60,0,60
2,note_on,36,45,300
2,note_on,36,0,120
2,note_on,48,36,0
2,note_on,48,0,60
2,note_on,48,42,60
2,note_on,48,0,120
2,note_on,48,41,120
2,note_on,48,0,120
2,note_on,60,32,0
2,note_on,60,0,60
2,note_on,36,43,300
2,note_on,36,0,120
2,note_on,48,35,0
2,note_on,48,0,60
2,note_on,48,41,60
2,note_on,48,0,120
2,note_on,48,40,120
2,note_on,48,0,120
2,note_on,60,31,0
2,note_on,60,0,60
2,note_on,36,42,300
2,note_on,36,0,120
2,note_on,48,34,0
2,note_on,48,0,60
2,note_on,48,40,60
2,note_on,48,0,120
2,note_on,48,39,120
2,note_on,48,0,120
2,note_on,60,30,0
2,note_on,60,0,60
2,note_on,36,41,300
2,note_on,36,0,120
2,note_on,48,33,0
2,note_on,48,0,60
2,note_on,48,39,60
2,note_on,48,0,120
2,note_on,48,38,120
2,note_on,48,0,120
2,note_on,60,29,0
2,note_on,60,0,60
2,note_on,48,40,300
2,note_on,48,0,120
2,note_on,60,32,0
2,note_on,60,0,60
2,note_on,48,37,60
2,note_on,48,0,120
2,note_on,60,29,0
2,note_on,60,0,60
2,note_on,47,40,540
2,note_on,47,0,120
2,note_on,59,32,0
2,note_on,59,0,60
2,note_on,47,37,60
2,note_on,47,0,120
2,note_on,59,29,0
2,note_on,59,0,60
2,note_on,48,40,540
2,note_on,48,0,120
2,note_on,60,32,0
2,note_on,60,0,60
2,note_on,48,37,60
2,note_on,48,0,120
2,note_on,60,29,0
2,note_on,60,0,60
2,note_on,48,40,540
2,note_on,48,0,120
2,note_on,60,32,0
2,note_on,60,0,60
2,note_on,48,37,60
2,note_on,48,0,120
2,note_on,60,29,0
2,note_on,60,0,60
2,note_on,48,40,540
2,note_on,48,0,120
2,note_on,60,32,0
2,note_on,60,0,60
2,note_on,48,37,60
2,note_on,48,0,120
2,note_on,60,29,0
2,note_on,60,0,60
2,note_on,48,40,60
2,note_on,48,0,120
2,note_on,60,40,0
2,note_on,60,0,120
2,note_on,48,45,0
2,note_on,48,0,120
2,note_on,60,48,0
2,note_on,60,0,108
2,note_on,60,52,12
2,note_on,60,0,120
2,note_on,63,56,0
2,note_on,63,0,120
2,note_on,60,59,0
2,note_on,60,0,120
2,note_on,63,63,0
2,note_on,63,0,120
2,note_on,60,67,0
2,note_on,60,0,120
2,note_on,63,70,0
2,note_on,63,0,108
2,note_on,63,77,12
2,note_on,60,64,0
2,note_on,60,0,720
2,note_on,63,0,0
2,note_on,59,51,0
2,note_on,62,60,0
2,note_on,62,0,120
2,note_on,59,0,0
2,note_on,61,59,0
2,note_on,58,50,0
2,note_on,58,0,60
2,note_on,61,0,0
2,note_on,61,67,60
2,note_on,58,56,0
2,note_on,58,0,240
2,note_on,61,0,0
2,note_on,57,51,0
2,note_on,60,60,0
2,note_on,60,0,120
2,note_on,57,0,0
2,note_on,56,50,0
2,note_on,59,59,0
2,note_on,59,0,60
2,note_on,56,0,0
2,note_on,59,67,60
2,note_on,56,56,0
2,note_on,56,0,240
2,note_on,59,0,0
2,note_on,55,51,0
2,note_on,58,60,0
2,note_on,58,0,120
2,note_on,55,0,0
2,note_on,57,59,0
2,note_on,54,50,0
2,note_on,54,0,60
2,note_on,57,0,0
2,note_on,56,67,60
2,note_on,53,56,0
2,note_on,53,0,720
2,note_on,56,0,0
2,note_on,51,38,0
2,note_on,55,45,0
2,note_on,55,0,240
2,note_on,51,0,0
2,note_on,50,40,0
2,note_on,53,48,0
2,note_on,53,0,240
2,note_on,50,0,0
2,note_on,48,42,0
2,note_on,51,50,0
2,note_on,51,0,240
2,note_on,48,0,0
2,note_on,46,45,0
2,note_on,50,53,0
2,note_on,50,0,240
2,note_on,46,0,0
2,note_on,53,56,0
2,note_on,46,47,0
2,note_on,50,47,0
2,note_on,50,0,240
2,note_on,46,0,0
2,note_on,53,0,0
2,note_on,39,56,0
2,note_on,39,0,120
2,note_on,46,40,0
2,note_on,46,0,120
2,note_on,55,40,0
2,note_on,55,0,120
2,note_on,46,40,0
2,note_on,46,0,120
2,note_on,39,54,0
2,note_on,39,0,120
2,note_on,46,44,0
2,note_on,46,0,120
2,note_on,55,43,0
2,note_on,55,0,120
2,note_on,46,43,0
2,note_on,46,0,120
2,note_on,41,58,0
2,note_on,41,0,120
2,note_on,46,49,0
2,note_on,46,0,120
2,note_on,56,49,0
2,note_on,56,0,120
2,note_on,46,47,0
2,note_on,46,0,120
2,note_on,41,53,0
2,note_on,41,0,120
2,note_on,46,44,0
2,note_on,46,0,120
2,note_on,56,44,0
2,note_on,56,0,120
2,note_on,46,44,0
2,note_on,46,0,120
2,note_on,43,53,0
2,note_on,43,0,120
2,note_on,46,43,0
2,note_on,46,0,120
2,note_on,58,43,0
2,note_on,58,0,120
2,note_on,46,43,0
2,note_on,46,0,120
2,note_on,43,53,0
2,note_on,43,0,120
2,note_on,46,43,0
2,note_on,46,0,120
2,note_on,58,43,0
2,note_on,58,0,120
2,note_on,46,43,0
2,note_on,46,0,120
2,note_on,44,53,0
2,note_on,44,0,120
2,note_on,46,44,0
2,note_on,46,0,120
2,note_on,56,44,0
2,note_on,56,0,120
2,note_on,46,44,0
2,note_on,46,0,120
2,note_on,34,53,0
2,note_on,34,0,120
2,note_on,46,46,0
2,note_on,46,0,120
2,note_on,53,46,0
2,note_on,53,0,120
2,note_on,46,46,0
2,note_on,46,0,120
2,note_on,39,56,0
2,note_on,39,0,120
2,note_on,46,40,0
2,note_on,46,0,120
2,note_on,55,40,0
2,note_on,55,0,120
2,note_on,46,40,0
2,note_on,46,0,120
2,note_on,39,54,0
2,note_on,39,0,120
2,note_on,46,44,0
2,note_on,46,0,120
2,note_on,56,43,0
2,note_on,56,0,120
2,note_on,46,43,0
2,note_on,46,0,120
2,note_on,43,58,0
2,note_on,43,0,120
2,note_on,51,49,0
2,note_on,51,0,120
2,note_on,58,49,0
2,note_on,58,0,120
2,note_on,51,47,0
2,note_on,51,0,120
2,note_on,43,53,0
2,note_on,43,0,120
2,note_on,51,44,0
2,note_on,51,0,120
2,note_on,58,44,0
2,note_on,58,0,120
2,note_on,51,44,0
2,note_on,51,0,120
2,note_on,43,53,0
2,note_on,43,0,120
2,note_on,51,43,0
2,note_on,51,0,120
2,note_on,58,43,0
2,note_on,58,0,120
2,note_on,51,43,0
2,note_on,51,0,120
2,note_on,43,53,0
2,note_on,43,0,120
2,note_on,51,43,0
2,note_on,51,0,120
2,note_on,58,43,0
2,note_on,58,0,120
2,note_on,51,43,0
2,note_on,51,0,120
2,note_on,44,53,0
2,note_on,44,0,120
2,note_on,51,44,0
2,note_on,51,0,120
2,note_on,60,44,0
2,note_on,60,0,120
2,note_on,51,44,0
2,note_on,51,0,120
2,note_on,45,53,0
2,note_on,45,0,120
2,note_on,53,46,0
2,note_on,53,0,120
2,note_on,60,46,0
2,note_on,60,0,120
2,note_on,53,46,0
2,note_on,53,0,120
2,note_on,46,52,0
2,note_on,46,0,240
2,note_on,63,46,0
2,note_on,63,0,120
2,note_on,62,49,0
2,note_on,62,0,120
2,note_on,60,48,0
2,note_on,60,0,120
2,note_on,58,47,0
2,note_on,58,0,120
2,note_on,57,46,0
2,note_on,57,0,120
2,note_on,56,45,0
2,note_on,56,0,120
2,note_on,55,44,0
2,note_on,55,0,120
2,note_on,53,43,0
2,note_on,53,0,120
2,note_on,51,42,0
2,note_on,51,0,120
2,note_on,50,41,0
2,note_on,50,0,120
2,note_on,51,40,0
2,note_on,51,0,120
2,note_on,53,42,0
2,note_on,53,0,120
2,note_on,55,44,0
2,note_on,55,0,120
2,note_on,56,46,0
2,note_on,56,0,120
2,note_on,58,57,0
2,note_on,58,0,240
2,note_on,65,46,0
2,note_on,65,0,120
2,note_on,63,53,0
2,note_on,63,0,120
2,note_on,62,52,0
2,note_on,62,0,120
2,note_on,60,51,0
2,note_on,60,0,120
2,note_on,59,50,0
2,note_on,59,0,90
2,note_on,57,49,30
2,note_on,57,0,90
2,note_on,55,47,30
2,note_on,55,0,90
2,note_on,53,48,30
2,note_on,53,0,90
2,note_on,51,51,30
2,note_on,51,0,90
2,note_on,50,55,30
2,note_on,50,0,90
2,note_on,48,59,30
2,note_on,48,0,90
2,note_on,46,62,30
2,note_on,46,0,90
2,note_on,48,66,30
2,note_on,45,66,0
2,note_on,45,0,90
2,note_on,48,0,0
2,note_on,45,58,30
2,note_on,48,69,0
2,note_on,48,0,90
2,note_on,45,0,0
2,note_on,46,72,30
2,note_on,44,61,0
2,note_on,44,0,120
2,note_on,46,0,0
2,note_on,43,63,360
2,note_on,46,75,0
2,note_on,46,0,120
2,note_on,43,0,0
2,note_on,53,65,360
2,note_on,47,71,0
2,note_on,47,0,720
2,note_on,46,71,0
2,note_on,46,0,120
2,note_on,44,80,120
2,note_on,44,0,960
2,note_on,53,0,0
2,note_on,53,65,0
2,note_on,47,71,0
2,note_on,47,0,720
2,note_on,46,71,0
2,note_on,46,0,120
2,note_on,45,80,120
2,note_on,45,0,960
2,note_on,53,0,0
2,note_on,53,48,0
2,note_on,46,40,0
2,note_on,46,0,240
2,note_on,53,0,0
2,note_on,46,40,720
2,note_on,55,48,0
2,note_on,55,0,240
2,note_on,46,0,0
2,note_on,56,48,720
2,note_on,46,40,0
2,note_on,46,0,240
2,note_on,56,0,0
2,note_on,55,48,240
2,note_on,46,40,0
2,note_on,46,0,240
2,note_on,55,0,0
2,note_on,53,48,240
2,note_on,46,40,0
2,note_on,46,0,240
2,note_on,53,0,0
2,note_on,46,40,240
2,note_on,55,48,0
2,note_on,55,0,240
2,note_on,46,0,0
2,note_on,58,40,240
2,note_on,65,48,0
2,note_on,65,0,240
2,note_on,58,0,0
2,note_on,58,40,720
2,note_on,67,48,0
2,note_on,67,0,240
2,note_on,58,0,0
2,note_on,58,40,720
2,note_on,68,48,0
2,note_on,68,0,240
2,note_on,58,0,0
2,note_on,58,40,240
2,note_on,67,48,0
2,note_on,67,0,240
2,note_on,58,0,0
2,note_on,58,40,240
2,note_on,68,48,0
2,note_on,68,0,240
2,note_on,58,0,0
2,note_on,58,48,240
2,note_on,58,0,240
2,note_on,60,38,0
2,note_on,60,0,120
2,note_on,62,40,0
2,note_on,62,0,120
2,note_on,63,42,0
2,note_on,63,0,120
2,note_on,65,44,0
2,note_on,65,0,120
2,note_on,67,46,0
2,note_on,67,0,120
2,note_on,68,48,0
2,note_on,68,0,120
2,note_on,70,50,0
2,note_on,70,0,240
2,note_on,72,38,0
2,note_on,72,0,120
2,note_on,74,40,0
2,note_on,74,0,120
2,note_on,75,42,0
2,note_on,75,0,120
2,note_on,77,44,0
2,note_on,77,0,120
2,note_on,79,46,0
2,note_on,79,0,120
2,note_on,80,48,0
2,note_on,80,0,120
2,note_on,82,50,0
2,note_on,82,0,240
2,note_on,80,47,0
2,note_on,80,0,240
2,note_on,79,56,0
2,note_on,79,0,240
2,note_on,78,46,0
2,note_on,78,0,240
2,note_on,77,55,0
2,note_on,77,0,240
2,note_on,70,47,0
2,note_on,70,0,240
2,note_on,63,39,0
2,note_on,66,39,240
2,note_on,69,39,0
2,note_on,69,0,480
2,note_on,66,0,0
2,note_on,67,39,0
2,note_on,70,39,0
2,note_on,70,0,240
2,note_on,67,0,0
2,note_on,63,0,0
2,note_on,63,39,0
2,note_on,74,39,240
2,note_on,71,39,0
2,note_on,71,0,480
2,note_on,74,0,0
2,note_on,70,39,0
2,note_on,70,0,240
2,note_on,63,0,0
2,note_on,63,39,0
2,note_on,67,33,240
2,note_on,70,39,0
2,note_on,70,0,240
2,note_on,67,0,0
2,note_on,72,39,0
2,note_on,68,33,0
2,note_on,68,0,240
2,note_on,72,0,0
2,note_on,67,30,0
2,note_on,70,39,0
2,note_on,70,0,240
2,note_on,67,0,0
2,note_on,63,0,0
2,note_on,67,39,0
2,note_on,58,39,0
2,note_on,67,0,240
2,note_on,65,33,0
2,note_on,68,39,0
2,note_on,68,0,240
2,note_on,65,0,0
2,note_on,67,39,0
2,note_on,63,33,0
2,note_on,63,0,240
2,note_on,67,0,0
2,note_on,62,30,0
2,note_on,65,39,0
2,note_on,65,0,240
2,note_on,62,0,0
2,note_on,58,0,0
2,note_on,51,35,0
2,note_on,54,38,240
2,note_on,57,53,0
2,note_on,57,0,480
2,note_on,54,0,0
2,note_on,58,35,0
2,note_on,55,35,0
2,note_on,55,0,240
2,note_on,58,0,0
2,note_on,51,0,0
2,note_on,51,35,0
2,note_on,59,38,240
2,note_on,62,50,0
2,note_on,62,0,480
2,note_on,59,0,0
2,note_on,58,35,0
2,note_on,58,0,240
2,note_on,51,0,0
2,note_on,51,29,0
2,note_on,55,29,0
2,note_on,58,35,0
2,note_on,58,0,480
2,note_on,55,0,0
2,note_on,51,0,0
2,note_on,56,35,0
2,note_on,44,29,0
2,note_on,51,29,0
2,note_on,51,0,240
2,note_on,44,0,0
2,note_on,56,0,0
2,note_on,39,27,0
2,note_on,51,35,0
2,note_on,51,0,240
2,note_on,39,0,0
2,note_on,34,35,0
2,note_on,34,0,240
2,note_on,46,35,0
2,note_on,46,0,240
2,note_on,34,35,0
2,note_on,34,0,240
2,note_on,46,35,0
2,note_on,46,0,240
2,note_on,51,43,0
2,note_on,39,43,0
2,note_on,39,0,360
2,note_on,51,0,0
2,note_on,47,39,0
2,note_on,47,0,120
2,note_on,46,45,0
2,note_on,46,0,240
2,note_on,39,38,0
2,note_on,39,0,240
2,note_on,34,55,0
2,note_on,34,0,240
2,note_on,56,44,0
2,note_on,56,0,120
2,note_on,55,36,0
2,note_on,55,0,120
2,note_on,53,43,0
2,note_on,53,0,120
2,note_on,51,39,0
2,note_on,51,0,120
2,note_on,50,39,0
2,note_on,46,39,0
2,note_on,50,0,120
2,note_on,58,39,0
2,note_on,58,0,120
2,note_on,46,0,0
2,note_on,51,43,0
2,note_on,51,0,360
2,note_on,59,39,0
2,note_on,59,0,120
2,note_on,58,45,0
2,note_on,58,0,240
2,note_on,51,38,0
2,note_on,51,0,240
2,note_on,46,55,0
2,note_on,46,0,240
2,note_on,68,44,0
2,note_on,68,0,120
2,note_on,67,36,0
2,note_on,67,0,120
2,note_on,65,43,0
2,note_on,65,0,120
2,note_on,63,39,0
2,note_on,63,0,120
2,note_on,58,39,0
2,note_on,62,39,0
2,note_on,62,0,120
2,note_on,58,0,0
2,note_on,65,39,0
2,note_on,65,0,120
2,note_on,63,39,0
2,note_on,67,39,0
2,note_on,67,0,360
2,note_on,63,0,0
2,note_on,65,33,0
2,note_on,65,0,120
2,note_on,63,39,0
2,note_on,63,0,360
2,note_on,60,34,0
2,note_on,60,0,120
2,note_on,58,39,0
2,note_on,58,0,360
2,note_on,56,35,0
2,note_on,56,0,120
2,note_on,55,39,0
2,note_on,55,0,360
2,note_on,53,33,0
2,note_on,53,0,120
2,note_on,51,39,0
2,note_on,51,0,360
2,note_on,48,31,0
2,note_on,48,0,120
2,note_on,46,39,0
2,note_on,46,0,360
2,note_on,44,34,0
2,note_on,44,0,120
2,note_on,43,39,0
2,note_on,43,0,360
2,note_on,41,35,0
2,note_on,41,0,120
2,note_on,39,39,0
2,note_on,39,0,360
2,note_on,73,37,0
2,note_on,70,30,0
2,note_on,70,0,120
2,note_on,73,0,0
2,note_on,70,36,0
2,note_on,73,42,0
2,note_on,73,0,960
2,note_on,70,0,0
2,note_on,68,36,0
2,note_on,72,42,0
2,note_on,72,0,960
2,note_on,68,0,0
2,note_on,70,42,0
2,note_on,67,36,0
2,note_on,67,0,960
2,note_on,70,0,0
2,note_on,65,36,0
2,note_on,68,42,0
2,note_on,68,0,960
2,note_on,65,0,0
2,note_on,67,84,0
2,note_on,63,70,0
2,note_on,63,0,720
2,note_on,67,0,0
2,note_on,63,51,0
2,note_on,69,60,0
2,note_on,69,0,120
2,note_on,63,0,0
2,note_on,65,59,0
2,note_on,61,50,0
2,note_on,61,0,60
2,note_on,65,0,0
2,note_on,65,67,60
2,note_on,61,56,0
2,note_on,61,0,240
2,note_on,65,0,0
2,note_on,61,51,0
2,note_on,67,60,0
2,note_on,67,0,120
2,note_on,61,0,0
2,note_on,63,59,0
2,note_on,60,50,0
2,note_on,60,0,60
2,note_on,63,0,0
2,note_on,63,67,60
2,note_on,60,56,0
2,note_on,60,0,240
2,note_on,63,0,0
2,note_on,65,60,0
2,note_on,60,44,0
2,note_on,60,0,120
2,note_on,65,0,0
2,note_on,58,50,0
2,note_on,61,59,0
2,note_on,61,0,60
2,note_on,58,0,0
2,note_on,61,67,60
2,note_on,58,56,0
2,note_on,58,0,240
2,note_on,61,0,0
2,note_on,64,60,0
2,note_on,58,51,0
2,note_on,58,0,120
2,note_on,64,0,0
2,note_on,60,59,0
2,note_on,56,50,0
2,note_on,56,0,60
2,note_on,60,0,0
2,note_on,56,56,60
2,note_on,60,67,0
2,note_on,60,0,238
2,note_on,56,0,0
2,note_on,56,56,2
2,note_on,59,67,0
2,note_on,59,0,238
2,note_on,56,0,0
2,note_on,58,67,2
2,note_on,55,56,0
2,note_on,55,0,720
2,note_on,58,0,0
2,note_on,53,38,0
2,note_on,56,45,0
2,note_on,56,0,240
2,note_on,53,0,0
2,note_on,55,48,0
2,note_on,52,40,0
2,note_on,52,0,240
2,note_on,55,0,0
2,note_on,50,42,0
2,note_on,53,50,0
2,note_on,53,0,240
2,note_on,50,0,0
2,note_on,52,53,0
2,note_on,48,45,0
2,note_on,48,0,240
2,note_on,52,0,0
2,note_on,48,47,0
2,note_on,55,47,0
2,note_on,58,56,0
2,note_on,52,47,0
2,note_on,52,0,240
2,note_on,48,0,0
2,note_on,55,0,0
2,note_on,58,0,0
2,note_on,41,56,0
2,note_on,41,0,120
2,note_on,48,40,0
2,note_on,48,0,120
2,note_on,56,40,0
2,note_on,56,0,120
2,note_on,48,40,0
2,note_on,48,0,120
2,note_on,41,54,0
2,note_on,41,0,120
2,note_on,48,44,0
2,note_on,48,0,120
2,note_on,56,43,0
2,note_on,56,0,120
2,note_on,48,43,0
2,note_on,48,0,120
2,note_on,43,58,0
2,note_on,43,0,120
2,note_on,48,49,0
2,note_on,48,0,120
2,note_on,58,49,0
2,note_on,58,0,120
2,note_on,48,47,0
2,note_on,48,0,120
2,note_on,43,53,0
2,note_on,43,0,120
2,note_on,48,44,0
2,note_on,48,0,120
2,note_on,58,44,0
2,note_on,58,0,120
2,note_on,48,44,0
2,note_on,48,0,120
2,note_on,44,53,0
2,note_on,44,0,120
2,note_on,48,43,0
2,note_on,48,0,120
2,note_on,60,43,0
2,note_on,60,0,120
2,note_on,48,43,0
2,note_on,48,0,120
2,note_on,44,53,0
2,note_on,44,0,120
2,note_on,48,43,0
2,note_on,48,0,120
2,note_on,60,43,0
2,note_on,60,0,120
2,note_on,48,43,0
2,note_on,48,0,120
2,note_on,46,53,0
2,note_on,46,0,120
2,note_on,48,44,0
2,note_on,48,0,120
2,note_on,58,44,0
2,note_on,58,0,120
2,note_on,48,44,0
2,note_on,48,0,120
2,note_on,36,53,0
2,note_on,36,0,120
2,note_on,48,46,0
2,note_on,48,0,120
2,note_on,55,46,0
2,note_on,55,0,120
2,note_on,48,46,0
2,note_on,48,0,120
2,note_on,41,56,0
2,note_on,41,0,120
2,note_on,48,40,0
2,note_on,48,0,120
2,note_on,56,40,0
2,note_on,56,0,120
2,note_on,48,40,0
2,note_on,48,0,120
2,note_on,41,54,0
2,note_on,41,0,120
2,note_on,48,44,0
2,note_on,48,0,120
2,note_on,56,43,0
2,note_on,56,0,120
2,note_on,48,43,0
2,note_on,48,0,120
2,note_on,43,58,0
2,note_on,43,0,120
2,note_on,48,49,0
2,note_on,48,0,120
2,note_on,58,49,0
2,note_on,58,0,120
2,note_on,48,47,0
2,note_on,48,0,120
2,note_on,43,53,0
2,note_on,43,0,120
2,note_on,48,44,0
2,note_on,48,0,120
2,note_on,58,44,0
2,note_on,58,0,120
2,note_on,48,44,0
2,note_on,48,0,120
2,note_on,44,53,0
2,note_on,44,0,120
2,note_on,48,43,0
2,note_on,48,0,120
2,note_on,60,43,0
2,note_on,60,0,120
2,note_on,48,43,0
2,note_on,48,0,120
2,note_on,41,53,0
2,note_on,41,0,120
2,note_on,48,43,0
2,note_on,48,0,120
2,note_on,56,43,0
2,note_on,56,0,120
2,note_on,48,43,0
2,note_on,48,0,120
2,note_on,38,53,0
2,note_on,38,0,120
2,note_on,46,44,0
2,note_on,46,0,120
2,note_on,53,44,0
2,note_on,53,0,120
2,note_on,46,44,0
2,note_on,46,0,120
2,note_on,38,53,0
2,note_on,38,0,120
2,note_on,46,46,0
2,note_on,46,0,120
2,note_on,53,46,0
2,note_on,53,0,120
2,note_on,46,46,0
2,note_on,46,0,120
2,note_on,39,56,0
2,note_on,39,0,120
2,note_on,46,40,0
2,note_on,46,0,120
2,note_on,54,40,0
2,note_on,54,0,120
2,note_on,46,40,0
2,note_on,46,0,120
2,note_on,39,54,0
2,note_on,39,0,120
2,note_on,46,44,0
2,note_on,46,0,120
2,note_on,54,43,0
2,note_on,54,0,120
2,note_on,46,43,0
2,note_on,46,0,120
2,note_on,41,58,0
2,note_on,41,0,120
2,note_on,46,49,0
2,note_on,46,0,120
2,note_on,56,49,0
2,note_on,56,0,120
2,note_on,46,47,0
2,note_on,46,0,120
2,note_on,41,53,0
2,note_on,41,0,120
2,note_on,46,44,0
2,note_on,46,0,120
2,note_on,56,44,0
2,note_on,56,0,120
2,note_on,46,44,0
2,note_on,46,0,120
2,note_on,42,53,0
2,note_on,42,0,120
2,note_on,46,43,0
2,note_on,46,0,120
2,note_on,58,43,0
2,note_on,58,0,120
2,note_on,46,43,0
2,note_on,46,0,120
2,note_on,42,53,0
2,note_on,42,0,120
2,note_on,46,43,0
2,note_on,46,0,120
2,note_on,58,43,0
2,note_on,58,0,120
2,note_on,46,43,0
2,note_on,46,0,120
2,note_on,44,53,0
2,note_on,44,0,120
2,note_on,46,44,0
2,note_on,46,0,120
2,note_on,56,44,0
2,note_on,56,0,120
2,note_on,46,44,0
2,note_on,46,0,120
2,note_on,34,53,0
2,note_on,34,0,120
2,note_on,46,46,0
2,note_on,46,0,120
2,note_on,53,46,0
2,note_on,53,0,120
2,note_on,46,46,0
2,note_on,46,0,120
2,note_on,39,56,0
2,note_on,39,0,120
2,note_on,46,40,0
2,note_on,46,0,120
2,note_on,54,40,0
2,note_on,54,0,120
2,note_on,46,40,0
2,note_on,46,0,120
2,note_on,41,54,0
2,note_on,41,0,120
2,note_on,46,44,0
2,note_on,46,0,120
2,note_on,56,43,0
2,note_on,56,0,120
2,note_on,46,43,0
2,note_on,46,0,120
2,note_on,43,56,0
2,note_on,43,0,120
2,note_on,51,40,0
2,note_on,51,0,120
2,note_on,58,40,0
2,note_on,58,0,120
2,note_on,51,40,0
2,note_on,51,0,120
2,note_on,44,54,0
2,note_on,44,0,120
2,note_on,51,44,0
2,note_on,51,0,120
2,note_on,59,43,0
2,note_on,59,0,120
2,note_on,51,43,0
2,note_on,51,0,120
2,note_on,59,43,1920
2,note_on,59,0,960
2,note_on,58,44,0
2,note_on,58,0,960
2,note_on,57,46,0
2,note_on,57,0,240
2,note_on,60,43,1680
2,note_on,60,0,960
2,note_on,58,44,0
2,note_on,58,0,960
2,note_on,56,46,0
2,note_on,56,0,240
2,note_on,65,36,1680
2,note_on,68,43,0
2,note_on,68,0,960
2,note_on,65,0,0
2,note_on,63,39,0
2,note_on,67,47,0
2,note_on,67,0,960
2,note_on,63,0,0
2,note_on,62,40,0
2,note_on,65,48,0
2,note_on,65,0,960
2,note_on,62,0,0
2,note_on,60,43,0
2,note_on,63,51,0
2,note_on,63,0,960
2,note_on,60,0,0
2,note_on,59,55,0
2,note_on,62,64,0
2,note_on,62,0,960
2,note_on,59,0,0
2,note_on,63,41,0
2,note_on,58,34,0
2,note_on,63,0,480
2,note_on,65,36,0
2,note_on,65,0,240
2,note_on,62,36,0
2,note_on,62,0,240
2,note_on,58,0,0
2,note_on,58,36,120
2,note_on,58,0,120
2,note_on,60,36,0
2,note_on,60,0,120
2,note_on,58,36,0
2,note_on,58,0,120
2,note_on,57,42,0
2,note_on,57,0,120
2,note_on,58,36,0
2,note_on,58,0,120
2,note_on,55,36,0
2,note_on,55,0,120
2,note_on,51,36,0
2,note_on,51,0,120
2,note_on,56,42,0
2,note_on,56,0,120
2,note_on,53,36,0
2,note_on,53,0,120
2,note_on,50,36,0
2,note_on,50,0,120
2,note_on,46,36,0
2,note_on,46,0,120
2,note_on,44,43,0
2,note_on,44,0,120
2,note_on,41,36,0
2,note_on,41,0,120
2,note_on,38,36,0
2,note_on,38,0,120
2,note_on,34,36,0
2,note_on,34,0,120
2,note_on,39,45,0
2,note_on,39,0,120
2,note_on,41,36,0
2,note_on,41,0,120
2,note_on,43,36,0
2,note_on,43,0,120
2,note_on,44,36,0
2,note_on,44,0,120
2,note_on,46,43,0
2,note_on,46,0,120
2,note_on,48,36,0
2,note_on,48,0,120
2,note_on,50,36,0
2,note_on,50,0,120
2,note_on,51,36,0
2,note_on,51,0,120
2,note_on,46,33,0
2,note_on,53,42,0
2,note_on,53,0,120
2,note_on,55,30,0
2,note_on,55,0,120
2,note_on,56,30,0
2,note_on,56,0,120
2,note_on,57,30,0
2,note_on,57,0,120
2,note_on,58,39,0
2,note_on,58,0,240
2,note_on,56,33,0
2,note_on,56,0,240
2,note_on,46,0,0
2,note_on,55,39,0
2,note_on,51,33,0
2,note_on,51,0,960
2,note_on,55,0,0
2,note_on,46,33,0
2,note_on,53,39,0
2,note_on,53,0,960
2,note_on,46,0,0
2,note_on,63,33,0
2,note_on,67,39,0
2,note_on,67,0,960
2,note_on,63,0,0
2,note_on,58,33,0
2,note_on,65,39,0
2,note_on,65,0,960
2,note_on,58,0,0
2,note_on,75,33,0
2,note_on,79,39,0
2,note_on,79,0,960
2,note_on,75,0,0
2,note_on,70,36,0
2,note_on,74,36,0
2,note_on,77,43,0
2,note_on,77,0,480
2,note_on,74,0,0
2,note_on,70,0,0
2,note_on,68,39,0
2,note_on,70,39,0
2,note_on,74,39,0
2,note_on,77,46,0
2,note_on,77,0,480
2,note_on,68,0,0
2,note_on,70,0,0
2,note_on,74,0,0
2,note_on,67,40,0
2,note_on,70,48,0
2,note_on,70,0,480
2,note_on,67,0,0
2,note_on,63,39,0
2,note_on,67,46,0
2,note_on,67,0,480
2,note_on,63,0,0
2,note_on,58,37,0
2,note_on,65,37,0
2,note_on,68,44,0
2,note_on,68,0,480
2,note_on,65,0,0
2,note_on,58,0,0
2,note_on,58,34,0
2,note_on,65,34,0
2,note_on,68,41,0
2,note_on,68,0,480
2,note_on,65,0,0
2,note_on,58,0,0
2,note_on,58,36,120
2,note_on,58,0,120
2,note_on,60,36,0
2,note_on,60,0,120
2,note_on,58,36,0
2,note_on,58,0,120
2,note_on,57,42,0
2,note_on,57,0,120
2,note_on,58,36,0
2,note_on,58,0,120
2,note_on,55,36,0
2,note_on,55,0,120
2,note_on,51,36,0
2,note_on,51,0,120
2,note_on,56,42,0
2,note_on,56,0,120
2,note_on,53,36,0
2,note_on,53,0,120
2,note_on,50,36,0
2,note_on,50,0,120
2,note_on,46,36,0
2,note_on,46,0,120
2,note_on,44,43,0
2,note_on,44,0,120
2,note_on,41,36,0
2,note_on,41,0,120
2,note_on,38,36,0
2,note_on,38,0,120
2,note_on,34,36,0
2,note_on,34,0,120
2,note_on,39,45,0
2,note_on,39,0,120
2,note_on,41,36,0
2,note_on,41,0,120
2,note_on,43,36,0
2,note_on,43,0,120
2,note_on,44,36,0
2,note_on,44,0,120
2,note_on,46,43,0
2,note_on,46,0,120
2,note_on,48,36,0
2,note_on,48,0,120
2,note_on,50,36,0
2,note_on,50,0,120
2,note_on,51,36,0
2,note_on,51,0,120
2,note_on,46,33,0
2,note_on,53,42,0
2,note_on,53,0,120
2,note_on,55,30,0
2,note_on,55,0,120
2,note_on,56,30,0
2,note_on,56,0,120
2,note_on,57,30,0
2,note_on,57,0,120
2,note_on,58,39,0
2,note_on,58,0,240
2,note_on,56,33,0
2,note_on,56,0,240
2,note_on,46,0,0
2,note_on,55,39,0
2,note_on,51,33,0
2,note_on,51,0,960
2,note_on,55,0,0
2,note_on,46,33,0
2,note_on,53,39,0
2,note_on,53,0,960
2,note_on,46,0,0
2,note_on,63,33,0
2,note_on,67,39,0
2,note_on,67,0,960
2,note_on,63,0,0
2,note_on,58,33,0
2,note_on,65,39,0
2,note_on,65,0,960
2,note_on,58,0,0
2,note_on,75,33,0
2,note_on,79,39,0
2,note_on,79,0,960
2,note_on,75,0,0
2,note_on,70,36,0
2,note_on,77,43,0
2,note_on,77,0,480
2,note_on,70,0,0
2,note_on,68,39,0
2,note_on,70,39,0
2,note_on,77,46,0
2,note_on,77,0,480
2,note_on,70,0,0
2,note_on,68,0,0
2,note_on,67,40,0
2,note_on,70,48,0
2,note_on,70,0,118
2,note_on,67,0,122
2,note_on,63,39,0
2,note_on,67,46,0
2,note_on,67,0,480
2,note_on,63,0,0
2,note_on,63,40,0
2,note_on,67,48,0
2,note_on,67,0,240
2,note_on,63,0,0
2,note_on,58,37,0
2,note_on,65,44,0
2,note_on,65,0,480
2,note_on,58,0,0
2,note_on,56,34,0
2,note_on,58,34,0
2,note_on,65,41,0
2,note_on,65,0,480
2,note_on,58,0,0
2,note_on,56,0,0
2,note_on,55,40,0
2,note_on,58,48,0
2,note_on,58,0,118
2,note_on,55,0,122
2,note_on,51,33,0
2,note_on,55,39,0
2,note_on,55,0,480
2,note_on,51,0,0
2,note_on,51,34,0
2,note_on,55,40,0
2,note_on,55,0,240
2,note_on,51,0,0
2,note_on,53,31,0
2,note_on,46,31,0
2,note_on,56,37,0
2,note_on,56,0,480
2,note_on,46,0,0
2,note_on,53,0,0
2,note_on,46,28,0
2,note_on,53,28,0
2,note_on,56,34,0
2,note_on,56,0,480
2,note_on,53,0,0
2,note_on,46,0,0
2,note_on,51,43,1920
2,note_on,51,0,960
2,note_on,46,44,0
2,note_on,46,0,960
2,note_on,43,37,0
2,note_on,43,0,240
2,note_on,55,43,1680
2,note_on,51,36,0
2,note_on,51,0,960
2,note_on,55,0,0
2,note_on,53,44,0
2,note_on,46,37,0
2,note_on,46,0,960
2,note_on,53,0,0
2,note_on,43,27,0
2,note_on,51,33,0
2,note_on,51,0,240
2,note_on,43,0,0
2,note_on,51,26,480
2,note_on,55,31,0
2,note_on,55,0,238
2,note_on,51,0,2
2,note_on,46,31,0
2,note_on,53,37,0
2,note_on,53,0,960
2,note_on,46,0,0
2,note_on,43,27,0
2,note_on,51,33,0
2,note_on,51,0,240
2,note_on,43,0,0
2,note_on,63,26,480
2,note_on,67,31,0
2,note_on,67,0,238
2,note_on,63,0,2
2,note_on,58,31,0
2,note_on,65,37,0
2,note_on,65,0,960
2,note_on,58,0,0
2,note_on,55,31,0
2,note_on,63,37,0
2,note_on,63,0,240
2,note_on,55,0,0
2,note_on,75,38,960
2,note_on,79,45,0
2,note_on,79,0,240
2,note_on,75,0,0
2,note_on,70,41,0
2,note_on,77,49,0
2,note_on,77,0,240
2,note_on,70,0,0
2,note_on,75,46,0
2,note_on,67,39,0
2,note_on,67,0,238
2,note_on,75,0,0
2,note_on,67,38,2
2,note_on,75,45,0
2,note_on,67,0,238
2,note_on,75,0,2
2,note_on,51,38,960
2,note_on,55,45,0
2,note_on,55,0,240
2,note_on,51,0,0
2,note_on,46,41,0
2,note_on,53,49,0
2,note_on,53,0,240
2,note_on,46,0,0
2,note_on,51,46,0
2,note_on,43,39,0
2,note_on,43,0,240
2,note_on,51,0,0
2,note_on,50,47,240
2,note_on,53,56,0
2,note_on,53,0,120
2,note_on,50,0,0
2,note_on,39,59,120
2,note_on,39,0,120
2,note_on,50,54,600
2,note_on,53,63,0
2,note_on,53,0,120
2,note_on,50,0,0
2,note_on,39,65,120
2,note_on,39,0,120
2,note_on,50,59,600
2,note_on,53,70,0
2,note_on,53,0,120
2,note_on,50,0,0
2,note_on,39,73,120
2,note_on,39,0,120
2,note_on,46,77,600
2,note_on,46,0,120
2,note_on,34,80,120
2,note_on,34,0,120
2,note_on,46,82,120
2,note_on,46,0,120
2,note_on,39,30,120
2,note_on,39,0,951
2,note_on,39,30,9
2,note_on,38,24,0
2,note_on,38,0,951
2,note_on,39,0,0
2,note_on,36,24,9
2,note_on,39,30,0
2,note_on,39,0,951
2,note_on,36,0,0
2,note_on,34,24,9
2,note_on,39,30,0
2,note_on,39,0,951
2,note_on,34,0,0
2,note_on,32,24,9
2,note_on,39,30,0
2,note_on,39,0,951
2,note_on,32,0,0
2,note_on,31,24,9
2,note_on,39,30,0
2,note_on,39,0,951
2,note_on,31,0,0
2,note_on,32,24,9
2,note_on,39,30,0
2,note_on,39,0,951
2,note_on,32,0,0
2,note_on,31,24,9
2,note_on,39,30,0
2,note_on,39,0,951
2,note_on,31,0,0
2,note_on,32,24,9
2,note_on,39,30,0
2,note_on,39,0,951
2,note_on,32,0,0
2,note_on,31,26,9
2,note_on,39,33,0
2,note_on,39,0,240
2,note_on,31,0,0
2,note_on,34,53,1680
2,note_on,38,53,0
2,note_on,41,53,0
2,note_on,46,63,0
2,note_on,46,0,240
2,note_on,34,0,0
2,note_on,38,0,0
2,note_on,41,0,0
2,note_on,39,53,720
2,note_on,43,53,0
2,note_on,46,53,0
2,note_on,51,63,0
2,note_on,51,0,240
2,note_on,39,0,0
2,note_on,43,0,0
2,note_on,46,0,0
