Track,Message Type,Note,Velocity,Time
1,note_on,64,43,720
1,note_on,64,0,120
1,note_on,66,39,0
1,note_on,66,0,120
1,note_on,64,34,0
1,note_on,68,50,0
1,note_on,64,0,120
1,note_on,59,26,0
1,note_on,59,0,120
1,note_on,64,31,0
1,note_on,64,0,120
1,note_on,59,26,0
1,note_on,59,0,120
1,note_on,68,0,0
1,note_on,68,30,0
1,note_on,71,46,0
1,note_on,68,0,120
1,note_on,59,27,0
1,note_on,59,0,120
1,note_on,71,0,0
1,note_on,66,28,0
1,note_on,69,43,0
1,note_on,66,0,120
1,note_on,59,27,0
1,note_on,59,0,120
1,note_on,69,0,0
1,note_on,64,34,0
1,note_on,68,50,0
1,note_on,64,0,120
1,note_on,59,26,0
1,note_on,59,0,120
1,note_on,68,0,0
1,note_on,63,27,0
1,note_on,66,41,0
1,note_on,63,0,120
1,note_on,59,25,0
1,note_on,59,0,90
1,note_on,66,0,0
1,note_on,63,27,30
1,note_on,66,41,0
1,note_on,63,0,120
1,note_on,59,26,0
1,note_on,59,0,120
1,note_on,66,0,0
1,note_on,64,28,0
1,note_on,68,43,0
1,note_on,64,0,120
1,note_on,59,28,0
1,note_on,59,0,120
1,note_on,68,0,0
1,note_on,64,30,0
1,note_on,69,46,0
1,note_on,64,0,120
1,note_on,59,28,0
1,note_on,59,0,120
1,note_on,69,0,0
1,note_on,64,36,0
1,note_on,73,54,0
1,note_on,64,0,120
1,note_on,59,31,0
1,note_on,59,0,120
1,note_on,73,0,0
1,note_on,66,37,0
1,note_on,71,47,0
1,note_on,66,0,120
1,note_on,59,26,0
1,note_on,59,0,120
1,note_on,71,0,0
1,note_on,63,25,0
1,note_on,66,38,0
1,note_on,63,0,120
1,note_on,59,27,0
1,note_on,59,0,120
1,note_on,66,0,0
1,note_on,59,35,0
1,note_on,64,35,0
1,note_on,68,42,0
1,note_on,68,0,480
1,note_on,64,0,0
1,note_on,59,0,0
1,note_on,76,54,240
1,note_on,76,0,120
1,note_on,78,48,0
1,note_on,78,0,120
1,note_on,68,63,0
1,note_on,80,63,0
1,note_on,80,0,480
1,note_on,68,0,0
1,note_on,71,57,0
1,note_on,83,57,0
1,note_on,83,0,240
1,note_on,71,0,0
1,note_on,69,54,0
1,note_on,81,54,0
1,note_on,81,0,240
1,note_on,69,0,0
1,note_on,68,63,0
1,note_on,80,63,0
1,note_on,80,0,240
1,note_on,68,0,0
1,note_on,66,51,0
1,note_on,78,51,0
1,note_on,78,0,210
1,note_on,66,0,0
1,note_on,66,51,30
1,note_on,78,51,0
1,note_on,78,0,240
1,note_on,66,0,0
1,note_on,68,58,0
1,note_on,80,58,0
1,note_on,80,0,240
1,note_on,68,0,0
1,note_on,69,57,0
1,note_on,81,69,0
1,note_on,81,0,240
1,note_on,69,0,0
1,note_on,73,69,0
1,note_on,85,69,0
1,note_on,85,0,240
1,note_on,73,0,0
1,note_on,71,56,0
1,note_on,83,67,0
1,note_on,83,0,240
1,note_on,71,0,0
1,note_on,87,49,0
1,note_on,75,32,0
1,note_on,75,0,240
1,note_on,87,0,0
1,note_on,88,57,0
1,note_on,76,35,0
1,note_on,76,0,480
1,note_on,88,0,0
1,note_on,71,47,240
1,note_on,71,0,240
1,note_on,70,51,0
1,note_on,70,0,480
1,note_on,76,56,0
1,note_on,76,0,480
1,note_on,75,51,0
1,note_on,75,0,720
1,note_on,69,49,0
1,note_on,69,0,240
1,note_on,68,60,0
1,note_on,68,0,480
1,note_on,74,64,0
1,note_on,74,0,480
1,note_on,73,56,0
1,note_on,73,0,720
1,note_on,73,56,0
1,note_on,73,0,240
1,note_on,72,58,0
1,note_on,72,0,240
1,note_on,73,58,0
1,note_on,73,0,240
1,note_on,69,55,0
1,note_on,64,46,0
1,note_on,61,46,0
1,note_on,61,0,180
1,note_on,64,0,0
1,note_on,69,0,0
1,note_on,68,54,60
1,note_on,64,44,0
1,note_on,59,44,0
1,note_on,59,0,180
1,note_on,64,0,0
1,note_on,68,0,0
1,note_on,68,72,60
1,note_on,64,60,0
1,note_on,58,60,0
1,note_on,68,0,240
1,note_on,66,58,0
1,note_on,58,0,240
1,note_on,64,0,0
1,note_on,64,58,0
1,note_on,57,58,0
1,note_on,66,0,240
1,note_on,66,60,0
1,note_on,66,0,240
1,note_on,57,0,0
1,note_on,64,0,0
1,note_on,66,49,0
1,note_on,63,41,0
1,note_on,57,41,0
1,note_on,57,0,240
1,note_on,63,0,0
1,note_on,66,0,0
1,note_on,71,38,0
1,note_on,63,32,0
1,note_on,71,0,240
1,note_on,70,46,0
1,note_on,70,0,240
1,note_on,63,0,0
1,note_on,71,40,0
1,note_on,63,34,0
1,note_on,63,0,240
1,note_on,71,0,0
1,note_on,64,51,0
1,note_on,64,0,480
1,note_on,83,47,240
1,note_on,71,47,0
1,note_on,71,0,240
1,note_on,83,0,0
1,note_on,82,51,0
1,note_on,70,51,0
1,note_on,70,0,480
1,note_on,82,0,0
1,note_on,88,56,0
1,note_on,76,56,0
1,note_on,76,0,480
1,note_on,88,0,0
1,note_on,87,51,0
1,note_on,75,51,0
1,note_on,75,0,720
1,note_on,87,0,0
1,note_on,81,51,0
1,note_on,69,51,0
1,note_on,69,0,240
1,note_on,81,0,0
1,note_on,80,62,0
1,note_on,68,62,0
1,note_on,68,0,480
1,note_on,80,0,0
1,note_on,86,59,0
1,note_on,74,59,0
1,note_on,74,0,480
1,note_on,86,0,0
1,note_on,85,56,0
1,note_on,73,56,0
1,note_on,73,0,720
1,note_on,85,0,0
1,note_on,85,50,0
1,note_on,73,50,0
1,note_on,73,0,240
1,note_on,85,0,0
1,note_on,84,59,0
1,note_on,72,59,0
1,note_on,72,0,240
1,note_on,84,0,0
1,note_on,85,60,0
1,note_on,73,60,0
1,note_on,73,0,240
1,note_on,85,0,0
1,note_on,81,58,0
1,note_on,69,58,0
1,note_on,69,0,180
1,note_on,81,0,0
1,note_on,80,57,60
1,note_on,68,57,0
1,note_on,68,0,180
1,note_on,80,0,0
1,note_on,80,70,60
1,note_on,68,70,0
1,note_on,68,0,240
1,note_on,80,0,0
1,note_on,78,64,0
1,note_on,66,64,0
1,note_on,66,0,475
1,note_on,78,0,0
1,note_on,78,53,5
1,note_on,66,53,0
1,note_on,66,0,228
1,note_on,78,0,0
1,note_on,78,49,12
1,note_on,66,49,0
1,note_on,66,0,240
1,note_on,78,0,0
1,note_on,83,38,0
1,note_on,71,38,0
1,note_on,71,0,240
1,note_on,83,0,0
1,note_on,82,46,0
1,note_on,70,46,0
1,note_on,70,0,240
1,note_on,82,0,0
1,note_on,83,40,0
1,note_on,71,40,0
1,note_on,71,0,240
1,note_on,83,0,0
1,note_on,76,51,0
1,note_on,64,51,0
1,note_on,64,0,480
1,note_on,76,0,0
1,note_on,64,43,240
1,note_on,64,0,120
1,note_on,66,39,0
1,note_on,66,0,120
1,note_on,64,34,0
1,note_on,68,50,0
1,note_on,64,0,120
1,note_on,59,26,0
1,note_on,59,0,120
1,note_on,64,31,0
1,note_on,64,0,120
1,note_on,59,26,0
1,note_on,59,0,120
1,note_on,68,0,0
1,note_on,68,30,0
1,note_on,71,46,0
1,note_on,68,0,120
1,note_on,59,27,0
1,note_on,59,0,120
1,note_on,71,0,0
1,note_on,66,28,0
1,note_on,69,43,0
1,note_on,66,0,120
1,note_on,59,27,0
1,note_on,59,0,120
1,note_on,69,0,0
1,note_on,64,34,0
1,note_on,68,50,0
1,note_on,64,0,120
1,note_on,59,26,0
1,note_on,59,0,120
1,note_on,68,0,0
1,note_on,63,27,0
1,note_on,66,41,0
1,note_on,63,0,120
1,note_on,59,25,0
1,note_on,59,0,90
1,note_on,66,0,0
1,note_on,63,27,30
1,note_on,66,41,0
1,note_on,63,0,120
1,note_on,59,26,0
1,note_on,59,0,120
1,note_on,66,0,0
1,note_on,64,28,0
1,note_on,68,43,0
1,note_on,64,0,120
1,note_on,59,28,0
1,note_on,59,0,120
1,note_on,68,0,0
1,note_on,64,30,0
1,note_on,69,46,0
1,note_on,64,0,120
1,note_on,59,28,0
1,note_on,59,0,120
1,note_on,69,0,0
1,note_on,64,36,0
1,note_on,73,54,0
1,note_on,64,0,120
1,note_on,59,31,0
1,note_on,59,0,120
1,note_on,73,0,0
1,note_on,66,37,0
1,note_on,71,47,0
1,note_on,66,0,120
1,note_on,59,26,0
1,note_on,59,0,120
1,note_on,71,0,0
1,note_on,63,25,0
1,note_on,66,38,0
1,note_on,63,0,120
1,note_on,59,27,0
1,note_on,59,0,120
1,note_on,66,0,0
1,note_on,59,35,0
1,note_on,64,35,0
1,note_on,68,42,0
1,note_on,68,0,240
1,note_on,64,0,0
1,note_on,59,0,0
1,note_on,78,48,210
1,note_on,78,0,30
1,note_on,76,54,0
1,note_on,76,0,120
1,note_on,75,48,0
1,note_on,75,0,120
1,note_on,76,56,0
1,note_on,76,0,120
1,note_on,78,50,0
1,note_on,78,0,90
1,note_on,81,50,0
1,note_on,81,0,30
1,note_on,80,60,0
1,note_on,80,0,120
1,note_on,78,55,0
1,note_on,78,0,120
1,note_on,80,49,0
1,note_on,80,0,120
1,note_on,81,55,0
1,note_on,81,0,120
1,note_on,71,54,0
1,note_on,83,63,0
1,note_on,83,0,240
1,note_on,71,0,0
1,note_on,81,64,0
1,note_on,69,54,0
1,note_on,69,0,240
1,note_on,81,0,0
1,note_on,80,70,0
1,note_on,68,59,0
1,note_on,68,0,240
1,note_on,80,0,0
1,note_on,66,56,0
1,note_on,78,67,0
1,note_on,78,0,228
1,note_on,66,0,0
1,note_on,66,63,12
1,note_on,78,75,0
1,note_on,78,0,240
1,note_on,66,0,0
1,note_on,80,68,0
1,note_on,68,57,0
1,note_on,68,0,240
1,note_on,80,0,0
1,note_on,69,64,0
1,note_on,81,76,0
1,note_on,81,0,240
1,note_on,69,0,0
1,note_on,85,69,0
1,note_on,73,58,0
1,note_on,73,0,240
1,note_on,85,0,0
1,note_on,83,80,0
1,note_on,71,67,0
1,note_on,71,0,240
1,note_on,83,0,0
1,note_on,75,70,0
1,note_on,81,70,0
1,note_on,87,83,0
1,note_on,87,0,180
1,note_on,81,0,0
1,note_on,75,0,0
1,note_on,76,73,60
1,note_on,80,73,0
1,note_on,88,88,0
1,note_on,88,0,480
1,note_on,80,0,0
1,note_on,76,0,0
1,note_on,64,73,240
1,note_on,68,87,0
1,note_on,68,0,120
1,note_on,64,0,0
1,note_on,64,81,120
1,note_on,68,96,0
1,note_on,68,0,720
1,note_on,64,0,0
1,note_on,76,34,0
1,note_on,68,28,0
1,note_on,64,28,0
1,note_on,64,0,120
1,note_on,68,0,0
1,note_on,76,0,0
1,note_on,75,39,120
1,note_on,68,33,0
1,note_on,66,33,0
1,note_on,63,33,0
1,note_on,63,0,720
1,note_on,75,0,0
1,note_on,68,0,0
1,note_on,66,0,0
1,note_on,63,73,0
1,note_on,66,73,0
1,note_on,68,87,0
1,note_on,68,0,120
1,note_on,66,0,0
1,note_on,63,0,0
1,note_on,66,81,120
1,note_on,63,81,0
1,note_on,68,96,0
1,note_on,68,0,720
1,note_on,63,0,0
1,note_on,66,0,0
1,note_on,63,28,0
1,note_on,75,34,0
1,note_on,68,28,0
1,note_on,66,28,0
1,note_on,66,0,120
1,note_on,63,0,0
1,note_on,75,0,0
1,note_on,68,0,0
1,note_on,76,39,120
1,note_on,68,33,0
1,note_on,64,33,0
1,note_on,64,0,720
1,note_on,68,0,0
1,note_on,76,0,0
1,note_on,64,73,0
1,note_on,68,87,0
1,note_on,68,0,120
1,note_on,64,0,0
1,note_on,64,81,120
1,note_on,68,96,0
1,note_on,68,0,720
1,note_on,64,0,0
1,note_on,76,34,0
1,note_on,68,28,0
1,note_on,64,28,0
1,note_on,64,0,120
1,note_on,68,0,0
1,note_on,76,0,0
1,note_on,76,39,120
1,note_on,66,33,0
1,note_on,64,33,0
1,note_on,64,0,720
1,note_on,66,0,0
1,note_on,76,0,0
1,note_on,61,73,0
1,note_on,64,87,0
1,note_on,64,0,120
1,note_on,61,0,0
1,note_on,59,81,120
1,note_on,64,96,0
1,note_on,64,0,720
1,note_on,59,0,0
1,note_on,64,70,0
1,note_on,76,85,0
1,note_on,71,70,0
1,note_on,71,0,120
1,note_on,76,0,0
1,note_on,64,0,0
1,note_on,64,66,120
1,note_on,76,78,0
1,note_on,73,66,0
1,note_on,70,66,0
1,note_on,70,0,720
1,note_on,64,0,0
1,note_on,76,0,0
1,note_on,73,0,0
1,note_on,76,53,240
1,note_on,85,53,0
1,note_on,85,0,720
1,note_on,76,0,0
1,note_on,75,57,0
1,note_on,83,57,0
1,note_on,83,0,216
1,note_on,75,0,0
1,note_on,83,62,24
1,note_on,75,62,0
1,note_on,75,0,240
1,note_on,83,0,0
1,note_on,73,48,0
1,note_on,82,48,0
1,note_on,82,0,216
1,note_on,73,0,0
1,note_on,82,47,24
1,note_on,73,47,0
1,note_on,73,0,240
1,note_on,82,0,0
1,note_on,75,39,0
1,note_on,83,39,0
1,note_on,83,0,240
1,note_on,75,0,0
1,note_on,76,53,0
1,note_on,85,53,0
1,note_on,85,0,720
1,note_on,76,0,0
1,note_on,75,57,0
1,note_on,83,57,0
1,note_on,83,0,216
1,note_on,75,0,0
1,note_on,82,62,24
1,note_on,73,62,0
1,note_on,73,0,240
1,note_on,82,0,0
1,note_on,85,48,0
1,note_on,76,48,0
1,note_on,76,0,240
1,note_on,85,0,0
1,note_on,83,47,0
1,note_on,75,47,0
1,note_on,75,0,240
1,note_on,83,0,0
1,note_on,73,39,0
1,note_on,82,39,0
1,note_on,82,0,240
1,note_on,73,0,0
1,note_on,83,39,0
1,note_on,78,39,0
1,note_on,78,0,240
1,note_on,83,0,0
1,note_on,82,34,0
1,note_on,82,0,240
1,note_on,80,39,0
1,note_on,80,0,240
1,note_on,78,35,0
1,note_on,78,0,240
1,note_on,80,39,0
1,note_on,80,0,240
1,note_on,78,37,0
1,note_on,78,0,240
1,note_on,76,39,0
1,note_on,76,0,240
1,note_on,75,34,0
1,note_on,75,0,230
1,note_on,75,39,10
1,note_on,75,0,720
1,note_on,76,38,0
1,note_on,76,0,120
1,note_on,78,33,0
1,note_on,78,0,120
1,note_on,73,39,0
1,note_on,73,0,240
1,note_on,78,39,0
1,note_on,78,0,120
1,note_on,80,34,0
1,note_on,80,0,120
1,note_on,78,39,0
1,note_on,78,0,120
1,note_on,80,35,0
1,note_on,80,0,120
1,note_on,78,39,0
1,note_on,78,0,120
1,note_on,80,35,0
1,note_on,80,0,120
1,note_on,85,53,0
1,note_on,88,53,0
1,note_on,78,39,0
1,note_on,78,0,120
1,note_on,80,35,0
1,note_on,80,0,120
1,note_on,78,39,0
1,note_on,78,0,120
1,note_on,80,35,0
1,note_on,80,0,120
1,note_on,78,39,0
1,note_on,78,0,120
1,note_on,80,37,0
1,note_on,80,0,120
1,note_on,88,0,0
1,note_on,85,0,0
1,note_on,87,57,0
1,note_on,83,57,0
1,note_on,78,43,0
1,note_on,78,0,120
1,note_on,80,41,0
1,note_on,83,0,96
1,note_on,87,0,0
1,note_on,80,0,24
1,note_on,87,62,0
1,note_on,83,62,0
1,note_on,78,48,0
1,note_on,78,0,120
1,note_on,80,42,0
1,note_on,80,0,120
1,note_on,83,0,0
1,note_on,87,0,0
1,note_on,82,48,0
1,note_on,85,48,0
1,note_on,78,46,0
1,note_on,78,0,120
1,note_on,80,40,0
1,note_on,85,0,96
1,note_on,82,0,0
1,note_on,80,0,24
1,note_on,85,47,0
1,note_on,78,44,0
1,note_on,82,47,0
1,note_on,78,0,120
1,note_on,80,38,0
1,note_on,80,0,120
1,note_on,82,0,0
1,note_on,85,0,0
1,note_on,87,39,0
1,note_on,83,39,0
1,note_on,78,41,0
1,note_on,78,0,120
1,note_on,80,36,0
1,note_on,80,0,120
1,note_on,83,0,0
1,note_on,87,0,0
1,note_on,88,53,0
1,note_on,85,53,0
1,note_on,78,39,0
1,note_on,78,0,120
1,note_on,80,36,0
1,note_on,80,0,120
1,note_on,78,41,0
1,note_on,78,0,120
1,note_on,80,38,0
1,note_on,80,0,120
1,note_on,78,43,0
1,note_on,78,0,120
1,note_on,80,40,0
1,note_on,80,0,120
1,note_on,85,0,0
1,note_on,88,0,0
1,note_on,78,46,0
1,note_on,87,57,0
1,note_on,83,57,0
1,note_on,78,0,120
1,note_on,80,42,0
1,note_on,83,0,96
1,note_on,87,0,0
1,note_on,80,0,24
1,note_on,85,62,0
1,note_on,82,62,0
1,note_on,82,0,120
1,note_on,78,36,0
1,note_on,78,0,120
1,note_on,85,0,0
1,note_on,92,48,0
1,note_on,88,48,0
1,note_on,88,0,120
1,note_on,78,36,0
1,note_on,78,0,120
1,note_on,92,0,0
1,note_on,90,47,0
1,note_on,87,47,0
1,note_on,87,0,120
1,note_on,78,36,0
1,note_on,78,0,120
1,note_on,90,0,0
1,note_on,85,39,0
1,note_on,88,39,0
1,note_on,85,0,120
1,note_on,78,36,0
1,note_on,78,0,120
1,note_on,88,0,0
1,note_on,87,62,0
1,note_on,83,62,0
1,note_on,83,0,120
1,note_on,78,35,0
1,note_on,78,0,120
1,note_on,87,0,0
1,note_on,90,47,0
1,note_on,87,47,0
1,note_on,87,0,120
1,note_on,78,34,0
1,note_on,78,0,120
1,note_on,90,0,0
1,note_on,88,45,0
1,note_on,85,45,0
1,note_on,85,0,120
1,note_on,78,34,0
1,note_on,78,0,120
1,note_on,88,0,0
1,note_on,83,36,0
1,note_on,87,36,0
1,note_on,83,0,120
1,note_on,78,33,0
1,note_on,78,0,120
1,note_on,87,0,0
1,note_on,85,57,0
1,note_on,82,57,0
1,note_on,82,0,120
1,note_on,78,32,0
1,note_on,78,0,120
1,note_on,85,0,0
1,note_on,88,43,0
1,note_on,85,43,0
1,note_on,85,0,120
1,note_on,78,32,0
1,note_on,78,0,120
1,note_on,88,0,0
1,note_on,87,41,0
1,note_on,83,41,0
1,note_on,83,0,120
1,note_on,78,31,0
1,note_on,78,0,120
1,note_on,87,0,0
1,note_on,82,33,0
1,note_on,85,33,0
1,note_on,82,0,120
1,note_on,78,30,0
1,note_on,78,0,120
1,note_on,85,0,0
1,note_on,83,52,0
1,note_on,78,29,120
1,note_on,78,0,120
1,note_on,83,0,0
1,note_on,81,39,0
1,note_on,72,29,120
1,note_on,72,0,120
1,note_on,81,0,0
1,note_on,80,37,0
1,note_on,72,28,120
1,note_on,72,0,120
1,note_on,80,0,0
1,note_on,80,30,0
1,note_on,72,27,120
1,note_on,72,0,120
1,note_on,80,0,0
1,note_on,80,39,0
1,note_on,72,39,0
1,note_on,72,0,120
1,note_on,80,0,0
1,note_on,68,33,0
1,note_on,68,0,120
1,note_on,70,34,0
1,note_on,70,0,120
1,note_on,72,37,0
1,note_on,72,0,90
1,note_on,75,35,0
1,note_on,75,0,30
1,note_on,73,39,0
1,note_on,73,0,120
1,note_on,72,32,0
1,note_on,72,0,120
1,note_on,73,35,0
1,note_on,73,0,120
1,note_on,75,32,0
1,note_on,75,0,120
1,note_on,76,39,0
1,note_on,76,0,120
1,note_on,72,33,0
1,note_on,72,0,120
1,note_on,73,35,0
1,note_on,73,0,120
1,note_on,75,32,0
1,note_on,75,0,90
1,note_on,78,32,0
1,note_on,78,0,30
1,note_on,76,41,0
1,note_on,76,0,120
1,note_on,75,33,0
1,note_on,75,0,120
1,note_on,76,35,0
1,note_on,76,0,120
1,note_on,78,32,0
1,note_on,78,0,120
1,note_on,80,42,0
1,note_on,80,0,120
1,note_on,78,35,0
1,note_on,78,0,120
1,note_on,76,35,0
1,note_on,76,0,120
1,note_on,75,34,0
1,note_on,75,0,120
1,note_on,76,41,0
1,note_on,76,0,120
1,note_on,75,35,0
1,note_on,75,0,120
1,note_on,73,35,0
1,note_on,73,0,120
1,note_on,80,34,0
1,note_on,80,0,120
1,note_on,75,40,0
1,note_on,75,0,120
1,note_on,73,34,0
1,note_on,73,0,120
1,note_on,71,35,0
1,note_on,71,0,120
1,note_on,78,35,0
1,note_on,78,0,120
1,note_on,73,40,0
1,note_on,73,0,120
1,note_on,71,33,0
1,note_on,71,0,120
1,note_on,70,35,0
1,note_on,70,0,120
1,note_on,78,33,0
1,note_on,78,0,110
1,note_on,78,43,10
1,note_on,75,43,0
1,note_on,66,36,0
1,note_on,66,0,960
1,note_on,75,0,0
1,note_on,78,0,0
1,note_on,64,28,0
1,note_on,73,34,0
1,note_on,76,34,0
1,note_on,76,0,480
1,note_on,73,0,0
1,note_on,64,0,0
1,note_on,63,25,0
1,note_on,71,30,0
1,note_on,75,30,0
1,note_on,75,0,480
1,note_on,71,0,0
1,note_on,63,0,0
1,note_on,68,39,0
1,note_on,73,39,0
1,note_on,73,0,480
1,note_on,68,0,0
1,note_on,71,35,0
1,note_on,68,29,0
1,note_on,68,0,480
1,note_on,66,33,0
1,note_on,66,0,480
1,note_on,71,0,0
1,note_on,70,44,0
1,note_on,66,37,0
1,note_on,70,0,240
1,note_on,78,43,0
1,note_on,78,0,240
1,note_on,66,0,0
1,note_on,66,57,0
1,note_on,69,57,0
1,note_on,78,67,0
1,note_on,78,0,960
1,note_on,69,0,0
1,note_on,66,0,0
1,note_on,64,51,0
1,note_on,69,51,0
1,note_on,76,63,0
1,note_on,76,0,480
1,note_on,69,0,0
1,note_on,64,0,0
1,note_on,63,52,0
1,note_on,69,52,0
1,note_on,75,64,0
1,note_on,66,52,0
1,note_on,66,0,480
1,note_on,63,0,0
1,note_on,69,0,0
1,note_on,75,0,0
1,note_on,69,68,0
1,note_on,73,80,0
1,note_on,73,0,480
1,note_on,69,0,0
1,note_on,66,68,0
1,note_on,71,81,0
1,note_on,63,68,0
1,note_on,63,0,960
1,note_on,71,0,0
1,note_on,66,0,0
1,note_on,66,67,0
1,note_on,69,80,0
1,note_on,63,67,0
1,note_on,63,0,480
1,note_on,69,0,0
1,note_on,66,0,0
1,note_on,69,82,0
1,note_on,69,0,120
1,note_on,75,75,0
1,note_on,75,0,120
1,note_on,78,80,0
1,note_on,78,0,120
1,note_on,75,77,0
1,note_on,75,0,120
1,note_on,81,68,0
1,note_on,81,0,120
1,note_on,87,59,0
1,note_on,87,0,120
1,note_on,90,50,0
1,note_on,90,0,120
1,note_on,87,41,0
1,note_on,87,0,120
1,note_on,93,54,0
1,note_on,93,0,480
1,note_on,63,39,120
1,note_on,63,0,120
1,note_on,64,39,0
1,note_on,64,0,120
1,note_on,66,41,0
1,note_on,66,0,120
1,note_on,64,34,0
1,note_on,68,50,0
1,note_on,64,0,120
1,note_on,59,26,0
1,note_on,59,0,120
1,note_on,64,31,0
1,note_on,64,0,120
1,note_on,59,26,0
1,note_on,59,0,120
1,note_on,68,0,0
1,note_on,68,30,0
1,note_on,71,46,0
1,note_on,68,0,120
1,note_on,59,27,0
1,note_on,59,0,120
1,note_on,71,0,0
1,note_on,66,28,0
1,note_on,69,43,0
1,note_on,66,0,120
1,note_on,59,27,0
1,note_on,59,0,120
1,note_on,69,0,0
1,note_on,64,34,0
1,note_on,68,50,0
1,note_on,64,0,120
1,note_on,59,26,0
1,note_on,59,0,120
1,note_on,68,0,0
1,note_on,63,27,0
1,note_on,66,41,0
1,note_on,63,0,120
1,note_on,59,25,0
1,note_on,59,0,90
1,note_on,66,0,0
1,note_on,63,27,30
1,note_on,66,41,0
1,note_on,63,0,120
1,note_on,59,26,0
1,note_on,59,0,120
1,note_on,66,0,0
1,note_on,64,28,0
1,note_on,68,43,0
1,note_on,64,0,120
1,note_on,59,28,0
1,note_on,59,0,120
1,note_on,68,0,0
1,note_on,64,30,0
1,note_on,69,46,0
1,note_on,64,0,120
1,note_on,59,28,0
1,note_on,59,0,120
1,note_on,69,0,0
1,note_on,64,36,0
1,note_on,73,54,0
1,note_on,64,0,120
1,note_on,59,31,0
1,note_on,59,0,120
1,note_on,73,0,0
1,note_on,66,37,0
1,note_on,71,47,0
1,note_on,66,0,120
1,note_on,59,26,0
1,note_on,59,0,120
1,note_on,71,0,0
1,note_on,63,25,0
1,note_on,66,38,0
1,note_on,63,0,120
1,note_on,59,27,0
1,note_on,59,0,120
1,note_on,66,0,0
1,note_on,59,35,0
1,note_on,64,35,0
1,note_on,68,42,0
1,note_on,68,0,480
1,note_on,64,0,0
1,note_on,59,0,0
1,note_on,76,47,240
1,note_on,76,0,120
1,note_on,78,42,0
1,note_on,78,0,120
1,note_on,68,55,0
1,note_on,80,55,0
1,note_on,80,0,480
1,note_on,68,0,0
1,note_on,71,50,0
1,note_on,83,50,0
1,note_on,83,0,240
1,note_on,71,0,0
1,note_on,69,47,0
1,note_on,81,47,0
1,note_on,81,0,240
1,note_on,69,0,0
1,note_on,68,55,0
1,note_on,80,55,0
1,note_on,80,0,240
1,note_on,68,0,0
1,note_on,66,45,0
1,note_on,78,45,0
1,note_on,78,0,210
1,note_on,66,0,0
1,note_on,66,45,30
1,note_on,78,45,0
1,note_on,78,0,240
1,note_on,66,0,0
1,note_on,68,49,0
1,note_on,80,49,0
1,note_on,80,0,240
1,note_on,68,0,0
1,note_on,69,47,0
1,note_on,81,56,0
1,note_on,81,0,240
1,note_on,69,0,0
1,note_on,73,51,0
1,note_on,85,61,0
1,note_on,85,0,240
1,note_on,73,0,0
1,note_on,71,47,0
1,note_on,83,57,0
1,note_on,83,0,240
1,note_on,71,0,0
1,note_on,87,49,0
1,note_on,75,32,0
1,note_on,75,0,240
1,note_on,87,0,0
1,note_on,88,57,0
1,note_on,76,35,0
1,note_on,76,0,480
1,note_on,88,0,0
1,note_on,71,47,240
1,note_on,71,0,240
1,note_on,70,51,0
1,note_on,70,0,480
1,note_on,76,56,0
1,note_on,76,0,480
1,note_on,75,51,0
1,note_on,75,0,720
1,note_on,69,45,0
1,note_on,69,0,240
1,note_on,68,51,0
1,note_on,68,0,480
1,note_on,74,54,0
1,note_on,74,0,480
1,note_on,73,51,0
1,note_on,73,0,720
1,note_on,73,48,0
1,note_on,73,0,240
1,note_on,72,57,0
1,note_on,72,0,240
1,note_on,73,58,0
1,note_on,73,0,240
1,note_on,69,55,0
1,note_on,64,46,0
1,note_on,61,46,0
1,note_on,61,0,180
1,note_on,64,0,0
1,note_on,69,0,0
1,note_on,68,55,60
1,note_on,64,46,0
1,note_on,59,46,0
1,note_on,59,0,180
1,note_on,64,0,0
1,note_on,68,0,0
1,note_on,68,76,60
1,note_on,64,64,0
1,note_on,58,64,0
1,note_on,68,0,240
1,note_on,66,62,0
1,note_on,58,0,240
1,note_on,64,0,0
1,note_on,64,63,0
1,note_on,57,63,0
1,note_on,66,0,240
1,note_on,66,67,0
1,note_on,66,0,240
1,note_on,57,0,0
1,note_on,64,0,0
1,note_on,66,49,0
1,note_on,63,41,0
1,note_on,57,41,0
1,note_on,57,0,240
1,note_on,63,0,0
1,note_on,66,0,0
1,note_on,71,38,0
1,note_on,63,32,0
1,note_on,71,0,240
1,note_on,70,46,0
1,note_on,70,0,240
1,note_on,63,0,0
1,note_on,71,40,0
1,note_on,63,34,0
1,note_on,63,0,240
1,note_on,71,0,0
1,note_on,64,51,0
1,note_on,64,0,480
1,note_on,83,47,240
1,note_on,71,47,0
1,note_on,71,0,240
1,note_on,83,0,0
1,note_on,82,51,0
1,note_on,70,51,0
1,note_on,70,0,480
1,note_on,82,0,0
1,note_on,88,56,0
1,note_on,76,56,0
1,note_on,76,0,480
1,note_on,88,0,0
1,note_on,87,51,0
1,note_on,75,51,0
1,note_on,75,0,720
1,note_on,87,0,0
1,note_on,81,45,0
1,note_on,69,45,0
1,note_on,69,0,240
1,note_on,81,0,0
1,note_on,80,51,0
1,note_on,68,51,0
1,note_on,68,0,480
1,note_on,80,0,0
1,note_on,86,54,0
1,note_on,74,54,0
1,note_on,74,0,480
1,note_on,86,0,0
1,note_on,85,51,0
1,note_on,73,51,0
1,note_on,73,0,720
1,note_on,85,0,0
1,note_on,85,50,0
1,note_on,73,50,0
1,note_on,73,0,240
1,note_on,85,0,0
1,note_on,84,59,0
1,note_on,72,59,0
1,note_on,72,0,240
1,note_on,84,0,0
1,note_on,85,60,0
1,note_on,73,60,0
1,note_on,73,0,240
1,note_on,85,0,0
1,note_on,81,58,0
1,note_on,69,58,0
1,note_on,69,0,180
1,note_on,81,0,0
1,note_on,80,57,60
1,note_on,68,57,0
1,note_on,68,0,180
1,note_on,80,0,0
1,note_on,80,71,60
1,note_on,68,71,0
1,note_on,68,0,240
1,note_on,80,0,0
1,note_on,78,65,0
1,note_on,66,65,0
1,note_on,66,0,475
1,note_on,78,0,0
1,note_on,78,69,5
1,note_on,66,69,0
1,note_on,66,0,228
1,note_on,78,0,0
1,note_on,78,49,12
1,note_on,66,49,0
1,note_on,66,0,240
1,note_on,78,0,0
1,note_on,83,38,0
1,note_on,71,38,0
1,note_on,71,0,240
1,note_on,83,0,0
1,note_on,82,46,0
1,note_on,70,46,0
1,note_on,70,0,240
1,note_on,82,0,0
1,note_on,83,40,0
1,note_on,71,40,0
1,note_on,71,0,240
1,note_on,83,0,0
1,note_on,76,51,0
1,note_on,64,51,0
1,note_on,64,0,480
1,note_on,76,0,0
1,note_on,64,43,240
1,note_on,64,0,120
1,note_on,66,39,0
1,note_on,66,0,120
1,note_on,64,34,0
1,note_on,68,50,0
1,note_on,64,0,120
1,note_on,59,26,0
1,note_on,59,0,120
1,note_on,64,31,0
1,note_on,64,0,120
1,note_on,59,26,0
1,note_on,59,0,120
1,note_on,68,0,0
1,note_on,68,30,0
1,note_on,71,46,0
1,note_on,68,0,120
1,note_on,59,27,0
1,note_on,59,0,120
1,note_on,71,0,0
1,note_on,66,28,0
1,note_on,69,43,0
1,note_on,66,0,120
1,note_on,59,27,0
1,note_on,59,0,120
1,note_on,69,0,0
1,note_on,64,34,0
1,note_on,68,50,0
1,note_on,64,0,120
1,note_on,59,26,0
1,note_on,59,0,120
1,note_on,68,0,0
1,note_on,63,27,0
1,note_on,66,41,0
1,note_on,63,0,120
1,note_on,59,25,0
1,note_on,59,0,90
1,note_on,66,0,0
1,note_on,63,27,30
1,note_on,66,41,0
1,note_on,63,0,120
1,note_on,59,26,0
1,note_on,59,0,120
1,note_on,66,0,0
1,note_on,64,28,0
1,note_on,68,43,0
1,note_on,64,0,120
1,note_on,59,28,0
1,note_on,59,0,120
1,note_on,68,0,0
1,note_on,64,30,0
1,note_on,69,46,0
1,note_on,64,0,120
1,note_on,59,28,0
1,note_on,59,0,120
1,note_on,69,0,0
1,note_on,64,36,0
1,note_on,73,54,0
1,note_on,64,0,120
1,note_on,59,31,0
1,note_on,59,0,120
1,note_on,73,0,0
1,note_on,66,37,0
1,note_on,71,47,0
1,note_on,66,0,120
1,note_on,59,26,0
1,note_on,59,0,120
1,note_on,71,0,0
1,note_on,63,25,0
1,note_on,66,38,0
1,note_on,63,0,120
1,note_on,59,27,0
1,note_on,59,0,120
1,note_on,66,0,0
1,note_on,59,35,0
1,note_on,64,35,0
1,note_on,68,42,0
1,note_on,68,0,240
1,note_on,64,0,0
1,note_on,59,0,0
1,note_on,78,42,210
1,note_on,78,0,30
1,note_on,76,47,0
1,note_on,76,0,120
1,note_on,75,42,0
1,note_on,75,0,120
1,note_on,76,48,0
1,note_on,76,0,120
1,note_on,78,47,0
1,note_on,78,0,90
1,note_on,81,50,0
1,note_on,81,0,30
1,note_on,80,52,0
1,note_on,80,0,120
1,note_on,78,47,0
1,note_on,78,0,120
1,note_on,80,42,0
1,note_on,80,0,120
1,note_on,81,47,0
1,note_on,81,0,120
1,note_on,71,45,0
1,note_on,83,53,0
1,note_on,83,0,240
1,note_on,71,0,0
1,note_on,81,53,0
1,note_on,69,45,0
1,note_on,69,0,240
1,note_on,81,0,0
1,note_on,80,58,0
1,note_on,68,49,0
1,note_on,68,0,240
1,note_on,80,0,0
1,note_on,66,46,0
1,note_on,78,55,0
1,note_on,78,0,228
1,note_on,66,0,0
1,note_on,66,58,12
1,note_on,78,70,0
1,note_on,78,0,240
1,note_on,66,0,0
1,note_on,80,64,0
1,note_on,68,54,0
1,note_on,68,0,240
1,note_on,80,0,0
1,note_on,69,65,0
1,note_on,81,77,0
1,note_on,81,0,240
1,note_on,69,0,0
1,note_on,85,68,0
1,note_on,73,57,0
1,note_on,73,0,240
1,note_on,85,0,0
1,note_on,83,80,0
1,note_on,71,67,0
1,note_on,71,0,240
1,note_on,83,0,0
1,note_on,75,70,0
1,note_on,81,70,0
1,note_on,87,83,0
1,note_on,87,0,180
1,note_on,81,0,0
1,note_on,75,0,0
1,note_on,76,76,60
1,note_on,80,76,0
1,note_on,88,91,0
1,note_on,88,0,480
1,note_on,80,0,0
1,note_on,76,0,0
1,note_on,68,41,240
1,note_on,64,34,0
1,note_on,64,0,240
1,note_on,68,0,0
1,note_on,69,46,0
1,note_on,63,39,0
1,note_on,69,0,240
1,note_on,73,39,0
1,note_on,73,0,240
1,note_on,63,0,0
1,note_on,71,45,0
1,note_on,64,38,0
1,note_on,64,0,240
1,note_on,71,0,0
1,note_on,75,48,0
1,note_on,69,40,0
1,note_on,69,0,180
1,note_on,75,0,0
1,note_on,76,45,60
1,note_on,68,38,0
1,note_on,68,0,240
1,note_on,76,0,0
1,note_on,67,34,0
1,note_on,67,0,480
1,note_on,79,57,0
1,note_on,79,0,240
1,note_on,81,67,0
1,note_on,81,0,240
1,note_on,84,65,0
1,note_on,84,0,240
1,note_on,83,76,0
1,note_on,83,0,240
1,note_on,87,93,0
1,note_on,81,79,0
1,note_on,75,79,0
1,note_on,75,0,180
1,note_on,81,0,0
1,note_on,87,0,0
1,note_on,76,85,60
1,note_on,79,85,0
1,note_on,88,101,0
1,note_on,88,0,480
1,note_on,79,0,0
1,note_on,76,0,0
1,note_on,67,47,240
1,note_on,67,0,240
1,note_on,69,53,0
1,note_on,69,0,240
1,note_on,72,48,0
1,note_on,72,0,240
1,note_on,71,49,0
1,note_on,71,0,240
1,note_on,69,41,0
1,note_on,75,49,0
1,note_on,75,0,120
1,note_on,69,0,0
1,note_on,76,57,120
1,note_on,67,47,0
1,note_on,67,0,120
1,note_on,76,0,0
1,note_on,76,67,120
1,note_on,79,67,0
1,note_on,79,0,120
1,note_on,76,0,0
1,note_on,84,73,120
1,note_on,76,73,0
1,note_on,76,0,120
1,note_on,84,0,0
1,note_on,76,73,120
1,note_on,84,73,0
1,note_on,84,0,120
1,note_on,76,0,0
1,note_on,76,84,120
1,note_on,84,84,0
1,note_on,84,0,120
1,note_on,76,0,0
1,note_on,84,83,120
1,note_on,81,83,0
1,note_on,81,0,120
1,note_on,84,0,0
1,note_on,89,87,120
1,note_on,86,87,0
1,note_on,86,0,120
1,note_on,89,0,0
1,note_on,89,85,120
1,note_on,86,85,0
1,note_on,86,0,120
1,note_on,89,0,0
1,note_on,89,90,120
1,note_on,86,90,0
1,note_on,86,0,120
1,note_on,89,0,0
1,note_on,86,86,120
1,note_on,89,86,0
1,note_on,89,0,120
1,note_on,86,0,0
1,note_on,86,88,120
1,note_on,89,88,0
1,note_on,89,0,120
1,note_on,86,0,0
1,note_on,86,94,120
1,note_on,89,94,0
1,note_on,89,0,120
1,note_on,86,0,0
1,note_on,89,102,120
1,note_on,86,102,0
1,note_on,86,0,2160
1,note_on,89,0,0
1,note_on,86,62,0
1,note_on,89,62,0
1,note_on,89,0,480
1,note_on,86,0,0
1,note_on,88,54,0
1,note_on,84,54,0
1,note_on,84,0,120
1,note_on,88,0,0
1,note_on,86,46,120
1,note_on,86,0,120
1,note_on,74,41,120
1,note_on,81,49,0
1,note_on,81,0,120
1,note_on,74,0,0
1,note_on,79,43,120
1,note_on,76,36,0
1,note_on,76,0,240
1,note_on,79,0,0
1,note_on,79,43,0
1,note_on,74,36,0
1,note_on,71,36,0
1,note_on,71,0,120
1,note_on,74,0,0
1,note_on,79,0,0
1,note_on,67,40,0
1,note_on,67,0,120
1,note_on,76,43,0
1,note_on,72,43,0
1,note_on,67,36,0
1,note_on,67,0,960
1,note_on,72,0,0
1,note_on,76,0,0
1,note_on,65,28,0
1,note_on,74,34,0
1,note_on,77,34,0
1,note_on,77,0,480
1,note_on,74,0,0
1,note_on,65,0,0
1,note_on,67,25,0
1,note_on,72,30,0
1,note_on,76,30,0
1,note_on,76,0,480
1,note_on,72,0,0
1,note_on,67,0,0
1,note_on,69,39,0
1,note_on,74,39,0
1,note_on,74,0,480
1,note_on,69,0,0
1,note_on,72,35,0
1,note_on,69,29,0
1,note_on,69,0,480
1,note_on,67,33,0
1,note_on,67,0,480
1,note_on,72,0,0
1,note_on,71,56,0
1,note_on,67,34,0
1,note_on,71,0,240
1,note_on,79,60,0
1,note_on,79,0,240
1,note_on,67,0,0
1,note_on,67,51,0
1,note_on,75,51,0
1,note_on,79,60,0
1,note_on,79,0,960
1,note_on,75,0,0
1,note_on,67,0,0
1,note_on,65,46,0
1,note_on,74,46,0
1,note_on,77,57,0
1,note_on,77,0,480
1,note_on,74,0,0
1,note_on,65,0,0
1,note_on,63,47,0
1,note_on,72,47,0
1,note_on,75,58,0
1,note_on,67,47,0
1,note_on,67,0,480
1,note_on,63,0,0
1,note_on,72,0,0
1,note_on,75,0,0
1,note_on,68,62,0
1,note_on,74,73,0
1,note_on,74,0,480
1,note_on,68,0,0
1,note_on,69,63,0
1,note_on,72,74,0
1,note_on,69,0,480
1,note_on,67,64,0
1,note_on,67,0,480
1,note_on,72,0,0
1,note_on,66,76,0
1,note_on,72,76,0
1,note_on,72,0,240
1,note_on,66,0,0
1,note_on,80,82,0
1,note_on,80,0,240
1,note_on,80,43,0
1,note_on,76,43,0
1,note_on,68,36,0
1,note_on,68,0,960
1,note_on,76,0,0
1,note_on,80,0,0
1,note_on,66,28,0
1,note_on,75,34,0
1,note_on,78,34,0
1,note_on,78,0,480
1,note_on,75,0,0
1,note_on,66,0,0
1,note_on,68,25,0
1,note_on,73,30,0
1,note_on,76,30,0
1,note_on,76,0,480
1,note_on,73,0,0
1,note_on,68,0,0
1,note_on,69,39,0
1,note_on,75,39,0
1,note_on,75,0,480
1,note_on,69,0,0
1,note_on,73,35,0
1,note_on,70,29,0
1,note_on,70,0,480
1,note_on,68,33,0
1,note_on,68,0,480
1,note_on,73,0,0
1,note_on,72,56,0
1,note_on,68,34,0
1,note_on,72,0,240
1,note_on,80,60,0
1,note_on,80,0,240
1,note_on,68,0,0
1,note_on,68,51,0
1,note_on,77,51,0
1,note_on,80,60,0
1,note_on,80,0,960
1,note_on,77,0,0
1,note_on,68,0,0
1,note_on,66,46,0
1,note_on,75,46,0
1,note_on,78,57,0
1,note_on,78,0,480
1,note_on,75,0,0
1,note_on,66,0,0
1,note_on,65,47,0
1,note_on,73,47,0
1,note_on,77,58,0
1,note_on,68,47,0
1,note_on,68,0,480
1,note_on,65,0,0
1,note_on,73,0,0
1,note_on,77,0,0
1,note_on,69,62,0
1,note_on,75,73,0
1,note_on,75,0,480
1,note_on,69,0,0
1,note_on,69,63,0
1,note_on,73,74,0
1,note_on,73,0,480
1,note_on,72,64,0
1,note_on,72,0,480
1,note_on,69,0,0
1,note_on,73,82,0
1,note_on,69,82,0
1,note_on,69,0,240
1,note_on,73,0,0
1,note_on,78,87,0
1,note_on,81,87,0
1,note_on,81,0,240
1,note_on,78,0,0
1,note_on,69,88,0
1,note_on,78,88,0
1,note_on,81,101,0
1,note_on,81,0,1920
1,note_on,78,0,0
1,note_on,69,0,0
1,note_on,75,88,0
1,note_on,78,88,0
1,note_on,81,88,0
1,note_on,87,101,0
1,note_on,87,0,1920
1,note_on,75,0,0
1,note_on,78,0,0
1,note_on,81,0,0
1,note_on,87,88,0
1,note_on,78,88,0
1,note_on,81,88,0
1,note_on,90,101,0
1,note_on,90,0,1920
1,note_on,87,0,0
1,note_on,78,0,0
1,note_on,81,0,0
1,note_on,78,68,0
1,note_on,78,0,120
1,note_on,69,39,120
1,note_on,69,0,120
1,note_on,72,32,0
1,note_on,72,0,120
1,note_on,71,40,0
1,note_on,71,0,120
1,note_on,70,37,0
1,note_on,70,0,120
1,note_on,71,41,0
1,note_on,71,0,120
1,note_on,68,35,0
1,note_on,68,0,120
1,note_on,78,68,0
1,note_on,78,0,120
1,note_on,69,39,120
1,note_on,69,0,120
1,note_on,72,32,0
1,note_on,72,0,120
1,note_on,71,40,0
1,note_on,71,0,120
1,note_on,70,37,0
1,note_on,70,0,120
1,note_on,71,41,0
1,note_on,71,0,120
1,note_on,68,35,0
1,note_on,68,0,120
1,note_on,78,68,0
1,note_on,78,0,120
1,note_on,69,39,120
1,note_on,69,0,120
1,note_on,72,32,0
1,note_on,72,0,120
1,note_on,71,40,0
1,note_on,71,0,120
1,note_on,70,37,0
1,note_on,70,0,120
1,note_on,71,41,0
1,note_on,71,0,120
1,note_on,69,35,0
1,note_on,69,0,120
1,note_on,68,40,0
1,note_on,68,0,120
1,note_on,66,31,0
1,note_on,66,0,120
1,note_on,68,35,0
1,note_on,68,0,120
1,note_on,66,30,0
1,note_on,66,0,120
1,note_on,64,37,0
1,note_on,64,0,120
1,note_on,63,29,0
1,note_on,63,0,120
1,note_on,64,29,0
1,note_on,64,0,120
1,note_on,66,29,0
1,note_on,66,0,120
1,note_on,68,42,0
1,note_on,64,31,0
1,note_on,64,0,120
1,note_on,59,26,0
1,note_on,59,0,120
1,note_on,64,31,0
1,note_on,64,0,120
1,note_on,59,26,0
1,note_on,59,0,120
1,note_on,68,0,0
1,note_on,71,45,0
1,note_on,68,45,0
1,note_on,68,0,120
1,note_on,59,27,0
1,note_on,59,0,120
1,note_on,71,0,0
1,note_on,69,40,0
1,note_on,66,40,0
1,note_on,66,0,120
1,note_on,59,27,0
1,note_on,59,0,120
1,note_on,69,0,0
1,note_on,64,34,0
1,note_on,68,50,0
1,note_on,64,0,120
1,note_on,59,26,0
1,note_on,59,0,120
1,note_on,68,0,0
1,note_on,63,27,0
1,note_on,66,41,0
1,note_on,63,0,120
1,note_on,59,25,0
1,note_on,59,0,90
1,note_on,66,0,0
1,note_on,63,27,30
1,note_on,66,41,0
1,note_on,63,0,120
1,note_on,59,26,0
1,note_on,59,0,120
1,note_on,66,0,0
1,note_on,64,28,0
1,note_on,68,43,0
1,note_on,64,0,120
1,note_on,59,28,0
1,note_on,59,0,120
1,note_on,68,0,0
1,note_on,64,30,0
1,note_on,69,46,0
1,note_on,64,0,120
1,note_on,59,28,0
1,note_on,59,0,120
1,note_on,69,0,0
1,note_on,64,36,0
1,note_on,73,54,0
1,note_on,64,0,120
1,note_on,59,31,0
1,note_on,59,0,120
1,note_on,73,0,0
1,note_on,66,37,0
1,note_on,71,47,0
1,note_on,66,0,120
1,note_on,59,26,0
1,note_on,59,0,120
1,note_on,71,0,0
1,note_on,63,25,0
1,note_on,66,38,0
1,note_on,63,0,120
1,note_on,59,27,0
1,note_on,59,0,120
1,note_on,66,0,0
1,note_on,59,35,0
1,note_on,64,35,0
1,note_on,68,42,0
1,note_on,68,0,480
1,note_on,64,0,0
1,note_on,59,0,0
1,note_on,76,47,240
1,note_on,76,0,120
1,note_on,78,42,0
1,note_on,78,0,120
1,note_on,68,55,0
1,note_on,80,55,0
1,note_on,80,0,480
1,note_on,68,0,0
1,note_on,71,50,0
1,note_on,83,50,0
1,note_on,83,0,240
1,note_on,71,0,0
1,note_on,69,47,0
1,note_on,81,47,0
1,note_on,81,0,240
1,note_on,69,0,0
1,note_on,68,55,0
1,note_on,80,55,0
1,note_on,80,0,240
1,note_on,68,0,0
1,note_on,66,45,0
1,note_on,78,45,0
1,note_on,78,0,210
1,note_on,66,0,0
1,note_on,66,45,30
1,note_on,78,45,0
1,note_on,78,0,240
1,note_on,66,0,0
1,note_on,68,49,0
1,note_on,80,49,0
1,note_on,80,0,240
1,note_on,68,0,0
1,note_on,69,47,0
1,note_on,81,56,0
1,note_on,81,0,240
1,note_on,69,0,0
1,note_on,73,50,0
1,note_on,85,60,0
1,note_on,85,0,240
1,note_on,73,0,0
1,note_on,71,46,0
1,note_on,83,56,0
1,note_on,83,0,240
1,note_on,71,0,0
1,note_on,87,49,0
1,note_on,75,32,0
1,note_on,75,0,240
1,note_on,87,0,0
1,note_on,88,57,0
1,note_on,76,35,0
1,note_on,76,0,480
1,note_on,88,0,0
1,note_on,71,47,240
1,note_on,71,0,240
1,note_on,70,51,0
1,note_on,70,0,480
1,note_on,76,56,0
1,note_on,76,0,480
1,note_on,75,51,0
1,note_on,75,0,720
1,note_on,69,45,0
1,note_on,69,0,240
1,note_on,68,51,0
1,note_on,68,0,480
1,note_on,74,54,0
1,note_on,74,0,480
1,note_on,73,51,0
1,note_on,73,0,720
1,note_on,73,48,0
1,note_on,73,0,240
1,note_on,72,57,0
1,note_on,72,0,240
1,note_on,73,58,0
1,note_on,73,0,240
1,note_on,69,55,0
1,note_on,64,46,0
1,note_on,61,46,0
1,note_on,61,0,180
1,note_on,64,0,0
1,note_on,69,0,0
1,note_on,68,55,60
1,note_on,64,46,0
1,note_on,59,46,0
1,note_on,59,0,180
1,note_on,64,0,0
1,note_on,68,0,0
1,note_on,68,76,60
1,note_on,64,64,0
1,note_on,58,64,0
1,note_on,68,0,240
1,note_on,66,62,0
1,note_on,58,0,240
1,note_on,64,0,0
1,note_on,64,63,0
1,note_on,57,63,0
1,note_on,66,0,230
1,note_on,66,67,10
1,note_on,66,0,230
1,note_on,57,0,10
1,note_on,64,0,0
1,note_on,66,49,0
1,note_on,63,41,0
1,note_on,57,41,0
1,note_on,57,0,240
1,note_on,63,0,0
1,note_on,66,0,0
1,note_on,71,38,0
1,note_on,63,32,0
1,note_on,71,0,240
1,note_on,70,46,0
1,note_on,70,0,240
1,note_on,63,0,0
1,note_on,71,40,0
1,note_on,63,34,0
1,note_on,63,0,240
1,note_on,71,0,0
1,note_on,64,51,0
1,note_on,64,0,480
1,note_on,83,47,240
1,note_on,71,47,0
1,note_on,71,0,240
1,note_on,83,0,0
1,note_on,82,51,0
1,note_on,70,51,0
1,note_on,70,0,480
1,note_on,82,0,0
1,note_on,88,61,0
1,note_on,76,61,0
1,note_on,76,0,480
1,note_on,88,0,0
1,note_on,87,56,0
1,note_on,75,56,0
1,note_on,75,0,720
1,note_on,87,0,0
1,note_on,81,49,0
1,note_on,69,49,0
1,note_on,69,0,240
1,note_on,81,0,0
1,note_on,80,56,0
1,note_on,68,56,0
1,note_on,68,0,480
1,note_on,80,0,0
1,note_on,86,59,0
1,note_on,74,59,0
1,note_on,74,0,480
1,note_on,86,0,0
1,note_on,85,56,0
1,note_on,73,56,0
1,note_on,73,0,720
1,note_on,85,0,0
1,note_on,85,48,0
1,note_on,73,48,0
1,note_on,73,0,240
1,note_on,85,0,0
1,note_on,84,57,0
1,note_on,72,57,0
1,note_on,72,0,240
1,note_on,84,0,0
1,note_on,85,58,0
1,note_on,73,58,0
1,note_on,73,0,240
1,note_on,85,0,0
1,note_on,81,55,0
1,note_on,69,55,0
1,note_on,69,0,180
1,note_on,81,0,0
1,note_on,80,55,60
1,note_on,68,55,0
1,note_on,68,0,180
1,note_on,80,0,0
1,note_on,80,72,60
1,note_on,68,72,0
1,note_on,68,0,240
1,note_on,80,0,0
1,note_on,78,62,0
1,note_on,66,62,0
1,note_on,66,0,475
1,note_on,78,0,0
1,note_on,78,67,5
1,note_on,66,67,0
1,note_on,66,0,228
1,note_on,78,0,0
1,note_on,78,49,12
1,note_on,66,49,0
1,note_on,66,0,240
1,note_on,78,0,0
1,note_on,83,38,0
1,note_on,71,38,0
1,note_on,71,0,240
1,note_on,83,0,0
1,note_on,82,46,0
1,note_on,70,46,0
1,note_on,70,0,240
1,note_on,82,0,0
1,note_on,83,40,0
1,note_on,71,40,0
1,note_on,71,0,240
1,note_on,83,0,0
1,note_on,76,51,0
1,note_on,64,51,0
1,note_on,64,0,480
1,note_on,76,0,0
1,note_on,64,43,240
1,note_on,64,0,120
1,note_on,66,39,0
1,note_on,66,0,120
1,note_on,64,34,0
1,note_on,68,50,0
1,note_on,64,0,120
1,note_on,59,26,0
1,note_on,59,0,120
1,note_on,64,31,0
1,note_on,64,0,120
1,note_on,59,26,0
1,note_on,59,0,120
1,note_on,68,0,0
1,note_on,68,30,0
1,note_on,71,46,0
1,note_on,68,0,120
1,note_on,59,27,0
1,note_on,59,0,120
1,note_on,71,0,0
1,note_on,66,28,0
1,note_on,69,43,0
1,note_on,66,0,120
1,note_on,59,27,0
1,note_on,59,0,120
1,note_on,69,0,0
1,note_on,64,34,0
1,note_on,68,50,0
1,note_on,64,0,120
1,note_on,59,26,0
1,note_on,59,0,120
1,note_on,68,0,0
1,note_on,63,27,0
1,note_on,66,41,0
1,note_on,63,0,120
1,note_on,59,25,0
1,note_on,59,0,90
1,note_on,66,0,0
1,note_on,63,27,30
1,note_on,66,41,0
1,note_on,63,0,120
1,note_on,59,26,0
1,note_on,59,0,120
1,note_on,66,0,0
1,note_on,64,28,0
1,note_on,68,43,0
1,note_on,64,0,120
1,note_on,59,28,0
1,note_on,59,0,120
1,note_on,68,0,0
1,note_on,64,30,0
1,note_on,69,46,0
1,note_on,64,0,120
1,note_on,59,28,0
1,note_on,59,0,120
1,note_on,69,0,0
1,note_on,64,36,0
1,note_on,73,54,0
1,note_on,64,0,120
1,note_on,59,31,0
1,note_on,59,0,120
1,note_on,73,0,0
1,note_on,66,37,0
1,note_on,71,47,0
1,note_on,66,0,120
1,note_on,59,26,0
1,note_on,59,0,120
1,note_on,71,0,0
1,note_on,63,25,0
1,note_on,66,38,0
1,note_on,63,0,120
1,note_on,59,27,0
1,note_on,59,0,120
1,note_on,66,0,0
1,note_on,59,35,0
1,note_on,64,35,0
1,note_on,68,42,0
1,note_on,68,0,240
1,note_on,64,0,0
1,note_on,59,0,0
1,note_on,78,42,210
1,note_on,78,0,30
1,note_on,76,47,0
1,note_on,76,0,120
1,note_on,75,42,0
1,note_on,75,0,120
1,note_on,76,48,0
1,note_on,76,0,120
1,note_on,78,43,0
1,note_on,78,0,90
1,note_on,81,50,0
1,note_on,81,0,30
1,note_on,80,55,0
1,note_on,80,0,120
1,note_on,78,50,0
1,note_on,78,0,120
1,note_on,80,52,0
1,note_on,80,0,120
1,note_on,81,54,0
1,note_on,81,0,120
1,note_on,71,45,0
1,note_on,83,53,0
1,note_on,83,0,240
1,note_on,71,0,0
1,note_on,81,53,0
1,note_on,69,45,0
1,note_on,69,0,240
1,note_on,81,0,0
1,note_on,80,63,0
1,note_on,68,53,0
1,note_on,68,0,240
1,note_on,80,0,0
1,note_on,66,51,0
1,note_on,78,61,0
1,note_on,78,0,228
1,note_on,66,0,0
1,note_on,66,58,12
1,note_on,78,70,0
1,note_on,78,0,240
1,note_on,66,0,0
1,note_on,80,64,0
1,note_on,68,54,0
1,note_on,68,0,240
1,note_on,80,0,0
1,note_on,69,65,0
1,note_on,81,77,0
1,note_on,81,0,240
1,note_on,69,0,0
1,note_on,85,68,0
1,note_on,73,57,0
1,note_on,73,0,240
1,note_on,85,0,0
1,note_on,83,80,0
1,note_on,71,67,0
1,note_on,71,0,240
1,note_on,83,0,0
1,note_on,75,70,0
1,note_on,81,70,0
1,note_on,87,83,0
1,note_on,87,0,180
1,note_on,81,0,0
1,note_on,75,0,0
1,note_on,76,73,60
1,note_on,80,73,0
1,note_on,88,88,0
1,note_on,88,0,480
1,note_on,80,0,0
1,note_on,76,0,0
1,note_on,64,73,240
1,note_on,68,87,0
1,note_on,68,0,120
1,note_on,64,0,0
1,note_on,64,81,120
1,note_on,68,96,0
1,note_on,68,0,720
1,note_on,64,0,0
1,note_on,76,34,0
1,note_on,68,28,0
1,note_on,64,28,0
1,note_on,64,0,120
1,note_on,68,0,0
1,note_on,76,0,0
1,note_on,75,39,120
1,note_on,68,33,0
1,note_on,66,33,0
1,note_on,63,33,0
1,note_on,63,0,720
1,note_on,75,0,0
1,note_on,68,0,0
1,note_on,66,0,0
1,note_on,63,73,0
1,note_on,68,87,0
1,note_on,68,0,120
1,note_on,63,0,0
1,note_on,64,81,120
1,note_on,62,81,0
1,note_on,68,96,0
1,note_on,68,0,720
1,note_on,62,0,0
1,note_on,64,0,0
1,note_on,62,28,0
1,note_on,74,34,0
1,note_on,64,28,0
1,note_on,64,0,120
1,note_on,74,0,0
1,note_on,62,0,0
1,note_on,73,39,120
1,note_on,64,33,0
1,note_on,61,33,0
1,note_on,61,0,720
1,note_on,64,0,0
1,note_on,73,0,0
1,note_on,61,87,0
1,note_on,61,0,120
1,note_on,59,81,120
1,note_on,61,96,0
1,note_on,61,0,720
1,note_on,59,0,0
1,note_on,71,34,0
1,note_on,61,28,0
1,note_on,59,28,0
1,note_on,59,0,120
1,note_on,61,0,0
1,note_on,71,0,0
1,note_on,69,39,120
1,note_on,61,33,0
1,note_on,57,33,0
1,note_on,57,0,720
1,note_on,61,0,0
1,note_on,69,0,0
1,note_on,73,73,0
1,note_on,78,73,0
1,note_on,81,87,0
1,note_on,81,0,120
1,note_on,78,0,0
1,note_on,73,0,0
1,note_on,78,81,120
1,note_on,71,81,0
1,note_on,81,96,0
1,note_on,81,0,720
1,note_on,71,0,0
1,note_on,78,0,0
1,note_on,66,73,0
1,note_on,69,87,0
1,note_on,69,0,120
1,note_on,66,0,0
1,note_on,64,81,120
1,note_on,69,96,0
1,note_on,69,0,720
1,note_on,64,0,0
1,note_on,69,73,0
1,note_on,76,73,0
1,note_on,81,87,0
1,note_on,81,0,120
1,note_on,76,0,0
1,note_on,69,0,0
1,note_on,75,81,120
1,note_on,78,81,0
1,note_on,69,81,0
1,note_on,81,96,0
1,note_on,81,0,240
1,note_on,75,0,0
1,note_on,78,0,0
1,note_on,69,0,0
1,note_on,81,53,720
1,note_on,90,53,0
1,note_on,90,0,720
1,note_on,81,0,0
1,note_on,80,57,0
1,note_on,88,57,0
1,note_on,88,0,216
1,note_on,80,0,0
1,note_on,88,62,24
1,note_on,80,62,0
1,note_on,80,0,240
1,note_on,88,0,0
1,note_on,78,48,0
1,note_on,87,48,0
1,note_on,87,0,216
1,note_on,78,0,0
1,note_on,87,47,24
1,note_on,78,47,0
1,note_on,78,0,240
1,note_on,87,0,0
1,note_on,80,39,0
1,note_on,88,39,0
1,note_on,88,0,240
1,note_on,80,0,0
1,note_on,81,53,0
1,note_on,90,53,0
1,note_on,90,0,720
1,note_on,81,0,0
1,note_on,80,57,0
1,note_on,88,57,0
1,note_on,88,0,216
1,note_on,80,0,0
1,note_on,87,62,24
1,note_on,78,62,0
1,note_on,78,0,240
1,note_on,87,0,0
1,note_on,90,48,0
1,note_on,81,48,0
1,note_on,81,0,240
1,note_on,90,0,0
1,note_on,88,47,0
1,note_on,80,47,0
1,note_on,80,0,240
1,note_on,88,0,0
1,note_on,75,39,0
1,note_on,78,39,0
1,note_on,87,39,0
1,note_on,87,0,240
1,note_on,78,0,0
1,note_on,75,0,0
1,note_on,88,39,0
1,note_on,76,39,0
1,note_on,76,0,240
1,note_on,88,0,0
1,note_on,87,34,0
1,note_on,87,0,240
1,note_on,85,39,0
1,note_on,85,0,240
1,note_on,83,35,0
1,note_on,83,0,240
1,note_on,85,39,0
1,note_on,85,0,240
1,note_on,83,37,0
1,note_on,83,0,240
1,note_on,81,39,0
1,note_on,81,0,240
1,note_on,80,34,0
1,note_on,80,0,230
1,note_on,80,39,10
1,note_on,80,0,720
1,note_on,81,38,0
1,note_on,81,0,120
1,note_on,83,33,0
1,note_on,83,0,120
1,note_on,78,39,0
1,note_on,78,0,240
1,note_on,71,39,0
1,note_on,71,0,120
1,note_on,73,34,0
1,note_on,73,0,120
1,note_on,71,39,0
1,note_on,71,0,120
1,note_on,73,35,0
1,note_on,73,0,120
1,note_on,71,39,0
1,note_on,71,0,120
1,note_on,73,35,0
1,note_on,73,0,120
1,note_on,78,53,0
1,note_on,81,53,0
1,note_on,71,39,0
1,note_on,71,0,120
1,note_on,73,35,0
1,note_on,73,0,120
1,note_on,71,39,0
1,note_on,71,0,120
1,note_on,73,35,0
1,note_on,73,0,120
1,note_on,71,39,0
1,note_on,71,0,120
1,note_on,73,37,0
1,note_on,73,0,120
1,note_on,81,0,0
1,note_on,78,0,0
1,note_on,80,57,0
1,note_on,76,57,0
1,note_on,71,43,0
1,note_on,71,0,120
1,note_on,73,41,0
1,note_on,76,0,96
1,note_on,80,0,0
1,note_on,73,0,24
1,note_on,80,62,0
1,note_on,76,62,0
1,note_on,71,48,0
1,note_on,71,0,120
1,note_on,73,42,0
1,note_on,73,0,120
1,note_on,76,0,0
1,note_on,80,0,0
1,note_on,75,48,0
1,note_on,78,48,0
1,note_on,71,46,0
1,note_on,71,0,120
1,note_on,73,40,0
1,note_on,78,0,96
1,note_on,75,0,0
1,note_on,73,0,24
1,note_on,78,47,0
1,note_on,71,44,0
1,note_on,75,47,0
1,note_on,71,0,120
1,note_on,73,38,0
1,note_on,73,0,120
1,note_on,75,0,0
1,note_on,78,0,0
1,note_on,80,39,0
1,note_on,76,39,0
1,note_on,71,41,0
1,note_on,71,0,120
1,note_on,73,36,0
1,note_on,73,0,120
1,note_on,76,0,0
1,note_on,80,0,0
1,note_on,81,53,0
1,note_on,78,53,0
1,note_on,71,39,0
1,note_on,71,0,120
1,note_on,73,36,0
1,note_on,73,0,120
1,note_on,71,41,0
1,note_on,71,0,120
1,note_on,73,38,0
1,note_on,73,0,120
1,note_on,71,43,0
1,note_on,71,0,120
1,note_on,73,40,0
1,note_on,73,0,120
1,note_on,78,0,0
1,note_on,81,0,0
1,note_on,71,46,0
1,note_on,80,57,0
1,note_on,76,57,0
1,note_on,71,0,120
1,note_on,73,42,0
1,note_on,76,0,96
1,note_on,80,0,0
1,note_on,73,0,24
1,note_on,78,62,0
1,note_on,75,62,0
1,note_on,75,0,120
1,note_on,71,36,0
1,note_on,71,0,120
1,note_on,78,0,0
1,note_on,85,48,0
1,note_on,81,48,0
1,note_on,81,0,120
1,note_on,71,36,0
1,note_on,71,0,120
1,note_on,85,0,0
1,note_on,83,47,0
1,note_on,80,47,0
1,note_on,80,0,120
1,note_on,71,36,0
1,note_on,71,0,120
1,note_on,83,0,0
1,note_on,78,39,0
1,note_on,81,39,0
1,note_on,78,0,120
1,note_on,71,36,0
1,note_on,71,0,120
1,note_on,81,0,0
1,note_on,80,62,0
1,note_on,76,62,0
1,note_on,76,0,120
1,note_on,71,35,0
1,note_on,71,0,120
1,note_on,80,0,0
1,note_on,83,47,0
1,note_on,80,47,0
1,note_on,80,0,120
1,note_on,71,34,0
1,note_on,71,0,120
1,note_on,83,0,0
1,note_on,81,45,0
1,note_on,78,45,0
1,note_on,78,0,120
1,note_on,71,34,0
1,note_on,71,0,120
1,note_on,81,0,0
1,note_on,76,36,0
1,note_on,80,36,0
1,note_on,76,0,120
1,note_on,71,33,0
1,note_on,71,0,120
1,note_on,80,0,0
1,note_on,78,57,0
1,note_on,75,57,0
1,note_on,75,0,120
1,note_on,71,32,0
1,note_on,71,0,120
1,note_on,78,0,0
1,note_on,81,43,0
1,note_on,78,43,0
1,note_on,78,0,120
1,note_on,71,32,0
1,note_on,71,0,120
1,note_on,81,0,0
1,note_on,80,41,0
1,note_on,76,41,0
1,note_on,76,0,120
1,note_on,71,31,0
1,note_on,71,0,120
1,note_on,80,0,0
1,note_on,75,33,0
1,note_on,78,33,0
1,note_on,75,0,120
1,note_on,69,30,0
1,note_on,69,0,120
1,note_on,78,0,0
1,note_on,71,41,0
1,note_on,76,52,0
1,note_on,71,0,120
1,note_on,68,29,0
1,note_on,68,0,120
1,note_on,76,0,0
1,note_on,71,29,0
1,note_on,74,39,0
1,note_on,71,0,120
1,note_on,65,29,0
1,note_on,65,0,120
1,note_on,74,0,0
1,note_on,71,29,0
1,note_on,73,37,0
1,note_on,71,0,120
1,note_on,65,28,0
1,note_on,65,0,120
1,note_on,73,0,0
1,note_on,71,29,0
1,note_on,73,30,0
1,note_on,71,0,120
1,note_on,65,27,0
1,note_on,65,0,120
1,note_on,73,0,0
1,note_on,73,39,0
1,note_on,65,39,0
1,note_on,65,0,120
1,note_on,73,0,0
1,note_on,73,33,0
1,note_on,73,0,120
1,note_on,75,34,0
1,note_on,75,0,120
1,note_on,77,37,0
1,note_on,77,0,90
1,note_on,80,35,0
1,note_on,80,0,30
1,note_on,78,39,0
1,note_on,78,0,120
1,note_on,77,32,0
1,note_on,77,0,120
1,note_on,78,35,0
1,note_on,78,0,120
1,note_on,80,32,0
1,note_on,80,0,120
1,note_on,81,39,0
1,note_on,81,0,120
1,note_on,77,33,0
1,note_on,77,0,120
1,note_on,78,35,0
1,note_on,78,0,120
1,note_on,80,32,0
1,note_on,80,0,90
1,note_on,83,32,0
1,note_on,83,0,30
1,note_on,81,41,0
1,note_on,81,0,120
1,note_on,80,33,0
1,note_on,80,0,120
1,note_on,81,35,0
1,note_on,81,0,120
1,note_on,83,32,0
1,note_on,83,0,120
1,note_on,85,42,0
1,note_on,85,0,120
1,note_on,83,35,0
1,note_on,83,0,120
1,note_on,81,35,0
1,note_on,81,0,120
1,note_on,80,34,0
1,note_on,80,0,120
1,note_on,81,41,0
1,note_on,81,0,120
1,note_on,80,35,0
1,note_on,80,0,120
1,note_on,78,35,0
1,note_on,78,0,120
1,note_on,85,34,0
1,note_on,85,0,120
1,note_on,80,40,0
1,note_on,80,0,120
1,note_on,78,34,0
1,note_on,78,0,120
1,note_on,76,35,0
1,note_on,76,0,120
1,note_on,83,35,0
1,note_on,83,0,120
1,note_on,78,40,0
1,note_on,78,0,120
1,note_on,76,33,0
1,note_on,76,0,120
1,note_on,75,35,0
1,note_on,75,0,120
1,note_on,83,33,0
1,note_on,83,0,110
1,note_on,83,43,10
1,note_on,80,43,0
1,note_on,71,36,0
1,note_on,71,0,960
1,note_on,80,0,0
1,note_on,83,0,0
1,note_on,69,28,0
1,note_on,78,34,0
1,note_on,81,34,0
1,note_on,81,0,480
1,note_on,78,0,0
1,note_on,69,0,0
1,note_on,71,25,0
1,note_on,76,30,0
1,note_on,80,30,0
1,note_on,80,0,480
1,note_on,76,0,0
1,note_on,71,0,0
1,note_on,73,39,0
1,note_on,78,39,0
1,note_on,78,0,480
1,note_on,73,0,0
1,note_on,76,35,0
1,note_on,73,29,0
1,note_on,73,0,480
1,note_on,71,33,0
1,note_on,71,0,480
1,note_on,76,0,0
1,note_on,75,44,0
1,note_on,71,37,0
1,note_on,75,0,240
1,note_on,83,43,0
1,note_on,83,0,240
1,note_on,71,0,0
1,note_on,71,57,0
1,note_on,74,57,0
1,note_on,83,67,0
1,note_on,83,0,960
1,note_on,74,0,0
1,note_on,71,0,0
1,note_on,69,51,0
1,note_on,74,51,0
1,note_on,81,63,0
1,note_on,81,0,480
1,note_on,74,0,0
1,note_on,69,0,0
1,note_on,68,52,0
1,note_on,74,52,0
1,note_on,80,64,0
1,note_on,71,52,0
1,note_on,71,0,480
1,note_on,68,0,0
1,note_on,74,0,0
1,note_on,80,0,0
1,note_on,74,68,0
1,note_on,78,80,0
1,note_on,78,0,480
1,note_on,74,0,0
1,note_on,74,68,0
1,note_on,76,81,0
1,note_on,76,0,480
1,note_on,74,0,0
1,note_on,76,82,0
1,note_on,74,82,0
1,note_on,71,69,0
1,note_on,71,0,480
1,note_on,74,0,0
1,note_on,76,0,0
1,note_on,86,94,0
1,note_on,74,80,0
1,note_on,74,0,480
1,note_on,86,0,0
1,note_on,86,102,0
1,note_on,74,87,0
1,note_on,74,0,960
1,note_on,86,0,0
1,note_on,77,87,0
1,note_on,89,102,0
1,note_on,89,0,960
1,note_on,77,0,0
1,note_on,77,102,0
1,note_on,89,102,0
1,note_on,89,0,120
1,note_on,77,0,0
1,note_on,65,63,0
1,note_on,65,0,120
1,note_on,71,70,0
1,note_on,71,0,120
1,note_on,74,56,0
1,note_on,74,0,120
1,note_on,77,53,0
1,note_on,77,0,120
1,note_on,83,49,0
1,note_on,83,0,120
1,note_on,86,46,0
1,note_on,86,0,120
1,note_on,83,42,0
1,note_on,83,0,120
1,note_on,86,39,0
1,note_on,86,0,480
1,note_on,76,39,240
1,note_on,76,0,240
1,note_on,77,42,0
1,note_on,77,0,240
1,note_on,80,34,0
1,note_on,80,0,240
1,note_on,79,39,0
1,note_on,79,0,240
1,note_on,74,37,0
1,note_on,74,0,240
1,note_on,76,39,0
1,note_on,76,0,240
1,note_on,77,34,0
1,note_on,77,0,240
1,note_on,76,39,0
1,note_on,76,0,240
1,note_on,71,37,0
1,note_on,71,0,240
1,note_on,72,39,0
1,note_on,64,39,0
1,note_on,72,0,480
1,note_on,73,47,0
1,note_on,73,0,480
1,note_on,64,0,0
1,note_on,62,45,0
1,note_on,74,45,0
1,note_on,74,0,480
1,note_on,62,0,0
1,note_on,81,49,0
1,note_on,81,0,720
1,note_on,82,39,0
1,note_on,82,0,240
1,note_on,81,43,0
1,note_on,81,0,240
1,note_on,77,39,0
1,note_on,77,0,240
1,note_on,82,43,0
1,note_on,82,0,240
1,note_on,77,39,0
1,note_on,77,0,240
1,note_on,77,39,0
1,note_on,77,0,240
1,note_on,73,36,0
1,note_on,73,0,240
1,note_on,78,37,0
1,note_on,78,0,240
1,note_on,73,39,0
1,note_on,73,0,240
1,note_on,73,43,0
1,note_on,73,0,240
1,note_on,70,39,0
1,note_on,70,0,240
1,note_on,82,46,0
1,note_on,82,0,240
1,note_on,78,38,0
1,note_on,78,0,240
1,note_on,78,42,0
1,note_on,78,0,240
1,note_on,73,39,0
1,note_on,73,0,240
1,note_on,85,54,0
1,note_on,85,0,240
1,note_on,81,49,0
1,note_on,81,0,240
1,note_on,81,64,0
1,note_on,81,0,240
1,note_on,78,64,0
1,note_on,78,0,240
1,note_on,84,79,0
1,note_on,84,0,240
1,note_on,78,73,0
1,note_on,78,0,240
1,note_on,83,97,0
1,note_on,83,0,240
1,note_on,78,87,0
1,note_on,78,0,120
1,note_on,75,72,600
1,note_on,75,0,120
1,note_on,83,59,0
1,note_on,83,0,120
1,note_on,75,61,0
1,note_on,75,0,120
1,note_on,76,64,0
1,note_on,76,0,120
1,note_on,78,74,0
1,note_on,78,0,120
1,note_on,83,59,0
1,note_on,83,0,120
1,note_on,78,61,0
1,note_on,78,0,120
1,note_on,80,64,0
1,note_on,80,0,120
1,note_on,81,74,0
1,note_on,81,0,120
1,note_on,83,59,0
1,note_on,83,0,120
1,note_on,81,62,0
1,note_on,81,0,120
1,note_on,80,69,0
1,note_on,80,0,120
1,note_on,78,74,0
1,note_on,78,0,120
1,note_on,83,59,0
1,note_on,83,0,120
1,note_on,78,61,0
1,note_on,78,0,120
1,note_on,76,64,0
1,note_on,76,0,120
1,note_on,75,66,0
1,note_on,75,0,120
1,note_on,83,52,0
1,note_on,83,0,120
1,note_on,75,53,0
1,note_on,75,0,120
1,note_on,76,58,0
1,note_on,76,0,120
1,note_on,78,61,0
1,note_on,78,0,120
1,note_on,83,47,0
1,note_on,83,0,120
1,note_on,78,48,0
1,note_on,78,0,120
1,note_on,80,49,0
1,note_on,80,0,120
1,note_on,81,55,0
1,note_on,81,0,120
1,note_on,83,43,0
1,note_on,83,0,120
1,note_on,81,44,0
1,note_on,81,0,120
1,note_on,80,48,0
1,note_on,80,0,120
1,note_on,78,50,0
1,note_on,78,0,120
1,note_on,83,38,0
1,note_on,83,0,120
1,note_on,78,39,0
1,note_on,78,0,120
1,note_on,76,39,0
1,note_on,76,0,120
1,note_on,75,44,0
1,note_on,75,0,120
1,note_on,83,35,0
1,note_on,83,0,120
1,note_on,75,37,0
1,note_on,75,0,120
1,note_on,76,41,0
1,note_on,76,0,120
1,note_on,78,44,0
1,note_on,78,0,120
1,note_on,83,35,0
1,note_on,83,0,120
1,note_on,78,36,0
1,note_on,78,0,120
1,note_on,80,38,0
1,note_on,80,0,120
1,note_on,81,44,0
1,note_on,81,0,120
1,note_on,83,35,0
1,note_on,83,0,120
1,note_on,81,37,0
1,note_on,81,0,120
1,note_on,80,41,0
1,note_on,80,0,120
1,note_on,78,44,0
1,note_on,78,0,120
1,note_on,83,35,0
1,note_on,83,0,120
1,note_on,78,36,0
1,note_on,78,0,120
1,note_on,76,38,0
1,note_on,76,0,120
1,note_on,75,44,0
1,note_on,75,0,120
1,note_on,76,35,0
1,note_on,76,0,120
1,note_on,75,37,0
1,note_on,75,0,120
1,note_on,73,41,0
1,note_on,73,0,120
1,note_on,71,44,0
1,note_on,71,0,120
1,note_on,73,35,0
1,note_on,73,0,120
1,note_on,63,35,0
1,note_on,63,0,120
1,note_on,64,35,0
1,note_on,64,0,120
1,note_on,66,35,0
1,note_on,66,0,120
1,note_on,69,32,0
1,note_on,69,0,120
1,note_on,68,32,0
1,note_on,68,0,120
1,note_on,66,32,0
1,note_on,66,0,120
1,note_on,68,34,0
1,note_on,68,0,120
1,note_on,71,26,0
1,note_on,71,0,120
1,note_on,59,31,0
1,note_on,59,0,120
1,note_on,71,26,0
1,note_on,71,0,120
1,note_on,68,30,0
1,note_on,68,0,120
1,note_on,71,27,0
1,note_on,71,0,120
1,note_on,66,28,0
1,note_on,66,0,120
1,note_on,71,27,0
1,note_on,71,0,120
1,note_on,64,34,0
1,note_on,64,0,120
1,note_on,71,26,0
1,note_on,71,0,120
1,note_on,63,27,0
1,note_on,63,0,120
1,note_on,71,25,0
1,note_on,71,0,90
1,note_on,63,27,30
1,note_on,63,0,120
1,note_on,71,26,0
1,note_on,71,0,120
1,note_on,65,28,0
1,note_on,65,0,120
1,note_on,71,28,0
1,note_on,71,0,120
1,note_on,66,30,0
1,note_on,66,0,120
1,note_on,71,28,0
1,note_on,71,0,120
1,note_on,69,36,0
1,note_on,69,0,120
1,note_on,71,31,0
1,note_on,71,0,120
1,note_on,68,37,0
1,note_on,68,0,120
1,note_on,71,26,0
1,note_on,71,0,110
1,note_on,71,25,10
1,note_on,71,0,120
1,note_on,75,27,0
1,note_on,75,0,120
1,note_on,71,36,0
1,note_on,71,0,120
1,note_on,76,30,0
1,note_on,76,0,120
1,note_on,71,38,0
1,note_on,71,0,120
1,note_on,78,30,0
1,note_on,78,0,120
1,note_on,71,45,0
1,note_on,71,0,120
1,note_on,79,33,0
1,note_on,79,0,120
1,note_on,71,49,0
1,note_on,71,0,120
1,note_on,80,40,0
1,note_on,80,0,120
1,note_on,71,34,0
1,note_on,80,57,0
1,note_on,71,0,120
1,note_on,76,26,0
1,note_on,76,0,120
1,note_on,71,31,0
1,note_on,71,0,120
1,note_on,76,26,0
1,note_on,76,0,120
1,note_on,80,0,0
1,note_on,76,30,0
1,note_on,83,52,0
1,note_on,76,0,120
1,note_on,69,27,0
1,note_on,69,0,120
1,note_on,83,0,0
1,note_on,73,28,0
1,note_on,81,49,0
1,note_on,73,0,120
1,note_on,76,27,0
1,note_on,76,0,120
1,note_on,81,0,0
1,note_on,76,34,0
1,note_on,80,57,0
1,note_on,76,0,120
1,note_on,71,26,0
1,note_on,71,0,120
1,note_on,80,0,0
1,note_on,75,27,0
1,note_on,78,47,0
1,note_on,75,0,120
1,note_on,71,25,0
1,note_on,78,0,90
1,note_on,71,0,30
1,note_on,75,27,0
1,note_on,78,47,0
1,note_on,75,0,120
1,note_on,71,26,0
1,note_on,71,0,120
1,note_on,78,0,0
1,note_on,76,28,0
1,note_on,80,49,0
1,note_on,76,0,120
1,note_on,71,28,0
1,note_on,71,0,120
1,note_on,80,0,0
1,note_on,78,33,0
1,note_on,81,57,0
1,note_on,78,0,120
1,note_on,71,42,0
1,note_on,71,0,120
1,note_on,81,0,0
1,note_on,85,56,0
1,note_on,80,56,0
1,note_on,80,0,120
1,note_on,71,49,0
1,note_on,71,0,120
1,note_on,85,0,0
1,note_on,78,66,0
1,note_on,83,66,0
1,note_on,78,0,120
1,note_on,71,55,0
1,note_on,71,0,120
1,note_on,83,0,0
1,note_on,81,25,0
1,note_on,78,25,0
1,note_on,87,38,0
1,note_on,87,0,120
1,note_on,78,0,0
1,note_on,81,0,0
1,note_on,88,42,120
1,note_on,80,35,0
1,note_on,76,42,0
1,note_on,76,0,90
1,note_on,80,0,0
1,note_on,88,0,0
1,note_on,76,36,30
1,note_on,76,0,120
1,note_on,71,40,0
1,note_on,71,0,120
1,note_on,68,36,0
1,note_on,68,0,120
1,note_on,71,41,0
1,note_on,71,0,120
1,note_on,68,36,0
1,note_on,68,0,120
1,note_on,66,40,0
1,note_on,66,0,120
1,note_on,75,36,0
1,note_on,75,0,120
1,note_on,66,47,0
1,note_on,66,0,120
1,note_on,76,36,0
1,note_on,76,0,120
1,note_on,73,38,0
1,note_on,73,0,120
1,note_on,66,34,0
1,note_on,66,0,90
1,note_on,66,38,30
1,note_on,66,0,120
1,note_on,78,31,0
1,note_on,78,0,120
1,note_on,73,36,0
1,note_on,73,0,120
1,note_on,66,34,0
1,note_on,66,0,90
1,note_on,66,38,30
1,note_on,66,0,120
1,note_on,75,30,0
1,note_on,75,0,120
1,note_on,71,37,0
1,note_on,71,0,120
1,note_on,66,34,0
1,note_on,66,0,120
1,note_on,63,46,0
1,note_on,63,0,120
1,note_on,71,37,0
1,note_on,71,0,120
1,note_on,64,46,0
1,note_on,64,0,120
1,note_on,69,40,0
1,note_on,69,0,120
1,note_on,64,38,0
1,note_on,64,0,120
1,note_on,71,36,0
1,note_on,71,0,120
1,note_on,68,42,0
1,note_on,68,0,120
1,note_on,64,36,0
1,note_on,64,0,90
1,note_on,64,48,30
1,note_on,64,0,120
1,note_on,76,39,0
1,note_on,76,0,120
1,note_on,71,45,0
1,note_on,71,0,120
1,note_on,64,36,0
1,note_on,64,0,90
1,note_on,64,44,30
1,note_on,64,0,120
1,note_on,76,34,0
1,note_on,76,0,120
1,note_on,73,38,0
1,note_on,73,0,120
1,note_on,69,34,0
1,note_on,69,0,120
1,note_on,64,38,0
1,note_on,64,0,120
1,note_on,76,36,0
1,note_on,76,0,120
1,note_on,64,41,0
1,note_on,64,0,120
1,note_on,76,48,0
1,note_on,76,0,120
1,note_on,64,48,0
1,note_on,64,0,120
1,note_on,76,42,0
1,note_on,76,0,120
1,note_on,64,53,0
1,note_on,64,0,120
1,note_on,76,43,0
1,note_on,76,0,120
1,note_on,64,54,0
1,note_on,64,0,120
1,note_on,76,50,0
1,note_on,76,0,120
1,note_on,64,60,0
1,note_on,64,0,120
1,note_on,76,53,0
1,note_on,76,0,120
1,note_on,64,67,0
1,note_on,64,0,120
1,note_on,76,59,0
1,note_on,76,0,120
1,note_on,64,66,0
1,note_on,64,0,120
1,note_on,76,52,0
1,note_on,76,0,120
1,note_on,64,60,0
1,note_on,64,0,120
1,note_on,76,46,0
1,note_on,76,0,120
1,note_on,64,59,0
1,note_on,64,0,120
1,note_on,76,47,0
1,note_on,76,0,120
1,note_on,63,38,0
1,note_on,63,0,120
1,note_on,75,34,0
1,note_on,75,0,120
1,note_on,71,38,0
1,note_on,71,0,120
1,note_on,66,36,0
1,note_on,66,0,90
1,note_on,66,38,30
1,note_on,66,0,120
1,note_on,78,34,0
1,note_on,78,0,120
1,note_on,75,38,0
1,note_on,75,0,120
1,note_on,69,35,0
1,note_on,69,0,120
1,note_on,68,51,0
1,note_on,68,0,480
1,note_on,83,47,240
1,note_on,71,47,0
1,note_on,71,0,240
1,note_on,83,0,0
1,note_on,82,51,0
1,note_on,70,51,0
1,note_on,70,0,480
1,note_on,82,0,0
1,note_on,88,56,0
1,note_on,76,56,0
1,note_on,76,0,480
1,note_on,88,0,0
1,note_on,87,51,0
1,note_on,75,51,0
1,note_on,75,0,720
1,note_on,87,0,0
1,note_on,81,45,0
1,note_on,69,45,0
1,note_on,69,0,240
1,note_on,81,0,0
1,note_on,80,51,0
1,note_on,68,51,0
1,note_on,68,0,480
1,note_on,80,0,0
1,note_on,86,54,0
1,note_on,74,54,0
1,note_on,74,0,480
1,note_on,86,0,0
1,note_on,85,51,0
1,note_on,73,51,0
1,note_on,73,0,720
1,note_on,85,0,0
1,note_on,85,48,0
1,note_on,73,48,0
1,note_on,73,0,240
1,note_on,85,0,0
1,note_on,84,56,0
1,note_on,72,56,0
1,note_on,72,0,240
1,note_on,84,0,0
1,note_on,85,57,0
1,note_on,73,57,0
1,note_on,73,0,240
1,note_on,85,0,0
1,note_on,81,55,0
1,note_on,69,55,0
1,note_on,69,0,180
1,note_on,81,0,0
1,note_on,80,54,60
1,note_on,68,54,0
1,note_on,68,0,180
1,note_on,80,0,0
1,note_on,80,70,60
1,note_on,68,70,0
1,note_on,68,0,240
1,note_on,80,0,0
1,note_on,78,61,0
1,note_on,66,61,0
1,note_on,66,0,475
1,note_on,78,0,0
1,note_on,78,65,5
1,note_on,66,65,0
1,note_on,66,0,228
1,note_on,78,0,0
1,note_on,78,49,12
1,note_on,66,49,0
1,note_on,66,0,240
1,note_on,78,0,0
1,note_on,83,38,0
1,note_on,71,38,0
1,note_on,71,0,240
1,note_on,83,0,0
1,note_on,82,46,0
1,note_on,70,46,0
1,note_on,70,0,240
1,note_on,82,0,0
1,note_on,83,40,0
1,note_on,71,40,0
1,note_on,71,0,240
1,note_on,83,0,0
1,note_on,76,49,0
1,note_on,64,49,0
1,note_on,64,0,240
1,note_on,76,0,0
1,note_on,83,38,0
1,note_on,71,38,0
1,note_on,71,0,240
1,note_on,83,0,0
1,note_on,82,46,0
1,note_on,70,46,0
1,note_on,70,0,240
1,note_on,82,0,0
1,note_on,83,40,0
1,note_on,71,40,0
1,note_on,71,0,240
1,note_on,83,0,0
1,note_on,75,33,120
1,note_on,75,0,120
1,note_on,83,38,0
1,note_on,83,0,120
1,note_on,81,34,0
1,note_on,81,0,120
1,note_on,78,39,0
1,note_on,78,0,120
1,note_on,75,32,0
1,note_on,75,0,120
1,note_on,71,37,0
1,note_on,71,0,120
1,note_on,69,32,0
1,note_on,69,0,120
1,note_on,68,33,120
1,note_on,68,0,120
1,note_on,83,38,0
1,note_on,83,0,120
1,note_on,80,34,0
1,note_on,80,0,120
1,note_on,76,39,0
1,note_on,76,0,120
1,note_on,71,32,0
1,note_on,71,0,120
1,note_on,69,37,0
1,note_on,69,0,120
1,note_on,68,32,0
1,note_on,68,0,120
1,note_on,78,58,0
1,note_on,66,58,0
1,note_on,66,0,240
1,note_on,78,0,0
1,note_on,83,46,0
1,note_on,71,46,0
1,note_on,71,0,240
1,note_on,83,0,0
1,note_on,82,58,0
1,note_on,70,58,0
1,note_on,70,0,240
1,note_on,82,0,0
1,note_on,83,51,0
1,note_on,71,51,0
1,note_on,71,0,240
1,note_on,83,0,0
1,note_on,65,70,0
1,note_on,77,70,0
1,note_on,77,0,240
1,note_on,65,0,0
1,note_on,74,64,0
1,note_on,86,64,0
1,note_on,86,0,240
1,note_on,74,0,0
1,note_on,73,74,0
1,note_on,85,74,0
1,note_on,85,0,240
1,note_on,73,0,0
1,note_on,74,69,0
1,note_on,86,69,0
1,note_on,86,0,240
1,note_on,74,0,0
1,note_on,85,79,0
1,note_on,85,0,240
1,note_on,78,67,0
1,note_on,78,0,240
1,note_on,81,77,0
1,note_on,81,0,240
1,note_on,73,68,0
1,note_on,73,0,240
1,note_on,78,59,0
1,note_on,78,0,240
1,note_on,73,54,0
1,note_on,73,0,240
1,note_on,76,59,0
1,note_on,76,0,240
1,note_on,66,45,0
1,note_on,66,0,240
1,note_on,71,51,0
1,note_on,71,0,240
1,note_on,68,38,0
1,note_on,68,0,240
1,note_on,71,47,0
1,note_on,71,0,240
1,note_on,64,30,0
1,note_on,64,0,240
1,note_on,63,42,0
1,note_on,63,0,240
1,note_on,71,34,0
1,note_on,71,0,240
1,note_on,66,41,0
1,note_on,63,34,0
1,note_on,63,0,240
1,note_on,66,0,0
1,note_on,71,34,0
1,note_on,63,28,0
1,note_on,63,0,240
1,note_on,71,0,0
1,note_on,62,49,120
1,note_on,62,0,120
1,note_on,68,57,0
1,note_on,68,0,120
1,note_on,65,50,0
1,note_on,65,0,120
1,note_on,61,53,120
1,note_on,61,0,120
1,note_on,69,60,0
1,note_on,69,0,120
1,note_on,66,55,0
1,note_on,66,0,120
1,note_on,71,65,120
1,note_on,71,0,120
1,note_on,83,71,0
1,note_on,83,0,120
1,note_on,80,67,0
1,note_on,80,0,120
1,note_on,73,70,120
1,note_on,73,0,120
1,note_on,85,81,0
1,note_on,85,0,120
1,note_on,81,76,0
1,note_on,81,0,120
1,note_on,74,91,120
1,note_on,74,0,120
1,note_on,86,97,0
1,note_on,86,0,120
1,note_on,83,89,0
1,note_on,83,0,120
1,note_on,73,89,120
1,note_on,73,0,120
1,note_on,85,98,0
1,note_on,85,0,120
1,note_on,83,91,0
1,note_on,83,0,120
1,note_on,61,45,720
1,note_on,61,0,120
1,note_on,63,41,0
1,note_on,63,0,120
1,note_on,64,47,0
1,note_on,64,0,240
1,note_on,67,50,0
1,note_on,67,0,240
1,note_on,66,46,0
1,note_on,66,0,240
1,note_on,61,46,0
1,note_on,61,0,240
1,note_on,78,48,0
1,note_on,63,48,0
1,note_on,78,0,240
1,note_on,85,55,0
1,note_on,85,0,240
1,note_on,83,49,0
1,note_on,83,0,240
1,note_on,78,48,0
1,note_on,78,0,240
1,note_on,81,50,0
1,note_on,63,0,240
1,note_on,66,40,0
1,note_on,66,0,240
1,note_on,64,43,0
1,note_on,64,0,240
1,note_on,61,40,0
1,note_on,61,0,240
1,note_on,64,42,0
1,note_on,81,0,240
1,note_on,81,48,0
1,note_on,81,0,240
1,note_on,80,47,0
1,note_on,80,0,240
1,note_on,76,43,0
1,note_on,76,0,240
1,note_on,80,50,0
1,note_on,64,0,240
1,note_on,64,38,0
1,note_on,64,0,240
1,note_on,63,41,0
1,note_on,63,0,240
1,note_on,59,39,0
1,note_on,59,0,240
1,note_on,63,41,0
1,note_on,63,0,240
1,note_on,80,0,0
1,note_on,76,34,0
1,note_on,80,40,0
1,note_on,80,0,240
1,note_on,76,0,0
1,note_on,78,42,0
1,note_on,75,35,0
1,note_on,75,0,240
1,note_on,78,0,0
1,note_on,71,34,0
1,note_on,75,40,0
1,note_on,75,0,240
1,note_on,71,0,0
1,note_on,75,40,0
1,note_on,78,48,0
1,note_on,78,0,228
1,note_on,75,0,0
1,note_on,72,34,12
1,note_on,78,40,0
1,note_on,78,0,240
1,note_on,72,0,0
1,note_on,76,42,0
1,note_on,73,35,0
1,note_on,73,0,240
1,note_on,76,0,0
1,note_on,69,33,0
1,note_on,73,39,0
1,note_on,73,0,240
1,note_on,69,0,0
1,note_on,73,40,0
1,note_on,76,48,0
1,note_on,76,0,228
1,note_on,73,0,0
1,note_on,70,34,12
1,note_on,76,40,0
1,note_on,76,0,240
1,note_on,70,0,0
1,note_on,75,45,0
1,note_on,71,38,0
1,note_on,71,0,240
1,note_on,75,0,0
1,note_on,68,34,0
1,note_on,71,41,0
1,note_on,71,0,240
1,note_on,68,0,0
1,note_on,71,40,0
1,note_on,74,48,0
1,note_on,74,0,228
1,note_on,71,0,0
1,note_on,68,32,12
1,note_on,74,38,0
1,note_on,74,0,240
1,note_on,68,0,0
1,note_on,73,43,0
1,note_on,69,36,0
1,note_on,69,0,240
1,note_on,73,0,0
1,note_on,63,33,0
1,note_on,72,39,0
1,note_on,72,0,240
1,note_on,63,0,0
1,note_on,71,56,0
1,note_on,64,47,0
1,note_on,64,0,240
1,note_on,71,0,0
1,note_on,61,44,0
1,note_on,71,54,0
1,note_on,71,0,240
1,note_on,61,0,0
1,note_on,69,60,0
1,note_on,63,50,0
1,note_on,63,0,120
1,note_on,69,0,0
1,note_on,66,53,0
1,note_on,66,0,120
1,note_on,64,42,0
1,note_on,64,0,120
1,note_on,66,38,0
1,note_on,66,0,120
1,note_on,68,45,0
1,note_on,64,45,0
1,note_on,64,0,120
1,note_on,59,26,0
1,note_on,59,0,120
1,note_on,64,31,0
1,note_on,64,0,120
1,note_on,59,26,0
1,note_on,59,0,120
1,note_on,68,0,0
1,note_on,68,30,0
1,note_on,71,46,0
1,note_on,68,0,120
1,note_on,59,27,0
1,note_on,59,0,120
1,note_on,71,0,0
1,note_on,66,28,0
1,note_on,69,43,0
1,note_on,66,0,120
1,note_on,59,27,0
1,note_on,59,0,120
1,note_on,69,0,0
1,note_on,64,34,0
1,note_on,68,50,0
1,note_on,64,0,120
1,note_on,59,26,0
1,note_on,59,0,120
1,note_on,68,0,0
1,note_on,63,27,0
1,note_on,66,41,0
1,note_on,63,0,120
1,note_on,59,25,0
1,note_on,59,0,90
1,note_on,66,0,0
1,note_on,63,27,30
1,note_on,66,41,0
1,note_on,63,0,120
1,note_on,59,26,0
1,note_on,59,0,120
1,note_on,66,0,0
1,note_on,64,28,0
1,note_on,68,43,0
1,note_on,64,0,120
1,note_on,59,28,0
1,note_on,59,0,120
1,note_on,68,0,0
1,note_on,64,30,0
1,note_on,69,46,0
1,note_on,64,0,120
1,note_on,59,28,0
1,note_on,59,0,120
1,note_on,69,0,0
1,note_on,64,36,0
1,note_on,73,54,0
1,note_on,64,0,120
1,note_on,59,31,0
1,note_on,59,0,120
1,note_on,73,0,0
1,note_on,66,37,0
1,note_on,71,47,0
1,note_on,66,0,120
1,note_on,59,26,0
1,note_on,59,0,120
1,note_on,71,0,0
1,note_on,63,25,0
1,note_on,66,38,0
1,note_on,63,0,120
1,note_on,59,27,0
1,note_on,59,0,120
1,note_on,66,0,0
1,note_on,59,30,0
1,note_on,68,42,0
1,note_on,59,0,110
1,note_on,59,28,10
1,note_on,59,0,120
1,note_on,64,36,0
1,note_on,64,0,120
1,note_on,59,31,0
1,note_on,59,0,120
1,note_on,68,0,0
1,note_on,64,37,0
1,note_on,64,0,120
1,note_on,59,31,0
1,note_on,59,0,120
1,note_on,64,28,0
1,note_on,68,43,0
1,note_on,64,0,120
1,note_on,59,28,0
1,note_on,59,0,120
1,note_on,68,0,0
1,note_on,64,30,0
1,note_on,69,46,0
1,note_on,64,0,120
1,note_on,59,28,0
1,note_on,59,0,120
1,note_on,69,0,0
1,note_on,64,36,0
1,note_on,73,54,0
1,note_on,64,0,120
1,note_on,59,31,0
1,note_on,59,0,120
1,note_on,73,0,0
1,note_on,66,37,0
1,note_on,71,47,0
1,note_on,66,0,120
1,note_on,59,26,0
1,note_on,59,0,120
1,note_on,71,0,0
1,note_on,63,25,0
1,note_on,66,38,0
1,note_on,63,0,120
1,note_on,59,27,0
1,note_on,59,0,120
1,note_on,66,0,0
1,note_on,59,35,0
1,note_on,64,35,0
1,note_on,68,42,0
1,note_on,68,0,480
1,note_on,64,0,0
1,note_on,59,0,0
1,note_on,68,45,240
1,note_on,80,45,0
1,note_on,80,0,240
1,note_on,68,0,0
1,note_on,69,43,0
1,note_on,81,51,0
1,note_on,81,0,240
1,note_on,69,0,0
1,note_on,73,44,0
1,note_on,85,53,0
1,note_on,85,0,240
1,note_on,73,0,0
1,note_on,71,39,0
1,note_on,83,47,0
1,note_on,83,0,240
1,note_on,71,0,0
1,note_on,87,49,0
1,note_on,75,32,0
1,note_on,75,0,240
1,note_on,87,0,0
1,note_on,88,57,0
1,note_on,76,35,0
1,note_on,76,0,480
1,note_on,88,0,0
1,note_on,68,31,1200
1,note_on,68,0,240
1,note_on,66,31,0
1,note_on,66,0,240
1,note_on,78,42,0
1,note_on,76,35,0
1,note_on,73,35,0
1,note_on,73,0,240
1,note_on,76,0,0
1,note_on,78,0,0
1,note_on,73,38,0
1,note_on,76,45,0
1,note_on,76,0,240
1,note_on,85,50,0
1,note_on,85,0,240
1,note_on,73,0,0
1,note_on,85,45,0
1,note_on,85,0,120
1,note_on,83,37,0
1,note_on,83,0,120
1,note_on,80,38,0
1,note_on,80,0,120
1,note_on,76,38,0
1,note_on,76,0,120
1,note_on,75,39,0
1,note_on,75,0,120
1,note_on,73,39,0
1,note_on,73,0,120
1,note_on,71,39,0
1,note_on,71,0,120
1,note_on,69,40,0
1,note_on,69,0,120
1,note_on,68,43,0
1,note_on,68,0,120
1,note_on,66,40,0
1,note_on,66,0,120
1,note_on,64,36,0
1,note_on,64,0,90
1,note_on,76,49,30
1,note_on,76,0,120
1,note_on,75,46,0
1,note_on,75,0,120
1,note_on,73,45,0
1,note_on,73,0,90
1,note_on,85,55,30
1,note_on,85,0,120
1,note_on,83,52,0
1,note_on,83,0,120
1,note_on,81,50,0
1,note_on,81,0,120
1,note_on,80,49,0
1,note_on,80,0,90
1,note_on,93,59,30
1,note_on,93,0,120
1,note_on,92,56,0
1,note_on,92,0,90
1,note_on,92,57,30
1,note_on,92,0,120
1,note_on,90,55,0
1,note_on,90,0,120
1,note_on,93,58,0
1,note_on,93,0,120
1,note_on,90,56,0
1,note_on,90,0,120
1,note_on,88,55,0
1,note_on,88,0,120
1,note_on,87,56,0
1,note_on,87,0,120
1,note_on,90,63,0
1,note_on,90,0,120
1,note_on,81,54,0
1,note_on,81,0,90
1,note_on,81,50,30
1,note_on,81,0,120
1,note_on,80,47,0
1,note_on,80,0,120
1,note_on,88,50,0
1,note_on,88,0,120
1,note_on,80,46,0
1,note_on,80,0,120
1,note_on,78,40,0
1,note_on,78,0,120
1,note_on,85,37,0
1,note_on,85,0,120
1,note_on,83,40,0
1,note_on,83,0,120
1,note_on,75,36,0
1,note_on,75,0,120
1,note_on,76,40,0
1,note_on,76,0,240
2,note_on,40,25,960
2,note_on,52,30,0
2,note_on,52,0,240
2,note_on,40,0,0
2,note_on,35,25,720
2,note_on,47,30,0
2,note_on,47,0,240
2,note_on,35,0,0
2,note_on,37,25,720
2,note_on,49,30,0
2,note_on,49,0,240
2,note_on,37,0,0
2,note_on,51,28,240
2,note_on,39,23,0
2,note_on,39,0,240
2,note_on,51,0,0
2,note_on,47,26,0
2,note_on,35,22,0
2,note_on,35,0,240
2,note_on,47,0,0
2,note_on,40,28,0
2,note_on,52,28,0
2,note_on,52,0,120
2,note_on,40,0,0
2,note_on,56,25,0
2,note_on,56,0,120
2,note_on,59,28,0
2,note_on,59,0,120
2,note_on,57,26,0
2,note_on,57,0,120
2,note_on,56,28,0
2,note_on,56,0,120
2,note_on,57,25,0
2,note_on,57,0,120
2,note_on,56,34,0
2,note_on,56,0,120
2,note_on,54,31,0
2,note_on,54,0,120
2,note_on,52,42,0
2,note_on,52,0,120
2,note_on,59,32,0
2,note_on,59,0,120
2,note_on,47,39,0
2,note_on,47,0,120
2,note_on,59,32,0
2,note_on,59,0,120
2,note_on,52,37,0
2,note_on,52,0,120
2,note_on,59,33,0
2,note_on,59,0,120
2,note_on,47,34,0
2,note_on,47,0,120
2,note_on,59,33,0
2,note_on,59,0,120
2,note_on,51,42,0
2,note_on,51,0,120
2,note_on,59,32,0
2,note_on,59,0,120
2,note_on,47,33,0
2,note_on,47,0,120
2,note_on,59,31,0
2,note_on,59,0,90
2,note_on,51,33,30
2,note_on,51,0,120
2,note_on,59,33,0
2,note_on,59,0,120
2,note_on,53,37,0
2,note_on,53,0,120
2,note_on,59,39,0
2,note_on,59,0,120
2,note_on,54,43,0
2,note_on,54,0,120
2,note_on,59,43,0
2,note_on,59,0,120
2,note_on,57,49,0
2,note_on,57,0,120
2,note_on,59,43,0
2,note_on,59,0,120
2,note_on,56,44,0
2,note_on,56,0,120
2,note_on,59,37,0
2,note_on,59,0,120
2,note_on,47,25,0
2,note_on,54,25,0
2,note_on,54,0,120
2,note_on,47,0,0
2,note_on,57,27,0
2,note_on,57,0,120
2,note_on,52,31,0
2,note_on,56,31,0
2,note_on,56,0,120
2,note_on,52,0,0
2,note_on,59,23,0
2,note_on,59,0,120
2,note_on,56,31,0
2,note_on,56,0,120
2,note_on,52,25,0
2,note_on,52,0,120
2,note_on,51,31,0
2,note_on,51,0,120
2,note_on,59,27,0
2,note_on,59,0,120
2,note_on,54,31,0
2,note_on,54,0,120
2,note_on,51,32,0
2,note_on,51,0,120
2,note_on,49,38,0
2,note_on,49,0,120
2,note_on,58,29,0
2,note_on,58,0,120
2,note_on,54,31,0
2,note_on,54,0,120
2,note_on,49,27,0
2,note_on,49,0,120
2,note_on,42,31,0
2,note_on,42,0,120
2,note_on,58,26,0
2,note_on,58,0,120
2,note_on,54,29,0
2,note_on,54,0,120
2,note_on,49,27,0
2,note_on,49,0,120
2,note_on,47,31,0
2,note_on,47,0,120
2,note_on,59,25,0
2,note_on,59,0,120
2,note_on,54,30,0
2,note_on,54,0,120
2,note_on,51,27,0
2,note_on,51,0,120
2,note_on,47,37,0
2,note_on,47,0,120
2,note_on,59,30,0
2,note_on,59,0,120
2,note_on,49,40,0
2,note_on,49,0,120
2,note_on,57,36,0
2,note_on,57,0,120
2,note_on,47,34,0
2,note_on,47,0,120
2,note_on,56,31,0
2,note_on,56,0,120
2,note_on,52,41,0
2,note_on,52,0,120
2,note_on,47,37,0
2,note_on,47,0,120
2,note_on,40,47,0
2,note_on,40,0,120
2,note_on,56,35,0
2,note_on,56,0,120
2,note_on,52,39,0
2,note_on,52,0,120
2,note_on,47,31,0
2,note_on,47,0,120
2,note_on,45,38,0
2,note_on,45,0,120
2,note_on,57,29,0
2,note_on,57,0,120
2,note_on,52,34,0
2,note_on,52,0,120
2,note_on,49,29,0
2,note_on,49,0,120
2,note_on,45,34,0
2,note_on,45,0,120
2,note_on,52,29,0
2,note_on,52,0,120
2,note_on,45,31,0
2,note_on,45,0,120
2,note_on,52,35,0
2,note_on,52,0,120
2,note_on,45,40,0
2,note_on,45,0,120
2,note_on,52,35,0
2,note_on,52,0,120
2,note_on,45,39,0
2,note_on,45,0,120
2,note_on,52,35,0
2,note_on,52,0,120
2,note_on,45,43,0
2,note_on,45,0,120
2,note_on,52,35,0
2,note_on,52,0,120
2,note_on,47,43,0
2,note_on,47,0,120
2,note_on,52,35,0
2,note_on,52,0,120
2,note_on,49,52,0
2,note_on,49,0,120
2,note_on,52,46,0
2,note_on,52,0,120
2,note_on,49,50,0
2,note_on,49,0,120
2,note_on,52,40,0
2,note_on,52,0,120
2,note_on,48,46,0
2,note_on,48,0,120
2,note_on,52,35,0
2,note_on,52,0,120
2,note_on,48,44,0
2,note_on,48,0,120
2,note_on,52,35,0
2,note_on,52,0,120
2,note_on,47,31,0
2,note_on,47,0,120
2,note_on,54,27,0
2,note_on,54,0,120
2,note_on,47,31,0
2,note_on,47,0,120
2,note_on,54,29,0
2,note_on,57,29,0
2,note_on,57,0,120
2,note_on,54,0,0
2,note_on,47,31,0
2,note_on,47,0,120
2,note_on,54,27,0
2,note_on,57,27,0
2,note_on,57,0,120
2,note_on,54,0,0
2,note_on,47,31,0
2,note_on,47,0,120
2,note_on,57,28,0
2,note_on,54,28,0
2,note_on,54,0,120
2,note_on,57,0,0
2,note_on,52,31,0
2,note_on,56,31,0
2,note_on,56,0,120
2,note_on,52,0,0
2,note_on,59,23,0
2,note_on,59,0,120
2,note_on,56,31,0
2,note_on,56,0,120
2,note_on,52,25,0
2,note_on,52,0,120
2,note_on,51,31,0
2,note_on,51,0,120
2,note_on,59,27,0
2,note_on,59,0,120
2,note_on,54,31,0
2,note_on,54,0,120
2,note_on,51,32,0
2,note_on,51,0,120
2,note_on,49,38,0
2,note_on,49,0,120
2,note_on,58,29,0
2,note_on,58,0,120
2,note_on,54,31,0
2,note_on,54,0,120
2,note_on,49,27,0
2,note_on,49,0,120
2,note_on,42,31,0
2,note_on,42,0,120
2,note_on,58,26,0
2,note_on,58,0,120
2,note_on,54,29,0
2,note_on,54,0,120
2,note_on,49,27,0
2,note_on,49,0,120
2,note_on,47,31,0
2,note_on,47,0,120
2,note_on,59,25,0
2,note_on,59,0,120
2,note_on,54,30,0
2,note_on,54,0,120
2,note_on,51,27,0
2,note_on,51,0,120
2,note_on,47,37,0
2,note_on,47,0,120
2,note_on,59,30,0
2,note_on,59,0,120
2,note_on,49,42,0
2,note_on,49,0,120
2,note_on,57,38,0
2,note_on,57,0,120
2,note_on,47,37,0
2,note_on,47,0,120
2,note_on,56,36,0
2,note_on,56,0,120
2,note_on,52,44,0
2,note_on,52,0,120
2,note_on,47,38,0
2,note_on,47,0,120
2,note_on,40,42,0
2,note_on,40,0,120
2,note_on,56,35,0
2,note_on,56,0,120
2,note_on,52,39,0
2,note_on,52,0,120
2,note_on,47,31,0
2,note_on,47,0,120
2,note_on,45,38,0
2,note_on,45,0,120
2,note_on,57,29,0
2,note_on,57,0,120
2,note_on,52,34,0
2,note_on,52,0,120
2,note_on,49,29,0
2,note_on,49,0,120
2,note_on,45,34,0
2,note_on,45,0,120
2,note_on,52,29,0
2,note_on,52,0,120
2,note_on,45,35,0
2,note_on,45,0,120
2,note_on,52,40,0
2,note_on,52,0,120
2,note_on,44,40,0
2,note_on,44,0,120
2,note_on,52,36,0
2,note_on,52,0,120
2,note_on,45,40,0
2,note_on,45,0,120
2,note_on,52,36,0
2,note_on,52,0,120
2,note_on,49,45,0
2,note_on,45,38,0
2,note_on,45,0,120
2,note_on,49,0,0
2,note_on,52,37,0
2,note_on,52,0,120
2,note_on,52,46,0
2,note_on,47,39,0
2,note_on,47,0,120
2,note_on,52,0,0
2,note_on,56,37,0
2,note_on,56,0,120
2,note_on,52,44,0
2,note_on,49,37,0
2,note_on,49,0,120
2,note_on,52,0,0
2,note_on,58,39,0
2,note_on,58,0,120
2,note_on,52,44,0
2,note_on,49,36,0
2,note_on,49,0,120
2,note_on,52,0,0
2,note_on,58,35,0
2,note_on,58,0,120
2,note_on,52,40,0
2,note_on,48,34,0
2,note_on,48,0,120
2,note_on,52,0,0
2,note_on,57,31,0
2,note_on,57,0,120
2,note_on,52,49,0
2,note_on,48,42,0
2,note_on,48,0,120
2,note_on,52,0,0
2,note_on,57,39,0
2,note_on,57,0,120
2,note_on,51,31,0
2,note_on,47,26,0
2,note_on,47,0,120
2,note_on,51,0,0
2,note_on,57,27,0
2,note_on,57,0,120
2,note_on,51,31,0
2,note_on,47,26,0
2,note_on,47,0,120
2,note_on,51,0,0
2,note_on,57,29,0
2,note_on,57,0,120
2,note_on,51,31,0
2,note_on,47,26,0
2,note_on,47,0,120
2,note_on,51,0,0
2,note_on,57,27,0
2,note_on,57,0,120
2,note_on,51,31,0
2,note_on,47,26,0
2,note_on,47,0,120
2,note_on,51,0,0
2,note_on,57,28,0
2,note_on,57,0,120
2,note_on,52,31,0
2,note_on,56,31,0
2,note_on,56,0,120
2,note_on,52,0,0
2,note_on,52,31,0
2,note_on,52,0,120
2,note_on,51,31,0
2,note_on,51,0,120
2,note_on,49,31,0
2,note_on,49,0,120
2,note_on,47,31,0
2,note_on,47,0,120
2,note_on,45,30,0
2,note_on,45,0,120
2,note_on,44,25,0
2,note_on,44,0,120
2,note_on,42,25,0
2,note_on,42,0,120
2,note_on,40,25,0
2,note_on,40,0,240
2,note_on,35,25,720
2,note_on,35,0,240
2,note_on,37,25,720
2,note_on,37,0,240
2,note_on,39,23,240
2,note_on,39,0,240
2,note_on,35,22,0
2,note_on,35,0,240
2,note_on,40,28,0
2,note_on,40,0,240
2,note_on,64,32,0
2,note_on,64,0,120
2,note_on,59,25,0
2,note_on,59,0,120
2,note_on,64,32,0
2,note_on,64,0,120
2,note_on,59,27,0
2,note_on,59,0,120
2,note_on,64,32,0
2,note_on,64,0,120
2,note_on,59,29,0
2,note_on,59,0,120
2,note_on,64,35,0
2,note_on,64,0,120
2,note_on,59,34,0
2,note_on,59,0,120
2,note_on,64,38,0
2,note_on,64,0,120
2,note_on,59,36,0
2,note_on,59,0,120
2,note_on,68,42,0
2,note_on,68,0,120
2,note_on,59,38,0
2,note_on,59,0,120
2,note_on,66,47,0
2,note_on,66,0,120
2,note_on,59,43,0
2,note_on,59,0,120
2,note_on,64,54,0
2,note_on,64,0,120
2,note_on,59,45,0
2,note_on,59,0,120
2,note_on,63,52,0
2,note_on,63,0,120
2,note_on,59,45,0
2,note_on,59,0,120
2,note_on,63,49,0
2,note_on,63,0,120
2,note_on,59,42,0
2,note_on,59,0,120
2,note_on,65,52,0
2,note_on,65,0,120
2,note_on,59,46,0
2,note_on,59,0,120
2,note_on,66,60,0
2,note_on,66,0,120
2,note_on,59,50,0
2,note_on,59,0,120
2,note_on,69,54,0
2,note_on,69,0,120
2,note_on,59,48,0
2,note_on,59,0,120
2,note_on,68,57,0
2,note_on,68,0,120
2,note_on,59,45,0
2,note_on,59,0,120
2,note_on,66,54,0
2,note_on,66,0,120
2,note_on,59,46,0
2,note_on,59,0,120
2,note_on,64,59,0
2,note_on,64,0,120
2,note_on,59,49,0
2,note_on,59,0,120
2,note_on,56,58,0
2,note_on,56,0,120
2,note_on,59,50,0
2,note_on,59,0,120
2,note_on,52,59,0
2,note_on,52,0,240
2,note_on,61,67,240
2,note_on,61,0,120
2,note_on,56,57,0
2,note_on,56,0,120
2,note_on,52,62,0
2,note_on,52,0,120
2,note_on,56,57,0
2,note_on,56,0,120
2,note_on,49,70,0
2,note_on,49,0,240
2,note_on,61,26,0
2,note_on,61,0,120
2,note_on,60,33,120
2,note_on,60,0,120
2,note_on,56,27,0
2,note_on,56,0,120
2,note_on,51,33,0
2,note_on,51,0,120
2,note_on,56,27,0
2,note_on,56,0,120
2,note_on,48,36,0
2,note_on,48,0,240
2,note_on,60,77,0
2,note_on,60,0,120
2,note_on,56,67,120
2,note_on,56,0,120
2,note_on,51,57,0
2,note_on,51,0,120
2,note_on,48,62,0
2,note_on,48,0,120
2,note_on,51,57,0
2,note_on,51,0,120
2,note_on,44,70,0
2,note_on,44,0,240
2,note_on,60,26,0
2,note_on,60,0,120
2,note_on,61,33,120
2,note_on,61,0,120
2,note_on,56,27,0
2,note_on,56,0,120
2,note_on,52,33,0
2,note_on,52,0,120
2,note_on,56,27,0
2,note_on,56,0,120
2,note_on,49,36,0
2,note_on,49,0,240
2,note_on,61,83,0
2,note_on,61,0,120
2,note_on,59,67,120
2,note_on,59,0,120
2,note_on,56,57,0
2,note_on,56,0,120
2,note_on,52,62,0
2,note_on,52,0,120
2,note_on,56,57,0
2,note_on,56,0,120
2,note_on,47,70,0
2,note_on,47,0,240
2,note_on,59,26,0
2,note_on,59,0,120
2,note_on,58,33,120
2,note_on,58,0,120
2,note_on,54,27,0
2,note_on,54,0,120
2,note_on,49,33,0
2,note_on,49,0,120
2,note_on,54,27,0
2,note_on,54,0,120
2,note_on,46,36,0
2,note_on,46,0,240
2,note_on,46,77,0
2,note_on,46,0,120
2,note_on,44,67,120
2,note_on,44,0,120
2,note_on,40,57,0
2,note_on,40,0,120
2,note_on,35,62,0
2,note_on,35,0,120
2,note_on,40,57,0
2,note_on,40,0,120
2,note_on,32,70,0
2,note_on,32,0,240
2,note_on,32,60,0
2,note_on,44,65,0
2,note_on,44,0,120
2,note_on,32,0,0
2,note_on,30,78,120
2,note_on,42,78,0
2,note_on,42,0,240
2,note_on,30,0,0
2,note_on,66,33,0
2,note_on,66,0,120
2,note_on,68,27,0
2,note_on,68,0,120
2,note_on,66,33,0
2,note_on,66,0,120
2,note_on,68,29,0
2,note_on,68,0,120
2,note_on,66,33,0
2,note_on,66,0,120
2,note_on,68,29,0
2,note_on,68,0,120
2,note_on,66,32,0
2,note_on,61,41,0
2,note_on,58,34,0
2,note_on,66,0,120
2,note_on,68,27,0
2,note_on,68,0,120
2,note_on,66,31,0
2,note_on,66,0,120
2,note_on,68,26,0
2,note_on,68,0,120
2,note_on,66,32,0
2,note_on,66,0,120
2,note_on,68,32,0
2,note_on,68,0,120
2,note_on,58,0,0
2,note_on,61,0,0
2,note_on,66,33,0
2,note_on,63,42,0
2,note_on,59,35,0
2,note_on,66,0,120
2,note_on,68,36,0
2,note_on,59,0,96
2,note_on,63,0,0
2,note_on,68,0,24
2,note_on,66,37,0
2,note_on,63,47,0
2,note_on,59,39,0
2,note_on,66,0,120
2,note_on,68,29,0
2,note_on,68,0,120
2,note_on,59,0,0
2,note_on,63,0,0
2,note_on,66,32,0
2,note_on,64,41,0
2,note_on,61,34,0
2,note_on,66,0,120
2,note_on,68,28,0
2,note_on,61,0,96
2,note_on,64,0,0
2,note_on,68,0,24
2,note_on,61,28,0
2,note_on,64,33,0
2,note_on,66,26,0
2,note_on,66,0,120
2,note_on,68,24,0
2,note_on,68,0,120
2,note_on,64,0,0
2,note_on,61,0,0
2,note_on,59,28,0
2,note_on,63,33,0
2,note_on,66,26,0
2,note_on,66,0,120
2,note_on,68,24,0
2,note_on,68,0,120
2,note_on,63,0,0
2,note_on,59,0,0
2,note_on,66,32,0
2,note_on,61,41,0
2,note_on,58,34,0
2,note_on,66,0,120
2,note_on,68,27,0
2,note_on,68,0,120
2,note_on,66,31,0
2,note_on,66,0,120
2,note_on,68,26,0
2,note_on,68,0,120
2,note_on,66,32,0
2,note_on,66,0,120
2,note_on,68,32,0
2,note_on,68,0,120
2,note_on,58,0,0
2,note_on,61,0,0
2,note_on,66,33,0
2,note_on,63,42,0
2,note_on,59,35,0
2,note_on,66,0,120
2,note_on,68,36,0
2,note_on,59,0,96
2,note_on,63,0,0
2,note_on,68,0,24
2,note_on,66,37,0
2,note_on,64,47,0
2,note_on,61,39,0
2,note_on,66,0,120
2,note_on,68,29,0
2,note_on,68,0,120
2,note_on,61,0,0
2,note_on,64,0,0
2,note_on,66,32,0
2,note_on,61,41,0
2,note_on,58,34,0
2,note_on,66,0,120
2,note_on,68,28,0
2,note_on,58,0,96
2,note_on,61,0,0
2,note_on,68,0,24
2,note_on,59,28,0
2,note_on,63,33,0
2,note_on,66,26,0
2,note_on,66,0,120
2,note_on,68,24,0
2,note_on,68,0,120
2,note_on,63,0,0
2,note_on,59,0,0
2,note_on,61,28,0
2,note_on,64,33,0
2,note_on,66,26,0
2,note_on,66,0,120
2,note_on,68,24,0
2,note_on,68,0,120
2,note_on,64,0,0
2,note_on,61,0,0
2,note_on,63,28,0
2,note_on,66,33,0
2,note_on,66,0,120
2,note_on,71,27,0
2,note_on,71,0,120
2,note_on,63,0,0
2,note_on,66,31,0
2,note_on,66,0,120
2,note_on,71,27,0
2,note_on,71,0,120
2,note_on,64,33,0
2,note_on,64,0,120
2,note_on,71,26,0
2,note_on,71,0,120
2,note_on,63,30,0
2,note_on,63,0,120
2,note_on,71,27,0
2,note_on,71,0,120
2,note_on,64,33,0
2,note_on,64,0,120
2,note_on,71,26,0
2,note_on,71,0,120
2,note_on,66,31,0
2,note_on,66,0,120
2,note_on,71,25,0
2,note_on,71,0,120
2,note_on,68,33,0
2,note_on,68,0,120
2,note_on,71,25,0
2,note_on,71,0,120
2,note_on,65,30,0
2,note_on,65,0,120
2,note_on,71,27,0
2,note_on,71,0,120
2,note_on,66,33,0
2,note_on,68,27,120
2,note_on,68,0,120
2,note_on,70,32,0
2,note_on,70,0,120
2,note_on,71,26,0
2,note_on,71,0,120
2,note_on,70,31,0
2,note_on,70,0,120
2,note_on,71,27,0
2,note_on,71,0,120
2,note_on,73,29,0
2,note_on,73,0,120
2,note_on,75,27,0
2,note_on,75,0,120
2,note_on,66,0,0
2,note_on,70,33,0
2,note_on,66,33,0
2,note_on,66,0,240
2,note_on,70,0,0
2,note_on,68,33,0
2,note_on,68,0,120
2,note_on,66,30,0
2,note_on,66,0,120
2,note_on,68,33,0
2,note_on,68,0,120
2,note_on,66,29,0
2,note_on,66,0,120
2,note_on,68,33,0
2,note_on,68,0,120
2,note_on,66,33,0
2,note_on,66,0,120
2,note_on,68,32,0
2,note_on,61,41,0
2,note_on,58,34,0
2,note_on,68,0,120
2,note_on,66,27,0
2,note_on,66,0,120
2,note_on,68,31,0
2,note_on,68,0,120
2,note_on,66,26,0
2,note_on,66,0,120
2,note_on,68,32,0
2,note_on,68,0,120
2,note_on,66,32,0
2,note_on,66,0,120
2,note_on,58,0,0
2,note_on,61,0,0
2,note_on,68,33,0
2,note_on,63,42,0
2,note_on,59,35,0
2,note_on,68,0,120
2,note_on,66,36,0
2,note_on,59,0,96
2,note_on,63,0,0
2,note_on,66,0,24
2,note_on,68,37,0
2,note_on,63,47,0
2,note_on,59,39,0
2,note_on,68,0,120
2,note_on,66,29,0
2,note_on,66,0,120
2,note_on,59,0,0
2,note_on,63,0,0
2,note_on,68,32,0
2,note_on,64,41,0
2,note_on,61,34,0
2,note_on,68,0,120
2,note_on,66,28,0
2,note_on,61,0,96
2,note_on,64,0,0
2,note_on,66,0,24
2,note_on,61,28,0
2,note_on,64,33,0
2,note_on,68,26,0
2,note_on,68,0,120
2,note_on,66,24,0
2,note_on,66,0,120
2,note_on,64,0,0
2,note_on,61,0,0
2,note_on,59,28,0
2,note_on,63,33,0
2,note_on,68,26,0
2,note_on,68,0,120
2,note_on,66,24,0
2,note_on,66,0,120
2,note_on,63,0,0
2,note_on,59,0,0
2,note_on,68,32,0
2,note_on,61,41,0
2,note_on,58,34,0
2,note_on,68,0,120
2,note_on,66,27,0
2,note_on,66,0,120
2,note_on,68,31,0
2,note_on,68,0,120
2,note_on,66,26,0
2,note_on,66,0,120
2,note_on,68,32,0
2,note_on,68,0,120
2,note_on,66,32,0
2,note_on,66,0,120
2,note_on,58,0,0
2,note_on,61,0,0
2,note_on,68,33,0
2,note_on,63,42,0
2,note_on,59,35,0
2,note_on,68,0,120
2,note_on,66,36,0
2,note_on,59,0,96
2,note_on,63,0,0
2,note_on,66,0,24
2,note_on,64,32,0
2,note_on,61,39,0
2,note_on,64,0,120
2,note_on,66,29,0
2,note_on,66,0,120
2,note_on,61,0,0
2,note_on,58,41,0
2,note_on,54,34,0
2,note_on,54,0,108
2,note_on,58,0,0
2,note_on,66,28,12
2,note_on,66,0,120
2,note_on,56,28,0
2,note_on,59,33,0
2,note_on,59,0,120
2,note_on,56,0,0
2,note_on,66,24,0
2,note_on,66,0,120
2,note_on,58,28,0
2,note_on,61,33,0
2,note_on,61,0,120
2,note_on,58,0,0
2,note_on,66,24,0
2,note_on,66,0,120
2,note_on,63,32,0
2,note_on,59,39,0
2,note_on,59,0,120
2,note_on,63,0,0
2,note_on,66,28,0
2,note_on,66,0,120
2,note_on,59,40,0
2,note_on,56,33,0
2,note_on,56,0,108
2,note_on,59,0,0
2,note_on,66,27,12
2,note_on,66,0,120
2,note_on,58,26,0
2,note_on,61,31,0
2,note_on,61,0,120
2,note_on,58,0,0
2,note_on,66,22,0
2,note_on,66,0,120
2,note_on,59,26,0
2,note_on,63,31,0
2,note_on,63,0,120
2,note_on,59,0,0
2,note_on,66,22,0
2,note_on,66,0,120
2,note_on,64,29,0
2,note_on,61,35,0
2,note_on,61,0,120
2,note_on,64,0,0
2,note_on,66,26,0
2,note_on,66,0,120
2,note_on,61,36,0
2,note_on,58,30,0
2,note_on,58,0,108
2,note_on,61,0,0
2,note_on,66,24,12
2,note_on,66,0,120
2,note_on,59,24,0
2,note_on,63,29,0
2,note_on,63,0,120
2,note_on,59,0,0
2,note_on,66,20,0
2,note_on,66,0,120
2,note_on,61,24,0
2,note_on,64,28,0
2,note_on,64,0,120
2,note_on,61,0,0
2,note_on,66,20,0
2,note_on,66,0,120
2,note_on,63,26,0
2,note_on,63,0,120
2,note_on,66,24,0
2,note_on,66,0,120
2,note_on,63,33,0
2,note_on,63,0,108
2,note_on,66,22,12
2,note_on,66,0,120
2,note_on,63,26,0
2,note_on,63,0,120
2,note_on,66,18,0
2,note_on,66,0,120
2,note_on,63,25,0
2,note_on,63,0,120
2,note_on,66,18,0
2,note_on,66,0,120
2,note_on,63,24,0
2,note_on,66,24,0
2,note_on,66,0,240
2,note_on,63,0,0
2,note_on,56,27,360
2,note_on,56,0,120
2,note_on,58,29,0
2,note_on,58,0,120
2,note_on,60,27,0
2,note_on,60,0,120
2,note_on,61,33,0
2,note_on,61,0,120
2,note_on,56,28,0
2,note_on,56,0,120
2,note_on,58,29,0
2,note_on,58,0,120
2,note_on,60,27,0
2,note_on,60,0,90
2,note_on,63,27,0
2,note_on,63,0,30
2,note_on,61,34,0
2,note_on,61,0,120
2,note_on,60,28,0
2,note_on,60,0,120
2,note_on,61,29,0
2,note_on,61,0,120
2,note_on,63,27,0
2,note_on,63,0,120
2,note_on,64,35,0
2,note_on,64,0,120
2,note_on,63,29,0
2,note_on,63,0,120
2,note_on,64,29,0
2,note_on,64,0,120
2,note_on,66,28,0
2,note_on,66,0,120
2,note_on,68,34,0
2,note_on,68,0,120
2,note_on,66,29,0
2,note_on,66,0,120
2,note_on,64,29,0
2,note_on,64,0,120
2,note_on,65,28,0
2,note_on,65,0,120
2,note_on,66,34,0
2,note_on,66,0,240
2,note_on,54,34,240
2,note_on,54,0,240
2,note_on,47,32,240
2,note_on,47,0,160
2,note_on,54,27,0
2,note_on,54,0,160
2,note_on,51,27,0
2,note_on,51,0,160
2,note_on,47,32,0
2,note_on,47,0,160
2,note_on,59,27,0
2,note_on,59,0,160
2,note_on,54,27,0
2,note_on,54,0,160
2,note_on,49,32,0
2,note_on,49,0,160
2,note_on,58,27,0
2,note_on,58,0,160
2,note_on,54,27,0
2,note_on,54,0,160
2,note_on,51,33,0
2,note_on,51,0,160
2,note_on,59,27,0
2,note_on,59,0,160
2,note_on,54,29,0
2,note_on,54,0,160
2,note_on,52,32,0
2,note_on,52,0,160
2,note_on,61,29,0
2,note_on,61,0,160
2,note_on,56,29,0
2,note_on,56,0,160
2,note_on,53,34,0
2,note_on,53,0,160
2,note_on,63,31,0
2,note_on,63,0,160
2,note_on,59,30,0
2,note_on,59,0,160
2,note_on,54,37,0
2,note_on,54,0,160
2,note_on,63,32,0
2,note_on,63,0,160
2,note_on,59,32,0
2,note_on,59,0,160
2,note_on,52,42,0
2,note_on,52,0,160
2,note_on,61,36,0
2,note_on,61,0,160
2,note_on,58,36,0
2,note_on,58,0,160
2,note_on,51,43,0
2,note_on,51,0,120
2,note_on,59,36,0
2,note_on,59,0,120
2,note_on,54,36,0
2,note_on,54,0,120
2,note_on,51,34,0
2,note_on,51,0,120
2,note_on,47,42,0
2,note_on,47,0,120
2,note_on,54,37,0
2,note_on,54,0,120
2,note_on,51,38,0
2,note_on,51,0,120
2,note_on,47,35,0
2,note_on,47,0,120
2,note_on,49,50,0
2,note_on,49,0,120
2,note_on,57,40,0
2,note_on,57,0,120
2,note_on,52,40,0
2,note_on,52,0,120
2,note_on,49,36,0
2,note_on,49,0,120
2,note_on,51,48,0
2,note_on,51,0,120
2,note_on,59,43,0
2,note_on,59,0,120
2,note_on,54,43,0
2,note_on,54,0,120
2,note_on,51,41,0
2,note_on,51,0,120
2,note_on,52,61,0
2,note_on,52,0,120
2,note_on,61,46,0
2,note_on,61,0,120
2,note_on,57,45,0
2,note_on,57,0,120
2,note_on,52,43,0
2,note_on,52,0,120
2,note_on,54,62,0
2,note_on,54,0,120
2,note_on,59,47,0
2,note_on,59,0,120
2,note_on,57,48,0
2,note_on,57,0,120
2,note_on,54,46,0
2,note_on,54,0,110
2,note_on,54,66,10
2,note_on,54,0,120
2,note_on,59,50,0
2,note_on,59,0,120
2,note_on,57,50,0
2,note_on,57,0,120
2,note_on,54,48,0
2,note_on,54,0,120
2,note_on,48,60,0
2,note_on,48,0,120
2,note_on,57,51,0
2,note_on,57,0,120
2,note_on,54,51,0
2,note_on,54,0,120
2,note_on,51,47,0
2,note_on,51,0,120
2,note_on,48,60,0
2,note_on,48,0,120
2,note_on,57,51,0
2,note_on,57,0,120
2,note_on,54,51,0
2,note_on,54,0,120
2,note_on,51,43,0
2,note_on,51,0,120
2,note_on,48,48,0
2,note_on,48,0,120
2,note_on,57,37,0
2,note_on,57,0,120
2,note_on,54,35,0
2,note_on,54,0,120
2,note_on,51,33,0
2,note_on,51,0,120
2,note_on,47,37,0
2,note_on,47,0,120
2,note_on,57,26,0
2,note_on,57,0,120
2,note_on,54,30,0
2,note_on,54,0,120
2,note_on,51,26,0
2,note_on,51,0,120
2,note_on,47,31,0
2,note_on,47,0,120
2,note_on,57,26,0
2,note_on,57,0,120
2,note_on,56,26,0
2,note_on,56,0,120
2,note_on,54,26,0
2,note_on,54,0,120
2,note_on,40,25,0
2,note_on,52,30,0
2,note_on,52,0,240
2,note_on,40,0,0
2,note_on,35,25,720
2,note_on,47,30,0
2,note_on,47,0,240
2,note_on,35,0,0
2,note_on,37,25,720
2,note_on,49,30,0
2,note_on,49,0,240
2,note_on,37,0,0
2,note_on,51,28,240
2,note_on,39,23,0
2,note_on,39,0,240
2,note_on,51,0,0
2,note_on,47,26,0
2,note_on,35,22,0
2,note_on,35,0,240
2,note_on,47,0,0
2,note_on,40,28,0
2,note_on,52,28,0
2,note_on,52,0,120
2,note_on,40,0,0
2,note_on,56,25,0
2,note_on,56,0,120
2,note_on,59,28,0
2,note_on,59,0,120
2,note_on,57,26,0
2,note_on,57,0,120
2,note_on,56,28,0
2,note_on,56,0,120
2,note_on,57,25,0
2,note_on,57,0,120
2,note_on,56,30,0
2,note_on,56,0,120
2,note_on,54,27,0
2,note_on,54,0,120
2,note_on,52,37,0
2,note_on,52,0,120
2,note_on,59,28,0
2,note_on,59,0,120
2,note_on,47,34,0
2,note_on,47,0,120
2,note_on,59,28,0
2,note_on,59,0,120
2,note_on,52,33,0
2,note_on,52,0,120
2,note_on,59,29,0
2,note_on,59,0,120
2,note_on,47,30,0
2,note_on,47,0,120
2,note_on,59,29,0
2,note_on,59,0,120
2,note_on,51,37,0
2,note_on,51,0,120
2,note_on,59,28,0
2,note_on,59,0,120
2,note_on,47,29,0
2,note_on,47,0,120
2,note_on,59,27,0
2,note_on,59,0,90
2,note_on,51,29,30
2,note_on,51,0,120
2,note_on,59,28,0
2,note_on,59,0,120
2,note_on,53,31,0
2,note_on,53,0,120
2,note_on,59,33,0
2,note_on,59,0,120
2,note_on,54,36,0
2,note_on,54,0,120
2,note_on,59,36,0
2,note_on,59,0,120
2,note_on,57,41,0
2,note_on,57,0,120
2,note_on,59,37,0
2,note_on,59,0,120
2,note_on,56,38,0
2,note_on,56,0,120
2,note_on,59,32,0
2,note_on,59,0,120
2,note_on,47,25,0
2,note_on,54,25,0
2,note_on,54,0,120
2,note_on,47,0,0
2,note_on,57,27,0
2,note_on,57,0,120
2,note_on,52,31,0
2,note_on,56,31,0
2,note_on,56,0,120
2,note_on,52,0,0
2,note_on,59,23,0
2,note_on,59,0,120
2,note_on,56,31,0
2,note_on,56,0,120
2,note_on,52,25,0
2,note_on,52,0,120
2,note_on,51,31,0
2,note_on,51,0,120
2,note_on,59,27,0
2,note_on,59,0,120
2,note_on,54,31,0
2,note_on,54,0,120
2,note_on,51,32,0
2,note_on,51,0,120
2,note_on,49,38,0
2,note_on,49,0,120
2,note_on,58,29,0
2,note_on,58,0,120
2,note_on,54,31,0
2,note_on,54,0,120
2,note_on,49,27,0
2,note_on,49,0,120
2,note_on,42,31,0
2,note_on,42,0,120
2,note_on,58,26,0
2,note_on,58,0,120
2,note_on,54,29,0
2,note_on,54,0,120
2,note_on,49,27,0
2,note_on,49,0,120
2,note_on,47,31,0
2,note_on,47,0,120
2,note_on,59,25,0
2,note_on,59,0,120
2,note_on,54,30,0
2,note_on,54,0,120
2,note_on,51,27,0
2,note_on,51,0,120
2,note_on,47,37,0
2,note_on,47,0,120
2,note_on,59,30,0
2,note_on,59,0,120
2,note_on,49,37,0
2,note_on,49,0,120
2,note_on,57,33,0
2,note_on,57,0,120
2,note_on,47,31,0
2,note_on,47,0,120
2,note_on,56,32,0
2,note_on,56,0,120
2,note_on,52,38,0
2,note_on,52,0,120
2,note_on,47,33,0
2,note_on,47,0,120
2,note_on,40,45,0
2,note_on,40,0,120
2,note_on,56,32,0
2,note_on,56,0,120
2,note_on,52,36,0
2,note_on,52,0,120
2,note_on,47,29,0
2,note_on,47,0,120
2,note_on,45,35,0
2,note_on,45,0,120
2,note_on,57,27,0
2,note_on,57,0,120
2,note_on,52,31,0
2,note_on,52,0,120
2,note_on,49,27,0
2,note_on,49,0,120
2,note_on,45,31,0
2,note_on,45,0,120
2,note_on,52,29,0
2,note_on,52,0,120
2,note_on,45,34,0
2,note_on,45,0,120
2,note_on,52,38,0
2,note_on,52,0,120
2,note_on,45,39,0
2,note_on,45,0,120
2,note_on,52,35,0
2,note_on,52,0,120
2,note_on,45,38,0
2,note_on,45,0,120
2,note_on,52,35,0
2,note_on,52,0,120
2,note_on,45,44,0
2,note_on,45,0,120
2,note_on,52,36,0
2,note_on,52,0,120
2,note_on,47,44,0
2,note_on,47,0,120
2,note_on,52,37,0
2,note_on,52,0,120
2,note_on,49,55,0
2,note_on,49,0,120
2,note_on,52,48,0
2,note_on,52,0,120
2,note_on,49,54,0
2,note_on,49,0,120
2,note_on,52,43,0
2,note_on,52,0,120
2,note_on,48,50,0
2,note_on,48,0,120
2,note_on,52,39,0
2,note_on,52,0,120
2,note_on,48,49,0
2,note_on,48,0,120
2,note_on,52,39,0
2,note_on,52,0,120
2,note_on,47,31,0
2,note_on,47,0,120
2,note_on,54,27,0
2,note_on,54,0,120
2,note_on,47,31,0
2,note_on,47,0,120
2,note_on,54,29,0
2,note_on,57,29,0
2,note_on,57,0,120
2,note_on,54,0,0
2,note_on,47,31,0
2,note_on,47,0,120
2,note_on,54,27,0
2,note_on,57,27,0
2,note_on,57,0,120
2,note_on,54,0,0
2,note_on,47,31,0
2,note_on,47,0,120
2,note_on,57,28,0
2,note_on,54,28,0
2,note_on,54,0,120
2,note_on,57,0,0
2,note_on,52,31,0
2,note_on,56,31,0
2,note_on,56,0,120
2,note_on,52,0,0
2,note_on,59,23,0
2,note_on,59,0,120
2,note_on,56,31,0
2,note_on,56,0,120
2,note_on,52,25,0
2,note_on,52,0,120
2,note_on,51,31,0
2,note_on,51,0,120
2,note_on,59,27,0
2,note_on,59,0,120
2,note_on,54,31,0
2,note_on,54,0,120
2,note_on,51,32,0
2,note_on,51,0,120
2,note_on,49,38,0
2,note_on,49,0,120
2,note_on,58,29,0
2,note_on,58,0,120
2,note_on,54,31,0
2,note_on,54,0,120
2,note_on,49,27,0
2,note_on,49,0,120
2,note_on,42,31,0
2,note_on,42,0,120
2,note_on,58,26,0
2,note_on,58,0,120
2,note_on,54,29,0
2,note_on,54,0,120
2,note_on,49,27,0
2,note_on,49,0,120
2,note_on,47,31,0
2,note_on,47,0,120
2,note_on,59,25,0
2,note_on,59,0,120
2,note_on,54,30,0
2,note_on,54,0,120
2,note_on,51,27,0
2,note_on,51,0,120
2,note_on,47,37,0
2,note_on,47,0,120
2,note_on,59,30,0
2,note_on,59,0,120
2,note_on,49,37,0
2,note_on,49,0,120
2,note_on,57,33,0
2,note_on,57,0,120
2,note_on,47,31,0
2,note_on,47,0,120
2,note_on,56,33,0
2,note_on,56,0,120
2,note_on,52,37,0
2,note_on,52,0,120
2,note_on,47,37,0
2,note_on,47,0,120
2,note_on,40,42,0
2,note_on,40,0,120
2,note_on,56,32,0
2,note_on,56,0,120
2,note_on,52,36,0
2,note_on,52,0,120
2,note_on,47,29,0
2,note_on,47,0,120
2,note_on,45,35,0
2,note_on,45,0,120
2,note_on,57,27,0
2,note_on,57,0,120
2,note_on,52,31,0
2,note_on,52,0,120
2,note_on,49,27,0
2,note_on,49,0,120
2,note_on,45,31,0
2,note_on,45,0,120
2,note_on,52,29,0
2,note_on,52,0,120
2,note_on,45,35,0
2,note_on,45,0,120
2,note_on,52,40,0
2,note_on,52,0,120
2,note_on,45,40,0
2,note_on,45,0,120
2,note_on,52,36,0
2,note_on,52,0,120
2,note_on,45,40,0
2,note_on,45,0,120
2,note_on,52,37,0
2,note_on,52,0,120
2,note_on,49,45,0
2,note_on,45,38,0
2,note_on,45,0,120
2,note_on,49,0,0
2,note_on,52,37,0
2,note_on,52,0,120
2,note_on,52,46,0
2,note_on,47,39,0
2,note_on,47,0,120
2,note_on,52,0,0
2,note_on,56,38,0
2,note_on,56,0,120
2,note_on,52,57,0
2,note_on,49,49,0
2,note_on,49,0,120
2,note_on,52,0,0
2,note_on,58,50,0
2,note_on,58,0,120
2,note_on,52,56,0
2,note_on,49,47,0
2,note_on,49,0,120
2,note_on,52,0,0
2,note_on,58,45,0
2,note_on,58,0,120
2,note_on,52,52,0
2,note_on,48,44,0
2,note_on,48,0,120
2,note_on,52,0,0
2,note_on,57,40,0
2,note_on,57,0,120
2,note_on,52,51,0
2,note_on,48,43,0
2,note_on,48,0,120
2,note_on,52,0,0
2,note_on,57,41,0
2,note_on,57,0,120
2,note_on,51,31,0
2,note_on,47,26,0
2,note_on,47,0,120
2,note_on,51,0,0
2,note_on,57,27,0
2,note_on,57,0,120
2,note_on,51,31,0
2,note_on,47,26,0
2,note_on,47,0,120
2,note_on,51,0,0
2,note_on,57,29,0
2,note_on,57,0,120
2,note_on,51,31,0
2,note_on,47,26,0
2,note_on,47,0,120
2,note_on,51,0,0
2,note_on,57,27,0
2,note_on,57,0,120
2,note_on,51,31,0
2,note_on,47,26,0
2,note_on,47,0,120
2,note_on,51,0,0
2,note_on,57,28,0
2,note_on,57,0,120
2,note_on,52,31,0
2,note_on,56,31,0
2,note_on,56,0,120
2,note_on,52,0,0
2,note_on,52,31,0
2,note_on,52,0,120
2,note_on,51,31,0
2,note_on,51,0,120
2,note_on,49,31,0
2,note_on,49,0,120
2,note_on,47,31,0
2,note_on,47,0,120
2,note_on,45,30,0
2,note_on,45,0,120
2,note_on,44,25,0
2,note_on,44,0,120
2,note_on,42,25,0
2,note_on,42,0,120
2,note_on,40,25,0
2,note_on,40,0,240
2,note_on,35,25,720
2,note_on,35,0,240
2,note_on,37,25,720
2,note_on,37,0,240
2,note_on,39,23,240
2,note_on,39,0,240
2,note_on,35,22,0
2,note_on,35,0,240
2,note_on,40,28,0
2,note_on,40,0,240
2,note_on,64,28,0
2,note_on,64,0,120
2,note_on,59,22,0
2,note_on,59,0,120
2,note_on,64,28,0
2,note_on,64,0,120
2,note_on,59,24,0
2,note_on,59,0,120
2,note_on,64,28,0
2,note_on,64,0,120
2,note_on,59,25,0
2,note_on,59,0,120
2,note_on,64,30,0
2,note_on,64,0,120
2,note_on,59,29,0
2,note_on,59,0,120
2,note_on,64,32,0
2,note_on,64,0,120
2,note_on,59,31,0
2,note_on,59,0,120
2,note_on,68,35,0
2,note_on,68,0,120
2,note_on,59,32,0
2,note_on,59,0,120
2,note_on,66,39,0
2,note_on,66,0,120
2,note_on,59,36,0
2,note_on,59,0,120
2,note_on,64,45,0
2,note_on,64,0,120
2,note_on,59,37,0
2,note_on,59,0,120
2,note_on,63,43,0
2,note_on,63,0,120
2,note_on,59,37,0
2,note_on,59,0,120
2,note_on,63,46,0
2,note_on,63,0,120
2,note_on,59,39,0
2,note_on,59,0,120
2,note_on,65,49,0
2,note_on,65,0,120
2,note_on,59,44,0
2,note_on,59,0,120
2,note_on,66,58,0
2,note_on,66,0,120
2,note_on,59,48,0
2,note_on,59,0,120
2,note_on,69,53,0
2,note_on,69,0,120
2,note_on,59,47,0
2,note_on,59,0,120
2,note_on,68,57,0
2,note_on,68,0,120
2,note_on,59,44,0
2,note_on,59,0,120
2,note_on,66,54,0
2,note_on,66,0,120
2,note_on,59,46,0
2,note_on,59,0,120
2,note_on,64,59,0
2,note_on,64,0,120
2,note_on,59,49,0
2,note_on,59,0,120
2,note_on,56,58,0
2,note_on,56,0,120
2,note_on,59,50,0
2,note_on,59,0,120
2,note_on,52,45,0
2,note_on,52,0,120
2,note_on,59,31,0
2,note_on,59,0,120
2,note_on,47,31,0
2,note_on,47,0,120
2,note_on,59,31,0
2,note_on,59,0,120
2,note_on,54,40,0
2,note_on,54,0,120
2,note_on,59,33,0
2,note_on,59,0,120
2,note_on,57,33,0
2,note_on,57,0,120
2,note_on,59,33,0
2,note_on,59,0,120
2,note_on,56,37,0
2,note_on,56,0,120
2,note_on,59,33,0
2,note_on,59,0,120
2,note_on,54,33,0
2,note_on,54,0,120
2,note_on,59,33,0
2,note_on,59,0,120
2,note_on,52,40,0
2,note_on,52,0,120
2,note_on,59,35,0
2,note_on,59,0,120
2,note_on,64,28,0
2,note_on,64,0,120
2,note_on,59,28,0
2,note_on,59,0,120
2,note_on,64,31,0
2,note_on,64,0,120
2,note_on,59,28,0
2,note_on,59,0,120
2,note_on,64,40,0
2,note_on,64,0,120
2,note_on,59,49,0
2,note_on,59,0,120
2,note_on,66,47,0
2,note_on,66,0,120
2,note_on,59,48,0
2,note_on,59,0,120
2,note_on,69,45,0
2,note_on,69,0,120
2,note_on,59,49,0
2,note_on,59,0,120
2,note_on,67,55,0
2,note_on,67,0,120
2,note_on,59,52,0
2,note_on,59,0,120
2,note_on,66,71,0
2,note_on,66,0,120
2,note_on,59,65,0
2,note_on,59,0,120
2,note_on,64,80,0
2,note_on,64,0,120
2,note_on,59,65,0
2,note_on,59,0,120
2,note_on,55,68,0
2,note_on,55,0,120
2,note_on,59,57,0
2,note_on,59,0,120
2,note_on,52,44,0
2,note_on,52,0,120
2,note_on,59,44,0
2,note_on,59,0,120
2,note_on,47,38,0
2,note_on,47,0,120
2,note_on,59,38,0
2,note_on,59,0,120
2,note_on,54,35,0
2,note_on,54,0,120
2,note_on,59,36,0
2,note_on,59,0,120
2,note_on,57,36,0
2,note_on,57,0,120
2,note_on,59,37,0
2,note_on,59,0,120
2,note_on,55,39,0
2,note_on,55,0,120
2,note_on,59,39,0
2,note_on,59,0,120
2,note_on,54,40,0
2,note_on,54,0,120
2,note_on,59,42,0
2,note_on,59,0,120
2,note_on,52,43,0
2,note_on,52,0,120
2,note_on,64,41,0
2,note_on,64,0,120
2,note_on,50,44,0
2,note_on,50,0,120
2,note_on,62,42,0
2,note_on,62,0,120
2,note_on,48,49,0
2,note_on,48,0,120
2,note_on,60,45,0
2,note_on,60,0,120
2,note_on,47,51,0
2,note_on,47,0,120
2,note_on,59,47,0
2,note_on,59,0,120
2,note_on,45,52,0
2,note_on,45,0,120
2,note_on,57,51,0
2,note_on,57,0,120
2,note_on,43,57,0
2,note_on,43,0,120
2,note_on,55,53,0
2,note_on,55,0,120
2,note_on,41,57,0
2,note_on,41,0,120
2,note_on,53,55,0
2,note_on,53,0,120
2,note_on,40,63,0
2,note_on,40,0,120
2,note_on,52,59,0
2,note_on,52,0,120
2,note_on,38,69,0
2,note_on,38,0,120
2,note_on,50,67,0
2,note_on,50,0,120
2,note_on,36,74,0
2,note_on,36,0,120
2,note_on,48,77,0
2,note_on,48,0,120
2,note_on,35,81,0
2,note_on,35,0,120
2,note_on,47,76,0
2,note_on,47,0,120
2,note_on,33,83,0
2,note_on,33,0,120
2,note_on,45,80,0
2,note_on,45,0,120
2,note_on,31,86,0
2,note_on,31,0,120
2,note_on,43,80,0
2,note_on,43,0,120
2,note_on,35,86,0
2,note_on,35,0,120
2,note_on,47,80,0
2,note_on,47,0,120
2,note_on,38,86,0
2,note_on,38,0,120
2,note_on,50,81,0
2,note_on,50,0,120
2,note_on,42,87,0
2,note_on,42,0,120
2,note_on,54,81,0
2,note_on,54,0,120
2,note_on,43,86,0
2,note_on,43,0,120
2,note_on,55,76,0
2,note_on,55,0,120
2,note_on,47,81,0
2,note_on,47,0,120
2,note_on,59,73,0
2,note_on,59,0,120
2,note_on,50,77,0
2,note_on,50,0,120
2,note_on,62,76,0
2,note_on,62,0,120
2,note_on,54,73,0
2,note_on,54,0,120
2,note_on,66,73,0
2,note_on,66,0,120
2,note_on,55,81,0
2,note_on,55,0,120
2,note_on,67,53,0
2,note_on,67,0,120
2,note_on,57,50,0
2,note_on,57,0,120
2,note_on,69,49,0
2,note_on,69,0,120
2,note_on,59,49,0
2,note_on,59,0,120
2,note_on,71,48,0
2,note_on,71,0,120
2,note_on,60,46,0
2,note_on,60,0,120
2,note_on,72,42,0
2,note_on,72,0,120
2,note_on,65,42,0
2,note_on,65,0,120
2,note_on,72,35,0
2,note_on,72,0,120
2,note_on,66,39,0
2,note_on,66,0,120
2,note_on,72,34,0
2,note_on,72,0,120
2,note_on,67,39,0
2,note_on,67,0,120
2,note_on,72,35,0
2,note_on,72,0,120
2,note_on,55,40,0
2,note_on,55,0,120
2,note_on,48,32,120
2,note_on,48,0,160
2,note_on,55,27,0
2,note_on,55,0,160
2,note_on,52,27,0
2,note_on,52,0,160
2,note_on,48,32,0
2,note_on,48,0,160
2,note_on,60,27,0
2,note_on,60,0,160
2,note_on,55,27,0
2,note_on,55,0,160
2,note_on,50,32,0
2,note_on,50,0,160
2,note_on,59,27,0
2,note_on,59,0,160
2,note_on,55,27,0
2,note_on,55,0,160
2,note_on,52,33,0
2,note_on,52,0,160
2,note_on,60,27,0
2,note_on,60,0,160
2,note_on,55,29,0
2,note_on,55,0,160
2,note_on,53,32,0
2,note_on,53,0,160
2,note_on,62,29,0
2,note_on,62,0,160
2,note_on,57,29,0
2,note_on,57,0,160
2,note_on,54,34,0
2,note_on,54,0,160
2,note_on,63,31,0
2,note_on,63,0,160
2,note_on,60,30,0
2,note_on,60,0,160
2,note_on,55,37,0
2,note_on,55,0,160
2,note_on,64,32,0
2,note_on,64,0,160
2,note_on,60,32,0
2,note_on,60,0,160
2,note_on,53,39,0
2,note_on,53,0,160
2,note_on,65,33,0
2,note_on,65,0,160
2,note_on,62,33,0
2,note_on,59,33,0
2,note_on,59,0,160
2,note_on,62,0,0
2,note_on,60,39,0
2,note_on,60,0,120
2,note_on,55,32,0
2,note_on,55,0,120
2,note_on,51,32,0
2,note_on,51,0,120
2,note_on,55,30,0
2,note_on,55,0,120
2,note_on,48,38,0
2,note_on,48,0,120
2,note_on,60,33,0
2,note_on,60,0,120
2,note_on,55,34,0
2,note_on,55,0,120
2,note_on,48,32,0
2,note_on,48,0,120
2,note_on,50,45,0
2,note_on,50,0,120
2,note_on,59,36,0
2,note_on,59,0,120
2,note_on,55,36,0
2,note_on,55,0,120
2,note_on,50,33,0
2,note_on,50,0,120
2,note_on,51,43,0
2,note_on,51,0,120
2,note_on,60,39,0
2,note_on,60,0,120
2,note_on,55,39,0
2,note_on,55,0,120
2,note_on,51,37,0
2,note_on,51,0,120
2,note_on,53,56,0
2,note_on,53,0,120
2,note_on,62,42,0
2,note_on,62,0,120
2,note_on,56,42,0
2,note_on,56,0,120
2,note_on,53,39,0
2,note_on,53,0,120
2,note_on,54,57,0
2,note_on,54,0,120
2,note_on,63,44,0
2,note_on,63,0,120
2,note_on,60,45,0
2,note_on,60,0,120
2,note_on,54,43,0
2,note_on,54,0,110
2,note_on,55,62,10
2,note_on,55,0,120
2,note_on,63,47,0
2,note_on,63,0,120
2,note_on,60,48,0
2,note_on,60,0,120
2,note_on,55,47,0
2,note_on,55,0,120
2,note_on,56,58,0
2,note_on,56,0,120
2,note_on,63,52,0
2,note_on,63,0,120
2,note_on,60,57,0
2,note_on,60,0,120
2,note_on,63,58,0
2,note_on,63,0,120
2,note_on,61,32,0
2,note_on,49,32,0
2,note_on,49,0,160
2,note_on,61,0,0
2,note_on,56,27,0
2,note_on,56,0,160
2,note_on,52,27,0
2,note_on,52,0,160
2,note_on,49,32,0
2,note_on,49,0,160
2,note_on,61,27,0
2,note_on,61,0,160
2,note_on,56,27,0
2,note_on,56,0,160
2,note_on,51,32,0
2,note_on,51,0,160
2,note_on,60,27,0
2,note_on,60,0,160
2,note_on,56,27,0
2,note_on,56,0,160
2,note_on,52,33,0
2,note_on,52,0,160
2,note_on,61,27,0
2,note_on,61,0,160
2,note_on,56,29,0
2,note_on,56,0,160
2,note_on,54,32,0
2,note_on,54,0,160
2,note_on,63,29,0
2,note_on,63,0,160
2,note_on,57,29,0
2,note_on,57,0,160
2,note_on,55,34,0
2,note_on,55,0,160
2,note_on,64,31,0
2,note_on,64,0,160
2,note_on,61,30,0
2,note_on,61,0,160
2,note_on,56,37,0
2,note_on,56,0,160
2,note_on,64,32,0
2,note_on,64,0,160
2,note_on,61,32,0
2,note_on,61,0,160
2,note_on,56,39,0
2,note_on,56,0,120
2,note_on,63,32,0
2,note_on,63,0,120
2,note_on,60,34,0
2,note_on,60,0,120
2,note_on,63,32,0
2,note_on,63,0,120
2,note_on,49,36,0
2,note_on,61,39,0
2,note_on,61,0,120
2,note_on,49,0,0
2,note_on,56,32,0
2,note_on,56,0,120
2,note_on,53,32,0
2,note_on,53,0,120
2,note_on,56,30,0
2,note_on,56,0,120
2,note_on,49,38,0
2,note_on,49,0,120
2,note_on,61,33,0
2,note_on,61,0,120
2,note_on,56,34,0
2,note_on,56,0,120
2,note_on,49,32,0
2,note_on,49,0,120
2,note_on,51,45,0
2,note_on,51,0,120
2,note_on,60,36,0
2,note_on,60,0,120
2,note_on,56,36,0
2,note_on,56,0,120
2,note_on,51,33,0
2,note_on,51,0,120
2,note_on,53,43,0
2,note_on,53,0,120
2,note_on,61,39,0
2,note_on,61,0,120
2,note_on,56,39,0
2,note_on,56,0,120
2,note_on,53,37,0
2,note_on,53,0,120
2,note_on,54,56,0
2,note_on,54,0,120
2,note_on,61,42,0
2,note_on,61,0,120
2,note_on,57,42,0
2,note_on,57,0,120
2,note_on,54,39,0
2,note_on,54,0,110
2,note_on,54,57,10
2,note_on,54,0,120
2,note_on,61,44,0
2,note_on,61,0,120
2,note_on,57,45,0
2,note_on,57,0,120
2,note_on,54,43,0
2,note_on,54,0,110
2,note_on,54,62,10
2,note_on,54,0,120
2,note_on,61,47,0
2,note_on,61,0,120
2,note_on,57,48,0
2,note_on,57,0,120
2,note_on,54,47,0
2,note_on,54,0,120
2,note_on,52,58,0
2,note_on,52,0,120
2,note_on,61,52,0
2,note_on,61,0,120
2,note_on,57,57,0
2,note_on,57,0,120
2,note_on,52,57,0
2,note_on,52,0,120
2,note_on,51,77,0
2,note_on,59,77,0
2,note_on,59,0,240
2,note_on,51,0,0
2,note_on,57,69,0
2,note_on,57,0,120
2,note_on,60,57,0
2,note_on,60,0,120
2,note_on,59,41,0
2,note_on,59,0,120
2,note_on,58,37,0
2,note_on,58,0,120
2,note_on,59,41,0
2,note_on,59,0,120
2,note_on,54,35,0
2,note_on,54,0,120
2,note_on,51,41,0
2,note_on,51,0,120
2,note_on,49,37,0
2,note_on,49,0,120
2,note_on,51,41,0
2,note_on,51,0,120
2,note_on,47,40,0
2,note_on,47,0,120
2,note_on,51,49,0
2,note_on,51,0,60
2,note_on,54,41,180
2,note_on,54,0,60
2,note_on,57,69,420
2,note_on,57,0,120
2,note_on,60,57,0
2,note_on,60,0,120
2,note_on,59,41,0
2,note_on,59,0,120
2,note_on,58,37,0
2,note_on,58,0,120
2,note_on,59,41,0
2,note_on,59,0,120
2,note_on,54,35,0
2,note_on,54,0,120
2,note_on,51,41,0
2,note_on,51,0,120
2,note_on,49,37,0
2,note_on,49,0,120
2,note_on,51,41,0
2,note_on,51,0,120
2,note_on,47,40,0
2,note_on,47,0,120
2,note_on,51,49,0
2,note_on,51,0,60
2,note_on,54,41,180
2,note_on,54,0,60
2,note_on,57,69,420
2,note_on,57,0,120
2,note_on,60,57,0
2,note_on,60,0,120
2,note_on,59,41,0
2,note_on,59,0,120
2,note_on,58,37,0
2,note_on,58,0,120
2,note_on,59,41,0
2,note_on,59,0,120
2,note_on,54,35,0
2,note_on,54,0,120
2,note_on,51,41,0
2,note_on,51,0,120
2,note_on,49,37,0
2,note_on,49,0,120
2,note_on,51,41,0
2,note_on,51,0,120
2,note_on,47,40,0
2,note_on,47,0,120
2,note_on,51,49,0
2,note_on,51,0,120
2,note_on,49,47,0
2,note_on,49,0,120
2,note_on,51,49,0
2,note_on,51,0,120
2,note_on,54,50,0
2,note_on,54,0,120
2,note_on,57,58,0
2,note_on,57,0,120
2,note_on,51,26,120
2,note_on,51,0,240
2,note_on,54,30,0
2,note_on,54,0,240
2,note_on,59,29,0
2,note_on,59,0,240
2,note_on,57,58,0
2,note_on,57,0,120
2,note_on,51,26,120
2,note_on,51,0,240
2,note_on,54,30,0
2,note_on,54,0,240
2,note_on,59,29,0
2,note_on,59,0,240
2,note_on,57,58,0
2,note_on,57,0,120
2,note_on,51,26,120
2,note_on,51,0,240
2,note_on,54,30,0
2,note_on,54,0,240
2,note_on,59,29,0
2,note_on,59,0,360
2,note_on,57,27,0
2,note_on,57,0,120
2,note_on,59,30,0
2,note_on,59,0,120
2,note_on,57,26,0
2,note_on,57,0,120
2,note_on,56,30,0
2,note_on,56,0,120
2,note_on,57,25,0
2,note_on,57,0,120
2,note_on,56,30,0
2,note_on,56,0,120
2,note_on,54,26,0
2,note_on,54,0,120
2,note_on,40,25,0
2,note_on,52,30,0
2,note_on,52,0,240
2,note_on,40,0,0
2,note_on,35,25,720
2,note_on,47,30,0
2,note_on,47,0,240
2,note_on,35,0,0
2,note_on,37,25,720
2,note_on,49,30,0
2,note_on,49,0,240
2,note_on,37,0,0
2,note_on,51,28,240
2,note_on,39,23,0
2,note_on,39,0,240
2,note_on,51,0,0
2,note_on,47,26,0
2,note_on,35,22,0
2,note_on,35,0,240
2,note_on,47,0,0
2,note_on,40,28,0
2,note_on,52,28,0
2,note_on,52,0,120
2,note_on,40,0,0
2,note_on,56,25,0
2,note_on,56,0,120
2,note_on,59,28,0
2,note_on,59,0,120
2,note_on,57,26,0
2,note_on,57,0,120
2,note_on,56,28,0
2,note_on,56,0,120
2,note_on,57,25,0
2,note_on,57,0,120
2,note_on,56,30,0
2,note_on,56,0,120
2,note_on,54,27,0
2,note_on,54,0,120
2,note_on,52,37,0
2,note_on,52,0,120
2,note_on,59,28,0
2,note_on,59,0,120
2,note_on,47,34,0
2,note_on,47,0,120
2,note_on,59,28,0
2,note_on,59,0,120
2,note_on,52,33,0
2,note_on,52,0,120
2,note_on,59,29,0
2,note_on,59,0,120
2,note_on,47,30,0
2,note_on,47,0,120
2,note_on,59,29,0
2,note_on,59,0,120
2,note_on,51,37,0
2,note_on,51,0,120
2,note_on,59,28,0
2,note_on,59,0,120
2,note_on,47,29,0
2,note_on,47,0,120
2,note_on,59,27,0
2,note_on,59,0,90
2,note_on,51,29,30
2,note_on,51,0,120
2,note_on,59,28,0
2,note_on,59,0,120
2,note_on,53,31,0
2,note_on,53,0,120
2,note_on,59,33,0
2,note_on,59,0,120
2,note_on,54,36,0
2,note_on,54,0,120
2,note_on,59,35,0
2,note_on,59,0,120
2,note_on,57,41,0
2,note_on,57,0,120
2,note_on,59,36,0
2,note_on,59,0,120
2,note_on,56,37,0
2,note_on,56,0,120
2,note_on,59,31,0
2,note_on,59,0,120
2,note_on,47,25,0
2,note_on,54,25,0
2,note_on,54,0,120
2,note_on,47,0,0
2,note_on,57,27,0
2,note_on,57,0,120
2,note_on,52,31,0
2,note_on,56,31,0
2,note_on,56,0,120
2,note_on,52,0,0
2,note_on,59,23,0
2,note_on,59,0,120
2,note_on,56,31,0
2,note_on,56,0,120
2,note_on,52,25,0
2,note_on,52,0,120
2,note_on,51,31,0
2,note_on,51,0,120
2,note_on,59,27,0
2,note_on,59,0,120
2,note_on,54,31,0
2,note_on,54,0,120
2,note_on,51,32,0
2,note_on,51,0,120
2,note_on,49,38,0
2,note_on,49,0,120
2,note_on,58,29,0
2,note_on,58,0,120
2,note_on,54,31,0
2,note_on,54,0,120
2,note_on,49,27,0
2,note_on,49,0,120
2,note_on,42,31,0
2,note_on,42,0,120
2,note_on,58,26,0
2,note_on,58,0,120
2,note_on,54,29,0
2,note_on,54,0,120
2,note_on,49,27,0
2,note_on,49,0,120
2,note_on,47,31,0
2,note_on,47,0,120
2,note_on,59,25,0
2,note_on,59,0,120
2,note_on,54,30,0
2,note_on,54,0,120
2,note_on,51,27,0
2,note_on,51,0,120
2,note_on,47,37,0
2,note_on,47,0,120
2,note_on,59,30,0
2,note_on,59,0,120
2,note_on,49,37,0
2,note_on,49,0,120
2,note_on,57,33,0
2,note_on,57,0,120
2,note_on,47,31,0
2,note_on,47,0,120
2,note_on,56,36,0
2,note_on,56,0,120
2,note_on,52,39,0
2,note_on,52,0,120
2,note_on,47,45,0
2,note_on,47,0,120
2,note_on,40,47,0
2,note_on,40,0,120
2,note_on,56,32,0
2,note_on,56,0,120
2,note_on,52,36,0
2,note_on,52,0,120
2,note_on,47,29,0
2,note_on,47,0,120
2,note_on,45,35,0
2,note_on,45,0,120
2,note_on,57,27,0
2,note_on,57,0,120
2,note_on,52,31,0
2,note_on,52,0,120
2,note_on,49,27,0
2,note_on,49,0,120
2,note_on,45,31,0
2,note_on,45,0,120
2,note_on,52,29,0
2,note_on,52,0,120
2,note_on,45,34,0
2,note_on,45,0,120
2,note_on,52,38,0
2,note_on,52,0,120
2,note_on,45,39,0
2,note_on,45,0,120
2,note_on,52,35,0
2,note_on,52,0,120
2,note_on,45,38,0
2,note_on,45,0,120
2,note_on,52,35,0
2,note_on,52,0,120
2,note_on,45,44,0
2,note_on,45,0,120
2,note_on,52,36,0
2,note_on,52,0,120
2,note_on,47,44,0
2,note_on,47,0,120
2,note_on,52,37,0
2,note_on,52,0,120
2,note_on,49,55,0
2,note_on,49,0,120
2,note_on,52,48,0
2,note_on,52,0,120
2,note_on,49,54,0
2,note_on,49,0,120
2,note_on,52,43,0
2,note_on,52,0,120
2,note_on,48,50,0
2,note_on,48,0,120
2,note_on,52,39,0
2,note_on,52,0,120
2,note_on,48,49,0
2,note_on,48,0,120
2,note_on,52,39,0
2,note_on,52,0,120
2,note_on,47,31,0
2,note_on,47,0,120
2,note_on,54,27,0
2,note_on,54,0,120
2,note_on,47,31,0
2,note_on,47,0,120
2,note_on,54,29,0
2,note_on,57,29,0
2,note_on,57,0,120
2,note_on,54,0,0
2,note_on,47,31,0
2,note_on,47,0,120
2,note_on,54,27,0
2,note_on,57,27,0
2,note_on,57,0,120
2,note_on,54,0,0
2,note_on,47,31,0
2,note_on,47,0,120
2,note_on,57,28,0
2,note_on,54,28,0
2,note_on,54,0,120
2,note_on,57,0,0
2,note_on,52,31,0
2,note_on,56,31,0
2,note_on,56,0,120
2,note_on,52,0,0
2,note_on,59,23,0
2,note_on,59,0,120
2,note_on,56,31,0
2,note_on,56,0,120
2,note_on,52,25,0
2,note_on,52,0,120
2,note_on,51,31,0
2,note_on,51,0,120
2,note_on,59,27,0
2,note_on,59,0,120
2,note_on,54,31,0
2,note_on,54,0,120
2,note_on,51,32,0
2,note_on,51,0,120
2,note_on,49,38,0
2,note_on,49,0,120
2,note_on,58,37,0
2,note_on,58,0,120
2,note_on,54,40,0
2,note_on,54,0,120
2,note_on,49,43,0
2,note_on,49,0,120
2,note_on,42,44,0
2,note_on,42,0,120
2,note_on,58,33,0
2,note_on,58,0,120
2,note_on,54,39,0
2,note_on,54,0,120
2,note_on,49,27,0
2,note_on,49,0,120
2,note_on,47,31,0
2,note_on,47,0,120
2,note_on,59,25,0
2,note_on,59,0,120
2,note_on,54,30,0
2,note_on,54,0,120
2,note_on,51,27,0
2,note_on,51,0,120
2,note_on,47,37,0
2,note_on,47,0,120
2,note_on,59,30,0
2,note_on,59,0,120
2,note_on,49,37,0
2,note_on,49,0,120
2,note_on,57,33,0
2,note_on,57,0,120
2,note_on,47,31,0
2,note_on,47,0,120
2,note_on,56,29,0
2,note_on,56,0,120
2,note_on,52,38,0
2,note_on,52,0,120
2,note_on,47,38,0
2,note_on,47,0,120
2,note_on,40,46,0
2,note_on,40,0,120
2,note_on,56,32,0
2,note_on,56,0,120
2,note_on,52,36,0
2,note_on,52,0,120
2,note_on,47,29,0
2,note_on,47,0,120
2,note_on,45,35,0
2,note_on,45,0,120
2,note_on,57,27,0
2,note_on,57,0,120
2,note_on,52,31,0
2,note_on,52,0,120
2,note_on,49,27,0
2,note_on,49,0,120
2,note_on,45,31,0
2,note_on,45,0,120
2,note_on,52,29,0
2,note_on,52,0,120
2,note_on,45,34,0
2,note_on,45,0,120
2,note_on,52,38,0
2,note_on,52,0,120
2,note_on,45,39,0
2,note_on,45,0,120
2,note_on,52,35,0
2,note_on,52,0,120
2,note_on,45,38,0
2,note_on,45,0,120
2,note_on,52,35,0
2,note_on,52,0,120
2,note_on,49,44,0
2,note_on,45,37,0
2,note_on,45,0,120
2,note_on,49,0,0
2,note_on,52,36,0
2,note_on,52,0,120
2,note_on,52,44,0
2,note_on,47,37,0
2,note_on,47,0,120
2,note_on,52,0,0
2,note_on,56,37,0
2,note_on,56,0,120
2,note_on,52,55,0
2,note_on,49,47,0
2,note_on,49,0,120
2,note_on,52,0,0
2,note_on,58,48,0
2,note_on,58,0,120
2,note_on,52,54,0
2,note_on,49,45,0
2,note_on,49,0,120
2,note_on,52,0,0
2,note_on,58,43,0
2,note_on,58,0,120
2,note_on,52,50,0
2,note_on,48,42,0
2,note_on,48,0,120
2,note_on,52,0,0
2,note_on,57,39,0
2,note_on,57,0,120
2,note_on,52,49,0
2,note_on,48,41,0
2,note_on,48,0,120
2,note_on,52,0,0
2,note_on,57,39,0
2,note_on,57,0,120
2,note_on,51,31,0
2,note_on,47,26,0
2,note_on,47,0,120
2,note_on,51,0,0
2,note_on,57,27,0
2,note_on,57,0,120
2,note_on,51,31,0
2,note_on,47,26,0
2,note_on,47,0,120
2,note_on,51,0,0
2,note_on,57,29,0
2,note_on,57,0,120
2,note_on,51,31,0
2,note_on,47,26,0
2,note_on,47,0,120
2,note_on,51,0,0
2,note_on,57,27,0
2,note_on,57,0,120
2,note_on,51,31,0
2,note_on,47,26,0
2,note_on,47,0,120
2,note_on,51,0,0
2,note_on,57,28,0
2,note_on,57,0,120
2,note_on,52,31,0
2,note_on,56,31,0
2,note_on,56,0,120
2,note_on,52,0,0
2,note_on,52,31,0
2,note_on,52,0,120
2,note_on,51,31,0
2,note_on,51,0,120
2,note_on,49,31,0
2,note_on,49,0,120
2,note_on,47,31,0
2,note_on,47,0,120
2,note_on,45,30,0
2,note_on,45,0,120
2,note_on,44,25,0
2,note_on,44,0,120
2,note_on,42,25,0
2,note_on,42,0,120
2,note_on,40,25,0
2,note_on,40,0,240
2,note_on,35,25,720
2,note_on,35,0,240
2,note_on,37,25,720
2,note_on,37,0,240
2,note_on,39,23,240
2,note_on,39,0,240
2,note_on,35,22,0
2,note_on,35,0,240
2,note_on,40,28,0
2,note_on,40,0,240
2,note_on,64,28,0
2,note_on,64,0,120
2,note_on,59,22,0
2,note_on,59,0,120
2,note_on,64,28,0
2,note_on,64,0,120
2,note_on,59,24,0
2,note_on,59,0,120
2,note_on,64,28,0
2,note_on,64,0,120
2,note_on,59,25,0
2,note_on,59,0,120
2,note_on,64,30,0
2,note_on,64,0,120
2,note_on,59,29,0
2,note_on,59,0,120
2,note_on,64,32,0
2,note_on,64,0,120
2,note_on,59,31,0
2,note_on,59,0,120
2,note_on,68,35,0
2,note_on,68,0,120
2,note_on,59,32,0
2,note_on,59,0,120
2,note_on,66,39,0
2,note_on,66,0,120
2,note_on,59,36,0
2,note_on,59,0,120
2,note_on,64,49,0
2,note_on,64,0,120
2,note_on,59,41,0
2,note_on,59,0,120
2,note_on,63,48,0
2,note_on,63,0,120
2,note_on,59,42,0
2,note_on,59,0,120
2,note_on,63,46,0
2,note_on,63,0,120
2,note_on,59,39,0
2,note_on,59,0,120
2,note_on,65,49,0
2,note_on,65,0,120
2,note_on,59,44,0
2,note_on,59,0,120
2,note_on,66,58,0
2,note_on,66,0,120
2,note_on,59,48,0
2,note_on,59,0,120
2,note_on,69,53,0
2,note_on,69,0,120
2,note_on,59,47,0
2,note_on,59,0,120
2,note_on,68,57,0
2,note_on,68,0,120
2,note_on,59,44,0
2,note_on,59,0,120
2,note_on,66,54,0
2,note_on,66,0,120
2,note_on,59,46,0
2,note_on,59,0,120
2,note_on,64,59,0
2,note_on,64,0,120
2,note_on,59,49,0
2,note_on,59,0,120
2,note_on,56,58,0
2,note_on,56,0,120
2,note_on,59,50,0
2,note_on,59,0,120
2,note_on,52,59,0
2,note_on,52,0,240
2,note_on,61,67,240
2,note_on,61,0,120
2,note_on,56,57,0
2,note_on,56,0,120
2,note_on,52,62,0
2,note_on,52,0,120
2,note_on,56,57,0
2,note_on,56,0,120
2,note_on,49,70,0
2,note_on,49,0,240
2,note_on,61,26,0
2,note_on,61,0,120
2,note_on,60,33,120
2,note_on,60,0,120
2,note_on,56,27,0
2,note_on,56,0,120
2,note_on,51,33,0
2,note_on,51,0,120
2,note_on,56,27,0
2,note_on,56,0,120
2,note_on,48,36,0
2,note_on,48,0,240
2,note_on,60,77,0
2,note_on,60,0,120
2,note_on,59,67,120
2,note_on,59,0,120
2,note_on,56,57,0
2,note_on,56,0,120
2,note_on,52,62,0
2,note_on,52,0,120
2,note_on,56,57,0
2,note_on,56,0,120
2,note_on,47,70,0
2,note_on,47,0,240
2,note_on,59,26,0
2,note_on,59,0,120
2,note_on,57,33,120
2,note_on,57,0,120
2,note_on,52,27,0
2,note_on,52,0,120
2,note_on,49,33,0
2,note_on,49,0,120
2,note_on,52,27,0
2,note_on,52,0,120
2,note_on,45,36,0
2,note_on,45,0,240
2,note_on,57,83,0
2,note_on,57,0,120
2,note_on,56,67,120
2,note_on,56,0,120
2,note_on,53,57,0
2,note_on,53,0,120
2,note_on,49,62,0
2,note_on,49,0,120
2,note_on,53,57,0
2,note_on,53,0,120
2,note_on,44,70,0
2,note_on,44,0,240
2,note_on,56,26,0
2,note_on,56,0,120
2,note_on,54,33,120
2,note_on,54,0,120
2,note_on,49,27,0
2,note_on,49,0,120
2,note_on,45,33,0
2,note_on,45,0,120
2,note_on,49,27,0
2,note_on,49,0,120
2,note_on,42,36,0
2,note_on,42,0,240
2,note_on,66,77,0
2,note_on,66,0,120
2,note_on,63,67,120
2,note_on,63,0,120
2,note_on,59,57,0
2,note_on,59,0,120
2,note_on,54,62,0
2,note_on,54,0,120
2,note_on,59,57,0
2,note_on,59,0,120
2,note_on,51,70,0
2,note_on,51,0,240
2,note_on,51,77,0
2,note_on,51,0,120
2,note_on,48,67,120
2,note_on,48,0,120
2,note_on,45,57,0
2,note_on,45,0,120
2,note_on,40,62,0
2,note_on,40,0,120
2,note_on,45,57,0
2,note_on,45,0,120
2,note_on,36,70,0
2,note_on,36,0,240
2,note_on,48,63,0
2,note_on,60,77,0
2,note_on,60,0,120
2,note_on,48,0,0
2,note_on,47,48,120
2,note_on,59,48,0
2,note_on,59,0,240
2,note_on,47,0,0
2,note_on,71,33,0
2,note_on,71,0,120
2,note_on,73,27,0
2,note_on,73,0,120
2,note_on,71,33,0
2,note_on,71,0,120
2,note_on,73,29,0
2,note_on,73,0,120
2,note_on,71,33,0
2,note_on,71,0,120
2,note_on,73,29,0
2,note_on,73,0,120
2,note_on,71,32,0
2,note_on,66,41,0
2,note_on,63,34,0
2,note_on,71,0,120
2,note_on,73,27,0
2,note_on,73,0,120
2,note_on,71,31,0
2,note_on,71,0,120
2,note_on,73,26,0
2,note_on,73,0,120
2,note_on,71,38,0
2,note_on,71,0,120
2,note_on,73,32,0
2,note_on,73,0,120
2,note_on,63,0,0
2,note_on,66,0,0
2,note_on,64,46,0
2,note_on,68,46,0
2,note_on,71,46,0
2,note_on,71,0,120
2,note_on,73,36,0
2,note_on,68,0,96
2,note_on,64,0,0
2,note_on,73,0,24
2,note_on,64,52,0
2,note_on,68,52,0
2,note_on,71,52,0
2,note_on,71,0,120
2,note_on,73,29,0
2,note_on,73,0,120
2,note_on,68,0,0
2,note_on,64,0,0
2,note_on,71,32,0
2,note_on,69,41,0
2,note_on,66,34,0
2,note_on,71,0,120
2,note_on,73,28,0
2,note_on,66,0,96
2,note_on,69,0,0
2,note_on,73,0,24
2,note_on,66,28,0
2,note_on,69,33,0
2,note_on,71,26,0
2,note_on,71,0,120
2,note_on,73,24,0
2,note_on,73,0,120
2,note_on,69,0,0
2,note_on,66,0,0
2,note_on,64,28,0
2,note_on,68,33,0
2,note_on,71,26,0
2,note_on,71,0,120
2,note_on,73,24,0
2,note_on,73,0,120
2,note_on,68,0,0
2,note_on,64,0,0
2,note_on,71,32,0
2,note_on,66,41,0
2,note_on,63,34,0
2,note_on,71,0,120
2,note_on,73,27,0
2,note_on,73,0,120
2,note_on,71,31,0
2,note_on,71,0,120
2,note_on,73,26,0
2,note_on,73,0,120
2,note_on,71,32,0
2,note_on,71,0,120
2,note_on,73,32,0
2,note_on,73,0,120
2,note_on,63,0,0
2,note_on,66,0,0
2,note_on,64,45,0
2,note_on,68,45,0
2,note_on,71,45,0
2,note_on,71,0,120
2,note_on,73,41,0
2,note_on,68,0,96
2,note_on,64,0,0
2,note_on,73,0,24
2,note_on,71,37,0
2,note_on,69,47,0
2,note_on,66,39,0
2,note_on,71,0,120
2,note_on,73,29,0
2,note_on,73,0,120
2,note_on,66,0,0
2,note_on,69,0,0
2,note_on,71,32,0
2,note_on,66,41,0
2,note_on,63,34,0
2,note_on,71,0,120
2,note_on,73,28,0
2,note_on,63,0,96
2,note_on,66,0,0
2,note_on,73,0,24
2,note_on,64,28,0
2,note_on,68,33,0
2,note_on,71,26,0
2,note_on,71,0,120
2,note_on,73,24,0
2,note_on,73,0,120
2,note_on,68,0,0
2,note_on,64,0,0
2,note_on,66,28,0
2,note_on,69,33,0
2,note_on,71,26,0
2,note_on,71,0,120
2,note_on,73,24,0
2,note_on,73,0,120
2,note_on,69,0,0
2,note_on,66,0,0
2,note_on,68,28,0
2,note_on,71,33,0
2,note_on,71,0,120
2,note_on,76,27,0
2,note_on,76,0,120
2,note_on,68,0,0
2,note_on,71,31,0
2,note_on,71,0,120
2,note_on,76,27,0
2,note_on,76,0,120
2,note_on,69,33,0
2,note_on,69,0,120
2,note_on,76,26,0
2,note_on,76,0,120
2,note_on,68,30,0
2,note_on,68,0,120
2,note_on,76,27,0
2,note_on,76,0,120
2,note_on,69,33,0
2,note_on,69,0,120
2,note_on,76,26,0
2,note_on,76,0,120
2,note_on,71,31,0
2,note_on,71,0,120
2,note_on,76,25,0
2,note_on,76,0,120
2,note_on,73,33,0
2,note_on,73,0,120
2,note_on,76,25,0
2,note_on,76,0,120
2,note_on,70,30,0
2,note_on,70,0,120
2,note_on,76,27,0
2,note_on,76,0,120
2,note_on,71,33,0
2,note_on,73,27,120
2,note_on,73,0,120
2,note_on,75,32,0
2,note_on,75,0,120
2,note_on,76,26,0
2,note_on,76,0,120
2,note_on,75,31,0
2,note_on,75,0,120
2,note_on,76,27,0
2,note_on,76,0,120
2,note_on,78,29,0
2,note_on,78,0,120
2,note_on,80,27,0
2,note_on,80,0,120
2,note_on,71,0,0
2,note_on,75,33,0
2,note_on,71,33,0
2,note_on,71,0,240
2,note_on,75,0,0
2,note_on,61,33,0
2,note_on,61,0,120
2,note_on,59,30,0
2,note_on,59,0,120
2,note_on,61,33,0
2,note_on,61,0,120
2,note_on,59,29,0
2,note_on,59,0,120
2,note_on,61,33,0
2,note_on,61,0,120
2,note_on,59,33,0
2,note_on,59,0,120
2,note_on,61,32,0
2,note_on,54,41,0
2,note_on,51,34,0
2,note_on,61,0,120
2,note_on,59,27,0
2,note_on,59,0,120
2,note_on,61,31,0
2,note_on,61,0,120
2,note_on,59,26,0
2,note_on,59,0,120
2,note_on,61,32,0
2,note_on,61,0,120
2,note_on,59,32,0
2,note_on,59,0,120
2,note_on,51,0,0
2,note_on,54,0,0
2,note_on,61,33,0
2,note_on,56,42,0
2,note_on,52,35,0
2,note_on,61,0,120
2,note_on,59,36,0
2,note_on,52,0,96
2,note_on,56,0,0
2,note_on,59,0,24
2,note_on,61,37,0
2,note_on,56,47,0
2,note_on,52,39,0
2,note_on,61,0,120
2,note_on,59,29,0
2,note_on,59,0,120
2,note_on,52,0,0
2,note_on,56,0,0
2,note_on,61,32,0
2,note_on,57,41,0
2,note_on,54,34,0
2,note_on,61,0,120
2,note_on,59,28,0
2,note_on,54,0,96
2,note_on,57,0,0
2,note_on,59,0,24
2,note_on,54,28,0
2,note_on,57,33,0
2,note_on,61,26,0
2,note_on,61,0,120
2,note_on,59,24,0
2,note_on,59,0,120
2,note_on,57,0,0
2,note_on,54,0,0
2,note_on,52,28,0
2,note_on,56,33,0
2,note_on,61,26,0
2,note_on,61,0,120
2,note_on,59,24,0
2,note_on,59,0,120
2,note_on,56,0,0
2,note_on,52,0,0
2,note_on,61,32,0
2,note_on,54,41,0
2,note_on,51,34,0
2,note_on,61,0,120
2,note_on,59,27,0
2,note_on,59,0,120
2,note_on,61,31,0
2,note_on,61,0,120
2,note_on,59,26,0
2,note_on,59,0,120
2,note_on,61,32,0
2,note_on,61,0,120
2,note_on,59,32,0
2,note_on,59,0,120
2,note_on,51,0,0
2,note_on,54,0,0
2,note_on,61,33,0
2,note_on,56,42,0
2,note_on,52,35,0
2,note_on,61,0,120
2,note_on,59,36,0
2,note_on,52,0,96
2,note_on,56,0,0
2,note_on,59,0,24
2,note_on,57,32,0
2,note_on,54,39,0
2,note_on,57,0,120
2,note_on,59,29,0
2,note_on,59,0,120
2,note_on,54,0,0
2,note_on,51,41,0
2,note_on,47,34,0
2,note_on,47,0,108
2,note_on,51,0,0
2,note_on,59,28,12
2,note_on,59,0,120
2,note_on,49,28,0
2,note_on,52,33,0
2,note_on,52,0,120
2,note_on,49,0,0
2,note_on,59,24,0
2,note_on,59,0,120
2,note_on,51,28,0
2,note_on,54,33,0
2,note_on,54,0,120
2,note_on,51,0,0
2,note_on,59,24,0
2,note_on,59,0,120
2,note_on,56,32,0
2,note_on,52,39,0
2,note_on,52,0,120
2,note_on,56,0,0
2,note_on,59,28,0
2,note_on,59,0,120
2,note_on,52,40,0
2,note_on,49,33,0
2,note_on,49,0,108
2,note_on,52,0,0
2,note_on,59,27,12
2,note_on,59,0,120
2,note_on,51,26,0
2,note_on,54,31,0
2,note_on,54,0,120
2,note_on,51,0,0
2,note_on,59,22,0
2,note_on,59,0,120
2,note_on,52,26,0
2,note_on,56,31,0
2,note_on,56,0,120
2,note_on,52,0,0
2,note_on,59,22,0
2,note_on,59,0,120
2,note_on,57,29,0
2,note_on,54,35,0
2,note_on,54,0,120
2,note_on,57,0,0
2,note_on,59,26,0
2,note_on,59,0,120
2,note_on,54,36,0
2,note_on,51,30,0
2,note_on,51,0,108
2,note_on,54,0,0
2,note_on,59,24,12
2,note_on,59,0,120
2,note_on,52,24,0
2,note_on,56,29,0
2,note_on,56,0,120
2,note_on,52,0,0
2,note_on,59,20,0
2,note_on,59,0,120
2,note_on,54,24,0
2,note_on,57,28,0
2,note_on,57,0,120
2,note_on,54,0,0
2,note_on,63,20,0
2,note_on,63,0,120
2,note_on,56,26,0
2,note_on,56,0,120
2,note_on,59,24,0
2,note_on,59,0,120
2,note_on,56,33,0
2,note_on,56,0,108
2,note_on,59,22,12
2,note_on,59,0,120
2,note_on,56,26,0
2,note_on,56,0,120
2,note_on,59,18,0
2,note_on,59,0,120
2,note_on,56,25,0
2,note_on,56,0,120
2,note_on,59,18,0
2,note_on,59,0,120
2,note_on,56,24,0
2,note_on,59,24,0
2,note_on,59,0,240
2,note_on,56,0,0
2,note_on,61,27,360
2,note_on,61,0,120
2,note_on,63,29,0
2,note_on,63,0,120
2,note_on,65,27,0
2,note_on,65,0,120
2,note_on,66,33,0
2,note_on,66,0,120
2,note_on,61,28,0
2,note_on,61,0,120
2,note_on,63,29,0
2,note_on,63,0,120
2,note_on,65,27,0
2,note_on,65,0,90
2,note_on,68,27,0
2,note_on,68,0,30
2,note_on,66,34,0
2,note_on,66,0,120
2,note_on,65,28,0
2,note_on,65,0,120
2,note_on,66,29,0
2,note_on,66,0,120
2,note_on,68,27,0
2,note_on,68,0,120
2,note_on,69,35,0
2,note_on,69,0,120
2,note_on,68,29,0
2,note_on,68,0,120
2,note_on,69,29,0
2,note_on,69,0,120
2,note_on,71,28,0
2,note_on,71,0,120
2,note_on,73,34,0
2,note_on,73,0,120
2,note_on,71,29,0
2,note_on,71,0,120
2,note_on,69,29,0
2,note_on,69,0,120
2,note_on,70,28,0
2,note_on,70,0,120
2,note_on,71,34,0
2,note_on,71,0,240
2,note_on,59,34,240
2,note_on,59,0,240
2,note_on,52,32,240
2,note_on,52,0,160
2,note_on,59,27,0
2,note_on,59,0,160
2,note_on,56,27,0
2,note_on,56,0,160
2,note_on,52,32,0
2,note_on,52,0,160
2,note_on,64,27,0
2,note_on,64,0,160
2,note_on,59,27,0
2,note_on,59,0,160
2,note_on,54,32,0
2,note_on,54,0,160
2,note_on,63,27,0
2,note_on,63,0,160
2,note_on,59,27,0
2,note_on,59,0,160
2,note_on,56,33,0
2,note_on,56,0,160
2,note_on,64,27,0
2,note_on,64,0,160
2,note_on,59,29,0
2,note_on,59,0,160
2,note_on,57,32,0
2,note_on,57,0,160
2,note_on,66,29,0
2,note_on,66,0,160
2,note_on,61,29,0
2,note_on,61,0,160
2,note_on,58,34,0
2,note_on,58,0,160
2,note_on,68,31,0
2,note_on,68,0,160
2,note_on,64,30,0
2,note_on,64,0,160
2,note_on,59,37,0
2,note_on,59,0,160
2,note_on,68,32,0
2,note_on,68,0,160
2,note_on,64,32,0
2,note_on,64,0,160
2,note_on,57,42,0
2,note_on,57,0,160
2,note_on,66,36,0
2,note_on,66,0,160
2,note_on,63,36,0
2,note_on,63,0,160
2,note_on,56,43,0
2,note_on,56,0,120
2,note_on,64,36,0
2,note_on,64,0,120
2,note_on,59,36,0
2,note_on,59,0,120
2,note_on,56,34,0
2,note_on,56,0,120
2,note_on,52,42,0
2,note_on,52,0,120
2,note_on,59,37,0
2,note_on,59,0,120
2,note_on,56,38,0
2,note_on,56,0,120
2,note_on,52,35,0
2,note_on,52,0,120
2,note_on,54,50,0
2,note_on,54,0,120
2,note_on,62,40,0
2,note_on,62,0,120
2,note_on,57,40,0
2,note_on,57,0,120
2,note_on,54,36,0
2,note_on,54,0,120
2,note_on,56,48,0
2,note_on,56,0,120
2,note_on,64,43,0
2,note_on,64,0,120
2,note_on,59,43,0
2,note_on,59,0,120
2,note_on,56,41,0
2,note_on,56,0,120
2,note_on,57,61,0
2,note_on,57,0,120
2,note_on,66,46,0
2,note_on,66,0,120
2,note_on,62,45,0
2,note_on,62,0,120
2,note_on,57,43,0
2,note_on,57,0,120
2,note_on,59,62,0
2,note_on,59,0,120
2,note_on,68,47,0
2,note_on,68,0,120
2,note_on,62,49,0
2,note_on,62,0,120
2,note_on,59,46,0
2,note_on,59,0,110
2,note_on,56,63,10
2,note_on,56,0,120
2,note_on,62,53,0
2,note_on,62,0,120
2,note_on,59,62,0
2,note_on,59,0,120
2,note_on,56,68,0
2,note_on,56,0,120
2,note_on,53,79,0
2,note_on,53,0,120
2,note_on,62,65,0
2,note_on,62,0,120
2,note_on,59,70,0
2,note_on,59,0,120
2,note_on,56,65,0
2,note_on,56,0,110
2,note_on,53,79,10
2,note_on,53,0,120
2,note_on,62,70,0
2,note_on,62,0,120
2,note_on,59,70,0
2,note_on,59,0,120
2,note_on,56,65,0
2,note_on,56,0,120
2,note_on,53,79,0
2,note_on,53,0,120
2,note_on,62,66,0
2,note_on,62,0,120
2,note_on,59,72,0
2,note_on,59,0,120
2,note_on,56,66,0
2,note_on,56,0,120
2,note_on,50,79,0
2,note_on,50,0,120
2,note_on,59,59,0
2,note_on,59,0,120
2,note_on,56,68,0
2,note_on,56,0,120
2,note_on,53,58,0
2,note_on,53,0,120
2,note_on,50,72,0
2,note_on,50,0,120
2,note_on,59,57,0
2,note_on,59,0,120
2,note_on,56,63,0
2,note_on,56,0,120
2,note_on,53,56,0
2,note_on,53,0,120
2,note_on,47,73,0
2,note_on,47,0,120
2,note_on,56,54,0
2,note_on,56,0,120
2,note_on,53,54,0
2,note_on,53,0,120
2,note_on,50,46,0
2,note_on,50,0,120
2,note_on,47,53,0
2,note_on,47,0,120
2,note_on,56,39,0
2,note_on,56,0,120
2,note_on,53,42,0
2,note_on,53,0,120
2,note_on,50,35,0
2,note_on,50,0,120
2,note_on,47,42,0
2,note_on,47,0,120
2,note_on,55,33,0
2,note_on,55,0,120
2,note_on,53,37,0
2,note_on,53,0,120
2,note_on,50,32,0
2,note_on,50,0,120
2,note_on,47,37,0
2,note_on,47,0,120
2,note_on,55,31,0
2,note_on,55,0,120
2,note_on,47,34,0
2,note_on,47,0,120
2,note_on,55,29,0
2,note_on,55,0,120
2,note_on,55,34,0
2,note_on,47,34,0
2,note_on,47,0,480
2,note_on,55,0,0
2,note_on,67,31,240
2,note_on,67,0,240
2,note_on,67,33,0
2,note_on,67,0,240
2,note_on,68,28,0
2,note_on,68,0,240
2,note_on,67,33,0
2,note_on,67,0,240
2,note_on,55,22,0
2,note_on,62,26,0
2,note_on,62,0,240
2,note_on,55,0,0
2,note_on,55,33,0
2,note_on,55,0,240
2,note_on,58,28,0
2,note_on,58,0,240
2,note_on,57,33,0
2,note_on,57,0,240
2,note_on,52,22,0
2,note_on,55,26,0
2,note_on,55,0,240
2,note_on,52,0,0
2,note_on,53,28,0
2,note_on,57,33,0
2,note_on,57,0,240
2,note_on,53,0,0
2,note_on,55,23,0
2,note_on,58,28,0
2,note_on,58,0,240
2,note_on,55,0,0
2,note_on,53,28,0
2,note_on,57,33,0
2,note_on,57,0,240
2,note_on,53,0,0
2,note_on,49,22,0
2,note_on,52,26,0
2,note_on,52,0,240
2,note_on,49,0,0
2,note_on,50,28,0
2,note_on,53,33,0
2,note_on,53,0,240
2,note_on,50,0,0
2,note_on,65,33,0
2,note_on,62,28,0
2,note_on,62,0,480
2,note_on,65,0,0
2,note_on,63,30,0
2,note_on,60,25,0
2,note_on,60,0,480
2,note_on,63,0,0
2,note_on,58,25,0
2,note_on,61,30,0
2,note_on,61,0,480
2,note_on,58,0,0
2,note_on,59,30,0
2,note_on,56,25,0
2,note_on,56,0,480
2,note_on,59,0,0
2,note_on,54,25,0
2,note_on,58,30,0
2,note_on,58,0,480
2,note_on,54,0,0
2,note_on,54,25,0
2,note_on,58,30,0
2,note_on,58,0,480
2,note_on,54,0,0
2,note_on,54,25,0
2,note_on,58,30,0
2,note_on,58,0,480
2,note_on,54,0,0
2,note_on,54,39,0
2,note_on,58,39,0
2,note_on,58,0,480
2,note_on,54,0,0
2,note_on,60,44,0
2,note_on,54,37,0
2,note_on,57,37,0
2,note_on,57,0,480
2,note_on,54,0,0
2,note_on,60,0,0
2,note_on,52,48,0
2,note_on,60,58,0
2,note_on,54,48,0
2,note_on,57,48,0
2,note_on,57,0,480
2,note_on,52,0,0
2,note_on,60,0,0
2,note_on,54,0,0
2,note_on,51,61,0
2,note_on,59,71,0
2,note_on,54,61,0
2,note_on,57,71,0
2,note_on,57,0,240
2,note_on,51,0,0
2,note_on,59,0,0
2,note_on,54,0,0
2,note_on,51,63,0
2,note_on,51,0,120
2,note_on,59,57,0
2,note_on,59,0,120
2,note_on,51,57,0
2,note_on,51,0,120
2,note_on,52,58,0
2,note_on,52,0,120
2,note_on,54,45,0
2,note_on,54,0,120
2,note_on,59,41,0
2,note_on,59,0,120
2,note_on,54,41,0
2,note_on,54,0,120
2,note_on,56,44,0
2,note_on,56,0,120
2,note_on,57,49,0
2,note_on,57,0,120
2,note_on,59,40,0
2,note_on,59,0,120
2,note_on,57,40,0
2,note_on,57,0,120
2,note_on,56,44,0
2,note_on,56,0,120
2,note_on,54,49,0
2,note_on,54,0,120
2,note_on,59,37,0
2,note_on,59,0,120
2,note_on,54,39,0
2,note_on,54,0,120
2,note_on,52,42,0
2,note_on,52,0,120
2,note_on,51,49,0
2,note_on,51,0,120
2,note_on,59,40,0
2,note_on,59,0,120
2,note_on,51,39,0
2,note_on,51,0,120
2,note_on,52,43,0
2,note_on,52,0,120
2,note_on,54,49,0
2,note_on,54,0,120
2,note_on,59,37,0
2,note_on,59,0,120
2,note_on,54,39,0
2,note_on,54,0,120
2,note_on,56,42,0
2,note_on,56,0,120
2,note_on,57,44,0
2,note_on,57,0,120
2,note_on,59,35,0
2,note_on,59,0,120
2,note_on,57,33,0
2,note_on,57,0,120
2,note_on,56,36,0
2,note_on,56,0,120
2,note_on,54,40,0
2,note_on,54,0,120
2,note_on,59,29,0
2,note_on,59,0,120
2,note_on,54,30,0
2,note_on,54,0,120
2,note_on,52,32,0
2,note_on,52,0,120
2,note_on,51,36,0
2,note_on,51,0,120
2,note_on,59,29,0
2,note_on,59,0,120
2,note_on,51,28,0
2,note_on,51,0,120
2,note_on,52,30,0
2,note_on,52,0,120
2,note_on,54,33,0
2,note_on,54,0,120
2,note_on,59,24,0
2,note_on,59,0,120
2,note_on,54,24,0
2,note_on,54,0,120
2,note_on,56,26,0
2,note_on,56,0,120
2,note_on,57,29,0
2,note_on,57,0,120
2,note_on,59,24,0
2,note_on,59,0,120
2,note_on,57,23,0
2,note_on,57,0,120
2,note_on,56,25,0
2,note_on,56,0,120
2,note_on,54,29,0
2,note_on,54,0,120
2,note_on,59,22,0
2,note_on,59,0,120
2,note_on,54,23,0
2,note_on,54,0,120
2,note_on,52,25,0
2,note_on,52,0,120
2,note_on,51,29,0
2,note_on,51,0,120
2,note_on,59,24,0
2,note_on,59,0,120
2,note_on,51,23,0
2,note_on,51,0,120
2,note_on,52,25,0
2,note_on,52,0,120
2,note_on,54,29,0
2,note_on,54,0,120
2,note_on,59,22,0
2,note_on,59,0,120
2,note_on,54,23,0
2,note_on,54,0,120
2,note_on,56,25,0
2,note_on,56,0,120
2,note_on,57,29,0
2,note_on,57,0,120
2,note_on,56,24,0
2,note_on,56,0,120
2,note_on,57,23,0
2,note_on,57,0,120
2,note_on,58,25,0
2,note_on,58,0,120
2,note_on,59,29,0
2,note_on,59,0,120
2,note_on,58,24,0
2,note_on,58,0,120
2,note_on,57,24,0
2,note_on,57,0,120
2,note_on,56,24,0
2,note_on,56,0,120
2,note_on,54,27,0
2,note_on,54,0,120
2,note_on,51,24,0
2,note_on,47,24,0
2,note_on,47,0,120
2,note_on,51,0,0
2,note_on,52,24,0
2,note_on,49,24,0
2,note_on,49,0,120
2,note_on,52,0,0
2,note_on,54,24,0
2,note_on,51,24,0
2,note_on,51,0,120
2,note_on,54,0,0
2,note_on,56,40,0
2,note_on,52,24,0
2,note_on,52,0,240
2,note_on,56,0,240
2,note_on,59,36,0
2,note_on,59,0,240
2,note_on,57,34,0
2,note_on,57,0,240
2,note_on,56,40,0
2,note_on,47,24,0
2,note_on,47,0,240
2,note_on,56,0,0
2,note_on,54,32,0
2,note_on,54,0,210
2,note_on,54,32,30
2,note_on,54,0,240
2,note_on,56,34,0
2,note_on,56,0,240
2,note_on,57,36,0
2,note_on,47,24,0
2,note_on,47,0,240
2,note_on,57,0,0
2,note_on,61,43,0
2,note_on,61,0,240
2,note_on,59,37,0
2,note_on,47,22,0
2,note_on,47,0,240
2,note_on,59,0,0
2,note_on,54,30,0
2,note_on,45,20,0
2,note_on,45,0,240
2,note_on,54,0,0
2,note_on,44,22,0
2,note_on,56,22,0
2,note_on,56,0,240
2,note_on,44,0,0
2,note_on,52,30,720
2,note_on,52,0,120
2,note_on,64,23,0
2,note_on,64,0,120
2,note_on,52,27,0
2,note_on,52,0,120
2,note_on,64,23,0
2,note_on,64,0,120
2,note_on,49,27,0
2,note_on,49,0,120
2,note_on,61,24,0
2,note_on,61,0,120
2,note_on,45,25,0
2,note_on,45,0,120
2,note_on,57,24,0
2,note_on,57,0,120
2,note_on,47,30,0
2,note_on,47,0,120
2,note_on,59,23,0
2,note_on,59,0,120
2,note_on,47,24,0
2,note_on,47,0,120
2,note_on,59,22,0
2,note_on,59,0,120
2,note_on,57,24,0
2,note_on,57,0,120
2,note_on,69,23,0
2,note_on,69,0,120
2,note_on,56,25,0
2,note_on,56,0,120
2,note_on,68,25,0
2,note_on,68,0,120
2,note_on,54,29,0
2,note_on,54,0,120
2,note_on,66,28,0
2,note_on,66,0,120
2,note_on,52,37,0
2,note_on,52,0,120
2,note_on,64,31,0
2,note_on,64,0,120
2,note_on,51,48,0
2,note_on,51,0,120
2,note_on,63,40,0
2,note_on,63,0,120
2,note_on,47,22,0
2,note_on,47,0,120
2,note_on,59,20,0
2,note_on,59,0,120
2,note_on,52,28,0
2,note_on,64,28,0
2,note_on,64,0,480
2,note_on,52,0,0
2,note_on,51,42,240
2,note_on,59,42,0
2,note_on,59,0,240
2,note_on,51,0,0
2,note_on,49,42,0
2,note_on,58,42,0
2,note_on,58,0,480
2,note_on,49,0,0
2,note_on,58,47,0
2,note_on,64,47,0
2,note_on,64,0,480
2,note_on,58,0,0
2,note_on,59,42,0
2,note_on,63,42,0
2,note_on,63,0,480
2,note_on,59,0,0
2,note_on,47,38,0
2,note_on,59,38,0
2,note_on,59,0,240
2,note_on,47,0,0
2,note_on,49,38,0
2,note_on,57,38,0
2,note_on,57,0,240
2,note_on,49,0,0
2,note_on,50,42,0
2,note_on,56,42,0
2,note_on,56,0,480
2,note_on,50,0,0
2,note_on,56,45,0
2,note_on,62,45,0
2,note_on,62,0,480
2,note_on,56,0,0
2,note_on,57,42,0
2,note_on,61,42,0
2,note_on,61,0,720
2,note_on,57,0,0
2,note_on,57,40,0
2,note_on,61,40,0
2,note_on,61,0,240
2,note_on,57,0,0
2,note_on,60,54,0
2,note_on,56,54,0
2,note_on,56,0,240
2,note_on,60,0,0
2,note_on,61,51,0
2,note_on,57,51,0
2,note_on,57,0,240
2,note_on,61,0,0
2,note_on,49,60,0
2,note_on,57,60,0
2,note_on,57,0,180
2,note_on,49,0,0
2,note_on,47,58,60
2,note_on,56,58,0
2,note_on,56,0,180
2,note_on,47,0,0
2,note_on,56,68,60
2,note_on,56,0,240
2,note_on,54,64,0
2,note_on,46,64,0
2,note_on,46,0,480
2,note_on,54,0,0
2,note_on,46,51,0
2,note_on,54,54,0
2,note_on,54,0,240
2,note_on,46,0,0
2,note_on,54,41,0
2,note_on,47,34,0
2,note_on,54,0,240
2,note_on,59,32,0
2,note_on,59,0,240
2,note_on,58,38,0
2,note_on,58,0,240
2,note_on,59,34,0
2,note_on,59,0,240
2,note_on,47,0,0
2,note_on,52,31,0
2,note_on,52,0,120
2,note_on,59,23,0
2,note_on,59,0,120
2,note_on,56,31,0
2,note_on,56,0,120
2,note_on,52,25,0
2,note_on,52,0,120
2,note_on,51,31,0
2,note_on,51,0,120
2,note_on,59,27,0
2,note_on,59,0,120
2,note_on,54,31,0
2,note_on,54,0,120
2,note_on,51,32,0
2,note_on,51,0,120
2,note_on,49,38,0
2,note_on,49,0,120
2,note_on,58,29,0
2,note_on,58,0,120
2,note_on,54,31,0
2,note_on,54,0,120
2,note_on,49,27,0
2,note_on,49,0,120
2,note_on,42,31,0
2,note_on,42,0,120
2,note_on,58,26,0
2,note_on,58,0,120
2,note_on,54,29,0
2,note_on,54,0,120
2,note_on,49,27,0
2,note_on,49,0,120
2,note_on,47,31,0
2,note_on,47,0,120
2,note_on,59,25,0
2,note_on,59,0,120
2,note_on,54,30,0
2,note_on,54,0,120
2,note_on,51,27,0
2,note_on,51,0,120
2,note_on,47,37,0
2,note_on,47,0,120
2,note_on,59,30,0
2,note_on,59,0,120
2,note_on,49,37,0
2,note_on,49,0,120
2,note_on,57,33,0
2,note_on,57,0,120
2,note_on,47,31,0
2,note_on,47,0,120
2,note_on,56,29,0
2,note_on,56,0,120
2,note_on,52,34,0
2,note_on,52,0,120
2,note_on,47,29,0
2,note_on,47,0,120
2,note_on,40,39,0
2,note_on,40,0,120
2,note_on,56,32,0
2,note_on,56,0,120
2,note_on,52,36,0
2,note_on,52,0,120
2,note_on,47,29,0
2,note_on,47,0,120
2,note_on,45,35,0
2,note_on,45,0,120
2,note_on,57,27,0
2,note_on,57,0,120
2,note_on,52,31,0
2,note_on,52,0,120
2,note_on,49,27,0
2,note_on,49,0,120
2,note_on,45,31,0
2,note_on,45,0,120
2,note_on,52,29,0
2,note_on,52,0,120
2,note_on,45,34,0
2,note_on,45,0,120
2,note_on,52,38,0
2,note_on,52,0,120
2,note_on,44,38,0
2,note_on,44,0,120
2,note_on,52,34,0
2,note_on,52,0,120
2,note_on,45,38,0
2,note_on,45,0,120
2,note_on,52,35,0
2,note_on,52,0,120
2,note_on,45,36,0
2,note_on,49,43,0
2,note_on,49,0,120
2,note_on,45,0,0
2,note_on,52,35,0
2,note_on,52,0,120
2,note_on,47,37,0
2,note_on,52,44,0
2,note_on,52,0,120
2,note_on,47,0,0
2,note_on,56,36,0
2,note_on,56,0,120
2,note_on,52,54,0
2,note_on,49,46,0
2,note_on,49,0,120
2,note_on,52,0,0
2,note_on,58,47,0
2,note_on,58,0,120
2,note_on,52,52,0
2,note_on,49,44,0
2,note_on,49,0,120
2,note_on,52,0,0
2,note_on,58,42,0
2,note_on,58,0,120
2,note_on,52,48,0
2,note_on,48,41,0
2,note_on,48,0,120
2,note_on,52,0,0
2,note_on,57,37,0
2,note_on,57,0,120
2,note_on,48,40,0
2,note_on,52,47,0
2,note_on,52,0,120
2,note_on,48,0,0
2,note_on,57,38,0
2,note_on,57,0,120
2,note_on,47,31,0
2,note_on,47,0,120
2,note_on,51,21,0
2,note_on,54,21,0
2,note_on,57,27,0
2,note_on,57,0,120
2,note_on,54,0,0
2,note_on,51,0,0
2,note_on,47,31,0
2,note_on,47,0,120
2,note_on,51,23,0
2,note_on,54,23,0
2,note_on,57,29,0
2,note_on,57,0,120
2,note_on,54,0,0
2,note_on,51,0,0
2,note_on,47,31,0
2,note_on,47,0,120
2,note_on,51,21,0
2,note_on,54,21,0
2,note_on,57,27,0
2,note_on,57,0,120
2,note_on,54,0,0
2,note_on,51,0,0
2,note_on,47,31,0
2,note_on,47,0,120
2,note_on,51,22,0
2,note_on,54,22,0
2,note_on,57,28,0
2,note_on,57,0,120
2,note_on,54,0,0
2,note_on,51,0,0
2,note_on,47,31,0
2,note_on,47,0,120
2,note_on,52,21,0
2,note_on,56,27,0
2,note_on,56,0,120
2,note_on,52,0,0
2,note_on,47,31,0
2,note_on,47,0,120
2,note_on,52,23,0
2,note_on,56,29,0
2,note_on,56,0,120
2,note_on,52,0,0
2,note_on,47,31,0
2,note_on,47,0,120
2,note_on,52,21,0
2,note_on,56,27,0
2,note_on,56,0,120
2,note_on,52,0,0
2,note_on,47,31,0
2,note_on,47,0,120
2,note_on,52,22,0
2,note_on,56,28,0
2,note_on,56,0,120
2,note_on,52,0,0
2,note_on,54,46,0
2,note_on,47,46,0
2,note_on,59,34,240
2,note_on,59,0,240
2,note_on,58,43,0
2,note_on,58,0,240
2,note_on,59,35,0
2,note_on,59,0,240
2,note_on,47,0,0
2,note_on,54,0,0
2,note_on,52,46,0
2,note_on,47,46,0
2,note_on,59,34,240
2,note_on,59,0,240
2,note_on,58,43,0
2,note_on,58,0,240
2,note_on,59,35,0
2,note_on,59,0,240
2,note_on,47,0,0
2,note_on,52,0,0
2,note_on,47,37,0
2,note_on,47,0,120
2,note_on,51,25,0
2,note_on,54,25,0
2,note_on,57,31,0
2,note_on,57,0,120
2,note_on,54,0,0
2,note_on,51,0,0
2,note_on,47,37,0
2,note_on,47,0,120
2,note_on,51,27,0
2,note_on,54,27,0
2,note_on,57,35,0
2,note_on,57,0,120
2,note_on,54,0,0
2,note_on,51,0,0
2,note_on,47,39,0
2,note_on,47,0,120
2,note_on,51,27,0
2,note_on,54,27,0
2,note_on,57,35,0
2,note_on,57,0,120
2,note_on,54,0,0
2,note_on,51,0,0
2,note_on,47,40,0
2,note_on,47,0,120
2,note_on,51,28,0
2,note_on,54,28,0
2,note_on,57,37,0
2,note_on,57,0,120
2,note_on,54,0,0
2,note_on,51,0,0
2,note_on,47,48,0
2,note_on,47,0,120
2,note_on,50,32,0
2,note_on,53,32,0
2,note_on,56,41,0
2,note_on,56,0,120
2,note_on,53,0,0
2,note_on,50,0,0
2,note_on,47,48,0
2,note_on,47,0,120
2,note_on,50,37,0
2,note_on,53,37,0
2,note_on,56,46,0
2,note_on,56,0,120
2,note_on,53,0,0
2,note_on,50,0,0
2,note_on,47,50,0
2,note_on,47,0,120
2,note_on,50,34,0
2,note_on,53,34,0
2,note_on,56,46,0
2,note_on,56,0,120
2,note_on,53,0,0
2,note_on,50,0,0
2,note_on,47,51,0
2,note_on,47,0,120
2,note_on,50,38,0
2,note_on,53,38,0
2,note_on,56,47,0
2,note_on,56,0,120
2,note_on,53,0,0
2,note_on,50,0,0
2,note_on,45,51,0
2,note_on,45,0,120
2,note_on,54,42,0
2,note_on,49,34,0
2,note_on,49,0,120
2,note_on,54,0,0
2,note_on,45,49,0
2,note_on,45,0,120
2,note_on,49,35,0
2,note_on,54,42,0
2,note_on,54,0,120
2,note_on,49,0,0
2,note_on,45,52,0
2,note_on,45,0,120
2,note_on,54,43,0
2,note_on,49,35,0
2,note_on,49,0,120
2,note_on,54,0,0
2,note_on,45,49,0
2,note_on,45,0,120
2,note_on,49,38,0
2,note_on,54,45,0
2,note_on,54,0,120
2,note_on,49,0,0
2,note_on,46,43,0
2,note_on,46,0,120
2,note_on,54,35,0
2,note_on,52,29,0
2,note_on,49,29,0
2,note_on,49,0,120
2,note_on,52,0,0
2,note_on,54,0,0
2,note_on,46,40,0
2,note_on,46,0,120
2,note_on,54,34,0
2,note_on,52,28,0
2,note_on,49,28,0
2,note_on,49,0,120
2,note_on,52,0,0
2,note_on,54,0,0
2,note_on,46,43,0
2,note_on,46,0,120
2,note_on,54,34,0
2,note_on,52,28,0
2,note_on,49,28,0
2,note_on,49,0,120
2,note_on,52,0,0
2,note_on,54,0,0
2,note_on,46,39,0
2,note_on,46,0,120
2,note_on,54,33,0
2,note_on,52,28,0
2,note_on,49,28,0
2,note_on,49,0,120
2,note_on,52,0,0
2,note_on,54,0,0
2,note_on,47,38,0
2,note_on,47,0,120
2,note_on,52,25,0
2,note_on,56,30,0
2,note_on,56,0,120
2,note_on,52,0,0
2,note_on,47,35,0
2,note_on,47,0,120
2,note_on,56,26,0
2,note_on,52,22,0
2,note_on,52,0,120
2,note_on,56,0,0
2,note_on,47,32,0
2,note_on,47,0,120
2,note_on,52,21,0
2,note_on,56,25,0
2,note_on,56,0,120
2,note_on,52,0,0
2,note_on,47,32,0
2,note_on,47,0,120
2,note_on,56,25,0
2,note_on,52,21,0
2,note_on,52,0,120
2,note_on,56,0,0
2,note_on,47,32,0
2,note_on,47,0,120
2,note_on,54,25,0
2,note_on,54,0,120
2,note_on,47,32,0
2,note_on,47,0,120
2,note_on,51,26,0
2,note_on,51,0,120
2,note_on,47,32,0
2,note_on,47,0,120
2,note_on,59,26,0
2,note_on,59,0,120
2,note_on,47,32,0
2,note_on,47,0,120
2,note_on,59,27,0
2,note_on,59,0,110
2,note_on,59,50,10
2,note_on,59,0,480
2,note_on,57,56,0
2,note_on,57,0,480
2,note_on,56,64,0
2,note_on,59,64,0
2,note_on,59,0,480
2,note_on,56,0,0
2,note_on,54,70,0
2,note_on,57,70,0
2,note_on,57,0,480
2,note_on,54,0,0
2,note_on,56,80,0
2,note_on,53,80,0
2,note_on,53,0,240
2,note_on,56,0,0
2,note_on,56,81,240
2,note_on,53,81,0
2,note_on,53,0,240
2,note_on,56,0,0
2,note_on,58,40,1200
2,note_on,58,0,960
2,note_on,59,40,0
2,note_on,59,0,3590
2,note_on,58,32,490
2,note_on,58,0,240
2,note_on,59,36,0
2,note_on,59,0,240
2,note_on,63,32,0
2,note_on,63,0,240
2,note_on,59,38,0
2,note_on,59,0,228
2,note_on,56,30,12
2,note_on,56,0,240
2,note_on,57,34,0
2,note_on,57,0,240
2,note_on,61,31,0
2,note_on,61,0,240
2,note_on,57,38,0
2,note_on,57,0,228
2,note_on,55,31,12
2,note_on,55,0,240
2,note_on,47,35,0
2,note_on,56,35,0
2,note_on,56,0,240
2,note_on,47,0,0
2,note_on,59,32,0
2,note_on,59,0,240
2,note_on,56,36,0
2,note_on,56,0,228
2,note_on,53,30,12
2,note_on,53,0,240
2,note_on,47,30,0
2,note_on,54,36,0
2,note_on,54,0,240
2,note_on,47,0,0
2,note_on,57,33,0
2,note_on,47,28,0
2,note_on,57,0,240
2,note_on,56,49,0
2,note_on,56,0,240
2,note_on,47,0,0
2,note_on,47,39,0
2,note_on,52,46,0
2,note_on,52,0,240
2,note_on,54,52,0
2,note_on,54,0,120
2,note_on,57,50,0
2,note_on,57,0,120
2,note_on,47,0,0
2,note_on,56,45,0
2,note_on,47,37,0
2,note_on,56,0,120
2,note_on,54,40,0
2,note_on,54,0,120
2,note_on,47,0,0
2,note_on,40,25,0
2,note_on,52,30,0
2,note_on,52,0,240
2,note_on,40,0,0
2,note_on,35,25,720
2,note_on,47,30,0
2,note_on,47,0,240
2,note_on,35,0,0
2,note_on,37,25,720
2,note_on,49,30,0
2,note_on,49,0,240
2,note_on,37,0,0
2,note_on,51,28,240
2,note_on,39,23,0
2,note_on,39,0,240
2,note_on,51,0,0
2,note_on,47,26,0
2,note_on,35,22,0
2,note_on,35,0,240
2,note_on,47,0,0
2,note_on,40,28,0
2,note_on,52,28,0
2,note_on,52,0,480
2,note_on,40,0,0
2,note_on,47,26,240
2,note_on,47,0,240
2,note_on,49,30,0
2,note_on,49,0,480
2,note_on,51,28,0
2,note_on,51,0,240
2,note_on,57,26,0
2,note_on,47,22,0
2,note_on,47,0,240
2,note_on,57,0,0
2,note_on,52,28,0
2,note_on,56,33,0
2,note_on,56,0,120
2,note_on,52,0,0
2,note_on,47,27,0
2,note_on,47,0,120
2,note_on,52,28,0
2,note_on,56,33,0
2,note_on,56,0,120
2,note_on,52,0,0
2,note_on,47,30,0
2,note_on,47,0,120
2,note_on,56,31,0
2,note_on,52,26,0
2,note_on,52,0,120
2,note_on,56,0,0
2,note_on,47,26,0
2,note_on,47,0,120
2,note_on,56,30,0
2,note_on,53,25,0
2,note_on,53,0,120
2,note_on,56,0,0
2,note_on,47,26,0
2,note_on,47,0,120
2,note_on,54,28,0
2,note_on,57,33,0
2,note_on,57,0,120
2,note_on,54,0,0
2,note_on,47,26,0
2,note_on,47,0,120
2,note_on,57,28,0
2,note_on,61,33,0
2,note_on,61,0,120
2,note_on,57,0,0
2,note_on,47,27,0
2,note_on,47,0,120
2,note_on,59,31,0
2,note_on,56,26,0
2,note_on,56,0,120
2,note_on,59,0,0
2,note_on,47,26,0
2,note_on,47,0,120
2,note_on,57,29,0
2,note_on,54,24,0
2,note_on,54,0,120
2,note_on,57,0,0
2,note_on,47,27,0
2,note_on,47,0,120
2,note_on,52,26,0
2,note_on,56,31,0
2,note_on,56,0,240
2,note_on,52,0,0
2,note_on,42,31,0
2,note_on,42,0,240
2,note_on,40,34,0
2,note_on,40,0,240
2,note_on,49,37,0
2,note_on,49,0,240
2,note_on,47,34,0
2,note_on,57,40,240
2,note_on,57,0,240
2,note_on,56,39,0
2,note_on,56,0,240
2,note_on,47,0,0
2,note_on,64,45,0
2,note_on,49,45,0
2,note_on,49,0,120
2,note_on,47,49,0
2,note_on,47,0,120
2,note_on,64,0,0
2,note_on,64,52,0
2,note_on,46,52,0
2,note_on,64,0,240
2,note_on,46,0,240
2,note_on,58,39,0
2,note_on,64,39,0
2,note_on,66,47,0
2,note_on,66,0,480
2,note_on,64,0,0
2,note_on,58,0,0
2,note_on,59,22,0
2,note_on,64,22,0
2,note_on,68,27,0
2,note_on,68,0,240
2,note_on,64,0,0
2,note_on,59,0,0
2,note_on,66,27,240
2,note_on,59,23,0
2,note_on,59,0,240
2,note_on,66,0,0
2,note_on,64,29,240
2,note_on,61,24,0
2,note_on,61,0,240
2,note_on,64,0,0
2,note_on,61,30,240
2,note_on,57,25,0
2,note_on,57,0,240
2,note_on,61,0,0
2,note_on,54,26,240
2,note_on,57,31,0
2,note_on,57,0,240
2,note_on,54,0,0
2,note_on,51,26,240
2,note_on,54,32,0
2,note_on,54,0,240
2,note_on,51,0,0
2,note_on,63,33,240
2,note_on,59,27,0
2,note_on,59,0,240
2,note_on,63,0,0
2,note_on,64,30,240
2,note_on,61,25,0
2,note_on,61,0,240
2,note_on,64,0,0
2,note_on,64,30,0
2,note_on,61,25,0
2,note_on,61,0,240
2,note_on,64,0,0
2,note_on,57,28,0
2,note_on,57,0,240
2,note_on,59,24,0
2,note_on,59,0,240
2,note_on,52,27,0
2,note_on,52,0,240
