Track,Message Type,Note,Velocity,Time
1,note_on,60,42,0
1,note_on,68,50,0
1,note_on,68,0,720
1,note_on,70,50,0
1,note_on,70,0,60
1,note_on,68,46,0
1,note_on,68,0,60
1,note_on,67,46,0
1,note_on,67,0,60
1,note_on,68,46,0
1,note_on,68,0,60
1,note_on,60,0,0
1,note_on,72,54,0
1,note_on,61,45,0
1,note_on,72,0,720
1,note_on,70,45,0
1,note_on,70,0,240
1,note_on,61,0,0
1,note_on,60,42,0
1,note_on,68,50,0
1,note_on,68,0,1440
1,note_on,60,0,0
1,note_on,69,50,0
1,note_on,69,0,480
1,note_on,63,42,0
1,note_on,70,50,0
1,note_on,70,0,480
1,note_on,72,50,240
1,note_on,72,0,60
1,note_on,70,46,0
1,note_on,70,0,60
1,note_on,69,46,0
1,note_on,69,0,60
1,note_on,70,46,0
1,note_on,70,0,60
1,note_on,63,0,0
1,note_on,73,54,0
1,note_on,63,45,0
1,note_on,63,0,480
1,note_on,68,42,0
1,note_on,73,0,240
1,note_on,72,45,0
1,note_on,72,0,240
1,note_on,68,0,0
1,note_on,67,42,0
1,note_on,70,50,0
1,note_on,70,0,1440
1,note_on,67,0,0
1,note_on,71,50,0
1,note_on,71,0,480
1,note_on,72,63,0
1,note_on,63,63,0
1,note_on,72,0,840
1,note_on,68,52,0
1,note_on,68,0,120
1,note_on,63,0,0
1,note_on,75,64,0
1,note_on,68,64,0
1,note_on,63,55,0
1,note_on,75,0,840
1,note_on,72,60,0
1,note_on,72,0,120
1,note_on,63,0,0
1,note_on,68,0,0
1,note_on,65,55,0
1,note_on,68,64,0
1,note_on,77,70,0
1,note_on,77,0,840
1,note_on,73,67,0
1,note_on,73,0,120
1,note_on,68,0,0
1,note_on,65,0,0
1,note_on,68,70,120
1,note_on,73,75,30
1,note_on,77,78,30
1,note_on,80,82,30
1,note_on,77,0,750
1,note_on,80,0,240
1,note_on,79,63,0
1,note_on,79,0,220
1,note_on,77,59,20
1,note_on,77,0,220
1,note_on,75,56,20
1,note_on,75,0,220
1,note_on,73,0,20
1,note_on,68,0,0
1,note_on,70,51,0
1,note_on,73,60,0
1,note_on,73,0,480
1,note_on,70,0,0
1,note_on,68,44,0
1,note_on,72,52,0
1,note_on,72,0,480
1,note_on,68,0,0
1,note_on,63,46,0
1,note_on,75,55,0
1,note_on,63,0,480
1,note_on,63,39,0
1,note_on,75,0,240
1,note_on,72,51,0
1,note_on,72,0,240
1,note_on,63,0,0
1,note_on,63,45,0
1,note_on,70,53,0
1,note_on,70,51,0
1,note_on,70,0,30
1,note_on,72,46,0
1,note_on,72,0,30
1,note_on,70,51,0
1,note_on,70,0,30
1,note_on,72,45,0
1,note_on,72,0,30
1,note_on,70,51,0
1,note_on,70,0,40
1,note_on,69,46,0
1,note_on,69,0,40
1,note_on,70,46,0
1,note_on,70,0,40
1,note_on,73,57,0
1,note_on,73,0,120
1,note_on,72,48,0
1,note_on,72,0,120
1,note_on,70,0,0
1,note_on,63,0,0
1,note_on,75,55,0
1,note_on,75,0,120
1,note_on,73,47,0
1,note_on,73,0,120
1,note_on,72,51,0
1,note_on,72,0,80
1,note_on,73,47,0
1,note_on,73,0,80
1,note_on,70,47,0
1,note_on,70,0,80
1,note_on,60,34,0
1,note_on,68,50,0
1,note_on,68,0,720
1,note_on,70,50,0
1,note_on,70,0,60
1,note_on,68,46,0
1,note_on,68,0,60
1,note_on,67,46,0
1,note_on,67,0,60
1,note_on,68,46,0
1,note_on,68,0,60
1,note_on,60,0,0
1,note_on,72,54,0
1,note_on,61,45,0
1,note_on,72,0,720
1,note_on,70,45,0
1,note_on,70,0,240
1,note_on,61,0,0
1,note_on,60,42,0
1,note_on,68,50,0
1,note_on,68,0,960
1,note_on,60,0,0
1,note_on,70,59,960
1,note_on,70,0,480
1,note_on,72,54,240
1,note_on,72,0,60
1,note_on,70,46,0
1,note_on,70,0,60
1,note_on,69,49,0
1,note_on,69,0,60
1,note_on,70,50,0
1,note_on,70,0,60
1,note_on,73,62,0
1,note_on,68,62,0
1,note_on,73,0,720
1,note_on,72,50,0
1,note_on,72,0,240
1,note_on,68,0,0
1,note_on,67,57,0
1,note_on,70,57,0
1,note_on,70,0,960
1,note_on,67,0,0
1,note_on,63,36,930
1,note_on,72,63,30
1,note_on,63,0,60
1,note_on,72,0,780
1,note_on,68,52,0
1,note_on,63,43,90
1,note_on,68,0,30
1,note_on,75,64,0
1,note_on,63,0,90
1,note_on,75,0,750
1,note_on,72,60,0
1,note_on,72,0,60
1,note_on,65,44,30
1,note_on,77,73,30
1,note_on,65,0,60
1,note_on,77,0,1380
1,note_on,69,59,0
1,note_on,75,70,0
1,note_on,75,0,240
1,note_on,69,0,0
1,note_on,70,52,0
1,note_on,73,62,0
1,note_on,73,0,240
1,note_on,70,0,0
1,note_on,68,59,0
1,note_on,72,70,0
1,note_on,72,0,480
1,note_on,75,63,0
1,note_on,75,0,480
1,note_on,68,0,0
1,note_on,67,59,0
1,note_on,73,70,0
1,note_on,73,0,480
1,note_on,70,60,0
1,note_on,70,0,480
1,note_on,67,0,0
1,note_on,61,59,0
1,note_on,70,70,0
1,note_on,61,0,480
1,note_on,60,34,0
1,note_on,60,0,120
1,note_on,61,32,0
1,note_on,61,0,120
1,note_on,63,36,0
1,note_on,63,0,120
1,note_on,61,31,0
1,note_on,61,0,120
1,note_on,70,0,0
1,note_on,60,37,0
1,note_on,68,45,0
1,note_on,68,0,480
1,note_on,60,0,0
1,note_on,77,78,450
1,note_on,89,91,30
1,note_on,77,0,60
1,note_on,89,0,660
1,note_on,87,65,0
1,note_on,84,63,34
1,note_on,87,0,1
1,note_on,84,0,34
1,note_on,81,62,0
1,note_on,77,61,34
1,note_on,81,0,0
1,note_on,77,0,34
1,note_on,75,59,0
1,note_on,72,57,34
1,note_on,75,0,1
1,note_on,69,56,33
1,note_on,72,0,1
1,note_on,69,0,34
1,note_on,65,78,0
1,note_on,65,0,240
1,note_on,60,45,600
1,note_on,63,54,0
1,note_on,63,0,110
1,note_on,60,0,0
1,note_on,60,48,10
1,note_on,63,57,0
1,note_on,63,0,960
1,note_on,60,0,0
1,note_on,58,38,0
1,note_on,61,45,0
1,note_on,61,0,480
1,note_on,58,0,0
1,note_on,75,78,450
1,note_on,87,91,30
1,note_on,75,0,60
1,note_on,87,0,660
1,note_on,85,65,0
1,note_on,82,63,34
1,note_on,85,0,1
1,note_on,82,0,34
1,note_on,79,62,0
1,note_on,75,61,34
1,note_on,79,0,0
1,note_on,75,0,34
1,note_on,73,59,0
1,note_on,70,57,34
1,note_on,73,0,1
1,note_on,67,56,33
1,note_on,70,0,1
1,note_on,67,0,34
1,note_on,63,78,0
1,note_on,63,0,240
1,note_on,58,45,600
1,note_on,61,54,0
1,note_on,61,0,110
1,note_on,58,0,0
1,note_on,58,48,10
1,note_on,61,57,0
1,note_on,61,0,960
1,note_on,58,0,0
1,note_on,56,38,0
1,note_on,60,45,0
1,note_on,60,0,480
1,note_on,56,0,0
1,note_on,51,69,2280
1,note_on,56,69,0
1,note_on,63,69,0
1,note_on,63,0,110
1,note_on,56,0,0
1,note_on,51,0,0
1,note_on,63,83,10
1,note_on,63,0,960
1,note_on,62,46,0
1,note_on,62,0,240
1,note_on,64,46,0
1,note_on,65,54,240
1,note_on,64,0,12
1,note_on,65,0,228
1,note_on,69,46,0
1,note_on,70,54,240
1,note_on,69,0,12
1,note_on,70,0,228
1,note_on,73,46,0
1,note_on,74,55,240
1,note_on,73,0,12
1,note_on,74,0,228
1,note_on,76,46,0
1,note_on,77,55,240
1,note_on,76,0,12
1,note_on,77,0,228
1,note_on,79,46,0
1,note_on,80,55,240
1,note_on,79,0,12
1,note_on,80,0,228
1,note_on,77,46,0
1,note_on,77,0,240
1,note_on,74,55,0
1,note_on,74,0,1200
1,note_on,75,50,0
1,note_on,75,0,60
1,note_on,74,50,0
1,note_on,74,0,60
1,note_on,72,50,0
1,note_on,72,0,60
1,note_on,74,50,0
1,note_on,74,0,60
1,note_on,75,55,0
1,note_on,75,0,360
1,note_on,77,55,0
1,note_on,77,0,110
1,note_on,77,55,10
1,note_on,77,0,480
1,note_on,75,55,0
1,note_on,75,0,960
1,note_on,76,55,0
1,note_on,76,0,480
1,note_on,77,55,0
1,note_on,77,0,1200
1,note_on,79,50,0
1,note_on,79,0,60
1,note_on,77,47,0
1,note_on,77,0,60
1,note_on,75,49,0
1,note_on,75,0,60
1,note_on,77,51,0
1,note_on,77,0,60
1,note_on,79,53,0
1,note_on,79,0,360
1,note_on,80,60,0
1,note_on,80,0,110
1,note_on,80,58,10
1,note_on,80,0,480
1,note_on,79,55,0
1,note_on,79,0,480
1,note_on,62,30,1000
1,note_on,62,0,40
1,note_on,63,30,1
1,note_on,63,0,40
1,note_on,65,41,0
1,note_on,65,0,40
1,note_on,63,33,0
1,note_on,63,0,40
1,note_on,62,33,0
1,note_on,62,0,40
1,note_on,68,42,0
1,note_on,68,0,40
1,note_on,67,34,0
1,note_on,67,0,40
1,note_on,65,34,0
1,note_on,65,0,40
1,note_on,74,51,1
1,note_on,74,0,40
1,note_on,72,37,0
1,note_on,72,0,40
1,note_on,70,36,0
1,note_on,77,57,38
1,note_on,70,0,2
1,note_on,77,0,38
1,note_on,75,41,0
1,note_on,75,0,40
1,note_on,74,44,0
1,note_on,74,0,40
1,note_on,80,59,0
1,note_on,80,0,40
1,note_on,79,46,0
1,note_on,79,0,40
1,note_on,77,48,0
1,note_on,77,0,40
1,note_on,84,70,0
1,note_on,84,0,960
1,note_on,84,54,0
1,note_on,84,0,34
1,note_on,82,53,0
1,note_on,82,0,34
1,note_on,80,52,1
1,note_on,80,0,34
1,note_on,79,52,0
1,note_on,79,0,34
1,note_on,77,51,0
1,note_on,77,0,34
1,note_on,75,50,0
1,note_on,75,0,34
1,note_on,74,49,0
1,note_on,74,0,34
1,note_on,77,56,1
1,note_on,77,0,360
1,note_on,75,40,0
1,note_on,75,0,120
1,note_on,74,43,0
1,note_on,74,0,180
1,note_on,75,40,0
1,note_on,75,0,60
1,note_on,77,47,0
1,note_on,77,0,180
1,note_on,75,41,0
1,note_on,75,0,60
1,note_on,63,52,0
1,note_on,63,0,480
1,note_on,65,30,520
1,note_on,65,0,40
1,note_on,67,30,1
1,note_on,67,0,40
1,note_on,68,41,0
1,note_on,68,0,40
1,note_on,67,33,0
1,note_on,67,0,40
1,note_on,65,33,0
1,note_on,65,0,40
1,note_on,74,42,0
1,note_on,74,0,40
1,note_on,72,34,0
1,note_on,72,0,40
1,note_on,70,34,0
1,note_on,70,0,40
1,note_on,77,51,1
1,note_on,77,0,40
1,note_on,75,37,0
1,note_on,75,0,40
1,note_on,74,36,0
1,note_on,80,57,38
1,note_on,74,0,2
1,note_on,80,0,38
1,note_on,79,41,0
1,note_on,79,0,40
1,note_on,77,44,0
1,note_on,77,0,40
1,note_on,86,59,0
1,note_on,86,0,40
1,note_on,84,46,0
1,note_on,84,0,40
1,note_on,82,48,0
1,note_on,82,0,40
1,note_on,89,69,0
1,note_on,89,0,960
1,note_on,89,54,0
1,note_on,89,0,39
1,note_on,87,53,0
1,note_on,86,52,39
1,note_on,87,0,0
1,note_on,86,0,39
1,note_on,84,52,0
1,note_on,84,0,39
1,note_on,82,51,0
1,note_on,82,0,39
1,note_on,80,50,0
1,note_on,80,0,39
1,note_on,79,62,6
1,note_on,79,0,720
1,note_on,79,64,120
1,note_on,79,0,120
1,note_on,80,71,0
1,note_on,80,0,720
1,note_on,80,71,120
1,note_on,80,0,120
1,note_on,82,81,0
1,note_on,82,0,720
1,note_on,82,78,120
1,note_on,82,0,120
1,note_on,83,89,0
1,note_on,83,0,720
1,note_on,83,84,120
1,note_on,83,0,120
1,note_on,84,92,0
1,note_on,84,0,720
1,note_on,84,90,120
1,note_on,84,0,120
1,note_on,86,96,0
1,note_on,86,0,720
1,note_on,86,99,120
1,note_on,86,0,120
1,note_on,87,103,0
1,note_on,87,0,720
1,note_on,89,94,120
1,note_on,89,0,30
1,note_on,87,94,0
1,note_on,87,0,30
1,note_on,86,94,0
1,note_on,86,0,30
1,note_on,87,94,0
1,note_on,87,0,30
1,note_on,89,107,0
1,note_on,89,0,240
1,note_on,87,90,0
1,note_on,87,0,240
1,note_on,86,74,0
1,note_on,86,0,180
1,note_on,84,67,60
1,note_on,84,0,180
1,note_on,82,60,60
1,note_on,82,0,240
1,note_on,81,55,0
1,note_on,81,0,240
1,note_on,84,60,0
1,note_on,84,0,240
1,note_on,82,55,0
1,note_on,82,0,240
1,note_on,80,60,0
1,note_on,80,0,240
1,note_on,79,56,0
1,note_on,79,0,240
1,note_on,77,60,0
1,note_on,77,0,240
1,note_on,82,57,0
1,note_on,82,0,240
1,note_on,78,60,0
1,note_on,78,0,160
1,note_on,79,51,0
1,note_on,79,0,160
1,note_on,67,43,0
1,note_on,67,0,160
1,note_on,79,60,160
1,note_on,79,0,160
1,note_on,67,52,0
1,note_on,67,0,160
1,note_on,79,60,0
1,note_on,79,0,160
1,note_on,80,51,0
1,note_on,80,0,160
1,note_on,68,43,0
1,note_on,68,0,160
1,note_on,80,60,160
1,note_on,80,0,160
1,note_on,68,54,0
1,note_on,68,0,160
1,note_on,81,60,0
1,note_on,81,0,160
1,note_on,82,51,0
1,note_on,82,0,160
1,note_on,70,44,0
1,note_on,70,0,160
1,note_on,82,64,160
1,note_on,82,0,160
1,note_on,70,56,0
1,note_on,70,0,160
1,note_on,82,66,0
1,note_on,82,0,160
1,note_on,83,63,0
1,note_on,83,0,160
1,note_on,71,58,0
1,note_on,71,0,160
1,note_on,83,70,160
1,note_on,83,0,160
1,note_on,71,64,0
1,note_on,71,0,160
1,note_on,83,73,0
1,note_on,83,0,160
1,note_on,84,70,0
1,note_on,84,0,160
1,note_on,72,63,0
1,note_on,72,0,160
1,note_on,84,77,160
1,note_on,84,0,160
1,note_on,72,68,0
1,note_on,72,0,160
1,note_on,85,79,0
1,note_on,85,0,160
1,note_on,86,77,0
1,note_on,86,0,160
1,note_on,74,69,0
1,note_on,74,0,160
1,note_on,86,84,160
1,note_on,86,0,160
1,note_on,74,76,0
1,note_on,74,0,160
1,note_on,86,86,0
1,note_on,86,0,160
1,note_on,87,81,0
1,note_on,87,0,160
1,note_on,75,75,0
1,note_on,75,0,160
1,note_on,87,87,160
1,note_on,87,0,160
1,note_on,75,81,0
1,note_on,75,0,160
1,note_on,87,87,0
1,note_on,87,0,160
1,note_on,78,79,0
1,note_on,78,0,160
1,note_on,87,87,0
1,note_on,87,0,160
1,note_on,81,79,0
1,note_on,81,0,160
1,note_on,87,86,0
1,note_on,87,0,160
1,note_on,81,79,0
1,note_on,81,0,160
1,note_on,82,88,0
1,note_on,82,0,1120
1,note_on,81,79,0
1,note_on,81,0,160
1,note_on,84,79,0
1,note_on,84,0,160
1,note_on,82,85,0
1,note_on,82,0,120
1,note_on,80,79,40
1,note_on,80,0,120
1,note_on,79,79,40
1,note_on,79,0,120
1,note_on,75,79,40
1,note_on,77,79,0
1,note_on,77,0,840
1,note_on,77,74,0
1,note_on,77,0,24
1,note_on,79,68,0
1,note_on,79,0,24
1,note_on,77,74,0
1,note_on,77,0,24
1,note_on,76,66,0
1,note_on,76,0,24
1,note_on,77,67,0
1,note_on,77,0,24
1,note_on,75,0,0
1,note_on,74,79,0
1,note_on,82,79,0
1,note_on,82,0,840
1,note_on,82,79,0
1,note_on,82,0,120
1,note_on,74,0,0
1,note_on,67,74,0
1,note_on,75,85,0
1,note_on,75,0,480
1,note_on,67,0,0
1,note_on,69,79,640
1,note_on,69,0,160
1,note_on,72,79,0
1,note_on,72,0,160
1,note_on,70,85,0
1,note_on,70,0,120
1,note_on,68,79,40
1,note_on,68,0,120
1,note_on,67,79,40
1,note_on,67,0,120
1,note_on,63,79,40
1,note_on,65,79,0
1,note_on,65,0,840
1,note_on,65,74,0
1,note_on,65,0,24
1,note_on,67,68,0
1,note_on,67,0,24
1,note_on,65,74,0
1,note_on,65,0,24
1,note_on,64,66,0
1,note_on,64,0,24
1,note_on,65,67,0
1,note_on,65,0,24
1,note_on,63,0,0
1,note_on,62,79,0
1,note_on,70,79,0
1,note_on,70,0,840
1,note_on,70,47,0
1,note_on,70,0,120
1,note_on,62,0,0
1,note_on,63,51,0
1,note_on,63,0,480
1,note_on,55,74,1380
1,note_on,58,77,15
1,note_on,61,81,15
1,note_on,63,86,15
1,note_on,67,90,15
1,note_on,67,0,480
1,note_on,61,0,0
1,note_on,55,0,0
1,note_on,58,0,0
1,note_on,63,0,0
1,note_on,60,42,1440
1,note_on,68,50,0
1,note_on,68,0,720
1,note_on,70,50,0
1,note_on,70,0,60
1,note_on,68,46,0
1,note_on,68,0,60
1,note_on,67,46,0
1,note_on,67,0,60
1,note_on,68,46,0
1,note_on,68,0,60
1,note_on,60,0,0
1,note_on,72,54,0
1,note_on,61,45,0
1,note_on,72,0,720
1,note_on,70,45,0
1,note_on,70,0,240
1,note_on,61,0,0
1,note_on,60,42,0
1,note_on,68,50,0
1,note_on,60,0,960
1,note_on,68,0,240
1,note_on,67,46,0
1,note_on,67,0,240
1,note_on,68,44,0
1,note_on,68,0,240
1,note_on,69,48,0
1,note_on,69,0,240
1,note_on,63,52,0
1,note_on,70,52,0
1,note_on,70,0,480
1,note_on,72,50,240
1,note_on,72,0,60
1,note_on,70,46,0
1,note_on,70,0,60
1,note_on,69,46,0
1,note_on,69,0,60
1,note_on,70,46,0
1,note_on,70,0,60
1,note_on,63,0,0
1,note_on,73,54,0
1,note_on,63,45,0
1,note_on,63,0,480
1,note_on,68,45,0
1,note_on,73,0,240
1,note_on,72,45,0
1,note_on,72,0,240
1,note_on,68,0,0
1,note_on,67,42,0
1,note_on,70,50,0
1,note_on,67,0,960
1,note_on,70,0,160
1,note_on,77,61,0
1,note_on,77,0,160
1,note_on,75,55,0
1,note_on,75,0,160
1,note_on,73,62,0
1,note_on,73,0,120
1,note_on,72,60,40
1,note_on,72,0,120
1,note_on,71,57,40
1,note_on,71,0,120
1,note_on,72,63,40
1,note_on,72,0,840
1,note_on,68,52,0
1,note_on,68,0,120
1,note_on,75,64,0
1,note_on,75,0,840
1,note_on,72,60,0
1,note_on,72,0,120
1,note_on,77,70,0
1,note_on,77,0,840
1,note_on,73,67,0
1,note_on,73,0,120
1,note_on,80,87,0
1,note_on,68,84,960
1,note_on,80,0,240
1,note_on,79,63,0
1,note_on,79,0,240
1,note_on,77,59,0
1,note_on,77,0,240
1,note_on,75,56,0
1,note_on,75,0,220
1,note_on,68,0,20
1,note_on,63,37,0
1,note_on,75,59,0
1,note_on,75,0,240
1,note_on,73,56,0
1,note_on,73,0,220
1,note_on,63,0,20
1,note_on,63,37,0
1,note_on,73,59,0
1,note_on,73,0,240
1,note_on,72,56,0
1,note_on,72,0,220
1,note_on,63,0,20
1,note_on,63,46,0
1,note_on,75,55,0
1,note_on,63,0,480
1,note_on,63,39,0
1,note_on,75,0,240
1,note_on,72,51,0
1,note_on,72,0,240
1,note_on,63,0,0
1,note_on,63,45,0
1,note_on,70,53,0
1,note_on,70,51,0
1,note_on,70,0,30
1,note_on,72,46,0
1,note_on,72,0,30
1,note_on,70,51,0
1,note_on,70,0,30
1,note_on,72,45,0
1,note_on,72,0,30
1,note_on,70,51,0
1,note_on,70,0,40
1,note_on,69,46,0
1,note_on,69,0,40
1,note_on,70,46,0
1,note_on,70,0,40
1,note_on,73,57,0
1,note_on,73,0,120
1,note_on,72,48,0
1,note_on,72,0,120
1,note_on,70,0,0
1,note_on,63,0,0
1,note_on,75,55,0
1,note_on,75,0,120
1,note_on,73,47,0
1,note_on,73,0,120
1,note_on,72,51,0
1,note_on,72,0,60
1,note_on,75,47,0
1,note_on,75,0,60
1,note_on,73,47,0
1,note_on,73,0,60
1,note_on,70,47,0
1,note_on,70,0,60
1,note_on,60,42,0
1,note_on,68,50,0
1,note_on,68,0,720
1,note_on,70,50,0
1,note_on,70,0,60
1,note_on,68,46,0
1,note_on,68,0,60
1,note_on,67,46,0
1,note_on,67,0,60
1,note_on,68,46,0
1,note_on,68,0,60
1,note_on,60,0,0
1,note_on,72,54,0
1,note_on,61,45,0
1,note_on,72,0,720
1,note_on,70,45,0
1,note_on,70,0,240
1,note_on,61,0,0
1,note_on,60,42,0
1,note_on,68,50,0
1,note_on,68,0,960
1,note_on,60,0,0
1,note_on,63,42,960
1,note_on,70,50,0
1,note_on,70,0,480
1,note_on,72,50,240
1,note_on,72,0,60
1,note_on,70,46,0
1,note_on,70,0,60
1,note_on,69,46,0
1,note_on,69,0,60
1,note_on,70,46,0
1,note_on,70,0,60
1,note_on,63,0,0
1,note_on,63,45,0
1,note_on,73,54,0
1,note_on,68,45,0
1,note_on,73,0,720
1,note_on,72,45,0
1,note_on,72,0,240
1,note_on,68,0,0
1,note_on,63,0,0
1,note_on,67,42,0
1,note_on,70,50,0
1,note_on,70,0,960
1,note_on,67,0,0
1,note_on,63,36,930
1,note_on,72,63,30
1,note_on,63,0,60
1,note_on,72,0,780
1,note_on,68,52,0
1,note_on,63,43,90
1,note_on,68,0,30
1,note_on,75,64,0
1,note_on,63,0,60
1,note_on,75,0,780
1,note_on,72,60,0
1,note_on,72,0,90
1,note_on,65,44,0
1,note_on,77,70,30
1,note_on,77,0,1600
1,note_on,65,0,0
1,note_on,69,59,0
1,note_on,75,70,0
1,note_on,75,0,160
1,note_on,69,0,0
1,note_on,70,52,0
1,note_on,73,62,0
1,note_on,73,0,160
1,note_on,70,0,0
1,note_on,68,59,0
1,note_on,72,70,0
1,note_on,72,0,480
1,note_on,75,63,0
1,note_on,75,0,480
1,note_on,68,0,0
1,note_on,67,59,0
1,note_on,73,70,0
1,note_on,73,0,480
1,note_on,70,60,0
1,note_on,70,0,480
1,note_on,67,0,0
1,note_on,61,59,0
1,note_on,70,70,0
1,note_on,61,0,600
1,note_on,60,37,0
1,note_on,60,0,60
1,note_on,61,34,0
1,note_on,61,0,60
1,note_on,63,38,0
1,note_on,63,0,60
1,note_on,61,34,0
1,note_on,61,0,60
1,note_on,60,34,0
1,note_on,60,0,60
1,note_on,61,34,0
1,note_on,61,0,60
1,note_on,70,0,0
1,note_on,60,42,0
1,note_on,68,51,0
1,note_on,68,0,480
1,note_on,60,0,0
1,note_on,77,78,450
1,note_on,89,91,30
1,note_on,77,0,60
1,note_on,89,0,660
1,note_on,87,65,0
1,note_on,84,63,34
1,note_on,87,0,1
1,note_on,84,0,34
1,note_on,81,62,0
1,note_on,77,61,34
1,note_on,81,0,0
1,note_on,77,0,34
1,note_on,75,59,0
1,note_on,72,57,34
1,note_on,75,0,1
1,note_on,69,56,33
1,note_on,72,0,1
1,note_on,69,0,34
1,note_on,65,78,0
1,note_on,65,0,240
1,note_on,60,45,600
1,note_on,63,54,0
1,note_on,63,0,110
1,note_on,60,0,0
1,note_on,60,48,10
1,note_on,63,57,0
1,note_on,63,0,960
1,note_on,60,0,0
1,note_on,58,38,0
1,note_on,61,45,0
1,note_on,61,0,480
1,note_on,58,0,0
1,note_on,75,78,450
1,note_on,87,91,30
1,note_on,75,0,60
1,note_on,87,0,660
1,note_on,85,65,0
1,note_on,82,63,34
1,note_on,85,0,1
1,note_on,82,0,34
1,note_on,79,62,0
1,note_on,75,61,34
1,note_on,79,0,0
1,note_on,75,0,34
1,note_on,73,59,0
1,note_on,70,57,34
1,note_on,73,0,1
1,note_on,67,56,33
1,note_on,70,0,1
1,note_on,67,0,34
1,note_on,63,78,0
1,note_on,63,0,240
1,note_on,58,45,600
1,note_on,61,54,0
1,note_on,61,0,110
1,note_on,58,0,0
1,note_on,58,48,10
1,note_on,61,57,0
1,note_on,61,0,960
1,note_on,58,0,0
1,note_on,56,38,0
1,note_on,59,45,0
1,note_on,59,0,480
1,note_on,56,0,0
1,note_on,56,69,2280
1,note_on,52,69,0
1,note_on,64,69,0
1,note_on,64,0,110
1,note_on,52,0,0
1,note_on,56,0,0
1,note_on,54,73,10
1,note_on,57,73,0
1,note_on,64,73,0
1,note_on,64,0,960
1,note_on,63,61,0
1,note_on,63,0,480
1,note_on,57,0,0
1,note_on,54,0,0
1,note_on,56,69,360
1,note_on,53,69,0
1,note_on,63,69,0
1,note_on,63,0,110
1,note_on,53,0,0
1,note_on,56,0,0
1,note_on,53,73,10
1,note_on,56,73,0
1,note_on,63,73,0
1,note_on,63,0,960
1,note_on,62,61,0
1,note_on,62,0,480
1,note_on,56,0,0
1,note_on,53,0,0
1,note_on,56,69,360
1,note_on,53,69,0
1,note_on,62,69,0
1,note_on,62,0,110
1,note_on,53,0,0
1,note_on,56,0,0
1,note_on,53,73,10
1,note_on,56,73,0
1,note_on,62,73,0
1,note_on,62,0,960
1,note_on,56,0,0
1,note_on,58,54,0
1,note_on,61,61,0
1,note_on,61,0,240
1,note_on,58,0,0
1,note_on,69,46,0
1,note_on,53,0,240
1,note_on,70,54,0
1,note_on,69,0,12
1,note_on,70,0,204
1,note_on,72,46,24
1,note_on,73,54,240
1,note_on,72,0,12
1,note_on,73,0,204
1,note_on,78,50,24
1,note_on,78,0,240
1,note_on,79,60,0
1,note_on,79,0,216
1,note_on,81,50,24
1,note_on,82,60,240
1,note_on,81,0,12
1,note_on,82,0,204
1,note_on,84,50,24
1,note_on,85,60,240
1,note_on,84,0,12
1,note_on,85,0,228
1,note_on,82,50,0
1,note_on,82,0,240
1,note_on,79,60,0
1,note_on,79,0,1200
1,note_on,80,55,0
1,note_on,80,0,60
1,note_on,79,55,0
1,note_on,79,0,60
1,note_on,77,55,0
1,note_on,77,0,60
1,note_on,79,55,0
1,note_on,79,0,60
1,note_on,80,60,0
1,note_on,80,0,360
1,note_on,82,60,0
1,note_on,82,0,120
1,note_on,82,60,0
1,note_on,82,0,480
1,note_on,80,60,0
1,note_on,80,0,960
1,note_on,81,60,0
1,note_on,81,0,480
1,note_on,82,60,0
1,note_on,82,0,1200
1,note_on,84,55,0
1,note_on,84,0,60
1,note_on,82,55,0
1,note_on,82,0,60
1,note_on,81,55,0
1,note_on,81,0,60
1,note_on,82,55,0
1,note_on,82,0,60
1,note_on,84,60,0
1,note_on,84,0,360
1,note_on,85,60,0
1,note_on,85,0,120
1,note_on,85,60,0
1,note_on,85,0,480
1,note_on,84,60,0
1,note_on,84,0,480
1,note_on,67,30,1000
1,note_on,67,0,40
1,note_on,68,30,1
1,note_on,68,0,40
1,note_on,70,41,0
1,note_on,70,0,40
1,note_on,68,33,0
1,note_on,68,0,40
1,note_on,67,33,0
1,note_on,67,0,40
1,note_on,73,42,0
1,note_on,73,0,40
1,note_on,72,36,0
1,note_on,72,0,40
1,note_on,70,39,0
1,note_on,70,0,40
1,note_on,79,51,1
1,note_on,79,0,40
1,note_on,77,39,0
1,note_on,77,0,40
1,note_on,75,42,0
1,note_on,82,57,38
1,note_on,75,0,2
1,note_on,82,0,38
1,note_on,80,46,0
1,note_on,80,0,40
1,note_on,79,49,0
1,note_on,79,0,40
1,note_on,85,59,0
1,note_on,85,0,40
1,note_on,84,50,0
1,note_on,84,0,40
1,note_on,82,55,0
1,note_on,82,0,40
1,note_on,89,69,0
1,note_on,89,0,960
1,note_on,89,54,0
1,note_on,89,0,34
1,note_on,87,53,0
1,note_on,87,0,34
1,note_on,85,52,1
1,note_on,85,0,34
1,note_on,84,52,0
1,note_on,84,0,34
1,note_on,82,51,0
1,note_on,82,0,34
1,note_on,80,50,0
1,note_on,80,0,34
1,note_on,79,49,0
1,note_on,79,0,34
1,note_on,82,56,1
1,note_on,82,0,360
1,note_on,80,44,0
1,note_on,80,0,120
1,note_on,79,47,0
1,note_on,79,0,180
1,note_on,80,44,0
1,note_on,80,0,60
1,note_on,82,51,0
1,note_on,82,0,180
1,note_on,80,45,0
1,note_on,80,0,60
1,note_on,68,57,0
1,note_on,68,0,480
1,note_on,70,30,520
1,note_on,70,0,40
1,note_on,72,30,1
1,note_on,72,0,40
1,note_on,73,41,0
1,note_on,73,0,40
1,note_on,72,33,0
1,note_on,72,0,40
1,note_on,70,33,0
1,note_on,70,0,40
1,note_on,79,47,0
1,note_on,79,0,40
1,note_on,77,38,0
1,note_on,77,0,40
1,note_on,75,39,0
1,note_on,75,0,40
1,note_on,82,51,1
1,note_on,82,0,40
1,note_on,80,46,0
1,note_on,80,0,40
1,note_on,79,48,0
1,note_on,85,69,38
1,note_on,79,0,2
1,note_on,85,0,1198
1,note_on,84,50,0
1,note_on,84,0,22
1,note_on,85,52,0
1,note_on,85,0,22
1,note_on,87,55,0
1,note_on,85,58,22
1,note_on,87,0,0
1,note_on,85,0,22
1,note_on,84,58,0
1,note_on,84,0,22
1,note_on,82,57,0
1,note_on,82,0,22
1,note_on,80,56,0
1,note_on,80,0,22
1,note_on,79,55,0
1,note_on,77,54,21
1,note_on,79,0,1
1,note_on,77,0,21
1,note_on,75,53,0
1,note_on,75,0,22
1,note_on,73,52,0
1,note_on,72,62,21
1,note_on,73,0,1
1,note_on,72,0,719
1,note_on,72,64,120
1,note_on,72,0,120
1,note_on,73,71,0
1,note_on,73,0,720
1,note_on,73,71,120
1,note_on,73,0,120
1,note_on,75,81,0
1,note_on,75,0,720
1,note_on,75,78,120
1,note_on,75,0,120
1,note_on,76,89,0
1,note_on,76,0,720
1,note_on,76,84,120
1,note_on,76,0,120
1,note_on,77,92,0
1,note_on,77,0,720
1,note_on,77,88,120
1,note_on,77,0,120
1,note_on,79,94,0
1,note_on,79,0,720
1,note_on,79,93,120
1,note_on,79,0,120
1,note_on,80,100,0
1,note_on,80,0,720
1,note_on,82,86,120
1,note_on,82,0,30
1,note_on,80,89,0
1,note_on,80,0,30
1,note_on,79,91,0
1,note_on,79,0,30
1,note_on,80,93,0
1,note_on,80,0,30
1,note_on,82,95,0
1,note_on,82,0,240
1,note_on,80,87,0
1,note_on,80,0,240
1,note_on,79,77,0
1,note_on,79,0,180
1,note_on,77,67,60
1,note_on,77,0,180
1,note_on,75,60,60
1,note_on,74,55,240
1,note_on,75,0,12
1,note_on,77,60,228
1,note_on,74,0,12
1,note_on,75,55,228
1,note_on,77,0,12
1,note_on,73,60,228
1,note_on,75,0,12
1,note_on,72,56,228
1,note_on,73,0,12
1,note_on,70,60,228
1,note_on,72,0,12
1,note_on,75,57,228
1,note_on,70,0,12
1,note_on,75,0,228
1,note_on,71,60,0
1,note_on,71,0,160
1,note_on,72,51,0
1,note_on,72,0,160
1,note_on,60,43,0
1,note_on,60,0,160
1,note_on,72,60,160
1,note_on,72,0,160
1,note_on,60,52,0
1,note_on,60,0,160
1,note_on,72,60,0
1,note_on,72,0,160
1,note_on,73,51,0
1,note_on,73,0,160
1,note_on,61,43,0
1,note_on,61,0,160
1,note_on,73,60,160
1,note_on,73,0,160
1,note_on,61,54,0
1,note_on,61,0,160
1,note_on,74,60,0
1,note_on,74,0,160
1,note_on,75,51,0
1,note_on,75,0,160
1,note_on,63,44,0
1,note_on,63,0,160
1,note_on,75,64,160
1,note_on,75,0,160
1,note_on,63,56,0
1,note_on,63,0,160
1,note_on,75,66,0
1,note_on,75,0,160
1,note_on,76,63,0
1,note_on,76,0,160
1,note_on,64,58,0
1,note_on,64,0,160
1,note_on,76,70,160
1,note_on,76,0,160
1,note_on,64,64,0
1,note_on,64,0,160
1,note_on,76,73,0
1,note_on,76,0,160
1,note_on,77,70,0
1,note_on,77,0,160
1,note_on,65,63,0
1,note_on,65,0,160
1,note_on,77,77,160
1,note_on,77,0,160
1,note_on,65,68,0
1,note_on,65,0,160
1,note_on,78,79,0
1,note_on,78,0,160
1,note_on,79,77,0
1,note_on,79,0,160
1,note_on,67,69,0
1,note_on,67,0,160
1,note_on,79,84,160
1,note_on,79,0,160
1,note_on,67,76,0
1,note_on,67,0,160
1,note_on,79,86,0
1,note_on,79,0,160
1,note_on,80,81,0
1,note_on,80,0,160
1,note_on,68,75,0
1,note_on,68,0,160
1,note_on,80,87,160
1,note_on,80,0,160
1,note_on,68,81,0
1,note_on,68,0,160
1,note_on,83,87,0
1,note_on,83,0,160
1,note_on,71,79,0
1,note_on,71,0,160
1,note_on,83,87,0
1,note_on,83,0,160
1,note_on,68,79,0
1,note_on,68,0,160
1,note_on,80,86,0
1,note_on,80,0,160
1,note_on,68,79,0
1,note_on,68,0,160
1,note_on,75,88,0
1,note_on,75,0,1120
1,note_on,86,79,0
1,note_on,86,0,160
1,note_on,89,79,0
1,note_on,89,0,160
1,note_on,87,85,0
1,note_on,87,0,120
1,note_on,85,79,40
1,note_on,85,0,120
1,note_on,84,79,40
1,note_on,84,0,120
1,note_on,80,79,40
1,note_on,82,79,0
1,note_on,82,0,840
1,note_on,82,74,0
1,note_on,82,0,24
1,note_on,84,68,0
1,note_on,84,0,24
1,note_on,82,74,0
1,note_on,82,0,24
1,note_on,81,66,0
1,note_on,81,0,24
1,note_on,82,67,0
1,note_on,82,0,24
1,note_on,80,0,0
1,note_on,79,79,0
1,note_on,87,79,0
1,note_on,87,0,840
1,note_on,87,79,0
1,note_on,87,0,120
1,note_on,79,0,0
1,note_on,72,74,0
1,note_on,80,85,0
1,note_on,80,0,480
1,note_on,72,0,0
1,note_on,74,79,640
1,note_on,74,0,160
1,note_on,77,79,0
1,note_on,77,0,160
1,note_on,75,85,0
1,note_on,75,0,120
1,note_on,73,79,40
1,note_on,73,0,120
1,note_on,72,79,40
1,note_on,72,0,120
1,note_on,68,79,40
1,note_on,70,79,0
1,note_on,70,0,840
1,note_on,70,74,0
1,note_on,70,0,24
1,note_on,72,68,0
1,note_on,72,0,24
1,note_on,70,74,0
1,note_on,70,0,24
1,note_on,69,66,0
1,note_on,69,0,24
1,note_on,70,67,0
1,note_on,70,0,24
1,note_on,68,0,0
1,note_on,67,79,0
1,note_on,75,79,0
1,note_on,75,0,840
1,note_on,75,61,0
1,note_on,75,0,120
1,note_on,67,0,0
1,note_on,60,30,0
1,note_on,63,30,0
1,note_on,68,50,0
1,note_on,63,0,228
1,note_on,60,0,0
1,note_on,60,30,12
1,note_on,63,30,0
1,note_on,63,0,456
1,note_on,60,0,0
1,note_on,60,30,24
1,note_on,63,30,0
1,note_on,63,0,228
1,note_on,60,0,0
1,note_on,68,0,12
1,note_on,61,30,0
1,note_on,63,30,0
1,note_on,72,54,0
1,note_on,63,0,228
1,note_on,61,0,0
1,note_on,61,30,12
1,note_on,63,30,0
1,note_on,63,0,456
1,note_on,61,0,0
1,note_on,72,0,24
1,note_on,63,30,0
1,note_on,61,30,0
1,note_on,70,45,0
1,note_on,61,0,228
1,note_on,63,0,0
1,note_on,70,0,12
1,note_on,60,30,0
1,note_on,63,30,0
1,note_on,68,50,0
1,note_on,63,0,228
1,note_on,60,0,0
1,note_on,60,30,12
1,note_on,63,30,0
1,note_on,63,0,456
1,note_on,60,0,0
1,note_on,63,30,24
1,note_on,60,30,0
1,note_on,60,0,456
1,note_on,63,0,0
1,note_on,60,30,24
1,note_on,63,30,0
1,note_on,63,0,456
1,note_on,60,0,0
1,note_on,68,0,24
1,note_on,69,44,0
1,note_on,60,30,0
1,note_on,63,30,0
1,note_on,63,0,228
1,note_on,60,0,0
1,note_on,69,0,12
1,note_on,61,30,0
1,note_on,63,30,0
1,note_on,70,52,0
1,note_on,63,0,228
1,note_on,61,0,0
1,note_on,63,35,12
1,note_on,63,0,456
1,note_on,70,0,24
1,note_on,63,30,0
1,note_on,72,50,0
1,note_on,72,0,60
1,note_on,70,46,0
1,note_on,70,0,60
1,note_on,69,46,0
1,note_on,69,0,60
1,note_on,70,46,0
1,note_on,70,0,60
1,note_on,73,54,0
1,note_on,68,45,0
1,note_on,63,0,216
1,note_on,63,30,24
1,note_on,63,0,456
1,note_on,68,0,24
1,note_on,73,0,0
1,note_on,63,30,0
1,note_on,68,45,0
1,note_on,72,45,0
1,note_on,72,0,240
1,note_on,68,0,0
1,note_on,67,42,0
1,note_on,70,50,0
1,note_on,63,0,216
1,note_on,63,37,24
1,note_on,63,0,456
1,note_on,63,41,24
1,note_on,63,0,456
1,note_on,63,39,24
1,note_on,63,0,456
1,note_on,63,34,24
1,note_on,70,0,240
1,note_on,67,0,0
1,note_on,75,66,0
1,note_on,63,0,216
1,note_on,63,53,24
1,note_on,63,0,456
1,note_on,63,52,24
1,note_on,75,0,240
1,note_on,73,63,0
1,note_on,63,0,216
1,note_on,63,51,24
1,note_on,63,0,456
1,note_on,63,52,24
1,note_on,73,0,240
1,note_on,72,66,0
1,note_on,63,0,216
1,note_on,63,49,24
1,note_on,63,0,456
1,note_on,64,46,24
1,note_on,72,0,240
1,note_on,70,58,0
1,note_on,64,0,216
1,note_on,65,54,24
1,note_on,70,0,240
1,note_on,73,64,0
1,note_on,65,0,216
1,note_on,65,50,24
1,note_on,73,0,120
1,note_on,70,55,0
1,note_on,70,0,120
1,note_on,68,66,0
1,note_on,65,0,240
1,note_on,63,47,0
1,note_on,63,0,456
1,note_on,63,43,24
1,note_on,68,0,240
1,note_on,69,58,0
1,note_on,63,0,216
1,note_on,63,45,24
1,note_on,69,0,240
1,note_on,70,59,0
1,note_on,63,0,216
1,note_on,63,49,24
1,note_on,70,0,240
1,note_on,71,64,0
1,note_on,63,0,216
1,note_on,63,55,24
1,note_on,71,0,240
1,note_on,60,56,0
1,note_on,72,67,0
1,note_on,63,0,216
1,note_on,63,55,24
1,note_on,72,0,240
1,note_on,60,0,0
1,note_on,61,59,0
1,note_on,73,70,0
1,note_on,63,0,216
1,note_on,63,58,24
1,note_on,73,0,240
1,note_on,61,0,0
1,note_on,62,62,0
1,note_on,74,73,0
1,note_on,63,0,216
1,note_on,63,62,24
1,note_on,63,0,228
1,note_on,74,0,12
1,note_on,62,0,0
1,note_on,63,30,0
1,note_on,75,77,0
1,note_on,63,0,456
1,note_on,63,58,24
1,note_on,63,0,456
1,note_on,75,0,24
1,note_on,61,30,0
1,note_on,63,30,0
1,note_on,73,69,0
1,note_on,63,0,456
1,note_on,61,0,0
1,note_on,61,58,24
1,note_on,63,58,0
1,note_on,63,0,456
1,note_on,61,0,0
1,note_on,73,0,24
1,note_on,60,30,0
1,note_on,63,30,0
1,note_on,72,65,0
1,note_on,63,0,456
1,note_on,60,0,0
1,note_on,60,52,24
1,note_on,64,52,0
1,note_on,64,0,456
1,note_on,60,0,0
1,note_on,72,0,24
1,note_on,65,30,0
1,note_on,70,62,0
1,note_on,70,0,240
1,note_on,72,64,0
1,note_on,72,0,240
1,note_on,73,67,0
1,note_on,65,0,240
1,note_on,65,49,0
1,note_on,73,0,120
1,note_on,70,69,0
1,note_on,70,0,120
1,note_on,65,0,0
1,note_on,63,30,0
1,note_on,68,70,0
1,note_on,75,58,240
1,note_on,68,0,240
1,note_on,69,71,0
1,note_on,75,0,216
1,note_on,75,58,24
1,note_on,69,0,240
1,note_on,70,73,0
1,note_on,75,0,216
1,note_on,75,43,24
1,note_on,70,0,240
1,note_on,63,0,0
1,note_on,67,51,0
1,note_on,75,0,216
1,note_on,75,43,24
1,note_on,75,0,240
1,note_on,67,0,0
1,note_on,60,30,0
1,note_on,63,30,0
1,note_on,68,57,0
1,note_on,63,0,228
1,note_on,60,0,0
1,note_on,63,30,12
1,note_on,68,0,240
1,note_on,63,0,216
1,note_on,63,30,24
1,note_on,63,0,456
1,note_on,63,30,24
1,note_on,63,0,456
1,note_on,63,30,24
1,note_on,70,57,240
1,note_on,73,57,0
1,note_on,63,0,216
1,note_on,63,30,24
1,note_on,63,0,456
1,note_on,63,30,24
1,note_on,73,0,240
1,note_on,70,0,0
1,note_on,70,57,0
1,note_on,73,57,0
1,note_on,63,0,216
1,note_on,63,30,24
1,note_on,63,0,456
1,note_on,63,30,24
1,note_on,73,0,240
1,note_on,70,0,0
1,note_on,68,61,0
1,note_on,72,61,0
1,note_on,63,0,216
1,note_on,63,30,24
1,note_on,72,0,240
1,note_on,68,0,0
1,note_on,63,0,216
1,note_on,63,30,24
1,note_on,63,0,456
1,note_on,63,30,24
1,note_on,63,0,456
1,note_on,63,30,24
1,note_on,61,57,240
1,note_on,70,57,0
1,note_on,63,0,216
1,note_on,63,30,24
1,note_on,63,0,456
1,note_on,63,30,24
1,note_on,70,0,240
1,note_on,61,0,0
1,note_on,61,57,0
1,note_on,70,57,0
1,note_on,63,0,216
1,note_on,63,30,24
1,note_on,63,0,456
1,note_on,63,30,24
1,note_on,63,0,240
1,note_on,70,0,0
1,note_on,61,0,0
1,note_on,60,25,0
1,note_on,68,57,0
1,note_on,68,0,240
1,note_on,60,0,0
1,note_on,63,30,0
1,note_on,51,25,0
1,note_on,51,0,456
1,note_on,63,0,0
1,note_on,63,30,24
1,note_on,51,25,0
1,note_on,51,0,456
1,note_on,63,0,0
1,note_on,63,30,24
1,note_on,51,25,0
1,note_on,56,42,240
1,note_on,60,50,0
1,note_on,51,0,216
1,note_on,63,0,0
1,note_on,63,30,24
1,note_on,51,25,0
1,note_on,56,0,240
1,note_on,60,0,0
1,note_on,58,48,0
1,note_on,61,57,0
1,note_on,63,0,216
1,note_on,51,0,0
1,note_on,63,30,24
1,note_on,51,25,0
1,note_on,58,0,240
1,note_on,61,0,0
1,note_on,63,0,240
1,note_on,51,0,0
1,note_on,63,30,0
1,note_on,51,25,0
1,note_on,58,48,240
1,note_on,61,48,0
1,note_on,51,0,216
1,note_on,63,0,0
1,note_on,63,30,24
1,note_on,51,25,0
1,note_on,58,0,240
1,note_on,61,0,0
1,note_on,63,0,240
1,note_on,51,0,0
1,note_on,63,30,0
1,note_on,51,25,0
1,note_on,56,51,240
1,note_on,60,51,0
1,note_on,51,0,216
1,note_on,63,0,0
1,note_on,56,0,12
1,note_on,60,0,0
1,note_on,63,30,12
1,note_on,60,25,0
1,note_on,56,25,0
1,note_on,51,25,0
1,note_on,51,0,456
1,note_on,63,0,0
1,note_on,60,0,0
1,note_on,56,0,0
1,note_on,63,29,24
1,note_on,60,24,0
1,note_on,56,24,0
1,note_on,51,24,0
1,note_on,51,0,456
1,note_on,63,0,0
1,note_on,60,0,0
1,note_on,56,0,0
1,note_on,63,28,24
1,note_on,60,24,0
1,note_on,56,24,0
1,note_on,51,24,0
1,note_on,51,0,456
1,note_on,63,0,0
1,note_on,60,0,0
1,note_on,56,0,0
1,note_on,63,28,24
1,note_on,56,23,0
1,note_on,51,23,0
1,note_on,60,23,0
1,note_on,60,0,456
1,note_on,63,0,0
1,note_on,56,0,0
1,note_on,51,0,0
1,note_on,60,27,24
1,note_on,56,23,0
1,note_on,51,23,0
1,note_on,51,0,456
1,note_on,56,0,0
1,note_on,60,0,0
1,note_on,60,27,24
1,note_on,56,22,0
1,note_on,51,22,0
1,note_on,51,0,456
1,note_on,56,0,0
1,note_on,60,0,0
1,note_on,60,26,24
1,note_on,56,22,0
1,note_on,51,22,0
1,note_on,51,0,456
1,note_on,56,0,0
1,note_on,60,0,0
1,note_on,60,26,24
1,note_on,56,21,0
1,note_on,51,21,0
1,note_on,51,0,456
1,note_on,56,0,0
1,note_on,60,0,0
1,note_on,56,25,24
1,note_on,51,21,0
1,note_on,48,21,0
1,note_on,48,0,456
1,note_on,51,0,0
1,note_on,56,0,0
1,note_on,56,24,24
1,note_on,51,20,0
1,note_on,48,20,0
1,note_on,48,0,456
1,note_on,51,0,0
1,note_on,56,0,0
1,note_on,56,24,24
1,note_on,51,20,0
1,note_on,48,20,0
1,note_on,48,0,456
1,note_on,51,0,0
1,note_on,56,0,0
1,note_on,56,23,24
1,note_on,51,19,0
1,note_on,48,19,0
1,note_on,48,0,480
1,note_on,51,0,0
1,note_on,56,0,0
1,note_on,48,22,720
1,note_on,51,27,0
1,note_on,51,0,480
1,note_on,48,0,0
1,note_on,44,19,480
1,note_on,48,23,0
1,note_on,48,0,1920
1,note_on,44,0,0
2,note_on,44,27,0
2,note_on,51,27,0
2,note_on,56,32,0
2,note_on,56,0,960
2,note_on,51,0,0
2,note_on,44,0,0
2,note_on,43,24,0
2,note_on,51,24,0
2,note_on,55,29,0
2,note_on,55,0,960
2,note_on,51,0,0
2,note_on,43,0,0
2,note_on,44,30,0
2,note_on,51,30,0
2,note_on,56,36,0
2,note_on,56,0,1440
2,note_on,51,0,0
2,note_on,44,0,0
2,note_on,55,27,480
2,note_on,61,32,0
2,note_on,61,0,480
2,note_on,58,32,0
2,note_on,58,0,480
2,note_on,55,0,0
2,note_on,56,29,0
2,note_on,60,32,480
2,note_on,60,0,480
2,note_on,56,0,0
2,note_on,51,30,0
2,note_on,63,36,0
2,note_on,63,0,1440
2,note_on,51,0,0
2,note_on,56,32,480
2,note_on,56,0,960
2,note_on,48,37,0
2,note_on,60,37,0
2,note_on,56,37,0
2,note_on,56,0,960
2,note_on,60,0,0
2,note_on,48,0,0
2,note_on,49,45,0
2,note_on,56,45,0
2,note_on,61,45,0
2,note_on,61,0,960
2,note_on,56,0,0
2,note_on,49,0,0
2,note_on,53,41,0
2,note_on,56,45,30
2,note_on,61,49,30
2,note_on,65,53,30
2,note_on,65,0,1830
2,note_on,53,0,0
2,note_on,56,0,0
2,note_on,61,0,0
2,note_on,55,31,0
2,note_on,63,37,0
2,note_on,63,0,480
2,note_on,55,0,0
2,note_on,63,34,0
2,note_on,56,28,0
2,note_on,56,0,480
2,note_on,63,0,0
2,note_on,60,37,0
2,note_on,51,31,0
2,note_on,60,0,720
2,note_on,56,31,0
2,note_on,56,0,240
2,note_on,51,0,0
2,note_on,51,26,0
2,note_on,55,31,0
2,note_on,55,0,480
2,note_on,51,0,0
2,note_on,44,36,480
2,note_on,51,28,240
2,note_on,51,0,228
2,note_on,51,29,12
2,note_on,51,0,228
2,note_on,51,29,12
2,note_on,51,0,240
2,note_on,44,0,0
2,note_on,43,36,0
2,note_on,51,28,240
2,note_on,51,0,228
2,note_on,51,28,12
2,note_on,51,0,228
2,note_on,51,28,12
2,note_on,51,0,240
2,note_on,43,0,0
2,note_on,44,36,0
2,note_on,44,0,240
2,note_on,51,32,0
2,note_on,51,0,240
2,note_on,48,36,0
2,note_on,48,0,240
2,note_on,56,32,0
2,note_on,56,0,240
2,note_on,51,40,0
2,note_on,51,0,240
2,note_on,60,36,0
2,note_on,60,0,240
2,note_on,56,47,0
2,note_on,56,0,240
2,note_on,63,36,0
2,note_on,63,0,240
2,note_on,55,45,0
2,note_on,63,29,240
2,note_on,63,0,228
2,note_on,63,29,12
2,note_on,63,0,228
2,note_on,63,29,12
2,note_on,63,0,240
2,note_on,55,0,0
2,note_on,56,36,0
2,note_on,63,29,240
2,note_on,63,0,228
2,note_on,63,29,12
2,note_on,63,0,228
2,note_on,63,29,12
2,note_on,63,0,240
2,note_on,56,0,0
2,note_on,51,41,0
2,note_on,51,0,240
2,note_on,63,32,0
2,note_on,63,0,240
2,note_on,62,33,0
2,note_on,62,0,240
2,note_on,63,33,0
2,note_on,63,0,240
2,note_on,62,36,0
2,note_on,62,0,240
2,note_on,63,31,0
2,note_on,63,0,240
2,note_on,65,36,0
2,note_on,65,0,240
2,note_on,61,33,0
2,note_on,61,0,240
2,note_on,56,32,240
2,note_on,56,0,240
2,note_on,60,32,0
2,note_on,60,0,240
2,note_on,63,29,0
2,note_on,63,0,200
2,note_on,48,32,280
2,note_on,48,0,240
2,note_on,51,32,0
2,note_on,51,0,240
2,note_on,56,30,0
2,note_on,56,0,240
2,note_on,49,38,240
2,note_on,53,38,0
2,note_on,55,42,240
2,note_on,53,0,12
2,note_on,56,45,228
2,note_on,55,0,12
2,note_on,57,49,228
2,note_on,56,0,12
2,note_on,58,52,228
2,note_on,57,0,12
2,note_on,60,48,228
2,note_on,58,0,12
2,note_on,61,51,228
2,note_on,60,0,12
2,note_on,49,0,228
2,note_on,51,32,0
2,note_on,63,51,0
2,note_on,61,0,12
2,note_on,63,0,228
2,note_on,62,45,0
2,note_on,62,0,240
2,note_on,61,46,0
2,note_on,61,0,240
2,note_on,60,46,0
2,note_on,60,0,240
2,note_on,51,0,0
2,note_on,51,32,0
2,note_on,58,51,0
2,note_on,58,0,240
2,note_on,60,44,0
2,note_on,60,0,240
2,note_on,61,44,0
2,note_on,61,0,240
2,note_on,55,44,0
2,note_on,55,0,230
2,note_on,51,0,10
2,note_on,44,32,0
2,note_on,55,51,0
2,note_on,55,0,960
2,note_on,56,31,0
2,note_on,56,0,480
2,note_on,44,0,0
2,note_on,63,76,480
2,note_on,65,76,0
2,note_on,60,76,0
2,note_on,57,76,0
2,note_on,65,0,958
2,note_on,63,0,2
2,note_on,60,0,0
2,note_on,57,0,0
2,note_on,45,30,840
2,note_on,53,36,0
2,note_on,53,0,110
2,note_on,45,0,0
2,note_on,46,35,10
2,note_on,53,41,0
2,note_on,53,0,1440
2,note_on,46,0,0
2,note_on,61,76,480
2,note_on,63,76,0
2,note_on,58,76,0
2,note_on,55,76,0
2,note_on,63,0,958
2,note_on,61,0,2
2,note_on,58,0,0
2,note_on,55,0,0
2,note_on,43,30,840
2,note_on,51,36,0
2,note_on,51,0,110
2,note_on,43,0,0
2,note_on,44,35,10
2,note_on,51,41,0
2,note_on,51,0,1440
2,note_on,44,0,0
2,note_on,47,89,450
2,note_on,59,92,30
2,note_on,47,0,60
2,note_on,59,0,660
2,note_on,59,59,0
2,note_on,59,0,40
2,note_on,56,57,0
2,note_on,56,0,40
2,note_on,51,56,1
2,note_on,47,56,39
2,note_on,51,0,1
2,note_on,47,0,39
2,note_on,44,55,1
2,note_on,44,0,40
2,note_on,39,53,0
2,note_on,35,91,39
2,note_on,39,0,1
2,note_on,35,0,239
2,note_on,35,46,600
2,note_on,47,46,0
2,note_on,47,0,110
2,note_on,35,0,0
2,note_on,56,59,10
2,note_on,53,59,0
2,note_on,34,59,0
2,note_on,46,59,0
2,note_on,46,0,1440
2,note_on,56,0,0
2,note_on,53,0,0
2,note_on,34,0,0
2,note_on,58,35,2400
2,note_on,56,29,0
2,note_on,56,0,456
2,note_on,58,0,0
2,note_on,58,30,24
2,note_on,56,25,0
2,note_on,56,0,456
2,note_on,58,0,0
2,note_on,58,30,24
2,note_on,56,25,0
2,note_on,56,0,456
2,note_on,58,0,0
2,note_on,58,30,24
2,note_on,56,25,0
2,note_on,56,0,456
2,note_on,58,0,0
2,note_on,58,35,24
2,note_on,55,29,0
2,note_on,55,0,456
2,note_on,58,0,0
2,note_on,58,28,24
2,note_on,55,23,0
2,note_on,55,0,456
2,note_on,58,0,0
2,note_on,58,28,24
2,note_on,55,23,0
2,note_on,55,0,456
2,note_on,58,0,0
2,note_on,58,28,24
2,note_on,55,23,0
2,note_on,55,0,456
2,note_on,58,0,0
2,note_on,50,29,24
2,note_on,58,35,0
2,note_on,56,29,0
2,note_on,56,0,456
2,note_on,58,0,0
2,note_on,50,0,0
2,note_on,50,27,24
2,note_on,58,33,0
2,note_on,56,27,0
2,note_on,56,0,456
2,note_on,58,0,0
2,note_on,50,0,0
2,note_on,50,27,24
2,note_on,58,33,0
2,note_on,56,27,0
2,note_on,56,0,456
2,note_on,58,0,0
2,note_on,50,0,0
2,note_on,55,46,24
2,note_on,50,25,0
2,note_on,58,30,0
2,note_on,55,0,360
2,note_on,53,46,0
2,note_on,53,0,110
2,note_on,58,0,10
2,note_on,50,0,0
2,note_on,51,29,0
2,note_on,58,35,0
2,note_on,54,29,0
2,note_on,54,0,456
2,note_on,58,0,0
2,note_on,51,0,0
2,note_on,51,23,24
2,note_on,58,28,0
2,note_on,55,23,0
2,note_on,55,0,456
2,note_on,58,0,0
2,note_on,51,0,0
2,note_on,51,23,24
2,note_on,58,28,0
2,note_on,55,23,0
2,note_on,55,0,456
2,note_on,58,0,0
2,note_on,51,0,0
2,note_on,51,28,24
2,note_on,58,28,0
2,note_on,55,23,0
2,note_on,55,0,456
2,note_on,58,0,0
2,note_on,51,0,0
2,note_on,56,25,24
2,note_on,58,30,0
2,note_on,58,0,456
2,note_on,56,0,0
2,note_on,56,25,24
2,note_on,58,30,0
2,note_on,58,0,456
2,note_on,56,0,0
2,note_on,56,25,24
2,note_on,58,30,0
2,note_on,58,0,456
2,note_on,56,0,0
2,note_on,56,25,24
2,note_on,58,30,0
2,note_on,58,0,456
2,note_on,56,0,0
2,note_on,55,25,504
2,note_on,58,30,0
2,note_on,58,0,456
2,note_on,55,0,0
2,note_on,55,25,24
2,note_on,58,30,0
2,note_on,58,0,456
2,note_on,55,0,0
2,note_on,55,25,24
2,note_on,58,30,0
2,note_on,58,0,456
2,note_on,55,0,0
2,note_on,50,25,24
2,note_on,56,25,0
2,note_on,58,30,0
2,note_on,58,0,456
2,note_on,56,0,0
2,note_on,50,0,0
2,note_on,50,25,24
2,note_on,53,25,0
2,note_on,56,25,0
2,note_on,58,30,0
2,note_on,58,0,456
2,note_on,50,0,0
2,note_on,53,0,0
2,note_on,56,0,0
2,note_on,50,25,24
2,note_on,53,25,0
2,note_on,56,25,0
2,note_on,58,30,0
2,note_on,58,0,456
2,note_on,50,0,0
2,note_on,53,0,0
2,note_on,56,0,0
2,note_on,50,25,24
2,note_on,53,25,0
2,note_on,56,25,0
2,note_on,58,30,0
2,note_on,58,0,456
2,note_on,50,0,0
2,note_on,53,0,0
2,note_on,56,0,0
2,note_on,51,30,504
2,note_on,55,30,0
2,note_on,58,30,0
2,note_on,58,0,480
2,note_on,55,0,0
2,note_on,51,0,0
2,note_on,53,32,480
2,note_on,56,32,0
2,note_on,58,32,0
2,note_on,62,32,0
2,note_on,62,0,480
2,note_on,53,0,0
2,note_on,56,0,0
2,note_on,58,0,0
2,note_on,55,37,480
2,note_on,58,37,0
2,note_on,63,37,0
2,note_on,63,0,480
2,note_on,58,0,0
2,note_on,55,0,0
2,note_on,55,43,480
2,note_on,59,43,0
2,note_on,63,43,0
2,note_on,63,0,480
2,note_on,59,0,0
2,note_on,55,0,0
2,note_on,56,51,480
2,note_on,60,51,0
2,note_on,63,51,0
2,note_on,63,0,480
2,note_on,60,0,0
2,note_on,56,0,0
2,note_on,59,60,480
2,note_on,56,60,0
2,note_on,62,60,0
2,note_on,65,60,0
2,note_on,65,0,480
2,note_on,59,0,0
2,note_on,56,0,0
2,note_on,62,0,0
2,note_on,57,60,480
2,note_on,60,60,0
2,note_on,63,60,0
2,note_on,66,60,0
2,note_on,66,0,480
2,note_on,57,0,0
2,note_on,60,0,0
2,note_on,63,0,0
2,note_on,67,36,1440
2,note_on,63,30,0
2,note_on,58,27,0
2,note_on,58,0,480
2,note_on,63,0,0
2,note_on,67,0,0
2,note_on,68,36,480
2,note_on,62,31,0
2,note_on,58,27,0
2,note_on,58,0,480
2,note_on,62,0,0
2,note_on,68,0,0
2,note_on,63,32,320
2,note_on,63,0,160
2,note_on,58,39,0
2,note_on,58,0,160
2,note_on,55,32,0
2,note_on,55,0,160
2,note_on,51,32,0
2,note_on,51,0,160
2,note_on,65,34,320
2,note_on,65,0,160
2,note_on,62,39,0
2,note_on,62,0,160
2,note_on,58,33,0
2,note_on,58,0,160
2,note_on,53,33,0
2,note_on,53,0,160
2,note_on,67,33,320
2,note_on,67,0,160
2,note_on,63,40,0
2,note_on,63,0,160
2,note_on,58,34,0
2,note_on,58,0,160
2,note_on,55,34,0
2,note_on,55,0,160
2,note_on,67,46,320
2,note_on,67,0,160
2,note_on,63,53,0
2,note_on,63,0,160
2,note_on,59,46,0
2,note_on,59,0,160
2,note_on,55,46,0
2,note_on,55,0,160
2,note_on,68,47,320
2,note_on,68,0,160
2,note_on,63,58,0
2,note_on,63,0,160
2,note_on,60,49,0
2,note_on,60,0,160
2,note_on,56,49,0
2,note_on,56,0,160
2,note_on,68,56,320
2,note_on,68,0,160
2,note_on,65,63,0
2,note_on,65,0,160
2,note_on,62,54,0
2,note_on,62,0,160
2,note_on,58,55,0
2,note_on,58,0,160
2,note_on,69,78,320
2,note_on,66,57,160
2,note_on,63,61,160
2,note_on,59,65,160
2,note_on,59,0,1120
2,note_on,69,0,0
2,note_on,66,0,0
2,note_on,63,0,0
2,note_on,46,64,160
2,note_on,46,0,80
2,note_on,51,64,80
2,note_on,51,0,80
2,note_on,55,64,80
2,note_on,55,0,80
2,note_on,58,58,80
2,note_on,58,0,80
2,note_on,63,58,80
2,note_on,63,0,80
2,note_on,67,64,80
2,note_on,67,0,160
2,note_on,66,58,0
2,note_on,66,0,160
2,note_on,68,58,0
2,note_on,68,0,160
2,note_on,67,64,0
2,note_on,67,0,120
2,note_on,65,59,40
2,note_on,65,0,120
2,note_on,63,59,40
2,note_on,63,0,120
2,note_on,68,62,40
2,note_on,58,52,0
2,note_on,58,0,1920
2,note_on,68,0,0
2,note_on,34,64,160
2,note_on,34,0,80
2,note_on,39,64,80
2,note_on,39,0,80
2,note_on,43,64,80
2,note_on,43,0,80
2,note_on,46,58,80
2,note_on,46,0,80
2,note_on,51,58,80
2,note_on,51,0,80
2,note_on,55,64,80
2,note_on,55,0,160
2,note_on,54,58,0
2,note_on,54,0,160
2,note_on,56,58,0
2,note_on,56,0,160
2,note_on,55,64,0
2,note_on,55,0,120
2,note_on,53,59,40
2,note_on,53,0,120
2,note_on,51,59,40
2,note_on,51,0,120
2,note_on,56,62,40
2,note_on,46,52,0
2,note_on,46,0,1920
2,note_on,56,0,0
2,note_on,51,37,0
2,note_on,55,43,0
2,note_on,55,0,480
2,note_on,51,0,0
2,note_on,39,64,1320
2,note_on,46,67,25
2,note_on,49,67,5
2,note_on,51,69,15
2,note_on,51,0,555
2,note_on,49,0,0
2,note_on,39,0,0
2,note_on,46,0,10
2,note_on,44,39,1430
2,note_on,44,0,480
2,note_on,51,32,0
2,note_on,51,0,480
2,note_on,43,39,0
2,note_on,43,0,480
2,note_on,51,29,0
2,note_on,51,0,480
2,note_on,44,42,0
2,note_on,44,0,480
2,note_on,51,36,0
2,note_on,51,0,480
2,note_on,56,38,0
2,note_on,56,0,480
2,note_on,60,40,0
2,note_on,60,0,480
2,note_on,55,46,0
2,note_on,61,46,0
2,note_on,61,0,480
2,note_on,58,32,0
2,note_on,58,0,480
2,note_on,55,0,0
2,note_on,56,29,0
2,note_on,60,32,480
2,note_on,60,0,480
2,note_on,56,0,0
2,note_on,51,30,0
2,note_on,63,36,0
2,note_on,61,32,480
2,note_on,61,0,480
2,note_on,58,32,0
2,note_on,58,0,480
2,note_on,55,32,0
2,note_on,55,0,480
2,note_on,63,0,0
2,note_on,51,0,0
2,note_on,56,37,360
2,note_on,56,0,120
2,note_on,63,46,0
2,note_on,63,0,480
2,note_on,48,39,360
2,note_on,48,0,120
2,note_on,56,48,0
2,note_on,56,0,480
2,note_on,49,51,360
2,note_on,49,0,120
2,note_on,61,56,0
2,note_on,61,0,360
2,note_on,53,56,0
2,note_on,61,62,120
2,note_on,61,0,360
2,note_on,56,56,0
2,note_on,56,0,120
2,note_on,65,65,0
2,note_on,65,0,360
2,note_on,61,65,0
2,note_on,61,0,120
2,note_on,56,72,0
2,note_on,56,0,480
2,note_on,53,0,0
2,note_on,53,40,0
2,note_on,56,48,0
2,note_on,56,0,480
2,note_on,53,0,0
2,note_on,55,48,0
2,note_on,58,57,0
2,note_on,58,0,480
2,note_on,55,0,0
2,note_on,60,48,0
2,note_on,56,40,0
2,note_on,56,0,480
2,note_on,60,0,0
2,note_on,60,43,0
2,note_on,51,43,0
2,note_on,60,0,720
2,note_on,56,31,0
2,note_on,56,0,240
2,note_on,51,0,0
2,note_on,51,26,0
2,note_on,55,31,0
2,note_on,55,0,480
2,note_on,51,0,0
2,note_on,44,36,480
2,note_on,51,28,240
2,note_on,51,0,228
2,note_on,51,29,12
2,note_on,51,0,228
2,note_on,51,29,12
2,note_on,51,0,228
2,note_on,44,0,12
2,note_on,43,36,0
2,note_on,51,28,240
2,note_on,51,0,228
2,note_on,51,28,12
2,note_on,51,0,228
2,note_on,51,28,12
2,note_on,51,0,228
2,note_on,43,0,12
2,note_on,44,43,0
2,note_on,44,0,120
2,note_on,51,36,40
2,note_on,51,0,120
2,note_on,48,36,40
2,note_on,48,0,120
2,note_on,56,40,40
2,note_on,56,0,120
2,note_on,51,36,40
2,note_on,51,0,120
2,note_on,60,36,40
2,note_on,60,0,120
2,note_on,56,43,40
2,note_on,56,0,120
2,note_on,63,36,40
2,note_on,63,0,120
2,note_on,61,36,40
2,note_on,61,0,120
2,note_on,60,47,40
2,note_on,60,0,120
2,note_on,58,36,40
2,note_on,58,0,120
2,note_on,56,36,40
2,note_on,56,0,120
2,note_on,55,45,40
2,note_on,51,29,240
2,note_on,51,0,228
2,note_on,51,29,12
2,note_on,51,0,228
2,note_on,51,29,12
2,note_on,51,0,228
2,note_on,55,0,12
2,note_on,56,36,0
2,note_on,51,29,240
2,note_on,51,0,228
2,note_on,51,29,12
2,note_on,51,0,228
2,note_on,51,29,12
2,note_on,51,0,228
2,note_on,56,0,12
2,note_on,39,41,0
2,note_on,39,0,120
2,note_on,43,38,40
2,note_on,43,0,120
2,note_on,46,38,40
2,note_on,46,0,120
2,note_on,51,48,40
2,note_on,51,0,120
2,note_on,55,48,40
2,note_on,55,0,120
2,note_on,58,51,40
2,note_on,58,0,120
2,note_on,61,55,40
2,note_on,61,0,120
2,note_on,65,49,40
2,note_on,65,0,120
2,note_on,63,49,40
2,note_on,63,0,120
2,note_on,61,53,40
2,note_on,61,0,120
2,note_on,60,44,40
2,note_on,60,0,120
2,note_on,58,44,40
2,note_on,58,0,120
2,note_on,56,39,40
2,note_on,56,0,120
2,note_on,63,42,40
2,note_on,63,0,120
2,note_on,60,37,40
2,note_on,60,0,120
2,note_on,56,42,40
2,note_on,56,0,120
2,note_on,51,32,40
2,note_on,51,0,120
2,note_on,48,32,40
2,note_on,48,0,120
2,note_on,60,36,200
2,note_on,60,0,120
2,note_on,56,36,40
2,note_on,56,0,120
2,note_on,51,47,40
2,note_on,51,0,120
2,note_on,48,38,40
2,note_on,48,0,120
2,note_on,44,40,40
2,note_on,44,0,120
2,note_on,49,32,200
2,note_on,51,36,160
2,note_on,53,36,160
2,note_on,51,0,8
2,note_on,54,41,152
2,note_on,53,0,8
2,note_on,55,43,152
2,note_on,54,0,8
2,note_on,56,46,152
2,note_on,55,0,8
2,note_on,57,48,152
2,note_on,56,0,8
2,note_on,58,49,152
2,note_on,57,0,8
2,note_on,59,52,152
2,note_on,58,0,8
2,note_on,60,54,152
2,note_on,59,0,8
2,note_on,61,57,152
2,note_on,60,0,8
2,note_on,61,0,152
2,note_on,49,0,0
2,note_on,51,56,0
2,note_on,63,56,160
2,note_on,63,0,160
2,note_on,62,45,0
2,note_on,62,0,160
2,note_on,61,46,160
2,note_on,61,0,160
2,note_on,60,46,0
2,note_on,60,0,160
2,note_on,51,0,0
2,note_on,51,32,0
2,note_on,58,51,160
2,note_on,58,0,160
2,note_on,60,44,0
2,note_on,60,0,160
2,note_on,61,44,160
2,note_on,61,0,160
2,note_on,55,44,0
2,note_on,55,0,160
2,note_on,51,0,0
2,note_on,44,32,0
2,note_on,55,51,0
2,note_on,55,0,960
2,note_on,56,35,0
2,note_on,56,0,480
2,note_on,44,0,0
2,note_on,63,76,480
2,note_on,65,76,0
2,note_on,60,76,0
2,note_on,57,76,0
2,note_on,65,0,958
2,note_on,63,0,2
2,note_on,60,0,0
2,note_on,57,0,0
2,note_on,45,30,840
2,note_on,53,36,0
2,note_on,53,0,110
2,note_on,45,0,0
2,note_on,46,35,10
2,note_on,53,41,0
2,note_on,53,0,1440
2,note_on,46,0,0
2,note_on,61,76,480
2,note_on,63,76,0
2,note_on,58,76,0
2,note_on,55,76,0
2,note_on,63,0,958
2,note_on,61,0,2
2,note_on,58,0,0
2,note_on,55,0,0
2,note_on,43,30,840
2,note_on,51,36,0
2,note_on,51,0,110
2,note_on,43,0,0
2,note_on,44,35,10
2,note_on,51,41,0
2,note_on,51,0,1440
2,note_on,44,0,0
2,note_on,47,89,450
2,note_on,59,92,30
2,note_on,47,0,60
2,note_on,59,0,660
2,note_on,59,59,0
2,note_on,59,0,40
2,note_on,56,57,0
2,note_on,56,0,40
2,note_on,52,56,0
2,note_on,52,0,40
2,note_on,47,56,0
2,note_on,47,0,40
2,note_on,44,55,1
2,note_on,40,53,39
2,note_on,44,0,1
2,note_on,40,0,39
2,note_on,35,91,0
2,note_on,35,0,240
2,note_on,35,46,600
2,note_on,47,46,0
2,note_on,47,0,110
2,note_on,35,0,0
2,note_on,35,70,10
2,note_on,47,52,0
2,note_on,47,0,1440
2,note_on,35,0,0
2,note_on,35,46,360
2,note_on,47,46,0
2,note_on,47,0,110
2,note_on,35,0,0
2,note_on,35,70,10
2,note_on,47,52,0
2,note_on,47,0,960
2,note_on,35,0,0
2,note_on,34,43,0
2,note_on,46,46,0
2,note_on,46,0,480
2,note_on,34,0,0
2,note_on,34,46,360
2,note_on,46,46,0
2,note_on,46,0,110
2,note_on,34,0,0
2,note_on,34,70,10
2,note_on,46,52,0
2,note_on,46,0,960
2,note_on,34,0,0
2,note_on,39,43,0
2,note_on,51,46,0
2,note_on,51,0,240
2,note_on,39,0,0
2,note_on,63,35,2640
2,note_on,61,29,0
2,note_on,61,0,456
2,note_on,63,0,0
2,note_on,63,30,24
2,note_on,61,25,0
2,note_on,61,0,456
2,note_on,63,0,0
2,note_on,63,30,24
2,note_on,61,25,0
2,note_on,61,0,456
2,note_on,63,0,0
2,note_on,63,30,24
2,note_on,61,25,0
2,note_on,61,0,456
2,note_on,63,0,0
2,note_on,63,35,24
2,note_on,60,29,0
2,note_on,60,0,456
2,note_on,63,0,0
2,note_on,63,28,24
2,note_on,60,23,0
2,note_on,60,0,456
2,note_on,63,0,0
2,note_on,63,28,24
2,note_on,60,23,0
2,note_on,60,0,456
2,note_on,63,0,0
2,note_on,63,28,24
2,note_on,60,23,0
2,note_on,60,0,456
2,note_on,63,0,0
2,note_on,55,29,24
2,note_on,63,35,0
2,note_on,61,29,0
2,note_on,61,0,456
2,note_on,63,0,0
2,note_on,55,0,0
2,note_on,55,25,24
2,note_on,63,30,0
2,note_on,61,25,0
2,note_on,61,0,456
2,note_on,63,0,0
2,note_on,55,0,0
2,note_on,55,25,24
2,note_on,63,30,0
2,note_on,61,25,0
2,note_on,61,0,456
2,note_on,63,0,0
2,note_on,55,0,0
2,note_on,55,25,24
2,note_on,63,30,0
2,note_on,60,25,0
2,note_on,60,0,360
2,note_on,58,25,0
2,note_on,58,0,120
2,note_on,63,0,0
2,note_on,55,0,0
2,note_on,56,29,0
2,note_on,63,35,0
2,note_on,59,29,0
2,note_on,59,0,456
2,note_on,63,0,0
2,note_on,56,0,0
2,note_on,56,23,24
2,note_on,63,28,0
2,note_on,60,23,0
2,note_on,60,0,456
2,note_on,63,0,0
2,note_on,56,0,0
2,note_on,56,23,24
2,note_on,63,28,0
2,note_on,60,23,0
2,note_on,60,0,456
2,note_on,63,0,0
2,note_on,56,0,0
2,note_on,56,28,24
2,note_on,63,28,0
2,note_on,60,23,0
2,note_on,60,0,456
2,note_on,63,0,0
2,note_on,56,0,0
2,note_on,61,25,24
2,note_on,63,30,0
2,note_on,63,0,456
2,note_on,61,0,0
2,note_on,61,25,24
2,note_on,63,30,0
2,note_on,63,0,456
2,note_on,61,0,0
2,note_on,61,25,24
2,note_on,63,30,0
2,note_on,63,0,456
2,note_on,61,0,0
2,note_on,61,25,24
2,note_on,63,30,0
2,note_on,63,0,456
2,note_on,61,0,0
2,note_on,60,25,504
2,note_on,63,30,0
2,note_on,63,0,456
2,note_on,60,0,0
2,note_on,60,25,24
2,note_on,63,30,0
2,note_on,63,0,456
2,note_on,60,0,0
2,note_on,60,25,24
2,note_on,63,30,0
2,note_on,63,0,456
2,note_on,60,0,0
2,note_on,55,25,24
2,note_on,61,25,0
2,note_on,63,30,0
2,note_on,63,0,456
2,note_on,61,0,0
2,note_on,55,0,0
2,note_on,55,25,24
2,note_on,58,25,0
2,note_on,61,25,0
2,note_on,63,30,0
2,note_on,63,0,456
2,note_on,55,0,0
2,note_on,58,0,0
2,note_on,61,0,0
2,note_on,55,25,24
2,note_on,58,25,0
2,note_on,61,25,0
2,note_on,63,30,0
2,note_on,63,0,456
2,note_on,55,0,0
2,note_on,58,0,0
2,note_on,61,0,0
2,note_on,55,25,24
2,note_on,58,25,0
2,note_on,61,25,0
2,note_on,63,30,0
2,note_on,63,0,456
2,note_on,55,0,0
2,note_on,58,0,0
2,note_on,61,0,0
2,note_on,56,30,504
2,note_on,60,30,0
2,note_on,63,30,0
2,note_on,63,0,480
2,note_on,60,0,0
2,note_on,56,0,0
2,note_on,58,32,480
2,note_on,61,32,0
2,note_on,63,32,0
2,note_on,67,32,0
2,note_on,67,0,480
2,note_on,58,0,0
2,note_on,61,0,0
2,note_on,63,0,0
2,note_on,60,37,480
2,note_on,63,37,0
2,note_on,68,37,0
2,note_on,68,0,480
2,note_on,63,0,0
2,note_on,60,0,0
2,note_on,60,43,480
2,note_on,64,43,0
2,note_on,68,43,0
2,note_on,68,0,480
2,note_on,64,0,0
2,note_on,60,0,0
2,note_on,61,51,480
2,note_on,65,51,0
2,note_on,68,51,0
2,note_on,68,0,480
2,note_on,65,0,0
2,note_on,61,0,0
2,note_on,64,60,480
2,note_on,61,60,0
2,note_on,67,60,0
2,note_on,70,60,0
2,note_on,70,0,480
2,note_on,64,0,0
2,note_on,61,0,0
2,note_on,67,0,0
2,note_on,62,60,480
2,note_on,65,60,0
2,note_on,68,60,0
2,note_on,71,60,0
2,note_on,71,0,480
2,note_on,62,0,0
2,note_on,65,0,0
2,note_on,68,0,0
2,note_on,60,40,1440
2,note_on,56,34,0
2,note_on,51,34,0
2,note_on,51,0,480
2,note_on,56,0,0
2,note_on,60,0,0
2,note_on,61,40,480
2,note_on,55,34,0
2,note_on,51,34,0
2,note_on,51,0,480
2,note_on,55,0,0
2,note_on,61,0,0
2,note_on,56,32,320
2,note_on,56,0,160
2,note_on,51,39,0
2,note_on,51,0,160
2,note_on,48,32,0
2,note_on,48,0,160
2,note_on,44,32,0
2,note_on,44,0,160
2,note_on,58,34,320
2,note_on,58,0,160
2,note_on,55,39,0
2,note_on,55,0,160
2,note_on,51,33,0
2,note_on,51,0,160
2,note_on,46,33,0
2,note_on,46,0,160
2,note_on,60,33,320
2,note_on,60,0,160
2,note_on,56,40,0
2,note_on,56,0,160
2,note_on,51,34,0
2,note_on,51,0,160
2,note_on,48,34,0
2,note_on,48,0,160
2,note_on,60,46,320
2,note_on,60,0,160
2,note_on,56,53,0
2,note_on,56,0,160
2,note_on,52,46,0
2,note_on,52,0,160
2,note_on,48,46,0
2,note_on,48,0,160
2,note_on,61,47,320
2,note_on,61,0,160
2,note_on,56,58,0
2,note_on,56,0,160
2,note_on,53,49,0
2,note_on,53,0,160
2,note_on,49,49,0
2,note_on,49,0,160
2,note_on,61,56,320
2,note_on,61,0,160
2,note_on,58,63,0
2,note_on,58,0,160
2,note_on,55,54,0
2,note_on,55,0,160
2,note_on,51,55,0
2,note_on,51,0,160
2,note_on,62,78,320
2,note_on,59,57,160
2,note_on,56,61,160
2,note_on,52,65,160
2,note_on,52,0,1120
2,note_on,62,0,0
2,note_on,59,0,0
2,note_on,56,0,0
2,note_on,51,64,160
2,note_on,51,0,80
2,note_on,56,64,80
2,note_on,56,0,80
2,note_on,60,64,80
2,note_on,60,0,80
2,note_on,63,58,80
2,note_on,63,0,80
2,note_on,68,58,80
2,note_on,68,0,80
2,note_on,72,64,80
2,note_on,72,0,160
2,note_on,71,58,0
2,note_on,71,0,160
2,note_on,73,58,0
2,note_on,73,0,160
2,note_on,72,64,0
2,note_on,72,0,120
2,note_on,70,59,40
2,note_on,70,0,120
2,note_on,68,59,40
2,note_on,68,0,120
2,note_on,73,62,40
2,note_on,63,52,0
2,note_on,63,0,1920
2,note_on,73,0,0
2,note_on,39,64,160
2,note_on,39,0,80
2,note_on,44,64,80
2,note_on,44,0,80
2,note_on,48,64,80
2,note_on,48,0,80
2,note_on,51,58,80
2,note_on,51,0,80
2,note_on,56,58,80
2,note_on,56,0,80
2,note_on,60,64,80
2,note_on,60,0,160
2,note_on,59,58,0
2,note_on,59,0,160
2,note_on,61,58,0
2,note_on,61,0,160
2,note_on,60,64,0
2,note_on,60,0,120
2,note_on,58,59,40
2,note_on,58,0,120
2,note_on,56,59,40
2,note_on,56,0,120
2,note_on,61,62,40
2,note_on,51,52,0
2,note_on,51,0,1920
2,note_on,61,0,0
2,note_on,56,39,0
2,note_on,56,0,480
2,note_on,51,32,0
2,note_on,51,0,480
2,note_on,55,39,0
2,note_on,55,0,480
2,note_on,51,29,0
2,note_on,51,0,480
2,note_on,56,42,0
2,note_on,56,0,480
2,note_on,51,36,0
2,note_on,51,0,480
2,note_on,48,38,0
2,note_on,48,0,480
2,note_on,44,40,0
2,note_on,44,0,480
2,note_on,43,46,0
2,note_on,43,0,480
2,note_on,39,32,0
2,note_on,39,0,480
2,note_on,44,29,0
2,note_on,44,0,480
2,note_on,48,32,0
2,note_on,48,0,480
2,note_on,51,36,0
2,note_on,51,0,480
2,note_on,53,42,0
2,note_on,53,0,480
2,note_on,51,36,0
2,note_on,49,33,480
2,note_on,49,0,480
2,note_on,48,43,0
2,note_on,51,0,480
2,note_on,56,43,0
2,note_on,48,0,480
2,note_on,46,36,0
2,note_on,56,0,480
2,note_on,55,43,0
2,note_on,46,0,480
2,note_on,44,46,0
2,note_on,55,0,480
2,note_on,56,43,0
2,note_on,44,0,480
2,note_on,49,45,0
2,note_on,56,0,480
2,note_on,58,43,0
2,note_on,58,0,240
2,note_on,61,41,0
2,note_on,61,0,240
2,note_on,49,0,0
2,note_on,51,53,0
2,note_on,60,53,480
2,note_on,51,0,480
2,note_on,51,36,0
2,note_on,60,0,480
2,note_on,55,53,0
2,note_on,51,0,480
2,note_on,44,49,0
2,note_on,51,49,0
2,note_on,55,0,480
2,note_on,56,53,0
2,note_on,56,0,480
2,note_on,51,0,0
2,note_on,44,0,0
2,note_on,46,46,0
2,note_on,51,46,0
2,note_on,58,55,0
2,note_on,58,0,480
2,note_on,51,0,0
2,note_on,46,0,0
2,note_on,47,50,0
2,note_on,51,50,0
2,note_on,59,59,0
2,note_on,59,0,480
2,note_on,51,0,0
2,note_on,47,0,0
2,note_on,60,53,0
2,note_on,48,64,0
2,note_on,51,64,0
2,note_on,56,53,240
2,note_on,60,0,240
2,note_on,56,0,240
2,note_on,56,53,0
2,note_on,51,0,240
2,note_on,48,0,0
2,note_on,46,52,0
2,note_on,51,52,0
2,note_on,56,0,240
2,note_on,55,53,0
2,note_on,55,0,480
2,note_on,55,53,0
2,note_on,51,0,240
2,note_on,46,0,0
2,note_on,44,55,0
2,note_on,55,0,240
2,note_on,56,53,0
2,note_on,56,0,480
2,note_on,56,53,0
2,note_on,44,0,240
2,note_on,49,48,0
2,note_on,57,53,240
2,note_on,57,0,240
2,note_on,56,0,0
2,note_on,58,53,0
2,note_on,58,0,240
2,note_on,61,53,0
2,note_on,49,0,240
2,note_on,51,58,0
2,note_on,61,0,480
2,note_on,60,53,0
2,note_on,60,0,480
2,note_on,51,0,0
2,note_on,61,53,0
2,note_on,51,52,0
2,note_on,61,0,480
2,note_on,58,46,0
2,note_on,61,46,0
2,note_on,61,0,480
2,note_on,58,0,0
2,note_on,51,0,0
2,note_on,44,40,0
2,note_on,56,40,0
2,note_on,56,0,480
2,note_on,44,0,0
2,note_on,48,36,0
2,note_on,48,0,480
2,note_on,51,36,0
2,note_on,51,0,480
2,note_on,56,36,0
2,note_on,56,0,480
2,note_on,55,40,0
2,note_on,55,0,480
2,note_on,53,36,0
2,note_on,53,0,480
2,note_on,51,36,0
2,note_on,51,0,480
2,note_on,55,39,0
2,note_on,55,0,480
2,note_on,56,40,0
2,note_on,56,0,480
2,note_on,51,36,0
2,note_on,51,0,480
2,note_on,48,36,0
2,note_on,48,0,480
2,note_on,44,33,0
2,note_on,44,0,480
2,note_on,43,40,0
2,note_on,43,0,480
2,note_on,41,37,0
2,note_on,41,0,480
2,note_on,39,40,0
2,note_on,39,0,480
2,note_on,43,38,0
2,note_on,43,0,480
2,note_on,44,40,0
2,note_on,44,0,480
2,note_on,39,36,0
2,note_on,39,0,480
2,note_on,36,36,0
2,note_on,36,0,480
2,note_on,32,30,0
2,note_on,44,36,0
2,note_on,44,0,480
2,note_on,32,0,0
2,note_on,31,34,0
2,note_on,43,40,0
2,note_on,43,0,480
2,note_on,31,0,0
2,note_on,29,30,0
2,note_on,41,36,0
2,note_on,41,0,480
2,note_on,29,0,0
2,note_on,31,30,0
2,note_on,43,36,0
2,note_on,43,0,480
2,note_on,31,0,0
2,note_on,39,39,0
2,note_on,39,0,480
2,note_on,32,40,0
2,note_on,32,0,480
2,note_on,44,35,0
2,note_on,39,34,480
2,note_on,39,0,480
2,note_on,36,31,0
2,note_on,36,0,480
2,note_on,32,31,0
2,note_on,32,0,480
2,note_on,44,0,0
2,note_on,44,33,0
2,note_on,39,35,480
2,note_on,39,0,480
2,note_on,36,33,0
2,note_on,36,0,480
2,note_on,32,29,0
2,note_on,32,0,480
2,note_on,44,0,0
2,note_on,44,31,0
2,note_on,39,32,480
2,note_on,39,0,480
2,note_on,36,30,0
2,note_on,36,0,480
2,note_on,32,26,0
2,note_on,32,0,480
2,note_on,44,0,0
2,note_on,32,24,480
2,note_on,32,0,480
2,note_on,32,25,480
2,note_on,32,0,1920
