Track,Message Type,Note,Velocity,Time
1,note_on,57,42,0
1,note_on,57,0,720
1,note_on,61,40,0
1,note_on,61,0,720
1,note_on,66,40,0
1,note_on,61,40,0
1,note_on,73,48,0
1,note_on,69,40,0
1,note_on,69,0,480
1,note_on,73,0,0
1,note_on,69,42,0
1,note_on,69,0,240
1,note_on,61,0,0
1,note_on,66,0,0
1,note_on,61,39,0
1,note_on,69,47,0
1,note_on,69,0,240
1,note_on,61,0,0
1,note_on,61,34,0
1,note_on,66,41,0
1,note_on,66,0,240
1,note_on,61,0,0
1,note_on,59,34,0
1,note_on,65,34,0
1,note_on,68,41,0
1,note_on,61,34,0
1,note_on,61,0,240
1,note_on,59,0,0
1,note_on,65,0,0
1,note_on,68,0,0
1,note_on,57,42,0
1,note_on,66,42,0
1,note_on,69,50,0
1,note_on,61,42,0
1,note_on,61,0,720
1,note_on,57,0,0
1,note_on,66,0,0
1,note_on,69,0,0
1,note_on,59,47,0
1,note_on,71,56,0
1,note_on,66,47,0
1,note_on,66,0,480
1,note_on,71,0,0
1,note_on,59,0,0
1,note_on,66,46,0
1,note_on,62,46,0
1,note_on,74,55,0
1,note_on,62,0,238
1,note_on,66,0,0
1,note_on,74,0,0
1,note_on,62,52,2
1,note_on,74,62,0
1,note_on,66,52,0
1,note_on,66,0,480
1,note_on,74,0,0
1,note_on,62,0,0
1,note_on,66,48,0
1,note_on,73,57,0
1,note_on,61,48,0
1,note_on,61,0,238
1,note_on,73,0,0
1,note_on,66,0,0
1,note_on,66,53,2
1,note_on,73,64,0
1,note_on,61,53,0
1,note_on,61,0,240
1,note_on,73,0,0
1,note_on,66,0,0
1,note_on,65,49,0
1,note_on,71,49,0
1,note_on,73,49,0
1,note_on,77,60,0
1,note_on,77,0,240
1,note_on,65,0,0
1,note_on,71,0,0
1,note_on,73,0,0
1,note_on,73,57,0
1,note_on,69,52,0
1,note_on,66,52,0
1,note_on,78,68,0
1,note_on,78,0,240
1,note_on,73,0,0
1,note_on,69,0,0
1,note_on,66,0,0
1,note_on,80,72,0
1,note_on,73,61,0
1,note_on,68,61,0
1,note_on,68,0,720
1,note_on,73,0,0
1,note_on,80,0,0
1,note_on,74,51,0
1,note_on,71,43,0
1,note_on,68,43,0
1,note_on,68,0,720
1,note_on,71,0,0
1,note_on,74,0,0
1,note_on,68,42,0
1,note_on,71,42,0
1,note_on,74,50,0
1,note_on,62,42,480
1,note_on,62,0,240
1,note_on,68,0,0
1,note_on,71,0,0
1,note_on,74,0,0
1,note_on,61,36,0
1,note_on,69,36,0
1,note_on,73,43,0
1,note_on,73,0,480
1,note_on,69,0,0
1,note_on,61,0,0
1,note_on,59,35,0
1,note_on,62,35,0
1,note_on,65,35,0
1,note_on,71,42,0
1,note_on,71,0,238
1,note_on,59,0,0
1,note_on,62,0,0
1,note_on,65,0,0
1,note_on,59,40,2
1,note_on,62,40,0
1,note_on,65,40,0
1,note_on,71,48,0
1,note_on,71,0,713
1,note_on,59,0,0
1,note_on,62,0,0
1,note_on,65,0,0
1,note_on,59,39,7
1,note_on,65,39,0
1,note_on,62,39,0
1,note_on,71,47,0
1,note_on,71,0,240
1,note_on,59,0,0
1,note_on,65,0,0
1,note_on,62,0,0
1,note_on,66,34,0
1,note_on,57,34,0
1,note_on,61,34,0
1,note_on,69,41,0
1,note_on,69,0,240
1,note_on,66,0,0
1,note_on,57,0,0
1,note_on,61,0,0
1,note_on,56,34,0
1,note_on,62,34,0
1,note_on,66,34,0
1,note_on,68,41,0
1,note_on,68,0,240
1,note_on,56,0,0
1,note_on,62,0,0
1,note_on,66,0,0
1,note_on,66,40,0
1,note_on,56,40,0
1,note_on,63,40,0
1,note_on,68,48,0
1,note_on,68,0,475
1,note_on,66,0,0
1,note_on,56,0,0
1,note_on,63,0,0
1,note_on,63,36,5
1,note_on,56,36,0
1,note_on,66,36,0
1,note_on,68,43,0
1,note_on,68,0,238
1,note_on,63,0,0
1,note_on,56,0,0
1,note_on,66,0,0
1,note_on,63,45,2
1,note_on,66,45,0
1,note_on,56,45,0
1,note_on,68,53,0
1,note_on,68,0,240
1,note_on,63,0,0
1,note_on,66,0,0
1,note_on,56,0,0
1,note_on,66,40,0
1,note_on,63,40,0
1,note_on,57,40,0
1,note_on,69,49,0
1,note_on,69,0,240
1,note_on,66,0,0
1,note_on,63,0,0
1,note_on,57,0,0
1,note_on,54,42,0
1,note_on,57,42,0
1,note_on,63,42,0
1,note_on,66,52,0
1,note_on,66,0,240
1,note_on,54,0,0
1,note_on,57,0,0
1,note_on,63,0,0
1,note_on,54,44,0
1,note_on,57,44,0
1,note_on,63,44,0
1,note_on,66,53,0
1,note_on,63,0,240
1,note_on,60,45,0
1,note_on,60,0,240
1,note_on,61,46,0
1,note_on,61,0,240
1,note_on,54,0,0
1,note_on,57,0,0
1,note_on,66,0,0
1,note_on,56,36,0
1,note_on,65,55,0
1,note_on,53,36,0
1,note_on,61,46,0
1,note_on,61,0,240
1,note_on,56,0,0
1,note_on,65,0,0
1,note_on,53,0,0
1,note_on,68,57,0
1,note_on,68,0,240
1,note_on,71,59,0
1,note_on,71,0,240
1,note_on,62,50,0
1,note_on,65,50,0
1,note_on,71,60,0
1,note_on,65,0,240
1,note_on,68,50,0
1,note_on,68,0,240
1,note_on,71,0,0
1,note_on,62,0,0
1,note_on,61,45,0
1,note_on,69,50,0
1,note_on,66,45,0
1,note_on,66,0,238
1,note_on,69,0,0
1,note_on,61,0,0
1,note_on,69,58,2
1,note_on,61,48,0
1,note_on,66,48,0
1,note_on,66,0,240
1,note_on,61,0,0
1,note_on,69,0,0
1,note_on,65,42,0
1,note_on,68,51,0
1,note_on,59,42,0
1,note_on,62,42,0
1,note_on,62,0,240
1,note_on,65,0,0
1,note_on,68,0,0
1,note_on,59,0,0
1,note_on,66,51,0
1,note_on,63,42,0
1,note_on,57,42,0
1,note_on,57,0,120
1,note_on,60,42,0
1,note_on,60,0,120
1,note_on,63,0,0
1,note_on,66,0,0
1,note_on,63,50,0
1,note_on,66,60,0
1,note_on,57,50,0
1,note_on,60,50,0
1,note_on,60,0,480
1,note_on,63,0,0
1,note_on,66,0,0
1,note_on,57,0,0
1,note_on,65,50,0
1,note_on,61,45,0
1,note_on,56,45,0
1,note_on,56,0,240
1,note_on,61,0,0
1,note_on,65,0,0
1,note_on,65,66,0
1,note_on,65,0,240
1,note_on,68,60,0
1,note_on,68,0,240
1,note_on,65,42,0
1,note_on,71,63,0
1,note_on,68,42,0
1,note_on,71,0,120
1,note_on,74,63,0
1,note_on,74,0,119
1,note_on,71,50,1
1,note_on,74,72,0
1,note_on,68,0,240
1,note_on,65,0,0
1,note_on,65,36,0
1,note_on,68,36,0
1,note_on,68,0,240
1,note_on,74,0,0
1,note_on,71,0,0
1,note_on,65,0,0
1,note_on,66,48,0
1,note_on,73,54,0
1,note_on,69,48,0
1,note_on,69,0,238
1,note_on,73,0,0
1,note_on,66,0,0
1,note_on,73,55,2
1,note_on,69,46,0
1,note_on,66,46,120
1,note_on,66,0,120
1,note_on,69,0,0
1,note_on,73,0,0
1,note_on,62,39,0
1,note_on,68,39,0
1,note_on,71,47,0
1,note_on,65,39,0
1,note_on,65,0,240
1,note_on,62,0,0
1,note_on,68,0,0
1,note_on,71,0,0
1,note_on,60,39,0
1,note_on,66,39,0
1,note_on,69,47,0
1,note_on,63,39,0
1,note_on,63,0,238
1,note_on,60,0,0
1,note_on,66,0,0
1,note_on,69,0,0
1,note_on,66,45,2
1,note_on,69,54,0
1,note_on,60,44,240
1,note_on,63,44,0
1,note_on,63,0,240
1,note_on,66,0,0
1,note_on,69,0,0
1,note_on,60,0,0
1,note_on,61,38,0
1,note_on,65,38,0
1,note_on,68,44,0
1,note_on,68,0,238
1,note_on,65,0,0
1,note_on,61,0,0
1,note_on,68,43,2
1,note_on,65,35,0
1,note_on,61,35,0
1,note_on,61,0,480
1,note_on,65,0,0
1,note_on,68,0,0
1,note_on,64,34,0
1,note_on,67,39,0
1,note_on,61,34,0
1,note_on,61,0,180
1,note_on,67,0,0
1,note_on,64,0,0
1,note_on,67,53,0
1,note_on,67,0,60
1,note_on,83,65,0
1,note_on,83,0,480
1,note_on,81,62,0
1,note_on,81,0,240
1,note_on,67,55,0
1,note_on,79,65,0
1,note_on,79,0,480
1,note_on,78,64,0
1,note_on,78,0,240
1,note_on,67,0,0
1,note_on,67,55,0
1,note_on,76,65,0
1,note_on,76,0,480
1,note_on,78,63,0
1,note_on,78,0,240
1,note_on,67,0,0
1,note_on,67,55,0
1,note_on,79,65,0
1,note_on,79,0,480
1,note_on,67,0,0
1,note_on,66,64,0
1,note_on,66,0,238
1,note_on,66,60,2
1,note_on,66,0,240
1,note_on,66,45,0
1,note_on,69,53,0
1,note_on,69,0,240
1,note_on,66,0,0
1,note_on,66,43,0
1,note_on,69,43,0
1,note_on,73,51,0
1,note_on,73,0,240
1,note_on,69,0,0
1,note_on,66,0,0
1,note_on,73,54,0
1,note_on,65,45,0
1,note_on,68,45,0
1,note_on,68,0,475
1,note_on,65,0,0
1,note_on,73,0,0
1,note_on,73,43,5
1,note_on,68,36,0
1,note_on,65,36,0
1,note_on,65,0,238
1,note_on,68,0,0
1,note_on,73,0,0
1,note_on,68,40,2
1,note_on,65,40,0
1,note_on,73,48,0
1,note_on,73,0,480
1,note_on,65,0,0
1,note_on,68,0,0
1,note_on,66,36,0
1,note_on,69,43,0
1,note_on,66,0,238
1,note_on,69,0,0
1,note_on,66,37,2
1,note_on,69,47,0
1,note_on,69,0,238
1,note_on,66,0,0
1,note_on,61,37,2
1,note_on,66,45,0
1,note_on,66,0,240
1,note_on,61,0,0
1,note_on,68,44,0
1,note_on,65,44,0
1,note_on,61,44,0
1,note_on,65,0,120
1,note_on,68,0,0
1,note_on,66,47,0
1,note_on,69,47,0
1,note_on,69,0,120
1,note_on,66,0,0
1,note_on,61,0,0
1,note_on,68,51,0
1,note_on,71,51,0
1,note_on,62,50,240
1,note_on,62,0,240
1,note_on,71,0,0
1,note_on,68,0,0
1,note_on,61,47,0
1,note_on,66,47,0
1,note_on,69,58,0
1,note_on,69,0,240
1,note_on,66,0,0
1,note_on,61,0,0
1,note_on,59,51,0
1,note_on,69,60,0
1,note_on,65,51,0
1,note_on,62,51,0
1,note_on,69,0,240
1,note_on,68,57,0
1,note_on,68,0,240
1,note_on,62,0,0
1,note_on,65,0,0
1,note_on,59,0,0
1,note_on,66,54,0
1,note_on,63,45,0
1,note_on,57,45,0
1,note_on,57,0,240
1,note_on,63,0,0
1,note_on,66,0,0
1,note_on,57,50,0
1,note_on,61,50,0
1,note_on,66,60,0
1,note_on,66,0,240
1,note_on,57,0,0
1,note_on,55,50,0
1,note_on,64,56,0
1,note_on,64,0,240
1,note_on,55,0,0
1,note_on,56,50,0
1,note_on,65,56,0
1,note_on,65,0,238
1,note_on,56,0,0
1,note_on,61,0,2
1,note_on,56,50,0
1,note_on,61,50,0
1,note_on,65,59,0
1,note_on,65,0,360
1,note_on,61,0,0
1,note_on,56,0,0
1,note_on,68,60,0
1,note_on,68,0,120
1,note_on,71,63,0
1,note_on,71,0,120
1,note_on,74,66,0
1,note_on,74,0,119
1,note_on,68,36,1
1,note_on,71,50,0
1,note_on,74,71,0
1,note_on,65,36,0
1,note_on,62,36,0
1,note_on,62,0,240
1,note_on,71,0,0
1,note_on,68,0,0
1,note_on,65,0,0
1,note_on,65,36,0
1,note_on,68,36,0
1,note_on,68,0,240
1,note_on,65,0,0
1,note_on,74,0,0
1,note_on,69,48,0
1,note_on,73,54,0
1,note_on,73,0,240
1,note_on,69,0,0
1,note_on,65,39,0
1,note_on,62,39,0
1,note_on,73,55,0
1,note_on,68,39,0
1,note_on,73,0,240
1,note_on,71,47,0
1,note_on,71,0,240
1,note_on,68,0,0
1,note_on,62,0,0
1,note_on,65,0,0
1,note_on,63,39,0
1,note_on,66,39,0
1,note_on,69,47,0
1,note_on,69,0,240
1,note_on,66,0,0
1,note_on,63,0,0
1,note_on,66,45,0
1,note_on,63,44,0
1,note_on,60,44,0
1,note_on,69,54,0
1,note_on,60,0,240
1,note_on,63,0,0
1,note_on,60,39,0
1,note_on,63,39,0
1,note_on,63,0,240
1,note_on,69,0,0
1,note_on,66,0,0
1,note_on,60,0,0
1,note_on,61,38,0
1,note_on,65,38,0
1,note_on,68,44,0
1,note_on,68,0,240
1,note_on,65,0,0
1,note_on,61,0,0
1,note_on,65,35,0
1,note_on,61,35,0
1,note_on,68,43,0
1,note_on,68,0,240
1,note_on,61,0,0
1,note_on,65,0,0
1,note_on,64,34,0
1,note_on,67,39,0
1,note_on,67,0,240
1,note_on,64,0,0
1,note_on,62,34,0
1,note_on,62,0,180
1,note_on,67,53,0
1,note_on,67,0,60
1,note_on,83,65,0
1,note_on,81,60,473
1,note_on,83,0,7
1,note_on,81,0,231
1,note_on,81,65,9
1,note_on,81,0,240
1,note_on,91,65,0
1,note_on,79,46,0
1,note_on,79,0,240
1,note_on,91,0,0
1,note_on,78,54,0
1,note_on,90,64,0
1,note_on,90,0,238
1,note_on,78,0,0
1,note_on,90,69,2
1,note_on,78,58,0
1,note_on,78,0,240
1,note_on,90,0,0
1,note_on,76,56,0
1,note_on,88,67,0
1,note_on,88,0,240
1,note_on,76,0,0
1,note_on,78,60,0
1,note_on,90,71,0
1,note_on,90,0,238
1,note_on,78,0,0
1,note_on,90,75,2
1,note_on,78,63,0
1,note_on,78,0,240
1,note_on,90,0,0
1,note_on,91,72,0
1,note_on,79,61,0
1,note_on,79,0,360
1,note_on,91,0,0
1,note_on,78,64,0
1,note_on,66,57,0
1,note_on,66,0,119
1,note_on,78,0,0
1,note_on,66,54,1
1,note_on,78,54,0
1,note_on,78,0,240
1,note_on,66,0,0
1,note_on,81,52,0
1,note_on,69,52,0
1,note_on,69,0,240
1,note_on,81,0,0
1,note_on,85,59,0
1,note_on,73,59,0
1,note_on,73,0,238
1,note_on,85,0,0
1,note_on,73,62,2
1,note_on,85,62,0
1,note_on,85,0,480
1,note_on,73,0,0
1,note_on,85,57,0
1,note_on,73,57,0
1,note_on,73,0,238
1,note_on,85,0,0
1,note_on,85,63,2
1,note_on,73,53,0
1,note_on,73,0,240
1,note_on,85,0,0
1,note_on,74,52,0
1,note_on,86,62,0
1,note_on,86,0,240
1,note_on,74,0,0
1,note_on,67,47,0
1,note_on,79,56,0
1,note_on,79,0,240
1,note_on,67,0,0
1,note_on,83,63,0
1,note_on,71,53,0
1,note_on,71,0,240
1,note_on,83,0,0
1,note_on,61,48,0
1,note_on,73,57,0
1,note_on,73,0,240
1,note_on,61,0,0
1,note_on,65,47,0
1,note_on,77,56,0
1,note_on,77,0,240
1,note_on,65,0,0
1,note_on,78,63,0
1,note_on,66,53,0
1,note_on,66,0,240
1,note_on,78,0,0
1,note_on,73,57,0
1,note_on,85,68,0
1,note_on,85,0,360
1,note_on,73,0,0
1,note_on,68,41,0
1,note_on,80,49,0
1,note_on,80,0,120
1,note_on,68,0,0
1,note_on,81,53,0
1,note_on,69,45,0
1,note_on,69,0,240
1,note_on,81,0,0
1,note_on,69,45,0
1,note_on,81,54,0
1,note_on,81,0,360
1,note_on,69,0,0
1,note_on,65,37,0
1,note_on,77,44,0
1,note_on,77,0,120
1,note_on,65,0,0
1,note_on,73,44,1320
1,note_on,73,0,238
1,note_on,73,44,2
1,note_on,73,0,238
1,note_on,73,44,2
1,note_on,78,55,120
1,note_on,73,0,118
1,note_on,73,44,2
1,note_on,78,0,118
1,note_on,78,63,2
1,note_on,73,0,118
1,note_on,73,44,2
1,note_on,78,0,120
1,note_on,81,63,0
1,note_on,73,0,118
1,note_on,73,48,2
1,note_on,81,0,120
1,note_on,85,68,0
1,note_on,73,0,118
1,note_on,73,50,2
1,note_on,85,0,118
1,note_on,73,0,2
1,note_on,85,71,0
1,note_on,77,52,120
1,note_on,83,52,0
1,note_on,83,0,238
1,note_on,77,0,0
1,note_on,77,37,2
1,note_on,83,44,0
1,note_on,85,0,120
1,note_on,88,75,0
1,note_on,88,0,120
1,note_on,83,0,0
1,note_on,77,0,0
1,note_on,86,67,0
1,note_on,86,0,120
1,note_on,86,73,0
1,note_on,71,44,120
1,note_on,86,0,120
1,note_on,77,64,0
1,note_on,71,0,118
1,note_on,71,44,2
1,note_on,77,0,120
1,note_on,83,64,0
1,note_on,71,0,118
1,note_on,71,44,2
1,note_on,83,0,120
1,note_on,83,74,0
1,note_on,71,0,120
1,note_on,65,44,0
1,note_on,83,0,120
1,note_on,71,55,0
1,note_on,65,0,118
1,note_on,65,39,2
1,note_on,71,0,120
1,note_on,73,63,0
1,note_on,65,0,118
1,note_on,73,0,2
1,note_on,65,37,0
1,note_on,74,65,0
1,note_on,74,0,119
1,note_on,71,40,1
1,note_on,74,66,0
1,note_on,65,0,118
1,note_on,65,37,2
1,note_on,71,44,0
1,note_on,74,0,120
1,note_on,71,0,0
1,note_on,73,63,0
1,note_on,65,0,118
1,note_on,71,0,0
1,note_on,71,44,2
1,note_on,65,37,0
1,note_on,65,0,238
1,note_on,71,0,0
1,note_on,73,0,2
1,note_on,65,37,0
1,note_on,71,66,0
1,note_on,71,0,120
1,note_on,65,0,0
1,note_on,71,63,0
1,note_on,71,0,120
1,note_on,69,54,0
1,note_on,69,0,240
1,note_on,73,63,0
1,note_on,73,0,240
1,note_on,78,67,0
1,note_on,78,0,200
1,note_on,81,66,0
1,note_on,81,0,80
1,note_on,85,67,0
1,note_on,85,0,160
1,note_on,90,70,0
1,note_on,90,0,80
1,note_on,92,71,0
1,note_on,92,0,80
1,note_on,93,75,0
1,note_on,93,0,80
1,note_on,90,73,0
1,note_on,90,0,80
1,note_on,85,63,0
1,note_on,85,0,80
1,note_on,85,68,0
1,note_on,85,0,60
1,note_on,86,63,0
1,note_on,86,0,60
1,note_on,85,59,0
1,note_on,85,0,30
1,note_on,86,60,0
1,note_on,86,0,30
1,note_on,85,62,0
1,note_on,85,0,30
1,note_on,86,63,0
1,note_on,86,0,30
1,note_on,85,64,0
1,note_on,85,0,30
1,note_on,86,65,0
1,note_on,86,0,30
1,note_on,85,66,0
1,note_on,85,0,60
1,note_on,84,69,0
1,note_on,84,0,60
1,note_on,85,71,0
1,note_on,85,0,60
1,note_on,88,74,0
1,note_on,88,0,80
1,note_on,85,69,0
1,note_on,85,0,80
1,note_on,86,70,0
1,note_on,86,0,79
1,note_on,86,76,1
1,note_on,86,0,80
1,note_on,76,62,0
1,note_on,76,0,80
1,note_on,77,62,0
1,note_on,77,0,80
1,note_on,77,70,0
1,note_on,77,0,80
1,note_on,86,59,0
1,note_on,86,0,80
1,note_on,85,60,0
1,note_on,85,0,79
1,note_on,85,67,1
1,note_on,85,0,80
1,note_on,82,58,0
1,note_on,82,0,80
1,note_on,83,53,0
1,note_on,83,0,79
1,note_on,83,59,1
1,note_on,83,0,60
1,note_on,65,46,0
1,note_on,65,0,60
1,note_on,66,47,0
1,note_on,66,0,60
1,note_on,68,48,0
1,note_on,68,0,60
1,note_on,69,49,0
1,note_on,69,0,60
1,note_on,70,50,0
1,note_on,70,0,60
1,note_on,71,51,0
1,note_on,71,0,60
1,note_on,72,52,0
1,note_on,72,0,60
1,note_on,73,54,0
1,note_on,73,0,80
1,note_on,74,55,0
1,note_on,74,0,80
1,note_on,75,57,0
1,note_on,75,0,80
1,note_on,76,58,0
1,note_on,76,0,80
1,note_on,73,60,0
1,note_on,73,0,80
1,note_on,74,61,0
1,note_on,74,0,79
1,note_on,74,64,1
1,note_on,74,0,60
1,note_on,83,62,0
1,note_on,83,0,60
1,note_on,80,56,0
1,note_on,80,0,60
1,note_on,77,56,0
1,note_on,77,0,60
1,note_on,74,62,0
1,note_on,74,0,60
1,note_on,72,57,0
1,note_on,72,0,60
1,note_on,74,55,0
1,note_on,74,0,60
1,note_on,73,55,0
1,note_on,73,0,60
1,note_on,73,57,0
1,note_on,66,48,120
1,note_on,73,0,120
1,note_on,78,62,0
1,note_on,66,0,118
1,note_on,66,48,2
1,note_on,66,0,240
1,note_on,78,0,0
1,note_on,73,56,0
1,note_on,73,0,120
1,note_on,74,62,0
1,note_on,71,43,120
1,note_on,65,36,0
1,note_on,65,0,238
1,note_on,71,0,0
1,note_on,65,36,2
1,note_on,71,43,0
1,note_on,74,0,120
1,note_on,73,56,0
1,note_on,71,0,118
1,note_on,65,0,0
1,note_on,65,36,2
1,note_on,71,43,0
1,note_on,71,0,120
1,note_on,65,0,0
1,note_on,73,0,0
1,note_on,73,62,0
1,note_on,73,0,80
1,note_on,85,57,0
1,note_on,85,0,80
1,note_on,80,57,0
1,note_on,80,0,80
1,note_on,83,63,0
1,note_on,83,0,60
1,note_on,81,65,0
1,note_on,81,0,60
1,note_on,77,68,0
1,note_on,77,0,60
1,note_on,78,70,0
1,note_on,78,0,60
1,note_on,80,71,0
1,note_on,80,0,60
1,note_on,78,70,0
1,note_on,78,0,60
1,note_on,81,68,0
1,note_on,81,0,40
1,note_on,78,67,0
1,note_on,78,0,40
1,note_on,73,65,1
1,note_on,76,66,39
1,note_on,73,0,1
1,note_on,76,0,119
1,note_on,75,62,0
1,note_on,71,52,0
1,note_on,65,43,0
1,note_on,75,0,120
1,note_on,74,62,0
1,note_on,65,0,118
1,note_on,71,0,0
1,note_on,74,0,2
1,note_on,74,58,0
1,note_on,71,48,0
1,note_on,65,41,0
1,note_on,65,0,238
1,note_on,71,0,0
1,note_on,74,0,0
1,note_on,65,41,2
1,note_on,71,48,0
1,note_on,73,58,0
1,note_on,73,0,120
1,note_on,71,0,0
1,note_on,65,0,0
1,note_on,73,60,0
1,note_on,66,40,120
1,note_on,66,0,240
1,note_on,73,0,0
1,note_on,78,62,0
1,note_on,78,0,238
1,note_on,78,63,2
1,note_on,66,40,240
1,note_on,78,0,235
1,note_on,66,0,5
1,note_on,78,65,0
1,note_on,78,0,238
1,note_on,78,67,2
1,note_on,71,45,240
1,note_on,71,0,240
1,note_on,78,0,0
1,note_on,83,69,0
1,note_on,83,0,238
1,note_on,83,71,2
1,note_on,71,61,240
1,note_on,83,0,235
1,note_on,71,0,5
1,note_on,71,62,0
1,note_on,83,73,0
1,note_on,83,0,238
1,note_on,71,0,0
1,note_on,71,63,2
1,note_on,83,75,0
1,note_on,83,0,238
1,note_on,71,0,0
1,note_on,71,64,2
1,note_on,83,76,0
1,note_on,83,0,238
1,note_on,71,0,0
1,note_on,71,65,2
1,note_on,83,77,0
1,note_on,83,0,238
1,note_on,71,0,0
1,note_on,71,66,2
1,note_on,83,78,0
1,note_on,71,0,119
1,note_on,83,0,119
1,note_on,88,80,2
1,note_on,83,68,0
1,note_on,76,68,0
1,note_on,76,0,238
1,note_on,83,0,0
1,note_on,88,0,0
1,note_on,86,81,2
1,note_on,88,81,0
1,note_on,83,68,0
1,note_on,76,68,0
1,note_on,76,0,238
1,note_on,86,0,0
1,note_on,88,0,0
1,note_on,83,0,0
1,note_on,88,82,2
1,note_on,85,69,0
1,note_on,81,69,0
1,note_on,76,69,0
1,note_on,76,0,119
1,note_on,88,0,0
1,note_on,85,0,0
1,note_on,81,0,0
1,note_on,76,56,1
1,note_on,88,73,0
1,note_on,88,0,120
1,note_on,80,57,0
1,note_on,80,0,120
1,note_on,76,0,0
1,note_on,76,54,0
1,note_on,83,64,0
1,note_on,83,0,120
1,note_on,81,60,0
1,note_on,81,0,120
1,note_on,76,0,0
1,note_on,78,51,0
1,note_on,80,60,0
1,note_on,80,0,120
1,note_on,81,60,0
1,note_on,81,0,120
1,note_on,84,69,0
1,note_on,78,0,120
1,note_on,78,60,0
1,note_on,78,0,120
1,note_on,84,0,0
1,note_on,81,65,0
1,note_on,83,55,0
1,note_on,79,57,120
1,note_on,79,0,120
1,note_on,78,60,0
1,note_on,78,0,120
1,note_on,81,0,0
1,note_on,79,55,0
1,note_on,79,0,120
1,note_on,77,56,0
1,note_on,80,57,120
1,note_on,80,0,120
1,note_on,77,0,0
1,note_on,83,0,0
1,note_on,76,54,0
1,note_on,82,64,0
1,note_on,82,0,120
1,note_on,81,60,0
1,note_on,81,0,120
1,note_on,80,60,0
1,note_on,80,0,120
1,note_on,81,60,0
1,note_on,81,0,120
1,note_on,83,69,0
1,note_on,76,0,120
1,note_on,76,60,0
1,note_on,76,0,120
1,note_on,83,0,0
1,note_on,79,65,0
1,note_on,81,55,0
1,note_on,79,0,120
1,note_on,78,57,0
1,note_on,78,0,120
1,note_on,77,60,0
1,note_on,77,0,120
1,note_on,78,55,0
1,note_on,78,0,120
1,note_on,75,50,0
1,note_on,81,0,120
1,note_on,78,53,0
1,note_on,78,0,120
1,note_on,75,0,0
1,note_on,76,51,0
1,note_on,81,61,0
1,note_on,81,0,120
1,note_on,79,55,0
1,note_on,79,0,120
1,note_on,76,0,0
1,note_on,73,51,0
1,note_on,78,61,0
1,note_on,78,0,120
1,note_on,79,55,0
1,note_on,79,0,119
1,note_on,73,0,1
1,note_on,79,63,0
1,note_on,73,53,0
1,note_on,79,0,120
1,note_on,76,57,0
1,note_on,76,0,120
1,note_on,73,0,0
1,note_on,74,56,0
1,note_on,79,67,0
1,note_on,79,0,120
1,note_on,78,58,0
1,note_on,78,0,120
1,note_on,74,0,0
1,note_on,76,68,0
1,note_on,71,57,0
1,note_on,76,0,120
1,note_on,77,61,0
1,note_on,77,0,119
1,note_on,77,71,1
1,note_on,71,0,120
1,note_on,65,61,0
1,note_on,65,0,120
1,note_on,77,0,0
1,note_on,64,57,0
1,note_on,70,68,0
1,note_on,76,68,0
1,note_on,70,0,120
1,note_on,69,59,0
1,note_on,69,0,120
1,note_on,76,0,0
1,note_on,64,0,0
1,note_on,66,58,0
1,note_on,68,69,0
1,note_on,74,69,0
1,note_on,68,0,120
1,note_on,69,60,0
1,note_on,69,0,120
1,note_on,74,0,0
1,note_on,66,0,0
1,note_on,79,74,0
1,note_on,73,67,0
1,note_on,73,0,120
1,note_on,76,62,0
1,note_on,76,0,120
1,note_on,79,0,0
1,note_on,78,71,0
1,note_on,74,60,0
1,note_on,74,0,240
1,note_on,78,0,0
1,note_on,77,58,0
1,note_on,83,69,0
1,note_on,71,58,0
1,note_on,71,0,240
1,note_on,77,0,0
1,note_on,71,61,0
1,note_on,80,72,0
1,note_on,74,61,0
1,note_on,74,0,240
1,note_on,83,0,0
1,note_on,71,0,0
1,note_on,80,0,0
1,note_on,74,62,0
1,note_on,69,62,0
1,note_on,81,74,0
1,note_on,81,0,240
1,note_on,69,0,0
1,note_on,74,0,0
1,note_on,74,80,0
1,note_on,86,91,0
1,note_on,74,0,240
1,note_on,74,82,0
1,note_on,79,82,0
1,note_on,79,0,240
1,note_on,74,0,0
1,note_on,86,0,0
1,note_on,76,73,0
1,note_on,73,73,0
1,note_on,85,87,0
1,note_on,79,73,0
1,note_on,79,0,240
1,note_on,76,0,0
1,note_on,73,0,0
1,note_on,85,0,0
1,note_on,85,78,0
1,note_on,79,78,0
1,note_on,91,95,0
1,note_on,88,80,0
1,note_on,88,0,600
1,note_on,85,0,0
1,note_on,79,0,0
1,note_on,91,0,0
1,note_on,67,50,0
1,note_on,67,0,120
1,note_on,64,54,0
1,note_on,64,0,120
1,note_on,70,45,0
1,note_on,70,0,120
1,note_on,68,52,0
1,note_on,68,0,120
1,note_on,69,45,0
1,note_on,69,0,120
1,note_on,64,50,0
1,note_on,64,0,120
1,note_on,71,45,0
1,note_on,71,0,120
1,note_on,69,49,0
1,note_on,69,0,120
1,note_on,67,45,0
1,note_on,67,0,120
1,note_on,66,49,0
1,note_on,66,0,240
1,note_on,38,58,240
1,note_on,38,0,720
1,note_on,38,52,0
1,note_on,38,0,120
1,note_on,33,46,0
1,note_on,33,0,120
1,note_on,33,52,0
1,note_on,33,0,718
1,note_on,33,52,2
1,note_on,33,0,478
1,note_on,33,52,2
1,note_on,33,0,240
1,note_on,30,52,0
1,note_on,30,0,240
1,note_on,86,61,240
1,note_on,74,53,0
1,note_on,74,0,720
1,note_on,86,0,0
1,note_on,86,55,0
1,note_on,74,48,0
1,note_on,74,0,120
1,note_on,86,0,0
1,note_on,81,48,0
1,note_on,69,42,0
1,note_on,69,0,119
1,note_on,81,0,0
1,note_on,81,55,1
1,note_on,69,48,0
1,note_on,69,0,718
1,note_on,81,0,0
1,note_on,81,55,2
1,note_on,69,48,0
1,note_on,69,0,478
1,note_on,81,0,0
1,note_on,81,55,2
1,note_on,69,48,0
1,note_on,69,0,240
1,note_on,81,0,0
1,note_on,78,53,0
1,note_on,66,45,0
1,note_on,66,0,240
1,note_on,78,0,0
1,note_on,38,58,240
1,note_on,38,0,478
1,note_on,38,56,2
1,note_on,38,0,238
1,note_on,38,56,2
1,note_on,38,0,80
1,note_on,37,50,0
1,note_on,37,0,80
1,note_on,38,50,0
1,note_on,38,0,60
1,note_on,33,52,20
1,note_on,33,0,478
1,note_on,33,52,2
1,note_on,33,0,478
1,note_on,33,52,2
1,note_on,33,0,480
1,note_on,30,52,0
1,note_on,30,0,240
1,note_on,86,70,240
1,note_on,74,61,0
1,note_on,74,0,478
1,note_on,86,0,0
1,note_on,74,61,2
1,note_on,86,70,0
1,note_on,86,0,238
1,note_on,74,0,0
1,note_on,86,68,2
1,note_on,74,59,0
1,note_on,73,53,80
1,note_on,85,60,0
1,note_on,74,0,1
1,note_on,86,0,0
1,note_on,73,0,79
1,note_on,85,0,0
1,note_on,74,53,0
1,note_on,86,60,0
1,note_on,86,0,60
1,note_on,74,0,20
1,note_on,81,67,0
1,note_on,69,59,0
1,note_on,81,0,478
1,note_on,69,0,1
1,note_on,69,62,1
1,note_on,81,70,0
1,note_on,81,0,478
1,note_on,69,0,0
1,note_on,69,61,2
1,note_on,81,70,0
1,note_on,81,0,400
1,note_on,69,0,0
1,note_on,67,45,0
1,note_on,79,50,0
1,note_on,79,0,80
1,note_on,67,0,0
1,note_on,66,50,0
1,note_on,78,50,0
1,note_on,78,0,240
1,note_on,66,0,0
1,note_on,66,40,0
1,note_on,78,50,0
1,note_on,66,0,80
1,note_on,76,40,0
1,note_on,76,0,80
1,note_on,74,40,0
1,note_on,74,0,80
1,note_on,73,50,0
1,note_on,73,0,80
1,note_on,71,41,0
1,note_on,71,0,80
1,note_on,69,43,0
1,note_on,69,0,80
1,note_on,78,0,0
1,note_on,67,50,0
1,note_on,79,50,0
1,note_on,67,0,80
1,note_on,70,42,0
1,note_on,70,0,80
1,note_on,69,42,0
1,note_on,69,0,80
1,note_on,67,50,0
1,note_on,67,0,80
1,note_on,69,40,0
1,note_on,69,0,80
1,note_on,71,40,0
1,note_on,71,0,80
1,note_on,73,50,0
1,note_on,73,0,80
1,note_on,74,41,0
1,note_on,74,0,80
1,note_on,76,41,0
1,note_on,76,0,80
1,note_on,79,0,0
1,note_on,69,50,0
1,note_on,81,50,0
1,note_on,81,0,240
1,note_on,69,0,0
1,note_on,69,42,0
1,note_on,81,52,0
1,note_on,69,0,80
1,note_on,79,42,0
1,note_on,79,0,80
1,note_on,78,43,0
1,note_on,78,0,80
1,note_on,76,55,0
1,note_on,76,0,80
1,note_on,74,45,0
1,note_on,74,0,80
1,note_on,72,48,0
1,note_on,72,0,80
1,note_on,81,0,0
1,note_on,71,57,0
1,note_on,83,57,0
1,note_on,71,0,80
1,note_on,74,48,0
1,note_on,74,0,80
1,note_on,72,49,0
1,note_on,72,0,80
1,note_on,71,60,0
1,note_on,71,0,80
1,note_on,72,48,0
1,note_on,72,0,80
1,note_on,74,49,0
1,note_on,74,0,80
1,note_on,76,62,0
1,note_on,76,0,80
1,note_on,78,51,0
1,note_on,78,0,80
1,note_on,79,52,0
1,note_on,83,0,80
1,note_on,85,65,0
1,note_on,79,0,80
1,note_on,79,53,0
1,note_on,79,0,80
1,note_on,78,54,0
1,note_on,78,0,80
1,note_on,85,0,0
1,note_on,76,54,0
1,note_on,76,0,80
1,note_on,74,54,0
1,note_on,74,0,80
1,note_on,73,55,0
1,note_on,73,0,80
1,note_on,86,70,0
1,note_on,74,70,0
1,note_on,74,0,80
1,note_on,76,57,0
1,note_on,76,0,80
1,note_on,78,61,0
1,note_on,78,0,80
1,note_on,86,0,0
1,note_on,76,72,0
1,note_on,88,77,0
1,note_on,76,0,80
1,note_on,82,61,0
1,note_on,82,0,80
1,note_on,81,62,0
1,note_on,81,0,80
1,note_on,79,75,0
1,note_on,79,0,80
1,note_on,78,60,0
1,note_on,78,0,80
1,note_on,76,61,0
1,note_on,76,0,80
1,note_on,88,0,0
1,note_on,78,77,0
1,note_on,90,83,0
1,note_on,78,0,80
1,note_on,79,63,0
1,note_on,79,0,80
1,note_on,81,64,0
1,note_on,81,0,80
1,note_on,90,0,0
1,note_on,91,88,0
1,note_on,79,72,0
1,note_on,79,0,80
1,note_on,78,61,0
1,note_on,78,0,80
1,note_on,76,62,0
1,note_on,76,0,80
1,note_on,91,0,0
1,note_on,81,74,0
1,note_on,75,63,0
1,note_on,75,0,80
1,note_on,74,51,0
1,note_on,74,0,80
1,note_on,75,51,0
1,note_on,75,0,80
1,note_on,81,0,0
1,note_on,83,70,0
1,note_on,74,65,0
1,note_on,74,0,80
1,note_on,72,53,0
1,note_on,72,0,80
1,note_on,71,54,0
1,note_on,71,0,80
1,note_on,83,0,0
1,note_on,74,53,0
1,note_on,77,70,0
1,note_on,74,0,80
1,note_on,73,48,0
1,note_on,73,0,80
1,note_on,71,47,0
1,note_on,71,0,80
1,note_on,68,52,0
1,note_on,68,0,80
1,note_on,69,46,0
1,note_on,69,0,80
1,note_on,71,45,0
1,note_on,71,0,80
1,note_on,77,0,0
1,note_on,73,47,0
1,note_on,76,58,0
1,note_on,73,0,80
1,note_on,70,44,0
1,note_on,70,0,80
1,note_on,69,43,0
1,note_on,69,0,80
1,note_on,76,0,0
1,note_on,75,51,0
1,note_on,81,61,0
1,note_on,81,0,720
1,note_on,75,0,0
1,note_on,83,52,0
1,note_on,78,44,0
1,note_on,71,44,0
1,note_on,71,0,478
1,note_on,78,0,0
1,note_on,83,0,0
1,note_on,78,51,2
1,note_on,75,43,0
1,note_on,71,43,0
1,note_on,71,0,240
1,note_on,75,0,0
1,note_on,78,0,0
1,note_on,81,61,0
1,note_on,81,0,120
1,note_on,78,57,0
1,note_on,78,0,120
1,note_on,91,66,0
1,note_on,79,66,0
1,note_on,79,0,120
1,note_on,91,0,0
1,note_on,71,62,0
1,note_on,83,62,0
1,note_on,83,0,120
1,note_on,71,0,0
1,note_on,90,69,0
1,note_on,78,69,0
1,note_on,78,0,120
1,note_on,90,0,0
1,note_on,88,62,0
1,note_on,76,62,0
1,note_on,76,0,120
1,note_on,88,0,0
1,note_on,86,52,0
1,note_on,74,62,0
1,note_on,74,0,120
1,note_on,77,65,0
1,note_on,77,0,120
1,note_on,79,69,0
1,note_on,79,0,120
1,note_on,78,64,0
1,note_on,78,0,120
1,note_on,86,0,0
1,note_on,73,54,0
1,note_on,81,54,0
1,note_on,85,64,0
1,note_on,76,54,0
1,note_on,76,0,120
1,note_on,73,0,0
1,note_on,81,0,0
1,note_on,85,0,0
1,note_on,72,58,0
1,note_on,81,58,0
1,note_on,84,69,0
1,note_on,75,58,0
1,note_on,75,0,120
1,note_on,72,0,0
1,note_on,81,0,0
1,note_on,84,0,0
1,note_on,84,72,0
1,note_on,81,61,0
1,note_on,81,0,60
1,note_on,78,71,0
1,note_on,78,0,60
1,note_on,75,69,0
1,note_on,75,0,60
1,note_on,72,68,0
1,note_on,72,0,60
1,note_on,84,0,0
1,note_on,72,66,0
1,note_on,69,56,0
1,note_on,69,0,60
1,note_on,66,61,0
1,note_on,66,0,60
1,note_on,63,59,0
1,note_on,63,0,60
1,note_on,60,58,0
1,note_on,60,0,60
1,note_on,69,60,0
1,note_on,69,0,60
1,note_on,63,48,0
1,note_on,63,0,60
1,note_on,72,0,0
1,note_on,71,48,0
1,note_on,59,40,0
1,note_on,62,48,0
1,note_on,62,0,60
1,note_on,59,0,0
1,note_on,67,48,0
1,note_on,67,0,60
1,note_on,71,0,0
1,note_on,58,35,0
1,note_on,70,41,0
1,note_on,67,35,0
1,note_on,62,35,0
1,note_on,62,0,480
1,note_on,58,0,0
1,note_on,70,0,0
1,note_on,67,0,0
1,note_on,69,61,240
1,note_on,66,51,0
1,note_on,66,0,80
1,note_on,62,55,0
1,note_on,62,0,80
1,note_on,57,55,0
1,note_on,57,0,80
1,note_on,69,0,0
1,note_on,69,61,0
1,note_on,66,51,0
1,note_on,66,0,60
1,note_on,62,54,0
1,note_on,62,0,60
1,note_on,57,55,0
1,note_on,57,0,60
1,note_on,66,55,0
1,note_on,66,0,60
1,note_on,66,63,0
1,note_on,66,0,60
1,note_on,62,54,0
1,note_on,62,0,60
1,note_on,69,0,0
1,note_on,68,59,0
1,note_on,65,50,0
1,note_on,65,0,60
1,note_on,62,50,0
1,note_on,62,0,60
1,note_on,68,0,0
1,note_on,64,48,0
1,note_on,58,48,0
1,note_on,55,48,0
1,note_on,67,57,0
1,note_on,67,0,238
1,note_on,64,0,0
1,note_on,58,0,0
1,note_on,55,0,0
1,note_on,63,38,1202
1,note_on,66,45,0
1,note_on,66,0,475
1,note_on,63,0,0
1,note_on,63,36,5
1,note_on,66,36,0
1,note_on,71,42,0
1,note_on,71,0,238
1,note_on,66,0,0
1,note_on,63,0,0
1,note_on,59,38,2
1,note_on,63,38,0
1,note_on,71,45,0
1,note_on,66,38,0
1,note_on,66,0,475
1,note_on,59,0,0
1,note_on,63,0,0
1,note_on,71,0,0
1,note_on,63,36,5
1,note_on,59,36,0
1,note_on,71,44,0
1,note_on,66,36,0
1,note_on,66,0,238
1,note_on,63,0,0
1,note_on,59,0,0
1,note_on,71,0,0
1,note_on,64,38,2
1,note_on,59,38,0
1,note_on,71,45,0
1,note_on,71,0,238
1,note_on,59,0,0
1,note_on,64,0,0
1,note_on,57,35,2
1,note_on,64,35,0
1,note_on,61,35,0
1,note_on,69,41,0
1,note_on,69,0,475
1,note_on,57,0,0
1,note_on,64,0,0
1,note_on,61,0,0
1,note_on,57,35,5
1,note_on,66,35,0
1,note_on,62,35,0
1,note_on,69,41,0
1,note_on,69,0,480
1,note_on,57,0,0
1,note_on,66,0,0
1,note_on,62,0,0
1,note_on,66,33,0
1,note_on,66,0,240
1,note_on,57,42,0
1,note_on,57,0,480
1,note_on,69,36,0
1,note_on,69,0,240
1,note_on,66,40,0
1,note_on,66,0,480
1,note_on,90,59,0
1,note_on,78,49,0
1,note_on,81,49,0
1,note_on,81,0,240
1,note_on,78,0,0
1,note_on,90,0,0
1,note_on,79,53,0
1,note_on,76,53,0
1,note_on,88,63,0
1,note_on,88,0,480
1,note_on,76,0,0
1,note_on,79,0,0
1,note_on,81,51,0
1,note_on,76,43,0
1,note_on,69,43,0
1,note_on,79,43,0
1,note_on,79,0,238
1,note_on,81,0,0
1,note_on,76,0,0
1,note_on,69,0,0
1,note_on,69,45,2
1,note_on,81,54,0
1,note_on,78,45,0
1,note_on,78,0,480
1,note_on,81,0,0
1,note_on,69,0,0
1,note_on,78,43,0
1,note_on,78,0,240
1,note_on,69,50,0
1,note_on,69,0,480
1,note_on,69,39,0
1,note_on,81,47,0
1,note_on,81,0,240
1,note_on,69,0,0
1,note_on,78,54,0
1,note_on,66,45,0
1,note_on,66,0,480
1,note_on,78,0,0
1,note_on,69,40,0
1,note_on,81,48,0
1,note_on,81,0,240
1,note_on,69,0,0
1,note_on,79,56,0
1,note_on,83,56,0
1,note_on,71,47,0
1,note_on,71,0,480
1,note_on,83,0,0
1,note_on,79,0,0
1,note_on,85,54,0
1,note_on,76,45,0
1,note_on,79,45,0
1,note_on,73,45,0
1,note_on,73,0,240
1,note_on,85,0,0
1,note_on,76,0,0
1,note_on,79,0,0
1,note_on,78,50,0
1,note_on,74,50,0
1,note_on,86,60,0
1,note_on,86,0,720
1,note_on,74,0,0
1,note_on,78,0,0
1,note_on,88,68,0
1,note_on,85,56,0
1,note_on,76,56,0
1,note_on,76,0,713
1,note_on,85,0,0
1,note_on,88,0,0
1,note_on,76,62,7
1,note_on,88,73,0
1,note_on,85,62,0
1,note_on,85,0,480
1,note_on,88,0,0
1,note_on,76,0,0
1,note_on,87,70,0
1,note_on,90,70,0
1,note_on,78,59,0
1,note_on,78,0,240
1,note_on,90,0,0
1,note_on,87,0,0
1,note_on,91,75,0
1,note_on,79,63,0
1,note_on,88,75,0
1,note_on,88,0,238
1,note_on,79,0,0
1,note_on,91,0,0
1,note_on,88,80,2
1,note_on,93,80,0
1,note_on,81,68,0
1,note_on,81,0,238
1,note_on,93,0,0
1,note_on,88,0,0
1,note_on,88,72,2
1,note_on,93,85,0
1,note_on,91,85,0
1,note_on,81,72,0
1,note_on,81,0,238
1,note_on,88,0,0
1,note_on,93,0,0
1,note_on,91,0,0
1,note_on,93,74,2
1,note_on,81,62,0
1,note_on,81,0,240
1,note_on,93,0,0
1,note_on,69,46,0
1,note_on,81,55,0
1,note_on,81,0,240
1,note_on,69,0,0
1,note_on,66,46,0
1,note_on,78,55,0
1,note_on,78,0,238
1,note_on,66,0,0
1,note_on,66,51,2
1,note_on,78,60,0
1,note_on,78,0,240
1,note_on,66,0,0
1,note_on,62,46,0
1,note_on,74,55,0
1,note_on,74,0,240
1,note_on,62,0,0
1,note_on,64,47,0
1,note_on,76,56,0
1,note_on,76,0,240
1,note_on,64,0,0
1,note_on,66,51,0
1,note_on,78,60,0
1,note_on,78,0,720
1,note_on,66,0,0
1,note_on,67,51,0
1,note_on,79,60,0
1,note_on,79,0,480
1,note_on,67,0,0
1,note_on,71,53,0
1,note_on,83,63,0
1,note_on,83,0,238
1,note_on,71,0,0
1,note_on,71,56,2
1,note_on,79,56,0
1,note_on,83,67,0
1,note_on,83,0,480
1,note_on,79,0,0
1,note_on,71,0,0
1,note_on,79,55,0
1,note_on,82,65,0
1,note_on,70,55,0
1,note_on,70,0,238
1,note_on,82,0,0
1,note_on,79,0,0
1,note_on,70,55,2
1,note_on,82,65,0
1,note_on,82,0,240
1,note_on,70,0,0
1,note_on,88,64,0
1,note_on,76,54,0
1,note_on,76,0,240
1,note_on,88,0,0
1,note_on,89,66,0
1,note_on,77,56,0
1,note_on,77,0,120
1,note_on,89,0,0
1,note_on,78,57,0
1,note_on,90,68,0
1,note_on,90,0,119
1,note_on,78,0,0
1,note_on,90,69,1
1,note_on,78,58,0
1,note_on,78,0,720
1,note_on,90,0,0
1,note_on,75,68,0
1,note_on,75,0,120
1,note_on,78,70,0
1,note_on,78,0,120
1,note_on,80,69,0
1,note_on,80,0,120
1,note_on,87,73,0
1,note_on,87,0,120
1,note_on,90,74,0
1,note_on,90,0,120
1,note_on,92,76,0
1,note_on,92,0,120
1,note_on,65,51,0
1,note_on,77,60,0
1,note_on,77,0,720
1,note_on,65,0,0
1,note_on,68,51,0
1,note_on,80,60,0
1,note_on,68,0,240
1,note_on,77,57,0
1,note_on,77,0,240
1,note_on,80,0,0
1,note_on,80,61,0
1,note_on,78,45,0
1,note_on,78,0,240
1,note_on,80,0,0
1,note_on,85,69,0
1,note_on,80,58,0
1,note_on,80,0,240
1,note_on,73,60,0
1,note_on,73,0,240
1,note_on,73,60,0
1,note_on,73,0,238
1,note_on,85,0,2
1,note_on,81,68,0
1,note_on,73,57,0
1,note_on,73,0,240
1,note_on,69,56,0
1,note_on,69,0,240
1,note_on,81,0,0
1,note_on,73,51,0
1,note_on,78,60,0
1,note_on,66,51,0
1,note_on,78,0,238
1,note_on,66,0,2
1,note_on,73,0,0
1,note_on,90,73,0
1,note_on,78,62,0
1,note_on,78,0,240
1,note_on,87,70,0
1,note_on,87,0,240
1,note_on,90,0,0
1,note_on,78,59,0
1,note_on,87,70,0
1,note_on,90,70,0
1,note_on,90,0,238
1,note_on,87,0,0
1,note_on,78,0,0
1,note_on,78,64,2
1,note_on,87,76,0
1,note_on,90,76,0
1,note_on,90,0,240
1,note_on,87,0,0
1,note_on,78,0,0
1,note_on,87,73,0
1,note_on,80,62,0
1,note_on,78,62,0
1,note_on,78,0,240
1,note_on,80,0,0
1,note_on,87,0,0
1,note_on,85,73,0
1,note_on,80,62,0
1,note_on,77,62,0
1,note_on,77,0,240
1,note_on,80,0,0
1,note_on,85,0,0
1,note_on,83,73,0
1,note_on,80,62,0
1,note_on,77,62,0
1,note_on,77,0,480
1,note_on,80,0,0
1,note_on,80,70,0
1,note_on,80,0,110
1,note_on,77,67,10
1,note_on,77,0,120
1,note_on,83,0,0
1,note_on,50,61,0
1,note_on,50,0,120
1,note_on,53,60,0
1,note_on,53,0,120
1,note_on,58,62,0
1,note_on,58,0,120
1,note_on,62,64,0
1,note_on,62,0,120
1,note_on,65,67,0
1,note_on,65,0,120
1,note_on,70,69,0
1,note_on,70,0,118
1,note_on,70,62,2
1,note_on,82,73,0
1,note_on,82,0,480
1,note_on,70,0,0
1,note_on,67,56,0
1,note_on,79,67,0
1,note_on,79,0,238
1,note_on,67,0,0
1,note_on,67,62,2
1,note_on,79,73,0
1,note_on,79,0,240
1,note_on,67,0,0
1,note_on,63,57,0
1,note_on,75,68,0
1,note_on,75,0,240
1,note_on,63,0,0
1,note_on,77,68,0
1,note_on,70,57,0
1,note_on,65,57,0
1,note_on,74,57,0
1,note_on,65,0,120
1,note_on,68,68,0
1,note_on,68,0,120
1,note_on,74,0,0
1,note_on,70,0,0
1,note_on,77,0,0
1,note_on,79,73,0
1,note_on,67,62,0
1,note_on,70,62,0
1,note_on,75,62,0
1,note_on,75,0,480
1,note_on,79,0,0
1,note_on,67,0,0
1,note_on,70,0,0
1,note_on,83,73,0
1,note_on,71,62,0
1,note_on,71,0,240
1,note_on,83,0,0
1,note_on,80,75,0
1,note_on,68,63,0
1,note_on,68,0,480
1,note_on,80,0,0
1,note_on,77,68,0
1,note_on,65,57,0
1,note_on,65,0,240
1,note_on,77,0,0
1,note_on,85,84,0
1,note_on,73,71,0
1,note_on,73,0,480
1,note_on,85,0,0
1,note_on,70,66,0
1,note_on,82,78,0
1,note_on,82,0,240
1,note_on,70,0,0
1,note_on,79,81,0
1,note_on,67,68,0
1,note_on,67,0,480
1,note_on,79,0,0
1,note_on,75,54,0
1,note_on,63,27,120
1,note_on,67,33,0
1,note_on,67,0,120
1,note_on,63,0,0
1,note_on,75,0,0
1,note_on,63,39,0
1,note_on,71,46,0
1,note_on,68,39,0
1,note_on,68,0,240
1,note_on,63,0,0
1,note_on,71,0,240
1,note_on,68,52,0
1,note_on,68,0,240
1,note_on,76,58,0
1,note_on,76,0,480
1,note_on,73,56,0
1,note_on,73,0,240
1,note_on,70,60,0
1,note_on,70,0,480
1,note_on,78,68,0
1,note_on,90,80,0
1,note_on,90,0,240
1,note_on,78,0,0
1,note_on,75,73,0
1,note_on,87,87,0
1,note_on,87,0,480
1,note_on,75,0,0
1,note_on,72,70,0
1,note_on,84,83,0
1,note_on,84,0,240
1,note_on,72,0,0
1,note_on,80,74,0
1,note_on,92,87,0
1,note_on,92,0,480
1,note_on,80,0,0
1,note_on,76,68,0
1,note_on,88,80,0
1,note_on,88,0,240
1,note_on,76,0,0
1,note_on,73,73,0
1,note_on,85,87,0
1,note_on,85,0,480
1,note_on,73,0,0
1,note_on,57,45,0
1,note_on,69,53,0
1,note_on,69,0,240
1,note_on,57,0,0
1,note_on,57,43,0
1,note_on,66,51,0
1,note_on,57,0,235
1,note_on,66,0,245
1,note_on,63,56,0
1,note_on,63,0,240
1,note_on,83,63,0
1,note_on,83,0,480
1,note_on,80,53,0
1,note_on,80,0,240
1,note_on,77,51,0
1,note_on,77,0,480
1,note_on,85,59,0
1,note_on,73,54,0
1,note_on,73,0,240
1,note_on,85,0,0
1,note_on,81,60,0
1,note_on,73,51,0
1,note_on,73,0,120
1,note_on,78,51,0
1,note_on,78,0,238
1,note_on,69,51,2
1,note_on,69,0,120
1,note_on,81,0,0
1,note_on,86,56,0
1,note_on,74,50,0
1,note_on,74,0,240
1,note_on,86,0,0
1,note_on,83,56,0
1,note_on,71,47,0
1,note_on,71,0,480
1,note_on,83,0,0
1,note_on,68,42,0
1,note_on,80,50,0
1,note_on,80,0,240
1,note_on,68,0,0
1,note_on,77,46,0
1,note_on,65,39,0
1,note_on,65,0,480
1,note_on,77,0,0
1,note_on,74,44,0
1,note_on,65,37,0
1,note_on,68,37,0
1,note_on,71,37,0
1,note_on,71,0,238
1,note_on,68,0,0
1,note_on,65,0,0
1,note_on,74,0,0
1,note_on,71,39,2
1,note_on,65,27,0
1,note_on,62,27,0
1,note_on,68,27,0
1,note_on,68,0,475
1,note_on,71,0,0
1,note_on,65,0,0
1,note_on,62,0,0
1,note_on,68,36,5
1,note_on,59,25,0
1,note_on,62,25,0
1,note_on,65,25,0
1,note_on,65,0,238
1,note_on,68,0,0
1,note_on,59,0,0
1,note_on,62,0,0
1,note_on,65,34,2
1,note_on,56,24,0
1,note_on,59,24,0
1,note_on,62,24,0
1,note_on,62,0,475
1,note_on,65,0,0
1,note_on,56,0,0
1,note_on,59,0,0
1,note_on,62,30,5
1,note_on,53,21,0
1,note_on,56,21,0
1,note_on,59,21,0
1,note_on,59,0,300
1,note_on,62,0,0
1,note_on,53,0,0
1,note_on,56,0,0
1,note_on,59,30,0
1,note_on,59,0,60
1,note_on,56,30,0
1,note_on,56,0,60
1,note_on,53,30,0
1,note_on,53,0,60
1,note_on,50,30,0
1,note_on,50,0,60
1,note_on,47,30,0
1,note_on,47,0,60
1,note_on,44,30,0
1,note_on,44,0,60
1,note_on,47,30,0
1,note_on,47,0,60
1,note_on,50,35,0
1,note_on,50,0,60
1,note_on,53,30,0
1,note_on,53,0,60
1,note_on,56,30,0
1,note_on,56,0,60
1,note_on,59,30,0
1,note_on,59,0,60
1,note_on,59,30,0
1,note_on,62,36,0
1,note_on,62,0,60
1,note_on,59,0,0
1,note_on,65,30,0
1,note_on,65,0,60
1,note_on,68,30,0
1,note_on,68,0,60
1,note_on,71,30,0
1,note_on,71,0,60
1,note_on,74,35,0
1,note_on,71,29,0
1,note_on,71,0,60
1,note_on,74,0,0
1,note_on,77,30,0
1,note_on,77,0,60
1,note_on,80,30,0
1,note_on,80,0,60
1,note_on,83,30,0
1,note_on,83,0,60
1,note_on,81,22,0
1,note_on,86,32,0
1,note_on,86,0,60
1,note_on,84,28,0
1,note_on,84,0,60
1,note_on,86,28,0
1,note_on,86,0,60
1,note_on,85,28,0
1,note_on,85,0,60
1,note_on,81,0,0
1,note_on,81,24,0
1,note_on,86,35,0
1,note_on,86,0,60
1,note_on,73,24,0
1,note_on,73,0,60
1,note_on,86,28,0
1,note_on,86,0,60
1,note_on,85,28,0
1,note_on,85,0,60
1,note_on,81,0,0
1,note_on,73,22,0
1,note_on,81,32,0
1,note_on,73,0,60
1,note_on,85,28,0
1,note_on,85,0,60
1,note_on,86,28,0
1,note_on,86,0,60
1,note_on,85,28,0
1,note_on,85,0,60
1,note_on,81,0,0
1,note_on,83,28,0
1,note_on,83,0,60
1,note_on,69,24,0
1,note_on,69,0,60
1,note_on,83,28,0
1,note_on,83,0,60
1,note_on,81,26,0
1,note_on,81,0,60
1,note_on,69,28,0
1,note_on,69,0,60
1,note_on,81,28,0
1,note_on,81,0,60
1,note_on,83,28,0
1,note_on,83,0,60
1,note_on,81,28,0
1,note_on,81,0,60
1,note_on,80,34,0
1,note_on,80,0,60
1,note_on,66,24,0
1,note_on,66,0,60
1,note_on,80,28,0
1,note_on,80,0,60
1,note_on,78,28,0
1,note_on,78,0,60
1,note_on,68,28,0
1,note_on,68,0,60
1,note_on,80,28,0
1,note_on,80,0,60
1,note_on,81,26,0
1,note_on,81,0,60
1,note_on,80,26,0
1,note_on,80,0,60
1,note_on,69,31,0
1,note_on,69,0,60
1,note_on,81,31,0
1,note_on,81,0,60
1,note_on,83,29,0
1,note_on,83,0,60
1,note_on,81,30,0
1,note_on,81,0,60
1,note_on,83,39,0
1,note_on,83,0,60
1,note_on,70,28,0
1,note_on,70,0,60
1,note_on,83,35,0
1,note_on,83,0,60
1,note_on,82,35,0
1,note_on,82,0,60
1,note_on,71,36,0
1,note_on,71,0,60
1,note_on,83,37,0
1,note_on,83,0,60
1,note_on,85,37,0
1,note_on,85,0,60
1,note_on,83,38,0
1,note_on,83,0,60
1,note_on,85,49,0
1,note_on,85,0,60
1,note_on,83,40,0
1,note_on,83,0,60
1,note_on,71,34,0
1,note_on,71,0,60
1,note_on,83,42,0
1,note_on,83,0,60
1,note_on,71,42,0
1,note_on,71,0,60
1,note_on,83,44,0
1,note_on,83,0,60
1,note_on,85,42,0
1,note_on,85,0,60
1,note_on,83,42,0
1,note_on,83,0,60
1,note_on,88,55,0
1,note_on,88,0,60
1,note_on,86,46,0
1,note_on,86,0,60
1,note_on,74,40,0
1,note_on,74,0,60
1,note_on,86,48,0
1,note_on,86,0,60
1,note_on,74,50,0
1,note_on,74,0,60
1,note_on,86,50,0
1,note_on,86,0,60
1,note_on,88,51,0
1,note_on,88,0,60
1,note_on,86,51,0
1,note_on,86,0,60
1,note_on,88,60,0
1,note_on,88,0,60
1,note_on,86,43,0
1,note_on,86,0,60
1,note_on,74,52,0
1,note_on,74,0,60
1,note_on,86,53,0
1,note_on,86,0,60
1,note_on,73,52,0
1,note_on,73,0,60
1,note_on,85,54,0
1,note_on,85,0,60
1,note_on,86,54,0
1,note_on,86,0,60
1,note_on,85,55,0
1,note_on,85,0,60
1,note_on,86,68,0
1,note_on,86,0,60
1,note_on,85,56,0
1,note_on,85,0,60
1,note_on,73,47,0
1,note_on,73,0,60
1,note_on,85,56,0
1,note_on,85,0,60
1,note_on,77,43,0
1,note_on,83,57,0
1,note_on,83,0,60
1,note_on,77,0,0
1,note_on,89,57,0
1,note_on,89,0,60
1,note_on,90,58,0
1,note_on,90,0,60
1,note_on,89,58,0
1,note_on,89,0,60
1,note_on,92,70,0
1,note_on,92,0,60
1,note_on,90,59,0
1,note_on,90,0,60
1,note_on,81,50,0
1,note_on,78,50,0
1,note_on,78,0,60
1,note_on,81,0,0
1,note_on,90,60,0
1,note_on,90,0,60
1,note_on,93,68,0
1,note_on,93,0,60
1,note_on,92,61,0
1,note_on,92,0,60
1,note_on,80,61,0
1,note_on,80,0,60
1,note_on,92,61,0
1,note_on,92,0,60
1,note_on,92,51,60
1,note_on,92,0,60
1,note_on,80,60,0
1,note_on,80,0,60
1,note_on,92,55,0
1,note_on,92,0,60
1,note_on,92,54,60
1,note_on,92,0,60
1,note_on,80,59,0
1,note_on,80,0,60
1,note_on,92,55,0
1,note_on,92,0,60
1,note_on,80,53,60
1,note_on,80,0,60
1,note_on,88,64,0
1,note_on,88,0,60
1,note_on,86,53,0
1,note_on,86,0,60
1,note_on,85,61,0
1,note_on,85,0,60
1,note_on,86,61,0
1,note_on,86,0,60
1,note_on,80,57,0
1,note_on,80,0,60
1,note_on,86,57,0
1,note_on,86,0,60
1,note_on,86,56,60
1,note_on,86,0,60
1,note_on,80,64,0
1,note_on,80,0,60
1,note_on,86,56,0
1,note_on,86,0,60
1,note_on,74,61,0
1,note_on,74,0,60
1,note_on,85,54,0
1,note_on,85,0,60
1,note_on,88,58,0
1,note_on,88,0,60
1,note_on,86,53,0
1,note_on,86,0,60
1,note_on,85,66,0
1,note_on,85,0,60
1,note_on,86,51,0
1,note_on,86,0,60
1,note_on,74,61,0
1,note_on,74,0,60
1,note_on,86,54,0
1,note_on,86,0,60
1,note_on,74,63,0
1,note_on,74,0,60
1,note_on,86,57,0
1,note_on,86,0,60
1,note_on,88,64,0
1,note_on,88,0,60
1,note_on,86,57,0
1,note_on,86,0,58
1,note_on,86,66,2
1,note_on,86,0,60
1,note_on,85,53,0
1,note_on,85,0,60
1,note_on,73,59,0
1,note_on,73,0,60
1,note_on,85,51,0
1,note_on,85,0,60
1,note_on,84,50,0
1,note_on,84,0,60
1,note_on,85,49,0
1,note_on,85,0,60
1,note_on,73,48,0
1,note_on,73,0,60
1,note_on,85,47,0
1,note_on,85,0,60
1,note_on,82,55,0
1,note_on,82,0,60
1,note_on,83,46,0
1,note_on,83,0,60
1,note_on,71,37,0
1,note_on,71,0,60
1,note_on,83,44,0
1,note_on,83,0,60
1,note_on,71,50,0
1,note_on,71,0,60
1,note_on,83,44,0
1,note_on,83,0,60
1,note_on,85,45,0
1,note_on,85,0,60
1,note_on,83,46,0
1,note_on,83,0,60
1,note_on,82,55,0
1,note_on,82,0,60
1,note_on,83,48,0
1,note_on,83,0,60
1,note_on,71,43,0
1,note_on,71,0,60
1,note_on,83,51,0
1,note_on,83,0,60
1,note_on,71,56,0
1,note_on,71,0,60
1,note_on,83,54,0
1,note_on,83,0,60
1,note_on,85,55,0
1,note_on,85,0,60
1,note_on,83,56,0
1,note_on,83,0,60
1,note_on,85,49,60
1,note_on,85,0,60
1,note_on,71,43,0
1,note_on,71,0,60
1,note_on,83,49,0
1,note_on,83,0,60
1,note_on,83,45,60
1,note_on,83,0,60
1,note_on,69,43,0
1,note_on,69,0,60
1,note_on,81,43,0
1,note_on,81,0,60
1,note_on,81,49,60
1,note_on,81,0,60
1,note_on,68,47,0
1,note_on,68,0,60
1,note_on,80,54,0
1,note_on,80,0,60
1,note_on,68,54,0
1,note_on,68,0,60
1,note_on,80,54,0
1,note_on,80,0,60
1,note_on,79,51,0
1,note_on,79,0,60
1,note_on,80,51,0
1,note_on,80,0,60
1,note_on,81,61,0
1,note_on,81,0,60
1,note_on,80,43,0
1,note_on,80,0,60
1,note_on,68,52,0
1,note_on,68,0,60
1,note_on,80,52,0
1,note_on,80,0,60
1,note_on,68,50,0
1,note_on,68,0,60
1,note_on,80,51,0
1,note_on,80,0,60
1,note_on,81,51,0
1,note_on,81,0,60
1,note_on,80,50,0
1,note_on,80,0,60
1,note_on,81,61,0
1,note_on,81,0,60
1,note_on,80,50,0
1,note_on,80,0,60
1,note_on,68,41,0
1,note_on,68,0,60
1,note_on,80,49,0
1,note_on,80,0,60
1,note_on,69,49,0
1,note_on,69,0,60
1,note_on,81,48,0
1,note_on,81,0,60
1,note_on,83,48,0
1,note_on,83,0,60
1,note_on,81,48,0
1,note_on,81,0,60
1,note_on,80,57,0
1,note_on,80,0,60
1,note_on,78,47,0
1,note_on,78,0,60
1,note_on,66,39,0
1,note_on,66,0,60
1,note_on,78,47,0
1,note_on,78,0,60
1,note_on,77,53,0
1,note_on,77,0,60
1,note_on,78,46,0
1,note_on,78,0,60
1,note_on,66,45,0
1,note_on,66,0,60
1,note_on,78,46,0
1,note_on,78,0,60
1,note_on,80,54,0
1,note_on,80,0,60
1,note_on,78,39,0
1,note_on,78,0,60
1,note_on,66,46,0
1,note_on,66,0,60
1,note_on,78,46,0
1,note_on,78,0,60
1,note_on,77,45,0
1,note_on,77,0,60
1,note_on,78,41,0
1,note_on,78,0,60
1,note_on,66,46,0
1,note_on,66,0,60
1,note_on,78,40,0
1,note_on,78,0,60
1,note_on,78,46,60
1,note_on,78,0,60
1,note_on,65,39,0
1,note_on,65,0,60
1,note_on,77,46,0
1,note_on,77,0,60
1,note_on,81,46,60
1,note_on,81,0,60
1,note_on,68,42,0
1,note_on,68,0,60
1,note_on,80,46,0
1,note_on,80,0,60
1,note_on,85,46,60
1,note_on,85,0,60
1,note_on,71,39,0
1,note_on,71,0,60
1,note_on,83,46,0
1,note_on,83,0,60
1,note_on,85,46,0
1,note_on,85,0,60
1,note_on,71,39,0
1,note_on,71,0,60
1,note_on,85,46,0
1,note_on,85,0,60
1,note_on,83,46,0
1,note_on,83,0,60
1,note_on,82,54,0
1,note_on,82,0,60
1,note_on,83,46,0
1,note_on,83,0,60
1,note_on,71,37,0
1,note_on,71,0,60
1,note_on,83,46,0
1,note_on,83,0,58
1,note_on,83,45,2
1,note_on,83,0,60
1,note_on,81,46,0
1,note_on,81,0,60
1,note_on,69,41,0
1,note_on,69,0,60
1,note_on,81,46,0
1,note_on,81,0,60
1,note_on,83,57,0
1,note_on,83,0,60
1,note_on,69,39,0
1,note_on,69,0,60
1,note_on,83,44,0
1,note_on,83,0,60
1,note_on,81,46,0
1,note_on,81,0,58
1,note_on,81,46,2
1,note_on,81,0,60
1,note_on,68,39,0
1,note_on,68,0,60
1,note_on,81,43,0
1,note_on,81,0,60
1,note_on,80,43,0
1,note_on,80,0,58
1,note_on,80,55,2
1,note_on,80,0,60
1,note_on,66,38,0
1,note_on,66,0,60
1,note_on,80,39,0
1,note_on,80,0,60
1,note_on,78,46,0
1,note_on,78,0,60
1,note_on,77,46,0
1,note_on,77,0,60
1,note_on,78,46,0
1,note_on,78,0,60
1,note_on,66,41,0
1,note_on,66,0,60
1,note_on,78,46,0
1,note_on,78,0,60
1,note_on,80,54,0
1,note_on,80,0,60
1,note_on,78,45,0
1,note_on,78,0,60
1,note_on,66,38,0
1,note_on,66,0,60
1,note_on,78,46,0
1,note_on,78,0,60
1,note_on,65,45,0
1,note_on,65,0,60
1,note_on,77,42,0
1,note_on,77,0,60
1,note_on,78,46,0
1,note_on,78,0,60
1,note_on,77,46,0
1,note_on,77,0,60
1,note_on,78,57,0
1,note_on,78,0,60
1,note_on,65,39,0
1,note_on,65,0,60
1,note_on,78,45,0
1,note_on,78,0,60
1,note_on,77,46,0
1,note_on,77,0,60
1,note_on,68,51,0
1,note_on,68,0,60
1,note_on,80,47,0
1,note_on,80,0,60
1,note_on,81,47,0
1,note_on,81,0,60
1,note_on,80,48,0
1,note_on,80,0,60
1,note_on,83,59,0
1,note_on,83,0,60
1,note_on,71,42,0
1,note_on,71,0,60
1,note_on,74,51,0
1,note_on,74,0,60
1,note_on,86,53,0
1,note_on,86,0,60
1,note_on,85,58,0
1,note_on,85,0,60
1,note_on,86,55,0
1,note_on,86,0,60
1,note_on,74,50,0
1,note_on,74,0,60
1,note_on,86,57,0
1,note_on,86,0,60
1,note_on,88,68,0
1,note_on,88,0,60
1,note_on,86,58,0
1,note_on,86,0,60
1,note_on,74,50,0
1,note_on,74,0,60
1,note_on,86,61,0
1,note_on,86,0,58
1,note_on,86,60,2
1,note_on,86,0,60
1,note_on,73,52,0
1,note_on,73,0,60
1,note_on,86,59,0
1,note_on,86,0,60
1,note_on,85,58,0
1,note_on,85,0,60
1,note_on,86,62,60
1,note_on,86,0,60
1,note_on,73,50,0
1,note_on,73,0,60
1,note_on,85,54,0
1,note_on,85,0,60
1,note_on,85,56,60
1,note_on,85,0,60
1,note_on,71,45,0
1,note_on,71,0,60
1,note_on,83,49,0
1,note_on,83,0,60
1,note_on,83,50,60
1,note_on,83,0,60
1,note_on,69,40,0
1,note_on,69,0,60
1,note_on,81,47,0
1,note_on,81,0,60
1,note_on,83,57,0
1,note_on,83,0,60
1,note_on,69,45,0
1,note_on,69,0,60
1,note_on,83,54,0
1,note_on,83,0,60
1,note_on,81,51,0
1,note_on,81,0,60
1,note_on,80,63,0
1,note_on,80,0,60
1,note_on,81,52,0
1,note_on,81,0,60
1,note_on,69,42,0
1,note_on,69,0,60
1,note_on,81,51,0
1,note_on,81,0,60
1,note_on,81,49,0
1,note_on,81,0,60
1,note_on,68,42,0
1,note_on,68,0,60
1,note_on,81,48,0
1,note_on,81,0,60
1,note_on,80,47,0
1,note_on,80,0,60
1,note_on,80,50,60
1,note_on,80,0,60
1,note_on,68,41,0
1,note_on,68,0,60
1,note_on,80,49,0
1,note_on,80,0,60
1,note_on,92,48,60
1,note_on,92,0,60
1,note_on,80,53,0
1,note_on,80,0,60
1,note_on,92,48,0
1,note_on,92,0,60
1,note_on,91,44,60
1,note_on,91,0,60
1,note_on,79,51,0
1,note_on,79,0,60
1,note_on,91,47,0
1,note_on,91,0,60
1,note_on,91,46,60
1,note_on,91,0,60
1,note_on,79,52,0
1,note_on,79,0,60
1,note_on,91,46,0
1,note_on,91,0,60
1,note_on,91,45,60
1,note_on,91,0,60
1,note_on,83,51,0
1,note_on,83,0,60
1,note_on,95,45,0
1,note_on,95,0,60
1,note_on,95,44,60
1,note_on,95,0,60
1,note_on,81,48,0
1,note_on,81,0,60
1,note_on,93,43,0
1,note_on,93,0,60
1,note_on,93,43,60
1,note_on,93,0,60
1,note_on,79,49,0
1,note_on,79,0,60
1,note_on,91,45,0
1,note_on,91,0,60
1,note_on,91,48,60
1,note_on,91,0,60
1,note_on,79,57,0
1,note_on,79,0,60
1,note_on,91,51,0
1,note_on,91,0,60
1,note_on,91,55,60
1,note_on,91,0,60
1,note_on,79,61,0
1,note_on,79,0,60
1,note_on,78,57,0
1,note_on,90,57,0
1,note_on,90,0,60
1,note_on,78,0,0
1,note_on,90,60,60
1,note_on,90,0,60
1,note_on,76,55,0
1,note_on,76,0,60
1,note_on,88,63,0
1,note_on,88,0,60
1,note_on,88,60,60
1,note_on,88,0,60
1,note_on,76,53,0
1,note_on,76,0,60
1,note_on,88,57,0
1,note_on,88,0,60
1,note_on,88,53,60
1,note_on,88,0,60
1,note_on,76,57,0
1,note_on,76,0,60
1,note_on,78,50,0
1,note_on,90,50,0
1,note_on,90,0,60
1,note_on,78,0,0
1,note_on,90,47,60
1,note_on,90,0,60
1,note_on,79,54,0
1,note_on,79,0,60
1,note_on,91,44,0
1,note_on,91,0,60
1,note_on,91,43,60
1,note_on,91,0,60
1,note_on,79,50,0
1,note_on,79,0,60
1,note_on,91,43,0
1,note_on,91,0,60
1,note_on,91,43,60
1,note_on,91,0,60
1,note_on,79,51,0
1,note_on,79,0,60
1,note_on,78,43,0
1,note_on,90,43,0
1,note_on,90,0,60
1,note_on,78,0,0
1,note_on,90,52,0
1,note_on,90,0,60
1,note_on,78,43,0
1,note_on,78,0,60
1,note_on,78,43,0
1,note_on,78,0,60
1,note_on,90,43,0
1,note_on,90,0,60
1,note_on,93,50,0
1,note_on,93,0,60
1,note_on,81,36,0
1,note_on,81,0,60
1,note_on,81,43,0
1,note_on,81,0,60
1,note_on,93,43,0
1,note_on,93,0,60
1,note_on,97,50,0
1,note_on,97,0,60
1,note_on,85,43,0
1,note_on,85,0,60
1,note_on,85,49,0
1,note_on,85,0,60
1,note_on,97,43,0
1,note_on,97,0,60
1,note_on,97,43,60
1,note_on,97,0,60
1,note_on,85,49,0
1,note_on,85,0,60
1,note_on,97,45,0
1,note_on,97,0,60
1,note_on,85,48,60
1,note_on,85,0,60
1,note_on,73,45,0
1,note_on,73,0,60
1,note_on,85,51,0
1,note_on,85,0,60
1,note_on,97,55,60
1,note_on,97,0,60
1,note_on,85,65,0
1,note_on,85,0,60
1,note_on,97,57,0
1,note_on,97,0,60
1,note_on,85,60,60
1,note_on,85,0,60
1,note_on,73,48,0
1,note_on,73,0,60
1,note_on,85,63,0
1,note_on,85,0,60
1,note_on,97,53,60
1,note_on,97,0,60
1,note_on,85,61,0
1,note_on,85,0,60
1,note_on,97,59,0
1,note_on,97,0,60
1,note_on,93,55,0
1,note_on,93,0,60
1,note_on,81,54,0
1,note_on,81,0,60
1,note_on,81,52,0
1,note_on,81,0,60
1,note_on,93,49,0
1,note_on,93,0,60
1,note_on,93,52,0
1,note_on,93,0,60
1,note_on,81,41,0
1,note_on,81,0,60
1,note_on,81,47,0
1,note_on,81,0,60
1,note_on,93,44,0
1,note_on,93,0,60
1,note_on,90,52,0
1,note_on,90,0,60
1,note_on,78,47,0
1,note_on,78,0,60
1,note_on,78,47,0
1,note_on,78,0,60
1,note_on,66,46,0
1,note_on,66,0,60
1,note_on,77,50,0
1,note_on,80,59,0
1,note_on,71,50,0
1,note_on,71,0,60
1,note_on,80,0,0
1,note_on,77,0,0
1,note_on,68,56,0
1,note_on,68,0,60
1,note_on,78,50,0
1,note_on,81,59,0
1,note_on,73,50,0
1,note_on,73,0,60
1,note_on,81,0,0
1,note_on,78,0,0
1,note_on,69,62,0
1,note_on,69,0,60
1,note_on,80,55,0
1,note_on,83,65,0
1,note_on,71,55,0
1,note_on,71,0,240
1,note_on,83,0,0
1,note_on,80,0,0
1,note_on,68,50,0
1,note_on,71,59,0
1,note_on,62,50,0
1,note_on,62,0,240
1,note_on,71,0,0
1,note_on,68,0,0
1,note_on,61,50,0
1,note_on,66,50,0
1,note_on,69,59,0
1,note_on,69,0,240
1,note_on,66,0,0
1,note_on,61,0,0
1,note_on,59,51,0
1,note_on,62,51,0
1,note_on,69,65,0
1,note_on,65,55,0
1,note_on,65,0,240
1,note_on,59,0,0
1,note_on,62,0,0
1,note_on,69,0,0
1,note_on,62,50,0
1,note_on,59,50,0
1,note_on,68,59,0
1,note_on,65,59,0
1,note_on,65,0,240
1,note_on,62,0,0
1,note_on,59,0,0
1,note_on,68,0,0
1,note_on,63,50,0
1,note_on,57,50,0
1,note_on,66,59,0
1,note_on,66,0,240
1,note_on,57,0,0
1,note_on,63,0,0
1,note_on,63,56,0
1,note_on,66,66,0
1,note_on,57,56,0
1,note_on,63,0,360
1,note_on,60,55,0
1,note_on,60,0,120
1,note_on,61,55,0
1,note_on,61,0,120
1,note_on,60,55,0
1,note_on,60,0,120
1,note_on,57,0,0
1,note_on,66,0,0
1,note_on,56,50,0
1,note_on,65,59,0
1,note_on,61,50,0
1,note_on,68,57,360
1,note_on,68,0,120
1,note_on,71,60,0
1,note_on,71,0,120
1,note_on,74,63,0
1,note_on,74,0,120
1,note_on,56,0,0
1,note_on,65,0,0
1,note_on,61,0,0
1,note_on,68,55,0
1,note_on,62,46,0
1,note_on,74,65,0
1,note_on,65,46,0
1,note_on,71,55,0
1,note_on,71,0,238
1,note_on,74,0,0
1,note_on,68,0,0
1,note_on,62,0,0
1,note_on,65,0,0
1,note_on,68,50,2
1,note_on,74,59,0
1,note_on,62,50,0
1,note_on,71,50,0
1,note_on,71,0,238
1,note_on,68,0,0
1,note_on,74,0,0
1,note_on,62,0,0
1,note_on,61,50,2
1,note_on,73,59,0
1,note_on,69,50,0
1,note_on,69,0,238
1,note_on,73,0,0
1,note_on,61,0,0
1,note_on,68,55,2
1,note_on,73,65,0
1,note_on,65,55,0
1,note_on,62,55,0
1,note_on,62,0,238
1,note_on,68,0,0
1,note_on,73,0,0
1,note_on,65,0,0
1,note_on,68,50,2
1,note_on,71,59,0
1,note_on,65,59,0
1,note_on,62,50,0
1,note_on,62,0,238
1,note_on,68,0,0
1,note_on,71,0,0
1,note_on,65,0,0
1,note_on,63,50,2
1,note_on,66,50,0
1,note_on,69,59,0
1,note_on,69,0,238
1,note_on,66,0,0
1,note_on,63,0,0
1,note_on,66,56,2
1,note_on,69,66,0
1,note_on,60,55,240
1,note_on,60,0,120
1,note_on,61,55,0
1,note_on,61,0,120
1,note_on,69,0,0
1,note_on,66,0,0
1,note_on,65,51,0
1,note_on,68,51,0
1,note_on,60,55,0
1,note_on,60,0,120
1,note_on,61,55,0
1,note_on,61,0,120
1,note_on,68,0,0
1,note_on,65,0,0
1,note_on,61,50,0
1,note_on,56,50,0
1,note_on,65,50,0
1,note_on,68,59,0
1,note_on,68,0,240
1,note_on,61,0,0
1,note_on,56,0,0
1,note_on,65,0,0
1,note_on,55,33,0
1,note_on,58,33,0
1,note_on,64,39,0
1,note_on,67,48,0
1,note_on,64,0,240
1,note_on,55,0,0
1,note_on,58,0,0
1,note_on,55,33,0
1,note_on,59,33,0
1,note_on,62,39,0
1,note_on,67,0,180
1,note_on,67,47,0
1,note_on,67,0,60
1,note_on,62,0,0
1,note_on,59,0,0
1,note_on,55,0,0
1,note_on,83,63,0
1,note_on,71,47,240
1,note_on,71,0,240
1,note_on,83,0,0
1,note_on,69,37,0
1,note_on,81,50,0
1,note_on,81,0,238
1,note_on,69,0,0
1,note_on,69,40,2
1,note_on,81,55,0
1,note_on,81,0,240
1,note_on,69,0,0
1,note_on,67,35,0
1,note_on,79,48,0
1,note_on,79,0,240
1,note_on,67,0,0
1,note_on,67,36,0
1,note_on,71,36,0
1,note_on,79,49,0
1,note_on,79,0,120
1,note_on,71,0,0
1,note_on,74,33,0
1,note_on,78,44,0
1,note_on,78,0,120
1,note_on,74,0,0
1,note_on,67,0,0
1,note_on,67,40,0
1,note_on,74,48,0
1,note_on,78,55,0
1,note_on,78,0,240
1,note_on,74,0,0
1,note_on,67,0,0
1,note_on,67,36,0
1,note_on,72,36,0
1,note_on,76,49,0
1,note_on,76,0,240
1,note_on,72,0,0
1,note_on,67,0,0
1,note_on,76,48,0
1,note_on,72,35,0
1,note_on,67,35,0
1,note_on,67,0,120
1,note_on,72,0,0
1,note_on,76,0,0
1,note_on,75,38,0
1,note_on,78,51,0
1,note_on,69,38,0
1,note_on,72,38,0
1,note_on,72,0,120
1,note_on,75,0,0
1,note_on,78,0,0
1,note_on,69,0,0
1,note_on,75,40,0
1,note_on,78,55,0
1,note_on,69,40,0
1,note_on,72,40,0
1,note_on,72,0,120
1,note_on,75,0,0
1,note_on,78,0,0
1,note_on,69,0,0
1,note_on,79,50,0
1,note_on,74,37,0
1,note_on,71,37,0
1,note_on,71,0,120
1,note_on,74,0,0
1,note_on,79,0,0
1,note_on,71,37,0
1,note_on,74,37,0
1,note_on,79,50,0
1,note_on,79,0,240
1,note_on,74,0,0
1,note_on,71,0,0
1,note_on,67,40,0
1,note_on,67,0,120
1,note_on,54,30,0
1,note_on,66,36,0
1,note_on,66,0,120
1,note_on,54,0,0
1,note_on,54,34,0
1,note_on,66,40,0
1,note_on,66,0,238
1,note_on,54,0,0
1,note_on,57,31,2
1,note_on,69,37,0
1,note_on,66,31,0
1,note_on,61,31,0
1,note_on,61,0,238
1,note_on,57,0,0
1,note_on,69,0,0
1,note_on,66,0,0
1,note_on,61,31,2
1,note_on,73,37,0
1,note_on,69,31,0
1,note_on,66,31,0
1,note_on,66,0,238
1,note_on,61,0,0
1,note_on,73,0,0
1,note_on,69,0,0
1,note_on,61,34,2
1,note_on,73,41,0
1,note_on,68,34,0
1,note_on,65,34,0
1,note_on,65,0,475
1,note_on,61,0,0
1,note_on,73,0,0
1,note_on,68,0,0
1,note_on,61,29,5
1,note_on,73,35,0
1,note_on,69,29,0
1,note_on,66,29,0
1,note_on,66,0,238
1,note_on,61,0,0
1,note_on,73,0,0
1,note_on,69,0,0
1,note_on,61,36,2
1,note_on,69,36,0
1,note_on,73,43,0
1,note_on,73,0,240
1,note_on,69,0,0
1,note_on,61,0,0
1,note_on,62,34,0
1,note_on,67,34,0
1,note_on,74,40,0
1,note_on,74,0,240
1,note_on,67,0,0
1,note_on,62,0,0
1,note_on,55,30,0
1,note_on,67,36,0
1,note_on,67,0,240
1,note_on,55,0,0
1,note_on,59,31,0
1,note_on,71,37,0
1,note_on,71,0,240
1,note_on,59,0,0
1,note_on,61,37,0
1,note_on,61,0,240
1,note_on,65,31,0
1,note_on,53,26,0
1,note_on,53,0,240
1,note_on,65,0,0
1,note_on,66,38,0
1,note_on,54,32,0
1,note_on,54,0,240
1,note_on,66,0,0
1,note_on,73,41,0
1,note_on,61,34,0
1,note_on,61,0,360
1,note_on,73,0,0
1,note_on,68,29,0
1,note_on,56,24,0
1,note_on,56,0,120
1,note_on,68,0,0
1,note_on,69,31,0
1,note_on,57,26,0
1,note_on,57,0,240
1,note_on,69,0,0
1,note_on,81,42,0
1,note_on,69,34,0
1,note_on,69,0,360
1,note_on,81,0,0
1,note_on,77,25,0
1,note_on,65,21,0
1,note_on,65,0,120
1,note_on,77,0,0
1,note_on,78,43,1200
1,note_on,78,0,357
1,note_on,78,44,3
1,note_on,78,0,238
1,note_on,78,44,2
1,note_on,81,61,120
1,note_on,78,0,118
1,note_on,78,49,2
1,note_on,81,0,118
1,note_on,86,74,2
1,note_on,78,0,118
1,note_on,78,54,2
1,note_on,86,0,120
1,note_on,88,71,0
1,note_on,78,0,118
1,note_on,78,52,2
1,note_on,88,0,120
1,note_on,90,71,0
1,note_on,78,0,118
1,note_on,78,45,2
1,note_on,78,0,120
1,note_on,90,0,0
1,note_on,90,69,0
1,note_on,90,0,30
1,note_on,91,61,0
1,note_on,91,0,30
1,note_on,90,67,0
1,note_on,90,0,30
1,note_on,91,63,0
1,note_on,91,0,30
1,note_on,90,63,0
1,note_on,90,0,30
1,note_on,91,71,0
1,note_on,91,0,30
1,note_on,90,69,0
1,note_on,90,0,30
1,note_on,91,78,0
1,note_on,91,0,30
1,note_on,93,83,0
1,note_on,81,57,120
1,note_on,93,0,120
1,note_on,91,75,0
1,note_on,91,0,240
1,note_on,91,77,0
1,note_on,81,0,115
1,note_on,81,56,5
1,note_on,91,0,200
1,note_on,81,0,40
1,note_on,88,68,0
1,note_on,88,0,120
1,note_on,85,62,0
1,note_on,85,0,120
1,note_on,86,65,0
1,note_on,86,0,120
1,note_on,87,74,0
1,note_on,87,0,120
1,note_on,88,64,0
1,note_on,88,0,200
1,note_on,79,63,0
1,note_on,79,0,80
1,note_on,78,64,0
1,note_on,78,0,80
1,note_on,79,64,0
1,note_on,79,0,80
1,note_on,81,66,0
1,note_on,81,0,80
1,note_on,82,68,0
1,note_on,82,0,80
1,note_on,85,70,0
1,note_on,85,0,80
1,note_on,83,68,0
1,note_on,83,0,80
1,note_on,81,66,0
1,note_on,81,0,80
1,note_on,79,69,0
1,note_on,79,0,80
1,note_on,78,65,0
1,note_on,78,0,80
1,note_on,79,60,0
1,note_on,79,0,80
1,note_on,80,69,0
1,note_on,80,0,80
1,note_on,81,64,0
1,note_on,81,0,80
1,note_on,76,59,0
1,note_on,76,0,80
1,note_on,79,70,0
1,note_on,79,0,120
1,note_on,78,64,0
1,note_on,78,0,240
1,note_on,81,69,0
1,note_on,81,0,240
1,note_on,86,76,0
1,note_on,86,0,238
1,note_on,86,74,2
1,note_on,86,0,240
1,note_on,88,78,0
1,note_on,88,0,240
1,note_on,90,68,0
1,note_on,90,0,119
1,note_on,90,62,1
1,note_on,90,0,30
1,note_on,91,59,0
1,note_on,91,0,30
1,note_on,90,64,0
1,note_on,90,0,30
1,note_on,91,60,0
1,note_on,91,0,30
1,note_on,90,67,0
1,note_on,90,0,30
1,note_on,91,62,0
1,note_on,91,0,30
1,note_on,90,69,0
1,note_on,90,0,30
1,note_on,91,65,0
1,note_on,91,0,30
1,note_on,90,72,0
1,note_on,90,0,30
1,note_on,91,66,0
1,note_on,91,0,30
1,note_on,90,74,0
1,note_on,90,0,30
1,note_on,91,70,0
1,note_on,91,0,30
1,note_on,90,77,0
1,note_on,90,0,40
1,note_on,89,79,0
1,note_on,89,0,40
1,note_on,90,75,0
1,note_on,90,0,40
1,note_on,93,84,0
1,note_on,93,0,120
1,note_on,91,67,0
1,note_on,91,0,120
1,note_on,91,72,0
1,note_on,91,0,320
1,note_on,87,69,0
1,note_on,87,0,80
1,note_on,88,72,0
1,note_on,88,0,80
1,note_on,91,72,0
1,note_on,91,0,80
1,note_on,90,67,0
1,note_on,90,0,80
1,note_on,88,64,0
1,note_on,88,0,78
1,note_on,88,77,2
1,note_on,88,0,320
1,note_on,84,67,0
1,note_on,84,0,80
1,note_on,85,64,0
1,note_on,85,0,80
1,note_on,88,76,0
1,note_on,88,0,80
1,note_on,86,67,0
1,note_on,86,0,80
1,note_on,85,65,0
1,note_on,85,0,80
1,note_on,83,72,0
1,note_on,83,0,60
1,note_on,82,62,0
1,note_on,82,0,60
1,note_on,86,66,0
1,note_on,86,0,60
1,note_on,85,63,0
1,note_on,85,0,60
1,note_on,84,72,0
1,note_on,84,0,60
1,note_on,85,63,0
1,note_on,85,0,60
1,note_on,76,66,0
1,note_on,76,0,60
1,note_on,79,60,0
1,note_on,79,0,60
1,note_on,77,72,0
1,note_on,77,0,60
1,note_on,78,62,0
1,note_on,78,0,60
1,note_on,73,66,0
1,note_on,73,0,60
1,note_on,76,61,0
1,note_on,76,0,60
1,note_on,74,66,0
1,note_on,74,0,240
1,note_on,83,70,0
1,note_on,83,0,360
1,note_on,78,59,0
1,note_on,78,0,120
1,note_on,79,66,0
1,note_on,70,39,120
1,note_on,76,46,0
1,note_on,76,0,238
1,note_on,70,0,0
1,note_on,70,37,2
1,note_on,76,44,0
1,note_on,79,0,120
1,note_on,78,64,0
1,note_on,76,0,118
1,note_on,70,0,0
1,note_on,70,39,2
1,note_on,76,46,0
1,note_on,76,0,120
1,note_on,70,0,0
1,note_on,78,0,0
1,note_on,71,43,0
1,note_on,74,43,0
1,note_on,78,66,0
1,note_on,78,0,60
1,note_on,90,56,0
1,note_on,90,0,60
1,note_on,85,59,0
1,note_on,85,0,60
1,note_on,86,55,0
1,note_on,86,0,60
1,note_on,74,0,0
1,note_on,71,0,0
1,note_on,88,66,0
1,note_on,88,0,60
1,note_on,86,57,0
1,note_on,86,0,60
1,note_on,82,59,0
1,note_on,82,0,60
1,note_on,83,55,0
1,note_on,83,0,60
1,note_on,85,66,0
1,note_on,85,0,60
1,note_on,83,60,0
1,note_on,83,0,60
1,note_on,86,66,0
1,note_on,86,0,40
1,note_on,83,57,0
1,note_on,83,0,40
1,note_on,78,50,1
1,note_on,81,66,39
1,note_on,78,0,1
1,note_on,81,0,119
1,note_on,79,60,0
1,note_on,70,31,0
1,note_on,76,31,0
1,note_on,76,0,238
1,note_on,70,0,0
1,note_on,79,0,0
1,note_on,76,31,2
1,note_on,70,31,0
1,note_on,79,60,0
1,note_on,79,0,238
1,note_on,70,0,0
1,note_on,76,0,0
1,note_on,78,64,2
1,note_on,70,31,0
1,note_on,76,37,0
1,note_on,76,0,120
1,note_on,70,0,0
1,note_on,78,0,0
1,note_on,78,72,0
1,note_on,74,61,0
1,note_on,71,61,0
1,note_on,71,0,119
1,note_on,74,0,0
1,note_on,66,53,1
1,note_on,78,0,237
1,note_on,66,0,1
1,note_on,66,59,2
1,note_on,74,48,0
1,note_on,71,46,0
1,note_on,78,71,0
1,note_on,71,0,119
1,note_on,74,0,0
1,note_on,70,58,1
1,note_on,76,49,0
1,note_on,66,0,118
1,note_on,78,0,0
1,note_on,70,0,1
1,note_on,76,0,0
1,note_on,70,54,1
1,note_on,78,70,0
1,note_on,66,59,0
1,note_on,76,49,0
1,note_on,76,0,119
1,note_on,70,0,0
1,note_on,78,0,0
1,note_on,66,0,0
1,note_on,71,65,1
1,note_on,66,65,0
1,note_on,74,65,0
1,note_on,78,77,0
1,note_on,74,0,119
1,note_on,71,0,0
1,note_on,66,0,0
1,note_on,71,56,1
1,note_on,78,0,237
1,note_on,71,0,1
1,note_on,74,61,2
1,note_on,71,63,0
1,note_on,83,75,0
1,note_on,78,51,0
1,note_on,78,0,119
1,note_on,74,0,0
1,note_on,75,62,1
1,note_on,78,52,0
1,note_on,83,0,118
1,note_on,71,0,0
1,note_on,75,0,1
1,note_on,78,0,0
1,note_on,75,62,1
1,note_on,71,62,0
1,note_on,78,52,0
1,note_on,83,75,0
1,note_on,83,0,119
1,note_on,75,0,0
1,note_on,71,0,0
1,note_on,78,0,0
1,note_on,72,63,1
1,note_on,78,63,0
1,note_on,75,63,0
1,note_on,84,75,0
1,note_on,84,0,119
1,note_on,72,0,0
1,note_on,78,0,0
1,note_on,75,0,0
1,note_on,72,63,1
1,note_on,78,63,0
1,note_on,75,63,0
1,note_on,84,76,0
1,note_on,84,0,238
1,note_on,72,0,0
1,note_on,78,0,0
1,note_on,75,0,0
1,note_on,72,65,2
1,note_on,78,78,0
1,note_on,75,65,0
1,note_on,84,78,0
1,note_on,75,0,119
1,note_on,78,0,0
1,note_on,75,65,1
1,note_on,81,78,0
1,note_on,72,0,118
1,note_on,84,0,0
1,note_on,75,0,1
1,note_on,81,0,0
1,note_on,72,66,1
1,note_on,81,66,0
1,note_on,84,79,0
1,note_on,75,66,0
1,note_on,75,0,119
1,note_on,72,0,0
1,note_on,81,0,0
1,note_on,84,0,0
1,note_on,73,66,1
1,note_on,85,79,0
1,note_on,80,66,0
1,note_on,80,0,119
1,note_on,85,0,0
1,note_on,73,0,0
1,note_on,80,67,1
1,note_on,73,67,0
1,note_on,85,80,0
1,note_on,85,0,238
1,note_on,73,0,0
1,note_on,80,0,0
1,note_on,73,68,2
1,note_on,85,82,0
1,note_on,80,82,0
1,note_on,80,0,119
1,note_on,73,0,0
1,note_on,78,82,1
1,note_on,73,69,0
1,note_on,85,0,118
1,note_on,73,0,1
1,note_on,78,0,0
1,note_on,78,69,1
1,note_on,73,69,0
1,note_on,85,83,0
1,note_on,78,0,119
1,note_on,77,67,1
1,note_on,85,0,118
1,note_on,73,0,0
1,note_on,77,0,2
1,note_on,84,65,0
1,note_on,72,60,0
1,note_on,72,0,120
1,note_on,84,0,0
1,note_on,87,59,0
1,note_on,75,59,0
1,note_on,75,0,120
1,note_on,87,0,0
1,note_on,85,59,0
1,note_on,73,59,0
1,note_on,73,0,120
1,note_on,85,0,0
1,note_on,84,58,0
1,note_on,72,58,0
1,note_on,72,0,120
1,note_on,84,0,0
1,note_on,73,57,0
1,note_on,85,57,0
1,note_on,85,0,120
1,note_on,73,0,0
1,note_on,76,56,0
1,note_on,88,56,0
1,note_on,88,0,240
1,note_on,76,0,0
1,note_on,75,55,0
1,note_on,87,55,0
1,note_on,87,0,600
1,note_on,75,0,0
1,note_on,84,55,0
1,note_on,72,46,0
1,note_on,72,0,120
1,note_on,84,0,0
1,note_on,87,63,0
1,note_on,75,53,0
1,note_on,75,0,120
1,note_on,87,0,0
1,note_on,85,55,0
1,note_on,73,46,0
1,note_on,73,0,120
1,note_on,85,0,0
1,note_on,84,60,0
1,note_on,72,51,0
1,note_on,72,0,120
1,note_on,84,0,0
1,note_on,73,45,0
1,note_on,85,53,0
1,note_on,85,0,120
1,note_on,73,0,0
1,note_on,75,50,0
1,note_on,87,59,0
1,note_on,87,0,240
1,note_on,75,0,0
1,note_on,85,55,0
1,note_on,73,46,0
1,note_on,73,0,600
1,note_on,85,0,0
1,note_on,70,47,0
1,note_on,82,56,0
1,note_on,82,0,120
1,note_on,70,0,0
1,note_on,73,56,0
1,note_on,85,66,0
1,note_on,85,0,120
1,note_on,73,0,0
1,note_on,71,50,0
1,note_on,83,59,0
1,note_on,83,0,120
1,note_on,71,0,0
1,note_on,70,56,0
1,note_on,82,67,0
1,note_on,82,0,120
1,note_on,70,0,0
1,note_on,83,60,0
1,note_on,71,51,0
1,note_on,71,0,119
1,note_on,83,0,0
1,note_on,71,56,1
1,note_on,83,67,0
1,note_on,83,0,120
1,note_on,71,0,0
1,note_on,68,51,0
1,note_on,80,61,0
1,note_on,80,0,120
1,note_on,68,0,0
1,note_on,71,57,0
1,note_on,83,68,0
1,note_on,83,0,120
1,note_on,71,0,0
1,note_on,70,52,0
1,note_on,82,62,0
1,note_on,82,0,120
1,note_on,70,0,0
1,note_on,68,56,0
1,note_on,80,67,0
1,note_on,80,0,120
1,note_on,68,0,0
1,note_on,69,52,0
1,note_on,81,62,0
1,note_on,81,0,117
1,note_on,69,0,0
1,note_on,69,62,3
1,note_on,81,74,0
1,note_on,81,0,240
1,note_on,69,0,0
1,note_on,80,69,0
1,note_on,73,58,0
1,note_on,68,58,0
1,note_on,68,0,240
1,note_on,73,0,0
1,note_on,80,0,0
1,note_on,73,63,0
1,note_on,78,75,0
1,note_on,78,0,240
1,note_on,83,78,0
1,note_on,73,0,120
1,note_on,73,67,0
1,note_on,73,0,120
1,note_on,83,0,0
1,note_on,80,67,0
1,note_on,82,79,0
1,note_on,80,0,120
1,note_on,78,67,0
1,note_on,78,0,120
1,note_on,82,0,0
1,note_on,77,69,0
1,note_on,87,82,0
1,note_on,77,0,120
1,note_on,78,70,0
1,note_on,78,0,120
1,note_on,75,73,0
1,note_on,78,87,0
1,note_on,78,0,240
1,note_on,75,0,0
1,note_on,87,0,0
1,note_on,78,68,0
1,note_on,85,80,0
1,note_on,73,68,0
1,note_on,73,0,240
1,note_on,85,0,0
1,note_on,78,0,0
1,note_on,90,94,0
1,note_on,78,79,0
1,note_on,78,0,480
1,note_on,90,0,0
1,note_on,89,90,0
1,note_on,77,76,0
1,note_on,77,0,240
1,note_on,89,0,0
1,note_on,95,93,0
1,note_on,83,83,0
1,note_on,89,83,0
1,note_on,92,83,0
1,note_on,92,0,600
1,note_on,95,0,0
1,note_on,83,0,0
1,note_on,89,0,0
1,note_on,71,36,0
1,note_on,71,0,120
1,note_on,68,40,0
1,note_on,68,0,120
1,note_on,74,36,0
1,note_on,74,0,120
1,note_on,72,40,0
1,note_on,72,0,120
1,note_on,73,36,0
1,note_on,73,0,120
1,note_on,68,40,0
1,note_on,68,0,120
1,note_on,75,36,0
1,note_on,75,0,120
1,note_on,73,40,0
1,note_on,73,0,120
1,note_on,71,35,0
1,note_on,71,0,120
1,note_on,70,49,0
1,note_on,70,0,240
1,note_on,42,58,240
1,note_on,42,0,720
1,note_on,42,52,0
1,note_on,42,0,120
1,note_on,37,46,0
1,note_on,37,0,118
1,note_on,37,52,2
1,note_on,37,0,718
1,note_on,37,52,2
1,note_on,37,0,478
1,note_on,37,52,2
1,note_on,37,0,238
1,note_on,34,52,2
1,note_on,34,0,240
1,note_on,90,61,240
1,note_on,78,53,0
1,note_on,78,0,717
1,note_on,90,0,0
1,note_on,90,55,3
1,note_on,78,48,0
1,note_on,78,0,119
1,note_on,90,0,0
1,note_on,85,48,1
1,note_on,73,42,0
1,note_on,73,0,119
1,note_on,85,0,0
1,note_on,85,55,1
1,note_on,73,48,0
1,note_on,73,0,713
1,note_on,85,0,0
1,note_on,85,55,7
1,note_on,73,48,0
1,note_on,73,0,475
1,note_on,85,0,0
1,note_on,85,55,5
1,note_on,73,48,0
1,note_on,73,0,238
1,note_on,85,0,0
1,note_on,82,53,2
1,note_on,70,45,0
1,note_on,70,0,240
1,note_on,82,0,0
1,note_on,42,58,240
1,note_on,42,0,475
1,note_on,42,58,5
1,note_on,42,0,238
1,note_on,42,56,2
1,note_on,42,0,80
1,note_on,41,50,0
1,note_on,41,0,80
1,note_on,42,50,0
1,note_on,42,0,60
1,note_on,37,52,20
1,note_on,37,0,475
1,note_on,37,52,5
1,note_on,37,0,475
1,note_on,37,52,5
1,note_on,37,0,475
1,note_on,34,52,5
1,note_on,34,0,240
1,note_on,90,67,240
1,note_on,78,59,0
1,note_on,78,0,713
1,note_on,90,0,0
1,note_on,90,65,7
1,note_on,78,57,0
1,note_on,77,51,80
1,note_on,89,58,0
1,note_on,78,0,1
1,note_on,90,0,0
1,note_on,77,0,79
1,note_on,89,0,0
1,note_on,78,51,0
1,note_on,90,58,0
1,note_on,90,0,60
1,note_on,78,0,20
1,note_on,85,67,0
1,note_on,73,59,0
1,note_on,73,0,475
1,note_on,85,0,0
1,note_on,73,62,5
1,note_on,85,70,0
1,note_on,85,0,475
1,note_on,73,0,0
1,note_on,73,63,5
1,note_on,85,72,0
1,note_on,85,0,400
1,note_on,73,0,0
1,note_on,71,45,0
1,note_on,83,50,0
1,note_on,83,0,80
1,note_on,71,0,0
1,note_on,70,50,0
1,note_on,82,50,0
1,note_on,82,0,240
1,note_on,70,0,0
1,note_on,70,40,0
1,note_on,82,55,0
1,note_on,70,0,80
1,note_on,80,40,0
1,note_on,80,0,80
1,note_on,78,40,0
1,note_on,78,0,80
1,note_on,77,50,0
1,note_on,77,0,80
1,note_on,75,41,0
1,note_on,75,0,80
1,note_on,73,43,0
1,note_on,73,0,80
1,note_on,82,0,0
1,note_on,71,50,0
1,note_on,83,55,0
1,note_on,71,0,80
1,note_on,73,42,0
1,note_on,73,0,80
1,note_on,70,42,0
1,note_on,70,0,80
1,note_on,71,50,0
1,note_on,71,0,80
1,note_on,73,40,0
1,note_on,73,0,80
1,note_on,75,40,0
1,note_on,75,0,80
1,note_on,77,50,0
1,note_on,77,0,80
1,note_on,78,41,0
1,note_on,78,0,80
1,note_on,80,41,0
1,note_on,80,0,80
1,note_on,83,0,0
1,note_on,73,50,0
1,note_on,85,55,0
1,note_on,85,0,240
1,note_on,73,0,0
1,note_on,82,42,0
1,note_on,85,57,0
1,note_on,82,0,80
1,note_on,80,42,0
1,note_on,80,0,80
1,note_on,78,43,0
1,note_on,78,0,80
1,note_on,76,55,0
1,note_on,76,0,80
1,note_on,75,45,0
1,note_on,75,0,80
1,note_on,73,48,0
1,note_on,85,0,80
1,note_on,87,67,0
1,note_on,73,0,80
1,note_on,75,48,0
1,note_on,75,0,80
1,note_on,76,49,0
1,note_on,76,0,80
1,note_on,75,60,0
1,note_on,75,0,80
1,note_on,77,48,0
1,note_on,77,0,80
1,note_on,78,49,0
1,note_on,78,0,80
1,note_on,80,62,0
1,note_on,80,0,80
1,note_on,82,51,0
1,note_on,82,0,80
1,note_on,83,52,0
1,note_on,87,0,80
1,note_on,89,71,0
1,note_on,83,0,80
1,note_on,83,53,0
1,note_on,83,0,80
1,note_on,82,54,0
1,note_on,82,0,80
1,note_on,89,0,0
1,note_on,80,54,0
1,note_on,80,0,80
1,note_on,78,54,0
1,note_on,78,0,80
1,note_on,77,55,0
1,note_on,77,0,80
1,note_on,90,77,0
1,note_on,78,70,0
1,note_on,78,0,80
1,note_on,80,57,0
1,note_on,80,0,80
1,note_on,82,61,0
1,note_on,82,0,80
1,note_on,90,0,0
1,note_on,80,72,0
1,note_on,92,84,0
1,note_on,80,0,80
1,note_on,83,61,0
1,note_on,83,0,80
1,note_on,82,62,0
1,note_on,82,0,80
1,note_on,80,75,0
1,note_on,80,0,80
1,note_on,82,60,0
1,note_on,82,0,80
1,note_on,83,61,0
1,note_on,83,0,80
1,note_on,92,0,0
1,note_on,94,91,0
1,note_on,82,77,0
1,note_on,82,0,80
1,note_on,83,63,0
1,note_on,83,0,80
1,note_on,85,64,0
1,note_on,94,0,80
1,note_on,95,96,0
1,note_on,85,0,80
1,note_on,82,61,0
1,note_on,82,0,80
1,note_on,83,62,0
1,note_on,83,0,80
1,note_on,95,0,0
1,note_on,85,74,0
1,note_on,79,63,0
1,note_on,79,0,80
1,note_on,78,51,0
1,note_on,78,0,80
1,note_on,76,51,0
1,note_on,76,0,80
1,note_on,85,0,0
1,note_on,87,70,0
1,note_on,75,65,0
1,note_on,75,0,80
1,note_on,76,53,0
1,note_on,76,0,80
1,note_on,78,54,0
1,note_on,87,0,80
1,note_on,81,70,0
1,note_on,78,0,80
1,note_on,77,48,0
1,note_on,77,0,80
1,note_on,75,47,0
1,note_on,75,0,80
1,note_on,72,52,0
1,note_on,72,0,80
1,note_on,73,46,0
1,note_on,73,0,80
1,note_on,75,45,0
1,note_on,75,0,80
1,note_on,81,0,0
1,note_on,77,47,0
1,note_on,80,58,0
1,note_on,77,0,80
1,note_on,74,44,0
1,note_on,74,0,80
1,note_on,73,43,0
1,note_on,73,0,80
1,note_on,80,0,0
1,note_on,76,51,0
1,note_on,79,51,0
1,note_on,85,61,0
1,note_on,76,0,480
1,note_on,75,51,0
1,note_on,75,0,240
1,note_on,85,0,0
1,note_on,79,0,0
1,note_on,87,52,0
1,note_on,82,44,0
1,note_on,75,44,0
1,note_on,75,0,480
1,note_on,82,0,0
1,note_on,87,0,0
1,note_on,73,43,0
1,note_on,75,43,0
1,note_on,82,51,0
1,note_on,82,0,240
1,note_on,75,0,0
1,note_on,73,0,0
1,note_on,73,51,0
1,note_on,85,61,0
1,note_on,85,0,120
1,note_on,73,0,0
1,note_on,70,48,0
1,note_on,82,57,0
1,note_on,82,0,120
1,note_on,70,0,0
1,note_on,83,74,0
1,note_on,71,62,0
1,note_on,71,0,120
1,note_on,83,0,0
1,note_on,75,60,0
1,note_on,87,71,0
1,note_on,87,0,120
1,note_on,75,0,0
1,note_on,94,79,0
1,note_on,82,67,0
1,note_on,82,0,120
1,note_on,94,0,0
1,note_on,92,73,0
1,note_on,80,62,0
1,note_on,80,0,240
1,note_on,92,0,0
1,note_on,90,72,0
1,note_on,78,61,0
1,note_on,78,0,240
1,note_on,90,0,0
1,note_on,66,56,0
1,note_on,70,56,0
1,note_on,78,67,0
1,note_on,78,0,120
1,note_on,70,0,0
1,note_on,66,0,0
1,note_on,65,58,0
1,note_on,77,69,0
1,note_on,68,58,0
1,note_on,68,0,120
1,note_on,77,0,0
1,note_on,65,0,0
1,note_on,73,64,0
1,note_on,64,64,0
1,note_on,76,76,0
1,note_on,67,64,0
1,note_on,67,0,120
1,note_on,73,0,0
1,note_on,64,0,0
1,note_on,76,0,0
1,note_on,64,46,0
1,note_on,67,46,0
1,note_on,73,46,0
1,note_on,76,55,0
1,note_on,76,0,480
1,note_on,64,0,0
1,note_on,67,0,0
1,note_on,73,0,0
1,note_on,73,40,0
1,note_on,76,51,0
1,note_on,73,0,60
1,note_on,67,40,0
1,note_on,67,0,60
1,note_on,76,0,0
1,note_on,75,40,0
1,note_on,71,40,0
1,note_on,71,0,60
1,note_on,66,40,0
1,note_on,66,0,60
1,note_on,75,0,0
1,note_on,62,29,0
1,note_on,66,29,0
1,note_on,70,29,0
1,note_on,74,34,0
1,note_on,74,0,480
1,note_on,62,0,0
1,note_on,66,0,0
1,note_on,70,0,0
1,note_on,66,51,240
1,note_on,70,51,0
1,note_on,73,61,0
1,note_on,61,51,0
1,note_on,61,0,480
1,note_on,66,0,0
1,note_on,70,0,0
1,note_on,70,40,0
1,note_on,70,0,60
1,note_on,66,40,0
1,note_on,66,0,60
1,note_on,73,0,0
1,note_on,69,40,0
1,note_on,72,40,0
1,note_on,69,0,60
1,note_on,66,40,0
1,note_on,66,0,60
1,note_on,72,0,0
1,note_on,65,40,0
1,note_on,71,48,0
1,note_on,68,40,0
1,note_on,62,40,0
1,note_on,62,0,240
1,note_on,65,0,0
1,note_on,71,0,0
1,note_on,68,0,0
1,note_on,67,38,1200
1,note_on,70,45,0
1,note_on,70,0,475
1,note_on,67,0,0
1,note_on,67,36,5
1,note_on,70,36,0
1,note_on,75,42,0
1,note_on,75,0,240
1,note_on,70,0,0
1,note_on,67,0,0
1,note_on,67,38,0
1,note_on,63,38,0
1,note_on,70,38,0
1,note_on,75,45,0
1,note_on,75,0,480
1,note_on,67,0,0
1,note_on,63,0,0
1,note_on,70,0,0
1,note_on,63,36,0
1,note_on,75,44,0
1,note_on,67,36,0
1,note_on,67,0,240
1,note_on,75,0,0
1,note_on,63,0,0
1,note_on,63,38,0
1,note_on,66,38,0
1,note_on,75,45,0
1,note_on,75,0,240
1,note_on,66,0,0
1,note_on,63,0,0
1,note_on,61,35,0
1,note_on,73,41,0
1,note_on,65,35,0
1,note_on,65,0,480
1,note_on,73,0,0
1,note_on,61,0,0
1,note_on,61,35,0
1,note_on,66,35,0
1,note_on,70,35,0
1,note_on,73,41,0
1,note_on,73,0,480
1,note_on,61,0,0
1,note_on,66,0,0
1,note_on,70,0,0
1,note_on,70,33,0
1,note_on,70,0,240
1,note_on,61,42,0
1,note_on,61,0,480
1,note_on,73,36,0
1,note_on,73,0,240
1,note_on,70,40,0
1,note_on,70,0,480
1,note_on,82,59,0
1,note_on,73,49,0
1,note_on,70,49,0
1,note_on,70,0,240
1,note_on,73,0,0
1,note_on,82,0,0
1,note_on,68,53,0
1,note_on,80,63,0
1,note_on,71,53,0
1,note_on,71,0,480
1,note_on,80,0,0
1,note_on,68,0,0
1,note_on,73,51,0
1,note_on,71,43,0
1,note_on,68,43,0
1,note_on,61,43,0
1,note_on,61,0,240
1,note_on,73,0,0
1,note_on,71,0,0
1,note_on,68,0,0
1,note_on,73,54,0
1,note_on,61,45,0
1,note_on,70,45,0
1,note_on,70,0,480
1,note_on,61,0,0
1,note_on,73,0,0
1,note_on,82,51,0
1,note_on,82,0,240
1,note_on,73,50,0
1,note_on,73,0,480
1,note_on,85,58,0
1,note_on,73,49,0
1,note_on,73,0,240
1,note_on,85,0,0
1,note_on,70,54,0
1,note_on,82,64,0
1,note_on,82,0,480
1,note_on,70,0,0
1,note_on,73,52,0
1,note_on,85,62,0
1,note_on,85,0,480
1,note_on,73,0,0
1,note_on,85,56,0
1,note_on,75,56,0
1,note_on,87,67,0
1,note_on,85,0,120
1,note_on,83,61,0
1,note_on,83,0,120
1,note_on,87,0,0
1,note_on,75,0,0
1,note_on,82,67,0
1,note_on,89,67,0
1,note_on,77,56,0
1,note_on,82,0,120
1,note_on,83,60,0
1,note_on,83,0,120
1,note_on,77,0,0
1,note_on,89,0,0
1,note_on,82,56,0
1,note_on,90,67,0
1,note_on,78,56,0
1,note_on,78,0,720
1,note_on,90,0,0
1,note_on,82,0,0
1,note_on,80,48,0
1,note_on,89,48,0
1,note_on,92,57,0
1,note_on,85,52,480
1,note_on,85,0,240
1,note_on,80,0,0
1,note_on,89,0,0
1,note_on,92,0,0
1,note_on,94,43,0
1,note_on,90,36,0
1,note_on,85,36,0
1,note_on,82,36,0
1,note_on,82,0,480
1,note_on,94,0,0
1,note_on,90,0,0
1,note_on,85,0,0
1,note_on,70,36,0
1,note_on,73,36,0
1,note_on,82,43,0
1,note_on,82,0,238
1,note_on,73,0,0
1,note_on,70,0,0
1,note_on,85,60,2
1,note_on,82,51,0
1,note_on,73,51,0
1,note_on,73,0,360
1,note_on,82,0,0
1,note_on,85,0,0
1,note_on,86,67,0
1,note_on,83,57,0
1,note_on,74,57,0
1,note_on,74,0,120
1,note_on,83,0,0
1,note_on,86,0,0
1,note_on,88,72,0
1,note_on,85,60,0
1,note_on,76,60,0
1,note_on,76,0,120
1,note_on,85,0,0
1,note_on,88,0,0
1,note_on,90,56,0
1,note_on,86,47,0
1,note_on,78,47,0
1,note_on,78,0,119
1,note_on,86,0,0
1,note_on,90,0,0
1,note_on,90,51,1
1,note_on,78,43,0
1,note_on,78,0,480
1,note_on,90,0,0
1,note_on,86,40,0
1,note_on,74,34,0
1,note_on,74,0,236
1,note_on,86,0,0
1,note_on,86,46,4
1,note_on,74,39,0
1,note_on,74,0,240
1,note_on,86,0,0
1,note_on,83,43,0
1,note_on,71,36,0
1,note_on,71,0,240
1,note_on,83,0,0
1,note_on,73,36,0
1,note_on,85,43,0
1,note_on,85,0,240
1,note_on,73,0,0
1,note_on,74,39,0
1,note_on,86,47,0
1,note_on,86,0,480
1,note_on,74,0,0
1,note_on,71,39,960
1,note_on,83,47,0
1,note_on,83,0,720
1,note_on,71,0,0
1,note_on,74,39,0
1,note_on,86,47,0
1,note_on,86,0,720
1,note_on,74,0,0
1,note_on,91,80,0
1,note_on,79,67,0
1,note_on,79,0,960
1,note_on,91,0,0
1,note_on,71,45,0
1,note_on,74,54,0
1,note_on,74,0,240
1,note_on,71,0,0
1,note_on,66,44,0
1,note_on,72,52,0
1,note_on,72,0,120
1,note_on,66,0,0
1,note_on,67,40,0
1,note_on,71,47,0
1,note_on,71,0,120
1,note_on,67,0,0
1,note_on,67,43,0
1,note_on,71,51,0
1,note_on,71,0,240
1,note_on,67,0,0
1,note_on,43,58,240
1,note_on,43,0,475
1,note_on,43,58,5
1,note_on,43,0,238
1,note_on,43,56,2
1,note_on,43,0,80
1,note_on,42,50,0
1,note_on,42,0,80
1,note_on,43,50,0
1,note_on,43,0,60
1,note_on,38,52,20
1,note_on,38,0,475
1,note_on,38,52,5
1,note_on,38,0,475
1,note_on,38,52,5
1,note_on,38,0,480
1,note_on,35,48,0
1,note_on,35,0,240
1,note_on,91,67,240
1,note_on,79,59,0
1,note_on,79,0,475
1,note_on,91,0,0
1,note_on,79,59,5
1,note_on,91,67,0
1,note_on,91,0,238
1,note_on,79,0,0
1,note_on,91,65,2
1,note_on,79,57,0
1,note_on,78,51,80
1,note_on,90,58,0
1,note_on,79,0,1
1,note_on,91,0,0
1,note_on,78,0,79
1,note_on,90,0,0
1,note_on,79,46,0
1,note_on,91,55,0
1,note_on,91,0,60
1,note_on,79,0,20
1,note_on,86,67,0
1,note_on,74,59,0
1,note_on,74,0,475
1,note_on,86,0,0
1,note_on,74,62,5
1,note_on,86,70,0
1,note_on,86,0,475
1,note_on,74,0,0
1,note_on,74,63,5
1,note_on,86,72,0
1,note_on,86,0,475
1,note_on,74,0,0
1,note_on,86,73,5
1,note_on,74,64,0
1,note_on,74,0,475
1,note_on,86,0,0
1,note_on,74,71,5
1,note_on,86,80,0
1,note_on,86,0,475
1,note_on,74,0,0
1,note_on,74,75,5
1,note_on,86,84,0
1,note_on,86,0,320
1,note_on,74,0,0
1,note_on,73,63,0
1,note_on,85,72,0
1,note_on,85,0,80
1,note_on,73,0,0
1,note_on,74,64,0
1,note_on,86,73,0
1,note_on,86,0,78
1,note_on,74,0,0
1,note_on,78,74,2
1,note_on,86,85,0
1,note_on,74,74,0
1,note_on,74,0,475
1,note_on,86,0,0
1,note_on,78,0,0
1,note_on,78,82,5
1,note_on,74,82,0
1,note_on,86,93,0
1,note_on,86,0,475
1,note_on,74,0,0
1,note_on,78,0,0
1,note_on,78,86,5
1,note_on,90,97,0
1,note_on,90,0,320
1,note_on,78,0,0
1,note_on,77,72,0
1,note_on,89,82,0
1,note_on,89,0,80
1,note_on,77,0,0
1,note_on,78,73,0
1,note_on,90,83,0
1,note_on,90,0,78
1,note_on,78,0,0
1,note_on,78,85,2
1,note_on,90,97,0
1,note_on,90,0,475
1,note_on,78,0,0
1,note_on,78,103,5
1,note_on,90,103,0
1,note_on,90,0,360
1,note_on,78,0,0
1,note_on,78,103,120
1,note_on,90,103,0
1,note_on,90,0,360
1,note_on,78,0,0
1,note_on,90,102,120
1,note_on,78,102,0
1,note_on,78,0,119
1,note_on,90,0,0
1,note_on,90,102,1
1,note_on,90,0,238
1,note_on,90,103,2
1,note_on,90,0,238
1,note_on,90,104,2
1,note_on,90,0,238
1,note_on,90,106,2
1,note_on,90,0,238
1,note_on,90,107,2
1,note_on,90,0,238
1,note_on,90,108,2
1,note_on,90,0,120
1,note_on,73,48,0
1,note_on,73,0,480
1,note_on,69,42,0
1,note_on,69,0,238
1,note_on,69,47,2
1,note_on,69,0,240
1,note_on,66,41,0
1,note_on,66,0,240
1,note_on,65,34,0
1,note_on,68,41,0
1,note_on,61,34,0
1,note_on,61,0,240
1,note_on,68,0,0
1,note_on,65,0,0
1,note_on,57,42,0
1,note_on,66,42,0
1,note_on,69,50,0
1,note_on,61,42,0
1,note_on,61,0,480
1,note_on,57,0,0
1,note_on,66,0,0
1,note_on,69,0,0
1,note_on,58,47,0
1,note_on,61,47,0
1,note_on,66,47,0
1,note_on,70,56,0
1,note_on,70,0,240
1,note_on,58,0,0
1,note_on,61,0,0
1,note_on,66,0,0
1,note_on,62,51,0
1,note_on,59,51,0
1,note_on,71,61,0
1,note_on,66,51,0
1,note_on,66,0,480
1,note_on,62,0,0
1,note_on,59,0,0
1,note_on,71,0,0
1,note_on,71,55,0
1,note_on,66,55,0
1,note_on,62,55,0
1,note_on,74,66,0
1,note_on,74,0,240
1,note_on,71,0,0
1,note_on,66,0,0
1,note_on,62,0,0
1,note_on,71,67,0
1,note_on,62,67,0
1,note_on,74,79,0
1,note_on,65,67,0
1,note_on,65,0,480
1,note_on,71,0,0
1,note_on,62,0,0
1,note_on,74,0,0
1,note_on,69,55,0
1,note_on,66,55,0
1,note_on,73,65,0
1,note_on,61,55,0
1,note_on,61,0,238
1,note_on,69,0,0
1,note_on,66,0,0
1,note_on,73,0,0
1,note_on,69,63,2
1,note_on,66,63,0
1,note_on,73,76,0
1,note_on,61,63,0
1,note_on,61,0,240
1,note_on,69,0,0
1,note_on,66,0,0
1,note_on,73,0,0
1,note_on,59,55,0
1,note_on,62,55,0
1,note_on,68,55,0
1,note_on,71,68,0
1,note_on,71,0,240
1,note_on,59,0,0
1,note_on,62,0,0
1,note_on,68,0,0
1,note_on,66,55,0
1,note_on,63,55,0
1,note_on,57,55,0
1,note_on,69,67,0
1,note_on,69,0,240
1,note_on,66,0,0
1,note_on,63,0,0
1,note_on,57,0,0
1,note_on,66,48,0
1,note_on,57,48,0
1,note_on,69,57,0
1,note_on,63,48,0
1,note_on,61,46,240
1,note_on,63,0,240
1,note_on,69,0,0
1,note_on,66,0,0
1,note_on,57,0,0
1,note_on,65,46,0
1,note_on,56,46,0
1,note_on,68,55,0
1,note_on,68,0,240
1,note_on,61,0,0
1,note_on,65,0,0
1,note_on,56,0,0
1,note_on,65,53,0
1,note_on,61,53,0
1,note_on,68,64,0
1,note_on,56,53,0
1,note_on,56,0,240
1,note_on,65,0,0
1,note_on,61,0,0
1,note_on,68,0,0
1,note_on,55,49,0
1,note_on,58,49,0
1,note_on,64,49,0
1,note_on,67,60,0
1,note_on,64,0,240
1,note_on,55,0,0
1,note_on,58,0,0
1,note_on,62,52,0
1,note_on,59,52,0
1,note_on,55,52,0
1,note_on,55,0,180
1,note_on,59,0,0
1,note_on,62,0,0
1,note_on,67,53,0
1,note_on,67,0,60
1,note_on,67,0,0
1,note_on,83,65,0
1,note_on,71,55,240
1,note_on,71,0,240
1,note_on,83,0,0
1,note_on,69,52,0
1,note_on,81,62,0
1,note_on,81,0,238
1,note_on,69,0,0
1,note_on,69,55,2
1,note_on,81,65,0
1,note_on,81,0,240
1,note_on,69,0,0
1,note_on,67,51,0
1,note_on,79,57,0
1,note_on,79,0,240
1,note_on,67,0,0
1,note_on,66,50,0
1,note_on,78,57,0
1,note_on,78,0,238
1,note_on,66,0,0
1,note_on,66,55,2
1,note_on,78,65,0
1,note_on,78,0,240
1,note_on,66,0,0
1,note_on,64,52,0
1,note_on,76,56,0
1,note_on,76,0,240
1,note_on,64,0,0
1,note_on,66,52,0
1,note_on,78,56,0
1,note_on,78,0,238
1,note_on,66,0,0
1,note_on,66,52,2
1,note_on,78,61,0
1,note_on,78,0,240
1,note_on,66,0,0
1,note_on,67,55,0
1,note_on,79,59,0
1,note_on,79,0,360
1,note_on,67,0,0
1,note_on,54,43,0
1,note_on,66,46,0
1,note_on,66,0,119
1,note_on,54,0,0
1,note_on,54,45,1
1,note_on,66,60,0
1,note_on,66,0,240
1,note_on,54,0,0
1,note_on,57,45,0
1,note_on,69,53,0
1,note_on,69,0,240
1,note_on,57,0,0
1,note_on,61,43,0
1,note_on,66,43,0
1,note_on,69,43,0
1,note_on,73,51,0
1,note_on,73,0,238
1,note_on,61,0,0
1,note_on,66,0,0
1,note_on,69,0,0
1,note_on,61,45,2
1,note_on,73,54,0
1,note_on,65,45,0
1,note_on,68,45,0
1,note_on,68,0,480
1,note_on,61,0,0
1,note_on,73,0,0
1,note_on,65,0,0
1,note_on,61,36,0
1,note_on,73,43,0
1,note_on,69,36,0
1,note_on,66,36,0
1,note_on,66,0,238
1,note_on,61,0,0
1,note_on,73,0,0
1,note_on,69,0,0
1,note_on,69,40,2
1,note_on,61,40,0
1,note_on,73,48,0
1,note_on,73,0,240
1,note_on,61,0,0
1,note_on,69,0,0
1,note_on,62,36,0
1,note_on,74,43,0
1,note_on,67,36,0
1,note_on,67,0,240
1,note_on,74,0,0
1,note_on,62,0,0
1,note_on,55,36,0
1,note_on,67,43,0
1,note_on,67,0,240
1,note_on,55,0,0
1,note_on,59,37,0
1,note_on,71,47,0
1,note_on,71,0,240
1,note_on,59,0,0
1,note_on,49,37,0
1,note_on,61,45,0
1,note_on,61,0,240
1,note_on,49,0,0
1,note_on,65,44,0
1,note_on,53,37,0
1,note_on,53,0,120
1,note_on,65,0,0
1,note_on,54,32,0
1,note_on,66,38,0
1,note_on,66,0,120
1,note_on,54,0,0
1,note_on,54,25,0
1,note_on,58,25,0
1,note_on,64,25,0
1,note_on,66,52,0
1,note_on,64,0,360
1,note_on,54,0,0
1,note_on,58,0,0
1,note_on,66,25,0
1,note_on,66,0,120
1,note_on,78,57,0
1,note_on,66,0,118
1,note_on,66,25,2
1,note_on,78,0,120
1,note_on,78,57,0
1,note_on,66,0,118
1,note_on,66,25,2
1,note_on,66,0,238
1,note_on,66,25,2
1,note_on,78,0,120
1,note_on,73,50,0
1,note_on,66,0,118
1,note_on,66,25,2
1,note_on,73,0,120
1,note_on,76,57,0
1,note_on,66,0,118
1,note_on,66,25,2
1,note_on,76,0,120
1,note_on,74,51,0
1,note_on,66,0,118
1,note_on,62,25,2
1,note_on,68,25,0
1,note_on,65,25,0
1,note_on,74,0,120
1,note_on,71,51,0
1,note_on,62,0,118
1,note_on,65,0,0
1,note_on,68,0,0
1,note_on,62,25,2
1,note_on,65,25,0
1,note_on,68,25,0
1,note_on,68,0,238
1,note_on,65,0,0
1,note_on,62,0,0
1,note_on,62,25,2
1,note_on,65,25,0
1,note_on,68,25,0
1,note_on,71,0,120
1,note_on,74,56,0
1,note_on,62,0,118
1,note_on,68,0,0
1,note_on,65,0,0
1,note_on,62,25,2
1,note_on,65,25,0
1,note_on,68,25,0
1,note_on,74,0,120
1,note_on,71,53,0
1,note_on,62,0,118
1,note_on,68,0,0
1,note_on,65,0,0
1,note_on,62,25,2
1,note_on,65,25,0
1,note_on,68,25,0
1,note_on,68,0,119
1,note_on,65,0,0
1,note_on,62,0,0
1,note_on,71,0,1
1,note_on,61,34,0
1,note_on,66,34,0
1,note_on,70,48,0
1,note_on,70,0,80
1,note_on,78,45,0
1,note_on,78,0,80
1,note_on,73,48,0
1,note_on,73,0,80
1,note_on,66,0,0
1,note_on,61,0,0
1,note_on,82,54,0
1,note_on,82,0,80
1,note_on,78,51,0
1,note_on,78,0,80
1,note_on,85,51,0
1,note_on,85,0,80
1,note_on,78,57,0
1,note_on,78,0,80
1,note_on,91,63,0
1,note_on,91,0,80
1,note_on,90,59,0
1,note_on,90,0,80
1,note_on,89,64,0
1,note_on,89,0,80
1,note_on,90,59,0
1,note_on,90,0,80
1,note_on,88,59,0
1,note_on,88,0,160
1,note_on,85,57,0
1,note_on,85,0,80
1,note_on,82,57,0
1,note_on,82,0,80
1,note_on,73,34,0
1,note_on,79,62,0
1,note_on,79,0,80
1,note_on,78,60,0
1,note_on,78,0,80
1,note_on,76,60,0
1,note_on,73,0,80
1,note_on,76,0,80
1,note_on,73,59,0
1,note_on,73,0,80
1,note_on,74,59,0
1,note_on,74,0,80
1,note_on,83,63,0
1,note_on,83,0,80
1,note_on,80,53,0
1,note_on,80,0,80
1,note_on,86,58,0
1,note_on,86,0,160
1,note_on,85,53,0
1,note_on,85,0,80
1,note_on,83,50,0
1,note_on,83,0,78
1,note_on,71,42,2
1,note_on,74,42,0
1,note_on,77,42,0
1,note_on,80,42,0
1,note_on,83,52,0
1,note_on,83,0,475
1,note_on,77,0,0
1,note_on,71,0,0
1,note_on,74,0,0
1,note_on,80,0,0
1,note_on,71,44,5
1,note_on,74,44,0
1,note_on,77,44,0
1,note_on,80,44,0
1,note_on,83,56,0
1,note_on,83,0,240
1,note_on,77,0,0
1,note_on,71,0,0
1,note_on,74,0,0
1,note_on,80,0,0
1,note_on,70,43,0
1,note_on,73,43,0
1,note_on,78,43,0
1,note_on,82,54,0
1,note_on,82,0,1198
1,note_on,70,0,0
1,note_on,73,0,0
1,note_on,78,0,0
1,note_on,70,42,2
1,note_on,73,42,0
1,note_on,78,42,0
1,note_on,82,53,0
1,note_on,82,0,718
1,note_on,70,0,0
1,note_on,73,0,0
1,note_on,78,0,0
1,note_on,90,50,2
1,note_on,82,40,0
1,note_on,78,40,0
1,note_on,78,0,718
1,note_on,82,0,0
1,note_on,90,0,0
1,note_on,78,36,2
1,note_on,82,36,0
1,note_on,90,46,0
1,note_on,90,0,475
1,note_on,82,0,0
1,note_on,78,0,0
1,note_on,94,44,5
1,note_on,85,35,0
1,note_on,82,35,0
1,note_on,82,0,951
1,note_on,85,0,0
1,note_on,94,0,0
1,note_on,73,35,9
1,note_on,73,0,240
1,note_on,73,38,0
1,note_on,73,0,480
1,note_on,69,33,0
1,note_on,69,0,238
1,note_on,69,37,2
1,note_on,69,0,240
1,note_on,66,32,0
1,note_on,66,0,240
1,note_on,65,27,0
1,note_on,68,32,0
1,note_on,61,27,0
1,note_on,61,0,240
1,note_on,68,0,0
1,note_on,65,0,0
1,note_on,66,33,0
1,note_on,69,40,0
1,note_on,61,33,0
1,note_on,61,0,480
1,note_on,69,0,0
1,note_on,66,0,0
1,note_on,58,29,0
1,note_on,61,29,0
1,note_on,66,29,0
1,note_on,70,37,0
1,note_on,70,0,240
1,note_on,58,0,0
1,note_on,61,0,0
1,note_on,66,0,0
1,note_on,62,36,0
1,note_on,59,36,0
1,note_on,71,46,0
1,note_on,66,36,0
1,note_on,66,0,480
1,note_on,62,0,0
1,note_on,59,0,0
1,note_on,71,0,0
1,note_on,70,39,0
1,note_on,66,39,0
1,note_on,61,39,0
1,note_on,73,49,0
1,note_on,73,0,240
1,note_on,70,0,0
1,note_on,66,0,0
1,note_on,61,0,0
1,note_on,71,44,0
1,note_on,62,44,0
1,note_on,74,56,0
1,note_on,66,44,0
1,note_on,66,0,238
1,note_on,71,0,0
1,note_on,62,0,0
1,note_on,74,0,0
1,note_on,71,28,2
1,note_on,68,28,0
1,note_on,74,35,0
1,note_on,62,28,0
1,note_on,62,0,475
1,note_on,71,0,0
1,note_on,68,0,0
1,note_on,74,0,0
1,note_on,71,33,5
1,note_on,68,33,0
1,note_on,74,42,0
1,note_on,62,33,0
1,note_on,62,0,475
1,note_on,71,0,0
1,note_on,68,0,0
1,note_on,74,0,0
1,note_on,62,25,5
1,note_on,68,25,0
1,note_on,71,25,0
1,note_on,74,32,0
1,note_on,74,0,120
1,note_on,62,0,0
1,note_on,68,0,0
1,note_on,71,0,0
1,note_on,70,25,0
1,note_on,61,25,0
1,note_on,73,32,0
1,note_on,73,0,117
1,note_on,61,0,0
1,note_on,70,0,0
1,note_on,61,33,3
1,note_on,70,33,0
1,note_on,73,39,0
1,note_on,73,0,1440
1,note_on,70,0,0
1,note_on,61,0,0
1,note_on,70,28,0
1,note_on,78,28,0
1,note_on,85,33,0
1,note_on,85,0,1438
1,note_on,78,0,0
1,note_on,70,0,0
1,note_on,70,28,2
1,note_on,78,28,0
1,note_on,85,33,0
1,note_on,85,0,720
1,note_on,78,0,0
1,note_on,70,0,0
1,note_on,58,28,0
1,note_on,66,28,0
1,note_on,73,33,0
1,note_on,73,0,720
1,note_on,66,0,0
1,note_on,58,0,0
1,note_on,58,24,180
1,note_on,66,24,60
1,note_on,73,33,60
1,note_on,73,0,180
1,note_on,66,0,0
1,note_on,58,0,0
2,note_on,33,23,0
2,note_on,45,28,0
2,note_on,45,0,720
2,note_on,33,0,0
2,note_on,37,21,0
2,note_on,49,30,0
2,note_on,49,0,720
2,note_on,37,0,0
2,note_on,42,29,0
2,note_on,49,29,0
2,note_on,54,35,0
2,note_on,54,0,720
2,note_on,49,0,0
2,note_on,42,0,0
2,note_on,42,29,0
2,note_on,49,29,0
2,note_on,54,35,0
2,note_on,54,0,240
2,note_on,49,0,0
2,note_on,42,0,0
2,note_on,45,26,0
2,note_on,49,26,0
2,note_on,57,31,0
2,note_on,57,0,240
2,note_on,49,0,0
2,note_on,45,0,0
2,note_on,44,26,0
2,note_on,49,26,0
2,note_on,56,31,0
2,note_on,56,0,240
2,note_on,49,0,0
2,note_on,44,0,0
2,note_on,42,28,0
2,note_on,49,28,0
2,note_on,54,34,0
2,note_on,54,0,720
2,note_on,49,0,0
2,note_on,42,0,0
2,note_on,38,33,0
2,note_on,50,39,0
2,note_on,50,0,480
2,note_on,38,0,0
2,note_on,35,34,0
2,note_on,47,40,0
2,note_on,47,0,238
2,note_on,35,0,0
2,note_on,35,37,2
2,note_on,47,46,0
2,note_on,47,0,480
2,note_on,35,0,0
2,note_on,33,35,0
2,note_on,45,42,0
2,note_on,45,0,238
2,note_on,33,0,0
2,note_on,33,39,2
2,note_on,45,48,0
2,note_on,45,0,240
2,note_on,33,0,0
2,note_on,32,38,0
2,note_on,44,45,0
2,note_on,44,0,240
2,note_on,32,0,0
2,note_on,30,40,0
2,note_on,42,48,0
2,note_on,42,0,240
2,note_on,30,0,0
2,note_on,29,39,0
2,note_on,41,48,0
2,note_on,41,0,720
2,note_on,29,0,0
2,note_on,59,30,0
2,note_on,56,30,0
2,note_on,53,30,0
2,note_on,62,36,0
2,note_on,62,0,720
2,note_on,59,0,0
2,note_on,56,0,0
2,note_on,53,0,0
2,note_on,29,28,0
2,note_on,41,34,0
2,note_on,41,0,720
2,note_on,29,0,0
2,note_on,30,25,0
2,note_on,42,30,0
2,note_on,42,0,480
2,note_on,30,0,0
2,note_on,32,26,0
2,note_on,44,31,0
2,note_on,44,0,238
2,note_on,32,0,0
2,note_on,32,29,2
2,note_on,44,35,0
2,note_on,44,0,713
2,note_on,32,0,0
2,note_on,32,29,7
2,note_on,44,35,0
2,note_on,44,0,240
2,note_on,32,0,0
2,note_on,33,26,0
2,note_on,45,31,0
2,note_on,45,0,240
2,note_on,33,0,0
2,note_on,35,26,0
2,note_on,47,31,0
2,note_on,47,0,240
2,note_on,35,0,0
2,note_on,36,29,0
2,note_on,48,35,0
2,note_on,48,0,475
2,note_on,36,0,0
2,note_on,36,27,5
2,note_on,48,32,0
2,note_on,48,0,238
2,note_on,36,0,0
2,note_on,36,33,2
2,note_on,48,40,0
2,note_on,48,0,238
2,note_on,36,0,0
2,note_on,36,31,2
2,note_on,48,37,0
2,note_on,48,0,238
2,note_on,36,0,0
2,note_on,36,32,2
2,note_on,48,39,0
2,note_on,48,0,240
2,note_on,36,0,0
2,note_on,37,32,0
2,note_on,49,39,0
2,note_on,49,0,720
2,note_on,37,0,0
2,note_on,37,27,0
2,note_on,49,32,0
2,note_on,49,0,240
2,note_on,37,0,0
2,note_on,49,31,0
2,note_on,53,31,0
2,note_on,56,37,0
2,note_on,56,0,240
2,note_on,53,0,0
2,note_on,49,0,0
2,note_on,49,31,0
2,note_on,56,31,0
2,note_on,59,37,0
2,note_on,59,0,240
2,note_on,56,0,0
2,note_on,49,0,0
2,note_on,49,36,0
2,note_on,59,43,0
2,note_on,59,0,480
2,note_on,49,0,0
2,note_on,49,28,0
2,note_on,57,34,0
2,note_on,57,0,238
2,note_on,49,0,0
2,note_on,49,36,2
2,note_on,57,43,0
2,note_on,57,0,240
2,note_on,49,0,0
2,note_on,49,32,0
2,note_on,56,38,0
2,note_on,56,0,240
2,note_on,49,0,0
2,note_on,49,32,0
2,note_on,54,38,0
2,note_on,54,0,240
2,note_on,49,0,0
2,note_on,49,36,0
2,note_on,54,43,0
2,note_on,54,0,480
2,note_on,49,0,0
2,note_on,49,28,0
2,note_on,53,34,0
2,note_on,53,0,240
2,note_on,49,0,0
2,note_on,49,36,0
2,note_on,53,49,0
2,note_on,53,0,240
2,note_on,56,45,0
2,note_on,56,0,240
2,note_on,49,0,0
2,note_on,56,32,0
2,note_on,49,32,0
2,note_on,59,38,0
2,note_on,59,0,120
2,note_on,62,38,0
2,note_on,62,0,119
2,note_on,49,0,1
2,note_on,56,0,0
2,note_on,59,36,0
2,note_on,49,36,0
2,note_on,62,43,0
2,note_on,62,0,480
2,note_on,49,0,0
2,note_on,59,0,0
2,note_on,57,31,0
2,note_on,49,31,0
2,note_on,61,37,0
2,note_on,61,0,238
2,note_on,49,0,0
2,note_on,57,0,0
2,note_on,49,34,2
2,note_on,61,41,0
2,note_on,57,34,0
2,note_on,57,0,240
2,note_on,61,0,0
2,note_on,49,0,0
2,note_on,49,30,0
2,note_on,59,36,0
2,note_on,56,30,0
2,note_on,56,0,240
2,note_on,59,0,0
2,note_on,49,0,0
2,note_on,49,29,0
2,note_on,57,35,0
2,note_on,54,29,0
2,note_on,54,0,238
2,note_on,57,0,0
2,note_on,49,0,0
2,note_on,54,32,2
2,note_on,49,32,0
2,note_on,57,39,0
2,note_on,57,0,480
2,note_on,49,0,0
2,note_on,54,0,0
2,note_on,53,25,0
2,note_on,49,25,0
2,note_on,56,29,0
2,note_on,56,0,238
2,note_on,49,0,0
2,note_on,53,0,0
2,note_on,53,26,2
2,note_on,49,26,0
2,note_on,56,31,0
2,note_on,56,0,480
2,note_on,49,0,0
2,note_on,53,0,0
2,note_on,55,21,0
2,note_on,52,21,0
2,note_on,49,21,0
2,note_on,58,26,0
2,note_on,58,0,180
2,note_on,55,0,0
2,note_on,52,0,0
2,note_on,49,0,0
2,note_on,50,32,60
2,note_on,55,32,0
2,note_on,59,43,10
2,note_on,55,0,710
2,note_on,50,0,0
2,note_on,59,30,0
2,note_on,55,30,0
2,note_on,62,36,0
2,note_on,59,0,10
2,note_on,59,0,470
2,note_on,62,0,0
2,note_on,62,30,0
2,note_on,62,0,240
2,note_on,55,0,0
2,note_on,64,39,0
2,note_on,60,33,0
2,note_on,60,0,720
2,note_on,64,0,0
2,note_on,59,29,0
2,note_on,62,35,0
2,note_on,62,0,480
2,note_on,59,0,0
2,note_on,62,32,0
2,note_on,62,0,238
2,note_on,62,35,2
2,note_on,62,0,240
2,note_on,61,31,0
2,note_on,61,0,240
2,note_on,49,26,0
2,note_on,54,26,0
2,note_on,57,26,0
2,note_on,61,31,0
2,note_on,61,0,240
2,note_on,49,0,0
2,note_on,54,0,0
2,note_on,57,0,0
2,note_on,49,29,0
2,note_on,53,29,0
2,note_on,56,29,0
2,note_on,61,35,0
2,note_on,61,0,475
2,note_on,49,0,0
2,note_on,53,0,0
2,note_on,56,0,0
2,note_on,49,27,5
2,note_on,53,27,0
2,note_on,56,27,0
2,note_on,61,32,0
2,note_on,61,0,238
2,note_on,49,0,0
2,note_on,53,0,0
2,note_on,56,0,0
2,note_on,49,29,2
2,note_on,53,29,0
2,note_on,56,29,0
2,note_on,61,35,0
2,note_on,61,0,480
2,note_on,49,0,0
2,note_on,53,0,0
2,note_on,56,0,0
2,note_on,54,27,0
2,note_on,57,27,0
2,note_on,61,32,0
2,note_on,61,0,238
2,note_on,57,0,0
2,note_on,54,0,0
2,note_on,54,27,2
2,note_on,57,27,0
2,note_on,61,35,0
2,note_on,61,0,238
2,note_on,57,0,0
2,note_on,54,0,0
2,note_on,57,34,2
2,note_on,57,0,240
2,note_on,56,33,0
2,note_on,59,33,0
2,note_on,59,0,120
2,note_on,56,0,0
2,note_on,54,38,0
2,note_on,57,38,0
2,note_on,57,0,120
2,note_on,54,0,0
2,note_on,37,43,0
2,note_on,41,38,240
2,note_on,41,0,240
2,note_on,42,39,0
2,note_on,42,0,240
2,note_on,44,42,0
2,note_on,44,0,360
2,note_on,45,45,0
2,note_on,45,0,120
2,note_on,47,48,0
2,note_on,47,0,120
2,note_on,48,50,0
2,note_on,48,0,120
2,note_on,37,0,0
2,note_on,37,36,0
2,note_on,49,43,0
2,note_on,49,0,840
2,note_on,37,0,0
2,note_on,49,45,0
2,note_on,49,0,120
2,note_on,53,45,0
2,note_on,53,0,120
2,note_on,56,45,0
2,note_on,56,0,120
2,note_on,59,38,0
2,note_on,59,0,120
2,note_on,62,38,0
2,note_on,62,0,119
2,note_on,37,36,1
2,note_on,49,43,7
2,note_on,37,0,233
2,note_on,41,31,0
2,note_on,49,31,0
2,note_on,53,37,0
2,note_on,49,0,7
2,note_on,41,0,233
2,note_on,49,0,0
2,note_on,53,0,0
2,note_on,49,31,0
2,note_on,42,31,0
2,note_on,54,37,0
2,note_on,54,0,240
2,note_on,42,0,0
2,note_on,49,0,0
2,note_on,44,34,0
2,note_on,56,41,0
2,note_on,49,34,0
2,note_on,49,0,360
2,note_on,56,0,0
2,note_on,44,0,0
2,note_on,57,45,0
2,note_on,45,38,0
2,note_on,45,0,120
2,note_on,57,0,0
2,note_on,59,48,0
2,note_on,47,40,0
2,note_on,47,0,120
2,note_on,59,0,0
2,note_on,60,50,0
2,note_on,48,42,0
2,note_on,48,0,120
2,note_on,60,0,0
2,note_on,49,32,0
2,note_on,54,28,240
2,note_on,57,35,0
2,note_on,57,0,240
2,note_on,54,0,0
2,note_on,49,0,0
2,note_on,53,25,0
2,note_on,49,25,0
2,note_on,56,29,0
2,note_on,56,0,240
2,note_on,49,0,0
2,note_on,53,0,0
2,note_on,53,26,0
2,note_on,49,26,0
2,note_on,56,31,0
2,note_on,56,0,240
2,note_on,49,0,0
2,note_on,53,0,0
2,note_on,58,26,0
2,note_on,52,21,0
2,note_on,49,21,0
2,note_on,55,21,0
2,note_on,55,0,240
2,note_on,58,0,0
2,note_on,52,0,0
2,note_on,49,0,0
2,note_on,50,21,0
2,note_on,55,21,0
2,note_on,59,26,0
2,note_on,59,0,240
2,note_on,55,0,0
2,note_on,50,0,0
2,note_on,59,43,0
2,note_on,43,32,0
2,note_on,50,32,0
2,note_on,50,0,720
2,note_on,43,0,0
2,note_on,59,0,0
2,note_on,55,30,0
2,note_on,47,30,0
2,note_on,62,36,0
2,note_on,62,0,720
2,note_on,47,0,0
2,note_on,55,0,0
2,note_on,48,30,0
2,note_on,64,42,0
2,note_on,55,30,0
2,note_on,55,0,720
2,note_on,64,0,0
2,note_on,48,0,0
2,note_on,47,39,0
2,note_on,55,39,0
2,note_on,62,47,0
2,note_on,62,0,240
2,note_on,55,0,0
2,note_on,55,35,0
2,note_on,55,0,240
2,note_on,47,0,0
2,note_on,50,36,0
2,note_on,54,43,0
2,note_on,54,0,240
2,note_on,50,0,0
2,note_on,50,35,0
2,note_on,54,35,0
2,note_on,54,0,240
2,note_on,50,0,0
2,note_on,49,31,0
2,note_on,54,31,0
2,note_on,57,31,0
2,note_on,57,0,240
2,note_on,54,0,0
2,note_on,49,0,0
2,note_on,49,26,0
2,note_on,54,26,0
2,note_on,57,26,0
2,note_on,61,31,0
2,note_on,61,0,238
2,note_on,49,0,0
2,note_on,54,0,0
2,note_on,57,0,0
2,note_on,49,31,2
2,note_on,53,31,0
2,note_on,56,31,0
2,note_on,61,38,0
2,note_on,61,0,480
2,note_on,49,0,0
2,note_on,53,0,0
2,note_on,56,0,0
2,note_on,54,27,0
2,note_on,57,27,0
2,note_on,61,32,0
2,note_on,61,0,238
2,note_on,57,0,0
2,note_on,54,0,0
2,note_on,57,33,2
2,note_on,54,33,0
2,note_on,61,39,0
2,note_on,61,0,240
2,note_on,54,0,0
2,note_on,57,0,0
2,note_on,47,26,0
2,note_on,62,34,0
2,note_on,62,0,240
2,note_on,55,31,0
2,note_on,55,0,240
2,note_on,47,0,0
2,note_on,59,39,0
2,note_on,59,0,240
2,note_on,37,26,0
2,note_on,49,31,0
2,note_on,37,0,240
2,note_on,53,31,0
2,note_on,53,0,240
2,note_on,49,0,0
2,note_on,49,33,0
2,note_on,42,33,0
2,note_on,54,39,0
2,note_on,54,0,240
2,note_on,42,0,0
2,note_on,49,0,0
2,note_on,49,31,0
2,note_on,41,31,0
2,note_on,56,37,0
2,note_on,56,0,480
2,note_on,41,0,0
2,note_on,49,0,0
2,note_on,49,28,0
2,note_on,42,28,0
2,note_on,54,33,0
2,note_on,54,0,240
2,note_on,42,0,0
2,note_on,49,0,0
2,note_on,49,20,0
2,note_on,57,32,0
2,note_on,57,0,360
2,note_on,53,22,0
2,note_on,53,0,120
2,note_on,49,0,0
2,note_on,42,26,240
2,note_on,42,0,120
2,note_on,61,26,120
2,note_on,57,20,0
2,note_on,54,20,0
2,note_on,49,20,0
2,note_on,49,0,120
2,note_on,61,0,0
2,note_on,57,0,0
2,note_on,54,0,0
2,note_on,61,31,120
2,note_on,57,24,0
2,note_on,54,24,0
2,note_on,49,24,0
2,note_on,49,0,120
2,note_on,61,0,0
2,note_on,57,0,0
2,note_on,54,0,0
2,note_on,42,26,120
2,note_on,42,0,120
2,note_on,61,26,120
2,note_on,57,20,0
2,note_on,54,20,0
2,note_on,49,20,0
2,note_on,49,0,120
2,note_on,61,0,0
2,note_on,57,0,0
2,note_on,54,0,0
2,note_on,49,23,120
2,note_on,54,23,0
2,note_on,57,23,0
2,note_on,61,29,0
2,note_on,61,0,120
2,note_on,49,0,0
2,note_on,54,0,0
2,note_on,57,0,0
2,note_on,42,26,120
2,note_on,42,0,120
2,note_on,61,26,120
2,note_on,57,20,0
2,note_on,54,20,0
2,note_on,49,20,0
2,note_on,49,0,120
2,note_on,61,0,0
2,note_on,57,0,0
2,note_on,54,0,0
2,note_on,49,24,120
2,note_on,54,24,0
2,note_on,57,24,0
2,note_on,61,30,0
2,note_on,61,0,120
2,note_on,49,0,0
2,note_on,54,0,0
2,note_on,57,0,0
2,note_on,42,26,120
2,note_on,42,0,120
2,note_on,61,26,120
2,note_on,57,20,0
2,note_on,54,20,0
2,note_on,49,20,0
2,note_on,49,0,120
2,note_on,61,0,0
2,note_on,57,0,0
2,note_on,54,0,0
2,note_on,53,23,120
2,note_on,49,23,0
2,note_on,56,23,0
2,note_on,59,23,0
2,note_on,61,29,0
2,note_on,61,0,120
2,note_on,56,0,0
2,note_on,53,0,0
2,note_on,49,0,0
2,note_on,59,0,0
2,note_on,44,26,120
2,note_on,44,0,120
2,note_on,62,26,120
2,note_on,59,20,0
2,note_on,56,20,0
2,note_on,53,20,0
2,note_on,53,0,120
2,note_on,62,0,0
2,note_on,59,0,0
2,note_on,56,0,0
2,note_on,53,24,120
2,note_on,56,24,0
2,note_on,59,24,0
2,note_on,62,30,0
2,note_on,62,0,120
2,note_on,53,0,0
2,note_on,56,0,0
2,note_on,59,0,0
2,note_on,44,26,120
2,note_on,44,0,120
2,note_on,62,26,120
2,note_on,59,20,0
2,note_on,56,20,0
2,note_on,53,20,0
2,note_on,53,0,120
2,note_on,62,0,0
2,note_on,59,0,0
2,note_on,56,0,0
2,note_on,53,23,120
2,note_on,56,23,0
2,note_on,59,23,0
2,note_on,62,29,0
2,note_on,62,0,120
2,note_on,53,0,0
2,note_on,56,0,0
2,note_on,59,0,0
2,note_on,44,26,120
2,note_on,44,0,120
2,note_on,62,26,120
2,note_on,59,20,0
2,note_on,56,20,0
2,note_on,53,20,0
2,note_on,53,0,120
2,note_on,62,0,0
2,note_on,59,0,0
2,note_on,56,0,0
2,note_on,53,24,120
2,note_on,56,24,0
2,note_on,59,24,0
2,note_on,62,30,0
2,note_on,62,0,120
2,note_on,53,0,0
2,note_on,56,0,0
2,note_on,59,0,0
2,note_on,44,26,120
2,note_on,44,0,120
2,note_on,61,26,120
2,note_on,59,20,0
2,note_on,56,20,0
2,note_on,53,20,0
2,note_on,53,0,120
2,note_on,61,0,0
2,note_on,59,0,0
2,note_on,56,0,0
2,note_on,49,23,120
2,note_on,54,23,0
2,note_on,57,23,0
2,note_on,61,29,0
2,note_on,61,0,120
2,note_on,49,0,0
2,note_on,54,0,0
2,note_on,57,0,0
2,note_on,42,26,120
2,note_on,42,0,120
2,note_on,61,26,120
2,note_on,57,20,0
2,note_on,54,20,0
2,note_on,49,20,0
2,note_on,49,0,120
2,note_on,61,0,0
2,note_on,57,0,0
2,note_on,54,0,0
2,note_on,49,24,120
2,note_on,54,24,0
2,note_on,57,24,0
2,note_on,61,30,0
2,note_on,61,0,120
2,note_on,49,0,0
2,note_on,54,0,0
2,note_on,57,0,0
2,note_on,42,26,120
2,note_on,42,0,120
2,note_on,61,26,120
2,note_on,57,20,0
2,note_on,54,20,0
2,note_on,49,20,0
2,note_on,49,0,120
2,note_on,61,0,0
2,note_on,57,0,0
2,note_on,54,0,0
2,note_on,53,25,120
2,note_on,49,25,0
2,note_on,56,25,0
2,note_on,59,25,0
2,note_on,61,32,0
2,note_on,61,0,120
2,note_on,56,0,0
2,note_on,53,0,0
2,note_on,49,0,0
2,note_on,59,0,0
2,note_on,44,30,120
2,note_on,44,0,120
2,note_on,62,32,120
2,note_on,59,24,0
2,note_on,56,24,0
2,note_on,53,24,0
2,note_on,53,0,120
2,note_on,62,0,0
2,note_on,59,0,0
2,note_on,56,0,0
2,note_on,53,28,120
2,note_on,56,28,0
2,note_on,59,28,0
2,note_on,62,35,0
2,note_on,62,0,120
2,note_on,53,0,0
2,note_on,56,0,0
2,note_on,59,0,0
2,note_on,44,29,120
2,note_on,44,0,120
2,note_on,62,28,120
2,note_on,59,21,0
2,note_on,56,21,0
2,note_on,53,21,0
2,note_on,53,0,120
2,note_on,62,0,0
2,note_on,59,0,0
2,note_on,56,0,0
2,note_on,53,23,120
2,note_on,56,23,0
2,note_on,59,23,0
2,note_on,62,29,0
2,note_on,62,0,120
2,note_on,53,0,0
2,note_on,56,0,0
2,note_on,59,0,0
2,note_on,44,29,120
2,note_on,44,0,120
2,note_on,62,31,120
2,note_on,59,24,0
2,note_on,56,24,0
2,note_on,53,24,0
2,note_on,53,0,120
2,note_on,62,0,0
2,note_on,59,0,0
2,note_on,56,0,0
2,note_on,53,28,120
2,note_on,56,28,0
2,note_on,59,28,0
2,note_on,62,35,0
2,note_on,62,0,120
2,note_on,53,0,0
2,note_on,56,0,0
2,note_on,59,0,0
2,note_on,44,32,120
2,note_on,44,0,120
2,note_on,61,32,120
2,note_on,59,25,0
2,note_on,56,25,0
2,note_on,53,25,0
2,note_on,53,0,120
2,note_on,61,0,0
2,note_on,59,0,0
2,note_on,56,0,0
2,note_on,54,28,120
2,note_on,57,28,0
2,note_on,61,36,0
2,note_on,61,0,120
2,note_on,57,0,0
2,note_on,54,0,0
2,note_on,45,32,120
2,note_on,45,0,120
2,note_on,61,32,120
2,note_on,57,25,0
2,note_on,54,25,0
2,note_on,54,0,120
2,note_on,57,0,0
2,note_on,61,0,0
2,note_on,53,30,120
2,note_on,56,30,0
2,note_on,59,30,0
2,note_on,62,37,0
2,note_on,62,0,120
2,note_on,53,0,0
2,note_on,56,0,0
2,note_on,59,0,0
2,note_on,44,32,120
2,note_on,44,0,120
2,note_on,61,32,120
2,note_on,59,25,0
2,note_on,56,25,0
2,note_on,53,25,0
2,note_on,53,0,120
2,note_on,61,0,0
2,note_on,59,0,0
2,note_on,56,0,0
2,note_on,54,28,120
2,note_on,57,28,0
2,note_on,61,36,0
2,note_on,61,0,120
2,note_on,57,0,0
2,note_on,54,0,0
2,note_on,45,32,120
2,note_on,45,0,120
2,note_on,49,25,120
2,note_on,61,32,0
2,note_on,57,25,0
2,note_on,54,25,0
2,note_on,54,0,120
2,note_on,49,0,0
2,note_on,61,0,0
2,note_on,57,0,0
2,note_on,49,30,120
2,note_on,53,30,0
2,note_on,56,30,0
2,note_on,59,30,0
2,note_on,61,37,0
2,note_on,61,0,120
2,note_on,56,0,0
2,note_on,49,0,0
2,note_on,53,0,0
2,note_on,59,0,0
2,note_on,44,32,120
2,note_on,44,0,120
2,note_on,61,32,120
2,note_on,59,25,0
2,note_on,56,25,0
2,note_on,56,0,120
2,note_on,59,0,0
2,note_on,61,0,0
2,note_on,57,30,120
2,note_on,61,39,0
2,note_on,61,0,120
2,note_on,57,0,0
2,note_on,45,35,120
2,note_on,45,0,120
2,note_on,61,36,120
2,note_on,58,28,0
2,note_on,58,0,120
2,note_on,61,0,0
2,note_on,58,34,120
2,note_on,61,42,0
2,note_on,61,0,120
2,note_on,58,0,0
2,note_on,46,40,120
2,note_on,46,0,120
2,note_on,63,40,120
2,note_on,59,31,0
2,note_on,59,0,120
2,note_on,63,0,0
2,note_on,59,36,120
2,note_on,63,47,0
2,note_on,63,0,120
2,note_on,59,0,0
2,note_on,47,42,120
2,note_on,47,0,120
2,note_on,64,42,120
2,note_on,61,33,0
2,note_on,61,0,120
2,note_on,64,0,0
2,note_on,61,40,120
2,note_on,64,50,0
2,note_on,64,0,120
2,note_on,61,0,0
2,note_on,49,44,120
2,note_on,49,0,120
2,note_on,66,44,120
2,note_on,63,35,0
2,note_on,63,0,120
2,note_on,66,0,0
2,note_on,66,49,120
2,note_on,63,41,0
2,note_on,63,0,120
2,note_on,66,0,0
2,note_on,51,41,0
2,note_on,51,0,120
2,note_on,67,49,0
2,note_on,64,41,0
2,note_on,64,0,120
2,note_on,67,0,0
2,note_on,52,42,0
2,note_on,52,0,120
2,note_on,69,51,0
2,note_on,66,42,0
2,note_on,66,0,120
2,note_on,69,0,0
2,note_on,54,41,0
2,note_on,54,0,120
2,note_on,67,47,0
2,note_on,71,56,0
2,note_on,71,0,120
2,note_on,67,0,0
2,note_on,55,44,0
2,note_on,55,0,120
2,note_on,68,48,0
2,note_on,71,57,0
2,note_on,71,0,120
2,note_on,68,0,0
2,note_on,56,51,0
2,note_on,56,0,120
2,note_on,69,52,0
2,note_on,73,62,0
2,note_on,73,0,120
2,note_on,69,0,0
2,note_on,57,49,0
2,note_on,57,0,120
2,note_on,69,40,0
2,note_on,73,48,0
2,note_on,73,0,240
2,note_on,69,0,0
2,note_on,61,40,0
2,note_on,57,34,0
2,note_on,61,0,240
2,note_on,63,35,0
2,note_on,57,0,240
2,note_on,57,33,0
2,note_on,63,0,120
2,note_on,63,32,0
2,note_on,63,0,120
2,note_on,66,38,0
2,note_on,66,0,120
2,note_on,64,34,0
2,note_on,64,0,120
2,note_on,63,39,0
2,note_on,63,0,120
2,note_on,64,35,0
2,note_on,64,0,120
2,note_on,57,0,0
2,note_on,57,34,0
2,note_on,62,48,0
2,note_on,62,0,240
2,note_on,61,40,0
2,note_on,57,0,480
2,note_on,57,33,0
2,note_on,61,0,120
2,note_on,61,32,0
2,note_on,61,0,120
2,note_on,64,38,0
2,note_on,64,0,120
2,note_on,62,34,0
2,note_on,62,0,120
2,note_on,61,39,0
2,note_on,61,0,120
2,note_on,62,35,0
2,note_on,62,0,120
2,note_on,57,0,0
2,note_on,57,33,0
2,note_on,63,39,0
2,note_on,60,39,0
2,note_on,60,0,240
2,note_on,63,0,0
2,note_on,64,39,0
2,note_on,61,33,0
2,note_on,61,0,240
2,note_on,64,0,0
2,note_on,57,0,0
2,note_on,63,39,0
2,note_on,58,33,0
2,note_on,63,0,120
2,note_on,64,39,0
2,note_on,64,0,119
2,note_on,58,0,1
2,note_on,64,45,0
2,note_on,58,38,0
2,note_on,64,0,120
2,note_on,61,39,0
2,note_on,61,0,120
2,note_on,58,0,0
2,note_on,64,44,0
2,note_on,59,37,0
2,note_on,64,0,120
2,note_on,62,39,0
2,note_on,62,0,120
2,note_on,59,0,0
2,note_on,61,43,0
2,note_on,56,36,0
2,note_on,61,0,120
2,note_on,62,39,0
2,note_on,62,0,119
2,note_on,56,0,1
2,note_on,56,39,0
2,note_on,62,46,0
2,note_on,62,0,240
2,note_on,56,0,0
2,note_on,61,42,0
2,note_on,55,35,0
2,note_on,55,0,240
2,note_on,61,0,0
2,note_on,57,33,0
2,note_on,54,33,0
2,note_on,62,39,0
2,note_on,62,0,240
2,note_on,54,0,0
2,note_on,57,0,0
2,note_on,52,45,0
2,note_on,45,38,0
2,note_on,52,0,120
2,note_on,49,39,0
2,note_on,49,0,120
2,note_on,45,0,0
2,note_on,52,57,0
2,note_on,47,43,0
2,note_on,52,0,120
2,note_on,50,48,0
2,note_on,50,0,120
2,note_on,47,0,0
2,note_on,49,57,0
2,note_on,44,48,0
2,note_on,49,0,120
2,note_on,50,53,0
2,note_on,50,0,120
2,note_on,44,0,0
2,note_on,41,51,0
2,note_on,50,67,0
2,note_on,50,0,120
2,note_on,44,59,0
2,note_on,44,0,120
2,note_on,41,0,0
2,note_on,42,53,0
2,note_on,47,69,0
2,note_on,47,0,120
2,note_on,45,58,0
2,note_on,45,0,120
2,note_on,44,69,0
2,note_on,44,0,120
2,note_on,42,0,0
2,note_on,41,45,0
2,note_on,45,58,0
2,note_on,45,0,120
2,note_on,41,0,0
2,note_on,40,57,0
2,note_on,45,68,0
2,note_on,45,0,120
2,note_on,40,0,0
2,note_on,32,61,0
2,note_on,32,0,120
2,note_on,34,72,0
2,note_on,34,0,120
2,note_on,33,63,0
2,note_on,33,0,120
2,note_on,32,72,0
2,note_on,32,0,120
2,note_on,33,62,0
2,note_on,33,0,110
2,note_on,33,81,10
2,note_on,33,0,120
2,note_on,52,43,0
2,note_on,52,0,120
2,note_on,49,47,0
2,note_on,49,0,120
2,note_on,55,43,0
2,note_on,55,0,120
2,note_on,52,48,0
2,note_on,52,0,120
2,note_on,58,43,0
2,note_on,58,0,120
2,note_on,56,47,0
2,note_on,56,0,120
2,note_on,57,43,0
2,note_on,57,0,120
2,note_on,52,46,0
2,note_on,52,0,120
2,note_on,59,39,0
2,note_on,59,0,120
2,note_on,57,45,0
2,note_on,57,0,120
2,note_on,55,40,0
2,note_on,55,0,120
2,note_on,50,32,0
2,note_on,54,38,0
2,note_on,54,0,120
2,note_on,59,33,0
2,note_on,59,0,120
2,note_on,56,38,0
2,note_on,56,0,120
2,note_on,57,34,0
2,note_on,57,0,120
2,note_on,54,38,0
2,note_on,54,0,120
2,note_on,59,33,0
2,note_on,59,0,120
2,note_on,56,38,0
2,note_on,56,0,120
2,note_on,57,33,0
2,note_on,57,0,120
2,note_on,54,32,0
2,note_on,54,0,120
2,note_on,59,28,0
2,note_on,59,0,120
2,note_on,50,0,0
2,note_on,50,27,0
2,note_on,54,32,0
2,note_on,54,0,120
2,note_on,57,28,0
2,note_on,57,0,120
2,note_on,50,0,0
2,note_on,49,32,0
2,note_on,52,38,0
2,note_on,52,0,120
2,note_on,57,33,0
2,note_on,57,0,120
2,note_on,49,0,0
2,note_on,50,32,0
2,note_on,54,38,0
2,note_on,54,0,120
2,note_on,57,34,0
2,note_on,57,0,120
2,note_on,50,0,0
2,note_on,52,34,0
2,note_on,55,41,0
2,note_on,55,0,120
2,note_on,57,36,0
2,note_on,52,0,118
2,note_on,57,0,2
2,note_on,52,34,0
2,note_on,55,40,0
2,note_on,55,0,120
2,note_on,57,34,0
2,note_on,57,0,120
2,note_on,52,0,0
2,note_on,50,32,0
2,note_on,54,38,0
2,note_on,54,0,120
2,note_on,57,32,0
2,note_on,57,0,120
2,note_on,50,0,0
2,note_on,49,31,0
2,note_on,52,37,0
2,note_on,52,0,120
2,note_on,57,34,0
2,note_on,57,0,120
2,note_on,49,0,0
2,note_on,50,32,0
2,note_on,54,38,0
2,note_on,54,0,120
2,note_on,59,33,0
2,note_on,59,0,120
2,note_on,56,38,0
2,note_on,56,0,120
2,note_on,57,34,0
2,note_on,57,0,120
2,note_on,54,38,0
2,note_on,54,0,120
2,note_on,59,33,0
2,note_on,59,0,120
2,note_on,56,38,0
2,note_on,56,0,120
2,note_on,57,33,0
2,note_on,57,0,120
2,note_on,54,38,0
2,note_on,54,0,120
2,note_on,59,32,0
2,note_on,59,0,120
2,note_on,50,0,0
2,note_on,50,29,0
2,note_on,54,34,0
2,note_on,54,0,120
2,note_on,57,29,0
2,note_on,57,0,120
2,note_on,50,0,0
2,note_on,49,27,0
2,note_on,52,32,0
2,note_on,52,0,120
2,note_on,57,28,0
2,note_on,57,0,120
2,note_on,49,0,0
2,note_on,50,28,0
2,note_on,54,34,0
2,note_on,54,0,120
2,note_on,57,31,0
2,note_on,57,0,120
2,note_on,50,0,0
2,note_on,52,32,0
2,note_on,55,39,0
2,note_on,55,0,120
2,note_on,57,35,0
2,note_on,52,0,118
2,note_on,57,0,2
2,note_on,52,34,0
2,note_on,55,40,0
2,note_on,55,0,120
2,note_on,57,34,0
2,note_on,57,0,120
2,note_on,52,0,0
2,note_on,50,32,0
2,note_on,54,38,0
2,note_on,54,0,120
2,note_on,57,32,0
2,note_on,57,0,120
2,note_on,50,0,0
2,note_on,49,31,0
2,note_on,52,37,0
2,note_on,52,0,120
2,note_on,57,34,0
2,note_on,57,0,120
2,note_on,49,0,0
2,note_on,50,32,0
2,note_on,54,38,0
2,note_on,54,0,81
2,note_on,59,33,0
2,note_on,57,33,79
2,note_on,59,0,1
2,note_on,57,0,79
2,note_on,56,38,0
2,note_on,59,34,80
2,note_on,56,0,1
2,note_on,59,0,79
2,note_on,57,34,0
2,note_on,57,0,60
2,note_on,54,38,20
2,note_on,54,0,81
2,note_on,59,33,0
2,note_on,57,33,79
2,note_on,59,0,1
2,note_on,57,0,59
2,note_on,56,38,20
2,note_on,59,33,80
2,note_on,56,0,1
2,note_on,59,0,79
2,note_on,57,33,0
2,note_on,57,0,60
2,note_on,54,38,20
2,note_on,54,0,81
2,note_on,59,34,0
2,note_on,57,34,79
2,note_on,59,0,1
2,note_on,57,0,59
2,note_on,50,0,20
2,note_on,50,32,0
2,note_on,54,38,0
2,note_on,58,34,80
2,note_on,54,0,1
2,note_on,58,0,79
2,note_on,57,34,0
2,note_on,57,0,60
2,note_on,50,0,20
2,note_on,49,32,0
2,note_on,52,38,0
2,note_on,59,33,80
2,note_on,52,0,1
2,note_on,59,0,79
2,note_on,57,33,0
2,note_on,57,0,60
2,note_on,49,0,20
2,note_on,50,32,0
2,note_on,54,38,0
2,note_on,59,34,80
2,note_on,54,0,1
2,note_on,59,0,79
2,note_on,57,34,0
2,note_on,57,0,60
2,note_on,50,0,20
2,note_on,52,34,0
2,note_on,55,41,0
2,note_on,59,36,80
2,note_on,55,0,1
2,note_on,59,0,79
2,note_on,57,36,0
2,note_on,57,0,60
2,note_on,52,0,18
2,note_on,52,34,2
2,note_on,55,40,0
2,note_on,59,34,80
2,note_on,55,0,1
2,note_on,59,0,79
2,note_on,57,34,0
2,note_on,57,0,60
2,note_on,52,0,20
2,note_on,50,32,0
2,note_on,54,38,0
2,note_on,59,32,80
2,note_on,54,0,1
2,note_on,59,0,79
2,note_on,57,32,0
2,note_on,57,0,60
2,note_on,50,0,20
2,note_on,49,31,0
2,note_on,52,37,0
2,note_on,59,34,80
2,note_on,52,0,1
2,note_on,59,0,79
2,note_on,57,34,0
2,note_on,57,0,60
2,note_on,49,0,20
2,note_on,50,32,0
2,note_on,54,38,0
2,note_on,54,0,81
2,note_on,59,39,0
2,note_on,57,39,79
2,note_on,59,0,1
2,note_on,57,0,79
2,note_on,56,46,0
2,note_on,59,41,80
2,note_on,56,0,1
2,note_on,59,0,79
2,note_on,57,42,0
2,note_on,57,0,60
2,note_on,54,47,20
2,note_on,54,0,81
2,note_on,59,41,0
2,note_on,57,42,79
2,note_on,59,0,1
2,note_on,57,0,59
2,note_on,56,49,20
2,note_on,59,42,80
2,note_on,56,0,1
2,note_on,59,0,79
2,note_on,57,43,0
2,note_on,57,0,60
2,note_on,54,50,20
2,note_on,54,0,81
2,note_on,59,45,0
2,note_on,57,45,79
2,note_on,59,0,1
2,note_on,57,0,59
2,note_on,50,0,20
2,note_on,50,43,0
2,note_on,54,51,0
2,note_on,58,50,80
2,note_on,54,0,1
2,note_on,58,0,79
2,note_on,57,50,0
2,note_on,57,0,60
2,note_on,50,0,20
2,note_on,49,44,0
2,note_on,52,53,0
2,note_on,59,46,80
2,note_on,52,0,1
2,note_on,59,0,79
2,note_on,57,46,0
2,note_on,57,0,60
2,note_on,49,0,20
2,note_on,50,45,0
2,note_on,54,54,0
2,note_on,59,48,80
2,note_on,54,0,1
2,note_on,59,0,79
2,note_on,57,49,0
2,note_on,57,0,60
2,note_on,50,0,20
2,note_on,52,50,0
2,note_on,55,60,0
2,note_on,59,53,80
2,note_on,55,0,1
2,note_on,59,0,79
2,note_on,57,54,0
2,note_on,57,0,60
2,note_on,52,0,20
2,note_on,52,50,0
2,note_on,55,60,0
2,note_on,59,51,80
2,note_on,55,0,1
2,note_on,59,0,79
2,note_on,57,51,0
2,note_on,57,0,60
2,note_on,52,0,20
2,note_on,50,49,0
2,note_on,54,58,0
2,note_on,59,49,80
2,note_on,54,0,1
2,note_on,59,0,79
2,note_on,57,50,0
2,note_on,57,0,60
2,note_on,50,0,20
2,note_on,49,49,0
2,note_on,52,58,0
2,note_on,57,53,80
2,note_on,52,0,1
2,note_on,57,0,79
2,note_on,55,40,0
2,note_on,55,0,60
2,note_on,49,0,20
2,note_on,54,40,0
2,note_on,50,50,0
2,note_on,54,0,80
2,note_on,57,36,0
2,note_on,57,0,80
2,note_on,55,36,0
2,note_on,55,0,80
2,note_on,54,40,0
2,note_on,54,0,80
2,note_on,55,38,0
2,note_on,55,0,80
2,note_on,57,38,0
2,note_on,57,0,80
2,note_on,59,40,0
2,note_on,59,0,80
2,note_on,61,37,0
2,note_on,61,0,80
2,note_on,62,37,0
2,note_on,62,0,80
2,note_on,50,0,0
2,note_on,64,40,0
2,note_on,52,50,0
2,note_on,64,0,240
2,note_on,64,40,0
2,note_on,64,0,80
2,note_on,62,36,0
2,note_on,62,0,80
2,note_on,61,36,0
2,note_on,61,0,80
2,note_on,59,40,0
2,note_on,59,0,80
2,note_on,57,35,0
2,note_on,57,0,80
2,note_on,55,35,0
2,note_on,55,0,80
2,note_on,52,0,0
2,note_on,61,40,0
2,note_on,54,50,0
2,note_on,61,0,80
2,note_on,62,36,0
2,note_on,62,0,80
2,note_on,61,37,0
2,note_on,61,0,80
2,note_on,57,42,0
2,note_on,57,0,80
2,note_on,59,40,0
2,note_on,59,0,80
2,note_on,60,41,0
2,note_on,60,0,80
2,note_on,62,44,0
2,note_on,62,0,80
2,note_on,64,41,0
2,note_on,64,0,80
2,note_on,66,41,0
2,note_on,66,0,80
2,note_on,54,0,0
2,note_on,67,46,0
2,note_on,55,57,0
2,note_on,67,0,320
2,note_on,66,43,0
2,note_on,66,0,80
2,note_on,64,44,0
2,note_on,64,0,80
2,note_on,62,50,0
2,note_on,62,0,80
2,note_on,60,44,0
2,note_on,60,0,80
2,note_on,59,44,0
2,note_on,59,0,80
2,note_on,55,0,0
2,note_on,64,52,0
2,note_on,57,65,0
2,note_on,64,0,80
2,note_on,61,47,0
2,note_on,61,0,80
2,note_on,62,47,0
2,note_on,62,0,80
2,note_on,64,54,0
2,note_on,64,0,80
2,note_on,66,51,0
2,note_on,66,0,80
2,note_on,67,52,0
2,note_on,67,0,80
2,note_on,57,0,0
2,note_on,59,70,0
2,note_on,66,56,0
2,note_on,66,0,80
2,note_on,64,52,0
2,note_on,64,0,80
2,note_on,62,52,0
2,note_on,62,0,80
2,note_on,59,0,0
2,note_on,70,58,0
2,note_on,61,72,0
2,note_on,70,0,80
2,note_on,64,52,0
2,note_on,64,0,80
2,note_on,66,53,0
2,note_on,66,0,80
2,note_on,67,60,0
2,note_on,67,0,80
2,note_on,69,57,0
2,note_on,69,0,80
2,note_on,70,58,0
2,note_on,70,0,80
2,note_on,61,0,0
2,note_on,63,77,0
2,note_on,69,62,0
2,note_on,69,0,80
2,note_on,67,57,0
2,note_on,67,0,80
2,note_on,66,58,0
2,note_on,66,0,80
2,note_on,63,0,0
2,note_on,67,58,0
2,note_on,64,72,0
2,note_on,67,0,80
2,note_on,70,52,0
2,note_on,70,0,80
2,note_on,73,53,0
2,note_on,73,0,80
2,note_on,64,0,0
2,note_on,66,50,0
2,note_on,72,51,0
2,note_on,72,0,80
2,note_on,71,48,0
2,note_on,71,0,80
2,note_on,72,49,0
2,note_on,72,0,80
2,note_on,66,0,0
2,note_on,67,65,0
2,note_on,71,52,0
2,note_on,71,0,80
2,note_on,69,48,0
2,note_on,69,0,80
2,note_on,67,0,0
2,note_on,55,52,0
2,note_on,67,52,0
2,note_on,67,0,80
2,note_on,55,0,0
2,note_on,59,48,0
2,note_on,56,52,0
2,note_on,59,0,80
2,note_on,61,47,0
2,note_on,61,0,80
2,note_on,62,39,0
2,note_on,62,0,80
2,note_on,65,45,0
2,note_on,65,0,80
2,note_on,64,38,0
2,note_on,64,0,80
2,note_on,62,37,0
2,note_on,62,0,80
2,note_on,56,0,0
2,note_on,61,43,0
2,note_on,55,38,0
2,note_on,61,0,80
2,note_on,63,36,0
2,note_on,63,0,80
2,note_on,64,35,0
2,note_on,64,0,80
2,note_on,55,0,0
2,note_on,66,39,0
2,note_on,69,46,0
2,note_on,69,0,720
2,note_on,66,0,0
2,note_on,63,32,0
2,note_on,66,38,0
2,note_on,66,0,478
2,note_on,63,0,0
2,note_on,59,26,2
2,note_on,63,26,0
2,note_on,66,31,0
2,note_on,66,0,240
2,note_on,63,0,0
2,note_on,59,0,0
2,note_on,64,41,0
2,note_on,67,41,0
2,note_on,67,0,360
2,note_on,64,0,0
2,note_on,55,30,0
2,note_on,59,36,0
2,note_on,59,0,120
2,note_on,55,0,0
2,note_on,55,43,0
2,note_on,69,43,0
2,note_on,69,0,120
2,note_on,67,37,0
2,note_on,67,0,120
2,note_on,55,0,0
2,note_on,66,46,0
2,note_on,57,39,0
2,note_on,66,0,120
2,note_on,68,39,0
2,note_on,68,0,120
2,note_on,71,44,0
2,note_on,71,0,120
2,note_on,69,40,0
2,note_on,69,0,120
2,note_on,57,0,0
2,note_on,33,38,0
2,note_on,45,45,0
2,note_on,45,0,120
2,note_on,33,0,0
2,note_on,31,38,0
2,note_on,43,45,0
2,note_on,43,0,60
2,note_on,31,0,0
2,note_on,30,39,0
2,note_on,42,46,0
2,note_on,42,0,60
2,note_on,30,0,0
2,note_on,30,52,0
2,note_on,30,0,60
2,note_on,33,44,0
2,note_on,33,0,60
2,note_on,36,43,0
2,note_on,36,0,60
2,note_on,39,42,0
2,note_on,39,0,60
2,note_on,42,41,0
2,note_on,42,0,60
2,note_on,45,40,0
2,note_on,45,0,60
2,note_on,48,39,0
2,note_on,48,0,60
2,note_on,51,38,0
2,note_on,51,0,60
2,note_on,54,36,0
2,note_on,54,0,60
2,note_on,60,27,0
2,note_on,60,0,60
2,note_on,55,27,0
2,note_on,55,0,60
2,note_on,59,27,0
2,note_on,59,0,60
2,note_on,43,22,0
2,note_on,55,26,0
2,note_on,55,0,480
2,note_on,43,0,0
2,note_on,33,39,240
2,note_on,33,0,80
2,note_on,38,34,0
2,note_on,38,0,80
2,note_on,42,34,0
2,note_on,42,0,80
2,note_on,45,39,0
2,note_on,50,32,60
2,note_on,50,0,60
2,note_on,54,32,0
2,note_on,54,0,60
2,note_on,57,32,0
2,note_on,57,0,60
2,note_on,50,38,0
2,note_on,50,0,60
2,note_on,54,34,0
2,note_on,54,0,60
2,note_on,45,0,0
2,note_on,47,28,0
2,note_on,50,34,0
2,note_on,50,0,60
2,note_on,53,34,0
2,note_on,53,0,60
2,note_on,47,0,0
2,note_on,49,32,0
2,note_on,52,38,0
2,note_on,52,0,238
2,note_on,49,0,0
2,note_on,46,25,2
2,note_on,49,25,0
2,note_on,52,25,0
2,note_on,55,30,0
2,note_on,55,0,360
2,note_on,46,0,0
2,note_on,49,0,0
2,note_on,52,0,0
2,note_on,47,22,0
2,note_on,51,22,0
2,note_on,54,27,0
2,note_on,54,0,120
2,note_on,51,0,0
2,note_on,47,0,0
2,note_on,47,25,0
2,note_on,51,25,0
2,note_on,54,30,0
2,note_on,54,0,475
2,note_on,51,0,0
2,note_on,47,0,0
2,note_on,47,22,5
2,note_on,51,22,0
2,note_on,54,22,0
2,note_on,59,27,0
2,note_on,59,0,238
2,note_on,47,0,0
2,note_on,51,0,0
2,note_on,54,0,0
2,note_on,47,25,2
2,note_on,51,25,0
2,note_on,54,25,0
2,note_on,59,30,0
2,note_on,59,0,475
2,note_on,47,0,0
2,note_on,51,0,0
2,note_on,54,0,0
2,note_on,47,22,5
2,note_on,51,22,0
2,note_on,54,22,0
2,note_on,59,27,0
2,note_on,59,0,238
2,note_on,47,0,0
2,note_on,51,0,0
2,note_on,54,0,0
2,note_on,35,25,2
2,note_on,47,30,0
2,note_on,47,0,238
2,note_on,35,0,0
2,note_on,30,25,2
2,note_on,42,30,0
2,note_on,42,0,475
2,note_on,30,0,0
2,note_on,31,25,5
2,note_on,43,30,0
2,note_on,43,0,238
2,note_on,31,0,0
2,note_on,33,21,2
2,note_on,45,25,0
2,note_on,45,0,475
2,note_on,33,0,0
2,note_on,26,20,5
2,note_on,38,24,0
2,note_on,38,0,480
2,note_on,26,0,0
2,note_on,54,22,0
2,note_on,54,0,240
2,note_on,45,24,0
2,note_on,45,0,480
2,note_on,57,21,0
2,note_on,57,0,240
2,note_on,54,24,0
2,note_on,54,0,480
2,note_on,33,28,0
2,note_on,45,34,0
2,note_on,45,0,240
2,note_on,33,0,0
2,note_on,47,40,0
2,note_on,35,27,0
2,note_on,45,34,0
2,note_on,45,0,480
2,note_on,35,0,0
2,note_on,47,0,0
2,note_on,37,29,0
2,note_on,49,29,0
2,note_on,45,29,0
2,note_on,45,0,238
2,note_on,49,0,0
2,note_on,37,0,0
2,note_on,45,30,2
2,note_on,38,30,0
2,note_on,50,36,0
2,note_on,50,0,480
2,note_on,38,0,0
2,note_on,45,0,0
2,note_on,66,33,0
2,note_on,66,0,240
2,note_on,57,33,0
2,note_on,57,0,480
2,note_on,42,26,0
2,note_on,45,26,0
2,note_on,54,31,0
2,note_on,54,0,240
2,note_on,45,0,0
2,note_on,42,0,0
2,note_on,45,28,0
2,note_on,57,33,0
2,note_on,57,0,480
2,note_on,45,0,0
2,note_on,42,28,0
2,note_on,45,28,0
2,note_on,54,33,0
2,note_on,54,0,480
2,note_on,45,0,0
2,note_on,42,0,0
2,note_on,40,28,0
2,note_on,45,28,0
2,note_on,52,34,0
2,note_on,52,0,240
2,note_on,45,0,0
2,note_on,40,0,0
2,note_on,33,29,0
2,note_on,45,34,0
2,note_on,45,0,240
2,note_on,33,0,0
2,note_on,38,30,0
2,note_on,45,36,0
2,note_on,45,0,720
2,note_on,38,0,0
2,note_on,33,31,0
2,note_on,45,37,0
2,note_on,45,0,713
2,note_on,33,0,0
2,note_on,33,32,7
2,note_on,45,38,0
2,note_on,45,0,480
2,note_on,33,0,0
2,note_on,43,43,0
2,note_on,43,0,120
2,note_on,42,45,0
2,note_on,42,0,120
2,note_on,40,53,0
2,note_on,40,0,120
2,note_on,38,48,0
2,note_on,38,0,120
2,note_on,37,64,0
2,note_on,37,0,80
2,note_on,40,53,0
2,note_on,40,0,80
2,note_on,45,55,0
2,note_on,45,0,80
2,note_on,49,65,0
2,note_on,49,0,80
2,note_on,52,59,0
2,note_on,52,0,80
2,note_on,57,59,0
2,note_on,57,0,80
2,note_on,42,36,0
2,note_on,54,43,0
2,note_on,54,0,720
2,note_on,42,0,0
2,note_on,45,36,0
2,note_on,57,43,0
2,note_on,57,0,720
2,note_on,45,0,0
2,note_on,50,36,0
2,note_on,62,43,0
2,note_on,62,0,720
2,note_on,50,0,0
2,note_on,47,36,0
2,note_on,59,43,0
2,note_on,59,0,480
2,note_on,47,0,0
2,note_on,43,30,0
2,note_on,55,36,0
2,note_on,55,0,240
2,note_on,43,0,0
2,note_on,40,39,0
2,note_on,52,47,0
2,note_on,52,0,480
2,note_on,40,0,0
2,note_on,52,36,0
2,note_on,55,43,0
2,note_on,55,0,238
2,note_on,52,0,0
2,note_on,49,36,2
2,note_on,52,43,0
2,note_on,52,0,480
2,note_on,49,0,0
2,note_on,47,37,0
2,note_on,50,44,0
2,note_on,50,0,120
2,note_on,47,0,0
2,note_on,46,38,0
2,note_on,49,45,0
2,note_on,49,0,119
2,note_on,46,0,0
2,note_on,46,47,1
2,note_on,46,0,120
2,note_on,49,44,0
2,note_on,49,0,120
2,note_on,54,47,0
2,note_on,54,0,120
2,note_on,58,49,0
2,note_on,58,0,120
2,note_on,61,51,0
2,note_on,61,0,120
2,note_on,66,53,0
2,note_on,66,0,120
2,note_on,68,56,0
2,note_on,66,47,0
2,note_on,63,47,0
2,note_on,60,47,0
2,note_on,60,0,720
2,note_on,68,0,0
2,note_on,66,0,0
2,note_on,63,0,0
2,note_on,44,42,0
2,note_on,56,50,0
2,note_on,56,0,480
2,note_on,44,0,0
2,note_on,41,38,0
2,note_on,53,45,0
2,note_on,53,0,238
2,note_on,41,0,0
2,note_on,41,42,2
2,note_on,53,50,0
2,note_on,53,0,240
2,note_on,41,0,0
2,note_on,37,38,0
2,note_on,49,45,0
2,note_on,49,0,240
2,note_on,37,0,0
2,note_on,39,38,0
2,note_on,51,45,0
2,note_on,51,0,240
2,note_on,39,0,0
2,note_on,41,42,0
2,note_on,53,50,0
2,note_on,53,0,480
2,note_on,41,0,0
2,note_on,53,38,0
2,note_on,56,45,0
2,note_on,56,0,240
2,note_on,53,0,0
2,note_on,54,42,0
2,note_on,57,50,0
2,note_on,57,0,480
2,note_on,54,0,0
2,note_on,61,48,0
2,note_on,57,40,0
2,note_on,57,0,240
2,note_on,61,0,0
2,note_on,61,50,0
2,note_on,57,42,0
2,note_on,57,0,480
2,note_on,61,0,0
2,note_on,60,46,0
2,note_on,56,39,0
2,note_on,56,0,238
2,note_on,60,0,0
2,note_on,56,42,2
2,note_on,60,50,0
2,note_on,60,0,240
2,note_on,56,0,0
2,note_on,63,46,0
2,note_on,60,39,0
2,note_on,60,0,240
2,note_on,63,0,0
2,note_on,65,46,0
2,note_on,61,39,0
2,note_on,61,0,240
2,note_on,65,0,0
2,note_on,62,50,0
2,note_on,62,0,120
2,note_on,65,45,0
2,note_on,65,0,120
2,note_on,68,48,0
2,note_on,68,0,120
2,note_on,74,51,0
2,note_on,74,0,120
2,note_on,77,52,0
2,note_on,77,0,110
2,note_on,80,49,10
2,note_on,80,0,120
2,note_on,74,46,0
2,note_on,77,46,0
2,note_on,80,46,0
2,note_on,82,55,0
2,note_on,82,0,480
2,note_on,74,0,0
2,note_on,77,0,0
2,note_on,80,0,0
2,note_on,43,62,240
2,note_on,43,0,120
2,note_on,46,50,0
2,note_on,46,0,120
2,note_on,51,50,0
2,note_on,51,0,120
2,note_on,55,47,0
2,note_on,55,0,120
2,note_on,58,54,0
2,note_on,58,0,120
2,note_on,63,45,0
2,note_on,63,0,120
2,note_on,46,53,0
2,note_on,46,0,120
2,note_on,51,45,0
2,note_on,51,0,120
2,note_on,55,51,0
2,note_on,55,0,120
2,note_on,58,45,0
2,note_on,58,0,120
2,note_on,56,45,0
2,note_on,56,0,120
2,note_on,53,45,0
2,note_on,53,0,120
2,note_on,51,55,0
2,note_on,51,0,120
2,note_on,55,49,0
2,note_on,55,0,120
2,note_on,58,49,0
2,note_on,58,0,120
2,note_on,63,49,0
2,note_on,63,0,120
2,note_on,44,54,0
2,note_on,44,0,120
2,note_on,56,47,0
2,note_on,56,0,120
2,note_on,47,54,0
2,note_on,47,0,120
2,note_on,51,48,0
2,note_on,51,0,120
2,note_on,56,51,0
2,note_on,56,0,120
2,note_on,59,45,0
2,note_on,59,0,120
2,note_on,49,45,0
2,note_on,49,0,120
2,note_on,61,45,0
2,note_on,61,0,120
2,note_on,46,65,0
2,note_on,46,0,120
2,note_on,49,42,0
2,note_on,49,0,120
2,note_on,54,51,0
2,note_on,54,0,120
2,note_on,58,46,0
2,note_on,58,0,120
2,note_on,49,58,0
2,note_on,49,0,120
2,note_on,61,46,0
2,note_on,61,0,120
2,note_on,51,58,0
2,note_on,51,0,120
2,note_on,55,47,0
2,note_on,55,0,120
2,note_on,58,55,0
2,note_on,58,0,120
2,note_on,61,47,0
2,note_on,61,0,120
2,note_on,55,30,0
2,note_on,55,0,120
2,note_on,58,30,0
2,note_on,58,0,120
2,note_on,56,39,0
2,note_on,56,0,120
2,note_on,59,26,0
2,note_on,59,0,120
2,note_on,63,26,0
2,note_on,63,0,120
2,note_on,68,26,0
2,note_on,68,0,118
2,note_on,60,31,2
2,note_on,60,0,120
2,note_on,63,31,0
2,note_on,63,0,120
2,note_on,61,40,0
2,note_on,61,0,120
2,note_on,64,34,0
2,note_on,64,0,120
2,note_on,68,34,0
2,note_on,68,0,120
2,note_on,73,29,0
2,note_on,73,0,118
2,note_on,65,34,2
2,note_on,65,0,120
2,note_on,68,31,0
2,note_on,68,0,120
2,note_on,54,39,0
2,note_on,54,0,120
2,note_on,58,31,0
2,note_on,58,0,120
2,note_on,61,31,0
2,note_on,61,0,120
2,note_on,66,45,0
2,note_on,66,0,120
2,note_on,39,59,0
2,note_on,39,0,120
2,note_on,51,52,0
2,note_on,51,0,120
2,note_on,42,58,0
2,note_on,42,0,120
2,note_on,46,49,0
2,note_on,46,0,120
2,note_on,51,57,0
2,note_on,51,0,120
2,note_on,54,49,0
2,note_on,54,0,120
2,note_on,44,53,0
2,note_on,44,0,120
2,note_on,56,49,0
2,note_on,56,0,120
2,note_on,40,59,0
2,note_on,40,0,120
2,note_on,44,51,0
2,note_on,44,0,120
2,note_on,49,52,0
2,note_on,49,0,120
2,note_on,52,50,0
2,note_on,52,0,120
2,note_on,44,50,0
2,note_on,44,0,120
2,note_on,56,45,0
2,note_on,56,0,120
2,note_on,45,54,0
2,note_on,45,0,120
2,note_on,49,49,0
2,note_on,49,0,120
2,note_on,52,49,0
2,note_on,52,0,120
2,note_on,57,49,0
2,note_on,57,0,118
2,note_on,49,37,2
2,note_on,49,0,120
2,note_on,61,34,0
2,note_on,61,0,120
2,note_on,51,39,0
2,note_on,54,31,120
2,note_on,58,31,120
2,note_on,58,0,120
2,note_on,63,31,0
2,note_on,63,0,118
2,note_on,54,0,2
2,note_on,51,0,0
2,note_on,55,35,0
2,note_on,55,0,120
2,note_on,58,31,0
2,note_on,58,0,120
2,note_on,56,37,0
2,note_on,56,0,120
2,note_on,59,34,0
2,note_on,59,0,120
2,note_on,63,34,0
2,note_on,63,0,120
2,note_on,68,34,0
2,note_on,68,0,120
2,note_on,60,37,0
2,note_on,60,0,120
2,note_on,63,34,0
2,note_on,63,0,120
2,note_on,61,41,0
2,note_on,61,0,120
2,note_on,65,31,0
2,note_on,65,0,120
2,note_on,68,31,0
2,note_on,68,0,120
2,note_on,73,31,0
2,note_on,73,0,118
2,note_on,65,42,2
2,note_on,65,0,120
2,note_on,68,36,0
2,note_on,68,0,120
2,note_on,66,42,0
2,note_on,66,0,120
2,note_on,69,34,0
2,note_on,69,0,120
2,note_on,73,34,0
2,note_on,73,0,120
2,note_on,78,34,0
2,note_on,78,0,120
2,note_on,59,37,0
2,note_on,59,0,120
2,note_on,71,34,0
2,note_on,59,34,0
2,note_on,71,0,118
2,note_on,59,0,2
2,note_on,56,28,120
2,note_on,68,33,0
2,note_on,68,0,120
2,note_on,56,0,0
2,note_on,65,33,120
2,note_on,53,28,0
2,note_on,53,0,120
2,note_on,65,0,0
2,note_on,61,30,360
2,note_on,49,25,0
2,note_on,49,0,120
2,note_on,61,0,0
2,note_on,37,25,120
2,note_on,49,30,0
2,note_on,49,0,120
2,note_on,37,0,0
2,note_on,37,22,360
2,note_on,49,26,0
2,note_on,49,0,120
2,note_on,37,0,0
2,note_on,37,25,120
2,note_on,37,0,120
2,note_on,37,22,360
2,note_on,37,0,120
2,note_on,37,21,120
2,note_on,37,0,120
2,note_on,37,21,0
2,note_on,37,0,240
2,note_on,37,30,0
2,note_on,37,0,238
2,note_on,37,24,2
2,note_on,37,0,238
2,note_on,44,24,2
2,note_on,37,20,0
2,note_on,37,0,238
2,note_on,44,0,0
2,note_on,37,20,2
2,note_on,44,24,0
2,note_on,44,0,238
2,note_on,37,0,0
2,note_on,37,20,2
2,note_on,44,24,0
2,note_on,44,0,238
2,note_on,37,0,0
2,note_on,30,20,2
2,note_on,37,20,0
2,note_on,42,24,0
2,note_on,42,0,238
2,note_on,37,0,0
2,note_on,30,0,0
2,note_on,30,20,2
2,note_on,37,20,0
2,note_on,42,24,0
2,note_on,42,0,238
2,note_on,37,0,0
2,note_on,30,0,0
2,note_on,37,20,2
2,note_on,42,20,0
2,note_on,49,24,0
2,note_on,49,0,238
2,note_on,42,0,0
2,note_on,37,0,0
2,note_on,37,20,2
2,note_on,42,20,0
2,note_on,49,24,0
2,note_on,49,0,238
2,note_on,42,0,0
2,note_on,37,0,0
2,note_on,37,20,2
2,note_on,42,20,0
2,note_on,49,24,0
2,note_on,49,0,238
2,note_on,42,0,0
2,note_on,37,0,0
2,note_on,37,20,2
2,note_on,42,20,0
2,note_on,49,24,0
2,note_on,49,0,238
2,note_on,42,0,0
2,note_on,37,0,0
2,note_on,37,20,2
2,note_on,41,20,0
2,note_on,49,24,0
2,note_on,49,0,238
2,note_on,41,0,0
2,note_on,37,0,0
2,note_on,37,28,2
2,note_on,42,28,0
2,note_on,49,34,0
2,note_on,42,0,238
2,note_on,37,0,0
2,note_on,49,0,0
2,note_on,37,23,2
2,note_on,42,23,0
2,note_on,49,27,0
2,note_on,49,0,238
2,note_on,42,0,0
2,note_on,37,0,0
2,note_on,38,24,2
2,note_on,42,24,0
2,note_on,50,28,0
2,note_on,50,0,238
2,note_on,42,0,0
2,note_on,38,0,0
2,note_on,38,25,2
2,note_on,42,25,0
2,note_on,50,30,0
2,note_on,50,0,238
2,note_on,42,0,0
2,note_on,38,0,0
2,note_on,38,26,2
2,note_on,42,26,0
2,note_on,50,31,0
2,note_on,50,0,238
2,note_on,42,0,0
2,note_on,38,0,0
2,note_on,35,27,2
2,note_on,42,27,0
2,note_on,47,32,0
2,note_on,47,0,238
2,note_on,42,0,0
2,note_on,35,0,0
2,note_on,35,29,2
2,note_on,42,29,0
2,note_on,47,35,0
2,note_on,47,0,238
2,note_on,42,0,0
2,note_on,35,0,0
2,note_on,47,29,2
2,note_on,54,29,0
2,note_on,59,34,0
2,note_on,59,0,238
2,note_on,54,0,0
2,note_on,47,0,0
2,note_on,45,30,2
2,note_on,54,30,0
2,note_on,57,36,0
2,note_on,57,0,238
2,note_on,54,0,0
2,note_on,45,0,0
2,note_on,45,31,2
2,note_on,54,31,0
2,note_on,57,37,0
2,note_on,57,0,238
2,note_on,54,0,0
2,note_on,45,0,0
2,note_on,44,32,2
2,note_on,49,32,0
2,note_on,56,38,0
2,note_on,56,0,238
2,note_on,49,0,0
2,note_on,44,0,0
2,note_on,42,33,2
2,note_on,49,33,0
2,note_on,54,39,0
2,note_on,54,0,238
2,note_on,49,0,0
2,note_on,42,0,0
2,note_on,41,35,2
2,note_on,49,35,0
2,note_on,56,42,0
2,note_on,56,0,238
2,note_on,49,0,0
2,note_on,41,0,0
2,note_on,41,34,2
2,note_on,49,34,0
2,note_on,56,40,0
2,note_on,56,0,238
2,note_on,49,0,0
2,note_on,41,0,0
2,note_on,53,34,2
2,note_on,56,34,0
2,note_on,59,34,0
2,note_on,61,40,0
2,note_on,61,0,238
2,note_on,53,0,0
2,note_on,56,0,0
2,note_on,59,0,0
2,note_on,53,34,2
2,note_on,56,34,0
2,note_on,59,34,0
2,note_on,62,40,0
2,note_on,62,0,238
2,note_on,53,0,0
2,note_on,56,0,0
2,note_on,59,0,0
2,note_on,53,34,2
2,note_on,56,34,0
2,note_on,59,34,0
2,note_on,62,40,0
2,note_on,62,0,238
2,note_on,53,0,0
2,note_on,56,0,0
2,note_on,59,0,0
2,note_on,53,34,2
2,note_on,56,34,0
2,note_on,59,34,0
2,note_on,62,40,0
2,note_on,62,0,238
2,note_on,53,0,0
2,note_on,56,0,0
2,note_on,59,0,0
2,note_on,53,35,2
2,note_on,56,35,0
2,note_on,59,35,0
2,note_on,62,42,0
2,note_on,62,0,238
2,note_on,53,0,0
2,note_on,56,0,0
2,note_on,59,0,0
2,note_on,41,34,2
2,note_on,44,34,0
2,note_on,53,40,0
2,note_on,53,0,238
2,note_on,44,0,0
2,note_on,41,0,0
2,note_on,41,34,2
2,note_on,44,34,0
2,note_on,53,40,0
2,note_on,53,0,238
2,note_on,44,0,0
2,note_on,41,0,0
2,note_on,41,30,2
2,note_on,44,30,0
2,note_on,53,36,0
2,note_on,53,0,238
2,note_on,44,0,0
2,note_on,41,0,0
2,note_on,42,28,2
2,note_on,45,28,0
2,note_on,54,33,0
2,note_on,54,0,238
2,note_on,45,0,0
2,note_on,42,0,0
2,note_on,44,26,2
2,note_on,47,26,0
2,note_on,56,31,0
2,note_on,56,0,238
2,note_on,47,0,0
2,note_on,44,0,0
2,note_on,44,25,2
2,note_on,47,25,0
2,note_on,56,30,0
2,note_on,56,0,238
2,note_on,47,0,0
2,note_on,44,0,0
2,note_on,56,26,2
2,note_on,59,26,0
2,note_on,62,26,0
2,note_on,65,31,0
2,note_on,65,0,238
2,note_on,56,0,0
2,note_on,59,0,0
2,note_on,62,0,0
2,note_on,56,29,2
2,note_on,59,29,0
2,note_on,62,29,0
2,note_on,65,35,0
2,note_on,65,0,238
2,note_on,56,0,0
2,note_on,59,0,0
2,note_on,62,0,0
2,note_on,59,32,2
2,note_on,56,32,0
2,note_on,62,32,0
2,note_on,65,38,0
2,note_on,65,0,238
2,note_on,59,0,0
2,note_on,56,0,0
2,note_on,62,0,0
2,note_on,57,31,2
2,note_on,61,31,0
2,note_on,66,37,0
2,note_on,66,0,238
2,note_on,61,0,0
2,note_on,57,0,0
2,note_on,59,30,2
2,note_on,62,30,0
2,note_on,66,36,0
2,note_on,66,0,119
2,note_on,62,0,0
2,note_on,59,0,0
2,note_on,60,30,1
2,note_on,63,30,0
2,note_on,66,36,0
2,note_on,66,0,120
2,note_on,63,0,0
2,note_on,60,0,0
2,note_on,60,31,120
2,note_on,63,31,0
2,note_on,66,31,0
2,note_on,68,37,0
2,note_on,68,0,120
2,note_on,60,0,0
2,note_on,63,0,0
2,note_on,66,0,0
2,note_on,60,29,120
2,note_on,63,29,0
2,note_on,66,34,0
2,note_on,66,0,120
2,note_on,63,0,0
2,note_on,60,0,0
2,note_on,66,28,120
2,note_on,60,28,0
2,note_on,63,28,0
2,note_on,68,34,0
2,note_on,68,0,120
2,note_on,66,0,0
2,note_on,60,0,0
2,note_on,63,0,0
2,note_on,60,27,120
2,note_on,63,27,0
2,note_on,66,33,0
2,note_on,66,0,120
2,note_on,63,0,0
2,note_on,60,0,0
2,note_on,60,27,120
2,note_on,63,27,0
2,note_on,66,27,0
2,note_on,69,32,0
2,note_on,69,0,120
2,note_on,60,0,0
2,note_on,63,0,0
2,note_on,66,0,0
2,note_on,54,26,120
2,note_on,48,26,0
2,note_on,51,26,0
2,note_on,57,31,0
2,note_on,57,0,120
2,note_on,54,0,0
2,note_on,48,0,0
2,note_on,51,0,0
2,note_on,49,27,120
2,note_on,54,27,0
2,note_on,57,32,0
2,note_on,57,0,120
2,note_on,54,0,0
2,note_on,49,0,0
2,note_on,57,22,120
2,note_on,49,22,0
2,note_on,54,22,0
2,note_on,60,26,0
2,note_on,60,0,120
2,note_on,57,0,0
2,note_on,49,0,0
2,note_on,54,0,0
2,note_on,57,26,120
2,note_on,49,26,0
2,note_on,54,26,0
2,note_on,61,31,0
2,note_on,61,0,120
2,note_on,57,0,0
2,note_on,49,0,0
2,note_on,54,0,0
2,note_on,53,26,0
2,note_on,49,26,0
2,note_on,56,26,0
2,note_on,61,31,0
2,note_on,61,0,240
2,note_on,53,0,0
2,note_on,49,0,0
2,note_on,56,0,0
2,note_on,49,26,0
2,note_on,53,26,0
2,note_on,56,31,0
2,note_on,56,0,240
2,note_on,53,0,0
2,note_on,49,0,0
2,note_on,49,26,0
2,note_on,56,26,0
2,note_on,59,31,0
2,note_on,59,0,240
2,note_on,56,0,0
2,note_on,49,0,0
2,note_on,49,27,0
2,note_on,56,27,0
2,note_on,59,32,0
2,note_on,59,0,240
2,note_on,56,0,0
2,note_on,49,0,0
2,note_on,49,23,0
2,note_on,56,23,0
2,note_on,59,27,0
2,note_on,59,0,240
2,note_on,56,0,0
2,note_on,49,0,0
2,note_on,49,26,0
2,note_on,54,26,0
2,note_on,57,31,0
2,note_on,57,0,240
2,note_on,54,0,0
2,note_on,49,0,0
2,note_on,49,23,0
2,note_on,54,23,0
2,note_on,57,27,0
2,note_on,57,0,240
2,note_on,54,0,0
2,note_on,49,0,0
2,note_on,47,26,0
2,note_on,50,26,0
2,note_on,53,26,0
2,note_on,56,31,0
2,note_on,56,0,240
2,note_on,47,0,0
2,note_on,50,0,0
2,note_on,53,0,0
2,note_on,45,26,0
2,note_on,48,26,0
2,note_on,51,26,0
2,note_on,54,31,0
2,note_on,54,0,240
2,note_on,45,0,0
2,note_on,48,0,0
2,note_on,51,0,0
2,note_on,51,27,0
2,note_on,46,27,0
2,note_on,47,27,0
2,note_on,54,32,0
2,note_on,54,0,240
2,note_on,51,0,0
2,note_on,46,0,0
2,note_on,47,0,0
2,note_on,51,23,0
2,note_on,46,23,0
2,note_on,47,23,0
2,note_on,54,27,0
2,note_on,54,0,240
2,note_on,51,0,0
2,note_on,46,0,0
2,note_on,47,0,0
2,note_on,44,26,0
2,note_on,49,26,0
2,note_on,53,31,0
2,note_on,53,0,240
2,note_on,49,0,0
2,note_on,44,0,0
2,note_on,44,23,0
2,note_on,49,23,0
2,note_on,53,27,0
2,note_on,53,0,240
2,note_on,49,0,0
2,note_on,44,0,0
2,note_on,49,26,0
2,note_on,53,31,0
2,note_on,53,0,120
2,note_on,53,31,0
2,note_on,56,31,0
2,note_on,56,0,120
2,note_on,53,0,0
2,note_on,49,0,0
2,note_on,59,32,0
2,note_on,49,27,0
2,note_on,56,32,0
2,note_on,56,0,120
2,note_on,59,0,0
2,note_on,62,34,0
2,note_on,59,34,0
2,note_on,59,0,120
2,note_on,62,0,0
2,note_on,49,0,0
2,note_on,49,31,0
2,note_on,59,31,0
2,note_on,62,37,0
2,note_on,62,0,238
2,note_on,59,0,0
2,note_on,49,0,0
2,note_on,49,32,2
2,note_on,59,32,0
2,note_on,62,38,0
2,note_on,62,0,238
2,note_on,59,0,0
2,note_on,49,0,0
2,note_on,49,34,2
2,note_on,57,34,0
2,note_on,61,41,0
2,note_on,61,0,238
2,note_on,57,0,0
2,note_on,49,0,0
2,note_on,49,35,2
2,note_on,57,35,0
2,note_on,61,42,0
2,note_on,61,0,238
2,note_on,57,0,0
2,note_on,49,0,0
2,note_on,49,32,2
2,note_on,56,32,0
2,note_on,59,38,0
2,note_on,59,0,238
2,note_on,56,0,0
2,note_on,49,0,0
2,note_on,49,29,2
2,note_on,54,29,0
2,note_on,57,34,0
2,note_on,57,0,238
2,note_on,54,0,0
2,note_on,49,0,0
2,note_on,49,33,2
2,note_on,54,33,0
2,note_on,57,40,0
2,note_on,57,0,238
2,note_on,54,0,0
2,note_on,49,0,0
2,note_on,57,30,2
2,note_on,49,30,0
2,note_on,54,30,0
2,note_on,60,36,0
2,note_on,60,0,238
2,note_on,57,0,0
2,note_on,49,0,0
2,note_on,54,0,0
2,note_on,53,28,2
2,note_on,49,28,0
2,note_on,56,28,0
2,note_on,61,33,0
2,note_on,61,0,238
2,note_on,53,0,0
2,note_on,49,0,0
2,note_on,56,0,0
2,note_on,53,28,2
2,note_on,49,28,0
2,note_on,56,28,0
2,note_on,61,33,0
2,note_on,61,0,238
2,note_on,53,0,0
2,note_on,49,0,0
2,note_on,56,0,0
2,note_on,53,27,2
2,note_on,49,27,0
2,note_on,56,27,0
2,note_on,61,32,0
2,note_on,61,0,238
2,note_on,53,0,0
2,note_on,49,0,0
2,note_on,56,0,0
2,note_on,52,26,2
2,note_on,58,26,0
2,note_on,49,26,0
2,note_on,55,26,0
2,note_on,61,32,0
2,note_on,61,0,238
2,note_on,49,0,0
2,note_on,52,0,0
2,note_on,58,0,0
2,note_on,55,0,0
2,note_on,55,26,2
2,note_on,50,26,0
2,note_on,59,26,0
2,note_on,62,31,0
2,note_on,62,0,238
2,note_on,55,0,0
2,note_on,50,0,0
2,note_on,59,0,0
2,note_on,55,25,2
2,note_on,50,25,0
2,note_on,59,25,0
2,note_on,62,30,0
2,note_on,62,0,238
2,note_on,55,0,0
2,note_on,50,0,0
2,note_on,59,0,0
2,note_on,50,24,2
2,note_on,59,24,0
2,note_on,55,24,0
2,note_on,62,29,0
2,note_on,62,0,238
2,note_on,50,0,0
2,note_on,59,0,0
2,note_on,55,0,0
2,note_on,55,24,2
2,note_on,50,24,0
2,note_on,59,24,0
2,note_on,62,28,0
2,note_on,62,0,238
2,note_on,55,0,0
2,note_on,50,0,0
2,note_on,59,0,0
2,note_on,55,26,2
2,note_on,59,26,0
2,note_on,62,31,0
2,note_on,62,0,238
2,note_on,59,0,0
2,note_on,55,0,0
2,note_on,59,29,2
2,note_on,55,29,0
2,note_on,62,35,0
2,note_on,62,0,238
2,note_on,55,0,0
2,note_on,59,0,0
2,note_on,55,33,2
2,note_on,60,33,0
2,note_on,64,39,0
2,note_on,64,0,238
2,note_on,60,0,0
2,note_on,55,0,0
2,note_on,55,34,2
2,note_on,60,34,0
2,note_on,64,41,0
2,note_on,64,0,238
2,note_on,60,0,0
2,note_on,55,0,0
2,note_on,60,30,2
2,note_on,55,30,0
2,note_on,64,36,0
2,note_on,64,0,238
2,note_on,55,0,0
2,note_on,60,0,0
2,note_on,55,27,2
2,note_on,59,27,0
2,note_on,62,32,0
2,note_on,62,0,238
2,note_on,59,0,0
2,note_on,55,0,0
2,note_on,50,24,2
2,note_on,55,24,0
2,note_on,59,24,0
2,note_on,62,28,0
2,note_on,62,0,238
2,note_on,50,0,0
2,note_on,55,0,0
2,note_on,59,0,0
2,note_on,50,24,2
2,note_on,57,24,0
2,note_on,54,24,0
2,note_on,62,28,0
2,note_on,62,0,238
2,note_on,50,0,0
2,note_on,57,0,0
2,note_on,54,0,0
2,note_on,54,25,2
2,note_on,50,25,0
2,note_on,57,25,0
2,note_on,62,30,0
2,note_on,62,0,238
2,note_on,54,0,0
2,note_on,50,0,0
2,note_on,57,0,0
2,note_on,54,24,2
2,note_on,49,24,0
2,note_on,57,24,0
2,note_on,61,28,0
2,note_on,57,0,238
2,note_on,54,0,0
2,note_on,49,0,0
2,note_on,61,0,0
2,note_on,54,24,2
2,note_on,49,24,0
2,note_on,57,24,0
2,note_on,61,28,0
2,note_on,61,0,238
2,note_on,54,0,0
2,note_on,49,0,0
2,note_on,57,0,0
2,note_on,53,24,2
2,note_on,49,24,0
2,note_on,56,24,0
2,note_on,61,28,0
2,note_on,61,0,238
2,note_on,53,0,0
2,note_on,49,0,0
2,note_on,56,0,0
2,note_on,49,26,2
2,note_on,53,26,0
2,note_on,56,26,0
2,note_on,61,31,0
2,note_on,61,0,238
2,note_on,49,0,0
2,note_on,53,0,0
2,note_on,56,0,0
2,note_on,49,29,2
2,note_on,53,29,0
2,note_on,56,29,0
2,note_on,61,35,0
2,note_on,61,0,238
2,note_on,49,0,0
2,note_on,53,0,0
2,note_on,56,0,0
2,note_on,53,34,2
2,note_on,49,34,0
2,note_on,56,34,0
2,note_on,61,41,0
2,note_on,61,0,238
2,note_on,53,0,0
2,note_on,49,0,0
2,note_on,56,0,0
2,note_on,53,36,2
2,note_on,49,36,0
2,note_on,56,36,0
2,note_on,61,43,0
2,note_on,61,0,238
2,note_on,53,0,0
2,note_on,49,0,0
2,note_on,56,0,0
2,note_on,54,31,2
2,note_on,57,31,0
2,note_on,61,37,0
2,note_on,61,0,238
2,note_on,57,0,0
2,note_on,54,0,0
2,note_on,54,26,2
2,note_on,57,26,0
2,note_on,61,32,0
2,note_on,61,0,238
2,note_on,57,0,0
2,note_on,54,0,0
2,note_on,61,32,2
2,note_on,57,32,0
2,note_on,57,0,119
2,note_on,61,0,0
2,note_on,49,25,1
2,note_on,45,25,0
2,note_on,57,30,0
2,note_on,57,0,120
2,note_on,45,0,0
2,note_on,49,0,0
2,note_on,44,32,0
2,note_on,49,32,0
2,note_on,56,37,0
2,note_on,56,0,120
2,note_on,49,0,0
2,note_on,44,0,0
2,note_on,42,34,0
2,note_on,49,34,0
2,note_on,54,41,0
2,note_on,54,0,120
2,note_on,49,0,0
2,note_on,42,0,0
2,note_on,37,37,0
2,note_on,49,44,0
2,note_on,49,0,119
2,note_on,37,0,0
2,note_on,37,61,1
2,note_on,37,0,240
2,note_on,29,39,0
2,note_on,41,47,0
2,note_on,41,0,240
2,note_on,29,0,0
2,note_on,30,39,0
2,note_on,42,47,0
2,note_on,42,0,240
2,note_on,30,0,0
2,note_on,32,39,0
2,note_on,44,47,0
2,note_on,44,0,240
2,note_on,32,0,0
2,note_on,33,41,0
2,note_on,45,49,0
2,note_on,45,0,120
2,note_on,33,0,0
2,note_on,35,44,0
2,note_on,47,52,0
2,note_on,47,0,120
2,note_on,35,0,0
2,note_on,36,46,0
2,note_on,48,55,0
2,note_on,48,0,120
2,note_on,36,0,0
2,note_on,37,42,0
2,note_on,49,50,0
2,note_on,49,0,120
2,note_on,37,0,0
2,note_on,36,36,0
2,note_on,48,43,0
2,note_on,48,0,120
2,note_on,36,0,0
2,note_on,37,41,0
2,note_on,49,49,0
2,note_on,49,0,120
2,note_on,37,0,0
2,note_on,36,36,0
2,note_on,48,43,0
2,note_on,48,0,120
2,note_on,36,0,0
2,note_on,37,39,0
2,note_on,49,46,0
2,note_on,49,0,120
2,note_on,37,0,0
2,note_on,36,35,0
2,note_on,48,42,0
2,note_on,48,0,120
2,note_on,36,0,0
2,note_on,37,40,0
2,note_on,49,48,0
2,note_on,49,0,120
2,note_on,37,0,0
2,note_on,53,36,0
2,note_on,53,0,120
2,note_on,56,46,0
2,note_on,56,0,120
2,note_on,53,36,0
2,note_on,53,0,120
2,note_on,56,44,0
2,note_on,56,0,120
2,note_on,59,36,0
2,note_on,59,0,120
2,note_on,49,31,0
2,note_on,53,31,0
2,note_on,56,37,0
2,note_on,59,44,0
2,note_on,59,0,120
2,note_on,49,0,0
2,note_on,53,0,0
2,note_on,56,0,0
2,note_on,37,51,0
2,note_on,49,61,0
2,note_on,49,0,240
2,note_on,37,0,0
2,note_on,41,39,0
2,note_on,53,47,0
2,note_on,53,0,240
2,note_on,41,0,0
2,note_on,42,39,0
2,note_on,54,47,0
2,note_on,54,0,240
2,note_on,42,0,0
2,note_on,44,39,0
2,note_on,56,47,0
2,note_on,56,0,240
2,note_on,44,0,0
2,note_on,45,41,0
2,note_on,57,49,0
2,note_on,57,0,120
2,note_on,45,0,0
2,note_on,47,44,0
2,note_on,59,52,0
2,note_on,59,0,120
2,note_on,47,0,0
2,note_on,48,46,0
2,note_on,60,55,0
2,note_on,60,0,240
2,note_on,48,0,0
2,note_on,49,36,0
2,note_on,61,43,0
2,note_on,61,0,120
2,note_on,49,0,0
2,note_on,36,41,0
2,note_on,48,49,0
2,note_on,48,0,120
2,note_on,36,0,0
2,note_on,37,36,0
2,note_on,49,43,0
2,note_on,49,0,120
2,note_on,37,0,0
2,note_on,36,39,0
2,note_on,48,46,0
2,note_on,48,0,120
2,note_on,36,0,0
2,note_on,37,35,0
2,note_on,49,42,0
2,note_on,49,0,120
2,note_on,37,0,0
2,note_on,48,46,0
2,note_on,36,39,0
2,note_on,36,0,120
2,note_on,48,0,0
2,note_on,37,35,0
2,note_on,49,42,0
2,note_on,49,0,120
2,note_on,37,0,0
2,note_on,37,34,0
2,note_on,37,0,120
2,note_on,46,30,0
2,note_on,46,0,120
2,note_on,38,33,0
2,note_on,38,0,120
2,note_on,47,30,0
2,note_on,47,0,120
2,note_on,31,33,0
2,note_on,31,0,120
2,note_on,43,28,0
2,note_on,43,0,120
2,note_on,50,28,0
2,note_on,50,0,120
2,note_on,43,28,0
2,note_on,43,0,120
2,note_on,50,28,0
2,note_on,50,0,120
2,note_on,43,28,0
2,note_on,43,0,120
2,note_on,35,33,0
2,note_on,35,0,120
2,note_on,43,28,0
2,note_on,43,0,120
2,note_on,55,28,0
2,note_on,55,0,120
2,note_on,43,28,0
2,note_on,43,0,120
2,note_on,55,28,0
2,note_on,55,0,120
2,note_on,43,28,0
2,note_on,43,0,120
2,note_on,36,33,0
2,note_on,36,0,120
2,note_on,43,29,0
2,note_on,43,0,120
2,note_on,55,29,0
2,note_on,55,0,120
2,note_on,43,29,0
2,note_on,43,0,120
2,note_on,55,29,0
2,note_on,55,0,120
2,note_on,43,29,0
2,note_on,43,0,120
2,note_on,31,33,0
2,note_on,31,0,120
2,note_on,43,28,0
2,note_on,43,0,120
2,note_on,55,28,0
2,note_on,55,0,120
2,note_on,43,28,0
2,note_on,43,0,120
2,note_on,55,28,0
2,note_on,55,0,60
2,note_on,43,24,0
2,note_on,43,0,60
2,note_on,38,23,0
2,note_on,42,28,0
2,note_on,42,0,120
2,note_on,38,0,0
2,note_on,38,25,0
2,note_on,42,30,0
2,note_on,42,0,120
2,note_on,38,0,0
2,note_on,45,27,0
2,note_on,45,0,120
2,note_on,37,22,0
2,note_on,42,22,0
2,note_on,45,27,0
2,note_on,45,0,120
2,note_on,42,0,0
2,note_on,37,0,0
2,note_on,49,27,0
2,note_on,49,0,120
2,note_on,37,22,0
2,note_on,42,22,0
2,note_on,45,27,0
2,note_on,45,0,120
2,note_on,42,0,0
2,note_on,37,0,0
2,note_on,49,27,0
2,note_on,49,0,120
2,note_on,37,28,0
2,note_on,41,28,0
2,note_on,44,33,0
2,note_on,44,0,120
2,note_on,41,0,0
2,note_on,37,0,0
2,note_on,49,28,0
2,note_on,49,0,120
2,note_on,37,23,0
2,note_on,41,23,0
2,note_on,44,28,0
2,note_on,44,0,120
2,note_on,41,0,0
2,note_on,37,0,0
2,note_on,49,28,0
2,note_on,49,0,120
2,note_on,42,28,0
2,note_on,45,28,0
2,note_on,45,0,120
2,note_on,42,0,0
2,note_on,49,28,0
2,note_on,49,0,120
2,note_on,42,26,0
2,note_on,45,31,0
2,note_on,45,0,120
2,note_on,42,0,0
2,note_on,49,26,0
2,note_on,49,0,120
2,note_on,35,22,0
2,note_on,47,26,0
2,note_on,47,0,120
2,note_on,35,0,0
2,note_on,50,26,0
2,note_on,50,0,120
2,note_on,35,22,0
2,note_on,43,26,0
2,note_on,43,0,120
2,note_on,35,0,0
2,note_on,47,26,0
2,note_on,47,0,118
2,note_on,35,26,2
2,note_on,47,31,0
2,note_on,47,0,120
2,note_on,35,0,0
2,note_on,47,24,0
2,note_on,47,0,120
2,note_on,37,20,0
2,note_on,49,24,0
2,note_on,49,0,120
2,note_on,37,0,0
2,note_on,49,24,0
2,note_on,49,0,120
2,note_on,37,24,0
2,note_on,37,0,120
2,note_on,41,24,0
2,note_on,41,0,120
2,note_on,30,29,0
2,note_on,30,0,120
2,note_on,37,22,0
2,note_on,42,26,0
2,note_on,42,0,120
2,note_on,37,0,0
2,note_on,29,26,0
2,note_on,29,0,120
2,note_on,37,21,0
2,note_on,44,24,0
2,note_on,44,0,120
2,note_on,37,0,0
2,note_on,29,23,0
2,note_on,29,0,120
2,note_on,37,19,0
2,note_on,44,22,0
2,note_on,44,0,120
2,note_on,37,0,0
2,note_on,30,24,0
2,note_on,30,0,120
2,note_on,37,19,0
2,note_on,45,23,0
2,note_on,45,0,120
2,note_on,37,0,0
2,note_on,37,18,0
2,note_on,37,0,120
2,note_on,49,18,0
2,note_on,42,15,0
2,note_on,42,0,120
2,note_on,49,0,0
2,note_on,37,18,0
2,note_on,37,0,120
2,note_on,49,18,0
2,note_on,49,0,120
2,note_on,38,24,240
2,note_on,50,29,0
2,note_on,50,0,120
2,note_on,38,0,0
2,note_on,69,23,120
2,note_on,66,19,0
2,note_on,62,19,0
2,note_on,57,19,0
2,note_on,57,0,120
2,note_on,69,0,0
2,note_on,66,0,0
2,note_on,62,0,0
2,note_on,69,23,120
2,note_on,66,19,0
2,note_on,62,19,0
2,note_on,57,19,0
2,note_on,57,0,120
2,note_on,69,0,0
2,note_on,66,0,0
2,note_on,62,0,0
2,note_on,38,23,120
2,note_on,50,28,0
2,note_on,50,0,120
2,note_on,38,0,0
2,note_on,69,23,120
2,note_on,66,19,0
2,note_on,62,19,0
2,note_on,57,19,0
2,note_on,57,0,120
2,note_on,69,0,0
2,note_on,66,0,0
2,note_on,62,0,0
2,note_on,69,23,120
2,note_on,66,19,0
2,note_on,62,19,0
2,note_on,57,19,0
2,note_on,57,0,120
2,note_on,69,0,0
2,note_on,66,0,0
2,note_on,62,0,0
2,note_on,38,22,120
2,note_on,50,27,0
2,note_on,50,0,120
2,note_on,38,0,0
2,note_on,69,23,120
2,note_on,66,19,0
2,note_on,62,19,0
2,note_on,57,19,0
2,note_on,57,0,120
2,note_on,69,0,0
2,note_on,66,0,0
2,note_on,62,0,0
2,note_on,69,23,120
2,note_on,66,19,0
2,note_on,62,19,0
2,note_on,57,19,0
2,note_on,57,0,120
2,note_on,69,0,0
2,note_on,66,0,0
2,note_on,62,0,0
2,note_on,38,22,120
2,note_on,50,26,0
2,note_on,50,0,120
2,note_on,38,0,0
2,note_on,69,23,120
2,note_on,66,19,0
2,note_on,62,19,0
2,note_on,57,19,0
2,note_on,57,0,120
2,note_on,69,0,0
2,note_on,66,0,0
2,note_on,62,0,0
2,note_on,69,23,120
2,note_on,64,19,0
2,note_on,61,19,0
2,note_on,57,19,0
2,note_on,57,0,120
2,note_on,69,0,0
2,note_on,64,0,0
2,note_on,61,0,0
2,note_on,37,22,120
2,note_on,49,27,0
2,note_on,49,0,120
2,note_on,37,0,0
2,note_on,69,23,120
2,note_on,64,19,0
2,note_on,61,19,0
2,note_on,57,19,0
2,note_on,57,0,120
2,note_on,69,0,0
2,note_on,64,0,0
2,note_on,61,0,0
2,note_on,69,23,120
2,note_on,64,19,0
2,note_on,61,19,0
2,note_on,57,19,0
2,note_on,57,0,120
2,note_on,69,0,0
2,note_on,64,0,0
2,note_on,61,0,0
2,note_on,37,22,120
2,note_on,49,26,0
2,note_on,49,0,120
2,note_on,37,0,0
2,note_on,69,23,120
2,note_on,64,19,0
2,note_on,61,19,0
2,note_on,57,19,0
2,note_on,57,0,120
2,note_on,69,0,0
2,note_on,64,0,0
2,note_on,61,0,0
2,note_on,69,23,120
2,note_on,64,19,0
2,note_on,61,19,0
2,note_on,57,19,0
2,note_on,57,0,120
2,note_on,69,0,0
2,note_on,64,0,0
2,note_on,61,0,0
2,note_on,37,22,120
2,note_on,49,27,0
2,note_on,49,0,120
2,note_on,37,0,0
2,note_on,69,23,120
2,note_on,64,19,0
2,note_on,61,19,0
2,note_on,57,19,0
2,note_on,57,0,120
2,note_on,69,0,0
2,note_on,64,0,0
2,note_on,61,0,0
2,note_on,69,23,120
2,note_on,64,19,0
2,note_on,61,19,0
2,note_on,57,19,0
2,note_on,57,0,120
2,note_on,69,0,0
2,note_on,64,0,0
2,note_on,61,0,0
2,note_on,37,22,120
2,note_on,49,26,0
2,note_on,49,0,120
2,note_on,37,0,0
2,note_on,69,23,120
2,note_on,64,19,0
2,note_on,61,19,0
2,note_on,57,19,0
2,note_on,57,0,120
2,note_on,69,0,0
2,note_on,64,0,0
2,note_on,61,0,0
2,note_on,69,26,120
2,note_on,66,21,0
2,note_on,62,21,0
2,note_on,57,21,0
2,note_on,57,0,120
2,note_on,69,0,0
2,note_on,66,0,0
2,note_on,62,0,0
2,note_on,38,25,120
2,note_on,50,31,0
2,note_on,50,0,120
2,note_on,38,0,0
2,note_on,66,26,120
2,note_on,62,21,0
2,note_on,57,21,0
2,note_on,54,21,0
2,note_on,54,0,120
2,note_on,66,0,0
2,note_on,62,0,0
2,note_on,57,0,0
2,note_on,66,26,120
2,note_on,62,21,0
2,note_on,59,21,0
2,note_on,54,21,0
2,note_on,54,0,120
2,note_on,66,0,0
2,note_on,62,0,0
2,note_on,59,0,0
2,note_on,35,25,120
2,note_on,47,29,0
2,note_on,47,0,120
2,note_on,35,0,0
2,note_on,66,26,120
2,note_on,62,21,0
2,note_on,59,21,0
2,note_on,54,21,0
2,note_on,54,0,120
2,note_on,66,0,0
2,note_on,62,0,0
2,note_on,59,0,0
2,note_on,61,21,120
2,note_on,66,26,0
2,note_on,64,21,0
2,note_on,58,21,0
2,note_on,54,21,0
2,note_on,54,0,120
2,note_on,64,0,0
2,note_on,61,0,0
2,note_on,66,0,0
2,note_on,58,0,0
2,note_on,34,25,120
2,note_on,46,31,0
2,note_on,46,0,120
2,note_on,34,0,0
2,note_on,55,21,120
2,note_on,67,26,0
2,note_on,64,21,0
2,note_on,61,21,0
2,note_on,58,21,0
2,note_on,58,0,120
2,note_on,64,0,0
2,note_on,55,0,0
2,note_on,67,0,0
2,note_on,61,0,0
2,note_on,55,21,120
2,note_on,67,26,0
2,note_on,64,21,0
2,note_on,61,21,0
2,note_on,58,21,0
2,note_on,58,0,120
2,note_on,64,0,0
2,note_on,55,0,0
2,note_on,67,0,0
2,note_on,61,0,0
2,note_on,34,25,120
2,note_on,46,29,0
2,note_on,46,0,120
2,note_on,34,0,0
2,note_on,55,21,120
2,note_on,67,26,0
2,note_on,64,21,0
2,note_on,61,21,0
2,note_on,58,21,0
2,note_on,58,0,120
2,note_on,64,0,0
2,note_on,55,0,0
2,note_on,67,0,0
2,note_on,61,0,0
2,note_on,61,21,120
2,note_on,67,26,0
2,note_on,64,21,0
2,note_on,58,21,0
2,note_on,55,21,0
2,note_on,55,0,120
2,note_on,64,0,0
2,note_on,61,0,0
2,note_on,67,0,0
2,note_on,58,0,0
2,note_on,34,25,120
2,note_on,46,31,0
2,note_on,46,0,120
2,note_on,34,0,0
2,note_on,55,21,120
2,note_on,67,26,0
2,note_on,64,21,0
2,note_on,61,21,0
2,note_on,58,21,0
2,note_on,58,0,120
2,note_on,64,0,0
2,note_on,55,0,0
2,note_on,67,0,0
2,note_on,61,0,0
2,note_on,54,21,120
2,note_on,66,26,0
2,note_on,64,21,0
2,note_on,61,21,0
2,note_on,58,21,0
2,note_on,58,0,120
2,note_on,64,0,0
2,note_on,54,0,0
2,note_on,66,0,0
2,note_on,61,0,0
2,note_on,34,25,120
2,note_on,46,29,0
2,note_on,46,0,120
2,note_on,34,0,0
2,note_on,66,26,120
2,note_on,54,21,0
2,note_on,64,21,0
2,note_on,61,21,0
2,note_on,58,21,0
2,note_on,58,0,120
2,note_on,64,0,0
2,note_on,66,0,0
2,note_on,54,0,0
2,note_on,61,0,0
2,note_on,59,21,120
2,note_on,66,26,0
2,note_on,62,21,0
2,note_on,54,21,0
2,note_on,54,0,120
2,note_on,59,0,0
2,note_on,66,0,0
2,note_on,62,0,0
2,note_on,35,25,120
2,note_on,47,31,0
2,note_on,47,0,120
2,note_on,35,0,0
2,note_on,66,26,120
2,note_on,62,21,0
2,note_on,59,21,0
2,note_on,54,21,0
2,note_on,54,0,120
2,note_on,66,0,0
2,note_on,62,0,0
2,note_on,59,0,0
2,note_on,66,26,120
2,note_on,64,21,0
2,note_on,54,21,0
2,note_on,58,21,0
2,note_on,58,0,120
2,note_on,66,0,0
2,note_on,64,0,0
2,note_on,54,0,0
2,note_on,37,25,120
2,note_on,49,29,0
2,note_on,49,0,120
2,note_on,37,0,0
2,note_on,66,26,120
2,note_on,64,21,0
2,note_on,54,21,0
2,note_on,58,21,0
2,note_on,58,0,120
2,note_on,66,0,0
2,note_on,64,0,0
2,note_on,54,0,0
2,note_on,59,23,120
2,note_on,66,28,0
2,note_on,62,23,0
2,note_on,54,23,0
2,note_on,54,0,120
2,note_on,59,0,0
2,note_on,66,0,0
2,note_on,62,0,0
2,note_on,35,27,120
2,note_on,47,34,0
2,note_on,47,0,120
2,note_on,35,0,0
2,note_on,66,29,120
2,note_on,62,23,0
2,note_on,59,23,0
2,note_on,54,23,0
2,note_on,54,0,120
2,note_on,66,0,0
2,note_on,62,0,0
2,note_on,59,0,0
2,note_on,66,29,120
2,note_on,64,24,0
2,note_on,54,24,0
2,note_on,58,24,0
2,note_on,58,0,120
2,note_on,66,0,0
2,note_on,64,0,0
2,note_on,54,0,0
2,note_on,37,29,120
2,note_on,49,33,0
2,note_on,49,0,120
2,note_on,37,0,0
2,note_on,66,30,120
2,note_on,64,24,0
2,note_on,54,24,0
2,note_on,58,24,0
2,note_on,58,0,120
2,note_on,66,0,0
2,note_on,64,0,0
2,note_on,54,0,0
2,note_on,59,29,120
2,note_on,66,36,0
2,note_on,62,29,0
2,note_on,54,29,0
2,note_on,54,0,120
2,note_on,59,0,0
2,note_on,66,0,0
2,note_on,62,0,0
2,note_on,38,46,120
2,note_on,50,58,0
2,note_on,50,0,120
2,note_on,38,0,0
2,note_on,61,39,120
2,note_on,54,31,0
2,note_on,49,31,0
2,note_on,49,0,120
2,note_on,54,0,0
2,note_on,61,0,0
2,note_on,59,39,120
2,note_on,54,31,0
2,note_on,47,31,0
2,note_on,47,0,120
2,note_on,54,0,0
2,note_on,59,0,0
2,note_on,35,50,120
2,note_on,47,62,0
2,note_on,47,0,120
2,note_on,35,0,0
2,note_on,57,41,120
2,note_on,45,33,0
2,note_on,45,0,120
2,note_on,57,0,0
2,note_on,56,42,120
2,note_on,44,33,0
2,note_on,44,0,120
2,note_on,56,0,0
2,note_on,32,53,120
2,note_on,44,67,0
2,note_on,44,0,120
2,note_on,32,0,0
2,note_on,54,44,120
2,note_on,42,36,0
2,note_on,42,0,120
2,note_on,54,0,0
2,note_on,53,54,120
2,note_on,41,43,0
2,note_on,41,0,120
2,note_on,53,0,0
2,note_on,53,44,0
2,note_on,65,55,0
2,note_on,65,0,120
2,note_on,53,0,0
2,note_on,41,54,0
2,note_on,53,66,0
2,note_on,53,0,120
2,note_on,41,0,0
2,note_on,53,54,0
2,note_on,65,68,0
2,note_on,65,0,120
2,note_on,53,0,0
2,note_on,51,57,0
2,note_on,39,46,0
2,note_on,39,0,120
2,note_on,51,0,0
2,note_on,51,46,0
2,note_on,63,57,0
2,note_on,63,0,120
2,note_on,51,0,0
2,note_on,37,44,0
2,note_on,49,44,0
2,note_on,49,0,240
2,note_on,37,0,0
2,note_on,61,25,0
2,note_on,65,25,0
2,note_on,68,30,0
2,note_on,68,0,240
2,note_on,65,0,0
2,note_on,66,24,0
2,note_on,70,29,0
2,note_on,66,0,240
2,note_on,61,0,0
2,note_on,67,25,0
2,note_on,61,25,0
2,note_on,67,0,120
2,note_on,70,0,0
2,note_on,70,30,0
2,note_on,67,25,0
2,note_on,67,0,120
2,note_on,70,0,0
2,note_on,70,25,0
2,note_on,73,30,0
2,note_on,73,0,120
2,note_on,70,0,0
2,note_on,68,24,0
2,note_on,71,29,0
2,note_on,71,0,120
2,note_on,68,0,0
2,note_on,67,24,0
2,note_on,70,29,0
2,note_on,70,0,120
2,note_on,67,0,0
2,note_on,68,24,0
2,note_on,71,29,0
2,note_on,71,0,120
2,note_on,68,0,0
2,note_on,61,0,0
2,note_on,66,27,0
2,note_on,70,33,0
2,note_on,61,27,0
2,note_on,70,0,120
2,note_on,66,0,0
2,note_on,66,27,0
2,note_on,69,33,0
2,note_on,69,0,120
2,note_on,66,0,0
2,note_on,65,27,0
2,note_on,68,33,0
2,note_on,61,0,480
2,note_on,61,25,0
2,note_on,68,0,120
2,note_on,65,0,0
2,note_on,68,30,0
2,note_on,65,25,0
2,note_on,65,0,120
2,note_on,68,0,0
2,note_on,68,25,0
2,note_on,71,30,0
2,note_on,71,0,120
2,note_on,68,0,0
2,note_on,66,24,0
2,note_on,70,29,0
2,note_on,70,0,120
2,note_on,66,0,0
2,note_on,65,24,0
2,note_on,68,29,0
2,note_on,68,0,120
2,note_on,65,0,0
2,note_on,66,24,0
2,note_on,70,29,0
2,note_on,70,0,120
2,note_on,66,0,0
2,note_on,61,0,0
2,note_on,64,28,0
2,note_on,67,34,0
2,note_on,61,28,0
2,note_on,67,0,240
2,note_on,64,0,0
2,note_on,65,24,0
2,note_on,68,29,0
2,note_on,68,0,240
2,note_on,65,0,0
2,note_on,61,0,0
2,note_on,62,33,0
2,note_on,65,33,0
2,note_on,68,39,0
2,note_on,68,0,240
2,note_on,65,0,0
2,note_on,62,0,0
2,note_on,68,35,0
2,note_on,62,29,0
2,note_on,68,0,120
2,note_on,65,31,0
2,note_on,65,0,120
2,note_on,62,0,0
2,note_on,63,33,0
2,note_on,68,39,0
2,note_on,68,0,120
2,note_on,66,34,0
2,note_on,66,0,120
2,note_on,63,0,0
2,note_on,60,34,0
2,note_on,65,40,0
2,note_on,65,0,120
2,note_on,66,35,0
2,note_on,66,0,120
2,note_on,60,0,0
2,note_on,60,39,0
2,note_on,66,46,0
2,note_on,66,0,120
2,note_on,63,40,0
2,note_on,63,0,120
2,note_on,60,0,0
2,note_on,59,38,0
2,note_on,66,45,0
2,note_on,66,0,120
2,note_on,65,40,0
2,note_on,65,0,120
2,note_on,59,0,0
2,note_on,58,42,0
2,note_on,66,50,0
2,note_on,66,0,120
2,note_on,61,40,0
2,note_on,61,0,120
2,note_on,58,0,0
2,note_on,56,42,0
2,note_on,61,42,0
2,note_on,66,50,0
2,note_on,66,0,120
2,note_on,65,40,0
2,note_on,65,0,120
2,note_on,61,0,0
2,note_on,56,0,0
2,note_on,54,44,0
2,note_on,61,44,0
2,note_on,66,52,0
2,note_on,66,0,240
2,note_on,61,0,0
2,note_on,54,0,0
2,note_on,47,39,0
2,note_on,59,47,0
2,note_on,59,0,240
2,note_on,47,0,0
2,note_on,47,46,0
2,note_on,59,55,0
2,note_on,59,0,120
2,note_on,53,47,0
2,note_on,53,0,120
2,note_on,47,0,0
2,note_on,46,45,0
2,note_on,56,54,0
2,note_on,56,0,120
2,note_on,54,49,0
2,note_on,54,0,120
2,note_on,46,0,0
2,note_on,45,46,0
2,note_on,53,55,0
2,note_on,53,0,120
2,note_on,51,50,0
2,note_on,51,0,120
2,note_on,45,0,0
2,note_on,48,57,0
2,note_on,44,48,0
2,note_on,48,0,120
2,note_on,49,52,0
2,note_on,49,0,120
2,note_on,44,0,0
2,note_on,39,61,0
2,note_on,39,0,120
2,note_on,37,51,0
2,note_on,37,0,120
2,note_on,36,64,0
2,note_on,36,0,120
2,note_on,37,58,0
2,note_on,37,0,120
2,note_on,37,72,0
2,note_on,37,0,120
2,note_on,56,32,0
2,note_on,56,0,120
2,note_on,53,36,0
2,note_on,53,0,120
2,note_on,59,31,0
2,note_on,59,0,120
2,note_on,56,36,0
2,note_on,56,0,120
2,note_on,62,28,0
2,note_on,62,0,120
2,note_on,60,34,0
2,note_on,60,0,120
2,note_on,61,30,0
2,note_on,61,0,120
2,note_on,56,34,0
2,note_on,56,0,120
2,note_on,63,29,0
2,note_on,63,0,120
2,note_on,61,34,0
2,note_on,61,0,120
2,note_on,59,30,0
2,note_on,59,0,120
2,note_on,54,32,0
2,note_on,58,38,0
2,note_on,58,0,120
2,note_on,63,33,0
2,note_on,63,0,120
2,note_on,60,38,0
2,note_on,60,0,120
2,note_on,61,34,0
2,note_on,61,0,120
2,note_on,58,38,0
2,note_on,58,0,120
2,note_on,63,33,0
2,note_on,63,0,120
2,note_on,60,38,0
2,note_on,60,0,120
2,note_on,61,33,0
2,note_on,61,0,120
2,note_on,58,38,0
2,note_on,58,0,120
2,note_on,63,34,0
2,note_on,63,0,120
2,note_on,54,0,0
2,note_on,54,32,0
2,note_on,58,38,0
2,note_on,58,0,120
2,note_on,61,34,0
2,note_on,61,0,120
2,note_on,54,0,0
2,note_on,53,32,0
2,note_on,56,38,0
2,note_on,56,0,120
2,note_on,61,33,0
2,note_on,61,0,120
2,note_on,53,0,0
2,note_on,54,32,0
2,note_on,58,38,0
2,note_on,58,0,120
2,note_on,61,34,0
2,note_on,61,0,120
2,note_on,54,0,0
2,note_on,56,34,0
2,note_on,59,41,0
2,note_on,59,0,120
2,note_on,61,36,0
2,note_on,61,0,120
2,note_on,56,0,0
2,note_on,56,34,0
2,note_on,59,40,0
2,note_on,59,0,120
2,note_on,61,34,0
2,note_on,61,0,120
2,note_on,56,0,0
2,note_on,54,32,0
2,note_on,58,38,0
2,note_on,58,0,120
2,note_on,61,32,0
2,note_on,61,0,120
2,note_on,54,0,0
2,note_on,53,31,0
2,note_on,56,37,0
2,note_on,56,0,120
2,note_on,61,34,0
2,note_on,61,0,120
2,note_on,53,0,0
2,note_on,54,32,0
2,note_on,58,38,0
2,note_on,58,0,120
2,note_on,63,33,0
2,note_on,63,0,120
2,note_on,60,38,0
2,note_on,60,0,120
2,note_on,61,34,0
2,note_on,61,0,120
2,note_on,58,38,0
2,note_on,58,0,120
2,note_on,63,33,0
2,note_on,63,0,120
2,note_on,60,38,0
2,note_on,60,0,120
2,note_on,61,33,0
2,note_on,61,0,120
2,note_on,58,38,0
2,note_on,58,0,120
2,note_on,63,28,0
2,note_on,63,0,120
2,note_on,54,0,0
2,note_on,54,27,0
2,note_on,58,32,0
2,note_on,58,0,120
2,note_on,61,28,0
2,note_on,61,0,120
2,note_on,54,0,0
2,note_on,53,32,0
2,note_on,56,38,0
2,note_on,56,0,120
2,note_on,61,33,0
2,note_on,61,0,120
2,note_on,53,0,0
2,note_on,54,32,0
2,note_on,58,38,0
2,note_on,58,0,120
2,note_on,61,34,0
2,note_on,61,0,120
2,note_on,54,0,0
2,note_on,56,34,0
2,note_on,59,41,0
2,note_on,59,0,120
2,note_on,61,36,0
2,note_on,61,0,120
2,note_on,56,0,0
2,note_on,56,34,0
2,note_on,59,40,0
2,note_on,59,0,120
2,note_on,61,34,0
2,note_on,61,0,120
2,note_on,56,0,0
2,note_on,54,32,0
2,note_on,58,38,0
2,note_on,58,0,120
2,note_on,61,32,0
2,note_on,61,0,120
2,note_on,54,0,0
2,note_on,53,26,0
2,note_on,56,31,0
2,note_on,56,0,120
2,note_on,61,28,0
2,note_on,61,0,120
2,note_on,53,0,0
2,note_on,54,32,0
2,note_on,58,38,0
2,note_on,58,0,81
2,note_on,63,33,0
2,note_on,61,33,79
2,note_on,63,0,1
2,note_on,61,0,79
2,note_on,60,38,0
2,note_on,63,34,80
2,note_on,60,0,1
2,note_on,63,0,79
2,note_on,61,34,0
2,note_on,61,0,60
2,note_on,58,38,20
2,note_on,58,0,81
2,note_on,63,33,0
2,note_on,61,33,79
2,note_on,63,0,1
2,note_on,61,0,59
2,note_on,60,38,20
2,note_on,63,33,80
2,note_on,60,0,1
2,note_on,63,0,79
2,note_on,61,33,0
2,note_on,61,0,60
2,note_on,58,38,20
2,note_on,58,0,81
2,note_on,63,34,0
2,note_on,61,34,79
2,note_on,63,0,1
2,note_on,61,0,59
2,note_on,54,0,20
2,note_on,54,32,0
2,note_on,58,38,0
2,note_on,62,34,80
2,note_on,58,0,1
2,note_on,62,0,79
2,note_on,61,34,0
2,note_on,61,0,60
2,note_on,54,0,20
2,note_on,53,32,0
2,note_on,56,38,0
2,note_on,63,33,80
2,note_on,56,0,1
2,note_on,63,0,79
2,note_on,61,33,0
2,note_on,61,0,60
2,note_on,53,0,20
2,note_on,54,32,0
2,note_on,58,38,0
2,note_on,63,34,80
2,note_on,58,0,1
2,note_on,63,0,79
2,note_on,61,34,0
2,note_on,61,0,60
2,note_on,54,0,20
2,note_on,56,34,0
2,note_on,59,41,0
2,note_on,63,36,80
2,note_on,59,0,1
2,note_on,63,0,79
2,note_on,61,36,0
2,note_on,61,0,60
2,note_on,56,0,20
2,note_on,56,34,0
2,note_on,59,40,0
2,note_on,63,34,80
2,note_on,59,0,1
2,note_on,63,0,79
2,note_on,61,34,0
2,note_on,61,0,60
2,note_on,56,0,20
2,note_on,54,32,0
2,note_on,58,38,0
2,note_on,63,32,80
2,note_on,58,0,1
2,note_on,63,0,79
2,note_on,61,32,0
2,note_on,61,0,60
2,note_on,54,0,20
2,note_on,53,31,0
2,note_on,56,37,0
2,note_on,63,34,80
2,note_on,56,0,1
2,note_on,63,0,79
2,note_on,61,34,0
2,note_on,61,0,60
2,note_on,53,0,20
2,note_on,54,32,0
2,note_on,58,38,0
2,note_on,58,0,81
2,note_on,63,33,0
2,note_on,61,33,79
2,note_on,63,0,1
2,note_on,61,0,79
2,note_on,60,39,0
2,note_on,63,34,80
2,note_on,60,0,1
2,note_on,63,0,79
2,note_on,61,35,0
2,note_on,61,0,60
2,note_on,58,39,20
2,note_on,58,0,81
2,note_on,63,34,0
2,note_on,61,35,79
2,note_on,63,0,1
2,note_on,61,0,59
2,note_on,60,41,20
2,note_on,63,35,80
2,note_on,60,0,1
2,note_on,63,0,79
2,note_on,61,36,0
2,note_on,61,0,60
2,note_on,58,42,20
2,note_on,58,0,81
2,note_on,63,38,0
2,note_on,61,34,79
2,note_on,63,0,1
2,note_on,61,0,59
2,note_on,54,0,20
2,note_on,54,32,0
2,note_on,58,38,0
2,note_on,62,34,80
2,note_on,58,0,1
2,note_on,62,0,79
2,note_on,61,34,0
2,note_on,61,0,60
2,note_on,54,0,20
2,note_on,53,39,0
2,note_on,56,47,0
2,note_on,63,41,80
2,note_on,56,0,1
2,note_on,63,0,79
2,note_on,61,41,0
2,note_on,61,0,60
2,note_on,53,0,20
2,note_on,54,40,0
2,note_on,58,49,0
2,note_on,63,44,80
2,note_on,58,0,1
2,note_on,63,0,79
2,note_on,61,46,0
2,note_on,61,0,60
2,note_on,54,0,20
2,note_on,56,47,0
2,note_on,59,57,0
2,note_on,63,51,80
2,note_on,59,0,1
2,note_on,63,0,79
2,note_on,61,53,0
2,note_on,61,0,60
2,note_on,56,0,20
2,note_on,56,50,0
2,note_on,59,60,0
2,note_on,63,51,80
2,note_on,59,0,1
2,note_on,63,0,79
2,note_on,61,51,0
2,note_on,61,0,60
2,note_on,56,0,20
2,note_on,54,49,0
2,note_on,58,58,0
2,note_on,63,49,80
2,note_on,58,0,1
2,note_on,63,0,79
2,note_on,61,50,0
2,note_on,61,0,60
2,note_on,54,0,20
2,note_on,53,49,0
2,note_on,56,58,0
2,note_on,61,53,80
2,note_on,56,0,1
2,note_on,61,0,79
2,note_on,59,40,0
2,note_on,59,0,60
2,note_on,53,0,20
2,note_on,58,40,0
2,note_on,54,50,0
2,note_on,58,0,80
2,note_on,61,36,0
2,note_on,61,0,80
2,note_on,59,36,0
2,note_on,59,0,80
2,note_on,58,40,0
2,note_on,58,0,80
2,note_on,59,38,0
2,note_on,59,0,80
2,note_on,61,38,0
2,note_on,61,0,80
2,note_on,63,40,0
2,note_on,63,0,80
2,note_on,65,37,0
2,note_on,65,0,80
2,note_on,66,37,0
2,note_on,66,0,80
2,note_on,54,0,0
2,note_on,68,40,0
2,note_on,56,50,0
2,note_on,68,0,320
2,note_on,66,36,0
2,note_on,66,0,80
2,note_on,65,36,0
2,note_on,65,0,80
2,note_on,63,40,0
2,note_on,63,0,80
2,note_on,61,35,0
2,note_on,61,0,80
2,note_on,59,35,0
2,note_on,59,0,80
2,note_on,56,0,0
2,note_on,65,40,0
2,note_on,58,50,0
2,note_on,65,0,80
2,note_on,66,36,0
2,note_on,66,0,80
2,note_on,65,37,0
2,note_on,65,0,80
2,note_on,61,42,0
2,note_on,61,0,80
2,note_on,63,40,0
2,note_on,63,0,80
2,note_on,64,41,0
2,note_on,64,0,80
2,note_on,66,44,0
2,note_on,66,0,80
2,note_on,68,41,0
2,note_on,68,0,80
2,note_on,70,41,0
2,note_on,70,0,80
2,note_on,58,0,0
2,note_on,71,46,0
2,note_on,59,57,0
2,note_on,71,0,240
2,note_on,71,48,0
2,note_on,71,0,80
2,note_on,70,43,0
2,note_on,70,0,80
2,note_on,68,44,0
2,note_on,68,0,80
2,note_on,66,50,0
2,note_on,66,0,80
2,note_on,65,44,0
2,note_on,65,0,80
2,note_on,63,44,0
2,note_on,63,0,80
2,note_on,59,0,0
2,note_on,61,65,0
2,note_on,65,47,80
2,note_on,65,0,80
2,note_on,66,47,0
2,note_on,66,0,80
2,note_on,68,54,0
2,note_on,68,0,80
2,note_on,70,51,0
2,note_on,70,0,80
2,note_on,71,52,0
2,note_on,71,0,80
2,note_on,61,0,0
2,note_on,63,70,0
2,note_on,70,56,0
2,note_on,70,0,80
2,note_on,68,52,0
2,note_on,68,0,80
2,note_on,66,52,0
2,note_on,66,0,80
2,note_on,63,0,0
2,note_on,65,72,0
2,note_on,68,52,80
2,note_on,68,0,80
2,note_on,70,53,0
2,note_on,70,0,80
2,note_on,71,60,0
2,note_on,71,0,80
2,note_on,73,57,0
2,note_on,73,0,80
2,note_on,75,58,0
2,note_on,75,0,80
2,note_on,65,0,0
2,note_on,66,77,0
2,note_on,73,62,0
2,note_on,73,0,80
2,note_on,71,57,0
2,note_on,71,0,80
2,note_on,70,58,0
2,note_on,70,0,80
2,note_on,66,0,0
2,note_on,76,58,0
2,note_on,68,72,0
2,note_on,76,0,80
2,note_on,73,52,0
2,note_on,73,0,80
2,note_on,75,53,0
2,note_on,75,0,80
2,note_on,68,0,0
2,note_on,70,61,0
2,note_on,76,51,0
2,note_on,76,0,80
2,note_on,58,48,0
2,note_on,66,48,0
2,note_on,66,0,80
2,note_on,67,49,0
2,note_on,67,0,80
2,note_on,58,0,0
2,note_on,70,0,0
2,note_on,59,65,0
2,note_on,66,52,0
2,note_on,66,0,80
2,note_on,64,48,0
2,note_on,64,0,80
2,note_on,63,52,0
2,note_on,63,0,80
2,note_on,59,0,0
2,note_on,63,48,0
2,note_on,60,52,0
2,note_on,63,0,80
2,note_on,65,47,0
2,note_on,65,0,80
2,note_on,66,39,0
2,note_on,66,0,80
2,note_on,69,45,0
2,note_on,69,0,80
2,note_on,68,38,0
2,note_on,68,0,80
2,note_on,66,37,0
2,note_on,66,0,80
2,note_on,60,0,0
2,note_on,61,43,0
2,note_on,59,38,0
2,note_on,61,0,80
2,note_on,65,36,0
2,note_on,65,0,80
2,note_on,68,35,0
2,note_on,68,0,80
2,note_on,59,0,0
2,note_on,70,39,0
2,note_on,73,46,0
2,note_on,73,0,720
2,note_on,70,0,0
2,note_on,67,32,0
2,note_on,70,38,0
2,note_on,70,0,480
2,note_on,67,0,0
2,note_on,63,26,0
2,note_on,67,31,0
2,note_on,67,0,240
2,note_on,63,0,0
2,note_on,70,41,0
2,note_on,70,0,120
2,note_on,67,37,0
2,note_on,67,0,120
2,note_on,56,36,0
2,note_on,68,46,0
2,note_on,68,0,120
2,note_on,63,37,0
2,note_on,63,0,120
2,note_on,56,0,0
2,note_on,47,49,0
2,note_on,61,49,0
2,note_on,61,0,120
2,note_on,59,47,0
2,note_on,59,0,120
2,note_on,47,0,0
2,note_on,49,45,0
2,note_on,58,54,0
2,note_on,58,0,240
2,note_on,49,0,0
2,note_on,37,36,0
2,note_on,46,43,0
2,note_on,46,0,120
2,note_on,37,0,0
2,note_on,37,33,0
2,note_on,49,46,0
2,note_on,49,0,180
2,note_on,37,0,0
2,note_on,35,45,0
2,note_on,47,53,0
2,note_on,47,0,60
2,note_on,35,0,0
2,note_on,34,46,0
2,note_on,46,55,0
2,note_on,46,0,60
2,note_on,34,0,0
2,note_on,35,48,0
2,note_on,47,57,0
2,note_on,47,0,60
2,note_on,35,0,0
2,note_on,34,52,0
2,note_on,34,0,60
2,note_on,37,44,0
2,note_on,37,0,60
2,note_on,40,43,0
2,note_on,40,0,60
2,note_on,43,42,0
2,note_on,43,0,60
2,note_on,46,41,0
2,note_on,46,0,60
2,note_on,49,40,0
2,note_on,49,0,60
2,note_on,52,39,0
2,note_on,52,0,60
2,note_on,55,38,0
2,note_on,55,0,60
2,note_on,58,36,0
2,note_on,61,36,0
2,note_on,61,0,60
2,note_on,58,0,0
2,note_on,64,27,0
2,note_on,64,0,60
2,note_on,59,27,0
2,note_on,59,0,60
2,note_on,63,27,0
2,note_on,63,0,60
2,note_on,47,22,0
2,note_on,59,26,0
2,note_on,59,0,480
2,note_on,47,0,0
2,note_on,37,39,240
2,note_on,37,0,80
2,note_on,42,34,0
2,note_on,42,0,80
2,note_on,46,34,0
2,note_on,46,0,80
2,note_on,49,31,0
2,note_on,49,0,80
2,note_on,54,31,0
2,note_on,54,0,80
2,note_on,58,31,0
2,note_on,58,0,80
2,note_on,49,39,0
2,note_on,54,38,0
2,note_on,54,0,60
2,note_on,58,34,0
2,note_on,58,0,60
2,note_on,49,0,0
2,note_on,51,28,0
2,note_on,54,34,0
2,note_on,54,0,60
2,note_on,57,34,0
2,note_on,57,0,60
2,note_on,51,0,0
2,note_on,50,32,0
2,note_on,53,32,0
2,note_on,56,32,0
2,note_on,59,38,0
2,note_on,59,0,240
2,note_on,50,0,0
2,note_on,53,0,0
2,note_on,56,0,0
2,note_on,50,25,0
2,note_on,53,25,0
2,note_on,56,25,0
2,note_on,59,30,0
2,note_on,59,0,360
2,note_on,50,0,0
2,note_on,53,0,0
2,note_on,56,0,0
2,note_on,51,22,0
2,note_on,55,22,0
2,note_on,58,27,0
2,note_on,58,0,120
2,note_on,55,0,0
2,note_on,51,0,0
2,note_on,51,25,0
2,note_on,55,25,0
2,note_on,58,30,0
2,note_on,58,0,475
2,note_on,55,0,0
2,note_on,51,0,0
2,note_on,51,22,5
2,note_on,55,22,0
2,note_on,58,22,0
2,note_on,63,27,0
2,note_on,63,0,238
2,note_on,51,0,0
2,note_on,55,0,0
2,note_on,58,0,0
2,note_on,51,25,2
2,note_on,55,25,0
2,note_on,58,25,0
2,note_on,63,30,0
2,note_on,63,0,475
2,note_on,51,0,0
2,note_on,55,0,0
2,note_on,58,0,0
2,note_on,51,22,5
2,note_on,55,22,0
2,note_on,58,22,0
2,note_on,63,27,0
2,note_on,63,0,238
2,note_on,51,0,0
2,note_on,55,0,0
2,note_on,58,0,0
2,note_on,39,25,2
2,note_on,51,30,0
2,note_on,51,0,240
2,note_on,39,0,0
2,note_on,34,25,0
2,note_on,46,30,0
2,note_on,46,0,480
2,note_on,34,0,0
2,note_on,35,25,0
2,note_on,47,30,0
2,note_on,47,0,240
2,note_on,35,0,0
2,note_on,37,21,0
2,note_on,49,25,0
2,note_on,49,0,480
2,note_on,37,0,0
2,note_on,30,20,0
2,note_on,42,24,0
2,note_on,42,0,480
2,note_on,30,0,0
2,note_on,58,22,0
2,note_on,58,0,240
2,note_on,49,24,0
2,note_on,49,0,480
2,note_on,61,21,0
2,note_on,61,0,240
2,note_on,58,24,0
2,note_on,58,0,480
2,note_on,37,28,0
2,note_on,49,34,0
2,note_on,49,0,480
2,note_on,37,0,0
2,note_on,39,27,0
2,note_on,51,40,0
2,note_on,51,0,120
2,note_on,39,0,0
2,note_on,37,27,0
2,note_on,49,40,0
2,note_on,49,0,120
2,note_on,37,0,0
2,note_on,51,29,0
2,note_on,49,29,0
2,note_on,39,29,0
2,note_on,39,0,120
2,note_on,49,0,0
2,note_on,51,0,0
2,note_on,41,29,0
2,note_on,49,29,0
2,note_on,53,29,0
2,note_on,53,0,120
2,note_on,49,0,0
2,note_on,41,0,0
2,note_on,49,30,0
2,note_on,42,30,0
2,note_on,54,36,0
2,note_on,54,0,480
2,note_on,42,0,0
2,note_on,49,0,0
2,note_on,70,33,0
2,note_on,70,0,240
2,note_on,61,37,0
2,note_on,61,0,480
2,note_on,34,28,0
2,note_on,46,34,0
2,note_on,46,0,240
2,note_on,34,0,0
2,note_on,37,34,0
2,note_on,49,40,0
2,note_on,49,0,240
2,note_on,37,0,0
2,note_on,49,28,0
2,note_on,61,34,0
2,note_on,61,0,240
2,note_on,49,0,0
2,note_on,46,30,0
2,note_on,49,30,0
2,note_on,58,36,0
2,note_on,58,0,240
2,note_on,49,0,0
2,note_on,46,0,0
2,note_on,44,36,0
2,note_on,49,36,0
2,note_on,56,43,0
2,note_on,56,0,480
2,note_on,49,0,0
2,note_on,44,0,0
2,note_on,37,34,0
2,note_on,49,40,0
2,note_on,49,0,240
2,note_on,37,0,0
2,note_on,42,36,0
2,note_on,49,36,0
2,note_on,54,43,0
2,note_on,54,0,720
2,note_on,49,0,0
2,note_on,42,0,0
2,note_on,37,28,0
2,note_on,49,33,0
2,note_on,49,0,720
2,note_on,37,0,0
2,note_on,30,22,0
2,note_on,42,26,0
2,note_on,42,0,480
2,note_on,30,0,0
2,note_on,42,22,0
2,note_on,54,26,0
2,note_on,54,0,238
2,note_on,42,0,0
2,note_on,42,25,2
2,note_on,54,29,0
2,note_on,54,0,480
2,note_on,42,0,0
2,note_on,42,36,0
2,note_on,54,43,0
2,note_on,54,0,180
2,note_on,42,0,0
2,note_on,40,31,0
2,note_on,52,36,0
2,note_on,52,0,60
2,note_on,40,0,0
2,note_on,38,28,0
2,note_on,50,33,0
2,note_on,50,0,720
2,note_on,38,0,0
2,note_on,42,25,0
2,note_on,54,30,0
2,note_on,54,0,720
2,note_on,42,0,0
2,note_on,47,26,0
2,note_on,59,31,0
2,note_on,59,0,480
2,note_on,47,0,0
2,note_on,47,26,480
2,note_on,59,31,0
2,note_on,59,0,240
2,note_on,47,0,0
2,note_on,43,22,0
2,note_on,55,26,0
2,note_on,55,0,120
2,note_on,43,0,0
2,note_on,38,22,0
2,note_on,50,26,0
2,note_on,50,0,117
2,note_on,38,0,0
2,note_on,38,26,3
2,note_on,50,31,0
2,note_on,50,0,480
2,note_on,38,0,0
2,note_on,35,22,0
2,note_on,47,26,0
2,note_on,47,0,238
2,note_on,35,0,0
2,note_on,35,26,2
2,note_on,47,31,0
2,note_on,47,0,240
2,note_on,35,0,0
2,note_on,31,22,0
2,note_on,43,27,0
2,note_on,43,0,240
2,note_on,31,0,0
2,note_on,33,22,0
2,note_on,45,27,0
2,note_on,45,0,240
2,note_on,33,0,0
2,note_on,35,46,0
2,note_on,47,55,0
2,note_on,47,0,240
2,note_on,35,0,0
2,note_on,47,49,0
2,note_on,55,58,0
2,note_on,55,0,240
2,note_on,47,0,0
2,note_on,48,52,0
2,note_on,57,62,0
2,note_on,57,0,240
2,note_on,48,0,0
2,note_on,50,54,0
2,note_on,59,65,0
2,note_on,59,0,240
2,note_on,50,0,0
2,note_on,59,45,0
2,note_on,55,38,0
2,note_on,55,0,240
2,note_on,59,0,0
2,note_on,50,33,0
2,note_on,60,39,0
2,note_on,57,33,0
2,note_on,57,0,120
2,note_on,60,0,0
2,note_on,50,0,0
2,note_on,59,34,0
2,note_on,55,28,0
2,note_on,55,0,120
2,note_on,59,0,0
2,note_on,55,36,0
2,note_on,59,42,0
2,note_on,59,0,81
2,note_on,64,37,0
2,note_on,62,37,79
2,note_on,64,0,1
2,note_on,62,0,79
2,note_on,61,42,0
2,note_on,64,38,80
2,note_on,61,0,1
2,note_on,64,0,79
2,note_on,62,38,0
2,note_on,62,0,60
2,note_on,59,42,20
2,note_on,59,0,81
2,note_on,64,37,0
2,note_on,62,37,79
2,note_on,64,0,1
2,note_on,62,0,59
2,note_on,61,42,20
2,note_on,64,37,80
2,note_on,61,0,1
2,note_on,64,0,79
2,note_on,62,37,0
2,note_on,62,0,60
2,note_on,59,42,20
2,note_on,59,0,81
2,note_on,64,38,0
2,note_on,62,38,79
2,note_on,64,0,1
2,note_on,62,0,59
2,note_on,55,0,20
2,note_on,55,36,0
2,note_on,59,42,0
2,note_on,63,38,80
2,note_on,59,0,1
2,note_on,63,0,79
2,note_on,62,38,0
2,note_on,62,0,60
2,note_on,55,0,20
2,note_on,54,36,0
2,note_on,57,42,0
2,note_on,64,37,80
2,note_on,57,0,1
2,note_on,64,0,79
2,note_on,62,37,0
2,note_on,62,0,60
2,note_on,54,0,20
2,note_on,55,36,0
2,note_on,59,42,0
2,note_on,64,38,80
2,note_on,59,0,1
2,note_on,64,0,79
2,note_on,62,38,0
2,note_on,62,0,60
2,note_on,55,0,20
2,note_on,57,38,0
2,note_on,60,46,0
2,note_on,64,40,80
2,note_on,60,0,1
2,note_on,64,0,79
2,note_on,62,40,0
2,note_on,62,0,60
2,note_on,57,0,20
2,note_on,57,38,0
2,note_on,60,45,0
2,note_on,64,38,80
2,note_on,60,0,1
2,note_on,64,0,79
2,note_on,62,38,0
2,note_on,62,0,60
2,note_on,57,0,20
2,note_on,55,36,0
2,note_on,59,42,0
2,note_on,64,36,80
2,note_on,59,0,1
2,note_on,64,0,79
2,note_on,62,36,0
2,note_on,62,0,60
2,note_on,55,0,20
2,note_on,54,35,0
2,note_on,58,41,0
2,note_on,58,0,80
2,note_on,64,38,0
2,note_on,64,0,80
2,note_on,62,38,0
2,note_on,62,0,60
2,note_on,54,0,20
2,note_on,55,36,0
2,note_on,59,42,0
2,note_on,59,0,81
2,note_on,64,37,0
2,note_on,62,37,79
2,note_on,64,0,1
2,note_on,62,0,79
2,note_on,61,43,0
2,note_on,64,38,80
2,note_on,61,0,1
2,note_on,64,0,79
2,note_on,62,39,0
2,note_on,62,0,60
2,note_on,59,44,20
2,note_on,59,0,81
2,note_on,64,38,0
2,note_on,62,39,79
2,note_on,64,0,1
2,note_on,62,0,59
2,note_on,61,46,20
2,note_on,64,39,80
2,note_on,61,0,1
2,note_on,64,0,79
2,note_on,62,40,0
2,note_on,62,0,60
2,note_on,59,47,20
2,note_on,59,0,81
2,note_on,64,42,0
2,note_on,62,42,79
2,note_on,64,0,1
2,note_on,62,0,59
2,note_on,55,0,20
2,note_on,55,40,0
2,note_on,59,48,0
2,note_on,63,43,80
2,note_on,59,0,1
2,note_on,63,0,79
2,note_on,62,43,0
2,note_on,62,0,60
2,note_on,55,0,20
2,note_on,54,41,0
2,note_on,57,50,0
2,note_on,64,43,80
2,note_on,57,0,1
2,note_on,64,0,79
2,note_on,62,43,0
2,note_on,62,0,60
2,note_on,54,0,20
2,note_on,55,42,0
2,note_on,59,51,0
2,note_on,64,45,80
2,note_on,59,0,1
2,note_on,64,0,79
2,note_on,62,46,0
2,note_on,62,0,60
2,note_on,55,0,20
2,note_on,57,47,0
2,note_on,60,57,0
2,note_on,64,50,80
2,note_on,60,0,1
2,note_on,64,0,79
2,note_on,62,51,0
2,note_on,62,0,60
2,note_on,57,0,20
2,note_on,57,47,0
2,note_on,60,57,0
2,note_on,64,48,80
2,note_on,60,0,1
2,note_on,64,0,79
2,note_on,62,48,0
2,note_on,62,0,60
2,note_on,57,0,20
2,note_on,55,46,0
2,note_on,59,55,0
2,note_on,64,46,80
2,note_on,59,0,1
2,note_on,64,0,79
2,note_on,62,47,0
2,note_on,62,0,60
2,note_on,55,0,20
2,note_on,54,46,0
2,note_on,58,55,0
2,note_on,58,0,80
2,note_on,64,50,0
2,note_on,64,0,80
2,note_on,62,38,0
2,note_on,62,0,60
2,note_on,54,0,20
2,note_on,54,45,0
2,note_on,58,55,0
2,note_on,58,0,80
2,note_on,64,50,0
2,note_on,64,0,80
2,note_on,62,51,0
2,note_on,62,0,60
2,note_on,54,0,20
2,note_on,55,50,0
2,note_on,59,60,0
2,note_on,64,54,80
2,note_on,59,0,1
2,note_on,64,0,79
2,note_on,62,55,0
2,note_on,62,0,60
2,note_on,55,0,20
2,note_on,56,57,0
2,note_on,59,69,0
2,note_on,64,61,80
2,note_on,59,0,1
2,note_on,64,0,79
2,note_on,62,63,0
2,note_on,62,0,60
2,note_on,56,0,20
2,note_on,56,59,0
2,note_on,59,70,0
2,note_on,59,0,80
2,note_on,64,60,0
2,note_on,64,0,80
2,note_on,62,61,0
2,note_on,62,0,60
2,note_on,56,0,20
2,note_on,56,54,0
2,note_on,59,60,0
2,note_on,65,54,80
2,note_on,59,0,1
2,note_on,65,0,79
2,note_on,62,55,0
2,note_on,62,0,60
2,note_on,56,0,20
2,note_on,56,53,0
2,note_on,59,63,0
2,note_on,65,57,80
2,note_on,59,0,1
2,note_on,65,0,79
2,note_on,62,57,0
2,note_on,62,0,60
2,note_on,56,0,20
2,note_on,57,55,0
2,note_on,62,67,0
2,note_on,62,0,80
2,note_on,66,58,0
2,note_on,66,0,80
2,note_on,64,59,0
2,note_on,64,0,60
2,note_on,57,0,20
2,note_on,58,58,0
2,note_on,62,70,0
2,note_on,66,62,80
2,note_on,62,0,1
2,note_on,66,0,79
2,note_on,64,64,0
2,note_on,64,0,60
2,note_on,58,0,20
2,note_on,59,66,0
2,note_on,62,79,0
2,note_on,66,71,80
2,note_on,62,0,1
2,note_on,66,0,79
2,note_on,64,72,0
2,note_on,64,0,60
2,note_on,59,0,20
2,note_on,59,68,0
2,note_on,62,81,0
2,note_on,62,0,80
2,note_on,66,69,0
2,note_on,66,0,80
2,note_on,64,70,0
2,note_on,64,0,60
2,note_on,59,0,20
2,note_on,59,62,0
2,note_on,62,69,0
2,note_on,66,63,80
2,note_on,62,0,1
2,note_on,66,0,79
2,note_on,64,63,0
2,note_on,64,0,60
2,note_on,59,0,20
2,note_on,59,61,0
2,note_on,62,72,0
2,note_on,65,65,80
2,note_on,62,0,1
2,note_on,65,0,79
2,note_on,66,66,0
2,note_on,66,0,60
2,note_on,59,0,20
2,note_on,59,63,0
2,note_on,62,76,0
2,note_on,62,0,80
2,note_on,67,66,0
2,note_on,67,0,80
2,note_on,66,67,0
2,note_on,66,0,60
2,note_on,59,0,20
2,note_on,60,66,0
2,note_on,63,79,0
2,note_on,63,0,80
2,note_on,68,71,0
2,note_on,68,0,80
2,note_on,66,73,0
2,note_on,66,0,60
2,note_on,60,0,20
2,note_on,60,71,0
2,note_on,63,84,0
2,note_on,63,0,80
2,note_on,69,72,0
2,note_on,69,0,80
2,note_on,66,72,0
2,note_on,66,0,60
2,note_on,60,0,20
2,note_on,48,73,0
2,note_on,51,86,0
2,note_on,51,0,80
2,note_on,57,74,0
2,note_on,57,0,80
2,note_on,54,74,0
2,note_on,54,0,60
2,note_on,48,0,20
2,note_on,60,69,0
2,note_on,63,82,0
2,note_on,63,0,80
2,note_on,69,73,0
2,note_on,69,0,80
2,note_on,66,73,0
2,note_on,66,0,60
2,note_on,60,0,20
2,note_on,48,71,0
2,note_on,51,84,0
2,note_on,51,0,80
2,note_on,57,76,0
2,note_on,57,0,80
2,note_on,54,76,0
2,note_on,54,0,60
2,note_on,48,0,20
2,note_on,60,81,0
2,note_on,60,0,36
2,note_on,69,74,24
2,note_on,69,0,60
2,note_on,66,74,0
2,note_on,63,62,0
2,note_on,63,0,60
2,note_on,66,0,0
2,note_on,69,74,0
2,note_on,69,0,60
2,note_on,48,81,0
2,note_on,48,0,36
2,note_on,57,75,24
2,note_on,57,0,60
2,note_on,51,63,0
2,note_on,54,75,0
2,note_on,54,0,60
2,note_on,51,0,0
2,note_on,57,75,0
2,note_on,57,0,60
2,note_on,60,81,0
2,note_on,60,0,36
2,note_on,69,74,24
2,note_on,69,0,60
2,note_on,66,74,0
2,note_on,63,62,0
2,note_on,63,0,60
2,note_on,66,0,0
2,note_on,69,74,0
2,note_on,69,0,60
2,note_on,48,81,0
2,note_on,48,0,24
2,note_on,57,73,16
2,note_on,57,0,40
2,note_on,51,73,0
2,note_on,54,73,1
2,note_on,51,0,39
2,note_on,54,0,1
2,note_on,57,73,0
2,note_on,51,62,39
2,note_on,54,73,0
2,note_on,57,0,1
2,note_on,54,0,39
2,note_on,51,0,0
2,note_on,57,73,0
2,note_on,57,0,40
2,note_on,60,81,0
2,note_on,60,0,24
2,note_on,69,73,16
2,note_on,69,0,40
2,note_on,63,73,0
2,note_on,66,73,1
2,note_on,63,0,39
2,note_on,66,0,1
2,note_on,69,73,0
2,note_on,63,62,39
2,note_on,66,73,0
2,note_on,69,0,1
2,note_on,66,0,39
2,note_on,63,0,0
2,note_on,69,73,0
2,note_on,69,0,40
2,note_on,48,81,0
2,note_on,48,0,24
2,note_on,57,74,16
2,note_on,57,0,40
2,note_on,51,74,0
2,note_on,54,74,1
2,note_on,51,0,39
2,note_on,54,0,1
2,note_on,57,74,0
2,note_on,51,62,39
2,note_on,54,74,0
2,note_on,57,0,1
2,note_on,54,0,39
2,note_on,51,0,0
2,note_on,57,74,0
2,note_on,57,0,40
2,note_on,61,38,0
2,note_on,61,0,480
2,note_on,57,33,0
2,note_on,57,0,238
2,note_on,57,35,2
2,note_on,57,0,240
2,note_on,54,31,0
2,note_on,54,0,240
2,note_on,49,26,0
2,note_on,56,31,0
2,note_on,56,0,240
2,note_on,49,0,0
2,note_on,42,28,0
2,note_on,54,34,0
2,note_on,54,0,480
2,note_on,42,0,0
2,note_on,42,35,0
2,note_on,54,41,0
2,note_on,54,0,240
2,note_on,42,0,0
2,note_on,35,36,0
2,note_on,47,43,0
2,note_on,47,0,480
2,note_on,35,0,0
2,note_on,35,41,0
2,note_on,47,49,0
2,note_on,47,0,240
2,note_on,35,0,0
2,note_on,32,47,0
2,note_on,44,58,0
2,note_on,44,0,480
2,note_on,32,0,0
2,note_on,33,40,0
2,note_on,45,47,0
2,note_on,45,0,238
2,note_on,33,0,0
2,note_on,33,46,2
2,note_on,45,57,0
2,note_on,45,0,240
2,note_on,33,0,0
2,note_on,35,43,0
2,note_on,47,51,0
2,note_on,47,0,240
2,note_on,35,0,0
2,note_on,48,51,0
2,note_on,36,42,0
2,note_on,36,0,240
2,note_on,48,0,0
2,note_on,36,34,0
2,note_on,48,42,0
2,note_on,48,0,240
2,note_on,36,0,0
2,note_on,37,38,0
2,note_on,49,45,0
2,note_on,49,0,360
2,note_on,37,0,0
2,note_on,36,34,0
2,note_on,48,40,0
2,note_on,48,0,120
2,note_on,36,0,0
2,note_on,37,39,0
2,note_on,49,48,0
2,note_on,49,0,240
2,note_on,37,0,0
2,note_on,37,38,0
2,note_on,49,45,0
2,note_on,49,0,240
2,note_on,37,0,0
2,note_on,50,48,0
2,note_on,38,40,0
2,note_on,38,0,240
2,note_on,50,0,0
2,note_on,43,43,0
2,note_on,31,32,0
2,note_on,38,32,0
2,note_on,38,0,720
2,note_on,31,0,0
2,note_on,43,0,0
2,note_on,43,30,0
2,note_on,35,30,0
2,note_on,50,36,0
2,note_on,50,0,720
2,note_on,35,0,0
2,note_on,43,0,0
2,note_on,36,33,0
2,note_on,52,39,0
2,note_on,43,33,0
2,note_on,43,0,720
2,note_on,52,0,0
2,note_on,36,0,0
2,note_on,35,29,0
2,note_on,43,29,0
2,note_on,50,35,0
2,note_on,50,0,240
2,note_on,43,0,0
2,note_on,35,0,0
2,note_on,43,46,0
2,note_on,38,32,240
2,note_on,43,0,120
2,note_on,42,38,0
2,note_on,42,0,119
2,note_on,38,0,1
2,note_on,38,29,0
2,note_on,42,35,0
2,note_on,42,0,240
2,note_on,38,0,0
2,note_on,37,29,0
2,note_on,45,31,0
2,note_on,45,0,240
2,note_on,37,0,0
2,note_on,37,26,0
2,note_on,49,31,0
2,note_on,49,0,238
2,note_on,37,0,0
2,note_on,37,29,2
2,note_on,49,35,0
2,note_on,49,0,480
2,note_on,37,0,0
2,note_on,42,27,0
2,note_on,49,32,0
2,note_on,49,0,238
2,note_on,42,0,0
2,note_on,42,29,2
2,note_on,49,35,0
2,note_on,42,0,240
2,note_on,35,27,0
2,note_on,50,32,0
2,note_on,49,0,9
2,note_on,50,0,231
2,note_on,43,32,0
2,note_on,43,0,240
2,note_on,47,35,0
2,note_on,47,0,240
2,note_on,35,0,0
2,note_on,37,35,0
2,note_on,37,0,240
2,note_on,37,33,0
2,note_on,41,33,0
2,note_on,41,0,120
2,note_on,42,30,0
2,note_on,42,0,120
2,note_on,37,0,0
2,note_on,37,29,0
2,note_on,42,35,0
2,note_on,42,0,240
2,note_on,37,0,0
2,note_on,30,23,0
2,note_on,42,28,0
2,note_on,42,0,240
2,note_on,30,0,0
2,note_on,34,23,0
2,note_on,46,28,0
2,note_on,46,0,240
2,note_on,34,0,0
2,note_on,37,29,0
2,note_on,49,35,0
2,note_on,49,0,240
2,note_on,37,0,0
2,note_on,30,23,0
2,note_on,42,28,0
2,note_on,42,0,240
2,note_on,30,0,0
2,note_on,34,23,0
2,note_on,46,28,0
2,note_on,46,0,240
2,note_on,34,0,0
2,note_on,35,26,0
2,note_on,47,31,0
2,note_on,47,0,240
2,note_on,35,0,0
2,note_on,30,22,0
2,note_on,42,27,0
2,note_on,42,0,240
2,note_on,30,0,0
2,note_on,35,22,0
2,note_on,47,27,0
2,note_on,47,0,240
2,note_on,35,0,0
2,note_on,38,26,0
2,note_on,50,31,0
2,note_on,50,0,240
2,note_on,38,0,0
2,note_on,30,21,0
2,note_on,42,25,0
2,note_on,42,0,240
2,note_on,30,0,0
2,note_on,35,21,0
2,note_on,47,25,0
2,note_on,47,0,240
2,note_on,35,0,0
2,note_on,37,24,0
2,note_on,49,29,0
2,note_on,49,0,240
2,note_on,37,0,0
2,note_on,30,19,0
2,note_on,42,23,0
2,note_on,42,0,240
2,note_on,30,0,0
2,note_on,34,20,0
2,note_on,46,24,0
2,note_on,46,0,240
2,note_on,34,0,0
2,note_on,37,26,0
2,note_on,49,32,0
2,note_on,49,0,240
2,note_on,37,0,0
2,note_on,30,22,0
2,note_on,42,26,0
2,note_on,42,0,240
2,note_on,30,0,0
2,note_on,34,22,0
2,note_on,46,27,0
2,note_on,46,0,240
2,note_on,34,0,0
2,note_on,35,30,0
2,note_on,47,36,0
2,note_on,47,0,240
2,note_on,35,0,0
2,note_on,30,24,0
2,note_on,42,29,0
2,note_on,42,0,240
2,note_on,30,0,0
2,note_on,35,22,0
2,note_on,47,27,0
2,note_on,47,0,240
2,note_on,35,0,0
2,note_on,38,29,0
2,note_on,50,35,0
2,note_on,50,0,80
2,note_on,38,0,0
2,note_on,30,33,0
2,note_on,30,0,80
2,note_on,35,35,0
2,note_on,35,0,80
2,note_on,38,42,0
2,note_on,38,0,80
2,note_on,42,40,0
2,note_on,42,0,80
2,note_on,47,38,0
2,note_on,47,0,80
2,note_on,50,35,0
2,note_on,50,0,80
2,note_on,42,33,0
2,note_on,42,0,80
2,note_on,50,31,0
2,note_on,50,0,80
2,note_on,42,27,0
2,note_on,42,0,80
2,note_on,49,20,0
2,note_on,49,0,80
2,note_on,42,20,0
2,note_on,42,0,80
2,note_on,54,27,0
2,note_on,54,0,80
2,note_on,49,22,0
2,note_on,49,0,80
2,note_on,54,22,0
2,note_on,54,0,80
2,note_on,42,27,0
2,note_on,42,0,80
2,note_on,49,23,0
2,note_on,49,0,80
2,note_on,42,23,0
2,note_on,42,0,80
2,note_on,54,27,0
2,note_on,54,0,80
2,note_on,49,23,0
2,note_on,49,0,80
2,note_on,54,23,0
2,note_on,54,0,80
2,note_on,49,27,0
2,note_on,49,0,80
2,note_on,42,21,0
2,note_on,42,0,80
2,note_on,49,21,0
2,note_on,49,0,80
2,note_on,54,27,0
2,note_on,54,0,80
2,note_on,49,22,0
2,note_on,49,0,80
2,note_on,54,22,0
2,note_on,54,0,80
2,note_on,37,27,0
2,note_on,37,0,80
2,note_on,42,23,0
2,note_on,42,0,80
2,note_on,37,23,0
2,note_on,37,0,80
2,note_on,49,27,0
2,note_on,49,0,80
2,note_on,42,23,0
2,note_on,42,0,80
2,note_on,49,23,0
2,note_on,49,0,80
2,note_on,37,26,0
2,note_on,37,0,80
2,note_on,42,22,0
2,note_on,42,0,80
2,note_on,37,22,0
2,note_on,37,0,80
2,note_on,49,27,0
2,note_on,49,0,80
2,note_on,42,23,0
2,note_on,42,0,80
2,note_on,49,23,0
2,note_on,49,0,80
2,note_on,37,27,0
2,note_on,37,0,80
2,note_on,42,23,0
2,note_on,42,0,80
2,note_on,37,23,0
2,note_on,37,0,80
2,note_on,49,27,0
2,note_on,49,0,80
2,note_on,42,24,0
2,note_on,42,0,80
2,note_on,49,24,0
2,note_on,49,0,80
2,note_on,42,27,0
2,note_on,42,0,80
2,note_on,37,23,0
2,note_on,37,0,80
2,note_on,42,23,0
2,note_on,42,0,80
2,note_on,30,27,0
2,note_on,30,0,80
2,note_on,37,23,0
2,note_on,37,0,80
2,note_on,30,23,0
2,note_on,30,0,80
2,note_on,42,27,0
2,note_on,42,0,80
2,note_on,37,24,0
2,note_on,37,0,80
2,note_on,42,24,0
2,note_on,42,0,80
2,note_on,30,27,0
2,note_on,30,0,80
2,note_on,37,24,0
2,note_on,37,0,80
2,note_on,30,24,0
2,note_on,30,0,80
2,note_on,42,27,0
2,note_on,42,0,80
2,note_on,37,23,0
2,note_on,37,0,80
2,note_on,42,23,0
2,note_on,42,0,80
2,note_on,37,27,0
2,note_on,37,0,80
2,note_on,42,24,0
2,note_on,42,0,80
2,note_on,37,24,0
2,note_on,37,0,80
2,note_on,49,30,0
2,note_on,49,0,240
2,note_on,61,26,0
2,note_on,61,0,240
2,note_on,57,26,0
2,note_on,57,0,238
2,note_on,57,28,2
2,note_on,57,0,240
2,note_on,54,24,0
2,note_on,54,0,240
2,note_on,53,20,0
2,note_on,49,20,0
2,note_on,56,24,0
2,note_on,56,0,240
2,note_on,49,0,0
2,note_on,53,0,0
2,note_on,57,33,0
2,note_on,54,27,0
2,note_on,54,0,240
2,note_on,57,0,0
2,note_on,42,28,0
2,note_on,54,32,0
2,note_on,54,0,720
2,note_on,42,0,0
2,note_on,35,28,0
2,note_on,47,34,0
2,note_on,47,0,240
2,note_on,35,0,0
2,note_on,30,32,0
2,note_on,42,39,0
2,note_on,42,0,240
2,note_on,30,0,0
2,note_on,35,42,0
2,note_on,35,0,240
2,note_on,29,28,0
2,note_on,41,34,0
2,note_on,41,0,475
2,note_on,29,0,0
2,note_on,29,28,5
2,note_on,41,34,0
2,note_on,41,0,475
2,note_on,29,0,0
2,note_on,41,30,5
2,note_on,29,25,0
2,note_on,29,0,120
2,note_on,41,0,0
2,note_on,30,26,0
2,note_on,42,31,0
2,note_on,42,0,117
2,note_on,30,0,0
2,note_on,30,28,3
2,note_on,42,34,0
2,note_on,42,0,720
2,note_on,30,0,0
2,note_on,42,24,0
2,note_on,49,24,0
2,note_on,58,29,0
2,note_on,58,0,1440
2,note_on,49,0,0
2,note_on,42,0,0
2,note_on,30,19,0
2,note_on,37,19,0
2,note_on,46,23,0
2,note_on,46,0,1440
2,note_on,37,0,0
2,note_on,30,0,0
2,note_on,30,19,0
2,note_on,37,19,0
2,note_on,46,23,0
2,note_on,46,0,720
2,note_on,37,0,0
2,note_on,30,0,0
2,note_on,30,16,0
2,note_on,37,18,60
2,note_on,46,20,60
2,note_on,46,0,360
2,note_on,37,0,0
2,note_on,30,0,0
