Track,Message Type,Note,Velocity,Time
1,note_on,89,77,0
1,note_on,86,77,0
1,note_on,80,77,0
1,note_on,92,88,0
1,note_on,92,0,120
1,note_on,89,0,0
1,note_on,86,0,0
1,note_on,80,0,0
1,note_on,58,66,120
1,note_on,58,0,120
1,note_on,57,57,0
1,note_on,57,0,120
1,note_on,58,57,0
1,note_on,58,0,120
1,note_on,62,56,0
1,note_on,62,0,120
1,note_on,65,67,0
1,note_on,65,0,120
1,note_on,62,56,0
1,note_on,62,0,120
1,note_on,65,54,0
1,note_on,65,0,120
1,note_on,68,55,0
1,note_on,68,0,120
1,note_on,65,55,0
1,note_on,65,0,120
1,note_on,62,55,0
1,note_on,62,0,120
1,note_on,68,65,0
1,note_on,68,0,120
1,note_on,65,56,0
1,note_on,65,0,120
1,note_on,68,57,0
1,note_on,68,0,120
1,note_on,70,56,0
1,note_on,70,0,120
1,note_on,68,55,0
1,note_on,68,0,120
1,note_on,65,55,0
1,note_on,65,0,120
1,note_on,70,67,0
1,note_on,70,0,120
1,note_on,68,55,0
1,note_on,68,0,120
1,note_on,70,55,0
1,note_on,70,0,120
1,note_on,74,55,0
1,note_on,74,0,120
1,note_on,70,55,0
1,note_on,70,0,120
1,note_on,68,55,0
1,note_on,68,0,120
1,note_on,77,64,0
1,note_on,77,0,120
1,note_on,74,54,0
1,note_on,74,0,120
1,note_on,77,55,0
1,note_on,77,0,120
1,note_on,80,55,0
1,note_on,80,0,120
1,note_on,77,54,0
1,note_on,77,0,120
1,note_on,74,54,0
1,note_on,74,0,120
1,note_on,80,65,0
1,note_on,80,0,120
1,note_on,77,54,0
1,note_on,77,0,120
1,note_on,80,54,0
1,note_on,80,0,120
1,note_on,82,54,0
1,note_on,82,0,120
1,note_on,80,53,0
1,note_on,80,0,120
1,note_on,77,53,0
1,note_on,77,0,120
1,note_on,82,62,0
1,note_on,82,0,120
1,note_on,80,53,0
1,note_on,80,0,120
1,note_on,82,54,0
1,note_on,82,0,120
1,note_on,86,54,0
1,note_on,86,0,120
1,note_on,82,53,0
1,note_on,82,0,120
1,note_on,80,53,0
1,note_on,80,0,120
1,note_on,86,64,0
1,note_on,86,0,120
1,note_on,82,53,0
1,note_on,82,0,120
1,note_on,86,52,0
1,note_on,86,0,120
1,note_on,89,52,0
1,note_on,89,0,120
1,note_on,86,52,0
1,note_on,86,0,120
1,note_on,82,52,0
1,note_on,82,0,120
1,note_on,89,57,0
1,note_on,89,0,120
1,note_on,86,49,0
1,note_on,86,0,120
1,note_on,89,50,0
1,note_on,89,0,120
1,note_on,92,49,0
1,note_on,92,0,120
1,note_on,89,48,0
1,note_on,89,0,120
1,note_on,86,48,0
1,note_on,86,0,120
1,note_on,82,58,0
1,note_on,82,0,120
1,note_on,81,48,0
1,note_on,81,0,120
1,note_on,82,47,0
1,note_on,82,0,120
1,note_on,86,47,0
1,note_on,86,0,120
1,note_on,89,47,0
1,note_on,89,0,120
1,note_on,86,47,0
1,note_on,86,0,120
1,note_on,89,54,0
1,note_on,89,0,120
1,note_on,86,46,0
1,note_on,86,0,120
1,note_on,89,47,0
1,note_on,89,0,120
1,note_on,92,47,0
1,note_on,92,0,120
1,note_on,89,46,0
1,note_on,89,0,120
1,note_on,86,45,0
1,note_on,86,0,120
1,note_on,82,55,0
1,note_on,82,0,120
1,note_on,81,45,0
1,note_on,81,0,120
1,note_on,82,45,0
1,note_on,82,0,120
1,note_on,86,45,0
1,note_on,86,0,120
1,note_on,89,44,0
1,note_on,89,0,120
1,note_on,86,44,0
1,note_on,86,0,120
1,note_on,77,51,0
1,note_on,77,0,120
1,note_on,74,44,0
1,note_on,74,0,120
1,note_on,77,45,0
1,note_on,77,0,120
1,note_on,80,44,0
1,note_on,80,0,120
1,note_on,77,43,0
1,note_on,77,0,120
1,note_on,74,43,0
1,note_on,74,0,120
1,note_on,70,52,0
1,note_on,70,0,120
1,note_on,69,43,0
1,note_on,69,0,120
1,note_on,70,42,0
1,note_on,70,0,120
1,note_on,74,42,0
1,note_on,74,0,120
1,note_on,77,42,0
1,note_on,77,0,120
1,note_on,74,42,0
1,note_on,74,0,120
1,note_on,77,48,0
1,note_on,77,0,120
1,note_on,74,41,0
1,note_on,74,0,120
1,note_on,77,42,0
1,note_on,77,0,120
1,note_on,80,41,0
1,note_on,80,0,120
1,note_on,77,41,0
1,note_on,77,0,120
1,note_on,74,40,0
1,note_on,74,0,120
1,note_on,70,49,0
1,note_on,70,0,120
1,note_on,69,40,0
1,note_on,69,0,120
1,note_on,70,40,0
1,note_on,70,0,120
1,note_on,74,40,0
1,note_on,74,0,120
1,note_on,77,39,0
1,note_on,77,0,120
1,note_on,74,39,0
1,note_on,74,0,120
1,note_on,80,88,0
1,note_on,74,77,0
1,note_on,77,77,0
1,note_on,68,77,0
1,note_on,68,0,120
1,note_on,80,0,0
1,note_on,74,0,0
1,note_on,77,0,0
1,note_on,58,66,120
1,note_on,58,0,120
1,note_on,57,57,0
1,note_on,57,0,120
1,note_on,58,56,0
1,note_on,58,0,120
1,note_on,57,54,0
1,note_on,57,0,120
1,note_on,60,64,0
1,note_on,60,0,120
1,note_on,58,53,0
1,note_on,58,0,120
1,note_on,63,51,0
1,note_on,63,0,120
1,note_on,62,51,0
1,note_on,62,0,120
1,note_on,67,51,0
1,note_on,67,0,120
1,note_on,65,50,0
1,note_on,65,0,120
1,note_on,70,60,0
1,note_on,70,0,120
1,note_on,69,51,0
1,note_on,69,0,120
1,note_on,72,59,0
1,note_on,72,0,120
1,note_on,70,50,0
1,note_on,70,0,120
1,note_on,75,50,0
1,note_on,75,0,120
1,note_on,74,48,0
1,note_on,74,0,120
1,note_on,79,57,0
1,note_on,79,0,120
1,note_on,77,47,0
1,note_on,77,0,120
1,note_on,82,45,0
1,note_on,82,0,120
1,note_on,81,45,0
1,note_on,81,0,120
1,note_on,84,45,0
1,note_on,84,0,120
1,note_on,82,44,0
1,note_on,82,0,120
1,note_on,82,45,0
1,note_on,82,0,240
1,note_on,79,45,0
1,note_on,79,0,240
1,note_on,75,39,0
1,note_on,75,0,240
1,note_on,74,45,0
1,note_on,74,0,240
1,note_on,77,40,0
1,note_on,77,0,240
1,note_on,82,40,0
1,note_on,82,0,180
1,note_on,82,45,60
1,note_on,82,0,240
1,note_on,79,41,0
1,note_on,79,0,240
1,note_on,75,41,0
1,note_on,75,0,180
1,note_on,75,45,60
1,note_on,75,0,240
1,note_on,79,39,0
1,note_on,79,0,240
1,note_on,84,51,0
1,note_on,84,0,180
1,note_on,84,57,60
1,note_on,84,0,240
1,note_on,80,45,0
1,note_on,80,0,240
1,note_on,77,45,0
1,note_on,77,0,240
1,note_on,76,49,0
1,note_on,76,0,240
1,note_on,79,44,0
1,note_on,79,0,240
1,note_on,84,51,0
1,note_on,84,0,180
1,note_on,84,60,60
1,note_on,84,0,240
1,note_on,80,45,0
1,note_on,80,0,240
1,note_on,77,45,0
1,note_on,77,0,240
1,note_on,74,51,0
1,note_on,74,0,240
1,note_on,77,45,0
1,note_on,77,0,240
1,note_on,82,45,0
1,note_on,82,0,180
1,note_on,82,50,60
1,note_on,82,0,240
1,note_on,79,43,0
1,note_on,79,0,240
1,note_on,75,43,0
1,note_on,75,0,240
1,note_on,72,45,0
1,note_on,72,0,240
1,note_on,77,41,0
1,note_on,77,0,240
1,note_on,80,41,0
1,note_on,80,0,180
1,note_on,70,47,60
1,note_on,70,0,240
1,note_on,75,43,0
1,note_on,75,0,240
1,note_on,79,43,0
1,note_on,79,0,180
1,note_on,68,48,60
1,note_on,68,0,240
1,note_on,74,43,0
1,note_on,74,0,240
1,note_on,77,43,0
1,note_on,68,43,0
1,note_on,68,0,180
1,note_on,77,0,0
1,note_on,75,49,60
1,note_on,67,49,0
1,note_on,67,0,240
1,note_on,75,0,0
1,note_on,79,49,240
1,note_on,79,0,240
1,note_on,80,49,0
1,note_on,80,0,120
1,note_on,79,45,0
1,note_on,79,0,120
1,note_on,80,49,0
1,note_on,80,0,120
1,note_on,77,44,0
1,note_on,77,0,120
1,note_on,82,49,0
1,note_on,82,0,120
1,note_on,80,44,0
1,note_on,80,0,120
1,note_on,79,67,0
1,note_on,79,0,240
1,note_on,94,62,0
1,note_on,94,0,240
1,note_on,67,49,720
1,note_on,67,0,180
1,note_on,68,49,540
1,note_on,68,0,240
1,note_on,70,51,0
1,note_on,70,0,120
1,note_on,68,41,0
1,note_on,68,0,120
1,note_on,70,49,0
1,note_on,70,0,120
1,note_on,67,42,0
1,note_on,67,0,120
1,note_on,72,49,0
1,note_on,72,0,120
1,note_on,70,47,0
1,note_on,70,0,120
1,note_on,68,69,0
1,note_on,68,0,240
1,note_on,84,61,0
1,note_on,84,0,240
1,note_on,77,55,720
1,note_on,77,0,180
1,note_on,79,53,540
1,note_on,79,0,240
1,note_on,80,53,0
1,note_on,80,0,120
1,note_on,79,49,0
1,note_on,79,0,120
1,note_on,80,55,0
1,note_on,80,0,120
1,note_on,77,49,0
1,note_on,77,0,120
1,note_on,92,74,0
1,note_on,92,0,180
1,note_on,75,49,540
1,note_on,75,0,180
1,note_on,77,57,60
1,note_on,77,0,120
1,note_on,75,49,0
1,note_on,75,0,120
1,note_on,77,56,0
1,note_on,77,0,120
1,note_on,74,49,0
1,note_on,74,0,120
1,note_on,89,72,0
1,note_on,89,0,180
1,note_on,67,81,60
1,note_on,67,0,120
1,note_on,79,60,0
1,note_on,79,0,120
1,note_on,67,69,0
1,note_on,67,0,120
1,note_on,79,59,0
1,note_on,79,0,120
1,note_on,70,67,0
1,note_on,70,0,120
1,note_on,82,59,0
1,note_on,82,0,120
1,note_on,70,77,0
1,note_on,70,0,120
1,note_on,82,57,0
1,note_on,82,0,120
1,note_on,70,63,0
1,note_on,70,0,120
1,note_on,82,56,0
1,note_on,82,0,120
1,note_on,68,63,0
1,note_on,68,0,120
1,note_on,80,56,0
1,note_on,80,0,120
1,note_on,67,73,0
1,note_on,67,0,120
1,note_on,79,60,0
1,note_on,79,0,120
1,note_on,67,66,0
1,note_on,67,0,120
1,note_on,79,60,0
1,note_on,79,0,120
1,note_on,70,66,0
1,note_on,70,0,120
1,note_on,82,59,0
1,note_on,82,0,120
1,note_on,70,73,0
1,note_on,70,0,120
1,note_on,82,60,0
1,note_on,82,0,120
1,note_on,70,63,0
1,note_on,70,0,120
1,note_on,82,55,0
1,note_on,82,0,120
1,note_on,67,66,0
1,note_on,67,0,120
1,note_on,79,60,0
1,note_on,79,0,120
1,note_on,68,73,0
1,note_on,68,0,120
1,note_on,80,53,0
1,note_on,80,0,120
1,note_on,68,61,0
1,note_on,68,0,120
1,note_on,80,53,0
1,note_on,80,0,120
1,note_on,72,61,0
1,note_on,72,0,120
1,note_on,84,56,0
1,note_on,84,0,120
1,note_on,72,73,0
1,note_on,72,0,120
1,note_on,84,53,0
1,note_on,84,0,120
1,note_on,72,61,0
1,note_on,72,0,120
1,note_on,84,55,0
1,note_on,84,0,120
1,note_on,70,61,0
1,note_on,70,0,120
1,note_on,82,53,0
1,note_on,82,0,120
1,note_on,68,73,0
1,note_on,68,0,120
1,note_on,80,55,0
1,note_on,80,0,120
1,note_on,68,61,0
1,note_on,68,0,120
1,note_on,80,55,0
1,note_on,80,0,120
1,note_on,72,61,0
1,note_on,72,0,120
1,note_on,84,55,0
1,note_on,84,0,120
1,note_on,72,73,0
1,note_on,72,0,120
1,note_on,84,52,0
1,note_on,84,0,120
1,note_on,70,59,0
1,note_on,70,0,120
1,note_on,82,52,0
1,note_on,82,0,120
1,note_on,68,59,0
1,note_on,68,0,120
1,note_on,80,53,0
1,note_on,80,0,120
1,note_on,67,73,0
1,note_on,67,0,120
1,note_on,79,53,0
1,note_on,79,0,120
1,note_on,70,61,0
1,note_on,70,0,120
1,note_on,82,55,0
1,note_on,82,0,120
1,note_on,75,61,0
1,note_on,75,0,120
1,note_on,87,55,0
1,note_on,87,0,120
1,note_on,75,73,0
1,note_on,75,0,120
1,note_on,87,53,0
1,note_on,87,0,120
1,note_on,72,60,0
1,note_on,72,0,120
1,note_on,84,53,0
1,note_on,84,0,120
1,note_on,68,60,0
1,note_on,68,0,120
1,note_on,80,53,0
1,note_on,80,0,120
1,note_on,75,73,0
1,note_on,75,0,120
1,note_on,87,56,0
1,note_on,87,0,120
1,note_on,70,62,0
1,note_on,70,0,120
1,note_on,82,55,0
1,note_on,82,0,120
1,note_on,67,62,0
1,note_on,67,0,120
1,note_on,79,55,0
1,note_on,79,0,120
1,note_on,70,73,0
1,note_on,70,0,120
1,note_on,82,56,0
1,note_on,82,0,120
1,note_on,68,64,0
1,note_on,68,0,120
1,note_on,80,57,0
1,note_on,80,0,120
1,note_on,65,64,0
1,note_on,65,0,120
1,note_on,77,58,0
1,note_on,77,0,120
1,note_on,55,78,0
1,note_on,55,0,120
1,note_on,63,64,0
1,note_on,63,0,120
1,note_on,58,72,0
1,note_on,58,0,120
1,note_on,67,64,0
1,note_on,67,0,120
1,note_on,63,74,0
1,note_on,63,0,120
1,note_on,70,64,0
1,note_on,70,0,120
1,note_on,67,79,0
1,note_on,67,0,120
1,note_on,75,64,0
1,note_on,75,0,120
1,note_on,70,70,0
1,note_on,70,0,120
1,note_on,79,64,0
1,note_on,79,0,120
1,note_on,75,71,0
1,note_on,75,0,120
1,note_on,82,64,0
1,note_on,82,0,120
1,note_on,79,79,0
1,note_on,79,0,120
1,note_on,87,64,0
1,note_on,87,0,120
1,note_on,82,70,0
1,note_on,82,0,120
1,note_on,91,61,0
1,note_on,91,0,120
1,note_on,87,69,0
1,note_on,87,0,120
1,note_on,94,62,0
1,note_on,94,0,120
1,note_on,93,73,0
1,note_on,93,0,120
1,note_on,94,66,0
1,note_on,94,0,120
1,note_on,93,70,0
1,note_on,93,0,120
1,note_on,94,64,0
1,note_on,94,0,120
1,note_on,93,69,0
1,note_on,93,0,120
1,note_on,94,64,0
1,note_on,94,0,120
1,note_on,96,77,0
1,note_on,96,0,120
1,note_on,94,77,0
1,note_on,94,0,120
1,note_on,92,76,0
1,note_on,92,0,120
1,note_on,91,75,0
1,note_on,91,0,120
1,note_on,89,74,0
1,note_on,89,0,120
1,note_on,87,74,0
1,note_on,87,0,120
1,note_on,86,72,0
1,note_on,86,0,120
1,note_on,84,65,0
1,note_on,84,0,120
1,note_on,82,65,0
1,note_on,82,0,120
1,note_on,80,65,0
1,note_on,80,0,120
1,note_on,79,65,0
1,note_on,79,0,120
1,note_on,77,65,0
1,note_on,77,0,120
1,note_on,75,70,0
1,note_on,75,0,120
1,note_on,74,69,0
1,note_on,74,0,120
1,note_on,72,68,0
1,note_on,72,0,120
1,note_on,70,68,0
1,note_on,70,0,120
1,note_on,68,67,0
1,note_on,68,0,120
1,note_on,67,66,0
1,note_on,67,0,120
1,note_on,65,64,0
1,note_on,65,0,120
1,note_on,63,59,0
1,note_on,63,0,120
1,note_on,62,64,0
1,note_on,62,0,120
1,note_on,65,60,0
1,note_on,65,0,120
1,note_on,68,69,0
1,note_on,68,0,120
1,note_on,62,63,0
1,note_on,62,0,120
1,note_on,55,78,0
1,note_on,55,0,120
1,note_on,63,64,0
1,note_on,63,0,120
1,note_on,58,72,0
1,note_on,58,0,120
1,note_on,67,64,0
1,note_on,67,0,120
1,note_on,63,74,0
1,note_on,63,0,120
1,note_on,70,64,0
1,note_on,70,0,120
1,note_on,67,79,0
1,note_on,67,0,120
1,note_on,75,64,0
1,note_on,75,0,120
1,note_on,70,70,0
1,note_on,70,0,120
1,note_on,79,64,0
1,note_on,79,0,120
1,note_on,75,71,0
1,note_on,75,0,120
1,note_on,82,64,0
1,note_on,82,0,120
1,note_on,79,79,0
1,note_on,79,0,120
1,note_on,87,64,0
1,note_on,87,0,120
1,note_on,82,70,0
1,note_on,82,0,120
1,note_on,91,61,0
1,note_on,91,0,120
1,note_on,87,69,0
1,note_on,87,0,120
1,note_on,94,62,0
1,note_on,94,0,120
1,note_on,93,73,0
1,note_on,93,0,120
1,note_on,94,66,0
1,note_on,94,0,120
1,note_on,93,70,0
1,note_on,93,0,120
1,note_on,94,64,0
1,note_on,94,0,120
1,note_on,93,69,0
1,note_on,93,0,120
1,note_on,94,64,0
1,note_on,94,0,120
1,note_on,96,77,0
1,note_on,96,0,120
1,note_on,94,77,0
1,note_on,94,0,120
1,note_on,92,76,0
1,note_on,92,0,120
1,note_on,91,75,0
1,note_on,91,0,120
1,note_on,89,74,0
1,note_on,89,0,120
1,note_on,87,74,0
1,note_on,87,0,120
1,note_on,86,72,0
1,note_on,86,0,120
1,note_on,84,65,0
1,note_on,84,0,120
1,note_on,82,65,0
1,note_on,82,0,120
1,note_on,80,65,0
1,note_on,80,0,120
1,note_on,79,65,0
1,note_on,79,0,120
1,note_on,77,65,0
1,note_on,77,0,120
1,note_on,75,70,0
1,note_on,75,0,81
1,note_on,74,69,0
1,note_on,72,68,79
1,note_on,74,0,1
1,note_on,72,0,79
1,note_on,70,68,0
1,note_on,70,0,80
1,note_on,68,67,0
1,note_on,68,0,80
1,note_on,67,66,0
1,note_on,67,0,80
1,note_on,65,64,0
1,note_on,65,0,80
1,note_on,63,59,0
1,note_on,63,0,80
1,note_on,62,55,0
1,note_on,62,0,80
1,note_on,60,62,0
1,note_on,60,0,120
1,note_on,58,54,0
1,note_on,58,0,120
1,note_on,57,60,0
1,note_on,57,0,120
1,note_on,60,54,0
1,note_on,60,0,120
1,note_on,63,64,0
1,note_on,63,0,120
1,note_on,57,54,0
1,note_on,57,0,120
1,note_on,58,95,0
1,note_on,58,0,240
1,note_on,70,89,480
1,note_on,70,0,240
1,note_on,73,96,480
1,note_on,73,0,240
1,note_on,78,88,480
1,note_on,78,0,240
1,note_on,73,94,480
1,note_on,73,0,240
1,note_on,70,88,480
1,note_on,70,0,240
1,note_on,66,93,480
1,note_on,66,0,240
1,note_on,61,82,480
1,note_on,61,0,240
1,note_on,57,95,480
1,note_on,57,0,240
1,note_on,69,89,480
1,note_on,69,0,240
1,note_on,72,96,480
1,note_on,72,0,240
1,note_on,77,88,480
1,note_on,77,0,240
1,note_on,72,94,480
1,note_on,72,0,240
1,note_on,69,88,480
1,note_on,69,0,240
1,note_on,65,93,480
1,note_on,65,0,240
1,note_on,60,82,480
1,note_on,60,0,240
1,note_on,73,55,480
1,note_on,73,0,120
1,note_on,84,51,300
1,note_on,84,0,60
1,note_on,82,57,0
1,note_on,82,0,120
1,note_on,81,52,0
1,note_on,81,0,120
1,note_on,82,57,0
1,note_on,82,0,120
1,note_on,87,53,300
1,note_on,87,0,60
1,note_on,85,59,0
1,note_on,85,0,120
1,note_on,84,52,0
1,note_on,84,0,120
1,note_on,85,63,0
1,note_on,85,0,120
1,note_on,92,54,300
1,note_on,92,0,60
1,note_on,90,60,0
1,note_on,90,0,120
1,note_on,89,55,0
1,note_on,89,0,120
1,note_on,90,61,0
1,note_on,90,0,120
1,note_on,87,51,300
1,note_on,87,0,60
1,note_on,85,57,0
1,note_on,85,0,120
1,note_on,84,50,0
1,note_on,84,0,120
1,note_on,85,60,0
1,note_on,85,0,120
1,note_on,84,51,300
1,note_on,84,0,60
1,note_on,82,56,0
1,note_on,82,0,120
1,note_on,81,51,0
1,note_on,81,0,120
1,note_on,82,56,0
1,note_on,82,0,120
1,note_on,80,51,300
1,note_on,80,0,60
1,note_on,78,57,0
1,note_on,78,0,120
1,note_on,77,50,0
1,note_on,77,0,120
1,note_on,78,60,0
1,note_on,78,0,120
1,note_on,75,51,300
1,note_on,75,0,60
1,note_on,73,56,0
1,note_on,73,0,120
1,note_on,72,51,0
1,note_on,72,0,120
1,note_on,73,56,0
1,note_on,73,0,480
1,note_on,72,55,240
1,note_on,72,0,120
1,note_on,82,51,300
1,note_on,82,0,60
1,note_on,81,57,0
1,note_on,81,0,120
1,note_on,79,52,0
1,note_on,79,0,120
1,note_on,81,57,0
1,note_on,81,0,120
1,note_on,86,53,300
1,note_on,86,0,60
1,note_on,84,59,0
1,note_on,84,0,120
1,note_on,83,52,0
1,note_on,83,0,120
1,note_on,84,63,0
1,note_on,84,0,120
1,note_on,90,55,300
1,note_on,90,0,60
1,note_on,89,60,0
1,note_on,89,0,120
1,note_on,88,55,0
1,note_on,88,0,120
1,note_on,89,61,0
1,note_on,89,0,120
1,note_on,85,51,300
1,note_on,85,0,60
1,note_on,84,57,0
1,note_on,84,0,120
1,note_on,83,50,0
1,note_on,83,0,120
1,note_on,84,60,0
1,note_on,84,0,120
1,note_on,82,51,300
1,note_on,82,0,60
1,note_on,81,56,0
1,note_on,81,0,120
1,note_on,79,51,0
1,note_on,79,0,120
1,note_on,81,56,0
1,note_on,81,0,120
1,note_on,78,51,300
1,note_on,78,0,60
1,note_on,77,57,0
1,note_on,77,0,120
1,note_on,76,50,0
1,note_on,76,0,120
1,note_on,77,60,0
1,note_on,77,0,120
1,note_on,73,51,300
1,note_on,73,0,60
1,note_on,72,56,0
1,note_on,72,0,120
1,note_on,71,51,0
1,note_on,71,0,120
1,note_on,72,56,0
1,note_on,72,0,240
1,note_on,73,61,240
1,note_on,73,0,240
1,note_on,74,56,0
1,note_on,65,35,0
1,note_on,65,0,120
1,note_on,67,31,0
1,note_on,67,0,120
1,note_on,65,35,0
1,note_on,65,0,120
1,note_on,67,31,0
1,note_on,67,0,120
1,note_on,65,34,0
1,note_on,65,0,120
1,note_on,67,31,0
1,note_on,67,0,120
1,note_on,74,0,0
1,note_on,65,36,0
1,note_on,70,55,0
1,note_on,65,0,120
1,note_on,67,32,0
1,note_on,67,0,120
1,note_on,65,36,0
1,note_on,65,0,120
1,note_on,67,31,0
1,note_on,67,0,120
1,note_on,65,37,0
1,note_on,65,0,120
1,note_on,67,31,0
1,note_on,67,0,120
1,note_on,70,0,0
1,note_on,65,37,0
1,note_on,69,59,0
1,note_on,65,0,120
1,note_on,67,33,0
1,note_on,67,0,120
1,note_on,65,37,0
1,note_on,65,0,120
1,note_on,67,33,0
1,note_on,67,0,120
1,note_on,65,37,0
1,note_on,65,0,120
1,note_on,67,34,0
1,note_on,67,0,120
1,note_on,69,0,0
1,note_on,65,38,0
1,note_on,75,59,0
1,note_on,65,0,120
1,note_on,67,34,0
1,note_on,67,0,120
1,note_on,65,39,0
1,note_on,65,0,120
1,note_on,67,33,0
1,note_on,67,0,120
1,note_on,65,39,0
1,note_on,65,0,120
1,note_on,67,34,0
1,note_on,67,0,120
1,note_on,75,0,0
1,note_on,65,40,0
1,note_on,74,64,0
1,note_on,65,0,120
1,note_on,67,35,0
1,note_on,67,0,120
1,note_on,65,39,0
1,note_on,65,0,120
1,note_on,67,35,0
1,note_on,67,0,120
1,note_on,65,38,0
1,note_on,65,0,120
1,note_on,67,34,0
1,note_on,67,0,120
1,note_on,74,0,0
1,note_on,65,39,0
1,note_on,70,60,0
1,note_on,65,0,120
1,note_on,67,34,0
1,note_on,67,0,120
1,note_on,65,38,0
1,note_on,65,0,120
1,note_on,67,33,0
1,note_on,67,0,120
1,note_on,65,38,0
1,note_on,65,0,120
1,note_on,67,32,0
1,note_on,67,0,120
1,note_on,70,0,0
1,note_on,65,37,0
1,note_on,69,60,0
1,note_on,65,0,120
1,note_on,67,33,0
1,note_on,67,0,120
1,note_on,65,37,0
1,note_on,65,0,120
1,note_on,67,32,0
1,note_on,67,0,120
1,note_on,65,35,0
1,note_on,65,0,120
1,note_on,67,32,0
1,note_on,67,0,120
1,note_on,69,0,0
1,note_on,65,36,0
1,note_on,75,56,0
1,note_on,65,0,120
1,note_on,67,32,0
1,note_on,67,0,120
1,note_on,65,36,0
1,note_on,65,0,120
1,note_on,67,30,0
1,note_on,67,0,120
1,note_on,65,35,0
1,note_on,65,0,120
1,note_on,67,30,0
1,note_on,67,0,120
1,note_on,75,0,0
1,note_on,74,51,0
1,note_on,74,0,120
1,note_on,77,45,0
1,note_on,77,0,120
1,note_on,79,48,0
1,note_on,79,0,80
1,note_on,81,50,0
1,note_on,81,0,80
1,note_on,82,52,0
1,note_on,82,0,80
1,note_on,84,54,0
1,note_on,84,0,80
1,note_on,86,56,0
1,note_on,86,0,80
1,note_on,87,59,0
1,note_on,87,0,80
1,note_on,89,61,0
1,note_on,89,0,120
1,note_on,87,60,0
1,note_on,87,0,120
1,note_on,86,58,0
1,note_on,86,0,120
1,note_on,84,57,0
1,note_on,84,0,120
1,note_on,82,55,0
1,note_on,82,0,120
1,note_on,81,54,0
1,note_on,81,0,120
1,note_on,79,51,0
1,note_on,79,0,120
1,note_on,81,45,0
1,note_on,81,0,120
1,note_on,82,48,0
1,note_on,82,0,120
1,note_on,84,50,0
1,note_on,84,0,120
1,note_on,86,54,0
1,note_on,86,0,80
1,note_on,87,56,0
1,note_on,87,0,80
1,note_on,89,59,0
1,note_on,89,0,80
1,note_on,91,61,0
1,note_on,91,0,120
1,note_on,89,60,0
1,note_on,89,0,120
1,note_on,87,58,0
1,note_on,87,0,80
1,note_on,86,57,0
1,note_on,86,0,80
1,note_on,84,56,0
1,note_on,84,0,80
1,note_on,82,55,0
1,note_on,82,0,80
1,note_on,81,54,0
1,note_on,81,0,80
1,note_on,79,53,0
1,note_on,79,0,80
1,note_on,77,57,0
1,note_on,77,0,120
1,note_on,86,49,0
1,note_on,86,0,120
1,note_on,82,59,0
1,note_on,82,0,120
1,note_on,89,55,0
1,note_on,89,0,120
1,note_on,86,62,0
1,note_on,86,0,120
1,note_on,94,57,0
1,note_on,94,0,120
1,note_on,89,62,0
1,note_on,89,0,80
1,note_on,98,57,0
1,note_on,98,0,80
1,note_on,94,55,0
1,note_on,94,0,80
1,note_on,101,61,0
1,note_on,101,0,80
1,note_on,98,53,0
1,note_on,98,0,80
1,note_on,94,54,0
1,note_on,94,0,80
1,note_on,89,59,0
1,note_on,89,0,80
1,note_on,86,53,0
1,note_on,86,0,80
1,note_on,82,53,0
1,note_on,82,0,80
1,note_on,77,59,0
1,note_on,77,0,480
1,note_on,84,59,240
1,note_on,84,0,80
1,note_on,86,52,0
1,note_on,86,0,80
1,note_on,84,59,0
1,note_on,84,0,80
1,note_on,86,54,0
1,note_on,86,0,80
1,note_on,84,59,0
1,note_on,84,0,80
1,note_on,86,53,0
1,note_on,86,0,80
1,note_on,84,59,0
1,note_on,84,0,80
1,note_on,86,53,0
1,note_on,86,0,80
1,note_on,84,56,0
1,note_on,84,0,80
1,note_on,86,61,0
1,note_on,77,41,0
1,note_on,77,0,120
1,note_on,79,31,0
1,note_on,79,0,120
1,note_on,77,35,0
1,note_on,77,0,120
1,note_on,79,31,0
1,note_on,79,0,120
1,note_on,77,34,0
1,note_on,77,0,120
1,note_on,79,31,0
1,note_on,79,0,120
1,note_on,86,0,0
1,note_on,77,36,0
1,note_on,82,55,0
1,note_on,77,0,120
1,note_on,79,32,0
1,note_on,79,0,120
1,note_on,77,36,0
1,note_on,77,0,120
1,note_on,79,31,0
1,note_on,79,0,120
1,note_on,77,37,0
1,note_on,77,0,120
1,note_on,79,31,0
1,note_on,79,0,120
1,note_on,82,0,0
1,note_on,77,37,0
1,note_on,81,59,0
1,note_on,77,0,120
1,note_on,79,33,0
1,note_on,79,0,120
1,note_on,77,37,0
1,note_on,77,0,120
1,note_on,79,33,0
1,note_on,79,0,120
1,note_on,77,37,0
1,note_on,77,0,120
1,note_on,79,34,0
1,note_on,79,0,120
1,note_on,81,0,0
1,note_on,77,38,0
1,note_on,87,59,0
1,note_on,77,0,120
1,note_on,79,34,0
1,note_on,79,0,120
1,note_on,77,39,0
1,note_on,77,0,120
1,note_on,79,33,0
1,note_on,79,0,120
1,note_on,77,39,0
1,note_on,77,0,120
1,note_on,79,34,0
1,note_on,79,0,120
1,note_on,87,0,0
1,note_on,77,40,0
1,note_on,86,64,0
1,note_on,77,0,120
1,note_on,79,35,0
1,note_on,79,0,120
1,note_on,77,39,0
1,note_on,77,0,120
1,note_on,79,35,0
1,note_on,79,0,120
1,note_on,77,38,0
1,note_on,77,0,120
1,note_on,79,34,0
1,note_on,79,0,120
1,note_on,86,0,0
1,note_on,82,60,0
1,note_on,77,39,0
1,note_on,77,0,120
1,note_on,79,34,0
1,note_on,79,0,120
1,note_on,77,38,0
1,note_on,77,0,120
1,note_on,79,33,0
1,note_on,79,0,120
1,note_on,77,38,0
1,note_on,77,0,120
1,note_on,79,32,0
1,note_on,79,0,120
1,note_on,82,0,0
1,note_on,77,37,0
1,note_on,81,60,0
1,note_on,77,0,120
1,note_on,79,33,0
1,note_on,79,0,120
1,note_on,77,37,0
1,note_on,77,0,120
1,note_on,79,32,0
1,note_on,79,0,120
1,note_on,77,35,0
1,note_on,77,0,120
1,note_on,79,32,0
1,note_on,79,0,120
1,note_on,81,0,0
1,note_on,87,56,0
1,note_on,77,36,0
1,note_on,77,0,120
1,note_on,79,32,0
1,note_on,79,0,120
1,note_on,77,36,0
1,note_on,77,0,120
1,note_on,79,30,0
1,note_on,79,0,120
1,note_on,77,35,0
1,note_on,77,0,120
1,note_on,79,30,0
1,note_on,79,0,120
1,note_on,87,0,0
1,note_on,86,45,240
1,note_on,82,45,0
1,note_on,82,0,120
1,note_on,86,0,0
1,note_on,86,45,120
1,note_on,82,45,0
1,note_on,82,0,120
1,note_on,86,0,0
1,note_on,86,48,120
1,note_on,82,48,0
1,note_on,82,0,120
1,note_on,86,0,0
1,note_on,86,42,120
1,note_on,82,42,0
1,note_on,82,0,120
1,note_on,86,0,0
1,note_on,86,42,120
1,note_on,82,42,0
1,note_on,82,0,120
1,note_on,86,0,0
1,note_on,84,45,360
1,note_on,82,45,0
1,note_on,82,0,120
1,note_on,84,0,0
1,note_on,82,45,120
1,note_on,84,45,0
1,note_on,84,0,120
1,note_on,82,0,0
1,note_on,82,49,120
1,note_on,84,49,0
1,note_on,84,0,120
1,note_on,82,0,0
1,note_on,84,44,120
1,note_on,82,44,0
1,note_on,82,0,120
1,note_on,84,0,0
1,note_on,84,46,120
1,note_on,82,46,0
1,note_on,82,0,120
1,note_on,84,0,0
1,note_on,86,48,360
1,note_on,82,48,0
1,note_on,82,0,120
1,note_on,86,0,0
1,note_on,86,49,120
1,note_on,82,49,0
1,note_on,82,0,120
1,note_on,86,0,0
1,note_on,86,52,120
1,note_on,82,52,0
1,note_on,82,0,120
1,note_on,86,0,0
1,note_on,86,47,120
1,note_on,82,47,0
1,note_on,82,0,120
1,note_on,86,0,0
1,note_on,89,48,120
1,note_on,82,48,0
1,note_on,86,48,0
1,note_on,86,0,120
1,note_on,82,0,0
1,note_on,89,0,0
1,note_on,87,59,120
1,note_on,81,59,0
1,note_on,89,59,0
1,note_on,89,0,120
1,note_on,81,0,0
1,note_on,87,0,0
1,note_on,89,46,120
1,note_on,81,46,0
1,note_on,87,46,0
1,note_on,87,0,120
1,note_on,81,0,0
1,note_on,89,0,0
1,note_on,87,45,120
1,note_on,89,45,0
1,note_on,81,45,0
1,note_on,81,0,120
1,note_on,89,0,0
1,note_on,87,0,0
1,note_on,89,53,120
1,note_on,81,53,0
1,note_on,87,53,0
1,note_on,87,0,120
1,note_on,81,0,0
1,note_on,89,0,0
1,note_on,87,45,120
1,note_on,89,45,0
1,note_on,81,45,0
1,note_on,81,0,120
1,note_on,89,0,0
1,note_on,87,0,0
1,note_on,89,44,120
1,note_on,81,44,0
1,note_on,87,44,0
1,note_on,87,0,120
1,note_on,81,0,0
1,note_on,89,0,0
1,note_on,80,70,600
1,note_on,92,83,0
1,note_on,92,0,720
1,note_on,80,0,0
1,note_on,79,66,0
1,note_on,91,79,0
1,note_on,91,0,240
1,note_on,79,0,0
1,note_on,78,69,480
1,note_on,90,81,0
1,note_on,90,0,720
1,note_on,78,0,0
1,note_on,77,67,0
1,note_on,89,80,0
1,note_on,89,0,240
1,note_on,77,0,0
1,note_on,68,73,480
1,note_on,80,86,0
1,note_on,80,0,720
1,note_on,68,0,0
1,note_on,67,71,0
1,note_on,79,86,0
1,note_on,79,0,240
1,note_on,67,0,0
1,note_on,66,78,480
1,note_on,78,92,0
1,note_on,78,0,720
1,note_on,66,0,0
1,note_on,65,75,0
1,note_on,77,90,0
1,note_on,77,0,240
1,note_on,65,0,0
1,note_on,70,60,240
1,note_on,77,71,0
1,note_on,65,60,0
1,note_on,65,0,120
1,note_on,77,0,0
1,note_on,70,0,0
1,note_on,65,57,120
1,note_on,77,68,0
1,note_on,70,57,0
1,note_on,70,0,120
1,note_on,77,0,0
1,note_on,65,0,0
1,note_on,70,58,360
1,note_on,75,69,0
1,note_on,67,58,0
1,note_on,67,0,120
1,note_on,75,0,0
1,note_on,70,0,0
1,note_on,74,65,120
1,note_on,67,55,0
1,note_on,70,55,0
1,note_on,70,0,120
1,note_on,67,0,0
1,note_on,74,0,0
1,note_on,63,60,360
1,note_on,74,71,0
1,note_on,67,60,0
1,note_on,67,0,120
1,note_on,74,0,0
1,note_on,63,0,0
1,note_on,72,68,120
1,note_on,67,57,0
1,note_on,63,57,0
1,note_on,63,0,120
1,note_on,67,0,0
1,note_on,72,0,0
1,note_on,70,69,360
1,note_on,63,58,0
1,note_on,60,58,0
1,note_on,60,0,120
1,note_on,63,0,0
1,note_on,70,0,0
1,note_on,69,65,120
1,note_on,63,55,0
1,note_on,60,55,0
1,note_on,60,0,120
1,note_on,63,0,0
1,note_on,69,0,0
1,note_on,70,71,360
1,note_on,65,60,0
1,note_on,58,60,0
1,note_on,58,0,120
1,note_on,65,0,0
1,note_on,70,0,0
1,note_on,65,69,120
1,note_on,62,58,0
1,note_on,58,58,0
1,note_on,58,0,120
1,note_on,62,0,0
1,note_on,65,0,0
1,note_on,55,74,360
1,note_on,63,72,0
1,note_on,58,60,0
1,note_on,58,0,120
1,note_on,63,0,0
1,note_on,55,0,0
1,note_on,62,68,120
1,note_on,58,58,0
1,note_on,55,58,0
1,note_on,55,0,120
1,note_on,58,0,0
1,note_on,62,0,0
1,note_on,62,76,360
1,note_on,55,64,0
1,note_on,51,64,0
1,note_on,51,0,120
1,note_on,55,0,0
1,note_on,62,0,0
1,note_on,60,74,120
1,note_on,55,62,0
1,note_on,51,62,0
1,note_on,51,0,120
1,note_on,55,0,0
1,note_on,60,0,0
1,note_on,48,79,360
1,note_on,51,64,0
1,note_on,58,77,0
1,note_on,58,0,120
1,note_on,51,0,0
1,note_on,48,0,0
1,note_on,51,62,120
1,note_on,57,73,0
1,note_on,48,62,0
1,note_on,48,0,120
1,note_on,57,0,0
1,note_on,51,0,0
1,note_on,46,62,120
1,note_on,46,0,120
1,note_on,48,63,0
1,note_on,48,0,120
1,note_on,50,65,0
1,note_on,50,0,120
1,note_on,51,66,0
1,note_on,51,0,120
1,note_on,53,67,0
1,note_on,53,0,80
1,note_on,55,68,0
1,note_on,55,0,80
1,note_on,57,68,0
1,note_on,57,0,80
1,note_on,58,69,0
1,note_on,58,0,80
1,note_on,60,70,0
1,note_on,60,0,80
1,note_on,62,71,0
1,note_on,62,0,80
1,note_on,63,72,0
1,note_on,63,0,80
1,note_on,65,72,0
1,note_on,65,0,80
1,note_on,67,73,0
1,note_on,67,0,80
1,note_on,69,85,0
1,note_on,69,0,120
1,note_on,57,67,0
1,note_on,57,0,120
1,note_on,58,62,0
1,note_on,58,0,120
1,note_on,60,63,0
1,note_on,60,0,120
1,note_on,62,65,0
1,note_on,62,0,120
1,note_on,63,66,0
1,note_on,63,0,120
1,note_on,65,67,0
1,note_on,65,0,80
1,note_on,67,68,0
1,note_on,67,0,80
1,note_on,69,68,0
1,note_on,69,0,80
1,note_on,70,69,0
1,note_on,70,0,80
1,note_on,72,70,0
1,note_on,72,0,80
1,note_on,74,71,0
1,note_on,74,0,80
1,note_on,75,72,0
1,note_on,75,0,80
1,note_on,77,72,0
1,note_on,77,0,80
1,note_on,79,73,0
1,note_on,79,0,80
1,note_on,81,85,0
1,note_on,81,0,120
1,note_on,69,67,0
1,note_on,69,0,120
1,note_on,70,62,0
1,note_on,70,0,120
1,note_on,72,63,0
1,note_on,72,0,120
1,note_on,74,65,0
1,note_on,74,0,120
1,note_on,75,66,0
1,note_on,75,0,120
1,note_on,77,68,0
1,note_on,77,0,80
1,note_on,79,70,0
1,note_on,79,0,80
1,note_on,81,72,0
1,note_on,81,0,80
1,note_on,82,74,0
1,note_on,82,0,120
1,note_on,84,75,0
1,note_on,84,0,120
1,note_on,86,77,0
1,note_on,86,0,80
1,note_on,87,79,0
1,note_on,87,0,80
1,note_on,89,81,0
1,note_on,89,0,80
1,note_on,91,83,0
1,note_on,91,0,80
1,note_on,93,92,0
1,note_on,93,0,80
1,note_on,81,85,0
1,note_on,81,0,80
1,note_on,94,105,0
1,note_on,82,89,0
1,note_on,82,0,480
1,note_on,94,0,0
1,note_on,77,75,240
1,note_on,74,75,0
1,note_on,82,90,0
1,note_on,82,0,480
1,note_on,74,0,0
1,note_on,77,0,0
1,note_on,62,74,240
1,note_on,70,89,0
1,note_on,65,74,0
1,note_on,65,0,480
1,note_on,70,0,0
1,note_on,62,0,0
1,note_on,82,45,720
1,note_on,82,0,240
1,note_on,82,45,0
1,note_on,82,0,240
1,note_on,79,45,0
1,note_on,79,0,240
1,note_on,75,39,0
1,note_on,75,0,240
1,note_on,74,45,0
1,note_on,74,0,240
1,note_on,77,40,0
1,note_on,77,0,240
1,note_on,82,40,0
1,note_on,82,0,180
1,note_on,82,45,60
1,note_on,82,0,240
1,note_on,79,41,0
1,note_on,79,0,240
1,note_on,75,41,0
1,note_on,75,0,180
1,note_on,75,45,60
1,note_on,75,0,240
1,note_on,79,39,0
1,note_on,79,0,240
1,note_on,84,51,0
1,note_on,84,0,180
1,note_on,84,57,60
1,note_on,84,0,240
1,note_on,80,45,0
1,note_on,80,0,240
1,note_on,77,45,0
1,note_on,77,0,240
1,note_on,76,49,0
1,note_on,76,0,240
1,note_on,79,44,0
1,note_on,79,0,240
1,note_on,84,51,0
1,note_on,84,0,180
1,note_on,84,60,60
1,note_on,84,0,240
1,note_on,80,45,0
1,note_on,80,0,240
1,note_on,77,45,0
1,note_on,77,0,240
1,note_on,74,51,0
1,note_on,74,0,240
1,note_on,77,45,0
1,note_on,77,0,240
1,note_on,82,45,0
1,note_on,82,0,180
1,note_on,82,50,60
1,note_on,82,0,240
1,note_on,79,43,0
1,note_on,79,0,240
1,note_on,75,43,0
1,note_on,75,0,240
1,note_on,72,45,0
1,note_on,72,0,240
1,note_on,77,41,0
1,note_on,77,0,240
1,note_on,80,41,0
1,note_on,80,0,180
1,note_on,70,47,60
1,note_on,70,0,240
1,note_on,75,43,0
1,note_on,75,0,240
1,note_on,79,43,0
1,note_on,79,0,180
1,note_on,68,48,60
1,note_on,68,0,240
1,note_on,74,43,0
1,note_on,74,0,240
1,note_on,77,43,0
1,note_on,68,43,0
1,note_on,68,0,180
1,note_on,77,0,0
1,note_on,75,49,60
1,note_on,67,49,0
1,note_on,67,0,240
1,note_on,75,0,0
1,note_on,79,49,240
1,note_on,79,0,240
1,note_on,80,49,0
1,note_on,80,0,120
1,note_on,79,45,0
1,note_on,79,0,120
1,note_on,80,49,0
1,note_on,80,0,120
1,note_on,77,44,0
1,note_on,77,0,120
1,note_on,82,49,0
1,note_on,82,0,120
1,note_on,80,44,0
1,note_on,80,0,120
1,note_on,79,67,0
1,note_on,79,0,240
1,note_on,94,62,0
1,note_on,94,0,240
1,note_on,67,49,720
1,note_on,67,0,180
1,note_on,68,49,540
1,note_on,68,0,240
1,note_on,70,51,0
1,note_on,70,0,120
1,note_on,68,41,0
1,note_on,68,0,120
1,note_on,70,49,0
1,note_on,70,0,120
1,note_on,67,42,0
1,note_on,67,0,120
1,note_on,72,49,0
1,note_on,72,0,120
1,note_on,70,47,0
1,note_on,70,0,120
1,note_on,68,69,0
1,note_on,68,0,240
1,note_on,84,61,0
1,note_on,84,0,240
1,note_on,77,55,720
1,note_on,77,0,180
1,note_on,79,53,540
1,note_on,79,0,240
1,note_on,80,53,0
1,note_on,80,0,120
1,note_on,79,49,0
1,note_on,79,0,120
1,note_on,80,55,0
1,note_on,80,0,120
1,note_on,77,49,0
1,note_on,77,0,120
1,note_on,92,74,0
1,note_on,92,0,180
1,note_on,75,49,540
1,note_on,75,0,180
1,note_on,77,57,60
1,note_on,77,0,120
1,note_on,75,49,0
1,note_on,75,0,120
1,note_on,77,56,0
1,note_on,77,0,120
1,note_on,74,49,0
1,note_on,74,0,120
1,note_on,89,72,0
1,note_on,89,0,180
1,note_on,67,81,60
1,note_on,67,0,120
1,note_on,79,60,0
1,note_on,79,0,120
1,note_on,67,69,0
1,note_on,67,0,120
1,note_on,79,59,0
1,note_on,79,0,120
1,note_on,70,67,0
1,note_on,70,0,120
1,note_on,82,59,0
1,note_on,82,0,120
1,note_on,70,77,0
1,note_on,70,0,120
1,note_on,82,57,0
1,note_on,82,0,120
1,note_on,70,63,0
1,note_on,70,0,120
1,note_on,82,56,0
1,note_on,82,0,120
1,note_on,68,63,0
1,note_on,68,0,120
1,note_on,80,56,0
1,note_on,80,0,120
1,note_on,67,73,0
1,note_on,67,0,120
1,note_on,79,60,0
1,note_on,79,0,120
1,note_on,67,66,0
1,note_on,67,0,120
1,note_on,79,60,0
1,note_on,79,0,120
1,note_on,70,66,0
1,note_on,70,0,120
1,note_on,82,59,0
1,note_on,82,0,120
1,note_on,70,73,0
1,note_on,70,0,120
1,note_on,82,60,0
1,note_on,82,0,120
1,note_on,70,63,0
1,note_on,70,0,120
1,note_on,82,55,0
1,note_on,82,0,120
1,note_on,67,66,0
1,note_on,67,0,120
1,note_on,79,60,0
1,note_on,79,0,120
1,note_on,68,73,0
1,note_on,68,0,120
1,note_on,80,53,0
1,note_on,80,0,120
1,note_on,68,61,0
1,note_on,68,0,120
1,note_on,80,53,0
1,note_on,80,0,120
1,note_on,72,61,0
1,note_on,72,0,120
1,note_on,84,56,0
1,note_on,84,0,120
1,note_on,72,73,0
1,note_on,72,0,120
1,note_on,84,53,0
1,note_on,84,0,120
1,note_on,72,61,0
1,note_on,72,0,120
1,note_on,84,55,0
1,note_on,84,0,120
1,note_on,70,61,0
1,note_on,70,0,120
1,note_on,82,53,0
1,note_on,82,0,120
1,note_on,68,73,0
1,note_on,68,0,120
1,note_on,80,55,0
1,note_on,80,0,120
1,note_on,68,61,0
1,note_on,68,0,120
1,note_on,80,55,0
1,note_on,80,0,120
1,note_on,72,61,0
1,note_on,72,0,120
1,note_on,84,55,0
1,note_on,84,0,120
1,note_on,72,73,0
1,note_on,72,0,120
1,note_on,84,52,0
1,note_on,84,0,120
1,note_on,70,59,0
1,note_on,70,0,120
1,note_on,82,52,0
1,note_on,82,0,120
1,note_on,68,59,0
1,note_on,68,0,120
1,note_on,80,53,0
1,note_on,80,0,120
1,note_on,67,73,0
1,note_on,67,0,120
1,note_on,79,53,0
1,note_on,79,0,120
1,note_on,70,61,0
1,note_on,70,0,120
1,note_on,82,55,0
1,note_on,82,0,120
1,note_on,75,61,0
1,note_on,75,0,120
1,note_on,87,55,0
1,note_on,87,0,120
1,note_on,75,73,0
1,note_on,75,0,120
1,note_on,87,53,0
1,note_on,87,0,120
1,note_on,72,60,0
1,note_on,72,0,120
1,note_on,84,53,0
1,note_on,84,0,120
1,note_on,68,60,0
1,note_on,68,0,120
1,note_on,80,53,0
1,note_on,80,0,120
1,note_on,75,73,0
1,note_on,75,0,120
1,note_on,87,56,0
1,note_on,87,0,120
1,note_on,70,62,0
1,note_on,70,0,120
1,note_on,82,55,0
1,note_on,82,0,120
1,note_on,67,62,0
1,note_on,67,0,120
1,note_on,79,55,0
1,note_on,79,0,120
1,note_on,70,73,0
1,note_on,70,0,120
1,note_on,82,56,0
1,note_on,82,0,120
1,note_on,68,64,0
1,note_on,68,0,120
1,note_on,80,57,0
1,note_on,80,0,120
1,note_on,65,64,0
1,note_on,65,0,120
1,note_on,77,58,0
1,note_on,77,0,120
1,note_on,55,78,0
1,note_on,55,0,120
1,note_on,63,64,0
1,note_on,63,0,120
1,note_on,58,72,0
1,note_on,58,0,120
1,note_on,67,64,0
1,note_on,67,0,120
1,note_on,63,74,0
1,note_on,63,0,120
1,note_on,70,64,0
1,note_on,70,0,120
1,note_on,67,79,0
1,note_on,67,0,120
1,note_on,75,64,0
1,note_on,75,0,120
1,note_on,70,70,0
1,note_on,70,0,120
1,note_on,79,64,0
1,note_on,79,0,120
1,note_on,75,71,0
1,note_on,75,0,120
1,note_on,82,64,0
1,note_on,82,0,120
1,note_on,79,79,0
1,note_on,79,0,120
1,note_on,87,64,0
1,note_on,87,0,120
1,note_on,82,70,0
1,note_on,82,0,120
1,note_on,91,61,0
1,note_on,91,0,120
1,note_on,87,69,0
1,note_on,87,0,120
1,note_on,94,62,0
1,note_on,94,0,120
1,note_on,93,73,0
1,note_on,93,0,120
1,note_on,94,66,0
1,note_on,94,0,120
1,note_on,93,70,0
1,note_on,93,0,120
1,note_on,94,64,0
1,note_on,94,0,120
1,note_on,93,69,0
1,note_on,93,0,120
1,note_on,94,64,0
1,note_on,94,0,120
1,note_on,96,77,0
1,note_on,96,0,120
1,note_on,94,77,0
1,note_on,94,0,120
1,note_on,92,76,0
1,note_on,92,0,120
1,note_on,91,75,0
1,note_on,91,0,120
1,note_on,89,74,0
1,note_on,89,0,120
1,note_on,87,74,0
1,note_on,87,0,120
1,note_on,86,72,0
1,note_on,86,0,120
1,note_on,84,65,0
1,note_on,84,0,120
1,note_on,82,65,0
1,note_on,82,0,120
1,note_on,80,65,0
1,note_on,80,0,120
1,note_on,79,65,0
1,note_on,79,0,120
1,note_on,77,65,0
1,note_on,77,0,120
1,note_on,75,70,0
1,note_on,75,0,120
1,note_on,74,69,0
1,note_on,74,0,120
1,note_on,72,68,0
1,note_on,72,0,120
1,note_on,70,68,0
1,note_on,70,0,120
1,note_on,68,67,0
1,note_on,68,0,120
1,note_on,67,66,0
1,note_on,67,0,120
1,note_on,65,64,0
1,note_on,65,0,120
1,note_on,63,59,0
1,note_on,63,0,120
1,note_on,62,64,0
1,note_on,62,0,120
1,note_on,65,60,0
1,note_on,65,0,120
1,note_on,68,69,0
1,note_on,68,0,120
1,note_on,62,63,0
1,note_on,62,0,120
1,note_on,55,78,0
1,note_on,55,0,120
1,note_on,63,64,0
1,note_on,63,0,120
1,note_on,58,72,0
1,note_on,58,0,120
1,note_on,67,64,0
1,note_on,67,0,120
1,note_on,63,74,0
1,note_on,63,0,120
1,note_on,70,64,0
1,note_on,70,0,120
1,note_on,67,79,0
1,note_on,67,0,120
1,note_on,75,64,0
1,note_on,75,0,120
1,note_on,70,70,0
1,note_on,70,0,120
1,note_on,79,64,0
1,note_on,79,0,120
1,note_on,75,71,0
1,note_on,75,0,120
1,note_on,82,64,0
1,note_on,82,0,120
1,note_on,79,79,0
1,note_on,79,0,120
1,note_on,87,64,0
1,note_on,87,0,120
1,note_on,82,70,0
1,note_on,82,0,120
1,note_on,91,61,0
1,note_on,91,0,120
1,note_on,87,69,0
1,note_on,87,0,120
1,note_on,94,62,0
1,note_on,94,0,120
1,note_on,93,73,0
1,note_on,93,0,120
1,note_on,94,66,0
1,note_on,94,0,120
1,note_on,93,70,0
1,note_on,93,0,120
1,note_on,94,64,0
1,note_on,94,0,120
1,note_on,93,69,0
1,note_on,93,0,120
1,note_on,94,64,0
1,note_on,94,0,120
1,note_on,96,77,0
1,note_on,96,0,120
1,note_on,94,77,0
1,note_on,94,0,120
1,note_on,92,76,0
1,note_on,92,0,120
1,note_on,91,75,0
1,note_on,91,0,120
1,note_on,89,74,0
1,note_on,89,0,120
1,note_on,87,74,0
1,note_on,87,0,120
1,note_on,86,72,0
1,note_on,86,0,120
1,note_on,84,65,0
1,note_on,84,0,120
1,note_on,82,65,0
1,note_on,82,0,120
1,note_on,80,65,0
1,note_on,80,0,120
1,note_on,79,65,0
1,note_on,79,0,120
1,note_on,77,65,0
1,note_on,77,0,120
1,note_on,75,70,0
1,note_on,75,0,81
1,note_on,74,69,0
1,note_on,72,68,79
1,note_on,74,0,1
1,note_on,72,0,79
1,note_on,70,68,0
1,note_on,70,0,80
1,note_on,68,67,0
1,note_on,68,0,80
1,note_on,67,66,0
1,note_on,67,0,80
1,note_on,65,64,0
1,note_on,65,0,80
1,note_on,63,59,0
1,note_on,63,0,80
1,note_on,62,55,0
1,note_on,62,0,80
1,note_on,60,62,0
1,note_on,60,0,120
1,note_on,58,54,0
1,note_on,58,0,120
1,note_on,57,60,0
1,note_on,57,0,120
1,note_on,60,54,0
1,note_on,60,0,120
1,note_on,63,64,0
1,note_on,63,0,120
1,note_on,57,54,0
1,note_on,57,0,120
1,note_on,58,95,0
1,note_on,58,0,240
1,note_on,70,89,480
1,note_on,70,0,240
1,note_on,73,96,480
1,note_on,73,0,240
1,note_on,78,88,480
1,note_on,78,0,240
1,note_on,73,94,480
1,note_on,73,0,240
1,note_on,70,88,480
1,note_on,70,0,240
1,note_on,66,93,480
1,note_on,66,0,240
1,note_on,61,82,480
1,note_on,61,0,240
1,note_on,57,95,480
1,note_on,57,0,240
1,note_on,69,89,480
1,note_on,69,0,240
1,note_on,72,96,480
1,note_on,72,0,240
1,note_on,77,88,480
1,note_on,77,0,240
1,note_on,72,94,480
1,note_on,72,0,240
1,note_on,69,88,480
1,note_on,69,0,240
1,note_on,65,93,480
1,note_on,65,0,240
1,note_on,60,82,480
1,note_on,60,0,240
1,note_on,73,55,480
1,note_on,73,0,120
1,note_on,84,51,300
1,note_on,84,0,60
1,note_on,82,57,0
1,note_on,82,0,120
1,note_on,81,52,0
1,note_on,81,0,120
1,note_on,82,57,0
1,note_on,82,0,120
1,note_on,87,53,300
1,note_on,87,0,60
1,note_on,85,59,0
1,note_on,85,0,120
1,note_on,84,52,0
1,note_on,84,0,120
1,note_on,85,63,0
1,note_on,85,0,120
1,note_on,92,54,300
1,note_on,92,0,60
1,note_on,90,60,0
1,note_on,90,0,120
1,note_on,89,55,0
1,note_on,89,0,120
1,note_on,90,61,0
1,note_on,90,0,120
1,note_on,87,51,300
1,note_on,87,0,60
1,note_on,85,57,0
1,note_on,85,0,120
1,note_on,84,50,0
1,note_on,84,0,120
1,note_on,85,60,0
1,note_on,85,0,120
1,note_on,84,51,300
1,note_on,84,0,60
1,note_on,82,56,0
1,note_on,82,0,120
1,note_on,81,51,0
1,note_on,81,0,120
1,note_on,82,56,0
1,note_on,82,0,120
1,note_on,80,51,300
1,note_on,80,0,60
1,note_on,78,57,0
1,note_on,78,0,120
1,note_on,77,50,0
1,note_on,77,0,120
1,note_on,78,60,0
1,note_on,78,0,120
1,note_on,75,51,300
1,note_on,75,0,60
1,note_on,73,56,0
1,note_on,73,0,120
1,note_on,72,51,0
1,note_on,72,0,120
1,note_on,73,56,0
1,note_on,73,0,480
1,note_on,72,55,240
1,note_on,72,0,120
1,note_on,82,51,300
1,note_on,82,0,60
1,note_on,81,57,0
1,note_on,81,0,120
1,note_on,79,52,0
1,note_on,79,0,120
1,note_on,81,57,0
1,note_on,81,0,120
1,note_on,86,53,300
1,note_on,86,0,60
1,note_on,84,59,0
1,note_on,84,0,120
1,note_on,83,52,0
1,note_on,83,0,120
1,note_on,84,63,0
1,note_on,84,0,120
1,note_on,90,55,300
1,note_on,90,0,60
1,note_on,89,60,0
1,note_on,89,0,120
1,note_on,88,55,0
1,note_on,88,0,120
1,note_on,89,61,0
1,note_on,89,0,120
1,note_on,85,51,300
1,note_on,85,0,60
1,note_on,84,57,0
1,note_on,84,0,120
1,note_on,83,50,0
1,note_on,83,0,120
1,note_on,84,60,0
1,note_on,84,0,120
1,note_on,82,51,300
1,note_on,82,0,60
1,note_on,81,56,0
1,note_on,81,0,120
1,note_on,79,51,0
1,note_on,79,0,120
1,note_on,81,56,0
1,note_on,81,0,120
1,note_on,78,51,300
1,note_on,78,0,60
1,note_on,77,57,0
1,note_on,77,0,120
1,note_on,76,50,0
1,note_on,76,0,120
1,note_on,77,60,0
1,note_on,77,0,120
1,note_on,73,51,300
1,note_on,73,0,60
1,note_on,72,56,0
1,note_on,72,0,120
1,note_on,71,51,0
1,note_on,71,0,120
1,note_on,72,56,0
1,note_on,72,0,240
1,note_on,73,61,240
1,note_on,73,0,240
1,note_on,74,56,0
1,note_on,65,35,0
1,note_on,65,0,120
1,note_on,67,31,0
1,note_on,67,0,120
1,note_on,65,35,0
1,note_on,65,0,120
1,note_on,67,31,0
1,note_on,67,0,120
1,note_on,65,34,0
1,note_on,65,0,120
1,note_on,67,31,0
1,note_on,67,0,120
1,note_on,74,0,0
1,note_on,65,36,0
1,note_on,70,55,0
1,note_on,65,0,120
1,note_on,67,32,0
1,note_on,67,0,120
1,note_on,65,36,0
1,note_on,65,0,120
1,note_on,67,31,0
1,note_on,67,0,120
1,note_on,65,37,0
1,note_on,65,0,120
1,note_on,67,31,0
1,note_on,67,0,120
1,note_on,70,0,0
1,note_on,65,37,0
1,note_on,69,59,0
1,note_on,65,0,120
1,note_on,67,33,0
1,note_on,67,0,120
1,note_on,65,37,0
1,note_on,65,0,120
1,note_on,67,33,0
1,note_on,67,0,120
1,note_on,65,37,0
1,note_on,65,0,120
1,note_on,67,34,0
1,note_on,67,0,120
1,note_on,69,0,0
1,note_on,65,38,0
1,note_on,75,59,0
1,note_on,65,0,120
1,note_on,67,34,0
1,note_on,67,0,120
1,note_on,65,39,0
1,note_on,65,0,120
1,note_on,67,33,0
1,note_on,67,0,120
1,note_on,65,39,0
1,note_on,65,0,120
1,note_on,67,34,0
1,note_on,67,0,120
1,note_on,75,0,0
1,note_on,65,40,0
1,note_on,74,64,0
1,note_on,65,0,120
1,note_on,67,35,0
1,note_on,67,0,120
1,note_on,65,39,0
1,note_on,65,0,120
1,note_on,67,35,0
1,note_on,67,0,120
1,note_on,65,38,0
1,note_on,65,0,120
1,note_on,67,34,0
1,note_on,67,0,120
1,note_on,74,0,0
1,note_on,65,39,0
1,note_on,70,60,0
1,note_on,65,0,120
1,note_on,67,34,0
1,note_on,67,0,120
1,note_on,65,38,0
1,note_on,65,0,120
1,note_on,67,33,0
1,note_on,67,0,120
1,note_on,65,38,0
1,note_on,65,0,120
1,note_on,67,32,0
1,note_on,67,0,120
1,note_on,70,0,0
1,note_on,65,37,0
1,note_on,69,60,0
1,note_on,65,0,120
1,note_on,67,33,0
1,note_on,67,0,120
1,note_on,65,37,0
1,note_on,65,0,120
1,note_on,67,32,0
1,note_on,67,0,120
1,note_on,65,35,0
1,note_on,65,0,120
1,note_on,67,32,0
1,note_on,67,0,120
1,note_on,69,0,0
1,note_on,65,36,0
1,note_on,75,56,0
1,note_on,65,0,120
1,note_on,67,32,0
1,note_on,67,0,120
1,note_on,65,36,0
1,note_on,65,0,120
1,note_on,67,30,0
1,note_on,67,0,120
1,note_on,65,35,0
1,note_on,65,0,120
1,note_on,67,30,0
1,note_on,67,0,120
1,note_on,75,0,0
1,note_on,74,51,0
1,note_on,74,0,120
1,note_on,77,45,0
1,note_on,77,0,120
1,note_on,79,48,0
1,note_on,79,0,80
1,note_on,81,50,0
1,note_on,81,0,80
1,note_on,82,52,0
1,note_on,82,0,80
1,note_on,84,54,0
1,note_on,84,0,80
1,note_on,86,56,0
1,note_on,86,0,80
1,note_on,87,59,0
1,note_on,87,0,80
1,note_on,89,61,0
1,note_on,89,0,120
1,note_on,87,60,0
1,note_on,87,0,120
1,note_on,86,58,0
1,note_on,86,0,120
1,note_on,84,57,0
1,note_on,84,0,120
1,note_on,82,55,0
1,note_on,82,0,120
1,note_on,81,54,0
1,note_on,81,0,120
1,note_on,79,51,0
1,note_on,79,0,120
1,note_on,81,45,0
1,note_on,81,0,120
1,note_on,82,48,0
1,note_on,82,0,120
1,note_on,84,50,0
1,note_on,84,0,120
1,note_on,86,54,0
1,note_on,86,0,80
1,note_on,87,56,0
1,note_on,87,0,80
1,note_on,89,59,0
1,note_on,89,0,80
1,note_on,91,61,0
1,note_on,91,0,120
1,note_on,89,60,0
1,note_on,89,0,120
1,note_on,87,58,0
1,note_on,87,0,80
1,note_on,86,57,0
1,note_on,86,0,80
1,note_on,84,56,0
1,note_on,84,0,80
1,note_on,82,55,0
1,note_on,82,0,80
1,note_on,81,54,0
1,note_on,81,0,80
1,note_on,79,53,0
1,note_on,79,0,80
1,note_on,77,57,0
1,note_on,77,0,120
1,note_on,86,49,0
1,note_on,86,0,120
1,note_on,82,59,0
1,note_on,82,0,120
1,note_on,89,55,0
1,note_on,89,0,120
1,note_on,86,62,0
1,note_on,86,0,120
1,note_on,94,57,0
1,note_on,94,0,120
1,note_on,89,62,0
1,note_on,89,0,80
1,note_on,98,57,0
1,note_on,98,0,80
1,note_on,94,55,0
1,note_on,94,0,80
1,note_on,101,61,0
1,note_on,101,0,80
1,note_on,98,53,0
1,note_on,98,0,80
1,note_on,94,54,0
1,note_on,94,0,80
1,note_on,89,59,0
1,note_on,89,0,80
1,note_on,86,53,0
1,note_on,86,0,80
1,note_on,82,53,0
1,note_on,82,0,80
1,note_on,77,59,0
1,note_on,77,0,480
1,note_on,84,59,240
1,note_on,84,0,80
1,note_on,86,52,0
1,note_on,86,0,80
1,note_on,84,59,0
1,note_on,84,0,80
1,note_on,86,54,0
1,note_on,86,0,80
1,note_on,84,59,0
1,note_on,84,0,80
1,note_on,86,53,0
1,note_on,86,0,80
1,note_on,84,59,0
1,note_on,84,0,80
1,note_on,86,53,0
1,note_on,86,0,80
1,note_on,84,56,0
1,note_on,84,0,80
1,note_on,86,61,0
1,note_on,77,41,0
1,note_on,77,0,120
1,note_on,79,31,0
1,note_on,79,0,120
1,note_on,77,35,0
1,note_on,77,0,120
1,note_on,79,31,0
1,note_on,79,0,120
1,note_on,77,34,0
1,note_on,77,0,120
1,note_on,79,31,0
1,note_on,79,0,120
1,note_on,86,0,0
1,note_on,77,36,0
1,note_on,82,55,0
1,note_on,77,0,120
1,note_on,79,32,0
1,note_on,79,0,120
1,note_on,77,36,0
1,note_on,77,0,120
1,note_on,79,31,0
1,note_on,79,0,120
1,note_on,77,37,0
1,note_on,77,0,120
1,note_on,79,31,0
1,note_on,79,0,120
1,note_on,82,0,0
1,note_on,77,37,0
1,note_on,81,59,0
1,note_on,77,0,120
1,note_on,79,33,0
1,note_on,79,0,120
1,note_on,77,37,0
1,note_on,77,0,120
1,note_on,79,33,0
1,note_on,79,0,120
1,note_on,77,37,0
1,note_on,77,0,120
1,note_on,79,34,0
1,note_on,79,0,120
1,note_on,81,0,0
1,note_on,77,38,0
1,note_on,87,59,0
1,note_on,77,0,120
1,note_on,79,34,0
1,note_on,79,0,120
1,note_on,77,39,0
1,note_on,77,0,120
1,note_on,79,33,0
1,note_on,79,0,120
1,note_on,77,39,0
1,note_on,77,0,120
1,note_on,79,34,0
1,note_on,79,0,120
1,note_on,87,0,0
1,note_on,77,40,0
1,note_on,86,64,0
1,note_on,77,0,120
1,note_on,79,35,0
1,note_on,79,0,120
1,note_on,77,39,0
1,note_on,77,0,120
1,note_on,79,35,0
1,note_on,79,0,120
1,note_on,77,38,0
1,note_on,77,0,120
1,note_on,79,34,0
1,note_on,79,0,120
1,note_on,86,0,0
1,note_on,82,60,0
1,note_on,77,39,0
1,note_on,77,0,120
1,note_on,79,34,0
1,note_on,79,0,120
1,note_on,77,38,0
1,note_on,77,0,120
1,note_on,79,33,0
1,note_on,79,0,120
1,note_on,77,38,0
1,note_on,77,0,120
1,note_on,79,32,0
1,note_on,79,0,120
1,note_on,82,0,0
1,note_on,77,37,0
1,note_on,81,60,0
1,note_on,77,0,120
1,note_on,79,33,0
1,note_on,79,0,120
1,note_on,77,37,0
1,note_on,77,0,120
1,note_on,79,32,0
1,note_on,79,0,120
1,note_on,77,35,0
1,note_on,77,0,120
1,note_on,79,32,0
1,note_on,79,0,120
1,note_on,81,0,0
1,note_on,87,56,0
1,note_on,77,36,0
1,note_on,77,0,120
1,note_on,79,32,0
1,note_on,79,0,120
1,note_on,77,36,0
1,note_on,77,0,120
1,note_on,79,30,0
1,note_on,79,0,120
1,note_on,77,35,0
1,note_on,77,0,120
1,note_on,79,30,0
1,note_on,79,0,120
1,note_on,87,0,0
1,note_on,86,45,240
1,note_on,82,45,0
1,note_on,82,0,120
1,note_on,86,0,0
1,note_on,86,45,120
1,note_on,82,45,0
1,note_on,82,0,120
1,note_on,86,0,0
1,note_on,86,48,120
1,note_on,82,48,0
1,note_on,82,0,120
1,note_on,86,0,0
1,note_on,86,42,120
1,note_on,82,42,0
1,note_on,82,0,120
1,note_on,86,0,0
1,note_on,86,42,120
1,note_on,82,42,0
1,note_on,82,0,120
1,note_on,86,0,0
1,note_on,84,45,360
1,note_on,82,45,0
1,note_on,82,0,120
1,note_on,84,0,0
1,note_on,82,45,120
1,note_on,84,45,0
1,note_on,84,0,120
1,note_on,82,0,0
1,note_on,82,49,120
1,note_on,84,49,0
1,note_on,84,0,120
1,note_on,82,0,0
1,note_on,84,44,120
1,note_on,82,44,0
1,note_on,82,0,120
1,note_on,84,0,0
1,note_on,84,46,120
1,note_on,82,46,0
1,note_on,82,0,120
1,note_on,84,0,0
1,note_on,86,48,360
1,note_on,82,48,0
1,note_on,82,0,120
1,note_on,86,0,0
1,note_on,86,49,120
1,note_on,82,49,0
1,note_on,82,0,120
1,note_on,86,0,0
1,note_on,86,52,120
1,note_on,82,52,0
1,note_on,82,0,120
1,note_on,86,0,0
1,note_on,86,47,120
1,note_on,82,47,0
1,note_on,82,0,120
1,note_on,86,0,0
1,note_on,89,48,120
1,note_on,82,48,0
1,note_on,86,48,0
1,note_on,86,0,120
1,note_on,82,0,0
1,note_on,89,0,0
1,note_on,87,59,120
1,note_on,81,59,0
1,note_on,89,59,0
1,note_on,89,0,120
1,note_on,81,0,0
1,note_on,87,0,0
1,note_on,89,46,120
1,note_on,81,46,0
1,note_on,87,46,0
1,note_on,87,0,120
1,note_on,81,0,0
1,note_on,89,0,0
1,note_on,87,45,120
1,note_on,89,45,0
1,note_on,81,45,0
1,note_on,81,0,120
1,note_on,89,0,0
1,note_on,87,0,0
1,note_on,89,53,120
1,note_on,81,53,0
1,note_on,87,53,0
1,note_on,87,0,120
1,note_on,81,0,0
1,note_on,89,0,0
1,note_on,87,45,120
1,note_on,89,45,0
1,note_on,81,45,0
1,note_on,81,0,120
1,note_on,89,0,0
1,note_on,87,0,0
1,note_on,89,44,120
1,note_on,81,44,0
1,note_on,87,44,0
1,note_on,87,0,120
1,note_on,81,0,0
1,note_on,89,0,0
1,note_on,80,70,600
1,note_on,92,83,0
1,note_on,92,0,720
1,note_on,80,0,0
1,note_on,79,66,0
1,note_on,91,79,0
1,note_on,91,0,240
1,note_on,79,0,0
1,note_on,78,69,480
1,note_on,90,81,0
1,note_on,90,0,720
1,note_on,78,0,0
1,note_on,77,67,0
1,note_on,89,80,0
1,note_on,89,0,240
1,note_on,77,0,0
1,note_on,68,73,480
1,note_on,80,86,0
1,note_on,80,0,720
1,note_on,68,0,0
1,note_on,67,71,0
1,note_on,79,86,0
1,note_on,79,0,240
1,note_on,67,0,0
1,note_on,66,78,480
1,note_on,78,92,0
1,note_on,78,0,720
1,note_on,66,0,0
1,note_on,65,75,0
1,note_on,77,90,0
1,note_on,77,0,240
1,note_on,65,0,0
1,note_on,70,60,240
1,note_on,77,71,0
1,note_on,65,60,0
1,note_on,65,0,120
1,note_on,77,0,0
1,note_on,70,0,0
1,note_on,65,57,120
1,note_on,77,68,0
1,note_on,70,57,0
1,note_on,70,0,120
1,note_on,77,0,0
1,note_on,65,0,0
1,note_on,70,58,360
1,note_on,75,69,0
1,note_on,67,58,0
1,note_on,67,0,120
1,note_on,75,0,0
1,note_on,70,0,0
1,note_on,74,65,120
1,note_on,67,55,0
1,note_on,70,55,0
1,note_on,70,0,120
1,note_on,67,0,0
1,note_on,74,0,0
1,note_on,63,60,360
1,note_on,74,71,0
1,note_on,67,60,0
1,note_on,67,0,120
1,note_on,74,0,0
1,note_on,63,0,0
1,note_on,72,68,120
1,note_on,67,57,0
1,note_on,63,57,0
1,note_on,63,0,120
1,note_on,67,0,0
1,note_on,72,0,0
1,note_on,70,69,360
1,note_on,63,58,0
1,note_on,60,58,0
1,note_on,60,0,120
1,note_on,63,0,0
1,note_on,70,0,0
1,note_on,69,65,120
1,note_on,63,55,0
1,note_on,60,55,0
1,note_on,60,0,120
1,note_on,63,0,0
1,note_on,69,0,0
1,note_on,70,71,360
1,note_on,65,60,0
1,note_on,58,60,0
1,note_on,58,0,120
1,note_on,65,0,0
1,note_on,70,0,0
1,note_on,65,69,120
1,note_on,62,58,0
1,note_on,58,58,0
1,note_on,58,0,120
1,note_on,62,0,0
1,note_on,65,0,0
1,note_on,55,74,360
1,note_on,63,72,0
1,note_on,58,60,0
1,note_on,58,0,120
1,note_on,63,0,0
1,note_on,55,0,0
1,note_on,62,68,120
1,note_on,58,58,0
1,note_on,55,58,0
1,note_on,55,0,120
1,note_on,58,0,0
1,note_on,62,0,0
1,note_on,62,76,360
1,note_on,55,64,0
1,note_on,51,64,0
1,note_on,51,0,120
1,note_on,55,0,0
1,note_on,62,0,0
1,note_on,60,74,120
1,note_on,55,62,0
1,note_on,51,62,0
1,note_on,51,0,120
1,note_on,55,0,0
1,note_on,60,0,0
1,note_on,48,79,360
1,note_on,51,64,0
1,note_on,58,77,0
1,note_on,58,0,120
1,note_on,51,0,0
1,note_on,48,0,0
1,note_on,51,62,120
1,note_on,57,73,0
1,note_on,48,62,0
1,note_on,48,0,120
1,note_on,57,0,0
1,note_on,51,0,0
1,note_on,46,62,120
1,note_on,46,0,120
1,note_on,48,63,0
1,note_on,48,0,120
1,note_on,50,65,0
1,note_on,50,0,120
1,note_on,51,66,0
1,note_on,51,0,120
1,note_on,53,67,0
1,note_on,53,0,80
1,note_on,55,68,0
1,note_on,55,0,80
1,note_on,57,68,0
1,note_on,57,0,80
1,note_on,58,69,0
1,note_on,58,0,80
1,note_on,60,70,0
1,note_on,60,0,80
1,note_on,62,71,0
1,note_on,62,0,80
1,note_on,63,72,0
1,note_on,63,0,80
1,note_on,65,72,0
1,note_on,65,0,80
1,note_on,67,73,0
1,note_on,67,0,80
1,note_on,69,85,0
1,note_on,69,0,120
1,note_on,57,67,0
1,note_on,57,0,120
1,note_on,58,62,0
1,note_on,58,0,120
1,note_on,60,63,0
1,note_on,60,0,120
1,note_on,62,65,0
1,note_on,62,0,120
1,note_on,63,66,0
1,note_on,63,0,120
1,note_on,65,67,0
1,note_on,65,0,80
1,note_on,67,68,0
1,note_on,67,0,80
1,note_on,69,68,0
1,note_on,69,0,80
1,note_on,70,69,0
1,note_on,70,0,80
1,note_on,72,70,0
1,note_on,72,0,80
1,note_on,74,71,0
1,note_on,74,0,80
1,note_on,75,72,0
1,note_on,75,0,80
1,note_on,77,72,0
1,note_on,77,0,80
1,note_on,79,73,0
1,note_on,79,0,80
1,note_on,81,85,0
1,note_on,81,0,120
1,note_on,69,67,0
1,note_on,69,0,120
1,note_on,70,62,0
1,note_on,70,0,120
1,note_on,72,63,0
1,note_on,72,0,120
1,note_on,74,65,0
1,note_on,74,0,120
1,note_on,75,66,0
1,note_on,75,0,120
1,note_on,77,68,0
1,note_on,77,0,80
1,note_on,79,70,0
1,note_on,79,0,80
1,note_on,81,72,0
1,note_on,81,0,80
1,note_on,82,74,0
1,note_on,82,0,120
1,note_on,84,75,0
1,note_on,84,0,120
1,note_on,86,77,0
1,note_on,86,0,80
1,note_on,87,79,0
1,note_on,87,0,80
1,note_on,89,81,0
1,note_on,89,0,80
1,note_on,91,83,0
1,note_on,91,0,80
1,note_on,93,92,0
1,note_on,93,0,80
1,note_on,81,85,0
1,note_on,81,0,80
1,note_on,82,89,0
1,note_on,94,105,0
1,note_on,94,0,480
1,note_on,82,0,0
1,note_on,82,90,240
1,note_on,77,75,0
1,note_on,74,75,0
1,note_on,74,0,480
1,note_on,77,0,0
1,note_on,82,0,0
1,note_on,62,74,240
1,note_on,65,74,0
1,note_on,70,89,0
1,note_on,70,0,480
1,note_on,65,0,0
1,note_on,62,0,0
1,note_on,70,45,720
1,note_on,70,0,120
1,note_on,70,57,120
1,note_on,70,0,180
1,note_on,66,45,60
1,note_on,66,0,120
1,note_on,63,45,120
1,note_on,63,0,120
1,note_on,82,58,2040
1,note_on,70,49,0
1,note_on,70,0,240
1,note_on,82,0,0
1,note_on,82,59,0
1,note_on,70,49,0
1,note_on,70,0,720
1,note_on,82,0,0
1,note_on,71,52,0
1,note_on,83,62,0
1,note_on,83,0,720
1,note_on,71,0,0
1,note_on,72,59,0
1,note_on,84,70,0
1,note_on,84,0,720
1,note_on,72,0,0
1,note_on,85,60,0
1,note_on,73,50,0
1,note_on,73,0,480
1,note_on,85,0,0
1,note_on,73,45,0
1,note_on,73,0,120
1,note_on,73,59,120
1,note_on,73,0,180
1,note_on,70,45,60
1,note_on,70,0,120
1,note_on,66,45,120
1,note_on,66,0,120
1,note_on,73,49,2040
1,note_on,85,58,0
1,note_on,85,0,238
1,note_on,73,0,0
1,note_on,85,59,2
1,note_on,73,49,0
1,note_on,73,0,720
1,note_on,85,0,0
1,note_on,75,52,0
1,note_on,87,62,0
1,note_on,87,0,1440
1,note_on,75,0,0
1,note_on,76,50,0
1,note_on,88,60,0
1,note_on,88,0,1440
1,note_on,76,0,0
1,note_on,90,64,0
1,note_on,78,55,0
1,note_on,78,0,720
1,note_on,90,0,0
1,note_on,91,67,0
1,note_on,79,57,0
1,note_on,79,0,720
1,note_on,91,0,0
1,note_on,92,69,0
1,note_on,80,59,0
1,note_on,80,0,1440
1,note_on,92,0,0
1,note_on,90,67,0
1,note_on,78,57,0
1,note_on,78,0,720
1,note_on,90,0,0
1,note_on,76,63,0
1,note_on,88,63,0
1,note_on,88,0,720
1,note_on,76,0,0
1,note_on,73,49,0
1,note_on,85,58,0
1,note_on,85,0,720
1,note_on,73,0,0
1,note_on,75,54,0
1,note_on,87,54,0
1,note_on,75,0,480
1,note_on,80,52,0
1,note_on,80,0,240
1,note_on,78,62,0
1,note_on,78,0,480
1,note_on,75,55,0
1,note_on,75,0,240
1,note_on,87,0,0
1,note_on,85,62,0
1,note_on,73,62,0
1,note_on,73,0,480
1,note_on,80,54,0
1,note_on,80,0,240
1,note_on,78,61,0
1,note_on,78,0,480
1,note_on,73,49,0
1,note_on,73,0,240
1,note_on,85,0,0
1,note_on,87,41,0
1,note_on,78,50,0
1,note_on,78,0,120
1,note_on,80,34,0
1,note_on,80,0,120
1,note_on,78,39,0
1,note_on,78,0,120
1,note_on,80,35,0
1,note_on,80,0,120
1,note_on,78,39,0
1,note_on,78,0,120
1,note_on,80,36,0
1,note_on,80,0,120
1,note_on,87,0,0
1,note_on,78,52,0
1,note_on,83,45,0
1,note_on,78,0,120
1,note_on,80,38,0
1,note_on,80,0,120
1,note_on,78,44,0
1,note_on,78,0,120
1,note_on,80,38,0
1,note_on,80,0,120
1,note_on,78,46,0
1,note_on,78,0,120
1,note_on,80,39,0
1,note_on,80,0,120
1,note_on,83,0,0
1,note_on,82,47,0
1,note_on,78,57,0
1,note_on,78,0,120
1,note_on,80,38,0
1,note_on,80,0,120
1,note_on,78,42,0
1,note_on,78,0,120
1,note_on,80,37,0
1,note_on,80,0,120
1,note_on,78,40,0
1,note_on,78,0,120
1,note_on,80,36,0
1,note_on,80,0,120
1,note_on,82,0,0
1,note_on,90,45,0
1,note_on,78,51,0
1,note_on,78,0,120
1,note_on,80,37,0
1,note_on,80,0,120
1,note_on,78,40,0
1,note_on,78,0,120
1,note_on,80,35,0
1,note_on,80,0,120
1,note_on,78,41,0
1,note_on,78,0,120
1,note_on,80,34,0
1,note_on,80,0,120
1,note_on,90,0,0
1,note_on,90,50,0
1,note_on,78,45,0
1,note_on,78,0,720
1,note_on,90,0,0
1,note_on,78,47,0
1,note_on,66,40,0
1,note_on,66,0,720
1,note_on,78,0,0
1,note_on,66,41,0
1,note_on,74,41,0
1,note_on,78,46,0
1,note_on,78,0,720
1,note_on,74,0,0
1,note_on,66,0,0
1,note_on,79,45,0
1,note_on,67,45,0
1,note_on,74,45,0
1,note_on,74,0,480
1,note_on,67,0,0
1,note_on,79,0,0
1,note_on,81,43,0
1,note_on,69,43,0
1,note_on,74,43,0
1,note_on,74,0,240
1,note_on,69,0,0
1,note_on,81,0,0
1,note_on,74,54,0
1,note_on,71,54,0
1,note_on,83,54,0
1,note_on,83,0,480
1,note_on,71,0,0
1,note_on,74,0,0
1,note_on,76,51,0
1,note_on,88,51,0
1,note_on,88,0,240
1,note_on,76,0,0
1,note_on,74,58,0
1,note_on,86,58,0
1,note_on,86,0,480
1,note_on,74,0,0
1,note_on,83,50,0
1,note_on,71,50,0
1,note_on,71,0,240
1,note_on,83,0,0
1,note_on,69,62,0
1,note_on,81,62,0
1,note_on,81,0,480
1,note_on,69,0,0
1,note_on,88,50,0
1,note_on,76,50,0
1,note_on,76,0,240
1,note_on,88,0,0
1,note_on,86,58,0
1,note_on,74,58,0
1,note_on,74,0,480
1,note_on,86,0,0
1,note_on,81,53,0
1,note_on,69,53,0
1,note_on,69,0,240
1,note_on,81,0,0
1,note_on,83,38,0
1,note_on,74,46,0
1,note_on,74,0,120
1,note_on,76,31,0
1,note_on,76,0,120
1,note_on,74,36,0
1,note_on,74,0,120
1,note_on,76,32,0
1,note_on,76,0,120
1,note_on,74,36,0
1,note_on,74,0,120
1,note_on,76,33,0
1,note_on,76,0,120
1,note_on,83,0,0
1,note_on,74,48,0
1,note_on,79,41,0
1,note_on,74,0,120
1,note_on,76,35,0
1,note_on,76,0,120
1,note_on,74,40,0
1,note_on,74,0,120
1,note_on,76,35,0
1,note_on,76,0,120
1,note_on,74,42,0
1,note_on,74,0,120
1,note_on,76,36,0
1,note_on,76,0,120
1,note_on,79,0,0
1,note_on,78,43,0
1,note_on,74,52,0
1,note_on,74,0,120
1,note_on,76,35,0
1,note_on,76,0,120
1,note_on,74,39,0
1,note_on,74,0,120
1,note_on,76,34,0
1,note_on,76,0,120
1,note_on,74,37,0
1,note_on,74,0,120
1,note_on,76,33,0
1,note_on,76,0,120
1,note_on,78,0,0
1,note_on,84,41,0
1,note_on,74,47,0
1,note_on,74,0,120
1,note_on,76,34,0
1,note_on,76,0,120
1,note_on,74,37,0
1,note_on,74,0,120
1,note_on,76,32,0
1,note_on,76,0,120
1,note_on,74,38,0
1,note_on,74,0,240
1,note_on,84,0,0
1,note_on,74,42,0
1,note_on,83,50,0
1,note_on,83,0,240
1,note_on,74,0,0
1,note_on,71,44,0
1,note_on,71,0,240
1,note_on,86,50,0
1,note_on,67,42,0
1,note_on,67,0,120
1,note_on,86,0,0
1,note_on,86,54,120
1,note_on,66,45,0
1,note_on,66,0,240
1,note_on,86,0,0
1,note_on,83,46,0
1,note_on,67,39,0
1,note_on,67,0,240
1,note_on,83,0,0
1,note_on,71,38,0
1,note_on,79,45,0
1,note_on,79,0,120
1,note_on,71,0,0
1,note_on,71,46,360
1,note_on,71,0,240
1,note_on,74,46,0
1,note_on,74,0,240
1,note_on,79,50,0
1,note_on,79,0,240
1,note_on,83,50,0
1,note_on,83,0,240
1,note_on,79,43,0
1,note_on,86,53,0
1,note_on,86,0,120
1,note_on,79,0,0
1,note_on,88,57,120
1,note_on,79,45,0
1,note_on,79,0,240
1,note_on,76,46,0
1,note_on,76,0,240
1,note_on,88,0,0
1,note_on,72,46,0
1,note_on,72,0,240
1,note_on,71,53,0
1,note_on,71,0,240
1,note_on,72,46,0
1,note_on,72,0,240
1,note_on,76,46,0
1,note_on,76,0,240
1,note_on,79,50,240
1,note_on,79,0,240
1,note_on,84,54,0
1,note_on,84,0,240
1,note_on,76,51,0
1,note_on,88,60,0
1,note_on,88,0,480
1,note_on,76,0,0
1,note_on,75,52,0
1,note_on,87,62,0
1,note_on,87,0,240
1,note_on,75,0,0
1,note_on,87,60,0
1,note_on,87,0,240
1,note_on,84,55,0
1,note_on,84,0,240
1,note_on,80,55,0
1,note_on,80,0,180
1,note_on,79,60,60
1,note_on,79,0,240
1,note_on,82,57,0
1,note_on,82,0,240
1,note_on,75,50,0
1,note_on,87,57,0
1,note_on,87,0,180
1,note_on,75,0,0
1,note_on,75,58,60
1,note_on,75,0,240
1,note_on,72,50,0
1,note_on,72,0,240
1,note_on,68,50,0
1,note_on,68,0,180
1,note_on,75,58,60
1,note_on,75,0,240
1,note_on,70,51,0
1,note_on,70,0,240
1,note_on,82,51,0
1,note_on,70,51,0
1,note_on,70,0,180
1,note_on,82,0,0
1,note_on,70,50,60
1,note_on,82,59,0
1,note_on,82,0,240
1,note_on,70,0,0
1,note_on,67,43,0
1,note_on,79,51,0
1,note_on,79,0,240
1,note_on,67,0,0
1,note_on,63,39,0
1,note_on,75,47,0
1,note_on,75,0,240
1,note_on,63,0,0
1,note_on,62,45,0
1,note_on,74,54,0
1,note_on,74,0,240
1,note_on,62,0,0
1,note_on,77,49,0
1,note_on,65,41,0
1,note_on,65,0,240
1,note_on,77,0,0
1,note_on,82,50,0
1,note_on,70,42,0
1,note_on,70,0,180
1,note_on,82,0,0
1,note_on,70,46,60
1,note_on,82,55,0
1,note_on,82,0,240
1,note_on,70,0,0
1,note_on,67,43,0
1,note_on,79,51,0
1,note_on,79,0,240
1,note_on,67,0,0
1,note_on,63,43,0
1,note_on,75,51,0
1,note_on,75,0,180
1,note_on,63,0,0
1,note_on,63,47,60
1,note_on,75,56,0
1,note_on,75,0,240
1,note_on,63,0,0
1,note_on,79,48,0
1,note_on,67,40,0
1,note_on,67,0,240
1,note_on,79,0,0
1,note_on,84,58,0
1,note_on,72,49,0
1,note_on,72,0,180
1,note_on,84,0,0
1,note_on,72,53,60
1,note_on,84,63,0
1,note_on,84,0,240
1,note_on,72,0,0
1,note_on,68,48,0
1,note_on,80,57,0
1,note_on,80,0,240
1,note_on,68,0,0
1,note_on,65,48,0
1,note_on,77,57,0
1,note_on,77,0,240
1,note_on,65,0,0
1,note_on,64,53,0
1,note_on,76,63,0
1,note_on,76,0,240
1,note_on,64,0,0
1,note_on,67,48,0
1,note_on,79,57,0
1,note_on,79,0,240
1,note_on,67,0,0
1,note_on,72,52,0
1,note_on,84,62,0
1,note_on,84,0,180
1,note_on,72,0,0
1,note_on,84,73,60
1,note_on,72,62,0
1,note_on,72,0,240
1,note_on,84,0,0
1,note_on,68,50,0
1,note_on,80,59,0
1,note_on,80,0,240
1,note_on,68,0,0
1,note_on,77,59,0
1,note_on,65,50,0
1,note_on,65,0,240
1,note_on,77,0,0
1,note_on,74,67,0
1,note_on,62,56,0
1,note_on,62,0,240
1,note_on,74,0,0
1,note_on,65,51,0
1,note_on,77,60,0
1,note_on,77,0,240
1,note_on,65,0,0
1,note_on,70,51,0
1,note_on,82,60,0
1,note_on,82,0,180
1,note_on,70,0,0
1,note_on,70,56,60
1,note_on,82,67,0
1,note_on,82,0,240
1,note_on,70,0,0
1,note_on,67,49,0
1,note_on,79,58,0
1,note_on,79,0,240
1,note_on,67,0,0
1,note_on,63,49,0
1,note_on,75,58,0
1,note_on,75,0,240
1,note_on,63,0,0
1,note_on,60,51,0
1,note_on,72,61,0
1,note_on,72,0,240
1,note_on,60,0,0
1,note_on,77,56,0
1,note_on,65,47,0
1,note_on,65,0,240
1,note_on,77,0,0
1,note_on,80,56,0
1,note_on,68,47,0
1,note_on,68,0,180
1,note_on,80,0,0
1,note_on,70,65,60
1,note_on,58,55,0
1,note_on,58,0,240
1,note_on,70,0,0
1,note_on,75,59,0
1,note_on,63,50,0
1,note_on,63,0,240
1,note_on,75,0,0
1,note_on,79,60,0
1,note_on,67,51,0
1,note_on,67,0,180
1,note_on,79,0,0
1,note_on,70,67,60
1,note_on,58,56,0
1,note_on,58,0,240
1,note_on,70,0,0
1,note_on,74,60,0
1,note_on,62,51,0
1,note_on,62,0,240
1,note_on,74,0,0
1,note_on,68,60,0
1,note_on,68,0,120
1,note_on,77,60,0
1,note_on,77,0,120
1,note_on,79,55,120
1,note_on,79,0,120
1,note_on,82,59,0
1,note_on,82,0,120
1,note_on,87,55,0
1,note_on,87,0,120
1,note_on,91,61,0
1,note_on,91,0,120
1,note_on,79,55,0
1,note_on,79,0,120
1,note_on,80,55,120
1,note_on,80,0,120
1,note_on,82,59,0
1,note_on,82,0,120
1,note_on,89,55,0
1,note_on,89,0,120
1,note_on,92,61,0
1,note_on,92,0,120
1,note_on,80,56,0
1,note_on,80,0,120
1,note_on,79,56,120
1,note_on,79,0,120
1,note_on,82,60,0
1,note_on,82,0,120
1,note_on,87,56,0
1,note_on,87,0,120
1,note_on,91,62,0
1,note_on,91,0,120
1,note_on,79,56,0
1,note_on,79,0,120
1,note_on,79,56,120
1,note_on,79,0,120
1,note_on,82,61,0
1,note_on,82,0,120
1,note_on,87,57,0
1,note_on,87,0,120
1,note_on,91,63,0
1,note_on,91,0,120
1,note_on,88,57,0
1,note_on,88,0,120
1,note_on,80,57,120
1,note_on,80,0,120
1,note_on,84,61,0
1,note_on,84,0,120
1,note_on,89,57,0
1,note_on,89,0,120
1,note_on,92,63,0
1,note_on,92,0,120
1,note_on,80,57,0
1,note_on,80,0,120
1,note_on,82,58,120
1,note_on,82,0,120
1,note_on,84,62,0
1,note_on,84,0,120
1,note_on,91,58,0
1,note_on,91,0,120
1,note_on,94,64,0
1,note_on,94,0,120
1,note_on,82,58,0
1,note_on,82,0,120
1,note_on,80,58,120
1,note_on,80,0,120
1,note_on,84,62,0
1,note_on,84,0,120
1,note_on,89,59,0
1,note_on,89,0,120
1,note_on,92,66,0
1,note_on,92,0,120
1,note_on,80,59,0
1,note_on,80,0,120
1,note_on,80,59,120
1,note_on,80,0,120
1,note_on,82,63,0
1,note_on,82,0,120
1,note_on,89,59,0
1,note_on,89,0,120
1,note_on,92,67,0
1,note_on,92,0,120
1,note_on,80,59,0
1,note_on,80,0,120
1,note_on,79,60,120
1,note_on,79,0,120
1,note_on,82,64,0
1,note_on,82,0,120
1,note_on,87,60,0
1,note_on,87,0,120
1,note_on,91,68,0
1,note_on,91,0,120
1,note_on,79,61,0
1,note_on,79,0,120
1,note_on,92,62,120
1,note_on,92,0,120
1,note_on,89,68,0
1,note_on,89,0,120
1,note_on,87,63,0
1,note_on,87,0,120
1,note_on,80,72,0
1,note_on,80,0,120
1,note_on,92,66,0
1,note_on,92,0,120
1,note_on,94,67,120
1,note_on,94,0,120
1,note_on,91,72,0
1,note_on,91,0,120
1,note_on,87,68,0
1,note_on,87,0,120
1,note_on,82,78,0
1,note_on,82,0,120
1,note_on,94,69,0
1,note_on,94,0,120
1,note_on,94,70,120
1,note_on,94,0,120
1,note_on,89,77,0
1,note_on,89,0,120
1,note_on,86,72,0
1,note_on,86,0,120
1,note_on,82,81,0
1,note_on,82,0,120
1,note_on,94,73,0
1,note_on,94,0,120
1,note_on,55,85,0
1,note_on,55,0,120
1,note_on,63,70,0
1,note_on,63,0,120
1,note_on,58,79,0
1,note_on,58,0,120
1,note_on,67,70,0
1,note_on,67,0,120
1,note_on,63,81,0
1,note_on,63,0,120
1,note_on,70,70,0
1,note_on,70,0,120
1,note_on,67,86,0
1,note_on,67,0,120
1,note_on,75,70,0
1,note_on,75,0,120
1,note_on,70,77,0
1,note_on,70,0,120
1,note_on,79,70,0
1,note_on,79,0,120
1,note_on,75,78,0
1,note_on,75,0,120
1,note_on,82,70,0
1,note_on,82,0,120
1,note_on,79,86,0
1,note_on,79,0,120
1,note_on,87,70,0
1,note_on,87,0,120
1,note_on,82,77,0
1,note_on,82,0,120
1,note_on,91,67,0
1,note_on,91,0,120
1,note_on,87,75,0
1,note_on,87,0,120
1,note_on,94,68,0
1,note_on,94,0,120
1,note_on,93,80,0
1,note_on,93,0,120
1,note_on,94,72,0
1,note_on,94,0,120
1,note_on,93,77,0
1,note_on,93,0,120
1,note_on,94,70,0
1,note_on,94,0,120
1,note_on,93,75,0
1,note_on,93,0,120
1,note_on,94,70,0
1,note_on,94,0,120
1,note_on,96,84,0
1,note_on,96,0,120
1,note_on,94,84,0
1,note_on,94,0,120
1,note_on,92,83,0
1,note_on,92,0,120
1,note_on,91,82,0
1,note_on,91,0,120
1,note_on,89,81,0
1,note_on,89,0,120
1,note_on,87,81,0
1,note_on,87,0,120
1,note_on,86,79,0
1,note_on,86,0,120
1,note_on,84,71,0
1,note_on,84,0,120
1,note_on,82,71,0
1,note_on,82,0,120
1,note_on,80,71,0
1,note_on,80,0,120
1,note_on,79,71,0
1,note_on,79,0,120
1,note_on,77,71,0
1,note_on,77,0,120
1,note_on,75,77,0
1,note_on,75,0,120
1,note_on,74,75,0
1,note_on,74,0,120
1,note_on,72,74,0
1,note_on,72,0,120
1,note_on,70,74,0
1,note_on,70,0,120
1,note_on,68,73,0
1,note_on,68,0,120
1,note_on,67,72,0
1,note_on,67,0,120
1,note_on,65,70,0
1,note_on,65,0,120
1,note_on,63,64,0
1,note_on,63,0,120
1,note_on,62,70,0
1,note_on,62,0,120
1,note_on,65,66,0
1,note_on,65,0,120
1,note_on,68,75,0
1,note_on,68,0,120
1,note_on,62,69,0
1,note_on,62,0,120
1,note_on,55,85,0
1,note_on,55,0,120
1,note_on,63,70,0
1,note_on,63,0,120
1,note_on,58,79,0
1,note_on,58,0,120
1,note_on,67,70,0
1,note_on,67,0,120
1,note_on,63,81,0
1,note_on,63,0,120
1,note_on,70,70,0
1,note_on,70,0,120
1,note_on,67,86,0
1,note_on,67,0,120
1,note_on,75,70,0
1,note_on,75,0,120
1,note_on,70,77,0
1,note_on,70,0,120
1,note_on,79,70,0
1,note_on,79,0,120
1,note_on,75,78,0
1,note_on,75,0,120
1,note_on,82,70,0
1,note_on,82,0,120
1,note_on,79,86,0
1,note_on,79,0,120
1,note_on,87,70,0
1,note_on,87,0,120
1,note_on,82,77,0
1,note_on,82,0,120
1,note_on,91,67,0
1,note_on,91,0,120
1,note_on,87,75,0
1,note_on,87,0,120
1,note_on,94,68,0
1,note_on,94,0,120
1,note_on,93,80,0
1,note_on,93,0,120
1,note_on,94,72,0
1,note_on,94,0,120
1,note_on,93,77,0
1,note_on,93,0,120
1,note_on,94,70,0
1,note_on,94,0,120
1,note_on,93,75,0
1,note_on,93,0,120
1,note_on,94,70,0
1,note_on,94,0,120
1,note_on,96,84,0
1,note_on,96,0,120
1,note_on,94,84,0
1,note_on,94,0,120
1,note_on,92,83,0
1,note_on,92,0,120
1,note_on,91,82,0
1,note_on,91,0,120
1,note_on,89,81,0
1,note_on,89,0,120
1,note_on,87,81,0
1,note_on,87,0,120
1,note_on,85,79,0
1,note_on,85,0,120
1,note_on,84,71,0
1,note_on,84,0,120
1,note_on,82,71,0
1,note_on,82,0,120
1,note_on,80,71,0
1,note_on,80,0,120
1,note_on,79,71,0
1,note_on,79,0,120
1,note_on,77,71,0
1,note_on,77,0,120
1,note_on,75,77,0
1,note_on,73,75,120
1,note_on,75,0,1
1,note_on,72,74,119
1,note_on,73,0,1
1,note_on,72,0,119
1,note_on,70,74,0
1,note_on,70,0,120
1,note_on,68,73,0
1,note_on,68,0,120
1,note_on,67,72,0
1,note_on,67,0,120
1,note_on,65,68,0
1,note_on,65,0,120
1,note_on,63,59,0
1,note_on,63,0,120
1,note_on,62,66,0
1,note_on,62,0,120
1,note_on,65,59,0
1,note_on,65,0,120
1,note_on,68,64,0
1,note_on,68,0,120
1,note_on,62,59,0
1,note_on,62,0,120
1,note_on,63,95,0
1,note_on,63,0,240
1,note_on,75,89,480
1,note_on,75,0,240
1,note_on,78,96,480
1,note_on,78,0,240
1,note_on,83,88,480
1,note_on,83,0,240
1,note_on,78,94,480
1,note_on,78,0,240
1,note_on,75,88,480
1,note_on,75,0,240
1,note_on,71,93,480
1,note_on,71,0,240
1,note_on,66,82,480
1,note_on,66,0,240
1,note_on,62,95,480
1,note_on,62,0,240
1,note_on,74,89,480
1,note_on,74,0,240
1,note_on,77,96,480
1,note_on,77,0,240
1,note_on,82,88,480
1,note_on,82,0,240
1,note_on,77,94,480
1,note_on,77,0,240
1,note_on,74,88,480
1,note_on,74,0,240
1,note_on,70,93,480
1,note_on,70,0,240
1,note_on,65,82,480
1,note_on,65,0,240
1,note_on,78,55,480
1,note_on,78,0,120
1,note_on,89,51,300
1,note_on,89,0,60
1,note_on,87,56,0
1,note_on,87,0,120
1,note_on,86,51,0
1,note_on,86,0,120
1,note_on,87,56,0
1,note_on,87,0,240
1,note_on,92,51,180
1,note_on,92,0,60
1,note_on,90,57,0
1,note_on,90,0,120
1,note_on,89,50,0
1,note_on,89,0,120
1,note_on,90,60,0
1,note_on,90,0,120
1,note_on,97,51,300
1,note_on,97,0,60
1,note_on,95,56,0
1,note_on,95,0,120
1,note_on,94,51,0
1,note_on,94,0,120
1,note_on,95,56,0
1,note_on,95,0,240
1,note_on,92,51,180
1,note_on,92,0,60
1,note_on,90,57,0
1,note_on,90,0,120
1,note_on,89,50,0
1,note_on,89,0,120
1,note_on,90,60,0
1,note_on,90,0,120
1,note_on,89,51,300
1,note_on,89,0,60
1,note_on,87,56,0
1,note_on,87,0,120
1,note_on,86,51,0
1,note_on,86,0,120
1,note_on,87,56,0
1,note_on,87,0,240
1,note_on,85,51,180
1,note_on,85,0,60
1,note_on,83,57,0
1,note_on,83,0,120
1,note_on,82,50,0
1,note_on,82,0,120
1,note_on,83,60,0
1,note_on,83,0,120
1,note_on,80,51,300
1,note_on,80,0,60
1,note_on,78,56,0
1,note_on,78,0,120
1,note_on,77,51,0
1,note_on,77,0,120
1,note_on,78,56,0
1,note_on,78,0,480
1,note_on,77,55,240
1,note_on,77,0,120
1,note_on,87,51,300
1,note_on,87,0,60
1,note_on,86,56,0
1,note_on,86,0,120
1,note_on,84,51,0
1,note_on,84,0,120
1,note_on,86,56,0
1,note_on,86,0,240
1,note_on,90,51,180
1,note_on,90,0,60
1,note_on,89,57,0
1,note_on,89,0,120
1,note_on,88,50,0
1,note_on,88,0,120
1,note_on,89,60,0
1,note_on,89,0,120
1,note_on,95,51,300
1,note_on,95,0,60
1,note_on,94,56,0
1,note_on,94,0,120
1,note_on,93,51,0
1,note_on,93,0,120
1,note_on,94,56,0
1,note_on,94,0,240
1,note_on,90,51,180
1,note_on,90,0,60
1,note_on,89,57,0
1,note_on,89,0,120
1,note_on,88,50,0
1,note_on,88,0,120
1,note_on,89,60,0
1,note_on,89,0,120
1,note_on,87,51,300
1,note_on,87,0,60
1,note_on,86,56,0
1,note_on,86,0,120
1,note_on,84,51,0
1,note_on,84,0,120
1,note_on,86,56,0
1,note_on,86,0,240
1,note_on,83,51,180
1,note_on,83,0,60
1,note_on,82,57,0
1,note_on,82,0,120
1,note_on,81,50,0
1,note_on,81,0,120
1,note_on,82,60,0
1,note_on,82,0,120
1,note_on,78,51,300
1,note_on,78,0,60
1,note_on,77,56,0
1,note_on,77,0,120
1,note_on,76,51,0
1,note_on,76,0,120
1,note_on,77,56,0
1,note_on,77,0,240
1,note_on,78,52,240
1,note_on,78,0,240
1,note_on,79,56,0
1,note_on,70,35,0
1,note_on,70,0,120
1,note_on,72,31,0
1,note_on,72,0,120
1,note_on,70,35,0
1,note_on,70,0,120
1,note_on,72,31,0
1,note_on,72,0,120
1,note_on,70,34,0
1,note_on,70,0,120
1,note_on,72,31,0
1,note_on,72,0,120
1,note_on,79,0,0
1,note_on,70,36,0
1,note_on,75,55,0
1,note_on,70,0,120
1,note_on,72,32,0
1,note_on,72,0,120
1,note_on,70,36,0
1,note_on,70,0,120
1,note_on,72,31,0
1,note_on,72,0,120
1,note_on,70,37,0
1,note_on,70,0,120
1,note_on,72,31,0
1,note_on,72,0,120
1,note_on,75,0,0
1,note_on,74,59,0
1,note_on,70,37,0
1,note_on,70,0,120
1,note_on,72,33,0
1,note_on,72,0,120
1,note_on,70,37,0
1,note_on,70,0,120
1,note_on,72,33,0
1,note_on,72,0,120
1,note_on,70,37,0
1,note_on,70,0,120
1,note_on,72,34,0
1,note_on,72,0,120
1,note_on,74,0,0
1,note_on,70,38,0
1,note_on,80,59,0
1,note_on,70,0,120
1,note_on,72,34,0
1,note_on,72,0,120
1,note_on,70,39,0
1,note_on,70,0,120
1,note_on,72,33,0
1,note_on,72,0,120
1,note_on,70,39,0
1,note_on,70,0,120
1,note_on,72,34,0
1,note_on,72,0,120
1,note_on,80,0,0
1,note_on,70,40,0
1,note_on,79,64,0
1,note_on,70,0,120
1,note_on,72,35,0
1,note_on,72,0,120
1,note_on,70,39,0
1,note_on,70,0,120
1,note_on,72,35,0
1,note_on,72,0,120
1,note_on,70,38,0
1,note_on,70,0,120
1,note_on,72,34,0
1,note_on,72,0,120
1,note_on,79,0,0
1,note_on,75,60,0
1,note_on,70,39,0
1,note_on,70,0,120
1,note_on,72,34,0
1,note_on,72,0,120
1,note_on,70,38,0
1,note_on,70,0,120
1,note_on,72,33,0
1,note_on,72,0,120
1,note_on,70,38,0
1,note_on,70,0,120
1,note_on,72,32,0
1,note_on,72,0,120
1,note_on,75,0,0
1,note_on,70,37,0
1,note_on,74,60,0
1,note_on,70,0,120
1,note_on,72,33,0
1,note_on,72,0,120
1,note_on,70,37,0
1,note_on,70,0,120
1,note_on,72,32,0
1,note_on,72,0,120
1,note_on,70,35,0
1,note_on,70,0,120
1,note_on,72,32,0
1,note_on,72,0,120
1,note_on,74,0,0
1,note_on,80,56,0
1,note_on,70,36,0
1,note_on,70,0,120
1,note_on,72,32,0
1,note_on,72,0,120
1,note_on,70,36,0
1,note_on,70,0,120
1,note_on,72,30,0
1,note_on,72,0,120
1,note_on,70,35,0
1,note_on,70,0,120
1,note_on,72,30,0
1,note_on,72,0,120
1,note_on,80,0,0
1,note_on,70,48,0
1,note_on,79,51,0
1,note_on,79,0,120
1,note_on,70,0,0
1,note_on,72,45,0
1,note_on,72,0,120
1,note_on,74,50,0
1,note_on,74,0,120
1,note_on,75,52,0
1,note_on,75,0,120
1,note_on,77,54,0
1,note_on,77,0,80
1,note_on,79,56,0
1,note_on,79,0,80
1,note_on,80,59,0
1,note_on,80,0,80
1,note_on,82,61,0
1,note_on,82,0,120
1,note_on,80,60,0
1,note_on,80,0,120
1,note_on,79,58,0
1,note_on,79,0,80
1,note_on,77,56,0
1,note_on,77,0,80
1,note_on,75,54,0
1,note_on,75,0,80
1,note_on,74,53,0
1,note_on,74,0,80
1,note_on,72,51,0
1,note_on,72,0,80
1,note_on,71,49,0
1,note_on,71,0,80
1,note_on,72,54,0
1,note_on,72,0,120
1,note_on,75,45,0
1,note_on,75,0,120
1,note_on,77,48,0
1,note_on,77,0,120
1,note_on,79,50,0
1,note_on,79,0,120
1,note_on,80,56,0
1,note_on,80,0,120
1,note_on,82,59,0
1,note_on,82,0,120
1,note_on,84,61,0
1,note_on,84,0,120
1,note_on,82,60,0
1,note_on,82,0,120
1,note_on,80,58,0
1,note_on,80,0,80
1,note_on,79,57,0
1,note_on,79,0,80
1,note_on,77,56,0
1,note_on,77,0,80
1,note_on,75,55,0
1,note_on,75,0,80
1,note_on,74,54,0
1,note_on,74,0,80
1,note_on,72,53,0
1,note_on,72,0,80
1,note_on,70,57,0
1,note_on,70,0,120
1,note_on,79,49,0
1,note_on,79,0,120
1,note_on,75,59,0
1,note_on,75,0,120
1,note_on,82,55,0
1,note_on,82,0,120
1,note_on,79,62,0
1,note_on,79,0,120
1,note_on,87,57,0
1,note_on,87,0,120
1,note_on,82,62,0
1,note_on,82,0,120
1,note_on,91,57,0
1,note_on,91,0,120
1,note_on,87,55,0
1,note_on,94,61,113
1,note_on,87,0,7
1,note_on,94,0,113
1,note_on,91,53,7
1,note_on,91,0,120
1,note_on,87,54,0
1,note_on,87,0,120
1,note_on,82,59,0
1,note_on,82,0,480
1,note_on,89,59,240
1,note_on,89,0,80
1,note_on,91,52,0
1,note_on,91,0,80
1,note_on,89,59,0
1,note_on,89,0,80
1,note_on,91,54,0
1,note_on,91,0,80
1,note_on,89,59,0
1,note_on,89,0,80
1,note_on,91,53,0
1,note_on,91,0,80
1,note_on,89,59,0
1,note_on,89,0,80
1,note_on,91,53,0
1,note_on,91,0,80
1,note_on,89,56,0
1,note_on,89,0,80
1,note_on,91,67,0
1,note_on,82,45,0
1,note_on,82,0,120
1,note_on,84,34,0
1,note_on,84,0,120
1,note_on,82,38,0
1,note_on,82,0,120
1,note_on,84,34,0
1,note_on,84,0,120
1,note_on,82,37,0
1,note_on,82,0,120
1,note_on,84,34,0
1,note_on,84,0,120
1,note_on,91,0,0
1,note_on,87,60,0
1,note_on,82,39,0
1,note_on,82,0,120
1,note_on,84,35,0
1,note_on,84,0,120
1,note_on,82,39,0
1,note_on,82,0,120
1,note_on,84,34,0
1,note_on,84,0,120
1,note_on,82,40,0
1,note_on,82,0,120
1,note_on,84,34,0
1,note_on,84,0,120
1,note_on,87,0,0
1,note_on,82,40,0
1,note_on,86,64,0
1,note_on,82,0,120
1,note_on,84,36,0
1,note_on,84,0,120
1,note_on,82,40,0
1,note_on,82,0,120
1,note_on,84,36,0
1,note_on,84,0,120
1,note_on,82,40,0
1,note_on,82,0,120
1,note_on,84,37,0
1,note_on,84,0,120
1,note_on,86,0,0
1,note_on,92,64,0
1,note_on,82,41,0
1,note_on,82,0,120
1,note_on,84,37,0
1,note_on,84,0,120
1,note_on,82,42,0
1,note_on,82,0,120
1,note_on,84,36,0
1,note_on,84,0,120
1,note_on,82,42,0
1,note_on,82,0,120
1,note_on,84,37,0
1,note_on,84,0,120
1,note_on,92,0,0
1,note_on,91,70,0
1,note_on,82,44,0
1,note_on,82,0,120
1,note_on,84,38,0
1,note_on,84,0,120
1,note_on,82,42,0
1,note_on,82,0,120
1,note_on,84,38,0
1,note_on,84,0,120
1,note_on,82,41,0
1,note_on,82,0,120
1,note_on,84,37,0
1,note_on,84,0,120
1,note_on,91,0,0
1,note_on,82,42,0
1,note_on,87,66,0
1,note_on,82,0,120
1,note_on,84,37,0
1,note_on,84,0,120
1,note_on,82,41,0
1,note_on,82,0,120
1,note_on,84,36,0
1,note_on,84,0,120
1,note_on,82,41,0
1,note_on,82,0,120
1,note_on,84,35,0
1,note_on,84,0,120
1,note_on,87,0,0
1,note_on,86,66,0
1,note_on,82,40,0
1,note_on,82,0,120
1,note_on,84,36,0
1,note_on,84,0,120
1,note_on,82,40,0
1,note_on,82,0,120
1,note_on,84,35,0
1,note_on,84,0,120
1,note_on,82,38,0
1,note_on,82,0,120
1,note_on,84,35,0
1,note_on,84,0,120
1,note_on,86,0,0
1,note_on,82,39,0
1,note_on,92,61,0
1,note_on,82,0,120
1,note_on,84,35,0
1,note_on,84,0,120
1,note_on,82,39,0
1,note_on,82,0,120
1,note_on,84,33,0
1,note_on,84,0,120
1,note_on,82,38,0
1,note_on,82,0,120
1,note_on,84,33,0
1,note_on,84,0,120
1,note_on,92,0,0
1,note_on,87,49,240
1,note_on,91,49,0
1,note_on,91,0,120
1,note_on,87,0,0
1,note_on,91,49,120
1,note_on,87,49,0
1,note_on,87,0,120
1,note_on,91,0,0
1,note_on,87,52,120
1,note_on,91,52,0
1,note_on,91,0,120
1,note_on,87,0,0
1,note_on,87,46,120
1,note_on,91,46,0
1,note_on,91,0,120
1,note_on,87,0,0
1,note_on,87,46,120
1,note_on,91,46,0
1,note_on,91,0,120
1,note_on,87,0,0
1,note_on,87,49,360
1,note_on,89,49,0
1,note_on,89,0,120
1,note_on,87,0,0
1,note_on,89,49,120
1,note_on,87,49,0
1,note_on,87,0,120
1,note_on,89,0,0
1,note_on,89,53,120
1,note_on,87,53,0
1,note_on,87,0,120
1,note_on,89,0,0
1,note_on,89,48,120
1,note_on,87,48,0
1,note_on,87,0,120
1,note_on,89,0,0
1,note_on,89,50,120
1,note_on,87,50,0
1,note_on,87,0,120
1,note_on,89,0,0
1,note_on,91,52,360
1,note_on,87,52,0
1,note_on,87,0,120
1,note_on,91,0,0
1,note_on,91,53,120
1,note_on,87,53,0
1,note_on,87,0,120
1,note_on,91,0,0
1,note_on,91,57,120
1,note_on,87,57,0
1,note_on,87,0,120
1,note_on,91,0,0
1,note_on,91,51,120
1,note_on,87,51,0
1,note_on,87,0,120
1,note_on,91,0,0
1,note_on,91,52,120
1,note_on,87,52,0
1,note_on,87,0,120
1,note_on,91,0,0
1,note_on,89,64,120
1,note_on,86,64,0
1,note_on,86,0,120
1,note_on,89,0,0
1,note_on,89,50,120
1,note_on,86,50,0
1,note_on,86,0,120
1,note_on,89,0,0
1,note_on,89,49,120
1,note_on,86,49,0
1,note_on,86,0,120
1,note_on,89,0,0
1,note_on,86,58,120
1,note_on,89,58,0
1,note_on,89,0,120
1,note_on,86,0,0
1,note_on,86,49,120
1,note_on,89,49,0
1,note_on,89,0,120
1,note_on,86,0,0
1,note_on,86,48,120
1,note_on,89,48,0
1,note_on,89,0,120
1,note_on,86,0,0
1,note_on,85,68,600
1,note_on,97,80,0
1,note_on,97,0,720
1,note_on,85,0,0
1,note_on,96,77,0
1,note_on,84,64,0
1,note_on,84,0,240
1,note_on,96,0,0
1,note_on,71,69,480
1,note_on,83,81,0
1,note_on,83,0,720
1,note_on,71,0,0
1,note_on,70,67,0
1,note_on,82,80,0
1,note_on,82,0,240
1,note_on,70,0,0
1,note_on,61,73,480
1,note_on,73,86,0
1,note_on,73,0,720
1,note_on,61,0,0
1,note_on,60,63,0
1,note_on,72,77,0
1,note_on,72,0,240
1,note_on,60,0,0
1,note_on,47,78,480
1,note_on,59,92,0
1,note_on,59,0,720
1,note_on,47,0,0
1,note_on,46,75,0
1,note_on,58,90,0
1,note_on,58,0,240
1,note_on,46,0,0
1,note_on,70,71,240
1,note_on,58,60,0
1,note_on,58,0,120
1,note_on,70,0,0
1,note_on,70,68,120
1,note_on,58,57,0
1,note_on,58,0,120
1,note_on,70,0,0
1,note_on,68,69,360
1,note_on,56,58,0
1,note_on,56,0,120
1,note_on,68,0,0
1,note_on,67,65,120
1,note_on,55,55,0
1,note_on,55,0,120
1,note_on,67,0,0
1,note_on,67,71,360
1,note_on,55,60,0
1,note_on,55,0,120
1,note_on,67,0,0
1,note_on,65,68,120
1,note_on,53,57,0
1,note_on,53,0,120
1,note_on,65,0,0
1,note_on,63,69,360
1,note_on,51,58,0
1,note_on,51,0,120
1,note_on,63,0,0
1,note_on,62,65,120
1,note_on,50,55,0
1,note_on,50,0,120
1,note_on,62,0,0
1,note_on,82,71,360
1,note_on,70,60,0
1,note_on,70,0,120
1,note_on,82,0,0
1,note_on,82,68,120
1,note_on,70,57,0
1,note_on,70,0,120
1,note_on,82,0,0
1,note_on,80,69,360
1,note_on,68,58,0
1,note_on,68,0,120
1,note_on,80,0,0
1,note_on,79,65,120
1,note_on,67,55,0
1,note_on,67,0,120
1,note_on,79,0,0
1,note_on,79,71,360
1,note_on,67,60,0
1,note_on,67,0,120
1,note_on,79,0,0
1,note_on,77,68,120
1,note_on,65,57,0
1,note_on,65,0,120
1,note_on,77,0,0
1,note_on,75,69,360
1,note_on,63,58,0
1,note_on,63,0,120
1,note_on,75,0,0
1,note_on,74,65,120
1,note_on,62,55,0
1,note_on,62,0,120
1,note_on,74,0,0
1,note_on,75,71,360
1,note_on,67,60,0
1,note_on,63,60,0
1,note_on,63,0,120
1,note_on,67,0,0
1,note_on,75,0,0
1,note_on,70,69,120
1,note_on,67,58,0
1,note_on,63,58,0
1,note_on,63,0,120
1,note_on,67,0,0
1,note_on,70,0,0
1,note_on,60,74,360
1,note_on,68,72,0
1,note_on,63,60,0
1,note_on,63,0,120
1,note_on,68,0,0
1,note_on,60,0,0
1,note_on,67,68,120
1,note_on,63,58,0
1,note_on,60,58,0
1,note_on,60,0,120
1,note_on,63,0,0
1,note_on,67,0,0
1,note_on,67,76,360
1,note_on,60,64,0
1,note_on,56,64,0
1,note_on,56,0,120
1,note_on,60,0,0
1,note_on,67,0,0
1,note_on,65,74,120
1,note_on,60,62,0
1,note_on,56,62,0
1,note_on,56,0,120
1,note_on,60,0,0
1,note_on,65,0,0
1,note_on,53,79,360
1,note_on,63,77,0
1,note_on,56,64,0
1,note_on,56,0,120
1,note_on,63,0,0
1,note_on,53,0,0
1,note_on,62,73,120
1,note_on,56,62,0
1,note_on,53,62,0
1,note_on,53,0,120
1,note_on,56,0,0
1,note_on,62,0,0
1,note_on,51,62,120
1,note_on,51,0,120
1,note_on,53,63,0
1,note_on,53,0,120
1,note_on,55,65,0
1,note_on,55,0,120
1,note_on,56,66,0
1,note_on,56,0,120
1,note_on,58,67,0
1,note_on,58,0,80
1,note_on,60,68,0
1,note_on,60,0,80
1,note_on,62,68,0
1,note_on,62,0,80
1,note_on,63,69,0
1,note_on,63,0,80
1,note_on,65,70,0
1,note_on,65,0,80
1,note_on,67,71,0
1,note_on,67,0,80
1,note_on,68,72,0
1,note_on,68,0,80
1,note_on,70,72,0
1,note_on,70,0,80
1,note_on,72,73,0
1,note_on,72,0,80
1,note_on,74,85,0
1,note_on,74,0,120
1,note_on,62,67,0
1,note_on,62,0,120
1,note_on,63,62,0
1,note_on,63,0,120
1,note_on,65,63,0
1,note_on,65,0,120
1,note_on,67,65,0
1,note_on,67,0,120
1,note_on,68,66,0
1,note_on,68,0,120
1,note_on,70,67,0
1,note_on,70,0,80
1,note_on,72,68,0
1,note_on,72,0,80
1,note_on,74,68,0
1,note_on,74,0,80
1,note_on,75,69,0
1,note_on,75,0,80
1,note_on,77,70,0
1,note_on,77,0,80
1,note_on,79,71,0
1,note_on,79,0,80
1,note_on,80,72,0
1,note_on,80,0,80
1,note_on,82,72,0
1,note_on,82,0,80
1,note_on,84,73,0
1,note_on,84,0,80
1,note_on,86,85,0
1,note_on,86,0,120
1,note_on,74,67,0
1,note_on,74,0,120
1,note_on,75,62,0
1,note_on,75,0,120
1,note_on,77,63,0
1,note_on,77,0,120
1,note_on,79,65,0
1,note_on,79,0,120
1,note_on,80,66,0
1,note_on,80,0,120
1,note_on,82,68,0
1,note_on,82,0,80
1,note_on,84,70,0
1,note_on,84,0,80
1,note_on,86,72,0
1,note_on,86,0,80
1,note_on,87,74,0
1,note_on,87,0,120
1,note_on,89,78,0
1,note_on,89,0,120
1,note_on,91,82,0
1,note_on,91,0,120
1,note_on,92,86,0
1,note_on,92,0,120
1,note_on,94,90,0
1,note_on,94,0,80
1,note_on,96,92,0
1,note_on,96,0,80
1,note_on,98,95,0
1,note_on,98,0,80
1,note_on,99,103,0
1,note_on,99,0,480
1,note_on,67,75,240
1,note_on,70,75,0
1,note_on,75,90,0
1,note_on,75,0,480
1,note_on,70,0,0
1,note_on,67,0,0
1,note_on,55,74,240
1,note_on,58,74,0
1,note_on,63,89,0
1,note_on,63,0,480
1,note_on,58,0,0
1,note_on,55,0,0
1,note_on,70,70,240
1,note_on,70,0,480
1,note_on,70,60,0
1,note_on,70,0,240
1,note_on,70,45,0
1,note_on,70,0,240
1,note_on,67,45,0
1,note_on,67,0,240
1,note_on,63,39,0
1,note_on,63,0,240
1,note_on,62,45,0
1,note_on,62,0,240
1,note_on,65,40,0
1,note_on,65,0,240
1,note_on,70,40,0
1,note_on,70,0,180
1,note_on,70,45,60
1,note_on,70,0,240
1,note_on,67,41,0
1,note_on,67,0,240
1,note_on,63,41,0
1,note_on,63,0,240
1,note_on,64,45,0
1,note_on,64,0,240
1,note_on,67,39,0
1,note_on,67,0,240
1,note_on,72,46,0
1,note_on,72,0,180
1,note_on,72,50,60
1,note_on,72,0,240
1,note_on,68,45,0
1,note_on,68,0,240
1,note_on,65,45,0
1,note_on,65,0,240
1,note_on,66,49,0
1,note_on,66,0,240
1,note_on,69,44,0
1,note_on,69,0,240
1,note_on,74,47,0
1,note_on,74,0,180
1,note_on,74,56,60
1,note_on,74,0,240
1,note_on,70,45,0
1,note_on,70,0,240
1,note_on,67,45,0
1,note_on,67,0,240
1,note_on,68,51,0
1,note_on,68,0,240
1,note_on,70,45,0
1,note_on,70,0,240
1,note_on,74,45,0
1,note_on,74,0,180
1,note_on,75,50,60
1,note_on,75,0,240
1,note_on,70,43,0
1,note_on,70,0,240
1,note_on,67,43,0
1,note_on,67,0,180
1,note_on,67,45,60
1,note_on,67,0,240
1,note_on,70,41,0
1,note_on,70,0,240
1,note_on,75,41,0
1,note_on,75,0,180
1,note_on,79,50,60
1,note_on,79,0,240
1,note_on,75,43,0
1,note_on,75,0,240
1,note_on,70,44,0
1,note_on,70,0,180
1,note_on,70,47,60
1,note_on,70,0,240
1,note_on,75,43,0
1,note_on,75,0,240
1,note_on,79,44,0
1,note_on,79,0,180
1,note_on,79,46,60
1,note_on,82,55,0
1,note_on,82,0,240
1,note_on,79,0,0
1,note_on,75,39,0
1,note_on,79,47,0
1,note_on,79,0,240
1,note_on,75,0,0
1,note_on,75,48,0
1,note_on,70,40,0
1,note_on,70,0,240
1,note_on,75,0,0
1,note_on,79,51,0
1,note_on,75,43,0
1,note_on,75,0,240
1,note_on,79,0,0
1,note_on,70,39,0
1,note_on,75,47,0
1,note_on,75,0,240
1,note_on,70,0,0
1,note_on,67,40,0
1,note_on,70,48,0
1,note_on,70,0,180
1,note_on,67,0,0
1,note_on,70,50,60
1,note_on,75,60,0
1,note_on,75,0,240
1,note_on,70,0,0
1,note_on,67,43,0
1,note_on,70,52,0
1,note_on,70,0,240
1,note_on,67,0,0
1,note_on,67,52,0
1,note_on,63,44,0
1,note_on,63,0,240
1,note_on,67,0,0
1,note_on,70,54,0
1,note_on,70,0,240
1,note_on,60,38,0
1,note_on,68,46,0
1,note_on,68,0,240
1,note_on,60,0,0
1,note_on,62,36,0
1,note_on,65,43,0
1,note_on,65,0,180
1,note_on,62,0,0
1,note_on,67,54,60
1,note_on,75,54,0
1,note_on,75,0,120
1,note_on,67,0,0
1,note_on,74,46,0
1,note_on,74,0,120
1,note_on,75,46,0
1,note_on,75,0,120
1,note_on,70,42,0
1,note_on,70,0,120
1,note_on,67,54,0
1,note_on,67,0,120
1,note_on,68,47,60
1,note_on,68,0,60
1,note_on,67,54,0
1,note_on,67,0,120
1,note_on,66,43,0
1,note_on,66,0,120
1,note_on,67,48,0
1,note_on,67,0,120
1,note_on,70,43,0
1,note_on,70,0,120
1,note_on,75,56,0
1,note_on,75,0,120
1,note_on,67,48,120
1,note_on,79,54,0
1,note_on,79,0,120
1,note_on,78,46,0
1,note_on,78,0,120
1,note_on,79,46,0
1,note_on,79,0,120
1,note_on,75,42,0
1,note_on,75,0,120
1,note_on,70,54,0
1,note_on,70,0,120
1,note_on,72,47,60
1,note_on,72,0,60
1,note_on,67,0,0
1,note_on,70,54,0
1,note_on,70,0,120
1,note_on,69,43,0
1,note_on,69,0,120
1,note_on,70,48,0
1,note_on,70,0,120
1,note_on,75,43,0
1,note_on,75,0,120
1,note_on,79,56,0
1,note_on,79,0,120
1,note_on,82,54,120
1,note_on,79,45,0
1,note_on,79,0,120
1,note_on,82,0,0
1,note_on,84,50,0
1,note_on,80,42,0
1,note_on,80,0,120
1,note_on,84,0,0
1,note_on,82,55,0
1,note_on,79,45,0
1,note_on,79,0,120
1,note_on,82,0,0
1,note_on,79,49,0
1,note_on,75,41,0
1,note_on,75,0,120
1,note_on,79,0,0
1,note_on,67,47,0
1,note_on,75,56,0
1,note_on,75,0,240
1,note_on,67,0,0
1,note_on,79,57,0
1,note_on,75,48,0
1,note_on,75,0,120
1,note_on,79,0,0
1,note_on,80,54,0
1,note_on,80,0,120
1,note_on,79,59,0
1,note_on,75,49,0
1,note_on,75,0,120
1,note_on,79,0,0
1,note_on,75,53,0
1,note_on,70,44,0
1,note_on,70,0,120
1,note_on,75,0,0
1,note_on,67,50,0
1,note_on,70,60,0
1,note_on,70,0,240
1,note_on,67,0,0
1,note_on,75,62,0
1,note_on,67,51,0
1,note_on,67,0,120
1,note_on,75,0,0
1,note_on,77,56,0
1,note_on,77,0,120
1,note_on,75,59,0
1,note_on,67,49,0
1,note_on,67,0,120
1,note_on,75,0,0
1,note_on,70,51,0
1,note_on,67,43,0
1,note_on,67,0,120
1,note_on,70,0,0
1,note_on,63,47,0
1,note_on,67,56,0
1,note_on,67,0,240
1,note_on,63,0,0
1,note_on,70,54,0
1,note_on,70,0,240
1,note_on,60,38,0
1,note_on,68,46,0
1,note_on,68,0,240
1,note_on,60,0,0
1,note_on,62,36,0
1,note_on,65,43,0
1,note_on,65,0,180
1,note_on,62,0,0
1,note_on,79,46,180
1,note_on,82,55,0
1,note_on,82,0,240
1,note_on,79,0,0
1,note_on,75,39,0
1,note_on,79,47,0
1,note_on,79,0,238
1,note_on,75,0,0
1,note_on,75,48,2
1,note_on,70,40,0
1,note_on,70,0,238
1,note_on,75,0,0
1,note_on,79,51,2
1,note_on,75,43,0
1,note_on,75,0,238
1,note_on,79,0,0
1,note_on,70,39,2
1,note_on,75,47,0
1,note_on,75,0,238
1,note_on,70,0,0
1,note_on,67,40,2
1,note_on,70,48,0
1,note_on,70,0,238
1,note_on,67,0,0
1,note_on,70,50,2
1,note_on,75,60,0
1,note_on,75,0,238
1,note_on,70,0,0
1,note_on,67,43,2
1,note_on,70,52,0
1,note_on,70,0,238
1,note_on,67,0,0
1,note_on,67,52,2
1,note_on,67,0,238
1,note_on,62,46,2
1,note_on,70,54,0
1,note_on,70,0,238
1,note_on,62,0,0
1,note_on,62,38,2
1,note_on,68,46,0
1,note_on,68,0,238
1,note_on,62,0,0
1,note_on,62,36,2
1,note_on,65,43,0
1,note_on,65,0,120
1,note_on,62,0,0
1,note_on,82,80,0
1,note_on,82,0,120
1,note_on,94,63,0
1,note_on,94,0,120
1,note_on,79,69,0
1,note_on,79,0,120
1,note_on,91,64,0
1,note_on,91,0,120
1,note_on,75,69,0
1,note_on,75,0,120
1,note_on,87,64,0
1,note_on,87,0,120
1,note_on,79,80,0
1,note_on,79,0,120
1,note_on,91,64,0
1,note_on,91,0,120
1,note_on,75,69,0
1,note_on,75,0,120
1,note_on,87,64,0
1,note_on,87,0,120
1,note_on,70,69,0
1,note_on,70,0,120
1,note_on,82,65,0
1,note_on,82,0,120
1,note_on,75,80,0
1,note_on,75,0,120
1,note_on,87,65,0
1,note_on,87,0,120
1,note_on,70,70,0
1,note_on,70,0,120
1,note_on,82,65,0
1,note_on,82,0,120
1,note_on,67,70,0
1,note_on,67,0,120
1,note_on,79,66,0
1,note_on,79,0,120
1,note_on,70,80,0
1,note_on,70,0,120
1,note_on,82,64,0
1,note_on,82,0,120
1,note_on,68,69,0
1,note_on,68,0,120
1,note_on,80,65,0
1,note_on,80,0,120
1,note_on,65,69,0
1,note_on,65,0,120
1,note_on,77,66,0
1,note_on,77,0,120
1,note_on,63,80,0
1,note_on,63,0,120
1,note_on,75,65,0
1,note_on,75,0,120
1,note_on,67,70,0
1,note_on,67,0,120
1,note_on,79,66,0
1,note_on,79,0,120
1,note_on,67,71,0
1,note_on,67,0,120
1,note_on,79,67,0
1,note_on,79,0,120
1,note_on,67,82,0
1,note_on,67,0,120
1,note_on,79,66,0
1,note_on,79,0,120
1,note_on,70,72,0
1,note_on,70,0,120
1,note_on,82,68,0
1,note_on,82,0,120
1,note_on,70,73,0
1,note_on,70,0,120
1,note_on,82,69,0
1,note_on,82,0,120
1,note_on,70,85,0
1,note_on,70,0,120
1,note_on,82,70,0
1,note_on,82,0,120
1,note_on,75,75,0
1,note_on,75,0,120
1,note_on,87,70,0
1,note_on,87,0,120
1,note_on,75,76,0
1,note_on,75,0,120
1,note_on,87,72,0
1,note_on,87,0,120
1,note_on,75,88,0
1,note_on,75,0,120
1,note_on,87,77,0
1,note_on,87,0,120
1,note_on,79,88,0
1,note_on,79,0,120
1,note_on,91,81,0
1,note_on,91,0,120
1,note_on,82,92,0
1,note_on,82,0,120
1,note_on,94,84,0
1,note_on,94,0,120
1,note_on,87,101,0
1,note_on,99,109,0
1,note_on,99,0,480
1,note_on,87,0,0
1,note_on,74,88,240
1,note_on,68,74,0
1,note_on,65,74,0
1,note_on,70,74,0
1,note_on,70,0,480
1,note_on,74,0,0
1,note_on,68,0,0
1,note_on,65,0,0
1,note_on,67,77,240
1,note_on,70,80,0
1,note_on,75,95,0
1,note_on,75,0,480
1,note_on,70,0,0
1,note_on,67,0,0
2,note_on,65,66,0
2,note_on,68,75,0
2,note_on,62,66,0
2,note_on,58,66,0
2,note_on,58,0,120
2,note_on,65,0,0
2,note_on,68,0,0
2,note_on,62,0,0
2,note_on,46,60,120
2,note_on,46,0,120
2,note_on,50,50,0
2,note_on,50,0,120
2,note_on,46,60,0
2,note_on,46,0,120
2,note_on,50,51,0
2,note_on,50,0,120
2,note_on,50,59,0
2,note_on,50,0,120
2,note_on,53,52,0
2,note_on,53,0,120
2,note_on,50,59,0
2,note_on,50,0,120
2,note_on,53,52,0
2,note_on,53,0,120
2,note_on,50,59,0
2,note_on,50,0,120
2,note_on,53,51,0
2,note_on,53,0,120
2,note_on,53,59,0
2,note_on,53,0,120
2,note_on,56,51,0
2,note_on,56,0,120
2,note_on,53,59,0
2,note_on,53,0,120
2,note_on,56,50,0
2,note_on,56,0,120
2,note_on,53,58,0
2,note_on,53,0,120
2,note_on,56,50,0
2,note_on,56,0,120
2,note_on,58,58,0
2,note_on,58,0,120
2,note_on,62,50,0
2,note_on,62,0,120
2,note_on,58,58,0
2,note_on,58,0,120
2,note_on,62,50,0
2,note_on,62,0,120
2,note_on,58,58,0
2,note_on,58,0,120
2,note_on,62,51,0
2,note_on,62,0,120
2,note_on,62,57,0
2,note_on,62,0,120
2,note_on,65,50,0
2,note_on,65,0,120
2,note_on,62,57,0
2,note_on,62,0,120
2,note_on,65,49,0
2,note_on,65,0,120
2,note_on,62,57,0
2,note_on,62,0,120
2,note_on,65,48,0
2,note_on,65,0,120
2,note_on,65,57,0
2,note_on,65,0,120
2,note_on,68,48,0
2,note_on,68,0,120
2,note_on,65,57,0
2,note_on,65,0,120
2,note_on,68,49,0
2,note_on,68,0,120
2,note_on,65,56,0
2,note_on,65,0,120
2,note_on,68,50,0
2,note_on,68,0,120
2,note_on,74,56,0
2,note_on,74,0,120
2,note_on,77,49,0
2,note_on,77,0,120
2,note_on,74,56,0
2,note_on,74,0,120
2,note_on,77,47,0
2,note_on,77,0,120
2,note_on,74,56,0
2,note_on,74,0,120
2,note_on,77,47,0
2,note_on,77,0,120
2,note_on,77,56,0
2,note_on,77,0,120
2,note_on,80,47,0
2,note_on,80,0,120
2,note_on,77,55,0
2,note_on,77,0,120
2,note_on,80,48,0
2,note_on,80,0,120
2,note_on,77,55,0
2,note_on,77,0,120
2,note_on,80,49,0
2,note_on,80,0,120
2,note_on,77,33,480
2,note_on,80,33,0
2,note_on,80,0,240
2,note_on,74,38,0
2,note_on,74,0,480
2,note_on,77,0,0
2,note_on,80,32,720
2,note_on,77,32,0
2,note_on,80,0,240
2,note_on,74,36,0
2,note_on,74,0,480
2,note_on,77,0,0
2,note_on,68,30,720
2,note_on,65,30,0
2,note_on,68,0,240
2,note_on,62,34,0
2,note_on,62,0,480
2,note_on,65,0,0
2,note_on,65,28,720
2,note_on,68,28,0
2,note_on,68,0,240
2,note_on,62,31,0
2,note_on,62,0,480
2,note_on,65,0,0
2,note_on,58,75,240
2,note_on,50,66,0
2,note_on,46,66,0
2,note_on,53,66,0
2,note_on,53,0,120
2,note_on,58,0,0
2,note_on,50,0,0
2,note_on,46,0,0
2,note_on,46,60,120
2,note_on,46,0,120
2,note_on,46,59,120
2,note_on,46,0,120
2,note_on,50,57,120
2,note_on,50,0,120
2,note_on,53,56,120
2,note_on,53,0,120
2,note_on,58,54,120
2,note_on,58,0,120
2,note_on,62,54,120
2,note_on,62,0,120
2,note_on,65,54,120
2,note_on,65,0,120
2,note_on,68,52,120
2,note_on,70,52,0
2,note_on,70,0,120
2,note_on,68,0,0
2,note_on,70,50,120
2,note_on,68,50,0
2,note_on,68,0,120
2,note_on,70,0,0
2,note_on,68,49,120
2,note_on,70,49,0
2,note_on,70,0,120
2,note_on,68,0,0
2,note_on,70,48,120
2,note_on,68,48,0
2,note_on,68,0,120
2,note_on,70,0,0
2,note_on,63,34,120
2,note_on,67,34,0
2,note_on,70,40,0
2,note_on,70,0,480
2,note_on,67,0,0
2,note_on,63,0,0
2,note_on,65,28,240
2,note_on,68,28,0
2,note_on,58,28,0
2,note_on,70,34,0
2,note_on,70,0,480
2,note_on,65,0,0
2,note_on,68,0,0
2,note_on,58,0,0
2,note_on,63,34,240
2,note_on,70,40,0
2,note_on,67,34,0
2,note_on,67,0,480
2,note_on,70,0,0
2,note_on,63,0,0
2,note_on,64,28,720
2,note_on,67,28,0
2,note_on,70,28,0
2,note_on,72,34,0
2,note_on,72,0,180
2,note_on,64,0,0
2,note_on,67,0,0
2,note_on,70,0,0
2,note_on,68,34,60
2,note_on,65,34,0
2,note_on,72,40,0
2,note_on,72,0,480
2,note_on,65,0,0
2,note_on,68,0,0
2,note_on,72,34,240
2,note_on,70,28,0
2,note_on,60,28,0
2,note_on,67,28,0
2,note_on,67,0,480
2,note_on,72,0,0
2,note_on,70,0,0
2,note_on,60,0,0
2,note_on,65,34,240
2,note_on,68,34,0
2,note_on,72,40,0
2,note_on,72,0,480
2,note_on,68,0,0
2,note_on,65,0,0
2,note_on,65,31,720
2,note_on,62,31,0
2,note_on,68,31,0
2,note_on,70,37,0
2,note_on,70,0,180
2,note_on,65,0,0
2,note_on,62,0,0
2,note_on,68,0,0
2,note_on,67,33,60
2,note_on,70,39,0
2,note_on,63,33,0
2,note_on,63,0,480
2,note_on,70,0,0
2,note_on,67,0,0
2,note_on,56,29,240
2,note_on,60,29,0
2,note_on,65,35,0
2,note_on,65,0,480
2,note_on,60,0,0
2,note_on,56,0,0
2,note_on,63,35,240
2,note_on,58,35,0
2,note_on,67,42,0
2,note_on,67,0,480
2,note_on,58,0,0
2,note_on,63,0,0
2,note_on,58,33,240
2,note_on,65,39,0
2,note_on,62,33,0
2,note_on,62,0,480
2,note_on,65,0,0
2,note_on,58,0,0
2,note_on,58,39,0
2,note_on,58,0,180
2,note_on,58,49,60
2,note_on,58,0,240
2,note_on,55,49,0
2,note_on,55,0,240
2,note_on,51,42,0
2,note_on,51,0,240
2,note_on,50,49,0
2,note_on,50,0,240
2,note_on,53,45,0
2,note_on,53,0,240
2,note_on,58,45,0
2,note_on,58,0,180
2,note_on,58,51,60
2,note_on,58,0,240
2,note_on,55,47,0
2,note_on,55,0,240
2,note_on,51,47,0
2,note_on,51,0,180
2,note_on,51,52,60
2,note_on,51,0,240
2,note_on,55,46,0
2,note_on,55,0,240
2,note_on,52,49,0
2,note_on,60,60,0
2,note_on,60,0,180
2,note_on,52,0,0
2,note_on,60,66,60
2,note_on,53,53,0
2,note_on,53,0,240
2,note_on,60,0,0
2,note_on,56,53,0
2,note_on,56,0,240
2,note_on,53,53,0
2,note_on,53,0,240
2,note_on,52,59,0
2,note_on,52,0,240
2,note_on,55,53,0
2,note_on,55,0,240
2,note_on,60,58,0
2,note_on,60,0,180
2,note_on,60,70,60
2,note_on,60,0,240
2,note_on,56,56,0
2,note_on,56,0,240
2,note_on,53,57,0
2,note_on,53,0,240
2,note_on,50,64,0
2,note_on,50,0,240
2,note_on,53,58,0
2,note_on,53,0,240
2,note_on,50,53,0
2,note_on,58,63,0
2,note_on,58,0,180
2,note_on,50,0,0
2,note_on,58,72,60
2,note_on,51,61,0
2,note_on,51,0,240
2,note_on,58,0,0
2,note_on,55,56,0
2,note_on,55,0,240
2,note_on,51,57,0
2,note_on,51,0,240
2,note_on,44,50,0
2,note_on,48,59,0
2,note_on,48,0,240
2,note_on,44,0,0
2,note_on,53,55,0
2,note_on,53,0,240
2,note_on,56,55,0
2,note_on,56,0,180
2,note_on,46,61,60
2,note_on,46,0,240
2,note_on,51,56,0
2,note_on,51,0,240
2,note_on,55,56,0
2,note_on,55,0,180
2,note_on,46,62,60
2,note_on,46,0,240
2,note_on,50,56,0
2,note_on,50,0,240
2,note_on,58,56,0
2,note_on,46,56,0
2,note_on,46,0,180
2,note_on,58,0,0
2,note_on,46,63,60
2,note_on,46,0,240
2,note_on,43,63,0
2,note_on,43,0,240
2,note_on,39,55,0
2,note_on,39,0,240
2,note_on,38,63,0
2,note_on,38,0,240
2,note_on,41,57,0
2,note_on,41,0,240
2,note_on,46,57,0
2,note_on,46,0,180
2,note_on,46,63,60
2,note_on,46,0,240
2,note_on,43,58,0
2,note_on,43,0,240
2,note_on,39,58,0
2,note_on,39,0,180
2,note_on,39,63,60
2,note_on,39,0,240
2,note_on,43,55,0
2,note_on,43,0,240
2,note_on,40,58,0
2,note_on,48,70,0
2,note_on,48,0,180
2,note_on,40,0,0
2,note_on,48,78,60
2,note_on,41,63,0
2,note_on,41,0,240
2,note_on,48,0,0
2,note_on,44,63,0
2,note_on,44,0,240
2,note_on,41,63,0
2,note_on,41,0,240
2,note_on,40,69,0
2,note_on,40,0,240
2,note_on,43,62,0
2,note_on,43,0,240
2,note_on,48,73,0
2,note_on,48,0,180
2,note_on,48,86,60
2,note_on,48,0,240
2,note_on,44,63,0
2,note_on,44,0,240
2,note_on,41,63,0
2,note_on,41,0,240
2,note_on,38,72,0
2,note_on,38,0,240
2,note_on,41,63,0
2,note_on,41,0,240
2,note_on,38,58,0
2,note_on,46,69,0
2,note_on,46,0,180
2,note_on,38,0,0
2,note_on,39,66,60
2,note_on,46,78,0
2,note_on,46,0,240
2,note_on,39,0,0
2,note_on,43,60,0
2,note_on,43,0,240
2,note_on,39,60,0
2,note_on,39,0,240
2,note_on,32,53,0
2,note_on,36,63,0
2,note_on,36,0,240
2,note_on,41,58,0
2,note_on,41,0,240
2,note_on,32,0,0
2,note_on,44,63,0
2,note_on,44,0,180
2,note_on,34,69,60
2,note_on,34,0,240
2,note_on,39,58,0
2,note_on,39,0,240
2,note_on,43,58,0
2,note_on,43,0,180
2,note_on,34,63,60
2,note_on,34,0,240
2,note_on,41,57,0
2,note_on,41,0,240
2,note_on,46,57,0
2,note_on,46,0,180
2,note_on,39,73,60
2,note_on,39,0,120
2,note_on,55,62,120
2,note_on,51,49,0
2,note_on,51,0,120
2,note_on,55,0,0
2,note_on,58,62,120
2,note_on,51,49,0
2,note_on,55,49,0
2,note_on,55,0,120
2,note_on,51,0,0
2,note_on,58,0,0
2,note_on,55,49,120
2,note_on,63,62,0
2,note_on,58,49,0
2,note_on,51,49,0
2,note_on,51,0,120
2,note_on,55,0,0
2,note_on,63,0,0
2,note_on,58,0,0
2,note_on,51,49,120
2,note_on,63,62,0
2,note_on,58,49,0
2,note_on,55,49,0
2,note_on,55,0,120
2,note_on,51,0,0
2,note_on,63,0,0
2,note_on,58,0,0
2,note_on,58,49,120
2,note_on,63,62,0
2,note_on,51,49,0
2,note_on,55,49,0
2,note_on,55,0,120
2,note_on,58,0,0
2,note_on,63,0,0
2,note_on,51,0,0
2,note_on,63,70,120
2,note_on,55,56,0
2,note_on,58,56,0
2,note_on,51,56,0
2,note_on,51,0,120
2,note_on,63,0,0
2,note_on,55,0,0
2,note_on,58,0,0
2,note_on,58,49,120
2,note_on,63,62,0
2,note_on,51,49,0
2,note_on,55,49,0
2,note_on,55,0,120
2,note_on,58,0,0
2,note_on,63,0,0
2,note_on,51,0,0
2,note_on,55,49,120
2,note_on,63,62,0
2,note_on,58,49,0
2,note_on,51,49,0
2,note_on,51,0,120
2,note_on,55,0,0
2,note_on,63,0,0
2,note_on,58,0,0
2,note_on,53,49,120
2,note_on,62,62,0
2,note_on,56,49,0
2,note_on,58,49,0
2,note_on,51,49,0
2,note_on,51,0,120
2,note_on,56,0,0
2,note_on,53,0,0
2,note_on,62,0,0
2,note_on,58,0,0
2,note_on,53,49,120
2,note_on,62,62,0
2,note_on,58,49,0
2,note_on,56,49,0
2,note_on,51,49,0
2,note_on,51,0,120
2,note_on,58,0,0
2,note_on,53,0,0
2,note_on,62,0,0
2,note_on,56,0,0
2,note_on,53,49,120
2,note_on,62,62,0
2,note_on,58,49,0
2,note_on,56,49,0
2,note_on,51,49,0
2,note_on,51,0,120
2,note_on,58,0,0
2,note_on,53,0,0
2,note_on,62,0,0
2,note_on,56,0,0
2,note_on,51,57,120
2,note_on,63,72,0
2,note_on,58,57,0
2,note_on,55,57,0
2,note_on,55,0,120
2,note_on,51,0,0
2,note_on,63,0,0
2,note_on,58,0,0
2,note_on,58,49,120
2,note_on,63,62,0
2,note_on,51,49,0
2,note_on,55,49,0
2,note_on,55,0,120
2,note_on,58,0,0
2,note_on,63,0,0
2,note_on,51,0,0
2,note_on,63,62,120
2,note_on,55,49,0
2,note_on,58,49,0
2,note_on,51,49,0
2,note_on,51,0,120
2,note_on,63,0,0
2,note_on,55,0,0
2,note_on,58,0,0
2,note_on,58,49,120
2,note_on,63,62,0
2,note_on,51,49,0
2,note_on,55,49,0
2,note_on,55,0,120
2,note_on,58,0,0
2,note_on,63,0,0
2,note_on,51,0,0
2,note_on,55,49,120
2,note_on,63,62,0
2,note_on,58,49,0
2,note_on,51,49,0
2,note_on,51,0,120
2,note_on,55,0,0
2,note_on,63,0,0
2,note_on,58,0,0
2,note_on,51,49,120
2,note_on,63,62,0
2,note_on,58,49,0
2,note_on,55,49,0
2,note_on,55,0,120
2,note_on,51,0,0
2,note_on,63,0,0
2,note_on,58,0,0
2,note_on,58,55,120
2,note_on,63,69,0
2,note_on,51,55,0
2,note_on,55,55,0
2,note_on,55,0,120
2,note_on,58,0,0
2,note_on,63,0,0
2,note_on,51,0,0
2,note_on,63,61,120
2,note_on,55,48,0
2,note_on,58,48,0
2,note_on,51,48,0
2,note_on,51,0,120
2,note_on,63,0,0
2,note_on,55,0,0
2,note_on,58,0,0
2,note_on,58,48,120
2,note_on,63,61,0
2,note_on,51,48,0
2,note_on,55,48,0
2,note_on,55,0,120
2,note_on,58,0,0
2,note_on,63,0,0
2,note_on,51,0,0
2,note_on,53,48,120
2,note_on,58,61,0
2,note_on,56,48,0
2,note_on,51,48,0
2,note_on,51,0,120
2,note_on,53,0,0
2,note_on,58,0,0
2,note_on,56,0,0
2,note_on,51,48,120
2,note_on,58,61,0
2,note_on,56,48,0
2,note_on,53,48,0
2,note_on,53,0,120
2,note_on,51,0,0
2,note_on,58,0,0
2,note_on,56,0,0
2,note_on,56,48,120
2,note_on,58,61,0
2,note_on,51,48,0
2,note_on,53,48,0
2,note_on,53,0,120
2,note_on,56,0,0
2,note_on,58,0,0
2,note_on,51,0,0
2,note_on,39,73,120
2,note_on,39,0,120
2,note_on,51,49,120
2,note_on,55,62,0
2,note_on,55,0,120
2,note_on,51,0,0
2,note_on,51,49,120
2,note_on,58,62,0
2,note_on,55,49,0
2,note_on,55,0,120
2,note_on,58,0,0
2,note_on,51,0,0
2,note_on,58,49,120
2,note_on,63,62,0
2,note_on,51,49,0
2,note_on,55,49,0
2,note_on,55,0,120
2,note_on,58,0,0
2,note_on,63,0,0
2,note_on,51,0,0
2,note_on,63,62,120
2,note_on,55,49,0
2,note_on,58,49,0
2,note_on,51,49,0
2,note_on,51,0,120
2,note_on,63,0,0
2,note_on,55,0,0
2,note_on,58,0,0
2,note_on,58,49,120
2,note_on,63,62,0
2,note_on,51,49,0
2,note_on,55,49,0
2,note_on,55,0,120
2,note_on,58,0,0
2,note_on,63,0,0
2,note_on,51,0,0
2,note_on,55,56,120
2,note_on,63,70,0
2,note_on,58,56,0
2,note_on,51,56,0
2,note_on,51,0,120
2,note_on,55,0,0
2,note_on,63,0,0
2,note_on,58,0,0
2,note_on,58,49,120
2,note_on,51,49,0
2,note_on,55,49,0
2,note_on,63,62,0
2,note_on,63,0,120
2,note_on,58,0,0
2,note_on,51,0,0
2,note_on,55,0,0
2,note_on,55,49,120
2,note_on,51,49,0
2,note_on,58,49,0
2,note_on,63,62,0
2,note_on,63,0,120
2,note_on,55,0,0
2,note_on,51,0,0
2,note_on,58,0,0
2,note_on,62,62,120
2,note_on,53,49,0
2,note_on,51,49,0
2,note_on,58,49,0
2,note_on,56,49,0
2,note_on,56,0,120
2,note_on,51,0,0
2,note_on,62,0,0
2,note_on,53,0,0
2,note_on,58,0,0
2,note_on,62,62,120
2,note_on,53,49,0
2,note_on,51,49,0
2,note_on,56,49,0
2,note_on,58,49,0
2,note_on,58,0,120
2,note_on,51,0,0
2,note_on,62,0,0
2,note_on,53,0,0
2,note_on,56,0,0
2,note_on,62,62,120
2,note_on,53,49,0
2,note_on,51,49,0
2,note_on,56,49,0
2,note_on,58,49,0
2,note_on,58,0,120
2,note_on,51,0,0
2,note_on,62,0,0
2,note_on,53,0,0
2,note_on,56,0,0
2,note_on,63,72,120
2,note_on,51,57,0
2,note_on,58,57,0
2,note_on,55,57,0
2,note_on,55,0,120
2,note_on,63,0,0
2,note_on,51,0,0
2,note_on,58,0,0
2,note_on,63,62,120
2,note_on,58,49,0
2,note_on,51,49,0
2,note_on,55,49,0
2,note_on,55,0,120
2,note_on,63,0,0
2,note_on,58,0,0
2,note_on,51,0,0
2,note_on,63,62,120
2,note_on,58,49,0
2,note_on,55,49,0
2,note_on,51,49,0
2,note_on,51,0,120
2,note_on,63,0,0
2,note_on,58,0,0
2,note_on,55,0,0
2,note_on,58,49,120
2,note_on,51,49,0
2,note_on,55,49,0
2,note_on,63,62,0
2,note_on,63,0,120
2,note_on,58,0,0
2,note_on,51,0,0
2,note_on,55,0,0
2,note_on,55,49,120
2,note_on,51,49,0
2,note_on,58,49,0
2,note_on,63,62,0
2,note_on,63,0,120
2,note_on,55,0,0
2,note_on,51,0,0
2,note_on,58,0,0
2,note_on,63,62,120
2,note_on,51,49,0
2,note_on,58,49,0
2,note_on,55,49,0
2,note_on,55,0,120
2,note_on,63,0,0
2,note_on,51,0,0
2,note_on,58,0,0
2,note_on,55,55,120
2,note_on,51,55,0
2,note_on,58,69,0
2,note_on,58,0,120
2,note_on,51,0,0
2,note_on,55,0,0
2,note_on,58,61,120
2,note_on,55,48,0
2,note_on,51,48,0
2,note_on,51,0,120
2,note_on,55,0,0
2,note_on,58,0,0
2,note_on,55,48,120
2,note_on,58,61,0
2,note_on,51,48,0
2,note_on,51,0,120
2,note_on,58,0,0
2,note_on,55,0,0
2,note_on,53,61,120
2,note_on,51,48,0
2,note_on,51,0,120
2,note_on,53,0,0
2,note_on,51,48,120
2,note_on,53,61,0
2,note_on,41,48,0
2,note_on,41,0,120
2,note_on,53,0,0
2,note_on,51,0,0
2,note_on,53,61,120
2,note_on,41,48,0
2,note_on,51,48,0
2,note_on,51,0,120
2,note_on,41,0,0
2,note_on,53,0,0
2,note_on,34,80,120
2,note_on,46,80,0
2,note_on,46,0,240
2,note_on,34,0,0
2,note_on,58,75,480
2,note_on,58,0,240
2,note_on,61,81,480
2,note_on,61,0,240
2,note_on,66,74,480
2,note_on,66,0,240
2,note_on,61,79,480
2,note_on,61,0,240
2,note_on,58,74,480
2,note_on,58,0,240
2,note_on,54,78,480
2,note_on,54,0,240
2,note_on,49,70,480
2,note_on,49,0,240
2,note_on,45,80,480
2,note_on,33,80,0
2,note_on,33,0,240
2,note_on,45,0,0
2,note_on,57,75,480
2,note_on,57,0,240
2,note_on,60,81,480
2,note_on,60,0,240
2,note_on,65,74,480
2,note_on,65,0,240
2,note_on,60,79,480
2,note_on,60,0,240
2,note_on,57,74,480
2,note_on,57,0,240
2,note_on,53,78,480
2,note_on,53,0,240
2,note_on,48,70,480
2,note_on,48,0,240
2,note_on,61,34,480
2,note_on,66,40,0
2,note_on,58,34,0
2,note_on,58,0,120
2,note_on,66,0,0
2,note_on,61,0,0
2,note_on,58,29,120
2,note_on,61,29,0
2,note_on,66,35,0
2,note_on,66,0,120
2,note_on,61,0,0
2,note_on,58,0,0
2,note_on,61,29,120
2,note_on,58,29,0
2,note_on,66,35,0
2,note_on,66,0,120
2,note_on,58,0,0
2,note_on,61,0,0
2,note_on,58,29,120
2,note_on,66,36,0
2,note_on,61,29,0
2,note_on,61,0,120
2,note_on,66,0,0
2,note_on,58,0,0
2,note_on,58,30,120
2,note_on,61,30,0
2,note_on,66,36,0
2,note_on,66,0,120
2,note_on,61,0,0
2,note_on,58,0,0
2,note_on,61,30,120
2,note_on,66,36,0
2,note_on,58,30,0
2,note_on,58,0,120
2,note_on,66,0,0
2,note_on,61,0,0
2,note_on,58,36,120
2,note_on,61,36,0
2,note_on,66,42,0
2,note_on,66,0,120
2,note_on,61,0,0
2,note_on,58,0,0
2,note_on,61,31,120
2,note_on,58,31,0
2,note_on,66,37,0
2,note_on,66,0,120
2,note_on,58,0,0
2,note_on,61,0,0
2,note_on,58,31,120
2,note_on,66,37,0
2,note_on,61,31,0
2,note_on,61,0,120
2,note_on,66,0,0
2,note_on,58,0,0
2,note_on,58,31,120
2,note_on,61,31,0
2,note_on,66,38,0
2,note_on,66,0,120
2,note_on,61,0,0
2,note_on,58,0,0
2,note_on,61,29,120
2,note_on,66,35,0
2,note_on,58,29,0
2,note_on,58,0,120
2,note_on,66,0,0
2,note_on,61,0,0
2,note_on,58,29,120
2,note_on,61,29,0
2,note_on,66,35,0
2,note_on,66,0,120
2,note_on,61,0,0
2,note_on,58,0,0
2,note_on,61,34,120
2,note_on,58,34,0
2,note_on,66,40,0
2,note_on,66,0,120
2,note_on,58,0,0
2,note_on,61,0,0
2,note_on,58,29,120
2,note_on,66,35,0
2,note_on,61,29,0
2,note_on,61,0,120
2,note_on,66,0,0
2,note_on,58,0,0
2,note_on,58,29,120
2,note_on,61,29,0
2,note_on,66,35,0
2,note_on,66,0,120
2,note_on,61,0,0
2,note_on,58,0,0
2,note_on,61,29,120
2,note_on,66,35,0
2,note_on,58,29,0
2,note_on,58,0,120
2,note_on,66,0,0
2,note_on,61,0,0
2,note_on,58,29,120
2,note_on,61,29,0
2,note_on,66,35,0
2,note_on,66,0,120
2,note_on,61,0,0
2,note_on,58,0,0
2,note_on,61,29,120
2,note_on,58,29,0
2,note_on,66,35,0
2,note_on,66,0,120
2,note_on,58,0,0
2,note_on,61,0,0
2,note_on,58,34,120
2,note_on,66,40,0
2,note_on,61,34,0
2,note_on,61,0,120
2,note_on,66,0,0
2,note_on,58,0,0
2,note_on,58,29,120
2,note_on,61,29,0
2,note_on,66,35,0
2,note_on,66,0,120
2,note_on,61,0,0
2,note_on,58,0,0
2,note_on,61,29,120
2,note_on,66,35,0
2,note_on,58,29,0
2,note_on,58,0,120
2,note_on,66,0,0
2,note_on,61,0,0
2,note_on,58,29,120
2,note_on,61,29,0
2,note_on,66,35,0
2,note_on,66,0,120
2,note_on,61,0,0
2,note_on,58,0,0
2,note_on,61,29,120
2,note_on,58,29,0
2,note_on,66,35,0
2,note_on,66,0,120
2,note_on,58,0,0
2,note_on,61,0,0
2,note_on,58,29,120
2,note_on,64,35,0
2,note_on,61,29,0
2,note_on,61,0,120
2,note_on,64,0,0
2,note_on,58,0,0
2,note_on,57,34,120
2,note_on,60,34,0
2,note_on,65,40,0
2,note_on,65,0,120
2,note_on,60,0,0
2,note_on,57,0,0
2,note_on,60,29,120
2,note_on,65,35,0
2,note_on,57,29,0
2,note_on,57,0,120
2,note_on,65,0,0
2,note_on,60,0,0
2,note_on,65,35,120
2,note_on,57,29,0
2,note_on,60,29,0
2,note_on,60,0,120
2,note_on,57,0,0
2,note_on,65,0,0
2,note_on,57,29,120
2,note_on,60,29,0
2,note_on,65,36,0
2,note_on,65,0,120
2,note_on,60,0,0
2,note_on,57,0,0
2,note_on,60,30,120
2,note_on,57,30,0
2,note_on,65,36,0
2,note_on,65,0,120
2,note_on,57,0,0
2,note_on,60,0,0
2,note_on,57,30,120
2,note_on,65,36,0
2,note_on,60,30,0
2,note_on,60,0,120
2,note_on,65,0,0
2,note_on,57,0,0
2,note_on,57,36,120
2,note_on,60,36,0
2,note_on,65,42,0
2,note_on,65,0,120
2,note_on,60,0,0
2,note_on,57,0,0
2,note_on,65,37,120
2,note_on,57,31,0
2,note_on,60,31,0
2,note_on,60,0,120
2,note_on,57,0,0
2,note_on,65,0,0
2,note_on,57,31,120
2,note_on,60,31,0
2,note_on,65,37,0
2,note_on,65,0,120
2,note_on,60,0,0
2,note_on,57,0,0
2,note_on,60,31,120
2,note_on,57,31,0
2,note_on,65,38,0
2,note_on,65,0,120
2,note_on,57,0,0
2,note_on,60,0,0
2,note_on,57,29,120
2,note_on,65,35,0
2,note_on,60,29,0
2,note_on,60,0,120
2,note_on,65,0,0
2,note_on,57,0,0
2,note_on,57,29,120
2,note_on,60,29,0
2,note_on,65,35,0
2,note_on,65,0,120
2,note_on,60,0,0
2,note_on,57,0,0
2,note_on,65,40,120
2,note_on,57,34,0
2,note_on,60,34,0
2,note_on,60,0,120
2,note_on,57,0,0
2,note_on,65,0,0
2,note_on,57,29,120
2,note_on,60,29,0
2,note_on,65,35,0
2,note_on,65,0,120
2,note_on,60,0,0
2,note_on,57,0,0
2,note_on,60,29,120
2,note_on,57,29,0
2,note_on,65,35,0
2,note_on,65,0,120
2,note_on,57,0,0
2,note_on,60,0,0
2,note_on,57,29,120
2,note_on,65,35,0
2,note_on,60,29,0
2,note_on,60,0,120
2,note_on,65,0,0
2,note_on,57,0,0
2,note_on,57,29,120
2,note_on,60,29,0
2,note_on,65,35,0
2,note_on,65,0,120
2,note_on,60,0,0
2,note_on,57,0,0
2,note_on,65,35,120
2,note_on,57,29,0
2,note_on,60,29,0
2,note_on,60,0,120
2,note_on,57,0,0
2,note_on,65,0,0
2,note_on,60,34,120
2,note_on,57,34,0
2,note_on,65,40,0
2,note_on,65,0,120
2,note_on,57,0,0
2,note_on,60,0,0
2,note_on,60,29,120
2,note_on,57,29,0
2,note_on,65,35,0
2,note_on,65,0,120
2,note_on,57,0,0
2,note_on,60,0,0
2,note_on,57,29,120
2,note_on,60,29,0
2,note_on,65,35,0
2,note_on,65,0,120
2,note_on,60,0,0
2,note_on,57,0,0
2,note_on,57,29,120
2,note_on,60,29,0
2,note_on,65,35,0
2,note_on,65,0,240
2,note_on,60,0,0
2,note_on,57,0,0
2,note_on,53,35,0
2,note_on,53,0,240
2,note_on,51,35,0
2,note_on,51,0,240
2,note_on,46,40,0
2,note_on,50,40,0
2,note_on,50,0,480
2,note_on,55,33,0
2,note_on,55,0,240
2,note_on,53,42,0
2,note_on,53,0,480
2,note_on,50,39,0
2,note_on,50,0,240
2,note_on,46,0,0
2,note_on,41,42,0
2,note_on,48,42,0
2,note_on,48,0,480
2,note_on,55,36,0
2,note_on,55,0,240
2,note_on,53,45,0
2,note_on,53,0,480
2,note_on,48,41,0
2,note_on,48,0,240
2,note_on,41,0,0
2,note_on,46,46,0
2,note_on,50,46,0
2,note_on,50,0,480
2,note_on,55,37,0
2,note_on,55,0,240
2,note_on,53,45,0
2,note_on,53,0,480
2,note_on,50,40,0
2,note_on,50,0,240
2,note_on,46,0,0
2,note_on,41,43,0
2,note_on,48,43,0
2,note_on,48,0,480
2,note_on,55,34,0
2,note_on,55,0,240
2,note_on,53,42,0
2,note_on,53,0,480
2,note_on,48,37,0
2,note_on,48,0,240
2,note_on,41,0,0
2,note_on,50,40,0
2,note_on,46,34,0
2,note_on,46,0,120
2,note_on,50,0,0
2,note_on,50,29,120
2,note_on,53,29,0
2,note_on,58,35,0
2,note_on,58,0,120
2,note_on,53,0,0
2,note_on,50,0,0
2,note_on,50,29,120
2,note_on,53,29,0
2,note_on,58,35,0
2,note_on,58,0,120
2,note_on,53,0,0
2,note_on,50,0,0
2,note_on,50,29,120
2,note_on,53,29,0
2,note_on,58,35,0
2,note_on,58,0,120
2,note_on,53,0,0
2,note_on,50,0,0
2,note_on,50,29,120
2,note_on,53,29,0
2,note_on,58,35,0
2,note_on,58,0,120
2,note_on,53,0,0
2,note_on,50,0,0
2,note_on,50,29,120
2,note_on,53,29,0
2,note_on,58,35,0
2,note_on,58,0,120
2,note_on,53,0,0
2,note_on,50,0,0
2,note_on,51,29,360
2,note_on,55,29,0
2,note_on,58,35,0
2,note_on,58,0,120
2,note_on,55,0,0
2,note_on,51,0,0
2,note_on,51,29,120
2,note_on,55,29,0
2,note_on,58,35,0
2,note_on,58,0,120
2,note_on,55,0,0
2,note_on,51,0,0
2,note_on,51,29,120
2,note_on,55,29,0
2,note_on,58,35,0
2,note_on,58,0,120
2,note_on,55,0,0
2,note_on,51,0,0
2,note_on,51,29,120
2,note_on,55,29,0
2,note_on,58,35,0
2,note_on,58,0,120
2,note_on,55,0,0
2,note_on,51,0,0
2,note_on,51,29,120
2,note_on,55,29,0
2,note_on,60,35,0
2,note_on,60,0,120
2,note_on,55,0,0
2,note_on,51,0,0
2,note_on,53,29,360
2,note_on,58,29,0
2,note_on,62,35,0
2,note_on,62,0,120
2,note_on,58,0,0
2,note_on,53,0,0
2,note_on,53,29,120
2,note_on,58,29,0
2,note_on,62,35,0
2,note_on,62,0,120
2,note_on,58,0,0
2,note_on,53,0,0
2,note_on,53,29,120
2,note_on,58,29,0
2,note_on,62,35,0
2,note_on,62,0,120
2,note_on,58,0,0
2,note_on,53,0,0
2,note_on,53,29,120
2,note_on,58,29,0
2,note_on,62,35,0
2,note_on,62,0,120
2,note_on,58,0,0
2,note_on,53,0,0
2,note_on,53,29,120
2,note_on,58,29,0
2,note_on,62,35,0
2,note_on,62,0,120
2,note_on,58,0,0
2,note_on,53,0,0
2,note_on,62,35,120
2,note_on,53,29,0
2,note_on,58,29,0
2,note_on,58,0,120
2,note_on,53,0,0
2,note_on,62,0,0
2,note_on,53,29,120
2,note_on,58,29,0
2,note_on,62,35,0
2,note_on,62,0,120
2,note_on,58,0,0
2,note_on,53,0,0
2,note_on,62,35,120
2,note_on,58,29,0
2,note_on,53,29,0
2,note_on,53,0,120
2,note_on,58,0,0
2,note_on,62,0,0
2,note_on,53,29,120
2,note_on,57,29,0
2,note_on,63,35,0
2,note_on,63,0,120
2,note_on,57,0,0
2,note_on,53,0,0
2,note_on,53,29,120
2,note_on,57,29,0
2,note_on,63,35,0
2,note_on,63,0,120
2,note_on,57,0,0
2,note_on,53,0,0
2,note_on,53,29,120
2,note_on,57,29,0
2,note_on,63,35,0
2,note_on,63,0,120
2,note_on,57,0,0
2,note_on,53,0,0
2,note_on,58,40,120
2,note_on,62,40,0
2,note_on,62,0,480
2,note_on,67,33,0
2,note_on,67,0,240
2,note_on,65,42,0
2,note_on,65,0,480
2,note_on,62,39,0
2,note_on,62,0,240
2,note_on,58,0,0
2,note_on,53,42,0
2,note_on,60,42,0
2,note_on,60,0,480
2,note_on,67,36,0
2,note_on,67,0,240
2,note_on,65,45,0
2,note_on,65,0,480
2,note_on,60,41,0
2,note_on,60,0,240
2,note_on,53,0,0
2,note_on,58,46,0
2,note_on,62,46,0
2,note_on,62,0,480
2,note_on,67,37,0
2,note_on,67,0,240
2,note_on,65,45,0
2,note_on,65,0,480
2,note_on,62,40,0
2,note_on,62,0,240
2,note_on,58,0,0
2,note_on,53,43,0
2,note_on,60,43,0
2,note_on,60,0,480
2,note_on,67,34,0
2,note_on,67,0,240
2,note_on,65,42,0
2,note_on,65,0,480
2,note_on,60,37,0
2,note_on,60,0,240
2,note_on,53,0,0
2,note_on,62,51,0
2,note_on,65,51,0
2,note_on,65,0,120
2,note_on,62,0,0
2,note_on,67,45,0
2,note_on,67,0,120
2,note_on,69,50,0
2,note_on,69,0,120
2,note_on,70,52,0
2,note_on,70,0,120
2,note_on,72,54,0
2,note_on,72,0,80
2,note_on,74,56,0
2,note_on,74,0,80
2,note_on,75,59,0
2,note_on,75,0,80
2,note_on,77,61,0
2,note_on,77,0,120
2,note_on,75,60,0
2,note_on,75,0,120
2,note_on,74,58,0
2,note_on,74,0,120
2,note_on,72,57,0
2,note_on,72,0,120
2,note_on,70,55,0
2,note_on,70,0,120
2,note_on,69,54,0
2,note_on,69,0,120
2,note_on,63,51,0
2,note_on,67,51,0
2,note_on,67,0,120
2,note_on,63,0,0
2,note_on,69,45,0
2,note_on,69,0,120
2,note_on,70,48,0
2,note_on,70,0,120
2,note_on,72,50,0
2,note_on,72,0,120
2,note_on,74,55,0
2,note_on,74,0,80
2,note_on,75,57,0
2,note_on,75,0,80
2,note_on,77,60,0
2,note_on,77,0,80
2,note_on,79,62,0
2,note_on,79,0,120
2,note_on,77,62,0
2,note_on,77,0,120
2,note_on,75,60,0
2,note_on,75,0,80
2,note_on,74,59,0
2,note_on,74,0,80
2,note_on,72,58,0
2,note_on,72,0,80
2,note_on,70,58,0
2,note_on,70,0,80
2,note_on,69,57,0
2,note_on,69,0,80
2,note_on,67,56,0
2,note_on,67,0,80
2,note_on,65,60,0
2,note_on,65,0,120
2,note_on,53,52,0
2,note_on,53,0,120
2,note_on,58,63,0
2,note_on,58,0,120
2,note_on,62,59,0
2,note_on,62,0,120
2,note_on,65,68,0
2,note_on,65,0,120
2,note_on,70,62,0
2,note_on,70,0,120
2,note_on,74,63,0
2,note_on,74,0,120
2,note_on,70,54,0
2,note_on,70,0,120
2,note_on,77,66,0
2,note_on,77,0,120
2,note_on,74,62,0
2,note_on,74,0,120
2,note_on,70,70,0
2,note_on,70,0,120
2,note_on,74,64,0
2,note_on,74,0,120
2,note_on,72,67,0
2,note_on,65,60,0
2,note_on,72,0,80
2,note_on,74,59,0
2,note_on,74,0,80
2,note_on,72,67,0
2,note_on,72,0,80
2,note_on,65,0,0
2,note_on,74,61,0
2,note_on,74,0,80
2,note_on,72,66,0
2,note_on,72,0,80
2,note_on,74,59,0
2,note_on,74,0,80
2,note_on,72,66,0
2,note_on,72,0,80
2,note_on,74,59,0
2,note_on,74,0,80
2,note_on,72,62,0
2,note_on,72,0,80
2,note_on,74,56,0
2,note_on,74,0,80
2,note_on,72,63,0
2,note_on,72,0,80
2,note_on,74,55,0
2,note_on,74,0,80
2,note_on,72,63,0
2,note_on,72,0,80
2,note_on,74,55,0
2,note_on,74,0,80
2,note_on,72,63,0
2,note_on,72,0,80
2,note_on,74,55,0
2,note_on,74,0,80
2,note_on,72,63,0
2,note_on,72,0,80
2,note_on,74,59,0
2,note_on,74,0,80
2,note_on,65,62,0
2,note_on,65,0,120
2,note_on,71,55,0
2,note_on,71,0,120
2,note_on,72,58,0
2,note_on,72,0,120
2,note_on,74,60,0
2,note_on,74,0,120
2,note_on,72,58,0
2,note_on,72,0,120
2,note_on,71,58,0
2,note_on,71,0,120
2,note_on,63,61,0
2,note_on,63,0,120
2,note_on,72,56,0
2,note_on,72,0,120
2,note_on,74,59,0
2,note_on,74,0,120
2,note_on,75,61,0
2,note_on,75,0,120
2,note_on,74,57,0
2,note_on,74,0,120
2,note_on,72,57,0
2,note_on,72,0,120
2,note_on,63,62,6
2,note_on,69,55,114
2,note_on,63,0,6
2,note_on,69,0,114
2,note_on,70,58,0
2,note_on,72,60,115
2,note_on,70,0,5
2,note_on,72,0,115
2,note_on,70,59,5
2,note_on,70,0,120
2,note_on,69,59,0
2,note_on,69,0,120
2,note_on,62,62,0
2,note_on,62,0,120
2,note_on,70,57,0
2,note_on,70,0,120
2,note_on,72,61,0
2,note_on,72,0,120
2,note_on,74,64,0
2,note_on,74,0,120
2,note_on,72,59,0
2,note_on,72,0,120
2,note_on,70,60,0
2,note_on,70,0,120
2,note_on,53,65,6
2,note_on,59,58,114
2,note_on,53,0,6
2,note_on,59,0,114
2,note_on,60,62,0
2,note_on,62,64,115
2,note_on,60,0,5
2,note_on,62,0,115
2,note_on,60,62,5
2,note_on,60,0,120
2,note_on,59,63,0
2,note_on,59,0,120
2,note_on,51,67,0
2,note_on,51,0,120
2,note_on,60,61,0
2,note_on,60,0,120
2,note_on,62,65,0
2,note_on,62,0,120
2,note_on,63,67,0
2,note_on,63,0,120
2,note_on,62,63,0
2,note_on,62,0,120
2,note_on,60,63,0
2,note_on,60,0,120
2,note_on,51,70,6
2,note_on,57,62,114
2,note_on,51,0,6
2,note_on,57,0,114
2,note_on,58,66,0
2,note_on,60,68,115
2,note_on,58,0,5
2,note_on,60,0,115
2,note_on,58,66,5
2,note_on,58,0,120
2,note_on,57,67,0
2,note_on,57,0,120
2,note_on,50,70,0
2,note_on,50,0,120
2,note_on,58,65,0
2,note_on,58,0,120
2,note_on,60,69,0
2,note_on,60,0,120
2,note_on,62,71,0
2,note_on,62,0,120
2,note_on,60,67,0
2,note_on,60,0,120
2,note_on,58,67,0
2,note_on,58,0,120
2,note_on,50,70,0
2,note_on,50,0,120
2,note_on,53,62,0
2,note_on,53,0,120
2,note_on,58,66,0
2,note_on,58,0,120
2,note_on,62,68,0
2,note_on,62,0,120
2,note_on,58,66,0
2,note_on,58,0,120
2,note_on,53,63,0
2,note_on,53,0,120
2,note_on,43,70,0
2,note_on,43,0,120
2,note_on,46,65,0
2,note_on,46,0,120
2,note_on,50,69,0
2,note_on,50,0,120
2,note_on,55,71,0
2,note_on,55,0,120
2,note_on,50,67,0
2,note_on,50,0,120
2,note_on,46,64,0
2,note_on,46,0,120
2,note_on,39,70,0
2,note_on,39,0,120
2,note_on,43,62,0
2,note_on,43,0,120
2,note_on,48,66,0
2,note_on,48,0,120
2,note_on,51,68,0
2,note_on,51,0,120
2,note_on,48,66,0
2,note_on,48,0,120
2,note_on,43,63,0
2,note_on,43,0,120
2,note_on,41,70,0
2,note_on,41,0,120
2,note_on,48,65,0
2,note_on,48,0,120
2,note_on,51,69,0
2,note_on,51,0,120
2,note_on,53,71,0
2,note_on,53,0,120
2,note_on,51,67,0
2,note_on,51,0,120
2,note_on,48,64,0
2,note_on,48,0,120
2,note_on,38,70,0
2,note_on,38,0,120
2,note_on,41,62,0
2,note_on,41,0,120
2,note_on,46,66,0
2,note_on,46,0,120
2,note_on,50,68,0
2,note_on,50,0,120
2,note_on,46,67,0
2,note_on,46,0,120
2,note_on,41,64,0
2,note_on,41,0,120
2,note_on,31,72,0
2,note_on,31,0,120
2,note_on,34,67,0
2,note_on,34,0,120
2,note_on,38,72,0
2,note_on,38,0,120
2,note_on,43,74,0
2,note_on,43,0,120
2,note_on,38,71,0
2,note_on,38,0,120
2,note_on,34,67,0
2,note_on,34,0,120
2,note_on,39,74,0
2,note_on,39,0,120
2,note_on,43,66,0
2,note_on,43,0,120
2,note_on,48,71,0
2,note_on,48,0,120
2,note_on,43,74,0
2,note_on,43,0,120
2,note_on,39,72,0
2,note_on,39,0,240
2,note_on,29,77,0
2,note_on,29,0,120
2,note_on,36,72,0
2,note_on,36,0,120
2,note_on,39,77,0
2,note_on,39,0,120
2,note_on,41,80,0
2,note_on,41,0,120
2,note_on,29,75,0
2,note_on,29,0,120
2,note_on,41,72,0
2,note_on,41,0,120
2,note_on,34,75,0
2,note_on,34,0,120
2,note_on,46,75,120
2,note_on,46,0,120
2,note_on,46,64,120
2,note_on,50,77,0
2,note_on,50,0,120
2,note_on,46,0,0
2,note_on,46,70,120
2,note_on,50,70,0
2,note_on,53,83,0
2,note_on,53,0,480
2,note_on,50,0,0
2,note_on,46,0,0
2,note_on,48,60,0
2,note_on,41,60,0
2,note_on,53,71,0
2,note_on,53,0,120
2,note_on,41,0,0
2,note_on,48,0,0
2,note_on,46,67,120
2,note_on,53,79,0
2,note_on,50,67,0
2,note_on,50,0,120
2,note_on,53,0,0
2,note_on,46,0,0
2,note_on,46,63,120
2,note_on,50,63,0
2,note_on,53,75,0
2,note_on,53,0,120
2,note_on,50,0,0
2,note_on,46,0,0
2,note_on,53,74,120
2,note_on,46,62,0
2,note_on,50,62,0
2,note_on,50,0,120
2,note_on,46,0,0
2,note_on,53,0,0
2,note_on,46,69,120
2,note_on,50,69,0
2,note_on,53,82,0
2,note_on,53,0,480
2,note_on,50,0,0
2,note_on,46,0,0
2,note_on,48,63,0
2,note_on,41,63,0
2,note_on,53,75,0
2,note_on,53,0,120
2,note_on,41,0,0
2,note_on,48,0,0
2,note_on,46,64,120
2,note_on,53,76,0
2,note_on,50,64,0
2,note_on,50,0,120
2,note_on,53,0,0
2,note_on,46,0,0
2,note_on,46,63,120
2,note_on,50,63,0
2,note_on,53,75,0
2,note_on,53,0,120
2,note_on,50,0,0
2,note_on,46,0,0
2,note_on,53,73,120
2,note_on,46,61,0
2,note_on,50,61,0
2,note_on,50,0,120
2,note_on,46,0,0
2,note_on,53,0,0
2,note_on,46,70,120
2,note_on,50,70,0
2,note_on,53,83,0
2,note_on,53,0,480
2,note_on,50,0,0
2,note_on,46,0,0
2,note_on,48,63,0
2,note_on,41,63,0
2,note_on,53,75,0
2,note_on,53,0,120
2,note_on,41,0,0
2,note_on,48,0,0
2,note_on,46,69,120
2,note_on,58,82,0
2,note_on,50,69,0
2,note_on,53,69,0
2,note_on,53,0,480
2,note_on,46,0,0
2,note_on,58,0,0
2,note_on,50,0,0
2,note_on,46,69,240
2,note_on,50,69,0
2,note_on,58,82,0
2,note_on,53,69,0
2,note_on,53,0,480
2,note_on,46,0,0
2,note_on,50,0,0
2,note_on,58,0,0
2,note_on,53,69,240
2,note_on,58,82,0
2,note_on,50,69,0
2,note_on,46,69,0
2,note_on,46,0,480
2,note_on,53,0,0
2,note_on,58,0,0
2,note_on,50,0,0
2,note_on,63,34,960
2,note_on,67,34,0
2,note_on,70,40,0
2,note_on,70,0,480
2,note_on,67,0,0
2,note_on,63,0,0
2,note_on,65,28,240
2,note_on,68,28,0
2,note_on,58,28,0
2,note_on,70,34,0
2,note_on,70,0,480
2,note_on,65,0,0
2,note_on,68,0,0
2,note_on,58,0,0
2,note_on,63,34,240
2,note_on,70,40,0
2,note_on,67,34,0
2,note_on,67,0,480
2,note_on,70,0,0
2,note_on,63,0,0
2,note_on,64,28,720
2,note_on,67,28,0
2,note_on,70,28,0
2,note_on,72,34,0
2,note_on,72,0,180
2,note_on,64,0,0
2,note_on,67,0,0
2,note_on,70,0,0
2,note_on,68,34,60
2,note_on,65,34,0
2,note_on,72,40,0
2,note_on,72,0,480
2,note_on,65,0,0
2,note_on,68,0,0
2,note_on,72,34,240
2,note_on,70,28,0
2,note_on,60,28,0
2,note_on,67,28,0
2,note_on,67,0,480
2,note_on,72,0,0
2,note_on,70,0,0
2,note_on,60,0,0
2,note_on,65,34,240
2,note_on,68,34,0
2,note_on,72,40,0
2,note_on,72,0,480
2,note_on,68,0,0
2,note_on,65,0,0
2,note_on,65,31,720
2,note_on,62,31,0
2,note_on,68,31,0
2,note_on,70,37,0
2,note_on,70,0,180
2,note_on,65,0,0
2,note_on,62,0,0
2,note_on,68,0,0
2,note_on,67,33,60
2,note_on,70,39,0
2,note_on,63,33,0
2,note_on,63,0,480
2,note_on,70,0,0
2,note_on,67,0,0
2,note_on,56,29,240
2,note_on,60,29,0
2,note_on,65,35,0
2,note_on,65,0,480
2,note_on,60,0,0
2,note_on,56,0,0
2,note_on,63,35,240
2,note_on,58,35,0
2,note_on,67,42,0
2,note_on,67,0,480
2,note_on,58,0,0
2,note_on,63,0,0
2,note_on,58,33,240
2,note_on,65,39,0
2,note_on,62,33,0
2,note_on,62,0,480
2,note_on,65,0,0
2,note_on,58,0,0
2,note_on,58,39,0
2,note_on,58,0,180
2,note_on,58,49,60
2,note_on,58,0,240
2,note_on,55,49,0
2,note_on,55,0,240
2,note_on,51,42,0
2,note_on,51,0,240
2,note_on,50,49,0
2,note_on,50,0,240
2,note_on,53,45,0
2,note_on,53,0,240
2,note_on,58,45,0
2,note_on,58,0,180
2,note_on,58,51,60
2,note_on,58,0,240
2,note_on,55,47,0
2,note_on,55,0,240
2,note_on,51,47,0
2,note_on,51,0,180
2,note_on,51,52,60
2,note_on,51,0,240
2,note_on,55,46,0
2,note_on,55,0,240
2,note_on,52,49,0
2,note_on,60,60,0
2,note_on,60,0,180
2,note_on,52,0,0
2,note_on,60,66,60
2,note_on,53,53,0
2,note_on,53,0,240
2,note_on,60,0,0
2,note_on,56,53,0
2,note_on,56,0,240
2,note_on,53,53,0
2,note_on,53,0,240
2,note_on,52,59,0
2,note_on,52,0,240
2,note_on,55,53,0
2,note_on,55,0,240
2,note_on,60,58,0
2,note_on,60,0,180
2,note_on,60,70,60
2,note_on,60,0,240
2,note_on,56,56,0
2,note_on,56,0,240
2,note_on,53,57,0
2,note_on,53,0,240
2,note_on,50,64,0
2,note_on,50,0,240
2,note_on,53,58,0
2,note_on,53,0,240
2,note_on,50,53,0
2,note_on,58,63,0
2,note_on,58,0,180
2,note_on,50,0,0
2,note_on,58,72,60
2,note_on,51,61,0
2,note_on,51,0,240
2,note_on,58,0,0
2,note_on,55,56,0
2,note_on,55,0,240
2,note_on,51,57,0
2,note_on,51,0,240
2,note_on,44,50,0
2,note_on,48,59,0
2,note_on,48,0,240
2,note_on,44,0,0
2,note_on,53,55,0
2,note_on,53,0,240
2,note_on,56,55,0
2,note_on,56,0,180
2,note_on,46,61,60
2,note_on,46,0,240
2,note_on,51,56,0
2,note_on,51,0,240
2,note_on,55,56,0
2,note_on,55,0,180
2,note_on,46,62,60
2,note_on,46,0,240
2,note_on,50,56,0
2,note_on,50,0,240
2,note_on,58,56,0
2,note_on,46,56,0
2,note_on,46,0,180
2,note_on,58,0,0
2,note_on,46,63,60
2,note_on,46,0,240
2,note_on,43,63,0
2,note_on,43,0,240
2,note_on,39,55,0
2,note_on,39,0,240
2,note_on,38,63,0
2,note_on,38,0,240
2,note_on,41,57,0
2,note_on,41,0,240
2,note_on,46,57,0
2,note_on,46,0,180
2,note_on,46,63,60
2,note_on,46,0,240
2,note_on,43,58,0
2,note_on,43,0,240
2,note_on,39,58,0
2,note_on,39,0,180
2,note_on,39,63,60
2,note_on,39,0,240
2,note_on,43,55,0
2,note_on,43,0,240
2,note_on,40,58,0
2,note_on,48,70,0
2,note_on,48,0,180
2,note_on,40,0,0
2,note_on,48,78,60
2,note_on,41,63,0
2,note_on,41,0,240
2,note_on,48,0,0
2,note_on,44,63,0
2,note_on,44,0,240
2,note_on,41,63,0
2,note_on,41,0,240
2,note_on,40,69,0
2,note_on,40,0,240
2,note_on,43,62,0
2,note_on,43,0,240
2,note_on,48,73,0
2,note_on,48,0,180
2,note_on,48,86,60
2,note_on,48,0,240
2,note_on,44,63,0
2,note_on,44,0,240
2,note_on,41,63,0
2,note_on,41,0,240
2,note_on,38,72,0
2,note_on,38,0,240
2,note_on,41,63,0
2,note_on,41,0,240
2,note_on,38,58,0
2,note_on,46,69,0
2,note_on,46,0,180
2,note_on,38,0,0
2,note_on,39,66,60
2,note_on,46,78,0
2,note_on,46,0,240
2,note_on,39,0,0
2,note_on,43,60,0
2,note_on,43,0,240
2,note_on,39,60,0
2,note_on,39,0,240
2,note_on,32,53,0
2,note_on,36,63,0
2,note_on,36,0,240
2,note_on,41,58,0
2,note_on,41,0,240
2,note_on,32,0,0
2,note_on,44,63,0
2,note_on,44,0,180
2,note_on,34,69,60
2,note_on,34,0,240
2,note_on,39,58,0
2,note_on,39,0,240
2,note_on,43,58,0
2,note_on,43,0,180
2,note_on,34,63,60
2,note_on,34,0,240
2,note_on,41,57,0
2,note_on,41,0,240
2,note_on,46,57,0
2,note_on,46,0,180
2,note_on,39,73,60
2,note_on,39,0,120
2,note_on,55,62,120
2,note_on,51,49,0
2,note_on,51,0,120
2,note_on,55,0,0
2,note_on,58,62,120
2,note_on,51,49,0
2,note_on,55,49,0
2,note_on,55,0,120
2,note_on,51,0,0
2,note_on,58,0,0
2,note_on,55,49,120
2,note_on,63,62,0
2,note_on,58,49,0
2,note_on,51,49,0
2,note_on,51,0,120
2,note_on,55,0,0
2,note_on,63,0,0
2,note_on,58,0,0
2,note_on,51,49,120
2,note_on,63,62,0
2,note_on,58,49,0
2,note_on,55,49,0
2,note_on,55,0,120
2,note_on,51,0,0
2,note_on,63,0,0
2,note_on,58,0,0
2,note_on,58,49,120
2,note_on,63,62,0
2,note_on,51,49,0
2,note_on,55,49,0
2,note_on,55,0,120
2,note_on,58,0,0
2,note_on,63,0,0
2,note_on,51,0,0
2,note_on,63,70,120
2,note_on,55,56,0
2,note_on,58,56,0
2,note_on,51,56,0
2,note_on,51,0,120
2,note_on,63,0,0
2,note_on,55,0,0
2,note_on,58,0,0
2,note_on,58,49,120
2,note_on,63,62,0
2,note_on,51,49,0
2,note_on,55,49,0
2,note_on,55,0,120
2,note_on,58,0,0
2,note_on,63,0,0
2,note_on,51,0,0
2,note_on,55,49,120
2,note_on,63,62,0
2,note_on,58,49,0
2,note_on,51,49,0
2,note_on,51,0,120
2,note_on,55,0,0
2,note_on,63,0,0
2,note_on,58,0,0
2,note_on,53,49,120
2,note_on,62,62,0
2,note_on,56,49,0
2,note_on,58,49,0
2,note_on,51,49,0
2,note_on,51,0,120
2,note_on,56,0,0
2,note_on,53,0,0
2,note_on,62,0,0
2,note_on,58,0,0
2,note_on,53,49,120
2,note_on,62,62,0
2,note_on,58,49,0
2,note_on,56,49,0
2,note_on,51,49,0
2,note_on,51,0,120
2,note_on,58,0,0
2,note_on,53,0,0
2,note_on,62,0,0
2,note_on,56,0,0
2,note_on,53,49,120
2,note_on,62,62,0
2,note_on,58,49,0
2,note_on,56,49,0
2,note_on,51,49,0
2,note_on,51,0,120
2,note_on,58,0,0
2,note_on,53,0,0
2,note_on,62,0,0
2,note_on,56,0,0
2,note_on,51,57,120
2,note_on,63,72,0
2,note_on,58,57,0
2,note_on,55,57,0
2,note_on,55,0,120
2,note_on,51,0,0
2,note_on,63,0,0
2,note_on,58,0,0
2,note_on,58,49,120
2,note_on,63,62,0
2,note_on,51,49,0
2,note_on,55,49,0
2,note_on,55,0,120
2,note_on,58,0,0
2,note_on,63,0,0
2,note_on,51,0,0
2,note_on,63,62,120
2,note_on,55,49,0
2,note_on,58,49,0
2,note_on,51,49,0
2,note_on,51,0,120
2,note_on,63,0,0
2,note_on,55,0,0
2,note_on,58,0,0
2,note_on,58,49,120
2,note_on,63,62,0
2,note_on,51,49,0
2,note_on,55,49,0
2,note_on,55,0,120
2,note_on,58,0,0
2,note_on,63,0,0
2,note_on,51,0,0
2,note_on,55,49,120
2,note_on,63,62,0
2,note_on,58,49,0
2,note_on,51,49,0
2,note_on,51,0,120
2,note_on,55,0,0
2,note_on,63,0,0
2,note_on,58,0,0
2,note_on,51,49,120
2,note_on,63,62,0
2,note_on,58,49,0
2,note_on,55,49,0
2,note_on,55,0,120
2,note_on,51,0,0
2,note_on,63,0,0
2,note_on,58,0,0
2,note_on,58,55,120
2,note_on,63,69,0
2,note_on,51,55,0
2,note_on,55,55,0
2,note_on,55,0,120
2,note_on,58,0,0
2,note_on,63,0,0
2,note_on,51,0,0
2,note_on,63,61,120
2,note_on,55,48,0
2,note_on,58,48,0
2,note_on,51,48,0
2,note_on,51,0,120
2,note_on,63,0,0
2,note_on,55,0,0
2,note_on,58,0,0
2,note_on,58,48,120
2,note_on,63,61,0
2,note_on,51,48,0
2,note_on,55,48,0
2,note_on,55,0,120
2,note_on,58,0,0
2,note_on,63,0,0
2,note_on,51,0,0
2,note_on,53,48,120
2,note_on,58,61,0
2,note_on,56,48,0
2,note_on,51,48,0
2,note_on,51,0,120
2,note_on,53,0,0
2,note_on,58,0,0
2,note_on,56,0,0
2,note_on,51,48,120
2,note_on,58,61,0
2,note_on,56,48,0
2,note_on,53,48,0
2,note_on,53,0,120
2,note_on,51,0,0
2,note_on,58,0,0
2,note_on,56,0,0
2,note_on,56,48,120
2,note_on,58,61,0
2,note_on,51,48,0
2,note_on,53,48,0
2,note_on,53,0,120
2,note_on,56,0,0
2,note_on,58,0,0
2,note_on,51,0,0
2,note_on,39,73,120
2,note_on,39,0,120
2,note_on,51,49,120
2,note_on,55,62,0
2,note_on,55,0,120
2,note_on,51,0,0
2,note_on,51,49,120
2,note_on,58,62,0
2,note_on,55,49,0
2,note_on,55,0,120
2,note_on,58,0,0
2,note_on,51,0,0
2,note_on,58,49,120
2,note_on,63,62,0
2,note_on,51,49,0
2,note_on,55,49,0
2,note_on,55,0,120
2,note_on,58,0,0
2,note_on,63,0,0
2,note_on,51,0,0
2,note_on,63,62,120
2,note_on,55,49,0
2,note_on,58,49,0
2,note_on,51,49,0
2,note_on,51,0,120
2,note_on,63,0,0
2,note_on,55,0,0
2,note_on,58,0,0
2,note_on,58,49,120
2,note_on,63,62,0
2,note_on,51,49,0
2,note_on,55,49,0
2,note_on,55,0,120
2,note_on,58,0,0
2,note_on,63,0,0
2,note_on,51,0,0
2,note_on,55,56,120
2,note_on,63,70,0
2,note_on,58,56,0
2,note_on,51,56,0
2,note_on,51,0,120
2,note_on,55,0,0
2,note_on,63,0,0
2,note_on,58,0,0
2,note_on,58,49,120
2,note_on,51,49,0
2,note_on,55,49,0
2,note_on,63,62,0
2,note_on,63,0,120
2,note_on,58,0,0
2,note_on,51,0,0
2,note_on,55,0,0
2,note_on,55,49,120
2,note_on,51,49,0
2,note_on,58,49,0
2,note_on,63,62,0
2,note_on,63,0,120
2,note_on,55,0,0
2,note_on,51,0,0
2,note_on,58,0,0
2,note_on,62,62,120
2,note_on,53,49,0
2,note_on,51,49,0
2,note_on,58,49,0
2,note_on,56,49,0
2,note_on,56,0,120
2,note_on,51,0,0
2,note_on,62,0,0
2,note_on,53,0,0
2,note_on,58,0,0
2,note_on,62,62,120
2,note_on,53,49,0
2,note_on,51,49,0
2,note_on,56,49,0
2,note_on,58,49,0
2,note_on,58,0,120
2,note_on,51,0,0
2,note_on,62,0,0
2,note_on,53,0,0
2,note_on,56,0,0
2,note_on,62,62,120
2,note_on,53,49,0
2,note_on,51,49,0
2,note_on,56,49,0
2,note_on,58,49,0
2,note_on,58,0,120
2,note_on,51,0,0
2,note_on,62,0,0
2,note_on,53,0,0
2,note_on,56,0,0
2,note_on,63,72,120
2,note_on,51,57,0
2,note_on,58,57,0
2,note_on,55,57,0
2,note_on,55,0,120
2,note_on,63,0,0
2,note_on,51,0,0
2,note_on,58,0,0
2,note_on,63,62,120
2,note_on,58,49,0
2,note_on,51,49,0
2,note_on,55,49,0
2,note_on,55,0,120
2,note_on,63,0,0
2,note_on,58,0,0
2,note_on,51,0,0
2,note_on,63,62,120
2,note_on,58,49,0
2,note_on,55,49,0
2,note_on,51,49,0
2,note_on,51,0,120
2,note_on,63,0,0
2,note_on,58,0,0
2,note_on,55,0,0
2,note_on,58,49,120
2,note_on,51,49,0
2,note_on,55,49,0
2,note_on,63,62,0
2,note_on,63,0,120
2,note_on,58,0,0
2,note_on,51,0,0
2,note_on,55,0,0
2,note_on,55,49,120
2,note_on,51,49,0
2,note_on,58,49,0
2,note_on,63,62,0
2,note_on,63,0,120
2,note_on,55,0,0
2,note_on,51,0,0
2,note_on,58,0,0
2,note_on,63,62,120
2,note_on,51,49,0
2,note_on,58,49,0
2,note_on,55,49,0
2,note_on,55,0,120
2,note_on,63,0,0
2,note_on,51,0,0
2,note_on,58,0,0
2,note_on,55,55,120
2,note_on,51,55,0
2,note_on,58,69,0
2,note_on,58,0,120
2,note_on,51,0,0
2,note_on,55,0,0
2,note_on,58,61,120
2,note_on,55,48,0
2,note_on,51,48,0
2,note_on,51,0,120
2,note_on,55,0,0
2,note_on,58,0,0
2,note_on,55,48,120
2,note_on,58,61,0
2,note_on,51,48,0
2,note_on,51,0,120
2,note_on,58,0,0
2,note_on,55,0,0
2,note_on,53,61,120
2,note_on,51,48,0
2,note_on,51,0,120
2,note_on,53,0,0
2,note_on,51,48,120
2,note_on,53,61,0
2,note_on,41,48,0
2,note_on,41,0,120
2,note_on,53,0,0
2,note_on,51,0,0
2,note_on,53,61,120
2,note_on,41,48,0
2,note_on,51,48,0
2,note_on,51,0,120
2,note_on,41,0,0
2,note_on,53,0,0
2,note_on,34,80,120
2,note_on,46,80,0
2,note_on,46,0,240
2,note_on,34,0,0
2,note_on,58,75,480
2,note_on,58,0,240
2,note_on,61,81,480
2,note_on,61,0,240
2,note_on,66,74,480
2,note_on,66,0,240
2,note_on,61,79,480
2,note_on,61,0,240
2,note_on,58,74,480
2,note_on,58,0,240
2,note_on,54,78,480
2,note_on,54,0,240
2,note_on,49,70,480
2,note_on,49,0,240
2,note_on,45,80,480
2,note_on,33,80,0
2,note_on,33,0,240
2,note_on,45,0,0
2,note_on,57,75,480
2,note_on,57,0,240
2,note_on,60,81,480
2,note_on,60,0,240
2,note_on,65,74,480
2,note_on,65,0,240
2,note_on,60,79,480
2,note_on,60,0,240
2,note_on,57,74,480
2,note_on,57,0,240
2,note_on,53,78,480
2,note_on,53,0,240
2,note_on,48,70,480
2,note_on,48,0,240
2,note_on,61,34,480
2,note_on,66,40,0
2,note_on,58,34,0
2,note_on,58,0,120
2,note_on,66,0,0
2,note_on,61,0,0
2,note_on,58,29,120
2,note_on,61,29,0
2,note_on,66,35,0
2,note_on,66,0,120
2,note_on,61,0,0
2,note_on,58,0,0
2,note_on,61,29,120
2,note_on,58,29,0
2,note_on,66,35,0
2,note_on,66,0,120
2,note_on,58,0,0
2,note_on,61,0,0
2,note_on,58,29,120
2,note_on,66,36,0
2,note_on,61,29,0
2,note_on,61,0,120
2,note_on,66,0,0
2,note_on,58,0,0
2,note_on,58,30,120
2,note_on,61,30,0
2,note_on,66,36,0
2,note_on,66,0,120
2,note_on,61,0,0
2,note_on,58,0,0
2,note_on,61,30,120
2,note_on,66,36,0
2,note_on,58,30,0
2,note_on,58,0,120
2,note_on,66,0,0
2,note_on,61,0,0
2,note_on,58,36,120
2,note_on,61,36,0
2,note_on,66,42,0
2,note_on,66,0,120
2,note_on,61,0,0
2,note_on,58,0,0
2,note_on,61,31,120
2,note_on,58,31,0
2,note_on,66,37,0
2,note_on,66,0,120
2,note_on,58,0,0
2,note_on,61,0,0
2,note_on,58,31,120
2,note_on,66,37,0
2,note_on,61,31,0
2,note_on,61,0,120
2,note_on,66,0,0
2,note_on,58,0,0
2,note_on,58,31,120
2,note_on,61,31,0
2,note_on,66,38,0
2,note_on,66,0,120
2,note_on,61,0,0
2,note_on,58,0,0
2,note_on,61,29,120
2,note_on,66,35,0
2,note_on,58,29,0
2,note_on,58,0,120
2,note_on,66,0,0
2,note_on,61,0,0
2,note_on,58,29,120
2,note_on,61,29,0
2,note_on,66,35,0
2,note_on,66,0,120
2,note_on,61,0,0
2,note_on,58,0,0
2,note_on,61,34,120
2,note_on,58,34,0
2,note_on,66,40,0
2,note_on,66,0,120
2,note_on,58,0,0
2,note_on,61,0,0
2,note_on,58,29,120
2,note_on,66,35,0
2,note_on,61,29,0
2,note_on,61,0,120
2,note_on,66,0,0
2,note_on,58,0,0
2,note_on,58,29,120
2,note_on,61,29,0
2,note_on,66,35,0
2,note_on,66,0,120
2,note_on,61,0,0
2,note_on,58,0,0
2,note_on,61,29,120
2,note_on,66,35,0
2,note_on,58,29,0
2,note_on,58,0,120
2,note_on,66,0,0
2,note_on,61,0,0
2,note_on,58,29,120
2,note_on,61,29,0
2,note_on,66,35,0
2,note_on,66,0,120
2,note_on,61,0,0
2,note_on,58,0,0
2,note_on,61,29,120
2,note_on,58,29,0
2,note_on,66,35,0
2,note_on,66,0,120
2,note_on,58,0,0
2,note_on,61,0,0
2,note_on,58,34,120
2,note_on,66,40,0
2,note_on,61,34,0
2,note_on,61,0,120
2,note_on,66,0,0
2,note_on,58,0,0
2,note_on,58,29,120
2,note_on,61,29,0
2,note_on,66,35,0
2,note_on,66,0,120
2,note_on,61,0,0
2,note_on,58,0,0
2,note_on,61,29,120
2,note_on,66,35,0
2,note_on,58,29,0
2,note_on,58,0,120
2,note_on,66,0,0
2,note_on,61,0,0
2,note_on,58,29,120
2,note_on,61,29,0
2,note_on,66,35,0
2,note_on,66,0,120
2,note_on,61,0,0
2,note_on,58,0,0
2,note_on,61,29,120
2,note_on,58,29,0
2,note_on,66,35,0
2,note_on,66,0,120
2,note_on,58,0,0
2,note_on,61,0,0
2,note_on,58,29,120
2,note_on,64,35,0
2,note_on,61,29,0
2,note_on,61,0,120
2,note_on,64,0,0
2,note_on,58,0,0
2,note_on,57,34,120
2,note_on,60,34,0
2,note_on,65,40,0
2,note_on,65,0,120
2,note_on,60,0,0
2,note_on,57,0,0
2,note_on,60,29,120
2,note_on,65,35,0
2,note_on,57,29,0
2,note_on,57,0,120
2,note_on,65,0,0
2,note_on,60,0,0
2,note_on,65,35,120
2,note_on,57,29,0
2,note_on,60,29,0
2,note_on,60,0,120
2,note_on,57,0,0
2,note_on,65,0,0
2,note_on,57,29,120
2,note_on,60,29,0
2,note_on,65,36,0
2,note_on,65,0,120
2,note_on,60,0,0
2,note_on,57,0,0
2,note_on,60,30,120
2,note_on,57,30,0
2,note_on,65,36,0
2,note_on,65,0,120
2,note_on,57,0,0
2,note_on,60,0,0
2,note_on,57,30,120
2,note_on,65,36,0
2,note_on,60,30,0
2,note_on,60,0,120
2,note_on,65,0,0
2,note_on,57,0,0
2,note_on,57,36,120
2,note_on,60,36,0
2,note_on,65,42,0
2,note_on,65,0,120
2,note_on,60,0,0
2,note_on,57,0,0
2,note_on,65,37,120
2,note_on,57,31,0
2,note_on,60,31,0
2,note_on,60,0,120
2,note_on,57,0,0
2,note_on,65,0,0
2,note_on,57,31,120
2,note_on,60,31,0
2,note_on,65,37,0
2,note_on,65,0,120
2,note_on,60,0,0
2,note_on,57,0,0
2,note_on,60,31,120
2,note_on,57,31,0
2,note_on,65,38,0
2,note_on,65,0,120
2,note_on,57,0,0
2,note_on,60,0,0
2,note_on,57,29,120
2,note_on,65,35,0
2,note_on,60,29,0
2,note_on,60,0,120
2,note_on,65,0,0
2,note_on,57,0,0
2,note_on,57,29,120
2,note_on,60,29,0
2,note_on,65,35,0
2,note_on,65,0,120
2,note_on,60,0,0
2,note_on,57,0,0
2,note_on,65,40,120
2,note_on,57,34,0
2,note_on,60,34,0
2,note_on,60,0,120
2,note_on,57,0,0
2,note_on,65,0,0
2,note_on,57,29,120
2,note_on,60,29,0
2,note_on,65,35,0
2,note_on,65,0,120
2,note_on,60,0,0
2,note_on,57,0,0
2,note_on,60,29,120
2,note_on,57,29,0
2,note_on,65,35,0
2,note_on,65,0,120
2,note_on,57,0,0
2,note_on,60,0,0
2,note_on,57,29,120
2,note_on,65,35,0
2,note_on,60,29,0
2,note_on,60,0,120
2,note_on,65,0,0
2,note_on,57,0,0
2,note_on,57,29,120
2,note_on,60,29,0
2,note_on,65,35,0
2,note_on,65,0,120
2,note_on,60,0,0
2,note_on,57,0,0
2,note_on,65,35,120
2,note_on,57,29,0
2,note_on,60,29,0
2,note_on,60,0,120
2,note_on,57,0,0
2,note_on,65,0,0
2,note_on,60,34,120
2,note_on,57,34,0
2,note_on,65,40,0
2,note_on,65,0,120
2,note_on,57,0,0
2,note_on,60,0,0
2,note_on,60,29,120
2,note_on,57,29,0
2,note_on,65,35,0
2,note_on,65,0,120
2,note_on,57,0,0
2,note_on,60,0,0
2,note_on,57,29,120
2,note_on,60,29,0
2,note_on,65,35,0
2,note_on,65,0,120
2,note_on,60,0,0
2,note_on,57,0,0
2,note_on,57,29,120
2,note_on,60,29,0
2,note_on,65,35,0
2,note_on,65,0,240
2,note_on,60,0,0
2,note_on,57,0,0
2,note_on,53,35,0
2,note_on,53,0,240
2,note_on,51,35,0
2,note_on,51,0,240
2,note_on,46,40,0
2,note_on,50,40,0
2,note_on,50,0,480
2,note_on,55,33,0
2,note_on,55,0,240
2,note_on,53,42,0
2,note_on,53,0,480
2,note_on,50,39,0
2,note_on,50,0,240
2,note_on,46,0,0
2,note_on,41,42,0
2,note_on,48,42,0
2,note_on,48,0,480
2,note_on,55,36,0
2,note_on,55,0,240
2,note_on,53,45,0
2,note_on,53,0,480
2,note_on,48,41,0
2,note_on,48,0,240
2,note_on,41,0,0
2,note_on,46,46,0
2,note_on,50,46,0
2,note_on,50,0,480
2,note_on,55,37,0
2,note_on,55,0,240
2,note_on,53,45,0
2,note_on,53,0,480
2,note_on,50,40,0
2,note_on,50,0,240
2,note_on,46,0,0
2,note_on,41,43,0
2,note_on,48,43,0
2,note_on,48,0,480
2,note_on,55,34,0
2,note_on,55,0,240
2,note_on,53,42,0
2,note_on,53,0,480
2,note_on,48,37,0
2,note_on,48,0,240
2,note_on,41,0,0
2,note_on,50,40,0
2,note_on,46,34,0
2,note_on,46,0,120
2,note_on,50,0,0
2,note_on,50,29,120
2,note_on,53,29,0
2,note_on,58,35,0
2,note_on,58,0,120
2,note_on,53,0,0
2,note_on,50,0,0
2,note_on,50,29,120
2,note_on,53,29,0
2,note_on,58,35,0
2,note_on,58,0,120
2,note_on,53,0,0
2,note_on,50,0,0
2,note_on,50,29,120
2,note_on,53,29,0
2,note_on,58,35,0
2,note_on,58,0,120
2,note_on,53,0,0
2,note_on,50,0,0
2,note_on,50,29,120
2,note_on,53,29,0
2,note_on,58,35,0
2,note_on,58,0,120
2,note_on,53,0,0
2,note_on,50,0,0
2,note_on,50,29,120
2,note_on,53,29,0
2,note_on,58,35,0
2,note_on,58,0,120
2,note_on,53,0,0
2,note_on,50,0,0
2,note_on,51,29,360
2,note_on,55,29,0
2,note_on,58,35,0
2,note_on,58,0,120
2,note_on,55,0,0
2,note_on,51,0,0
2,note_on,51,29,120
2,note_on,55,29,0
2,note_on,58,35,0
2,note_on,58,0,120
2,note_on,55,0,0
2,note_on,51,0,0
2,note_on,51,29,120
2,note_on,55,29,0
2,note_on,58,35,0
2,note_on,58,0,120
2,note_on,55,0,0
2,note_on,51,0,0
2,note_on,51,29,120
2,note_on,55,29,0
2,note_on,58,35,0
2,note_on,58,0,120
2,note_on,55,0,0
2,note_on,51,0,0
2,note_on,51,29,120
2,note_on,55,29,0
2,note_on,60,35,0
2,note_on,60,0,120
2,note_on,55,0,0
2,note_on,51,0,0
2,note_on,53,29,360
2,note_on,58,29,0
2,note_on,62,35,0
2,note_on,62,0,120
2,note_on,58,0,0
2,note_on,53,0,0
2,note_on,53,29,120
2,note_on,58,29,0
2,note_on,62,35,0
2,note_on,62,0,120
2,note_on,58,0,0
2,note_on,53,0,0
2,note_on,53,29,120
2,note_on,58,29,0
2,note_on,62,35,0
2,note_on,62,0,120
2,note_on,58,0,0
2,note_on,53,0,0
2,note_on,53,29,120
2,note_on,58,29,0
2,note_on,62,35,0
2,note_on,62,0,120
2,note_on,58,0,0
2,note_on,53,0,0
2,note_on,53,29,120
2,note_on,58,29,0
2,note_on,62,35,0
2,note_on,62,0,120
2,note_on,58,0,0
2,note_on,53,0,0
2,note_on,62,35,120
2,note_on,53,29,0
2,note_on,58,29,0
2,note_on,58,0,120
2,note_on,53,0,0
2,note_on,62,0,0
2,note_on,53,29,120
2,note_on,58,29,0
2,note_on,62,35,0
2,note_on,62,0,120
2,note_on,58,0,0
2,note_on,53,0,0
2,note_on,62,35,120
2,note_on,58,29,0
2,note_on,53,29,0
2,note_on,53,0,120
2,note_on,58,0,0
2,note_on,62,0,0
2,note_on,53,29,120
2,note_on,57,29,0
2,note_on,63,35,0
2,note_on,63,0,120
2,note_on,57,0,0
2,note_on,53,0,0
2,note_on,53,29,120
2,note_on,57,29,0
2,note_on,63,35,0
2,note_on,63,0,120
2,note_on,57,0,0
2,note_on,53,0,0
2,note_on,53,29,120
2,note_on,57,29,0
2,note_on,63,35,0
2,note_on,63,0,120
2,note_on,57,0,0
2,note_on,53,0,0
2,note_on,58,40,120
2,note_on,62,40,0
2,note_on,62,0,480
2,note_on,67,33,0
2,note_on,67,0,240
2,note_on,65,42,0
2,note_on,65,0,480
2,note_on,62,39,0
2,note_on,62,0,240
2,note_on,58,0,0
2,note_on,53,42,0
2,note_on,60,42,0
2,note_on,60,0,480
2,note_on,67,36,0
2,note_on,67,0,240
2,note_on,65,45,0
2,note_on,65,0,480
2,note_on,60,41,0
2,note_on,60,0,240
2,note_on,53,0,0
2,note_on,58,46,0
2,note_on,62,46,0
2,note_on,62,0,480
2,note_on,67,37,0
2,note_on,67,0,240
2,note_on,65,45,0
2,note_on,65,0,480
2,note_on,62,40,0
2,note_on,62,0,240
2,note_on,58,0,0
2,note_on,53,43,0
2,note_on,60,43,0
2,note_on,60,0,480
2,note_on,67,34,0
2,note_on,67,0,240
2,note_on,65,42,0
2,note_on,65,0,480
2,note_on,60,37,0
2,note_on,60,0,240
2,note_on,53,0,0
2,note_on,62,51,0
2,note_on,65,51,0
2,note_on,65,0,120
2,note_on,62,0,0
2,note_on,67,45,0
2,note_on,67,0,120
2,note_on,69,50,0
2,note_on,69,0,120
2,note_on,70,52,0
2,note_on,70,0,120
2,note_on,72,54,0
2,note_on,72,0,80
2,note_on,74,56,0
2,note_on,74,0,80
2,note_on,75,59,0
2,note_on,75,0,80
2,note_on,77,61,0
2,note_on,77,0,120
2,note_on,75,60,0
2,note_on,75,0,120
2,note_on,74,58,0
2,note_on,74,0,120
2,note_on,72,57,0
2,note_on,72,0,120
2,note_on,70,55,0
2,note_on,70,0,120
2,note_on,69,54,0
2,note_on,69,0,120
2,note_on,63,51,0
2,note_on,67,51,0
2,note_on,67,0,120
2,note_on,63,0,0
2,note_on,69,45,0
2,note_on,69,0,120
2,note_on,70,48,0
2,note_on,70,0,120
2,note_on,72,50,0
2,note_on,72,0,120
2,note_on,74,55,0
2,note_on,74,0,80
2,note_on,75,57,0
2,note_on,75,0,80
2,note_on,77,60,0
2,note_on,77,0,80
2,note_on,79,62,0
2,note_on,79,0,120
2,note_on,77,62,0
2,note_on,77,0,120
2,note_on,75,60,0
2,note_on,75,0,80
2,note_on,74,59,0
2,note_on,74,0,80
2,note_on,72,58,0
2,note_on,72,0,80
2,note_on,70,58,0
2,note_on,70,0,80
2,note_on,69,57,0
2,note_on,69,0,80
2,note_on,67,56,0
2,note_on,67,0,80
2,note_on,65,60,0
2,note_on,65,0,120
2,note_on,53,52,0
2,note_on,53,0,120
2,note_on,58,63,0
2,note_on,58,0,120
2,note_on,62,59,0
2,note_on,62,0,120
2,note_on,65,68,0
2,note_on,65,0,120
2,note_on,70,62,0
2,note_on,70,0,120
2,note_on,74,63,0
2,note_on,74,0,120
2,note_on,70,54,0
2,note_on,70,0,120
2,note_on,77,66,0
2,note_on,77,0,120
2,note_on,74,62,0
2,note_on,74,0,120
2,note_on,70,70,0
2,note_on,70,0,120
2,note_on,74,64,0
2,note_on,74,0,120
2,note_on,72,67,0
2,note_on,65,60,0
2,note_on,72,0,80
2,note_on,74,59,0
2,note_on,74,0,80
2,note_on,72,67,0
2,note_on,72,0,80
2,note_on,65,0,0
2,note_on,74,61,0
2,note_on,74,0,80
2,note_on,72,66,0
2,note_on,72,0,80
2,note_on,74,59,0
2,note_on,74,0,80
2,note_on,72,66,0
2,note_on,72,0,80
2,note_on,74,59,0
2,note_on,74,0,80
2,note_on,72,62,0
2,note_on,72,0,80
2,note_on,74,56,0
2,note_on,74,0,80
2,note_on,72,63,0
2,note_on,72,0,80
2,note_on,74,55,0
2,note_on,74,0,80
2,note_on,72,63,0
2,note_on,72,0,80
2,note_on,74,55,0
2,note_on,74,0,80
2,note_on,72,63,0
2,note_on,72,0,80
2,note_on,74,55,0
2,note_on,74,0,80
2,note_on,72,63,0
2,note_on,72,0,80
2,note_on,74,59,0
2,note_on,74,0,80
2,note_on,65,62,0
2,note_on,65,0,120
2,note_on,71,55,0
2,note_on,71,0,120
2,note_on,72,58,0
2,note_on,72,0,120
2,note_on,74,60,0
2,note_on,74,0,120
2,note_on,72,58,0
2,note_on,72,0,120
2,note_on,71,58,0
2,note_on,71,0,120
2,note_on,63,61,0
2,note_on,63,0,120
2,note_on,72,56,0
2,note_on,72,0,120
2,note_on,74,59,0
2,note_on,74,0,120
2,note_on,75,61,0
2,note_on,75,0,120
2,note_on,74,57,0
2,note_on,74,0,120
2,note_on,72,57,0
2,note_on,72,0,120
2,note_on,63,62,6
2,note_on,69,55,114
2,note_on,63,0,6
2,note_on,69,0,114
2,note_on,70,58,0
2,note_on,72,60,115
2,note_on,70,0,5
2,note_on,72,0,115
2,note_on,70,59,5
2,note_on,70,0,120
2,note_on,69,59,0
2,note_on,69,0,120
2,note_on,62,62,0
2,note_on,62,0,120
2,note_on,70,57,0
2,note_on,70,0,120
2,note_on,72,61,0
2,note_on,72,0,120
2,note_on,74,64,0
2,note_on,74,0,120
2,note_on,72,59,0
2,note_on,72,0,120
2,note_on,70,60,0
2,note_on,70,0,120
2,note_on,53,65,6
2,note_on,59,58,114
2,note_on,53,0,6
2,note_on,59,0,114
2,note_on,60,62,0
2,note_on,62,64,115
2,note_on,60,0,5
2,note_on,62,0,115
2,note_on,60,62,5
2,note_on,60,0,120
2,note_on,59,63,0
2,note_on,59,0,120
2,note_on,51,67,0
2,note_on,51,0,120
2,note_on,60,61,0
2,note_on,60,0,120
2,note_on,62,65,0
2,note_on,62,0,120
2,note_on,63,67,0
2,note_on,63,0,120
2,note_on,62,63,0
2,note_on,62,0,120
2,note_on,60,63,0
2,note_on,60,0,120
2,note_on,51,70,6
2,note_on,57,62,114
2,note_on,51,0,6
2,note_on,57,0,114
2,note_on,58,66,0
2,note_on,60,68,115
2,note_on,58,0,5
2,note_on,60,0,115
2,note_on,58,66,5
2,note_on,58,0,120
2,note_on,57,67,0
2,note_on,57,0,120
2,note_on,50,70,0
2,note_on,50,0,120
2,note_on,58,65,0
2,note_on,58,0,120
2,note_on,60,69,0
2,note_on,60,0,120
2,note_on,62,71,0
2,note_on,62,0,120
2,note_on,60,67,0
2,note_on,60,0,120
2,note_on,58,67,0
2,note_on,58,0,120
2,note_on,50,70,0
2,note_on,50,0,120
2,note_on,53,62,0
2,note_on,53,0,120
2,note_on,58,66,0
2,note_on,58,0,120
2,note_on,62,68,0
2,note_on,62,0,120
2,note_on,58,66,0
2,note_on,58,0,120
2,note_on,53,63,0
2,note_on,53,0,120
2,note_on,43,70,0
2,note_on,43,0,120
2,note_on,46,65,0
2,note_on,46,0,120
2,note_on,50,69,0
2,note_on,50,0,120
2,note_on,55,71,0
2,note_on,55,0,120
2,note_on,50,67,0
2,note_on,50,0,120
2,note_on,46,64,0
2,note_on,46,0,120
2,note_on,39,70,0
2,note_on,39,0,120
2,note_on,43,62,0
2,note_on,43,0,120
2,note_on,48,66,0
2,note_on,48,0,120
2,note_on,51,68,0
2,note_on,51,0,120
2,note_on,48,66,0
2,note_on,48,0,120
2,note_on,43,63,0
2,note_on,43,0,120
2,note_on,41,70,0
2,note_on,41,0,120
2,note_on,48,65,0
2,note_on,48,0,120
2,note_on,51,69,0
2,note_on,51,0,120
2,note_on,53,71,0
2,note_on,53,0,120
2,note_on,51,67,0
2,note_on,51,0,120
2,note_on,48,64,0
2,note_on,48,0,120
2,note_on,38,70,0
2,note_on,38,0,120
2,note_on,41,62,0
2,note_on,41,0,120
2,note_on,46,66,0
2,note_on,46,0,120
2,note_on,50,68,0
2,note_on,50,0,120
2,note_on,46,67,0
2,note_on,46,0,120
2,note_on,41,64,0
2,note_on,41,0,120
2,note_on,31,72,0
2,note_on,31,0,120
2,note_on,34,67,0
2,note_on,34,0,120
2,note_on,38,72,0
2,note_on,38,0,120
2,note_on,43,74,0
2,note_on,43,0,120
2,note_on,38,71,0
2,note_on,38,0,120
2,note_on,34,67,0
2,note_on,34,0,120
2,note_on,39,74,0
2,note_on,39,0,120
2,note_on,43,66,0
2,note_on,43,0,120
2,note_on,48,71,0
2,note_on,48,0,120
2,note_on,43,74,0
2,note_on,43,0,120
2,note_on,39,72,0
2,note_on,39,0,240
2,note_on,29,77,0
2,note_on,29,0,120
2,note_on,36,72,0
2,note_on,36,0,120
2,note_on,39,77,0
2,note_on,39,0,120
2,note_on,41,80,0
2,note_on,41,0,120
2,note_on,29,75,0
2,note_on,29,0,120
2,note_on,41,72,0
2,note_on,41,0,120
2,note_on,34,75,0
2,note_on,34,0,120
2,note_on,46,75,120
2,note_on,46,0,120
2,note_on,46,64,120
2,note_on,50,77,0
2,note_on,50,0,120
2,note_on,46,0,0
2,note_on,46,70,120
2,note_on,50,70,0
2,note_on,53,83,0
2,note_on,53,0,480
2,note_on,50,0,0
2,note_on,46,0,0
2,note_on,48,60,0
2,note_on,41,60,0
2,note_on,53,71,0
2,note_on,53,0,120
2,note_on,41,0,0
2,note_on,48,0,0
2,note_on,46,67,120
2,note_on,53,79,0
2,note_on,50,67,0
2,note_on,50,0,120
2,note_on,53,0,0
2,note_on,46,0,0
2,note_on,46,63,120
2,note_on,50,63,0
2,note_on,53,75,0
2,note_on,53,0,120
2,note_on,50,0,0
2,note_on,46,0,0
2,note_on,53,74,120
2,note_on,46,62,0
2,note_on,50,62,0
2,note_on,50,0,120
2,note_on,46,0,0
2,note_on,53,0,0
2,note_on,46,69,120
2,note_on,50,69,0
2,note_on,53,82,0
2,note_on,53,0,480
2,note_on,50,0,0
2,note_on,46,0,0
2,note_on,48,63,0
2,note_on,41,63,0
2,note_on,53,75,0
2,note_on,53,0,120
2,note_on,41,0,0
2,note_on,48,0,0
2,note_on,46,64,120
2,note_on,53,76,0
2,note_on,50,64,0
2,note_on,50,0,120
2,note_on,53,0,0
2,note_on,46,0,0
2,note_on,46,63,120
2,note_on,50,63,0
2,note_on,53,75,0
2,note_on,53,0,120
2,note_on,50,0,0
2,note_on,46,0,0
2,note_on,53,73,120
2,note_on,46,61,0
2,note_on,50,61,0
2,note_on,50,0,120
2,note_on,46,0,0
2,note_on,53,0,0
2,note_on,46,70,120
2,note_on,50,70,0
2,note_on,53,83,0
2,note_on,53,0,480
2,note_on,50,0,0
2,note_on,46,0,0
2,note_on,48,63,0
2,note_on,41,63,0
2,note_on,53,75,0
2,note_on,53,0,120
2,note_on,41,0,0
2,note_on,48,0,0
2,note_on,46,69,120
2,note_on,58,82,0
2,note_on,50,69,0
2,note_on,53,69,0
2,note_on,53,0,480
2,note_on,46,0,0
2,note_on,58,0,0
2,note_on,50,0,0
2,note_on,46,69,240
2,note_on,50,69,0
2,note_on,58,82,0
2,note_on,53,69,0
2,note_on,53,0,480
2,note_on,46,0,0
2,note_on,50,0,0
2,note_on,58,0,0
2,note_on,46,69,240
2,note_on,50,69,0
2,note_on,53,69,0
2,note_on,58,82,0
2,note_on,58,0,480
2,note_on,46,0,0
2,note_on,50,0,0
2,note_on,53,0,0
2,note_on,58,56,1680
2,note_on,58,0,180
2,note_on,54,45,60
2,note_on,54,0,120
2,note_on,51,45,120
2,note_on,51,0,120
2,note_on,46,51,120
2,note_on,46,0,180
2,note_on,42,45,60
2,note_on,42,0,120
2,note_on,39,45,120
2,note_on,39,0,120
2,note_on,66,51,1080
2,note_on,63,43,0
2,note_on,63,0,120
2,note_on,66,0,0
2,note_on,66,51,120
2,note_on,63,43,0
2,note_on,63,0,120
2,note_on,66,0,0
2,note_on,63,46,120
2,note_on,66,55,0
2,note_on,66,0,120
2,note_on,63,0,0
2,note_on,63,43,120
2,note_on,66,51,0
2,note_on,66,0,120
2,note_on,63,0,0
2,note_on,66,51,120
2,note_on,63,43,0
2,note_on,63,0,120
2,note_on,66,0,0
2,note_on,66,50,120
2,note_on,63,50,0
2,note_on,68,59,0
2,note_on,68,0,120
2,note_on,63,0,0
2,note_on,66,0,0
2,note_on,66,43,120
2,note_on,63,43,0
2,note_on,68,51,0
2,note_on,68,0,120
2,note_on,63,0,0
2,note_on,66,0,0
2,note_on,63,43,120
2,note_on,68,51,0
2,note_on,66,43,0
2,note_on,66,0,120
2,note_on,68,0,0
2,note_on,63,0,0
2,note_on,61,47,120
2,note_on,68,56,0
2,note_on,65,47,0
2,note_on,65,0,120
2,note_on,68,0,0
2,note_on,61,0,0
2,note_on,65,44,120
2,note_on,68,52,0
2,note_on,61,44,0
2,note_on,61,0,120
2,note_on,68,0,0
2,note_on,65,0,0
2,note_on,65,28,120
2,note_on,61,28,0
2,note_on,68,32,0
2,note_on,68,0,120
2,note_on,61,0,0
2,note_on,65,0,0
2,note_on,61,56,840
2,note_on,61,0,180
2,note_on,58,45,60
2,note_on,58,0,120
2,note_on,54,45,120
2,note_on,54,0,120
2,note_on,49,51,120
2,note_on,49,0,180
2,note_on,46,45,60
2,note_on,46,0,120
2,note_on,42,45,120
2,note_on,42,0,120
2,note_on,66,43,1080
2,note_on,70,51,0
2,note_on,70,0,120
2,note_on,66,0,0
2,note_on,66,43,120
2,note_on,70,51,0
2,note_on,70,0,120
2,note_on,66,0,0
2,note_on,71,55,120
2,note_on,66,46,0
2,note_on,66,0,120
2,note_on,71,0,0
2,note_on,71,51,120
2,note_on,66,43,0
2,note_on,66,0,120
2,note_on,71,0,0
2,note_on,71,51,120
2,note_on,66,43,0
2,note_on,66,0,120
2,note_on,71,0,0
2,note_on,66,43,120
2,note_on,72,59,0
2,note_on,72,0,120
2,note_on,66,0,0
2,note_on,66,43,120
2,note_on,72,51,0
2,note_on,72,0,120
2,note_on,66,0,0
2,note_on,72,51,120
2,note_on,66,46,0
2,note_on,66,0,120
2,note_on,72,0,0
2,note_on,73,56,120
2,note_on,66,47,0
2,note_on,66,0,120
2,note_on,73,0,0
2,note_on,73,52,120
2,note_on,66,44,0
2,note_on,66,0,120
2,note_on,73,0,0
2,note_on,66,44,120
2,note_on,73,53,0
2,note_on,73,0,120
2,note_on,66,0,0
2,note_on,66,48,120
2,note_on,73,58,0
2,note_on,73,0,120
2,note_on,66,0,0
2,note_on,73,52,120
2,note_on,66,44,0
2,note_on,66,0,120
2,note_on,73,0,0
2,note_on,73,54,120
2,note_on,66,45,0
2,note_on,66,0,120
2,note_on,73,0,0
2,note_on,75,60,120
2,note_on,66,50,0
2,note_on,66,0,120
2,note_on,75,0,0
2,note_on,66,44,120
2,note_on,75,53,0
2,note_on,75,0,120
2,note_on,66,0,0
2,note_on,66,45,120
2,note_on,75,53,0
2,note_on,75,0,120
2,note_on,66,0,0
2,note_on,76,62,120
2,note_on,66,52,0
2,note_on,66,0,120
2,note_on,76,0,0
2,note_on,76,56,120
2,note_on,66,47,0
2,note_on,66,0,120
2,note_on,76,0,0
2,note_on,76,57,120
2,note_on,66,47,0
2,note_on,66,0,120
2,note_on,76,0,0
2,note_on,66,54,120
2,note_on,76,64,0
2,note_on,76,0,120
2,note_on,66,0,0
2,note_on,66,49,120
2,note_on,76,58,0
2,note_on,76,0,120
2,note_on,66,0,0
2,note_on,76,59,120
2,note_on,66,49,0
2,note_on,66,0,120
2,note_on,76,0,0
2,note_on,76,67,120
2,note_on,66,56,0
2,note_on,66,0,120
2,note_on,76,0,0
2,note_on,76,56,120
2,note_on,66,47,0
2,note_on,66,0,120
2,note_on,76,0,0
2,note_on,66,46,120
2,note_on,76,55,0
2,note_on,76,0,120
2,note_on,66,0,0
2,note_on,66,53,120
2,note_on,75,63,0
2,note_on,75,0,120
2,note_on,66,0,0
2,note_on,75,57,120
2,note_on,66,48,0
2,note_on,66,0,120
2,note_on,75,0,0
2,note_on,75,56,120
2,note_on,66,47,0
2,note_on,66,0,120
2,note_on,75,0,0
2,note_on,73,58,120
2,note_on,66,49,0
2,note_on,66,0,120
2,note_on,73,0,0
2,note_on,66,43,120
2,note_on,73,51,0
2,note_on,73,0,120
2,note_on,66,0,0
2,note_on,66,42,120
2,note_on,73,50,0
2,note_on,73,0,120
2,note_on,66,0,0
2,note_on,66,41,120
2,note_on,64,41,0
2,note_on,70,48,0
2,note_on,70,0,120
2,note_on,64,0,0
2,note_on,66,0,0
2,note_on,64,36,120
2,note_on,70,43,0
2,note_on,66,36,0
2,note_on,66,0,120
2,note_on,70,0,0
2,note_on,64,0,0
2,note_on,64,35,120
2,note_on,70,42,0
2,note_on,66,35,0
2,note_on,66,0,120
2,note_on,70,0,0
2,note_on,64,0,0
2,note_on,66,46,120
2,note_on,63,38,0
2,note_on,66,0,120
2,note_on,68,31,0
2,note_on,68,0,120
2,note_on,66,36,0
2,note_on,66,0,120
2,note_on,68,32,0
2,note_on,68,0,120
2,note_on,66,36,0
2,note_on,66,0,120
2,note_on,68,33,0
2,note_on,68,0,120
2,note_on,63,0,0
2,note_on,66,48,0
2,note_on,59,41,0
2,note_on,66,0,120
2,note_on,68,35,0
2,note_on,68,0,120
2,note_on,66,40,0
2,note_on,66,0,120
2,note_on,68,35,0
2,note_on,68,0,120
2,note_on,66,42,0
2,note_on,66,0,120
2,note_on,68,36,0
2,note_on,68,0,120
2,note_on,59,0,0
2,note_on,66,52,0
2,note_on,58,43,0
2,note_on,66,0,120
2,note_on,68,35,0
2,note_on,68,0,120
2,note_on,66,39,0
2,note_on,66,0,120
2,note_on,68,34,0
2,note_on,68,0,120
2,note_on,66,37,0
2,note_on,66,0,120
2,note_on,68,33,0
2,note_on,68,0,120
2,note_on,58,0,0
2,note_on,66,47,0
2,note_on,64,41,0
2,note_on,66,0,120
2,note_on,68,34,0
2,note_on,68,0,120
2,note_on,66,37,0
2,note_on,66,0,120
2,note_on,68,32,0
2,note_on,68,0,120
2,note_on,66,38,0
2,note_on,66,0,120
2,note_on,68,31,0
2,note_on,68,0,120
2,note_on,64,0,0
2,note_on,59,48,0
2,note_on,63,48,0
2,note_on,63,0,480
2,note_on,68,45,0
2,note_on,68,0,240
2,note_on,66,54,0
2,note_on,66,0,480
2,note_on,63,49,0
2,note_on,63,0,240
2,note_on,59,0,0
2,note_on,54,46,0
2,note_on,61,55,0
2,note_on,61,0,480
2,note_on,68,46,0
2,note_on,68,0,240
2,note_on,54,0,0
2,note_on,52,45,0
2,note_on,66,53,0
2,note_on,66,0,480
2,note_on,61,44,0
2,note_on,61,0,240
2,note_on,52,0,0
2,note_on,51,35,0
2,note_on,51,0,120
2,note_on,59,27,0
2,note_on,59,0,120
2,note_on,51,31,0
2,note_on,51,0,120
2,note_on,59,26,0
2,note_on,59,0,120
2,note_on,51,31,0
2,note_on,51,0,120
2,note_on,59,27,0
2,note_on,59,0,120
2,note_on,50,37,0
2,note_on,50,0,120
2,note_on,60,27,0
2,note_on,60,0,120
2,note_on,50,31,0
2,note_on,50,0,120
2,note_on,60,27,0
2,note_on,60,0,120
2,note_on,50,31,0
2,note_on,50,0,120
2,note_on,60,27,0
2,note_on,60,0,120
2,note_on,48,35,0
2,note_on,48,0,120
2,note_on,57,27,0
2,note_on,57,0,120
2,note_on,48,31,0
2,note_on,48,0,120
2,note_on,57,26,0
2,note_on,57,0,120
2,note_on,48,31,0
2,note_on,48,0,120
2,note_on,57,27,0
2,note_on,57,0,120
2,note_on,47,37,0
2,note_on,47,0,120
2,note_on,55,27,0
2,note_on,55,0,120
2,note_on,47,31,0
2,note_on,47,0,120
2,note_on,55,27,0
2,note_on,55,0,120
2,note_on,45,31,0
2,note_on,45,0,120
2,note_on,54,27,0
2,note_on,54,0,120
2,note_on,43,36,0
2,note_on,55,36,0
2,note_on,55,0,240
2,note_on,43,0,0
2,note_on,59,38,0
2,note_on,55,32,0
2,note_on,55,0,120
2,note_on,59,0,0
2,note_on,62,39,0
2,note_on,62,0,120
2,note_on,59,40,0
2,note_on,55,34,0
2,note_on,55,0,120
2,note_on,59,0,0
2,note_on,62,36,0
2,note_on,62,0,120
2,note_on,59,42,0
2,note_on,55,35,0
2,note_on,55,0,120
2,note_on,59,0,0
2,note_on,62,40,0
2,note_on,62,0,120
2,note_on,59,44,0
2,note_on,55,37,0
2,note_on,55,0,120
2,note_on,59,0,0
2,note_on,62,42,0
2,note_on,62,0,120
2,note_on,59,46,0
2,note_on,55,39,0
2,note_on,55,0,120
2,note_on,59,0,0
2,note_on,62,44,0
2,note_on,62,0,120
2,note_on,54,40,0
2,note_on,60,48,0
2,note_on,60,0,120
2,note_on,54,0,0
2,note_on,62,42,0
2,note_on,62,0,120
2,note_on,54,35,0
2,note_on,60,42,0
2,note_on,60,0,120
2,note_on,54,0,0
2,note_on,62,42,0
2,note_on,62,0,120
2,note_on,54,40,0
2,note_on,60,48,0
2,note_on,60,0,120
2,note_on,54,0,0
2,note_on,62,44,0
2,note_on,62,0,120
2,note_on,54,39,0
2,note_on,60,46,0
2,note_on,60,0,120
2,note_on,54,0,0
2,note_on,62,41,0
2,note_on,62,0,120
2,note_on,54,37,0
2,note_on,60,44,0
2,note_on,60,0,120
2,note_on,54,0,0
2,note_on,62,39,0
2,note_on,62,0,120
2,note_on,54,35,0
2,note_on,60,42,0
2,note_on,60,0,120
2,note_on,54,0,0
2,note_on,62,36,0
2,note_on,62,0,120
2,note_on,55,48,0
2,note_on,59,48,0
2,note_on,59,0,480
2,note_on,64,45,0
2,note_on,64,0,240
2,note_on,62,54,0
2,note_on,62,0,480
2,note_on,59,49,0
2,note_on,59,0,240
2,note_on,55,0,0
2,note_on,50,46,0
2,note_on,57,55,0
2,note_on,57,0,480
2,note_on,64,46,0
2,note_on,64,0,240
2,note_on,62,53,0
2,note_on,62,0,480
2,note_on,57,44,0
2,note_on,57,0,240
2,note_on,50,0,0
2,note_on,62,44,0
2,note_on,59,37,0
2,note_on,55,37,0
2,note_on,55,0,480
2,note_on,59,0,0
2,note_on,62,0,0
2,note_on,62,44,720
2,note_on,62,0,120
2,note_on,62,44,120
2,note_on,62,0,240
2,note_on,59,38,0
2,note_on,59,0,240
2,note_on,55,38,0
2,note_on,55,0,240
2,note_on,53,44,0
2,note_on,53,0,240
2,note_on,50,44,0
2,note_on,50,0,240
2,note_on,47,44,0
2,note_on,47,0,120
2,note_on,48,44,120
2,note_on,48,0,480
2,note_on,67,40,0
2,note_on,67,0,237
2,note_on,67,44,3
2,note_on,67,0,240
2,note_on,64,40,0
2,note_on,64,0,240
2,note_on,55,34,0
2,note_on,60,40,0
2,note_on,60,0,238
2,note_on,55,0,0
2,note_on,55,44,2
2,note_on,55,0,240
2,note_on,52,40,0
2,note_on,52,0,240
2,note_on,48,40,0
2,note_on,48,0,240
2,note_on,43,44,0
2,note_on,43,0,240
2,note_on,36,39,0
2,note_on,36,0,240
2,note_on,48,39,0
2,note_on,48,0,238
2,note_on,48,39,2
2,note_on,48,0,120
2,note_on,51,31,0
2,note_on,51,0,120
2,note_on,56,31,0
2,note_on,56,0,120
2,note_on,51,31,0
2,note_on,51,0,120
2,note_on,56,30,0
2,note_on,56,0,120
2,note_on,51,32,0
2,note_on,51,0,120
2,note_on,49,41,0
2,note_on,49,0,120
2,note_on,51,32,0
2,note_on,51,0,120
2,note_on,55,33,0
2,note_on,55,0,120
2,note_on,58,33,0
2,note_on,58,0,120
2,note_on,61,33,0
2,note_on,61,0,120
2,note_on,55,33,0
2,note_on,55,0,120
2,note_on,56,40,0
2,note_on,56,0,120
2,note_on,60,32,0
2,note_on,60,0,120
2,note_on,63,33,0
2,note_on,63,0,120
2,note_on,60,33,0
2,note_on,60,0,120
2,note_on,63,34,0
2,note_on,63,0,120
2,note_on,60,34,0
2,note_on,60,0,120
2,note_on,55,42,0
2,note_on,55,0,120
2,note_on,58,33,0
2,note_on,58,0,120
2,note_on,63,33,0
2,note_on,63,0,120
2,note_on,58,33,0
2,note_on,58,0,120
2,note_on,55,33,0
2,note_on,55,0,120
2,note_on,58,33,0
2,note_on,58,0,120
2,note_on,51,41,0
2,note_on,51,0,120
2,note_on,55,33,0
2,note_on,55,0,120
2,note_on,58,34,0
2,note_on,58,0,120
2,note_on,55,35,0
2,note_on,55,0,120
2,note_on,58,35,0
2,note_on,58,0,120
2,note_on,55,35,0
2,note_on,55,0,120
2,note_on,46,43,0
2,note_on,46,0,120
2,note_on,56,34,0
2,note_on,56,0,120
2,note_on,58,34,0
2,note_on,58,0,120
2,note_on,56,34,0
2,note_on,56,0,120
2,note_on,58,34,0
2,note_on,58,0,120
2,note_on,56,34,0
2,note_on,56,0,120
2,note_on,51,42,0
2,note_on,51,0,120
2,note_on,55,34,0
2,note_on,55,0,120
2,note_on,58,36,0
2,note_on,58,0,120
2,note_on,55,36,0
2,note_on,55,0,120
2,note_on,58,36,0
2,note_on,58,0,120
2,note_on,55,36,0
2,note_on,55,0,120
2,note_on,58,45,0
2,note_on,58,0,120
2,note_on,55,35,0
2,note_on,55,0,120
2,note_on,58,35,0
2,note_on,58,0,120
2,note_on,55,35,0
2,note_on,55,0,120
2,note_on,52,35,0
2,note_on,52,0,120
2,note_on,55,35,0
2,note_on,55,0,120
2,note_on,53,43,0
2,note_on,53,0,120
2,note_on,56,36,0
2,note_on,56,0,120
2,note_on,60,37,0
2,note_on,60,0,120
2,note_on,56,37,0
2,note_on,56,0,120
2,note_on,60,37,0
2,note_on,60,0,120
2,note_on,56,37,0
2,note_on,56,0,120
2,note_on,48,46,0
2,note_on,48,0,120
2,note_on,58,36,0
2,note_on,58,0,120
2,note_on,60,36,0
2,note_on,60,0,120
2,note_on,58,36,0
2,note_on,58,0,120
2,note_on,60,36,0
2,note_on,60,0,120
2,note_on,58,36,0
2,note_on,58,0,120
2,note_on,53,44,0
2,note_on,53,0,120
2,note_on,56,37,0
2,note_on,56,0,120
2,note_on,60,38,0
2,note_on,60,0,120
2,note_on,56,38,0
2,note_on,56,0,120
2,note_on,60,38,0
2,note_on,60,0,120
2,note_on,56,38,0
2,note_on,56,0,120
2,note_on,58,47,0
2,note_on,58,0,120
2,note_on,56,37,0
2,note_on,56,0,120
2,note_on,58,37,0
2,note_on,58,0,120
2,note_on,56,37,0
2,note_on,56,0,120
2,note_on,50,37,0
2,note_on,50,0,120
2,note_on,56,37,0
2,note_on,56,0,120
2,note_on,51,46,0
2,note_on,51,0,120
2,note_on,55,38,0
2,note_on,55,0,120
2,note_on,58,39,0
2,note_on,58,0,120
2,note_on,55,39,0
2,note_on,55,0,120
2,note_on,58,39,0
2,note_on,58,0,120
2,note_on,55,39,0
2,note_on,55,0,120
2,note_on,44,49,0
2,note_on,44,0,120
2,note_on,53,38,0
2,note_on,53,0,120
2,note_on,56,38,0
2,note_on,56,0,120
2,note_on,53,38,0
2,note_on,53,0,120
2,note_on,56,38,0
2,note_on,56,0,120
2,note_on,53,39,0
2,note_on,53,0,120
2,note_on,46,47,0
2,note_on,46,0,120
2,note_on,51,39,0
2,note_on,51,0,120
2,note_on,55,40,0
2,note_on,55,0,120
2,note_on,51,40,0
2,note_on,51,0,120
2,note_on,55,40,0
2,note_on,55,0,120
2,note_on,51,40,0
2,note_on,51,0,120
2,note_on,46,50,0
2,note_on,46,0,120
2,note_on,50,39,0
2,note_on,50,0,120
2,note_on,53,39,0
2,note_on,53,0,120
2,note_on,50,39,0
2,note_on,50,0,120
2,note_on,46,39,0
2,note_on,58,39,0
2,note_on,58,0,240
2,note_on,46,0,0
2,note_on,46,57,0
2,note_on,58,67,0
2,note_on,58,0,120
2,note_on,46,0,0
2,note_on,43,49,120
2,note_on,55,58,0
2,note_on,55,0,120
2,note_on,43,0,0
2,note_on,39,44,120
2,note_on,51,54,0
2,note_on,51,0,120
2,note_on,39,0,0
2,note_on,38,51,120
2,note_on,50,62,0
2,note_on,50,0,120
2,note_on,38,0,0
2,note_on,41,47,120
2,note_on,53,56,0
2,note_on,53,0,120
2,note_on,41,0,0
2,note_on,46,48,120
2,note_on,58,57,0
2,note_on,58,0,121
2,note_on,46,0,0
2,note_on,46,52,119
2,note_on,58,63,0
2,note_on,58,0,120
2,note_on,46,0,0
2,note_on,43,49,120
2,note_on,55,58,0
2,note_on,55,0,120
2,note_on,43,0,0
2,note_on,39,49,120
2,note_on,51,58,0
2,note_on,51,0,121
2,note_on,39,0,0
2,note_on,39,54,119
2,note_on,51,64,0
2,note_on,51,0,120
2,note_on,39,0,0
2,note_on,43,46,120
2,note_on,55,55,0
2,note_on,55,0,120
2,note_on,43,0,0
2,note_on,48,56,120
2,note_on,60,66,0
2,note_on,60,0,121
2,note_on,48,0,0
2,note_on,48,60,119
2,note_on,60,72,0
2,note_on,60,0,120
2,note_on,48,0,0
2,note_on,44,55,120
2,note_on,56,65,0
2,note_on,56,0,120
2,note_on,44,0,0
2,note_on,41,55,120
2,note_on,53,65,0
2,note_on,53,0,120
2,note_on,41,0,0
2,note_on,40,60,120
2,note_on,52,72,0
2,note_on,52,0,120
2,note_on,40,0,0
2,note_on,43,55,120
2,note_on,55,65,0
2,note_on,55,0,120
2,note_on,43,0,0
2,note_on,48,59,120
2,note_on,60,71,0
2,note_on,60,0,121
2,note_on,48,0,0
2,note_on,48,71,119
2,note_on,60,83,0
2,note_on,60,0,120
2,note_on,48,0,0
2,note_on,44,57,120
2,note_on,56,67,0
2,note_on,56,0,120
2,note_on,44,0,0
2,note_on,41,57,120
2,note_on,53,67,0
2,note_on,53,0,120
2,note_on,41,0,0
2,note_on,38,64,120
2,note_on,50,77,0
2,note_on,50,0,120
2,note_on,38,0,0
2,note_on,41,58,120
2,note_on,53,69,0
2,note_on,53,0,120
2,note_on,41,0,0
2,note_on,46,58,120
2,note_on,58,69,0
2,note_on,58,0,121
2,note_on,46,0,0
2,note_on,46,64,119
2,note_on,58,77,0
2,note_on,58,0,120
2,note_on,46,0,0
2,note_on,43,56,120
2,note_on,55,66,0
2,note_on,55,0,120
2,note_on,43,0,0
2,note_on,39,56,120
2,note_on,51,66,0
2,note_on,51,0,120
2,note_on,39,0,0
2,note_on,36,58,120
2,note_on,48,70,0
2,note_on,48,0,120
2,note_on,36,0,0
2,note_on,41,54,120
2,note_on,53,64,0
2,note_on,53,0,120
2,note_on,41,0,0
2,note_on,44,54,120
2,note_on,56,64,0
2,note_on,56,0,121
2,note_on,44,0,0
2,note_on,34,63,119
2,note_on,46,74,0
2,note_on,46,0,120
2,note_on,34,0,0
2,note_on,39,57,120
2,note_on,51,67,0
2,note_on,51,0,120
2,note_on,39,0,0
2,note_on,43,58,120
2,note_on,55,69,0
2,note_on,55,0,121
2,note_on,43,0,0
2,note_on,34,64,119
2,note_on,46,77,0
2,note_on,46,0,120
2,note_on,34,0,0
2,note_on,38,58,120
2,note_on,50,69,0
2,note_on,50,0,120
2,note_on,38,0,0
2,note_on,46,58,120
2,note_on,58,69,0
2,note_on,58,0,120
2,note_on,46,0,0
2,note_on,39,73,120
2,note_on,39,0,120
2,note_on,55,62,120
2,note_on,51,49,0
2,note_on,51,0,120
2,note_on,55,0,0
2,note_on,58,62,120
2,note_on,55,49,0
2,note_on,51,49,0
2,note_on,51,0,120
2,note_on,55,0,0
2,note_on,58,0,0
2,note_on,63,62,120
2,note_on,58,49,0
2,note_on,55,49,0
2,note_on,51,49,0
2,note_on,51,0,120
2,note_on,63,0,0
2,note_on,58,0,0
2,note_on,55,0,0
2,note_on,63,62,120
2,note_on,58,49,0
2,note_on,55,49,0
2,note_on,51,49,0
2,note_on,51,0,120
2,note_on,63,0,0
2,note_on,58,0,0
2,note_on,55,0,0
2,note_on,63,62,120
2,note_on,58,49,0
2,note_on,55,49,0
2,note_on,51,49,0
2,note_on,51,0,120
2,note_on,63,0,0
2,note_on,58,0,0
2,note_on,55,0,0
2,note_on,63,70,120
2,note_on,58,56,0
2,note_on,55,56,0
2,note_on,51,56,0
2,note_on,51,0,120
2,note_on,63,0,0
2,note_on,58,0,0
2,note_on,55,0,0
2,note_on,63,62,120
2,note_on,58,49,0
2,note_on,55,49,0
2,note_on,51,49,0
2,note_on,51,0,120
2,note_on,63,0,0
2,note_on,58,0,0
2,note_on,55,0,0
2,note_on,63,62,120
2,note_on,58,49,0
2,note_on,55,49,0
2,note_on,51,49,0
2,note_on,51,0,120
2,note_on,63,0,0
2,note_on,58,0,0
2,note_on,55,0,0
2,note_on,62,62,120
2,note_on,56,49,0
2,note_on,58,49,0
2,note_on,53,49,0
2,note_on,51,49,0
2,note_on,51,0,120
2,note_on,58,0,0
2,note_on,62,0,0
2,note_on,56,0,0
2,note_on,53,0,0
2,note_on,62,62,120
2,note_on,58,49,0
2,note_on,56,49,0
2,note_on,53,49,0
2,note_on,51,49,0
2,note_on,51,0,120
2,note_on,56,0,0
2,note_on,62,0,0
2,note_on,58,0,0
2,note_on,53,0,0
2,note_on,62,62,120
2,note_on,58,49,0
2,note_on,56,49,0
2,note_on,53,49,0
2,note_on,51,49,0
2,note_on,51,0,120
2,note_on,56,0,0
2,note_on,62,0,0
2,note_on,58,0,0
2,note_on,53,0,0
2,note_on,63,72,120
2,note_on,58,57,0
2,note_on,55,57,0
2,note_on,51,57,0
2,note_on,51,0,120
2,note_on,63,0,0
2,note_on,58,0,0
2,note_on,55,0,0
2,note_on,63,62,120
2,note_on,58,49,0
2,note_on,55,49,0
2,note_on,51,49,0
2,note_on,51,0,120
2,note_on,63,0,0
2,note_on,58,0,0
2,note_on,55,0,0
2,note_on,63,62,120
2,note_on,58,49,0
2,note_on,55,49,0
2,note_on,51,49,0
2,note_on,51,0,120
2,note_on,63,0,0
2,note_on,58,0,0
2,note_on,55,0,0
2,note_on,63,62,120
2,note_on,58,49,0
2,note_on,55,49,0
2,note_on,51,49,0
2,note_on,51,0,120
2,note_on,63,0,0
2,note_on,58,0,0
2,note_on,55,0,0
2,note_on,63,62,120
2,note_on,58,49,0
2,note_on,55,49,0
2,note_on,51,49,0
2,note_on,51,0,120
2,note_on,63,0,0
2,note_on,58,0,0
2,note_on,55,0,0
2,note_on,63,62,120
2,note_on,58,49,0
2,note_on,55,49,0
2,note_on,51,49,0
2,note_on,51,0,120
2,note_on,63,0,0
2,note_on,58,0,0
2,note_on,55,0,0
2,note_on,63,69,120
2,note_on,58,55,0
2,note_on,55,55,0
2,note_on,51,55,0
2,note_on,51,0,120
2,note_on,63,0,0
2,note_on,58,0,0
2,note_on,55,0,0
2,note_on,63,61,120
2,note_on,58,48,0
2,note_on,55,48,0
2,note_on,51,48,0
2,note_on,51,0,120
2,note_on,63,0,0
2,note_on,58,0,0
2,note_on,55,0,0
2,note_on,63,61,120
2,note_on,58,48,0
2,note_on,55,48,0
2,note_on,51,48,0
2,note_on,51,0,120
2,note_on,63,0,0
2,note_on,58,0,0
2,note_on,55,0,0
2,note_on,58,61,120
2,note_on,56,48,0
2,note_on,53,48,0
2,note_on,51,48,0
2,note_on,51,0,120
2,note_on,58,0,0
2,note_on,56,0,0
2,note_on,53,0,0
2,note_on,58,61,120
2,note_on,56,48,0
2,note_on,53,48,0
2,note_on,51,48,0
2,note_on,51,0,120
2,note_on,58,0,0
2,note_on,56,0,0
2,note_on,53,0,0
2,note_on,58,61,120
2,note_on,56,48,0
2,note_on,53,48,0
2,note_on,51,48,0
2,note_on,51,0,120
2,note_on,58,0,0
2,note_on,56,0,0
2,note_on,53,0,0
2,note_on,39,73,120
2,note_on,39,0,120
2,note_on,55,62,120
2,note_on,51,49,0
2,note_on,51,0,120
2,note_on,55,0,0
2,note_on,58,62,120
2,note_on,55,49,0
2,note_on,51,49,0
2,note_on,51,0,120
2,note_on,55,0,0
2,note_on,58,0,0
2,note_on,63,62,120
2,note_on,58,49,0
2,note_on,55,49,0
2,note_on,51,49,0
2,note_on,51,0,120
2,note_on,63,0,0
2,note_on,58,0,0
2,note_on,55,0,0
2,note_on,63,62,120
2,note_on,58,49,0
2,note_on,55,49,0
2,note_on,51,49,0
2,note_on,51,0,120
2,note_on,63,0,0
2,note_on,58,0,0
2,note_on,55,0,0
2,note_on,63,62,120
2,note_on,58,49,0
2,note_on,55,49,0
2,note_on,51,49,0
2,note_on,51,0,120
2,note_on,63,0,0
2,note_on,58,0,0
2,note_on,55,0,0
2,note_on,63,70,120
2,note_on,58,56,0
2,note_on,55,56,0
2,note_on,51,56,0
2,note_on,51,0,120
2,note_on,63,0,0
2,note_on,58,0,0
2,note_on,55,0,0
2,note_on,63,62,120
2,note_on,58,49,0
2,note_on,55,49,0
2,note_on,51,49,0
2,note_on,51,0,120
2,note_on,63,0,0
2,note_on,58,0,0
2,note_on,55,0,0
2,note_on,63,62,120
2,note_on,58,49,0
2,note_on,55,49,0
2,note_on,51,49,0
2,note_on,51,0,120
2,note_on,63,0,0
2,note_on,58,0,0
2,note_on,55,0,0
2,note_on,61,62,120
2,note_on,58,49,0
2,note_on,55,49,0
2,note_on,51,49,0
2,note_on,51,0,120
2,note_on,61,0,0
2,note_on,58,0,0
2,note_on,55,0,0
2,note_on,61,62,120
2,note_on,58,49,0
2,note_on,55,49,0
2,note_on,51,49,0
2,note_on,51,0,120
2,note_on,61,0,0
2,note_on,58,0,0
2,note_on,55,0,0
2,note_on,61,62,120
2,note_on,58,49,0
2,note_on,55,49,0
2,note_on,51,49,0
2,note_on,51,0,120
2,note_on,61,0,0
2,note_on,58,0,0
2,note_on,55,0,0
2,note_on,61,72,120
2,note_on,58,57,0
2,note_on,55,57,0
2,note_on,51,57,0
2,note_on,51,0,120
2,note_on,61,0,0
2,note_on,58,0,0
2,note_on,55,0,0
2,note_on,61,62,120
2,note_on,58,49,0
2,note_on,55,49,0
2,note_on,51,49,0
2,note_on,51,0,120
2,note_on,61,0,0
2,note_on,58,0,0
2,note_on,55,0,0
2,note_on,61,62,120
2,note_on,58,49,0
2,note_on,55,49,0
2,note_on,51,49,0
2,note_on,51,0,120
2,note_on,61,0,0
2,note_on,58,0,0
2,note_on,55,0,0
2,note_on,61,62,120
2,note_on,58,49,0
2,note_on,55,49,0
2,note_on,51,49,0
2,note_on,51,0,120
2,note_on,61,0,0
2,note_on,58,0,0
2,note_on,55,0,0
2,note_on,61,62,120
2,note_on,58,49,0
2,note_on,55,49,0
2,note_on,51,49,0
2,note_on,51,0,120
2,note_on,61,0,0
2,note_on,58,0,0
2,note_on,55,0,0
2,note_on,61,62,120
2,note_on,58,49,0
2,note_on,55,49,0
2,note_on,51,49,0
2,note_on,51,0,120
2,note_on,61,0,0
2,note_on,58,0,0
2,note_on,55,0,0
2,note_on,58,55,120
2,note_on,61,69,0
2,note_on,55,55,0
2,note_on,51,55,0
2,note_on,51,0,120
2,note_on,58,0,0
2,note_on,61,0,0
2,note_on,55,0,0
2,note_on,58,48,120
2,note_on,61,61,0
2,note_on,55,48,0
2,note_on,51,48,0
2,note_on,51,0,120
2,note_on,58,0,0
2,note_on,61,0,0
2,note_on,55,0,0
2,note_on,56,48,120
2,note_on,60,61,0
2,note_on,51,48,0
2,note_on,51,0,120
2,note_on,60,0,0
2,note_on,56,0,0
2,note_on,51,48,120
2,note_on,53,48,0
2,note_on,59,61,0
2,note_on,56,48,0
2,note_on,56,0,120
2,note_on,51,0,0
2,note_on,53,0,0
2,note_on,59,0,0
2,note_on,51,48,120
2,note_on,59,61,0
2,note_on,56,48,0
2,note_on,53,48,0
2,note_on,53,0,120
2,note_on,51,0,0
2,note_on,59,0,0
2,note_on,56,0,0
2,note_on,51,48,120
2,note_on,58,61,0
2,note_on,56,48,0
2,note_on,53,48,0
2,note_on,53,0,120
2,note_on,51,0,0
2,note_on,58,0,0
2,note_on,56,0,0
2,note_on,39,80,120
2,note_on,51,80,0
2,note_on,51,0,240
2,note_on,39,0,0
2,note_on,63,75,480
2,note_on,63,0,240
2,note_on,66,81,480
2,note_on,66,0,240
2,note_on,71,74,480
2,note_on,71,0,240
2,note_on,66,79,480
2,note_on,66,0,240
2,note_on,63,74,480
2,note_on,63,0,240
2,note_on,59,78,480
2,note_on,59,0,240
2,note_on,54,70,480
2,note_on,54,0,240
2,note_on,38,80,480
2,note_on,50,80,0
2,note_on,50,0,240
2,note_on,38,0,0
2,note_on,62,75,480
2,note_on,62,0,240
2,note_on,65,81,480
2,note_on,65,0,240
2,note_on,70,74,480
2,note_on,70,0,240
2,note_on,65,79,480
2,note_on,65,0,240
2,note_on,62,74,480
2,note_on,62,0,240
2,note_on,58,78,480
2,note_on,58,0,240
2,note_on,53,70,480
2,note_on,53,0,240
2,note_on,63,34,480
2,note_on,66,34,0
2,note_on,71,40,0
2,note_on,71,0,120
2,note_on,66,0,0
2,note_on,63,0,0
2,note_on,63,29,120
2,note_on,66,29,0
2,note_on,71,35,0
2,note_on,71,0,120
2,note_on,66,0,0
2,note_on,63,0,0
2,note_on,63,29,120
2,note_on,66,29,0
2,note_on,71,35,0
2,note_on,71,0,120
2,note_on,66,0,0
2,note_on,63,0,0
2,note_on,63,29,120
2,note_on,66,29,0
2,note_on,71,35,0
2,note_on,71,0,120
2,note_on,66,0,0
2,note_on,63,0,0
2,note_on,63,29,120
2,note_on,66,29,0
2,note_on,71,35,0
2,note_on,71,0,120
2,note_on,66,0,0
2,note_on,63,0,0
2,note_on,63,29,120
2,note_on,66,29,0
2,note_on,71,35,0
2,note_on,71,0,120
2,note_on,66,0,0
2,note_on,63,0,0
2,note_on,63,34,120
2,note_on,66,34,0
2,note_on,71,40,0
2,note_on,71,0,120
2,note_on,66,0,0
2,note_on,63,0,0
2,note_on,63,29,120
2,note_on,66,29,0
2,note_on,71,35,0
2,note_on,71,0,120
2,note_on,66,0,0
2,note_on,63,0,0
2,note_on,63,29,120
2,note_on,66,29,0
2,note_on,71,35,0
2,note_on,71,0,120
2,note_on,66,0,0
2,note_on,63,0,0
2,note_on,63,29,120
2,note_on,66,29,0
2,note_on,71,35,0
2,note_on,71,0,120
2,note_on,66,0,0
2,note_on,63,0,0
2,note_on,63,29,120
2,note_on,66,29,0
2,note_on,71,35,0
2,note_on,71,0,120
2,note_on,66,0,0
2,note_on,63,0,0
2,note_on,63,29,120
2,note_on,66,29,0
2,note_on,71,35,0
2,note_on,71,0,120
2,note_on,66,0,0
2,note_on,63,0,0
2,note_on,63,34,120
2,note_on,66,34,0
2,note_on,71,40,0
2,note_on,71,0,120
2,note_on,66,0,0
2,note_on,63,0,0
2,note_on,63,29,120
2,note_on,66,29,0
2,note_on,71,35,0
2,note_on,71,0,120
2,note_on,66,0,0
2,note_on,63,0,0
2,note_on,63,29,120
2,note_on,66,29,0
2,note_on,71,35,0
2,note_on,71,0,120
2,note_on,66,0,0
2,note_on,63,0,0
2,note_on,63,29,120
2,note_on,66,29,0
2,note_on,71,35,0
2,note_on,71,0,120
2,note_on,66,0,0
2,note_on,63,0,0
2,note_on,63,29,120
2,note_on,66,29,0
2,note_on,71,35,0
2,note_on,71,0,120
2,note_on,66,0,0
2,note_on,63,0,0
2,note_on,63,29,120
2,note_on,66,29,0
2,note_on,71,35,0
2,note_on,71,0,120
2,note_on,66,0,0
2,note_on,63,0,0
2,note_on,63,34,120
2,note_on,66,34,0
2,note_on,71,40,0
2,note_on,71,0,120
2,note_on,66,0,0
2,note_on,63,0,0
2,note_on,63,29,120
2,note_on,66,29,0
2,note_on,71,35,0
2,note_on,71,0,120
2,note_on,66,0,0
2,note_on,63,0,0
2,note_on,63,29,120
2,note_on,66,29,0
2,note_on,71,35,0
2,note_on,71,0,120
2,note_on,66,0,0
2,note_on,63,0,0
2,note_on,63,29,120
2,note_on,66,29,0
2,note_on,71,35,0
2,note_on,71,0,120
2,note_on,66,0,0
2,note_on,63,0,0
2,note_on,63,29,120
2,note_on,66,29,0
2,note_on,71,35,0
2,note_on,71,0,120
2,note_on,66,0,0
2,note_on,63,0,0
2,note_on,63,29,120
2,note_on,66,29,0
2,note_on,69,35,0
2,note_on,69,0,120
2,note_on,66,0,0
2,note_on,63,0,0
2,note_on,62,34,120
2,note_on,65,34,0
2,note_on,70,40,0
2,note_on,70,0,120
2,note_on,65,0,0
2,note_on,62,0,0
2,note_on,62,29,120
2,note_on,65,29,0
2,note_on,70,35,0
2,note_on,70,0,120
2,note_on,65,0,0
2,note_on,62,0,0
2,note_on,62,29,120
2,note_on,65,29,0
2,note_on,70,35,0
2,note_on,70,0,120
2,note_on,65,0,0
2,note_on,62,0,0
2,note_on,62,29,120
2,note_on,65,29,0
2,note_on,70,35,0
2,note_on,70,0,120
2,note_on,65,0,0
2,note_on,62,0,0
2,note_on,62,29,120
2,note_on,65,29,0
2,note_on,70,35,0
2,note_on,70,0,120
2,note_on,65,0,0
2,note_on,62,0,0
2,note_on,62,29,120
2,note_on,65,29,0
2,note_on,70,35,0
2,note_on,70,0,120
2,note_on,65,0,0
2,note_on,62,0,0
2,note_on,62,34,120
2,note_on,65,34,0
2,note_on,70,40,0
2,note_on,70,0,120
2,note_on,65,0,0
2,note_on,62,0,0
2,note_on,62,29,120
2,note_on,65,29,0
2,note_on,70,35,0
2,note_on,70,0,120
2,note_on,65,0,0
2,note_on,62,0,0
2,note_on,62,29,120
2,note_on,65,29,0
2,note_on,70,35,0
2,note_on,70,0,120
2,note_on,65,0,0
2,note_on,62,0,0
2,note_on,62,29,120
2,note_on,65,29,0
2,note_on,70,35,0
2,note_on,70,0,120
2,note_on,65,0,0
2,note_on,62,0,0
2,note_on,62,29,120
2,note_on,65,29,0
2,note_on,70,35,0
2,note_on,70,0,120
2,note_on,65,0,0
2,note_on,62,0,0
2,note_on,62,29,120
2,note_on,65,29,0
2,note_on,70,35,0
2,note_on,70,0,120
2,note_on,65,0,0
2,note_on,62,0,0
2,note_on,62,34,120
2,note_on,65,34,0
2,note_on,70,40,0
2,note_on,70,0,120
2,note_on,65,0,0
2,note_on,62,0,0
2,note_on,62,29,120
2,note_on,65,29,0
2,note_on,70,35,0
2,note_on,70,0,120
2,note_on,65,0,0
2,note_on,62,0,0
2,note_on,62,29,120
2,note_on,65,29,0
2,note_on,70,35,0
2,note_on,70,0,120
2,note_on,65,0,0
2,note_on,62,0,0
2,note_on,62,29,120
2,note_on,65,29,0
2,note_on,70,35,0
2,note_on,70,0,120
2,note_on,65,0,0
2,note_on,62,0,0
2,note_on,62,29,120
2,note_on,65,29,0
2,note_on,70,35,0
2,note_on,70,0,120
2,note_on,65,0,0
2,note_on,62,0,0
2,note_on,62,29,120
2,note_on,65,29,0
2,note_on,70,35,0
2,note_on,70,0,120
2,note_on,65,0,0
2,note_on,62,0,0
2,note_on,62,34,120
2,note_on,65,34,0
2,note_on,70,40,0
2,note_on,70,0,120
2,note_on,65,0,0
2,note_on,62,0,0
2,note_on,62,29,120
2,note_on,65,29,0
2,note_on,70,35,0
2,note_on,70,0,120
2,note_on,65,0,0
2,note_on,62,0,0
2,note_on,62,29,120
2,note_on,65,29,0
2,note_on,70,35,0
2,note_on,70,0,120
2,note_on,65,0,0
2,note_on,62,0,0
2,note_on,62,29,120
2,note_on,65,29,0
2,note_on,70,35,0
2,note_on,70,0,240
2,note_on,65,0,0
2,note_on,62,0,0
2,note_on,58,35,0
2,note_on,58,0,240
2,note_on,56,35,0
2,note_on,56,0,240
2,note_on,51,40,0
2,note_on,55,40,0
2,note_on,55,0,480
2,note_on,60,33,0
2,note_on,60,0,240
2,note_on,58,42,0
2,note_on,58,0,480
2,note_on,55,39,0
2,note_on,55,0,240
2,note_on,51,0,0
2,note_on,46,42,0
2,note_on,53,42,0
2,note_on,53,0,480
2,note_on,60,36,0
2,note_on,60,0,240
2,note_on,58,45,0
2,note_on,58,0,480
2,note_on,53,41,0
2,note_on,53,0,240
2,note_on,46,0,0
2,note_on,51,46,0
2,note_on,55,46,0
2,note_on,55,0,480
2,note_on,60,37,0
2,note_on,60,0,240
2,note_on,58,45,0
2,note_on,58,0,480
2,note_on,55,40,0
2,note_on,55,0,240
2,note_on,51,0,0
2,note_on,46,43,0
2,note_on,53,43,0
2,note_on,53,0,480
2,note_on,60,34,0
2,note_on,60,0,240
2,note_on,58,42,0
2,note_on,58,0,480
2,note_on,53,37,0
2,note_on,53,0,240
2,note_on,46,0,0
2,note_on,58,40,0
2,note_on,51,34,0
2,note_on,51,0,120
2,note_on,58,0,0
2,note_on,55,29,120
2,note_on,58,29,0
2,note_on,63,35,0
2,note_on,63,0,120
2,note_on,58,0,0
2,note_on,55,0,0
2,note_on,55,29,120
2,note_on,58,29,0
2,note_on,63,35,0
2,note_on,63,0,120
2,note_on,58,0,0
2,note_on,55,0,0
2,note_on,55,29,120
2,note_on,58,29,0
2,note_on,63,35,0
2,note_on,63,0,120
2,note_on,58,0,0
2,note_on,55,0,0
2,note_on,55,29,120
2,note_on,58,29,0
2,note_on,63,35,0
2,note_on,63,0,120
2,note_on,58,0,0
2,note_on,55,0,0
2,note_on,55,29,120
2,note_on,59,29,0
2,note_on,63,35,0
2,note_on,63,0,120
2,note_on,59,0,0
2,note_on,55,0,0
2,note_on,56,29,360
2,note_on,60,29,0
2,note_on,63,35,0
2,note_on,63,0,120
2,note_on,60,0,0
2,note_on,56,0,0
2,note_on,56,29,120
2,note_on,60,29,0
2,note_on,63,35,0
2,note_on,63,0,120
2,note_on,60,0,0
2,note_on,56,0,0
2,note_on,56,29,120
2,note_on,60,29,0
2,note_on,63,35,0
2,note_on,63,0,120
2,note_on,60,0,0
2,note_on,56,0,0
2,note_on,56,29,120
2,note_on,60,29,0
2,note_on,63,35,0
2,note_on,63,0,120
2,note_on,60,0,0
2,note_on,56,0,0
2,note_on,57,29,120
2,note_on,63,29,0
2,note_on,65,35,0
2,note_on,65,0,120
2,note_on,63,0,0
2,note_on,57,0,0
2,note_on,58,29,360
2,note_on,63,29,0
2,note_on,67,35,0
2,note_on,67,0,120
2,note_on,63,0,0
2,note_on,58,0,0
2,note_on,58,29,120
2,note_on,63,29,0
2,note_on,67,35,0
2,note_on,67,0,120
2,note_on,63,0,0
2,note_on,58,0,0
2,note_on,58,29,120
2,note_on,63,29,0
2,note_on,67,35,0
2,note_on,67,0,120
2,note_on,63,0,0
2,note_on,58,0,0
2,note_on,58,29,120
2,note_on,63,29,0
2,note_on,67,35,0
2,note_on,67,0,120
2,note_on,63,0,0
2,note_on,58,0,0
2,note_on,58,29,120
2,note_on,63,29,0
2,note_on,67,35,0
2,note_on,67,0,120
2,note_on,63,0,0
2,note_on,58,0,0
2,note_on,67,35,120
2,note_on,58,29,0
2,note_on,63,29,0
2,note_on,63,0,120
2,note_on,58,0,0
2,note_on,67,0,0
2,note_on,58,29,120
2,note_on,63,29,0
2,note_on,67,35,0
2,note_on,67,0,120
2,note_on,63,0,0
2,note_on,58,0,0
2,note_on,58,29,120
2,note_on,63,29,0
2,note_on,67,35,0
2,note_on,67,0,120
2,note_on,63,0,0
2,note_on,58,0,0
2,note_on,58,29,120
2,note_on,62,29,0
2,note_on,68,35,0
2,note_on,68,0,120
2,note_on,62,0,0
2,note_on,58,0,0
2,note_on,58,29,120
2,note_on,62,29,0
2,note_on,68,35,0
2,note_on,68,0,120
2,note_on,62,0,0
2,note_on,58,0,0
2,note_on,58,29,120
2,note_on,62,29,0
2,note_on,68,35,0
2,note_on,68,0,120
2,note_on,62,0,0
2,note_on,58,0,0
2,note_on,63,40,120
2,note_on,67,40,0
2,note_on,67,0,480
2,note_on,72,33,0
2,note_on,72,0,240
2,note_on,70,42,0
2,note_on,70,0,480
2,note_on,67,39,0
2,note_on,67,0,240
2,note_on,63,0,0
2,note_on,58,42,0
2,note_on,65,42,0
2,note_on,65,0,480
2,note_on,72,36,0
2,note_on,72,0,240
2,note_on,70,45,0
2,note_on,70,0,480
2,note_on,65,41,0
2,note_on,65,0,240
2,note_on,58,0,0
2,note_on,63,46,0
2,note_on,67,46,0
2,note_on,67,0,480
2,note_on,72,37,0
2,note_on,72,0,240
2,note_on,70,45,0
2,note_on,70,0,480
2,note_on,67,40,0
2,note_on,67,0,240
2,note_on,63,0,0
2,note_on,58,43,0
2,note_on,65,43,0
2,note_on,65,0,480
2,note_on,72,34,0
2,note_on,72,0,240
2,note_on,70,42,0
2,note_on,70,0,480
2,note_on,65,37,0
2,note_on,65,0,240
2,note_on,58,0,0
2,note_on,63,51,0
2,note_on,63,0,120
2,note_on,67,45,0
2,note_on,67,0,120
2,note_on,68,50,0
2,note_on,68,0,120
2,note_on,70,52,0
2,note_on,70,0,120
2,note_on,72,54,0
2,note_on,72,0,120
2,note_on,74,56,0
2,note_on,74,0,120
2,note_on,75,61,0
2,note_on,75,0,120
2,note_on,74,60,0
2,note_on,74,0,120
2,note_on,72,58,0
2,note_on,72,0,120
2,note_on,70,57,0
2,note_on,70,0,120
2,note_on,68,55,0
2,note_on,68,0,120
2,note_on,67,54,0
2,note_on,67,0,120
2,note_on,68,51,0
2,note_on,68,0,120
2,note_on,72,45,0
2,note_on,72,0,120
2,note_on,74,48,0
2,note_on,74,0,120
2,note_on,75,50,0
2,note_on,75,0,120
2,note_on,77,55,0
2,note_on,77,0,120
2,note_on,79,57,0
2,note_on,79,0,120
2,note_on,80,62,0
2,note_on,80,0,120
2,note_on,79,60,0
2,note_on,79,0,120
2,note_on,77,59,0
2,note_on,77,0,120
2,note_on,75,58,0
2,note_on,75,0,120
2,note_on,74,57,0
2,note_on,74,0,120
2,note_on,72,55,0
2,note_on,72,0,120
2,note_on,70,60,0
2,note_on,70,0,120
2,note_on,58,52,0
2,note_on,58,0,120
2,note_on,63,63,0
2,note_on,63,0,120
2,note_on,67,59,0
2,note_on,67,0,120
2,note_on,70,68,0
2,note_on,70,0,120
2,note_on,75,62,0
2,note_on,75,0,120
2,note_on,79,63,0
2,note_on,79,0,120
2,note_on,75,54,0
2,note_on,75,0,120
2,note_on,82,66,0
2,note_on,82,0,120
2,note_on,79,62,0
2,note_on,79,0,120
2,note_on,75,70,0
2,note_on,75,0,120
2,note_on,70,64,0
2,note_on,70,0,120
2,note_on,70,60,0
2,note_on,77,67,0
2,note_on,77,0,80
2,note_on,79,59,0
2,note_on,79,0,80
2,note_on,77,67,0
2,note_on,77,0,80
2,note_on,70,0,0
2,note_on,79,61,0
2,note_on,79,0,80
2,note_on,77,66,0
2,note_on,77,0,80
2,note_on,79,59,0
2,note_on,79,0,80
2,note_on,77,66,0
2,note_on,77,0,80
2,note_on,79,59,0
2,note_on,79,0,80
2,note_on,77,62,0
2,note_on,77,0,80
2,note_on,79,56,0
2,note_on,79,0,80
2,note_on,77,63,0
2,note_on,77,0,80
2,note_on,79,55,0
2,note_on,79,0,80
2,note_on,77,63,0
2,note_on,77,0,80
2,note_on,79,55,0
2,note_on,79,0,80
2,note_on,77,63,0
2,note_on,77,0,80
2,note_on,79,55,0
2,note_on,79,0,80
2,note_on,77,63,0
2,note_on,77,0,80
2,note_on,79,59,0
2,note_on,79,0,80
2,note_on,70,62,0
2,note_on,70,0,120
2,note_on,76,55,0
2,note_on,76,0,120
2,note_on,77,58,0
2,note_on,77,0,120
2,note_on,79,60,0
2,note_on,79,0,120
2,note_on,77,58,0
2,note_on,77,0,120
2,note_on,76,58,0
2,note_on,76,0,120
2,note_on,68,61,0
2,note_on,68,0,120
2,note_on,77,56,0
2,note_on,77,0,120
2,note_on,79,59,0
2,note_on,79,0,120
2,note_on,80,61,0
2,note_on,80,0,120
2,note_on,79,57,0
2,note_on,79,0,120
2,note_on,77,57,0
2,note_on,77,0,120
2,note_on,56,62,6
2,note_on,62,55,114
2,note_on,56,0,6
2,note_on,62,0,114
2,note_on,63,58,0
2,note_on,65,60,115
2,note_on,63,0,5
2,note_on,65,0,115
2,note_on,63,59,5
2,note_on,63,0,120
2,note_on,62,59,0
2,note_on,62,0,120
2,note_on,55,62,0
2,note_on,55,0,120
2,note_on,63,57,0
2,note_on,63,0,120
2,note_on,65,61,0
2,note_on,65,0,120
2,note_on,67,64,0
2,note_on,67,0,120
2,note_on,65,59,0
2,note_on,65,0,120
2,note_on,63,60,0
2,note_on,63,0,120
2,note_on,46,65,6
2,note_on,52,58,114
2,note_on,46,0,6
2,note_on,52,0,114
2,note_on,53,62,0
2,note_on,55,64,115
2,note_on,53,0,5
2,note_on,55,0,115
2,note_on,53,62,5
2,note_on,53,0,120
2,note_on,52,63,0
2,note_on,52,0,120
2,note_on,44,67,0
2,note_on,44,0,120
2,note_on,53,61,0
2,note_on,53,0,120
2,note_on,55,65,0
2,note_on,55,0,120
2,note_on,56,67,0
2,note_on,56,0,120
2,note_on,55,63,0
2,note_on,55,0,120
2,note_on,53,63,0
2,note_on,53,0,120
2,note_on,32,70,6
2,note_on,38,62,114
2,note_on,32,0,6
2,note_on,38,0,114
2,note_on,39,66,0
2,note_on,41,68,115
2,note_on,39,0,5
2,note_on,41,0,115
2,note_on,39,66,5
2,note_on,39,0,120
2,note_on,38,67,0
2,note_on,38,0,120
2,note_on,31,70,0
2,note_on,31,0,120
2,note_on,39,65,0
2,note_on,39,0,120
2,note_on,41,69,0
2,note_on,41,0,120
2,note_on,43,71,0
2,note_on,43,0,120
2,note_on,41,67,0
2,note_on,41,0,120
2,note_on,39,67,0
2,note_on,39,0,120
2,note_on,31,70,0
2,note_on,31,0,120
2,note_on,34,62,0
2,note_on,34,0,120
2,note_on,39,66,0
2,note_on,39,0,120
2,note_on,43,68,0
2,note_on,43,0,120
2,note_on,39,66,0
2,note_on,39,0,120
2,note_on,34,63,0
2,note_on,34,0,120
2,note_on,36,70,0
2,note_on,36,0,120
2,note_on,39,65,0
2,note_on,39,0,120
2,note_on,43,69,0
2,note_on,43,0,120
2,note_on,48,71,0
2,note_on,48,0,120
2,note_on,43,67,0
2,note_on,43,0,120
2,note_on,39,64,0
2,note_on,39,0,120
2,note_on,32,70,0
2,note_on,32,0,120
2,note_on,36,62,0
2,note_on,36,0,120
2,note_on,41,66,0
2,note_on,41,0,120
2,note_on,44,68,0
2,note_on,44,0,120
2,note_on,41,66,0
2,note_on,41,0,120
2,note_on,36,63,0
2,note_on,36,0,120
2,note_on,34,70,0
2,note_on,34,0,120
2,note_on,41,65,0
2,note_on,41,0,120
2,note_on,44,69,0
2,note_on,44,0,120
2,note_on,46,71,0
2,note_on,46,0,120
2,note_on,44,67,0
2,note_on,44,0,120
2,note_on,41,64,0
2,note_on,41,0,120
2,note_on,43,70,0
2,note_on,43,0,120
2,note_on,46,62,0
2,note_on,46,0,120
2,note_on,51,66,0
2,note_on,51,0,120
2,note_on,55,68,0
2,note_on,55,0,120
2,note_on,51,66,0
2,note_on,51,0,120
2,note_on,46,63,0
2,note_on,46,0,120
2,note_on,48,70,0
2,note_on,48,0,120
2,note_on,51,65,0
2,note_on,51,0,120
2,note_on,55,69,0
2,note_on,55,0,120
2,note_on,60,71,0
2,note_on,60,0,120
2,note_on,55,67,0
2,note_on,55,0,120
2,note_on,51,64,0
2,note_on,51,0,120
2,note_on,44,70,0
2,note_on,44,0,120
2,note_on,48,62,0
2,note_on,48,0,120
2,note_on,53,66,0
2,note_on,53,0,120
2,note_on,56,68,0
2,note_on,56,0,120
2,note_on,53,66,0
2,note_on,53,0,120
2,note_on,48,63,0
2,note_on,48,0,120
2,note_on,34,70,0
2,note_on,34,0,120
2,note_on,41,65,0
2,note_on,41,0,120
2,note_on,44,69,0
2,note_on,44,0,120
2,note_on,46,71,0
2,note_on,46,0,120
2,note_on,44,67,0
2,note_on,44,0,120
2,note_on,41,64,0
2,note_on,41,0,120
2,note_on,31,70,0
2,note_on,31,0,120
2,note_on,34,62,0
2,note_on,34,0,120
2,note_on,39,66,0
2,note_on,39,0,120
2,note_on,43,68,0
2,note_on,43,0,120
2,note_on,39,67,0
2,note_on,39,0,120
2,note_on,34,64,0
2,note_on,34,0,120
2,note_on,36,72,0
2,note_on,36,0,120
2,note_on,39,67,0
2,note_on,39,0,120
2,note_on,43,72,0
2,note_on,43,0,120
2,note_on,48,74,0
2,note_on,48,0,120
2,note_on,43,71,0
2,note_on,43,0,120
2,note_on,39,67,0
2,note_on,39,0,120
2,note_on,32,74,0
2,note_on,32,0,120
2,note_on,36,66,0
2,note_on,36,0,120
2,note_on,41,71,0
2,note_on,41,0,120
2,note_on,44,74,0
2,note_on,44,0,120
2,note_on,41,72,0
2,note_on,41,0,120
2,note_on,36,67,0
2,note_on,36,0,120
2,note_on,34,77,0
2,note_on,34,0,120
2,note_on,41,72,0
2,note_on,41,0,120
2,note_on,44,77,0
2,note_on,44,0,120
2,note_on,46,80,0
2,note_on,46,0,120
2,note_on,34,75,0
2,note_on,34,0,120
2,note_on,46,72,0
2,note_on,46,0,120
2,note_on,39,75,0
2,note_on,39,0,120
2,note_on,51,75,120
2,note_on,51,0,120
2,note_on,55,77,120
2,note_on,51,64,0
2,note_on,51,0,120
2,note_on,55,0,0
2,note_on,51,70,120
2,note_on,55,70,0
2,note_on,58,83,0
2,note_on,58,0,480
2,note_on,55,0,0
2,note_on,51,0,0
2,note_on,46,60,0
2,note_on,53,60,0
2,note_on,58,71,0
2,note_on,58,0,120
2,note_on,53,0,0
2,note_on,46,0,0
2,note_on,51,67,120
2,note_on,55,67,0
2,note_on,58,79,0
2,note_on,58,0,120
2,note_on,55,0,0
2,note_on,51,0,0
2,note_on,51,63,120
2,note_on,55,63,0
2,note_on,58,75,0
2,note_on,58,0,120
2,note_on,55,0,0
2,note_on,51,0,0
2,note_on,51,62,120
2,note_on,55,62,0
2,note_on,58,74,0
2,note_on,58,0,120
2,note_on,55,0,0
2,note_on,51,0,0
2,note_on,51,69,120
2,note_on,55,69,0
2,note_on,58,82,0
2,note_on,58,0,480
2,note_on,55,0,0
2,note_on,51,0,0
2,note_on,46,63,0
2,note_on,53,63,0
2,note_on,58,75,0
2,note_on,58,0,120
2,note_on,53,0,0
2,note_on,46,0,0
2,note_on,51,64,120
2,note_on,55,64,0
2,note_on,58,76,0
2,note_on,58,0,120
2,note_on,55,0,0
2,note_on,51,0,0
2,note_on,51,63,120
2,note_on,55,63,0
2,note_on,58,75,0
2,note_on,58,0,120
2,note_on,55,0,0
2,note_on,51,0,0
2,note_on,51,61,120
2,note_on,55,61,0
2,note_on,58,73,0
2,note_on,58,0,120
2,note_on,55,0,0
2,note_on,51,0,0
2,note_on,51,70,120
2,note_on,55,70,0
2,note_on,58,83,0
2,note_on,58,0,480
2,note_on,55,0,0
2,note_on,51,0,0
2,note_on,46,63,0
2,note_on,53,63,0
2,note_on,58,75,0
2,note_on,58,0,120
2,note_on,53,0,0
2,note_on,46,0,0
2,note_on,51,69,120
2,note_on,55,69,0
2,note_on,58,82,0
2,note_on,58,0,480
2,note_on,55,0,0
2,note_on,51,0,0
2,note_on,39,69,240
2,note_on,51,82,0
2,note_on,51,0,480
2,note_on,39,0,0
2,note_on,39,69,240
2,note_on,51,82,0
2,note_on,51,0,480
2,note_on,39,0,0
2,note_on,51,34,960
2,note_on,55,34,0
2,note_on,58,40,0
2,note_on,58,0,480
2,note_on,55,0,0
2,note_on,51,0,0
2,note_on,53,28,240
2,note_on,56,28,0
2,note_on,46,28,0
2,note_on,58,34,0
2,note_on,58,0,480
2,note_on,53,0,0
2,note_on,56,0,0
2,note_on,46,0,0
2,note_on,51,34,240
2,note_on,58,40,0
2,note_on,55,34,0
2,note_on,55,0,480
2,note_on,58,0,0
2,note_on,51,0,0
2,note_on,48,28,240
2,note_on,55,28,0
2,note_on,60,34,0
2,note_on,60,0,240
2,note_on,55,0,0
2,note_on,48,0,0
2,note_on,52,28,240
2,note_on,55,28,0
2,note_on,58,28,0
2,note_on,60,34,0
2,note_on,60,0,180
2,note_on,52,0,0
2,note_on,55,0,0
2,note_on,58,0,0
2,note_on,56,34,60
2,note_on,53,34,0
2,note_on,60,40,0
2,note_on,60,0,480
2,note_on,53,0,0
2,note_on,56,0,0
2,note_on,62,34,240
2,note_on,50,28,0
2,note_on,57,28,0
2,note_on,57,0,240
2,note_on,50,0,0
2,note_on,62,0,0
2,note_on,54,28,240
2,note_on,57,28,0
2,note_on,62,34,0
2,note_on,62,0,180
2,note_on,57,0,0
2,note_on,54,0,0
2,note_on,55,34,60
2,note_on,58,34,0
2,note_on,62,40,0
2,note_on,62,0,480
2,note_on,58,0,0
2,note_on,55,0,0
2,note_on,53,34,240
2,note_on,56,34,0
2,note_on,58,34,0
2,note_on,62,40,0
2,note_on,62,0,480
2,note_on,53,0,0
2,note_on,56,0,0
2,note_on,58,0,0
2,note_on,58,33,240
2,note_on,55,33,0
2,note_on,63,39,0
2,note_on,51,33,0
2,note_on,51,0,480
2,note_on,58,0,0
2,note_on,55,0,0
2,note_on,63,0,0
2,note_on,63,42,960
2,note_on,63,0,240
2,note_on,58,36,0
2,note_on,58,0,240
2,note_on,55,37,0
2,note_on,55,0,180
2,note_on,55,39,60
2,note_on,55,0,240
2,note_on,58,36,0
2,note_on,58,0,240
2,note_on,63,36,0
2,note_on,63,0,180
2,note_on,39,38,60
2,note_on,43,46,0
2,note_on,43,0,240
2,note_on,39,0,0
2,note_on,46,39,0
2,note_on,43,33,0
2,note_on,43,0,240
2,note_on,46,0,0
2,note_on,46,33,0
2,note_on,51,40,0
2,note_on,51,0,240
2,note_on,46,0,0
2,note_on,46,43,0
2,note_on,43,36,0
2,note_on,43,0,240
2,note_on,46,0,0
2,note_on,46,32,0
2,note_on,51,39,0
2,note_on,51,0,240
2,note_on,46,0,0
2,note_on,51,33,0
2,note_on,55,40,0
2,note_on,55,0,180
2,note_on,51,0,0
2,note_on,46,42,60
2,note_on,51,50,0
2,note_on,51,0,240
2,note_on,46,0,0
2,note_on,55,43,0
2,note_on,51,36,0
2,note_on,51,0,240
2,note_on,55,0,0
2,note_on,55,36,0
2,note_on,58,44,0
2,note_on,58,0,240
2,note_on,55,0,0
2,note_on,46,31,240
2,note_on,53,38,0
2,note_on,53,0,240
2,note_on,46,0,0
2,note_on,46,29,0
2,note_on,58,36,0
2,note_on,58,0,180
2,note_on,46,0,0
2,note_on,51,30,60
2,note_on,55,30,0
2,note_on,58,36,0
2,note_on,58,0,480
2,note_on,55,0,0
2,note_on,51,0,0
2,note_on,51,40,960
2,note_on,63,45,0
2,note_on,63,0,120
2,note_on,62,39,0
2,note_on,62,0,120
2,note_on,63,39,0
2,note_on,63,0,120
2,note_on,58,35,0
2,note_on,58,0,120
2,note_on,55,45,0
2,note_on,55,0,120
2,note_on,56,39,60
2,note_on,56,0,60
2,note_on,51,0,0
2,note_on,55,45,0
2,note_on,55,0,120
2,note_on,54,36,0
2,note_on,54,0,120
2,note_on,55,40,0
2,note_on,55,0,120
2,note_on,58,36,0
2,note_on,58,0,120
2,note_on,63,47,0
2,note_on,63,0,120
2,note_on,39,45,120
2,note_on,39,0,120
2,note_on,38,36,0
2,note_on,38,0,120
2,note_on,39,41,0
2,note_on,39,0,120
2,note_on,43,37,0
2,note_on,43,0,120
2,note_on,46,47,0
2,note_on,46,0,240
2,note_on,43,48,0
2,note_on,43,0,120
2,note_on,41,38,0
2,note_on,41,0,120
2,note_on,43,45,0
2,note_on,43,0,120
2,note_on,46,39,0
2,note_on,46,0,120
2,note_on,51,50,0
2,note_on,51,0,240
2,note_on,46,51,0
2,note_on,46,0,120
2,note_on,45,40,0
2,note_on,45,0,120
2,note_on,46,45,0
2,note_on,46,0,120
2,note_on,51,38,0
2,note_on,51,0,120
2,note_on,55,47,0
2,note_on,55,0,240
2,note_on,46,31,240
2,note_on,53,38,0
2,note_on,53,0,240
2,note_on,46,0,0
2,note_on,46,29,0
2,note_on,58,36,0
2,note_on,58,0,180
2,note_on,46,0,0
2,note_on,39,38,60
2,note_on,43,46,0
2,note_on,43,0,240
2,note_on,39,0,0
2,note_on,46,39,0
2,note_on,43,33,0
2,note_on,43,0,240
2,note_on,46,0,0
2,note_on,46,33,0
2,note_on,51,40,0
2,note_on,51,0,240
2,note_on,46,0,0
2,note_on,46,43,0
2,note_on,43,36,0
2,note_on,43,0,240
2,note_on,46,0,0
2,note_on,46,32,0
2,note_on,51,39,0
2,note_on,51,0,240
2,note_on,46,0,0
2,note_on,51,33,0
2,note_on,55,40,0
2,note_on,55,0,230
2,note_on,51,0,0
2,note_on,46,42,10
2,note_on,51,50,0
2,note_on,51,0,240
2,note_on,46,0,0
2,note_on,55,43,0
2,note_on,51,36,0
2,note_on,51,0,240
2,note_on,55,0,0
2,note_on,46,36,0
2,note_on,51,36,0
2,note_on,58,44,0
2,note_on,58,0,238
2,note_on,51,0,0
2,note_on,46,0,0
2,note_on,46,42,2
2,note_on,53,42,0
2,note_on,58,50,0
2,note_on,58,0,238
2,note_on,53,0,0
2,note_on,46,0,0
2,note_on,53,31,2
2,note_on,46,31,0
2,note_on,58,38,0
2,note_on,58,0,238
2,note_on,46,0,0
2,note_on,53,0,0
2,note_on,56,36,2
2,note_on,46,29,0
2,note_on,58,36,0
2,note_on,58,0,240
2,note_on,46,0,0
2,note_on,56,0,0
2,note_on,70,80,0
2,note_on,70,0,120
2,note_on,67,67,120
2,note_on,67,0,120
2,note_on,63,67,120
2,note_on,63,0,120
2,note_on,67,80,120
2,note_on,67,0,120
2,note_on,63,70,120
2,note_on,63,0,120
2,note_on,58,70,120
2,note_on,58,0,120
2,note_on,63,80,120
2,note_on,63,0,120
2,note_on,58,71,120
2,note_on,58,0,120
2,note_on,55,71,120
2,note_on,55,0,120
2,note_on,58,80,120
2,note_on,58,0,120
2,note_on,56,69,120
2,note_on,56,0,120
2,note_on,46,55,120
2,note_on,53,69,0
2,note_on,53,0,120
2,note_on,46,0,0
2,note_on,39,65,120
2,note_on,51,82,0
2,note_on,51,0,120
2,note_on,39,0,0
2,note_on,51,51,120
2,note_on,55,51,0
2,note_on,58,51,0
2,note_on,63,64,0
2,note_on,63,0,120
2,note_on,51,0,0
2,note_on,55,0,0
2,note_on,58,0,0
2,note_on,51,51,120
2,note_on,55,51,0
2,note_on,58,51,0
2,note_on,63,64,0
2,note_on,63,0,120
2,note_on,51,0,0
2,note_on,55,0,0
2,note_on,58,0,0
2,note_on,51,51,120
2,note_on,55,51,0
2,note_on,58,51,0
2,note_on,63,64,0
2,note_on,63,0,120
2,note_on,51,0,0
2,note_on,55,0,0
2,note_on,58,0,0
2,note_on,51,51,120
2,note_on,55,51,0
2,note_on,58,51,0
2,note_on,63,64,0
2,note_on,63,0,120
2,note_on,51,0,0
2,note_on,55,0,0
2,note_on,58,0,0
2,note_on,51,51,120
2,note_on,55,51,0
2,note_on,58,51,0
2,note_on,63,64,0
2,note_on,63,0,120
2,note_on,51,0,0
2,note_on,55,0,0
2,note_on,58,0,0
2,note_on,51,59,120
2,note_on,55,59,0
2,note_on,58,59,0
2,note_on,63,74,0
2,note_on,63,0,120
2,note_on,51,0,0
2,note_on,55,0,0
2,note_on,58,0,0
2,note_on,51,48,120
2,note_on,55,48,0
2,note_on,58,48,0
2,note_on,63,61,0
2,note_on,63,0,120
2,note_on,51,0,0
2,note_on,55,0,0
2,note_on,58,0,0
2,note_on,51,49,120
2,note_on,55,49,0
2,note_on,58,49,0
2,note_on,63,62,0
2,note_on,63,0,120
2,note_on,51,0,0
2,note_on,55,0,0
2,note_on,58,0,0
2,note_on,51,50,120
2,note_on,55,50,0
2,note_on,58,50,0
2,note_on,63,63,0
2,note_on,63,0,120
2,note_on,51,0,0
2,note_on,55,0,0
2,note_on,58,0,0
2,note_on,51,51,120
2,note_on,55,51,0
2,note_on,58,51,0
2,note_on,63,64,0
2,note_on,63,0,120
2,note_on,51,0,0
2,note_on,55,0,0
2,note_on,58,0,0
2,note_on,51,51,120
2,note_on,55,51,0
2,note_on,58,51,0
2,note_on,63,64,0
2,note_on,63,0,120
2,note_on,51,0,0
2,note_on,55,0,0
2,note_on,58,0,0
2,note_on,51,59,120
2,note_on,55,59,0
2,note_on,58,59,0
2,note_on,63,74,0
2,note_on,63,0,480
2,note_on,51,0,0
2,note_on,55,0,0
2,note_on,58,0,0
2,note_on,46,57,240
2,note_on,58,68,0
2,note_on,58,0,480
2,note_on,46,0,0
2,note_on,39,61,240
2,note_on,51,74,0
2,note_on,51,0,480
2,note_on,39,0,0
