Track,Message Type,Note,Velocity,Time
1,note_on,66,46,0
1,note_on,70,46,0
1,note_on,73,55,0
1,note_on,73,0,480
1,note_on,70,0,0
1,note_on,66,0,0
1,note_on,61,35,0
1,note_on,61,0,480
1,note_on,66,46,0
1,note_on,70,46,0
1,note_on,73,55,0
1,note_on,73,0,480
1,note_on,70,0,0
1,note_on,66,0,0
1,note_on,61,35,0
1,note_on,66,44,480
1,note_on,70,44,0
1,note_on,73,52,0
1,note_on,73,0,480
1,note_on,70,0,0
1,note_on,72,47,0
1,note_on,75,56,0
1,note_on,75,0,300
1,note_on,61,0,0
1,note_on,66,0,0
1,note_on,72,0,0
1,note_on,65,39,90
1,note_on,68,41,30
1,note_on,73,46,30
1,note_on,77,52,30
1,note_on,77,0,780
1,note_on,65,0,0
1,note_on,68,0,0
1,note_on,73,0,0
1,note_on,58,35,120
1,note_on,61,40,30
1,note_on,63,46,30
1,note_on,70,46,0
1,note_on,70,0,480
1,note_on,58,0,0
1,note_on,61,0,0
1,note_on,63,0,0
1,note_on,69,49,0
1,note_on,69,0,480
1,note_on,68,51,0
1,note_on,75,62,480
1,note_on,75,0,480
1,note_on,73,61,0
1,note_on,73,0,480
1,note_on,68,0,0
1,note_on,72,59,0
1,note_on,68,52,0
1,note_on,72,0,360
1,note_on,73,58,0
1,note_on,73,0,60
1,note_on,72,53,0
1,note_on,72,0,60
1,note_on,68,0,0
1,note_on,66,49,0
1,note_on,70,55,0
1,note_on,70,0,480
1,note_on,66,0,0
1,note_on,62,49,0
1,note_on,68,55,0
1,note_on,68,0,480
1,note_on,62,0,0
1,note_on,63,52,0
1,note_on,66,59,0
1,note_on,66,0,480
1,note_on,63,0,0
1,note_on,60,49,0
1,note_on,70,56,0
1,note_on,70,0,480
1,note_on,60,0,0
1,note_on,61,49,0
1,note_on,68,56,0
1,note_on,68,0,360
1,note_on,66,47,0
1,note_on,66,0,60
1,note_on,68,42,0
1,note_on,68,0,60
1,note_on,66,55,0
1,note_on,66,0,240
1,note_on,65,47,0
1,note_on,65,0,240
1,note_on,61,0,0
1,note_on,58,49,0
1,note_on,61,47,0
1,note_on,63,52,0
1,note_on,58,0,480
1,note_on,57,39,0
1,note_on,57,0,480
1,note_on,63,0,0
1,note_on,61,0,0
1,note_on,60,42,0
1,note_on,68,48,0
1,note_on,68,0,960
1,note_on,60,0,0
1,note_on,61,49,0
1,note_on,68,56,0
1,note_on,68,0,480
1,note_on,61,0,0
1,note_on,77,59,0
1,note_on,65,53,0
1,note_on,65,0,480
1,note_on,77,0,0
1,note_on,61,55,0
1,note_on,75,61,0
1,note_on,75,0,360
1,note_on,73,57,0
1,note_on,73,0,60
1,note_on,75,52,0
1,note_on,75,0,60
1,note_on,73,64,0
1,note_on,73,0,240
1,note_on,72,57,0
1,note_on,72,0,240
1,note_on,61,0,0
1,note_on,65,57,0
1,note_on,70,63,0
1,note_on,70,0,480
1,note_on,65,56,0
1,note_on,65,0,480
1,note_on,65,0,0
1,note_on,58,52,0
1,note_on,66,59,0
1,note_on,66,0,480
1,note_on,65,56,0
1,note_on,65,0,480
1,note_on,58,0,0
1,note_on,63,59,0
1,note_on,58,52,0
1,note_on,63,0,240
1,note_on,65,56,0
1,note_on,65,0,240
1,note_on,66,59,0
1,note_on,66,0,480
1,note_on,63,55,0
1,note_on,65,55,0
1,note_on,58,0,480
1,note_on,57,39,0
1,note_on,57,0,480
1,note_on,65,0,0
1,note_on,63,0,0
1,note_on,62,52,0
1,note_on,65,52,0
1,note_on,59,36,480
1,note_on,59,0,480
1,note_on,58,33,0
1,note_on,58,0,960
1,note_on,65,0,0
1,note_on,62,0,0
1,note_on,71,62,0
1,note_on,65,50,0
1,note_on,68,50,0
1,note_on,71,0,360
1,note_on,70,57,0
1,note_on,70,0,60
1,note_on,71,52,0
1,note_on,71,0,60
1,note_on,70,62,0
1,note_on,70,0,240
1,note_on,69,56,0
1,note_on,69,0,240
1,note_on,68,0,0
1,note_on,65,0,0
1,note_on,66,50,0
1,note_on,70,62,0
1,note_on,70,0,240
1,note_on,75,58,0
1,note_on,75,0,240
1,note_on,73,63,0
1,note_on,73,0,240
1,note_on,72,60,0
1,note_on,72,0,240
1,note_on,66,0,0
1,note_on,63,52,0
1,note_on,66,52,0
1,note_on,70,64,0
1,note_on,70,0,480
1,note_on,69,59,0
1,note_on,69,0,480
1,note_on,66,0,0
1,note_on,63,0,0
1,note_on,65,52,0
1,note_on,68,64,0
1,note_on,68,0,480
1,note_on,73,66,0
1,note_on,73,0,480
1,note_on,65,0,0
1,note_on,65,52,0
1,note_on,68,52,0
1,note_on,71,64,0
1,note_on,71,0,360
1,note_on,70,56,0
1,note_on,70,0,60
1,note_on,71,57,0
1,note_on,71,0,60
1,note_on,70,59,0
1,note_on,70,0,240
1,note_on,69,57,0
1,note_on,69,0,240
1,note_on,68,0,0
1,note_on,65,0,0
1,note_on,66,50,0
1,note_on,70,62,0
1,note_on,70,0,100
1,note_on,75,63,60
1,note_on,75,0,100
1,note_on,74,58,60
1,note_on,74,0,100
1,note_on,73,63,60
1,note_on,73,0,100
1,note_on,72,61,60
1,note_on,72,0,100
1,note_on,71,58,60
1,note_on,71,0,100
1,note_on,66,0,60
1,note_on,63,47,0
1,note_on,66,47,0
1,note_on,70,64,0
1,note_on,70,0,480
1,note_on,69,61,0
1,note_on,69,0,480
1,note_on,66,0,0
1,note_on,63,0,0
1,note_on,65,52,0
1,note_on,68,64,0
1,note_on,68,0,480
1,note_on,77,67,0
1,note_on,77,0,480
1,note_on,65,0,0
1,note_on,75,71,0
1,note_on,66,63,0
1,note_on,75,0,360
1,note_on,73,67,0
1,note_on,73,0,60
1,note_on,75,61,0
1,note_on,75,0,60
1,note_on,73,71,0
1,note_on,73,0,240
1,note_on,72,64,0
1,note_on,72,0,240
1,note_on,66,0,0
1,note_on,65,62,0
1,note_on,70,70,0
1,note_on,70,0,480
1,note_on,65,0,0
1,note_on,65,64,0
1,note_on,65,0,480
1,note_on,65,59,0
1,note_on,69,67,0
1,note_on,61,57,480
1,note_on,58,51,420
1,note_on,61,56,30
1,note_on,61,0,30
1,note_on,65,0,0
1,note_on,69,0,0
1,note_on,63,60,0
1,note_on,70,60,0
1,note_on,63,0,480
1,note_on,61,0,0
1,note_on,58,0,0
1,note_on,70,0,240
1,note_on,62,61,0
1,note_on,63,62,120
1,note_on,63,0,60
1,note_on,62,0,0
1,note_on,65,59,0
1,note_on,65,0,60
1,note_on,63,66,0
1,note_on,63,0,240
1,note_on,62,63,0
1,note_on,62,0,240
1,note_on,63,67,0
1,note_on,63,0,720
1,note_on,62,57,0
1,note_on,62,0,240
1,note_on,63,61,0
1,note_on,63,0,240
1,note_on,65,56,0
1,note_on,65,0,240
1,note_on,61,56,0
1,note_on,66,62,0
1,note_on,66,0,480
1,note_on,61,0,0
1,note_on,65,58,0
1,note_on,60,51,0
1,note_on,60,0,480
1,note_on,65,0,0
1,note_on,56,47,0
1,note_on,61,52,0
1,note_on,61,0,960
1,note_on,56,0,0
1,note_on,58,47,0
1,note_on,63,51,0
1,note_on,66,51,0
1,note_on,58,0,240
1,note_on,57,41,0
1,note_on,57,0,240
1,note_on,58,46,0
1,note_on,58,0,240
1,note_on,57,39,0
1,note_on,57,0,240
1,note_on,66,0,0
1,note_on,63,0,0
1,note_on,56,45,0
1,note_on,61,49,0
1,note_on,65,49,0
1,note_on,56,0,240
1,note_on,55,39,0
1,note_on,55,0,240
1,note_on,56,42,0
1,note_on,56,0,480
1,note_on,65,0,0
1,note_on,61,0,0
1,note_on,58,47,0
1,note_on,63,51,0
1,note_on,66,51,0
1,note_on,58,0,240
1,note_on,57,41,0
1,note_on,57,0,240
1,note_on,58,46,0
1,note_on,58,0,240
1,note_on,57,39,0
1,note_on,57,0,240
1,note_on,66,0,0
1,note_on,63,0,0
1,note_on,56,45,0
1,note_on,61,49,0
1,note_on,65,49,0
1,note_on,56,0,240
1,note_on,55,39,0
1,note_on,55,0,240
1,note_on,56,42,0
1,note_on,56,0,480
1,note_on,65,0,0
1,note_on,61,0,0
1,note_on,58,49,0
1,note_on,63,49,0
1,note_on,55,45,0
1,note_on,55,0,240
1,note_on,54,39,11
1,note_on,55,42,229
1,note_on,54,0,11
1,note_on,58,0,469
1,note_on,63,0,0
1,note_on,55,0,0
1,note_on,54,45,0
1,note_on,58,49,0
1,note_on,63,49,0
1,note_on,54,0,240
1,note_on,53,39,0
1,note_on,53,0,240
1,note_on,54,42,0
1,note_on,54,0,480
1,note_on,63,0,0
1,note_on,58,0,0
1,note_on,54,42,0
1,note_on,58,48,0
1,note_on,65,48,0
1,note_on,65,0,480
1,note_on,60,42,0
1,note_on,60,0,480
1,note_on,58,0,0
1,note_on,54,0,0
1,note_on,53,34,0
1,note_on,56,34,0
1,note_on,61,38,0
1,note_on,61,0,960
1,note_on,56,0,0
1,note_on,53,0,0
1,note_on,66,46,0
1,note_on,70,46,0
1,note_on,73,55,0
1,note_on,73,0,480
1,note_on,70,0,0
1,note_on,66,0,0
1,note_on,61,35,0
1,note_on,61,0,480
1,note_on,66,46,0
1,note_on,70,46,0
1,note_on,73,55,0
1,note_on,73,0,480
1,note_on,70,0,0
1,note_on,66,0,0
1,note_on,61,35,0
1,note_on,73,52,480
1,note_on,66,44,0
1,note_on,70,44,0
1,note_on,70,0,480
1,note_on,73,0,0
1,note_on,72,47,0
1,note_on,75,56,0
1,note_on,75,0,300
1,note_on,61,0,0
1,note_on,66,0,0
1,note_on,72,0,0
1,note_on,65,39,90
1,note_on,68,41,30
1,note_on,73,46,30
1,note_on,77,52,30
1,note_on,77,0,960
1,note_on,65,0,0
1,note_on,68,0,0
1,note_on,73,0,0
1,note_on,68,36,1440
1,note_on,68,0,240
1,note_on,73,36,240
1,note_on,73,0,240
1,note_on,80,37,240
1,note_on,80,0,1920
2,note_on,63,45,0
2,note_on,58,37,0
2,note_on,54,37,0
2,note_on,54,0,480
2,note_on,58,0,0
2,note_on,63,0,0
2,note_on,49,27,0
2,note_on,49,0,480
2,note_on,54,37,0
2,note_on,58,37,0
2,note_on,63,44,0
2,note_on,63,0,480
2,note_on,58,0,0
2,note_on,54,0,0
2,note_on,49,26,0
2,note_on,58,45,480
2,note_on,58,0,480
2,note_on,57,48,0
2,note_on,57,0,300
2,note_on,49,0,0
2,note_on,49,34,0
2,note_on,56,36,30
2,note_on,61,38,21
2,note_on,37,38,589
2,note_on,37,0,35
2,note_on,49,0,0
2,note_on,56,0,0
2,note_on,61,0,0
2,note_on,42,26,0
2,note_on,49,29,30
2,note_on,51,33,14
2,note_on,54,35,30
2,note_on,54,0,570
2,note_on,42,0,0
2,note_on,49,0,0
2,note_on,51,0,0
2,note_on,61,39,0
2,note_on,61,0,20
2,note_on,60,37,0
2,note_on,54,41,340
2,note_on,54,0,220
2,note_on,60,0,0
2,note_on,61,49,0
2,note_on,53,44,0
2,note_on,61,0,448
2,note_on,61,41,0
2,note_on,53,0,480
2,note_on,54,45,0
2,note_on,54,0,424
2,note_on,61,0,0
2,note_on,53,36,0
2,note_on,58,40,0
2,note_on,58,0,60
2,note_on,53,0,0
2,note_on,51,42,0
2,note_on,58,48,0
2,note_on,58,0,353
2,note_on,54,41,0
2,note_on,54,0,71
2,note_on,51,0,0
2,note_on,53,40,0
2,note_on,56,46,0
2,note_on,53,0,353
2,note_on,49,36,0
2,note_on,49,0,99
2,note_on,56,0,0
2,note_on,42,45,0
2,note_on,42,0,240
2,note_on,44,35,0
2,note_on,56,39,0
2,note_on,56,0,280
2,note_on,54,33,0
2,note_on,54,0,340
2,note_on,44,0,0
2,note_on,49,36,0
2,note_on,53,45,0
2,note_on,53,0,353
2,note_on,56,41,0
2,note_on,56,0,71
2,note_on,57,46,0
2,note_on,49,0,353
2,note_on,49,31,0
2,note_on,57,0,99
2,note_on,58,41,0
2,note_on,49,0,293
2,note_on,49,37,0
2,note_on,49,0,240
2,note_on,58,0,0
2,note_on,51,40,0
2,note_on,51,0,133
2,note_on,49,31,0
2,note_on,53,36,0
2,note_on,53,0,133
2,note_on,49,0,0
2,note_on,54,46,0
2,note_on,48,40,0
2,note_on,54,0,141
2,note_on,53,37,0
2,note_on,53,0,240
2,note_on,51,42,0
2,note_on,51,0,85
2,note_on,48,0,0
2,note_on,53,46,0
2,note_on,53,0,381
2,note_on,41,39,0
2,note_on,41,0,71
2,note_on,34,39,0
2,note_on,34,0,366
2,note_on,46,27,0
2,note_on,46,0,183
2,note_on,62,46,0
2,note_on,49,38,457
2,note_on,62,0,480
2,note_on,63,46,0
2,note_on,49,0,377
2,note_on,49,38,0
2,note_on,63,0,80
2,note_on,60,46,0
2,note_on,49,0,320
2,note_on,49,34,0
2,note_on,60,0,100
2,note_on,61,46,0
2,note_on,49,0,360
2,note_on,49,37,0
2,note_on,61,0,340
2,note_on,62,46,0
2,note_on,49,0,480
2,note_on,49,37,0
2,note_on,62,0,94
2,note_on,63,46,0
2,note_on,49,0,437
2,note_on,49,39,0
2,note_on,49,0,43
2,note_on,63,0,0
2,note_on,49,40,0
2,note_on,60,40,0
2,note_on,49,0,320
2,note_on,49,37,0
2,note_on,60,0,180
2,note_on,61,39,0
2,note_on,61,0,440
2,note_on,56,42,0
2,note_on,56,0,140
2,note_on,57,49,0
2,note_on,49,0,462
2,note_on,49,40,0
2,note_on,57,0,85
2,note_on,58,46,0
2,note_on,49,0,424
2,note_on,49,40,0
2,note_on,58,0,74
2,note_on,59,52,0
2,note_on,49,0,462
2,note_on,49,41,0
2,note_on,49,0,78
2,note_on,59,0,0
2,note_on,42,37,0
2,note_on,49,40,19
2,note_on,51,44,30
2,note_on,54,46,30
2,note_on,42,0,90
2,note_on,49,0,480
2,note_on,51,0,0
2,note_on,54,0,0
2,note_on,49,49,0
2,note_on,61,49,0
2,note_on,46,44,78
2,note_on,61,0,480
2,note_on,49,0,0
2,note_on,49,50,0
2,note_on,61,50,0
2,note_on,46,0,78
2,note_on,45,46,0
2,note_on,61,0,389
2,note_on,49,0,0
2,note_on,49,50,0
2,note_on,61,50,0
2,note_on,61,0,137
2,note_on,49,0,0
2,note_on,45,0,0
2,note_on,58,50,0
2,note_on,44,50,0
2,note_on,58,0,56
2,note_on,56,48,0
2,note_on,56,0,212
2,note_on,54,38,0
2,note_on,54,0,71
2,note_on,53,41,0
2,note_on,44,0,240
2,note_on,44,35,0
2,note_on,44,0,184
2,note_on,53,0,0
2,note_on,32,47,50
2,note_on,32,0,50
2,note_on,32,39,0
2,note_on,32,0,60
2,note_on,32,47,0
2,note_on,32,0,110
2,note_on,32,38,0
2,note_on,32,0,46
2,note_on,32,39,0
2,note_on,32,0,46
2,note_on,32,39,0
2,note_on,32,0,960
2,note_on,32,36,0
2,note_on,32,0,480
2,note_on,37,39,0
2,note_on,37,0,960
2,note_on,63,45,0
2,note_on,58,37,0
2,note_on,54,37,0
2,note_on,54,0,293
2,note_on,58,0,0
2,note_on,63,0,0
2,note_on,49,27,0
2,note_on,49,0,480
2,note_on,54,37,0
2,note_on,58,37,0
2,note_on,63,44,0
2,note_on,63,0,480
2,note_on,58,0,0
2,note_on,54,0,0
2,note_on,49,26,0
2,note_on,58,45,480
2,note_on,58,0,480
2,note_on,57,48,0
2,note_on,57,0,300
2,note_on,49,0,0
2,note_on,49,34,0
2,note_on,56,36,30
2,note_on,61,38,21
2,note_on,37,34,589
2,note_on,37,0,480
2,note_on,49,0,0
2,note_on,56,0,0
2,note_on,61,0,0
2,note_on,53,31,0
2,note_on,53,0,240
2,note_on,61,34,240
2,note_on,61,0,240
2,note_on,65,34,240
2,note_on,65,0,240
