Track,Message Type,Note,Velocity,Time
1,note_on,57,48,0
1,note_on,64,55,0
1,note_on,64,0,360
1,note_on,65,51,0
1,note_on,65,0,120
1,note_on,69,55,0
1,note_on,69,0,160
1,note_on,67,51,0
1,note_on,67,0,160
1,note_on,65,51,0
1,note_on,65,0,160
1,note_on,64,53,0
1,note_on,64,0,240
1,note_on,65,52,0
1,note_on,65,0,240
1,note_on,57,0,0
1,note_on,62,52,0
1,note_on,57,48,0
1,note_on,62,0,360
1,note_on,69,58,120
1,note_on,69,0,960
1,note_on,57,0,0
1,note_on,55,48,0
1,note_on,62,55,0
1,note_on,62,0,360
1,note_on,64,50,0
1,note_on,64,0,120
1,note_on,67,55,0
1,note_on,67,0,160
1,note_on,65,51,0
1,note_on,65,0,160
1,note_on,64,51,0
1,note_on,64,0,160
1,note_on,62,55,0
1,note_on,62,0,240
1,note_on,64,52,0
1,note_on,64,0,240
1,note_on,55,0,0
1,note_on,62,51,0
1,note_on,64,55,0
1,note_on,62,0,240
1,note_on,61,44,0
1,note_on,61,0,240
1,note_on,59,47,0
1,note_on,59,0,240
1,note_on,61,42,0
1,note_on,61,0,240
1,note_on,59,47,0
1,note_on,59,0,240
1,note_on,57,42,0
1,note_on,57,0,240
1,note_on,64,0,0
1,note_on,57,48,0
1,note_on,64,55,0
1,note_on,64,0,360
1,note_on,65,51,0
1,note_on,65,0,120
1,note_on,69,55,0
1,note_on,69,0,160
1,note_on,67,51,0
1,note_on,67,0,160
1,note_on,65,51,0
1,note_on,65,0,160
1,note_on,64,53,0
1,note_on,64,0,240
1,note_on,65,52,0
1,note_on,65,0,240
1,note_on,57,0,0
1,note_on,57,48,0
1,note_on,62,52,0
1,note_on,62,0,360
1,note_on,69,57,120
1,note_on,69,0,960
1,note_on,57,0,0
1,note_on,69,57,0
1,note_on,62,50,0
1,note_on,69,0,360
1,note_on,71,52,0
1,note_on,71,0,120
1,note_on,74,57,0
1,note_on,74,0,160
1,note_on,72,53,0
1,note_on,72,0,160
1,note_on,71,53,0
1,note_on,71,0,160
1,note_on,69,57,0
1,note_on,69,0,240
1,note_on,71,55,0
1,note_on,71,0,240
1,note_on,67,57,0
1,note_on,67,0,240
1,note_on,69,51,0
1,note_on,69,0,240
1,note_on,62,0,0
1,note_on,60,47,0
1,note_on,67,59,0
1,note_on,67,0,240
1,note_on,69,53,0
1,note_on,69,0,240
1,note_on,71,59,0
1,note_on,71,0,240
1,note_on,72,55,0
1,note_on,72,0,240
1,note_on,60,0,0
1,note_on,65,57,0
1,note_on,59,50,0
1,note_on,65,0,360
1,note_on,67,52,0
1,note_on,67,0,120
1,note_on,71,57,0
1,note_on,71,0,160
1,note_on,69,53,0
1,note_on,69,0,160
1,note_on,67,53,0
1,note_on,67,0,160
1,note_on,59,0,0
1,note_on,65,57,0
1,note_on,59,48,0
1,note_on,65,0,240
1,note_on,67,55,0
1,note_on,67,0,240
1,note_on,59,0,0
1,note_on,59,50,0
1,note_on,64,57,0
1,note_on,59,0,960
1,note_on,64,0,480
1,note_on,69,47,480
1,note_on,74,62,0
1,note_on,74,0,480
1,note_on,81,66,0
1,note_on,81,0,960
1,note_on,72,60,0
1,note_on,72,0,480
1,note_on,69,0,0
1,note_on,67,47,0
1,note_on,79,62,0
1,note_on,79,0,480
1,note_on,67,0,0
1,note_on,77,62,480
1,note_on,71,48,0
1,note_on,71,0,480
1,note_on,77,0,0
1,note_on,67,46,0
1,note_on,79,60,0
1,note_on,79,0,460
1,note_on,67,0,0
1,note_on,67,48,20
1,note_on,79,62,0
1,note_on,79,0,480
1,note_on,67,0,0
1,note_on,72,57,0
1,note_on,72,0,480
1,note_on,53,69,480
1,note_on,53,0,360
1,note_on,55,63,0
1,note_on,58,69,120
1,note_on,55,0,10
1,note_on,56,64,150
1,note_on,58,0,10
1,note_on,55,64,150
1,note_on,56,0,10
1,note_on,53,69,150
1,note_on,55,0,10
1,note_on,55,66,230
1,note_on,53,0,10
1,note_on,55,0,230
1,note_on,75,72,0
1,note_on,68,59,0
1,note_on,75,0,360
1,note_on,77,66,0
1,note_on,77,0,120
1,note_on,80,71,0
1,note_on,80,0,160
1,note_on,79,69,0
1,note_on,79,0,160
1,note_on,77,69,0
1,note_on,77,0,160
1,note_on,75,71,0
1,note_on,75,0,240
1,note_on,77,70,0
1,note_on,77,0,240
1,note_on,68,0,0
1,note_on,67,55,0
1,note_on,73,71,0
1,note_on,73,0,360
1,note_on,75,66,0
1,note_on,75,0,120
1,note_on,79,71,0
1,note_on,79,0,160
1,note_on,77,69,0
1,note_on,77,0,160
1,note_on,75,69,0
1,note_on,75,0,160
1,note_on,73,71,0
1,note_on,73,0,240
1,note_on,75,70,0
1,note_on,75,0,240
1,note_on,67,0,0
1,note_on,63,55,0
1,note_on,60,55,0
1,note_on,72,61,0
1,note_on,72,0,1440
1,note_on,60,0,0
1,note_on,63,0,0
1,note_on,60,55,0
1,note_on,64,55,0
1,note_on,72,61,0
1,note_on,72,0,1440
1,note_on,64,0,0
1,note_on,60,0,0
1,note_on,68,66,0
1,note_on,65,51,0
1,note_on,60,51,0
1,note_on,68,0,240
1,note_on,70,61,0
1,note_on,70,0,240
1,note_on,68,66,0
1,note_on,68,0,240
1,note_on,70,62,0
1,note_on,70,0,240
1,note_on,72,66,0
1,note_on,72,0,240
1,note_on,73,62,0
1,note_on,73,0,240
1,note_on,60,0,0
1,note_on,65,0,0
1,note_on,70,72,0
1,note_on,65,51,0
1,note_on,70,0,240
1,note_on,72,63,0
1,note_on,72,0,240
1,note_on,70,70,0
1,note_on,70,0,240
1,note_on,72,66,0
1,note_on,72,0,240
1,note_on,73,64,0
1,note_on,73,0,160
1,note_on,75,70,0
1,note_on,75,0,160
1,note_on,77,73,0
1,note_on,77,0,160
1,note_on,65,0,0
1,note_on,79,78,0
1,note_on,65,59,0
1,note_on,70,58,0
1,note_on,65,0,480
1,note_on,64,59,0
1,note_on,64,0,960
1,note_on,70,0,0
1,note_on,79,0,0
1,note_on,69,68,0
1,note_on,76,83,0
1,note_on,76,0,360
1,note_on,77,77,0
1,note_on,77,0,120
1,note_on,81,73,0
1,note_on,81,0,160
1,note_on,79,74,0
1,note_on,79,0,160
1,note_on,77,73,0
1,note_on,77,0,160
1,note_on,76,77,0
1,note_on,76,0,240
1,note_on,77,75,0
1,note_on,77,0,240
1,note_on,74,78,0
1,note_on,74,0,460
1,note_on,69,0,0
1,note_on,69,63,20
1,note_on,81,84,0
1,note_on,81,0,960
1,note_on,69,0,0
1,note_on,74,84,0
1,note_on,67,68,0
1,note_on,74,0,360
1,note_on,76,73,0
1,note_on,76,0,120
1,note_on,79,73,0
1,note_on,79,0,160
1,note_on,77,73,0
1,note_on,77,0,160
1,note_on,76,72,0
1,note_on,76,0,160
1,note_on,67,0,0
1,note_on,67,62,0
1,note_on,74,78,0
1,note_on,74,0,240
1,note_on,76,74,0
1,note_on,76,0,240
1,note_on,67,0,0
1,note_on,74,77,0
1,note_on,67,68,0
1,note_on,76,71,0
1,note_on,74,0,240
1,note_on,73,64,0
1,note_on,73,0,240
1,note_on,71,69,0
1,note_on,71,0,240
1,note_on,73,62,0
1,note_on,73,0,240
1,note_on,76,0,0
1,note_on,67,0,0
1,note_on,71,69,0
1,note_on,71,0,240
1,note_on,69,62,0
1,note_on,69,0,240
1,note_on,76,84,0
1,note_on,69,68,0
1,note_on,76,0,360
1,note_on,77,77,0
1,note_on,77,0,120
1,note_on,81,75,0
1,note_on,81,0,160
1,note_on,79,73,0
1,note_on,79,0,160
1,note_on,77,72,0
1,note_on,77,0,160
1,note_on,76,75,0
1,note_on,76,0,240
1,note_on,77,74,0
1,note_on,77,0,240
1,note_on,74,78,0
1,note_on,74,0,450
1,note_on,69,0,30
1,note_on,69,73,0
1,note_on,81,80,0
1,note_on,81,0,960
1,note_on,69,0,0
1,note_on,65,57,0
1,note_on,74,71,0
1,note_on,67,57,0
1,note_on,74,0,360
1,note_on,76,62,0
1,note_on,76,0,120
1,note_on,79,67,0
1,note_on,79,0,160
1,note_on,77,62,0
1,note_on,77,0,160
1,note_on,76,60,0
1,note_on,76,0,160
1,note_on,74,62,0
1,note_on,74,0,240
1,note_on,76,58,0
1,note_on,76,0,240
1,note_on,67,0,0
1,note_on,65,0,0
1,note_on,72,57,0
1,note_on,69,47,0
1,note_on,65,47,0
1,note_on,72,0,240
1,note_on,74,51,0
1,note_on,74,0,240
1,note_on,72,59,0
1,note_on,72,0,240
1,note_on,74,53,0
1,note_on,74,0,240
1,note_on,76,59,0
1,note_on,76,0,240
1,note_on,77,55,0
1,note_on,77,0,240
1,note_on,65,0,0
1,note_on,69,0,0
1,note_on,64,50,0
1,note_on,70,57,0
1,note_on,70,0,360
1,note_on,72,52,0
1,note_on,72,0,120
1,note_on,76,57,0
1,note_on,76,0,160
1,note_on,74,53,0
1,note_on,74,0,160
1,note_on,72,53,0
1,note_on,72,0,160
1,note_on,70,57,0
1,note_on,70,0,240
1,note_on,72,55,0
1,note_on,72,0,240
1,note_on,64,0,0
1,note_on,63,42,0
1,note_on,69,48,0
1,note_on,69,0,1440
1,note_on,63,0,0
1,note_on,62,55,0
1,note_on,69,52,0
1,note_on,62,0,360
1,note_on,64,53,0
1,note_on,64,0,120
1,note_on,69,0,0
1,note_on,67,57,0
1,note_on,65,53,160
1,note_on,65,0,160
1,note_on,64,50,0
1,note_on,64,0,160
1,note_on,67,0,0
1,note_on,74,60,0
1,note_on,57,47,480
1,note_on,65,47,0
1,note_on,74,0,480
1,note_on,65,60,0
1,note_on,65,0,480
1,note_on,72,60,0
1,note_on,65,0,480
1,note_on,57,0,0
1,note_on,72,0,480
1,note_on,70,60,0
1,note_on,70,0,480
1,note_on,64,60,0
1,note_on,72,60,0
1,note_on,72,0,480
1,note_on,64,0,0
1,note_on,72,48,0
1,note_on,65,42,0
1,note_on,65,0,1440
1,note_on,72,0,0
1,note_on,79,57,0
1,note_on,79,0,360
1,note_on,81,52,0
1,note_on,81,0,120
1,note_on,84,57,0
1,note_on,84,0,160
1,note_on,82,53,0
1,note_on,82,0,160
1,note_on,81,53,0
1,note_on,81,0,160
1,note_on,79,57,0
1,note_on,79,0,240
1,note_on,81,55,0
1,note_on,81,0,240
1,note_on,77,57,0
1,note_on,77,0,240
1,note_on,79,51,0
1,note_on,79,0,240
1,note_on,77,59,0
1,note_on,77,0,240
1,note_on,79,53,0
1,note_on,79,0,240
1,note_on,81,59,0
1,note_on,81,0,240
1,note_on,82,55,0
1,note_on,82,0,240
1,note_on,74,57,0
1,note_on,74,0,360
1,note_on,76,52,0
1,note_on,76,0,120
1,note_on,79,57,0
1,note_on,79,0,160
1,note_on,77,53,0
1,note_on,77,0,160
1,note_on,76,53,0
1,note_on,76,0,160
1,note_on,74,57,0
1,note_on,74,0,240
1,note_on,76,55,0
1,note_on,76,0,240
1,note_on,77,57,0
1,note_on,72,57,0
1,note_on,72,0,1440
1,note_on,77,0,0
1,note_on,70,50,0
1,note_on,65,50,0
1,note_on,77,57,0
1,note_on,77,0,1440
1,note_on,65,0,0
1,note_on,70,0,0
1,note_on,84,57,0
1,note_on,72,50,0
1,note_on,77,50,0
1,note_on,77,0,1440
1,note_on,72,0,0
1,note_on,84,0,0
1,note_on,77,49,0
1,note_on,89,56,0
1,note_on,82,49,0
1,note_on,82,0,1440
1,note_on,89,0,0
1,note_on,77,0,0
1,note_on,96,55,0
1,note_on,89,49,0
1,note_on,84,49,0
1,note_on,84,0,1920
1,note_on,89,0,0
1,note_on,96,0,0
1,note_on,58,45,2880
1,note_on,63,50,0
1,note_on,63,0,480
1,note_on,58,0,0
1,note_on,60,48,0
1,note_on,65,53,0
1,note_on,65,0,480
1,note_on,60,0,0
1,note_on,61,50,0
1,note_on,65,57,0
1,note_on,65,0,480
1,note_on,61,0,0
1,note_on,58,44,0
1,note_on,68,49,0
1,note_on,68,0,480
1,note_on,58,0,0
1,note_on,61,42,0
1,note_on,65,48,0
1,note_on,65,0,480
1,note_on,61,0,0
1,note_on,58,45,480
1,note_on,63,50,0
1,note_on,63,0,480
1,note_on,58,0,0
1,note_on,60,48,0
1,note_on,65,53,0
1,note_on,65,0,480
1,note_on,60,0,0
1,note_on,61,50,0
1,note_on,65,57,0
1,note_on,65,0,480
1,note_on,61,0,0
1,note_on,58,44,0
1,note_on,68,49,0
1,note_on,68,0,480
1,note_on,58,0,0
1,note_on,65,42,0
1,note_on,70,48,0
1,note_on,70,0,480
1,note_on,65,0,0
1,note_on,63,49,480
1,note_on,68,55,0
1,note_on,68,0,480
1,note_on,63,0,0
1,note_on,65,52,0
1,note_on,70,58,0
1,note_on,70,0,480
1,note_on,65,0,0
1,note_on,66,55,0
1,note_on,70,62,0
1,note_on,70,0,480
1,note_on,66,0,0
1,note_on,63,48,0
1,note_on,73,53,0
1,note_on,73,0,480
1,note_on,63,0,0
1,note_on,66,46,0
1,note_on,70,52,0
1,note_on,70,0,480
1,note_on,66,0,0
1,note_on,63,49,0
1,note_on,68,55,0
1,note_on,68,0,480
1,note_on,63,0,0
1,note_on,58,42,0
1,note_on,65,48,0
1,note_on,65,0,480
1,note_on,58,0,0
1,note_on,63,48,0
1,note_on,68,55,0
1,note_on,68,0,480
1,note_on,63,0,0
1,note_on,61,44,0
1,note_on,65,49,0
1,note_on,65,0,480
1,note_on,61,0,0
1,note_on,58,47,0
1,note_on,66,52,0
1,note_on,66,0,480
1,note_on,58,0,0
1,note_on,60,42,0
1,note_on,63,48,0
1,note_on,63,0,480
1,note_on,60,0,0
1,note_on,58,50,480
1,note_on,63,39,240
1,note_on,63,0,240
1,note_on,58,0,0
1,note_on,60,53,0
1,note_on,65,41,240
1,note_on,65,0,240
1,note_on,60,0,0
1,note_on,61,55,0
1,note_on,65,42,240
1,note_on,65,0,240
1,note_on,58,49,0
1,note_on,58,0,240
1,note_on,68,37,0
1,note_on,68,0,240
1,note_on,61,0,0
1,note_on,61,47,0
1,note_on,65,35,240
1,note_on,65,0,240
1,note_on,61,0,0
1,note_on,58,45,480
1,note_on,63,35,240
1,note_on,63,0,240
1,note_on,58,0,0
1,note_on,60,48,0
1,note_on,65,37,240
1,note_on,65,0,240
1,note_on,60,0,0
1,note_on,61,49,0
1,note_on,65,38,240
1,note_on,65,0,240
1,note_on,58,44,0
1,note_on,58,0,240
1,note_on,68,33,0
1,note_on,68,0,240
1,note_on,61,0,0
1,note_on,65,41,0
1,note_on,70,30,240
1,note_on,70,0,240
1,note_on,65,0,0
1,note_on,62,49,480
1,note_on,67,55,0
1,note_on,67,0,480
1,note_on,62,0,0
1,note_on,64,52,0
1,note_on,69,58,0
1,note_on,69,0,480
1,note_on,64,0,0
1,note_on,65,55,0
1,note_on,69,62,0
1,note_on,69,0,480
1,note_on,65,0,0
1,note_on,65,48,0
1,note_on,72,53,0
1,note_on,72,0,480
1,note_on,65,0,0
1,note_on,65,46,0
1,note_on,69,52,0
1,note_on,69,0,480
1,note_on,65,0,0
1,note_on,62,55,480
1,note_on,67,44,240
1,note_on,67,0,240
1,note_on,62,0,0
1,note_on,64,57,0
1,note_on,69,45,240
1,note_on,69,0,240
1,note_on,64,0,0
1,note_on,65,60,0
1,note_on,69,47,240
1,note_on,69,0,240
1,note_on,65,0,0
1,note_on,65,57,0
1,note_on,72,45,240
1,note_on,72,0,240
1,note_on,65,0,0
1,note_on,69,53,0
1,note_on,74,42,240
1,note_on,74,0,240
1,note_on,69,0,0
1,note_on,84,51,480
1,note_on,79,45,0
1,note_on,79,0,480
1,note_on,84,0,0
1,note_on,74,39,0
1,note_on,81,44,0
1,note_on,81,0,480
1,note_on,74,0,0
1,note_on,84,51,0
1,note_on,79,45,0
1,note_on,79,0,480
1,note_on,84,0,0
1,note_on,77,39,0
1,note_on,81,44,0
1,note_on,81,0,480
1,note_on,77,0,0
1,note_on,74,45,0
1,note_on,82,51,0
1,note_on,82,0,480
1,note_on,74,0,0
1,note_on,76,37,0
1,note_on,79,41,0
1,note_on,79,0,480
1,note_on,76,0,0
1,note_on,72,51,0
1,note_on,67,45,0
1,note_on,67,0,480
1,note_on,72,0,0
1,note_on,62,39,0
1,note_on,69,44,0
1,note_on,69,0,480
1,note_on,62,0,0
1,note_on,72,51,0
1,note_on,67,45,0
1,note_on,67,0,480
1,note_on,72,0,0
1,note_on,65,39,0
1,note_on,69,44,0
1,note_on,69,0,480
1,note_on,65,0,0
1,note_on,62,45,0
1,note_on,70,51,0
1,note_on,70,0,480
1,note_on,62,0,0
1,note_on,64,37,0
1,note_on,67,41,0
1,note_on,67,0,480
1,note_on,64,0,0
1,note_on,60,48,0
1,note_on,69,51,0
1,note_on,69,0,960
1,note_on,60,0,0
1,note_on,62,40,0
1,note_on,65,44,0
1,note_on,65,0,480
1,note_on,62,0,0
1,note_on,58,48,0
1,note_on,67,51,0
1,note_on,67,0,960
1,note_on,58,0,0
1,note_on,58,40,0
1,note_on,67,44,0
1,note_on,62,42,480
1,note_on,64,42,480
1,note_on,62,0,20
1,note_on,58,0,460
1,note_on,67,0,0
1,note_on,65,45,0
1,note_on,64,0,20
1,note_on,64,39,460
1,note_on,65,0,20
1,note_on,62,30,220
1,note_on,64,0,20
1,note_on,64,33,220
1,note_on,62,0,20
1,note_on,64,0,460
1,note_on,57,48,0
1,note_on,64,55,0
1,note_on,64,0,360
1,note_on,65,51,0
1,note_on,65,0,120
1,note_on,69,55,0
1,note_on,69,0,160
1,note_on,67,51,0
1,note_on,67,0,160
1,note_on,65,51,0
1,note_on,65,0,160
1,note_on,64,53,0
1,note_on,64,0,240
1,note_on,65,52,0
1,note_on,65,0,240
1,note_on,57,0,0
1,note_on,57,48,0
1,note_on,62,52,0
1,note_on,62,0,360
1,note_on,69,58,120
1,note_on,69,0,960
1,note_on,57,0,0
1,note_on,55,48,0
1,note_on,62,55,0
1,note_on,62,0,360
1,note_on,64,50,0
1,note_on,64,0,120
1,note_on,67,55,0
1,note_on,67,0,160
1,note_on,65,51,0
1,note_on,65,0,160
1,note_on,64,51,0
1,note_on,64,0,160
1,note_on,62,55,0
1,note_on,62,0,240
1,note_on,64,52,0
1,note_on,64,0,240
1,note_on,55,0,0
1,note_on,62,51,0
1,note_on,64,55,0
1,note_on,62,0,240
1,note_on,61,44,0
1,note_on,61,0,240
1,note_on,59,47,0
1,note_on,59,0,240
1,note_on,61,42,0
1,note_on,61,0,240
1,note_on,59,47,0
1,note_on,59,0,240
1,note_on,57,42,0
1,note_on,57,0,240
1,note_on,64,0,0
1,note_on,57,48,0
1,note_on,64,55,0
1,note_on,64,0,360
1,note_on,65,51,0
1,note_on,65,0,120
1,note_on,69,55,0
1,note_on,69,0,160
1,note_on,67,51,0
1,note_on,67,0,160
1,note_on,65,51,0
1,note_on,65,0,160
1,note_on,64,53,0
1,note_on,64,0,240
1,note_on,65,52,0
1,note_on,65,0,240
1,note_on,57,0,0
1,note_on,57,48,0
1,note_on,62,52,0
1,note_on,62,0,360
1,note_on,69,57,120
1,note_on,69,0,960
1,note_on,57,0,0
1,note_on,62,50,0
1,note_on,69,57,0
1,note_on,69,0,360
1,note_on,71,52,0
1,note_on,71,0,120
1,note_on,74,57,0
1,note_on,74,0,160
1,note_on,72,53,0
1,note_on,72,0,160
1,note_on,71,53,0
1,note_on,71,0,160
1,note_on,69,57,0
1,note_on,69,0,240
1,note_on,71,55,0
1,note_on,71,0,240
1,note_on,67,57,0
1,note_on,67,0,240
1,note_on,69,51,0
1,note_on,69,0,240
1,note_on,62,0,0
1,note_on,60,47,0
1,note_on,67,59,0
1,note_on,67,0,240
1,note_on,69,53,0
1,note_on,69,0,240
1,note_on,71,59,0
1,note_on,71,0,240
1,note_on,72,55,0
1,note_on,72,0,240
1,note_on,60,0,0
1,note_on,59,50,0
1,note_on,65,57,0
1,note_on,65,0,360
1,note_on,67,52,0
1,note_on,67,0,120
1,note_on,71,57,0
1,note_on,71,0,160
1,note_on,69,53,0
1,note_on,69,0,160
1,note_on,67,53,0
1,note_on,67,0,160
1,note_on,59,0,0
1,note_on,59,48,0
1,note_on,65,57,0
1,note_on,65,0,240
1,note_on,67,55,0
1,note_on,67,0,240
1,note_on,59,0,0
1,note_on,59,50,0
1,note_on,64,57,0
1,note_on,59,0,960
1,note_on,64,0,480
1,note_on,69,47,480
1,note_on,74,62,0
1,note_on,74,0,480
1,note_on,81,67,0
1,note_on,81,0,960
1,note_on,72,60,0
1,note_on,72,0,480
1,note_on,69,0,0
1,note_on,67,47,0
1,note_on,79,62,0
1,note_on,79,0,480
1,note_on,67,0,0
1,note_on,71,48,480
1,note_on,77,62,0
1,note_on,77,0,480
1,note_on,71,0,0
1,note_on,67,46,0
1,note_on,79,60,0
1,note_on,79,0,460
1,note_on,67,0,0
1,note_on,67,48,20
1,note_on,79,62,0
1,note_on,79,0,480
1,note_on,67,0,0
1,note_on,72,57,0
1,note_on,72,0,480
1,note_on,53,69,480
1,note_on,53,0,360
1,note_on,55,63,0
1,note_on,58,69,120
1,note_on,55,0,10
1,note_on,56,64,150
1,note_on,58,0,10
1,note_on,55,64,150
1,note_on,56,0,10
1,note_on,53,69,150
1,note_on,55,0,10
1,note_on,55,66,230
1,note_on,53,0,10
1,note_on,55,0,230
1,note_on,68,59,0
1,note_on,75,72,0
1,note_on,75,0,360
1,note_on,77,66,0
1,note_on,77,0,120
1,note_on,80,71,0
1,note_on,80,0,160
1,note_on,79,69,0
1,note_on,79,0,160
1,note_on,77,69,0
1,note_on,77,0,160
1,note_on,75,71,0
1,note_on,75,0,240
1,note_on,77,70,0
1,note_on,77,0,240
1,note_on,68,0,0
1,note_on,67,55,0
1,note_on,73,71,0
1,note_on,73,0,360
1,note_on,75,66,0
1,note_on,75,0,120
1,note_on,79,71,0
1,note_on,79,0,160
1,note_on,77,69,0
1,note_on,77,0,160
1,note_on,75,69,0
1,note_on,75,0,160
1,note_on,73,71,0
1,note_on,73,0,240
1,note_on,75,70,0
1,note_on,75,0,240
1,note_on,67,0,0
1,note_on,60,55,0
1,note_on,63,55,0
1,note_on,72,61,0
1,note_on,72,0,1440
1,note_on,63,0,0
1,note_on,60,0,0
1,note_on,60,55,0
1,note_on,64,55,0
1,note_on,72,61,0
1,note_on,72,0,1440
1,note_on,64,0,0
1,note_on,60,0,0
1,note_on,60,51,0
1,note_on,65,51,0
1,note_on,68,66,0
1,note_on,68,0,240
1,note_on,70,61,0
1,note_on,70,0,240
1,note_on,68,66,0
1,note_on,68,0,240
1,note_on,70,62,0
1,note_on,70,0,240
1,note_on,72,66,0
1,note_on,72,0,240
1,note_on,73,62,0
1,note_on,73,0,240
1,note_on,65,0,0
1,note_on,60,0,0
1,note_on,65,51,0
1,note_on,70,72,0
1,note_on,70,0,240
1,note_on,72,63,0
1,note_on,72,0,240
1,note_on,70,70,0
1,note_on,70,0,240
1,note_on,72,66,0
1,note_on,72,0,240
1,note_on,73,64,0
1,note_on,73,0,160
1,note_on,75,70,0
1,note_on,75,0,160
1,note_on,77,73,0
1,note_on,77,0,160
1,note_on,65,0,0
1,note_on,65,59,0
1,note_on,70,58,0
1,note_on,79,78,0
1,note_on,65,0,480
1,note_on,64,59,0
1,note_on,64,0,960
1,note_on,79,0,0
1,note_on,70,0,0
1,note_on,69,68,0
1,note_on,76,83,0
1,note_on,76,0,360
1,note_on,77,77,0
1,note_on,77,0,120
1,note_on,81,73,0
1,note_on,81,0,160
1,note_on,79,74,0
1,note_on,79,0,160
1,note_on,77,73,0
1,note_on,77,0,160
1,note_on,76,77,0
1,note_on,76,0,240
1,note_on,77,75,0
1,note_on,77,0,240
1,note_on,74,78,0
1,note_on,74,0,460
1,note_on,69,0,0
1,note_on,69,63,20
1,note_on,81,84,0
1,note_on,81,0,960
1,note_on,69,0,0
1,note_on,67,68,0
1,note_on,74,84,0
1,note_on,74,0,360
1,note_on,76,73,0
1,note_on,76,0,120
1,note_on,79,73,0
1,note_on,79,0,160
1,note_on,77,73,0
1,note_on,77,0,160
1,note_on,76,72,0
1,note_on,76,0,160
1,note_on,67,0,0
1,note_on,67,62,0
1,note_on,74,78,0
1,note_on,74,0,240
1,note_on,76,74,0
1,note_on,76,0,240
1,note_on,67,0,0
1,note_on,67,68,0
1,note_on,74,77,0
1,note_on,76,71,0
1,note_on,74,0,240
1,note_on,73,64,0
1,note_on,73,0,240
1,note_on,71,69,0
1,note_on,71,0,240
1,note_on,73,62,0
1,note_on,73,0,240
1,note_on,76,0,0
1,note_on,67,0,0
1,note_on,71,69,0
1,note_on,71,0,240
1,note_on,69,62,0
1,note_on,69,0,240
1,note_on,69,68,0
1,note_on,76,84,0
1,note_on,76,0,360
1,note_on,77,77,0
1,note_on,77,0,120
1,note_on,81,75,0
1,note_on,81,0,160
1,note_on,79,73,0
1,note_on,79,0,160
1,note_on,77,72,0
1,note_on,77,0,160
1,note_on,76,75,0
1,note_on,76,0,240
1,note_on,77,74,0
1,note_on,77,0,240
1,note_on,74,78,0
1,note_on,74,0,450
1,note_on,69,0,30
1,note_on,69,73,0
1,note_on,81,80,0
1,note_on,81,0,960
1,note_on,69,0,0
1,note_on,65,57,0
1,note_on,67,57,0
1,note_on,74,71,0
1,note_on,74,0,360
1,note_on,76,62,0
1,note_on,76,0,120
1,note_on,79,67,0
1,note_on,79,0,160
1,note_on,77,62,0
1,note_on,77,0,160
1,note_on,76,60,0
1,note_on,76,0,160
1,note_on,74,62,0
1,note_on,74,0,240
1,note_on,76,58,0
1,note_on,76,0,240
1,note_on,67,0,0
1,note_on,65,0,0
1,note_on,69,47,0
1,note_on,65,47,0
1,note_on,72,57,0
1,note_on,72,0,240
1,note_on,74,51,0
1,note_on,74,0,240
1,note_on,72,59,0
1,note_on,72,0,240
1,note_on,74,53,0
1,note_on,74,0,240
1,note_on,76,59,0
1,note_on,76,0,240
1,note_on,77,55,0
1,note_on,77,0,240
1,note_on,65,0,0
1,note_on,69,0,0
1,note_on,64,50,0
1,note_on,70,57,0
1,note_on,70,0,360
1,note_on,72,52,0
1,note_on,72,0,120
1,note_on,76,57,0
1,note_on,76,0,160
1,note_on,74,53,0
1,note_on,74,0,160
1,note_on,72,53,0
1,note_on,72,0,160
1,note_on,70,57,0
1,note_on,70,0,240
1,note_on,72,55,0
1,note_on,72,0,240
1,note_on,64,0,0
1,note_on,63,42,0
1,note_on,69,48,0
1,note_on,69,0,1440
1,note_on,63,0,0
1,note_on,69,52,0
1,note_on,62,55,0
1,note_on,62,0,360
1,note_on,64,53,0
1,note_on,64,0,120
1,note_on,69,0,0
1,note_on,67,57,0
1,note_on,65,53,160
1,note_on,65,0,160
1,note_on,64,50,0
1,note_on,64,0,160
1,note_on,67,0,0
1,note_on,74,60,0
1,note_on,57,47,480
1,note_on,65,47,0
1,note_on,74,0,480
1,note_on,65,60,0
1,note_on,65,0,480
1,note_on,72,60,0
1,note_on,65,0,480
1,note_on,57,0,0
1,note_on,72,0,480
1,note_on,70,60,0
1,note_on,70,0,480
1,note_on,64,60,0
1,note_on,72,60,0
1,note_on,72,0,480
1,note_on,64,0,0
1,note_on,65,42,0
1,note_on,72,48,0
1,note_on,72,0,1440
1,note_on,65,0,0
1,note_on,79,57,0
1,note_on,79,0,360
1,note_on,81,52,0
1,note_on,81,0,120
1,note_on,84,57,0
1,note_on,84,0,160
1,note_on,82,53,0
1,note_on,82,0,160
1,note_on,81,53,0
1,note_on,81,0,160
1,note_on,79,57,0
1,note_on,79,0,240
1,note_on,81,55,0
1,note_on,81,0,240
1,note_on,77,57,0
1,note_on,77,0,240
1,note_on,79,51,0
1,note_on,79,0,240
1,note_on,77,59,0
1,note_on,77,0,240
1,note_on,79,53,0
1,note_on,79,0,240
1,note_on,81,59,0
1,note_on,81,0,240
1,note_on,82,55,0
1,note_on,82,0,240
1,note_on,74,57,0
1,note_on,74,0,360
1,note_on,76,52,0
1,note_on,76,0,120
1,note_on,79,57,0
1,note_on,79,0,160
1,note_on,77,53,0
1,note_on,77,0,160
1,note_on,76,53,0
1,note_on,76,0,160
1,note_on,74,57,0
1,note_on,74,0,240
1,note_on,76,55,0
1,note_on,76,0,240
1,note_on,72,57,0
1,note_on,77,57,0
1,note_on,77,0,1440
1,note_on,72,0,0
1,note_on,65,50,0
1,note_on,70,50,0
1,note_on,77,57,0
1,note_on,77,0,1440
1,note_on,70,0,0
1,note_on,65,0,0
1,note_on,84,57,0
1,note_on,72,50,0
1,note_on,77,50,0
1,note_on,77,0,1440
1,note_on,72,0,0
1,note_on,84,0,0
1,note_on,89,56,0
1,note_on,82,49,0
1,note_on,77,49,0
1,note_on,77,0,1440
1,note_on,82,0,0
1,note_on,89,0,0
1,note_on,96,55,0
1,note_on,89,49,0
1,note_on,84,49,0
1,note_on,84,0,1920
1,note_on,89,0,0
1,note_on,96,0,0
2,note_on,48,48,0
2,note_on,41,44,0
2,note_on,48,0,198
2,note_on,49,45,0
2,note_on,49,0,92
2,note_on,41,0,0
2,note_on,50,48,0
2,note_on,41,44,0
2,note_on,50,0,869
2,note_on,49,39,0
2,note_on,49,0,389
2,note_on,41,0,0
2,note_on,50,48,0
2,note_on,46,44,0
2,note_on,50,0,438
2,note_on,52,48,0
2,note_on,46,0,106
2,note_on,45,44,0
2,note_on,52,0,457
2,note_on,55,45,0
2,note_on,55,0,480
2,note_on,45,0,0
2,note_on,45,45,0
2,note_on,45,0,309
2,note_on,48,48,0
2,note_on,41,44,0
2,note_on,48,0,198
2,note_on,49,45,0
2,note_on,49,0,92
2,note_on,41,0,0
2,note_on,50,48,0
2,note_on,41,44,0
2,note_on,50,0,869
2,note_on,52,39,0
2,note_on,52,0,389
2,note_on,41,0,0
2,note_on,53,47,0
2,note_on,53,0,438
2,note_on,55,53,0
2,note_on,55,0,64
2,note_on,53,50,0
2,note_on,53,0,106
2,note_on,52,44,0
2,note_on,52,0,60
2,note_on,57,51,0
2,note_on,57,0,457
2,note_on,55,47,0
2,note_on,55,0,126
2,note_on,50,47,0
2,note_on,50,0,438
2,note_on,55,53,0
2,note_on,55,0,64
2,note_on,50,47,0
2,note_on,56,50,106
2,note_on,50,0,187
2,note_on,50,47,0
2,note_on,50,0,213
2,note_on,56,0,0
2,note_on,48,38,0
2,note_on,57,45,0
2,note_on,57,0,213
2,note_on,48,0,0
2,note_on,53,45,0
2,note_on,57,57,0
2,note_on,57,0,331
2,note_on,59,53,0
2,note_on,59,0,11
2,note_on,62,56,0
2,note_on,62,0,131
2,note_on,60,55,0
2,note_on,60,0,160
2,note_on,59,55,0
2,note_on,59,0,160
2,note_on,57,57,0
2,note_on,57,0,240
2,note_on,59,56,0
2,note_on,59,0,97
2,note_on,53,0,0
2,note_on,52,41,0
2,note_on,55,55,0
2,note_on,55,0,171
2,note_on,57,52,0
2,note_on,57,0,240
2,note_on,55,59,0
2,note_on,55,0,240
2,note_on,57,55,0
2,note_on,57,0,80
2,note_on,59,59,0
2,note_on,59,0,217
2,note_on,60,51,0
2,note_on,60,0,91
2,note_on,52,0,0
2,note_on,50,45,0
2,note_on,53,57,0
2,note_on,53,0,325
2,note_on,55,53,0
2,note_on,55,0,28
2,note_on,59,59,0
2,note_on,59,0,149
2,note_on,57,57,0
2,note_on,57,0,160
2,note_on,55,57,0
2,note_on,55,0,160
2,note_on,50,0,0
2,note_on,43,42,0
2,note_on,53,59,0
2,note_on,53,0,191
2,note_on,55,58,0
2,note_on,55,0,78
2,note_on,43,0,0
2,note_on,48,45,0
2,note_on,53,53,0
2,note_on,53,0,155
2,note_on,52,51,0
2,note_on,52,0,240
2,note_on,50,55,0
2,note_on,50,0,240
2,note_on,52,51,0
2,note_on,52,0,240
2,note_on,48,0,0
2,note_on,50,47,0
2,note_on,50,0,113
2,note_on,48,41,0
2,note_on,48,0,155
2,note_on,41,57,0
2,note_on,41,0,360
2,note_on,43,53,0
2,note_on,46,56,120
2,note_on,43,0,10
2,note_on,44,55,150
2,note_on,46,0,10
2,note_on,43,55,150
2,note_on,44,0,10
2,note_on,41,57,150
2,note_on,43,0,10
2,note_on,43,56,230
2,note_on,41,0,10
2,note_on,43,0,230
2,note_on,39,55,0
2,note_on,51,59,0
2,note_on,51,0,388
2,note_on,39,0,0
2,note_on,48,55,0
2,note_on,60,59,0
2,note_on,60,0,56
2,note_on,48,0,0
2,note_on,46,55,0
2,note_on,58,59,0
2,note_on,58,0,473
2,note_on,46,0,0
2,note_on,39,55,0
2,note_on,51,59,0
2,note_on,51,0,120
2,note_on,39,0,0
2,note_on,44,52,0
2,note_on,51,59,0
2,note_on,51,0,198
2,note_on,53,55,0
2,note_on,53,0,240
2,note_on,51,56,0
2,note_on,51,0,240
2,note_on,53,58,0
2,note_on,53,0,240
2,note_on,55,61,0
2,note_on,55,0,240
2,note_on,56,63,0
2,note_on,56,0,166
2,note_on,43,64,0
2,note_on,44,0,49
2,note_on,58,63,0
2,note_on,43,0,360
2,note_on,44,61,0
2,note_on,44,0,71
2,note_on,58,0,0
2,note_on,48,64,0
2,note_on,46,62,160
2,note_on,48,0,10
2,note_on,44,62,150
2,note_on,46,0,10
2,note_on,43,64,150
2,note_on,44,0,10
2,note_on,44,63,230
2,note_on,43,0,10
2,note_on,44,0,230
2,note_on,41,59,0
2,note_on,53,66,0
2,note_on,53,0,99
2,note_on,41,0,0
2,note_on,39,51,0
2,note_on,51,57,0
2,note_on,51,0,127
2,note_on,39,0,0
2,note_on,37,53,0
2,note_on,49,60,0
2,note_on,49,0,424
2,note_on,37,0,0
2,note_on,43,57,0
2,note_on,55,63,0
2,note_on,55,0,64
2,note_on,43,0,0
2,note_on,37,51,0
2,note_on,49,58,0
2,note_on,49,0,85
2,note_on,37,0,0
2,note_on,36,50,0
2,note_on,48,57,0
2,note_on,48,0,373
2,note_on,36,0,0
2,note_on,60,57,0
2,note_on,60,0,293
2,note_on,29,60,0
2,note_on,41,68,0
2,note_on,60,66,480
2,note_on,48,59,0
2,note_on,48,0,198
2,note_on,60,0,0
2,note_on,61,63,0
2,note_on,49,56,0
2,note_on,49,0,92
2,note_on,61,0,0
2,note_on,62,68,0
2,note_on,50,68,0
2,note_on,41,0,389
2,note_on,29,0,0
2,note_on,29,53,480
2,note_on,41,60,0
2,note_on,41,0,389
2,note_on,50,0,0
2,note_on,62,0,0
2,note_on,29,0,0
2,note_on,34,68,0
2,note_on,46,68,0
2,note_on,64,68,438
2,note_on,52,61,0
2,note_on,46,0,64
2,note_on,34,0,0
2,note_on,34,53,0
2,note_on,46,60,0
2,note_on,46,0,106
2,note_on,52,0,0
2,note_on,64,0,0
2,note_on,34,0,0
2,note_on,33,55,0
2,note_on,45,62,0
2,note_on,57,67,457
2,note_on,45,0,480
2,note_on,33,0,0
2,note_on,33,56,0
2,note_on,45,63,0
2,note_on,45,0,309
2,note_on,33,0,0
2,note_on,57,0,0
2,note_on,29,60,0
2,note_on,41,68,0
2,note_on,48,59,480
2,note_on,60,66,0
2,note_on,60,0,198
2,note_on,48,0,0
2,note_on,61,63,0
2,note_on,49,56,0
2,note_on,49,0,92
2,note_on,61,0,0
2,note_on,62,68,0
2,note_on,50,62,0
2,note_on,50,0,869
2,note_on,62,0,0
2,note_on,65,63,0
2,note_on,53,55,0
2,note_on,53,0,389
2,note_on,29,0,0
2,note_on,41,0,0
2,note_on,65,0,0
2,note_on,46,53,0
2,note_on,46,0,438
2,note_on,58,60,0
2,note_on,58,0,106
2,note_on,60,44,0
2,note_on,60,0,60
2,note_on,48,51,0
2,note_on,48,0,126
2,note_on,55,47,0
2,note_on,55,0,438
2,note_on,48,53,0
2,note_on,48,0,106
2,note_on,54,42,0
2,note_on,54,0,187
2,note_on,48,39,0
2,note_on,48,0,213
2,note_on,46,53,0
2,note_on,46,0,438
2,note_on,58,60,0
2,note_on,62,53,64
2,note_on,62,0,233
2,note_on,64,50,0
2,note_on,64,0,106
2,note_on,58,0,0
2,note_on,60,53,0
2,note_on,57,44,0
2,note_on,60,0,217
2,note_on,62,48,0
2,note_on,62,0,60
2,note_on,60,56,0
2,note_on,60,0,217
2,note_on,62,50,0
2,note_on,62,0,240
2,note_on,64,56,0
2,note_on,64,0,240
2,note_on,65,51,0
2,note_on,65,0,126
2,note_on,57,0,0
2,note_on,58,53,0
2,note_on,55,47,0
2,note_on,58,0,318
2,note_on,60,49,0
2,note_on,60,0,120
2,note_on,64,53,0
2,note_on,64,0,160
2,note_on,62,50,0
2,note_on,62,0,160
2,note_on,60,50,0
2,note_on,60,0,64
2,note_on,55,0,0
2,note_on,58,49,0
2,note_on,48,47,0
2,note_on,58,0,233
2,note_on,60,47,0
2,note_on,60,0,106
2,note_on,48,0,0
2,note_on,58,46,0
2,note_on,53,46,0
2,note_on,58,0,240
2,note_on,57,41,0
2,note_on,57,0,187
2,note_on,55,45,0
2,note_on,55,0,240
2,note_on,57,40,0
2,note_on,57,0,99
2,note_on,53,0,0
2,note_on,55,40,0
2,note_on,55,0,240
2,note_on,53,40,0
2,note_on,53,0,213
2,note_on,75,47,0
2,note_on,65,42,438
2,note_on,75,0,106
2,note_on,75,44,0
2,note_on,75,0,60
2,note_on,74,51,0
2,note_on,65,0,457
2,note_on,65,42,0
2,note_on,74,0,126
2,note_on,70,47,0
2,note_on,65,0,438
2,note_on,65,42,0
2,note_on,70,0,106
2,note_on,70,48,0
2,note_on,70,0,240
2,note_on,69,42,0
2,note_on,69,0,187
2,note_on,67,46,0
2,note_on,67,0,240
2,note_on,69,41,0
2,note_on,69,0,240
2,note_on,65,0,0
2,note_on,67,41,0
2,note_on,67,0,107
2,note_on,65,38,0
2,note_on,65,0,213
2,note_on,63,44,0
2,note_on,63,0,120
2,note_on,62,39,0
2,note_on,62,0,240
2,note_on,60,42,0
2,note_on,60,0,240
2,note_on,62,38,0
2,note_on,62,0,240
2,note_on,60,38,0
2,note_on,60,0,107
2,note_on,58,35,0
2,note_on,58,0,213
2,note_on,58,44,0
2,note_on,58,0,180
2,note_on,57,39,0
2,note_on,57,0,240
2,note_on,55,41,0
2,note_on,55,0,240
2,note_on,57,37,0
2,note_on,57,0,240
2,note_on,55,37,0
2,note_on,55,0,107
2,note_on,53,34,0
2,note_on,53,0,213
2,note_on,51,41,0
2,note_on,51,0,180
2,note_on,50,37,0
2,note_on,50,0,240
2,note_on,48,40,0
2,note_on,48,0,240
2,note_on,50,36,0
2,note_on,50,0,240
2,note_on,48,36,0
2,note_on,48,0,107
2,note_on,46,33,0
2,note_on,46,0,213
2,note_on,46,40,0
2,note_on,46,0,240
2,note_on,45,36,0
2,note_on,45,0,187
2,note_on,43,39,0
2,note_on,43,0,240
2,note_on,45,35,0
2,note_on,45,0,240
2,note_on,43,35,0
2,note_on,43,0,107
2,note_on,41,31,0
2,note_on,41,0,213
2,note_on,41,34,0
2,note_on,41,0,480
2,note_on,29,20,0
2,note_on,29,0,240
2,note_on,29,19,240
2,note_on,29,0,240
2,note_on,29,19,240
2,note_on,29,0,240
2,note_on,37,38,1087
2,note_on,42,40,0
2,note_on,42,0,480
2,note_on,44,44,0
2,note_on,44,0,251
2,note_on,46,46,0
2,note_on,46,0,480
2,note_on,53,42,0
2,note_on,53,0,480
2,note_on,46,38,0
2,note_on,46,0,480
2,note_on,37,0,0
2,note_on,37,38,0
2,note_on,42,40,0
2,note_on,42,0,480
2,note_on,44,44,0
2,note_on,44,0,251
2,note_on,46,46,0
2,note_on,46,0,480
2,note_on,53,42,0
2,note_on,53,0,480
2,note_on,49,38,0
2,note_on,49,0,480
2,note_on,37,0,0
2,note_on,37,41,0
2,note_on,47,44,0
2,note_on,47,0,480
2,note_on,49,48,0
2,note_on,49,0,251
2,note_on,51,50,0
2,note_on,51,0,480
2,note_on,58,46,0
2,note_on,58,0,480
2,note_on,51,41,0
2,note_on,51,0,480
2,note_on,37,0,0
2,note_on,37,44,0
2,note_on,48,44,0
2,note_on,48,0,389
2,note_on,49,38,0
2,note_on,49,0,480
2,note_on,37,0,0
2,note_on,37,42,0
2,note_on,48,42,0
2,note_on,48,0,229
2,note_on,46,37,0
2,note_on,46,0,320
2,note_on,37,0,0
2,note_on,37,41,0
2,note_on,51,41,0
2,note_on,51,0,411
2,note_on,44,41,0
2,note_on,44,0,366
2,note_on,37,0,0
2,note_on,37,38,0
2,note_on,42,40,0
2,note_on,42,0,480
2,note_on,44,44,0
2,note_on,44,0,57
2,note_on,46,46,0
2,note_on,46,0,480
2,note_on,53,42,0
2,note_on,53,0,480
2,note_on,46,38,0
2,note_on,46,0,149
2,note_on,37,0,0
2,note_on,37,34,0
2,note_on,42,36,0
2,note_on,42,0,480
2,note_on,44,39,0
2,note_on,44,0,57
2,note_on,46,40,0
2,note_on,46,0,480
2,note_on,53,38,0
2,note_on,53,0,480
2,note_on,49,34,0
2,note_on,49,0,149
2,note_on,37,0,0
2,note_on,36,41,0
2,note_on,58,50,0
2,note_on,58,0,480
2,note_on,60,55,0
2,note_on,60,0,251
2,note_on,62,57,0
2,note_on,57,46,480
2,note_on,57,0,480
2,note_on,62,0,0
2,note_on,60,41,0
2,note_on,60,0,480
2,note_on,36,0,0
2,note_on,36,41,0
2,note_on,58,50,0
2,note_on,58,0,480
2,note_on,60,55,0
2,note_on,60,0,251
2,note_on,62,55,0
2,note_on,57,46,480
2,note_on,57,0,480
2,note_on,62,0,0
2,note_on,60,41,0
2,note_on,60,0,254
2,note_on,36,0,0
2,note_on,36,38,0
2,note_on,64,41,480
2,note_on,64,0,320
2,note_on,65,36,0
2,note_on,65,0,480
2,note_on,64,41,0
2,note_on,64,0,320
2,note_on,62,34,0
2,note_on,62,0,53
2,note_on,67,41,0
2,note_on,67,0,373
2,note_on,60,36,0
2,note_on,60,0,160
2,note_on,36,0,0
2,note_on,52,41,0
2,note_on,52,0,320
2,note_on,53,36,0
2,note_on,53,0,480
2,note_on,52,41,0
2,note_on,52,0,320
2,note_on,50,34,0
2,note_on,50,0,53
2,note_on,55,41,0
2,note_on,55,0,373
2,note_on,48,36,0
2,note_on,48,0,160
2,note_on,45,41,0
2,note_on,45,0,800
2,note_on,46,36,0
2,note_on,46,0,320
2,note_on,43,41,0
2,note_on,43,0,267
2,note_on,48,36,0
2,note_on,48,0,2400
2,note_on,48,48,0
2,note_on,41,44,0
2,note_on,48,0,198
2,note_on,49,45,0
2,note_on,49,0,92
2,note_on,41,0,0
2,note_on,50,48,0
2,note_on,41,44,0
2,note_on,50,0,869
2,note_on,49,39,0
2,note_on,49,0,389
2,note_on,41,0,0
2,note_on,50,48,0
2,note_on,46,44,0
2,note_on,50,0,438
2,note_on,52,48,0
2,note_on,46,0,106
2,note_on,45,44,0
2,note_on,52,0,457
2,note_on,55,45,0
2,note_on,55,0,480
2,note_on,45,0,0
2,note_on,45,45,0
2,note_on,45,0,309
2,note_on,48,48,0
2,note_on,41,44,0
2,note_on,48,0,198
2,note_on,49,45,0
2,note_on,49,0,92
2,note_on,41,0,0
2,note_on,50,48,0
2,note_on,41,44,0
2,note_on,50,0,869
2,note_on,52,39,0
2,note_on,52,0,389
2,note_on,41,0,0
2,note_on,53,47,0
2,note_on,53,0,438
2,note_on,55,53,0
2,note_on,55,0,64
2,note_on,53,50,0
2,note_on,53,0,106
2,note_on,52,44,0
2,note_on,52,0,60
2,note_on,57,51,0
2,note_on,57,0,457
2,note_on,55,47,0
2,note_on,55,0,126
2,note_on,50,47,0
2,note_on,50,0,438
2,note_on,55,53,0
2,note_on,55,0,64
2,note_on,50,47,0
2,note_on,56,50,106
2,note_on,50,0,187
2,note_on,50,47,0
2,note_on,50,0,213
2,note_on,56,0,0
2,note_on,48,38,0
2,note_on,57,45,0
2,note_on,57,0,213
2,note_on,48,0,0
2,note_on,53,45,0
2,note_on,57,57,0
2,note_on,57,0,331
2,note_on,59,53,0
2,note_on,59,0,11
2,note_on,62,56,0
2,note_on,62,0,131
2,note_on,60,55,0
2,note_on,60,0,160
2,note_on,59,55,0
2,note_on,59,0,160
2,note_on,57,57,0
2,note_on,57,0,240
2,note_on,59,56,0
2,note_on,59,0,97
2,note_on,53,0,0
2,note_on,52,41,0
2,note_on,55,55,0
2,note_on,55,0,171
2,note_on,57,52,0
2,note_on,57,0,240
2,note_on,55,59,0
2,note_on,55,0,240
2,note_on,57,55,0
2,note_on,57,0,80
2,note_on,59,59,0
2,note_on,59,0,217
2,note_on,60,51,0
2,note_on,60,0,91
2,note_on,52,0,0
2,note_on,50,45,0
2,note_on,53,57,0
2,note_on,53,0,325
2,note_on,55,53,0
2,note_on,55,0,28
2,note_on,59,59,0
2,note_on,59,0,149
2,note_on,57,57,0
2,note_on,57,0,160
2,note_on,55,57,0
2,note_on,55,0,160
2,note_on,50,0,0
2,note_on,43,42,0
2,note_on,53,59,0
2,note_on,53,0,191
2,note_on,55,58,0
2,note_on,55,0,78
2,note_on,43,0,0
2,note_on,48,45,0
2,note_on,53,53,0
2,note_on,53,0,155
2,note_on,52,51,0
2,note_on,52,0,240
2,note_on,50,55,0
2,note_on,50,0,240
2,note_on,52,51,0
2,note_on,52,0,240
2,note_on,48,0,0
2,note_on,50,47,0
2,note_on,50,0,113
2,note_on,48,41,0
2,note_on,48,0,155
2,note_on,41,57,0
2,note_on,41,0,360
2,note_on,43,53,0
2,note_on,46,56,120
2,note_on,43,0,10
2,note_on,44,55,150
2,note_on,46,0,10
2,note_on,43,55,150
2,note_on,44,0,10
2,note_on,41,57,150
2,note_on,43,0,10
2,note_on,43,56,230
2,note_on,41,0,10
2,note_on,43,0,230
2,note_on,39,55,0
2,note_on,51,59,0
2,note_on,51,0,388
2,note_on,39,0,0
2,note_on,48,55,0
2,note_on,60,59,0
2,note_on,60,0,56
2,note_on,48,0,0
2,note_on,46,55,0
2,note_on,58,59,0
2,note_on,58,0,473
2,note_on,46,0,0
2,note_on,39,55,0
2,note_on,51,59,0
2,note_on,51,0,120
2,note_on,39,0,0
2,note_on,44,52,0
2,note_on,51,59,0
2,note_on,51,0,198
2,note_on,53,55,0
2,note_on,53,0,240
2,note_on,51,56,0
2,note_on,51,0,240
2,note_on,53,58,0
2,note_on,53,0,240
2,note_on,55,61,0
2,note_on,55,0,240
2,note_on,56,63,0
2,note_on,56,0,166
2,note_on,43,64,0
2,note_on,44,0,49
2,note_on,58,63,0
2,note_on,43,0,360
2,note_on,44,61,0
2,note_on,44,0,71
2,note_on,58,0,0
2,note_on,48,64,0
2,note_on,46,62,160
2,note_on,48,0,10
2,note_on,44,62,150
2,note_on,46,0,10
2,note_on,43,64,150
2,note_on,44,0,10
2,note_on,44,63,230
2,note_on,43,0,10
2,note_on,44,0,230
2,note_on,41,59,0
2,note_on,53,66,0
2,note_on,53,0,99
2,note_on,41,0,0
2,note_on,39,51,0
2,note_on,51,57,0
2,note_on,51,0,127
2,note_on,39,0,0
2,note_on,37,53,0
2,note_on,49,60,0
2,note_on,49,0,424
2,note_on,37,0,0
2,note_on,43,57,0
2,note_on,55,63,0
2,note_on,55,0,64
2,note_on,43,0,0
2,note_on,37,51,0
2,note_on,49,58,0
2,note_on,49,0,85
2,note_on,37,0,0
2,note_on,36,50,0
2,note_on,48,57,0
2,note_on,48,0,373
2,note_on,36,0,0
2,note_on,60,57,0
2,note_on,60,0,293
2,note_on,29,60,0
2,note_on,41,68,0
2,note_on,60,68,480
2,note_on,48,61,0
2,note_on,48,0,198
2,note_on,60,0,0
2,note_on,61,63,0
2,note_on,49,56,0
2,note_on,49,0,92
2,note_on,61,0,0
2,note_on,62,68,0
2,note_on,50,68,0
2,note_on,41,0,389
2,note_on,29,0,0
2,note_on,29,53,480
2,note_on,41,60,0
2,note_on,41,0,389
2,note_on,50,0,0
2,note_on,62,0,0
2,note_on,29,0,0
2,note_on,34,68,0
2,note_on,46,68,0
2,note_on,64,68,438
2,note_on,52,61,0
2,note_on,46,0,64
2,note_on,34,0,0
2,note_on,34,53,0
2,note_on,46,60,0
2,note_on,46,0,106
2,note_on,52,0,0
2,note_on,64,0,0
2,note_on,34,0,0
2,note_on,33,55,0
2,note_on,45,62,0
2,note_on,57,67,457
2,note_on,45,0,480
2,note_on,33,0,0
2,note_on,33,56,0
2,note_on,45,63,0
2,note_on,45,0,309
2,note_on,33,0,0
2,note_on,57,0,0
2,note_on,29,60,0
2,note_on,41,68,0
2,note_on,48,61,480
2,note_on,60,68,0
2,note_on,60,0,198
2,note_on,48,0,0
2,note_on,61,63,0
2,note_on,49,56,0
2,note_on,49,0,92
2,note_on,61,0,0
2,note_on,62,68,0
2,note_on,50,62,0
2,note_on,50,0,869
2,note_on,62,0,0
2,note_on,65,63,0
2,note_on,53,55,0
2,note_on,53,0,389
2,note_on,29,0,0
2,note_on,41,0,0
2,note_on,65,0,0
2,note_on,46,53,0
2,note_on,46,0,438
2,note_on,58,60,0
2,note_on,58,0,106
2,note_on,60,44,0
2,note_on,60,0,60
2,note_on,48,51,0
2,note_on,48,0,126
2,note_on,55,47,0
2,note_on,55,0,438
2,note_on,48,53,0
2,note_on,48,0,106
2,note_on,54,42,0
2,note_on,54,0,187
2,note_on,48,39,0
2,note_on,48,0,213
2,note_on,46,53,0
2,note_on,46,0,438
2,note_on,58,60,0
2,note_on,62,53,64
2,note_on,62,0,233
2,note_on,64,50,0
2,note_on,64,0,106
2,note_on,58,0,0
2,note_on,60,53,0
2,note_on,57,44,0
2,note_on,60,0,217
2,note_on,62,48,0
2,note_on,62,0,60
2,note_on,60,56,0
2,note_on,60,0,217
2,note_on,62,50,0
2,note_on,62,0,240
2,note_on,64,56,0
2,note_on,64,0,240
2,note_on,65,51,0
2,note_on,65,0,126
2,note_on,57,0,0
2,note_on,58,53,0
2,note_on,55,47,0
2,note_on,58,0,318
2,note_on,60,49,0
2,note_on,60,0,120
2,note_on,64,53,0
2,note_on,64,0,160
2,note_on,62,50,0
2,note_on,62,0,160
2,note_on,60,50,0
2,note_on,60,0,64
2,note_on,55,0,0
2,note_on,58,49,0
2,note_on,48,47,0
2,note_on,58,0,233
2,note_on,60,47,0
2,note_on,60,0,106
2,note_on,48,0,0
2,note_on,58,46,0
2,note_on,53,46,0
2,note_on,58,0,240
2,note_on,57,41,0
2,note_on,57,0,187
2,note_on,55,45,0
2,note_on,55,0,240
2,note_on,57,40,0
2,note_on,57,0,99
2,note_on,53,0,0
2,note_on,55,40,0
2,note_on,55,0,240
2,note_on,53,40,0
2,note_on,53,0,213
2,note_on,75,47,0
2,note_on,65,42,438
2,note_on,75,0,106
2,note_on,75,44,0
2,note_on,75,0,60
2,note_on,74,51,0
2,note_on,65,0,457
2,note_on,65,42,0
2,note_on,74,0,126
2,note_on,70,47,0
2,note_on,65,0,438
2,note_on,65,42,0
2,note_on,70,0,106
2,note_on,70,48,0
2,note_on,70,0,240
2,note_on,69,42,0
2,note_on,69,0,187
2,note_on,67,46,0
2,note_on,67,0,240
2,note_on,69,41,0
2,note_on,69,0,240
2,note_on,65,0,0
2,note_on,67,41,0
2,note_on,67,0,107
2,note_on,65,38,0
2,note_on,65,0,213
2,note_on,63,44,0
2,note_on,63,0,120
2,note_on,62,39,0
2,note_on,62,0,240
2,note_on,60,42,0
2,note_on,60,0,240
2,note_on,62,38,0
2,note_on,62,0,240
2,note_on,60,38,0
2,note_on,60,0,107
2,note_on,58,35,0
2,note_on,58,0,213
2,note_on,58,44,0
2,note_on,58,0,180
2,note_on,57,39,0
2,note_on,57,0,240
2,note_on,55,41,0
2,note_on,55,0,240
2,note_on,57,37,0
2,note_on,57,0,240
2,note_on,55,37,0
2,note_on,55,0,107
2,note_on,53,34,0
2,note_on,53,0,213
2,note_on,51,41,0
2,note_on,51,0,180
2,note_on,50,37,0
2,note_on,50,0,240
2,note_on,48,40,0
2,note_on,48,0,240
2,note_on,50,36,0
2,note_on,50,0,240
2,note_on,48,36,0
2,note_on,48,0,107
2,note_on,46,33,0
2,note_on,46,0,213
2,note_on,46,40,0
2,note_on,46,0,240
2,note_on,45,36,0
2,note_on,45,0,187
2,note_on,43,39,0
2,note_on,43,0,240
2,note_on,45,35,0
2,note_on,45,0,240
2,note_on,43,35,0
2,note_on,43,0,107
2,note_on,41,31,0
2,note_on,41,0,213
2,note_on,41,34,0
2,note_on,41,0,480
2,note_on,29,20,0
2,note_on,29,0,240
2,note_on,29,19,240
2,note_on,29,0,240
2,note_on,29,19,240
2,note_on,29,0,240
