Track,Message Type,Note,Velocity,Time
1,note_on,72,56,0
1,note_on,69,50,0
1,note_on,69,0,240
1,note_on,72,0,0
1,note_on,72,60,0
1,note_on,69,54,0
1,note_on,69,0,240
1,note_on,72,0,0
1,note_on,74,37,0
1,note_on,65,33,0
1,note_on,69,33,0
1,note_on,69,0,960
1,note_on,65,0,0
1,note_on,74,0,0
1,note_on,69,51,0
1,note_on,72,57,0
1,note_on,72,0,240
1,note_on,69,0,0
1,note_on,72,59,0
1,note_on,69,53,0
1,note_on,69,0,240
1,note_on,72,0,0
1,note_on,62,33,0
1,note_on,71,37,0
1,note_on,68,33,0
1,note_on,68,0,960
1,note_on,71,0,0
1,note_on,62,0,0
1,note_on,69,56,0
1,note_on,66,50,0
1,note_on,66,0,240
1,note_on,69,0,0
1,note_on,66,48,0
1,note_on,69,54,0
1,note_on,69,0,240
1,note_on,66,0,0
1,note_on,72,52,0
1,note_on,60,47,0
1,note_on,60,0,480
1,note_on,72,0,0
1,note_on,66,43,0
1,note_on,69,48,0
1,note_on,69,0,480
1,note_on,66,0,0
1,note_on,64,39,0
1,note_on,68,45,0
1,note_on,68,0,480
1,note_on,64,0,0
1,note_on,59,33,0
1,note_on,68,33,0
1,note_on,71,37,0
1,note_on,71,0,960
1,note_on,68,0,0
1,note_on,59,0,0
1,note_on,72,55,0
1,note_on,69,49,0
1,note_on,69,0,240
1,note_on,72,0,0
1,note_on,69,52,0
1,note_on,72,58,0
1,note_on,72,0,240
1,note_on,69,0,0
1,note_on,76,53,0
1,note_on,64,47,0
1,note_on,73,47,0
1,note_on,73,0,960
1,note_on,64,0,0
1,note_on,76,0,0
1,note_on,74,56,0
1,note_on,77,63,0
1,note_on,77,0,240
1,note_on,74,0,0
1,note_on,77,68,0
1,note_on,74,60,0
1,note_on,74,0,240
1,note_on,77,0,0
1,note_on,69,59,0
1,note_on,81,67,0
1,note_on,78,59,0
1,note_on,78,0,960
1,note_on,81,0,0
1,note_on,69,0,0
1,note_on,67,61,0
1,note_on,72,61,0
1,note_on,79,69,0
1,note_on,79,0,240
1,note_on,67,0,0
1,note_on,67,61,0
1,note_on,79,69,0
1,note_on,79,0,240
1,note_on,67,0,0
1,note_on,76,69,0
1,note_on,68,61,0
1,note_on,68,0,480
1,note_on,76,0,0
1,note_on,72,0,0
1,note_on,72,59,0
1,note_on,69,53,0
1,note_on,69,0,480
1,note_on,72,0,0
1,note_on,71,55,0
1,note_on,68,49,0
1,note_on,64,49,0
1,note_on,76,55,0
1,note_on,68,0,480
1,note_on,71,0,0
1,note_on,69,52,0
1,note_on,69,0,960
1,note_on,64,0,0
1,note_on,76,0,0
1,note_on,59,35,0
1,note_on,56,35,0
1,note_on,64,40,0
1,note_on,52,40,0
1,note_on,56,0,480
1,note_on,59,0,0
1,note_on,57,34,0
1,note_on,57,0,960
1,note_on,64,0,0
1,note_on,52,0,0
1,note_on,69,38,0
1,note_on,72,44,0
1,note_on,72,0,240
1,note_on,69,0,0
1,note_on,69,38,0
1,note_on,72,44,0
1,note_on,72,0,240
1,note_on,69,0,0
1,note_on,71,42,0
1,note_on,65,42,0
1,note_on,74,47,0
1,note_on,74,0,240
1,note_on,65,0,0
1,note_on,71,0,0
1,note_on,69,38,0
1,note_on,72,44,0
1,note_on,72,0,240
1,note_on,69,0,0
1,note_on,65,38,0
1,note_on,71,38,0
1,note_on,74,38,0
1,note_on,74,0,480
1,note_on,71,0,0
1,note_on,65,0,0
1,note_on,72,47,0
1,note_on,69,42,0
1,note_on,69,0,240
1,note_on,72,0,0
1,note_on,69,42,0
1,note_on,72,47,0
1,note_on,72,0,240
1,note_on,69,0,0
1,note_on,71,44,0
1,note_on,62,39,0
1,note_on,68,39,0
1,note_on,68,0,240
1,note_on,62,0,0
1,note_on,71,0,0
1,note_on,65,38,0
1,note_on,69,38,0
1,note_on,69,0,240
1,note_on,65,0,0
1,note_on,68,37,0
1,note_on,71,37,0
1,note_on,62,37,0
1,note_on,62,0,480
1,note_on,71,0,0
1,note_on,68,0,0
1,note_on,69,45,0
1,note_on,66,39,0
1,note_on,66,0,240
1,note_on,69,0,0
1,note_on,69,46,0
1,note_on,66,40,0
1,note_on,66,0,240
1,note_on,60,46,0
1,note_on,72,51,0
1,note_on,72,0,240
1,note_on,60,0,0
1,note_on,69,0,0
1,note_on,71,48,0
1,note_on,68,43,0
1,note_on,68,0,240
1,note_on,71,0,0
1,note_on,60,43,0
1,note_on,72,48,0
1,note_on,69,43,0
1,note_on,69,0,240
1,note_on,72,0,0
1,note_on,60,0,0
1,note_on,69,46,0
1,note_on,66,40,0
1,note_on,66,0,240
1,note_on,69,0,0
1,note_on,64,39,0
1,note_on,68,45,0
1,note_on,68,0,480
1,note_on,64,0,0
1,note_on,68,34,0
1,note_on,71,38,0
1,note_on,59,34,0
1,note_on,59,0,960
1,note_on,71,0,0
1,note_on,68,0,0
1,note_on,72,58,0
1,note_on,69,52,0
1,note_on,69,0,240
1,note_on,72,0,0
1,note_on,72,58,0
1,note_on,69,52,0
1,note_on,69,0,240
1,note_on,72,0,0
1,note_on,76,58,0
1,note_on,73,52,0
1,note_on,64,52,0
1,note_on,64,0,240
1,note_on,73,0,0
1,note_on,76,0,0
1,note_on,71,52,0
1,note_on,65,52,0
1,note_on,74,58,0
1,note_on,74,0,240
1,note_on,65,0,0
1,note_on,71,0,0
1,note_on,76,58,0
1,note_on,64,52,0
1,note_on,73,58,0
1,note_on,64,0,240
1,note_on,79,61,0
1,note_on,69,55,0
1,note_on,69,0,240
1,note_on,76,0,0
1,note_on,73,0,0
1,note_on,79,0,0
1,note_on,74,52,0
1,note_on,77,58,0
1,note_on,69,52,0
1,note_on,69,0,240
1,note_on,77,0,0
1,note_on,74,0,0
1,note_on,74,52,0
1,note_on,69,52,0
1,note_on,77,58,0
1,note_on,77,0,240
1,note_on,69,0,0
1,note_on,74,0,0
1,note_on,81,63,0
1,note_on,78,56,0
1,note_on,72,56,0
1,note_on,72,0,240
1,note_on,78,0,0
1,note_on,81,0,0
1,note_on,77,60,0
1,note_on,80,60,0
1,note_on,71,54,0
1,note_on,71,0,240
1,note_on,80,0,0
1,note_on,77,0,0
1,note_on,81,66,0
1,note_on,72,58,0
1,note_on,78,58,0
1,note_on,72,0,240
1,note_on,84,67,0
1,note_on,84,0,240
1,note_on,78,0,0
1,note_on,81,0,0
1,note_on,79,68,0
1,note_on,72,60,0
1,note_on,67,60,0
1,note_on,67,0,240
1,note_on,72,0,0
1,note_on,79,0,0
1,note_on,72,61,0
1,note_on,67,61,0
1,note_on,79,61,0
1,note_on,79,0,240
1,note_on,67,0,0
1,note_on,68,60,0
1,note_on,77,68,0
1,note_on,77,0,240
1,note_on,76,64,0
1,note_on,76,0,240
1,note_on,68,0,0
1,note_on,72,0,0
1,note_on,74,63,0
1,note_on,69,56,0
1,note_on,74,0,240
1,note_on,72,57,0
1,note_on,72,0,240
1,note_on,69,0,0
1,note_on,71,56,0
1,note_on,64,50,0
1,note_on,68,50,0
1,note_on,76,56,0
1,note_on,68,0,480
1,note_on,71,0,0
1,note_on,69,55,0
1,note_on,69,0,960
1,note_on,64,0,0
1,note_on,76,0,0
1,note_on,59,40,0
1,note_on,56,36,0
1,note_on,64,40,0
1,note_on,52,36,0
1,note_on,56,0,480
1,note_on,59,0,0
1,note_on,57,40,0
1,note_on,57,0,960
1,note_on,64,0,0
1,note_on,52,0,0
1,note_on,76,45,0
1,note_on,76,0,120
1,note_on,88,50,0
1,note_on,88,0,120
1,note_on,86,51,0
1,note_on,86,0,120
1,note_on,74,47,0
1,note_on,74,0,120
1,note_on,77,48,0
1,note_on,77,0,120
1,note_on,89,50,0
1,note_on,89,0,120
1,note_on,88,52,0
1,note_on,88,0,120
1,note_on,76,48,0
1,note_on,76,0,120
1,note_on,74,49,0
1,note_on,74,0,120
1,note_on,86,54,0
1,note_on,86,0,120
1,note_on,84,51,0
1,note_on,84,0,120
1,note_on,72,51,0
1,note_on,72,0,120
1,note_on,71,55,0
1,note_on,71,0,120
1,note_on,83,56,0
1,note_on,83,0,120
1,note_on,86,52,0
1,note_on,86,0,120
1,note_on,74,54,0
1,note_on,74,0,120
1,note_on,72,51,0
1,note_on,72,0,120
1,note_on,84,51,0
1,note_on,84,0,120
1,note_on,83,56,0
1,note_on,83,0,120
1,note_on,74,49,0
1,note_on,74,0,120
1,note_on,69,52,0
1,note_on,69,0,120
1,note_on,81,48,0
1,note_on,81,0,600
1,note_on,69,49,0
1,note_on,81,44,120
1,note_on,81,0,600
1,note_on,69,0,0
1,note_on,67,53,0
1,note_on,67,0,120
1,note_on,79,51,0
1,note_on,79,0,120
1,note_on,78,54,0
1,note_on,78,0,120
1,note_on,66,50,0
1,note_on,66,0,120
1,note_on,71,51,0
1,note_on,71,0,120
1,note_on,83,54,0
1,note_on,83,0,120
1,note_on,81,57,0
1,note_on,81,0,120
1,note_on,69,52,0
1,note_on,69,0,120
1,note_on,67,52,0
1,note_on,67,0,120
1,note_on,79,55,0
1,note_on,79,0,120
1,note_on,78,59,0
1,note_on,78,0,120
1,note_on,66,53,0
1,note_on,66,0,120
1,note_on,69,54,0
1,note_on,69,0,120
1,note_on,81,56,0
1,note_on,81,0,120
1,note_on,84,59,0
1,note_on,84,0,120
1,note_on,72,55,0
1,note_on,72,0,120
1,note_on,71,56,0
1,note_on,71,0,120
1,note_on,83,60,0
1,note_on,83,0,120
1,note_on,86,61,0
1,note_on,86,0,120
1,note_on,74,56,0
1,note_on,74,0,120
1,note_on,77,57,0
1,note_on,77,0,120
1,note_on,89,64,0
1,note_on,89,0,120
1,note_on,88,65,0
1,note_on,88,0,120
1,note_on,76,58,0
1,note_on,76,0,120
1,note_on,74,58,0
1,note_on,74,0,120
1,note_on,86,61,0
1,note_on,86,0,120
1,note_on,89,68,0
1,note_on,89,0,120
1,note_on,77,60,0
1,note_on,77,0,120
1,note_on,76,60,0
1,note_on,76,0,120
1,note_on,88,65,0
1,note_on,88,0,120
1,note_on,86,69,0
1,note_on,86,0,120
1,note_on,74,61,0
1,note_on,74,0,120
1,note_on,77,63,0
1,note_on,77,0,120
1,note_on,89,66,0
1,note_on,89,0,120
1,note_on,88,67,0
1,note_on,88,0,120
1,note_on,76,59,0
1,note_on,76,0,120
1,note_on,74,59,0
1,note_on,74,0,120
1,note_on,86,60,0
1,note_on,86,0,120
1,note_on,84,59,0
1,note_on,84,0,120
1,note_on,72,54,0
1,note_on,72,0,120
1,note_on,71,54,0
1,note_on,71,0,120
1,note_on,83,59,0
1,note_on,83,0,120
1,note_on,86,60,0
1,note_on,86,0,120
1,note_on,74,54,0
1,note_on,74,0,120
1,note_on,72,50,0
1,note_on,72,0,120
1,note_on,84,51,0
1,note_on,84,0,120
1,note_on,83,54,0
1,note_on,83,0,120
1,note_on,74,46,0
1,note_on,74,0,120
1,note_on,69,50,0
1,note_on,69,0,120
1,note_on,81,46,0
1,note_on,81,0,600
1,note_on,69,49,0
1,note_on,81,42,120
1,note_on,81,0,600
1,note_on,69,0,0
1,note_on,67,49,0
1,note_on,67,0,120
1,note_on,79,57,0
1,note_on,79,0,120
1,note_on,78,57,0
1,note_on,78,0,120
1,note_on,66,53,0
1,note_on,66,0,120
1,note_on,71,53,0
1,note_on,71,0,120
1,note_on,83,58,0
1,note_on,83,0,120
1,note_on,81,63,0
1,note_on,81,0,120
1,note_on,69,57,0
1,note_on,69,0,120
1,note_on,67,57,0
1,note_on,67,0,120
1,note_on,79,67,0
1,note_on,79,0,120
1,note_on,78,67,0
1,note_on,78,0,120
1,note_on,66,58,0
1,note_on,66,0,120
1,note_on,69,58,0
1,note_on,69,0,120
1,note_on,81,65,0
1,note_on,81,0,120
1,note_on,84,71,0
1,note_on,84,0,120
1,note_on,72,68,0
1,note_on,72,0,120
1,note_on,71,68,0
1,note_on,71,0,120
1,note_on,83,70,0
1,note_on,83,0,120
1,note_on,86,75,0
1,note_on,86,0,120
1,note_on,74,72,0
1,note_on,74,0,120
1,note_on,77,72,0
1,note_on,77,0,120
1,note_on,89,75,0
1,note_on,89,0,120
1,note_on,88,79,0
1,note_on,88,0,120
1,note_on,76,74,0
1,note_on,76,0,120
1,note_on,79,74,0
1,note_on,79,0,120
1,note_on,91,76,0
1,note_on,91,0,120
1,note_on,89,79,0
1,note_on,89,0,120
1,note_on,77,74,0
1,note_on,77,0,120
1,note_on,76,74,0
1,note_on,76,0,120
1,note_on,88,74,0
1,note_on,88,0,120
1,note_on,91,79,0
1,note_on,91,0,120
1,note_on,79,74,0
1,note_on,79,0,120
1,note_on,77,74,0
1,note_on,77,0,120
1,note_on,89,75,0
1,note_on,89,0,120
1,note_on,88,80,0
1,note_on,88,0,120
1,note_on,76,76,0
1,note_on,76,0,120
1,note_on,81,75,0
1,note_on,81,0,120
1,note_on,93,73,0
1,note_on,93,0,120
1,note_on,89,80,0
1,note_on,89,0,120
1,note_on,77,74,0
1,note_on,77,0,120
1,note_on,79,74,0
1,note_on,79,0,120
1,note_on,91,72,0
1,note_on,91,0,120
1,note_on,88,78,0
1,note_on,88,0,120
1,note_on,76,69,0
1,note_on,76,0,120
1,note_on,77,69,0
1,note_on,77,0,120
1,note_on,89,72,0
1,note_on,89,0,120
1,note_on,86,71,0
1,note_on,86,0,120
1,note_on,74,66,0
1,note_on,74,0,120
1,note_on,76,64,0
1,note_on,76,0,120
1,note_on,88,60,0
1,note_on,88,0,120
1,note_on,85,58,0
1,note_on,85,0,120
1,note_on,73,56,0
1,note_on,73,0,120
1,note_on,76,55,0
1,note_on,76,0,120
1,note_on,88,57,0
1,note_on,88,0,120
1,note_on,86,60,0
1,note_on,86,0,120
1,note_on,74,52,0
1,note_on,74,0,120
1,note_on,72,51,0
1,note_on,72,0,120
1,note_on,84,56,0
1,note_on,84,0,120
1,note_on,83,55,0
1,note_on,83,0,120
1,note_on,71,48,0
1,note_on,71,0,120
1,note_on,74,49,0
1,note_on,74,0,120
1,note_on,86,53,0
1,note_on,86,0,120
1,note_on,84,53,0
1,note_on,84,0,120
1,note_on,72,48,0
1,note_on,72,0,120
1,note_on,71,48,0
1,note_on,71,0,120
1,note_on,83,48,0
1,note_on,83,0,120
1,note_on,86,48,0
1,note_on,74,48,120
1,note_on,74,0,360
1,note_on,86,0,0
1,note_on,72,42,0
1,note_on,72,0,120
1,note_on,84,40,0
1,note_on,84,0,360
1,note_on,83,43,0
1,note_on,71,37,120
1,note_on,71,0,360
1,note_on,83,0,0
1,note_on,69,38,0
1,note_on,81,35,120
1,note_on,81,0,1080
1,note_on,69,0,0
1,note_on,69,35,0
1,note_on,81,33,120
1,note_on,81,0,1320
1,note_on,69,0,0
1,note_on,57,54,0
1,note_on,61,54,0
1,note_on,69,60,0
1,note_on,62,37,400
1,note_on,69,0,80
1,note_on,61,0,0
1,note_on,68,55,0
1,note_on,68,0,120
1,note_on,66,52,0
1,note_on,66,0,840
1,note_on,57,0,0
1,note_on,62,0,0
1,note_on,57,52,0
1,note_on,61,52,0
1,note_on,69,58,0
1,note_on,59,30,400
1,note_on,69,0,80
1,note_on,57,0,0
1,note_on,61,0,0
1,note_on,64,53,0
1,note_on,64,0,120
1,note_on,62,48,0
1,note_on,62,0,840
1,note_on,59,0,0
1,note_on,57,47,0
1,note_on,66,52,0
1,note_on,66,0,480
1,note_on,61,50,0
1,note_on,61,0,480
1,note_on,66,44,0
1,note_on,66,0,480
1,note_on,57,0,0
1,note_on,56,35,0
1,note_on,64,39,0
1,note_on,64,0,480
1,note_on,59,38,0
1,note_on,59,0,960
1,note_on,56,0,0
1,note_on,69,35,0
1,note_on,81,48,0
1,note_on,73,35,0
1,note_on,81,0,240
1,note_on,81,48,0
1,note_on,80,43,120
1,note_on,80,0,120
1,note_on,69,0,0
1,note_on,73,0,0
1,note_on,81,0,0
1,note_on,78,37,0
1,note_on,74,25,0
1,note_on,69,25,0
1,note_on,69,0,960
1,note_on,74,0,0
1,note_on,78,0,0
1,note_on,73,32,0
1,note_on,69,32,0
1,note_on,81,44,0
1,note_on,81,0,240
1,note_on,81,44,0
1,note_on,76,40,120
1,note_on,76,0,120
1,note_on,73,0,0
1,note_on,69,0,0
1,note_on,81,0,0
1,note_on,71,25,0
1,note_on,74,35,0
1,note_on,74,0,960
1,note_on,71,0,0
1,note_on,69,42,0
1,note_on,78,47,0
1,note_on,78,0,240
1,note_on,78,47,0
1,note_on,78,0,240
1,note_on,73,39,0
1,note_on,73,0,480
1,note_on,78,39,0
1,note_on,78,0,480
1,note_on,69,0,0
1,note_on,68,33,0
1,note_on,76,37,0
1,note_on,76,0,480
1,note_on,71,32,0
1,note_on,71,0,960
1,note_on,68,0,0
1,note_on,57,46,240
1,note_on,66,49,0
1,note_on,66,0,240
1,note_on,61,59,0
1,note_on,61,0,240
1,note_on,68,51,0
1,note_on,68,0,240
1,note_on,61,50,0
1,note_on,61,0,240
1,note_on,66,46,0
1,note_on,66,0,240
1,note_on,57,0,0
1,note_on,56,53,240
1,note_on,64,64,0
1,note_on,64,0,180
1,note_on,56,0,0
1,note_on,68,58,300
1,note_on,76,69,0
1,note_on,76,0,180
1,note_on,68,0,0
1,note_on,88,78,300
1,note_on,76,66,0
1,note_on,80,66,0
1,note_on,80,0,240
1,note_on,76,0,0
1,note_on,88,0,0
1,note_on,77,68,0
1,note_on,83,80,0
1,note_on,83,0,240
1,note_on,77,0,0
1,note_on,86,73,0
1,note_on,74,61,0
1,note_on,74,0,240
1,note_on,86,0,0
1,note_on,77,60,0
1,note_on,81,72,0
1,note_on,81,0,240
1,note_on,77,0,0
1,note_on,84,70,0
1,note_on,72,58,0
1,note_on,72,0,240
1,note_on,84,0,0
1,note_on,79,77,0
1,note_on,74,65,0
1,note_on,74,0,240
1,note_on,79,0,0
1,note_on,83,65,0
1,note_on,71,54,0
1,note_on,71,0,240
1,note_on,83,0,0
1,note_on,77,76,0
1,note_on,72,65,0
1,note_on,77,0,240
1,note_on,81,63,0
1,note_on,81,0,240
1,note_on,72,0,0
1,note_on,74,59,0
1,note_on,79,67,0
1,note_on,79,0,240
1,note_on,74,0,0
1,note_on,77,61,0
1,note_on,72,54,0
1,note_on,72,0,240
1,note_on,77,0,0
1,note_on,76,59,0
1,note_on,71,53,0
1,note_on,71,0,240
1,note_on,76,0,0
1,note_on,75,55,0
1,note_on,69,50,0
1,note_on,69,0,240
1,note_on,75,0,0
1,note_on,68,47,0
1,note_on,76,52,0
1,note_on,76,0,240
1,note_on,68,0,0
1,note_on,79,57,0
1,note_on,73,57,0
1,note_on,73,0,240
1,note_on,79,0,0
1,note_on,72,50,0
1,note_on,78,55,0
1,note_on,78,0,240
1,note_on,72,0,0
1,note_on,71,47,0
1,note_on,77,52,0
1,note_on,77,0,240
1,note_on,71,0,0
1,note_on,70,44,0
1,note_on,76,49,0
1,note_on,76,0,240
1,note_on,70,0,0
1,note_on,69,46,0
1,note_on,75,46,0
1,note_on,75,0,240
1,note_on,69,0,0
1,note_on,74,44,0
1,note_on,68,38,0
1,note_on,68,0,240
1,note_on,74,0,0
1,note_on,73,42,0
1,note_on,67,37,0
1,note_on,67,0,240
1,note_on,73,0,0
1,note_on,74,44,0
1,note_on,66,38,0
1,note_on,66,0,240
1,note_on,74,0,0
1,note_on,65,37,0
1,note_on,71,42,0
1,note_on,71,0,240
1,note_on,65,0,0
1,note_on,72,44,0
1,note_on,64,38,0
1,note_on,64,0,240
1,note_on,72,0,0
1,note_on,67,44,0
1,note_on,73,49,0
1,note_on,73,0,240
1,note_on,67,0,0
1,note_on,66,47,0
1,note_on,74,52,0
1,note_on,74,0,240
1,note_on,66,0,0
1,note_on,65,40,0
1,note_on,71,46,0
1,note_on,71,0,240
1,note_on,65,0,0
1,note_on,64,36,0
1,note_on,72,40,0
1,note_on,72,0,240
1,note_on,64,0,0
1,note_on,73,34,0
1,note_on,67,30,0
1,note_on,67,0,240
1,note_on,73,0,0
1,note_on,74,34,0
1,note_on,66,30,0
1,note_on,66,0,240
1,note_on,74,0,0
1,note_on,71,31,0
1,note_on,65,28,0
1,note_on,65,0,240
1,note_on,71,0,0
1,note_on,72,45,0
1,note_on,64,39,0
1,note_on,69,45,0
1,note_on,69,0,240
1,note_on,64,0,0
1,note_on,72,0,0
1,note_on,72,48,0
1,note_on,69,43,0
1,note_on,69,0,240
1,note_on,72,0,0
1,note_on,74,33,0
1,note_on,65,29,0
1,note_on,69,29,0
1,note_on,69,0,960
1,note_on,65,0,0
1,note_on,74,0,0
1,note_on,72,46,0
1,note_on,69,40,0
1,note_on,69,0,240
1,note_on,72,0,0
1,note_on,72,47,0
1,note_on,69,42,0
1,note_on,69,0,240
1,note_on,72,0,0
1,note_on,68,29,0
1,note_on,62,33,0
1,note_on,71,33,0
1,note_on,71,0,960
1,note_on,62,0,0
1,note_on,68,0,0
1,note_on,66,39,0
1,note_on,69,45,0
1,note_on,69,0,240
1,note_on,66,0,0
1,note_on,66,37,0
1,note_on,69,43,0
1,note_on,69,0,240
1,note_on,66,0,0
1,note_on,60,37,0
1,note_on,72,42,0
1,note_on,72,0,480
1,note_on,60,0,0
1,note_on,69,37,0
1,note_on,66,33,0
1,note_on,66,0,480
1,note_on,69,0,0
1,note_on,68,35,0
1,note_on,64,31,0
1,note_on,64,0,480
1,note_on,68,0,0
1,note_on,68,26,0
1,note_on,59,26,0
1,note_on,71,29,0
1,note_on,71,0,960
1,note_on,59,0,0
1,note_on,68,0,0
1,note_on,69,44,0
1,note_on,72,49,0
1,note_on,72,0,240
1,note_on,69,0,0
1,note_on,72,52,0
1,note_on,69,47,0
1,note_on,69,0,240
1,note_on,72,0,0
1,note_on,73,42,0
1,note_on,64,42,0
1,note_on,76,47,0
1,note_on,76,0,960
1,note_on,64,0,0
1,note_on,73,0,0
1,note_on,74,50,0
1,note_on,77,56,0
1,note_on,77,0,240
1,note_on,74,0,0
1,note_on,74,54,0
1,note_on,77,60,0
1,note_on,77,0,240
1,note_on,74,0,0
1,note_on,78,53,0
1,note_on,69,53,0
1,note_on,81,59,0
1,note_on,81,0,960
1,note_on,69,0,0
1,note_on,78,0,0
1,note_on,79,61,0
1,note_on,72,55,0
1,note_on,67,55,0
1,note_on,67,0,240
1,note_on,79,0,0
1,note_on,67,55,0
1,note_on,79,61,0
1,note_on,79,0,240
1,note_on,67,0,0
1,note_on,76,61,0
1,note_on,68,55,0
1,note_on,68,0,480
1,note_on,76,0,0
1,note_on,72,0,0
1,note_on,69,47,0
1,note_on,72,53,0
1,note_on,72,0,480
1,note_on,69,0,0
1,note_on,64,44,0
1,note_on,68,44,0
1,note_on,71,49,0
1,note_on,76,49,0
1,note_on,71,0,480
1,note_on,68,0,0
1,note_on,69,52,0
1,note_on,69,0,960
1,note_on,64,0,0
1,note_on,76,0,0
1,note_on,59,35,0
1,note_on,52,31,0
1,note_on,56,31,0
1,note_on,64,35,0
1,note_on,56,0,480
1,note_on,59,0,0
1,note_on,57,30,0
1,note_on,57,0,960
1,note_on,52,0,0
1,note_on,64,0,0
1,note_on,72,38,0
1,note_on,69,34,0
1,note_on,69,0,240
1,note_on,72,0,0
1,note_on,69,34,0
1,note_on,72,38,0
1,note_on,72,0,240
1,note_on,69,0,0
1,note_on,71,37,0
1,note_on,74,42,0
1,note_on,65,37,0
1,note_on,65,0,240
1,note_on,74,0,0
1,note_on,71,0,0
1,note_on,72,38,0
1,note_on,69,34,0
1,note_on,69,0,240
1,note_on,72,0,0
1,note_on,71,36,0
1,note_on,65,36,0
1,note_on,74,40,0
1,note_on,74,0,480
1,note_on,65,0,0
1,note_on,71,0,0
1,note_on,69,37,0
1,note_on,72,42,0
1,note_on,72,0,240
1,note_on,69,0,0
1,note_on,72,35,0
1,note_on,69,35,0
1,note_on,69,0,240
1,note_on,72,0,0
1,note_on,68,40,0
1,note_on,62,40,0
1,note_on,71,40,0
1,note_on,71,0,240
1,note_on,62,0,0
1,note_on,68,0,0
1,note_on,65,37,0
1,note_on,69,37,0
1,note_on,69,0,240
1,note_on,65,0,0
1,note_on,62,36,0
1,note_on,71,36,0
1,note_on,68,36,0
1,note_on,68,0,480
1,note_on,71,0,0
1,note_on,62,0,0
1,note_on,66,35,0
1,note_on,69,39,0
1,note_on,69,0,240
1,note_on,66,0,0
1,note_on,66,36,0
1,note_on,69,40,0
1,note_on,66,0,240
1,note_on,60,40,0
1,note_on,72,46,0
1,note_on,72,0,240
1,note_on,60,0,0
1,note_on,69,0,0
1,note_on,68,37,0
1,note_on,71,43,0
1,note_on,71,0,240
1,note_on,68,0,0
1,note_on,69,37,0
1,note_on,60,37,0
1,note_on,72,43,0
1,note_on,72,0,240
1,note_on,60,0,0
1,note_on,69,0,0
1,note_on,66,36,0
1,note_on,69,40,0
1,note_on,69,0,240
1,note_on,66,0,0
1,note_on,64,35,0
1,note_on,68,39,0
1,note_on,68,0,480
1,note_on,64,0,0
1,note_on,59,30,0
1,note_on,71,34,0
1,note_on,68,30,0
1,note_on,68,0,960
1,note_on,71,0,0
1,note_on,59,0,0
1,note_on,69,40,0
1,note_on,72,46,0
1,note_on,72,0,240
1,note_on,69,0,0
1,note_on,69,40,0
1,note_on,72,46,0
1,note_on,72,0,240
1,note_on,69,0,0
1,note_on,67,47,0
1,note_on,73,47,0
1,note_on,76,53,0
1,note_on,76,0,480
1,note_on,73,0,0
1,note_on,67,0,0
1,note_on,71,53,0
1,note_on,77,59,0
1,note_on,65,53,0
1,note_on,65,0,480
1,note_on,77,0,0
1,note_on,71,0,0
1,note_on,79,72,0
1,note_on,73,64,0
1,note_on,73,0,1440
1,note_on,79,0,0
1,note_on,77,56,0
1,note_on,74,50,0
1,note_on,74,0,240
1,note_on,77,0,0
1,note_on,74,55,0
1,note_on,77,61,0
1,note_on,77,0,240
1,note_on,74,0,0
1,note_on,78,63,0
1,note_on,81,70,0
1,note_on,72,70,0
1,note_on,72,0,240
1,note_on,81,0,0
1,note_on,78,0,0
1,note_on,79,72,0
1,note_on,70,57,0
1,note_on,70,0,240
1,note_on,79,0,0
1,note_on,76,65,0
1,note_on,73,65,0
1,note_on,82,72,0
1,note_on,82,0,240
1,note_on,73,0,0
1,note_on,76,0,0
1,note_on,69,64,0
1,note_on,81,71,0
1,note_on,78,64,0
1,note_on,78,0,240
1,note_on,81,0,0
1,note_on,69,0,0
1,note_on,72,73,0
1,note_on,84,81,0
1,note_on,78,73,0
1,note_on,78,0,1440
1,note_on,84,0,0
1,note_on,72,0,0
1,note_on,72,54,0
1,note_on,67,54,0
1,note_on,79,60,0
1,note_on,79,0,240
1,note_on,79,60,0
1,note_on,79,0,240
1,note_on,67,0,0
1,note_on,77,56,0
1,note_on,68,56,0
1,note_on,77,0,240
1,note_on,76,54,0
1,note_on,76,0,240
1,note_on,68,0,0
1,note_on,72,0,0
1,note_on,74,54,0
1,note_on,69,54,0
1,note_on,74,0,240
1,note_on,72,50,0
1,note_on,72,0,240
1,note_on,69,0,0
1,note_on,68,45,0
1,note_on,76,50,0
1,note_on,64,45,0
1,note_on,71,50,0
1,note_on,71,0,480
1,note_on,68,0,0
1,note_on,69,49,0
1,note_on,69,0,960
1,note_on,64,0,0
1,note_on,76,0,0
1,note_on,56,32,0
1,note_on,64,36,0
1,note_on,59,36,0
1,note_on,52,32,0
1,note_on,59,0,960
1,note_on,56,0,0
1,note_on,64,0,0
1,note_on,57,29,0
1,note_on,57,0,960
1,note_on,52,0,0
2,note_on,33,43,0
2,note_on,33,0,104
2,note_on,45,45,0
2,note_on,45,0,160
2,note_on,52,48,0
2,note_on,52,0,160
2,note_on,45,31,0
2,note_on,50,35,0
2,note_on,50,0,840
2,note_on,45,0,0
2,note_on,33,40,0
2,note_on,33,0,68
2,note_on,45,46,0
2,note_on,45,0,160
2,note_on,52,49,0
2,note_on,52,0,160
2,note_on,45,29,0
2,note_on,53,33,0
2,note_on,53,0,678
2,note_on,45,0,0
2,note_on,33,42,0
2,note_on,33,0,96
2,note_on,45,42,0
2,note_on,45,0,160
2,note_on,48,42,0
2,note_on,48,0,160
2,note_on,45,32,0
2,note_on,51,36,0
2,note_on,51,0,713
2,note_on,45,0,0
2,note_on,40,33,0
2,note_on,40,0,40
2,note_on,47,30,0
2,note_on,47,0,160
2,note_on,52,29,0
2,note_on,40,28,160
2,note_on,40,0,960
2,note_on,52,0,0
2,note_on,33,42,0
2,note_on,33,0,40
2,note_on,45,46,0
2,note_on,45,0,160
2,note_on,52,50,0
2,note_on,52,0,160
2,note_on,45,40,0
2,note_on,57,46,0
2,note_on,57,0,784
2,note_on,45,0,0
2,note_on,38,48,0
2,note_on,38,0,54
2,note_on,50,51,0
2,note_on,50,0,160
2,note_on,57,54,0
2,note_on,57,0,160
2,note_on,51,46,0
2,note_on,60,51,0
2,note_on,60,0,847
2,note_on,51,0,0
2,note_on,40,49,0
2,note_on,40,0,40
2,note_on,52,49,0
2,note_on,52,0,160
2,note_on,55,49,0
2,note_on,55,0,160
2,note_on,60,46,0
2,note_on,52,40,0
2,note_on,52,0,396
2,note_on,53,39,0
2,note_on,60,0,113
2,note_on,57,26,0
2,note_on,57,0,240
2,note_on,53,0,0
2,note_on,52,48,0
2,note_on,52,0,155
2,note_on,52,45,0
2,note_on,48,40,240
2,note_on,48,0,240
2,note_on,45,36,0
2,note_on,45,0,480
2,note_on,52,0,0
2,note_on,40,39,0
2,note_on,40,0,113
2,note_on,40,39,0
2,note_on,40,0,240
2,note_on,36,42,0
2,note_on,36,0,340
2,note_on,33,32,0
2,note_on,33,0,26
2,note_on,45,29,0
2,note_on,45,0,160
2,note_on,52,28,0
2,note_on,52,0,160
2,note_on,45,28,0
2,note_on,45,0,33
2,note_on,50,28,0
2,note_on,50,0,160
2,note_on,53,28,0
2,note_on,53,0,160
2,note_on,45,28,0
2,note_on,45,0,381
2,note_on,33,28,0
2,note_on,33,0,47
2,note_on,45,29,0
2,note_on,45,0,160
2,note_on,52,30,0
2,note_on,52,0,160
2,note_on,45,29,0
2,note_on,45,0,47
2,note_on,53,28,0
2,note_on,53,0,160
2,note_on,50,28,0
2,note_on,50,0,160
2,note_on,45,28,0
2,note_on,45,0,395
2,note_on,33,29,0
2,note_on,33,0,51
2,note_on,45,32,0
2,note_on,45,0,160
2,note_on,48,34,0
2,note_on,48,0,160
2,note_on,45,37,0
2,note_on,45,0,91
2,note_on,54,35,0
2,note_on,54,0,160
2,note_on,51,35,0
2,note_on,51,0,160
2,note_on,45,33,0
2,note_on,45,0,76
2,note_on,54,33,0
2,note_on,54,0,160
2,note_on,51,33,0
2,note_on,51,0,160
2,note_on,40,30,0
2,note_on,47,32,48
2,note_on,47,0,160
2,note_on,52,32,0
2,note_on,52,0,1120
2,note_on,40,0,0
2,note_on,33,43,0
2,note_on,33,0,12
2,note_on,45,43,0
2,note_on,45,0,160
2,note_on,52,43,0
2,note_on,52,0,160
2,note_on,45,43,0
2,note_on,45,0,75
2,note_on,57,43,0
2,note_on,57,0,160
2,note_on,50,43,0
2,note_on,50,0,160
2,note_on,45,45,0
2,note_on,45,0,75
2,note_on,57,45,0
2,note_on,57,0,160
2,note_on,52,46,0
2,note_on,52,0,160
2,note_on,38,42,0
2,note_on,38,0,69
2,note_on,50,44,0
2,note_on,50,0,160
2,note_on,57,44,0
2,note_on,57,0,160
2,note_on,51,47,0
2,note_on,51,0,86
2,note_on,60,46,0
2,note_on,60,0,160
2,note_on,57,46,0
2,note_on,57,0,160
2,note_on,51,48,0
2,note_on,51,0,86
2,note_on,60,49,0
2,note_on,60,0,160
2,note_on,57,49,0
2,note_on,57,0,160
2,note_on,40,50,0
2,note_on,40,0,89
2,note_on,52,46,0
2,note_on,52,0,160
2,note_on,55,47,0
2,note_on,55,0,160
2,note_on,52,51,0
2,note_on,60,47,100
2,note_on,60,0,320
2,note_on,52,0,0
2,note_on,53,50,0
2,note_on,57,47,86
2,note_on,57,0,320
2,note_on,53,0,0
2,note_on,52,49,0
2,note_on,52,0,127
2,note_on,52,49,0
2,note_on,50,48,240
2,note_on,50,0,233
2,note_on,48,46,0
2,note_on,47,43,240
2,note_on,48,0,10
2,note_on,45,40,230
2,note_on,47,0,10
2,note_on,45,0,230
2,note_on,52,0,0
2,note_on,40,39,183
2,note_on,40,0,240
2,note_on,38,37,0
2,note_on,36,35,222
2,note_on,38,0,10
2,note_on,35,33,230
2,note_on,36,0,10
2,note_on,33,31,230
2,note_on,35,0,10
2,note_on,33,0,230
2,note_on,68,35,0
2,note_on,64,29,0
2,note_on,64,0,226
2,note_on,68,0,0
2,note_on,69,28,0
2,note_on,65,23,0
2,note_on,65,0,148
2,note_on,62,28,0
2,note_on,62,0,240
2,note_on,69,0,0
2,note_on,68,33,0
2,note_on,64,28,0
2,note_on,64,0,155
2,note_on,68,0,0
2,note_on,69,30,0
2,note_on,65,25,0
2,note_on,65,0,141
2,note_on,62,29,0
2,note_on,62,0,240
2,note_on,69,0,0
2,note_on,64,29,0
2,note_on,68,35,0
2,note_on,68,0,162
2,note_on,64,0,0
2,note_on,65,28,0
2,note_on,69,33,0
2,note_on,65,0,155
2,note_on,62,29,0
2,note_on,62,0,240
2,note_on,69,0,0
2,note_on,68,35,0
2,note_on,64,29,0
2,note_on,64,0,191
2,note_on,68,0,0
2,note_on,69,27,0
2,note_on,65,32,0
2,note_on,65,0,162
2,note_on,62,29,0
2,note_on,62,0,240
2,note_on,69,0,0
2,note_on,59,29,0
2,note_on,63,34,0
2,note_on,63,0,148
2,note_on,59,0,0
2,note_on,60,24,0
2,note_on,64,29,0
2,note_on,60,0,127
2,note_on,57,26,0
2,note_on,57,0,240
2,note_on,64,0,0
2,note_on,59,24,0
2,note_on,63,29,0
2,note_on,63,0,160
2,note_on,59,0,0
2,note_on,64,27,0
2,note_on,60,23,0
2,note_on,60,0,160
2,note_on,57,25,0
2,note_on,57,0,183
2,note_on,64,0,0
2,note_on,59,25,0
2,note_on,63,30,0
2,note_on,63,0,162
2,note_on,59,0,0
2,note_on,64,28,0
2,note_on,60,23,0
2,note_on,60,0,134
2,note_on,57,26,0
2,note_on,57,0,240
2,note_on,64,0,0
2,note_on,59,27,0
2,note_on,63,32,0
2,note_on,63,0,177
2,note_on,59,0,0
2,note_on,60,24,0
2,note_on,64,29,0
2,note_on,64,0,154
2,note_on,60,0,0
2,note_on,57,28,0
2,note_on,66,33,0
2,note_on,66,0,240
2,note_on,57,0,0
2,note_on,64,29,0
2,note_on,68,34,0
2,note_on,68,0,162
2,note_on,64,0,0
2,note_on,69,30,0
2,note_on,65,25,0
2,note_on,65,0,162
2,note_on,62,29,0
2,note_on,62,0,240
2,note_on,69,0,0
2,note_on,64,29,0
2,note_on,68,35,0
2,note_on,68,0,184
2,note_on,64,0,0
2,note_on,69,32,0
2,note_on,65,27,0
2,note_on,65,0,148
2,note_on,62,29,0
2,note_on,62,0,240
2,note_on,69,0,0
2,note_on,64,30,0
2,note_on,68,36,0
2,note_on,68,0,184
2,note_on,64,0,0
2,note_on,69,35,0
2,note_on,65,29,0
2,note_on,65,0,120
2,note_on,62,31,0
2,note_on,62,0,240
2,note_on,69,0,0
2,note_on,64,31,0
2,note_on,68,37,0
2,note_on,68,0,162
2,note_on,64,0,0
2,note_on,69,35,0
2,note_on,65,29,0
2,note_on,65,0,148
2,note_on,62,29,0
2,note_on,62,0,240
2,note_on,69,0,0
2,note_on,64,29,0
2,note_on,68,34,0
2,note_on,68,0,191
2,note_on,64,0,0
2,note_on,69,29,0
2,note_on,65,24,0
2,note_on,65,0,155
2,note_on,62,25,0
2,note_on,62,0,240
2,note_on,69,0,0
2,note_on,68,35,0
2,note_on,64,29,0
2,note_on,64,0,176
2,note_on,68,0,0
2,note_on,69,32,0
2,note_on,65,27,0
2,note_on,65,0,169
2,note_on,62,29,0
2,note_on,62,0,240
2,note_on,69,0,0
2,note_on,59,29,0
2,note_on,63,34,0
2,note_on,63,0,155
2,note_on,59,0,0
2,note_on,60,24,0
2,note_on,64,29,0
2,note_on,60,0,141
2,note_on,57,26,0
2,note_on,57,0,240
2,note_on,64,0,0
2,note_on,59,24,0
2,note_on,63,29,0
2,note_on,63,0,189
2,note_on,59,0,0
2,note_on,64,27,0
2,note_on,60,23,0
2,note_on,60,0,165
2,note_on,57,28,0
2,note_on,57,0,189
2,note_on,64,0,0
2,note_on,59,28,0
2,note_on,63,33,0
2,note_on,63,0,176
2,note_on,59,0,0
2,note_on,64,31,0
2,note_on,60,26,0
2,note_on,60,0,155
2,note_on,57,31,0
2,note_on,57,0,240
2,note_on,64,0,0
2,note_on,59,31,0
2,note_on,63,37,0
2,note_on,63,0,194
2,note_on,59,0,0
2,note_on,60,28,0
2,note_on,64,33,0
2,note_on,64,0,177
2,note_on,60,0,0
2,note_on,57,34,0
2,note_on,66,40,0
2,note_on,66,0,240
2,note_on,57,0,0
2,note_on,64,34,0
2,note_on,68,40,0
2,note_on,68,0,169
2,note_on,64,0,0
2,note_on,69,39,0
2,note_on,65,33,0
2,note_on,65,0,169
2,note_on,69,0,0
2,note_on,71,39,0
2,note_on,62,37,0
2,note_on,62,0,240
2,note_on,71,0,0
2,note_on,69,37,0
2,note_on,73,45,0
2,note_on,73,0,169
2,note_on,69,0,0
2,note_on,74,43,0
2,note_on,70,35,0
2,note_on,70,0,148
2,note_on,67,40,0
2,note_on,67,0,240
2,note_on,74,0,0
2,note_on,69,40,0
2,note_on,73,49,0
2,note_on,73,0,176
2,note_on,69,0,0
2,note_on,74,47,0
2,note_on,70,39,0
2,note_on,70,0,162
2,note_on,67,40,0
2,note_on,67,0,240
2,note_on,74,0,0
2,note_on,73,49,0
2,note_on,69,40,0
2,note_on,69,0,198
2,note_on,73,0,0
2,note_on,74,47,0
2,note_on,65,39,0
2,note_on,65,0,162
2,note_on,70,40,0
2,note_on,70,0,240
2,note_on,64,40,0
2,note_on,64,0,155
2,note_on,74,0,0
2,note_on,72,45,0
2,note_on,69,37,0
2,note_on,69,0,148
2,note_on,62,38,0
2,note_on,62,0,240
2,note_on,72,0,0
2,note_on,70,45,0
2,note_on,67,37,0
2,note_on,67,0,188
2,note_on,61,34,0
2,note_on,61,0,171
2,note_on,70,0,0
2,note_on,69,44,0
2,note_on,65,36,0
2,note_on,65,0,240
2,note_on,59,36,0
2,note_on,59,0,148
2,note_on,62,34,0
2,note_on,62,0,240
2,note_on,69,0,0
2,note_on,68,39,0
2,note_on,64,33,0
2,note_on,64,0,162
2,note_on,68,0,0
2,note_on,69,35,0
2,note_on,65,29,0
2,note_on,65,0,134
2,note_on,62,33,0
2,note_on,62,0,240
2,note_on,69,0,0
2,note_on,64,33,0
2,note_on,68,39,0
2,note_on,68,0,162
2,note_on,64,0,0
2,note_on,69,31,0
2,note_on,65,26,0
2,note_on,65,0,155
2,note_on,62,29,0
2,note_on,62,0,240
2,note_on,69,0,0
2,note_on,68,34,0
2,note_on,64,29,0
2,note_on,64,0,148
2,note_on,68,0,0
2,note_on,69,29,0
2,note_on,65,24,0
2,note_on,65,0,120
2,note_on,62,28,0
2,note_on,62,0,240
2,note_on,69,0,0
2,note_on,64,28,0
2,note_on,68,33,0
2,note_on,68,0,191
2,note_on,64,0,0
2,note_on,61,24,0
2,note_on,69,29,0
2,note_on,69,0,141
2,note_on,61,0,0
2,note_on,62,23,0
2,note_on,65,27,0
2,note_on,65,0,240
2,note_on,62,0,0
2,note_on,59,22,0
2,note_on,67,26,0
2,note_on,67,0,148
2,note_on,59,0,0
2,note_on,61,22,0
2,note_on,64,26,0
2,note_on,64,0,125
2,note_on,61,0,0
2,note_on,57,21,0
2,note_on,65,25,0
2,note_on,65,0,240
2,note_on,57,0,0
2,note_on,59,21,0
2,note_on,62,25,0
2,note_on,62,0,155
2,note_on,59,0,0
2,note_on,55,19,0
2,note_on,64,24,0
2,note_on,64,0,134
2,note_on,55,0,0
2,note_on,57,18,0
2,note_on,61,23,0
2,note_on,61,0,240
2,note_on,57,0,0
2,note_on,54,18,0
2,note_on,64,23,0
2,note_on,64,0,160
2,note_on,54,0,0
2,note_on,53,18,0
2,note_on,57,23,0
2,note_on,57,0,137
2,note_on,53,0,0
2,note_on,50,18,0
2,note_on,62,23,0
2,note_on,62,0,240
2,note_on,50,0,0
2,note_on,33,51,0
2,note_on,33,0,114
2,note_on,45,48,0
2,note_on,52,43,160
2,note_on,52,0,160
2,note_on,50,37,0
2,note_on,50,0,787
2,note_on,45,0,0
2,note_on,33,44,0
2,note_on,33,0,82
2,note_on,45,42,0
2,note_on,52,37,160
2,note_on,52,0,160
2,note_on,54,32,0
2,note_on,54,0,755
2,note_on,45,0,0
2,note_on,33,47,0
2,note_on,33,0,96
2,note_on,45,42,0
2,note_on,49,42,160
2,note_on,49,0,160
2,note_on,51,42,0
2,note_on,51,0,956
2,note_on,45,0,0
2,note_on,40,39,0
2,note_on,47,34,184
2,note_on,47,0,240
2,note_on,52,32,0
2,note_on,40,0,480
2,note_on,52,0,480
2,note_on,45,39,0
2,note_on,45,0,74
2,note_on,57,39,0
2,note_on,57,0,160
2,note_on,64,39,0
2,note_on,64,0,160
2,note_on,57,25,0
2,note_on,62,28,0
2,note_on,62,0,783
2,note_on,57,0,0
2,note_on,45,36,0
2,note_on,45,0,89
2,note_on,57,36,0
2,note_on,57,0,160
2,note_on,64,36,0
2,note_on,64,0,160
2,note_on,57,24,0
2,note_on,66,27,0
2,note_on,66,0,826
2,note_on,57,0,0
2,note_on,45,42,0
2,note_on,45,0,74
2,note_on,57,42,0
2,note_on,57,0,160
2,note_on,61,39,0
2,note_on,61,0,160
2,note_on,57,32,0
2,note_on,63,36,0
2,note_on,63,0,845
2,note_on,57,0,0
2,note_on,52,38,0
2,note_on,59,30,223
2,note_on,59,0,197
2,note_on,64,32,0
2,note_on,64,0,960
2,note_on,52,0,0
2,note_on,33,54,0
2,note_on,33,0,82
2,note_on,45,46,0
2,note_on,49,51,160
2,note_on,49,0,160
2,note_on,51,58,0
2,note_on,45,0,392
2,note_on,45,46,0
2,note_on,45,0,406
2,note_on,51,0,0
2,note_on,40,49,0
2,note_on,47,54,0
2,note_on,47,0,141
2,note_on,40,0,0
2,note_on,52,54,240
2,note_on,59,61,0
2,note_on,59,0,180
2,note_on,52,0,0
2,note_on,64,59,300
2,note_on,71,67,0
2,note_on,71,0,180
2,note_on,64,0,0
2,note_on,64,66,300
2,note_on,74,66,0
2,note_on,74,0,155
2,note_on,71,57,0
2,note_on,71,0,240
2,note_on,72,61,0
2,note_on,72,0,113
2,note_on,69,57,0
2,note_on,69,0,240
2,note_on,71,61,0
2,note_on,71,0,99
2,note_on,67,55,0
2,note_on,67,0,240
2,note_on,64,0,0
2,note_on,64,38,0
2,note_on,69,58,0
2,note_on,69,0,354
2,note_on,71,56,0
2,note_on,71,0,114
2,note_on,69,53,0
2,note_on,69,0,114
2,note_on,67,52,0
2,note_on,67,0,125
2,note_on,65,47,0
2,note_on,65,0,103
2,note_on,64,0,0
2,note_on,64,44,0
2,note_on,64,0,137
2,note_on,57,48,0
2,note_on,57,0,137
2,note_on,50,46,0
2,note_on,50,0,125
2,note_on,43,38,0
2,note_on,43,0,114
2,note_on,36,37,0
2,note_on,36,0,114
2,note_on,41,34,0
2,note_on,41,0,125
2,note_on,40,32,0
2,note_on,40,0,149
2,note_on,45,32,0
2,note_on,45,0,103
2,note_on,38,32,0
2,note_on,38,0,114
2,note_on,31,32,0
2,note_on,31,0,137
2,note_on,36,32,0
2,note_on,36,0,114
2,note_on,45,32,0
2,note_on,45,0,114
2,note_on,38,35,0
2,note_on,38,0,103
2,note_on,31,35,0
2,note_on,31,0,103
2,note_on,36,31,0
2,note_on,36,0,125
2,note_on,45,31,0
2,note_on,45,0,137
2,note_on,38,28,0
2,note_on,38,0,125
2,note_on,26,28,0
2,note_on,26,0,114
2,note_on,33,37,0
2,note_on,33,0,47
2,note_on,45,35,0
2,note_on,45,0,160
2,note_on,52,37,0
2,note_on,52,0,160
2,note_on,45,28,0
2,note_on,50,31,0
2,note_on,50,0,812
2,note_on,45,0,0
2,note_on,33,32,0
2,note_on,33,0,47
2,note_on,45,36,0
2,note_on,45,0,160
2,note_on,52,38,0
2,note_on,52,0,160
2,note_on,45,26,0
2,note_on,53,29,0
2,note_on,53,0,776
2,note_on,45,0,0
2,note_on,33,33,0
2,note_on,33,0,47
2,note_on,45,33,0
2,note_on,45,0,160
2,note_on,48,33,0
2,note_on,48,0,160
2,note_on,45,25,0
2,note_on,51,28,0
2,note_on,51,0,826
2,note_on,45,0,0
2,note_on,40,26,0
2,note_on,47,27,19
2,note_on,47,0,160
2,note_on,52,27,0
2,note_on,52,0,1120
2,note_on,40,0,0
2,note_on,33,37,0
2,note_on,33,0,40
2,note_on,45,40,0
2,note_on,45,0,160
2,note_on,52,45,0
2,note_on,52,0,160
2,note_on,45,36,0
2,note_on,57,40,0
2,note_on,57,0,776
2,note_on,45,0,0
2,note_on,38,43,0
2,note_on,38,0,33
2,note_on,50,46,0
2,note_on,50,0,160
2,note_on,57,48,0
2,note_on,57,0,160
2,note_on,51,40,0
2,note_on,60,46,0
2,note_on,60,0,833
2,note_on,51,0,0
2,note_on,40,44,0
2,note_on,40,0,33
2,note_on,52,44,0
2,note_on,52,0,160
2,note_on,55,44,0
2,note_on,55,0,160
2,note_on,60,40,0
2,note_on,52,36,0
2,note_on,52,0,332
2,note_on,53,37,0
2,note_on,60,0,240
2,note_on,57,32,0
2,note_on,57,0,240
2,note_on,53,0,0
2,note_on,52,47,0
2,note_on,52,0,113
2,note_on,52,46,0
2,note_on,48,44,240
2,note_on,48,0,240
2,note_on,45,46,0
2,note_on,45,0,480
2,note_on,52,0,0
2,note_on,40,35,127
2,note_on,40,0,240
2,note_on,36,37,0
2,note_on,36,0,296
2,note_on,33,28,0
2,note_on,33,0,19
2,note_on,45,26,0
2,note_on,45,0,160
2,note_on,52,25,0
2,note_on,52,0,160
2,note_on,45,25,0
2,note_on,45,0,40
2,note_on,50,25,0
2,note_on,50,0,160
2,note_on,53,25,0
2,note_on,53,0,160
2,note_on,45,25,0
2,note_on,45,0,346
2,note_on,33,25,0
2,note_on,33,0,33
2,note_on,45,26,0
2,note_on,45,0,160
2,note_on,52,27,0
2,note_on,52,0,160
2,note_on,45,28,0
2,note_on,45,0,61
2,note_on,53,27,0
2,note_on,53,0,160
2,note_on,50,27,0
2,note_on,50,0,160
2,note_on,45,27,0
2,note_on,45,0,395
2,note_on,33,26,0
2,note_on,33,0,40
2,note_on,45,28,0
2,note_on,45,0,160
2,note_on,48,30,0
2,note_on,48,0,160
2,note_on,45,33,0
2,note_on,45,0,74
2,note_on,54,31,0
2,note_on,54,0,160
2,note_on,51,31,0
2,note_on,51,0,160
2,note_on,45,29,0
2,note_on,45,0,91
2,note_on,54,29,0
2,note_on,54,0,160
2,note_on,51,29,0
2,note_on,51,0,160
2,note_on,40,27,0
2,note_on,47,28,40
2,note_on,47,0,160
2,note_on,52,28,0
2,note_on,52,0,1120
2,note_on,40,0,0
2,note_on,33,35,0
2,note_on,33,0,68
2,note_on,45,37,0
2,note_on,45,0,160
2,note_on,52,39,0
2,note_on,52,0,160
2,note_on,45,42,0
2,note_on,45,0,114
2,note_on,57,44,0
2,note_on,57,0,160
2,note_on,50,47,0
2,note_on,50,0,160
2,note_on,62,46,0
2,note_on,62,0,86
2,note_on,57,48,0
2,note_on,69,50,160
2,note_on,64,53,160
2,note_on,64,0,1067
2,note_on,69,0,0
2,note_on,57,0,0
2,note_on,38,42,0
2,note_on,38,0,79
2,note_on,50,45,0
2,note_on,50,0,160
2,note_on,57,49,0
2,note_on,57,0,160
2,note_on,50,52,0
2,note_on,50,0,96
2,note_on,62,55,0
2,note_on,62,0,160
2,note_on,55,54,0
2,note_on,55,0,160
2,note_on,67,58,0
2,note_on,67,0,72
2,note_on,62,58,0
2,note_on,74,63,160
2,note_on,74,0,160
2,note_on,69,66,0
2,note_on,62,0,240
2,note_on,63,60,0
2,note_on,63,0,480
2,note_on,69,0,0
2,note_on,40,45,0
2,note_on,40,0,96
2,note_on,52,45,0
2,note_on,52,0,160
2,note_on,55,42,0
2,note_on,55,0,160
2,note_on,52,40,0
2,note_on,60,37,100
2,note_on,60,0,320
2,note_on,52,0,0
2,note_on,53,37,0
2,note_on,57,37,100
2,note_on,57,0,320
2,note_on,53,0,0
2,note_on,52,37,0
2,note_on,52,0,56
2,note_on,52,34,0
2,note_on,50,37,240
2,note_on,48,35,223
2,note_on,50,0,10
2,note_on,47,38,230
2,note_on,48,0,10
2,note_on,45,34,230
2,note_on,47,0,10
2,note_on,45,0,230
2,note_on,52,0,0
2,note_on,40,31,240
2,note_on,40,0,240
2,note_on,38,29,0
2,note_on,38,0,282
2,note_on,36,27,0
2,note_on,36,0,226
2,note_on,35,25,0
2,note_on,35,0,266
2,note_on,33,26,0
2,note_on,33,0,213
