Track,Message Type,Note,Velocity,Time
1,note_on,67,79,0
1,note_on,70,79,0
1,note_on,75,79,0
1,note_on,79,88,0
1,note_on,79,0,480
1,note_on,67,0,0
1,note_on,70,0,0
1,note_on,75,0,0
1,note_on,65,62,0
1,note_on,70,62,0
1,note_on,74,62,0
1,note_on,77,70,0
1,note_on,77,0,120
1,note_on,65,0,0
1,note_on,70,0,0
1,note_on,74,0,0
1,note_on,75,62,120
1,note_on,67,62,0
1,note_on,70,62,0
1,note_on,79,70,0
1,note_on,79,0,120
1,note_on,75,0,0
1,note_on,67,0,0
1,note_on,70,0,0
1,note_on,68,79,120
1,note_on,72,79,0
1,note_on,80,88,0
1,note_on,75,79,0
1,note_on,75,0,480
1,note_on,68,0,0
1,note_on,72,0,0
1,note_on,80,0,0
1,note_on,75,62,0
1,note_on,70,62,0
1,note_on,67,62,0
1,note_on,79,70,0
1,note_on,79,0,120
1,note_on,75,0,0
1,note_on,70,0,0
1,note_on,67,0,0
1,note_on,65,63,120
1,note_on,72,63,0
1,note_on,77,71,0
1,note_on,75,63,0
1,note_on,75,0,120
1,note_on,65,0,0
1,note_on,72,0,0
1,note_on,77,0,0
1,note_on,70,75,120
1,note_on,67,75,0
1,note_on,75,75,0
1,note_on,79,84,0
1,note_on,79,0,480
1,note_on,70,0,0
1,note_on,67,0,0
1,note_on,75,0,0
1,note_on,65,60,0
1,note_on,77,68,0
1,note_on,68,60,0
1,note_on,74,60,0
1,note_on,74,0,120
1,note_on,65,0,0
1,note_on,77,0,0
1,note_on,68,0,0
1,note_on,67,57,120
1,note_on,63,57,0
1,note_on,70,57,0
1,note_on,75,63,0
1,note_on,75,0,120
1,note_on,67,0,0
1,note_on,63,0,0
1,note_on,70,0,0
1,note_on,65,60,120
1,note_on,74,60,0
1,note_on,77,68,0
1,note_on,77,0,120
1,note_on,74,0,0
1,note_on,65,0,0
1,note_on,70,63,120
1,note_on,70,0,120
1,note_on,63,70,120
1,note_on,72,70,0
1,note_on,75,79,0
1,note_on,75,0,480
1,note_on,72,0,0
1,note_on,63,0,0
1,note_on,63,67,0
1,note_on,75,74,0
1,note_on,70,67,0
1,note_on,74,74,0
1,note_on,74,0,480
1,note_on,63,0,0
1,note_on,75,0,0
1,note_on,70,0,0
1,note_on,68,67,0
1,note_on,63,67,0
1,note_on,72,67,0
1,note_on,75,74,0
1,note_on,75,0,420
1,note_on,68,0,0
1,note_on,63,0,0
1,note_on,72,0,0
1,note_on,63,67,60
1,note_on,75,74,0
1,note_on,67,67,0
1,note_on,70,67,0
1,note_on,70,0,480
1,note_on,63,0,0
1,note_on,75,0,0
1,note_on,67,0,0
1,note_on,62,62,0
1,note_on,65,62,0
1,note_on,70,62,0
1,note_on,74,70,0
1,note_on,74,0,120
1,note_on,62,0,0
1,note_on,65,0,0
1,note_on,70,0,0
1,note_on,75,70,120
1,note_on,70,62,0
1,note_on,63,62,0
1,note_on,67,62,0
1,note_on,67,0,120
1,note_on,75,0,0
1,note_on,70,0,0
1,note_on,63,0,0
1,note_on,72,72,120
1,note_on,75,72,0
1,note_on,79,81,0
1,note_on,67,72,0
1,note_on,67,0,480
1,note_on,72,0,0
1,note_on,75,0,0
1,note_on,79,0,0
1,note_on,77,69,0
1,note_on,65,61,0
1,note_on,68,61,0
1,note_on,72,61,0
1,note_on,72,0,120
1,note_on,77,0,0
1,note_on,65,0,0
1,note_on,68,0,0
1,note_on,63,61,120
1,note_on,67,61,0
1,note_on,72,61,0
1,note_on,75,69,0
1,note_on,75,0,120
1,note_on,63,0,0
1,note_on,67,0,0
1,note_on,72,0,0
1,note_on,70,69,120
1,note_on,74,78,0
1,note_on,62,69,0
1,note_on,67,69,0
1,note_on,67,0,480
1,note_on,70,0,0
1,note_on,74,0,0
1,note_on,62,0,0
1,note_on,60,64,0
1,note_on,63,64,0
1,note_on,67,64,0
1,note_on,72,72,0
1,note_on,72,0,120
1,note_on,60,0,0
1,note_on,63,0,0
1,note_on,67,0,0
1,note_on,70,70,120
1,note_on,58,62,0
1,note_on,62,62,0
1,note_on,67,62,0
1,note_on,67,0,120
1,note_on,70,0,0
1,note_on,58,0,0
1,note_on,62,0,0
1,note_on,57,61,120
1,note_on,66,61,0
1,note_on,69,69,0
1,note_on,69,0,120
1,note_on,66,0,0
1,note_on,57,0,0
1,note_on,62,66,120
1,note_on,62,0,120
1,note_on,55,68,120
1,note_on,67,75,0
1,note_on,67,0,480
1,note_on,55,0,0
1,note_on,55,68,0
1,note_on,66,68,0
1,note_on,67,75,0
1,note_on,67,0,480
1,note_on,66,0,0
1,note_on,55,0,0
1,note_on,55,67,0
1,note_on,65,67,0
1,note_on,67,74,0
1,note_on,67,0,420
1,note_on,65,0,0
1,note_on,55,0,0
1,note_on,67,79,60
1,note_on,79,88,0
1,note_on,70,79,0
1,note_on,75,79,0
1,note_on,75,0,480
1,note_on,67,0,0
1,note_on,79,0,0
1,note_on,70,0,0
1,note_on,77,72,0
1,note_on,74,64,0
1,note_on,65,64,0
1,note_on,70,64,0
1,note_on,70,0,120
1,note_on,77,0,0
1,note_on,74,0,0
1,note_on,65,0,0
1,note_on,67,64,120
1,note_on,70,64,0
1,note_on,75,64,0
1,note_on,79,72,0
1,note_on,79,0,120
1,note_on,67,0,0
1,note_on,70,0,0
1,note_on,75,0,0
1,note_on,80,88,120
1,note_on,68,79,0
1,note_on,72,79,0
1,note_on,75,79,0
1,note_on,75,0,480
1,note_on,80,0,0
1,note_on,68,0,0
1,note_on,72,0,0
1,note_on,67,62,0
1,note_on,70,62,0
1,note_on,75,70,0
1,note_on,79,70,0
1,note_on,79,0,120
1,note_on,67,0,0
1,note_on,70,0,0
1,note_on,75,0,0
1,note_on,75,70,120
1,note_on,72,62,0
1,note_on,77,70,0
1,note_on,65,62,0
1,note_on,65,0,120
1,note_on,75,0,0
1,note_on,72,0,0
1,note_on,77,0,0
1,note_on,67,77,120
1,note_on,70,77,0
1,note_on,75,77,0
1,note_on,79,85,0
1,note_on,79,0,480
1,note_on,67,0,0
1,note_on,70,0,0
1,note_on,75,0,0
1,note_on,77,72,0
1,note_on,65,64,0
1,note_on,68,64,0
1,note_on,74,64,0
1,note_on,74,0,120
1,note_on,77,0,0
1,note_on,65,0,0
1,note_on,68,0,0
1,note_on,63,62,120
1,note_on,67,62,0
1,note_on,70,62,0
1,note_on,75,70,0
1,note_on,75,0,120
1,note_on,63,0,0
1,note_on,67,0,0
1,note_on,70,0,0
1,note_on,77,68,120
1,note_on,74,60,0
1,note_on,65,60,0
1,note_on,65,0,120
1,note_on,74,0,0
1,note_on,77,0,0
1,note_on,70,66,120
1,note_on,70,0,120
1,note_on,63,74,120
1,note_on,75,83,0
1,note_on,75,0,480
1,note_on,63,0,0
1,note_on,73,78,0
1,note_on,63,78,0
1,note_on,75,86,0
1,note_on,75,0,480
1,note_on,63,0,0
1,note_on,73,0,0
1,note_on,71,83,0
1,note_on,63,83,0
1,note_on,75,93,0
1,note_on,75,0,450
1,note_on,63,0,0
1,note_on,71,0,0
1,note_on,87,101,30
1,note_on,82,90,0
1,note_on,75,90,0
1,note_on,78,90,0
1,note_on,78,0,480
1,note_on,87,0,0
1,note_on,82,0,0
1,note_on,75,0,0
1,note_on,78,83,0
1,note_on,82,83,0
1,note_on,86,93,0
1,note_on,74,83,0
1,note_on,74,0,240
1,note_on,78,0,0
1,note_on,82,0,0
1,note_on,86,0,0
1,note_on,87,90,0
1,note_on,82,80,0
1,note_on,78,80,0
1,note_on,75,80,0
1,note_on,75,0,240
1,note_on,87,0,0
1,note_on,82,0,0
1,note_on,78,0,0
1,note_on,78,85,0
1,note_on,83,95,0
1,note_on,75,85,0
1,note_on,71,85,0
1,note_on,71,0,480
1,note_on,78,0,0
1,note_on,83,0,0
1,note_on,75,0,0
1,note_on,82,86,0
1,note_on,70,78,0
1,note_on,78,78,0
1,note_on,75,78,0
1,note_on,75,0,240
1,note_on,82,0,0
1,note_on,70,0,0
1,note_on,78,0,0
1,note_on,78,77,0
1,note_on,83,85,0
1,note_on,75,77,0
1,note_on,71,77,0
1,note_on,71,0,240
1,note_on,78,0,0
1,note_on,83,0,0
1,note_on,75,0,0
1,note_on,80,92,0
1,note_on,68,82,0
1,note_on,75,82,0
1,note_on,71,82,0
1,note_on,71,0,480
1,note_on,80,0,0
1,note_on,68,0,0
1,note_on,75,0,0
1,note_on,79,83,0
1,note_on,75,74,0
1,note_on,71,74,0
1,note_on,67,74,0
1,note_on,67,0,240
1,note_on,79,0,0
1,note_on,75,0,0
1,note_on,71,0,0
1,note_on,68,74,0
1,note_on,71,74,0
1,note_on,80,83,0
1,note_on,75,74,0
1,note_on,75,0,240
1,note_on,68,0,0
1,note_on,71,0,0
1,note_on,80,0,0
1,note_on,66,79,0
1,note_on,69,79,0
1,note_on,72,79,0
1,note_on,78,88,0
1,note_on,78,0,480
1,note_on,66,0,0
1,note_on,69,0,0
1,note_on,72,0,0
1,note_on,77,73,0
1,note_on,77,0,120
1,note_on,74,61,0
1,note_on,74,0,120
1,note_on,70,63,0
1,note_on,70,0,120
1,note_on,69,60,0
1,note_on,69,0,120
1,note_on,74,71,0
1,note_on,74,0,120
1,note_on,70,61,0
1,note_on,70,0,120
1,note_on,65,63,0
1,note_on,65,0,120
1,note_on,64,61,0
1,note_on,64,0,120
1,note_on,70,70,0
1,note_on,70,0,120
1,note_on,65,61,0
1,note_on,65,0,120
1,note_on,62,63,0
1,note_on,62,0,120
1,note_on,60,61,0
1,note_on,60,0,120
1,note_on,89,64,3360
1,note_on,89,0,120
1,note_on,86,59,0
1,note_on,86,0,120
1,note_on,82,61,0
1,note_on,82,0,120
1,note_on,81,60,0
1,note_on,81,0,120
1,note_on,86,64,0
1,note_on,86,0,120
1,note_on,82,58,0
1,note_on,82,0,120
1,note_on,77,58,0
1,note_on,77,0,120
1,note_on,76,58,0
1,note_on,76,0,120
1,note_on,82,60,0
1,note_on,82,0,120
1,note_on,77,56,0
1,note_on,77,0,120
1,note_on,74,56,0
1,note_on,74,0,120
1,note_on,72,56,0
1,note_on,72,0,120
1,note_on,70,66,0
1,note_on,70,0,480
1,note_on,70,68,0
1,note_on,67,60,0
1,note_on,67,0,480
1,note_on,70,0,0
1,note_on,63,63,0
1,note_on,67,71,0
1,note_on,70,71,0
1,note_on,70,0,480
1,note_on,67,0,0
1,note_on,63,0,0
1,note_on,72,74,0
1,note_on,60,67,0
1,note_on,63,67,0
1,note_on,67,74,0
1,note_on,67,0,480
1,note_on,72,0,0
1,note_on,60,0,0
1,note_on,63,0,0
1,note_on,60,68,0
1,note_on,63,68,0
1,note_on,68,75,0
1,note_on,72,75,0
1,note_on,72,0,480
1,note_on,60,0,0
1,note_on,63,0,0
1,note_on,68,0,0
1,note_on,72,72,0
1,note_on,77,81,0
1,note_on,65,72,0
1,note_on,68,72,0
1,note_on,68,0,480
1,note_on,72,0,0
1,note_on,77,0,0
1,note_on,65,0,0
1,note_on,62,79,0
1,note_on,67,79,0
1,note_on,71,88,0
1,note_on,74,88,0
1,note_on,86,57,480
1,note_on,86,0,120
1,note_on,83,53,0
1,note_on,83,0,120
1,note_on,79,54,0
1,note_on,79,0,120
1,note_on,78,54,0
1,note_on,78,0,120
1,note_on,83,57,0
1,note_on,83,0,120
1,note_on,79,54,0
1,note_on,79,0,120
1,note_on,74,54,0
1,note_on,74,0,120
1,note_on,73,54,0
1,note_on,73,0,120
1,note_on,79,57,0
1,note_on,79,0,120
1,note_on,74,54,0
1,note_on,74,0,120
1,note_on,71,55,0
1,note_on,71,0,120
1,note_on,69,54,0
1,note_on,69,0,120
1,note_on,74,0,0
1,note_on,62,0,0
1,note_on,67,0,0
1,note_on,71,0,0
1,note_on,67,64,0
1,note_on,67,0,480
1,note_on,65,58,0
1,note_on,67,64,0
1,note_on,67,0,480
1,note_on,65,0,0
1,note_on,63,60,0
1,note_on,67,68,0
1,note_on,67,0,480
1,note_on,63,0,0
1,note_on,65,62,0
1,note_on,62,62,0
1,note_on,67,70,0
1,note_on,67,0,480
1,note_on,62,0,0
1,note_on,65,0,0
1,note_on,60,67,0
1,note_on,63,67,0
1,note_on,67,74,0
1,note_on,67,0,480
1,note_on,63,0,0
1,note_on,60,0,0
1,note_on,69,78,0
1,note_on,63,69,0
1,note_on,60,69,0
1,note_on,60,0,480
1,note_on,63,0,0
1,note_on,69,0,0
1,note_on,58,74,0
1,note_on,62,74,0
1,note_on,70,83,0
1,note_on,89,64,480
1,note_on,89,0,120
1,note_on,86,61,0
1,note_on,86,0,120
1,note_on,82,64,0
1,note_on,82,0,120
1,note_on,81,62,0
1,note_on,81,0,120
1,note_on,86,60,0
1,note_on,86,0,120
1,note_on,82,55,0
1,note_on,82,0,120
1,note_on,77,58,0
1,note_on,77,0,120
1,note_on,76,54,0
1,note_on,76,0,120
1,note_on,82,58,0
1,note_on,82,0,120
1,note_on,77,53,0
1,note_on,77,0,120
1,note_on,74,56,0
1,note_on,74,0,120
1,note_on,72,53,0
1,note_on,72,0,120
1,note_on,70,0,0
1,note_on,62,0,0
1,note_on,58,0,0
1,note_on,70,64,0
1,note_on,70,0,480
1,note_on,66,65,0
1,note_on,70,65,0
1,note_on,70,0,480
1,note_on,66,0,0
1,note_on,66,62,0
1,note_on,63,62,0
1,note_on,70,69,0
1,note_on,70,0,480
1,note_on,63,0,0
1,note_on,66,0,0
1,note_on,66,68,0
1,note_on,63,68,0
1,note_on,71,68,0
1,note_on,75,77,0
1,note_on,75,0,480
1,note_on,66,0,0
1,note_on,63,0,0
1,note_on,71,0,0
1,note_on,63,71,0
1,note_on,75,80,0
1,note_on,68,71,0
1,note_on,71,71,0
1,note_on,71,0,480
1,note_on,63,0,0
1,note_on,75,0,0
1,note_on,68,0,0
1,note_on,71,79,0
1,note_on,68,79,0
1,note_on,76,88,0
1,note_on,80,88,0
1,note_on,80,0,480
1,note_on,71,0,0
1,note_on,68,0,0
1,note_on,76,0,0
1,note_on,66,88,0
1,note_on,78,97,0
1,note_on,71,88,0
1,note_on,75,97,0
1,note_on,83,89,480
1,note_on,87,99,0
1,note_on,75,89,0
1,note_on,75,0,480
1,note_on,83,0,0
1,note_on,78,0,0
1,note_on,71,0,0
1,note_on,66,0,0
1,note_on,87,0,0
1,note_on,75,0,0
1,note_on,82,89,0
1,note_on,75,89,0
1,note_on,87,99,0
1,note_on,87,0,480
1,note_on,75,0,0
1,note_on,82,0,0
1,note_on,75,89,0
1,note_on,87,99,0
1,note_on,81,89,0
1,note_on,81,0,480
1,note_on,87,0,0
1,note_on,75,0,0
1,note_on,87,102,0
1,note_on,82,91,0
1,note_on,79,91,0
1,note_on,75,91,0
1,note_on,75,0,360
1,note_on,87,0,0
1,note_on,82,0,0
1,note_on,79,0,0
1,note_on,70,66,120
1,note_on,65,66,0
1,note_on,74,66,0
1,note_on,77,73,0
1,note_on,77,0,120
1,note_on,70,0,0
1,note_on,65,0,0
1,note_on,74,0,0
1,note_on,67,66,120
1,note_on,79,73,0
1,note_on,70,66,0
1,note_on,75,66,0
1,note_on,75,0,120
1,note_on,67,0,0
1,note_on,79,0,0
1,note_on,70,0,0
1,note_on,72,77,120
1,note_on,68,77,0
1,note_on,75,77,0
1,note_on,80,85,0
1,note_on,80,0,480
1,note_on,72,0,0
1,note_on,68,0,0
1,note_on,75,0,0
1,note_on,67,64,0
1,note_on,79,72,0
1,note_on,70,64,0
1,note_on,75,72,0
1,note_on,75,0,120
1,note_on,67,0,0
1,note_on,79,0,0
1,note_on,70,0,0
1,note_on,65,64,120
1,note_on,72,64,0
1,note_on,77,72,0
1,note_on,75,64,0
1,note_on,75,0,120
1,note_on,65,0,0
1,note_on,72,0,0
1,note_on,77,0,0
1,note_on,79,86,120
1,note_on,75,78,0
1,note_on,67,78,0
1,note_on,70,78,0
1,note_on,70,0,480
1,note_on,79,0,0
1,note_on,75,0,0
1,note_on,67,0,0
1,note_on,65,64,0
1,note_on,68,64,0
1,note_on,74,64,0
1,note_on,77,72,0
1,note_on,77,0,120
1,note_on,65,0,0
1,note_on,68,0,0
1,note_on,74,0,0
1,note_on,75,71,120
1,note_on,63,63,0
1,note_on,67,63,0
1,note_on,70,63,0
1,note_on,70,0,120
1,note_on,75,0,0
1,note_on,63,0,0
1,note_on,67,0,0
1,note_on,65,62,120
1,note_on,74,62,0
1,note_on,77,70,0
1,note_on,77,0,120
1,note_on,74,0,0
1,note_on,65,0,0
1,note_on,70,69,120
1,note_on,70,0,120
1,note_on,75,79,120
1,note_on,72,70,0
1,note_on,63,70,0
1,note_on,63,0,480
1,note_on,72,0,0
1,note_on,75,0,0
1,note_on,63,69,0
1,note_on,70,69,0
1,note_on,74,78,0
1,note_on,75,78,0
1,note_on,75,0,480
1,note_on,63,0,0
1,note_on,70,0,0
1,note_on,74,0,0
1,note_on,75,77,0
1,note_on,63,69,0
1,note_on,68,69,0
1,note_on,72,69,0
1,note_on,72,0,480
1,note_on,75,0,0
1,note_on,63,0,0
1,note_on,68,0,0
1,note_on,63,67,0
1,note_on,67,67,0
1,note_on,70,67,0
1,note_on,75,74,0
1,note_on,75,0,480
1,note_on,63,0,0
1,note_on,67,0,0
1,note_on,70,0,0
1,note_on,74,77,0
1,note_on,65,69,0
1,note_on,70,69,0
1,note_on,62,69,0
1,note_on,62,0,120
1,note_on,74,0,0
1,note_on,65,0,0
1,note_on,70,0,0
1,note_on,63,69,120
1,note_on,67,69,0
1,note_on,70,69,0
1,note_on,75,77,0
1,note_on,75,0,120
1,note_on,63,0,0
1,note_on,67,0,0
1,note_on,70,0,0
1,note_on,67,73,120
1,note_on,72,73,0
1,note_on,75,73,0
1,note_on,79,82,0
1,note_on,79,0,480
1,note_on,67,0,0
1,note_on,72,0,0
1,note_on,75,0,0
1,note_on,65,68,0
1,note_on,68,68,0
1,note_on,72,68,0
1,note_on,77,75,0
1,note_on,77,0,120
1,note_on,65,0,0
1,note_on,68,0,0
1,note_on,72,0,0
1,note_on,72,68,120
1,note_on,75,75,0
1,note_on,63,68,0
1,note_on,67,68,0
1,note_on,67,0,120
1,note_on,72,0,0
1,note_on,75,0,0
1,note_on,63,0,0
1,note_on,62,71,120
1,note_on,67,71,0
1,note_on,70,71,0
1,note_on,74,80,0
1,note_on,74,0,480
1,note_on,62,0,0
1,note_on,67,0,0
1,note_on,70,0,0
1,note_on,67,64,0
1,note_on,60,64,0
1,note_on,63,64,0
1,note_on,72,72,0
1,note_on,72,0,120
1,note_on,67,0,0
1,note_on,60,0,0
1,note_on,63,0,0
1,note_on,58,62,120
1,note_on,62,62,0
1,note_on,70,70,0
1,note_on,67,62,0
1,note_on,67,0,120
1,note_on,58,0,0
1,note_on,62,0,0
1,note_on,70,0,0
1,note_on,69,70,120
1,note_on,66,62,0
1,note_on,57,62,0
1,note_on,57,0,120
1,note_on,66,0,0
1,note_on,69,0,0
1,note_on,62,68,120
1,note_on,62,0,120
1,note_on,55,59,120
1,note_on,67,66,0
1,note_on,67,0,480
1,note_on,55,0,0
1,note_on,67,75,0
1,note_on,55,68,0
1,note_on,66,75,0
1,note_on,66,0,480
1,note_on,55,0,0
1,note_on,67,0,0
1,note_on,55,67,0
1,note_on,65,74,0
1,note_on,67,74,0
1,note_on,67,0,360
1,note_on,65,0,0
1,note_on,55,0,0
1,note_on,79,77,0
1,note_on,75,65,0
1,note_on,67,65,0
1,note_on,70,65,0
1,note_on,70,0,480
1,note_on,79,0,0
1,note_on,75,0,0
1,note_on,67,0,0
1,note_on,65,61,0
1,note_on,70,61,0
1,note_on,74,61,0
1,note_on,77,72,0
1,note_on,77,0,120
1,note_on,65,0,0
1,note_on,70,0,0
1,note_on,74,0,0
1,note_on,79,73,120
1,note_on,67,62,0
1,note_on,70,62,0
1,note_on,75,62,0
1,note_on,75,0,120
1,note_on,79,0,0
1,note_on,67,0,0
1,note_on,70,0,0
1,note_on,68,65,120
1,note_on,72,65,0
1,note_on,75,65,0
1,note_on,80,77,0
1,note_on,80,0,480
1,note_on,68,0,0
1,note_on,72,0,0
1,note_on,75,0,0
1,note_on,75,62,0
1,note_on,79,74,0
1,note_on,67,62,0
1,note_on,70,62,0
1,note_on,70,0,120
1,note_on,75,0,0
1,note_on,79,0,0
1,note_on,67,0,0
1,note_on,65,53,120
1,note_on,72,53,0
1,note_on,77,72,0
1,note_on,75,53,0
1,note_on,75,0,120
1,note_on,65,0,0
1,note_on,72,0,0
1,note_on,77,0,0
1,note_on,75,58,120
1,note_on,67,58,0
1,note_on,70,58,0
1,note_on,79,76,0
1,note_on,79,0,480
1,note_on,75,0,0
1,note_on,67,0,0
1,note_on,70,0,0
1,note_on,65,63,0
1,note_on,68,63,0
1,note_on,77,75,0
1,note_on,74,75,0
1,note_on,74,0,120
1,note_on,65,0,0
1,note_on,68,0,0
1,note_on,77,0,0
1,note_on,70,62,120
1,note_on,67,62,0
1,note_on,63,62,0
1,note_on,75,73,0
1,note_on,75,0,120
1,note_on,70,0,0
1,note_on,67,0,0
1,note_on,63,0,0
1,note_on,65,62,120
1,note_on,74,74,0
1,note_on,77,74,0
1,note_on,77,0,120
1,note_on,74,0,0
1,note_on,65,0,0
1,note_on,70,71,120
1,note_on,70,0,120
1,note_on,75,69,120
1,note_on,63,61,0
1,note_on,63,0,480
1,note_on,75,0,0
1,note_on,74,68,0
1,note_on,63,68,0
1,note_on,75,75,0
1,note_on,75,0,480
1,note_on,63,0,0
1,note_on,74,0,0
1,note_on,75,81,0
1,note_on,63,72,0
1,note_on,72,72,0
1,note_on,72,0,480
1,note_on,63,0,0
1,note_on,75,0,0
1,note_on,87,90,0
1,note_on,91,101,0
1,note_on,84,90,0
1,note_on,79,90,0
1,note_on,79,0,480
1,note_on,87,0,0
1,note_on,91,0,0
1,note_on,84,0,0
1,note_on,86,93,0
1,note_on,83,93,0
1,note_on,74,83,0
1,note_on,74,0,120
1,note_on,83,0,0
1,note_on,86,0,0
1,note_on,84,79,120
1,note_on,87,89,0
1,note_on,75,79,0
1,note_on,75,0,120
1,note_on,87,0,0
1,note_on,84,0,0
1,note_on,83,92,120
1,note_on,80,82,0
1,note_on,71,82,0
1,note_on,75,82,0
1,note_on,75,0,480
1,note_on,83,0,0
1,note_on,80,0,0
1,note_on,71,0,0
1,note_on,75,79,0
1,note_on,80,79,0
1,note_on,84,88,0
1,note_on,72,79,0
1,note_on,72,0,120
1,note_on,75,0,0
1,note_on,80,0,0
1,note_on,84,0,0
1,note_on,79,84,120
1,note_on,76,84,0
1,note_on,67,75,0
1,note_on,67,0,120
1,note_on,76,0,0
1,note_on,79,0,0
1,note_on,72,80,120
1,note_on,80,90,0
1,note_on,77,80,0
1,note_on,68,80,0
1,note_on,68,0,480
1,note_on,72,0,0
1,note_on,80,0,0
1,note_on,77,0,0
1,note_on,76,83,0
1,note_on,73,83,0
1,note_on,63,74,0
1,note_on,63,0,240
1,note_on,73,0,0
1,note_on,76,0,0
1,note_on,74,74,0
1,note_on,77,83,0
1,note_on,65,74,0
1,note_on,65,0,240
1,note_on,77,0,0
1,note_on,74,0,0
1,note_on,69,88,0
1,note_on,66,79,0
1,note_on,63,79,0
1,note_on,75,88,0
1,note_on,74,78,600
1,note_on,75,0,10
1,note_on,72,76,110
1,note_on,74,0,10
1,note_on,71,78,110
1,note_on,72,0,10
1,note_on,63,0,110
1,note_on,69,0,0
1,note_on,66,0,0
1,note_on,71,0,0
1,note_on,66,65,0
1,note_on,60,65,0
1,note_on,63,65,0
1,note_on,72,74,0
1,note_on,72,0,180
1,note_on,66,0,0
1,note_on,60,0,0
1,note_on,63,0,0
1,note_on,59,62,300
1,note_on,62,62,0
1,note_on,67,69,0
1,note_on,67,0,180
1,note_on,62,0,0
1,note_on,59,0,0
1,note_on,60,64,300
1,note_on,48,58,0
1,note_on,48,0,960
1,note_on,50,47,0
1,note_on,62,52,0
1,note_on,62,0,960
1,note_on,50,0,0
1,note_on,60,0,0
1,note_on,63,39,0
1,note_on,72,44,0
1,note_on,75,44,0
1,note_on,75,0,1920
1,note_on,72,0,0
1,note_on,63,0,0
1,note_on,60,45,0
1,note_on,51,37,0
1,note_on,51,0,160
1,note_on,60,0,0
1,note_on,55,41,0
1,note_on,55,0,160
1,note_on,51,35,0
1,note_on,60,41,0
1,note_on,60,0,160
1,note_on,51,0,0
1,note_on,50,33,0
1,note_on,62,39,0
1,note_on,55,33,0
1,note_on,55,0,480
1,note_on,62,0,0
1,note_on,50,0,0
1,note_on,51,37,0
1,note_on,63,45,0
1,note_on,63,0,160
1,note_on,51,0,0
1,note_on,55,41,0
1,note_on,55,0,160
1,note_on,51,35,0
1,note_on,63,41,0
1,note_on,63,0,160
1,note_on,51,0,0
1,note_on,50,34,0
1,note_on,55,34,0
1,note_on,62,40,0
1,note_on,62,0,480
1,note_on,55,0,0
1,note_on,50,0,0
1,note_on,55,40,0
1,note_on,67,48,0
1,note_on,67,0,160
1,note_on,55,0,0
1,note_on,63,44,0
1,note_on,63,0,160
1,note_on,53,37,0
1,note_on,65,44,0
1,note_on,65,0,160
1,note_on,53,0,0
1,note_on,62,46,0
1,note_on,62,0,480
1,note_on,60,44,0
1,note_on,51,37,0
1,note_on,51,0,160
1,note_on,60,0,0
1,note_on,55,41,0
1,note_on,55,0,160
1,note_on,49,35,0
1,note_on,61,41,0
1,note_on,61,0,160
1,note_on,49,0,0
1,note_on,58,45,0
1,note_on,58,0,480
1,note_on,60,39,0
1,note_on,72,47,0
1,note_on,72,0,160
1,note_on,60,0,0
1,note_on,68,45,0
1,note_on,68,0,160
1,note_on,58,37,0
1,note_on,70,44,0
1,note_on,67,41,156
1,note_on,70,0,4
1,note_on,58,0,0
1,note_on,67,0,476
1,note_on,60,39,4
1,note_on,72,47,0
1,note_on,72,0,160
1,note_on,60,0,0
1,note_on,68,44,0
1,note_on,68,0,160
1,note_on,58,38,0
1,note_on,70,46,0
1,note_on,70,0,160
1,note_on,58,0,0
1,note_on,67,44,0
1,note_on,67,0,160
1,note_on,56,37,0
1,note_on,68,45,0
1,note_on,68,0,160
1,note_on,56,0,0
1,note_on,65,41,0
1,note_on,65,0,160
1,note_on,54,37,0
1,note_on,66,44,0
1,note_on,66,0,160
1,note_on,54,0,0
1,note_on,63,41,0
1,note_on,63,0,160
1,note_on,66,41,0
1,note_on,54,35,0
1,note_on,54,0,160
1,note_on,66,0,0
1,note_on,55,37,0
1,note_on,62,37,0
1,note_on,67,44,0
1,note_on,67,0,480
1,note_on,62,0,0
1,note_on,55,0,0
1,note_on,69,44,0
1,note_on,57,37,4
1,note_on,69,0,156
1,note_on,63,42,0
1,note_on,57,0,4
1,note_on,63,0,156
1,note_on,69,42,0
1,note_on,57,36,4
1,note_on,69,0,156
1,note_on,55,37,0
1,note_on,62,37,0
1,note_on,67,44,0
1,note_on,57,0,4
1,note_on,55,0,476
1,note_on,62,0,0
1,note_on,67,0,0
1,note_on,60,52,0
1,note_on,72,52,0
1,note_on,72,0,160
1,note_on,60,0,0
1,note_on,67,48,0
1,note_on,67,0,160
1,note_on,60,48,0
1,note_on,72,48,0
1,note_on,72,0,160
1,note_on,60,0,0
1,note_on,62,48,0
1,note_on,67,48,0
1,note_on,74,48,0
1,note_on,74,0,480
1,note_on,67,0,0
1,note_on,62,0,0
1,note_on,76,61,0
1,note_on,64,61,0
1,note_on,64,0,160
1,note_on,76,0,0
1,note_on,67,57,0
1,note_on,67,0,160
1,note_on,64,56,0
1,note_on,76,56,0
1,note_on,76,0,160
1,note_on,64,0,0
1,note_on,74,61,0
1,note_on,67,61,0
1,note_on,62,61,0
1,note_on,62,0,480
1,note_on,67,0,0
1,note_on,74,0,0
1,note_on,79,66,0
1,note_on,67,66,0
1,note_on,67,0,160
1,note_on,79,0,0
1,note_on,76,61,0
1,note_on,76,0,160
1,note_on,65,61,0
1,note_on,77,61,0
1,note_on,77,0,160
1,note_on,65,0,0
1,note_on,62,60,0
1,note_on,74,60,0
1,note_on,67,60,0
1,note_on,67,0,480
1,note_on,74,0,0
1,note_on,62,0,0
1,note_on,64,78,0
1,note_on,76,78,0
1,note_on,76,0,160
1,note_on,64,0,0
1,note_on,72,71,0
1,note_on,72,0,160
1,note_on,62,71,0
1,note_on,74,71,0
1,note_on,74,0,160
1,note_on,62,0,0
1,note_on,70,71,0
1,note_on,64,71,0
1,note_on,58,71,0
1,note_on,58,0,480
1,note_on,64,0,0
1,note_on,70,0,0
1,note_on,84,90,0
1,note_on,72,76,0
1,note_on,72,0,160
1,note_on,84,0,0
1,note_on,77,67,0
1,note_on,81,79,0
1,note_on,81,0,80
1,note_on,77,0,0
1,note_on,72,67,80
1,note_on,84,79,0
1,note_on,84,0,120
1,note_on,72,0,0
1,note_on,76,68,40
1,note_on,79,80,0
1,note_on,79,0,480
1,note_on,76,0,0
1,note_on,69,74,0
1,note_on,81,88,0
1,note_on,81,0,160
1,note_on,69,0,0
1,note_on,74,67,0
1,note_on,77,79,0
1,note_on,77,0,80
1,note_on,74,0,0
1,note_on,69,67,80
1,note_on,81,79,0
1,note_on,81,0,80
1,note_on,69,0,0
1,note_on,72,68,80
1,note_on,76,80,0
1,note_on,76,0,480
1,note_on,72,0,0
1,note_on,79,86,0
1,note_on,67,73,0
1,note_on,67,0,160
1,note_on,79,0,0
1,note_on,72,58,0
1,note_on,76,69,0
1,note_on,76,0,160
1,note_on,72,0,0
1,note_on,67,72,0
1,note_on,79,85,0
1,note_on,79,0,160
1,note_on,67,0,0
1,note_on,77,66,0
1,note_on,74,56,0
1,note_on,74,0,160
1,note_on,77,0,0
1,note_on,79,79,0
1,note_on,67,67,0
1,note_on,67,0,160
1,note_on,79,0,0
1,note_on,72,51,0
1,note_on,76,61,0
1,note_on,76,0,160
1,note_on,72,0,0
1,note_on,67,72,0
1,note_on,79,85,0
1,note_on,79,0,160
1,note_on,67,0,0
1,note_on,69,56,0
1,note_on,72,67,0
1,note_on,72,0,160
1,note_on,69,0,0
1,note_on,67,67,0
1,note_on,79,79,0
1,note_on,79,0,160
1,note_on,67,0,0
1,note_on,67,62,0
1,note_on,71,62,0
1,note_on,79,74,0
1,note_on,74,62,0
1,note_on,74,0,480
1,note_on,67,0,0
1,note_on,71,0,0
1,note_on,79,0,0
1,note_on,72,75,0
1,note_on,84,89,0
1,note_on,84,0,160
1,note_on,72,0,0
1,note_on,79,59,0
1,note_on,83,70,0
1,note_on,83,0,160
1,note_on,79,0,0
1,note_on,72,67,0
1,note_on,84,79,0
1,note_on,84,0,160
1,note_on,72,0,0
1,note_on,77,52,0
1,note_on,81,62,0
1,note_on,81,0,160
1,note_on,77,0,0
1,note_on,84,78,0
1,note_on,72,66,0
1,note_on,72,0,160
1,note_on,84,0,0
1,note_on,76,52,0
1,note_on,79,62,0
1,note_on,79,0,160
1,note_on,76,0,0
1,note_on,69,72,0
1,note_on,81,85,0
1,note_on,81,0,160
1,note_on,69,0,0
1,note_on,79,70,0
1,note_on,76,59,0
1,note_on,76,0,160
1,note_on,79,0,0
1,note_on,81,79,0
1,note_on,69,67,0
1,note_on,69,0,160
1,note_on,81,0,0
1,note_on,74,53,0
1,note_on,77,63,0
1,note_on,77,0,160
1,note_on,74,0,0
1,note_on,69,68,0
1,note_on,81,80,0
1,note_on,81,0,160
1,note_on,69,0,0
1,note_on,76,61,0
1,note_on,72,51,0
1,note_on,72,0,160
1,note_on,76,0,0
1,note_on,67,74,0
1,note_on,79,88,0
1,note_on,79,0,160
1,note_on,67,0,0
1,note_on,74,59,0
1,note_on,77,70,0
1,note_on,77,0,160
1,note_on,74,0,0
1,note_on,79,85,0
1,note_on,67,72,0
1,note_on,67,0,160
1,note_on,79,0,0
1,note_on,72,56,0
1,note_on,76,66,0
1,note_on,76,0,160
1,note_on,72,0,0
1,note_on,67,70,0
1,note_on,79,83,0
1,note_on,79,0,160
1,note_on,67,0,0
1,note_on,69,56,0
1,note_on,72,66,0
1,note_on,72,0,160
1,note_on,69,0,0
1,note_on,79,82,0
1,note_on,67,69,0
1,note_on,71,69,0
1,note_on,74,69,0
1,note_on,74,0,480
1,note_on,79,0,0
1,note_on,67,0,0
1,note_on,71,0,0
1,note_on,60,73,0
1,note_on,72,84,0
1,note_on,72,0,240
1,note_on,60,0,0
1,note_on,48,70,240
1,note_on,60,79,0
1,note_on,48,0,960
1,note_on,62,61,0
1,note_on,50,55,0
1,note_on,50,0,960
1,note_on,62,0,0
1,note_on,60,0,0
1,note_on,72,48,0
1,note_on,63,42,0
1,note_on,75,48,0
1,note_on,75,0,1920
1,note_on,63,0,0
1,note_on,72,0,0
1,note_on,48,41,0
1,note_on,60,47,0
1,note_on,48,0,480
1,note_on,62,49,0
1,note_on,50,44,0
1,note_on,50,0,480
1,note_on,62,0,0
1,note_on,60,0,0
1,note_on,77,52,0
1,note_on,65,47,0
1,note_on,72,52,0
1,note_on,65,0,480
1,note_on,77,0,0
1,note_on,64,45,0
1,note_on,76,50,0
1,note_on,76,0,480
1,note_on,64,0,0
1,note_on,72,0,0
1,note_on,75,37,0
1,note_on,87,41,0
1,note_on,84,41,0
1,note_on,60,27,1800
1,note_on,63,27,40
1,note_on,68,27,40
1,note_on,84,0,40
1,note_on,75,0,0
1,note_on,87,0,0
1,note_on,72,39,0
1,note_on,72,0,240
1,note_on,68,0,0
1,note_on,63,0,0
1,note_on,60,0,0
1,note_on,73,39,0
1,note_on,73,0,120
1,note_on,60,26,0
1,note_on,63,26,32
1,note_on,68,26,32
1,note_on,72,39,32
1,note_on,74,39,32
1,note_on,74,0,232
1,note_on,68,0,0
1,note_on,60,0,0
1,note_on,63,0,0
1,note_on,72,0,0
1,note_on,75,41,0
1,note_on,75,0,120
1,note_on,68,28,0
1,note_on,80,29,60
1,note_on,84,44,60
1,note_on,84,0,120
1,note_on,68,0,0
1,note_on,80,0,120
1,note_on,79,42,0
1,note_on,79,0,120
1,note_on,68,28,0
1,note_on,80,28,40
1,note_on,77,27,40
1,note_on,84,40,40
1,note_on,84,0,120
1,note_on,68,0,0
1,note_on,80,0,0
1,note_on,77,0,120
1,note_on,76,39,0
1,note_on,76,0,120
1,note_on,68,26,0
1,note_on,80,26,60
1,note_on,84,26,60
1,note_on,75,39,0
1,note_on,84,0,120
1,note_on,68,0,0
1,note_on,80,0,0
1,note_on,68,24,240
1,note_on,80,25,60
1,note_on,84,40,60
1,note_on,84,0,120
1,note_on,80,0,0
1,note_on,68,0,0
1,note_on,82,26,240
1,note_on,79,26,60
1,note_on,75,0,60
1,note_on,73,41,0
1,note_on,73,0,240
1,note_on,79,0,0
1,note_on,82,0,0
1,note_on,72,40,0
1,note_on,72,0,120
1,note_on,79,26,0
1,note_on,75,26,60
1,note_on,70,39,60
1,note_on,70,0,240
1,note_on,75,0,0
1,note_on,79,0,0
1,note_on,72,40,0
1,note_on,72,0,120
1,note_on,80,25,0
1,note_on,77,25,60
1,note_on,73,42,60
1,note_on,73,0,240
1,note_on,77,0,0
1,note_on,80,0,0
1,note_on,72,42,0
1,note_on,72,0,120
1,note_on,77,26,0
1,note_on,73,26,60
1,note_on,70,41,60
1,note_on,70,0,240
1,note_on,73,0,0
1,note_on,77,0,0
1,note_on,68,40,0
1,note_on,68,0,120
1,note_on,75,25,0
1,note_on,70,25,60
1,note_on,67,42,60
1,note_on,67,0,240
1,note_on,70,0,0
1,note_on,75,0,0
1,note_on,65,41,0
1,note_on,65,0,120
1,note_on,73,24,0
1,note_on,70,24,60
1,note_on,63,40,60
1,note_on,63,0,240
1,note_on,70,0,0
1,note_on,73,0,0
1,note_on,65,41,0
1,note_on,65,0,120
1,note_on,75,28,0
1,note_on,73,28,60
1,note_on,67,44,60
1,note_on,67,0,240
1,note_on,73,0,0
1,note_on,75,0,0
1,note_on,70,40,0
1,note_on,70,0,120
1,note_on,75,26,0
1,note_on,73,26,60
1,note_on,65,42,60
1,note_on,65,0,240
1,note_on,73,0,0
1,note_on,75,0,0
1,note_on,68,38,0
1,note_on,68,0,120
1,note_on,75,26,0
1,note_on,72,26,60
1,note_on,63,40,60
1,note_on,63,0,240
1,note_on,72,0,0
1,note_on,75,0,0
1,note_on,67,35,0
1,note_on,67,0,120
1,note_on,75,25,0
1,note_on,70,25,60
1,note_on,61,39,60
1,note_on,61,0,240
1,note_on,70,0,0
1,note_on,75,0,0
1,note_on,65,33,0
1,note_on,65,0,120
1,note_on,60,39,0
1,note_on,68,30,60
1,note_on,72,30,60
1,note_on,68,0,60
1,note_on,72,0,60
1,note_on,60,0,0
1,note_on,61,39,0
1,note_on,61,0,240
1,note_on,62,39,0
1,note_on,68,30,60
1,note_on,72,30,60
1,note_on,68,0,60
1,note_on,72,0,60
1,note_on,62,0,0
1,note_on,63,41,0
1,note_on,60,31,180
1,note_on,63,0,60
1,note_on,72,44,0
1,note_on,60,0,60
1,note_on,75,33,0
1,note_on,75,0,120
1,note_on,72,0,60
1,note_on,68,42,0
1,note_on,68,0,240
1,note_on,65,40,0
1,note_on,72,33,60
1,note_on,75,33,60
1,note_on,72,0,60
1,note_on,75,0,60
1,note_on,65,0,0
1,note_on,66,39,0
1,note_on,66,0,180
1,note_on,67,39,60
1,note_on,72,31,60
1,note_on,75,31,60
1,note_on,72,0,60
1,note_on,75,0,60
1,note_on,72,31,240
1,note_on,75,31,60
1,note_on,72,0,60
1,note_on,79,31,0
1,note_on,75,0,60
1,note_on,79,0,60
1,note_on,83,26,120
1,note_on,79,26,60
1,note_on,67,0,60
1,note_on,75,41,0
1,note_on,75,0,240
1,note_on,79,0,0
1,note_on,83,0,0
1,note_on,74,40,0
1,note_on,74,0,120
1,note_on,79,26,0
1,note_on,75,26,60
1,note_on,72,39,60
1,note_on,72,0,240
1,note_on,75,0,0
1,note_on,79,0,0
1,note_on,67,40,0
1,note_on,67,0,120
1,note_on,77,25,0
1,note_on,74,25,60
1,note_on,70,42,60
1,note_on,70,0,240
1,note_on,74,0,0
1,note_on,77,0,0
1,note_on,68,42,0
1,note_on,68,0,120
1,note_on,74,26,0
1,note_on,71,26,60
1,note_on,67,41,60
1,note_on,67,0,240
1,note_on,71,0,0
1,note_on,74,0,0
1,note_on,65,40,0
1,note_on,65,0,120
1,note_on,71,25,0
1,note_on,67,25,60
1,note_on,63,42,60
1,note_on,63,0,240
1,note_on,67,0,0
1,note_on,71,0,0
1,note_on,62,41,0
1,note_on,62,0,120
1,note_on,67,24,0
1,note_on,63,24,60
1,note_on,60,40,60
1,note_on,60,0,240
1,note_on,63,0,0
1,note_on,67,0,0
1,note_on,55,41,0
1,note_on,55,0,120
1,note_on,67,28,0
1,note_on,63,28,60
1,note_on,60,44,60
1,note_on,60,0,240
1,note_on,63,0,0
1,note_on,67,0,0
1,note_on,58,40,0
1,note_on,58,0,120
1,note_on,63,26,0
1,note_on,60,26,60
1,note_on,56,42,60
1,note_on,56,0,240
1,note_on,63,0,0
1,note_on,60,0,240
1,note_on,62,39,0
1,note_on,59,39,0
1,note_on,55,39,0
1,note_on,55,0,480
1,note_on,53,38,0
1,note_on,53,0,480
1,note_on,59,0,0
1,note_on,62,0,0
1,note_on,67,30,0
1,note_on,55,30,0
1,note_on,63,30,0
1,note_on,63,0,480
1,note_on,55,0,0
1,note_on,67,0,0
1,note_on,57,36,0
1,note_on,66,36,0
1,note_on,69,36,0
1,note_on,69,0,480
1,note_on,66,0,0
1,note_on,57,0,0
1,note_on,58,39,0
1,note_on,70,39,0
1,note_on,67,39,0
1,note_on,67,0,960
1,note_on,70,0,0
1,note_on,58,0,0
1,note_on,79,30,0
1,note_on,75,30,0
1,note_on,67,30,0
1,note_on,67,0,480
1,note_on,75,0,0
1,note_on,79,0,0
1,note_on,69,34,0
1,note_on,78,34,0
1,note_on,81,34,0
1,note_on,81,0,480
1,note_on,78,0,0
1,note_on,69,0,0
1,note_on,82,30,0
1,note_on,70,30,0
1,note_on,79,30,0
1,note_on,79,0,960
1,note_on,70,0,0
1,note_on,82,0,0
1,note_on,55,30,0
1,note_on,64,30,0
1,note_on,67,30,0
1,note_on,67,0,480
1,note_on,64,0,0
1,note_on,55,0,0
1,note_on,57,33,0
1,note_on,69,33,0
1,note_on,66,33,0
1,note_on,66,0,480
1,note_on,69,0,0
1,note_on,57,0,0
1,note_on,70,36,0
1,note_on,58,36,0
1,note_on,67,36,0
1,note_on,67,0,480
1,note_on,58,0,0
1,note_on,70,0,0
1,note_on,60,39,0
1,note_on,69,39,0
1,note_on,72,39,0
1,note_on,72,0,480
1,note_on,69,0,0
1,note_on,60,0,0
1,note_on,61,44,0
1,note_on,70,44,0
1,note_on,73,44,0
1,note_on,73,0,480
1,note_on,70,0,0
1,note_on,61,0,0
1,note_on,72,48,0
1,note_on,64,48,0
1,note_on,76,48,0
1,note_on,76,0,480
1,note_on,64,0,0
1,note_on,72,0,0
1,note_on,73,51,0
1,note_on,65,51,0
1,note_on,77,51,0
1,note_on,77,0,480
1,note_on,65,0,0
1,note_on,79,55,0
1,note_on,67,55,0
1,note_on,67,0,480
1,note_on,79,0,0
1,note_on,73,0,0
1,note_on,72,45,0
1,note_on,80,30,60
1,note_on,84,34,60
1,note_on,80,0,60
1,note_on,84,0,60
1,note_on,72,0,0
1,note_on,73,46,0
1,note_on,73,0,240
1,note_on,74,48,0
1,note_on,80,35,60
1,note_on,84,35,60
1,note_on,84,0,120
1,note_on,80,0,0
1,note_on,74,0,0
1,note_on,75,49,0
1,note_on,72,35,180
1,note_on,75,0,60
1,note_on,80,53,0
1,note_on,72,0,60
1,note_on,84,38,0
1,note_on,84,0,120
1,note_on,80,0,60
1,note_on,79,49,0
1,note_on,79,0,240
1,note_on,77,49,0
1,note_on,80,35,60
1,note_on,84,35,60
1,note_on,80,0,60
1,note_on,84,0,60
1,note_on,77,0,0
1,note_on,76,48,0
1,note_on,76,0,240
1,note_on,72,31,0
1,note_on,75,47,0
1,note_on,80,31,60
1,note_on,72,0,60
1,note_on,84,31,0
1,note_on,80,0,60
1,note_on,84,0,60
1,note_on,72,31,240
1,note_on,80,31,60
1,note_on,72,0,60
1,note_on,84,31,0
1,note_on,80,0,60
1,note_on,84,0,60
1,note_on,82,26,120
1,note_on,79,26,60
1,note_on,75,0,60
1,note_on,73,41,0
1,note_on,73,0,240
1,note_on,79,0,0
1,note_on,82,0,0
1,note_on,72,40,0
1,note_on,72,0,120
1,note_on,79,26,0
1,note_on,75,26,60
1,note_on,70,39,60
1,note_on,70,0,240
1,note_on,75,0,0
1,note_on,79,0,0
1,note_on,72,40,0
1,note_on,72,0,120
1,note_on,80,25,0
1,note_on,77,25,60
1,note_on,73,42,60
1,note_on,73,0,240
1,note_on,77,0,0
1,note_on,80,0,0
1,note_on,72,42,0
1,note_on,72,0,120
1,note_on,77,26,0
1,note_on,73,26,60
1,note_on,70,41,60
1,note_on,70,0,240
1,note_on,73,0,0
1,note_on,77,0,0
1,note_on,68,40,0
1,note_on,68,0,120
1,note_on,75,25,0
1,note_on,70,25,60
1,note_on,67,42,60
1,note_on,67,0,240
1,note_on,70,0,0
1,note_on,75,0,0
1,note_on,65,41,0
1,note_on,65,0,120
1,note_on,73,24,0
1,note_on,70,24,60
1,note_on,63,40,60
1,note_on,63,0,240
1,note_on,70,0,0
1,note_on,73,0,0
1,note_on,65,41,0
1,note_on,65,0,120
1,note_on,75,28,0
1,note_on,73,28,60
1,note_on,67,44,60
1,note_on,67,0,240
1,note_on,73,0,0
1,note_on,75,0,0
1,note_on,70,40,0
1,note_on,70,0,120
1,note_on,75,26,0
1,note_on,73,26,60
1,note_on,65,42,60
1,note_on,65,0,240
1,note_on,73,0,0
1,note_on,75,0,0
1,note_on,68,38,0
1,note_on,68,0,120
1,note_on,75,26,0
1,note_on,72,26,60
1,note_on,63,40,60
1,note_on,63,0,240
1,note_on,72,0,0
1,note_on,75,0,0
1,note_on,67,35,0
1,note_on,67,0,120
1,note_on,75,25,0
1,note_on,70,25,60
1,note_on,61,39,60
1,note_on,61,0,240
1,note_on,70,0,0
1,note_on,75,0,0
1,note_on,65,33,0
1,note_on,65,0,120
1,note_on,60,39,120
1,note_on,68,30,60
1,note_on,72,30,60
1,note_on,68,0,60
1,note_on,72,0,60
1,note_on,60,0,0
1,note_on,61,39,0
1,note_on,61,0,240
1,note_on,62,39,0
1,note_on,68,30,60
1,note_on,72,30,60
1,note_on,68,0,60
1,note_on,72,0,60
1,note_on,62,0,0
1,note_on,63,41,0
1,note_on,63,0,240
1,note_on,60,39,0
1,note_on,72,44,60
1,note_on,75,33,60
1,note_on,72,0,60
1,note_on,75,0,60
1,note_on,60,0,0
1,note_on,68,42,0
1,note_on,68,0,240
1,note_on,65,40,0
1,note_on,72,33,60
1,note_on,75,33,60
1,note_on,72,0,60
1,note_on,75,0,60
1,note_on,65,0,0
1,note_on,64,39,0
1,note_on,64,0,240
1,note_on,60,42,0
1,note_on,63,35,60
1,note_on,67,35,60
1,note_on,72,35,60
1,note_on,72,0,60
1,note_on,60,0,0
1,note_on,63,0,0
1,note_on,67,0,0
1,note_on,73,42,0
1,note_on,70,42,0
1,note_on,61,42,0
1,note_on,61,0,240
1,note_on,70,0,0
1,note_on,73,0,0
1,note_on,62,49,0
1,note_on,74,49,0
1,note_on,71,49,0
1,note_on,71,0,240
1,note_on,74,0,0
1,note_on,62,0,0
1,note_on,75,53,0
1,note_on,72,53,0
1,note_on,63,53,0
1,note_on,63,0,240
1,note_on,72,0,0
1,note_on,75,0,0
1,note_on,87,63,0
1,note_on,78,63,0
1,note_on,75,63,0
1,note_on,75,0,240
1,note_on,78,0,0
1,note_on,87,0,0
1,note_on,84,50,0
1,note_on,72,50,0
1,note_on,80,50,0
1,note_on,80,0,240
1,note_on,72,0,0
1,note_on,84,0,0
1,note_on,80,46,0
1,note_on,77,46,0
1,note_on,68,46,0
1,note_on,68,0,240
1,note_on,77,0,0
1,note_on,80,0,0
1,note_on,78,42,0
1,note_on,75,42,0
1,note_on,66,42,0
1,note_on,66,0,240
1,note_on,75,0,0
1,note_on,78,0,0
1,note_on,77,41,0
1,note_on,65,41,0
1,note_on,73,41,0
1,note_on,73,0,480
1,note_on,65,0,0
1,note_on,77,0,0
1,note_on,73,39,0
1,note_on,76,39,0
1,note_on,64,39,0
1,note_on,64,0,480
1,note_on,76,0,0
1,note_on,73,0,0
1,note_on,63,35,0
1,note_on,72,35,0
1,note_on,75,35,0
1,note_on,75,0,960
1,note_on,72,0,0
1,note_on,63,0,0
1,note_on,68,31,0
1,note_on,56,31,0
1,note_on,63,31,0
1,note_on,63,0,480
1,note_on,56,0,0
1,note_on,68,0,0
1,note_on,55,30,0
1,note_on,63,30,0
1,note_on,67,30,0
1,note_on,67,0,480
1,note_on,63,0,0
1,note_on,55,0,0
1,note_on,63,25,0
1,note_on,54,25,0
1,note_on,66,25,0
1,note_on,66,0,960
1,note_on,54,0,0
1,note_on,63,0,0
1,note_on,79,35,0
1,note_on,72,35,0
1,note_on,67,35,0
1,note_on,67,0,480
1,note_on,72,0,0
1,note_on,79,0,0
1,note_on,79,31,0
1,note_on,74,31,0
1,note_on,67,31,0
1,note_on,67,0,480
1,note_on,74,0,0
1,note_on,79,0,0
1,note_on,75,35,0
1,note_on,79,35,0
1,note_on,67,35,0
1,note_on,67,0,480
1,note_on,79,0,0
1,note_on,75,0,0
1,note_on,79,33,0
1,note_on,74,33,0
1,note_on,67,33,0
1,note_on,67,0,480
1,note_on,74,0,0
1,note_on,79,0,0
1,note_on,79,39,0
1,note_on,67,39,0
1,note_on,75,35,160
1,note_on,75,0,160
1,note_on,77,35,0
1,note_on,77,0,160
1,note_on,67,0,0
1,note_on,79,0,0
1,note_on,74,36,0
1,note_on,67,36,0
1,note_on,79,36,0
1,note_on,79,0,480
1,note_on,67,0,0
1,note_on,74,0,0
1,note_on,79,37,0
1,note_on,75,37,0
1,note_on,67,37,0
1,note_on,75,0,160
1,note_on,72,34,0
1,note_on,72,0,160
1,note_on,73,34,0
1,note_on,73,0,160
1,note_on,67,0,0
1,note_on,79,0,0
1,note_on,70,36,0
1,note_on,67,36,0
1,note_on,79,36,0
1,note_on,79,0,480
1,note_on,67,0,0
1,note_on,70,0,0
1,note_on,84,52,0
1,note_on,72,52,0
1,note_on,72,0,160
1,note_on,84,0,0
1,note_on,80,48,0
1,note_on,80,0,160
1,note_on,70,48,0
1,note_on,82,48,0
1,note_on,82,0,160
1,note_on,70,0,0
1,note_on,79,53,0
1,note_on,79,0,480
1,note_on,72,50,0
1,note_on,84,50,0
1,note_on,84,0,160
1,note_on,72,0,0
1,note_on,80,44,0
1,note_on,80,0,160
1,note_on,82,48,0
1,note_on,70,48,0
1,note_on,70,0,160
1,note_on,82,0,0
1,note_on,79,40,0
1,note_on,79,0,160
1,note_on,68,44,0
1,note_on,80,44,0
1,note_on,80,0,160
1,note_on,68,0,0
1,note_on,77,42,0
1,note_on,77,0,160
1,note_on,78,45,0
1,note_on,66,45,0
1,note_on,66,0,160
1,note_on,78,0,0
1,note_on,75,45,0
1,note_on,75,0,160
1,note_on,66,45,0
1,note_on,78,45,0
1,note_on,78,0,160
1,note_on,66,0,0
1,note_on,67,41,0
1,note_on,74,41,0
1,note_on,79,41,0
1,note_on,79,0,480
1,note_on,74,0,0
1,note_on,67,0,0
1,note_on,81,48,0
1,note_on,69,48,0
1,note_on,69,0,160
1,note_on,81,0,0
1,note_on,75,48,0
1,note_on,75,0,160
1,note_on,69,48,0
1,note_on,81,48,0
1,note_on,81,0,160
1,note_on,69,0,0
1,note_on,67,45,0
1,note_on,79,45,0
1,note_on,74,45,0
1,note_on,74,0,480
1,note_on,79,0,0
1,note_on,67,0,0
1,note_on,72,61,0
1,note_on,84,61,0
1,note_on,84,0,160
1,note_on,72,0,0
1,note_on,79,59,0
1,note_on,79,0,160
1,note_on,72,59,0
1,note_on,84,59,0
1,note_on,84,0,160
1,note_on,72,0,0
1,note_on,86,58,0
1,note_on,79,58,0
1,note_on,74,58,0
1,note_on,74,0,480
1,note_on,79,0,0
1,note_on,86,0,0
1,note_on,88,69,0
1,note_on,76,69,0
1,note_on,76,0,160
1,note_on,88,0,0
1,note_on,79,66,0
1,note_on,79,0,160
1,note_on,76,66,0
1,note_on,88,66,0
1,note_on,88,0,160
1,note_on,76,0,0
1,note_on,74,69,0
1,note_on,86,69,0
1,note_on,79,69,0
1,note_on,79,0,480
1,note_on,86,0,0
1,note_on,74,0,0
1,note_on,79,80,0
1,note_on,91,80,0
1,note_on,91,0,160
1,note_on,79,0,0
1,note_on,88,77,0
1,note_on,88,0,160
1,note_on,89,77,0
1,note_on,77,65,0
1,note_on,77,0,160
1,note_on,89,0,0
1,note_on,74,70,0
1,note_on,62,70,0
1,note_on,67,70,0
1,note_on,67,0,480
1,note_on,62,0,0
1,note_on,74,0,0
1,note_on,88,88,0
1,note_on,76,74,0
1,note_on,76,0,160
1,note_on,88,0,0
1,note_on,79,84,0
1,note_on,79,0,160
1,note_on,86,84,0
1,note_on,74,71,0
1,note_on,74,0,160
1,note_on,86,0,0
1,note_on,70,79,0
1,note_on,64,79,0
1,note_on,58,67,0
1,note_on,58,0,480
1,note_on,64,0,0
1,note_on,70,0,0
1,note_on,72,78,0
1,note_on,84,92,0
1,note_on,84,0,160
1,note_on,72,0,0
1,note_on,77,74,0
1,note_on,81,88,0
1,note_on,81,0,80
1,note_on,77,0,0
1,note_on,72,74,80
1,note_on,84,88,0
1,note_on,84,0,120
1,note_on,72,0,0
1,note_on,76,92,40
1,note_on,67,78,0
1,note_on,79,92,0
1,note_on,79,0,480
1,note_on,67,0,0
1,note_on,76,0,0
1,note_on,69,77,0
1,note_on,81,91,0
1,note_on,81,0,160
1,note_on,69,0,0
1,note_on,77,86,0
1,note_on,74,73,0
1,note_on,74,0,80
1,note_on,77,0,0
1,note_on,69,73,80
1,note_on,81,86,0
1,note_on,81,0,120
1,note_on,69,0,0
1,note_on,72,92,40
1,note_on,64,78,0
1,note_on,76,92,0
1,note_on,76,0,480
1,note_on,64,0,0
1,note_on,72,0,0
1,note_on,67,78,0
1,note_on,79,92,0
1,note_on,79,0,160
1,note_on,67,0,0
1,note_on,72,70,0
1,note_on,76,83,0
1,note_on,76,0,160
1,note_on,72,0,0
1,note_on,79,92,0
1,note_on,67,78,0
1,note_on,67,0,160
1,note_on,79,0,0
1,note_on,74,70,0
1,note_on,77,83,0
1,note_on,77,0,160
1,note_on,74,0,0
1,note_on,67,78,0
1,note_on,79,92,0
1,note_on,79,0,160
1,note_on,67,0,0
1,note_on,76,83,0
1,note_on,72,70,0
1,note_on,72,0,160
1,note_on,76,0,0
1,note_on,79,92,0
1,note_on,67,78,0
1,note_on,67,0,160
1,note_on,79,0,0
1,note_on,69,73,0
1,note_on,72,86,0
1,note_on,72,0,160
1,note_on,69,0,0
1,note_on,67,73,0
1,note_on,79,86,0
1,note_on,79,0,160
1,note_on,67,0,0
1,note_on,74,77,0
1,note_on,67,69,0
1,note_on,71,76,0
1,note_on,79,92,0
1,note_on,79,0,480
1,note_on,74,0,0
1,note_on,67,0,0
1,note_on,71,0,0
1,note_on,72,75,0
1,note_on,84,89,0
1,note_on,84,0,160
1,note_on,72,0,0
1,note_on,83,70,0
1,note_on,79,59,0
1,note_on,79,0,160
1,note_on,83,0,0
1,note_on,72,67,0
1,note_on,84,79,0
1,note_on,84,0,160
1,note_on,72,0,0
1,note_on,77,52,0
1,note_on,81,62,0
1,note_on,81,0,160
1,note_on,77,0,0
1,note_on,72,66,0
1,note_on,84,78,0
1,note_on,84,0,160
1,note_on,72,0,0
1,note_on,76,52,0
1,note_on,79,62,0
1,note_on,79,0,160
1,note_on,76,0,0
1,note_on,81,85,0
1,note_on,69,72,0
1,note_on,69,0,160
1,note_on,81,0,0
1,note_on,76,59,0
1,note_on,79,70,0
1,note_on,79,0,160
1,note_on,76,0,0
1,note_on,69,67,0
1,note_on,81,79,0
1,note_on,81,0,160
1,note_on,69,0,0
1,note_on,77,63,0
1,note_on,74,53,0
1,note_on,74,0,160
1,note_on,77,0,0
1,note_on,81,80,0
1,note_on,69,68,0
1,note_on,69,0,160
1,note_on,81,0,0
1,note_on,72,51,0
1,note_on,76,61,0
1,note_on,76,0,160
1,note_on,72,0,0
1,note_on,67,74,0
1,note_on,79,88,0
1,note_on,79,0,160
1,note_on,67,0,0
1,note_on,77,70,0
1,note_on,74,59,0
1,note_on,74,0,160
1,note_on,77,0,0
1,note_on,67,72,0
1,note_on,79,85,0
1,note_on,79,0,160
1,note_on,67,0,0
1,note_on,72,56,0
1,note_on,76,66,0
1,note_on,76,0,160
1,note_on,72,0,0
1,note_on,79,83,0
1,note_on,67,70,0
1,note_on,67,0,160
1,note_on,79,0,0
1,note_on,69,56,0
1,note_on,72,66,0
1,note_on,72,0,160
1,note_on,69,0,0
1,note_on,67,66,0
1,note_on,72,66,0
1,note_on,76,92,0
1,note_on,79,92,0
1,note_on,79,0,480
1,note_on,67,0,0
1,note_on,72,0,0
1,note_on,76,0,0
1,note_on,79,89,0
1,note_on,67,62,0
1,note_on,71,70,0
1,note_on,74,79,0
1,note_on,74,0,120
1,note_on,79,0,0
1,note_on,67,0,0
1,note_on,71,0,0
1,note_on,64,37,240
1,note_on,60,37,0
1,note_on,55,37,0
1,note_on,55,0,120
1,note_on,60,0,0
1,note_on,64,0,0
1,note_on,55,37,120
1,note_on,59,37,0
1,note_on,62,37,0
1,note_on,62,0,120
1,note_on,59,0,0
1,note_on,55,0,0
1,note_on,64,35,120
1,note_on,60,35,0
1,note_on,55,35,0
1,note_on,55,0,120
1,note_on,60,0,0
1,note_on,64,0,0
1,note_on,65,37,360
1,note_on,60,37,0
1,note_on,57,37,0
1,note_on,57,0,120
1,note_on,60,0,0
1,note_on,65,0,0
1,note_on,60,37,120
1,note_on,64,37,0
1,note_on,55,37,0
1,note_on,55,0,120
1,note_on,64,0,0
1,note_on,60,0,0
1,note_on,60,35,120
1,note_on,57,35,0
1,note_on,62,35,0
1,note_on,62,0,120
1,note_on,57,0,0
1,note_on,60,0,0
1,note_on,55,37,360
1,note_on,60,37,0
1,note_on,64,37,0
1,note_on,64,0,120
1,note_on,60,0,0
1,note_on,55,0,0
1,note_on,62,37,120
1,note_on,59,37,0
1,note_on,53,37,0
1,note_on,53,0,120
1,note_on,59,0,0
1,note_on,62,0,0
1,note_on,52,35,120
1,note_on,60,35,0
1,note_on,60,0,120
1,note_on,52,0,0
1,note_on,59,37,120
1,note_on,50,37,0
1,note_on,62,37,0
1,note_on,62,0,120
1,note_on,50,0,0
1,note_on,59,0,0
1,note_on,55,37,120
1,note_on,55,0,120
1,note_on,60,37,360
1,note_on,57,37,0
1,note_on,48,37,0
1,note_on,48,0,120
1,note_on,57,0,0
1,note_on,60,0,0
1,note_on,67,37,360
1,note_on,60,37,0
1,note_on,72,37,0
1,note_on,71,37,0
1,note_on,71,0,120
1,note_on,67,0,0
1,note_on,60,0,0
1,note_on,72,0,0
1,note_on,84,37,360
1,note_on,81,37,0
1,note_on,77,37,0
1,note_on,72,37,0
1,note_on,72,0,120
1,note_on,84,0,0
1,note_on,81,0,0
1,note_on,77,0,0
1,note_on,76,36,360
1,note_on,84,36,0
1,note_on,79,36,0
1,note_on,79,0,120
1,note_on,84,0,0
1,note_on,76,0,0
1,note_on,83,37,120
1,note_on,79,37,0
1,note_on,74,37,0
1,note_on,74,0,120
1,note_on,79,0,0
1,note_on,83,0,0
1,note_on,76,35,120
1,note_on,79,35,0
1,note_on,84,35,0
1,note_on,84,0,120
1,note_on,79,0,0
1,note_on,76,0,0
1,note_on,81,35,360
1,note_on,84,35,0
1,note_on,88,35,0
1,note_on,88,0,120
1,note_on,84,0,0
1,note_on,81,0,0
1,note_on,86,37,120
1,note_on,81,37,0
1,note_on,77,37,0
1,note_on,77,0,120
1,note_on,81,0,0
1,note_on,86,0,0
1,note_on,76,35,120
1,note_on,84,35,0
1,note_on,81,35,0
1,note_on,81,0,120
1,note_on,84,0,0
1,note_on,76,0,0
1,note_on,83,35,360
1,note_on,79,35,0
1,note_on,76,35,0
1,note_on,76,0,120
1,note_on,79,0,0
1,note_on,83,0,0
1,note_on,81,37,120
1,note_on,76,37,0
1,note_on,72,37,0
1,note_on,72,0,120
1,note_on,76,0,0
1,note_on,81,0,0
1,note_on,79,35,120
1,note_on,76,35,0
1,note_on,71,35,0
1,note_on,71,0,120
1,note_on,76,0,0
1,note_on,79,0,0
1,note_on,66,39,120
1,note_on,75,39,0
1,note_on,78,39,0
1,note_on,78,0,120
1,note_on,75,0,0
1,note_on,66,0,0
1,note_on,71,37,120
1,note_on,71,0,120
1,note_on,76,37,360
1,note_on,76,0,120
1,note_on,76,28,360
1,note_on,75,28,0
1,note_on,64,28,0
1,note_on,64,0,120
1,note_on,75,0,0
1,note_on,76,0,0
1,note_on,64,27,360
1,note_on,62,27,0
1,note_on,52,27,0
1,note_on,52,0,120
1,note_on,62,0,0
1,note_on,64,0,0
1,note_on,55,28,240
1,note_on,60,28,0
1,note_on,64,28,0
1,note_on,64,0,120
1,note_on,60,0,0
1,note_on,55,0,0
1,note_on,62,29,120
1,note_on,59,29,0
1,note_on,55,29,0
1,note_on,55,0,120
1,note_on,59,0,0
1,note_on,62,0,0
1,note_on,55,27,120
1,note_on,64,27,0
1,note_on,60,27,0
1,note_on,60,0,120
1,note_on,64,0,0
1,note_on,55,0,0
1,note_on,65,35,360
1,note_on,60,35,0
1,note_on,57,35,0
1,note_on,57,0,120
1,note_on,60,0,0
1,note_on,65,0,0
1,note_on,64,35,120
1,note_on,55,35,0
1,note_on,60,35,0
1,note_on,60,0,120
1,note_on,55,0,0
1,note_on,64,0,0
1,note_on,62,33,120
1,note_on,57,33,0
1,note_on,60,33,0
1,note_on,60,0,120
1,note_on,57,0,0
1,note_on,62,0,0
1,note_on,64,33,360
1,note_on,60,33,0
1,note_on,55,33,0
1,note_on,55,0,120
1,note_on,60,0,0
1,note_on,64,0,0
1,note_on,53,33,120
1,note_on,62,33,0
1,note_on,59,33,0
1,note_on,59,0,120
1,note_on,62,0,0
1,note_on,53,0,0
1,note_on,52,31,120
1,note_on,60,31,0
1,note_on,60,0,120
1,note_on,52,0,0
1,note_on,50,31,120
1,note_on,62,31,0
1,note_on,59,31,0
1,note_on,59,0,120
1,note_on,62,0,0
1,note_on,50,0,0
1,note_on,55,30,120
1,note_on,55,0,120
1,note_on,60,30,360
1,note_on,48,30,0
1,note_on,48,0,120
1,note_on,60,0,0
1,note_on,72,26,360
1,note_on,70,26,0
1,note_on,60,26,0
1,note_on,60,0,120
1,note_on,70,0,0
1,note_on,72,0,0
1,note_on,84,24,360
1,note_on,80,24,0
1,note_on,72,24,0
1,note_on,72,0,120
1,note_on,80,0,0
1,note_on,84,0,0
1,note_on,84,29,360
1,note_on,79,29,0
1,note_on,75,29,0
1,note_on,75,0,240
1,note_on,84,0,0
1,note_on,83,29,0
1,note_on,74,29,0
1,note_on,74,0,240
1,note_on,83,0,0
1,note_on,75,28,0
1,note_on,84,28,0
1,note_on,84,0,240
1,note_on,75,0,0
1,note_on,79,0,0
1,note_on,72,26,240
1,note_on,79,26,0
1,note_on,75,26,0
1,note_on,75,0,240
1,note_on,79,0,0
1,note_on,74,26,0
1,note_on,77,26,0
1,note_on,77,0,240
1,note_on,74,0,0
1,note_on,75,25,0
1,note_on,79,25,0
1,note_on,79,0,240
1,note_on,75,0,0
1,note_on,72,0,0
1,note_on,75,26,240
1,note_on,67,26,0
1,note_on,72,26,0
1,note_on,72,0,240
1,note_on,75,0,0
1,note_on,71,26,0
1,note_on,74,26,0
1,note_on,74,0,240
1,note_on,71,0,0
1,note_on,72,26,0
1,note_on,75,26,0
1,note_on,75,0,240
1,note_on,72,0,0
1,note_on,67,0,0
1,note_on,72,29,0
1,note_on,68,29,0
1,note_on,68,0,480
1,note_on,72,0,0
1,note_on,68,27,0
1,note_on,65,27,0
1,note_on,72,27,0
1,note_on,72,0,480
1,note_on,65,0,0
1,note_on,68,0,0
1,note_on,72,26,0
1,note_on,68,26,0
1,note_on,60,26,0
1,note_on,60,0,480
1,note_on,68,0,0
1,note_on,72,0,0
1,note_on,65,25,0
1,note_on,73,25,0
1,note_on,73,0,480
1,note_on,65,0,0
1,note_on,80,29,240
1,note_on,86,29,0
1,note_on,77,29,0
1,note_on,77,0,240
1,note_on,86,0,0
1,note_on,84,29,0
1,note_on,75,29,0
1,note_on,75,0,240
1,note_on,84,0,0
1,note_on,77,27,0
1,note_on,86,27,0
1,note_on,86,0,240
1,note_on,77,0,0
1,note_on,80,0,0
1,note_on,82,26,240
1,note_on,79,26,0
1,note_on,74,26,0
1,note_on,79,0,240
1,note_on,82,0,0
1,note_on,77,26,0
1,note_on,80,26,0
1,note_on,80,0,240
1,note_on,77,0,0
1,note_on,82,26,0
1,note_on,79,26,0
1,note_on,79,0,240
1,note_on,82,0,0
1,note_on,74,0,0
1,note_on,79,26,240
1,note_on,70,26,0
1,note_on,75,26,0
1,note_on,75,0,240
1,note_on,79,0,0
1,note_on,77,26,0
1,note_on,74,26,0
1,note_on,74,0,240
1,note_on,77,0,0
1,note_on,75,26,0
1,note_on,79,26,0
1,note_on,79,0,240
1,note_on,75,0,0
1,note_on,70,0,0
1,note_on,75,29,0
1,note_on,72,29,0
1,note_on,72,0,480
1,note_on,75,0,0
1,note_on,68,27,0
1,note_on,75,27,0
1,note_on,72,27,0
1,note_on,72,0,480
1,note_on,75,0,0
1,note_on,68,0,0
1,note_on,72,26,0
1,note_on,75,26,0
1,note_on,63,26,0
1,note_on,63,0,480
1,note_on,75,0,0
1,note_on,72,0,0
1,note_on,68,25,0
1,note_on,77,25,0
1,note_on,77,0,480
1,note_on,68,0,0
1,note_on,86,29,240
1,note_on,91,29,0
1,note_on,82,29,0
1,note_on,82,0,240
1,note_on,91,0,0
1,note_on,89,29,0
1,note_on,80,29,0
1,note_on,80,0,240
1,note_on,89,0,0
1,note_on,82,27,0
1,note_on,91,27,0
1,note_on,91,0,240
1,note_on,82,0,0
1,note_on,86,0,0
1,note_on,84,26,240
1,note_on,87,26,0
1,note_on,79,26,0
1,note_on,87,0,240
1,note_on,84,0,0
1,note_on,82,26,0
1,note_on,86,26,0
1,note_on,86,0,240
1,note_on,82,0,0
1,note_on,87,26,0
1,note_on,84,26,0
1,note_on,84,0,240
1,note_on,87,0,0
1,note_on,79,0,0
1,note_on,84,26,240
1,note_on,75,26,0
1,note_on,80,26,0
1,note_on,80,0,240
1,note_on,84,0,0
1,note_on,82,26,0
1,note_on,79,26,0
1,note_on,79,0,240
1,note_on,82,0,0
1,note_on,80,26,0
1,note_on,84,26,0
1,note_on,84,0,240
1,note_on,80,0,0
1,note_on,75,0,0
1,note_on,80,30,0
1,note_on,77,30,0
1,note_on,77,0,480
1,note_on,80,0,0
1,note_on,80,30,0
1,note_on,74,30,0
1,note_on,77,30,0
1,note_on,77,0,480
1,note_on,74,0,0
1,note_on,80,0,0
1,note_on,77,30,0
1,note_on,80,30,0
1,note_on,68,30,0
1,note_on,68,0,480
1,note_on,80,0,0
1,note_on,77,0,0
1,note_on,74,30,0
1,note_on,80,30,0
1,note_on,80,0,480
1,note_on,74,0,0
1,note_on,72,29,0
1,note_on,75,29,0
1,note_on,78,29,0
1,note_on,81,29,0
1,note_on,81,0,480
1,note_on,72,0,0
1,note_on,75,0,0
1,note_on,78,0,0
1,note_on,78,28,0
1,note_on,81,28,0
1,note_on,72,28,0
1,note_on,75,28,0
1,note_on,75,0,480
1,note_on,78,0,0
1,note_on,81,0,0
1,note_on,72,0,0
1,note_on,72,30,0
1,note_on,75,30,0
1,note_on,78,30,0
1,note_on,81,30,0
1,note_on,81,0,480
1,note_on,72,0,0
1,note_on,75,0,0
1,note_on,78,0,0
1,note_on,78,30,0
1,note_on,72,30,0
1,note_on,75,30,0
1,note_on,81,30,0
1,note_on,81,0,480
1,note_on,78,0,0
1,note_on,72,0,0
1,note_on,75,0,0
1,note_on,87,31,480
1,note_on,87,0,120
1,note_on,84,30,0
1,note_on,84,0,120
1,note_on,81,34,0
1,note_on,81,0,120
1,note_on,78,34,0
1,note_on,78,0,120
1,note_on,72,37,0
1,note_on,72,0,120
1,note_on,69,36,0
1,note_on,69,0,120
1,note_on,66,39,0
1,note_on,66,0,120
1,note_on,63,38,0
1,note_on,63,0,120
1,note_on,101,45,3840
1,note_on,101,0,120
1,note_on,98,41,0
1,note_on,98,0,120
1,note_on,89,35,0
1,note_on,89,0,120
1,note_on,85,33,0
1,note_on,85,0,120
1,note_on,86,35,0
1,note_on,86,0,120
1,note_on,82,33,0
1,note_on,82,0,120
1,note_on,74,35,0
1,note_on,74,0,120
1,note_on,69,35,0
1,note_on,69,0,120
1,note_on,70,35,0
1,note_on,70,0,120
1,note_on,65,33,0
1,note_on,65,0,120
1,note_on,62,35,0
1,note_on,62,0,120
1,note_on,60,33,0
1,note_on,60,0,120
1,note_on,102,48,3360
1,note_on,102,0,120
1,note_on,99,35,0
1,note_on,99,0,120
1,note_on,90,35,0
1,note_on,90,0,120
1,note_on,86,31,0
1,note_on,86,0,120
1,note_on,87,35,0
1,note_on,87,0,120
1,note_on,83,33,0
1,note_on,83,0,120
1,note_on,75,35,0
1,note_on,75,0,120
1,note_on,70,35,0
1,note_on,70,0,120
1,note_on,71,35,0
1,note_on,71,0,120
1,note_on,66,33,0
1,note_on,66,0,120
1,note_on,63,35,0
1,note_on,63,0,120
1,note_on,61,33,0
1,note_on,61,0,120
1,note_on,104,52,3360
1,note_on,104,0,120
1,note_on,101,35,0
1,note_on,101,0,120
1,note_on,92,35,0
1,note_on,92,0,120
1,note_on,88,34,0
1,note_on,88,0,120
1,note_on,89,35,0
1,note_on,89,0,120
1,note_on,85,34,0
1,note_on,85,0,120
1,note_on,77,35,0
1,note_on,77,0,120
1,note_on,72,33,0
1,note_on,72,0,120
1,note_on,73,35,0
1,note_on,73,0,120
1,note_on,68,34,0
1,note_on,68,0,120
1,note_on,65,35,0
1,note_on,65,0,120
1,note_on,63,34,0
1,note_on,63,0,120
1,note_on,73,41,480
1,note_on,61,41,0
1,note_on,61,0,480
1,note_on,73,0,0
1,note_on,73,41,0
1,note_on,61,41,0
1,note_on,70,41,0
1,note_on,70,0,480
1,note_on,61,0,0
1,note_on,73,0,0
1,note_on,70,52,0
1,note_on,66,52,0
1,note_on,75,52,0
1,note_on,78,52,0
1,note_on,78,0,480
1,note_on,70,0,0
1,note_on,66,0,0
1,note_on,75,0,0
1,note_on,66,57,0
1,note_on,78,57,0
1,note_on,71,57,0
1,note_on,75,57,0
1,note_on,75,0,480
1,note_on,66,0,0
1,note_on,78,0,0
1,note_on,71,0,0
1,note_on,83,63,0
1,note_on,80,63,0
1,note_on,75,63,0
1,note_on,71,63,0
1,note_on,71,0,480
1,note_on,83,0,0
1,note_on,80,0,0
1,note_on,75,0,0
1,note_on,70,63,0
1,note_on,74,63,0
1,note_on,77,63,0
1,note_on,82,63,0
1,note_on,101,70,480
1,note_on,101,0,120
1,note_on,98,56,0
1,note_on,98,0,120
1,note_on,89,56,0
1,note_on,89,0,120
1,note_on,86,53,0
1,note_on,86,0,120
1,note_on,82,0,0
1,note_on,70,0,0
1,note_on,74,0,0
1,note_on,77,0,0
1,note_on,82,56,0
1,note_on,82,0,120
1,note_on,74,53,0
1,note_on,74,0,120
1,note_on,70,56,0
1,note_on,70,0,240
1,note_on,82,62,0
1,note_on,90,62,0
1,note_on,87,62,0
1,note_on,78,62,0
1,note_on,78,0,480
1,note_on,82,0,0
1,note_on,90,0,0
1,note_on,87,0,0
1,note_on,89,62,0
1,note_on,86,62,0
1,note_on,77,62,0
1,note_on,82,62,0
1,note_on,74,57,480
1,note_on,70,57,0
1,note_on,65,57,0
1,note_on,77,57,0
1,note_on,65,0,480
1,note_on,77,0,0
1,note_on,86,0,0
1,note_on,89,0,0
1,note_on,82,0,0
1,note_on,77,0,480
1,note_on,74,0,0
1,note_on,70,0,0
1,note_on,87,67,0
1,note_on,83,67,0
1,note_on,78,67,0
1,note_on,75,67,0
1,note_on,75,0,480
1,note_on,87,0,0
1,note_on,83,0,0
1,note_on,78,0,0
1,note_on,73,67,0
1,note_on,85,67,0
1,note_on,80,67,0
1,note_on,77,67,0
1,note_on,104,72,480
1,note_on,104,0,120
1,note_on,101,68,0
1,note_on,101,0,120
1,note_on,92,68,0
1,note_on,92,0,120
1,note_on,89,66,0
1,note_on,89,0,120
1,note_on,77,0,0
1,note_on,73,0,0
1,note_on,85,0,0
1,note_on,80,0,0
1,note_on,85,68,0
1,note_on,85,0,120
1,note_on,77,67,0
1,note_on,77,0,120
1,note_on,73,68,0
1,note_on,73,0,240
1,note_on,94,76,0
1,note_on,90,76,0
1,note_on,85,69,0
1,note_on,82,69,0
1,note_on,82,0,480
1,note_on,94,0,0
1,note_on,90,0,0
1,note_on,85,0,0
1,note_on,85,69,0
1,note_on,80,69,0
1,note_on,89,76,0
1,note_on,92,76,0
1,note_on,68,73,480
1,note_on,80,73,0
1,note_on,77,73,0
1,note_on,73,73,0
1,note_on,92,0,480
1,note_on,89,0,0
1,note_on,85,0,0
1,note_on,80,0,0
1,note_on,68,0,480
1,note_on,73,0,0
1,note_on,80,0,0
1,note_on,77,0,0
1,note_on,73,66,0
1,note_on,68,66,0
1,note_on,76,66,0
1,note_on,80,66,0
1,note_on,68,0,480
1,note_on,73,0,480
1,note_on,76,0,0
1,note_on,80,0,0
1,note_on,80,79,0
1,note_on,92,88,0
1,note_on,85,79,0
1,note_on,88,79,0
1,note_on,88,0,480
1,note_on,80,0,0
1,note_on,92,0,0
1,note_on,85,0,0
1,note_on,78,79,0
1,note_on,82,79,0
1,note_on,85,79,0
1,note_on,90,88,0
1,note_on,90,0,480
1,note_on,78,0,0
1,note_on,82,0,0
1,note_on,85,0,0
1,note_on,89,88,0
1,note_on,85,79,0
1,note_on,77,79,0
1,note_on,82,79,0
1,note_on,82,0,480
1,note_on,89,0,0
1,note_on,85,0,0
1,note_on,77,0,0
1,note_on,76,82,0
1,note_on,82,82,0
1,note_on,85,82,0
1,note_on,88,92,0
1,note_on,88,0,480
1,note_on,76,0,0
1,note_on,82,0,0
1,note_on,85,0,0
1,note_on,87,94,0
1,note_on,75,84,0
1,note_on,83,84,0
1,note_on,83,0,480
1,note_on,75,0,0
1,note_on,87,0,0
1,note_on,87,97,0
1,note_on,82,88,0
1,note_on,75,88,0
1,note_on,75,0,480
1,note_on,82,0,0
1,note_on,87,0,0
1,note_on,75,89,0
1,note_on,87,100,0
1,note_on,81,89,0
1,note_on,81,0,480
1,note_on,87,0,0
1,note_on,75,0,0
1,note_on,82,91,0
1,note_on,87,102,0
1,note_on,79,91,0
1,note_on,75,91,0
1,note_on,75,0,360
1,note_on,82,0,0
1,note_on,87,0,0
1,note_on,79,0,0
1,note_on,65,75,120
1,note_on,77,84,0
1,note_on,70,75,0
1,note_on,74,75,0
1,note_on,74,0,120
1,note_on,65,0,0
1,note_on,77,0,0
1,note_on,70,0,0
1,note_on,67,74,120
1,note_on,70,74,0
1,note_on,75,83,0
1,note_on,79,83,0
1,note_on,79,0,120
1,note_on,67,0,0
1,note_on,70,0,0
1,note_on,75,0,0
1,note_on,80,95,120
1,note_on,75,85,0
1,note_on,68,85,0
1,note_on,72,85,0
1,note_on,72,0,480
1,note_on,80,0,0
1,note_on,75,0,0
1,note_on,68,0,0
1,note_on,67,74,0
1,note_on,70,74,0
1,note_on,75,74,0
1,note_on,79,83,0
1,note_on,79,0,120
1,note_on,67,0,0
1,note_on,70,0,0
1,note_on,75,0,0
1,note_on,75,73,120
1,note_on,65,73,0
1,note_on,72,73,0
1,note_on,77,82,0
1,note_on,77,0,120
1,note_on,75,0,0
1,note_on,65,0,0
1,note_on,72,0,0
1,note_on,67,85,120
1,note_on,70,85,0
1,note_on,75,85,0
1,note_on,79,95,0
1,note_on,79,0,480
1,note_on,67,0,0
1,note_on,70,0,0
1,note_on,75,0,0
1,note_on,74,88,0
1,note_on,77,88,0
1,note_on,65,79,0
1,note_on,68,79,0
1,note_on,68,0,120
1,note_on,74,0,0
1,note_on,77,0,0
1,note_on,65,0,0
1,note_on,63,74,120
1,note_on,67,74,0
1,note_on,70,74,0
1,note_on,75,83,0
1,note_on,75,0,120
1,note_on,63,0,0
1,note_on,67,0,0
1,note_on,70,0,0
1,note_on,77,82,120
1,note_on,65,73,0
1,note_on,74,73,0
1,note_on,74,0,120
1,note_on,65,0,0
1,note_on,77,0,0
1,note_on,70,79,120
1,note_on,70,0,120
1,note_on,63,83,120
1,note_on,72,93,0
1,note_on,75,93,0
1,note_on,75,0,480
1,note_on,72,0,0
1,note_on,63,0,0
1,note_on,75,86,0
1,note_on,70,78,0
1,note_on,74,86,0
1,note_on,63,78,0
1,note_on,63,0,480
1,note_on,75,0,0
1,note_on,70,0,0
1,note_on,74,0,0
1,note_on,63,77,0
1,note_on,68,77,0
1,note_on,72,85,0
1,note_on,75,85,0
1,note_on,75,0,420
1,note_on,63,0,0
1,note_on,68,0,0
1,note_on,72,0,0
1,note_on,75,88,60
1,note_on,63,79,0
1,note_on,67,79,0
1,note_on,70,88,0
1,note_on,70,0,480
1,note_on,75,0,0
1,note_on,63,0,0
1,note_on,67,0,0
1,note_on,62,82,0
1,note_on,65,82,0
1,note_on,70,82,0
1,note_on,74,92,0
1,note_on,74,0,120
1,note_on,62,0,0
1,note_on,65,0,0
1,note_on,70,0,0
1,note_on,70,79,120
1,note_on,75,88,0
1,note_on,63,79,0
1,note_on,67,79,0
1,note_on,67,0,120
1,note_on,70,0,0
1,note_on,75,0,0
1,note_on,63,0,0
1,note_on,72,86,120
1,note_on,75,86,0
1,note_on,79,96,0
1,note_on,67,86,0
1,note_on,67,0,480
1,note_on,72,0,0
1,note_on,75,0,0
1,note_on,79,0,0
1,note_on,72,81,0
1,note_on,65,81,0
1,note_on,68,81,0
1,note_on,77,91,0
1,note_on,77,0,120
1,note_on,72,0,0
1,note_on,65,0,0
1,note_on,68,0,0
1,note_on,63,80,120
1,note_on,67,80,0
1,note_on,75,90,0
1,note_on,72,80,0
1,note_on,72,0,120
1,note_on,63,0,0
1,note_on,67,0,0
1,note_on,75,0,0
1,note_on,70,84,120
1,note_on,67,84,0
1,note_on,62,84,0
1,note_on,74,94,0
1,note_on,74,0,480
1,note_on,70,0,0
1,note_on,67,0,0
1,note_on,62,0,0
1,note_on,60,75,0
1,note_on,63,75,0
1,note_on,67,75,0
1,note_on,72,84,0
1,note_on,72,0,120
1,note_on,60,0,0
1,note_on,63,0,0
1,note_on,67,0,0
1,note_on,62,72,120
1,note_on,58,72,0
1,note_on,67,81,0
1,note_on,70,81,0
1,note_on,70,0,120
1,note_on,62,0,0
1,note_on,58,0,0
1,note_on,67,0,0
1,note_on,57,75,120
1,note_on,69,84,0
1,note_on,66,84,0
1,note_on,66,0,120
1,note_on,69,0,0
1,note_on,57,0,0
1,note_on,62,80,120
1,note_on,62,0,120
1,note_on,67,90,120
1,note_on,55,80,0
1,note_on,55,0,480
1,note_on,67,0,0
1,note_on,55,79,0
1,note_on,66,88,0
1,note_on,67,88,0
1,note_on,67,0,480
1,note_on,66,0,0
1,note_on,55,0,0
1,note_on,67,82,0
1,note_on,55,73,0
1,note_on,65,82,0
1,note_on,65,0,420
1,note_on,55,0,0
1,note_on,67,0,0
1,note_on,67,67,0
1,note_on,70,67,0
1,note_on,75,67,0
1,note_on,79,74,0
1,note_on,79,0,480
1,note_on,67,0,0
1,note_on,70,0,0
1,note_on,75,0,0
1,note_on,74,59,0
1,note_on,77,67,0
1,note_on,65,59,0
1,note_on,70,59,0
1,note_on,70,0,240
1,note_on,74,0,0
1,note_on,77,0,0
1,note_on,65,0,0
1,note_on,67,64,0
1,note_on,70,64,0
1,note_on,75,64,0
1,note_on,79,72,0
1,note_on,79,0,240
1,note_on,67,0,0
1,note_on,70,0,0
1,note_on,75,0,0
1,note_on,75,70,0
1,note_on,68,70,0
1,note_on,72,70,0
1,note_on,80,79,0
1,note_on,80,0,480
1,note_on,75,0,0
1,note_on,68,0,0
1,note_on,72,0,0
1,note_on,67,60,0
1,note_on,70,60,0
1,note_on,79,68,0
1,note_on,75,60,0
1,note_on,75,0,240
1,note_on,67,0,0
1,note_on,70,0,0
1,note_on,79,0,0
1,note_on,77,70,0
1,note_on,72,62,0
1,note_on,65,62,0
1,note_on,75,62,0
1,note_on,75,0,240
1,note_on,77,0,0
1,note_on,72,0,0
1,note_on,65,0,0
1,note_on,67,67,0
1,note_on,70,67,0
1,note_on,75,67,0
1,note_on,79,74,0
1,note_on,79,0,480
1,note_on,67,0,0
1,note_on,70,0,0
1,note_on,75,0,0
1,note_on,68,66,0
1,note_on,65,66,0
1,note_on,74,66,0
1,note_on,77,73,0
1,note_on,77,0,240
1,note_on,68,0,0
1,note_on,65,0,0
1,note_on,74,0,0
1,note_on,63,63,0
1,note_on,75,71,0
1,note_on,67,63,0
1,note_on,70,63,0
1,note_on,70,0,240
1,note_on,63,0,0
1,note_on,75,0,0
1,note_on,67,0,0
1,note_on,74,72,0
1,note_on,65,64,0
1,note_on,77,72,0
1,note_on,77,0,240
1,note_on,65,0,0
1,note_on,74,0,0
1,note_on,70,70,0
1,note_on,70,0,240
1,note_on,63,80,0
1,note_on,75,80,0
1,note_on,75,0,480
1,note_on,63,0,0
1,note_on,75,83,0
1,note_on,73,83,0
1,note_on,63,74,0
1,note_on,63,0,480
1,note_on,73,0,0
1,note_on,75,0,0
1,note_on,63,79,0
1,note_on,70,89,0
1,note_on,75,89,0
1,note_on,75,0,420
1,note_on,70,0,0
1,note_on,63,0,0
1,note_on,80,90,60
1,note_on,83,90,0
1,note_on,92,101,0
1,note_on,87,90,0
1,note_on,87,0,480
1,note_on,80,0,0
1,note_on,83,0,0
1,note_on,92,0,0
1,note_on,86,93,0
1,note_on,82,93,0
1,note_on,74,83,0
1,note_on,74,0,120
1,note_on,82,0,0
1,note_on,86,0,0
1,note_on,87,90,120
1,note_on,83,90,0
1,note_on,75,80,0
1,note_on,75,0,120
1,note_on,83,0,0
1,note_on,87,0,0
1,note_on,80,89,120
1,note_on,83,100,0
1,note_on,76,89,0
1,note_on,71,89,0
1,note_on,71,0,480
1,note_on,80,0,0
1,note_on,83,0,0
1,note_on,76,0,0
1,note_on,79,88,0
1,note_on,67,79,0
1,note_on,75,79,0
1,note_on,75,0,120
1,note_on,67,0,0
1,note_on,79,0,0
1,note_on,68,77,120
1,note_on,80,85,0
1,note_on,76,77,0
1,note_on,76,0,120
1,note_on,80,0,0
1,note_on,68,0,0
1,note_on,76,96,120
1,note_on,73,86,0
1,note_on,68,86,0
1,note_on,64,86,0
1,note_on,64,0,480
1,note_on,76,0,0
1,note_on,73,0,0
1,note_on,68,0,0
1,note_on,60,74,0
1,note_on,72,83,0
1,note_on,68,74,0
1,note_on,68,0,120
1,note_on,72,0,0
1,note_on,60,0,0
1,note_on,73,83,120
1,note_on,64,74,0
1,note_on,61,74,0
1,note_on,61,0,120
1,note_on,64,0,0
1,note_on,73,0,0
1,note_on,59,81,120
1,note_on,71,91,0
1,note_on,62,81,0
1,note_on,65,81,0
1,note_on,65,0,480
1,note_on,59,0,0
1,note_on,71,0,0
1,note_on,62,0,0
1,note_on,63,83,0
1,note_on,58,83,0
1,note_on,70,93,0
1,note_on,58,0,120
1,note_on,63,0,0
1,note_on,59,82,120
1,note_on,63,82,0
1,note_on,68,92,0
1,note_on,68,0,120
1,note_on,63,0,0
1,note_on,59,0,0
1,note_on,70,0,120
1,note_on,66,93,0
1,note_on,58,83,0
1,note_on,63,83,0
1,note_on,70,93,0
1,note_on,70,0,360
1,note_on,66,0,0
1,note_on,58,0,0
1,note_on,63,0,0
1,note_on,56,83,120
1,note_on,62,83,0
1,note_on,70,93,0
1,note_on,65,83,0
1,note_on,65,0,360
1,note_on,56,0,0
1,note_on,62,0,0
1,note_on,70,0,0
1,note_on,58,83,120
1,note_on,54,83,0
1,note_on,63,93,0
1,note_on,63,0,120
1,note_on,54,0,0
1,note_on,58,0,0
1,note_on,82,79,240
1,note_on,70,67,0
1,note_on,70,0,120
1,note_on,82,0,0
1,note_on,65,72,0
1,note_on,65,0,120
1,note_on,66,67,240
1,note_on,78,79,0
1,note_on,78,0,120
1,note_on,66,0,0
1,note_on,63,72,0
1,note_on,63,0,120
1,note_on,82,81,240
1,note_on,70,69,0
1,note_on,70,0,120
1,note_on,82,0,0
1,note_on,65,74,0
1,note_on,65,0,120
1,note_on,66,69,240
1,note_on,78,81,0
1,note_on,78,0,120
1,note_on,66,0,0
1,note_on,63,74,0
1,note_on,63,0,120
1,note_on,75,73,240
1,note_on,87,86,0
1,note_on,87,0,120
1,note_on,75,0,0
1,note_on,65,74,0
1,note_on,65,0,120
1,note_on,89,82,240
1,note_on,77,69,0
1,note_on,77,0,120
1,note_on,89,0,0
1,note_on,66,74,0
1,note_on,66,0,120
1,note_on,78,69,240
1,note_on,90,82,0
1,note_on,90,0,120
1,note_on,78,0,0
1,note_on,69,74,0
1,note_on,69,0,120
1,note_on,93,93,240
1,note_on,81,79,0
1,note_on,81,0,120
1,note_on,93,0,0
1,note_on,94,83,0
1,note_on,82,74,0
1,note_on,90,74,0
1,note_on,87,74,0
1,note_on,87,0,480
1,note_on,94,0,0
1,note_on,82,0,0
1,note_on,90,0,0
1,note_on,68,79,0
1,note_on,62,79,0
1,note_on,70,79,0
1,note_on,74,88,0
1,note_on,74,0,480
1,note_on,68,0,0
1,note_on,62,0,0
1,note_on,70,0,0
1,note_on,63,70,0
1,note_on,66,70,0
1,note_on,75,79,0
1,note_on,75,0,120
1,note_on,66,0,0
1,note_on,63,0,0
1,note_on,83,71,240
1,note_on,71,59,0
1,note_on,71,0,120
1,note_on,83,0,0
1,note_on,66,66,0
1,note_on,66,0,120
1,note_on,79,73,240
1,note_on,67,73,0
1,note_on,67,0,120
1,note_on,79,0,0
1,note_on,63,66,0
1,note_on,63,0,120
1,note_on,83,77,240
1,note_on,71,65,0
1,note_on,71,0,120
1,note_on,83,0,0
1,note_on,66,66,0
1,note_on,66,0,120
1,note_on,79,74,240
1,note_on,67,62,0
1,note_on,67,0,120
1,note_on,79,0,0
1,note_on,63,66,0
1,note_on,63,0,120
1,note_on,90,77,240
1,note_on,78,57,0
1,note_on,78,0,120
1,note_on,90,0,0
1,note_on,65,72,0
1,note_on,65,0,120
1,note_on,89,80,240
1,note_on,77,60,0
1,note_on,77,0,120
1,note_on,89,0,0
1,note_on,63,71,0
1,note_on,63,0,120
1,note_on,87,80,240
1,note_on,75,60,0
1,note_on,75,0,120
1,note_on,87,0,0
1,note_on,57,69,0
1,note_on,57,0,120
1,note_on,93,86,240
1,note_on,81,78,0
1,note_on,81,0,120
1,note_on,93,0,0
1,note_on,94,82,0
1,note_on,90,73,0
1,note_on,87,73,0
1,note_on,82,73,0
1,note_on,82,0,480
1,note_on,94,0,0
1,note_on,90,0,0
1,note_on,87,0,0
1,note_on,87,78,0
1,note_on,75,71,0
1,note_on,80,71,0
1,note_on,83,78,0
1,note_on,83,0,480
1,note_on,87,0,0
1,note_on,75,0,0
1,note_on,80,0,0
1,note_on,63,66,0
1,note_on,69,66,0
1,note_on,72,66,0
1,note_on,75,74,0
1,note_on,75,0,480
1,note_on,63,0,0
1,note_on,69,0,0
1,note_on,72,0,0
1,note_on,62,63,0
1,note_on,65,63,0
1,note_on,56,63,0
1,note_on,58,63,0
1,note_on,70,71,0
1,note_on,70,0,480
1,note_on,56,0,0
1,note_on,62,0,0
1,note_on,65,0,0
1,note_on,58,0,0
1,note_on,63,53,1920
1,note_on,63,0,80
1,note_on,62,51,80
1,note_on,62,0,80
1,note_on,63,53,80
1,note_on,63,0,80
1,note_on,65,53,80
1,note_on,65,0,80
1,note_on,63,51,80
1,note_on,63,0,80
1,note_on,62,53,80
1,note_on,62,0,80
1,note_on,66,56,80
1,note_on,66,0,80
1,note_on,62,53,80
1,note_on,65,53,0
1,note_on,65,0,80
1,note_on,62,0,0
1,note_on,63,56,80
1,note_on,66,56,0
1,note_on,66,0,80
1,note_on,63,0,0
1,note_on,68,56,80
1,note_on,68,0,80
1,note_on,66,52,80
1,note_on,63,52,0
1,note_on,63,0,80
1,note_on,66,0,0
1,note_on,65,56,80
1,note_on,62,56,0
1,note_on,62,0,80
1,note_on,65,0,0
1,note_on,75,66,80
1,note_on,75,0,80
1,note_on,86,63,80
1,note_on,74,63,0
1,note_on,74,0,80
1,note_on,86,0,0
1,note_on,75,66,80
1,note_on,87,66,0
1,note_on,87,0,80
1,note_on,75,0,0
1,note_on,77,66,80
1,note_on,77,0,80
1,note_on,87,63,80
1,note_on,75,63,0
1,note_on,75,0,80
1,note_on,87,0,0
1,note_on,77,66,80
1,note_on,89,66,0
1,note_on,89,0,80
1,note_on,77,0,0
1,note_on,78,77,80
1,note_on,78,0,80
1,note_on,77,74,80
1,note_on,89,74,0
1,note_on,89,0,80
1,note_on,77,0,0
1,note_on,90,77,80
1,note_on,78,77,0
1,note_on,78,0,80
1,note_on,90,0,0
1,note_on,80,85,80
1,note_on,80,0,80
1,note_on,90,83,80
1,note_on,78,83,0
1,note_on,78,0,80
1,note_on,90,0,0
1,note_on,77,85,80
1,note_on,89,85,0
1,note_on,89,0,80
1,note_on,77,0,0
1,note_on,87,78,80
1,note_on,82,78,0
1,note_on,90,86,0
1,note_on,78,78,0
1,note_on,78,0,80
1,note_on,87,0,0
1,note_on,82,0,0
1,note_on,90,0,0
1,note_on,77,84,80
1,note_on,89,84,0
1,note_on,89,0,80
1,note_on,77,0,0
1,note_on,78,86,80
1,note_on,90,86,0
1,note_on,90,0,80
1,note_on,78,0,0
1,note_on,87,78,80
1,note_on,83,78,0
1,note_on,92,86,0
1,note_on,80,78,0
1,note_on,80,0,80
1,note_on,87,0,0
1,note_on,83,0,0
1,note_on,92,0,0
1,note_on,78,83,80
1,note_on,90,83,0
1,note_on,90,0,80
1,note_on,78,0,0
1,note_on,89,86,80
1,note_on,77,86,0
1,note_on,77,0,80
1,note_on,89,0,0
1,note_on,90,88,80
1,note_on,87,79,0
1,note_on,78,79,0
1,note_on,82,79,0
1,note_on,82,0,80
1,note_on,90,0,0
1,note_on,87,0,0
1,note_on,78,0,0
1,note_on,77,85,80
1,note_on,89,85,0
1,note_on,89,0,80
1,note_on,77,0,0
1,note_on,90,88,80
1,note_on,78,88,0
1,note_on,78,0,80
1,note_on,90,0,0
1,note_on,83,79,80
1,note_on,87,79,0
1,note_on,92,88,0
1,note_on,80,79,0
1,note_on,80,0,80
1,note_on,83,0,0
1,note_on,87,0,0
1,note_on,92,0,0
1,note_on,90,85,80
1,note_on,78,85,0
1,note_on,78,0,80
1,note_on,90,0,0
1,note_on,77,88,80
1,note_on,89,88,0
1,note_on,89,0,80
1,note_on,77,0,0
1,note_on,82,79,80
1,note_on,87,79,0
1,note_on,90,88,0
1,note_on,78,79,0
1,note_on,78,0,80
1,note_on,82,0,0
1,note_on,87,0,0
1,note_on,90,0,0
1,note_on,77,85,80
1,note_on,89,85,0
1,note_on,89,0,80
1,note_on,77,0,0
1,note_on,75,88,80
1,note_on,87,88,0
1,note_on,87,0,80
1,note_on,75,0,0
1,note_on,87,79,80
1,note_on,83,79,0
1,note_on,90,88,0
1,note_on,78,79,0
1,note_on,78,0,80
1,note_on,87,0,0
1,note_on,83,0,0
1,note_on,90,0,0
1,note_on,89,85,80
1,note_on,77,85,0
1,note_on,77,0,80
1,note_on,89,0,0
1,note_on,87,88,80
1,note_on,75,88,0
1,note_on,75,0,80
1,note_on,87,0,0
1,note_on,90,89,80
1,note_on,78,79,0
1,note_on,87,79,0
1,note_on,84,79,0
1,note_on,81,79,0
1,note_on,81,0,80
1,note_on,87,0,0
1,note_on,90,0,0
1,note_on,78,0,0
1,note_on,84,0,0
1,note_on,89,85,80
1,note_on,77,85,0
1,note_on,77,0,80
1,note_on,89,0,0
1,note_on,87,89,80
1,note_on,75,89,0
1,note_on,75,0,80
1,note_on,87,0,0
1,note_on,82,79,80
1,note_on,89,89,0
1,note_on,86,79,0
1,note_on,77,79,0
1,note_on,77,0,80
1,note_on,82,0,0
1,note_on,89,0,0
1,note_on,86,0,0
1,note_on,70,92,160
1,note_on,82,92,0
1,note_on,82,0,80
1,note_on,70,0,0
1,note_on,75,101,160
1,note_on,87,101,0
1,note_on,87,0,160
1,note_on,75,0,0
1,note_on,78,86,320
1,note_on,83,86,0
1,note_on,87,96,0
1,note_on,75,86,0
1,note_on,75,0,480
1,note_on,78,0,0
1,note_on,83,0,0
1,note_on,87,0,0
1,note_on,85,96,0
1,note_on,82,86,0
1,note_on,78,86,0
1,note_on,73,86,0
1,note_on,73,0,480
1,note_on,85,0,0
1,note_on,82,0,0
1,note_on,78,0,0
1,note_on,80,82,0
1,note_on,83,92,0
1,note_on,71,82,0
1,note_on,75,82,0
1,note_on,75,0,480
1,note_on,80,0,0
1,note_on,83,0,0
1,note_on,71,0,0
1,note_on,70,86,0
1,note_on,82,96,0
1,note_on,75,86,0
1,note_on,78,86,0
1,note_on,75,0,960
1,note_on,70,0,0
1,note_on,70,90,0
1,note_on,63,80,0
1,note_on,66,80,0
1,note_on,75,90,0
1,note_on,75,0,240
1,note_on,63,0,0
1,note_on,70,0,0
1,note_on,66,0,0
1,note_on,63,80,240
1,note_on,75,90,0
1,note_on,66,80,0
1,note_on,70,80,0
1,note_on,70,0,240
1,note_on,75,0,0
1,note_on,63,0,0
1,note_on,66,0,0
1,note_on,82,0,240
1,note_on,78,0,0
1,note_on,99,90,0
1,note_on,94,80,0
1,note_on,90,76,0
1,note_on,87,75,0
1,note_on,87,0,960
1,note_on,99,0,0
1,note_on,94,0,0
1,note_on,90,0,0
2,note_on,39,62,0
2,note_on,46,62,0
2,note_on,51,70,0
2,note_on,51,0,452
2,note_on,46,0,0
2,note_on,39,0,0
2,note_on,34,50,0
2,note_on,46,57,0
2,note_on,46,0,113
2,note_on,34,0,0
2,note_on,39,50,120
2,note_on,51,57,0
2,note_on,51,0,120
2,note_on,39,0,0
2,note_on,32,62,120
2,note_on,44,70,0
2,note_on,44,0,444
2,note_on,32,0,0
2,note_on,39,49,0
2,note_on,51,55,0
2,note_on,51,0,117
2,note_on,39,0,0
2,note_on,32,49,120
2,note_on,44,55,0
2,note_on,44,0,120
2,note_on,32,0,0
2,note_on,39,62,120
2,note_on,46,62,0
2,note_on,51,70,0
2,note_on,51,0,432
2,note_on,46,0,0
2,note_on,39,0,0
2,note_on,34,48,0
2,note_on,46,53,0
2,note_on,46,0,110
2,note_on,34,0,0
2,note_on,27,48,120
2,note_on,39,53,0
2,note_on,39,0,120
2,note_on,27,0,0
2,note_on,34,48,120
2,note_on,46,53,0
2,note_on,46,0,120
2,note_on,34,0,0
2,note_on,58,53,120
2,note_on,46,48,0
2,note_on,46,0,120
2,note_on,58,0,0
2,note_on,39,61,120
2,note_on,51,61,0
2,note_on,51,0,381
2,note_on,39,0,0
2,note_on,62,62,0
2,note_on,58,56,0
2,note_on,51,56,0
2,note_on,51,0,381
2,note_on,58,0,0
2,note_on,62,0,0
2,note_on,51,61,0
2,note_on,56,55,0
2,note_on,60,61,0
2,note_on,60,0,300
2,note_on,56,0,0
2,note_on,51,0,0
2,note_on,39,53,35
2,note_on,46,53,0
2,note_on,51,60,0
2,note_on,51,0,395
2,note_on,46,0,0
2,note_on,39,0,0
2,note_on,34,49,0
2,note_on,46,56,0
2,note_on,46,0,106
2,note_on,34,0,0
2,note_on,39,49,120
2,note_on,51,56,0
2,note_on,51,0,120
2,note_on,39,0,0
2,note_on,36,59,120
2,note_on,48,67,0
2,note_on,48,0,388
2,note_on,36,0,0
2,note_on,41,48,0
2,note_on,53,53,0
2,note_on,53,0,106
2,note_on,41,0,0
2,note_on,36,48,120
2,note_on,48,53,0
2,note_on,48,0,120
2,note_on,36,0,0
2,note_on,43,52,120
2,note_on,46,52,0
2,note_on,50,52,0
2,note_on,55,59,0
2,note_on,55,0,409
2,note_on,43,0,0
2,note_on,46,0,0
2,note_on,50,0,0
2,note_on,36,50,0
2,note_on,48,57,0
2,note_on,48,0,104
2,note_on,36,0,0
2,note_on,31,49,120
2,note_on,43,56,0
2,note_on,43,0,120
2,note_on,31,0,0
2,note_on,26,49,120
2,note_on,38,55,0
2,note_on,38,0,120
2,note_on,26,0,0
2,note_on,50,52,120
2,note_on,38,47,0
2,note_on,38,0,120
2,note_on,50,0,0
2,note_on,31,55,120
2,note_on,43,61,0
2,note_on,43,0,388
2,note_on,31,0,0
2,note_on,54,61,0
2,note_on,43,55,0
2,note_on,43,0,360
2,note_on,54,0,0
2,note_on,43,52,0
2,note_on,53,59,0
2,note_on,53,0,9
2,note_on,43,0,0
2,note_on,39,70,60
2,note_on,46,70,0
2,note_on,51,70,0
2,note_on,51,0,436
2,note_on,46,0,0
2,note_on,39,0,0
2,note_on,34,49,0
2,note_on,46,56,0
2,note_on,46,0,99
2,note_on,34,0,0
2,note_on,39,49,120
2,note_on,51,56,0
2,note_on,51,0,120
2,note_on,39,0,0
2,note_on,32,62,120
2,note_on,44,70,0
2,note_on,44,0,448
2,note_on,32,0,0
2,note_on,39,49,0
2,note_on,51,56,0
2,note_on,51,0,110
2,note_on,39,0,0
2,note_on,32,49,120
2,note_on,44,56,0
2,note_on,44,0,120
2,note_on,32,0,0
2,note_on,39,62,120
2,note_on,46,62,0
2,note_on,51,70,0
2,note_on,51,0,432
2,note_on,46,0,0
2,note_on,39,0,0
2,note_on,34,49,0
2,note_on,46,56,0
2,note_on,46,0,98
2,note_on,34,0,0
2,note_on,27,48,120
2,note_on,39,53,0
2,note_on,39,0,120
2,note_on,27,0,0
2,note_on,34,47,120
2,note_on,46,52,0
2,note_on,46,0,120
2,note_on,34,0,0
2,note_on,58,52,120
2,note_on,46,47,0
2,note_on,46,0,120
2,note_on,58,0,0
2,note_on,39,59,120
2,note_on,51,66,0
2,note_on,51,0,388
2,note_on,39,0,0
2,note_on,39,66,0
2,note_on,37,66,0
2,note_on,49,73,0
2,note_on,49,0,285
2,note_on,37,0,0
2,note_on,39,0,0
2,note_on,35,68,0
2,note_on,39,68,0
2,note_on,47,75,0
2,note_on,47,0,255
2,note_on,39,0,0
2,note_on,35,0,0
2,note_on,34,72,30
2,note_on,39,72,0
2,note_on,42,72,0
2,note_on,46,81,0
2,note_on,46,0,274
2,note_on,34,0,0
2,note_on,39,0,0
2,note_on,42,0,0
2,note_on,42,67,0
2,note_on,54,74,0
2,note_on,54,0,160
2,note_on,42,0,0
2,note_on,39,64,0
2,note_on,51,72,0
2,note_on,51,0,91
2,note_on,39,0,0
2,note_on,47,69,0
2,note_on,51,69,0
2,note_on,54,69,0
2,note_on,59,77,0
2,note_on,59,0,320
2,note_on,47,0,0
2,note_on,51,0,0
2,note_on,54,0,0
2,note_on,39,62,0
2,note_on,51,70,0
2,note_on,51,0,114
2,note_on,39,0,0
2,note_on,35,62,0
2,note_on,47,70,0
2,note_on,47,0,68
2,note_on,35,0,0
2,note_on,56,73,0
2,note_on,51,66,0
2,note_on,47,66,0
2,note_on,44,66,0
2,note_on,44,0,331
2,note_on,56,0,0
2,note_on,51,0,0
2,note_on,47,0,0
2,note_on,35,59,0
2,note_on,47,66,0
2,note_on,47,0,114
2,note_on,35,0,0
2,note_on,32,59,0
2,note_on,44,66,0
2,note_on,44,0,91
2,note_on,32,0,0
2,note_on,39,62,0
2,note_on,45,62,0
2,note_on,48,62,0
2,note_on,51,70,0
2,note_on,51,0,339
2,note_on,39,0,0
2,note_on,45,0,0
2,note_on,48,0,0
2,note_on,22,49,0
2,note_on,34,56,0
2,note_on,34,0,332
2,note_on,22,0,0
2,note_on,22,49,0
2,note_on,34,56,0
2,note_on,34,0,480
2,note_on,22,0,0
2,note_on,22,51,0
2,note_on,34,51,0
2,note_on,34,0,480
2,note_on,22,0,0
2,note_on,46,59,0
2,note_on,58,66,0
2,note_on,58,0,272
2,note_on,46,0,0
2,note_on,45,42,0
2,note_on,46,42,0
2,note_on,58,48,0
2,note_on,58,0,194
2,note_on,46,0,0
2,note_on,45,0,0
2,note_on,43,42,0
2,note_on,46,42,0
2,note_on,58,48,0
2,note_on,58,0,311
2,note_on,46,0,0
2,note_on,43,0,0
2,note_on,41,42,0
2,note_on,46,42,0
2,note_on,57,48,0
2,note_on,58,48,0
2,note_on,58,0,285
2,note_on,41,0,0
2,note_on,46,0,0
2,note_on,57,0,0
2,note_on,39,46,0
2,note_on,46,46,0
2,note_on,55,51,0
2,note_on,58,51,0
2,note_on,58,0,274
2,note_on,39,0,0
2,note_on,46,0,0
2,note_on,55,0,0
2,note_on,36,40,0
2,note_on,46,40,0
2,note_on,51,40,0
2,note_on,57,46,0
2,note_on,60,46,0
2,note_on,60,0,114
2,note_on,51,0,0
2,note_on,36,0,0
2,note_on,46,0,0
2,note_on,57,0,0
2,note_on,34,40,0
2,note_on,46,46,0
2,note_on,53,46,0
2,note_on,58,46,0
2,note_on,62,46,0
2,note_on,22,39,308
2,note_on,34,44,0
2,note_on,34,0,343
2,note_on,22,0,0
2,note_on,34,44,0
2,note_on,22,39,0
2,note_on,22,0,480
2,note_on,34,0,0
2,note_on,22,39,0
2,note_on,34,44,0
2,note_on,34,0,480
2,note_on,62,0,0
2,note_on,46,0,0
2,note_on,53,0,0
2,note_on,34,0,0
2,note_on,22,0,0
2,note_on,58,0,0
2,note_on,58,51,0
2,note_on,58,0,160
2,note_on,55,47,0
2,note_on,58,52,0
2,note_on,58,0,480
2,note_on,55,0,0
2,note_on,51,49,0
2,note_on,55,56,0
2,note_on,55,0,293
2,note_on,51,0,0
2,note_on,48,52,0
2,note_on,51,52,0
2,note_on,55,59,0
2,note_on,55,0,186
2,note_on,51,0,0
2,note_on,48,0,0
2,note_on,44,52,0
2,note_on,48,52,0
2,note_on,51,59,0
2,note_on,56,59,0
2,note_on,56,0,293
2,note_on,44,0,0
2,note_on,48,0,0
2,note_on,51,0,0
2,note_on,41,57,0
2,note_on,44,57,0
2,note_on,48,57,0
2,note_on,53,63,0
2,note_on,53,0,133
2,note_on,41,0,0
2,note_on,44,0,0
2,note_on,48,0,0
2,note_on,43,62,0
2,note_on,47,62,0
2,note_on,50,62,0
2,note_on,55,70,0
2,note_on,31,43,348
2,note_on,31,0,480
2,note_on,31,43,0
2,note_on,31,0,480
2,note_on,31,43,0
2,note_on,31,0,480
2,note_on,50,0,0
2,note_on,43,0,0
2,note_on,47,0,0
2,note_on,55,0,0
2,note_on,55,51,0
2,note_on,55,0,204
2,note_on,53,51,0
2,note_on,55,51,0
2,note_on,55,0,177
2,note_on,53,0,0
2,note_on,51,47,0
2,note_on,55,52,0
2,note_on,55,0,303
2,note_on,51,0,0
2,note_on,50,49,0
2,note_on,53,56,0
2,note_on,55,56,0
2,note_on,55,0,151
2,note_on,53,0,0
2,note_on,50,0,0
2,note_on,48,52,0
2,note_on,51,59,0
2,note_on,55,59,0
2,note_on,55,0,297
2,note_on,51,0,0
2,note_on,48,0,0
2,note_on,41,56,0
2,note_on,48,56,0
2,note_on,53,62,0
2,note_on,53,0,160
2,note_on,48,0,0
2,note_on,41,0,0
2,note_on,46,59,0
2,note_on,50,66,0
2,note_on,53,66,0
2,note_on,22,39,325
2,note_on,34,44,0
2,note_on,34,0,480
2,note_on,22,0,0
2,note_on,22,41,0
2,note_on,34,41,0
2,note_on,34,0,480
2,note_on,22,0,0
2,note_on,22,38,0
2,note_on,34,38,0
2,note_on,34,0,480
2,note_on,53,0,0
2,note_on,46,0,0
2,note_on,50,0,0
2,note_on,22,0,0
2,note_on,58,51,0
2,note_on,58,0,274
2,note_on,54,45,0
2,note_on,58,51,0
2,note_on,58,0,480
2,note_on,54,0,0
2,note_on,51,54,0
2,note_on,54,47,0
2,note_on,58,54,0
2,note_on,58,0,480
2,note_on,54,0,0
2,note_on,51,0,0
2,note_on,47,54,0
2,note_on,51,54,0
2,note_on,54,60,0
2,note_on,59,60,0
2,note_on,59,0,251
2,note_on,47,0,0
2,note_on,51,0,0
2,note_on,54,0,0
2,note_on,44,57,0
2,note_on,47,57,0
2,note_on,51,64,0
2,note_on,56,64,0
2,note_on,56,0,46
2,note_on,44,0,0
2,note_on,47,0,0
2,note_on,51,0,0
2,note_on,40,61,0
2,note_on,44,61,0
2,note_on,47,69,0
2,note_on,52,69,0
2,note_on,52,0,320
2,note_on,40,0,0
2,note_on,44,0,0
2,note_on,47,0,0
2,note_on,47,69,0
2,note_on,51,69,0
2,note_on,54,69,0
2,note_on,59,77,0
2,note_on,27,70,365
2,note_on,30,67,120
2,note_on,30,0,120
2,note_on,35,70,0
2,note_on,35,0,120
2,note_on,39,67,0
2,note_on,39,0,120
2,note_on,51,0,0
2,note_on,54,0,0
2,note_on,47,0,0
2,note_on,27,0,0
2,note_on,59,0,0
2,note_on,42,70,0
2,note_on,47,67,111
2,note_on,47,0,108
2,note_on,51,70,0
2,note_on,51,0,120
2,note_on,54,67,0
2,note_on,54,0,120
2,note_on,42,0,0
2,note_on,59,70,0
2,note_on,63,67,11
2,note_on,63,0,120
2,note_on,66,70,0
2,note_on,66,0,120
2,note_on,71,67,0
2,note_on,71,0,120
2,note_on,59,0,0
2,note_on,58,67,0
2,note_on,63,67,0
2,note_on,67,67,0
2,note_on,70,74,0
2,note_on,70,0,219
2,note_on,58,0,0
2,note_on,63,0,0
2,note_on,67,0,0
2,note_on,58,58,99
2,note_on,46,51,0
2,note_on,46,0,120
2,note_on,58,0,0
2,note_on,39,51,120
2,note_on,51,58,0
2,note_on,51,0,120
2,note_on,39,0,0
2,note_on,63,70,120
2,note_on,60,62,0
2,note_on,56,62,0
2,note_on,51,62,0
2,note_on,51,0,448
2,note_on,63,0,0
2,note_on,60,0,0
2,note_on,56,0,0
2,note_on,39,50,0
2,note_on,51,57,0
2,note_on,51,0,108
2,note_on,39,0,0
2,note_on,32,50,120
2,note_on,44,57,0
2,note_on,44,0,120
2,note_on,32,0,0
2,note_on,39,62,120
2,note_on,46,62,0
2,note_on,51,70,0
2,note_on,51,0,367
2,note_on,46,0,0
2,note_on,39,0,0
2,note_on,34,50,0
2,note_on,46,57,0
2,note_on,46,0,104
2,note_on,34,0,0
2,note_on,27,49,120
2,note_on,39,56,0
2,note_on,39,0,120
2,note_on,27,0,0
2,note_on,34,49,120
2,note_on,46,55,0
2,note_on,46,0,120
2,note_on,34,0,0
2,note_on,58,52,120
2,note_on,46,47,0
2,note_on,46,0,120
2,note_on,58,0,0
2,note_on,39,57,120
2,note_on,51,63,0
2,note_on,51,0,367
2,note_on,39,0,0
2,note_on,62,62,0
2,note_on,58,56,0
2,note_on,51,56,0
2,note_on,51,0,278
2,note_on,58,0,0
2,note_on,62,0,0
2,note_on,51,55,0
2,note_on,56,55,0
2,note_on,60,61,0
2,note_on,60,0,252
2,note_on,56,0,0
2,note_on,51,0,0
2,note_on,39,53,0
2,note_on,46,53,0
2,note_on,51,60,0
2,note_on,51,0,332
2,note_on,46,0,0
2,note_on,39,0,0
2,note_on,34,53,0
2,note_on,46,60,0
2,note_on,46,0,105
2,note_on,34,0,0
2,note_on,39,53,120
2,note_on,51,60,0
2,note_on,51,0,120
2,note_on,39,0,0
2,note_on,36,58,120
2,note_on,48,64,0
2,note_on,48,0,409
2,note_on,36,0,0
2,note_on,41,51,0
2,note_on,53,58,0
2,note_on,53,0,99
2,note_on,41,0,0
2,note_on,36,51,120
2,note_on,48,58,0
2,note_on,48,0,120
2,note_on,36,0,0
2,note_on,43,56,120
2,note_on,50,56,0
2,note_on,55,62,0
2,note_on,55,0,409
2,note_on,50,0,0
2,note_on,43,0,0
2,note_on,36,50,0
2,note_on,48,57,0
2,note_on,48,0,106
2,note_on,36,0,0
2,note_on,31,50,120
2,note_on,43,57,0
2,note_on,43,0,120
2,note_on,31,0,0
2,note_on,26,49,120
2,note_on,38,56,0
2,note_on,38,0,120
2,note_on,26,0,0
2,note_on,50,53,120
2,note_on,38,48,0
2,note_on,38,0,120
2,note_on,50,0,0
2,note_on,31,47,120
2,note_on,43,52,0
2,note_on,43,0,417
2,note_on,31,0,0
2,note_on,54,61,0
2,note_on,43,55,0
2,note_on,43,0,376
2,note_on,54,0,0
2,note_on,43,52,0
2,note_on,53,59,0
2,note_on,53,0,204
2,note_on,43,0,0
2,note_on,39,50,42
2,note_on,46,50,0
2,note_on,51,59,0
2,note_on,51,0,296
2,note_on,46,0,0
2,note_on,39,0,0
2,note_on,34,46,0
2,note_on,46,55,0
2,note_on,46,0,102
2,note_on,34,0,0
2,note_on,39,49,120
2,note_on,51,58,0
2,note_on,51,0,120
2,note_on,39,0,0
2,note_on,32,51,120
2,note_on,44,61,0
2,note_on,44,0,379
2,note_on,32,0,0
2,note_on,39,48,0
2,note_on,51,57,0
2,note_on,51,0,98
2,note_on,39,0,0
2,note_on,32,45,120
2,note_on,44,54,0
2,note_on,44,0,120
2,note_on,32,0,0
2,note_on,39,47,120
2,note_on,46,47,0
2,note_on,51,56,0
2,note_on,51,0,409
2,note_on,46,0,0
2,note_on,39,0,0
2,note_on,34,49,0
2,note_on,46,58,0
2,note_on,46,0,99
2,note_on,34,0,0
2,note_on,51,56,120
2,note_on,39,47,0
2,note_on,39,0,120
2,note_on,51,0,0
2,note_on,34,48,120
2,note_on,46,57,0
2,note_on,46,0,120
2,note_on,34,0,0
2,note_on,58,57,120
2,note_on,46,50,0
2,note_on,46,0,120
2,note_on,58,0,0
2,note_on,39,49,120
2,note_on,51,56,0
2,note_on,51,0,395
2,note_on,39,0,0
2,note_on,39,55,0
2,note_on,38,55,0
2,note_on,50,61,0
2,note_on,50,0,278
2,note_on,38,0,0
2,note_on,39,0,0
2,note_on,36,58,0
2,note_on,39,58,0
2,note_on,48,64,0
2,note_on,48,0,202
2,note_on,39,0,0
2,note_on,36,0,0
2,note_on,31,72,0
2,note_on,36,72,0
2,note_on,39,72,0
2,note_on,43,81,0
2,note_on,43,0,354
2,note_on,31,0,0
2,note_on,36,0,0
2,note_on,39,0,0
2,note_on,39,67,0
2,note_on,51,74,0
2,note_on,51,0,104
2,note_on,39,0,0
2,note_on,48,74,120
2,note_on,36,67,0
2,note_on,36,0,120
2,note_on,48,0,0
2,note_on,44,69,120
2,note_on,51,69,0
2,note_on,56,77,0
2,note_on,56,0,331
2,note_on,51,0,0
2,note_on,44,0,0
2,note_on,36,62,0
2,note_on,48,70,0
2,note_on,48,0,101
2,note_on,36,0,0
2,note_on,32,62,120
2,note_on,44,70,0
2,note_on,44,0,120
2,note_on,32,0,0
2,note_on,53,74,120
2,note_on,48,67,0
2,note_on,44,67,0
2,note_on,41,67,0
2,note_on,41,0,389
2,note_on,53,0,0
2,note_on,48,0,0
2,note_on,44,0,0
2,note_on,32,59,0
2,note_on,44,66,0
2,note_on,44,0,228
2,note_on,32,0,0
2,note_on,29,59,0
2,note_on,41,66,0
2,note_on,41,0,240
2,note_on,29,0,0
2,note_on,48,62,0
2,note_on,51,62,0
2,note_on,54,62,0
2,note_on,57,70,0
2,note_on,60,70,0
2,note_on,60,0,388
2,note_on,54,0,0
2,note_on,48,0,0
2,note_on,51,0,0
2,note_on,57,0,0
2,note_on,31,62,0
2,note_on,43,70,0
2,note_on,43,0,223
2,note_on,31,0,0
2,note_on,31,53,240
2,note_on,43,58,0
2,note_on,43,0,180
2,note_on,31,0,0
2,note_on,31,48,300
2,note_on,43,55,0
2,note_on,43,0,180
2,note_on,31,0,0
2,note_on,32,46,0
2,note_on,36,46,0
2,note_on,44,51,0
2,note_on,44,0,560
2,note_on,36,0,0
2,note_on,32,0,0
2,note_on,60,35,0
2,note_on,56,35,0
2,note_on,51,30,0
2,note_on,51,0,1563
2,note_on,60,0,0
2,note_on,56,0,10
2,note_on,36,27,0
2,note_on,48,33,0
2,note_on,48,0,47
2,note_on,43,33,0
2,note_on,43,0,160
2,note_on,48,33,0
2,note_on,48,0,160
2,note_on,36,0,0
2,note_on,36,25,0
2,note_on,43,30,0
2,note_on,43,0,461
2,note_on,36,0,0
2,note_on,36,27,0
2,note_on,48,33,0
2,note_on,48,0,96
2,note_on,43,33,0
2,note_on,43,0,160
2,note_on,48,33,0
2,note_on,48,0,160
2,note_on,36,0,0
2,note_on,36,25,0
2,note_on,43,30,0
2,note_on,43,0,459
2,note_on,36,0,0
2,note_on,36,29,0
2,note_on,51,35,0
2,note_on,51,0,75
2,note_on,43,35,0
2,note_on,43,0,160
2,note_on,50,35,0
2,note_on,50,0,160
2,note_on,36,0,0
2,note_on,36,29,0
2,note_on,43,35,0
2,note_on,43,0,459
2,note_on,36,0,0
2,note_on,36,27,0
2,note_on,48,33,0
2,note_on,48,0,91
2,note_on,43,33,0
2,note_on,43,0,160
2,note_on,46,33,0
2,note_on,46,0,141
2,note_on,36,0,0
2,note_on,43,33,0
2,note_on,36,27,0
2,note_on,36,0,480
2,note_on,43,0,0
2,note_on,36,35,0
2,note_on,44,35,8
2,note_on,48,35,114
2,note_on,44,0,8
2,note_on,48,0,152
2,note_on,36,0,0
2,note_on,43,33,0
2,note_on,36,33,0
2,note_on,46,31,142
2,note_on,43,0,4
2,note_on,46,0,476
2,note_on,36,0,4
2,note_on,36,31,0
2,note_on,44,38,0
2,note_on,44,0,103
2,note_on,48,35,0
2,note_on,48,0,160
2,note_on,36,0,0
2,note_on,36,29,0
2,note_on,43,35,0
2,note_on,43,0,70
2,note_on,46,34,0
2,note_on,46,0,160
2,note_on,36,0,0
2,note_on,36,26,0
2,note_on,41,35,0
2,note_on,41,0,37
2,note_on,44,31,0
2,note_on,44,0,160
2,note_on,36,0,0
2,note_on,36,29,0
2,note_on,39,35,4
2,note_on,44,33,57
2,note_on,39,0,4
2,note_on,44,0,156
2,note_on,39,33,4
2,note_on,36,0,156
2,note_on,31,29,0
2,note_on,43,35,0
2,note_on,39,0,4
2,note_on,43,0,465
2,note_on,31,0,0
2,note_on,36,29,0
2,note_on,39,35,0
2,note_on,39,0,114
2,note_on,45,34,0
2,note_on,45,0,160
2,note_on,39,34,0
2,note_on,39,0,160
2,note_on,36,0,0
2,note_on,31,29,0
2,note_on,43,35,0
2,note_on,43,0,460
2,note_on,31,0,0
2,note_on,52,41,0
2,note_on,36,41,0
2,note_on,52,0,108
2,note_on,43,38,0
2,note_on,43,0,160
2,note_on,52,38,0
2,note_on,52,0,160
2,note_on,36,0,0
2,note_on,50,37,0
2,note_on,55,37,0
2,note_on,43,37,0
2,note_on,48,37,0
2,note_on,48,0,461
2,note_on,50,0,0
2,note_on,55,0,0
2,note_on,43,0,0
2,note_on,36,48,0
2,note_on,48,48,0
2,note_on,48,0,103
2,note_on,43,44,0
2,note_on,43,0,160
2,note_on,48,44,0
2,note_on,48,0,160
2,note_on,36,0,0
2,note_on,55,39,0
2,note_on,50,39,0
2,note_on,48,39,0
2,note_on,43,39,0
2,note_on,43,0,469
2,note_on,55,0,0
2,note_on,50,0,0
2,note_on,48,0,0
2,note_on,36,52,0
2,note_on,52,52,0
2,note_on,52,0,85
2,note_on,43,48,0
2,note_on,43,0,160
2,note_on,50,48,0
2,note_on,50,0,160
2,note_on,36,0,0
2,note_on,43,46,0
2,note_on,48,46,0
2,note_on,50,46,0
2,note_on,55,46,0
2,note_on,55,0,468
2,note_on,43,0,0
2,note_on,48,0,0
2,note_on,50,0,0
2,note_on,36,54,0
2,note_on,48,60,0
2,note_on,48,0,160
2,note_on,43,53,0
2,note_on,43,0,160
2,note_on,46,53,0
2,note_on,46,0,160
2,note_on,36,0,0
2,note_on,55,53,0
2,note_on,48,53,0
2,note_on,43,53,0
2,note_on,43,0,463
2,note_on,48,0,0
2,note_on,55,0,0
2,note_on,36,56,0
2,note_on,41,56,0
2,note_on,45,66,0
2,note_on,45,0,117
2,note_on,41,0,0
2,note_on,36,0,0
2,note_on,48,52,0
2,note_on,48,0,80
2,note_on,55,56,80
2,note_on,48,47,0
2,note_on,52,47,0
2,note_on,60,64,160
2,note_on,60,0,472
2,note_on,55,0,0
2,note_on,48,0,0
2,note_on,52,0,0
2,note_on,38,56,0
2,note_on,41,56,0
2,note_on,45,66,0
2,note_on,45,0,117
2,note_on,41,0,0
2,note_on,38,0,0
2,note_on,50,62,0
2,note_on,50,0,80
2,note_on,45,47,80
2,note_on,48,47,0
2,note_on,52,56,0
2,note_on,57,63,160
2,note_on,57,0,475
2,note_on,45,0,0
2,note_on,48,0,0
2,note_on,52,0,0
2,note_on,31,67,0
2,note_on,31,0,80
2,note_on,43,52,0
2,note_on,43,0,160
2,note_on,52,64,0
2,note_on,48,54,0
2,note_on,48,0,68
2,note_on,52,0,0
2,note_on,43,42,0
2,note_on,55,50,0
2,note_on,55,0,160
2,note_on,43,0,0
2,note_on,50,52,0
2,note_on,53,62,0
2,note_on,53,0,57
2,note_on,50,0,0
2,note_on,43,40,0
2,note_on,55,48,0
2,note_on,55,0,160
2,note_on,43,0,0
2,note_on,48,57,0
2,note_on,52,68,0
2,note_on,52,0,103
2,note_on,48,0,0
2,note_on,43,44,0
2,note_on,55,52,0
2,note_on,55,0,160
2,note_on,43,0,0
2,note_on,45,52,0
2,note_on,48,62,0
2,note_on,48,0,160
2,note_on,45,0,0
2,note_on,43,49,0
2,note_on,47,49,0
2,note_on,50,58,0
2,note_on,55,58,0
2,note_on,55,0,457
2,note_on,43,0,0
2,note_on,47,0,0
2,note_on,50,0,0
2,note_on,36,62,0
2,note_on,36,0,125
2,note_on,48,58,0
2,note_on,48,0,160
2,note_on,57,57,0
2,note_on,53,48,0
2,note_on,48,44,102
2,note_on,60,52,0
2,note_on,53,0,87
2,note_on,57,0,0
2,note_on,52,51,0
2,note_on,55,51,0
2,note_on,55,0,160
2,note_on,60,0,0
2,note_on,48,0,0
2,note_on,52,0,0
2,note_on,33,58,0
2,note_on,33,0,111
2,note_on,45,58,0
2,note_on,45,0,160
2,note_on,53,58,0
2,note_on,50,49,0
2,note_on,45,44,99
2,note_on,57,52,0
2,note_on,50,0,94
2,note_on,53,0,0
2,note_on,48,49,0
2,note_on,52,49,0
2,note_on,52,0,160
2,note_on,57,0,0
2,note_on,45,0,0
2,note_on,48,0,0
2,note_on,31,58,0
2,note_on,31,0,97
2,note_on,43,52,0
2,note_on,43,0,160
2,note_on,52,59,0
2,note_on,48,50,0
2,note_on,48,0,45
2,note_on,52,0,0
2,note_on,43,52,0
2,note_on,55,52,0
2,note_on,55,0,160
2,note_on,43,0,0
2,note_on,45,59,0
2,note_on,48,59,0
2,note_on,48,0,40
2,note_on,45,0,0
2,note_on,43,51,0
2,note_on,55,51,0
2,note_on,55,0,160
2,note_on,43,0,0
2,note_on,31,37,0
2,note_on,35,37,0
2,note_on,38,44,0
2,note_on,43,44,0
2,note_on,43,0,420
2,note_on,31,0,0
2,note_on,35,0,0
2,note_on,38,0,0
2,note_on,36,50,0
2,note_on,48,59,0
2,note_on,48,0,166
2,note_on,36,0,0
2,note_on,34,50,60
2,note_on,46,59,0
2,note_on,46,0,180
2,note_on,34,0,0
2,note_on,32,53,60
2,note_on,36,53,0
2,note_on,44,60,0
2,note_on,44,0,640
2,note_on,36,0,0
2,note_on,32,0,0
2,note_on,51,34,0
2,note_on,56,38,0
2,note_on,60,38,0
2,note_on,60,0,1590
2,note_on,56,0,10
2,note_on,51,0,0
2,note_on,32,29,0
2,note_on,36,29,0
2,note_on,44,33,0
2,note_on,44,0,186
2,note_on,36,0,0
2,note_on,32,0,0
2,note_on,48,37,0
2,note_on,44,37,0
2,note_on,53,37,0
2,note_on,53,0,297
2,note_on,52,35,0
2,note_on,52,0,183
2,note_on,44,0,0
2,note_on,48,0,0
2,note_on,63,28,0
2,note_on,60,28,0
2,note_on,56,25,0
2,note_on,51,25,0
2,note_on,32,22,360
2,note_on,51,0,116
2,note_on,56,0,0
2,note_on,63,0,0
2,note_on,60,0,0
2,note_on,44,27,0
2,note_on,44,0,120
2,note_on,32,0,0
2,note_on,48,22,120
2,note_on,48,0,120
2,note_on,44,17,35
2,note_on,56,26,60
2,note_on,56,0,53
2,note_on,44,0,0
2,note_on,60,22,120
2,note_on,60,0,120
2,note_on,56,17,60
2,note_on,68,27,53
2,note_on,68,0,32
2,note_on,56,0,0
2,note_on,60,23,120
2,note_on,60,0,120
2,note_on,44,17,60
2,note_on,56,27,46
2,note_on,56,0,46
2,note_on,44,0,0
2,note_on,48,24,120
2,note_on,48,0,120
2,note_on,32,16,0
2,note_on,44,27,60
2,note_on,44,0,56
2,note_on,32,0,0
2,note_on,48,22,120
2,note_on,48,0,120
2,note_on,44,17,56
2,note_on,56,26,60
2,note_on,56,0,49
2,note_on,44,0,0
2,note_on,60,22,120
2,note_on,60,0,120
2,note_on,56,16,35
2,note_on,63,27,60
2,note_on,63,0,60
2,note_on,56,0,0
2,note_on,67,24,120
2,note_on,67,0,120
2,note_on,56,15,28
2,note_on,61,27,60
2,note_on,61,0,53
2,note_on,56,0,0
2,note_on,63,24,120
2,note_on,63,0,120
2,note_on,56,15,21
2,note_on,65,26,60
2,note_on,65,0,35
2,note_on,56,0,0
2,note_on,68,24,120
2,note_on,68,0,120
2,note_on,56,16,60
2,note_on,61,27,60
2,note_on,61,0,53
2,note_on,56,0,0
2,note_on,65,24,120
2,note_on,65,0,120
2,note_on,44,16,60
2,note_on,49,26,60
2,note_on,49,0,49
2,note_on,44,0,0
2,note_on,51,24,120
2,note_on,51,0,120
2,note_on,44,17,0
2,note_on,51,17,60
2,note_on,55,26,60
2,note_on,55,0,56
2,note_on,51,0,0
2,note_on,44,0,0
2,note_on,56,24,120
2,note_on,56,0,120
2,note_on,44,17,0
2,note_on,51,17,60
2,note_on,58,24,60
2,note_on,58,0,53
2,note_on,51,0,0
2,note_on,44,0,0
2,note_on,61,24,120
2,note_on,61,0,120
2,note_on,44,17,0
2,note_on,51,17,60
2,note_on,56,24,60
2,note_on,56,0,56
2,note_on,51,0,0
2,note_on,44,0,0
2,note_on,60,24,120
2,note_on,60,0,120
2,note_on,44,17,0
2,note_on,51,17,60
2,note_on,55,22,60
2,note_on,55,0,39
2,note_on,51,0,0
2,note_on,44,0,0
2,note_on,58,24,120
2,note_on,58,0,120
2,note_on,44,16,0
2,note_on,51,16,60
2,note_on,56,22,60
2,note_on,56,0,35
2,note_on,51,0,0
2,note_on,44,0,0
2,note_on,55,19,120
2,note_on,55,0,120
2,note_on,44,22,60
2,note_on,56,27,0
2,note_on,56,0,56
2,note_on,44,0,0
2,note_on,48,22,120
2,note_on,48,0,120
2,note_on,32,17,60
2,note_on,44,26,60
2,note_on,44,0,35
2,note_on,32,0,0
2,note_on,48,22,120
2,note_on,48,0,120
2,note_on,44,17,60
2,note_on,56,27,60
2,note_on,56,0,67
2,note_on,44,0,0
2,note_on,48,23,120
2,note_on,48,0,120
2,note_on,32,17,60
2,note_on,44,27,60
2,note_on,44,0,21
2,note_on,32,0,0
2,note_on,48,24,120
2,note_on,48,0,120
2,note_on,31,16,60
2,note_on,43,27,60
2,note_on,43,0,46
2,note_on,31,0,0
2,note_on,48,22,120
2,note_on,48,0,120
2,note_on,43,17,60
2,note_on,55,26,39
2,note_on,55,0,42
2,note_on,43,0,0
2,note_on,60,22,120
2,note_on,60,0,120
2,note_on,53,16,60
2,note_on,55,27,39
2,note_on,55,0,74
2,note_on,53,0,0
2,note_on,59,24,120
2,note_on,59,0,120
2,note_on,51,15,49
2,note_on,60,27,60
2,note_on,60,0,67
2,note_on,51,0,0
2,note_on,63,24,120
2,note_on,63,0,120
2,note_on,53,15,60
2,note_on,62,26,60
2,note_on,62,0,74
2,note_on,53,0,0
2,note_on,65,24,120
2,note_on,65,0,120
2,note_on,55,16,60
2,note_on,59,27,60
2,note_on,59,0,63
2,note_on,55,0,0
2,note_on,62,24,120
2,note_on,62,0,120
2,note_on,43,16,60
2,note_on,55,26,60
2,note_on,55,0,49
2,note_on,43,0,0
2,note_on,59,24,120
2,note_on,59,0,120
2,note_on,39,17,60
2,note_on,48,26,60
2,note_on,48,0,53
2,note_on,39,0,0
2,note_on,51,24,120
2,note_on,51,0,120
2,note_on,39,17,60
2,note_on,49,24,60
2,note_on,49,0,49
2,note_on,39,0,0
2,note_on,51,24,120
2,note_on,51,0,120
2,note_on,44,17,60
2,note_on,48,24,60
2,note_on,48,0,70
2,note_on,44,0,0
2,note_on,51,24,120
2,note_on,51,0,109
2,note_on,32,28,60
2,note_on,39,35,60
2,note_on,39,0,120
2,note_on,32,0,0
2,note_on,44,30,120
2,note_on,44,0,120
2,note_on,51,38,600
2,note_on,51,0,120
2,note_on,39,33,120
2,note_on,39,0,120
2,note_on,27,40,120
2,note_on,27,0,120
2,note_on,39,33,120
2,note_on,39,0,120
2,note_on,61,27,120
2,note_on,51,27,0
2,note_on,51,0,800
2,note_on,61,0,0
2,note_on,49,36,0
2,note_on,49,0,120
2,note_on,37,30,120
2,note_on,37,0,120
2,note_on,25,36,120
2,note_on,25,0,120
2,note_on,37,29,120
2,note_on,37,0,120
2,note_on,64,23,120
2,note_on,61,23,0
2,note_on,52,23,0
2,note_on,64,0,790
2,note_on,52,0,10
2,note_on,61,0,0
2,note_on,48,28,0
2,note_on,48,0,120
2,note_on,36,29,120
2,note_on,36,0,120
2,note_on,24,30,120
2,note_on,24,0,120
2,note_on,36,31,120
2,note_on,36,0,120
2,note_on,48,22,60
2,note_on,52,34,60
2,note_on,52,0,60
2,note_on,48,0,0
2,note_on,48,35,180
2,note_on,48,0,120
2,note_on,36,35,120
2,note_on,36,0,120
2,note_on,48,37,120
2,note_on,48,0,120
2,note_on,46,26,60
2,note_on,53,38,60
2,note_on,53,0,60
2,note_on,46,0,0
2,note_on,46,39,180
2,note_on,46,0,120
2,note_on,34,40,120
2,note_on,34,0,120
2,note_on,53,42,120
2,note_on,53,0,120
2,note_on,51,27,60
2,note_on,58,44,60
2,note_on,58,0,60
2,note_on,51,0,0
2,note_on,39,44,180
2,note_on,39,0,120
2,note_on,27,46,120
2,note_on,27,0,120
2,note_on,51,47,120
2,note_on,51,0,28
2,note_on,32,22,60
2,note_on,44,27,60
2,note_on,44,0,120
2,note_on,32,0,0
2,note_on,48,22,120
2,note_on,48,0,120
2,note_on,44,17,60
2,note_on,56,26,60
2,note_on,56,0,74
2,note_on,44,0,0
2,note_on,60,22,120
2,note_on,60,0,120
2,note_on,56,17,60
2,note_on,68,27,0
2,note_on,68,0,77
2,note_on,56,0,0
2,note_on,60,23,120
2,note_on,60,0,120
2,note_on,44,17,60
2,note_on,56,27,60
2,note_on,56,0,60
2,note_on,44,0,0
2,note_on,48,24,120
2,note_on,48,0,120
2,note_on,32,16,60
2,note_on,44,27,60
2,note_on,44,0,60
2,note_on,32,0,0
2,note_on,48,22,120
2,note_on,48,0,120
2,note_on,44,17,60
2,note_on,56,26,56
2,note_on,56,0,81
2,note_on,44,0,0
2,note_on,60,22,120
2,note_on,60,0,120
2,note_on,56,16,35
2,note_on,63,27,60
2,note_on,63,0,81
2,note_on,56,0,0
2,note_on,67,24,120
2,note_on,67,0,120
2,note_on,56,15,32
2,note_on,61,27,60
2,note_on,61,0,81
2,note_on,56,0,0
2,note_on,63,24,120
2,note_on,63,0,120
2,note_on,56,15,21
2,note_on,65,26,60
2,note_on,65,0,70
2,note_on,56,0,0
2,note_on,68,24,120
2,note_on,68,0,120
2,note_on,56,16,28
2,note_on,61,27,60
2,note_on,61,0,53
2,note_on,56,0,0
2,note_on,65,24,120
2,note_on,65,0,120
2,note_on,44,16,60
2,note_on,49,26,0
2,note_on,49,0,74
2,note_on,44,0,0
2,note_on,51,24,120
2,note_on,51,0,120
2,note_on,44,17,0
2,note_on,51,17,60
2,note_on,55,26,60
2,note_on,55,0,63
2,note_on,51,0,0
2,note_on,44,0,0
2,note_on,56,24,120
2,note_on,56,0,120
2,note_on,44,17,0
2,note_on,51,17,60
2,note_on,58,24,60
2,note_on,58,0,70
2,note_on,51,0,0
2,note_on,44,0,0
2,note_on,61,24,120
2,note_on,61,0,120
2,note_on,44,17,0
2,note_on,51,17,60
2,note_on,56,24,60
2,note_on,56,0,53
2,note_on,51,0,0
2,note_on,44,0,0
2,note_on,60,24,120
2,note_on,60,0,120
2,note_on,44,17,0
2,note_on,51,17,60
2,note_on,55,22,60
2,note_on,55,0,70
2,note_on,51,0,0
2,note_on,44,0,0
2,note_on,58,24,120
2,note_on,58,0,120
2,note_on,44,16,0
2,note_on,51,16,60
2,note_on,56,22,60
2,note_on,56,0,49
2,note_on,51,0,0
2,note_on,44,0,0
2,note_on,55,19,120
2,note_on,55,0,120
2,note_on,44,22,60
2,note_on,56,27,60
2,note_on,56,0,56
2,note_on,44,0,0
2,note_on,48,22,120
2,note_on,48,0,120
2,note_on,32,17,60
2,note_on,44,26,60
2,note_on,44,0,53
2,note_on,32,0,0
2,note_on,48,22,120
2,note_on,48,0,120
2,note_on,44,22,60
2,note_on,56,27,60
2,note_on,56,0,70
2,note_on,44,0,0
2,note_on,48,23,120
2,note_on,48,0,120
2,note_on,32,17,60
2,note_on,44,27,60
2,note_on,44,0,70
2,note_on,32,0,0
2,note_on,48,29,120
2,note_on,48,0,120
2,note_on,44,26,60
2,note_on,56,34,60
2,note_on,56,0,60
2,note_on,44,0,0
2,note_on,51,30,120
2,note_on,51,0,120
2,note_on,32,26,0
2,note_on,44,35,120
2,note_on,44,0,24
2,note_on,32,0,0
2,note_on,48,40,120
2,note_on,48,0,56
2,note_on,56,37,0
2,note_on,68,46,120
2,note_on,68,0,112
2,note_on,56,0,0
2,note_on,60,37,120
2,note_on,60,0,14
2,note_on,44,32,0
2,note_on,56,40,120
2,note_on,56,0,106
2,note_on,44,0,0
2,note_on,48,28,120
2,note_on,48,0,99
2,note_on,25,28,0
2,note_on,37,35,113
2,note_on,37,0,114
2,note_on,25,0,0
2,note_on,44,35,120
2,note_on,44,0,120
2,note_on,37,26,60
2,note_on,49,33,60
2,note_on,49,0,120
2,note_on,37,0,0
2,note_on,56,29,120
2,note_on,56,0,120
2,note_on,68,35,120
2,note_on,56,35,0
2,note_on,60,35,0
2,note_on,24,27,699
2,note_on,60,0,60
2,note_on,68,0,0
2,note_on,56,0,0
2,note_on,36,34,60
2,note_on,36,0,99
2,note_on,24,0,0
2,note_on,44,28,120
2,note_on,44,0,120
2,note_on,36,23,60
2,note_on,48,30,60
2,note_on,48,0,120
2,note_on,36,0,0
2,note_on,56,23,120
2,note_on,56,0,120
2,note_on,60,26,120
2,note_on,56,26,0
2,note_on,48,26,0
2,note_on,48,0,853
2,note_on,56,0,0
2,note_on,60,0,0
2,note_on,48,30,0
2,note_on,36,25,0
2,note_on,48,0,75
2,note_on,43,28,0
2,note_on,43,0,160
2,note_on,48,28,0
2,note_on,48,0,160
2,note_on,36,0,0
2,note_on,62,18,0
2,note_on,55,18,0
2,note_on,50,18,0
2,note_on,50,0,466
2,note_on,55,0,0
2,note_on,62,0,0
2,note_on,51,30,0
2,note_on,36,25,0
2,note_on,51,0,96
2,note_on,43,27,0
2,note_on,43,0,160
2,note_on,51,27,0
2,note_on,51,0,160
2,note_on,36,0,0
2,note_on,62,19,0
2,note_on,50,19,0
2,note_on,55,19,0
2,note_on,55,0,471
2,note_on,50,0,0
2,note_on,62,0,0
2,note_on,51,27,0
2,note_on,36,23,0
2,note_on,51,0,103
2,note_on,43,24,0
2,note_on,43,0,160
2,note_on,50,24,0
2,note_on,50,0,160
2,note_on,36,0,0
2,note_on,43,20,0
2,note_on,48,20,0
2,note_on,55,20,0
2,note_on,55,0,469
2,note_on,48,0,0
2,note_on,43,0,0
2,note_on,48,27,0
2,note_on,36,23,0
2,note_on,48,0,97
2,note_on,43,26,0
2,note_on,43,0,160
2,note_on,46,26,0
2,note_on,46,0,160
2,note_on,36,0,0
2,note_on,43,22,0
2,note_on,48,22,0
2,note_on,55,22,0
2,note_on,55,0,468
2,note_on,48,0,0
2,note_on,43,0,0
2,note_on,44,41,0
2,note_on,36,41,0
2,note_on,44,0,61
2,note_on,48,35,0
2,note_on,48,0,160
2,note_on,48,35,0
2,note_on,55,35,0
2,note_on,55,0,160
2,note_on,36,0,0
2,note_on,58,35,0
2,note_on,58,0,472
2,note_on,48,0,0
2,note_on,36,36,0
2,note_on,44,36,0
2,note_on,44,0,111
2,note_on,48,30,0
2,note_on,48,0,160
2,note_on,36,0,0
2,note_on,48,35,0
2,note_on,55,35,0
2,note_on,55,0,71
2,note_on,58,29,0
2,note_on,58,0,160
2,note_on,48,0,0
2,note_on,48,31,0
2,note_on,53,31,0
2,note_on,53,0,59
2,note_on,56,30,0
2,note_on,56,0,160
2,note_on,48,0,0
2,note_on,36,35,0
2,note_on,39,35,0
2,note_on,39,0,80
2,note_on,44,35,0
2,note_on,44,0,160
2,note_on,51,35,0
2,note_on,51,0,160
2,note_on,36,0,0
2,note_on,43,25,0
2,note_on,48,25,0
2,note_on,50,25,0
2,note_on,55,25,0
2,note_on,55,0,464
2,note_on,43,0,0
2,note_on,48,0,0
2,note_on,50,0,0
2,note_on,36,38,0
2,note_on,39,38,0
2,note_on,39,0,80
2,note_on,45,38,0
2,note_on,45,0,160
2,note_on,51,38,0
2,note_on,51,0,160
2,note_on,36,0,0
2,note_on,43,30,0
2,note_on,48,30,0
2,note_on,50,30,0
2,note_on,55,30,0
2,note_on,55,0,465
2,note_on,43,0,0
2,note_on,48,0,0
2,note_on,50,0,0
2,note_on,36,46,0
2,note_on,43,46,0
2,note_on,52,46,0
2,note_on,52,0,480
2,note_on,43,0,0
2,note_on,36,0,0
2,note_on,50,39,0
2,note_on,48,39,0
2,note_on,55,39,0
2,note_on,55,0,59
2,note_on,48,0,0
2,note_on,50,0,0
2,note_on,43,48,0
2,note_on,43,0,160
2,note_on,50,38,0
2,note_on,48,38,0
2,note_on,55,38,0
2,note_on,55,0,160
2,note_on,48,0,0
2,note_on,50,0,0
2,note_on,36,48,0
2,note_on,43,48,0
2,note_on,48,48,0
2,note_on,48,0,411
2,note_on,43,0,0
2,note_on,36,0,0
2,note_on,48,39,0
2,note_on,50,39,0
2,note_on,55,39,0
2,note_on,55,0,68
2,note_on,50,0,0
2,note_on,48,0,0
2,note_on,43,49,0
2,note_on,43,0,160
2,note_on,48,39,0
2,note_on,50,39,0
2,note_on,55,39,0
2,note_on,55,0,160
2,note_on,50,0,0
2,note_on,48,0,0
2,note_on,36,55,0
2,note_on,43,55,0
2,note_on,52,55,0
2,note_on,52,0,143
2,note_on,50,49,0
2,note_on,50,0,240
2,note_on,43,0,0
2,note_on,36,0,0
2,note_on,50,45,0
2,note_on,48,45,0
2,note_on,55,45,0
2,note_on,55,0,57
2,note_on,48,0,0
2,note_on,50,0,0
2,note_on,43,57,0
2,note_on,43,0,160
2,note_on,50,47,0
2,note_on,48,47,0
2,note_on,55,47,0
2,note_on,55,0,160
2,note_on,48,0,0
2,note_on,50,0,0
2,note_on,36,62,0
2,note_on,43,62,0
2,note_on,48,62,0
2,note_on,48,0,154
2,note_on,46,61,0
2,note_on,46,0,240
2,note_on,43,0,0
2,note_on,36,0,0
2,note_on,48,53,0
2,note_on,55,53,0
2,note_on,55,0,74
2,note_on,48,0,0
2,note_on,43,62,0
2,note_on,43,0,160
2,note_on,48,52,0
2,note_on,55,52,0
2,note_on,55,0,160
2,note_on,48,0,0
2,note_on,36,52,0
2,note_on,41,52,0
2,note_on,45,62,0
2,note_on,48,62,0
2,note_on,48,0,472
2,note_on,36,0,0
2,note_on,41,0,0
2,note_on,45,0,0
2,note_on,52,51,0
2,note_on,55,51,0
2,note_on,60,60,0
2,note_on,60,0,117
2,note_on,55,0,0
2,note_on,52,0,0
2,note_on,48,62,0
2,note_on,48,0,160
2,note_on,52,48,0
2,note_on,55,48,0
2,note_on,60,57,0
2,note_on,60,0,26
2,note_on,55,0,0
2,note_on,52,0,0
2,note_on,38,52,0
2,note_on,41,52,0
2,note_on,45,52,0
2,note_on,50,62,0
2,note_on,50,0,480
2,note_on,38,0,0
2,note_on,41,0,0
2,note_on,45,0,0
2,note_on,48,45,0
2,note_on,52,45,0
2,note_on,57,53,0
2,note_on,57,0,110
2,note_on,52,0,0
2,note_on,48,0,0
2,note_on,45,60,0
2,note_on,45,0,160
2,note_on,48,46,0
2,note_on,52,46,0
2,note_on,57,55,0
2,note_on,57,0,160
2,note_on,52,0,0
2,note_on,48,0,0
2,note_on,31,59,0
2,note_on,43,70,0
2,note_on,43,0,242
2,note_on,31,0,0
2,note_on,52,63,0
2,note_on,48,53,0
2,note_on,48,0,84
2,note_on,52,0,0
2,note_on,43,59,0
2,note_on,55,70,0
2,note_on,55,0,160
2,note_on,43,0,0
2,note_on,50,56,0
2,note_on,53,67,0
2,note_on,53,0,66
2,note_on,50,0,0
2,note_on,43,56,0
2,note_on,55,67,0
2,note_on,55,0,160
2,note_on,43,0,0
2,note_on,48,59,0
2,note_on,52,70,0
2,note_on,52,0,103
2,note_on,48,0,0
2,note_on,43,56,0
2,note_on,55,66,0
2,note_on,55,0,160
2,note_on,43,0,0
2,note_on,45,56,0
2,note_on,48,66,0
2,note_on,48,0,160
2,note_on,45,0,0
2,note_on,43,56,0
2,note_on,47,56,0
2,note_on,50,56,0
2,note_on,55,73,0
2,note_on,55,0,371
2,note_on,43,0,0
2,note_on,47,0,0
2,note_on,50,0,0
2,note_on,36,62,0
2,note_on,36,0,107
2,note_on,48,58,0
2,note_on,48,0,160
2,note_on,57,57,0
2,note_on,53,48,0
2,note_on,48,44,102
2,note_on,60,52,0
2,note_on,53,0,90
2,note_on,57,0,0
2,note_on,52,51,0
2,note_on,55,51,0
2,note_on,55,0,160
2,note_on,60,0,0
2,note_on,48,0,0
2,note_on,52,0,0
2,note_on,33,58,0
2,note_on,33,0,96
2,note_on,45,58,0
2,note_on,45,0,160
2,note_on,53,58,0
2,note_on,50,58,0
2,note_on,45,44,88
2,note_on,57,52,0
2,note_on,50,0,87
2,note_on,53,0,0
2,note_on,48,49,0
2,note_on,52,49,0
2,note_on,52,0,160
2,note_on,57,0,0
2,note_on,45,0,0
2,note_on,48,0,0
2,note_on,31,58,0
2,note_on,31,0,57
2,note_on,43,52,0
2,note_on,43,0,160
2,note_on,53,59,0
2,note_on,50,50,0
2,note_on,50,0,57
2,note_on,53,0,0
2,note_on,43,44,0
2,note_on,55,52,0
2,note_on,55,0,160
2,note_on,43,0,0
2,note_on,48,50,0
2,note_on,52,59,0
2,note_on,52,0,51
2,note_on,48,0,0
2,note_on,43,43,0
2,note_on,55,51,0
2,note_on,45,66,160
2,note_on,48,66,0
2,note_on,43,42,254
2,note_on,47,46,46
2,note_on,50,48,24
2,note_on,48,0,60
2,note_on,45,0,0
2,note_on,43,0,0
2,note_on,55,0,0
2,note_on,55,52,0
2,note_on,55,0,21
2,note_on,47,0,0
2,note_on,43,0,0
2,note_on,50,0,0
2,note_on,36,39,0
2,note_on,36,0,120
2,note_on,31,29,360
2,note_on,31,0,120
2,note_on,36,29,120
2,note_on,36,0,120
2,note_on,29,30,120
2,note_on,29,0,120
2,note_on,36,29,360
2,note_on,36,0,120
2,note_on,29,29,120
2,note_on,29,0,120
2,note_on,36,33,120
2,note_on,36,0,120
2,note_on,31,29,360
2,note_on,31,0,120
2,note_on,36,29,120
2,note_on,36,0,120
2,note_on,31,29,120
2,note_on,31,0,120
2,note_on,43,29,120
2,note_on,43,0,120
2,note_on,36,30,120
2,note_on,36,0,120
2,note_on,55,29,360
2,note_on,59,29,0
2,note_on,48,29,0
2,note_on,48,0,120
2,note_on,59,0,0
2,note_on,55,0,0
2,note_on,69,29,360
2,note_on,65,29,0
2,note_on,60,29,0
2,note_on,60,0,120
2,note_on,65,0,0
2,note_on,69,0,0
2,note_on,67,33,360
2,note_on,64,33,0
2,note_on,60,33,0
2,note_on,60,0,120
2,note_on,64,0,0
2,note_on,67,0,0
2,note_on,55,29,360
2,note_on,55,0,120
2,note_on,60,29,120
2,note_on,60,0,120
2,note_on,57,29,120
2,note_on,57,0,120
2,note_on,62,29,360
2,note_on,62,0,120
2,note_on,57,29,120
2,note_on,57,0,120
2,note_on,64,30,120
2,note_on,64,0,120
2,note_on,57,29,360
2,note_on,57,0,120
2,note_on,64,29,120
2,note_on,64,0,120
2,note_on,59,29,120
2,note_on,59,0,120
2,note_on,64,29,360
2,note_on,64,0,120
2,note_on,51,27,360
2,note_on,52,27,0
2,note_on,63,27,0
2,note_on,63,0,120
2,note_on,52,0,0
2,note_on,51,0,0
2,note_on,38,24,360
2,note_on,40,24,0
2,note_on,50,24,0
2,note_on,50,0,120
2,note_on,40,0,0
2,note_on,38,0,0
2,note_on,24,27,360
2,note_on,36,29,0
2,note_on,36,0,120
2,note_on,24,0,0
2,note_on,31,24,360
2,note_on,31,0,120
2,note_on,36,23,120
2,note_on,36,0,120
2,note_on,29,29,120
2,note_on,29,0,120
2,note_on,36,27,360
2,note_on,36,0,120
2,note_on,29,27,120
2,note_on,29,0,120
2,note_on,36,29,120
2,note_on,36,0,120
2,note_on,31,26,360
2,note_on,31,0,120
2,note_on,36,25,120
2,note_on,36,0,120
2,note_on,31,25,120
2,note_on,31,0,120
2,note_on,43,24,120
2,note_on,43,0,120
2,note_on,36,26,120
2,note_on,36,0,120
2,note_on,46,22,360
2,note_on,58,22,0
2,note_on,48,22,0
2,note_on,48,0,120
2,note_on,58,0,0
2,note_on,46,0,0
2,note_on,68,19,360
2,note_on,60,19,0
2,note_on,56,19,0
2,note_on,56,0,120
2,note_on,60,0,0
2,note_on,68,0,0
2,note_on,31,27,0
2,note_on,48,18,480
2,note_on,48,0,251
2,note_on,31,0,0
2,note_on,43,24,0
2,note_on,51,24,0
2,note_on,51,0,296
2,note_on,55,19,0
2,note_on,43,0,254
2,note_on,60,22,0
2,note_on,60,0,365
2,note_on,63,20,0
2,note_on,63,0,308
2,note_on,55,0,0
2,note_on,31,22,0
2,note_on,31,0,666
2,note_on,43,18,0
2,note_on,56,17,297
2,note_on,56,0,137
2,note_on,43,0,0
2,note_on,31,24,0
2,note_on,50,18,268
2,note_on,50,0,353
2,note_on,31,0,0
2,note_on,43,19,0
2,note_on,55,19,0
2,note_on,55,0,226
2,note_on,58,19,0
2,note_on,58,0,197
2,note_on,43,0,0
2,note_on,55,20,0
2,note_on,63,20,0
2,note_on,63,0,353
2,note_on,67,20,0
2,note_on,67,0,310
2,note_on,55,0,0
2,note_on,31,22,0
2,note_on,31,0,666
2,note_on,43,18,0
2,note_on,60,17,213
2,note_on,60,0,160
2,note_on,43,0,0
2,note_on,31,22,0
2,note_on,55,18,296
2,note_on,43,20,228
2,note_on,55,0,226
2,note_on,31,0,0
2,note_on,60,20,0
2,note_on,60,0,113
2,note_on,63,19,0
2,note_on,63,0,480
2,note_on,43,0,0
2,note_on,55,18,0
2,note_on,68,18,0
2,note_on,68,0,324
2,note_on,72,20,0
2,note_on,72,0,310
2,note_on,55,0,0
2,note_on,31,22,0
2,note_on,31,0,640
2,note_on,43,22,0
2,note_on,65,22,266
2,note_on,65,0,133
2,note_on,43,0,0
2,note_on,63,22,0
2,note_on,55,22,0
2,note_on,63,0,231
2,note_on,60,22,0
2,note_on,60,0,480
2,note_on,57,22,0
2,note_on,57,0,480
2,note_on,55,0,0
2,note_on,54,22,0
2,note_on,54,0,28
2,note_on,43,17,0
2,note_on,48,17,60
2,note_on,51,28,0
2,note_on,51,0,120
2,note_on,48,0,0
2,note_on,43,0,0
2,note_on,43,24,240
2,note_on,48,24,60
2,note_on,51,29,60
2,note_on,51,0,81
2,note_on,48,0,0
2,note_on,43,0,0
2,note_on,43,26,240
2,note_on,48,26,60
2,note_on,51,29,60
2,note_on,51,0,120
2,note_on,48,0,0
2,note_on,43,0,0
2,note_on,43,26,240
2,note_on,48,26,60
2,note_on,51,30,60
2,note_on,57,30,0
2,note_on,57,0,120
2,note_on,43,0,0
2,note_on,48,0,0
2,note_on,51,0,0
2,note_on,54,35,0
2,note_on,54,0,120
2,note_on,51,37,0
2,note_on,51,0,120
2,note_on,48,39,0
2,note_on,48,0,120
2,note_on,43,41,0
2,note_on,55,41,0
2,note_on,55,0,303
2,note_on,43,0,0
2,note_on,41,27,0
2,note_on,43,27,0
2,note_on,55,27,0
2,note_on,55,0,177
2,note_on,43,0,0
2,note_on,41,0,0
2,note_on,39,27,0
2,note_on,43,27,0
2,note_on,55,27,0
2,note_on,55,0,278
2,note_on,43,0,0
2,note_on,39,0,0
2,note_on,38,27,0
2,note_on,43,27,0
2,note_on,53,27,0
2,note_on,55,27,0
2,note_on,55,0,177
2,note_on,38,0,0
2,note_on,43,0,0
2,note_on,53,0,0
2,note_on,51,27,0
2,note_on,55,27,0
2,note_on,36,27,0
2,note_on,43,27,0
2,note_on,43,0,228
2,note_on,51,0,0
2,note_on,55,0,0
2,note_on,36,0,0
2,note_on,35,26,0
2,note_on,39,26,0
2,note_on,47,26,0
2,note_on,51,26,0
2,note_on,57,26,0
2,note_on,57,0,183
2,note_on,47,0,0
2,note_on,35,0,0
2,note_on,39,0,0
2,note_on,51,0,0
2,note_on,34,26,0
2,note_on,41,26,0
2,note_on,46,26,0
2,note_on,50,26,0
2,note_on,58,26,0
2,note_on,22,25,371
2,note_on,34,25,0
2,note_on,34,0,240
2,note_on,22,0,0
2,note_on,34,0,240
2,note_on,41,0,0
2,note_on,22,25,0
2,note_on,34,25,0
2,note_on,34,0,240
2,note_on,22,0,0
2,note_on,22,25,240
2,note_on,34,25,0
2,note_on,34,0,240
2,note_on,22,0,0
2,note_on,50,0,240
2,note_on,58,0,0
2,note_on,46,0,0
2,note_on,46,25,0
2,note_on,58,25,0
2,note_on,58,0,274
2,note_on,46,0,0
2,note_on,42,25,0
2,note_on,58,25,0
2,note_on,58,0,183
2,note_on,42,0,0
2,note_on,39,25,0
2,note_on,54,25,0
2,note_on,58,25,0
2,note_on,58,0,228
2,note_on,54,0,0
2,note_on,39,0,0
2,note_on,35,22,0
2,note_on,51,22,0
2,note_on,54,22,0
2,note_on,59,22,0
2,note_on,59,0,137
2,note_on,35,0,0
2,note_on,51,0,0
2,note_on,54,0,0
2,note_on,32,22,0
2,note_on,51,22,0
2,note_on,56,22,0
2,note_on,59,22,0
2,note_on,59,0,440
2,note_on,32,0,0
2,note_on,51,0,0
2,note_on,56,0,0
2,note_on,28,18,40
2,note_on,40,18,0
2,note_on,56,18,0
2,note_on,59,18,0
2,note_on,64,18,0
2,note_on,64,0,381
2,note_on,56,0,0
2,note_on,28,0,0
2,note_on,40,0,0
2,note_on,59,0,0
2,note_on,35,18,0
2,note_on,47,18,0
2,note_on,54,18,0
2,note_on,59,18,0
2,note_on,63,18,0
2,note_on,23,25,280
2,note_on,35,25,0
2,note_on,35,0,240
2,note_on,23,0,0
2,note_on,35,0,240
2,note_on,47,0,0
2,note_on,23,25,0
2,note_on,35,25,0
2,note_on,35,0,240
2,note_on,23,0,0
2,note_on,23,25,240
2,note_on,35,25,0
2,note_on,35,0,240
2,note_on,23,0,0
2,note_on,59,0,240
2,note_on,63,0,0
2,note_on,54,0,0
2,note_on,47,27,0
2,note_on,59,27,0
2,note_on,59,0,324
2,note_on,47,0,0
2,note_on,47,27,0
2,note_on,59,27,0
2,note_on,45,27,0
2,note_on,45,0,207
2,note_on,59,0,0
2,note_on,47,0,0
2,note_on,43,27,0
2,note_on,47,27,0
2,note_on,59,27,0
2,note_on,59,0,324
2,note_on,47,0,0
2,note_on,43,0,0
2,note_on,42,30,0
2,note_on,47,30,0
2,note_on,59,30,0
2,note_on,57,30,0
2,note_on,57,0,233
2,note_on,42,0,0
2,note_on,47,0,0
2,note_on,59,0,0
2,note_on,40,30,0
2,note_on,47,30,0
2,note_on,55,30,0
2,note_on,59,30,0
2,note_on,59,0,320
2,note_on,40,0,0
2,note_on,47,0,0
2,note_on,55,0,0
2,note_on,38,29,0
2,note_on,42,29,0
2,note_on,50,29,0
2,note_on,54,29,0
2,note_on,60,29,0
2,note_on,60,0,228
2,note_on,50,0,0
2,note_on,38,0,0
2,note_on,42,0,0
2,note_on,54,0,0
2,note_on,37,27,0
2,note_on,44,27,0
2,note_on,49,27,0
2,note_on,53,27,0
2,note_on,61,27,0
2,note_on,25,25,348
2,note_on,37,25,0
2,note_on,37,0,240
2,note_on,25,0,0
2,note_on,44,0,240
2,note_on,37,0,0
2,note_on,49,0,0
2,note_on,25,25,0
2,note_on,37,25,0
2,note_on,37,0,240
2,note_on,25,0,0
2,note_on,25,25,240
2,note_on,37,25,0
2,note_on,37,0,240
2,note_on,25,0,0
2,note_on,53,0,240
2,note_on,61,0,0
2,note_on,49,30,0
2,note_on,61,30,0
2,note_on,61,0,246
2,note_on,49,0,5
2,note_on,46,30,0
2,note_on,58,30,0
2,note_on,58,0,228
2,note_on,46,0,0
2,note_on,42,30,0
2,note_on,46,30,0
2,note_on,54,30,0
2,note_on,54,0,320
2,note_on,46,0,0
2,note_on,42,0,0
2,note_on,39,40,0
2,note_on,46,40,0
2,note_on,51,40,0
2,note_on,51,0,160
2,note_on,46,0,0
2,note_on,39,0,0
2,note_on,35,44,0
2,note_on,39,44,0
2,note_on,47,44,0
2,note_on,47,0,297
2,note_on,39,0,0
2,note_on,35,0,0
2,note_on,32,50,0
2,note_on,39,50,0
2,note_on,44,50,0
2,note_on,44,0,160
2,note_on,39,0,0
2,note_on,32,0,0
2,note_on,34,51,0
2,note_on,38,51,0
2,note_on,41,51,0
2,note_on,46,51,0
2,note_on,58,41,346
2,note_on,62,41,0
2,note_on,65,41,0
2,note_on,70,41,0
2,note_on,70,0,480
2,note_on,34,0,0
2,note_on,46,0,0
2,note_on,41,0,0
2,note_on,38,0,0
2,note_on,65,0,480
2,note_on,58,0,0
2,note_on,62,0,0
2,note_on,51,48,0
2,note_on,54,48,0
2,note_on,58,48,0
2,note_on,63,48,0
2,note_on,63,0,317
2,note_on,51,0,0
2,note_on,54,0,0
2,note_on,58,0,0
2,note_on,58,48,0
2,note_on,62,48,0
2,note_on,65,48,0
2,note_on,70,48,0
2,note_on,34,45,346
2,note_on,34,0,120
2,note_on,41,44,0
2,note_on,41,0,120
2,note_on,46,45,0
2,note_on,46,0,120
2,note_on,50,44,0
2,note_on,50,0,120
2,note_on,70,0,0
2,note_on,58,0,0
2,note_on,62,0,0
2,note_on,65,0,0
2,note_on,58,45,0
2,note_on,58,0,120
2,note_on,62,44,0
2,note_on,62,0,120
2,note_on,65,45,0
2,note_on,65,0,240
2,note_on,35,52,0
2,note_on,39,52,0
2,note_on,42,52,0
2,note_on,47,52,0
2,note_on,47,0,332
2,note_on,35,0,0
2,note_on,39,0,0
2,note_on,42,0,0
2,note_on,37,52,0
2,note_on,41,52,0
2,note_on,44,52,0
2,note_on,49,52,0
2,note_on,61,53,303
2,note_on,65,53,0
2,note_on,68,53,0
2,note_on,73,53,0
2,note_on,73,0,480
2,note_on,37,0,0
2,note_on,49,0,0
2,note_on,44,0,0
2,note_on,41,0,0
2,note_on,68,0,480
2,note_on,61,0,0
2,note_on,65,0,0
2,note_on,54,52,0
2,note_on,58,52,0
2,note_on,61,52,0
2,note_on,66,59,0
2,note_on,66,0,337
2,note_on,54,0,0
2,note_on,58,0,0
2,note_on,61,0,0
2,note_on,61,52,0
2,note_on,65,52,0
2,note_on,68,59,0
2,note_on,73,59,0
2,note_on,37,55,371
2,note_on,37,0,120
2,note_on,44,52,0
2,note_on,44,0,120
2,note_on,49,55,0
2,note_on,49,0,120
2,note_on,53,52,0
2,note_on,53,0,120
2,note_on,73,0,0
2,note_on,61,0,0
2,note_on,65,0,0
2,note_on,68,0,0
2,note_on,61,55,0
2,note_on,61,0,120
2,note_on,65,52,0
2,note_on,65,0,120
2,note_on,68,55,0
2,note_on,68,0,240
2,note_on,37,49,0
2,note_on,37,0,99
2,note_on,44,48,0
2,note_on,44,0,103
2,note_on,49,50,0
2,note_on,49,0,120
2,note_on,52,48,0
2,note_on,52,0,120
2,note_on,61,50,0
2,note_on,61,0,120
2,note_on,64,48,0
2,note_on,64,0,120
2,note_on,68,50,0
2,note_on,68,0,240
2,note_on,30,49,0
2,note_on,34,50,11
2,note_on,34,0,120
2,note_on,30,0,0
2,note_on,37,51,0
2,note_on,37,0,120
2,note_on,42,52,0
2,note_on,42,0,120
2,note_on,46,52,0
2,note_on,46,0,39
2,note_on,49,52,0
2,note_on,49,0,120
2,note_on,54,53,0
2,note_on,54,0,120
2,note_on,58,55,0
2,note_on,58,0,120
2,note_on,61,56,0
2,note_on,66,56,46
2,note_on,66,0,120
2,note_on,61,0,0
2,note_on,70,57,0
2,note_on,70,0,120
2,note_on,73,59,0
2,note_on,66,51,20
2,note_on,70,51,40
2,note_on,73,51,40
2,note_on,73,0,20
2,note_on,78,59,0
2,note_on,78,0,5
2,note_on,73,0,0
2,note_on,70,0,0
2,note_on,66,0,0
2,note_on,71,59,360
2,note_on,66,60,5
2,note_on,66,0,120
2,note_on,71,0,0
2,note_on,63,61,0
2,note_on,63,0,120
2,note_on,59,61,0
2,note_on,59,0,120
2,note_on,54,62,0
2,note_on,51,62,45
2,note_on,51,0,120
2,note_on,54,0,0
2,note_on,47,64,0
2,note_on,47,0,120
2,note_on,42,66,0
2,note_on,42,0,120
2,note_on,39,66,0
2,note_on,35,66,23
2,note_on,35,0,120
2,note_on,39,0,0
2,note_on,30,67,0
2,note_on,30,0,120
2,note_on,27,68,0
2,note_on,27,0,120
2,note_on,58,69,0
2,note_on,63,69,0
2,note_on,67,69,0
2,note_on,70,78,0
2,note_on,70,0,197
2,note_on,58,0,0
2,note_on,63,0,0
2,note_on,67,0,0
2,note_on,58,67,120
2,note_on,46,59,0
2,note_on,46,0,111
2,note_on,58,0,0
2,note_on,39,57,120
2,note_on,51,63,0
2,note_on,51,0,120
2,note_on,39,0,0
2,note_on,63,77,120
2,note_on,60,69,0
2,note_on,56,69,0
2,note_on,51,69,0
2,note_on,51,0,455
2,note_on,63,0,0
2,note_on,60,0,0
2,note_on,56,0,0
2,note_on,39,59,0
2,note_on,51,66,0
2,note_on,51,0,104
2,note_on,39,0,0
2,note_on,32,57,120
2,note_on,44,63,0
2,note_on,44,0,120
2,note_on,32,0,0
2,note_on,39,69,120
2,note_on,46,69,0
2,note_on,51,77,0
2,note_on,51,0,388
2,note_on,46,0,0
2,note_on,39,0,0
2,note_on,34,62,0
2,note_on,46,70,0
2,note_on,46,0,107
2,note_on,34,0,0
2,note_on,27,59,120
2,note_on,39,66,0
2,note_on,39,0,120
2,note_on,27,0,0
2,note_on,34,59,120
2,note_on,46,66,0
2,note_on,46,0,120
2,note_on,34,0,0
2,note_on,58,62,120
2,note_on,46,62,0
2,note_on,46,0,120
2,note_on,58,0,0
2,note_on,39,66,120
2,note_on,51,73,0
2,note_on,51,0,374
2,note_on,39,0,0
2,note_on,62,72,0
2,note_on,58,64,0
2,note_on,51,64,0
2,note_on,51,0,388
2,note_on,58,0,0
2,note_on,62,0,0
2,note_on,51,62,0
2,note_on,56,62,0
2,note_on,60,70,0
2,note_on,60,0,388
2,note_on,56,0,0
2,note_on,51,0,0
2,note_on,39,62,0
2,note_on,46,62,0
2,note_on,51,70,0
2,note_on,51,0,374
2,note_on,46,0,0
2,note_on,39,0,0
2,note_on,34,64,0
2,note_on,46,72,0
2,note_on,46,0,104
2,note_on,34,0,0
2,note_on,39,68,120
2,note_on,27,60,0
2,note_on,27,0,120
2,note_on,39,0,0
2,note_on,60,77,120
2,note_on,55,69,0
2,note_on,51,69,0
2,note_on,48,69,0
2,note_on,48,0,416
2,note_on,60,0,0
2,note_on,55,0,0
2,note_on,51,0,0
2,note_on,41,62,0
2,note_on,53,70,0
2,note_on,53,0,105
2,note_on,41,0,0
2,note_on,36,62,120
2,note_on,48,70,0
2,note_on,48,0,120
2,note_on,36,0,0
2,note_on,43,67,120
2,note_on,46,67,0
2,note_on,50,67,0
2,note_on,55,74,0
2,note_on,55,0,445
2,note_on,43,0,0
2,note_on,46,0,0
2,note_on,50,0,0
2,note_on,36,59,0
2,note_on,48,66,0
2,note_on,48,0,97
2,note_on,36,0,0
2,note_on,31,56,120
2,note_on,43,62,0
2,note_on,43,0,120
2,note_on,31,0,0
2,note_on,26,59,120
2,note_on,38,67,0
2,note_on,38,0,120
2,note_on,26,0,0
2,note_on,50,61,120
2,note_on,38,55,0
2,note_on,38,0,120
2,note_on,50,0,0
2,note_on,31,63,120
2,note_on,43,71,0
2,note_on,43,0,417
2,note_on,31,0,0
2,note_on,54,70,0
2,note_on,43,62,0
2,note_on,43,0,414
2,note_on,54,0,0
2,note_on,43,58,0
2,note_on,53,64,0
2,note_on,53,0,316
2,note_on,43,0,0
2,note_on,51,52,50
2,note_on,55,52,0
2,note_on,58,52,0
2,note_on,63,59,0
2,note_on,63,0,311
2,note_on,51,0,0
2,note_on,55,0,0
2,note_on,58,0,0
2,note_on,58,53,0
2,note_on,46,48,0
2,note_on,46,0,127
2,note_on,58,0,0
2,note_on,39,53,0
2,note_on,51,60,0
2,note_on,51,0,113
2,note_on,39,0,0
2,note_on,51,59,0
2,note_on,56,66,0
2,note_on,44,59,0
2,note_on,44,0,290
2,note_on,56,0,0
2,note_on,51,0,0
2,note_on,39,48,0
2,note_on,51,53,0
2,note_on,51,0,151
2,note_on,39,0,0
2,note_on,32,49,0
2,note_on,44,56,0
2,note_on,44,0,88
2,note_on,32,0,0
2,note_on,39,50,0
2,note_on,46,50,0
2,note_on,51,57,0
2,note_on,51,0,296
2,note_on,46,0,0
2,note_on,39,0,0
2,note_on,34,52,0
2,note_on,46,59,0
2,note_on,46,0,113
2,note_on,34,0,0
2,note_on,27,50,0
2,note_on,39,57,0
2,note_on,39,0,99
2,note_on,27,0,0
2,note_on,34,50,0
2,note_on,46,57,0
2,note_on,46,0,56
2,note_on,34,0,0
2,note_on,58,56,0
2,note_on,46,49,0
2,note_on,46,0,240
2,note_on,58,0,0
2,note_on,39,58,0
2,note_on,51,64,0
2,note_on,51,0,254
2,note_on,39,0,0
2,note_on,39,59,0
2,note_on,37,59,0
2,note_on,49,66,0
2,note_on,49,0,337
2,note_on,37,0,0
2,note_on,39,0,0
2,note_on,34,62,0
2,note_on,39,62,0
2,note_on,46,70,0
2,note_on,46,0,7
2,note_on,39,0,0
2,note_on,34,0,0
2,note_on,32,72,60
2,note_on,39,72,0
2,note_on,44,81,0
2,note_on,44,0,388
2,note_on,39,0,0
2,note_on,32,0,0
2,note_on,35,67,0
2,note_on,47,74,0
2,note_on,47,0,113
2,note_on,35,0,0
2,note_on,44,72,120
2,note_on,32,64,0
2,note_on,32,0,120
2,note_on,44,0,0
2,note_on,47,70,120
2,note_on,40,70,0
2,note_on,44,70,0
2,note_on,52,79,0
2,note_on,52,0,445
2,note_on,47,0,0
2,note_on,40,0,0
2,note_on,44,0,0
2,note_on,44,62,0
2,note_on,56,70,0
2,note_on,56,0,110
2,note_on,44,0,0
2,note_on,40,60,120
2,note_on,52,68,0
2,note_on,52,0,120
2,note_on,40,0,0
2,note_on,61,77,120
2,note_on,56,69,0
2,note_on,52,69,0
2,note_on,49,69,0
2,note_on,49,0,463
2,note_on,61,0,0
2,note_on,56,0,0
2,note_on,52,0,0
2,note_on,40,59,0
2,note_on,52,66,0
2,note_on,52,0,111
2,note_on,40,0,0
2,note_on,37,59,120
2,note_on,49,66,0
2,note_on,49,0,120
2,note_on,37,0,0
2,note_on,44,64,120
2,note_on,50,64,0
2,note_on,53,64,0
2,note_on,56,72,0
2,note_on,56,0,428
2,note_on,44,0,0
2,note_on,50,0,0
2,note_on,53,0,0
2,note_on,42,67,0
2,note_on,54,74,0
2,note_on,54,0,103
2,note_on,42,0,0
2,note_on,53,71,120
2,note_on,41,63,0
2,note_on,41,0,120
2,note_on,53,0,0
2,note_on,46,67,0
2,note_on,58,74,0
2,note_on,58,0,176
2,note_on,46,0,0
2,note_on,34,67,120
2,note_on,46,74,0
2,note_on,46,0,99
2,note_on,34,0,0
2,note_on,39,55,120
2,note_on,39,0,86
2,note_on,46,52,0
2,note_on,46,0,120
2,note_on,51,55,0
2,note_on,51,0,120
2,note_on,54,52,0
2,note_on,54,0,114
2,note_on,46,40,0
2,note_on,50,40,0
2,note_on,56,48,0
2,note_on,56,0,88
2,note_on,50,0,0
2,note_on,46,0,0
2,note_on,39,53,0
2,note_on,39,0,120
2,note_on,46,52,0
2,note_on,46,0,57
2,note_on,51,53,0
2,note_on,51,0,120
2,note_on,54,53,0
2,note_on,54,0,114
2,note_on,46,40,0
2,note_on,50,40,0
2,note_on,56,48,0
2,note_on,56,0,97
2,note_on,50,0,0
2,note_on,46,0,0
2,note_on,39,52,0
2,note_on,47,50,120
2,note_on,47,0,97
2,note_on,39,0,0
2,note_on,51,52,0
2,note_on,51,0,120
2,note_on,54,50,0
2,note_on,54,0,97
2,note_on,48,40,0
2,note_on,51,40,0
2,note_on,57,48,0
2,note_on,57,0,80
2,note_on,51,0,0
2,note_on,48,0,0
2,note_on,39,52,0
2,note_on,48,51,120
2,note_on,48,0,57
2,note_on,39,0,0
2,note_on,51,52,0
2,note_on,51,0,120
2,note_on,57,50,0
2,note_on,57,0,85
2,note_on,51,41,0
2,note_on,54,41,0
2,note_on,60,49,0
2,note_on,60,0,103
2,note_on,54,0,0
2,note_on,51,0,0
2,note_on,34,49,0
2,note_on,39,49,0
2,note_on,42,56,0
2,note_on,46,56,0
2,note_on,46,0,365
2,note_on,34,0,0
2,note_on,39,0,0
2,note_on,42,0,0
2,note_on,46,49,0
2,note_on,53,49,0
2,note_on,56,56,0
2,note_on,58,56,0
2,note_on,58,0,251
2,note_on,46,0,0
2,note_on,53,0,0
2,note_on,56,0,0
2,note_on,35,46,0
2,note_on,35,0,120
2,note_on,42,45,0
2,note_on,42,0,51
2,note_on,47,46,0
2,note_on,47,0,120
2,note_on,51,45,0
2,note_on,51,0,100
2,note_on,47,34,0
2,note_on,52,34,0
2,note_on,58,40,0
2,note_on,58,0,85
2,note_on,52,0,0
2,note_on,47,0,0
2,note_on,35,46,0
2,note_on,35,0,120
2,note_on,42,45,0
2,note_on,42,0,97
2,note_on,47,46,0
2,note_on,47,0,120
2,note_on,51,45,0
2,note_on,51,0,68
2,note_on,47,33,0
2,note_on,52,33,0
2,note_on,58,39,0
2,note_on,58,0,103
2,note_on,52,0,0
2,note_on,47,0,0
2,note_on,35,41,0
2,note_on,35,0,120
2,note_on,42,39,0
2,note_on,42,0,63
2,note_on,47,41,0
2,note_on,47,0,120
2,note_on,51,39,0
2,note_on,48,33,90
2,note_on,57,39,0
2,note_on,57,0,85
2,note_on,48,0,0
2,note_on,51,0,0
2,note_on,29,41,0
2,note_on,29,0,120
2,note_on,41,40,0
2,note_on,41,0,91
2,note_on,45,41,0
2,note_on,45,0,120
2,note_on,48,40,0
2,note_on,51,38,90
2,note_on,41,32,0
2,note_on,41,0,90
2,note_on,51,0,0
2,note_on,48,0,0
2,note_on,34,57,0
2,note_on,39,57,0
2,note_on,42,57,0
2,note_on,46,64,0
2,note_on,46,0,411
2,note_on,34,0,0
2,note_on,39,0,0
2,note_on,42,0,0
2,note_on,46,54,0
2,note_on,51,54,0
2,note_on,56,54,0
2,note_on,59,61,0
2,note_on,59,0,205
2,note_on,46,0,0
2,note_on,51,0,0
2,note_on,56,0,0
2,note_on,46,52,0
2,note_on,53,52,0
2,note_on,60,59,0
2,note_on,60,0,394
2,note_on,53,0,0
2,note_on,46,0,0
2,note_on,34,55,0
2,note_on,46,55,0
2,note_on,39,27,9
2,note_on,42,27,20
2,note_on,46,26,20
2,note_on,46,0,20
2,note_on,34,0,0
2,note_on,51,52,0
2,note_on,51,0,80
2,note_on,46,0,0
2,note_on,39,0,0
2,note_on,42,0,0
2,note_on,50,37,80
2,note_on,50,0,80
2,note_on,51,36,80
2,note_on,51,0,80
2,note_on,39,26,20
2,note_on,44,26,20
2,note_on,47,26,20
2,note_on,53,36,20
2,note_on,53,0,80
2,note_on,39,0,0
2,note_on,44,0,0
2,note_on,47,0,0
2,note_on,51,35,80
2,note_on,51,0,80
2,note_on,50,35,80
2,note_on,50,0,80
2,note_on,39,28,40
2,note_on,46,28,20
2,note_on,54,38,20
2,note_on,54,0,80
2,note_on,46,0,0
2,note_on,39,0,0
2,note_on,50,37,80
2,note_on,53,37,0
2,note_on,53,0,80
2,note_on,50,0,0
2,note_on,51,37,80
2,note_on,54,37,0
2,note_on,54,0,80
2,note_on,51,0,0
2,note_on,39,28,40
2,note_on,47,28,20
2,note_on,56,37,20
2,note_on,56,0,80
2,note_on,47,0,0
2,note_on,39,0,0
2,note_on,54,36,80
2,note_on,51,36,0
2,note_on,51,0,80
2,note_on,54,0,0
2,note_on,53,36,80
2,note_on,50,36,0
2,note_on,50,0,80
2,note_on,53,0,0
2,note_on,51,30,20
2,note_on,54,30,20
2,note_on,58,30,20
2,note_on,58,0,100
2,note_on,54,0,0
2,note_on,51,0,0
2,note_on,51,31,340
2,note_on,56,31,20
2,note_on,59,31,20
2,note_on,59,0,100
2,note_on,56,0,0
2,note_on,51,0,0
2,note_on,51,35,360
2,note_on,58,37,20
2,note_on,58,0,100
2,note_on,51,0,0
2,note_on,51,35,360
2,note_on,59,35,20
2,note_on,59,0,100
2,note_on,51,0,0
2,note_on,63,40,340
2,note_on,66,40,20
2,note_on,70,40,20
2,note_on,70,0,100
2,note_on,66,0,0
2,note_on,63,0,0
2,note_on,63,41,340
2,note_on,68,44,20
2,note_on,71,41,20
2,note_on,71,0,100
2,note_on,68,0,0
2,note_on,63,0,0
2,note_on,63,48,360
2,note_on,70,48,20
2,note_on,70,0,100
2,note_on,63,0,0
2,note_on,63,52,360
2,note_on,71,53,20
2,note_on,71,0,100
2,note_on,63,0,0
2,note_on,63,42,400
2,note_on,66,42,0
2,note_on,70,42,0
2,note_on,75,48,0
2,note_on,75,0,117
2,note_on,63,0,0
2,note_on,66,0,0
2,note_on,70,0,0
2,note_on,51,52,120
2,note_on,63,52,0
2,note_on,63,0,120
2,note_on,51,0,0
2,note_on,63,42,120
2,note_on,68,42,0
2,note_on,71,42,0
2,note_on,75,48,0
2,note_on,75,0,80
2,note_on,63,0,0
2,note_on,68,0,0
2,note_on,71,0,0
2,note_on,44,49,120
2,note_on,56,49,0
2,note_on,56,0,120
2,note_on,44,0,0
2,note_on,63,48,40
2,note_on,51,42,0
2,note_on,54,42,0
2,note_on,58,42,0
2,note_on,58,0,106
2,note_on,63,0,0
2,note_on,51,0,0
2,note_on,54,0,0
2,note_on,39,52,120
2,note_on,51,52,0
2,note_on,51,0,120
2,note_on,39,0,0
2,note_on,51,42,120
2,note_on,56,42,0
2,note_on,59,42,0
2,note_on,63,48,0
2,note_on,63,0,63
2,note_on,51,0,0
2,note_on,56,0,0
2,note_on,59,0,0
2,note_on,32,53,120
2,note_on,44,53,0
2,note_on,44,0,120
2,note_on,32,0,0
2,note_on,46,48,51
2,note_on,51,48,0
2,note_on,54,48,0
2,note_on,58,53,0
2,note_on,58,0,109
2,note_on,46,0,0
2,note_on,51,0,0
2,note_on,54,0,0
2,note_on,27,58,120
2,note_on,39,58,0
2,note_on,39,0,120
2,note_on,27,0,0
2,note_on,47,47,34
2,note_on,51,47,0
2,note_on,54,47,0
2,note_on,59,52,0
2,note_on,59,0,91
2,note_on,47,0,0
2,note_on,51,0,0
2,note_on,54,0,0
2,note_on,27,57,120
2,note_on,39,57,0
2,note_on,39,0,120
2,note_on,27,0,0
2,note_on,60,52,37
2,note_on,57,52,0
2,note_on,54,47,0
2,note_on,51,47,0
2,note_on,48,47,0
2,note_on,46,55,28
2,note_on,53,55,20
2,note_on,58,61,20
2,note_on,48,0,20
2,note_on,51,0,0
2,note_on,60,0,0
2,note_on,54,0,0
2,note_on,57,0,0
2,note_on,62,61,0
2,note_on,62,0,120
2,note_on,46,0,0
2,note_on,53,0,0
2,note_on,58,0,0
2,note_on,34,70,120
2,note_on,46,70,0
2,note_on,46,0,120
2,note_on,34,0,0
2,note_on,27,74,120
2,note_on,39,74,0
2,note_on,39,0,160
2,note_on,27,0,0
2,note_on,35,63,320
2,note_on,39,63,0
2,note_on,42,63,0
2,note_on,47,71,0
2,note_on,47,0,413
2,note_on,35,0,0
2,note_on,39,0,0
2,note_on,42,0,0
2,note_on,42,63,0
2,note_on,46,63,0
2,note_on,49,63,0
2,note_on,54,71,0
2,note_on,54,0,320
2,note_on,42,0,0
2,note_on,46,0,0
2,note_on,49,0,0
2,note_on,44,62,0
2,note_on,47,62,0
2,note_on,51,62,0
2,note_on,56,70,0
2,note_on,56,0,251
2,note_on,44,0,0
2,note_on,47,0,0
2,note_on,51,0,0
2,note_on,51,63,0
2,note_on,54,63,0
2,note_on,58,63,0
2,note_on,63,71,0
2,note_on,63,0,640
2,note_on,27,62,0
2,note_on,39,70,0
2,note_on,39,0,240
2,note_on,27,0,0
2,note_on,54,0,240
2,note_on,51,0,0
2,note_on,46,62,0
2,note_on,51,62,0
2,note_on,54,62,0
2,note_on,58,70,0
2,note_on,58,0,240
2,note_on,51,0,0
2,note_on,54,0,0
2,note_on,46,0,0
2,note_on,58,0,240
2,note_on,78,69,0
2,note_on,75,61,0
2,note_on,70,58,0
2,note_on,66,58,0
2,note_on,66,0,960
2,note_on,78,0,0
2,note_on,75,0,0
2,note_on,70,0,0
