Track,Message Type,Note,Velocity,Time
1,note_on,73,38,420
1,note_on,73,0,60
1,note_on,72,42,0
1,note_on,72,0,60
1,note_on,66,27,0
1,note_on,66,0,60
1,note_on,60,26,0
1,note_on,60,0,60
1,note_on,72,34,0
1,note_on,72,0,60
1,note_on,70,41,0
1,note_on,65,27,60
1,note_on,65,0,60
1,note_on,58,27,0
1,note_on,58,0,60
1,note_on,70,0,60
1,note_on,70,38,180
1,note_on,72,42,60
1,note_on,70,0,20
1,note_on,72,0,40
1,note_on,66,27,0
1,note_on,66,0,60
1,note_on,60,26,0
1,note_on,60,0,60
1,note_on,72,43,0
1,note_on,72,0,60
1,note_on,77,47,0
1,note_on,70,27,60
1,note_on,70,0,60
1,note_on,65,27,0
1,note_on,65,0,60
1,note_on,77,0,60
1,note_on,77,43,180
1,note_on,77,0,60
1,note_on,80,56,0
1,note_on,80,0,60
1,note_on,73,27,0
1,note_on,73,0,60
1,note_on,68,34,0
1,note_on,68,0,60
1,note_on,80,39,0
1,note_on,80,0,60
1,note_on,78,49,0
1,note_on,78,0,60
1,note_on,73,27,0
1,note_on,73,0,60
1,note_on,66,27,0
1,note_on,66,0,60
1,note_on,73,38,240
1,note_on,78,42,60
1,note_on,73,0,20
1,note_on,78,0,40
1,note_on,72,27,0
1,note_on,72,0,60
1,note_on,66,26,0
1,note_on,66,0,60
1,note_on,78,34,0
1,note_on,78,0,60
1,note_on,77,41,0
1,note_on,77,0,60
1,note_on,72,27,0
1,note_on,72,0,60
1,note_on,65,25,0
1,note_on,65,0,60
1,note_on,72,34,240
1,note_on,72,0,60
1,note_on,77,41,0
1,note_on,77,0,60
1,note_on,70,27,0
1,note_on,70,0,60
1,note_on,65,27,0
1,note_on,65,0,60
1,note_on,77,34,0
1,note_on,77,0,60
1,note_on,75,41,0
1,note_on,75,0,60
1,note_on,70,27,0
1,note_on,70,0,60
1,note_on,63,27,0
1,note_on,63,0,60
1,note_on,73,34,0
1,note_on,73,0,60
1,note_on,72,41,0
1,note_on,72,0,60
1,note_on,66,27,0
1,note_on,66,0,60
1,note_on,60,27,0
1,note_on,60,0,60
1,note_on,77,38,240
1,note_on,75,42,60
1,note_on,77,0,20
1,note_on,75,0,40
1,note_on,69,27,0
1,note_on,69,0,60
1,note_on,63,26,0
1,note_on,63,0,60
1,note_on,73,34,0
1,note_on,73,0,60
1,note_on,72,41,0
1,note_on,72,0,60
1,note_on,69,27,0
1,note_on,69,0,60
1,note_on,63,27,0
1,note_on,63,0,60
1,note_on,78,38,240
1,note_on,77,42,60
1,note_on,78,0,20
1,note_on,72,27,40
1,note_on,72,0,60
1,note_on,69,26,0
1,note_on,69,0,60
1,note_on,65,24,0
1,note_on,65,0,60
1,note_on,77,0,0
1,note_on,76,42,0
1,note_on,72,27,60
1,note_on,72,0,60
1,note_on,69,26,0
1,note_on,69,0,60
1,note_on,65,24,0
1,note_on,65,0,60
1,note_on,76,0,0
1,note_on,75,42,0
1,note_on,72,27,60
1,note_on,72,0,60
1,note_on,69,26,0
1,note_on,69,0,60
1,note_on,65,24,0
1,note_on,65,0,60
1,note_on,75,0,0
1,note_on,73,41,0
1,note_on,69,33,60
1,note_on,66,28,60
1,note_on,61,22,60
1,note_on,61,0,60
1,note_on,73,0,880
1,note_on,69,0,0
1,note_on,66,0,0
1,note_on,73,38,20
1,note_on,72,42,60
1,note_on,73,0,20
1,note_on,72,0,40
1,note_on,66,27,0
1,note_on,66,0,60
1,note_on,60,26,0
1,note_on,60,0,60
1,note_on,72,34,0
1,note_on,72,0,60
1,note_on,70,41,0
1,note_on,65,27,60
1,note_on,65,0,60
1,note_on,58,27,0
1,note_on,58,0,60
1,note_on,70,0,60
1,note_on,70,38,180
1,note_on,72,42,60
1,note_on,70,0,10
1,note_on,72,0,50
1,note_on,66,27,0
1,note_on,66,0,60
1,note_on,60,26,0
1,note_on,60,0,60
1,note_on,72,34,0
1,note_on,72,0,60
1,note_on,77,46,0
1,note_on,72,27,60
1,note_on,65,27,60
1,note_on,65,0,60
1,note_on,72,0,60
1,note_on,77,0,0
1,note_on,77,46,180
1,note_on,82,54,60
1,note_on,77,0,10
1,note_on,82,0,50
1,note_on,76,33,0
1,note_on,76,0,60
1,note_on,70,41,0
1,note_on,70,0,60
1,note_on,82,49,0
1,note_on,82,0,60
1,note_on,81,60,0
1,note_on,81,0,60
1,note_on,75,32,0
1,note_on,75,0,60
1,note_on,69,32,0
1,note_on,69,0,60
1,note_on,77,45,240
1,note_on,77,0,60
1,note_on,80,52,0
1,note_on,80,0,60
1,note_on,74,33,0
1,note_on,74,0,60
1,note_on,68,32,0
1,note_on,68,0,60
1,note_on,80,43,0
1,note_on,80,0,60
1,note_on,79,51,0
1,note_on,79,0,60
1,note_on,73,32,0
1,note_on,73,0,60
1,note_on,67,32,0
1,note_on,67,0,60
1,note_on,75,41,240
1,note_on,75,0,60
1,note_on,78,49,0
1,note_on,78,0,60
1,note_on,72,32,0
1,note_on,72,0,60
1,note_on,66,32,0
1,note_on,66,0,60
1,note_on,78,41,0
1,note_on,78,0,60
1,note_on,77,49,0
1,note_on,77,0,60
1,note_on,71,32,0
1,note_on,71,0,60
1,note_on,65,32,0
1,note_on,65,0,60
1,note_on,75,41,0
1,note_on,75,0,60
1,note_on,73,49,0
1,note_on,73,0,60
1,note_on,71,32,0
1,note_on,71,0,60
1,note_on,65,32,0
1,note_on,65,0,60
1,note_on,76,45,240
1,note_on,77,50,60
1,note_on,76,0,10
1,note_on,77,0,50
1,note_on,68,32,0
1,note_on,68,0,60
1,note_on,65,31,0
1,note_on,65,0,60
1,note_on,73,41,0
1,note_on,73,0,60
1,note_on,72,49,0
1,note_on,72,0,60
1,note_on,68,32,0
1,note_on,68,0,60
1,note_on,65,32,0
1,note_on,65,0,60
1,note_on,72,45,240
1,note_on,72,0,60
1,note_on,73,50,0
1,note_on,67,32,60
1,note_on,67,0,60
1,note_on,64,31,0
1,note_on,64,0,60
1,note_on,60,29,0
1,note_on,60,0,60
1,note_on,73,0,0
1,note_on,70,50,0
1,note_on,67,32,60
1,note_on,67,0,60
1,note_on,61,31,0
1,note_on,61,0,60
1,note_on,60,29,0
1,note_on,60,0,60
1,note_on,70,0,0
1,note_on,67,50,0
1,note_on,64,32,60
1,note_on,64,0,60
1,note_on,58,31,0
1,note_on,58,0,60
1,note_on,60,29,0
1,note_on,60,0,60
1,note_on,67,0,0
1,note_on,70,49,0
1,note_on,65,39,60
1,note_on,65,0,60
1,note_on,60,34,0
1,note_on,60,0,60
1,note_on,53,27,0
1,note_on,53,0,60
1,note_on,68,51,120
1,note_on,68,0,60
1,note_on,80,54,0
1,note_on,80,0,60
1,note_on,78,58,0
1,note_on,78,0,60
1,note_on,72,32,0
1,note_on,72,0,60
1,note_on,66,39,0
1,note_on,66,0,60
1,note_on,78,49,0
1,note_on,78,0,60
1,note_on,70,0,0
1,note_on,77,49,0
1,note_on,77,0,60
1,note_on,71,32,0
1,note_on,71,0,60
1,note_on,65,32,0
1,note_on,65,0,60
1,note_on,75,41,0
1,note_on,75,0,60
1,note_on,73,49,0
1,note_on,73,0,60
1,note_on,71,32,0
1,note_on,71,0,60
1,note_on,65,32,0
1,note_on,65,0,60
1,note_on,74,45,240
1,note_on,73,50,60
1,note_on,74,0,10
1,note_on,73,0,50
1,note_on,68,31,0
1,note_on,68,0,60
1,note_on,65,30,0
1,note_on,65,0,60
1,note_on,72,39,0
1,note_on,72,0,60
1,note_on,71,47,0
1,note_on,71,0,60
1,note_on,68,31,0
1,note_on,68,0,60
1,note_on,62,30,0
1,note_on,62,0,60
1,note_on,73,41,240
1,note_on,73,0,60
1,note_on,71,46,0
1,note_on,68,29,60
1,note_on,68,0,60
1,note_on,62,28,0
1,note_on,62,0,60
1,note_on,71,0,60
1,note_on,69,45,0
1,note_on,66,28,60
1,note_on,66,0,60
1,note_on,61,27,0
1,note_on,61,0,60
1,note_on,69,0,60
1,note_on,68,44,0
1,note_on,65,27,60
1,note_on,65,0,60
1,note_on,59,26,0
1,note_on,59,0,60
1,note_on,68,0,60
1,note_on,66,41,0
1,note_on,62,33,60
1,note_on,57,28,60
1,note_on,62,0,360
1,note_on,61,28,0
1,note_on,61,0,600
1,note_on,57,0,0
1,note_on,66,0,0
1,note_on,56,29,0
1,note_on,60,29,0
1,note_on,65,37,0
1,note_on,65,0,120
1,note_on,56,0,0
1,note_on,54,27,0
1,note_on,63,34,0
1,note_on,63,0,120
1,note_on,54,0,0
1,note_on,60,0,0
1,note_on,54,29,0
1,note_on,60,29,0
1,note_on,63,37,0
1,note_on,63,0,120
1,note_on,60,0,0
1,note_on,54,0,0
1,note_on,53,26,0
1,note_on,61,37,0
1,note_on,61,0,360
1,note_on,53,0,0
1,note_on,73,40,0
1,note_on,65,34,0
1,note_on,65,0,120
1,note_on,73,0,0
1,note_on,66,30,0
1,note_on,72,30,0
1,note_on,75,37,0
1,note_on,75,0,120
1,note_on,72,0,0
1,note_on,66,0,0
1,note_on,75,39,0
1,note_on,72,34,0
1,note_on,66,34,0
1,note_on,66,0,60
1,note_on,72,0,0
1,note_on,75,0,0
1,note_on,65,29,0
1,note_on,77,30,30
1,note_on,80,42,30
1,note_on,80,0,360
1,note_on,77,0,0
1,note_on,65,0,0
1,note_on,77,40,0
1,note_on,73,34,0
1,note_on,73,0,60
1,note_on,77,0,0
1,note_on,66,33,0
1,note_on,78,34,30
1,note_on,82,42,30
1,note_on,82,0,120
1,note_on,66,0,0
1,note_on,72,35,0
1,note_on,75,42,0
1,note_on,78,0,30
1,note_on,75,0,30
1,note_on,72,0,0
1,note_on,65,29,0
1,note_on,77,30,30
1,note_on,80,42,30
1,note_on,80,0,300
1,note_on,77,0,0
1,note_on,65,0,0
1,note_on,61,27,0
1,note_on,73,26,30
1,note_on,77,39,30
1,note_on,61,0,60
1,note_on,77,0,60
1,note_on,73,0,0
1,note_on,72,35,0
1,note_on,68,29,0
1,note_on,68,0,60
1,note_on,72,0,0
1,note_on,58,26,0
1,note_on,70,34,30
1,note_on,73,42,30
1,note_on,73,0,120
1,note_on,70,0,0
1,note_on,58,0,0
1,note_on,65,29,0
1,note_on,68,29,0
1,note_on,68,0,360
1,note_on,65,0,0
1,note_on,66,30,0
1,note_on,63,30,0
1,note_on,63,0,120
1,note_on,66,0,0
1,note_on,66,31,0
1,note_on,63,31,0
1,note_on,58,30,120
1,note_on,58,0,120
1,note_on,63,0,0
1,note_on,66,0,0
1,note_on,65,42,0
1,note_on,68,42,0
1,note_on,59,40,0
1,note_on,58,31,120
1,note_on,59,0,12
1,note_on,65,0,108
1,note_on,68,0,0
1,note_on,63,39,0
1,note_on,66,39,0
1,note_on,57,34,0
1,note_on,58,0,12
1,note_on,58,31,108
1,note_on,57,0,12
1,note_on,63,0,108
1,note_on,66,0,0
1,note_on,59,37,0
1,note_on,66,39,0
1,note_on,63,39,0
1,note_on,58,0,12
1,note_on,60,31,108
1,note_on,59,0,12
1,note_on,63,0,108
1,note_on,66,0,0
1,note_on,60,0,0
1,note_on,63,37,0
1,note_on,66,42,0
1,note_on,56,42,0
1,note_on,61,32,120
1,note_on,63,0,12
1,note_on,66,0,108
1,note_on,56,0,0
1,note_on,65,40,0
1,note_on,56,40,0
1,note_on,60,39,0
1,note_on,61,0,12
1,note_on,61,34,108
1,note_on,60,0,12
1,note_on,65,0,108
1,note_on,56,0,0
1,note_on,65,44,0
1,note_on,53,44,0
1,note_on,60,46,0
1,note_on,61,0,12
1,note_on,58,38,108
1,note_on,60,0,12
1,note_on,65,0,108
1,note_on,53,0,0
1,note_on,58,0,0
1,note_on,57,51,0
1,note_on,65,56,0
1,note_on,53,56,0
1,note_on,58,39,120
1,note_on,57,0,12
1,note_on,65,0,108
1,note_on,53,0,0
1,note_on,61,43,0
1,note_on,51,45,0
1,note_on,63,45,0
1,note_on,58,0,12
1,note_on,60,33,108
1,note_on,61,0,12
1,note_on,63,0,108
1,note_on,51,0,0
1,note_on,64,38,0
1,note_on,52,38,0
1,note_on,58,39,0
1,note_on,60,0,12
1,note_on,60,28,108
1,note_on,58,0,12
1,note_on,64,0,108
1,note_on,52,0,0
1,note_on,60,0,0
1,note_on,65,33,0
1,note_on,53,33,0
1,note_on,58,24,0
1,note_on,58,0,240
1,note_on,57,21,0
1,note_on,57,0,120
1,note_on,53,0,0
1,note_on,65,0,0
1,note_on,56,29,0
1,note_on,60,29,0
1,note_on,65,37,0
1,note_on,65,0,120
1,note_on,56,0,0
1,note_on,54,27,0
1,note_on,63,34,0
1,note_on,63,0,120
1,note_on,54,0,0
1,note_on,60,0,0
1,note_on,54,29,0
1,note_on,60,29,0
1,note_on,63,37,0
1,note_on,63,0,120
1,note_on,60,0,0
1,note_on,54,0,0
1,note_on,53,26,0
1,note_on,61,37,0
1,note_on,61,0,360
1,note_on,53,0,0
1,note_on,73,38,0
1,note_on,65,32,0
1,note_on,65,0,120
1,note_on,73,0,0
1,note_on,66,28,0
1,note_on,72,28,0
1,note_on,75,35,0
1,note_on,75,0,120
1,note_on,72,0,0
1,note_on,66,0,0
1,note_on,75,37,0
1,note_on,72,32,0
1,note_on,66,32,0
1,note_on,66,0,60
1,note_on,72,0,0
1,note_on,75,0,0
1,note_on,65,27,0
1,note_on,77,28,30
1,note_on,80,39,30
1,note_on,80,0,360
1,note_on,77,0,0
1,note_on,65,0,0
1,note_on,77,40,0
1,note_on,73,34,0
1,note_on,73,0,60
1,note_on,77,0,0
1,note_on,66,37,0
1,note_on,78,41,30
1,note_on,82,46,30
1,note_on,82,0,120
1,note_on,66,0,0
1,note_on,71,35,0
1,note_on,75,42,0
1,note_on,78,0,30
1,note_on,75,0,30
1,note_on,71,0,0
1,note_on,65,29,0
1,note_on,77,30,30
1,note_on,80,42,30
1,note_on,80,0,300
1,note_on,77,0,0
1,note_on,65,0,0
1,note_on,61,30,0
1,note_on,73,33,30
1,note_on,77,39,30
1,note_on,61,0,60
1,note_on,77,0,60
1,note_on,73,0,0
1,note_on,71,35,0
1,note_on,68,29,0
1,note_on,68,0,60
1,note_on,71,0,0
1,note_on,58,19,0
1,note_on,70,30,30
1,note_on,73,38,30
1,note_on,73,0,120
1,note_on,70,0,0
1,note_on,58,0,0
1,note_on,65,31,0
1,note_on,69,40,0
1,note_on,69,0,360
1,note_on,65,0,0
1,note_on,70,37,0
1,note_on,66,37,0
1,note_on,66,0,120
1,note_on,70,0,0
1,note_on,70,37,0
1,note_on,66,37,0
1,note_on,61,29,120
1,note_on,61,0,120
1,note_on,66,0,0
1,note_on,70,0,0
1,note_on,66,40,0
1,note_on,69,40,0
1,note_on,62,39,0
1,note_on,61,29,120
1,note_on,62,0,12
1,note_on,66,0,108
1,note_on,69,0,0
1,note_on,66,37,0
1,note_on,70,37,0
1,note_on,60,33,0
1,note_on,61,0,12
1,note_on,61,29,108
1,note_on,60,0,12
1,note_on,66,0,108
1,note_on,70,0,0
1,note_on,62,36,0
1,note_on,70,38,0
1,note_on,66,38,0
1,note_on,61,0,12
1,note_on,61,30,108
1,note_on,62,0,12
1,note_on,66,0,108
1,note_on,70,0,0
1,note_on,61,0,0
1,note_on,63,37,0
1,note_on,71,48,0
1,note_on,68,44,0
1,note_on,61,33,120
1,note_on,63,0,12
1,note_on,71,0,108
1,note_on,68,0,0
1,note_on,70,42,0
1,note_on,66,42,0
1,note_on,60,40,0
1,note_on,61,0,12
1,note_on,61,36,108
1,note_on,60,0,12
1,note_on,70,0,108
1,note_on,66,0,0
1,note_on,67,47,0
1,note_on,55,47,0
1,note_on,63,49,0
1,note_on,61,0,12
1,note_on,61,40,108
1,note_on,63,0,12
1,note_on,67,0,108
1,note_on,55,0,0
1,note_on,61,0,0
1,note_on,65,56,0
1,note_on,68,62,0
1,note_on,56,62,0
1,note_on,65,0,120
1,note_on,61,41,0
1,note_on,56,0,120
1,note_on,68,0,0
1,note_on,60,45,0
1,note_on,54,47,0
1,note_on,66,47,0
1,note_on,61,0,12
1,note_on,60,0,108
1,note_on,58,34,0
1,note_on,56,38,120
1,note_on,58,0,12
1,note_on,60,30,108
1,note_on,56,0,12
1,note_on,66,0,108
1,note_on,54,0,0
1,note_on,60,0,0
1,note_on,65,32,0
1,note_on,53,32,0
1,note_on,63,23,0
1,note_on,63,0,240
1,note_on,61,20,0
1,note_on,61,0,120
1,note_on,53,0,60
1,note_on,65,0,0
1,note_on,73,25,0
1,note_on,61,21,0
1,note_on,61,0,60
1,note_on,73,0,0
1,note_on,72,29,0
1,note_on,60,24,0
1,note_on,60,0,60
1,note_on,72,0,0
1,note_on,72,28,120
1,note_on,60,23,0
1,note_on,60,0,60
1,note_on,72,0,0
1,note_on,58,12,0
1,note_on,70,15,0
1,note_on,70,0,240
1,note_on,58,0,0
1,note_on,65,31,0
1,note_on,65,0,240
1,note_on,77,27,180
1,note_on,76,34,60
1,note_on,77,0,10
1,note_on,76,0,50
1,note_on,73,28,0
1,note_on,73,0,60
1,note_on,64,29,0
1,note_on,64,0,60
1,note_on,76,24,0
1,note_on,75,31,60
1,note_on,76,0,10
1,note_on,75,0,50
1,note_on,73,25,0
1,note_on,73,0,60
1,note_on,63,25,0
1,note_on,63,0,60
1,note_on,80,27,240
1,note_on,78,34,60
1,note_on,80,0,10
1,note_on,78,0,50
1,note_on,75,28,0
1,note_on,75,0,60
1,note_on,66,29,0
1,note_on,66,0,60
1,note_on,78,24,0
1,note_on,77,31,60
1,note_on,78,0,10
1,note_on,77,0,50
1,note_on,75,25,0
1,note_on,75,0,60
1,note_on,65,25,0
1,note_on,65,0,60
1,note_on,82,27,240
1,note_on,80,34,60
1,note_on,82,0,10
1,note_on,80,0,50
1,note_on,77,28,0
1,note_on,77,0,60
1,note_on,68,30,0
1,note_on,68,0,60
1,note_on,82,37,120
1,note_on,80,45,60
1,note_on,82,0,10
1,note_on,80,0,50
1,note_on,77,41,0
1,note_on,77,0,60
1,note_on,68,51,0
1,note_on,68,0,60
1,note_on,82,49,120
1,note_on,80,43,60
1,note_on,82,0,6
1,note_on,80,0,54
1,note_on,77,32,0
1,note_on,77,0,60
1,note_on,71,28,0
1,note_on,70,31,60
1,note_on,71,0,6
1,note_on,68,36,54
1,note_on,70,0,6
1,note_on,68,0,54
1,note_on,65,29,0
1,note_on,65,0,60
1,note_on,59,27,0
1,note_on,59,0,66
1,note_on,60,32,714
1,note_on,61,36,60
1,note_on,60,0,6
1,note_on,61,0,54
1,note_on,68,32,0
1,note_on,68,0,60
1,note_on,71,26,0
1,note_on,71,0,60
1,note_on,80,34,0
1,note_on,79,34,60
1,note_on,80,0,6
1,note_on,79,0,54
1,note_on,76,30,0
1,note_on,76,0,60
1,note_on,70,27,0
1,note_on,68,28,60
1,note_on,70,0,6
1,note_on,67,33,54
1,note_on,68,0,6
1,note_on,67,0,54
1,note_on,64,27,0
1,note_on,64,0,60
1,note_on,58,24,0
1,note_on,58,0,66
1,note_on,59,25,714
1,note_on,60,28,60
1,note_on,59,0,6
1,note_on,60,0,54
1,note_on,67,24,0
1,note_on,67,0,60
1,note_on,76,27,0
1,note_on,79,27,0
1,note_on,82,27,0
1,note_on,85,34,0
1,note_on,70,20,0
1,note_on,70,0,60
1,note_on,85,0,60
1,note_on,84,33,0
1,note_on,84,0,120
1,note_on,82,0,0
1,note_on,79,0,0
1,note_on,76,0,0
1,note_on,67,20,0
1,note_on,64,20,0
1,note_on,59,26,0
1,note_on,59,0,120
1,note_on,60,24,0
1,note_on,60,0,120
1,note_on,64,0,0
1,note_on,67,0,0
1,note_on,63,22,0
1,note_on,66,22,0
1,note_on,70,22,0
1,note_on,73,28,0
1,note_on,73,0,120
1,note_on,72,27,0
1,note_on,72,0,120
1,note_on,70,0,0
1,note_on,66,0,0
1,note_on,63,0,0
1,note_on,51,17,240
1,note_on,53,17,0
1,note_on,57,17,0
1,note_on,61,22,0
1,note_on,61,0,120
1,note_on,60,21,0
1,note_on,60,0,480
1,note_on,57,0,0
1,note_on,53,0,0
1,note_on,51,0,0
1,note_on,85,25,120
1,note_on,85,0,60
1,note_on,75,19,0
1,note_on,75,0,60
1,note_on,84,25,0
1,note_on,84,0,60
1,note_on,78,19,0
1,note_on,78,0,60
1,note_on,82,25,0
1,note_on,82,0,60
1,note_on,72,19,0
1,note_on,72,0,60
1,note_on,81,25,0
1,note_on,81,0,60
1,note_on,75,19,0
1,note_on,75,0,60
1,note_on,80,24,0
1,note_on,80,0,60
1,note_on,69,19,0
1,note_on,69,0,60
1,note_on,78,25,0
1,note_on,78,0,60
1,note_on,72,19,0
1,note_on,72,0,60
1,note_on,77,25,0
1,note_on,77,0,60
1,note_on,66,19,0
1,note_on,66,0,60
1,note_on,75,25,0
1,note_on,75,0,60
1,note_on,69,19,0
1,note_on,69,0,60
1,note_on,73,24,240
1,note_on,73,0,60
1,note_on,63,19,0
1,note_on,63,0,60
1,note_on,72,25,0
1,note_on,72,0,60
1,note_on,66,19,0
1,note_on,66,0,60
1,note_on,73,22,240
1,note_on,73,0,60
1,note_on,65,19,0
1,note_on,65,0,60
1,note_on,71,25,0
1,note_on,71,0,60
1,note_on,68,19,0
1,note_on,68,0,60
1,note_on,59,25,0
1,note_on,59,0,60
1,note_on,71,34,0
1,note_on,71,0,60
1,note_on,70,41,0
1,note_on,68,27,60
1,note_on,68,0,60
1,note_on,70,0,0
1,note_on,58,27,0
1,note_on,58,0,60
1,note_on,70,38,240
1,note_on,71,42,60
1,note_on,70,0,10
1,note_on,71,0,50
1,note_on,68,27,0
1,note_on,68,0,60
1,note_on,59,26,0
1,note_on,59,0,60
1,note_on,71,34,0
1,note_on,71,0,60
1,note_on,77,41,0
1,note_on,77,0,60
1,note_on,68,27,0
1,note_on,68,0,60
1,note_on,65,27,0
1,note_on,65,0,60
1,note_on,77,43,240
1,note_on,80,53,60
1,note_on,77,0,10
1,note_on,80,0,50
1,note_on,74,32,0
1,note_on,74,0,60
1,note_on,68,42,0
1,note_on,68,0,60
1,note_on,80,47,0
1,note_on,80,0,60
1,note_on,78,58,0
1,note_on,78,0,60
1,note_on,75,32,0
1,note_on,75,0,60
1,note_on,66,32,0
1,note_on,66,0,60
1,note_on,73,45,240
1,note_on,78,50,60
1,note_on,73,0,10
1,note_on,78,0,50
1,note_on,72,32,0
1,note_on,72,0,60
1,note_on,66,31,0
1,note_on,66,0,60
1,note_on,78,41,0
1,note_on,78,0,60
1,note_on,77,49,0
1,note_on,77,0,60
1,note_on,72,32,0
1,note_on,72,0,60
1,note_on,65,32,0
1,note_on,65,0,60
1,note_on,72,41,240
1,note_on,72,0,60
1,note_on,77,49,0
1,note_on,77,0,60
1,note_on,70,32,0
1,note_on,70,0,60
1,note_on,65,32,0
1,note_on,65,0,60
1,note_on,77,41,0
1,note_on,77,0,60
1,note_on,75,49,0
1,note_on,75,0,60
1,note_on,70,32,0
1,note_on,70,0,60
1,note_on,63,32,0
1,note_on,63,0,60
1,note_on,73,41,0
1,note_on,73,0,60
1,note_on,72,49,0
1,note_on,72,0,60
1,note_on,66,32,0
1,note_on,66,0,60
1,note_on,60,32,0
1,note_on,60,0,60
1,note_on,77,45,240
1,note_on,75,50,60
1,note_on,77,0,10
1,note_on,75,0,50
1,note_on,69,32,0
1,note_on,69,0,60
1,note_on,63,31,0
1,note_on,63,0,60
1,note_on,73,41,0
1,note_on,73,0,60
1,note_on,72,49,0
1,note_on,72,0,60
1,note_on,69,32,0
1,note_on,69,0,60
1,note_on,63,32,0
1,note_on,63,0,60
1,note_on,78,45,240
1,note_on,78,0,60
1,note_on,77,50,0
1,note_on,72,31,60
1,note_on,72,0,60
1,note_on,69,30,0
1,note_on,69,0,60
1,note_on,65,28,0
1,note_on,65,0,60
1,note_on,77,0,0
1,note_on,76,47,0
1,note_on,72,30,60
1,note_on,72,0,60
1,note_on,69,28,0
1,note_on,69,0,60
1,note_on,65,26,0
1,note_on,65,0,60
1,note_on,76,0,0
1,note_on,75,45,0
1,note_on,72,28,60
1,note_on,72,0,60
1,note_on,69,27,0
1,note_on,69,0,60
1,note_on,65,25,0
1,note_on,65,0,60
1,note_on,75,0,0
1,note_on,73,41,0
1,note_on,69,33,60
1,note_on,66,28,60
1,note_on,61,22,60
1,note_on,61,0,60
1,note_on,85,32,540
1,note_on,85,0,60
1,note_on,83,29,0
1,note_on,83,0,60
1,note_on,81,28,0
1,note_on,81,0,60
1,note_on,66,0,0
1,note_on,69,0,0
1,note_on,73,0,0
1,note_on,80,31,0
1,note_on,80,0,60
1,note_on,78,28,0
1,note_on,78,0,60
1,note_on,75,28,0
1,note_on,75,0,60
1,note_on,73,28,0
1,note_on,73,0,60
1,note_on,72,35,0
1,note_on,72,0,60
1,note_on,66,27,0
1,note_on,66,0,60
1,note_on,60,26,0
1,note_on,60,0,60
1,note_on,72,34,0
1,note_on,72,0,60
1,note_on,70,41,0
1,note_on,65,27,60
1,note_on,65,0,60
1,note_on,58,27,0
1,note_on,58,0,60
1,note_on,70,0,60
1,note_on,70,40,180
1,note_on,70,0,60
1,note_on,73,47,0
1,note_on,73,0,60
1,note_on,66,32,0
1,note_on,66,0,60
1,note_on,58,31,0
1,note_on,58,0,60
1,note_on,73,45,0
1,note_on,73,0,60
1,note_on,78,58,0
1,note_on,78,0,60
1,note_on,71,32,0
1,note_on,71,0,60
1,note_on,66,32,0
1,note_on,66,0,60
1,note_on,75,47,240
1,note_on,75,0,60
1,note_on,73,56,0
1,note_on,73,0,60
1,note_on,67,33,0
1,note_on,67,0,60
1,note_on,58,43,0
1,note_on,58,0,60
1,note_on,70,49,0
1,note_on,70,0,60
1,note_on,71,60,0
1,note_on,71,0,60
1,note_on,66,32,0
1,note_on,66,0,60
1,note_on,59,32,0
1,note_on,59,0,60
1,note_on,71,51,240
1,note_on,71,0,60
1,note_on,72,47,0
1,note_on,75,57,0
1,note_on,75,0,60
1,note_on,72,0,0
1,note_on,68,36,0
1,note_on,68,0,60
1,note_on,60,36,0
1,note_on,60,0,60
1,note_on,75,50,0
1,note_on,75,0,60
1,note_on,80,62,0
1,note_on,80,0,60
1,note_on,73,35,0
1,note_on,73,0,60
1,note_on,68,35,0
1,note_on,68,0,60
1,note_on,73,49,240
1,note_on,73,0,60
1,note_on,80,58,0
1,note_on,80,0,60
1,note_on,73,38,0
1,note_on,73,0,60
1,note_on,68,39,0
1,note_on,68,0,60
1,note_on,80,51,0
1,note_on,80,0,60
1,note_on,85,70,0
1,note_on,85,0,60
1,note_on,79,38,0
1,note_on,79,0,60
1,note_on,73,38,0
1,note_on,73,0,60
1,note_on,73,53,240
1,note_on,73,0,60
1,note_on,78,61,0
1,note_on,78,0,60
1,note_on,72,42,0
1,note_on,72,0,60
1,note_on,66,42,0
1,note_on,66,0,60
1,note_on,78,56,0
1,note_on,78,0,60
1,note_on,83,66,0
1,note_on,83,0,60
1,note_on,77,41,0
1,note_on,77,0,60
1,note_on,71,41,0
1,note_on,71,0,60
1,note_on,71,53,240
1,note_on,71,0,60
1,note_on,76,66,0
1,note_on,76,0,60
1,note_on,70,44,0
1,note_on,70,0,60
1,note_on,64,45,0
1,note_on,64,0,60
1,note_on,76,49,0
1,note_on,76,0,60
1,note_on,81,69,0
1,note_on,75,47,60
1,note_on,75,0,60
1,note_on,69,46,0
1,note_on,69,0,60
1,note_on,81,0,60
1,note_on,78,69,0
1,note_on,75,47,60
1,note_on,75,0,60
1,note_on,69,46,0
1,note_on,69,0,60
1,note_on,78,0,60
1,note_on,75,69,0
1,note_on,69,47,60
1,note_on,69,0,60
1,note_on,66,46,0
1,note_on,66,0,60
1,note_on,75,0,60
1,note_on,69,69,0
1,note_on,63,43,60
1,note_on,63,0,60
1,note_on,57,42,0
1,note_on,57,0,60
1,note_on,69,0,60
1,note_on,68,66,0
1,note_on,63,43,60
1,note_on,63,0,60
1,note_on,57,42,0
1,note_on,57,0,60
1,note_on,68,0,60
1,note_on,66,66,0
1,note_on,63,43,60
1,note_on,63,0,60
1,note_on,57,42,0
1,note_on,57,0,60
1,note_on,57,36,30
1,note_on,63,36,0
1,note_on,65,42,0
1,note_on,65,0,30
1,note_on,66,0,0
1,note_on,57,0,0
1,note_on,63,0,0
1,note_on,87,76,0
1,note_on,81,47,60
1,note_on,81,0,60
1,note_on,75,46,0
1,note_on,75,0,60
1,note_on,87,0,60
1,note_on,81,69,0
1,note_on,75,47,60
1,note_on,75,0,60
1,note_on,69,46,0
1,note_on,69,0,60
1,note_on,81,0,60
1,note_on,75,70,0
1,note_on,69,47,60
1,note_on,69,0,60
1,note_on,63,46,0
1,note_on,63,0,60
1,note_on,75,0,60
1,note_on,69,65,0
1,note_on,63,40,60
1,note_on,63,0,60
1,note_on,57,39,0
1,note_on,57,0,60
1,note_on,69,0,60
1,note_on,68,63,0
1,note_on,63,39,60
1,note_on,63,0,60
1,note_on,57,37,0
1,note_on,57,0,60
1,note_on,68,0,60
1,note_on,66,61,0
1,note_on,63,37,60
1,note_on,63,0,60
1,note_on,57,36,0
1,note_on,57,0,60
1,note_on,66,0,60
1,note_on,65,58,0
1,note_on,60,35,60
1,note_on,60,0,60
1,note_on,57,33,0
1,note_on,57,0,60
1,note_on,65,0,60
1,note_on,64,52,0
1,note_on,60,31,60
1,note_on,60,0,60
1,note_on,57,29,0
1,note_on,57,0,60
1,note_on,64,0,60
1,note_on,63,46,0
1,note_on,60,28,80
1,note_on,57,26,80
1,note_on,57,0,440
1,note_on,60,0,0
1,note_on,63,0,0
1,note_on,53,29,0
1,note_on,57,29,0
1,note_on,62,37,0
1,note_on,62,0,120
1,note_on,60,34,0
1,note_on,60,0,120
1,note_on,57,0,0
1,note_on,53,0,0
1,note_on,53,29,0
1,note_on,57,29,0
1,note_on,60,37,0
1,note_on,60,0,120
1,note_on,57,0,0
1,note_on,58,37,0
1,note_on,58,0,360
1,note_on,53,0,0
1,note_on,76,39,0
1,note_on,76,0,120
1,note_on,77,34,0
1,note_on,77,0,120
1,note_on,74,38,0
1,note_on,74,0,120
1,note_on,70,31,0
1,note_on,70,0,120
1,note_on,65,32,0
1,note_on,65,0,120
1,note_on,62,25,0
1,note_on,62,0,120
1,note_on,56,29,0
1,note_on,61,29,0
1,note_on,65,37,0
1,note_on,65,0,120
1,note_on,61,0,0
1,note_on,56,0,0
1,note_on,57,29,0
1,note_on,60,29,0
1,note_on,63,34,0
1,note_on,63,0,120
1,note_on,60,0,0
1,note_on,57,0,0
1,note_on,57,29,0
1,note_on,60,29,0
1,note_on,63,37,0
1,note_on,63,0,120
1,note_on,60,0,0
1,note_on,57,0,0
1,note_on,56,29,0
1,note_on,61,37,0
1,note_on,61,0,360
1,note_on,56,0,0
1,note_on,79,39,0
1,note_on,79,0,120
1,note_on,80,34,0
1,note_on,80,0,120
1,note_on,77,38,0
1,note_on,77,0,120
1,note_on,73,31,0
1,note_on,73,0,120
1,note_on,68,32,0
1,note_on,68,0,120
1,note_on,65,25,0
1,note_on,65,0,120
1,note_on,73,68,0
1,note_on,73,0,120
1,note_on,60,43,0
1,note_on,66,43,0
1,note_on,72,49,0
1,note_on,72,0,120
1,note_on,72,63,0
1,note_on,72,0,120
1,note_on,66,0,0
1,note_on,60,0,0
1,note_on,58,43,0
1,note_on,65,43,0
1,note_on,70,70,0
1,note_on,70,0,360
1,note_on,70,68,0
1,note_on,70,0,120
1,note_on,65,0,0
1,note_on,58,0,0
1,note_on,59,43,0
1,note_on,65,43,0
1,note_on,71,49,0
1,note_on,71,0,120
1,note_on,71,65,0
1,note_on,71,0,120
1,note_on,65,0,0
1,note_on,59,0,0
1,note_on,60,43,0
1,note_on,64,43,0
1,note_on,72,70,0
1,note_on,72,0,360
1,note_on,72,62,0
1,note_on,72,0,120
1,note_on,64,0,0
1,note_on,60,0,0
1,note_on,58,40,0
1,note_on,64,40,0
1,note_on,70,46,0
1,note_on,70,0,120
1,note_on,70,60,0
1,note_on,70,0,120
1,note_on,64,0,0
1,note_on,58,0,0
1,note_on,56,39,0
1,note_on,65,39,0
1,note_on,68,64,0
1,note_on,68,0,360
1,note_on,68,60,0
1,note_on,68,0,120
1,note_on,65,0,0
1,note_on,56,0,0
1,note_on,57,37,0
1,note_on,63,37,0
1,note_on,69,43,0
1,note_on,69,0,120
1,note_on,69,51,0
1,note_on,69,0,120
1,note_on,63,0,0
1,note_on,57,0,0
1,note_on,58,36,0
1,note_on,62,36,0
1,note_on,70,59,0
1,note_on,70,0,360
1,note_on,58,52,0
1,note_on,62,0,120
1,note_on,58,0,0
1,note_on,61,38,0
1,note_on,61,0,120
1,note_on,61,50,0
1,note_on,61,0,120
1,note_on,58,0,0
1,note_on,60,44,0
1,note_on,53,32,0
1,note_on,58,32,0
1,note_on,65,52,0
1,note_on,65,0,360
1,note_on,60,0,0
1,note_on,53,39,0
1,note_on,53,0,120
1,note_on,53,0,0
1,note_on,60,32,0
1,note_on,60,0,120
1,note_on,60,33,0
1,note_on,60,0,120
1,note_on,58,0,0
1,note_on,63,27,0
1,note_on,57,22,0
1,note_on,54,22,0
1,note_on,54,0,240
1,note_on,57,0,0
1,note_on,63,0,0
1,note_on,61,24,0
1,note_on,57,20,0
1,note_on,53,20,0
1,note_on,53,0,240
1,note_on,57,0,0
1,note_on,61,0,0
1,note_on,60,22,0
1,note_on,57,18,0
1,note_on,51,18,0
1,note_on,51,0,720
1,note_on,57,0,0
1,note_on,60,0,0
1,note_on,58,22,0
1,note_on,58,0,235
1,note_on,61,25,125
1,note_on,61,0,120
1,note_on,65,20,0
1,note_on,65,0,120
1,note_on,70,20,0
1,note_on,70,0,120
1,note_on,73,20,0
1,note_on,73,0,120
1,note_on,89,20,0
1,note_on,77,17,0
1,note_on,77,0,120
1,note_on,89,0,0
1,note_on,82,18,0
1,note_on,94,22,0
1,note_on,94,0,720
1,note_on,82,0,0
2,note_on,39,25,480
2,note_on,39,0,60
2,note_on,37,29,180
2,note_on,37,0,120
2,note_on,52,28,60
2,note_on,53,31,60
2,note_on,52,0,10
2,note_on,53,0,50
2,note_on,58,20,0
2,note_on,58,0,60
2,note_on,65,19,0
2,note_on,65,0,60
2,note_on,39,25,60
2,note_on,39,0,60
2,note_on,37,29,180
2,note_on,37,0,120
2,note_on,57,28,60
2,note_on,58,31,60
2,note_on,57,0,10
2,note_on,58,0,50
2,note_on,65,20,0
2,note_on,65,0,60
2,note_on,70,19,0
2,note_on,70,0,60
2,note_on,34,25,60
2,note_on,34,0,120
2,note_on,39,29,120
2,note_on,39,0,120
2,note_on,57,26,60
2,note_on,58,31,60
2,note_on,57,0,10
2,note_on,58,0,50
2,note_on,61,20,0
2,note_on,61,0,60
2,note_on,70,19,0
2,note_on,70,0,60
2,note_on,32,25,60
2,note_on,32,0,120
2,note_on,37,29,120
2,note_on,37,0,120
2,note_on,55,22,60
2,note_on,56,27,60
2,note_on,55,0,10
2,note_on,56,0,50
2,note_on,60,18,0
2,note_on,60,0,60
2,note_on,68,17,0
2,note_on,68,0,60
2,note_on,30,29,60
2,note_on,30,0,120
2,note_on,36,29,120
2,note_on,36,0,120
2,note_on,39,29,120
2,note_on,39,0,120
2,note_on,53,26,60
2,note_on,54,31,60
2,note_on,53,0,10
2,note_on,54,0,50
2,note_on,58,20,0
2,note_on,58,0,60
2,note_on,66,19,0
2,note_on,66,0,60
2,note_on,29,25,60
2,note_on,29,0,120
2,note_on,41,29,120
2,note_on,41,0,120
2,note_on,52,28,60
2,note_on,53,31,60
2,note_on,52,0,10
2,note_on,53,0,50
2,note_on,57,20,0
2,note_on,57,0,60
2,note_on,65,19,0
2,note_on,65,0,60
2,note_on,57,24,1020
2,note_on,57,0,60
2,note_on,54,24,0
2,note_on,54,0,60
2,note_on,49,24,0
2,note_on,49,0,60
2,note_on,45,22,0
2,note_on,45,0,60
2,note_on,42,22,0
2,note_on,42,0,60
2,note_on,37,22,0
2,note_on,37,0,60
2,note_on,33,22,0
2,note_on,33,0,60
2,note_on,30,22,0
2,note_on,30,0,60
2,note_on,27,22,0
2,note_on,27,0,60
2,note_on,39,21,0
2,note_on,39,0,60
2,note_on,42,22,0
2,note_on,42,0,60
2,note_on,45,23,0
2,note_on,45,0,60
2,note_on,51,24,0
2,note_on,51,0,60
2,note_on,54,26,0
2,note_on,54,0,60
2,note_on,57,27,0
2,note_on,57,0,60
2,note_on,39,25,60
2,note_on,39,0,120
2,note_on,37,29,120
2,note_on,37,0,120
2,note_on,52,28,60
2,note_on,53,31,60
2,note_on,52,0,10
2,note_on,53,0,50
2,note_on,58,20,0
2,note_on,58,0,60
2,note_on,65,19,0
2,note_on,65,0,60
2,note_on,39,25,60
2,note_on,39,0,120
2,note_on,37,29,120
2,note_on,37,0,120
2,note_on,57,28,60
2,note_on,58,31,60
2,note_on,57,0,10
2,note_on,58,0,50
2,note_on,65,20,0
2,note_on,65,0,60
2,note_on,70,19,0
2,note_on,70,0,60
2,note_on,36,30,60
2,note_on,36,0,120
2,note_on,41,35,120
2,note_on,41,0,120
2,note_on,59,38,60
2,note_on,60,42,60
2,note_on,59,0,10
2,note_on,60,0,50
2,note_on,63,38,0
2,note_on,63,0,60
2,note_on,72,23,0
2,note_on,72,0,60
2,note_on,34,30,60
2,note_on,34,0,120
2,note_on,39,35,120
2,note_on,39,0,120
2,note_on,57,31,60
2,note_on,58,37,60
2,note_on,57,0,10
2,note_on,58,0,50
2,note_on,61,21,0
2,note_on,61,0,60
2,note_on,70,20,0
2,note_on,70,0,60
2,note_on,32,35,60
2,note_on,32,0,120
2,note_on,37,35,120
2,note_on,37,0,120
2,note_on,49,35,120
2,note_on,49,0,120
2,note_on,55,33,60
2,note_on,56,37,60
2,note_on,55,0,10
2,note_on,56,0,50
2,note_on,59,24,0
2,note_on,59,0,60
2,note_on,68,23,0
2,note_on,68,0,60
2,note_on,36,30,60
2,note_on,36,0,120
2,note_on,48,35,120
2,note_on,48,0,120
2,note_on,52,33,60
2,note_on,53,37,60
2,note_on,52,0,10
2,note_on,53,0,50
2,note_on,56,24,0
2,note_on,56,0,60
2,note_on,65,23,0
2,note_on,65,0,60
2,note_on,48,32,1020
2,note_on,48,0,60
2,note_on,44,33,0
2,note_on,44,0,60
2,note_on,41,42,0
2,note_on,41,0,60
2,note_on,36,45,0
2,note_on,36,0,60
2,note_on,32,55,0
2,note_on,32,0,60
2,note_on,44,34,0
2,note_on,44,0,60
2,note_on,37,35,120
2,note_on,37,0,120
2,note_on,49,35,120
2,note_on,49,0,120
2,note_on,55,28,60
2,note_on,56,37,60
2,note_on,55,0,10
2,note_on,56,0,50
2,note_on,59,24,0
2,note_on,59,0,60
2,note_on,68,23,0
2,note_on,68,0,60
2,note_on,37,30,60
2,note_on,37,0,120
2,note_on,49,33,120
2,note_on,49,0,120
2,note_on,52,31,60
2,note_on,53,35,60
2,note_on,52,0,10
2,note_on,53,0,50
2,note_on,56,22,0
2,note_on,56,0,60
2,note_on,65,21,0
2,note_on,65,0,60
2,note_on,30,26,240
2,note_on,30,0,60
2,note_on,30,25,180
2,note_on,30,0,60
2,note_on,30,24,180
2,note_on,30,0,60
2,note_on,54,22,180
2,note_on,54,0,60
2,note_on,50,22,0
2,note_on,50,0,60
2,note_on,45,22,0
2,note_on,45,0,60
2,note_on,42,22,0
2,note_on,42,0,60
2,note_on,38,19,0
2,note_on,38,0,60
2,note_on,33,18,0
2,note_on,33,0,60
2,note_on,30,18,0
2,note_on,30,0,60
2,note_on,33,17,0
2,note_on,33,0,60
2,note_on,38,17,0
2,note_on,38,0,60
2,note_on,42,16,0
2,note_on,42,0,80
2,note_on,45,15,0
2,note_on,45,0,80
2,note_on,50,13,0
2,note_on,50,0,80
2,note_on,54,15,0
2,note_on,54,0,120
2,note_on,32,20,0
2,note_on,32,0,240
2,note_on,37,17,0
2,note_on,43,22,240
2,note_on,37,0,60
2,note_on,43,0,60
2,note_on,44,21,0
2,note_on,56,22,120
2,note_on,44,0,240
2,note_on,49,25,0
2,note_on,56,0,240
2,note_on,60,22,0
2,note_on,60,0,120
2,note_on,61,26,0
2,note_on,49,0,240
2,note_on,49,22,0
2,note_on,56,22,0
2,note_on,61,0,240
2,note_on,56,0,120
2,note_on,55,22,0
2,note_on,55,0,120
2,note_on,56,26,0
2,note_on,49,0,240
2,note_on,46,19,0
2,note_on,53,19,0
2,note_on,53,0,240
2,note_on,46,0,0
2,note_on,56,0,0
2,note_on,39,26,0
2,note_on,39,0,120
2,note_on,46,22,0
2,note_on,46,0,120
2,note_on,51,23,0
2,note_on,51,0,120
2,note_on,58,24,0
2,note_on,58,0,120
2,note_on,46,30,120
2,note_on,46,0,120
2,note_on,38,30,0
2,note_on,47,33,0
2,note_on,46,26,120
2,note_on,47,0,12
2,note_on,38,0,108
2,note_on,45,28,0
2,note_on,39,28,0
2,note_on,46,0,12
2,note_on,46,26,108
2,note_on,45,0,12
2,note_on,39,0,108
2,note_on,47,31,0
2,note_on,39,28,0
2,note_on,46,0,12
2,note_on,48,26,108
2,note_on,47,0,12
2,note_on,48,0,108
2,note_on,39,0,0
2,note_on,51,31,0
2,note_on,41,30,0
2,note_on,49,27,120
2,note_on,51,0,12
2,note_on,41,0,108
2,note_on,41,31,0
2,note_on,48,32,0
2,note_on,49,0,12
2,note_on,49,30,108
2,note_on,48,0,12
2,note_on,41,0,108
2,note_on,37,33,0
2,note_on,48,39,0
2,note_on,49,0,12
2,note_on,46,32,108
2,note_on,48,0,12
2,note_on,46,0,108
2,note_on,37,0,0
2,note_on,45,43,0
2,note_on,42,39,0
2,note_on,46,32,120
2,note_on,45,0,12
2,note_on,42,0,108
2,note_on,49,36,0
2,note_on,42,34,0
2,note_on,46,0,12
2,note_on,48,28,108
2,note_on,49,0,12
2,note_on,42,0,108
2,note_on,46,33,0
2,note_on,42,30,0
2,note_on,48,0,12
2,note_on,48,24,108
2,note_on,46,0,12
2,note_on,42,0,108
2,note_on,41,24,0
2,note_on,41,0,360
2,note_on,48,0,0
2,note_on,32,20,0
2,note_on,32,0,240
2,note_on,37,17,0
2,note_on,37,0,180
2,note_on,43,22,60
2,note_on,43,0,120
2,note_on,44,21,0
2,note_on,56,20,120
2,note_on,44,0,240
2,note_on,49,23,0
2,note_on,58,22,240
2,note_on,58,0,120
2,note_on,59,26,0
2,note_on,49,0,240
2,note_on,49,35,0
2,note_on,59,0,360
2,note_on,58,22,0
2,note_on,58,0,120
2,note_on,59,26,0
2,note_on,49,0,240
2,note_on,56,0,0
2,note_on,49,19,0
2,note_on,53,19,0
2,note_on,53,0,240
2,note_on,49,0,0
2,note_on,59,0,0
2,note_on,42,35,0
2,note_on,42,0,120
2,note_on,49,29,0
2,note_on,49,0,120
2,note_on,54,29,0
2,note_on,54,0,120
2,note_on,61,29,0
2,note_on,61,0,120
2,note_on,49,29,120
2,note_on,49,0,120
2,note_on,42,28,0
2,note_on,50,32,0
2,note_on,49,25,120
2,note_on,50,0,12
2,note_on,42,0,108
2,note_on,48,27,0
2,note_on,42,27,0
2,note_on,49,0,12
2,note_on,49,25,108
2,note_on,48,0,12
2,note_on,42,0,108
2,note_on,50,30,0
2,note_on,42,28,0
2,note_on,49,0,12
2,note_on,49,26,108
2,note_on,50,0,12
2,note_on,49,0,108
2,note_on,42,0,0
2,note_on,51,31,0
2,note_on,41,29,0
2,note_on,49,28,120
2,note_on,51,0,12
2,note_on,41,0,108
2,note_on,42,31,0
2,note_on,48,34,0
2,note_on,49,0,12
2,note_on,49,31,108
2,note_on,48,0,12
2,note_on,42,0,108
2,note_on,46,35,0
2,note_on,51,41,0
2,note_on,49,0,12
2,note_on,51,0,108
2,note_on,49,35,0
2,note_on,46,0,120
2,note_on,44,42,0
2,note_on,49,0,120
2,note_on,53,35,0
2,note_on,44,0,120
2,note_on,51,37,0
2,note_on,44,36,0
2,note_on,53,0,12
2,note_on,49,29,108
2,note_on,51,0,12
2,note_on,48,33,108
2,note_on,49,0,12
2,note_on,48,0,108
2,note_on,44,0,0
2,note_on,44,26,0
2,note_on,37,23,120
2,note_on,37,0,420
2,note_on,44,0,0
2,note_on,49,15,0
2,note_on,49,0,60
2,note_on,48,24,0
2,note_on,48,0,60
2,note_on,48,15,120
2,note_on,48,0,60
2,note_on,46,22,0
2,note_on,46,0,180
2,note_on,40,21,0
2,note_on,40,0,60
2,note_on,41,26,0
2,note_on,41,0,60
2,note_on,45,21,0
2,note_on,45,0,60
2,note_on,53,25,0
2,note_on,53,0,60
2,note_on,41,21,0
2,note_on,41,0,60
2,note_on,42,28,0
2,note_on,42,0,60
2,note_on,46,21,0
2,note_on,46,0,60
2,note_on,54,21,0
2,note_on,54,0,60
2,note_on,54,21,240
2,note_on,55,26,60
2,note_on,54,0,10
2,note_on,55,0,50
2,note_on,58,21,0
2,note_on,58,0,60
2,note_on,67,25,0
2,note_on,67,0,60
2,note_on,55,21,0
2,note_on,56,28,60
2,note_on,55,0,10
2,note_on,56,0,50
2,note_on,60,21,0
2,note_on,60,0,60
2,note_on,68,21,0
2,note_on,68,0,60
2,note_on,44,21,240
2,note_on,45,26,60
2,note_on,44,0,10
2,note_on,45,0,50
2,note_on,48,21,0
2,note_on,48,0,60
2,note_on,57,25,0
2,note_on,57,0,60
2,note_on,45,21,0
2,note_on,46,28,60
2,note_on,45,0,10
2,note_on,46,0,50
2,note_on,50,21,0
2,note_on,50,0,60
2,note_on,58,21,0
2,note_on,58,0,60
2,note_on,58,21,120
2,note_on,58,0,60
2,note_on,59,28,0
2,note_on,59,0,60
2,note_on,62,23,0
2,note_on,62,0,60
2,note_on,71,35,0
2,note_on,71,0,60
2,note_on,59,29,0
2,note_on,60,38,60
2,note_on,59,0,10
2,note_on,60,0,50
2,note_on,65,26,0
2,note_on,65,0,60
2,note_on,72,38,0
2,note_on,72,0,60
2,note_on,60,31,0
2,note_on,61,41,60
2,note_on,60,0,6
2,note_on,65,30,54
2,note_on,61,0,6
2,note_on,73,29,54
2,note_on,65,0,6
2,note_on,73,0,54
2,note_on,58,29,360
2,note_on,56,31,60
2,note_on,58,0,6
2,note_on,53,28,54
2,note_on,56,0,6
2,note_on,53,0,54
2,note_on,47,29,0
2,note_on,47,0,60
2,note_on,36,27,0
2,note_on,37,34,60
2,note_on,36,0,6
2,note_on,37,0,54
2,note_on,44,30,0
2,note_on,44,0,60
2,note_on,47,30,0
2,note_on,48,36,60
2,note_on,47,0,6
2,note_on,49,29,54
2,note_on,48,0,6
2,note_on,49,0,54
2,note_on,56,26,0
2,note_on,56,0,60
2,note_on,59,30,0
2,note_on,59,0,66
2,note_on,56,26,714
2,note_on,55,27,60
2,note_on,56,0,6
2,note_on,55,0,54
2,note_on,52,24,0
2,note_on,52,0,60
2,note_on,46,25,0
2,note_on,46,0,60
2,note_on,35,22,0
2,note_on,36,28,60
2,note_on,35,0,6
2,note_on,36,0,54
2,note_on,43,25,0
2,note_on,43,0,60
2,note_on,46,25,0
2,note_on,47,29,60
2,note_on,46,0,6
2,note_on,48,23,54
2,note_on,47,0,6
2,note_on,48,0,54
2,note_on,55,21,0
2,note_on,55,0,60
2,note_on,58,23,0
2,note_on,58,0,66
2,note_on,54,16,894
2,note_on,51,16,0
2,note_on,47,20,0
2,note_on,47,0,120
2,note_on,48,18,0
2,note_on,48,0,120
2,note_on,51,0,0
2,note_on,54,0,0
2,note_on,28,22,240
2,note_on,28,0,120
2,note_on,29,22,0
2,note_on,29,0,180
2,note_on,41,19,0
2,note_on,41,0,60
2,note_on,45,22,0
2,note_on,45,0,60
2,note_on,48,22,0
2,note_on,48,0,60
2,note_on,51,19,0
2,note_on,51,0,60
2,note_on,54,19,0
2,note_on,54,0,60
2,note_on,57,19,0
2,note_on,57,0,60
2,note_on,60,22,0
2,note_on,60,0,60
2,note_on,66,19,0
2,note_on,66,0,60
2,note_on,63,19,0
2,note_on,63,0,60
2,note_on,54,22,0
2,note_on,54,0,60
2,note_on,57,19,0
2,note_on,57,0,60
2,note_on,63,19,0
2,note_on,63,0,60
2,note_on,60,19,0
2,note_on,60,0,60
2,note_on,51,22,0
2,note_on,51,0,60
2,note_on,54,21,0
2,note_on,54,0,60
2,note_on,60,21,0
2,note_on,60,0,60
2,note_on,57,21,0
2,note_on,57,0,60
2,note_on,48,24,0
2,note_on,48,0,60
2,note_on,51,19,0
2,note_on,51,0,60
2,note_on,57,19,0
2,note_on,57,0,60
2,note_on,54,19,0
2,note_on,54,0,60
2,note_on,51,24,0
2,note_on,51,0,60
2,note_on,48,19,0
2,note_on,48,0,60
2,note_on,45,19,0
2,note_on,45,0,60
2,note_on,42,19,0
2,note_on,42,0,60
2,note_on,39,22,0
2,note_on,39,0,60
2,note_on,45,20,0
2,note_on,45,0,60
2,note_on,54,20,0
2,note_on,54,0,60
2,note_on,39,22,180
2,note_on,39,0,60
2,note_on,44,21,0
2,note_on,44,0,60
2,note_on,53,21,0
2,note_on,53,0,120
2,note_on,38,29,120
2,note_on,38,0,120
2,note_on,52,26,60
2,note_on,53,31,60
2,note_on,52,0,10
2,note_on,53,0,50
2,note_on,56,20,0
2,note_on,56,0,60
2,note_on,65,19,0
2,note_on,65,0,60
2,note_on,39,25,60
2,note_on,39,0,120
2,note_on,38,29,120
2,note_on,38,0,120
2,note_on,57,28,60
2,note_on,58,32,60
2,note_on,57,0,10
2,note_on,58,0,50
2,note_on,65,20,0
2,note_on,65,0,60
2,note_on,70,19,0
2,note_on,70,0,60
2,note_on,34,30,60
2,note_on,34,0,120
2,note_on,39,35,120
2,note_on,39,0,120
2,note_on,57,33,60
2,note_on,58,37,60
2,note_on,57,0,10
2,note_on,58,0,50
2,note_on,61,24,0
2,note_on,61,0,60
2,note_on,70,23,0
2,note_on,70,0,60
2,note_on,32,30,60
2,note_on,32,0,120
2,note_on,37,35,120
2,note_on,37,0,120
2,note_on,55,26,60
2,note_on,56,29,60
2,note_on,55,0,10
2,note_on,56,0,50
2,note_on,60,18,0
2,note_on,60,0,60
2,note_on,68,18,0
2,note_on,68,0,60
2,note_on,30,35,60
2,note_on,30,0,120
2,note_on,36,35,120
2,note_on,36,0,120
2,note_on,39,35,120
2,note_on,39,0,120
2,note_on,53,33,60
2,note_on,54,37,60
2,note_on,53,0,10
2,note_on,54,0,50
2,note_on,58,24,0
2,note_on,58,0,60
2,note_on,66,23,0
2,note_on,66,0,60
2,note_on,29,30,60
2,note_on,29,0,120
2,note_on,41,35,120
2,note_on,41,0,60
2,note_on,52,33,120
2,note_on,53,37,60
2,note_on,52,0,10
2,note_on,53,0,50
2,note_on,57,24,0
2,note_on,57,0,60
2,note_on,65,23,0
2,note_on,65,0,60
2,note_on,57,24,1020
2,note_on,57,0,60
2,note_on,54,24,0
2,note_on,54,0,60
2,note_on,49,24,0
2,note_on,49,0,60
2,note_on,45,22,0
2,note_on,45,0,60
2,note_on,42,22,0
2,note_on,42,0,60
2,note_on,37,22,0
2,note_on,37,0,60
2,note_on,33,22,0
2,note_on,33,0,60
2,note_on,30,22,0
2,note_on,30,0,60
2,note_on,27,22,0
2,note_on,27,0,120
2,note_on,39,21,0
2,note_on,39,0,60
2,note_on,42,22,0
2,note_on,42,0,60
2,note_on,45,23,0
2,note_on,45,0,60
2,note_on,51,24,0
2,note_on,51,0,60
2,note_on,54,26,0
2,note_on,54,0,60
2,note_on,57,27,0
2,note_on,57,0,60
2,note_on,39,25,0
2,note_on,39,0,120
2,note_on,37,29,120
2,note_on,37,0,120
2,note_on,52,28,60
2,note_on,53,31,60
2,note_on,52,0,10
2,note_on,53,0,50
2,note_on,58,20,0
2,note_on,58,0,60
2,note_on,65,19,0
2,note_on,65,0,60
2,note_on,40,30,60
2,note_on,40,0,120
2,note_on,39,35,120
2,note_on,39,0,120
2,note_on,53,33,60
2,note_on,54,37,60
2,note_on,53,0,10
2,note_on,54,0,50
2,note_on,59,24,0
2,note_on,59,0,60
2,note_on,66,23,0
2,note_on,66,0,60
2,note_on,40,30,60
2,note_on,40,0,120
2,note_on,39,35,120
2,note_on,39,0,120
2,note_on,53,33,60
2,note_on,54,37,60
2,note_on,53,0,10
2,note_on,54,0,50
2,note_on,59,24,0
2,note_on,59,0,60
2,note_on,66,23,0
2,note_on,66,0,60
2,note_on,42,33,60
2,note_on,42,0,120
2,note_on,41,42,120
2,note_on,41,0,120
2,note_on,55,38,60
2,note_on,56,48,60
2,note_on,55,0,10
2,note_on,56,0,50
2,note_on,61,26,0
2,note_on,61,0,60
2,note_on,68,25,0
2,note_on,68,0,60
2,note_on,40,41,60
2,note_on,40,0,120
2,note_on,39,45,120
2,note_on,39,0,120
2,note_on,57,38,60
2,note_on,58,45,60
2,note_on,57,0,10
2,note_on,58,0,50
2,note_on,61,28,0
2,note_on,61,0,60
2,note_on,70,27,0
2,note_on,70,0,60
2,note_on,38,45,60
2,note_on,38,0,120
2,note_on,37,48,120
2,note_on,37,0,120
2,note_on,55,42,60
2,note_on,56,48,60
2,note_on,55,0,10
2,note_on,56,0,50
2,note_on,59,30,0
2,note_on,59,0,60
2,note_on,68,29,0
2,note_on,68,0,60
2,note_on,36,47,60
2,note_on,36,0,120
2,note_on,35,51,120
2,note_on,35,0,120
2,note_on,59,42,60
2,note_on,59,0,60
2,note_on,47,42,180
2,note_on,47,0,60
2,note_on,35,42,180
2,note_on,35,0,60
2,note_on,47,39,180
2,note_on,47,0,60
2,note_on,35,39,180
2,note_on,35,0,60
2,note_on,47,39,180
2,note_on,47,0,60
2,note_on,36,42,0
2,note_on,41,42,0
2,note_on,48,51,0
2,note_on,48,0,120
2,note_on,41,0,0
2,note_on,36,0,0
2,note_on,65,42,60
2,note_on,60,36,0
2,note_on,60,0,60
2,note_on,65,0,0
2,note_on,60,42,180
2,note_on,53,36,0
2,note_on,53,0,60
2,note_on,60,0,0
2,note_on,48,36,180
2,note_on,53,42,0
2,note_on,53,0,60
2,note_on,48,0,0
2,note_on,41,30,180
2,note_on,48,36,0
2,note_on,48,0,60
2,note_on,41,0,0
2,note_on,29,35,180
2,note_on,29,0,60
2,note_on,41,28,180
2,note_on,48,33,0
2,note_on,48,0,60
2,note_on,41,0,0
2,note_on,29,30,180
2,note_on,29,0,60
2,note_on,41,23,180
2,note_on,48,27,0
2,note_on,48,0,60
2,note_on,41,0,0
2,note_on,29,25,240
2,note_on,29,0,360
2,note_on,41,24,0
2,note_on,51,20,120
2,note_on,51,0,120
2,note_on,41,0,0
2,note_on,51,20,0
2,note_on,41,17,0
2,note_on,51,0,120
2,note_on,50,22,0
2,note_on,41,0,120
2,note_on,40,22,0
2,note_on,40,0,120
2,note_on,41,21,0
2,note_on,41,0,840
2,note_on,50,0,0
2,note_on,41,24,0
2,note_on,54,20,120
2,note_on,54,0,120
2,note_on,41,0,0
2,note_on,54,20,0
2,note_on,41,17,0
2,note_on,54,0,120
2,note_on,53,22,0
2,note_on,41,0,120
2,note_on,40,22,0
2,note_on,40,0,120
2,note_on,41,21,0
2,note_on,41,0,840
2,note_on,53,0,0
2,note_on,41,36,0
2,note_on,51,25,120
2,note_on,57,30,0
2,note_on,41,0,120
2,note_on,41,26,0
2,note_on,57,0,120
2,note_on,51,0,0
2,note_on,50,25,0
2,note_on,53,32,0
2,note_on,41,0,120
2,note_on,40,58,0
2,note_on,40,0,120
2,note_on,41,51,0
2,note_on,53,0,240
2,note_on,50,0,0
2,note_on,49,25,0
2,note_on,53,30,0
2,note_on,53,0,240
2,note_on,49,0,0
2,note_on,48,25,0
2,note_on,55,32,0
2,note_on,41,0,120
2,note_on,40,56,0
2,note_on,40,0,120
2,note_on,41,49,0
2,note_on,55,0,240
2,note_on,48,0,0
2,note_on,48,23,0
2,note_on,55,28,0
2,note_on,55,0,240
2,note_on,48,0,0
2,note_on,49,23,0
2,note_on,53,29,0
2,note_on,41,0,120
2,note_on,40,50,0
2,note_on,40,0,120
2,note_on,41,44,0
2,note_on,53,0,240
2,note_on,49,0,0
2,note_on,47,22,0
2,note_on,53,26,0
2,note_on,53,0,240
2,note_on,47,0,0
2,note_on,46,21,0
2,note_on,53,27,0
2,note_on,41,0,120
2,note_on,40,46,0
2,note_on,40,0,120
2,note_on,41,40,0
2,note_on,53,0,240
2,note_on,46,0,0
2,note_on,46,19,0
2,note_on,53,23,0
2,note_on,53,0,240
2,note_on,46,0,0
2,note_on,48,24,0
2,note_on,41,0,120
2,note_on,40,40,0
2,note_on,40,0,120
2,note_on,41,34,0
2,note_on,41,0,480
2,note_on,48,0,0
2,note_on,29,25,0
2,note_on,29,0,600
2,note_on,22,25,120
2,note_on,22,0,120
2,note_on,34,21,0
2,note_on,34,0,120
2,note_on,41,21,0
2,note_on,41,0,120
2,note_on,46,21,0
2,note_on,46,0,120
2,note_on,49,21,0
2,note_on,49,0,120
2,note_on,53,21,0
2,note_on,53,0,120
2,note_on,46,22,0
2,note_on,58,26,0
2,note_on,58,0,120
2,note_on,46,0,360
2,note_on,34,19,0
2,note_on,34,0,240
2,note_on,49,19,0
2,note_on,41,16,0
2,note_on,34,16,0
2,note_on,34,0,720
2,note_on,41,0,0
2,note_on,49,0,0
