Track,Message Type,Note,Velocity,Time
1,note_on,55,34,2880
1,note_on,60,40,0
1,note_on,60,0,456
1,note_on,55,0,0
1,note_on,60,31,24
1,note_on,67,37,0
1,note_on,67,0,456
1,note_on,60,0,0
1,note_on,60,34,24
1,note_on,63,40,0
1,note_on,63,0,240
1,note_on,60,0,0
1,note_on,59,31,0
1,note_on,62,37,0
1,note_on,62,0,180
1,note_on,59,0,0
1,note_on,63,34,0
1,note_on,63,0,60
1,note_on,55,34,0
1,note_on,60,40,0
1,note_on,60,0,220
1,note_on,55,0,0
1,note_on,55,34,2180
1,note_on,60,40,0
1,note_on,60,0,456
1,note_on,55,0,0
1,note_on,60,31,24
1,note_on,67,37,0
1,note_on,67,0,456
1,note_on,60,0,0
1,note_on,60,34,24
1,note_on,63,40,0
1,note_on,63,0,240
1,note_on,60,0,0
1,note_on,59,31,0
1,note_on,62,37,0
1,note_on,62,0,180
1,note_on,59,0,0
1,note_on,63,34,0
1,note_on,63,0,60
1,note_on,55,34,0
1,note_on,60,40,0
1,note_on,60,0,470
1,note_on,55,0,0
1,note_on,55,34,10
1,note_on,60,40,0
1,note_on,60,0,220
1,note_on,55,0,0
1,note_on,55,31,20
1,note_on,59,37,0
1,note_on,59,0,110
1,note_on,55,0,0
1,note_on,55,34,10
1,note_on,60,34,0
1,note_on,60,0,110
1,note_on,55,0,0
1,note_on,55,34,10
1,note_on,62,40,0
1,note_on,62,0,470
1,note_on,55,0,0
1,note_on,55,34,10
1,note_on,60,40,0
1,note_on,60,0,220
1,note_on,55,0,0
1,note_on,55,31,20
1,note_on,59,37,0
1,note_on,59,0,110
1,note_on,55,0,0
1,note_on,55,34,10
1,note_on,60,34,0
1,note_on,60,0,110
1,note_on,55,0,0
1,note_on,59,34,10
1,note_on,62,40,0
1,note_on,62,0,470
1,note_on,59,0,0
1,note_on,55,34,10
1,note_on,60,40,0
1,note_on,60,0,465
1,note_on,55,0,0
1,note_on,58,35,15
1,note_on,67,42,0
1,note_on,67,0,228
1,note_on,58,0,0
1,note_on,58,37,12
1,note_on,67,44,0
1,note_on,67,0,228
1,note_on,58,0,0
1,note_on,60,37,12
1,note_on,63,44,0
1,note_on,63,0,240
1,note_on,60,0,0
1,note_on,59,31,0
1,note_on,62,37,0
1,note_on,62,0,180
1,note_on,59,0,0
1,note_on,63,34,0
1,note_on,63,0,60
1,note_on,55,34,0
1,note_on,60,40,0
1,note_on,55,31,240
1,note_on,55,0,64
1,note_on,55,31,16
1,note_on,55,0,64
1,note_on,55,26,16
1,note_on,55,0,64
1,note_on,60,0,6
1,note_on,55,0,0
1,note_on,55,37,10
1,note_on,60,37,120
1,note_on,60,0,120
1,note_on,62,37,120
1,note_on,62,0,120
1,note_on,63,37,120
1,note_on,63,0,120
1,note_on,60,39,120
1,note_on,60,0,120
1,note_on,59,33,120
1,note_on,59,0,120
1,note_on,60,32,120
1,note_on,60,0,120
1,note_on,62,28,120
1,note_on,62,0,360
1,note_on,55,0,0
1,note_on,55,34,0
1,note_on,60,40,0
1,note_on,60,0,456
1,note_on,55,0,0
1,note_on,60,31,24
1,note_on,67,37,0
1,note_on,67,0,456
1,note_on,60,0,0
1,note_on,60,34,24
1,note_on,63,40,0
1,note_on,63,0,240
1,note_on,60,0,0
1,note_on,59,31,0
1,note_on,62,37,0
1,note_on,62,0,180
1,note_on,59,0,0
1,note_on,63,34,0
1,note_on,63,0,60
1,note_on,60,40,0
1,note_on,60,0,1200
1,note_on,67,31,0
1,note_on,67,0,64
1,note_on,67,31,16
1,note_on,67,0,64
1,note_on,67,26,16
1,note_on,67,0,64
1,note_on,67,37,16
1,note_on,60,28,80
1,note_on,72,33,0
1,note_on,72,0,64
1,note_on,60,0,0
1,note_on,60,28,16
1,note_on,72,33,0
1,note_on,72,0,64
1,note_on,60,0,0
1,note_on,62,27,96
1,note_on,74,32,0
1,note_on,74,0,64
1,note_on,62,0,0
1,note_on,62,27,16
1,note_on,74,32,0
1,note_on,74,0,64
1,note_on,62,0,0
1,note_on,63,28,96
1,note_on,75,34,0
1,note_on,75,0,64
1,note_on,63,0,0
1,note_on,63,28,16
1,note_on,75,34,0
1,note_on,75,0,64
1,note_on,63,0,0
1,note_on,60,28,96
1,note_on,72,33,0
1,note_on,72,0,64
1,note_on,60,0,0
1,note_on,60,28,16
1,note_on,72,33,0
1,note_on,72,0,64
1,note_on,60,0,0
1,note_on,59,31,96
1,note_on,71,37,0
1,note_on,71,0,64
1,note_on,59,0,0
1,note_on,59,32,16
1,note_on,71,38,0
1,note_on,71,0,64
1,note_on,59,0,0
1,note_on,62,42,96
1,note_on,74,49,0
1,note_on,74,0,64
1,note_on,62,0,0
1,note_on,62,42,16
1,note_on,74,50,0
1,note_on,74,0,64
1,note_on,62,0,0
1,note_on,67,0,16
1,note_on,68,56,120
1,note_on,80,65,0
1,note_on,80,0,360
1,note_on,68,0,0
1,note_on,68,38,0
1,note_on,73,45,0
1,note_on,73,0,451
1,note_on,68,0,0
1,note_on,68,39,29
1,note_on,72,39,0
1,note_on,75,39,0
1,note_on,80,47,0
1,note_on,80,0,451
1,note_on,75,0,0
1,note_on,72,0,24
1,note_on,68,0,0
1,note_on,68,28,5
1,note_on,73,28,0
1,note_on,80,40,0
1,note_on,80,0,240
1,note_on,73,0,0
1,note_on,68,0,0
1,note_on,65,26,0
1,note_on,71,26,0
1,note_on,74,37,0
1,note_on,75,34,173
1,note_on,74,0,7
1,note_on,65,0,0
1,note_on,71,0,0
1,note_on,75,0,53
1,note_on,63,34,7
1,note_on,72,40,0
1,note_on,72,0,480
1,note_on,63,0,0
1,note_on,55,30,120
1,note_on,60,30,0
1,note_on,60,0,60
1,note_on,55,0,0
1,note_on,55,34,60
1,note_on,59,34,0
1,note_on,59,0,60
1,note_on,55,0,0
1,note_on,55,30,60
1,note_on,60,30,0
1,note_on,60,0,60
1,note_on,55,0,0
1,note_on,55,33,180
1,note_on,59,33,0
1,note_on,62,33,0
1,note_on,62,0,60
1,note_on,59,0,0
1,note_on,55,0,0
1,note_on,67,60,60
1,note_on,60,31,320
1,note_on,72,37,0
1,note_on,72,0,64
1,note_on,60,0,0
1,note_on,60,32,16
1,note_on,72,38,0
1,note_on,72,0,64
1,note_on,60,0,0
1,note_on,59,45,96
1,note_on,71,53,0
1,note_on,71,0,64
1,note_on,59,0,0
1,note_on,60,47,16
1,note_on,72,56,0
1,note_on,72,0,64
1,note_on,60,0,0
1,note_on,62,57,136
1,note_on,74,65,0
1,note_on,74,0,60
1,note_on,62,0,0
1,note_on,67,0,60
1,note_on,68,56,0
1,note_on,80,65,0
1,note_on,73,48,240
1,note_on,73,0,460
1,note_on,80,0,20
1,note_on,68,0,0
1,note_on,69,51,0
1,note_on,72,51,0
1,note_on,75,51,0
1,note_on,81,61,0
1,note_on,81,0,340
1,note_on,69,0,0
1,note_on,72,0,0
1,note_on,75,0,0
1,note_on,69,35,20
1,note_on,72,35,0
1,note_on,75,35,0
1,note_on,81,42,0
1,note_on,81,0,100
1,note_on,69,0,0
1,note_on,72,0,0
1,note_on,75,0,0
1,note_on,72,30,20
1,note_on,75,30,0
1,note_on,79,36,0
1,note_on,79,0,120
1,note_on,75,0,0
1,note_on,72,0,0
1,note_on,59,31,120
1,note_on,62,37,0
1,note_on,62,0,180
1,note_on,59,0,0
1,note_on,63,34,0
1,note_on,63,0,60
1,note_on,60,40,0
1,note_on,60,0,1200
1,note_on,79,40,0
1,note_on,79,0,80
1,note_on,91,49,0
1,note_on,91,0,80
1,note_on,89,43,0
1,note_on,89,0,50
1,note_on,87,51,30
1,note_on,87,0,80
1,note_on,86,43,0
1,note_on,86,0,80
1,note_on,84,43,0
1,note_on,84,0,80
1,note_on,83,50,0
1,note_on,83,0,80
1,note_on,84,40,0
1,note_on,84,0,80
1,note_on,86,40,0
1,note_on,86,0,80
1,note_on,84,49,0
1,note_on,84,0,20
1,note_on,86,45,0
1,note_on,86,0,20
1,note_on,84,51,0
1,note_on,84,0,40
1,note_on,79,42,0
1,note_on,79,0,80
1,note_on,77,42,0
1,note_on,77,0,80
1,note_on,75,47,0
1,note_on,75,0,80
1,note_on,74,40,0
1,note_on,74,0,80
1,note_on,72,40,0
1,note_on,72,0,80
1,note_on,74,46,0
1,note_on,74,0,80
1,note_on,79,38,0
1,note_on,79,0,80
1,note_on,67,38,0
1,note_on,67,0,80
1,note_on,66,42,0
1,note_on,66,0,80
1,note_on,69,37,0
1,note_on,69,0,80
1,note_on,72,37,0
1,note_on,72,0,80
1,note_on,70,49,0
1,note_on,70,0,20
1,note_on,72,45,0
1,note_on,72,0,20
1,note_on,70,51,0
1,note_on,70,0,40
1,note_on,69,36,0
1,note_on,69,0,80
1,note_on,67,38,0
1,note_on,67,0,320
1,note_on,69,46,0
1,note_on,69,0,80
1,note_on,62,38,0
1,note_on,62,0,80
1,note_on,74,38,0
1,note_on,74,0,80
1,note_on,73,46,0
1,note_on,73,0,80
1,note_on,76,37,0
1,note_on,76,0,80
1,note_on,79,39,0
1,note_on,79,0,80
1,note_on,77,49,0
1,note_on,77,0,20
1,note_on,79,45,0
1,note_on,79,0,20
1,note_on,77,51,0
1,note_on,77,0,40
1,note_on,76,36,0
1,note_on,76,0,80
1,note_on,74,38,0
1,note_on,74,0,290
1,note_on,74,44,30
1,note_on,70,51,0
1,note_on,70,0,80
1,note_on,69,43,0
1,note_on,69,0,80
1,note_on,67,43,0
1,note_on,67,0,80
1,note_on,66,50,0
1,note_on,66,0,80
1,note_on,67,40,0
1,note_on,67,0,80
1,note_on,69,40,0
1,note_on,69,0,80
1,note_on,74,0,0
1,note_on,79,42,0
1,note_on,70,51,0
1,note_on,70,0,80
1,note_on,69,42,0
1,note_on,69,0,80
1,note_on,70,42,0
1,note_on,70,0,80
1,note_on,75,47,0
1,note_on,75,0,80
1,note_on,70,40,0
1,note_on,70,0,80
1,note_on,67,40,0
1,note_on,67,0,50
1,note_on,79,0,30
1,note_on,77,44,0
1,note_on,74,51,0
1,note_on,74,0,80
1,note_on,72,43,0
1,note_on,72,0,80
1,note_on,70,43,0
1,note_on,70,0,80
1,note_on,77,0,0
1,note_on,75,42,0
1,note_on,69,50,0
1,note_on,69,0,80
1,note_on,70,40,0
1,note_on,70,0,80
1,note_on,69,40,0
1,note_on,69,0,80
1,note_on,75,0,0
1,note_on,74,47,0
1,note_on,70,49,0
1,note_on,70,0,20
1,note_on,72,45,0
1,note_on,72,0,20
1,note_on,70,51,0
1,note_on,70,0,40
1,note_on,69,42,0
1,note_on,69,0,80
1,note_on,67,42,0
1,note_on,67,0,320
1,note_on,74,0,0
1,note_on,74,47,0
1,note_on,70,49,0
1,note_on,70,0,20
1,note_on,72,45,0
1,note_on,72,0,20
1,note_on,70,51,0
1,note_on,70,0,40
1,note_on,69,42,0
1,note_on,69,0,80
1,note_on,67,42,0
1,note_on,67,0,80
1,note_on,66,47,0
1,note_on,66,0,80
1,note_on,67,42,0
1,note_on,67,0,80
1,note_on,69,45,0
1,note_on,69,0,80
1,note_on,74,0,0
1,note_on,79,51,0
1,note_on,70,49,0
1,note_on,70,0,80
1,note_on,69,43,0
1,note_on,69,0,80
1,note_on,70,43,0
1,note_on,70,0,80
1,note_on,79,0,0
1,note_on,77,50,0
1,note_on,74,47,0
1,note_on,74,0,80
1,note_on,75,41,0
1,note_on,75,0,80
1,note_on,74,39,0
1,note_on,74,0,80
1,note_on,77,0,0
1,note_on,75,51,0
1,note_on,72,49,0
1,note_on,72,0,20
1,note_on,74,45,0
1,note_on,74,0,20
1,note_on,72,51,0
1,note_on,72,0,40
1,note_on,71,42,0
1,note_on,71,0,80
1,note_on,70,42,0
1,note_on,70,0,80
1,note_on,75,0,0
1,note_on,68,47,0
1,note_on,74,50,0
1,note_on,68,0,80
1,note_on,67,42,0
1,note_on,67,0,80
1,note_on,65,45,0
1,note_on,65,0,80
1,note_on,74,0,0
1,note_on,72,47,0
1,note_on,63,49,0
1,note_on,63,0,20
1,note_on,65,45,0
1,note_on,65,0,20
1,note_on,63,51,0
1,note_on,63,0,40
1,note_on,62,42,0
1,note_on,62,0,80
1,note_on,60,42,0
1,note_on,72,0,320
1,note_on,60,0,720
1,note_on,71,39,0
1,note_on,74,39,0
1,note_on,79,47,0
1,note_on,77,39,0
1,note_on,77,0,240
1,note_on,71,0,0
1,note_on,74,0,0
1,note_on,79,0,0
1,note_on,84,48,0
1,note_on,79,40,0
1,note_on,75,40,0
1,note_on,72,40,0
1,note_on,72,0,228
1,note_on,84,0,0
1,note_on,79,0,0
1,note_on,75,0,0
1,note_on,86,52,12
1,note_on,79,44,0
1,note_on,77,44,0
1,note_on,74,44,0
1,note_on,74,0,228
1,note_on,86,0,0
1,note_on,79,0,0
1,note_on,77,0,0
1,note_on,87,53,12
1,note_on,79,45,0
1,note_on,75,45,0
1,note_on,75,0,228
1,note_on,79,0,0
1,note_on,87,0,0
1,note_on,84,52,12
1,note_on,79,44,0
1,note_on,72,44,0
1,note_on,72,0,228
1,note_on,79,0,0
1,note_on,84,0,0
1,note_on,83,55,12
1,note_on,79,46,0
1,note_on,74,46,0
1,note_on,71,46,0
1,note_on,71,0,228
1,note_on,83,0,0
1,note_on,79,0,0
1,note_on,74,0,0
1,note_on,86,50,12
1,note_on,84,42,0
1,note_on,81,42,0
1,note_on,74,42,0
1,note_on,74,0,228
1,note_on,86,0,0
1,note_on,84,0,0
1,note_on,81,0,0
1,note_on,91,55,12
1,note_on,86,46,0
1,note_on,82,46,0
1,note_on,79,46,0
1,note_on,79,0,480
1,note_on,91,0,0
1,note_on,86,0,0
1,note_on,82,0,0
1,note_on,90,61,0
1,note_on,86,51,0
1,note_on,81,51,0
1,note_on,78,51,0
1,note_on,78,0,228
1,note_on,90,0,0
1,note_on,86,0,0
1,note_on,81,0,0
1,note_on,93,54,12
1,note_on,91,45,0
1,note_on,88,45,0
1,note_on,81,45,0
1,note_on,81,0,228
1,note_on,93,0,0
1,note_on,91,0,0
1,note_on,88,0,0
1,note_on,98,63,12
1,note_on,93,53,0
1,note_on,89,53,0
1,note_on,86,53,0
1,note_on,86,0,480
1,note_on,98,0,0
1,note_on,93,0,0
1,note_on,89,0,0
1,note_on,65,48,0
1,note_on,74,57,0
1,note_on,74,0,480
1,note_on,65,0,0
1,note_on,67,50,0
1,note_on,70,50,0
1,note_on,79,59,0
1,note_on,79,0,480
1,note_on,70,0,0
1,note_on,67,0,0
1,note_on,77,44,0
1,note_on,74,49,0
1,note_on,74,0,20
1,note_on,75,45,0
1,note_on,75,0,20
1,note_on,74,51,0
1,note_on,74,0,40
1,note_on,72,43,0
1,note_on,72,0,80
1,note_on,70,43,0
1,note_on,70,0,80
1,note_on,77,0,0
1,note_on,75,42,0
1,note_on,69,50,0
1,note_on,69,0,80
1,note_on,70,40,0
1,note_on,70,0,80
1,note_on,72,40,0
1,note_on,72,0,80
1,note_on,75,0,0
1,note_on,74,47,0
1,note_on,70,49,0
1,note_on,70,0,20
1,note_on,72,45,0
1,note_on,72,0,20
1,note_on,70,51,0
1,note_on,70,0,40
1,note_on,69,42,0
1,note_on,69,0,80
1,note_on,67,42,0
1,note_on,67,0,320
1,note_on,74,0,0
1,note_on,65,39,0
1,note_on,74,47,0
1,note_on,74,0,480
1,note_on,65,0,0
1,note_on,79,51,0
1,note_on,67,41,0
1,note_on,67,0,240
1,note_on,79,0,0
1,note_on,77,50,0
1,note_on,70,49,0
1,note_on,70,0,20
1,note_on,72,45,0
1,note_on,72,0,20
1,note_on,70,51,0
1,note_on,70,0,40
1,note_on,69,41,0
1,note_on,69,0,80
1,note_on,70,39,0
1,note_on,70,0,80
1,note_on,77,0,0
1,note_on,72,49,0
1,note_on,75,51,0
1,note_on,72,0,20
1,note_on,74,45,0
1,note_on,74,0,20
1,note_on,72,51,0
1,note_on,72,0,40
1,note_on,71,42,0
1,note_on,71,0,80
1,note_on,70,42,0
1,note_on,70,0,80
1,note_on,75,0,0
1,note_on,74,50,0
1,note_on,68,49,0
1,note_on,68,0,20
1,note_on,70,45,0
1,note_on,70,0,20
1,note_on,68,51,0
1,note_on,68,0,40
1,note_on,67,42,0
1,note_on,67,0,80
1,note_on,65,45,0
1,note_on,65,0,80
1,note_on,74,0,0
1,note_on,63,49,0
1,note_on,72,47,0
1,note_on,63,0,20
1,note_on,65,45,0
1,note_on,65,0,20
1,note_on,63,51,0
1,note_on,63,0,40
1,note_on,62,42,0
1,note_on,62,0,80
1,note_on,60,42,0
1,note_on,60,0,320
1,note_on,72,0,0
1,note_on,56,34,0
1,note_on,60,40,0
1,note_on,60,0,220
1,note_on,56,0,0
1,note_on,55,31,20
1,note_on,58,37,0
1,note_on,58,0,110
1,note_on,55,0,0
1,note_on,56,34,10
1,note_on,60,34,0
1,note_on,60,0,110
1,note_on,56,0,0
1,note_on,56,34,10
1,note_on,61,40,0
1,note_on,61,0,470
1,note_on,56,0,0
1,note_on,56,28,10
1,note_on,60,40,0
1,note_on,60,0,220
1,note_on,56,0,0
1,note_on,55,39,20
1,note_on,58,47,0
1,note_on,58,0,110
1,note_on,55,0,0
1,note_on,56,36,10
1,note_on,60,43,0
1,note_on,60,0,110
1,note_on,56,0,0
1,note_on,58,49,10
1,note_on,63,58,0
1,note_on,63,0,470
1,note_on,58,0,0
1,note_on,56,38,10
1,note_on,60,45,0
1,note_on,60,0,465
1,note_on,56,0,0
1,note_on,61,42,15
1,note_on,68,50,0
1,note_on,68,0,228
1,note_on,61,0,0
1,note_on,62,47,12
1,note_on,68,56,0
1,note_on,68,0,228
1,note_on,62,0,0
1,note_on,63,46,12
1,note_on,67,55,0
1,note_on,67,0,240
1,note_on,63,0,0
1,note_on,59,31,0
1,note_on,62,37,0
1,note_on,62,0,180
1,note_on,59,0,0
1,note_on,63,34,0
1,note_on,63,0,60
1,note_on,55,34,0
1,note_on,60,40,0
1,note_on,60,0,470
1,note_on,55,0,0
1,note_on,56,34,10
1,note_on,60,40,0
1,note_on,60,0,220
1,note_on,56,0,0
1,note_on,55,31,20
1,note_on,58,37,0
1,note_on,58,0,110
1,note_on,55,0,0
1,note_on,56,34,10
1,note_on,60,34,0
1,note_on,60,0,110
1,note_on,56,0,0
1,note_on,56,34,17
1,note_on,61,40,0
1,note_on,80,28,173
1,note_on,85,28,0
1,note_on,92,34,0
1,note_on,92,0,45
1,note_on,80,0,0
1,note_on,85,0,0
1,note_on,82,24,15
1,note_on,85,24,0
1,note_on,91,29,0
1,note_on,91,0,45
1,note_on,82,0,0
1,note_on,85,0,0
1,note_on,80,23,15
1,note_on,85,23,0
1,note_on,89,28,0
1,note_on,89,0,45
1,note_on,80,0,0
1,note_on,85,0,0
1,note_on,80,28,15
1,note_on,85,28,0
1,note_on,89,34,0
1,note_on,61,0,7
1,note_on,56,0,0
1,note_on,85,0,38
1,note_on,80,0,0
1,note_on,89,0,0
1,note_on,79,28,15
1,note_on,87,30,0
1,note_on,87,0,45
1,note_on,79,0,0
1,note_on,79,25,15
1,note_on,85,25,0
1,note_on,87,30,0
1,note_on,87,0,45
1,note_on,85,0,0
1,note_on,79,0,0
1,note_on,80,28,15
1,note_on,85,28,0
1,note_on,92,34,0
1,note_on,92,0,45
1,note_on,85,0,0
1,note_on,80,0,0
1,note_on,82,22,15
1,note_on,85,22,0
1,note_on,91,27,0
1,note_on,91,0,45
1,note_on,85,0,0
1,note_on,82,0,0
1,note_on,80,22,15
1,note_on,85,22,0
1,note_on,89,27,0
1,note_on,89,0,45
1,note_on,85,0,0
1,note_on,80,0,0
1,note_on,80,28,15
1,note_on,85,28,0
1,note_on,89,34,0
1,note_on,89,0,45
1,note_on,85,0,0
1,note_on,80,0,0
1,note_on,79,30,15
1,note_on,87,34,0
1,note_on,87,0,45
1,note_on,79,0,0
1,note_on,79,25,15
1,note_on,85,25,0
1,note_on,87,30,0
1,note_on,87,0,45
1,note_on,85,0,0
1,note_on,79,0,0
1,note_on,56,34,195
1,note_on,60,40,0
1,note_on,60,0,220
1,note_on,56,0,0
1,note_on,55,31,20
1,note_on,58,37,0
1,note_on,58,0,110
1,note_on,55,0,0
1,note_on,56,34,10
1,note_on,60,34,0
1,note_on,60,0,110
1,note_on,56,0,0
1,note_on,58,34,10
1,note_on,63,40,0
1,note_on,82,28,180
1,note_on,87,28,0
1,note_on,94,34,0
1,note_on,94,0,45
1,note_on,82,0,0
1,note_on,87,0,0
1,note_on,84,24,15
1,note_on,87,24,0
1,note_on,93,29,0
1,note_on,93,0,45
1,note_on,84,0,0
1,note_on,87,0,0
1,note_on,82,23,15
1,note_on,87,23,0
1,note_on,91,28,0
1,note_on,91,0,45
1,note_on,82,0,0
1,note_on,87,0,0
1,note_on,63,0,15
1,note_on,58,0,0
1,note_on,82,28,0
1,note_on,87,28,0
1,note_on,91,34,0
1,note_on,91,0,45
1,note_on,87,0,0
1,note_on,82,0,0
1,note_on,81,28,15
1,note_on,89,30,0
1,note_on,89,0,45
1,note_on,81,0,0
1,note_on,81,25,15
1,note_on,87,25,0
1,note_on,89,30,0
1,note_on,89,0,45
1,note_on,87,0,0
1,note_on,81,0,0
1,note_on,82,28,15
1,note_on,87,28,0
1,note_on,94,34,0
1,note_on,94,0,45
1,note_on,87,0,0
1,note_on,82,0,0
1,note_on,84,22,15
1,note_on,87,22,0
1,note_on,93,27,0
1,note_on,93,0,45
1,note_on,87,0,0
1,note_on,84,0,0
1,note_on,82,22,15
1,note_on,87,22,0
1,note_on,91,27,0
1,note_on,91,0,45
1,note_on,87,0,0
1,note_on,82,0,0
1,note_on,82,28,15
1,note_on,87,28,0
1,note_on,91,34,0
1,note_on,91,0,45
1,note_on,87,0,0
1,note_on,82,0,0
1,note_on,81,30,15
1,note_on,89,34,0
1,note_on,89,0,45
1,note_on,81,0,0
1,note_on,81,25,15
1,note_on,87,25,0
1,note_on,89,30,0
1,note_on,89,0,45
1,note_on,87,0,0
1,note_on,81,0,0
1,note_on,65,39,195
1,note_on,74,47,0
1,note_on,74,0,480
1,note_on,65,0,0
1,note_on,79,51,0
1,note_on,67,41,0
1,note_on,67,0,240
1,note_on,79,0,0
1,note_on,77,50,0
1,note_on,70,49,0
1,note_on,70,0,20
1,note_on,72,45,0
1,note_on,72,0,20
1,note_on,70,51,0
1,note_on,70,0,40
1,note_on,69,41,0
1,note_on,69,0,80
1,note_on,70,39,0
1,note_on,70,0,80
1,note_on,77,0,0
1,note_on,72,49,0
1,note_on,75,51,0
1,note_on,72,0,20
1,note_on,74,45,0
1,note_on,74,0,20
1,note_on,72,51,0
1,note_on,72,0,40
1,note_on,71,42,0
1,note_on,71,0,80
1,note_on,70,42,0
1,note_on,70,0,80
1,note_on,75,0,0
1,note_on,74,50,0
1,note_on,68,49,0
1,note_on,68,0,20
1,note_on,70,45,0
1,note_on,70,0,20
1,note_on,68,51,0
1,note_on,68,0,40
1,note_on,67,42,0
1,note_on,67,0,80
1,note_on,65,45,0
1,note_on,65,0,80
1,note_on,74,0,0
1,note_on,63,49,0
1,note_on,72,47,0
1,note_on,63,0,20
1,note_on,65,45,0
1,note_on,65,0,20
1,note_on,63,51,0
1,note_on,63,0,40
1,note_on,62,42,0
1,note_on,62,0,80
1,note_on,60,42,0
1,note_on,60,0,1040
1,note_on,72,0,0
1,note_on,79,81,0
1,note_on,65,60,80
1,note_on,71,60,0
1,note_on,71,0,80
1,note_on,65,0,0
1,note_on,79,0,0
1,note_on,77,63,0
1,note_on,77,0,80
1,note_on,76,75,0
1,note_on,67,50,80
1,note_on,72,50,0
1,note_on,72,0,80
1,note_on,67,0,0
1,note_on,64,50,0
1,note_on,64,0,80
1,note_on,76,0,0
1,note_on,74,71,0
1,note_on,67,50,80
1,note_on,71,50,0
1,note_on,71,0,80
1,note_on,67,0,0
1,note_on,65,50,0
1,note_on,65,0,80
1,note_on,74,0,0
1,note_on,72,77,0
1,note_on,67,50,80
1,note_on,67,0,80
1,note_on,60,50,0
1,note_on,60,0,80
1,note_on,72,0,0
1,note_on,69,72,0
1,note_on,64,50,80
1,note_on,64,0,80
1,note_on,60,50,0
1,note_on,60,0,80
1,note_on,69,0,0
1,note_on,67,76,0
1,note_on,55,50,80
1,note_on,62,50,0
1,note_on,62,0,80
1,note_on,55,0,0
1,note_on,67,0,0
1,note_on,65,64,0
1,note_on,65,0,80
1,note_on,64,68,0
1,note_on,60,50,80
1,note_on,60,0,80
1,note_on,55,50,0
1,note_on,55,0,80
1,note_on,64,0,0
1,note_on,62,59,0
1,note_on,59,50,80
1,note_on,59,0,80
1,note_on,55,50,0
1,note_on,55,0,80
1,note_on,59,50,0
1,note_on,59,0,80
1,note_on,55,50,0
1,note_on,62,0,70
1,note_on,55,0,10
1,note_on,62,54,0
1,note_on,62,0,80
1,note_on,64,65,0
1,note_on,60,50,80
1,note_on,60,0,80
1,note_on,55,50,0
1,note_on,55,0,80
1,note_on,64,0,0
1,note_on,67,70,0
1,note_on,64,50,80
1,note_on,64,0,80
1,note_on,60,50,0
1,note_on,60,0,80
1,note_on,67,0,0
1,note_on,65,75,0
1,note_on,59,50,80
1,note_on,59,0,80
1,note_on,65,0,0
1,note_on,60,50,0
1,note_on,64,65,0
1,note_on,64,0,80
1,note_on,60,0,0
1,note_on,62,71,0
1,note_on,59,50,80
1,note_on,59,0,80
1,note_on,55,50,0
1,note_on,55,0,80
1,note_on,62,0,0
1,note_on,60,69,0
1,note_on,55,50,80
1,note_on,55,0,80
1,note_on,52,50,0
1,note_on,52,0,80
1,note_on,60,0,0
1,note_on,62,74,0
1,note_on,55,50,80
1,note_on,59,50,0
1,note_on,59,0,80
1,note_on,55,0,0
1,note_on,53,50,0
1,note_on,53,0,80
1,note_on,62,0,0
1,note_on,64,76,0
1,note_on,55,50,80
1,note_on,60,50,0
1,note_on,60,0,80
1,note_on,55,0,0
1,note_on,52,50,0
1,note_on,52,0,80
1,note_on,64,0,0
1,note_on,79,81,0
1,note_on,65,50,80
1,note_on,71,60,0
1,note_on,71,0,80
1,note_on,65,0,0
1,note_on,79,0,0
1,note_on,77,63,0
1,note_on,77,0,80
1,note_on,76,75,0
1,note_on,67,50,80
1,note_on,72,50,0
1,note_on,72,0,80
1,note_on,67,0,0
1,note_on,64,50,0
1,note_on,64,0,80
1,note_on,76,0,0
1,note_on,74,71,0
1,note_on,67,50,80
1,note_on,71,50,0
1,note_on,71,0,80
1,note_on,67,0,0
1,note_on,65,50,0
1,note_on,65,0,80
1,note_on,74,0,0
1,note_on,72,77,0
1,note_on,67,50,80
1,note_on,67,0,80
1,note_on,60,50,0
1,note_on,60,0,80
1,note_on,72,0,0
1,note_on,69,72,0
1,note_on,64,50,80
1,note_on,64,0,80
1,note_on,60,50,0
1,note_on,60,0,80
1,note_on,69,0,0
1,note_on,67,76,0
1,note_on,55,50,80
1,note_on,62,50,0
1,note_on,62,0,80
1,note_on,55,0,0
1,note_on,67,0,0
1,note_on,65,64,0
1,note_on,65,0,80
1,note_on,64,68,0
1,note_on,60,50,80
1,note_on,60,0,80
1,note_on,55,50,0
1,note_on,55,0,80
1,note_on,64,0,0
1,note_on,62,59,0
1,note_on,59,42,80
1,note_on,59,0,80
1,note_on,55,43,0
1,note_on,55,0,80
1,note_on,59,50,0
1,note_on,59,0,80
1,note_on,55,50,0
1,note_on,55,0,80
1,note_on,59,39,0
1,note_on,59,0,80
1,note_on,62,0,0
1,note_on,60,55,0
1,note_on,56,34,80
1,note_on,56,0,80
1,note_on,51,34,0
1,note_on,51,0,80
1,note_on,56,39,0
1,note_on,56,0,80
1,note_on,51,33,0
1,note_on,51,0,80
1,note_on,56,33,0
1,note_on,56,0,80
1,note_on,60,0,0
1,note_on,65,55,0
1,note_on,58,34,80
1,note_on,58,0,80
1,note_on,56,34,0
1,note_on,56,0,80
1,note_on,58,39,0
1,note_on,58,0,80
1,note_on,56,33,0
1,note_on,56,0,80
1,note_on,58,33,0
1,note_on,58,0,80
1,note_on,65,0,0
1,note_on,63,52,0
1,note_on,56,42,80
1,note_on,56,0,80
1,note_on,51,39,0
1,note_on,51,0,80
1,note_on,63,0,0
1,note_on,61,49,0
1,note_on,55,38,80
1,note_on,55,0,80
1,note_on,51,38,0
1,note_on,51,0,80
1,note_on,61,0,0
1,note_on,60,46,0
1,note_on,55,38,80
1,note_on,51,29,80
1,note_on,51,0,80
1,note_on,55,0,0
1,note_on,54,40,0
1,note_on,51,29,80
1,note_on,51,0,80
1,note_on,54,0,0
1,note_on,54,45,0
1,note_on,54,0,80
1,note_on,60,0,0
1,note_on,60,46,0
1,note_on,55,38,80
1,note_on,55,0,80
1,note_on,52,38,0
1,note_on,52,0,80
1,note_on,60,0,0
1,note_on,59,46,0
1,note_on,53,40,80
1,note_on,53,0,80
1,note_on,59,0,0
1,note_on,60,46,0
1,note_on,52,46,0
1,note_on,52,0,80
1,note_on,60,0,0
1,note_on,62,51,0
1,note_on,59,40,80
1,note_on,59,0,80
1,note_on,57,40,0
1,note_on,57,0,80
1,note_on,59,40,0
1,note_on,59,0,240
1,note_on,62,0,0
1,note_on,72,56,0
1,note_on,67,43,80
1,note_on,67,0,80
1,note_on,60,44,0
1,note_on,60,0,80
1,note_on,72,0,0
1,note_on,71,54,0
1,note_on,62,30,80
1,note_on,67,41,0
1,note_on,67,0,80
1,note_on,62,0,0
1,note_on,71,0,0
1,note_on,72,50,0
1,note_on,60,50,0
1,note_on,60,0,80
1,note_on,72,0,0
1,note_on,74,58,0
1,note_on,71,44,80
1,note_on,71,0,80
1,note_on,67,44,0
1,note_on,67,0,80
1,note_on,71,56,0
1,note_on,71,0,80
1,note_on,67,49,0
1,note_on,67,0,80
1,note_on,71,54,0
1,note_on,71,0,80
1,note_on,74,0,0
1,note_on,76,66,0
1,note_on,72,54,80
1,note_on,72,0,80
1,note_on,67,50,0
1,note_on,67,0,80
1,note_on,72,56,0
1,note_on,72,0,80
1,note_on,67,58,0
1,note_on,67,0,80
1,note_on,72,62,0
1,note_on,72,0,80
1,note_on,76,0,0
1,note_on,81,73,0
1,note_on,76,52,80
1,note_on,76,0,80
1,note_on,72,52,0
1,note_on,72,0,80
1,note_on,81,0,0
1,note_on,81,72,0
1,note_on,74,53,80
1,note_on,74,0,80
1,note_on,69,54,0
1,note_on,69,0,80
1,note_on,81,0,0
1,note_on,79,72,0
1,note_on,76,52,80
1,note_on,72,52,0
1,note_on,72,0,80
1,note_on,76,0,0
1,note_on,67,52,0
1,note_on,67,0,80
1,note_on,79,0,0
1,note_on,77,70,0
1,note_on,71,52,80
1,note_on,71,0,80
1,note_on,67,52,0
1,note_on,67,0,80
1,note_on,77,0,0
1,note_on,76,67,0
1,note_on,72,54,80
1,note_on,72,0,80
1,note_on,66,52,0
1,note_on,66,0,80
1,note_on,67,49,0
1,note_on,67,0,80
1,note_on,64,46,0
1,note_on,64,0,80
1,note_on,60,44,0
1,note_on,60,0,80
1,note_on,76,0,0
1,note_on,57,37,80
1,note_on,60,37,0
1,note_on,62,44,0
1,note_on,62,0,60
1,note_on,60,0,0
1,note_on,57,0,0
1,note_on,57,36,20
1,note_on,60,36,0
1,note_on,62,43,0
1,note_on,62,0,60
1,note_on,60,0,0
1,note_on,57,0,0
1,note_on,57,43,20
1,note_on,60,43,0
1,note_on,65,51,0
1,note_on,65,0,60
1,note_on,60,0,0
1,note_on,57,0,0
1,note_on,57,37,20
1,note_on,60,44,0
1,note_on,61,37,0
1,note_on,61,0,60
1,note_on,60,0,0
1,note_on,57,0,0
1,note_on,57,36,20
1,note_on,60,36,0
1,note_on,62,44,0
1,note_on,62,0,60
1,note_on,60,0,0
1,note_on,57,0,0
1,note_on,60,43,100
1,note_on,62,43,0
1,note_on,69,52,0
1,note_on,69,0,60
1,note_on,62,0,0
1,note_on,60,0,0
1,note_on,60,44,20
1,note_on,62,44,0
1,note_on,69,52,0
1,note_on,69,0,60
1,note_on,62,0,0
1,note_on,60,0,0
1,note_on,60,51,20
1,note_on,62,51,0
1,note_on,69,61,0
1,note_on,69,0,60
1,note_on,62,0,0
1,note_on,60,0,0
1,note_on,60,46,20
1,note_on,62,46,0
1,note_on,68,55,0
1,note_on,68,0,60
1,note_on,62,0,0
1,note_on,60,0,0
1,note_on,60,47,20
1,note_on,62,47,0
1,note_on,69,56,0
1,note_on,69,0,60
1,note_on,62,0,0
1,note_on,60,0,0
1,note_on,62,51,100
1,note_on,66,51,0
1,note_on,72,60,0
1,note_on,72,0,60
1,note_on,66,0,0
1,note_on,62,0,0
1,note_on,62,51,20
1,note_on,66,51,0
1,note_on,72,60,0
1,note_on,72,0,60
1,note_on,66,0,0
1,note_on,62,0,0
1,note_on,62,59,20
1,note_on,66,59,0
1,note_on,72,70,0
1,note_on,72,0,60
1,note_on,66,0,0
1,note_on,62,0,0
1,note_on,62,52,20
1,note_on,66,52,0
1,note_on,71,62,0
1,note_on,71,0,60
1,note_on,66,0,0
1,note_on,62,0,0
1,note_on,62,53,20
1,note_on,66,53,0
1,note_on,72,62,0
1,note_on,72,0,60
1,note_on,66,0,0
1,note_on,62,0,0
1,note_on,72,62,100
1,note_on,75,62,0
1,note_on,78,74,0
1,note_on,78,0,60
1,note_on,75,0,0
1,note_on,72,0,0
1,note_on,72,63,20
1,note_on,75,63,0
1,note_on,78,75,0
1,note_on,78,0,60
1,note_on,75,0,0
1,note_on,72,0,0
1,note_on,72,71,20
1,note_on,75,71,0
1,note_on,78,85,0
1,note_on,78,0,60
1,note_on,75,0,0
1,note_on,72,0,0
1,note_on,72,65,20
1,note_on,75,65,0
1,note_on,77,78,0
1,note_on,77,0,60
1,note_on,75,0,0
1,note_on,72,0,0
1,note_on,72,66,20
1,note_on,75,66,0
1,note_on,78,79,0
1,note_on,78,0,50
1,note_on,75,0,0
1,note_on,72,0,0
1,note_on,72,77,30
1,note_on,76,77,0
1,note_on,79,91,0
1,note_on,79,0,60
1,note_on,76,0,0
1,note_on,72,0,0
1,note_on,72,68,20
1,note_on,76,80,0
1,note_on,76,0,60
1,note_on,72,0,0
1,note_on,67,68,20
1,note_on,72,80,0
1,note_on,72,0,60
1,note_on,67,0,0
1,note_on,64,76,20
1,note_on,67,90,0
1,note_on,67,0,60
1,note_on,64,0,0
1,note_on,60,63,20
1,note_on,64,75,0
1,note_on,64,0,60
1,note_on,60,0,0
1,note_on,57,63,20
1,note_on,60,75,0
1,note_on,60,0,60
1,note_on,57,0,0
1,note_on,55,89,20
1,note_on,55,0,480
1,note_on,67,31,1680
1,note_on,72,31,0
1,note_on,76,37,0
1,note_on,76,0,228
1,note_on,72,0,0
1,note_on,67,0,0
1,note_on,65,37,12
1,note_on,72,37,0
1,note_on,76,44,0
1,note_on,76,0,228
1,note_on,72,0,0
1,note_on,65,0,0
1,note_on,72,37,12
1,note_on,76,37,0
1,note_on,77,44,0
1,note_on,77,0,228
1,note_on,76,0,0
1,note_on,72,0,0
1,note_on,81,44,12
1,note_on,72,37,0
1,note_on,76,37,0
1,note_on,76,0,228
1,note_on,72,0,0
1,note_on,81,0,0
1,note_on,65,34,12
1,note_on,72,34,0
1,note_on,76,41,0
1,note_on,76,0,228
1,note_on,72,0,0
1,note_on,65,0,0
1,note_on,65,37,12
1,note_on,71,37,0
1,note_on,74,44,0
1,note_on,74,0,240
1,note_on,71,0,0
1,note_on,65,0,0
1,note_on,65,35,0
1,note_on,71,35,0
1,note_on,74,42,0
1,note_on,74,0,240
1,note_on,71,0,0
1,note_on,65,0,0
1,note_on,65,31,240
1,note_on,71,31,0
1,note_on,74,37,0
1,note_on,74,0,228
1,note_on,71,0,0
1,note_on,65,0,0
1,note_on,64,37,12
1,note_on,71,37,0
1,note_on,74,44,0
1,note_on,74,0,228
1,note_on,71,0,0
1,note_on,64,0,0
1,note_on,71,37,12
1,note_on,74,37,0
1,note_on,76,44,0
1,note_on,76,0,228
1,note_on,74,0,0
1,note_on,71,0,0
1,note_on,79,44,12
1,note_on,71,37,0
1,note_on,74,37,0
1,note_on,74,0,228
1,note_on,71,0,0
1,note_on,79,0,0
1,note_on,64,34,12
1,note_on,71,34,0
1,note_on,74,41,0
1,note_on,74,0,228
1,note_on,71,0,0
1,note_on,64,0,0
1,note_on,64,37,12
1,note_on,69,37,0
1,note_on,72,44,0
1,note_on,72,0,240
1,note_on,69,0,0
1,note_on,64,0,0
1,note_on,64,35,0
1,note_on,69,35,0
1,note_on,72,42,0
1,note_on,72,0,240
1,note_on,69,0,0
1,note_on,64,0,0
1,note_on,64,31,240
1,note_on,69,31,0
1,note_on,72,37,0
1,note_on,72,0,228
1,note_on,69,0,0
1,note_on,64,0,0
1,note_on,62,31,12
1,note_on,69,37,0
1,note_on,72,44,0
1,note_on,72,0,228
1,note_on,69,0,0
1,note_on,62,0,0
1,note_on,69,37,12
1,note_on,72,37,0
1,note_on,74,44,0
1,note_on,74,0,228
1,note_on,72,0,0
1,note_on,69,0,0
1,note_on,77,44,12
1,note_on,69,37,0
1,note_on,72,37,0
1,note_on,72,0,228
1,note_on,69,0,0
1,note_on,77,0,0
1,note_on,62,34,12
1,note_on,69,34,0
1,note_on,72,41,0
1,note_on,72,0,228
1,note_on,69,0,0
1,note_on,62,0,0
1,note_on,62,37,12
1,note_on,67,37,0
1,note_on,71,44,0
1,note_on,71,0,240
1,note_on,67,0,0
1,note_on,62,0,0
1,note_on,62,35,0
1,note_on,67,35,0
1,note_on,71,42,0
1,note_on,71,0,240
1,note_on,67,0,0
1,note_on,62,0,0
1,note_on,55,37,240
1,note_on,55,0,228
1,note_on,58,43,12
1,note_on,52,31,0
1,note_on,60,44,0
1,note_on,60,0,228
1,note_on,52,0,0
1,note_on,53,37,12
1,note_on,62,44,0
1,note_on,62,0,228
1,note_on,53,0,0
1,note_on,64,44,12
1,note_on,55,37,0
1,note_on,55,0,228
1,note_on,64,0,0
1,note_on,52,34,12
1,note_on,60,41,0
1,note_on,60,0,228
1,note_on,52,0,0
1,note_on,58,0,12
1,note_on,57,51,0
1,note_on,65,44,0
1,note_on,65,0,228
1,note_on,57,0,0
1,note_on,57,37,12
1,note_on,60,37,0
1,note_on,67,44,0
1,note_on,67,0,228
1,note_on,60,0,0
1,note_on,69,44,12
1,note_on,65,37,0
1,note_on,65,0,228
1,note_on,69,0,0
1,note_on,53,41,12
1,note_on,53,0,228
1,note_on,57,0,12
1,note_on,56,43,0
1,note_on,50,31,0
1,note_on,59,44,0
1,note_on,59,0,228
1,note_on,50,0,0
1,note_on,52,37,12
1,note_on,60,44,0
1,note_on,60,0,228
1,note_on,52,0,0
1,note_on,62,44,12
1,note_on,53,37,0
1,note_on,53,0,228
1,note_on,62,0,0
1,note_on,50,34,12
1,note_on,59,41,0
1,note_on,59,0,228
1,note_on,50,0,0
1,note_on,56,0,12
1,note_on,55,38,0
1,note_on,52,38,0
1,note_on,60,45,0
1,note_on,60,0,470
1,note_on,52,0,0
1,note_on,55,0,0
1,note_on,60,39,10
1,note_on,58,33,0
1,note_on,55,33,0
1,note_on,55,0,480
1,note_on,58,0,0
1,note_on,53,32,0
1,note_on,57,38,0
1,note_on,57,0,480
1,note_on,53,0,0
1,note_on,53,30,0
1,note_on,50,25,0
1,note_on,50,0,480
1,note_on,53,0,0
1,note_on,60,0,0
1,note_on,52,21,0
1,note_on,55,21,0
1,note_on,60,25,0
1,note_on,60,0,720
1,note_on,55,0,0
1,note_on,52,0,0
2,note_on,55,44,720
2,note_on,55,0,240
2,note_on,60,50,0
2,note_on,60,0,240
2,note_on,62,43,0
2,note_on,62,0,240
2,note_on,63,43,0
2,note_on,63,0,240
2,note_on,60,36,0
2,note_on,60,0,240
2,note_on,59,38,0
2,note_on,60,35,240
2,note_on,59,0,10
2,note_on,62,35,230
2,note_on,60,0,10
2,note_on,62,0,460
2,note_on,48,27,10
2,note_on,51,32,0
2,note_on,51,0,456
2,note_on,48,0,0
2,note_on,51,27,24
2,note_on,55,32,0
2,note_on,55,0,456
2,note_on,51,0,0
2,note_on,55,30,24
2,note_on,55,0,240
2,note_on,43,21,0
2,note_on,53,25,0
2,note_on,53,0,240
2,note_on,43,0,0
2,note_on,48,25,0
2,note_on,51,30,0
2,note_on,51,0,220
2,note_on,48,0,0
2,note_on,55,44,20
2,note_on,55,0,240
2,note_on,60,50,0
2,note_on,60,0,240
2,note_on,62,43,0
2,note_on,62,0,240
2,note_on,63,43,0
2,note_on,63,0,240
2,note_on,60,36,0
2,note_on,60,0,240
2,note_on,59,38,0
2,note_on,60,35,240
2,note_on,59,0,10
2,note_on,62,35,230
2,note_on,60,0,10
2,note_on,62,0,460
2,note_on,48,27,10
2,note_on,51,32,0
2,note_on,51,0,456
2,note_on,48,0,0
2,note_on,39,27,24
2,note_on,48,32,0
2,note_on,48,0,456
2,note_on,39,0,0
2,note_on,43,21,24
2,note_on,55,30,0
2,note_on,43,0,228
2,note_on,55,0,5
2,note_on,43,21,7
2,note_on,53,25,0
2,note_on,53,0,240
2,note_on,43,0,0
2,note_on,36,25,0
2,note_on,51,30,0
2,note_on,51,0,470
2,note_on,36,0,0
2,note_on,48,28,10
2,note_on,51,34,0
2,note_on,51,0,220
2,note_on,48,0,0
2,note_on,50,26,20
2,note_on,53,31,0
2,note_on,53,0,110
2,note_on,50,0,0
2,note_on,48,24,10
2,note_on,51,29,0
2,note_on,51,0,110
2,note_on,48,0,0
2,note_on,47,28,10
2,note_on,50,34,0
2,note_on,50,0,470
2,note_on,47,0,10
2,note_on,48,28,0
2,note_on,51,34,0
2,note_on,51,0,220
2,note_on,48,0,0
2,note_on,50,26,20
2,note_on,53,31,0
2,note_on,53,0,110
2,note_on,50,0,0
2,note_on,48,24,10
2,note_on,51,29,0
2,note_on,51,0,110
2,note_on,48,0,0
2,note_on,43,28,10
2,note_on,50,34,0
2,note_on,50,0,470
2,note_on,43,0,10
2,note_on,48,28,0
2,note_on,51,34,0
2,note_on,51,0,465
2,note_on,48,0,0
2,note_on,39,30,15
2,note_on,46,30,0
2,note_on,51,36,0
2,note_on,51,0,228
2,note_on,46,0,0
2,note_on,39,0,0
2,note_on,39,30,12
2,note_on,46,30,0
2,note_on,51,36,0
2,note_on,51,0,228
2,note_on,46,0,0
2,note_on,39,0,0
2,note_on,43,23,12
2,note_on,55,33,0
2,note_on,43,0,228
2,note_on,55,0,5
2,note_on,43,21,7
2,note_on,53,25,0
2,note_on,53,0,240
2,note_on,43,0,0
2,note_on,36,25,0
2,note_on,51,30,0
2,note_on,43,35,240
2,note_on,51,0,230
2,note_on,36,0,0
2,note_on,43,0,10
2,note_on,48,40,0
2,note_on,48,0,240
2,note_on,50,34,0
2,note_on,50,0,240
2,note_on,51,34,0
2,note_on,51,0,240
2,note_on,48,28,0
2,note_on,48,0,240
2,note_on,47,30,0
2,note_on,48,28,240
2,note_on,47,0,10
2,note_on,50,28,230
2,note_on,48,0,10
2,note_on,50,0,460
2,note_on,48,27,10
2,note_on,51,32,0
2,note_on,51,0,456
2,note_on,48,0,0
2,note_on,51,27,24
2,note_on,55,32,0
2,note_on,55,0,456
2,note_on,51,0,0
2,note_on,55,30,24
2,note_on,43,25,0
2,note_on,43,0,230
2,note_on,55,0,0
2,note_on,55,27,10
2,note_on,43,27,0
2,note_on,53,27,0
2,note_on,55,0,64
2,note_on,55,27,16
2,note_on,55,0,64
2,note_on,55,23,16
2,note_on,55,0,64
2,note_on,53,0,16
2,note_on,43,0,0
2,note_on,44,30,0
2,note_on,54,30,0
2,note_on,36,25,0
2,note_on,51,30,0
2,note_on,54,0,360
2,note_on,44,0,0
2,note_on,43,22,0
2,note_on,55,28,0
2,note_on,55,0,840
2,note_on,51,0,0
2,note_on,36,0,0
2,note_on,43,0,0
2,note_on,43,35,0
2,note_on,55,31,0
2,note_on,55,0,64
2,note_on,55,31,16
2,note_on,55,0,64
2,note_on,55,26,16
2,note_on,55,0,64
2,note_on,43,0,16
2,note_on,55,29,0
2,note_on,48,40,0
2,note_on,48,0,240
2,note_on,50,34,0
2,note_on,50,0,240
2,note_on,51,34,0
2,note_on,51,0,240
2,note_on,48,28,0
2,note_on,48,0,240
2,note_on,47,30,0
2,note_on,50,45,240
2,note_on,47,0,10
2,note_on,55,0,230
2,note_on,56,64,0
2,note_on,50,0,10
2,note_on,56,0,460
2,note_on,53,31,10
2,note_on,56,31,0
2,note_on,61,31,0
2,note_on,65,37,0
2,note_on,65,0,451
2,note_on,61,0,0
2,note_on,56,0,24
2,note_on,53,0,0
2,note_on,54,32,5
2,note_on,56,32,0
2,note_on,60,32,0
2,note_on,63,32,0
2,note_on,66,38,0
2,note_on,66,0,451
2,note_on,63,0,0
2,note_on,54,0,24
2,note_on,56,0,0
2,note_on,60,0,0
2,note_on,53,27,5
2,note_on,56,27,0
2,note_on,61,27,0
2,note_on,65,32,0
2,note_on,65,0,240
2,note_on,53,0,0
2,note_on,56,0,0
2,note_on,61,0,0
2,note_on,67,27,0
2,note_on,55,22,0
2,note_on,67,0,64
2,note_on,67,27,16
2,note_on,67,0,64
2,note_on,67,23,16
2,note_on,67,0,64
2,note_on,55,0,16
2,note_on,60,21,0
2,note_on,67,30,0
2,note_on,67,0,480
2,note_on,60,0,0
2,note_on,48,32,0
2,note_on,51,32,0
2,note_on,51,0,120
2,note_on,48,0,0
2,note_on,50,31,120
2,note_on,53,31,0
2,note_on,53,0,60
2,note_on,50,0,0
2,note_on,48,26,60
2,note_on,51,26,0
2,note_on,51,0,60
2,note_on,48,0,0
2,note_on,43,33,60
2,note_on,50,33,0
2,note_on,50,0,120
2,note_on,43,0,0
2,note_on,51,35,360
2,note_on,48,35,0
2,note_on,55,35,0
2,note_on,55,0,120
2,note_on,48,0,0
2,note_on,51,0,0
2,note_on,53,37,120
2,note_on,50,37,0
2,note_on,55,37,0
2,note_on,55,0,60
2,note_on,50,0,0
2,note_on,53,0,0
2,note_on,50,34,60
2,note_on,48,34,0
2,note_on,55,34,0
2,note_on,55,0,60
2,note_on,48,0,0
2,note_on,50,0,0
2,note_on,47,44,60
2,note_on,50,44,0
2,note_on,55,44,0
2,note_on,55,0,120
2,note_on,50,0,0
2,note_on,47,0,0
2,note_on,53,31,360
2,note_on,56,31,0
2,note_on,61,31,0
2,note_on,65,37,0
2,note_on,65,0,460
2,note_on,53,0,0
2,note_on,56,0,0
2,note_on,61,0,0
2,note_on,66,43,20
2,note_on,63,36,0
2,note_on,60,36,0
2,note_on,54,36,0
2,note_on,54,0,340
2,note_on,66,0,0
2,note_on,63,0,0
2,note_on,60,0,0
2,note_on,54,31,20
2,note_on,60,31,0
2,note_on,63,31,0
2,note_on,66,37,0
2,note_on,66,0,100
2,note_on,54,0,0
2,note_on,60,0,0
2,note_on,63,0,0
2,note_on,67,32,20
2,note_on,63,27,0
2,note_on,60,27,0
2,note_on,55,27,0
2,note_on,55,0,120
2,note_on,67,0,0
2,note_on,63,0,0
2,note_on,60,0,0
2,note_on,55,27,120
2,note_on,43,27,0
2,note_on,53,27,0
2,note_on,55,0,64
2,note_on,55,27,16
2,note_on,55,0,64
2,note_on,55,23,16
2,note_on,55,0,64
2,note_on,53,0,16
2,note_on,43,0,0
2,note_on,44,30,0
2,note_on,54,30,0
2,note_on,36,25,0
2,note_on,51,30,0
2,note_on,54,0,360
2,note_on,44,0,0
2,note_on,43,24,0
2,note_on,55,28,0
2,note_on,55,0,840
2,note_on,51,0,0
2,note_on,36,0,0
2,note_on,43,0,0
2,note_on,31,29,0
2,note_on,43,35,0
2,note_on,43,0,240
2,note_on,31,0,0
2,note_on,36,34,0
2,note_on,48,40,0
2,note_on,48,0,240
2,note_on,36,0,0
2,note_on,38,28,0
2,note_on,50,34,0
2,note_on,50,0,240
2,note_on,38,0,0
2,note_on,39,28,0
2,note_on,51,34,0
2,note_on,51,0,240
2,note_on,39,0,0
2,note_on,36,23,0
2,note_on,48,28,0
2,note_on,48,0,240
2,note_on,36,0,0
2,note_on,35,25,0
2,note_on,47,30,0
2,note_on,35,0,240
2,note_on,38,32,0
2,note_on,50,38,0
2,note_on,47,0,10
2,note_on,38,0,230
2,note_on,43,36,0
2,note_on,55,43,0
2,note_on,50,0,10
2,note_on,55,0,460
2,note_on,43,0,10
2,note_on,42,25,0
2,note_on,54,30,0
2,note_on,42,0,240
2,note_on,45,32,0
2,note_on,57,38,0
2,note_on,54,0,10
2,note_on,45,0,230
2,note_on,50,36,0
2,note_on,62,43,0
2,note_on,57,0,10
2,note_on,62,0,440
2,note_on,50,0,0
2,note_on,62,45,30
2,note_on,58,38,0
2,note_on,58,0,460
2,note_on,62,0,0
2,note_on,51,34,20
2,note_on,63,40,0
2,note_on,58,34,0
2,note_on,58,0,460
2,note_on,63,0,0
2,note_on,51,0,0
2,note_on,53,41,20
2,note_on,62,49,0
2,note_on,58,41,0
2,note_on,58,0,240
2,note_on,62,0,0
2,note_on,53,0,0
2,note_on,54,36,0
2,note_on,60,43,0
2,note_on,60,0,240
2,note_on,54,0,0
2,note_on,58,49,0
2,note_on,55,41,0
2,note_on,55,0,480
2,note_on,58,0,0
2,note_on,62,46,0
2,note_on,58,39,0
2,note_on,58,0,460
2,note_on,62,0,0
2,note_on,51,36,20
2,note_on,63,43,0
2,note_on,58,36,0
2,note_on,58,0,220
2,note_on,63,0,0
2,note_on,51,0,0
2,note_on,62,40,20
2,note_on,58,34,0
2,note_on,53,34,0
2,note_on,53,0,240
2,note_on,58,0,0
2,note_on,62,0,0
2,note_on,55,39,0
2,note_on,60,39,0
2,note_on,63,47,0
2,note_on,63,0,220
2,note_on,60,0,0
2,note_on,55,0,0
2,note_on,65,40,20
2,note_on,59,34,0
2,note_on,55,34,0
2,note_on,55,0,220
2,note_on,59,0,0
2,note_on,65,0,0
2,note_on,48,38,20
2,note_on,55,45,0
2,note_on,55,0,1200
2,note_on,48,0,0
2,note_on,55,36,0
2,note_on,55,0,80
2,note_on,67,44,0
2,note_on,67,0,80
2,note_on,65,38,0
2,note_on,65,0,80
2,note_on,63,44,0
2,note_on,63,0,20
2,note_on,65,40,0
2,note_on,65,0,20
2,note_on,63,45,0
2,note_on,63,0,40
2,note_on,62,38,0
2,note_on,62,0,80
2,note_on,60,38,0
2,note_on,60,0,80
2,note_on,59,45,0
2,note_on,59,0,80
2,note_on,60,36,0
2,note_on,60,0,80
2,note_on,62,36,0
2,note_on,62,0,80
2,note_on,60,44,0
2,note_on,60,0,20
2,note_on,62,40,0
2,note_on,62,0,20
2,note_on,60,45,0
2,note_on,60,0,40
2,note_on,55,37,0
2,note_on,55,0,80
2,note_on,53,37,0
2,note_on,53,0,80
2,note_on,51,42,0
2,note_on,51,0,80
2,note_on,50,36,0
2,note_on,50,0,80
2,note_on,48,36,0
2,note_on,48,0,80
2,note_on,50,41,0
2,note_on,50,0,80
2,note_on,43,34,0
2,note_on,43,0,80
2,note_on,55,34,0
2,note_on,55,0,80
2,note_on,54,37,0
2,note_on,54,0,80
2,note_on,57,33,0
2,note_on,57,0,80
2,note_on,60,33,0
2,note_on,60,0,80
2,note_on,58,44,0
2,note_on,58,0,20
2,note_on,60,40,0
2,note_on,60,0,20
2,note_on,58,45,0
2,note_on,58,0,40
2,note_on,57,32,0
2,note_on,57,0,80
2,note_on,55,34,0
2,note_on,55,0,320
2,note_on,57,41,0
2,note_on,57,0,80
2,note_on,50,34,0
2,note_on,50,0,80
2,note_on,62,34,0
2,note_on,62,0,80
2,note_on,61,41,0
2,note_on,61,0,80
2,note_on,64,33,0
2,note_on,64,0,80
2,note_on,67,35,0
2,note_on,67,0,80
2,note_on,65,44,0
2,note_on,65,0,20
2,note_on,67,40,0
2,note_on,67,0,20
2,note_on,65,45,0
2,note_on,65,0,40
2,note_on,64,32,0
2,note_on,64,0,80
2,note_on,62,34,0
2,note_on,62,0,290
2,note_on,58,44,30
2,note_on,58,0,20
2,note_on,60,40,0
2,note_on,60,0,20
2,note_on,58,45,0
2,note_on,58,0,40
2,note_on,57,38,0
2,note_on,57,0,80
2,note_on,55,38,0
2,note_on,55,0,80
2,note_on,53,45,0
2,note_on,53,0,80
2,note_on,55,36,0
2,note_on,55,0,80
2,note_on,57,36,0
2,note_on,57,0,80
2,note_on,51,37,0
2,note_on,58,45,0
2,note_on,58,0,80
2,note_on,57,37,0
2,note_on,57,0,80
2,note_on,58,37,0
2,note_on,58,0,80
2,note_on,63,42,0
2,note_on,63,0,80
2,note_on,58,36,0
2,note_on,58,0,80
2,note_on,55,36,0
2,note_on,55,0,50
2,note_on,51,0,30
2,note_on,50,39,0
2,note_on,58,45,0
2,note_on,58,0,80
2,note_on,57,38,0
2,note_on,57,0,80
2,note_on,55,38,0
2,note_on,55,0,80
2,note_on,50,0,0
2,note_on,54,45,0
2,note_on,55,36,80
2,note_on,55,0,80
2,note_on,57,36,0
2,note_on,57,0,80
2,note_on,54,0,0
2,note_on,55,40,0
2,note_on,57,37,80
2,note_on,57,0,80
2,note_on,58,37,0
2,note_on,58,0,320
2,note_on,55,0,0
2,note_on,58,44,0
2,note_on,58,0,20
2,note_on,60,40,0
2,note_on,60,0,20
2,note_on,58,45,0
2,note_on,58,0,40
2,note_on,57,37,0
2,note_on,57,0,80
2,note_on,55,37,0
2,note_on,55,0,80
2,note_on,53,42,0
2,note_on,53,0,80
2,note_on,55,37,0
2,note_on,55,0,80
2,note_on,57,40,0
2,note_on,57,0,80
2,note_on,51,45,0
2,note_on,58,44,0
2,note_on,58,0,80
2,note_on,57,38,0
2,note_on,57,0,80
2,note_on,58,38,0
2,note_on,58,0,80
2,note_on,51,0,0
2,note_on,53,45,0
2,note_on,62,42,0
2,note_on,62,0,80
2,note_on,60,36,0
2,note_on,60,0,80
2,note_on,62,35,0
2,note_on,62,0,80
2,note_on,53,0,0
2,note_on,63,40,0
2,note_on,55,45,0
2,note_on,63,0,80
2,note_on,62,37,0
2,note_on,62,0,80
2,note_on,63,37,0
2,note_on,63,0,80
2,note_on,55,0,0
2,note_on,55,45,0
2,note_on,65,42,0
2,note_on,65,0,80
2,note_on,62,37,0
2,note_on,62,0,80
2,note_on,59,40,0
2,note_on,59,0,80
2,note_on,55,0,0
2,note_on,60,45,0
2,note_on,48,42,0
2,note_on,60,0,80
2,note_on,55,37,0
2,note_on,55,0,80
2,note_on,51,37,0
2,note_on,51,0,320
2,note_on,48,0,0
2,note_on,44,28,0
2,note_on,51,34,0
2,note_on,51,0,220
2,note_on,44,0,0
2,note_on,46,26,20
2,note_on,51,31,0
2,note_on,51,0,110
2,note_on,46,0,0
2,note_on,44,24,10
2,note_on,51,29,0
2,note_on,51,0,110
2,note_on,44,0,0
2,note_on,41,28,10
2,note_on,53,34,0
2,note_on,53,0,470
2,note_on,41,0,10
2,note_on,44,33,0
2,note_on,51,39,0
2,note_on,51,0,220
2,note_on,44,0,0
2,note_on,46,34,20
2,note_on,51,41,0
2,note_on,51,0,110
2,note_on,46,0,0
2,note_on,44,33,10
2,note_on,51,39,0
2,note_on,51,0,110
2,note_on,44,0,0
2,note_on,43,44,10
2,note_on,55,52,0
2,note_on,55,0,470
2,note_on,43,0,10
2,note_on,44,32,0
2,note_on,51,38,0
2,note_on,51,0,465
2,note_on,44,0,0
2,note_on,41,34,15
2,note_on,53,40,0
2,note_on,53,0,228
2,note_on,41,0,0
2,note_on,41,38,12
2,note_on,53,45,0
2,note_on,53,0,228
2,note_on,41,0,0
2,note_on,48,40,12
2,note_on,43,40,0
2,note_on,55,48,0
2,note_on,43,0,228
2,note_on,55,0,5
2,note_on,48,0,7
2,note_on,43,21,0
2,note_on,53,25,0
2,note_on,53,0,240
2,note_on,43,0,0
2,note_on,48,25,0
2,note_on,51,30,0
2,note_on,51,0,470
2,note_on,48,0,0
2,note_on,44,28,10
2,note_on,51,34,0
2,note_on,51,0,220
2,note_on,44,0,0
2,note_on,46,26,20
2,note_on,51,31,0
2,note_on,51,0,110
2,note_on,46,0,0
2,note_on,44,24,10
2,note_on,51,29,0
2,note_on,51,0,110
2,note_on,44,0,0
2,note_on,41,28,17
2,note_on,53,34,0
2,note_on,65,30,173
2,note_on,73,30,0
2,note_on,77,36,0
2,note_on,77,0,45
2,note_on,65,0,0
2,note_on,73,0,0
2,note_on,67,25,15
2,note_on,73,25,0
2,note_on,75,30,0
2,note_on,75,0,45
2,note_on,67,0,0
2,note_on,73,0,0
2,note_on,68,23,15
2,note_on,73,28,0
2,note_on,73,0,45
2,note_on,68,0,0
2,note_on,68,28,15
2,note_on,73,34,0
2,note_on,53,0,7
2,note_on,41,0,0
2,note_on,68,0,38
2,note_on,70,28,15
2,note_on,73,0,26
2,note_on,70,0,19
2,note_on,70,23,15
2,note_on,73,28,0
2,note_on,73,0,45
2,note_on,70,0,0
2,note_on,65,28,15
2,note_on,73,28,0
2,note_on,77,34,0
2,note_on,77,0,45
2,note_on,73,0,0
2,note_on,65,0,0
2,note_on,67,24,15
2,note_on,73,24,0
2,note_on,75,29,0
2,note_on,75,0,45
2,note_on,73,0,0
2,note_on,67,0,0
2,note_on,68,28,15
2,note_on,73,34,0
2,note_on,73,0,45
2,note_on,68,0,0
2,note_on,68,25,15
2,note_on,73,30,0
2,note_on,68,0,45
2,note_on,70,30,15
2,note_on,73,0,26
2,note_on,70,0,19
2,note_on,70,25,15
2,note_on,73,30,0
2,note_on,73,0,45
2,note_on,70,0,0
2,note_on,44,28,195
2,note_on,51,34,0
2,note_on,51,0,220
2,note_on,44,0,0
2,note_on,46,26,20
2,note_on,51,31,0
2,note_on,51,0,110
2,note_on,46,0,0
2,note_on,44,24,10
2,note_on,51,29,0
2,note_on,51,0,110
2,note_on,44,0,0
2,note_on,43,28,10
2,note_on,55,34,0
2,note_on,67,30,180
2,note_on,75,30,0
2,note_on,79,36,0
2,note_on,79,0,45
2,note_on,67,0,0
2,note_on,75,0,0
2,note_on,69,25,15
2,note_on,75,25,0
2,note_on,77,30,0
2,note_on,77,0,45
2,note_on,69,0,0
2,note_on,75,0,0
2,note_on,70,23,15
2,note_on,75,28,0
2,note_on,75,0,45
2,note_on,70,0,0
2,note_on,55,0,15
2,note_on,43,0,0
2,note_on,70,28,0
2,note_on,75,34,0
2,note_on,70,0,45
2,note_on,72,28,15
2,note_on,75,0,26
2,note_on,72,0,19
2,note_on,72,23,15
2,note_on,75,28,0
2,note_on,75,0,45
2,note_on,72,0,0
2,note_on,67,28,15
2,note_on,75,28,0
2,note_on,79,34,0
2,note_on,79,0,45
2,note_on,75,0,0
2,note_on,67,0,0
2,note_on,69,24,15
2,note_on,75,24,0
2,note_on,77,29,0
2,note_on,77,0,45
2,note_on,75,0,0
2,note_on,69,0,0
2,note_on,70,28,15
2,note_on,75,34,0
2,note_on,75,0,45
2,note_on,70,0,0
2,note_on,70,25,15
2,note_on,75,30,0
2,note_on,70,0,45
2,note_on,72,30,15
2,note_on,75,0,26
2,note_on,72,0,19
2,note_on,72,25,15
2,note_on,75,30,0
2,note_on,75,0,45
2,note_on,72,0,0
2,note_on,58,44,195
2,note_on,58,0,20
2,note_on,60,40,0
2,note_on,60,0,20
2,note_on,58,45,0
2,note_on,58,0,40
2,note_on,57,37,0
2,note_on,57,0,80
2,note_on,55,37,0
2,note_on,55,0,80
2,note_on,53,42,0
2,note_on,53,0,80
2,note_on,55,37,0
2,note_on,55,0,80
2,note_on,57,40,0
2,note_on,57,0,80
2,note_on,51,45,0
2,note_on,58,44,0
2,note_on,58,0,80
2,note_on,57,38,0
2,note_on,57,0,80
2,note_on,58,38,0
2,note_on,58,0,80
2,note_on,51,0,0
2,note_on,53,45,0
2,note_on,62,42,0
2,note_on,62,0,80
2,note_on,60,36,0
2,note_on,60,0,80
2,note_on,62,35,0
2,note_on,62,0,80
2,note_on,53,0,0
2,note_on,63,40,0
2,note_on,55,45,0
2,note_on,63,0,80
2,note_on,62,37,0
2,note_on,62,0,80
2,note_on,63,37,0
2,note_on,63,0,80
2,note_on,55,0,0
2,note_on,55,45,0
2,note_on,65,42,0
2,note_on,65,0,80
2,note_on,62,37,0
2,note_on,62,0,80
2,note_on,59,40,0
2,note_on,59,0,80
2,note_on,55,0,0
2,note_on,60,45,0
2,note_on,48,42,0
2,note_on,60,0,80
2,note_on,55,37,0
2,note_on,55,0,80
2,note_on,51,37,0
2,note_on,51,0,1040
2,note_on,48,0,0
2,note_on,31,56,0
2,note_on,43,56,0
2,note_on,43,0,240
2,note_on,31,0,0
2,note_on,36,62,0
2,note_on,48,62,0
2,note_on,48,0,240
2,note_on,36,0,0
2,note_on,38,53,0
2,note_on,50,53,0
2,note_on,50,0,240
2,note_on,38,0,0
2,note_on,40,60,0
2,note_on,52,60,0
2,note_on,52,0,240
2,note_on,40,0,0
2,note_on,36,52,0
2,note_on,48,52,0
2,note_on,48,0,240
2,note_on,36,0,0
2,note_on,35,62,0
2,note_on,47,62,0
2,note_on,35,0,240
2,note_on,36,43,0
2,note_on,48,43,0
2,note_on,47,0,10
2,note_on,36,0,230
2,note_on,31,53,0
2,note_on,43,53,0
2,note_on,48,0,10
2,note_on,43,0,460
2,note_on,31,0,10
2,note_on,36,45,0
2,note_on,48,53,0
2,note_on,48,0,480
2,note_on,36,0,0
2,note_on,43,49,0
2,note_on,55,58,0
2,note_on,55,0,480
2,note_on,43,0,0
2,note_on,40,45,0
2,note_on,52,53,0
2,note_on,52,0,240
2,note_on,40,0,0
2,note_on,38,47,0
2,note_on,50,56,0
2,note_on,50,0,240
2,note_on,38,0,0
2,note_on,48,60,0
2,note_on,36,51,0
2,note_on,36,0,240
2,note_on,48,0,0
2,note_on,31,56,0
2,note_on,43,56,0
2,note_on,43,0,240
2,note_on,31,0,0
2,note_on,36,62,0
2,note_on,48,62,0
2,note_on,48,0,240
2,note_on,36,0,0
2,note_on,38,53,0
2,note_on,50,53,0
2,note_on,50,0,240
2,note_on,38,0,0
2,note_on,40,60,0
2,note_on,52,60,0
2,note_on,52,0,240
2,note_on,40,0,0
2,note_on,36,52,0
2,note_on,48,52,0
2,note_on,48,0,240
2,note_on,36,0,0
2,note_on,35,62,0
2,note_on,47,62,0
2,note_on,35,0,240
2,note_on,36,43,0
2,note_on,48,43,0
2,note_on,47,0,10
2,note_on,36,0,230
2,note_on,31,53,0
2,note_on,43,53,0
2,note_on,48,0,10
2,note_on,43,0,460
2,note_on,31,0,10
2,note_on,32,35,0
2,note_on,44,42,0
2,note_on,44,0,480
2,note_on,32,0,0
2,note_on,37,35,0
2,note_on,49,42,0
2,note_on,49,0,480
2,note_on,37,0,0
2,note_on,36,44,0
2,note_on,48,44,0
2,note_on,36,0,240
2,note_on,34,29,0
2,note_on,46,29,0
2,note_on,48,0,10
2,note_on,34,0,230
2,note_on,32,42,0
2,note_on,44,42,0
2,note_on,46,0,10
2,note_on,44,0,460
2,note_on,32,0,10
2,note_on,31,42,0
2,note_on,43,42,0
2,note_on,43,0,480
2,note_on,31,0,0
2,note_on,43,42,0
2,note_on,50,42,120
2,note_on,50,0,120
2,note_on,55,51,0
2,note_on,55,0,120
2,note_on,53,48,0
2,note_on,53,0,120
2,note_on,43,0,0
2,note_on,52,55,0
2,note_on,43,55,0
2,note_on,52,0,240
2,note_on,53,55,0
2,note_on,53,0,120
2,note_on,52,49,0
2,note_on,52,0,120
2,note_on,50,54,0
2,note_on,50,0,240
2,note_on,55,50,0
2,note_on,55,0,240
2,note_on,43,0,0
2,note_on,48,45,0
2,note_on,60,54,0
2,note_on,60,0,240
2,note_on,58,57,0
2,note_on,58,0,240
2,note_on,48,0,0
2,note_on,53,52,0
2,note_on,57,62,0
2,note_on,57,0,240
2,note_on,59,55,0
2,note_on,59,0,240
2,note_on,53,0,0
2,note_on,52,45,0
2,note_on,60,54,0
2,note_on,60,0,240
2,note_on,52,0,0
2,note_on,50,38,0
2,note_on,59,45,0
2,note_on,59,0,240
2,note_on,50,0,0
2,note_on,48,36,0
2,note_on,60,44,0
2,note_on,60,0,480
2,note_on,48,0,0
2,note_on,41,36,0
2,note_on,48,36,0
2,note_on,53,43,0
2,note_on,53,0,480
2,note_on,48,0,0
2,note_on,41,0,0
2,note_on,42,43,0
2,note_on,50,43,0
2,note_on,54,51,0
2,note_on,54,0,480
2,note_on,50,0,0
2,note_on,42,0,0
2,note_on,45,50,0
2,note_on,50,50,0
2,note_on,57,59,0
2,note_on,57,0,480
2,note_on,50,0,0
2,note_on,45,0,0
2,note_on,44,66,0
2,note_on,51,66,0
2,note_on,56,78,0
2,note_on,56,0,60
2,note_on,51,0,0
2,note_on,44,0,0
2,note_on,60,52,20
2,note_on,63,52,0
2,note_on,66,62,0
2,note_on,66,0,60
2,note_on,63,0,0
2,note_on,60,0,0
2,note_on,60,53,20
2,note_on,63,53,0
2,note_on,66,63,0
2,note_on,66,0,60
2,note_on,63,0,0
2,note_on,60,0,0
2,note_on,60,64,20
2,note_on,63,64,0
2,note_on,66,76,0
2,note_on,66,0,60
2,note_on,63,0,0
2,note_on,60,0,0
2,note_on,60,56,20
2,note_on,63,56,0
2,note_on,65,66,0
2,note_on,65,0,60
2,note_on,63,0,0
2,note_on,60,0,0
2,note_on,60,57,20
2,note_on,63,57,0
2,note_on,66,67,0
2,note_on,66,0,50
2,note_on,63,0,0
2,note_on,60,0,0
2,note_on,43,61,0
2,note_on,52,61,0
2,note_on,55,68,0
2,note_on,55,0,30
2,note_on,52,0,0
2,note_on,43,0,0
2,note_on,64,62,0
2,note_on,67,73,0
2,note_on,67,0,60
2,note_on,64,0,0
2,note_on,60,55,20
2,note_on,67,65,0
2,note_on,67,0,60
2,note_on,60,0,0
2,note_on,55,56,20
2,note_on,64,66,0
2,note_on,64,0,60
2,note_on,55,0,0
2,note_on,52,63,20
2,note_on,60,75,0
2,note_on,60,0,60
2,note_on,52,0,0
2,note_on,48,53,20
2,note_on,55,62,0
2,note_on,55,0,60
2,note_on,48,0,0
2,note_on,45,53,20
2,note_on,52,62,0
2,note_on,52,0,60
2,note_on,45,0,0
2,note_on,43,63,20
2,note_on,53,75,0
2,note_on,53,0,60
2,note_on,50,66,20
2,note_on,50,0,60
2,note_on,47,66,20
2,note_on,47,0,60
2,note_on,43,69,20
2,note_on,43,0,60
2,note_on,41,59,20
2,note_on,41,0,60
2,note_on,38,59,20
2,note_on,38,0,60
2,note_on,43,0,20
2,note_on,36,40,0
2,note_on,36,0,228
2,note_on,36,36,12
2,note_on,36,0,228
2,note_on,36,32,12
2,note_on,36,0,228
2,note_on,48,37,12
2,note_on,55,37,0
2,note_on,55,0,228
2,note_on,48,0,0
2,note_on,48,42,12
2,note_on,59,42,0
2,note_on,59,0,228
2,note_on,48,0,0
2,note_on,48,36,12
2,note_on,60,36,0
2,note_on,60,0,228
2,note_on,48,0,0
2,note_on,48,36,12
2,note_on,64,36,0
2,note_on,64,0,228
2,note_on,48,0,0
2,note_on,48,30,12
2,note_on,59,30,0
2,note_on,59,0,228
2,note_on,48,0,0
2,note_on,48,42,12
2,note_on,57,42,0
2,note_on,48,0,228
2,note_on,48,36,12
2,note_on,48,0,228
2,note_on,57,0,12
2,note_on,48,36,0
2,note_on,48,0,228
2,note_on,48,37,12
2,note_on,57,37,0
2,note_on,57,0,228
2,note_on,48,0,0
2,note_on,48,42,12
2,note_on,57,42,0
2,note_on,57,0,228
2,note_on,48,0,0
2,note_on,48,36,12
2,note_on,59,36,0
2,note_on,59,0,228
2,note_on,48,0,0
2,note_on,48,36,12
2,note_on,62,36,0
2,note_on,62,0,228
2,note_on,48,0,0
2,note_on,48,30,12
2,note_on,57,30,0
2,note_on,57,0,228
2,note_on,48,0,0
2,note_on,48,42,12
2,note_on,55,42,0
2,note_on,48,0,228
2,note_on,48,36,12
2,note_on,48,0,228
2,note_on,55,0,12
2,note_on,48,36,0
2,note_on,48,0,228
2,note_on,48,37,12
2,note_on,55,37,0
2,note_on,55,0,228
2,note_on,48,0,0
2,note_on,48,42,12
2,note_on,55,42,0
2,note_on,55,0,228
2,note_on,48,0,0
2,note_on,48,36,12
2,note_on,57,36,0
2,note_on,57,0,228
2,note_on,48,0,0
2,note_on,48,36,12
2,note_on,60,36,0
2,note_on,60,0,228
2,note_on,48,0,0
2,note_on,48,30,12
2,note_on,55,30,0
2,note_on,55,0,228
2,note_on,48,0,0
2,note_on,48,42,12
2,note_on,53,42,0
2,note_on,48,0,228
2,note_on,48,36,12
2,note_on,48,0,228
2,note_on,53,0,12
2,note_on,48,36,0
2,note_on,48,0,228
2,note_on,48,37,12
2,note_on,53,37,0
2,note_on,53,0,228
2,note_on,48,0,0
2,note_on,48,42,12
2,note_on,53,42,0
2,note_on,53,0,228
2,note_on,48,0,0
2,note_on,48,36,12
2,note_on,57,36,0
2,note_on,57,0,228
2,note_on,48,0,0
2,note_on,48,36,12
2,note_on,55,36,0
2,note_on,55,0,228
2,note_on,48,0,0
2,note_on,48,30,12
2,note_on,53,30,0
2,note_on,53,0,228
2,note_on,48,0,0
2,note_on,36,42,12
2,note_on,48,42,0
2,note_on,48,0,228
2,note_on,36,0,0
2,note_on,43,36,12
2,note_on,36,36,0
2,note_on,36,0,228
2,note_on,43,0,0
2,note_on,48,42,12
2,note_on,36,36,0
2,note_on,36,0,228
2,note_on,48,0,0
2,note_on,36,37,12
2,note_on,43,37,0
2,note_on,43,0,228
2,note_on,36,0,0
2,note_on,36,42,12
2,note_on,48,42,0
2,note_on,48,0,228
2,note_on,36,0,0
2,note_on,43,36,12
2,note_on,36,36,0
2,note_on,36,0,228
2,note_on,43,0,0
2,note_on,48,42,12
2,note_on,36,36,0
2,note_on,36,0,228
2,note_on,48,0,0
2,note_on,36,37,12
2,note_on,43,37,0
2,note_on,43,0,228
2,note_on,36,0,0
2,note_on,36,42,12
2,note_on,48,42,0
2,note_on,48,0,228
2,note_on,36,0,0
2,note_on,43,36,12
2,note_on,36,36,0
2,note_on,36,0,228
2,note_on,43,0,0
2,note_on,48,42,12
2,note_on,36,36,0
2,note_on,36,0,228
2,note_on,48,0,0
2,note_on,36,37,12
2,note_on,43,37,0
2,note_on,43,0,228
2,note_on,36,0,0
2,note_on,36,39,12
2,note_on,48,39,0
2,note_on,48,0,228
2,note_on,36,0,0
2,note_on,43,33,12
2,note_on,36,33,0
2,note_on,36,0,228
2,note_on,43,0,0
2,note_on,48,38,12
2,note_on,36,32,0
2,note_on,36,0,228
2,note_on,48,0,0
2,note_on,36,32,12
2,note_on,43,32,0
2,note_on,43,0,228
2,note_on,36,0,0
2,note_on,36,35,12
2,note_on,48,35,0
2,note_on,48,0,228
2,note_on,36,0,0
2,note_on,43,28,12
2,note_on,36,28,0
2,note_on,36,0,228
2,note_on,43,0,0
2,note_on,48,33,12
2,note_on,36,28,0
2,note_on,36,0,228
2,note_on,48,0,0
2,note_on,36,28,12
2,note_on,43,28,0
2,note_on,43,0,228
2,note_on,36,0,0
2,note_on,36,25,12
2,note_on,43,25,0
2,note_on,48,30,0
2,note_on,48,0,720
2,note_on,43,0,0
2,note_on,36,0,0
3,note_on,87,51,178
3,note_on,87,0,15
3,note_on,89,51,0
3,note_on,89,0,15
3,note_on,70,51,280
3,note_on,70,0,15
3,note_on,72,51,0
3,note_on,72,0,15
3,note_on,74,51,185
3,note_on,74,0,15
3,note_on,75,51,0
3,note_on,75,0,15
