Track,Message Type,Note,Velocity,Time
1,note_on,76,67,90
1,note_on,79,67,0
1,note_on,72,67,0
1,note_on,84,80,0
1,note_on,84,0,630
1,note_on,76,0,0
1,note_on,79,0,0
1,note_on,72,0,0
1,note_on,64,70,0
1,note_on,60,59,0
1,note_on,52,59,0
1,note_on,52,0,220
1,note_on,60,0,0
1,note_on,64,0,0
1,note_on,64,74,20
1,note_on,52,62,0
1,note_on,60,62,0
1,note_on,60,0,480
1,note_on,52,0,0
1,note_on,64,0,0
1,note_on,60,60,0
1,note_on,53,60,0
1,note_on,65,71,0
1,note_on,65,0,120
1,note_on,53,0,0
1,note_on,60,0,0
1,note_on,55,63,120
1,note_on,60,63,0
1,note_on,67,75,0
1,note_on,67,0,120
1,note_on,60,0,0
1,note_on,55,0,0
1,note_on,57,66,120
1,note_on,60,66,0
1,note_on,69,78,0
1,note_on,69,0,120
1,note_on,60,0,0
1,note_on,57,0,0
1,note_on,55,62,360
1,note_on,67,74,0
1,note_on,60,62,0
1,note_on,60,0,120
1,note_on,67,0,0
1,note_on,55,0,0
1,note_on,52,59,1080
1,note_on,60,59,0
1,note_on,64,70,0
1,note_on,64,0,216
1,note_on,60,0,0
1,note_on,52,0,0
1,note_on,64,77,24
1,note_on,60,65,0
1,note_on,52,65,0
1,note_on,52,0,480
1,note_on,60,0,0
1,note_on,64,0,0
1,note_on,53,65,0
1,note_on,60,65,0
1,note_on,65,77,0
1,note_on,65,0,120
1,note_on,60,0,0
1,note_on,53,0,0
1,note_on,55,68,120
1,note_on,67,80,0
1,note_on,60,68,0
1,note_on,60,0,120
1,note_on,67,0,0
1,note_on,55,0,0
1,note_on,60,70,120
1,note_on,69,83,0
1,note_on,57,70,0
1,note_on,57,0,480
1,note_on,69,0,0
1,note_on,60,0,0
1,note_on,67,81,0
1,note_on,55,68,0
1,note_on,60,68,0
1,note_on,60,0,120
1,note_on,55,0,0
1,note_on,67,0,0
1,note_on,57,70,120
1,note_on,69,83,0
1,note_on,60,70,0
1,note_on,60,0,120
1,note_on,69,0,0
1,note_on,57,0,0
1,note_on,58,72,120
1,note_on,60,72,0
1,note_on,70,85,0
1,note_on,70,0,120
1,note_on,60,0,0
1,note_on,58,0,0
1,note_on,69,81,360
1,note_on,57,68,0
1,note_on,60,68,0
1,note_on,60,0,120
1,note_on,57,0,0
1,note_on,69,0,0
1,note_on,55,60,840
1,note_on,60,60,0
1,note_on,67,71,0
1,note_on,67,0,120
1,note_on,60,0,0
1,note_on,55,0,0
1,note_on,60,63,120
1,note_on,57,63,0
1,note_on,69,75,0
1,note_on,69,0,120
1,note_on,57,0,0
1,note_on,60,0,0
1,note_on,65,66,120
1,note_on,71,78,0
1,note_on,59,66,0
1,note_on,59,0,120
1,note_on,71,0,0
1,note_on,65,0,0
1,note_on,64,68,360
1,note_on,72,80,0
1,note_on,60,68,0
1,note_on,60,0,120
1,note_on,72,0,0
1,note_on,64,0,0
1,note_on,67,69,360
1,note_on,74,82,0
1,note_on,62,69,0
1,note_on,62,0,120
1,note_on,74,0,0
1,note_on,67,0,0
1,note_on,64,71,360
1,note_on,67,71,0
1,note_on,76,84,0
1,note_on,76,0,120
1,note_on,67,0,0
1,note_on,64,0,0
1,note_on,72,72,360
1,note_on,74,72,0
1,note_on,78,78,0
1,note_on,78,0,80
1,note_on,79,73,0
1,note_on,79,0,80
1,note_on,78,80,0
1,note_on,78,0,80
1,note_on,79,75,0
1,note_on,79,0,80
1,note_on,78,82,0
1,note_on,78,0,80
1,note_on,79,78,0
1,note_on,79,0,80
1,note_on,78,84,0
1,note_on,78,0,80
1,note_on,79,81,0
1,note_on,79,0,80
1,note_on,78,86,0
1,note_on,78,0,80
1,note_on,79,84,0
1,note_on,79,0,60
1,note_on,78,89,0
1,note_on,78,0,60
1,note_on,76,84,0
1,note_on,76,0,60
1,note_on,78,85,0
1,note_on,78,0,60
1,note_on,74,0,0
1,note_on,72,0,0
1,note_on,71,79,0
1,note_on,79,93,0
1,note_on,79,0,480
1,note_on,71,0,0
1,note_on,74,83,0
1,note_on,74,0,120
1,note_on,78,75,120
1,note_on,78,0,120
1,note_on,79,83,120
1,note_on,79,0,120
1,note_on,62,66,360
1,note_on,62,0,120
1,note_on,66,60,120
1,note_on,66,0,120
1,note_on,67,66,120
1,note_on,67,0,120
1,note_on,50,69,360
1,note_on,50,0,120
1,note_on,54,61,120
1,note_on,54,0,120
1,note_on,55,64,120
1,note_on,55,0,160
1,note_on,59,57,0
1,note_on,59,0,160
1,note_on,60,57,0
1,note_on,60,0,160
1,note_on,62,66,0
1,note_on,62,0,160
1,note_on,64,59,0
1,note_on,64,0,160
1,note_on,66,59,0
1,note_on,66,0,160
1,note_on,67,67,0
1,note_on,67,0,120
1,note_on,70,69,0
1,note_on,70,0,120
1,note_on,72,71,0
1,note_on,72,0,120
1,note_on,74,73,0
1,note_on,74,0,120
1,note_on,76,75,0
1,note_on,76,0,120
1,note_on,78,77,0
1,note_on,78,0,120
1,note_on,79,79,0
1,note_on,79,0,120
1,note_on,81,84,0
1,note_on,81,0,120
1,note_on,82,80,90
1,note_on,70,67,0
1,note_on,77,67,0
1,note_on,74,67,0
1,note_on,74,0,630
1,note_on,82,0,0
1,note_on,70,0,0
1,note_on,77,0,0
1,note_on,70,67,0
1,note_on,62,67,0
1,note_on,74,80,0
1,note_on,74,0,216
1,note_on,62,0,0
1,note_on,70,0,0
1,note_on,70,71,24
1,note_on,62,71,0
1,note_on,74,85,0
1,note_on,74,0,480
1,note_on,62,0,0
1,note_on,70,0,0
1,note_on,63,69,0
1,note_on,75,81,0
1,note_on,70,69,0
1,note_on,70,0,120
1,note_on,75,0,0
1,note_on,63,0,0
1,note_on,65,72,120
1,note_on,70,72,0
1,note_on,77,86,0
1,note_on,77,0,120
1,note_on,70,0,0
1,note_on,65,0,0
1,note_on,70,75,120
1,note_on,67,75,0
1,note_on,79,89,0
1,note_on,79,0,120
1,note_on,67,0,0
1,note_on,70,0,0
1,note_on,65,71,360
1,note_on,77,85,0
1,note_on,70,71,0
1,note_on,70,0,120
1,note_on,77,0,0
1,note_on,65,0,0
1,note_on,70,67,1080
1,note_on,62,67,0
1,note_on,74,80,0
1,note_on,74,0,216
1,note_on,62,0,0
1,note_on,70,0,0
1,note_on,62,74,24
1,note_on,74,88,0
1,note_on,70,74,0
1,note_on,70,0,480
1,note_on,74,0,0
1,note_on,62,0,0
1,note_on,70,74,0
1,note_on,63,74,0
1,note_on,75,88,0
1,note_on,75,0,120
1,note_on,63,0,0
1,note_on,70,0,0
1,note_on,70,78,120
1,note_on,77,92,0
1,note_on,65,78,0
1,note_on,65,0,120
1,note_on,77,0,0
1,note_on,70,0,0
1,note_on,67,80,120
1,note_on,79,95,0
1,note_on,70,80,0
1,note_on,70,0,480
1,note_on,79,0,0
1,note_on,67,0,0
1,note_on,70,78,0
1,note_on,77,93,0
1,note_on,65,78,0
1,note_on,65,0,120
1,note_on,77,0,0
1,note_on,70,0,0
1,note_on,67,80,120
1,note_on,79,95,0
1,note_on,70,80,0
1,note_on,70,0,120
1,note_on,79,0,0
1,note_on,67,0,0
1,note_on,70,82,120
1,note_on,80,97,0
1,note_on,68,82,0
1,note_on,68,0,120
1,note_on,80,0,0
1,note_on,70,0,0
1,note_on,79,93,360
1,note_on,67,78,0
1,note_on,70,78,0
1,note_on,70,0,120
1,note_on,67,0,0
1,note_on,79,0,0
1,note_on,77,81,840
1,note_on,70,69,0
1,note_on,65,69,0
1,note_on,65,0,120
1,note_on,70,0,0
1,note_on,77,0,0
1,note_on,67,72,120
1,note_on,79,86,0
1,note_on,70,72,0
1,note_on,70,0,120
1,note_on,79,0,0
1,note_on,67,0,0
1,note_on,79,75,120
1,note_on,83,89,0
1,note_on,71,75,0
1,note_on,71,0,120
1,note_on,83,0,0
1,note_on,79,0,0
1,note_on,72,78,360
1,note_on,84,92,0
1,note_on,79,78,0
1,note_on,79,0,120
1,note_on,84,0,0
1,note_on,72,0,0
1,note_on,86,94,360
1,note_on,79,79,0
1,note_on,74,79,0
1,note_on,74,0,120
1,note_on,79,0,0
1,note_on,86,0,0
1,note_on,75,81,360
1,note_on,79,81,0
1,note_on,87,96,0
1,note_on,87,0,120
1,note_on,79,0,0
1,note_on,75,0,0
1,note_on,77,81,360
1,note_on,84,81,0
1,note_on,89,96,0
1,note_on,89,0,120
1,note_on,84,0,0
1,note_on,77,0,0
1,note_on,78,89,360
1,note_on,90,105,0
1,note_on,86,89,0
1,note_on,84,89,0
1,note_on,84,0,960
1,note_on,78,0,0
1,note_on,90,0,0
1,note_on,86,0,0
1,note_on,84,89,0
1,note_on,79,89,0
1,note_on,91,105,0
1,note_on,86,89,0
1,note_on,86,0,960
1,note_on,84,0,0
1,note_on,79,0,0
1,note_on,91,0,0
1,note_on,81,89,0
1,note_on,86,89,0
1,note_on,93,105,0
1,note_on,84,89,0
1,note_on,84,0,940
1,note_on,81,0,0
1,note_on,86,0,0
1,note_on,93,0,0
1,note_on,81,89,20
1,note_on,93,105,0
1,note_on,84,89,0
1,note_on,86,89,0
1,note_on,86,0,720
1,note_on,81,0,0
1,note_on,93,0,0
1,note_on,84,0,0
1,note_on,91,83,0
1,note_on,79,70,0
1,note_on,83,70,0
1,note_on,83,0,120
1,note_on,79,0,0
1,note_on,91,0,0
1,note_on,77,74,120
1,note_on,89,88,0
1,note_on,89,0,120
1,note_on,77,0,0
1,note_on,74,63,120
1,note_on,86,75,0
1,note_on,86,0,120
1,note_on,74,0,0
1,note_on,83,87,120
1,note_on,71,73,0
1,note_on,71,0,120
1,note_on,83,0,0
1,note_on,79,70,120
1,note_on,67,59,0
1,note_on,67,0,120
1,note_on,79,0,0
1,note_on,77,83,120
1,note_on,65,70,0
1,note_on,65,0,120
1,note_on,77,0,0
1,note_on,74,68,120
1,note_on,62,57,0
1,note_on,62,0,120
1,note_on,74,0,0
1,note_on,60,68,120
1,note_on,72,80,0
1,note_on,64,68,0
1,note_on,64,0,720
1,note_on,72,0,0
1,note_on,60,0,0
1,note_on,60,40,960
1,note_on,60,0,216
1,note_on,60,48,24
1,note_on,60,0,480
1,note_on,62,41,0
1,note_on,62,0,120
1,note_on,64,46,120
1,note_on,64,0,120
1,note_on,65,51,120
1,note_on,65,0,460
1,note_on,65,45,20
1,note_on,65,0,216
1,note_on,65,37,24
1,note_on,67,46,0
1,note_on,67,0,216
1,note_on,65,0,0
1,note_on,67,49,24
1,note_on,67,0,480
1,note_on,69,45,0
1,note_on,69,0,120
1,note_on,71,45,120
1,note_on,79,51,0
1,note_on,71,0,120
1,note_on,79,0,96
1,note_on,79,55,24
1,note_on,72,49,0
1,note_on,72,0,480
1,note_on,74,47,0
1,note_on,74,0,120
1,note_on,79,0,120
1,note_on,76,55,0
1,note_on,79,55,0
1,note_on,76,0,120
1,note_on,79,0,96
1,note_on,79,62,24
1,note_on,77,53,0
1,note_on,79,0,240
1,note_on,78,53,0
1,note_on,78,0,240
1,note_on,81,63,0
1,note_on,81,0,120
1,note_on,77,0,120
1,note_on,76,45,0
1,note_on,79,54,0
1,note_on,79,0,120
1,note_on,76,0,120
1,note_on,79,59,0
1,note_on,76,50,0
1,note_on,79,0,240
1,note_on,78,50,0
1,note_on,78,0,240
1,note_on,81,59,0
1,note_on,81,0,120
1,note_on,76,0,120
1,note_on,72,42,0
1,note_on,79,50,0
1,note_on,79,0,120
1,note_on,72,0,120
1,note_on,73,55,0
1,note_on,82,65,0
1,note_on,82,0,480
1,note_on,73,0,0
1,note_on,81,59,0
1,note_on,74,50,0
1,note_on,74,0,120
1,note_on,81,0,0
1,note_on,62,40,1080
1,note_on,62,0,216
1,note_on,62,48,24
1,note_on,62,0,480
1,note_on,64,41,0
1,note_on,64,0,120
1,note_on,65,46,120
1,note_on,65,0,120
1,note_on,67,51,120
1,note_on,67,0,480
1,note_on,67,45,0
1,note_on,67,0,240
1,note_on,69,46,0
1,note_on,67,37,0
1,note_on,67,0,216
1,note_on,69,0,0
1,note_on,69,49,24
1,note_on,69,0,480
1,note_on,71,45,0
1,note_on,71,0,120
1,note_on,73,45,120
1,note_on,81,51,0
1,note_on,73,0,120
1,note_on,81,0,96
1,note_on,74,49,24
1,note_on,81,55,0
1,note_on,74,0,480
1,note_on,76,47,0
1,note_on,76,0,120
1,note_on,81,0,120
1,note_on,81,55,0
1,note_on,77,55,0
1,note_on,77,0,120
1,note_on,81,0,96
1,note_on,79,53,24
1,note_on,81,62,0
1,note_on,81,0,240
1,note_on,80,53,0
1,note_on,80,0,240
1,note_on,82,63,0
1,note_on,82,0,120
1,note_on,79,0,120
1,note_on,77,45,0
1,note_on,81,54,0
1,note_on,81,0,120
1,note_on,77,0,120
1,note_on,81,59,0
1,note_on,77,50,0
1,note_on,81,0,240
1,note_on,80,50,0
1,note_on,80,0,240
1,note_on,82,59,0
1,note_on,82,0,120
1,note_on,77,0,120
1,note_on,81,50,0
1,note_on,74,42,0
1,note_on,81,0,120
1,note_on,74,0,120
1,note_on,75,55,0
1,note_on,84,69,0
1,note_on,84,0,480
1,note_on,75,0,0
1,note_on,76,50,0
1,note_on,83,59,0
1,note_on,83,0,120
1,note_on,76,0,0
1,note_on,88,78,1320
1,note_on,78,66,0
1,note_on,88,0,480
1,note_on,87,69,0
1,note_on,87,0,120
1,note_on,78,0,120
1,note_on,81,68,1200
1,note_on,91,81,0
1,note_on,91,0,480
1,note_on,90,72,0
1,note_on,90,0,120
1,note_on,81,0,120
1,note_on,93,80,240
1,note_on,82,68,0
1,note_on,82,0,480
1,note_on,93,0,0
1,note_on,91,74,0
1,note_on,91,0,120
1,note_on,76,63,2280
1,note_on,64,53,0
1,note_on,64,0,480
1,note_on,76,0,0
1,note_on,75,61,0
1,note_on,75,0,120
1,note_on,73,61,120
1,note_on,73,0,120
1,note_on,71,58,120
1,note_on,81,69,0
1,note_on,81,0,480
1,note_on,71,0,0
1,note_on,80,61,0
1,note_on,80,0,120
1,note_on,78,61,120
1,note_on,78,0,120
1,note_on,76,61,120
1,note_on,83,72,0
1,note_on,83,0,480
1,note_on,81,65,0
1,note_on,81,0,120
1,note_on,80,61,120
1,note_on,80,0,120
1,note_on,76,0,120
1,note_on,76,59,0
1,note_on,78,70,0
1,note_on,78,0,240
1,note_on,79,61,0
1,note_on,79,0,216
1,note_on,76,0,24
1,note_on,79,63,0
1,note_on,76,53,0
1,note_on,79,0,720
1,note_on,78,67,0
1,note_on,78,0,240
1,note_on,76,0,0
1,note_on,76,59,0
1,note_on,78,70,0
1,note_on,78,0,240
1,note_on,79,64,0
1,note_on,79,0,216
1,note_on,76,0,24
1,note_on,79,64,0
1,note_on,76,54,0
1,note_on,79,0,240
1,note_on,80,61,0
1,note_on,80,0,216
1,note_on,76,0,24
1,note_on,76,59,0
1,note_on,80,70,0
1,note_on,80,0,720
1,note_on,79,60,0
1,note_on,79,0,240
1,note_on,76,0,0
1,note_on,79,62,0
1,note_on,76,52,0
1,note_on,79,0,240
1,note_on,80,64,0
1,note_on,80,0,216
1,note_on,76,0,24
1,note_on,80,66,0
1,note_on,76,56,0
1,note_on,80,0,240
1,note_on,81,68,0
1,note_on,81,0,216
1,note_on,76,0,24
1,note_on,76,62,0
1,note_on,81,74,0
1,note_on,81,0,700
1,note_on,76,0,0
1,note_on,82,69,20
1,note_on,76,58,0
1,note_on,76,0,216
1,note_on,82,0,0
1,note_on,76,65,24
1,note_on,82,77,0
1,note_on,82,0,240
1,note_on,76,0,0
1,note_on,79,57,0
1,note_on,85,68,0
1,note_on,85,0,216
1,note_on,79,0,0
1,note_on,79,59,24
1,note_on,85,70,0
1,note_on,85,0,240
1,note_on,79,0,0
1,note_on,82,70,0
1,note_on,88,70,0
1,note_on,88,0,216
1,note_on,82,0,0
1,note_on,88,75,24
1,note_on,82,75,0
1,note_on,82,0,240
1,note_on,88,0,0
1,note_on,91,73,0
1,note_on,85,62,0
1,note_on,85,0,240
1,note_on,91,0,0
1,note_on,90,80,0
1,note_on,87,68,0
1,note_on,87,0,120
1,note_on,90,0,0
1,note_on,66,80,600
1,note_on,78,85,240
1,note_on,69,72,0
1,note_on,78,0,720
1,note_on,76,80,0
1,note_on,76,0,240
1,note_on,75,84,0
1,note_on,75,0,240
1,note_on,69,0,0
1,note_on,66,0,0
1,note_on,78,83,480
1,note_on,81,76,240
1,note_on,90,90,0
1,note_on,90,0,720
1,note_on,88,85,0
1,note_on,88,0,240
1,note_on,87,95,0
1,note_on,87,0,240
1,note_on,81,0,0
1,note_on,78,0,0
1,note_on,93,99,240
1,note_on,87,84,0
1,note_on,90,84,0
1,note_on,81,84,0
1,note_on,81,0,120
1,note_on,93,0,0
1,note_on,87,0,0
1,note_on,90,0,0
1,note_on,66,77,840
1,note_on,66,0,480
1,note_on,69,83,0
1,note_on,69,0,1200
1,note_on,66,46,240
1,note_on,66,0,480
1,note_on,69,49,0
1,note_on,69,0,1200
1,note_on,66,46,240
1,note_on,66,0,480
1,note_on,69,49,0
1,note_on,69,0,960
1,note_on,71,48,0
1,note_on,71,0,720
1,note_on,72,46,0
1,note_on,72,0,216
1,note_on,72,53,24
1,note_on,72,0,960
1,note_on,71,46,0
1,note_on,71,0,480
1,note_on,74,49,240
1,note_on,74,0,240
1,note_on,77,54,0
1,note_on,77,0,960
1,note_on,76,50,0
1,note_on,76,0,720
1,note_on,71,50,0
1,note_on,71,0,240
1,note_on,74,57,0
1,note_on,74,0,960
1,note_on,72,52,0
1,note_on,72,0,480
1,note_on,72,49,480
1,note_on,72,0,940
1,note_on,72,50,20
1,note_on,74,56,720
1,note_on,74,0,240
1,note_on,76,65,0
1,note_on,76,0,480
1,note_on,72,0,0
1,note_on,76,63,480
1,note_on,79,75,0
1,note_on,79,0,1440
1,note_on,76,0,0
1,note_on,79,62,480
1,note_on,83,73,0
1,note_on,83,0,1440
1,note_on,79,0,0
1,note_on,74,69,420
1,note_on,79,73,30
1,note_on,86,76,30
1,note_on,86,0,1680
1,note_on,79,0,0
1,note_on,74,0,0
1,note_on,83,66,0
1,note_on,83,0,240
1,note_on,78,62,0
1,note_on,84,73,0
1,note_on,84,0,720
1,note_on,81,61,0
1,note_on,81,0,240
1,note_on,78,0,0
1,note_on,79,69,0
1,note_on,79,0,960
1,note_on,81,63,0
1,note_on,72,53,0
1,note_on,81,0,720
1,note_on,77,52,0
1,note_on,77,0,240
1,note_on,76,63,0
1,note_on,76,0,960
1,note_on,72,0,0
1,note_on,71,54,0
1,note_on,77,64,0
1,note_on,71,0,960
1,note_on,72,64,0
1,note_on,77,0,720
1,note_on,76,52,0
1,note_on,76,0,240
1,note_on,72,0,0
1,note_on,78,50,0
1,note_on,69,42,0
1,note_on,78,0,720
1,note_on,75,37,0
1,note_on,75,0,240
1,note_on,69,0,0
1,note_on,84,40,0
1,note_on,88,40,0
1,note_on,76,34,0
1,note_on,88,0,960
1,note_on,84,0,0
1,note_on,86,35,0
1,note_on,83,35,0
1,note_on,83,0,480
1,note_on,86,0,0
1,note_on,84,41,0
1,note_on,88,41,0
1,note_on,76,0,460
1,note_on,88,0,20
1,note_on,84,0,0
1,note_on,89,46,0
1,note_on,86,46,0
1,note_on,76,25,0
1,note_on,86,0,720
1,note_on,89,0,0
1,note_on,86,39,0
1,note_on,83,39,0
1,note_on,83,0,240
1,note_on,86,0,0
1,note_on,83,46,0
1,note_on,80,46,0
1,note_on,80,0,480
1,note_on,83,0,0
1,note_on,81,40,0
1,note_on,84,40,0
1,note_on,76,0,460
1,note_on,84,0,20
1,note_on,81,0,0
1,note_on,83,40,0
1,note_on,76,34,0
1,note_on,86,40,0
1,note_on,86,0,480
1,note_on,83,0,0
1,note_on,84,35,0
1,note_on,81,35,0
1,note_on,81,0,480
1,note_on,84,0,0
1,note_on,79,35,0
1,note_on,83,35,0
1,note_on,83,0,480
1,note_on,79,0,0
1,note_on,81,41,0
1,note_on,77,41,0
1,note_on,76,0,460
1,note_on,77,0,20
1,note_on,81,0,0
1,note_on,80,46,0
1,note_on,76,25,0
1,note_on,80,0,720
1,note_on,81,39,0
1,note_on,78,39,0
1,note_on,78,0,240
1,note_on,81,0,0
1,note_on,80,46,0
1,note_on,83,46,0
1,note_on,76,0,460
1,note_on,83,0,20
1,note_on,80,0,0
1,note_on,76,40,0
1,note_on,84,40,480
1,note_on,88,40,0
1,note_on,88,0,960
1,note_on,84,0,0
1,note_on,83,35,0
1,note_on,86,35,0
1,note_on,86,0,480
1,note_on,83,0,0
1,note_on,88,43,0
1,note_on,84,43,0
1,note_on,76,0,460
1,note_on,84,0,20
1,note_on,88,0,0
1,note_on,76,25,0
1,note_on,91,55,0
1,note_on,88,55,0
1,note_on,88,0,720
1,note_on,91,0,0
1,note_on,86,42,0
1,note_on,89,42,0
1,note_on,89,0,240
1,note_on,86,0,0
1,note_on,83,50,0
1,note_on,86,50,0
1,note_on,86,0,480
1,note_on,83,0,0
1,note_on,89,44,0
1,note_on,86,44,0
1,note_on,76,0,460
1,note_on,86,0,20
1,note_on,89,0,0
1,note_on,84,44,0
1,note_on,88,44,0
1,note_on,76,37,0
1,note_on,88,0,480
1,note_on,84,0,0
1,note_on,81,37,0
1,note_on,84,37,0
1,note_on,84,0,480
1,note_on,81,0,0
1,note_on,86,36,0
1,note_on,83,36,0
1,note_on,83,0,480
1,note_on,86,0,0
1,note_on,80,42,0
1,note_on,83,42,0
1,note_on,76,0,460
1,note_on,83,0,20
1,note_on,80,0,0
1,note_on,76,25,0
1,note_on,84,46,0
1,note_on,81,40,0
1,note_on,81,0,480
1,note_on,84,0,0
1,note_on,81,39,0
1,note_on,78,39,0
1,note_on,78,0,480
1,note_on,81,0,0
1,note_on,83,46,0
1,note_on,80,46,0
1,note_on,80,0,480
1,note_on,83,0,0
1,note_on,76,40,0
1,note_on,76,0,480
1,note_on,76,0,0
1,note_on,64,24,240
1,note_on,64,0,240
1,note_on,69,34,0
1,note_on,69,0,240
1,note_on,76,24,0
1,note_on,76,0,240
1,note_on,64,27,240
1,note_on,64,0,240
1,note_on,71,33,0
1,note_on,71,0,240
1,note_on,76,24,0
1,note_on,76,0,240
1,note_on,69,27,240
1,note_on,69,0,240
1,note_on,72,34,0
1,note_on,72,0,240
1,note_on,77,24,0
1,note_on,77,0,240
1,note_on,65,29,240
1,note_on,65,0,240
1,note_on,71,33,0
1,note_on,77,24,226
1,note_on,71,0,14
1,note_on,77,0,226
1,note_on,69,32,254
1,note_on,69,0,240
1,note_on,77,38,0
1,note_on,77,0,240
1,note_on,83,32,0
1,note_on,83,0,240
1,note_on,68,32,240
1,note_on,68,0,240
1,note_on,76,41,0
1,note_on,76,0,240
1,note_on,83,34,0
1,note_on,83,0,240
1,note_on,74,35,240
1,note_on,74,0,240
1,note_on,83,44,0
1,note_on,83,0,240
1,note_on,88,38,0
1,note_on,88,0,240
1,note_on,72,38,240
1,note_on,72,0,240
1,note_on,81,48,0
1,note_on,81,0,240
1,note_on,88,36,0
1,note_on,88,0,240
1,note_on,69,39,480
1,note_on,71,47,0
1,note_on,65,39,0
1,note_on,65,0,600
1,note_on,71,0,0
1,note_on,69,0,0
1,note_on,72,45,0
1,note_on,72,0,120
1,note_on,71,45,0
1,note_on,71,0,120
1,note_on,69,45,0
1,note_on,69,0,120
1,note_on,71,46,0
1,note_on,71,0,120
1,note_on,72,49,0
1,note_on,72,0,120
1,note_on,74,52,0
1,note_on,74,0,120
1,note_on,76,55,0
1,note_on,76,0,120
1,note_on,79,68,0
1,note_on,79,0,480
1,note_on,77,64,0
1,note_on,77,0,240
1,note_on,68,39,1680
1,note_on,65,39,0
1,note_on,71,47,0
1,note_on,71,0,600
1,note_on,65,0,0
1,note_on,68,0,0
1,note_on,72,45,0
1,note_on,72,0,120
1,note_on,71,45,0
1,note_on,71,0,120
1,note_on,70,45,0
1,note_on,70,0,120
1,note_on,71,46,0
1,note_on,71,0,120
1,note_on,72,49,0
1,note_on,72,0,120
1,note_on,74,52,0
1,note_on,74,0,120
1,note_on,76,55,0
1,note_on,76,0,120
1,note_on,79,68,0
1,note_on,79,0,480
1,note_on,77,64,0
1,note_on,77,0,240
1,note_on,84,74,240
1,note_on,74,62,0
1,note_on,84,0,480
1,note_on,82,69,0
1,note_on,82,0,240
1,note_on,74,0,0
1,note_on,62,41,2160
1,note_on,72,41,0
1,note_on,63,41,120
1,note_on,62,0,12
1,note_on,62,41,108
1,note_on,63,0,12
1,note_on,61,41,108
1,note_on,62,0,12
1,note_on,72,0,108
1,note_on,70,61,0
1,note_on,62,45,0
1,note_on,61,0,12
1,note_on,65,47,108
1,note_on,62,0,12
1,note_on,70,0,108
1,note_on,68,49,0
1,note_on,65,0,12
1,note_on,70,52,108
1,note_on,68,0,12
1,note_on,75,67,108
1,note_on,84,67,0
1,note_on,70,0,12
1,note_on,84,0,468
1,note_on,82,61,0
1,note_on,82,0,240
1,note_on,75,0,0
1,note_on,74,51,240
1,note_on,84,75,0
1,note_on,75,47,120
1,note_on,74,0,12
1,note_on,74,47,108
1,note_on,75,0,12
1,note_on,73,47,108
1,note_on,74,0,12
1,note_on,84,0,108
1,note_on,74,51,0
1,note_on,82,70,0
1,note_on,73,0,12
1,note_on,77,53,108
1,note_on,74,0,12
1,note_on,82,0,108
1,note_on,80,56,0
1,note_on,77,0,12
1,note_on,82,60,108
1,note_on,80,0,12
1,note_on,96,77,108
1,note_on,86,77,0
1,note_on,82,0,12
1,note_on,96,0,468
1,note_on,94,86,0
1,note_on,86,0,240
1,note_on,94,0,480
1,note_on,93,75,0
1,note_on,93,0,240
1,note_on,92,77,0
1,note_on,92,0,240
1,note_on,91,73,0
1,note_on,91,0,240
1,note_on,90,69,0
1,note_on,90,0,240
1,note_on,89,63,0
1,note_on,89,0,240
1,note_on,88,70,0
1,note_on,88,0,240
1,note_on,87,69,0
1,note_on,87,0,240
1,note_on,86,70,0
1,note_on,86,0,240
1,note_on,85,60,0
1,note_on,85,0,240
1,note_on,84,64,0
1,note_on,84,0,240
1,note_on,83,67,0
1,note_on,83,0,240
1,note_on,82,71,0
1,note_on,82,0,240
1,note_on,81,60,0
1,note_on,81,0,240
1,note_on,80,67,0
1,note_on,80,0,240
1,note_on,79,54,0
1,note_on,79,0,240
1,note_on,78,60,0
1,note_on,78,0,240
1,note_on,77,54,0
1,note_on,77,0,240
1,note_on,76,59,0
1,note_on,76,0,240
1,note_on,75,50,0
1,note_on,75,0,240
1,note_on,74,59,0
1,note_on,74,0,240
1,note_on,73,46,0
1,note_on,73,0,240
1,note_on,72,53,0
1,note_on,72,0,240
1,note_on,71,46,0
1,note_on,71,0,240
1,note_on,72,54,480
1,note_on,72,0,480
1,note_on,75,58,0
1,note_on,75,0,480
1,note_on,81,54,0
1,note_on,81,0,480
1,note_on,77,54,480
1,note_on,77,0,480
1,note_on,76,43,0
1,note_on,76,0,480
1,note_on,68,34,0
1,note_on,68,0,480
1,note_on,77,32,0
1,note_on,81,40,0
1,note_on,77,0,240
1,note_on,69,23,0
1,note_on,69,0,240
1,note_on,77,23,0
1,note_on,77,0,240
1,note_on,69,23,0
1,note_on,69,0,240
1,note_on,81,0,0
1,note_on,76,35,0
1,note_on,79,35,0
1,note_on,79,0,480
1,note_on,76,0,0
1,note_on,81,41,0
1,note_on,77,41,0
1,note_on,77,0,480
1,note_on,81,0,0
1,note_on,82,46,0
1,note_on,79,46,0
1,note_on,79,0,700
1,note_on,82,0,20
1,note_on,76,39,0
1,note_on,79,39,0
1,note_on,76,0,220
1,note_on,79,0,20
1,note_on,73,46,0
1,note_on,76,46,0
1,note_on,76,0,480
1,note_on,73,0,0
1,note_on,74,40,0
1,note_on,77,40,0
1,note_on,77,0,480
1,note_on,74,0,0
1,note_on,76,40,0
1,note_on,79,40,0
1,note_on,79,0,480
1,note_on,76,0,0
1,note_on,77,35,0
1,note_on,74,35,0
1,note_on,74,0,480
1,note_on,77,0,0
1,note_on,76,35,0
1,note_on,72,35,0
1,note_on,72,0,480
1,note_on,76,0,0
1,note_on,74,41,0
1,note_on,70,41,0
1,note_on,70,0,480
1,note_on,74,0,0
1,note_on,73,46,0
1,note_on,69,25,0
1,note_on,69,0,720
1,note_on,73,0,0
1,note_on,71,39,0
1,note_on,74,39,0
1,note_on,74,0,240
1,note_on,71,0,0
1,note_on,73,46,0
1,note_on,76,46,0
1,note_on,76,0,480
1,note_on,73,0,0
1,note_on,85,46,480
1,note_on,81,25,0
1,note_on,81,0,720
1,note_on,85,0,0
1,note_on,83,39,0
1,note_on,86,39,0
1,note_on,86,0,240
1,note_on,83,0,0
1,note_on,85,46,0
1,note_on,88,46,0
1,note_on,88,0,480
1,note_on,85,0,0
1,note_on,69,23,480
1,note_on,72,50,0
1,note_on,72,0,720
1,note_on,69,0,0
1,note_on,74,42,0
1,note_on,71,36,0
1,note_on,71,0,240
1,note_on,74,0,0
1,note_on,76,50,0
1,note_on,72,42,0
1,note_on,72,0,1680
1,note_on,76,0,0
1,note_on,74,40,0
1,note_on,77,48,0
1,note_on,77,0,240
1,note_on,74,0,0
1,note_on,79,57,0
1,note_on,76,46,0
1,note_on,76,0,960
1,note_on,75,51,0
1,note_on,72,27,0
1,note_on,79,0,720
1,note_on,81,62,0
1,note_on,81,0,240
1,note_on,72,0,0
1,note_on,75,0,0
1,note_on,79,50,0
1,note_on,74,50,0
1,note_on,83,60,0
1,note_on,79,0,940
1,note_on,74,0,20
1,note_on,72,26,0
1,note_on,79,58,0
1,note_on,83,0,720
1,note_on,84,62,0
1,note_on,84,0,240
1,note_on,79,0,0
1,note_on,72,0,0
1,note_on,74,56,0
1,note_on,83,56,0
1,note_on,86,67,0
1,note_on,77,56,0
1,note_on,77,0,960
1,note_on,74,0,0
1,note_on,83,0,0
1,note_on,79,70,0
1,note_on,76,31,0
1,note_on,86,0,720
1,note_on,88,74,0
1,note_on,88,0,240
1,note_on,76,0,0
1,note_on,79,0,0
1,note_on,89,73,0
1,note_on,86,73,0
1,note_on,77,61,0
1,note_on,77,0,1200
1,note_on,86,0,0
1,note_on,89,0,0
1,note_on,85,67,0
1,note_on,88,67,0
1,note_on,76,56,0
1,note_on,76,0,240
1,note_on,88,0,0
1,note_on,85,0,0
1,note_on,77,61,0
1,note_on,89,72,0
1,note_on,86,72,0
1,note_on,86,0,240
1,note_on,89,0,0
1,note_on,77,0,0
1,note_on,85,67,0
1,note_on,76,56,0
1,note_on,88,67,0
1,note_on,88,0,240
1,note_on,76,0,0
1,note_on,85,0,0
1,note_on,86,76,0
1,note_on,77,64,0
1,note_on,89,76,0
1,note_on,89,0,240
1,note_on,77,0,0
1,note_on,86,0,0
1,note_on,85,73,0
1,note_on,88,73,0
1,note_on,76,62,0
1,note_on,76,0,240
1,note_on,88,0,0
1,note_on,85,0,0
1,note_on,86,76,0
1,note_on,89,76,0
1,note_on,77,64,0
1,note_on,77,0,240
1,note_on,89,0,0
1,note_on,86,0,0
1,note_on,85,81,0
1,note_on,88,81,0
1,note_on,76,68,0
1,note_on,76,0,120
1,note_on,88,0,0
1,note_on,85,0,0
1,note_on,89,73,120
1,note_on,101,86,0
1,note_on,91,73,0
1,note_on,91,0,120
1,note_on,101,0,0
1,note_on,89,0,0
1,note_on,98,75,0
1,note_on,98,0,120
1,note_on,95,76,0
1,note_on,95,0,120
1,note_on,91,73,0
1,note_on,91,0,120
1,note_on,89,86,0
1,note_on,89,0,120
1,note_on,86,72,0
1,note_on,86,0,120
1,note_on,83,76,0
1,note_on,83,0,120
1,note_on,79,69,0
1,note_on,79,0,120
1,note_on,89,86,0
1,note_on,89,0,120
1,note_on,86,75,0
1,note_on,86,0,120
1,note_on,83,76,0
1,note_on,83,0,120
1,note_on,79,73,0
1,note_on,79,0,120
1,note_on,77,86,0
1,note_on,77,0,120
1,note_on,74,72,0
1,note_on,74,0,120
1,note_on,71,76,0
1,note_on,71,0,120
1,note_on,67,69,0
1,note_on,67,0,120
1,note_on,89,86,0
1,note_on,89,0,120
1,note_on,86,75,0
1,note_on,86,0,120
1,note_on,83,76,0
1,note_on,83,0,120
1,note_on,79,73,0
1,note_on,79,0,120
1,note_on,77,86,0
1,note_on,77,0,120
1,note_on,74,72,0
1,note_on,74,0,120
1,note_on,71,76,0
1,note_on,71,0,120
1,note_on,67,69,0
1,note_on,67,0,120
1,note_on,65,81,0
1,note_on,65,0,80
1,note_on,62,70,0
1,note_on,62,0,80
1,note_on,59,70,0
1,note_on,59,0,80
1,note_on,55,75,0
1,note_on,55,0,80
1,note_on,59,70,0
1,note_on,59,0,80
1,note_on,62,70,0
1,note_on,62,0,80
1,note_on,65,79,0
1,note_on,65,0,80
1,note_on,67,70,0
1,note_on,67,0,80
1,note_on,74,70,0
1,note_on,74,0,80
1,note_on,77,70,0
1,note_on,77,0,80
1,note_on,79,70,0
1,note_on,79,0,80
1,note_on,83,70,0
1,note_on,83,0,80
1,note_on,84,88,90
1,note_on,72,73,0
1,note_on,79,73,0
1,note_on,76,73,0
1,note_on,76,0,630
1,note_on,84,0,0
1,note_on,72,0,0
1,note_on,79,0,0
1,note_on,64,70,0
1,note_on,60,59,0
1,note_on,52,59,0
1,note_on,52,0,216
1,note_on,60,0,0
1,note_on,64,0,0
1,note_on,52,62,24
1,note_on,60,62,0
1,note_on,64,74,0
1,note_on,64,0,480
1,note_on,60,0,0
1,note_on,52,0,0
1,note_on,60,60,0
1,note_on,65,71,0
1,note_on,53,60,0
1,note_on,53,0,120
1,note_on,65,0,0
1,note_on,60,0,0
1,note_on,67,75,120
1,note_on,55,63,0
1,note_on,60,63,0
1,note_on,60,0,120
1,note_on,55,0,0
1,note_on,67,0,0
1,note_on,60,66,120
1,note_on,57,66,0
1,note_on,69,78,0
1,note_on,69,0,120
1,note_on,57,0,0
1,note_on,60,0,0
1,note_on,67,74,360
1,note_on,55,62,0
1,note_on,60,62,0
1,note_on,60,0,120
1,note_on,55,0,0
1,note_on,67,0,0
1,note_on,60,59,1080
1,note_on,52,59,0
1,note_on,64,70,0
1,note_on,64,0,216
1,note_on,52,0,0
1,note_on,60,0,0
1,note_on,64,77,24
1,note_on,60,65,0
1,note_on,52,65,0
1,note_on,52,0,480
1,note_on,60,0,0
1,note_on,64,0,0
1,note_on,65,77,0
1,note_on,60,65,0
1,note_on,53,65,0
1,note_on,53,0,120
1,note_on,60,0,0
1,note_on,65,0,0
1,note_on,55,68,120
1,note_on,60,68,0
1,note_on,67,80,0
1,note_on,67,0,120
1,note_on,60,0,0
1,note_on,55,0,0
1,note_on,69,83,120
1,note_on,57,70,0
1,note_on,60,70,0
1,note_on,60,0,480
1,note_on,57,0,0
1,note_on,69,0,0
1,note_on,67,81,0
1,note_on,60,68,0
1,note_on,55,68,0
1,note_on,55,0,120
1,note_on,60,0,0
1,note_on,67,0,0
1,note_on,69,83,120
1,note_on,60,70,0
1,note_on,57,70,0
1,note_on,57,0,120
1,note_on,60,0,0
1,note_on,69,0,0
1,note_on,60,72,120
1,note_on,70,85,0
1,note_on,58,72,0
1,note_on,58,0,120
1,note_on,70,0,0
1,note_on,60,0,0
1,note_on,57,68,360
1,note_on,69,81,0
1,note_on,60,68,0
1,note_on,60,0,120
1,note_on,69,0,0
1,note_on,57,0,0
1,note_on,67,71,840
1,note_on,55,60,0
1,note_on,60,60,0
1,note_on,60,0,120
1,note_on,55,0,0
1,note_on,67,0,0
1,note_on,60,63,120
1,note_on,69,75,0
1,note_on,57,63,0
1,note_on,57,0,120
1,note_on,69,0,0
1,note_on,60,0,0
1,note_on,65,66,120
1,note_on,71,78,0
1,note_on,59,66,0
1,note_on,59,0,120
1,note_on,71,0,0
1,note_on,65,0,0
1,note_on,64,68,360
1,note_on,72,80,0
1,note_on,60,68,0
1,note_on,60,0,120
1,note_on,72,0,0
1,note_on,64,0,0
1,note_on,67,69,360
1,note_on,74,82,0
1,note_on,62,69,0
1,note_on,62,0,120
1,note_on,74,0,0
1,note_on,67,0,0
1,note_on,64,71,360
1,note_on,76,84,0
1,note_on,67,71,0
1,note_on,67,0,120
1,note_on,76,0,0
1,note_on,64,0,0
1,note_on,78,78,360
1,note_on,72,72,0
1,note_on,74,72,0
1,note_on,78,0,80
1,note_on,79,73,0
1,note_on,79,0,80
1,note_on,78,80,0
1,note_on,78,0,80
1,note_on,79,75,0
1,note_on,79,0,80
1,note_on,78,82,0
1,note_on,78,0,80
1,note_on,79,78,0
1,note_on,79,0,80
1,note_on,78,84,0
1,note_on,78,0,80
1,note_on,79,81,0
1,note_on,79,0,80
1,note_on,78,86,0
1,note_on,78,0,80
1,note_on,79,84,0
1,note_on,79,0,60
1,note_on,78,89,0
1,note_on,78,0,60
1,note_on,76,84,0
1,note_on,76,0,60
1,note_on,78,85,0
1,note_on,78,0,60
1,note_on,74,0,0
1,note_on,72,0,0
1,note_on,71,79,0
1,note_on,79,93,0
1,note_on,79,0,480
1,note_on,71,0,0
1,note_on,74,83,0
1,note_on,74,0,120
1,note_on,78,75,120
1,note_on,78,0,120
1,note_on,79,83,120
1,note_on,79,0,120
1,note_on,62,66,360
1,note_on,62,0,120
1,note_on,66,60,120
1,note_on,66,0,120
1,note_on,67,66,120
1,note_on,67,0,120
1,note_on,50,69,360
1,note_on,50,0,120
1,note_on,54,61,120
1,note_on,54,0,120
1,note_on,55,64,120
1,note_on,55,0,160
1,note_on,59,57,0
1,note_on,59,0,160
1,note_on,60,57,0
1,note_on,60,0,160
1,note_on,62,66,0
1,note_on,62,0,160
1,note_on,64,59,0
1,note_on,64,0,160
1,note_on,66,59,0
1,note_on,66,0,160
1,note_on,67,67,0
1,note_on,67,0,120
1,note_on,70,69,0
1,note_on,70,0,120
1,note_on,72,71,0
1,note_on,72,0,120
1,note_on,74,73,0
1,note_on,74,0,120
1,note_on,76,75,0
1,note_on,76,0,120
1,note_on,78,77,0
1,note_on,78,0,120
1,note_on,79,79,0
1,note_on,79,0,120
1,note_on,81,84,0
1,note_on,81,0,120
1,note_on,74,67,90
1,note_on,77,67,0
1,note_on,82,80,0
1,note_on,70,67,0
1,note_on,70,0,630
1,note_on,74,0,0
1,note_on,77,0,0
1,note_on,82,0,0
1,note_on,74,80,0
1,note_on,70,67,0
1,note_on,62,67,0
1,note_on,62,0,216
1,note_on,70,0,0
1,note_on,74,0,0
1,note_on,62,71,24
1,note_on,70,71,0
1,note_on,74,85,0
1,note_on,74,0,480
1,note_on,70,0,0
1,note_on,62,0,0
1,note_on,70,69,0
1,note_on,75,81,0
1,note_on,63,69,0
1,note_on,63,0,120
1,note_on,75,0,0
1,note_on,70,0,0
1,note_on,65,72,120
1,note_on,70,72,0
1,note_on,77,86,0
1,note_on,77,0,120
1,note_on,70,0,0
1,note_on,65,0,0
1,note_on,67,75,120
1,note_on,70,75,0
1,note_on,79,89,0
1,note_on,79,0,120
1,note_on,70,0,0
1,note_on,67,0,0
1,note_on,77,85,360
1,note_on,65,71,0
1,note_on,70,71,0
1,note_on,70,0,120
1,note_on,65,0,0
1,note_on,77,0,0
1,note_on,74,80,1080
1,note_on,70,67,0
1,note_on,62,67,0
1,note_on,62,0,216
1,note_on,70,0,0
1,note_on,74,0,0
1,note_on,70,74,24
1,note_on,74,88,0
1,note_on,62,74,0
1,note_on,62,0,480
1,note_on,74,0,0
1,note_on,70,0,0
1,note_on,75,88,0
1,note_on,70,74,0
1,note_on,63,74,0
1,note_on,63,0,120
1,note_on,70,0,0
1,note_on,75,0,0
1,note_on,70,78,120
1,note_on,77,92,0
1,note_on,65,78,0
1,note_on,65,0,120
1,note_on,77,0,0
1,note_on,70,0,0
1,note_on,79,95,120
1,note_on,67,80,0
1,note_on,70,80,0
1,note_on,70,0,480
1,note_on,67,0,0
1,note_on,79,0,0
1,note_on,70,78,0
1,note_on,65,78,0
1,note_on,77,93,0
1,note_on,77,0,120
1,note_on,65,0,0
1,note_on,70,0,0
1,note_on,67,80,120
1,note_on,70,80,0
1,note_on,79,95,0
1,note_on,79,0,120
1,note_on,70,0,0
1,note_on,67,0,0
1,note_on,70,82,120
1,note_on,68,82,0
1,note_on,80,97,0
1,note_on,80,0,120
1,note_on,68,0,0
1,note_on,70,0,0
1,note_on,79,93,360
1,note_on,70,78,0
1,note_on,67,78,0
1,note_on,67,0,120
1,note_on,70,0,0
1,note_on,79,0,0
1,note_on,77,81,840
1,note_on,70,69,0
1,note_on,65,69,0
1,note_on,65,0,120
1,note_on,70,0,0
1,note_on,77,0,0
1,note_on,67,72,120
1,note_on,79,86,0
1,note_on,70,72,0
1,note_on,70,0,120
1,note_on,79,0,0
1,note_on,67,0,0
1,note_on,83,89,120
1,note_on,79,75,0
1,note_on,71,75,0
1,note_on,71,0,120
1,note_on,79,0,0
1,note_on,83,0,0
1,note_on,79,78,360
1,note_on,72,78,0
1,note_on,84,92,0
1,note_on,84,0,120
1,note_on,72,0,0
1,note_on,79,0,0
1,note_on,74,79,360
1,note_on,79,79,0
1,note_on,86,94,0
1,note_on,86,0,120
1,note_on,79,0,0
1,note_on,74,0,0
1,note_on,87,96,360
1,note_on,75,81,0
1,note_on,79,81,0
1,note_on,79,0,120
1,note_on,75,0,0
1,note_on,87,0,0
1,note_on,77,81,360
1,note_on,84,81,0
1,note_on,89,96,0
1,note_on,89,0,120
1,note_on,84,0,0
1,note_on,77,0,0
1,note_on,78,89,360
1,note_on,86,89,0
1,note_on,84,89,0
1,note_on,90,105,0
1,note_on,86,0,940
1,note_on,84,0,9
1,note_on,78,0,11
1,note_on,90,0,0
1,note_on,86,89,0
1,note_on,79,89,0
1,note_on,91,105,0
1,note_on,84,89,0
1,note_on,84,0,940
1,note_on,86,0,0
1,note_on,91,0,20
1,note_on,79,0,0
1,note_on,93,105,0
1,note_on,81,89,0
1,note_on,86,89,0
1,note_on,84,89,0
1,note_on,84,0,940
1,note_on,93,0,0
1,note_on,81,0,0
1,note_on,86,0,0
1,note_on,86,89,20
1,note_on,84,89,0
1,note_on,81,89,0
1,note_on,93,105,0
1,note_on,93,0,720
1,note_on,86,0,0
1,note_on,84,0,0
1,note_on,81,0,0
1,note_on,83,70,0
1,note_on,79,70,0
1,note_on,91,83,0
1,note_on,91,0,120
1,note_on,79,0,0
1,note_on,83,0,0
1,note_on,89,88,120
1,note_on,77,74,0
1,note_on,77,0,120
1,note_on,89,0,0
1,note_on,74,63,120
1,note_on,86,75,0
1,note_on,86,0,120
1,note_on,74,0,0
1,note_on,83,87,120
1,note_on,71,73,0
1,note_on,71,0,120
1,note_on,83,0,0
1,note_on,67,59,120
1,note_on,79,70,0
1,note_on,79,0,120
1,note_on,67,0,0
1,note_on,65,70,120
1,note_on,77,83,0
1,note_on,77,0,120
1,note_on,65,0,0
1,note_on,74,68,120
1,note_on,62,57,0
1,note_on,62,0,120
1,note_on,74,0,0
1,note_on,64,68,120
1,note_on,72,80,0
1,note_on,60,68,0
1,note_on,60,0,720
1,note_on,72,0,0
1,note_on,64,0,0
1,note_on,60,40,960
1,note_on,60,0,216
1,note_on,60,48,24
1,note_on,60,0,480
1,note_on,62,41,0
1,note_on,62,0,120
1,note_on,64,46,120
1,note_on,64,0,120
1,note_on,65,51,120
1,note_on,65,0,460
1,note_on,65,45,20
1,note_on,65,0,216
1,note_on,67,46,24
1,note_on,65,37,0
1,note_on,67,0,216
1,note_on,65,0,24
1,note_on,67,49,0
1,note_on,67,0,480
1,note_on,69,45,0
1,note_on,69,0,120
1,note_on,79,51,120
1,note_on,71,45,0
1,note_on,71,0,120
1,note_on,79,0,120
1,note_on,79,55,0
1,note_on,72,49,0
1,note_on,72,0,480
1,note_on,74,47,0
1,note_on,74,0,120
1,note_on,79,0,100
1,note_on,79,55,20
1,note_on,76,55,0
1,note_on,76,0,120
1,note_on,79,0,100
1,note_on,77,53,20
1,note_on,79,62,0
1,note_on,79,0,240
1,note_on,78,53,0
1,note_on,78,0,240
1,note_on,81,63,0
1,note_on,81,0,120
1,note_on,77,0,120
1,note_on,79,54,0
1,note_on,76,45,0
1,note_on,79,0,120
1,note_on,76,0,120
1,note_on,76,50,0
1,note_on,79,59,0
1,note_on,79,0,240
1,note_on,78,50,0
1,note_on,78,0,240
1,note_on,81,59,0
1,note_on,81,0,120
1,note_on,76,0,120
1,note_on,79,50,0
1,note_on,72,42,0
1,note_on,79,0,120
1,note_on,72,0,120
1,note_on,73,55,0
1,note_on,82,65,0
1,note_on,82,0,480
1,note_on,73,0,0
1,note_on,74,50,0
1,note_on,81,59,0
1,note_on,81,0,120
1,note_on,74,0,0
1,note_on,62,40,1080
1,note_on,62,0,216
1,note_on,62,48,24
1,note_on,62,0,480
1,note_on,64,41,0
1,note_on,64,0,120
1,note_on,65,46,120
1,note_on,65,0,120
1,note_on,67,51,120
1,note_on,67,0,480
1,note_on,67,45,0
1,note_on,67,0,220
1,note_on,67,37,20
1,note_on,69,46,0
1,note_on,69,0,220
1,note_on,67,0,0
1,note_on,69,49,20
1,note_on,69,0,480
1,note_on,71,45,0
1,note_on,71,0,120
1,note_on,73,45,120
1,note_on,81,51,0
1,note_on,73,0,120
1,note_on,81,0,120
1,note_on,81,55,0
1,note_on,74,49,0
1,note_on,74,0,480
1,note_on,76,47,0
1,note_on,76,0,120
1,note_on,81,0,120
1,note_on,81,55,0
1,note_on,77,55,0
1,note_on,77,0,120
1,note_on,81,0,96
1,note_on,79,53,24
1,note_on,81,62,0
1,note_on,81,0,240
1,note_on,80,53,0
1,note_on,80,0,240
1,note_on,82,63,0
1,note_on,82,0,120
1,note_on,79,0,120
1,note_on,77,45,0
1,note_on,81,54,0
1,note_on,81,0,120
1,note_on,77,0,100
1,note_on,77,50,20
1,note_on,81,59,0
1,note_on,81,0,240
1,note_on,80,50,0
1,note_on,80,0,240
1,note_on,82,59,0
1,note_on,82,0,120
1,note_on,77,0,120
1,note_on,81,50,0
1,note_on,74,42,0
1,note_on,81,0,120
1,note_on,74,0,120
1,note_on,75,55,0
1,note_on,84,68,0
1,note_on,84,0,480
1,note_on,75,0,0
1,note_on,83,59,0
1,note_on,76,50,0
1,note_on,76,0,120
1,note_on,83,0,0
1,note_on,78,66,1320
1,note_on,88,78,0
1,note_on,88,0,480
1,note_on,87,69,0
1,note_on,87,0,120
1,note_on,78,0,120
1,note_on,81,68,1200
1,note_on,91,81,0
1,note_on,91,0,480
1,note_on,90,72,0
1,note_on,90,0,120
1,note_on,81,0,120
1,note_on,93,80,240
1,note_on,82,68,0
1,note_on,82,0,480
1,note_on,93,0,0
1,note_on,91,74,0
1,note_on,91,0,120
1,note_on,76,63,2280
1,note_on,64,53,0
1,note_on,64,0,480
1,note_on,76,0,0
1,note_on,75,61,0
1,note_on,75,0,120
1,note_on,73,61,120
1,note_on,73,0,120
1,note_on,71,58,120
1,note_on,81,69,0
1,note_on,81,0,480
1,note_on,71,0,0
1,note_on,80,61,0
1,note_on,80,0,120
1,note_on,78,61,120
1,note_on,78,0,120
1,note_on,83,72,120
1,note_on,76,61,0
1,note_on,83,0,480
1,note_on,81,65,0
1,note_on,81,0,120
1,note_on,80,61,120
1,note_on,80,0,120
1,note_on,76,0,120
1,note_on,78,70,0
1,note_on,76,59,0
1,note_on,78,0,240
1,note_on,79,61,0
1,note_on,79,0,216
1,note_on,76,0,24
1,note_on,76,53,0
1,note_on,79,63,0
1,note_on,79,0,700
1,note_on,78,67,20
1,note_on,76,0,220
1,note_on,78,0,20
1,note_on,78,70,0
1,note_on,76,59,0
1,note_on,78,0,240
1,note_on,79,64,0
1,note_on,79,0,216
1,note_on,76,0,4
1,note_on,76,54,20
1,note_on,79,64,0
1,note_on,79,0,240
1,note_on,80,61,0
1,note_on,80,0,216
1,note_on,76,0,4
1,note_on,80,70,20
1,note_on,76,59,0
1,note_on,80,0,720
1,note_on,79,60,0
1,note_on,76,0,220
1,note_on,79,0,20
1,note_on,79,62,0
1,note_on,76,52,0
1,note_on,79,0,240
1,note_on,80,64,0
1,note_on,80,0,216
1,note_on,76,0,4
1,note_on,76,56,20
1,note_on,80,66,0
1,note_on,80,0,240
1,note_on,81,68,0
1,note_on,76,0,220
1,note_on,81,0,20
1,note_on,76,62,0
1,note_on,81,74,0
1,note_on,81,0,720
1,note_on,76,0,0
1,note_on,82,69,0
1,note_on,76,58,0
1,note_on,76,0,216
1,note_on,82,0,0
1,note_on,76,65,24
1,note_on,82,77,0
1,note_on,82,0,240
1,note_on,76,0,0
1,note_on,85,68,0
1,note_on,79,57,0
1,note_on,79,0,216
1,note_on,85,0,0
1,note_on,85,70,24
1,note_on,79,59,0
1,note_on,79,0,240
1,note_on,85,0,0
1,note_on,88,70,0
1,note_on,82,70,0
1,note_on,82,0,216
1,note_on,88,0,0
1,note_on,82,75,24
1,note_on,88,75,0
1,note_on,88,0,240
1,note_on,82,0,0
1,note_on,85,62,0
1,note_on,91,73,0
1,note_on,91,0,240
1,note_on,85,0,0
1,note_on,87,68,0
1,note_on,90,80,0
1,note_on,90,0,120
1,note_on,87,0,0
1,note_on,66,80,600
1,note_on,69,72,240
1,note_on,78,85,0
1,note_on,78,0,720
1,note_on,76,80,0
1,note_on,76,0,240
1,note_on,75,84,0
1,note_on,75,0,240
1,note_on,69,0,0
1,note_on,66,0,0
1,note_on,78,83,480
1,note_on,90,90,240
1,note_on,81,76,0
1,note_on,90,0,720
1,note_on,88,85,0
1,note_on,88,0,240
1,note_on,87,95,0
1,note_on,87,0,240
1,note_on,81,0,0
1,note_on,78,0,0
1,note_on,93,99,240
1,note_on,81,84,0
1,note_on,87,84,0
1,note_on,90,84,0
1,note_on,90,0,120
1,note_on,93,0,0
1,note_on,81,0,0
1,note_on,87,0,0
1,note_on,66,77,840
1,note_on,66,0,480
1,note_on,69,83,0
1,note_on,69,0,1200
1,note_on,66,46,240
1,note_on,66,0,480
1,note_on,69,49,0
1,note_on,69,0,1200
1,note_on,66,46,240
1,note_on,66,0,480
1,note_on,69,49,0
1,note_on,69,0,960
1,note_on,71,48,0
1,note_on,71,0,720
1,note_on,72,46,0
1,note_on,72,0,216
1,note_on,72,53,24
1,note_on,72,0,960
1,note_on,71,46,0
1,note_on,71,0,480
1,note_on,74,49,240
1,note_on,74,0,240
1,note_on,77,54,0
1,note_on,77,0,960
1,note_on,76,50,0
1,note_on,76,0,720
1,note_on,71,50,0
1,note_on,71,0,240
1,note_on,74,57,0
1,note_on,74,0,960
1,note_on,72,52,0
1,note_on,72,0,480
1,note_on,72,49,480
1,note_on,72,0,940
1,note_on,72,50,20
1,note_on,74,56,720
1,note_on,74,0,240
1,note_on,76,65,0
1,note_on,76,0,480
1,note_on,72,0,0
1,note_on,76,63,480
1,note_on,79,75,0
1,note_on,79,0,1440
1,note_on,76,0,0
1,note_on,83,73,480
1,note_on,79,62,0
1,note_on,79,0,1440
1,note_on,83,0,0
1,note_on,74,69,420
1,note_on,79,73,30
1,note_on,86,76,30
1,note_on,86,0,1680
1,note_on,79,0,0
1,note_on,74,0,0
1,note_on,83,66,0
1,note_on,83,0,240
1,note_on,84,73,0
1,note_on,78,62,0
1,note_on,84,0,720
1,note_on,81,61,0
1,note_on,81,0,240
1,note_on,78,0,0
1,note_on,79,69,0
1,note_on,79,0,960
1,note_on,81,63,0
1,note_on,72,53,0
1,note_on,81,0,720
1,note_on,77,52,0
1,note_on,77,0,240
1,note_on,76,63,0
1,note_on,76,0,960
1,note_on,72,0,0
1,note_on,77,64,0
1,note_on,71,54,0
1,note_on,71,0,960
1,note_on,72,64,0
1,note_on,77,0,720
1,note_on,76,52,0
1,note_on,76,0,240
1,note_on,72,0,0
1,note_on,69,42,0
1,note_on,78,50,0
1,note_on,78,0,720
1,note_on,75,37,0
1,note_on,75,0,240
1,note_on,69,0,0
1,note_on,76,34,0
1,note_on,84,40,0
1,note_on,88,40,0
1,note_on,88,0,960
1,note_on,84,0,0
1,note_on,83,35,0
1,note_on,86,35,0
1,note_on,86,0,480
1,note_on,83,0,0
1,note_on,84,41,0
1,note_on,88,41,0
1,note_on,76,0,460
1,note_on,88,0,20
1,note_on,84,0,0
1,note_on,86,46,0
1,note_on,76,25,0
1,note_on,89,46,0
1,note_on,89,0,720
1,note_on,86,0,0
1,note_on,83,39,0
1,note_on,86,39,0
1,note_on,83,0,220
1,note_on,86,0,20
1,note_on,80,46,0
1,note_on,83,46,0
1,note_on,83,0,480
1,note_on,80,0,0
1,note_on,81,40,0
1,note_on,84,40,0
1,note_on,76,0,460
1,note_on,84,0,20
1,note_on,81,0,0
1,note_on,76,34,0
1,note_on,86,40,0
1,note_on,83,40,0
1,note_on,83,0,480
1,note_on,86,0,0
1,note_on,84,35,0
1,note_on,81,35,0
1,note_on,81,0,480
1,note_on,84,0,0
1,note_on,79,35,0
1,note_on,83,35,0
1,note_on,83,0,480
1,note_on,79,0,0
1,note_on,77,41,0
1,note_on,81,41,0
1,note_on,76,0,460
1,note_on,81,0,20
1,note_on,77,0,0
1,note_on,76,25,0
1,note_on,80,46,0
1,note_on,80,0,720
1,note_on,81,39,0
1,note_on,78,39,0
1,note_on,78,0,240
1,note_on,81,0,0
1,note_on,83,46,0
1,note_on,80,46,0
1,note_on,76,0,460
1,note_on,80,0,20
1,note_on,83,0,0
1,note_on,76,40,0
1,note_on,88,40,480
1,note_on,84,40,0
1,note_on,84,0,960
1,note_on,88,0,0
1,note_on,86,35,0
1,note_on,83,35,0
1,note_on,83,0,480
1,note_on,86,0,0
1,note_on,88,43,0
1,note_on,84,43,0
1,note_on,76,0,460
1,note_on,84,0,20
1,note_on,88,0,0
1,note_on,88,55,0
1,note_on,91,55,0
1,note_on,76,25,0
1,note_on,91,0,720
1,note_on,88,0,0
1,note_on,89,42,0
1,note_on,86,42,0
1,note_on,86,0,220
1,note_on,89,0,20
1,note_on,86,50,0
1,note_on,83,50,0
1,note_on,83,0,480
1,note_on,86,0,0
1,note_on,89,44,0
1,note_on,86,44,0
1,note_on,76,0,460
1,note_on,86,0,20
1,note_on,89,0,0
1,note_on,76,37,0
1,note_on,84,44,0
1,note_on,88,44,0
1,note_on,84,0,460
1,note_on,88,0,20
1,note_on,81,37,0
1,note_on,84,37,0
1,note_on,84,0,480
1,note_on,81,0,0
1,note_on,83,36,0
1,note_on,86,36,0
1,note_on,83,0,460
1,note_on,86,0,20
1,note_on,83,42,0
1,note_on,80,42,0
1,note_on,76,0,460
1,note_on,80,0,20
1,note_on,83,0,0
1,note_on,84,46,0
1,note_on,76,25,0
1,note_on,81,40,0
1,note_on,81,0,460
1,note_on,84,0,20
1,note_on,81,39,0
1,note_on,78,39,0
1,note_on,78,0,480
1,note_on,81,0,0
1,note_on,80,46,0
1,note_on,83,46,0
1,note_on,83,0,480
1,note_on,80,0,0
1,note_on,76,40,0
1,note_on,76,0,480
1,note_on,76,0,0
1,note_on,64,24,240
1,note_on,64,0,240
1,note_on,69,34,0
1,note_on,69,0,240
1,note_on,76,24,0
1,note_on,76,0,240
1,note_on,64,24,240
1,note_on,64,0,240
1,note_on,71,33,0
1,note_on,71,0,240
1,note_on,76,24,0
1,note_on,76,0,240
1,note_on,69,24,240
1,note_on,69,0,240
1,note_on,72,34,0
1,note_on,72,0,240
1,note_on,77,24,0
1,note_on,77,0,240
1,note_on,65,24,240
1,note_on,65,0,240
1,note_on,71,33,0
1,note_on,77,24,226
1,note_on,71,0,14
1,note_on,77,0,226
1,note_on,69,32,254
1,note_on,69,0,240
1,note_on,77,38,0
1,note_on,77,0,240
1,note_on,83,32,0
1,note_on,83,0,240
1,note_on,68,32,240
1,note_on,68,0,240
1,note_on,76,41,0
1,note_on,76,0,240
1,note_on,83,34,0
1,note_on,83,0,240
1,note_on,74,35,240
1,note_on,74,0,240
1,note_on,83,44,0
1,note_on,83,0,240
1,note_on,88,38,0
1,note_on,88,0,240
1,note_on,72,38,240
1,note_on,72,0,240
1,note_on,81,48,0
1,note_on,81,0,240
1,note_on,88,36,0
1,note_on,88,0,240
1,note_on,71,47,480
1,note_on,65,39,0
1,note_on,69,39,0
1,note_on,69,0,600
1,note_on,65,0,0
1,note_on,71,0,0
1,note_on,72,45,0
1,note_on,72,0,120
1,note_on,71,45,0
1,note_on,71,0,120
1,note_on,69,45,0
1,note_on,69,0,120
1,note_on,71,46,0
1,note_on,71,0,120
1,note_on,72,49,0
1,note_on,72,0,120
1,note_on,74,52,0
1,note_on,74,0,120
1,note_on,76,55,0
1,note_on,76,0,120
1,note_on,79,68,0
1,note_on,79,0,480
1,note_on,77,64,0
1,note_on,77,0,240
1,note_on,65,39,1680
1,note_on,71,47,0
1,note_on,68,39,0
1,note_on,68,0,600
1,note_on,71,0,0
1,note_on,65,0,0
1,note_on,72,45,0
1,note_on,72,0,120
1,note_on,71,45,0
1,note_on,71,0,120
1,note_on,70,45,0
1,note_on,70,0,120
1,note_on,71,46,0
1,note_on,71,0,120
1,note_on,72,49,0
1,note_on,72,0,120
1,note_on,74,52,0
1,note_on,74,0,120
1,note_on,76,55,0
1,note_on,76,0,120
1,note_on,79,68,0
1,note_on,79,0,480
1,note_on,77,64,0
1,note_on,77,0,240
1,note_on,74,62,240
1,note_on,84,74,0
1,note_on,84,0,480
1,note_on,82,69,0
1,note_on,82,0,240
1,note_on,74,0,0
1,note_on,62,41,2160
1,note_on,72,41,0
1,note_on,63,41,120
1,note_on,62,0,12
1,note_on,62,41,108
1,note_on,63,0,12
1,note_on,61,41,108
1,note_on,62,0,12
1,note_on,72,0,108
1,note_on,62,45,0
1,note_on,70,61,0
1,note_on,61,0,12
1,note_on,65,47,108
1,note_on,62,0,12
1,note_on,70,0,108
1,note_on,68,49,0
1,note_on,65,0,12
1,note_on,70,52,108
1,note_on,68,0,12
1,note_on,84,67,108
1,note_on,75,67,0
1,note_on,70,0,12
1,note_on,84,0,468
1,note_on,82,61,0
1,note_on,82,0,240
1,note_on,75,0,0
1,note_on,74,51,240
1,note_on,84,75,0
1,note_on,75,47,120
1,note_on,74,0,12
1,note_on,74,47,108
1,note_on,75,0,12
1,note_on,73,47,108
1,note_on,74,0,12
1,note_on,84,0,108
1,note_on,82,70,0
1,note_on,74,51,0
1,note_on,73,0,12
1,note_on,77,53,108
1,note_on,74,0,12
1,note_on,82,0,108
1,note_on,80,56,0
1,note_on,77,0,12
1,note_on,82,60,108
1,note_on,80,0,12
1,note_on,96,77,108
1,note_on,86,77,0
1,note_on,82,0,12
1,note_on,96,0,468
1,note_on,94,86,0
1,note_on,86,0,240
1,note_on,94,0,480
1,note_on,93,75,0
1,note_on,93,0,240
1,note_on,92,77,0
1,note_on,92,0,240
1,note_on,91,73,0
1,note_on,91,0,240
1,note_on,90,69,0
1,note_on,90,0,240
1,note_on,89,63,0
1,note_on,89,0,240
1,note_on,88,70,0
1,note_on,88,0,240
1,note_on,87,69,0
1,note_on,87,0,240
1,note_on,86,70,0
1,note_on,86,0,240
1,note_on,85,60,0
1,note_on,85,0,240
1,note_on,84,64,0
1,note_on,84,0,240
1,note_on,83,67,0
1,note_on,83,0,240
1,note_on,82,71,0
1,note_on,82,0,240
1,note_on,81,60,0
1,note_on,81,0,240
1,note_on,80,67,0
1,note_on,80,0,240
1,note_on,79,54,0
1,note_on,79,0,240
1,note_on,78,60,0
1,note_on,78,0,240
1,note_on,77,54,0
1,note_on,77,0,240
1,note_on,76,59,0
1,note_on,76,0,240
1,note_on,75,50,0
1,note_on,75,0,240
1,note_on,74,59,0
1,note_on,74,0,240
1,note_on,73,46,0
1,note_on,73,0,240
1,note_on,72,53,0
1,note_on,72,0,240
1,note_on,71,46,0
1,note_on,71,0,240
1,note_on,72,54,480
1,note_on,72,0,480
1,note_on,75,58,0
1,note_on,75,0,480
1,note_on,81,54,0
1,note_on,81,0,480
1,note_on,77,54,480
1,note_on,77,0,480
1,note_on,76,43,0
1,note_on,76,0,480
1,note_on,68,34,0
1,note_on,68,0,480
1,note_on,81,40,0
1,note_on,77,32,0
1,note_on,77,0,240
1,note_on,69,23,0
1,note_on,69,0,240
1,note_on,77,23,0
1,note_on,77,0,240
1,note_on,69,23,0
1,note_on,69,0,240
1,note_on,81,0,0
1,note_on,79,35,0
1,note_on,76,35,0
1,note_on,76,0,480
1,note_on,79,0,0
1,note_on,81,41,0
1,note_on,77,41,0
1,note_on,77,0,480
1,note_on,81,0,0
1,note_on,79,46,0
1,note_on,82,46,0
1,note_on,79,0,700
1,note_on,82,0,20
1,note_on,76,39,0
1,note_on,79,39,0
1,note_on,79,0,240
1,note_on,76,0,0
1,note_on,73,46,0
1,note_on,76,46,0
1,note_on,76,0,480
1,note_on,73,0,0
1,note_on,77,40,0
1,note_on,74,40,0
1,note_on,74,0,480
1,note_on,77,0,0
1,note_on,79,40,0
1,note_on,76,40,0
1,note_on,76,0,480
1,note_on,79,0,0
1,note_on,74,35,0
1,note_on,77,35,0
1,note_on,77,0,480
1,note_on,74,0,0
1,note_on,76,35,0
1,note_on,72,35,0
1,note_on,72,0,480
1,note_on,76,0,0
1,note_on,74,41,0
1,note_on,70,41,0
1,note_on,70,0,480
1,note_on,74,0,0
1,note_on,73,46,0
1,note_on,69,25,0
1,note_on,69,0,720
1,note_on,73,0,0
1,note_on,71,39,0
1,note_on,74,39,0
1,note_on,74,0,240
1,note_on,71,0,0
1,note_on,73,46,0
1,note_on,76,46,0
1,note_on,76,0,480
1,note_on,73,0,0
1,note_on,85,46,480
1,note_on,81,25,0
1,note_on,81,0,720
1,note_on,85,0,0
1,note_on,86,39,0
1,note_on,83,39,0
1,note_on,83,0,240
1,note_on,86,0,0
1,note_on,85,46,0
1,note_on,88,46,0
1,note_on,88,0,480
1,note_on,85,0,0
1,note_on,72,50,480
1,note_on,69,23,0
1,note_on,69,0,720
1,note_on,72,0,0
1,note_on,74,42,0
1,note_on,71,36,0
1,note_on,71,0,240
1,note_on,74,0,0
1,note_on,72,42,0
1,note_on,76,50,0
1,note_on,76,0,1680
1,note_on,72,0,0
1,note_on,74,40,0
1,note_on,77,48,0
1,note_on,77,0,240
1,note_on,74,0,0
1,note_on,76,46,0
1,note_on,79,57,0
1,note_on,76,0,960
1,note_on,75,51,0
1,note_on,72,27,0
1,note_on,79,0,720
1,note_on,81,62,0
1,note_on,81,0,240
1,note_on,72,0,0
1,note_on,75,0,0
1,note_on,83,60,0
1,note_on,74,50,0
1,note_on,79,50,0
1,note_on,79,0,940
1,note_on,74,0,20
1,note_on,72,26,0
1,note_on,79,58,0
1,note_on,83,0,720
1,note_on,84,62,0
1,note_on,84,0,240
1,note_on,79,0,0
1,note_on,72,0,0
1,note_on,74,56,0
1,note_on,86,67,0
1,note_on,77,56,0
1,note_on,83,56,0
1,note_on,83,0,960
1,note_on,77,0,0
1,note_on,74,0,0
1,note_on,76,31,0
1,note_on,79,70,0
1,note_on,86,0,720
1,note_on,88,74,0
1,note_on,88,0,240
1,note_on,79,0,0
1,note_on,76,0,0
1,note_on,89,73,0
1,note_on,86,73,0
1,note_on,77,61,0
1,note_on,77,0,1200
1,note_on,86,0,0
1,note_on,89,0,0
1,note_on,88,67,0
1,note_on,76,56,0
1,note_on,85,67,0
1,note_on,85,0,240
1,note_on,76,0,0
1,note_on,88,0,0
1,note_on,89,72,0
1,note_on,77,61,0
1,note_on,86,72,0
1,note_on,86,0,240
1,note_on,77,0,0
1,note_on,89,0,0
1,note_on,88,67,0
1,note_on,85,67,0
1,note_on,76,56,0
1,note_on,76,0,240
1,note_on,85,0,0
1,note_on,88,0,0
1,note_on,89,76,0
1,note_on,77,64,0
1,note_on,86,76,0
1,note_on,86,0,240
1,note_on,77,0,0
1,note_on,89,0,0
1,note_on,85,73,0
1,note_on,76,62,0
1,note_on,88,73,0
1,note_on,88,0,240
1,note_on,76,0,0
1,note_on,85,0,0
1,note_on,77,64,0
1,note_on,89,76,0
1,note_on,86,76,0
1,note_on,86,0,240
1,note_on,89,0,0
1,note_on,77,0,0
1,note_on,85,81,0
1,note_on,88,81,0
1,note_on,76,68,0
1,note_on,76,0,120
1,note_on,88,0,0
1,note_on,85,0,0
1,note_on,91,73,120
1,note_on,89,73,0
1,note_on,101,86,0
1,note_on,101,0,120
1,note_on,89,0,0
1,note_on,91,0,0
1,note_on,98,75,0
1,note_on,98,0,120
1,note_on,95,76,0
1,note_on,95,0,120
1,note_on,91,73,0
1,note_on,91,0,120
1,note_on,89,86,0
1,note_on,89,0,120
1,note_on,86,72,0
1,note_on,86,0,120
1,note_on,83,76,0
1,note_on,83,0,120
1,note_on,79,69,0
1,note_on,79,0,120
1,note_on,89,86,0
1,note_on,89,0,120
1,note_on,86,75,0
1,note_on,86,0,120
1,note_on,83,76,0
1,note_on,83,0,120
1,note_on,79,73,0
1,note_on,79,0,120
1,note_on,77,86,0
1,note_on,77,0,120
1,note_on,74,72,0
1,note_on,74,0,120
1,note_on,71,76,0
1,note_on,71,0,120
1,note_on,67,63,0
1,note_on,67,0,120
1,note_on,77,79,0
1,note_on,77,0,120
1,note_on,74,64,0
1,note_on,74,0,120
1,note_on,71,73,0
1,note_on,71,0,120
1,note_on,67,59,0
1,note_on,67,0,120
1,note_on,65,67,0
1,note_on,65,0,120
1,note_on,62,58,0
1,note_on,62,0,120
1,note_on,59,67,0
1,note_on,59,0,120
1,note_on,55,56,0
1,note_on,55,0,120
1,note_on,65,65,0
1,note_on,65,0,120
1,note_on,62,52,0
1,note_on,62,0,120
1,note_on,59,63,0
1,note_on,59,0,120
1,note_on,55,46,0
1,note_on,55,0,120
1,note_on,53,58,0
1,note_on,53,0,120
1,note_on,50,47,0
1,note_on,50,0,120
1,note_on,47,57,0
1,note_on,47,0,120
1,note_on,43,46,0
1,note_on,43,0,120
1,note_on,79,52,1920
1,note_on,79,0,960
1,note_on,77,52,0
1,note_on,77,0,480
1,note_on,79,55,0
1,note_on,79,0,480
1,note_on,80,58,0
1,note_on,80,0,720
1,note_on,77,50,0
1,note_on,77,0,240
1,note_on,74,57,0
1,note_on,74,0,480
1,note_on,75,47,0
1,note_on,75,0,480
1,note_on,74,46,0
1,note_on,77,55,0
1,note_on,77,0,480
1,note_on,74,0,0
1,note_on,72,40,0
1,note_on,75,48,0
1,note_on,75,0,480
1,note_on,72,0,0
1,note_on,70,40,0
1,note_on,74,48,0
1,note_on,74,0,480
1,note_on,70,0,0
1,note_on,72,43,0
1,note_on,68,36,0
1,note_on,68,0,480
1,note_on,72,0,0
1,note_on,71,49,0
1,note_on,71,0,720
1,note_on,69,39,0
1,note_on,72,47,0
1,note_on,72,0,240
1,note_on,69,0,0
1,note_on,74,54,0
1,note_on,71,45,0
1,note_on,71,0,480
1,note_on,74,0,0
1,note_on,75,46,480
1,note_on,79,55,0
1,note_on,79,0,720
1,note_on,75,0,0
1,note_on,74,44,0
1,note_on,77,52,0
1,note_on,77,0,720
1,note_on,74,0,0
1,note_on,75,46,0
1,note_on,79,55,0
1,note_on,79,0,480
1,note_on,75,0,0
1,note_on,82,64,0
1,note_on,75,54,0
1,note_on,82,0,720
1,note_on,80,56,0
1,note_on,80,0,240
1,note_on,75,0,0
1,note_on,74,52,0
1,note_on,77,62,0
1,note_on,77,0,456
1,note_on,74,0,0
1,note_on,77,46,24
1,note_on,80,55,0
1,note_on,80,0,480
1,note_on,77,0,0
1,note_on,79,62,0
1,note_on,75,52,0
1,note_on,75,0,456
1,note_on,79,0,0
1,note_on,75,48,24
1,note_on,72,40,0
1,note_on,72,0,456
1,note_on,75,0,0
1,note_on,77,57,24
1,note_on,74,48,0
1,note_on,74,0,456
1,note_on,77,0,0
1,note_on,74,49,24
1,note_on,71,41,0
1,note_on,71,0,480
1,note_on,74,0,0
1,note_on,75,49,0
1,note_on,72,40,0
1,note_on,72,0,240
1,note_on,67,35,0
1,note_on,67,0,240
1,note_on,72,40,0
1,note_on,72,0,240
1,note_on,67,36,0
1,note_on,67,0,240
1,note_on,75,0,0
1,note_on,68,40,0
1,note_on,73,49,0
1,note_on,68,0,240
1,note_on,65,34,0
1,note_on,65,0,240
1,note_on,68,40,0
1,note_on,68,0,240
1,note_on,65,33,0
1,note_on,65,0,240
1,note_on,73,0,0
1,note_on,71,49,0
1,note_on,67,40,0
1,note_on,67,0,240
1,note_on,59,32,0
1,note_on,59,0,240
1,note_on,67,40,0
1,note_on,67,0,240
1,note_on,59,35,0
1,note_on,59,0,240
1,note_on,71,0,0
1,note_on,67,40,0
1,note_on,67,0,240
1,note_on,59,36,0
1,note_on,59,0,240
1,note_on,55,40,0
1,note_on,55,0,480
1,note_on,72,40,0
1,note_on,75,49,0
1,note_on,72,0,319
1,note_on,67,35,1
1,note_on,67,0,320
1,note_on,72,40,0
1,note_on,72,0,320
1,note_on,75,0,0
1,note_on,73,49,0
1,note_on,68,40,0
1,note_on,68,0,319
1,note_on,65,34,1
1,note_on,65,0,320
1,note_on,68,40,0
1,note_on,68,0,320
1,note_on,73,0,0
1,note_on,71,49,0
1,note_on,67,40,0
1,note_on,67,0,319
1,note_on,59,32,1
1,note_on,59,0,320
1,note_on,67,40,0
1,note_on,67,0,320
1,note_on,71,0,0
1,note_on,55,40,0
1,note_on,55,0,240
1,note_on,75,62,720
1,note_on,82,73,0
1,note_on,70,62,0
1,note_on,70,0,216
1,note_on,82,0,0
1,note_on,75,0,0
1,note_on,70,59,24
1,note_on,82,70,0
1,note_on,75,59,0
1,note_on,75,0,456
1,note_on,82,0,0
1,note_on,70,0,0
1,note_on,75,58,24
1,note_on,70,58,0
1,note_on,82,68,0
1,note_on,82,0,456
1,note_on,70,0,0
1,note_on,75,0,0
1,note_on,80,73,24
1,note_on,82,73,0
1,note_on,70,62,0
1,note_on,74,62,0
1,note_on,74,0,456
1,note_on,80,0,0
1,note_on,82,0,0
1,note_on,70,0,0
1,note_on,70,58,24
1,note_on,82,69,0
1,note_on,79,69,0
1,note_on,75,58,0
1,note_on,75,0,456
1,note_on,70,0,0
1,note_on,82,0,0
1,note_on,79,0,0
1,note_on,70,58,24
1,note_on,77,58,0
1,note_on,82,69,0
1,note_on,74,58,0
1,note_on,74,0,456
1,note_on,70,0,0
1,note_on,77,0,0
1,note_on,82,0,0
1,note_on,74,56,24
1,note_on,70,56,0
1,note_on,80,67,0
1,note_on,82,67,0
1,note_on,82,0,456
1,note_on,74,0,0
1,note_on,70,0,0
1,note_on,80,0,0
1,note_on,77,63,24
1,note_on,70,63,0
1,note_on,82,75,0
1,note_on,80,75,0
1,note_on,80,0,456
1,note_on,77,0,0
1,note_on,70,0,0
1,note_on,82,0,0
1,note_on,79,66,24
1,note_on,75,56,0
1,note_on,82,66,0
1,note_on,70,56,0
1,note_on,70,0,456
1,note_on,79,0,0
1,note_on,75,0,0
1,note_on,82,0,0
1,note_on,80,86,24
1,note_on,74,73,0
1,note_on,82,86,0
1,note_on,86,86,0
1,note_on,86,0,456
1,note_on,80,0,0
1,note_on,74,0,0
1,note_on,82,0,0
1,note_on,75,72,24
1,note_on,82,72,0
1,note_on,87,86,0
1,note_on,79,72,0
1,note_on,79,0,456
1,note_on,75,0,0
1,note_on,82,0,0
1,note_on,87,0,0
1,note_on,80,77,24
1,note_on,77,77,0
1,note_on,89,91,0
1,note_on,82,77,0
1,note_on,82,0,456
1,note_on,80,0,0
1,note_on,77,0,0
1,note_on,89,0,0
1,note_on,87,95,24
1,note_on,79,80,0
1,note_on,91,95,0
1,note_on,91,0,240
1,note_on,79,0,0
1,note_on,87,0,0
1,note_on,89,100,0
1,note_on,92,100,0
1,note_on,80,85,0
1,note_on,86,85,0
1,note_on,86,0,216
1,note_on,89,0,0
1,note_on,92,0,0
1,note_on,80,0,0
1,note_on,80,81,24
1,note_on,92,95,0
1,note_on,89,95,0
1,note_on,86,81,0
1,note_on,86,0,456
1,note_on,80,0,0
1,note_on,92,0,0
1,note_on,89,0,0
1,note_on,80,80,24
1,note_on,89,95,0
1,note_on,92,95,0
1,note_on,86,80,0
1,note_on,86,0,456
1,note_on,80,0,0
1,note_on,89,0,0
1,note_on,92,0,0
1,note_on,86,83,24
1,note_on,80,83,0
1,note_on,92,98,0
1,note_on,89,98,0
1,note_on,89,0,456
1,note_on,86,0,0
1,note_on,80,0,0
1,note_on,92,0,0
1,note_on,86,85,24
1,note_on,81,85,0
1,note_on,93,100,0
1,note_on,89,100,0
1,note_on,89,0,180
1,note_on,86,0,0
1,note_on,81,0,0
1,note_on,93,0,0
1,note_on,94,112,60
1,note_on,86,92,0
1,note_on,82,92,0
1,note_on,89,92,0
1,note_on,89,0,940
1,note_on,94,0,0
1,note_on,86,0,0
1,note_on,82,0,0
1,note_on,89,80,20
1,note_on,92,95,0
1,note_on,86,80,0
1,note_on,80,80,0
1,note_on,80,0,480
1,note_on,89,0,0
1,note_on,92,0,0
1,note_on,86,0,0
1,note_on,89,85,0
1,note_on,94,101,0
1,note_on,82,85,0
1,note_on,86,85,0
1,note_on,86,0,480
1,note_on,89,0,0
1,note_on,94,0,0
1,note_on,82,0,0
1,note_on,87,90,0
1,note_on,92,90,0
1,note_on,83,90,0
1,note_on,95,108,0
1,note_on,92,0,700
1,note_on,87,0,20
1,note_on,83,0,0
1,note_on,95,0,0
1,note_on,80,81,0
1,note_on,92,96,0
1,note_on,92,0,240
1,note_on,80,0,0
1,note_on,75,88,0
1,note_on,87,104,0
1,note_on,87,0,480
1,note_on,75,0,0
1,note_on,87,83,0
1,note_on,83,83,0
1,note_on,95,98,0
1,note_on,92,83,0
1,note_on,92,0,456
1,note_on,87,0,0
1,note_on,83,0,0
1,note_on,95,0,0
1,note_on,84,92,24
1,note_on,96,112,0
1,note_on,92,92,0
1,note_on,87,92,7
1,note_on,92,0,953
1,note_on,84,0,0
1,note_on,96,0,0
1,note_on,94,95,0
1,note_on,82,80,0
1,note_on,87,80,0
1,note_on,87,0,7
1,note_on,94,0,449
1,note_on,82,0,0
1,note_on,87,0,0
1,note_on,87,85,24
1,note_on,92,85,0
1,note_on,84,85,0
1,note_on,96,101,0
1,note_on,96,0,456
1,note_on,87,0,0
1,note_on,92,0,0
1,note_on,84,0,0
1,note_on,85,90,24
1,note_on,92,90,0
1,note_on,97,108,0
1,note_on,92,0,700
1,note_on,97,0,20
1,note_on,85,0,0
1,note_on,92,96,0
1,note_on,80,81,0
1,note_on,80,0,240
1,note_on,92,0,0
1,note_on,77,88,0
1,note_on,89,104,0
1,note_on,89,0,480
1,note_on,77,0,0
1,note_on,97,98,0
1,note_on,92,83,0
1,note_on,85,83,0
1,note_on,85,0,456
1,note_on,92,0,0
1,note_on,97,0,0
1,note_on,95,88,24
1,note_on,86,88,0
1,note_on,92,88,0
1,note_on,98,104,0
1,note_on,98,0,960
1,note_on,95,0,0
1,note_on,86,0,0
1,note_on,92,0,0
1,note_on,92,89,0
1,note_on,95,89,0
1,note_on,96,105,0
1,note_on,84,89,0
1,note_on,84,0,456
1,note_on,92,0,0
1,note_on,95,0,0
1,note_on,96,0,0
1,note_on,95,92,24
1,note_on,92,92,0
1,note_on,86,92,0
1,note_on,98,109,0
1,note_on,98,0,456
1,note_on,95,0,0
1,note_on,92,0,0
1,note_on,86,0,0
1,note_on,93,97,24
1,note_on,89,97,0
1,note_on,101,115,0
1,note_on,96,97,0
1,note_on,96,0,120
1,note_on,93,0,0
1,note_on,89,0,0
1,note_on,101,0,0
1,note_on,99,97,120
1,note_on,87,82,0
1,note_on,87,0,120
1,note_on,99,0,0
1,note_on,96,97,120
1,note_on,84,82,0
1,note_on,84,0,120
1,note_on,96,0,0
1,note_on,93,98,120
1,note_on,81,83,0
1,note_on,81,0,120
1,note_on,93,0,0
1,note_on,90,106,120
1,note_on,78,106,0
1,note_on,78,0,120
1,note_on,90,0,0
1,note_on,75,78,120
1,note_on,87,92,0
1,note_on,87,0,120
1,note_on,75,0,0
1,note_on,84,93,120
1,note_on,72,79,0
1,note_on,72,0,120
1,note_on,84,0,0
1,note_on,81,93,120
1,note_on,69,79,0
1,note_on,69,0,120
1,note_on,81,0,0
1,note_on,66,77,120
1,note_on,78,91,0
1,note_on,78,0,120
1,note_on,66,0,0
1,note_on,63,70,120
1,note_on,75,83,0
1,note_on,75,0,120
1,note_on,63,0,0
1,note_on,72,83,120
1,note_on,60,70,0
1,note_on,60,0,120
1,note_on,72,0,0
1,note_on,69,72,120
1,note_on,57,61,0
1,note_on,57,0,120
1,note_on,69,0,0
1,note_on,54,68,120
1,note_on,66,80,0
1,note_on,66,0,120
1,note_on,54,0,0
1,note_on,63,79,120
1,note_on,51,67,0
1,note_on,51,0,120
1,note_on,63,0,0
1,note_on,60,77,120
1,note_on,48,65,0
1,note_on,48,0,120
1,note_on,60,0,0
1,note_on,42,63,120
1,note_on,54,75,0
1,note_on,54,0,120
1,note_on,42,0,0
1,note_on,48,68,120
1,note_on,60,81,0
1,note_on,55,68,0
1,note_on,55,0,212
1,note_on,55,60,28
1,note_on,60,0,238
1,note_on,60,65,2
1,note_on,63,58,240
1,note_on,63,0,240
1,note_on,48,0,0
1,note_on,55,0,0
1,note_on,60,0,0
1,note_on,66,62,0
1,note_on,66,0,240
1,note_on,67,64,0
1,note_on,67,0,240
1,note_on,72,67,0
1,note_on,72,0,240
1,note_on,75,69,0
1,note_on,75,0,240
1,note_on,78,72,0
1,note_on,78,0,240
1,note_on,79,65,0
1,note_on,79,0,240
1,note_on,75,81,240
1,note_on,79,81,0
1,note_on,87,96,0
1,note_on,87,0,216
1,note_on,79,0,0
1,note_on,75,0,0
1,note_on,79,85,24
1,note_on,87,101,0
1,note_on,75,85,0
1,note_on,75,0,480
1,note_on,87,0,0
1,note_on,79,0,0
1,note_on,77,80,0
1,note_on,74,80,0
1,note_on,86,95,0
1,note_on,86,0,120
1,note_on,74,0,0
1,note_on,77,0,0
1,note_on,84,95,120
1,note_on,72,80,0
1,note_on,75,80,0
1,note_on,75,0,120
1,note_on,72,0,0
1,note_on,84,0,0
1,note_on,67,69,360
1,note_on,67,0,240
1,note_on,73,74,0
1,note_on,73,0,240
1,note_on,76,66,0
1,note_on,76,0,240
1,note_on,78,71,0
1,note_on,78,0,240
1,note_on,79,73,0
1,note_on,79,0,240
1,note_on,84,77,0
1,note_on,84,0,240
1,note_on,88,79,0
1,note_on,88,0,240
1,note_on,90,82,0
1,note_on,90,0,240
1,note_on,91,74,0
1,note_on,91,0,240
1,note_on,79,81,240
1,note_on,88,96,0
1,note_on,76,81,0
1,note_on,76,0,216
1,note_on,88,0,0
1,note_on,79,0,0
1,note_on,79,85,24
1,note_on,88,101,0
1,note_on,76,85,0
1,note_on,76,0,480
1,note_on,88,0,0
1,note_on,79,0,0
1,note_on,74,80,0
1,note_on,86,95,0
1,note_on,77,80,0
1,note_on,77,0,120
1,note_on,86,0,0
1,note_on,74,0,0
1,note_on,76,80,120
1,note_on,85,95,0
1,note_on,73,80,0
1,note_on,73,0,120
1,note_on,85,0,0
1,note_on,76,0,0
1,note_on,65,62,360
1,note_on,65,0,240
1,note_on,68,62,0
1,note_on,68,0,240
1,note_on,77,81,0
1,note_on,80,81,0
1,note_on,89,96,0
1,note_on,89,0,216
1,note_on,80,0,0
1,note_on,77,0,0
1,note_on,89,101,24
1,note_on,80,85,0
1,note_on,77,85,0
1,note_on,77,0,480
1,note_on,80,0,0
1,note_on,89,0,0
1,note_on,76,80,0
1,note_on,88,95,0
1,note_on,79,80,0
1,note_on,79,0,120
1,note_on,88,0,0
1,note_on,76,0,0
1,note_on,86,95,120
1,note_on,74,80,0
1,note_on,77,80,0
1,note_on,77,0,120
1,note_on,74,0,0
1,note_on,86,0,0
1,note_on,84,81,120
1,note_on,89,81,0
1,note_on,96,96,0
1,note_on,92,96,0
1,note_on,92,0,480
1,note_on,84,0,0
1,note_on,89,0,0
1,note_on,96,0,0
1,note_on,91,91,0
1,note_on,87,77,0
1,note_on,79,77,0
1,note_on,79,0,120
1,note_on,87,0,0
1,note_on,91,0,0
1,note_on,86,77,120
1,note_on,77,77,0
1,note_on,89,91,0
1,note_on,89,0,120
1,note_on,77,0,0
1,note_on,86,0,0
1,note_on,96,81,120
1,note_on,92,81,0
1,note_on,89,81,0
1,note_on,101,96,0
1,note_on,101,0,456
1,note_on,96,0,0
1,note_on,92,0,0
1,note_on,89,0,0
1,note_on,89,77,24
1,note_on,92,77,0
1,note_on,96,91,0
1,note_on,84,77,0
1,note_on,84,0,120
1,note_on,89,0,0
1,note_on,92,0,0
1,note_on,96,0,0
1,note_on,95,91,120
1,note_on,89,77,0
1,note_on,83,77,0
1,note_on,92,77,0
1,note_on,92,0,120
1,note_on,95,0,0
1,note_on,89,0,0
1,note_on,83,0,0
1,note_on,89,74,120
1,note_on,96,74,0
1,note_on,101,88,0
1,note_on,92,74,0
1,note_on,92,0,456
1,note_on,89,0,0
1,note_on,96,0,0
1,note_on,101,0,0
1,note_on,96,83,24
1,note_on,87,83,0
1,note_on,99,83,0
1,note_on,99,0,240
1,note_on,87,0,0
1,note_on,96,0,0
1,note_on,98,83,0
1,note_on,95,83,0
1,note_on,86,70,0
1,note_on,86,0,240
1,note_on,95,0,0
1,note_on,98,0,0
1,note_on,84,70,0
1,note_on,93,83,0
1,note_on,96,83,0
1,note_on,96,0,240
1,note_on,93,0,0
1,note_on,84,0,0
1,note_on,91,83,0
1,note_on,95,83,0
1,note_on,83,70,0
1,note_on,83,0,240
1,note_on,95,0,0
1,note_on,91,0,0
1,note_on,81,70,0
1,note_on,93,83,0
1,note_on,89,83,0
1,note_on,89,0,240
1,note_on,93,0,0
1,note_on,81,0,0
1,note_on,89,83,0
1,note_on,80,70,0
1,note_on,92,83,0
1,note_on,92,0,240
1,note_on,80,0,0
1,note_on,89,0,0
1,note_on,78,77,0
1,note_on,90,91,0
1,note_on,90,0,240
1,note_on,78,0,0
1,note_on,91,86,0
1,note_on,79,73,0
1,note_on,79,0,240
1,note_on,91,0,0
1,note_on,83,80,240
1,note_on,80,80,0
1,note_on,92,95,0
1,note_on,86,80,0
1,note_on,86,0,228
1,note_on,83,0,0
1,note_on,80,0,0
1,note_on,92,0,0
1,note_on,83,90,12
1,note_on,80,90,0
1,note_on,92,106,0
1,note_on,86,90,0
1,note_on,86,0,480
1,note_on,83,0,0
1,note_on,80,0,0
1,note_on,92,0,0
1,note_on,79,73,0
1,note_on,91,87,0
1,note_on,91,0,120
1,note_on,79,0,0
1,note_on,77,70,120
1,note_on,89,83,0
1,note_on,89,0,120
1,note_on,77,0,0
1,note_on,66,77,120
1,note_on,78,91,0
1,note_on,78,0,240
1,note_on,66,0,0
1,note_on,67,73,0
1,note_on,79,86,0
1,note_on,79,0,240
1,note_on,67,0,0
1,note_on,86,80,240
1,note_on,92,95,0
1,note_on,80,80,0
1,note_on,83,80,0
1,note_on,83,0,228
1,note_on,86,0,0
1,note_on,92,0,0
1,note_on,80,0,0
1,note_on,80,90,12
1,note_on,92,106,0
1,note_on,86,90,0
1,note_on,83,90,0
1,note_on,83,0,480
1,note_on,80,0,0
1,note_on,92,0,0
1,note_on,86,0,0
1,note_on,79,73,0
1,note_on,91,87,0
1,note_on,91,0,120
1,note_on,79,0,0
1,note_on,89,83,120
1,note_on,77,70,0
1,note_on,77,0,120
1,note_on,89,0,0
1,note_on,80,91,120
1,note_on,68,77,0
1,note_on,68,0,240
1,note_on,80,0,0
1,note_on,82,86,0
1,note_on,70,73,0
1,note_on,70,0,240
1,note_on,82,0,0
1,note_on,90,80,240
1,note_on,83,80,0
1,note_on,95,95,0
1,note_on,95,0,228
1,note_on,83,0,0
1,note_on,90,0,0
1,note_on,90,90,12
1,note_on,95,106,0
1,note_on,83,90,0
1,note_on,83,0,480
1,note_on,95,0,0
1,note_on,90,0,0
1,note_on,90,87,0
1,note_on,78,73,0
1,note_on,78,0,120
1,note_on,90,0,0
1,note_on,74,70,120
1,note_on,86,83,0
1,note_on,86,0,120
1,note_on,74,0,0
1,note_on,71,77,120
1,note_on,83,91,0
1,note_on,83,0,240
1,note_on,71,0,0
1,note_on,73,73,0
1,note_on,85,86,0
1,note_on,85,0,240
1,note_on,73,0,0
1,note_on,90,92,240
1,note_on,98,109,0
1,note_on,86,92,0
1,note_on,86,0,228
1,note_on,98,0,0
1,note_on,90,0,0
1,note_on,86,103,12
1,note_on,98,121,0
1,note_on,90,103,0
1,note_on,90,0,480
1,note_on,98,0,0
1,note_on,86,0,0
1,note_on,95,100,0
1,note_on,83,83,0
1,note_on,83,0,120
1,note_on,95,0,0
1,note_on,90,95,120
1,note_on,78,80,0
1,note_on,78,0,120
1,note_on,90,0,0
1,note_on,95,109,120
1,note_on,88,92,0
1,note_on,91,92,0
1,note_on,100,109,0
1,note_on,100,0,480
1,note_on,95,0,0
1,note_on,88,0,0
1,note_on,91,0,0
1,note_on,91,92,480
1,note_on,86,92,0
1,note_on,98,109,0
1,note_on,95,109,0
1,note_on,95,0,480
1,note_on,91,0,0
1,note_on,86,0,0
1,note_on,98,0,0
1,note_on,95,109,480
1,note_on,91,92,0
1,note_on,85,92,0
1,note_on,97,109,0
1,note_on,97,0,480
1,note_on,95,0,0
1,note_on,91,0,0
1,note_on,85,0,0
1,note_on,94,109,480
1,note_on,85,92,0
1,note_on,82,92,0
1,note_on,90,109,0
1,note_on,90,0,480
1,note_on,94,0,0
1,note_on,85,0,0
1,note_on,82,0,0
1,note_on,50,80,960
1,note_on,50,0,160
1,note_on,59,71,0
1,note_on,59,0,160
1,note_on,66,71,0
1,note_on,66,0,160
1,note_on,66,81,0
1,note_on,66,0,240
1,note_on,78,73,0
1,note_on,78,0,240
1,note_on,70,79,0
1,note_on,70,0,240
1,note_on,71,74,0
1,note_on,71,0,240
1,note_on,54,80,480
1,note_on,54,0,160
1,note_on,59,71,0
1,note_on,59,0,160
1,note_on,66,71,0
1,note_on,66,0,160
1,note_on,66,81,0
1,note_on,66,0,240
1,note_on,78,73,0
1,note_on,78,0,240
1,note_on,73,79,0
1,note_on,73,0,240
1,note_on,74,74,0
1,note_on,74,0,240
1,note_on,71,80,480
1,note_on,71,0,160
1,note_on,83,75,0
1,note_on,83,0,140
1,note_on,83,75,20
1,note_on,83,0,160
1,note_on,95,80,0
1,note_on,95,0,160
1,note_on,94,76,0
1,note_on,94,0,160
1,note_on,97,76,0
1,note_on,97,0,160
1,note_on,95,80,0
1,note_on,95,0,160
1,note_on,91,75,0
1,note_on,91,0,160
1,note_on,88,74,0
1,note_on,88,0,160
1,note_on,82,80,0
1,note_on,82,0,160
1,note_on,85,75,0
1,note_on,85,0,160
1,note_on,82,76,0
1,note_on,82,0,160
1,note_on,69,80,0
1,note_on,79,80,0
1,note_on,69,0,120
1,note_on,79,0,40
1,note_on,82,76,0
1,note_on,70,75,80
1,note_on,82,0,80
1,note_on,79,80,0
1,note_on,70,0,40
1,note_on,79,0,100
1,note_on,79,86,20
1,note_on,70,86,0
1,note_on,79,0,160
1,note_on,82,77,0
1,note_on,82,0,160
1,note_on,79,77,0
1,note_on,79,0,160
1,note_on,70,0,0
1,note_on,71,80,0
1,note_on,76,80,0
1,note_on,71,0,120
1,note_on,76,0,40
1,note_on,79,76,0
1,note_on,73,76,80
1,note_on,79,0,80
1,note_on,76,80,0
1,note_on,73,0,40
1,note_on,76,0,120
1,note_on,74,93,0
1,note_on,62,79,0
1,note_on,66,79,0
1,note_on,66,0,960
1,note_on,62,0,0
1,note_on,74,0,0
1,note_on,64,75,0
1,note_on,76,90,0
1,note_on,69,75,0
1,note_on,69,0,720
1,note_on,76,0,0
1,note_on,64,0,0
1,note_on,69,59,0
1,note_on,66,59,0
1,note_on,78,72,0
1,note_on,78,0,216
1,note_on,66,0,0
1,note_on,69,0,0
1,note_on,66,79,24
1,note_on,69,79,0
1,note_on,78,93,0
1,note_on,78,0,960
1,note_on,69,0,0
1,note_on,66,0,0
1,note_on,67,75,0
1,note_on,79,90,0
1,note_on,74,75,0
1,note_on,74,0,700
1,note_on,79,0,20
1,note_on,67,0,0
1,note_on,74,59,0
1,note_on,69,59,0
1,note_on,81,72,0
1,note_on,81,0,240
1,note_on,69,0,0
1,note_on,74,0,0
1,note_on,85,93,0
1,note_on,73,79,0
1,note_on,73,0,480
1,note_on,85,0,0
1,note_on,74,73,240
1,note_on,86,86,0
1,note_on,86,0,216
1,note_on,74,0,0
1,note_on,86,93,24
1,note_on,83,79,0
1,note_on,74,79,0
1,note_on,74,0,480
1,note_on,86,0,0
1,note_on,76,75,0
1,note_on,88,89,0
1,note_on,88,0,120
1,note_on,76,0,0
1,note_on,89,85,120
1,note_on,77,72,0
1,note_on,77,0,120
1,note_on,89,0,0
1,note_on,83,0,120
1,note_on,86,79,0
1,note_on,77,79,0
1,note_on,89,93,0
1,note_on,89,0,480
1,note_on,77,0,0
1,note_on,86,0,0
1,note_on,87,75,0
1,note_on,91,89,0
1,note_on,79,75,0
1,note_on,79,0,120
1,note_on,91,0,0
1,note_on,87,0,0
1,note_on,92,85,120
1,note_on,80,72,0
1,note_on,89,72,0
1,note_on,89,0,120
1,note_on,80,0,0
1,note_on,92,0,0
1,note_on,89,79,120
1,note_on,80,79,0
1,note_on,92,93,0
1,note_on,92,0,420
1,note_on,80,0,0
1,note_on,89,0,0
1,note_on,85,81,15
1,note_on,89,85,15
1,note_on,92,88,15
1,note_on,97,92,15
1,note_on,97,0,480
1,note_on,85,0,0
1,note_on,89,0,0
1,note_on,92,0,0
1,note_on,57,80,480
1,note_on,57,0,160
1,note_on,66,71,0
1,note_on,66,0,160
1,note_on,73,71,0
1,note_on,73,0,140
1,note_on,73,81,20
1,note_on,73,0,240
1,note_on,85,73,0
1,note_on,85,0,240
1,note_on,77,79,0
1,note_on,77,0,240
1,note_on,78,74,0
1,note_on,78,0,240
1,note_on,61,80,480
1,note_on,61,0,160
1,note_on,66,71,0
1,note_on,66,0,160
1,note_on,73,71,0
1,note_on,73,0,140
1,note_on,73,81,20
1,note_on,73,0,240
1,note_on,85,73,0
1,note_on,85,0,240
1,note_on,80,79,0
1,note_on,80,0,240
1,note_on,81,74,0
1,note_on,81,0,240
1,note_on,66,80,480
1,note_on,66,0,160
1,note_on,78,75,0
1,note_on,78,0,140
1,note_on,78,75,20
1,note_on,78,0,160
1,note_on,90,80,0
1,note_on,90,0,160
1,note_on,89,76,0
1,note_on,89,0,160
1,note_on,91,76,0
1,note_on,91,0,160
1,note_on,90,80,0
1,note_on,90,0,160
1,note_on,84,75,0
1,note_on,84,0,160
1,note_on,81,74,0
1,note_on,81,0,160
1,note_on,78,80,0
1,note_on,78,0,160
1,note_on,81,75,0
1,note_on,81,0,160
1,note_on,78,76,0
1,note_on,78,0,160
1,note_on,71,68,0
1,note_on,79,80,0
1,note_on,79,0,160
1,note_on,71,0,0
1,note_on,83,76,0
1,note_on,83,0,160
1,note_on,72,68,0
1,note_on,84,80,0
1,note_on,81,68,0
1,note_on,81,0,140
1,note_on,72,0,0
1,note_on,84,0,20
1,note_on,72,73,0
1,note_on,81,86,0
1,note_on,81,0,160
1,note_on,72,0,0
1,note_on,84,80,0
1,note_on,84,0,160
1,note_on,72,70,0
1,note_on,81,83,0
1,note_on,81,0,160
1,note_on,72,0,0
1,note_on,83,89,0
1,note_on,74,76,0
1,note_on,74,0,160
1,note_on,83,0,0
1,note_on,86,88,0
1,note_on,86,0,160
1,note_on,75,81,0
1,note_on,84,81,0
1,note_on,87,96,0
1,note_on,87,0,160
1,note_on,84,0,0
1,note_on,75,0,0
1,note_on,84,90,960
1,note_on,72,76,0
1,note_on,81,76,0
1,note_on,81,0,480
1,note_on,72,0,0
1,note_on,84,0,0
1,note_on,86,87,0
1,note_on,74,73,0
1,note_on,83,73,0
1,note_on,83,0,120
1,note_on,74,0,0
1,note_on,86,0,0
1,note_on,87,79,120
1,note_on,75,67,0
1,note_on,84,67,0
1,note_on,84,0,120
1,note_on,75,0,0
1,note_on,87,0,0
1,note_on,84,90,1080
1,note_on,72,76,0
1,note_on,81,76,0
1,note_on,81,0,480
1,note_on,72,0,0
1,note_on,84,0,0
1,note_on,83,73,0
1,note_on,86,87,0
1,note_on,74,73,0
1,note_on,74,0,120
1,note_on,86,0,0
1,note_on,83,0,0
1,note_on,84,67,120
1,note_on,87,79,0
1,note_on,75,67,0
1,note_on,75,0,120
1,note_on,87,0,0
1,note_on,84,0,0
1,note_on,88,50,2040
1,note_on,84,42,0
1,note_on,76,42,0
1,note_on,76,0,480
1,note_on,84,0,0
1,note_on,88,0,0
1,note_on,86,45,0
1,note_on,74,38,0
1,note_on,83,38,0
1,note_on,83,0,180
1,note_on,74,0,0
1,note_on,86,0,0
1,note_on,81,38,60
1,note_on,84,45,0
1,note_on,72,38,0
1,note_on,72,0,180
1,note_on,84,0,0
1,note_on,81,0,0
1,note_on,84,50,60
1,note_on,72,42,0
1,note_on,81,42,0
1,note_on,81,0,480
1,note_on,72,0,0
1,note_on,84,0,0
1,note_on,71,38,0
1,note_on,83,45,0
1,note_on,79,38,0
1,note_on,79,0,180
1,note_on,83,0,0
1,note_on,71,0,0
1,note_on,81,45,60
1,note_on,78,38,0
1,note_on,69,38,0
1,note_on,69,0,180
1,note_on,78,0,0
1,note_on,81,0,0
1,note_on,78,42,60
1,note_on,69,42,0
1,note_on,81,50,0
1,note_on,81,0,480
1,note_on,69,0,0
1,note_on,78,0,0
1,note_on,79,38,0
1,note_on,83,45,0
1,note_on,83,0,180
1,note_on,79,0,0
1,note_on,81,38,60
1,note_on,84,45,0
1,note_on,84,0,180
1,note_on,81,0,0
1,note_on,84,50,60
1,note_on,81,42,0
1,note_on,81,0,480
1,note_on,84,0,0
1,note_on,86,45,0
1,note_on,83,38,0
1,note_on,83,0,180
1,note_on,86,0,0
1,note_on,88,45,60
1,note_on,84,38,0
1,note_on,84,0,180
1,note_on,88,0,0
1,note_on,88,49,60
1,note_on,91,62,0
1,note_on,91,0,480
1,note_on,88,0,0
1,note_on,90,49,0
1,note_on,86,41,0
1,note_on,86,0,180
1,note_on,90,0,0
1,note_on,84,41,60
1,note_on,88,49,0
1,note_on,88,0,180
1,note_on,84,0,0
1,note_on,88,55,60
1,note_on,84,46,0
1,note_on,84,0,480
1,note_on,88,0,0
1,note_on,86,49,0
1,note_on,83,41,0
1,note_on,83,0,180
1,note_on,86,0,0
1,note_on,84,49,60
1,note_on,81,41,0
1,note_on,81,0,180
1,note_on,84,0,0
1,note_on,84,50,60
1,note_on,81,42,0
1,note_on,81,0,480
1,note_on,84,0,0
1,note_on,83,38,0
1,note_on,86,45,0
1,note_on,86,0,180
1,note_on,83,0,0
1,note_on,84,38,60
1,note_on,88,45,0
1,note_on,88,0,180
1,note_on,84,0,0
1,note_on,84,42,60
1,note_on,88,50,0
1,note_on,88,0,480
1,note_on,84,0,0
1,note_on,86,41,0
1,note_on,90,49,0
1,note_on,90,0,180
1,note_on,86,0,0
1,note_on,91,49,60
1,note_on,88,41,0
1,note_on,88,0,180
1,note_on,91,0,0
1,note_on,91,53,60
1,note_on,95,68,0
1,note_on,95,0,480
1,note_on,91,0,0
1,note_on,93,53,0
1,note_on,90,45,0
1,note_on,90,0,180
1,note_on,93,0,0
1,note_on,91,53,60
1,note_on,88,45,0
1,note_on,88,0,180
1,note_on,91,0,0
1,note_on,88,50,60
1,note_on,91,60,0
1,note_on,91,0,480
1,note_on,88,0,0
1,note_on,90,53,0
1,note_on,86,45,0
1,note_on,86,0,180
1,note_on,90,0,0
1,note_on,84,45,60
1,note_on,88,53,0
1,note_on,88,0,180
1,note_on,84,0,0
1,note_on,84,42,60
1,note_on,88,50,0
1,note_on,88,0,480
1,note_on,84,0,0
1,note_on,90,45,0
1,note_on,86,38,0
1,note_on,86,0,180
1,note_on,90,0,0
1,note_on,91,45,60
1,note_on,88,38,0
1,note_on,88,0,180
1,note_on,91,0,0
1,note_on,88,42,60
1,note_on,91,50,0
1,note_on,91,0,480
1,note_on,88,0,0
1,note_on,93,49,0
1,note_on,90,41,0
1,note_on,90,0,180
1,note_on,93,0,0
1,note_on,95,49,60
1,note_on,91,41,0
1,note_on,91,0,180
1,note_on,95,0,0
1,note_on,83,53,60
1,note_on,95,68,0
1,note_on,91,53,0
1,note_on,84,53,0
1,note_on,84,0,456
1,note_on,83,0,0
1,note_on,95,0,0
1,note_on,91,0,0
1,note_on,84,45,24
1,note_on,93,53,0
1,note_on,81,45,0
1,note_on,81,0,180
1,note_on,93,0,0
1,note_on,84,0,0
1,note_on,91,53,60
1,note_on,84,45,0
1,note_on,79,45,0
1,note_on,79,0,180
1,note_on,84,0,0
1,note_on,91,0,0
1,note_on,71,53,1020
1,note_on,79,68,0
1,note_on,72,53,0
1,note_on,76,53,0
1,note_on,76,0,456
1,note_on,71,0,0
1,note_on,79,0,0
1,note_on,72,0,0
1,note_on,69,40,24
1,note_on,78,47,0
1,note_on,72,40,0
1,note_on,72,0,180
1,note_on,78,0,0
1,note_on,69,0,0
1,note_on,69,40,60
1,note_on,76,47,0
1,note_on,67,40,0
1,note_on,72,40,0
1,note_on,72,0,180
1,note_on,69,0,0
1,note_on,76,0,0
1,note_on,67,0,0
1,note_on,95,68,1020
1,note_on,83,53,0
1,note_on,91,53,0
1,note_on,84,53,0
1,note_on,84,0,456
1,note_on,95,0,0
1,note_on,83,0,0
1,note_on,91,0,0
1,note_on,93,53,24
1,note_on,81,45,0
1,note_on,84,45,0
1,note_on,84,0,180
1,note_on,81,0,0
1,note_on,93,0,0
1,note_on,84,45,60
1,note_on,91,53,0
1,note_on,79,45,0
1,note_on,79,0,180
1,note_on,91,0,0
1,note_on,84,0,0
1,note_on,79,68,1020
1,note_on,72,53,0
1,note_on,71,53,0
1,note_on,76,53,0
1,note_on,76,0,456
1,note_on,79,0,0
1,note_on,72,0,0
1,note_on,71,0,0
1,note_on,69,40,24
1,note_on,78,47,0
1,note_on,72,40,0
1,note_on,72,0,180
1,note_on,78,0,0
1,note_on,69,0,0
1,note_on,69,40,60
1,note_on,67,40,0
1,note_on,76,47,0
1,note_on,72,40,0
1,note_on,72,0,180
1,note_on,69,0,0
1,note_on,67,0,0
1,note_on,76,0,0
1,note_on,96,53,1020
1,note_on,100,68,0
1,note_on,91,53,0
1,note_on,93,53,0
1,note_on,93,0,456
1,note_on,96,0,0
1,note_on,100,0,0
1,note_on,91,0,0
1,note_on,96,53,24
1,note_on,93,45,0
1,note_on,91,45,0
1,note_on,91,0,180
1,note_on,93,0,0
1,note_on,96,0,0
1,note_on,88,45,60
1,note_on,91,45,0
1,note_on,93,53,0
1,note_on,93,0,180
1,note_on,91,0,0
1,note_on,88,0,0
1,note_on,91,68,60
1,note_on,88,53,0
1,note_on,84,53,0
1,note_on,84,0,456
1,note_on,88,0,0
1,note_on,91,0,0
1,note_on,88,53,24
1,note_on,84,45,0
1,note_on,81,45,0
1,note_on,81,0,180
1,note_on,84,0,0
1,note_on,88,0,0
1,note_on,79,45,60
1,note_on,81,45,0
1,note_on,84,53,0
1,note_on,84,0,180
1,note_on,81,0,0
1,note_on,79,0,0
1,note_on,81,68,60
1,note_on,79,53,0
1,note_on,76,53,0
1,note_on,76,0,456
1,note_on,79,0,0
1,note_on,81,0,0
1,note_on,79,53,24
1,note_on,72,45,0
1,note_on,76,45,0
1,note_on,76,0,180
1,note_on,72,0,0
1,note_on,79,0,0
1,note_on,72,45,60
1,note_on,76,53,0
1,note_on,69,45,0
1,note_on,69,0,180
1,note_on,76,0,0
1,note_on,72,0,0
1,note_on,72,68,60
1,note_on,69,53,0
1,note_on,67,53,0
1,note_on,67,0,456
1,note_on,69,0,0
1,note_on,72,0,0
1,note_on,69,53,24
1,note_on,64,45,0
1,note_on,67,45,0
1,note_on,67,0,180
1,note_on,64,0,0
1,note_on,69,0,0
1,note_on,64,45,60
1,note_on,67,53,0
1,note_on,60,45,0
1,note_on,60,0,180
1,note_on,67,0,0
1,note_on,64,0,0
1,note_on,64,53,60
1,note_on,57,53,0
1,note_on,55,53,0
1,note_on,60,53,0
1,note_on,55,0,1920
1,note_on,54,53,0
1,note_on,64,0,960
1,note_on,62,49,0
1,note_on,62,0,960
1,note_on,54,0,0
1,note_on,57,0,0
1,note_on,60,0,0
1,note_on,71,55,0
1,note_on,71,0,960
1,note_on,72,54,0
1,note_on,72,0,720
1,note_on,74,43,0
1,note_on,74,0,216
1,note_on,74,47,24
1,note_on,79,59,0
1,note_on,79,0,960
1,note_on,74,0,0
1,note_on,73,45,0
1,note_on,81,58,0
1,note_on,73,0,480
1,note_on,81,0,240
1,note_on,76,35,0
1,note_on,83,43,0
1,note_on,83,0,216
1,note_on,76,0,0
1,note_on,79,47,24
1,note_on,83,62,0
1,note_on,83,0,960
1,note_on,79,0,0
1,note_on,81,51,0
1,note_on,78,43,0
1,note_on,78,0,480
1,note_on,81,0,0
1,note_on,72,35,240
1,note_on,84,51,0
1,note_on,84,0,240
1,note_on,72,0,0
1,note_on,70,47,0
1,note_on,88,64,0
1,note_on,88,0,960
1,note_on,70,0,0
1,note_on,86,51,0
1,note_on,71,43,0
1,note_on,71,0,480
1,note_on,86,0,0
1,note_on,67,60,480
1,note_on,67,0,960
1,note_on,69,59,0
1,note_on,69,0,720
1,note_on,71,47,0
1,note_on,71,0,216
1,note_on,71,51,24
1,note_on,76,64,0
1,note_on,76,0,960
1,note_on,71,0,0
1,note_on,70,49,0
1,note_on,78,63,0
1,note_on,70,0,480
1,note_on,78,0,240
1,note_on,76,38,0
1,note_on,79,47,0
1,note_on,79,0,216
1,note_on,76,0,0
1,note_on,79,51,24
1,note_on,83,68,0
1,note_on,83,0,960
1,note_on,79,0,0
1,note_on,82,56,0
1,note_on,78,47,0
1,note_on,78,0,480
1,note_on,82,0,0
1,note_on,73,38,240
1,note_on,88,55,0
1,note_on,88,0,240
1,note_on,73,0,0
1,note_on,76,50,0
1,note_on,85,69,0
1,note_on,85,0,960
1,note_on,76,0,0
1,note_on,86,53,0
1,note_on,74,44,0
1,note_on,74,0,480
1,note_on,86,0,0
1,note_on,69,35,960
1,note_on,69,0,160
1,note_on,81,30,0
1,note_on,81,0,140
1,note_on,81,30,20
1,note_on,81,0,160
1,note_on,93,39,0
1,note_on,93,0,160
1,note_on,92,35,0
1,note_on,92,0,160
1,note_on,95,35,0
1,note_on,95,0,160
1,note_on,93,39,0
1,note_on,93,0,160
1,note_on,90,31,0
1,note_on,90,0,160
1,note_on,81,31,0
1,note_on,81,0,160
1,note_on,69,35,480
1,note_on,69,0,160
1,note_on,81,30,0
1,note_on,81,0,140
1,note_on,81,30,20
1,note_on,81,0,160
1,note_on,93,39,0
1,note_on,93,0,160
1,note_on,92,35,0
1,note_on,92,0,160
1,note_on,95,35,0
1,note_on,95,0,160
1,note_on,93,39,0
1,note_on,93,0,160
1,note_on,90,31,0
1,note_on,90,0,160
1,note_on,81,31,0
1,note_on,81,0,160
1,note_on,69,30,0
1,note_on,66,30,0
1,note_on,66,0,945
1,note_on,69,0,15
1,note_on,62,24,0
1,note_on,66,29,0
1,note_on,66,0,720
1,note_on,62,0,0
1,note_on,57,19,0
1,note_on,64,23,0
1,note_on,64,0,240
1,note_on,57,0,0
1,note_on,66,30,0
1,note_on,69,30,0
1,note_on,66,0,940
1,note_on,69,0,20
1,note_on,62,24,0
1,note_on,66,29,0
1,note_on,66,0,720
1,note_on,62,0,0
1,note_on,57,19,0
1,note_on,64,23,0
1,note_on,64,0,240
1,note_on,57,0,0
1,note_on,69,35,480
1,note_on,69,0,160
1,note_on,81,30,0
1,note_on,81,0,140
1,note_on,81,30,20
1,note_on,81,0,160
1,note_on,93,39,0
1,note_on,93,0,160
1,note_on,92,35,0
1,note_on,92,0,160
1,note_on,95,35,0
1,note_on,95,0,160
1,note_on,93,39,0
1,note_on,93,0,160
1,note_on,90,31,0
1,note_on,90,0,160
1,note_on,81,31,0
1,note_on,81,0,160
1,note_on,69,35,480
1,note_on,69,0,160
1,note_on,81,30,0
1,note_on,81,0,140
1,note_on,81,30,20
1,note_on,81,0,160
1,note_on,93,39,0
1,note_on,93,0,160
1,note_on,92,35,0
1,note_on,92,0,160
1,note_on,95,35,0
1,note_on,95,0,160
1,note_on,93,39,0
1,note_on,93,0,160
1,note_on,88,31,0
1,note_on,88,0,160
1,note_on,81,31,0
1,note_on,81,0,160
1,note_on,73,38,480
1,note_on,73,0,160
1,note_on,85,33,0
1,note_on,85,0,140
1,note_on,85,33,20
1,note_on,85,0,160
1,note_on,95,42,0
1,note_on,95,0,160
1,note_on,94,38,0
1,note_on,94,0,160
1,note_on,97,38,0
1,note_on,97,0,160
1,note_on,95,42,0
1,note_on,95,0,160
1,note_on,91,34,0
1,note_on,91,0,160
1,note_on,88,34,0
1,note_on,88,0,160
1,note_on,73,38,480
1,note_on,73,0,160
1,note_on,85,33,0
1,note_on,85,0,140
1,note_on,85,33,20
1,note_on,85,0,160
1,note_on,95,42,0
1,note_on,95,0,160
1,note_on,94,38,0
1,note_on,94,0,160
1,note_on,97,38,0
1,note_on,97,0,160
1,note_on,95,42,0
1,note_on,95,0,160
1,note_on,91,34,0
1,note_on,91,0,160
1,note_on,88,34,0
1,note_on,88,0,160
1,note_on,73,38,480
1,note_on,73,0,160
1,note_on,85,33,0
1,note_on,85,0,140
1,note_on,85,33,20
1,note_on,85,0,160
1,note_on,94,42,0
1,note_on,94,0,160
1,note_on,93,38,0
1,note_on,93,0,160
1,note_on,96,38,0
1,note_on,96,0,160
1,note_on,94,42,0
1,note_on,94,0,160
1,note_on,91,34,0
1,note_on,91,0,160
1,note_on,88,34,0
1,note_on,88,0,160
1,note_on,85,45,160
1,note_on,85,0,160
1,note_on,96,45,0
1,note_on,96,0,160
1,note_on,94,51,0
1,note_on,94,0,160
1,note_on,91,42,0
1,note_on,91,0,160
1,note_on,88,42,0
1,note_on,88,0,160
1,note_on,85,48,160
1,note_on,85,0,160
1,note_on,96,49,0
1,note_on,96,0,160
1,note_on,94,55,0
1,note_on,94,0,160
1,note_on,91,49,0
1,note_on,91,0,160
1,note_on,88,49,0
1,note_on,88,0,160
1,note_on,94,65,0
1,note_on,94,0,160
1,note_on,91,53,0
1,note_on,91,0,160
1,note_on,88,56,0
1,note_on,88,0,160
1,note_on,94,70,0
1,note_on,94,0,160
1,note_on,91,60,0
1,note_on,91,0,160
1,note_on,88,61,0
1,note_on,88,0,160
1,note_on,94,79,0
1,note_on,94,0,160
1,note_on,91,65,0
1,note_on,91,0,160
1,note_on,88,68,0
1,note_on,88,0,160
1,note_on,94,86,0
1,note_on,94,0,160
1,note_on,91,72,0
1,note_on,91,0,160
1,note_on,88,74,0
1,note_on,88,0,160
1,note_on,82,77,0
1,note_on,94,91,0
1,note_on,94,0,160
1,note_on,82,0,0
1,note_on,91,79,0
1,note_on,91,0,160
1,note_on,88,80,0
1,note_on,88,0,160
1,note_on,82,80,0
1,note_on,94,94,0
1,note_on,94,0,160
1,note_on,82,0,0
1,note_on,91,82,0
1,note_on,91,0,160
1,note_on,88,83,0
1,note_on,88,0,160
1,note_on,82,82,0
1,note_on,94,97,0
1,note_on,94,0,160
1,note_on,82,0,0
1,note_on,91,86,0
1,note_on,91,0,160
1,note_on,88,86,0
1,note_on,88,0,160
1,note_on,82,85,0
1,note_on,94,101,0
1,note_on,94,0,160
1,note_on,82,0,0
1,note_on,91,88,0
1,note_on,91,0,160
1,note_on,88,89,0
1,note_on,88,0,160
1,note_on,82,91,0
1,note_on,88,91,0
1,note_on,91,91,0
1,note_on,94,110,0
1,note_on,94,0,720
1,note_on,82,0,0
1,note_on,88,0,0
1,note_on,91,0,0
1,note_on,58,70,0
1,note_on,64,84,0
1,note_on,52,70,0
1,note_on,60,70,0
1,note_on,60,0,216
1,note_on,58,0,0
1,note_on,64,0,0
1,note_on,52,0,0
1,note_on,58,74,24
1,note_on,52,74,0
1,note_on,64,89,0
1,note_on,60,74,0
1,note_on,60,0,480
1,note_on,58,0,0
1,note_on,52,0,0
1,note_on,64,0,0
1,note_on,65,85,0
1,note_on,53,72,0
1,note_on,60,72,0
1,note_on,60,0,120
1,note_on,53,0,0
1,note_on,65,0,0
1,note_on,55,75,120
1,note_on,60,75,0
1,note_on,67,90,0
1,note_on,67,0,120
1,note_on,60,0,0
1,note_on,55,0,0
1,note_on,69,93,120
1,note_on,60,79,0
1,note_on,57,73,0
1,note_on,57,0,120
1,note_on,60,0,0
1,note_on,69,0,0
1,note_on,60,74,360
1,note_on,55,69,0
1,note_on,67,89,0
1,note_on,67,0,120
1,note_on,55,0,0
1,note_on,60,0,0
1,note_on,58,70,1080
1,note_on,60,70,0
1,note_on,52,70,0
1,note_on,64,84,0
1,note_on,64,0,216
1,note_on,58,0,0
1,note_on,60,0,0
1,note_on,52,0,0
1,note_on,58,78,24
1,note_on,64,92,0
1,note_on,52,78,0
1,note_on,60,78,0
1,note_on,60,0,480
1,note_on,58,0,0
1,note_on,64,0,0
1,note_on,52,0,0
1,note_on,65,92,0
1,note_on,60,78,0
1,note_on,53,78,0
1,note_on,53,0,120
1,note_on,60,0,0
1,note_on,65,0,0
1,note_on,60,81,120
1,note_on,55,81,0
1,note_on,67,96,0
1,note_on,67,0,120
1,note_on,55,0,0
1,note_on,60,0,0
1,note_on,60,84,120
1,note_on,57,84,0
1,note_on,69,100,0
1,note_on,69,0,480
1,note_on,57,0,0
1,note_on,60,0,0
1,note_on,55,81,0
1,note_on,67,97,0
1,note_on,60,81,0
1,note_on,60,0,120
1,note_on,67,0,0
1,note_on,55,0,0
1,note_on,60,84,120
1,note_on,57,84,0
1,note_on,69,100,0
1,note_on,69,0,120
1,note_on,57,0,0
1,note_on,60,0,0
1,note_on,58,86,120
1,note_on,70,102,0
1,note_on,60,86,0
1,note_on,60,0,120
1,note_on,70,0,0
1,note_on,58,0,0
1,note_on,57,81,360
1,note_on,69,97,0
1,note_on,60,81,0
1,note_on,60,0,120
1,note_on,69,0,0
1,note_on,57,0,0
1,note_on,67,71,840
1,note_on,60,60,0
1,note_on,55,60,0
1,note_on,55,0,120
1,note_on,60,0,0
1,note_on,67,0,0
1,note_on,60,63,120
1,note_on,57,63,0
1,note_on,69,75,0
1,note_on,69,0,120
1,note_on,57,0,0
1,note_on,60,0,0
1,note_on,67,66,120
1,note_on,59,66,0
1,note_on,71,78,0
1,note_on,65,66,0
1,note_on,65,0,120
1,note_on,67,0,0
1,note_on,59,0,0
1,note_on,71,0,0
1,note_on,67,68,360
1,note_on,60,68,0
1,note_on,64,68,0
1,note_on,72,80,0
1,note_on,72,0,120
1,note_on,67,0,0
1,note_on,60,0,0
1,note_on,64,0,0
1,note_on,74,82,360
1,note_on,67,69,0
1,note_on,62,69,0
1,note_on,62,0,120
1,note_on,67,0,0
1,note_on,74,0,0
1,note_on,64,71,360
1,note_on,76,84,0
1,note_on,67,71,0
1,note_on,67,0,120
1,note_on,76,0,0
1,note_on,64,0,0
1,note_on,78,78,360
1,note_on,74,72,0
1,note_on,72,72,0
1,note_on,78,0,80
1,note_on,79,73,0
1,note_on,79,0,80
1,note_on,78,80,0
1,note_on,78,0,80
1,note_on,79,75,0
1,note_on,79,0,80
1,note_on,78,82,0
1,note_on,78,0,80
1,note_on,79,78,0
1,note_on,79,0,80
1,note_on,78,84,0
1,note_on,78,0,80
1,note_on,79,81,0
1,note_on,79,0,80
1,note_on,78,86,0
1,note_on,78,0,80
1,note_on,79,84,0
1,note_on,79,0,60
1,note_on,78,89,0
1,note_on,78,0,60
1,note_on,76,84,0
1,note_on,76,0,60
1,note_on,78,85,0
1,note_on,78,0,60
1,note_on,72,0,0
1,note_on,74,0,0
1,note_on,71,79,0
1,note_on,79,93,0
1,note_on,79,0,480
1,note_on,71,0,0
1,note_on,74,83,0
1,note_on,74,0,120
1,note_on,78,75,120
1,note_on,78,0,120
1,note_on,79,83,120
1,note_on,79,0,120
1,note_on,62,66,360
1,note_on,62,0,120
1,note_on,66,60,120
1,note_on,66,0,120
1,note_on,67,66,120
1,note_on,67,0,120
1,note_on,50,69,360
1,note_on,50,0,120
1,note_on,54,61,120
1,note_on,54,0,120
1,note_on,55,65,120
1,note_on,55,0,120
1,note_on,59,65,0
1,note_on,59,0,120
1,note_on,60,66,0
1,note_on,60,0,120
1,note_on,62,67,0
1,note_on,62,0,120
1,note_on,64,68,0
1,note_on,64,0,120
1,note_on,66,69,0
1,note_on,66,0,120
1,note_on,67,70,0
1,note_on,67,0,120
1,note_on,69,71,0
1,note_on,69,0,120
1,note_on,71,71,0
1,note_on,71,0,120
1,note_on,74,72,0
1,note_on,74,0,120
1,note_on,76,75,0
1,note_on,76,0,120
1,note_on,78,78,0
1,note_on,78,0,120
1,note_on,79,81,0
1,note_on,79,0,120
1,note_on,83,83,0
1,note_on,83,0,120
1,note_on,84,86,0
1,note_on,84,0,120
1,note_on,86,89,0
1,note_on,86,0,120
1,note_on,84,84,90
1,note_on,79,84,0
1,note_on,75,84,0
1,note_on,87,101,0
1,note_on,87,0,630
1,note_on,84,0,0
1,note_on,79,0,0
1,note_on,75,0,0
1,note_on,63,88,0
1,note_on,60,73,0
1,note_on,51,73,0
1,note_on,51,0,216
1,note_on,60,0,0
1,note_on,63,0,0
1,note_on,51,78,24
1,note_on,60,78,0
1,note_on,63,93,0
1,note_on,63,0,480
1,note_on,60,0,0
1,note_on,51,0,0
1,note_on,53,75,0
1,note_on,60,75,0
1,note_on,65,89,0
1,note_on,65,0,120
1,note_on,60,0,0
1,note_on,53,0,0
1,note_on,55,79,120
1,note_on,67,94,0
1,note_on,60,79,0
1,note_on,60,0,120
1,note_on,67,0,0
1,note_on,55,0,0
1,note_on,68,97,120
1,note_on,60,82,0
1,note_on,56,82,0
1,note_on,56,0,120
1,note_on,60,0,0
1,note_on,68,0,0
1,note_on,56,78,360
1,note_on,60,78,0
1,note_on,68,93,0
1,note_on,68,0,120
1,note_on,60,0,0
1,note_on,56,0,0
1,note_on,68,82,840
1,note_on,80,97,0
1,note_on,80,0,120
1,note_on,68,0,0
1,note_on,77,84,480
1,note_on,80,84,0
1,note_on,89,101,0
1,note_on,65,88,600
1,note_on,61,73,0
1,note_on,53,73,0
1,note_on,89,0,30
1,note_on,77,0,0
1,note_on,80,0,0
1,note_on,65,0,186
1,note_on,61,0,0
1,note_on,53,0,0
1,note_on,53,78,24
1,note_on,61,78,0
1,note_on,65,93,0
1,note_on,65,0,480
1,note_on,61,0,0
1,note_on,53,0,0
1,note_on,54,75,0
1,note_on,61,75,0
1,note_on,66,89,0
1,note_on,66,0,120
1,note_on,61,0,0
1,note_on,54,0,0
1,note_on,56,79,120
1,note_on,68,94,0
1,note_on,61,79,0
1,note_on,61,0,120
1,note_on,68,0,0
1,note_on,56,0,0
1,note_on,69,97,120
1,note_on,66,82,0
1,note_on,57,73,0
1,note_on,57,0,120
1,note_on,66,0,0
1,note_on,69,0,0
1,note_on,57,70,360
1,note_on,66,78,0
1,note_on,69,93,0
1,note_on,69,0,120
1,note_on,66,0,0
1,note_on,57,0,0
1,note_on,69,82,840
1,note_on,81,97,0
1,note_on,81,0,120
1,note_on,69,0,0
1,note_on,78,84,480
1,note_on,81,84,0
1,note_on,90,101,0
1,note_on,66,88,600
1,note_on,62,73,0
1,note_on,54,73,0
1,note_on,90,0,30
1,note_on,78,0,0
1,note_on,81,0,0
1,note_on,66,0,186
1,note_on,62,0,0
1,note_on,54,0,0
1,note_on,54,78,24
1,note_on,62,78,0
1,note_on,66,93,0
1,note_on,66,0,480
1,note_on,62,0,0
1,note_on,54,0,0
1,note_on,55,75,0
1,note_on,62,75,0
1,note_on,67,89,0
1,note_on,67,0,120
1,note_on,62,0,0
1,note_on,55,0,0
1,note_on,57,79,120
1,note_on,69,94,0
1,note_on,62,79,0
1,note_on,62,0,120
1,note_on,69,0,0
1,note_on,57,0,0
1,note_on,70,97,120
1,note_on,62,82,0
1,note_on,58,82,0
1,note_on,58,0,120
1,note_on,62,0,0
1,note_on,70,0,0
1,note_on,57,78,360
1,note_on,62,78,0
1,note_on,69,93,0
1,note_on,69,0,120
1,note_on,62,0,0
1,note_on,57,0,0
1,note_on,73,87,840
1,note_on,67,73,0
1,note_on,61,73,0
1,note_on,61,0,120
1,note_on,67,0,0
1,note_on,73,0,0
1,note_on,62,78,360
1,note_on,66,78,0
1,note_on,74,93,0
1,note_on,74,0,120
1,note_on,66,0,0
1,note_on,62,0,0
1,note_on,69,76,600
1,note_on,72,76,240
1,note_on,81,90,0
1,note_on,81,0,720
1,note_on,72,0,0
1,note_on,69,0,0
1,note_on,79,82,0
1,note_on,79,0,240
1,note_on,78,90,0
1,note_on,78,0,240
1,note_on,81,76,480
1,note_on,84,82,240
1,note_on,93,97,0
1,note_on,93,0,700
1,note_on,84,0,0
1,note_on,81,0,0
1,note_on,81,89,20
1,note_on,84,89,0
1,note_on,93,89,0
1,note_on,93,0,240
1,note_on,84,0,0
1,note_on,81,0,0
1,note_on,80,97,0
1,note_on,83,97,0
1,note_on,92,97,0
1,note_on,92,0,240
1,note_on,83,0,0
1,note_on,80,0,0
1,note_on,71,76,480
1,note_on,74,76,240
1,note_on,83,90,0
1,note_on,83,0,720
1,note_on,74,0,0
1,note_on,71,0,0
1,note_on,81,82,0
1,note_on,81,0,240
1,note_on,71,72,0
1,note_on,74,72,0
1,note_on,80,90,0
1,note_on,80,0,240
1,note_on,74,0,0
1,note_on,71,0,0
1,note_on,83,86,480
1,note_on,86,95,240
1,note_on,95,105,0
1,note_on,83,0,691
1,note_on,95,0,7
1,note_on,86,0,0
1,note_on,84,86,22
1,note_on,87,95,240
1,note_on,96,105,0
1,note_on,84,0,691
1,note_on,96,0,7
1,note_on,87,0,0
1,note_on,84,86,22
1,note_on,87,95,240
1,note_on,96,105,0
1,note_on,84,0,691
1,note_on,96,0,7
1,note_on,87,0,0
1,note_on,84,86,22
1,note_on,87,95,240
1,note_on,96,105,0
1,note_on,84,0,691
1,note_on,96,0,7
1,note_on,87,0,0
1,note_on,82,86,22
1,note_on,86,95,240
1,note_on,94,105,0
1,note_on,82,0,691
1,note_on,94,0,7
1,note_on,86,0,0
1,note_on,81,86,22
1,note_on,87,95,240
1,note_on,93,105,0
1,note_on,81,0,691
1,note_on,93,0,7
1,note_on,87,0,0
1,note_on,79,86,22
1,note_on,88,95,240
1,note_on,82,95,0
1,note_on,91,105,0
1,note_on,79,0,691
1,note_on,88,0,7
1,note_on,82,0,0
1,note_on,91,0,0
1,note_on,78,86,22
1,note_on,78,0,240
1,note_on,81,83,0
1,note_on,90,105,0
1,note_on,86,95,0
1,note_on,86,0,240
1,note_on,90,0,0
1,note_on,81,0,0
1,note_on,74,75,0
1,note_on,74,0,240
1,note_on,86,81,0
1,note_on,81,68,0
1,note_on,78,68,0
1,note_on,78,0,120
1,note_on,81,0,0
1,note_on,86,0,0
1,note_on,69,75,120
1,note_on,69,0,240
1,note_on,81,81,0
1,note_on,78,68,0
1,note_on,74,68,0
1,note_on,74,0,120
1,note_on,78,0,0
1,note_on,81,0,0
1,note_on,66,75,120
1,note_on,66,0,240
1,note_on,78,81,0
1,note_on,74,68,0
1,note_on,69,68,0
1,note_on,69,0,120
1,note_on,74,0,0
1,note_on,78,0,0
1,note_on,62,72,120
1,note_on,62,0,240
1,note_on,74,81,0
1,note_on,69,68,0
1,note_on,66,68,0
1,note_on,66,0,120
1,note_on,69,0,0
1,note_on,74,0,0
1,note_on,66,77,1320
1,note_on,66,0,480
1,note_on,69,83,0
1,note_on,69,0,1200
1,note_on,66,46,240
1,note_on,66,0,480
1,note_on,69,49,0
1,note_on,69,0,1200
1,note_on,69,46,240
1,note_on,69,0,480
1,note_on,72,49,0
1,note_on,72,0,960
1,note_on,74,48,0
1,note_on,74,0,720
1,note_on,75,46,0
1,note_on,75,0,216
1,note_on,75,53,24
1,note_on,75,0,960
1,note_on,74,46,0
1,note_on,74,0,480
1,note_on,77,49,240
1,note_on,77,0,240
1,note_on,80,54,0
1,note_on,80,0,960
1,note_on,79,50,0
1,note_on,79,0,720
1,note_on,74,50,0
1,note_on,74,0,240
1,note_on,77,57,0
1,note_on,77,0,960
1,note_on,75,52,0
1,note_on,75,0,480
1,note_on,75,49,480
1,note_on,75,0,940
1,note_on,75,50,20
1,note_on,77,56,720
1,note_on,77,0,240
1,note_on,79,65,0
1,note_on,79,0,480
1,note_on,75,0,0
1,note_on,82,75,480
1,note_on,79,63,0
1,note_on,79,0,1440
1,note_on,82,0,0
1,note_on,82,62,480
1,note_on,86,73,0
1,note_on,86,0,1440
1,note_on,82,0,0
1,note_on,77,67,420
1,note_on,82,69,30
1,note_on,89,72,30
1,note_on,89,0,1680
1,note_on,82,0,0
1,note_on,77,0,0
1,note_on,86,66,0
1,note_on,86,0,240
1,note_on,81,62,0
1,note_on,87,73,0
1,note_on,87,0,720
1,note_on,84,61,0
1,note_on,84,0,240
1,note_on,81,0,0
1,note_on,82,69,0
1,note_on,82,0,960
1,note_on,75,53,0
1,note_on,84,63,0
1,note_on,84,0,720
1,note_on,80,52,0
1,note_on,80,0,240
1,note_on,79,63,0
1,note_on,79,0,960
1,note_on,75,0,0
1,note_on,80,64,0
1,note_on,74,54,0
1,note_on,74,0,960
1,note_on,75,64,0
1,note_on,80,0,720
1,note_on,79,52,0
1,note_on,79,0,240
1,note_on,75,0,0
1,note_on,72,42,0
1,note_on,81,50,0
1,note_on,81,0,720
1,note_on,78,37,0
1,note_on,78,0,240
1,note_on,72,0,0
1,note_on,91,40,0
1,note_on,87,40,0
1,note_on,79,34,0
1,note_on,87,0,960
1,note_on,91,0,0
1,note_on,89,35,0
1,note_on,86,35,0
1,note_on,86,0,480
1,note_on,89,0,0
1,note_on,87,41,0
1,note_on,91,41,0
1,note_on,91,0,480
1,note_on,87,0,0
1,note_on,79,0,0
1,note_on,79,31,0
1,note_on,89,46,0
1,note_on,92,46,0
1,note_on,89,0,700
1,note_on,92,0,20
1,note_on,89,39,0
1,note_on,86,39,0
1,note_on,86,0,240
1,note_on,89,0,0
1,note_on,86,46,0
1,note_on,83,46,0
1,note_on,83,0,480
1,note_on,86,0,0
1,note_on,84,40,0
1,note_on,87,40,0
1,note_on,87,0,480
1,note_on,84,0,0
1,note_on,79,0,0
1,note_on,89,40,0
1,note_on,86,40,0
1,note_on,79,34,0
1,note_on,86,0,480
1,note_on,89,0,0
1,note_on,84,35,0
1,note_on,87,35,0
1,note_on,87,0,480
1,note_on,84,0,0
1,note_on,86,35,0
1,note_on,82,35,0
1,note_on,82,0,480
1,note_on,86,0,0
1,note_on,80,41,0
1,note_on,84,41,0
1,note_on,84,0,480
1,note_on,80,0,0
1,note_on,79,0,0
1,note_on,79,38,0
1,note_on,83,46,0
1,note_on,83,0,720
1,note_on,84,39,0
1,note_on,81,39,0
1,note_on,81,0,240
1,note_on,84,0,0
1,note_on,86,46,0
1,note_on,83,46,0
1,note_on,79,0,460
1,note_on,83,0,20
1,note_on,86,0,0
1,note_on,79,40,0
1,note_on,91,40,480
1,note_on,87,40,0
1,note_on,87,0,960
1,note_on,91,0,0
1,note_on,89,35,0
1,note_on,86,35,0
1,note_on,86,0,480
1,note_on,89,0,0
1,note_on,87,43,0
1,note_on,91,43,0
1,note_on,91,0,480
1,note_on,87,0,0
1,note_on,79,0,0
1,note_on,79,34,0
1,note_on,91,55,0
1,note_on,94,55,0
1,note_on,94,0,720
1,note_on,91,0,0
1,note_on,92,42,0
1,note_on,89,42,0
1,note_on,89,0,220
1,note_on,92,0,20
1,note_on,89,50,0
1,note_on,86,50,0
1,note_on,86,0,480
1,note_on,89,0,0
1,note_on,89,44,0
1,note_on,92,44,0
1,note_on,79,0,460
1,note_on,92,0,20
1,note_on,89,0,0
1,note_on,91,44,0
1,note_on,87,44,0
1,note_on,79,37,0
1,note_on,87,0,456
1,note_on,91,0,0
1,note_on,84,37,24
1,note_on,87,37,0
1,note_on,87,0,480
1,note_on,84,0,0
1,note_on,89,36,0
1,note_on,86,36,0
1,note_on,86,0,456
1,note_on,89,0,0
1,note_on,83,42,24
1,note_on,86,42,0
1,note_on,79,0,460
1,note_on,86,0,20
1,note_on,83,0,0
1,note_on,84,40,0
1,note_on,79,25,0
1,note_on,87,46,0
1,note_on,87,0,456
1,note_on,84,0,0
1,note_on,84,39,24
1,note_on,81,39,0
1,note_on,81,0,480
1,note_on,84,0,0
1,note_on,86,46,0
1,note_on,83,46,0
1,note_on,83,0,456
1,note_on,86,0,0
1,note_on,79,40,24
1,note_on,79,0,460
1,note_on,79,0,20
1,note_on,67,24,240
1,note_on,67,0,240
1,note_on,72,39,0
1,note_on,72,0,240
1,note_on,79,24,0
1,note_on,79,0,240
1,note_on,67,24,240
1,note_on,67,0,240
1,note_on,74,38,0
1,note_on,74,0,240
1,note_on,79,24,0
1,note_on,79,0,240
1,note_on,72,24,240
1,note_on,72,0,240
1,note_on,75,41,0
1,note_on,75,0,240
1,note_on,80,24,0
1,note_on,80,0,240
1,note_on,68,24,240
1,note_on,68,0,240
1,note_on,74,38,0
1,note_on,80,24,226
1,note_on,74,0,14
1,note_on,80,0,226
1,note_on,72,32,254
1,note_on,72,0,240
1,note_on,80,40,0
1,note_on,80,0,240
1,note_on,86,32,0
1,note_on,86,0,240
1,note_on,71,32,240
1,note_on,71,0,240
1,note_on,79,41,0
1,note_on,79,0,240
1,note_on,86,34,0
1,note_on,86,0,240
1,note_on,77,35,240
1,note_on,77,0,240
1,note_on,86,47,0
1,note_on,86,0,240
1,note_on,91,38,0
1,note_on,91,0,240
1,note_on,75,38,240
1,note_on,75,0,240
1,note_on,84,52,0
1,note_on,84,0,240
1,note_on,91,36,0
1,note_on,91,0,240
1,note_on,72,39,480
1,note_on,74,47,0
1,note_on,68,39,0
1,note_on,68,0,600
1,note_on,74,0,0
1,note_on,72,0,0
1,note_on,75,45,0
1,note_on,75,0,120
1,note_on,74,45,0
1,note_on,74,0,120
1,note_on,72,45,0
1,note_on,72,0,120
1,note_on,74,46,0
1,note_on,74,0,120
1,note_on,75,49,0
1,note_on,75,0,120
1,note_on,77,52,0
1,note_on,77,0,120
1,note_on,79,55,0
1,note_on,79,0,120
1,note_on,82,68,0
1,note_on,82,0,480
1,note_on,80,64,0
1,note_on,80,0,240
1,note_on,71,39,1680
1,note_on,74,47,0
1,note_on,68,39,0
1,note_on,68,0,600
1,note_on,74,0,0
1,note_on,71,0,0
1,note_on,75,45,0
1,note_on,75,0,120
1,note_on,74,45,0
1,note_on,74,0,120
1,note_on,73,45,0
1,note_on,73,0,120
1,note_on,74,46,0
1,note_on,74,0,120
1,note_on,75,49,0
1,note_on,75,0,120
1,note_on,77,52,0
1,note_on,77,0,120
1,note_on,79,55,0
1,note_on,79,0,120
1,note_on,82,68,0
1,note_on,82,0,480
1,note_on,80,64,0
1,note_on,80,0,240
1,note_on,77,62,240
1,note_on,87,74,0
1,note_on,87,0,480
1,note_on,85,69,0
1,note_on,85,0,240
1,note_on,77,0,0
1,note_on,75,41,2160
1,note_on,65,41,0
1,note_on,66,41,120
1,note_on,65,0,12
1,note_on,65,41,108
1,note_on,66,0,12
1,note_on,64,41,108
1,note_on,65,0,12
1,note_on,75,0,108
1,note_on,73,61,0
1,note_on,65,45,0
1,note_on,64,0,12
1,note_on,68,47,108
1,note_on,65,0,12
1,note_on,73,0,108
1,note_on,71,49,0
1,note_on,68,0,12
1,note_on,73,52,108
1,note_on,71,0,12
1,note_on,87,67,108
1,note_on,78,67,0
1,note_on,73,0,12
1,note_on,87,0,468
1,note_on,85,61,0
1,note_on,85,0,240
1,note_on,78,0,0
1,note_on,77,51,240
1,note_on,87,75,0
1,note_on,78,47,120
1,note_on,77,0,12
1,note_on,77,47,108
1,note_on,78,0,12
1,note_on,76,47,108
1,note_on,77,0,12
1,note_on,87,0,108
1,note_on,85,70,0
1,note_on,77,51,0
1,note_on,76,0,12
1,note_on,80,53,108
1,note_on,77,0,12
1,note_on,85,0,108
1,note_on,83,56,0
1,note_on,80,0,12
1,note_on,85,60,108
1,note_on,83,0,12
1,note_on,89,77,108
1,note_on,99,77,0
1,note_on,85,0,12
1,note_on,99,0,468
1,note_on,97,86,0
1,note_on,89,0,240
1,note_on,97,0,480
1,note_on,96,75,0
1,note_on,96,0,240
1,note_on,95,77,0
1,note_on,95,0,240
1,note_on,94,73,0
1,note_on,94,0,240
1,note_on,93,69,0
1,note_on,93,0,240
1,note_on,92,63,0
1,note_on,92,0,240
1,note_on,91,70,0
1,note_on,91,0,240
1,note_on,90,69,0
1,note_on,90,0,240
1,note_on,89,70,0
1,note_on,89,0,240
1,note_on,88,60,0
1,note_on,88,0,240
1,note_on,87,64,0
1,note_on,87,0,240
1,note_on,86,67,0
1,note_on,86,0,240
1,note_on,85,71,0
1,note_on,85,0,240
1,note_on,84,60,0
1,note_on,84,0,240
1,note_on,83,67,0
1,note_on,83,0,240
1,note_on,82,54,0
1,note_on,82,0,240
1,note_on,81,60,0
1,note_on,81,0,240
1,note_on,80,54,0
1,note_on,80,0,240
1,note_on,79,59,0
1,note_on,79,0,240
1,note_on,78,50,0
1,note_on,78,0,240
1,note_on,77,44,0
1,note_on,77,0,240
1,note_on,76,46,0
1,note_on,76,0,240
1,note_on,75,53,0
1,note_on,75,0,240
1,note_on,74,46,0
1,note_on,74,0,240
1,note_on,75,54,480
1,note_on,75,0,480
1,note_on,78,58,0
1,note_on,78,0,480
1,note_on,84,54,0
1,note_on,84,0,480
1,note_on,80,54,480
1,note_on,80,0,480
1,note_on,79,43,0
1,note_on,79,0,480
1,note_on,71,34,0
1,note_on,71,0,480
1,note_on,80,32,0
1,note_on,84,40,0
1,note_on,80,0,240
1,note_on,72,23,0
1,note_on,72,0,240
1,note_on,80,23,0
1,note_on,80,0,240
1,note_on,72,23,0
1,note_on,72,0,240
1,note_on,84,0,0
1,note_on,82,35,0
1,note_on,79,35,0
1,note_on,79,0,480
1,note_on,82,0,0
1,note_on,80,41,0
1,note_on,84,41,0
1,note_on,84,0,480
1,note_on,80,0,0
1,note_on,82,46,0
1,note_on,85,46,0
1,note_on,85,0,698
1,note_on,82,0,0
1,note_on,82,39,22
1,note_on,79,39,0
1,note_on,79,0,240
1,note_on,82,0,0
1,note_on,76,46,0
1,note_on,79,46,0
1,note_on,79,0,480
1,note_on,76,0,0
1,note_on,80,40,0
1,note_on,77,40,0
1,note_on,77,0,480
1,note_on,80,0,0
1,note_on,79,40,0
1,note_on,82,40,0
1,note_on,82,0,480
1,note_on,79,0,0
1,note_on,80,35,0
1,note_on,77,35,0
1,note_on,77,0,480
1,note_on,80,0,0
1,note_on,79,35,0
1,note_on,75,35,0
1,note_on,75,0,480
1,note_on,79,0,0
1,note_on,73,41,0
1,note_on,77,41,0
1,note_on,77,0,480
1,note_on,73,0,0
1,note_on,72,25,0
1,note_on,76,46,0
1,note_on,76,0,720
1,note_on,72,0,0
1,note_on,77,39,0
1,note_on,74,39,0
1,note_on,74,0,240
1,note_on,77,0,0
1,note_on,79,46,0
1,note_on,76,46,0
1,note_on,76,0,480
1,note_on,79,0,0
1,note_on,72,51,0
1,note_on,84,53,0
1,note_on,84,0,360
1,note_on,72,0,0
1,note_on,73,49,120
1,note_on,85,58,0
1,note_on,85,0,960
1,note_on,83,42,0
1,note_on,80,35,0
1,note_on,80,0,480
1,note_on,83,0,0
1,note_on,81,41,0
1,note_on,85,49,0
1,note_on,85,0,480
1,note_on,81,0,0
1,note_on,73,0,0
1,note_on,73,44,0
1,note_on,83,56,0
1,note_on,86,56,0
1,note_on,86,0,698
1,note_on,83,0,0
1,note_on,83,44,22
1,note_on,80,37,0
1,note_on,80,0,216
1,note_on,83,0,0
1,note_on,77,44,24
1,note_on,80,52,0
1,note_on,73,0,460
1,note_on,80,0,20
1,note_on,77,0,0
1,note_on,73,39,0
1,note_on,85,47,0
1,note_on,83,39,0
1,note_on,83,0,480
1,note_on,85,0,0
1,note_on,73,0,0
1,note_on,78,72,0
1,note_on,82,72,0
1,note_on,90,72,0
1,note_on,90,0,960
1,note_on,82,0,0
1,note_on,88,62,0
1,note_on,85,51,0
1,note_on,85,0,480
1,note_on,88,0,0
1,note_on,86,57,0
1,note_on,90,68,0
1,note_on,90,0,480
1,note_on,86,0,0
1,note_on,78,0,0
1,note_on,73,52,0
1,note_on,88,77,0
1,note_on,91,85,0
1,note_on,91,0,698
1,note_on,88,0,0
1,note_on,88,68,22
1,note_on,85,57,0
1,note_on,85,0,240
1,note_on,88,0,0
1,note_on,82,68,0
1,note_on,85,81,0
1,note_on,85,0,480
1,note_on,82,0,0
1,note_on,73,0,0
1,note_on,78,70,0
1,note_on,90,87,0
1,note_on,88,70,0
1,note_on,88,0,480
1,note_on,90,0,0
1,note_on,78,0,0
1,note_on,83,57,0
1,note_on,87,57,0
1,note_on,93,68,0
1,note_on,95,68,0
1,note_on,95,0,240
1,note_on,83,0,0
1,note_on,87,0,0
1,note_on,93,0,0
1,note_on,81,56,240
1,note_on,93,66,0
1,note_on,93,0,120
1,note_on,81,0,0
1,note_on,83,58,120
1,note_on,95,68,0
1,note_on,95,0,120
1,note_on,83,0,0
1,note_on,84,60,120
1,note_on,96,71,0
1,note_on,96,0,240
1,note_on,84,0,0
1,note_on,81,55,0
1,note_on,93,66,0
1,note_on,93,0,240
1,note_on,81,0,0
1,note_on,78,58,0
1,note_on,90,68,0
1,note_on,90,0,120
1,note_on,78,0,0
1,note_on,79,53,120
1,note_on,91,63,0
1,note_on,91,0,120
1,note_on,79,0,0
1,note_on,81,61,120
1,note_on,93,73,0
1,note_on,93,0,240
1,note_on,81,0,0
1,note_on,78,56,0
1,note_on,90,68,0
1,note_on,90,0,240
1,note_on,78,0,0
1,note_on,72,59,0
1,note_on,84,70,0
1,note_on,84,0,120
1,note_on,72,0,0
1,note_on,74,54,120
1,note_on,86,64,0
1,note_on,86,0,120
1,note_on,74,0,0
1,note_on,75,63,120
1,note_on,87,74,0
1,note_on,87,0,240
1,note_on,75,0,0
1,note_on,72,58,0
1,note_on,84,70,0
1,note_on,84,0,240
1,note_on,72,0,0
1,note_on,69,60,0
1,note_on,81,71,0
1,note_on,81,0,120
1,note_on,69,0,0
1,note_on,71,56,120
1,note_on,83,66,0
1,note_on,83,0,120
1,note_on,71,0,0
1,note_on,72,64,120
1,note_on,84,76,0
1,note_on,84,0,240
1,note_on,72,0,0
1,note_on,69,58,0
1,note_on,81,70,0
1,note_on,81,0,240
1,note_on,69,0,0
1,note_on,66,62,0
1,note_on,78,73,0
1,note_on,78,0,120
1,note_on,66,0,0
1,note_on,67,56,120
1,note_on,79,66,0
1,note_on,79,0,120
1,note_on,67,0,0
1,note_on,69,65,120
1,note_on,81,78,0
1,note_on,81,0,240
1,note_on,69,0,0
1,note_on,66,60,0
1,note_on,78,72,0
1,note_on,78,0,240
1,note_on,66,0,0
1,note_on,73,63,240
1,note_on,69,63,0
1,note_on,67,63,0
1,note_on,79,75,0
1,note_on,79,0,120
1,note_on,73,0,0
1,note_on,69,0,0
1,note_on,67,0,0
1,note_on,78,64,360
1,note_on,75,64,0
1,note_on,69,64,0
1,note_on,81,75,0
1,note_on,81,0,120
1,note_on,78,0,0
1,note_on,75,0,0
1,note_on,69,0,0
1,note_on,79,69,360
1,note_on,76,69,0
1,note_on,69,69,0
1,note_on,81,82,0
1,note_on,81,0,120
1,note_on,79,0,0
1,note_on,76,0,0
1,note_on,69,0,0
1,note_on,78,75,360
1,note_on,75,75,0
1,note_on,72,75,0
1,note_on,84,89,0
1,note_on,84,0,120
1,note_on,78,0,0
1,note_on,75,0,0
1,note_on,72,0,0
1,note_on,81,81,360
1,note_on,76,81,0
1,note_on,73,81,0
1,note_on,85,95,0
1,note_on,85,0,120
1,note_on,81,0,0
1,note_on,76,0,0
1,note_on,73,0,0
1,note_on,82,89,120
1,note_on,85,89,0
1,note_on,91,89,0
1,note_on,94,105,0
1,note_on,94,0,960
1,note_on,82,0,0
1,note_on,85,0,0
1,note_on,91,0,0
1,note_on,81,79,0
1,note_on,86,79,0
1,note_on,89,79,0
1,note_on,93,93,0
1,note_on,93,0,480
1,note_on,81,0,0
1,note_on,86,0,0
1,note_on,89,0,0
1,note_on,73,80,240
1,note_on,85,90,0
1,note_on,85,0,240
1,note_on,73,0,0
1,note_on,82,89,0
1,note_on,85,89,0
1,note_on,91,89,0
1,note_on,94,105,0
1,note_on,94,0,960
1,note_on,82,0,0
1,note_on,85,0,0
1,note_on,91,0,0
1,note_on,81,79,0
1,note_on,86,79,0
1,note_on,89,79,0
1,note_on,93,93,0
1,note_on,93,0,480
1,note_on,81,0,0
1,note_on,86,0,0
1,note_on,89,0,0
1,note_on,74,80,240
1,note_on,86,90,0
1,note_on,86,0,240
1,note_on,74,0,0
1,note_on,83,89,0
1,note_on,86,89,0
1,note_on,92,89,0
1,note_on,95,105,0
1,note_on,95,0,960
1,note_on,83,0,0
1,note_on,86,0,0
1,note_on,92,0,0
1,note_on,85,89,0
1,note_on,88,89,0
1,note_on,93,89,0
1,note_on,97,105,0
1,note_on,97,0,960
1,note_on,85,0,0
1,note_on,88,0,0
1,note_on,93,0,0
1,note_on,86,89,0
1,note_on,93,89,0
1,note_on,98,105,0
1,note_on,98,0,960
1,note_on,93,0,0
1,note_on,86,0,0
1,note_on,89,89,0
1,note_on,93,89,0
1,note_on,101,105,0
1,note_on,101,0,960
1,note_on,93,0,0
1,note_on,89,0,0
1,note_on,84,83,0
1,note_on,88,83,0
1,note_on,91,83,0
1,note_on,96,100,0
1,note_on,96,0,720
1,note_on,84,0,0
1,note_on,88,0,0
1,note_on,91,0,0
1,note_on,88,87,0
1,note_on,84,73,0
1,note_on,76,73,0
1,note_on,76,0,216
1,note_on,84,0,0
1,note_on,88,0,0
1,note_on,88,92,24
1,note_on,76,77,0
1,note_on,84,77,0
1,note_on,84,0,480
1,note_on,76,0,0
1,note_on,88,0,0
1,note_on,86,75,0
1,note_on,77,75,0
1,note_on,89,88,0
1,note_on,89,0,120
1,note_on,77,0,0
1,note_on,86,0,0
1,note_on,79,78,120
1,note_on,88,78,0
1,note_on,91,93,0
1,note_on,91,0,120
1,note_on,88,0,0
1,note_on,79,0,0
1,note_on,81,82,120
1,note_on,89,82,0
1,note_on,93,97,0
1,note_on,93,0,456
1,note_on,89,0,0
1,note_on,81,0,0
1,note_on,81,77,24
1,note_on,93,92,0
1,note_on,89,77,0
1,note_on,89,0,480
1,note_on,93,0,0
1,note_on,81,0,0
1,note_on,91,92,0
1,note_on,79,77,0
1,note_on,88,77,0
1,note_on,88,0,480
1,note_on,79,0,0
1,note_on,91,0,0
1,note_on,88,75,0
1,note_on,84,75,0
1,note_on,96,88,0
1,note_on,96,0,120
1,note_on,84,0,0
1,note_on,88,0,0
1,note_on,86,78,120
1,note_on,91,78,0
1,note_on,98,93,0
1,note_on,98,0,120
1,note_on,91,0,0
1,note_on,86,0,0
1,note_on,88,82,120
1,note_on,97,82,0
1,note_on,100,97,0
1,note_on,100,0,465
1,note_on,97,0,0
1,note_on,88,0,0
1,note_on,88,77,15
1,note_on,100,92,0
1,note_on,97,77,0
1,note_on,97,0,480
1,note_on,100,0,0
1,note_on,88,0,0
1,note_on,93,92,0
1,note_on,81,77,0
1,note_on,89,77,0
1,note_on,89,0,480
1,note_on,81,0,0
1,note_on,93,0,0
1,note_on,95,75,0
1,note_on,86,75,0
1,note_on,98,88,0
1,note_on,98,0,120
1,note_on,86,0,0
1,note_on,95,0,0
1,note_on,88,78,120
1,note_on,96,78,0
1,note_on,100,93,0
1,note_on,100,0,120
1,note_on,96,0,0
1,note_on,88,0,0
1,note_on,89,82,120
1,note_on,98,82,0
1,note_on,101,97,0
1,note_on,101,0,480
1,note_on,98,0,0
1,note_on,89,0,0
1,note_on,86,75,0
1,note_on,95,75,0
1,note_on,98,88,0
1,note_on,98,0,120
1,note_on,95,0,0
1,note_on,86,0,0
1,note_on,84,78,120
1,note_on,93,78,0
1,note_on,96,93,0
1,note_on,96,0,120
1,note_on,93,0,0
1,note_on,84,0,0
1,note_on,95,92,120
1,note_on,83,77,0
1,note_on,91,77,0
1,note_on,91,0,480
1,note_on,83,0,0
1,note_on,95,0,0
1,note_on,93,75,0
1,note_on,84,75,0
1,note_on,96,88,0
1,note_on,96,0,120
1,note_on,84,0,0
1,note_on,93,0,0
1,note_on,86,78,120
1,note_on,95,78,0
1,note_on,98,93,0
1,note_on,98,0,120
1,note_on,95,0,0
1,note_on,86,0,0
1,note_on,88,82,120
1,note_on,96,82,0
1,note_on,100,97,0
1,note_on,100,0,480
1,note_on,96,0,0
1,note_on,88,0,0
1,note_on,84,75,0
1,note_on,93,75,0
1,note_on,96,88,0
1,note_on,96,0,120
1,note_on,93,0,0
1,note_on,84,0,0
1,note_on,83,78,120
1,note_on,91,78,0
1,note_on,95,93,0
1,note_on,95,0,120
1,note_on,91,0,0
1,note_on,83,0,0
1,note_on,93,92,120
1,note_on,81,77,0
1,note_on,89,77,0
1,note_on,89,0,480
1,note_on,81,0,0
1,note_on,93,0,0
1,note_on,91,75,0
1,note_on,83,75,0
1,note_on,95,88,0
1,note_on,95,0,120
1,note_on,83,0,0
1,note_on,91,0,0
1,note_on,84,78,120
1,note_on,93,78,0
1,note_on,96,93,0
1,note_on,96,0,120
1,note_on,93,0,0
1,note_on,84,0,0
1,note_on,86,82,120
1,note_on,95,82,0
1,note_on,98,97,0
1,note_on,98,0,480
1,note_on,95,0,0
1,note_on,86,0,0
1,note_on,83,75,0
1,note_on,91,75,0
1,note_on,95,88,0
1,note_on,95,0,120
1,note_on,91,0,0
1,note_on,83,0,0
1,note_on,81,78,120
1,note_on,89,78,0
1,note_on,93,93,0
1,note_on,93,0,120
1,note_on,89,0,0
1,note_on,81,0,0
1,note_on,79,82,120
1,note_on,88,82,0
1,note_on,91,97,0
1,note_on,91,0,480
1,note_on,88,0,0
1,note_on,79,0,0
1,note_on,77,75,0
1,note_on,86,75,0
1,note_on,89,88,0
1,note_on,89,0,120
1,note_on,86,0,0
1,note_on,77,0,0
1,note_on,76,78,120
1,note_on,84,78,0
1,note_on,88,93,0
1,note_on,88,0,120
1,note_on,84,0,0
1,note_on,76,0,0
1,note_on,75,73,120
1,note_on,78,73,0
1,note_on,81,73,0
1,note_on,84,73,0
1,note_on,87,87,0
1,note_on,87,0,390
1,note_on,81,0,0
1,note_on,75,0,0
1,note_on,78,0,0
1,note_on,84,0,0
1,note_on,72,71,90
1,note_on,75,71,0
1,note_on,78,71,0
1,note_on,81,71,0
1,note_on,84,84,0
1,note_on,84,0,870
1,note_on,78,0,0
1,note_on,72,0,0
1,note_on,75,0,0
1,note_on,81,0,0
1,note_on,69,66,90
1,note_on,72,66,0
1,note_on,75,66,0
1,note_on,78,66,0
1,note_on,81,78,0
1,note_on,81,0,390
1,note_on,75,0,0
1,note_on,69,0,0
1,note_on,72,0,0
1,note_on,78,0,0
1,note_on,67,63,90
1,note_on,71,63,0
1,note_on,74,63,0
1,note_on,77,63,0
1,note_on,79,75,0
1,note_on,79,0,480
1,note_on,74,0,0
1,note_on,67,0,0
1,note_on,71,0,0
1,note_on,77,0,0
1,note_on,67,63,0
1,note_on,67,0,160
1,note_on,79,55,0
1,note_on,79,0,160
1,note_on,77,55,0
1,note_on,77,0,160
1,note_on,79,63,0
1,note_on,82,63,0
1,note_on,82,0,160
1,note_on,79,0,0
1,note_on,89,57,0
1,note_on,89,0,160
1,note_on,88,57,0
1,note_on,88,0,160
1,note_on,67,63,0
1,note_on,70,63,0
1,note_on,70,0,160
1,note_on,67,0,0
1,note_on,77,56,0
1,note_on,77,0,160
1,note_on,76,56,0
1,note_on,76,0,160
1,note_on,65,63,0
1,note_on,69,63,0
1,note_on,69,0,160
1,note_on,65,0,0
1,note_on,76,57,0
1,note_on,76,0,160
1,note_on,74,57,0
1,note_on,74,0,160
1,note_on,77,63,0
1,note_on,81,63,0
1,note_on,81,0,160
1,note_on,77,0,0
1,note_on,88,55,0
1,note_on,88,0,160
1,note_on,86,56,0
1,note_on,86,0,160
1,note_on,81,64,0
1,note_on,84,64,0
1,note_on,84,0,160
1,note_on,81,0,0
1,note_on,91,58,0
1,note_on,91,0,160
1,note_on,90,58,0
1,note_on,90,0,160
1,note_on,69,64,0
1,note_on,72,64,0
1,note_on,72,0,160
1,note_on,69,0,0
1,note_on,79,58,0
1,note_on,79,0,160
1,note_on,78,58,0
1,note_on,78,0,160
1,note_on,67,66,0
1,note_on,72,66,0
1,note_on,72,0,160
1,note_on,67,0,0
1,note_on,81,59,0
1,note_on,81,0,160
1,note_on,79,59,0
1,note_on,79,0,160
1,note_on,79,66,0
1,note_on,84,66,0
1,note_on,84,0,160
1,note_on,79,0,0
1,note_on,93,58,0
1,note_on,93,0,160
1,note_on,91,58,0
1,note_on,91,0,160
1,note_on,84,67,0
1,note_on,86,67,0
1,note_on,86,0,160
1,note_on,84,0,0
1,note_on,95,60,0
1,note_on,95,0,160
1,note_on,93,61,0
1,note_on,93,0,160
1,note_on,72,68,0
1,note_on,74,68,0
1,note_on,74,0,160
1,note_on,72,0,0
1,note_on,83,61,0
1,note_on,83,0,160
1,note_on,81,61,0
1,note_on,81,0,160
1,note_on,72,69,0
1,note_on,74,69,0
1,note_on,74,0,160
1,note_on,72,0,0
1,note_on,83,62,0
1,note_on,83,0,160
1,note_on,81,62,0
1,note_on,81,0,160
1,note_on,84,69,0
1,note_on,86,69,0
1,note_on,86,0,160
1,note_on,84,0,0
1,note_on,95,62,0
1,note_on,95,0,160
1,note_on,93,62,0
1,note_on,93,0,160
1,note_on,89,70,0
1,note_on,95,70,0
1,note_on,95,0,160
1,note_on,89,0,0
1,note_on,100,62,0
1,note_on,100,0,160
1,note_on,98,63,0
1,note_on,98,0,160
1,note_on,77,71,0
1,note_on,83,71,0
1,note_on,83,0,160
1,note_on,77,0,0
1,note_on,88,63,0
1,note_on,88,0,160
1,note_on,86,63,0
1,note_on,86,0,160
1,note_on,72,69,0
1,note_on,76,69,0
1,note_on,84,83,0
1,note_on,84,0,456
1,note_on,76,0,0
1,note_on,72,0,0
1,note_on,60,63,24
1,note_on,72,74,0
1,note_on,64,63,0
1,note_on,64,0,240
1,note_on,72,0,0
1,note_on,60,0,0
1,note_on,60,56,120
1,note_on,64,56,0
1,note_on,72,66,0
1,note_on,72,0,108
1,note_on,64,0,0
1,note_on,60,0,0
1,note_on,61,63,12
1,note_on,64,63,0
1,note_on,70,63,0
1,note_on,73,74,0
1,note_on,73,0,456
1,note_on,61,0,0
1,note_on,64,0,0
1,note_on,70,0,0
1,note_on,73,65,24
1,note_on,76,65,0
1,note_on,82,65,0
1,note_on,85,78,0
1,note_on,85,0,480
1,note_on,73,0,0
1,note_on,76,0,0
1,note_on,82,0,0
1,note_on,82,69,0
1,note_on,74,69,0
1,note_on,77,69,0
1,note_on,86,83,0
1,note_on,86,0,480
1,note_on,82,0,0
1,note_on,74,0,0
1,note_on,77,0,0
1,note_on,62,63,0
1,note_on,74,74,0
1,note_on,70,63,0
1,note_on,70,0,240
1,note_on,74,0,0
1,note_on,62,0,0
1,note_on,62,56,120
1,note_on,70,56,0
1,note_on,74,66,0
1,note_on,74,0,108
1,note_on,70,0,0
1,note_on,62,0,0
1,note_on,64,63,12
1,note_on,70,63,0
1,note_on,73,63,0
1,note_on,76,74,0
1,note_on,76,0,456
1,note_on,64,0,0
1,note_on,70,0,0
1,note_on,73,0,0
1,note_on,76,66,24
1,note_on,82,66,0
1,note_on,85,66,0
1,note_on,88,80,0
1,note_on,88,0,480
1,note_on,76,0,0
1,note_on,82,0,0
1,note_on,85,0,0
1,note_on,86,71,0
1,note_on,77,71,0
1,note_on,81,71,0
1,note_on,89,86,0
1,note_on,89,0,480
1,note_on,86,0,0
1,note_on,77,0,0
1,note_on,81,0,0
1,note_on,69,66,0
1,note_on,65,66,0
1,note_on,77,78,0
1,note_on,74,66,0
1,note_on,74,0,240
1,note_on,69,0,0
1,note_on,65,0,0
1,note_on,77,0,0
1,note_on,69,59,120
1,note_on,65,59,0
1,note_on,74,59,0
1,note_on,77,70,0
1,note_on,77,0,120
1,note_on,69,0,0
1,note_on,65,0,0
1,note_on,74,0,0
1,note_on,69,67,0
1,note_on,72,67,0
1,note_on,77,67,0
1,note_on,81,79,0
1,note_on,81,0,480
1,note_on,69,0,0
1,note_on,72,0,0
1,note_on,77,0,0
1,note_on,81,77,0
1,note_on,84,77,0
1,note_on,89,77,0
1,note_on,93,93,0
1,note_on,93,0,931
1,note_on,81,0,0
1,note_on,84,0,0
1,note_on,89,0,0
1,note_on,81,79,29
1,note_on,84,79,0
1,note_on,89,79,0
1,note_on,93,95,0
1,note_on,93,0,960
1,note_on,81,0,0
1,note_on,84,0,0
1,note_on,89,0,0
1,note_on,79,81,0
1,note_on,83,81,0
1,note_on,88,81,0
1,note_on,91,97,0
1,note_on,91,0,960
1,note_on,79,0,0
1,note_on,83,0,0
1,note_on,88,0,0
1,note_on,89,101,0
1,note_on,77,83,0
1,note_on,83,83,0
1,note_on,86,83,0
1,note_on,86,0,960
1,note_on,89,0,0
1,note_on,77,0,0
1,note_on,83,0,0
1,note_on,71,78,0
1,note_on,77,78,0
1,note_on,79,78,0
1,note_on,83,94,0
1,note_on,83,0,456
1,note_on,71,0,0
1,note_on,77,0,0
1,note_on,79,0,0
1,note_on,72,79,24
1,note_on,76,79,0
1,note_on,79,79,0
1,note_on,84,95,0
1,note_on,84,0,480
1,note_on,72,0,0
1,note_on,76,0,0
1,note_on,79,0,0
1,note_on,76,80,240
1,note_on,72,67,0
1,note_on,64,67,0
1,note_on,64,0,216
1,note_on,72,0,0
1,note_on,76,0,0
1,note_on,76,85,24
1,note_on,64,71,0
1,note_on,72,71,0
1,note_on,72,0,480
1,note_on,64,0,0
1,note_on,76,0,0
1,note_on,72,69,0
1,note_on,65,69,0
1,note_on,77,81,0
1,note_on,77,0,120
1,note_on,65,0,0
1,note_on,72,0,0
1,note_on,67,72,120
1,note_on,72,72,0
1,note_on,79,86,0
1,note_on,79,0,120
1,note_on,72,0,0
1,note_on,67,0,0
1,note_on,69,75,120
1,note_on,72,75,0
1,note_on,81,89,0
1,note_on,81,0,120
1,note_on,72,0,0
1,note_on,69,0,0
1,note_on,67,71,360
1,note_on,79,85,0
1,note_on,72,71,0
1,note_on,72,0,120
1,note_on,79,0,0
1,note_on,67,0,0
1,note_on,60,82,1080
1,note_on,57,69,0
1,note_on,52,69,0
1,note_on,52,0,216
1,note_on,57,0,0
1,note_on,60,0,0
1,note_on,60,88,24
1,note_on,52,74,0
1,note_on,57,74,0
1,note_on,57,0,931
1,note_on,52,0,0
1,note_on,60,0,0
1,note_on,57,72,29
1,note_on,60,72,0
1,note_on,62,85,0
1,note_on,62,0,456
1,note_on,60,0,0
1,note_on,57,0,0
1,note_on,57,73,24
1,note_on,60,73,0
1,note_on,64,86,0
1,note_on,64,0,456
1,note_on,60,0,0
1,note_on,57,0,0
1,note_on,57,75,24
1,note_on,60,75,0
1,note_on,65,89,0
1,note_on,60,0,960
1,note_on,57,0,0
1,note_on,55,76,0
1,note_on,59,90,0
1,note_on,59,0,931
1,note_on,55,0,0
1,note_on,65,0,29
1,note_on,55,73,0
1,note_on,60,73,0
1,note_on,64,87,0
1,note_on,64,0,1920
1,note_on,60,0,0
1,note_on,55,0,0
2,note_on,48,60,0
2,note_on,55,63,30
2,note_on,60,67,30
2,note_on,64,70,30
2,note_on,64,0,630
2,note_on,48,0,0
2,note_on,55,0,0
2,note_on,60,0,0
2,note_on,36,55,0
2,note_on,43,55,0
2,note_on,48,65,0
2,note_on,48,0,220
2,note_on,43,0,0
2,note_on,36,0,0
2,note_on,36,55,20
2,note_on,43,55,0
2,note_on,48,65,0
2,note_on,48,0,480
2,note_on,43,0,0
2,note_on,36,0,0
2,note_on,38,50,0
2,note_on,50,59,0
2,note_on,50,0,120
2,note_on,38,0,0
2,note_on,40,55,120
2,note_on,48,55,0
2,note_on,52,65,0
2,note_on,52,0,120
2,note_on,48,0,0
2,note_on,40,0,0
2,note_on,41,56,120
2,note_on,48,56,0
2,note_on,53,67,0
2,note_on,53,0,120
2,note_on,48,0,0
2,note_on,41,0,0
2,note_on,40,52,360
2,note_on,48,52,0
2,note_on,52,62,0
2,note_on,52,0,120
2,note_on,48,0,0
2,note_on,40,0,0
2,note_on,36,55,1080
2,note_on,43,55,0
2,note_on,48,65,0
2,note_on,48,0,216
2,note_on,43,0,0
2,note_on,36,0,0
2,note_on,36,55,24
2,note_on,43,55,0
2,note_on,48,65,0
2,note_on,48,0,480
2,note_on,43,0,0
2,note_on,36,0,0
2,note_on,38,50,0
2,note_on,50,59,0
2,note_on,50,0,120
2,note_on,38,0,0
2,note_on,40,55,120
2,note_on,48,55,0
2,note_on,52,65,0
2,note_on,52,0,120
2,note_on,48,0,0
2,note_on,40,0,0
2,note_on,41,56,120
2,note_on,48,56,0
2,note_on,53,67,0
2,note_on,53,0,240
2,note_on,48,0,0
2,note_on,41,0,0
2,note_on,48,50,240
2,note_on,40,50,0
2,note_on,52,59,0
2,note_on,52,0,120
2,note_on,40,0,0
2,note_on,48,0,0
2,note_on,41,55,120
2,note_on,48,55,0
2,note_on,53,65,0
2,note_on,53,0,120
2,note_on,48,0,0
2,note_on,41,0,0
2,note_on,43,56,120
2,note_on,48,56,0
2,note_on,55,67,0
2,note_on,55,0,120
2,note_on,48,0,0
2,note_on,43,0,0
2,note_on,41,52,360
2,note_on,48,52,0
2,note_on,53,62,0
2,note_on,53,0,120
2,note_on,48,0,0
2,note_on,41,0,0
2,note_on,48,50,840
2,note_on,40,50,0
2,note_on,52,59,0
2,note_on,52,0,120
2,note_on,40,0,0
2,note_on,48,0,0
2,note_on,41,55,120
2,note_on,48,55,0
2,note_on,53,65,0
2,note_on,53,0,120
2,note_on,48,0,0
2,note_on,41,0,0
2,note_on,38,56,120
2,note_on,50,67,0
2,note_on,50,0,120
2,note_on,38,0,0
2,note_on,40,57,360
2,note_on,52,68,0
2,note_on,52,0,120
2,note_on,40,0,0
2,note_on,35,59,360
2,note_on,47,70,0
2,note_on,47,0,120
2,note_on,35,0,0
2,note_on,36,62,360
2,note_on,48,73,0
2,note_on,48,0,120
2,note_on,36,0,0
2,note_on,33,67,360
2,note_on,38,67,0
2,note_on,45,79,0
2,note_on,45,0,960
2,note_on,38,0,0
2,note_on,33,0,0
2,note_on,31,63,0
2,note_on,38,63,0
2,note_on,43,75,0
2,note_on,43,0,480
2,note_on,38,0,0
2,note_on,31,0,0
2,note_on,62,70,0
2,note_on,62,0,120
2,note_on,66,63,120
2,note_on,66,0,120
2,note_on,67,69,120
2,note_on,67,0,120
2,note_on,50,56,360
2,note_on,50,0,120
2,note_on,54,50,120
2,note_on,54,0,120
2,note_on,55,55,120
2,note_on,55,0,120
2,note_on,38,56,360
2,note_on,38,0,120
2,note_on,42,50,120
2,note_on,42,0,120
2,note_on,43,55,120
2,note_on,43,0,480
2,note_on,55,55,480
2,note_on,58,55,0
2,note_on,58,0,960
2,note_on,55,0,0
2,note_on,46,60,0
2,note_on,53,63,30
2,note_on,58,67,30
2,note_on,62,70,30
2,note_on,62,0,630
2,note_on,46,0,0
2,note_on,53,0,0
2,note_on,58,0,0
2,note_on,34,55,0
2,note_on,46,65,0
2,note_on,46,0,216
2,note_on,34,0,0
2,note_on,34,55,24
2,note_on,46,65,0
2,note_on,46,0,480
2,note_on,34,0,0
2,note_on,36,50,0
2,note_on,48,59,0
2,note_on,48,0,120
2,note_on,36,0,0
2,note_on,38,55,120
2,note_on,50,65,0
2,note_on,50,0,120
2,note_on,38,0,0
2,note_on,39,56,120
2,note_on,46,56,0
2,note_on,51,67,0
2,note_on,51,0,120
2,note_on,46,0,0
2,note_on,39,0,0
2,note_on,38,52,360
2,note_on,46,52,0
2,note_on,50,62,0
2,note_on,50,0,120
2,note_on,46,0,0
2,note_on,38,0,0
2,note_on,34,55,1080
2,note_on,46,65,0
2,note_on,46,0,216
2,note_on,34,0,0
2,note_on,34,55,24
2,note_on,46,65,0
2,note_on,46,0,480
2,note_on,34,0,0
2,note_on,36,50,0
2,note_on,48,59,0
2,note_on,48,0,120
2,note_on,36,0,0
2,note_on,38,55,120
2,note_on,50,65,0
2,note_on,50,0,120
2,note_on,38,0,0
2,note_on,39,56,120
2,note_on,46,56,0
2,note_on,51,67,0
2,note_on,51,0,240
2,note_on,46,0,0
2,note_on,39,0,0
2,note_on,46,50,240
2,note_on,38,50,0
2,note_on,50,59,0
2,note_on,50,0,120
2,note_on,38,0,0
2,note_on,46,0,0
2,note_on,39,55,120
2,note_on,46,55,0
2,note_on,51,65,0
2,note_on,51,0,120
2,note_on,46,0,0
2,note_on,39,0,0
2,note_on,41,56,120
2,note_on,46,56,0
2,note_on,53,67,0
2,note_on,53,0,120
2,note_on,46,0,0
2,note_on,41,0,0
2,note_on,39,52,360
2,note_on,46,52,0
2,note_on,51,62,0
2,note_on,51,0,120
2,note_on,46,0,0
2,note_on,39,0,0
2,note_on,38,50,840
2,note_on,50,59,0
2,note_on,50,0,120
2,note_on,38,0,0
2,note_on,39,55,120
2,note_on,51,65,0
2,note_on,51,0,120
2,note_on,39,0,0
2,note_on,41,56,120
2,note_on,53,67,0
2,note_on,53,0,120
2,note_on,41,0,0
2,note_on,39,57,360
2,note_on,51,68,0
2,note_on,51,0,120
2,note_on,39,0,0
2,note_on,35,59,360
2,note_on,47,70,0
2,note_on,47,0,120
2,note_on,35,0,0
2,note_on,36,62,360
2,note_on,48,73,0
2,note_on,48,0,120
2,note_on,36,0,0
2,note_on,33,62,360
2,note_on,45,73,0
2,note_on,45,0,120
2,note_on,33,0,0
2,note_on,32,62,360
2,note_on,38,62,0
2,note_on,44,73,0
2,note_on,44,0,960
2,note_on,38,0,0
2,note_on,32,0,0
2,note_on,31,62,0
2,note_on,38,62,0
2,note_on,43,73,0
2,note_on,43,0,960
2,note_on,38,0,0
2,note_on,31,0,0
2,note_on,30,62,0
2,note_on,38,62,0
2,note_on,42,73,0
2,note_on,42,0,940
2,note_on,38,0,0
2,note_on,30,0,0
2,note_on,30,62,20
2,note_on,38,62,0
2,note_on,42,73,0
2,note_on,42,0,480
2,note_on,38,0,0
2,note_on,30,0,0
2,note_on,31,51,0
2,note_on,38,51,0
2,note_on,43,61,0
2,note_on,43,0,120
2,note_on,38,0,0
2,note_on,31,0,0
2,note_on,50,58,360
2,note_on,53,58,0
2,note_on,59,69,0
2,note_on,55,58,0
2,note_on,55,0,960
2,note_on,50,0,0
2,note_on,53,0,0
2,note_on,59,0,0
2,note_on,31,48,0
2,note_on,43,57,0
2,note_on,43,0,120
2,note_on,31,0,0
2,note_on,36,54,360
2,note_on,43,54,0
2,note_on,48,64,0
2,note_on,48,0,120
2,note_on,43,0,0
2,note_on,36,0,0
2,note_on,48,34,600
2,note_on,52,40,0
2,note_on,52,0,216
2,note_on,48,0,0
2,note_on,48,39,24
2,note_on,52,46,0
2,note_on,52,0,480
2,note_on,48,0,0
2,note_on,50,34,0
2,note_on,53,41,0
2,note_on,53,0,120
2,note_on,50,0,0
2,note_on,52,36,120
2,note_on,55,43,0
2,note_on,55,0,120
2,note_on,52,0,0
2,note_on,53,39,120
2,note_on,57,46,0
2,note_on,57,0,120
2,note_on,53,0,0
2,note_on,52,34,360
2,note_on,55,40,0
2,note_on,55,0,120
2,note_on,52,0,0
2,note_on,55,37,360
2,note_on,59,44,0
2,note_on,59,0,480
2,note_on,55,0,0
2,note_on,60,41,0
2,note_on,57,34,0
2,note_on,57,0,120
2,note_on,60,0,0
2,note_on,59,37,120
2,note_on,62,44,0
2,note_on,62,0,120
2,note_on,59,0,0
2,note_on,65,47,120
2,note_on,60,39,0
2,note_on,60,0,480
2,note_on,65,0,0
2,note_on,64,44,0
2,note_on,60,37,0
2,note_on,60,0,120
2,note_on,64,0,0
2,note_on,62,40,120
2,note_on,55,34,0
2,note_on,55,0,120
2,note_on,62,0,0
2,note_on,64,49,120
2,note_on,60,41,0
2,note_on,60,0,480
2,note_on,64,0,0
2,note_on,62,42,0
2,note_on,55,35,0
2,note_on,55,0,120
2,note_on,62,0,0
2,note_on,52,35,120
2,note_on,60,42,0
2,note_on,60,0,120
2,note_on,52,0,0
2,note_on,59,49,120
2,note_on,55,41,0
2,note_on,55,0,720
2,note_on,59,0,0
2,note_on,64,44,0
2,note_on,60,37,0
2,note_on,60,0,216
2,note_on,64,0,0
2,note_on,64,53,24
2,note_on,60,45,0
2,note_on,60,0,720
2,note_on,64,0,0
2,note_on,67,47,0
2,note_on,64,39,0
2,note_on,64,0,216
2,note_on,67,0,0
2,note_on,67,54,24
2,note_on,64,45,0
2,note_on,64,0,480
2,note_on,67,0,0
2,note_on,65,50,0
2,note_on,65,0,120
2,note_on,50,39,360
2,note_on,53,46,0
2,note_on,53,0,480
2,note_on,50,0,0
2,note_on,52,34,0
2,note_on,55,41,0
2,note_on,55,0,120
2,note_on,52,0,0
2,note_on,53,36,120
2,note_on,57,43,0
2,note_on,57,0,120
2,note_on,53,0,0
2,note_on,55,39,120
2,note_on,58,46,0
2,note_on,58,0,120
2,note_on,55,0,0
2,note_on,53,34,360
2,note_on,57,40,0
2,note_on,57,0,120
2,note_on,53,0,0
2,note_on,57,37,360
2,note_on,61,44,0
2,note_on,61,0,480
2,note_on,57,0,0
2,note_on,62,41,0
2,note_on,59,34,0
2,note_on,59,0,120
2,note_on,62,0,0
2,note_on,61,37,120
2,note_on,64,44,0
2,note_on,64,0,120
2,note_on,61,0,0
2,note_on,67,47,120
2,note_on,62,39,0
2,note_on,62,0,480
2,note_on,67,0,0
2,note_on,65,44,0
2,note_on,62,37,0
2,note_on,62,0,120
2,note_on,65,0,0
2,note_on,64,40,120
2,note_on,57,34,0
2,note_on,57,0,120
2,note_on,64,0,0
2,note_on,65,49,120
2,note_on,62,41,0
2,note_on,62,0,480
2,note_on,65,0,0
2,note_on,64,42,0
2,note_on,57,35,0
2,note_on,57,0,120
2,note_on,64,0,0
2,note_on,53,35,120
2,note_on,62,42,0
2,note_on,62,0,120
2,note_on,53,0,0
2,note_on,61,49,120
2,note_on,57,41,0
2,note_on,57,0,720
2,note_on,61,0,0
2,note_on,65,44,0
2,note_on,62,37,0
2,note_on,62,0,216
2,note_on,65,0,0
2,note_on,65,53,24
2,note_on,62,45,0
2,note_on,62,0,720
2,note_on,65,0,0
2,note_on,69,47,0
2,note_on,65,39,0
2,note_on,65,0,216
2,note_on,69,0,0
2,note_on,69,54,24
2,note_on,66,45,0
2,note_on,66,0,480
2,note_on,69,0,0
2,note_on,67,50,0
2,note_on,67,0,120
2,note_on,52,37,360
2,note_on,55,44,0
2,note_on,55,0,480
2,note_on,52,0,0
2,note_on,57,41,0
2,note_on,54,34,0
2,note_on,54,0,120
2,note_on,57,0,0
2,note_on,55,37,120
2,note_on,59,44,0
2,note_on,59,0,120
2,note_on,55,0,0
2,note_on,60,54,120
2,note_on,57,45,0
2,note_on,57,0,720
2,note_on,60,0,0
2,note_on,55,44,240
2,note_on,64,52,0
2,note_on,64,0,480
2,note_on,55,0,0
2,note_on,66,46,0
2,note_on,57,39,0
2,note_on,57,0,120
2,note_on,66,0,0
2,note_on,59,41,120
2,note_on,67,49,0
2,note_on,67,0,120
2,note_on,59,0,0
2,note_on,60,51,120
2,note_on,69,60,0
2,note_on,63,51,0
2,note_on,63,0,480
2,note_on,69,0,0
2,note_on,60,0,0
2,note_on,60,47,240
2,note_on,63,47,0
2,note_on,69,56,0
2,note_on,69,0,216
2,note_on,63,0,0
2,note_on,60,0,0
2,note_on,61,54,24
2,note_on,70,64,0
2,note_on,64,54,0
2,note_on,64,0,480
2,note_on,70,0,0
2,note_on,61,0,0
2,note_on,51,50,1200
2,note_on,47,50,0
2,note_on,47,0,216
2,note_on,51,0,0
2,note_on,51,58,24
2,note_on,47,58,0
2,note_on,47,0,480
2,note_on,51,0,0
2,note_on,49,51,0
2,note_on,52,51,0
2,note_on,52,0,120
2,note_on,49,0,0
2,note_on,51,53,120
2,note_on,54,53,0
2,note_on,54,0,120
2,note_on,51,0,0
2,note_on,52,61,120
2,note_on,56,61,0
2,note_on,56,0,460
2,note_on,52,0,20
2,note_on,59,54,0
2,note_on,56,54,0
2,note_on,56,0,120
2,note_on,59,0,0
2,note_on,61,58,120
2,note_on,57,58,0
2,note_on,57,0,120
2,note_on,61,0,0
2,note_on,63,61,120
2,note_on,59,61,0
2,note_on,59,0,480
2,note_on,63,0,0
2,note_on,61,59,0
2,note_on,64,59,0
2,note_on,64,0,120
2,note_on,61,0,0
2,note_on,63,61,120
2,note_on,66,61,0
2,note_on,66,0,120
2,note_on,63,0,0
2,note_on,64,63,120
2,note_on,68,63,0
2,note_on,68,0,480
2,note_on,64,0,0
2,note_on,66,61,0
2,note_on,69,61,0
2,note_on,69,0,120
2,note_on,66,0,0
2,note_on,68,64,120
2,note_on,71,64,0
2,note_on,71,0,120
2,note_on,68,0,0
2,note_on,69,69,120
2,note_on,72,69,0
2,note_on,72,0,240
2,note_on,69,0,0
2,note_on,70,63,0
2,note_on,73,63,0
2,note_on,73,0,216
2,note_on,70,0,0
2,note_on,70,63,24
2,note_on,73,63,0
2,note_on,73,0,720
2,note_on,70,0,0
2,note_on,69,60,0
2,note_on,72,60,0
2,note_on,72,0,240
2,note_on,69,0,0
2,note_on,69,63,0
2,note_on,72,63,0
2,note_on,72,0,240
2,note_on,69,0,0
2,note_on,70,57,0
2,note_on,73,57,0
2,note_on,73,0,216
2,note_on,70,0,0
2,note_on,70,57,24
2,note_on,73,57,0
2,note_on,73,0,240
2,note_on,70,0,0
2,note_on,71,57,0
2,note_on,74,57,0
2,note_on,74,0,216
2,note_on,71,0,0
2,note_on,71,63,24
2,note_on,74,63,0
2,note_on,74,0,720
2,note_on,71,0,0
2,note_on,70,63,0
2,note_on,73,63,0
2,note_on,73,0,240
2,note_on,70,0,0
2,note_on,70,68,0
2,note_on,73,68,0
2,note_on,73,0,240
2,note_on,70,0,0
2,note_on,71,63,0
2,note_on,74,63,0
2,note_on,74,0,216
2,note_on,71,0,0
2,note_on,71,65,24
2,note_on,74,65,0
2,note_on,74,0,240
2,note_on,71,0,0
2,note_on,72,63,0
2,note_on,72,0,216
2,note_on,72,71,24
2,note_on,72,0,700
2,note_on,73,63,20
2,note_on,73,0,216
2,note_on,73,71,24
2,note_on,73,0,240
2,note_on,70,63,0
2,note_on,70,0,216
2,note_on,70,67,24
2,note_on,70,0,240
2,note_on,67,63,0
2,note_on,67,0,216
2,note_on,67,73,24
2,note_on,67,0,240
2,note_on,58,67,0
2,note_on,58,0,240
2,note_on,59,74,0
2,note_on,59,0,120
2,note_on,47,70,120
2,note_on,47,0,240
2,note_on,60,74,0
2,note_on,48,62,0
2,note_on,48,0,720
2,note_on,60,0,0
2,note_on,35,69,0
2,note_on,35,0,240
2,note_on,36,62,0
2,note_on,48,74,0
2,note_on,48,0,480
2,note_on,36,0,0
2,note_on,47,69,240
2,note_on,47,0,240
2,note_on,48,58,0
2,note_on,60,69,0
2,note_on,60,0,480
2,note_on,48,0,0
2,note_on,35,68,240
2,note_on,35,0,240
2,note_on,36,62,0
2,note_on,48,74,0
2,note_on,48,0,480
2,note_on,36,0,0
2,note_on,35,64,0
2,note_on,47,76,0
2,note_on,47,0,120
2,note_on,35,0,0
2,note_on,47,65,360
2,note_on,51,65,0
2,note_on,54,65,0
2,note_on,59,77,0
2,note_on,59,0,120
2,note_on,47,0,0
2,note_on,51,0,0
2,note_on,54,0,0
2,note_on,60,64,1560
2,note_on,60,0,240
2,note_on,64,70,0
2,note_on,64,0,240
2,note_on,76,63,0
2,note_on,76,0,240
2,note_on,59,38,1200
2,note_on,59,0,240
2,note_on,63,42,0
2,note_on,63,0,240
2,note_on,75,37,0
2,note_on,75,0,240
2,note_on,60,26,1200
2,note_on,60,0,240
2,note_on,64,28,0
2,note_on,64,0,240
2,note_on,60,22,0
2,note_on,60,0,240
2,note_on,64,28,0
2,note_on,64,0,240
2,note_on,60,24,0
2,note_on,60,0,240
2,note_on,64,24,0
2,note_on,64,0,240
2,note_on,69,20,0
2,note_on,69,0,240
2,note_on,62,23,240
2,note_on,62,0,240
2,note_on,65,27,0
2,note_on,65,0,240
2,note_on,62,22,0
2,note_on,62,0,240
2,note_on,65,27,0
2,note_on,65,0,240
2,note_on,62,24,0
2,note_on,62,0,240
2,note_on,65,24,0
2,note_on,65,0,240
2,note_on,69,20,0
2,note_on,69,0,240
2,note_on,52,24,240
2,note_on,52,0,240
2,note_on,56,27,0
2,note_on,56,0,240
2,note_on,52,24,0
2,note_on,52,0,240
2,note_on,56,27,0
2,note_on,56,0,240
2,note_on,52,23,0
2,note_on,52,0,240
2,note_on,56,23,0
2,note_on,56,0,240
2,note_on,62,19,0
2,note_on,62,0,240
2,note_on,57,23,240
2,note_on,57,0,240
2,note_on,64,27,0
2,note_on,64,0,240
2,note_on,57,24,0
2,note_on,57,0,240
2,note_on,64,27,0
2,note_on,64,0,240
2,note_on,57,22,0
2,note_on,57,0,240
2,note_on,64,22,0
2,note_on,64,0,240
2,note_on,69,20,0
2,note_on,69,0,240
2,note_on,45,29,240
2,note_on,45,0,240
2,note_on,52,32,0
2,note_on,52,0,240
2,note_on,45,28,0
2,note_on,45,0,240
2,note_on,52,32,0
2,note_on,52,0,240
2,note_on,45,27,0
2,note_on,45,0,240
2,note_on,52,27,0
2,note_on,52,0,240
2,note_on,54,27,0
2,note_on,54,0,240
2,note_on,43,26,240
2,note_on,43,0,240
2,note_on,52,31,0
2,note_on,52,0,240
2,note_on,55,27,0
2,note_on,55,0,240
2,note_on,60,39,0
2,note_on,60,0,240
2,note_on,55,34,0
2,note_on,55,0,240
2,note_on,52,37,0
2,note_on,52,0,240
2,note_on,48,40,0
2,note_on,48,0,240
2,note_on,42,44,0
2,note_on,42,0,240
2,note_on,47,38,0
2,note_on,47,0,240
2,note_on,52,38,0
2,note_on,52,0,240
2,note_on,55,38,0
2,note_on,55,0,240
2,note_on,40,51,0
2,note_on,40,0,240
2,note_on,47,40,0
2,note_on,47,0,240
2,note_on,52,42,0
2,note_on,52,0,240
2,note_on,55,42,0
2,note_on,55,0,240
2,note_on,35,57,0
2,note_on,35,0,240
2,note_on,47,44,0
2,note_on,47,0,240
2,note_on,50,44,0
2,note_on,50,0,240
2,note_on,55,44,0
2,note_on,55,0,240
2,note_on,67,53,0
2,note_on,67,0,240
2,note_on,62,44,0
2,note_on,62,0,240
2,note_on,59,44,0
2,note_on,59,0,240
2,note_on,55,44,0
2,note_on,55,0,240
2,note_on,47,53,0
2,note_on,47,0,240
2,note_on,50,42,0
2,note_on,50,0,240
2,note_on,55,44,0
2,note_on,55,0,240
2,note_on,62,41,0
2,note_on,62,0,240
2,note_on,51,39,240
2,note_on,51,0,240
2,note_on,57,42,0
2,note_on,57,0,240
2,note_on,60,39,0
2,note_on,60,0,240
2,note_on,52,39,240
2,note_on,52,0,240
2,note_on,55,42,0
2,note_on,55,0,240
2,note_on,60,39,0
2,note_on,60,0,240
2,note_on,53,32,240
2,note_on,53,0,240
2,note_on,57,37,0
2,note_on,57,0,240
2,note_on,60,32,0
2,note_on,60,0,240
2,note_on,55,33,240
2,note_on,55,0,240
2,note_on,60,37,0
2,note_on,60,0,240
2,note_on,64,34,0
2,note_on,64,0,240
2,note_on,56,44,0
2,note_on,62,34,240
2,note_on,62,0,240
2,note_on,65,34,0
2,note_on,65,0,240
2,note_on,68,34,0
2,note_on,68,0,240
2,note_on,56,0,0
2,note_on,57,44,0
2,note_on,60,30,240
2,note_on,60,0,240
2,note_on,65,34,0
2,note_on,65,0,240
2,note_on,69,29,0
2,note_on,69,0,240
2,note_on,57,0,0
2,note_on,59,32,0
2,note_on,63,26,240
2,note_on,63,0,240
2,note_on,66,29,0
2,note_on,66,0,240
2,note_on,71,26,0
2,note_on,71,0,240
2,note_on,59,0,0
2,note_on,64,28,0
2,note_on,64,0,240
2,note_on,52,20,0
2,note_on,52,0,240
2,note_on,64,20,0
2,note_on,64,0,240
2,note_on,52,20,0
2,note_on,52,0,240
2,note_on,62,28,0
2,note_on,59,24,0
2,note_on,59,0,240
2,note_on,62,0,0
2,note_on,52,21,0
2,note_on,52,0,240
2,note_on,64,21,0
2,note_on,60,18,0
2,note_on,60,0,240
2,note_on,64,0,0
2,note_on,52,21,0
2,note_on,52,0,240
2,note_on,65,28,0
2,note_on,62,24,0
2,note_on,62,0,240
2,note_on,65,0,0
2,note_on,52,20,0
2,note_on,52,0,240
2,note_on,62,20,0
2,note_on,59,17,0
2,note_on,59,0,240
2,note_on,62,0,0
2,note_on,52,20,0
2,note_on,52,0,240
2,note_on,56,23,0
2,note_on,59,27,0
2,note_on,59,0,240
2,note_on,56,0,0
2,note_on,52,21,0
2,note_on,52,0,240
2,note_on,60,21,0
2,note_on,57,18,0
2,note_on,57,0,240
2,note_on,60,0,0
2,note_on,52,21,0
2,note_on,52,0,240
2,note_on,59,24,0
2,note_on,62,28,0
2,note_on,62,0,240
2,note_on,59,0,0
2,note_on,52,20,0
2,note_on,52,0,240
2,note_on,57,24,0
2,note_on,60,20,0
2,note_on,60,0,240
2,note_on,57,0,0
2,note_on,52,20,0
2,note_on,52,0,240
2,note_on,59,28,0
2,note_on,55,24,0
2,note_on,55,0,240
2,note_on,59,0,0
2,note_on,52,21,0
2,note_on,52,0,240
2,note_on,57,21,0
2,note_on,53,18,0
2,note_on,53,0,240
2,note_on,57,0,0
2,note_on,52,21,0
2,note_on,52,0,240
2,note_on,56,28,0
2,note_on,56,0,240
2,note_on,52,20,0
2,note_on,52,0,240
2,note_on,57,20,0
2,note_on,54,17,0
2,note_on,54,0,240
2,note_on,57,0,0
2,note_on,52,20,0
2,note_on,52,0,240
2,note_on,56,23,0
2,note_on,59,27,0
2,note_on,59,0,240
2,note_on,56,0,0
2,note_on,52,21,0
2,note_on,52,0,240
2,note_on,56,21,0
2,note_on,56,0,240
2,note_on,52,21,0
2,note_on,52,0,240
2,note_on,60,24,0
2,note_on,64,28,0
2,note_on,64,0,240
2,note_on,60,0,0
2,note_on,52,20,0
2,note_on,52,0,240
2,note_on,60,24,0
2,note_on,64,20,0
2,note_on,64,0,240
2,note_on,60,0,0
2,note_on,52,20,0
2,note_on,52,0,240
2,note_on,62,28,0
2,note_on,59,24,0
2,note_on,59,0,240
2,note_on,62,0,0
2,note_on,52,21,0
2,note_on,52,0,240
2,note_on,64,22,0
2,note_on,60,18,0
2,note_on,60,0,240
2,note_on,64,0,0
2,note_on,52,22,0
2,note_on,52,0,240
2,note_on,67,31,0
2,note_on,64,26,0
2,note_on,64,0,240
2,note_on,67,0,0
2,note_on,52,22,0
2,note_on,52,0,240
2,note_on,65,22,0
2,note_on,62,18,0
2,note_on,62,0,240
2,note_on,65,0,0
2,note_on,52,22,0
2,note_on,52,0,240
2,note_on,59,25,0
2,note_on,62,30,0
2,note_on,62,0,240
2,note_on,59,0,0
2,note_on,52,23,0
2,note_on,52,0,240
2,note_on,65,23,0
2,note_on,62,19,0
2,note_on,62,0,240
2,note_on,65,0,0
2,note_on,52,23,0
2,note_on,52,0,240
2,note_on,60,26,0
2,note_on,64,31,0
2,note_on,64,0,240
2,note_on,60,0,0
2,note_on,52,22,0
2,note_on,52,0,240
2,note_on,57,26,0
2,note_on,60,21,0
2,note_on,60,0,240
2,note_on,57,0,0
2,note_on,52,21,0
2,note_on,52,0,240
2,note_on,62,29,0
2,note_on,59,25,0
2,note_on,59,0,240
2,note_on,62,0,0
2,note_on,52,21,0
2,note_on,52,0,240
2,note_on,59,21,0
2,note_on,56,18,0
2,note_on,56,0,240
2,note_on,59,0,0
2,note_on,52,21,0
2,note_on,52,0,240
2,note_on,57,24,0
2,note_on,60,28,0
2,note_on,60,0,240
2,note_on,57,0,0
2,note_on,52,20,0
2,note_on,52,0,240
2,note_on,57,20,0
2,note_on,54,17,0
2,note_on,54,0,240
2,note_on,57,0,0
2,note_on,52,20,0
2,note_on,52,0,240
2,note_on,56,23,0
2,note_on,59,27,0
2,note_on,59,0,240
2,note_on,56,0,0
2,note_on,52,21,0
2,note_on,52,0,240
2,note_on,56,21,0
2,note_on,56,0,240
2,note_on,52,21,0
2,note_on,52,0,240
2,note_on,60,29,0
2,note_on,60,0,240
2,note_on,57,21,0
2,note_on,57,0,240
2,note_on,52,24,0
2,note_on,52,0,240
2,note_on,48,21,0
2,note_on,48,0,240
2,note_on,60,29,0
2,note_on,60,0,240
2,note_on,57,22,0
2,note_on,57,0,240
2,note_on,52,24,0
2,note_on,52,0,240
2,note_on,48,20,0
2,note_on,48,0,240
2,note_on,62,29,0
2,note_on,62,0,240
2,note_on,57,20,0
2,note_on,57,0,240
2,note_on,53,24,0
2,note_on,53,0,240
2,note_on,50,21,0
2,note_on,50,0,240
2,note_on,62,29,0
2,note_on,62,0,240
2,note_on,57,24,0
2,note_on,57,0,240
2,note_on,53,24,0
2,note_on,50,23,226
2,note_on,53,0,14
2,note_on,50,0,226
2,note_on,62,29,14
2,note_on,62,0,240
2,note_on,59,21,0
2,note_on,59,0,240
2,note_on,57,24,0
2,note_on,57,0,240
2,note_on,52,22,0
2,note_on,52,0,240
2,note_on,62,30,0
2,note_on,62,0,240
2,note_on,59,22,0
2,note_on,59,0,240
2,note_on,56,25,0
2,note_on,56,0,240
2,note_on,52,25,0
2,note_on,52,0,240
2,note_on,69,30,0
2,note_on,69,0,240
2,note_on,65,23,0
2,note_on,65,0,240
2,note_on,64,25,0
2,note_on,64,0,240
2,note_on,57,22,0
2,note_on,57,0,240
2,note_on,69,31,0
2,note_on,69,0,240
2,note_on,64,25,0
2,note_on,64,0,240
2,note_on,60,29,0
2,note_on,60,0,240
2,note_on,57,26,0
2,note_on,57,0,240
2,note_on,38,43,0
2,note_on,38,0,240
2,note_on,50,38,0
2,note_on,50,0,240
2,note_on,53,42,0
2,note_on,57,47,240
2,note_on,62,51,240
2,note_on,62,0,1920
2,note_on,57,0,0
2,note_on,53,0,0
2,note_on,38,43,960
2,note_on,38,0,240
2,note_on,50,38,0
2,note_on,50,0,240
2,note_on,53,42,0
2,note_on,56,47,240
2,note_on,59,51,240
2,note_on,59,0,1440
2,note_on,56,0,0
2,note_on,53,0,0
2,note_on,56,43,480
2,note_on,58,43,0
2,note_on,62,43,0
2,note_on,65,51,0
2,note_on,70,60,0
2,note_on,70,0,720
2,note_on,62,0,0
2,note_on,56,0,0
2,note_on,58,0,0
2,note_on,65,0,0
2,note_on,43,45,1200
2,note_on,44,37,120
2,note_on,43,0,12
2,note_on,43,37,108
2,note_on,44,0,12
2,note_on,42,37,108
2,note_on,43,0,12
2,note_on,43,45,108
2,note_on,42,0,12
2,note_on,46,42,108
2,note_on,43,0,12
2,note_on,51,45,108
2,note_on,46,0,12
2,note_on,55,48,108
2,note_on,51,0,12
2,note_on,56,52,108
2,note_on,58,52,0
2,note_on,55,0,12
2,note_on,58,0,708
2,note_on,56,0,0
2,note_on,55,45,240
2,note_on,56,37,120
2,note_on,55,0,12
2,note_on,55,37,108
2,note_on,56,0,12
2,note_on,54,37,108
2,note_on,55,0,12
2,note_on,55,45,108
2,note_on,54,0,12
2,note_on,58,42,108
2,note_on,55,0,12
2,note_on,63,45,108
2,note_on,58,0,12
2,note_on,67,48,108
2,note_on,63,0,12
2,note_on,68,59,108
2,note_on,70,59,0
2,note_on,67,0,12
2,note_on,70,0,708
2,note_on,68,0,0
2,note_on,80,51,240
2,note_on,77,42,120
2,note_on,80,0,12
2,note_on,74,42,108
2,note_on,77,0,12
2,note_on,70,42,108
2,note_on,74,0,12
2,note_on,68,51,108
2,note_on,70,0,12
2,note_on,65,48,108
2,note_on,68,0,12
2,note_on,62,51,108
2,note_on,65,0,12
2,note_on,56,55,108
2,note_on,62,0,12
2,note_on,57,55,108
2,note_on,56,0,12
2,note_on,53,46,948
2,note_on,62,60,0
2,note_on,62,0,960
2,note_on,53,0,0
2,note_on,52,50,0
2,note_on,64,59,0
2,note_on,64,0,960
2,note_on,52,0,0
2,note_on,50,52,0
2,note_on,65,62,0
2,note_on,65,0,1920
2,note_on,50,0,0
2,note_on,53,45,0
2,note_on,62,54,0
2,note_on,62,0,960
2,note_on,53,0,0
2,note_on,52,40,0
2,note_on,60,48,0
2,note_on,60,0,960
2,note_on,52,0,0
2,note_on,57,0,0
2,note_on,52,28,960
2,note_on,56,28,0
2,note_on,59,33,0
2,note_on,65,44,480
2,note_on,56,0,460
2,note_on,52,0,20
2,note_on,59,0,0
2,note_on,65,0,0
2,note_on,64,33,0
2,note_on,64,0,480
2,note_on,56,24,0
2,note_on,56,0,480
2,note_on,45,27,0
2,note_on,57,32,0
2,note_on,57,0,960
2,note_on,45,0,0
2,note_on,67,32,0
2,note_on,64,24,0
2,note_on,64,0,240
2,note_on,57,21,0
2,note_on,57,0,240
2,note_on,67,0,0
2,note_on,69,24,0
2,note_on,65,18,0
2,note_on,65,0,240
2,note_on,57,21,0
2,note_on,57,0,240
2,note_on,69,0,0
2,note_on,70,32,0
2,note_on,67,24,0
2,note_on,67,0,240
2,note_on,70,0,0
2,note_on,57,20,0
2,note_on,57,0,240
2,note_on,67,23,0
2,note_on,64,17,0
2,note_on,64,0,240
2,note_on,67,0,0
2,note_on,57,20,0
2,note_on,57,0,240
2,note_on,61,23,0
2,note_on,64,31,0
2,note_on,64,0,240
2,note_on,61,0,0
2,note_on,57,21,0
2,note_on,57,0,240
2,note_on,65,24,0
2,note_on,62,18,0
2,note_on,62,0,240
2,note_on,65,0,0
2,note_on,57,21,0
2,note_on,57,0,240
2,note_on,64,24,0
2,note_on,67,32,0
2,note_on,67,0,240
2,note_on,64,0,0
2,note_on,57,20,0
2,note_on,57,0,240
2,note_on,62,24,0
2,note_on,65,23,0
2,note_on,65,0,240
2,note_on,62,0,0
2,note_on,57,20,0
2,note_on,57,0,240
2,note_on,64,32,0
2,note_on,60,24,0
2,note_on,60,0,240
2,note_on,64,0,0
2,note_on,57,21,0
2,note_on,57,0,240
2,note_on,62,24,0
2,note_on,58,18,0
2,note_on,58,0,240
2,note_on,62,0,0
2,note_on,57,21,0
2,note_on,57,0,240
2,note_on,61,32,0
2,note_on,61,0,240
2,note_on,57,23,0
2,note_on,57,0,240
2,note_on,59,19,0
2,note_on,62,23,0
2,note_on,62,0,240
2,note_on,59,0,0
2,note_on,57,23,0
2,note_on,57,0,240
2,note_on,61,26,0
2,note_on,64,31,0
2,note_on,64,0,240
2,note_on,61,0,0
2,note_on,57,24,11
2,note_on,61,24,229
2,note_on,64,24,0
2,note_on,57,0,11
2,note_on,64,0,229
2,note_on,61,0,0
2,note_on,57,20,11
2,note_on,69,32,229
2,note_on,57,0,11
2,note_on,69,0,229
2,note_on,57,23,0
2,note_on,57,0,240
2,note_on,69,23,0
2,note_on,69,0,240
2,note_on,57,23,0
2,note_on,57,0,240
2,note_on,69,31,0
2,note_on,69,0,240
2,note_on,57,29,11
2,note_on,69,34,229
2,note_on,57,0,11
2,note_on,69,0,229
2,note_on,57,39,11
2,note_on,64,44,229
2,note_on,57,0,11
2,note_on,64,0,229
2,note_on,57,25,0
2,note_on,64,25,228
2,note_on,57,0,12
2,note_on,64,0,228
2,note_on,57,25,12
2,note_on,57,0,240
2,note_on,64,34,0
2,note_on,64,0,240
2,note_on,57,26,11
2,note_on,64,26,229
2,note_on,57,0,11
2,note_on,64,0,229
2,note_on,57,22,11
2,note_on,67,46,229
2,note_on,57,0,11
2,note_on,67,0,229
2,note_on,55,30,0
2,note_on,55,0,240
2,note_on,67,32,0
2,note_on,67,0,240
2,note_on,55,34,0
2,note_on,55,0,240
2,note_on,67,42,0
2,note_on,67,0,240
2,note_on,55,34,0
2,note_on,55,0,240
2,note_on,67,34,0
2,note_on,67,0,240
2,note_on,55,34,0
2,note_on,55,0,240
2,note_on,66,48,0
2,note_on,66,0,240
2,note_on,55,36,0
2,note_on,55,0,240
2,note_on,66,37,0
2,note_on,66,0,240
2,note_on,55,37,0
2,note_on,55,0,240
2,note_on,65,47,0
2,note_on,65,0,240
2,note_on,55,34,0
2,note_on,55,0,240
2,note_on,65,34,0
2,note_on,65,0,240
2,note_on,55,27,0
2,note_on,55,0,240
2,note_on,64,50,0
2,note_on,64,0,240
2,note_on,55,36,0
2,note_on,55,0,240
2,note_on,64,36,0
2,note_on,64,0,240
2,note_on,55,36,0
2,note_on,55,0,240
2,note_on,62,50,0
2,note_on,62,0,240
2,note_on,55,40,0
2,note_on,55,0,240
2,note_on,62,40,0
2,note_on,62,0,240
2,note_on,55,40,0
2,note_on,55,0,240
2,note_on,60,52,0
2,note_on,60,0,240
2,note_on,55,39,0
2,note_on,55,0,240
2,note_on,60,42,0
2,note_on,60,0,240
2,note_on,55,48,0
2,note_on,55,0,240
2,note_on,59,45,0
2,note_on,59,0,240
2,note_on,55,45,0
2,note_on,55,0,240
2,note_on,59,52,0
2,note_on,59,0,240
2,note_on,55,45,0
2,note_on,55,0,240
2,note_on,67,55,0
2,note_on,67,0,240
2,note_on,55,46,0
2,note_on,55,0,240
2,note_on,67,55,0
2,note_on,67,0,240
2,note_on,55,47,0
2,note_on,55,0,240
2,note_on,67,60,0
2,note_on,67,0,240
2,note_on,55,49,0
2,note_on,55,0,240
2,note_on,67,63,0
2,note_on,67,0,240
2,note_on,55,51,0
2,note_on,62,58,180
2,note_on,65,63,30
2,note_on,71,68,30
2,note_on,71,0,240
2,note_on,55,0,0
2,note_on,62,0,0
2,note_on,65,0,0
2,note_on,64,50,0
2,note_on,76,59,0
2,note_on,76,0,240
2,note_on,64,0,0
2,note_on,65,56,0
2,note_on,77,66,0
2,note_on,77,0,240
2,note_on,65,0,0
2,note_on,61,50,0
2,note_on,73,59,0
2,note_on,73,0,240
2,note_on,61,0,0
2,note_on,62,56,0
2,note_on,74,67,0
2,note_on,74,0,240
2,note_on,62,0,0
2,note_on,58,50,0
2,note_on,70,59,0
2,note_on,70,0,240
2,note_on,58,0,0
2,note_on,59,56,0
2,note_on,71,66,0
2,note_on,71,0,240
2,note_on,59,0,0
2,note_on,55,50,0
2,note_on,67,59,0
2,note_on,67,0,120
2,note_on,55,0,0
2,note_on,40,50,360
2,note_on,52,59,0
2,note_on,52,0,240
2,note_on,40,0,0
2,note_on,41,56,0
2,note_on,53,66,0
2,note_on,53,0,240
2,note_on,41,0,0
2,note_on,37,50,0
2,note_on,49,59,0
2,note_on,49,0,240
2,note_on,37,0,0
2,note_on,38,56,0
2,note_on,50,67,0
2,note_on,50,0,240
2,note_on,38,0,0
2,note_on,34,50,0
2,note_on,46,59,0
2,note_on,46,0,240
2,note_on,34,0,0
2,note_on,35,56,0
2,note_on,47,66,0
2,note_on,47,0,240
2,note_on,35,0,0
2,note_on,31,50,0
2,note_on,43,59,0
2,note_on,43,0,120
2,note_on,31,0,0
2,note_on,48,64,120
2,note_on,55,67,30
2,note_on,60,70,30
2,note_on,64,73,30
2,note_on,64,0,630
2,note_on,48,0,0
2,note_on,55,0,0
2,note_on,60,0,0
2,note_on,36,55,0
2,note_on,43,55,0
2,note_on,48,65,0
2,note_on,48,0,216
2,note_on,43,0,0
2,note_on,36,0,0
2,note_on,36,55,24
2,note_on,43,55,0
2,note_on,48,65,0
2,note_on,48,0,480
2,note_on,43,0,0
2,note_on,36,0,0
2,note_on,38,50,0
2,note_on,50,59,0
2,note_on,50,0,120
2,note_on,38,0,0
2,note_on,40,55,120
2,note_on,48,55,0
2,note_on,52,65,0
2,note_on,52,0,120
2,note_on,48,0,0
2,note_on,40,0,0
2,note_on,41,56,120
2,note_on,48,56,0
2,note_on,53,67,0
2,note_on,53,0,120
2,note_on,48,0,0
2,note_on,41,0,0
2,note_on,40,52,360
2,note_on,48,52,0
2,note_on,52,62,0
2,note_on,52,0,120
2,note_on,48,0,0
2,note_on,40,0,0
2,note_on,36,55,1080
2,note_on,43,55,0
2,note_on,48,65,0
2,note_on,48,0,216
2,note_on,43,0,0
2,note_on,36,0,0
2,note_on,36,55,24
2,note_on,43,55,0
2,note_on,48,65,0
2,note_on,48,0,480
2,note_on,43,0,0
2,note_on,36,0,0
2,note_on,38,50,0
2,note_on,50,59,0
2,note_on,50,0,120
2,note_on,38,0,0
2,note_on,40,55,120
2,note_on,48,55,0
2,note_on,52,65,0
2,note_on,52,0,120
2,note_on,48,0,0
2,note_on,40,0,0
2,note_on,41,56,120
2,note_on,48,56,0
2,note_on,53,67,0
2,note_on,53,0,240
2,note_on,48,0,0
2,note_on,41,0,0
2,note_on,48,50,240
2,note_on,40,50,0
2,note_on,52,59,0
2,note_on,52,0,120
2,note_on,40,0,0
2,note_on,48,0,0
2,note_on,41,55,120
2,note_on,48,55,0
2,note_on,53,65,0
2,note_on,53,0,120
2,note_on,48,0,0
2,note_on,41,0,0
2,note_on,43,56,120
2,note_on,48,56,0
2,note_on,55,67,0
2,note_on,55,0,120
2,note_on,48,0,0
2,note_on,43,0,0
2,note_on,41,52,360
2,note_on,48,52,0
2,note_on,53,62,0
2,note_on,53,0,120
2,note_on,48,0,0
2,note_on,41,0,0
2,note_on,48,50,840
2,note_on,40,50,0
2,note_on,52,59,0
2,note_on,52,0,120
2,note_on,40,0,0
2,note_on,48,0,0
2,note_on,41,55,120
2,note_on,48,55,0
2,note_on,53,65,0
2,note_on,53,0,120
2,note_on,48,0,0
2,note_on,41,0,0
2,note_on,38,56,120
2,note_on,50,67,0
2,note_on,50,0,120
2,note_on,38,0,0
2,note_on,40,57,360
2,note_on,52,68,0
2,note_on,52,0,120
2,note_on,40,0,0
2,note_on,35,59,360
2,note_on,47,70,0
2,note_on,47,0,120
2,note_on,35,0,0
2,note_on,36,62,360
2,note_on,48,73,0
2,note_on,48,0,120
2,note_on,36,0,0
2,note_on,33,67,360
2,note_on,38,67,0
2,note_on,45,79,0
2,note_on,38,0,940
2,note_on,45,0,20
2,note_on,33,0,0
2,note_on,31,63,0
2,note_on,38,63,0
2,note_on,43,75,0
2,note_on,43,0,480
2,note_on,38,0,0
2,note_on,31,0,0
2,note_on,62,70,0
2,note_on,62,0,120
2,note_on,66,63,120
2,note_on,66,0,120
2,note_on,67,69,120
2,note_on,67,0,120
2,note_on,50,56,360
2,note_on,50,0,120
2,note_on,54,50,120
2,note_on,54,0,120
2,note_on,55,55,120
2,note_on,55,0,120
2,note_on,38,56,360
2,note_on,38,0,120
2,note_on,42,50,120
2,note_on,42,0,120
2,note_on,43,55,120
2,note_on,43,0,480
2,note_on,55,55,480
2,note_on,58,55,0
2,note_on,58,0,960
2,note_on,55,0,0
2,note_on,46,60,0
2,note_on,53,63,30
2,note_on,58,67,30
2,note_on,62,70,30
2,note_on,62,0,630
2,note_on,46,0,0
2,note_on,53,0,0
2,note_on,58,0,0
2,note_on,34,55,0
2,note_on,46,65,0
2,note_on,46,0,216
2,note_on,34,0,0
2,note_on,34,55,24
2,note_on,46,65,0
2,note_on,46,0,480
2,note_on,34,0,0
2,note_on,36,50,0
2,note_on,48,59,0
2,note_on,48,0,120
2,note_on,36,0,0
2,note_on,38,55,120
2,note_on,50,65,0
2,note_on,50,0,120
2,note_on,38,0,0
2,note_on,39,56,120
2,note_on,46,56,0
2,note_on,51,67,0
2,note_on,51,0,120
2,note_on,46,0,0
2,note_on,39,0,0
2,note_on,38,52,360
2,note_on,46,52,0
2,note_on,50,62,0
2,note_on,50,0,120
2,note_on,46,0,0
2,note_on,38,0,0
2,note_on,34,55,1080
2,note_on,46,65,0
2,note_on,46,0,216
2,note_on,34,0,0
2,note_on,34,55,24
2,note_on,46,65,0
2,note_on,46,0,480
2,note_on,34,0,0
2,note_on,36,50,0
2,note_on,48,59,0
2,note_on,48,0,120
2,note_on,36,0,0
2,note_on,38,55,120
2,note_on,50,65,0
2,note_on,50,0,120
2,note_on,38,0,0
2,note_on,39,56,120
2,note_on,46,56,0
2,note_on,51,67,0
2,note_on,51,0,240
2,note_on,46,0,0
2,note_on,39,0,0
2,note_on,46,50,240
2,note_on,38,50,0
2,note_on,50,59,0
2,note_on,50,0,120
2,note_on,38,0,0
2,note_on,46,0,0
2,note_on,39,55,120
2,note_on,46,55,0
2,note_on,51,65,0
2,note_on,51,0,120
2,note_on,46,0,0
2,note_on,39,0,0
2,note_on,41,56,120
2,note_on,46,56,0
2,note_on,53,67,0
2,note_on,53,0,120
2,note_on,46,0,0
2,note_on,41,0,0
2,note_on,39,52,360
2,note_on,46,52,0
2,note_on,51,62,0
2,note_on,51,0,120
2,note_on,46,0,0
2,note_on,39,0,0
2,note_on,38,50,840
2,note_on,50,59,0
2,note_on,50,0,120
2,note_on,38,0,0
2,note_on,39,55,120
2,note_on,51,65,0
2,note_on,51,0,120
2,note_on,39,0,0
2,note_on,41,56,120
2,note_on,53,67,0
2,note_on,53,0,120
2,note_on,41,0,0
2,note_on,39,57,360
2,note_on,51,68,0
2,note_on,51,0,120
2,note_on,39,0,0
2,note_on,35,59,360
2,note_on,47,70,0
2,note_on,47,0,120
2,note_on,35,0,0
2,note_on,36,62,360
2,note_on,48,73,0
2,note_on,48,0,120
2,note_on,36,0,0
2,note_on,33,62,360
2,note_on,45,73,0
2,note_on,45,0,120
2,note_on,33,0,0
2,note_on,32,62,360
2,note_on,38,62,0
2,note_on,44,73,0
2,note_on,38,0,940
2,note_on,44,0,20
2,note_on,32,0,0
2,note_on,31,62,0
2,note_on,38,62,0
2,note_on,43,73,0
2,note_on,38,0,940
2,note_on,43,0,20
2,note_on,31,0,0
2,note_on,30,62,0
2,note_on,38,62,0
2,note_on,42,73,0
2,note_on,42,0,940
2,note_on,38,0,0
2,note_on,30,0,0
2,note_on,30,62,20
2,note_on,38,62,0
2,note_on,42,73,0
2,note_on,42,0,480
2,note_on,38,0,0
2,note_on,30,0,0
2,note_on,31,51,0
2,note_on,38,51,0
2,note_on,43,61,0
2,note_on,43,0,120
2,note_on,38,0,0
2,note_on,31,0,0
2,note_on,50,58,360
2,note_on,53,58,0
2,note_on,59,69,0
2,note_on,55,58,0
2,note_on,55,0,960
2,note_on,50,0,0
2,note_on,53,0,0
2,note_on,59,0,0
2,note_on,31,48,0
2,note_on,43,57,0
2,note_on,43,0,120
2,note_on,31,0,0
2,note_on,36,54,360
2,note_on,43,54,0
2,note_on,48,64,0
2,note_on,48,0,120
2,note_on,43,0,0
2,note_on,36,0,0
2,note_on,48,34,600
2,note_on,52,40,0
2,note_on,52,0,216
2,note_on,48,0,0
2,note_on,48,39,24
2,note_on,52,46,0
2,note_on,52,0,480
2,note_on,48,0,0
2,note_on,50,34,0
2,note_on,53,41,0
2,note_on,53,0,120
2,note_on,50,0,0
2,note_on,52,36,120
2,note_on,55,43,0
2,note_on,55,0,120
2,note_on,52,0,0
2,note_on,53,39,120
2,note_on,57,46,0
2,note_on,57,0,120
2,note_on,53,0,0
2,note_on,52,34,360
2,note_on,55,40,0
2,note_on,55,0,120
2,note_on,52,0,0
2,note_on,55,37,360
2,note_on,59,44,0
2,note_on,59,0,480
2,note_on,55,0,0
2,note_on,60,41,0
2,note_on,57,34,0
2,note_on,57,0,120
2,note_on,60,0,0
2,note_on,59,37,120
2,note_on,62,44,0
2,note_on,62,0,120
2,note_on,59,0,0
2,note_on,65,47,120
2,note_on,60,39,0
2,note_on,60,0,480
2,note_on,65,0,0
2,note_on,64,44,0
2,note_on,60,37,0
2,note_on,60,0,120
2,note_on,64,0,0
2,note_on,62,40,120
2,note_on,55,34,0
2,note_on,55,0,120
2,note_on,62,0,0
2,note_on,64,49,120
2,note_on,60,41,0
2,note_on,60,0,480
2,note_on,64,0,0
2,note_on,62,42,0
2,note_on,55,35,0
2,note_on,55,0,120
2,note_on,62,0,0
2,note_on,52,35,120
2,note_on,60,42,0
2,note_on,60,0,120
2,note_on,52,0,0
2,note_on,59,49,120
2,note_on,55,41,0
2,note_on,55,0,720
2,note_on,59,0,0
2,note_on,64,44,0
2,note_on,60,37,0
2,note_on,60,0,216
2,note_on,64,0,0
2,note_on,64,53,24
2,note_on,60,45,0
2,note_on,64,0,700
2,note_on,60,0,20
2,note_on,67,47,0
2,note_on,64,39,0
2,note_on,64,0,216
2,note_on,67,0,0
2,note_on,67,54,24
2,note_on,64,45,0
2,note_on,64,0,480
2,note_on,67,0,0
2,note_on,65,50,0
2,note_on,65,0,120
2,note_on,50,39,360
2,note_on,53,46,0
2,note_on,53,0,480
2,note_on,50,0,0
2,note_on,52,34,0
2,note_on,55,41,0
2,note_on,55,0,120
2,note_on,52,0,0
2,note_on,53,36,120
2,note_on,57,43,0
2,note_on,57,0,120
2,note_on,53,0,0
2,note_on,55,39,120
2,note_on,58,46,0
2,note_on,58,0,120
2,note_on,55,0,0
2,note_on,53,34,360
2,note_on,57,40,0
2,note_on,57,0,120
2,note_on,53,0,0
2,note_on,57,37,360
2,note_on,61,44,0
2,note_on,61,0,480
2,note_on,57,0,0
2,note_on,62,41,0
2,note_on,59,34,0
2,note_on,59,0,120
2,note_on,62,0,0
2,note_on,61,37,120
2,note_on,64,44,0
2,note_on,64,0,120
2,note_on,61,0,0
2,note_on,67,47,120
2,note_on,62,39,0
2,note_on,62,0,480
2,note_on,67,0,0
2,note_on,65,44,0
2,note_on,62,37,0
2,note_on,62,0,120
2,note_on,65,0,0
2,note_on,64,40,120
2,note_on,57,34,0
2,note_on,57,0,120
2,note_on,64,0,0
2,note_on,65,49,120
2,note_on,62,41,0
2,note_on,62,0,480
2,note_on,65,0,0
2,note_on,64,42,0
2,note_on,57,35,0
2,note_on,57,0,120
2,note_on,64,0,0
2,note_on,53,35,120
2,note_on,62,42,0
2,note_on,62,0,120
2,note_on,53,0,0
2,note_on,61,49,120
2,note_on,57,41,0
2,note_on,57,0,720
2,note_on,61,0,0
2,note_on,65,44,0
2,note_on,62,37,0
2,note_on,62,0,216
2,note_on,65,0,0
2,note_on,65,53,24
2,note_on,62,45,0
2,note_on,62,0,700
2,note_on,65,0,0
2,note_on,69,47,20
2,note_on,65,39,0
2,note_on,65,0,216
2,note_on,69,0,0
2,note_on,69,54,24
2,note_on,66,45,0
2,note_on,66,0,480
2,note_on,69,0,0
2,note_on,67,50,0
2,note_on,67,0,120
2,note_on,52,37,360
2,note_on,55,44,0
2,note_on,55,0,480
2,note_on,52,0,0
2,note_on,57,41,0
2,note_on,54,34,0
2,note_on,54,0,120
2,note_on,57,0,0
2,note_on,55,37,120
2,note_on,59,44,0
2,note_on,59,0,120
2,note_on,55,0,0
2,note_on,60,54,120
2,note_on,57,45,0
2,note_on,57,0,720
2,note_on,60,0,0
2,note_on,55,44,240
2,note_on,64,52,0
2,note_on,64,0,480
2,note_on,55,0,0
2,note_on,66,46,0
2,note_on,57,39,0
2,note_on,57,0,120
2,note_on,66,0,0
2,note_on,59,41,120
2,note_on,67,49,0
2,note_on,67,0,120
2,note_on,59,0,0
2,note_on,60,51,120
2,note_on,69,60,0
2,note_on,63,51,0
2,note_on,63,0,480
2,note_on,69,0,0
2,note_on,60,0,0
2,note_on,60,47,240
2,note_on,63,47,0
2,note_on,69,56,0
2,note_on,69,0,240
2,note_on,63,0,0
2,note_on,60,0,0
2,note_on,61,54,0
2,note_on,70,64,0
2,note_on,64,54,0
2,note_on,64,0,480
2,note_on,70,0,0
2,note_on,61,0,0
2,note_on,51,50,1200
2,note_on,47,50,0
2,note_on,47,0,216
2,note_on,51,0,0
2,note_on,51,58,24
2,note_on,47,58,0
2,note_on,47,0,480
2,note_on,51,0,0
2,note_on,49,51,0
2,note_on,52,51,0
2,note_on,52,0,120
2,note_on,49,0,0
2,note_on,51,53,120
2,note_on,54,53,0
2,note_on,54,0,120
2,note_on,51,0,0
2,note_on,52,61,120
2,note_on,56,61,0
2,note_on,56,0,480
2,note_on,52,0,0
2,note_on,59,54,0
2,note_on,56,54,0
2,note_on,56,0,120
2,note_on,59,0,0
2,note_on,61,58,120
2,note_on,57,58,0
2,note_on,57,0,120
2,note_on,61,0,0
2,note_on,63,61,120
2,note_on,59,61,0
2,note_on,59,0,480
2,note_on,63,0,0
2,note_on,61,59,0
2,note_on,64,59,0
2,note_on,64,0,120
2,note_on,61,0,0
2,note_on,63,61,120
2,note_on,66,61,0
2,note_on,66,0,120
2,note_on,63,0,0
2,note_on,64,63,120
2,note_on,68,63,0
2,note_on,68,0,480
2,note_on,64,0,0
2,note_on,66,61,0
2,note_on,69,61,0
2,note_on,69,0,120
2,note_on,66,0,0
2,note_on,68,64,120
2,note_on,71,64,0
2,note_on,71,0,120
2,note_on,68,0,0
2,note_on,69,69,120
2,note_on,72,69,0
2,note_on,72,0,240
2,note_on,69,0,0
2,note_on,70,63,0
2,note_on,73,63,0
2,note_on,73,0,216
2,note_on,70,0,0
2,note_on,70,63,24
2,note_on,73,63,0
2,note_on,73,0,720
2,note_on,70,0,0
2,note_on,69,60,0
2,note_on,72,60,0
2,note_on,72,0,216
2,note_on,69,0,0
2,note_on,69,63,24
2,note_on,72,63,0
2,note_on,72,0,240
2,note_on,69,0,0
2,note_on,70,57,0
2,note_on,73,57,0
2,note_on,73,0,216
2,note_on,70,0,0
2,note_on,70,57,24
2,note_on,73,57,0
2,note_on,73,0,240
2,note_on,70,0,0
2,note_on,71,57,0
2,note_on,74,57,0
2,note_on,74,0,216
2,note_on,71,0,0
2,note_on,71,63,24
2,note_on,74,63,0
2,note_on,74,0,720
2,note_on,71,0,0
2,note_on,70,63,0
2,note_on,73,63,0
2,note_on,73,0,240
2,note_on,70,0,0
2,note_on,70,68,0
2,note_on,73,68,0
2,note_on,73,0,240
2,note_on,70,0,0
2,note_on,71,63,0
2,note_on,74,63,0
2,note_on,74,0,216
2,note_on,71,0,0
2,note_on,71,65,24
2,note_on,74,65,0
2,note_on,74,0,240
2,note_on,71,0,0
2,note_on,72,63,0
2,note_on,72,0,240
2,note_on,72,71,0
2,note_on,72,0,720
2,note_on,73,63,0
2,note_on,73,0,216
2,note_on,73,71,24
2,note_on,73,0,240
2,note_on,70,63,0
2,note_on,70,0,216
2,note_on,70,67,24
2,note_on,70,0,240
2,note_on,67,63,0
2,note_on,67,0,216
2,note_on,67,73,24
2,note_on,67,0,240
2,note_on,58,67,0
2,note_on,58,0,240
2,note_on,59,74,0
2,note_on,59,0,120
2,note_on,47,70,120
2,note_on,47,0,240
2,note_on,60,74,0
2,note_on,48,62,0
2,note_on,48,0,720
2,note_on,60,0,0
2,note_on,35,69,0
2,note_on,35,0,240
2,note_on,36,62,0
2,note_on,48,74,0
2,note_on,48,0,480
2,note_on,36,0,0
2,note_on,47,69,240
2,note_on,47,0,240
2,note_on,48,58,0
2,note_on,60,69,0
2,note_on,60,0,480
2,note_on,48,0,0
2,note_on,35,68,240
2,note_on,35,0,240
2,note_on,36,62,0
2,note_on,48,74,0
2,note_on,48,0,480
2,note_on,36,0,0
2,note_on,35,64,0
2,note_on,47,76,0
2,note_on,47,0,120
2,note_on,35,0,0
2,note_on,47,65,360
2,note_on,51,65,0
2,note_on,54,65,0
2,note_on,59,77,0
2,note_on,59,0,120
2,note_on,47,0,0
2,note_on,51,0,0
2,note_on,54,0,0
2,note_on,60,64,1560
2,note_on,60,0,240
2,note_on,64,70,0
2,note_on,64,0,240
2,note_on,76,63,0
2,note_on,76,0,240
2,note_on,59,38,1200
2,note_on,59,0,240
2,note_on,63,42,0
2,note_on,63,0,240
2,note_on,75,37,0
2,note_on,75,0,240
2,note_on,60,26,1200
2,note_on,60,0,240
2,note_on,64,28,0
2,note_on,64,0,240
2,note_on,60,22,0
2,note_on,60,0,240
2,note_on,64,28,0
2,note_on,64,0,240
2,note_on,60,21,0
2,note_on,60,0,240
2,note_on,64,24,0
2,note_on,64,0,240
2,note_on,69,20,0
2,note_on,69,0,240
2,note_on,62,23,240
2,note_on,62,0,240
2,note_on,65,27,0
2,note_on,65,0,240
2,note_on,62,22,0
2,note_on,62,0,240
2,note_on,65,27,0
2,note_on,65,0,240
2,note_on,62,24,0
2,note_on,62,0,240
2,note_on,65,24,0
2,note_on,65,0,240
2,note_on,69,20,0
2,note_on,69,0,240
2,note_on,52,24,240
2,note_on,52,0,240
2,note_on,56,27,0
2,note_on,56,0,240
2,note_on,52,24,0
2,note_on,52,0,240
2,note_on,56,27,0
2,note_on,56,0,240
2,note_on,52,23,0
2,note_on,52,0,240
2,note_on,56,23,0
2,note_on,56,0,240
2,note_on,62,19,0
2,note_on,62,0,240
2,note_on,57,23,240
2,note_on,57,0,240
2,note_on,64,27,0
2,note_on,64,0,240
2,note_on,57,24,0
2,note_on,57,0,240
2,note_on,64,27,0
2,note_on,64,0,240
2,note_on,57,22,0
2,note_on,57,0,240
2,note_on,64,22,0
2,note_on,64,0,240
2,note_on,69,20,0
2,note_on,69,0,240
2,note_on,45,29,240
2,note_on,45,0,240
2,note_on,52,32,0
2,note_on,52,0,240
2,note_on,45,28,0
2,note_on,45,0,240
2,note_on,52,32,0
2,note_on,52,0,240
2,note_on,45,27,0
2,note_on,45,0,240
2,note_on,52,27,0
2,note_on,52,0,240
2,note_on,54,27,0
2,note_on,54,0,240
2,note_on,43,26,240
2,note_on,43,0,240
2,note_on,52,31,0
2,note_on,52,0,240
2,note_on,55,27,0
2,note_on,55,0,240
2,note_on,60,39,0
2,note_on,60,0,240
2,note_on,55,34,0
2,note_on,55,0,240
2,note_on,52,37,0
2,note_on,52,0,240
2,note_on,48,40,0
2,note_on,48,0,240
2,note_on,42,44,0
2,note_on,42,0,240
2,note_on,47,38,0
2,note_on,47,0,240
2,note_on,52,38,0
2,note_on,52,0,240
2,note_on,55,38,0
2,note_on,55,0,240
2,note_on,40,51,0
2,note_on,40,0,240
2,note_on,47,40,0
2,note_on,47,0,240
2,note_on,52,42,0
2,note_on,52,0,240
2,note_on,55,42,0
2,note_on,55,0,240
2,note_on,35,57,0
2,note_on,35,0,240
2,note_on,47,44,0
2,note_on,47,0,240
2,note_on,50,44,0
2,note_on,50,0,240
2,note_on,55,44,0
2,note_on,55,0,240
2,note_on,67,53,0
2,note_on,67,0,240
2,note_on,62,44,0
2,note_on,62,0,240
2,note_on,59,44,0
2,note_on,59,0,240
2,note_on,55,44,0
2,note_on,55,0,240
2,note_on,47,53,0
2,note_on,47,0,240
2,note_on,50,42,0
2,note_on,50,0,240
2,note_on,55,44,0
2,note_on,55,0,240
2,note_on,62,41,0
2,note_on,62,0,240
2,note_on,51,39,240
2,note_on,51,0,240
2,note_on,57,42,0
2,note_on,57,0,240
2,note_on,60,39,0
2,note_on,60,0,240
2,note_on,52,39,240
2,note_on,52,0,240
2,note_on,55,42,0
2,note_on,55,0,240
2,note_on,60,39,0
2,note_on,60,0,240
2,note_on,53,32,240
2,note_on,53,0,240
2,note_on,57,37,0
2,note_on,57,0,240
2,note_on,60,32,0
2,note_on,60,0,240
2,note_on,55,33,240
2,note_on,55,0,240
2,note_on,60,37,0
2,note_on,60,0,240
2,note_on,64,34,0
2,note_on,64,0,240
2,note_on,56,44,0
2,note_on,62,34,240
2,note_on,62,0,240
2,note_on,65,34,0
2,note_on,65,0,240
2,note_on,68,34,0
2,note_on,68,0,240
2,note_on,56,0,0
2,note_on,57,44,0
2,note_on,60,30,240
2,note_on,60,0,240
2,note_on,65,34,0
2,note_on,65,0,240
2,note_on,69,29,0
2,note_on,69,0,240
2,note_on,57,0,0
2,note_on,59,32,0
2,note_on,63,26,240
2,note_on,63,0,240
2,note_on,66,29,0
2,note_on,66,0,240
2,note_on,71,26,0
2,note_on,71,0,240
2,note_on,59,0,0
2,note_on,64,28,0
2,note_on,64,0,240
2,note_on,52,20,0
2,note_on,52,0,240
2,note_on,64,20,0
2,note_on,64,0,240
2,note_on,52,20,0
2,note_on,52,0,240
2,note_on,62,28,0
2,note_on,59,24,0
2,note_on,59,0,240
2,note_on,62,0,0
2,note_on,52,21,0
2,note_on,52,0,240
2,note_on,64,21,0
2,note_on,60,18,0
2,note_on,60,0,240
2,note_on,64,0,0
2,note_on,52,21,0
2,note_on,52,0,240
2,note_on,65,28,0
2,note_on,62,24,0
2,note_on,62,0,240
2,note_on,65,0,0
2,note_on,52,20,0
2,note_on,52,0,240
2,note_on,62,20,0
2,note_on,59,17,0
2,note_on,59,0,240
2,note_on,62,0,0
2,note_on,52,20,0
2,note_on,52,0,240
2,note_on,56,23,0
2,note_on,59,27,0
2,note_on,59,0,240
2,note_on,56,0,0
2,note_on,52,21,0
2,note_on,52,0,240
2,note_on,60,21,0
2,note_on,57,18,0
2,note_on,57,0,240
2,note_on,60,0,0
2,note_on,52,21,0
2,note_on,52,0,240
2,note_on,59,24,0
2,note_on,62,28,0
2,note_on,62,0,240
2,note_on,59,0,0
2,note_on,52,20,0
2,note_on,52,0,240
2,note_on,57,24,0
2,note_on,60,20,0
2,note_on,60,0,240
2,note_on,57,0,0
2,note_on,52,20,0
2,note_on,52,0,240
2,note_on,59,28,0
2,note_on,55,24,0
2,note_on,55,0,240
2,note_on,59,0,0
2,note_on,52,21,0
2,note_on,52,0,240
2,note_on,57,21,0
2,note_on,53,18,0
2,note_on,53,0,240
2,note_on,57,0,0
2,note_on,52,21,0
2,note_on,52,0,240
2,note_on,56,28,0
2,note_on,56,0,240
2,note_on,52,20,0
2,note_on,52,0,240
2,note_on,57,20,0
2,note_on,54,17,0
2,note_on,54,0,240
2,note_on,57,0,0
2,note_on,52,20,0
2,note_on,52,0,240
2,note_on,56,23,0
2,note_on,59,27,0
2,note_on,59,0,240
2,note_on,56,0,0
2,note_on,52,21,0
2,note_on,52,0,240
2,note_on,56,21,0
2,note_on,56,0,240
2,note_on,52,21,0
2,note_on,52,0,240
2,note_on,60,24,0
2,note_on,64,28,0
2,note_on,64,0,240
2,note_on,60,0,0
2,note_on,52,20,0
2,note_on,52,0,240
2,note_on,60,24,0
2,note_on,64,20,0
2,note_on,64,0,240
2,note_on,60,0,0
2,note_on,52,20,0
2,note_on,52,0,240
2,note_on,62,28,0
2,note_on,59,24,0
2,note_on,59,0,240
2,note_on,62,0,0
2,note_on,52,21,0
2,note_on,52,0,240
2,note_on,64,22,0
2,note_on,60,18,0
2,note_on,60,0,240
2,note_on,64,0,0
2,note_on,52,22,0
2,note_on,52,0,240
2,note_on,67,31,0
2,note_on,64,26,0
2,note_on,64,0,240
2,note_on,67,0,0
2,note_on,52,22,0
2,note_on,52,0,240
2,note_on,65,22,0
2,note_on,62,18,0
2,note_on,62,0,240
2,note_on,65,0,0
2,note_on,52,22,0
2,note_on,52,0,240
2,note_on,59,25,0
2,note_on,62,30,0
2,note_on,62,0,240
2,note_on,59,0,0
2,note_on,52,23,0
2,note_on,52,0,240
2,note_on,65,23,0
2,note_on,62,19,0
2,note_on,62,0,240
2,note_on,65,0,0
2,note_on,52,23,0
2,note_on,52,0,240
2,note_on,60,26,0
2,note_on,64,31,0
2,note_on,64,0,240
2,note_on,60,0,0
2,note_on,52,22,0
2,note_on,52,0,240
2,note_on,57,26,0
2,note_on,60,21,0
2,note_on,60,0,240
2,note_on,57,0,0
2,note_on,52,21,0
2,note_on,52,0,240
2,note_on,62,29,0
2,note_on,59,25,0
2,note_on,59,0,240
2,note_on,62,0,0
2,note_on,52,21,0
2,note_on,52,0,240
2,note_on,59,21,0
2,note_on,56,18,0
2,note_on,56,0,240
2,note_on,59,0,0
2,note_on,52,21,0
2,note_on,52,0,240
2,note_on,57,24,0
2,note_on,60,28,0
2,note_on,60,0,240
2,note_on,57,0,0
2,note_on,52,20,0
2,note_on,52,0,240
2,note_on,57,20,0
2,note_on,54,17,0
2,note_on,54,0,240
2,note_on,57,0,0
2,note_on,52,20,0
2,note_on,52,0,240
2,note_on,56,23,0
2,note_on,59,27,0
2,note_on,59,0,240
2,note_on,56,0,0
2,note_on,52,21,0
2,note_on,52,0,240
2,note_on,56,21,0
2,note_on,56,0,240
2,note_on,52,21,0
2,note_on,52,0,240
2,note_on,60,29,0
2,note_on,60,0,240
2,note_on,57,21,0
2,note_on,57,0,240
2,note_on,52,24,0
2,note_on,52,0,240
2,note_on,48,21,0
2,note_on,48,0,240
2,note_on,60,29,0
2,note_on,60,0,240
2,note_on,57,22,0
2,note_on,57,0,240
2,note_on,52,24,0
2,note_on,52,0,240
2,note_on,48,20,0
2,note_on,48,0,240
2,note_on,62,29,0
2,note_on,62,0,240
2,note_on,57,20,0
2,note_on,57,0,240
2,note_on,53,24,0
2,note_on,53,0,240
2,note_on,50,21,0
2,note_on,50,0,240
2,note_on,62,29,0
2,note_on,62,0,240
2,note_on,57,24,0
2,note_on,57,0,240
2,note_on,53,24,0
2,note_on,50,23,226
2,note_on,53,0,14
2,note_on,50,0,226
2,note_on,62,29,14
2,note_on,62,0,240
2,note_on,59,21,0
2,note_on,59,0,240
2,note_on,57,24,0
2,note_on,57,0,240
2,note_on,52,22,0
2,note_on,52,0,240
2,note_on,62,30,0
2,note_on,62,0,240
2,note_on,59,22,0
2,note_on,59,0,240
2,note_on,56,25,0
2,note_on,56,0,240
2,note_on,52,25,0
2,note_on,52,0,240
2,note_on,69,30,0
2,note_on,69,0,240
2,note_on,65,23,0
2,note_on,65,0,240
2,note_on,64,25,0
2,note_on,64,0,240
2,note_on,57,22,0
2,note_on,57,0,240
2,note_on,69,31,0
2,note_on,69,0,240
2,note_on,64,25,0
2,note_on,64,0,240
2,note_on,60,29,0
2,note_on,60,0,240
2,note_on,57,26,0
2,note_on,57,0,240
2,note_on,38,43,0
2,note_on,38,0,240
2,note_on,50,38,0
2,note_on,50,0,240
2,note_on,53,42,0
2,note_on,57,47,240
2,note_on,62,51,240
2,note_on,62,0,1920
2,note_on,57,0,0
2,note_on,53,0,0
2,note_on,38,43,960
2,note_on,38,0,240
2,note_on,50,38,0
2,note_on,50,0,240
2,note_on,53,42,0
2,note_on,56,47,240
2,note_on,59,51,240
2,note_on,59,0,1440
2,note_on,56,0,0
2,note_on,53,0,0
2,note_on,56,43,480
2,note_on,58,43,0
2,note_on,62,43,0
2,note_on,65,51,0
2,note_on,70,60,0
2,note_on,70,0,720
2,note_on,62,0,0
2,note_on,56,0,0
2,note_on,58,0,0
2,note_on,65,0,0
2,note_on,43,45,1200
2,note_on,44,37,120
2,note_on,43,0,12
2,note_on,43,37,108
2,note_on,44,0,12
2,note_on,42,37,108
2,note_on,43,0,12
2,note_on,43,45,108
2,note_on,42,0,12
2,note_on,46,42,108
2,note_on,43,0,12
2,note_on,51,45,108
2,note_on,46,0,12
2,note_on,55,48,108
2,note_on,51,0,12
2,note_on,56,52,108
2,note_on,58,52,0
2,note_on,55,0,12
2,note_on,58,0,708
2,note_on,56,0,0
2,note_on,55,45,240
2,note_on,56,37,120
2,note_on,55,0,12
2,note_on,55,37,108
2,note_on,56,0,12
2,note_on,54,37,108
2,note_on,55,0,12
2,note_on,55,45,108
2,note_on,54,0,12
2,note_on,58,42,108
2,note_on,55,0,12
2,note_on,63,45,108
2,note_on,58,0,12
2,note_on,67,48,108
2,note_on,63,0,12
2,note_on,68,59,108
2,note_on,70,59,0
2,note_on,67,0,12
2,note_on,70,0,708
2,note_on,68,0,0
2,note_on,80,51,240
2,note_on,77,42,120
2,note_on,80,0,12
2,note_on,74,42,108
2,note_on,77,0,12
2,note_on,70,42,108
2,note_on,74,0,12
2,note_on,68,51,108
2,note_on,70,0,12
2,note_on,65,48,108
2,note_on,68,0,12
2,note_on,62,51,108
2,note_on,65,0,12
2,note_on,56,55,108
2,note_on,62,0,12
2,note_on,57,55,108
2,note_on,56,0,12
2,note_on,53,46,948
2,note_on,62,59,0
2,note_on,62,0,960
2,note_on,53,0,0
2,note_on,52,50,0
2,note_on,64,59,0
2,note_on,64,0,960
2,note_on,52,0,0
2,note_on,50,52,0
2,note_on,65,62,0
2,note_on,65,0,1920
2,note_on,50,0,0
2,note_on,53,45,0
2,note_on,62,54,0
2,note_on,62,0,960
2,note_on,53,0,0
2,note_on,52,40,0
2,note_on,60,48,0
2,note_on,60,0,960
2,note_on,52,0,0
2,note_on,57,0,0
2,note_on,52,28,960
2,note_on,56,28,0
2,note_on,59,33,0
2,note_on,65,44,480
2,note_on,56,0,460
2,note_on,52,0,20
2,note_on,59,0,0
2,note_on,65,0,0
2,note_on,64,33,0
2,note_on,64,0,480
2,note_on,56,24,0
2,note_on,56,0,480
2,note_on,45,27,0
2,note_on,57,32,0
2,note_on,57,0,960
2,note_on,45,0,0
2,note_on,67,32,0
2,note_on,64,24,0
2,note_on,64,0,240
2,note_on,57,21,0
2,note_on,57,0,240
2,note_on,67,0,0
2,note_on,69,24,0
2,note_on,65,18,0
2,note_on,65,0,240
2,note_on,57,21,0
2,note_on,57,0,240
2,note_on,69,0,0
2,note_on,70,32,0
2,note_on,67,24,0
2,note_on,67,0,240
2,note_on,70,0,0
2,note_on,57,20,0
2,note_on,57,0,240
2,note_on,67,23,0
2,note_on,64,17,0
2,note_on,64,0,240
2,note_on,67,0,0
2,note_on,57,20,0
2,note_on,57,0,240
2,note_on,61,23,0
2,note_on,64,31,0
2,note_on,64,0,240
2,note_on,61,0,0
2,note_on,57,21,0
2,note_on,57,0,240
2,note_on,65,24,0
2,note_on,62,18,0
2,note_on,62,0,240
2,note_on,65,0,0
2,note_on,57,21,0
2,note_on,57,0,240
2,note_on,64,24,0
2,note_on,67,32,0
2,note_on,67,0,240
2,note_on,64,0,0
2,note_on,57,20,0
2,note_on,57,0,240
2,note_on,62,24,0
2,note_on,65,23,0
2,note_on,65,0,240
2,note_on,62,0,0
2,note_on,57,20,0
2,note_on,57,0,240
2,note_on,64,32,0
2,note_on,60,24,0
2,note_on,60,0,240
2,note_on,64,0,0
2,note_on,57,21,0
2,note_on,57,0,240
2,note_on,62,24,0
2,note_on,58,18,0
2,note_on,58,0,240
2,note_on,62,0,0
2,note_on,57,21,0
2,note_on,57,0,240
2,note_on,61,32,0
2,note_on,61,0,240
2,note_on,57,23,0
2,note_on,57,0,240
2,note_on,59,19,0
2,note_on,62,23,0
2,note_on,62,0,240
2,note_on,59,0,0
2,note_on,57,23,0
2,note_on,57,0,240
2,note_on,61,26,0
2,note_on,64,31,0
2,note_on,64,0,240
2,note_on,61,0,0
2,note_on,57,24,11
2,note_on,61,24,229
2,note_on,64,24,0
2,note_on,57,0,11
2,note_on,64,0,229
2,note_on,61,0,0
2,note_on,57,20,11
2,note_on,69,32,229
2,note_on,57,0,11
2,note_on,69,0,229
2,note_on,57,23,0
2,note_on,57,0,240
2,note_on,69,23,0
2,note_on,69,0,240
2,note_on,57,23,0
2,note_on,57,0,240
2,note_on,69,31,0
2,note_on,69,0,240
2,note_on,57,29,11
2,note_on,69,34,229
2,note_on,57,0,11
2,note_on,69,0,229
2,note_on,57,39,11
2,note_on,64,44,229
2,note_on,57,0,11
2,note_on,64,0,229
2,note_on,57,25,0
2,note_on,64,25,228
2,note_on,57,0,12
2,note_on,64,0,228
2,note_on,57,25,12
2,note_on,57,0,240
2,note_on,64,34,0
2,note_on,64,0,240
2,note_on,57,26,11
2,note_on,64,26,229
2,note_on,57,0,11
2,note_on,64,0,229
2,note_on,57,22,11
2,note_on,67,46,229
2,note_on,57,0,11
2,note_on,67,0,229
2,note_on,55,30,0
2,note_on,55,0,240
2,note_on,67,32,0
2,note_on,67,0,240
2,note_on,55,34,0
2,note_on,55,0,240
2,note_on,67,42,0
2,note_on,67,0,240
2,note_on,55,34,0
2,note_on,55,0,240
2,note_on,67,34,0
2,note_on,67,0,240
2,note_on,55,34,0
2,note_on,55,0,240
2,note_on,66,48,0
2,note_on,66,0,240
2,note_on,55,36,0
2,note_on,55,0,240
2,note_on,66,37,0
2,note_on,66,0,240
2,note_on,55,37,0
2,note_on,55,0,240
2,note_on,65,47,0
2,note_on,65,0,240
2,note_on,55,34,0
2,note_on,55,0,240
2,note_on,65,34,0
2,note_on,65,0,240
2,note_on,55,27,0
2,note_on,55,0,240
2,note_on,64,50,0
2,note_on,64,0,240
2,note_on,55,36,0
2,note_on,55,0,240
2,note_on,64,36,0
2,note_on,64,0,240
2,note_on,55,36,0
2,note_on,55,0,240
2,note_on,62,50,0
2,note_on,62,0,240
2,note_on,55,40,0
2,note_on,55,0,240
2,note_on,62,40,0
2,note_on,62,0,240
2,note_on,55,40,0
2,note_on,55,0,240
2,note_on,60,52,0
2,note_on,60,0,240
2,note_on,55,39,0
2,note_on,55,0,240
2,note_on,60,42,0
2,note_on,60,0,240
2,note_on,55,48,0
2,note_on,55,0,240
2,note_on,59,45,0
2,note_on,59,0,240
2,note_on,55,45,0
2,note_on,55,0,240
2,note_on,59,52,0
2,note_on,59,0,240
2,note_on,55,45,0
2,note_on,55,0,240
2,note_on,67,55,0
2,note_on,67,0,240
2,note_on,55,46,0
2,note_on,55,0,240
2,note_on,67,55,0
2,note_on,67,0,240
2,note_on,55,47,0
2,note_on,55,0,240
2,note_on,67,60,0
2,note_on,67,0,240
2,note_on,55,49,0
2,note_on,55,0,240
2,note_on,67,63,0
2,note_on,67,0,240
2,note_on,55,51,0
2,note_on,62,58,180
2,note_on,65,63,30
2,note_on,71,68,30
2,note_on,71,0,240
2,note_on,55,0,0
2,note_on,62,0,0
2,note_on,65,0,0
2,note_on,64,50,0
2,note_on,76,59,0
2,note_on,76,0,240
2,note_on,64,0,0
2,note_on,65,56,0
2,note_on,77,66,0
2,note_on,77,0,240
2,note_on,65,0,0
2,note_on,61,50,0
2,note_on,73,59,0
2,note_on,73,0,120
2,note_on,61,0,0
2,note_on,62,56,120
2,note_on,74,67,0
2,note_on,74,0,120
2,note_on,62,0,0
2,note_on,52,49,1080
2,note_on,52,0,240
2,note_on,53,58,0
2,note_on,53,0,240
2,note_on,49,48,0
2,note_on,49,0,120
2,note_on,50,57,120
2,note_on,50,0,120
2,note_on,67,46,840
2,note_on,63,36,0
2,note_on,31,36,0
2,note_on,31,0,240
2,note_on,55,24,0
2,note_on,55,0,240
2,note_on,56,31,0
2,note_on,56,0,240
2,note_on,55,24,0
2,note_on,55,0,240
2,note_on,63,0,0
2,note_on,67,0,0
2,note_on,65,36,0
2,note_on,62,27,0
2,note_on,55,24,240
2,note_on,55,0,240
2,note_on,62,0,0
2,note_on,65,0,0
2,note_on,67,38,0
2,note_on,63,38,0
2,note_on,55,24,240
2,note_on,55,0,240
2,note_on,63,0,0
2,note_on,67,0,0
2,note_on,68,43,0
2,note_on,65,43,0
2,note_on,55,23,240
2,note_on,55,0,240
2,note_on,56,19,0
2,note_on,65,0,220
2,note_on,56,0,20
2,note_on,68,0,0
2,note_on,62,25,0
2,note_on,65,36,0
2,note_on,55,26,0
2,note_on,62,0,220
2,note_on,55,0,20
2,note_on,65,0,0
2,note_on,59,36,0
2,note_on,62,43,0
2,note_on,55,24,240
2,note_on,55,0,240
2,note_on,62,0,0
2,note_on,59,0,0
2,note_on,63,36,0
2,note_on,60,30,0
2,note_on,55,24,240
2,note_on,55,0,240
2,note_on,60,0,0
2,note_on,63,0,0
2,note_on,62,35,0
2,note_on,65,42,0
2,note_on,55,30,240
2,note_on,55,0,240
2,note_on,65,0,0
2,note_on,62,0,0
2,note_on,60,33,0
2,note_on,63,39,0
2,note_on,55,30,240
2,note_on,55,0,240
2,note_on,63,0,0
2,note_on,60,0,0
2,note_on,62,41,0
2,note_on,58,34,0
2,note_on,55,28,240
2,note_on,55,0,240
2,note_on,58,0,0
2,note_on,62,0,0
2,note_on,60,37,0
2,note_on,56,31,0
2,note_on,55,29,240
2,note_on,55,0,240
2,note_on,56,0,0
2,note_on,60,0,0
2,note_on,59,43,0
2,note_on,55,30,240
2,note_on,55,0,240
2,note_on,56,30,0
2,note_on,56,0,240
2,note_on,59,0,0
2,note_on,60,36,0
2,note_on,55,28,0
2,note_on,55,0,240
2,note_on,60,0,0
2,note_on,62,46,0
2,note_on,55,28,240
2,note_on,55,0,240
2,note_on,62,0,0
2,note_on,55,30,240
2,note_on,55,0,240
2,note_on,67,46,0
2,note_on,62,36,0
2,note_on,55,26,240
2,note_on,55,0,240
2,note_on,56,31,0
2,note_on,56,0,240
2,note_on,55,26,0
2,note_on,62,0,220
2,note_on,55,0,20
2,note_on,67,0,0
2,note_on,65,36,0
2,note_on,62,27,0
2,note_on,55,24,240
2,note_on,55,0,240
2,note_on,62,0,0
2,note_on,65,0,0
2,note_on,67,38,0
2,note_on,63,32,0
2,note_on,55,24,240
2,note_on,55,0,240
2,note_on,63,0,0
2,note_on,67,0,0
2,note_on,70,44,0
2,note_on,67,34,0
2,note_on,67,0,240
2,note_on,55,23,0
2,note_on,55,0,240
2,note_on,56,19,0
2,note_on,56,0,240
2,note_on,70,0,0
2,note_on,68,28,0
2,note_on,55,36,0
2,note_on,55,0,240
2,note_on,68,0,0
2,note_on,62,28,0
2,note_on,65,34,0
2,note_on,55,24,240
2,note_on,55,0,240
2,note_on,65,0,0
2,note_on,62,0,0
2,note_on,70,36,0
2,note_on,67,30,0
2,note_on,67,0,240
2,note_on,70,0,0
2,note_on,65,30,0
2,note_on,68,36,0
2,note_on,68,0,240
2,note_on,65,0,0
2,note_on,63,35,0
2,note_on,67,42,0
2,note_on,63,0,240
2,note_on,55,30,0
2,note_on,55,0,240
2,note_on,67,0,0
2,note_on,60,33,0
2,note_on,63,39,0
2,note_on,60,0,240
2,note_on,55,30,0
2,note_on,55,0,240
2,note_on,63,0,0
2,note_on,65,41,0
2,note_on,62,34,0
2,note_on,62,0,240
2,note_on,55,28,0
2,note_on,55,0,240
2,note_on,65,0,0
2,note_on,62,37,0
2,note_on,59,31,0
2,note_on,59,0,240
2,note_on,55,29,0
2,note_on,55,0,240
2,note_on,62,0,0
2,note_on,60,30,0
2,note_on,63,43,0
2,note_on,60,0,240
2,note_on,55,30,0
2,note_on,55,0,240
2,note_on,63,0,0
2,note_on,60,36,0
2,note_on,57,30,0
2,note_on,57,0,240
2,note_on,55,36,0
2,note_on,55,0,240
2,note_on,60,0,0
2,note_on,59,30,0
2,note_on,62,46,0
2,note_on,59,0,240
2,note_on,55,28,0
2,note_on,55,0,240
2,note_on,62,0,0
2,note_on,55,30,240
2,note_on,51,25,240
2,note_on,60,30,0
2,note_on,60,0,960
2,note_on,51,0,0
2,note_on,55,0,0
2,note_on,53,22,0
2,note_on,56,22,0
2,note_on,61,27,0
2,note_on,61,0,960
2,note_on,56,0,0
2,note_on,53,0,0
2,note_on,62,27,0
2,note_on,55,22,0
2,note_on,55,0,960
2,note_on,62,0,0
2,note_on,43,30,720
2,note_on,39,25,240
2,note_on,48,30,0
2,note_on,48,0,960
2,note_on,39,0,0
2,note_on,43,0,0
2,note_on,41,22,0
2,note_on,44,22,0
2,note_on,49,27,0
2,note_on,49,0,960
2,note_on,44,0,0
2,note_on,41,0,0
2,note_on,50,27,0
2,note_on,43,22,0
2,note_on,43,0,960
2,note_on,50,0,0
2,note_on,31,74,480
2,note_on,43,88,0
2,note_on,43,0,240
2,note_on,31,0,0
2,note_on,55,98,240
2,note_on,43,80,0
2,note_on,43,0,960
2,note_on,55,0,0
2,note_on,53,83,0
2,note_on,41,70,0
2,note_on,41,0,480
2,note_on,53,0,0
2,note_on,55,88,0
2,note_on,43,74,0
2,note_on,43,0,480
2,note_on,55,0,0
2,note_on,56,94,0
2,note_on,44,79,0
2,note_on,44,0,720
2,note_on,56,0,0
2,note_on,53,84,0
2,note_on,41,71,0
2,note_on,41,0,240
2,note_on,53,0,0
2,note_on,50,91,0
2,note_on,38,77,0
2,note_on,38,0,480
2,note_on,50,0,0
2,note_on,51,86,0
2,note_on,39,73,0
2,note_on,39,0,480
2,note_on,51,0,0
2,note_on,41,77,0
2,note_on,53,91,0
2,note_on,53,0,480
2,note_on,41,0,0
2,note_on,39,73,0
2,note_on,51,87,0
2,note_on,51,0,480
2,note_on,39,0,0
2,note_on,38,79,0
2,note_on,50,93,0
2,note_on,50,0,480
2,note_on,38,0,0
2,note_on,36,75,0
2,note_on,48,89,0
2,note_on,48,0,480
2,note_on,36,0,0
2,note_on,35,80,0
2,note_on,47,95,0
2,note_on,47,0,960
2,note_on,35,0,0
2,note_on,34,80,0
2,note_on,46,95,0
2,note_on,46,0,480
2,note_on,34,0,0
2,note_on,33,86,0
2,note_on,45,102,0
2,note_on,45,0,420
2,note_on,33,0,0
2,note_on,32,72,0
2,note_on,44,72,30
2,note_on,44,0,30
2,note_on,32,0,0
2,note_on,65,84,0
2,note_on,62,80,0
2,note_on,58,75,0
2,note_on,56,72,0
2,note_on,56,0,720
2,note_on,65,0,0
2,note_on,62,0,0
2,note_on,58,0,0
2,note_on,46,66,0
2,note_on,58,78,0
2,note_on,58,0,228
2,note_on,46,0,0
2,note_on,46,66,12
2,note_on,58,78,0
2,note_on,58,0,480
2,note_on,46,0,0
2,note_on,48,60,0
2,note_on,60,70,0
2,note_on,60,0,120
2,note_on,48,0,0
2,note_on,50,66,120
2,note_on,62,78,0
2,note_on,62,0,120
2,note_on,50,0,0
2,note_on,56,67,120
2,note_on,51,67,0
2,note_on,59,67,0
2,note_on,63,80,0
2,note_on,63,0,120
2,note_on,56,0,0
2,note_on,51,0,0
2,note_on,59,0,0
2,note_on,32,80,360
2,note_on,44,96,0
2,note_on,44,0,480
2,note_on,32,0,0
2,note_on,51,67,480
2,note_on,56,67,0
2,note_on,59,67,0
2,note_on,63,80,0
2,note_on,63,0,456
2,note_on,51,0,0
2,note_on,56,0,0
2,note_on,59,0,0
2,note_on,54,72,24
2,note_on,68,84,0
2,note_on,63,80,0
2,note_on,60,75,0
2,note_on,56,72,0
2,note_on,30,100,480
2,note_on,42,100,0
2,note_on,56,0,220
2,note_on,30,0,20
2,note_on,68,0,0
2,note_on,63,0,0
2,note_on,54,0,0
2,note_on,42,0,0
2,note_on,60,0,0
2,note_on,42,75,0
2,note_on,44,75,0
2,note_on,56,89,0
2,note_on,56,0,216
2,note_on,44,0,0
2,note_on,42,0,0
2,note_on,42,75,24
2,note_on,44,75,0
2,note_on,56,89,0
2,note_on,56,0,456
2,note_on,44,0,0
2,note_on,42,0,0
2,note_on,49,66,24
2,note_on,61,77,0
2,note_on,61,0,120
2,note_on,49,0,0
2,note_on,51,72,120
2,note_on,63,85,0
2,note_on,63,0,120
2,note_on,51,0,0
2,note_on,56,73,120
2,note_on,53,73,0
2,note_on,61,73,0
2,note_on,65,88,0
2,note_on,65,0,120
2,note_on,56,0,0
2,note_on,53,0,0
2,note_on,61,0,0
2,note_on,29,74,360
2,note_on,41,88,0
2,note_on,41,0,480
2,note_on,29,0,0
2,note_on,53,67,480
2,note_on,56,67,0
2,note_on,61,67,0
2,note_on,65,67,0
2,note_on,65,0,390
2,note_on,53,0,0
2,note_on,56,0,0
2,note_on,61,0,0
2,note_on,65,62,0
2,note_on,68,62,30
2,note_on,71,73,30
2,note_on,77,73,30
2,note_on,77,0,240
2,note_on,65,0,0
2,note_on,68,0,0
2,note_on,71,0,0
2,note_on,59,56,0
2,note_on,71,67,0
2,note_on,71,0,240
2,note_on,59,0,0
2,note_on,56,56,0
2,note_on,68,67,0
2,note_on,68,0,240
2,note_on,56,0,0
2,note_on,53,56,0
2,note_on,65,67,0
2,note_on,65,0,240
2,note_on,53,0,0
2,note_on,62,69,0
2,note_on,50,58,0
2,note_on,50,0,240
2,note_on,62,0,0
2,note_on,47,60,0
2,note_on,59,71,0
2,note_on,59,0,240
2,note_on,47,0,0
2,note_on,44,72,0
2,note_on,56,72,0
2,note_on,56,0,240
2,note_on,44,0,0
2,note_on,41,62,0
2,note_on,53,74,0
2,note_on,53,0,180
2,note_on,41,0,0
2,note_on,42,78,0
2,note_on,45,81,15
2,note_on,48,84,15
2,note_on,51,87,15
2,note_on,57,90,15
2,note_on,57,0,240
2,note_on,48,0,0
2,note_on,42,0,0
2,note_on,45,0,0
2,note_on,51,0,0
2,note_on,75,77,0
2,note_on,75,0,120
2,note_on,72,77,120
2,note_on,72,0,120
2,note_on,69,77,120
2,note_on,69,0,120
2,note_on,66,85,120
2,note_on,66,0,120
2,note_on,63,67,120
2,note_on,63,0,120
2,note_on,60,67,120
2,note_on,60,0,120
2,note_on,57,67,120
2,note_on,57,0,120
2,note_on,54,67,120
2,note_on,54,0,120
2,note_on,51,59,120
2,note_on,51,0,120
2,note_on,48,58,120
2,note_on,48,0,120
2,note_on,45,57,120
2,note_on,45,0,120
2,note_on,42,64,120
2,note_on,42,0,120
2,note_on,39,55,120
2,note_on,39,0,120
2,note_on,36,55,120
2,note_on,36,0,120
2,note_on,30,55,120
2,note_on,30,0,120
2,note_on,31,69,120
2,note_on,43,81,0
2,note_on,43,0,960
2,note_on,31,0,0
2,note_on,50,62,0
2,note_on,62,73,0
2,note_on,62,0,720
2,note_on,50,0,0
2,note_on,63,63,0
2,note_on,51,52,0
2,note_on,51,0,240
2,note_on,63,0,0
2,note_on,31,62,240
2,note_on,31,0,240
2,note_on,36,62,0
2,note_on,36,0,240
2,note_on,39,62,0
2,note_on,39,0,240
2,note_on,43,62,0
2,note_on,43,0,240
2,note_on,48,62,0
2,note_on,48,0,240
2,note_on,51,62,0
2,note_on,51,0,240
2,note_on,55,62,0
2,note_on,55,0,240
2,note_on,49,69,0
2,note_on,61,81,0
2,note_on,61,0,960
2,note_on,49,0,0
2,note_on,50,62,0
2,note_on,62,73,0
2,note_on,62,0,720
2,note_on,50,0,0
2,note_on,64,63,0
2,note_on,52,52,0
2,note_on,52,0,240
2,note_on,64,0,0
2,note_on,31,62,240
2,note_on,31,0,240
2,note_on,37,62,0
2,note_on,37,0,240
2,note_on,40,62,0
2,note_on,40,0,240
2,note_on,43,62,0
2,note_on,43,0,240
2,note_on,49,62,0
2,note_on,49,0,240
2,note_on,52,62,0
2,note_on,52,0,240
2,note_on,55,62,0
2,note_on,55,0,240
2,note_on,50,69,0
2,note_on,62,81,0
2,note_on,62,0,960
2,note_on,50,0,0
2,note_on,52,62,0
2,note_on,64,73,0
2,note_on,64,0,720
2,note_on,52,0,0
2,note_on,65,63,0
2,note_on,53,52,0
2,note_on,53,0,240
2,note_on,65,0,0
2,note_on,47,69,480
2,note_on,59,81,0
2,note_on,59,0,480
2,note_on,47,0,0
2,note_on,48,62,0
2,note_on,60,73,0
2,note_on,60,0,720
2,note_on,48,0,0
2,note_on,62,63,0
2,note_on,50,52,0
2,note_on,50,0,240
2,note_on,62,0,0
2,note_on,43,69,480
2,note_on,55,81,0
2,note_on,55,0,480
2,note_on,43,0,0
2,note_on,45,62,0
2,note_on,57,73,0
2,note_on,57,0,720
2,note_on,45,0,0
2,note_on,59,63,0
2,note_on,47,52,0
2,note_on,47,0,240
2,note_on,59,0,0
2,note_on,41,68,240
2,note_on,41,0,240
2,note_on,53,73,0
2,note_on,47,62,0
2,note_on,47,0,240
2,note_on,53,0,0
2,note_on,41,69,0
2,note_on,41,0,240
2,note_on,47,68,240
2,note_on,47,0,240
2,note_on,59,73,0
2,note_on,53,62,0
2,note_on,53,0,240
2,note_on,59,0,0
2,note_on,47,68,0
2,note_on,47,0,240
2,note_on,41,68,240
2,note_on,41,0,240
2,note_on,53,73,0
2,note_on,47,62,0
2,note_on,47,0,240
2,note_on,53,0,0
2,note_on,41,69,0
2,note_on,41,0,240
2,note_on,47,68,240
2,note_on,47,0,240
2,note_on,59,73,0
2,note_on,53,62,0
2,note_on,53,0,240
2,note_on,59,0,0
2,note_on,47,68,0
2,note_on,47,0,240
2,note_on,40,68,240
2,note_on,40,0,240
2,note_on,52,73,0
2,note_on,42,62,0
2,note_on,42,0,240
2,note_on,52,0,0
2,note_on,40,69,0
2,note_on,40,0,240
2,note_on,38,68,240
2,note_on,38,0,240
2,note_on,50,73,0
2,note_on,42,62,0
2,note_on,42,0,240
2,note_on,50,0,0
2,note_on,38,68,0
2,note_on,38,0,240
2,note_on,37,68,240
2,note_on,37,0,240
2,note_on,49,73,0
2,note_on,42,62,0
2,note_on,42,0,240
2,note_on,49,0,0
2,note_on,37,69,0
2,note_on,37,0,240
2,note_on,35,68,240
2,note_on,35,0,240
2,note_on,50,73,0
2,note_on,42,62,0
2,note_on,42,0,240
2,note_on,50,0,0
2,note_on,35,68,0
2,note_on,35,0,180
2,note_on,64,74,15
2,note_on,67,77,15
2,note_on,71,81,15
2,note_on,76,84,15
2,note_on,76,0,480
2,note_on,64,0,0
2,note_on,67,0,0
2,note_on,71,0,0
2,note_on,37,78,0
2,note_on,49,92,0
2,note_on,49,0,240
2,note_on,37,0,0
2,note_on,62,75,195
2,note_on,67,78,15
2,note_on,71,81,15
2,note_on,74,84,15
2,note_on,74,0,480
2,note_on,62,0,0
2,note_on,67,0,0
2,note_on,71,0,0
2,note_on,38,78,0
2,note_on,50,92,0
2,note_on,50,0,240
2,note_on,38,0,0
2,note_on,61,74,195
2,note_on,67,77,15
2,note_on,71,81,15
2,note_on,73,84,15
2,note_on,73,0,480
2,note_on,61,0,0
2,note_on,67,0,0
2,note_on,71,0,0
2,note_on,40,78,0
2,note_on,52,92,0
2,note_on,52,0,240
2,note_on,40,0,0
2,note_on,58,75,195
2,note_on,61,78,15
2,note_on,66,81,15
2,note_on,70,84,15
2,note_on,70,0,480
2,note_on,58,0,0
2,note_on,61,0,0
2,note_on,66,0,0
2,note_on,30,78,0
2,note_on,42,92,0
2,note_on,42,0,240
2,note_on,30,0,0
2,note_on,35,79,240
2,note_on,47,93,0
2,note_on,47,0,960
2,note_on,35,0,0
2,note_on,37,75,0
2,note_on,49,90,0
2,note_on,49,0,720
2,note_on,37,0,0
2,note_on,50,72,0
2,note_on,38,59,0
2,note_on,38,0,216
2,note_on,50,0,0
2,note_on,38,79,24
2,note_on,50,93,0
2,note_on,50,0,960
2,note_on,38,0,0
2,note_on,40,75,0
2,note_on,52,90,0
2,note_on,52,0,720
2,note_on,40,0,0
2,note_on,54,72,0
2,note_on,42,59,0
2,note_on,42,0,240
2,note_on,54,0,0
2,note_on,45,79,0
2,note_on,57,93,0
2,note_on,57,0,480
2,note_on,45,0,0
2,note_on,64,86,240
2,note_on,59,73,0
2,note_on,59,0,216
2,note_on,64,0,0
2,note_on,55,79,24
2,note_on,64,93,0
2,note_on,59,79,0
2,note_on,59,0,480
2,note_on,64,0,0
2,note_on,63,75,0
2,note_on,66,89,0
2,note_on,66,0,120
2,note_on,63,0,0
2,note_on,67,85,120
2,note_on,64,72,0
2,note_on,64,0,120
2,note_on,67,0,0
2,note_on,67,93,120
2,note_on,64,79,0
2,note_on,64,0,480
2,note_on,67,0,0
2,note_on,55,0,0
2,note_on,40,62,0
2,note_on,52,74,0
2,note_on,52,0,240
2,note_on,40,0,0
2,note_on,37,69,240
2,note_on,49,82,0
2,note_on,49,0,240
2,note_on,37,0,0
2,note_on,33,64,240
2,note_on,45,76,0
2,note_on,45,0,240
2,note_on,33,0,0
2,note_on,38,68,720
2,note_on,38,0,160
2,note_on,45,60,0
2,note_on,45,0,160
2,note_on,50,60,0
2,note_on,50,0,140
2,note_on,50,68,20
2,note_on,50,0,240
2,note_on,62,62,0
2,note_on,62,0,240
2,note_on,56,67,0
2,note_on,56,0,240
2,note_on,57,62,0
2,note_on,57,0,240
2,note_on,38,68,480
2,note_on,38,0,160
2,note_on,45,60,0
2,note_on,45,0,160
2,note_on,50,60,0
2,note_on,50,0,140
2,note_on,50,68,20
2,note_on,50,0,240
2,note_on,62,62,0
2,note_on,62,0,240
2,note_on,53,67,0
2,note_on,53,0,240
2,note_on,54,62,0
2,note_on,54,0,240
2,note_on,44,68,480
2,note_on,44,0,160
2,note_on,56,63,0
2,note_on,56,0,140
2,note_on,56,63,20
2,note_on,56,0,160
2,note_on,68,68,0
2,note_on,68,0,160
2,note_on,66,64,0
2,note_on,66,0,160
2,note_on,68,64,0
2,note_on,68,0,140
2,note_on,68,68,20
2,note_on,68,0,160
2,note_on,65,63,0
2,note_on,65,0,160
2,note_on,62,62,0
2,note_on,62,0,160
2,note_on,59,68,0
2,note_on,59,0,160
2,note_on,56,63,0
2,note_on,56,0,160
2,note_on,53,63,0
2,note_on,53,0,160
2,note_on,49,68,0
2,note_on,49,0,160
2,note_on,53,63,0
2,note_on,53,0,160
2,note_on,49,62,0
2,note_on,49,0,160
2,note_on,47,68,0
2,note_on,47,0,160
2,note_on,49,62,0
2,note_on,49,0,160
2,note_on,47,62,0
2,note_on,47,0,160
2,note_on,44,68,0
2,note_on,44,0,160
2,note_on,47,61,0
2,note_on,47,0,160
2,note_on,44,60,0
2,note_on,44,0,160
2,note_on,42,79,0
2,note_on,54,93,0
2,note_on,54,0,960
2,note_on,42,0,0
2,note_on,44,75,0
2,note_on,56,90,0
2,note_on,56,0,720
2,note_on,44,0,0
2,note_on,57,72,0
2,note_on,45,59,0
2,note_on,45,0,216
2,note_on,57,0,0
2,note_on,45,79,24
2,note_on,57,93,0
2,note_on,57,0,960
2,note_on,45,0,0
2,note_on,47,75,0
2,note_on,59,90,0
2,note_on,59,0,720
2,note_on,47,0,0
2,note_on,61,72,0
2,note_on,49,59,0
2,note_on,49,0,240
2,note_on,61,0,0
2,note_on,52,79,0
2,note_on,64,93,0
2,note_on,64,0,480
2,note_on,52,0,0
2,note_on,69,77,240
2,note_on,66,65,0
2,note_on,66,0,216
2,note_on,69,0,0
2,note_on,62,71,24
2,note_on,69,83,0
2,note_on,66,71,0
2,note_on,66,0,480
2,note_on,69,0,0
2,note_on,67,67,0
2,note_on,71,80,0
2,note_on,71,0,120
2,note_on,67,0,0
2,note_on,72,76,120
2,note_on,69,64,0
2,note_on,69,0,120
2,note_on,72,0,0
2,note_on,62,0,120
2,note_on,72,83,0
2,note_on,69,71,0
2,note_on,69,0,480
2,note_on,72,0,0
2,note_on,45,62,0
2,note_on,57,74,0
2,note_on,57,0,240
2,note_on,45,0,0
2,note_on,42,69,240
2,note_on,54,82,0
2,note_on,54,0,240
2,note_on,42,0,0
2,note_on,38,70,240
2,note_on,50,83,0
2,note_on,50,0,240
2,note_on,38,0,0
2,note_on,36,83,240
2,note_on,36,0,137
2,note_on,38,74,0
2,note_on,38,0,138
2,note_on,36,83,0
2,note_on,36,0,137
2,note_on,38,76,1
2,note_on,36,83,137
2,note_on,38,0,0
2,note_on,36,0,137
2,note_on,38,77,1
2,note_on,36,83,137
2,note_on,38,0,0
2,note_on,36,0,135
2,note_on,60,66,0
2,note_on,69,79,0
2,note_on,69,0,480
2,note_on,60,0,0
2,note_on,62,65,0
2,note_on,71,78,0
2,note_on,71,0,120
2,note_on,62,0,0
2,note_on,63,61,120
2,note_on,72,72,0
2,note_on,72,0,120
2,note_on,63,0,0
2,note_on,36,83,120
2,note_on,36,0,137
2,note_on,38,74,0
2,note_on,38,0,138
2,note_on,36,83,0
2,note_on,36,0,137
2,note_on,38,76,1
2,note_on,36,83,137
2,note_on,38,0,0
2,note_on,36,0,137
2,note_on,38,77,1
2,note_on,36,83,137
2,note_on,38,0,0
2,note_on,36,0,135
2,note_on,60,66,0
2,note_on,69,79,0
2,note_on,69,0,480
2,note_on,60,0,0
2,note_on,62,65,0
2,note_on,71,78,0
2,note_on,71,0,120
2,note_on,62,0,0
2,note_on,63,61,120
2,note_on,72,72,0
2,note_on,72,0,120
2,note_on,63,0,0
2,note_on,36,74,120
2,note_on,36,0,160
2,note_on,38,63,0
2,note_on,38,0,160
2,note_on,36,68,0
2,note_on,36,0,160
2,note_on,38,57,0
2,note_on,38,0,160
2,note_on,36,61,0
2,note_on,36,0,160
2,note_on,38,51,0
2,note_on,38,0,160
2,note_on,36,54,0
2,note_on,36,0,160
2,note_on,38,46,0
2,note_on,38,0,160
2,note_on,36,48,0
2,note_on,36,0,160
2,note_on,38,39,0
2,note_on,38,0,160
2,note_on,36,41,0
2,note_on,36,0,160
2,note_on,38,34,0
2,note_on,38,0,160
2,note_on,36,25,0
2,note_on,36,0,480
2,note_on,76,37,1440
2,note_on,72,31,0
2,note_on,64,31,0
2,note_on,64,0,480
2,note_on,72,0,0
2,note_on,76,0,0
2,note_on,74,33,0
2,note_on,71,28,0
2,note_on,62,28,0
2,note_on,62,0,180
2,note_on,71,0,0
2,note_on,74,0,0
2,note_on,72,33,60
2,note_on,69,28,0
2,note_on,60,28,0
2,note_on,60,0,180
2,note_on,69,0,0
2,note_on,72,0,0
2,note_on,72,37,60
2,note_on,64,31,0
2,note_on,60,31,0
2,note_on,60,0,480
2,note_on,64,0,0
2,note_on,72,0,0
2,note_on,71,33,0
2,note_on,62,28,0
2,note_on,59,28,0
2,note_on,59,0,180
2,note_on,62,0,0
2,note_on,71,0,0
2,note_on,69,33,60
2,note_on,60,28,0
2,note_on,57,28,0
2,note_on,57,0,180
2,note_on,60,0,0
2,note_on,69,0,0
2,note_on,69,37,60
2,note_on,60,31,0
2,note_on,57,31,0
2,note_on,57,0,480
2,note_on,60,0,0
2,note_on,69,0,0
2,note_on,71,33,0
2,note_on,62,28,0
2,note_on,59,28,0
2,note_on,59,0,180
2,note_on,62,0,0
2,note_on,71,0,0
2,note_on,72,33,60
2,note_on,64,28,0
2,note_on,60,28,0
2,note_on,60,0,180
2,note_on,64,0,0
2,note_on,72,0,0
2,note_on,72,37,60
2,note_on,64,31,0
2,note_on,60,31,0
2,note_on,60,0,480
2,note_on,64,0,0
2,note_on,72,0,0
2,note_on,74,33,0
2,note_on,66,28,0
2,note_on,62,28,0
2,note_on,62,0,180
2,note_on,66,0,0
2,note_on,74,0,0
2,note_on,76,33,60
2,note_on,67,28,0
2,note_on,64,28,0
2,note_on,64,0,180
2,note_on,67,0,0
2,note_on,76,0,0
2,note_on,79,37,60
2,note_on,76,31,0
2,note_on,67,31,0
2,note_on,67,0,480
2,note_on,76,0,0
2,note_on,79,0,0
2,note_on,78,33,0
2,note_on,74,28,0
2,note_on,66,28,0
2,note_on,66,0,180
2,note_on,74,0,0
2,note_on,78,0,0
2,note_on,76,33,60
2,note_on,72,28,0
2,note_on,64,28,0
2,note_on,64,0,180
2,note_on,72,0,0
2,note_on,76,0,0
2,note_on,76,37,60
2,note_on,72,31,0
2,note_on,64,31,0
2,note_on,64,0,480
2,note_on,72,0,0
2,note_on,76,0,0
2,note_on,74,33,0
2,note_on,66,28,0
2,note_on,62,28,0
2,note_on,62,0,180
2,note_on,66,0,0
2,note_on,74,0,0
2,note_on,72,33,60
2,note_on,64,28,0
2,note_on,60,28,0
2,note_on,60,0,180
2,note_on,64,0,0
2,note_on,72,0,0
2,note_on,72,37,60
2,note_on,64,31,0
2,note_on,60,31,0
2,note_on,60,0,480
2,note_on,64,0,0
2,note_on,72,0,0
2,note_on,74,33,0
2,note_on,66,28,0
2,note_on,62,28,0
2,note_on,62,0,180
2,note_on,66,0,0
2,note_on,74,0,0
2,note_on,76,33,60
2,note_on,72,28,0
2,note_on,64,28,0
2,note_on,64,0,180
2,note_on,72,0,0
2,note_on,76,0,0
2,note_on,76,37,60
2,note_on,72,31,0
2,note_on,64,31,0
2,note_on,64,0,480
2,note_on,72,0,0
2,note_on,76,0,0
2,note_on,78,33,0
2,note_on,69,28,0
2,note_on,66,28,0
2,note_on,66,0,180
2,note_on,69,0,0
2,note_on,78,0,0
2,note_on,79,33,60
2,note_on,71,28,0
2,note_on,67,28,0
2,note_on,67,0,180
2,note_on,71,0,0
2,note_on,79,0,0
2,note_on,83,37,60
2,note_on,79,31,0
2,note_on,71,31,0
2,note_on,71,0,480
2,note_on,79,0,0
2,note_on,83,0,0
2,note_on,81,33,0
2,note_on,78,28,0
2,note_on,69,28,0
2,note_on,69,0,180
2,note_on,78,0,0
2,note_on,81,0,0
2,note_on,79,33,60
2,note_on,76,28,0
2,note_on,67,28,0
2,note_on,67,0,180
2,note_on,76,0,0
2,note_on,79,0,0
2,note_on,79,37,60
2,note_on,71,31,0
2,note_on,67,31,0
2,note_on,67,0,480
2,note_on,71,0,0
2,note_on,79,0,0
2,note_on,78,33,0
2,note_on,69,28,0
2,note_on,66,28,0
2,note_on,66,0,180
2,note_on,69,0,0
2,note_on,78,0,0
2,note_on,76,33,60
2,note_on,67,28,0
2,note_on,64,28,0
2,note_on,64,0,180
2,note_on,67,0,0
2,note_on,76,0,0
2,note_on,67,31,60
2,note_on,76,37,0
2,note_on,72,31,0
2,note_on,64,31,0
2,note_on,64,0,456
2,note_on,67,0,0
2,note_on,76,0,0
2,note_on,72,0,0
2,note_on,72,28,24
2,note_on,76,33,0
2,note_on,67,28,0
2,note_on,64,28,0
2,note_on,64,0,180
2,note_on,72,0,0
2,note_on,76,0,0
2,note_on,67,0,0
2,note_on,67,28,60
2,note_on,76,33,0
2,note_on,72,28,0
2,note_on,64,28,0
2,note_on,64,0,180
2,note_on,67,0,0
2,note_on,76,0,0
2,note_on,72,0,0
2,note_on,57,47,60
2,note_on,57,0,137
2,note_on,59,37,0
2,note_on,59,0,137
2,note_on,57,41,1
2,note_on,57,0,137
2,note_on,59,38,1
2,note_on,59,0,137
2,note_on,57,41,0
2,note_on,57,0,137
2,note_on,59,38,1
2,note_on,59,0,137
2,note_on,57,41,0
2,note_on,57,0,135
2,note_on,45,42,960
2,note_on,45,0,137
2,note_on,47,33,0
2,note_on,47,0,137
2,note_on,45,36,1
2,note_on,45,0,137
2,note_on,47,34,1
2,note_on,47,0,137
2,note_on,45,36,0
2,note_on,45,0,137
2,note_on,47,34,1
2,note_on,47,0,137
2,note_on,45,36,0
2,note_on,45,0,135
2,note_on,67,31,0
2,note_on,76,37,0
2,note_on,72,31,0
2,note_on,64,31,0
2,note_on,64,0,456
2,note_on,67,0,0
2,note_on,76,0,0
2,note_on,72,0,0
2,note_on,72,28,24
2,note_on,76,33,0
2,note_on,67,28,0
2,note_on,64,28,0
2,note_on,64,0,180
2,note_on,72,0,0
2,note_on,76,0,0
2,note_on,67,0,0
2,note_on,67,28,60
2,note_on,76,33,0
2,note_on,72,28,0
2,note_on,64,28,0
2,note_on,64,0,180
2,note_on,67,0,0
2,note_on,76,0,0
2,note_on,72,0,0
2,note_on,57,47,60
2,note_on,57,0,137
2,note_on,59,37,0
2,note_on,59,0,137
2,note_on,57,41,1
2,note_on,57,0,137
2,note_on,59,38,1
2,note_on,59,0,137
2,note_on,57,41,0
2,note_on,57,0,137
2,note_on,59,38,1
2,note_on,59,0,137
2,note_on,57,41,0
2,note_on,57,0,135
2,note_on,45,42,960
2,note_on,45,0,137
2,note_on,47,33,0
2,note_on,47,0,137
2,note_on,45,36,1
2,note_on,45,0,137
2,note_on,47,34,1
2,note_on,47,0,137
2,note_on,45,36,0
2,note_on,45,0,137
2,note_on,47,34,1
2,note_on,47,0,137
2,note_on,45,36,0
2,note_on,38,39,135
2,note_on,38,0,160
2,note_on,40,33,0
2,note_on,40,0,160
2,note_on,38,39,0
2,note_on,38,0,160
2,note_on,40,32,0
2,note_on,40,0,160
2,note_on,38,39,0
2,note_on,38,0,160
2,note_on,40,33,0
2,note_on,40,0,160
2,note_on,38,39,0
2,note_on,38,0,160
2,note_on,40,33,0
2,note_on,40,0,160
2,note_on,38,39,0
2,note_on,38,0,160
2,note_on,40,33,0
2,note_on,40,0,160
2,note_on,38,39,0
2,note_on,38,0,160
2,note_on,40,34,0
2,note_on,40,0,160
2,note_on,38,39,0
2,note_on,38,0,160
2,note_on,40,33,0
2,note_on,40,0,160
2,note_on,38,39,0
2,note_on,38,0,160
2,note_on,40,32,0
2,note_on,40,0,160
2,note_on,38,39,0
2,note_on,38,0,160
2,note_on,40,33,0
2,note_on,40,0,160
2,note_on,38,39,0
2,note_on,38,0,160
2,note_on,40,33,0
2,note_on,40,0,160
2,note_on,38,39,0
2,note_on,38,0,160
2,note_on,40,33,0
2,note_on,40,0,160
2,note_on,38,39,0
2,note_on,38,0,160
2,note_on,40,34,0
2,note_on,40,0,160
2,note_on,38,39,0
2,note_on,38,0,160
2,note_on,40,33,0
2,note_on,40,0,160
2,note_on,38,39,0
2,note_on,38,0,160
2,note_on,40,32,0
2,note_on,40,0,160
2,note_on,38,39,0
2,note_on,38,0,160
2,note_on,40,33,0
2,note_on,40,0,160
2,note_on,36,39,0
2,note_on,36,0,160
2,note_on,38,33,0
2,note_on,38,0,160
2,note_on,36,39,0
2,note_on,36,0,160
2,note_on,38,33,0
2,note_on,38,0,160
2,note_on,36,39,0
2,note_on,36,0,160
2,note_on,38,34,0
2,note_on,38,0,160
2,note_on,45,0,0
2,note_on,36,39,0
2,note_on,36,0,160
2,note_on,38,32,0
2,note_on,38,0,160
2,note_on,36,38,0
2,note_on,36,0,160
2,note_on,38,32,0
2,note_on,38,0,160
2,note_on,36,37,0
2,note_on,36,0,160
2,note_on,38,31,0
2,note_on,38,0,160
2,note_on,33,36,0
2,note_on,33,0,160
2,note_on,38,30,0
2,note_on,38,0,160
2,note_on,33,35,0
2,note_on,33,0,160
2,note_on,38,29,0
2,note_on,38,0,160
2,note_on,33,34,0
2,note_on,33,0,160
2,note_on,38,29,0
2,note_on,38,0,160
2,note_on,31,45,0
2,note_on,31,0,240
2,note_on,59,37,0
2,note_on,59,0,240
2,note_on,64,40,0
2,note_on,64,0,240
2,note_on,62,36,0
2,note_on,62,0,240
2,note_on,69,40,0
2,note_on,69,0,240
2,note_on,67,37,0
2,note_on,67,0,240
2,note_on,62,40,0
2,note_on,62,0,240
2,note_on,59,37,0
2,note_on,59,0,240
2,note_on,52,36,240
2,note_on,52,0,240
2,note_on,59,40,0
2,note_on,59,0,240
2,note_on,57,38,0
2,note_on,57,0,240
2,note_on,66,40,0
2,note_on,66,0,240
2,note_on,64,37,0
2,note_on,64,0,240
2,note_on,61,40,0
2,note_on,61,0,240
2,note_on,55,37,0
2,note_on,55,0,240
2,note_on,50,36,240
2,note_on,50,0,240
2,note_on,64,40,0
2,note_on,64,0,240
2,note_on,62,38,0
2,note_on,62,0,240
2,note_on,72,40,0
2,note_on,72,0,240
2,note_on,69,37,0
2,note_on,69,0,240
2,note_on,66,40,0
2,note_on,66,0,240
2,note_on,62,37,0
2,note_on,62,0,240
2,note_on,55,36,240
2,note_on,55,0,240
2,note_on,64,40,0
2,note_on,64,0,240
2,note_on,62,38,0
2,note_on,62,0,240
2,note_on,69,40,0
2,note_on,69,0,240
2,note_on,67,37,0
2,note_on,67,0,240
2,note_on,62,40,0
2,note_on,62,0,240
2,note_on,59,37,0
2,note_on,59,0,240
2,note_on,40,40,240
2,note_on,40,0,240
2,note_on,54,44,0
2,note_on,54,0,240
2,note_on,52,39,0
2,note_on,52,0,240
2,note_on,60,44,0
2,note_on,60,0,240
2,note_on,59,40,0
2,note_on,59,0,240
2,note_on,55,44,0
2,note_on,55,0,240
2,note_on,52,40,0
2,note_on,52,0,240
2,note_on,49,39,240
2,note_on,49,0,240
2,note_on,55,44,0
2,note_on,55,0,240
2,note_on,54,41,0
2,note_on,54,0,240
2,note_on,64,44,0
2,note_on,64,0,240
2,note_on,61,40,0
2,note_on,61,0,240
2,note_on,58,44,0
2,note_on,58,0,240
2,note_on,54,40,0
2,note_on,54,0,240
2,note_on,42,39,240
2,note_on,42,0,240
2,note_on,62,44,0
2,note_on,62,0,240
2,note_on,61,41,0
2,note_on,61,0,240
2,note_on,66,44,0
2,note_on,66,0,240
2,note_on,64,40,0
2,note_on,64,0,240
2,note_on,61,44,0
2,note_on,61,0,240
2,note_on,54,40,0
2,note_on,54,0,240
2,note_on,47,38,240
2,note_on,47,0,240
2,note_on,61,42,0
2,note_on,61,0,240
2,note_on,59,39,0
2,note_on,59,0,240
2,note_on,55,41,0
2,note_on,55,0,240
2,note_on,54,31,0
2,note_on,54,0,240
2,note_on,50,34,0
2,note_on,50,0,240
2,note_on,47,26,0
2,note_on,47,0,240
2,note_on,45,30,0
2,note_on,54,30,15
2,note_on,62,30,15
2,note_on,45,0,210
2,note_on,62,0,720
2,note_on,54,0,0
2,note_on,57,24,0
2,note_on,64,29,0
2,note_on,64,0,720
2,note_on,57,0,0
2,note_on,62,19,0
2,note_on,66,23,0
2,note_on,66,0,216
2,note_on,62,0,0
2,note_on,62,30,24
2,note_on,66,30,0
2,note_on,66,0,960
2,note_on,62,0,0
2,note_on,57,24,0
2,note_on,64,29,0
2,note_on,64,0,480
2,note_on,57,0,0
2,note_on,64,29,240
2,note_on,57,24,0
2,note_on,57,0,240
2,note_on,64,0,0
2,note_on,33,29,480
2,note_on,33,0,160
2,note_on,45,25,0
2,note_on,45,0,140
2,note_on,45,25,20
2,note_on,45,0,160
2,note_on,57,33,0
2,note_on,57,0,160
2,note_on,56,29,0
2,note_on,56,0,160
2,note_on,59,29,0
2,note_on,59,0,160
2,note_on,57,33,0
2,note_on,57,0,160
2,note_on,54,26,0
2,note_on,54,0,160
2,note_on,45,26,0
2,note_on,45,0,160
2,note_on,33,29,480
2,note_on,33,0,160
2,note_on,45,25,0
2,note_on,45,0,140
2,note_on,45,25,20
2,note_on,45,0,160
2,note_on,57,33,0
2,note_on,57,0,160
2,note_on,56,29,0
2,note_on,56,0,160
2,note_on,59,29,0
2,note_on,59,0,160
2,note_on,57,33,0
2,note_on,57,0,160
2,note_on,54,26,0
2,note_on,54,0,160
2,note_on,45,26,0
2,note_on,45,0,160
2,note_on,45,30,0
2,note_on,54,30,15
2,note_on,62,30,15
2,note_on,45,0,210
2,note_on,62,0,720
2,note_on,54,0,0
2,note_on,57,24,0
2,note_on,64,29,0
2,note_on,64,0,720
2,note_on,57,0,0
2,note_on,62,19,0
2,note_on,66,23,0
2,note_on,66,0,216
2,note_on,62,0,0
2,note_on,62,30,24
2,note_on,66,30,0
2,note_on,66,0,960
2,note_on,62,0,0
2,note_on,57,24,0
2,note_on,64,29,0
2,note_on,64,0,480
2,note_on,57,0,0
2,note_on,64,29,240
2,note_on,57,24,0
2,note_on,57,0,240
2,note_on,64,0,0
2,note_on,71,33,0
2,note_on,67,33,0
2,note_on,67,0,945
2,note_on,71,0,15
2,note_on,64,26,0
2,note_on,67,31,0
2,note_on,64,0,700
2,note_on,67,0,20
2,note_on,61,20,0
2,note_on,64,25,0
2,note_on,64,0,240
2,note_on,61,0,0
2,note_on,71,33,0
2,note_on,67,33,0
2,note_on,67,0,945
2,note_on,71,0,15
2,note_on,64,26,0
2,note_on,67,31,0
2,note_on,64,0,700
2,note_on,67,0,20
2,note_on,61,20,0
2,note_on,64,25,0
2,note_on,64,0,240
2,note_on,61,0,0
2,note_on,70,33,0
2,note_on,67,33,0
2,note_on,67,0,945
2,note_on,70,0,15
2,note_on,64,26,0
2,note_on,67,31,0
2,note_on,64,0,700
2,note_on,67,0,20
2,note_on,61,20,0
2,note_on,64,25,0
2,note_on,64,0,240
2,note_on,61,0,0
2,note_on,70,39,0
2,note_on,67,39,0
2,note_on,67,0,472
2,note_on,70,0,8
2,note_on,64,31,0
2,note_on,67,38,0
2,note_on,64,0,314
2,note_on,67,0,6
2,note_on,61,25,0
2,note_on,64,31,0
2,note_on,64,0,160
2,note_on,61,0,0
2,note_on,70,41,0
2,note_on,67,41,0
2,note_on,67,0,470
2,note_on,70,0,10
2,note_on,64,34,0
2,note_on,67,41,0
2,note_on,67,0,320
2,note_on,64,0,0
2,note_on,61,27,0
2,note_on,64,33,0
2,note_on,64,0,160
2,note_on,61,0,0
2,note_on,67,57,0
2,note_on,70,57,0
2,note_on,70,0,160
2,note_on,67,0,0
2,note_on,64,49,0
2,note_on,64,0,160
2,note_on,61,52,0
2,note_on,61,0,160
2,note_on,73,62,0
2,note_on,73,0,160
2,note_on,70,54,0
2,note_on,70,0,160
2,note_on,67,54,0
2,note_on,67,0,160
2,note_on,76,69,0
2,note_on,76,0,160
2,note_on,73,62,0
2,note_on,73,0,160
2,note_on,70,63,0
2,note_on,70,0,160
2,note_on,79,76,0
2,note_on,79,0,160
2,note_on,76,64,0
2,note_on,76,0,160
2,note_on,73,66,0
2,note_on,73,0,160
2,note_on,64,70,480
2,note_on,52,58,0
2,note_on,52,0,120
2,note_on,64,0,0
2,note_on,61,61,120
2,note_on,49,52,0
2,note_on,49,0,120
2,note_on,61,0,0
2,note_on,46,68,120
2,note_on,58,81,0
2,note_on,58,0,120
2,note_on,46,0,0
2,note_on,43,64,120
2,note_on,55,76,0
2,note_on,55,0,120
2,note_on,43,0,0
2,note_on,40,78,120
2,note_on,52,93,0
2,note_on,52,0,120
2,note_on,40,0,0
2,note_on,37,72,120
2,note_on,49,85,0
2,note_on,49,0,120
2,note_on,37,0,0
2,note_on,48,88,120
2,note_on,43,79,0
2,note_on,36,75,0
2,note_on,36,0,720
2,note_on,43,0,0
2,note_on,48,0,0
2,note_on,36,66,0
2,note_on,43,66,0
2,note_on,48,78,0
2,note_on,48,0,216
2,note_on,43,0,0
2,note_on,36,0,0
2,note_on,36,66,24
2,note_on,43,66,0
2,note_on,48,78,0
2,note_on,48,0,480
2,note_on,43,0,0
2,note_on,36,0,0
2,note_on,38,60,0
2,note_on,50,70,0
2,note_on,50,0,120
2,note_on,38,0,0
2,note_on,40,66,120
2,note_on,48,66,0
2,note_on,52,78,0
2,note_on,52,0,120
2,note_on,48,0,0
2,note_on,40,0,0
2,note_on,41,67,120
2,note_on,48,67,0
2,note_on,53,80,0
2,note_on,53,0,120
2,note_on,48,0,0
2,note_on,41,0,0
2,note_on,40,62,360
2,note_on,48,62,0
2,note_on,52,74,0
2,note_on,52,0,120
2,note_on,48,0,0
2,note_on,40,0,0
2,note_on,36,66,1080
2,note_on,43,66,0
2,note_on,48,78,0
2,note_on,48,0,216
2,note_on,43,0,0
2,note_on,36,0,0
2,note_on,36,66,24
2,note_on,43,66,0
2,note_on,48,78,0
2,note_on,48,0,480
2,note_on,43,0,0
2,note_on,36,0,0
2,note_on,38,60,0
2,note_on,50,70,0
2,note_on,50,0,120
2,note_on,38,0,0
2,note_on,40,66,120
2,note_on,48,66,0
2,note_on,52,78,0
2,note_on,52,0,120
2,note_on,48,0,0
2,note_on,40,0,0
2,note_on,41,67,120
2,note_on,48,67,0
2,note_on,53,80,0
2,note_on,53,0,240
2,note_on,48,0,0
2,note_on,41,0,0
2,note_on,48,60,240
2,note_on,40,60,0
2,note_on,52,70,0
2,note_on,52,0,120
2,note_on,40,0,0
2,note_on,48,0,0
2,note_on,41,66,120
2,note_on,48,66,0
2,note_on,53,78,0
2,note_on,53,0,120
2,note_on,48,0,0
2,note_on,41,0,0
2,note_on,43,67,120
2,note_on,48,67,0
2,note_on,55,80,0
2,note_on,55,0,120
2,note_on,48,0,0
2,note_on,43,0,0
2,note_on,41,62,360
2,note_on,48,62,0
2,note_on,53,74,0
2,note_on,53,0,120
2,note_on,48,0,0
2,note_on,41,0,0
2,note_on,48,50,840
2,note_on,40,50,0
2,note_on,52,59,0
2,note_on,52,0,120
2,note_on,40,0,0
2,note_on,48,0,0
2,note_on,41,55,120
2,note_on,48,55,0
2,note_on,53,65,0
2,note_on,53,0,120
2,note_on,48,0,0
2,note_on,41,0,0
2,note_on,38,56,120
2,note_on,50,67,0
2,note_on,50,0,120
2,note_on,38,0,0
2,note_on,40,57,360
2,note_on,52,68,0
2,note_on,52,0,120
2,note_on,40,0,0
2,note_on,35,59,360
2,note_on,47,70,0
2,note_on,47,0,120
2,note_on,35,0,0
2,note_on,36,62,360
2,note_on,48,73,0
2,note_on,48,0,120
2,note_on,36,0,0
2,note_on,33,67,360
2,note_on,38,67,0
2,note_on,45,79,0
2,note_on,45,0,960
2,note_on,38,0,0
2,note_on,33,0,0
2,note_on,31,63,0
2,note_on,38,63,0
2,note_on,43,75,0
2,note_on,43,0,480
2,note_on,38,0,0
2,note_on,31,0,0
2,note_on,62,70,0
2,note_on,62,0,120
2,note_on,66,63,120
2,note_on,66,0,120
2,note_on,67,69,120
2,note_on,67,0,120
2,note_on,50,56,360
2,note_on,50,0,120
2,note_on,54,50,120
2,note_on,54,0,120
2,note_on,55,55,120
2,note_on,55,0,120
2,note_on,38,56,360
2,note_on,38,0,120
2,note_on,42,50,120
2,note_on,42,0,120
2,note_on,43,55,120
2,note_on,43,0,480
2,note_on,59,48,480
2,note_on,55,48,0
2,note_on,62,55,0
2,note_on,62,0,480
2,note_on,55,0,0
2,note_on,59,0,0
2,note_on,48,69,480
2,note_on,51,72,30
2,note_on,55,77,30
2,note_on,60,80,30
2,note_on,60,0,630
2,note_on,48,0,0
2,note_on,51,0,0
2,note_on,55,0,0
2,note_on,43,60,0
2,note_on,36,60,0
2,note_on,48,71,0
2,note_on,48,0,216
2,note_on,36,0,0
2,note_on,43,0,0
2,note_on,43,60,24
2,note_on,36,60,0
2,note_on,48,71,0
2,note_on,48,0,480
2,note_on,36,0,0
2,note_on,43,0,0
2,note_on,38,55,0
2,note_on,50,64,0
2,note_on,50,0,120
2,note_on,38,0,0
2,note_on,39,60,120
2,note_on,51,71,0
2,note_on,51,0,120
2,note_on,39,0,0
2,note_on,41,61,120
2,note_on,48,61,0
2,note_on,53,73,0
2,note_on,53,0,120
2,note_on,48,0,0
2,note_on,41,0,0
2,note_on,41,57,360
2,note_on,48,57,0
2,note_on,53,68,0
2,note_on,53,0,120
2,note_on,48,0,0
2,note_on,41,0,0
2,note_on,44,61,840
2,note_on,56,73,0
2,note_on,56,0,120
2,note_on,44,0,0
2,note_on,49,69,360
2,note_on,56,72,30
2,note_on,61,77,30
2,note_on,65,80,30
2,note_on,65,0,630
2,note_on,49,0,0
2,note_on,56,0,0
2,note_on,61,0,0
2,note_on,37,60,0
2,note_on,49,71,0
2,note_on,49,0,216
2,note_on,37,0,0
2,note_on,37,60,24
2,note_on,49,71,0
2,note_on,49,0,480
2,note_on,37,0,0
2,note_on,39,55,0
2,note_on,51,64,0
2,note_on,51,0,120
2,note_on,39,0,0
2,note_on,41,60,120
2,note_on,53,71,0
2,note_on,53,0,120
2,note_on,41,0,0
2,note_on,42,54,120
2,note_on,49,54,0
2,note_on,54,65,0
2,note_on,54,0,120
2,note_on,49,0,0
2,note_on,42,0,0
2,note_on,42,51,360
2,note_on,49,51,0
2,note_on,54,61,0
2,note_on,54,0,120
2,note_on,49,0,0
2,note_on,42,0,0
2,note_on,45,61,840
2,note_on,57,73,0
2,note_on,57,0,120
2,note_on,45,0,0
2,note_on,50,69,360
2,note_on,57,72,30
2,note_on,62,77,30
2,note_on,66,80,30
2,note_on,66,0,630
2,note_on,50,0,0
2,note_on,57,0,0
2,note_on,62,0,0
2,note_on,38,60,0
2,note_on,50,71,0
2,note_on,50,0,216
2,note_on,38,0,0
2,note_on,38,60,24
2,note_on,50,71,0
2,note_on,50,0,480
2,note_on,38,0,0
2,note_on,40,55,0
2,note_on,52,64,0
2,note_on,52,0,120
2,note_on,40,0,0
2,note_on,42,60,120
2,note_on,54,71,0
2,note_on,54,0,120
2,note_on,42,0,0
2,note_on,43,61,120
2,note_on,50,61,0
2,note_on,55,73,0
2,note_on,55,0,120
2,note_on,50,0,0
2,note_on,43,0,0
2,note_on,42,57,360
2,note_on,50,57,0
2,note_on,54,68,0
2,note_on,54,0,120
2,note_on,50,0,0
2,note_on,42,0,0
2,note_on,39,54,840
2,note_on,51,65,0
2,note_on,51,0,120
2,note_on,39,0,0
2,note_on,38,57,360
2,note_on,50,68,0
2,note_on,50,0,120
2,note_on,38,0,0
2,note_on,50,68,120
2,note_on,50,0,240
2,note_on,51,68,0
2,note_on,63,75,0
2,note_on,63,0,480
2,note_on,51,0,0
2,note_on,38,68,240
2,note_on,38,0,240
2,note_on,39,67,0
2,note_on,51,75,0
2,note_on,51,0,480
2,note_on,39,0,0
2,note_on,50,68,240
2,note_on,50,0,240
2,note_on,51,68,0
2,note_on,63,75,0
2,note_on,63,0,480
2,note_on,51,0,0
2,note_on,38,68,240
2,note_on,38,0,240
2,note_on,39,67,0
2,note_on,51,75,0
2,note_on,51,0,480
2,note_on,39,0,0
2,note_on,40,68,0
2,note_on,52,75,0
2,note_on,52,0,216
2,note_on,40,0,0
2,note_on,52,68,24
2,note_on,52,0,240
2,note_on,53,68,0
2,note_on,65,75,0
2,note_on,65,0,480
2,note_on,53,0,0
2,note_on,40,68,240
2,note_on,40,0,240
2,note_on,41,67,0
2,note_on,53,75,0
2,note_on,53,0,480
2,note_on,41,0,0
2,note_on,52,68,240
2,note_on,52,0,240
2,note_on,53,68,0
2,note_on,65,75,0
2,note_on,65,0,480
2,note_on,53,0,0
2,note_on,40,68,240
2,note_on,40,0,240
2,note_on,41,67,0
2,note_on,53,75,0
2,note_on,53,0,720
2,note_on,41,0,0
2,note_on,41,68,0
2,note_on,41,0,240
2,note_on,42,67,0
2,note_on,54,75,0
2,note_on,42,0,700
2,note_on,54,0,20
2,note_on,42,68,0
2,note_on,42,0,240
2,note_on,43,67,0
2,note_on,55,75,0
2,note_on,55,0,720
2,note_on,43,0,0
2,note_on,43,68,0
2,note_on,43,0,240
2,note_on,45,67,0
2,note_on,57,75,0
2,note_on,45,0,700
2,note_on,57,0,20
2,note_on,45,68,0
2,note_on,45,0,240
2,note_on,46,67,0
2,note_on,58,75,0
2,note_on,46,0,700
2,note_on,58,0,20
2,note_on,46,68,0
2,note_on,46,0,240
2,note_on,48,67,0
2,note_on,60,75,0
2,note_on,48,0,700
2,note_on,60,0,20
2,note_on,48,68,0
2,note_on,48,0,240
2,note_on,49,67,0
2,note_on,61,75,0
2,note_on,61,0,480
2,note_on,49,0,0
2,note_on,50,67,0
2,note_on,62,75,0
2,note_on,62,0,240
2,note_on,50,0,0
2,note_on,50,54,720
2,note_on,54,54,0
2,note_on,57,64,0
2,note_on,57,0,120
2,note_on,54,0,0
2,note_on,50,0,0
2,note_on,38,54,840
2,note_on,45,54,0
2,note_on,54,64,0
2,note_on,54,0,120
2,note_on,45,0,0
2,note_on,38,0,0
2,note_on,63,64,2040
2,note_on,63,0,240
2,note_on,67,70,0
2,note_on,67,0,240
2,note_on,79,63,0
2,note_on,79,0,240
2,note_on,62,38,1200
2,note_on,62,0,240
2,note_on,66,42,0
2,note_on,66,0,240
2,note_on,78,37,0
2,note_on,78,0,240
2,note_on,63,26,1200
2,note_on,63,0,240
2,note_on,67,28,0
2,note_on,67,0,240
2,note_on,63,22,0
2,note_on,63,0,240
2,note_on,67,28,0
2,note_on,67,0,240
2,note_on,63,24,0
2,note_on,63,0,240
2,note_on,67,24,0
2,note_on,67,0,240
2,note_on,72,20,0
2,note_on,72,0,240
2,note_on,65,23,240
2,note_on,65,0,240
2,note_on,68,27,0
2,note_on,68,0,240
2,note_on,65,22,0
2,note_on,65,0,240
2,note_on,68,27,0
2,note_on,68,0,240
2,note_on,65,24,0
2,note_on,65,0,240
2,note_on,68,24,0
2,note_on,68,0,240
2,note_on,72,20,0
2,note_on,72,0,240
2,note_on,55,24,240
2,note_on,55,0,240
2,note_on,59,27,0
2,note_on,59,0,240
2,note_on,55,24,0
2,note_on,55,0,240
2,note_on,59,27,0
2,note_on,59,0,240
2,note_on,55,23,0
2,note_on,55,0,240
2,note_on,59,23,0
2,note_on,59,0,240
2,note_on,65,19,0
2,note_on,65,0,240
2,note_on,60,23,240
2,note_on,60,0,240
2,note_on,67,27,0
2,note_on,67,0,240
2,note_on,60,24,0
2,note_on,60,0,240
2,note_on,67,27,0
2,note_on,67,0,240
2,note_on,60,22,0
2,note_on,60,0,240
2,note_on,67,22,0
2,note_on,67,0,240
2,note_on,72,20,0
2,note_on,72,0,240
2,note_on,48,29,240
2,note_on,48,0,240
2,note_on,55,32,0
2,note_on,55,0,240
2,note_on,48,28,0
2,note_on,48,0,240
2,note_on,55,32,0
2,note_on,55,0,240
2,note_on,48,27,0
2,note_on,48,0,240
2,note_on,55,27,0
2,note_on,55,0,240
2,note_on,57,27,0
2,note_on,57,0,240
2,note_on,46,26,240
2,note_on,46,0,240
2,note_on,55,31,0
2,note_on,55,0,240
2,note_on,58,27,0
2,note_on,58,0,240
2,note_on,63,39,0
2,note_on,63,0,240
2,note_on,58,34,0
2,note_on,58,0,240
2,note_on,55,37,0
2,note_on,55,0,240
2,note_on,51,40,0
2,note_on,51,0,240
2,note_on,45,44,0
2,note_on,45,0,240
2,note_on,50,38,0
2,note_on,50,0,240
2,note_on,55,38,0
2,note_on,55,0,240
2,note_on,58,38,0
2,note_on,58,0,240
2,note_on,43,51,0
2,note_on,43,0,240
2,note_on,50,40,0
2,note_on,50,0,240
2,note_on,55,42,0
2,note_on,55,0,240
2,note_on,58,42,0
2,note_on,58,0,240
2,note_on,38,57,0
2,note_on,38,0,240
2,note_on,50,44,0
2,note_on,50,0,240
2,note_on,53,44,0
2,note_on,53,0,240
2,note_on,58,44,0
2,note_on,58,0,240
2,note_on,70,53,0
2,note_on,70,0,240
2,note_on,65,44,0
2,note_on,65,0,240
2,note_on,62,44,0
2,note_on,62,0,240
2,note_on,58,44,0
2,note_on,58,0,240
2,note_on,50,53,0
2,note_on,50,0,240
2,note_on,53,42,0
2,note_on,53,0,240
2,note_on,58,44,0
2,note_on,58,0,240
2,note_on,65,41,0
2,note_on,65,0,240
2,note_on,54,39,240
2,note_on,54,0,240
2,note_on,60,42,0
2,note_on,60,0,240
2,note_on,63,39,0
2,note_on,63,0,240
2,note_on,55,39,240
2,note_on,55,0,240
2,note_on,58,42,0
2,note_on,58,0,240
2,note_on,63,39,0
2,note_on,63,0,240
2,note_on,56,32,240
2,note_on,56,0,240
2,note_on,60,37,0
2,note_on,60,0,240
2,note_on,63,32,0
2,note_on,63,0,240
2,note_on,58,33,240
2,note_on,58,0,240
2,note_on,63,37,0
2,note_on,63,0,240
2,note_on,67,34,0
2,note_on,67,0,240
2,note_on,59,44,0
2,note_on,65,34,240
2,note_on,65,0,240
2,note_on,68,34,0
2,note_on,68,0,240
2,note_on,71,34,0
2,note_on,71,0,240
2,note_on,59,0,0
2,note_on,60,44,0
2,note_on,63,30,240
2,note_on,63,0,240
2,note_on,68,34,0
2,note_on,68,0,240
2,note_on,72,29,0
2,note_on,72,0,240
2,note_on,60,0,0
2,note_on,62,32,0
2,note_on,66,26,240
2,note_on,66,0,240
2,note_on,69,29,0
2,note_on,69,0,240
2,note_on,74,26,0
2,note_on,74,0,240
2,note_on,62,0,0
2,note_on,67,28,0
2,note_on,67,0,240
2,note_on,55,20,0
2,note_on,55,0,240
2,note_on,67,20,0
2,note_on,67,0,240
2,note_on,55,20,0
2,note_on,55,0,240
2,note_on,65,28,0
2,note_on,62,24,0
2,note_on,62,0,240
2,note_on,65,0,0
2,note_on,55,21,0
2,note_on,55,0,240
2,note_on,67,21,0
2,note_on,63,18,0
2,note_on,63,0,240
2,note_on,67,0,0
2,note_on,55,21,0
2,note_on,55,0,240
2,note_on,68,28,0
2,note_on,65,24,0
2,note_on,65,0,240
2,note_on,68,0,0
2,note_on,55,20,0
2,note_on,55,0,240
2,note_on,65,20,0
2,note_on,62,17,0
2,note_on,62,0,240
2,note_on,65,0,0
2,note_on,55,20,0
2,note_on,55,0,240
2,note_on,59,23,0
2,note_on,62,27,0
2,note_on,62,0,240
2,note_on,59,0,0
2,note_on,55,21,0
2,note_on,55,0,240
2,note_on,63,21,0
2,note_on,60,18,0
2,note_on,60,0,240
2,note_on,63,0,0
2,note_on,55,21,0
2,note_on,55,0,240
2,note_on,62,24,0
2,note_on,65,28,0
2,note_on,65,0,240
2,note_on,62,0,0
2,note_on,55,20,0
2,note_on,55,0,240
2,note_on,60,24,0
2,note_on,63,20,0
2,note_on,63,0,240
2,note_on,60,0,0
2,note_on,55,20,0
2,note_on,55,0,240
2,note_on,62,28,0
2,note_on,58,24,0
2,note_on,58,0,240
2,note_on,62,0,0
2,note_on,55,21,0
2,note_on,55,0,240
2,note_on,60,21,0
2,note_on,56,18,0
2,note_on,56,0,240
2,note_on,60,0,0
2,note_on,55,21,0
2,note_on,55,0,240
2,note_on,59,28,0
2,note_on,59,0,240
2,note_on,55,20,0
2,note_on,55,0,240
2,note_on,60,20,0
2,note_on,57,17,0
2,note_on,57,0,240
2,note_on,60,0,0
2,note_on,55,20,0
2,note_on,55,0,240
2,note_on,59,23,0
2,note_on,62,27,0
2,note_on,62,0,240
2,note_on,59,0,0
2,note_on,55,21,0
2,note_on,55,0,240
2,note_on,59,21,0
2,note_on,59,0,240
2,note_on,55,21,0
2,note_on,55,0,240
2,note_on,63,24,0
2,note_on,67,28,0
2,note_on,67,0,240
2,note_on,63,0,0
2,note_on,55,20,0
2,note_on,55,0,240
2,note_on,63,24,0
2,note_on,67,20,0
2,note_on,67,0,240
2,note_on,63,0,0
2,note_on,55,20,0
2,note_on,55,0,240
2,note_on,65,28,0
2,note_on,62,24,0
2,note_on,62,0,240
2,note_on,65,0,0
2,note_on,55,21,0
2,note_on,55,0,240
2,note_on,67,22,0
2,note_on,63,18,0
2,note_on,63,0,240
2,note_on,67,0,0
2,note_on,55,22,0
2,note_on,55,0,240
2,note_on,70,31,0
2,note_on,67,26,0
2,note_on,67,0,240
2,note_on,70,0,0
2,note_on,55,22,0
2,note_on,55,0,240
2,note_on,68,22,0
2,note_on,65,18,0
2,note_on,65,0,240
2,note_on,68,0,0
2,note_on,55,22,0
2,note_on,55,0,240
2,note_on,62,25,0
2,note_on,65,30,0
2,note_on,65,0,240
2,note_on,62,0,0
2,note_on,55,23,0
2,note_on,55,0,240
2,note_on,68,23,0
2,note_on,65,19,0
2,note_on,65,0,240
2,note_on,68,0,0
2,note_on,55,23,0
2,note_on,55,0,240
2,note_on,63,26,0
2,note_on,67,31,0
2,note_on,67,0,240
2,note_on,63,0,0
2,note_on,55,22,0
2,note_on,55,0,240
2,note_on,60,26,0
2,note_on,63,21,0
2,note_on,63,0,240
2,note_on,60,0,0
2,note_on,55,21,0
2,note_on,55,0,240
2,note_on,65,29,0
2,note_on,62,25,0
2,note_on,62,0,240
2,note_on,65,0,0
2,note_on,55,21,0
2,note_on,55,0,240
2,note_on,62,21,0
2,note_on,59,18,0
2,note_on,59,0,240
2,note_on,62,0,0
2,note_on,55,21,0
2,note_on,55,0,240
2,note_on,60,24,0
2,note_on,63,28,0
2,note_on,63,0,240
2,note_on,60,0,0
2,note_on,55,20,0
2,note_on,55,0,240
2,note_on,60,20,0
2,note_on,57,17,0
2,note_on,57,0,240
2,note_on,60,0,0
2,note_on,55,20,0
2,note_on,55,0,240
2,note_on,59,23,0
2,note_on,62,27,0
2,note_on,62,0,240
2,note_on,59,0,0
2,note_on,55,21,0
2,note_on,55,0,240
2,note_on,59,21,0
2,note_on,59,0,240
2,note_on,55,21,0
2,note_on,55,0,240
2,note_on,63,29,0
2,note_on,63,0,240
2,note_on,60,21,0
2,note_on,60,0,240
2,note_on,55,24,0
2,note_on,55,0,240
2,note_on,51,21,0
2,note_on,51,0,240
2,note_on,63,29,0
2,note_on,63,0,240
2,note_on,60,22,0
2,note_on,60,0,240
2,note_on,55,24,0
2,note_on,55,0,240
2,note_on,51,20,0
2,note_on,51,0,240
2,note_on,65,29,0
2,note_on,65,0,240
2,note_on,60,20,0
2,note_on,60,0,240
2,note_on,56,24,0
2,note_on,56,0,240
2,note_on,53,21,0
2,note_on,53,0,240
2,note_on,65,29,0
2,note_on,65,0,240
2,note_on,60,24,0
2,note_on,60,0,240
2,note_on,56,24,0
2,note_on,53,23,226
2,note_on,56,0,14
2,note_on,53,0,226
2,note_on,65,29,14
2,note_on,65,0,240
2,note_on,62,21,0
2,note_on,62,0,240
2,note_on,60,24,0
2,note_on,60,0,240
2,note_on,55,22,0
2,note_on,55,0,240
2,note_on,65,30,0
2,note_on,65,0,240
2,note_on,62,22,0
2,note_on,62,0,240
2,note_on,59,25,0
2,note_on,59,0,240
2,note_on,55,25,0
2,note_on,55,0,240
2,note_on,72,30,0
2,note_on,72,0,240
2,note_on,67,23,0
2,note_on,67,0,240
2,note_on,65,25,0
2,note_on,65,0,240
2,note_on,60,22,0
2,note_on,60,0,240
2,note_on,72,31,0
2,note_on,72,0,240
2,note_on,67,25,0
2,note_on,67,0,240
2,note_on,63,29,0
2,note_on,63,0,240
2,note_on,60,26,0
2,note_on,60,0,240
2,note_on,41,43,0
2,note_on,41,0,240
2,note_on,53,38,0
2,note_on,53,0,240
2,note_on,56,42,0
2,note_on,60,47,240
2,note_on,65,51,240
2,note_on,65,0,1920
2,note_on,60,0,0
2,note_on,56,0,0
2,note_on,41,43,960
2,note_on,41,0,240
2,note_on,53,38,0
2,note_on,53,0,240
2,note_on,56,42,0
2,note_on,59,47,240
2,note_on,62,51,240
2,note_on,62,0,1440
2,note_on,59,0,0
2,note_on,56,0,0
2,note_on,61,43,480
2,note_on,68,51,0
2,note_on,71,60,0
2,note_on,71,0,720
2,note_on,68,0,0
2,note_on,61,0,0
2,note_on,46,45,1200
2,note_on,47,37,120
2,note_on,46,0,12
2,note_on,46,37,108
2,note_on,47,0,12
2,note_on,45,37,108
2,note_on,46,0,12
2,note_on,46,45,108
2,note_on,45,0,12
2,note_on,49,42,108
2,note_on,46,0,12
2,note_on,54,45,108
2,note_on,49,0,12
2,note_on,58,48,108
2,note_on,54,0,12
2,note_on,59,52,108
2,note_on,61,52,0
2,note_on,58,0,12
2,note_on,61,0,708
2,note_on,59,0,0
2,note_on,58,45,240
2,note_on,59,37,120
2,note_on,58,0,12
2,note_on,58,37,108
2,note_on,59,0,12
2,note_on,57,37,108
2,note_on,58,0,12
2,note_on,58,45,108
2,note_on,57,0,12
2,note_on,61,42,108
2,note_on,58,0,12
2,note_on,66,45,108
2,note_on,61,0,12
2,note_on,70,48,108
2,note_on,66,0,12
2,note_on,71,59,108
2,note_on,73,59,0
2,note_on,70,0,12
2,note_on,73,0,708
2,note_on,71,0,0
2,note_on,83,51,240
2,note_on,80,42,120
2,note_on,83,0,12
2,note_on,77,42,108
2,note_on,80,0,12
2,note_on,73,42,108
2,note_on,77,0,12
2,note_on,71,51,108
2,note_on,73,0,12
2,note_on,68,48,108
2,note_on,71,0,12
2,note_on,65,51,108
2,note_on,68,0,12
2,note_on,59,55,108
2,note_on,65,0,12
2,note_on,60,55,108
2,note_on,59,0,12
2,note_on,56,46,948
2,note_on,65,55,0
2,note_on,65,0,960
2,note_on,56,0,0
2,note_on,55,50,0
2,note_on,67,59,0
2,note_on,67,0,960
2,note_on,55,0,0
2,note_on,53,52,0
2,note_on,68,62,0
2,note_on,68,0,1920
2,note_on,53,0,0
2,note_on,56,45,0
2,note_on,65,54,0
2,note_on,65,0,960
2,note_on,56,0,0
2,note_on,55,40,0
2,note_on,63,48,0
2,note_on,63,0,960
2,note_on,55,0,0
2,note_on,60,0,0
2,note_on,55,28,960
2,note_on,59,28,0
2,note_on,62,33,0
2,note_on,68,44,480
2,note_on,59,0,460
2,note_on,55,0,20
2,note_on,62,0,0
2,note_on,68,0,0
2,note_on,67,33,0
2,note_on,67,0,480
2,note_on,59,24,0
2,note_on,59,0,480
2,note_on,48,27,0
2,note_on,60,32,0
2,note_on,60,0,960
2,note_on,48,0,0
2,note_on,70,32,0
2,note_on,67,24,0
2,note_on,67,0,240
2,note_on,60,21,0
2,note_on,60,0,240
2,note_on,70,0,0
2,note_on,72,24,0
2,note_on,68,18,0
2,note_on,68,0,240
2,note_on,60,21,0
2,note_on,60,0,240
2,note_on,72,0,0
2,note_on,73,32,0
2,note_on,70,24,0
2,note_on,70,0,240
2,note_on,73,0,0
2,note_on,60,20,0
2,note_on,60,0,240
2,note_on,70,23,0
2,note_on,67,17,0
2,note_on,67,0,240
2,note_on,70,0,0
2,note_on,60,20,0
2,note_on,60,0,240
2,note_on,64,23,0
2,note_on,67,31,0
2,note_on,67,0,240
2,note_on,64,0,0
2,note_on,60,21,0
2,note_on,60,0,240
2,note_on,68,24,0
2,note_on,65,18,0
2,note_on,65,0,240
2,note_on,68,0,0
2,note_on,60,21,0
2,note_on,60,0,240
2,note_on,67,24,0
2,note_on,70,32,0
2,note_on,70,0,240
2,note_on,67,0,0
2,note_on,60,20,0
2,note_on,60,0,240
2,note_on,65,24,0
2,note_on,68,23,0
2,note_on,68,0,240
2,note_on,65,0,0
2,note_on,60,20,0
2,note_on,60,0,240
2,note_on,67,32,0
2,note_on,63,24,0
2,note_on,63,0,240
2,note_on,67,0,0
2,note_on,60,21,0
2,note_on,60,0,240
2,note_on,65,24,0
2,note_on,61,18,0
2,note_on,61,0,240
2,note_on,65,0,0
2,note_on,60,21,0
2,note_on,60,0,240
2,note_on,64,32,0
2,note_on,64,0,240
2,note_on,60,23,0
2,note_on,60,0,240
2,note_on,62,19,0
2,note_on,65,23,0
2,note_on,65,0,240
2,note_on,62,0,0
2,note_on,60,23,0
2,note_on,60,0,240
2,note_on,64,26,0
2,note_on,67,31,0
2,note_on,67,0,240
2,note_on,64,0,0
2,note_on,60,24,11
2,note_on,60,0,240
2,note_on,49,36,349
2,note_on,49,0,120
2,note_on,61,42,0
2,note_on,61,0,120
2,note_on,59,24,360
2,note_on,59,0,120
2,note_on,61,26,120
2,note_on,61,0,120
2,note_on,62,31,120
2,note_on,62,0,240
2,note_on,59,28,0
2,note_on,59,0,240
2,note_on,56,23,0
2,note_on,56,0,120
2,note_on,57,28,120
2,note_on,57,0,120
2,note_on,59,36,120
2,note_on,59,0,240
2,note_on,56,27,0
2,note_on,56,0,240
2,note_on,53,36,0
2,note_on,53,0,120
2,note_on,54,29,120
2,note_on,54,0,120
2,note_on,56,35,120
2,note_on,56,0,120
2,note_on,53,24,120
2,note_on,53,0,120
2,note_on,49,27,120
2,note_on,49,0,120
2,note_on,54,41,240
2,note_on,54,0,120
2,note_on,66,54,0
2,note_on,66,0,120
2,note_on,64,41,360
2,note_on,64,0,120
2,note_on,66,41,120
2,note_on,66,0,120
2,note_on,67,49,120
2,note_on,67,0,240
2,note_on,64,43,0
2,note_on,64,0,240
2,note_on,61,37,0
2,note_on,61,0,120
2,note_on,62,43,120
2,note_on,62,0,120
2,note_on,64,47,120
2,note_on,64,0,240
2,note_on,61,37,0
2,note_on,61,0,240
2,note_on,58,47,0
2,note_on,58,0,120
2,note_on,59,37,120
2,note_on,59,0,120
2,note_on,61,48,120
2,note_on,61,0,120
2,note_on,58,40,120
2,note_on,58,0,120
2,note_on,54,48,120
2,note_on,54,0,120
2,note_on,59,83,360
2,note_on,47,68,0
2,note_on,47,0,960
2,note_on,59,0,0
2,note_on,57,71,0
2,note_on,45,60,0
2,note_on,45,0,480
2,note_on,57,0,0
2,note_on,59,76,0
2,note_on,47,64,0
2,note_on,47,0,480
2,note_on,59,0,0
2,note_on,60,82,0
2,note_on,48,69,0
2,note_on,48,0,720
2,note_on,60,0,0
2,note_on,57,75,0
2,note_on,45,63,0
2,note_on,45,0,240
2,note_on,57,0,0
2,note_on,54,81,0
2,note_on,42,69,0
2,note_on,42,0,480
2,note_on,54,0,0
2,note_on,55,78,0
2,note_on,43,66,0
2,note_on,43,0,480
2,note_on,55,0,0
2,note_on,45,70,0
2,note_on,57,83,0
2,note_on,57,0,720
2,note_on,45,0,0
2,note_on,42,67,0
2,note_on,54,80,0
2,note_on,54,0,240
2,note_on,42,0,0
2,note_on,39,74,0
2,note_on,51,87,0
2,note_on,51,0,480
2,note_on,39,0,0
2,note_on,40,71,0
2,note_on,52,84,0
2,note_on,52,0,480
2,note_on,40,0,0
2,note_on,36,76,0
2,note_on,48,91,0
2,note_on,48,0,480
2,note_on,36,0,0
2,note_on,37,70,0
2,note_on,49,84,0
2,note_on,49,0,480
2,note_on,37,0,0
2,note_on,33,78,0
2,note_on,45,93,0
2,note_on,45,0,480
2,note_on,33,0,0
2,note_on,31,85,0
2,note_on,43,100,0
2,note_on,43,0,360
2,note_on,31,0,0
2,note_on,29,63,0
2,note_on,29,0,60
2,note_on,41,63,0
2,note_on,41,0,60
2,note_on,53,53,0
2,note_on,58,53,0
2,note_on,64,63,0
2,note_on,61,68,6
2,note_on,64,0,954
2,note_on,53,0,0
2,note_on,58,0,0
2,note_on,53,57,0
2,note_on,57,57,0
2,note_on,65,68,0
2,note_on,62,57,0
2,note_on,61,0,6
2,note_on,65,0,474
2,note_on,53,0,0
2,note_on,57,0,0
2,note_on,62,0,0
2,note_on,29,63,240
2,note_on,29,0,120
2,note_on,41,63,0
2,note_on,41,0,120
2,note_on,53,53,0
2,note_on,58,53,0
2,note_on,64,63,0
2,note_on,61,68,6
2,note_on,64,0,954
2,note_on,53,0,0
2,note_on,58,0,0
2,note_on,53,57,0
2,note_on,57,57,0
2,note_on,65,68,0
2,note_on,62,57,0
2,note_on,61,0,6
2,note_on,65,0,474
2,note_on,53,0,0
2,note_on,57,0,0
2,note_on,62,0,0
2,note_on,29,63,240
2,note_on,29,0,120
2,note_on,41,63,0
2,note_on,41,0,120
2,note_on,28,66,0
2,note_on,40,78,0
2,note_on,40,0,960
2,note_on,28,0,0
2,note_on,33,66,0
2,note_on,40,66,0
2,note_on,45,78,0
2,note_on,45,0,960
2,note_on,40,0,0
2,note_on,33,0,0
2,note_on,29,66,0
2,note_on,38,66,0
2,note_on,41,78,0
2,note_on,41,0,960
2,note_on,38,0,0
2,note_on,29,0,0
2,note_on,26,66,0
2,note_on,33,66,0
2,note_on,38,78,0
2,note_on,38,0,960
2,note_on,33,0,0
2,note_on,26,0,0
2,note_on,31,66,0
2,note_on,43,78,0
2,note_on,43,0,960
2,note_on,31,0,0
2,note_on,43,66,0
2,note_on,52,66,0
2,note_on,60,78,0
2,note_on,60,0,840
2,note_on,52,0,0
2,note_on,43,0,0
2,note_on,43,60,0
2,note_on,50,60,60
2,note_on,59,82,60
2,note_on,59,0,480
2,note_on,60,77,0
2,note_on,60,0,120
2,note_on,62,81,120
2,note_on,62,0,120
2,note_on,50,0,0
2,note_on,43,0,0
2,note_on,43,60,0
2,note_on,52,60,60
2,note_on,64,82,60
2,note_on,64,0,480
2,note_on,60,77,0
2,note_on,60,0,120
2,note_on,59,81,120
2,note_on,59,0,120
2,note_on,52,0,0
2,note_on,43,0,0
2,note_on,43,60,0
2,note_on,49,60,60
2,note_on,57,82,60
2,note_on,57,0,480
2,note_on,61,77,0
2,note_on,61,0,120
2,note_on,64,81,120
2,note_on,64,0,120
2,note_on,49,0,0
2,note_on,43,0,0
2,note_on,43,60,0
2,note_on,50,60,60
2,note_on,65,82,60
2,note_on,65,0,480
2,note_on,62,77,0
2,note_on,62,0,120
2,note_on,60,81,120
2,note_on,60,0,120
2,note_on,50,0,0
2,note_on,43,0,0
2,note_on,43,60,0
2,note_on,50,60,60
2,note_on,59,82,60
2,note_on,59,0,480
2,note_on,62,77,0
2,note_on,62,0,120
2,note_on,63,81,120
2,note_on,63,0,120
2,note_on,50,0,0
2,note_on,43,0,0
2,note_on,43,60,0
2,note_on,52,60,60
2,note_on,64,82,60
2,note_on,64,0,480
2,note_on,60,77,0
2,note_on,60,0,120
2,note_on,59,81,120
2,note_on,59,0,120
2,note_on,52,0,0
2,note_on,43,0,0
2,note_on,43,60,0
2,note_on,48,60,60
2,note_on,57,82,60
2,note_on,57,0,480
2,note_on,60,77,0
2,note_on,60,0,120
2,note_on,61,81,120
2,note_on,61,0,120
2,note_on,48,0,0
2,note_on,43,0,0
2,note_on,43,60,0
2,note_on,50,60,60
2,note_on,62,82,60
2,note_on,62,0,480
2,note_on,59,77,0
2,note_on,59,0,120
2,note_on,57,81,120
2,note_on,57,0,120
2,note_on,50,0,0
2,note_on,43,0,0
2,note_on,43,60,120
2,note_on,47,60,0
2,note_on,55,82,0
2,note_on,55,0,480
2,note_on,57,77,0
2,note_on,57,0,120
2,note_on,59,81,120
2,note_on,59,0,120
2,note_on,47,0,0
2,note_on,43,0,0
2,note_on,43,60,0
2,note_on,48,60,60
2,note_on,60,82,60
2,note_on,60,0,480
2,note_on,62,77,0
2,note_on,62,0,120
2,note_on,64,81,120
2,note_on,64,0,120
2,note_on,48,0,0
2,note_on,43,0,0
2,note_on,43,52,30
2,note_on,48,52,30
2,note_on,54,52,30
2,note_on,66,62,30
2,note_on,54,0,360
2,note_on,43,0,30
2,note_on,48,0,0
2,note_on,66,0,0
2,note_on,43,51,0
2,note_on,48,50,30
2,note_on,54,50,30
2,note_on,63,60,30
2,note_on,63,0,870
2,note_on,43,0,0
2,note_on,48,0,0
2,note_on,54,0,0
2,note_on,43,47,0
2,note_on,48,47,30
2,note_on,54,46,30
2,note_on,60,55,30
2,note_on,60,0,390
2,note_on,43,0,0
2,note_on,48,0,0
2,note_on,54,0,0
2,note_on,43,45,0
2,note_on,50,45,30
2,note_on,55,45,30
2,note_on,59,53,30
2,note_on,55,0,450
2,note_on,43,0,30
2,note_on,50,0,0
2,note_on,59,0,0
2,note_on,43,61,0
2,note_on,47,61,0
2,note_on,47,0,240
2,note_on,43,0,0
2,note_on,47,55,120
2,note_on,47,0,120
2,note_on,43,61,0
2,note_on,49,61,0
2,note_on,49,0,480
2,note_on,61,63,0
2,note_on,61,0,480
2,note_on,62,62,0
2,note_on,62,0,240
2,note_on,43,0,0
2,note_on,43,61,240
2,note_on,50,61,5
2,note_on,43,0,235
2,note_on,50,0,5
2,note_on,50,56,115
2,note_on,50,0,120
2,note_on,43,62,0
2,note_on,51,62,0
2,note_on,51,0,480
2,note_on,63,64,0
2,note_on,63,0,480
2,note_on,64,65,0
2,note_on,64,0,240
2,note_on,43,0,0
2,note_on,52,64,240
2,note_on,43,64,0
2,note_on,43,0,240
2,note_on,52,0,0
2,note_on,52,58,120
2,note_on,52,0,120
2,note_on,43,65,0
2,note_on,53,65,0
2,note_on,53,0,480
2,note_on,65,68,0
2,note_on,65,0,240
2,note_on,53,59,120
2,note_on,53,0,120
2,note_on,43,0,0
2,note_on,43,67,0
2,note_on,54,68,0
2,note_on,54,0,240
2,note_on,66,69,240
2,note_on,66,0,240
2,note_on,54,51,120
2,note_on,54,0,60
2,note_on,43,59,0
2,note_on,50,59,20
2,note_on,53,59,20
2,note_on,43,0,20
2,note_on,55,70,0
2,note_on,55,0,480
2,note_on,53,0,0
2,note_on,50,0,0
2,note_on,43,0,0
2,note_on,65,59,0
2,note_on,67,71,0
2,note_on,62,59,0
2,note_on,55,59,0
2,note_on,55,0,480
2,note_on,65,0,0
2,note_on,67,0,0
2,note_on,62,0,0
2,note_on,31,71,0
2,note_on,31,0,160
2,note_on,43,63,0
2,note_on,43,0,140
2,note_on,43,63,20
2,note_on,43,0,160
2,note_on,55,71,0
2,note_on,55,0,160
2,note_on,54,63,0
2,note_on,54,0,160
2,note_on,57,63,0
2,note_on,57,0,160
2,note_on,55,71,0
2,note_on,55,0,160
2,note_on,52,62,0
2,note_on,52,0,160
2,note_on,46,62,0
2,note_on,46,0,160
2,note_on,43,71,0
2,note_on,43,0,160
2,note_on,40,63,0
2,note_on,40,0,160
2,note_on,34,62,0
2,note_on,34,0,160
2,note_on,29,71,0
2,note_on,29,0,160
2,note_on,41,63,0
2,note_on,41,0,140
2,note_on,41,63,20
2,note_on,41,0,160
2,note_on,52,71,0
2,note_on,52,0,160
2,note_on,55,63,0
2,note_on,55,0,160
2,note_on,53,63,0
2,note_on,53,0,160
2,note_on,52,71,0
2,note_on,52,0,160
2,note_on,49,63,0
2,note_on,49,0,160
2,note_on,46,63,0
2,note_on,46,0,160
2,note_on,43,73,0
2,note_on,43,0,160
2,note_on,40,64,0
2,note_on,40,0,160
2,note_on,37,64,0
2,note_on,37,0,160
2,note_on,26,73,0
2,note_on,26,0,160
2,note_on,38,66,0
2,note_on,38,0,140
2,note_on,38,66,20
2,note_on,38,0,160
2,note_on,50,75,0
2,note_on,50,0,160
2,note_on,49,66,0
2,note_on,49,0,160
2,note_on,52,67,0
2,note_on,52,0,160
2,note_on,50,75,0
2,note_on,50,0,160
2,note_on,45,66,0
2,note_on,45,0,160
2,note_on,41,66,0
2,note_on,41,0,160
2,note_on,38,77,0
2,note_on,38,0,160
2,note_on,33,68,0
2,note_on,33,0,160
2,note_on,26,68,0
2,note_on,26,0,160
2,note_on,31,78,0
2,note_on,31,0,160
2,note_on,43,69,0
2,note_on,43,0,140
2,note_on,43,69,20
2,note_on,43,0,160
2,note_on,55,79,0
2,note_on,55,0,160
2,note_on,54,70,0
2,note_on,54,0,160
2,note_on,55,71,0
2,note_on,55,0,160
2,note_on,43,80,0
2,note_on,43,0,160
2,note_on,55,70,0
2,note_on,55,0,140
2,note_on,55,70,20
2,note_on,55,0,160
2,note_on,67,81,0
2,note_on,67,0,160
2,note_on,66,72,0
2,note_on,66,0,160
2,note_on,69,71,0
2,note_on,69,0,160
2,note_on,67,82,0
2,note_on,67,0,160
2,note_on,64,73,0
2,note_on,64,0,160
2,note_on,59,73,0
2,note_on,59,0,160
2,note_on,55,83,0
2,note_on,55,0,160
2,note_on,50,74,0
2,note_on,50,0,160
2,note_on,47,74,0
2,note_on,47,0,160
2,note_on,43,84,0
2,note_on,43,0,160
2,note_on,38,74,0
2,note_on,38,0,160
2,note_on,35,74,0
2,note_on,35,0,160
2,note_on,31,85,0
2,note_on,31,0,160
2,note_on,38,76,0
2,note_on,38,0,160
2,note_on,43,75,0
2,note_on,43,0,160
2,note_on,36,86,0
2,note_on,36,0,480
2,note_on,48,63,240
2,note_on,55,63,0
2,note_on,60,74,0
2,note_on,60,0,216
2,note_on,55,0,0
2,note_on,48,0,0
2,note_on,48,63,24
2,note_on,55,63,0
2,note_on,60,74,0
2,note_on,60,0,480
2,note_on,55,0,0
2,note_on,48,0,0
2,note_on,50,57,0
2,note_on,62,67,0
2,note_on,62,0,120
2,note_on,50,0,0
2,note_on,52,63,120
2,note_on,60,63,0
2,note_on,64,74,0
2,note_on,64,0,120
2,note_on,60,0,0
2,note_on,52,0,0
2,note_on,53,64,120
2,note_on,60,64,0
2,note_on,65,77,0
2,note_on,65,0,120
2,note_on,60,0,0
2,note_on,53,0,0
2,note_on,52,59,360
2,note_on,60,59,0
2,note_on,64,71,0
2,note_on,64,0,120
2,note_on,60,0,0
2,note_on,52,0,0
2,note_on,33,58,1080
2,note_on,45,69,0
2,note_on,45,0,216
2,note_on,33,0,0
2,note_on,33,62,24
2,note_on,45,74,0
2,note_on,45,0,931
2,note_on,33,0,0
2,note_on,29,62,29
2,note_on,41,74,0
2,note_on,41,0,456
2,note_on,29,0,0
2,note_on,28,62,24
2,note_on,40,74,0
2,note_on,40,0,456
2,note_on,28,0,0
2,note_on,26,68,24
2,note_on,38,80,0
2,note_on,26,0,960
2,note_on,31,65,0
2,note_on,31,0,931
2,note_on,38,0,29
2,note_on,24,69,0
2,note_on,36,82,0
2,note_on,36,0,1920
2,note_on,24,0,0
