Track,Message Type,Note,Velocity,Time
1,note_on,52,76,0
1,note_on,52,0,240
1,note_on,74,63,480
1,note_on,86,75,0
1,note_on,83,63,0
1,note_on,83,0,720
1,note_on,86,0,0
1,note_on,74,0,0
1,note_on,81,73,0
1,note_on,84,73,0
1,note_on,72,62,0
1,note_on,72,0,720
1,note_on,84,0,0
1,note_on,81,0,0
1,note_on,78,63,0
1,note_on,69,63,0
1,note_on,81,75,0
1,note_on,81,0,720
1,note_on,69,0,0
1,note_on,78,0,0
1,note_on,83,70,0
1,note_on,71,59,0
1,note_on,79,59,0
1,note_on,79,0,120
1,note_on,71,0,0
1,note_on,83,0,0
1,note_on,67,52,120
1,note_on,76,52,0
1,note_on,79,62,0
1,note_on,79,0,120
1,note_on,76,0,0
1,note_on,67,0,0
1,note_on,81,70,120
1,note_on,78,54,0
1,note_on,69,55,0
1,note_on,69,0,120
1,note_on,78,0,0
1,note_on,81,0,0
1,note_on,78,63,120
1,note_on,75,53,0
1,note_on,66,53,0
1,note_on,66,0,120
1,note_on,75,0,0
1,note_on,78,0,0
1,note_on,79,70,120
1,note_on,76,59,0
1,note_on,67,59,0
1,note_on,67,0,120
1,note_on,76,0,0
1,note_on,79,0,0
1,note_on,64,54,120
1,note_on,76,64,0
1,note_on,73,54,0
1,note_on,73,0,120
1,note_on,76,0,0
1,note_on,64,0,0
1,note_on,78,70,120
1,note_on,66,59,0
1,note_on,75,59,0
1,note_on,75,0,120
1,note_on,66,0,0
1,note_on,78,0,0
1,note_on,66,58,360
1,note_on,78,69,0
1,note_on,75,58,0
1,note_on,75,0,120
1,note_on,78,0,0
1,note_on,66,0,0
1,note_on,73,62,1080
1,note_on,61,52,0
1,note_on,61,0,120
1,note_on,73,0,0
1,note_on,63,54,120
1,note_on,75,64,0
1,note_on,75,0,120
1,note_on,63,0,0
1,note_on,64,56,120
1,note_on,76,66,0
1,note_on,76,0,120
1,note_on,64,0,0
1,note_on,66,56,120
1,note_on,78,67,0
1,note_on,78,0,120
1,note_on,66,0,0
1,note_on,67,58,120
1,note_on,79,69,0
1,note_on,79,0,120
1,note_on,67,0,0
1,note_on,66,59,120
1,note_on,78,70,0
1,note_on,75,59,0
1,note_on,75,0,120
1,note_on,78,0,0
1,note_on,66,0,0
1,note_on,71,58,360
1,note_on,83,69,0
1,note_on,83,0,120
1,note_on,71,0,0
1,note_on,73,62,1080
1,note_on,61,52,0
1,note_on,61,0,120
1,note_on,73,0,0
1,note_on,63,54,120
1,note_on,75,64,0
1,note_on,75,0,120
1,note_on,63,0,0
1,note_on,64,56,120
1,note_on,76,66,0
1,note_on,76,0,120
1,note_on,64,0,0
1,note_on,66,56,120
1,note_on,78,67,0
1,note_on,78,0,120
1,note_on,66,0,0
1,note_on,67,58,120
1,note_on,79,69,0
1,note_on,79,0,120
1,note_on,67,0,0
1,note_on,69,59,120
1,note_on,81,70,0
1,note_on,78,59,0
1,note_on,78,0,120
1,note_on,81,0,0
1,note_on,69,0,0
1,note_on,74,58,360
1,note_on,86,69,0
1,note_on,86,0,120
1,note_on,74,0,0
1,note_on,55,76,840
1,note_on,55,0,240
1,note_on,89,63,480
1,note_on,93,75,0
1,note_on,81,63,0
1,note_on,81,0,720
1,note_on,93,0,0
1,note_on,89,0,0
1,note_on,91,73,0
1,note_on,88,73,0
1,note_on,79,62,0
1,note_on,79,0,720
1,note_on,88,0,0
1,note_on,91,0,0
1,note_on,84,63,0
1,note_on,76,63,0
1,note_on,88,75,0
1,note_on,88,0,720
1,note_on,76,0,0
1,note_on,84,0,0
1,note_on,86,59,0
1,note_on,89,70,0
1,note_on,77,59,0
1,note_on,77,0,120
1,note_on,89,0,0
1,note_on,86,0,0
1,note_on,86,62,120
1,note_on,83,52,0
1,note_on,74,52,0
1,note_on,74,0,120
1,note_on,83,0,0
1,note_on,86,0,0
1,note_on,84,54,120
1,note_on,76,55,0
1,note_on,88,70,0
1,note_on,88,0,120
1,note_on,76,0,0
1,note_on,84,0,0
1,note_on,81,53,120
1,note_on,84,63,0
1,note_on,72,53,0
1,note_on,72,0,120
1,note_on,84,0,0
1,note_on,81,0,0
1,note_on,74,59,120
1,note_on,86,70,0
1,note_on,83,59,0
1,note_on,83,0,120
1,note_on,86,0,0
1,note_on,74,0,0
1,note_on,71,54,120
1,note_on,83,64,0
1,note_on,79,54,0
1,note_on,79,0,120
1,note_on,83,0,0
1,note_on,71,0,0
1,note_on,81,59,120
1,note_on,72,59,0
1,note_on,84,70,0
1,note_on,84,0,120
1,note_on,72,0,0
1,note_on,81,0,0
1,note_on,81,58,360
1,note_on,72,58,0
1,note_on,84,69,0
1,note_on,84,0,120
1,note_on,72,0,0
1,note_on,81,0,0
1,note_on,69,59,120
1,note_on,81,70,0
1,note_on,77,59,0
1,note_on,77,0,720
1,note_on,81,0,0
1,note_on,69,0,0
1,note_on,79,56,240
1,note_on,67,47,0
1,note_on,67,0,120
1,note_on,79,0,0
1,note_on,71,49,120
1,note_on,83,58,0
1,note_on,83,0,120
1,note_on,71,0,0
1,note_on,84,60,120
1,note_on,72,51,0
1,note_on,72,0,120
1,note_on,84,0,0
1,note_on,74,52,120
1,note_on,86,62,0
1,note_on,86,0,120
1,note_on,74,0,0
1,note_on,76,54,120
1,note_on,88,64,0
1,note_on,88,0,120
1,note_on,76,0,0
1,note_on,79,60,60
1,note_on,84,60,30
1,note_on,91,70,30
1,note_on,91,0,120
1,note_on,84,0,0
1,note_on,79,0,0
1,note_on,77,49,360
1,note_on,89,58,0
1,note_on,89,0,120
1,note_on,77,0,0
1,note_on,84,57,120
1,note_on,72,48,0
1,note_on,72,0,720
1,note_on,84,0,0
1,note_on,81,58,240
1,note_on,69,48,0
1,note_on,69,0,120
1,note_on,81,0,0
1,note_on,71,53,120
1,note_on,83,63,0
1,note_on,83,0,120
1,note_on,71,0,0
1,note_on,84,67,120
1,note_on,72,57,0
1,note_on,72,0,120
1,note_on,84,0,0
1,note_on,86,73,120
1,note_on,74,61,0
1,note_on,74,0,120
1,note_on,86,0,0
1,note_on,76,65,120
1,note_on,88,78,0
1,note_on,88,0,120
1,note_on,76,0,0
1,note_on,79,75,60
1,note_on,87,75,30
1,note_on,91,87,30
1,note_on,91,0,120
1,note_on,87,0,0
1,note_on,79,0,0
1,note_on,90,69,360
1,note_on,78,58,0
1,note_on,78,0,120
1,note_on,90,0,0
1,note_on,69,56,120
1,note_on,81,67,0
1,note_on,81,0,720
1,note_on,69,0,0
1,note_on,52,76,0
1,note_on,52,0,240
1,note_on,83,63,480
1,note_on,86,75,0
1,note_on,74,63,0
1,note_on,74,0,720
1,note_on,86,0,0
1,note_on,83,0,0
1,note_on,72,62,0
1,note_on,84,73,0
1,note_on,81,73,0
1,note_on,81,0,720
1,note_on,84,0,0
1,note_on,72,0,0
1,note_on,78,63,0
1,note_on,69,63,0
1,note_on,81,75,0
1,note_on,81,0,720
1,note_on,69,0,0
1,note_on,78,0,0
1,note_on,83,70,0
1,note_on,71,59,0
1,note_on,79,59,0
1,note_on,79,0,120
1,note_on,71,0,0
1,note_on,83,0,0
1,note_on,76,52,120
1,note_on,79,62,0
1,note_on,67,52,0
1,note_on,67,0,120
1,note_on,79,0,0
1,note_on,76,0,0
1,note_on,78,54,120
1,note_on,69,55,0
1,note_on,81,70,0
1,note_on,81,0,120
1,note_on,69,0,0
1,note_on,78,0,0
1,note_on,75,53,120
1,note_on,78,63,0
1,note_on,66,53,0
1,note_on,66,0,120
1,note_on,78,0,0
1,note_on,75,0,0
1,note_on,79,70,120
1,note_on,67,59,0
1,note_on,76,59,0
1,note_on,76,0,120
1,note_on,67,0,0
1,note_on,79,0,0
1,note_on,64,54,120
1,note_on,73,54,0
1,note_on,76,64,0
1,note_on,76,0,120
1,note_on,73,0,0
1,note_on,64,0,0
1,note_on,75,59,120
1,note_on,66,59,0
1,note_on,78,70,0
1,note_on,78,0,120
1,note_on,66,0,0
1,note_on,75,0,0
1,note_on,66,58,360
1,note_on,75,58,0
1,note_on,78,69,0
1,note_on,78,0,120
1,note_on,75,0,0
1,note_on,66,0,0
1,note_on,61,52,1080
1,note_on,73,62,0
1,note_on,73,0,120
1,note_on,61,0,0
1,note_on,75,64,120
1,note_on,63,54,0
1,note_on,63,0,120
1,note_on,75,0,0
1,note_on,76,66,120
1,note_on,64,56,0
1,note_on,64,0,120
1,note_on,76,0,0
1,note_on,66,56,120
1,note_on,78,67,0
1,note_on,78,0,120
1,note_on,66,0,0
1,note_on,79,69,120
1,note_on,67,58,0
1,note_on,67,0,120
1,note_on,79,0,0
1,note_on,78,70,120
1,note_on,75,59,0
1,note_on,66,59,0
1,note_on,66,0,120
1,note_on,75,0,0
1,note_on,78,0,0
1,note_on,83,69,360
1,note_on,71,58,0
1,note_on,71,0,120
1,note_on,83,0,0
1,note_on,61,52,1080
1,note_on,73,62,0
1,note_on,73,0,120
1,note_on,61,0,0
1,note_on,75,64,120
1,note_on,63,54,0
1,note_on,63,0,120
1,note_on,75,0,0
1,note_on,64,56,120
1,note_on,76,66,0
1,note_on,76,0,120
1,note_on,64,0,0
1,note_on,78,67,120
1,note_on,66,56,0
1,note_on,66,0,120
1,note_on,78,0,0
1,note_on,67,58,120
1,note_on,79,69,0
1,note_on,79,0,120
1,note_on,67,0,0
1,note_on,69,59,120
1,note_on,78,59,0
1,note_on,81,70,0
1,note_on,81,0,120
1,note_on,78,0,0
1,note_on,69,0,0
1,note_on,86,69,360
1,note_on,74,58,0
1,note_on,74,0,120
1,note_on,86,0,0
1,note_on,55,76,840
1,note_on,55,0,240
1,note_on,89,63,480
1,note_on,81,63,0
1,note_on,93,75,0
1,note_on,93,0,720
1,note_on,81,0,0
1,note_on,89,0,0
1,note_on,88,73,0
1,note_on,91,73,0
1,note_on,79,62,0
1,note_on,79,0,720
1,note_on,91,0,0
1,note_on,88,0,0
1,note_on,88,75,0
1,note_on,76,63,0
1,note_on,84,63,0
1,note_on,84,0,720
1,note_on,76,0,0
1,note_on,88,0,0
1,note_on,89,70,0
1,note_on,77,59,0
1,note_on,86,59,0
1,note_on,86,0,120
1,note_on,77,0,0
1,note_on,89,0,0
1,note_on,74,52,120
1,note_on,86,62,0
1,note_on,83,52,0
1,note_on,83,0,120
1,note_on,86,0,0
1,note_on,74,0,0
1,note_on,76,55,120
1,note_on,88,70,0
1,note_on,84,54,0
1,note_on,84,0,120
1,note_on,88,0,0
1,note_on,76,0,0
1,note_on,84,63,120
1,note_on,72,53,0
1,note_on,81,53,0
1,note_on,81,0,120
1,note_on,72,0,0
1,note_on,84,0,0
1,note_on,83,59,120
1,note_on,86,70,0
1,note_on,74,59,0
1,note_on,74,0,120
1,note_on,86,0,0
1,note_on,83,0,0
1,note_on,83,64,120
1,note_on,71,54,0
1,note_on,79,54,0
1,note_on,79,0,120
1,note_on,71,0,0
1,note_on,83,0,0
1,note_on,81,59,120
1,note_on,72,59,0
1,note_on,84,70,0
1,note_on,84,0,120
1,note_on,72,0,0
1,note_on,81,0,0
1,note_on,84,69,360
1,note_on,72,58,0
1,note_on,81,58,0
1,note_on,81,0,120
1,note_on,72,0,0
1,note_on,84,0,0
1,note_on,77,59,120
1,note_on,69,59,0
1,note_on,81,70,0
1,note_on,81,0,720
1,note_on,69,0,0
1,note_on,77,0,0
1,note_on,67,47,240
1,note_on,79,56,0
1,note_on,79,0,120
1,note_on,67,0,0
1,note_on,71,49,120
1,note_on,83,58,0
1,note_on,83,0,120
1,note_on,71,0,0
1,note_on,84,60,120
1,note_on,72,51,0
1,note_on,72,0,120
1,note_on,84,0,0
1,note_on,86,62,120
1,note_on,74,52,0
1,note_on,74,0,120
1,note_on,86,0,0
1,note_on,76,54,120
1,note_on,88,64,0
1,note_on,88,0,120
1,note_on,76,0,0
1,note_on,79,60,60
1,note_on,84,60,30
1,note_on,91,70,30
1,note_on,91,0,120
1,note_on,84,0,0
1,note_on,79,0,0
1,note_on,89,58,360
1,note_on,77,49,0
1,note_on,77,0,120
1,note_on,89,0,0
1,note_on,84,57,120
1,note_on,72,48,0
1,note_on,72,0,720
1,note_on,84,0,0
1,note_on,69,48,240
1,note_on,81,58,0
1,note_on,81,0,120
1,note_on,69,0,0
1,note_on,83,63,120
1,note_on,71,53,0
1,note_on,71,0,120
1,note_on,83,0,0
1,note_on,72,57,120
1,note_on,84,67,0
1,note_on,84,0,120
1,note_on,72,0,0
1,note_on,86,73,120
1,note_on,74,61,0
1,note_on,74,0,120
1,note_on,86,0,0
1,note_on,88,78,120
1,note_on,76,65,0
1,note_on,76,0,120
1,note_on,88,0,0
1,note_on,79,75,60
1,note_on,87,75,30
1,note_on,91,87,30
1,note_on,91,0,120
1,note_on,87,0,0
1,note_on,79,0,0
1,note_on,90,69,360
1,note_on,78,58,0
1,note_on,78,0,120
1,note_on,90,0,0
1,note_on,69,56,120
1,note_on,81,67,0
1,note_on,81,0,720
1,note_on,69,0,0
1,note_on,48,76,0
1,note_on,48,0,240
1,note_on,67,59,480
1,note_on,70,71,0
1,note_on,58,59,0
1,note_on,58,0,720
1,note_on,70,0,0
1,note_on,67,0,0
1,note_on,57,58,0
1,note_on,69,69,0
1,note_on,65,69,0
1,note_on,65,0,720
1,note_on,69,0,0
1,note_on,57,0,0
1,note_on,62,59,0
1,note_on,65,71,0
1,note_on,53,59,0
1,note_on,53,0,720
1,note_on,65,0,0
1,note_on,62,0,0
1,note_on,55,56,0
1,note_on,67,66,0
1,note_on,64,56,0
1,note_on,64,0,120
1,note_on,67,0,0
1,note_on,55,0,0
1,note_on,64,58,120
1,note_on,52,49,0
1,note_on,52,0,120
1,note_on,64,0,0
1,note_on,65,66,120
1,note_on,53,52,0
1,note_on,53,0,120
1,note_on,65,0,0
1,note_on,62,59,120
1,note_on,50,50,0
1,note_on,50,0,120
1,note_on,62,0,0
1,note_on,64,66,120
1,note_on,52,56,0
1,note_on,52,0,120
1,note_on,64,0,0
1,note_on,61,60,120
1,note_on,49,51,0
1,note_on,49,0,120
1,note_on,61,0,0
1,note_on,62,66,120
1,note_on,50,56,0
1,note_on,50,0,120
1,note_on,62,0,0
1,note_on,50,55,360
1,note_on,62,65,0
1,note_on,62,0,120
1,note_on,50,0,0
1,note_on,51,76,840
1,note_on,51,0,240
1,note_on,73,71,480
1,note_on,70,59,0
1,note_on,61,59,0
1,note_on,61,0,720
1,note_on,70,0,0
1,note_on,73,0,0
1,note_on,72,69,0
1,note_on,68,69,0
1,note_on,60,58,0
1,note_on,60,0,720
1,note_on,68,0,0
1,note_on,72,0,0
1,note_on,68,71,0
1,note_on,65,59,0
1,note_on,56,59,0
1,note_on,56,0,720
1,note_on,65,0,0
1,note_on,68,0,0
1,note_on,58,56,0
1,note_on,67,56,0
1,note_on,70,66,0
1,note_on,70,0,120
1,note_on,67,0,0
1,note_on,58,0,0
1,note_on,67,58,120
1,note_on,55,49,0
1,note_on,55,0,120
1,note_on,67,0,0
1,note_on,68,66,120
1,note_on,56,52,0
1,note_on,56,0,120
1,note_on,68,0,0
1,note_on,65,59,120
1,note_on,53,50,0
1,note_on,53,0,120
1,note_on,65,0,0
1,note_on,67,66,120
1,note_on,55,56,0
1,note_on,55,0,120
1,note_on,67,0,0
1,note_on,64,60,120
1,note_on,52,51,0
1,note_on,52,0,120
1,note_on,64,0,0
1,note_on,53,56,120
1,note_on,65,66,0
1,note_on,65,0,120
1,note_on,53,0,0
1,note_on,53,55,360
1,note_on,65,65,0
1,note_on,65,0,120
1,note_on,53,0,0
1,note_on,54,76,840
1,note_on,54,0,240
1,note_on,76,67,480
1,note_on,88,81,0
1,note_on,85,67,0
1,note_on,85,0,720
1,note_on,88,0,0
1,note_on,76,0,0
1,note_on,83,79,0
1,note_on,87,79,0
1,note_on,75,66,0
1,note_on,75,0,720
1,note_on,87,0,0
1,note_on,83,0,0
1,note_on,71,67,0
1,note_on,83,81,0
1,note_on,80,67,0
1,note_on,80,0,720
1,note_on,83,0,0
1,note_on,71,0,0
1,note_on,64,42,720
1,note_on,64,0,720
1,note_on,62,41,0
1,note_on,62,0,720
1,note_on,59,42,0
1,note_on,59,0,720
1,note_on,54,91,0
1,note_on,54,0,240
1,note_on,88,78,240
1,note_on,85,64,0
1,note_on,76,64,0
1,note_on,76,0,240
1,note_on,85,0,0
1,note_on,88,0,0
1,note_on,83,75,0
1,note_on,75,75,0
1,note_on,87,75,0
1,note_on,87,0,480
1,note_on,75,0,0
1,note_on,83,0,0
1,note_on,71,64,0
1,note_on,83,78,0
1,note_on,80,64,0
1,note_on,80,0,240
1,note_on,83,0,0
1,note_on,71,0,0
1,note_on,92,78,480
1,note_on,80,64,0
1,note_on,88,64,0
1,note_on,88,0,240
1,note_on,80,0,0
1,note_on,92,0,0
1,note_on,90,75,0
1,note_on,87,75,0
1,note_on,78,75,0
1,note_on,78,0,480
1,note_on,87,0,0
1,note_on,90,0,0
1,note_on,75,64,0
1,note_on,87,78,0
1,note_on,83,64,0
1,note_on,83,0,240
1,note_on,87,0,0
1,note_on,75,0,0
1,note_on,64,42,480
1,note_on,64,0,240
1,note_on,62,41,0
1,note_on,62,0,480
1,note_on,59,42,0
1,note_on,59,0,240
1,note_on,61,42,480
1,note_on,61,0,240
1,note_on,59,41,0
1,note_on,59,0,480
1,note_on,55,42,0
1,note_on,55,0,240
1,note_on,54,41,0
1,note_on,54,0,480
1,note_on,66,26,1680
1,note_on,64,22,0
1,note_on,58,22,0
1,note_on,61,22,0
1,note_on,61,0,120
1,note_on,66,0,0
1,note_on,64,0,0
1,note_on,58,0,0
1,note_on,61,25,120
1,note_on,58,25,0
1,note_on,64,25,0
1,note_on,66,30,0
1,note_on,66,0,120
1,note_on,61,0,0
1,note_on,58,0,0
1,note_on,64,0,0
1,note_on,58,22,120
1,note_on,66,26,0
1,note_on,61,22,0
1,note_on,64,22,0
1,note_on,64,0,120
1,note_on,58,0,0
1,note_on,66,0,0
1,note_on,61,0,0
1,note_on,66,33,120
1,note_on,59,28,0
1,note_on,63,28,0
1,note_on,63,0,120
1,note_on,59,0,0
1,note_on,66,0,0
1,note_on,61,26,600
1,note_on,52,22,0
1,note_on,54,22,0
1,note_on,58,22,0
1,note_on,58,0,120
1,note_on,61,0,0
1,note_on,52,0,0
1,note_on,54,0,0
1,note_on,52,25,120
1,note_on,54,25,0
1,note_on,58,25,0
1,note_on,63,30,0
1,note_on,63,0,120
1,note_on,52,0,0
1,note_on,54,0,0
1,note_on,58,0,0
1,note_on,52,22,120
1,note_on,54,22,0
1,note_on,58,22,0
1,note_on,61,26,0
1,note_on,61,0,120
1,note_on,52,0,0
1,note_on,54,0,0
1,note_on,58,0,0
1,note_on,51,28,120
1,note_on,54,28,0
1,note_on,59,33,0
1,note_on,59,0,120
1,note_on,54,0,0
1,note_on,51,0,0
1,note_on,58,22,600
1,note_on,66,26,0
1,note_on,61,22,0
1,note_on,64,22,0
1,note_on,64,0,120
1,note_on,58,0,0
1,note_on,66,0,0
1,note_on,61,0,0
1,note_on,58,25,120
1,note_on,61,25,0
1,note_on,64,25,0
1,note_on,66,30,0
1,note_on,66,0,120
1,note_on,58,0,0
1,note_on,61,0,0
1,note_on,64,0,0
1,note_on,61,22,120
1,note_on,66,26,0
1,note_on,64,22,0
1,note_on,58,22,0
1,note_on,58,0,120
1,note_on,61,0,0
1,note_on,66,0,0
1,note_on,64,0,0
1,note_on,66,33,120
1,note_on,63,28,0
1,note_on,59,28,0
1,note_on,59,0,120
1,note_on,63,0,0
1,note_on,66,0,0
1,note_on,58,22,600
1,note_on,61,26,0
1,note_on,52,22,0
1,note_on,54,22,0
1,note_on,54,0,120
1,note_on,58,0,0
1,note_on,61,0,0
1,note_on,52,0,0
1,note_on,58,25,120
1,note_on,52,25,0
1,note_on,54,25,0
1,note_on,63,30,0
1,note_on,63,0,120
1,note_on,58,0,0
1,note_on,52,0,0
1,note_on,54,0,0
1,note_on,58,22,120
1,note_on,52,22,0
1,note_on,61,26,0
1,note_on,54,22,0
1,note_on,54,0,120
1,note_on,58,0,0
1,note_on,52,0,0
1,note_on,61,0,0
1,note_on,54,28,120
1,note_on,59,33,0
1,note_on,51,28,0
1,note_on,51,0,120
1,note_on,59,0,0
1,note_on,54,0,0
1,note_on,66,23,600
1,note_on,60,23,0
1,note_on,63,23,0
1,note_on,68,28,0
1,note_on,68,0,120
1,note_on,66,0,0
1,note_on,60,0,0
1,note_on,63,0,0
1,note_on,66,27,120
1,note_on,68,33,0
1,note_on,63,27,0
1,note_on,60,27,0
1,note_on,60,0,120
1,note_on,66,0,0
1,note_on,68,0,0
1,note_on,63,0,0
1,note_on,63,25,120
1,note_on,60,25,0
1,note_on,66,25,0
1,note_on,68,29,0
1,note_on,68,0,120
1,note_on,63,0,0
1,note_on,60,0,0
1,note_on,66,0,0
1,note_on,64,32,120
1,note_on,61,32,0
1,note_on,68,38,0
1,note_on,68,0,120
1,note_on,61,0,0
1,note_on,64,0,0
1,note_on,58,27,600
1,note_on,61,27,0
1,note_on,64,27,0
1,note_on,66,32,0
1,note_on,66,0,120
1,note_on,58,0,0
1,note_on,61,0,0
1,note_on,64,0,0
1,note_on,58,32,120
1,note_on,63,32,0
1,note_on,64,32,0
1,note_on,66,38,0
1,note_on,66,0,120
1,note_on,58,0,0
1,note_on,63,0,0
1,note_on,64,0,0
1,note_on,64,28,120
1,note_on,66,34,0
1,note_on,58,28,0
1,note_on,61,28,0
1,note_on,61,0,120
1,note_on,64,0,0
1,note_on,66,0,0
1,note_on,58,0,0
1,note_on,59,37,120
1,note_on,63,37,0
1,note_on,66,43,0
1,note_on,66,0,120
1,note_on,63,0,0
1,note_on,59,0,0
1,note_on,63,31,600
1,note_on,69,31,0
1,note_on,71,36,0
1,note_on,66,31,0
1,note_on,66,0,120
1,note_on,63,0,0
1,note_on,69,0,0
1,note_on,71,0,0
1,note_on,63,36,120
1,note_on,66,36,0
1,note_on,69,36,0
1,note_on,71,43,0
1,note_on,71,0,120
1,note_on,63,0,0
1,note_on,66,0,0
1,note_on,69,0,0
1,note_on,63,32,120
1,note_on,66,32,0
1,note_on,69,32,0
1,note_on,71,38,0
1,note_on,71,0,120
1,note_on,63,0,0
1,note_on,66,0,0
1,note_on,69,0,0
1,note_on,64,42,120
1,note_on,71,49,0
1,note_on,68,42,0
1,note_on,68,0,120
1,note_on,71,0,0
1,note_on,64,0,0
1,note_on,73,47,600
1,note_on,65,39,0
1,note_on,68,39,0
1,note_on,71,39,0
1,note_on,71,0,120
1,note_on,73,0,0
1,note_on,65,0,0
1,note_on,68,0,0
1,note_on,73,55,120
1,note_on,71,46,0
1,note_on,68,46,0
1,note_on,65,46,0
1,note_on,65,0,120
1,note_on,73,0,0
1,note_on,71,0,0
1,note_on,68,0,0
1,note_on,68,41,120
1,note_on,65,41,0
1,note_on,73,48,0
1,note_on,71,41,0
1,note_on,71,0,120
1,note_on,68,0,0
1,note_on,65,0,0
1,note_on,73,0,0
1,note_on,70,52,120
1,note_on,66,52,0
1,note_on,73,63,0
1,note_on,73,0,120
1,note_on,66,0,0
1,note_on,70,0,0
1,note_on,85,55,600
1,note_on,90,65,0
1,note_on,82,55,0
1,note_on,76,55,0
1,note_on,76,0,120
1,note_on,85,0,0
1,note_on,90,0,0
1,note_on,82,0,0
1,note_on,76,62,120
1,note_on,90,74,0
1,note_on,85,62,0
1,note_on,82,62,0
1,note_on,82,0,120
1,note_on,76,0,0
1,note_on,90,0,0
1,note_on,85,0,0
1,note_on,82,57,120
1,note_on,76,57,0
1,note_on,90,68,0
1,note_on,85,57,0
1,note_on,85,0,120
1,note_on,82,0,0
1,note_on,76,0,0
1,note_on,90,0,0
1,note_on,76,55,120
1,note_on,85,55,0
1,note_on,82,55,0
1,note_on,90,65,0
1,note_on,90,0,120
1,note_on,76,0,0
1,note_on,85,0,0
1,note_on,82,0,0
1,note_on,76,62,120
1,note_on,85,62,0
1,note_on,90,74,0
1,note_on,82,62,0
1,note_on,82,0,120
1,note_on,76,0,0
1,note_on,85,0,0
1,note_on,90,0,0
1,note_on,85,57,120
1,note_on,82,57,0
1,note_on,76,57,0
1,note_on,90,68,0
1,note_on,90,0,120
1,note_on,85,0,0
1,note_on,82,0,0
1,note_on,76,0,0
1,note_on,85,55,120
1,note_on,76,55,0
1,note_on,90,65,0
1,note_on,82,55,0
1,note_on,82,0,120
1,note_on,85,0,0
1,note_on,76,0,0
1,note_on,90,0,0
1,note_on,76,62,120
1,note_on,82,62,0
1,note_on,90,74,0
1,note_on,85,62,0
1,note_on,85,0,120
1,note_on,76,0,0
1,note_on,82,0,0
1,note_on,90,0,0
1,note_on,82,57,120
1,note_on,90,68,0
1,note_on,76,57,0
1,note_on,85,57,0
1,note_on,85,0,120
1,note_on,82,0,0
1,note_on,90,0,0
1,note_on,76,0,0
1,note_on,83,67,120
1,note_on,75,67,0
1,note_on,87,79,0
1,note_on,87,0,120
1,note_on,75,0,0
1,note_on,83,0,0
1,note_on,71,61,360
1,note_on,83,72,0
1,note_on,83,0,120
1,note_on,71,0,0
1,note_on,78,79,120
1,note_on,66,67,0
1,note_on,66,0,120
1,note_on,78,0,0
1,note_on,75,71,360
1,note_on,63,60,0
1,note_on,63,0,120
1,note_on,75,0,0
1,note_on,71,79,120
1,note_on,71,0,120
1,note_on,67,73,360
1,note_on,67,0,120
1,note_on,82,55,120
1,note_on,85,55,0
1,note_on,76,55,0
1,note_on,90,65,0
1,note_on,90,0,120
1,note_on,82,0,0
1,note_on,85,0,0
1,note_on,76,0,0
1,note_on,90,74,120
1,note_on,76,62,0
1,note_on,82,62,0
1,note_on,85,62,0
1,note_on,85,0,120
1,note_on,90,0,0
1,note_on,76,0,0
1,note_on,82,0,0
1,note_on,76,57,120
1,note_on,85,57,0
1,note_on,82,57,0
1,note_on,90,68,0
1,note_on,90,0,120
1,note_on,76,0,0
1,note_on,85,0,0
1,note_on,82,0,0
1,note_on,83,67,120
1,note_on,75,67,0
1,note_on,87,79,0
1,note_on,87,0,120
1,note_on,75,0,0
1,note_on,83,0,0
1,note_on,71,61,360
1,note_on,83,72,0
1,note_on,83,0,120
1,note_on,71,0,0
1,note_on,66,67,120
1,note_on,78,79,0
1,note_on,78,0,120
1,note_on,66,0,0
1,note_on,63,60,360
1,note_on,75,71,0
1,note_on,75,0,120
1,note_on,63,0,0
1,note_on,71,79,120
1,note_on,71,0,120
1,note_on,67,73,360
1,note_on,67,0,120
1,note_on,76,55,120
1,note_on,85,55,0
1,note_on,82,55,0
1,note_on,90,65,0
1,note_on,90,0,120
1,note_on,76,0,0
1,note_on,85,0,0
1,note_on,82,0,0
1,note_on,85,62,120
1,note_on,90,74,0
1,note_on,76,62,0
1,note_on,82,62,0
1,note_on,82,0,120
1,note_on,85,0,0
1,note_on,90,0,0
1,note_on,76,0,0
1,note_on,85,57,120
1,note_on,76,57,0
1,note_on,82,57,0
1,note_on,90,68,0
1,note_on,90,0,120
1,note_on,85,0,0
1,note_on,76,0,0
1,note_on,82,0,0
1,note_on,75,67,120
1,note_on,83,67,0
1,note_on,87,79,0
1,note_on,87,0,120
1,note_on,83,0,0
1,note_on,75,0,0
1,note_on,83,72,360
1,note_on,71,61,0
1,note_on,71,0,120
1,note_on,83,0,0
1,note_on,79,79,120
1,note_on,67,67,0
1,note_on,67,0,120
1,note_on,79,0,0
1,note_on,76,64,360
1,note_on,64,64,0
1,note_on,64,0,120
1,note_on,76,0,0
1,note_on,72,69,120
1,note_on,72,0,120
1,note_on,69,52,360
1,note_on,69,0,120
1,note_on,66,58,120
1,note_on,66,0,120
1,note_on,63,43,360
1,note_on,63,0,120
1,note_on,59,45,120
1,note_on,59,0,120
1,note_on,55,36,1320
1,note_on,55,0,120
1,note_on,52,36,1320
1,note_on,52,0,120
1,note_on,86,37,600
1,note_on,83,31,0
1,note_on,83,0,720
1,note_on,86,0,0
1,note_on,81,36,0
1,note_on,84,36,0
1,note_on,84,0,710
1,note_on,81,0,0
1,note_on,81,37,10
1,note_on,78,31,0
1,note_on,78,0,720
1,note_on,81,0,0
1,note_on,83,35,0
1,note_on,79,29,0
1,note_on,79,0,120
1,note_on,83,0,0
1,note_on,76,26,120
1,note_on,79,31,0
1,note_on,79,0,120
1,note_on,76,0,0
1,note_on,78,27,120
1,note_on,81,35,0
1,note_on,81,0,120
1,note_on,78,0,0
1,note_on,78,31,120
1,note_on,75,26,0
1,note_on,75,0,120
1,note_on,78,0,0
1,note_on,76,29,120
1,note_on,79,35,0
1,note_on,79,0,120
1,note_on,76,0,0
1,note_on,76,32,120
1,note_on,73,27,0
1,note_on,73,0,120
1,note_on,76,0,0
1,note_on,78,35,120
1,note_on,75,29,0
1,note_on,75,0,120
1,note_on,78,0,0
1,note_on,78,34,360
1,note_on,75,29,0
1,note_on,75,0,120
1,note_on,78,0,0
1,note_on,71,34,120
1,note_on,71,0,960
1,note_on,70,26,0
1,note_on,73,31,0
1,note_on,73,0,120
1,note_on,70,0,0
1,note_on,71,27,120
1,note_on,75,32,0
1,note_on,75,0,120
1,note_on,71,0,0
1,note_on,73,28,120
1,note_on,76,33,0
1,note_on,76,0,120
1,note_on,73,0,0
1,note_on,75,28,120
1,note_on,78,33,0
1,note_on,78,0,120
1,note_on,75,0,0
1,note_on,76,29,120
1,note_on,79,34,0
1,note_on,79,0,120
1,note_on,76,0,0
1,note_on,75,29,120
1,note_on,78,35,0
1,note_on,78,0,120
1,note_on,75,0,0
1,note_on,83,34,360
1,note_on,83,0,120
1,note_on,71,34,120
1,note_on,71,0,960
1,note_on,70,26,0
1,note_on,73,31,0
1,note_on,73,0,120
1,note_on,70,0,0
1,note_on,71,27,120
1,note_on,75,32,0
1,note_on,75,0,120
1,note_on,71,0,0
1,note_on,73,28,120
1,note_on,76,33,0
1,note_on,76,0,120
1,note_on,73,0,0
1,note_on,75,28,120
1,note_on,78,33,0
1,note_on,78,0,120
1,note_on,75,0,0
1,note_on,79,34,120
1,note_on,76,29,0
1,note_on,76,0,120
1,note_on,79,0,0
1,note_on,70,29,60
1,note_on,73,29,30
1,note_on,78,35,30
1,note_on,78,0,120
1,note_on,73,0,0
1,note_on,70,0,0
1,note_on,85,34,360
1,note_on,85,0,120
1,note_on,78,34,120
1,note_on,82,34,0
1,note_on,90,41,0
1,note_on,90,0,720
1,note_on,82,0,0
1,note_on,78,0,0
1,note_on,66,30,0
1,note_on,70,35,0
1,note_on,70,0,120
1,note_on,66,0,0
1,note_on,85,32,360
1,note_on,85,0,120
1,note_on,90,38,120
1,note_on,82,31,0
1,note_on,78,31,0
1,note_on,78,0,720
1,note_on,82,0,0
1,note_on,90,0,0
1,note_on,66,26,0
1,note_on,70,30,0
1,note_on,70,0,120
1,note_on,66,0,0
1,note_on,85,28,360
1,note_on,85,0,120
1,note_on,78,27,120
1,note_on,82,27,0
1,note_on,90,33,0
1,note_on,90,0,2160
1,note_on,82,0,0
1,note_on,78,0,0
1,note_on,61,62,240
1,note_on,73,73,0
1,note_on,73,0,120
1,note_on,61,0,0
1,note_on,63,64,120
1,note_on,75,76,0
1,note_on,75,0,120
1,note_on,63,0,0
1,note_on,77,79,120
1,note_on,65,67,0
1,note_on,65,0,120
1,note_on,77,0,0
1,note_on,66,69,120
1,note_on,78,82,0
1,note_on,78,0,120
1,note_on,66,0,0
1,note_on,80,85,120
1,note_on,68,85,0
1,note_on,68,0,120
1,note_on,80,0,0
1,note_on,82,88,120
1,note_on,70,74,0
1,note_on,73,74,0
1,note_on,78,74,0
1,note_on,78,0,120
1,note_on,82,0,0
1,note_on,70,0,0
1,note_on,73,0,0
1,note_on,73,74,360
1,note_on,85,88,0
1,note_on,85,0,120
1,note_on,73,0,0
1,note_on,78,80,120
1,note_on,90,95,0
1,note_on,90,0,120
1,note_on,78,0,0
1,note_on,59,87,600
1,note_on,59,0,240
1,note_on,85,72,480
1,note_on,97,86,0
1,note_on,93,72,0
1,note_on,93,0,720
1,note_on,97,0,0
1,note_on,85,0,0
1,note_on,95,83,0
1,note_on,83,71,0
1,note_on,92,83,0
1,note_on,92,0,720
1,note_on,83,0,0
1,note_on,95,0,0
1,note_on,92,86,0
1,note_on,88,72,0
1,note_on,80,72,0
1,note_on,80,0,720
1,note_on,88,0,0
1,note_on,92,0,0
1,note_on,81,64,0
1,note_on,90,64,0
1,note_on,93,77,0
1,note_on,93,0,120
1,note_on,90,0,0
1,note_on,81,0,0
1,note_on,87,57,120
1,note_on,90,68,0
1,note_on,78,57,0
1,note_on,78,0,120
1,note_on,90,0,0
1,note_on,87,0,0
1,note_on,80,60,120
1,note_on,92,77,0
1,note_on,88,59,0
1,note_on,88,0,120
1,note_on,92,0,0
1,note_on,80,0,0
1,note_on,76,58,120
1,note_on,85,58,0
1,note_on,88,69,0
1,note_on,88,0,120
1,note_on,85,0,0
1,note_on,76,0,0
1,note_on,87,64,120
1,note_on,90,77,0
1,note_on,78,64,0
1,note_on,78,0,120
1,note_on,90,0,0
1,note_on,87,0,0
1,note_on,75,59,120
1,note_on,83,59,0
1,note_on,87,70,0
1,note_on,87,0,120
1,note_on,83,0,0
1,note_on,75,0,0
1,note_on,85,64,120
1,note_on,88,77,0
1,note_on,76,64,0
1,note_on,76,0,120
1,note_on,88,0,0
1,note_on,85,0,0
1,note_on,88,75,360
1,note_on,85,63,0
1,note_on,76,63,0
1,note_on,76,0,120
1,note_on,85,0,0
1,note_on,88,0,0
1,note_on,73,64,120
1,note_on,81,64,0
1,note_on,85,77,0
1,note_on,85,0,720
1,note_on,81,0,0
1,note_on,73,0,0
1,note_on,71,47,240
1,note_on,83,56,0
1,note_on,83,0,120
1,note_on,71,0,0
1,note_on,75,49,120
1,note_on,87,58,0
1,note_on,87,0,120
1,note_on,75,0,0
1,note_on,88,60,120
1,note_on,76,51,0
1,note_on,76,0,120
1,note_on,88,0,0
1,note_on,78,52,120
1,note_on,90,62,0
1,note_on,90,0,120
1,note_on,78,0,0
1,note_on,92,64,120
1,note_on,80,54,0
1,note_on,80,0,120
1,note_on,92,0,0
1,note_on,83,60,60
1,note_on,88,60,30
1,note_on,95,70,30
1,note_on,95,0,120
1,note_on,88,0,0
1,note_on,83,0,0
1,note_on,81,49,360
1,note_on,93,58,0
1,note_on,93,0,120
1,note_on,81,0,0
1,note_on,88,57,120
1,note_on,76,48,0
1,note_on,76,0,720
1,note_on,88,0,0
1,note_on,85,58,240
1,note_on,73,48,0
1,note_on,73,0,120
1,note_on,85,0,0
1,note_on,75,53,120
1,note_on,87,63,0
1,note_on,87,0,120
1,note_on,75,0,0
1,note_on,76,57,120
1,note_on,88,67,0
1,note_on,88,0,120
1,note_on,76,0,0
1,note_on,90,73,120
1,note_on,78,61,0
1,note_on,78,0,120
1,note_on,90,0,0
1,note_on,80,65,120
1,note_on,92,78,0
1,note_on,92,0,120
1,note_on,80,0,0
1,note_on,83,75,60
1,note_on,87,75,30
1,note_on,95,87,30
1,note_on,95,0,120
1,note_on,87,0,0
1,note_on,83,0,0
1,note_on,93,69,360
1,note_on,81,58,0
1,note_on,81,0,120
1,note_on,93,0,0
1,note_on,75,56,120
1,note_on,87,67,0
1,note_on,87,0,720
1,note_on,75,0,0
1,note_on,52,91,0
1,note_on,52,0,240
1,note_on,89,78,240
1,note_on,77,64,0
1,note_on,86,64,0
1,note_on,86,0,240
1,note_on,77,0,0
1,note_on,89,0,0
1,note_on,88,75,0
1,note_on,76,75,0
1,note_on,84,75,0
1,note_on,84,0,480
1,note_on,76,0,0
1,note_on,88,0,0
1,note_on,81,64,0
1,note_on,72,64,0
1,note_on,84,78,0
1,note_on,84,0,240
1,note_on,72,0,0
1,note_on,81,0,0
1,note_on,83,59,0
1,note_on,74,59,0
1,note_on,86,70,0
1,note_on,86,0,120
1,note_on,74,0,0
1,note_on,83,0,0
1,note_on,83,62,120
1,note_on,71,52,0
1,note_on,80,52,0
1,note_on,80,0,120
1,note_on,71,0,0
1,note_on,83,0,0
1,note_on,72,55,120
1,note_on,81,54,0
1,note_on,84,70,0
1,note_on,84,0,120
1,note_on,81,0,0
1,note_on,72,0,0
1,note_on,78,53,120
1,note_on,69,53,0
1,note_on,81,63,0
1,note_on,81,0,120
1,note_on,69,0,0
1,note_on,78,0,0
1,note_on,71,59,120
1,note_on,83,70,0
1,note_on,80,59,0
1,note_on,80,0,120
1,note_on,83,0,0
1,note_on,71,0,0
1,note_on,68,54,120
1,note_on,76,54,0
1,note_on,80,64,0
1,note_on,80,0,120
1,note_on,76,0,0
1,note_on,68,0,0
1,note_on,82,70,120
1,note_on,70,59,0
1,note_on,76,59,0
1,note_on,76,0,120
1,note_on,70,0,0
1,note_on,82,0,0
1,note_on,79,64,360
1,note_on,88,64,0
1,note_on,91,78,0
1,note_on,91,0,240
1,note_on,88,0,0
1,note_on,79,0,0
1,note_on,78,75,0
1,note_on,90,75,0
1,note_on,87,75,0
1,note_on,87,0,480
1,note_on,90,0,0
1,note_on,78,0,0
1,note_on,83,64,0
1,note_on,75,64,0
1,note_on,87,78,0
1,note_on,87,0,240
1,note_on,75,0,0
1,note_on,83,0,0
1,note_on,88,70,0
1,note_on,85,59,0
1,note_on,76,59,0
1,note_on,76,0,120
1,note_on,85,0,0
1,note_on,88,0,0
1,note_on,73,52,120
1,note_on,82,52,0
1,note_on,85,62,0
1,note_on,85,0,120
1,note_on,82,0,0
1,note_on,73,0,0
1,note_on,83,54,120
1,note_on,75,55,0
1,note_on,87,70,0
1,note_on,87,0,120
1,note_on,75,0,0
1,note_on,83,0,0
1,note_on,80,53,120
1,note_on,83,63,0
1,note_on,71,53,0
1,note_on,71,0,120
1,note_on,83,0,0
1,note_on,80,0,0
1,note_on,72,59,120
1,note_on,84,70,0
1,note_on,81,59,0
1,note_on,81,0,120
1,note_on,84,0,0
1,note_on,72,0,0
1,note_on,69,54,120
1,note_on,81,64,0
1,note_on,78,54,0
1,note_on,78,0,120
1,note_on,81,0,0
1,note_on,69,0,0
1,note_on,83,70,120
1,note_on,71,59,0
1,note_on,78,59,0
1,note_on,78,0,120
1,note_on,71,0,0
1,note_on,83,0,0
1,note_on,84,64,360
1,note_on,96,78,0
1,note_on,93,64,0
1,note_on,93,0,240
1,note_on,96,0,0
1,note_on,84,0,0
1,note_on,95,75,0
1,note_on,83,75,0
1,note_on,91,75,0
1,note_on,91,0,480
1,note_on,83,0,0
1,note_on,95,0,0
1,note_on,91,78,0
1,note_on,79,64,0
1,note_on,88,64,0
1,note_on,88,0,240
1,note_on,79,0,0
1,note_on,91,0,0
1,note_on,93,70,0
1,note_on,90,59,0
1,note_on,81,59,0
1,note_on,81,0,120
1,note_on,90,0,0
1,note_on,93,0,0
1,note_on,87,52,120
1,note_on,90,62,0
1,note_on,78,52,0
1,note_on,78,0,120
1,note_on,90,0,0
1,note_on,87,0,0
1,note_on,79,55,120
1,note_on,91,70,0
1,note_on,88,55,0
1,note_on,88,0,120
1,note_on,91,0,0
1,note_on,79,0,0
1,note_on,76,53,120
1,note_on,84,53,0
1,note_on,88,63,0
1,note_on,88,0,120
1,note_on,84,0,0
1,note_on,76,0,0
1,note_on,78,59,120
1,note_on,86,59,0
1,note_on,90,70,0
1,note_on,90,0,120
1,note_on,86,0,0
1,note_on,78,0,0
1,note_on,74,54,120
1,note_on,83,54,0
1,note_on,86,64,0
1,note_on,86,0,120
1,note_on,83,0,0
1,note_on,74,0,0
1,note_on,76,59,120
1,note_on,88,70,0
1,note_on,84,59,0
1,note_on,84,0,120
1,note_on,88,0,0
1,note_on,76,0,0
1,note_on,84,62,120
1,note_on,81,52,0
1,note_on,72,52,0
1,note_on,72,0,120
1,note_on,81,0,0
1,note_on,84,0,0
1,note_on,83,55,120
1,note_on,86,70,0
1,note_on,74,55,0
1,note_on,74,0,120
1,note_on,86,0,0
1,note_on,83,0,0
1,note_on,79,53,120
1,note_on,71,53,0
1,note_on,83,63,0
1,note_on,83,0,120
1,note_on,71,0,0
1,note_on,79,0,0
1,note_on,72,59,120
1,note_on,84,70,0
1,note_on,81,59,0
1,note_on,81,0,120
1,note_on,84,0,0
1,note_on,72,0,0
1,note_on,78,54,120
1,note_on,81,64,0
1,note_on,69,54,0
1,note_on,69,0,120
1,note_on,81,0,0
1,note_on,78,0,0
1,note_on,83,70,120
1,note_on,79,59,0
1,note_on,71,59,0
1,note_on,71,0,120
1,note_on,79,0,0
1,note_on,83,0,0
1,note_on,67,53,120
1,note_on,79,63,0
1,note_on,76,53,0
1,note_on,76,0,120
1,note_on,79,0,0
1,note_on,67,0,0
1,note_on,69,57,120
1,note_on,78,57,0
1,note_on,81,73,0
1,note_on,81,0,120
1,note_on,78,0,0
1,note_on,69,0,0
1,note_on,78,68,120
1,note_on,66,57,0
1,note_on,75,57,0
1,note_on,75,0,120
1,note_on,66,0,0
1,note_on,78,0,0
1,note_on,76,65,120
1,note_on,79,77,0
1,note_on,67,65,0
1,note_on,67,0,120
1,note_on,79,0,0
1,note_on,76,0,0
1,note_on,76,72,120
1,note_on,72,61,0
1,note_on,64,61,0
1,note_on,64,0,120
1,note_on,72,0,0
1,note_on,76,0,0
1,note_on,92,90,120
1,note_on,88,76,0
1,note_on,80,76,0
1,note_on,80,0,456
1,note_on,88,0,0
1,note_on,92,0,0
1,note_on,79,76,24
1,note_on,88,76,0
1,note_on,91,90,0
1,note_on,91,0,456
1,note_on,88,0,0
1,note_on,79,0,0
1,note_on,87,76,24
1,note_on,90,90,0
1,note_on,78,76,0
1,note_on,78,0,456
1,note_on,90,0,0
1,note_on,87,0,0
1,note_on,77,76,24
1,note_on,89,90,0
1,note_on,86,76,0
1,note_on,86,0,456
1,note_on,89,0,0
1,note_on,77,0,0
1,note_on,85,75,24
1,note_on,88,89,0
1,note_on,76,75,0
1,note_on,76,0,456
1,note_on,88,0,0
1,note_on,85,0,0
1,note_on,87,87,24
1,note_on,75,73,0
1,note_on,84,73,0
1,note_on,84,0,456
1,note_on,75,0,0
1,note_on,87,0,0
1,note_on,86,85,24
1,note_on,74,72,0
1,note_on,83,72,0
1,note_on,83,0,456
1,note_on,74,0,0
1,note_on,86,0,0
1,note_on,73,71,24
1,note_on,85,84,0
1,note_on,82,71,0
1,note_on,82,0,456
1,note_on,85,0,0
1,note_on,73,0,0
1,note_on,84,82,24
1,note_on,81,69,0
1,note_on,72,69,0
1,note_on,72,0,456
1,note_on,81,0,0
1,note_on,84,0,0
1,note_on,71,68,24
1,note_on,80,68,0
1,note_on,83,81,0
1,note_on,83,0,456
1,note_on,80,0,0
1,note_on,71,0,0
1,note_on,79,67,24
1,note_on,83,80,0
1,note_on,71,67,0
1,note_on,71,0,366
1,note_on,83,0,0
1,note_on,79,0,0
1,note_on,83,78,114
1,note_on,75,66,0
1,note_on,71,66,0
1,note_on,78,66,0
1,note_on,78,0,456
1,note_on,83,0,0
1,note_on,75,0,0
1,note_on,71,0,0
1,note_on,64,59,24
1,note_on,76,70,0
1,note_on,76,0,120
1,note_on,64,0,0
1,note_on,74,62,120
1,note_on,71,52,0
1,note_on,71,0,120
1,note_on,74,0,0
1,note_on,76,70,120
1,note_on,64,55,0
1,note_on,64,0,120
1,note_on,76,0,0
1,note_on,69,53,120
1,note_on,72,63,0
1,note_on,72,0,120
1,note_on,69,0,0
1,note_on,76,70,120
1,note_on,64,59,0
1,note_on,64,0,120
1,note_on,76,0,0
1,note_on,71,64,120
1,note_on,67,54,0
1,note_on,67,0,120
1,note_on,71,0,0
1,note_on,64,59,120
1,note_on,76,70,0
1,note_on,76,0,120
1,note_on,64,0,0
1,note_on,69,62,120
1,note_on,66,52,0
1,note_on,66,0,120
1,note_on,69,0,0
1,note_on,76,70,120
1,note_on,64,55,0
1,note_on,64,0,120
1,note_on,76,0,0
1,note_on,67,63,120
1,note_on,67,0,120
1,note_on,76,70,120
1,note_on,64,59,0
1,note_on,64,0,120
1,note_on,76,0,0
1,note_on,62,54,120
1,note_on,66,64,0
1,note_on,66,0,120
1,note_on,62,0,0
1,note_on,64,59,120
1,note_on,76,70,0
1,note_on,76,0,120
1,note_on,64,0,0
1,note_on,64,61,120
1,note_on,60,51,0
1,note_on,60,0,120
1,note_on,64,0,0
1,note_on,76,68,120
1,note_on,64,53,0
1,note_on,64,0,120
1,note_on,76,0,0
1,note_on,62,61,120
1,note_on,59,51,0
1,note_on,59,0,120
1,note_on,62,0,0
1,note_on,76,66,120
1,note_on,64,56,0
1,note_on,64,0,120
1,note_on,76,0,0
1,note_on,57,50,120
1,note_on,60,60,0
1,note_on,60,0,120
1,note_on,57,0,0
1,note_on,64,54,120
1,note_on,76,65,0
1,note_on,76,0,120
1,note_on,64,0,0
1,note_on,59,57,120
1,note_on,55,47,0
1,note_on,55,0,120
1,note_on,59,0,0
1,note_on,64,49,120
1,note_on,76,63,0
1,note_on,76,0,120
1,note_on,64,0,0
1,note_on,54,47,120
1,note_on,57,56,0
1,note_on,57,0,120
1,note_on,54,0,0
1,note_on,76,61,120
1,note_on,64,51,0
1,note_on,64,0,120
1,note_on,76,0,0
1,note_on,57,55,120
1,note_on,53,46,0
1,note_on,53,0,120
1,note_on,57,0,0
1,note_on,55,61,120
1,note_on,52,51,0
1,note_on,52,0,120
1,note_on,55,0,0
1,note_on,52,51,120
1,note_on,55,61,0
1,note_on,55,0,120
1,note_on,52,0,0
1,note_on,52,51,120
1,note_on,55,61,0
1,note_on,55,0,120
1,note_on,52,0,0
1,note_on,57,67,120
1,note_on,53,56,0
1,note_on,53,0,720
1,note_on,57,0,0
1,note_on,52,51,0
1,note_on,55,61,0
1,note_on,55,0,120
1,note_on,52,0,0
1,note_on,52,51,120
1,note_on,55,61,0
1,note_on,55,0,120
1,note_on,52,0,0
1,note_on,55,61,120
1,note_on,52,51,0
1,note_on,52,0,120
1,note_on,55,0,0
1,note_on,60,61,120
1,note_on,69,61,0
1,note_on,57,61,0
1,note_on,57,0,720
1,note_on,69,0,0
1,note_on,60,0,0
1,note_on,55,61,0
1,note_on,52,51,0
1,note_on,52,0,120
1,note_on,55,0,0
1,note_on,52,51,120
1,note_on,55,61,0
1,note_on,55,0,120
1,note_on,52,0,0
1,note_on,52,51,120
1,note_on,55,61,0
1,note_on,55,0,120
1,note_on,52,0,0
1,note_on,72,77,120
1,note_on,76,77,0
1,note_on,79,77,0
1,note_on,84,99,0
1,note_on,84,0,960
1,note_on,72,0,0
1,note_on,76,0,0
1,note_on,79,0,0
1,note_on,52,79,480
1,note_on,55,95,0
1,note_on,55,0,120
1,note_on,52,0,0
1,note_on,55,95,600
1,note_on,52,79,0
1,note_on,52,0,120
1,note_on,55,0,0
1,note_on,52,79,593
1,note_on,55,95,0
1,note_on,55,0,120
1,note_on,52,0,0
1,note_on,89,84,607
1,note_on,101,101,0
1,note_on,96,84,0
1,note_on,93,84,0
1,note_on,93,0,1680
1,note_on,89,0,0
1,note_on,101,0,0
1,note_on,96,0,0
1,note_on,96,70,120
1,note_on,84,59,0
1,note_on,84,0,120
1,note_on,96,0,0
1,note_on,93,71,120
1,note_on,81,60,0
1,note_on,81,0,120
1,note_on,93,0,0
1,note_on,77,61,120
1,note_on,89,72,0
1,note_on,89,0,120
1,note_on,77,0,0
1,note_on,84,69,120
1,note_on,72,58,0
1,note_on,72,0,120
1,note_on,84,0,0
1,note_on,81,70,120
1,note_on,69,59,0
1,note_on,69,0,120
1,note_on,81,0,0
1,note_on,65,65,120
1,note_on,77,77,0
1,note_on,77,0,120
1,note_on,65,0,0
1,note_on,60,62,120
1,note_on,72,74,0
1,note_on,72,0,120
1,note_on,60,0,0
1,note_on,57,63,120
1,note_on,69,75,0
1,note_on,69,0,120
1,note_on,57,0,0
1,note_on,65,83,120
1,note_on,53,70,0
1,note_on,53,0,120
1,note_on,65,0,0
1,note_on,48,65,120
1,note_on,60,77,0
1,note_on,60,0,120
1,note_on,48,0,0
1,note_on,50,66,120
1,note_on,62,78,0
1,note_on,62,0,120
1,note_on,50,0,0
1,note_on,48,68,0
1,note_on,55,68,0
1,note_on,60,80,0
1,note_on,52,68,0
1,note_on,52,0,120
1,note_on,48,0,0
1,note_on,55,0,0
1,note_on,60,0,0
1,note_on,55,68,1320
1,note_on,52,68,0
1,note_on,60,80,0
1,note_on,48,68,0
1,note_on,48,0,120
1,note_on,55,0,0
1,note_on,52,0,0
1,note_on,60,0,0
1,note_on,52,68,1320
1,note_on,55,68,0
1,note_on,60,80,0
1,note_on,48,68,0
1,note_on,48,0,120
1,note_on,52,0,0
1,note_on,55,0,0
1,note_on,60,0,0
1,note_on,64,40,2760
1,note_on,55,40,1440
1,note_on,64,0,1430
1,note_on,55,0,10
1,note_on,60,30,0
1,note_on,64,40,0
1,note_on,60,0,240
1,note_on,55,20,0
1,note_on,55,0,240
1,note_on,60,30,0
1,note_on,60,0,240
1,note_on,55,21,0
1,note_on,55,0,240
1,note_on,60,30,0
1,note_on,60,0,240
1,note_on,55,20,0
1,note_on,55,0,240
1,note_on,60,30,0
1,note_on,60,0,240
1,note_on,55,22,0
1,note_on,55,0,240
1,note_on,64,0,0
1,note_on,65,40,0
1,note_on,62,30,0
1,note_on,62,0,240
1,note_on,55,21,0
1,note_on,55,0,240
1,note_on,65,0,0
1,note_on,63,30,0
1,note_on,66,35,0
1,note_on,63,0,240
1,note_on,55,22,0
1,note_on,55,0,240
1,note_on,66,0,0
1,note_on,64,30,0
1,note_on,67,40,0
1,note_on,64,0,240
1,note_on,55,23,0
1,note_on,55,0,240
1,note_on,67,0,0
1,note_on,69,36,0
1,note_on,65,30,0
1,note_on,65,0,240
1,note_on,55,24,0
1,note_on,55,0,240
1,note_on,69,0,0
1,note_on,71,40,0
1,note_on,62,30,0
1,note_on,62,0,240
1,note_on,55,24,0
1,note_on,55,0,240
1,note_on,71,0,0
1,note_on,64,30,0
1,note_on,72,44,0
1,note_on,64,0,240
1,note_on,60,23,0
1,note_on,60,0,240
1,note_on,72,0,0
1,note_on,65,30,0
1,note_on,74,49,0
1,note_on,65,0,240
1,note_on,60,30,0
1,note_on,60,0,240
1,note_on,74,0,0
1,note_on,67,30,0
1,note_on,76,57,0
1,note_on,67,0,240
1,note_on,60,30,0
1,note_on,60,0,240
1,note_on,76,0,0
1,note_on,73,30,0
1,note_on,79,62,0
1,note_on,70,30,0
1,note_on,70,0,240
1,note_on,73,0,0
1,note_on,64,33,0
1,note_on,64,0,240
1,note_on,73,38,0
1,note_on,70,38,0
1,note_on,70,0,240
1,note_on,73,0,0
1,note_on,64,32,0
1,note_on,64,0,240
1,note_on,70,38,0
1,note_on,73,38,0
1,note_on,73,0,240
1,note_on,70,0,0
1,note_on,64,34,0
1,note_on,64,0,240
1,note_on,79,0,0
1,note_on,77,57,0
1,note_on,69,30,0
1,note_on,74,30,0
1,note_on,74,0,240
1,note_on,69,0,0
1,note_on,65,27,0
1,note_on,65,0,240
1,note_on,69,34,0
1,note_on,74,34,0
1,note_on,74,0,240
1,note_on,69,0,0
1,note_on,65,27,0
1,note_on,65,0,240
1,note_on,77,0,0
1,note_on,70,37,0
1,note_on,76,50,0
1,note_on,73,37,0
1,note_on,73,0,240
1,note_on,70,0,0
1,note_on,67,29,0
1,note_on,76,0,235
1,note_on,67,0,5
1,note_on,70,38,0
1,note_on,76,51,0
1,note_on,73,38,0
1,note_on,73,0,240
1,note_on,70,0,0
1,note_on,67,26,0
1,note_on,67,0,240
1,note_on,70,29,0
1,note_on,73,29,0
1,note_on,73,0,240
1,note_on,70,0,0
1,note_on,67,26,0
1,note_on,67,0,240
1,note_on,76,0,0
1,note_on,69,35,0
1,note_on,74,47,0
1,note_on,69,0,240
1,note_on,65,26,0
1,note_on,65,0,240
1,note_on,74,0,0
1,note_on,73,33,0
1,note_on,76,44,0
1,note_on,69,33,0
1,note_on,69,0,240
1,note_on,73,0,0
1,note_on,64,26,0
1,note_on,64,0,240
1,note_on,69,26,0
1,note_on,73,26,0
1,note_on,73,0,240
1,note_on,69,0,0
1,note_on,64,26,0
1,note_on,64,0,240
1,note_on,76,0,0
1,note_on,77,47,0
1,note_on,69,35,0
1,note_on,74,35,0
1,note_on,74,0,240
1,note_on,69,0,0
1,note_on,65,28,0
1,note_on,65,0,240
1,note_on,77,0,0
1,note_on,67,30,0
1,note_on,72,40,0
1,note_on,67,0,240
1,note_on,64,20,0
1,note_on,64,0,240
1,note_on,67,30,0
1,note_on,67,0,240
1,note_on,64,21,0
1,note_on,64,0,240
1,note_on,67,30,0
1,note_on,67,0,240
1,note_on,64,20,0
1,note_on,64,0,240
1,note_on,67,30,0
1,note_on,67,0,240
1,note_on,64,22,0
1,note_on,64,0,240
1,note_on,67,30,0
1,note_on,67,0,240
1,note_on,64,21,0
1,note_on,64,0,240
1,note_on,69,30,0
1,note_on,69,0,240
1,note_on,64,22,0
1,note_on,64,0,240
1,note_on,72,0,0
1,note_on,67,30,0
1,note_on,71,40,0
1,note_on,67,0,240
1,note_on,62,23,0
1,note_on,62,0,240
1,note_on,71,0,0
1,note_on,67,30,0
1,note_on,72,36,0
1,note_on,67,0,240
1,note_on,65,24,0
1,note_on,65,0,240
1,note_on,72,0,0
1,note_on,74,40,0
1,note_on,67,30,0
1,note_on,67,0,240
1,note_on,65,24,0
1,note_on,65,0,240
1,note_on,74,0,0
1,note_on,76,44,0
1,note_on,67,30,0
1,note_on,67,0,240
1,note_on,64,23,0
1,note_on,64,0,240
1,note_on,76,0,0
1,note_on,77,49,0
1,note_on,71,30,0
1,note_on,71,0,240
1,note_on,67,30,0
1,note_on,67,0,240
1,note_on,77,0,0
1,note_on,72,30,0
1,note_on,79,57,0
1,note_on,72,0,240
1,note_on,67,30,0
1,note_on,67,0,240
1,note_on,79,0,0
1,note_on,82,62,0
1,note_on,73,34,0
1,note_on,73,0,240
1,note_on,70,37,0
1,note_on,70,0,240
1,note_on,73,43,0
1,note_on,73,0,240
1,note_on,70,36,0
1,note_on,70,0,240
1,note_on,73,43,0
1,note_on,73,0,240
1,note_on,70,38,0
1,note_on,70,0,240
1,note_on,82,0,0
1,note_on,74,34,0
1,note_on,81,57,0
1,note_on,74,0,240
1,note_on,69,30,0
1,note_on,69,0,240
1,note_on,74,36,0
1,note_on,74,0,240
1,note_on,69,29,0
1,note_on,69,0,240
1,note_on,81,0,0
1,note_on,74,34,0
1,note_on,80,42,0
1,note_on,74,0,240
1,note_on,71,26,0
1,note_on,80,0,235
1,note_on,71,0,5
1,note_on,79,45,0
1,note_on,73,34,0
1,note_on,73,0,240
1,note_on,69,23,0
1,note_on,69,0,240
1,note_on,73,26,0
1,note_on,73,0,240
1,note_on,69,23,0
1,note_on,69,0,240
1,note_on,79,0,0
1,note_on,78,42,0
1,note_on,73,31,0
1,note_on,73,0,240
1,note_on,69,23,0
1,note_on,69,0,240
1,note_on,78,0,0
1,note_on,79,39,0
1,note_on,73,29,0
1,note_on,73,0,240
1,note_on,69,23,0
1,note_on,69,0,240
1,note_on,73,23,0
1,note_on,73,0,240
1,note_on,69,23,0
1,note_on,69,0,240
1,note_on,79,0,0
1,note_on,82,42,0
1,note_on,73,31,0
1,note_on,73,0,240
1,note_on,69,25,0
1,note_on,69,0,240
1,note_on,82,0,0
1,note_on,73,27,0
1,note_on,81,51,0
1,note_on,73,0,240
1,note_on,70,24,0
1,note_on,70,0,240
1,note_on,73,30,0
1,note_on,73,0,240
1,note_on,70,24,0
1,note_on,70,0,240
1,note_on,73,29,0
1,note_on,73,0,240
1,note_on,70,23,0
1,note_on,70,0,240
1,note_on,81,0,0
1,note_on,73,34,0
1,note_on,79,45,0
1,note_on,73,0,240
1,note_on,70,23,0
1,note_on,70,0,240
1,note_on,79,0,0
1,note_on,73,26,0
1,note_on,73,0,240
1,note_on,70,23,0
1,note_on,70,0,240
1,note_on,73,30,0
1,note_on,79,42,0
1,note_on,73,0,240
1,note_on,70,23,0
1,note_on,79,0,235
1,note_on,70,0,5
1,note_on,76,34,0
1,note_on,79,45,0
1,note_on,76,0,240
1,note_on,71,23,0
1,note_on,71,0,240
1,note_on,76,26,0
1,note_on,76,0,240
1,note_on,71,23,0
1,note_on,71,0,240
1,note_on,79,0,0
1,note_on,78,42,0
1,note_on,76,31,0
1,note_on,76,0,240
1,note_on,71,23,0
1,note_on,71,0,240
1,note_on,78,0,0
1,note_on,76,29,0
1,note_on,79,39,0
1,note_on,76,0,240
1,note_on,71,23,0
1,note_on,71,0,240
1,note_on,76,23,0
1,note_on,76,0,240
1,note_on,71,23,0
1,note_on,71,0,240
1,note_on,79,0,0
1,note_on,83,42,0
1,note_on,76,31,0
1,note_on,76,0,240
1,note_on,71,25,0
1,note_on,71,0,240
1,note_on,83,0,0
1,note_on,81,51,0
1,note_on,76,27,0
1,note_on,76,0,240
1,note_on,70,24,0
1,note_on,70,0,240
1,note_on,76,30,0
1,note_on,76,0,240
1,note_on,70,24,0
1,note_on,70,0,240
1,note_on,76,29,0
1,note_on,76,0,240
1,note_on,70,23,0
1,note_on,70,0,240
1,note_on,81,0,0
1,note_on,79,45,0
1,note_on,76,34,0
1,note_on,76,0,240
1,note_on,70,23,0
1,note_on,70,0,240
1,note_on,79,0,0
1,note_on,76,26,0
1,note_on,76,0,240
1,note_on,70,23,0
1,note_on,70,0,240
1,note_on,79,42,0
1,note_on,76,30,0
1,note_on,76,0,240
1,note_on,70,23,0
1,note_on,79,0,235
1,note_on,70,0,5
1,note_on,79,45,0
1,note_on,71,34,0
1,note_on,71,0,240
1,note_on,67,23,0
1,note_on,67,0,240
1,note_on,71,26,0
1,note_on,71,0,240
1,note_on,67,23,0
1,note_on,67,0,240
1,note_on,79,0,0
1,note_on,78,42,0
1,note_on,71,31,0
1,note_on,71,0,240
1,note_on,67,23,0
1,note_on,67,0,240
1,note_on,78,0,0
1,note_on,79,39,0
1,note_on,71,29,0
1,note_on,71,0,240
1,note_on,67,23,0
1,note_on,67,0,240
1,note_on,71,23,0
1,note_on,71,0,240
1,note_on,67,23,0
1,note_on,67,0,240
1,note_on,79,0,0
1,note_on,74,42,0
1,note_on,71,31,0
1,note_on,71,0,240
1,note_on,67,25,0
1,note_on,67,0,240
1,note_on,74,0,0
1,note_on,70,34,0
1,note_on,70,0,240
1,note_on,67,23,0
1,note_on,67,0,240
1,note_on,70,26,0
1,note_on,70,0,240
1,note_on,67,23,0
1,note_on,67,0,240
1,note_on,70,31,0
1,note_on,70,0,240
1,note_on,67,23,0
1,note_on,67,0,240
1,note_on,70,29,0
1,note_on,70,0,240
1,note_on,67,23,0
1,note_on,67,0,240
1,note_on,70,23,0
1,note_on,70,0,240
1,note_on,67,23,0
1,note_on,67,0,240
1,note_on,70,31,0
1,note_on,70,0,240
1,note_on,67,25,0
1,note_on,67,0,240
1,note_on,74,45,0
1,note_on,66,34,0
1,note_on,66,0,240
1,note_on,62,23,0
1,note_on,62,0,240
1,note_on,66,26,0
1,note_on,66,0,240
1,note_on,62,23,0
1,note_on,62,0,240
1,note_on,74,0,0
1,note_on,73,42,0
1,note_on,66,31,0
1,note_on,66,0,240
1,note_on,62,23,0
1,note_on,62,0,240
1,note_on,73,0,0
1,note_on,74,39,0
1,note_on,66,29,0
1,note_on,66,0,240
1,note_on,62,23,0
1,note_on,62,0,240
1,note_on,66,23,0
1,note_on,66,0,240
1,note_on,62,23,0
1,note_on,62,0,240
1,note_on,74,0,0
1,note_on,66,31,0
1,note_on,69,42,0
1,note_on,66,0,240
1,note_on,62,25,0
1,note_on,62,0,240
1,note_on,69,0,0
1,note_on,65,32,0
1,note_on,65,0,240
1,note_on,62,21,0
1,note_on,62,0,240
1,note_on,65,24,0
1,note_on,65,0,240
1,note_on,62,21,0
1,note_on,62,0,240
1,note_on,65,28,0
1,note_on,65,0,240
1,note_on,62,21,0
1,note_on,62,0,240
1,note_on,65,27,0
1,note_on,65,0,240
1,note_on,62,20,0
1,note_on,62,0,240
1,note_on,65,20,0
1,note_on,65,0,240
1,note_on,62,20,0
1,note_on,62,0,240
1,note_on,65,27,0
1,note_on,65,0,240
1,note_on,62,21,0
1,note_on,62,0,240
1,note_on,65,26,0
1,note_on,74,34,0
1,note_on,65,0,240
1,note_on,62,19,0
1,note_on,62,0,240
1,note_on,65,19,0
1,note_on,65,0,240
1,note_on,62,19,0
1,note_on,62,0,240
1,note_on,74,0,0
1,note_on,65,27,0
1,note_on,73,36,0
1,note_on,65,0,240
1,note_on,62,21,0
1,note_on,62,0,240
1,note_on,73,0,0
1,note_on,65,28,0
1,note_on,65,0,240
1,note_on,62,19,0
1,note_on,62,0,240
1,note_on,65,21,0
1,note_on,65,0,240
1,note_on,62,18,0
1,note_on,62,0,240
1,note_on,65,26,0
1,note_on,65,0,240
1,note_on,62,18,0
1,note_on,62,0,240
1,note_on,65,24,0
1,note_on,74,31,0
1,note_on,65,0,240
1,note_on,62,18,0
1,note_on,62,0,240
1,note_on,65,18,0
1,note_on,65,0,240
1,note_on,62,18,0
1,note_on,62,0,240
1,note_on,65,25,0
1,note_on,65,0,240
1,note_on,62,19,0
1,note_on,62,0,240
1,note_on,65,27,0
1,note_on,65,0,240
1,note_on,62,18,0
1,note_on,62,0,240
1,note_on,65,19,0
1,note_on,65,0,240
1,note_on,62,18,0
1,note_on,62,0,240
1,note_on,74,0,0
1,note_on,65,19,0
1,note_on,59,23,0
1,note_on,59,0,240
1,note_on,55,17,0
1,note_on,55,0,240
1,note_on,65,0,0
1,note_on,60,30,0
1,note_on,64,40,0
1,note_on,60,0,240
1,note_on,55,20,0
1,note_on,55,0,240
1,note_on,60,30,0
1,note_on,60,0,240
1,note_on,55,21,0
1,note_on,55,0,240
1,note_on,60,30,0
1,note_on,60,0,240
1,note_on,55,20,0
1,note_on,55,0,240
1,note_on,60,30,0
1,note_on,60,0,240
1,note_on,55,22,0
1,note_on,55,0,240
1,note_on,64,0,0
1,note_on,62,30,0
1,note_on,65,40,0
1,note_on,62,0,240
1,note_on,55,21,0
1,note_on,55,0,240
1,note_on,65,0,0
1,note_on,63,30,0
1,note_on,66,35,0
1,note_on,63,0,240
1,note_on,55,22,0
1,note_on,55,0,240
1,note_on,66,0,0
1,note_on,67,40,0
1,note_on,64,30,0
1,note_on,64,0,240
1,note_on,55,23,0
1,note_on,55,0,240
1,note_on,67,0,0
1,note_on,65,30,0
1,note_on,69,36,0
1,note_on,65,0,240
1,note_on,55,24,0
1,note_on,55,0,240
1,note_on,69,0,0
1,note_on,62,30,0
1,note_on,71,40,0
1,note_on,62,0,240
1,note_on,55,24,0
1,note_on,55,0,240
1,note_on,71,0,0
1,note_on,64,30,0
1,note_on,72,44,0
1,note_on,64,0,240
1,note_on,60,23,0
1,note_on,60,0,240
1,note_on,72,0,0
1,note_on,65,30,0
1,note_on,74,49,0
1,note_on,65,0,240
1,note_on,60,30,0
1,note_on,60,0,240
1,note_on,74,0,0
1,note_on,67,30,0
1,note_on,76,57,0
1,note_on,67,0,240
1,note_on,60,30,0
1,note_on,60,0,240
1,note_on,76,0,0
1,note_on,70,30,0
1,note_on,73,30,0
1,note_on,79,62,0
1,note_on,73,0,240
1,note_on,70,0,0
1,note_on,64,33,0
1,note_on,64,0,240
1,note_on,70,38,0
1,note_on,73,38,0
1,note_on,73,0,240
1,note_on,70,0,0
1,note_on,64,32,0
1,note_on,64,0,240
1,note_on,70,38,0
1,note_on,73,38,0
1,note_on,73,0,240
1,note_on,70,0,0
1,note_on,64,34,0
1,note_on,64,0,240
1,note_on,79,0,0
1,note_on,77,57,0
1,note_on,74,30,0
1,note_on,69,30,0
1,note_on,69,0,240
1,note_on,74,0,0
1,note_on,65,27,0
1,note_on,65,0,240
1,note_on,69,34,0
1,note_on,74,34,0
1,note_on,74,0,240
1,note_on,69,0,0
1,note_on,65,27,0
1,note_on,65,0,240
1,note_on,77,0,0
1,note_on,70,37,0
1,note_on,76,50,0
1,note_on,73,37,0
1,note_on,73,0,240
1,note_on,70,0,0
1,note_on,67,29,0
1,note_on,76,0,235
1,note_on,67,0,5
1,note_on,73,43,0
1,note_on,76,51,0
1,note_on,70,38,0
1,note_on,70,0,240
1,note_on,73,0,0
1,note_on,67,26,0
1,note_on,67,0,240
1,note_on,73,33,0
1,note_on,70,29,0
1,note_on,70,0,240
1,note_on,73,0,0
1,note_on,67,26,0
1,note_on,67,0,240
1,note_on,76,0,0
1,note_on,69,35,0
1,note_on,74,47,0
1,note_on,69,0,240
1,note_on,65,26,0
1,note_on,65,0,240
1,note_on,74,0,0
1,note_on,69,33,0
1,note_on,76,44,0
1,note_on,73,33,0
1,note_on,73,0,240
1,note_on,69,0,0
1,note_on,64,26,0
1,note_on,64,0,240
1,note_on,69,26,0
1,note_on,73,26,0
1,note_on,73,0,240
1,note_on,69,0,0
1,note_on,64,26,0
1,note_on,64,0,240
1,note_on,76,0,0
1,note_on,74,35,0
1,note_on,77,47,0
1,note_on,69,35,0
1,note_on,69,0,240
1,note_on,74,0,0
1,note_on,65,28,0
1,note_on,65,0,240
1,note_on,77,0,0
1,note_on,67,30,0
1,note_on,72,40,0
1,note_on,67,0,240
1,note_on,64,20,0
1,note_on,64,0,240
1,note_on,67,30,0
1,note_on,67,0,240
1,note_on,64,21,0
1,note_on,64,0,240
1,note_on,67,30,0
1,note_on,67,0,240
1,note_on,64,20,0
1,note_on,64,0,240
1,note_on,67,30,0
1,note_on,67,0,240
1,note_on,64,22,0
1,note_on,64,0,240
1,note_on,67,30,0
1,note_on,67,0,240
1,note_on,64,21,0
1,note_on,64,0,240
1,note_on,69,30,0
1,note_on,69,0,240
1,note_on,64,22,0
1,note_on,64,0,240
1,note_on,72,0,0
1,note_on,67,30,0
1,note_on,71,40,0
1,note_on,67,0,240
1,note_on,62,23,0
1,note_on,62,0,240
1,note_on,71,0,0
1,note_on,67,30,0
1,note_on,72,36,0
1,note_on,67,0,240
1,note_on,65,24,0
1,note_on,65,0,240
1,note_on,72,0,0
1,note_on,67,30,0
1,note_on,74,40,0
1,note_on,67,0,240
1,note_on,65,24,0
1,note_on,65,0,240
1,note_on,74,0,0
1,note_on,67,30,0
1,note_on,76,44,0
1,note_on,67,0,240
1,note_on,64,23,0
1,note_on,64,0,240
1,note_on,76,0,0
1,note_on,77,49,0
1,note_on,71,30,0
1,note_on,71,0,240
1,note_on,67,30,0
1,note_on,67,0,240
1,note_on,77,0,0
1,note_on,72,30,0
1,note_on,79,57,0
1,note_on,72,0,240
1,note_on,67,30,0
1,note_on,67,0,240
1,note_on,79,0,0
1,note_on,82,62,0
1,note_on,73,34,0
1,note_on,73,0,240
1,note_on,70,37,0
1,note_on,70,0,240
1,note_on,73,43,0
1,note_on,73,0,240
1,note_on,70,36,0
1,note_on,70,0,240
1,note_on,73,43,0
1,note_on,73,0,240
1,note_on,70,38,0
1,note_on,70,0,240
1,note_on,82,0,0
1,note_on,81,57,0
1,note_on,74,34,0
1,note_on,74,0,240
1,note_on,69,30,0
1,note_on,69,0,240
1,note_on,74,36,0
1,note_on,74,0,240
1,note_on,69,29,0
1,note_on,69,0,240
1,note_on,81,0,0
1,note_on,74,34,0
1,note_on,80,42,0
1,note_on,74,0,240
1,note_on,71,26,0
1,note_on,80,0,235
1,note_on,71,0,5
1,note_on,73,34,0
1,note_on,79,45,0
1,note_on,73,0,240
1,note_on,69,23,0
1,note_on,69,0,240
1,note_on,73,26,0
1,note_on,73,0,240
1,note_on,69,23,0
1,note_on,69,0,240
1,note_on,79,0,0
1,note_on,78,42,0
1,note_on,73,31,0
1,note_on,73,0,240
1,note_on,69,23,0
1,note_on,69,0,240
1,note_on,78,0,0
1,note_on,79,39,0
1,note_on,73,29,0
1,note_on,73,0,240
1,note_on,69,23,0
1,note_on,69,0,240
1,note_on,73,23,0
1,note_on,73,0,240
1,note_on,69,23,0
1,note_on,69,0,240
1,note_on,79,0,0
1,note_on,73,31,0
1,note_on,82,42,0
1,note_on,73,0,240
1,note_on,69,25,0
1,note_on,69,0,240
1,note_on,82,0,0
1,note_on,73,27,0
1,note_on,81,51,0
1,note_on,73,0,240
1,note_on,70,24,0
1,note_on,70,0,240
1,note_on,73,30,0
1,note_on,73,0,240
1,note_on,70,24,0
1,note_on,70,0,240
1,note_on,73,29,0
1,note_on,73,0,240
1,note_on,70,23,0
1,note_on,70,0,240
1,note_on,81,0,0
1,note_on,73,38,0
1,note_on,79,45,0
1,note_on,73,0,240
1,note_on,70,23,0
1,note_on,70,0,240
1,note_on,79,0,0
1,note_on,73,26,0
1,note_on,73,0,240
1,note_on,70,23,0
1,note_on,70,0,240
1,note_on,73,30,0
1,note_on,79,42,0
1,note_on,73,0,240
1,note_on,70,23,0
1,note_on,79,0,235
1,note_on,70,0,5
1,note_on,76,34,0
1,note_on,79,45,0
1,note_on,76,0,240
1,note_on,71,23,0
1,note_on,71,0,240
1,note_on,76,26,0
1,note_on,76,0,240
1,note_on,71,23,0
1,note_on,71,0,240
1,note_on,79,0,0
1,note_on,78,42,0
1,note_on,76,31,0
1,note_on,76,0,240
1,note_on,71,23,0
1,note_on,71,0,240
1,note_on,78,0,0
1,note_on,76,29,0
1,note_on,79,39,0
1,note_on,76,0,240
1,note_on,71,23,0
1,note_on,71,0,240
1,note_on,76,23,0
1,note_on,76,0,240
1,note_on,71,23,0
1,note_on,71,0,240
1,note_on,79,0,0
1,note_on,76,31,0
1,note_on,83,42,0
1,note_on,76,0,240
1,note_on,71,25,0
1,note_on,71,0,240
1,note_on,83,0,0
1,note_on,81,51,0
1,note_on,76,27,0
1,note_on,76,0,240
1,note_on,70,24,0
1,note_on,70,0,240
1,note_on,76,30,0
1,note_on,76,0,240
1,note_on,70,24,0
1,note_on,70,0,240
1,note_on,76,29,0
1,note_on,76,0,240
1,note_on,70,23,0
1,note_on,70,0,240
1,note_on,81,0,0
1,note_on,79,45,0
1,note_on,76,34,0
1,note_on,76,0,240
1,note_on,70,23,0
1,note_on,70,0,240
1,note_on,79,0,0
1,note_on,76,26,0
1,note_on,76,0,240
1,note_on,70,23,0
1,note_on,70,0,240
1,note_on,79,42,0
1,note_on,76,30,0
1,note_on,76,0,240
1,note_on,70,23,0
1,note_on,79,0,235
1,note_on,70,0,5
1,note_on,71,34,0
1,note_on,79,45,0
1,note_on,71,0,240
1,note_on,67,23,0
1,note_on,67,0,240
1,note_on,71,26,0
1,note_on,71,0,240
1,note_on,67,23,0
1,note_on,67,0,240
1,note_on,79,0,0
1,note_on,71,31,0
1,note_on,78,42,0
1,note_on,71,0,240
1,note_on,67,23,0
1,note_on,67,0,240
1,note_on,78,0,0
1,note_on,79,39,0
1,note_on,71,29,0
1,note_on,71,0,240
1,note_on,67,23,0
1,note_on,67,0,240
1,note_on,71,23,0
1,note_on,71,0,240
1,note_on,67,23,0
1,note_on,67,0,240
1,note_on,79,0,0
1,note_on,74,42,0
1,note_on,71,31,0
1,note_on,71,0,240
1,note_on,67,25,0
1,note_on,67,0,240
1,note_on,74,0,0
1,note_on,70,34,0
1,note_on,70,0,240
1,note_on,67,23,0
1,note_on,67,0,240
1,note_on,70,26,0
1,note_on,70,0,240
1,note_on,67,23,0
1,note_on,67,0,240
1,note_on,70,31,0
1,note_on,70,0,240
1,note_on,67,23,0
1,note_on,67,0,240
1,note_on,70,29,0
1,note_on,70,0,240
1,note_on,67,23,0
1,note_on,67,0,240
1,note_on,70,23,0
1,note_on,70,0,240
1,note_on,67,23,0
1,note_on,67,0,240
1,note_on,70,31,0
1,note_on,70,0,240
1,note_on,67,25,0
1,note_on,67,0,240
1,note_on,74,45,0
1,note_on,66,34,0
1,note_on,66,0,240
1,note_on,62,23,0
1,note_on,62,0,240
1,note_on,66,26,0
1,note_on,66,0,240
1,note_on,62,23,0
1,note_on,62,0,240
1,note_on,74,0,0
1,note_on,66,31,0
1,note_on,73,42,0
1,note_on,66,0,240
1,note_on,62,23,0
1,note_on,62,0,240
1,note_on,73,0,0
1,note_on,74,39,0
1,note_on,66,29,0
1,note_on,66,0,240
1,note_on,62,23,0
1,note_on,62,0,240
1,note_on,66,23,0
1,note_on,66,0,240
1,note_on,62,23,0
1,note_on,62,0,240
1,note_on,74,0,0
1,note_on,69,42,0
1,note_on,66,31,0
1,note_on,66,0,240
1,note_on,62,25,0
1,note_on,62,0,240
1,note_on,69,0,0
1,note_on,65,32,0
1,note_on,65,0,240
1,note_on,62,21,0
1,note_on,62,0,240
1,note_on,65,24,0
1,note_on,65,0,240
1,note_on,62,21,0
1,note_on,62,0,240
1,note_on,65,28,0
1,note_on,65,0,240
1,note_on,62,21,0
1,note_on,62,0,240
1,note_on,65,27,0
1,note_on,65,0,240
1,note_on,62,20,0
1,note_on,62,0,240
1,note_on,65,20,0
1,note_on,65,0,240
1,note_on,62,20,0
1,note_on,62,0,240
1,note_on,65,27,0
1,note_on,65,0,240
1,note_on,62,21,0
1,note_on,62,0,240
1,note_on,74,34,0
1,note_on,65,26,0
1,note_on,65,0,240
1,note_on,62,19,0
1,note_on,62,0,240
1,note_on,65,19,0
1,note_on,65,0,240
1,note_on,62,19,0
1,note_on,62,0,240
1,note_on,74,0,0
1,note_on,65,27,0
1,note_on,73,36,0
1,note_on,65,0,240
1,note_on,62,21,0
1,note_on,62,0,240
1,note_on,73,0,0
1,note_on,65,28,0
1,note_on,65,0,240
1,note_on,62,19,0
1,note_on,62,0,240
1,note_on,65,21,0
1,note_on,65,0,240
1,note_on,62,18,0
1,note_on,62,0,240
1,note_on,65,26,0
1,note_on,65,0,240
1,note_on,62,18,0
1,note_on,62,0,240
1,note_on,65,24,0
1,note_on,74,31,0
1,note_on,65,0,240
1,note_on,62,18,0
1,note_on,62,0,240
1,note_on,65,18,0
1,note_on,65,0,240
1,note_on,62,18,0
1,note_on,62,0,240
1,note_on,65,25,0
1,note_on,65,0,240
1,note_on,62,19,0
1,note_on,62,0,240
1,note_on,65,27,0
1,note_on,65,0,240
1,note_on,62,18,0
1,note_on,62,0,240
1,note_on,65,19,0
1,note_on,65,0,240
1,note_on,62,18,0
1,note_on,62,0,240
1,note_on,74,0,0
1,note_on,65,19,0
1,note_on,59,23,0
1,note_on,59,0,240
1,note_on,55,17,0
1,note_on,55,0,240
1,note_on,65,0,0
1,note_on,60,30,0
1,note_on,63,40,0
1,note_on,60,0,240
1,note_on,55,20,0
1,note_on,55,0,240
1,note_on,60,30,0
1,note_on,60,0,240
1,note_on,55,21,0
1,note_on,55,0,240
1,note_on,60,30,0
1,note_on,60,0,240
1,note_on,55,20,0
1,note_on,55,0,240
1,note_on,60,34,0
1,note_on,60,0,240
1,note_on,55,25,0
1,note_on,55,0,240
1,note_on,63,0,0
1,note_on,62,34,0
1,note_on,65,40,0
1,note_on,62,0,240
1,note_on,55,24,0
1,note_on,55,0,240
1,note_on,65,0,0
1,note_on,62,34,0
1,note_on,66,35,0
1,note_on,62,0,240
1,note_on,55,25,0
1,note_on,55,0,240
1,note_on,66,0,0
1,note_on,67,40,0
1,note_on,63,34,0
1,note_on,63,0,240
1,note_on,55,26,0
1,note_on,55,0,240
1,note_on,67,0,0
1,note_on,65,34,0
1,note_on,69,36,0
1,note_on,65,0,240
1,note_on,55,27,0
1,note_on,55,0,240
1,note_on,69,0,0
1,note_on,62,34,0
1,note_on,71,40,0
1,note_on,62,0,240
1,note_on,55,27,0
1,note_on,55,0,240
1,note_on,71,0,0
1,note_on,63,34,0
1,note_on,72,44,0
1,note_on,63,0,240
1,note_on,60,26,0
1,note_on,60,0,240
1,note_on,72,0,0
1,note_on,65,34,0
1,note_on,74,49,0
1,note_on,65,0,240
1,note_on,60,34,0
1,note_on,60,0,240
1,note_on,74,0,0
1,note_on,67,34,0
1,note_on,75,57,0
1,note_on,67,0,240
1,note_on,60,34,0
1,note_on,60,0,240
1,note_on,75,0,0
1,note_on,79,62,0
1,note_on,73,34,0
1,note_on,70,34,0
1,note_on,70,0,240
1,note_on,73,0,0
1,note_on,64,37,0
1,note_on,64,0,240
1,note_on,70,43,0
1,note_on,73,43,0
1,note_on,73,0,240
1,note_on,70,0,0
1,note_on,64,36,0
1,note_on,64,0,240
1,note_on,70,43,0
1,note_on,73,43,0
1,note_on,73,0,240
1,note_on,70,0,0
1,note_on,64,38,0
1,note_on,64,0,240
1,note_on,79,0,0
1,note_on,68,34,0
1,note_on,77,57,0
1,note_on,73,34,0
1,note_on,73,0,240
1,note_on,68,0,0
1,note_on,65,31,0
1,note_on,65,0,240
1,note_on,73,38,0
1,note_on,68,38,0
1,note_on,68,0,240
1,note_on,73,0,0
1,note_on,65,31,0
1,note_on,65,0,240
1,note_on,77,0,0
1,note_on,75,50,0
1,note_on,68,42,0
1,note_on,68,0,240
1,note_on,65,33,0
1,note_on,75,0,235
1,note_on,65,0,5
1,note_on,75,51,0
1,note_on,68,43,0
1,note_on,68,0,240
1,note_on,65,29,0
1,note_on,65,0,240
1,note_on,68,33,0
1,note_on,68,0,240
1,note_on,65,29,0
1,note_on,65,0,240
1,note_on,75,0,0
1,note_on,68,39,0
1,note_on,73,47,0
1,note_on,68,0,240
1,note_on,65,29,0
1,note_on,65,0,240
1,note_on,73,0,0
1,note_on,68,37,0
1,note_on,77,44,0
1,note_on,68,0,240
1,note_on,65,29,0
1,note_on,65,0,240
1,note_on,68,29,0
1,note_on,68,0,240
1,note_on,65,29,0
1,note_on,65,0,240
1,note_on,77,0,0
1,note_on,68,39,0
1,note_on,73,47,0
1,note_on,68,0,240
1,note_on,65,32,0
1,note_on,65,0,240
1,note_on,73,0,0
1,note_on,72,40,0
1,note_on,67,30,0
1,note_on,67,0,240
1,note_on,63,20,0
1,note_on,63,0,240
1,note_on,67,30,0
1,note_on,67,0,240
1,note_on,63,21,0
1,note_on,63,0,240
1,note_on,67,30,0
1,note_on,67,0,240
1,note_on,63,20,0
1,note_on,63,0,240
1,note_on,67,30,0
1,note_on,67,0,240
1,note_on,63,22,0
1,note_on,63,0,240
1,note_on,67,30,0
1,note_on,67,0,240
1,note_on,63,21,0
1,note_on,63,0,240
1,note_on,69,30,0
1,note_on,69,0,240
1,note_on,63,22,0
1,note_on,63,0,240
1,note_on,72,0,0
1,note_on,71,40,0
1,note_on,67,34,0
1,note_on,67,0,240
1,note_on,62,26,0
1,note_on,62,0,240
1,note_on,71,0,0
1,note_on,72,36,0
1,note_on,67,34,0
1,note_on,67,0,240
1,note_on,65,27,0
1,note_on,65,0,240
1,note_on,72,0,0
1,note_on,74,40,0
1,note_on,67,34,0
1,note_on,67,0,240
1,note_on,65,27,0
1,note_on,65,0,240
1,note_on,74,0,0
1,note_on,67,34,0
1,note_on,75,44,0
1,note_on,67,0,240
1,note_on,63,26,0
1,note_on,63,0,240
1,note_on,75,0,0
1,note_on,71,34,0
1,note_on,77,49,0
1,note_on,71,0,240
1,note_on,67,34,0
1,note_on,67,0,240
1,note_on,77,0,0
1,note_on,72,34,0
1,note_on,79,57,0
1,note_on,72,0,240
1,note_on,67,34,0
1,note_on,67,0,150
1,note_on,79,0,0
1,note_on,82,62,90
1,note_on,73,34,0
1,note_on,73,0,240
1,note_on,70,37,0
1,note_on,70,0,240
1,note_on,73,43,0
1,note_on,73,0,240
1,note_on,70,36,0
1,note_on,70,0,240
1,note_on,73,43,0
1,note_on,73,0,240
1,note_on,70,38,0
1,note_on,70,0,240
1,note_on,82,0,0
1,note_on,80,57,0
1,note_on,73,34,0
1,note_on,73,0,240
1,note_on,68,30,0
1,note_on,68,0,240
1,note_on,73,36,0
1,note_on,73,0,240
1,note_on,68,29,0
1,note_on,68,0,240
1,note_on,80,0,0
1,note_on,79,42,0
1,note_on,73,34,0
1,note_on,73,0,240
1,note_on,70,26,0
1,note_on,79,0,235
1,note_on,70,0,5
1,note_on,73,44,0
1,note_on,79,52,0
1,note_on,73,0,240
1,note_on,70,33,0
1,note_on,70,0,240
1,note_on,73,40,0
1,note_on,73,0,240
1,note_on,70,31,0
1,note_on,70,0,240
1,note_on,73,39,0
1,note_on,73,0,240
1,note_on,70,29,0
1,note_on,70,0,240
1,note_on,79,0,0
1,note_on,73,39,0
1,note_on,77,46,0
1,note_on,73,0,240
1,note_on,68,26,0
1,note_on,68,0,240
1,note_on,73,35,0
1,note_on,73,0,240
1,note_on,68,27,0
1,note_on,68,0,240
1,note_on,77,0,0
1,note_on,73,32,0
1,note_on,75,38,0
1,note_on,73,0,240
1,note_on,67,26,0
1,note_on,75,0,235
1,note_on,67,0,5
1,note_on,75,44,0
1,note_on,73,34,0
1,note_on,73,0,240
1,note_on,67,23,0
1,note_on,67,0,240
1,note_on,73,34,0
1,note_on,73,0,240
1,note_on,67,27,0
1,note_on,67,0,240
1,note_on,73,35,0
1,note_on,73,0,240
1,note_on,67,26,0
1,note_on,67,0,240
1,note_on,73,29,0
1,note_on,73,0,240
1,note_on,67,24,0
1,note_on,67,0,240
1,note_on,73,36,0
1,note_on,73,0,240
1,note_on,67,28,0
1,note_on,67,0,240
1,note_on,75,0,0
1,note_on,77,55,0
1,note_on,73,32,0
1,note_on,73,0,240
1,note_on,68,31,0
1,note_on,77,0,235
1,note_on,68,0,5
1,note_on,73,34,0
1,note_on,75,45,0
1,note_on,73,0,240
1,note_on,67,23,0
1,note_on,67,0,240
1,note_on,73,34,0
1,note_on,73,0,240
1,note_on,67,27,0
1,note_on,67,0,240
1,note_on,73,35,0
1,note_on,73,0,240
1,note_on,67,26,0
1,note_on,67,0,240
1,note_on,73,29,0
1,note_on,73,0,240
1,note_on,67,24,0
1,note_on,67,0,240
1,note_on,73,36,0
1,note_on,73,0,240
1,note_on,67,28,0
1,note_on,67,0,240
1,note_on,75,0,0
1,note_on,73,32,0
1,note_on,77,55,0
1,note_on,73,0,240
1,note_on,68,31,0
1,note_on,77,0,235
1,note_on,68,0,5
1,note_on,73,38,0
1,note_on,75,45,0
1,note_on,73,0,240
1,note_on,67,26,0
1,note_on,67,0,240
1,note_on,73,38,0
1,note_on,73,0,240
1,note_on,67,31,0
1,note_on,67,0,240
1,note_on,73,39,0
1,note_on,73,0,240
1,note_on,67,29,0
1,note_on,67,0,240
1,note_on,73,33,0
1,note_on,73,0,240
1,note_on,67,27,0
1,note_on,67,0,240
1,note_on,73,40,0
1,note_on,73,0,240
1,note_on,67,32,0
1,note_on,67,0,240
1,note_on,75,0,0
1,note_on,82,60,0
1,note_on,73,47,0
1,note_on,73,0,240
1,note_on,70,35,0
1,note_on,82,0,235
1,note_on,70,0,5
1,note_on,75,45,0
1,note_on,73,38,0
1,note_on,73,0,240
1,note_on,70,26,0
1,note_on,70,0,240
1,note_on,73,38,0
1,note_on,73,0,240
1,note_on,70,31,0
1,note_on,70,0,240
1,note_on,73,39,0
1,note_on,73,0,240
1,note_on,70,29,0
1,note_on,70,0,240
1,note_on,73,33,0
1,note_on,73,0,240
1,note_on,70,27,0
1,note_on,70,0,240
1,note_on,73,40,0
1,note_on,73,0,240
1,note_on,70,32,0
1,note_on,70,0,240
1,note_on,75,0,0
1,note_on,73,47,0
1,note_on,82,60,0
1,note_on,73,0,240
1,note_on,70,35,0
1,note_on,82,0,235
1,note_on,70,0,5
1,note_on,73,38,0
1,note_on,75,45,0
1,note_on,73,0,240
1,note_on,70,26,0
1,note_on,70,0,240
1,note_on,73,38,0
1,note_on,73,0,240
1,note_on,70,31,0
1,note_on,70,0,240
1,note_on,73,39,0
1,note_on,73,0,240
1,note_on,70,29,0
1,note_on,70,0,240
1,note_on,75,0,0
1,note_on,73,38,0
1,note_on,76,45,0
1,note_on,73,0,240
1,note_on,70,26,0
1,note_on,70,0,240
1,note_on,73,38,0
1,note_on,73,0,240
1,note_on,70,32,0
1,note_on,70,0,240
1,note_on,73,40,0
1,note_on,73,0,240
1,note_on,70,30,0
1,note_on,70,0,240
1,note_on,74,41,0
1,note_on,71,28,228
1,note_on,74,0,12
1,note_on,71,0,228
1,note_on,74,41,12
1,note_on,74,0,240
1,note_on,71,34,0
1,note_on,71,0,240
1,note_on,74,44,0
1,note_on,74,0,240
1,note_on,71,33,0
1,note_on,71,0,240
1,note_on,76,0,0
1,note_on,77,56,0
1,note_on,74,44,0
1,note_on,74,0,240
1,note_on,71,30,0
1,note_on,71,0,240
1,note_on,74,44,0
1,note_on,74,0,240
1,note_on,71,37,0
1,note_on,71,0,240
1,note_on,74,47,0
1,note_on,74,0,240
1,note_on,71,35,0
1,note_on,71,0,240
1,note_on,75,70,0
1,note_on,75,0,240
1,note_on,72,32,0
1,note_on,72,0,240
1,note_on,75,47,0
1,note_on,75,0,240
1,note_on,72,39,0
1,note_on,72,0,240
1,note_on,75,50,0
1,note_on,75,0,240
1,note_on,72,37,0
1,note_on,72,0,240
1,note_on,77,0,0
1,note_on,75,50,0
1,note_on,78,68,0
1,note_on,75,0,240
1,note_on,72,34,0
1,note_on,72,0,240
1,note_on,75,50,0
1,note_on,75,0,240
1,note_on,72,42,0
1,note_on,72,0,240
1,note_on,75,53,0
1,note_on,75,0,240
1,note_on,72,40,0
1,note_on,72,0,240
1,note_on,78,0,0
1,note_on,78,58,0
1,note_on,84,69,0
1,note_on,78,0,240
1,note_on,72,42,0
1,note_on,72,0,240
1,note_on,78,56,0
1,note_on,78,0,240
1,note_on,72,50,0
1,note_on,72,0,240
1,note_on,78,60,0
1,note_on,78,0,240
1,note_on,72,48,0
1,note_on,72,0,240
1,note_on,84,0,0
1,note_on,78,42,0
1,note_on,84,69,0
1,note_on,86,69,0
1,note_on,84,0,240
1,note_on,78,0,0
1,note_on,74,42,0
1,note_on,74,0,240
1,note_on,84,56,0
1,note_on,78,50,0
1,note_on,78,0,240
1,note_on,84,0,0
1,note_on,74,50,0
1,note_on,74,0,240
1,note_on,78,48,0
1,note_on,84,60,0
1,note_on,84,0,240
1,note_on,78,0,0
1,note_on,74,48,0
1,note_on,74,0,120
1,note_on,86,0,120
1,note_on,88,91,0
1,note_on,79,42,0
1,note_on,84,42,0
1,note_on,84,0,240
1,note_on,79,0,0
1,note_on,76,30,0
1,note_on,76,0,240
1,note_on,79,33,0
1,note_on,84,33,0
1,note_on,84,0,240
1,note_on,79,0,0
1,note_on,76,28,0
1,note_on,76,0,240
1,note_on,79,33,0
1,note_on,84,33,0
1,note_on,84,0,240
1,note_on,79,0,0
1,note_on,76,25,0
1,note_on,76,0,240
1,note_on,84,34,0
1,note_on,79,34,0
1,note_on,79,0,240
1,note_on,84,0,0
1,note_on,76,27,0
1,note_on,76,0,240
1,note_on,88,0,0
1,note_on,89,67,0
1,note_on,86,52,0
1,note_on,86,0,240
1,note_on,77,28,0
1,note_on,77,0,240
1,note_on,89,0,0
1,note_on,87,31,0
1,note_on,90,67,0
1,note_on,87,0,240
1,note_on,78,32,0
1,note_on,78,0,240
1,note_on,90,0,0
1,note_on,88,61,0
1,note_on,91,79,0
1,note_on,91,0,240
1,note_on,88,0,0
1,note_on,79,39,0
1,note_on,79,0,240
1,note_on,91,74,0
1,note_on,81,57,0
1,note_on,81,0,240
1,note_on,91,0,0
1,note_on,79,40,0
1,note_on,79,0,240
1,note_on,91,75,0
1,note_on,83,58,0
1,note_on,83,0,240
1,note_on,91,0,0
1,note_on,79,44,0
1,note_on,79,0,240
1,note_on,91,76,0
1,note_on,84,59,0
1,note_on,84,0,240
1,note_on,91,0,0
1,note_on,79,39,0
1,note_on,79,0,240
1,note_on,91,74,0
1,note_on,86,57,0
1,note_on,86,0,240
1,note_on,91,0,0
1,note_on,79,44,0
1,note_on,79,0,240
1,note_on,91,81,0
1,note_on,88,63,0
1,note_on,88,0,240
1,note_on,91,0,0
1,note_on,79,34,0
1,note_on,79,0,240
1,note_on,82,56,0
1,note_on,91,85,0
1,note_on,88,56,0
1,note_on,85,56,0
1,note_on,85,0,240
1,note_on,88,0,0
1,note_on,82,0,0
1,note_on,79,42,0
1,note_on,79,0,240
1,note_on,85,51,0
1,note_on,82,51,0
1,note_on,88,51,0
1,note_on,88,0,240
1,note_on,82,0,0
1,note_on,85,0,0
1,note_on,79,38,0
1,note_on,79,0,240
1,note_on,88,47,0
1,note_on,85,47,0
1,note_on,82,47,0
1,note_on,82,0,240
1,note_on,85,0,0
1,note_on,88,0,0
1,note_on,79,38,0
1,note_on,79,0,240
1,note_on,91,0,0
1,note_on,89,74,0
1,note_on,86,34,0
1,note_on,81,34,0
1,note_on,81,0,240
1,note_on,86,0,0
1,note_on,77,31,0
1,note_on,77,0,240
1,note_on,86,38,0
1,note_on,81,38,0
1,note_on,81,0,240
1,note_on,86,0,0
1,note_on,77,31,0
1,note_on,77,0,240
1,note_on,89,0,0
1,note_on,82,42,0
1,note_on,85,42,0
1,note_on,88,73,0
1,note_on,85,0,240
1,note_on,82,0,0
1,note_on,79,33,0
1,note_on,88,0,235
1,note_on,79,0,5
1,note_on,82,48,0
1,note_on,85,48,0
1,note_on,88,77,0
1,note_on,85,0,240
1,note_on,82,0,0
1,note_on,76,29,0
1,note_on,76,0,240
1,note_on,82,37,0
1,note_on,85,37,0
1,note_on,85,0,240
1,note_on,82,0,0
1,note_on,76,29,0
1,note_on,76,0,240
1,note_on,88,0,0
1,note_on,86,66,0
1,note_on,81,51,0
1,note_on,81,0,240
1,note_on,74,29,0
1,note_on,74,0,240
1,note_on,86,0,0
1,note_on,85,47,0
1,note_on,88,72,0
1,note_on,81,47,0
1,note_on,81,0,240
1,note_on,85,0,0
1,note_on,76,34,0
1,note_on,76,0,240
1,note_on,85,42,0
1,note_on,81,42,0
1,note_on,81,0,240
1,note_on,85,0,0
1,note_on,76,30,0
1,note_on,76,0,240
1,note_on,88,0,0
1,note_on,81,48,0
1,note_on,86,48,0
1,note_on,89,74,0
1,note_on,86,0,240
1,note_on,81,0,0
1,note_on,77,32,0
1,note_on,77,0,240
1,note_on,89,0,0
1,note_on,84,70,0
1,note_on,79,45,0
1,note_on,76,45,0
1,note_on,76,0,240
1,note_on,79,0,0
1,note_on,72,25,0
1,note_on,72,0,240
1,note_on,79,42,0
1,note_on,76,42,0
1,note_on,76,0,240
1,note_on,79,0,0
1,note_on,72,27,0
1,note_on,72,0,240
1,note_on,76,40,0
1,note_on,79,40,0
1,note_on,79,0,240
1,note_on,76,0,0
1,note_on,72,23,0
1,note_on,72,0,240
1,note_on,84,0,0
1,note_on,74,47,0
1,note_on,83,72,0
1,note_on,79,47,0
1,note_on,79,0,240
1,note_on,74,0,0
1,note_on,71,36,0
1,note_on,71,0,240
1,note_on,74,57,0
1,note_on,79,57,0
1,note_on,79,0,240
1,note_on,74,0,0
1,note_on,71,39,0
1,note_on,71,0,240
1,note_on,83,0,0
1,note_on,81,64,0
1,note_on,74,59,0
1,note_on,74,0,240
1,note_on,69,41,0
1,note_on,69,0,240
1,note_on,81,0,0
1,note_on,79,54,0
1,note_on,83,70,0
1,note_on,79,0,240
1,note_on,74,44,0
1,note_on,74,0,240
1,note_on,83,0,0
1,note_on,84,70,0
1,note_on,79,54,0
1,note_on,79,0,240
1,note_on,72,44,0
1,note_on,72,0,240
1,note_on,84,0,0
1,note_on,86,72,0
1,note_on,79,56,0
1,note_on,79,0,240
1,note_on,74,47,0
1,note_on,74,0,240
1,note_on,86,0,0
1,note_on,79,58,0
1,note_on,88,75,0
1,note_on,79,0,240
1,note_on,76,47,0
1,note_on,76,0,240
1,note_on,88,0,0
1,note_on,89,75,0
1,note_on,83,58,0
1,note_on,83,0,240
1,note_on,77,51,0
1,note_on,77,0,240
1,note_on,89,0,0
1,note_on,84,62,0
1,note_on,91,80,0
1,note_on,84,0,240
1,note_on,79,55,0
1,note_on,79,0,240
1,note_on,91,0,0
1,note_on,91,69,0
1,note_on,85,69,0
1,note_on,94,82,0
1,note_on,85,0,240
1,note_on,82,56,0
1,note_on,82,0,240
1,note_on,85,64,0
1,note_on,85,0,240
1,note_on,82,53,0
1,note_on,82,0,240
1,note_on,94,0,0
1,note_on,91,0,0
1,note_on,89,69,0
1,note_on,93,82,0
1,note_on,84,69,0
1,note_on,84,0,240
1,note_on,81,56,0
1,note_on,81,0,240
1,note_on,84,64,0
1,note_on,84,0,240
1,note_on,81,53,0
1,note_on,81,0,240
1,note_on,93,0,0
1,note_on,89,0,0
1,note_on,92,82,0
1,note_on,84,69,0
1,note_on,87,69,0
1,note_on,84,0,240
1,note_on,80,56,0
1,note_on,80,0,240
1,note_on,84,64,0
1,note_on,84,0,240
1,note_on,80,53,0
1,note_on,80,0,240
1,note_on,87,0,0
1,note_on,92,0,0
1,note_on,91,82,0
1,note_on,87,69,0
1,note_on,84,69,0
1,note_on,84,0,240
1,note_on,79,56,0
1,note_on,79,0,240
1,note_on,84,64,0
1,note_on,84,0,240
1,note_on,79,53,0
1,note_on,79,0,240
1,note_on,87,0,0
1,note_on,91,0,0
1,note_on,84,69,0
1,note_on,87,69,0
1,note_on,90,82,0
1,note_on,84,0,240
1,note_on,78,56,0
1,note_on,78,0,240
1,note_on,84,64,0
1,note_on,84,0,240
1,note_on,78,53,0
1,note_on,78,0,240
1,note_on,90,0,0
1,note_on,87,0,0
1,note_on,89,82,0
1,note_on,86,69,0
1,note_on,86,0,240
1,note_on,77,56,0
1,note_on,77,0,240
1,note_on,86,64,0
1,note_on,86,0,240
1,note_on,77,53,0
1,note_on,77,0,240
1,note_on,89,0,0
1,note_on,84,69,0
1,note_on,79,56,0
1,note_on,88,82,0
1,note_on,79,0,240
1,note_on,84,0,0
1,note_on,76,56,0
1,note_on,76,0,240
1,note_on,84,64,0
1,note_on,79,53,0
1,note_on,79,0,240
1,note_on,84,0,0
1,note_on,76,53,0
1,note_on,76,0,240
1,note_on,88,0,0
1,note_on,88,69,0
1,note_on,91,82,0
1,note_on,82,56,0
1,note_on,82,0,240
1,note_on,88,0,0
1,note_on,79,56,0
1,note_on,79,0,240
1,note_on,91,0,0
1,note_on,89,82,0
1,note_on,86,69,0
1,note_on,81,56,0
1,note_on,81,0,240
1,note_on,86,0,0
1,note_on,77,56,0
1,note_on,77,0,240
1,note_on,86,64,0
1,note_on,81,53,0
1,note_on,81,0,240
1,note_on,86,0,0
1,note_on,77,53,0
1,note_on,77,0,240
1,note_on,89,0,0
1,note_on,86,82,0
1,note_on,81,56,0
1,note_on,81,0,240
1,note_on,74,56,0
1,note_on,74,0,240
1,note_on,86,0,0
1,note_on,84,82,0
1,note_on,79,69,0
1,note_on,76,56,0
1,note_on,76,0,240
1,note_on,79,0,0
1,note_on,72,56,0
1,note_on,72,0,240
1,note_on,79,64,0
1,note_on,76,53,0
1,note_on,76,0,240
1,note_on,79,0,0
1,note_on,72,53,0
1,note_on,72,0,240
1,note_on,79,56,0
1,note_on,76,53,0
1,note_on,76,0,240
1,note_on,79,0,0
1,note_on,72,56,0
1,note_on,72,0,180
1,note_on,77,50,0
1,note_on,83,62,30
1,note_on,84,0,30
1,note_on,88,73,0
1,note_on,83,0,240
1,note_on,77,0,0
1,note_on,76,50,0
1,note_on,76,0,240
1,note_on,83,57,0
1,note_on,77,47,0
1,note_on,77,0,240
1,note_on,83,0,0
1,note_on,76,47,0
1,note_on,76,0,240
1,note_on,88,0,0
1,note_on,77,47,0
1,note_on,83,50,0
1,note_on,86,73,0
1,note_on,83,0,240
1,note_on,77,0,0
1,note_on,76,50,0
1,note_on,76,0,240
1,note_on,86,0,0
1,note_on,84,73,0
1,note_on,76,50,0
1,note_on,79,62,0
1,note_on,79,0,240
1,note_on,76,0,0
1,note_on,72,50,0
1,note_on,72,0,240
1,note_on,79,57,0
1,note_on,76,47,0
1,note_on,76,0,240
1,note_on,79,0,0
1,note_on,72,47,0
1,note_on,72,0,240
1,note_on,76,47,0
1,note_on,79,50,0
1,note_on,79,0,240
1,note_on,76,0,0
1,note_on,72,50,0
1,note_on,72,0,240
1,note_on,84,0,0
1,note_on,79,50,0
1,note_on,82,62,0
1,note_on,84,73,0
1,note_on,82,0,240
1,note_on,79,0,0
1,note_on,72,50,0
1,note_on,72,0,240
1,note_on,79,47,0
1,note_on,82,57,0
1,note_on,82,0,240
1,note_on,79,0,0
1,note_on,72,47,0
1,note_on,72,0,240
1,note_on,79,47,0
1,note_on,82,50,0
1,note_on,82,0,240
1,note_on,79,0,0
1,note_on,72,50,0
1,note_on,72,0,240
1,note_on,77,50,0
1,note_on,81,62,0
1,note_on,81,0,240
1,note_on,77,0,0
1,note_on,72,50,0
1,note_on,72,0,240
1,note_on,77,47,0
1,note_on,81,57,0
1,note_on,81,0,240
1,note_on,77,0,0
1,note_on,72,47,0
1,note_on,72,0,240
1,note_on,77,47,0
1,note_on,81,50,0
1,note_on,81,0,240
1,note_on,77,0,0
1,note_on,72,50,0
1,note_on,72,0,240
1,note_on,74,50,0
1,note_on,77,62,0
1,note_on,77,0,240
1,note_on,74,0,0
1,note_on,72,50,0
1,note_on,72,0,240
1,note_on,74,47,0
1,note_on,77,57,0
1,note_on,77,0,240
1,note_on,74,0,0
1,note_on,72,47,0
1,note_on,72,0,240
1,note_on,74,47,0
1,note_on,77,50,0
1,note_on,77,0,240
1,note_on,74,0,0
1,note_on,72,50,0
1,note_on,72,0,240
1,note_on,76,50,0
1,note_on,79,62,0
1,note_on,79,0,240
1,note_on,76,0,0
1,note_on,72,50,0
1,note_on,72,0,240
1,note_on,76,47,0
1,note_on,79,57,0
1,note_on,79,0,240
1,note_on,76,0,0
1,note_on,72,47,0
1,note_on,72,0,240
1,note_on,76,47,0
1,note_on,79,50,0
1,note_on,79,0,240
1,note_on,76,0,0
1,note_on,72,50,0
1,note_on,72,0,240
1,note_on,84,0,0
1,note_on,67,36,0
1,note_on,70,44,0
1,note_on,72,65,0
1,note_on,70,0,240
1,note_on,67,0,0
1,note_on,60,36,0
1,note_on,60,0,240
1,note_on,67,33,0
1,note_on,70,40,0
1,note_on,70,0,240
1,note_on,67,0,0
1,note_on,60,32,0
1,note_on,60,0,240
1,note_on,67,32,0
1,note_on,70,35,0
1,note_on,70,0,240
1,note_on,67,0,0
1,note_on,60,35,0
1,note_on,60,0,240
1,note_on,65,35,0
1,note_on,69,43,0
1,note_on,69,0,240
1,note_on,65,0,0
1,note_on,60,34,0
1,note_on,60,0,240
1,note_on,65,32,0
1,note_on,69,39,0
1,note_on,69,0,240
1,note_on,65,0,0
1,note_on,60,32,0
1,note_on,60,0,240
1,note_on,65,32,0
1,note_on,69,34,0
1,note_on,69,0,240
1,note_on,65,0,0
1,note_on,60,33,0
1,note_on,60,0,240
1,note_on,62,33,0
1,note_on,65,41,0
1,note_on,65,0,240
1,note_on,62,0,0
1,note_on,60,33,0
1,note_on,60,0,240
1,note_on,62,31,0
1,note_on,65,37,0
1,note_on,65,0,240
1,note_on,62,0,0
1,note_on,60,31,0
1,note_on,60,0,240
1,note_on,62,31,0
1,note_on,65,32,0
1,note_on,65,0,240
1,note_on,62,0,0
1,note_on,60,32,0
1,note_on,60,0,240
1,note_on,64,32,0
1,note_on,67,40,0
1,note_on,67,0,240
1,note_on,64,0,0
1,note_on,60,32,0
1,note_on,60,0,240
1,note_on,64,30,0
1,note_on,67,36,0
1,note_on,67,0,240
1,note_on,64,0,0
1,note_on,60,29,0
1,note_on,60,0,240
1,note_on,64,29,0
1,note_on,67,32,0
1,note_on,67,0,240
1,note_on,64,0,0
1,note_on,60,32,0
1,note_on,60,0,240
1,note_on,64,38,0
1,note_on,64,0,240
1,note_on,60,31,0
1,note_on,60,0,240
1,note_on,64,35,0
1,note_on,64,0,240
1,note_on,60,28,0
1,note_on,60,0,240
1,note_on,64,30,0
1,note_on,64,0,240
1,note_on,60,30,0
1,note_on,60,0,240
1,note_on,64,37,0
1,note_on,64,0,240
1,note_on,60,30,0
1,note_on,60,0,240
1,note_on,64,33,0
1,note_on,64,0,240
1,note_on,60,27,0
1,note_on,60,0,240
1,note_on,64,28,0
1,note_on,64,0,240
1,note_on,60,28,0
1,note_on,60,0,240
1,note_on,64,35,0
1,note_on,64,0,240
1,note_on,60,27,0
1,note_on,60,0,240
1,note_on,64,31,0
1,note_on,64,0,240
1,note_on,60,24,0
1,note_on,60,0,240
1,note_on,64,26,0
1,note_on,64,0,240
1,note_on,60,26,0
1,note_on,60,0,240
1,note_on,72,0,0
1,note_on,64,34,0
1,note_on,64,0,240
1,note_on,60,26,0
1,note_on,60,0,240
1,note_on,64,30,0
1,note_on,64,0,240
1,note_on,60,24,0
1,note_on,60,0,240
1,note_on,64,26,0
1,note_on,64,0,240
1,note_on,60,26,0
1,note_on,60,0,240
1,note_on,64,33,0
1,note_on,64,0,240
1,note_on,60,25,0
1,note_on,60,0,240
1,note_on,64,29,0
1,note_on,64,0,240
1,note_on,60,23,0
1,note_on,60,0,240
1,note_on,64,25,0
1,note_on,64,0,240
1,note_on,60,25,0
1,note_on,60,0,240
1,note_on,64,32,0
1,note_on,64,0,240
1,note_on,60,24,0
1,note_on,60,0,240
1,note_on,64,28,0
1,note_on,64,0,240
1,note_on,60,22,0
1,note_on,60,0,240
1,note_on,64,24,0
1,note_on,64,0,240
1,note_on,60,24,0
1,note_on,60,0,240
1,note_on,64,31,0
1,note_on,64,0,240
1,note_on,60,24,0
1,note_on,60,0,240
1,note_on,64,27,0
1,note_on,64,0,240
1,note_on,60,22,0
1,note_on,60,0,240
1,note_on,64,23,0
1,note_on,64,0,240
1,note_on,60,23,0
1,note_on,60,0,240
1,note_on,64,30,0
1,note_on,64,0,240
1,note_on,60,23,0
1,note_on,60,0,240
1,note_on,64,26,0
1,note_on,64,0,240
1,note_on,60,21,0
1,note_on,60,0,240
1,note_on,64,22,0
1,note_on,64,0,240
1,note_on,60,22,0
1,note_on,60,0,240
1,note_on,64,29,0
1,note_on,64,0,240
1,note_on,60,22,0
1,note_on,60,0,240
1,note_on,64,25,0
1,note_on,64,0,240
1,note_on,60,20,0
1,note_on,60,0,240
1,note_on,64,22,0
1,note_on,64,0,240
1,note_on,60,22,0
1,note_on,60,0,240
1,note_on,64,28,0
1,note_on,64,0,360
1,note_on,60,22,0
1,note_on,60,0,360
1,note_on,64,27,0
1,note_on,64,0,360
1,note_on,60,22,0
1,note_on,60,0,360
1,note_on,64,27,0
1,note_on,64,0,480
1,note_on,60,22,0
1,note_on,60,0,480
1,note_on,64,26,0
1,note_on,64,0,480
1,note_on,60,20,0
1,note_on,60,0,480
1,note_on,64,25,0
1,note_on,64,0,480
1,note_on,60,20,0
1,note_on,60,0,480
1,note_on,64,60,0
1,note_on,64,0,206
1,note_on,62,62,0
1,note_on,62,0,207
1,note_on,60,64,0
1,note_on,59,66,206
1,note_on,60,0,0
1,note_on,59,0,206
1,note_on,57,69,0
1,note_on,57,0,207
1,note_on,55,71,0
1,note_on,53,73,206
1,note_on,55,0,0
1,note_on,53,0,202
1,note_on,52,82,0
1,note_on,52,0,240
1,note_on,83,63,480
1,note_on,86,75,0
1,note_on,74,63,0
1,note_on,74,0,720
1,note_on,86,0,0
1,note_on,83,0,0
1,note_on,72,62,0
1,note_on,84,73,0
1,note_on,81,73,0
1,note_on,81,0,720
1,note_on,84,0,0
1,note_on,72,0,0
1,note_on,78,63,0
1,note_on,69,63,0
1,note_on,81,75,0
1,note_on,81,0,720
1,note_on,69,0,0
1,note_on,78,0,0
1,note_on,83,70,0
1,note_on,71,59,0
1,note_on,79,59,0
1,note_on,79,0,120
1,note_on,71,0,0
1,note_on,83,0,0
1,note_on,76,52,120
1,note_on,79,62,0
1,note_on,67,52,0
1,note_on,67,0,120
1,note_on,79,0,0
1,note_on,76,0,0
1,note_on,78,54,120
1,note_on,69,55,0
1,note_on,81,70,0
1,note_on,81,0,120
1,note_on,69,0,0
1,note_on,78,0,0
1,note_on,75,53,120
1,note_on,78,63,0
1,note_on,66,53,0
1,note_on,66,0,120
1,note_on,78,0,0
1,note_on,75,0,0
1,note_on,79,70,120
1,note_on,67,59,0
1,note_on,76,59,0
1,note_on,76,0,120
1,note_on,67,0,0
1,note_on,79,0,0
1,note_on,64,54,120
1,note_on,73,54,0
1,note_on,76,64,0
1,note_on,76,0,120
1,note_on,73,0,0
1,note_on,64,0,0
1,note_on,75,59,120
1,note_on,66,59,0
1,note_on,78,70,0
1,note_on,78,0,120
1,note_on,66,0,0
1,note_on,75,0,0
1,note_on,66,58,360
1,note_on,75,58,0
1,note_on,78,69,0
1,note_on,78,0,120
1,note_on,75,0,0
1,note_on,66,0,0
1,note_on,61,52,1080
1,note_on,73,62,0
1,note_on,73,0,120
1,note_on,61,0,0
1,note_on,75,64,120
1,note_on,63,54,0
1,note_on,63,0,120
1,note_on,75,0,0
1,note_on,76,66,120
1,note_on,64,56,0
1,note_on,64,0,120
1,note_on,76,0,0
1,note_on,66,56,120
1,note_on,78,67,0
1,note_on,78,0,120
1,note_on,66,0,0
1,note_on,79,69,120
1,note_on,67,58,0
1,note_on,67,0,120
1,note_on,79,0,0
1,note_on,78,70,120
1,note_on,75,59,0
1,note_on,66,59,0
1,note_on,66,0,120
1,note_on,75,0,0
1,note_on,78,0,0
1,note_on,83,69,360
1,note_on,71,58,0
1,note_on,71,0,120
1,note_on,83,0,0
1,note_on,61,52,1080
1,note_on,73,62,0
1,note_on,73,0,120
1,note_on,61,0,0
1,note_on,75,64,120
1,note_on,63,54,0
1,note_on,63,0,120
1,note_on,75,0,0
1,note_on,64,56,120
1,note_on,76,66,0
1,note_on,76,0,120
1,note_on,64,0,0
1,note_on,78,67,120
1,note_on,66,56,0
1,note_on,66,0,120
1,note_on,78,0,0
1,note_on,67,58,120
1,note_on,79,69,0
1,note_on,79,0,120
1,note_on,67,0,0
1,note_on,69,59,120
1,note_on,78,59,0
1,note_on,81,70,0
1,note_on,81,0,120
1,note_on,78,0,0
1,note_on,69,0,0
1,note_on,86,69,360
1,note_on,74,58,0
1,note_on,74,0,120
1,note_on,86,0,0
1,note_on,55,76,840
1,note_on,55,0,240
1,note_on,89,63,480
1,note_on,81,63,0
1,note_on,93,75,0
1,note_on,93,0,720
1,note_on,81,0,0
1,note_on,89,0,0
1,note_on,88,73,0
1,note_on,91,73,0
1,note_on,79,62,0
1,note_on,79,0,720
1,note_on,91,0,0
1,note_on,88,0,0
1,note_on,88,75,0
1,note_on,76,63,0
1,note_on,84,63,0
1,note_on,84,0,720
1,note_on,76,0,0
1,note_on,88,0,0
1,note_on,89,70,0
1,note_on,77,59,0
1,note_on,86,59,0
1,note_on,86,0,120
1,note_on,77,0,0
1,note_on,89,0,0
1,note_on,74,52,120
1,note_on,86,62,0
1,note_on,83,52,0
1,note_on,83,0,120
1,note_on,86,0,0
1,note_on,74,0,0
1,note_on,76,55,120
1,note_on,88,70,0
1,note_on,84,54,0
1,note_on,84,0,120
1,note_on,88,0,0
1,note_on,76,0,0
1,note_on,84,63,120
1,note_on,72,53,0
1,note_on,81,53,0
1,note_on,81,0,120
1,note_on,72,0,0
1,note_on,84,0,0
1,note_on,83,59,120
1,note_on,86,70,0
1,note_on,74,59,0
1,note_on,74,0,120
1,note_on,86,0,0
1,note_on,83,0,0
1,note_on,83,64,120
1,note_on,71,54,0
1,note_on,79,54,0
1,note_on,79,0,120
1,note_on,71,0,0
1,note_on,83,0,0
1,note_on,81,59,120
1,note_on,72,59,0
1,note_on,84,70,0
1,note_on,84,0,120
1,note_on,72,0,0
1,note_on,81,0,0
1,note_on,84,69,360
1,note_on,72,58,0
1,note_on,81,58,0
1,note_on,81,0,120
1,note_on,72,0,0
1,note_on,84,0,0
1,note_on,77,59,120
1,note_on,69,59,0
1,note_on,81,70,0
1,note_on,81,0,720
1,note_on,69,0,0
1,note_on,77,0,0
1,note_on,67,47,240
1,note_on,79,56,0
1,note_on,79,0,120
1,note_on,67,0,0
1,note_on,71,49,120
1,note_on,83,58,0
1,note_on,83,0,120
1,note_on,71,0,0
1,note_on,84,60,120
1,note_on,72,51,0
1,note_on,72,0,120
1,note_on,84,0,0
1,note_on,86,62,120
1,note_on,74,52,0
1,note_on,74,0,120
1,note_on,86,0,0
1,note_on,76,54,120
1,note_on,88,64,0
1,note_on,88,0,120
1,note_on,76,0,0
1,note_on,79,60,60
1,note_on,84,60,30
1,note_on,91,70,30
1,note_on,91,0,120
1,note_on,84,0,0
1,note_on,79,0,0
1,note_on,89,58,360
1,note_on,77,49,0
1,note_on,77,0,120
1,note_on,89,0,0
1,note_on,84,57,120
1,note_on,72,48,0
1,note_on,72,0,720
1,note_on,84,0,0
1,note_on,69,48,240
1,note_on,81,58,0
1,note_on,81,0,120
1,note_on,69,0,0
1,note_on,83,63,120
1,note_on,71,53,0
1,note_on,71,0,120
1,note_on,83,0,0
1,note_on,72,57,120
1,note_on,84,67,0
1,note_on,84,0,120
1,note_on,72,0,0
1,note_on,86,73,120
1,note_on,74,61,0
1,note_on,74,0,120
1,note_on,86,0,0
1,note_on,88,78,120
1,note_on,76,65,0
1,note_on,76,0,120
1,note_on,88,0,0
1,note_on,79,75,60
1,note_on,87,75,30
1,note_on,91,87,30
1,note_on,91,0,120
1,note_on,87,0,0
1,note_on,79,0,0
1,note_on,90,69,360
1,note_on,78,58,0
1,note_on,78,0,120
1,note_on,90,0,0
1,note_on,69,56,120
1,note_on,81,67,0
1,note_on,81,0,720
1,note_on,69,0,0
1,note_on,48,76,0
1,note_on,48,0,240
1,note_on,67,59,480
1,note_on,70,71,0
1,note_on,58,59,0
1,note_on,58,0,720
1,note_on,70,0,0
1,note_on,67,0,0
1,note_on,57,58,0
1,note_on,69,69,0
1,note_on,65,69,0
1,note_on,65,0,720
1,note_on,69,0,0
1,note_on,57,0,0
1,note_on,62,59,0
1,note_on,65,71,0
1,note_on,53,59,0
1,note_on,53,0,720
1,note_on,65,0,0
1,note_on,62,0,0
1,note_on,55,56,0
1,note_on,67,66,0
1,note_on,64,56,0
1,note_on,64,0,120
1,note_on,67,0,0
1,note_on,55,0,0
1,note_on,64,58,120
1,note_on,52,49,0
1,note_on,52,0,120
1,note_on,64,0,0
1,note_on,65,66,120
1,note_on,53,52,0
1,note_on,53,0,120
1,note_on,65,0,0
1,note_on,62,59,120
1,note_on,50,50,0
1,note_on,50,0,120
1,note_on,62,0,0
1,note_on,64,66,120
1,note_on,52,56,0
1,note_on,52,0,120
1,note_on,64,0,0
1,note_on,61,60,120
1,note_on,49,51,0
1,note_on,49,0,120
1,note_on,61,0,0
1,note_on,62,66,120
1,note_on,50,56,0
1,note_on,50,0,120
1,note_on,62,0,0
1,note_on,50,55,360
1,note_on,62,65,0
1,note_on,62,0,120
1,note_on,50,0,0
1,note_on,51,76,840
1,note_on,51,0,240
1,note_on,73,71,480
1,note_on,70,59,0
1,note_on,61,59,0
1,note_on,61,0,720
1,note_on,70,0,0
1,note_on,73,0,0
1,note_on,72,69,0
1,note_on,68,69,0
1,note_on,60,58,0
1,note_on,60,0,720
1,note_on,68,0,0
1,note_on,72,0,0
1,note_on,68,71,0
1,note_on,65,59,0
1,note_on,56,59,0
1,note_on,56,0,720
1,note_on,65,0,0
1,note_on,68,0,0
1,note_on,58,56,0
1,note_on,67,56,0
1,note_on,70,66,0
1,note_on,70,0,120
1,note_on,67,0,0
1,note_on,58,0,0
1,note_on,67,58,120
1,note_on,55,49,0
1,note_on,55,0,120
1,note_on,67,0,0
1,note_on,68,66,120
1,note_on,56,52,0
1,note_on,56,0,120
1,note_on,68,0,0
1,note_on,65,59,120
1,note_on,53,50,0
1,note_on,53,0,120
1,note_on,65,0,0
1,note_on,67,66,120
1,note_on,55,56,0
1,note_on,55,0,120
1,note_on,67,0,0
1,note_on,64,60,120
1,note_on,52,51,0
1,note_on,52,0,120
1,note_on,64,0,0
1,note_on,53,56,120
1,note_on,65,66,0
1,note_on,65,0,120
1,note_on,53,0,0
1,note_on,53,55,360
1,note_on,65,65,0
1,note_on,65,0,120
1,note_on,53,0,0
1,note_on,54,76,840
1,note_on,54,0,240
1,note_on,76,67,480
1,note_on,88,81,0
1,note_on,85,67,0
1,note_on,85,0,720
1,note_on,88,0,0
1,note_on,76,0,0
1,note_on,83,79,0
1,note_on,87,79,0
1,note_on,75,66,0
1,note_on,75,0,720
1,note_on,87,0,0
1,note_on,83,0,0
1,note_on,71,67,0
1,note_on,83,81,0
1,note_on,80,67,0
1,note_on,80,0,720
1,note_on,83,0,0
1,note_on,71,0,0
1,note_on,64,42,720
1,note_on,64,0,720
1,note_on,62,41,0
1,note_on,62,0,720
1,note_on,59,42,0
1,note_on,59,0,720
1,note_on,54,91,0
1,note_on,54,0,240
1,note_on,88,78,240
1,note_on,85,64,0
1,note_on,76,64,0
1,note_on,76,0,240
1,note_on,85,0,0
1,note_on,88,0,0
1,note_on,83,75,0
1,note_on,75,75,0
1,note_on,87,75,0
1,note_on,87,0,480
1,note_on,75,0,0
1,note_on,83,0,0
1,note_on,71,64,0
1,note_on,83,78,0
1,note_on,80,64,0
1,note_on,80,0,240
1,note_on,83,0,0
1,note_on,71,0,0
1,note_on,92,78,480
1,note_on,80,64,0
1,note_on,88,64,0
1,note_on,88,0,240
1,note_on,80,0,0
1,note_on,92,0,0
1,note_on,90,75,0
1,note_on,87,75,0
1,note_on,78,75,0
1,note_on,78,0,480
1,note_on,87,0,0
1,note_on,90,0,0
1,note_on,75,64,0
1,note_on,87,78,0
1,note_on,83,64,0
1,note_on,83,0,240
1,note_on,87,0,0
1,note_on,75,0,0
1,note_on,64,42,480
1,note_on,64,0,240
1,note_on,62,41,0
1,note_on,62,0,480
1,note_on,59,42,0
1,note_on,59,0,240
1,note_on,61,42,480
1,note_on,61,0,240
1,note_on,59,41,0
1,note_on,59,0,480
1,note_on,55,42,0
1,note_on,55,0,240
1,note_on,54,41,0
1,note_on,54,0,480
1,note_on,66,26,1680
1,note_on,64,22,0
1,note_on,58,22,0
1,note_on,61,22,0
1,note_on,61,0,120
1,note_on,66,0,0
1,note_on,64,0,0
1,note_on,58,0,0
1,note_on,61,25,120
1,note_on,58,25,0
1,note_on,64,25,0
1,note_on,66,30,0
1,note_on,66,0,120
1,note_on,61,0,0
1,note_on,58,0,0
1,note_on,64,0,0
1,note_on,58,22,120
1,note_on,66,26,0
1,note_on,61,22,0
1,note_on,64,22,0
1,note_on,64,0,120
1,note_on,58,0,0
1,note_on,66,0,0
1,note_on,61,0,0
1,note_on,66,33,120
1,note_on,59,28,0
1,note_on,63,28,0
1,note_on,63,0,120
1,note_on,59,0,0
1,note_on,66,0,0
1,note_on,61,26,600
1,note_on,52,22,0
1,note_on,54,22,0
1,note_on,58,22,0
1,note_on,58,0,120
1,note_on,61,0,0
1,note_on,52,0,0
1,note_on,54,0,0
1,note_on,52,25,120
1,note_on,54,25,0
1,note_on,58,25,0
1,note_on,63,30,0
1,note_on,63,0,120
1,note_on,52,0,0
1,note_on,54,0,0
1,note_on,58,0,0
1,note_on,52,22,120
1,note_on,54,22,0
1,note_on,58,22,0
1,note_on,61,26,0
1,note_on,61,0,120
1,note_on,52,0,0
1,note_on,54,0,0
1,note_on,58,0,0
1,note_on,51,28,120
1,note_on,54,28,0
1,note_on,59,33,0
1,note_on,59,0,120
1,note_on,54,0,0
1,note_on,51,0,0
1,note_on,58,22,600
1,note_on,66,26,0
1,note_on,61,22,0
1,note_on,64,22,0
1,note_on,64,0,120
1,note_on,58,0,0
1,note_on,66,0,0
1,note_on,61,0,0
1,note_on,58,25,120
1,note_on,61,25,0
1,note_on,64,25,0
1,note_on,66,30,0
1,note_on,66,0,120
1,note_on,58,0,0
1,note_on,61,0,0
1,note_on,64,0,0
1,note_on,61,22,120
1,note_on,66,26,0
1,note_on,64,22,0
1,note_on,58,22,0
1,note_on,58,0,120
1,note_on,61,0,0
1,note_on,66,0,0
1,note_on,64,0,0
1,note_on,66,33,120
1,note_on,63,28,0
1,note_on,59,28,0
1,note_on,59,0,120
1,note_on,63,0,0
1,note_on,66,0,0
1,note_on,58,22,600
1,note_on,61,26,0
1,note_on,52,22,0
1,note_on,54,22,0
1,note_on,54,0,120
1,note_on,58,0,0
1,note_on,61,0,0
1,note_on,52,0,0
1,note_on,58,25,120
1,note_on,52,25,0
1,note_on,54,25,0
1,note_on,63,30,0
1,note_on,63,0,120
1,note_on,58,0,0
1,note_on,52,0,0
1,note_on,54,0,0
1,note_on,58,22,120
1,note_on,52,22,0
1,note_on,61,26,0
1,note_on,54,22,0
1,note_on,54,0,120
1,note_on,58,0,0
1,note_on,52,0,0
1,note_on,61,0,0
1,note_on,54,28,120
1,note_on,59,33,0
1,note_on,51,28,0
1,note_on,51,0,120
1,note_on,59,0,0
1,note_on,54,0,0
1,note_on,66,23,600
1,note_on,60,23,0
1,note_on,63,23,0
1,note_on,68,28,0
1,note_on,68,0,120
1,note_on,66,0,0
1,note_on,60,0,0
1,note_on,63,0,0
1,note_on,66,27,120
1,note_on,68,33,0
1,note_on,63,27,0
1,note_on,60,27,0
1,note_on,60,0,120
1,note_on,66,0,0
1,note_on,68,0,0
1,note_on,63,0,0
1,note_on,63,25,120
1,note_on,60,25,0
1,note_on,66,25,0
1,note_on,68,29,0
1,note_on,68,0,120
1,note_on,63,0,0
1,note_on,60,0,0
1,note_on,66,0,0
1,note_on,64,32,120
1,note_on,61,32,0
1,note_on,68,38,0
1,note_on,68,0,120
1,note_on,61,0,0
1,note_on,64,0,0
1,note_on,58,27,600
1,note_on,61,27,0
1,note_on,64,27,0
1,note_on,66,32,0
1,note_on,66,0,120
1,note_on,58,0,0
1,note_on,61,0,0
1,note_on,64,0,0
1,note_on,58,32,120
1,note_on,63,32,0
1,note_on,64,32,0
1,note_on,66,38,0
1,note_on,66,0,120
1,note_on,58,0,0
1,note_on,63,0,0
1,note_on,64,0,0
1,note_on,64,28,120
1,note_on,66,34,0
1,note_on,58,28,0
1,note_on,61,28,0
1,note_on,61,0,120
1,note_on,64,0,0
1,note_on,66,0,0
1,note_on,58,0,0
1,note_on,59,37,120
1,note_on,63,37,0
1,note_on,66,43,0
1,note_on,66,0,120
1,note_on,63,0,0
1,note_on,59,0,0
1,note_on,63,31,600
1,note_on,69,31,0
1,note_on,71,36,0
1,note_on,66,31,0
1,note_on,66,0,120
1,note_on,63,0,0
1,note_on,69,0,0
1,note_on,71,0,0
1,note_on,63,36,120
1,note_on,66,36,0
1,note_on,69,36,0
1,note_on,71,43,0
1,note_on,71,0,120
1,note_on,63,0,0
1,note_on,66,0,0
1,note_on,69,0,0
1,note_on,63,32,120
1,note_on,66,32,0
1,note_on,69,32,0
1,note_on,71,38,0
1,note_on,71,0,120
1,note_on,63,0,0
1,note_on,66,0,0
1,note_on,69,0,0
1,note_on,64,42,120
1,note_on,71,49,0
1,note_on,68,42,0
1,note_on,68,0,120
1,note_on,71,0,0
1,note_on,64,0,0
1,note_on,73,47,600
1,note_on,65,39,0
1,note_on,68,39,0
1,note_on,71,39,0
1,note_on,71,0,120
1,note_on,73,0,0
1,note_on,65,0,0
1,note_on,68,0,0
1,note_on,73,55,120
1,note_on,71,46,0
1,note_on,68,46,0
1,note_on,65,46,0
1,note_on,65,0,120
1,note_on,73,0,0
1,note_on,71,0,0
1,note_on,68,0,0
1,note_on,68,41,120
1,note_on,65,41,0
1,note_on,73,48,0
1,note_on,71,41,0
1,note_on,71,0,120
1,note_on,68,0,0
1,note_on,65,0,0
1,note_on,73,0,0
1,note_on,70,52,120
1,note_on,66,52,0
1,note_on,73,63,0
1,note_on,73,0,120
1,note_on,66,0,0
1,note_on,70,0,0
1,note_on,85,55,600
1,note_on,90,65,0
1,note_on,82,55,0
1,note_on,76,55,0
1,note_on,76,0,120
1,note_on,85,0,0
1,note_on,90,0,0
1,note_on,82,0,0
1,note_on,76,62,120
1,note_on,90,74,0
1,note_on,85,62,0
1,note_on,82,62,0
1,note_on,82,0,120
1,note_on,76,0,0
1,note_on,90,0,0
1,note_on,85,0,0
1,note_on,82,57,120
1,note_on,76,57,0
1,note_on,90,68,0
1,note_on,85,57,0
1,note_on,85,0,120
1,note_on,82,0,0
1,note_on,76,0,0
1,note_on,90,0,0
1,note_on,76,55,120
1,note_on,85,55,0
1,note_on,82,55,0
1,note_on,90,65,0
1,note_on,90,0,120
1,note_on,76,0,0
1,note_on,85,0,0
1,note_on,82,0,0
1,note_on,76,62,120
1,note_on,85,62,0
1,note_on,90,74,0
1,note_on,82,62,0
1,note_on,82,0,120
1,note_on,76,0,0
1,note_on,85,0,0
1,note_on,90,0,0
1,note_on,85,57,120
1,note_on,82,57,0
1,note_on,76,57,0
1,note_on,90,68,0
1,note_on,90,0,120
1,note_on,85,0,0
1,note_on,82,0,0
1,note_on,76,0,0
1,note_on,85,55,120
1,note_on,76,55,0
1,note_on,90,65,0
1,note_on,82,55,0
1,note_on,82,0,120
1,note_on,85,0,0
1,note_on,76,0,0
1,note_on,90,0,0
1,note_on,76,62,120
1,note_on,82,62,0
1,note_on,90,74,0
1,note_on,85,62,0
1,note_on,85,0,120
1,note_on,76,0,0
1,note_on,82,0,0
1,note_on,90,0,0
1,note_on,82,57,120
1,note_on,90,68,0
1,note_on,76,57,0
1,note_on,85,57,0
1,note_on,85,0,120
1,note_on,82,0,0
1,note_on,90,0,0
1,note_on,76,0,0
1,note_on,83,67,120
1,note_on,75,67,0
1,note_on,87,79,0
1,note_on,87,0,120
1,note_on,75,0,0
1,note_on,83,0,0
1,note_on,71,61,360
1,note_on,83,72,0
1,note_on,83,0,120
1,note_on,71,0,0
1,note_on,78,79,120
1,note_on,66,67,0
1,note_on,66,0,120
1,note_on,78,0,0
1,note_on,75,71,360
1,note_on,63,60,0
1,note_on,63,0,120
1,note_on,75,0,0
1,note_on,71,79,120
1,note_on,71,0,120
1,note_on,67,73,360
1,note_on,67,0,120
1,note_on,82,55,120
1,note_on,85,55,0
1,note_on,76,55,0
1,note_on,90,65,0
1,note_on,90,0,120
1,note_on,82,0,0
1,note_on,85,0,0
1,note_on,76,0,0
1,note_on,90,74,120
1,note_on,76,62,0
1,note_on,82,62,0
1,note_on,85,62,0
1,note_on,85,0,120
1,note_on,90,0,0
1,note_on,76,0,0
1,note_on,82,0,0
1,note_on,76,57,120
1,note_on,85,57,0
1,note_on,82,57,0
1,note_on,90,68,0
1,note_on,90,0,120
1,note_on,76,0,0
1,note_on,85,0,0
1,note_on,82,0,0
1,note_on,83,67,120
1,note_on,75,67,0
1,note_on,87,79,0
1,note_on,87,0,120
1,note_on,75,0,0
1,note_on,83,0,0
1,note_on,71,61,360
1,note_on,83,72,0
1,note_on,83,0,120
1,note_on,71,0,0
1,note_on,66,67,120
1,note_on,78,79,0
1,note_on,78,0,120
1,note_on,66,0,0
1,note_on,63,60,360
1,note_on,75,71,0
1,note_on,75,0,120
1,note_on,63,0,0
1,note_on,71,79,120
1,note_on,71,0,120
1,note_on,67,73,360
1,note_on,67,0,120
1,note_on,76,55,120
1,note_on,85,55,0
1,note_on,82,55,0
1,note_on,90,65,0
1,note_on,90,0,120
1,note_on,76,0,0
1,note_on,85,0,0
1,note_on,82,0,0
1,note_on,85,62,120
1,note_on,90,74,0
1,note_on,76,62,0
1,note_on,82,62,0
1,note_on,82,0,120
1,note_on,85,0,0
1,note_on,90,0,0
1,note_on,76,0,0
1,note_on,85,57,120
1,note_on,76,57,0
1,note_on,82,57,0
1,note_on,90,68,0
1,note_on,90,0,120
1,note_on,85,0,0
1,note_on,76,0,0
1,note_on,82,0,0
1,note_on,75,67,120
1,note_on,83,67,0
1,note_on,87,79,0
1,note_on,87,0,120
1,note_on,83,0,0
1,note_on,75,0,0
1,note_on,83,72,360
1,note_on,71,61,0
1,note_on,71,0,120
1,note_on,83,0,0
1,note_on,79,79,120
1,note_on,67,67,0
1,note_on,67,0,120
1,note_on,79,0,0
1,note_on,76,64,360
1,note_on,64,64,0
1,note_on,64,0,120
1,note_on,76,0,0
1,note_on,72,69,120
1,note_on,72,0,120
1,note_on,69,52,360
1,note_on,69,0,120
1,note_on,66,58,120
1,note_on,66,0,120
1,note_on,63,43,360
1,note_on,63,0,120
1,note_on,59,45,120
1,note_on,59,0,120
1,note_on,55,36,1320
1,note_on,55,0,120
1,note_on,52,36,1320
1,note_on,52,0,120
1,note_on,86,37,600
1,note_on,83,31,0
1,note_on,83,0,720
1,note_on,86,0,0
1,note_on,81,36,0
1,note_on,84,36,0
1,note_on,84,0,710
1,note_on,81,0,0
1,note_on,81,37,10
1,note_on,78,31,0
1,note_on,78,0,720
1,note_on,81,0,0
1,note_on,83,35,0
1,note_on,79,29,0
1,note_on,79,0,120
1,note_on,83,0,0
1,note_on,76,26,120
1,note_on,79,31,0
1,note_on,79,0,120
1,note_on,76,0,0
1,note_on,78,27,120
1,note_on,81,35,0
1,note_on,81,0,120
1,note_on,78,0,0
1,note_on,78,31,120
1,note_on,75,26,0
1,note_on,75,0,120
1,note_on,78,0,0
1,note_on,76,29,120
1,note_on,79,35,0
1,note_on,79,0,120
1,note_on,76,0,0
1,note_on,76,32,120
1,note_on,73,27,0
1,note_on,73,0,120
1,note_on,76,0,0
1,note_on,78,35,120
1,note_on,75,29,0
1,note_on,75,0,120
1,note_on,78,0,0
1,note_on,78,34,360
1,note_on,75,29,0
1,note_on,75,0,120
1,note_on,78,0,0
1,note_on,71,34,120
1,note_on,71,0,960
1,note_on,70,26,0
1,note_on,73,31,0
1,note_on,73,0,120
1,note_on,70,0,0
1,note_on,71,27,120
1,note_on,75,32,0
1,note_on,75,0,120
1,note_on,71,0,0
1,note_on,73,28,120
1,note_on,76,33,0
1,note_on,76,0,120
1,note_on,73,0,0
1,note_on,75,28,120
1,note_on,78,33,0
1,note_on,78,0,120
1,note_on,75,0,0
1,note_on,76,29,120
1,note_on,79,34,0
1,note_on,79,0,120
1,note_on,76,0,0
1,note_on,75,29,120
1,note_on,78,35,0
1,note_on,78,0,120
1,note_on,75,0,0
1,note_on,83,34,360
1,note_on,83,0,120
1,note_on,71,34,120
1,note_on,71,0,960
1,note_on,70,26,0
1,note_on,73,31,0
1,note_on,73,0,120
1,note_on,70,0,0
1,note_on,71,27,120
1,note_on,75,32,0
1,note_on,75,0,120
1,note_on,71,0,0
1,note_on,73,28,120
1,note_on,76,33,0
1,note_on,76,0,120
1,note_on,73,0,0
1,note_on,75,28,120
1,note_on,78,33,0
1,note_on,78,0,120
1,note_on,75,0,0
1,note_on,79,34,120
1,note_on,76,29,0
1,note_on,76,0,120
1,note_on,79,0,0
1,note_on,70,29,60
1,note_on,73,29,30
1,note_on,78,35,30
1,note_on,78,0,120
1,note_on,73,0,0
1,note_on,70,0,0
1,note_on,85,34,360
1,note_on,85,0,120
1,note_on,78,34,120
1,note_on,82,34,0
1,note_on,90,41,0
1,note_on,90,0,720
1,note_on,82,0,0
1,note_on,78,0,0
1,note_on,66,30,0
1,note_on,70,35,0
1,note_on,70,0,120
1,note_on,66,0,0
1,note_on,85,32,360
1,note_on,85,0,120
1,note_on,90,38,120
1,note_on,82,31,0
1,note_on,78,31,0
1,note_on,78,0,720
1,note_on,82,0,0
1,note_on,90,0,0
1,note_on,66,26,0
1,note_on,70,30,0
1,note_on,70,0,120
1,note_on,66,0,0
1,note_on,85,28,360
1,note_on,85,0,120
1,note_on,78,27,120
1,note_on,82,27,0
1,note_on,90,33,0
1,note_on,90,0,2160
1,note_on,82,0,0
1,note_on,78,0,0
1,note_on,61,62,240
1,note_on,73,73,0
1,note_on,73,0,120
1,note_on,61,0,0
1,note_on,63,64,120
1,note_on,75,76,0
1,note_on,75,0,120
1,note_on,63,0,0
1,note_on,77,79,120
1,note_on,65,67,0
1,note_on,65,0,120
1,note_on,77,0,0
1,note_on,66,69,120
1,note_on,78,82,0
1,note_on,78,0,120
1,note_on,66,0,0
1,note_on,80,85,120
1,note_on,68,85,0
1,note_on,68,0,120
1,note_on,80,0,0
1,note_on,82,88,120
1,note_on,70,74,0
1,note_on,73,74,0
1,note_on,78,74,0
1,note_on,78,0,120
1,note_on,82,0,0
1,note_on,70,0,0
1,note_on,73,0,0
1,note_on,73,74,360
1,note_on,85,88,0
1,note_on,85,0,120
1,note_on,73,0,0
1,note_on,78,80,120
1,note_on,90,95,0
1,note_on,90,0,120
1,note_on,78,0,0
1,note_on,59,87,600
1,note_on,59,0,240
1,note_on,85,72,480
1,note_on,97,86,0
1,note_on,93,72,0
1,note_on,93,0,720
1,note_on,97,0,0
1,note_on,85,0,0
1,note_on,95,83,0
1,note_on,83,71,0
1,note_on,92,83,0
1,note_on,92,0,720
1,note_on,83,0,0
1,note_on,95,0,0
1,note_on,92,86,0
1,note_on,88,72,0
1,note_on,80,72,0
1,note_on,80,0,720
1,note_on,88,0,0
1,note_on,92,0,0
1,note_on,81,64,0
1,note_on,90,64,0
1,note_on,93,77,0
1,note_on,93,0,120
1,note_on,90,0,0
1,note_on,81,0,0
1,note_on,87,57,120
1,note_on,90,68,0
1,note_on,78,57,0
1,note_on,78,0,120
1,note_on,90,0,0
1,note_on,87,0,0
1,note_on,80,60,120
1,note_on,92,77,0
1,note_on,88,59,0
1,note_on,88,0,120
1,note_on,92,0,0
1,note_on,80,0,0
1,note_on,76,58,120
1,note_on,85,58,0
1,note_on,88,69,0
1,note_on,88,0,120
1,note_on,85,0,0
1,note_on,76,0,0
1,note_on,87,64,120
1,note_on,90,77,0
1,note_on,78,64,0
1,note_on,78,0,120
1,note_on,90,0,0
1,note_on,87,0,0
1,note_on,75,59,120
1,note_on,83,59,0
1,note_on,87,70,0
1,note_on,87,0,120
1,note_on,83,0,0
1,note_on,75,0,0
1,note_on,85,64,120
1,note_on,88,77,0
1,note_on,76,64,0
1,note_on,76,0,120
1,note_on,88,0,0
1,note_on,85,0,0
1,note_on,88,75,360
1,note_on,85,63,0
1,note_on,76,63,0
1,note_on,76,0,120
1,note_on,85,0,0
1,note_on,88,0,0
1,note_on,73,64,120
1,note_on,81,64,0
1,note_on,85,77,0
1,note_on,85,0,720
1,note_on,81,0,0
1,note_on,73,0,0
1,note_on,71,47,240
1,note_on,83,56,0
1,note_on,83,0,120
1,note_on,71,0,0
1,note_on,75,49,120
1,note_on,87,58,0
1,note_on,87,0,120
1,note_on,75,0,0
1,note_on,88,60,120
1,note_on,76,51,0
1,note_on,76,0,120
1,note_on,88,0,0
1,note_on,78,52,120
1,note_on,90,62,0
1,note_on,90,0,120
1,note_on,78,0,0
1,note_on,92,64,120
1,note_on,80,54,0
1,note_on,80,0,120
1,note_on,92,0,0
1,note_on,83,60,60
1,note_on,88,60,30
1,note_on,95,70,30
1,note_on,95,0,120
1,note_on,88,0,0
1,note_on,83,0,0
1,note_on,81,49,360
1,note_on,93,58,0
1,note_on,93,0,120
1,note_on,81,0,0
1,note_on,88,57,120
1,note_on,76,48,0
1,note_on,76,0,720
1,note_on,88,0,0
1,note_on,85,58,240
1,note_on,73,48,0
1,note_on,73,0,120
1,note_on,85,0,0
1,note_on,75,53,120
1,note_on,87,63,0
1,note_on,87,0,120
1,note_on,75,0,0
1,note_on,76,57,120
1,note_on,88,67,0
1,note_on,88,0,120
1,note_on,76,0,0
1,note_on,90,73,120
1,note_on,78,61,0
1,note_on,78,0,120
1,note_on,90,0,0
1,note_on,80,65,120
1,note_on,92,78,0
1,note_on,92,0,120
1,note_on,80,0,0
1,note_on,83,75,60
1,note_on,87,75,30
1,note_on,95,87,30
1,note_on,95,0,120
1,note_on,87,0,0
1,note_on,83,0,0
1,note_on,93,69,360
1,note_on,81,58,0
1,note_on,81,0,120
1,note_on,93,0,0
1,note_on,75,56,120
1,note_on,87,67,0
1,note_on,87,0,720
1,note_on,75,0,0
1,note_on,52,91,0
1,note_on,52,0,240
1,note_on,89,78,240
1,note_on,77,64,0
1,note_on,86,64,0
1,note_on,86,0,240
1,note_on,77,0,0
1,note_on,89,0,0
1,note_on,88,75,0
1,note_on,76,75,0
1,note_on,84,75,0
1,note_on,84,0,480
1,note_on,76,0,0
1,note_on,88,0,0
1,note_on,81,64,0
1,note_on,72,64,0
1,note_on,84,78,0
1,note_on,84,0,240
1,note_on,72,0,0
1,note_on,81,0,0
1,note_on,83,59,0
1,note_on,74,59,0
1,note_on,86,70,0
1,note_on,86,0,120
1,note_on,74,0,0
1,note_on,83,0,0
1,note_on,83,62,120
1,note_on,71,52,0
1,note_on,80,52,0
1,note_on,80,0,120
1,note_on,71,0,0
1,note_on,83,0,0
1,note_on,72,55,120
1,note_on,81,54,0
1,note_on,84,70,0
1,note_on,84,0,120
1,note_on,81,0,0
1,note_on,72,0,0
1,note_on,78,53,120
1,note_on,69,53,0
1,note_on,81,63,0
1,note_on,81,0,120
1,note_on,69,0,0
1,note_on,78,0,0
1,note_on,71,59,120
1,note_on,83,70,0
1,note_on,80,59,0
1,note_on,80,0,120
1,note_on,83,0,0
1,note_on,71,0,0
1,note_on,68,54,120
1,note_on,76,54,0
1,note_on,80,64,0
1,note_on,80,0,120
1,note_on,76,0,0
1,note_on,68,0,0
1,note_on,82,70,120
1,note_on,70,59,0
1,note_on,76,59,0
1,note_on,76,0,120
1,note_on,70,0,0
1,note_on,82,0,0
1,note_on,79,64,360
1,note_on,88,64,0
1,note_on,91,78,0
1,note_on,91,0,240
1,note_on,88,0,0
1,note_on,79,0,0
1,note_on,78,75,0
1,note_on,90,75,0
1,note_on,87,75,0
1,note_on,87,0,480
1,note_on,90,0,0
1,note_on,78,0,0
1,note_on,83,64,0
1,note_on,75,64,0
1,note_on,87,78,0
1,note_on,87,0,240
1,note_on,75,0,0
1,note_on,83,0,0
1,note_on,88,70,0
1,note_on,85,59,0
1,note_on,76,59,0
1,note_on,76,0,120
1,note_on,85,0,0
1,note_on,88,0,0
1,note_on,73,52,120
1,note_on,82,52,0
1,note_on,85,62,0
1,note_on,85,0,120
1,note_on,82,0,0
1,note_on,73,0,0
1,note_on,83,54,120
1,note_on,75,55,0
1,note_on,87,70,0
1,note_on,87,0,120
1,note_on,75,0,0
1,note_on,83,0,0
1,note_on,80,53,120
1,note_on,83,63,0
1,note_on,71,53,0
1,note_on,71,0,120
1,note_on,83,0,0
1,note_on,80,0,0
1,note_on,72,59,120
1,note_on,84,70,0
1,note_on,81,59,0
1,note_on,81,0,120
1,note_on,84,0,0
1,note_on,72,0,0
1,note_on,69,54,120
1,note_on,81,64,0
1,note_on,78,54,0
1,note_on,78,0,120
1,note_on,81,0,0
1,note_on,69,0,0
1,note_on,83,70,120
1,note_on,71,59,0
1,note_on,78,59,0
1,note_on,78,0,120
1,note_on,71,0,0
1,note_on,83,0,0
1,note_on,84,64,360
1,note_on,96,78,0
1,note_on,93,64,0
1,note_on,93,0,240
1,note_on,96,0,0
1,note_on,84,0,0
1,note_on,95,75,0
1,note_on,83,75,0
1,note_on,91,75,0
1,note_on,91,0,480
1,note_on,83,0,0
1,note_on,95,0,0
1,note_on,91,78,0
1,note_on,79,64,0
1,note_on,88,64,0
1,note_on,88,0,240
1,note_on,79,0,0
1,note_on,91,0,0
1,note_on,93,70,0
1,note_on,90,59,0
1,note_on,81,59,0
1,note_on,81,0,120
1,note_on,90,0,0
1,note_on,93,0,0
1,note_on,87,52,120
1,note_on,90,62,0
1,note_on,78,52,0
1,note_on,78,0,120
1,note_on,90,0,0
1,note_on,87,0,0
1,note_on,79,55,120
1,note_on,91,70,0
1,note_on,88,55,0
1,note_on,88,0,120
1,note_on,91,0,0
1,note_on,79,0,0
1,note_on,76,53,120
1,note_on,84,53,0
1,note_on,88,63,0
1,note_on,88,0,120
1,note_on,84,0,0
1,note_on,76,0,0
1,note_on,78,59,120
1,note_on,86,59,0
1,note_on,90,70,0
1,note_on,90,0,120
1,note_on,86,0,0
1,note_on,78,0,0
1,note_on,74,54,120
1,note_on,83,54,0
1,note_on,86,64,0
1,note_on,86,0,120
1,note_on,83,0,0
1,note_on,74,0,0
1,note_on,76,59,120
1,note_on,88,70,0
1,note_on,84,59,0
1,note_on,84,0,120
1,note_on,88,0,0
1,note_on,76,0,0
1,note_on,84,62,120
1,note_on,81,52,0
1,note_on,72,52,0
1,note_on,72,0,120
1,note_on,81,0,0
1,note_on,84,0,0
1,note_on,83,55,120
1,note_on,86,70,0
1,note_on,74,55,0
1,note_on,74,0,120
1,note_on,86,0,0
1,note_on,83,0,0
1,note_on,79,53,120
1,note_on,71,53,0
1,note_on,83,63,0
1,note_on,83,0,120
1,note_on,71,0,0
1,note_on,79,0,0
1,note_on,72,59,120
1,note_on,84,70,0
1,note_on,81,59,0
1,note_on,81,0,120
1,note_on,84,0,0
1,note_on,72,0,0
1,note_on,78,54,120
1,note_on,81,64,0
1,note_on,69,54,0
1,note_on,69,0,120
1,note_on,81,0,0
1,note_on,78,0,0
1,note_on,83,70,120
1,note_on,79,59,0
1,note_on,71,59,0
1,note_on,71,0,120
1,note_on,79,0,0
1,note_on,83,0,0
1,note_on,67,53,120
1,note_on,79,63,0
1,note_on,76,53,0
1,note_on,76,0,120
1,note_on,79,0,0
1,note_on,67,0,0
1,note_on,69,57,120
1,note_on,78,57,0
1,note_on,81,73,0
1,note_on,81,0,120
1,note_on,78,0,0
1,note_on,69,0,0
1,note_on,78,68,120
1,note_on,66,57,0
1,note_on,75,57,0
1,note_on,75,0,120
1,note_on,66,0,0
1,note_on,78,0,0
1,note_on,76,65,120
1,note_on,79,77,0
1,note_on,67,65,0
1,note_on,67,0,120
1,note_on,79,0,0
1,note_on,76,0,0
1,note_on,76,72,120
1,note_on,72,61,0
1,note_on,64,61,0
1,note_on,64,0,120
1,note_on,72,0,0
1,note_on,76,0,0
1,note_on,92,90,120
1,note_on,88,76,0
1,note_on,80,76,0
1,note_on,80,0,456
1,note_on,88,0,0
1,note_on,92,0,0
1,note_on,79,76,24
1,note_on,88,76,0
1,note_on,91,90,0
1,note_on,91,0,456
1,note_on,88,0,0
1,note_on,79,0,0
1,note_on,87,76,24
1,note_on,90,90,0
1,note_on,78,76,0
1,note_on,78,0,456
1,note_on,90,0,0
1,note_on,87,0,0
1,note_on,77,76,24
1,note_on,89,90,0
1,note_on,86,76,0
1,note_on,86,0,456
1,note_on,89,0,0
1,note_on,77,0,0
1,note_on,85,75,24
1,note_on,88,89,0
1,note_on,76,75,0
1,note_on,76,0,456
1,note_on,88,0,0
1,note_on,85,0,0
1,note_on,87,87,24
1,note_on,75,73,0
1,note_on,84,73,0
1,note_on,84,0,456
1,note_on,75,0,0
1,note_on,87,0,0
1,note_on,86,85,24
1,note_on,74,72,0
1,note_on,83,72,0
1,note_on,83,0,456
1,note_on,74,0,0
1,note_on,86,0,0
1,note_on,73,71,24
1,note_on,85,84,0
1,note_on,82,71,0
1,note_on,82,0,456
1,note_on,85,0,0
1,note_on,73,0,0
1,note_on,84,82,24
1,note_on,81,69,0
1,note_on,72,69,0
1,note_on,72,0,456
1,note_on,81,0,0
1,note_on,84,0,0
1,note_on,71,68,24
1,note_on,80,68,0
1,note_on,83,81,0
1,note_on,83,0,456
1,note_on,80,0,0
1,note_on,71,0,0
1,note_on,79,67,24
1,note_on,83,80,0
1,note_on,71,67,0
1,note_on,71,0,366
1,note_on,83,0,0
1,note_on,79,0,0
1,note_on,83,78,114
1,note_on,75,66,0
1,note_on,71,66,0
1,note_on,78,66,0
1,note_on,78,0,456
1,note_on,83,0,0
1,note_on,75,0,0
1,note_on,71,0,0
1,note_on,64,59,24
1,note_on,76,70,0
1,note_on,76,0,120
1,note_on,64,0,0
1,note_on,74,62,120
1,note_on,71,52,0
1,note_on,71,0,120
1,note_on,74,0,0
1,note_on,76,70,120
1,note_on,64,55,0
1,note_on,64,0,120
1,note_on,76,0,0
1,note_on,69,53,120
1,note_on,72,63,0
1,note_on,72,0,120
1,note_on,69,0,0
1,note_on,76,70,120
1,note_on,64,59,0
1,note_on,64,0,120
1,note_on,76,0,0
1,note_on,71,64,120
1,note_on,67,54,0
1,note_on,67,0,120
1,note_on,71,0,0
1,note_on,64,59,120
1,note_on,76,70,0
1,note_on,76,0,120
1,note_on,64,0,0
1,note_on,69,62,120
1,note_on,66,52,0
1,note_on,66,0,120
1,note_on,69,0,0
1,note_on,76,70,120
1,note_on,64,55,0
1,note_on,64,0,120
1,note_on,76,0,0
1,note_on,67,63,120
1,note_on,67,0,120
1,note_on,76,70,120
1,note_on,64,59,0
1,note_on,64,0,120
1,note_on,76,0,0
1,note_on,62,54,120
1,note_on,66,64,0
1,note_on,66,0,120
1,note_on,62,0,0
1,note_on,64,59,120
1,note_on,76,70,0
1,note_on,76,0,120
1,note_on,64,0,0
1,note_on,64,61,120
1,note_on,60,51,0
1,note_on,60,0,120
1,note_on,64,0,0
1,note_on,76,68,120
1,note_on,64,53,0
1,note_on,64,0,120
1,note_on,76,0,0
1,note_on,62,61,120
1,note_on,59,51,0
1,note_on,59,0,120
1,note_on,62,0,0
1,note_on,76,66,120
1,note_on,64,56,0
1,note_on,64,0,120
1,note_on,76,0,0
1,note_on,57,50,120
1,note_on,60,60,0
1,note_on,60,0,120
1,note_on,57,0,0
1,note_on,64,54,120
1,note_on,76,65,0
1,note_on,76,0,120
1,note_on,64,0,0
1,note_on,59,57,120
1,note_on,55,47,0
1,note_on,55,0,120
1,note_on,59,0,0
1,note_on,64,49,120
1,note_on,76,63,0
1,note_on,76,0,120
1,note_on,64,0,0
1,note_on,54,47,120
1,note_on,57,56,0
1,note_on,57,0,120
1,note_on,54,0,0
1,note_on,76,61,120
1,note_on,64,51,0
1,note_on,64,0,120
1,note_on,76,0,0
1,note_on,57,55,120
1,note_on,53,46,0
1,note_on,53,0,120
1,note_on,57,0,0
1,note_on,55,61,120
1,note_on,52,51,0
1,note_on,52,0,120
1,note_on,55,0,0
1,note_on,52,51,120
1,note_on,55,61,0
1,note_on,55,0,120
1,note_on,52,0,0
1,note_on,52,51,120
1,note_on,55,61,0
1,note_on,55,0,120
1,note_on,52,0,0
1,note_on,57,67,120
1,note_on,53,56,0
1,note_on,53,0,720
1,note_on,57,0,0
1,note_on,52,51,0
1,note_on,55,61,0
1,note_on,55,0,120
1,note_on,52,0,0
1,note_on,52,51,120
1,note_on,55,61,0
1,note_on,55,0,120
1,note_on,52,0,0
1,note_on,55,61,120
1,note_on,52,51,0
1,note_on,52,0,120
1,note_on,55,0,0
1,note_on,60,61,120
1,note_on,69,61,0
1,note_on,57,61,0
1,note_on,57,0,720
1,note_on,69,0,0
1,note_on,60,0,0
1,note_on,55,61,0
1,note_on,52,51,0
1,note_on,52,0,120
1,note_on,55,0,0
1,note_on,52,51,120
1,note_on,55,61,0
1,note_on,55,0,120
1,note_on,52,0,0
1,note_on,52,51,120
1,note_on,55,61,0
1,note_on,55,0,120
1,note_on,52,0,0
1,note_on,72,77,120
1,note_on,76,77,0
1,note_on,79,77,0
1,note_on,84,99,0
1,note_on,84,0,960
1,note_on,72,0,0
1,note_on,76,0,0
1,note_on,79,0,0
1,note_on,52,79,480
1,note_on,55,95,0
1,note_on,55,0,120
1,note_on,52,0,0
1,note_on,55,95,600
1,note_on,52,79,0
1,note_on,52,0,120
1,note_on,55,0,0
1,note_on,52,79,593
1,note_on,55,95,0
1,note_on,55,0,120
1,note_on,52,0,0
1,note_on,89,84,607
1,note_on,101,101,0
1,note_on,96,84,0
1,note_on,93,84,0
1,note_on,93,0,1680
1,note_on,89,0,0
1,note_on,101,0,0
1,note_on,96,0,0
1,note_on,96,70,120
1,note_on,84,59,0
1,note_on,84,0,120
1,note_on,96,0,0
1,note_on,93,71,120
1,note_on,81,60,0
1,note_on,81,0,120
1,note_on,93,0,0
1,note_on,77,61,120
1,note_on,89,72,0
1,note_on,89,0,120
1,note_on,77,0,0
1,note_on,84,69,120
1,note_on,72,58,0
1,note_on,72,0,120
1,note_on,84,0,0
1,note_on,81,70,120
1,note_on,69,59,0
1,note_on,69,0,120
1,note_on,81,0,0
1,note_on,65,65,120
1,note_on,77,77,0
1,note_on,77,0,120
1,note_on,65,0,0
1,note_on,60,62,120
1,note_on,72,74,0
1,note_on,72,0,120
1,note_on,60,0,0
1,note_on,57,63,120
1,note_on,69,75,0
1,note_on,69,0,120
1,note_on,57,0,0
1,note_on,65,83,120
1,note_on,53,70,0
1,note_on,53,0,120
1,note_on,65,0,0
1,note_on,48,65,120
1,note_on,60,77,0
1,note_on,60,0,120
1,note_on,48,0,0
1,note_on,50,66,120
1,note_on,62,78,0
1,note_on,62,0,120
1,note_on,50,0,0
1,note_on,48,68,0
1,note_on,55,68,0
1,note_on,60,80,0
1,note_on,52,68,0
1,note_on,52,0,120
1,note_on,48,0,0
1,note_on,55,0,0
1,note_on,60,0,0
1,note_on,55,68,1320
1,note_on,52,68,0
1,note_on,60,80,0
1,note_on,48,68,0
1,note_on,48,0,120
1,note_on,55,0,0
1,note_on,52,0,0
1,note_on,60,0,0
1,note_on,52,68,1320
1,note_on,55,68,0
1,note_on,60,80,0
1,note_on,48,68,0
1,note_on,48,0,120
1,note_on,52,0,0
1,note_on,55,0,0
1,note_on,60,0,0
2,note_on,40,61,0
2,note_on,28,51,0
2,note_on,28,0,240
2,note_on,40,0,0
2,note_on,52,47,480
2,note_on,59,47,0
2,note_on,62,56,0
2,note_on,62,0,720
2,note_on,59,0,0
2,note_on,60,56,0
2,note_on,57,47,0
2,note_on,57,0,720
2,note_on,60,0,0
2,note_on,57,56,0
2,note_on,54,47,0
2,note_on,54,0,720
2,note_on,57,0,0
2,note_on,59,56,0
2,note_on,55,47,0
2,note_on,55,0,120
2,note_on,59,0,0
2,note_on,52,0,100
2,note_on,55,52,20
2,note_on,52,44,0
2,note_on,52,0,120
2,note_on,55,0,0
2,note_on,57,56,120
2,note_on,54,47,0
2,note_on,54,0,120
2,note_on,57,0,0
2,note_on,51,42,120
2,note_on,54,50,0
2,note_on,54,0,120
2,note_on,51,0,0
2,note_on,52,47,120
2,note_on,55,56,0
2,note_on,55,0,120
2,note_on,52,0,0
2,note_on,52,52,120
2,note_on,49,44,0
2,note_on,49,0,120
2,note_on,52,0,0
2,note_on,51,47,120
2,note_on,54,56,0
2,note_on,54,0,120
2,note_on,51,0,0
2,note_on,59,68,600
2,note_on,47,55,0
2,note_on,47,0,960
2,note_on,59,0,0
2,note_on,49,49,0
2,note_on,49,0,120
2,note_on,51,50,120
2,note_on,51,0,120
2,note_on,52,52,120
2,note_on,52,0,120
2,note_on,54,53,120
2,note_on,54,0,120
2,note_on,55,54,120
2,note_on,55,0,120
2,note_on,51,47,120
2,note_on,54,56,0
2,note_on,54,0,120
2,note_on,51,0,0
2,note_on,47,55,600
2,note_on,59,68,0
2,note_on,59,0,960
2,note_on,47,0,0
2,note_on,49,49,0
2,note_on,49,0,120
2,note_on,51,50,120
2,note_on,51,0,120
2,note_on,52,52,120
2,note_on,52,0,120
2,note_on,54,53,120
2,note_on,54,0,120
2,note_on,55,54,120
2,note_on,55,0,120
2,note_on,54,47,120
2,note_on,57,56,0
2,note_on,57,0,120
2,note_on,54,0,0
2,note_on,50,55,600
2,note_on,62,68,0
2,note_on,62,0,480
2,note_on,50,0,0
2,note_on,31,51,240
2,note_on,43,61,0
2,note_on,43,0,240
2,note_on,31,0,0
2,note_on,69,56,480
2,note_on,65,47,0
2,note_on,55,47,0
2,note_on,65,0,720
2,note_on,69,0,0
2,note_on,64,47,0
2,note_on,67,56,0
2,note_on,67,0,720
2,note_on,64,0,0
2,note_on,60,47,0
2,note_on,64,56,0
2,note_on,64,0,720
2,note_on,60,0,0
2,note_on,65,56,0
2,note_on,62,47,0
2,note_on,62,0,120
2,note_on,65,0,0
2,note_on,55,0,100
2,note_on,59,44,20
2,note_on,62,52,0
2,note_on,62,0,120
2,note_on,59,0,0
2,note_on,60,47,120
2,note_on,64,56,0
2,note_on,64,0,120
2,note_on,60,0,0
2,note_on,60,50,120
2,note_on,57,42,0
2,note_on,57,0,120
2,note_on,60,0,0
2,note_on,59,47,120
2,note_on,62,56,0
2,note_on,62,0,120
2,note_on,59,0,0
2,note_on,59,52,120
2,note_on,55,44,0
2,note_on,55,0,120
2,note_on,59,0,0
2,note_on,57,47,120
2,note_on,60,56,0
2,note_on,60,0,120
2,note_on,57,0,0
2,note_on,60,53,360
2,note_on,57,44,0
2,note_on,57,0,120
2,note_on,60,0,0
2,note_on,57,68,120
2,note_on,53,55,0
2,note_on,53,0,720
2,note_on,57,0,0
2,note_on,40,40,0
2,note_on,52,46,0
2,note_on,52,0,480
2,note_on,40,0,0
2,note_on,55,34,240
2,note_on,60,39,0
2,note_on,52,34,0
2,note_on,52,0,480
2,note_on,60,0,0
2,note_on,55,0,0
2,note_on,50,46,240
2,note_on,38,40,0
2,note_on,38,0,480
2,note_on,50,0,0
2,note_on,50,34,240
2,note_on,53,34,0
2,note_on,57,34,0
2,note_on,60,39,0
2,note_on,60,0,480
2,note_on,50,0,0
2,note_on,53,0,0
2,note_on,57,0,0
2,note_on,48,46,240
2,note_on,36,40,0
2,note_on,36,0,480
2,note_on,48,0,0
2,note_on,48,38,240
2,note_on,52,38,0
2,note_on,60,44,0
2,note_on,57,38,0
2,note_on,57,0,480
2,note_on,48,0,0
2,note_on,52,0,0
2,note_on,60,0,0
2,note_on,47,57,240
2,note_on,35,50,0
2,note_on,35,0,480
2,note_on,47,0,0
2,note_on,59,40,240
2,note_on,54,40,0
2,note_on,63,46,0
2,note_on,63,0,480
2,note_on,54,0,0
2,note_on,59,0,0
2,note_on,28,51,240
2,note_on,40,61,0
2,note_on,40,0,240
2,note_on,28,0,0
2,note_on,62,56,480
2,note_on,59,47,0
2,note_on,52,47,0
2,note_on,59,0,720
2,note_on,62,0,0
2,note_on,57,47,0
2,note_on,60,56,0
2,note_on,60,0,720
2,note_on,57,0,0
2,note_on,57,56,0
2,note_on,54,47,0
2,note_on,54,0,720
2,note_on,57,0,0
2,note_on,59,56,0
2,note_on,55,47,0
2,note_on,55,0,120
2,note_on,59,0,0
2,note_on,52,0,100
2,note_on,52,44,20
2,note_on,55,52,0
2,note_on,55,0,120
2,note_on,52,0,0
2,note_on,54,47,120
2,note_on,57,56,0
2,note_on,57,0,120
2,note_on,54,0,0
2,note_on,54,50,120
2,note_on,51,42,0
2,note_on,51,0,120
2,note_on,54,0,0
2,note_on,55,56,120
2,note_on,52,47,0
2,note_on,52,0,120
2,note_on,55,0,0
2,note_on,49,44,120
2,note_on,52,52,0
2,note_on,52,0,120
2,note_on,49,0,0
2,note_on,54,56,120
2,note_on,51,47,0
2,note_on,51,0,120
2,note_on,54,0,0
2,note_on,47,55,600
2,note_on,59,68,0
2,note_on,59,0,960
2,note_on,47,0,0
2,note_on,49,49,0
2,note_on,49,0,120
2,note_on,51,50,120
2,note_on,51,0,120
2,note_on,52,52,120
2,note_on,52,0,120
2,note_on,54,53,120
2,note_on,54,0,120
2,note_on,55,54,120
2,note_on,55,0,120
2,note_on,54,56,120
2,note_on,51,47,0
2,note_on,51,0,120
2,note_on,54,0,0
2,note_on,47,55,600
2,note_on,59,68,0
2,note_on,59,0,960
2,note_on,47,0,0
2,note_on,49,49,0
2,note_on,49,0,120
2,note_on,51,50,120
2,note_on,51,0,120
2,note_on,52,52,120
2,note_on,52,0,120
2,note_on,54,53,120
2,note_on,54,0,120
2,note_on,55,54,120
2,note_on,55,0,120
2,note_on,54,47,120
2,note_on,57,56,0
2,note_on,57,0,120
2,note_on,54,0,0
2,note_on,62,68,600
2,note_on,50,55,0
2,note_on,50,0,480
2,note_on,62,0,0
2,note_on,31,51,240
2,note_on,43,61,0
2,note_on,43,0,240
2,note_on,31,0,0
2,note_on,55,47,480
2,note_on,69,56,0
2,note_on,65,47,0
2,note_on,65,0,720
2,note_on,69,0,0
2,note_on,64,47,0
2,note_on,67,56,0
2,note_on,67,0,720
2,note_on,64,0,0
2,note_on,64,56,0
2,note_on,60,47,0
2,note_on,60,0,720
2,note_on,64,0,0
2,note_on,62,47,0
2,note_on,65,56,0
2,note_on,65,0,120
2,note_on,62,0,0
2,note_on,55,0,100
2,note_on,62,52,20
2,note_on,59,44,0
2,note_on,59,0,120
2,note_on,62,0,0
2,note_on,60,47,120
2,note_on,64,56,0
2,note_on,64,0,120
2,note_on,60,0,0
2,note_on,57,42,120
2,note_on,60,50,0
2,note_on,60,0,120
2,note_on,57,0,0
2,note_on,59,47,120
2,note_on,62,56,0
2,note_on,62,0,120
2,note_on,59,0,0
2,note_on,59,52,120
2,note_on,55,44,0
2,note_on,55,0,120
2,note_on,59,0,0
2,note_on,57,47,120
2,note_on,60,56,0
2,note_on,60,0,120
2,note_on,57,0,0
2,note_on,57,44,360
2,note_on,60,53,0
2,note_on,60,0,120
2,note_on,57,0,0
2,note_on,53,55,120
2,note_on,57,68,0
2,note_on,57,0,720
2,note_on,53,0,0
2,note_on,40,40,0
2,note_on,52,46,0
2,note_on,52,0,480
2,note_on,40,0,0
2,note_on,55,34,240
2,note_on,60,39,0
2,note_on,52,34,0
2,note_on,52,0,480
2,note_on,60,0,0
2,note_on,55,0,0
2,note_on,50,46,240
2,note_on,38,40,0
2,note_on,38,0,480
2,note_on,50,0,0
2,note_on,53,34,240
2,note_on,57,34,0
2,note_on,50,34,0
2,note_on,60,39,0
2,note_on,60,0,480
2,note_on,53,0,0
2,note_on,57,0,0
2,note_on,50,0,0
2,note_on,36,40,240
2,note_on,48,46,0
2,note_on,48,0,480
2,note_on,36,0,0
2,note_on,57,38,240
2,note_on,52,38,0
2,note_on,48,38,0
2,note_on,60,44,0
2,note_on,60,0,480
2,note_on,57,0,0
2,note_on,52,0,0
2,note_on,48,0,0
2,note_on,47,57,240
2,note_on,35,50,0
2,note_on,35,0,480
2,note_on,47,0,0
2,note_on,54,40,240
2,note_on,63,46,0
2,note_on,59,40,0
2,note_on,59,0,480
2,note_on,63,0,0
2,note_on,54,0,0
2,note_on,24,51,240
2,note_on,36,61,0
2,note_on,36,0,240
2,note_on,24,0,0
2,note_on,36,44,480
2,note_on,46,53,0
2,note_on,43,44,0
2,note_on,43,0,720
2,note_on,46,0,0
2,note_on,45,53,0
2,note_on,41,44,0
2,note_on,41,0,720
2,note_on,45,0,0
2,note_on,41,53,0
2,note_on,38,44,0
2,note_on,36,0,480
2,note_on,38,0,240
2,note_on,41,0,0
2,note_on,40,44,0
2,note_on,43,53,0
2,note_on,43,0,120
2,note_on,40,0,0
2,note_on,37,49,120
2,note_on,37,0,120
2,note_on,38,53,120
2,note_on,38,0,120
2,note_on,35,47,120
2,note_on,35,0,120
2,note_on,37,53,120
2,note_on,37,0,120
2,note_on,33,49,120
2,note_on,33,0,120
2,note_on,38,53,120
2,note_on,38,0,120
2,note_on,38,64,600
2,note_on,26,52,0
2,note_on,26,0,720
2,note_on,38,0,0
2,note_on,39,61,0
2,note_on,27,51,0
2,note_on,27,0,240
2,note_on,39,0,0
2,note_on,46,44,480
2,note_on,39,44,0
2,note_on,49,53,0
2,note_on,49,0,720
2,note_on,46,0,0
2,note_on,48,53,0
2,note_on,44,44,0
2,note_on,44,0,720
2,note_on,48,0,0
2,note_on,44,53,0
2,note_on,41,44,0
2,note_on,39,0,480
2,note_on,41,0,240
2,note_on,44,0,0
2,note_on,46,53,0
2,note_on,43,44,0
2,note_on,43,0,120
2,note_on,46,0,0
2,note_on,40,49,120
2,note_on,40,0,120
2,note_on,41,53,120
2,note_on,41,0,120
2,note_on,38,47,120
2,note_on,38,0,120
2,note_on,40,53,120
2,note_on,40,0,120
2,note_on,36,49,120
2,note_on,36,0,120
2,note_on,41,53,120
2,note_on,41,0,120
2,note_on,41,64,600
2,note_on,29,52,0
2,note_on,29,0,720
2,note_on,41,0,0
2,note_on,42,61,0
2,note_on,30,51,0
2,note_on,30,0,240
2,note_on,42,0,0
2,note_on,54,50,480
2,note_on,61,50,0
2,note_on,64,60,0
2,note_on,64,0,720
2,note_on,61,0,0
2,note_on,63,60,0
2,note_on,59,50,0
2,note_on,59,0,720
2,note_on,63,0,0
2,note_on,59,60,0
2,note_on,56,50,0
2,note_on,54,0,480
2,note_on,56,0,240
2,note_on,59,0,0
2,note_on,42,36,0
2,note_on,55,31,720
2,note_on,55,0,720
2,note_on,54,31,0
2,note_on,54,0,720
2,note_on,50,31,0
2,note_on,50,0,720
2,note_on,42,0,0
2,note_on,30,61,0
2,note_on,42,73,13
2,note_on,30,0,227
2,note_on,42,0,13
2,note_on,54,39,227
2,note_on,61,48,0
2,note_on,64,58,0
2,note_on,64,0,240
2,note_on,61,0,0
2,note_on,63,58,0
2,note_on,59,48,0
2,note_on,59,0,480
2,note_on,63,0,0
2,note_on,59,58,0
2,note_on,56,48,0
2,note_on,54,0,230
2,note_on,56,0,10
2,note_on,59,0,0
2,note_on,54,73,0
2,note_on,64,48,480
2,note_on,68,58,0
2,note_on,68,0,240
2,note_on,64,0,0
2,note_on,66,58,0
2,note_on,63,48,0
2,note_on,63,0,480
2,note_on,66,0,0
2,note_on,63,58,0
2,note_on,59,48,0
2,note_on,59,0,240
2,note_on,63,0,0
2,note_on,54,0,0
2,note_on,42,44,0
2,note_on,55,31,480
2,note_on,55,0,240
2,note_on,54,31,0
2,note_on,54,0,480
2,note_on,50,31,0
2,note_on,50,0,240
2,note_on,42,0,0
2,note_on,42,36,0
2,note_on,52,31,480
2,note_on,52,0,240
2,note_on,50,27,0
2,note_on,50,0,480
2,note_on,47,29,0
2,note_on,47,0,240
2,note_on,42,0,0
2,note_on,42,33,0
2,note_on,42,0,120
2,note_on,35,27,120
2,note_on,35,0,120
2,note_on,42,32,120
2,note_on,42,0,120
2,note_on,35,26,120
2,note_on,35,0,120
2,note_on,42,31,120
2,note_on,42,0,120
2,note_on,35,27,120
2,note_on,35,0,120
2,note_on,42,29,120
2,note_on,42,0,120
2,note_on,35,26,120
2,note_on,35,0,120
2,note_on,42,31,120
2,note_on,42,0,120
2,note_on,42,32,840
2,note_on,42,0,120
2,note_on,35,25,120
2,note_on,35,0,120
2,note_on,42,29,120
2,note_on,42,0,120
2,note_on,42,32,840
2,note_on,42,0,120
2,note_on,35,24,120
2,note_on,35,0,120
2,note_on,42,30,120
2,note_on,42,0,120
2,note_on,42,33,840
2,note_on,42,0,120
2,note_on,35,27,120
2,note_on,35,0,120
2,note_on,42,32,120
2,note_on,42,0,120
2,note_on,42,32,840
2,note_on,42,0,120
2,note_on,35,28,120
2,note_on,35,0,120
2,note_on,42,34,120
2,note_on,42,0,120
2,note_on,42,37,840
2,note_on,42,0,120
2,note_on,35,30,120
2,note_on,35,0,120
2,note_on,42,39,120
2,note_on,42,0,120
2,note_on,35,45,840
2,note_on,35,0,120
2,note_on,42,35,120
2,note_on,42,0,120
2,note_on,35,45,120
2,note_on,35,0,120
2,note_on,42,41,120
2,note_on,42,0,120
2,note_on,35,51,600
2,note_on,35,0,120
2,note_on,42,39,120
2,note_on,42,0,120
2,note_on,35,51,120
2,note_on,35,0,120
2,note_on,42,46,120
2,note_on,42,0,120
2,note_on,35,64,600
2,note_on,35,0,120
2,note_on,42,53,120
2,note_on,42,0,120
2,note_on,35,58,120
2,note_on,35,0,120
2,note_on,42,53,120
2,note_on,42,0,120
2,note_on,35,51,600
2,note_on,47,61,0
2,note_on,47,0,120
2,note_on,35,0,0
2,note_on,54,53,120
2,note_on,42,45,0
2,note_on,42,0,120
2,note_on,54,0,0
2,note_on,47,60,120
2,note_on,35,51,0
2,note_on,35,0,120
2,note_on,47,0,0
2,note_on,54,53,120
2,note_on,42,45,0
2,note_on,42,0,120
2,note_on,54,0,0
2,note_on,35,52,120
2,note_on,47,62,0
2,note_on,47,0,120
2,note_on,35,0,0
2,note_on,42,45,120
2,note_on,54,53,0
2,note_on,54,0,120
2,note_on,42,0,0
2,note_on,47,62,120
2,note_on,35,52,0
2,note_on,35,0,120
2,note_on,47,0,0
2,note_on,59,54,360
2,note_on,59,0,120
2,note_on,54,58,120
2,note_on,54,0,120
2,note_on,51,54,360
2,note_on,51,0,120
2,note_on,59,60,120
2,note_on,47,51,0
2,note_on,47,0,120
2,note_on,59,0,0
2,note_on,55,54,360
2,note_on,43,45,0
2,note_on,43,0,120
2,note_on,55,0,0
2,note_on,54,53,120
2,note_on,42,45,0
2,note_on,42,0,120
2,note_on,54,0,0
2,note_on,47,62,120
2,note_on,35,52,0
2,note_on,35,0,120
2,note_on,47,0,0
2,note_on,42,45,120
2,note_on,54,53,0
2,note_on,54,0,120
2,note_on,42,0,0
2,note_on,47,62,120
2,note_on,35,52,0
2,note_on,35,0,120
2,note_on,47,0,0
2,note_on,59,54,360
2,note_on,59,0,120
2,note_on,54,58,120
2,note_on,54,0,120
2,note_on,51,54,360
2,note_on,51,0,120
2,note_on,47,51,120
2,note_on,59,60,0
2,note_on,59,0,120
2,note_on,47,0,0
2,note_on,43,45,360
2,note_on,55,54,0
2,note_on,55,0,120
2,note_on,43,0,0
2,note_on,54,53,120
2,note_on,42,45,0
2,note_on,42,0,120
2,note_on,54,0,0
2,note_on,47,62,120
2,note_on,35,52,0
2,note_on,35,0,120
2,note_on,47,0,0
2,note_on,42,45,120
2,note_on,54,53,0
2,note_on,54,0,120
2,note_on,42,0,0
2,note_on,47,62,120
2,note_on,35,52,0
2,note_on,35,0,120
2,note_on,47,0,0
2,note_on,59,54,360
2,note_on,59,0,120
2,note_on,55,58,120
2,note_on,55,0,120
2,note_on,52,46,360
2,note_on,52,0,120
2,note_on,48,43,120
2,note_on,60,52,0
2,note_on,60,0,120
2,note_on,48,0,0
2,note_on,45,32,360
2,note_on,57,39,0
2,note_on,57,0,120
2,note_on,45,0,0
2,note_on,54,44,120
2,note_on,42,37,0
2,note_on,42,0,120
2,note_on,54,0,0
2,note_on,39,26,360
2,note_on,51,31,0
2,note_on,51,0,120
2,note_on,39,0,0
2,note_on,47,34,120
2,note_on,35,29,0
2,note_on,35,0,120
2,note_on,47,0,0
2,note_on,31,23,1320
2,note_on,43,27,0
2,note_on,43,0,120
2,note_on,31,0,0
2,note_on,28,23,1320
2,note_on,40,27,0
2,note_on,40,0,240
2,note_on,28,0,480
2,note_on,32,23,0
2,note_on,32,0,720
2,note_on,33,26,0
2,note_on,33,0,720
2,note_on,36,22,0
2,note_on,36,0,720
2,note_on,40,26,0
2,note_on,40,0,720
2,note_on,34,21,0
2,note_on,34,0,720
2,note_on,35,26,0
2,note_on,35,0,720
2,note_on,47,21,0
2,note_on,47,0,720
2,note_on,43,26,0
2,note_on,43,0,720
2,note_on,40,21,0
2,note_on,40,0,720
2,note_on,35,26,0
2,note_on,35,0,720
2,note_on,47,21,0
2,note_on,47,0,720
2,note_on,43,26,0
2,note_on,43,0,720
2,note_on,40,21,0
2,note_on,40,0,720
2,note_on,42,26,0
2,note_on,42,0,720
2,note_on,37,21,0
2,note_on,37,0,720
2,note_on,58,18,0
2,note_on,61,23,0
2,note_on,54,18,0
2,note_on,54,0,240
2,note_on,61,0,0
2,note_on,58,0,0
2,note_on,37,19,480
2,note_on,37,0,720
2,note_on,61,20,0
2,note_on,54,15,0
2,note_on,58,15,0
2,note_on,58,0,240
2,note_on,54,0,0
2,note_on,61,0,0
2,note_on,37,17,480
2,note_on,37,0,2160
2,note_on,49,56,240
2,note_on,37,47,0
2,note_on,37,0,120
2,note_on,49,0,0
2,note_on,39,48,120
2,note_on,51,57,0
2,note_on,51,0,120
2,note_on,39,0,0
2,note_on,41,49,120
2,note_on,53,58,0
2,note_on,53,0,120
2,note_on,41,0,0
2,note_on,54,61,120
2,note_on,42,51,0
2,note_on,42,0,120
2,note_on,54,0,0
2,note_on,44,53,120
2,note_on,56,63,0
2,note_on,56,0,120
2,note_on,44,0,0
2,note_on,58,65,120
2,note_on,46,55,0
2,note_on,46,0,120
2,note_on,58,0,0
2,note_on,37,52,360
2,note_on,49,62,0
2,note_on,49,0,120
2,note_on,37,0,0
2,note_on,30,63,120
2,note_on,42,75,0
2,note_on,42,0,120
2,note_on,30,0,0
2,note_on,47,70,600
2,note_on,35,58,0
2,note_on,35,0,240
2,note_on,47,0,0
2,note_on,59,54,480
2,note_on,69,54,0
2,note_on,73,64,0
2,note_on,73,0,720
2,note_on,69,0,0
2,note_on,68,54,0
2,note_on,71,64,0
2,note_on,71,0,720
2,note_on,68,0,0
2,note_on,64,54,0
2,note_on,68,64,0
2,note_on,68,0,720
2,note_on,64,0,0
2,note_on,66,51,0
2,note_on,69,61,0
2,note_on,69,0,120
2,note_on,66,0,0
2,note_on,59,0,100
2,note_on,63,48,20
2,note_on,66,57,0
2,note_on,66,0,120
2,note_on,63,0,0
2,note_on,64,51,120
2,note_on,68,61,0
2,note_on,68,0,120
2,note_on,64,0,0
2,note_on,61,46,120
2,note_on,64,55,0
2,note_on,64,0,120
2,note_on,61,0,0
2,note_on,66,61,120
2,note_on,63,51,0
2,note_on,63,0,120
2,note_on,66,0,0
2,note_on,63,57,120
2,note_on,59,48,0
2,note_on,59,0,120
2,note_on,63,0,0
2,note_on,61,51,120
2,note_on,64,61,0
2,note_on,64,0,120
2,note_on,61,0,0
2,note_on,64,58,360
2,note_on,61,48,0
2,note_on,61,0,120
2,note_on,64,0,0
2,note_on,61,74,120
2,note_on,57,60,0
2,note_on,57,0,720
2,note_on,61,0,0
2,note_on,44,40,0
2,note_on,56,46,0
2,note_on,56,0,480
2,note_on,44,0,0
2,note_on,59,34,240
2,note_on,56,34,0
2,note_on,64,39,0
2,note_on,64,0,480
2,note_on,56,0,0
2,note_on,59,0,0
2,note_on,42,40,240
2,note_on,54,46,0
2,note_on,54,0,480
2,note_on,42,0,0
2,note_on,61,34,240
2,note_on,64,39,0
2,note_on,54,34,0
2,note_on,57,34,0
2,note_on,57,0,480
2,note_on,61,0,0
2,note_on,64,0,0
2,note_on,54,0,0
2,note_on,52,46,240
2,note_on,40,40,0
2,note_on,40,0,480
2,note_on,52,0,0
2,note_on,64,44,240
2,note_on,56,38,0
2,note_on,52,38,0
2,note_on,61,38,0
2,note_on,61,0,480
2,note_on,64,0,0
2,note_on,56,0,0
2,note_on,52,0,0
2,note_on,47,57,240
2,note_on,35,50,0
2,note_on,35,0,480
2,note_on,47,0,0
2,note_on,57,40,240
2,note_on,54,40,0
2,note_on,59,40,0
2,note_on,63,46,0
2,note_on,63,0,480
2,note_on,57,0,0
2,note_on,54,0,0
2,note_on,59,0,0
2,note_on,40,73,240
2,note_on,28,61,0
2,note_on,28,0,240
2,note_on,40,0,0
2,note_on,52,58,480
2,note_on,65,58,480
2,note_on,65,0,240
2,note_on,64,62,0
2,note_on,64,0,480
2,note_on,60,58,0
2,note_on,60,0,240
2,note_on,62,63,0
2,note_on,62,0,480
2,note_on,59,58,0
2,note_on,59,0,240
2,note_on,52,0,0
2,note_on,61,67,0
2,note_on,52,67,0
2,note_on,52,0,240
2,note_on,61,0,0
2,note_on,40,73,480
2,note_on,28,61,0
2,note_on,28,0,240
2,note_on,40,0,0
2,note_on,67,58,240
2,note_on,67,0,240
2,note_on,52,58,0
2,note_on,66,62,0
2,note_on,66,0,480
2,note_on,63,58,0
2,note_on,63,0,240
2,note_on,64,63,0
2,note_on,64,0,480
2,note_on,61,58,0
2,note_on,61,0,240
2,note_on,52,0,0
2,note_on,52,67,0
2,note_on,63,67,0
2,note_on,63,0,240
2,note_on,52,0,0
2,note_on,40,73,480
2,note_on,28,61,0
2,note_on,28,0,240
2,note_on,40,0,0
2,note_on,60,49,240
2,note_on,72,58,0
2,note_on,72,0,240
2,note_on,60,0,0
2,note_on,71,62,0
2,note_on,59,52,0
2,note_on,59,0,480
2,note_on,71,0,0
2,note_on,55,49,0
2,note_on,67,58,0
2,note_on,67,0,120
2,note_on,55,0,0
2,note_on,57,39,120
2,note_on,69,47,0
2,note_on,69,0,120
2,note_on,57,0,0
2,note_on,66,53,120
2,note_on,54,45,0
2,note_on,54,0,120
2,note_on,66,0,0
2,note_on,55,40,120
2,note_on,67,48,0
2,note_on,67,0,120
2,note_on,55,0,0
2,note_on,52,67,120
2,note_on,64,67,0
2,note_on,64,0,120
2,note_on,52,0,0
2,note_on,66,48,120
2,note_on,54,40,0
2,note_on,54,0,120
2,note_on,66,0,0
2,note_on,50,49,120
2,note_on,62,58,0
2,note_on,62,0,120
2,note_on,50,0,0
2,note_on,64,47,120
2,note_on,52,39,0
2,note_on,52,0,120
2,note_on,64,0,0
2,note_on,48,45,120
2,note_on,60,53,0
2,note_on,60,0,120
2,note_on,48,0,0
2,note_on,50,40,120
2,note_on,62,48,0
2,note_on,62,0,120
2,note_on,50,0,0
2,note_on,47,67,120
2,note_on,59,67,0
2,note_on,59,0,120
2,note_on,47,0,0
2,note_on,48,40,120
2,note_on,60,48,0
2,note_on,60,0,120
2,note_on,48,0,0
2,note_on,45,51,120
2,note_on,57,60,0
2,note_on,57,0,120
2,note_on,45,0,0
2,note_on,47,42,120
2,note_on,59,50,0
2,note_on,59,0,120
2,note_on,47,0,0
2,note_on,43,49,120
2,note_on,55,58,0
2,note_on,55,0,120
2,note_on,43,0,0
2,note_on,57,54,120
2,note_on,45,45,0
2,note_on,45,0,120
2,note_on,57,0,0
2,note_on,35,62,0
2,note_on,35,0,60
2,note_on,47,63,0
2,note_on,47,0,60
2,note_on,71,70,0
2,note_on,64,59,0
2,note_on,59,59,0
2,note_on,68,70,0
2,note_on,68,0,456
2,note_on,71,0,0
2,note_on,64,0,0
2,note_on,59,0,0
2,note_on,64,59,24
2,note_on,59,59,0
2,note_on,71,70,0
2,note_on,67,59,0
2,note_on,67,0,456
2,note_on,64,0,0
2,note_on,59,0,0
2,note_on,71,0,0
2,note_on,71,70,24
2,note_on,66,59,0
2,note_on,59,59,0
2,note_on,63,59,0
2,note_on,63,0,456
2,note_on,71,0,0
2,note_on,66,0,0
2,note_on,59,0,0
2,note_on,62,59,24
2,note_on,65,70,0
2,note_on,59,59,0
2,note_on,71,70,0
2,note_on,71,0,456
2,note_on,62,0,0
2,note_on,65,0,0
2,note_on,59,0,0
2,note_on,61,58,24
2,note_on,64,58,0
2,note_on,59,58,0
2,note_on,71,69,0
2,note_on,71,0,456
2,note_on,61,0,0
2,note_on,64,0,0
2,note_on,59,0,0
2,note_on,59,57,24
2,note_on,63,57,0
2,note_on,60,57,0
2,note_on,71,67,0
2,note_on,71,0,456
2,note_on,59,0,0
2,note_on,63,0,0
2,note_on,60,0,0
2,note_on,62,56,24
2,note_on,71,66,0
2,note_on,59,56,0
2,note_on,59,0,456
2,note_on,71,0,0
2,note_on,62,0,0
2,note_on,61,55,24
2,note_on,71,65,0
2,note_on,58,55,0
2,note_on,58,0,456
2,note_on,71,0,0
2,note_on,61,0,0
2,note_on,71,64,24
2,note_on,57,54,0
2,note_on,60,54,0
2,note_on,60,0,456
2,note_on,57,0,0
2,note_on,71,0,0
2,note_on,56,53,24
2,note_on,68,63,0
2,note_on,59,53,0
2,note_on,59,0,456
2,note_on,68,0,0
2,note_on,56,0,0
2,note_on,55,52,24
2,note_on,59,52,0
2,note_on,67,62,0
2,note_on,67,0,366
2,note_on,59,0,0
2,note_on,55,0,0
2,note_on,47,51,24
2,note_on,54,51,30
2,note_on,57,51,30
2,note_on,66,60,30
2,note_on,66,0,456
2,note_on,47,0,0
2,note_on,54,0,0
2,note_on,57,0,0
2,note_on,52,67,24
2,note_on,40,67,0
2,note_on,40,0,120
2,note_on,52,0,0
2,note_on,50,48,120
2,note_on,47,40,0
2,note_on,47,0,120
2,note_on,50,0,0
2,note_on,52,58,120
2,note_on,40,49,0
2,note_on,40,0,120
2,note_on,52,0,0
2,note_on,45,39,120
2,note_on,48,47,0
2,note_on,48,0,120
2,note_on,45,0,0
2,note_on,52,53,120
2,note_on,40,45,0
2,note_on,40,0,120
2,note_on,52,0,0
2,note_on,47,48,120
2,note_on,43,40,0
2,note_on,43,0,120
2,note_on,47,0,0
2,note_on,52,67,120
2,note_on,40,67,0
2,note_on,40,0,120
2,note_on,52,0,0
2,note_on,42,40,120
2,note_on,45,48,7
2,note_on,42,0,113
2,note_on,45,0,7
2,note_on,52,58,113
2,note_on,40,49,0
2,note_on,40,0,120
2,note_on,52,0,0
2,note_on,43,47,120
2,note_on,43,0,120
2,note_on,52,53,120
2,note_on,52,0,120
2,note_on,42,48,120
2,note_on,38,40,0
2,note_on,38,0,120
2,note_on,42,0,0
2,note_on,52,67,120
2,note_on,52,0,120
2,note_on,36,39,120
2,note_on,40,47,0
2,note_on,40,0,120
2,note_on,36,0,0
2,note_on,40,56,120
2,note_on,40,0,120
2,note_on,35,37,120
2,note_on,38,45,0
2,note_on,38,0,120
2,note_on,35,0,0
2,note_on,40,50,120
2,note_on,40,0,120
2,note_on,36,45,120
2,note_on,33,37,0
2,note_on,33,0,120
2,note_on,36,0,0
2,note_on,40,62,120
2,note_on,40,0,120
2,note_on,31,36,120
2,note_on,35,44,0
2,note_on,35,0,120
2,note_on,31,0,0
2,note_on,40,52,120
2,note_on,40,0,120
2,note_on,30,34,120
2,note_on,33,41,0
2,note_on,33,0,120
2,note_on,30,0,0
2,note_on,40,46,120
2,note_on,40,0,120
2,note_on,29,34,120
2,note_on,33,41,0
2,note_on,33,0,120
2,note_on,29,0,0
2,note_on,28,37,120
2,note_on,40,44,0
2,note_on,40,0,120
2,note_on,28,0,0
2,note_on,28,37,120
2,note_on,40,44,0
2,note_on,40,0,120
2,note_on,28,0,0
2,note_on,40,44,120
2,note_on,28,37,0
2,note_on,28,0,120
2,note_on,40,0,0
2,note_on,45,44,120
2,note_on,48,52,0
2,note_on,48,0,720
2,note_on,45,0,0
2,note_on,28,37,0
2,note_on,40,44,0
2,note_on,40,0,120
2,note_on,28,0,0
2,note_on,40,44,120
2,note_on,28,37,0
2,note_on,28,0,120
2,note_on,40,0,0
2,note_on,40,44,120
2,note_on,28,37,0
2,note_on,28,0,120
2,note_on,40,0,0
2,note_on,53,57,120
2,note_on,45,48,0
2,note_on,45,0,720
2,note_on,53,0,0
2,note_on,28,37,0
2,note_on,40,44,0
2,note_on,40,0,120
2,note_on,28,0,0
2,note_on,28,37,120
2,note_on,40,44,0
2,note_on,40,0,120
2,note_on,28,0,0
2,note_on,28,37,120
2,note_on,40,44,0
2,note_on,40,0,120
2,note_on,28,0,0
2,note_on,52,60,120
2,note_on,55,60,0
2,note_on,46,60,0
2,note_on,60,71,0
2,note_on,60,0,960
2,note_on,52,0,0
2,note_on,55,0,0
2,note_on,46,0,0
2,note_on,40,69,480
2,note_on,28,57,0
2,note_on,28,0,120
2,note_on,40,0,0
2,note_on,28,57,600
2,note_on,40,69,0
2,note_on,40,0,120
2,note_on,28,0,0
2,note_on,40,69,593
2,note_on,28,57,0
2,note_on,28,0,120
2,note_on,40,0,0
2,note_on,48,64,607
2,note_on,60,77,0
2,note_on,53,64,0
2,note_on,45,64,0
2,note_on,45,0,1680
2,note_on,48,0,0
2,note_on,60,0,0
2,note_on,53,0,0
2,note_on,72,70,0
2,note_on,60,59,0
2,note_on,60,0,120
2,note_on,72,0,0
2,note_on,57,54,120
2,note_on,69,64,0
2,note_on,69,0,120
2,note_on,57,0,0
2,note_on,65,72,120
2,note_on,53,60,0
2,note_on,53,0,120
2,note_on,65,0,0
2,note_on,48,57,120
2,note_on,60,68,0
2,note_on,60,0,120
2,note_on,48,0,0
2,note_on,57,70,120
2,note_on,45,59,0
2,note_on,45,0,120
2,note_on,57,0,0
2,note_on,41,64,120
2,note_on,53,77,0
2,note_on,53,0,120
2,note_on,41,0,0
2,note_on,36,59,120
2,note_on,48,71,0
2,note_on,48,0,120
2,note_on,36,0,0
2,note_on,45,72,120
2,note_on,33,60,0
2,note_on,33,0,120
2,note_on,45,0,0
2,note_on,41,81,120
2,note_on,29,69,0
2,note_on,29,0,120
2,note_on,41,0,0
2,note_on,36,75,120
2,note_on,24,63,0
2,note_on,24,0,120
2,note_on,36,0,0
2,note_on,26,65,120
2,note_on,38,78,0
2,note_on,38,0,120
2,note_on,26,0,0
2,note_on,24,66,120
2,note_on,36,78,0
2,note_on,36,0,120
2,note_on,24,0,0
2,note_on,36,78,1320
2,note_on,24,66,0
2,note_on,24,0,120
2,note_on,36,0,0
2,note_on,24,66,1320
2,note_on,36,78,0
2,note_on,36,0,120
2,note_on,24,0,0
2,note_on,36,29,5640
2,note_on,43,35,0
2,note_on,43,0,5760
2,note_on,36,0,0
2,note_on,29,34,0
2,note_on,41,40,0
2,note_on,41,0,2870
2,note_on,29,0,0
2,note_on,29,34,10
2,note_on,41,40,0
2,note_on,41,0,2880
2,note_on,29,0,0
2,note_on,52,35,0
2,note_on,43,29,0
2,note_on,52,0,1920
2,note_on,53,40,0
2,note_on,53,0,480
2,note_on,54,35,0
2,note_on,54,0,480
2,note_on,43,0,0
2,note_on,55,40,0
2,note_on,55,0,470
2,note_on,57,36,10
2,note_on,55,29,0
2,note_on,57,0,480
2,note_on,59,40,0
2,note_on,59,0,480
2,note_on,60,37,0
2,note_on,60,0,480
2,note_on,62,41,0
2,note_on,62,0,480
2,note_on,55,0,0
2,note_on,64,48,0
2,note_on,64,0,480
2,note_on,67,40,0
2,note_on,58,34,0
2,note_on,61,34,0
2,note_on,52,34,0
2,note_on,52,0,1440
2,note_on,67,0,0
2,note_on,58,0,0
2,note_on,61,0,0
2,note_on,54,34,0
2,note_on,66,40,0
2,note_on,57,34,0
2,note_on,62,34,0
2,note_on,62,0,960
2,note_on,54,0,0
2,note_on,66,0,0
2,note_on,57,0,0
2,note_on,56,28,0
2,note_on,65,33,0
2,note_on,65,0,480
2,note_on,56,0,0
2,note_on,57,30,0
2,note_on,64,36,0
2,note_on,64,0,960
2,note_on,63,32,0
2,note_on,63,0,480
2,note_on,64,36,0
2,note_on,64,0,960
2,note_on,67,33,0
2,note_on,67,0,480
2,note_on,57,0,0
2,note_on,58,30,0
2,note_on,65,36,0
2,note_on,65,0,1440
2,note_on,64,36,0
2,note_on,64,0,950
2,note_on,64,33,10
2,note_on,64,0,470
2,note_on,58,0,10
2,note_on,59,30,0
2,note_on,64,36,0
2,note_on,64,0,960
2,note_on,63,32,0
2,note_on,63,0,480
2,note_on,64,36,0
2,note_on,64,0,960
2,note_on,67,33,0
2,note_on,67,0,480
2,note_on,59,0,0
2,note_on,66,36,0
2,note_on,60,30,0
2,note_on,60,0,1440
2,note_on,66,0,0
2,note_on,64,36,0
2,note_on,61,30,0
2,note_on,61,0,1440
2,note_on,64,0,0
2,note_on,62,36,0
2,note_on,62,0,960
2,note_on,55,45,1920
2,note_on,55,0,960
2,note_on,54,42,0
2,note_on,54,0,480
2,note_on,55,39,0
2,note_on,55,0,960
2,note_on,50,42,0
2,note_on,50,0,480
2,note_on,50,42,2880
2,note_on,50,0,960
2,note_on,49,39,0
2,note_on,49,0,480
2,note_on,50,35,0
2,note_on,50,0,960
2,note_on,45,37,0
2,note_on,45,0,480
2,note_on,50,38,1440
2,note_on,50,0,960
2,note_on,44,34,0
2,note_on,44,0,480
2,note_on,50,35,1440
2,note_on,50,0,960
2,note_on,43,32,0
2,note_on,43,0,480
2,note_on,36,29,0
2,note_on,43,35,0
2,note_on,43,0,5760
2,note_on,36,0,0
2,note_on,41,40,0
2,note_on,29,34,0
2,note_on,29,0,2870
2,note_on,41,0,0
2,note_on,29,34,10
2,note_on,41,40,0
2,note_on,41,0,2880
2,note_on,29,0,0
2,note_on,52,35,0
2,note_on,43,29,0
2,note_on,52,0,1920
2,note_on,53,40,0
2,note_on,53,0,480
2,note_on,54,35,0
2,note_on,54,0,480
2,note_on,43,0,0
2,note_on,55,40,0
2,note_on,55,0,470
2,note_on,55,29,10
2,note_on,57,36,0
2,note_on,57,0,480
2,note_on,59,40,0
2,note_on,59,0,480
2,note_on,60,37,0
2,note_on,60,0,480
2,note_on,62,41,0
2,note_on,62,0,480
2,note_on,55,0,0
2,note_on,64,48,0
2,note_on,64,0,480
2,note_on,52,34,0
2,note_on,67,40,0
2,note_on,58,34,0
2,note_on,61,34,0
2,note_on,61,0,1440
2,note_on,52,0,0
2,note_on,67,0,0
2,note_on,58,0,0
2,note_on,54,34,0
2,note_on,62,34,0
2,note_on,66,40,0
2,note_on,57,34,0
2,note_on,57,0,960
2,note_on,54,0,0
2,note_on,62,0,0
2,note_on,66,0,0
2,note_on,65,33,0
2,note_on,56,28,0
2,note_on,56,0,480
2,note_on,65,0,0
2,note_on,57,30,0
2,note_on,64,36,0
2,note_on,64,0,960
2,note_on,63,32,0
2,note_on,63,0,480
2,note_on,64,36,0
2,note_on,64,0,960
2,note_on,67,33,0
2,note_on,67,0,480
2,note_on,57,0,0
2,note_on,65,36,0
2,note_on,58,30,0
2,note_on,65,0,1440
2,note_on,64,36,0
2,note_on,64,0,950
2,note_on,64,33,10
2,note_on,64,0,470
2,note_on,58,0,10
2,note_on,59,30,0
2,note_on,64,36,0
2,note_on,64,0,960
2,note_on,63,32,0
2,note_on,63,0,480
2,note_on,64,36,0
2,note_on,64,0,960
2,note_on,67,33,0
2,note_on,67,0,480
2,note_on,59,0,0
2,note_on,66,36,0
2,note_on,60,30,0
2,note_on,60,0,1440
2,note_on,66,0,0
2,note_on,61,30,0
2,note_on,64,36,0
2,note_on,64,0,1430
2,note_on,61,0,10
2,note_on,62,36,0
2,note_on,62,0,960
2,note_on,55,45,1920
2,note_on,55,0,960
2,note_on,54,42,0
2,note_on,54,0,480
2,note_on,55,39,0
2,note_on,55,0,960
2,note_on,50,42,0
2,note_on,50,0,480
2,note_on,50,42,2880
2,note_on,50,0,960
2,note_on,49,39,0
2,note_on,49,0,480
2,note_on,50,35,0
2,note_on,50,0,960
2,note_on,45,37,0
2,note_on,45,0,480
2,note_on,50,38,1440
2,note_on,50,0,960
2,note_on,44,34,0
2,note_on,44,0,480
2,note_on,50,35,1440
2,note_on,50,0,960
2,note_on,43,32,0
2,note_on,43,0,480
2,note_on,43,35,0
2,note_on,36,29,0
2,note_on,36,0,5760
2,note_on,43,0,0
2,note_on,41,40,0
2,note_on,29,34,0
2,note_on,29,0,2870
2,note_on,41,0,0
2,note_on,41,40,10
2,note_on,29,34,0
2,note_on,29,0,2880
2,note_on,41,0,0
2,note_on,43,29,0
2,note_on,51,35,0
2,note_on,51,0,1920
2,note_on,53,40,0
2,note_on,53,0,480
2,note_on,54,35,0
2,note_on,54,0,480
2,note_on,43,0,0
2,note_on,55,40,0
2,note_on,55,0,470
2,note_on,57,36,10
2,note_on,55,29,0
2,note_on,57,0,480
2,note_on,59,40,0
2,note_on,59,0,480
2,note_on,60,37,0
2,note_on,60,0,480
2,note_on,62,41,0
2,note_on,62,0,480
2,note_on,55,0,0
2,note_on,63,48,0
2,note_on,63,0,390
2,note_on,52,34,0
2,note_on,58,34,30
2,note_on,61,34,30
2,note_on,67,40,30
2,note_on,67,0,1440
2,note_on,52,0,0
2,note_on,58,0,0
2,note_on,61,0,0
2,note_on,56,34,0
2,note_on,61,34,0
2,note_on,65,40,0
2,note_on,53,34,0
2,note_on,53,0,960
2,note_on,56,0,0
2,note_on,61,0,0
2,note_on,65,0,0
2,note_on,61,28,0
2,note_on,55,28,0
2,note_on,63,33,0
2,note_on,63,0,475
2,note_on,55,0,0
2,note_on,61,0,0
2,note_on,55,34,5
2,note_on,63,40,0
2,note_on,61,34,0
2,note_on,61,0,1440
2,note_on,63,0,0
2,note_on,55,0,0
2,note_on,65,40,0
2,note_on,56,28,0
2,note_on,61,28,0
2,note_on,61,0,960
2,note_on,56,0,0
2,note_on,65,0,0
2,note_on,61,23,0
2,note_on,58,23,0
2,note_on,63,33,0
2,note_on,63,0,475
2,note_on,58,0,0
2,note_on,61,0,0
2,note_on,63,37,5
2,note_on,58,31,0
2,note_on,61,31,0
2,note_on,61,0,2400
2,note_on,58,0,0
2,note_on,63,0,0
2,note_on,56,35,0
2,note_on,65,41,0
2,note_on,61,35,0
2,note_on,61,0,475
2,note_on,65,0,0
2,note_on,56,0,0
2,note_on,58,31,5
2,note_on,63,37,0
2,note_on,61,31,0
2,note_on,61,0,2400
2,note_on,63,0,0
2,note_on,58,0,0
2,note_on,61,35,0
2,note_on,65,41,0
2,note_on,56,35,0
2,note_on,56,0,475
2,note_on,65,0,0
2,note_on,61,0,0
2,note_on,58,31,5
2,note_on,63,37,0
2,note_on,61,31,0
2,note_on,61,0,2310
2,note_on,63,0,0
2,note_on,58,0,0
2,note_on,53,35,0
2,note_on,56,35,30
2,note_on,61,35,30
2,note_on,65,41,30
2,note_on,65,0,475
2,note_on,61,0,0
2,note_on,56,0,0
2,note_on,53,0,5
2,note_on,55,31,0
2,note_on,63,37,0
2,note_on,61,31,0
2,note_on,61,0,2310
2,note_on,63,0,0
2,note_on,55,0,0
2,note_on,53,35,0
2,note_on,56,35,30
2,note_on,61,35,30
2,note_on,65,41,30
2,note_on,65,0,475
2,note_on,61,0,0
2,note_on,56,0,0
2,note_on,53,0,5
2,note_on,63,37,0
2,note_on,55,31,0
2,note_on,61,31,0
2,note_on,63,0,1440
2,note_on,64,37,0
2,note_on,61,0,1440
2,note_on,55,0,0
2,note_on,62,33,0
2,note_on,56,33,0
2,note_on,64,0,1440
2,note_on,65,42,0
2,note_on,56,0,1440
2,note_on,62,0,0
2,note_on,57,38,0
2,note_on,63,50,0
2,note_on,65,0,1440
2,note_on,66,57,0
2,note_on,66,0,1440
2,note_on,63,0,0
2,note_on,57,0,0
2,note_on,51,52,0
2,note_on,57,65,0
2,note_on,45,52,0
2,note_on,45,0,1440
2,note_on,57,0,0
2,note_on,51,0,0
2,note_on,45,62,0
2,note_on,36,52,0
2,note_on,33,67,0
2,note_on,31,54,1320
2,note_on,31,0,40
2,note_on,36,59,0
2,note_on,36,0,40
2,note_on,43,63,0
2,note_on,43,0,40
2,note_on,45,0,0
2,note_on,36,0,0
2,note_on,33,0,0
2,note_on,55,61,0
2,note_on,67,72,0
2,note_on,64,61,0
2,note_on,64,0,1920
2,note_on,67,0,0
2,note_on,62,50,0
2,note_on,65,59,0
2,note_on,65,0,480
2,note_on,62,0,0
2,note_on,63,50,0
2,note_on,66,59,0
2,note_on,55,0,470
2,note_on,66,0,10
2,note_on,63,0,0
2,note_on,55,52,0
2,note_on,64,52,0
2,note_on,67,62,0
2,note_on,67,0,480
2,note_on,64,0,0
2,note_on,60,47,0
2,note_on,69,56,0
2,note_on,69,0,480
2,note_on,60,0,0
2,note_on,71,56,0
2,note_on,62,47,0
2,note_on,55,0,240
2,note_on,62,0,180
2,note_on,71,0,0
2,note_on,55,55,0
2,note_on,64,55,30
2,note_on,72,65,30
2,note_on,72,0,480
2,note_on,64,0,0
2,note_on,55,0,0
2,note_on,65,45,0
2,note_on,74,54,0
2,note_on,74,0,480
2,note_on,65,0,0
2,note_on,67,45,0
2,note_on,76,54,0
2,note_on,29,54,360
2,note_on,29,0,60
2,note_on,41,55,0
2,note_on,41,0,60
2,note_on,76,0,0
2,note_on,67,0,0
2,note_on,61,59,0
2,note_on,58,59,0
2,note_on,64,70,0
2,note_on,53,59,0
2,note_on,64,0,1440
2,note_on,61,0,0
2,note_on,58,0,0
2,note_on,62,59,0
2,note_on,65,70,0
2,note_on,57,59,0
2,note_on,57,0,960
2,note_on,53,0,0
2,note_on,62,0,0
2,note_on,65,0,0
2,note_on,55,59,0
2,note_on,55,0,480
2,note_on,41,61,0
2,note_on,55,72,0
2,note_on,55,0,960
2,note_on,53,61,0
2,note_on,53,0,480
2,note_on,52,68,0
2,note_on,52,0,960
2,note_on,50,58,0
2,note_on,50,0,480
2,note_on,41,0,0
2,note_on,43,56,0
2,note_on,52,67,0
2,note_on,52,0,1920
2,note_on,53,64,0
2,note_on,53,0,480
2,note_on,54,56,0
2,note_on,54,0,480
2,note_on,43,0,0
2,note_on,55,64,0
2,note_on,57,57,480
2,note_on,57,0,480
2,note_on,59,64,0
2,note_on,59,0,480
2,note_on,60,59,0
2,note_on,60,0,480
2,note_on,62,65,0
2,note_on,62,0,480
2,note_on,64,76,0
2,note_on,64,0,480
2,note_on,55,0,0
2,note_on,49,45,0
2,note_on,46,45,0
2,note_on,40,45,0
2,note_on,52,53,0
2,note_on,52,0,960
2,note_on,49,0,0
2,note_on,46,0,0
2,note_on,40,0,0
2,note_on,53,53,0
2,note_on,41,45,0
2,note_on,48,45,0
2,note_on,48,0,960
2,note_on,41,0,0
2,note_on,53,0,0
2,note_on,51,45,0
2,note_on,48,45,0
2,note_on,42,45,0
2,note_on,54,53,0
2,note_on,54,0,960
2,note_on,51,0,0
2,note_on,48,0,0
2,note_on,42,0,0
2,note_on,43,45,0
2,note_on,48,45,0
2,note_on,51,45,0
2,note_on,55,53,0
2,note_on,55,0,960
2,note_on,43,0,0
2,note_on,48,0,0
2,note_on,51,0,0
2,note_on,48,45,0
2,note_on,45,45,0
2,note_on,51,45,0
2,note_on,57,53,0
2,note_on,57,0,960
2,note_on,48,0,0
2,note_on,45,0,0
2,note_on,51,0,0
2,note_on,50,45,0
2,note_on,47,45,0
2,note_on,55,45,0
2,note_on,59,53,0
2,note_on,59,0,960
2,note_on,50,0,0
2,note_on,47,0,0
2,note_on,55,0,0
2,note_on,52,45,0
2,note_on,48,45,0
2,note_on,55,45,0
2,note_on,60,53,0
2,note_on,60,0,960
2,note_on,52,0,0
2,note_on,48,0,0
2,note_on,55,0,0
2,note_on,55,45,0
2,note_on,49,45,0
2,note_on,58,45,0
2,note_on,61,53,0
2,note_on,61,0,480
2,note_on,55,0,0
2,note_on,49,0,0
2,note_on,58,0,0
2,note_on,53,45,0
2,note_on,50,45,0
2,note_on,57,45,0
2,note_on,62,53,0
2,note_on,62,0,960
2,note_on,53,0,0
2,note_on,50,0,0
2,note_on,57,0,0
2,note_on,57,45,0
2,note_on,53,45,0
2,note_on,62,45,0
2,note_on,65,53,0
2,note_on,65,0,480
2,note_on,57,0,0
2,note_on,53,0,0
2,note_on,62,0,0
2,note_on,60,45,0
2,note_on,55,45,0
2,note_on,64,45,0
2,note_on,67,53,0
2,note_on,67,0,1440
2,note_on,60,0,0
2,note_on,55,0,0
2,note_on,64,0,0
2,note_on,31,40,0
2,note_on,43,47,0
2,note_on,43,0,1440
2,note_on,31,0,0
2,note_on,43,40,0
2,note_on,36,40,0
2,note_on,48,47,0
2,note_on,48,0,1440
2,note_on,36,0,0
2,note_on,43,0,0
2,note_on,55,40,0
2,note_on,58,40,0
2,note_on,48,40,0
2,note_on,60,47,0
2,note_on,58,0,1440
2,note_on,55,0,0
2,note_on,53,40,0
2,note_on,57,40,0
2,note_on,57,0,1440
2,note_on,53,0,0
2,note_on,50,40,0
2,note_on,53,40,0
2,note_on,53,0,1440
2,note_on,50,0,0
2,note_on,52,47,0
2,note_on,55,47,0
2,note_on,55,0,480
2,note_on,60,0,0
2,note_on,48,0,0
2,note_on,52,0,0
2,note_on,40,40,0
2,note_on,52,40,0
2,note_on,52,0,240
2,note_on,40,0,0
2,note_on,41,40,240
2,note_on,53,40,0
2,note_on,53,0,240
2,note_on,41,0,0
2,note_on,46,51,240
2,note_on,38,51,0
2,note_on,50,51,0
2,note_on,50,0,240
2,note_on,38,0,0
2,note_on,40,42,240
2,note_on,52,42,0
2,note_on,52,0,240
2,note_on,40,0,0
2,note_on,36,42,240
2,note_on,48,42,0
2,note_on,46,0,480
2,note_on,41,47,0
2,note_on,45,47,0
2,note_on,45,0,1440
2,note_on,41,0,0
2,note_on,38,43,0
2,note_on,41,43,0
2,note_on,41,0,1440
2,note_on,36,0,0
2,note_on,48,0,0
2,note_on,38,0,0
2,note_on,40,42,0
2,note_on,43,42,0
2,note_on,43,0,240
2,note_on,40,0,0
2,note_on,40,35,240
2,note_on,40,0,240
2,note_on,41,32,240
2,note_on,41,0,240
2,note_on,38,38,240
2,note_on,38,0,240
2,note_on,40,31,240
2,note_on,40,0,240
2,note_on,36,30,240
2,note_on,36,0,3840
2,note_on,36,30,0
2,note_on,36,0,240
2,note_on,38,29,240
2,note_on,38,0,240
2,note_on,35,34,240
2,note_on,35,0,240
2,note_on,36,28,240
2,note_on,36,0,240
2,note_on,33,27,240
2,note_on,33,0,3840
2,note_on,33,26,0
2,note_on,33,0,240
2,note_on,35,26,240
2,note_on,35,0,240
2,note_on,31,30,240
2,note_on,31,0,240
2,note_on,33,24,240
2,note_on,33,0,240
2,note_on,29,24,240
2,note_on,29,0,4800
2,note_on,40,47,0
2,note_on,40,0,206
2,note_on,38,49,0
2,note_on,38,0,207
2,note_on,36,52,0
2,note_on,35,54,206
2,note_on,36,0,0
2,note_on,35,0,206
2,note_on,33,57,0
2,note_on,33,0,207
2,note_on,31,59,0
2,note_on,29,62,206
2,note_on,31,0,0
2,note_on,29,0,202
2,note_on,28,73,0
2,note_on,40,73,0
2,note_on,40,0,240
2,note_on,28,0,0
2,note_on,62,56,480
2,note_on,59,47,0
2,note_on,52,47,0
2,note_on,59,0,720
2,note_on,62,0,0
2,note_on,57,47,0
2,note_on,60,56,0
2,note_on,60,0,720
2,note_on,57,0,0
2,note_on,57,56,0
2,note_on,54,47,0
2,note_on,54,0,720
2,note_on,57,0,0
2,note_on,59,56,0
2,note_on,55,47,0
2,note_on,55,0,120
2,note_on,59,0,0
2,note_on,52,0,100
2,note_on,52,44,20
2,note_on,55,52,0
2,note_on,55,0,120
2,note_on,52,0,0
2,note_on,54,47,120
2,note_on,57,56,0
2,note_on,57,0,120
2,note_on,54,0,0
2,note_on,54,50,120
2,note_on,51,42,0
2,note_on,51,0,120
2,note_on,54,0,0
2,note_on,55,56,120
2,note_on,52,47,0
2,note_on,52,0,120
2,note_on,55,0,0
2,note_on,49,44,120
2,note_on,52,52,0
2,note_on,52,0,120
2,note_on,49,0,0
2,note_on,54,56,120
2,note_on,51,47,0
2,note_on,51,0,120
2,note_on,54,0,0
2,note_on,47,55,600
2,note_on,59,68,0
2,note_on,59,0,960
2,note_on,47,0,0
2,note_on,49,49,0
2,note_on,49,0,120
2,note_on,51,50,120
2,note_on,51,0,120
2,note_on,52,52,120
2,note_on,52,0,120
2,note_on,54,53,120
2,note_on,54,0,120
2,note_on,55,54,120
2,note_on,55,0,120
2,note_on,54,56,120
2,note_on,51,47,0
2,note_on,51,0,120
2,note_on,54,0,0
2,note_on,47,55,600
2,note_on,59,68,0
2,note_on,59,0,960
2,note_on,47,0,0
2,note_on,49,49,0
2,note_on,49,0,120
2,note_on,51,50,120
2,note_on,51,0,120
2,note_on,52,52,120
2,note_on,52,0,120
2,note_on,54,53,120
2,note_on,54,0,120
2,note_on,55,54,120
2,note_on,55,0,120
2,note_on,54,47,120
2,note_on,57,56,0
2,note_on,57,0,120
2,note_on,54,0,0
2,note_on,62,68,600
2,note_on,50,55,0
2,note_on,50,0,480
2,note_on,62,0,0
2,note_on,31,51,240
2,note_on,43,61,0
2,note_on,43,0,240
2,note_on,31,0,0
2,note_on,55,47,480
2,note_on,69,56,0
2,note_on,65,47,0
2,note_on,65,0,720
2,note_on,69,0,0
2,note_on,64,47,0
2,note_on,67,56,0
2,note_on,67,0,720
2,note_on,64,0,0
2,note_on,64,56,0
2,note_on,60,47,0
2,note_on,60,0,720
2,note_on,64,0,0
2,note_on,62,47,0
2,note_on,65,56,0
2,note_on,65,0,120
2,note_on,62,0,0
2,note_on,55,0,100
2,note_on,62,52,20
2,note_on,59,44,0
2,note_on,59,0,120
2,note_on,62,0,0
2,note_on,60,47,120
2,note_on,64,56,0
2,note_on,64,0,120
2,note_on,60,0,0
2,note_on,57,42,120
2,note_on,60,50,0
2,note_on,60,0,120
2,note_on,57,0,0
2,note_on,59,47,120
2,note_on,62,56,0
2,note_on,62,0,120
2,note_on,59,0,0
2,note_on,59,52,120
2,note_on,55,44,0
2,note_on,55,0,120
2,note_on,59,0,0
2,note_on,57,47,120
2,note_on,60,56,0
2,note_on,60,0,120
2,note_on,57,0,0
2,note_on,57,44,360
2,note_on,60,53,0
2,note_on,60,0,120
2,note_on,57,0,0
2,note_on,53,55,120
2,note_on,57,68,0
2,note_on,57,0,720
2,note_on,53,0,0
2,note_on,40,40,0
2,note_on,52,46,0
2,note_on,52,0,480
2,note_on,40,0,0
2,note_on,55,34,240
2,note_on,60,39,0
2,note_on,52,34,0
2,note_on,52,0,480
2,note_on,60,0,0
2,note_on,55,0,0
2,note_on,50,46,240
2,note_on,38,40,0
2,note_on,38,0,480
2,note_on,50,0,0
2,note_on,53,34,240
2,note_on,57,34,0
2,note_on,50,34,0
2,note_on,60,39,0
2,note_on,60,0,480
2,note_on,53,0,0
2,note_on,57,0,0
2,note_on,50,0,0
2,note_on,36,40,240
2,note_on,48,46,0
2,note_on,48,0,480
2,note_on,36,0,0
2,note_on,57,38,240
2,note_on,52,38,0
2,note_on,48,38,0
2,note_on,60,44,0
2,note_on,60,0,480
2,note_on,57,0,0
2,note_on,52,0,0
2,note_on,48,0,0
2,note_on,47,57,240
2,note_on,35,50,0
2,note_on,35,0,480
2,note_on,47,0,0
2,note_on,54,40,240
2,note_on,63,46,0
2,note_on,59,40,0
2,note_on,59,0,480
2,note_on,63,0,0
2,note_on,54,0,0
2,note_on,24,51,240
2,note_on,36,61,0
2,note_on,36,0,240
2,note_on,24,0,0
2,note_on,36,44,480
2,note_on,46,53,0
2,note_on,43,44,0
2,note_on,43,0,720
2,note_on,46,0,0
2,note_on,45,53,0
2,note_on,41,44,0
2,note_on,41,0,720
2,note_on,45,0,0
2,note_on,41,53,0
2,note_on,38,44,0
2,note_on,36,0,480
2,note_on,38,0,240
2,note_on,41,0,0
2,note_on,40,44,0
2,note_on,43,53,0
2,note_on,43,0,120
2,note_on,40,0,0
2,note_on,37,49,120
2,note_on,37,0,120
2,note_on,38,53,120
2,note_on,38,0,120
2,note_on,35,47,120
2,note_on,35,0,120
2,note_on,37,53,120
2,note_on,37,0,120
2,note_on,33,49,120
2,note_on,33,0,120
2,note_on,38,53,120
2,note_on,38,0,120
2,note_on,38,64,600
2,note_on,26,52,0
2,note_on,26,0,720
2,note_on,38,0,0
2,note_on,39,61,0
2,note_on,27,51,0
2,note_on,27,0,240
2,note_on,39,0,0
2,note_on,46,44,480
2,note_on,39,44,0
2,note_on,49,53,0
2,note_on,49,0,720
2,note_on,46,0,0
2,note_on,48,53,0
2,note_on,44,44,0
2,note_on,44,0,720
2,note_on,48,0,0
2,note_on,44,53,0
2,note_on,41,44,0
2,note_on,39,0,480
2,note_on,41,0,240
2,note_on,44,0,0
2,note_on,46,53,0
2,note_on,43,44,0
2,note_on,43,0,120
2,note_on,46,0,0
2,note_on,40,49,120
2,note_on,40,0,120
2,note_on,41,53,120
2,note_on,41,0,120
2,note_on,38,47,120
2,note_on,38,0,120
2,note_on,40,53,120
2,note_on,40,0,120
2,note_on,36,49,120
2,note_on,36,0,120
2,note_on,41,53,120
2,note_on,41,0,120
2,note_on,41,64,600
2,note_on,29,52,0
2,note_on,29,0,720
2,note_on,41,0,0
2,note_on,42,61,0
2,note_on,30,51,0
2,note_on,30,0,240
2,note_on,42,0,0
2,note_on,54,50,480
2,note_on,61,50,0
2,note_on,64,60,0
2,note_on,64,0,720
2,note_on,61,0,0
2,note_on,63,60,0
2,note_on,59,50,0
2,note_on,59,0,720
2,note_on,63,0,0
2,note_on,59,60,0
2,note_on,56,50,0
2,note_on,54,0,480
2,note_on,56,0,240
2,note_on,59,0,0
2,note_on,42,36,0
2,note_on,55,31,720
2,note_on,55,0,720
2,note_on,54,31,0
2,note_on,54,0,720
2,note_on,50,31,0
2,note_on,50,0,720
2,note_on,42,0,0
2,note_on,30,61,0
2,note_on,42,73,13
2,note_on,30,0,227
2,note_on,42,0,13
2,note_on,54,39,227
2,note_on,61,48,0
2,note_on,64,58,0
2,note_on,64,0,240
2,note_on,61,0,0
2,note_on,63,58,0
2,note_on,59,48,0
2,note_on,59,0,480
2,note_on,63,0,0
2,note_on,59,58,0
2,note_on,56,48,0
2,note_on,54,0,230
2,note_on,56,0,10
2,note_on,59,0,0
2,note_on,54,73,0
2,note_on,64,48,480
2,note_on,68,58,0
2,note_on,68,0,240
2,note_on,64,0,0
2,note_on,66,58,0
2,note_on,63,48,0
2,note_on,63,0,480
2,note_on,66,0,0
2,note_on,63,58,0
2,note_on,59,48,0
2,note_on,59,0,240
2,note_on,63,0,0
2,note_on,54,0,0
2,note_on,42,36,0
2,note_on,55,31,480
2,note_on,55,0,240
2,note_on,54,31,0
2,note_on,54,0,480
2,note_on,50,31,0
2,note_on,50,0,240
2,note_on,42,0,0
2,note_on,42,36,0
2,note_on,52,31,480
2,note_on,52,0,240
2,note_on,50,27,0
2,note_on,50,0,480
2,note_on,47,29,0
2,note_on,47,0,240
2,note_on,42,0,0
2,note_on,42,33,0
2,note_on,42,0,120
2,note_on,35,27,120
2,note_on,35,0,120
2,note_on,42,32,120
2,note_on,42,0,120
2,note_on,35,26,120
2,note_on,35,0,120
2,note_on,42,31,120
2,note_on,42,0,120
2,note_on,35,27,120
2,note_on,35,0,120
2,note_on,42,29,120
2,note_on,42,0,120
2,note_on,35,26,120
2,note_on,35,0,120
2,note_on,42,31,120
2,note_on,42,0,120
2,note_on,42,32,840
2,note_on,42,0,120
2,note_on,35,25,120
2,note_on,35,0,120
2,note_on,42,29,120
2,note_on,42,0,120
2,note_on,42,32,840
2,note_on,42,0,120
2,note_on,35,24,120
2,note_on,35,0,120
2,note_on,42,30,120
2,note_on,42,0,120
2,note_on,42,33,840
2,note_on,42,0,120
2,note_on,35,27,120
2,note_on,35,0,120
2,note_on,42,32,120
2,note_on,42,0,120
2,note_on,42,32,840
2,note_on,42,0,120
2,note_on,35,28,120
2,note_on,35,0,120
2,note_on,42,34,120
2,note_on,42,0,120
2,note_on,42,37,840
2,note_on,42,0,120
2,note_on,35,30,120
2,note_on,35,0,120
2,note_on,42,39,120
2,note_on,42,0,120
2,note_on,35,45,840
2,note_on,35,0,120
2,note_on,42,35,120
2,note_on,42,0,120
2,note_on,35,45,120
2,note_on,35,0,120
2,note_on,42,41,120
2,note_on,42,0,120
2,note_on,35,51,600
2,note_on,35,0,120
2,note_on,42,39,120
2,note_on,42,0,120
2,note_on,35,51,120
2,note_on,35,0,120
2,note_on,42,46,120
2,note_on,42,0,120
2,note_on,35,64,600
2,note_on,35,0,120
2,note_on,42,53,120
2,note_on,42,0,120
2,note_on,35,58,120
2,note_on,35,0,120
2,note_on,42,53,120
2,note_on,42,0,120
2,note_on,35,51,600
2,note_on,47,61,0
2,note_on,47,0,120
2,note_on,35,0,0
2,note_on,54,53,120
2,note_on,42,45,0
2,note_on,42,0,120
2,note_on,54,0,0
2,note_on,47,60,120
2,note_on,35,51,0
2,note_on,35,0,120
2,note_on,47,0,0
2,note_on,54,53,120
2,note_on,42,45,0
2,note_on,42,0,120
2,note_on,54,0,0
2,note_on,35,52,120
2,note_on,47,62,0
2,note_on,47,0,120
2,note_on,35,0,0
2,note_on,42,45,120
2,note_on,54,53,0
2,note_on,54,0,120
2,note_on,42,0,0
2,note_on,47,62,120
2,note_on,35,52,0
2,note_on,35,0,120
2,note_on,47,0,0
2,note_on,59,54,360
2,note_on,59,0,120
2,note_on,54,58,120
2,note_on,54,0,120
2,note_on,51,54,360
2,note_on,51,0,120
2,note_on,59,60,120
2,note_on,47,51,0
2,note_on,47,0,120
2,note_on,59,0,0
2,note_on,55,54,360
2,note_on,43,45,0
2,note_on,43,0,120
2,note_on,55,0,0
2,note_on,54,53,120
2,note_on,42,45,0
2,note_on,42,0,120
2,note_on,54,0,0
2,note_on,47,62,120
2,note_on,35,52,0
2,note_on,35,0,120
2,note_on,47,0,0
2,note_on,42,45,120
2,note_on,54,53,0
2,note_on,54,0,120
2,note_on,42,0,0
2,note_on,47,62,120
2,note_on,35,52,0
2,note_on,35,0,120
2,note_on,47,0,0
2,note_on,59,54,360
2,note_on,59,0,120
2,note_on,54,58,120
2,note_on,54,0,120
2,note_on,51,54,360
2,note_on,51,0,120
2,note_on,47,51,120
2,note_on,59,60,0
2,note_on,59,0,120
2,note_on,47,0,0
2,note_on,43,45,360
2,note_on,55,54,0
2,note_on,55,0,120
2,note_on,43,0,0
2,note_on,54,53,120
2,note_on,42,45,0
2,note_on,42,0,120
2,note_on,54,0,0
2,note_on,47,62,120
2,note_on,35,52,0
2,note_on,35,0,120
2,note_on,47,0,0
2,note_on,42,45,120
2,note_on,54,53,0
2,note_on,54,0,120
2,note_on,42,0,0
2,note_on,47,62,120
2,note_on,35,52,0
2,note_on,35,0,120
2,note_on,47,0,0
2,note_on,59,54,360
2,note_on,59,0,120
2,note_on,55,58,120
2,note_on,55,0,120
2,note_on,52,46,360
2,note_on,52,0,120
2,note_on,48,43,120
2,note_on,60,52,0
2,note_on,60,0,120
2,note_on,48,0,0
2,note_on,45,32,360
2,note_on,57,39,0
2,note_on,57,0,120
2,note_on,45,0,0
2,note_on,54,44,120
2,note_on,42,37,0
2,note_on,42,0,120
2,note_on,54,0,0
2,note_on,39,26,360
2,note_on,51,31,0
2,note_on,51,0,120
2,note_on,39,0,0
2,note_on,47,34,120
2,note_on,35,29,0
2,note_on,35,0,120
2,note_on,47,0,0
2,note_on,31,23,1320
2,note_on,43,27,0
2,note_on,43,0,120
2,note_on,31,0,0
2,note_on,28,23,1320
2,note_on,40,27,0
2,note_on,40,0,240
2,note_on,28,0,480
2,note_on,32,23,0
2,note_on,32,0,720
2,note_on,33,26,0
2,note_on,33,0,720
2,note_on,36,22,0
2,note_on,36,0,720
2,note_on,40,26,0
2,note_on,40,0,720
2,note_on,34,21,0
2,note_on,34,0,720
2,note_on,35,26,0
2,note_on,35,0,720
2,note_on,47,21,0
2,note_on,47,0,720
2,note_on,43,26,0
2,note_on,43,0,720
2,note_on,40,21,0
2,note_on,40,0,720
2,note_on,35,26,0
2,note_on,35,0,720
2,note_on,47,21,0
2,note_on,47,0,720
2,note_on,43,26,0
2,note_on,43,0,720
2,note_on,40,21,0
2,note_on,40,0,720
2,note_on,42,26,0
2,note_on,42,0,720
2,note_on,37,21,0
2,note_on,37,0,720
2,note_on,58,18,0
2,note_on,61,23,0
2,note_on,54,18,0
2,note_on,54,0,240
2,note_on,61,0,0
2,note_on,58,0,0
2,note_on,37,19,480
2,note_on,37,0,720
2,note_on,61,20,0
2,note_on,54,15,0
2,note_on,58,15,0
2,note_on,58,0,240
2,note_on,54,0,0
2,note_on,61,0,0
2,note_on,37,17,480
2,note_on,37,0,2160
2,note_on,49,56,240
2,note_on,37,47,0
2,note_on,37,0,120
2,note_on,49,0,0
2,note_on,39,48,120
2,note_on,51,57,0
2,note_on,51,0,120
2,note_on,39,0,0
2,note_on,41,49,120
2,note_on,53,58,0
2,note_on,53,0,120
2,note_on,41,0,0
2,note_on,54,61,120
2,note_on,42,51,0
2,note_on,42,0,120
2,note_on,54,0,0
2,note_on,44,53,120
2,note_on,56,63,0
2,note_on,56,0,120
2,note_on,44,0,0
2,note_on,58,65,120
2,note_on,46,55,0
2,note_on,46,0,120
2,note_on,58,0,0
2,note_on,37,52,360
2,note_on,49,62,0
2,note_on,49,0,120
2,note_on,37,0,0
2,note_on,30,63,120
2,note_on,42,75,0
2,note_on,42,0,120
2,note_on,30,0,0
2,note_on,47,70,600
2,note_on,35,58,0
2,note_on,35,0,240
2,note_on,47,0,0
2,note_on,59,54,480
2,note_on,69,54,0
2,note_on,73,64,0
2,note_on,73,0,720
2,note_on,69,0,0
2,note_on,68,54,0
2,note_on,71,64,0
2,note_on,71,0,720
2,note_on,68,0,0
2,note_on,64,54,0
2,note_on,68,64,0
2,note_on,68,0,720
2,note_on,64,0,0
2,note_on,66,51,0
2,note_on,69,61,0
2,note_on,69,0,120
2,note_on,66,0,0
2,note_on,59,0,100
2,note_on,63,48,20
2,note_on,66,57,0
2,note_on,66,0,120
2,note_on,63,0,0
2,note_on,64,51,120
2,note_on,68,61,0
2,note_on,68,0,120
2,note_on,64,0,0
2,note_on,61,46,120
2,note_on,64,55,0
2,note_on,64,0,120
2,note_on,61,0,0
2,note_on,66,61,120
2,note_on,63,51,0
2,note_on,63,0,120
2,note_on,66,0,0
2,note_on,63,57,120
2,note_on,59,48,0
2,note_on,59,0,120
2,note_on,63,0,0
2,note_on,61,51,120
2,note_on,64,61,0
2,note_on,64,0,120
2,note_on,61,0,0
2,note_on,64,58,360
2,note_on,61,48,0
2,note_on,61,0,120
2,note_on,64,0,0
2,note_on,61,74,120
2,note_on,57,60,0
2,note_on,57,0,720
2,note_on,61,0,0
2,note_on,44,40,0
2,note_on,56,46,0
2,note_on,56,0,480
2,note_on,44,0,0
2,note_on,59,34,240
2,note_on,56,34,0
2,note_on,64,39,0
2,note_on,64,0,480
2,note_on,56,0,0
2,note_on,59,0,0
2,note_on,42,40,240
2,note_on,54,46,0
2,note_on,54,0,480
2,note_on,42,0,0
2,note_on,61,34,240
2,note_on,64,39,0
2,note_on,54,34,0
2,note_on,57,34,0
2,note_on,57,0,480
2,note_on,61,0,0
2,note_on,64,0,0
2,note_on,54,0,0
2,note_on,52,46,240
2,note_on,40,40,0
2,note_on,40,0,480
2,note_on,52,0,0
2,note_on,64,44,240
2,note_on,56,38,0
2,note_on,52,38,0
2,note_on,61,38,0
2,note_on,61,0,480
2,note_on,64,0,0
2,note_on,56,0,0
2,note_on,52,0,0
2,note_on,47,57,240
2,note_on,35,50,0
2,note_on,35,0,480
2,note_on,47,0,0
2,note_on,57,40,240
2,note_on,54,40,0
2,note_on,59,40,0
2,note_on,63,46,0
2,note_on,63,0,480
2,note_on,57,0,0
2,note_on,54,0,0
2,note_on,59,0,0
2,note_on,40,73,240
2,note_on,28,61,0
2,note_on,28,0,240
2,note_on,40,0,0
2,note_on,52,58,480
2,note_on,65,58,480
2,note_on,65,0,240
2,note_on,64,62,0
2,note_on,64,0,480
2,note_on,60,58,0
2,note_on,60,0,240
2,note_on,62,63,0
2,note_on,62,0,480
2,note_on,59,58,0
2,note_on,59,0,240
2,note_on,52,0,0
2,note_on,61,67,0
2,note_on,52,67,0
2,note_on,52,0,240
2,note_on,61,0,0
2,note_on,40,73,480
2,note_on,28,61,0
2,note_on,28,0,240
2,note_on,40,0,0
2,note_on,67,58,240
2,note_on,67,0,240
2,note_on,52,58,0
2,note_on,66,62,0
2,note_on,66,0,480
2,note_on,63,58,0
2,note_on,63,0,240
2,note_on,64,63,0
2,note_on,64,0,480
2,note_on,61,58,0
2,note_on,61,0,240
2,note_on,52,0,0
2,note_on,52,67,0
2,note_on,63,67,0
2,note_on,63,0,240
2,note_on,52,0,0
2,note_on,40,73,480
2,note_on,28,61,0
2,note_on,28,0,240
2,note_on,40,0,0
2,note_on,60,49,240
2,note_on,72,58,0
2,note_on,72,0,240
2,note_on,60,0,0
2,note_on,71,62,0
2,note_on,59,52,0
2,note_on,59,0,480
2,note_on,71,0,0
2,note_on,55,49,0
2,note_on,67,58,0
2,note_on,67,0,120
2,note_on,55,0,0
2,note_on,57,39,120
2,note_on,69,47,0
2,note_on,69,0,120
2,note_on,57,0,0
2,note_on,66,53,120
2,note_on,54,45,0
2,note_on,54,0,120
2,note_on,66,0,0
2,note_on,55,40,120
2,note_on,67,48,0
2,note_on,67,0,120
2,note_on,55,0,0
2,note_on,52,67,120
2,note_on,64,67,0
2,note_on,64,0,120
2,note_on,52,0,0
2,note_on,66,48,120
2,note_on,54,40,0
2,note_on,54,0,120
2,note_on,66,0,0
2,note_on,50,49,120
2,note_on,62,58,0
2,note_on,62,0,120
2,note_on,50,0,0
2,note_on,64,47,120
2,note_on,52,39,0
2,note_on,52,0,120
2,note_on,64,0,0
2,note_on,48,45,120
2,note_on,60,53,0
2,note_on,60,0,120
2,note_on,48,0,0
2,note_on,50,40,120
2,note_on,62,48,0
2,note_on,62,0,120
2,note_on,50,0,0
2,note_on,47,67,120
2,note_on,59,67,0
2,note_on,59,0,120
2,note_on,47,0,0
2,note_on,48,40,120
2,note_on,60,48,0
2,note_on,60,0,120
2,note_on,48,0,0
2,note_on,45,51,120
2,note_on,57,60,0
2,note_on,57,0,120
2,note_on,45,0,0
2,note_on,47,42,120
2,note_on,59,50,0
2,note_on,59,0,120
2,note_on,47,0,0
2,note_on,43,49,120
2,note_on,55,58,0
2,note_on,55,0,120
2,note_on,43,0,0
2,note_on,57,54,120
2,note_on,45,45,0
2,note_on,45,0,120
2,note_on,57,0,0
2,note_on,35,62,0
2,note_on,35,0,60
2,note_on,47,63,0
2,note_on,47,0,60
2,note_on,71,70,0
2,note_on,64,59,0
2,note_on,59,59,0
2,note_on,68,70,0
2,note_on,68,0,456
2,note_on,71,0,0
2,note_on,64,0,0
2,note_on,59,0,0
2,note_on,64,59,24
2,note_on,59,59,0
2,note_on,71,70,0
2,note_on,67,59,0
2,note_on,67,0,456
2,note_on,64,0,0
2,note_on,59,0,0
2,note_on,71,0,0
2,note_on,71,70,24
2,note_on,66,59,0
2,note_on,59,59,0
2,note_on,63,59,0
2,note_on,63,0,456
2,note_on,71,0,0
2,note_on,66,0,0
2,note_on,59,0,0
2,note_on,62,59,24
2,note_on,65,70,0
2,note_on,59,59,0
2,note_on,71,70,0
2,note_on,71,0,456
2,note_on,62,0,0
2,note_on,65,0,0
2,note_on,59,0,0
2,note_on,61,58,24
2,note_on,64,58,0
2,note_on,59,58,0
2,note_on,71,69,0
2,note_on,71,0,456
2,note_on,61,0,0
2,note_on,64,0,0
2,note_on,59,0,0
2,note_on,59,57,24
2,note_on,63,57,0
2,note_on,60,57,0
2,note_on,71,67,0
2,note_on,71,0,456
2,note_on,59,0,0
2,note_on,63,0,0
2,note_on,60,0,0
2,note_on,62,56,24
2,note_on,71,66,0
2,note_on,59,56,0
2,note_on,59,0,456
2,note_on,71,0,0
2,note_on,62,0,0
2,note_on,61,55,24
2,note_on,71,65,0
2,note_on,58,55,0
2,note_on,58,0,456
2,note_on,71,0,0
2,note_on,61,0,0
2,note_on,71,64,24
2,note_on,57,54,0
2,note_on,60,54,0
2,note_on,60,0,456
2,note_on,57,0,0
2,note_on,71,0,0
2,note_on,56,53,24
2,note_on,68,63,0
2,note_on,59,53,0
2,note_on,59,0,456
2,note_on,68,0,0
2,note_on,56,0,0
2,note_on,55,52,24
2,note_on,59,52,0
2,note_on,67,62,0
2,note_on,67,0,366
2,note_on,59,0,0
2,note_on,55,0,0
2,note_on,47,51,24
2,note_on,54,51,30
2,note_on,57,51,30
2,note_on,66,60,30
2,note_on,66,0,456
2,note_on,47,0,0
2,note_on,54,0,0
2,note_on,57,0,0
2,note_on,52,67,24
2,note_on,40,67,0
2,note_on,40,0,120
2,note_on,52,0,0
2,note_on,50,48,120
2,note_on,47,40,0
2,note_on,47,0,120
2,note_on,50,0,0
2,note_on,52,58,120
2,note_on,40,49,0
2,note_on,40,0,120
2,note_on,52,0,0
2,note_on,45,39,120
2,note_on,48,47,0
2,note_on,48,0,120
2,note_on,45,0,0
2,note_on,52,53,120
2,note_on,40,45,0
2,note_on,40,0,120
2,note_on,52,0,0
2,note_on,47,48,120
2,note_on,43,40,0
2,note_on,43,0,120
2,note_on,47,0,0
2,note_on,52,67,120
2,note_on,40,67,0
2,note_on,40,0,120
2,note_on,52,0,0
2,note_on,42,40,120
2,note_on,45,48,7
2,note_on,42,0,113
2,note_on,45,0,7
2,note_on,52,58,113
2,note_on,40,49,0
2,note_on,40,0,120
2,note_on,52,0,0
2,note_on,43,47,120
2,note_on,43,0,120
2,note_on,52,53,120
2,note_on,52,0,120
2,note_on,42,48,120
2,note_on,38,40,0
2,note_on,38,0,120
2,note_on,42,0,0
2,note_on,52,67,120
2,note_on,52,0,120
2,note_on,36,39,120
2,note_on,40,47,0
2,note_on,40,0,120
2,note_on,36,0,0
2,note_on,40,56,120
2,note_on,40,0,120
2,note_on,35,37,120
2,note_on,38,45,0
2,note_on,38,0,120
2,note_on,35,0,0
2,note_on,40,50,120
2,note_on,40,0,120
2,note_on,36,45,120
2,note_on,33,37,0
2,note_on,33,0,120
2,note_on,36,0,0
2,note_on,40,62,120
2,note_on,40,0,120
2,note_on,31,36,120
2,note_on,35,44,0
2,note_on,35,0,120
2,note_on,31,0,0
2,note_on,40,52,120
2,note_on,40,0,120
2,note_on,30,34,120
2,note_on,33,41,0
2,note_on,33,0,120
2,note_on,30,0,0
2,note_on,40,46,120
2,note_on,40,0,120
2,note_on,29,34,120
2,note_on,33,41,0
2,note_on,33,0,120
2,note_on,29,0,0
2,note_on,28,37,120
2,note_on,40,44,0
2,note_on,40,0,120
2,note_on,28,0,0
2,note_on,28,37,120
2,note_on,40,44,0
2,note_on,40,0,120
2,note_on,28,0,0
2,note_on,40,44,120
2,note_on,28,37,0
2,note_on,28,0,120
2,note_on,40,0,0
2,note_on,45,44,120
2,note_on,48,52,0
2,note_on,48,0,720
2,note_on,45,0,0
2,note_on,28,37,0
2,note_on,40,44,0
2,note_on,40,0,120
2,note_on,28,0,0
2,note_on,40,44,120
2,note_on,28,37,0
2,note_on,28,0,120
2,note_on,40,0,0
2,note_on,40,44,120
2,note_on,28,37,0
2,note_on,28,0,120
2,note_on,40,0,0
2,note_on,53,57,120
2,note_on,45,48,0
2,note_on,45,0,720
2,note_on,53,0,0
2,note_on,28,37,0
2,note_on,40,44,0
2,note_on,40,0,120
2,note_on,28,0,0
2,note_on,28,37,120
2,note_on,40,44,0
2,note_on,40,0,120
2,note_on,28,0,0
2,note_on,28,37,120
2,note_on,40,44,0
2,note_on,40,0,120
2,note_on,28,0,0
2,note_on,52,60,120
2,note_on,55,60,0
2,note_on,46,60,0
2,note_on,60,71,0
2,note_on,60,0,960
2,note_on,52,0,0
2,note_on,55,0,0
2,note_on,46,0,0
2,note_on,40,69,480
2,note_on,28,57,0
2,note_on,28,0,120
2,note_on,40,0,0
2,note_on,28,57,600
2,note_on,40,69,0
2,note_on,40,0,120
2,note_on,28,0,0
2,note_on,40,69,593
2,note_on,28,57,0
2,note_on,28,0,120
2,note_on,40,0,0
2,note_on,48,64,607
2,note_on,60,77,0
2,note_on,53,64,0
2,note_on,45,64,0
2,note_on,45,0,1680
2,note_on,48,0,0
2,note_on,60,0,0
2,note_on,53,0,0
2,note_on,72,70,0
2,note_on,60,59,0
2,note_on,60,0,120
2,note_on,72,0,0
2,note_on,57,54,120
2,note_on,69,64,0
2,note_on,69,0,120
2,note_on,57,0,0
2,note_on,65,72,120
2,note_on,53,60,0
2,note_on,53,0,120
2,note_on,65,0,0
2,note_on,48,57,120
2,note_on,60,68,0
2,note_on,60,0,120
2,note_on,48,0,0
2,note_on,57,70,120
2,note_on,45,59,0
2,note_on,45,0,120
2,note_on,57,0,0
2,note_on,41,64,120
2,note_on,53,77,0
2,note_on,53,0,120
2,note_on,41,0,0
2,note_on,36,59,120
2,note_on,48,71,0
2,note_on,48,0,120
2,note_on,36,0,0
2,note_on,45,72,120
2,note_on,33,60,0
2,note_on,33,0,120
2,note_on,45,0,0
2,note_on,41,81,120
2,note_on,29,69,0
2,note_on,29,0,120
2,note_on,41,0,0
2,note_on,36,75,120
2,note_on,24,63,0
2,note_on,24,0,120
2,note_on,36,0,0
2,note_on,26,65,120
2,note_on,38,78,0
2,note_on,38,0,120
2,note_on,26,0,0
2,note_on,24,66,120
2,note_on,36,78,0
2,note_on,36,0,120
2,note_on,24,0,0
2,note_on,36,78,1320
2,note_on,24,66,0
2,note_on,24,0,120
2,note_on,36,0,0
2,note_on,24,66,1320
2,note_on,36,78,0
2,note_on,36,0,120
2,note_on,24,0,0
