Track,Message Type,Note,Velocity,Time
1,note_on,72,67,2100
1,note_on,76,67,30
1,note_on,84,80,30
1,note_on,84,0,180
1,note_on,76,0,0
1,note_on,72,0,0
1,note_on,60,45,300
1,note_on,64,54,0
1,note_on,64,0,120
1,note_on,60,0,0
1,note_on,64,59,120
1,note_on,60,50,0
1,note_on,60,0,120
1,note_on,64,0,0
1,note_on,62,45,120
1,note_on,65,53,0
1,note_on,65,0,120
1,note_on,62,0,0
1,note_on,67,53,120
1,note_on,64,45,0
1,note_on,64,0,120
1,note_on,67,0,0
1,note_on,65,50,120
1,note_on,69,59,0
1,note_on,69,0,120
1,note_on,65,0,0
1,note_on,67,54,120
1,note_on,64,45,0
1,note_on,64,0,120
1,note_on,67,0,0
1,note_on,72,67,60
1,note_on,76,67,30
1,note_on,84,80,30
1,note_on,84,0,180
1,note_on,76,0,0
1,note_on,72,0,0
1,note_on,64,59,60
1,note_on,60,50,0
1,note_on,60,0,120
1,note_on,64,0,0
1,note_on,62,45,120
1,note_on,65,53,0
1,note_on,65,0,120
1,note_on,62,0,0
1,note_on,67,53,120
1,note_on,64,45,0
1,note_on,64,0,120
1,note_on,67,0,0
1,note_on,65,50,120
1,note_on,69,59,0
1,note_on,69,0,120
1,note_on,65,0,0
1,note_on,64,45,120
1,note_on,67,54,0
1,note_on,67,0,120
1,note_on,64,0,0
1,note_on,69,53,120
1,note_on,65,45,0
1,note_on,65,0,120
1,note_on,69,0,0
1,note_on,71,59,120
1,note_on,67,50,0
1,note_on,67,0,120
1,note_on,71,0,0
1,note_on,72,54,120
1,note_on,69,45,0
1,note_on,69,0,120
1,note_on,72,0,0
1,note_on,74,53,120
1,note_on,71,45,0
1,note_on,71,0,120
1,note_on,74,0,0
1,note_on,76,67,60
1,note_on,79,67,20
1,note_on,84,67,20
1,note_on,88,80,20
1,note_on,88,0,180
1,note_on,76,0,0
1,note_on,79,0,0
1,note_on,84,0,0
1,note_on,64,45,300
1,note_on,67,54,0
1,note_on,67,0,120
1,note_on,64,0,0
1,note_on,67,60,120
1,note_on,64,51,0
1,note_on,64,0,120
1,note_on,67,0,0
1,note_on,65,46,120
1,note_on,69,56,0
1,note_on,69,0,120
1,note_on,65,0,0
1,note_on,71,57,120
1,note_on,67,48,0
1,note_on,67,0,120
1,note_on,71,0,0
1,note_on,72,65,120
1,note_on,69,55,0
1,note_on,69,0,120
1,note_on,72,0,0
1,note_on,71,61,120
1,note_on,67,51,0
1,note_on,67,0,120
1,note_on,71,0,0
1,note_on,76,78,60
1,note_on,79,78,20
1,note_on,84,78,20
1,note_on,88,93,20
1,note_on,88,0,180
1,note_on,76,0,0
1,note_on,79,0,0
1,note_on,84,0,0
1,note_on,67,54,60
1,note_on,71,65,0
1,note_on,71,0,120
1,note_on,67,0,0
1,note_on,72,60,120
1,note_on,69,50,0
1,note_on,69,0,120
1,note_on,72,0,0
1,note_on,71,51,120
1,note_on,74,62,0
1,note_on,74,0,120
1,note_on,71,0,0
1,note_on,76,71,120
1,note_on,72,59,0
1,note_on,72,0,120
1,note_on,76,0,0
1,note_on,71,56,120
1,note_on,74,66,0
1,note_on,74,0,120
1,note_on,71,0,0
1,note_on,72,56,120
1,note_on,76,67,0
1,note_on,76,0,120
1,note_on,72,0,0
1,note_on,78,77,120
1,note_on,74,64,0
1,note_on,74,0,120
1,note_on,78,0,0
1,note_on,79,72,120
1,note_on,76,60,0
1,note_on,76,0,120
1,note_on,79,0,0
1,note_on,78,61,120
1,note_on,81,72,0
1,note_on,81,0,120
1,note_on,78,0,0
1,note_on,91,76,120
1,note_on,83,76,0
1,note_on,95,90,0
1,note_on,95,0,960
1,note_on,83,0,0
1,note_on,91,0,0
1,note_on,93,81,0
1,note_on,81,68,0
1,note_on,90,68,0
1,note_on,90,0,120
1,note_on,81,0,0
1,note_on,93,0,0
1,note_on,79,68,120
1,note_on,91,81,0
1,note_on,88,68,0
1,note_on,88,0,120
1,note_on,91,0,0
1,note_on,79,0,0
1,note_on,90,76,120
1,note_on,81,76,0
1,note_on,93,90,0
1,note_on,93,0,960
1,note_on,81,0,0
1,note_on,90,0,0
1,note_on,88,68,0
1,note_on,91,81,0
1,note_on,79,68,0
1,note_on,79,0,120
1,note_on,91,0,0
1,note_on,88,0,0
1,note_on,90,81,120
1,note_on,87,68,0
1,note_on,78,68,0
1,note_on,78,0,120
1,note_on,87,0,0
1,note_on,90,0,0
1,note_on,88,76,120
1,note_on,79,76,0
1,note_on,91,90,0
1,note_on,91,0,120
1,note_on,79,0,0
1,note_on,88,0,0
1,note_on,90,81,120
1,note_on,87,68,0
1,note_on,78,68,0
1,note_on,78,0,120
1,note_on,87,0,0
1,note_on,90,0,0
1,note_on,85,68,120
1,note_on,88,81,0
1,note_on,76,68,0
1,note_on,76,0,120
1,note_on,88,0,0
1,note_on,85,0,0
1,note_on,78,76,120
1,note_on,87,76,0
1,note_on,90,90,0
1,note_on,90,0,120
1,note_on,87,0,0
1,note_on,78,0,0
1,note_on,71,68,360
1,note_on,83,81,0
1,note_on,83,0,120
1,note_on,71,0,0
1,note_on,83,76,120
1,note_on,95,90,0
1,note_on,92,76,0
1,note_on,92,0,960
1,note_on,95,0,0
1,note_on,83,0,0
1,note_on,81,68,0
1,note_on,93,81,0
1,note_on,90,68,0
1,note_on,90,0,120
1,note_on,93,0,0
1,note_on,81,0,0
1,note_on,80,68,120
1,note_on,92,81,0
1,note_on,88,68,0
1,note_on,88,0,120
1,note_on,92,0,0
1,note_on,80,0,0
1,note_on,81,76,120
1,note_on,93,90,0
1,note_on,90,76,0
1,note_on,90,0,960
1,note_on,93,0,0
1,note_on,81,0,0
1,note_on,88,68,0
1,note_on,92,81,0
1,note_on,80,68,0
1,note_on,80,0,120
1,note_on,92,0,0
1,note_on,88,0,0
1,note_on,90,81,120
1,note_on,78,68,0
1,note_on,87,68,0
1,note_on,87,0,120
1,note_on,78,0,0
1,note_on,90,0,0
1,note_on,88,76,120
1,note_on,80,76,0
1,note_on,92,90,0
1,note_on,92,0,120
1,note_on,80,0,0
1,note_on,88,0,0
1,note_on,87,68,120
1,note_on,78,68,0
1,note_on,90,81,0
1,note_on,90,0,120
1,note_on,78,0,0
1,note_on,87,0,0
1,note_on,76,68,120
1,note_on,88,81,0
1,note_on,85,68,0
1,note_on,85,0,120
1,note_on,88,0,0
1,note_on,76,0,0
1,note_on,78,76,120
1,note_on,90,90,0
1,note_on,87,76,0
1,note_on,87,0,120
1,note_on,90,0,0
1,note_on,78,0,0
1,note_on,71,68,360
1,note_on,83,81,0
1,note_on,83,0,120
1,note_on,71,0,0
1,note_on,83,82,120
1,note_on,92,97,0
1,note_on,95,97,0
1,note_on,95,0,120
1,note_on,92,0,0
1,note_on,83,0,0
1,note_on,88,77,360
1,note_on,92,91,0
1,note_on,80,77,0
1,note_on,80,0,480
1,note_on,92,0,0
1,note_on,88,0,0
1,note_on,88,77,0
1,note_on,93,91,0
1,note_on,81,77,0
1,note_on,81,0,720
1,note_on,93,0,0
1,note_on,88,0,0
1,note_on,88,75,0
1,note_on,90,89,0
1,note_on,78,75,0
1,note_on,78,0,360
1,note_on,90,0,0
1,note_on,88,0,0
1,note_on,88,67,0
1,note_on,80,67,0
1,note_on,92,79,0
1,note_on,92,0,110
1,note_on,80,0,0
1,note_on,88,0,0
1,note_on,92,88,10
1,note_on,88,74,0
1,note_on,80,74,0
1,note_on,80,0,120
1,note_on,88,0,0
1,note_on,92,0,0
1,note_on,76,69,360
1,note_on,68,69,0
1,note_on,80,81,0
1,note_on,80,0,480
1,note_on,68,0,0
1,note_on,76,0,0
1,note_on,81,81,0
1,note_on,76,69,0
1,note_on,69,69,0
1,note_on,69,0,720
1,note_on,76,0,0
1,note_on,81,0,0
1,note_on,66,67,0
1,note_on,76,67,0
1,note_on,78,80,0
1,note_on,78,0,350
1,note_on,76,0,0
1,note_on,66,0,0
1,note_on,76,60,10
1,note_on,80,71,0
1,note_on,68,60,0
1,note_on,68,0,110
1,note_on,80,0,0
1,note_on,76,0,0
1,note_on,76,66,10
1,note_on,68,66,0
1,note_on,80,79,0
1,note_on,80,0,120
1,note_on,68,0,0
1,note_on,76,0,0
1,note_on,76,67,300
1,note_on,80,67,30
1,note_on,88,80,30
1,note_on,88,0,180
1,note_on,80,0,0
1,note_on,76,0,0
1,note_on,52,66,60
1,note_on,64,79,0
1,note_on,64,0,120
1,note_on,52,0,0
1,note_on,76,67,1020
1,note_on,80,67,30
1,note_on,88,80,30
1,note_on,88,0,180
1,note_on,80,0,0
1,note_on,76,0,0
1,note_on,64,79,60
1,note_on,52,66,0
1,note_on,52,0,120
1,note_on,64,0,0
1,note_on,64,52,2460
1,note_on,68,51,30
1,note_on,76,61,30
1,note_on,76,0,180
1,note_on,68,0,0
1,note_on,64,0,0
1,note_on,52,55,60
1,note_on,52,0,120
1,note_on,68,40,1080
1,note_on,64,40,0
1,note_on,76,48,0
1,note_on,76,0,120
1,note_on,64,0,0
1,note_on,68,0,0
1,note_on,52,46,120
1,note_on,52,0,120
1,note_on,72,67,1980
1,note_on,76,67,30
1,note_on,84,80,30
1,note_on,84,0,180
1,note_on,76,0,0
1,note_on,72,0,0
1,note_on,60,45,300
1,note_on,64,54,0
1,note_on,64,0,120
1,note_on,60,0,0
1,note_on,60,50,120
1,note_on,64,59,0
1,note_on,64,0,120
1,note_on,60,0,0
1,note_on,62,45,120
1,note_on,65,53,0
1,note_on,65,0,120
1,note_on,62,0,0
1,note_on,67,53,120
1,note_on,64,45,0
1,note_on,64,0,120
1,note_on,67,0,0
1,note_on,69,59,120
1,note_on,65,50,0
1,note_on,65,0,120
1,note_on,69,0,0
1,note_on,64,45,120
1,note_on,67,54,0
1,note_on,67,0,120
1,note_on,64,0,0
1,note_on,72,67,60
1,note_on,76,67,30
1,note_on,84,80,30
1,note_on,84,0,180
1,note_on,76,0,0
1,note_on,72,0,0
1,note_on,64,59,60
1,note_on,60,50,0
1,note_on,60,0,120
1,note_on,64,0,0
1,note_on,65,53,120
1,note_on,62,45,0
1,note_on,62,0,120
1,note_on,65,0,0
1,note_on,67,53,120
1,note_on,64,45,0
1,note_on,64,0,120
1,note_on,67,0,0
1,note_on,65,50,120
1,note_on,69,59,0
1,note_on,69,0,120
1,note_on,65,0,0
1,note_on,67,54,120
1,note_on,64,45,0
1,note_on,64,0,120
1,note_on,67,0,0
1,note_on,65,45,120
1,note_on,69,53,0
1,note_on,69,0,120
1,note_on,65,0,0
1,note_on,67,50,120
1,note_on,71,59,0
1,note_on,71,0,120
1,note_on,67,0,0
1,note_on,69,45,120
1,note_on,72,54,0
1,note_on,72,0,120
1,note_on,69,0,0
1,note_on,71,45,120
1,note_on,74,53,0
1,note_on,74,0,120
1,note_on,71,0,0
1,note_on,76,67,60
1,note_on,79,67,20
1,note_on,84,67,20
1,note_on,88,80,20
1,note_on,88,0,180
1,note_on,76,0,0
1,note_on,79,0,0
1,note_on,84,0,0
1,note_on,64,45,300
1,note_on,67,54,0
1,note_on,67,0,120
1,note_on,64,0,0
1,note_on,64,51,120
1,note_on,67,60,0
1,note_on,67,0,120
1,note_on,64,0,0
1,note_on,69,56,120
1,note_on,65,46,0
1,note_on,65,0,120
1,note_on,69,0,0
1,note_on,67,48,120
1,note_on,71,57,0
1,note_on,71,0,120
1,note_on,67,0,0
1,note_on,72,65,120
1,note_on,69,55,0
1,note_on,69,0,120
1,note_on,72,0,0
1,note_on,67,51,120
1,note_on,71,61,0
1,note_on,71,0,120
1,note_on,67,0,0
1,note_on,76,78,60
1,note_on,79,78,20
1,note_on,84,78,20
1,note_on,88,93,20
1,note_on,88,0,180
1,note_on,76,0,0
1,note_on,79,0,0
1,note_on,84,0,0
1,note_on,71,65,60
1,note_on,67,54,0
1,note_on,67,0,120
1,note_on,71,0,0
1,note_on,69,50,120
1,note_on,72,60,0
1,note_on,72,0,120
1,note_on,69,0,0
1,note_on,74,62,120
1,note_on,71,51,0
1,note_on,71,0,120
1,note_on,74,0,0
1,note_on,72,59,120
1,note_on,76,71,0
1,note_on,76,0,120
1,note_on,72,0,0
1,note_on,74,66,120
1,note_on,71,56,0
1,note_on,71,0,120
1,note_on,74,0,0
1,note_on,76,67,120
1,note_on,72,56,0
1,note_on,72,0,120
1,note_on,76,0,0
1,note_on,74,64,120
1,note_on,78,77,0
1,note_on,78,0,120
1,note_on,74,0,0
1,note_on,79,72,120
1,note_on,76,60,0
1,note_on,76,0,120
1,note_on,79,0,0
1,note_on,78,61,120
1,note_on,81,72,0
1,note_on,81,0,120
1,note_on,78,0,0
1,note_on,83,76,120
1,note_on,95,90,0
1,note_on,91,76,0
1,note_on,91,0,960
1,note_on,95,0,0
1,note_on,83,0,0
1,note_on,90,68,0
1,note_on,81,68,0
1,note_on,93,81,0
1,note_on,93,0,120
1,note_on,81,0,0
1,note_on,90,0,0
1,note_on,79,68,120
1,note_on,91,81,0
1,note_on,88,68,0
1,note_on,88,0,120
1,note_on,91,0,0
1,note_on,79,0,0
1,note_on,81,76,120
1,note_on,90,76,0
1,note_on,93,90,0
1,note_on,93,0,960
1,note_on,90,0,0
1,note_on,81,0,0
1,note_on,91,81,0
1,note_on,88,68,0
1,note_on,79,68,0
1,note_on,79,0,120
1,note_on,88,0,0
1,note_on,91,0,0
1,note_on,78,68,120
1,note_on,87,68,0
1,note_on,90,81,0
1,note_on,90,0,120
1,note_on,87,0,0
1,note_on,78,0,0
1,note_on,91,90,120
1,note_on,79,76,0
1,note_on,88,76,0
1,note_on,88,0,120
1,note_on,79,0,0
1,note_on,91,0,0
1,note_on,78,68,120
1,note_on,87,68,0
1,note_on,90,81,0
1,note_on,90,0,120
1,note_on,87,0,0
1,note_on,78,0,0
1,note_on,88,81,120
1,note_on,85,68,0
1,note_on,76,68,0
1,note_on,76,0,120
1,note_on,85,0,0
1,note_on,88,0,0
1,note_on,78,76,120
1,note_on,87,76,0
1,note_on,90,90,0
1,note_on,90,0,120
1,note_on,87,0,0
1,note_on,78,0,0
1,note_on,83,81,360
1,note_on,71,68,0
1,note_on,71,0,120
1,note_on,83,0,0
1,note_on,83,76,120
1,note_on,92,76,0
1,note_on,95,90,0
1,note_on,95,0,960
1,note_on,92,0,0
1,note_on,83,0,0
1,note_on,93,81,0
1,note_on,90,68,0
1,note_on,81,68,0
1,note_on,81,0,120
1,note_on,90,0,0
1,note_on,93,0,0
1,note_on,80,68,120
1,note_on,88,68,0
1,note_on,92,81,0
1,note_on,92,0,120
1,note_on,88,0,0
1,note_on,80,0,0
1,note_on,90,76,120
1,note_on,81,76,0
1,note_on,93,90,0
1,note_on,93,0,960
1,note_on,81,0,0
1,note_on,90,0,0
1,note_on,80,68,0
1,note_on,92,81,0
1,note_on,88,68,0
1,note_on,88,0,120
1,note_on,92,0,0
1,note_on,80,0,0
1,note_on,87,68,120
1,note_on,78,68,0
1,note_on,90,81,0
1,note_on,90,0,120
1,note_on,78,0,0
1,note_on,87,0,0
1,note_on,80,76,120
1,note_on,92,90,0
1,note_on,88,76,0
1,note_on,88,0,120
1,note_on,92,0,0
1,note_on,80,0,0
1,note_on,78,68,120
1,note_on,87,68,0
1,note_on,90,81,0
1,note_on,90,0,120
1,note_on,87,0,0
1,note_on,78,0,0
1,note_on,88,81,120
1,note_on,85,68,0
1,note_on,76,68,0
1,note_on,76,0,120
1,note_on,85,0,0
1,note_on,88,0,0
1,note_on,78,76,120
1,note_on,87,76,0
1,note_on,90,90,0
1,note_on,90,0,120
1,note_on,87,0,0
1,note_on,78,0,0
1,note_on,83,81,360
1,note_on,71,68,0
1,note_on,71,0,120
1,note_on,83,0,0
1,note_on,83,82,120
1,note_on,92,97,0
1,note_on,95,97,0
1,note_on,95,0,120
1,note_on,92,0,0
1,note_on,83,0,0
1,note_on,92,91,360
1,note_on,88,77,0
1,note_on,80,77,0
1,note_on,80,0,480
1,note_on,88,0,0
1,note_on,92,0,0
1,note_on,81,77,0
1,note_on,88,77,0
1,note_on,93,91,0
1,note_on,93,0,720
1,note_on,88,0,0
1,note_on,81,0,0
1,note_on,90,89,0
1,note_on,78,75,0
1,note_on,88,75,0
1,note_on,88,0,360
1,note_on,78,0,0
1,note_on,90,0,0
1,note_on,88,67,0
1,note_on,80,67,0
1,note_on,92,79,0
1,note_on,92,0,110
1,note_on,80,0,0
1,note_on,88,0,0
1,note_on,92,88,10
1,note_on,88,74,0
1,note_on,80,74,0
1,note_on,80,0,120
1,note_on,88,0,0
1,note_on,92,0,0
1,note_on,68,69,360
1,note_on,76,69,0
1,note_on,80,81,0
1,note_on,80,0,480
1,note_on,76,0,0
1,note_on,68,0,0
1,note_on,76,69,0
1,note_on,69,69,0
1,note_on,81,81,0
1,note_on,81,0,720
1,note_on,69,0,0
1,note_on,76,0,0
1,note_on,66,67,0
1,note_on,78,80,0
1,note_on,76,67,0
1,note_on,76,0,350
1,note_on,78,0,0
1,note_on,66,0,0
1,note_on,68,60,10
1,note_on,76,60,0
1,note_on,80,71,0
1,note_on,80,0,110
1,note_on,76,0,0
1,note_on,68,0,0
1,note_on,68,66,10
1,note_on,80,79,0
1,note_on,76,66,0
1,note_on,76,0,120
1,note_on,80,0,0
1,note_on,68,0,0
1,note_on,76,67,300
1,note_on,80,67,30
1,note_on,88,80,30
1,note_on,88,0,180
1,note_on,80,0,0
1,note_on,76,0,0
1,note_on,64,79,60
1,note_on,52,66,0
1,note_on,52,0,120
1,note_on,64,0,0
1,note_on,76,67,1020
1,note_on,80,67,30
1,note_on,88,80,30
1,note_on,88,0,180
1,note_on,80,0,0
1,note_on,76,0,0
1,note_on,52,66,60
1,note_on,64,79,0
1,note_on,64,0,120
1,note_on,52,0,0
1,note_on,76,74,1800
1,note_on,76,0,120
1,note_on,69,73,120
1,note_on,73,87,0
1,note_on,81,87,0
1,note_on,81,0,120
1,note_on,73,0,0
1,note_on,69,0,0
1,note_on,64,55,120
1,note_on,61,46,0
1,note_on,61,0,120
1,note_on,64,0,0
1,note_on,62,55,120
1,note_on,59,46,0
1,note_on,59,0,120
1,note_on,62,0,0
1,note_on,57,51,120
1,note_on,61,60,0
1,note_on,61,0,230
1,note_on,57,0,0
1,note_on,61,46,1450
1,note_on,64,55,0
1,note_on,64,0,120
1,note_on,61,0,0
1,note_on,59,46,120
1,note_on,62,55,0
1,note_on,62,0,120
1,note_on,59,0,0
1,note_on,57,51,120
1,note_on,61,60,0
1,note_on,61,0,120
1,note_on,57,0,0
1,note_on,69,74,1080
1,note_on,69,0,120
1,note_on,65,73,120
1,note_on,77,87,0
1,note_on,77,0,120
1,note_on,65,0,0
1,note_on,65,46,120
1,note_on,69,55,0
1,note_on,69,0,120
1,note_on,65,0,0
1,note_on,64,46,120
1,note_on,67,55,0
1,note_on,67,0,120
1,note_on,64,0,0
1,note_on,62,51,120
1,note_on,65,60,0
1,note_on,65,0,120
1,note_on,62,0,0
1,note_on,62,41,120
1,note_on,65,49,0
1,note_on,65,0,120
1,note_on,62,0,0
1,note_on,57,41,120
1,note_on,64,49,0
1,note_on,64,0,120
1,note_on,57,0,0
1,note_on,62,58,120
1,note_on,53,49,0
1,note_on,53,0,120
1,note_on,62,0,0
1,note_on,65,46,840
1,note_on,69,55,0
1,note_on,69,0,120
1,note_on,65,0,0
1,note_on,64,46,120
1,note_on,67,55,0
1,note_on,67,0,120
1,note_on,64,0,0
1,note_on,62,51,120
1,note_on,65,60,0
1,note_on,65,0,120
1,note_on,62,0,0
1,note_on,65,49,120
1,note_on,62,41,0
1,note_on,62,0,120
1,note_on,65,0,0
1,note_on,64,49,120
1,note_on,57,41,0
1,note_on,57,0,120
1,note_on,64,0,0
1,note_on,53,49,120
1,note_on,62,58,0
1,note_on,62,0,120
1,note_on,53,0,0
1,note_on,72,74,360
1,note_on,72,0,120
1,note_on,69,73,120
1,note_on,81,87,0
1,note_on,81,0,120
1,note_on,69,0,0
1,note_on,69,46,120
1,note_on,72,55,0
1,note_on,72,0,120
1,note_on,69,0,0
1,note_on,70,55,120
1,note_on,67,46,0
1,note_on,67,0,120
1,note_on,70,0,0
1,note_on,69,60,120
1,note_on,65,51,0
1,note_on,65,0,120
1,note_on,69,0,0
1,note_on,69,49,120
1,note_on,65,41,0
1,note_on,65,0,120
1,note_on,69,0,0
1,note_on,60,41,120
1,note_on,67,49,0
1,note_on,67,0,120
1,note_on,60,0,0
1,note_on,65,58,120
1,note_on,57,49,0
1,note_on,57,0,120
1,note_on,65,0,0
1,note_on,72,55,840
1,note_on,69,46,0
1,note_on,69,0,120
1,note_on,72,0,0
1,note_on,67,46,120
1,note_on,70,55,0
1,note_on,70,0,120
1,note_on,67,0,0
1,note_on,65,51,120
1,note_on,69,60,0
1,note_on,69,0,120
1,note_on,65,0,0
1,note_on,65,41,120
1,note_on,69,49,0
1,note_on,69,0,120
1,note_on,65,0,0
1,note_on,67,49,120
1,note_on,60,41,0
1,note_on,60,0,120
1,note_on,67,0,0
1,note_on,65,58,120
1,note_on,57,49,0
1,note_on,57,0,120
1,note_on,65,0,0
1,note_on,77,74,360
1,note_on,77,0,120
1,note_on,74,73,120
1,note_on,86,87,0
1,note_on,86,0,120
1,note_on,74,0,0
1,note_on,70,46,120
1,note_on,74,55,0
1,note_on,74,0,120
1,note_on,70,0,0
1,note_on,72,55,120
1,note_on,65,46,0
1,note_on,65,0,120
1,note_on,72,0,0
1,note_on,62,51,120
1,note_on,70,60,0
1,note_on,70,0,120
1,note_on,62,0,0
1,note_on,74,64,1080
1,note_on,74,0,120
1,note_on,83,73,120
1,note_on,71,62,0
1,note_on,71,0,120
1,note_on,83,0,0
1,note_on,71,55,120
1,note_on,68,46,0
1,note_on,68,0,120
1,note_on,71,0,0
1,note_on,69,55,120
1,note_on,66,46,0
1,note_on,66,0,120
1,note_on,69,0,0
1,note_on,68,60,120
1,note_on,65,51,0
1,note_on,65,0,120
1,note_on,68,0,0
1,note_on,71,48,1080
1,note_on,71,0,120
1,note_on,68,49,120
1,note_on,80,58,0
1,note_on,80,0,120
1,note_on,68,0,0
1,note_on,68,51,120
1,note_on,65,43,0
1,note_on,65,0,120
1,note_on,68,0,0
1,note_on,67,48,120
1,note_on,64,40,0
1,note_on,64,0,120
1,note_on,67,0,0
1,note_on,65,45,120
1,note_on,62,38,0
1,note_on,62,0,120
1,note_on,65,0,0
1,note_on,71,74,1080
1,note_on,71,0,240
1,note_on,77,83,0
1,note_on,65,71,0
1,note_on,65,0,120
1,note_on,77,0,0
1,note_on,65,49,360
1,note_on,65,0,700
1,note_on,65,49,20
1,note_on,65,0,720
1,note_on,71,74,0
1,note_on,71,0,240
1,note_on,66,71,0
1,note_on,78,83,0
1,note_on,78,0,120
1,note_on,66,0,0
1,note_on,66,49,360
1,note_on,66,0,700
1,note_on,66,49,20
1,note_on,66,0,720
1,note_on,71,74,0
1,note_on,71,0,240
1,note_on,67,71,0
1,note_on,74,71,0
1,note_on,79,83,0
1,note_on,77,71,0
1,note_on,77,0,120
1,note_on,67,0,0
1,note_on,74,0,0
1,note_on,79,0,0
1,note_on,67,60,360
1,note_on,71,60,0
1,note_on,74,60,0
1,note_on,79,71,0
1,note_on,77,60,0
1,note_on,77,0,700
1,note_on,74,0,0
1,note_on,67,0,0
1,note_on,71,0,0
1,note_on,79,0,0
1,note_on,71,62,20
1,note_on,67,62,0
1,note_on,79,74,0
1,note_on,74,62,0
1,note_on,77,62,0
1,note_on,77,0,700
1,note_on,67,0,0
1,note_on,71,0,0
1,note_on,74,0,0
1,note_on,79,0,20
1,note_on,71,66,0
1,note_on,74,66,0
1,note_on,77,78,0
1,note_on,79,78,0
1,note_on,67,66,0
1,note_on,67,0,150
1,note_on,77,0,0
1,note_on,71,0,0
1,note_on,74,0,0
1,note_on,79,0,0
1,note_on,79,76,0
1,note_on,83,79,30
1,note_on,89,83,30
1,note_on,91,87,30
1,note_on,91,0,120
1,note_on,79,0,0
1,note_on,83,0,0
1,note_on,89,0,0
1,note_on,67,60,360
1,note_on,79,71,0
1,note_on,77,60,0
1,note_on,77,0,720
1,note_on,79,0,0
1,note_on,67,0,0
1,note_on,67,60,0
1,note_on,77,60,0
1,note_on,79,71,0
1,note_on,79,0,120
1,note_on,77,0,0
1,note_on,67,0,0
1,note_on,67,58,120
1,note_on,79,69,0
1,note_on,77,58,0
1,note_on,77,0,120
1,note_on,79,0,0
1,note_on,67,0,0
1,note_on,77,62,120
1,note_on,69,62,0
1,note_on,81,73,0
1,note_on,81,0,120
1,note_on,69,0,0
1,note_on,77,0,0
1,note_on,83,77,120
1,note_on,77,65,0
1,note_on,71,65,0
1,note_on,71,0,120
1,note_on,77,0,0
1,note_on,83,0,0
1,note_on,76,69,120
1,note_on,72,69,0
1,note_on,84,82,0
1,note_on,84,0,120
1,note_on,72,0,0
1,note_on,76,0,0
1,note_on,60,45,360
1,note_on,64,54,0
1,note_on,64,0,120
1,note_on,60,0,0
1,note_on,64,59,120
1,note_on,60,50,0
1,note_on,60,0,120
1,note_on,64,0,0
1,note_on,65,53,120
1,note_on,62,45,0
1,note_on,62,0,120
1,note_on,65,0,0
1,note_on,64,45,120
1,note_on,67,53,0
1,note_on,67,0,120
1,note_on,64,0,0
1,note_on,65,50,120
1,note_on,69,59,0
1,note_on,69,0,120
1,note_on,65,0,0
1,note_on,64,45,120
1,note_on,67,54,0
1,note_on,67,0,120
1,note_on,64,0,0
1,note_on,72,67,60
1,note_on,76,67,30
1,note_on,84,80,30
1,note_on,84,0,180
1,note_on,76,0,0
1,note_on,72,0,0
1,note_on,60,50,60
1,note_on,64,59,0
1,note_on,64,0,120
1,note_on,60,0,0
1,note_on,62,45,120
1,note_on,65,53,0
1,note_on,65,0,120
1,note_on,62,0,0
1,note_on,67,53,120
1,note_on,64,45,0
1,note_on,64,0,120
1,note_on,67,0,0
1,note_on,69,59,120
1,note_on,65,50,0
1,note_on,65,0,120
1,note_on,69,0,0
1,note_on,67,54,120
1,note_on,64,45,0
1,note_on,64,0,120
1,note_on,67,0,0
1,note_on,65,45,120
1,note_on,69,53,0
1,note_on,69,0,120
1,note_on,65,0,0
1,note_on,71,59,120
1,note_on,67,50,0
1,note_on,67,0,120
1,note_on,71,0,0
1,note_on,69,45,120
1,note_on,72,54,0
1,note_on,72,0,120
1,note_on,69,0,0
1,note_on,74,53,120
1,note_on,71,45,0
1,note_on,71,0,120
1,note_on,74,0,0
1,note_on,76,67,60
1,note_on,79,67,20
1,note_on,85,67,20
1,note_on,88,80,20
1,note_on,88,0,180
1,note_on,76,0,0
1,note_on,79,0,0
1,note_on,85,0,0
1,note_on,61,45,300
1,note_on,64,54,0
1,note_on,64,0,120
1,note_on,61,0,0
1,note_on,61,51,120
1,note_on,64,60,0
1,note_on,64,0,120
1,note_on,61,0,0
1,note_on,62,46,120
1,note_on,65,56,0
1,note_on,65,0,120
1,note_on,62,0,0
1,note_on,64,48,120
1,note_on,67,57,0
1,note_on,67,0,120
1,note_on,64,0,0
1,note_on,69,65,120
1,note_on,65,55,0
1,note_on,65,0,120
1,note_on,69,0,0
1,note_on,67,61,120
1,note_on,64,51,0
1,note_on,64,0,120
1,note_on,67,0,0
1,note_on,76,78,60
1,note_on,79,78,20
1,note_on,85,78,20
1,note_on,88,93,20
1,note_on,88,0,180
1,note_on,76,0,0
1,note_on,79,0,0
1,note_on,85,0,0
1,note_on,64,50,60
1,note_on,67,59,0
1,note_on,67,0,120
1,note_on,64,0,0
1,note_on,69,53,120
1,note_on,65,45,0
1,note_on,65,0,120
1,note_on,69,0,0
1,note_on,67,45,120
1,note_on,71,53,0
1,note_on,71,0,120
1,note_on,67,0,0
1,note_on,69,50,120
1,note_on,73,59,0
1,note_on,73,0,120
1,note_on,69,0,0
1,note_on,71,54,120
1,note_on,67,45,0
1,note_on,67,0,120
1,note_on,71,0,0
1,note_on,73,53,120
1,note_on,69,45,0
1,note_on,69,0,120
1,note_on,73,0,0
1,note_on,71,50,120
1,note_on,74,59,0
1,note_on,74,0,120
1,note_on,71,0,0
1,note_on,76,54,120
1,note_on,73,45,0
1,note_on,73,0,120
1,note_on,76,0,0
1,note_on,76,45,120
1,note_on,79,53,0
1,note_on,79,0,120
1,note_on,76,0,0
1,note_on,81,67,60
1,note_on,84,67,20
1,note_on,89,67,20
1,note_on,93,80,20
1,note_on,93,0,180
1,note_on,81,0,0
1,note_on,84,0,0
1,note_on,89,0,0
1,note_on,65,45,300
1,note_on,69,54,0
1,note_on,69,0,120
1,note_on,65,0,0
1,note_on,69,60,120
1,note_on,65,51,0
1,note_on,65,0,120
1,note_on,69,0,0
1,note_on,67,46,120
1,note_on,70,56,0
1,note_on,70,0,120
1,note_on,67,0,0
1,note_on,69,48,120
1,note_on,72,57,0
1,note_on,72,0,120
1,note_on,69,0,0
1,note_on,70,55,120
1,note_on,74,65,0
1,note_on,74,0,120
1,note_on,70,0,0
1,note_on,69,51,120
1,note_on,72,61,0
1,note_on,72,0,120
1,note_on,69,0,0
1,note_on,81,78,60
1,note_on,84,78,20
1,note_on,89,78,20
1,note_on,93,93,20
1,note_on,93,0,180
1,note_on,81,0,0
1,note_on,84,0,0
1,note_on,89,0,0
1,note_on,83,65,60
1,note_on,79,54,0
1,note_on,71,54,0
1,note_on,71,0,120
1,note_on,79,0,0
1,note_on,83,0,0
1,note_on,81,50,120
1,note_on,72,50,0
1,note_on,84,60,0
1,note_on,84,0,120
1,note_on,72,0,0
1,note_on,81,0,0
1,note_on,83,51,120
1,note_on,86,62,0
1,note_on,74,51,0
1,note_on,74,0,120
1,note_on,86,0,0
1,note_on,83,0,0
1,note_on,84,59,120
1,note_on,76,59,0
1,note_on,88,71,0
1,note_on,88,0,120
1,note_on,76,0,0
1,note_on,84,0,0
1,note_on,86,56,120
1,note_on,77,56,0
1,note_on,89,66,0
1,note_on,89,0,120
1,note_on,77,0,0
1,note_on,86,0,0
1,note_on,79,56,120
1,note_on,91,67,0
1,note_on,83,56,0
1,note_on,83,0,120
1,note_on,91,0,0
1,note_on,79,0,0
1,note_on,79,64,120
1,note_on,83,64,0
1,note_on,91,77,0
1,note_on,91,0,120
1,note_on,83,0,0
1,note_on,79,0,0
1,note_on,83,60,120
1,note_on,91,72,0
1,note_on,79,60,0
1,note_on,79,0,120
1,note_on,91,0,0
1,note_on,83,0,0
1,note_on,91,72,120
1,note_on,79,61,0
1,note_on,83,61,0
1,note_on,83,0,120
1,note_on,79,0,0
1,note_on,91,0,0
1,note_on,79,76,120
1,note_on,84,76,0
1,note_on,91,90,0
1,note_on,91,0,960
1,note_on,84,0,0
1,note_on,79,0,0
1,note_on,84,68,0
1,note_on,89,81,0
1,note_on,77,68,0
1,note_on,77,0,120
1,note_on,89,0,0
1,note_on,84,0,0
1,note_on,76,68,120
1,note_on,88,81,0
1,note_on,84,68,0
1,note_on,84,0,120
1,note_on,88,0,0
1,note_on,76,0,0
1,note_on,84,76,120
1,note_on,89,90,0
1,note_on,77,76,0
1,note_on,77,0,960
1,note_on,89,0,0
1,note_on,84,0,0
1,note_on,88,81,0
1,note_on,76,68,0
1,note_on,84,68,0
1,note_on,84,0,120
1,note_on,76,0,0
1,note_on,88,0,0
1,note_on,84,68,120
1,note_on,86,81,0
1,note_on,74,68,0
1,note_on,74,0,120
1,note_on,86,0,0
1,note_on,84,0,0
1,note_on,84,76,120
1,note_on,88,90,0
1,note_on,76,76,0
1,note_on,76,0,120
1,note_on,88,0,0
1,note_on,84,0,0
1,note_on,74,68,120
1,note_on,86,81,0
1,note_on,86,0,120
1,note_on,74,0,0
1,note_on,72,68,120
1,note_on,84,81,0
1,note_on,84,0,120
1,note_on,72,0,0
1,note_on,74,76,120
1,note_on,86,90,0
1,note_on,86,0,120
1,note_on,74,0,0
1,note_on,79,81,360
1,note_on,67,68,0
1,note_on,67,0,120
1,note_on,79,0,0
1,note_on,91,90,120
1,note_on,84,76,0
1,note_on,79,76,0
1,note_on,79,0,960
1,note_on,84,0,0
1,note_on,91,0,0
1,note_on,77,68,0
1,note_on,89,81,0
1,note_on,84,68,0
1,note_on,84,0,120
1,note_on,89,0,0
1,note_on,77,0,0
1,note_on,84,68,120
1,note_on,87,81,0
1,note_on,75,68,0
1,note_on,75,0,120
1,note_on,87,0,0
1,note_on,84,0,0
1,note_on,89,90,120
1,note_on,84,76,0
1,note_on,77,76,0
1,note_on,77,0,960
1,note_on,84,0,0
1,note_on,89,0,0
1,note_on,87,81,0
1,note_on,84,68,0
1,note_on,75,68,0
1,note_on,75,0,120
1,note_on,84,0,0
1,note_on,87,0,0
1,note_on,74,68,120
1,note_on,84,68,0
1,note_on,86,81,0
1,note_on,86,0,120
1,note_on,84,0,0
1,note_on,74,0,0
1,note_on,87,90,120
1,note_on,75,76,0
1,note_on,84,76,0
1,note_on,84,0,120
1,note_on,75,0,0
1,note_on,87,0,0
1,note_on,86,81,120
1,note_on,74,68,0
1,note_on,74,0,120
1,note_on,86,0,0
1,note_on,72,68,120
1,note_on,84,81,0
1,note_on,84,0,120
1,note_on,72,0,0
1,note_on,74,76,120
1,note_on,86,90,0
1,note_on,86,0,120
1,note_on,74,0,0
1,note_on,67,68,360
1,note_on,79,81,0
1,note_on,79,0,120
1,note_on,67,0,0
1,note_on,91,97,120
1,note_on,79,82,0
1,note_on,84,97,0
1,note_on,84,0,120
1,note_on,79,0,0
1,note_on,91,0,0
1,note_on,88,91,360
1,note_on,76,77,0
1,note_on,84,77,0
1,note_on,84,0,480
1,note_on,76,0,0
1,note_on,88,0,0
1,note_on,84,77,0
1,note_on,89,91,0
1,note_on,77,77,0
1,note_on,77,0,720
1,note_on,89,0,0
1,note_on,84,0,0
1,note_on,84,75,0
1,note_on,86,89,0
1,note_on,74,75,0
1,note_on,74,0,360
1,note_on,86,0,0
1,note_on,84,0,0
1,note_on,84,67,0
1,note_on,88,79,0
1,note_on,76,67,0
1,note_on,76,0,110
1,note_on,88,0,0
1,note_on,84,0,0
1,note_on,76,74,10
1,note_on,88,88,0
1,note_on,84,74,0
1,note_on,84,0,120
1,note_on,88,0,0
1,note_on,76,0,0
1,note_on,64,69,360
1,note_on,72,69,0
1,note_on,76,81,0
1,note_on,76,0,480
1,note_on,72,0,0
1,note_on,64,0,0
1,note_on,65,69,0
1,note_on,77,81,0
1,note_on,72,69,0
1,note_on,72,0,720
1,note_on,77,0,0
1,note_on,65,0,0
1,note_on,72,67,0
1,note_on,62,67,0
1,note_on,74,80,0
1,note_on,74,0,350
1,note_on,62,0,0
1,note_on,72,0,0
1,note_on,76,71,10
1,note_on,64,60,0
1,note_on,72,60,0
1,note_on,72,0,110
1,note_on,64,0,0
1,note_on,76,0,0
1,note_on,72,66,10
1,note_on,64,66,0
1,note_on,76,79,0
1,note_on,76,0,120
1,note_on,64,0,0
1,note_on,72,0,0
1,note_on,72,67,300
1,note_on,76,67,30
1,note_on,84,80,30
1,note_on,84,0,180
1,note_on,76,0,0
1,note_on,72,0,0
1,note_on,60,79,60
1,note_on,60,0,120
1,note_on,72,67,1020
1,note_on,76,67,30
1,note_on,84,80,30
1,note_on,84,0,180
1,note_on,76,0,0
1,note_on,72,0,0
1,note_on,60,79,60
1,note_on,60,0,120
1,note_on,72,42,2430
1,note_on,74,42,30
1,note_on,78,41,30
1,note_on,84,49,30
1,note_on,84,0,180
1,note_on,72,0,0
1,note_on,74,0,0
1,note_on,78,0,0
1,note_on,60,44,60
1,note_on,60,0,120
1,note_on,72,39,990
1,note_on,74,39,30
1,note_on,78,38,30
1,note_on,84,46,30
1,note_on,84,0,180
1,note_on,72,0,0
1,note_on,74,0,0
1,note_on,78,0,0
1,note_on,60,37,60
1,note_on,60,0,120
1,note_on,62,34,2520
1,note_on,67,34,0
1,note_on,71,40,0
1,note_on,71,0,220
1,note_on,67,0,0
1,note_on,62,0,0
1,note_on,71,48,20
1,note_on,67,40,0
1,note_on,62,40,0
1,note_on,62,0,1190
1,note_on,67,0,0
1,note_on,71,0,0
1,note_on,64,33,10
1,note_on,67,33,0
1,note_on,74,39,0
1,note_on,71,33,0
1,note_on,71,0,240
1,note_on,64,0,0
1,note_on,67,0,0
1,note_on,74,0,0
1,note_on,64,40,0
1,note_on,67,40,0
1,note_on,71,40,0
1,note_on,74,48,0
1,note_on,74,0,960
1,note_on,64,0,0
1,note_on,67,0,0
1,note_on,71,0,0
1,note_on,76,45,240
1,note_on,72,45,0
1,note_on,69,45,0
1,note_on,79,54,0
1,note_on,79,0,220
1,note_on,76,0,0
1,note_on,72,0,0
1,note_on,69,0,0
1,note_on,69,49,20
1,note_on,79,58,0
1,note_on,72,49,0
1,note_on,76,49,0
1,note_on,76,0,1920
1,note_on,69,0,0
1,note_on,79,0,0
1,note_on,72,0,0
1,note_on,67,42,0
1,note_on,69,42,0
1,note_on,76,50,0
1,note_on,76,0,240
1,note_on,69,0,0
1,note_on,67,0,0
1,note_on,72,54,0
1,note_on,67,45,0
1,note_on,64,45,0
1,note_on,64,0,480
1,note_on,67,0,0
1,note_on,72,0,0
1,note_on,62,39,0
1,note_on,67,39,0
1,note_on,71,46,0
1,note_on,71,0,240
1,note_on,67,0,0
1,note_on,62,0,0
1,note_on,66,42,0
1,note_on,59,42,0
1,note_on,68,50,0
1,note_on,68,0,480
1,note_on,59,0,0
1,note_on,66,0,0
1,note_on,60,39,0
1,note_on,69,47,0
1,note_on,66,39,0
1,note_on,66,0,240
1,note_on,69,0,0
1,note_on,60,0,0
1,note_on,72,53,0
1,note_on,64,45,0
1,note_on,64,0,720
1,note_on,72,0,0
1,note_on,62,42,0
1,note_on,66,50,0
1,note_on,66,0,480
1,note_on,62,0,0
1,note_on,71,40,720
1,note_on,62,34,0
1,note_on,67,34,0
1,note_on,67,0,220
1,note_on,62,0,0
1,note_on,71,0,0
1,note_on,62,40,20
1,note_on,67,40,0
1,note_on,71,48,0
1,note_on,71,0,1190
1,note_on,67,0,0
1,note_on,62,0,0
1,note_on,71,33,10
1,note_on,67,33,0
1,note_on,64,33,0
1,note_on,74,39,0
1,note_on,74,0,240
1,note_on,71,0,0
1,note_on,67,0,0
1,note_on,64,0,0
1,note_on,64,40,0
1,note_on,74,48,0
1,note_on,67,40,0
1,note_on,71,40,0
1,note_on,71,0,960
1,note_on,64,0,0
1,note_on,74,0,0
1,note_on,67,0,0
1,note_on,73,49,240
1,note_on,76,49,0
1,note_on,83,59,0
1,note_on,79,49,0
1,note_on,79,0,220
1,note_on,73,0,0
1,note_on,76,0,0
1,note_on,83,0,0
1,note_on,76,53,20
1,note_on,83,63,0
1,note_on,79,53,0
1,note_on,73,53,0
1,note_on,73,0,1920
1,note_on,76,0,0
1,note_on,83,0,0
1,note_on,79,0,0
1,note_on,81,50,0
1,note_on,73,42,0
1,note_on,76,42,0
1,note_on,76,0,240
1,note_on,73,0,0
1,note_on,81,0,0
1,note_on,71,45,0
1,note_on,73,45,0
1,note_on,79,54,0
1,note_on,79,0,480
1,note_on,73,0,0
1,note_on,71,0,0
1,note_on,78,46,0
1,note_on,73,39,0
1,note_on,69,39,0
1,note_on,69,0,240
1,note_on,73,0,0
1,note_on,78,0,0
1,note_on,66,41,0
1,note_on,73,41,0
1,note_on,75,49,0
1,note_on,75,0,240
1,note_on,73,0,0
1,note_on,66,0,0
1,note_on,73,37,0
1,note_on,67,37,0
1,note_on,76,44,0
1,note_on,76,0,240
1,note_on,67,0,0
1,note_on,73,0,0
1,note_on,71,37,0
1,note_on,79,44,0
1,note_on,73,44,0
1,note_on,73,0,240
1,note_on,79,0,0
1,note_on,71,0,0
1,note_on,73,43,0
1,note_on,69,43,0
1,note_on,78,51,0
1,note_on,78,0,1200
1,note_on,69,0,0
1,note_on,73,0,0
1,note_on,67,33,0
1,note_on,76,39,0
1,note_on,73,39,0
1,note_on,73,0,240
1,note_on,76,0,0
1,note_on,67,0,0
1,note_on,66,38,0
1,note_on,69,38,0
1,note_on,74,45,0
1,note_on,66,0,720
1,note_on,74,0,480
1,note_on,69,0,0
1,note_on,76,36,0
1,note_on,76,0,240
1,note_on,72,42,0
1,note_on,72,0,480
1,note_on,71,32,0
1,note_on,71,0,240
1,note_on,68,41,0
1,note_on,68,0,480
1,note_on,69,35,0
1,note_on,69,0,240
1,note_on,72,40,0
1,note_on,72,0,1200
1,note_on,67,34,0
1,note_on,67,0,240
1,note_on,65,41,0
1,note_on,62,34,0
1,note_on,65,0,480
1,note_on,66,35,0
1,note_on,66,0,240
1,note_on,62,0,0
1,note_on,69,39,480
1,note_on,79,36,0
1,note_on,79,0,240
1,note_on,76,42,0
1,note_on,76,0,480
1,note_on,72,32,0
1,note_on,72,0,240
1,note_on,69,0,0
1,note_on,62,34,0
1,note_on,68,34,0
1,note_on,71,41,0
1,note_on,71,0,480
1,note_on,68,0,0
1,note_on,62,0,0
1,note_on,72,35,0
1,note_on,69,29,0
1,note_on,69,0,240
1,note_on,72,0,0
1,note_on,62,34,0
1,note_on,72,40,0
1,note_on,76,40,0
1,note_on,62,0,720
1,note_on,76,0,480
1,note_on,72,0,0
1,note_on,71,34,0
1,note_on,67,28,0
1,note_on,67,0,240
1,note_on,71,0,0
1,note_on,68,41,0
1,note_on,65,28,0
1,note_on,65,0,480
1,note_on,68,0,0
1,note_on,66,29,0
1,note_on,69,35,0
1,note_on,69,0,240
1,note_on,66,0,0
1,note_on,83,41,480
1,note_on,72,39,0
1,note_on,83,0,240
1,note_on,79,47,0
1,note_on,79,0,480
1,note_on,76,34,0
1,note_on,76,0,240
1,note_on,72,0,0
1,note_on,72,39,480
1,note_on,83,41,0
1,note_on,83,0,240
1,note_on,79,47,0
1,note_on,79,0,480
1,note_on,76,34,0
1,note_on,76,0,240
1,note_on,72,0,0
1,note_on,72,39,480
1,note_on,81,41,0
1,note_on,81,0,240
1,note_on,79,47,0
1,note_on,79,0,480
1,note_on,76,34,0
1,note_on,76,0,240
1,note_on,72,0,0
1,note_on,79,41,480
1,note_on,69,39,0
1,note_on,79,0,240
1,note_on,76,47,0
1,note_on,76,0,480
1,note_on,72,34,0
1,note_on,72,0,240
1,note_on,69,0,0
1,note_on,78,47,480
1,note_on,72,47,0
1,note_on,69,39,0
1,note_on,69,0,240
1,note_on,72,0,0
1,note_on,78,0,0
1,note_on,69,45,0
1,note_on,72,53,0
1,note_on,76,53,0
1,note_on,76,0,480
1,note_on,72,0,0
1,note_on,69,0,0
1,note_on,74,46,0
1,note_on,69,39,0
1,note_on,69,0,240
1,note_on,74,0,0
1,note_on,69,45,0
1,note_on,72,54,0
1,note_on,72,0,480
1,note_on,69,0,0
1,note_on,67,38,0
1,note_on,71,45,0
1,note_on,71,0,240
1,note_on,67,0,0
1,note_on,67,34,0
1,note_on,70,41,0
1,note_on,73,38,960
1,note_on,73,0,720
1,note_on,76,37,0
1,note_on,76,0,480
1,note_on,70,0,0
1,note_on,67,0,0
1,note_on,62,31,0
1,note_on,69,37,0
1,note_on,69,0,1920
1,note_on,62,0,0
1,note_on,67,34,720
1,note_on,62,34,0
1,note_on,71,40,0
1,note_on,71,0,220
1,note_on,62,0,0
1,note_on,67,0,0
1,note_on,62,40,20
1,note_on,71,48,0
1,note_on,67,40,0
1,note_on,67,0,1190
1,note_on,71,0,0
1,note_on,62,0,0
1,note_on,67,33,10
1,note_on,74,39,0
1,note_on,71,33,0
1,note_on,64,33,0
1,note_on,64,0,240
1,note_on,67,0,0
1,note_on,74,0,0
1,note_on,71,0,0
1,note_on,71,40,0
1,note_on,74,48,0
1,note_on,67,40,0
1,note_on,64,40,0
1,note_on,64,0,960
1,note_on,71,0,0
1,note_on,74,0,0
1,note_on,67,0,0
1,note_on,69,45,240
1,note_on,79,54,0
1,note_on,76,45,0
1,note_on,72,45,0
1,note_on,72,0,220
1,note_on,69,0,0
1,note_on,79,0,0
1,note_on,76,0,0
1,note_on,69,49,20
1,note_on,72,49,0
1,note_on,76,49,0
1,note_on,79,58,0
1,note_on,79,0,1920
1,note_on,69,0,0
1,note_on,72,0,0
1,note_on,76,0,0
1,note_on,69,42,0
1,note_on,67,42,0
1,note_on,76,50,0
1,note_on,76,0,240
1,note_on,67,0,0
1,note_on,69,0,0
1,note_on,64,45,0
1,note_on,72,54,0
1,note_on,67,45,0
1,note_on,67,0,480
1,note_on,72,0,0
1,note_on,64,0,0
1,note_on,67,39,0
1,note_on,62,39,0
1,note_on,71,46,0
1,note_on,71,0,240
1,note_on,62,0,0
1,note_on,67,0,0
1,note_on,59,42,0
1,note_on,68,50,0
1,note_on,66,42,0
1,note_on,66,0,480
1,note_on,68,0,0
1,note_on,59,0,0
1,note_on,60,39,0
1,note_on,66,39,0
1,note_on,69,47,0
1,note_on,69,0,240
1,note_on,66,0,0
1,note_on,60,0,0
1,note_on,72,53,0
1,note_on,64,45,0
1,note_on,64,0,720
1,note_on,72,0,0
1,note_on,66,50,0
1,note_on,62,42,0
1,note_on,62,0,480
1,note_on,66,0,0
1,note_on,62,34,720
1,note_on,67,34,0
1,note_on,71,40,0
1,note_on,71,0,220
1,note_on,67,0,0
1,note_on,62,0,0
1,note_on,67,40,20
1,note_on,62,40,0
1,note_on,71,48,0
1,note_on,71,0,1190
1,note_on,62,0,0
1,note_on,67,0,0
1,note_on,64,33,10
1,note_on,74,39,0
1,note_on,71,33,0
1,note_on,67,33,0
1,note_on,67,0,240
1,note_on,64,0,0
1,note_on,74,0,0
1,note_on,71,0,0
1,note_on,64,40,0
1,note_on,67,40,0
1,note_on,71,40,0
1,note_on,74,48,0
1,note_on,74,0,1190
1,note_on,64,0,0
1,note_on,67,0,0
1,note_on,71,0,0
1,note_on,71,39,10
1,note_on,66,39,0
1,note_on,74,46,0
1,note_on,74,0,220
1,note_on,66,0,0
1,note_on,71,0,0
1,note_on,66,46,20
1,note_on,74,55,0
1,note_on,71,46,0
1,note_on,71,0,1190
1,note_on,74,0,0
1,note_on,66,0,0
1,note_on,71,42,10
1,note_on,78,50,0
1,note_on,74,42,0
1,note_on,67,42,0
1,note_on,67,0,240
1,note_on,71,0,0
1,note_on,78,0,0
1,note_on,74,0,0
1,note_on,74,52,0
1,note_on,78,63,0
1,note_on,71,52,0
1,note_on,67,52,0
1,note_on,67,0,1190
1,note_on,74,0,0
1,note_on,78,0,0
1,note_on,71,0,0
1,note_on,69,44,10
1,note_on,78,52,0
1,note_on,74,44,0
1,note_on,74,0,240
1,note_on,78,0,0
1,note_on,69,0,0
1,note_on,74,55,0
1,note_on,69,55,0
1,note_on,78,66,0
1,note_on,78,0,1190
1,note_on,69,0,0
1,note_on,74,0,0
1,note_on,71,47,10
1,note_on,81,57,0
1,note_on,74,47,0
1,note_on,78,47,0
1,note_on,78,0,240
1,note_on,71,0,0
1,note_on,81,0,0
1,note_on,74,0,0
1,note_on,71,60,0
1,note_on,74,60,0
1,note_on,81,73,0
1,note_on,78,60,0
1,note_on,78,0,1440
1,note_on,77,65,0
1,note_on,77,0,1920
1,note_on,81,0,0
1,note_on,74,0,0
1,note_on,71,0,0
1,note_on,71,46,0
1,note_on,74,46,0
1,note_on,80,55,0
1,note_on,80,0,240
1,note_on,74,0,0
1,note_on,71,0,0
1,note_on,83,69,0
1,note_on,83,0,720
1,note_on,74,55,0
1,note_on,68,46,0
1,note_on,68,0,480
1,note_on,74,0,0
1,note_on,69,46,720
1,note_on,73,55,0
1,note_on,76,69,240
1,note_on,76,0,720
1,note_on,73,0,0
1,note_on,69,0,0
1,note_on,67,55,0
1,note_on,67,0,480
1,note_on,78,46,720
1,note_on,76,46,0
1,note_on,84,55,0
1,note_on,84,0,240
1,note_on,76,0,0
1,note_on,78,0,0
1,note_on,88,74,0
1,note_on,88,0,720
1,note_on,78,55,0
1,note_on,72,46,0
1,note_on,72,0,480
1,note_on,78,0,0
1,note_on,72,39,720
1,note_on,74,39,0
1,note_on,77,46,0
1,note_on,81,58,240
1,note_on,81,0,720
1,note_on,72,0,0
1,note_on,74,0,0
1,note_on,77,0,0
1,note_on,71,43,0
1,note_on,74,46,0
1,note_on,74,0,480
1,note_on,71,0,0
1,note_on,67,34,720
1,note_on,72,34,0
1,note_on,76,40,0
1,note_on,76,0,220
1,note_on,72,0,0
1,note_on,67,0,0
1,note_on,76,48,20
1,note_on,67,40,0
1,note_on,72,40,0
1,note_on,72,0,1190
1,note_on,67,0,0
1,note_on,76,0,0
1,note_on,69,33,10
1,note_on,72,33,0
1,note_on,79,39,0
1,note_on,76,33,0
1,note_on,76,0,240
1,note_on,69,0,0
1,note_on,72,0,0
1,note_on,79,0,0
1,note_on,72,40,0
1,note_on,79,48,0
1,note_on,76,40,0
1,note_on,69,40,0
1,note_on,69,0,1190
1,note_on,72,0,0
1,note_on,79,0,0
1,note_on,76,0,0
1,note_on,81,45,10
1,note_on,84,54,0
1,note_on,77,45,0
1,note_on,74,45,0
1,note_on,74,0,220
1,note_on,81,0,0
1,note_on,84,0,0
1,note_on,77,0,0
1,note_on,74,49,20
1,note_on,84,58,0
1,note_on,81,49,0
1,note_on,77,49,0
1,note_on,77,0,1920
1,note_on,74,0,0
1,note_on,84,0,0
1,note_on,81,0,0
1,note_on,72,42,0
1,note_on,74,42,0
1,note_on,81,50,0
1,note_on,81,0,240
1,note_on,74,0,0
1,note_on,72,0,0
1,note_on,77,54,0
1,note_on,69,45,0
1,note_on,72,45,0
1,note_on,72,0,480
1,note_on,69,0,0
1,note_on,77,0,0
1,note_on,67,39,0
1,note_on,72,39,0
1,note_on,76,46,0
1,note_on,76,0,240
1,note_on,72,0,0
1,note_on,67,0,0
1,note_on,73,50,0
1,note_on,71,42,0
1,note_on,64,42,0
1,note_on,64,0,480
1,note_on,71,0,0
1,note_on,73,0,0
1,note_on,65,39,0
1,note_on,71,39,0
1,note_on,74,47,0
1,note_on,74,0,240
1,note_on,71,0,0
1,note_on,65,0,0
1,note_on,77,53,0
1,note_on,69,45,0
1,note_on,69,0,720
1,note_on,77,0,0
1,note_on,67,42,0
1,note_on,71,50,0
1,note_on,71,0,480
1,note_on,67,0,0
1,note_on,76,40,720
1,note_on,72,34,0
1,note_on,67,34,0
1,note_on,67,0,220
1,note_on,72,0,0
1,note_on,76,0,0
1,note_on,67,40,20
1,note_on,72,40,0
1,note_on,76,48,0
1,note_on,76,0,1190
1,note_on,72,0,0
1,note_on,67,0,0
1,note_on,76,33,10
1,note_on,79,39,0
1,note_on,72,33,0
1,note_on,69,33,0
1,note_on,69,0,240
1,note_on,76,0,0
1,note_on,79,0,0
1,note_on,72,0,0
1,note_on,69,40,0
1,note_on,79,48,0
1,note_on,76,40,0
1,note_on,72,40,0
1,note_on,72,0,960
1,note_on,69,0,0
1,note_on,79,0,0
1,note_on,76,0,0
1,note_on,78,49,240
1,note_on,81,49,0
1,note_on,84,49,0
1,note_on,88,59,0
1,note_on,88,0,220
1,note_on,78,0,0
1,note_on,81,0,0
1,note_on,84,0,0
1,note_on,81,53,20
1,note_on,88,63,0
1,note_on,84,53,0
1,note_on,78,53,0
1,note_on,78,0,1920
1,note_on,81,0,0
1,note_on,88,0,0
1,note_on,84,0,0
1,note_on,86,50,0
1,note_on,81,42,0
1,note_on,78,42,0
1,note_on,78,0,240
1,note_on,81,0,0
1,note_on,86,0,0
1,note_on,76,45,0
1,note_on,78,45,0
1,note_on,84,54,0
1,note_on,84,0,480
1,note_on,78,0,0
1,note_on,76,0,0
1,note_on,83,46,0
1,note_on,74,39,0
1,note_on,78,39,0
1,note_on,78,0,240
1,note_on,74,0,0
1,note_on,83,0,0
1,note_on,71,41,0
1,note_on,78,41,0
1,note_on,80,49,0
1,note_on,80,0,240
1,note_on,78,0,0
1,note_on,71,0,0
1,note_on,81,44,0
1,note_on,78,37,0
1,note_on,72,37,0
1,note_on,72,0,240
1,note_on,78,0,0
1,note_on,81,0,0
1,note_on,76,37,0
1,note_on,78,44,0
1,note_on,84,44,0
1,note_on,84,0,240
1,note_on,78,0,0
1,note_on,76,0,0
1,note_on,78,43,0
1,note_on,74,43,0
1,note_on,83,51,0
1,note_on,83,0,1200
1,note_on,74,0,0
1,note_on,78,0,0
1,note_on,72,33,0
1,note_on,81,39,0
1,note_on,78,39,0
1,note_on,78,0,240
1,note_on,81,0,0
1,note_on,72,0,0
1,note_on,66,41,0
1,note_on,59,41,0
1,note_on,68,49,0
1,note_on,68,0,240
1,note_on,59,0,0
1,note_on,66,0,0
1,note_on,60,37,0
1,note_on,69,44,0
1,note_on,66,37,0
1,note_on,66,0,240
1,note_on,69,0,0
1,note_on,60,0,0
1,note_on,64,37,0
1,note_on,66,44,0
1,note_on,72,44,0
1,note_on,72,0,240
1,note_on,66,0,0
1,note_on,64,0,0
1,note_on,71,51,0
1,note_on,66,43,0
1,note_on,62,43,0
1,note_on,62,0,1200
1,note_on,66,0,0
1,note_on,71,0,0
1,note_on,60,33,0
1,note_on,66,39,0
1,note_on,69,39,0
1,note_on,69,0,240
1,note_on,66,0,0
1,note_on,60,0,0
1,note_on,82,67,0
1,note_on,73,56,0
1,note_on,80,56,0
1,note_on,80,0,240
1,note_on,73,0,0
1,note_on,82,0,0
1,note_on,74,50,0
1,note_on,80,50,0
1,note_on,83,60,0
1,note_on,83,0,240
1,note_on,80,0,0
1,note_on,74,0,0
1,note_on,86,60,0
1,note_on,80,60,0
1,note_on,77,50,0
1,note_on,77,0,240
1,note_on,80,0,0
1,note_on,86,0,0
1,note_on,76,58,0
1,note_on,80,58,0
1,note_on,84,69,0
1,note_on,84,0,1200
1,note_on,80,0,0
1,note_on,76,0,0
1,note_on,80,52,0
1,note_on,74,44,0
1,note_on,83,52,0
1,note_on,83,0,240
1,note_on,74,0,0
1,note_on,80,0,0
1,note_on,61,56,0
1,note_on,70,67,0
1,note_on,68,56,0
1,note_on,68,0,240
1,note_on,70,0,0
1,note_on,61,0,0
1,note_on,68,50,0
1,note_on,62,50,0
1,note_on,71,60,0
1,note_on,71,0,240
1,note_on,62,0,0
1,note_on,68,0,0
1,note_on,65,50,0
1,note_on,74,60,0
1,note_on,68,60,0
1,note_on,68,0,240
1,note_on,74,0,0
1,note_on,65,0,0
1,note_on,64,58,0
1,note_on,68,58,0
1,note_on,72,69,0
1,note_on,72,0,1200
1,note_on,68,0,0
1,note_on,64,0,0
1,note_on,71,52,0
1,note_on,68,52,0
1,note_on,62,44,0
1,note_on,62,0,240
1,note_on,68,0,0
1,note_on,71,0,0
1,note_on,74,58,0
1,note_on,80,58,0
1,note_on,83,70,0
1,note_on,83,0,240
1,note_on,80,0,0
1,note_on,74,0,0
1,note_on,84,62,0
1,note_on,76,52,0
1,note_on,81,52,0
1,note_on,81,0,240
1,note_on,76,0,0
1,note_on,84,0,0
1,note_on,81,52,0
1,note_on,84,62,0
1,note_on,90,62,0
1,note_on,90,0,230
1,note_on,84,0,0
1,note_on,81,0,0
1,note_on,90,72,10
1,note_on,84,61,0
1,note_on,81,61,0
1,note_on,81,0,1200
1,note_on,84,0,0
1,note_on,90,0,0
1,note_on,84,62,0
1,note_on,88,62,0
1,note_on,93,73,0
1,note_on,93,0,230
1,note_on,88,0,0
1,note_on,84,0,0
1,note_on,88,66,10
1,note_on,84,66,0
1,note_on,93,78,0
1,note_on,93,0,1200
1,note_on,84,0,0
1,note_on,88,0,0
1,note_on,81,55,0
1,note_on,90,65,0
1,note_on,84,55,0
1,note_on,84,0,240
1,note_on,90,0,0
1,note_on,81,0,0
1,note_on,81,61,0
1,note_on,78,61,0
1,note_on,86,72,0
1,note_on,86,0,480
1,note_on,78,0,0
1,note_on,81,0,0
1,note_on,76,54,0
1,note_on,84,64,0
1,note_on,81,54,0
1,note_on,81,0,240
1,note_on,84,0,0
1,note_on,76,0,0
1,note_on,71,53,0
1,note_on,78,53,0
1,note_on,80,63,0
1,note_on,80,0,240
1,note_on,78,0,0
1,note_on,71,0,0
1,note_on,81,55,0
1,note_on,78,46,0
1,note_on,72,46,0
1,note_on,72,0,240
1,note_on,78,0,0
1,note_on,81,0,0
1,note_on,76,45,0
1,note_on,78,54,0
1,note_on,84,54,0
1,note_on,84,0,240
1,note_on,78,0,0
1,note_on,76,0,0
1,note_on,83,61,0
1,note_on,74,51,0
1,note_on,78,51,0
1,note_on,78,0,1200
1,note_on,74,0,0
1,note_on,83,0,0
1,note_on,72,34,0
1,note_on,78,40,0
1,note_on,81,40,0
1,note_on,81,0,170
1,note_on,78,0,0
1,note_on,72,0,0
1,note_on,67,55,10
1,note_on,71,54,30
1,note_on,79,67,30
1,note_on,79,0,180
1,note_on,71,0,0
1,note_on,67,0,0
1,note_on,59,37,300
1,note_on,59,0,120
1,note_on,59,41,120
1,note_on,55,35,0
1,note_on,55,0,120
1,note_on,59,0,0
1,note_on,57,31,120
1,note_on,60,37,0
1,note_on,60,0,120
1,note_on,57,0,0
1,note_on,62,37,120
1,note_on,59,31,0
1,note_on,59,0,120
1,note_on,62,0,0
1,note_on,60,35,120
1,note_on,64,41,0
1,note_on,64,0,120
1,note_on,60,0,0
1,note_on,62,37,120
1,note_on,59,31,0
1,note_on,59,0,120
1,note_on,62,0,0
1,note_on,67,51,60
1,note_on,71,55,30
1,note_on,79,64,30
1,note_on,79,0,180
1,note_on,71,0,0
1,note_on,67,0,0
1,note_on,59,41,60
1,note_on,55,35,0
1,note_on,55,0,120
1,note_on,59,0,0
1,note_on,57,31,120
1,note_on,60,37,0
1,note_on,60,0,120
1,note_on,57,0,0
1,note_on,62,37,120
1,note_on,59,31,0
1,note_on,59,0,120
1,note_on,62,0,0
1,note_on,60,35,120
1,note_on,64,41,0
1,note_on,64,0,120
1,note_on,60,0,0
1,note_on,59,31,120
1,note_on,62,37,0
1,note_on,62,0,120
1,note_on,59,0,0
1,note_on,67,49,60
1,note_on,71,49,30
1,note_on,79,64,30
1,note_on,79,0,180
1,note_on,71,0,0
1,note_on,67,0,0
1,note_on,67,49,480
1,note_on,71,49,30
1,note_on,79,65,30
1,note_on,79,0,180
1,note_on,71,0,0
1,note_on,67,0,0
1,note_on,81,64,60
1,note_on,72,52,0
1,note_on,69,52,0
1,note_on,69,0,180
1,note_on,72,0,0
1,note_on,81,0,0
1,note_on,53,28,300
1,note_on,57,38,0
1,note_on,57,0,120
1,note_on,53,0,0
1,note_on,57,42,120
1,note_on,53,36,0
1,note_on,53,0,120
1,note_on,57,0,0
1,note_on,55,33,120
1,note_on,58,40,0
1,note_on,58,0,120
1,note_on,55,0,0
1,note_on,57,34,120
1,note_on,60,41,0
1,note_on,60,0,120
1,note_on,57,0,0
1,note_on,58,40,120
1,note_on,62,47,0
1,note_on,62,0,120
1,note_on,58,0,0
1,note_on,57,37,120
1,note_on,60,44,0
1,note_on,60,0,120
1,note_on,57,0,0
1,note_on,69,57,120
1,note_on,72,57,0
1,note_on,81,68,0
1,note_on,81,0,180
1,note_on,72,0,0
1,note_on,69,0,0
1,note_on,53,38,60
1,note_on,57,45,0
1,note_on,57,0,120
1,note_on,53,0,0
1,note_on,58,42,120
1,note_on,55,34,0
1,note_on,55,0,120
1,note_on,58,0,0
1,note_on,60,43,120
1,note_on,57,36,0
1,note_on,57,0,120
1,note_on,60,0,0
1,note_on,72,60,600
1,note_on,69,60,0
1,note_on,81,71,0
1,note_on,81,0,180
1,note_on,69,0,0
1,note_on,72,0,0
1,note_on,69,61,540
1,note_on,81,73,0
1,note_on,72,61,0
1,note_on,72,0,180
1,note_on,81,0,0
1,note_on,69,0,0
1,note_on,71,60,60
1,note_on,80,60,0
1,note_on,83,73,0
1,note_on,83,0,180
1,note_on,80,0,0
1,note_on,71,0,0
1,note_on,52,35,300
1,note_on,56,43,0
1,note_on,56,0,120
1,note_on,52,0,0
1,note_on,56,48,120
1,note_on,52,41,0
1,note_on,52,0,120
1,note_on,56,0,0
1,note_on,57,45,120
1,note_on,54,37,0
1,note_on,54,0,120
1,note_on,57,0,0
1,note_on,56,39,120
1,note_on,59,46,0
1,note_on,59,0,120
1,note_on,56,0,0
1,note_on,57,45,120
1,note_on,60,53,0
1,note_on,60,0,120
1,note_on,57,0,0
1,note_on,59,50,120
1,note_on,56,42,0
1,note_on,56,0,120
1,note_on,59,0,0
1,note_on,71,65,60
1,note_on,80,65,30
1,note_on,83,78,30
1,note_on,83,0,180
1,note_on,80,0,0
1,note_on,71,0,0
1,note_on,56,51,60
1,note_on,52,43,0
1,note_on,52,0,120
1,note_on,56,0,0
1,note_on,57,47,120
1,note_on,54,39,0
1,note_on,54,0,120
1,note_on,57,0,0
1,note_on,59,49,120
1,note_on,56,41,0
1,note_on,56,0,120
1,note_on,59,0,0
1,note_on,71,67,600
1,note_on,80,67,0
1,note_on,83,80,0
1,note_on,83,0,180
1,note_on,80,0,0
1,note_on,71,0,0
1,note_on,80,69,540
1,note_on,83,82,0
1,note_on,71,69,0
1,note_on,71,0,180
1,note_on,83,0,0
1,note_on,80,0,0
1,note_on,74,63,0
1,note_on,77,66,20
1,note_on,81,68,20
1,note_on,86,82,20
1,note_on,86,0,180
1,note_on,74,0,0
1,note_on,77,0,0
1,note_on,81,0,0
1,note_on,62,46,300
1,note_on,65,49,0
1,note_on,65,0,120
1,note_on,62,0,0
1,note_on,62,46,120
1,note_on,65,54,0
1,note_on,65,0,120
1,note_on,62,0,0
1,note_on,64,42,120
1,note_on,67,51,0
1,note_on,67,0,120
1,note_on,64,0,0
1,note_on,69,52,120
1,note_on,65,44,0
1,note_on,65,0,120
1,note_on,69,0,0
1,note_on,67,51,120
1,note_on,70,60,0
1,note_on,70,0,120
1,note_on,67,0,0
1,note_on,69,56,120
1,note_on,65,47,0
1,note_on,65,0,120
1,note_on,69,0,0
1,note_on,74,73,60
1,note_on,77,73,20
1,note_on,81,73,20
1,note_on,86,87,20
1,note_on,86,0,180
1,note_on,74,0,0
1,note_on,77,0,0
1,note_on,81,0,0
1,note_on,62,48,60
1,note_on,65,57,0
1,note_on,65,0,120
1,note_on,62,0,0
1,note_on,64,43,120
1,note_on,67,53,0
1,note_on,67,0,120
1,note_on,64,0,0
1,note_on,65,46,120
1,note_on,69,54,0
1,note_on,69,0,120
1,note_on,65,0,0
1,note_on,74,75,540
1,note_on,77,75,20
1,note_on,81,75,20
1,note_on,86,90,20
1,note_on,86,0,180
1,note_on,74,0,0
1,note_on,77,0,0
1,note_on,81,0,0
1,note_on,74,77,480
1,note_on,77,77,20
1,note_on,81,77,20
1,note_on,86,92,20
1,note_on,86,0,180
1,note_on,74,0,0
1,note_on,77,0,0
1,note_on,81,0,0
1,note_on,77,67,0
1,note_on,83,67,30
1,note_on,91,80,30
1,note_on,91,0,180
1,note_on,83,0,0
1,note_on,77,0,0
1,note_on,71,54,300
1,note_on,67,45,0
1,note_on,67,0,120
1,note_on,71,0,0
1,note_on,71,60,120
1,note_on,67,51,0
1,note_on,67,0,120
1,note_on,71,0,0
1,note_on,72,56,120
1,note_on,69,46,0
1,note_on,69,0,120
1,note_on,72,0,0
1,note_on,74,57,120
1,note_on,71,48,0
1,note_on,71,0,120
1,note_on,74,0,0
1,note_on,72,55,120
1,note_on,76,65,0
1,note_on,76,0,120
1,note_on,72,0,0
1,note_on,74,61,120
1,note_on,71,51,0
1,note_on,71,0,120
1,note_on,74,0,0
1,note_on,77,78,60
1,note_on,83,78,30
1,note_on,91,93,30
1,note_on,91,0,180
1,note_on,83,0,0
1,note_on,77,0,0
1,note_on,67,50,60
1,note_on,71,59,0
1,note_on,71,0,120
1,note_on,67,0,0
1,note_on,72,53,120
1,note_on,69,45,0
1,note_on,69,0,120
1,note_on,72,0,0
1,note_on,74,53,120
1,note_on,71,45,0
1,note_on,71,0,120
1,note_on,74,0,0
1,note_on,76,59,120
1,note_on,72,50,0
1,note_on,72,0,120
1,note_on,76,0,0
1,note_on,71,45,120
1,note_on,74,54,0
1,note_on,74,0,120
1,note_on,71,0,0
1,note_on,76,53,120
1,note_on,72,45,0
1,note_on,72,0,120
1,note_on,76,0,0
1,note_on,77,59,120
1,note_on,74,50,0
1,note_on,74,0,120
1,note_on,77,0,0
1,note_on,76,45,120
1,note_on,79,54,0
1,note_on,79,0,120
1,note_on,76,0,0
1,note_on,77,45,120
1,note_on,81,53,0
1,note_on,81,0,120
1,note_on,77,0,0
1,note_on,79,78,60
1,note_on,83,78,30
1,note_on,91,93,30
1,note_on,91,0,180
1,note_on,83,0,0
1,note_on,79,0,0
1,note_on,74,54,300
1,note_on,71,45,0
1,note_on,71,0,120
1,note_on,74,0,0
1,note_on,74,60,120
1,note_on,71,51,0
1,note_on,71,0,120
1,note_on,74,0,0
1,note_on,76,56,120
1,note_on,72,46,0
1,note_on,72,0,120
1,note_on,76,0,0
1,note_on,77,57,120
1,note_on,74,48,0
1,note_on,74,0,120
1,note_on,77,0,0
1,note_on,76,55,120
1,note_on,79,65,0
1,note_on,79,0,120
1,note_on,76,0,0
1,note_on,77,61,120
1,note_on,74,51,0
1,note_on,74,0,120
1,note_on,77,0,0
1,note_on,79,78,60
1,note_on,83,78,30
1,note_on,91,93,30
1,note_on,91,0,180
1,note_on,83,0,0
1,note_on,79,0,0
1,note_on,74,54,60
1,note_on,83,54,0
1,note_on,86,65,0
1,note_on,86,0,120
1,note_on,83,0,0
1,note_on,74,0,0
1,note_on,84,50,120
1,note_on,76,50,0
1,note_on,88,60,0
1,note_on,88,0,120
1,note_on,76,0,0
1,note_on,84,0,0
1,note_on,89,62,120
1,note_on,77,51,0
1,note_on,86,51,0
1,note_on,86,0,120
1,note_on,77,0,0
1,note_on,89,0,0
1,note_on,91,71,120
1,note_on,88,59,0
1,note_on,79,59,0
1,note_on,79,0,120
1,note_on,88,0,0
1,note_on,91,0,0
1,note_on,93,66,120
1,note_on,81,56,0
1,note_on,89,56,0
1,note_on,89,0,120
1,note_on,81,0,0
1,note_on,93,0,0
1,note_on,82,56,120
1,note_on,91,56,0
1,note_on,94,67,0
1,note_on,94,0,120
1,note_on,91,0,0
1,note_on,82,0,0
1,note_on,94,77,120
1,note_on,82,64,0
1,note_on,91,64,0
1,note_on,91,0,120
1,note_on,82,0,0
1,note_on,94,0,0
1,note_on,94,72,120
1,note_on,82,60,0
1,note_on,91,60,0
1,note_on,91,0,120
1,note_on,82,0,0
1,note_on,94,0,0
1,note_on,82,61,120
1,note_on,94,72,0
1,note_on,91,61,0
1,note_on,91,0,120
1,note_on,94,0,0
1,note_on,82,0,0
1,note_on,95,90,120
1,note_on,91,76,0
1,note_on,83,76,0
1,note_on,83,0,960
1,note_on,91,0,0
1,note_on,95,0,0
1,note_on,81,68,0
1,note_on,93,81,0
1,note_on,90,68,0
1,note_on,90,0,120
1,note_on,93,0,0
1,note_on,81,0,0
1,note_on,88,68,120
1,note_on,91,81,0
1,note_on,79,68,0
1,note_on,79,0,120
1,note_on,91,0,0
1,note_on,88,0,0
1,note_on,90,76,120
1,note_on,93,90,0
1,note_on,81,76,0
1,note_on,81,0,960
1,note_on,93,0,0
1,note_on,90,0,0
1,note_on,79,68,0
1,note_on,88,68,0
1,note_on,91,81,0
1,note_on,91,0,120
1,note_on,88,0,0
1,note_on,79,0,0
1,note_on,78,68,120
1,note_on,87,68,0
1,note_on,90,81,0
1,note_on,90,0,120
1,note_on,87,0,0
1,note_on,78,0,0
1,note_on,79,76,120
1,note_on,91,90,0
1,note_on,88,76,0
1,note_on,88,0,120
1,note_on,91,0,0
1,note_on,79,0,0
1,note_on,87,68,120
1,note_on,90,81,0
1,note_on,78,68,0
1,note_on,78,0,120
1,note_on,90,0,0
1,note_on,87,0,0
1,note_on,85,68,120
1,note_on,76,68,0
1,note_on,88,81,0
1,note_on,88,0,120
1,note_on,76,0,0
1,note_on,85,0,0
1,note_on,90,90,120
1,note_on,87,76,0
1,note_on,78,76,0
1,note_on,78,0,120
1,note_on,87,0,0
1,note_on,90,0,0
1,note_on,83,81,360
1,note_on,71,68,0
1,note_on,71,0,120
1,note_on,83,0,0
1,note_on,95,90,120
1,note_on,83,76,0
1,note_on,92,76,0
1,note_on,92,0,960
1,note_on,83,0,0
1,note_on,95,0,0
1,note_on,90,68,0
1,note_on,93,81,0
1,note_on,81,68,0
1,note_on,81,0,120
1,note_on,93,0,0
1,note_on,90,0,0
1,note_on,88,68,120
1,note_on,80,68,0
1,note_on,92,81,0
1,note_on,92,0,120
1,note_on,80,0,0
1,note_on,88,0,0
1,note_on,90,76,120
1,note_on,81,76,0
1,note_on,93,90,0
1,note_on,93,0,960
1,note_on,81,0,0
1,note_on,90,0,0
1,note_on,80,68,0
1,note_on,88,68,0
1,note_on,92,81,0
1,note_on,92,0,120
1,note_on,88,0,0
1,note_on,80,0,0
1,note_on,90,81,120
1,note_on,87,68,0
1,note_on,78,68,0
1,note_on,78,0,120
1,note_on,87,0,0
1,note_on,90,0,0
1,note_on,92,90,120
1,note_on,80,76,0
1,note_on,88,76,0
1,note_on,88,0,120
1,note_on,80,0,0
1,note_on,92,0,0
1,note_on,90,81,120
1,note_on,87,68,0
1,note_on,78,68,0
1,note_on,78,0,120
1,note_on,87,0,0
1,note_on,90,0,0
1,note_on,85,68,120
1,note_on,76,68,0
1,note_on,88,81,0
1,note_on,88,0,120
1,note_on,76,0,0
1,note_on,85,0,0
1,note_on,87,76,120
1,note_on,90,90,0
1,note_on,78,76,0
1,note_on,78,0,120
1,note_on,90,0,0
1,note_on,87,0,0
1,note_on,83,81,360
1,note_on,71,68,0
1,note_on,71,0,120
1,note_on,83,0,0
1,note_on,95,97,120
1,note_on,92,97,0
1,note_on,83,82,0
1,note_on,83,0,120
1,note_on,92,0,0
1,note_on,95,0,0
1,note_on,80,77,360
1,note_on,92,91,0
1,note_on,88,77,0
1,note_on,88,0,480
1,note_on,92,0,0
1,note_on,80,0,0
1,note_on,81,77,0
1,note_on,93,91,0
1,note_on,88,77,0
1,note_on,88,0,720
1,note_on,93,0,0
1,note_on,81,0,0
1,note_on,90,89,0
1,note_on,88,75,0
1,note_on,78,75,0
1,note_on,78,0,360
1,note_on,88,0,0
1,note_on,90,0,0
1,note_on,92,79,0
1,note_on,88,67,0
1,note_on,80,67,0
1,note_on,80,0,110
1,note_on,88,0,0
1,note_on,92,0,0
1,note_on,80,74,10
1,note_on,92,88,0
1,note_on,88,74,0
1,note_on,88,0,120
1,note_on,92,0,0
1,note_on,80,0,0
1,note_on,68,69,360
1,note_on,80,81,0
1,note_on,76,69,0
1,note_on,76,0,480
1,note_on,80,0,0
1,note_on,68,0,0
1,note_on,76,69,0
1,note_on,69,69,0
1,note_on,81,81,0
1,note_on,81,0,720
1,note_on,69,0,0
1,note_on,76,0,0
1,note_on,78,80,0
1,note_on,76,67,0
1,note_on,66,67,0
1,note_on,66,0,350
1,note_on,76,0,0
1,note_on,78,0,0
1,note_on,68,60,10
1,note_on,80,71,0
1,note_on,76,60,0
1,note_on,76,0,110
1,note_on,80,0,0
1,note_on,68,0,0
1,note_on,76,66,10
1,note_on,80,79,0
1,note_on,68,66,0
1,note_on,68,0,120
1,note_on,80,0,0
1,note_on,76,0,0
1,note_on,76,77,300
1,note_on,80,77,30
1,note_on,88,92,30
1,note_on,88,0,180
1,note_on,80,0,0
1,note_on,76,0,0
1,note_on,52,77,60
1,note_on,64,90,0
1,note_on,64,0,120
1,note_on,52,0,0
1,note_on,76,77,1020
1,note_on,80,77,30
1,note_on,88,92,30
1,note_on,88,0,180
1,note_on,80,0,0
1,note_on,76,0,0
1,note_on,52,77,60
1,note_on,64,90,0
1,note_on,64,0,120
1,note_on,52,0,0
1,note_on,64,64,1800
1,note_on,64,0,240
1,note_on,64,70,0
1,note_on,60,59,0
1,note_on,60,0,720
1,note_on,64,0,0
1,note_on,64,55,0
1,note_on,69,65,0
1,note_on,69,0,480
1,note_on,64,0,0
1,note_on,64,58,0
1,note_on,71,69,0
1,note_on,71,0,240
1,note_on,64,0,0
1,note_on,72,63,0
1,note_on,76,75,0
1,note_on,76,0,720
1,note_on,72,0,0
1,note_on,69,58,0
1,note_on,72,69,0
1,note_on,72,0,480
1,note_on,69,0,0
1,note_on,64,64,0
1,note_on,64,0,240
1,note_on,64,70,0
1,note_on,60,59,0
1,note_on,60,0,720
1,note_on,64,0,0
1,note_on,64,55,0
1,note_on,69,65,0
1,note_on,69,0,480
1,note_on,64,0,0
1,note_on,64,58,0
1,note_on,71,69,0
1,note_on,71,0,240
1,note_on,64,0,0
1,note_on,72,63,0
1,note_on,76,75,0
1,note_on,76,0,1190
1,note_on,72,0,0
1,note_on,72,58,10
1,note_on,76,69,0
1,note_on,76,0,240
1,note_on,72,0,0
1,note_on,67,63,0
1,note_on,79,75,0
1,note_on,76,63,0
1,note_on,76,0,960
1,note_on,79,0,0
1,note_on,67,0,0
1,note_on,74,59,0
1,note_on,77,71,0
1,note_on,77,0,180
1,note_on,74,0,0
1,note_on,72,54,60
1,note_on,76,64,0
1,note_on,76,0,180
1,note_on,72,0,0
1,note_on,71,63,60
1,note_on,74,75,0
1,note_on,74,0,720
1,note_on,71,0,0
1,note_on,67,68,0
1,note_on,67,0,470
1,note_on,67,69,10
1,note_on,67,0,240
1,note_on,64,63,0
1,note_on,76,75,0
1,note_on,72,63,0
1,note_on,72,0,960
1,note_on,76,0,0
1,note_on,64,0,0
1,note_on,71,59,0
1,note_on,74,71,0
1,note_on,74,0,180
1,note_on,71,0,0
1,note_on,69,54,60
1,note_on,72,64,0
1,note_on,72,0,180
1,note_on,69,0,0
1,note_on,68,63,60
1,note_on,71,75,0
1,note_on,71,0,1190
1,note_on,68,0,0
1,note_on,64,64,10
1,note_on,64,0,240
1,note_on,61,59,0
1,note_on,64,70,0
1,note_on,64,0,720
1,note_on,61,0,0
1,note_on,69,65,0
1,note_on,64,55,0
1,note_on,64,0,480
1,note_on,69,0,0
1,note_on,64,58,0
1,note_on,71,69,0
1,note_on,71,0,240
1,note_on,64,0,0
1,note_on,73,63,0
1,note_on,76,75,0
1,note_on,76,0,720
1,note_on,73,0,0
1,note_on,69,58,0
1,note_on,73,69,0
1,note_on,73,0,470
1,note_on,69,0,0
1,note_on,73,58,10
1,note_on,76,69,0
1,note_on,76,0,240
1,note_on,73,0,0
1,note_on,68,63,0
1,note_on,80,75,0
1,note_on,76,63,0
1,note_on,76,0,960
1,note_on,80,0,0
1,note_on,75,59,0
1,note_on,78,71,0
1,note_on,78,0,180
1,note_on,75,0,0
1,note_on,73,54,60
1,note_on,76,64,0
1,note_on,76,0,180
1,note_on,73,0,0
1,note_on,72,63,60
1,note_on,75,75,0
1,note_on,68,0,710
1,note_on,68,68,10
1,note_on,68,0,470
1,note_on,75,0,0
1,note_on,72,0,0
1,note_on,75,64,10
1,note_on,75,0,230
1,note_on,68,59,10
1,note_on,75,70,0
1,note_on,71,59,0
1,note_on,71,0,705
1,note_on,75,0,0
1,note_on,68,0,0
1,note_on,68,55,15
1,note_on,71,55,0
1,note_on,76,65,0
1,note_on,76,0,470
1,note_on,76,69,10
1,note_on,76,0,230
1,note_on,71,0,10
1,note_on,68,0,0
1,note_on,76,75,0
1,note_on,72,63,0
1,note_on,69,63,0
1,note_on,69,0,720
1,note_on,72,0,0
1,note_on,76,0,0
1,note_on,69,67,0
1,note_on,72,67,0
1,note_on,79,79,0
1,note_on,79,0,470
1,note_on,77,75,10
1,note_on,77,0,240
1,note_on,72,0,0
1,note_on,69,0,0
1,note_on,67,59,0
1,note_on,72,59,0
1,note_on,76,70,0
1,note_on,76,0,720
1,note_on,72,0,0
1,note_on,67,0,0
1,note_on,74,55,0
1,note_on,69,46,0
1,note_on,74,0,470
1,note_on,74,55,10
1,note_on,74,0,240
1,note_on,69,0,0
1,note_on,68,49,0
1,note_on,76,59,0
1,note_on,76,0,1200
1,note_on,68,0,0
1,note_on,76,46,0
1,note_on,76,0,240
1,note_on,76,57,0
1,note_on,67,48,0
1,note_on,72,48,0
1,note_on,72,0,720
1,note_on,67,0,0
1,note_on,76,0,0
1,note_on,69,50,0
1,note_on,72,50,0
1,note_on,79,59,0
1,note_on,79,0,470
1,note_on,77,56,10
1,note_on,77,0,240
1,note_on,72,0,0
1,note_on,69,0,0
1,note_on,72,42,0
1,note_on,69,42,0
1,note_on,76,50,0
1,note_on,76,0,720
1,note_on,69,0,0
1,note_on,72,0,0
1,note_on,65,41,0
1,note_on,74,49,0
1,note_on,71,41,0
1,note_on,74,0,470
1,note_on,74,44,10
1,note_on,74,0,240
1,note_on,71,0,0
1,note_on,65,0,0
1,note_on,64,34,0
1,note_on,68,34,0
1,note_on,76,41,0
1,note_on,68,0,480
1,note_on,64,0,0
1,note_on,60,38,720
1,note_on,69,38,0
1,note_on,69,0,240
1,note_on,60,0,0
1,note_on,62,35,0
1,note_on,71,42,0
1,note_on,71,0,480
1,note_on,62,0,0
1,note_on,64,31,0
1,note_on,72,37,0
1,note_on,72,0,240
1,note_on,64,0,0
1,note_on,69,38,0
1,note_on,64,38,0
1,note_on,72,50,0
1,note_on,72,0,720
1,note_on,69,0,0
1,note_on,68,33,0
1,note_on,71,39,0
1,note_on,71,0,480
1,note_on,68,0,0
1,note_on,64,0,0
1,note_on,72,37,0
1,note_on,69,28,0
1,note_on,64,28,0
1,note_on,69,0,230
1,note_on,76,0,10
1,note_on,72,0,0
1,note_on,64,0,0
1,note_on,65,31,0
1,note_on,69,31,0
1,note_on,74,40,0
1,note_on,74,0,480
1,note_on,69,0,0
1,note_on,65,0,0
1,note_on,69,37,0
1,note_on,67,37,0
1,note_on,76,48,0
1,note_on,76,0,230
1,note_on,67,0,0
1,note_on,69,0,0
1,note_on,69,43,10
1,note_on,79,56,0
1,note_on,71,43,0
1,note_on,79,0,720
1,note_on,77,49,0
1,note_on,71,0,470
1,note_on,69,0,0
1,note_on,77,0,10
1,note_on,71,42,0
1,note_on,69,33,3
1,note_on,74,45,237
1,note_on,74,0,480
1,note_on,77,47,0
1,note_on,71,0,230
1,note_on,69,0,3
1,note_on,77,0,7
1,note_on,71,42,0
1,note_on,69,42,0
1,note_on,77,55,0
1,note_on,77,0,720
1,note_on,69,0,0
1,note_on,71,0,0
1,note_on,68,49,0
1,note_on,71,38,480
1,note_on,68,0,230
1,note_on,71,0,10
1,note_on,68,38,0
1,note_on,76,51,0
1,note_on,64,38,0
1,note_on,76,0,480
1,note_on,71,41,0
1,note_on,71,0,240
1,note_on,64,0,0
1,note_on,68,0,0
1,note_on,64,34,0
1,note_on,73,41,0
1,note_on,69,34,0
1,note_on,69,0,720
1,note_on,73,0,0
1,note_on,64,0,0
1,note_on,61,38,480
1,note_on,69,38,0
1,note_on,69,0,240
1,note_on,61,0,0
1,note_on,62,35,0
1,note_on,71,42,0
1,note_on,71,0,480
1,note_on,62,0,0
1,note_on,69,31,0
1,note_on,64,31,0
1,note_on,73,37,0
1,note_on,73,0,240
1,note_on,64,0,0
1,note_on,69,0,0
1,note_on,65,43,0
1,note_on,69,43,0
1,note_on,76,51,0
1,note_on,76,0,720
1,note_on,74,47,0
1,note_on,74,0,480
1,note_on,77,46,0
1,note_on,77,0,240
1,note_on,69,0,0
1,note_on,65,0,0
1,note_on,76,52,0
1,note_on,65,44,0
1,note_on,70,44,0
1,note_on,76,0,480
1,note_on,74,47,0
1,note_on,74,0,180
1,note_on,67,43,0
1,note_on,70,43,30
1,note_on,70,0,30
1,note_on,65,0,0
1,note_on,72,51,0
1,note_on,67,0,240
1,note_on,70,0,0
1,note_on,79,40,960
1,note_on,79,0,240
1,note_on,77,49,0
1,note_on,70,49,0
1,note_on,67,49,0
1,note_on,77,0,480
1,note_on,76,42,0
1,note_on,76,0,230
1,note_on,67,0,10
1,note_on,70,0,0
1,note_on,67,46,0
1,note_on,70,46,0
1,note_on,76,46,0
1,note_on,76,0,720
1,note_on,72,0,0
1,note_on,67,0,0
1,note_on,70,0,0
1,note_on,64,29,360
1,note_on,67,38,0
1,note_on,67,0,360
1,note_on,64,0,0
1,note_on,64,33,0
1,note_on,67,33,0
1,note_on,69,44,0
1,note_on,69,0,360
1,note_on,67,0,0
1,note_on,64,0,0
1,note_on,70,45,0
1,note_on,64,35,0
1,note_on,67,35,0
1,note_on,67,0,360
1,note_on,64,0,0
1,note_on,70,0,0
1,note_on,64,39,0
1,note_on,67,39,0
1,note_on,71,46,0
1,note_on,71,0,1440
1,note_on,67,0,0
1,note_on,64,0,0
1,note_on,71,45,0
1,note_on,67,38,0
1,note_on,64,38,0
1,note_on,64,0,720
1,note_on,67,0,0
1,note_on,71,0,0
1,note_on,63,48,0
1,note_on,69,48,0
1,note_on,72,57,0
1,note_on,72,0,720
1,note_on,69,0,0
1,note_on,71,51,0
1,note_on,67,43,0
1,note_on,67,0,720
1,note_on,71,0,0
1,note_on,66,38,0
1,note_on,69,45,0
1,note_on,69,0,720
1,note_on,66,0,0
1,note_on,63,0,0
1,note_on,67,53,0
1,note_on,64,45,0
1,note_on,64,0,720
1,note_on,67,0,0
1,note_on,76,42,360
1,note_on,67,42,0
1,note_on,79,50,0
1,note_on,79,0,360
1,note_on,67,0,0
1,note_on,76,0,0
1,note_on,69,45,0
1,note_on,81,54,0
1,note_on,76,45,0
1,note_on,76,0,360
1,note_on,81,0,0
1,note_on,69,0,0
1,note_on,70,48,0
1,note_on,79,48,0
1,note_on,76,48,0
1,note_on,82,57,0
1,note_on,82,0,360
1,note_on,70,0,0
1,note_on,79,0,0
1,note_on,76,0,0
1,note_on,79,51,0
1,note_on,76,51,0
1,note_on,71,51,0
1,note_on,83,61,0
1,note_on,83,0,1080
1,note_on,79,0,0
1,note_on,76,0,0
1,note_on,71,0,0
1,note_on,76,52,0
1,note_on,79,62,0
1,note_on,79,0,360
1,note_on,76,0,0
1,note_on,79,55,0
1,note_on,83,65,0
1,note_on,83,0,360
1,note_on,79,0,0
1,note_on,88,69,0
1,note_on,79,58,0
1,note_on,79,0,360
1,note_on,88,0,0
1,note_on,93,72,0
1,note_on,81,61,0
1,note_on,84,61,0
1,note_on,84,0,720
1,note_on,81,0,0
1,note_on,93,0,0
1,note_on,91,67,0
1,note_on,83,56,0
1,note_on,79,56,0
1,note_on,79,0,720
1,note_on,83,0,0
1,note_on,91,0,0
1,note_on,78,56,0
1,note_on,90,66,0
1,note_on,81,56,0
1,note_on,81,0,720
1,note_on,90,0,0
1,note_on,78,0,0
1,note_on,88,74,0
1,note_on,80,62,0
1,note_on,76,62,0
1,note_on,76,0,720
1,note_on,80,0,0
1,note_on,88,0,0
1,note_on,88,64,1200
1,note_on,76,64,0
1,note_on,76,0,240
1,note_on,88,0,0
1,note_on,76,59,0
1,note_on,84,59,0
1,note_on,88,70,0
1,note_on,88,0,720
1,note_on,84,0,0
1,note_on,76,0,0
1,note_on,84,65,0
1,note_on,72,55,0
1,note_on,81,55,0
1,note_on,81,0,480
1,note_on,72,0,0
1,note_on,84,0,0
1,note_on,71,58,0
1,note_on,80,58,0
1,note_on,83,69,0
1,note_on,83,0,240
1,note_on,80,0,0
1,note_on,71,0,0
1,note_on,76,75,0
1,note_on,72,63,0
1,note_on,64,63,0
1,note_on,64,0,720
1,note_on,76,0,0
1,note_on,69,58,0
1,note_on,81,69,0
1,note_on,81,0,480
1,note_on,69,0,0
1,note_on,72,0,0
1,note_on,88,64,0
1,note_on,76,55,0
1,note_on,84,55,0
1,note_on,84,0,240
1,note_on,76,0,0
1,note_on,88,0,0
1,note_on,76,59,0
1,note_on,84,59,0
1,note_on,88,70,0
1,note_on,88,0,720
1,note_on,84,0,0
1,note_on,76,0,0
1,note_on,84,65,0
1,note_on,81,55,0
1,note_on,72,55,0
1,note_on,72,0,480
1,note_on,81,0,0
1,note_on,84,0,0
1,note_on,71,58,0
1,note_on,80,58,0
1,note_on,83,69,0
1,note_on,83,0,240
1,note_on,80,0,0
1,note_on,71,0,0
1,note_on,72,63,0
1,note_on,64,63,0
1,note_on,76,75,0
1,note_on,76,0,1190
1,note_on,64,0,0
1,note_on,72,0,0
1,note_on,64,58,10
1,note_on,76,69,0
1,note_on,72,58,0
1,note_on,72,0,240
1,note_on,76,0,0
1,note_on,64,0,0
1,note_on,72,59,0
1,note_on,64,59,0
1,note_on,76,70,0
1,note_on,76,0,720
1,note_on,64,0,0
1,note_on,72,0,0
1,note_on,65,55,0
1,note_on,77,65,0
1,note_on,74,55,0
1,note_on,74,0,480
1,note_on,77,0,0
1,note_on,65,0,0
1,note_on,67,58,0
1,note_on,76,58,0
1,note_on,79,69,0
1,note_on,79,0,240
1,note_on,76,0,0
1,note_on,67,0,0
1,note_on,79,75,0
1,note_on,71,63,0
1,note_on,67,63,0
1,note_on,67,0,720
1,note_on,79,0,0
1,note_on,65,58,0
1,note_on,77,69,0
1,note_on,77,0,480
1,note_on,65,0,0
1,note_on,71,0,0
1,note_on,62,55,0
1,note_on,74,64,0
1,note_on,71,55,0
1,note_on,71,0,240
1,note_on,74,0,0
1,note_on,62,0,0
1,note_on,60,59,0
1,note_on,69,59,0
1,note_on,72,70,0
1,note_on,72,0,480
1,note_on,74,66,0
1,note_on,74,0,80
1,note_on,72,55,0
1,note_on,72,0,80
1,note_on,71,55,0
1,note_on,71,0,80
1,note_on,72,70,0
1,note_on,72,0,240
1,note_on,69,0,0
1,note_on,60,0,0
1,note_on,62,58,0
1,note_on,71,58,0
1,note_on,74,69,0
1,note_on,74,0,180
1,note_on,71,0,0
1,note_on,62,0,0
1,note_on,72,58,60
1,note_on,64,58,0
1,note_on,76,69,0
1,note_on,76,0,180
1,note_on,64,0,0
1,note_on,72,0,0
1,note_on,64,63,60
1,note_on,76,75,0
1,note_on,68,63,0
1,note_on,68,0,720
1,note_on,76,0,0
1,note_on,64,0,0
1,note_on,76,64,480
1,note_on,88,64,0
1,note_on,88,0,240
1,note_on,76,0,0
1,note_on,76,59,0
1,note_on,85,59,0
1,note_on,88,70,0
1,note_on,88,0,720
1,note_on,85,0,0
1,note_on,76,0,0
1,note_on,81,55,0
1,note_on,73,55,0
1,note_on,85,65,0
1,note_on,85,0,480
1,note_on,73,0,0
1,note_on,81,0,0
1,note_on,71,58,0
1,note_on,83,69,0
1,note_on,80,58,0
1,note_on,80,0,240
1,note_on,83,0,0
1,note_on,71,0,0
1,note_on,73,63,0
1,note_on,64,63,0
1,note_on,76,75,0
1,note_on,76,0,720
1,note_on,64,0,0
1,note_on,69,58,0
1,note_on,81,69,0
1,note_on,81,0,480
1,note_on,69,0,0
1,note_on,73,0,0
1,note_on,85,55,0
1,note_on,76,55,0
1,note_on,88,64,0
1,note_on,88,0,240
1,note_on,76,0,0
1,note_on,85,0,0
1,note_on,80,59,0
1,note_on,92,80,0
1,note_on,88,68,0
1,note_on,88,0,960
1,note_on,92,0,0
1,note_on,80,0,0
1,note_on,87,55,0
1,note_on,78,55,0
1,note_on,90,65,0
1,note_on,90,0,180
1,note_on,78,0,0
1,note_on,87,0,0
1,note_on,76,58,60
1,note_on,88,69,0
1,note_on,85,58,0
1,note_on,85,0,180
1,note_on,88,0,0
1,note_on,76,0,0
1,note_on,75,63,60
1,note_on,84,63,0
1,note_on,87,75,0
1,note_on,87,0,1190
1,note_on,84,0,0
1,note_on,75,0,0
1,note_on,87,62,10
1,note_on,75,52,0
1,note_on,75,0,240
1,note_on,87,0,0
1,note_on,75,55,0
1,note_on,83,54,0
1,note_on,87,65,0
1,note_on,87,0,720
1,note_on,75,0,0
1,note_on,88,68,0
1,note_on,76,57,0
1,note_on,76,0,470
1,note_on,88,0,0
1,note_on,76,55,10
1,note_on,88,65,0
1,note_on,88,0,230
1,note_on,76,0,0
1,note_on,83,0,10
1,note_on,84,57,0
1,note_on,76,58,0
1,note_on,88,69,0
1,note_on,88,0,720
1,note_on,76,0,0
1,note_on,89,71,0
1,note_on,77,60,0
1,note_on,77,0,470
1,note_on,89,0,0
1,note_on,89,68,10
1,note_on,77,57,0
1,note_on,77,0,230
1,note_on,89,0,0
1,note_on,84,0,10
1,note_on,77,61,0
1,note_on,89,73,0
1,note_on,86,61,0
1,note_on,86,0,720
1,note_on,89,0,0
1,note_on,77,0,0
1,note_on,93,78,0
1,note_on,89,66,0
1,note_on,86,66,0
1,note_on,81,66,0
1,note_on,81,0,480
1,note_on,93,0,0
1,note_on,89,0,0
1,note_on,86,0,0
1,note_on,91,73,0
1,note_on,79,62,0
1,note_on,79,0,240
1,note_on,91,0,0
1,note_on,81,62,0
1,note_on,77,62,0
1,note_on,84,62,0
1,note_on,89,74,0
1,note_on,89,0,720
1,note_on,81,0,0
1,note_on,77,0,0
1,note_on,84,0,0
1,note_on,84,66,0
1,note_on,76,66,0
1,note_on,82,66,0
1,note_on,88,78,0
1,note_on,88,0,480
1,note_on,84,0,0
1,note_on,76,0,0
1,note_on,82,0,0
1,note_on,77,62,0
1,note_on,89,73,0
1,note_on,89,0,230
1,note_on,77,0,0
1,note_on,77,62,10
1,note_on,89,74,0
1,note_on,84,62,0
1,note_on,81,62,0
1,note_on,81,0,720
1,note_on,77,0,0
1,note_on,89,0,0
1,note_on,84,0,0
1,note_on,72,74,480
1,note_on,60,62,0
1,note_on,60,0,120
1,note_on,72,0,0
1,note_on,61,69,120
1,note_on,69,69,0
1,note_on,73,82,0
1,note_on,73,0,720
1,note_on,69,0,0
1,note_on,61,0,0
1,note_on,77,57,0
1,note_on,65,48,0
1,note_on,65,0,120
1,note_on,77,0,0
1,note_on,81,60,120
1,note_on,69,51,0
1,note_on,69,0,120
1,note_on,81,0,0
1,note_on,73,54,120
1,note_on,85,64,0
1,note_on,85,0,120
1,note_on,73,0,0
1,note_on,89,71,120
1,note_on,85,60,0
1,note_on,77,60,0
1,note_on,77,0,720
1,note_on,85,0,0
1,note_on,89,0,0
1,note_on,85,57,0
1,note_on,90,68,0
1,note_on,78,57,0
1,note_on,78,0,470
1,note_on,90,0,0
1,note_on,85,0,0
1,note_on,90,65,10
1,note_on,78,55,0
1,note_on,78,0,240
1,note_on,90,0,0
1,note_on,78,66,0
1,note_on,90,78,0
1,note_on,86,66,0
1,note_on,86,0,720
1,note_on,90,0,0
1,note_on,78,0,0
1,note_on,91,71,0
1,note_on,79,59,0
1,note_on,86,59,0
1,note_on,86,0,470
1,note_on,79,0,0
1,note_on,91,0,0
1,note_on,79,56,10
1,note_on,91,66,0
1,note_on,91,0,230
1,note_on,79,0,0
1,note_on,88,61,10
1,note_on,91,73,0
1,note_on,79,61,0
1,note_on,79,0,720
1,note_on,91,0,0
1,note_on,88,0,0
1,note_on,91,66,0
1,note_on,88,66,0
1,note_on,95,78,0
1,note_on,83,66,0
1,note_on,83,0,480
1,note_on,91,0,0
1,note_on,88,0,0
1,note_on,95,0,0
1,note_on,81,62,0
1,note_on,93,73,0
1,note_on,93,0,240
1,note_on,81,0,0
1,note_on,79,62,0
1,note_on,86,62,0
1,note_on,83,62,0
1,note_on,91,74,0
1,note_on,91,0,720
1,note_on,79,0,0
1,note_on,86,0,0
1,note_on,83,0,0
1,note_on,86,66,0
1,note_on,90,78,0
1,note_on,84,66,0
1,note_on,81,66,0
1,note_on,78,66,0
1,note_on,78,0,480
1,note_on,84,0,0
1,note_on,86,0,0
1,note_on,90,0,0
1,note_on,81,0,0
1,note_on,91,73,0
1,note_on,79,62,0
1,note_on,79,0,230
1,note_on,91,0,0
1,note_on,83,62,10
1,note_on,86,62,0
1,note_on,79,62,0
1,note_on,91,74,0
1,note_on,91,0,720
1,note_on,83,0,0
1,note_on,86,0,0
1,note_on,79,0,0
1,note_on,74,74,480
1,note_on,62,62,0
1,note_on,62,0,240
1,note_on,74,0,0
1,note_on,63,69,0
1,note_on,71,69,0
1,note_on,75,82,0
1,note_on,75,0,960
1,note_on,71,0,0
1,note_on,63,0,0
1,note_on,79,69,0
1,note_on,67,58,0
1,note_on,67,0,120
1,note_on,79,0,0
1,note_on,69,62,120
1,note_on,81,73,0
1,note_on,81,0,120
1,note_on,69,0,0
1,note_on,74,65,120
1,note_on,83,77,0
1,note_on,71,65,0
1,note_on,79,65,0
1,note_on,79,0,1190
1,note_on,74,0,0
1,note_on,83,0,0
1,note_on,71,0,0
1,note_on,62,62,10
1,note_on,74,74,0
1,note_on,74,0,240
1,note_on,62,0,0
1,note_on,75,82,0
1,note_on,63,69,0
1,note_on,71,69,0
1,note_on,71,0,960
1,note_on,63,0,0
1,note_on,75,0,0
1,note_on,67,58,0
1,note_on,79,69,0
1,note_on,79,0,120
1,note_on,67,0,0
1,note_on,81,73,120
1,note_on,69,62,0
1,note_on,69,0,120
1,note_on,81,0,0
1,note_on,80,65,120
1,note_on,83,77,0
1,note_on,74,65,0
1,note_on,71,65,0
1,note_on,71,0,1190
1,note_on,80,0,0
1,note_on,83,0,0
1,note_on,74,0,0
1,note_on,74,66,10
1,note_on,62,66,0
1,note_on,62,0,240
1,note_on,74,0,0
1,note_on,63,53,0
1,note_on,71,53,0
1,note_on,75,63,0
1,note_on,75,0,360
1,note_on,71,0,0
1,note_on,63,0,0
1,note_on,76,56,0
1,note_on,71,47,0
1,note_on,64,47,0
1,note_on,64,0,360
1,note_on,71,0,0
1,note_on,76,0,0
1,note_on,65,51,0
1,note_on,68,51,0
1,note_on,71,51,0
1,note_on,77,61,0
1,note_on,74,51,0
1,note_on,74,0,1425
1,note_on,71,0,0
1,note_on,65,0,0
1,note_on,68,0,0
1,note_on,77,0,0
1,note_on,68,45,15
1,note_on,65,45,0
1,note_on,71,45,0
1,note_on,74,54,0
1,note_on,74,0,1425
1,note_on,68,0,0
1,note_on,65,0,0
1,note_on,71,0,0
1,note_on,68,43,15
1,note_on,65,43,0
1,note_on,62,43,0
1,note_on,71,51,0
1,note_on,71,0,1425
1,note_on,68,0,0
1,note_on,65,0,0
1,note_on,62,0,0
1,note_on,59,40,15
1,note_on,68,48,0
1,note_on,62,40,0
1,note_on,65,40,0
1,note_on,65,0,1425
1,note_on,59,0,0
1,note_on,68,0,0
1,note_on,62,0,0
1,note_on,59,37,15
1,note_on,62,45,0
1,note_on,62,0,713
1,note_on,59,0,0
1,note_on,59,36,7
1,note_on,56,29,0
1,note_on,56,0,2640
1,note_on,59,0,0
1,note_on,65,40,180
1,note_on,69,40,30
1,note_on,77,54,30
1,note_on,77,0,180
1,note_on,69,0,0
1,note_on,65,0,0
1,note_on,53,27,300
1,note_on,57,32,0
1,note_on,57,0,120
1,note_on,53,0,0
1,note_on,53,30,120
1,note_on,57,35,0
1,note_on,57,0,120
1,note_on,53,0,0
1,note_on,58,31,120
1,note_on,55,27,0
1,note_on,55,0,120
1,note_on,58,0,0
1,note_on,57,27,120
1,note_on,60,31,0
1,note_on,60,0,120
1,note_on,57,0,0
1,note_on,58,30,120
1,note_on,62,35,0
1,note_on,62,0,120
1,note_on,58,0,0
1,note_on,57,27,120
1,note_on,60,32,0
1,note_on,60,0,120
1,note_on,57,0,0
1,note_on,65,40,60
1,note_on,69,40,30
1,note_on,77,52,30
1,note_on,77,0,180
1,note_on,69,0,0
1,note_on,65,0,0
1,note_on,53,30,60
1,note_on,57,35,0
1,note_on,57,0,120
1,note_on,53,0,0
1,note_on,58,31,120
1,note_on,55,27,0
1,note_on,55,0,120
1,note_on,58,0,0
1,note_on,60,31,120
1,note_on,57,27,0
1,note_on,57,0,120
1,note_on,60,0,0
1,note_on,62,35,120
1,note_on,58,30,0
1,note_on,58,0,120
1,note_on,62,0,0
1,note_on,60,32,120
1,note_on,57,27,0
1,note_on,57,0,120
1,note_on,60,0,0
1,note_on,58,27,120
1,note_on,62,31,0
1,note_on,62,0,120
1,note_on,58,0,0
1,note_on,64,35,120
1,note_on,60,30,0
1,note_on,60,0,120
1,note_on,64,0,0
1,note_on,65,32,120
1,note_on,62,27,0
1,note_on,62,0,120
1,note_on,65,0,0
1,note_on,67,31,120
1,note_on,64,27,0
1,note_on,64,0,120
1,note_on,67,0,0
1,note_on,65,36,120
1,note_on,69,43,0
1,note_on,69,0,710
1,note_on,65,0,0
1,note_on,72,37,10
1,note_on,69,31,0
1,note_on,72,0,470
1,note_on,69,0,10
1,note_on,72,38,0
1,note_on,77,45,0
1,note_on,77,0,240
1,note_on,72,0,0
1,note_on,81,52,0
1,note_on,77,44,0
1,note_on,77,0,720
1,note_on,81,0,0
1,note_on,69,38,0
1,note_on,65,32,0
1,note_on,65,0,720
1,note_on,69,0,0
1,note_on,77,48,720
1,note_on,81,57,0
1,note_on,73,53,660
1,note_on,81,57,30
1,note_on,81,0,30
1,note_on,77,0,0
1,note_on,85,61,0
1,note_on,85,0,180
1,note_on,73,0,0
1,note_on,81,0,0
1,note_on,57,27,300
1,note_on,61,32,0
1,note_on,61,0,120
1,note_on,57,0,0
1,note_on,57,30,120
1,note_on,61,35,0
1,note_on,61,0,120
1,note_on,57,0,0
1,note_on,59,27,120
1,note_on,62,31,0
1,note_on,62,0,120
1,note_on,59,0,0
1,note_on,64,31,120
1,note_on,61,27,0
1,note_on,61,0,120
1,note_on,64,0,0
1,note_on,62,30,120
1,note_on,66,35,0
1,note_on,66,0,120
1,note_on,62,0,0
1,note_on,61,27,120
1,note_on,64,32,0
1,note_on,64,0,120
1,note_on,61,0,0
1,note_on,69,40,120
1,note_on,73,52,0
1,note_on,73,0,180
1,note_on,69,0,0
1,note_on,57,30,60
1,note_on,61,35,0
1,note_on,61,0,120
1,note_on,57,0,0
1,note_on,59,27,120
1,note_on,62,31,0
1,note_on,62,0,120
1,note_on,59,0,0
1,note_on,61,27,120
1,note_on,64,31,0
1,note_on,64,0,120
1,note_on,61,0,0
1,note_on,62,30,120
1,note_on,66,35,0
1,note_on,66,0,120
1,note_on,62,0,0
1,note_on,61,27,120
1,note_on,64,32,0
1,note_on,64,0,120
1,note_on,61,0,0
1,note_on,66,31,120
1,note_on,62,27,0
1,note_on,62,0,120
1,note_on,66,0,0
1,note_on,64,30,120
1,note_on,68,35,0
1,note_on,68,0,120
1,note_on,64,0,0
1,note_on,69,32,120
1,note_on,66,27,0
1,note_on,66,0,120
1,note_on,69,0,0
1,note_on,68,27,120
1,note_on,71,31,0
1,note_on,71,0,120
1,note_on,68,0,0
1,note_on,61,36,60
1,note_on,67,36,20
1,note_on,69,36,20
1,note_on,73,43,20
1,note_on,73,0,720
1,note_on,61,0,0
1,note_on,67,0,0
1,note_on,69,0,0
1,note_on,78,45,0
1,note_on,73,31,0
1,note_on,66,31,0
1,note_on,66,0,480
1,note_on,73,0,0
1,note_on,78,0,0
1,note_on,67,38,0
1,note_on,73,38,0
1,note_on,79,51,0
1,note_on,79,0,170
1,note_on,73,0,0
1,note_on,67,0,0
1,note_on,73,44,10
1,note_on,79,44,20
1,note_on,81,44,20
1,note_on,85,52,20
1,note_on,85,0,710
1,note_on,81,0,0
1,note_on,73,0,0
1,note_on,79,0,10
1,note_on,79,32,0
1,note_on,81,38,0
1,note_on,69,32,0
1,note_on,73,32,0
1,note_on,73,0,720
1,note_on,79,0,0
1,note_on,81,0,0
1,note_on,69,0,0
1,note_on,69,48,720
1,note_on,73,48,0
1,note_on,81,57,0
1,note_on,79,48,0
1,note_on,74,46,660
1,note_on,78,46,20
1,note_on,81,46,20
1,note_on,79,0,20
1,note_on,81,0,0
1,note_on,69,0,0
1,note_on,73,0,0
1,note_on,86,64,0
1,note_on,86,0,180
1,note_on,78,0,0
1,note_on,74,0,0
1,note_on,81,0,0
1,note_on,62,27,300
1,note_on,66,32,0
1,note_on,66,0,120
1,note_on,62,0,0
1,note_on,66,35,120
1,note_on,62,30,0
1,note_on,62,0,120
1,note_on,66,0,0
1,note_on,67,31,120
1,note_on,64,27,0
1,note_on,64,0,120
1,note_on,67,0,0
1,note_on,66,27,120
1,note_on,69,31,0
1,note_on,69,0,120
1,note_on,66,0,0
1,note_on,71,35,120
1,note_on,67,30,0
1,note_on,67,0,120
1,note_on,71,0,0
1,note_on,69,32,120
1,note_on,66,27,0
1,note_on,66,0,120
1,note_on,69,0,0
1,note_on,74,50,60
1,note_on,78,50,30
1,note_on,86,64,30
1,note_on,86,0,180
1,note_on,78,0,0
1,note_on,74,0,0
1,note_on,62,30,60
1,note_on,66,35,0
1,note_on,66,0,120
1,note_on,62,0,0
1,note_on,67,31,120
1,note_on,64,27,0
1,note_on,64,0,120
1,note_on,67,0,0
1,note_on,66,28,120
1,note_on,69,32,0
1,note_on,69,0,120
1,note_on,66,0,0
1,note_on,67,32,120
1,note_on,71,37,0
1,note_on,71,0,120
1,note_on,67,0,0
1,note_on,69,35,120
1,note_on,66,29,0
1,note_on,66,0,120
1,note_on,69,0,0
1,note_on,67,30,120
1,note_on,71,35,0
1,note_on,71,0,120
1,note_on,67,0,0
1,note_on,69,34,120
1,note_on,73,40,0
1,note_on,73,0,120
1,note_on,69,0,0
1,note_on,74,38,120
1,note_on,71,32,0
1,note_on,71,0,120
1,note_on,74,0,0
1,note_on,76,37,120
1,note_on,73,32,0
1,note_on,73,0,120
1,note_on,76,0,0
1,note_on,81,53,120
1,note_on,77,38,0
1,note_on,69,38,0
1,note_on,77,0,710
1,note_on,69,0,10
1,note_on,81,0,0
1,note_on,74,44,0
1,note_on,77,44,0
1,note_on,86,52,0
1,note_on,86,0,480
1,note_on,77,0,0
1,note_on,74,0,0
1,note_on,81,53,0
1,note_on,76,53,0
1,note_on,88,63,0
1,note_on,81,0,230
1,note_on,88,0,10
1,note_on,76,0,0
1,note_on,81,58,0
1,note_on,93,69,0
1,note_on,89,58,0
1,note_on,89,0,720
1,note_on,93,0,0
1,note_on,81,0,0
1,note_on,86,51,0
1,note_on,77,51,0
1,note_on,89,60,0
1,note_on,89,0,480
1,note_on,77,0,0
1,note_on,86,0,0
1,note_on,81,48,0
1,note_on,93,57,0
1,note_on,89,48,0
1,note_on,89,0,180
1,note_on,93,0,0
1,note_on,81,0,0
1,note_on,82,55,0
1,note_on,88,55,20
1,note_on,91,55,20
1,note_on,96,77,20
1,note_on,96,0,180
1,note_on,82,0,0
1,note_on,88,0,0
1,note_on,91,0,0
1,note_on,60,29,300
1,note_on,64,35,0
1,note_on,64,0,120
1,note_on,60,0,0
1,note_on,64,38,120
1,note_on,60,33,0
1,note_on,60,0,120
1,note_on,64,0,0
1,note_on,65,34,120
1,note_on,62,29,0
1,note_on,62,0,120
1,note_on,65,0,0
1,note_on,64,29,120
1,note_on,67,34,0
1,note_on,67,0,120
1,note_on,64,0,0
1,note_on,69,38,120
1,note_on,65,33,0
1,note_on,65,0,120
1,note_on,69,0,0
1,note_on,67,35,120
1,note_on,64,29,0
1,note_on,64,0,120
1,note_on,67,0,0
1,note_on,72,50,60
1,note_on,76,50,20
1,note_on,82,50,20
1,note_on,84,65,20
1,note_on,84,0,180
1,note_on,72,0,0
1,note_on,76,0,0
1,note_on,82,0,0
1,note_on,64,38,60
1,note_on,60,33,0
1,note_on,60,0,120
1,note_on,64,0,0
1,note_on,62,29,120
1,note_on,65,34,0
1,note_on,65,0,120
1,note_on,62,0,0
1,note_on,64,30,120
1,note_on,67,35,0
1,note_on,67,0,120
1,note_on,64,0,0
1,note_on,69,40,120
1,note_on,65,35,0
1,note_on,65,0,120
1,note_on,69,0,0
1,note_on,64,31,120
1,note_on,67,38,0
1,note_on,67,0,120
1,note_on,64,0,0
1,note_on,65,33,120
1,note_on,69,38,0
1,note_on,69,0,120
1,note_on,65,0,0
1,note_on,67,37,120
1,note_on,70,44,0
1,note_on,70,0,120
1,note_on,67,0,0
1,note_on,72,41,120
1,note_on,69,35,0
1,note_on,69,0,120
1,note_on,72,0,0
1,note_on,70,35,120
1,note_on,74,40,0
1,note_on,74,0,120
1,note_on,70,0,0
1,note_on,76,41,60
1,note_on,82,41,30
1,note_on,88,58,30
1,note_on,82,0,690
1,note_on,88,0,30
1,note_on,76,0,0
1,note_on,78,48,0
1,note_on,90,57,0
1,note_on,82,48,0
1,note_on,82,0,480
1,note_on,90,0,0
1,note_on,78,0,0
1,note_on,79,58,0
1,note_on,82,58,0
1,note_on,91,69,0
1,note_on,91,0,180
1,note_on,82,0,0
1,note_on,79,0,0
1,note_on,88,63,0
1,note_on,94,63,30
1,note_on,100,75,30
1,note_on,94,0,690
1,note_on,88,0,0
1,note_on,100,0,30
1,note_on,82,56,0
1,note_on,88,56,0
1,note_on,94,66,0
1,note_on,94,0,480
1,note_on,88,0,0
1,note_on,82,0,0
1,note_on,100,62,0
1,note_on,88,52,0
1,note_on,94,52,0
1,note_on,94,0,180
1,note_on,88,0,0
1,note_on,100,0,0
1,note_on,91,78,0
1,note_on,94,78,30
1,note_on,103,93,30
1,note_on,103,0,180
1,note_on,94,0,0
1,note_on,91,0,0
1,note_on,70,54,300
1,note_on,67,45,0
1,note_on,67,0,120
1,note_on,70,0,0
1,note_on,67,51,120
1,note_on,70,60,0
1,note_on,70,0,120
1,note_on,67,0,0
1,note_on,69,46,120
1,note_on,72,56,0
1,note_on,72,0,120
1,note_on,69,0,0
1,note_on,70,48,120
1,note_on,74,57,0
1,note_on,74,0,120
1,note_on,70,0,0
1,note_on,72,55,120
1,note_on,76,65,0
1,note_on,76,0,120
1,note_on,72,0,0
1,note_on,74,61,120
1,note_on,70,51,0
1,note_on,70,0,120
1,note_on,74,0,0
1,note_on,79,78,60
1,note_on,82,78,30
1,note_on,91,93,30
1,note_on,91,0,180
1,note_on,82,0,0
1,note_on,79,0,0
1,note_on,86,65,60
1,note_on,82,54,0
1,note_on,74,54,0
1,note_on,74,0,120
1,note_on,82,0,0
1,note_on,86,0,0
1,note_on,84,50,120
1,note_on,76,50,0
1,note_on,88,60,0
1,note_on,88,0,120
1,note_on,76,0,0
1,note_on,84,0,0
1,note_on,86,51,120
1,note_on,89,62,0
1,note_on,77,51,0
1,note_on,77,0,120
1,note_on,89,0,0
1,note_on,86,0,0
1,note_on,88,59,120
1,note_on,79,59,0
1,note_on,91,71,0
1,note_on,91,0,120
1,note_on,79,0,0
1,note_on,88,0,0
1,note_on,89,56,120
1,note_on,81,56,0
1,note_on,93,66,0
1,note_on,93,0,120
1,note_on,81,0,0
1,note_on,89,0,0
1,note_on,82,56,120
1,note_on,94,67,0
1,note_on,91,56,0
1,note_on,91,0,120
1,note_on,94,0,0
1,note_on,82,0,0
1,note_on,82,64,120
1,note_on,91,64,0
1,note_on,94,77,0
1,note_on,94,0,120
1,note_on,91,0,0
1,note_on,82,0,0
1,note_on,91,60,120
1,note_on,94,72,0
1,note_on,82,60,0
1,note_on,82,0,120
1,note_on,94,0,0
1,note_on,91,0,0
1,note_on,94,72,120
1,note_on,82,61,0
1,note_on,91,61,0
1,note_on,91,0,120
1,note_on,82,0,0
1,note_on,94,0,0
1,note_on,83,76,120
1,note_on,91,76,0
1,note_on,95,90,0
1,note_on,95,0,960
1,note_on,91,0,0
1,note_on,83,0,0
1,note_on,90,68,0
1,note_on,93,81,0
1,note_on,81,68,0
1,note_on,81,0,120
1,note_on,93,0,0
1,note_on,90,0,0
1,note_on,79,68,120
1,note_on,91,81,0
1,note_on,88,68,0
1,note_on,88,0,120
1,note_on,91,0,0
1,note_on,79,0,0
1,note_on,90,76,120
1,note_on,93,90,0
1,note_on,81,76,0
1,note_on,81,0,960
1,note_on,93,0,0
1,note_on,90,0,0
1,note_on,91,81,0
1,note_on,79,68,0
1,note_on,88,68,0
1,note_on,88,0,120
1,note_on,79,0,0
1,note_on,91,0,0
1,note_on,87,68,120
1,note_on,90,81,0
1,note_on,78,68,0
1,note_on,78,0,120
1,note_on,90,0,0
1,note_on,87,0,0
1,note_on,88,76,120
1,note_on,91,90,0
1,note_on,79,76,0
1,note_on,79,0,120
1,note_on,91,0,0
1,note_on,88,0,0
1,note_on,87,68,120
1,note_on,78,68,0
1,note_on,90,81,0
1,note_on,90,0,120
1,note_on,78,0,0
1,note_on,87,0,0
1,note_on,76,68,120
1,note_on,88,81,0
1,note_on,85,68,0
1,note_on,85,0,120
1,note_on,88,0,0
1,note_on,76,0,0
1,note_on,87,76,120
1,note_on,90,90,0
1,note_on,78,76,0
1,note_on,78,0,120
1,note_on,90,0,0
1,note_on,87,0,0
1,note_on,71,68,360
1,note_on,83,81,0
1,note_on,83,0,120
1,note_on,71,0,0
1,note_on,85,76,120
1,note_on,97,90,0
1,note_on,93,76,0
1,note_on,93,0,960
1,note_on,97,0,0
1,note_on,85,0,0
1,note_on,95,81,0
1,note_on,83,68,0
1,note_on,92,68,0
1,note_on,92,0,120
1,note_on,83,0,0
1,note_on,95,0,0
1,note_on,81,68,120
1,note_on,90,68,0
1,note_on,93,81,0
1,note_on,93,0,120
1,note_on,90,0,0
1,note_on,81,0,0
1,note_on,95,90,120
1,note_on,92,76,0
1,note_on,83,76,0
1,note_on,83,0,960
1,note_on,92,0,0
1,note_on,95,0,0
1,note_on,81,68,0
1,note_on,93,81,0
1,note_on,90,68,0
1,note_on,90,0,120
1,note_on,93,0,0
1,note_on,81,0,0
1,note_on,88,68,120
1,note_on,80,68,0
1,note_on,92,81,0
1,note_on,92,0,120
1,note_on,80,0,0
1,note_on,88,0,0
1,note_on,93,90,120
1,note_on,90,76,0
1,note_on,81,76,0
1,note_on,81,0,120
1,note_on,90,0,0
1,note_on,93,0,0
1,note_on,88,68,120
1,note_on,80,68,0
1,note_on,92,81,0
1,note_on,92,0,120
1,note_on,80,0,0
1,note_on,88,0,0
1,note_on,90,81,120
1,note_on,78,68,0
1,note_on,87,68,0
1,note_on,87,0,120
1,note_on,78,0,0
1,note_on,90,0,0
1,note_on,80,76,120
1,note_on,92,90,0
1,note_on,88,76,0
1,note_on,88,0,120
1,note_on,92,0,0
1,note_on,80,0,0
1,note_on,76,68,360
1,note_on,88,81,0
1,note_on,88,0,120
1,note_on,76,0,0
1,note_on,95,97,120
1,note_on,92,97,0
1,note_on,88,82,0
1,note_on,100,97,0
1,note_on,100,0,120
1,note_on,95,0,0
1,note_on,92,0,0
1,note_on,88,0,0
1,note_on,88,77,360
1,note_on,95,91,0
1,note_on,83,77,0
1,note_on,83,0,480
1,note_on,95,0,0
1,note_on,88,0,0
1,note_on,88,77,0
1,note_on,97,91,0
1,note_on,85,77,0
1,note_on,85,0,720
1,note_on,97,0,0
1,note_on,88,0,0
1,note_on,88,75,0
1,note_on,93,89,0
1,note_on,81,75,0
1,note_on,81,0,360
1,note_on,93,0,0
1,note_on,88,0,0
1,note_on,88,67,0
1,note_on,83,67,0
1,note_on,95,79,0
1,note_on,95,0,110
1,note_on,83,0,0
1,note_on,88,0,0
1,note_on,88,74,10
1,note_on,83,74,0
1,note_on,95,88,0
1,note_on,95,0,120
1,note_on,83,0,0
1,note_on,88,0,0
1,note_on,83,81,360
1,note_on,76,69,0
1,note_on,71,69,0
1,note_on,71,0,480
1,note_on,76,0,0
1,note_on,83,0,0
1,note_on,76,69,0
1,note_on,85,81,0
1,note_on,73,69,0
1,note_on,73,0,720
1,note_on,85,0,0
1,note_on,76,0,0
1,note_on,69,67,0
1,note_on,76,67,0
1,note_on,81,80,0
1,note_on,81,0,350
1,note_on,76,0,0
1,note_on,69,0,0
1,note_on,76,60,10
1,note_on,83,71,0
1,note_on,71,60,0
1,note_on,71,0,110
1,note_on,83,0,0
1,note_on,76,0,0
1,note_on,71,66,10
1,note_on,76,66,0
1,note_on,83,79,0
1,note_on,83,0,120
1,note_on,76,0,0
1,note_on,71,0,0
1,note_on,76,67,300
1,note_on,80,67,30
1,note_on,88,80,30
1,note_on,88,0,180
1,note_on,80,0,0
1,note_on,76,0,0
1,note_on,52,67,60
1,note_on,64,79,0
1,note_on,64,0,120
1,note_on,52,0,0
1,note_on,76,67,1020
1,note_on,80,67,30
1,note_on,88,80,30
1,note_on,88,0,180
1,note_on,80,0,0
1,note_on,76,0,0
1,note_on,64,79,60
1,note_on,52,67,0
1,note_on,52,0,120
1,note_on,64,0,0
1,note_on,76,74,1800
1,note_on,76,0,120
1,note_on,69,73,120
1,note_on,73,87,0
1,note_on,81,87,0
1,note_on,81,0,120
1,note_on,73,0,0
1,note_on,69,0,0
1,note_on,61,46,120
1,note_on,64,55,0
1,note_on,64,0,120
1,note_on,61,0,0
1,note_on,59,46,120
1,note_on,62,55,0
1,note_on,62,0,120
1,note_on,59,0,0
1,note_on,57,51,120
1,note_on,61,60,0
1,note_on,61,0,230
1,note_on,57,0,0
1,note_on,61,46,1450
1,note_on,64,55,0
1,note_on,64,0,120
1,note_on,61,0,0
1,note_on,59,46,120
1,note_on,62,55,0
1,note_on,62,0,120
1,note_on,59,0,0
1,note_on,61,60,120
1,note_on,57,51,0
1,note_on,57,0,120
1,note_on,61,0,0
1,note_on,69,74,1080
1,note_on,69,0,120
1,note_on,77,87,120
1,note_on,65,73,0
1,note_on,65,0,120
1,note_on,77,0,0
1,note_on,65,46,120
1,note_on,69,55,0
1,note_on,69,0,120
1,note_on,65,0,0
1,note_on,64,46,120
1,note_on,67,55,0
1,note_on,67,0,120
1,note_on,64,0,0
1,note_on,62,51,120
1,note_on,65,60,0
1,note_on,65,0,120
1,note_on,62,0,0
1,note_on,65,49,120
1,note_on,62,41,0
1,note_on,62,0,120
1,note_on,65,0,0
1,note_on,64,49,120
1,note_on,57,41,0
1,note_on,57,0,120
1,note_on,64,0,0
1,note_on,62,58,120
1,note_on,53,49,0
1,note_on,53,0,120
1,note_on,62,0,0
1,note_on,69,55,840
1,note_on,65,46,0
1,note_on,65,0,120
1,note_on,69,0,0
1,note_on,67,55,120
1,note_on,64,46,0
1,note_on,64,0,120
1,note_on,67,0,0
1,note_on,62,51,120
1,note_on,65,60,0
1,note_on,65,0,120
1,note_on,62,0,0
1,note_on,62,41,120
1,note_on,65,49,0
1,note_on,65,0,120
1,note_on,62,0,0
1,note_on,57,41,120
1,note_on,64,49,0
1,note_on,64,0,120
1,note_on,57,0,0
1,note_on,53,49,120
1,note_on,62,58,0
1,note_on,62,0,120
1,note_on,53,0,0
1,note_on,72,74,360
1,note_on,72,0,120
1,note_on,81,87,120
1,note_on,69,73,0
1,note_on,69,0,120
1,note_on,81,0,0
1,note_on,69,46,120
1,note_on,72,55,0
1,note_on,72,0,120
1,note_on,69,0,0
1,note_on,67,46,120
1,note_on,70,55,0
1,note_on,70,0,120
1,note_on,67,0,0
1,note_on,65,51,120
1,note_on,69,60,0
1,note_on,69,0,120
1,note_on,65,0,0
1,note_on,69,49,120
1,note_on,65,41,0
1,note_on,65,0,120
1,note_on,69,0,0
1,note_on,60,41,120
1,note_on,67,49,0
1,note_on,67,0,120
1,note_on,60,0,0
1,note_on,65,58,120
1,note_on,57,49,0
1,note_on,57,0,120
1,note_on,65,0,0
1,note_on,69,46,840
1,note_on,72,55,0
1,note_on,72,0,120
1,note_on,69,0,0
1,note_on,70,55,120
1,note_on,67,46,0
1,note_on,67,0,120
1,note_on,70,0,0
1,note_on,65,51,120
1,note_on,69,60,0
1,note_on,69,0,120
1,note_on,65,0,0
1,note_on,69,49,120
1,note_on,65,41,0
1,note_on,65,0,120
1,note_on,69,0,0
1,note_on,60,41,120
1,note_on,67,49,0
1,note_on,67,0,120
1,note_on,60,0,0
1,note_on,65,58,120
1,note_on,57,49,0
1,note_on,57,0,120
1,note_on,65,0,0
1,note_on,77,74,360
1,note_on,77,0,120
1,note_on,86,87,120
1,note_on,74,73,0
1,note_on,74,0,120
1,note_on,86,0,0
1,note_on,70,46,120
1,note_on,74,55,0
1,note_on,74,0,120
1,note_on,70,0,0
1,note_on,65,46,120
1,note_on,72,55,0
1,note_on,72,0,120
1,note_on,65,0,0
1,note_on,70,60,120
1,note_on,62,51,0
1,note_on,62,0,120
1,note_on,70,0,0
1,note_on,74,64,1080
1,note_on,74,0,120
1,note_on,71,62,120
1,note_on,83,73,0
1,note_on,83,0,120
1,note_on,71,0,0
1,note_on,68,46,120
1,note_on,71,55,0
1,note_on,71,0,120
1,note_on,68,0,0
1,note_on,69,55,120
1,note_on,66,46,0
1,note_on,66,0,120
1,note_on,69,0,0
1,note_on,65,51,120
1,note_on,68,60,0
1,note_on,68,0,120
1,note_on,65,0,0
1,note_on,71,48,1080
1,note_on,71,0,120
1,note_on,68,49,120
1,note_on,80,58,0
1,note_on,80,0,120
1,note_on,68,0,0
1,note_on,65,43,120
1,note_on,68,51,0
1,note_on,68,0,120
1,note_on,65,0,0
1,note_on,64,40,120
1,note_on,67,48,0
1,note_on,67,0,120
1,note_on,64,0,0
1,note_on,65,45,120
1,note_on,62,38,0
1,note_on,62,0,120
1,note_on,65,0,0
1,note_on,71,74,1080
1,note_on,71,0,240
1,note_on,77,83,0
1,note_on,65,71,0
1,note_on,65,0,120
1,note_on,77,0,0
1,note_on,65,49,360
1,note_on,65,0,700
1,note_on,65,49,20
1,note_on,65,0,720
1,note_on,71,74,0
1,note_on,71,0,240
1,note_on,78,83,0
1,note_on,66,71,0
1,note_on,66,0,120
1,note_on,78,0,0
1,note_on,66,49,360
1,note_on,66,0,700
1,note_on,66,49,20
1,note_on,66,0,720
1,note_on,71,74,0
1,note_on,71,0,240
1,note_on,77,71,0
1,note_on,74,71,0
1,note_on,79,83,0
1,note_on,67,71,0
1,note_on,67,0,120
1,note_on,77,0,0
1,note_on,74,0,0
1,note_on,79,0,0
1,note_on,67,60,360
1,note_on,79,71,0
1,note_on,74,60,0
1,note_on,71,60,0
1,note_on,77,60,0
1,note_on,77,0,700
1,note_on,74,0,0
1,note_on,67,0,0
1,note_on,79,0,0
1,note_on,71,0,0
1,note_on,71,62,20
1,note_on,67,62,0
1,note_on,74,62,0
1,note_on,79,74,0
1,note_on,77,62,0
1,note_on,77,0,700
1,note_on,71,0,0
1,note_on,74,0,0
1,note_on,67,0,0
1,note_on,79,0,20
1,note_on,71,66,0
1,note_on,74,66,0
1,note_on,79,78,0
1,note_on,67,66,0
1,note_on,77,78,0
1,note_on,77,0,220
1,note_on,79,0,0
1,note_on,71,0,0
1,note_on,74,0,0
1,note_on,67,0,0
1,note_on,79,76,20
1,note_on,83,79,0
1,note_on,89,83,0
1,note_on,91,87,0
1,note_on,91,0,120
1,note_on,79,0,0
1,note_on,83,0,0
1,note_on,89,0,0
1,note_on,77,60,360
1,note_on,79,71,0
1,note_on,67,60,0
1,note_on,67,0,720
1,note_on,79,0,0
1,note_on,77,0,0
1,note_on,67,60,0
1,note_on,79,71,0
1,note_on,77,60,0
1,note_on,77,0,120
1,note_on,79,0,0
1,note_on,67,0,0
1,note_on,79,69,120
1,note_on,77,58,0
1,note_on,67,58,0
1,note_on,67,0,120
1,note_on,77,0,0
1,note_on,79,0,0
1,note_on,77,62,120
1,note_on,81,73,0
1,note_on,69,62,0
1,note_on,69,0,120
1,note_on,81,0,0
1,note_on,77,0,0
1,note_on,77,65,120
1,note_on,83,77,0
1,note_on,71,65,0
1,note_on,71,0,120
1,note_on,83,0,0
1,note_on,77,0,0
1,note_on,72,69,120
1,note_on,84,82,0
1,note_on,76,69,0
1,note_on,76,0,120
1,note_on,84,0,0
1,note_on,72,0,0
1,note_on,64,54,360
1,note_on,60,45,0
1,note_on,60,0,120
1,note_on,64,0,0
1,note_on,64,59,120
1,note_on,60,50,0
1,note_on,60,0,120
1,note_on,64,0,0
1,note_on,65,53,120
1,note_on,62,45,0
1,note_on,62,0,120
1,note_on,65,0,0
1,note_on,64,45,120
1,note_on,67,53,0
1,note_on,67,0,120
1,note_on,64,0,0
1,note_on,69,59,120
1,note_on,65,50,0
1,note_on,65,0,120
1,note_on,69,0,0
1,note_on,67,54,120
1,note_on,64,45,0
1,note_on,64,0,120
1,note_on,67,0,0
1,note_on,72,67,60
1,note_on,76,67,30
1,note_on,84,80,30
1,note_on,84,0,180
1,note_on,76,0,0
1,note_on,72,0,0
1,note_on,60,50,60
1,note_on,64,59,0
1,note_on,64,0,120
1,note_on,60,0,0
1,note_on,62,45,120
1,note_on,65,53,0
1,note_on,65,0,120
1,note_on,62,0,0
1,note_on,64,45,120
1,note_on,67,53,0
1,note_on,67,0,120
1,note_on,64,0,0
1,note_on,65,50,120
1,note_on,69,59,0
1,note_on,69,0,120
1,note_on,65,0,0
1,note_on,67,54,120
1,note_on,64,45,0
1,note_on,64,0,120
1,note_on,67,0,0
1,note_on,69,53,120
1,note_on,65,45,0
1,note_on,65,0,120
1,note_on,69,0,0
1,note_on,67,50,120
1,note_on,71,59,0
1,note_on,71,0,120
1,note_on,67,0,0
1,note_on,69,45,120
1,note_on,72,54,0
1,note_on,72,0,120
1,note_on,69,0,0
1,note_on,71,45,120
1,note_on,74,53,0
1,note_on,74,0,120
1,note_on,71,0,0
1,note_on,76,73,60
1,note_on,79,73,20
1,note_on,85,73,20
1,note_on,88,88,20
1,note_on,88,0,180
1,note_on,76,0,0
1,note_on,79,0,0
1,note_on,85,0,0
1,note_on,61,45,300
1,note_on,64,54,0
1,note_on,64,0,120
1,note_on,61,0,0
1,note_on,61,51,120
1,note_on,64,60,0
1,note_on,64,0,120
1,note_on,61,0,0
1,note_on,65,56,120
1,note_on,62,46,0
1,note_on,62,0,120
1,note_on,65,0,0
1,note_on,67,57,120
1,note_on,64,48,0
1,note_on,64,0,120
1,note_on,67,0,0
1,note_on,69,65,120
1,note_on,65,55,0
1,note_on,65,0,120
1,note_on,69,0,0
1,note_on,64,51,120
1,note_on,67,61,0
1,note_on,67,0,120
1,note_on,64,0,0
1,note_on,76,78,60
1,note_on,79,78,20
1,note_on,85,78,20
1,note_on,88,93,20
1,note_on,88,0,180
1,note_on,76,0,0
1,note_on,79,0,0
1,note_on,85,0,0
1,note_on,67,59,60
1,note_on,64,50,0
1,note_on,64,0,120
1,note_on,67,0,0
1,note_on,65,45,120
1,note_on,69,53,0
1,note_on,69,0,120
1,note_on,65,0,0
1,note_on,67,45,120
1,note_on,71,53,0
1,note_on,71,0,120
1,note_on,67,0,0
1,note_on,69,50,120
1,note_on,73,59,0
1,note_on,73,0,120
1,note_on,69,0,0
1,note_on,71,54,120
1,note_on,67,45,0
1,note_on,67,0,120
1,note_on,71,0,0
1,note_on,69,45,120
1,note_on,73,53,0
1,note_on,73,0,120
1,note_on,69,0,0
1,note_on,74,59,120
1,note_on,71,50,0
1,note_on,71,0,120
1,note_on,74,0,0
1,note_on,76,54,120
1,note_on,73,45,0
1,note_on,73,0,120
1,note_on,76,0,0
1,note_on,79,53,120
1,note_on,76,45,0
1,note_on,76,0,120
1,note_on,79,0,0
1,note_on,81,73,60
1,note_on,84,73,20
1,note_on,89,73,20
1,note_on,93,88,20
1,note_on,93,0,180
1,note_on,81,0,0
1,note_on,84,0,0
1,note_on,89,0,0
1,note_on,69,54,300
1,note_on,65,45,0
1,note_on,65,0,120
1,note_on,69,0,0
1,note_on,65,51,120
1,note_on,69,60,0
1,note_on,69,0,120
1,note_on,65,0,0
1,note_on,67,46,120
1,note_on,70,56,0
1,note_on,70,0,120
1,note_on,67,0,0
1,note_on,69,48,120
1,note_on,72,57,0
1,note_on,72,0,120
1,note_on,69,0,0
1,note_on,70,55,120
1,note_on,74,65,0
1,note_on,74,0,120
1,note_on,70,0,0
1,note_on,72,61,120
1,note_on,69,51,0
1,note_on,69,0,120
1,note_on,72,0,0
1,note_on,81,78,60
1,note_on,84,78,20
1,note_on,89,78,20
1,note_on,93,93,20
1,note_on,93,0,180
1,note_on,81,0,0
1,note_on,84,0,0
1,note_on,89,0,0
1,note_on,69,54,60
1,note_on,81,65,0
1,note_on,81,0,120
1,note_on,69,0,0
1,note_on,70,51,120
1,note_on,82,61,0
1,note_on,82,0,120
1,note_on,70,0,0
1,note_on,71,53,120
1,note_on,83,65,0
1,note_on,83,0,120
1,note_on,71,0,0
1,note_on,72,63,120
1,note_on,84,76,0
1,note_on,84,0,120
1,note_on,72,0,0
1,note_on,74,62,120
1,note_on,86,73,0
1,note_on,86,0,120
1,note_on,74,0,0
1,note_on,76,63,120
1,note_on,88,75,0
1,note_on,88,0,120
1,note_on,76,0,0
1,note_on,77,74,120
1,note_on,89,89,0
1,note_on,89,0,120
1,note_on,77,0,0
1,note_on,91,85,120
1,note_on,79,71,0
1,note_on,79,0,120
1,note_on,91,0,0
1,note_on,92,87,120
1,note_on,80,74,0
1,note_on,80,0,120
1,note_on,92,0,0
1,note_on,84,80,120
1,note_on,93,95,0
1,note_on,81,80,0
1,note_on,87,80,0
1,note_on,87,0,120
1,note_on,84,0,0
1,note_on,93,0,0
1,note_on,81,0,0
1,note_on,72,60,1080
1,note_on,69,51,0
1,note_on,69,0,240
1,note_on,72,0,0
1,note_on,71,57,0
1,note_on,74,68,0
1,note_on,74,0,480
1,note_on,71,0,0
1,note_on,72,51,0
1,note_on,75,60,0
1,note_on,75,0,240
1,note_on,72,0,0
1,note_on,69,51,1200
1,note_on,72,60,0
1,note_on,72,0,240
1,note_on,69,0,0
1,note_on,71,57,0
1,note_on,74,68,0
1,note_on,74,0,480
1,note_on,71,0,0
1,note_on,72,51,0
1,note_on,75,60,0
1,note_on,75,0,240
1,note_on,72,0,0
1,note_on,72,51,480
1,note_on,69,51,0
1,note_on,75,60,0
1,note_on,75,0,240
1,note_on,69,0,0
1,note_on,72,0,0
1,note_on,70,54,360
1,note_on,76,64,0
1,note_on,73,54,0
1,note_on,73,0,342
1,note_on,76,0,0
1,note_on,70,0,0
1,note_on,82,73,18
1,note_on,73,62,0
1,note_on,76,62,0
1,note_on,76,0,342
1,note_on,73,0,0
1,note_on,82,0,0
1,note_on,82,69,18
1,note_on,85,82,0
1,note_on,85,0,342
1,note_on,82,0,0
1,note_on,82,77,18
1,note_on,88,91,0
1,note_on,76,77,0
1,note_on,76,0,342
1,note_on,88,0,0
1,note_on,82,0,0
1,note_on,85,86,18
1,note_on,76,73,0
1,note_on,82,73,0
1,note_on,82,0,342
1,note_on,76,0,0
1,note_on,85,0,0
1,note_on,76,70,18
1,note_on,73,70,0
1,note_on,82,83,0
1,note_on,82,0,710
1,note_on,73,0,0
1,note_on,76,0,0
1,note_on,70,62,10
1,note_on,76,73,0
1,note_on,73,62,0
1,note_on,73,0,720
1,note_on,76,0,0
1,note_on,70,0,0
1,note_on,71,57,0
1,note_on,75,66,0
1,note_on,75,0,720
1,note_on,71,0,0
1,note_on,70,51,480
1,note_on,73,60,0
1,note_on,73,0,240
1,note_on,70,0,0
1,note_on,71,57,0
1,note_on,75,68,0
1,note_on,75,0,480
1,note_on,71,0,0
1,note_on,73,51,0
1,note_on,76,60,0
1,note_on,76,0,240
1,note_on,73,0,0
1,note_on,70,51,1200
1,note_on,73,60,0
1,note_on,73,0,240
1,note_on,70,0,0
1,note_on,75,68,0
1,note_on,71,57,0
1,note_on,71,0,480
1,note_on,75,0,0
1,note_on,73,51,0
1,note_on,76,60,0
1,note_on,76,0,240
1,note_on,73,0,0
1,note_on,76,60,480
1,note_on,73,51,0
1,note_on,70,51,0
1,note_on,70,0,240
1,note_on,73,0,0
1,note_on,76,0,0
1,note_on,71,54,360
1,note_on,74,54,0
1,note_on,77,64,0
1,note_on,77,0,342
1,note_on,74,0,0
1,note_on,71,0,0
1,note_on,77,62,18
1,note_on,74,62,0
1,note_on,83,73,0
1,note_on,83,0,342
1,note_on,74,0,0
1,note_on,77,0,0
1,note_on,77,69,18
1,note_on,83,69,0
1,note_on,86,82,0
1,note_on,86,0,342
1,note_on,83,0,0
1,note_on,77,0,0
1,note_on,77,77,18
1,note_on,83,77,0
1,note_on,89,91,0
1,note_on,89,0,342
1,note_on,83,0,0
1,note_on,77,0,0
1,note_on,86,86,18
1,note_on,83,73,0
1,note_on,77,73,0
1,note_on,77,0,342
1,note_on,83,0,0
1,note_on,86,0,0
1,note_on,77,70,18
1,note_on,74,70,0
1,note_on,83,83,0
1,note_on,83,0,710
1,note_on,74,0,0
1,note_on,77,0,0
1,note_on,71,62,10
1,note_on,77,73,0
1,note_on,74,62,0
1,note_on,74,0,720
1,note_on,77,0,0
1,note_on,71,0,0
1,note_on,76,66,0
1,note_on,72,57,0
1,note_on,72,0,240
1,note_on,76,0,0
1,note_on,68,70,480
1,note_on,64,59,0
1,note_on,76,70,0
1,note_on,72,59,0
1,note_on,68,0,720
1,note_on,69,66,0
1,note_on,69,0,240
1,note_on,72,0,0
1,note_on,76,0,0
1,note_on,64,0,0
1,note_on,68,70,480
1,note_on,64,59,0
1,note_on,76,70,0
1,note_on,72,59,0
1,note_on,68,0,720
1,note_on,69,66,0
1,note_on,69,0,240
1,note_on,72,0,0
1,note_on,76,0,0
1,note_on,64,0,0
1,note_on,64,59,480
1,note_on,68,70,0
1,note_on,72,59,0
1,note_on,76,70,0
1,note_on,68,0,720
1,note_on,69,66,0
1,note_on,69,0,240
1,note_on,76,0,0
1,note_on,72,0,0
1,note_on,64,0,0
1,note_on,72,59,480
1,note_on,64,59,0
1,note_on,76,70,0
1,note_on,68,70,0
1,note_on,68,0,650
1,note_on,72,0,0
1,note_on,64,0,0
1,note_on,76,0,0
1,note_on,65,49,10
1,note_on,72,49,30
1,note_on,77,59,30
1,note_on,72,0,680
1,note_on,77,0,33
1,note_on,65,0,7
1,note_on,76,53,0
1,note_on,72,45,0
1,note_on,64,45,0
1,note_on,64,0,713
1,note_on,72,0,0
1,note_on,76,0,0
1,note_on,69,49,7
1,note_on,74,59,0
1,note_on,62,49,0
1,note_on,62,0,713
1,note_on,74,0,0
1,note_on,69,0,0
1,note_on,69,39,7
1,note_on,72,47,0
1,note_on,62,39,0
1,note_on,60,39,0
1,note_on,60,0,713
1,note_on,69,0,0
1,note_on,72,0,0
1,note_on,62,0,0
1,note_on,62,45,7
1,note_on,59,45,0
1,note_on,71,53,0
1,note_on,67,45,0
1,note_on,67,0,713
1,note_on,62,0,0
1,note_on,59,0,0
1,note_on,71,0,0
1,note_on,62,38,7
1,note_on,69,45,0
1,note_on,59,38,0
1,note_on,59,0,713
1,note_on,69,0,0
1,note_on,62,0,0
1,note_on,67,53,7
1,note_on,60,45,0
1,note_on,64,45,0
1,note_on,64,0,713
1,note_on,60,0,0
1,note_on,67,0,0
1,note_on,55,37,7
1,note_on,59,37,0
1,note_on,65,45,0
1,note_on,65,0,713
1,note_on,59,0,0
1,note_on,55,0,0
1,note_on,64,43,7
1,note_on,60,37,0
1,note_on,60,0,240
1,note_on,64,0,0
1,note_on,72,59,480
1,note_on,64,59,0
1,note_on,68,70,0
1,note_on,76,70,0
1,note_on,68,0,720
1,note_on,69,66,0
1,note_on,69,0,240
1,note_on,76,0,0
1,note_on,64,0,0
1,note_on,72,0,0
1,note_on,68,70,480
1,note_on,76,70,0
1,note_on,72,59,0
1,note_on,64,59,0
1,note_on,68,0,720
1,note_on,69,66,0
1,note_on,69,0,240
1,note_on,64,0,0
1,note_on,72,0,0
1,note_on,76,0,0
1,note_on,76,70,480
1,note_on,68,70,0
1,note_on,72,59,0
1,note_on,64,59,0
1,note_on,68,0,720
1,note_on,69,66,0
1,note_on,69,0,240
1,note_on,64,0,0
1,note_on,72,0,0
1,note_on,76,0,0
1,note_on,68,70,480
1,note_on,64,59,0
1,note_on,72,59,0
1,note_on,76,70,0
1,note_on,76,0,650
1,note_on,68,0,0
1,note_on,64,0,0
1,note_on,72,0,0
1,note_on,65,49,10
1,note_on,72,49,30
1,note_on,77,59,30
1,note_on,72,0,683
1,note_on,77,0,30
1,note_on,65,0,7
1,note_on,64,45,0
1,note_on,72,45,0
1,note_on,76,53,0
1,note_on,76,0,713
1,note_on,72,0,0
1,note_on,64,0,0
1,note_on,69,49,7
1,note_on,74,59,0
1,note_on,62,49,0
1,note_on,62,0,713
1,note_on,74,0,0
1,note_on,69,0,0
1,note_on,62,39,7
1,note_on,72,47,0
1,note_on,69,39,0
1,note_on,69,0,713
1,note_on,72,0,0
1,note_on,62,0,0
1,note_on,62,45,7
1,note_on,67,45,0
1,note_on,71,53,0
1,note_on,71,0,713
1,note_on,67,0,0
1,note_on,62,0,0
1,note_on,81,62,7
1,note_on,71,52,0
1,note_on,69,52,0
1,note_on,69,0,713
1,note_on,71,0,0
1,note_on,81,0,0
1,note_on,79,64,7
1,note_on,72,54,0
1,note_on,67,54,0
1,note_on,67,0,713
1,note_on,72,0,0
1,note_on,79,0,0
1,note_on,65,46,7
1,note_on,77,55,0
1,note_on,71,46,0
1,note_on,71,0,713
1,note_on,77,0,0
1,note_on,65,0,0
1,note_on,64,54,7
1,note_on,72,54,0
1,note_on,76,64,0
1,note_on,76,0,720
1,note_on,72,0,0
1,note_on,64,0,0
1,note_on,70,46,0
1,note_on,79,55,0
1,note_on,67,46,0
1,note_on,67,0,650
1,note_on,79,0,0
1,note_on,70,0,0
1,note_on,70,39,10
1,note_on,79,47,0
1,note_on,79,0,60
1,note_on,70,0,0
1,note_on,69,52,0
1,note_on,77,62,0
1,note_on,77,0,288
1,note_on,69,0,0
1,note_on,76,55,72
1,note_on,67,46,0
1,note_on,67,0,288
1,note_on,76,0,0
1,note_on,69,54,72
1,note_on,77,64,0
1,note_on,77,0,288
1,note_on,69,0,0
1,note_on,74,55,72
1,note_on,65,46,0
1,note_on,65,0,288
1,note_on,74,0,0
1,note_on,69,50,72
1,note_on,64,50,0
1,note_on,74,59,0
1,note_on,74,0,288
1,note_on,64,0,0
1,note_on,69,0,0
1,note_on,72,51,72
1,note_on,64,43,0
1,note_on,69,43,0
1,note_on,69,0,288
1,note_on,64,0,0
1,note_on,72,0,0
1,note_on,69,50,72
1,note_on,64,50,0
1,note_on,71,59,0
1,note_on,71,0,288
1,note_on,64,0,0
1,note_on,69,0,0
1,note_on,69,54,72
1,note_on,72,64,0
1,note_on,64,54,0
1,note_on,64,0,288
1,note_on,72,0,0
1,note_on,69,0,0
1,note_on,65,60,72
1,note_on,71,60,0
1,note_on,76,71,0
1,note_on,76,0,1200
1,note_on,74,62,0
1,note_on,74,0,240
1,note_on,71,0,0
1,note_on,65,0,0
1,note_on,64,49,0
1,note_on,72,58,0
1,note_on,72,0,240
1,note_on,64,0,0
1,note_on,81,70,480
1,note_on,69,59,0
1,note_on,73,70,0
1,note_on,77,59,0
1,note_on,73,0,720
1,note_on,74,66,0
1,note_on,74,0,240
1,note_on,77,0,0
1,note_on,69,0,0
1,note_on,81,0,0
1,note_on,69,59,480
1,note_on,73,70,0
1,note_on,81,70,0
1,note_on,77,59,0
1,note_on,73,0,720
1,note_on,74,66,0
1,note_on,74,0,240
1,note_on,77,0,0
1,note_on,81,0,0
1,note_on,69,0,0
1,note_on,69,59,480
1,note_on,77,59,0
1,note_on,73,70,0
1,note_on,81,70,0
1,note_on,73,0,720
1,note_on,74,66,0
1,note_on,74,0,240
1,note_on,81,0,0
1,note_on,77,0,0
1,note_on,69,0,0
1,note_on,69,59,480
1,note_on,73,70,0
1,note_on,81,70,0
1,note_on,77,59,0
1,note_on,77,0,650
1,note_on,69,0,0
1,note_on,73,0,0
1,note_on,81,0,0
1,note_on,70,49,10
1,note_on,77,51,20
1,note_on,84,51,20
1,note_on,84,0,20
1,note_on,82,62,0
1,note_on,77,0,680
1,note_on,82,0,40
1,note_on,70,0,0
1,note_on,77,45,0
1,note_on,81,53,0
1,note_on,69,45,0
1,note_on,69,0,720
1,note_on,81,0,0
1,note_on,77,0,0
1,note_on,79,59,0
1,note_on,67,49,0
1,note_on,74,49,0
1,note_on,74,0,713
1,note_on,67,0,0
1,note_on,79,0,0
1,note_on,77,47,7
1,note_on,74,39,0
1,note_on,67,39,0
1,note_on,67,0,713
1,note_on,74,0,0
1,note_on,77,0,0
1,note_on,76,53,7
1,note_on,67,45,0
1,note_on,72,45,0
1,note_on,72,0,713
1,note_on,67,0,0
1,note_on,76,0,0
1,note_on,74,45,7
1,note_on,67,38,0
1,note_on,65,38,0
1,note_on,65,0,713
1,note_on,67,0,0
1,note_on,74,0,0
1,note_on,72,53,7
1,note_on,67,45,0
1,note_on,64,45,0
1,note_on,64,0,713
1,note_on,67,0,0
1,note_on,72,0,0
1,note_on,67,37,7
1,note_on,64,37,0
1,note_on,70,45,0
1,note_on,70,0,713
1,note_on,64,0,0
1,note_on,67,0,0
1,note_on,65,37,7
1,note_on,69,43,0
1,note_on,69,0,240
1,note_on,65,0,0
1,note_on,81,70,480
1,note_on,69,59,0
1,note_on,73,70,0
1,note_on,77,59,0
1,note_on,73,0,720
1,note_on,74,66,0
1,note_on,74,0,240
1,note_on,77,0,0
1,note_on,69,0,0
1,note_on,81,0,0
1,note_on,81,70,480
1,note_on,76,59,0
1,note_on,69,59,0
1,note_on,76,0,720
1,note_on,77,66,0
1,note_on,77,0,240
1,note_on,69,0,0
1,note_on,81,0,0
1,note_on,72,59,480
1,note_on,81,59,0
1,note_on,76,70,0
1,note_on,84,70,0
1,note_on,76,0,720
1,note_on,77,66,0
1,note_on,77,0,240
1,note_on,84,0,0
1,note_on,81,0,0
1,note_on,72,0,0
1,note_on,80,59,480
1,note_on,84,76,0
1,note_on,72,59,0
1,note_on,80,0,720
1,note_on,81,73,0
1,note_on,81,0,240
1,note_on,72,0,0
1,note_on,84,0,0
1,note_on,76,70,480
1,note_on,88,70,0
1,note_on,84,59,0
1,note_on,84,0,650
1,note_on,88,0,0
1,note_on,76,0,0
1,note_on,77,56,10
1,note_on,84,52,20
1,note_on,91,51,20
1,note_on,91,0,20
1,note_on,89,74,0
1,note_on,84,0,680
1,note_on,89,0,40
1,note_on,77,0,0
1,note_on,88,60,0
1,note_on,76,51,0
1,note_on,84,51,0
1,note_on,84,0,713
1,note_on,76,0,0
1,note_on,88,0,0
1,note_on,81,56,7
1,note_on,86,67,0
1,note_on,74,56,0
1,note_on,74,0,713
1,note_on,86,0,0
1,note_on,81,0,0
1,note_on,74,44,7
1,note_on,81,44,0
1,note_on,72,44,0
1,note_on,84,54,0
1,note_on,84,0,713
1,note_on,74,0,0
1,note_on,81,0,0
1,note_on,72,0,0
1,note_on,74,51,7
1,note_on,79,51,0
1,note_on,83,60,0
1,note_on,71,51,0
1,note_on,71,0,658
1,note_on,74,0,0
1,note_on,79,0,0
1,note_on,83,0,0
1,note_on,81,59,2
1,note_on,83,59,30
1,note_on,93,71,30
1,note_on,93,0,720
1,note_on,83,0,0
1,note_on,81,0,0
1,note_on,91,73,0
1,note_on,84,62,0
1,note_on,79,62,0
1,note_on,79,0,713
1,note_on,84,0,0
1,note_on,91,0,0
1,note_on,83,52,7
1,note_on,77,52,0
1,note_on,89,63,0
1,note_on,89,0,713
1,note_on,77,0,0
1,note_on,83,0,0
1,note_on,88,73,7
1,note_on,84,62,0
1,note_on,76,62,0
1,note_on,76,0,713
1,note_on,84,0,0
1,note_on,88,0,0
1,note_on,79,52,7
1,note_on,82,52,0
1,note_on,91,63,0
1,note_on,91,0,650
1,note_on,82,0,0
1,note_on,79,0,0
1,note_on,79,42,10
1,note_on,82,42,0
1,note_on,91,51,0
1,note_on,91,0,60
1,note_on,82,0,0
1,note_on,79,0,0
1,note_on,77,57,0
1,note_on,89,68,0
1,note_on,81,57,0
1,note_on,81,0,288
1,note_on,89,0,0
1,note_on,77,0,0
1,note_on,88,60,72
1,note_on,76,50,0
1,note_on,79,50,0
1,note_on,79,0,288
1,note_on,76,0,0
1,note_on,88,0,0
1,note_on,77,59,72
1,note_on,81,59,0
1,note_on,89,70,0
1,note_on,89,0,288
1,note_on,81,0,0
1,note_on,77,0,0
1,note_on,74,50,72
1,note_on,81,50,0
1,note_on,86,60,0
1,note_on,86,0,288
1,note_on,81,0,0
1,note_on,74,0,0
1,note_on,76,55,72
1,note_on,74,55,0
1,note_on,86,64,0
1,note_on,81,55,0
1,note_on,81,0,288
1,note_on,76,0,0
1,note_on,74,0,0
1,note_on,86,0,0
1,note_on,72,47,72
1,note_on,84,56,0
1,note_on,76,47,0
1,note_on,81,47,0
1,note_on,81,0,288
1,note_on,72,0,0
1,note_on,84,0,0
1,note_on,76,0,0
1,note_on,83,64,72
1,note_on,76,55,0
1,note_on,71,55,0
1,note_on,81,55,0
1,note_on,81,0,288
1,note_on,83,0,0
1,note_on,76,0,0
1,note_on,71,0,0
1,note_on,84,70,72
1,note_on,76,59,0
1,note_on,72,59,0
1,note_on,81,59,0
1,note_on,81,0,288
1,note_on,84,0,0
1,note_on,76,0,0
1,note_on,72,0,0
1,note_on,88,71,72
1,note_on,83,60,0
1,note_on,76,60,0
1,note_on,77,60,0
1,note_on,76,0,1200
1,note_on,88,0,0
1,note_on,86,62,0
1,note_on,74,52,0
1,note_on,74,0,240
1,note_on,77,0,0
1,note_on,83,0,0
1,note_on,86,0,0
1,note_on,72,49,0
1,note_on,79,49,0
1,note_on,84,58,0
1,note_on,76,49,0
1,note_on,76,0,120
1,note_on,72,0,0
1,note_on,79,0,0
1,note_on,84,0,0
1,note_on,84,68,600
1,note_on,88,81,0
1,note_on,76,68,0
1,note_on,76,0,120
1,note_on,88,0,0
1,note_on,84,0,0
1,note_on,74,67,600
1,note_on,83,67,0
1,note_on,86,79,0
1,note_on,86,0,120
1,note_on,83,0,0
1,note_on,74,0,0
1,note_on,84,68,600
1,note_on,76,68,0
1,note_on,88,80,0
1,note_on,88,0,120
1,note_on,76,0,0
1,note_on,84,0,0
1,note_on,74,63,600
1,note_on,86,75,0
1,note_on,83,63,0
1,note_on,83,0,120
1,note_on,86,0,0
1,note_on,74,0,0
1,note_on,95,78,600
1,note_on,83,66,0
1,note_on,83,0,240
1,note_on,95,0,0
1,note_on,93,65,0
1,note_on,93,0,240
1,note_on,95,65,0
1,note_on,95,0,240
1,note_on,84,67,0
1,note_on,96,79,0
1,note_on,96,0,240
1,note_on,84,0,0
1,note_on,91,67,0
1,note_on,91,0,240
1,note_on,88,67,0
1,note_on,88,0,240
1,note_on,83,66,0
1,note_on,95,78,0
1,note_on,95,0,240
1,note_on,83,0,0
1,note_on,93,63,0
1,note_on,93,0,240
1,note_on,95,63,0
1,note_on,95,0,240
1,note_on,96,76,0
1,note_on,84,64,0
1,note_on,84,0,240
1,note_on,96,0,0
1,note_on,91,65,0
1,note_on,91,0,240
1,note_on,88,65,0
1,note_on,88,0,240
1,note_on,84,68,0
1,note_on,76,68,0
1,note_on,88,81,0
1,note_on,88,0,120
1,note_on,76,0,0
1,note_on,84,0,0
1,note_on,74,67,600
1,note_on,83,67,0
1,note_on,86,79,0
1,note_on,86,0,120
1,note_on,83,0,0
1,note_on,74,0,0
1,note_on,76,68,600
1,note_on,84,68,0
1,note_on,88,80,0
1,note_on,88,0,120
1,note_on,84,0,0
1,note_on,76,0,0
1,note_on,83,63,600
1,note_on,74,63,0
1,note_on,86,75,0
1,note_on,86,0,120
1,note_on,74,0,0
1,note_on,83,0,0
1,note_on,95,78,600
1,note_on,83,66,0
1,note_on,83,0,240
1,note_on,95,0,0
1,note_on,93,65,0
1,note_on,93,0,240
1,note_on,95,65,0
1,note_on,95,0,240
1,note_on,96,79,0
1,note_on,84,67,0
1,note_on,84,0,240
1,note_on,96,0,0
1,note_on,91,67,0
1,note_on,91,0,240
1,note_on,88,67,0
1,note_on,88,0,240
1,note_on,95,78,0
1,note_on,83,66,0
1,note_on,83,0,240
1,note_on,95,0,0
1,note_on,93,63,0
1,note_on,93,0,240
1,note_on,95,63,0
1,note_on,95,0,240
1,note_on,96,76,0
1,note_on,84,64,0
1,note_on,84,0,240
1,note_on,96,0,0
1,note_on,91,65,0
1,note_on,91,0,240
1,note_on,88,65,0
1,note_on,88,0,180
1,note_on,88,64,60
1,note_on,100,76,0
1,note_on,100,0,240
1,note_on,88,0,0
1,note_on,96,65,0
1,note_on,96,0,240
1,note_on,93,65,0
1,note_on,93,0,240
1,note_on,103,79,0
1,note_on,91,67,0
1,note_on,91,0,240
1,note_on,103,0,0
1,note_on,100,64,0
1,note_on,100,0,240
1,note_on,96,64,0
1,note_on,96,0,240
1,note_on,88,78,0
1,note_on,100,78,0
1,note_on,100,0,240
1,note_on,88,0,0
1,note_on,96,64,0
1,note_on,96,0,240
1,note_on,91,64,0
1,note_on,91,0,240
1,note_on,96,78,0
1,note_on,84,66,0
1,note_on,84,0,240
1,note_on,96,0,0
1,note_on,91,64,0
1,note_on,91,0,240
1,note_on,88,64,0
1,note_on,88,0,240
1,note_on,79,63,0
1,note_on,91,75,0
1,note_on,91,0,240
1,note_on,79,0,0
1,note_on,88,64,0
1,note_on,88,0,240
1,note_on,84,64,0
1,note_on,84,0,240
1,note_on,79,77,0
1,note_on,79,0,120
1,note_on,88,65,600
1,note_on,91,77,0
1,note_on,84,65,0
1,note_on,79,65,0
1,note_on,79,0,120
1,note_on,88,0,0
1,note_on,91,0,0
1,note_on,84,0,0
1,note_on,86,73,1320
1,note_on,95,87,0
1,note_on,89,73,0
1,note_on,83,73,0
1,note_on,83,0,120
1,note_on,86,0,0
1,note_on,95,0,0
1,note_on,89,0,0
1,note_on,84,76,600
1,note_on,96,90,0
1,note_on,88,76,0
1,note_on,88,0,120
1,note_on,96,0,0
1,note_on,84,0,0
1,note_on,60,45,360
1,note_on,64,54,0
1,note_on,64,0,120
1,note_on,60,0,0
1,note_on,64,60,120
1,note_on,60,51,0
1,note_on,60,0,240
1,note_on,64,0,0
1,note_on,62,48,0
1,note_on,65,56,0
1,note_on,65,0,240
1,note_on,62,0,0
1,note_on,67,58,0
1,note_on,64,49,0
1,note_on,64,0,240
1,note_on,67,0,0
1,note_on,65,57,0
1,note_on,69,67,0
1,note_on,69,0,240
1,note_on,65,0,0
1,note_on,64,52,0
1,note_on,67,62,0
1,note_on,67,0,240
1,note_on,64,0,0
1,note_on,65,54,0
1,note_on,69,64,0
1,note_on,69,0,240
1,note_on,65,0,0
1,note_on,67,62,0
1,note_on,71,73,0
1,note_on,71,0,240
1,note_on,67,0,0
1,note_on,69,57,0
1,note_on,72,67,0
1,note_on,72,0,240
1,note_on,69,0,0
1,note_on,71,65,0
1,note_on,74,77,0
1,note_on,74,0,240
1,note_on,71,0,0
1,note_on,76,76,0
1,note_on,88,90,0
1,note_on,84,76,0
1,note_on,84,0,120
1,note_on,88,0,0
1,note_on,76,0,0
1,note_on,64,45,360
1,note_on,67,54,0
1,note_on,67,0,120
1,note_on,64,0,0
1,note_on,67,60,120
1,note_on,64,51,0
1,note_on,64,0,240
1,note_on,67,0,0
1,note_on,65,48,0
1,note_on,69,56,0
1,note_on,69,0,240
1,note_on,65,0,0
1,note_on,71,58,0
1,note_on,67,49,0
1,note_on,67,0,240
1,note_on,71,0,0
1,note_on,69,57,0
1,note_on,72,67,0
1,note_on,72,0,240
1,note_on,69,0,0
1,note_on,67,52,0
1,note_on,71,62,0
1,note_on,71,0,240
1,note_on,67,0,0
1,note_on,69,54,0
1,note_on,72,64,0
1,note_on,72,0,240
1,note_on,69,0,0
1,note_on,71,62,0
1,note_on,74,73,0
1,note_on,74,0,240
1,note_on,71,0,0
1,note_on,72,57,0
1,note_on,76,67,0
1,note_on,76,0,240
1,note_on,72,0,0
1,note_on,74,65,0
1,note_on,77,77,0
1,note_on,77,0,240
1,note_on,74,0,0
1,note_on,79,76,0
1,note_on,91,90,0
1,note_on,88,76,0
1,note_on,88,0,120
1,note_on,91,0,0
1,note_on,79,0,0
1,note_on,71,45,360
1,note_on,79,45,0
1,note_on,83,54,0
1,note_on,83,0,120
1,note_on,79,0,0
1,note_on,71,0,0
1,note_on,71,51,120
1,note_on,83,60,0
1,note_on,79,51,0
1,note_on,79,0,120
1,note_on,83,0,0
1,note_on,71,0,0
1,note_on,72,48,120
1,note_on,81,48,0
1,note_on,84,56,0
1,note_on,84,0,120
1,note_on,81,0,0
1,note_on,72,0,0
1,note_on,74,49,120
1,note_on,86,58,0
1,note_on,83,49,0
1,note_on,83,0,120
1,note_on,86,0,0
1,note_on,74,0,0
1,note_on,76,57,120
1,note_on,84,57,0
1,note_on,88,67,0
1,note_on,88,0,120
1,note_on,84,0,0
1,note_on,76,0,0
1,note_on,74,52,120
1,note_on,83,52,0
1,note_on,86,62,0
1,note_on,86,0,120
1,note_on,83,0,0
1,note_on,74,0,0
1,note_on,76,54,120
1,note_on,84,54,0
1,note_on,88,64,0
1,note_on,88,0,120
1,note_on,84,0,0
1,note_on,76,0,0
1,note_on,77,62,120
1,note_on,86,62,0
1,note_on,89,73,0
1,note_on,89,0,120
1,note_on,86,0,0
1,note_on,77,0,0
1,note_on,79,57,120
1,note_on,88,57,0
1,note_on,91,67,0
1,note_on,91,0,120
1,note_on,88,0,0
1,note_on,79,0,0
1,note_on,81,65,120
1,note_on,89,65,0
1,note_on,93,77,0
1,note_on,93,0,120
1,note_on,89,0,0
1,note_on,81,0,0
1,note_on,83,68,120
1,note_on,91,72,0
1,note_on,95,85,0
1,note_on,95,0,120
1,note_on,91,0,0
1,note_on,83,0,0
1,note_on,81,72,600
1,note_on,84,72,0
1,note_on,89,72,0
1,note_on,93,85,0
1,note_on,93,0,120
1,note_on,81,0,0
1,note_on,84,0,0
1,note_on,89,0,0
1,note_on,91,85,600
1,note_on,88,72,0
1,note_on,84,72,0
1,note_on,79,72,0
1,note_on,79,0,120
1,note_on,91,0,0
1,note_on,88,0,0
1,note_on,84,0,0
1,note_on,76,72,600
1,note_on,79,72,0
1,note_on,83,72,0
1,note_on,88,85,0
1,note_on,88,0,120
1,note_on,76,0,0
1,note_on,79,0,0
1,note_on,83,0,0
1,note_on,84,85,600
1,note_on,81,72,0
1,note_on,76,72,0
1,note_on,72,72,0
1,note_on,72,0,120
1,note_on,84,0,0
1,note_on,81,0,0
1,note_on,76,0,0
1,note_on,74,72,1320
1,note_on,79,72,0
1,note_on,83,72,0
1,note_on,86,85,0
1,note_on,86,0,120
1,note_on,74,0,0
1,note_on,79,0,0
1,note_on,83,0,0
1,note_on,76,76,1200
1,note_on,79,76,0
1,note_on,84,76,0
1,note_on,88,76,0
1,note_on,88,0,60
1,note_on,76,0,0
1,note_on,79,0,0
1,note_on,84,0,0
1,note_on,76,72,60
1,note_on,79,72,0
1,note_on,84,72,0
1,note_on,88,85,0
1,note_on,88,0,1440
1,note_on,76,0,0
1,note_on,79,0,0
1,note_on,84,0,0
2,note_on,36,60,2160
2,note_on,36,0,120
2,note_on,43,49,120
2,note_on,43,0,120
2,note_on,48,49,120
2,note_on,48,0,120
2,note_on,36,56,120
2,note_on,36,0,120
2,note_on,43,44,120
2,note_on,43,0,120
2,note_on,48,44,120
2,note_on,48,0,120
2,note_on,36,56,120
2,note_on,36,0,120
2,note_on,43,46,120
2,note_on,43,0,120
2,note_on,48,46,120
2,note_on,48,0,120
2,note_on,36,60,120
2,note_on,36,0,120
2,note_on,43,49,120
2,note_on,43,0,120
2,note_on,48,49,120
2,note_on,48,0,120
2,note_on,36,56,120
2,note_on,36,0,120
2,note_on,43,44,120
2,note_on,43,0,120
2,note_on,48,44,120
2,note_on,48,0,120
2,note_on,36,56,120
2,note_on,36,0,120
2,note_on,43,46,120
2,note_on,43,0,120
2,note_on,48,46,120
2,note_on,48,0,120
2,note_on,36,60,120
2,note_on,36,0,120
2,note_on,43,49,120
2,note_on,43,0,120
2,note_on,48,49,120
2,note_on,48,0,120
2,note_on,36,57,120
2,note_on,36,0,120
2,note_on,43,46,120
2,note_on,43,0,120
2,note_on,48,47,120
2,note_on,48,0,120
2,note_on,36,62,120
2,note_on,36,0,120
2,note_on,43,52,120
2,note_on,43,0,120
2,note_on,48,53,120
2,note_on,48,0,120
2,note_on,36,66,120
2,note_on,36,0,120
2,note_on,43,55,120
2,note_on,43,0,120
2,note_on,48,56,120
2,note_on,48,0,120
2,note_on,36,67,120
2,note_on,36,0,120
2,note_on,43,54,120
2,note_on,43,0,120
2,note_on,48,55,120
2,note_on,48,0,120
2,note_on,36,72,120
2,note_on,36,0,120
2,note_on,43,61,120
2,note_on,43,0,120
2,note_on,48,62,120
2,note_on,48,0,120
2,note_on,35,73,120
2,note_on,35,0,120
2,note_on,43,52,120
2,note_on,43,0,120
2,note_on,47,53,120
2,note_on,47,0,120
2,note_on,35,71,120
2,note_on,35,0,120
2,note_on,43,56,120
2,note_on,43,0,120
2,note_on,47,56,120
2,note_on,47,0,120
2,note_on,35,73,120
2,note_on,35,0,120
2,note_on,42,52,120
2,note_on,42,0,120
2,note_on,47,53,120
2,note_on,47,0,120
2,note_on,35,71,120
2,note_on,35,0,120
2,note_on,42,56,120
2,note_on,42,0,120
2,note_on,47,56,120
2,note_on,47,0,120
2,note_on,35,71,120
2,note_on,35,0,120
2,note_on,40,56,120
2,note_on,40,0,120
2,note_on,47,56,120
2,note_on,47,0,120
2,note_on,35,71,120
2,note_on,35,0,120
2,note_on,39,56,120
2,note_on,39,0,120
2,note_on,47,56,120
2,note_on,47,0,120
2,note_on,28,73,120
2,note_on,28,0,120
2,note_on,35,52,120
2,note_on,35,0,120
2,note_on,40,53,120
2,note_on,40,0,120
2,note_on,28,71,120
2,note_on,28,0,120
2,note_on,35,56,120
2,note_on,35,0,120
2,note_on,40,56,120
2,note_on,40,0,120
2,note_on,28,73,120
2,note_on,28,0,120
2,note_on,35,52,120
2,note_on,35,0,120
2,note_on,40,53,120
2,note_on,40,0,120
2,note_on,28,71,120
2,note_on,28,0,120
2,note_on,35,56,120
2,note_on,35,0,120
2,note_on,40,56,120
2,note_on,40,0,120
2,note_on,28,71,120
2,note_on,28,0,120
2,note_on,35,56,120
2,note_on,35,0,120
2,note_on,40,56,120
2,note_on,40,0,120
2,note_on,28,71,120
2,note_on,28,0,120
2,note_on,35,56,120
2,note_on,35,0,120
2,note_on,40,56,120
2,note_on,40,0,120
2,note_on,28,71,120
2,note_on,28,0,120
2,note_on,52,53,360
2,note_on,56,53,0
2,note_on,59,53,0
2,note_on,64,63,0
2,note_on,64,0,480
2,note_on,52,0,0
2,note_on,56,0,0
2,note_on,59,0,0
2,note_on,61,53,0
2,note_on,52,53,0
2,note_on,57,53,0
2,note_on,64,63,0
2,note_on,64,0,720
2,note_on,61,0,0
2,note_on,52,0,0
2,note_on,57,0,0
2,note_on,57,52,0
2,note_on,64,62,0
2,note_on,52,52,0
2,note_on,54,52,0
2,note_on,54,0,360
2,note_on,57,0,0
2,note_on,64,0,0
2,note_on,52,0,0
2,note_on,59,46,0
2,note_on,52,46,0
2,note_on,56,46,0
2,note_on,64,55,0
2,note_on,64,0,110
2,note_on,59,0,0
2,note_on,52,0,0
2,note_on,56,0,0
2,note_on,64,61,10
2,note_on,52,51,0
2,note_on,56,51,0
2,note_on,59,51,0
2,note_on,59,0,120
2,note_on,64,0,0
2,note_on,52,0,0
2,note_on,56,0,0
2,note_on,52,56,360
2,note_on,40,47,0
2,note_on,47,47,0
2,note_on,47,0,480
2,note_on,40,0,0
2,note_on,52,0,0
2,note_on,52,56,0
2,note_on,40,47,0
2,note_on,49,47,0
2,note_on,49,0,720
2,note_on,40,0,0
2,note_on,52,0,0
2,note_on,45,46,0
2,note_on,52,55,0
2,note_on,40,46,0
2,note_on,40,0,350
2,note_on,52,0,0
2,note_on,45,0,0
2,note_on,40,41,10
2,note_on,47,41,0
2,note_on,52,49,0
2,note_on,52,0,120
2,note_on,47,0,0
2,note_on,40,0,0
2,note_on,40,60,0
2,note_on,40,0,120
2,note_on,47,49,120
2,note_on,47,0,120
2,note_on,52,49,120
2,note_on,52,0,120
2,note_on,28,56,120
2,note_on,28,0,120
2,note_on,35,44,120
2,note_on,35,0,120
2,note_on,40,44,120
2,note_on,40,0,120
2,note_on,28,56,120
2,note_on,28,0,120
2,note_on,35,46,120
2,note_on,35,0,120
2,note_on,40,46,120
2,note_on,40,0,120
2,note_on,28,56,120
2,note_on,28,0,120
2,note_on,35,44,120
2,note_on,35,0,120
2,note_on,40,44,120
2,note_on,40,0,120
2,note_on,28,56,120
2,note_on,28,0,120
2,note_on,35,46,120
2,note_on,35,0,120
2,note_on,40,46,120
2,note_on,40,0,120
2,note_on,28,56,120
2,note_on,28,0,120
2,note_on,35,46,120
2,note_on,35,0,120
2,note_on,40,46,120
2,note_on,40,0,120
2,note_on,28,50,120
2,note_on,28,0,120
2,note_on,35,36,120
2,note_on,35,0,120
2,note_on,40,33,120
2,note_on,40,0,120
2,note_on,28,39,120
2,note_on,28,0,120
2,note_on,35,28,120
2,note_on,35,0,120
2,note_on,40,27,120
2,note_on,40,0,120
2,note_on,28,34,120
2,note_on,28,0,120
2,note_on,35,27,120
2,note_on,35,0,120
2,note_on,40,27,120
2,note_on,40,0,120
2,note_on,28,30,120
2,note_on,28,0,120
2,note_on,35,21,120
2,note_on,35,0,120
2,note_on,40,20,120
2,note_on,40,0,120
2,note_on,28,27,120
2,note_on,28,0,120
2,note_on,35,20,120
2,note_on,35,0,120
2,note_on,40,20,120
2,note_on,40,0,120
2,note_on,28,26,120
2,note_on,28,0,120
2,note_on,36,60,600
2,note_on,36,0,120
2,note_on,43,49,120
2,note_on,43,0,120
2,note_on,48,49,120
2,note_on,48,0,120
2,note_on,36,56,120
2,note_on,36,0,120
2,note_on,43,44,120
2,note_on,43,0,120
2,note_on,48,44,120
2,note_on,48,0,120
2,note_on,36,56,120
2,note_on,36,0,120
2,note_on,43,46,120
2,note_on,43,0,120
2,note_on,48,46,120
2,note_on,48,0,120
2,note_on,36,60,120
2,note_on,36,0,120
2,note_on,43,49,120
2,note_on,43,0,120
2,note_on,48,49,120
2,note_on,48,0,120
2,note_on,36,56,120
2,note_on,36,0,120
2,note_on,43,44,120
2,note_on,43,0,120
2,note_on,48,44,120
2,note_on,48,0,120
2,note_on,36,56,120
2,note_on,36,0,120
2,note_on,43,46,120
2,note_on,43,0,120
2,note_on,48,46,120
2,note_on,48,0,120
2,note_on,36,60,120
2,note_on,36,0,120
2,note_on,43,49,120
2,note_on,43,0,120
2,note_on,48,49,120
2,note_on,48,0,120
2,note_on,36,57,120
2,note_on,36,0,120
2,note_on,43,46,120
2,note_on,43,0,120
2,note_on,48,47,120
2,note_on,48,0,120
2,note_on,36,62,120
2,note_on,36,0,120
2,note_on,43,52,120
2,note_on,43,0,120
2,note_on,48,53,120
2,note_on,48,0,120
2,note_on,36,66,120
2,note_on,36,0,120
2,note_on,43,55,120
2,note_on,43,0,120
2,note_on,48,56,120
2,note_on,48,0,120
2,note_on,36,67,120
2,note_on,36,0,120
2,note_on,43,54,120
2,note_on,43,0,120
2,note_on,48,55,120
2,note_on,48,0,120
2,note_on,36,72,120
2,note_on,36,0,120
2,note_on,43,61,120
2,note_on,43,0,120
2,note_on,48,62,120
2,note_on,48,0,120
2,note_on,35,73,120
2,note_on,35,0,120
2,note_on,43,52,120
2,note_on,43,0,120
2,note_on,47,53,120
2,note_on,47,0,120
2,note_on,35,71,120
2,note_on,35,0,120
2,note_on,43,56,120
2,note_on,43,0,120
2,note_on,47,56,120
2,note_on,47,0,120
2,note_on,35,73,120
2,note_on,35,0,120
2,note_on,42,52,120
2,note_on,42,0,120
2,note_on,47,53,120
2,note_on,47,0,120
2,note_on,35,71,120
2,note_on,35,0,120
2,note_on,42,56,120
2,note_on,42,0,120
2,note_on,47,56,120
2,note_on,47,0,120
2,note_on,35,71,120
2,note_on,35,0,120
2,note_on,40,56,120
2,note_on,40,0,120
2,note_on,47,56,120
2,note_on,47,0,120
2,note_on,35,71,120
2,note_on,35,0,120
2,note_on,39,56,120
2,note_on,39,0,120
2,note_on,47,56,120
2,note_on,47,0,120
2,note_on,28,73,120
2,note_on,28,0,120
2,note_on,35,52,120
2,note_on,35,0,120
2,note_on,40,53,120
2,note_on,40,0,120
2,note_on,28,71,120
2,note_on,28,0,120
2,note_on,35,56,120
2,note_on,35,0,120
2,note_on,40,56,120
2,note_on,40,0,120
2,note_on,28,73,120
2,note_on,28,0,120
2,note_on,35,52,120
2,note_on,35,0,120
2,note_on,40,53,120
2,note_on,40,0,120
2,note_on,28,71,120
2,note_on,28,0,120
2,note_on,35,56,120
2,note_on,35,0,120
2,note_on,40,56,120
2,note_on,40,0,120
2,note_on,28,71,120
2,note_on,28,0,120
2,note_on,35,56,120
2,note_on,35,0,120
2,note_on,40,56,120
2,note_on,40,0,120
2,note_on,28,71,120
2,note_on,28,0,120
2,note_on,35,56,120
2,note_on,35,0,120
2,note_on,40,56,120
2,note_on,40,0,120
2,note_on,28,71,120
2,note_on,28,0,120
2,note_on,52,53,360
2,note_on,56,53,0
2,note_on,64,63,0
2,note_on,59,53,0
2,note_on,59,0,480
2,note_on,52,0,0
2,note_on,56,0,0
2,note_on,64,0,0
2,note_on,64,63,0
2,note_on,52,53,0
2,note_on,61,53,0
2,note_on,57,53,0
2,note_on,57,0,720
2,note_on,64,0,0
2,note_on,52,0,0
2,note_on,61,0,0
2,note_on,64,62,0
2,note_on,52,52,0
2,note_on,57,52,0
2,note_on,54,52,0
2,note_on,54,0,360
2,note_on,64,0,0
2,note_on,52,0,0
2,note_on,57,0,0
2,note_on,56,46,0
2,note_on,52,46,0
2,note_on,64,55,0
2,note_on,59,46,0
2,note_on,59,0,110
2,note_on,56,0,0
2,note_on,52,0,0
2,note_on,64,0,0
2,note_on,56,51,10
2,note_on,64,61,0
2,note_on,59,51,0
2,note_on,52,51,0
2,note_on,52,0,120
2,note_on,56,0,0
2,note_on,64,0,0
2,note_on,59,0,0
2,note_on,40,47,360
2,note_on,52,56,0
2,note_on,47,47,0
2,note_on,47,0,480
2,note_on,52,0,0
2,note_on,40,0,0
2,note_on,52,56,0
2,note_on,40,47,0
2,note_on,49,47,0
2,note_on,49,0,720
2,note_on,40,0,0
2,note_on,52,0,0
2,note_on,52,55,0
2,note_on,40,46,0
2,note_on,45,46,0
2,note_on,45,0,350
2,note_on,40,0,0
2,note_on,52,0,0
2,note_on,40,41,10
2,note_on,52,49,0
2,note_on,47,41,0
2,note_on,47,0,120
2,note_on,52,0,0
2,note_on,40,0,0
2,note_on,40,60,0
2,note_on,40,0,120
2,note_on,47,49,120
2,note_on,47,0,120
2,note_on,52,49,120
2,note_on,52,0,120
2,note_on,28,56,120
2,note_on,28,0,120
2,note_on,35,44,120
2,note_on,35,0,120
2,note_on,40,44,120
2,note_on,40,0,120
2,note_on,28,56,120
2,note_on,28,0,120
2,note_on,35,46,120
2,note_on,35,0,120
2,note_on,40,46,120
2,note_on,40,0,120
2,note_on,28,56,120
2,note_on,28,0,120
2,note_on,35,44,120
2,note_on,35,0,120
2,note_on,40,44,120
2,note_on,40,0,120
2,note_on,28,56,120
2,note_on,28,0,120
2,note_on,35,46,120
2,note_on,35,0,120
2,note_on,40,46,120
2,note_on,40,0,120
2,note_on,28,56,120
2,note_on,28,0,120
2,note_on,33,67,600
2,note_on,33,0,120
2,note_on,61,49,840
2,note_on,57,41,0
2,note_on,57,0,120
2,note_on,61,0,0
2,note_on,52,41,120
2,note_on,59,49,0
2,note_on,59,0,120
2,note_on,52,0,0
2,note_on,49,49,120
2,note_on,57,58,0
2,note_on,57,0,120
2,note_on,49,0,0
2,note_on,40,74,360
2,note_on,40,0,120
2,note_on,45,87,120
2,note_on,45,0,120
2,note_on,57,41,840
2,note_on,61,49,0
2,note_on,61,0,120
2,note_on,57,0,0
2,note_on,52,41,120
2,note_on,59,49,0
2,note_on,33,41,0
2,note_on,33,0,120
2,note_on,59,0,0
2,note_on,52,0,0
2,note_on,57,58,120
2,note_on,49,49,0
2,note_on,33,41,0
2,note_on,33,0,120
2,note_on,49,0,0
2,note_on,57,0,0
2,note_on,35,58,120
2,note_on,35,0,120
2,note_on,37,64,120
2,note_on,37,0,120
2,note_on,38,67,120
2,note_on,38,0,120
2,note_on,45,74,1800
2,note_on,45,0,120
2,note_on,50,87,120
2,note_on,50,0,120
2,note_on,38,41,1080
2,note_on,38,0,120
2,note_on,38,41,120
2,note_on,38,0,120
2,note_on,39,58,120
2,note_on,39,0,120
2,note_on,40,64,120
2,note_on,40,0,120
2,note_on,41,67,120
2,note_on,41,0,120
2,note_on,48,74,1800
2,note_on,48,0,120
2,note_on,53,87,120
2,note_on,53,0,120
2,note_on,41,41,1080
2,note_on,41,0,120
2,note_on,41,41,120
2,note_on,41,0,120
2,note_on,43,58,120
2,note_on,43,0,120
2,note_on,45,64,120
2,note_on,45,0,120
2,note_on,46,67,120
2,note_on,46,0,120
2,note_on,44,41,840
2,note_on,44,0,120
2,note_on,45,41,120
2,note_on,45,0,120
2,note_on,47,45,120
2,note_on,47,0,120
2,note_on,47,43,120
2,note_on,47,0,120
2,note_on,48,45,120
2,note_on,48,0,120
2,note_on,50,55,120
2,note_on,50,0,120
2,note_on,47,41,840
2,note_on,47,0,120
2,note_on,48,41,120
2,note_on,48,0,120
2,note_on,50,45,120
2,note_on,50,0,120
2,note_on,50,43,120
2,note_on,50,0,120
2,note_on,52,45,120
2,note_on,52,0,120
2,note_on,53,55,120
2,note_on,53,0,120
2,note_on,53,36,840
2,note_on,53,0,120
2,note_on,55,36,120
2,note_on,55,0,120
2,note_on,56,43,120
2,note_on,56,0,120
2,note_on,56,39,120
2,note_on,56,0,120
2,note_on,57,49,120
2,note_on,57,0,120
2,note_on,59,61,120
2,note_on,59,0,120
2,note_on,62,41,360
2,note_on,59,34,0
2,note_on,59,0,700
2,note_on,62,0,0
2,note_on,62,41,20
2,note_on,59,34,0
2,note_on,59,0,720
2,note_on,62,0,0
2,note_on,59,65,240
2,note_on,63,65,0
2,note_on,63,0,120
2,note_on,59,0,0
2,note_on,63,41,360
2,note_on,59,34,0
2,note_on,59,0,700
2,note_on,63,0,0
2,note_on,63,41,20
2,note_on,59,34,0
2,note_on,59,0,720
2,note_on,63,0,0
2,note_on,62,55,240
2,note_on,55,55,0
2,note_on,65,65,0
2,note_on,65,0,720
2,note_on,55,0,0
2,note_on,62,0,0
2,note_on,31,60,480
2,note_on,43,60,0
2,note_on,43,0,120
2,note_on,31,0,0
2,note_on,43,64,120
2,note_on,31,64,0
2,note_on,31,0,120
2,note_on,43,0,0
2,note_on,45,67,120
2,note_on,33,67,0
2,note_on,33,0,120
2,note_on,45,0,0
2,note_on,47,70,120
2,note_on,35,70,0
2,note_on,35,0,120
2,note_on,47,0,0
2,note_on,36,73,120
2,note_on,36,0,120
2,note_on,43,60,120
2,note_on,43,0,120
2,note_on,48,60,120
2,note_on,48,0,120
2,note_on,36,70,120
2,note_on,36,0,120
2,note_on,43,59,120
2,note_on,43,0,120
2,note_on,48,59,120
2,note_on,48,0,120
2,note_on,36,66,120
2,note_on,36,0,120
2,note_on,43,59,120
2,note_on,43,0,120
2,note_on,48,59,120
2,note_on,48,0,120
2,note_on,36,66,120
2,note_on,36,0,120
2,note_on,43,49,120
2,note_on,43,0,120
2,note_on,48,49,120
2,note_on,48,0,120
2,note_on,36,56,120
2,note_on,36,0,120
2,note_on,43,44,120
2,note_on,43,0,120
2,note_on,48,44,120
2,note_on,48,0,120
2,note_on,36,56,120
2,note_on,36,0,120
2,note_on,43,46,120
2,note_on,43,0,120
2,note_on,48,46,120
2,note_on,48,0,120
2,note_on,36,60,120
2,note_on,36,0,120
2,note_on,43,49,120
2,note_on,43,0,120
2,note_on,48,49,120
2,note_on,48,0,120
2,note_on,36,56,120
2,note_on,36,0,120
2,note_on,43,44,120
2,note_on,43,0,120
2,note_on,48,44,120
2,note_on,48,0,120
2,note_on,35,56,120
2,note_on,35,0,120
2,note_on,43,46,120
2,note_on,43,0,120
2,note_on,47,46,120
2,note_on,47,0,120
2,note_on,33,60,120
2,note_on,33,0,120
2,note_on,40,49,120
2,note_on,40,0,120
2,note_on,45,49,120
2,note_on,45,0,120
2,note_on,33,57,120
2,note_on,33,0,120
2,note_on,40,46,120
2,note_on,40,0,120
2,note_on,45,47,120
2,note_on,45,0,120
2,note_on,33,62,120
2,note_on,33,0,120
2,note_on,40,52,120
2,note_on,40,0,120
2,note_on,45,53,120
2,note_on,45,0,120
2,note_on,33,60,120
2,note_on,33,0,120
2,note_on,40,49,120
2,note_on,40,0,120
2,note_on,45,49,120
2,note_on,45,0,120
2,note_on,33,56,120
2,note_on,33,0,120
2,note_on,40,44,120
2,note_on,40,0,120
2,note_on,45,44,120
2,note_on,45,0,120
2,note_on,31,56,120
2,note_on,31,0,120
2,note_on,40,46,120
2,note_on,40,0,120
2,note_on,43,46,120
2,note_on,43,0,120
2,note_on,29,60,120
2,note_on,29,0,120
2,note_on,36,49,120
2,note_on,36,0,120
2,note_on,41,49,120
2,note_on,41,0,120
2,note_on,29,57,120
2,note_on,29,0,120
2,note_on,36,46,120
2,note_on,36,0,120
2,note_on,41,47,120
2,note_on,41,0,120
2,note_on,29,62,120
2,note_on,29,0,120
2,note_on,36,52,120
2,note_on,36,0,120
2,note_on,41,53,120
2,note_on,41,0,120
2,note_on,29,66,120
2,note_on,29,0,120
2,note_on,31,55,120
2,note_on,31,0,120
2,note_on,41,56,120
2,note_on,41,0,120
2,note_on,29,67,120
2,note_on,29,0,120
2,note_on,31,54,120
2,note_on,31,0,120
2,note_on,41,55,120
2,note_on,41,0,120
2,note_on,29,72,120
2,note_on,29,0,120
2,note_on,31,61,120
2,note_on,31,0,120
2,note_on,41,62,120
2,note_on,41,0,120
2,note_on,28,68,120
2,note_on,40,80,0
2,note_on,40,0,120
2,note_on,28,0,0
2,note_on,26,48,120
2,note_on,38,57,0
2,note_on,38,0,120
2,note_on,26,0,0
2,note_on,24,49,120
2,note_on,36,58,0
2,note_on,36,0,120
2,note_on,24,0,0
2,note_on,38,78,120
2,note_on,26,66,0
2,note_on,26,0,960
2,note_on,38,0,0
2,note_on,36,48,0
2,note_on,48,57,0
2,note_on,48,0,120
2,note_on,36,0,0
2,note_on,35,49,120
2,note_on,47,58,0
2,note_on,47,0,120
2,note_on,35,0,0
2,note_on,36,66,120
2,note_on,48,78,0
2,note_on,48,0,960
2,note_on,36,0,0
2,note_on,47,57,0
2,note_on,35,48,0
2,note_on,35,0,120
2,note_on,47,0,0
2,note_on,33,49,120
2,note_on,45,58,0
2,note_on,45,0,120
2,note_on,33,0,0
2,note_on,35,48,120
2,note_on,47,57,0
2,note_on,47,0,120
2,note_on,35,0,0
2,note_on,43,57,360
2,note_on,31,48,0
2,note_on,31,0,120
2,note_on,43,0,0
2,note_on,39,68,120
2,note_on,51,80,0
2,note_on,51,0,120
2,note_on,39,0,0
2,note_on,50,57,120
2,note_on,38,48,0
2,note_on,38,0,120
2,note_on,50,0,0
2,note_on,48,58,120
2,note_on,36,49,0
2,note_on,36,0,120
2,note_on,48,0,0
2,note_on,38,66,120
2,note_on,50,78,0
2,note_on,50,0,960
2,note_on,38,0,0
2,note_on,48,57,0
2,note_on,36,48,0
2,note_on,36,0,120
2,note_on,48,0,0
2,note_on,47,58,120
2,note_on,35,49,0
2,note_on,35,0,120
2,note_on,47,0,0
2,note_on,48,78,120
2,note_on,36,66,0
2,note_on,36,0,960
2,note_on,48,0,0
2,note_on,47,57,0
2,note_on,35,48,0
2,note_on,35,0,120
2,note_on,47,0,0
2,note_on,33,49,120
2,note_on,45,58,0
2,note_on,45,0,120
2,note_on,33,0,0
2,note_on,47,57,120
2,note_on,35,48,0
2,note_on,35,0,120
2,note_on,47,0,0
2,note_on,31,48,360
2,note_on,43,57,0
2,note_on,43,0,120
2,note_on,31,0,0
2,note_on,36,60,60
2,note_on,43,60,30
2,note_on,52,71,30
2,note_on,52,0,120
2,note_on,43,0,0
2,note_on,36,0,0
2,note_on,60,63,360
2,note_on,48,53,0
2,note_on,55,53,0
2,note_on,52,53,0
2,note_on,52,0,480
2,note_on,60,0,0
2,note_on,48,0,0
2,note_on,55,0,0
2,note_on,53,53,0
2,note_on,57,53,0
2,note_on,60,63,0
2,note_on,48,53,0
2,note_on,48,0,720
2,note_on,53,0,0
2,note_on,57,0,0
2,note_on,60,0,0
2,note_on,50,52,0
2,note_on,48,52,0
2,note_on,53,52,0
2,note_on,60,62,0
2,note_on,60,0,360
2,note_on,50,0,0
2,note_on,48,0,0
2,note_on,53,0,0
2,note_on,60,55,0
2,note_on,48,46,0
2,note_on,55,46,0
2,note_on,52,46,0
2,note_on,52,0,110
2,note_on,60,0,0
2,note_on,48,0,0
2,note_on,55,0,0
2,note_on,48,51,10
2,note_on,52,51,0
2,note_on,55,51,0
2,note_on,60,61,0
2,note_on,60,0,120
2,note_on,48,0,0
2,note_on,52,0,0
2,note_on,55,0,0
2,note_on,43,47,360
2,note_on,48,56,0
2,note_on,36,47,0
2,note_on,36,0,480
2,note_on,48,0,0
2,note_on,43,0,0
2,note_on,48,56,0
2,note_on,36,47,0
2,note_on,45,47,0
2,note_on,45,0,720
2,note_on,36,0,0
2,note_on,48,0,0
2,note_on,41,46,0
2,note_on,36,46,0
2,note_on,48,55,0
2,note_on,48,0,350
2,note_on,36,0,0
2,note_on,41,0,0
2,note_on,43,41,10
2,note_on,36,41,0
2,note_on,48,49,0
2,note_on,48,0,120
2,note_on,36,0,0
2,note_on,43,0,0
2,note_on,36,60,0
2,note_on,36,0,120
2,note_on,43,49,120
2,note_on,43,0,120
2,note_on,48,49,120
2,note_on,48,0,120
2,note_on,36,56,120
2,note_on,36,0,120
2,note_on,43,44,120
2,note_on,43,0,120
2,note_on,48,44,120
2,note_on,48,0,120
2,note_on,36,56,120
2,note_on,36,0,120
2,note_on,43,46,120
2,note_on,43,0,120
2,note_on,48,46,120
2,note_on,48,0,120
2,note_on,36,56,120
2,note_on,36,0,120
2,note_on,43,44,120
2,note_on,43,0,120
2,note_on,48,44,120
2,note_on,48,0,120
2,note_on,36,56,120
2,note_on,36,0,120
2,note_on,43,46,120
2,note_on,43,0,120
2,note_on,48,46,120
2,note_on,48,0,120
2,note_on,36,56,120
2,note_on,36,0,120
2,note_on,43,35,120
2,note_on,43,0,120
2,note_on,48,35,120
2,note_on,48,0,120
2,note_on,33,43,120
2,note_on,33,0,120
2,note_on,38,29,120
2,note_on,38,0,120
2,note_on,45,29,120
2,note_on,45,0,120
2,note_on,33,38,120
2,note_on,33,0,120
2,note_on,38,32,120
2,note_on,38,0,120
2,note_on,45,32,120
2,note_on,45,0,120
2,note_on,33,40,120
2,note_on,33,0,120
2,note_on,38,32,120
2,note_on,38,0,120
2,note_on,45,31,120
2,note_on,45,0,120
2,note_on,33,38,120
2,note_on,33,0,120
2,note_on,38,26,120
2,note_on,38,0,120
2,note_on,45,26,120
2,note_on,45,0,120
2,note_on,33,35,120
2,note_on,33,0,120
2,note_on,38,25,120
2,note_on,38,0,120
2,note_on,45,28,120
2,note_on,45,0,120
2,note_on,33,35,120
2,note_on,33,0,120
2,note_on,38,25,120
2,note_on,38,0,120
2,note_on,45,25,120
2,note_on,45,0,120
2,note_on,31,34,60
2,note_on,43,34,60
2,note_on,43,0,240
2,note_on,31,0,0
2,note_on,50,29,0
2,note_on,50,0,240
2,note_on,55,30,0
2,note_on,55,0,240
2,note_on,59,34,0
2,note_on,59,0,240
2,note_on,55,29,0
2,note_on,55,0,240
2,note_on,50,29,0
2,note_on,50,0,240
2,note_on,40,38,0
2,note_on,40,0,240
2,note_on,55,28,0
2,note_on,55,0,240
2,note_on,59,28,0
2,note_on,59,0,240
2,note_on,62,32,0
2,note_on,52,32,0
2,note_on,62,0,240
2,note_on,59,34,0
2,note_on,59,0,240
2,note_on,55,36,0
2,note_on,55,0,240
2,note_on,52,0,0
2,note_on,45,41,0
2,note_on,33,41,0
2,note_on,33,0,240
2,note_on,45,0,0
2,note_on,60,31,0
2,note_on,64,31,240
2,note_on,57,31,240
2,note_on,67,31,0
2,note_on,67,0,1920
2,note_on,60,0,0
2,note_on,64,0,0
2,note_on,57,0,0
2,note_on,57,29,0
2,note_on,64,35,0
2,note_on,55,29,0
2,note_on,55,0,240
2,note_on,64,0,0
2,note_on,57,0,0
2,note_on,60,38,0
2,note_on,52,32,0
2,note_on,55,32,0
2,note_on,55,0,480
2,note_on,52,0,0
2,note_on,60,0,0
2,note_on,55,28,0
2,note_on,50,28,0
2,note_on,59,33,0
2,note_on,59,0,240
2,note_on,50,0,0
2,note_on,55,0,0
2,note_on,38,42,0
2,note_on,38,0,240
2,note_on,57,33,240
2,note_on,48,28,0
2,note_on,48,0,240
2,note_on,57,0,0
2,note_on,52,32,0
2,note_on,60,38,0
2,note_on,60,0,720
2,note_on,52,0,0
2,note_on,50,29,0
2,note_on,57,35,0
2,note_on,57,0,480
2,note_on,50,0,0
2,note_on,43,34,240
2,note_on,43,0,240
2,note_on,50,29,0
2,note_on,50,0,240
2,note_on,55,30,0
2,note_on,55,0,240
2,note_on,59,34,0
2,note_on,59,0,240
2,note_on,55,29,0
2,note_on,55,0,240
2,note_on,50,29,0
2,note_on,50,0,240
2,note_on,40,38,0
2,note_on,40,0,240
2,note_on,55,28,0
2,note_on,55,0,240
2,note_on,59,28,0
2,note_on,59,0,240
2,note_on,62,32,0
2,note_on,52,32,0
2,note_on,62,0,240
2,note_on,59,34,0
2,note_on,59,0,240
2,note_on,55,36,0
2,note_on,55,0,240
2,note_on,52,0,0
2,note_on,45,41,0
2,note_on,33,41,0
2,note_on,33,0,240
2,note_on,45,0,0
2,note_on,64,31,0
2,note_on,67,34,240
2,note_on,61,34,240
2,note_on,71,34,0
2,note_on,71,0,1920
2,note_on,64,0,0
2,note_on,67,0,0
2,note_on,61,0,0
2,note_on,61,29,0
2,note_on,64,29,0
2,note_on,69,35,0
2,note_on,69,0,240
2,note_on,64,0,0
2,note_on,61,0,0
2,note_on,59,32,0
2,note_on,67,38,0
2,note_on,61,32,0
2,note_on,61,0,480
2,note_on,67,0,0
2,note_on,59,0,0
2,note_on,61,28,0
2,note_on,66,33,0
2,note_on,57,28,0
2,note_on,57,0,240
2,note_on,66,0,0
2,note_on,61,0,0
2,note_on,33,35,0
2,note_on,45,42,0
2,note_on,45,0,240
2,note_on,33,0,0
2,note_on,61,26,240
2,note_on,59,26,0
2,note_on,67,31,0
2,note_on,67,0,240
2,note_on,59,0,0
2,note_on,61,0,0
2,note_on,61,31,0
2,note_on,66,37,0
2,note_on,57,31,0
2,note_on,57,0,1200
2,note_on,66,0,0
2,note_on,61,0,0
2,note_on,64,30,0
2,note_on,55,25,0
2,note_on,61,30,0
2,note_on,61,0,240
2,note_on,55,0,0
2,note_on,64,0,0
2,note_on,50,36,0
2,note_on,38,30,0
2,note_on,38,0,240
2,note_on,50,0,0
2,note_on,54,29,0
2,note_on,54,0,240
2,note_on,57,29,0
2,note_on,57,0,240
2,note_on,66,38,0
2,note_on,66,0,120
2,note_on,38,29,1320
2,note_on,38,0,240
2,note_on,64,29,960
2,note_on,64,0,240
2,note_on,60,34,0
2,note_on,60,0,480
2,note_on,59,29,0
2,note_on,59,0,240
2,note_on,56,36,0
2,note_on,50,30,0
2,note_on,56,0,480
2,note_on,57,29,3
2,note_on,60,35,237
2,note_on,57,0,3
2,note_on,60,0,1197
2,note_on,55,29,0
2,note_on,55,0,240
2,note_on,50,0,0
2,note_on,50,30,0
2,note_on,53,36,0
2,note_on,53,0,480
2,note_on,54,29,0
2,note_on,54,0,240
2,note_on,50,0,0
2,note_on,38,29,0
2,note_on,38,0,240
2,note_on,67,29,240
2,note_on,67,0,240
2,note_on,64,34,0
2,note_on,64,0,480
2,note_on,60,29,0
2,note_on,60,0,240
2,note_on,59,36,0
2,note_on,50,30,0
2,note_on,59,0,480
2,note_on,60,29,0
2,note_on,60,0,240
2,note_on,64,35,0
2,note_on,64,0,1200
2,note_on,59,29,0
2,note_on,59,0,240
2,note_on,50,0,0
2,note_on,56,36,0
2,note_on,50,30,0
2,note_on,56,0,480
2,note_on,57,29,0
2,note_on,57,0,240
2,note_on,71,36,480
2,note_on,71,0,240
2,note_on,50,0,0
2,note_on,67,42,0
2,note_on,67,0,480
2,note_on,64,30,0
2,note_on,64,0,240
2,note_on,38,29,0
2,note_on,38,0,240
2,note_on,69,36,240
2,note_on,69,0,240
2,note_on,67,42,0
2,note_on,67,0,480
2,note_on,64,30,0
2,note_on,64,0,240
2,note_on,38,29,0
2,note_on,38,0,240
2,note_on,67,36,240
2,note_on,67,0,240
2,note_on,64,42,0
2,note_on,64,0,480
2,note_on,60,30,0
2,note_on,60,0,240
2,note_on,38,29,0
2,note_on,38,0,240
2,note_on,66,34,240
2,note_on,60,28,0
2,note_on,57,28,0
2,note_on,57,0,240
2,note_on,60,0,0
2,note_on,66,0,0
2,note_on,64,38,0
2,note_on,60,32,0
2,note_on,55,32,0
2,note_on,55,0,480
2,note_on,60,0,0
2,note_on,64,0,0
2,note_on,62,34,0
2,note_on,55,28,0
2,note_on,55,0,240
2,note_on,62,0,0
2,note_on,61,32,0
2,note_on,50,27,0
2,note_on,61,0,960
2,note_on,58,29,0
2,note_on,58,0,720
2,note_on,55,30,0
2,note_on,55,0,480
2,note_on,50,0,0
2,note_on,50,22,0
2,note_on,60,26,0
2,note_on,54,22,0
2,note_on,54,0,1920
2,note_on,60,0,0
2,note_on,50,0,0
2,note_on,43,34,240
2,note_on,43,0,240
2,note_on,50,29,0
2,note_on,50,0,240
2,note_on,55,30,0
2,note_on,55,0,240
2,note_on,59,34,0
2,note_on,59,0,240
2,note_on,55,29,0
2,note_on,55,0,240
2,note_on,50,29,0
2,note_on,50,0,240
2,note_on,40,38,0
2,note_on,40,0,240
2,note_on,55,28,0
2,note_on,55,0,240
2,note_on,59,28,0
2,note_on,59,0,240
2,note_on,62,32,0
2,note_on,52,32,0
2,note_on,62,0,240
2,note_on,59,34,0
2,note_on,59,0,240
2,note_on,55,36,0
2,note_on,55,0,240
2,note_on,52,0,0
2,note_on,33,41,0
2,note_on,45,41,0
2,note_on,45,0,240
2,note_on,33,0,0
2,note_on,60,31,0
2,note_on,64,31,240
2,note_on,67,31,240
2,note_on,57,31,0
2,note_on,57,0,1920
2,note_on,60,0,0
2,note_on,64,0,0
2,note_on,67,0,0
2,note_on,64,35,0
2,note_on,57,29,0
2,note_on,55,29,0
2,note_on,55,0,240
2,note_on,57,0,0
2,note_on,64,0,0
2,note_on,60,38,0
2,note_on,52,32,0
2,note_on,55,32,0
2,note_on,55,0,480
2,note_on,52,0,0
2,note_on,60,0,0
2,note_on,55,28,0
2,note_on,59,33,0
2,note_on,50,28,0
2,note_on,50,0,240
2,note_on,59,0,0
2,note_on,55,0,0
2,note_on,38,42,0
2,note_on,38,0,240
2,note_on,48,28,240
2,note_on,57,33,0
2,note_on,57,0,240
2,note_on,48,0,0
2,note_on,60,38,0
2,note_on,52,32,0
2,note_on,52,0,720
2,note_on,60,0,0
2,note_on,50,29,0
2,note_on,57,35,0
2,note_on,57,0,480
2,note_on,50,0,0
2,note_on,43,34,240
2,note_on,43,0,240
2,note_on,50,29,0
2,note_on,50,0,240
2,note_on,55,30,0
2,note_on,55,0,240
2,note_on,59,34,0
2,note_on,59,0,240
2,note_on,55,29,0
2,note_on,55,0,240
2,note_on,50,29,0
2,note_on,50,0,240
2,note_on,40,38,0
2,note_on,40,0,240
2,note_on,55,28,0
2,note_on,55,0,240
2,note_on,59,28,0
2,note_on,59,0,240
2,note_on,62,32,0
2,note_on,52,32,0
2,note_on,62,0,240
2,note_on,59,34,0
2,note_on,59,0,240
2,note_on,55,36,0
2,note_on,55,0,240
2,note_on,52,0,0
2,note_on,47,34,0
2,note_on,47,0,240
2,note_on,54,29,0
2,note_on,54,0,240
2,note_on,59,34,7
2,note_on,62,39,233
2,note_on,59,0,7
2,note_on,62,0,233
2,note_on,59,33,0
2,note_on,59,0,240
2,note_on,54,33,0
2,note_on,54,0,240
2,note_on,43,43,0
2,note_on,43,0,240
2,note_on,59,32,0
2,note_on,59,0,240
2,note_on,62,36,0
2,note_on,62,0,240
2,note_on,66,41,0
2,note_on,55,41,0
2,note_on,66,0,240
2,note_on,62,44,0
2,note_on,62,0,240
2,note_on,59,47,0
2,note_on,59,0,240
2,note_on,55,0,0
2,note_on,50,43,0
2,note_on,50,0,240
2,note_on,57,32,0
2,note_on,57,0,240
2,note_on,62,37,0
2,note_on,62,0,240
2,note_on,66,43,0
2,note_on,66,0,240
2,note_on,62,47,0
2,note_on,62,0,240
2,note_on,57,51,0
2,note_on,57,0,240
2,note_on,47,55,0
2,note_on,47,0,240
2,note_on,62,40,0
2,note_on,66,46,240
2,note_on,69,51,240
2,note_on,59,44,0
2,note_on,66,0,1440
2,note_on,65,55,0
2,note_on,65,0,1440
2,note_on,59,0,0
2,note_on,69,0,0
2,note_on,62,0,0
2,note_on,40,62,0
2,note_on,40,0,240
2,note_on,59,39,240
2,note_on,68,46,0
2,note_on,62,39,0
2,note_on,62,0,240
2,note_on,68,0,0
2,note_on,59,0,0
2,note_on,71,55,0
2,note_on,71,0,720
2,note_on,56,42,0
2,note_on,62,50,0
2,note_on,62,0,480
2,note_on,56,0,0
2,note_on,45,62,240
2,note_on,45,0,240
2,note_on,61,46,240
2,note_on,57,39,0
2,note_on,64,55,240
2,note_on,64,0,720
2,note_on,57,0,0
2,note_on,61,0,0
2,note_on,55,50,0
2,note_on,55,0,480
2,note_on,38,62,240
2,note_on,38,0,240
2,note_on,66,39,240
2,note_on,64,39,0
2,note_on,72,46,0
2,note_on,72,0,240
2,note_on,64,0,0
2,note_on,66,0,0
2,note_on,76,60,0
2,note_on,76,0,720
2,note_on,62,42,0
2,note_on,66,50,0
2,note_on,66,0,480
2,note_on,62,0,0
2,note_on,43,62,240
2,note_on,43,0,240
2,note_on,65,39,240
2,note_on,62,33,0
2,note_on,60,33,0
2,note_on,69,46,240
2,note_on,69,0,720
2,note_on,60,0,0
2,note_on,59,34,0
2,note_on,67,42,0
2,note_on,67,0,480
2,note_on,65,0,0
2,note_on,62,0,0
2,note_on,59,0,0
2,note_on,36,34,240
2,note_on,48,34,0
2,note_on,48,0,240
2,note_on,36,0,0
2,note_on,55,29,0
2,note_on,55,0,240
2,note_on,60,30,0
2,note_on,60,0,240
2,note_on,64,34,0
2,note_on,64,0,240
2,note_on,60,29,0
2,note_on,60,0,240
2,note_on,55,29,0
2,note_on,55,0,240
2,note_on,45,38,0
2,note_on,45,0,240
2,note_on,60,28,0
2,note_on,60,0,240
2,note_on,64,28,0
2,note_on,64,0,240
2,note_on,57,32,0
2,note_on,67,32,0
2,note_on,67,0,240
2,note_on,64,34,0
2,note_on,64,0,240
2,note_on,60,36,0
2,note_on,60,0,240
2,note_on,57,0,0
2,note_on,38,41,0
2,note_on,50,41,0
2,note_on,50,0,240
2,note_on,38,0,0
2,note_on,65,31,0
2,note_on,69,31,240
2,note_on,62,31,240
2,note_on,72,31,0
2,note_on,72,0,1920
2,note_on,65,0,0
2,note_on,69,0,0
2,note_on,62,0,0
2,note_on,62,29,0
2,note_on,60,29,0
2,note_on,69,35,0
2,note_on,69,0,240
2,note_on,60,0,0
2,note_on,62,0,0
2,note_on,60,32,0
2,note_on,65,38,0
2,note_on,57,32,0
2,note_on,57,0,480
2,note_on,65,0,0
2,note_on,60,0,0
2,note_on,64,33,0
2,note_on,60,28,0
2,note_on,55,28,0
2,note_on,55,0,240
2,note_on,60,0,0
2,note_on,64,0,0
2,note_on,43,42,0
2,note_on,43,0,240
2,note_on,53,28,240
2,note_on,62,33,0
2,note_on,62,0,240
2,note_on,53,0,0
2,note_on,65,38,0
2,note_on,57,32,0
2,note_on,57,0,720
2,note_on,65,0,0
2,note_on,55,29,0
2,note_on,62,35,0
2,note_on,62,0,480
2,note_on,55,0,0
2,note_on,36,34,240
2,note_on,48,34,0
2,note_on,48,0,240
2,note_on,36,0,0
2,note_on,55,29,0
2,note_on,55,0,240
2,note_on,60,30,0
2,note_on,60,0,240
2,note_on,64,34,0
2,note_on,64,0,240
2,note_on,60,29,0
2,note_on,60,0,240
2,note_on,55,29,0
2,note_on,55,0,240
2,note_on,45,38,0
2,note_on,45,0,240
2,note_on,60,28,0
2,note_on,60,0,240
2,note_on,64,28,0
2,note_on,64,0,240
2,note_on,67,32,0
2,note_on,57,32,0
2,note_on,67,0,240
2,note_on,64,34,0
2,note_on,64,0,240
2,note_on,60,36,0
2,note_on,60,0,240
2,note_on,57,0,0
2,note_on,50,41,0
2,note_on,38,41,0
2,note_on,38,0,240
2,note_on,50,0,0
2,note_on,69,31,0
2,note_on,72,34,240
2,note_on,66,34,240
2,note_on,76,34,0
2,note_on,76,0,1920
2,note_on,69,0,0
2,note_on,72,0,0
2,note_on,66,0,0
2,note_on,69,29,0
2,note_on,74,35,0
2,note_on,66,29,0
2,note_on,66,0,240
2,note_on,74,0,0
2,note_on,69,0,0
2,note_on,66,32,0
2,note_on,64,32,0
2,note_on,72,38,0
2,note_on,72,0,480
2,note_on,64,0,0
2,note_on,66,0,0
2,note_on,62,28,0
2,note_on,71,33,0
2,note_on,66,28,0
2,note_on,66,0,240
2,note_on,71,0,0
2,note_on,62,0,0
2,note_on,38,35,0
2,note_on,50,42,0
2,note_on,50,0,240
2,note_on,38,0,0
2,note_on,66,26,240
2,note_on,64,26,0
2,note_on,72,31,0
2,note_on,72,0,240
2,note_on,64,0,0
2,note_on,66,0,0
2,note_on,62,31,0
2,note_on,66,31,0
2,note_on,71,37,0
2,note_on,71,0,1200
2,note_on,66,0,0
2,note_on,62,0,0
2,note_on,60,25,0
2,note_on,69,30,0
2,note_on,66,30,0
2,note_on,66,0,240
2,note_on,69,0,0
2,note_on,60,0,0
2,note_on,54,27,0
2,note_on,56,32,0
2,note_on,47,27,0
2,note_on,47,0,240
2,note_on,56,0,0
2,note_on,54,0,0
2,note_on,48,26,0
2,note_on,57,31,0
2,note_on,54,26,0
2,note_on,54,0,240
2,note_on,57,0,0
2,note_on,48,0,0
2,note_on,52,26,0
2,note_on,60,31,0
2,note_on,54,26,0
2,note_on,54,0,240
2,note_on,60,0,0
2,note_on,52,0,0
2,note_on,54,31,0
2,note_on,59,37,0
2,note_on,50,31,0
2,note_on,50,0,1200
2,note_on,59,0,0
2,note_on,54,0,0
2,note_on,54,30,0
2,note_on,48,25,0
2,note_on,57,30,0
2,note_on,57,0,240
2,note_on,48,0,0
2,note_on,54,0,0
2,note_on,38,48,0
2,note_on,50,57,0
2,note_on,50,0,240
2,note_on,38,0,0
2,note_on,65,34,240
2,note_on,68,34,0
2,note_on,74,42,0
2,note_on,74,0,240
2,note_on,68,0,0
2,note_on,65,0,0
2,note_on,64,42,0
2,note_on,72,50,0
2,note_on,68,42,0
2,note_on,68,0,1200
2,note_on,72,0,0
2,note_on,64,0,0
2,note_on,62,33,0
2,note_on,71,40,0
2,note_on,68,40,0
2,note_on,68,0,240
2,note_on,71,0,0
2,note_on,62,0,0
2,note_on,58,43,0
2,note_on,56,37,0
2,note_on,49,37,0
2,note_on,49,0,240
2,note_on,56,0,0
2,note_on,58,0,0
2,note_on,56,34,0
2,note_on,59,42,0
2,note_on,50,34,0
2,note_on,50,0,240
2,note_on,59,0,0
2,note_on,56,0,0
2,note_on,56,34,0
2,note_on,53,34,0
2,note_on,62,42,0
2,note_on,62,0,240
2,note_on,53,0,0
2,note_on,56,0,0
2,note_on,56,42,0
2,note_on,52,42,0
2,note_on,60,50,0
2,note_on,60,0,1200
2,note_on,52,0,0
2,note_on,56,0,0
2,note_on,56,40,0
2,note_on,50,33,0
2,note_on,59,40,0
2,note_on,59,0,240
2,note_on,50,0,0
2,note_on,56,0,0
2,note_on,50,60,0
2,note_on,38,50,0
2,note_on,38,0,240
2,note_on,50,0,0
2,note_on,78,43,240
2,note_on,69,36,0
2,note_on,72,36,0
2,note_on,72,0,230
2,note_on,69,0,0
2,note_on,78,0,0
2,note_on,72,43,10
2,note_on,78,52,0
2,note_on,69,43,0
2,note_on,69,0,1200
2,note_on,78,0,0
2,note_on,72,0,0
2,note_on,72,43,0
2,note_on,76,43,0
2,note_on,81,51,0
2,note_on,81,0,230
2,note_on,76,0,0
2,note_on,72,0,0
2,note_on,72,48,10
2,note_on,76,48,0
2,note_on,81,57,0
2,note_on,81,0,1200
2,note_on,76,0,0
2,note_on,72,0,0
2,note_on,69,39,0
2,note_on,78,47,0
2,note_on,72,39,0
2,note_on,72,0,240
2,note_on,78,0,0
2,note_on,69,0,0
2,note_on,66,45,0
2,note_on,74,53,0
2,note_on,69,45,0
2,note_on,69,0,480
2,note_on,74,0,0
2,note_on,66,0,0
2,note_on,72,49,0
2,note_on,69,41,0
2,note_on,64,41,0
2,note_on,64,0,240
2,note_on,69,0,0
2,note_on,72,0,0
2,note_on,66,35,0
2,note_on,68,41,0
2,note_on,59,35,0
2,note_on,59,0,240
2,note_on,68,0,0
2,note_on,66,0,0
2,note_on,66,33,0
2,note_on,60,33,0
2,note_on,69,39,0
2,note_on,69,0,240
2,note_on,60,0,0
2,note_on,66,0,0
2,note_on,66,32,0
2,note_on,64,32,0
2,note_on,72,38,0
2,note_on,72,0,240
2,note_on,64,0,0
2,note_on,66,0,0
2,note_on,66,37,0
2,note_on,62,37,0
2,note_on,71,44,0
2,note_on,71,0,1200
2,note_on,62,0,0
2,note_on,66,0,0
2,note_on,60,26,0
2,note_on,69,31,0
2,note_on,66,31,0
2,note_on,66,0,170
2,note_on,69,0,0
2,note_on,60,0,0
2,note_on,43,42,70
2,note_on,43,0,120
2,note_on,50,34,120
2,note_on,50,0,120
2,note_on,55,34,120
2,note_on,55,0,120
2,note_on,43,39,120
2,note_on,43,0,120
2,note_on,50,30,120
2,note_on,50,0,120
2,note_on,55,30,120
2,note_on,55,0,120
2,note_on,43,39,120
2,note_on,43,0,120
2,note_on,50,32,120
2,note_on,50,0,120
2,note_on,55,32,120
2,note_on,55,0,120
2,note_on,43,42,120
2,note_on,43,0,120
2,note_on,50,34,120
2,note_on,50,0,120
2,note_on,55,34,120
2,note_on,55,0,120
2,note_on,43,39,120
2,note_on,43,0,120
2,note_on,50,30,120
2,note_on,50,0,120
2,note_on,55,30,120
2,note_on,55,0,120
2,note_on,43,39,120
2,note_on,43,0,120
2,note_on,50,32,120
2,note_on,50,0,120
2,note_on,55,32,120
2,note_on,55,0,120
2,note_on,41,42,120
2,note_on,41,0,120
2,note_on,45,34,120
2,note_on,45,0,120
2,note_on,53,34,120
2,note_on,53,0,120
2,note_on,41,40,120
2,note_on,41,0,120
2,note_on,45,33,120
2,note_on,45,0,120
2,note_on,53,33,120
2,note_on,53,0,120
2,note_on,41,45,120
2,note_on,41,0,120
2,note_on,45,37,120
2,note_on,45,0,120
2,note_on,53,39,120
2,note_on,53,0,120
2,note_on,41,42,120
2,note_on,41,0,120
2,note_on,45,34,120
2,note_on,45,0,120
2,note_on,53,35,120
2,note_on,53,0,120
2,note_on,41,47,120
2,note_on,41,0,120
2,note_on,45,40,120
2,note_on,45,0,120
2,note_on,53,40,120
2,note_on,53,0,120
2,note_on,41,48,120
2,note_on,41,0,120
2,note_on,45,40,120
2,note_on,45,0,120
2,note_on,53,41,120
2,note_on,53,0,120
2,note_on,40,48,120
2,note_on,40,0,120
2,note_on,47,39,120
2,note_on,47,0,120
2,note_on,52,39,120
2,note_on,52,0,120
2,note_on,40,46,120
2,note_on,40,0,120
2,note_on,47,37,120
2,note_on,47,0,120
2,note_on,52,38,120
2,note_on,52,0,120
2,note_on,40,51,120
2,note_on,40,0,120
2,note_on,47,43,120
2,note_on,47,0,120
2,note_on,52,44,120
2,note_on,52,0,120
2,note_on,40,48,120
2,note_on,40,0,120
2,note_on,47,39,120
2,note_on,47,0,120
2,note_on,52,40,120
2,note_on,52,0,120
2,note_on,40,53,120
2,note_on,40,0,120
2,note_on,47,45,120
2,note_on,47,0,120
2,note_on,52,46,120
2,note_on,52,0,120
2,note_on,40,54,120
2,note_on,40,0,120
2,note_on,47,45,120
2,note_on,47,0,120
2,note_on,52,47,120
2,note_on,52,0,120
2,note_on,38,54,120
2,note_on,38,0,120
2,note_on,41,44,120
2,note_on,41,0,120
2,note_on,50,44,120
2,note_on,50,0,120
2,note_on,38,51,120
2,note_on,38,0,120
2,note_on,41,42,120
2,note_on,41,0,120
2,note_on,50,43,120
2,note_on,50,0,120
2,note_on,38,57,120
2,note_on,38,0,120
2,note_on,41,48,120
2,note_on,41,0,120
2,note_on,50,49,120
2,note_on,50,0,120
2,note_on,38,54,120
2,note_on,38,0,120
2,note_on,41,43,120
2,note_on,41,0,120
2,note_on,50,45,120
2,note_on,50,0,120
2,note_on,38,59,120
2,note_on,38,0,120
2,note_on,41,50,120
2,note_on,41,0,120
2,note_on,50,51,120
2,note_on,50,0,120
2,note_on,38,60,120
2,note_on,38,0,120
2,note_on,41,50,120
2,note_on,41,0,120
2,note_on,50,52,120
2,note_on,50,0,120
2,note_on,36,60,120
2,note_on,36,0,120
2,note_on,43,49,120
2,note_on,43,0,120
2,note_on,48,49,120
2,note_on,48,0,120
2,note_on,36,57,120
2,note_on,36,0,120
2,note_on,43,46,120
2,note_on,43,0,120
2,note_on,48,47,120
2,note_on,48,0,120
2,note_on,36,62,120
2,note_on,36,0,120
2,note_on,43,52,120
2,note_on,43,0,120
2,note_on,48,53,120
2,note_on,48,0,120
2,note_on,36,60,120
2,note_on,36,0,120
2,note_on,43,49,120
2,note_on,43,0,120
2,note_on,48,49,120
2,note_on,48,0,120
2,note_on,36,56,120
2,note_on,36,0,120
2,note_on,43,44,120
2,note_on,43,0,120
2,note_on,48,44,120
2,note_on,48,0,120
2,note_on,36,56,120
2,note_on,36,0,120
2,note_on,43,46,120
2,note_on,43,0,120
2,note_on,48,46,120
2,note_on,48,0,120
2,note_on,36,60,123
2,note_on,36,0,120
2,note_on,43,49,117
2,note_on,43,0,120
2,note_on,48,49,120
2,note_on,48,0,120
2,note_on,36,57,120
2,note_on,36,0,120
2,note_on,43,46,120
2,note_on,43,0,120
2,note_on,48,47,120
2,note_on,48,0,120
2,note_on,36,62,120
2,note_on,36,0,120
2,note_on,43,52,120
2,note_on,43,0,120
2,note_on,48,53,120
2,note_on,48,0,120
2,note_on,36,66,120
2,note_on,36,0,120
2,note_on,43,55,120
2,note_on,43,0,120
2,note_on,48,56,120
2,note_on,48,0,120
2,note_on,36,67,120
2,note_on,36,0,120
2,note_on,43,54,120
2,note_on,43,0,120
2,note_on,48,55,120
2,note_on,48,0,120
2,note_on,36,72,120
2,note_on,36,0,120
2,note_on,43,61,120
2,note_on,43,0,120
2,note_on,48,62,120
2,note_on,48,0,120
2,note_on,35,80,120
2,note_on,35,0,120
2,note_on,43,57,120
2,note_on,43,0,120
2,note_on,47,58,120
2,note_on,47,0,120
2,note_on,35,75,120
2,note_on,35,0,120
2,note_on,43,57,120
2,note_on,43,0,120
2,note_on,47,58,120
2,note_on,47,0,120
2,note_on,35,76,120
2,note_on,35,0,120
2,note_on,42,61,120
2,note_on,42,0,120
2,note_on,47,61,120
2,note_on,47,0,120
2,note_on,35,80,120
2,note_on,35,0,120
2,note_on,42,57,120
2,note_on,42,0,120
2,note_on,47,58,120
2,note_on,47,0,120
2,note_on,35,75,120
2,note_on,35,0,120
2,note_on,40,57,120
2,note_on,40,0,120
2,note_on,47,58,120
2,note_on,47,0,120
2,note_on,35,76,120
2,note_on,35,0,120
2,note_on,39,61,120
2,note_on,39,0,120
2,note_on,47,61,120
2,note_on,47,0,120
2,note_on,28,80,120
2,note_on,28,0,120
2,note_on,35,57,120
2,note_on,35,0,120
2,note_on,40,58,120
2,note_on,40,0,120
2,note_on,28,75,120
2,note_on,28,0,120
2,note_on,35,57,120
2,note_on,35,0,120
2,note_on,40,58,120
2,note_on,40,0,120
2,note_on,28,76,120
2,note_on,28,0,120
2,note_on,35,61,120
2,note_on,35,0,120
2,note_on,40,61,120
2,note_on,40,0,120
2,note_on,28,80,120
2,note_on,28,0,120
2,note_on,35,57,120
2,note_on,35,0,120
2,note_on,40,58,120
2,note_on,40,0,120
2,note_on,28,75,120
2,note_on,28,0,120
2,note_on,35,57,120
2,note_on,35,0,120
2,note_on,40,58,120
2,note_on,40,0,120
2,note_on,28,76,120
2,note_on,28,0,120
2,note_on,35,61,120
2,note_on,35,0,120
2,note_on,40,61,120
2,note_on,40,0,120
2,note_on,28,71,120
2,note_on,28,0,120
2,note_on,56,53,360
2,note_on,59,53,0
2,note_on,52,53,0
2,note_on,64,63,0
2,note_on,64,0,480
2,note_on,56,0,0
2,note_on,59,0,0
2,note_on,52,0,0
2,note_on,52,53,0
2,note_on,64,63,0
2,note_on,61,53,0
2,note_on,57,53,0
2,note_on,57,0,720
2,note_on,52,0,0
2,note_on,64,0,0
2,note_on,61,0,0
2,note_on,52,52,0
2,note_on,64,62,0
2,note_on,54,52,0
2,note_on,57,52,0
2,note_on,57,0,360
2,note_on,52,0,0
2,note_on,64,0,0
2,note_on,54,0,0
2,note_on,64,55,0
2,note_on,52,46,0
2,note_on,59,46,0
2,note_on,56,46,0
2,note_on,56,0,110
2,note_on,64,0,0
2,note_on,52,0,0
2,note_on,59,0,0
2,note_on,56,51,10
2,note_on,59,51,0
2,note_on,64,61,0
2,note_on,52,51,0
2,note_on,52,0,120
2,note_on,56,0,0
2,note_on,59,0,0
2,note_on,64,0,0
2,note_on,52,56,360
2,note_on,40,47,0
2,note_on,47,47,0
2,note_on,47,0,480
2,note_on,40,0,0
2,note_on,52,0,0
2,note_on,40,47,0
2,note_on,52,56,0
2,note_on,49,47,0
2,note_on,49,0,720
2,note_on,52,0,0
2,note_on,40,0,0
2,note_on,40,46,0
2,note_on,52,55,0
2,note_on,45,46,0
2,note_on,45,0,350
2,note_on,52,0,0
2,note_on,40,0,0
2,note_on,40,41,10
2,note_on,52,49,0
2,note_on,47,41,0
2,note_on,47,0,120
2,note_on,52,0,0
2,note_on,40,0,0
2,note_on,40,60,0
2,note_on,40,0,120
2,note_on,47,49,120
2,note_on,47,0,120
2,note_on,52,49,120
2,note_on,52,0,120
2,note_on,28,56,120
2,note_on,28,0,120
2,note_on,35,44,120
2,note_on,35,0,120
2,note_on,40,44,120
2,note_on,40,0,120
2,note_on,28,56,120
2,note_on,28,0,120
2,note_on,35,46,120
2,note_on,35,0,120
2,note_on,40,46,120
2,note_on,40,0,120
2,note_on,28,56,120
2,note_on,28,0,120
2,note_on,35,44,120
2,note_on,35,0,120
2,note_on,40,44,120
2,note_on,40,0,120
2,note_on,28,56,120
2,note_on,28,0,120
2,note_on,35,46,120
2,note_on,35,0,120
2,note_on,40,46,120
2,note_on,40,0,120
2,note_on,28,56,120
2,note_on,28,0,120
2,note_on,45,42,600
2,note_on,52,50,0
2,note_on,52,0,720
2,note_on,45,0,0
2,note_on,48,39,0
2,note_on,57,46,0
2,note_on,57,0,480
2,note_on,48,0,0
2,note_on,52,41,0
2,note_on,59,49,0
2,note_on,59,0,240
2,note_on,52,0,0
2,note_on,60,45,0
2,note_on,64,53,0
2,note_on,64,0,720
2,note_on,60,0,0
2,note_on,57,41,0
2,note_on,60,49,0
2,note_on,60,0,480
2,note_on,57,0,0
2,note_on,52,49,0
2,note_on,52,0,230
2,note_on,45,42,10
2,note_on,52,50,0
2,note_on,52,0,720
2,note_on,45,0,0
2,note_on,48,39,0
2,note_on,57,46,0
2,note_on,57,0,480
2,note_on,48,0,0
2,note_on,52,41,0
2,note_on,59,49,0
2,note_on,59,0,240
2,note_on,52,0,0
2,note_on,60,45,0
2,note_on,64,53,0
2,note_on,64,0,1190
2,note_on,60,0,0
2,note_on,57,41,10
2,note_on,60,49,0
2,note_on,60,0,240
2,note_on,57,0,0
2,note_on,43,45,0
2,note_on,55,53,0
2,note_on,55,0,720
2,note_on,43,0,0
2,note_on,55,53,0
2,note_on,65,50,240
2,note_on,62,42,0
2,note_on,62,0,180
2,note_on,65,0,0
2,note_on,64,45,60
2,note_on,60,38,0
2,note_on,60,0,180
2,note_on,64,0,0
2,note_on,62,53,60
2,note_on,59,45,0
2,note_on,55,0,710
2,note_on,59,0,10
2,note_on,62,0,0
2,note_on,55,57,0
2,note_on,55,0,470
2,note_on,55,49,10
2,note_on,55,0,240
2,note_on,48,45,0
2,note_on,60,53,0
2,note_on,60,0,720
2,note_on,48,0,0
2,note_on,50,45,0
2,note_on,62,53,0
2,note_on,62,0,720
2,note_on,50,0,0
2,note_on,52,45,0
2,note_on,64,53,0
2,note_on,64,0,1190
2,note_on,52,0,0
2,note_on,52,54,10
2,note_on,52,0,240
2,note_on,45,42,0
2,note_on,52,50,0
2,note_on,52,0,720
2,note_on,45,0,0
2,note_on,48,39,0
2,note_on,57,46,0
2,note_on,57,0,480
2,note_on,48,0,0
2,note_on,52,41,0
2,note_on,59,49,0
2,note_on,59,0,240
2,note_on,52,0,0
2,note_on,61,45,0
2,note_on,64,53,0
2,note_on,64,0,720
2,note_on,61,0,0
2,note_on,61,49,0
2,note_on,57,41,0
2,note_on,57,0,470
2,note_on,61,0,0
2,note_on,57,49,10
2,note_on,45,41,0
2,note_on,45,0,240
2,note_on,57,0,0
2,note_on,44,45,0
2,note_on,56,53,0
2,note_on,56,0,710
2,note_on,44,0,10
2,note_on,56,53,0
2,note_on,63,42,240
2,note_on,66,50,0
2,note_on,66,0,180
2,note_on,63,0,0
2,note_on,61,38,60
2,note_on,64,45,0
2,note_on,64,0,180
2,note_on,61,0,0
2,note_on,60,45,60
2,note_on,63,53,0
2,note_on,56,0,710
2,note_on,63,0,10
2,note_on,60,0,0
2,note_on,56,57,0
2,note_on,56,0,470
2,note_on,63,56,10
2,note_on,63,0,230
2,note_on,56,42,10
2,note_on,59,42,0
2,note_on,63,50,0
2,note_on,63,0,705
2,note_on,59,0,0
2,note_on,56,0,0
2,note_on,56,39,15
2,note_on,64,46,0
2,note_on,59,39,0
2,note_on,64,0,470
2,note_on,64,49,10
2,note_on,64,0,230
2,note_on,59,0,10
2,note_on,56,0,0
2,note_on,60,45,0
2,note_on,64,53,0
2,note_on,57,45,0
2,note_on,57,0,650
2,note_on,64,0,0
2,note_on,60,0,0
2,note_on,50,46,10
2,note_on,57,47,20
2,note_on,60,49,20
2,note_on,67,50,20
2,note_on,67,0,470
2,note_on,65,49,10
2,note_on,65,0,240
2,note_on,60,0,0
2,note_on,57,0,0
2,note_on,50,0,0
2,note_on,60,42,0
2,note_on,64,50,0
2,note_on,55,42,0
2,note_on,55,0,720
2,note_on,64,0,0
2,note_on,60,0,0
2,note_on,53,33,0
2,note_on,62,39,0
2,note_on,57,33,0
2,note_on,62,0,470
2,note_on,62,39,10
2,note_on,62,0,240
2,note_on,57,0,0
2,note_on,53,0,0
2,note_on,59,35,0
2,note_on,64,41,0
2,note_on,52,35,0
2,note_on,52,0,1200
2,note_on,64,0,0
2,note_on,59,0,0
2,note_on,36,35,240
2,note_on,36,0,720
2,note_on,41,28,0
2,note_on,41,0,720
2,note_on,45,36,0
2,note_on,45,0,720
2,note_on,47,30,0
2,note_on,47,0,720
2,note_on,40,36,0
2,note_on,40,0,240
2,note_on,53,27,0
2,note_on,53,0,240
2,note_on,52,27,0
2,note_on,52,0,230
2,note_on,52,37,10
2,note_on,52,0,180
2,note_on,52,27,60
2,note_on,52,0,180
2,note_on,52,27,60
2,note_on,52,0,180
2,note_on,52,37,60
2,note_on,52,0,180
2,note_on,52,28,60
2,note_on,52,0,180
2,note_on,52,28,60
2,note_on,52,0,180
2,note_on,40,36,60
2,note_on,40,0,240
2,note_on,53,27,0
2,note_on,53,0,240
2,note_on,52,27,0
2,note_on,52,0,230
2,note_on,52,37,10
2,note_on,52,0,180
2,note_on,52,27,60
2,note_on,52,0,180
2,note_on,52,27,60
2,note_on,52,0,180
2,note_on,52,37,60
2,note_on,52,0,180
2,note_on,52,28,60
2,note_on,52,0,180
2,note_on,52,28,60
2,note_on,52,0,180
2,note_on,38,36,60
2,note_on,38,0,240
2,note_on,52,27,0
2,note_on,52,0,240
2,note_on,50,27,0
2,note_on,50,0,230
2,note_on,50,37,10
2,note_on,50,0,180
2,note_on,50,27,60
2,note_on,50,0,180
2,note_on,50,27,60
2,note_on,50,0,180
2,note_on,50,37,60
2,note_on,50,0,180
2,note_on,50,28,60
2,note_on,50,0,180
2,note_on,50,28,60
2,note_on,50,0,180
2,note_on,40,36,60
2,note_on,40,0,240
2,note_on,53,27,0
2,note_on,53,0,240
2,note_on,52,27,0
2,note_on,52,0,230
2,note_on,52,37,10
2,note_on,52,0,180
2,note_on,52,27,60
2,note_on,52,0,180
2,note_on,52,27,60
2,note_on,52,0,180
2,note_on,52,37,60
2,note_on,52,0,180
2,note_on,52,28,60
2,note_on,52,0,180
2,note_on,52,28,60
2,note_on,52,0,180
2,note_on,45,36,60
2,note_on,45,0,240
2,note_on,53,27,0
2,note_on,53,0,240
2,note_on,52,27,0
2,note_on,52,0,230
2,note_on,52,37,10
2,note_on,52,0,180
2,note_on,52,27,60
2,note_on,52,0,180
2,note_on,52,27,60
2,note_on,52,0,180
2,note_on,52,37,60
2,note_on,52,0,180
2,note_on,52,28,60
2,note_on,52,0,180
2,note_on,52,28,60
2,note_on,52,0,180
2,note_on,38,36,30
2,note_on,50,43,30
2,note_on,50,0,240
2,note_on,38,0,0
2,note_on,53,27,0
2,note_on,53,0,240
2,note_on,57,27,0
2,note_on,57,0,230
2,note_on,62,37,10
2,note_on,62,0,240
2,note_on,57,27,0
2,note_on,57,0,240
2,note_on,53,27,0
2,note_on,53,0,240
2,note_on,62,37,0
2,note_on,62,0,240
2,note_on,58,28,0
2,note_on,58,0,240
2,note_on,53,28,0
2,note_on,53,0,180
2,note_on,52,43,60
2,note_on,52,0,240
2,note_on,55,27,0
2,note_on,55,0,240
2,note_on,58,27,0
2,note_on,58,0,230
2,note_on,60,37,10
2,note_on,60,0,240
2,note_on,58,27,0
2,note_on,58,0,240
2,note_on,55,27,0
2,note_on,55,0,240
2,note_on,50,37,0
2,note_on,50,0,240
2,note_on,55,28,0
2,note_on,55,0,240
2,note_on,58,28,0
2,note_on,58,0,240
2,note_on,48,34,0
2,note_on,55,24,240
2,note_on,55,0,240
2,note_on,58,24,0
2,note_on,58,0,230
2,note_on,60,32,10
2,note_on,60,0,240
2,note_on,58,26,0
2,note_on,58,0,240
2,note_on,55,26,0
2,note_on,55,0,240
2,note_on,48,0,0
2,note_on,60,35,0
2,note_on,60,0,240
2,note_on,55,25,0
2,note_on,55,0,240
2,note_on,52,25,0
2,note_on,52,0,240
2,note_on,47,34,0
2,note_on,52,24,240
2,note_on,52,0,240
2,note_on,55,24,0
2,note_on,55,0,230
2,note_on,59,32,10
2,note_on,59,0,240
2,note_on,55,26,0
2,note_on,55,0,240
2,note_on,52,26,0
2,note_on,52,0,240
2,note_on,47,0,0
2,note_on,59,35,0
2,note_on,59,0,240
2,note_on,55,31,0
2,note_on,55,0,240
2,note_on,52,33,0
2,note_on,52,0,240
2,note_on,47,41,0
2,note_on,54,31,240
2,note_on,54,0,240
2,note_on,57,31,0
2,note_on,57,0,230
2,note_on,59,38,10
2,note_on,59,0,240
2,note_on,57,26,0
2,note_on,57,0,240
2,note_on,54,26,0
2,note_on,54,0,240
2,note_on,47,0,0
2,note_on,59,42,0
2,note_on,59,0,240
2,note_on,54,34,0
2,note_on,54,0,240
2,note_on,51,34,0
2,note_on,51,0,240
2,note_on,48,47,0
2,note_on,55,30,240
2,note_on,55,0,240
2,note_on,58,30,0
2,note_on,58,0,230
2,note_on,60,45,10
2,note_on,60,0,240
2,note_on,58,35,0
2,note_on,58,0,240
2,note_on,55,43,0
2,note_on,55,0,240
2,note_on,48,0,0
2,note_on,60,54,0
2,note_on,60,0,240
2,note_on,55,43,0
2,note_on,55,0,240
2,note_on,52,43,0
2,note_on,52,0,240
2,note_on,47,53,0
2,note_on,52,43,240
2,note_on,52,0,240
2,note_on,55,43,0
2,note_on,55,0,240
2,note_on,47,0,0
2,note_on,59,55,0
2,note_on,59,0,240
2,note_on,59,48,420
2,note_on,67,48,30
2,note_on,76,48,30
2,note_on,76,0,720
2,note_on,67,0,0
2,note_on,59,0,0
2,note_on,75,48,0
2,note_on,59,48,0
2,note_on,66,48,0
2,note_on,69,48,0
2,note_on,75,0,600
2,note_on,76,48,0
2,note_on,76,0,60
2,note_on,75,48,0
2,note_on,75,0,60
2,note_on,73,48,0
2,note_on,73,0,720
2,note_on,75,48,0
2,note_on,75,0,720
2,note_on,59,0,0
2,note_on,66,0,0
2,note_on,69,0,0
2,note_on,52,48,0
2,note_on,52,0,240
2,note_on,65,55,0
2,note_on,65,0,240
2,note_on,64,48,0
2,note_on,64,0,240
2,note_on,53,54,0
2,note_on,53,0,240
2,note_on,52,48,0
2,note_on,52,0,240
2,note_on,41,61,0
2,note_on,41,0,240
2,note_on,40,55,0
2,note_on,40,0,230
2,note_on,40,48,10
2,note_on,40,0,120
2,note_on,40,47,120
2,note_on,40,0,120
2,note_on,40,50,120
2,note_on,33,42,0
2,note_on,33,0,720
2,note_on,40,0,0
2,note_on,45,46,0
2,note_on,36,39,0
2,note_on,36,0,480
2,note_on,45,0,0
2,note_on,47,49,0
2,note_on,40,41,0
2,note_on,40,0,240
2,note_on,47,0,0
2,note_on,52,53,0
2,note_on,48,45,0
2,note_on,48,0,710
2,note_on,52,0,10
2,note_on,48,49,0
2,note_on,45,41,0
2,note_on,45,0,480
2,note_on,48,0,0
2,note_on,40,49,0
2,note_on,33,42,0
2,note_on,33,0,230
2,note_on,40,0,0
2,note_on,33,42,10
2,note_on,40,50,0
2,note_on,40,0,720
2,note_on,33,0,0
2,note_on,36,39,0
2,note_on,45,46,0
2,note_on,45,0,480
2,note_on,36,0,0
2,note_on,40,41,0
2,note_on,47,49,0
2,note_on,47,0,240
2,note_on,40,0,0
2,note_on,48,45,0
2,note_on,52,53,0
2,note_on,48,0,710
2,note_on,52,0,10
2,note_on,45,53,0
2,note_on,48,53,0
2,note_on,48,0,470
2,note_on,45,0,0
2,note_on,48,41,10
2,note_on,52,49,0
2,note_on,52,0,240
2,note_on,48,0,0
2,note_on,55,50,0
2,note_on,52,42,0
2,note_on,43,49,0
2,note_on,52,0,960
2,note_on,55,0,0
2,note_on,53,49,0
2,note_on,50,49,0
2,note_on,50,0,180
2,note_on,53,0,0
2,note_on,52,49,60
2,note_on,48,41,0
2,note_on,48,0,180
2,note_on,52,0,0
2,note_on,43,0,60
2,note_on,50,53,0
2,note_on,43,45,0
2,note_on,43,0,1190
2,note_on,50,0,0
2,note_on,50,49,10
2,note_on,43,42,0
2,note_on,43,0,230
2,note_on,50,0,0
2,note_on,48,42,10
2,note_on,40,49,0
2,note_on,52,50,0
2,note_on,52,0,960
2,note_on,48,0,0
2,note_on,47,49,0
2,note_on,50,49,0
2,note_on,50,0,180
2,note_on,47,0,0
2,note_on,45,41,60
2,note_on,48,49,0
2,note_on,48,0,180
2,note_on,45,0,0
2,note_on,40,0,60
2,note_on,47,53,0
2,note_on,40,45,0
2,note_on,40,0,1190
2,note_on,47,0,0
2,note_on,40,47,10
2,note_on,40,0,240
2,note_on,40,50,0
2,note_on,33,42,0
2,note_on,33,0,720
2,note_on,40,0,0
2,note_on,37,39,0
2,note_on,45,46,0
2,note_on,45,0,480
2,note_on,37,0,0
2,note_on,40,41,0
2,note_on,47,49,0
2,note_on,47,0,240
2,note_on,40,0,0
2,note_on,49,45,0
2,note_on,52,53,0
2,note_on,49,0,710
2,note_on,52,0,10
2,note_on,45,41,0
2,note_on,49,49,0
2,note_on,45,0,470
2,note_on,49,0,10
2,note_on,33,42,0
2,note_on,45,49,0
2,note_on,45,0,230
2,note_on,33,0,0
2,note_on,32,42,10
2,note_on,44,50,0
2,note_on,44,0,720
2,note_on,32,0,0
2,note_on,56,46,0
2,note_on,63,41,240
2,note_on,66,49,0
2,note_on,66,0,180
2,note_on,63,0,0
2,note_on,64,49,60
2,note_on,61,41,0
2,note_on,61,0,180
2,note_on,64,0,0
2,note_on,63,53,60
2,note_on,60,45,0
2,note_on,56,0,720
2,note_on,56,53,0
2,note_on,56,0,470
2,note_on,60,0,0
2,note_on,63,0,0
2,note_on,63,44,10
2,note_on,63,0,240
2,note_on,59,49,0
2,note_on,63,49,0
2,note_on,56,43,0
2,note_on,63,0,720
2,note_on,64,48,0
2,note_on,64,0,470
2,note_on,64,46,10
2,note_on,64,0,230
2,note_on,56,0,10
2,note_on,59,0,0
2,note_on,57,45,0
2,note_on,64,52,0
2,note_on,60,52,0
2,note_on,64,0,720
2,note_on,65,51,0
2,note_on,65,0,470
2,note_on,65,48,10
2,note_on,65,0,230
2,note_on,60,0,10
2,note_on,57,0,0
2,note_on,65,52,0
2,note_on,62,44,0
2,note_on,59,44,0
2,note_on,59,0,620
2,note_on,62,0,0
2,note_on,65,0,0
2,note_on,47,42,10
2,note_on,53,42,30
2,note_on,55,42,30
2,note_on,62,50,30
2,note_on,62,0,720
2,note_on,47,0,0
2,note_on,53,0,0
2,note_on,55,0,0
2,note_on,48,45,0
2,note_on,57,45,0
2,note_on,60,53,0
2,note_on,53,45,0
2,note_on,53,0,720
2,note_on,48,0,0
2,note_on,57,0,0
2,note_on,60,0,0
2,note_on,55,42,0
2,note_on,48,42,0
2,note_on,60,50,0
2,note_on,48,0,470
2,note_on,60,0,10
2,note_on,55,0,0
2,note_on,48,50,0
2,note_on,48,0,230
2,note_on,48,53,10
2,note_on,41,45,0
2,note_on,41,0,720
2,note_on,48,0,0
2,note_on,53,55,0
2,note_on,45,46,0
2,note_on,45,0,480
2,note_on,53,0,0
2,note_on,55,56,0
2,note_on,48,47,0
2,note_on,48,0,240
2,note_on,55,0,0
2,note_on,53,52,0
2,note_on,57,62,0
2,note_on,57,0,720
2,note_on,53,0,0
2,note_on,53,53,0
2,note_on,49,45,0
2,note_on,45,45,0
2,note_on,45,0,480
2,note_on,49,0,0
2,note_on,53,0,0
2,note_on,46,48,240
2,note_on,49,57,0
2,note_on,49,0,720
2,note_on,46,0,0
2,note_on,46,45,0
2,note_on,54,53,0
2,note_on,54,0,240
2,note_on,46,0,0
2,note_on,49,40,0
2,note_on,58,48,0
2,note_on,58,0,240
2,note_on,49,0,0
2,note_on,54,42,0
2,note_on,61,50,0
2,note_on,61,0,240
2,note_on,54,0,0
2,note_on,62,62,0
2,note_on,59,52,0
2,note_on,59,0,720
2,note_on,62,0,0
2,note_on,47,47,0
2,note_on,55,55,0
2,note_on,55,0,240
2,note_on,47,0,0
2,note_on,50,41,0
2,note_on,59,49,0
2,note_on,59,0,240
2,note_on,50,0,0
2,note_on,62,51,0
2,note_on,55,42,0
2,note_on,55,0,240
2,note_on,62,0,0
2,note_on,60,44,0
2,note_on,64,52,0
2,note_on,64,0,620
2,note_on,60,0,0
2,note_on,48,42,10
2,note_on,55,42,30
2,note_on,57,42,30
2,note_on,64,50,30
2,note_on,64,0,720
2,note_on,48,0,0
2,note_on,55,0,0
2,note_on,57,0,0
2,note_on,59,45,0
2,note_on,50,45,0
2,note_on,62,53,0
2,note_on,55,45,0
2,note_on,55,0,720
2,note_on,59,0,0
2,note_on,50,0,0
2,note_on,62,0,0
2,note_on,50,42,0
2,note_on,62,50,0
2,note_on,57,42,0
2,note_on,50,0,470
2,note_on,57,0,10
2,note_on,62,0,0
2,note_on,50,50,0
2,note_on,50,0,230
2,note_on,50,53,10
2,note_on,43,45,0
2,note_on,43,0,720
2,note_on,50,0,0
2,note_on,47,46,0
2,note_on,55,55,0
2,note_on,55,0,480
2,note_on,47,0,0
2,note_on,50,47,0
2,note_on,57,56,0
2,note_on,57,0,240
2,note_on,50,0,0
2,note_on,55,52,0
2,note_on,59,62,0
2,note_on,59,0,720
2,note_on,55,0,0
2,note_on,47,45,0
2,note_on,51,45,0
2,note_on,55,53,0
2,note_on,55,0,240
2,note_on,51,0,0
2,note_on,47,0,0
2,note_on,43,48,240
2,note_on,51,57,0
2,note_on,51,0,230
2,note_on,43,0,10
2,note_on,41,48,0
2,note_on,50,57,0
2,note_on,50,0,720
2,note_on,41,0,0
2,note_on,55,55,0
2,note_on,47,46,0
2,note_on,47,0,480
2,note_on,55,0,0
2,note_on,57,56,0
2,note_on,50,47,0
2,note_on,50,0,240
2,note_on,57,0,0
2,note_on,59,62,0
2,note_on,55,52,0
2,note_on,55,0,720
2,note_on,59,0,0
2,note_on,51,45,0
2,note_on,47,45,0
2,note_on,55,53,0
2,note_on,55,0,240
2,note_on,47,0,0
2,note_on,51,0,0
2,note_on,41,48,240
2,note_on,51,57,0
2,note_on,51,0,240
2,note_on,41,0,0
2,note_on,40,48,0
2,note_on,50,57,0
2,note_on,50,0,720
2,note_on,40,0,0
2,note_on,47,46,0
2,note_on,56,55,0
2,note_on,56,0,480
2,note_on,47,0,0
2,note_on,50,47,0
2,note_on,57,56,0
2,note_on,57,0,240
2,note_on,50,0,0
2,note_on,56,52,0
2,note_on,59,62,0
2,note_on,59,0,1440
2,note_on,56,0,0
2,note_on,50,57,0
2,note_on,40,48,0
2,note_on,40,0,720
2,note_on,50,0,0
2,note_on,47,46,0
2,note_on,56,55,0
2,note_on,56,0,480
2,note_on,47,0,0
2,note_on,50,47,0
2,note_on,57,56,0
2,note_on,57,0,240
2,note_on,50,0,0
2,note_on,56,44,0
2,note_on,59,62,0
2,note_on,59,0,1440
2,note_on,56,0,0
2,note_on,40,37,0
2,note_on,50,44,0
2,note_on,50,0,1440
2,note_on,40,0,0
2,note_on,47,32,0
2,note_on,56,38,0
2,note_on,56,0,1440
2,note_on,47,0,0
2,note_on,40,28,0
2,note_on,50,33,0
2,note_on,50,0,2640
2,note_on,40,0,0
2,note_on,41,32,240
2,note_on,41,0,120
2,note_on,48,29,120
2,note_on,48,0,120
2,note_on,48,29,120
2,note_on,48,0,120
2,note_on,41,33,120
2,note_on,41,0,120
2,note_on,48,26,120
2,note_on,48,0,120
2,note_on,48,26,120
2,note_on,48,0,120
2,note_on,41,33,120
2,note_on,41,0,120
2,note_on,48,27,120
2,note_on,48,0,120
2,note_on,48,27,120
2,note_on,48,0,120
2,note_on,41,36,120
2,note_on,41,0,120
2,note_on,48,29,120
2,note_on,48,0,120
2,note_on,48,29,120
2,note_on,48,0,120
2,note_on,41,33,120
2,note_on,41,0,120
2,note_on,48,26,120
2,note_on,48,0,120
2,note_on,48,26,120
2,note_on,48,0,120
2,note_on,41,33,120
2,note_on,41,0,120
2,note_on,48,27,120
2,note_on,48,0,120
2,note_on,48,27,120
2,note_on,48,0,120
2,note_on,41,36,120
2,note_on,41,0,120
2,note_on,48,29,120
2,note_on,48,0,120
2,note_on,48,29,120
2,note_on,48,0,120
2,note_on,41,33,120
2,note_on,41,0,120
2,note_on,48,26,120
2,note_on,48,0,120
2,note_on,48,26,120
2,note_on,48,0,120
2,note_on,41,33,120
2,note_on,41,0,120
2,note_on,48,27,120
2,note_on,48,0,120
2,note_on,48,27,120
2,note_on,48,0,120
2,note_on,41,33,120
2,note_on,41,0,120
2,note_on,48,27,120
2,note_on,48,0,120
2,note_on,48,27,120
2,note_on,48,0,120
2,note_on,41,33,120
2,note_on,41,0,120
2,note_on,48,27,120
2,note_on,48,0,120
2,note_on,48,27,120
2,note_on,48,0,120
2,note_on,41,36,120
2,note_on,41,0,120
2,note_on,48,31,120
2,note_on,48,0,120
2,note_on,48,32,120
2,note_on,48,0,120
2,note_on,40,32,120
2,note_on,40,0,120
2,note_on,49,29,120
2,note_on,49,0,120
2,note_on,49,29,120
2,note_on,49,0,120
2,note_on,40,33,120
2,note_on,40,0,120
2,note_on,49,26,120
2,note_on,49,0,120
2,note_on,49,26,120
2,note_on,49,0,120
2,note_on,40,33,120
2,note_on,40,0,120
2,note_on,49,27,120
2,note_on,49,0,120
2,note_on,49,27,120
2,note_on,49,0,120
2,note_on,40,36,120
2,note_on,40,0,120
2,note_on,49,29,120
2,note_on,49,0,120
2,note_on,49,29,120
2,note_on,49,0,120
2,note_on,40,33,120
2,note_on,40,0,120
2,note_on,49,26,120
2,note_on,49,0,120
2,note_on,49,26,120
2,note_on,49,0,120
2,note_on,40,33,120
2,note_on,40,0,120
2,note_on,49,27,120
2,note_on,49,0,120
2,note_on,49,27,120
2,note_on,49,0,120
2,note_on,39,36,120
2,note_on,39,0,120
2,note_on,49,29,120
2,note_on,49,0,120
2,note_on,49,29,120
2,note_on,49,0,120
2,note_on,39,33,120
2,note_on,39,0,120
2,note_on,49,26,120
2,note_on,49,0,120
2,note_on,49,26,120
2,note_on,49,0,120
2,note_on,39,33,120
2,note_on,39,0,120
2,note_on,49,27,120
2,note_on,49,0,120
2,note_on,49,27,120
2,note_on,49,0,120
2,note_on,39,33,120
2,note_on,39,0,120
2,note_on,49,27,120
2,note_on,49,0,120
2,note_on,49,27,120
2,note_on,49,0,120
2,note_on,39,33,120
2,note_on,39,0,120
2,note_on,49,27,120
2,note_on,49,0,120
2,note_on,49,27,120
2,note_on,49,0,120
2,note_on,39,36,120
2,note_on,39,0,120
2,note_on,49,31,120
2,note_on,49,0,120
2,note_on,49,32,120
2,note_on,49,0,120
2,note_on,38,32,120
2,note_on,38,0,120
2,note_on,50,29,120
2,note_on,50,0,120
2,note_on,50,29,120
2,note_on,50,0,120
2,note_on,38,33,120
2,note_on,38,0,120
2,note_on,50,26,120
2,note_on,50,0,120
2,note_on,50,26,120
2,note_on,50,0,120
2,note_on,38,33,120
2,note_on,38,0,120
2,note_on,50,27,120
2,note_on,50,0,120
2,note_on,50,29,120
2,note_on,50,0,120
2,note_on,38,36,120
2,note_on,38,0,120
2,note_on,50,29,120
2,note_on,50,0,120
2,note_on,50,30,120
2,note_on,50,0,120
2,note_on,38,35,120
2,note_on,38,0,120
2,note_on,50,28,120
2,note_on,50,0,120
2,note_on,50,29,120
2,note_on,50,0,120
2,note_on,38,38,120
2,note_on,38,0,120
2,note_on,50,32,120
2,note_on,50,0,120
2,note_on,50,32,120
2,note_on,50,0,120
2,note_on,38,45,120
2,note_on,38,0,120
2,note_on,50,36,120
2,note_on,50,0,120
2,note_on,50,36,120
2,note_on,50,0,120
2,note_on,38,41,120
2,note_on,38,0,120
2,note_on,50,32,120
2,note_on,50,0,120
2,note_on,50,40,120
2,note_on,50,0,120
2,note_on,38,48,120
2,note_on,38,0,120
2,note_on,50,33,120
2,note_on,50,0,120
2,note_on,50,33,120
2,note_on,50,0,120
2,note_on,38,41,120
2,note_on,38,0,120
2,note_on,50,33,120
2,note_on,50,0,120
2,note_on,50,33,120
2,note_on,50,0,120
2,note_on,36,35,120
2,note_on,36,0,120
2,note_on,43,31,120
2,note_on,43,0,120
2,note_on,48,31,120
2,note_on,48,0,120
2,note_on,36,36,120
2,note_on,36,0,120
2,note_on,43,28,120
2,note_on,43,0,120
2,note_on,48,28,120
2,note_on,48,0,120
2,note_on,36,36,120
2,note_on,36,0,120
2,note_on,43,29,120
2,note_on,43,0,120
2,note_on,48,29,120
2,note_on,48,0,120
2,note_on,36,39,120
2,note_on,36,0,120
2,note_on,43,31,120
2,note_on,43,0,120
2,note_on,48,33,120
2,note_on,48,0,120
2,note_on,36,38,120
2,note_on,36,0,120
2,note_on,43,30,120
2,note_on,43,0,120
2,note_on,48,31,120
2,note_on,48,0,120
2,note_on,36,41,120
2,note_on,36,0,120
2,note_on,43,35,120
2,note_on,43,0,120
2,note_on,48,35,120
2,note_on,48,0,120
2,note_on,36,49,120
2,note_on,36,0,120
2,note_on,43,39,120
2,note_on,43,0,120
2,note_on,48,39,120
2,note_on,48,0,120
2,note_on,36,45,120
2,note_on,36,0,120
2,note_on,43,35,120
2,note_on,43,0,120
2,note_on,48,44,120
2,note_on,48,0,120
2,note_on,36,52,120
2,note_on,36,0,120
2,note_on,43,36,120
2,note_on,43,0,120
2,note_on,48,36,120
2,note_on,48,0,120
2,note_on,36,45,120
2,note_on,36,0,120
2,note_on,43,36,120
2,note_on,43,0,120
2,note_on,48,36,120
2,note_on,48,0,120
2,note_on,36,60,123
2,note_on,36,0,120
2,note_on,43,49,117
2,note_on,43,0,120
2,note_on,48,49,120
2,note_on,48,0,120
2,note_on,36,57,120
2,note_on,36,0,120
2,note_on,43,46,120
2,note_on,43,0,120
2,note_on,48,47,120
2,note_on,48,0,120
2,note_on,36,62,120
2,note_on,36,0,120
2,note_on,43,52,120
2,note_on,43,0,120
2,note_on,48,53,120
2,note_on,48,0,120
2,note_on,36,66,120
2,note_on,36,0,120
2,note_on,43,55,120
2,note_on,43,0,120
2,note_on,48,56,120
2,note_on,48,0,120
2,note_on,36,67,120
2,note_on,36,0,120
2,note_on,43,54,120
2,note_on,43,0,120
2,note_on,48,55,120
2,note_on,48,0,120
2,note_on,36,72,120
2,note_on,36,0,120
2,note_on,43,61,120
2,note_on,43,0,120
2,note_on,48,62,120
2,note_on,48,0,120
2,note_on,35,80,120
2,note_on,35,0,120
2,note_on,43,57,120
2,note_on,43,0,120
2,note_on,47,58,120
2,note_on,47,0,120
2,note_on,35,75,120
2,note_on,35,0,120
2,note_on,43,57,120
2,note_on,43,0,120
2,note_on,47,58,120
2,note_on,47,0,120
2,note_on,35,76,120
2,note_on,35,0,120
2,note_on,42,61,120
2,note_on,42,0,120
2,note_on,47,61,120
2,note_on,47,0,120
2,note_on,35,80,120
2,note_on,35,0,120
2,note_on,42,57,120
2,note_on,42,0,120
2,note_on,47,58,120
2,note_on,47,0,120
2,note_on,35,75,120
2,note_on,35,0,120
2,note_on,40,57,120
2,note_on,40,0,120
2,note_on,47,58,120
2,note_on,47,0,120
2,note_on,35,76,120
2,note_on,35,0,120
2,note_on,39,61,120
2,note_on,39,0,120
2,note_on,47,61,120
2,note_on,47,0,120
2,note_on,28,80,120
2,note_on,28,0,120
2,note_on,35,57,120
2,note_on,35,0,120
2,note_on,40,58,120
2,note_on,40,0,120
2,note_on,28,75,120
2,note_on,28,0,120
2,note_on,35,57,120
2,note_on,35,0,120
2,note_on,40,58,120
2,note_on,40,0,120
2,note_on,28,76,120
2,note_on,28,0,120
2,note_on,35,61,120
2,note_on,35,0,120
2,note_on,40,61,120
2,note_on,40,0,120
2,note_on,28,80,120
2,note_on,28,0,120
2,note_on,35,57,120
2,note_on,35,0,120
2,note_on,40,58,120
2,note_on,40,0,120
2,note_on,28,75,120
2,note_on,28,0,120
2,note_on,35,57,120
2,note_on,35,0,120
2,note_on,40,58,120
2,note_on,40,0,120
2,note_on,28,76,120
2,note_on,28,0,120
2,note_on,35,61,120
2,note_on,35,0,120
2,note_on,40,61,120
2,note_on,40,0,120
2,note_on,28,71,120
2,note_on,28,0,120
2,note_on,52,53,300
2,note_on,59,53,30
2,note_on,68,63,30
2,note_on,68,0,420
2,note_on,59,0,0
2,note_on,52,0,0
2,note_on,52,53,0
2,note_on,61,53,30
2,note_on,69,63,30
2,note_on,69,0,660
2,note_on,61,0,0
2,note_on,52,0,0
2,note_on,52,52,0
2,note_on,57,52,20
2,note_on,61,52,20
2,note_on,66,62,20
2,note_on,66,0,360
2,note_on,52,0,0
2,note_on,57,0,0
2,note_on,61,0,0
2,note_on,59,46,0
2,note_on,68,55,0
2,note_on,68,0,50
2,note_on,59,0,0
2,note_on,52,51,10
2,note_on,59,51,30
2,note_on,68,61,30
2,note_on,68,0,120
2,note_on,59,0,0
2,note_on,52,0,0
2,note_on,40,53,300
2,note_on,47,53,30
2,note_on,56,63,30
2,note_on,56,0,420
2,note_on,47,0,0
2,note_on,40,0,0
2,note_on,40,53,0
2,note_on,49,53,30
2,note_on,57,63,30
2,note_on,57,0,660
2,note_on,49,0,0
2,note_on,40,0,0
2,note_on,40,52,0
2,note_on,45,52,20
2,note_on,49,52,20
2,note_on,54,62,20
2,note_on,54,0,360
2,note_on,40,0,0
2,note_on,45,0,0
2,note_on,49,0,0
2,note_on,47,46,0
2,note_on,56,55,0
2,note_on,56,0,110
2,note_on,47,0,0
2,note_on,28,60,10
2,note_on,28,0,120
2,note_on,35,49,120
2,note_on,35,0,120
2,note_on,40,49,120
2,note_on,40,0,120
2,note_on,28,56,120
2,note_on,28,0,120
2,note_on,35,44,120
2,note_on,35,0,120
2,note_on,40,44,120
2,note_on,40,0,120
2,note_on,28,56,120
2,note_on,28,0,120
2,note_on,35,46,120
2,note_on,35,0,120
2,note_on,40,46,120
2,note_on,40,0,120
2,note_on,28,56,120
2,note_on,28,0,120
2,note_on,35,44,120
2,note_on,35,0,120
2,note_on,40,44,120
2,note_on,40,0,120
2,note_on,28,56,120
2,note_on,28,0,120
2,note_on,35,46,120
2,note_on,35,0,120
2,note_on,40,46,120
2,note_on,40,0,120
2,note_on,28,56,120
2,note_on,28,0,120
2,note_on,33,67,600
2,note_on,33,0,120
2,note_on,57,41,840
2,note_on,61,49,0
2,note_on,61,0,120
2,note_on,57,0,0
2,note_on,59,49,120
2,note_on,52,41,0
2,note_on,52,0,120
2,note_on,59,0,0
2,note_on,57,58,120
2,note_on,49,49,0
2,note_on,49,0,120
2,note_on,57,0,0
2,note_on,40,74,360
2,note_on,40,0,120
2,note_on,45,87,120
2,note_on,45,0,120
2,note_on,61,49,840
2,note_on,57,41,0
2,note_on,57,0,120
2,note_on,61,0,0
2,note_on,33,41,120
2,note_on,59,49,0
2,note_on,52,41,0
2,note_on,52,0,120
2,note_on,59,0,0
2,note_on,33,0,0
2,note_on,49,49,120
2,note_on,33,41,0
2,note_on,57,58,0
2,note_on,57,0,120
2,note_on,33,0,0
2,note_on,49,0,0
2,note_on,35,58,120
2,note_on,35,0,120
2,note_on,37,64,120
2,note_on,37,0,120
2,note_on,38,67,120
2,note_on,38,0,120
2,note_on,45,74,1800
2,note_on,45,0,120
2,note_on,50,87,120
2,note_on,50,0,120
2,note_on,38,41,1080
2,note_on,38,0,120
2,note_on,38,41,120
2,note_on,38,0,120
2,note_on,39,58,120
2,note_on,39,0,120
2,note_on,40,64,120
2,note_on,40,0,120
2,note_on,41,67,120
2,note_on,41,0,120
2,note_on,48,74,1800
2,note_on,48,0,120
2,note_on,53,87,120
2,note_on,53,0,120
2,note_on,41,41,1080
2,note_on,41,0,120
2,note_on,41,41,120
2,note_on,41,0,120
2,note_on,43,58,120
2,note_on,43,0,120
2,note_on,45,64,120
2,note_on,45,0,120
2,note_on,46,67,120
2,note_on,46,0,120
2,note_on,44,41,840
2,note_on,44,0,120
2,note_on,45,41,120
2,note_on,45,0,120
2,note_on,47,45,120
2,note_on,47,0,120
2,note_on,47,43,120
2,note_on,47,0,120
2,note_on,48,45,120
2,note_on,48,0,120
2,note_on,50,55,120
2,note_on,50,0,120
2,note_on,47,41,840
2,note_on,47,0,120
2,note_on,48,41,120
2,note_on,48,0,120
2,note_on,50,45,120
2,note_on,50,0,120
2,note_on,50,43,120
2,note_on,50,0,120
2,note_on,52,45,120
2,note_on,52,0,120
2,note_on,53,55,120
2,note_on,53,0,120
2,note_on,53,36,840
2,note_on,53,0,120
2,note_on,55,36,120
2,note_on,55,0,120
2,note_on,56,43,120
2,note_on,56,0,120
2,note_on,56,39,120
2,note_on,56,0,120
2,note_on,57,49,120
2,note_on,57,0,120
2,note_on,59,61,120
2,note_on,59,0,120
2,note_on,59,34,360
2,note_on,62,41,0
2,note_on,62,0,700
2,note_on,59,0,0
2,note_on,62,41,20
2,note_on,59,34,0
2,note_on,59,0,720
2,note_on,62,0,0
2,note_on,59,65,240
2,note_on,63,65,0
2,note_on,63,0,120
2,note_on,59,0,0
2,note_on,63,41,360
2,note_on,59,34,0
2,note_on,59,0,700
2,note_on,63,0,0
2,note_on,63,41,20
2,note_on,59,34,0
2,note_on,59,0,720
2,note_on,63,0,0
2,note_on,62,55,240
2,note_on,55,55,0
2,note_on,65,65,0
2,note_on,65,0,720
2,note_on,55,0,0
2,note_on,62,0,0
2,note_on,31,60,480
2,note_on,43,60,0
2,note_on,43,0,120
2,note_on,31,0,0
2,note_on,43,64,120
2,note_on,31,64,0
2,note_on,31,0,120
2,note_on,43,0,0
2,note_on,45,67,120
2,note_on,33,67,0
2,note_on,33,0,120
2,note_on,45,0,0
2,note_on,35,70,120
2,note_on,47,70,0
2,note_on,47,0,120
2,note_on,35,0,0
2,note_on,36,73,120
2,note_on,36,0,120
2,note_on,43,60,120
2,note_on,43,0,120
2,note_on,48,60,120
2,note_on,48,0,120
2,note_on,36,70,120
2,note_on,36,0,120
2,note_on,43,59,120
2,note_on,43,0,120
2,note_on,48,59,120
2,note_on,48,0,120
2,note_on,36,66,120
2,note_on,36,0,120
2,note_on,43,59,120
2,note_on,43,0,120
2,note_on,48,59,120
2,note_on,48,0,120
2,note_on,36,66,120
2,note_on,36,0,120
2,note_on,43,49,120
2,note_on,43,0,120
2,note_on,48,49,120
2,note_on,48,0,120
2,note_on,36,56,120
2,note_on,36,0,120
2,note_on,43,44,120
2,note_on,43,0,120
2,note_on,48,44,120
2,note_on,48,0,120
2,note_on,36,56,120
2,note_on,36,0,120
2,note_on,43,46,120
2,note_on,43,0,120
2,note_on,48,46,120
2,note_on,48,0,120
2,note_on,36,60,120
2,note_on,36,0,120
2,note_on,43,49,120
2,note_on,43,0,120
2,note_on,48,49,120
2,note_on,48,0,120
2,note_on,36,56,120
2,note_on,36,0,120
2,note_on,43,44,120
2,note_on,43,0,120
2,note_on,48,44,120
2,note_on,48,0,120
2,note_on,35,56,120
2,note_on,35,0,120
2,note_on,43,46,120
2,note_on,43,0,120
2,note_on,47,46,120
2,note_on,47,0,120
2,note_on,33,66,120
2,note_on,33,0,120
2,note_on,40,49,120
2,note_on,40,0,120
2,note_on,45,49,120
2,note_on,45,0,120
2,note_on,33,57,120
2,note_on,33,0,120
2,note_on,40,46,120
2,note_on,40,0,120
2,note_on,45,47,120
2,note_on,45,0,120
2,note_on,33,62,120
2,note_on,33,0,120
2,note_on,40,52,120
2,note_on,40,0,120
2,note_on,45,53,120
2,note_on,45,0,120
2,note_on,33,60,120
2,note_on,33,0,120
2,note_on,40,49,120
2,note_on,40,0,120
2,note_on,45,49,120
2,note_on,45,0,120
2,note_on,33,56,120
2,note_on,33,0,120
2,note_on,40,44,120
2,note_on,40,0,120
2,note_on,45,44,120
2,note_on,45,0,120
2,note_on,31,56,120
2,note_on,31,0,120
2,note_on,40,46,120
2,note_on,40,0,120
2,note_on,43,46,120
2,note_on,43,0,120
2,note_on,29,66,120
2,note_on,29,0,120
2,note_on,36,49,120
2,note_on,36,0,120
2,note_on,41,49,120
2,note_on,41,0,120
2,note_on,29,57,120
2,note_on,29,0,120
2,note_on,36,46,120
2,note_on,36,0,120
2,note_on,41,47,120
2,note_on,41,0,120
2,note_on,29,62,120
2,note_on,29,0,120
2,note_on,36,52,120
2,note_on,36,0,120
2,note_on,41,53,120
2,note_on,41,0,120
2,note_on,29,66,120
2,note_on,29,0,120
2,note_on,36,56,120
2,note_on,36,0,120
2,note_on,41,58,120
2,note_on,41,0,120
2,note_on,29,72,120
2,note_on,29,0,120
2,note_on,36,59,120
2,note_on,36,0,120
2,note_on,41,62,120
2,note_on,41,0,120
2,note_on,29,83,120
2,note_on,29,0,120
2,note_on,36,72,120
2,note_on,36,0,120
2,note_on,41,75,120
2,note_on,41,0,120
2,note_on,30,77,120
2,note_on,42,91,0
2,note_on,42,0,120
2,note_on,30,0,0
2,note_on,54,48,120
2,note_on,54,0,120
2,note_on,54,48,120
2,note_on,54,0,120
2,note_on,54,48,120
2,note_on,54,0,120
2,note_on,54,45,120
2,note_on,54,0,120
2,note_on,54,45,120
2,note_on,54,0,120
2,note_on,54,45,120
2,note_on,54,0,120
2,note_on,54,45,120
2,note_on,54,0,120
2,note_on,54,45,120
2,note_on,54,0,120
2,note_on,42,48,120
2,note_on,54,63,0
2,note_on,54,0,120
2,note_on,42,0,0
2,note_on,54,48,120
2,note_on,54,0,120
2,note_on,54,48,120
2,note_on,54,0,120
2,note_on,54,48,120
2,note_on,54,0,120
2,note_on,54,45,120
2,note_on,54,0,120
2,note_on,54,45,120
2,note_on,54,0,120
2,note_on,54,45,120
2,note_on,54,0,120
2,note_on,54,45,120
2,note_on,54,0,120
2,note_on,54,45,120
2,note_on,54,0,120
2,note_on,54,63,120
2,note_on,42,48,0
2,note_on,42,0,120
2,note_on,54,0,0
2,note_on,54,48,120
2,note_on,54,0,120
2,note_on,54,48,120
2,note_on,54,0,120
2,note_on,54,48,120
2,note_on,54,0,120
2,note_on,54,45,120
2,note_on,54,0,120
2,note_on,54,49,120
2,note_on,54,0,120
2,note_on,54,54,120
2,note_on,54,0,120
2,note_on,54,59,120
2,note_on,54,0,120
2,note_on,54,64,120
2,note_on,54,0,120
2,note_on,30,69,120
2,note_on,42,91,0
2,note_on,42,0,120
2,note_on,30,0,0
2,note_on,54,67,120
2,note_on,54,0,120
2,note_on,54,63,120
2,note_on,54,0,120
2,note_on,54,58,120
2,note_on,54,0,120
2,note_on,54,54,120
2,note_on,54,0,120
2,note_on,54,50,120
2,note_on,54,0,120
2,note_on,54,45,120
2,note_on,54,0,120
2,note_on,54,45,120
2,note_on,54,0,120
2,note_on,54,45,120
2,note_on,54,0,120
2,note_on,54,40,120
2,note_on,42,40,0
2,note_on,42,0,120
2,note_on,54,0,0
2,note_on,54,48,120
2,note_on,54,0,120
2,note_on,54,48,120
2,note_on,54,0,120
2,note_on,54,48,120
2,note_on,54,0,120
2,note_on,54,45,120
2,note_on,54,0,120
2,note_on,54,45,120
2,note_on,54,0,120
2,note_on,54,45,120
2,note_on,54,0,120
2,note_on,54,45,120
2,note_on,54,0,120
2,note_on,54,45,120
2,note_on,54,0,120
2,note_on,54,63,120
2,note_on,42,48,0
2,note_on,42,0,120
2,note_on,54,0,0
2,note_on,54,48,120
2,note_on,54,0,120
2,note_on,54,48,120
2,note_on,54,0,120
2,note_on,54,48,120
2,note_on,54,0,120
2,note_on,54,45,120
2,note_on,54,0,120
2,note_on,54,45,120
2,note_on,54,0,120
2,note_on,54,45,120
2,note_on,54,0,120
2,note_on,54,45,120
2,note_on,54,0,120
2,note_on,54,45,120
2,note_on,54,0,120
2,note_on,43,48,120
2,note_on,55,63,0
2,note_on,55,0,120
2,note_on,43,0,0
2,note_on,55,48,120
2,note_on,55,0,120
2,note_on,55,48,120
2,note_on,55,0,120
2,note_on,55,48,120
2,note_on,55,0,120
2,note_on,55,45,120
2,note_on,55,0,120
2,note_on,55,49,120
2,note_on,55,0,120
2,note_on,55,54,120
2,note_on,55,0,120
2,note_on,55,59,120
2,note_on,55,0,120
2,note_on,55,64,120
2,note_on,55,0,120
2,note_on,31,69,120
2,note_on,43,91,0
2,note_on,43,0,120
2,note_on,31,0,0
2,note_on,55,67,120
2,note_on,55,0,120
2,note_on,55,63,120
2,note_on,55,0,120
2,note_on,55,58,120
2,note_on,55,0,120
2,note_on,55,54,120
2,note_on,55,0,120
2,note_on,55,50,120
2,note_on,55,0,120
2,note_on,55,45,120
2,note_on,55,0,120
2,note_on,55,45,120
2,note_on,55,0,120
2,note_on,55,45,120
2,note_on,55,0,120
2,note_on,48,59,120
2,note_on,48,0,240
2,note_on,36,66,480
2,note_on,36,0,240
2,note_on,40,44,0
2,note_on,40,0,240
2,note_on,44,44,0
2,note_on,44,0,240
2,note_on,45,66,0
2,note_on,45,0,240
2,note_on,47,41,0
2,note_on,47,0,240
2,note_on,45,41,0
2,note_on,45,0,240
2,note_on,36,66,0
2,note_on,36,0,240
2,note_on,40,46,0
2,note_on,40,0,240
2,note_on,44,46,0
2,note_on,44,0,240
2,note_on,45,66,0
2,note_on,45,0,240
2,note_on,47,43,0
2,note_on,47,0,240
2,note_on,45,43,0
2,note_on,45,0,240
2,note_on,36,66,0
2,note_on,36,0,240
2,note_on,40,46,0
2,note_on,40,0,240
2,note_on,44,46,0
2,note_on,44,0,240
2,note_on,45,66,0
2,note_on,45,0,240
2,note_on,47,43,0
2,note_on,47,0,240
2,note_on,45,43,0
2,note_on,45,0,240
2,note_on,36,66,0
2,note_on,36,0,240
2,note_on,40,44,0
2,note_on,40,0,240
2,note_on,44,44,0
2,note_on,44,0,240
2,note_on,45,50,0
2,note_on,45,0,240
2,note_on,48,41,0
2,note_on,48,0,240
2,note_on,57,41,0
2,note_on,57,0,240
2,note_on,43,50,0
2,note_on,43,0,240
2,note_on,48,44,0
2,note_on,48,0,240
2,note_on,55,44,0
2,note_on,55,0,240
2,note_on,41,50,0
2,note_on,41,0,240
2,note_on,48,40,0
2,note_on,48,0,240
2,note_on,53,40,0
2,note_on,53,0,240
2,note_on,42,50,0
2,note_on,42,0,240
2,note_on,50,41,0
2,note_on,50,0,240
2,note_on,54,41,0
2,note_on,54,0,240
2,note_on,43,50,0
2,note_on,43,0,240
2,note_on,50,42,0
2,note_on,50,0,240
2,note_on,55,42,0
2,note_on,55,0,240
2,note_on,41,50,0
2,note_on,41,0,240
2,note_on,43,42,0
2,note_on,43,0,240
2,note_on,53,42,0
2,note_on,53,0,240
2,note_on,40,47,0
2,note_on,40,0,240
2,note_on,43,36,0
2,note_on,43,0,240
2,note_on,52,34,0
2,note_on,52,0,240
2,note_on,38,41,0
2,note_on,38,0,240
2,note_on,43,30,0
2,note_on,43,0,240
2,note_on,50,29,0
2,note_on,50,0,240
2,note_on,48,37,0
2,note_on,48,0,240
2,note_on,36,66,480
2,note_on,36,0,240
2,note_on,40,44,0
2,note_on,40,0,240
2,note_on,44,44,0
2,note_on,44,0,240
2,note_on,45,66,0
2,note_on,45,0,240
2,note_on,47,41,0
2,note_on,47,0,240
2,note_on,45,41,0
2,note_on,45,0,240
2,note_on,36,66,0
2,note_on,36,0,240
2,note_on,40,46,0
2,note_on,40,0,240
2,note_on,44,46,0
2,note_on,44,0,240
2,note_on,45,66,0
2,note_on,45,0,240
2,note_on,47,43,0
2,note_on,47,0,240
2,note_on,45,43,0
2,note_on,45,0,240
2,note_on,36,66,0
2,note_on,36,0,240
2,note_on,40,46,0
2,note_on,40,0,240
2,note_on,44,46,0
2,note_on,44,0,240
2,note_on,45,66,0
2,note_on,45,0,240
2,note_on,47,43,0
2,note_on,47,0,240
2,note_on,45,43,0
2,note_on,45,0,240
2,note_on,36,66,0
2,note_on,36,0,240
2,note_on,40,44,0
2,note_on,40,0,240
2,note_on,44,44,0
2,note_on,44,0,240
2,note_on,45,50,0
2,note_on,45,0,240
2,note_on,48,41,0
2,note_on,48,0,240
2,note_on,57,41,0
2,note_on,57,0,240
2,note_on,43,50,0
2,note_on,43,0,240
2,note_on,48,44,0
2,note_on,48,0,240
2,note_on,55,44,0
2,note_on,55,0,240
2,note_on,41,50,0
2,note_on,41,0,240
2,note_on,48,40,0
2,note_on,48,0,240
2,note_on,53,40,0
2,note_on,53,0,240
2,note_on,42,50,0
2,note_on,42,0,240
2,note_on,50,41,0
2,note_on,50,0,240
2,note_on,54,41,0
2,note_on,54,0,240
2,note_on,43,50,0
2,note_on,43,0,240
2,note_on,50,44,0
2,note_on,50,0,240
2,note_on,55,49,0
2,note_on,55,0,240
2,note_on,41,54,0
2,note_on,41,0,240
2,note_on,43,44,0
2,note_on,43,0,240
2,note_on,53,44,0
2,note_on,53,0,240
2,note_on,40,49,0
2,note_on,40,0,240
2,note_on,43,38,0
2,note_on,43,0,240
2,note_on,52,38,0
2,note_on,52,0,240
2,note_on,38,44,0
2,note_on,38,0,240
2,note_on,43,30,0
2,note_on,43,0,240
2,note_on,50,29,0
2,note_on,50,0,240
2,note_on,36,49,0
2,note_on,36,0,240
2,note_on,43,38,0
2,note_on,43,0,240
2,note_on,48,38,0
2,note_on,48,0,240
2,note_on,40,44,0
2,note_on,40,0,240
2,note_on,48,30,0
2,note_on,48,0,240
2,note_on,52,30,0
2,note_on,52,0,240
2,note_on,41,42,0
2,note_on,41,0,240
2,note_on,48,30,0
2,note_on,48,0,240
2,note_on,53,30,0
2,note_on,53,0,240
2,note_on,41,42,0
2,note_on,41,0,240
2,note_on,48,29,0
2,note_on,48,0,240
2,note_on,53,29,0
2,note_on,53,0,240
2,note_on,54,49,0
2,note_on,54,0,240
2,note_on,43,29,0
2,note_on,43,0,240
2,note_on,54,46,0
2,note_on,54,0,240
2,note_on,43,34,0
2,note_on,43,0,240
2,note_on,54,47,0
2,note_on,54,0,240
2,note_on,43,38,0
2,note_on,43,0,240
2,note_on,55,57,0
2,note_on,43,48,0
2,note_on,43,0,1440
2,note_on,48,44,0
2,note_on,48,0,240
2,note_on,55,0,0
2,note_on,41,66,480
2,note_on,41,0,240
2,note_on,45,44,0
2,note_on,45,0,240
2,note_on,49,44,0
2,note_on,49,0,240
2,note_on,50,66,0
2,note_on,50,0,240
2,note_on,52,41,0
2,note_on,52,0,240
2,note_on,50,41,0
2,note_on,50,0,240
2,note_on,41,66,0
2,note_on,41,0,240
2,note_on,45,46,0
2,note_on,45,0,240
2,note_on,49,46,0
2,note_on,49,0,240
2,note_on,50,66,0
2,note_on,50,0,240
2,note_on,52,43,0
2,note_on,52,0,240
2,note_on,50,43,0
2,note_on,50,0,240
2,note_on,41,66,0
2,note_on,41,0,240
2,note_on,45,46,0
2,note_on,45,0,240
2,note_on,49,46,0
2,note_on,49,0,240
2,note_on,50,66,0
2,note_on,50,0,240
2,note_on,52,43,0
2,note_on,52,0,240
2,note_on,50,43,0
2,note_on,50,0,240
2,note_on,41,66,0
2,note_on,41,0,240
2,note_on,45,44,0
2,note_on,45,0,240
2,note_on,49,44,0
2,note_on,49,0,240
2,note_on,50,50,0
2,note_on,50,0,240
2,note_on,53,41,0
2,note_on,53,0,240
2,note_on,62,38,0
2,note_on,62,0,240
2,note_on,48,50,0
2,note_on,48,0,240
2,note_on,53,44,0
2,note_on,53,0,240
2,note_on,60,36,0
2,note_on,60,0,240
2,note_on,46,50,0
2,note_on,46,0,240
2,note_on,50,40,0
2,note_on,50,0,240
2,note_on,58,36,0
2,note_on,58,0,240
2,note_on,47,50,0
2,note_on,47,0,240
2,note_on,50,41,0
2,note_on,50,0,240
2,note_on,59,32,0
2,note_on,59,0,240
2,note_on,48,50,0
2,note_on,48,0,240
2,note_on,55,40,0
2,note_on,55,0,240
2,note_on,60,38,0
2,note_on,60,0,240
2,note_on,48,46,0
2,note_on,48,0,240
2,note_on,53,32,0
2,note_on,53,0,240
2,note_on,59,30,0
2,note_on,59,0,240
2,note_on,48,47,0
2,note_on,48,0,240
2,note_on,52,36,0
2,note_on,52,0,240
2,note_on,60,30,0
2,note_on,60,0,240
2,note_on,48,41,0
2,note_on,48,0,240
2,note_on,55,30,0
2,note_on,55,0,240
2,note_on,60,29,0
2,note_on,60,0,240
2,note_on,53,37,0
2,note_on,53,0,240
2,note_on,41,66,480
2,note_on,41,0,240
2,note_on,45,44,0
2,note_on,45,0,240
2,note_on,49,44,0
2,note_on,49,0,240
2,note_on,50,66,0
2,note_on,50,0,240
2,note_on,52,41,0
2,note_on,52,0,240
2,note_on,50,41,0
2,note_on,50,0,240
2,note_on,37,66,0
2,note_on,37,0,240
2,note_on,40,46,0
2,note_on,40,0,240
2,note_on,45,46,0
2,note_on,45,0,240
2,note_on,38,66,0
2,note_on,38,0,240
2,note_on,41,43,0
2,note_on,41,0,240
2,note_on,45,43,0
2,note_on,45,0,240
2,note_on,45,66,0
2,note_on,45,0,240
2,note_on,48,46,0
2,note_on,48,0,240
2,note_on,52,46,0
2,note_on,52,0,240
2,note_on,53,66,0
2,note_on,53,0,240
2,note_on,55,43,0
2,note_on,55,0,240
2,note_on,53,43,0
2,note_on,53,0,240
2,note_on,40,66,0
2,note_on,40,0,240
2,note_on,44,46,0
2,note_on,44,0,240
2,note_on,48,46,0
2,note_on,48,0,240
2,note_on,41,66,0
2,note_on,41,0,240
2,note_on,45,43,0
2,note_on,45,0,240
2,note_on,48,43,0
2,note_on,48,0,240
2,note_on,44,66,0
2,note_on,44,0,240
2,note_on,48,44,0
2,note_on,48,0,240
2,note_on,52,44,0
2,note_on,52,0,240
2,note_on,45,50,0
2,note_on,45,0,240
2,note_on,48,41,0
2,note_on,48,0,240
2,note_on,57,41,0
2,note_on,57,0,240
2,note_on,43,50,0
2,note_on,43,0,240
2,note_on,48,44,0
2,note_on,48,0,240
2,note_on,55,44,0
2,note_on,55,0,240
2,note_on,41,50,0
2,note_on,41,0,240
2,note_on,48,40,0
2,note_on,48,0,240
2,note_on,53,40,0
2,note_on,53,0,240
2,note_on,42,50,0
2,note_on,42,0,240
2,note_on,50,41,0
2,note_on,50,0,240
2,note_on,54,41,0
2,note_on,54,0,240
2,note_on,43,50,0
2,note_on,43,0,240
2,note_on,50,44,0
2,note_on,50,0,240
2,note_on,55,49,0
2,note_on,55,0,240
2,note_on,41,54,0
2,note_on,41,0,240
2,note_on,43,44,0
2,note_on,43,0,240
2,note_on,53,44,0
2,note_on,53,0,240
2,note_on,40,49,0
2,note_on,40,0,240
2,note_on,43,38,0
2,note_on,43,0,240
2,note_on,52,38,0
2,note_on,52,0,240
2,note_on,38,44,0
2,note_on,38,0,240
2,note_on,43,30,0
2,note_on,43,0,240
2,note_on,50,29,0
2,note_on,50,0,240
2,note_on,36,49,0
2,note_on,36,0,240
2,note_on,43,38,0
2,note_on,43,0,240
2,note_on,48,38,0
2,note_on,48,0,240
2,note_on,40,44,0
2,note_on,40,0,240
2,note_on,48,30,0
2,note_on,48,0,240
2,note_on,52,30,0
2,note_on,52,0,240
2,note_on,41,42,0
2,note_on,41,0,240
2,note_on,48,30,0
2,note_on,48,0,240
2,note_on,53,30,0
2,note_on,53,0,240
2,note_on,41,42,0
2,note_on,41,0,240
2,note_on,48,29,0
2,note_on,48,0,240
2,note_on,53,29,0
2,note_on,53,0,240
2,note_on,54,49,0
2,note_on,54,0,240
2,note_on,43,29,0
2,note_on,43,0,240
2,note_on,54,46,0
2,note_on,54,0,240
2,note_on,43,34,0
2,note_on,43,0,240
2,note_on,54,47,0
2,note_on,54,0,240
2,note_on,43,38,0
2,note_on,55,42,180
2,note_on,55,0,60
2,note_on,43,0,0
2,note_on,65,48,0
2,note_on,71,57,0
2,note_on,71,0,1380
2,note_on,65,0,0
2,note_on,48,37,0
2,note_on,55,37,20
2,note_on,60,37,20
2,note_on,64,44,20
2,note_on,48,0,90
2,note_on,55,0,10
2,note_on,60,0,10
2,note_on,64,0,10
2,note_on,54,58,600
2,note_on,54,0,240
2,note_on,52,49,0
2,note_on,52,0,240
2,note_on,54,49,0
2,note_on,54,0,240
2,note_on,55,58,0
2,note_on,55,0,240
2,note_on,50,52,0
2,note_on,50,0,240
2,note_on,43,52,0
2,note_on,43,0,240
2,note_on,54,58,0
2,note_on,54,0,240
2,note_on,52,52,0
2,note_on,52,0,240
2,note_on,54,52,0
2,note_on,54,0,240
2,note_on,55,58,0
2,note_on,55,0,240
2,note_on,50,52,0
2,note_on,50,0,240
2,note_on,43,52,0
2,note_on,43,0,240
2,note_on,55,57,0
2,note_on,62,57,0
2,note_on,67,68,0
2,note_on,65,57,0
2,note_on,65,0,120
2,note_on,55,0,0
2,note_on,62,0,0
2,note_on,67,0,0
2,note_on,48,52,540
2,note_on,55,52,30
2,note_on,64,62,30
2,note_on,64,0,120
2,note_on,55,0,0
2,note_on,48,0,0
2,note_on,62,58,600
2,note_on,65,58,0
2,note_on,67,69,0
2,note_on,55,58,0
2,note_on,55,0,120
2,note_on,62,0,0
2,note_on,65,0,0
2,note_on,67,0,0
2,note_on,48,53,540
2,note_on,55,53,30
2,note_on,64,63,30
2,note_on,64,0,120
2,note_on,55,0,0
2,note_on,48,0,0
2,note_on,54,58,600
2,note_on,54,0,240
2,note_on,52,49,0
2,note_on,52,0,240
2,note_on,54,49,0
2,note_on,54,0,240
2,note_on,55,58,0
2,note_on,55,0,240
2,note_on,50,52,0
2,note_on,50,0,240
2,note_on,43,52,0
2,note_on,43,0,240
2,note_on,54,58,0
2,note_on,54,0,240
2,note_on,52,52,0
2,note_on,52,0,240
2,note_on,54,52,0
2,note_on,54,0,240
2,note_on,55,58,0
2,note_on,55,0,240
2,note_on,50,52,0
2,note_on,50,0,240
2,note_on,43,52,0
2,note_on,43,0,240
2,note_on,65,57,0
2,note_on,67,68,0
2,note_on,62,57,0
2,note_on,55,57,0
2,note_on,55,0,120
2,note_on,65,0,0
2,note_on,67,0,0
2,note_on,62,0,0
2,note_on,48,52,540
2,note_on,55,52,30
2,note_on,64,62,30
2,note_on,64,0,120
2,note_on,55,0,0
2,note_on,48,0,0
2,note_on,62,58,600
2,note_on,67,69,0
2,note_on,65,58,0
2,note_on,55,58,0
2,note_on,55,0,120
2,note_on,62,0,0
2,note_on,67,0,0
2,note_on,65,0,0
2,note_on,48,53,540
2,note_on,55,53,30
2,note_on,64,63,30
2,note_on,64,0,120
2,note_on,55,0,0
2,note_on,48,0,0
2,note_on,45,53,480
2,note_on,48,53,60
2,note_on,52,53,30
2,note_on,64,63,30
2,note_on,64,0,120
2,note_on,45,0,0
2,note_on,48,0,0
2,note_on,52,0,0
2,note_on,55,64,600
2,note_on,43,54,0
2,note_on,43,0,240
2,note_on,55,0,0
2,note_on,48,54,0
2,note_on,48,0,240
2,note_on,52,54,0
2,note_on,52,0,240
2,note_on,60,64,0
2,note_on,48,54,0
2,note_on,48,0,240
2,note_on,60,0,0
2,note_on,52,56,0
2,note_on,52,0,240
2,note_on,55,56,0
2,note_on,55,0,240
2,note_on,64,64,0
2,note_on,52,54,0
2,note_on,52,0,240
2,note_on,64,0,0
2,note_on,55,59,0
2,note_on,55,0,240
2,note_on,60,59,0
2,note_on,60,0,240
2,note_on,67,64,0
2,note_on,55,54,0
2,note_on,55,0,240
2,note_on,67,0,0
2,note_on,60,56,0
2,note_on,60,0,240
2,note_on,64,56,0
2,note_on,64,0,240
2,note_on,67,72,0
2,note_on,67,0,120
2,note_on,43,64,1240
2,note_on,47,64,20
2,note_on,50,64,20
2,note_on,53,64,20
2,note_on,55,76,20
2,note_on,55,0,120
2,note_on,50,0,0
2,note_on,43,0,0
2,note_on,47,0,0
2,note_on,53,0,0
2,note_on,36,56,1320
2,note_on,36,0,240
2,note_on,43,44,0
2,note_on,43,0,240
2,note_on,48,49,0
2,note_on,48,0,240
2,note_on,36,57,0
2,note_on,36,0,240
2,note_on,43,47,0
2,note_on,43,0,240
2,note_on,48,48,0
2,note_on,48,0,240
2,note_on,36,63,0
2,note_on,36,0,240
2,note_on,43,51,0
2,note_on,43,0,240
2,note_on,48,53,0
2,note_on,48,0,240
2,note_on,36,69,0
2,note_on,36,0,240
2,note_on,43,56,0
2,note_on,43,0,240
2,note_on,48,57,0
2,note_on,48,0,240
2,note_on,36,56,0
2,note_on,36,0,240
2,note_on,43,44,0
2,note_on,43,0,240
2,note_on,48,49,0
2,note_on,48,0,240
2,note_on,36,57,0
2,note_on,36,0,240
2,note_on,43,47,0
2,note_on,43,0,240
2,note_on,48,48,0
2,note_on,48,0,240
2,note_on,36,63,0
2,note_on,36,0,240
2,note_on,43,51,0
2,note_on,43,0,240
2,note_on,48,53,0
2,note_on,48,0,240
2,note_on,36,69,0
2,note_on,36,0,240
2,note_on,43,56,0
2,note_on,43,0,240
2,note_on,48,57,0
2,note_on,48,0,240
2,note_on,36,56,0
2,note_on,36,0,240
2,note_on,43,44,0
2,note_on,43,0,240
2,note_on,48,49,0
2,note_on,48,0,240
2,note_on,36,57,0
2,note_on,36,0,240
2,note_on,43,47,0
2,note_on,43,0,240
2,note_on,48,48,0
2,note_on,48,0,240
2,note_on,36,63,0
2,note_on,36,0,240
2,note_on,43,51,0
2,note_on,43,0,240
2,note_on,48,53,0
2,note_on,48,0,240
2,note_on,36,69,0
2,note_on,36,0,240
2,note_on,43,56,0
2,note_on,43,0,240
2,note_on,48,57,0
2,note_on,48,0,240
2,note_on,28,63,0
2,note_on,40,69,0
2,note_on,40,0,120
2,note_on,28,0,0
2,note_on,29,62,600
2,note_on,41,69,0
2,note_on,41,0,120
2,note_on,29,0,0
2,note_on,36,62,600
2,note_on,48,69,0
2,note_on,48,0,120
2,note_on,36,0,0
2,note_on,40,62,600
2,note_on,52,69,0
2,note_on,52,0,120
2,note_on,40,0,0
2,note_on,45,62,510
2,note_on,52,62,30
2,note_on,57,62,30
2,note_on,60,69,30
2,note_on,60,0,120
2,note_on,45,0,0
2,note_on,52,0,0
2,note_on,57,0,0
2,note_on,43,62,1200
2,note_on,50,62,30
2,note_on,55,62,30
2,note_on,59,62,30
2,note_on,62,69,30
2,note_on,62,0,120
2,note_on,55,0,0
2,note_on,43,0,0
2,note_on,50,0,0
2,note_on,59,0,0
2,note_on,36,60,1020
2,note_on,36,0,60
2,note_on,43,63,0
2,note_on,43,0,60
2,note_on,48,63,0
2,note_on,48,0,60
2,note_on,55,62,120
2,note_on,60,62,0
2,note_on,64,62,0
2,note_on,67,69,0
2,note_on,67,0,1440
2,note_on,55,0,0
2,note_on,60,0,0
2,note_on,64,0,0
