Track,Message Type,Note,Velocity,Time
1,note_on,72,40,0
1,note_on,72,0,120
1,note_on,74,42,0
1,note_on,74,0,120
1,note_on,76,46,0
1,note_on,76,0,120
1,note_on,77,49,0
1,note_on,77,0,120
1,note_on,78,52,0
1,note_on,78,0,120
1,note_on,79,54,0
1,note_on,79,0,120
1,note_on,81,55,0
1,note_on,81,0,120
1,note_on,79,51,0
1,note_on,79,0,120
1,note_on,78,53,0
1,note_on,78,0,120
1,note_on,79,50,0
1,note_on,79,0,120
1,note_on,81,53,0
1,note_on,81,0,120
1,note_on,83,49,0
1,note_on,83,0,120
1,note_on,84,46,0
1,note_on,84,0,120
1,note_on,86,48,0
1,note_on,86,0,120
1,note_on,88,52,0
1,note_on,88,0,120
1,note_on,89,56,0
1,note_on,89,0,120
1,note_on,90,59,0
1,note_on,90,0,120
1,note_on,91,62,0
1,note_on,91,0,120
1,note_on,93,63,0
1,note_on,93,0,120
1,note_on,91,58,0
1,note_on,91,0,120
1,note_on,90,60,0
1,note_on,90,0,120
1,note_on,91,57,0
1,note_on,91,0,120
1,note_on,93,60,0
1,note_on,93,0,120
1,note_on,95,56,0
1,note_on,95,0,120
1,note_on,96,65,0
1,note_on,96,0,120
1,note_on,100,67,0
1,note_on,100,0,120
1,note_on,103,69,0
1,note_on,103,0,120
1,note_on,101,64,0
1,note_on,101,0,120
1,note_on,100,69,0
1,note_on,100,0,120
1,note_on,98,64,0
1,note_on,98,0,120
1,note_on,96,68,0
1,note_on,96,0,120
1,note_on,95,59,0
1,note_on,95,0,120
1,note_on,93,68,0
1,note_on,93,0,120
1,note_on,91,61,0
1,note_on,91,0,120
1,note_on,89,66,0
1,note_on,89,0,120
1,note_on,88,61,0
1,note_on,88,0,120
1,note_on,86,63,0
1,note_on,86,0,120
1,note_on,88,65,0
1,note_on,88,0,120
1,note_on,89,65,0
1,note_on,89,0,120
1,note_on,88,62,0
1,note_on,88,0,120
1,note_on,86,61,0
1,note_on,86,0,120
1,note_on,84,59,0
1,note_on,84,0,120
1,note_on,83,57,0
1,note_on,83,0,120
1,note_on,81,51,0
1,note_on,81,0,120
1,note_on,79,53,0
1,note_on,79,0,120
1,note_on,77,48,0
1,note_on,77,0,120
1,note_on,76,54,0
1,note_on,76,0,120
1,note_on,74,46,0
1,note_on,74,0,120
1,note_on,72,40,0
1,note_on,72,0,120
1,note_on,74,42,0
1,note_on,74,0,120
1,note_on,76,46,0
1,note_on,76,0,120
1,note_on,77,49,0
1,note_on,77,0,120
1,note_on,78,52,0
1,note_on,78,0,120
1,note_on,79,54,0
1,note_on,79,0,120
1,note_on,81,55,0
1,note_on,81,0,120
1,note_on,79,51,0
1,note_on,79,0,120
1,note_on,78,53,0
1,note_on,78,0,120
1,note_on,79,50,0
1,note_on,79,0,120
1,note_on,81,53,0
1,note_on,81,0,120
1,note_on,83,49,0
1,note_on,83,0,120
1,note_on,84,46,0
1,note_on,84,0,120
1,note_on,86,48,0
1,note_on,86,0,120
1,note_on,88,52,0
1,note_on,88,0,120
1,note_on,89,54,0
1,note_on,89,0,120
1,note_on,90,59,0
1,note_on,90,0,120
1,note_on,91,62,0
1,note_on,91,0,120
1,note_on,93,63,0
1,note_on,93,0,120
1,note_on,91,58,0
1,note_on,91,0,120
1,note_on,90,60,0
1,note_on,90,0,120
1,note_on,91,57,0
1,note_on,91,0,120
1,note_on,93,60,0
1,note_on,93,0,120
1,note_on,95,56,0
1,note_on,95,0,120
1,note_on,96,65,0
1,note_on,96,0,120
1,note_on,98,67,0
1,note_on,98,0,120
1,note_on,100,69,0
1,note_on,100,0,120
1,note_on,98,64,0
1,note_on,98,0,120
1,note_on,96,69,0
1,note_on,96,0,120
1,note_on,95,64,0
1,note_on,95,0,120
1,note_on,93,68,0
1,note_on,93,0,120
1,note_on,95,59,0
1,note_on,95,0,120
1,note_on,96,68,0
1,note_on,96,0,120
1,note_on,95,61,0
1,note_on,95,0,120
1,note_on,93,66,0
1,note_on,93,0,120
1,note_on,91,61,0
1,note_on,91,0,120
1,note_on,90,63,0
1,note_on,90,0,120
1,note_on,88,64,0
1,note_on,88,0,120
1,note_on,86,62,0
1,note_on,86,0,120
1,note_on,84,62,0
1,note_on,84,0,120
1,note_on,83,61,0
1,note_on,83,0,120
1,note_on,81,59,0
1,note_on,81,0,120
1,note_on,79,51,0
1,note_on,79,0,120
1,note_on,78,40,0
1,note_on,78,0,120
1,note_on,81,48,0
1,note_on,81,0,120
1,note_on,79,37,0
1,note_on,79,0,120
1,note_on,77,42,0
1,note_on,77,0,120
1,note_on,74,35,0
1,note_on,74,0,120
1,note_on,72,40,0
1,note_on,72,0,120
1,note_on,74,42,0
1,note_on,74,0,120
1,note_on,76,46,0
1,note_on,76,0,120
1,note_on,77,49,0
1,note_on,77,0,120
1,note_on,78,52,0
1,note_on,78,0,120
1,note_on,79,54,0
1,note_on,79,0,120
1,note_on,81,55,0
1,note_on,81,0,120
1,note_on,79,51,0
1,note_on,79,0,120
1,note_on,78,53,0
1,note_on,78,0,120
1,note_on,79,50,0
1,note_on,79,0,120
1,note_on,81,53,0
1,note_on,81,0,120
1,note_on,83,49,0
1,note_on,83,0,120
1,note_on,84,46,0
1,note_on,84,0,120
1,note_on,86,48,0
1,note_on,86,0,120
1,note_on,88,52,0
1,note_on,88,0,120
1,note_on,89,56,0
1,note_on,89,0,120
1,note_on,90,59,0
1,note_on,90,0,120
1,note_on,91,62,0
1,note_on,91,0,120
1,note_on,93,63,0
1,note_on,93,0,120
1,note_on,91,58,0
1,note_on,91,0,120
1,note_on,90,60,0
1,note_on,90,0,120
1,note_on,91,57,0
1,note_on,91,0,120
1,note_on,93,60,0
1,note_on,93,0,120
1,note_on,95,56,0
1,note_on,95,0,120
1,note_on,96,65,0
1,note_on,96,0,120
1,note_on,100,67,0
1,note_on,100,0,120
1,note_on,103,69,0
1,note_on,103,0,120
1,note_on,101,64,0
1,note_on,101,0,120
1,note_on,100,69,0
1,note_on,100,0,120
1,note_on,98,64,0
1,note_on,98,0,120
1,note_on,96,68,0
1,note_on,96,0,120
1,note_on,95,59,0
1,note_on,95,0,120
1,note_on,93,68,0
1,note_on,93,0,120
1,note_on,91,61,0
1,note_on,91,0,120
1,note_on,89,66,0
1,note_on,89,0,120
1,note_on,88,61,0
1,note_on,88,0,120
1,note_on,86,63,0
1,note_on,86,0,120
1,note_on,88,65,0
1,note_on,88,0,120
1,note_on,89,65,0
1,note_on,89,0,120
1,note_on,88,62,0
1,note_on,88,0,120
1,note_on,86,61,0
1,note_on,86,0,120
1,note_on,84,59,0
1,note_on,84,0,120
1,note_on,83,57,0
1,note_on,83,0,120
1,note_on,81,51,0
1,note_on,81,0,120
1,note_on,79,53,0
1,note_on,79,0,120
1,note_on,77,48,0
1,note_on,77,0,120
1,note_on,76,54,0
1,note_on,76,0,120
1,note_on,74,46,0
1,note_on,74,0,120
1,note_on,72,40,0
1,note_on,72,0,120
1,note_on,74,42,0
1,note_on,74,0,120
1,note_on,76,46,0
1,note_on,76,0,120
1,note_on,77,49,0
1,note_on,77,0,120
1,note_on,78,52,0
1,note_on,78,0,120
1,note_on,79,54,0
1,note_on,79,0,120
1,note_on,81,55,0
1,note_on,81,0,120
1,note_on,79,51,0
1,note_on,79,0,120
1,note_on,78,53,0
1,note_on,78,0,120
1,note_on,79,50,0
1,note_on,79,0,120
1,note_on,81,53,0
1,note_on,81,0,120
1,note_on,83,49,0
1,note_on,83,0,120
1,note_on,84,46,0
1,note_on,84,0,120
1,note_on,86,48,0
1,note_on,86,0,120
1,note_on,88,52,0
1,note_on,88,0,120
1,note_on,89,54,0
1,note_on,89,0,120
1,note_on,90,59,0
1,note_on,90,0,120
1,note_on,91,62,0
1,note_on,91,0,120
1,note_on,93,63,0
1,note_on,93,0,120
1,note_on,91,58,0
1,note_on,91,0,120
1,note_on,90,60,0
1,note_on,90,0,120
1,note_on,91,57,0
1,note_on,91,0,120
1,note_on,93,60,0
1,note_on,93,0,120
1,note_on,95,56,0
1,note_on,95,0,120
1,note_on,96,65,0
1,note_on,96,0,120
1,note_on,98,67,0
1,note_on,98,0,120
1,note_on,100,69,0
1,note_on,100,0,120
1,note_on,98,64,0
1,note_on,98,0,120
1,note_on,96,69,0
1,note_on,96,0,120
1,note_on,95,64,0
1,note_on,95,0,120
1,note_on,93,68,0
1,note_on,93,0,120
1,note_on,95,59,0
1,note_on,95,0,120
1,note_on,96,68,0
1,note_on,96,0,120
1,note_on,95,61,0
1,note_on,95,0,120
1,note_on,93,66,0
1,note_on,93,0,120
1,note_on,91,61,0
1,note_on,91,0,120
1,note_on,90,63,0
1,note_on,90,0,120
1,note_on,88,64,0
1,note_on,88,0,120
1,note_on,86,62,0
1,note_on,86,0,120
1,note_on,84,62,0
1,note_on,84,0,120
1,note_on,83,61,0
1,note_on,83,0,120
1,note_on,81,59,0
1,note_on,81,0,120
1,note_on,79,53,0
1,note_on,79,0,120
1,note_on,77,63,600
1,note_on,77,0,120
1,note_on,79,65,0
1,note_on,79,0,120
1,note_on,81,68,0
1,note_on,81,0,120
1,note_on,79,70,0
1,note_on,79,0,120
1,note_on,77,68,0
1,note_on,77,0,120
1,note_on,76,62,0
1,note_on,76,0,120
1,note_on,74,64,0
1,note_on,74,0,120
1,note_on,76,65,0
1,note_on,76,0,120
1,note_on,77,67,0
1,note_on,77,0,120
1,note_on,76,68,0
1,note_on,76,0,120
1,note_on,74,65,0
1,note_on,74,0,120
1,note_on,72,61,0
1,note_on,72,0,120
1,note_on,71,65,0
1,note_on,71,0,120
1,note_on,72,57,0
1,note_on,72,0,120
1,note_on,71,62,0
1,note_on,71,0,120
1,note_on,70,58,0
1,note_on,70,0,120
1,note_on,71,53,0
1,note_on,71,0,120
1,note_on,81,69,0
1,note_on,79,59,120
1,note_on,81,0,20
1,note_on,79,0,100
1,note_on,42,63,600
1,note_on,43,65,120
1,note_on,42,0,24
1,note_on,45,68,96
1,note_on,43,0,24
1,note_on,43,70,96
1,note_on,45,0,24
1,note_on,42,68,96
1,note_on,43,0,24
1,note_on,43,62,96
1,note_on,42,0,24
1,note_on,47,64,96
1,note_on,43,0,24
1,note_on,48,65,96
1,note_on,47,0,24
1,note_on,50,67,96
1,note_on,48,0,24
1,note_on,48,68,96
1,note_on,50,0,24
1,note_on,47,65,96
1,note_on,48,0,24
1,note_on,48,61,96
1,note_on,47,0,24
1,note_on,51,72,96
1,note_on,48,0,24
1,note_on,52,67,96
1,note_on,51,0,24
1,note_on,53,73,96
1,note_on,52,0,24
1,note_on,52,70,96
1,note_on,53,0,24
1,note_on,51,68,96
1,note_on,52,0,24
1,note_on,52,72,96
1,note_on,51,0,24
1,note_on,55,78,96
1,note_on,52,0,24
1,note_on,55,0,96
1,note_on,77,63,600
1,note_on,77,0,120
1,note_on,79,65,0
1,note_on,79,0,120
1,note_on,80,68,0
1,note_on,80,0,120
1,note_on,79,70,0
1,note_on,79,0,120
1,note_on,77,68,0
1,note_on,77,0,120
1,note_on,75,62,0
1,note_on,75,0,120
1,note_on,74,64,0
1,note_on,74,0,120
1,note_on,75,65,0
1,note_on,75,0,120
1,note_on,77,67,0
1,note_on,77,0,120
1,note_on,75,68,0
1,note_on,75,0,120
1,note_on,74,65,0
1,note_on,74,0,120
1,note_on,72,61,0
1,note_on,72,0,120
1,note_on,71,65,0
1,note_on,71,0,120
1,note_on,72,57,0
1,note_on,72,0,120
1,note_on,71,62,0
1,note_on,71,0,120
1,note_on,70,58,0
1,note_on,70,0,120
1,note_on,71,53,0
1,note_on,71,0,120
1,note_on,80,68,0
1,note_on,79,59,120
1,note_on,80,0,20
1,note_on,79,0,100
1,note_on,42,63,600
1,note_on,43,65,120
1,note_on,42,0,24
1,note_on,44,68,96
1,note_on,43,0,24
1,note_on,43,70,96
1,note_on,44,0,24
1,note_on,42,68,96
1,note_on,43,0,24
1,note_on,43,62,96
1,note_on,42,0,24
1,note_on,47,64,96
1,note_on,43,0,24
1,note_on,48,65,96
1,note_on,47,0,24
1,note_on,50,67,96
1,note_on,48,0,24
1,note_on,48,68,96
1,note_on,50,0,24
1,note_on,47,65,96
1,note_on,48,0,24
1,note_on,48,61,96
1,note_on,47,0,24
1,note_on,50,72,96
1,note_on,48,0,24
1,note_on,51,67,96
1,note_on,50,0,24
1,note_on,53,73,96
1,note_on,51,0,24
1,note_on,51,70,96
1,note_on,53,0,24
1,note_on,50,68,96
1,note_on,51,0,24
1,note_on,51,72,96
1,note_on,50,0,24
1,note_on,55,78,96
1,note_on,51,0,24
1,note_on,55,0,96
1,note_on,75,45,600
1,note_on,75,0,120
1,note_on,77,47,0
1,note_on,77,0,120
1,note_on,75,50,0
1,note_on,75,0,120
1,note_on,72,45,0
1,note_on,72,0,120
1,note_on,84,51,0
1,note_on,84,0,120
1,note_on,85,68,360
1,note_on,85,0,240
1,note_on,75,61,0
1,note_on,75,0,240
1,note_on,75,45,0
1,note_on,75,0,120
1,note_on,77,47,0
1,note_on,77,0,120
1,note_on,75,50,0
1,note_on,75,0,120
1,note_on,72,45,0
1,note_on,72,0,120
1,note_on,84,51,0
1,note_on,84,0,120
1,note_on,85,68,360
1,note_on,85,0,240
1,note_on,75,61,0
1,note_on,75,0,240
1,note_on,75,47,0
1,note_on,75,0,120
1,note_on,77,50,0
1,note_on,77,0,120
1,note_on,75,53,0
1,note_on,75,0,120
1,note_on,72,47,0
1,note_on,72,0,120
1,note_on,84,54,0
1,note_on,84,0,120
1,note_on,76,53,120
1,note_on,76,0,120
1,note_on,77,56,0
1,note_on,77,0,120
1,note_on,76,59,0
1,note_on,76,0,120
1,note_on,72,53,0
1,note_on,72,0,120
1,note_on,84,61,0
1,note_on,84,0,120
1,note_on,77,60,120
1,note_on,77,0,120
1,note_on,79,64,0
1,note_on,79,0,120
1,note_on,77,67,0
1,note_on,77,0,120
1,note_on,72,60,0
1,note_on,72,0,120
1,note_on,84,70,0
1,note_on,84,0,120
1,note_on,78,68,120
1,note_on,78,0,120
1,note_on,79,72,0
1,note_on,79,0,120
1,note_on,78,76,0
1,note_on,78,0,120
1,note_on,72,68,0
1,note_on,72,0,120
1,note_on,84,79,0
1,note_on,84,0,120
1,note_on,79,81,120
1,note_on,79,0,120
1,note_on,81,69,0
1,note_on,81,0,120
1,note_on,83,65,0
1,note_on,83,0,120
1,note_on,84,65,0
1,note_on,84,0,90
1,note_on,76,79,30
1,note_on,76,0,120
1,note_on,77,68,0
1,note_on,77,0,120
1,note_on,78,65,0
1,note_on,78,0,120
1,note_on,79,65,0
1,note_on,79,0,120
1,note_on,72,77,0
1,note_on,72,0,120
1,note_on,74,68,0
1,note_on,74,0,120
1,note_on,75,64,0
1,note_on,75,0,120
1,note_on,76,64,0
1,note_on,76,0,90
1,note_on,67,73,30
1,note_on,69,58,120
1,note_on,67,0,24
1,note_on,71,55,96
1,note_on,69,0,24
1,note_on,72,55,96
1,note_on,71,0,24
1,note_on,72,0,66
1,note_on,64,67,30
1,note_on,65,57,120
1,note_on,64,0,24
1,note_on,66,55,96
1,note_on,65,0,24
1,note_on,67,55,96
1,note_on,66,0,24
1,note_on,67,0,66
1,note_on,60,65,30
1,note_on,62,57,120
1,note_on,60,0,24
1,note_on,63,54,96
1,note_on,62,0,24
1,note_on,64,54,96
1,note_on,63,0,24
1,note_on,64,0,66
1,note_on,55,63,30
1,note_on,55,0,480
1,note_on,64,57,240
1,note_on,67,57,0
1,note_on,67,0,720
1,note_on,64,0,0
1,note_on,63,47,0
1,note_on,66,47,0
1,note_on,69,47,0
1,note_on,69,0,720
1,note_on,66,0,0
1,note_on,63,0,0
1,note_on,71,39,0
1,note_on,65,39,0
1,note_on,62,39,0
1,note_on,62,0,720
1,note_on,65,0,0
1,note_on,71,0,0
1,note_on,72,40,0
1,note_on,72,0,120
1,note_on,74,42,0
1,note_on,74,0,120
1,note_on,76,46,0
1,note_on,76,0,120
1,note_on,77,49,0
1,note_on,77,0,120
1,note_on,78,52,0
1,note_on,78,0,120
1,note_on,79,54,0
1,note_on,79,0,120
1,note_on,81,55,0
1,note_on,81,0,120
1,note_on,79,51,0
1,note_on,79,0,120
1,note_on,78,53,0
1,note_on,78,0,120
1,note_on,79,50,0
1,note_on,79,0,120
1,note_on,81,53,0
1,note_on,81,0,120
1,note_on,83,49,0
1,note_on,83,0,120
1,note_on,84,46,0
1,note_on,84,0,120
1,note_on,86,48,0
1,note_on,86,0,120
1,note_on,88,52,0
1,note_on,88,0,120
1,note_on,89,56,0
1,note_on,89,0,120
1,note_on,90,59,0
1,note_on,90,0,120
1,note_on,91,62,0
1,note_on,91,0,120
1,note_on,93,63,0
1,note_on,93,0,120
1,note_on,91,58,0
1,note_on,91,0,120
1,note_on,90,60,0
1,note_on,90,0,120
1,note_on,91,57,0
1,note_on,91,0,120
1,note_on,93,60,0
1,note_on,93,0,120
1,note_on,95,56,0
1,note_on,95,0,120
1,note_on,96,65,0
1,note_on,96,0,120
1,note_on,100,67,0
1,note_on,100,0,120
1,note_on,103,69,0
1,note_on,103,0,120
1,note_on,101,64,0
1,note_on,101,0,120
1,note_on,100,69,0
1,note_on,100,0,120
1,note_on,98,64,0
1,note_on,98,0,120
1,note_on,96,68,0
1,note_on,96,0,120
1,note_on,95,59,0
1,note_on,95,0,120
1,note_on,93,68,0
1,note_on,93,0,120
1,note_on,91,61,0
1,note_on,91,0,120
1,note_on,89,66,0
1,note_on,89,0,120
1,note_on,88,61,0
1,note_on,88,0,120
1,note_on,86,63,0
1,note_on,86,0,120
1,note_on,88,65,0
1,note_on,88,0,120
1,note_on,89,65,0
1,note_on,89,0,120
1,note_on,88,62,0
1,note_on,88,0,120
1,note_on,86,61,0
1,note_on,86,0,120
1,note_on,84,59,0
1,note_on,84,0,120
1,note_on,83,57,0
1,note_on,83,0,120
1,note_on,81,51,0
1,note_on,81,0,120
1,note_on,79,53,0
1,note_on,79,0,120
1,note_on,77,48,0
1,note_on,77,0,120
1,note_on,76,54,0
1,note_on,76,0,120
1,note_on,74,46,0
1,note_on,74,0,120
1,note_on,72,48,0
1,note_on,72,0,120
1,note_on,74,50,0
1,note_on,74,0,120
1,note_on,76,53,0
1,note_on,76,0,120
1,note_on,77,55,0
1,note_on,77,0,120
1,note_on,78,58,0
1,note_on,78,0,120
1,note_on,79,62,0
1,note_on,79,0,120
1,note_on,81,77,0
1,note_on,81,0,120
1,note_on,79,66,0
1,note_on,79,0,120
1,note_on,78,66,0
1,note_on,78,0,120
1,note_on,79,57,0
1,note_on,79,0,120
1,note_on,81,60,0
1,note_on,81,0,120
1,note_on,79,56,0
1,note_on,79,0,90
1,note_on,79,76,30
1,note_on,79,0,120
1,note_on,77,54,0
1,note_on,77,0,120
1,note_on,76,52,0
1,note_on,76,0,120
1,note_on,77,49,0
1,note_on,77,0,120
1,note_on,79,57,0
1,note_on,79,0,120
1,note_on,77,51,0
1,note_on,77,0,90
1,note_on,77,72,30
1,note_on,77,0,120
1,note_on,76,49,0
1,note_on,76,0,120
1,note_on,75,55,0
1,note_on,75,0,120
1,note_on,76,47,0
1,note_on,76,0,120
1,note_on,77,55,0
1,note_on,77,0,120
1,note_on,76,49,0
1,note_on,76,0,90
1,note_on,76,74,30
1,note_on,76,0,120
1,note_on,74,48,0
1,note_on,74,0,120
1,note_on,73,52,0
1,note_on,73,0,120
1,note_on,74,56,0
1,note_on,74,0,120
1,note_on,73,59,0
1,note_on,73,0,120
1,note_on,74,62,0
1,note_on,74,0,90
1,note_on,75,70,30
1,note_on,75,0,120
1,note_on,72,62,0
1,note_on,72,0,120
1,note_on,71,70,0
1,note_on,71,0,120
1,note_on,72,63,0
1,note_on,72,0,120
1,note_on,71,67,0
1,note_on,71,0,120
1,note_on,72,56,0
1,note_on,72,0,120
1,note_on,67,59,0
1,note_on,67,0,120
1,note_on,79,66,0
1,note_on,79,0,120
1,note_on,77,63,0
1,note_on,77,0,120
1,note_on,76,63,0
1,note_on,76,0,120
1,note_on,74,62,0
1,note_on,74,0,120
1,note_on,72,62,0
1,note_on,72,0,120
1,note_on,71,61,0
1,note_on,71,0,120
1,note_on,69,55,0
1,note_on,69,0,120
1,note_on,67,54,0
1,note_on,67,0,120
1,note_on,65,51,0
1,note_on,65,0,120
1,note_on,64,49,0
1,note_on,64,0,120
1,note_on,62,46,0
1,note_on,62,0,120
1,note_on,60,48,0
1,note_on,62,55,120
1,note_on,60,0,24
1,note_on,63,57,96
1,note_on,62,0,24
1,note_on,64,60,96
1,note_on,63,0,24
1,note_on,64,0,96
1,note_on,59,59,240
1,note_on,60,58,120
1,note_on,59,0,24
1,note_on,61,53,96
1,note_on,60,0,24
1,note_on,62,50,96
1,note_on,61,0,24
1,note_on,62,0,96
1,note_on,60,48,240
1,note_on,62,55,120
1,note_on,60,0,24
1,note_on,63,57,96
1,note_on,62,0,24
1,note_on,64,60,96
1,note_on,63,0,24
1,note_on,64,0,96
1,note_on,59,59,240
1,note_on,60,58,120
1,note_on,59,0,24
1,note_on,61,53,96
1,note_on,60,0,24
1,note_on,62,50,96
1,note_on,61,0,24
1,note_on,62,0,96
1,note_on,60,52,240
1,note_on,62,61,120
1,note_on,60,0,24
1,note_on,63,63,96
1,note_on,62,0,24
1,note_on,64,67,96
1,note_on,63,0,24
1,note_on,64,0,96
1,note_on,55,64,240
1,note_on,57,59,120
1,note_on,55,0,24
1,note_on,59,60,96
1,note_on,57,0,24
1,note_on,60,60,96
1,note_on,59,0,24
1,note_on,60,0,96
1,note_on,52,68,240
1,note_on,53,62,120
1,note_on,52,0,24
1,note_on,54,63,96
1,note_on,53,0,24
1,note_on,55,63,96
1,note_on,54,0,24
1,note_on,55,0,96
1,note_on,48,71,240
1,note_on,50,65,120
1,note_on,48,0,24
1,note_on,51,66,96
1,note_on,50,0,24
1,note_on,52,66,96
1,note_on,51,0,24
1,note_on,52,0,96
1,note_on,56,92,240
1,note_on,56,0,180
1,note_on,66,69,540
1,note_on,74,81,0
1,note_on,72,69,0
1,note_on,72,0,180
1,note_on,74,0,0
1,note_on,66,0,0
1,note_on,55,88,540
1,note_on,55,0,180
1,note_on,79,80,540
1,note_on,71,68,0
1,note_on,67,68,0
1,note_on,67,0,180
1,note_on,71,0,0
1,note_on,79,0,0
1,note_on,60,96,540
1,note_on,60,0,180
1,note_on,72,76,540
1,note_on,76,76,0
1,note_on,84,90,0
1,note_on,84,0,180
1,note_on,76,0,0
1,note_on,72,0,0
2,note_on,64,30,0
2,note_on,60,25,0
2,note_on,60,0,120
2,note_on,64,0,0
2,note_on,55,29,120
2,note_on,55,0,120
2,note_on,55,29,120
2,note_on,55,0,120
2,note_on,59,22,120
2,note_on,65,26,0
2,note_on,65,0,120
2,note_on,59,0,0
2,note_on,55,33,120
2,note_on,55,0,120
2,note_on,55,24,120
2,note_on,55,0,120
2,note_on,64,30,120
2,note_on,60,25,0
2,note_on,60,0,120
2,note_on,64,0,0
2,note_on,55,29,120
2,note_on,55,0,120
2,note_on,55,29,120
2,note_on,55,0,120
2,note_on,65,35,120
2,note_on,59,29,0
2,note_on,59,0,120
2,note_on,65,0,0
2,note_on,55,45,120
2,note_on,55,0,120
2,note_on,55,41,120
2,note_on,55,0,120
2,note_on,60,54,120
2,note_on,64,64,0
2,note_on,64,0,120
2,note_on,60,0,0
2,note_on,60,46,120
2,note_on,64,56,0
2,note_on,64,0,120
2,note_on,60,0,0
2,note_on,52,49,360
2,note_on,55,49,0
2,note_on,60,58,0
2,note_on,60,0,120
2,note_on,55,0,0
2,note_on,52,0,0
2,note_on,52,44,120
2,note_on,60,52,0
2,note_on,55,44,0
2,note_on,55,0,120
2,note_on,60,0,0
2,note_on,52,0,0
2,note_on,62,56,360
2,note_on,57,47,0
2,note_on,53,47,0
2,note_on,53,0,120
2,note_on,57,0,0
2,note_on,62,0,0
2,note_on,62,48,120
2,note_on,57,40,0
2,note_on,53,40,0
2,note_on,53,0,120
2,note_on,57,0,0
2,note_on,62,0,0
2,note_on,55,34,360
2,note_on,59,34,0
2,note_on,65,41,0
2,note_on,65,0,120
2,note_on,59,0,0
2,note_on,55,0,0
2,note_on,55,26,120
2,note_on,59,26,0
2,note_on,65,31,0
2,note_on,65,0,120
2,note_on,59,0,0
2,note_on,55,0,0
2,note_on,64,30,360
2,note_on,60,25,0
2,note_on,60,0,120
2,note_on,64,0,0
2,note_on,55,29,120
2,note_on,55,0,120
2,note_on,55,29,120
2,note_on,55,0,120
2,note_on,59,22,120
2,note_on,65,26,0
2,note_on,65,0,120
2,note_on,59,0,0
2,note_on,55,33,120
2,note_on,55,0,120
2,note_on,55,24,120
2,note_on,55,0,120
2,note_on,64,30,120
2,note_on,60,25,0
2,note_on,60,0,120
2,note_on,64,0,0
2,note_on,55,29,120
2,note_on,55,0,120
2,note_on,55,29,120
2,note_on,55,0,120
2,note_on,65,35,120
2,note_on,59,29,0
2,note_on,59,0,120
2,note_on,65,0,0
2,note_on,55,45,120
2,note_on,55,0,120
2,note_on,55,41,120
2,note_on,55,0,120
2,note_on,60,54,120
2,note_on,64,64,0
2,note_on,64,0,120
2,note_on,60,0,0
2,note_on,60,46,120
2,note_on,64,56,0
2,note_on,64,0,120
2,note_on,60,0,0
2,note_on,48,49,360
2,note_on,52,49,0
2,note_on,57,58,0
2,note_on,57,0,120
2,note_on,52,0,0
2,note_on,48,0,0
2,note_on,48,44,120
2,note_on,57,52,0
2,note_on,52,44,0
2,note_on,52,0,120
2,note_on,57,0,0
2,note_on,48,0,0
2,note_on,60,56,360
2,note_on,54,47,0
2,note_on,50,47,0
2,note_on,50,0,120
2,note_on,54,0,0
2,note_on,60,0,0
2,note_on,60,47,120
2,note_on,54,39,0
2,note_on,50,39,0
2,note_on,50,0,120
2,note_on,54,0,0
2,note_on,60,0,0
2,note_on,55,34,360
2,note_on,59,40,0
2,note_on,59,0,120
2,note_on,55,0,0
2,note_on,64,30,600
2,note_on,60,25,0
2,note_on,60,0,120
2,note_on,64,0,0
2,note_on,55,29,120
2,note_on,55,0,120
2,note_on,55,29,120
2,note_on,55,0,120
2,note_on,59,22,120
2,note_on,65,26,0
2,note_on,65,0,120
2,note_on,59,0,0
2,note_on,55,33,120
2,note_on,55,0,120
2,note_on,55,24,120
2,note_on,55,0,120
2,note_on,64,30,120
2,note_on,60,25,0
2,note_on,60,0,120
2,note_on,64,0,0
2,note_on,55,29,120
2,note_on,55,0,120
2,note_on,55,29,120
2,note_on,55,0,120
2,note_on,65,35,120
2,note_on,59,29,0
2,note_on,59,0,120
2,note_on,65,0,0
2,note_on,55,45,120
2,note_on,55,0,120
2,note_on,55,41,120
2,note_on,55,0,120
2,note_on,60,54,120
2,note_on,64,64,0
2,note_on,64,0,120
2,note_on,60,0,0
2,note_on,60,46,120
2,note_on,64,56,0
2,note_on,64,0,120
2,note_on,60,0,0
2,note_on,52,49,360
2,note_on,55,49,0
2,note_on,60,58,0
2,note_on,60,0,120
2,note_on,55,0,0
2,note_on,52,0,0
2,note_on,52,44,120
2,note_on,60,52,0
2,note_on,55,44,0
2,note_on,55,0,120
2,note_on,60,0,0
2,note_on,52,0,0
2,note_on,62,57,360
2,note_on,57,48,0
2,note_on,53,48,0
2,note_on,53,0,120
2,note_on,57,0,0
2,note_on,62,0,0
2,note_on,62,48,120
2,note_on,57,40,0
2,note_on,53,40,0
2,note_on,53,0,120
2,note_on,57,0,0
2,note_on,62,0,0
2,note_on,55,34,360
2,note_on,59,34,0
2,note_on,65,41,0
2,note_on,65,0,120
2,note_on,59,0,0
2,note_on,55,0,0
2,note_on,55,26,120
2,note_on,59,26,0
2,note_on,65,31,0
2,note_on,65,0,120
2,note_on,59,0,0
2,note_on,55,0,0
2,note_on,64,30,360
2,note_on,60,25,0
2,note_on,60,0,120
2,note_on,64,0,0
2,note_on,55,29,120
2,note_on,55,0,120
2,note_on,55,29,120
2,note_on,55,0,120
2,note_on,59,22,120
2,note_on,65,26,0
2,note_on,65,0,120
2,note_on,59,0,0
2,note_on,55,33,120
2,note_on,55,0,120
2,note_on,55,24,120
2,note_on,55,0,120
2,note_on,64,30,120
2,note_on,60,25,0
2,note_on,60,0,120
2,note_on,64,0,0
2,note_on,55,29,120
2,note_on,55,0,120
2,note_on,55,29,120
2,note_on,55,0,120
2,note_on,65,35,120
2,note_on,59,29,0
2,note_on,59,0,120
2,note_on,65,0,0
2,note_on,55,45,120
2,note_on,55,0,120
2,note_on,55,41,120
2,note_on,55,0,120
2,note_on,60,54,120
2,note_on,64,64,0
2,note_on,64,0,120
2,note_on,60,0,0
2,note_on,60,46,120
2,note_on,64,56,0
2,note_on,64,0,120
2,note_on,60,0,0
2,note_on,48,49,360
2,note_on,52,49,0
2,note_on,57,58,0
2,note_on,57,0,120
2,note_on,52,0,0
2,note_on,48,0,0
2,note_on,48,44,120
2,note_on,57,52,0
2,note_on,52,44,0
2,note_on,52,0,120
2,note_on,57,0,0
2,note_on,48,0,0
2,note_on,60,56,360
2,note_on,54,46,0
2,note_on,50,46,0
2,note_on,50,0,120
2,note_on,54,0,0
2,note_on,60,0,0
2,note_on,60,46,120
2,note_on,54,38,0
2,note_on,50,38,0
2,note_on,50,0,120
2,note_on,54,0,0
2,note_on,60,0,0
2,note_on,55,32,360
2,note_on,59,38,0
2,note_on,59,0,120
2,note_on,55,0,0
2,note_on,55,38,120
2,note_on,55,0,120
2,note_on,55,38,120
2,note_on,55,0,120
2,note_on,59,32,120
2,note_on,65,38,0
2,note_on,55,32,0
2,note_on,55,0,120
2,note_on,65,0,0
2,note_on,59,0,0
2,note_on,65,32,120
2,note_on,59,27,0
2,note_on,55,27,0
2,note_on,55,0,120
2,note_on,59,0,0
2,note_on,65,0,0
2,note_on,65,32,120
2,note_on,59,27,0
2,note_on,55,27,0
2,note_on,55,0,120
2,note_on,59,0,0
2,note_on,65,0,0
2,note_on,65,38,120
2,note_on,59,32,0
2,note_on,55,32,0
2,note_on,55,0,120
2,note_on,59,0,0
2,note_on,65,0,0
2,note_on,65,33,120
2,note_on,59,28,0
2,note_on,55,28,0
2,note_on,55,0,120
2,note_on,59,0,0
2,note_on,65,0,0
2,note_on,65,32,120
2,note_on,59,27,0
2,note_on,55,27,0
2,note_on,55,0,120
2,note_on,59,0,0
2,note_on,65,0,0
2,note_on,55,34,120
2,note_on,65,40,0
2,note_on,59,34,0
2,note_on,59,0,120
2,note_on,65,0,0
2,note_on,55,0,0
2,note_on,65,32,120
2,note_on,59,27,0
2,note_on,55,27,0
2,note_on,55,0,120
2,note_on,59,0,0
2,note_on,65,0,0
2,note_on,55,22,120
2,note_on,59,22,0
2,note_on,65,27,0
2,note_on,65,0,120
2,note_on,59,0,0
2,note_on,55,0,0
2,note_on,59,29,120
2,note_on,65,35,0
2,note_on,55,29,0
2,note_on,55,0,120
2,note_on,65,0,0
2,note_on,59,0,0
2,note_on,65,24,120
2,note_on,59,20,0
2,note_on,55,20,0
2,note_on,55,0,120
2,note_on,59,0,0
2,note_on,65,0,0
2,note_on,65,22,120
2,note_on,59,18,0
2,note_on,55,18,0
2,note_on,55,0,120
2,note_on,59,0,0
2,note_on,65,0,0
2,note_on,60,40,120
2,note_on,64,47,0
2,note_on,64,0,120
2,note_on,60,0,0
2,note_on,64,40,120
2,note_on,60,33,0
2,note_on,60,0,120
2,note_on,64,0,0
2,note_on,64,40,120
2,note_on,60,33,0
2,note_on,60,0,120
2,note_on,64,0,0
2,note_on,64,47,120
2,note_on,60,40,0
2,note_on,60,0,120
2,note_on,64,0,0
2,note_on,64,41,120
2,note_on,60,35,0
2,note_on,60,0,120
2,note_on,64,0,0
2,note_on,64,40,120
2,note_on,60,33,0
2,note_on,60,0,120
2,note_on,64,0,0
2,note_on,60,50,120
2,note_on,64,60,0
2,note_on,64,0,120
2,note_on,60,0,0
2,note_on,64,56,120
2,note_on,60,47,0
2,note_on,60,0,120
2,note_on,64,0,0
2,note_on,60,43,120
2,note_on,64,52,0
2,note_on,64,0,120
2,note_on,60,0,0
2,note_on,64,60,120
2,note_on,60,50,0
2,note_on,60,0,120
2,note_on,64,0,0
2,note_on,60,45,120
2,note_on,64,53,0
2,note_on,64,0,120
2,note_on,60,0,0
2,note_on,60,45,120
2,note_on,64,53,0
2,note_on,64,0,120
2,note_on,60,0,0
2,note_on,59,32,120
2,note_on,65,38,0
2,note_on,55,32,0
2,note_on,55,0,120
2,note_on,65,0,0
2,note_on,59,0,0
2,note_on,65,32,120
2,note_on,59,27,0
2,note_on,55,27,0
2,note_on,55,0,120
2,note_on,59,0,0
2,note_on,65,0,0
2,note_on,65,32,120
2,note_on,59,27,0
2,note_on,55,27,0
2,note_on,55,0,120
2,note_on,59,0,0
2,note_on,65,0,0
2,note_on,65,38,120
2,note_on,59,32,0
2,note_on,55,32,0
2,note_on,55,0,120
2,note_on,59,0,0
2,note_on,65,0,0
2,note_on,65,33,120
2,note_on,59,28,0
2,note_on,55,28,0
2,note_on,55,0,120
2,note_on,59,0,0
2,note_on,65,0,0
2,note_on,65,32,120
2,note_on,59,27,0
2,note_on,55,27,0
2,note_on,55,0,120
2,note_on,59,0,0
2,note_on,65,0,0
2,note_on,55,34,120
2,note_on,65,40,0
2,note_on,59,34,0
2,note_on,59,0,120
2,note_on,65,0,0
2,note_on,55,0,0
2,note_on,65,32,120
2,note_on,59,27,0
2,note_on,55,27,0
2,note_on,55,0,120
2,note_on,59,0,0
2,note_on,65,0,0
2,note_on,55,22,120
2,note_on,59,22,0
2,note_on,65,27,0
2,note_on,65,0,120
2,note_on,59,0,0
2,note_on,55,0,0
2,note_on,59,29,120
2,note_on,65,35,0
2,note_on,55,29,0
2,note_on,55,0,120
2,note_on,65,0,0
2,note_on,59,0,0
2,note_on,65,24,120
2,note_on,59,20,0
2,note_on,55,20,0
2,note_on,55,0,120
2,note_on,59,0,0
2,note_on,65,0,0
2,note_on,65,22,120
2,note_on,59,18,0
2,note_on,55,18,0
2,note_on,55,0,120
2,note_on,59,0,0
2,note_on,65,0,0
2,note_on,60,40,120
2,note_on,63,47,0
2,note_on,63,0,120
2,note_on,60,0,0
2,note_on,63,40,120
2,note_on,60,33,0
2,note_on,60,0,120
2,note_on,63,0,0
2,note_on,63,40,120
2,note_on,60,33,0
2,note_on,60,0,120
2,note_on,63,0,0
2,note_on,63,47,120
2,note_on,60,40,0
2,note_on,60,0,120
2,note_on,63,0,0
2,note_on,63,41,120
2,note_on,60,35,0
2,note_on,60,0,120
2,note_on,63,0,0
2,note_on,63,40,120
2,note_on,60,33,0
2,note_on,60,0,120
2,note_on,63,0,0
2,note_on,60,50,120
2,note_on,63,60,0
2,note_on,63,0,120
2,note_on,60,0,0
2,note_on,63,56,120
2,note_on,60,47,0
2,note_on,60,0,120
2,note_on,63,0,0
2,note_on,60,43,120
2,note_on,63,52,0
2,note_on,63,0,120
2,note_on,60,0,0
2,note_on,63,60,120
2,note_on,60,50,0
2,note_on,60,0,120
2,note_on,63,0,0
2,note_on,60,38,120
2,note_on,63,45,0
2,note_on,63,0,120
2,note_on,60,0,0
2,note_on,60,38,120
2,note_on,63,45,0
2,note_on,63,0,120
2,note_on,60,0,0
2,note_on,60,27,120
2,note_on,63,32,0
2,note_on,56,27,0
2,note_on,56,0,120
2,note_on,63,0,0
2,note_on,60,0,0
2,note_on,63,27,120
2,note_on,60,22,0
2,note_on,56,22,0
2,note_on,56,0,120
2,note_on,60,0,0
2,note_on,63,0,0
2,note_on,63,27,120
2,note_on,60,22,0
2,note_on,56,22,0
2,note_on,56,0,120
2,note_on,60,0,0
2,note_on,63,0,0
2,note_on,55,37,120
2,note_on,58,37,0
2,note_on,63,44,0
2,note_on,63,0,120
2,note_on,58,0,0
2,note_on,55,0,0
2,note_on,55,39,120
2,note_on,58,39,0
2,note_on,63,46,0
2,note_on,63,0,120
2,note_on,58,0,0
2,note_on,55,0,0
2,note_on,63,32,120
2,note_on,58,27,0
2,note_on,55,27,0
2,note_on,55,0,120
2,note_on,58,0,0
2,note_on,63,0,0
2,note_on,60,27,120
2,note_on,63,32,0
2,note_on,56,27,0
2,note_on,56,0,120
2,note_on,63,0,0
2,note_on,60,0,0
2,note_on,63,27,120
2,note_on,60,22,0
2,note_on,56,22,0
2,note_on,56,0,120
2,note_on,60,0,0
2,note_on,63,0,0
2,note_on,63,27,120
2,note_on,60,22,0
2,note_on,56,22,0
2,note_on,56,0,120
2,note_on,60,0,0
2,note_on,63,0,0
2,note_on,55,37,120
2,note_on,58,37,0
2,note_on,63,44,0
2,note_on,63,0,120
2,note_on,58,0,0
2,note_on,55,0,0
2,note_on,55,39,120
2,note_on,58,39,0
2,note_on,63,46,0
2,note_on,63,0,120
2,note_on,58,0,0
2,note_on,55,0,0
2,note_on,63,32,120
2,note_on,58,27,0
2,note_on,55,27,0
2,note_on,55,0,120
2,note_on,58,0,0
2,note_on,63,0,0
2,note_on,60,28,120
2,note_on,63,34,0
2,note_on,56,28,0
2,note_on,56,0,120
2,note_on,63,0,0
2,note_on,60,0,0
2,note_on,63,28,120
2,note_on,60,24,0
2,note_on,56,24,0
2,note_on,56,0,120
2,note_on,60,0,0
2,note_on,63,0,0
2,note_on,63,28,120
2,note_on,60,24,0
2,note_on,56,24,0
2,note_on,56,0,120
2,note_on,60,0,0
2,note_on,63,0,0
2,note_on,60,33,120
2,note_on,64,39,0
2,note_on,56,33,0
2,note_on,56,0,120
2,note_on,64,0,0
2,note_on,60,0,0
2,note_on,64,33,120
2,note_on,60,28,0
2,note_on,56,28,0
2,note_on,56,0,120
2,note_on,60,0,0
2,note_on,64,0,0
2,note_on,64,34,120
2,note_on,60,29,0
2,note_on,56,29,0
2,note_on,56,0,120
2,note_on,60,0,0
2,note_on,64,0,0
2,note_on,60,39,120
2,note_on,65,47,0
2,note_on,56,39,0
2,note_on,56,0,120
2,note_on,65,0,0
2,note_on,60,0,0
2,note_on,65,39,120
2,note_on,60,34,0
2,note_on,56,34,0
2,note_on,56,0,120
2,note_on,60,0,0
2,note_on,65,0,0
2,note_on,65,40,120
2,note_on,60,35,0
2,note_on,56,35,0
2,note_on,56,0,120
2,note_on,60,0,0
2,note_on,65,0,0
2,note_on,60,46,120
2,note_on,63,55,0
2,note_on,56,46,0
2,note_on,56,0,120
2,note_on,63,0,0
2,note_on,60,0,0
2,note_on,63,47,120
2,note_on,60,40,0
2,note_on,56,40,0
2,note_on,56,0,120
2,note_on,60,0,0
2,note_on,63,0,0
2,note_on,63,48,120
2,note_on,60,41,0
2,note_on,56,41,0
2,note_on,56,0,120
2,note_on,60,0,0
2,note_on,63,0,0
2,note_on,64,78,120
2,note_on,60,66,0
2,note_on,55,66,0
2,note_on,55,0,1440
2,note_on,60,0,0
2,note_on,64,0,0
2,note_on,55,58,0
2,note_on,57,46,120
2,note_on,55,0,24
2,note_on,59,44,96
2,note_on,57,0,24
2,note_on,60,44,96
2,note_on,59,0,24
2,note_on,60,0,66
2,note_on,52,53,30
2,note_on,53,45,120
2,note_on,52,0,24
2,note_on,54,44,96
2,note_on,53,0,24
2,note_on,55,44,96
2,note_on,54,0,24
2,note_on,55,0,66
2,note_on,48,52,30
2,note_on,50,45,120
2,note_on,48,0,24
2,note_on,51,43,96
2,note_on,50,0,24
2,note_on,52,43,96
2,note_on,51,0,24
2,note_on,52,0,66
2,note_on,43,43,30
2,note_on,43,0,120
2,note_on,43,37,120
2,note_on,43,0,120
2,note_on,43,37,120
2,note_on,43,0,120
2,note_on,43,30,360
2,note_on,55,36,0
2,note_on,55,0,120
2,note_on,43,0,0
2,note_on,43,30,120
2,note_on,55,36,0
2,note_on,55,0,120
2,note_on,43,0,0
2,note_on,55,34,360
2,note_on,43,28,0
2,note_on,43,0,120
2,note_on,55,0,0
2,note_on,55,34,120
2,note_on,43,28,0
2,note_on,43,0,120
2,note_on,55,0,0
2,note_on,55,32,360
2,note_on,43,27,0
2,note_on,43,0,120
2,note_on,55,0,0
2,note_on,55,32,120
2,note_on,43,27,0
2,note_on,43,0,120
2,note_on,55,0,0
2,note_on,64,30,120
2,note_on,60,25,0
2,note_on,60,0,120
2,note_on,64,0,0
2,note_on,55,29,120
2,note_on,55,0,120
2,note_on,55,29,120
2,note_on,55,0,120
2,note_on,59,22,120
2,note_on,65,26,0
2,note_on,65,0,120
2,note_on,59,0,0
2,note_on,55,33,120
2,note_on,55,0,120
2,note_on,55,24,120
2,note_on,55,0,120
2,note_on,64,30,120
2,note_on,60,25,0
2,note_on,60,0,120
2,note_on,64,0,0
2,note_on,55,29,120
2,note_on,55,0,120
2,note_on,55,29,120
2,note_on,55,0,120
2,note_on,65,35,120
2,note_on,59,29,0
2,note_on,59,0,120
2,note_on,65,0,0
2,note_on,55,45,120
2,note_on,55,0,120
2,note_on,55,41,120
2,note_on,55,0,120
2,note_on,60,54,120
2,note_on,64,64,0
2,note_on,64,0,120
2,note_on,60,0,0
2,note_on,60,46,120
2,note_on,64,56,0
2,note_on,64,0,120
2,note_on,60,0,0
2,note_on,52,49,360
2,note_on,55,49,0
2,note_on,60,58,0
2,note_on,60,0,120
2,note_on,55,0,0
2,note_on,52,0,0
2,note_on,52,44,120
2,note_on,60,52,0
2,note_on,55,44,0
2,note_on,55,0,120
2,note_on,60,0,0
2,note_on,52,0,0
2,note_on,62,57,360
2,note_on,57,47,0
2,note_on,53,47,0
2,note_on,53,0,120
2,note_on,57,0,0
2,note_on,62,0,0
2,note_on,62,48,120
2,note_on,57,40,0
2,note_on,53,40,0
2,note_on,53,0,120
2,note_on,57,0,0
2,note_on,62,0,0
2,note_on,55,34,360
2,note_on,59,34,0
2,note_on,65,41,0
2,note_on,65,0,120
2,note_on,59,0,0
2,note_on,55,0,0
2,note_on,55,26,120
2,note_on,59,26,0
2,note_on,65,31,0
2,note_on,65,0,120
2,note_on,59,0,0
2,note_on,55,0,0
2,note_on,64,44,360
2,note_on,60,37,0
2,note_on,60,0,120
2,note_on,64,0,0
2,note_on,55,35,120
2,note_on,55,0,120
2,note_on,55,39,120
2,note_on,55,0,120
2,note_on,58,70,120
2,note_on,64,48,240
2,note_on,60,48,0
2,note_on,60,0,120
2,note_on,64,0,0
2,note_on,64,48,120
2,note_on,60,48,0
2,note_on,60,0,120
2,note_on,64,0,0
2,note_on,58,0,120
2,note_on,57,71,0
2,note_on,65,47,240
2,note_on,60,39,0
2,note_on,60,0,216
2,note_on,65,0,0
2,note_on,65,47,24
2,note_on,60,39,0
2,note_on,60,0,216
2,note_on,65,0,0
2,note_on,57,0,24
2,note_on,55,75,0
2,note_on,64,49,240
2,note_on,60,41,0
2,note_on,60,0,216
2,note_on,64,0,0
2,note_on,60,41,24
2,note_on,64,49,0
2,note_on,64,0,216
2,note_on,60,0,0
2,note_on,55,0,24
2,note_on,53,76,0
2,note_on,57,41,240
2,note_on,62,49,0
2,note_on,62,0,216
2,note_on,57,0,0
2,note_on,62,50,24
2,note_on,57,42,0
2,note_on,57,0,216
2,note_on,62,0,0
2,note_on,53,0,24
2,note_on,54,80,0
2,note_on,63,50,240
2,note_on,57,42,0
2,note_on,57,0,216
2,note_on,63,0,0
2,note_on,63,52,24
2,note_on,57,44,0
2,note_on,57,0,216
2,note_on,63,0,0
2,note_on,54,0,24
2,note_on,64,73,0
2,note_on,60,62,0
2,note_on,55,62,0
2,note_on,55,0,120
2,note_on,60,0,0
2,note_on,64,0,0
2,note_on,55,35,600
2,note_on,62,35,0
2,note_on,65,42,0
2,note_on,65,0,120
2,note_on,62,0,0
2,note_on,55,0,0
2,note_on,48,56,600
2,note_on,52,66,0
2,note_on,52,0,480
2,note_on,48,0,0
2,note_on,55,66,0
2,note_on,55,0,240
2,note_on,48,53,0
2,note_on,53,63,0
2,note_on,53,0,480
2,note_on,48,0,0
2,note_on,55,70,0
2,note_on,55,0,240
2,note_on,48,56,0
2,note_on,52,66,0
2,note_on,52,0,480
2,note_on,48,0,0
2,note_on,55,66,0
2,note_on,55,0,240
2,note_on,48,53,0
2,note_on,53,63,0
2,note_on,53,0,480
2,note_on,48,0,0
2,note_on,55,70,0
2,note_on,55,0,240
2,note_on,48,61,0
2,note_on,52,72,0
2,note_on,52,0,480
2,note_on,48,0,0
2,note_on,55,74,0
2,note_on,55,0,240
2,note_on,52,73,480
2,note_on,52,0,120
2,note_on,48,78,600
2,note_on,48,0,120
2,note_on,43,84,600
2,note_on,43,0,120
2,note_on,44,79,120
2,note_on,44,0,180
2,note_on,56,65,540
2,note_on,60,65,0
2,note_on,62,78,0
2,note_on,62,0,180
2,note_on,60,0,0
2,note_on,56,0,0
2,note_on,43,77,540
2,note_on,43,0,180
2,note_on,55,56,540
2,note_on,62,56,0
2,note_on,65,67,0
2,note_on,65,0,180
2,note_on,62,0,0
2,note_on,55,0,0
2,note_on,48,80,540
2,note_on,36,80,0
2,note_on,36,0,180
2,note_on,48,0,0
2,note_on,60,60,540
2,note_on,64,60,0
2,note_on,67,71,0
2,note_on,67,0,180
2,note_on,64,0,0
2,note_on,60,0,0
