Track,Message Type,Note,Velocity,Time
1,note_on,76,42,0
1,note_on,76,0,120
1,note_on,77,39,0
1,note_on,79,39,60
1,note_on,77,0,10
1,note_on,81,40,50
1,note_on,79,0,10
1,note_on,83,40,50
1,note_on,81,0,10
1,note_on,84,41,50
1,note_on,83,0,10
1,note_on,86,42,50
1,note_on,84,0,10
1,note_on,88,49,50
1,note_on,86,0,10
1,note_on,88,0,20
1,note_on,88,42,30
1,note_on,89,42,60
1,note_on,88,0,10
1,note_on,91,44,50
1,note_on,89,0,10
1,note_on,93,45,50
1,note_on,91,0,10
1,note_on,95,46,50
1,note_on,93,0,10
1,note_on,96,48,50
1,note_on,95,0,10
1,note_on,98,49,50
1,note_on,96,0,10
1,note_on,100,51,50
1,note_on,98,0,10
1,note_on,100,0,60
1,note_on,76,42,170
1,note_on,76,0,240
1,note_on,79,42,0
1,note_on,79,0,120
1,note_on,81,39,0
1,note_on,83,39,60
1,note_on,81,0,10
1,note_on,84,40,50
1,note_on,83,0,10
1,note_on,86,40,50
1,note_on,84,0,10
1,note_on,88,41,50
1,note_on,86,0,10
1,note_on,89,42,50
1,note_on,88,0,10
1,note_on,91,49,50
1,note_on,89,0,10
1,note_on,91,0,20
1,note_on,91,41,30
1,note_on,93,42,60
1,note_on,91,0,10
1,note_on,95,42,50
1,note_on,93,0,10
1,note_on,96,44,50
1,note_on,95,0,10
1,note_on,98,45,50
1,note_on,96,0,10
1,note_on,100,48,50
1,note_on,98,0,10
1,note_on,101,49,50
1,note_on,100,0,10
1,note_on,103,51,50
1,note_on,101,0,10
1,note_on,103,0,60
1,note_on,72,42,170
1,note_on,72,0,240
1,note_on,74,42,0
1,note_on,74,0,120
1,note_on,76,39,0
1,note_on,77,39,60
1,note_on,76,0,10
1,note_on,79,40,50
1,note_on,77,0,10
1,note_on,81,40,50
1,note_on,79,0,10
1,note_on,83,41,50
1,note_on,81,0,10
1,note_on,84,42,50
1,note_on,83,0,10
1,note_on,86,49,50
1,note_on,84,0,10
1,note_on,86,0,20
1,note_on,86,42,30
1,note_on,88,44,60
1,note_on,86,0,10
1,note_on,89,45,50
1,note_on,88,0,10
1,note_on,91,46,50
1,note_on,89,0,10
1,note_on,93,48,50
1,note_on,91,0,10
1,note_on,95,49,50
1,note_on,93,0,10
1,note_on,96,50,50
1,note_on,95,0,10
1,note_on,98,51,50
1,note_on,96,0,10
1,note_on,98,0,60
1,note_on,76,42,170
1,note_on,76,0,240
1,note_on,72,42,0
1,note_on,72,0,120
1,note_on,74,39,0
1,note_on,76,39,60
1,note_on,74,0,10
1,note_on,77,40,50
1,note_on,76,0,10
1,note_on,79,40,50
1,note_on,77,0,10
1,note_on,81,41,50
1,note_on,79,0,10
1,note_on,83,42,50
1,note_on,81,0,10
1,note_on,84,45,50
1,note_on,83,0,10
1,note_on,84,0,20
1,note_on,84,39,30
1,note_on,86,40,60
1,note_on,84,0,10
1,note_on,88,40,50
1,note_on,86,0,10
1,note_on,89,41,50
1,note_on,88,0,10
1,note_on,91,42,50
1,note_on,89,0,10
1,note_on,93,42,50
1,note_on,91,0,10
1,note_on,95,44,50
1,note_on,93,0,10
1,note_on,96,46,50
1,note_on,95,0,10
1,note_on,96,0,60
1,note_on,72,59,170
1,note_on,72,0,240
1,note_on,69,60,0
1,note_on,69,0,120
1,note_on,71,56,0
1,note_on,72,56,60
1,note_on,71,0,10
1,note_on,74,58,50
1,note_on,72,0,10
1,note_on,76,58,50
1,note_on,74,0,10
1,note_on,77,59,50
1,note_on,76,0,10
1,note_on,79,61,50
1,note_on,77,0,10
1,note_on,81,64,50
1,note_on,79,0,10
1,note_on,81,0,20
1,note_on,81,56,30
1,note_on,83,58,60
1,note_on,81,0,10
1,note_on,84,58,50
1,note_on,83,0,10
1,note_on,86,59,50
1,note_on,84,0,10
1,note_on,88,60,50
1,note_on,86,0,10
1,note_on,89,61,50
1,note_on,88,0,10
1,note_on,91,62,50
1,note_on,89,0,10
1,note_on,93,67,50
1,note_on,91,0,10
1,note_on,93,0,60
1,note_on,72,56,170
1,note_on,72,0,240
1,note_on,67,55,0
1,note_on,67,0,120
1,note_on,69,49,0
1,note_on,71,49,60
1,note_on,69,0,10
1,note_on,72,50,50
1,note_on,71,0,10
1,note_on,74,50,50
1,note_on,72,0,10
1,note_on,76,51,50
1,note_on,74,0,10
1,note_on,77,55,50
1,note_on,76,0,10
1,note_on,79,58,50
1,note_on,77,0,10
1,note_on,79,0,20
1,note_on,79,49,30
1,note_on,81,50,60
1,note_on,79,0,10
1,note_on,83,50,50
1,note_on,81,0,10
1,note_on,84,51,50
1,note_on,83,0,10
1,note_on,86,55,50
1,note_on,84,0,10
1,note_on,88,55,50
1,note_on,86,0,10
1,note_on,89,56,50
1,note_on,88,0,10
1,note_on,91,59,50
1,note_on,89,0,10
1,note_on,91,0,60
1,note_on,72,50,170
1,note_on,72,0,240
1,note_on,74,50,0
1,note_on,74,0,120
1,note_on,76,46,0
1,note_on,77,46,60
1,note_on,76,0,10
1,note_on,79,47,50
1,note_on,77,0,10
1,note_on,81,47,50
1,note_on,79,0,10
1,note_on,83,49,50
1,note_on,81,0,10
1,note_on,84,51,50
1,note_on,83,0,10
1,note_on,86,59,50
1,note_on,84,0,10
1,note_on,86,0,20
1,note_on,86,51,30
1,note_on,88,53,60
1,note_on,86,0,10
1,note_on,89,55,50
1,note_on,88,0,10
1,note_on,91,56,50
1,note_on,89,0,10
1,note_on,93,58,50
1,note_on,91,0,10
1,note_on,95,59,50
1,note_on,93,0,10
1,note_on,96,59,50
1,note_on,95,0,10
1,note_on,98,60,50
1,note_on,96,0,10
1,note_on,98,0,60
1,note_on,76,49,170
1,note_on,76,0,240
1,note_on,72,49,0
1,note_on,72,0,120
1,note_on,74,45,0
1,note_on,76,45,60
1,note_on,74,0,10
1,note_on,77,46,50
1,note_on,76,0,10
1,note_on,79,46,50
1,note_on,77,0,10
1,note_on,81,47,50
1,note_on,79,0,10
1,note_on,83,49,50
1,note_on,81,0,10
1,note_on,84,51,50
1,note_on,83,0,10
1,note_on,84,0,20
1,note_on,84,45,30
1,note_on,86,46,60
1,note_on,84,0,10
1,note_on,88,46,50
1,note_on,86,0,10
1,note_on,89,47,50
1,note_on,88,0,10
1,note_on,91,49,50
1,note_on,89,0,10
1,note_on,93,49,50
1,note_on,91,0,10
1,note_on,95,50,50
1,note_on,93,0,10
1,note_on,96,53,50
1,note_on,95,0,10
1,note_on,96,0,60
1,note_on,76,42,410
1,note_on,76,0,120
1,note_on,77,39,0
1,note_on,79,39,60
1,note_on,77,0,10
1,note_on,81,40,50
1,note_on,79,0,10
1,note_on,83,40,50
1,note_on,81,0,10
1,note_on,84,41,50
1,note_on,83,0,10
1,note_on,86,42,50
1,note_on,84,0,10
1,note_on,88,49,50
1,note_on,86,0,10
1,note_on,88,0,20
1,note_on,88,42,30
1,note_on,89,42,60
1,note_on,88,0,10
1,note_on,91,44,50
1,note_on,89,0,10
1,note_on,93,45,50
1,note_on,91,0,10
1,note_on,95,46,50
1,note_on,93,0,10
1,note_on,96,48,50
1,note_on,95,0,10
1,note_on,98,49,50
1,note_on,96,0,10
1,note_on,100,51,50
1,note_on,98,0,10
1,note_on,100,0,60
1,note_on,76,42,170
1,note_on,76,0,240
1,note_on,79,42,0
1,note_on,79,0,120
1,note_on,81,39,0
1,note_on,83,39,60
1,note_on,81,0,10
1,note_on,84,40,50
1,note_on,83,0,10
1,note_on,86,40,50
1,note_on,84,0,10
1,note_on,88,41,50
1,note_on,86,0,10
1,note_on,89,42,50
1,note_on,88,0,10
1,note_on,91,49,50
1,note_on,89,0,10
1,note_on,91,0,20
1,note_on,91,41,30
1,note_on,93,42,60
1,note_on,91,0,10
1,note_on,95,42,50
1,note_on,93,0,10
1,note_on,96,44,50
1,note_on,95,0,10
1,note_on,98,45,50
1,note_on,96,0,10
1,note_on,100,48,50
1,note_on,98,0,10
1,note_on,101,49,50
1,note_on,100,0,10
1,note_on,103,51,50
1,note_on,101,0,10
1,note_on,103,0,60
1,note_on,72,42,170
1,note_on,72,0,240
1,note_on,74,42,0
1,note_on,74,0,120
1,note_on,76,39,0
1,note_on,77,39,60
1,note_on,76,0,10
1,note_on,79,40,50
1,note_on,77,0,10
1,note_on,81,40,50
1,note_on,79,0,10
1,note_on,83,41,50
1,note_on,81,0,10
1,note_on,84,42,50
1,note_on,83,0,10
1,note_on,86,49,50
1,note_on,84,0,10
1,note_on,86,0,20
1,note_on,86,42,30
1,note_on,88,44,60
1,note_on,86,0,10
1,note_on,89,45,50
1,note_on,88,0,10
1,note_on,91,46,50
1,note_on,89,0,10
1,note_on,93,48,50
1,note_on,91,0,10
1,note_on,95,49,50
1,note_on,93,0,10
1,note_on,96,50,50
1,note_on,95,0,10
1,note_on,98,51,50
1,note_on,96,0,10
1,note_on,98,0,60
1,note_on,76,42,170
1,note_on,76,0,240
1,note_on,72,42,0
1,note_on,72,0,120
1,note_on,74,39,0
1,note_on,76,39,60
1,note_on,74,0,10
1,note_on,77,40,50
1,note_on,76,0,10
1,note_on,79,40,50
1,note_on,77,0,10
1,note_on,81,41,50
1,note_on,79,0,10
1,note_on,83,42,50
1,note_on,81,0,10
1,note_on,84,45,50
1,note_on,83,0,10
1,note_on,84,0,20
1,note_on,84,39,30
1,note_on,86,40,60
1,note_on,84,0,10
1,note_on,88,40,50
1,note_on,86,0,10
1,note_on,89,41,50
1,note_on,88,0,10
1,note_on,91,42,50
1,note_on,89,0,10
1,note_on,93,42,50
1,note_on,91,0,10
1,note_on,95,44,50
1,note_on,93,0,10
1,note_on,96,46,50
1,note_on,95,0,10
1,note_on,96,0,60
1,note_on,72,61,170
1,note_on,72,0,240
1,note_on,69,60,0
1,note_on,69,0,120
1,note_on,71,56,0
1,note_on,72,56,60
1,note_on,71,0,10
1,note_on,74,58,50
1,note_on,72,0,10
1,note_on,76,58,50
1,note_on,74,0,10
1,note_on,77,59,50
1,note_on,76,0,10
1,note_on,79,61,50
1,note_on,77,0,10
1,note_on,81,64,50
1,note_on,79,0,10
1,note_on,81,0,20
1,note_on,81,56,30
1,note_on,83,58,60
1,note_on,81,0,10
1,note_on,84,58,50
1,note_on,83,0,10
1,note_on,86,59,50
1,note_on,84,0,10
1,note_on,88,60,50
1,note_on,86,0,10
1,note_on,89,61,50
1,note_on,88,0,10
1,note_on,91,62,50
1,note_on,89,0,10
1,note_on,93,67,50
1,note_on,91,0,10
1,note_on,93,0,60
1,note_on,72,58,170
1,note_on,72,0,240
1,note_on,67,55,0
1,note_on,67,0,120
1,note_on,69,49,0
1,note_on,71,49,60
1,note_on,69,0,10
1,note_on,72,50,50
1,note_on,71,0,10
1,note_on,74,50,50
1,note_on,72,0,10
1,note_on,76,51,50
1,note_on,74,0,10
1,note_on,77,55,50
1,note_on,76,0,10
1,note_on,79,58,50
1,note_on,77,0,10
1,note_on,79,0,20
1,note_on,79,49,30
1,note_on,81,50,60
1,note_on,79,0,10
1,note_on,83,50,50
1,note_on,81,0,10
1,note_on,84,51,50
1,note_on,83,0,10
1,note_on,86,55,50
1,note_on,84,0,10
1,note_on,88,55,50
1,note_on,86,0,10
1,note_on,89,56,50
1,note_on,88,0,10
1,note_on,91,59,50
1,note_on,89,0,10
1,note_on,91,0,60
1,note_on,72,50,170
1,note_on,72,0,240
1,note_on,74,50,0
1,note_on,74,0,120
1,note_on,76,46,0
1,note_on,77,46,60
1,note_on,76,0,10
1,note_on,79,47,50
1,note_on,77,0,10
1,note_on,81,47,50
1,note_on,79,0,10
1,note_on,83,49,50
1,note_on,81,0,10
1,note_on,84,51,50
1,note_on,83,0,10
1,note_on,86,59,50
1,note_on,84,0,10
1,note_on,86,0,20
1,note_on,86,51,30
1,note_on,88,53,60
1,note_on,86,0,10
1,note_on,89,55,50
1,note_on,88,0,10
1,note_on,91,56,50
1,note_on,89,0,10
1,note_on,93,58,50
1,note_on,91,0,10
1,note_on,95,59,50
1,note_on,93,0,10
1,note_on,96,59,50
1,note_on,95,0,10
1,note_on,98,60,50
1,note_on,96,0,10
1,note_on,98,0,60
1,note_on,76,49,170
1,note_on,76,0,240
1,note_on,72,49,0
1,note_on,72,0,120
1,note_on,74,45,0
1,note_on,76,45,60
1,note_on,74,0,10
1,note_on,77,46,50
1,note_on,76,0,10
1,note_on,79,46,50
1,note_on,77,0,10
1,note_on,81,47,50
1,note_on,79,0,10
1,note_on,83,49,50
1,note_on,81,0,10
1,note_on,84,51,50
1,note_on,83,0,10
1,note_on,84,0,20
1,note_on,84,45,30
1,note_on,86,46,60
1,note_on,84,0,10
1,note_on,88,46,50
1,note_on,86,0,10
1,note_on,89,47,50
1,note_on,88,0,10
1,note_on,91,49,50
1,note_on,89,0,10
1,note_on,93,49,50
1,note_on,91,0,10
1,note_on,95,50,50
1,note_on,93,0,10
1,note_on,96,53,50
1,note_on,95,0,10
1,note_on,96,0,60
1,note_on,74,58,350
1,note_on,74,0,60
1,note_on,86,69,0
1,note_on,86,0,120
1,note_on,84,64,0
1,note_on,83,64,60
1,note_on,84,0,10
1,note_on,81,64,50
1,note_on,83,0,10
1,note_on,79,64,50
1,note_on,81,0,10
1,note_on,78,64,50
1,note_on,79,0,10
1,note_on,76,64,50
1,note_on,78,0,10
1,note_on,74,69,50
1,note_on,76,0,10
1,note_on,74,0,20
1,note_on,74,61,30
1,note_on,72,61,60
1,note_on,74,0,10
1,note_on,71,60,50
1,note_on,72,0,10
1,note_on,69,60,50
1,note_on,71,0,10
1,note_on,67,59,50
1,note_on,69,0,10
1,note_on,66,59,50
1,note_on,67,0,10
1,note_on,64,59,50
1,note_on,66,0,10
1,note_on,62,59,50
1,note_on,64,0,10
1,note_on,62,0,60
1,note_on,83,61,170
1,note_on,83,0,240
1,note_on,91,69,0
1,note_on,91,0,120
1,note_on,90,64,0
1,note_on,88,64,60
1,note_on,90,0,10
1,note_on,86,64,50
1,note_on,88,0,10
1,note_on,84,64,50
1,note_on,86,0,10
1,note_on,83,64,50
1,note_on,84,0,10
1,note_on,81,64,50
1,note_on,83,0,10
1,note_on,79,69,50
1,note_on,81,0,10
1,note_on,79,0,20
1,note_on,79,61,30
1,note_on,78,61,60
1,note_on,79,0,10
1,note_on,76,60,50
1,note_on,78,0,10
1,note_on,74,60,50
1,note_on,76,0,10
1,note_on,72,59,50
1,note_on,74,0,10
1,note_on,71,59,50
1,note_on,72,0,10
1,note_on,69,59,50
1,note_on,71,0,10
1,note_on,67,59,50
1,note_on,69,0,10
1,note_on,67,0,60
1,note_on,83,69,170
1,note_on,83,0,180
1,note_on,74,67,0
1,note_on,74,0,60
1,note_on,86,79,0
1,note_on,86,0,120
1,note_on,84,69,0
1,note_on,83,69,60
1,note_on,84,0,10
1,note_on,81,68,50
1,note_on,83,0,10
1,note_on,79,68,50
1,note_on,81,0,10
1,note_on,78,68,50
1,note_on,79,0,10
1,note_on,76,64,50
1,note_on,78,0,10
1,note_on,74,69,50
1,note_on,76,0,10
1,note_on,74,0,20
1,note_on,74,61,30
1,note_on,72,61,60
1,note_on,74,0,10
1,note_on,71,60,50
1,note_on,72,0,10
1,note_on,69,60,50
1,note_on,71,0,10
1,note_on,67,59,50
1,note_on,69,0,10
1,note_on,66,59,50
1,note_on,67,0,10
1,note_on,64,59,50
1,note_on,66,0,10
1,note_on,62,59,50
1,note_on,64,0,10
1,note_on,62,0,60
1,note_on,81,67,170
1,note_on,81,0,240
1,note_on,83,74,0
1,note_on,83,0,120
1,note_on,84,64,0
1,note_on,86,64,60
1,note_on,84,0,10
1,note_on,88,62,50
1,note_on,86,0,10
1,note_on,90,62,50
1,note_on,88,0,10
1,note_on,91,61,50
1,note_on,90,0,10
1,note_on,93,58,50
1,note_on,91,0,10
1,note_on,95,69,50
1,note_on,93,0,10
1,note_on,95,0,20
1,note_on,79,61,30
1,note_on,81,61,60
1,note_on,79,0,10
1,note_on,83,60,50
1,note_on,81,0,10
1,note_on,84,58,50
1,note_on,83,0,10
1,note_on,86,56,50
1,note_on,84,0,10
1,note_on,88,56,50
1,note_on,86,0,10
1,note_on,90,55,50
1,note_on,88,0,10
1,note_on,91,66,50
1,note_on,90,0,10
1,note_on,74,60,50
1,note_on,91,0,10
1,note_on,76,58,50
1,note_on,74,0,10
1,note_on,78,56,50
1,note_on,76,0,10
1,note_on,79,55,50
1,note_on,78,0,10
1,note_on,81,55,50
1,note_on,79,0,10
1,note_on,83,53,50
1,note_on,81,0,10
1,note_on,84,52,50
1,note_on,83,0,10
1,note_on,86,57,50
1,note_on,84,0,10
1,note_on,86,0,110
1,note_on,84,44,0
1,note_on,83,44,60
1,note_on,84,0,10
1,note_on,81,44,50
1,note_on,83,0,10
1,note_on,79,44,50
1,note_on,81,0,10
1,note_on,78,44,50
1,note_on,79,0,10
1,note_on,76,44,50
1,note_on,78,0,10
1,note_on,74,46,50
1,note_on,76,0,10
1,note_on,74,0,20
1,note_on,74,41,30
1,note_on,72,41,60
1,note_on,74,0,10
1,note_on,71,41,50
1,note_on,72,0,10
1,note_on,69,41,50
1,note_on,71,0,10
1,note_on,67,40,50
1,note_on,69,0,10
1,note_on,66,40,50
1,note_on,67,0,10
1,note_on,64,39,50
1,note_on,66,0,10
1,note_on,62,39,50
1,note_on,64,0,10
1,note_on,62,0,60
1,note_on,83,41,170
1,note_on,83,0,240
1,note_on,95,53,0
1,note_on,93,49,117
1,note_on,95,0,3
1,note_on,91,47,60
1,note_on,93,0,7
1,note_on,90,46,53
1,note_on,91,0,10
1,note_on,88,44,50
1,note_on,90,0,10
1,note_on,86,44,50
1,note_on,88,0,10
1,note_on,84,44,50
1,note_on,86,0,10
1,note_on,83,46,50
1,note_on,84,0,10
1,note_on,83,0,20
1,note_on,83,41,30
1,note_on,81,41,60
1,note_on,83,0,10
1,note_on,79,41,50
1,note_on,81,0,10
1,note_on,78,41,50
1,note_on,79,0,10
1,note_on,76,40,50
1,note_on,78,0,10
1,note_on,74,40,50
1,note_on,76,0,10
1,note_on,72,39,50
1,note_on,74,0,10
1,note_on,71,39,50
1,note_on,72,0,10
1,note_on,71,0,60
1,note_on,83,64,170
1,note_on,83,0,180
1,note_on,74,60,0
1,note_on,74,0,60
1,note_on,86,72,0
1,note_on,86,0,120
1,note_on,84,61,0
1,note_on,83,61,60
1,note_on,84,0,10
1,note_on,81,60,50
1,note_on,83,0,10
1,note_on,79,60,50
1,note_on,81,0,10
1,note_on,78,60,50
1,note_on,79,0,10
1,note_on,76,58,50
1,note_on,78,0,10
1,note_on,74,62,50
1,note_on,76,0,10
1,note_on,74,0,20
1,note_on,74,55,30
1,note_on,72,55,60
1,note_on,74,0,10
1,note_on,71,55,50
1,note_on,72,0,10
1,note_on,69,55,50
1,note_on,71,0,10
1,note_on,67,53,50
1,note_on,69,0,10
1,note_on,66,53,50
1,note_on,67,0,10
1,note_on,64,51,50
1,note_on,66,0,10
1,note_on,62,51,50
1,note_on,64,0,10
1,note_on,62,0,60
1,note_on,81,66,170
1,note_on,81,0,180
1,note_on,83,59,0
1,note_on,83,0,60
1,note_on,79,69,0
1,note_on,79,0,60
1,note_on,55,62,60
1,note_on,57,64,60
1,note_on,55,0,10
1,note_on,59,66,50
1,note_on,57,0,10
1,note_on,60,66,50
1,note_on,59,0,10
1,note_on,62,68,50
1,note_on,60,0,10
1,note_on,64,68,50
1,note_on,62,0,10
1,note_on,65,78,50
1,note_on,64,0,10
1,note_on,65,0,20
1,note_on,67,62,90
1,note_on,69,63,60
1,note_on,67,0,10
1,note_on,71,64,50
1,note_on,69,0,10
1,note_on,72,64,50
1,note_on,71,0,10
1,note_on,74,66,50
1,note_on,72,0,10
1,note_on,76,67,50
1,note_on,74,0,10
1,note_on,77,79,50
1,note_on,76,0,10
1,note_on,77,0,20
1,note_on,67,64,90
1,note_on,69,64,60
1,note_on,67,0,10
1,note_on,71,66,50
1,note_on,69,0,10
1,note_on,72,68,50
1,note_on,71,0,10
1,note_on,74,72,50
1,note_on,72,0,10
1,note_on,75,78,50
1,note_on,74,0,10
1,note_on,76,88,50
1,note_on,75,0,10
1,note_on,76,0,110
1,note_on,77,68,0
1,note_on,79,68,60
1,note_on,77,0,10
1,note_on,81,70,50
1,note_on,79,0,10
1,note_on,83,70,50
1,note_on,81,0,10
1,note_on,84,71,50
1,note_on,83,0,10
1,note_on,86,73,50
1,note_on,84,0,10
1,note_on,88,83,50
1,note_on,86,0,10
1,note_on,88,0,20
1,note_on,88,73,30
1,note_on,89,73,60
1,note_on,88,0,10
1,note_on,91,74,50
1,note_on,89,0,10
1,note_on,93,77,50
1,note_on,91,0,10
1,note_on,95,78,50
1,note_on,93,0,10
1,note_on,96,80,50
1,note_on,95,0,10
1,note_on,98,81,50
1,note_on,96,0,10
1,note_on,100,86,50
1,note_on,98,0,10
1,note_on,100,0,60
1,note_on,76,73,170
1,note_on,76,0,240
1,note_on,79,73,0
1,note_on,79,0,120
1,note_on,81,68,0
1,note_on,83,68,60
1,note_on,81,0,10
1,note_on,84,70,50
1,note_on,83,0,10
1,note_on,86,70,50
1,note_on,84,0,10
1,note_on,88,71,50
1,note_on,86,0,10
1,note_on,89,73,50
1,note_on,88,0,10
1,note_on,91,83,50
1,note_on,89,0,10
1,note_on,91,0,20
1,note_on,91,71,30
1,note_on,93,73,60
1,note_on,91,0,10
1,note_on,95,73,50
1,note_on,93,0,10
1,note_on,96,74,50
1,note_on,95,0,10
1,note_on,98,77,50
1,note_on,96,0,10
1,note_on,100,79,50
1,note_on,98,0,10
1,note_on,101,80,50
1,note_on,100,0,10
1,note_on,103,84,50
1,note_on,101,0,10
1,note_on,103,0,60
1,note_on,72,73,170
1,note_on,72,0,240
1,note_on,74,73,0
1,note_on,74,0,120
1,note_on,76,68,0
1,note_on,77,68,60
1,note_on,76,0,10
1,note_on,79,70,50
1,note_on,77,0,10
1,note_on,81,70,50
1,note_on,79,0,10
1,note_on,83,71,50
1,note_on,81,0,10
1,note_on,84,73,50
1,note_on,83,0,10
1,note_on,86,83,50
1,note_on,84,0,10
1,note_on,86,0,20
1,note_on,86,73,30
1,note_on,88,74,60
1,note_on,86,0,10
1,note_on,89,75,50
1,note_on,88,0,10
1,note_on,91,78,50
1,note_on,89,0,10
1,note_on,93,79,50
1,note_on,91,0,10
1,note_on,95,81,50
1,note_on,93,0,10
1,note_on,96,82,50
1,note_on,95,0,10
1,note_on,98,85,50
1,note_on,96,0,10
1,note_on,98,0,60
1,note_on,76,73,170
1,note_on,76,0,240
1,note_on,72,73,0
1,note_on,72,0,120
1,note_on,74,68,0
1,note_on,76,68,60
1,note_on,74,0,10
1,note_on,77,70,50
1,note_on,76,0,10
1,note_on,79,70,50
1,note_on,77,0,10
1,note_on,81,71,50
1,note_on,79,0,10
1,note_on,83,73,50
1,note_on,81,0,10
1,note_on,84,79,50
1,note_on,83,0,10
1,note_on,84,0,20
1,note_on,84,68,30
1,note_on,86,70,60
1,note_on,84,0,10
1,note_on,88,70,50
1,note_on,86,0,10
1,note_on,89,71,50
1,note_on,88,0,10
1,note_on,91,73,50
1,note_on,89,0,10
1,note_on,93,73,50
1,note_on,91,0,10
1,note_on,95,77,50
1,note_on,93,0,10
1,note_on,96,81,50
1,note_on,95,0,10
1,note_on,96,0,60
1,note_on,72,70,170
1,note_on,72,0,240
1,note_on,69,68,0
1,note_on,69,0,120
1,note_on,71,62,0
1,note_on,72,62,60
1,note_on,71,0,10
1,note_on,74,64,50
1,note_on,72,0,10
1,note_on,76,64,50
1,note_on,74,0,10
1,note_on,77,66,50
1,note_on,76,0,10
1,note_on,79,69,50
1,note_on,77,0,10
1,note_on,81,72,50
1,note_on,79,0,10
1,note_on,81,0,20
1,note_on,81,62,30
1,note_on,83,64,60
1,note_on,81,0,10
1,note_on,84,64,50
1,note_on,83,0,10
1,note_on,86,66,50
1,note_on,84,0,10
1,note_on,88,68,50
1,note_on,86,0,10
1,note_on,89,69,50
1,note_on,88,0,10
1,note_on,91,70,50
1,note_on,89,0,10
1,note_on,93,74,50
1,note_on,91,0,10
1,note_on,93,0,60
1,note_on,72,64,170
1,note_on,72,0,240
1,note_on,67,61,0
1,note_on,67,0,120
1,note_on,69,56,0
1,note_on,71,56,60
1,note_on,69,0,10
1,note_on,72,57,50
1,note_on,71,0,10
1,note_on,74,57,50
1,note_on,72,0,10
1,note_on,76,58,50
1,note_on,74,0,10
1,note_on,77,61,50
1,note_on,76,0,10
1,note_on,79,64,50
1,note_on,77,0,10
1,note_on,79,0,20
1,note_on,79,56,30
1,note_on,81,57,60
1,note_on,79,0,10
1,note_on,83,57,50
1,note_on,81,0,10
1,note_on,84,58,50
1,note_on,83,0,10
1,note_on,86,61,50
1,note_on,84,0,10
1,note_on,88,61,50
1,note_on,86,0,10
1,note_on,89,62,50
1,note_on,88,0,10
1,note_on,91,66,50
1,note_on,89,0,10
1,note_on,91,0,60
1,note_on,72,57,170
1,note_on,72,0,240
1,note_on,74,57,0
1,note_on,74,0,120
1,note_on,76,51,0
1,note_on,77,51,60
1,note_on,76,0,10
1,note_on,79,52,50
1,note_on,77,0,10
1,note_on,81,52,50
1,note_on,79,0,10
1,note_on,83,55,50
1,note_on,81,0,10
1,note_on,84,58,50
1,note_on,83,0,10
1,note_on,86,66,50
1,note_on,84,0,10
1,note_on,86,0,20
1,note_on,86,58,30
1,note_on,88,60,60
1,note_on,86,0,10
1,note_on,89,61,50
1,note_on,88,0,10
1,note_on,91,62,50
1,note_on,89,0,10
1,note_on,93,64,50
1,note_on,91,0,10
1,note_on,95,66,50
1,note_on,93,0,10
1,note_on,96,67,50
1,note_on,95,0,10
1,note_on,98,68,50
1,note_on,96,0,10
1,note_on,98,0,60
1,note_on,76,48,170
1,note_on,76,0,240
1,note_on,72,48,0
1,note_on,72,0,120
1,note_on,74,44,0
1,note_on,76,44,60
1,note_on,74,0,10
1,note_on,77,45,50
1,note_on,76,0,10
1,note_on,79,45,50
1,note_on,77,0,10
1,note_on,81,46,50
1,note_on,79,0,10
1,note_on,83,49,50
1,note_on,81,0,10
1,note_on,84,51,50
1,note_on,83,0,10
1,note_on,84,0,20
1,note_on,84,44,30
1,note_on,86,45,60
1,note_on,84,0,10
1,note_on,88,45,50
1,note_on,86,0,10
1,note_on,89,46,50
1,note_on,88,0,10
1,note_on,91,48,50
1,note_on,89,0,10
1,note_on,93,49,50
1,note_on,91,0,10
1,note_on,95,50,50
1,note_on,93,0,10
1,note_on,96,52,50
1,note_on,95,0,10
1,note_on,96,0,60
1,note_on,76,42,170
1,note_on,76,0,240
1,note_on,79,42,0
1,note_on,79,0,120
1,note_on,81,39,0
1,note_on,83,39,60
1,note_on,81,0,10
1,note_on,84,40,50
1,note_on,83,0,10
1,note_on,86,40,50
1,note_on,84,0,10
1,note_on,88,41,50
1,note_on,86,0,10
1,note_on,89,42,50
1,note_on,88,0,10
1,note_on,91,49,50
1,note_on,89,0,10
1,note_on,91,0,20
1,note_on,91,41,30
1,note_on,93,42,60
1,note_on,91,0,10
1,note_on,95,42,50
1,note_on,93,0,10
1,note_on,96,44,50
1,note_on,95,0,10
1,note_on,98,45,50
1,note_on,96,0,10
1,note_on,100,48,50
1,note_on,98,0,10
1,note_on,101,49,50
1,note_on,100,0,10
1,note_on,103,51,50
1,note_on,101,0,10
1,note_on,103,0,60
1,note_on,76,42,170
1,note_on,76,0,240
1,note_on,72,42,0
1,note_on,72,0,120
1,note_on,74,39,0
1,note_on,76,39,60
1,note_on,74,0,10
1,note_on,77,40,50
1,note_on,76,0,10
1,note_on,79,40,50
1,note_on,77,0,10
1,note_on,81,41,50
1,note_on,79,0,10
1,note_on,83,42,50
1,note_on,81,0,10
1,note_on,84,45,50
1,note_on,83,0,10
1,note_on,84,0,20
1,note_on,84,39,30
1,note_on,86,40,60
1,note_on,84,0,10
1,note_on,88,40,50
1,note_on,86,0,10
1,note_on,89,41,50
1,note_on,88,0,10
1,note_on,91,42,50
1,note_on,89,0,10
1,note_on,93,42,50
1,note_on,91,0,10
1,note_on,95,44,50
1,note_on,93,0,10
1,note_on,96,46,50
1,note_on,95,0,10
1,note_on,96,0,60
1,note_on,76,41,170
1,note_on,76,0,120
1,note_on,81,37,0
1,note_on,81,0,120
1,note_on,79,38,0
1,note_on,79,0,120
1,note_on,81,34,0
1,note_on,83,34,60
1,note_on,81,0,10
1,note_on,84,36,50
1,note_on,83,0,10
1,note_on,86,36,50
1,note_on,84,0,10
1,note_on,88,37,50
1,note_on,86,0,10
1,note_on,89,38,50
1,note_on,88,0,10
1,note_on,91,42,50
1,note_on,89,0,10
1,note_on,91,0,20
1,note_on,91,37,30
1,note_on,93,38,60
1,note_on,91,0,10
1,note_on,95,38,50
1,note_on,93,0,10
1,note_on,96,39,50
1,note_on,95,0,10
1,note_on,98,40,50
1,note_on,96,0,10
1,note_on,100,42,50
1,note_on,98,0,10
1,note_on,101,42,50
1,note_on,100,0,10
1,note_on,103,45,50
1,note_on,101,0,10
1,note_on,103,0,60
1,note_on,76,42,170
1,note_on,76,0,240
1,note_on,72,42,0
1,note_on,72,0,120
1,note_on,74,39,0
1,note_on,76,39,60
1,note_on,74,0,10
1,note_on,77,40,50
1,note_on,76,0,10
1,note_on,79,40,50
1,note_on,77,0,10
1,note_on,81,42,50
1,note_on,79,0,10
1,note_on,83,44,50
1,note_on,81,0,10
1,note_on,84,46,50
1,note_on,83,0,10
1,note_on,84,0,20
1,note_on,76,41,30
1,note_on,77,42,60
1,note_on,76,0,10
1,note_on,79,45,50
1,note_on,77,0,10
1,note_on,81,46,50
1,note_on,79,0,10
1,note_on,83,49,50
1,note_on,81,0,10
1,note_on,84,51,50
1,note_on,83,0,10
1,note_on,86,52,50
1,note_on,84,0,10
1,note_on,88,53,50
1,note_on,86,0,10
1,note_on,79,48,50
1,note_on,88,0,10
1,note_on,81,49,50
1,note_on,79,0,10
1,note_on,83,51,50
1,note_on,81,0,10
1,note_on,84,52,50
1,note_on,83,0,10
1,note_on,86,53,50
1,note_on,84,0,10
1,note_on,88,56,50
1,note_on,86,0,10
1,note_on,89,57,50
1,note_on,88,0,10
1,note_on,91,60,50
1,note_on,89,0,10
1,note_on,88,51,50
1,note_on,91,0,10
1,note_on,89,52,50
1,note_on,88,0,10
1,note_on,91,56,50
1,note_on,89,0,10
1,note_on,93,56,50
1,note_on,91,0,10
1,note_on,95,61,50
1,note_on,93,0,10
1,note_on,96,63,50
1,note_on,95,0,10
1,note_on,98,70,50
1,note_on,96,0,10
1,note_on,100,86,50
1,note_on,98,0,10
1,note_on,100,0,60
1,note_on,64,72,410
1,note_on,67,72,0
1,note_on,76,81,0
1,note_on,72,81,0
1,note_on,72,0,120
1,note_on,64,0,0
1,note_on,67,0,0
1,note_on,76,0,0
1,note_on,55,77,360
1,note_on,52,77,0
1,note_on,60,86,0
1,note_on,60,0,960
1,note_on,52,0,0
1,note_on,55,0,0
2,note_on,36,30,0
2,note_on,48,37,0
2,note_on,48,0,469
2,note_on,36,0,0
2,note_on,64,33,0
2,note_on,60,28,0
2,note_on,55,28,0
2,note_on,55,0,438
2,note_on,60,0,0
2,note_on,64,0,0
2,note_on,64,31,0
2,note_on,60,26,0
2,note_on,55,26,0
2,note_on,55,0,208
2,note_on,60,0,0
2,note_on,64,0,0
2,note_on,36,30,0
2,note_on,48,37,0
2,note_on,48,0,480
2,note_on,36,0,0
2,note_on,64,33,0
2,note_on,60,28,0
2,note_on,55,28,0
2,note_on,55,0,420
2,note_on,60,0,0
2,note_on,64,0,0
2,note_on,64,31,0
2,note_on,60,26,0
2,note_on,55,26,0
2,note_on,55,0,159
2,note_on,60,0,0
2,note_on,64,0,0
2,note_on,31,30,0
2,note_on,43,37,0
2,note_on,43,0,480
2,note_on,31,0,0
2,note_on,65,33,0
2,note_on,59,28,0
2,note_on,55,28,0
2,note_on,55,0,438
2,note_on,59,0,0
2,note_on,65,0,0
2,note_on,65,31,0
2,note_on,59,26,0
2,note_on,55,26,0
2,note_on,55,0,162
2,note_on,59,0,0
2,note_on,65,0,0
2,note_on,36,30,0
2,note_on,48,37,0
2,note_on,48,0,480
2,note_on,36,0,0
2,note_on,64,33,0
2,note_on,60,28,0
2,note_on,55,28,0
2,note_on,55,0,434
2,note_on,60,0,0
2,note_on,64,0,0
2,note_on,64,31,0
2,note_on,60,26,0
2,note_on,55,26,0
2,note_on,55,0,208
2,note_on,60,0,0
2,note_on,64,0,0
2,note_on,36,42,0
2,note_on,48,53,0
2,note_on,48,0,480
2,note_on,36,0,0
2,note_on,65,47,0
2,note_on,60,39,0
2,note_on,57,39,0
2,note_on,57,0,431
2,note_on,60,0,0
2,note_on,65,0,0
2,note_on,65,45,0
2,note_on,60,37,0
2,note_on,57,37,0
2,note_on,57,0,208
2,note_on,60,0,0
2,note_on,65,0,0
2,note_on,36,37,0
2,note_on,48,47,0
2,note_on,48,0,480
2,note_on,36,0,0
2,note_on,64,42,0
2,note_on,60,35,0
2,note_on,55,35,0
2,note_on,55,0,438
2,note_on,60,0,0
2,note_on,64,0,0
2,note_on,64,39,0
2,note_on,60,33,0
2,note_on,55,33,0
2,note_on,55,0,208
2,note_on,60,0,0
2,note_on,64,0,0
2,note_on,31,36,0
2,note_on,43,44,0
2,note_on,43,0,480
2,note_on,31,0,0
2,note_on,65,39,0
2,note_on,59,34,0
2,note_on,55,34,0
2,note_on,55,0,427
2,note_on,59,0,0
2,note_on,65,0,0
2,note_on,65,37,0
2,note_on,59,29,0
2,note_on,55,29,0
2,note_on,55,0,208
2,note_on,59,0,0
2,note_on,65,0,0
2,note_on,36,35,0
2,note_on,48,42,0
2,note_on,48,0,480
2,note_on,36,0,0
2,note_on,64,38,0
2,note_on,60,33,0
2,note_on,55,33,0
2,note_on,55,0,438
2,note_on,60,0,0
2,note_on,64,0,0
2,note_on,64,36,0
2,note_on,60,29,0
2,note_on,55,29,0
2,note_on,55,0,353
2,note_on,60,0,0
2,note_on,64,0,0
2,note_on,36,30,0
2,note_on,48,37,0
2,note_on,48,0,427
2,note_on,36,0,0
2,note_on,64,33,0
2,note_on,60,28,0
2,note_on,55,28,0
2,note_on,55,0,441
2,note_on,60,0,0
2,note_on,64,0,0
2,note_on,64,31,0
2,note_on,60,26,0
2,note_on,55,26,0
2,note_on,55,0,208
2,note_on,60,0,0
2,note_on,64,0,0
2,note_on,36,30,0
2,note_on,48,37,0
2,note_on,48,0,480
2,note_on,36,0,0
2,note_on,64,33,0
2,note_on,60,28,0
2,note_on,55,28,0
2,note_on,55,0,434
2,note_on,60,0,0
2,note_on,64,0,0
2,note_on,64,31,0
2,note_on,60,26,0
2,note_on,55,26,0
2,note_on,55,0,183
2,note_on,60,0,0
2,note_on,64,0,0
2,note_on,31,30,0
2,note_on,43,37,0
2,note_on,43,0,480
2,note_on,31,0,0
2,note_on,65,33,0
2,note_on,59,28,0
2,note_on,55,28,0
2,note_on,55,0,445
2,note_on,59,0,0
2,note_on,65,0,0
2,note_on,65,31,0
2,note_on,59,26,0
2,note_on,55,26,0
2,note_on,55,0,208
2,note_on,59,0,0
2,note_on,65,0,0
2,note_on,36,30,0
2,note_on,48,37,0
2,note_on,48,0,480
2,note_on,36,0,0
2,note_on,64,33,0
2,note_on,60,28,0
2,note_on,55,28,0
2,note_on,55,0,434
2,note_on,60,0,0
2,note_on,64,0,0
2,note_on,64,31,0
2,note_on,60,26,0
2,note_on,55,26,0
2,note_on,55,0,208
2,note_on,60,0,0
2,note_on,64,0,0
2,note_on,36,42,0
2,note_on,48,53,0
2,note_on,48,0,480
2,note_on,36,0,0
2,note_on,65,47,0
2,note_on,60,39,0
2,note_on,57,39,0
2,note_on,57,0,438
2,note_on,60,0,0
2,note_on,65,0,0
2,note_on,65,45,0
2,note_on,60,37,0
2,note_on,57,37,0
2,note_on,57,0,208
2,note_on,60,0,0
2,note_on,65,0,0
2,note_on,36,37,0
2,note_on,48,47,0
2,note_on,48,0,480
2,note_on,36,0,0
2,note_on,64,42,0
2,note_on,60,35,0
2,note_on,55,35,0
2,note_on,55,0,438
2,note_on,60,0,0
2,note_on,64,0,0
2,note_on,64,39,0
2,note_on,60,33,0
2,note_on,55,33,0
2,note_on,55,0,208
2,note_on,60,0,0
2,note_on,64,0,0
2,note_on,31,36,0
2,note_on,43,44,0
2,note_on,43,0,480
2,note_on,31,0,0
2,note_on,65,39,0
2,note_on,59,34,0
2,note_on,55,34,0
2,note_on,55,0,445
2,note_on,59,0,0
2,note_on,65,0,0
2,note_on,65,37,0
2,note_on,59,29,0
2,note_on,55,29,0
2,note_on,55,0,208
2,note_on,59,0,0
2,note_on,65,0,0
2,note_on,36,35,0
2,note_on,48,42,0
2,note_on,48,0,480
2,note_on,36,0,0
2,note_on,64,38,0
2,note_on,60,33,0
2,note_on,55,33,0
2,note_on,55,0,434
2,note_on,60,0,0
2,note_on,64,0,0
2,note_on,64,36,0
2,note_on,60,29,0
2,note_on,55,29,0
2,note_on,55,0,67
2,note_on,60,0,0
2,note_on,64,0,0
2,note_on,43,50,0
2,note_on,43,0,480
2,note_on,59,46,0
2,note_on,55,37,0
2,note_on,50,37,0
2,note_on,50,0,440
2,note_on,55,0,0
2,note_on,59,0,0
2,note_on,59,44,0
2,note_on,55,35,0
2,note_on,50,35,0
2,note_on,50,0,208
2,note_on,55,0,0
2,note_on,59,0,0
2,note_on,43,50,0
2,note_on,43,0,480
2,note_on,59,46,0
2,note_on,55,37,0
2,note_on,50,37,0
2,note_on,50,0,449
2,note_on,55,0,0
2,note_on,59,0,0
2,note_on,59,44,0
2,note_on,55,35,0
2,note_on,50,35,0
2,note_on,50,0,208
2,note_on,55,0,0
2,note_on,59,0,0
2,note_on,38,47,0
2,note_on,50,50,0
2,note_on,50,0,480
2,note_on,38,0,0
2,note_on,60,46,0
2,note_on,54,37,0
2,note_on,50,37,0
2,note_on,50,0,449
2,note_on,54,0,0
2,note_on,60,0,0
2,note_on,60,44,0
2,note_on,54,35,0
2,note_on,50,35,0
2,note_on,50,0,208
2,note_on,54,0,0
2,note_on,60,0,0
2,note_on,43,53,0
2,note_on,43,0,480
2,note_on,59,44,0
2,note_on,55,36,0
2,note_on,50,36,0
2,note_on,50,0,449
2,note_on,55,0,0
2,note_on,59,0,0
2,note_on,59,36,0
2,note_on,55,29,0
2,note_on,50,29,0
2,note_on,50,0,440
2,note_on,55,0,0
2,note_on,59,0,0
2,note_on,43,34,0
2,note_on,43,0,440
2,note_on,59,30,0
2,note_on,55,25,0
2,note_on,50,25,0
2,note_on,50,0,440
2,note_on,55,0,0
2,note_on,59,0,0
2,note_on,59,29,0
2,note_on,55,24,0
2,note_on,50,24,0
2,note_on,50,0,208
2,note_on,55,0,0
2,note_on,59,0,0
2,note_on,43,34,0
2,note_on,43,0,480
2,note_on,59,30,0
2,note_on,55,25,0
2,note_on,50,25,0
2,note_on,50,0,440
2,note_on,55,0,0
2,note_on,59,0,0
2,note_on,59,29,0
2,note_on,55,24,0
2,note_on,50,24,0
2,note_on,50,0,208
2,note_on,55,0,0
2,note_on,59,0,0
2,note_on,38,44,0
2,note_on,50,47,0
2,note_on,50,0,480
2,note_on,38,0,0
2,note_on,60,39,0
2,note_on,54,33,0
2,note_on,50,33,0
2,note_on,50,0,443
2,note_on,54,0,0
2,note_on,60,0,0
2,note_on,60,38,0
2,note_on,54,29,0
2,note_on,50,29,0
2,note_on,50,0,20
2,note_on,54,0,0
2,note_on,60,0,0
2,note_on,59,58,0
2,note_on,55,58,0
2,note_on,55,0,60
2,note_on,59,0,0
2,note_on,43,53,60
2,note_on,45,55,37
2,note_on,43,0,10
2,note_on,47,53,50
2,note_on,45,0,10
2,note_on,48,56,50
2,note_on,47,0,10
2,note_on,50,56,50
2,note_on,48,0,10
2,note_on,52,56,50
2,note_on,50,0,10
2,note_on,53,66,50
2,note_on,52,0,4
2,note_on,53,0,20
2,note_on,55,53,90
2,note_on,57,53,29
2,note_on,55,0,10
2,note_on,59,55,50
2,note_on,57,0,10
2,note_on,60,55,50
2,note_on,59,0,10
2,note_on,62,56,50
2,note_on,60,0,10
2,note_on,64,59,50
2,note_on,62,0,10
2,note_on,65,67,50
2,note_on,64,0,10
2,note_on,65,0,18
2,note_on,36,63,0
2,note_on,48,78,0
2,note_on,48,0,434
2,note_on,36,0,0
2,note_on,64,66,0
2,note_on,60,55,0
2,note_on,55,55,0
2,note_on,55,0,431
2,note_on,60,0,0
2,note_on,64,0,0
2,note_on,64,63,0
2,note_on,60,51,0
2,note_on,55,51,0
2,note_on,55,0,208
2,note_on,60,0,0
2,note_on,64,0,0
2,note_on,36,58,0
2,note_on,48,71,0
2,note_on,48,0,480
2,note_on,36,0,0
2,note_on,64,66,0
2,note_on,60,55,0
2,note_on,55,55,0
2,note_on,55,0,438
2,note_on,60,0,0
2,note_on,64,0,0
2,note_on,64,63,0
2,note_on,60,51,0
2,note_on,55,51,0
2,note_on,55,0,173
2,note_on,60,0,0
2,note_on,64,0,0
2,note_on,31,63,0
2,note_on,43,78,0
2,note_on,43,0,480
2,note_on,31,0,0
2,note_on,65,66,0
2,note_on,59,55,0
2,note_on,55,55,0
2,note_on,55,0,441
2,note_on,59,0,0
2,note_on,65,0,0
2,note_on,65,63,0
2,note_on,59,51,0
2,note_on,55,51,0
2,note_on,55,0,208
2,note_on,59,0,0
2,note_on,65,0,0
2,note_on,36,58,0
2,note_on,48,71,0
2,note_on,48,0,480
2,note_on,36,0,0
2,note_on,64,66,0
2,note_on,60,55,0
2,note_on,55,55,0
2,note_on,55,0,431
2,note_on,60,0,0
2,note_on,64,0,0
2,note_on,64,63,0
2,note_on,60,51,0
2,note_on,55,51,0
2,note_on,55,0,208
2,note_on,60,0,0
2,note_on,64,0,0
2,note_on,36,48,0
2,note_on,48,60,0
2,note_on,48,0,480
2,note_on,36,0,0
2,note_on,65,52,0
2,note_on,60,44,0
2,note_on,57,44,0
2,note_on,57,0,438
2,note_on,60,0,0
2,note_on,65,0,0
2,note_on,65,50,0
2,note_on,60,41,0
2,note_on,57,41,0
2,note_on,57,0,208
2,note_on,60,0,0
2,note_on,65,0,0
2,note_on,36,41,0
2,note_on,48,52,0
2,note_on,48,0,480
2,note_on,36,0,0
2,note_on,64,48,0
2,note_on,60,39,0
2,note_on,55,39,0
2,note_on,55,0,434
2,note_on,60,0,0
2,note_on,64,0,0
2,note_on,64,44,0
2,note_on,60,37,0
2,note_on,55,37,0
2,note_on,55,0,208
2,note_on,60,0,0
2,note_on,64,0,0
2,note_on,31,40,0
2,note_on,43,49,0
2,note_on,43,0,480
2,note_on,31,0,0
2,note_on,65,44,0
2,note_on,59,38,0
2,note_on,55,38,0
2,note_on,55,0,434
2,note_on,59,0,0
2,note_on,65,0,0
2,note_on,65,41,0
2,note_on,59,34,0
2,note_on,55,34,0
2,note_on,55,0,208
2,note_on,59,0,0
2,note_on,65,0,0
2,note_on,36,34,0
2,note_on,48,41,0
2,note_on,48,0,480
2,note_on,36,0,0
2,note_on,64,38,0
2,note_on,60,31,0
2,note_on,55,31,0
2,note_on,55,0,441
2,note_on,60,0,0
2,note_on,64,0,0
2,note_on,64,36,0
2,note_on,60,29,0
2,note_on,55,29,0
2,note_on,55,0,208
2,note_on,60,0,0
2,note_on,64,0,0
2,note_on,36,30,0
2,note_on,48,37,0
2,note_on,48,0,480
2,note_on,36,0,0
2,note_on,64,33,0
2,note_on,60,28,0
2,note_on,55,28,0
2,note_on,55,0,438
2,note_on,60,0,0
2,note_on,64,0,0
2,note_on,64,31,0
2,note_on,60,26,0
2,note_on,55,26,0
2,note_on,55,0,208
2,note_on,60,0,0
2,note_on,64,0,0
2,note_on,36,30,0
2,note_on,48,37,0
2,note_on,48,0,480
2,note_on,36,0,0
2,note_on,64,33,0
2,note_on,60,28,0
2,note_on,55,28,0
2,note_on,55,0,438
2,note_on,60,0,0
2,note_on,64,0,0
2,note_on,64,31,0
2,note_on,60,26,0
2,note_on,55,26,0
2,note_on,55,0,208
2,note_on,60,0,0
2,note_on,64,0,0
2,note_on,36,27,0
2,note_on,48,31,0
2,note_on,48,0,480
2,note_on,36,0,0
2,note_on,64,29,0
2,note_on,60,25,0
2,note_on,55,25,0
2,note_on,55,0,392
2,note_on,60,0,0
2,note_on,64,0,0
2,note_on,64,28,0
2,note_on,60,22,0
2,note_on,55,22,0
2,note_on,55,0,208
2,note_on,60,0,0
2,note_on,64,0,0
2,note_on,36,30,0
2,note_on,48,37,0
2,note_on,48,0,480
2,note_on,36,0,0
2,note_on,60,34,46
2,note_on,62,36,32
2,note_on,60,0,10
2,note_on,64,37,50
2,note_on,62,0,10
2,note_on,65,39,50
2,note_on,64,0,10
2,note_on,67,41,50
2,note_on,65,0,10
2,note_on,69,42,50
2,note_on,67,0,10
2,note_on,71,42,50
2,note_on,69,0,10
2,note_on,72,45,50
2,note_on,71,0,3
2,note_on,64,40,50
2,note_on,72,0,10
2,note_on,65,41,25
2,note_on,64,0,10
2,note_on,67,42,50
2,note_on,65,0,10
2,note_on,69,44,50
2,note_on,67,0,10
2,note_on,71,45,50
2,note_on,69,0,10
2,note_on,72,46,50
2,note_on,71,0,10
2,note_on,74,48,50
2,note_on,72,0,10
2,note_on,76,50,50
2,note_on,74,0,3
2,note_on,72,42,50
2,note_on,76,0,10
2,note_on,74,44,25
2,note_on,72,0,10
2,note_on,76,46,50
2,note_on,74,0,10
2,note_on,77,48,50
2,note_on,76,0,10
2,note_on,79,50,50
2,note_on,77,0,10
2,note_on,81,53,50
2,note_on,79,0,10
2,note_on,83,57,50
2,note_on,81,0,10
2,note_on,84,69,50
2,note_on,83,0,6
2,note_on,84,0,60
2,note_on,48,59,410
2,note_on,55,59,0
2,note_on,60,66,0
2,note_on,60,0,116
2,note_on,55,0,0
2,note_on,48,0,0
2,note_on,36,62,314
2,note_on,43,62,0
2,note_on,48,70,0
2,note_on,48,0,827
2,note_on,43,0,0
2,note_on,36,0,0
