Track,Message Type,Note,Velocity,Time
1,note_on,72,50,0
1,note_on,72,0,120
1,note_on,84,41,120
1,note_on,84,0,120
1,note_on,72,47,120
1,note_on,72,0,120
1,note_on,84,40,120
1,note_on,84,0,120
1,note_on,72,49,120
1,note_on,72,0,120
1,note_on,84,40,120
1,note_on,84,0,120
1,note_on,72,56,120
1,note_on,72,0,120
1,note_on,84,49,120
1,note_on,84,0,120
1,note_on,72,61,120
1,note_on,72,0,120
1,note_on,84,52,120
1,note_on,84,0,120
1,note_on,72,63,120
1,note_on,72,0,120
1,note_on,84,55,120
1,note_on,84,0,120
1,note_on,72,68,120
1,note_on,72,0,120
1,note_on,84,59,120
1,note_on,84,0,120
1,note_on,72,63,120
1,note_on,72,0,120
1,note_on,84,51,120
1,note_on,84,0,120
1,note_on,72,58,120
1,note_on,72,0,120
1,note_on,84,41,120
1,note_on,84,0,120
1,note_on,72,47,120
1,note_on,72,0,120
1,note_on,84,52,120
1,note_on,84,0,120
1,note_on,72,64,120
1,note_on,72,0,120
1,note_on,84,34,120
1,note_on,84,0,120
1,note_on,72,46,120
1,note_on,72,0,120
1,note_on,84,51,120
1,note_on,84,0,120
1,note_on,72,63,120
1,note_on,72,0,120
1,note_on,84,43,120
1,note_on,84,0,120
1,note_on,72,55,120
1,note_on,72,0,120
1,note_on,84,50,120
1,note_on,84,0,120
1,note_on,72,63,120
1,note_on,72,0,120
1,note_on,84,38,120
1,note_on,84,0,120
1,note_on,72,47,120
1,note_on,72,0,120
1,note_on,84,39,120
1,note_on,84,0,120
1,note_on,72,37,120
1,note_on,72,0,120
1,note_on,84,35,120
1,note_on,84,0,120
1,note_on,77,39,120
1,note_on,77,0,120
1,note_on,89,38,120
1,note_on,89,0,120
1,note_on,81,41,120
1,note_on,81,0,120
1,note_on,93,40,120
1,note_on,93,0,120
1,note_on,79,46,120
1,note_on,79,0,120
1,note_on,91,42,120
1,note_on,91,0,120
1,note_on,77,49,120
1,note_on,77,0,120
1,note_on,89,43,120
1,note_on,89,0,120
1,note_on,76,49,120
1,note_on,76,0,120
1,note_on,88,46,120
1,note_on,88,0,120
1,note_on,79,58,120
1,note_on,79,0,120
1,note_on,91,41,120
1,note_on,91,0,120
1,note_on,77,51,120
1,note_on,77,0,120
1,note_on,89,42,120
1,note_on,89,0,120
1,note_on,76,50,120
1,note_on,76,0,120
1,note_on,88,39,120
1,note_on,88,0,120
1,note_on,74,44,120
1,note_on,74,0,120
1,note_on,86,40,120
1,note_on,86,0,120
1,note_on,67,44,120
1,note_on,67,0,120
1,note_on,79,43,120
1,note_on,79,0,120
1,note_on,69,48,120
1,note_on,69,0,120
1,note_on,81,45,120
1,note_on,81,0,120
1,note_on,70,58,120
1,note_on,70,0,120
1,note_on,82,51,120
1,note_on,82,0,120
1,note_on,71,53,120
1,note_on,71,0,120
1,note_on,83,50,120
1,note_on,83,0,120
1,note_on,72,58,120
1,note_on,72,0,120
1,note_on,84,43,120
1,note_on,84,0,120
1,note_on,70,52,120
1,note_on,70,0,120
1,note_on,82,43,120
1,note_on,82,0,120
1,note_on,72,55,120
1,note_on,72,0,120
1,note_on,84,46,120
1,note_on,84,0,120
1,note_on,77,55,120
1,note_on,77,0,120
1,note_on,89,44,120
1,note_on,89,0,120
1,note_on,77,62,120
1,note_on,77,0,120
1,note_on,89,52,120
1,note_on,89,0,120
1,note_on,76,64,120
1,note_on,76,0,120
1,note_on,88,50,120
1,note_on,88,0,120
1,note_on,76,72,120
1,note_on,76,0,120
1,note_on,88,65,120
1,note_on,88,0,120
1,note_on,74,70,120
1,note_on,74,0,120
1,note_on,86,57,120
1,note_on,86,0,120
1,note_on,72,63,120
1,note_on,72,0,120
1,note_on,84,49,120
1,note_on,84,0,120
1,note_on,70,58,120
1,note_on,70,0,120
1,note_on,82,48,120
1,note_on,82,0,120
1,note_on,69,60,120
1,note_on,69,0,120
1,note_on,81,48,120
1,note_on,81,0,120
1,note_on,65,58,120
1,note_on,65,0,120
1,note_on,77,50,120
1,note_on,77,0,120
1,note_on,65,66,120
1,note_on,65,0,120
1,note_on,77,60,120
1,note_on,77,0,120
1,note_on,64,64,120
1,note_on,64,0,120
1,note_on,76,51,120
1,note_on,76,0,120
1,note_on,65,59,120
1,note_on,65,0,120
1,note_on,77,52,120
1,note_on,77,0,120
1,note_on,70,67,120
1,note_on,70,0,120
1,note_on,82,55,120
1,note_on,82,0,120
1,note_on,69,62,120
1,note_on,69,0,120
1,note_on,81,56,120
1,note_on,81,0,120
1,note_on,74,59,120
1,note_on,74,0,120
1,note_on,86,49,120
1,note_on,86,0,120
1,note_on,72,37,120
1,note_on,72,0,120
1,note_on,84,35,120
1,note_on,84,0,120
1,note_on,77,39,120
1,note_on,77,0,120
1,note_on,89,38,120
1,note_on,89,0,120
1,note_on,81,41,120
1,note_on,81,0,120
1,note_on,93,40,120
1,note_on,93,0,120
1,note_on,79,46,120
1,note_on,79,0,120
1,note_on,91,42,120
1,note_on,91,0,120
1,note_on,77,49,120
1,note_on,77,0,120
1,note_on,89,43,120
1,note_on,89,0,120
1,note_on,76,49,120
1,note_on,76,0,120
1,note_on,88,46,120
1,note_on,88,0,120
1,note_on,79,58,120
1,note_on,79,0,120
1,note_on,91,41,120
1,note_on,91,0,120
1,note_on,77,51,120
1,note_on,77,0,120
1,note_on,89,42,120
1,note_on,89,0,120
1,note_on,76,50,120
1,note_on,76,0,120
1,note_on,88,35,120
1,note_on,88,0,120
1,note_on,74,44,120
1,note_on,74,0,120
1,note_on,86,40,120
1,note_on,86,0,120
1,note_on,67,44,120
1,note_on,67,0,120
1,note_on,79,43,120
1,note_on,79,0,120
1,note_on,69,48,120
1,note_on,69,0,120
1,note_on,81,45,120
1,note_on,81,0,120
1,note_on,70,58,120
1,note_on,70,0,120
1,note_on,82,51,120
1,note_on,82,0,120
1,note_on,71,53,120
1,note_on,71,0,120
1,note_on,83,50,120
1,note_on,83,0,120
1,note_on,72,58,120
1,note_on,72,0,120
1,note_on,84,43,120
1,note_on,84,0,120
1,note_on,70,52,120
1,note_on,70,0,120
1,note_on,82,43,120
1,note_on,82,0,120
1,note_on,72,55,120
1,note_on,72,0,120
1,note_on,84,46,120
1,note_on,84,0,120
1,note_on,77,55,120
1,note_on,77,0,120
1,note_on,89,44,120
1,note_on,89,0,120
1,note_on,77,62,120
1,note_on,77,0,120
1,note_on,89,52,120
1,note_on,89,0,120
1,note_on,76,64,120
1,note_on,76,0,120
1,note_on,88,50,120
1,note_on,88,0,120
1,note_on,76,72,120
1,note_on,76,0,120
1,note_on,88,65,120
1,note_on,88,0,120
1,note_on,74,70,120
1,note_on,74,0,120
1,note_on,86,57,120
1,note_on,86,0,120
1,note_on,72,63,120
1,note_on,72,0,120
1,note_on,84,49,120
1,note_on,84,0,120
1,note_on,70,58,120
1,note_on,70,0,120
1,note_on,82,48,120
1,note_on,82,0,120
1,note_on,69,60,120
1,note_on,69,0,120
1,note_on,81,48,120
1,note_on,81,0,120
1,note_on,65,58,120
1,note_on,65,0,120
1,note_on,77,50,120
1,note_on,77,0,120
1,note_on,65,66,120
1,note_on,65,0,120
1,note_on,77,60,120
1,note_on,77,0,120
1,note_on,64,64,120
1,note_on,64,0,120
1,note_on,76,51,120
1,note_on,76,0,120
1,note_on,65,59,120
1,note_on,65,0,120
1,note_on,77,52,120
1,note_on,77,0,120
1,note_on,65,61,120
1,note_on,65,0,120
1,note_on,77,60,120
1,note_on,77,0,120
1,note_on,65,68,120
1,note_on,65,0,120
1,note_on,77,45,120
1,note_on,77,0,120
1,note_on,65,51,120
1,note_on,65,0,120
1,note_on,77,43,120
1,note_on,77,0,120
1,note_on,77,31,120
1,note_on,74,24,0
1,note_on,65,24,0
1,note_on,65,0,120
1,note_on,74,0,0
1,note_on,77,0,0
1,note_on,65,20,120
1,note_on,74,20,0
1,note_on,77,26,0
1,note_on,77,0,120
1,note_on,74,0,0
1,note_on,65,0,0
1,note_on,77,31,120
1,note_on,74,24,0
1,note_on,65,24,0
1,note_on,65,0,120
1,note_on,74,0,0
1,note_on,77,0,0
1,note_on,65,23,120
1,note_on,74,23,0
1,note_on,77,29,0
1,note_on,77,0,120
1,note_on,74,0,0
1,note_on,65,0,0
1,note_on,65,28,120
1,note_on,74,28,0
1,note_on,77,36,0
1,note_on,77,0,120
1,note_on,74,0,0
1,note_on,65,0,0
1,note_on,65,24,120
1,note_on,74,24,0
1,note_on,77,31,0
1,note_on,77,0,120
1,note_on,74,0,0
1,note_on,65,0,0
1,note_on,77,42,120
1,note_on,74,35,0
1,note_on,65,35,0
1,note_on,65,0,120
1,note_on,74,0,0
1,note_on,77,0,0
1,note_on,77,34,120
1,note_on,74,28,0
1,note_on,65,28,0
1,note_on,65,0,120
1,note_on,74,0,0
1,note_on,77,0,0
1,note_on,65,39,120
1,note_on,74,39,0
1,note_on,77,46,0
1,note_on,77,0,120
1,note_on,74,0,0
1,note_on,65,0,0
1,note_on,77,33,120
1,note_on,74,28,0
1,note_on,65,28,0
1,note_on,65,0,120
1,note_on,74,0,0
1,note_on,77,0,0
1,note_on,65,35,120
1,note_on,74,35,0
1,note_on,77,42,0
1,note_on,77,0,120
1,note_on,74,0,0
1,note_on,65,0,0
1,note_on,77,33,120
1,note_on,74,28,0
1,note_on,65,28,0
1,note_on,65,0,120
1,note_on,74,0,0
1,note_on,77,0,0
1,note_on,77,40,120
1,note_on,74,34,0
1,note_on,65,34,0
1,note_on,65,0,120
1,note_on,74,0,0
1,note_on,77,0,0
1,note_on,77,30,120
1,note_on,74,25,0
1,note_on,65,25,0
1,note_on,65,0,120
1,note_on,74,0,0
1,note_on,77,0,0
1,note_on,65,24,120
1,note_on,74,24,0
1,note_on,77,37,0
1,note_on,77,0,120
1,note_on,74,0,0
1,note_on,65,0,0
1,note_on,65,20,120
1,note_on,74,20,0
1,note_on,77,31,0
1,note_on,77,0,120
1,note_on,74,0,0
1,note_on,65,0,0
1,note_on,76,35,120
1,note_on,74,27,0
1,note_on,70,27,0
1,note_on,70,0,120
1,note_on,74,0,0
1,note_on,76,0,0
1,note_on,70,23,120
1,note_on,74,23,0
1,note_on,76,29,0
1,note_on,76,0,120
1,note_on,74,0,0
1,note_on,70,0,0
1,note_on,76,35,120
1,note_on,74,27,0
1,note_on,69,27,0
1,note_on,69,0,120
1,note_on,74,0,0
1,note_on,76,0,0
1,note_on,69,26,120
1,note_on,74,26,0
1,note_on,76,33,0
1,note_on,76,0,120
1,note_on,74,0,0
1,note_on,69,0,0
1,note_on,67,32,120
1,note_on,74,32,0
1,note_on,76,41,0
1,note_on,76,0,120
1,note_on,74,0,0
1,note_on,67,0,0
1,note_on,67,27,120
1,note_on,74,27,0
1,note_on,76,35,0
1,note_on,76,0,120
1,note_on,74,0,0
1,note_on,67,0,0
1,note_on,76,48,120
1,note_on,74,40,0
1,note_on,70,40,0
1,note_on,70,0,120
1,note_on,74,0,0
1,note_on,76,0,0
1,note_on,76,39,120
1,note_on,74,32,0
1,note_on,70,32,0
1,note_on,70,0,120
1,note_on,74,0,0
1,note_on,76,0,0
1,note_on,69,44,120
1,note_on,73,44,0
1,note_on,76,52,0
1,note_on,76,0,120
1,note_on,73,0,0
1,note_on,69,0,0
1,note_on,76,37,120
1,note_on,73,32,0
1,note_on,69,32,0
1,note_on,69,0,120
1,note_on,73,0,0
1,note_on,76,0,0
1,note_on,69,40,120
1,note_on,73,40,0
1,note_on,76,48,0
1,note_on,76,0,120
1,note_on,73,0,0
1,note_on,69,0,0
1,note_on,76,37,120
1,note_on,73,32,0
1,note_on,69,32,0
1,note_on,69,0,120
1,note_on,73,0,0
1,note_on,76,0,0
1,note_on,74,55,120
1,note_on,69,46,0
1,note_on,69,0,120
1,note_on,74,0,0
1,note_on,74,41,120
1,note_on,69,33,0
1,note_on,69,0,120
1,note_on,74,0,0
1,note_on,76,57,120
1,note_on,73,48,0
1,note_on,69,48,0
1,note_on,69,0,120
1,note_on,73,0,0
1,note_on,76,0,0
1,note_on,76,50,120
1,note_on,73,42,0
1,note_on,69,42,0
1,note_on,69,0,120
1,note_on,73,0,0
1,note_on,76,0,0
1,note_on,69,55,120
1,note_on,74,55,0
1,note_on,77,55,0
1,note_on,77,0,120
1,note_on,74,0,0
1,note_on,69,0,0
1,note_on,69,42,120
1,note_on,74,42,0
1,note_on,77,42,0
1,note_on,77,0,120
1,note_on,74,0,0
1,note_on,69,0,0
1,note_on,69,58,120
1,note_on,73,58,0
1,note_on,76,58,0
1,note_on,76,0,120
1,note_on,73,0,0
1,note_on,69,0,0
1,note_on,76,46,120
1,note_on,73,46,0
1,note_on,69,46,0
1,note_on,69,0,120
1,note_on,73,0,0
1,note_on,76,0,0
1,note_on,77,61,120
1,note_on,74,61,0
1,note_on,69,61,0
1,note_on,69,0,120
1,note_on,74,0,0
1,note_on,77,0,0
1,note_on,77,48,120
1,note_on,74,48,0
1,note_on,69,48,0
1,note_on,69,0,120
1,note_on,74,0,0
1,note_on,77,0,0
1,note_on,72,64,120
1,note_on,76,64,0
1,note_on,79,64,0
1,note_on,79,0,120
1,note_on,76,0,0
1,note_on,72,0,0
1,note_on,72,54,120
1,note_on,76,54,0
1,note_on,79,54,0
1,note_on,79,0,120
1,note_on,76,0,0
1,note_on,72,0,0
1,note_on,72,66,120
1,note_on,77,66,0
1,note_on,81,66,0
1,note_on,81,0,120
1,note_on,77,0,0
1,note_on,72,0,0
1,note_on,72,51,120
1,note_on,77,51,0
1,note_on,81,51,0
1,note_on,81,0,120
1,note_on,77,0,0
1,note_on,72,0,0
1,note_on,76,70,120
1,note_on,80,70,0
1,note_on,83,70,0
1,note_on,83,0,120
1,note_on,80,0,0
1,note_on,76,0,0
1,note_on,83,56,120
1,note_on,80,56,0
1,note_on,76,56,0
1,note_on,76,0,120
1,note_on,80,0,0
1,note_on,83,0,0
1,note_on,84,73,120
1,note_on,81,73,0
1,note_on,76,73,0
1,note_on,76,0,120
1,note_on,81,0,0
1,note_on,84,0,0
1,note_on,84,59,120
1,note_on,81,59,0
1,note_on,76,59,0
1,note_on,76,0,120
1,note_on,81,0,0
1,note_on,84,0,0
1,note_on,79,77,120
1,note_on,83,77,0
1,note_on,86,77,0
1,note_on,86,0,120
1,note_on,83,0,0
1,note_on,79,0,0
1,note_on,83,65,120
1,note_on,79,65,0
1,note_on,86,65,0
1,note_on,86,0,120
1,note_on,79,0,0
1,note_on,83,0,0
1,note_on,79,68,120
1,note_on,84,81,0
1,note_on,88,81,0
1,note_on,88,0,120
1,note_on,84,0,0
1,note_on,79,0,0
1,note_on,88,64,120
1,note_on,84,64,0
1,note_on,79,53,0
1,note_on,79,0,120
1,note_on,84,0,0
1,note_on,88,0,0
1,note_on,82,66,120
1,note_on,86,79,0
1,note_on,86,0,120
1,note_on,82,0,0
1,note_on,86,62,120
1,note_on,82,51,0
1,note_on,82,0,120
1,note_on,86,0,0
1,note_on,81,62,120
1,note_on,84,73,0
1,note_on,84,0,120
1,note_on,81,0,0
1,note_on,81,52,120
1,note_on,84,61,0
1,note_on,84,0,120
1,note_on,81,0,0
1,note_on,80,59,120
1,note_on,83,72,0
1,note_on,83,0,120
1,note_on,80,0,0
1,note_on,83,54,120
1,note_on,80,45,0
1,note_on,80,0,120
1,note_on,83,0,0
1,note_on,79,56,120
1,note_on,82,67,0
1,note_on,82,0,120
1,note_on,79,0,0
1,note_on,82,51,120
1,note_on,79,43,0
1,note_on,79,0,120
1,note_on,82,0,0
1,note_on,78,51,120
1,note_on,81,61,0
1,note_on,81,0,120
1,note_on,78,0,0
1,note_on,81,47,120
1,note_on,78,39,0
1,note_on,78,0,120
1,note_on,81,0,0
1,note_on,79,41,120
1,note_on,82,49,0
1,note_on,82,0,120
1,note_on,79,0,0
1,note_on,79,32,120
1,note_on,82,38,0
1,note_on,82,0,120
1,note_on,79,0,0
1,note_on,72,34,120
1,note_on,84,41,0
1,note_on,84,0,120
1,note_on,72,0,0
1,note_on,84,29,120
1,note_on,72,24,0
1,note_on,72,0,120
1,note_on,84,0,0
1,note_on,72,37,120
1,note_on,72,0,120
1,note_on,84,35,120
1,note_on,84,0,120
1,note_on,77,39,120
1,note_on,77,0,120
1,note_on,89,38,120
1,note_on,89,0,120
1,note_on,81,41,120
1,note_on,81,0,120
1,note_on,93,40,120
1,note_on,93,0,120
1,note_on,79,46,120
1,note_on,79,0,120
1,note_on,91,42,120
1,note_on,91,0,120
1,note_on,77,49,120
1,note_on,77,0,120
1,note_on,89,43,120
1,note_on,89,0,120
1,note_on,76,49,120
1,note_on,76,0,120
1,note_on,88,46,120
1,note_on,88,0,120
1,note_on,79,58,120
1,note_on,79,0,120
1,note_on,91,41,120
1,note_on,91,0,120
1,note_on,77,51,120
1,note_on,77,0,120
1,note_on,89,42,120
1,note_on,89,0,120
1,note_on,76,55,120
1,note_on,76,0,120
1,note_on,88,43,120
1,note_on,88,0,120
1,note_on,74,49,120
1,note_on,74,0,120
1,note_on,86,40,120
1,note_on,86,0,120
1,note_on,67,44,120
1,note_on,67,0,120
1,note_on,79,43,120
1,note_on,79,0,120
1,note_on,69,48,120
1,note_on,69,0,120
1,note_on,81,45,120
1,note_on,81,0,120
1,note_on,70,58,120
1,note_on,70,0,120
1,note_on,82,51,120
1,note_on,82,0,120
1,note_on,71,53,120
1,note_on,71,0,120
1,note_on,83,50,120
1,note_on,83,0,120
1,note_on,72,58,120
1,note_on,72,0,120
1,note_on,84,43,120
1,note_on,84,0,120
1,note_on,70,52,120
1,note_on,70,0,120
1,note_on,82,43,120
1,note_on,82,0,120
1,note_on,72,55,120
1,note_on,72,0,120
1,note_on,84,46,120
1,note_on,84,0,120
1,note_on,77,55,120
1,note_on,77,0,120
1,note_on,89,44,120
1,note_on,89,0,120
1,note_on,77,62,120
1,note_on,77,0,120
1,note_on,89,52,120
1,note_on,89,0,120
1,note_on,76,64,120
1,note_on,76,0,120
1,note_on,88,50,120
1,note_on,88,0,120
1,note_on,76,72,120
1,note_on,76,0,120
1,note_on,88,65,120
1,note_on,88,0,120
1,note_on,74,70,120
1,note_on,74,0,120
1,note_on,86,57,120
1,note_on,86,0,120
1,note_on,72,63,120
1,note_on,72,0,120
1,note_on,84,49,120
1,note_on,84,0,120
1,note_on,70,58,120
1,note_on,70,0,120
1,note_on,82,48,120
1,note_on,82,0,120
1,note_on,69,60,120
1,note_on,69,0,120
1,note_on,81,48,120
1,note_on,81,0,120
1,note_on,65,58,120
1,note_on,65,0,120
1,note_on,77,50,120
1,note_on,77,0,120
1,note_on,65,66,120
1,note_on,65,0,120
1,note_on,77,60,120
1,note_on,77,0,120
1,note_on,64,64,120
1,note_on,64,0,120
1,note_on,76,51,120
1,note_on,76,0,120
1,note_on,65,59,120
1,note_on,65,0,120
1,note_on,65,44,120
1,note_on,77,52,0
1,note_on,77,0,120
1,note_on,65,0,0
1,note_on,77,61,120
1,note_on,65,51,0
1,note_on,65,0,120
1,note_on,77,0,0
1,note_on,65,38,600
1,note_on,77,45,0
1,note_on,77,0,120
1,note_on,65,0,0
1,note_on,77,51,120
1,note_on,65,43,0
1,note_on,65,0,120
1,note_on,77,0,0
1,note_on,65,44,600
1,note_on,77,52,0
1,note_on,77,0,120
1,note_on,65,0,0
1,note_on,77,61,120
1,note_on,65,51,0
1,note_on,65,0,120
1,note_on,77,0,0
1,note_on,77,53,600
1,note_on,65,45,0
1,note_on,65,0,120
1,note_on,77,0,0
1,note_on,65,48,120
1,note_on,77,57,0
1,note_on,77,0,120
1,note_on,65,0,0
1,note_on,75,52,600
1,note_on,65,44,0
1,note_on,77,52,0
1,note_on,77,0,120
1,note_on,65,0,0
1,note_on,75,0,0
1,note_on,75,61,120
1,note_on,77,61,0
1,note_on,65,51,0
1,note_on,65,0,120
1,note_on,77,0,0
1,note_on,75,0,0
1,note_on,77,51,600
1,note_on,65,43,0
1,note_on,75,51,0
1,note_on,75,0,120
1,note_on,65,0,0
1,note_on,77,0,0
1,note_on,65,48,120
1,note_on,77,57,0
1,note_on,75,57,0
1,note_on,75,0,120
1,note_on,77,0,0
1,note_on,65,0,0
1,note_on,77,57,600
1,note_on,65,48,0
1,note_on,73,57,0
1,note_on,73,0,120
1,note_on,65,0,0
1,note_on,77,0,0
1,note_on,65,56,120
1,note_on,77,66,0
1,note_on,73,66,0
1,note_on,73,0,120
1,note_on,77,0,0
1,note_on,65,0,0
1,note_on,77,54,600
1,note_on,65,45,0
1,note_on,73,54,0
1,note_on,73,0,120
1,note_on,65,0,0
1,note_on,77,0,0
1,note_on,65,50,120
1,note_on,77,59,0
1,note_on,73,59,0
1,note_on,73,0,120
1,note_on,77,0,0
1,note_on,65,0,0
1,note_on,77,60,600
1,note_on,72,51,0
1,note_on,65,51,0
1,note_on,65,0,120
1,note_on,72,0,0
1,note_on,77,0,0
1,note_on,77,60,120
1,note_on,72,51,0
1,note_on,65,51,0
1,note_on,65,0,120
1,note_on,72,0,0
1,note_on,77,0,0
1,note_on,77,66,120
1,note_on,72,56,0
1,note_on,65,56,0
1,note_on,65,0,120
1,note_on,72,0,0
1,note_on,77,0,0
1,note_on,77,78,120
1,note_on,72,64,0
1,note_on,65,64,0
1,note_on,65,0,240
1,note_on,72,0,0
1,note_on,77,0,0
1,note_on,78,66,0
1,note_on,75,56,0
1,note_on,66,56,0
1,note_on,66,0,120
1,note_on,75,0,0
1,note_on,78,0,0
1,note_on,66,55,120
1,note_on,75,55,0
1,note_on,78,65,0
1,note_on,78,0,120
1,note_on,75,0,0
1,note_on,66,0,0
1,note_on,66,52,120
1,note_on,75,52,0
1,note_on,78,62,0
1,note_on,78,0,120
1,note_on,75,0,0
1,note_on,66,0,0
1,note_on,66,63,120
1,note_on,75,63,0
1,note_on,78,75,0
1,note_on,78,0,240
1,note_on,75,0,0
1,note_on,66,0,0
1,note_on,79,63,0
1,note_on,74,53,0
1,note_on,67,53,0
1,note_on,67,0,120
1,note_on,74,0,0
1,note_on,79,0,0
1,note_on,79,63,120
1,note_on,74,54,0
1,note_on,67,54,0
1,note_on,67,0,120
1,note_on,74,0,0
1,note_on,79,0,0
1,note_on,79,69,120
1,note_on,74,59,0
1,note_on,67,59,0
1,note_on,67,0,120
1,note_on,74,0,0
1,note_on,79,0,0
1,note_on,79,82,120
1,note_on,74,69,0
1,note_on,67,69,0
1,note_on,67,0,240
1,note_on,74,0,0
1,note_on,79,0,0
1,note_on,80,78,0
1,note_on,74,66,0
1,note_on,68,66,0
1,note_on,68,0,120
1,note_on,74,0,0
1,note_on,80,0,0
1,note_on,80,77,120
1,note_on,74,65,0
1,note_on,68,65,0
1,note_on,68,0,120
1,note_on,74,0,0
1,note_on,80,0,0
1,note_on,80,71,120
1,note_on,74,60,0
1,note_on,68,60,0
1,note_on,68,0,120
1,note_on,74,0,0
1,note_on,80,0,0
1,note_on,69,67,60
1,note_on,72,67,30
1,note_on,81,79,30
1,note_on,81,0,240
1,note_on,72,0,0
1,note_on,69,0,0
1,note_on,65,42,240
1,note_on,69,50,0
1,note_on,69,0,90
1,note_on,65,0,0
1,note_on,65,45,150
1,note_on,60,38,0
1,note_on,60,0,90
1,note_on,65,0,0
1,note_on,65,42,150
1,note_on,69,50,0
1,note_on,69,0,90
1,note_on,65,0,0
1,note_on,65,38,150
1,note_on,60,38,0
1,note_on,60,0,90
1,note_on,65,0,0
1,note_on,69,54,150
1,note_on,65,45,0
1,note_on,65,0,90
1,note_on,69,0,0
1,note_on,60,48,150
1,note_on,65,57,0
1,note_on,65,0,90
1,note_on,60,0,0
1,note_on,64,60,150
1,note_on,67,72,0
1,note_on,67,0,240
1,note_on,64,0,0
1,note_on,72,47,0
1,note_on,60,39,0
1,note_on,60,0,120
1,note_on,72,0,0
1,note_on,72,47,120
1,note_on,60,39,0
1,note_on,60,0,120
1,note_on,72,0,0
1,note_on,63,48,120
1,note_on,66,57,0
1,note_on,66,0,120
1,note_on,63,0,0
1,note_on,64,60,120
1,note_on,67,72,0
1,note_on,67,0,240
1,note_on,64,0,0
1,note_on,72,47,0
1,note_on,60,39,0
1,note_on,60,0,120
1,note_on,72,0,0
1,note_on,72,47,120
1,note_on,60,39,0
1,note_on,60,0,120
1,note_on,72,0,0
1,note_on,69,64,270
1,note_on,72,64,30
1,note_on,77,64,30
1,note_on,81,75,30
1,note_on,81,0,240
1,note_on,69,0,0
1,note_on,72,0,0
1,note_on,77,0,0
1,note_on,65,42,240
1,note_on,69,50,0
1,note_on,69,0,90
1,note_on,65,0,0
1,note_on,65,45,150
1,note_on,60,38,0
1,note_on,60,0,90
1,note_on,65,0,0
1,note_on,65,42,150
1,note_on,69,50,0
1,note_on,69,0,90
1,note_on,65,0,0
1,note_on,65,38,150
1,note_on,60,38,0
1,note_on,60,0,90
1,note_on,65,0,0
1,note_on,69,54,150
1,note_on,65,45,0
1,note_on,65,0,90
1,note_on,69,0,0
1,note_on,60,46,150
1,note_on,65,55,0
1,note_on,65,0,90
1,note_on,60,0,0
1,note_on,64,60,150
1,note_on,67,72,0
1,note_on,67,0,240
1,note_on,64,0,0
1,note_on,72,47,0
1,note_on,60,39,0
1,note_on,60,0,120
1,note_on,72,0,0
1,note_on,72,47,120
1,note_on,60,39,0
1,note_on,60,0,120
1,note_on,72,0,0
1,note_on,63,46,120
1,note_on,66,55,0
1,note_on,66,0,120
1,note_on,63,0,0
1,note_on,64,60,120
1,note_on,67,72,0
1,note_on,67,0,240
1,note_on,64,0,0
1,note_on,72,47,0
1,note_on,60,39,0
1,note_on,60,0,120
1,note_on,72,0,0
1,note_on,72,47,120
1,note_on,60,39,0
1,note_on,60,0,120
1,note_on,72,0,0
1,note_on,69,61,270
1,note_on,72,61,30
1,note_on,77,61,30
1,note_on,81,72,30
1,note_on,77,0,210
1,note_on,69,0,30
1,note_on,72,0,0
1,note_on,81,0,0
1,note_on,77,63,0
1,note_on,65,53,0
1,note_on,65,0,120
1,note_on,77,0,0
1,note_on,77,64,120
1,note_on,65,54,0
1,note_on,65,0,120
1,note_on,77,0,0
1,note_on,77,65,120
1,note_on,65,55,0
1,note_on,65,0,120
1,note_on,77,0,0
1,note_on,77,65,120
1,note_on,65,55,0
1,note_on,65,0,120
1,note_on,77,0,0
1,note_on,77,67,120
1,note_on,65,56,0
1,note_on,65,0,120
1,note_on,77,0,0
1,note_on,77,69,120
1,note_on,65,58,0
1,note_on,65,0,120
1,note_on,77,0,0
1,note_on,77,70,120
1,note_on,65,59,0
1,note_on,65,0,120
1,note_on,77,0,0
1,note_on,77,77,120
1,note_on,67,65,0
1,note_on,79,77,0
1,note_on,79,0,120
1,note_on,67,0,0
1,note_on,77,0,0
1,note_on,79,69,120
1,note_on,67,58,0
1,note_on,77,69,0
1,note_on,77,0,120
1,note_on,67,0,0
1,note_on,79,0,0
1,note_on,77,71,120
1,note_on,67,60,0
1,note_on,79,71,0
1,note_on,79,0,120
1,note_on,67,0,0
1,note_on,77,0,0
1,note_on,77,72,120
1,note_on,67,61,0
1,note_on,79,72,0
1,note_on,79,0,120
1,note_on,67,0,0
1,note_on,77,0,0
1,note_on,76,73,120
1,note_on,67,62,0
1,note_on,79,73,0
1,note_on,79,0,120
1,note_on,67,0,0
1,note_on,76,0,0
1,note_on,79,73,120
1,note_on,67,62,0
1,note_on,76,73,0
1,note_on,76,0,120
1,note_on,67,0,0
1,note_on,79,0,0
1,note_on,81,73,120
1,note_on,79,73,0
1,note_on,69,62,0
1,note_on,76,62,0
1,note_on,76,0,120
1,note_on,81,0,0
1,note_on,79,0,0
1,note_on,69,0,0
1,note_on,81,73,120
1,note_on,79,73,0
1,note_on,69,62,0
1,note_on,76,62,0
1,note_on,76,0,120
1,note_on,81,0,0
1,note_on,79,0,0
1,note_on,69,0,0
1,note_on,77,78,120
1,note_on,69,66,0
1,note_on,81,78,0
1,note_on,81,0,120
1,note_on,69,0,0
1,note_on,77,0,0
1,note_on,77,70,120
1,note_on,69,59,0
1,note_on,81,70,0
1,note_on,81,0,120
1,note_on,69,0,0
1,note_on,77,0,0
1,note_on,81,74,120
1,note_on,69,62,0
1,note_on,77,74,0
1,note_on,77,0,120
1,note_on,69,0,0
1,note_on,81,0,0
1,note_on,81,76,120
1,note_on,69,64,0
1,note_on,77,76,0
1,note_on,77,0,120
1,note_on,69,0,0
1,note_on,81,0,0
1,note_on,82,77,120
1,note_on,70,65,0
1,note_on,77,77,0
1,note_on,77,0,120
1,note_on,70,0,0
1,note_on,82,0,0
1,note_on,82,79,120
1,note_on,70,67,0
1,note_on,77,79,0
1,note_on,77,0,120
1,note_on,70,0,0
1,note_on,82,0,0
1,note_on,83,81,120
1,note_on,80,81,0
1,note_on,71,68,0
1,note_on,77,68,0
1,note_on,77,0,120
1,note_on,83,0,0
1,note_on,80,0,0
1,note_on,71,0,0
1,note_on,77,72,120
1,note_on,71,72,0
1,note_on,80,85,0
1,note_on,83,85,0
1,note_on,83,0,120
1,note_on,77,0,0
1,note_on,71,0,0
1,note_on,80,0,0
1,note_on,84,94,120
1,note_on,81,79,0
1,note_on,77,79,0
1,note_on,72,79,0
1,note_on,72,0,120
1,note_on,84,0,0
1,note_on,81,0,0
1,note_on,77,0,0
1,note_on,84,84,120
1,note_on,72,71,0
1,note_on,72,0,120
1,note_on,84,0,0
1,note_on,84,84,120
1,note_on,72,71,0
1,note_on,72,0,120
1,note_on,84,0,0
1,note_on,72,66,120
1,note_on,84,78,0
1,note_on,84,0,120
1,note_on,72,0,0
1,note_on,84,94,120
1,note_on,79,79,0
1,note_on,76,79,0
1,note_on,72,79,0
1,note_on,72,0,120
1,note_on,84,0,0
1,note_on,79,0,0
1,note_on,76,0,0
1,note_on,84,84,120
1,note_on,72,71,0
1,note_on,72,0,120
1,note_on,84,0,0
1,note_on,84,84,120
1,note_on,72,71,0
1,note_on,72,0,120
1,note_on,84,0,0
1,note_on,72,66,120
1,note_on,84,78,0
1,note_on,84,0,120
1,note_on,72,0,0
1,note_on,77,86,180
1,note_on,81,86,30
1,note_on,84,86,30
1,note_on,89,103,30
1,note_on,89,0,90
1,note_on,77,0,0
1,note_on,81,0,0
1,note_on,84,0,0
2,note_on,69,26,960
2,note_on,65,20,0
2,note_on,60,20,0
2,note_on,60,0,960
2,note_on,65,0,0
2,note_on,69,0,0
2,note_on,64,28,0
2,note_on,67,36,0
2,note_on,58,28,0
2,note_on,60,28,0
2,note_on,60,0,960
2,note_on,64,0,0
2,note_on,67,0,0
2,note_on,58,0,0
2,note_on,57,38,0
2,note_on,60,38,0
2,note_on,63,38,0
2,note_on,66,48,0
2,note_on,66,0,960
2,note_on,57,0,0
2,note_on,60,0,0
2,note_on,63,0,0
2,note_on,67,34,0
2,note_on,64,27,0
2,note_on,60,27,0
2,note_on,58,27,0
2,note_on,58,0,240
2,note_on,67,0,0
2,note_on,64,0,0
2,note_on,60,0,0
2,note_on,48,43,480
2,note_on,60,52,0
2,note_on,60,0,120
2,note_on,48,0,0
2,note_on,60,62,120
2,note_on,48,52,0
2,note_on,48,0,480
2,note_on,60,0,0
2,note_on,48,42,240
2,note_on,60,51,0
2,note_on,60,0,120
2,note_on,48,0,0
2,note_on,60,66,120
2,note_on,48,56,0
2,note_on,48,0,480
2,note_on,60,0,0
2,note_on,60,53,240
2,note_on,48,45,0
2,note_on,48,0,120
2,note_on,60,0,0
2,note_on,60,66,120
2,note_on,48,56,0
2,note_on,48,0,480
2,note_on,60,0,0
2,note_on,60,31,480
2,note_on,57,24,0
2,note_on,53,24,0
2,note_on,53,0,120
2,note_on,57,0,0
2,note_on,60,0,0
2,note_on,53,16,120
2,note_on,57,16,0
2,note_on,60,20,0
2,note_on,60,0,120
2,note_on,57,0,0
2,note_on,53,0,0
2,note_on,60,31,120
2,note_on,57,24,0
2,note_on,53,24,0
2,note_on,53,0,120
2,note_on,57,0,0
2,note_on,60,0,0
2,note_on,53,18,120
2,note_on,57,18,0
2,note_on,60,23,0
2,note_on,60,0,120
2,note_on,57,0,0
2,note_on,53,0,0
2,note_on,53,28,120
2,note_on,57,28,0
2,note_on,60,36,0
2,note_on,60,0,120
2,note_on,57,0,0
2,note_on,53,0,0
2,note_on,53,19,120
2,note_on,57,19,0
2,note_on,60,24,0
2,note_on,60,0,120
2,note_on,57,0,0
2,note_on,53,0,0
2,note_on,53,29,120
2,note_on,57,29,0
2,note_on,60,37,0
2,note_on,60,0,120
2,note_on,57,0,0
2,note_on,53,0,0
2,note_on,53,19,120
2,note_on,57,19,0
2,note_on,60,24,0
2,note_on,60,0,120
2,note_on,57,0,0
2,note_on,53,0,0
2,note_on,53,30,120
2,note_on,57,30,0
2,note_on,61,38,0
2,note_on,61,0,120
2,note_on,57,0,0
2,note_on,53,0,0
2,note_on,61,24,120
2,note_on,57,19,0
2,note_on,53,19,0
2,note_on,53,0,120
2,note_on,57,0,0
2,note_on,61,0,0
2,note_on,53,33,120
2,note_on,57,33,0
2,note_on,61,42,0
2,note_on,61,0,120
2,note_on,57,0,0
2,note_on,53,0,0
2,note_on,61,27,120
2,note_on,57,21,0
2,note_on,53,21,0
2,note_on,53,0,120
2,note_on,57,0,0
2,note_on,61,0,0
2,note_on,62,47,120
2,note_on,57,37,0
2,note_on,53,37,0
2,note_on,53,0,120
2,note_on,57,0,0
2,note_on,62,0,0
2,note_on,53,21,120
2,note_on,57,21,0
2,note_on,62,27,0
2,note_on,62,0,120
2,note_on,57,0,0
2,note_on,53,0,0
2,note_on,53,29,120
2,note_on,57,29,0
2,note_on,62,37,0
2,note_on,62,0,120
2,note_on,57,0,0
2,note_on,53,0,0
2,note_on,53,19,120
2,note_on,57,19,0
2,note_on,62,24,0
2,note_on,62,0,120
2,note_on,57,0,0
2,note_on,53,0,0
2,note_on,55,33,120
2,note_on,58,33,0
2,note_on,62,42,0
2,note_on,53,33,0
2,note_on,53,0,120
2,note_on,55,0,0
2,note_on,58,0,0
2,note_on,62,0,0
2,note_on,62,27,120
2,note_on,58,21,0
2,note_on,55,21,0
2,note_on,53,21,0
2,note_on,53,0,120
2,note_on,62,0,0
2,note_on,58,0,0
2,note_on,55,0,0
2,note_on,55,24,120
2,note_on,62,31,0
2,note_on,58,24,0
2,note_on,53,24,0
2,note_on,53,0,120
2,note_on,55,0,0
2,note_on,62,0,0
2,note_on,58,0,0
2,note_on,55,18,120
2,note_on,53,18,0
2,note_on,58,18,0
2,note_on,62,23,0
2,note_on,62,0,120
2,note_on,55,0,0
2,note_on,53,0,0
2,note_on,58,0,0
2,note_on,55,28,120
2,note_on,53,28,0
2,note_on,58,28,0
2,note_on,62,36,0
2,note_on,62,0,120
2,note_on,55,0,0
2,note_on,53,0,0
2,note_on,58,0,0
2,note_on,55,19,120
2,note_on,53,19,0
2,note_on,58,19,0
2,note_on,62,24,0
2,note_on,62,0,120
2,note_on,55,0,0
2,note_on,53,0,0
2,note_on,58,0,0
2,note_on,55,29,120
2,note_on,53,29,0
2,note_on,58,29,0
2,note_on,62,37,0
2,note_on,62,0,120
2,note_on,55,0,0
2,note_on,53,0,0
2,note_on,58,0,0
2,note_on,55,19,120
2,note_on,53,19,0
2,note_on,58,19,0
2,note_on,62,24,0
2,note_on,62,0,120
2,note_on,55,0,0
2,note_on,53,0,0
2,note_on,58,0,0
2,note_on,52,30,120
2,note_on,55,30,0
2,note_on,60,38,0
2,note_on,60,0,120
2,note_on,55,0,0
2,note_on,52,0,0
2,note_on,60,24,120
2,note_on,55,19,0
2,note_on,52,19,0
2,note_on,52,0,120
2,note_on,55,0,0
2,note_on,60,0,0
2,note_on,52,33,120
2,note_on,55,33,0
2,note_on,60,42,0
2,note_on,60,0,120
2,note_on,55,0,0
2,note_on,52,0,0
2,note_on,60,27,120
2,note_on,55,21,0
2,note_on,52,21,0
2,note_on,52,0,120
2,note_on,55,0,0
2,note_on,60,0,0
2,note_on,60,47,120
2,note_on,55,37,0
2,note_on,52,37,0
2,note_on,52,0,120
2,note_on,55,0,0
2,note_on,60,0,0
2,note_on,52,21,120
2,note_on,55,21,0
2,note_on,60,27,0
2,note_on,60,0,120
2,note_on,55,0,0
2,note_on,52,0,0
2,note_on,52,29,120
2,note_on,55,29,0
2,note_on,60,37,0
2,note_on,60,0,120
2,note_on,55,0,0
2,note_on,52,0,0
2,note_on,52,19,120
2,note_on,55,19,0
2,note_on,60,24,0
2,note_on,60,0,120
2,note_on,55,0,0
2,note_on,52,0,0
2,note_on,53,29,120
2,note_on,57,29,0
2,note_on,60,37,0
2,note_on,60,0,120
2,note_on,57,0,0
2,note_on,53,0,0
2,note_on,60,24,120
2,note_on,57,19,0
2,note_on,53,19,0
2,note_on,53,0,120
2,note_on,57,0,0
2,note_on,60,0,0
2,note_on,53,32,120
2,note_on,57,32,0
2,note_on,60,40,0
2,note_on,60,0,120
2,note_on,57,0,0
2,note_on,53,0,0
2,note_on,60,28,120
2,note_on,57,21,0
2,note_on,53,21,0
2,note_on,53,0,120
2,note_on,57,0,0
2,note_on,60,0,0
2,note_on,67,47,120
2,note_on,57,36,0
2,note_on,61,36,0
2,note_on,61,0,120
2,note_on,57,0,0
2,note_on,67,0,0
2,note_on,67,31,120
2,note_on,57,24,0
2,note_on,61,24,0
2,note_on,61,0,120
2,note_on,57,0,0
2,note_on,67,0,0
2,note_on,67,44,120
2,note_on,57,35,0
2,note_on,61,35,0
2,note_on,61,0,120
2,note_on,57,0,0
2,note_on,67,0,0
2,note_on,67,30,120
2,note_on,57,24,0
2,note_on,61,24,0
2,note_on,61,0,120
2,note_on,57,0,0
2,note_on,67,0,0
2,note_on,67,50,120
2,note_on,61,38,0
2,note_on,58,38,0
2,note_on,58,0,120
2,note_on,61,0,0
2,note_on,67,0,0
2,note_on,67,33,120
2,note_on,61,26,0
2,note_on,58,26,0
2,note_on,58,0,120
2,note_on,61,0,0
2,note_on,67,0,0
2,note_on,65,49,120
2,note_on,62,39,0
2,note_on,58,39,0
2,note_on,58,0,120
2,note_on,62,0,0
2,note_on,65,0,0
2,note_on,58,22,120
2,note_on,62,22,0
2,note_on,65,28,0
2,note_on,65,0,120
2,note_on,62,0,0
2,note_on,58,0,0
2,note_on,69,47,120
2,note_on,62,36,0
2,note_on,58,36,0
2,note_on,58,0,120
2,note_on,62,0,0
2,note_on,69,0,0
2,note_on,69,27,120
2,note_on,62,21,0
2,note_on,58,21,0
2,note_on,58,0,120
2,note_on,62,0,0
2,note_on,69,0,0
2,note_on,67,46,120
2,note_on,62,36,0
2,note_on,58,36,0
2,note_on,58,0,120
2,note_on,62,0,0
2,note_on,67,0,0
2,note_on,67,29,120
2,note_on,62,23,0
2,note_on,58,23,0
2,note_on,58,0,120
2,note_on,62,0,0
2,note_on,67,0,0
2,note_on,60,39,120
2,note_on,65,46,0
2,note_on,65,0,120
2,note_on,60,0,0
2,note_on,65,28,120
2,note_on,60,24,0
2,note_on,60,0,120
2,note_on,65,0,0
2,note_on,57,36,120
2,note_on,60,44,0
2,note_on,60,0,120
2,note_on,57,0,0
2,note_on,60,29,120
2,note_on,57,24,0
2,note_on,57,0,120
2,note_on,60,0,0
2,note_on,61,49,120
2,note_on,58,41,0
2,note_on,55,41,0
2,note_on,55,0,120
2,note_on,58,0,0
2,note_on,61,0,0
2,note_on,61,35,120
2,note_on,58,28,0
2,note_on,55,28,0
2,note_on,55,0,120
2,note_on,58,0,0
2,note_on,61,0,0
2,note_on,60,54,120
2,note_on,58,44,0
2,note_on,55,44,0
2,note_on,55,0,120
2,note_on,58,0,0
2,note_on,60,0,0
2,note_on,60,37,120
2,note_on,58,31,0
2,note_on,55,31,0
2,note_on,55,0,120
2,note_on,58,0,0
2,note_on,60,0,0
2,note_on,60,43,120
2,note_on,57,36,0
2,note_on,53,36,0
2,note_on,53,0,120
2,note_on,57,0,0
2,note_on,60,0,0
2,note_on,53,31,120
2,note_on,57,31,0
2,note_on,60,36,0
2,note_on,60,0,120
2,note_on,57,0,0
2,note_on,53,0,0
2,note_on,62,50,120
2,note_on,53,42,0
2,note_on,53,0,120
2,note_on,62,0,0
2,note_on,53,35,120
2,note_on,62,42,0
2,note_on,62,0,120
2,note_on,53,0,0
2,note_on,53,41,120
2,note_on,60,49,0
2,note_on,60,0,120
2,note_on,53,0,0
2,note_on,60,39,120
2,note_on,53,32,0
2,note_on,53,0,120
2,note_on,60,0,0
2,note_on,53,27,120
2,note_on,58,42,0
2,note_on,58,0,120
2,note_on,53,0,0
2,note_on,53,23,120
2,note_on,58,35,0
2,note_on,58,0,120
2,note_on,53,0,0
2,note_on,60,31,120
2,note_on,57,24,0
2,note_on,53,24,0
2,note_on,53,0,120
2,note_on,57,0,0
2,note_on,60,0,0
2,note_on,53,16,120
2,note_on,57,16,0
2,note_on,60,20,0
2,note_on,60,0,120
2,note_on,57,0,0
2,note_on,53,0,0
2,note_on,60,31,120
2,note_on,57,24,0
2,note_on,53,24,0
2,note_on,53,0,120
2,note_on,57,0,0
2,note_on,60,0,0
2,note_on,53,18,120
2,note_on,57,18,0
2,note_on,60,23,0
2,note_on,60,0,120
2,note_on,57,0,0
2,note_on,53,0,0
2,note_on,53,28,120
2,note_on,57,28,0
2,note_on,60,36,0
2,note_on,60,0,120
2,note_on,57,0,0
2,note_on,53,0,0
2,note_on,53,19,120
2,note_on,57,19,0
2,note_on,60,24,0
2,note_on,60,0,120
2,note_on,57,0,0
2,note_on,53,0,0
2,note_on,53,29,120
2,note_on,57,29,0
2,note_on,60,37,0
2,note_on,60,0,120
2,note_on,57,0,0
2,note_on,53,0,0
2,note_on,53,19,120
2,note_on,57,19,0
2,note_on,60,24,0
2,note_on,60,0,120
2,note_on,57,0,0
2,note_on,53,0,0
2,note_on,53,30,120
2,note_on,57,30,0
2,note_on,61,38,0
2,note_on,61,0,120
2,note_on,57,0,0
2,note_on,53,0,0
2,note_on,61,24,120
2,note_on,57,19,0
2,note_on,53,19,0
2,note_on,53,0,120
2,note_on,57,0,0
2,note_on,61,0,0
2,note_on,53,33,120
2,note_on,57,33,0
2,note_on,61,42,0
2,note_on,61,0,120
2,note_on,57,0,0
2,note_on,53,0,0
2,note_on,61,27,120
2,note_on,57,21,0
2,note_on,53,21,0
2,note_on,53,0,120
2,note_on,57,0,0
2,note_on,61,0,0
2,note_on,62,47,120
2,note_on,57,37,0
2,note_on,53,37,0
2,note_on,53,0,120
2,note_on,57,0,0
2,note_on,62,0,0
2,note_on,53,21,120
2,note_on,57,21,0
2,note_on,62,27,0
2,note_on,62,0,120
2,note_on,57,0,0
2,note_on,53,0,0
2,note_on,53,29,120
2,note_on,57,29,0
2,note_on,62,37,0
2,note_on,62,0,120
2,note_on,57,0,0
2,note_on,53,0,0
2,note_on,53,19,120
2,note_on,57,19,0
2,note_on,62,24,0
2,note_on,62,0,120
2,note_on,57,0,0
2,note_on,53,0,0
2,note_on,53,27,120
2,note_on,62,35,0
2,note_on,58,27,0
2,note_on,55,27,0
2,note_on,55,0,120
2,note_on,53,0,0
2,note_on,62,0,0
2,note_on,58,0,0
2,note_on,53,16,120
2,note_on,55,16,0
2,note_on,58,16,0
2,note_on,62,20,0
2,note_on,62,0,120
2,note_on,53,0,0
2,note_on,55,0,0
2,note_on,58,0,0
2,note_on,55,24,120
2,note_on,62,31,0
2,note_on,58,24,0
2,note_on,53,24,0
2,note_on,53,0,120
2,note_on,55,0,0
2,note_on,62,0,0
2,note_on,58,0,0
2,note_on,55,18,120
2,note_on,53,18,0
2,note_on,58,18,0
2,note_on,62,23,0
2,note_on,62,0,120
2,note_on,55,0,0
2,note_on,53,0,0
2,note_on,58,0,0
2,note_on,55,28,120
2,note_on,53,28,0
2,note_on,58,28,0
2,note_on,62,36,0
2,note_on,62,0,120
2,note_on,55,0,0
2,note_on,53,0,0
2,note_on,58,0,0
2,note_on,55,19,120
2,note_on,53,19,0
2,note_on,58,19,0
2,note_on,62,24,0
2,note_on,62,0,120
2,note_on,55,0,0
2,note_on,53,0,0
2,note_on,58,0,0
2,note_on,55,29,120
2,note_on,53,29,0
2,note_on,58,29,0
2,note_on,62,37,0
2,note_on,62,0,120
2,note_on,55,0,0
2,note_on,53,0,0
2,note_on,58,0,0
2,note_on,55,19,120
2,note_on,53,19,0
2,note_on,58,19,0
2,note_on,62,24,0
2,note_on,62,0,120
2,note_on,55,0,0
2,note_on,53,0,0
2,note_on,58,0,0
2,note_on,52,30,120
2,note_on,55,30,0
2,note_on,60,38,0
2,note_on,60,0,120
2,note_on,55,0,0
2,note_on,52,0,0
2,note_on,60,24,120
2,note_on,55,19,0
2,note_on,52,19,0
2,note_on,52,0,120
2,note_on,55,0,0
2,note_on,60,0,0
2,note_on,52,33,120
2,note_on,55,33,0
2,note_on,60,42,0
2,note_on,60,0,120
2,note_on,55,0,0
2,note_on,52,0,0
2,note_on,60,27,120
2,note_on,55,21,0
2,note_on,52,21,0
2,note_on,52,0,120
2,note_on,55,0,0
2,note_on,60,0,0
2,note_on,60,47,120
2,note_on,55,37,0
2,note_on,52,37,0
2,note_on,52,0,120
2,note_on,55,0,0
2,note_on,60,0,0
2,note_on,52,21,120
2,note_on,55,21,0
2,note_on,60,27,0
2,note_on,60,0,120
2,note_on,55,0,0
2,note_on,52,0,0
2,note_on,52,29,120
2,note_on,55,29,0
2,note_on,60,37,0
2,note_on,60,0,120
2,note_on,55,0,0
2,note_on,52,0,0
2,note_on,52,19,120
2,note_on,55,19,0
2,note_on,60,24,0
2,note_on,60,0,120
2,note_on,55,0,0
2,note_on,52,0,0
2,note_on,53,29,120
2,note_on,57,29,0
2,note_on,60,37,0
2,note_on,60,0,120
2,note_on,57,0,0
2,note_on,53,0,0
2,note_on,60,24,120
2,note_on,57,19,0
2,note_on,53,19,0
2,note_on,53,0,120
2,note_on,57,0,0
2,note_on,60,0,0
2,note_on,53,32,120
2,note_on,57,32,0
2,note_on,60,40,0
2,note_on,60,0,120
2,note_on,57,0,0
2,note_on,53,0,0
2,note_on,60,28,120
2,note_on,57,21,0
2,note_on,53,21,0
2,note_on,53,0,120
2,note_on,57,0,0
2,note_on,60,0,0
2,note_on,67,47,120
2,note_on,57,36,0
2,note_on,61,36,0
2,note_on,61,0,120
2,note_on,57,0,0
2,note_on,67,0,0
2,note_on,67,31,120
2,note_on,57,24,0
2,note_on,61,24,0
2,note_on,61,0,120
2,note_on,57,0,0
2,note_on,67,0,0
2,note_on,67,44,120
2,note_on,57,35,0
2,note_on,61,35,0
2,note_on,61,0,120
2,note_on,57,0,0
2,note_on,67,0,0
2,note_on,67,30,120
2,note_on,57,24,0
2,note_on,61,24,0
2,note_on,61,0,120
2,note_on,57,0,0
2,note_on,67,0,0
2,note_on,67,50,120
2,note_on,61,38,0
2,note_on,58,38,0
2,note_on,58,0,120
2,note_on,61,0,0
2,note_on,67,0,0
2,note_on,67,33,120
2,note_on,61,26,0
2,note_on,58,26,0
2,note_on,58,0,120
2,note_on,61,0,0
2,note_on,67,0,0
2,note_on,65,49,120
2,note_on,62,39,0
2,note_on,58,39,0
2,note_on,58,0,120
2,note_on,62,0,0
2,note_on,65,0,0
2,note_on,58,22,120
2,note_on,62,22,0
2,note_on,65,28,0
2,note_on,65,0,120
2,note_on,62,0,0
2,note_on,58,0,0
2,note_on,69,47,120
2,note_on,62,36,0
2,note_on,58,36,0
2,note_on,58,0,120
2,note_on,62,0,0
2,note_on,69,0,0
2,note_on,69,27,120
2,note_on,62,21,0
2,note_on,58,21,0
2,note_on,58,0,120
2,note_on,62,0,0
2,note_on,69,0,0
2,note_on,67,46,120
2,note_on,62,36,0
2,note_on,58,36,0
2,note_on,58,0,120
2,note_on,62,0,0
2,note_on,67,0,0
2,note_on,67,29,120
2,note_on,62,23,0
2,note_on,58,23,0
2,note_on,58,0,120
2,note_on,62,0,0
2,note_on,67,0,0
2,note_on,60,39,120
2,note_on,65,46,0
2,note_on,65,0,120
2,note_on,60,0,0
2,note_on,65,36,120
2,note_on,60,31,0
2,note_on,60,0,120
2,note_on,65,0,0
2,note_on,57,36,120
2,note_on,60,44,0
2,note_on,60,0,120
2,note_on,57,0,0
2,note_on,60,37,120
2,note_on,57,31,0
2,note_on,57,0,120
2,note_on,60,0,0
2,note_on,61,49,120
2,note_on,58,41,0
2,note_on,55,41,0
2,note_on,55,0,120
2,note_on,58,0,0
2,note_on,61,0,0
2,note_on,61,44,120
2,note_on,58,36,0
2,note_on,55,36,0
2,note_on,55,0,120
2,note_on,58,0,0
2,note_on,61,0,0
2,note_on,60,54,120
2,note_on,58,44,0
2,note_on,55,44,0
2,note_on,55,0,120
2,note_on,58,0,0
2,note_on,60,0,0
2,note_on,60,47,120
2,note_on,58,39,0
2,note_on,55,39,0
2,note_on,55,0,120
2,note_on,58,0,0
2,note_on,60,0,0
2,note_on,60,43,120
2,note_on,57,36,0
2,note_on,53,36,0
2,note_on,53,0,480
2,note_on,57,0,0
2,note_on,60,0,0
2,note_on,53,42,240
2,note_on,41,35,0
2,note_on,41,0,120
2,note_on,53,0,0
2,note_on,53,52,120
2,note_on,41,43,0
2,note_on,41,0,480
2,note_on,53,0,0
2,note_on,38,37,480
2,note_on,38,0,120
2,note_on,50,35,120
2,note_on,50,0,120
2,note_on,41,39,120
2,note_on,41,0,120
2,note_on,53,38,120
2,note_on,53,0,120
2,note_on,44,48,120
2,note_on,44,0,120
2,note_on,56,42,120
2,note_on,56,0,120
2,note_on,45,54,120
2,note_on,45,0,120
2,note_on,57,48,120
2,note_on,57,0,120
2,note_on,46,60,120
2,note_on,46,0,120
2,note_on,58,49,120
2,note_on,58,0,120
2,note_on,45,57,120
2,note_on,45,0,120
2,note_on,57,46,120
2,note_on,57,0,120
2,note_on,41,53,120
2,note_on,41,0,120
2,note_on,53,41,120
2,note_on,53,0,120
2,note_on,38,51,120
2,note_on,38,0,120
2,note_on,50,42,120
2,note_on,50,0,120
2,note_on,43,42,120
2,note_on,43,0,120
2,note_on,55,40,120
2,note_on,55,0,120
2,note_on,45,44,120
2,note_on,45,0,120
2,note_on,57,43,120
2,note_on,57,0,120
2,note_on,46,55,120
2,note_on,46,0,120
2,note_on,58,48,120
2,note_on,58,0,120
2,note_on,43,62,120
2,note_on,43,0,120
2,note_on,55,55,120
2,note_on,55,0,120
2,note_on,45,69,120
2,note_on,45,0,120
2,note_on,57,56,120
2,note_on,57,0,120
2,note_on,43,65,120
2,note_on,43,0,120
2,note_on,55,52,120
2,note_on,55,0,120
2,note_on,41,66,120
2,note_on,41,0,120
2,note_on,53,53,120
2,note_on,53,0,120
2,note_on,40,67,120
2,note_on,40,0,120
2,note_on,52,58,120
2,note_on,52,0,120
2,note_on,38,59,120
2,note_on,38,0,240
2,note_on,50,49,0
2,note_on,50,0,120
2,note_on,33,58,120
2,note_on,33,0,240
2,note_on,45,52,0
2,note_on,45,0,120
2,note_on,38,59,120
2,note_on,38,0,240
2,note_on,50,53,0
2,note_on,50,0,120
2,note_on,36,64,120
2,note_on,36,0,240
2,note_on,48,55,0
2,note_on,48,0,120
2,note_on,41,73,120
2,note_on,41,0,240
2,note_on,53,60,0
2,note_on,53,0,120
2,note_on,40,71,120
2,note_on,40,0,240
2,note_on,52,63,0
2,note_on,52,0,120
2,note_on,45,71,120
2,note_on,45,0,240
2,note_on,57,63,0
2,note_on,57,0,120
2,note_on,43,77,120
2,note_on,43,0,240
2,note_on,55,66,0
2,note_on,55,0,120
2,note_on,48,82,120
2,note_on,48,0,120
2,note_on,60,65,120
2,note_on,60,0,120
2,note_on,48,74,120
2,note_on,48,0,120
2,note_on,60,58,120
2,note_on,60,0,120
2,note_on,48,67,120
2,note_on,48,0,120
2,note_on,60,55,120
2,note_on,60,0,120
2,note_on,48,67,120
2,note_on,48,0,120
2,note_on,60,58,120
2,note_on,60,0,120
2,note_on,48,68,120
2,note_on,48,0,120
2,note_on,60,52,120
2,note_on,60,0,120
2,note_on,48,58,120
2,note_on,48,0,120
2,note_on,60,44,120
2,note_on,60,0,120
2,note_on,48,45,120
2,note_on,48,0,120
2,note_on,60,34,120
2,note_on,60,0,120
2,note_on,48,39,120
2,note_on,48,0,120
2,note_on,60,30,120
2,note_on,60,0,120
2,note_on,60,31,120
2,note_on,57,24,0
2,note_on,53,24,0
2,note_on,53,0,120
2,note_on,57,0,0
2,note_on,60,0,0
2,note_on,53,16,120
2,note_on,57,16,0
2,note_on,60,20,0
2,note_on,60,0,120
2,note_on,57,0,0
2,note_on,53,0,0
2,note_on,60,31,120
2,note_on,57,24,0
2,note_on,53,24,0
2,note_on,53,0,120
2,note_on,57,0,0
2,note_on,60,0,0
2,note_on,53,18,120
2,note_on,57,18,0
2,note_on,60,23,0
2,note_on,60,0,120
2,note_on,57,0,0
2,note_on,53,0,0
2,note_on,53,28,120
2,note_on,57,28,0
2,note_on,60,36,0
2,note_on,60,0,120
2,note_on,57,0,0
2,note_on,53,0,0
2,note_on,53,19,120
2,note_on,57,19,0
2,note_on,60,24,0
2,note_on,60,0,120
2,note_on,57,0,0
2,note_on,53,0,0
2,note_on,53,29,120
2,note_on,57,29,0
2,note_on,60,37,0
2,note_on,60,0,120
2,note_on,57,0,0
2,note_on,53,0,0
2,note_on,53,19,120
2,note_on,57,19,0
2,note_on,60,24,0
2,note_on,60,0,120
2,note_on,57,0,0
2,note_on,53,0,0
2,note_on,53,30,120
2,note_on,57,30,0
2,note_on,61,38,0
2,note_on,61,0,120
2,note_on,57,0,0
2,note_on,53,0,0
2,note_on,61,24,120
2,note_on,57,19,0
2,note_on,53,19,0
2,note_on,53,0,120
2,note_on,57,0,0
2,note_on,61,0,0
2,note_on,53,33,120
2,note_on,57,33,0
2,note_on,61,42,0
2,note_on,61,0,120
2,note_on,57,0,0
2,note_on,53,0,0
2,note_on,61,27,120
2,note_on,57,21,0
2,note_on,53,21,0
2,note_on,53,0,120
2,note_on,57,0,0
2,note_on,61,0,0
2,note_on,62,47,120
2,note_on,57,37,0
2,note_on,53,37,0
2,note_on,53,0,120
2,note_on,57,0,0
2,note_on,62,0,0
2,note_on,53,21,120
2,note_on,57,21,0
2,note_on,62,27,0
2,note_on,62,0,120
2,note_on,57,0,0
2,note_on,53,0,0
2,note_on,53,29,120
2,note_on,57,29,0
2,note_on,62,37,0
2,note_on,62,0,120
2,note_on,57,0,0
2,note_on,53,0,0
2,note_on,53,19,120
2,note_on,57,19,0
2,note_on,62,24,0
2,note_on,62,0,120
2,note_on,57,0,0
2,note_on,53,0,0
2,note_on,53,27,120
2,note_on,62,35,0
2,note_on,58,27,0
2,note_on,55,27,0
2,note_on,55,0,120
2,note_on,53,0,0
2,note_on,62,0,0
2,note_on,58,0,0
2,note_on,53,16,120
2,note_on,55,16,0
2,note_on,58,16,0
2,note_on,62,20,0
2,note_on,62,0,120
2,note_on,53,0,0
2,note_on,55,0,0
2,note_on,58,0,0
2,note_on,55,24,120
2,note_on,62,31,0
2,note_on,58,24,0
2,note_on,53,24,0
2,note_on,53,0,120
2,note_on,55,0,0
2,note_on,62,0,0
2,note_on,58,0,0
2,note_on,55,18,120
2,note_on,53,18,0
2,note_on,58,18,0
2,note_on,62,23,0
2,note_on,62,0,120
2,note_on,55,0,0
2,note_on,53,0,0
2,note_on,58,0,0
2,note_on,55,28,120
2,note_on,53,28,0
2,note_on,58,28,0
2,note_on,62,36,0
2,note_on,62,0,120
2,note_on,55,0,0
2,note_on,53,0,0
2,note_on,58,0,0
2,note_on,55,19,120
2,note_on,53,19,0
2,note_on,58,19,0
2,note_on,62,24,0
2,note_on,62,0,120
2,note_on,55,0,0
2,note_on,53,0,0
2,note_on,58,0,0
2,note_on,55,29,120
2,note_on,53,29,0
2,note_on,58,29,0
2,note_on,62,37,0
2,note_on,62,0,120
2,note_on,55,0,0
2,note_on,53,0,0
2,note_on,58,0,0
2,note_on,55,19,120
2,note_on,53,19,0
2,note_on,58,19,0
2,note_on,62,24,0
2,note_on,62,0,120
2,note_on,55,0,0
2,note_on,53,0,0
2,note_on,58,0,0
2,note_on,52,30,120
2,note_on,55,30,0
2,note_on,60,38,0
2,note_on,60,0,120
2,note_on,55,0,0
2,note_on,52,0,0
2,note_on,60,24,120
2,note_on,55,19,0
2,note_on,52,19,0
2,note_on,52,0,120
2,note_on,55,0,0
2,note_on,60,0,0
2,note_on,52,33,120
2,note_on,55,33,0
2,note_on,60,42,0
2,note_on,60,0,120
2,note_on,55,0,0
2,note_on,52,0,0
2,note_on,60,27,120
2,note_on,55,21,0
2,note_on,52,21,0
2,note_on,52,0,120
2,note_on,55,0,0
2,note_on,60,0,0
2,note_on,60,47,120
2,note_on,55,37,0
2,note_on,52,37,0
2,note_on,52,0,120
2,note_on,55,0,0
2,note_on,60,0,0
2,note_on,52,21,120
2,note_on,55,21,0
2,note_on,60,27,0
2,note_on,60,0,120
2,note_on,55,0,0
2,note_on,52,0,0
2,note_on,52,29,120
2,note_on,55,29,0
2,note_on,60,37,0
2,note_on,60,0,120
2,note_on,55,0,0
2,note_on,52,0,0
2,note_on,52,19,120
2,note_on,55,19,0
2,note_on,60,24,0
2,note_on,60,0,120
2,note_on,55,0,0
2,note_on,52,0,0
2,note_on,53,29,120
2,note_on,57,29,0
2,note_on,60,37,0
2,note_on,60,0,120
2,note_on,57,0,0
2,note_on,53,0,0
2,note_on,60,24,120
2,note_on,57,19,0
2,note_on,53,19,0
2,note_on,53,0,120
2,note_on,57,0,0
2,note_on,60,0,0
2,note_on,53,32,120
2,note_on,57,32,0
2,note_on,60,40,0
2,note_on,60,0,120
2,note_on,57,0,0
2,note_on,53,0,0
2,note_on,60,28,120
2,note_on,57,21,0
2,note_on,53,21,0
2,note_on,53,0,120
2,note_on,57,0,0
2,note_on,60,0,0
2,note_on,67,47,120
2,note_on,57,36,0
2,note_on,61,36,0
2,note_on,61,0,120
2,note_on,57,0,0
2,note_on,67,0,0
2,note_on,67,31,120
2,note_on,57,24,0
2,note_on,61,24,0
2,note_on,61,0,120
2,note_on,57,0,0
2,note_on,67,0,0
2,note_on,67,44,120
2,note_on,57,35,0
2,note_on,61,35,0
2,note_on,61,0,120
2,note_on,57,0,0
2,note_on,67,0,0
2,note_on,67,30,120
2,note_on,57,24,0
2,note_on,61,24,0
2,note_on,61,0,120
2,note_on,57,0,0
2,note_on,67,0,0
2,note_on,67,50,120
2,note_on,61,38,0
2,note_on,58,38,0
2,note_on,58,0,120
2,note_on,61,0,0
2,note_on,67,0,0
2,note_on,67,33,120
2,note_on,61,26,0
2,note_on,58,26,0
2,note_on,58,0,120
2,note_on,61,0,0
2,note_on,67,0,0
2,note_on,65,49,120
2,note_on,62,39,0
2,note_on,58,39,0
2,note_on,58,0,120
2,note_on,62,0,0
2,note_on,65,0,0
2,note_on,58,22,120
2,note_on,62,22,0
2,note_on,65,28,0
2,note_on,65,0,120
2,note_on,62,0,0
2,note_on,58,0,0
2,note_on,69,47,120
2,note_on,62,36,0
2,note_on,58,36,0
2,note_on,58,0,120
2,note_on,62,0,0
2,note_on,69,0,0
2,note_on,69,27,120
2,note_on,62,21,0
2,note_on,58,21,0
2,note_on,58,0,120
2,note_on,62,0,0
2,note_on,69,0,0
2,note_on,67,46,120
2,note_on,62,36,0
2,note_on,58,36,0
2,note_on,58,0,120
2,note_on,62,0,0
2,note_on,67,0,0
2,note_on,67,29,120
2,note_on,62,23,0
2,note_on,58,23,0
2,note_on,58,0,120
2,note_on,62,0,0
2,note_on,67,0,0
2,note_on,60,39,120
2,note_on,65,46,0
2,note_on,65,0,120
2,note_on,60,0,0
2,note_on,65,36,120
2,note_on,60,31,0
2,note_on,60,0,120
2,note_on,65,0,0
2,note_on,57,36,120
2,note_on,60,44,0
2,note_on,60,0,120
2,note_on,57,0,0
2,note_on,60,37,120
2,note_on,57,31,0
2,note_on,57,0,120
2,note_on,60,0,0
2,note_on,61,49,120
2,note_on,58,41,0
2,note_on,55,41,0
2,note_on,55,0,120
2,note_on,58,0,0
2,note_on,61,0,0
2,note_on,61,44,120
2,note_on,58,36,0
2,note_on,55,36,0
2,note_on,55,0,120
2,note_on,58,0,0
2,note_on,61,0,0
2,note_on,60,54,120
2,note_on,58,44,0
2,note_on,55,44,0
2,note_on,55,0,120
2,note_on,58,0,0
2,note_on,60,0,0
2,note_on,60,47,120
2,note_on,58,39,0
2,note_on,55,39,0
2,note_on,55,0,120
2,note_on,58,0,0
2,note_on,60,0,0
2,note_on,60,43,120
2,note_on,57,36,0
2,note_on,53,36,0
2,note_on,53,0,480
2,note_on,57,0,0
2,note_on,60,0,0
2,note_on,53,39,240
2,note_on,65,47,0
2,note_on,65,0,120
2,note_on,53,0,0
2,note_on,53,45,120
2,note_on,65,53,0
2,note_on,65,0,480
2,note_on,53,0,0
2,note_on,51,42,240
2,note_on,63,51,0
2,note_on,63,0,120
2,note_on,51,0,0
2,note_on,49,49,120
2,note_on,61,58,0
2,note_on,61,0,480
2,note_on,49,0,0
2,note_on,53,39,240
2,note_on,65,47,0
2,note_on,65,0,120
2,note_on,53,0,0
2,note_on,53,45,120
2,note_on,65,53,0
2,note_on,65,0,480
2,note_on,53,0,0
2,note_on,61,61,240
2,note_on,49,51,0
2,note_on,49,0,120
2,note_on,61,0,0
2,note_on,60,69,120
2,note_on,48,58,0
2,note_on,48,0,480
2,note_on,60,0,0
2,note_on,65,54,240
2,note_on,53,45,0
2,note_on,53,0,120
2,note_on,65,0,0
2,note_on,65,63,120
2,note_on,53,53,0
2,note_on,53,0,480
2,note_on,65,0,0
2,note_on,60,62,240
2,note_on,48,52,0
2,note_on,48,0,120
2,note_on,60,0,0
2,note_on,58,79,120
2,note_on,46,67,0
2,note_on,46,0,480
2,note_on,58,0,0
2,note_on,65,64,240
2,note_on,53,54,0
2,note_on,53,0,120
2,note_on,65,0,0
2,note_on,65,78,120
2,note_on,53,66,0
2,note_on,53,0,480
2,note_on,65,0,0
2,note_on,58,81,240
2,note_on,46,68,0
2,note_on,46,0,120
2,note_on,58,0,0
2,note_on,57,88,120
2,note_on,45,74,0
2,note_on,45,0,240
2,note_on,57,0,0
2,note_on,60,54,0
2,note_on,57,45,0
2,note_on,57,0,120
2,note_on,60,0,0
2,note_on,60,54,120
2,note_on,57,45,0
2,note_on,57,0,120
2,note_on,60,0,0
2,note_on,60,59,120
2,note_on,57,49,0
2,note_on,57,0,120
2,note_on,60,0,0
2,note_on,57,60,120
2,note_on,60,71,0
2,note_on,60,0,240
2,note_on,57,0,0
2,note_on,57,46,0
2,note_on,60,55,0
2,note_on,60,0,120
2,note_on,57,0,0
2,note_on,57,46,120
2,note_on,60,55,0
2,note_on,60,0,120
2,note_on,57,0,0
2,note_on,57,50,120
2,note_on,60,60,0
2,note_on,60,0,120
2,note_on,57,0,0
2,note_on,60,78,120
2,note_on,57,64,0
2,note_on,57,0,240
2,note_on,60,0,0
2,note_on,62,56,0
2,note_on,58,47,0
2,note_on,58,0,120
2,note_on,62,0,0
2,note_on,62,57,120
2,note_on,58,47,0
2,note_on,58,0,120
2,note_on,62,0,0
2,note_on,62,62,120
2,note_on,58,51,0
2,note_on,58,0,120
2,note_on,62,0,0
2,note_on,58,63,120
2,note_on,62,75,0
2,note_on,62,0,240
2,note_on,58,0,0
2,note_on,59,53,0
2,note_on,65,64,0
2,note_on,65,0,120
2,note_on,59,0,0
2,note_on,59,54,120
2,note_on,65,66,0
2,note_on,65,0,120
2,note_on,59,0,0
2,note_on,59,57,120
2,note_on,65,67,0
2,note_on,65,0,120
2,note_on,59,0,0
2,note_on,60,62,120
2,note_on,65,74,0
2,note_on,65,0,240
2,note_on,60,0,0
2,note_on,60,47,240
2,note_on,60,0,90
2,note_on,57,40,150
2,note_on,57,0,90
2,note_on,60,47,150
2,note_on,60,0,90
2,note_on,57,41,150
2,note_on,57,0,90
2,note_on,60,50,150
2,note_on,60,0,90
2,note_on,57,48,150
2,note_on,57,0,90
2,note_on,48,51,150
2,note_on,58,62,0
2,note_on,58,0,240
2,note_on,48,0,0
2,note_on,48,40,480
2,note_on,57,48,0
2,note_on,57,0,120
2,note_on,48,0,0
2,note_on,48,51,120
2,note_on,58,62,0
2,note_on,58,0,240
2,note_on,48,0,0
2,note_on,48,56,480
2,note_on,36,47,0
2,note_on,36,0,240
2,note_on,48,0,0
2,note_on,41,59,0
2,note_on,53,69,7
2,note_on,41,0,233
2,note_on,53,0,7
2,note_on,60,47,233
2,note_on,60,0,90
2,note_on,57,40,150
2,note_on,57,0,90
2,note_on,60,47,150
2,note_on,60,0,90
2,note_on,57,41,150
2,note_on,57,0,90
2,note_on,60,50,150
2,note_on,60,0,90
2,note_on,57,46,150
2,note_on,57,0,90
2,note_on,48,51,150
2,note_on,58,62,0
2,note_on,58,0,240
2,note_on,48,0,0
2,note_on,48,38,480
2,note_on,57,46,0
2,note_on,57,0,120
2,note_on,48,0,0
2,note_on,48,51,120
2,note_on,58,62,0
2,note_on,58,0,240
2,note_on,48,0,0
2,note_on,48,56,480
2,note_on,36,47,0
2,note_on,36,0,240
2,note_on,48,0,0
2,note_on,41,57,0
2,note_on,53,68,7
2,note_on,41,0,473
2,note_on,40,55,0
2,note_on,52,65,0
2,note_on,53,0,7
2,note_on,52,0,473
2,note_on,40,0,0
2,note_on,38,57,0
2,note_on,50,68,0
2,note_on,50,0,480
2,note_on,38,0,0
2,note_on,48,69,0
2,note_on,36,58,0
2,note_on,36,0,480
2,note_on,48,0,0
2,note_on,46,70,0
2,note_on,34,59,0
2,note_on,34,0,480
2,note_on,46,0,0
2,note_on,47,64,0
2,note_on,35,54,0
2,note_on,35,0,480
2,note_on,47,0,0
2,note_on,48,67,0
2,note_on,36,56,0
2,note_on,36,0,480
2,note_on,48,0,0
2,note_on,49,70,0
2,note_on,37,59,0
2,note_on,37,0,480
2,note_on,49,0,0
2,note_on,38,58,0
2,note_on,50,69,0
2,note_on,50,0,480
2,note_on,38,0,0
2,note_on,51,70,0
2,note_on,39,59,0
2,note_on,39,0,480
2,note_on,51,0,0
2,note_on,50,73,0
2,note_on,38,62,0
2,note_on,38,0,480
2,note_on,50,0,0
2,note_on,49,77,0
2,note_on,37,65,0
2,note_on,37,0,480
2,note_on,49,0,0
2,note_on,48,85,0
2,note_on,36,72,0
2,note_on,36,0,120
2,note_on,48,0,0
2,note_on,60,69,120
2,note_on,48,58,0
2,note_on,48,0,120
2,note_on,60,0,0
2,note_on,60,69,120
2,note_on,48,58,0
2,note_on,48,0,120
2,note_on,60,0,0
2,note_on,60,69,120
2,note_on,48,58,0
2,note_on,48,0,120
2,note_on,60,0,0
2,note_on,48,85,120
2,note_on,36,72,0
2,note_on,36,0,120
2,note_on,48,0,0
2,note_on,60,69,120
2,note_on,48,58,0
2,note_on,48,0,120
2,note_on,60,0,0
2,note_on,60,69,120
2,note_on,48,58,0
2,note_on,48,0,120
2,note_on,60,0,0
2,note_on,60,69,120
2,note_on,48,58,0
2,note_on,48,0,120
2,note_on,60,0,0
2,note_on,41,76,120
2,note_on,53,80,30
2,note_on,53,0,210
2,note_on,41,0,0
