Track,Message Type,Note,Velocity,Time
1,note_on,76,54,0
1,note_on,76,0,80
1,note_on,82,46,0
1,note_on,82,0,80
1,note_on,85,40,0
1,note_on,85,0,80
1,note_on,76,56,0
1,note_on,76,0,120
1,note_on,74,51,360
1,note_on,74,0,80
1,note_on,81,43,0
1,note_on,81,0,80
1,note_on,86,40,0
1,note_on,86,0,80
1,note_on,74,53,0
1,note_on,74,0,120
1,note_on,74,51,360
1,note_on,74,0,80
1,note_on,80,43,0
1,note_on,80,0,80
1,note_on,83,40,0
1,note_on,83,0,80
1,note_on,74,50,0
1,note_on,74,0,120
1,note_on,72,49,360
1,note_on,72,0,80
1,note_on,79,40,0
1,note_on,79,0,80
1,note_on,84,38,0
1,note_on,84,0,80
1,note_on,72,51,0
1,note_on,72,0,120
1,note_on,72,51,360
1,note_on,72,0,80
1,note_on,79,40,0
1,note_on,79,0,80
1,note_on,81,37,0
1,note_on,81,0,80
1,note_on,72,49,0
1,note_on,72,0,120
1,note_on,75,54,330
1,note_on,79,58,10
1,note_on,84,62,10
1,note_on,87,64,10
1,note_on,87,0,240
1,note_on,75,0,0
1,note_on,79,0,0
1,note_on,84,0,0
1,note_on,62,54,480
1,note_on,62,0,80
1,note_on,66,46,0
1,note_on,66,0,80
1,note_on,74,40,0
1,note_on,74,0,80
1,note_on,62,50,0
1,note_on,62,0,120
1,note_on,67,40,360
1,note_on,62,40,0
1,note_on,58,40,0
1,note_on,58,0,240
1,note_on,62,0,0
1,note_on,67,0,0
1,note_on,86,54,480
1,note_on,86,0,80
1,note_on,94,46,0
1,note_on,94,0,80
1,note_on,98,40,0
1,note_on,98,0,80
1,note_on,86,50,0
1,note_on,86,0,240
1,note_on,74,54,0
1,note_on,74,0,80
1,note_on,82,46,0
1,note_on,82,0,80
1,note_on,86,40,0
1,note_on,86,0,80
1,note_on,74,59,0
1,note_on,74,0,240
1,note_on,72,50,240
1,note_on,72,0,120
1,note_on,70,49,0
1,note_on,70,0,60
1,note_on,72,49,0
1,note_on,72,0,60
1,note_on,70,58,0
1,note_on,70,0,240
1,note_on,69,49,240
1,note_on,69,0,120
1,note_on,69,42,60
1,note_on,69,0,60
1,note_on,72,50,0
1,note_on,72,0,480
1,note_on,70,46,0
1,note_on,70,0,240
1,note_on,79,54,0
1,note_on,79,0,80
1,note_on,86,46,0
1,note_on,86,0,80
1,note_on,91,40,0
1,note_on,91,0,80
1,note_on,79,50,0
1,note_on,79,0,240
1,note_on,67,54,0
1,note_on,67,0,80
1,note_on,74,46,0
1,note_on,74,0,80
1,note_on,79,40,0
1,note_on,79,0,80
1,note_on,67,59,0
1,note_on,67,0,240
1,note_on,63,50,240
1,note_on,63,0,240
1,note_on,62,58,0
1,note_on,62,0,240
1,note_on,70,54,0
1,note_on,70,0,240
1,note_on,69,49,0
1,note_on,69,0,117
1,note_on,69,42,3
1,note_on,70,42,40
1,note_on,69,0,20
1,note_on,70,0,40
1,note_on,69,50,20
1,note_on,69,0,480
1,note_on,67,46,0
1,note_on,67,0,240
1,note_on,86,54,0
1,note_on,86,0,80
1,note_on,94,46,0
1,note_on,94,0,80
1,note_on,98,40,0
1,note_on,98,0,80
1,note_on,86,50,0
1,note_on,86,0,240
1,note_on,74,54,0
1,note_on,74,0,80
1,note_on,82,46,0
1,note_on,82,0,80
1,note_on,86,40,0
1,note_on,86,0,80
1,note_on,74,59,0
1,note_on,74,0,240
1,note_on,72,50,240
1,note_on,72,0,120
1,note_on,70,49,0
1,note_on,70,0,60
1,note_on,72,49,0
1,note_on,72,0,60
1,note_on,70,58,0
1,note_on,70,0,240
1,note_on,69,49,240
1,note_on,69,0,120
1,note_on,69,42,60
1,note_on,69,0,60
1,note_on,72,50,0
1,note_on,72,0,480
1,note_on,70,46,0
1,note_on,70,0,240
1,note_on,79,54,0
1,note_on,79,0,80
1,note_on,86,46,0
1,note_on,86,0,80
1,note_on,91,40,0
1,note_on,91,0,80
1,note_on,79,50,0
1,note_on,79,0,240
1,note_on,67,54,0
1,note_on,67,0,80
1,note_on,74,46,0
1,note_on,74,0,80
1,note_on,79,40,0
1,note_on,79,0,80
1,note_on,67,59,0
1,note_on,67,0,240
1,note_on,63,50,240
1,note_on,63,0,240
1,note_on,62,58,0
1,note_on,62,0,240
1,note_on,70,54,0
1,note_on,70,0,240
1,note_on,69,49,0
1,note_on,69,0,117
1,note_on,69,42,3
1,note_on,70,42,40
1,note_on,69,0,20
1,note_on,70,0,40
1,note_on,69,50,20
1,note_on,69,0,480
1,note_on,67,46,0
1,note_on,67,0,240
1,note_on,77,54,0
1,note_on,77,0,80
1,note_on,82,46,0
1,note_on,82,0,80
1,note_on,89,40,0
1,note_on,89,0,80
1,note_on,77,50,0
1,note_on,77,0,240
1,note_on,65,54,0
1,note_on,65,0,80
1,note_on,74,46,0
1,note_on,74,0,80
1,note_on,77,40,0
1,note_on,77,0,80
1,note_on,65,59,0
1,note_on,65,0,240
1,note_on,63,50,240
1,note_on,63,0,120
1,note_on,63,58,120
1,note_on,63,0,80
1,note_on,65,48,0
1,note_on,65,0,80
1,note_on,63,48,0
1,note_on,63,0,80
1,note_on,62,55,0
1,note_on,62,0,240
1,note_on,60,50,0
1,note_on,60,0,120
1,note_on,60,45,60
1,note_on,60,0,60
1,note_on,63,50,0
1,note_on,63,0,480
1,note_on,62,46,0
1,note_on,62,0,240
1,note_on,74,54,0
1,note_on,74,0,80
1,note_on,79,46,0
1,note_on,79,0,80
1,note_on,86,40,0
1,note_on,86,0,80
1,note_on,74,50,0
1,note_on,74,0,240
1,note_on,62,54,0
1,note_on,62,0,80
1,note_on,67,46,0
1,note_on,67,0,80
1,note_on,74,40,0
1,note_on,74,0,80
1,note_on,62,59,0
1,note_on,62,0,240
1,note_on,60,50,240
1,note_on,60,0,120
1,note_on,60,58,120
1,note_on,60,0,80
1,note_on,62,48,0
1,note_on,62,0,80
1,note_on,60,48,0
1,note_on,60,0,80
1,note_on,58,55,0
1,note_on,58,0,240
1,note_on,57,50,0
1,note_on,57,0,120
1,note_on,57,45,40
1,note_on,57,0,60
1,note_on,60,50,20
1,note_on,60,0,480
1,note_on,58,46,0
1,note_on,58,0,240
1,note_on,67,54,0
1,note_on,67,0,80
1,note_on,75,46,0
1,note_on,75,0,80
1,note_on,79,40,0
1,note_on,79,0,80
1,note_on,67,57,0
1,note_on,67,0,240
1,note_on,68,59,240
1,note_on,68,0,80
1,note_on,75,50,0
1,note_on,75,0,80
1,note_on,80,44,0
1,note_on,80,0,80
1,note_on,68,50,0
1,note_on,68,0,240
1,note_on,66,64,240
1,note_on,66,0,80
1,note_on,72,55,0
1,note_on,72,0,80
1,note_on,78,48,0
1,note_on,78,0,80
1,note_on,66,68,0
1,note_on,66,0,240
1,note_on,67,67,240
1,note_on,67,0,80
1,note_on,74,57,0
1,note_on,74,0,80
1,note_on,79,50,0
1,note_on,79,0,80
1,note_on,67,57,0
1,note_on,67,0,240
1,note_on,63,73,240
1,note_on,63,0,80
1,note_on,67,63,0
1,note_on,67,0,80
1,note_on,75,55,0
1,note_on,75,0,80
1,note_on,63,78,0
1,note_on,63,0,240
1,note_on,60,80,240
1,note_on,60,0,80
1,note_on,67,69,0
1,note_on,67,0,80
1,note_on,72,59,0
1,note_on,72,0,80
1,note_on,60,85,0
1,note_on,60,0,240
1,note_on,62,85,240
1,note_on,62,0,80
1,note_on,67,74,0
1,note_on,67,0,80
1,note_on,62,64,0
1,note_on,62,0,80
1,note_on,61,86,0
1,note_on,61,0,120
1,note_on,62,93,120
1,note_on,62,0,120
1,note_on,67,96,120
1,note_on,67,0,120
1,note_on,67,87,120
1,note_on,70,87,0
1,note_on,79,103,0
1,note_on,79,0,120
1,note_on,70,0,0
1,note_on,67,0,0
1,note_on,86,54,360
1,note_on,86,0,120
1,note_on,74,50,120
1,note_on,74,0,120
1,note_on,79,54,360
1,note_on,79,0,120
1,note_on,67,50,120
1,note_on,67,0,120
1,note_on,74,54,360
1,note_on,74,0,120
1,note_on,62,50,120
1,note_on,62,0,120
1,note_on,74,54,360
1,note_on,71,34,240
1,note_on,67,28,0
1,note_on,67,0,240
1,note_on,71,0,0
1,note_on,71,34,0
1,note_on,67,28,0
1,note_on,67,0,240
1,note_on,71,0,0
1,note_on,74,0,0
1,note_on,76,59,0
1,note_on,71,38,240
1,note_on,67,31,0
1,note_on,67,0,240
1,note_on,71,0,0
1,note_on,71,38,0
1,note_on,67,31,0
1,note_on,67,0,240
1,note_on,71,0,0
1,note_on,76,0,0
1,note_on,76,64,0
1,note_on,69,33,240
1,note_on,66,28,0
1,note_on,66,0,240
1,note_on,69,0,0
1,note_on,69,33,0
1,note_on,66,28,0
1,note_on,66,0,240
1,note_on,69,0,0
1,note_on,76,0,0
1,note_on,74,54,0
1,note_on,74,0,120
1,note_on,74,70,120
1,note_on,74,0,80
1,note_on,81,49,0
1,note_on,81,0,80
1,note_on,86,49,0
1,note_on,86,0,80
1,note_on,74,63,0
1,note_on,74,0,240
1,note_on,74,54,0
1,note_on,67,34,240
1,note_on,64,28,0
1,note_on,64,0,240
1,note_on,67,0,0
1,note_on,67,34,0
1,note_on,64,28,0
1,note_on,64,0,240
1,note_on,67,0,0
1,note_on,74,0,0
1,note_on,72,59,0
1,note_on,67,38,240
1,note_on,64,31,0
1,note_on,72,0,240
1,note_on,74,45,0
1,note_on,74,0,240
1,note_on,64,0,0
1,note_on,67,0,0
1,note_on,72,61,0
1,note_on,66,33,240
1,note_on,63,28,0
1,note_on,63,0,240
1,note_on,66,0,0
1,note_on,66,33,0
1,note_on,63,28,0
1,note_on,63,0,240
1,note_on,66,0,0
1,note_on,72,0,0
1,note_on,71,54,0
1,note_on,71,0,120
1,note_on,71,65,120
1,note_on,71,0,80
1,note_on,78,46,0
1,note_on,78,0,80
1,note_on,83,46,0
1,note_on,83,0,80
1,note_on,71,65,0
1,note_on,71,0,240
1,note_on,71,54,0
1,note_on,67,34,240
1,note_on,62,28,0
1,note_on,62,0,240
1,note_on,67,0,0
1,note_on,67,34,0
1,note_on,62,28,0
1,note_on,62,0,240
1,note_on,67,0,0
1,note_on,71,0,0
1,note_on,67,59,0
1,note_on,62,34,240
1,note_on,59,28,0
1,note_on,59,0,240
1,note_on,62,0,0
1,note_on,62,34,0
1,note_on,59,28,0
1,note_on,59,0,240
1,note_on,62,0,0
1,note_on,67,0,0
1,note_on,69,64,0
1,note_on,63,33,240
1,note_on,67,39,0
1,note_on,67,0,240
1,note_on,63,0,0
1,note_on,63,33,0
1,note_on,67,39,0
1,note_on,67,0,240
1,note_on,63,0,0
1,note_on,69,0,0
1,note_on,72,68,0
1,note_on,67,34,240
1,note_on,69,41,0
1,note_on,69,0,240
1,note_on,67,0,0
1,note_on,67,34,0
1,note_on,69,41,0
1,note_on,69,0,240
1,note_on,67,0,0
1,note_on,72,0,0
1,note_on,71,64,0
1,note_on,62,33,240
1,note_on,67,39,0
1,note_on,67,0,240
1,note_on,62,0,0
1,note_on,62,32,0
1,note_on,67,39,0
1,note_on,67,0,240
1,note_on,62,0,0
1,note_on,71,0,0
1,note_on,69,63,0
1,note_on,62,34,240
1,note_on,60,29,0
1,note_on,60,0,240
1,note_on,62,0,0
1,note_on,62,34,0
1,note_on,60,28,0
1,note_on,60,0,240
1,note_on,62,0,0
1,note_on,69,0,0
1,note_on,67,63,0
1,note_on,59,27,240
1,note_on,62,32,0
1,note_on,62,0,240
1,note_on,59,0,0
1,note_on,59,25,0
1,note_on,62,30,0
1,note_on,62,0,240
1,note_on,59,0,0
1,note_on,67,0,0
1,note_on,62,28,0
1,note_on,59,22,0
1,note_on,59,0,240
1,note_on,62,0,0
1,note_on,62,25,0
1,note_on,59,22,0
1,note_on,59,0,240
1,note_on,62,0,0
1,note_on,62,22,0
1,note_on,59,19,0
1,note_on,59,0,240
1,note_on,62,0,0
1,note_on,74,54,0
1,note_on,71,34,240
1,note_on,67,28,0
1,note_on,67,0,240
1,note_on,71,0,0
1,note_on,71,34,0
1,note_on,67,28,0
1,note_on,67,0,240
1,note_on,71,0,0
1,note_on,74,0,0
1,note_on,76,59,0
1,note_on,71,38,240
1,note_on,67,31,0
1,note_on,67,0,240
1,note_on,71,0,0
1,note_on,71,38,0
1,note_on,67,31,0
1,note_on,67,0,240
1,note_on,71,0,0
1,note_on,76,0,0
1,note_on,76,64,0
1,note_on,69,33,240
1,note_on,66,28,0
1,note_on,66,0,240
1,note_on,69,0,0
1,note_on,69,33,0
1,note_on,66,28,0
1,note_on,66,0,240
1,note_on,69,0,0
1,note_on,76,0,0
1,note_on,74,54,0
1,note_on,74,0,120
1,note_on,74,68,120
1,note_on,74,0,80
1,note_on,81,49,0
1,note_on,81,0,80
1,note_on,86,49,0
1,note_on,86,0,80
1,note_on,74,63,0
1,note_on,74,0,240
1,note_on,74,54,0
1,note_on,67,34,240
1,note_on,64,28,0
1,note_on,64,0,240
1,note_on,67,0,0
1,note_on,67,34,0
1,note_on,64,28,0
1,note_on,64,0,240
1,note_on,67,0,0
1,note_on,74,0,0
1,note_on,72,59,0
1,note_on,67,38,240
1,note_on,64,31,0
1,note_on,72,0,240
1,note_on,74,45,0
1,note_on,74,0,240
1,note_on,64,0,0
1,note_on,67,0,0
1,note_on,72,61,0
1,note_on,66,33,240
1,note_on,63,28,0
1,note_on,63,0,240
1,note_on,66,0,0
1,note_on,66,33,0
1,note_on,63,28,0
1,note_on,63,0,240
1,note_on,66,0,0
1,note_on,72,0,0
1,note_on,71,54,0
1,note_on,71,0,120
1,note_on,71,66,120
1,note_on,71,0,80
1,note_on,78,46,0
1,note_on,78,0,80
1,note_on,83,46,0
1,note_on,83,0,80
1,note_on,71,65,0
1,note_on,71,0,240
1,note_on,71,54,0
1,note_on,67,34,240
1,note_on,62,28,0
1,note_on,62,0,240
1,note_on,67,0,0
1,note_on,67,34,0
1,note_on,62,28,0
1,note_on,62,0,240
1,note_on,67,0,0
1,note_on,71,0,0
1,note_on,67,59,0
1,note_on,62,34,240
1,note_on,59,28,0
1,note_on,59,0,240
1,note_on,62,0,0
1,note_on,62,34,0
1,note_on,59,28,0
1,note_on,59,0,240
1,note_on,62,0,0
1,note_on,67,0,0
1,note_on,69,64,0
1,note_on,63,33,240
1,note_on,67,39,0
1,note_on,67,0,240
1,note_on,63,0,0
1,note_on,63,33,0
1,note_on,67,39,0
1,note_on,67,0,240
1,note_on,63,0,0
1,note_on,69,0,0
1,note_on,72,68,0
1,note_on,67,34,240
1,note_on,69,41,0
1,note_on,69,0,240
1,note_on,67,0,0
1,note_on,67,34,0
1,note_on,69,41,0
1,note_on,69,0,240
1,note_on,67,0,0
1,note_on,72,0,0
1,note_on,71,64,0
1,note_on,62,33,240
1,note_on,67,39,0
1,note_on,67,0,240
1,note_on,62,0,0
1,note_on,62,32,0
1,note_on,67,39,0
1,note_on,67,0,240
1,note_on,62,0,0
1,note_on,71,0,0
1,note_on,69,63,0
1,note_on,62,34,240
1,note_on,60,29,0
1,note_on,60,0,240
1,note_on,62,0,0
1,note_on,62,34,0
1,note_on,60,28,0
1,note_on,60,0,240
1,note_on,62,0,0
1,note_on,69,0,0
1,note_on,67,63,0
1,note_on,59,27,240
1,note_on,62,32,0
1,note_on,62,0,240
1,note_on,59,0,0
1,note_on,59,25,0
1,note_on,62,30,0
1,note_on,62,0,240
1,note_on,59,0,0
1,note_on,67,0,0
1,note_on,55,51,240
1,note_on,67,61,0
1,note_on,67,0,120
1,note_on,55,0,0
1,note_on,55,43,120
1,note_on,67,52,0
1,note_on,67,0,120
1,note_on,55,0,0
1,note_on,67,65,120
1,note_on,55,55,0
1,note_on,55,0,120
1,note_on,67,0,0
1,note_on,55,48,120
1,note_on,67,58,0
1,note_on,67,0,120
1,note_on,55,0,0
1,note_on,55,40,120
1,note_on,67,47,0
1,note_on,67,0,120
1,note_on,55,0,0
1,note_on,63,49,120
1,note_on,55,48,240
1,note_on,67,57,0
1,note_on,67,0,120
1,note_on,55,0,0
1,note_on,55,41,120
1,note_on,67,48,0
1,note_on,67,0,120
1,note_on,55,0,0
1,note_on,63,0,120
1,note_on,62,53,0
1,note_on,55,45,240
1,note_on,67,53,0
1,note_on,67,0,120
1,note_on,55,0,0
1,note_on,67,41,120
1,note_on,55,35,0
1,note_on,55,0,120
1,note_on,67,0,0
1,note_on,62,0,120
1,note_on,60,54,0
1,note_on,67,48,240
1,note_on,55,41,0
1,note_on,55,0,120
1,note_on,67,0,0
1,note_on,67,41,120
1,note_on,55,35,0
1,note_on,55,0,120
1,note_on,67,0,0
1,note_on,60,0,120
1,note_on,67,68,0
1,note_on,58,56,0
1,note_on,55,56,0
1,note_on,55,0,240
1,note_on,58,0,0
1,note_on,67,0,0
1,note_on,62,47,480
1,note_on,57,39,0
1,note_on,54,39,0
1,note_on,54,0,240
1,note_on,57,0,0
1,note_on,62,0,0
1,note_on,55,39,480
1,note_on,55,0,240
1,note_on,86,54,480
1,note_on,86,0,80
1,note_on,94,46,0
1,note_on,94,0,80
1,note_on,98,40,0
1,note_on,98,0,80
1,note_on,86,50,0
1,note_on,86,0,240
1,note_on,74,54,0
1,note_on,74,0,80
1,note_on,82,46,0
1,note_on,82,0,80
1,note_on,86,40,0
1,note_on,86,0,80
1,note_on,74,59,0
1,note_on,74,0,240
1,note_on,72,50,240
1,note_on,72,0,120
1,note_on,70,49,0
1,note_on,70,0,60
1,note_on,72,49,0
1,note_on,72,0,60
1,note_on,70,58,0
1,note_on,70,0,240
1,note_on,69,49,240
1,note_on,69,0,120
1,note_on,69,42,60
1,note_on,69,0,60
1,note_on,72,50,0
1,note_on,72,0,480
1,note_on,70,46,0
1,note_on,70,0,240
1,note_on,79,54,0
1,note_on,79,0,80
1,note_on,86,46,0
1,note_on,86,0,80
1,note_on,91,40,0
1,note_on,91,0,80
1,note_on,79,50,0
1,note_on,79,0,240
1,note_on,67,54,0
1,note_on,67,0,80
1,note_on,74,46,0
1,note_on,74,0,80
1,note_on,79,40,0
1,note_on,79,0,80
1,note_on,67,59,0
1,note_on,67,0,240
1,note_on,63,50,240
1,note_on,63,0,240
1,note_on,62,58,0
1,note_on,62,0,240
1,note_on,70,54,0
1,note_on,70,0,240
1,note_on,69,49,0
1,note_on,69,0,117
1,note_on,69,42,3
1,note_on,70,42,40
1,note_on,69,0,20
1,note_on,70,0,40
1,note_on,69,50,20
1,note_on,69,0,480
1,note_on,67,46,0
1,note_on,67,0,240
1,note_on,86,54,0
1,note_on,86,0,80
1,note_on,94,46,0
1,note_on,94,0,80
1,note_on,98,40,0
1,note_on,98,0,80
1,note_on,86,50,0
1,note_on,86,0,240
1,note_on,74,54,0
1,note_on,74,0,80
1,note_on,82,46,0
1,note_on,82,0,80
1,note_on,86,40,0
1,note_on,86,0,80
1,note_on,74,59,0
1,note_on,74,0,240
1,note_on,72,50,240
1,note_on,72,0,120
1,note_on,70,49,0
1,note_on,70,0,60
1,note_on,72,49,0
1,note_on,72,0,60
1,note_on,70,58,0
1,note_on,70,0,240
1,note_on,69,49,240
1,note_on,69,0,120
1,note_on,69,42,60
1,note_on,69,0,60
1,note_on,72,50,0
1,note_on,72,0,480
1,note_on,70,46,0
1,note_on,70,0,240
1,note_on,79,54,0
1,note_on,79,0,80
1,note_on,86,46,0
1,note_on,86,0,80
1,note_on,91,40,0
1,note_on,91,0,80
1,note_on,79,50,0
1,note_on,79,0,240
1,note_on,67,54,0
1,note_on,67,0,80
1,note_on,74,46,0
1,note_on,74,0,80
1,note_on,79,40,0
1,note_on,79,0,80
1,note_on,67,59,0
1,note_on,67,0,240
1,note_on,63,50,240
1,note_on,63,0,240
1,note_on,62,58,0
1,note_on,62,0,240
1,note_on,70,54,0
1,note_on,70,0,240
1,note_on,69,49,0
1,note_on,69,0,117
1,note_on,69,42,3
1,note_on,70,42,40
1,note_on,69,0,20
1,note_on,70,0,40
1,note_on,69,50,20
1,note_on,69,0,480
1,note_on,67,46,0
1,note_on,67,0,240
1,note_on,77,54,0
1,note_on,77,0,80
1,note_on,82,46,0
1,note_on,82,0,80
1,note_on,89,40,0
1,note_on,89,0,80
1,note_on,77,50,0
1,note_on,77,0,240
1,note_on,65,54,0
1,note_on,65,0,80
1,note_on,74,46,0
1,note_on,74,0,80
1,note_on,77,40,0
1,note_on,77,0,80
1,note_on,65,59,0
1,note_on,65,0,240
1,note_on,63,50,240
1,note_on,63,0,120
1,note_on,63,58,120
1,note_on,63,0,80
1,note_on,65,48,0
1,note_on,65,0,80
1,note_on,63,48,0
1,note_on,63,0,80
1,note_on,62,55,0
1,note_on,62,0,240
1,note_on,60,50,0
1,note_on,60,0,120
1,note_on,60,45,60
1,note_on,60,0,60
1,note_on,63,50,0
1,note_on,63,0,480
1,note_on,62,46,0
1,note_on,62,0,240
1,note_on,74,54,0
1,note_on,74,0,80
1,note_on,79,46,0
1,note_on,79,0,80
1,note_on,86,40,0
1,note_on,86,0,80
1,note_on,74,50,0
1,note_on,74,0,240
1,note_on,62,54,0
1,note_on,62,0,80
1,note_on,67,46,0
1,note_on,67,0,80
1,note_on,74,40,0
1,note_on,74,0,80
1,note_on,62,59,0
1,note_on,62,0,240
1,note_on,60,50,240
1,note_on,60,0,120
1,note_on,60,58,120
1,note_on,60,0,80
1,note_on,62,48,0
1,note_on,62,0,80
1,note_on,60,48,0
1,note_on,60,0,80
1,note_on,58,55,0
1,note_on,58,0,240
1,note_on,57,50,0
1,note_on,57,0,120
1,note_on,57,45,40
1,note_on,57,0,60
1,note_on,60,50,20
1,note_on,60,0,480
1,note_on,58,46,0
1,note_on,58,0,240
1,note_on,67,54,0
1,note_on,67,0,80
1,note_on,75,46,0
1,note_on,75,0,80
1,note_on,79,40,0
1,note_on,79,0,80
1,note_on,67,57,0
1,note_on,67,0,240
1,note_on,68,59,240
1,note_on,68,0,80
1,note_on,75,50,0
1,note_on,75,0,80
1,note_on,80,44,0
1,note_on,80,0,80
1,note_on,68,50,0
1,note_on,68,0,240
1,note_on,66,64,240
1,note_on,66,0,80
1,note_on,72,55,0
1,note_on,72,0,80
1,note_on,78,48,0
1,note_on,78,0,80
1,note_on,66,68,0
1,note_on,66,0,240
1,note_on,67,67,240
1,note_on,67,0,80
1,note_on,74,57,0
1,note_on,74,0,80
1,note_on,79,50,0
1,note_on,79,0,80
1,note_on,67,57,0
1,note_on,67,0,240
1,note_on,63,73,240
1,note_on,63,0,80
1,note_on,67,63,0
1,note_on,67,0,80
1,note_on,75,55,0
1,note_on,75,0,80
1,note_on,63,78,0
1,note_on,63,0,240
1,note_on,60,80,240
1,note_on,60,0,80
1,note_on,67,69,0
1,note_on,67,0,80
1,note_on,72,59,0
1,note_on,72,0,80
1,note_on,60,85,0
1,note_on,60,0,240
1,note_on,62,85,240
1,note_on,62,0,80
1,note_on,67,74,0
1,note_on,67,0,80
1,note_on,62,64,0
1,note_on,62,0,80
1,note_on,61,86,0
1,note_on,61,0,120
1,note_on,62,93,120
1,note_on,62,0,120
1,note_on,67,96,120
1,note_on,67,0,120
1,note_on,67,87,120
1,note_on,70,87,0
1,note_on,79,103,0
1,note_on,79,0,120
1,note_on,70,0,0
1,note_on,67,0,0
2,note_on,67,37,0
2,note_on,67,0,240
2,note_on,67,38,240
2,note_on,67,0,120
2,note_on,66,46,120
2,note_on,66,0,240
2,note_on,66,38,240
2,note_on,66,0,120
2,note_on,65,46,120
2,note_on,65,0,240
2,note_on,65,37,240
2,note_on,65,0,120
2,note_on,64,45,120
2,note_on,64,0,240
2,note_on,64,40,240
2,note_on,64,0,120
2,note_on,63,47,120
2,note_on,63,0,240
2,note_on,63,34,240
2,note_on,63,0,180
2,note_on,60,41,0
2,note_on,67,44,10
2,note_on,69,45,10
2,note_on,69,0,280
2,note_on,67,0,0
2,note_on,60,0,0
2,note_on,50,31,480
2,note_on,57,31,0
2,note_on,60,37,0
2,note_on,60,0,240
2,note_on,57,0,0
2,note_on,50,0,0
2,note_on,38,31,240
2,note_on,50,31,0
2,note_on,50,0,120
2,note_on,38,0,0
2,note_on,43,31,120
2,note_on,55,31,0
2,note_on,55,0,240
2,note_on,43,0,0
2,note_on,55,37,480
2,note_on,58,26,240
2,note_on,62,31,0
2,note_on,62,0,180
2,note_on,58,0,0
2,note_on,58,26,60
2,note_on,62,31,0
2,note_on,62,0,180
2,note_on,58,0,0
2,note_on,55,0,60
2,note_on,55,37,0
2,note_on,57,26,240
2,note_on,60,26,0
2,note_on,63,31,0
2,note_on,63,0,180
2,note_on,60,0,0
2,note_on,57,0,0
2,note_on,57,26,60
2,note_on,60,26,0
2,note_on,63,31,0
2,note_on,63,0,180
2,note_on,60,0,0
2,note_on,57,0,0
2,note_on,55,0,60
2,note_on,54,37,0
2,note_on,60,26,240
2,note_on,62,31,0
2,note_on,62,0,180
2,note_on,60,0,0
2,note_on,60,26,60
2,note_on,62,31,0
2,note_on,62,0,180
2,note_on,60,0,0
2,note_on,54,0,60
2,note_on,55,37,0
2,note_on,62,31,240
2,note_on,58,26,0
2,note_on,58,0,180
2,note_on,62,0,0
2,note_on,58,26,60
2,note_on,62,31,0
2,note_on,62,0,180
2,note_on,58,0,0
2,note_on,55,0,60
2,note_on,46,37,0
2,note_on,50,26,240
2,note_on,55,31,0
2,note_on,55,0,180
2,note_on,50,0,0
2,note_on,50,26,60
2,note_on,55,31,0
2,note_on,55,0,180
2,note_on,50,0,0
2,note_on,46,0,60
2,note_on,48,37,0
2,note_on,55,26,240
2,note_on,57,31,0
2,note_on,57,0,180
2,note_on,55,0,0
2,note_on,55,26,60
2,note_on,57,31,0
2,note_on,57,0,180
2,note_on,55,0,0
2,note_on,48,0,60
2,note_on,55,37,0
2,note_on,54,26,240
2,note_on,60,31,0
2,note_on,60,0,180
2,note_on,54,0,0
2,note_on,54,26,60
2,note_on,60,31,0
2,note_on,60,0,180
2,note_on,54,0,0
2,note_on,55,0,60
2,note_on,55,37,0
2,note_on,62,31,240
2,note_on,58,26,0
2,note_on,58,0,180
2,note_on,62,0,0
2,note_on,58,26,60
2,note_on,62,31,0
2,note_on,62,0,180
2,note_on,58,0,0
2,note_on,55,0,60
2,note_on,55,37,0
2,note_on,58,26,240
2,note_on,62,31,0
2,note_on,62,0,180
2,note_on,58,0,0
2,note_on,58,26,60
2,note_on,62,31,0
2,note_on,62,0,180
2,note_on,58,0,0
2,note_on,55,0,60
2,note_on,55,37,0
2,note_on,57,26,240
2,note_on,60,26,0
2,note_on,63,31,0
2,note_on,63,0,180
2,note_on,60,0,0
2,note_on,57,0,0
2,note_on,57,26,60
2,note_on,60,26,0
2,note_on,63,31,0
2,note_on,63,0,180
2,note_on,60,0,0
2,note_on,57,0,0
2,note_on,55,0,60
2,note_on,54,37,0
2,note_on,60,26,240
2,note_on,62,31,0
2,note_on,62,0,180
2,note_on,60,0,0
2,note_on,60,26,60
2,note_on,62,31,0
2,note_on,62,0,180
2,note_on,60,0,0
2,note_on,54,0,60
2,note_on,55,37,0
2,note_on,62,31,240
2,note_on,58,26,0
2,note_on,58,0,180
2,note_on,62,0,0
2,note_on,58,26,60
2,note_on,62,31,0
2,note_on,62,0,180
2,note_on,58,0,0
2,note_on,55,0,60
2,note_on,46,37,0
2,note_on,50,26,240
2,note_on,55,31,0
2,note_on,55,0,180
2,note_on,50,0,0
2,note_on,50,26,60
2,note_on,55,31,0
2,note_on,55,0,180
2,note_on,50,0,0
2,note_on,46,0,60
2,note_on,48,37,0
2,note_on,55,26,240
2,note_on,57,31,0
2,note_on,57,0,180
2,note_on,55,0,0
2,note_on,55,26,60
2,note_on,57,31,0
2,note_on,57,0,180
2,note_on,55,0,0
2,note_on,48,0,60
2,note_on,55,37,0
2,note_on,54,26,240
2,note_on,60,31,0
2,note_on,60,0,180
2,note_on,54,0,0
2,note_on,54,26,60
2,note_on,60,31,0
2,note_on,60,0,180
2,note_on,54,0,0
2,note_on,55,0,60
2,note_on,55,37,0
2,note_on,62,31,240
2,note_on,58,26,0
2,note_on,58,0,180
2,note_on,62,0,0
2,note_on,58,26,60
2,note_on,62,31,0
2,note_on,62,0,180
2,note_on,58,0,0
2,note_on,55,0,60
2,note_on,50,37,0
2,note_on,53,26,240
2,note_on,58,31,0
2,note_on,58,0,180
2,note_on,53,0,0
2,note_on,53,26,60
2,note_on,58,31,0
2,note_on,58,0,180
2,note_on,53,0,0
2,note_on,50,0,60
2,note_on,48,37,0
2,note_on,55,26,240
2,note_on,58,31,0
2,note_on,58,0,180
2,note_on,55,0,0
2,note_on,55,26,60
2,note_on,58,31,0
2,note_on,58,0,180
2,note_on,55,0,0
2,note_on,48,0,60
2,note_on,41,37,0
2,note_on,53,26,240
2,note_on,57,31,0
2,note_on,57,0,180
2,note_on,53,0,0
2,note_on,53,26,60
2,note_on,57,31,0
2,note_on,57,0,180
2,note_on,53,0,0
2,note_on,41,0,60
2,note_on,46,37,0
2,note_on,58,31,240
2,note_on,53,26,0
2,note_on,53,0,180
2,note_on,58,0,0
2,note_on,53,26,60
2,note_on,58,31,0
2,note_on,58,0,180
2,note_on,53,0,0
2,note_on,46,0,60
2,note_on,46,37,0
2,note_on,50,26,240
2,note_on,55,31,0
2,note_on,55,0,180
2,note_on,50,0,0
2,note_on,50,26,60
2,note_on,55,31,0
2,note_on,55,0,180
2,note_on,50,0,0
2,note_on,46,0,60
2,note_on,45,37,0
2,note_on,51,26,240
2,note_on,55,31,0
2,note_on,55,0,180
2,note_on,51,0,0
2,note_on,51,26,60
2,note_on,55,31,0
2,note_on,55,0,180
2,note_on,51,0,0
2,note_on,45,0,60
2,note_on,38,37,0
2,note_on,38,0,240
2,note_on,50,26,0
2,note_on,54,31,0
2,note_on,54,0,180
2,note_on,50,0,0
2,note_on,50,26,60
2,note_on,54,31,0
2,note_on,54,0,180
2,note_on,50,0,0
2,note_on,43,37,60
2,note_on,55,31,240
2,note_on,50,26,0
2,note_on,50,0,180
2,note_on,55,0,0
2,note_on,50,26,60
2,note_on,55,31,0
2,note_on,55,0,180
2,note_on,50,0,0
2,note_on,43,0,60
2,note_on,39,33,0
2,note_on,51,40,0
2,note_on,51,0,120
2,note_on,39,0,0
2,note_on,50,42,120
2,note_on,38,34,0
2,note_on,38,0,120
2,note_on,50,0,0
2,note_on,51,46,120
2,note_on,39,38,0
2,note_on,39,0,120
2,note_on,51,0,0
2,note_on,36,36,120
2,note_on,48,44,0
2,note_on,48,0,120
2,note_on,36,0,0
2,note_on,47,46,120
2,note_on,35,37,0
2,note_on,35,0,120
2,note_on,47,0,0
2,note_on,36,33,120
2,note_on,48,37,0
2,note_on,48,0,120
2,note_on,36,0,0
2,note_on,38,40,120
2,note_on,50,49,0
2,note_on,50,0,120
2,note_on,38,0,0
2,note_on,49,50,120
2,note_on,37,42,0
2,note_on,37,0,120
2,note_on,49,0,0
2,note_on,50,55,120
2,note_on,38,44,0
2,note_on,38,0,120
2,note_on,50,0,0
2,note_on,34,46,120
2,note_on,46,55,0
2,note_on,46,0,120
2,note_on,34,0,0
2,note_on,45,57,120
2,note_on,33,47,0
2,note_on,33,0,120
2,note_on,45,0,0
2,note_on,34,40,120
2,note_on,46,47,0
2,note_on,46,0,120
2,note_on,34,0,0
2,note_on,36,46,120
2,note_on,48,56,0
2,note_on,48,0,120
2,note_on,36,0,0
2,note_on,47,57,120
2,note_on,35,48,0
2,note_on,35,0,120
2,note_on,47,0,0
2,note_on,48,62,120
2,note_on,36,50,0
2,note_on,36,0,120
2,note_on,48,0,0
2,note_on,39,50,120
2,note_on,51,60,0
2,note_on,51,0,120
2,note_on,39,0,0
2,note_on,50,62,120
2,note_on,38,52,0
2,note_on,38,0,120
2,note_on,50,0,0
2,note_on,51,68,120
2,note_on,39,56,0
2,note_on,39,0,120
2,note_on,51,0,0
2,note_on,38,49,120
2,note_on,50,58,0
2,note_on,50,0,120
2,note_on,38,0,0
2,note_on,37,48,120
2,note_on,49,57,0
2,note_on,49,0,120
2,note_on,37,0,0
2,note_on,38,57,120
2,note_on,50,67,0
2,note_on,50,0,120
2,note_on,38,0,0
2,note_on,55,80,120
2,note_on,43,67,0
2,note_on,43,0,120
2,note_on,55,0,0
2,note_on,55,78,120
2,note_on,50,65,0
2,note_on,43,65,0
2,note_on,43,0,120
2,note_on,50,0,0
2,note_on,55,0,0
2,note_on,62,39,840
2,note_on,62,0,120
2,note_on,55,39,600
2,note_on,55,0,120
2,note_on,50,39,600
2,note_on,50,0,120
2,note_on,62,37,120
2,note_on,55,22,240
2,note_on,59,26,0
2,note_on,59,0,240
2,note_on,55,0,0
2,note_on,55,22,0
2,note_on,59,26,0
2,note_on,59,0,240
2,note_on,55,0,0
2,note_on,62,0,0
2,note_on,64,40,0
2,note_on,55,24,240
2,note_on,59,28,0
2,note_on,59,0,240
2,note_on,55,0,0
2,note_on,55,24,0
2,note_on,59,28,0
2,note_on,59,0,240
2,note_on,55,0,0
2,note_on,64,0,0
2,note_on,64,46,0
2,note_on,54,21,240
2,note_on,57,24,0
2,note_on,57,0,240
2,note_on,54,0,0
2,note_on,54,21,0
2,note_on,57,24,0
2,note_on,57,0,240
2,note_on,54,0,0
2,note_on,64,0,0
2,note_on,62,37,0
2,note_on,54,22,240
2,note_on,57,26,0
2,note_on,57,0,240
2,note_on,54,0,0
2,note_on,54,18,0
2,note_on,57,22,0
2,note_on,57,0,240
2,note_on,54,0,0
2,note_on,62,0,0
2,note_on,62,37,0
2,note_on,52,17,240
2,note_on,55,20,0
2,note_on,55,0,240
2,note_on,52,0,0
2,note_on,52,17,0
2,note_on,55,20,0
2,note_on,55,0,240
2,note_on,52,0,0
2,note_on,62,0,0
2,note_on,60,40,0
2,note_on,52,19,240
2,note_on,55,22,0
2,note_on,60,0,240
2,note_on,62,28,0
2,note_on,62,0,240
2,note_on,55,0,0
2,note_on,52,0,0
2,note_on,60,46,0
2,note_on,51,16,240
2,note_on,54,19,0
2,note_on,54,0,240
2,note_on,51,0,0
2,note_on,51,16,0
2,note_on,54,19,0
2,note_on,54,0,240
2,note_on,51,0,0
2,note_on,60,0,0
2,note_on,59,37,0
2,note_on,51,22,240
2,note_on,54,26,0
2,note_on,54,0,240
2,note_on,51,0,0
2,note_on,51,18,0
2,note_on,54,22,0
2,note_on,54,0,240
2,note_on,51,0,0
2,note_on,59,0,0
2,note_on,59,37,0
2,note_on,50,22,240
2,note_on,55,26,0
2,note_on,55,0,240
2,note_on,50,0,0
2,note_on,50,22,0
2,note_on,55,26,0
2,note_on,55,0,240
2,note_on,50,0,0
2,note_on,59,0,0
2,note_on,55,40,0
2,note_on,47,24,240
2,note_on,50,28,0
2,note_on,50,0,240
2,note_on,47,0,0
2,note_on,47,24,0
2,note_on,50,28,0
2,note_on,50,0,240
2,note_on,47,0,0
2,note_on,55,0,0
2,note_on,57,49,0
2,note_on,55,31,240
2,note_on,48,26,0
2,note_on,48,0,240
2,note_on,55,0,0
2,note_on,55,31,0
2,note_on,48,26,0
2,note_on,48,0,240
2,note_on,55,0,0
2,note_on,57,0,0
2,note_on,60,54,0
2,note_on,55,38,240
2,note_on,51,32,0
2,note_on,51,0,240
2,note_on,55,0,0
2,note_on,55,38,0
2,note_on,51,32,0
2,note_on,51,0,240
2,note_on,55,0,0
2,note_on,60,0,0
2,note_on,59,51,0
2,note_on,55,37,240
2,note_on,50,31,0
2,note_on,50,0,240
2,note_on,55,0,0
2,note_on,55,37,0
2,note_on,50,31,0
2,note_on,50,0,240
2,note_on,55,0,0
2,note_on,59,0,0
2,note_on,57,50,0
2,note_on,50,30,240
2,note_on,54,36,0
2,note_on,54,0,240
2,note_on,50,0,0
2,note_on,50,31,0
2,note_on,54,37,0
2,note_on,54,0,240
2,note_on,50,0,0
2,note_on,57,0,0
2,note_on,55,50,0
2,note_on,43,21,240
2,note_on,50,30,0
2,note_on,50,0,240
2,note_on,43,0,0
2,note_on,50,27,0
2,note_on,43,22,0
2,note_on,43,0,240
2,note_on,50,0,0
2,note_on,55,0,0
2,note_on,50,25,0
2,note_on,43,22,0
2,note_on,43,0,240
2,note_on,50,0,0
2,note_on,50,24,0
2,note_on,43,21,0
2,note_on,43,0,240
2,note_on,50,0,0
2,note_on,50,22,0
2,note_on,43,19,0
2,note_on,43,0,240
2,note_on,50,0,0
2,note_on,62,37,0
2,note_on,55,22,240
2,note_on,59,26,0
2,note_on,59,0,240
2,note_on,55,0,0
2,note_on,55,22,0
2,note_on,59,26,0
2,note_on,59,0,240
2,note_on,55,0,0
2,note_on,62,0,0
2,note_on,64,40,0
2,note_on,55,24,240
2,note_on,59,28,0
2,note_on,59,0,240
2,note_on,55,0,0
2,note_on,55,24,0
2,note_on,59,28,0
2,note_on,59,0,240
2,note_on,55,0,0
2,note_on,64,0,0
2,note_on,64,46,0
2,note_on,54,21,240
2,note_on,57,24,0
2,note_on,57,0,240
2,note_on,54,0,0
2,note_on,54,21,0
2,note_on,57,24,0
2,note_on,57,0,240
2,note_on,54,0,0
2,note_on,64,0,0
2,note_on,62,37,0
2,note_on,54,22,240
2,note_on,57,26,0
2,note_on,57,0,240
2,note_on,54,0,0
2,note_on,54,18,0
2,note_on,57,22,0
2,note_on,57,0,240
2,note_on,54,0,0
2,note_on,62,0,0
2,note_on,62,37,0
2,note_on,52,17,240
2,note_on,55,20,0
2,note_on,55,0,240
2,note_on,52,0,0
2,note_on,52,17,0
2,note_on,55,20,0
2,note_on,55,0,240
2,note_on,52,0,0
2,note_on,62,0,0
2,note_on,60,40,0
2,note_on,52,19,240
2,note_on,55,22,0
2,note_on,60,0,240
2,note_on,62,28,0
2,note_on,62,0,240
2,note_on,55,0,0
2,note_on,52,0,0
2,note_on,60,46,0
2,note_on,51,16,240
2,note_on,54,19,0
2,note_on,54,0,240
2,note_on,51,0,0
2,note_on,51,16,0
2,note_on,54,19,0
2,note_on,54,0,240
2,note_on,51,0,0
2,note_on,60,0,0
2,note_on,59,37,0
2,note_on,51,22,240
2,note_on,54,26,0
2,note_on,54,0,240
2,note_on,51,0,0
2,note_on,51,18,0
2,note_on,54,22,0
2,note_on,54,0,240
2,note_on,51,0,0
2,note_on,59,0,0
2,note_on,59,37,0
2,note_on,50,22,240
2,note_on,55,26,0
2,note_on,55,0,240
2,note_on,50,0,0
2,note_on,50,22,0
2,note_on,55,26,0
2,note_on,55,0,240
2,note_on,50,0,0
2,note_on,59,0,0
2,note_on,55,40,0
2,note_on,47,24,240
2,note_on,50,28,0
2,note_on,50,0,240
2,note_on,47,0,0
2,note_on,47,24,0
2,note_on,50,28,0
2,note_on,50,0,240
2,note_on,47,0,0
2,note_on,55,0,0
2,note_on,57,49,0
2,note_on,55,31,240
2,note_on,48,26,0
2,note_on,48,0,240
2,note_on,55,0,0
2,note_on,55,31,0
2,note_on,48,26,0
2,note_on,48,0,240
2,note_on,55,0,0
2,note_on,57,0,0
2,note_on,60,54,0
2,note_on,55,38,240
2,note_on,51,32,0
2,note_on,51,0,240
2,note_on,55,0,0
2,note_on,55,38,0
2,note_on,51,32,0
2,note_on,51,0,240
2,note_on,55,0,0
2,note_on,60,0,0
2,note_on,59,51,0
2,note_on,55,37,240
2,note_on,50,31,0
2,note_on,50,0,240
2,note_on,55,0,0
2,note_on,55,37,0
2,note_on,50,31,0
2,note_on,50,0,240
2,note_on,55,0,0
2,note_on,59,0,0
2,note_on,57,50,0
2,note_on,50,30,240
2,note_on,54,36,0
2,note_on,54,0,240
2,note_on,50,0,0
2,note_on,50,31,0
2,note_on,54,37,0
2,note_on,54,0,240
2,note_on,50,0,0
2,note_on,57,0,0
2,note_on,55,50,0
2,note_on,43,21,240
2,note_on,50,30,0
2,note_on,50,0,240
2,note_on,43,0,0
2,note_on,50,27,0
2,note_on,43,22,0
2,note_on,43,0,240
2,note_on,50,0,0
2,note_on,55,0,0
2,note_on,39,66,0
2,note_on,51,79,0
2,note_on,51,0,720
2,note_on,39,0,0
2,note_on,38,63,0
2,note_on,50,74,0
2,note_on,50,0,720
2,note_on,38,0,0
2,note_on,36,69,0
2,note_on,48,81,0
2,note_on,48,0,720
2,note_on,36,0,0
2,note_on,34,69,0
2,note_on,46,81,0
2,note_on,46,0,720
2,note_on,34,0,0
2,note_on,39,63,0
2,note_on,51,74,0
2,note_on,51,0,720
2,note_on,39,0,0
2,note_on,50,46,240
2,note_on,38,39,0
2,note_on,38,0,240
2,note_on,50,0,0
2,note_on,50,40,0
2,note_on,38,34,0
2,note_on,38,0,240
2,note_on,50,0,0
2,note_on,38,33,240
2,note_on,50,39,0
2,note_on,50,0,240
2,note_on,38,0,0
2,note_on,38,28,0
2,note_on,50,33,0
2,note_on,50,0,240
2,note_on,38,0,0
2,note_on,62,34,240
2,note_on,58,28,0
2,note_on,58,0,240
2,note_on,62,0,0
2,note_on,62,25,0
2,note_on,58,21,0
2,note_on,58,0,240
2,note_on,62,0,0
2,note_on,55,37,0
2,note_on,58,26,240
2,note_on,62,31,0
2,note_on,62,0,180
2,note_on,58,0,0
2,note_on,58,26,60
2,note_on,62,31,0
2,note_on,62,0,180
2,note_on,58,0,0
2,note_on,55,0,60
2,note_on,55,37,0
2,note_on,57,26,240
2,note_on,60,26,0
2,note_on,63,31,0
2,note_on,63,0,180
2,note_on,60,0,0
2,note_on,57,0,0
2,note_on,57,26,60
2,note_on,60,26,0
2,note_on,63,31,0
2,note_on,63,0,180
2,note_on,60,0,0
2,note_on,57,0,0
2,note_on,55,0,60
2,note_on,54,37,0
2,note_on,60,26,240
2,note_on,62,31,0
2,note_on,62,0,180
2,note_on,60,0,0
2,note_on,60,26,60
2,note_on,62,31,0
2,note_on,62,0,180
2,note_on,60,0,0
2,note_on,54,0,60
2,note_on,55,37,0
2,note_on,62,31,240
2,note_on,58,26,0
2,note_on,58,0,180
2,note_on,62,0,0
2,note_on,58,26,60
2,note_on,62,31,0
2,note_on,62,0,180
2,note_on,58,0,0
2,note_on,55,0,60
2,note_on,46,37,0
2,note_on,50,26,240
2,note_on,55,31,0
2,note_on,55,0,180
2,note_on,50,0,0
2,note_on,50,26,60
2,note_on,55,31,0
2,note_on,55,0,180
2,note_on,50,0,0
2,note_on,46,0,60
2,note_on,48,37,0
2,note_on,55,26,240
2,note_on,57,31,0
2,note_on,57,0,180
2,note_on,55,0,0
2,note_on,55,26,60
2,note_on,57,31,0
2,note_on,57,0,180
2,note_on,55,0,0
2,note_on,48,0,60
2,note_on,55,37,0
2,note_on,54,26,240
2,note_on,60,31,0
2,note_on,60,0,180
2,note_on,54,0,0
2,note_on,54,26,60
2,note_on,60,31,0
2,note_on,60,0,180
2,note_on,54,0,0
2,note_on,55,0,60
2,note_on,55,37,0
2,note_on,62,31,240
2,note_on,58,26,0
2,note_on,58,0,180
2,note_on,62,0,0
2,note_on,58,26,60
2,note_on,62,31,0
2,note_on,62,0,180
2,note_on,58,0,0
2,note_on,55,0,60
2,note_on,55,37,0
2,note_on,58,26,240
2,note_on,62,31,0
2,note_on,62,0,180
2,note_on,58,0,0
2,note_on,58,26,60
2,note_on,62,31,0
2,note_on,62,0,180
2,note_on,58,0,0
2,note_on,55,0,60
2,note_on,55,37,0
2,note_on,57,26,240
2,note_on,60,26,0
2,note_on,63,31,0
2,note_on,63,0,180
2,note_on,60,0,0
2,note_on,57,0,0
2,note_on,57,26,60
2,note_on,60,26,0
2,note_on,63,31,0
2,note_on,63,0,180
2,note_on,60,0,0
2,note_on,57,0,0
2,note_on,55,0,60
2,note_on,54,37,0
2,note_on,60,26,240
2,note_on,62,31,0
2,note_on,62,0,180
2,note_on,60,0,0
2,note_on,60,26,60
2,note_on,62,31,0
2,note_on,62,0,180
2,note_on,60,0,0
2,note_on,54,0,60
2,note_on,55,37,0
2,note_on,62,31,240
2,note_on,58,26,0
2,note_on,58,0,180
2,note_on,62,0,0
2,note_on,58,26,60
2,note_on,62,31,0
2,note_on,62,0,180
2,note_on,58,0,0
2,note_on,55,0,60
2,note_on,46,37,0
2,note_on,50,26,240
2,note_on,55,31,0
2,note_on,55,0,180
2,note_on,50,0,0
2,note_on,50,26,60
2,note_on,55,31,0
2,note_on,55,0,180
2,note_on,50,0,0
2,note_on,46,0,60
2,note_on,48,37,0
2,note_on,55,26,240
2,note_on,57,31,0
2,note_on,57,0,180
2,note_on,55,0,0
2,note_on,55,26,60
2,note_on,57,31,0
2,note_on,57,0,180
2,note_on,55,0,0
2,note_on,48,0,60
2,note_on,55,37,0
2,note_on,54,26,240
2,note_on,60,31,0
2,note_on,60,0,180
2,note_on,54,0,0
2,note_on,54,26,60
2,note_on,60,31,0
2,note_on,60,0,180
2,note_on,54,0,0
2,note_on,55,0,60
2,note_on,55,37,0
2,note_on,62,31,240
2,note_on,58,26,0
2,note_on,58,0,180
2,note_on,62,0,0
2,note_on,58,26,60
2,note_on,62,31,0
2,note_on,62,0,180
2,note_on,58,0,0
2,note_on,55,0,60
2,note_on,50,37,0
2,note_on,53,26,240
2,note_on,58,31,0
2,note_on,58,0,180
2,note_on,53,0,0
2,note_on,53,26,60
2,note_on,58,31,0
2,note_on,58,0,180
2,note_on,53,0,0
2,note_on,50,0,60
2,note_on,48,37,0
2,note_on,55,26,240
2,note_on,58,31,0
2,note_on,58,0,180
2,note_on,55,0,0
2,note_on,55,26,60
2,note_on,58,31,0
2,note_on,58,0,180
2,note_on,55,0,0
2,note_on,48,0,60
2,note_on,41,37,0
2,note_on,53,26,240
2,note_on,57,31,0
2,note_on,57,0,180
2,note_on,53,0,0
2,note_on,53,26,60
2,note_on,57,31,0
2,note_on,57,0,180
2,note_on,53,0,0
2,note_on,41,0,60
2,note_on,46,37,0
2,note_on,58,31,240
2,note_on,53,26,0
2,note_on,53,0,180
2,note_on,58,0,0
2,note_on,53,26,60
2,note_on,58,31,0
2,note_on,58,0,180
2,note_on,53,0,0
2,note_on,46,0,60
2,note_on,46,37,0
2,note_on,50,26,240
2,note_on,55,31,0
2,note_on,55,0,180
2,note_on,50,0,0
2,note_on,50,26,60
2,note_on,55,31,0
2,note_on,55,0,180
2,note_on,50,0,0
2,note_on,46,0,60
2,note_on,45,37,0
2,note_on,51,26,240
2,note_on,55,31,0
2,note_on,55,0,180
2,note_on,51,0,0
2,note_on,51,26,60
2,note_on,55,31,0
2,note_on,55,0,180
2,note_on,51,0,0
2,note_on,45,0,60
2,note_on,38,37,0
2,note_on,38,0,240
2,note_on,50,26,0
2,note_on,54,31,0
2,note_on,54,0,180
2,note_on,50,0,0
2,note_on,50,26,60
2,note_on,54,31,0
2,note_on,54,0,180
2,note_on,50,0,0
2,note_on,43,37,60
2,note_on,55,31,240
2,note_on,50,26,0
2,note_on,50,0,180
2,note_on,55,0,0
2,note_on,50,26,60
2,note_on,55,31,0
2,note_on,55,0,180
2,note_on,50,0,0
2,note_on,43,0,60
2,note_on,39,33,0
2,note_on,51,40,0
2,note_on,51,0,120
2,note_on,39,0,0
2,note_on,50,42,120
2,note_on,38,34,0
2,note_on,38,0,120
2,note_on,50,0,0
2,note_on,51,46,120
2,note_on,39,38,0
2,note_on,39,0,120
2,note_on,51,0,0
2,note_on,36,36,120
2,note_on,48,44,0
2,note_on,48,0,120
2,note_on,36,0,0
2,note_on,47,46,120
2,note_on,35,37,0
2,note_on,35,0,120
2,note_on,47,0,0
2,note_on,36,33,120
2,note_on,48,37,0
2,note_on,48,0,120
2,note_on,36,0,0
2,note_on,38,40,120
2,note_on,50,49,0
2,note_on,50,0,120
2,note_on,38,0,0
2,note_on,49,50,120
2,note_on,37,42,0
2,note_on,37,0,120
2,note_on,49,0,0
2,note_on,50,55,120
2,note_on,38,44,0
2,note_on,38,0,120
2,note_on,50,0,0
2,note_on,34,46,120
2,note_on,46,55,0
2,note_on,46,0,120
2,note_on,34,0,0
2,note_on,45,57,120
2,note_on,33,47,0
2,note_on,33,0,120
2,note_on,45,0,0
2,note_on,34,40,120
2,note_on,46,47,0
2,note_on,46,0,120
2,note_on,34,0,0
2,note_on,36,46,120
2,note_on,48,56,0
2,note_on,48,0,120
2,note_on,36,0,0
2,note_on,47,57,120
2,note_on,35,48,0
2,note_on,35,0,120
2,note_on,47,0,0
2,note_on,48,62,120
2,note_on,36,50,0
2,note_on,36,0,120
2,note_on,48,0,0
2,note_on,39,50,120
2,note_on,51,60,0
2,note_on,51,0,120
2,note_on,39,0,0
2,note_on,50,62,120
2,note_on,38,52,0
2,note_on,38,0,120
2,note_on,50,0,0
2,note_on,51,68,120
2,note_on,39,56,0
2,note_on,39,0,120
2,note_on,51,0,0
2,note_on,38,49,120
2,note_on,50,58,0
2,note_on,50,0,120
2,note_on,38,0,0
2,note_on,37,48,120
2,note_on,49,57,0
2,note_on,49,0,120
2,note_on,37,0,0
2,note_on,38,57,120
2,note_on,50,67,0
2,note_on,50,0,120
2,note_on,38,0,0
2,note_on,55,80,120
2,note_on,43,67,0
2,note_on,43,0,120
2,note_on,55,0,0
2,note_on,55,78,120
2,note_on,50,65,0
2,note_on,43,65,0
2,note_on,43,0,120
2,note_on,50,0,0
2,note_on,55,0,0
