Track,Message Type,Note,Velocity,Time
1,note_on,58,41,1
1,note_on,57,29,479
1,note_on,58,0,1
1,note_on,57,0,79
1,note_on,58,31,0
1,note_on,58,0,80
1,note_on,61,33,0
1,note_on,61,0,80
1,note_on,65,37,0
1,note_on,65,0,120
1,note_on,57,29,360
1,note_on,57,0,80
1,note_on,58,31,0
1,note_on,58,0,80
1,note_on,61,32,0
1,note_on,61,0,80
1,note_on,65,37,0
1,note_on,65,0,120
1,note_on,58,100,1320
1,note_on,58,0,120
1,note_on,90,92,600
1,note_on,82,78,0
1,note_on,94,92,0
1,note_on,94,0,1440
1,note_on,82,0,0
1,note_on,90,0,0
1,note_on,75,51,0
1,note_on,84,61,0
1,note_on,87,61,0
1,note_on,87,0,360
1,note_on,84,0,0
1,note_on,75,0,0
1,note_on,84,68,0
1,note_on,77,57,0
1,note_on,89,68,0
1,note_on,89,0,120
1,note_on,77,0,0
1,note_on,84,0,0
1,note_on,90,71,0
1,note_on,78,60,0
1,note_on,84,71,0
1,note_on,84,0,240
1,note_on,78,0,0
1,note_on,90,0,0
1,note_on,85,68,0
1,note_on,77,57,0
1,note_on,89,68,0
1,note_on,89,0,240
1,note_on,77,0,0
1,note_on,85,0,0
1,note_on,57,27,240
1,note_on,57,0,80
1,note_on,58,29,0
1,note_on,58,0,80
1,note_on,61,30,0
1,note_on,61,0,80
1,note_on,65,35,0
1,note_on,65,0,120
1,note_on,57,27,360
1,note_on,57,0,80
1,note_on,58,29,0
1,note_on,58,0,80
1,note_on,61,30,0
1,note_on,61,0,80
1,note_on,65,35,0
1,note_on,65,0,120
1,note_on,56,100,1320
1,note_on,56,0,120
1,note_on,92,90,600
1,note_on,89,90,0
1,note_on,80,76,0
1,note_on,80,0,1440
1,note_on,89,0,0
1,note_on,92,0,0
1,note_on,84,60,0
1,note_on,75,51,0
1,note_on,87,60,0
1,note_on,87,0,360
1,note_on,75,0,0
1,note_on,84,0,0
1,note_on,84,65,0
1,note_on,89,65,0
1,note_on,77,55,0
1,note_on,77,0,120
1,note_on,89,0,0
1,note_on,84,0,0
1,note_on,84,70,0
1,note_on,90,70,0
1,note_on,78,59,0
1,note_on,78,0,240
1,note_on,90,0,0
1,note_on,84,0,0
1,note_on,77,56,0
1,note_on,85,67,0
1,note_on,89,67,0
1,note_on,89,0,240
1,note_on,85,0,0
1,note_on,77,0,0
1,note_on,77,81,480
1,note_on,69,81,0
1,note_on,69,0,480
1,note_on,77,0,0
1,note_on,57,81,240
1,note_on,65,81,0
1,note_on,65,0,480
1,note_on,57,0,0
1,note_on,57,27,480
1,note_on,57,0,80
1,note_on,58,29,0
1,note_on,58,0,80
1,note_on,61,30,0
1,note_on,61,0,80
1,note_on,65,34,0
1,note_on,65,0,120
1,note_on,57,29,360
1,note_on,57,0,80
1,note_on,58,30,0
1,note_on,58,0,80
1,note_on,61,31,0
1,note_on,61,0,80
1,note_on,65,36,0
1,note_on,65,0,120
1,note_on,58,100,1320
1,note_on,58,0,120
1,note_on,90,92,600
1,note_on,94,92,0
1,note_on,82,78,0
1,note_on,82,0,1080
1,note_on,94,0,0
1,note_on,90,0,0
1,note_on,87,58,0
1,note_on,84,58,0
1,note_on,75,49,0
1,note_on,75,0,120
1,note_on,84,0,0
1,note_on,87,0,0
1,note_on,84,58,0
1,note_on,75,49,0
1,note_on,87,58,0
1,note_on,87,0,240
1,note_on,75,0,0
1,note_on,84,0,0
1,note_on,75,51,0
1,note_on,84,61,0
1,note_on,87,61,0
1,note_on,87,0,360
1,note_on,84,0,0
1,note_on,75,0,0
1,note_on,89,68,0
1,note_on,84,68,0
1,note_on,77,57,0
1,note_on,77,0,120
1,note_on,84,0,0
1,note_on,89,0,0
1,note_on,84,71,0
1,note_on,90,71,0
1,note_on,78,60,0
1,note_on,78,0,240
1,note_on,90,0,0
1,note_on,84,0,0
1,note_on,85,68,0
1,note_on,89,68,0
1,note_on,77,57,0
1,note_on,77,0,240
1,note_on,89,0,0
1,note_on,85,0,0
1,note_on,57,29,240
1,note_on,57,0,80
1,note_on,58,30,0
1,note_on,58,0,80
1,note_on,61,32,0
1,note_on,61,0,80
1,note_on,65,37,0
1,note_on,65,0,120
1,note_on,57,29,360
1,note_on,57,0,80
1,note_on,58,30,0
1,note_on,58,0,80
1,note_on,61,32,0
1,note_on,61,0,80
1,note_on,65,37,0
1,note_on,65,0,120
1,note_on,48,100,1320
1,note_on,48,0,120
1,note_on,84,64,600
1,note_on,92,90,0
1,note_on,96,90,0
1,note_on,96,0,1440
1,note_on,92,0,0
1,note_on,84,0,0
1,note_on,88,60,0
1,note_on,79,43,0
1,note_on,91,60,0
1,note_on,91,0,360
1,note_on,79,0,0
1,note_on,88,0,0
1,note_on,80,46,0
1,note_on,88,65,0
1,note_on,92,65,0
1,note_on,92,0,120
1,note_on,88,0,0
1,note_on,80,0,0
1,note_on,88,70,0
1,note_on,82,50,0
1,note_on,94,70,0
1,note_on,94,0,240
1,note_on,82,0,0
1,note_on,88,0,0
1,note_on,80,47,0
1,note_on,92,67,0
1,note_on,89,67,0
1,note_on,89,0,240
1,note_on,92,0,0
1,note_on,80,0,0
1,note_on,80,81,480
1,note_on,72,68,0
1,note_on,68,68,0
1,note_on,77,81,0
1,note_on,77,0,480
1,note_on,80,0,0
1,note_on,72,0,0
1,note_on,68,0,0
1,note_on,68,81,240
1,note_on,56,68,0
1,note_on,60,68,0
1,note_on,65,81,0
1,note_on,65,0,480
1,note_on,68,0,0
1,note_on,56,0,0
1,note_on,60,0,0
1,note_on,101,97,3840
1,note_on,101,0,960
1,note_on,99,68,0
1,note_on,99,0,120
1,note_on,97,62,0
1,note_on,97,0,120
1,note_on,92,65,0
1,note_on,92,0,120
1,note_on,89,59,0
1,note_on,89,0,120
1,note_on,87,62,0
1,note_on,87,0,120
1,note_on,85,57,0
1,note_on,85,0,120
1,note_on,80,58,0
1,note_on,80,0,120
1,note_on,77,53,0
1,note_on,77,0,120
1,note_on,75,55,0
1,note_on,75,0,120
1,note_on,73,51,0
1,note_on,73,0,120
1,note_on,68,52,0
1,note_on,68,0,240
1,note_on,72,55,480
1,note_on,72,0,120
1,note_on,73,52,0
1,note_on,73,0,120
1,note_on,75,50,0
1,note_on,75,0,120
1,note_on,77,47,0
1,note_on,77,0,120
1,note_on,78,45,0
1,note_on,80,42,113
1,note_on,78,0,7
1,note_on,80,0,113
1,note_on,81,40,7
1,note_on,81,0,120
1,note_on,81,50,600
1,note_on,81,0,120
1,note_on,80,49,0
1,note_on,80,0,120
1,note_on,79,47,0
1,note_on,79,0,120
1,note_on,78,46,0
1,note_on,78,0,120
1,note_on,77,44,0
1,note_on,77,0,120
1,note_on,76,42,0
1,note_on,76,0,120
1,note_on,75,41,0
1,note_on,75,0,120
1,note_on,101,97,600
1,note_on,101,0,960
1,note_on,99,68,0
1,note_on,99,0,120
1,note_on,97,60,0
1,note_on,97,0,120
1,note_on,92,65,0
1,note_on,92,0,120
1,note_on,89,58,0
1,note_on,89,0,120
1,note_on,87,62,0
1,note_on,87,0,120
1,note_on,85,57,0
1,note_on,85,0,120
1,note_on,80,58,0
1,note_on,80,0,120
1,note_on,77,53,0
1,note_on,77,0,120
1,note_on,75,55,0
1,note_on,75,0,120
1,note_on,73,49,0
1,note_on,73,0,120
1,note_on,68,52,0
1,note_on,68,0,240
1,note_on,72,42,480
1,note_on,72,0,120
1,note_on,73,41,0
1,note_on,73,0,120
1,note_on,75,41,0
1,note_on,75,0,120
1,note_on,77,40,0
1,note_on,77,0,120
1,note_on,78,39,0
1,note_on,80,38,113
1,note_on,78,0,7
1,note_on,80,0,113
1,note_on,81,37,7
1,note_on,81,0,120
1,note_on,81,42,600
1,note_on,81,0,120
1,note_on,80,41,0
1,note_on,80,0,120
1,note_on,79,40,0
1,note_on,79,0,120
1,note_on,78,39,0
1,note_on,78,0,120
1,note_on,77,37,0
1,note_on,77,0,120
1,note_on,76,36,0
1,note_on,76,0,120
1,note_on,75,35,0
1,note_on,75,0,120
1,note_on,71,38,600
1,note_on,77,59,0
1,note_on,77,0,960
1,note_on,75,53,0
1,note_on,75,0,360
1,note_on,73,52,0
1,note_on,73,0,110
1,note_on,71,0,10
1,note_on,71,38,0
1,note_on,73,54,0
1,note_on,73,0,720
1,note_on,71,0,0
1,note_on,70,56,0
1,note_on,78,56,0
1,note_on,70,0,720
1,note_on,71,50,0
1,note_on,78,0,480
1,note_on,77,52,0
1,note_on,77,0,230
1,note_on,77,51,10
1,note_on,77,0,240
1,note_on,75,50,0
1,note_on,75,0,240
1,note_on,73,49,0
1,note_on,73,0,240
1,note_on,71,0,0
1,note_on,70,44,0
1,note_on,73,44,0
1,note_on,82,56,0
1,note_on,82,0,720
1,note_on,73,0,0
1,note_on,70,0,0
1,note_on,68,44,0
1,note_on,73,44,0
1,note_on,82,62,0
1,note_on,82,0,480
1,note_on,82,64,0
1,note_on,67,44,180
1,note_on,82,0,51
1,note_on,68,0,9
1,note_on,73,0,0
1,note_on,67,0,0
1,note_on,73,45,0
1,note_on,82,68,0
1,note_on,82,0,480
1,note_on,75,57,0
1,note_on,75,0,240
1,note_on,75,57,0
1,note_on,75,0,240
1,note_on,77,51,0
1,note_on,77,0,60
1,note_on,79,51,0
1,note_on,79,0,60
1,note_on,77,56,0
1,note_on,77,0,240
1,note_on,75,56,0
1,note_on,75,0,110
1,note_on,73,0,10
1,note_on,73,49,0
1,note_on,75,59,0
1,note_on,75,0,720
1,note_on,73,0,0
1,note_on,72,53,0
1,note_on,80,64,0
1,note_on,72,0,720
1,note_on,73,55,0
1,note_on,80,0,240
1,note_on,79,60,0
1,note_on,79,0,240
1,note_on,77,59,0
1,note_on,77,0,240
1,note_on,79,60,0
1,note_on,79,0,240
1,note_on,77,59,0
1,note_on,77,0,360
1,note_on,75,56,0
1,note_on,75,0,120
1,note_on,73,0,0
1,note_on,72,56,0
1,note_on,84,56,0
1,note_on,84,0,720
1,note_on,84,64,0
1,note_on,84,0,480
1,note_on,84,63,0
1,note_on,84,0,230
1,note_on,72,0,10
1,note_on,84,68,0
1,note_on,84,0,960
1,note_on,82,63,0
1,note_on,82,0,360
1,note_on,80,63,0
1,note_on,80,0,110
1,note_on,80,63,10
1,note_on,80,0,720
1,note_on,85,75,0
1,note_on,85,0,720
1,note_on,85,82,0
1,note_on,85,0,480
1,note_on,84,78,0
1,note_on,84,0,240
1,note_on,84,75,0
1,note_on,84,0,240
1,note_on,82,71,0
1,note_on,82,0,360
1,note_on,80,63,0
1,note_on,80,0,120
1,note_on,89,80,0
1,note_on,89,0,720
1,note_on,89,77,0
1,note_on,89,0,480
1,note_on,89,81,0
1,note_on,89,0,230
1,note_on,89,85,10
1,note_on,89,0,720
1,note_on,87,72,0
1,note_on,87,0,240
1,note_on,85,71,0
1,note_on,85,0,240
1,note_on,82,70,0
1,note_on,82,0,240
1,note_on,84,75,0
1,note_on,84,0,720
1,note_on,82,71,0
1,note_on,82,0,240
1,note_on,80,68,0
1,note_on,80,0,240
1,note_on,77,63,0
1,note_on,77,0,240
1,note_on,82,69,0
1,note_on,82,0,240
1,note_on,80,64,0
1,note_on,80,0,240
1,note_on,78,61,0
1,note_on,78,0,240
1,note_on,78,55,0
1,note_on,78,0,60
1,note_on,80,55,0
1,note_on,80,0,60
1,note_on,78,63,0
1,note_on,78,0,120
1,note_on,77,58,0
1,note_on,77,0,360
1,note_on,76,59,0
1,note_on,76,0,110
1,note_on,76,59,10
1,note_on,76,0,720
1,note_on,77,63,0
1,note_on,77,0,480
1,note_on,80,57,0
1,note_on,80,0,240
1,note_on,68,57,0
1,note_on,80,57,60
1,note_on,68,0,420
1,note_on,72,63,0
1,note_on,80,0,240
1,note_on,84,63,0
1,note_on,84,0,240
1,note_on,72,0,0
1,note_on,70,63,0
1,note_on,82,63,0
1,note_on,82,0,360
1,note_on,70,0,0
1,note_on,68,63,0
1,note_on,80,63,0
1,note_on,80,0,110
1,note_on,68,0,0
1,note_on,68,63,10
1,note_on,80,63,0
1,note_on,68,0,720
1,note_on,73,75,0
1,note_on,85,75,0
1,note_on,85,0,720
1,note_on,73,0,0
1,note_on,80,0,0
1,note_on,80,60,0
1,note_on,73,75,0
1,note_on,85,75,0
1,note_on,85,0,480
1,note_on,73,0,0
1,note_on,72,78,0
1,note_on,84,78,0
1,note_on,84,0,240
1,note_on,72,0,0
1,note_on,72,75,0
1,note_on,84,75,0
1,note_on,84,0,360
1,note_on,72,0,0
1,note_on,80,0,0
1,note_on,70,71,0
1,note_on,82,71,0
1,note_on,82,0,120
1,note_on,70,0,0
1,note_on,68,63,0
1,note_on,80,63,0
1,note_on,80,0,240
1,note_on,68,0,0
1,note_on,80,80,0
1,note_on,77,68,0
1,note_on,89,80,0
1,note_on,89,0,720
1,note_on,77,0,0
1,note_on,80,0,0
1,note_on,77,65,0
1,note_on,80,77,0
1,note_on,89,77,0
1,note_on,89,0,480
1,note_on,80,0,0
1,note_on,77,0,0
1,note_on,77,62,0
1,note_on,80,74,0
1,note_on,89,74,0
1,note_on,89,0,230
1,note_on,80,0,0
1,note_on,77,0,0
1,note_on,77,69,10
1,note_on,80,82,0
1,note_on,89,82,0
1,note_on,89,0,720
1,note_on,80,0,0
1,note_on,77,0,0
1,note_on,78,67,0
1,note_on,75,56,0
1,note_on,87,67,0
1,note_on,87,0,240
1,note_on,75,0,0
1,note_on,78,0,0
1,note_on,73,55,0
1,note_on,78,65,0
1,note_on,85,65,0
1,note_on,85,0,360
1,note_on,78,0,0
1,note_on,73,0,0
1,note_on,70,54,0
1,note_on,78,64,0
1,note_on,82,64,0
1,note_on,82,0,120
1,note_on,78,0,0
1,note_on,70,0,0
1,note_on,72,52,0
1,note_on,80,62,0
1,note_on,84,62,0
1,note_on,84,0,720
1,note_on,80,0,0
1,note_on,72,0,0
1,note_on,70,54,0
1,note_on,78,64,0
1,note_on,82,64,0
1,note_on,82,0,240
1,note_on,78,0,0
1,note_on,70,0,0
1,note_on,68,57,0
1,note_on,77,68,0
1,note_on,80,68,0
1,note_on,80,0,240
1,note_on,77,0,0
1,note_on,68,0,0
1,note_on,70,61,0
1,note_on,77,72,0
1,note_on,82,72,0
1,note_on,82,0,240
1,note_on,77,0,0
1,note_on,70,0,0
1,note_on,77,77,0
1,note_on,71,65,0
1,note_on,83,77,0
1,note_on,83,0,480
1,note_on,71,0,0
1,note_on,77,0,0
1,note_on,77,75,0
1,note_on,70,63,0
1,note_on,82,75,0
1,note_on,82,0,240
1,note_on,70,0,0
1,note_on,77,0,0
1,note_on,71,66,0
1,note_on,77,78,0
1,note_on,83,78,0
1,note_on,83,0,1200
1,note_on,77,0,0
1,note_on,71,0,0
1,note_on,70,64,0
1,note_on,77,76,0
1,note_on,82,76,0
1,note_on,82,0,240
1,note_on,77,0,0
1,note_on,70,0,0
1,note_on,71,68,0
1,note_on,77,81,0
1,note_on,83,81,0
1,note_on,83,0,240
1,note_on,77,0,0
1,note_on,71,0,0
1,note_on,70,66,0
1,note_on,77,78,0
1,note_on,82,78,0
1,note_on,82,0,240
1,note_on,77,0,0
1,note_on,70,0,0
1,note_on,71,66,0
1,note_on,77,78,0
1,note_on,83,78,0
1,note_on,83,0,240
1,note_on,77,0,0
1,note_on,71,0,0
1,note_on,71,68,0
1,note_on,78,81,0
1,note_on,83,81,0
1,note_on,83,0,480
1,note_on,78,0,0
1,note_on,71,0,0
1,note_on,70,69,0
1,note_on,78,82,0
1,note_on,82,82,0
1,note_on,82,0,240
1,note_on,78,0,0
1,note_on,70,0,0
1,note_on,94,96,0
1,note_on,90,96,0
1,note_on,82,81,0
1,note_on,82,0,1080
1,note_on,90,0,0
1,note_on,94,0,0
1,note_on,84,80,0
1,note_on,78,80,0
1,note_on,72,68,0
1,note_on,72,0,110
1,note_on,78,0,0
1,note_on,84,0,0
1,note_on,72,68,10
1,note_on,78,80,0
1,note_on,84,80,0
1,note_on,84,0,230
1,note_on,78,0,0
1,note_on,72,0,0
1,note_on,72,79,10
1,note_on,78,93,0
1,note_on,84,93,0
1,note_on,84,0,360
1,note_on,78,0,0
1,note_on,72,0,0
1,note_on,89,89,0
1,note_on,80,89,0
1,note_on,77,75,0
1,note_on,77,0,120
1,note_on,80,0,0
1,note_on,89,0,0
1,note_on,87,92,0
1,note_on,78,92,0
1,note_on,75,78,0
1,note_on,75,0,240
1,note_on,78,0,0
1,note_on,87,0,0
1,note_on,85,104,0
1,note_on,77,104,0
1,note_on,73,88,0
1,note_on,73,0,120
1,note_on,77,0,0
1,note_on,85,0,0
1,note_on,65,97,600
1,note_on,65,0,120
1,note_on,73,75,0
1,note_on,73,0,120
1,note_on,80,79,0
1,note_on,80,0,120
1,note_on,77,83,0
1,note_on,77,0,120
1,note_on,85,87,0
1,note_on,85,0,120
1,note_on,94,91,0
1,note_on,94,0,120
1,note_on,84,86,0
1,note_on,92,96,0
1,note_on,92,0,240
1,note_on,84,0,0
1,note_on,66,97,480
1,note_on,66,0,120
1,note_on,72,75,0
1,note_on,72,0,120
1,note_on,80,80,0
1,note_on,80,0,120
1,note_on,78,84,0
1,note_on,78,0,120
1,note_on,84,88,0
1,note_on,84,0,120
1,note_on,92,93,0
1,note_on,92,0,120
1,note_on,85,87,0
1,note_on,89,97,0
1,note_on,89,0,240
1,note_on,85,0,0
1,note_on,65,97,480
1,note_on,65,0,120
1,note_on,73,75,0
1,note_on,73,0,120
1,note_on,80,79,0
1,note_on,80,0,120
1,note_on,77,83,0
1,note_on,77,0,120
1,note_on,85,87,0
1,note_on,85,0,120
1,note_on,94,91,0
1,note_on,94,0,120
1,note_on,84,86,0
1,note_on,92,96,0
1,note_on,92,0,240
1,note_on,84,0,0
1,note_on,66,97,480
1,note_on,66,0,120
1,note_on,72,75,0
1,note_on,72,0,120
1,note_on,80,80,0
1,note_on,80,0,120
1,note_on,78,84,0
1,note_on,78,0,120
1,note_on,84,88,0
1,note_on,84,0,120
1,note_on,92,93,0
1,note_on,92,0,120
1,note_on,85,87,0
1,note_on,89,97,0
1,note_on,89,0,240
1,note_on,85,0,0
1,note_on,65,97,480
1,note_on,65,0,120
1,note_on,73,75,0
1,note_on,73,0,120
1,note_on,80,78,0
1,note_on,80,0,120
1,note_on,77,75,0
1,note_on,77,0,120
1,note_on,85,79,0
1,note_on,85,0,120
1,note_on,92,75,0
1,note_on,92,0,120
1,note_on,85,78,0
1,note_on,85,0,120
1,note_on,77,75,0
1,note_on,77,0,120
1,note_on,80,80,0
1,note_on,80,0,120
1,note_on,73,75,0
1,note_on,73,0,120
1,note_on,65,79,0
1,note_on,65,0,120
1,note_on,68,75,0
1,note_on,68,0,120
1,note_on,61,78,0
1,note_on,61,0,120
1,note_on,53,77,0
1,note_on,53,0,120
1,note_on,56,82,0
1,note_on,56,0,120
1,note_on,49,79,0
1,note_on,49,0,120
1,note_on,41,87,0
1,note_on,41,0,120
1,note_on,49,85,0
1,note_on,49,0,120
1,note_on,97,101,720
1,note_on,85,85,0
1,note_on,85,0,720
1,note_on,97,0,0
1,note_on,57,29,480
1,note_on,57,0,80
1,note_on,58,31,0
1,note_on,58,0,80
1,note_on,61,33,0
1,note_on,61,0,80
1,note_on,65,38,0
1,note_on,65,0,120
1,note_on,57,29,360
1,note_on,57,0,80
1,note_on,58,31,0
1,note_on,58,0,80
1,note_on,61,32,0
1,note_on,61,0,80
1,note_on,65,38,0
1,note_on,65,0,120
1,note_on,58,100,1320
1,note_on,58,0,120
1,note_on,94,92,600
1,note_on,90,92,0
1,note_on,82,78,0
1,note_on,82,0,1440
1,note_on,90,0,0
1,note_on,94,0,0
1,note_on,75,51,0
1,note_on,84,61,0
1,note_on,87,61,0
1,note_on,87,0,360
1,note_on,84,0,0
1,note_on,75,0,0
1,note_on,77,57,0
1,note_on,84,68,0
1,note_on,89,68,0
1,note_on,89,0,120
1,note_on,84,0,0
1,note_on,77,0,0
1,note_on,78,60,0
1,note_on,84,71,0
1,note_on,90,71,0
1,note_on,90,0,240
1,note_on,84,0,0
1,note_on,78,0,0
1,note_on,77,57,0
1,note_on,85,68,0
1,note_on,89,68,0
1,note_on,89,0,240
1,note_on,85,0,0
1,note_on,77,0,0
1,note_on,57,27,240
1,note_on,57,0,80
1,note_on,58,29,0
1,note_on,58,0,80
1,note_on,61,30,0
1,note_on,61,0,80
1,note_on,65,35,0
1,note_on,65,0,120
1,note_on,57,27,360
1,note_on,57,0,80
1,note_on,58,29,0
1,note_on,58,0,80
1,note_on,61,30,0
1,note_on,61,0,80
1,note_on,65,35,0
1,note_on,65,0,120
1,note_on,56,100,1320
1,note_on,56,0,120
1,note_on,92,90,600
1,note_on,89,90,0
1,note_on,80,76,0
1,note_on,80,0,1440
1,note_on,89,0,0
1,note_on,92,0,0
1,note_on,75,51,0
1,note_on,84,60,0
1,note_on,87,60,0
1,note_on,87,0,144
1,note_on,84,0,0
1,note_on,75,0,0
1,note_on,84,60,0
1,note_on,76,51,0
1,note_on,88,60,0
1,note_on,88,0,144
1,note_on,76,0,0
1,note_on,84,0,0
1,note_on,77,55,0
1,note_on,84,65,0
1,note_on,89,65,0
1,note_on,89,0,144
1,note_on,84,0,0
1,note_on,77,0,0
1,note_on,80,61,0
1,note_on,84,72,0
1,note_on,92,72,0
1,note_on,92,0,144
1,note_on,84,0,0
1,note_on,80,0,0
1,note_on,90,70,0
1,note_on,84,70,0
1,note_on,78,70,0
1,note_on,78,0,144
1,note_on,84,0,0
1,note_on,90,0,0
1,note_on,77,56,0
1,note_on,85,67,0
1,note_on,89,67,0
1,note_on,89,0,240
1,note_on,85,0,0
1,note_on,77,0,0
1,note_on,69,81,480
1,note_on,77,81,0
1,note_on,77,0,480
1,note_on,69,0,0
1,note_on,57,81,240
1,note_on,65,81,0
1,note_on,65,0,480
1,note_on,57,0,0
1,note_on,57,27,480
1,note_on,57,0,80
1,note_on,58,29,0
1,note_on,58,0,80
1,note_on,61,30,0
1,note_on,61,0,80
1,note_on,65,35,0
1,note_on,65,0,120
1,note_on,57,29,360
1,note_on,57,0,80
1,note_on,58,30,0
1,note_on,58,0,80
1,note_on,61,31,0
1,note_on,61,0,80
1,note_on,65,35,0
1,note_on,65,0,120
1,note_on,58,100,1320
1,note_on,58,0,120
1,note_on,82,78,600
1,note_on,90,92,0
1,note_on,94,92,0
1,note_on,94,0,1080
1,note_on,90,0,0
1,note_on,82,0,0
1,note_on,87,58,0
1,note_on,84,58,0
1,note_on,75,49,0
1,note_on,75,0,120
1,note_on,84,0,0
1,note_on,87,0,0
1,note_on,87,58,0
1,note_on,84,58,0
1,note_on,75,49,0
1,note_on,75,0,240
1,note_on,84,0,0
1,note_on,87,0,0
1,note_on,75,51,0
1,note_on,84,61,0
1,note_on,87,61,0
1,note_on,87,0,360
1,note_on,84,0,0
1,note_on,75,0,0
1,note_on,84,68,0
1,note_on,89,68,0
1,note_on,77,57,0
1,note_on,77,0,120
1,note_on,89,0,0
1,note_on,84,0,0
1,note_on,84,71,0
1,note_on,78,60,0
1,note_on,90,71,0
1,note_on,90,0,240
1,note_on,78,0,0
1,note_on,84,0,0
1,note_on,85,68,0
1,note_on,77,57,0
1,note_on,89,68,0
1,note_on,89,0,240
1,note_on,77,0,0
1,note_on,85,0,0
1,note_on,57,29,240
1,note_on,57,0,80
1,note_on,58,30,0
1,note_on,58,0,80
1,note_on,61,32,0
1,note_on,61,0,80
1,note_on,65,37,0
1,note_on,65,0,120
1,note_on,57,29,360
1,note_on,57,0,80
1,note_on,58,30,0
1,note_on,58,0,80
1,note_on,61,32,0
1,note_on,61,0,80
1,note_on,65,37,0
1,note_on,65,0,120
1,note_on,48,100,1320
1,note_on,48,0,120
1,note_on,84,76,600
1,note_on,92,90,0
1,note_on,96,90,0
1,note_on,96,0,1440
1,note_on,92,0,0
1,note_on,84,0,0
1,note_on,91,73,0
1,note_on,97,73,0
1,note_on,85,62,0
1,note_on,85,0,180
1,note_on,97,0,0
1,note_on,91,0,0
1,note_on,84,60,0
1,note_on,91,71,0
1,note_on,96,71,0
1,note_on,96,0,180
1,note_on,91,0,0
1,note_on,84,0,0
1,note_on,89,67,0
1,note_on,77,56,0
1,note_on,84,67,0
1,note_on,84,0,180
1,note_on,77,0,0
1,note_on,89,0,0
1,note_on,91,68,0
1,note_on,84,68,0
1,note_on,79,57,0
1,note_on,79,0,180
1,note_on,84,0,0
1,note_on,91,0,0
1,note_on,92,73,0
1,note_on,84,73,0
1,note_on,80,62,0
1,note_on,80,0,240
1,note_on,84,0,0
1,note_on,92,0,0
1,note_on,72,81,480
1,note_on,80,81,0
1,note_on,68,68,0
1,note_on,77,81,0
1,note_on,77,0,480
1,note_on,72,0,0
1,note_on,80,0,0
1,note_on,68,0,0
1,note_on,60,81,240
1,note_on,68,81,0
1,note_on,56,68,0
1,note_on,65,81,0
1,note_on,65,0,480
1,note_on,60,0,0
1,note_on,68,0,0
1,note_on,56,0,0
1,note_on,41,94,1680
1,note_on,41,0,720
1,note_on,38,50,0
1,note_on,39,51,80
1,note_on,38,0,10
1,note_on,41,51,70
1,note_on,39,0,10
1,note_on,39,52,70
1,note_on,41,0,10
1,note_on,41,53,70
1,note_on,39,0,10
1,note_on,39,55,70
1,note_on,41,0,10
1,note_on,41,56,70
1,note_on,39,0,10
1,note_on,39,56,70
1,note_on,41,0,10
1,note_on,41,57,70
1,note_on,39,0,10
1,note_on,39,58,70
1,note_on,41,0,10
1,note_on,41,59,50
1,note_on,39,0,10
1,note_on,39,60,50
1,note_on,41,0,10
1,note_on,41,61,50
1,note_on,39,0,10
1,note_on,41,0,50
1,note_on,39,62,0
1,note_on,39,0,60
1,note_on,41,62,0
1,note_on,41,0,60
1,note_on,39,62,0
1,note_on,39,0,60
1,note_on,41,63,0
1,note_on,41,0,60
1,note_on,39,64,0
1,note_on,38,73,80
1,note_on,39,0,10
1,note_on,39,73,70
1,note_on,38,0,10
1,note_on,101,97,70
1,note_on,39,0,10
1,note_on,101,0,950
1,note_on,99,68,0
1,note_on,99,0,120
1,note_on,97,61,0
1,note_on,97,0,120
1,note_on,92,65,0
1,note_on,92,0,120
1,note_on,89,59,0
1,note_on,89,0,120
1,note_on,87,62,0
1,note_on,87,0,120
1,note_on,85,56,0
1,note_on,85,0,120
1,note_on,80,58,0
1,note_on,80,0,120
1,note_on,77,53,0
1,note_on,77,0,120
1,note_on,75,55,0
1,note_on,75,0,120
1,note_on,73,50,0
1,note_on,73,0,120
1,note_on,68,52,0
1,note_on,68,0,240
1,note_on,72,55,480
1,note_on,72,0,120
1,note_on,73,52,0
1,note_on,73,0,120
1,note_on,75,50,0
1,note_on,75,0,120
1,note_on,77,47,0
1,note_on,77,0,120
1,note_on,78,45,0
1,note_on,80,42,113
1,note_on,78,0,7
1,note_on,80,0,113
1,note_on,81,40,7
1,note_on,81,0,120
1,note_on,81,50,600
1,note_on,81,0,120
1,note_on,80,49,0
1,note_on,80,0,120
1,note_on,79,47,0
1,note_on,79,0,120
1,note_on,78,46,0
1,note_on,78,0,120
1,note_on,77,44,0
1,note_on,77,0,120
1,note_on,76,42,0
1,note_on,76,0,120
1,note_on,75,41,0
1,note_on,75,0,120
1,note_on,101,97,600
1,note_on,101,0,960
1,note_on,99,68,0
1,note_on,99,0,120
1,note_on,97,61,0
1,note_on,97,0,120
1,note_on,92,65,0
1,note_on,92,0,120
1,note_on,89,59,0
1,note_on,89,0,120
1,note_on,87,62,0
1,note_on,87,0,120
1,note_on,85,57,0
1,note_on,85,0,120
1,note_on,80,58,0
1,note_on,80,0,120
1,note_on,77,53,0
1,note_on,77,0,120
1,note_on,75,55,0
1,note_on,75,0,120
1,note_on,73,51,0
1,note_on,73,0,120
1,note_on,68,52,0
1,note_on,68,0,240
1,note_on,72,42,480
1,note_on,72,0,120
1,note_on,73,41,0
1,note_on,73,0,120
1,note_on,75,41,0
1,note_on,75,0,120
1,note_on,77,40,0
1,note_on,77,0,120
1,note_on,78,39,0
1,note_on,80,38,113
1,note_on,78,0,7
1,note_on,80,0,113
1,note_on,81,37,7
1,note_on,81,0,120
1,note_on,81,42,600
1,note_on,81,0,120
1,note_on,80,41,0
1,note_on,80,0,120
1,note_on,79,40,0
1,note_on,79,0,120
1,note_on,78,39,0
1,note_on,78,0,120
1,note_on,77,37,0
1,note_on,77,0,120
1,note_on,76,36,0
1,note_on,76,0,120
1,note_on,75,35,0
1,note_on,75,0,240
1,note_on,71,40,480
1,note_on,77,59,0
1,note_on,77,0,960
1,note_on,75,53,0
1,note_on,75,0,360
1,note_on,73,52,0
1,note_on,73,0,110
1,note_on,71,0,10
1,note_on,71,43,0
1,note_on,73,58,0
1,note_on,73,0,720
1,note_on,71,0,0
1,note_on,70,56,0
1,note_on,78,56,0
1,note_on,70,0,720
1,note_on,71,50,0
1,note_on,78,0,480
1,note_on,77,52,0
1,note_on,77,0,240
1,note_on,77,51,0
1,note_on,77,0,240
1,note_on,75,50,0
1,note_on,75,0,240
1,note_on,73,49,0
1,note_on,73,0,230
1,note_on,71,0,10
1,note_on,70,44,0
1,note_on,73,44,0
1,note_on,82,56,0
1,note_on,82,0,720
1,note_on,73,0,0
1,note_on,70,0,0
1,note_on,68,44,0
1,note_on,73,44,0
1,note_on,82,62,0
1,note_on,82,0,480
1,note_on,82,64,0
1,note_on,67,44,180
1,note_on,67,0,60
1,note_on,68,0,0
1,note_on,73,0,0
1,note_on,82,0,0
1,note_on,73,45,0
1,note_on,82,68,0
1,note_on,82,0,480
1,note_on,75,57,0
1,note_on,75,0,240
1,note_on,75,57,0
1,note_on,75,0,240
1,note_on,77,51,0
1,note_on,77,0,60
1,note_on,79,51,0
1,note_on,79,0,60
1,note_on,77,56,0
1,note_on,77,0,240
1,note_on,75,56,0
1,note_on,75,0,110
1,note_on,73,0,10
1,note_on,73,49,0
1,note_on,75,59,0
1,note_on,75,0,720
1,note_on,73,0,0
1,note_on,72,53,0
1,note_on,80,64,0
1,note_on,72,0,720
1,note_on,73,55,0
1,note_on,80,0,240
1,note_on,79,60,0
1,note_on,79,0,240
1,note_on,77,59,0
1,note_on,77,0,240
1,note_on,79,60,0
1,note_on,79,0,240
1,note_on,77,59,0
1,note_on,77,0,360
1,note_on,75,56,0
1,note_on,75,0,120
1,note_on,73,0,0
1,note_on,72,56,0
1,note_on,84,56,0
1,note_on,84,0,720
1,note_on,84,64,0
1,note_on,84,0,480
1,note_on,84,63,0
1,note_on,84,0,230
1,note_on,72,0,10
1,note_on,84,68,0
1,note_on,84,0,960
1,note_on,82,63,0
1,note_on,82,0,360
1,note_on,80,63,0
1,note_on,80,0,110
1,note_on,80,63,10
1,note_on,80,0,720
1,note_on,85,75,0
1,note_on,85,0,720
1,note_on,85,82,0
1,note_on,85,0,480
1,note_on,84,78,0
1,note_on,84,0,230
1,note_on,84,75,10
1,note_on,84,0,240
1,note_on,82,71,0
1,note_on,82,0,360
1,note_on,80,63,0
1,note_on,80,0,120
1,note_on,89,80,0
1,note_on,89,0,720
1,note_on,89,77,0
1,note_on,89,0,480
1,note_on,89,81,0
1,note_on,89,0,230
1,note_on,89,85,10
1,note_on,89,0,720
1,note_on,87,72,0
1,note_on,87,0,240
1,note_on,85,71,0
1,note_on,85,0,240
1,note_on,82,70,0
1,note_on,82,0,240
1,note_on,84,75,0
1,note_on,84,0,720
1,note_on,82,71,0
1,note_on,82,0,240
1,note_on,80,68,0
1,note_on,80,0,240
1,note_on,77,63,0
1,note_on,77,0,240
1,note_on,82,69,0
1,note_on,82,0,240
1,note_on,80,64,0
1,note_on,80,0,240
1,note_on,78,61,0
1,note_on,78,0,230
1,note_on,78,55,10
1,note_on,78,0,60
1,note_on,80,55,0
1,note_on,80,0,60
1,note_on,78,63,0
1,note_on,78,0,120
1,note_on,77,58,0
1,note_on,77,0,360
1,note_on,76,59,0
1,note_on,76,0,110
1,note_on,76,59,10
1,note_on,76,0,720
1,note_on,77,63,0
1,note_on,77,0,480
1,note_on,80,57,0
1,note_on,80,0,240
1,note_on,68,57,0
1,note_on,80,57,60
1,note_on,68,0,420
1,note_on,72,63,0
1,note_on,80,0,240
1,note_on,84,63,0
1,note_on,84,0,240
1,note_on,72,0,0
1,note_on,70,63,0
1,note_on,82,63,0
1,note_on,82,0,360
1,note_on,70,0,0
1,note_on,68,63,0
1,note_on,80,63,0
1,note_on,80,0,110
1,note_on,68,0,0
1,note_on,68,63,10
1,note_on,80,63,0
1,note_on,68,0,720
1,note_on,73,75,0
1,note_on,85,75,0
1,note_on,85,0,720
1,note_on,73,0,0
1,note_on,80,0,0
1,note_on,78,60,0
1,note_on,80,60,0
1,note_on,73,75,0
1,note_on,85,75,0
1,note_on,85,0,360
1,note_on,73,0,0
1,note_on,84,71,0
1,note_on,72,71,0
1,note_on,72,0,120
1,note_on,84,0,0
1,note_on,80,70,0
1,note_on,78,70,0
1,note_on,72,70,0
1,note_on,84,70,0
1,note_on,84,0,240
1,note_on,80,0,0
1,note_on,80,0,0
1,note_on,78,0,0
1,note_on,72,0,0
1,note_on,78,0,0
1,note_on,80,60,0
1,note_on,78,60,0
1,note_on,72,75,0
1,note_on,84,75,0
1,note_on,84,0,360
1,note_on,80,0,0
1,note_on,78,0,0
1,note_on,72,0,0
1,note_on,70,71,0
1,note_on,82,71,0
1,note_on,82,0,120
1,note_on,70,0,0
1,note_on,78,60,0
1,note_on,68,63,0
1,note_on,80,63,0
1,note_on,80,0,240
1,note_on,68,0,0
1,note_on,78,0,0
1,note_on,80,80,0
1,note_on,77,68,0
1,note_on,89,80,0
1,note_on,89,0,720
1,note_on,77,0,0
1,note_on,80,0,0
1,note_on,77,65,0
1,note_on,80,77,0
1,note_on,89,77,0
1,note_on,89,0,480
1,note_on,80,0,0
1,note_on,77,0,0
1,note_on,77,66,0
1,note_on,80,78,0
1,note_on,89,78,0
1,note_on,89,0,230
1,note_on,80,0,0
1,note_on,77,0,0
1,note_on,77,69,10
1,note_on,80,82,0
1,note_on,89,82,0
1,note_on,89,0,720
1,note_on,80,0,0
1,note_on,77,0,0
1,note_on,78,67,0
1,note_on,75,56,0
1,note_on,87,67,0
1,note_on,87,0,240
1,note_on,75,0,0
1,note_on,78,0,0
1,note_on,73,55,0
1,note_on,78,65,0
1,note_on,85,65,0
1,note_on,85,0,360
1,note_on,78,0,0
1,note_on,73,0,0
1,note_on,70,54,0
1,note_on,78,64,0
1,note_on,82,64,0
1,note_on,82,0,120
1,note_on,78,0,0
1,note_on,70,0,0
1,note_on,72,52,0
1,note_on,80,62,0
1,note_on,84,62,0
1,note_on,84,0,720
1,note_on,80,0,0
1,note_on,72,0,0
1,note_on,70,54,0
1,note_on,78,64,0
1,note_on,82,64,0
1,note_on,82,0,240
1,note_on,78,0,0
1,note_on,70,0,0
1,note_on,68,57,0
1,note_on,77,68,0
1,note_on,80,68,0
1,note_on,80,0,240
1,note_on,77,0,0
1,note_on,68,0,0
1,note_on,70,61,0
1,note_on,77,72,0
1,note_on,82,72,0
1,note_on,82,0,240
1,note_on,77,0,0
1,note_on,70,0,0
1,note_on,77,77,0
1,note_on,71,65,0
1,note_on,83,77,0
1,note_on,83,0,480
1,note_on,71,0,0
1,note_on,77,0,0
1,note_on,77,75,0
1,note_on,70,63,0
1,note_on,82,75,0
1,note_on,82,0,240
1,note_on,70,0,0
1,note_on,77,0,0
1,note_on,71,66,0
1,note_on,77,78,0
1,note_on,83,78,0
1,note_on,83,0,1200
1,note_on,77,0,0
1,note_on,71,0,0
1,note_on,70,64,0
1,note_on,77,76,0
1,note_on,82,76,0
1,note_on,82,0,240
1,note_on,77,0,0
1,note_on,70,0,0
1,note_on,71,68,0
1,note_on,77,81,0
1,note_on,83,81,0
1,note_on,83,0,240
1,note_on,77,0,0
1,note_on,71,0,0
1,note_on,70,66,0
1,note_on,77,78,0
1,note_on,82,78,0
1,note_on,82,0,240
1,note_on,77,0,0
1,note_on,70,0,0
1,note_on,71,66,0
1,note_on,77,78,0
1,note_on,83,78,0
1,note_on,83,0,240
1,note_on,77,0,0
1,note_on,71,0,0
1,note_on,71,68,0
1,note_on,78,81,0
1,note_on,83,81,0
1,note_on,83,0,480
1,note_on,78,0,0
1,note_on,71,0,0
1,note_on,70,69,0
1,note_on,78,82,0
1,note_on,82,82,0
1,note_on,82,0,240
1,note_on,78,0,0
1,note_on,70,0,0
1,note_on,94,95,0
1,note_on,90,95,0
1,note_on,82,80,0
1,note_on,82,0,1080
1,note_on,90,0,0
1,note_on,94,0,0
1,note_on,84,80,0
1,note_on,78,80,0
1,note_on,72,68,0
1,note_on,72,0,110
1,note_on,78,0,0
1,note_on,84,0,0
1,note_on,72,68,10
1,note_on,78,80,0
1,note_on,84,80,0
1,note_on,84,0,230
1,note_on,78,0,0
1,note_on,72,0,0
1,note_on,72,79,10
1,note_on,78,93,0
1,note_on,84,93,0
1,note_on,84,0,360
1,note_on,78,0,0
1,note_on,72,0,0
1,note_on,89,89,0
1,note_on,80,89,0
1,note_on,77,75,0
1,note_on,77,0,120
1,note_on,80,0,0
1,note_on,89,0,0
1,note_on,87,92,0
1,note_on,78,92,0
1,note_on,75,78,0
1,note_on,75,0,240
1,note_on,78,0,0
1,note_on,87,0,0
1,note_on,85,101,0
1,note_on,77,101,0
1,note_on,73,85,0
1,note_on,73,0,120
1,note_on,77,0,0
1,note_on,85,0,0
1,note_on,65,97,600
1,note_on,65,0,120
1,note_on,73,75,0
1,note_on,73,0,120
1,note_on,80,79,0
1,note_on,80,0,120
1,note_on,77,83,0
1,note_on,77,0,120
1,note_on,85,87,0
1,note_on,85,0,120
1,note_on,94,91,0
1,note_on,94,0,120
1,note_on,84,86,0
1,note_on,92,96,0
1,note_on,92,0,240
1,note_on,84,0,0
1,note_on,66,97,480
1,note_on,66,0,120
1,note_on,72,75,0
1,note_on,72,0,120
1,note_on,80,80,0
1,note_on,80,0,120
1,note_on,78,84,0
1,note_on,78,0,120
1,note_on,84,88,0
1,note_on,84,0,120
1,note_on,92,93,0
1,note_on,92,0,120
1,note_on,85,87,0
1,note_on,89,97,0
1,note_on,89,0,240
1,note_on,85,0,0
1,note_on,65,97,480
1,note_on,65,0,120
1,note_on,73,75,0
1,note_on,73,0,120
1,note_on,80,79,0
1,note_on,80,0,120
1,note_on,77,83,0
1,note_on,77,0,120
1,note_on,85,87,0
1,note_on,85,0,120
1,note_on,94,91,0
1,note_on,94,0,120
1,note_on,84,86,0
1,note_on,92,96,0
1,note_on,92,0,240
1,note_on,84,0,0
1,note_on,66,97,480
1,note_on,66,0,120
1,note_on,72,75,0
1,note_on,72,0,120
1,note_on,80,80,0
1,note_on,80,0,120
1,note_on,78,84,0
1,note_on,78,0,120
1,note_on,84,88,0
1,note_on,84,0,120
1,note_on,92,93,0
1,note_on,92,0,120
1,note_on,85,97,0
1,note_on,89,97,0
1,note_on,89,0,240
1,note_on,85,0,0
1,note_on,65,97,480
1,note_on,65,0,120
1,note_on,73,75,0
1,note_on,73,0,120
1,note_on,80,78,0
1,note_on,80,0,120
1,note_on,77,75,0
1,note_on,77,0,120
1,note_on,85,79,0
1,note_on,85,0,120
1,note_on,92,75,0
1,note_on,92,0,120
1,note_on,85,78,0
1,note_on,85,0,120
1,note_on,77,75,0
1,note_on,77,0,120
1,note_on,80,80,0
1,note_on,80,0,120
1,note_on,73,75,0
1,note_on,73,0,120
1,note_on,65,79,0
1,note_on,65,0,120
1,note_on,68,75,0
1,note_on,68,0,120
1,note_on,61,78,0
1,note_on,61,0,120
1,note_on,53,77,0
1,note_on,53,0,120
1,note_on,56,82,0
1,note_on,56,0,120
1,note_on,49,79,0
1,note_on,49,0,120
1,note_on,41,87,0
1,note_on,41,0,120
1,note_on,49,85,0
1,note_on,49,0,120
1,note_on,97,101,720
1,note_on,85,85,0
1,note_on,85,0,720
1,note_on,97,0,0
1,note_on,52,44,0
1,note_on,61,52,0
1,note_on,64,52,0
1,note_on,64,0,720
1,note_on,61,0,0
1,note_on,52,0,0
1,note_on,54,37,0
1,note_on,61,44,0
1,note_on,66,44,0
1,note_on,54,0,720
1,note_on,61,0,240
1,note_on,59,57,0
1,note_on,59,0,240
1,note_on,61,57,0
1,note_on,61,0,240
1,note_on,64,60,0
1,note_on,64,0,240
1,note_on,62,56,0
1,note_on,62,0,240
1,note_on,61,56,0
1,note_on,61,0,230
1,note_on,66,0,10
1,note_on,52,44,0
1,note_on,61,52,0
1,note_on,64,52,0
1,note_on,64,0,720
1,note_on,61,0,0
1,note_on,52,0,0
1,note_on,54,37,0
1,note_on,61,44,0
1,note_on,66,44,0
1,note_on,54,0,720
1,note_on,61,0,240
1,note_on,59,57,0
1,note_on,59,0,240
1,note_on,61,57,0
1,note_on,61,0,240
1,note_on,64,60,0
1,note_on,64,0,240
1,note_on,62,56,0
1,note_on,62,0,360
1,note_on,61,56,0
1,note_on,61,0,110
1,note_on,66,0,10
1,note_on,56,37,0
1,note_on,61,44,0
1,note_on,64,44,0
1,note_on,61,0,720
1,note_on,59,37,0
1,note_on,59,0,480
1,note_on,56,0,0
1,note_on,57,32,0
1,note_on,57,0,240
1,note_on,64,0,0
1,note_on,61,30,0
1,note_on,61,0,1440
1,note_on,73,53,0
1,note_on,73,0,600
1,note_on,71,45,0
1,note_on,71,0,60
1,note_on,73,45,0
1,note_on,73,0,60
1,note_on,71,50,0
1,note_on,71,0,360
1,note_on,69,47,0
1,note_on,69,0,120
1,note_on,71,50,0
1,note_on,71,0,240
1,note_on,73,53,0
1,note_on,73,0,360
1,note_on,74,50,0
1,note_on,74,0,120
1,note_on,73,48,0
1,note_on,73,0,120
1,note_on,71,43,0
1,note_on,71,0,60
1,note_on,73,43,0
1,note_on,73,0,60
1,note_on,71,52,0
1,note_on,71,0,360
1,note_on,69,48,0
1,note_on,69,0,120
1,note_on,71,47,0
1,note_on,71,0,240
1,note_on,73,39,0
1,note_on,73,0,120
1,note_on,61,29,0
1,note_on,61,0,120
1,note_on,73,29,0
1,note_on,73,0,120
1,note_on,68,29,0
1,note_on,68,0,120
1,note_on,73,29,0
1,note_on,73,0,120
1,note_on,68,29,0
1,note_on,68,0,120
1,note_on,80,29,0
1,note_on,80,0,120
1,note_on,73,29,0
1,note_on,73,0,120
1,note_on,80,29,0
1,note_on,80,0,120
1,note_on,73,29,0
1,note_on,73,0,120
1,note_on,85,29,0
1,note_on,85,0,120
1,note_on,80,29,0
1,note_on,80,0,120
1,note_on,85,29,0
1,note_on,85,0,120
1,note_on,80,29,0
1,note_on,80,0,120
1,note_on,92,29,0
1,note_on,92,0,120
1,note_on,85,29,0
1,note_on,85,0,120
1,note_on,92,29,0
1,note_on,92,0,120
1,note_on,85,29,0
1,note_on,85,0,120
1,note_on,97,39,0
1,note_on,97,0,120
1,note_on,52,44,0
1,note_on,61,52,0
1,note_on,64,52,0
1,note_on,64,0,720
1,note_on,52,0,0
1,note_on,54,37,0
1,note_on,66,44,0
1,note_on,54,0,720
1,note_on,61,0,240
1,note_on,59,57,0
1,note_on,59,0,240
1,note_on,61,57,0
1,note_on,61,0,240
1,note_on,64,60,0
1,note_on,64,0,240
1,note_on,62,56,0
1,note_on,62,0,240
1,note_on,61,56,0
1,note_on,61,0,240
1,note_on,66,0,0
1,note_on,52,44,0
1,note_on,61,52,0
1,note_on,64,52,0
1,note_on,64,0,720
1,note_on,52,0,0
1,note_on,54,37,0
1,note_on,66,44,0
1,note_on,61,0,960
1,note_on,59,57,0
1,note_on,59,0,240
1,note_on,61,57,0
1,note_on,61,0,240
1,note_on,64,60,0
1,note_on,64,0,240
1,note_on,62,56,0
1,note_on,62,0,360
1,note_on,61,56,0
1,note_on,61,0,50
1,note_on,61,50,10
1,note_on,61,0,60
1,note_on,66,0,0
1,note_on,69,56,0
1,note_on,69,0,240
1,note_on,66,53,0
1,note_on,66,0,240
1,note_on,62,51,0
1,note_on,62,0,240
1,note_on,54,0,0
1,note_on,56,37,0
1,note_on,61,44,0
1,note_on,64,44,0
1,note_on,61,0,720
1,note_on,59,37,0
1,note_on,59,0,480
1,note_on,56,0,0
1,note_on,57,32,0
1,note_on,57,0,240
1,note_on,64,0,0
1,note_on,61,30,0
1,note_on,61,0,1440
1,note_on,73,42,720
1,note_on,73,0,1560
1,note_on,75,42,0
1,note_on,75,0,120
1,note_on,78,43,0
1,note_on,78,0,120
1,note_on,76,41,0
1,note_on,76,0,120
1,note_on,73,39,0
1,note_on,73,0,120
1,note_on,69,39,0
1,note_on,69,0,120
1,note_on,68,35,0
1,note_on,68,0,30
1,note_on,68,35,30
1,note_on,68,0,60
1,note_on,80,43,0
1,note_on,80,0,480
1,note_on,78,37,0
1,note_on,78,0,60
1,note_on,80,37,0
1,note_on,80,0,60
1,note_on,78,43,0
1,note_on,78,0,360
1,note_on,76,39,0
1,note_on,76,0,120
1,note_on,78,39,0
1,note_on,78,0,240
1,note_on,80,42,0
1,note_on,80,0,360
1,note_on,81,40,0
1,note_on,81,0,120
1,note_on,80,40,0
1,note_on,80,0,120
1,note_on,78,37,0
1,note_on,78,0,60
1,note_on,80,37,0
1,note_on,80,0,60
1,note_on,78,44,0
1,note_on,78,0,360
1,note_on,76,33,0
1,note_on,76,0,120
1,note_on,78,31,0
1,note_on,78,0,240
1,note_on,80,31,0
1,note_on,80,0,1080
1,note_on,68,25,0
1,note_on,68,0,120
1,note_on,80,25,0
1,note_on,80,0,120
1,note_on,75,25,0
1,note_on,75,0,120
1,note_on,80,25,0
1,note_on,80,0,120
1,note_on,75,25,0
1,note_on,75,0,120
1,note_on,87,21,0
1,note_on,87,0,120
1,note_on,80,21,0
1,note_on,80,0,120
1,note_on,87,21,0
1,note_on,87,0,120
1,note_on,80,21,0
1,note_on,80,0,120
1,note_on,92,28,0
1,note_on,92,0,120
1,note_on,80,44,120
1,note_on,80,0,240
1,note_on,78,44,0
1,note_on,78,0,240
1,note_on,76,45,0
1,note_on,67,34,240
1,note_on,67,0,120
1,note_on,68,34,0
1,note_on,68,0,120
1,note_on,71,34,0
1,note_on,71,0,80
1,note_on,69,34,0
1,note_on,69,0,80
1,note_on,68,34,0
1,note_on,68,0,80
1,note_on,68,43,0
1,note_on,76,0,240
1,note_on,76,42,0
1,note_on,76,0,240
1,note_on,75,42,0
1,note_on,75,0,240
1,note_on,73,44,0
1,note_on,73,0,240
1,note_on,68,0,0
1,note_on,67,36,0
1,note_on,67,0,120
1,note_on,68,32,0
1,note_on,68,0,120
1,note_on,71,36,0
1,note_on,71,0,80
1,note_on,69,36,0
1,note_on,69,0,80
1,note_on,68,32,0
1,note_on,68,0,80
1,note_on,68,44,0
1,note_on,80,43,240
1,note_on,80,0,240
1,note_on,78,40,0
1,note_on,78,0,240
1,note_on,76,46,0
1,note_on,68,0,240
1,note_on,67,38,0
1,note_on,67,0,120
1,note_on,68,34,0
1,note_on,68,0,120
1,note_on,71,38,0
1,note_on,71,0,80
1,note_on,69,38,0
1,note_on,69,0,80
1,note_on,68,35,0
1,note_on,68,0,80
1,note_on,68,42,0
1,note_on,76,0,240
1,note_on,76,43,0
1,note_on,76,0,240
1,note_on,75,41,0
1,note_on,75,0,240
1,note_on,68,0,0
1,note_on,73,47,0
1,note_on,73,0,240
1,note_on,72,37,0
1,note_on,72,0,120
1,note_on,73,37,0
1,note_on,73,0,120
1,note_on,76,37,0
1,note_on,76,0,80
1,note_on,74,37,0
1,note_on,74,0,80
1,note_on,73,34,0
1,note_on,73,0,80
1,note_on,73,41,0
1,note_on,85,46,240
1,note_on,85,0,240
1,note_on,83,44,0
1,note_on,83,0,240
1,note_on,81,53,0
1,note_on,73,0,240
1,note_on,72,32,0
1,note_on,72,0,120
1,note_on,73,30,0
1,note_on,73,0,120
1,note_on,76,32,0
1,note_on,76,0,80
1,note_on,74,32,0
1,note_on,74,0,80
1,note_on,73,30,0
1,note_on,73,0,80
1,note_on,73,37,0
1,note_on,81,0,240
1,note_on,81,38,0
1,note_on,81,0,240
1,note_on,80,36,0
1,note_on,80,0,240
1,note_on,78,40,0
1,note_on,78,0,240
1,note_on,73,0,0
1,note_on,72,27,0
1,note_on,72,0,120
1,note_on,73,28,0
1,note_on,73,0,120
1,note_on,76,30,0
1,note_on,76,0,80
1,note_on,74,30,0
1,note_on,74,0,80
1,note_on,73,27,0
1,note_on,73,0,80
1,note_on,73,38,0
1,note_on,85,40,240
1,note_on,85,0,240
1,note_on,83,37,0
1,note_on,83,0,240
1,note_on,81,45,0
1,note_on,73,0,240
1,note_on,72,37,0
1,note_on,72,0,120
1,note_on,73,37,0
1,note_on,73,0,120
1,note_on,76,37,0
1,note_on,76,0,80
1,note_on,74,37,0
1,note_on,74,0,80
1,note_on,73,34,0
1,note_on,73,0,80
1,note_on,73,42,0
1,note_on,81,0,240
1,note_on,81,44,0
1,note_on,81,0,240
1,note_on,80,42,0
1,note_on,80,0,240
1,note_on,78,47,0
1,note_on,73,0,240
1,note_on,72,37,0
1,note_on,72,0,120
1,note_on,73,34,0
1,note_on,73,0,120
1,note_on,76,37,0
1,note_on,76,0,80
1,note_on,74,37,0
1,note_on,74,0,80
1,note_on,73,34,0
1,note_on,73,0,80
1,note_on,73,41,0
1,note_on,78,0,240
1,note_on,80,43,0
1,note_on,80,0,240
1,note_on,81,42,0
1,note_on,81,0,240
1,note_on,73,0,0
1,note_on,80,50,0
1,note_on,80,0,240
1,note_on,67,32,0
1,note_on,67,0,120
1,note_on,68,30,0
1,note_on,68,0,120
1,note_on,71,32,0
1,note_on,71,0,80
1,note_on,69,32,0
1,note_on,69,0,80
1,note_on,68,30,0
1,note_on,68,0,80
1,note_on,68,37,0
1,note_on,78,47,240
1,note_on,78,0,240
1,note_on,76,47,0
1,note_on,76,0,240
1,note_on,75,53,0
1,note_on,68,0,240
1,note_on,67,38,0
1,note_on,67,0,120
1,note_on,68,35,0
1,note_on,68,0,120
1,note_on,71,38,0
1,note_on,71,0,80
1,note_on,69,38,0
1,note_on,69,0,80
1,note_on,68,35,0
1,note_on,68,0,80
1,note_on,68,46,0
1,note_on,75,0,240
1,note_on,75,47,0
1,note_on,75,0,240
1,note_on,73,44,0
1,note_on,73,0,240
1,note_on,72,52,0
1,note_on,72,0,240
1,note_on,68,0,0
1,note_on,67,41,0
1,note_on,67,0,120
1,note_on,68,39,0
1,note_on,68,0,120
1,note_on,71,41,0
1,note_on,71,0,80
1,note_on,69,41,0
1,note_on,69,0,80
1,note_on,68,38,0
1,note_on,68,0,80
1,note_on,68,52,0
1,note_on,78,43,240
1,note_on,78,0,240
1,note_on,76,41,0
1,note_on,76,0,240
1,note_on,75,47,0
1,note_on,75,0,240
1,note_on,68,0,0
1,note_on,70,38,0
1,note_on,70,0,120
1,note_on,71,36,0
1,note_on,71,0,120
1,note_on,75,38,0
1,note_on,75,0,80
1,note_on,73,38,0
1,note_on,73,0,80
1,note_on,71,35,0
1,note_on,71,0,80
1,note_on,71,41,0
1,note_on,76,34,240
1,note_on,76,0,240
1,note_on,78,34,0
1,note_on,78,0,240
1,note_on,71,0,0
1,note_on,68,35,0
1,note_on,68,0,120
1,note_on,71,37,0
1,note_on,71,0,120
1,note_on,76,40,0
1,note_on,76,0,120
1,note_on,80,42,0
1,note_on,80,0,120
1,note_on,78,44,0
1,note_on,78,0,120
1,note_on,76,42,0
1,note_on,76,0,120
1,note_on,80,38,0
1,note_on,80,0,120
1,note_on,83,40,0
1,note_on,83,0,120
1,note_on,88,43,0
1,note_on,88,0,120
1,note_on,92,46,0
1,note_on,92,0,120
1,note_on,90,50,0
1,note_on,90,0,120
1,note_on,88,47,0
1,note_on,88,0,120
1,note_on,83,44,0
1,note_on,83,0,120
1,note_on,80,43,0
1,note_on,80,0,120
1,note_on,78,42,0
1,note_on,78,0,120
1,note_on,76,41,0
1,note_on,76,0,120
1,note_on,71,40,0
1,note_on,71,0,120
1,note_on,68,39,0
1,note_on,68,0,120
1,note_on,66,38,0
1,note_on,66,0,120
1,note_on,64,37,0
1,note_on,64,0,120
1,note_on,59,36,0
1,note_on,59,0,120
1,note_on,68,39,0
1,note_on,68,0,120
1,note_on,66,38,0
1,note_on,66,0,120
1,note_on,64,37,0
1,note_on,64,0,120
1,note_on,61,36,0
1,note_on,61,0,120
1,note_on,64,34,0
1,note_on,64,0,120
1,note_on,66,37,0
1,note_on,66,0,120
1,note_on,69,39,0
1,note_on,69,0,120
1,note_on,73,41,0
1,note_on,73,0,120
1,note_on,76,43,0
1,note_on,76,0,120
1,note_on,78,46,0
1,note_on,78,0,120
1,note_on,81,48,0
1,note_on,81,0,120
1,note_on,85,50,0
1,note_on,85,0,120
1,note_on,88,51,0
1,note_on,88,0,120
1,note_on,90,49,0
1,note_on,90,0,120
1,note_on,93,47,0
1,note_on,93,0,120
1,note_on,92,50,0
1,note_on,92,0,120
1,note_on,90,49,0
1,note_on,90,0,120
1,note_on,87,49,0
1,note_on,87,0,120
1,note_on,81,48,0
1,note_on,81,0,120
1,note_on,80,47,0
1,note_on,80,0,120
1,note_on,78,46,0
1,note_on,78,0,120
1,note_on,75,45,0
1,note_on,75,0,120
1,note_on,71,44,0
1,note_on,71,0,120
1,note_on,75,45,0
1,note_on,75,0,120
1,note_on,73,42,0
1,note_on,73,0,120
1,note_on,71,39,0
1,note_on,71,0,120
1,note_on,69,37,0
1,note_on,69,0,120
1,note_on,68,35,0
1,note_on,68,0,120
1,note_on,71,37,0
1,note_on,71,0,120
1,note_on,76,40,0
1,note_on,76,0,120
1,note_on,80,42,0
1,note_on,80,0,120
1,note_on,78,44,0
1,note_on,78,0,120
1,note_on,76,42,0
1,note_on,76,0,120
1,note_on,80,38,0
1,note_on,80,0,120
1,note_on,83,40,0
1,note_on,83,0,120
1,note_on,88,43,0
1,note_on,88,0,120
1,note_on,92,46,0
1,note_on,92,0,120
1,note_on,90,50,0
1,note_on,90,0,120
1,note_on,88,47,0
1,note_on,88,0,120
1,note_on,83,44,0
1,note_on,83,0,120
1,note_on,80,43,0
1,note_on,80,0,120
1,note_on,78,42,0
1,note_on,78,0,120
1,note_on,76,41,0
1,note_on,76,0,120
1,note_on,71,40,0
1,note_on,71,0,120
1,note_on,68,39,0
1,note_on,68,0,120
1,note_on,66,38,0
1,note_on,66,0,120
1,note_on,64,37,0
1,note_on,64,0,120
1,note_on,59,36,0
1,note_on,59,0,120
1,note_on,68,39,0
1,note_on,68,0,120
1,note_on,66,38,0
1,note_on,66,0,120
1,note_on,64,37,0
1,note_on,64,0,120
1,note_on,61,36,0
1,note_on,61,0,120
1,note_on,64,34,0
1,note_on,64,0,113
1,note_on,66,37,7
1,note_on,66,0,120
1,note_on,69,39,0
1,note_on,69,0,120
1,note_on,73,41,0
1,note_on,73,0,120
1,note_on,76,43,0
1,note_on,76,0,120
1,note_on,78,46,0
1,note_on,78,0,120
1,note_on,81,48,0
1,note_on,81,0,120
1,note_on,85,50,0
1,note_on,85,0,120
1,note_on,88,51,0
1,note_on,88,0,120
1,note_on,90,49,0
1,note_on,90,0,120
1,note_on,93,47,0
1,note_on,93,0,120
1,note_on,92,47,0
1,note_on,92,0,120
1,note_on,90,48,0
1,note_on,90,0,120
1,note_on,87,49,0
1,note_on,87,0,120
1,note_on,81,50,0
1,note_on,81,0,120
1,note_on,80,51,0
1,note_on,80,0,120
1,note_on,78,52,0
1,note_on,78,0,120
1,note_on,75,53,0
1,note_on,75,0,120
1,note_on,71,52,0
1,note_on,71,0,120
1,note_on,75,51,0
1,note_on,75,0,120
1,note_on,73,51,0
1,note_on,73,0,120
1,note_on,71,53,0
1,note_on,71,0,120
1,note_on,69,57,0
1,note_on,69,0,120
1,note_on,68,56,0
1,note_on,68,0,120
1,note_on,71,59,0
1,note_on,71,0,120
1,note_on,76,61,0
1,note_on,76,0,120
1,note_on,80,63,0
1,note_on,80,0,120
1,note_on,78,65,0
1,note_on,78,0,120
1,note_on,76,63,0
1,note_on,76,0,120
1,note_on,80,61,0
1,note_on,80,0,120
1,note_on,83,61,0
1,note_on,83,0,120
1,note_on,88,64,0
1,note_on,88,0,120
1,note_on,92,66,0
1,note_on,92,0,120
1,note_on,90,69,0
1,note_on,90,0,120
1,note_on,88,65,0
1,note_on,88,0,120
1,note_on,84,62,0
1,note_on,84,0,120
1,note_on,81,61,0
1,note_on,81,0,120
1,note_on,78,60,0
1,note_on,78,0,120
1,note_on,76,60,0
1,note_on,76,0,120
1,note_on,72,59,0
1,note_on,72,0,120
1,note_on,69,58,0
1,note_on,69,0,120
1,note_on,66,57,0
1,note_on,66,0,120
1,note_on,64,56,0
1,note_on,64,0,120
1,note_on,60,55,0
1,note_on,60,0,120
1,note_on,57,54,0
1,note_on,57,0,120
1,note_on,54,53,0
1,note_on,54,0,120
1,note_on,52,52,0
1,note_on,52,0,120
1,note_on,56,52,0
1,note_on,56,0,120
1,note_on,59,51,0
1,note_on,59,0,120
1,note_on,64,52,0
1,note_on,64,0,120
1,note_on,68,53,0
1,note_on,68,0,120
1,note_on,66,54,0
1,note_on,66,0,120
1,note_on,64,52,0
1,note_on,64,0,120
1,note_on,68,49,0
1,note_on,68,0,120
1,note_on,71,51,0
1,note_on,71,0,120
1,note_on,76,54,0
1,note_on,76,0,120
1,note_on,80,57,0
1,note_on,80,0,120
1,note_on,78,59,0
1,note_on,78,0,120
1,note_on,76,57,0
1,note_on,76,0,120
1,note_on,72,59,0
1,note_on,72,0,120
1,note_on,69,61,0
1,note_on,69,0,120
1,note_on,66,62,0
1,note_on,66,0,120
1,note_on,64,64,0
1,note_on,64,0,120
1,note_on,60,66,0
1,note_on,60,0,120
1,note_on,57,67,0
1,note_on,57,0,120
1,note_on,54,69,0
1,note_on,54,0,120
1,note_on,52,71,0
1,note_on,52,0,120
1,note_on,48,73,0
1,note_on,48,0,120
1,note_on,45,74,0
1,note_on,45,0,120
1,note_on,42,76,0
1,note_on,42,0,120
1,note_on,40,78,0
1,note_on,40,0,120
1,note_on,47,73,240
1,note_on,47,0,120
1,note_on,52,68,0
1,note_on,52,0,120
1,note_on,57,68,0
1,note_on,57,0,120
1,note_on,56,68,0
1,note_on,56,0,120
1,note_on,59,73,0
1,note_on,59,0,120
1,note_on,64,67,0
1,note_on,64,0,120
1,note_on,69,67,0
1,note_on,69,0,120
1,note_on,68,68,0
1,note_on,68,0,120
1,note_on,71,72,0
1,note_on,71,0,120
1,note_on,76,73,0
1,note_on,76,0,120
1,note_on,81,76,0
1,note_on,81,0,120
1,note_on,80,71,0
1,note_on,80,0,120
1,note_on,83,71,0
1,note_on,83,0,120
1,note_on,88,71,0
1,note_on,88,0,120
1,note_on,93,71,0
1,note_on,93,0,120
1,note_on,92,71,0
1,note_on,92,0,120
1,note_on,88,77,0
1,note_on,88,0,120
1,note_on,83,71,0
1,note_on,83,0,120
1,note_on,81,71,0
1,note_on,81,0,120
1,note_on,80,71,0
1,note_on,80,0,120
1,note_on,76,71,0
1,note_on,76,0,120
1,note_on,71,71,0
1,note_on,71,0,120
1,note_on,69,71,0
1,note_on,69,0,120
1,note_on,68,72,0
1,note_on,68,0,120
1,note_on,64,73,0
1,note_on,64,0,120
1,note_on,59,75,0
1,note_on,59,0,120
1,note_on,57,77,0
1,note_on,57,0,120
1,note_on,56,78,0
1,note_on,56,0,120
1,note_on,52,80,0
1,note_on,52,0,120
1,note_on,47,81,0
1,note_on,47,0,120
1,note_on,45,82,0
1,note_on,45,0,120
1,note_on,44,84,0
1,note_on,44,0,120
1,note_on,40,86,0
1,note_on,40,0,120
1,note_on,35,88,0
1,note_on,35,0,120
1,note_on,52,55,0
1,note_on,61,65,0
1,note_on,64,65,0
1,note_on,64,0,720
1,note_on,61,0,0
1,note_on,52,0,0
1,note_on,54,46,0
1,note_on,61,55,0
1,note_on,66,55,0
1,note_on,54,0,720
1,note_on,61,0,240
1,note_on,59,71,0
1,note_on,59,0,240
1,note_on,61,71,0
1,note_on,61,0,240
1,note_on,64,75,0
1,note_on,64,0,240
1,note_on,62,70,0
1,note_on,62,0,360
1,note_on,61,64,0
1,note_on,61,0,110
1,note_on,66,0,10
1,note_on,52,55,0
1,note_on,61,65,0
1,note_on,64,65,0
1,note_on,64,0,720
1,note_on,61,0,0
1,note_on,52,0,0
1,note_on,54,46,0
1,note_on,61,55,0
1,note_on,66,55,0
1,note_on,61,0,960
1,note_on,59,67,0
1,note_on,59,0,240
1,note_on,61,67,0
1,note_on,61,0,240
1,note_on,64,72,0
1,note_on,64,0,240
1,note_on,62,66,0
1,note_on,62,0,360
1,note_on,61,57,0
1,note_on,61,0,50
1,note_on,61,54,10
1,note_on,66,0,60
1,note_on,69,63,0
1,note_on,69,0,240
1,note_on,66,62,0
1,note_on,61,0,240
1,note_on,62,57,0
1,note_on,62,0,240
1,note_on,66,0,0
1,note_on,54,0,0
1,note_on,56,52,0
1,note_on,61,52,0
1,note_on,64,52,0
1,note_on,61,0,720
1,note_on,59,43,0
1,note_on,59,0,480
1,note_on,56,0,0
1,note_on,57,37,0
1,note_on,57,0,240
1,note_on,64,0,0
1,note_on,61,35,0
1,note_on,61,0,1440
1,note_on,73,53,0
1,note_on,73,0,600
1,note_on,71,45,0
1,note_on,71,0,60
1,note_on,73,45,0
1,note_on,73,0,60
1,note_on,71,50,0
1,note_on,71,0,360
1,note_on,69,47,0
1,note_on,69,0,120
1,note_on,71,50,0
1,note_on,71,0,240
1,note_on,73,53,0
1,note_on,73,0,360
1,note_on,74,50,0
1,note_on,74,0,120
1,note_on,73,48,0
1,note_on,73,0,120
1,note_on,71,43,0
1,note_on,71,0,60
1,note_on,73,43,0
1,note_on,73,0,60
1,note_on,71,52,0
1,note_on,71,0,360
1,note_on,69,48,0
1,note_on,69,0,120
1,note_on,71,47,0
1,note_on,71,0,240
1,note_on,73,39,0
1,note_on,73,0,120
1,note_on,61,29,0
1,note_on,61,0,120
1,note_on,73,29,0
1,note_on,73,0,120
1,note_on,68,29,0
1,note_on,68,0,120
1,note_on,73,29,0
1,note_on,73,0,120
1,note_on,68,29,0
1,note_on,68,0,120
1,note_on,80,29,0
1,note_on,80,0,120
1,note_on,73,29,0
1,note_on,73,0,120
1,note_on,80,29,0
1,note_on,80,0,120
1,note_on,73,29,0
1,note_on,73,0,120
1,note_on,85,29,0
1,note_on,85,0,120
1,note_on,80,29,0
1,note_on,80,0,120
1,note_on,85,29,0
1,note_on,85,0,120
1,note_on,80,29,0
1,note_on,80,0,120
1,note_on,92,29,0
1,note_on,92,0,120
1,note_on,85,29,0
1,note_on,85,0,120
1,note_on,92,29,0
1,note_on,92,0,120
1,note_on,85,29,0
1,note_on,85,0,120
1,note_on,97,39,0
1,note_on,97,0,120
1,note_on,52,37,0
1,note_on,61,44,0
1,note_on,64,44,0
1,note_on,64,0,720
1,note_on,52,0,0
1,note_on,54,31,0
1,note_on,66,37,0
1,note_on,54,0,720
1,note_on,61,0,240
1,note_on,59,48,0
1,note_on,59,0,240
1,note_on,61,48,0
1,note_on,61,0,240
1,note_on,64,51,0
1,note_on,64,0,240
1,note_on,62,47,0
1,note_on,62,0,360
1,note_on,61,47,0
1,note_on,61,0,120
1,note_on,66,0,0
1,note_on,52,37,0
1,note_on,61,44,0
1,note_on,64,44,0
1,note_on,64,0,720
1,note_on,52,0,0
1,note_on,54,31,0
1,note_on,66,37,0
1,note_on,61,0,960
1,note_on,59,48,0
1,note_on,59,0,240
1,note_on,61,48,0
1,note_on,61,0,240
1,note_on,64,51,0
1,note_on,64,0,240
1,note_on,62,47,0
1,note_on,62,0,240
1,note_on,61,47,0
1,note_on,61,0,170
1,note_on,61,40,10
1,note_on,66,0,60
1,note_on,69,36,0
1,note_on,69,0,120
1,note_on,68,33,0
1,note_on,68,0,120
1,note_on,71,39,0
1,note_on,71,0,120
1,note_on,69,38,0
1,note_on,69,0,120
1,note_on,66,36,0
1,note_on,66,0,120
1,note_on,61,0,0
1,note_on,62,35,0
1,note_on,62,0,120
1,note_on,54,0,0
1,note_on,56,31,0
1,note_on,61,37,0
1,note_on,64,37,0
1,note_on,61,0,720
1,note_on,59,31,0
1,note_on,59,0,480
1,note_on,56,0,0
1,note_on,57,27,0
1,note_on,57,0,240
1,note_on,64,0,0
1,note_on,61,25,0
1,note_on,61,0,1440
1,note_on,73,42,720
1,note_on,73,0,1560
1,note_on,75,42,0
1,note_on,75,0,120
1,note_on,78,43,0
1,note_on,78,0,120
1,note_on,76,41,0
1,note_on,76,0,120
1,note_on,73,39,0
1,note_on,73,0,120
1,note_on,69,39,0
1,note_on,69,0,120
1,note_on,68,35,0
1,note_on,68,0,30
1,note_on,68,35,30
1,note_on,68,0,60
1,note_on,80,43,0
1,note_on,80,0,480
1,note_on,78,37,0
1,note_on,78,0,60
1,note_on,80,37,0
1,note_on,80,0,60
1,note_on,78,43,0
1,note_on,78,0,360
1,note_on,76,39,0
1,note_on,76,0,120
1,note_on,78,39,0
1,note_on,78,0,240
1,note_on,80,42,0
1,note_on,80,0,360
1,note_on,81,40,0
1,note_on,81,0,120
1,note_on,80,40,0
1,note_on,80,0,120
1,note_on,78,37,0
1,note_on,78,0,60
1,note_on,80,37,0
1,note_on,80,0,60
1,note_on,78,44,0
1,note_on,78,0,360
1,note_on,76,33,0
1,note_on,76,0,120
1,note_on,78,31,0
1,note_on,78,0,240
1,note_on,80,31,0
1,note_on,80,0,1080
1,note_on,68,25,0
1,note_on,68,0,120
1,note_on,80,25,0
1,note_on,80,0,120
1,note_on,75,25,0
1,note_on,75,0,120
1,note_on,80,25,0
1,note_on,80,0,120
1,note_on,75,25,0
1,note_on,75,0,120
1,note_on,87,21,0
1,note_on,87,0,120
1,note_on,80,21,0
1,note_on,80,0,120
1,note_on,87,21,0
1,note_on,87,0,120
1,note_on,80,21,0
1,note_on,80,0,120
1,note_on,92,28,0
1,note_on,92,0,120
1,note_on,80,44,120
1,note_on,80,0,240
1,note_on,78,44,0
1,note_on,78,0,240
1,note_on,76,45,0
1,note_on,67,34,240
1,note_on,67,0,120
1,note_on,68,31,0
1,note_on,68,0,120
1,note_on,71,34,0
1,note_on,71,0,80
1,note_on,69,34,0
1,note_on,69,0,80
1,note_on,68,32,0
1,note_on,68,0,80
1,note_on,68,43,0
1,note_on,76,0,240
1,note_on,76,42,0
1,note_on,76,0,240
1,note_on,75,39,0
1,note_on,75,0,240
1,note_on,73,44,0
1,note_on,73,0,240
1,note_on,68,0,0
1,note_on,67,36,0
1,note_on,67,0,120
1,note_on,68,33,0
1,note_on,68,0,120
1,note_on,71,36,0
1,note_on,71,0,80
1,note_on,69,36,0
1,note_on,69,0,80
1,note_on,68,33,0
1,note_on,68,0,80
1,note_on,68,44,0
1,note_on,80,43,240
1,note_on,80,0,240
1,note_on,78,39,0
1,note_on,78,0,240
1,note_on,76,46,0
1,note_on,68,0,240
1,note_on,67,38,0
1,note_on,67,0,120
1,note_on,68,35,0
1,note_on,68,0,120
1,note_on,71,38,0
1,note_on,71,0,80
1,note_on,69,38,0
1,note_on,69,0,80
1,note_on,68,36,0
1,note_on,68,0,80
1,note_on,68,42,0
1,note_on,76,0,240
1,note_on,76,43,0
1,note_on,76,0,240
1,note_on,75,38,0
1,note_on,75,0,240
1,note_on,68,0,0
1,note_on,73,47,0
1,note_on,73,0,240
1,note_on,72,37,0
1,note_on,72,0,120
1,note_on,73,35,0
1,note_on,73,0,120
1,note_on,76,37,0
1,note_on,76,0,80
1,note_on,74,37,0
1,note_on,74,0,80
1,note_on,73,35,0
1,note_on,73,0,70
1,note_on,73,41,10
1,note_on,85,46,240
1,note_on,85,0,240
1,note_on,83,43,0
1,note_on,83,0,240
1,note_on,81,53,0
1,note_on,73,0,240
1,note_on,72,32,0
1,note_on,72,0,120
1,note_on,73,30,0
1,note_on,73,0,120
1,note_on,76,32,0
1,note_on,76,0,80
1,note_on,74,32,0
1,note_on,74,0,80
1,note_on,73,30,0
1,note_on,73,0,70
1,note_on,73,37,10
1,note_on,81,0,240
1,note_on,81,38,0
1,note_on,81,0,240
1,note_on,80,36,0
1,note_on,80,0,240
1,note_on,78,40,0
1,note_on,78,0,240
1,note_on,73,0,0
1,note_on,72,27,0
1,note_on,72,0,120
1,note_on,73,27,0
1,note_on,73,0,120
1,note_on,76,30,0
1,note_on,76,0,80
1,note_on,74,30,0
1,note_on,74,0,80
1,note_on,73,29,0
1,note_on,73,0,70
1,note_on,73,38,10
1,note_on,85,40,240
1,note_on,85,0,240
1,note_on,83,38,0
1,note_on,83,0,240
1,note_on,81,45,0
1,note_on,73,0,240
1,note_on,72,37,0
1,note_on,72,0,120
1,note_on,73,37,0
1,note_on,73,0,120
1,note_on,76,37,0
1,note_on,76,0,80
1,note_on,74,37,0
1,note_on,74,0,80
1,note_on,73,34,0
1,note_on,73,0,70
1,note_on,73,42,10
1,note_on,81,0,240
1,note_on,81,44,0
1,note_on,81,0,240
1,note_on,80,40,0
1,note_on,80,0,240
1,note_on,78,47,0
1,note_on,73,0,240
1,note_on,72,37,0
1,note_on,72,0,120
1,note_on,73,35,0
1,note_on,73,0,120
1,note_on,76,37,0
1,note_on,76,0,80
1,note_on,74,37,0
1,note_on,74,0,80
1,note_on,73,35,0
1,note_on,73,0,70
1,note_on,73,41,10
1,note_on,78,0,240
1,note_on,80,43,0
1,note_on,80,0,240
1,note_on,81,40,0
1,note_on,81,0,240
1,note_on,73,0,0
1,note_on,80,50,0
1,note_on,80,0,240
1,note_on,67,32,0
1,note_on,67,0,120
1,note_on,68,30,0
1,note_on,68,0,120
1,note_on,71,32,0
1,note_on,71,0,80
1,note_on,69,32,0
1,note_on,69,0,80
1,note_on,68,30,0
1,note_on,68,0,70
1,note_on,68,37,10
1,note_on,78,47,240
1,note_on,78,0,240
1,note_on,76,44,0
1,note_on,76,0,240
1,note_on,75,53,0
1,note_on,68,0,240
1,note_on,67,38,0
1,note_on,67,0,120
1,note_on,68,38,0
1,note_on,68,0,120
1,note_on,71,38,0
1,note_on,71,0,80
1,note_on,69,38,0
1,note_on,69,0,80
1,note_on,68,35,0
1,note_on,68,0,70
1,note_on,68,46,10
1,note_on,75,0,240
1,note_on,75,47,0
1,note_on,75,0,240
1,note_on,73,44,0
1,note_on,73,0,240
1,note_on,72,52,0
1,note_on,72,0,240
1,note_on,68,0,0
1,note_on,67,41,0
1,note_on,67,0,120
1,note_on,68,38,0
1,note_on,68,0,120
1,note_on,71,41,0
1,note_on,71,0,80
1,note_on,69,41,0
1,note_on,69,0,80
1,note_on,68,38,0
1,note_on,68,0,70
1,note_on,68,52,10
1,note_on,78,43,240
1,note_on,78,0,240
1,note_on,76,39,0
1,note_on,76,0,240
1,note_on,75,47,0
1,note_on,75,0,240
1,note_on,68,0,0
1,note_on,70,38,0
1,note_on,70,0,120
1,note_on,71,36,0
1,note_on,71,0,120
1,note_on,75,38,0
1,note_on,75,0,80
1,note_on,73,38,0
1,note_on,73,0,80
1,note_on,71,35,0
1,note_on,71,0,70
1,note_on,71,41,10
1,note_on,76,34,240
1,note_on,76,0,240
1,note_on,78,34,0
1,note_on,78,0,240
1,note_on,71,0,0
1,note_on,68,35,0
1,note_on,68,0,120
1,note_on,71,37,0
1,note_on,71,0,120
1,note_on,76,40,0
1,note_on,76,0,120
1,note_on,80,42,0
1,note_on,80,0,120
1,note_on,78,44,0
1,note_on,78,0,120
1,note_on,76,42,0
1,note_on,76,0,120
1,note_on,80,38,0
1,note_on,80,0,120
1,note_on,83,40,0
1,note_on,83,0,120
1,note_on,88,43,0
1,note_on,88,0,120
1,note_on,92,46,0
1,note_on,92,0,120
1,note_on,90,50,0
1,note_on,90,0,120
1,note_on,88,47,0
1,note_on,88,0,120
1,note_on,83,44,0
1,note_on,83,0,120
1,note_on,80,43,0
1,note_on,80,0,120
1,note_on,78,42,0
1,note_on,78,0,120
1,note_on,76,41,0
1,note_on,76,0,120
1,note_on,71,40,0
1,note_on,71,0,120
1,note_on,68,39,0
1,note_on,68,0,120
1,note_on,66,38,0
1,note_on,66,0,120
1,note_on,64,37,0
1,note_on,64,0,120
1,note_on,59,36,0
1,note_on,59,0,120
1,note_on,68,39,0
1,note_on,68,0,120
1,note_on,66,38,0
1,note_on,66,0,120
1,note_on,64,37,0
1,note_on,64,0,120
1,note_on,61,36,0
1,note_on,61,0,120
1,note_on,64,34,0
1,note_on,64,0,120
1,note_on,66,37,0
1,note_on,66,0,120
1,note_on,69,39,0
1,note_on,69,0,120
1,note_on,73,41,0
1,note_on,73,0,120
1,note_on,76,43,0
1,note_on,76,0,120
1,note_on,78,46,0
1,note_on,78,0,120
1,note_on,81,48,0
1,note_on,81,0,120
1,note_on,85,50,0
1,note_on,85,0,120
1,note_on,88,51,0
1,note_on,88,0,120
1,note_on,90,49,0
1,note_on,90,0,120
1,note_on,93,47,0
1,note_on,93,0,120
1,note_on,92,50,0
1,note_on,92,0,120
1,note_on,90,49,0
1,note_on,90,0,120
1,note_on,87,49,0
1,note_on,87,0,120
1,note_on,81,48,0
1,note_on,81,0,120
1,note_on,80,47,0
1,note_on,80,0,120
1,note_on,78,46,0
1,note_on,78,0,120
1,note_on,75,45,0
1,note_on,75,0,120
1,note_on,71,44,0
1,note_on,71,0,120
1,note_on,75,45,0
1,note_on,75,0,120
1,note_on,73,42,0
1,note_on,73,0,120
1,note_on,71,39,0
1,note_on,71,0,120
1,note_on,69,37,0
1,note_on,69,0,120
1,note_on,68,35,0
1,note_on,68,0,120
1,note_on,71,37,0
1,note_on,71,0,120
1,note_on,76,40,0
1,note_on,76,0,120
1,note_on,80,42,0
1,note_on,80,0,120
1,note_on,78,44,0
1,note_on,78,0,120
1,note_on,76,42,0
1,note_on,76,0,120
1,note_on,80,38,0
1,note_on,80,0,120
1,note_on,83,40,0
1,note_on,83,0,120
1,note_on,88,43,0
1,note_on,88,0,120
1,note_on,92,46,0
1,note_on,92,0,120
1,note_on,90,50,0
1,note_on,90,0,120
1,note_on,88,47,0
1,note_on,88,0,120
1,note_on,83,44,0
1,note_on,83,0,120
1,note_on,80,43,0
1,note_on,80,0,120
1,note_on,78,42,0
1,note_on,78,0,120
1,note_on,76,41,0
1,note_on,76,0,120
1,note_on,71,40,0
1,note_on,71,0,120
1,note_on,68,39,0
1,note_on,68,0,120
1,note_on,66,38,0
1,note_on,66,0,120
1,note_on,64,37,0
1,note_on,64,0,120
1,note_on,59,36,0
1,note_on,59,0,120
1,note_on,68,39,0
1,note_on,68,0,120
1,note_on,66,38,0
1,note_on,66,0,120
1,note_on,64,37,0
1,note_on,64,0,120
1,note_on,61,36,0
1,note_on,61,0,120
1,note_on,64,34,0
1,note_on,64,0,113
1,note_on,66,37,7
1,note_on,66,0,120
1,note_on,69,39,0
1,note_on,69,0,120
1,note_on,73,41,0
1,note_on,73,0,120
1,note_on,76,43,0
1,note_on,76,0,120
1,note_on,78,46,0
1,note_on,78,0,120
1,note_on,81,48,0
1,note_on,81,0,120
1,note_on,85,50,0
1,note_on,85,0,120
1,note_on,88,51,0
1,note_on,88,0,120
1,note_on,90,49,0
1,note_on,90,0,120
1,note_on,93,47,0
1,note_on,93,0,120
1,note_on,92,47,0
1,note_on,92,0,120
1,note_on,90,48,0
1,note_on,90,0,120
1,note_on,87,49,0
1,note_on,87,0,120
1,note_on,81,50,0
1,note_on,81,0,120
1,note_on,80,51,0
1,note_on,80,0,120
1,note_on,78,52,0
1,note_on,78,0,120
1,note_on,75,53,0
1,note_on,75,0,120
1,note_on,71,52,0
1,note_on,71,0,120
1,note_on,75,51,0
1,note_on,75,0,120
1,note_on,73,51,0
1,note_on,73,0,120
1,note_on,71,53,0
1,note_on,71,0,120
1,note_on,69,57,0
1,note_on,69,0,120
1,note_on,68,56,0
1,note_on,68,0,120
1,note_on,71,59,0
1,note_on,71,0,120
1,note_on,76,61,0
1,note_on,76,0,120
1,note_on,80,63,0
1,note_on,80,0,120
1,note_on,78,65,0
1,note_on,78,0,120
1,note_on,76,63,0
1,note_on,76,0,120
1,note_on,80,61,0
1,note_on,80,0,120
1,note_on,83,61,0
1,note_on,83,0,120
1,note_on,88,64,0
1,note_on,88,0,120
1,note_on,92,66,0
1,note_on,92,0,120
1,note_on,90,69,0
1,note_on,90,0,120
1,note_on,88,65,0
1,note_on,88,0,120
1,note_on,84,62,0
1,note_on,84,0,120
1,note_on,81,61,0
1,note_on,81,0,120
1,note_on,78,60,0
1,note_on,78,0,120
1,note_on,76,60,0
1,note_on,76,0,120
1,note_on,72,59,0
1,note_on,72,0,120
1,note_on,69,58,0
1,note_on,69,0,120
1,note_on,66,57,0
1,note_on,66,0,120
1,note_on,64,56,0
1,note_on,64,0,120
1,note_on,60,55,0
1,note_on,60,0,120
1,note_on,57,54,0
1,note_on,57,0,120
1,note_on,54,53,0
1,note_on,54,0,120
1,note_on,52,52,0
1,note_on,52,0,120
1,note_on,56,52,0
1,note_on,56,0,120
1,note_on,59,51,0
1,note_on,59,0,120
1,note_on,64,52,0
1,note_on,64,0,120
1,note_on,68,53,0
1,note_on,68,0,120
1,note_on,66,54,0
1,note_on,66,0,120
1,note_on,64,52,0
1,note_on,64,0,120
1,note_on,68,49,0
1,note_on,68,0,120
1,note_on,71,51,0
1,note_on,71,0,120
1,note_on,76,54,0
1,note_on,76,0,120
1,note_on,80,57,0
1,note_on,80,0,120
1,note_on,78,59,0
1,note_on,78,0,120
1,note_on,76,57,0
1,note_on,76,0,120
1,note_on,72,59,0
1,note_on,72,0,120
1,note_on,69,61,0
1,note_on,69,0,120
1,note_on,66,62,0
1,note_on,66,0,120
1,note_on,64,64,0
1,note_on,64,0,120
1,note_on,60,66,0
1,note_on,60,0,120
1,note_on,57,67,0
1,note_on,57,0,120
1,note_on,54,69,0
1,note_on,54,0,120
1,note_on,52,71,0
1,note_on,52,0,120
1,note_on,48,73,0
1,note_on,48,0,120
1,note_on,45,74,0
1,note_on,45,0,120
1,note_on,42,76,0
1,note_on,42,0,120
1,note_on,40,78,0
1,note_on,40,0,120
1,note_on,47,73,240
1,note_on,47,0,120
1,note_on,52,68,0
1,note_on,52,0,120
1,note_on,57,68,0
1,note_on,57,0,120
1,note_on,56,68,0
1,note_on,56,0,120
1,note_on,59,73,0
1,note_on,59,0,120
1,note_on,64,67,0
1,note_on,64,0,120
1,note_on,69,67,0
1,note_on,69,0,120
1,note_on,68,68,0
1,note_on,68,0,120
1,note_on,71,72,0
1,note_on,71,0,120
1,note_on,76,73,0
1,note_on,76,0,120
1,note_on,81,76,0
1,note_on,81,0,120
1,note_on,80,71,0
1,note_on,80,0,120
1,note_on,83,71,0
1,note_on,83,0,120
1,note_on,88,71,0
1,note_on,88,0,120
1,note_on,93,71,0
1,note_on,93,0,120
1,note_on,92,71,0
1,note_on,92,0,120
1,note_on,88,77,0
1,note_on,88,0,120
1,note_on,83,71,0
1,note_on,83,0,120
1,note_on,81,71,0
1,note_on,81,0,120
1,note_on,80,71,0
1,note_on,80,0,120
1,note_on,76,71,0
1,note_on,76,0,120
1,note_on,71,71,0
1,note_on,71,0,120
1,note_on,69,71,0
1,note_on,69,0,120
1,note_on,68,72,0
1,note_on,68,0,120
1,note_on,64,73,0
1,note_on,64,0,120
1,note_on,59,75,0
1,note_on,59,0,120
1,note_on,57,77,0
1,note_on,57,0,120
1,note_on,56,78,0
1,note_on,56,0,120
1,note_on,52,80,0
1,note_on,52,0,120
1,note_on,47,81,0
1,note_on,47,0,120
1,note_on,45,82,0
1,note_on,45,0,120
1,note_on,44,84,0
1,note_on,44,0,120
1,note_on,40,86,0
1,note_on,40,0,120
1,note_on,35,88,0
1,note_on,35,0,120
1,note_on,47,73,1680
1,note_on,47,0,120
1,note_on,53,68,0
1,note_on,53,0,120
1,note_on,57,68,0
1,note_on,57,0,120
1,note_on,56,68,0
1,note_on,56,0,120
1,note_on,59,73,0
1,note_on,59,0,120
1,note_on,65,67,0
1,note_on,65,0,120
1,note_on,69,67,0
1,note_on,69,0,120
1,note_on,68,68,0
1,note_on,68,0,120
1,note_on,71,72,0
1,note_on,71,0,120
1,note_on,77,73,0
1,note_on,77,0,120
1,note_on,81,76,0
1,note_on,81,0,120
1,note_on,80,71,0
1,note_on,80,0,120
1,note_on,83,71,0
1,note_on,83,0,120
1,note_on,89,71,0
1,note_on,89,0,120
1,note_on,93,71,0
1,note_on,93,0,120
1,note_on,92,71,0
1,note_on,92,0,120
1,note_on,89,77,0
1,note_on,89,0,120
1,note_on,83,71,0
1,note_on,83,0,120
1,note_on,81,71,0
1,note_on,81,0,120
1,note_on,80,71,0
1,note_on,80,0,120
1,note_on,77,71,0
1,note_on,77,0,120
1,note_on,71,71,0
1,note_on,71,0,120
1,note_on,69,71,0
1,note_on,69,0,120
1,note_on,68,72,0
1,note_on,68,0,120
1,note_on,65,73,0
1,note_on,65,0,120
1,note_on,59,75,0
1,note_on,59,0,120
1,note_on,57,77,0
1,note_on,57,0,120
1,note_on,56,78,0
1,note_on,56,0,120
1,note_on,53,80,0
1,note_on,53,0,120
1,note_on,47,81,0
1,note_on,47,0,120
1,note_on,45,82,0
1,note_on,45,0,120
1,note_on,44,84,0
1,note_on,44,0,120
1,note_on,41,86,0
1,note_on,41,0,120
1,note_on,35,88,0
1,note_on,35,0,120
1,note_on,70,66,1680
1,note_on,70,0,120
1,note_on,68,67,0
1,note_on,68,0,120
1,note_on,71,68,0
1,note_on,71,0,120
1,note_on,77,69,0
1,note_on,77,0,120
1,note_on,82,71,0
1,note_on,82,0,120
1,note_on,80,72,0
1,note_on,80,0,120
1,note_on,83,73,0
1,note_on,83,0,120
1,note_on,89,74,0
1,note_on,89,0,120
1,note_on,94,75,0
1,note_on,94,0,120
1,note_on,92,77,0
1,note_on,92,0,120
1,note_on,82,80,0
1,note_on,82,0,120
1,note_on,88,74,0
1,note_on,88,0,120
1,note_on,92,77,0
1,note_on,92,0,120
1,note_on,91,81,0
1,note_on,91,0,120
1,note_on,88,80,0
1,note_on,88,0,120
1,note_on,82,78,0
1,note_on,82,0,120
1,note_on,80,76,0
1,note_on,80,0,120
1,note_on,79,76,0
1,note_on,79,0,120
1,note_on,76,76,0
1,note_on,76,0,120
1,note_on,70,76,0
1,note_on,70,0,120
1,note_on,68,74,0
1,note_on,68,0,120
1,note_on,67,73,0
1,note_on,67,0,120
1,note_on,57,73,0
1,note_on,57,0,120
1,note_on,63,73,0
1,note_on,63,0,120
1,note_on,68,74,0
1,note_on,68,0,120
1,note_on,66,75,0
1,note_on,66,0,120
1,note_on,69,76,0
1,note_on,69,0,120
1,note_on,75,76,0
1,note_on,75,0,120
1,note_on,80,77,0
1,note_on,80,0,120
1,note_on,78,76,0
1,note_on,78,0,120
1,note_on,81,79,0
1,note_on,81,0,120
1,note_on,87,81,0
1,note_on,87,0,120
1,note_on,92,84,0
1,note_on,92,0,120
1,note_on,90,86,0
1,note_on,90,0,120
1,note_on,80,88,0
1,note_on,80,0,120
1,note_on,85,87,0
1,note_on,85,0,120
1,note_on,90,87,0
1,note_on,90,0,120
1,note_on,89,85,0
1,note_on,89,0,120
1,note_on,85,83,0
1,note_on,85,0,120
1,note_on,80,82,0
1,note_on,80,0,120
1,note_on,78,80,0
1,note_on,78,0,120
1,note_on,77,78,0
1,note_on,77,0,120
1,note_on,73,76,0
1,note_on,73,0,120
1,note_on,68,74,0
1,note_on,68,0,120
1,note_on,66,72,0
1,note_on,66,0,120
1,note_on,65,71,0
1,note_on,65,0,120
1,note_on,60,71,0
1,note_on,60,0,120
1,note_on,66,71,0
1,note_on,66,0,120
1,note_on,71,71,0
1,note_on,71,0,120
1,note_on,69,71,0
1,note_on,69,0,120
1,note_on,72,71,0
1,note_on,72,0,120
1,note_on,78,71,0
1,note_on,78,0,120
1,note_on,83,69,0
1,note_on,83,0,120
1,note_on,81,71,0
1,note_on,81,0,120
1,note_on,84,73,0
1,note_on,84,0,120
1,note_on,90,75,0
1,note_on,90,0,120
1,note_on,95,76,0
1,note_on,95,0,120
1,note_on,93,78,0
1,note_on,93,0,120
1,note_on,83,80,0
1,note_on,83,0,120
1,note_on,89,82,0
1,note_on,89,0,120
1,note_on,93,82,0
1,note_on,93,0,120
1,note_on,92,80,0
1,note_on,92,0,120
1,note_on,89,79,0
1,note_on,89,0,120
1,note_on,83,78,0
1,note_on,83,0,120
1,note_on,81,77,0
1,note_on,81,0,120
1,note_on,80,76,0
1,note_on,80,0,120
1,note_on,77,75,0
1,note_on,77,0,120
1,note_on,71,74,0
1,note_on,71,0,120
1,note_on,69,73,0
1,note_on,69,0,120
1,note_on,68,72,0
1,note_on,68,0,120
1,note_on,58,71,0
1,note_on,58,0,120
1,note_on,64,71,0
1,note_on,64,0,120
1,note_on,69,71,0
1,note_on,69,0,120
1,note_on,67,71,0
1,note_on,67,0,120
1,note_on,70,71,0
1,note_on,70,0,120
1,note_on,76,71,0
1,note_on,76,0,120
1,note_on,81,69,0
1,note_on,81,0,120
1,note_on,79,71,0
1,note_on,79,0,120
1,note_on,82,73,0
1,note_on,82,0,120
1,note_on,88,75,0
1,note_on,88,0,120
1,note_on,93,76,0
1,note_on,93,0,120
1,note_on,91,78,0
1,note_on,91,0,120
1,note_on,81,80,0
1,note_on,81,0,120
1,note_on,86,82,0
1,note_on,86,0,120
1,note_on,91,82,0
1,note_on,91,0,120
1,note_on,90,80,0
1,note_on,90,0,120
1,note_on,86,79,0
1,note_on,86,0,120
1,note_on,81,78,0
1,note_on,81,0,120
1,note_on,79,76,0
1,note_on,79,0,120
1,note_on,78,75,0
1,note_on,78,0,120
1,note_on,74,73,0
1,note_on,74,0,120
1,note_on,69,71,0
1,note_on,69,0,120
1,note_on,67,70,0
1,note_on,67,0,120
1,note_on,66,68,0
1,note_on,66,0,120
1,note_on,62,66,0
1,note_on,67,66,0
1,note_on,74,66,0
1,note_on,74,0,240
1,note_on,67,0,0
1,note_on,62,0,0
1,note_on,73,58,0
1,note_on,73,0,120
1,note_on,74,55,0
1,note_on,74,0,120
1,note_on,77,58,0
1,note_on,77,0,80
1,note_on,75,58,0
1,note_on,75,0,80
1,note_on,74,55,0
1,note_on,74,0,80
1,note_on,74,67,0
1,note_on,86,66,240
1,note_on,78,66,0
1,note_on,86,0,240
1,note_on,84,64,0
1,note_on,84,0,240
1,note_on,78,0,0
1,note_on,79,70,0
1,note_on,82,70,0
1,note_on,82,0,240
1,note_on,79,0,0
1,note_on,74,0,0
1,note_on,73,59,0
1,note_on,73,0,120
1,note_on,74,55,0
1,note_on,74,0,120
1,note_on,77,59,0
1,note_on,77,0,80
1,note_on,75,59,0
1,note_on,75,0,80
1,note_on,74,55,0
1,note_on,74,0,80
1,note_on,74,69,0
1,note_on,70,65,240
1,note_on,82,65,0
1,note_on,82,0,240
1,note_on,70,0,0
1,note_on,69,62,0
1,note_on,81,62,0
1,note_on,81,0,240
1,note_on,69,0,0
1,note_on,67,69,0
1,note_on,79,69,0
1,note_on,79,0,240
1,note_on,67,0,0
1,note_on,74,0,0
1,note_on,73,59,0
1,note_on,73,0,120
1,note_on,74,55,0
1,note_on,74,0,120
1,note_on,77,59,0
1,note_on,77,0,80
1,note_on,75,59,0
1,note_on,75,0,80
1,note_on,74,55,0
1,note_on,74,0,80
1,note_on,74,70,0
1,note_on,86,65,240
1,note_on,78,65,0
1,note_on,86,0,240
1,note_on,84,65,0
1,note_on,84,0,240
1,note_on,78,0,0
1,note_on,79,69,0
1,note_on,82,69,0
1,note_on,82,0,240
1,note_on,79,0,0
1,note_on,74,0,0
1,note_on,66,58,0
1,note_on,66,0,120
1,note_on,67,53,0
1,note_on,67,0,120
1,note_on,70,58,0
1,note_on,70,0,80
1,note_on,68,58,0
1,note_on,68,0,80
1,note_on,67,55,0
1,note_on,67,0,80
1,note_on,67,70,0
1,note_on,79,63,240
1,note_on,74,63,0
1,note_on,79,0,240
1,note_on,77,63,0
1,note_on,77,0,240
1,note_on,74,0,0
1,note_on,72,71,0
1,note_on,75,71,0
1,note_on,75,0,240
1,note_on,72,0,0
1,note_on,67,0,0
1,note_on,78,57,0
1,note_on,78,0,120
1,note_on,79,57,0
1,note_on,79,0,120
1,note_on,82,57,0
1,note_on,82,0,80
1,note_on,80,57,0
1,note_on,80,0,80
1,note_on,79,54,0
1,note_on,79,0,80
1,note_on,79,71,0
1,note_on,91,63,240
1,note_on,83,63,0
1,note_on,91,0,240
1,note_on,89,63,0
1,note_on,89,0,240
1,note_on,83,0,0
1,note_on,84,71,0
1,note_on,87,71,0
1,note_on,87,0,240
1,note_on,84,0,0
1,note_on,79,0,0
1,note_on,78,59,0
1,note_on,78,0,120
1,note_on,79,56,0
1,note_on,79,0,120
1,note_on,82,59,0
1,note_on,82,0,80
1,note_on,80,59,0
1,note_on,80,0,80
1,note_on,79,55,0
1,note_on,79,0,80
1,note_on,79,70,0
1,note_on,75,64,240
1,note_on,87,64,0
1,note_on,87,0,240
1,note_on,75,0,0
1,note_on,74,64,0
1,note_on,86,64,0
1,note_on,86,0,240
1,note_on,74,0,0
1,note_on,79,0,0
1,note_on,79,70,0
1,note_on,72,70,0
1,note_on,84,70,0
1,note_on,84,0,240
1,note_on,72,0,0
1,note_on,79,0,0
1,note_on,66,59,0
1,note_on,66,0,120
1,note_on,67,55,0
1,note_on,67,0,120
1,note_on,70,59,0
1,note_on,70,0,80
1,note_on,68,59,0
1,note_on,68,0,80
1,note_on,67,56,0
1,note_on,67,0,80
1,note_on,67,71,0
1,note_on,79,56,240
1,note_on,71,56,0
1,note_on,79,0,240
1,note_on,77,55,0
1,note_on,77,0,240
1,note_on,71,0,0
1,note_on,72,60,0
1,note_on,75,60,0
1,note_on,75,0,240
1,note_on,72,0,0
1,note_on,67,0,0
1,note_on,62,53,0
1,note_on,62,0,120
1,note_on,63,53,0
1,note_on,63,0,120
1,note_on,67,53,0
1,note_on,67,0,80
1,note_on,65,53,0
1,note_on,65,0,80
1,note_on,63,50,0
1,note_on,63,0,80
1,note_on,63,61,0
1,note_on,75,58,240
1,note_on,67,58,0
1,note_on,75,0,240
1,note_on,73,56,0
1,note_on,73,0,240
1,note_on,67,0,0
1,note_on,68,63,0
1,note_on,71,63,0
1,note_on,71,0,240
1,note_on,68,0,0
1,note_on,63,0,0
1,note_on,74,54,0
1,note_on,74,0,120
1,note_on,75,51,0
1,note_on,75,0,120
1,note_on,78,54,0
1,note_on,78,0,80
1,note_on,76,54,0
1,note_on,76,0,80
1,note_on,75,51,0
1,note_on,75,0,80
1,note_on,75,62,0
1,note_on,87,58,240
1,note_on,82,58,0
1,note_on,87,0,240
1,note_on,85,59,0
1,note_on,85,0,240
1,note_on,82,0,0
1,note_on,80,67,0
1,note_on,83,67,0
1,note_on,83,0,240
1,note_on,80,0,0
1,note_on,75,0,0
1,note_on,74,59,0
1,note_on,74,0,120
1,note_on,75,56,0
1,note_on,75,0,120
1,note_on,78,59,0
1,note_on,78,0,80
1,note_on,76,59,0
1,note_on,76,0,80
1,note_on,75,55,0
1,note_on,75,0,73
1,note_on,75,68,7
1,note_on,71,63,240
1,note_on,83,63,0
1,note_on,83,0,240
1,note_on,71,0,0
1,note_on,70,63,0
1,note_on,82,63,0
1,note_on,82,0,240
1,note_on,70,0,0
1,note_on,75,0,0
1,note_on,75,69,0
1,note_on,68,69,0
1,note_on,80,69,0
1,note_on,80,0,240
1,note_on,68,0,0
1,note_on,75,0,0
1,note_on,74,60,0
1,note_on,74,0,120
1,note_on,75,56,0
1,note_on,75,0,120
1,note_on,78,60,0
1,note_on,78,0,80
1,note_on,76,60,0
1,note_on,76,0,80
1,note_on,75,56,0
1,note_on,75,0,71
1,note_on,75,74,9
1,note_on,87,65,240
1,note_on,82,65,0
1,note_on,87,0,240
1,note_on,85,65,0
1,note_on,85,0,240
1,note_on,82,0,0
1,note_on,80,76,0
1,note_on,83,76,0
1,note_on,83,0,240
1,note_on,80,0,0
1,note_on,75,0,0
1,note_on,74,66,0
1,note_on,74,0,120
1,note_on,75,61,0
1,note_on,75,0,120
1,note_on,78,66,0
1,note_on,78,0,80
1,note_on,76,66,0
1,note_on,76,0,80
1,note_on,75,61,0
1,note_on,75,0,74
1,note_on,75,82,6
1,note_on,71,73,240
1,note_on,83,73,0
1,note_on,83,0,240
1,note_on,71,0,0
1,note_on,70,73,0
1,note_on,82,73,0
1,note_on,82,0,240
1,note_on,70,0,0
1,note_on,75,0,0
1,note_on,76,87,0
1,note_on,68,73,0
1,note_on,80,87,0
1,note_on,80,0,240
1,note_on,68,0,0
1,note_on,76,0,0
1,note_on,80,70,420
1,note_on,80,0,60
1,note_on,92,95,0
1,note_on,92,0,240
1,note_on,90,81,0
1,note_on,90,0,120
1,note_on,88,76,0
1,note_on,88,0,120
1,note_on,83,79,0
1,note_on,83,0,120
1,note_on,80,72,0
1,note_on,80,0,120
1,note_on,78,76,0
1,note_on,78,0,120
1,note_on,76,71,0
1,note_on,76,0,120
1,note_on,71,74,0
1,note_on,71,0,120
1,note_on,68,68,0
1,note_on,68,0,120
1,note_on,66,71,0
1,note_on,66,0,120
1,note_on,64,66,0
1,note_on,64,0,120
1,note_on,59,69,0
1,note_on,59,0,240
1,note_on,75,55,480
1,note_on,75,0,120
1,note_on,76,52,0
1,note_on,76,0,120
1,note_on,78,50,0
1,note_on,78,0,120
1,note_on,80,44,0
1,note_on,80,0,120
1,note_on,81,45,0
1,note_on,81,0,120
1,note_on,83,42,0
1,note_on,83,0,120
1,note_on,84,40,0
1,note_on,84,0,240
1,note_on,84,50,480
1,note_on,84,0,120
1,note_on,83,46,0
1,note_on,83,0,120
1,note_on,81,47,0
1,note_on,81,0,120
1,note_on,80,43,0
1,note_on,80,0,120
1,note_on,78,44,0
1,note_on,78,0,120
1,note_on,76,42,0
1,note_on,76,0,120
1,note_on,75,41,0
1,note_on,75,0,240
1,note_on,80,81,420
1,note_on,80,0,60
1,note_on,92,115,0
1,note_on,92,0,960
1,note_on,90,81,0
1,note_on,90,0,120
1,note_on,88,73,0
1,note_on,88,0,120
1,note_on,83,79,0
1,note_on,83,0,120
1,note_on,80,73,0
1,note_on,80,0,120
1,note_on,78,76,0
1,note_on,78,0,120
1,note_on,76,70,0
1,note_on,76,0,120
1,note_on,71,74,0
1,note_on,71,0,120
1,note_on,68,69,0
1,note_on,68,0,120
1,note_on,66,71,0
1,note_on,66,0,120
1,note_on,64,70,0
1,note_on,64,0,120
1,note_on,59,69,0
1,note_on,59,0,240
1,note_on,77,57,480
1,note_on,77,0,120
1,note_on,78,55,0
1,note_on,78,0,120
1,note_on,80,53,0
1,note_on,80,0,120
1,note_on,81,52,0
1,note_on,81,0,120
1,note_on,83,50,0
1,note_on,83,0,120
1,note_on,85,48,0
1,note_on,85,0,120
1,note_on,86,46,0
1,note_on,86,0,240
1,note_on,86,56,480
1,note_on,86,0,120
1,note_on,85,54,0
1,note_on,85,0,120
1,note_on,83,53,0
1,note_on,83,0,120
1,note_on,81,52,0
1,note_on,81,0,120
1,note_on,80,51,0
1,note_on,80,0,120
1,note_on,78,50,0
1,note_on,78,0,120
1,note_on,77,48,0
1,note_on,77,0,240
1,note_on,79,66,480
1,note_on,79,0,120
1,note_on,80,65,0
1,note_on,80,0,120
1,note_on,82,64,0
1,note_on,82,0,120
1,note_on,83,63,0
1,note_on,83,0,120
1,note_on,85,62,0
1,note_on,85,0,120
1,note_on,87,61,0
1,note_on,87,0,120
1,note_on,88,60,0
1,note_on,88,0,240
1,note_on,88,65,480
1,note_on,88,0,120
1,note_on,87,64,0
1,note_on,87,0,120
1,note_on,85,62,0
1,note_on,85,0,120
1,note_on,83,61,0
1,note_on,83,0,120
1,note_on,82,59,0
1,note_on,82,0,120
1,note_on,80,58,0
1,note_on,80,0,120
1,note_on,79,56,0
1,note_on,79,0,240
1,note_on,81,71,480
1,note_on,81,0,120
1,note_on,82,72,0
1,note_on,82,0,120
1,note_on,84,73,0
1,note_on,84,0,120
1,note_on,85,75,0
1,note_on,85,0,120
1,note_on,87,76,0
1,note_on,87,0,120
1,note_on,89,77,0
1,note_on,89,0,120
1,note_on,90,78,0
1,note_on,90,0,120
1,note_on,99,78,0
1,note_on,99,0,120
1,note_on,90,77,0
1,note_on,90,0,120
1,note_on,89,76,0
1,note_on,89,0,120
1,note_on,87,75,0
1,note_on,87,0,120
1,note_on,85,75,0
1,note_on,85,0,120
1,note_on,84,71,0
1,note_on,84,0,120
1,note_on,85,72,0
1,note_on,85,0,120
1,note_on,86,73,0
1,note_on,86,0,120
1,note_on,87,74,0
1,note_on,87,0,120
1,note_on,88,76,0
1,note_on,88,0,120
1,note_on,89,77,0
1,note_on,89,0,120
1,note_on,90,78,0
1,note_on,90,0,120
1,note_on,99,79,0
1,note_on,99,0,120
1,note_on,90,80,0
1,note_on,90,0,120
1,note_on,89,82,0
1,note_on,89,0,120
1,note_on,87,83,0
1,note_on,87,0,120
1,note_on,85,84,0
1,note_on,85,0,120
1,note_on,84,85,0
1,note_on,84,0,120
1,note_on,101,93,120
1,note_on,101,0,120
1,note_on,100,83,0
1,note_on,100,0,120
1,note_on,99,81,0
1,note_on,99,0,120
1,note_on,96,78,0
1,note_on,96,0,120
1,note_on,93,76,0
1,note_on,93,0,240
1,note_on,77,90,240
1,note_on,77,0,120
1,note_on,76,82,0
1,note_on,76,0,120
1,note_on,75,80,0
1,note_on,75,0,120
1,note_on,72,78,0
1,note_on,72,0,120
1,note_on,69,76,0
1,note_on,69,0,240
1,note_on,53,90,240
1,note_on,53,0,120
1,note_on,52,84,0
1,note_on,52,0,120
1,note_on,51,82,0
1,note_on,51,0,120
1,note_on,48,80,0
1,note_on,48,0,120
1,note_on,85,89,240
1,note_on,73,89,0
1,note_on,73,0,240
1,note_on,85,0,0
1,note_on,76,74,0
1,note_on,76,0,120
1,note_on,77,71,0
1,note_on,77,0,120
1,note_on,80,74,0
1,note_on,80,0,80
1,note_on,78,74,0
1,note_on,78,0,80
1,note_on,77,71,0
1,note_on,77,0,70
1,note_on,77,89,10
1,note_on,77,0,240
1,note_on,88,81,0
1,note_on,76,81,0
1,note_on,76,0,240
1,note_on,88,0,0
1,note_on,77,81,0
1,note_on,89,81,0
1,note_on,89,0,240
1,note_on,77,0,0
1,note_on,70,89,0
1,note_on,82,89,0
1,note_on,82,0,240
1,note_on,70,0,0
1,note_on,72,73,0
1,note_on,72,0,120
1,note_on,73,71,0
1,note_on,73,0,120
1,note_on,77,73,0
1,note_on,77,0,80
1,note_on,75,73,0
1,note_on,75,0,80
1,note_on,73,69,0
1,note_on,73,0,70
1,note_on,73,89,10
1,note_on,73,0,240
1,note_on,84,81,0
1,note_on,72,81,0
1,note_on,72,0,240
1,note_on,84,0,0
1,note_on,73,81,0
1,note_on,85,81,0
1,note_on,85,0,240
1,note_on,73,0,0
1,note_on,66,89,0
1,note_on,78,89,0
1,note_on,78,0,240
1,note_on,66,0,0
1,note_on,69,73,0
1,note_on,69,0,120
1,note_on,70,69,0
1,note_on,70,0,120
1,note_on,73,73,0
1,note_on,73,0,80
1,note_on,72,73,0
1,note_on,72,0,80
1,note_on,70,69,0
1,note_on,70,0,70
1,note_on,70,89,10
1,note_on,70,0,240
1,note_on,81,81,0
1,note_on,69,81,0
1,note_on,69,0,240
1,note_on,81,0,0
1,note_on,70,81,0
1,note_on,82,81,0
1,note_on,82,0,240
1,note_on,70,0,0
1,note_on,63,89,0
1,note_on,75,89,0
1,note_on,75,0,240
1,note_on,63,0,0
1,note_on,65,74,0
1,note_on,65,0,120
1,note_on,66,70,0
1,note_on,66,0,120
1,note_on,70,74,0
1,note_on,70,0,80
1,note_on,68,74,0
1,note_on,68,0,80
1,note_on,66,71,0
1,note_on,66,0,70
1,note_on,66,89,10
1,note_on,74,85,240
1,note_on,77,85,0
1,note_on,77,0,240
1,note_on,74,0,0
1,note_on,75,85,0
1,note_on,78,85,0
1,note_on,78,0,240
1,note_on,75,0,0
1,note_on,66,0,0
1,note_on,65,84,0
1,note_on,72,84,0
1,note_on,75,84,0
1,note_on,77,84,0
1,note_on,77,0,240
1,note_on,65,0,0
1,note_on,72,0,0
1,note_on,75,0,0
1,note_on,64,68,0
1,note_on,64,0,120
1,note_on,65,66,0
1,note_on,65,0,120
1,note_on,68,68,0
1,note_on,66,68,80
1,note_on,68,0,20
1,note_on,65,66,60
1,note_on,66,0,20
1,note_on,65,0,50
1,note_on,53,59,10
1,note_on,58,59,15
1,note_on,61,59,15
1,note_on,65,59,15
1,note_on,65,0,195
1,note_on,53,0,0
1,note_on,58,0,0
1,note_on,61,0,0
1,note_on,87,73,0
1,note_on,75,73,0
1,note_on,75,0,240
1,note_on,87,0,0
1,note_on,85,73,0
1,note_on,73,73,0
1,note_on,73,0,240
1,note_on,85,0,0
1,note_on,72,68,0
1,note_on,77,69,15
1,note_on,81,72,15
1,note_on,84,77,15
1,note_on,84,0,195
1,note_on,72,0,0
1,note_on,77,0,0
1,note_on,81,0,0
1,note_on,64,68,0
1,note_on,64,0,120
1,note_on,65,66,0
1,note_on,65,0,120
1,note_on,68,69,0
1,note_on,66,69,80
1,note_on,68,0,20
1,note_on,65,67,60
1,note_on,66,0,20
1,note_on,65,0,50
1,note_on,53,60,10
1,note_on,58,60,15
1,note_on,61,60,15
1,note_on,65,60,15
1,note_on,65,0,195
1,note_on,53,0,0
1,note_on,58,0,0
1,note_on,61,0,0
1,note_on,84,74,0
1,note_on,72,74,0
1,note_on,72,0,240
1,note_on,84,0,0
1,note_on,70,74,0
1,note_on,82,74,0
1,note_on,82,0,240
1,note_on,70,0,0
1,note_on,69,69,0
1,note_on,72,70,15
1,note_on,77,74,15
1,note_on,81,76,15
1,note_on,81,0,195
1,note_on,69,0,0
1,note_on,72,0,0
1,note_on,77,0,0
1,note_on,64,65,0
1,note_on,64,0,120
1,note_on,65,60,0
1,note_on,65,0,120
1,note_on,68,65,0
1,note_on,66,65,80
1,note_on,68,0,20
1,note_on,65,61,60
1,note_on,66,0,20
1,note_on,65,0,50
1,note_on,53,56,10
1,note_on,58,56,15
1,note_on,61,56,15
1,note_on,65,56,15
1,note_on,65,0,195
1,note_on,53,0,0
1,note_on,58,0,0
1,note_on,61,0,0
1,note_on,87,78,0
1,note_on,75,78,0
1,note_on,75,0,240
1,note_on,87,0,0
1,note_on,73,78,0
1,note_on,85,78,0
1,note_on,85,0,240
1,note_on,73,0,0
1,note_on,72,74,0
1,note_on,77,75,15
1,note_on,81,77,15
1,note_on,84,80,15
1,note_on,84,0,195
1,note_on,72,0,0
1,note_on,77,0,0
1,note_on,81,0,0
1,note_on,64,70,0
1,note_on,64,0,120
1,note_on,65,67,0
1,note_on,65,0,120
1,note_on,68,70,0
1,note_on,66,70,80
1,note_on,68,0,20
1,note_on,65,68,60
1,note_on,66,0,20
1,note_on,65,0,50
1,note_on,53,62,10
1,note_on,58,62,15
1,note_on,61,62,15
1,note_on,65,62,15
1,note_on,65,0,195
1,note_on,53,0,0
1,note_on,58,0,0
1,note_on,61,0,0
1,note_on,84,77,0
1,note_on,72,77,0
1,note_on,72,0,240
1,note_on,84,0,0
1,note_on,70,77,0
1,note_on,82,77,0
1,note_on,82,0,240
1,note_on,70,0,0
1,note_on,69,73,0
1,note_on,72,74,15
1,note_on,77,77,15
1,note_on,81,81,15
1,note_on,81,0,195
1,note_on,69,0,0
1,note_on,72,0,0
1,note_on,77,0,0
1,note_on,64,67,0
1,note_on,64,0,120
1,note_on,65,64,0
1,note_on,65,0,120
1,note_on,68,67,0
1,note_on,66,67,80
1,note_on,68,0,20
1,note_on,65,64,60
1,note_on,66,0,20
1,note_on,65,0,50
1,note_on,65,80,10
1,note_on,65,0,240
1,note_on,85,77,0
1,note_on,73,77,0
1,note_on,73,0,240
1,note_on,85,0,0
1,note_on,72,78,0
1,note_on,84,78,0
1,note_on,84,0,240
1,note_on,72,0,0
1,note_on,69,74,0
1,note_on,72,75,15
1,note_on,77,78,15
1,note_on,81,83,15
1,note_on,81,0,195
1,note_on,69,0,0
1,note_on,72,0,0
1,note_on,77,0,0
1,note_on,59,70,0
1,note_on,59,0,120
1,note_on,60,66,0
1,note_on,60,0,120
1,note_on,63,70,0
1,note_on,61,70,80
1,note_on,63,0,20
1,note_on,60,66,60
1,note_on,61,0,20
1,note_on,60,0,50
1,note_on,60,80,10
1,note_on,60,0,240
1,note_on,70,78,0
1,note_on,70,0,240
1,note_on,69,75,0
1,note_on,69,0,240
1,note_on,69,65,0
1,note_on,72,67,15
1,note_on,77,71,15
1,note_on,81,71,15
1,note_on,81,0,195
1,note_on,69,0,0
1,note_on,72,0,0
1,note_on,77,0,0
1,note_on,64,70,0
1,note_on,64,0,120
1,note_on,65,67,0
1,note_on,65,0,120
1,note_on,68,70,0
1,note_on,66,70,80
1,note_on,68,0,20
1,note_on,65,66,60
1,note_on,66,0,20
1,note_on,65,0,50
1,note_on,65,80,10
1,note_on,65,0,240
1,note_on,85,77,0
1,note_on,73,77,0
1,note_on,73,0,240
1,note_on,85,0,0
1,note_on,72,77,0
1,note_on,84,77,0
1,note_on,84,0,240
1,note_on,72,0,0
1,note_on,69,65,0
1,note_on,72,66,15
1,note_on,77,70,15
1,note_on,81,76,15
1,note_on,81,0,195
1,note_on,69,0,0
1,note_on,72,0,0
1,note_on,77,0,0
1,note_on,59,69,0
1,note_on,59,0,120
1,note_on,60,67,0
1,note_on,60,0,120
1,note_on,63,69,0
1,note_on,61,69,80
1,note_on,63,0,20
1,note_on,60,66,60
1,note_on,61,0,20
1,note_on,60,0,50
1,note_on,60,78,10
1,note_on,60,0,240
1,note_on,70,77,0
1,note_on,70,0,240
1,note_on,69,74,0
1,note_on,69,0,240
1,note_on,69,62,0
1,note_on,72,63,15
1,note_on,77,65,15
1,note_on,81,69,15
1,note_on,81,0,195
1,note_on,69,0,0
1,note_on,72,0,0
1,note_on,77,0,0
1,note_on,59,64,0
1,note_on,59,0,120
1,note_on,60,59,0
1,note_on,60,0,120
1,note_on,63,64,0
1,note_on,61,64,80
1,note_on,63,0,20
1,note_on,60,60,60
1,note_on,61,0,20
1,note_on,60,0,50
1,note_on,60,72,10
1,note_on,60,0,240
1,note_on,70,71,0
1,note_on,70,0,240
1,note_on,69,69,0
1,note_on,69,0,240
1,note_on,69,58,0
1,note_on,72,59,15
1,note_on,77,61,15
1,note_on,81,63,15
1,note_on,81,0,195
1,note_on,69,0,0
1,note_on,72,0,0
1,note_on,77,0,0
1,note_on,59,59,0
1,note_on,59,0,120
1,note_on,60,56,0
1,note_on,60,0,120
1,note_on,63,59,0
1,note_on,61,59,80
1,note_on,63,0,20
1,note_on,60,55,60
1,note_on,61,0,20
1,note_on,60,0,50
1,note_on,60,67,10
1,note_on,60,0,240
1,note_on,70,67,0
1,note_on,70,0,240
1,note_on,69,64,0
1,note_on,69,0,240
1,note_on,69,54,0
1,note_on,72,54,15
1,note_on,77,56,15
1,note_on,81,58,15
1,note_on,81,0,195
1,note_on,69,0,0
1,note_on,72,0,0
1,note_on,77,0,0
1,note_on,47,53,0
1,note_on,48,51,120
1,note_on,47,0,30
1,note_on,51,53,90
1,note_on,48,0,30
1,note_on,49,53,50
1,note_on,51,0,20
1,note_on,48,49,60
1,note_on,49,0,20
1,note_on,48,0,50
1,note_on,48,59,10
1,note_on,48,0,240
1,note_on,58,56,0
1,note_on,58,0,120
1,note_on,57,58,120
1,note_on,57,0,120
1,note_on,53,62,120
1,note_on,53,0,240
1,note_on,47,46,0
1,note_on,48,43,120
1,note_on,47,0,30
1,note_on,51,46,90
1,note_on,48,0,30
1,note_on,49,46,50
1,note_on,51,0,20
1,note_on,48,42,60
1,note_on,49,0,20
1,note_on,48,0,50
1,note_on,48,51,10
1,note_on,48,0,240
1,note_on,58,52,0
1,note_on,58,0,120
1,note_on,57,52,120
1,note_on,57,0,120
1,note_on,53,56,120
1,note_on,53,0,240
1,note_on,47,47,1440
1,note_on,48,44,120
1,note_on,47,0,30
1,note_on,51,47,90
1,note_on,48,0,30
1,note_on,49,47,50
1,note_on,51,0,20
1,note_on,48,44,60
1,note_on,49,0,20
1,note_on,48,0,50
1,note_on,48,55,10
1,note_on,48,0,120
1,note_on,58,52,120
1,note_on,58,0,120
1,note_on,57,49,120
1,note_on,57,0,120
1,note_on,53,55,120
1,note_on,53,0,240
1,note_on,46,46,720
1,note_on,46,0,240
1,note_on,45,45,0
1,note_on,45,0,240
1,note_on,41,46,0
1,note_on,41,0,720
1,note_on,57,29,480
1,note_on,57,0,80
1,note_on,58,31,0
1,note_on,58,0,80
1,note_on,61,33,0
1,note_on,61,0,80
1,note_on,65,37,0
1,note_on,65,0,120
1,note_on,57,29,360
1,note_on,57,0,80
1,note_on,58,31,0
1,note_on,58,0,80
1,note_on,61,32,0
1,note_on,61,0,80
1,note_on,65,43,0
1,note_on,65,0,1440
1,note_on,58,100,0
1,note_on,58,0,120
1,note_on,94,92,600
1,note_on,90,92,0
1,note_on,82,78,0
1,note_on,82,0,1440
1,note_on,90,0,0
1,note_on,94,0,0
1,note_on,75,51,0
1,note_on,84,61,0
1,note_on,87,61,0
1,note_on,87,0,360
1,note_on,84,0,0
1,note_on,75,0,0
1,note_on,77,57,0
1,note_on,84,68,0
1,note_on,89,68,0
1,note_on,89,0,120
1,note_on,84,0,0
1,note_on,77,0,0
1,note_on,78,60,0
1,note_on,84,71,0
1,note_on,90,71,0
1,note_on,90,0,240
1,note_on,84,0,0
1,note_on,78,0,0
1,note_on,77,57,0
1,note_on,85,68,0
1,note_on,89,68,0
1,note_on,89,0,240
1,note_on,85,0,0
1,note_on,77,0,0
1,note_on,57,27,240
1,note_on,57,0,80
1,note_on,58,29,0
1,note_on,58,0,80
1,note_on,61,30,0
1,note_on,61,0,80
1,note_on,65,35,0
1,note_on,65,0,120
1,note_on,57,27,360
1,note_on,57,0,80
1,note_on,58,29,0
1,note_on,58,0,80
1,note_on,61,30,0
1,note_on,61,0,80
1,note_on,65,39,0
1,note_on,65,0,1440
1,note_on,56,100,0
1,note_on,56,0,120
1,note_on,92,90,600
1,note_on,89,90,0
1,note_on,80,76,0
1,note_on,80,0,1440
1,note_on,89,0,0
1,note_on,92,0,0
1,note_on,75,51,0
1,note_on,84,60,0
1,note_on,87,60,0
1,note_on,87,0,360
1,note_on,84,0,0
1,note_on,75,0,0
1,note_on,77,55,0
1,note_on,84,65,0
1,note_on,89,65,0
1,note_on,89,0,120
1,note_on,84,0,0
1,note_on,77,0,0
1,note_on,78,59,0
1,note_on,84,70,0
1,note_on,90,70,0
1,note_on,90,0,240
1,note_on,84,0,0
1,note_on,78,0,0
1,note_on,77,56,0
1,note_on,85,67,0
1,note_on,89,67,0
1,note_on,89,0,240
1,note_on,85,0,0
1,note_on,77,0,0
1,note_on,69,81,480
1,note_on,77,81,0
1,note_on,77,0,480
1,note_on,69,0,0
1,note_on,57,81,240
1,note_on,65,81,0
1,note_on,65,0,480
1,note_on,57,0,0
1,note_on,57,27,480
1,note_on,57,0,80
1,note_on,58,29,0
1,note_on,58,0,80
1,note_on,61,30,0
1,note_on,61,0,80
1,note_on,65,34,0
1,note_on,65,0,120
1,note_on,57,29,360
1,note_on,57,0,80
1,note_on,58,30,0
1,note_on,58,0,80
1,note_on,61,31,0
1,note_on,61,0,80
1,note_on,65,39,0
1,note_on,65,0,1440
1,note_on,58,100,0
1,note_on,58,0,120
1,note_on,82,78,600
1,note_on,90,92,0
1,note_on,94,92,0
1,note_on,94,0,1080
1,note_on,90,0,0
1,note_on,82,0,0
1,note_on,87,58,0
1,note_on,84,58,0
1,note_on,75,49,0
1,note_on,75,0,120
1,note_on,84,0,0
1,note_on,87,0,0
1,note_on,87,58,0
1,note_on,84,58,0
1,note_on,75,49,0
1,note_on,75,0,240
1,note_on,84,0,0
1,note_on,87,0,0
1,note_on,75,51,0
1,note_on,84,61,0
1,note_on,87,61,0
1,note_on,87,0,360
1,note_on,84,0,0
1,note_on,75,0,0
1,note_on,84,68,0
1,note_on,89,68,0
1,note_on,77,57,0
1,note_on,77,0,120
1,note_on,89,0,0
1,note_on,84,0,0
1,note_on,84,71,0
1,note_on,78,60,0
1,note_on,90,71,0
1,note_on,90,0,240
1,note_on,78,0,0
1,note_on,84,0,0
1,note_on,85,68,0
1,note_on,77,57,0
1,note_on,89,68,0
1,note_on,89,0,240
1,note_on,77,0,0
1,note_on,85,0,0
1,note_on,57,29,240
1,note_on,57,0,80
1,note_on,58,30,0
1,note_on,58,0,80
1,note_on,61,32,0
1,note_on,61,0,80
1,note_on,65,37,0
1,note_on,65,0,120
1,note_on,57,29,360
1,note_on,57,0,80
1,note_on,58,30,0
1,note_on,58,0,80
1,note_on,61,32,0
1,note_on,61,0,80
1,note_on,65,39,0
1,note_on,65,0,1440
1,note_on,48,100,0
1,note_on,48,0,120
1,note_on,84,76,600
1,note_on,92,90,0
1,note_on,96,90,0
1,note_on,96,0,1440
1,note_on,92,0,0
1,note_on,84,0,0
1,note_on,91,60,0
1,note_on,88,60,0
1,note_on,79,51,0
1,note_on,79,0,360
1,note_on,88,0,0
1,note_on,91,0,0
1,note_on,80,55,0
1,note_on,88,65,0
1,note_on,92,65,0
1,note_on,92,0,120
1,note_on,88,0,0
1,note_on,80,0,0
1,note_on,82,59,0
1,note_on,88,70,0
1,note_on,94,70,0
1,note_on,94,0,240
1,note_on,88,0,0
1,note_on,82,0,0
1,note_on,92,67,0
1,note_on,89,67,0
1,note_on,80,56,0
1,note_on,80,0,240
1,note_on,89,0,0
1,note_on,92,0,0
1,note_on,72,81,480
1,note_on,80,81,0
1,note_on,68,68,0
1,note_on,77,81,0
1,note_on,77,0,480
1,note_on,72,0,0
1,note_on,80,0,0
1,note_on,68,0,0
1,note_on,60,81,240
1,note_on,68,81,0
1,note_on,56,68,0
1,note_on,65,81,0
1,note_on,65,0,480
1,note_on,60,0,0
1,note_on,68,0,0
1,note_on,56,0,0
1,note_on,41,94,1680
1,note_on,41,0,720
1,note_on,38,50,0
1,note_on,39,51,80
1,note_on,38,0,10
1,note_on,41,51,70
1,note_on,39,0,10
1,note_on,39,52,70
1,note_on,41,0,10
1,note_on,39,0,70
1,note_on,41,53,0
1,note_on,39,55,80
1,note_on,41,0,10
1,note_on,41,56,67
1,note_on,39,0,13
1,note_on,39,56,70
1,note_on,41,0,7
1,note_on,41,57,73
1,note_on,39,0,10
1,note_on,39,58,70
1,note_on,41,0,10
1,note_on,41,59,50
1,note_on,39,0,10
1,note_on,39,60,50
1,note_on,41,0,10
1,note_on,41,61,50
1,note_on,39,0,10
1,note_on,39,62,47
1,note_on,41,0,13
1,note_on,39,0,47
1,note_on,41,62,3
1,note_on,39,62,60
1,note_on,41,0,10
1,note_on,41,63,50
1,note_on,39,0,10
1,note_on,39,64,50
1,note_on,41,0,10
1,note_on,38,73,70
1,note_on,39,0,10
1,note_on,39,73,70
1,note_on,38,0,10
1,note_on,101,97,70
1,note_on,39,0,10
1,note_on,101,0,950
1,note_on,99,68,0
1,note_on,99,0,120
1,note_on,97,62,0
1,note_on,97,0,120
1,note_on,92,65,0
1,note_on,92,0,120
1,note_on,89,60,0
1,note_on,89,0,120
1,note_on,87,62,0
1,note_on,87,0,120
1,note_on,85,57,0
1,note_on,85,0,120
1,note_on,80,58,0
1,note_on,80,0,120
1,note_on,77,52,0
1,note_on,77,0,120
1,note_on,75,55,0
1,note_on,75,0,120
1,note_on,73,51,0
1,note_on,73,0,120
1,note_on,68,52,0
1,note_on,68,0,240
1,note_on,72,55,480
1,note_on,72,0,120
1,note_on,73,52,0
1,note_on,73,0,120
1,note_on,75,50,0
1,note_on,75,0,120
1,note_on,77,47,0
1,note_on,77,0,120
1,note_on,78,45,0
1,note_on,80,42,113
1,note_on,78,0,7
1,note_on,80,0,113
1,note_on,81,40,7
1,note_on,81,0,120
1,note_on,81,50,600
1,note_on,81,0,120
1,note_on,80,49,0
1,note_on,80,0,120
1,note_on,79,47,0
1,note_on,79,0,120
1,note_on,78,46,0
1,note_on,78,0,120
1,note_on,77,44,0
1,note_on,77,0,120
1,note_on,76,42,0
1,note_on,76,0,120
1,note_on,75,41,0
1,note_on,75,0,120
1,note_on,101,97,600
1,note_on,101,0,960
1,note_on,99,68,0
1,note_on,99,0,120
1,note_on,97,61,0
1,note_on,97,0,120
1,note_on,92,65,0
1,note_on,92,0,120
1,note_on,89,59,0
1,note_on,89,0,120
1,note_on,87,62,0
1,note_on,87,0,120
1,note_on,85,57,0
1,note_on,85,0,120
1,note_on,80,58,0
1,note_on,80,0,120
1,note_on,77,57,0
1,note_on,77,0,120
1,note_on,75,55,0
1,note_on,75,0,120
1,note_on,73,51,0
1,note_on,73,0,120
1,note_on,68,52,0
1,note_on,68,0,240
1,note_on,72,42,480
1,note_on,72,0,120
1,note_on,73,41,0
1,note_on,73,0,120
1,note_on,75,41,0
1,note_on,75,0,120
1,note_on,77,40,0
1,note_on,77,0,120
1,note_on,78,39,0
1,note_on,80,38,113
1,note_on,78,0,7
1,note_on,80,0,113
1,note_on,81,37,7
1,note_on,81,0,120
1,note_on,81,42,600
1,note_on,81,0,120
1,note_on,80,41,0
1,note_on,80,0,120
1,note_on,79,40,0
1,note_on,79,0,120
1,note_on,78,39,0
1,note_on,78,0,120
1,note_on,77,37,0
1,note_on,77,0,120
1,note_on,76,36,0
1,note_on,76,0,120
1,note_on,75,35,0
1,note_on,75,0,240
1,note_on,71,40,480
1,note_on,77,59,0
1,note_on,77,0,960
1,note_on,75,53,0
1,note_on,75,0,360
1,note_on,73,52,0
1,note_on,73,0,110
1,note_on,71,0,10
1,note_on,71,38,0
1,note_on,73,56,0
1,note_on,73,0,720
1,note_on,71,0,0
1,note_on,70,56,0
1,note_on,78,56,0
1,note_on,70,0,720
1,note_on,71,50,0
1,note_on,78,0,480
1,note_on,77,52,0
1,note_on,77,0,230
1,note_on,77,51,10
1,note_on,77,0,240
1,note_on,75,50,0
1,note_on,75,0,240
1,note_on,73,49,0
1,note_on,73,0,240
1,note_on,71,0,0
1,note_on,70,44,0
1,note_on,73,44,0
1,note_on,82,56,0
1,note_on,82,0,720
1,note_on,73,0,0
1,note_on,70,0,0
1,note_on,68,44,0
1,note_on,73,44,0
1,note_on,82,62,0
1,note_on,82,0,480
1,note_on,82,64,0
1,note_on,67,44,180
1,note_on,67,0,60
1,note_on,68,0,0
1,note_on,73,0,0
1,note_on,82,0,0
1,note_on,73,45,0
1,note_on,82,68,0
1,note_on,82,0,480
1,note_on,75,57,0
1,note_on,75,0,240
1,note_on,75,57,0
1,note_on,75,0,240
1,note_on,77,51,0
1,note_on,77,0,60
1,note_on,79,51,0
1,note_on,79,0,60
1,note_on,77,56,0
1,note_on,77,0,240
1,note_on,75,56,0
1,note_on,75,0,110
1,note_on,73,0,10
1,note_on,73,49,0
1,note_on,75,59,0
1,note_on,75,0,720
1,note_on,73,0,0
1,note_on,72,53,0
1,note_on,80,64,0
1,note_on,72,0,720
1,note_on,73,55,0
1,note_on,80,0,240
1,note_on,79,60,0
1,note_on,79,0,240
1,note_on,77,59,0
1,note_on,77,0,240
1,note_on,79,60,0
1,note_on,79,0,240
1,note_on,77,59,0
1,note_on,77,0,360
1,note_on,75,56,0
1,note_on,75,0,120
1,note_on,73,0,0
1,note_on,72,56,0
1,note_on,84,56,0
1,note_on,84,0,720
1,note_on,84,64,0
1,note_on,84,0,480
1,note_on,84,63,0
1,note_on,84,0,230
1,note_on,72,0,10
1,note_on,84,68,0
1,note_on,84,0,960
1,note_on,82,63,0
1,note_on,82,0,360
1,note_on,80,63,0
1,note_on,80,0,110
1,note_on,80,63,10
1,note_on,80,0,720
1,note_on,85,75,0
1,note_on,85,0,720
1,note_on,85,82,0
1,note_on,85,0,480
1,note_on,84,78,0
1,note_on,84,0,230
1,note_on,84,75,10
1,note_on,84,0,240
1,note_on,82,71,0
1,note_on,82,0,360
1,note_on,80,63,0
1,note_on,80,0,120
1,note_on,89,80,0
1,note_on,89,0,720
1,note_on,89,77,0
1,note_on,89,0,480
1,note_on,89,81,0
1,note_on,89,0,230
1,note_on,89,85,10
1,note_on,89,0,720
1,note_on,87,72,0
1,note_on,87,0,240
1,note_on,85,71,0
1,note_on,85,0,240
1,note_on,82,70,0
1,note_on,82,0,240
1,note_on,84,75,0
1,note_on,84,0,720
1,note_on,82,71,0
1,note_on,82,0,240
1,note_on,80,68,0
1,note_on,80,0,240
1,note_on,77,63,0
1,note_on,77,0,240
1,note_on,82,69,0
1,note_on,82,0,240
1,note_on,80,64,0
1,note_on,80,0,240
1,note_on,78,61,0
1,note_on,78,0,230
1,note_on,78,55,10
1,note_on,78,0,60
1,note_on,80,55,0
1,note_on,80,0,60
1,note_on,78,63,0
1,note_on,78,0,120
1,note_on,77,58,0
1,note_on,77,0,360
1,note_on,76,59,0
1,note_on,76,0,110
1,note_on,76,59,10
1,note_on,76,0,720
1,note_on,77,63,0
1,note_on,77,0,480
1,note_on,80,57,0
1,note_on,80,0,240
1,note_on,68,57,0
1,note_on,80,57,60
1,note_on,68,0,420
1,note_on,72,63,0
1,note_on,80,0,240
1,note_on,84,63,0
1,note_on,84,0,240
1,note_on,72,0,0
1,note_on,70,63,0
1,note_on,82,63,0
1,note_on,82,0,360
1,note_on,70,0,0
1,note_on,68,63,0
1,note_on,80,63,0
1,note_on,80,0,110
1,note_on,68,0,0
1,note_on,68,63,10
1,note_on,80,63,0
1,note_on,68,0,720
1,note_on,73,75,0
1,note_on,85,75,0
1,note_on,85,0,720
1,note_on,73,0,0
1,note_on,80,0,0
1,note_on,78,60,0
1,note_on,80,60,0
1,note_on,73,75,0
1,note_on,85,75,0
1,note_on,85,0,360
1,note_on,73,0,0
1,note_on,75,71,0
1,note_on,84,71,0
1,note_on,84,0,120
1,note_on,78,0,0
1,note_on,80,0,0
1,note_on,75,0,0
1,note_on,80,60,0
1,note_on,78,60,0
1,note_on,72,78,0
1,note_on,84,78,0
1,note_on,84,0,240
1,note_on,80,0,0
1,note_on,78,0,0
1,note_on,72,0,0
1,note_on,80,60,0
1,note_on,78,60,0
1,note_on,72,75,0
1,note_on,84,75,0
1,note_on,84,0,360
1,note_on,80,0,0
1,note_on,78,0,0
1,note_on,72,0,0
1,note_on,70,71,0
1,note_on,82,71,0
1,note_on,82,0,120
1,note_on,70,0,0
1,note_on,78,60,0
1,note_on,68,63,0
1,note_on,80,63,0
1,note_on,80,0,240
1,note_on,68,0,0
1,note_on,78,0,0
1,note_on,80,80,0
1,note_on,77,68,0
1,note_on,89,80,0
1,note_on,89,0,720
1,note_on,77,0,0
1,note_on,80,0,0
1,note_on,77,65,0
1,note_on,80,77,0
1,note_on,89,77,0
1,note_on,89,0,480
1,note_on,80,0,0
1,note_on,77,0,0
1,note_on,77,66,0
1,note_on,80,78,0
1,note_on,89,78,0
1,note_on,89,0,240
1,note_on,80,0,0
1,note_on,77,0,0
1,note_on,77,69,0
1,note_on,80,82,0
1,note_on,89,82,0
1,note_on,89,0,720
1,note_on,80,0,0
1,note_on,77,0,0
1,note_on,78,67,0
1,note_on,75,56,0
1,note_on,87,67,0
1,note_on,87,0,240
1,note_on,75,0,0
1,note_on,78,0,0
1,note_on,73,55,0
1,note_on,78,65,0
1,note_on,85,65,0
1,note_on,85,0,360
1,note_on,78,0,0
1,note_on,73,0,0
1,note_on,70,54,0
1,note_on,78,64,0
1,note_on,82,64,0
1,note_on,82,0,120
1,note_on,78,0,0
1,note_on,70,0,0
1,note_on,72,52,0
1,note_on,80,62,0
1,note_on,84,62,0
1,note_on,84,0,720
1,note_on,80,0,0
1,note_on,72,0,0
1,note_on,70,54,0
1,note_on,78,64,0
1,note_on,82,64,0
1,note_on,82,0,240
1,note_on,78,0,0
1,note_on,70,0,0
1,note_on,68,57,0
1,note_on,77,68,0
1,note_on,80,68,0
1,note_on,80,0,240
1,note_on,77,0,0
1,note_on,68,0,0
1,note_on,70,61,0
1,note_on,77,72,0
1,note_on,82,72,0
1,note_on,82,0,240
1,note_on,77,0,0
1,note_on,70,0,0
1,note_on,77,77,0
1,note_on,71,65,0
1,note_on,83,77,0
1,note_on,83,0,480
1,note_on,71,0,0
1,note_on,77,0,0
1,note_on,77,75,0
1,note_on,70,63,0
1,note_on,82,75,0
1,note_on,82,0,240
1,note_on,70,0,0
1,note_on,77,0,0
1,note_on,71,66,0
1,note_on,77,78,0
1,note_on,83,78,0
1,note_on,83,0,1200
1,note_on,77,0,0
1,note_on,71,0,0
1,note_on,70,64,0
1,note_on,77,76,0
1,note_on,82,76,0
1,note_on,82,0,240
1,note_on,77,0,0
1,note_on,70,0,0
1,note_on,71,68,0
1,note_on,77,81,0
1,note_on,83,81,0
1,note_on,83,0,240
1,note_on,77,0,0
1,note_on,71,0,0
1,note_on,70,66,0
1,note_on,77,78,0
1,note_on,82,78,0
1,note_on,82,0,240
1,note_on,77,0,0
1,note_on,70,0,0
1,note_on,71,66,0
1,note_on,77,78,0
1,note_on,83,78,0
1,note_on,83,0,240
1,note_on,77,0,0
1,note_on,71,0,0
1,note_on,71,68,0
1,note_on,78,81,0
1,note_on,83,81,0
1,note_on,83,0,480
1,note_on,78,0,0
1,note_on,71,0,0
1,note_on,70,69,0
1,note_on,78,82,0
1,note_on,82,82,0
1,note_on,82,0,240
1,note_on,78,0,0
1,note_on,70,0,0
1,note_on,73,74,0
1,note_on,79,88,0
1,note_on,85,88,0
1,note_on,85,0,1200
1,note_on,79,0,0
1,note_on,73,0,0
1,note_on,72,69,0
1,note_on,79,82,0
1,note_on,84,82,0
1,note_on,84,0,240
1,note_on,79,0,0
1,note_on,72,0,0
1,note_on,73,73,0
1,note_on,79,86,0
1,note_on,85,86,0
1,note_on,85,0,240
1,note_on,79,0,0
1,note_on,73,0,0
1,note_on,72,68,0
1,note_on,79,81,0
1,note_on,84,81,0
1,note_on,84,0,240
1,note_on,79,0,0
1,note_on,72,0,0
1,note_on,73,72,0
1,note_on,79,85,0
1,note_on,85,85,0
1,note_on,85,0,240
1,note_on,79,0,0
1,note_on,73,0,0
1,note_on,73,74,0
1,note_on,80,88,0
1,note_on,85,88,0
1,note_on,85,0,480
1,note_on,80,0,0
1,note_on,73,0,0
1,note_on,72,77,0
1,note_on,80,91,0
1,note_on,84,91,0
1,note_on,84,0,240
1,note_on,80,0,0
1,note_on,72,0,0
1,note_on,81,90,0
1,note_on,75,76,0
1,note_on,87,90,0
1,note_on,87,0,480
1,note_on,75,0,0
1,note_on,81,0,0
1,note_on,87,88,0
1,note_on,81,88,0
1,note_on,75,74,0
1,note_on,75,0,240
1,note_on,81,0,0
1,note_on,87,0,0
1,note_on,87,92,0
1,note_on,80,92,0
1,note_on,75,78,0
1,note_on,75,0,480
1,note_on,80,0,0
1,note_on,87,0,0
1,note_on,86,88,0
1,note_on,80,88,0
1,note_on,74,74,0
1,note_on,74,0,240
1,note_on,80,0,0
1,note_on,86,0,0
1,note_on,89,99,0
1,note_on,83,99,0
1,note_on,77,84,0
1,note_on,77,0,480
1,note_on,83,0,0
1,note_on,89,0,0
1,note_on,89,95,0
1,note_on,83,95,0
1,note_on,77,80,0
1,note_on,77,0,240
1,note_on,83,0,0
1,note_on,89,0,0
1,note_on,89,96,0
1,note_on,82,96,0
1,note_on,77,81,0
1,note_on,77,0,480
1,note_on,82,0,0
1,note_on,89,0,0
1,note_on,88,96,0
1,note_on,82,96,0
1,note_on,76,81,0
1,note_on,76,0,240
1,note_on,82,0,0
1,note_on,88,0,0
1,note_on,91,101,0
1,note_on,85,101,0
1,note_on,79,85,0
1,note_on,79,0,480
1,note_on,85,0,0
1,note_on,91,0,0
1,note_on,91,98,0
1,note_on,85,98,0
1,note_on,79,83,0
1,note_on,79,0,240
1,note_on,85,0,0
1,note_on,91,0,0
1,note_on,91,98,0
1,note_on,84,98,0
1,note_on,79,83,0
1,note_on,79,0,480
1,note_on,84,0,0
1,note_on,91,0,0
1,note_on,92,94,0
1,note_on,84,94,0
1,note_on,80,79,0
1,note_on,80,0,240
1,note_on,84,0,0
1,note_on,92,0,0
1,note_on,93,110,0
1,note_on,84,110,0
1,note_on,81,93,0
1,note_on,81,0,480
1,note_on,84,0,0
1,note_on,93,0,0
1,note_on,84,94,0
1,note_on,78,94,0
1,note_on,72,79,0
1,note_on,72,0,240
1,note_on,78,0,0
1,note_on,84,0,0
1,note_on,85,109,0
1,note_on,77,109,0
1,note_on,73,92,0
1,note_on,73,0,180
1,note_on,77,0,0
1,note_on,85,0,0
1,note_on,65,97,540
1,note_on,65,0,120
1,note_on,73,75,0
1,note_on,73,0,120
1,note_on,80,79,0
1,note_on,80,0,120
1,note_on,77,83,0
1,note_on,77,0,120
1,note_on,85,87,0
1,note_on,85,0,120
1,note_on,94,91,0
1,note_on,94,0,120
1,note_on,84,96,0
1,note_on,92,96,0
1,note_on,92,0,240
1,note_on,84,0,0
1,note_on,66,97,480
1,note_on,66,0,120
1,note_on,72,75,0
1,note_on,72,0,120
1,note_on,80,80,0
1,note_on,80,0,120
1,note_on,78,84,0
1,note_on,78,0,120
1,note_on,84,88,0
1,note_on,84,0,120
1,note_on,92,93,0
1,note_on,92,0,120
1,note_on,85,97,0
1,note_on,89,97,0
1,note_on,89,0,240
1,note_on,85,0,0
1,note_on,65,97,480
1,note_on,65,0,120
1,note_on,73,75,0
1,note_on,73,0,120
1,note_on,80,79,0
1,note_on,80,0,120
1,note_on,77,83,0
1,note_on,77,0,120
1,note_on,85,87,0
1,note_on,85,0,120
1,note_on,94,91,0
1,note_on,94,0,120
1,note_on,84,96,0
1,note_on,92,96,0
1,note_on,92,0,240
1,note_on,84,0,0
1,note_on,66,97,480
1,note_on,66,0,120
1,note_on,72,75,0
1,note_on,72,0,120
1,note_on,80,80,0
1,note_on,80,0,120
1,note_on,78,84,0
1,note_on,78,0,120
1,note_on,84,88,0
1,note_on,84,0,120
1,note_on,92,93,0
1,note_on,92,0,60
1,note_on,85,100,0
1,note_on,85,0,60
1,note_on,97,113,0
1,note_on,97,0,240
1,note_on,95,111,0
1,note_on,95,0,120
1,note_on,93,103,0
1,note_on,93,0,120
1,note_on,88,107,0
1,note_on,88,0,120
1,note_on,85,98,0
1,note_on,85,0,120
1,note_on,83,102,0
1,note_on,83,0,120
1,note_on,81,94,0
1,note_on,81,0,120
1,note_on,76,98,0
1,note_on,76,0,120
1,note_on,73,91,0
1,note_on,73,0,120
1,note_on,71,94,0
1,note_on,71,0,120
1,note_on,69,85,0
1,note_on,69,0,120
1,note_on,64,90,0
1,note_on,64,0,120
1,note_on,61,82,0
1,note_on,61,0,120
1,note_on,59,85,0
1,note_on,59,0,120
1,note_on,57,77,0
1,note_on,57,0,120
1,note_on,52,81,0
1,note_on,52,0,240
1,note_on,53,93,0
1,note_on,65,93,0
1,note_on,65,0,480
1,note_on,53,0,0
1,note_on,52,87,0
1,note_on,64,87,0
1,note_on,64,0,180
1,note_on,52,0,0
1,note_on,85,100,0
1,note_on,85,0,60
1,note_on,97,113,0
1,note_on,97,0,240
1,note_on,95,111,0
1,note_on,95,0,120
1,note_on,93,103,0
1,note_on,93,0,120
1,note_on,88,107,0
1,note_on,88,0,120
1,note_on,85,98,0
1,note_on,85,0,120
1,note_on,83,102,0
1,note_on,83,0,120
1,note_on,81,96,0
1,note_on,81,0,120
1,note_on,76,98,0
1,note_on,76,0,120
1,note_on,73,91,0
1,note_on,73,0,120
1,note_on,71,94,0
1,note_on,71,0,120
1,note_on,69,87,0
1,note_on,69,0,120
1,note_on,64,90,0
1,note_on,64,0,120
1,note_on,61,82,0
1,note_on,61,0,120
1,note_on,59,85,0
1,note_on,59,0,120
1,note_on,57,78,0
1,note_on,57,0,120
1,note_on,52,81,0
1,note_on,52,0,240
1,note_on,53,93,0
1,note_on,65,93,0
1,note_on,65,0,480
1,note_on,53,0,0
1,note_on,52,87,0
1,note_on,64,87,0
1,note_on,64,0,240
1,note_on,52,0,0
1,note_on,53,87,0
1,note_on,65,87,0
1,note_on,65,0,180
1,note_on,53,0,0
1,note_on,53,43,60
1,note_on,53,0,120
1,note_on,57,45,0
1,note_on,57,0,120
1,note_on,61,46,0
1,note_on,61,0,120
1,note_on,65,48,0
1,note_on,65,0,120
1,note_on,73,54,0
1,note_on,77,54,0
1,note_on,77,0,240
1,note_on,73,0,0
1,note_on,53,43,0
1,note_on,53,0,120
1,note_on,57,44,0
1,note_on,57,0,120
1,note_on,61,45,0
1,note_on,61,0,120
1,note_on,65,46,0
1,note_on,65,0,120
1,note_on,73,54,0
1,note_on,77,54,0
1,note_on,77,0,240
1,note_on,73,0,0
1,note_on,53,46,0
1,note_on,53,0,120
1,note_on,58,46,0
1,note_on,58,0,120
1,note_on,61,47,0
1,note_on,61,0,120
1,note_on,65,47,0
1,note_on,65,0,120
1,note_on,73,54,0
1,note_on,77,54,0
1,note_on,77,0,240
1,note_on,73,0,0
1,note_on,53,45,0
1,note_on,53,0,120
1,note_on,58,46,0
1,note_on,58,0,120
1,note_on,62,47,0
1,note_on,62,0,120
1,note_on,65,49,0
1,note_on,65,0,120
1,note_on,74,55,0
1,note_on,77,55,0
1,note_on,77,0,240
1,note_on,74,0,0
1,note_on,54,46,0
1,note_on,54,0,120
1,note_on,58,47,0
1,note_on,58,0,120
1,note_on,62,48,0
1,note_on,62,0,120
1,note_on,66,49,0
1,note_on,66,0,120
1,note_on,74,57,0
1,note_on,78,57,0
1,note_on,78,0,240
1,note_on,74,0,0
1,note_on,54,47,0
1,note_on,54,0,120
1,note_on,58,48,0
1,note_on,58,0,120
1,note_on,63,49,0
1,note_on,63,0,120
1,note_on,66,51,0
1,note_on,66,0,120
1,note_on,75,57,0
1,note_on,78,57,0
1,note_on,78,0,240
1,note_on,75,0,0
1,note_on,55,47,0
1,note_on,55,0,120
1,note_on,61,48,0
1,note_on,61,0,120
1,note_on,64,50,0
1,note_on,64,0,120
1,note_on,67,51,0
1,note_on,67,0,120
1,note_on,76,60,0
1,note_on,79,60,0
1,note_on,79,0,240
1,note_on,76,0,0
1,note_on,68,56,0
1,note_on,68,0,120
1,note_on,73,60,0
1,note_on,73,0,120
1,note_on,77,63,0
1,note_on,77,0,120
1,note_on,80,67,0
1,note_on,92,77,120
1,note_on,89,77,0
1,note_on,85,77,0
1,note_on,85,0,240
1,note_on,80,0,0
1,note_on,92,0,0
1,note_on,89,0,0
1,note_on,60,63,240
1,note_on,60,0,80
1,note_on,61,64,0
1,note_on,61,0,80
1,note_on,65,66,0
1,note_on,65,0,80
1,note_on,68,68,0
1,note_on,68,0,240
1,note_on,59,62,240
1,note_on,59,0,80
1,note_on,60,63,0
1,note_on,60,0,80
1,note_on,65,65,0
1,note_on,65,0,80
1,note_on,68,67,0
1,note_on,68,0,240
1,note_on,57,62,240
1,note_on,57,0,80
1,note_on,58,64,0
1,note_on,58,0,80
1,note_on,65,66,0
1,note_on,65,0,80
1,note_on,68,68,0
1,note_on,68,0,240
1,note_on,56,86,480
1,note_on,56,0,240
1,note_on,92,90,480
1,note_on,89,90,0
1,note_on,80,90,0
1,note_on,80,0,960
1,note_on,89,0,0
1,note_on,92,0,0
1,note_on,80,77,0
1,note_on,87,77,0
1,note_on,92,77,0
1,note_on,92,0,240
1,note_on,87,0,0
1,note_on,80,0,0
1,note_on,80,77,0
1,note_on,89,77,0
1,note_on,92,77,0
1,note_on,92,0,240
1,note_on,89,0,0
1,note_on,80,0,0
1,note_on,80,75,0
1,note_on,87,75,0
1,note_on,92,75,0
1,note_on,92,0,240
1,note_on,87,0,0
1,note_on,80,0,0
1,note_on,80,80,0
1,note_on,89,80,0
1,note_on,92,80,0
1,note_on,92,0,240
1,note_on,89,0,0
1,note_on,80,0,0
1,note_on,80,79,0
1,note_on,92,79,0
1,note_on,87,79,0
1,note_on,87,0,240
1,note_on,92,0,0
1,note_on,80,0,0
1,note_on,92,90,0
1,note_on,89,90,0
1,note_on,85,90,0
1,note_on,80,90,0
1,note_on,80,0,180
1,note_on,92,0,0
1,note_on,89,0,0
1,note_on,85,0,0
1,note_on,60,63,300
1,note_on,60,0,80
1,note_on,61,64,0
1,note_on,61,0,80
1,note_on,65,66,0
1,note_on,65,0,80
1,note_on,68,68,0
1,note_on,68,0,240
1,note_on,59,62,240
1,note_on,59,0,80
1,note_on,60,63,0
1,note_on,60,0,80
1,note_on,65,65,0
1,note_on,65,0,80
1,note_on,68,67,0
1,note_on,68,0,240
1,note_on,57,62,240
1,note_on,57,0,80
1,note_on,58,64,0
1,note_on,58,0,80
1,note_on,65,66,0
1,note_on,65,0,80
1,note_on,68,68,0
1,note_on,68,0,240
1,note_on,56,86,480
1,note_on,56,0,240
1,note_on,92,90,480
1,note_on,89,90,0
1,note_on,80,90,0
1,note_on,80,0,960
1,note_on,89,0,0
1,note_on,92,0,0
1,note_on,80,74,0
1,note_on,87,74,0
1,note_on,92,74,0
1,note_on,92,0,240
1,note_on,87,0,0
1,note_on,80,0,0
1,note_on,80,71,0
1,note_on,89,71,0
1,note_on,92,71,0
1,note_on,92,0,240
1,note_on,89,0,0
1,note_on,80,0,0
1,note_on,80,68,0
1,note_on,87,68,0
1,note_on,92,68,0
1,note_on,92,0,240
1,note_on,87,0,0
1,note_on,80,0,0
1,note_on,80,66,0
1,note_on,89,66,0
1,note_on,92,66,0
1,note_on,92,0,240
1,note_on,89,0,0
1,note_on,80,0,0
1,note_on,80,63,0
1,note_on,92,63,0
1,note_on,87,63,0
1,note_on,87,0,240
1,note_on,92,0,0
1,note_on,80,0,0
1,note_on,89,59,0
1,note_on,92,59,0
1,note_on,80,59,0
1,note_on,89,0,480
1,note_on,87,59,0
1,note_on,87,0,240
1,note_on,80,0,0
1,note_on,92,0,0
1,note_on,89,58,0
1,note_on,93,58,0
1,note_on,81,58,0
1,note_on,89,0,480
1,note_on,87,58,0
1,note_on,87,0,240
1,note_on,81,0,0
1,note_on,93,0,0
1,note_on,89,60,0
1,note_on,81,60,0
1,note_on,93,60,0
1,note_on,89,0,480
1,note_on,87,58,0
1,note_on,87,0,240
1,note_on,93,0,0
1,note_on,81,0,0
1,note_on,90,62,0
1,note_on,82,62,0
1,note_on,94,62,0
1,note_on,90,0,480
1,note_on,88,63,0
1,note_on,88,0,240
1,note_on,94,0,0
1,note_on,82,0,0
1,note_on,90,64,0
1,note_on,82,64,0
1,note_on,94,64,0
1,note_on,90,0,480
1,note_on,88,70,0
1,note_on,88,0,240
1,note_on,94,0,0
1,note_on,82,0,0
1,note_on,91,74,0
1,note_on,83,74,0
1,note_on,95,74,0
1,note_on,91,0,480
1,note_on,89,73,0
1,note_on,89,0,240
1,note_on,95,0,0
1,note_on,83,0,0
1,note_on,91,78,0
1,note_on,83,78,0
1,note_on,95,78,0
1,note_on,91,0,480
1,note_on,89,78,0
1,note_on,89,0,240
1,note_on,95,0,0
1,note_on,83,0,0
1,note_on,92,84,0
1,note_on,96,84,0
1,note_on,84,84,0
1,note_on,92,0,480
1,note_on,90,86,0
1,note_on,90,0,240
1,note_on,84,0,0
1,note_on,96,0,0
1,note_on,101,101,0
1,note_on,101,0,240
1,note_on,99,100,0
1,note_on,99,0,120
1,note_on,97,96,0
1,note_on,97,0,120
1,note_on,92,98,0
1,note_on,92,0,120
1,note_on,89,93,0
1,note_on,89,0,120
1,note_on,87,95,0
1,note_on,87,0,120
1,note_on,85,89,0
1,note_on,85,0,120
1,note_on,80,92,0
1,note_on,80,0,120
1,note_on,77,86,0
1,note_on,77,0,120
1,note_on,75,89,0
1,note_on,75,0,120
1,note_on,73,83,0
1,note_on,73,0,120
1,note_on,68,86,0
1,note_on,68,0,120
1,note_on,65,81,0
1,note_on,65,0,120
1,note_on,63,83,0
1,note_on,63,0,120
1,note_on,61,79,0
1,note_on,61,0,120
1,note_on,56,80,0
1,note_on,56,0,240
1,note_on,65,64,0
1,note_on,57,88,0
1,note_on,69,88,0
1,note_on,69,0,480
1,note_on,57,0,0
1,note_on,56,83,0
1,note_on,68,83,0
1,note_on,68,0,240
1,note_on,56,0,0
1,note_on,65,0,0
1,note_on,101,100,0
1,note_on,101,0,240
1,note_on,99,99,0
1,note_on,99,0,120
1,note_on,97,92,0
1,note_on,97,0,120
1,note_on,92,96,0
1,note_on,92,0,120
1,note_on,89,91,0
1,note_on,89,0,120
1,note_on,87,93,0
1,note_on,87,0,120
1,note_on,85,88,0
1,note_on,85,0,120
1,note_on,80,90,0
1,note_on,80,0,120
1,note_on,77,86,0
1,note_on,77,0,120
1,note_on,75,87,0
1,note_on,75,0,120
1,note_on,73,81,0
1,note_on,73,0,120
1,note_on,68,84,0
1,note_on,68,0,120
1,note_on,65,79,0
1,note_on,65,0,120
1,note_on,63,82,0
1,note_on,63,0,120
1,note_on,61,76,0
1,note_on,61,0,120
1,note_on,56,79,0
1,note_on,56,0,240
1,note_on,65,82,0
1,note_on,57,82,0
1,note_on,69,82,0
1,note_on,69,0,480
1,note_on,57,0,0
1,note_on,56,77,0
1,note_on,68,77,0
1,note_on,68,0,240
1,note_on,56,0,0
1,note_on,65,0,0
1,note_on,56,70,0
1,note_on,65,70,0
1,note_on,68,70,0
1,note_on,68,0,240
1,note_on,65,0,0
1,note_on,56,0,0
1,note_on,57,82,480
1,note_on,69,82,0
1,note_on,69,0,480
1,note_on,57,0,0
1,note_on,56,77,0
1,note_on,68,77,0
1,note_on,68,0,240
1,note_on,56,0,0
1,note_on,56,71,0
1,note_on,65,71,0
1,note_on,68,71,0
1,note_on,68,0,240
1,note_on,65,0,0
1,note_on,56,0,0
1,note_on,57,83,480
1,note_on,69,83,0
1,note_on,69,0,480
1,note_on,57,0,0
1,note_on,56,77,0
1,note_on,68,77,0
1,note_on,68,0,240
1,note_on,56,0,0
1,note_on,56,74,0
1,note_on,65,74,0
1,note_on,68,74,0
1,note_on,68,0,240
1,note_on,65,0,0
1,note_on,56,0,0
1,note_on,57,86,480
1,note_on,69,86,0
1,note_on,69,0,480
1,note_on,57,0,0
1,note_on,56,81,0
1,note_on,68,81,0
1,note_on,68,0,240
1,note_on,56,0,0
1,note_on,57,71,0
1,note_on,65,71,0
1,note_on,69,71,0
1,note_on,69,0,180
1,note_on,65,0,0
1,note_on,57,0,0
1,note_on,56,73,60
1,note_on,65,73,0
1,note_on,68,73,0
1,note_on,68,0,180
1,note_on,65,0,0
1,note_on,56,0,0
1,note_on,57,74,60
1,note_on,65,74,0
1,note_on,69,74,0
1,note_on,69,0,180
1,note_on,65,0,0
1,note_on,57,0,0
1,note_on,56,76,60
1,note_on,65,76,0
1,note_on,68,76,0
1,note_on,68,0,180
1,note_on,65,0,0
1,note_on,56,0,0
1,note_on,57,77,60
1,note_on,65,77,0
1,note_on,69,77,0
1,note_on,69,0,180
1,note_on,65,0,0
1,note_on,57,0,0
1,note_on,56,79,60
1,note_on,65,79,0
1,note_on,68,79,0
1,note_on,68,0,180
1,note_on,65,0,0
1,note_on,56,0,0
1,note_on,57,89,60
1,note_on,65,89,0
1,note_on,69,89,0
1,note_on,69,0,180
1,note_on,65,0,0
1,note_on,57,0,0
1,note_on,60,85,540
1,note_on,64,85,0
1,note_on,70,100,0
1,note_on,72,100,0
1,note_on,72,0,240
1,note_on,60,0,0
1,note_on,64,0,0
1,note_on,70,0,0
1,note_on,69,85,480
1,note_on,72,100,0
1,note_on,81,100,0
1,note_on,77,100,0
1,note_on,77,0,240
1,note_on,69,0,0
1,note_on,72,0,0
1,note_on,81,0,0
1,note_on,66,85,480
1,note_on,68,85,0
1,note_on,72,100,0
1,note_on,75,100,0
1,note_on,78,100,0
1,note_on,80,100,0
1,note_on,80,0,240
1,note_on,68,0,0
1,note_on,72,0,0
1,note_on,66,0,0
1,note_on,78,0,0
1,note_on,75,0,0
1,note_on,65,85,480
1,note_on,68,85,0
1,note_on,73,100,0
1,note_on,77,100,0
1,note_on,77,0,720
1,note_on,65,0,0
1,note_on,68,0,0
1,note_on,73,0,0
1,note_on,53,85,720
1,note_on,56,85,0
1,note_on,61,101,0
1,note_on,65,101,0
1,note_on,65,0,720
1,note_on,53,0,0
1,note_on,56,0,0
1,note_on,61,0,0
1,note_on,61,73,600
1,note_on,68,87,0
1,note_on,73,87,0
1,note_on,73,0,120
1,note_on,68,0,0
1,note_on,61,0,0
1,note_on,101,123,0
1,note_on,101,0,720
2,note_on,46,41,1
2,note_on,45,27,479
2,note_on,46,0,1
2,note_on,45,0,79
2,note_on,46,28,0
2,note_on,46,0,80
2,note_on,49,29,0
2,note_on,49,0,80
2,note_on,53,33,0
2,note_on,53,0,120
2,note_on,45,26,360
2,note_on,45,0,80
2,note_on,46,27,0
2,note_on,46,0,80
2,note_on,49,29,0
2,note_on,49,0,80
2,note_on,53,32,0
2,note_on,53,0,120
2,note_on,34,95,1320
2,note_on,46,95,0
2,note_on,46,0,49
2,note_on,34,0,0
2,note_on,58,72,600
2,note_on,60,72,0
2,note_on,63,85,0
2,note_on,66,85,0
2,note_on,70,85,0
2,note_on,70,0,1440
2,note_on,63,0,0
2,note_on,58,0,0
2,note_on,60,0,0
2,note_on,66,0,0
2,note_on,58,47,0
2,note_on,60,47,0
2,note_on,63,56,0
2,note_on,66,56,0
2,note_on,70,56,0
2,note_on,70,0,360
2,note_on,63,0,0
2,note_on,58,0,0
2,note_on,60,0,0
2,note_on,66,0,0
2,note_on,58,51,0
2,note_on,60,51,0
2,note_on,63,61,0
2,note_on,66,61,0
2,note_on,70,61,0
2,note_on,70,0,120
2,note_on,63,0,0
2,note_on,58,0,0
2,note_on,60,0,0
2,note_on,66,0,0
2,note_on,58,56,0
2,note_on,60,56,0
2,note_on,63,66,0
2,note_on,66,66,0
2,note_on,70,66,0
2,note_on,70,0,240
2,note_on,63,0,0
2,note_on,58,0,0
2,note_on,60,0,0
2,note_on,66,0,0
2,note_on,58,52,0
2,note_on,61,52,0
2,note_on,65,62,0
2,note_on,70,62,0
2,note_on,70,0,240
2,note_on,58,0,0
2,note_on,61,0,0
2,note_on,65,0,0
2,note_on,45,27,240
2,note_on,45,0,80
2,note_on,46,28,0
2,note_on,46,0,80
2,note_on,49,30,0
2,note_on,49,0,80
2,note_on,53,33,0
2,note_on,53,0,120
2,note_on,45,26,360
2,note_on,45,0,80
2,note_on,46,28,0
2,note_on,46,0,80
2,note_on,49,30,0
2,note_on,49,0,80
2,note_on,53,34,0
2,note_on,53,0,120
2,note_on,32,95,1320
2,note_on,44,95,0
2,note_on,44,0,35
2,note_on,32,0,0
2,note_on,56,72,540
2,note_on,65,76,30
2,note_on,73,89,30
2,note_on,73,0,1440
2,note_on,65,0,0
2,note_on,56,0,0
2,note_on,56,49,0
2,note_on,63,58,0
2,note_on,66,58,0
2,note_on,68,58,0
2,note_on,68,0,360
2,note_on,56,0,0
2,note_on,63,0,0
2,note_on,66,0,0
2,note_on,56,53,0
2,note_on,63,63,0
2,note_on,66,63,0
2,note_on,68,63,0
2,note_on,68,0,120
2,note_on,56,0,0
2,note_on,63,0,0
2,note_on,66,0,0
2,note_on,56,57,0
2,note_on,63,68,0
2,note_on,66,68,0
2,note_on,68,68,0
2,note_on,68,0,240
2,note_on,56,0,0
2,note_on,63,0,0
2,note_on,66,0,0
2,note_on,68,65,0
2,note_on,61,55,0
2,note_on,65,65,0
2,note_on,65,0,240
2,note_on,61,0,0
2,note_on,68,0,0
2,note_on,65,77,480
2,note_on,60,77,0
2,note_on,53,65,0
2,note_on,53,0,373
2,note_on,60,0,0
2,note_on,65,0,0
2,note_on,41,65,240
2,note_on,48,77,0
2,note_on,53,77,0
2,note_on,53,0,480
2,note_on,48,0,0
2,note_on,41,0,0
2,note_on,29,79,237
2,note_on,41,94,0
2,note_on,41,0,1680
2,note_on,29,0,0
2,note_on,30,82,0
2,note_on,42,97,0
2,note_on,42,0,180
2,note_on,30,0,0
2,note_on,45,27,480
2,note_on,45,0,80
2,note_on,46,28,0
2,note_on,46,0,80
2,note_on,49,29,0
2,note_on,49,0,80
2,note_on,53,33,0
2,note_on,53,0,120
2,note_on,45,27,360
2,note_on,45,0,80
2,note_on,46,28,0
2,note_on,46,0,80
2,note_on,49,29,0
2,note_on,49,0,80
2,note_on,53,33,0
2,note_on,53,0,120
2,note_on,46,95,1320
2,note_on,34,95,0
2,note_on,34,0,35
2,note_on,46,0,0
2,note_on,63,85,600
2,note_on,58,72,0
2,note_on,60,72,0
2,note_on,70,85,0
2,note_on,66,85,0
2,note_on,66,0,1080
2,note_on,60,0,0
2,note_on,63,0,0
2,note_on,58,0,0
2,note_on,70,0,0
2,note_on,58,47,0
2,note_on,60,47,0
2,note_on,63,56,0
2,note_on,66,56,0
2,note_on,70,56,0
2,note_on,70,0,120
2,note_on,63,0,0
2,note_on,58,0,0
2,note_on,60,0,0
2,note_on,66,0,0
2,note_on,58,47,0
2,note_on,60,47,0
2,note_on,63,56,0
2,note_on,66,56,0
2,note_on,70,56,0
2,note_on,70,0,240
2,note_on,63,0,0
2,note_on,58,0,0
2,note_on,60,0,0
2,note_on,66,0,0
2,note_on,63,56,0
2,note_on,58,47,0
2,note_on,60,47,0
2,note_on,66,56,0
2,note_on,70,56,0
2,note_on,70,0,360
2,note_on,60,0,0
2,note_on,63,0,0
2,note_on,58,0,0
2,note_on,66,0,0
2,note_on,60,51,0
2,note_on,63,61,0
2,note_on,58,51,0
2,note_on,66,61,0
2,note_on,70,61,0
2,note_on,70,0,120
2,note_on,58,0,0
2,note_on,60,0,0
2,note_on,63,0,0
2,note_on,66,0,0
2,note_on,63,66,0
2,note_on,66,66,0
2,note_on,58,56,0
2,note_on,60,56,0
2,note_on,70,66,0
2,note_on,70,0,240
2,note_on,58,0,0
2,note_on,63,0,0
2,note_on,66,0,0
2,note_on,60,0,0
2,note_on,65,62,0
2,note_on,58,52,0
2,note_on,61,52,0
2,note_on,70,62,0
2,note_on,70,0,228
2,note_on,65,0,0
2,note_on,58,0,0
2,note_on,61,0,0
2,note_on,45,27,240
2,note_on,45,0,80
2,note_on,46,29,0
2,note_on,46,0,80
2,note_on,49,30,0
2,note_on,49,0,80
2,note_on,53,34,0
2,note_on,53,0,120
2,note_on,45,24,360
2,note_on,45,0,80
2,note_on,46,26,0
2,note_on,46,0,80
2,note_on,49,27,0
2,note_on,49,0,80
2,note_on,53,32,0
2,note_on,53,0,120
2,note_on,24,95,1320
2,note_on,36,95,0
2,note_on,36,0,14
2,note_on,24,0,0
2,note_on,68,89,600
2,note_on,72,89,0
2,note_on,65,63,0
2,note_on,60,63,0
2,note_on,60,0,1440
2,note_on,68,0,0
2,note_on,72,0,0
2,note_on,65,0,0
2,note_on,60,41,0
2,note_on,70,58,0
2,note_on,64,41,0
2,note_on,72,58,0
2,note_on,72,0,360
2,note_on,60,0,0
2,note_on,70,0,0
2,note_on,64,0,0
2,note_on,64,45,0
2,note_on,60,45,0
2,note_on,72,63,0
2,note_on,70,63,0
2,note_on,70,0,120
2,note_on,64,0,0
2,note_on,60,0,0
2,note_on,72,0,0
2,note_on,70,68,0
2,note_on,60,48,0
2,note_on,64,48,0
2,note_on,72,68,0
2,note_on,72,0,240
2,note_on,70,0,0
2,note_on,60,0,0
2,note_on,64,0,0
2,note_on,72,65,0
2,note_on,65,46,0
2,note_on,68,65,0
2,note_on,68,0,240
2,note_on,65,0,0
2,note_on,72,0,0
2,note_on,53,65,480
2,note_on,65,77,0
2,note_on,60,77,0
2,note_on,60,0,480
2,note_on,65,0,0
2,note_on,53,0,0
2,note_on,53,77,240
2,note_on,48,77,0
2,note_on,41,65,0
2,note_on,41,0,480
2,note_on,48,0,0
2,note_on,53,0,0
2,note_on,28,79,240
2,note_on,40,94,0
2,note_on,40,0,1680
2,note_on,28,0,0
2,note_on,29,82,0
2,note_on,41,97,0
2,note_on,41,0,180
2,note_on,29,0,0
2,note_on,25,71,1740
2,note_on,37,84,0
2,note_on,37,0,56
2,note_on,25,0,0
2,note_on,44,45,360
2,note_on,56,45,0
2,note_on,56,0,240
2,note_on,44,0,0
2,note_on,61,53,0
2,note_on,53,53,0
2,note_on,53,0,240
2,note_on,61,0,0
2,note_on,44,42,240
2,note_on,56,42,0
2,note_on,56,0,240
2,note_on,44,0,0
2,note_on,53,47,0
2,note_on,61,47,0
2,note_on,61,0,240
2,note_on,53,0,0
2,note_on,32,44,0
2,note_on,44,52,0
2,note_on,44,0,120
2,note_on,32,0,0
2,note_on,66,38,600
2,note_on,55,38,0
2,note_on,60,38,0
2,note_on,60,0,238
2,note_on,55,0,0
2,note_on,66,0,0
2,note_on,56,35,0
2,note_on,60,35,0
2,note_on,66,35,0
2,note_on,66,0,240
2,note_on,60,0,0
2,note_on,56,0,0
2,note_on,66,31,0
2,note_on,56,31,0
2,note_on,60,31,0
2,note_on,60,0,120
2,note_on,56,0,0
2,note_on,66,0,0
2,note_on,57,35,720
2,note_on,60,35,0
2,note_on,66,35,0
2,note_on,66,0,235
2,note_on,60,0,0
2,note_on,57,0,0
2,note_on,66,32,0
2,note_on,60,32,0
2,note_on,56,32,0
2,note_on,56,0,240
2,note_on,60,0,0
2,note_on,66,0,0
2,note_on,66,28,0
2,note_on,60,28,0
2,note_on,56,28,0
2,note_on,56,0,120
2,note_on,60,0,0
2,note_on,66,0,0
2,note_on,25,68,120
2,note_on,37,82,0
2,note_on,37,0,49
2,note_on,25,0,0
2,note_on,44,45,360
2,note_on,56,45,0
2,note_on,56,0,240
2,note_on,44,0,0
2,note_on,61,53,0
2,note_on,53,53,0
2,note_on,53,0,240
2,note_on,61,0,0
2,note_on,44,42,240
2,note_on,56,42,0
2,note_on,56,0,240
2,note_on,44,0,0
2,note_on,53,47,0
2,note_on,61,47,0
2,note_on,61,0,240
2,note_on,53,0,0
2,note_on,44,20,720
2,note_on,51,20,0
2,note_on,54,20,0
2,note_on,54,0,720
2,note_on,51,0,0
2,note_on,44,0,0
2,note_on,60,32,0
2,note_on,60,0,120
2,note_on,61,32,0
2,note_on,61,0,120
2,note_on,63,32,0
2,note_on,63,0,120
2,note_on,65,32,0
2,note_on,65,0,120
2,note_on,66,32,0
2,note_on,66,0,120
2,note_on,68,32,0
2,note_on,68,0,120
2,note_on,69,32,0
2,note_on,69,0,120
2,note_on,57,30,600
2,note_on,57,0,120
2,note_on,56,29,0
2,note_on,56,0,120
2,note_on,55,28,0
2,note_on,55,0,120
2,note_on,54,27,0
2,note_on,54,0,120
2,note_on,53,26,0
2,note_on,53,0,120
2,note_on,51,25,0
2,note_on,51,0,120
2,note_on,49,30,0
2,note_on,49,0,77
2,note_on,56,28,0
2,note_on,56,0,120
2,note_on,61,30,0
2,note_on,61,0,120
2,note_on,65,34,0
2,note_on,65,0,120
2,note_on,61,31,0
2,note_on,61,0,120
2,note_on,56,30,0
2,note_on,56,0,120
2,note_on,49,28,0
2,note_on,49,0,68
2,note_on,59,28,0
2,note_on,59,0,120
2,note_on,61,30,0
2,note_on,61,0,120
2,note_on,65,31,0
2,note_on,65,0,120
2,note_on,61,30,0
2,note_on,61,0,120
2,note_on,59,29,0
2,note_on,59,0,120
2,note_on,54,28,0
2,note_on,54,0,57
2,note_on,59,28,0
2,note_on,59,0,120
2,note_on,61,31,0
2,note_on,61,0,120
2,note_on,66,34,0
2,note_on,66,0,120
2,note_on,61,31,0
2,note_on,61,0,120
2,note_on,59,29,0
2,note_on,59,0,120
2,note_on,49,30,0
2,note_on,49,0,111
2,note_on,58,28,0
2,note_on,58,0,106
2,note_on,61,30,0
2,note_on,61,0,120
2,note_on,66,33,0
2,note_on,66,0,120
2,note_on,61,31,0
2,note_on,61,0,120
2,note_on,58,30,0
2,note_on,58,0,120
2,note_on,56,30,0
2,note_on,56,0,34
2,note_on,59,28,0
2,note_on,59,0,120
2,note_on,61,30,0
2,note_on,61,0,120
2,note_on,68,33,0
2,note_on,68,0,120
2,note_on,61,31,0
2,note_on,61,0,120
2,note_on,59,29,0
2,note_on,59,0,120
2,note_on,49,30,0
2,note_on,49,0,34
2,note_on,59,28,0
2,note_on,59,0,120
2,note_on,61,30,0
2,note_on,61,0,120
2,note_on,65,31,0
2,note_on,65,0,120
2,note_on,61,30,0
2,note_on,61,0,120
2,note_on,59,29,0
2,note_on,59,0,120
2,note_on,54,32,0
2,note_on,54,0,21
2,note_on,58,30,0
2,note_on,58,0,120
2,note_on,61,34,0
2,note_on,61,0,120
2,note_on,66,35,0
2,note_on,66,0,120
2,note_on,61,34,0
2,note_on,61,0,120
2,note_on,58,33,0
2,note_on,58,0,120
2,note_on,52,33,0
2,note_on,52,0,60
2,note_on,58,36,0
2,note_on,58,0,120
2,note_on,61,39,0
2,note_on,61,0,120
2,note_on,68,37,0
2,note_on,68,0,120
2,note_on,61,34,0
2,note_on,61,0,120
2,note_on,58,31,0
2,note_on,58,0,120
2,note_on,51,36,0
2,note_on,51,0,17
2,note_on,58,38,0
2,note_on,58,0,120
2,note_on,61,41,0
2,note_on,61,0,120
2,note_on,67,45,0
2,note_on,67,0,120
2,note_on,61,42,0
2,note_on,61,0,120
2,note_on,58,39,0
2,note_on,58,0,120
2,note_on,55,39,0
2,note_on,55,0,54
2,note_on,61,38,0
2,note_on,61,0,120
2,note_on,63,41,0
2,note_on,63,0,120
2,note_on,70,46,0
2,note_on,70,0,120
2,note_on,63,42,0
2,note_on,63,0,120
2,note_on,61,39,0
2,note_on,61,0,120
2,note_on,56,38,0
2,note_on,56,0,109
2,note_on,61,38,0
2,note_on,61,0,106
2,note_on,63,42,0
2,note_on,63,0,120
2,note_on,68,45,0
2,note_on,68,0,120
2,note_on,63,41,0
2,note_on,63,0,120
2,note_on,61,38,0
2,note_on,61,0,120
2,note_on,51,38,0
2,note_on,51,0,108
2,note_on,60,37,0
2,note_on,60,0,120
2,note_on,63,40,0
2,note_on,63,0,120
2,note_on,68,44,0
2,note_on,68,0,120
2,note_on,63,41,0
2,note_on,63,0,120
2,note_on,60,39,0
2,note_on,60,0,120
2,note_on,58,39,0
2,note_on,58,0,111
2,note_on,61,37,0
2,note_on,61,0,120
2,note_on,63,40,0
2,note_on,63,0,120
2,note_on,70,42,0
2,note_on,70,0,120
2,note_on,63,41,0
2,note_on,63,0,120
2,note_on,61,39,0
2,note_on,61,0,120
2,note_on,51,38,0
2,note_on,51,0,11
2,note_on,61,36,0
2,note_on,61,0,120
2,note_on,63,38,0
2,note_on,63,0,120
2,note_on,67,40,0
2,note_on,67,0,120
2,note_on,63,40,0
2,note_on,63,0,120
2,note_on,61,37,0
2,note_on,61,0,120
2,note_on,56,38,0
2,note_on,56,0,110
2,note_on,60,40,0
2,note_on,60,0,113
2,note_on,63,44,0
2,note_on,63,0,120
2,note_on,68,45,0
2,note_on,68,0,120
2,note_on,63,44,0
2,note_on,63,0,120
2,note_on,60,42,0
2,note_on,60,0,120
2,note_on,55,40,0
2,note_on,56,41,111
2,note_on,56,0,106
2,note_on,60,45,0
2,note_on,60,0,120
2,note_on,63,49,0
2,note_on,63,0,120
2,note_on,60,47,0
2,note_on,60,0,120
2,note_on,56,41,0
2,note_on,56,0,120
2,note_on,55,0,0
2,note_on,54,36,0
2,note_on,56,36,0
2,note_on,56,0,120
2,note_on,60,39,0
2,note_on,60,0,120
2,note_on,63,42,0
2,note_on,63,0,120
2,note_on,60,41,0
2,note_on,60,0,120
2,note_on,56,38,0
2,note_on,56,0,120
2,note_on,54,0,0
2,note_on,54,38,0
2,note_on,56,41,120
2,note_on,56,0,120
2,note_on,60,41,0
2,note_on,60,0,120
2,note_on,63,41,0
2,note_on,63,0,120
2,note_on,60,38,0
2,note_on,60,0,120
2,note_on,56,35,0
2,note_on,56,0,120
2,note_on,54,0,0
2,note_on,53,33,0
2,note_on,56,33,7
2,note_on,56,0,120
2,note_on,61,36,0
2,note_on,61,0,120
2,note_on,65,39,0
2,note_on,65,0,120
2,note_on,61,37,0
2,note_on,61,0,120
2,note_on,56,35,0
2,note_on,56,0,120
2,note_on,53,0,0
2,note_on,53,35,0
2,note_on,53,0,109
2,note_on,56,38,0
2,note_on,56,0,113
2,note_on,61,41,0
2,note_on,61,0,120
2,note_on,68,42,0
2,note_on,68,0,120
2,note_on,61,40,0
2,note_on,61,0,120
2,note_on,56,37,0
2,note_on,56,0,120
2,note_on,51,35,0
2,note_on,51,0,28
2,note_on,56,38,0
2,note_on,56,0,120
2,note_on,60,41,0
2,note_on,60,0,120
2,note_on,66,41,0
2,note_on,66,0,120
2,note_on,60,39,0
2,note_on,60,0,120
2,note_on,56,36,0
2,note_on,56,0,120
2,note_on,51,35,0
2,note_on,51,0,120
2,note_on,56,34,0
2,note_on,56,0,92
2,note_on,60,37,0
2,note_on,60,0,120
2,note_on,66,39,0
2,note_on,66,0,120
2,note_on,60,36,0
2,note_on,60,0,120
2,note_on,56,31,0
2,note_on,56,0,120
2,note_on,50,32,0
2,note_on,50,0,40
2,note_on,56,31,0
2,note_on,56,0,120
2,note_on,59,35,0
2,note_on,59,0,120
2,note_on,65,37,0
2,note_on,65,0,120
2,note_on,59,36,0
2,note_on,59,0,120
2,note_on,56,34,0
2,note_on,56,0,120
2,note_on,50,33,0
2,note_on,50,0,34
2,note_on,56,30,0
2,note_on,56,0,120
2,note_on,58,35,0
2,note_on,58,0,120
2,note_on,65,37,0
2,note_on,65,0,120
2,note_on,58,36,0
2,note_on,58,0,120
2,note_on,56,34,0
2,note_on,56,0,120
2,note_on,51,35,0
2,note_on,51,0,28
2,note_on,54,35,0
2,note_on,54,0,120
2,note_on,58,38,0
2,note_on,58,0,120
2,note_on,63,39,0
2,note_on,63,0,120
2,note_on,58,38,0
2,note_on,58,0,120
2,note_on,54,36,0
2,note_on,54,0,120
2,note_on,42,32,0
2,note_on,42,0,14
2,note_on,54,31,0
2,note_on,54,0,120
2,note_on,58,36,0
2,note_on,58,0,120
2,note_on,63,38,0
2,note_on,63,0,120
2,note_on,58,36,0
2,note_on,58,0,120
2,note_on,54,34,0
2,note_on,54,0,120
2,note_on,44,34,0
2,note_on,44,0,7
2,note_on,53,36,0
2,note_on,53,0,120
2,note_on,56,37,0
2,note_on,56,0,120
2,note_on,61,39,0
2,note_on,61,0,120
2,note_on,56,37,0
2,note_on,56,0,120
2,note_on,53,35,0
2,note_on,53,0,120
2,note_on,44,36,0
2,note_on,44,0,120
2,note_on,53,34,0
2,note_on,53,0,120
2,note_on,56,35,0
2,note_on,56,0,120
2,note_on,61,38,0
2,note_on,61,0,120
2,note_on,56,37,0
2,note_on,56,0,120
2,note_on,53,36,0
2,note_on,53,0,120
2,note_on,44,36,0
2,note_on,44,0,28
2,note_on,54,34,0
2,note_on,54,0,120
2,note_on,56,36,0
2,note_on,56,0,120
2,note_on,60,36,0
2,note_on,60,0,120
2,note_on,56,35,0
2,note_on,56,0,120
2,note_on,54,34,0
2,note_on,54,0,120
2,note_on,44,34,0
2,note_on,44,0,120
2,note_on,54,31,0
2,note_on,54,0,120
2,note_on,56,35,0
2,note_on,56,0,120
2,note_on,60,37,0
2,note_on,60,0,120
2,note_on,56,35,0
2,note_on,56,0,120
2,note_on,54,33,0
2,note_on,54,0,120
2,note_on,49,34,0
2,note_on,49,0,21
2,note_on,56,33,0
2,note_on,56,0,120
2,note_on,61,36,0
2,note_on,61,0,120
2,note_on,65,37,0
2,note_on,65,0,120
2,note_on,61,36,0
2,note_on,61,0,120
2,note_on,58,35,0
2,note_on,58,0,120
2,note_on,56,37,0
2,note_on,61,36,111
2,note_on,61,0,106
2,note_on,56,0,0
2,note_on,65,39,0
2,note_on,65,0,120
2,note_on,68,40,0
2,note_on,68,0,120
2,note_on,65,39,0
2,note_on,65,0,120
2,note_on,61,38,0
2,note_on,61,0,120
2,note_on,54,42,0
2,note_on,56,42,49
2,note_on,56,0,120
2,note_on,60,42,0
2,note_on,60,0,120
2,note_on,63,42,0
2,note_on,63,0,120
2,note_on,60,42,0
2,note_on,60,0,120
2,note_on,56,42,0
2,note_on,56,0,120
2,note_on,54,0,0
2,note_on,54,51,0
2,note_on,56,45,120
2,note_on,56,0,120
2,note_on,60,45,0
2,note_on,60,0,120
2,note_on,63,45,0
2,note_on,63,0,120
2,note_on,60,41,0
2,note_on,60,0,120
2,note_on,56,38,0
2,note_on,56,0,120
2,note_on,54,0,0
2,note_on,53,37,0
2,note_on,56,36,110
2,note_on,56,0,113
2,note_on,61,39,0
2,note_on,61,0,120
2,note_on,65,42,0
2,note_on,65,0,120
2,note_on,61,40,0
2,note_on,61,0,120
2,note_on,56,38,0
2,note_on,56,0,120
2,note_on,53,0,0
2,note_on,53,39,0
2,note_on,53,0,120
2,note_on,56,41,0
2,note_on,56,0,120
2,note_on,61,45,0
2,note_on,61,0,120
2,note_on,68,46,0
2,note_on,68,0,120
2,note_on,61,44,0
2,note_on,61,0,120
2,note_on,56,40,0
2,note_on,56,0,120
2,note_on,51,39,0
2,note_on,51,0,21
2,note_on,56,41,0
2,note_on,56,0,120
2,note_on,60,45,0
2,note_on,60,0,120
2,note_on,66,45,0
2,note_on,66,0,120
2,note_on,60,42,0
2,note_on,60,0,120
2,note_on,56,39,0
2,note_on,56,0,120
2,note_on,51,37,0
2,note_on,51,0,120
2,note_on,56,37,0
2,note_on,56,0,120
2,note_on,60,40,0
2,note_on,60,0,120
2,note_on,66,42,0
2,note_on,66,0,120
2,note_on,60,39,0
2,note_on,60,0,120
2,note_on,56,34,0
2,note_on,56,0,120
2,note_on,50,39,0
2,note_on,50,0,57
2,note_on,56,37,0
2,note_on,56,0,120
2,note_on,59,41,0
2,note_on,59,0,120
2,note_on,65,44,0
2,note_on,65,0,120
2,note_on,59,42,0
2,note_on,59,0,120
2,note_on,56,40,0
2,note_on,56,0,120
2,note_on,50,35,0
2,note_on,50,0,45
2,note_on,56,36,0
2,note_on,56,0,120
2,note_on,58,41,0
2,note_on,58,0,120
2,note_on,65,44,0
2,note_on,65,0,120
2,note_on,58,42,0
2,note_on,58,0,120
2,note_on,56,40,0
2,note_on,56,0,120
2,note_on,51,35,0
2,note_on,51,0,113
2,note_on,54,38,0
2,note_on,54,0,106
2,note_on,58,41,0
2,note_on,58,0,120
2,note_on,63,42,0
2,note_on,63,0,120
2,note_on,58,41,0
2,note_on,58,0,120
2,note_on,54,39,0
2,note_on,54,0,120
2,note_on,42,34,0
2,note_on,42,0,14
2,note_on,54,34,0
2,note_on,54,0,120
2,note_on,58,39,0
2,note_on,58,0,120
2,note_on,63,41,0
2,note_on,63,0,120
2,note_on,58,39,0
2,note_on,58,0,120
2,note_on,54,37,0
2,note_on,54,0,120
2,note_on,44,36,0
2,note_on,44,0,35
2,note_on,53,39,0
2,note_on,53,0,120
2,note_on,56,40,0
2,note_on,56,0,120
2,note_on,61,42,0
2,note_on,61,0,120
2,note_on,56,40,0
2,note_on,56,0,120
2,note_on,53,38,0
2,note_on,53,0,120
2,note_on,44,35,0
2,note_on,44,0,120
2,note_on,53,35,0
2,note_on,53,0,120
2,note_on,56,37,0
2,note_on,56,0,120
2,note_on,61,39,0
2,note_on,61,0,120
2,note_on,56,37,0
2,note_on,56,0,120
2,note_on,53,35,0
2,note_on,53,0,120
2,note_on,44,35,0
2,note_on,44,0,40
2,note_on,53,37,0
2,note_on,53,0,120
2,note_on,56,39,0
2,note_on,56,0,120
2,note_on,62,41,0
2,note_on,62,0,120
2,note_on,56,39,0
2,note_on,56,0,120
2,note_on,53,36,0
2,note_on,53,0,120
2,note_on,44,37,0
2,note_on,44,0,45
2,note_on,53,39,0
2,note_on,53,0,120
2,note_on,56,43,0
2,note_on,56,0,120
2,note_on,62,48,0
2,note_on,62,0,120
2,note_on,56,45,0
2,note_on,56,0,120
2,note_on,53,41,0
2,note_on,53,0,120
2,note_on,44,39,0
2,note_on,44,0,120
2,note_on,53,40,0
2,note_on,53,0,120
2,note_on,56,43,0
2,note_on,56,0,120
2,note_on,62,45,0
2,note_on,62,0,120
2,note_on,56,42,0
2,note_on,56,0,120
2,note_on,53,36,0
2,note_on,53,0,120
2,note_on,44,39,0
2,note_on,44,0,63
2,note_on,53,40,0
2,note_on,53,0,120
2,note_on,56,43,0
2,note_on,56,0,120
2,note_on,62,47,0
2,note_on,62,0,120
2,note_on,56,44,0
2,note_on,56,0,120
2,note_on,53,40,0
2,note_on,53,0,120
2,note_on,44,41,0
2,note_on,44,0,42
2,note_on,51,43,0
2,note_on,51,0,120
2,note_on,54,47,0
2,note_on,54,0,120
2,note_on,63,50,0
2,note_on,63,0,120
2,note_on,54,46,0
2,note_on,54,0,120
2,note_on,51,43,0
2,note_on,51,0,120
2,note_on,44,67,0
2,note_on,44,0,120
2,note_on,51,50,0
2,note_on,51,0,120
2,note_on,54,55,0
2,note_on,54,0,120
2,note_on,63,58,0
2,note_on,63,0,120
2,note_on,54,55,0
2,note_on,54,0,120
2,note_on,51,52,0
2,note_on,51,0,120
2,note_on,44,62,0
2,note_on,44,0,21
2,note_on,51,50,0
2,note_on,51,0,120
2,note_on,54,55,0
2,note_on,54,0,120
2,note_on,60,58,0
2,note_on,60,0,120
2,note_on,54,55,0
2,note_on,54,0,120
2,note_on,51,51,0
2,note_on,51,0,120
2,note_on,44,67,0
2,note_on,44,0,111
2,note_on,51,57,0
2,note_on,51,0,120
2,note_on,54,61,0
2,note_on,54,0,120
2,note_on,60,65,0
2,note_on,60,0,120
2,note_on,54,62,0
2,note_on,54,0,120
2,note_on,51,59,0
2,note_on,51,0,120
2,note_on,37,71,0
2,note_on,37,0,13
2,note_on,44,70,360
2,note_on,44,0,120
2,note_on,53,75,0
2,note_on,53,0,120
2,note_on,61,83,0
2,note_on,61,0,240
2,note_on,32,73,480
2,note_on,32,0,21
2,note_on,44,68,360
2,note_on,44,0,120
2,note_on,51,74,0
2,note_on,51,0,120
2,note_on,60,84,0
2,note_on,60,0,240
2,note_on,37,78,480
2,note_on,37,0,14
2,note_on,44,70,360
2,note_on,44,0,120
2,note_on,53,75,0
2,note_on,53,0,120
2,note_on,61,83,0
2,note_on,61,0,240
2,note_on,32,78,480
2,note_on,32,0,12
2,note_on,44,68,360
2,note_on,44,0,120
2,note_on,51,74,0
2,note_on,51,0,120
2,note_on,60,84,0
2,note_on,60,0,240
2,note_on,25,82,480
2,note_on,25,0,84
2,note_on,44,68,240
2,note_on,44,0,120
2,note_on,53,74,0
2,note_on,53,0,120
2,note_on,61,84,0
2,note_on,61,0,240
2,note_on,25,86,1920
2,note_on,37,102,0
2,note_on,37,0,120
2,note_on,25,0,0
2,note_on,61,86,600
2,note_on,73,102,0
2,note_on,73,0,720
2,note_on,61,0,0
2,note_on,45,27,480
2,note_on,45,0,80
2,note_on,46,28,0
2,note_on,46,0,80
2,note_on,49,29,0
2,note_on,49,0,80
2,note_on,53,34,0
2,note_on,53,0,120
2,note_on,45,26,360
2,note_on,45,0,80
2,note_on,46,27,0
2,note_on,46,0,80
2,note_on,49,29,0
2,note_on,49,0,80
2,note_on,53,34,0
2,note_on,53,0,120
2,note_on,34,95,1320
2,note_on,46,95,0
2,note_on,46,0,49
2,note_on,34,0,0
2,note_on,58,72,600
2,note_on,60,72,0
2,note_on,63,85,0
2,note_on,66,85,0
2,note_on,70,85,0
2,note_on,70,0,1440
2,note_on,63,0,0
2,note_on,58,0,0
2,note_on,60,0,0
2,note_on,66,0,0
2,note_on,58,47,0
2,note_on,60,47,0
2,note_on,63,56,0
2,note_on,66,56,0
2,note_on,70,56,0
2,note_on,70,0,360
2,note_on,63,0,0
2,note_on,58,0,0
2,note_on,60,0,0
2,note_on,66,0,0
2,note_on,58,51,0
2,note_on,60,51,0
2,note_on,63,61,0
2,note_on,66,61,0
2,note_on,70,61,0
2,note_on,70,0,120
2,note_on,63,0,0
2,note_on,58,0,0
2,note_on,60,0,0
2,note_on,66,0,0
2,note_on,58,56,0
2,note_on,60,56,0
2,note_on,63,66,0
2,note_on,66,66,0
2,note_on,70,66,0
2,note_on,70,0,240
2,note_on,63,0,0
2,note_on,58,0,0
2,note_on,60,0,0
2,note_on,66,0,0
2,note_on,58,52,0
2,note_on,61,52,0
2,note_on,65,62,0
2,note_on,70,62,0
2,note_on,70,0,232
2,note_on,58,0,0
2,note_on,61,0,0
2,note_on,65,0,0
2,note_on,45,27,240
2,note_on,45,0,80
2,note_on,46,28,0
2,note_on,46,0,80
2,note_on,49,30,0
2,note_on,49,0,80
2,note_on,53,35,0
2,note_on,53,0,120
2,note_on,45,26,360
2,note_on,45,0,80
2,note_on,46,28,0
2,note_on,46,0,80
2,note_on,49,30,0
2,note_on,49,0,80
2,note_on,53,34,0
2,note_on,53,0,120
2,note_on,32,95,1320
2,note_on,44,95,0
2,note_on,44,0,49
2,note_on,32,0,0
2,note_on,56,75,540
2,note_on,65,89,30
2,note_on,73,89,30
2,note_on,73,0,1440
2,note_on,65,0,0
2,note_on,56,0,0
2,note_on,56,44,0
2,note_on,63,52,0
2,note_on,66,52,0
2,note_on,68,52,0
2,note_on,68,0,96
2,note_on,56,0,0
2,note_on,63,0,0
2,note_on,66,0,0
2,note_on,66,52,0
2,note_on,63,52,0
2,note_on,56,44,0
2,note_on,68,52,0
2,note_on,68,0,144
2,note_on,66,0,0
2,note_on,63,0,0
2,note_on,56,0,0
2,note_on,68,54,0
2,note_on,66,54,0
2,note_on,63,54,0
2,note_on,56,45,0
2,note_on,56,0,144
2,note_on,68,0,0
2,note_on,66,0,0
2,note_on,63,0,0
2,note_on,68,61,0
2,note_on,66,61,0
2,note_on,63,61,0
2,note_on,56,51,0
2,note_on,56,0,144
2,note_on,68,0,0
2,note_on,66,0,0
2,note_on,63,0,0
2,note_on,68,58,0
2,note_on,66,58,0
2,note_on,63,58,0
2,note_on,56,49,0
2,note_on,56,0,144
2,note_on,68,0,0
2,note_on,66,0,0
2,note_on,63,0,0
2,note_on,68,58,0
2,note_on,61,49,0
2,note_on,65,58,0
2,note_on,65,0,225
2,note_on,61,0,0
2,note_on,68,0,0
2,note_on,65,77,0
2,note_on,60,77,0
2,note_on,53,77,0
2,note_on,53,0,480
2,note_on,60,0,0
2,note_on,65,0,0
2,note_on,41,77,240
2,note_on,48,77,0
2,note_on,53,77,0
2,note_on,53,0,480
2,note_on,48,0,0
2,note_on,41,0,0
2,note_on,29,79,240
2,note_on,41,94,0
2,note_on,41,0,1680
2,note_on,29,0,0
2,note_on,30,82,0
2,note_on,42,97,0
2,note_on,42,0,180
2,note_on,30,0,0
2,note_on,45,27,480
2,note_on,45,0,80
2,note_on,46,28,0
2,note_on,46,0,80
2,note_on,49,29,0
2,note_on,49,0,80
2,note_on,53,34,0
2,note_on,53,0,120
2,note_on,45,27,360
2,note_on,45,0,80
2,note_on,46,28,0
2,note_on,46,0,80
2,note_on,49,29,0
2,note_on,49,0,80
2,note_on,53,34,0
2,note_on,53,0,120
2,note_on,46,95,1320
2,note_on,34,95,0
2,note_on,34,0,56
2,note_on,46,0,0
2,note_on,63,85,600
2,note_on,58,72,0
2,note_on,60,72,0
2,note_on,70,85,0
2,note_on,66,85,0
2,note_on,66,0,1080
2,note_on,60,0,0
2,note_on,63,0,0
2,note_on,58,0,0
2,note_on,70,0,0
2,note_on,58,47,0
2,note_on,60,47,0
2,note_on,63,56,0
2,note_on,66,56,0
2,note_on,70,56,0
2,note_on,70,0,120
2,note_on,63,0,0
2,note_on,58,0,0
2,note_on,60,0,0
2,note_on,66,0,0
2,note_on,58,47,0
2,note_on,60,47,0
2,note_on,63,56,0
2,note_on,66,56,0
2,note_on,70,56,0
2,note_on,70,0,240
2,note_on,63,0,0
2,note_on,58,0,0
2,note_on,60,0,0
2,note_on,66,0,0
2,note_on,63,56,0
2,note_on,58,47,0
2,note_on,60,47,0
2,note_on,66,56,0
2,note_on,70,56,0
2,note_on,70,0,360
2,note_on,60,0,0
2,note_on,63,0,0
2,note_on,58,0,0
2,note_on,66,0,0
2,note_on,60,51,0
2,note_on,63,61,0
2,note_on,58,51,0
2,note_on,66,61,0
2,note_on,70,61,0
2,note_on,70,0,120
2,note_on,58,0,0
2,note_on,60,0,0
2,note_on,63,0,0
2,note_on,66,0,0
2,note_on,63,66,0
2,note_on,66,66,0
2,note_on,58,56,0
2,note_on,60,56,0
2,note_on,70,66,0
2,note_on,70,0,240
2,note_on,58,0,0
2,note_on,63,0,0
2,note_on,66,0,0
2,note_on,60,0,0
2,note_on,65,62,0
2,note_on,58,52,0
2,note_on,61,52,0
2,note_on,70,62,0
2,note_on,70,0,229
2,note_on,65,0,0
2,note_on,58,0,0
2,note_on,61,0,0
2,note_on,45,27,240
2,note_on,45,0,80
2,note_on,46,29,0
2,note_on,46,0,80
2,note_on,49,30,0
2,note_on,49,0,80
2,note_on,53,35,0
2,note_on,53,0,120
2,note_on,45,24,360
2,note_on,45,0,80
2,note_on,46,26,0
2,note_on,46,0,80
2,note_on,49,27,0
2,note_on,49,0,80
2,note_on,53,34,0
2,note_on,53,0,120
2,note_on,24,95,1320
2,note_on,36,95,0
2,note_on,36,0,35
2,note_on,24,0,0
2,note_on,68,89,600
2,note_on,72,89,0
2,note_on,65,89,0
2,note_on,60,75,0
2,note_on,60,0,1440
2,note_on,68,0,0
2,note_on,72,0,0
2,note_on,65,0,0
2,note_on,60,58,0
2,note_on,70,69,0
2,note_on,64,69,0
2,note_on,72,69,0
2,note_on,72,0,126
2,note_on,60,0,0
2,note_on,70,0,0
2,note_on,64,0,0
2,note_on,60,53,0
2,note_on,64,63,0
2,note_on,70,63,0
2,note_on,72,63,0
2,note_on,72,0,180
2,note_on,60,0,0
2,note_on,64,0,0
2,note_on,70,0,0
2,note_on,64,61,0
2,note_on,60,51,0
2,note_on,72,61,0
2,note_on,70,61,0
2,note_on,70,0,180
2,note_on,64,0,0
2,note_on,60,0,0
2,note_on,72,0,0
2,note_on,72,62,0
2,note_on,64,62,0
2,note_on,60,52,0
2,note_on,70,62,0
2,note_on,70,0,180
2,note_on,72,0,0
2,note_on,64,0,0
2,note_on,60,0,0
2,note_on,72,68,0
2,note_on,65,68,0
2,note_on,68,68,0
2,note_on,68,0,227
2,note_on,65,0,0
2,note_on,72,0,0
2,note_on,53,65,480
2,note_on,65,77,0
2,note_on,60,77,0
2,note_on,60,0,480
2,note_on,65,0,0
2,note_on,53,0,0
2,note_on,53,77,240
2,note_on,48,77,0
2,note_on,41,65,0
2,note_on,41,0,480
2,note_on,48,0,0
2,note_on,53,0,0
2,note_on,28,79,240
2,note_on,40,94,0
2,note_on,40,0,1440
2,note_on,28,0,0
2,note_on,29,94,0
2,note_on,29,0,720
2,note_on,26,45,0
2,note_on,27,45,80
2,note_on,26,0,10
2,note_on,29,45,70
2,note_on,27,0,10
2,note_on,27,46,70
2,note_on,29,0,10
2,note_on,29,47,70
2,note_on,27,0,10
2,note_on,27,49,70
2,note_on,29,0,10
2,note_on,29,50,70
2,note_on,27,0,10
2,note_on,27,51,70
2,note_on,29,0,10
2,note_on,29,51,70
2,note_on,27,0,10
2,note_on,27,52,70
2,note_on,29,0,10
2,note_on,29,53,50
2,note_on,27,0,10
2,note_on,27,53,50
2,note_on,29,0,10
2,note_on,29,54,50
2,note_on,27,0,10
2,note_on,29,0,50
2,note_on,27,55,0
2,note_on,27,0,60
2,note_on,29,55,0
2,note_on,29,0,60
2,note_on,27,56,0
2,note_on,27,0,60
2,note_on,29,56,0
2,note_on,29,0,60
2,note_on,27,59,0
2,note_on,26,73,80
2,note_on,27,0,10
2,note_on,27,73,70
2,note_on,26,0,10
2,note_on,25,74,0
2,note_on,37,88,0
2,note_on,27,0,10
2,note_on,37,0,110
2,note_on,25,0,0
2,note_on,44,45,353
2,note_on,56,45,0
2,note_on,56,0,240
2,note_on,44,0,0
2,note_on,61,53,0
2,note_on,53,53,0
2,note_on,53,0,240
2,note_on,61,0,0
2,note_on,44,42,240
2,note_on,56,42,0
2,note_on,56,0,240
2,note_on,44,0,0
2,note_on,53,47,0
2,note_on,61,47,0
2,note_on,61,0,240
2,note_on,53,0,0
2,note_on,32,52,0
2,note_on,44,52,0
2,note_on,44,0,120
2,note_on,32,0,0
2,note_on,66,38,600
2,note_on,55,38,0
2,note_on,60,38,0
2,note_on,60,0,231
2,note_on,55,0,0
2,note_on,66,0,0
2,note_on,56,35,0
2,note_on,60,35,0
2,note_on,66,35,0
2,note_on,66,0,240
2,note_on,60,0,0
2,note_on,56,0,0
2,note_on,66,31,0
2,note_on,56,31,0
2,note_on,60,31,0
2,note_on,60,0,120
2,note_on,56,0,0
2,note_on,66,0,0
2,note_on,57,35,840
2,note_on,60,35,0
2,note_on,66,35,0
2,note_on,66,0,240
2,note_on,60,0,0
2,note_on,57,0,0
2,note_on,66,32,0
2,note_on,60,32,0
2,note_on,56,32,0
2,note_on,56,0,240
2,note_on,60,0,0
2,note_on,66,0,0
2,note_on,66,28,0
2,note_on,60,28,0
2,note_on,56,28,0
2,note_on,56,0,120
2,note_on,60,0,0
2,note_on,66,0,0
2,note_on,25,74,120
2,note_on,37,88,0
2,note_on,37,0,63
2,note_on,25,0,0
2,note_on,44,45,360
2,note_on,56,45,0
2,note_on,56,0,240
2,note_on,44,0,0
2,note_on,61,53,0
2,note_on,53,53,0
2,note_on,53,0,240
2,note_on,61,0,0
2,note_on,44,42,240
2,note_on,56,42,0
2,note_on,56,0,240
2,note_on,44,0,0
2,note_on,53,47,0
2,note_on,61,47,0
2,note_on,61,0,240
2,note_on,53,0,0
2,note_on,44,25,709
2,note_on,51,25,0
2,note_on,54,25,0
2,note_on,54,0,720
2,note_on,51,0,0
2,note_on,44,0,0
2,note_on,60,32,0
2,note_on,60,0,120
2,note_on,61,32,0
2,note_on,61,0,120
2,note_on,63,32,0
2,note_on,63,0,120
2,note_on,65,32,0
2,note_on,65,0,120
2,note_on,66,32,0
2,note_on,66,0,120
2,note_on,68,32,0
2,note_on,68,0,120
2,note_on,69,32,0
2,note_on,69,0,120
2,note_on,57,30,600
2,note_on,57,0,120
2,note_on,56,29,0
2,note_on,56,0,120
2,note_on,55,28,0
2,note_on,55,0,120
2,note_on,54,27,0
2,note_on,54,0,120
2,note_on,53,26,0
2,note_on,53,0,120
2,note_on,51,25,0
2,note_on,51,0,120
2,note_on,49,27,0
2,note_on,49,0,63
2,note_on,56,28,0
2,note_on,56,0,120
2,note_on,61,30,0
2,note_on,61,0,120
2,note_on,65,34,0
2,note_on,65,0,120
2,note_on,61,31,0
2,note_on,61,0,120
2,note_on,56,30,0
2,note_on,56,0,120
2,note_on,49,29,0
2,note_on,49,0,51
2,note_on,59,28,0
2,note_on,59,0,120
2,note_on,61,30,0
2,note_on,61,0,120
2,note_on,65,31,0
2,note_on,65,0,120
2,note_on,61,30,0
2,note_on,61,0,120
2,note_on,59,29,0
2,note_on,59,0,120
2,note_on,54,28,0
2,note_on,54,0,39
2,note_on,59,28,0
2,note_on,59,0,120
2,note_on,61,31,0
2,note_on,61,0,120
2,note_on,66,34,0
2,note_on,66,0,120
2,note_on,61,31,0
2,note_on,61,0,120
2,note_on,59,29,0
2,note_on,59,0,120
2,note_on,49,29,0
2,note_on,49,0,35
2,note_on,58,28,0
2,note_on,58,0,120
2,note_on,61,30,0
2,note_on,61,0,120
2,note_on,66,33,0
2,note_on,66,0,120
2,note_on,61,31,0
2,note_on,61,0,120
2,note_on,58,30,0
2,note_on,58,0,120
2,note_on,56,28,0
2,note_on,56,0,68
2,note_on,59,28,0
2,note_on,59,0,120
2,note_on,61,30,0
2,note_on,61,0,120
2,note_on,68,33,0
2,note_on,68,0,120
2,note_on,61,31,0
2,note_on,61,0,120
2,note_on,59,29,0
2,note_on,59,0,120
2,note_on,49,29,0
2,note_on,49,0,11
2,note_on,59,28,0
2,note_on,59,0,120
2,note_on,61,30,0
2,note_on,61,0,120
2,note_on,65,31,0
2,note_on,65,0,120
2,note_on,61,30,0
2,note_on,61,0,120
2,note_on,59,29,0
2,note_on,59,0,120
2,note_on,54,29,0
2,note_on,54,0,110
2,note_on,58,30,0
2,note_on,58,0,113
2,note_on,61,34,0
2,note_on,61,0,120
2,note_on,66,35,0
2,note_on,66,0,120
2,note_on,61,34,0
2,note_on,61,0,120
2,note_on,58,33,0
2,note_on,58,0,120
2,note_on,52,35,0
2,note_on,52,0,68
2,note_on,58,36,0
2,note_on,58,0,120
2,note_on,61,39,0
2,note_on,61,0,120
2,note_on,68,37,0
2,note_on,68,0,120
2,note_on,61,34,0
2,note_on,61,0,120
2,note_on,58,31,0
2,note_on,58,0,120
2,note_on,51,36,0
2,note_on,51,0,28
2,note_on,58,38,0
2,note_on,58,0,120
2,note_on,61,41,0
2,note_on,61,0,120
2,note_on,67,45,0
2,note_on,67,0,120
2,note_on,61,42,0
2,note_on,61,0,120
2,note_on,58,39,0
2,note_on,58,0,120
2,note_on,55,36,0
2,note_on,55,0,74
2,note_on,61,38,0
2,note_on,61,0,120
2,note_on,63,41,0
2,note_on,63,0,120
2,note_on,70,46,0
2,note_on,70,0,120
2,note_on,63,42,0
2,note_on,63,0,120
2,note_on,61,39,0
2,note_on,61,0,120
2,note_on,56,37,0
2,note_on,56,0,14
2,note_on,61,38,0
2,note_on,61,0,120
2,note_on,63,42,0
2,note_on,63,0,120
2,note_on,68,45,0
2,note_on,68,0,120
2,note_on,63,41,0
2,note_on,63,0,120
2,note_on,61,38,0
2,note_on,61,0,120
2,note_on,51,36,0
2,note_on,51,0,14
2,note_on,60,37,0
2,note_on,60,0,120
2,note_on,63,40,0
2,note_on,63,0,120
2,note_on,68,44,0
2,note_on,68,0,120
2,note_on,63,41,0
2,note_on,63,0,120
2,note_on,60,39,0
2,note_on,60,0,120
2,note_on,58,36,0
2,note_on,58,0,111
2,note_on,61,37,0
2,note_on,61,0,106
2,note_on,63,40,0
2,note_on,63,0,120
2,note_on,70,42,0
2,note_on,70,0,120
2,note_on,63,41,0
2,note_on,63,0,120
2,note_on,61,39,0
2,note_on,61,0,120
2,note_on,51,37,0
2,note_on,51,0,34
2,note_on,61,36,0
2,note_on,61,0,120
2,note_on,63,38,0
2,note_on,63,0,120
2,note_on,67,40,0
2,note_on,67,0,120
2,note_on,63,40,0
2,note_on,63,0,120
2,note_on,61,37,0
2,note_on,61,0,120
2,note_on,56,50,0
2,note_on,56,0,110
2,note_on,60,40,0
2,note_on,60,0,99
2,note_on,63,44,0
2,note_on,63,0,120
2,note_on,68,45,0
2,note_on,68,0,120
2,note_on,63,44,0
2,note_on,63,0,120
2,note_on,60,42,0
2,note_on,60,0,120
2,note_on,55,39,0
2,note_on,56,41,35
2,note_on,56,0,120
2,note_on,60,45,0
2,note_on,60,0,120
2,note_on,63,49,0
2,note_on,63,0,120
2,note_on,60,47,0
2,note_on,60,0,120
2,note_on,56,41,0
2,note_on,56,0,120
2,note_on,55,0,0
2,note_on,54,38,0
2,note_on,56,36,107
2,note_on,56,0,106
2,note_on,60,39,0
2,note_on,60,0,120
2,note_on,63,42,0
2,note_on,63,0,120
2,note_on,60,41,0
2,note_on,60,0,120
2,note_on,56,38,0
2,note_on,56,0,120
2,note_on,54,0,0
2,note_on,54,47,0
2,note_on,56,41,120
2,note_on,56,0,120
2,note_on,60,41,0
2,note_on,60,0,120
2,note_on,63,41,0
2,note_on,63,0,120
2,note_on,60,38,0
2,note_on,60,0,120
2,note_on,56,35,0
2,note_on,56,0,120
2,note_on,54,0,0
2,note_on,53,34,0
2,note_on,56,33,7
2,note_on,56,0,120
2,note_on,61,36,0
2,note_on,61,0,120
2,note_on,65,39,0
2,note_on,65,0,120
2,note_on,61,37,0
2,note_on,61,0,120
2,note_on,56,35,0
2,note_on,56,0,120
2,note_on,53,0,0
2,note_on,53,36,0
2,note_on,53,0,120
2,note_on,56,38,0
2,note_on,56,0,120
2,note_on,61,41,0
2,note_on,61,0,120
2,note_on,68,42,0
2,note_on,68,0,120
2,note_on,61,40,0
2,note_on,61,0,120
2,note_on,56,37,0
2,note_on,56,0,120
2,note_on,51,35,0
2,note_on,51,0,28
2,note_on,56,38,0
2,note_on,56,0,120
2,note_on,60,41,0
2,note_on,60,0,120
2,note_on,66,41,0
2,note_on,66,0,120
2,note_on,60,39,0
2,note_on,60,0,120
2,note_on,56,36,0
2,note_on,56,0,120
2,note_on,51,34,0
2,note_on,51,0,120
2,note_on,56,34,0
2,note_on,56,0,120
2,note_on,60,37,0
2,note_on,60,0,120
2,note_on,66,39,0
2,note_on,66,0,120
2,note_on,60,36,0
2,note_on,60,0,120
2,note_on,56,31,0
2,note_on,56,0,120
2,note_on,50,31,0
2,note_on,50,0,45
2,note_on,56,31,0
2,note_on,56,0,120
2,note_on,59,35,0
2,note_on,59,0,120
2,note_on,65,37,0
2,note_on,65,0,120
2,note_on,59,36,0
2,note_on,59,0,120
2,note_on,56,34,0
2,note_on,56,0,120
2,note_on,50,34,0
2,note_on,50,0,51
2,note_on,56,30,0
2,note_on,56,0,120
2,note_on,58,35,0
2,note_on,58,0,120
2,note_on,65,37,0
2,note_on,65,0,120
2,note_on,58,36,0
2,note_on,58,0,120
2,note_on,56,34,0
2,note_on,56,0,120
2,note_on,51,34,0
2,note_on,51,0,42
2,note_on,54,35,0
2,note_on,54,0,120
2,note_on,58,38,0
2,note_on,58,0,120
2,note_on,63,39,0
2,note_on,63,0,120
2,note_on,58,38,0
2,note_on,58,0,120
2,note_on,54,36,0
2,note_on,54,0,120
2,note_on,42,34,0
2,note_on,42,0,21
2,note_on,54,31,0
2,note_on,54,0,120
2,note_on,58,36,0
2,note_on,58,0,120
2,note_on,63,38,0
2,note_on,63,0,120
2,note_on,58,36,0
2,note_on,58,0,120
2,note_on,54,34,0
2,note_on,54,0,120
2,note_on,44,35,0
2,note_on,44,0,14
2,note_on,53,36,0
2,note_on,53,0,120
2,note_on,56,37,0
2,note_on,56,0,120
2,note_on,61,39,0
2,note_on,61,0,120
2,note_on,56,37,0
2,note_on,56,0,120
2,note_on,53,35,0
2,note_on,53,0,120
2,note_on,44,33,0
2,note_on,44,0,120
2,note_on,53,34,0
2,note_on,53,0,120
2,note_on,56,35,0
2,note_on,56,0,120
2,note_on,61,38,0
2,note_on,61,0,120
2,note_on,56,37,0
2,note_on,56,0,120
2,note_on,53,36,0
2,note_on,53,0,120
2,note_on,44,39,0
2,note_on,44,0,14
2,note_on,54,34,0
2,note_on,54,0,120
2,note_on,56,36,0
2,note_on,56,0,120
2,note_on,60,36,0
2,note_on,60,0,120
2,note_on,56,35,0
2,note_on,56,0,120
2,note_on,54,34,0
2,note_on,54,0,120
2,note_on,44,31,0
2,note_on,44,0,60
2,note_on,54,31,0
2,note_on,54,0,120
2,note_on,56,35,0
2,note_on,56,0,120
2,note_on,60,37,0
2,note_on,60,0,120
2,note_on,56,35,0
2,note_on,56,0,120
2,note_on,54,33,0
2,note_on,54,0,120
2,note_on,49,33,0
2,note_on,49,0,42
2,note_on,56,33,0
2,note_on,56,0,120
2,note_on,61,36,0
2,note_on,61,0,120
2,note_on,65,37,0
2,note_on,65,0,120
2,note_on,61,36,0
2,note_on,61,0,120
2,note_on,58,35,0
2,note_on,58,0,120
2,note_on,56,36,0
2,note_on,56,0,108
2,note_on,61,36,0
2,note_on,61,0,106
2,note_on,65,39,0
2,note_on,65,0,120
2,note_on,68,40,0
2,note_on,68,0,120
2,note_on,65,39,0
2,note_on,65,0,120
2,note_on,61,38,0
2,note_on,61,0,120
2,note_on,54,38,0
2,note_on,56,42,63
2,note_on,56,0,120
2,note_on,60,42,0
2,note_on,60,0,120
2,note_on,63,42,0
2,note_on,63,0,120
2,note_on,60,42,0
2,note_on,60,0,120
2,note_on,56,42,0
2,note_on,56,0,120
2,note_on,54,0,0
2,note_on,54,41,0
2,note_on,56,45,120
2,note_on,56,0,120
2,note_on,60,45,0
2,note_on,60,0,120
2,note_on,63,45,0
2,note_on,63,0,120
2,note_on,60,41,0
2,note_on,60,0,120
2,note_on,56,38,0
2,note_on,56,0,120
2,note_on,54,0,0
2,note_on,53,37,0
2,note_on,56,36,21
2,note_on,56,0,120
2,note_on,61,39,0
2,note_on,61,0,120
2,note_on,65,42,0
2,note_on,65,0,120
2,note_on,61,40,0
2,note_on,61,0,120
2,note_on,56,38,0
2,note_on,56,0,120
2,note_on,53,0,0
2,note_on,53,39,0
2,note_on,53,0,120
2,note_on,56,41,0
2,note_on,56,0,120
2,note_on,61,45,0
2,note_on,61,0,120
2,note_on,68,46,0
2,note_on,68,0,120
2,note_on,61,44,0
2,note_on,61,0,120
2,note_on,56,40,0
2,note_on,56,0,120
2,note_on,51,39,0
2,note_on,51,0,14
2,note_on,56,41,0
2,note_on,56,0,120
2,note_on,60,45,0
2,note_on,60,0,120
2,note_on,66,45,0
2,note_on,66,0,120
2,note_on,60,42,0
2,note_on,60,0,120
2,note_on,56,39,0
2,note_on,56,0,120
2,note_on,51,38,0
2,note_on,51,0,120
2,note_on,56,37,0
2,note_on,56,0,120
2,note_on,60,40,0
2,note_on,60,0,120
2,note_on,66,42,0
2,note_on,66,0,120
2,note_on,60,39,0
2,note_on,60,0,120
2,note_on,56,34,0
2,note_on,56,0,120
2,note_on,50,35,0
2,note_on,50,0,51
2,note_on,56,37,0
2,note_on,56,0,120
2,note_on,59,41,0
2,note_on,59,0,120
2,note_on,65,44,0
2,note_on,65,0,120
2,note_on,59,42,0
2,note_on,59,0,120
2,note_on,56,40,0
2,note_on,56,0,120
2,note_on,50,35,0
2,note_on,50,0,40
2,note_on,56,36,0
2,note_on,56,0,120
2,note_on,58,41,0
2,note_on,58,0,120
2,note_on,65,44,0
2,note_on,65,0,120
2,note_on,58,42,0
2,note_on,58,0,120
2,note_on,56,40,0
2,note_on,56,0,120
2,note_on,51,37,0
2,note_on,51,0,7
2,note_on,54,38,0
2,note_on,54,0,120
2,note_on,58,41,0
2,note_on,58,0,120
2,note_on,63,42,0
2,note_on,63,0,120
2,note_on,58,41,0
2,note_on,58,0,120
2,note_on,54,39,0
2,note_on,54,0,120
2,note_on,42,37,0
2,note_on,42,0,21
2,note_on,54,34,0
2,note_on,54,0,120
2,note_on,58,39,0
2,note_on,58,0,120
2,note_on,63,41,0
2,note_on,63,0,120
2,note_on,58,39,0
2,note_on,58,0,120
2,note_on,54,37,0
2,note_on,54,0,120
2,note_on,44,37,0
2,note_on,44,0,108
2,note_on,53,39,0
2,note_on,53,0,120
2,note_on,56,40,0
2,note_on,56,0,120
2,note_on,61,42,0
2,note_on,61,0,120
2,note_on,56,40,0
2,note_on,56,0,120
2,note_on,53,38,0
2,note_on,53,0,120
2,note_on,44,35,0
2,note_on,44,0,120
2,note_on,53,35,0
2,note_on,53,0,120
2,note_on,56,37,0
2,note_on,56,0,120
2,note_on,61,39,0
2,note_on,61,0,120
2,note_on,56,37,0
2,note_on,56,0,120
2,note_on,53,35,0
2,note_on,53,0,120
2,note_on,44,38,0
2,note_on,44,0,108
2,note_on,53,37,0
2,note_on,53,0,108
2,note_on,56,39,0
2,note_on,56,0,120
2,note_on,62,41,0
2,note_on,62,0,120
2,note_on,56,39,0
2,note_on,56,0,120
2,note_on,53,36,0
2,note_on,53,0,120
2,note_on,44,40,0
2,note_on,44,0,34
2,note_on,53,39,0
2,note_on,53,0,120
2,note_on,56,43,0
2,note_on,56,0,120
2,note_on,62,48,0
2,note_on,62,0,120
2,note_on,56,45,0
2,note_on,56,0,120
2,note_on,53,41,0
2,note_on,53,0,120
2,note_on,44,40,0
2,note_on,44,0,120
2,note_on,53,40,0
2,note_on,53,0,120
2,note_on,56,43,0
2,note_on,56,0,120
2,note_on,62,45,0
2,note_on,62,0,120
2,note_on,56,42,0
2,note_on,56,0,120
2,note_on,53,36,0
2,note_on,53,0,120
2,note_on,44,52,0
2,note_on,44,0,51
2,note_on,53,40,0
2,note_on,53,0,120
2,note_on,56,43,0
2,note_on,56,0,120
2,note_on,62,47,0
2,note_on,62,0,120
2,note_on,56,44,0
2,note_on,56,0,120
2,note_on,53,40,0
2,note_on,53,0,120
2,note_on,44,54,0
2,note_on,44,0,14
2,note_on,51,43,0
2,note_on,51,0,120
2,note_on,54,47,0
2,note_on,54,0,120
2,note_on,63,50,0
2,note_on,63,0,120
2,note_on,54,46,0
2,note_on,54,0,120
2,note_on,51,43,0
2,note_on,51,0,120
2,note_on,44,67,0
2,note_on,44,0,120
2,note_on,51,50,0
2,note_on,51,0,120
2,note_on,54,55,0
2,note_on,54,0,120
2,note_on,63,58,0
2,note_on,63,0,120
2,note_on,54,55,0
2,note_on,54,0,120
2,note_on,51,52,0
2,note_on,51,0,120
2,note_on,44,62,0
2,note_on,44,0,14
2,note_on,51,50,0
2,note_on,51,0,120
2,note_on,54,55,0
2,note_on,54,0,120
2,note_on,60,58,0
2,note_on,60,0,120
2,note_on,54,55,0
2,note_on,54,0,120
2,note_on,51,51,0
2,note_on,51,0,120
2,note_on,44,67,0
2,note_on,44,0,42
2,note_on,51,57,0
2,note_on,51,0,120
2,note_on,54,61,0
2,note_on,54,0,120
2,note_on,60,65,0
2,note_on,60,0,120
2,note_on,54,62,0
2,note_on,54,0,120
2,note_on,51,59,0
2,note_on,51,0,120
2,note_on,37,71,0
2,note_on,37,0,28
2,note_on,44,70,360
2,note_on,44,0,120
2,note_on,53,75,0
2,note_on,53,0,120
2,note_on,61,83,0
2,note_on,61,0,240
2,note_on,32,87,480
2,note_on,32,0,14
2,note_on,44,68,360
2,note_on,44,0,120
2,note_on,51,74,0
2,note_on,51,0,120
2,note_on,60,84,0
2,note_on,60,0,240
2,note_on,37,87,480
2,note_on,37,0,14
2,note_on,44,70,360
2,note_on,44,0,120
2,note_on,53,75,0
2,note_on,53,0,120
2,note_on,61,83,0
2,note_on,61,0,240
2,note_on,32,87,480
2,note_on,32,0,106
2,note_on,44,68,360
2,note_on,44,0,120
2,note_on,51,74,0
2,note_on,51,0,120
2,note_on,60,84,0
2,note_on,60,0,240
2,note_on,25,82,480
2,note_on,25,0,92
2,note_on,44,68,240
2,note_on,44,0,120
2,note_on,53,74,0
2,note_on,53,0,120
2,note_on,61,84,0
2,note_on,61,0,240
2,note_on,25,96,1920
2,note_on,37,96,0
2,note_on,37,0,120
2,note_on,25,0,0
2,note_on,61,86,600
2,note_on,73,102,0
2,note_on,73,0,720
2,note_on,61,0,0
2,note_on,33,40,1440
2,note_on,45,40,0
2,note_on,33,0,720
2,note_on,38,36,0
2,note_on,38,0,2160
2,note_on,45,0,0
2,note_on,33,40,0
2,note_on,45,40,0
2,note_on,33,0,720
2,note_on,38,36,0
2,note_on,38,0,2160
2,note_on,45,0,0
2,note_on,40,34,0
2,note_on,50,34,0
2,note_on,50,0,1200
2,note_on,40,0,0
2,note_on,45,30,0
2,note_on,49,30,0
2,note_on,49,0,240
2,note_on,52,26,0
2,note_on,52,0,1440
2,note_on,45,0,0
2,note_on,52,32,480
2,note_on,55,32,0
2,note_on,58,32,0
2,note_on,58,0,240
2,note_on,55,0,0
2,note_on,52,0,0
2,note_on,50,38,0
2,note_on,54,38,0
2,note_on,59,38,0
2,note_on,59,0,240
2,note_on,54,0,0
2,note_on,50,0,0
2,note_on,54,32,240
2,note_on,57,32,0
2,note_on,62,32,0
2,note_on,62,0,240
2,note_on,57,0,0
2,note_on,54,0,0
2,note_on,53,36,0
2,note_on,56,36,0
2,note_on,61,36,0
2,note_on,61,0,480
2,note_on,56,0,0
2,note_on,53,0,0
2,note_on,52,31,0
2,note_on,55,31,0
2,note_on,58,31,0
2,note_on,58,0,240
2,note_on,55,0,0
2,note_on,52,0,0
2,note_on,50,37,0
2,note_on,54,37,0
2,note_on,59,37,0
2,note_on,59,0,240
2,note_on,54,0,0
2,note_on,50,0,0
2,note_on,54,32,240
2,note_on,57,32,0
2,note_on,62,32,0
2,note_on,62,0,240
2,note_on,57,0,0
2,note_on,54,0,0
2,note_on,49,29,0
2,note_on,56,29,30
2,note_on,65,29,30
2,note_on,65,0,180
2,note_on,56,0,0
2,note_on,49,0,0
2,note_on,37,25,480
2,note_on,37,0,120
2,note_on,33,40,501
2,note_on,45,40,0
2,note_on,33,0,720
2,note_on,38,36,0
2,note_on,38,0,2160
2,note_on,45,0,0
2,note_on,33,40,0
2,note_on,45,40,0
2,note_on,33,0,720
2,note_on,38,36,0
2,note_on,38,0,2880
2,note_on,45,0,0
2,note_on,40,34,0
2,note_on,52,34,0
2,note_on,52,0,720
2,note_on,50,34,0
2,note_on,50,0,480
2,note_on,40,0,0
2,note_on,45,30,0
2,note_on,49,30,0
2,note_on,49,0,240
2,note_on,45,0,0
2,note_on,45,26,0
2,note_on,52,26,0
2,note_on,52,0,1440
2,note_on,45,0,0
2,note_on,59,26,3360
2,note_on,62,26,0
2,note_on,65,26,0
2,note_on,65,0,240
2,note_on,62,0,0
2,note_on,59,0,0
2,note_on,57,31,0
2,note_on,61,31,0
2,note_on,66,31,0
2,note_on,66,0,240
2,note_on,61,0,0
2,note_on,57,0,0
2,note_on,61,28,240
2,note_on,64,28,0
2,note_on,69,28,0
2,note_on,69,0,240
2,note_on,64,0,0
2,note_on,61,0,0
2,note_on,60,31,0
2,note_on,63,31,0
2,note_on,68,31,0
2,note_on,68,0,480
2,note_on,63,0,0
2,note_on,60,0,0
2,note_on,59,27,0
2,note_on,62,27,0
2,note_on,65,27,0
2,note_on,65,0,240
2,note_on,62,0,0
2,note_on,59,0,0
2,note_on,57,31,0
2,note_on,61,31,0
2,note_on,66,31,0
2,note_on,66,0,240
2,note_on,61,0,0
2,note_on,57,0,0
2,note_on,61,25,240
2,note_on,64,25,0
2,note_on,69,25,0
2,note_on,69,0,240
2,note_on,64,0,0
2,note_on,61,0,0
2,note_on,56,24,0
2,note_on,63,24,0
2,note_on,72,24,0
2,note_on,72,0,103
2,note_on,63,0,0
2,note_on,56,0,0
2,note_on,44,24,480
2,note_on,44,0,240
2,note_on,49,33,565
2,note_on,64,30,240
2,note_on,64,0,240
2,note_on,56,30,0
2,note_on,49,0,240
2,note_on,51,33,0
2,note_on,54,33,0
2,note_on,56,0,240
2,note_on,60,32,0
2,note_on,60,0,240
2,note_on,56,32,0
2,note_on,54,0,240
2,note_on,51,0,0
2,note_on,52,33,0
2,note_on,56,0,240
2,note_on,61,32,0
2,note_on,61,0,240
2,note_on,56,32,0
2,note_on,52,0,240
2,note_on,48,33,0
2,note_on,56,0,240
2,note_on,63,31,0
2,note_on,63,0,240
2,note_on,56,31,0
2,note_on,48,0,240
2,note_on,49,33,0
2,note_on,56,0,240
2,note_on,64,33,0
2,note_on,64,0,240
2,note_on,56,31,0
2,note_on,49,0,240
2,note_on,51,33,0
2,note_on,54,33,0
2,note_on,56,0,240
2,note_on,60,31,0
2,note_on,60,0,240
2,note_on,56,31,0
2,note_on,54,0,240
2,note_on,51,0,0
2,note_on,52,33,0
2,note_on,56,0,240
2,note_on,61,31,0
2,note_on,61,0,240
2,note_on,56,31,0
2,note_on,56,0,240
2,note_on,52,0,0
2,note_on,59,31,0
2,note_on,53,33,0
2,note_on,59,0,240
2,note_on,68,31,0
2,note_on,68,0,240
2,note_on,61,31,0
2,note_on,53,0,240
2,note_on,54,36,0
2,note_on,57,36,0
2,note_on,61,0,240
2,note_on,66,31,0
2,note_on,66,0,240
2,note_on,61,31,0
2,note_on,57,0,240
2,note_on,54,0,0
2,note_on,56,33,0
2,note_on,59,33,0
2,note_on,61,0,240
2,note_on,65,31,0
2,note_on,65,0,240
2,note_on,61,31,0
2,note_on,59,0,240
2,note_on,56,0,0
2,note_on,57,33,0
2,note_on,61,0,240
2,note_on,66,27,0
2,note_on,66,0,240
2,note_on,61,27,0
2,note_on,57,0,240
2,note_on,53,30,0
2,note_on,61,0,240
2,note_on,68,31,0
2,note_on,68,0,240
2,note_on,61,31,0
2,note_on,53,0,240
2,note_on,54,33,0
2,note_on,57,33,0
2,note_on,61,0,240
2,note_on,69,31,0
2,note_on,69,0,240
2,note_on,61,31,0
2,note_on,57,0,240
2,note_on,54,0,0
2,note_on,56,33,0
2,note_on,59,33,0
2,note_on,61,0,240
2,note_on,65,31,0
2,note_on,65,0,240
2,note_on,61,31,0
2,note_on,59,0,240
2,note_on,56,0,0
2,note_on,57,33,0
2,note_on,61,0,240
2,note_on,66,31,0
2,note_on,66,0,240
2,note_on,61,31,0
2,note_on,61,0,240
2,note_on,57,0,0
2,note_on,45,31,0
2,note_on,45,0,63
2,note_on,61,28,120
2,note_on,61,0,240
2,note_on,54,28,0
2,note_on,54,0,240
2,note_on,44,30,0
2,note_on,51,30,0
2,note_on,44,0,123
2,note_on,60,27,0
2,note_on,60,0,240
2,note_on,54,27,0
2,note_on,54,0,240
2,note_on,51,0,0
2,note_on,52,31,0
2,note_on,61,33,230
2,note_on,61,0,240
2,note_on,56,33,0
2,note_on,56,0,240
2,note_on,52,0,0
2,note_on,44,38,0
2,note_on,54,38,0
2,note_on,44,0,184
2,note_on,60,32,0
2,note_on,60,0,240
2,note_on,56,32,0
2,note_on,54,0,240
2,note_on,52,37,0
2,note_on,56,0,234
2,note_on,61,31,0
2,note_on,61,0,240
2,note_on,56,31,0
2,note_on,56,0,240
2,note_on,52,0,0
2,note_on,44,36,0
2,note_on,51,36,0
2,note_on,44,0,186
2,note_on,60,34,0
2,note_on,60,0,240
2,note_on,56,34,0
2,note_on,51,0,240
2,note_on,52,38,0
2,note_on,56,0,227
2,note_on,61,31,0
2,note_on,61,0,240
2,note_on,56,31,0
2,note_on,56,0,240
2,note_on,52,0,0
2,note_on,47,33,0
2,note_on,54,29,187
2,note_on,57,29,240
2,note_on,63,33,240
2,note_on,63,0,465
2,note_on,47,0,0
2,note_on,54,0,0
2,note_on,57,0,0
2,note_on,52,32,0
2,note_on,64,29,106
2,note_on,59,29,0
2,note_on,59,0,240
2,note_on,64,0,0
2,note_on,56,30,0
2,note_on,56,0,240
2,note_on,52,0,0
2,note_on,51,35,0
2,note_on,64,30,176
2,note_on,59,30,0
2,note_on,59,0,240
2,note_on,64,0,0
2,note_on,56,32,0
2,note_on,56,0,240
2,note_on,51,0,0
2,note_on,52,32,0
2,note_on,52,0,148
2,note_on,64,30,0
2,note_on,59,30,0
2,note_on,59,0,240
2,note_on,64,0,0
2,note_on,56,30,0
2,note_on,56,0,240
2,note_on,47,32,0
2,note_on,47,0,628
2,note_on,45,36,0
2,note_on,45,0,115
2,note_on,64,31,99
2,note_on,61,31,0
2,note_on,61,0,240
2,note_on,64,0,0
2,note_on,54,31,0
2,note_on,54,0,240
2,note_on,42,40,0
2,note_on,42,0,120
2,note_on,64,35,120
2,note_on,61,35,0
2,note_on,61,0,240
2,note_on,64,0,0
2,note_on,54,35,0
2,note_on,54,0,240
2,note_on,47,38,0
2,note_on,47,0,40
2,note_on,59,34,120
2,note_on,63,34,0
2,note_on,54,31,240
2,note_on,54,0,240
2,note_on,56,38,0
2,note_on,56,0,205
2,note_on,54,40,0
2,note_on,54,0,240
2,note_on,56,48,0
2,note_on,56,0,240
2,note_on,63,0,0
2,note_on,59,0,0
2,note_on,52,35,0
2,note_on,64,31,183
2,note_on,59,31,0
2,note_on,59,0,240
2,note_on,64,0,0
2,note_on,56,33,0
2,note_on,56,0,240
2,note_on,52,0,0
2,note_on,51,38,0
2,note_on,64,33,99
2,note_on,59,33,0
2,note_on,59,0,240
2,note_on,64,0,0
2,note_on,56,35,0
2,note_on,56,0,240
2,note_on,51,0,0
2,note_on,52,35,0
2,note_on,52,0,127
2,note_on,64,33,0
2,note_on,59,33,0
2,note_on,59,0,240
2,note_on,64,0,0
2,note_on,56,33,0
2,note_on,56,0,240
2,note_on,47,35,0
2,note_on,47,0,712
2,note_on,45,36,0
2,note_on,45,0,49
2,note_on,64,31,120
2,note_on,61,31,0
2,note_on,61,0,240
2,note_on,64,0,0
2,note_on,54,31,0
2,note_on,54,0,240
2,note_on,42,40,0
2,note_on,42,0,120
2,note_on,64,35,120
2,note_on,61,35,0
2,note_on,61,0,240
2,note_on,64,0,0
2,note_on,54,35,0
2,note_on,54,0,240
2,note_on,47,42,0
2,note_on,47,0,28
2,note_on,59,36,120
2,note_on,63,36,0
2,note_on,54,36,240
2,note_on,54,0,240
2,note_on,56,38,0
2,note_on,56,0,234
2,note_on,54,40,0
2,note_on,54,0,240
2,note_on,56,45,0
2,note_on,56,0,240
2,note_on,63,0,0
2,note_on,59,0,0
2,note_on,52,49,0
2,note_on,64,44,162
2,note_on,59,44,0
2,note_on,59,0,240
2,note_on,64,0,0
2,note_on,56,44,0
2,note_on,56,0,240
2,note_on,52,0,0
2,note_on,47,67,0
2,note_on,47,0,120
2,note_on,64,74,120
2,note_on,59,74,0
2,note_on,59,0,240
2,note_on,64,0,0
2,note_on,56,74,0
2,note_on,56,0,240
2,note_on,45,70,0
2,note_on,57,70,0
2,note_on,57,0,165
2,note_on,45,0,0
2,note_on,48,77,0
2,note_on,60,77,0
2,note_on,60,0,480
2,note_on,48,0,0
2,note_on,40,66,720
2,note_on,52,52,183
2,note_on,52,0,240
2,note_on,47,52,0
2,note_on,47,0,240
2,note_on,40,0,0
2,note_on,35,68,0
2,note_on,35,0,84
2,note_on,52,68,120
2,note_on,52,0,240
2,note_on,47,68,0
2,note_on,47,0,240
2,note_on,33,75,0
2,note_on,45,75,0
2,note_on,45,0,160
2,note_on,33,0,0
2,note_on,36,86,0
2,note_on,48,86,0
2,note_on,48,0,480
2,note_on,36,0,0
2,note_on,28,98,720
2,note_on,28,0,162
2,note_on,68,80,1200
2,note_on,59,80,0
2,note_on,52,80,0
2,note_on,52,0,240
2,note_on,59,0,0
2,note_on,68,0,0
2,note_on,28,96,0
2,note_on,28,0,720
2,note_on,33,50,720
2,note_on,45,50,0
2,note_on,33,0,720
2,note_on,38,44,0
2,note_on,38,0,2160
2,note_on,45,0,0
2,note_on,33,50,0
2,note_on,45,50,0
2,note_on,33,0,720
2,note_on,38,44,0
2,note_on,38,0,2880
2,note_on,45,0,0
2,note_on,40,41,0
2,note_on,52,41,0
2,note_on,52,0,720
2,note_on,50,39,0
2,note_on,50,0,480
2,note_on,40,0,0
2,note_on,45,36,0
2,note_on,49,36,0
2,note_on,49,0,240
2,note_on,52,32,0
2,note_on,52,0,1440
2,note_on,45,0,0
2,note_on,52,32,480
2,note_on,55,32,0
2,note_on,58,32,0
2,note_on,58,0,240
2,note_on,55,0,0
2,note_on,52,0,0
2,note_on,50,38,0
2,note_on,54,38,0
2,note_on,59,38,0
2,note_on,59,0,240
2,note_on,54,0,0
2,note_on,50,0,0
2,note_on,54,32,240
2,note_on,57,32,0
2,note_on,62,32,0
2,note_on,62,0,240
2,note_on,57,0,0
2,note_on,54,0,0
2,note_on,53,36,0
2,note_on,56,36,0
2,note_on,61,36,0
2,note_on,61,0,480
2,note_on,56,0,0
2,note_on,53,0,0
2,note_on,52,31,0
2,note_on,55,31,0
2,note_on,58,31,0
2,note_on,58,0,240
2,note_on,55,0,0
2,note_on,52,0,0
2,note_on,50,37,0
2,note_on,54,37,0
2,note_on,59,37,0
2,note_on,59,0,240
2,note_on,54,0,0
2,note_on,50,0,0
2,note_on,54,32,240
2,note_on,57,32,0
2,note_on,62,32,0
2,note_on,62,0,240
2,note_on,57,0,0
2,note_on,54,0,0
2,note_on,49,29,0
2,note_on,56,29,30
2,note_on,65,29,30
2,note_on,65,0,159
2,note_on,56,0,0
2,note_on,49,0,0
2,note_on,37,25,480
2,note_on,37,0,120
2,note_on,45,34,501
2,note_on,38,30,720
2,note_on,38,0,2160
2,note_on,45,0,0
2,note_on,33,34,0
2,note_on,45,34,0
2,note_on,33,0,720
2,note_on,38,30,0
2,note_on,38,0,2880
2,note_on,45,0,0
2,note_on,40,28,0
2,note_on,52,28,0
2,note_on,52,0,720
2,note_on,50,28,0
2,note_on,50,0,480
2,note_on,40,0,0
2,note_on,45,25,0
2,note_on,49,25,0
2,note_on,49,0,240
2,note_on,52,22,0
2,note_on,52,0,1440
2,note_on,45,0,0
2,note_on,59,26,3360
2,note_on,62,26,0
2,note_on,65,26,0
2,note_on,65,0,240
2,note_on,62,0,0
2,note_on,59,0,0
2,note_on,57,31,0
2,note_on,61,31,0
2,note_on,66,31,0
2,note_on,66,0,240
2,note_on,61,0,0
2,note_on,57,0,0
2,note_on,61,28,240
2,note_on,64,28,0
2,note_on,69,28,0
2,note_on,69,0,240
2,note_on,64,0,0
2,note_on,61,0,0
2,note_on,60,31,0
2,note_on,63,31,0
2,note_on,68,31,0
2,note_on,68,0,480
2,note_on,63,0,0
2,note_on,60,0,0
2,note_on,59,27,0
2,note_on,62,27,0
2,note_on,65,27,0
2,note_on,65,0,240
2,note_on,62,0,0
2,note_on,59,0,0
2,note_on,57,31,0
2,note_on,61,31,0
2,note_on,66,31,0
2,note_on,66,0,240
2,note_on,61,0,0
2,note_on,57,0,0
2,note_on,61,25,240
2,note_on,64,25,0
2,note_on,69,25,0
2,note_on,69,0,240
2,note_on,64,0,0
2,note_on,61,0,0
2,note_on,56,24,0
2,note_on,63,24,0
2,note_on,72,24,0
2,note_on,72,0,57
2,note_on,63,0,0
2,note_on,56,0,0
2,note_on,44,24,480
2,note_on,44,0,240
2,note_on,49,33,565
2,note_on,64,30,240
2,note_on,64,0,240
2,note_on,56,30,0
2,note_on,49,0,240
2,note_on,51,33,0
2,note_on,54,33,0
2,note_on,56,0,240
2,note_on,60,32,0
2,note_on,60,0,240
2,note_on,56,32,0
2,note_on,54,0,240
2,note_on,51,0,0
2,note_on,52,33,0
2,note_on,56,0,240
2,note_on,61,32,0
2,note_on,61,0,240
2,note_on,56,32,0
2,note_on,52,0,240
2,note_on,48,33,0
2,note_on,56,0,240
2,note_on,63,31,0
2,note_on,63,0,240
2,note_on,56,31,0
2,note_on,48,0,240
2,note_on,49,33,0
2,note_on,56,0,240
2,note_on,64,33,0
2,note_on,64,0,240
2,note_on,56,31,0
2,note_on,49,0,240
2,note_on,51,33,0
2,note_on,54,33,0
2,note_on,56,0,240
2,note_on,60,31,0
2,note_on,60,0,240
2,note_on,56,31,0
2,note_on,54,0,240
2,note_on,51,0,0
2,note_on,52,33,0
2,note_on,56,0,240
2,note_on,61,31,0
2,note_on,61,0,240
2,note_on,56,31,0
2,note_on,56,0,240
2,note_on,52,0,0
2,note_on,59,31,0
2,note_on,53,33,0
2,note_on,59,0,240
2,note_on,68,31,0
2,note_on,68,0,240
2,note_on,61,31,0
2,note_on,53,0,240
2,note_on,54,36,0
2,note_on,57,36,0
2,note_on,61,0,240
2,note_on,66,31,0
2,note_on,66,0,240
2,note_on,61,31,0
2,note_on,57,0,240
2,note_on,54,0,0
2,note_on,56,33,0
2,note_on,59,33,0
2,note_on,61,0,240
2,note_on,65,31,0
2,note_on,65,0,240
2,note_on,61,31,0
2,note_on,59,0,240
2,note_on,56,0,0
2,note_on,57,33,0
2,note_on,61,0,240
2,note_on,66,27,0
2,note_on,66,0,240
2,note_on,61,27,0
2,note_on,57,0,240
2,note_on,53,30,0
2,note_on,61,0,240
2,note_on,68,31,0
2,note_on,68,0,240
2,note_on,61,31,0
2,note_on,53,0,240
2,note_on,54,33,0
2,note_on,57,33,0
2,note_on,61,0,240
2,note_on,69,31,0
2,note_on,69,0,240
2,note_on,61,31,0
2,note_on,57,0,240
2,note_on,54,0,0
2,note_on,56,33,0
2,note_on,59,33,0
2,note_on,61,0,240
2,note_on,65,31,0
2,note_on,65,0,240
2,note_on,61,31,0
2,note_on,59,0,240
2,note_on,56,0,0
2,note_on,57,33,0
2,note_on,61,0,240
2,note_on,66,31,0
2,note_on,66,0,240
2,note_on,61,31,0
2,note_on,61,0,240
2,note_on,57,0,0
2,note_on,45,31,0
2,note_on,45,0,63
2,note_on,61,28,120
2,note_on,61,0,240
2,note_on,54,28,0
2,note_on,54,0,240
2,note_on,44,30,0
2,note_on,51,30,0
2,note_on,44,0,162
2,note_on,60,27,0
2,note_on,60,0,240
2,note_on,54,27,0
2,note_on,54,0,240
2,note_on,51,0,0
2,note_on,52,31,0
2,note_on,61,33,240
2,note_on,61,0,227
2,note_on,56,33,0
2,note_on,56,0,240
2,note_on,52,0,0
2,note_on,44,38,0
2,note_on,54,38,0
2,note_on,44,0,144
2,note_on,60,32,0
2,note_on,60,0,240
2,note_on,56,32,0
2,note_on,54,0,240
2,note_on,52,37,0
2,note_on,56,0,240
2,note_on,61,31,0
2,note_on,61,0,240
2,note_on,56,31,0
2,note_on,56,0,240
2,note_on,52,0,0
2,note_on,44,36,0
2,note_on,51,36,0
2,note_on,44,0,163
2,note_on,60,34,0
2,note_on,60,0,240
2,note_on,56,34,0
2,note_on,51,0,240
2,note_on,52,38,0
2,note_on,56,0,227
2,note_on,61,31,0
2,note_on,61,0,240
2,note_on,56,31,0
2,note_on,56,0,240
2,note_on,52,0,0
2,note_on,47,33,0
2,note_on,54,29,197
2,note_on,57,29,240
2,note_on,63,33,240
2,note_on,63,0,467
2,note_on,47,0,0
2,note_on,54,0,0
2,note_on,57,0,0
2,note_on,52,32,0
2,note_on,64,29,141
2,note_on,59,29,0
2,note_on,59,0,240
2,note_on,64,0,0
2,note_on,56,30,0
2,note_on,56,0,240
2,note_on,52,0,0
2,note_on,51,35,0
2,note_on,64,30,134
2,note_on,59,30,0
2,note_on,59,0,240
2,note_on,64,0,0
2,note_on,56,32,0
2,note_on,56,0,240
2,note_on,51,0,0
2,note_on,52,32,0
2,note_on,52,0,106
2,note_on,64,30,0
2,note_on,59,30,0
2,note_on,59,0,240
2,note_on,64,0,0
2,note_on,56,30,0
2,note_on,56,0,240
2,note_on,47,32,0
2,note_on,47,0,713
2,note_on,45,36,0
2,note_on,45,0,114
2,note_on,64,31,92
2,note_on,61,31,0
2,note_on,61,0,240
2,note_on,64,0,0
2,note_on,54,31,0
2,note_on,54,0,240
2,note_on,42,40,0
2,note_on,42,0,120
2,note_on,64,35,120
2,note_on,61,35,0
2,note_on,61,0,240
2,note_on,64,0,0
2,note_on,54,35,0
2,note_on,54,0,240
2,note_on,47,38,0
2,note_on,47,0,23
2,note_on,59,34,120
2,note_on,63,34,0
2,note_on,54,31,240
2,note_on,54,0,240
2,note_on,56,38,0
2,note_on,56,0,234
2,note_on,54,40,0
2,note_on,54,0,240
2,note_on,56,48,0
2,note_on,56,0,240
2,note_on,63,0,0
2,note_on,59,0,0
2,note_on,52,35,0
2,note_on,64,31,183
2,note_on,59,31,0
2,note_on,59,0,240
2,note_on,64,0,0
2,note_on,56,33,0
2,note_on,56,0,240
2,note_on,52,0,0
2,note_on,51,38,0
2,note_on,64,33,162
2,note_on,59,33,0
2,note_on,59,0,240
2,note_on,64,0,0
2,note_on,56,35,0
2,note_on,56,0,240
2,note_on,51,0,0
2,note_on,52,35,0
2,note_on,52,0,113
2,note_on,64,33,0
2,note_on,59,33,0
2,note_on,59,0,240
2,note_on,64,0,0
2,note_on,56,33,0
2,note_on,56,0,240
2,note_on,47,35,0
2,note_on,47,0,635
2,note_on,45,36,0
2,note_on,45,0,111
2,note_on,64,31,113
2,note_on,61,31,0
2,note_on,61,0,240
2,note_on,64,0,0
2,note_on,54,31,0
2,note_on,54,0,240
2,note_on,42,40,0
2,note_on,42,0,120
2,note_on,64,35,120
2,note_on,61,35,0
2,note_on,61,0,240
2,note_on,64,0,0
2,note_on,54,35,0
2,note_on,54,0,240
2,note_on,47,42,0
2,note_on,47,0,112
2,note_on,59,36,114
2,note_on,63,36,0
2,note_on,54,36,240
2,note_on,54,0,240
2,note_on,56,38,0
2,note_on,56,0,228
2,note_on,54,40,0
2,note_on,54,0,240
2,note_on,56,45,0
2,note_on,56,0,240
2,note_on,63,0,0
2,note_on,59,0,0
2,note_on,52,49,0
2,note_on,64,44,169
2,note_on,59,44,0
2,note_on,59,0,240
2,note_on,64,0,0
2,note_on,56,44,0
2,note_on,56,0,240
2,note_on,52,0,0
2,note_on,47,62,0
2,note_on,47,0,120
2,note_on,64,67,120
2,note_on,59,67,0
2,note_on,59,0,240
2,note_on,64,0,0
2,note_on,56,67,0
2,note_on,56,0,240
2,note_on,45,70,0
2,note_on,57,70,0
2,note_on,57,0,165
2,note_on,45,0,0
2,note_on,48,77,0
2,note_on,60,77,0
2,note_on,60,0,480
2,note_on,48,0,0
2,note_on,40,66,720
2,note_on,52,52,148
2,note_on,52,0,240
2,note_on,47,52,0
2,note_on,47,0,240
2,note_on,40,0,0
2,note_on,35,68,0
2,note_on,35,0,35
2,note_on,52,66,120
2,note_on,52,0,240
2,note_on,47,66,0
2,note_on,47,0,240
2,note_on,33,75,0
2,note_on,45,75,0
2,note_on,45,0,160
2,note_on,33,0,0
2,note_on,36,86,0
2,note_on,48,86,0
2,note_on,48,0,480
2,note_on,36,0,0
2,note_on,28,104,720
2,note_on,28,0,120
2,note_on,68,80,1200
2,note_on,59,80,0
2,note_on,52,80,0
2,note_on,52,0,240
2,note_on,59,0,0
2,note_on,68,0,0
2,note_on,28,96,2640
2,note_on,28,0,706
2,note_on,38,98,720
2,note_on,26,83,0
2,note_on,26,0,171
2,note_on,38,0,0
2,note_on,56,80,1200
2,note_on,65,80,0
2,note_on,59,80,0
2,note_on,50,68,0
2,note_on,50,0,240
2,note_on,56,0,0
2,note_on,65,0,0
2,note_on,59,0,0
2,note_on,26,96,0
2,note_on,26,0,1440
2,note_on,25,86,0
2,note_on,37,102,0
2,note_on,37,0,240
2,note_on,25,0,0
2,note_on,44,84,480
2,note_on,56,84,0
2,note_on,56,0,240
2,note_on,44,0,0
2,note_on,51,90,0
2,note_on,63,90,0
2,note_on,63,0,240
2,note_on,51,0,0
2,note_on,49,84,0
2,note_on,61,84,0
2,note_on,61,0,240
2,note_on,49,0,0
2,note_on,49,95,0
2,note_on,61,95,0
2,note_on,61,0,411
2,note_on,49,0,0
2,note_on,37,90,240
2,note_on,49,90,0
2,note_on,49,0,120
2,note_on,37,0,0
2,note_on,25,90,600
2,note_on,37,90,0
2,note_on,37,0,137
2,note_on,25,0,0
2,note_on,42,82,0
2,note_on,54,82,0
2,note_on,54,0,240
2,note_on,42,0,0
2,note_on,51,87,0
2,note_on,63,87,0
2,note_on,63,0,240
2,note_on,51,0,0
2,note_on,49,82,0
2,note_on,61,82,0
2,note_on,61,0,240
2,note_on,49,0,0
2,note_on,49,93,0
2,note_on,61,93,0
2,note_on,61,0,120
2,note_on,49,0,0
2,note_on,31,71,120
2,note_on,43,71,0
2,note_on,43,0,240
2,note_on,31,0,0
2,note_on,32,71,0
2,note_on,44,71,0
2,note_on,44,0,240
2,note_on,32,0,0
2,note_on,32,71,0
2,note_on,44,71,0
2,note_on,44,0,240
2,note_on,32,0,0
2,note_on,39,75,0
2,note_on,51,75,0
2,note_on,51,0,240
2,note_on,39,0,0
2,note_on,37,74,0
2,note_on,49,74,0
2,note_on,49,0,240
2,note_on,37,0,0
2,note_on,38,93,0
2,note_on,50,93,0
2,note_on,50,0,172
2,note_on,38,0,0
2,note_on,45,81,0
2,note_on,57,81,0
2,note_on,57,0,240
2,note_on,45,0,0
2,note_on,64,86,0
2,note_on,52,86,0
2,note_on,52,0,240
2,note_on,64,0,0
2,note_on,50,79,0
2,note_on,62,79,0
2,note_on,62,0,240
2,note_on,50,0,0
2,note_on,50,93,0
2,note_on,62,93,0
2,note_on,62,0,440
2,note_on,50,0,0
2,note_on,38,97,240
2,note_on,50,97,0
2,note_on,50,0,120
2,note_on,38,0,0
2,note_on,38,93,0
2,note_on,26,79,0
2,note_on,26,0,154
2,note_on,38,0,0
2,note_on,43,81,0
2,note_on,55,81,0
2,note_on,55,0,240
2,note_on,43,0,0
2,note_on,64,86,0
2,note_on,52,86,0
2,note_on,52,0,240
2,note_on,64,0,0
2,note_on,50,79,0
2,note_on,62,79,0
2,note_on,62,0,240
2,note_on,50,0,0
2,note_on,50,86,0
2,note_on,62,86,0
2,note_on,62,0,120
2,note_on,50,0,0
2,note_on,37,71,120
2,note_on,49,71,0
2,note_on,49,0,240
2,note_on,37,0,0
2,note_on,38,71,0
2,note_on,50,71,0
2,note_on,50,0,240
2,note_on,38,0,0
2,note_on,38,77,0
2,note_on,50,77,0
2,note_on,50,0,120
2,note_on,38,0,0
2,note_on,35,70,120
2,note_on,47,70,0
2,note_on,47,0,240
2,note_on,35,0,0
2,note_on,36,71,0
2,note_on,48,71,0
2,note_on,48,0,240
2,note_on,36,0,0
2,note_on,34,84,0
2,note_on,46,84,0
2,note_on,46,0,120
2,note_on,34,0,0
2,note_on,62,56,0
2,note_on,62,0,240
2,note_on,50,56,0
2,note_on,55,56,0
2,note_on,55,0,234
2,note_on,50,0,0
2,note_on,45,68,0
2,note_on,45,0,125
2,note_on,62,56,0
2,note_on,62,0,240
2,note_on,50,56,0
2,note_on,57,56,0
2,note_on,57,0,240
2,note_on,50,0,0
2,note_on,43,66,0
2,note_on,43,0,185
2,note_on,62,56,0
2,note_on,62,0,240
2,note_on,50,56,0
2,note_on,58,56,0
2,note_on,58,0,232
2,note_on,50,0,0
2,note_on,48,65,0
2,note_on,62,56,103
2,note_on,62,0,240
2,note_on,54,56,0
2,note_on,57,56,0
2,note_on,57,0,225
2,note_on,54,0,0
2,note_on,48,0,0
2,note_on,46,65,0
2,note_on,46,0,171
2,note_on,62,56,0
2,note_on,62,0,240
2,note_on,50,56,0
2,note_on,55,56,0
2,note_on,55,0,226
2,note_on,50,0,0
2,note_on,45,66,0
2,note_on,45,0,148
2,note_on,62,56,0
2,note_on,62,0,240
2,note_on,50,56,0
2,note_on,57,56,0
2,note_on,57,0,240
2,note_on,50,0,0
2,note_on,43,65,0
2,note_on,43,0,185
2,note_on,62,56,0
2,note_on,62,0,240
2,note_on,55,56,0
2,note_on,55,0,233
2,note_on,47,64,0
2,note_on,47,0,171
2,note_on,62,56,0
2,note_on,62,0,240
2,note_on,55,56,0
2,note_on,55,0,240
2,note_on,48,65,0
2,note_on,48,0,148
2,note_on,63,56,0
2,note_on,63,0,240
2,note_on,55,56,0
2,note_on,55,0,231
2,note_on,50,65,0
2,note_on,50,0,171
2,note_on,65,54,0
2,note_on,65,0,240
2,note_on,55,54,0
2,note_on,59,54,0
2,note_on,59,0,240
2,note_on,55,0,0
2,note_on,51,66,0
2,note_on,51,0,148
2,note_on,67,54,0
2,note_on,67,0,240
2,note_on,55,54,0
2,note_on,60,54,0
2,note_on,60,0,230
2,note_on,55,0,0
2,note_on,53,64,0
2,note_on,67,54,183
2,note_on,67,0,240
2,note_on,55,54,0
2,note_on,59,54,0
2,note_on,59,0,226
2,note_on,55,0,0
2,note_on,53,0,0
2,note_on,51,63,0
2,note_on,63,52,203
2,note_on,63,0,240
2,note_on,55,52,0
2,note_on,60,52,0
2,note_on,60,0,229
2,note_on,55,0,0
2,note_on,51,0,0
2,note_on,50,58,0
2,note_on,62,51,148
2,note_on,62,0,240
2,note_on,55,51,0
2,note_on,55,0,240
2,note_on,50,0,0
2,note_on,48,57,0
2,note_on,60,49,143
2,note_on,60,0,240
2,note_on,51,49,0
2,note_on,55,49,0
2,note_on,55,0,230
2,note_on,51,0,0
2,note_on,48,0,0
2,note_on,46,55,0
2,note_on,61,50,183
2,note_on,61,0,240
2,note_on,51,50,0
2,note_on,55,50,0
2,note_on,55,0,240
2,note_on,51,0,0
2,note_on,46,0,0
2,note_on,44,56,0
2,note_on,44,0,145
2,note_on,59,50,0
2,note_on,59,0,240
2,note_on,51,50,0
2,note_on,56,50,0
2,note_on,56,0,231
2,note_on,51,0,0
2,note_on,43,57,0
2,note_on,43,0,125
2,note_on,63,52,0
2,note_on,63,0,240
2,note_on,51,52,0
2,note_on,58,52,0
2,note_on,58,0,240
2,note_on,51,0,0
2,note_on,44,59,0
2,note_on,44,0,140
2,note_on,63,53,0
2,note_on,63,0,240
2,note_on,51,53,0
2,note_on,56,53,0
2,note_on,59,53,0
2,note_on,59,0,231
2,note_on,56,0,0
2,note_on,51,0,0
2,note_on,46,64,0
2,note_on,46,0,148
2,note_on,63,54,0
2,note_on,63,0,240
2,note_on,51,54,0
2,note_on,55,54,0
2,note_on,61,54,0
2,note_on,61,0,240
2,note_on,55,0,0
2,note_on,51,0,0
2,note_on,47,66,0
2,note_on,47,0,145
2,note_on,63,57,0
2,note_on,63,0,240
2,note_on,51,57,0
2,note_on,56,57,0
2,note_on,59,57,0
2,note_on,59,0,230
2,note_on,56,0,0
2,note_on,51,0,0
2,note_on,43,68,0
2,note_on,43,0,68
2,note_on,63,60,0
2,note_on,63,0,240
2,note_on,51,60,0
2,note_on,58,60,0
2,note_on,58,0,240
2,note_on,51,0,0
2,note_on,44,70,0
2,note_on,44,0,157
2,note_on,63,60,0
2,note_on,63,0,240
2,note_on,51,60,0
2,note_on,56,60,0
2,note_on,59,60,0
2,note_on,59,0,232
2,note_on,56,0,0
2,note_on,51,0,0
2,note_on,46,72,0
2,note_on,46,0,205
2,note_on,63,67,0
2,note_on,63,0,240
2,note_on,51,72,0
2,note_on,55,72,0
2,note_on,61,72,0
2,note_on,61,0,231
2,note_on,55,0,0
2,note_on,51,0,0
2,note_on,35,86,0
2,note_on,47,86,0
2,note_on,47,0,120
2,note_on,35,0,0
2,note_on,64,50,360
2,note_on,56,50,0
2,note_on,56,0,240
2,note_on,64,0,0
2,note_on,71,62,0
2,note_on,59,62,0
2,note_on,59,0,134
2,note_on,71,0,0
2,note_on,56,51,240
2,note_on,64,51,0
2,note_on,64,0,240
2,note_on,56,0,0
2,note_on,59,61,0
2,note_on,71,61,0
2,note_on,71,0,240
2,note_on,59,0,0
2,note_on,35,40,0
2,note_on,47,40,0
2,note_on,47,0,120
2,note_on,35,0,0
2,note_on,63,38,600
2,note_on,66,38,0
2,note_on,57,38,0
2,note_on,60,38,0
2,note_on,60,0,228
2,note_on,63,0,0
2,note_on,66,0,0
2,note_on,57,0,0
2,note_on,60,44,0
2,note_on,57,44,0
2,note_on,63,44,0
2,note_on,68,44,0
2,note_on,68,0,240
2,note_on,60,0,0
2,note_on,57,0,0
2,note_on,63,0,0
2,note_on,63,42,0
2,note_on,66,42,0
2,note_on,57,42,0
2,note_on,60,42,0
2,note_on,60,0,240
2,note_on,63,0,0
2,note_on,66,0,0
2,note_on,57,0,0
2,note_on,66,39,0
2,note_on,63,39,0
2,note_on,60,39,0
2,note_on,57,39,0
2,note_on,57,0,71
2,note_on,66,0,0
2,note_on,63,0,0
2,note_on,60,0,0
2,note_on,35,53,600
2,note_on,47,53,0
2,note_on,47,0,231
2,note_on,35,0,0
2,note_on,45,49,0
2,note_on,33,49,0
2,note_on,33,0,240
2,note_on,45,0,0
2,note_on,36,53,0
2,note_on,48,53,0
2,note_on,48,0,240
2,note_on,36,0,0
2,note_on,35,52,0
2,note_on,47,52,0
2,note_on,47,0,28
2,note_on,35,0,0
2,note_on,64,45,120
2,note_on,56,45,0
2,note_on,56,0,240
2,note_on,64,0,0
2,note_on,64,45,0
2,note_on,56,45,0
2,note_on,56,0,240
2,note_on,64,0,0
2,note_on,71,51,0
2,note_on,59,51,0
2,note_on,59,0,360
2,note_on,71,0,0
2,note_on,64,45,0
2,note_on,56,45,0
2,note_on,56,0,120
2,note_on,64,0,0
2,note_on,56,45,0
2,note_on,64,45,0
2,note_on,64,0,240
2,note_on,56,0,0
2,note_on,59,52,0
2,note_on,71,52,0
2,note_on,71,0,240
2,note_on,59,0,0
2,note_on,38,40,712
2,note_on,50,40,0
2,note_on,50,0,85
2,note_on,38,0,0
2,note_on,66,38,600
2,note_on,68,38,0
2,note_on,59,38,0
2,note_on,59,0,50
2,note_on,68,0,0
2,note_on,66,0,0
2,note_on,59,44,0
2,note_on,66,44,0
2,note_on,69,44,0
2,note_on,69,0,240
2,note_on,66,0,0
2,note_on,59,0,0
2,note_on,66,42,0
2,note_on,68,42,0
2,note_on,59,42,0
2,note_on,59,0,240
2,note_on,68,0,0
2,note_on,66,0,0
2,note_on,68,39,0
2,note_on,65,39,0
2,note_on,59,39,0
2,note_on,59,0,45
2,note_on,65,0,0
2,note_on,68,0,0
2,note_on,38,53,600
2,note_on,50,53,0
2,note_on,50,0,103
2,note_on,38,0,0
2,note_on,48,53,0
2,note_on,36,53,0
2,note_on,36,0,240
2,note_on,48,0,0
2,note_on,37,53,0
2,note_on,49,53,0
2,note_on,49,0,125
2,note_on,37,0,0
2,note_on,40,47,0
2,note_on,52,47,0
2,note_on,52,0,68
2,note_on,40,0,0
2,note_on,68,48,600
2,note_on,70,48,0
2,note_on,61,48,0
2,note_on,61,0,116
2,note_on,70,0,0
2,note_on,68,0,0
2,note_on,61,53,0
2,note_on,68,53,0
2,note_on,71,53,0
2,note_on,71,0,240
2,note_on,68,0,0
2,note_on,61,0,0
2,note_on,68,51,0
2,note_on,70,51,0
2,note_on,61,51,0
2,note_on,61,0,240
2,note_on,70,0,0
2,note_on,68,0,0
2,note_on,70,49,0
2,note_on,67,49,0
2,note_on,61,49,0
2,note_on,61,0,45
2,note_on,67,0,0
2,note_on,70,0,0
2,note_on,40,58,600
2,note_on,52,58,0
2,note_on,52,0,114
2,note_on,40,0,0
2,note_on,50,58,0
2,note_on,38,58,0
2,note_on,38,0,240
2,note_on,50,0,0
2,note_on,39,58,0
2,note_on,51,58,0
2,note_on,51,0,137
2,note_on,39,0,0
2,note_on,42,55,0
2,note_on,54,55,0
2,note_on,54,0,51
2,note_on,42,0,0
2,note_on,60,49,360
2,note_on,63,49,0
2,note_on,69,49,0
2,note_on,69,0,240
2,note_on,63,0,0
2,note_on,60,0,0
2,note_on,63,54,0
2,note_on,69,54,0
2,note_on,75,54,0
2,note_on,75,0,240
2,note_on,69,0,0
2,note_on,63,0,0
2,note_on,60,52,240
2,note_on,63,52,0
2,note_on,69,52,0
2,note_on,69,0,240
2,note_on,63,0,0
2,note_on,60,0,0
2,note_on,63,56,0
2,note_on,69,56,0
2,note_on,75,56,0
2,note_on,75,0,240
2,note_on,69,0,0
2,note_on,63,0,0
2,note_on,54,70,240
2,note_on,66,70,0
2,note_on,66,0,228
2,note_on,54,0,0
2,note_on,54,70,12
2,note_on,66,70,0
2,note_on,66,0,228
2,note_on,54,0,0
2,note_on,54,70,12
2,note_on,66,70,0
2,note_on,66,0,228
2,note_on,54,0,0
2,note_on,54,70,12
2,note_on,66,70,0
2,note_on,66,0,228
2,note_on,54,0,0
2,note_on,53,73,12
2,note_on,60,73,0
2,note_on,63,73,0
2,note_on,69,73,0
2,note_on,69,0,240
2,note_on,53,0,0
2,note_on,60,0,0
2,note_on,63,0,0
2,note_on,89,89,0
2,note_on,89,0,120
2,note_on,88,81,0
2,note_on,88,0,120
2,note_on,87,79,0
2,note_on,87,0,120
2,note_on,84,78,0
2,note_on,84,0,120
2,note_on,81,76,0
2,note_on,81,0,240
2,note_on,65,88,240
2,note_on,65,0,120
2,note_on,64,81,0
2,note_on,64,0,120
2,note_on,63,79,0
2,note_on,63,0,120
2,note_on,60,77,0
2,note_on,60,0,120
2,note_on,57,75,0
2,note_on,57,0,240
2,note_on,41,117,240
2,note_on,41,0,240
2,note_on,34,100,0
2,note_on,46,100,0
2,note_on,46,0,194
2,note_on,34,0,0
2,note_on,70,58,0
2,note_on,58,58,0
2,note_on,58,0,240
2,note_on,70,0,0
2,note_on,65,58,0
2,note_on,61,58,0
2,note_on,61,0,240
2,note_on,65,0,0
2,note_on,44,81,0
2,note_on,56,81,0
2,note_on,56,0,45
2,note_on,44,0,0
2,note_on,68,58,0
2,note_on,56,58,0
2,note_on,56,0,240
2,note_on,68,0,0
2,note_on,65,58,0
2,note_on,60,58,0
2,note_on,60,0,137
2,note_on,65,0,0
2,note_on,42,81,0
2,note_on,54,81,0
2,note_on,54,0,152
2,note_on,42,0,0
2,note_on,66,58,0
2,note_on,54,58,0
2,note_on,54,0,240
2,note_on,66,0,0
2,note_on,61,58,0
2,note_on,58,58,0
2,note_on,58,0,240
2,note_on,61,0,0
2,note_on,41,80,0
2,note_on,53,80,0
2,note_on,53,0,80
2,note_on,41,0,0
2,note_on,65,56,0
2,note_on,53,56,0
2,note_on,53,0,240
2,note_on,65,0,0
2,note_on,61,56,0
2,note_on,56,56,0
2,note_on,56,0,120
2,note_on,61,0,0
2,note_on,39,81,0
2,note_on,51,81,0
2,note_on,51,0,144
2,note_on,39,0,0
2,note_on,63,56,0
2,note_on,51,56,0
2,note_on,51,0,240
2,note_on,63,0,0
2,note_on,58,56,0
2,note_on,54,56,0
2,note_on,54,0,240
2,note_on,58,0,0
2,note_on,37,81,0
2,note_on,49,81,0
2,note_on,49,0,114
2,note_on,37,0,0
2,note_on,61,62,0
2,note_on,49,62,0
2,note_on,49,0,240
2,note_on,61,0,0
2,note_on,53,61,0
2,note_on,58,61,0
2,note_on,58,0,114
2,note_on,53,0,0
2,note_on,36,81,0
2,note_on,48,81,0
2,note_on,48,0,113
2,note_on,36,0,0
2,note_on,60,57,0
2,note_on,48,57,0
2,note_on,48,0,240
2,note_on,60,0,0
2,note_on,51,57,0
2,note_on,54,57,0
2,note_on,54,0,240
2,note_on,51,0,0
2,note_on,34,80,0
2,note_on,46,80,0
2,note_on,46,0,125
2,note_on,34,0,0
2,note_on,58,58,0
2,note_on,46,58,0
2,note_on,51,58,240
2,note_on,54,58,0
2,note_on,54,0,137
2,note_on,58,0,0
2,note_on,46,0,0
2,note_on,51,0,0
2,note_on,48,76,0
2,note_on,45,76,0
2,note_on,53,76,0
2,note_on,57,76,0
2,note_on,57,0,160
2,note_on,48,0,0
2,note_on,45,0,0
2,note_on,53,0,0
2,note_on,52,64,0
2,note_on,52,0,120
2,note_on,53,61,0
2,note_on,53,0,120
2,note_on,56,64,0
2,note_on,54,64,14
2,note_on,56,0,20
2,note_on,53,61,60
2,note_on,54,0,20
2,note_on,53,0,50
2,note_on,34,57,10
2,note_on,46,57,19
2,note_on,46,0,148
2,note_on,34,0,0
2,note_on,63,71,0
2,note_on,51,71,0
2,note_on,51,0,240
2,note_on,63,0,0
2,note_on,49,72,0
2,note_on,61,72,0
2,note_on,61,0,173
2,note_on,49,0,0
2,note_on,41,74,0
2,note_on,48,74,8
2,note_on,57,74,15
2,note_on,57,0,131
2,note_on,48,0,0
2,note_on,41,0,0
2,note_on,52,62,0
2,note_on,52,0,120
2,note_on,53,59,0
2,note_on,53,0,120
2,note_on,56,62,0
2,note_on,54,62,45
2,note_on,56,0,20
2,note_on,53,58,60
2,note_on,54,0,20
2,note_on,53,0,50
2,note_on,34,54,0
2,note_on,46,54,30
2,note_on,46,0,152
2,note_on,34,0,0
2,note_on,60,69,0
2,note_on,48,69,0
2,note_on,48,0,240
2,note_on,60,0,0
2,note_on,46,69,0
2,note_on,58,69,0
2,note_on,58,0,162
2,note_on,46,0,0
2,note_on,41,75,0
2,note_on,48,75,6
2,note_on,57,75,15
2,note_on,57,0,148
2,note_on,48,0,0
2,note_on,41,0,0
2,note_on,52,61,0
2,note_on,52,0,120
2,note_on,53,58,0
2,note_on,53,0,120
2,note_on,56,61,0
2,note_on,54,61,40
2,note_on,56,0,20
2,note_on,53,57,60
2,note_on,54,0,20
2,note_on,53,0,50
2,note_on,34,55,10
2,note_on,46,55,5
2,note_on,46,0,144
2,note_on,34,0,0
2,note_on,63,74,0
2,note_on,51,74,0
2,note_on,51,0,240
2,note_on,63,0,0
2,note_on,49,73,0
2,note_on,61,73,0
2,note_on,61,0,183
2,note_on,49,0,0
2,note_on,41,75,0
2,note_on,48,75,15
2,note_on,57,74,15
2,note_on,57,0,157
2,note_on,48,0,0
2,note_on,41,0,0
2,note_on,52,67,0
2,note_on,52,0,120
2,note_on,53,63,0
2,note_on,53,0,120
2,note_on,56,67,0
2,note_on,54,67,25
2,note_on,56,0,20
2,note_on,53,62,60
2,note_on,54,0,20
2,note_on,53,0,50
2,note_on,34,60,10
2,note_on,46,60,23
2,note_on,46,0,148
2,note_on,34,0,0
2,note_on,60,74,0
2,note_on,48,74,0
2,note_on,48,0,240
2,note_on,60,0,0
2,note_on,46,74,0
2,note_on,58,74,0
2,note_on,58,0,152
2,note_on,46,0,0
2,note_on,41,75,0
2,note_on,48,75,15
2,note_on,57,74,4
2,note_on,57,0,165
2,note_on,48,0,0
2,note_on,41,0,0
2,note_on,52,63,0
2,note_on,52,0,120
2,note_on,53,60,0
2,note_on,53,0,120
2,note_on,56,63,0
2,note_on,54,63,20
2,note_on,56,0,20
2,note_on,53,60,60
2,note_on,54,0,20
2,note_on,53,0,50
2,note_on,53,74,0
2,note_on,53,0,120
2,note_on,61,71,0
2,note_on,61,0,240
2,note_on,60,73,0
2,note_on,60,0,146
2,note_on,41,76,0
2,note_on,48,76,0
2,note_on,57,76,15
2,note_on,57,0,152
2,note_on,48,0,0
2,note_on,41,0,0
2,note_on,47,67,0
2,note_on,47,0,120
2,note_on,48,64,0
2,note_on,48,0,120
2,note_on,51,67,0
2,note_on,49,67,20
2,note_on,51,0,20
2,note_on,48,64,60
2,note_on,49,0,20
2,note_on,48,0,50
2,note_on,36,74,0
2,note_on,48,74,0
2,note_on,48,0,91
2,note_on,36,0,0
2,note_on,58,73,0
2,note_on,58,0,240
2,note_on,57,70,0
2,note_on,57,0,125
2,note_on,41,69,0
2,note_on,48,69,6
2,note_on,57,69,15
2,note_on,57,0,191
2,note_on,48,0,0
2,note_on,41,0,0
2,note_on,52,66,0
2,note_on,52,0,120
2,note_on,53,63,0
2,note_on,53,0,120
2,note_on,56,66,0
2,note_on,54,66,40
2,note_on,56,0,20
2,note_on,53,63,60
2,note_on,54,0,20
2,note_on,53,0,50
2,note_on,53,74,0
2,note_on,53,0,120
2,note_on,61,74,0
2,note_on,61,0,240
2,note_on,60,71,0
2,note_on,60,0,93
2,note_on,41,68,0
2,note_on,48,68,15
2,note_on,57,68,15
2,note_on,57,0,166
2,note_on,48,0,0
2,note_on,41,0,0
2,note_on,47,66,0
2,note_on,47,0,120
2,note_on,48,64,0
2,note_on,48,0,120
2,note_on,51,66,0
2,note_on,49,66,30
2,note_on,51,0,20
2,note_on,48,63,60
2,note_on,49,0,20
2,note_on,48,0,50
2,note_on,36,75,0
2,note_on,48,75,0
2,note_on,48,0,68
2,note_on,36,0,0
2,note_on,58,69,0
2,note_on,58,0,240
2,note_on,57,71,0
2,note_on,57,0,148
2,note_on,41,59,0
2,note_on,48,59,10
2,note_on,57,59,15
2,note_on,57,0,155
2,note_on,48,0,0
2,note_on,41,0,0
2,note_on,47,61,0
2,note_on,47,0,120
2,note_on,48,57,0
2,note_on,48,0,120
2,note_on,51,61,0
2,note_on,49,61,23
2,note_on,51,0,20
2,note_on,48,57,60
2,note_on,49,0,20
2,note_on,48,0,50
2,note_on,36,69,0
2,note_on,48,69,0
2,note_on,48,0,60
2,note_on,36,0,0
2,note_on,58,67,0
2,note_on,58,0,240
2,note_on,57,65,0
2,note_on,57,0,137
2,note_on,41,62,0
2,note_on,48,62,1
2,note_on,57,62,15
2,note_on,57,0,180
2,note_on,48,0,0
2,note_on,41,0,0
2,note_on,47,56,0
2,note_on,47,0,120
2,note_on,48,53,0
2,note_on,48,0,120
2,note_on,51,57,0
2,note_on,49,57,20
2,note_on,51,0,20
2,note_on,48,54,60
2,note_on,49,0,20
2,note_on,48,0,50
2,note_on,36,65,0
2,note_on,48,65,0
2,note_on,48,0,45
2,note_on,36,0,0
2,note_on,58,60,0
2,note_on,58,0,240
2,note_on,57,60,0
2,note_on,57,0,226
2,note_on,41,56,0
2,note_on,48,56,15
2,note_on,53,56,15
2,note_on,53,0,210
2,note_on,48,0,0
2,note_on,41,0,0
2,note_on,35,48,0
2,note_on,36,44,120
2,note_on,35,0,30
2,note_on,39,48,90
2,note_on,36,0,30
2,note_on,37,48,50
2,note_on,39,0,20
2,note_on,36,45,60
2,note_on,37,0,20
2,note_on,36,0,50
2,note_on,36,55,10
2,note_on,36,0,240
2,note_on,46,55,0
2,note_on,46,0,120
2,note_on,45,53,120
2,note_on,45,0,120
2,note_on,41,56,120
2,note_on,41,0,240
2,note_on,35,43,0
2,note_on,36,40,120
2,note_on,35,0,30
2,note_on,39,43,90
2,note_on,36,0,30
2,note_on,37,43,50
2,note_on,39,0,20
2,note_on,36,40,60
2,note_on,37,0,20
2,note_on,36,0,50
2,note_on,36,46,10
2,note_on,36,0,240
2,note_on,46,49,0
2,note_on,46,0,120
2,note_on,45,49,120
2,note_on,45,0,120
2,note_on,41,52,120
2,note_on,41,0,240
2,note_on,35,44,1440
2,note_on,36,41,120
2,note_on,35,0,30
2,note_on,39,44,90
2,note_on,36,0,30
2,note_on,37,44,50
2,note_on,39,0,20
2,note_on,36,41,60
2,note_on,37,0,20
2,note_on,36,0,50
2,note_on,36,52,10
2,note_on,36,0,120
2,note_on,46,49,120
2,note_on,46,0,120
2,note_on,45,46,120
2,note_on,45,0,120
2,note_on,41,52,120
2,note_on,41,0,240
2,note_on,34,43,720
2,note_on,34,0,240
2,note_on,33,43,0
2,note_on,33,0,240
2,note_on,29,43,0
2,note_on,29,0,720
2,note_on,45,27,480
2,note_on,45,0,80
2,note_on,46,28,0
2,note_on,46,0,80
2,note_on,49,29,0
2,note_on,49,0,80
2,note_on,53,33,0
2,note_on,53,0,120
2,note_on,45,26,360
2,note_on,45,0,80
2,note_on,46,27,0
2,note_on,46,0,80
2,note_on,49,29,0
2,note_on,49,0,80
2,note_on,53,38,0
2,note_on,53,0,1440
2,note_on,34,95,0
2,note_on,46,95,0
2,note_on,46,0,70
2,note_on,34,0,0
2,note_on,58,72,600
2,note_on,60,72,0
2,note_on,63,85,0
2,note_on,66,85,0
2,note_on,70,85,0
2,note_on,70,0,1440
2,note_on,63,0,0
2,note_on,58,0,0
2,note_on,60,0,0
2,note_on,66,0,0
2,note_on,58,47,0
2,note_on,60,47,0
2,note_on,63,56,0
2,note_on,66,56,0
2,note_on,70,56,0
2,note_on,70,0,360
2,note_on,63,0,0
2,note_on,58,0,0
2,note_on,60,0,0
2,note_on,66,0,0
2,note_on,58,51,0
2,note_on,60,51,0
2,note_on,63,61,0
2,note_on,66,61,0
2,note_on,70,61,0
2,note_on,70,0,120
2,note_on,63,0,0
2,note_on,58,0,0
2,note_on,60,0,0
2,note_on,66,0,0
2,note_on,58,56,0
2,note_on,60,56,0
2,note_on,63,66,0
2,note_on,66,66,0
2,note_on,70,66,0
2,note_on,70,0,240
2,note_on,63,0,0
2,note_on,58,0,0
2,note_on,60,0,0
2,note_on,66,0,0
2,note_on,58,52,0
2,note_on,61,52,0
2,note_on,65,62,0
2,note_on,70,62,0
2,note_on,70,0,240
2,note_on,58,0,0
2,note_on,61,0,0
2,note_on,65,0,0
2,note_on,45,27,240
2,note_on,45,0,80
2,note_on,46,28,0
2,note_on,46,0,80
2,note_on,49,30,0
2,note_on,49,0,80
2,note_on,53,33,0
2,note_on,53,0,120
2,note_on,45,26,360
2,note_on,45,0,80
2,note_on,46,28,0
2,note_on,46,0,80
2,note_on,49,30,0
2,note_on,49,0,80
2,note_on,53,37,0
2,note_on,53,0,1440
2,note_on,32,95,0
2,note_on,44,95,0
2,note_on,44,0,70
2,note_on,32,0,0
2,note_on,56,75,540
2,note_on,65,89,30
2,note_on,73,89,30
2,note_on,73,0,1440
2,note_on,65,0,0
2,note_on,56,0,0
2,note_on,56,49,0
2,note_on,63,58,0
2,note_on,66,58,0
2,note_on,68,58,0
2,note_on,68,0,360
2,note_on,56,0,0
2,note_on,63,0,0
2,note_on,66,0,0
2,note_on,56,53,0
2,note_on,63,63,0
2,note_on,66,63,0
2,note_on,68,63,0
2,note_on,68,0,120
2,note_on,56,0,0
2,note_on,63,0,0
2,note_on,66,0,0
2,note_on,56,57,0
2,note_on,63,68,0
2,note_on,66,68,0
2,note_on,68,68,0
2,note_on,68,0,240
2,note_on,56,0,0
2,note_on,63,0,0
2,note_on,66,0,0
2,note_on,68,65,0
2,note_on,61,55,0
2,note_on,65,65,0
2,note_on,65,0,235
2,note_on,61,0,0
2,note_on,68,0,0
2,note_on,65,77,0
2,note_on,60,77,0
2,note_on,53,65,0
2,note_on,53,0,480
2,note_on,60,0,0
2,note_on,65,0,0
2,note_on,41,65,240
2,note_on,48,77,0
2,note_on,53,77,0
2,note_on,53,0,480
2,note_on,48,0,0
2,note_on,41,0,0
2,note_on,29,79,240
2,note_on,41,94,0
2,note_on,41,0,1680
2,note_on,29,0,0
2,note_on,30,82,0
2,note_on,42,97,0
2,note_on,42,0,180
2,note_on,30,0,0
2,note_on,45,27,480
2,note_on,45,0,80
2,note_on,46,28,0
2,note_on,46,0,80
2,note_on,49,29,0
2,note_on,49,0,80
2,note_on,53,33,0
2,note_on,53,0,120
2,note_on,45,27,360
2,note_on,45,0,80
2,note_on,46,28,0
2,note_on,46,0,80
2,note_on,49,29,0
2,note_on,49,0,80
2,note_on,53,37,0
2,note_on,53,0,1440
2,note_on,46,95,0
2,note_on,34,95,0
2,note_on,34,0,28
2,note_on,46,0,0
2,note_on,63,85,600
2,note_on,58,72,0
2,note_on,60,72,0
2,note_on,70,85,0
2,note_on,66,85,0
2,note_on,66,0,1080
2,note_on,60,0,0
2,note_on,63,0,0
2,note_on,58,0,0
2,note_on,70,0,0
2,note_on,58,47,0
2,note_on,60,47,0
2,note_on,63,56,0
2,note_on,66,56,0
2,note_on,70,56,0
2,note_on,70,0,120
2,note_on,63,0,0
2,note_on,58,0,0
2,note_on,60,0,0
2,note_on,66,0,0
2,note_on,58,47,0
2,note_on,60,47,0
2,note_on,63,56,0
2,note_on,66,56,0
2,note_on,70,56,0
2,note_on,70,0,240
2,note_on,63,0,0
2,note_on,58,0,0
2,note_on,60,0,0
2,note_on,66,0,0
2,note_on,63,56,0
2,note_on,58,47,0
2,note_on,60,47,0
2,note_on,66,56,0
2,note_on,70,56,0
2,note_on,70,0,360
2,note_on,60,0,0
2,note_on,63,0,0
2,note_on,58,0,0
2,note_on,66,0,0
2,note_on,60,51,0
2,note_on,63,61,0
2,note_on,58,51,0
2,note_on,66,61,0
2,note_on,70,61,0
2,note_on,70,0,120
2,note_on,58,0,0
2,note_on,60,0,0
2,note_on,63,0,0
2,note_on,66,0,0
2,note_on,63,66,0
2,note_on,66,66,0
2,note_on,58,56,0
2,note_on,60,56,0
2,note_on,70,66,0
2,note_on,70,0,240
2,note_on,58,0,0
2,note_on,63,0,0
2,note_on,66,0,0
2,note_on,60,0,0
2,note_on,65,62,0
2,note_on,58,52,0
2,note_on,61,62,0
2,note_on,70,62,0
2,note_on,70,0,234
2,note_on,65,0,0
2,note_on,58,0,0
2,note_on,61,0,0
2,note_on,45,27,240
2,note_on,45,0,80
2,note_on,46,29,0
2,note_on,46,0,80
2,note_on,49,30,0
2,note_on,49,0,80
2,note_on,53,34,0
2,note_on,53,0,120
2,note_on,45,24,360
2,note_on,45,0,80
2,note_on,46,26,0
2,note_on,46,0,80
2,note_on,49,27,0
2,note_on,49,0,80
2,note_on,53,37,0
2,note_on,53,0,1440
2,note_on,24,95,0
2,note_on,36,95,0
2,note_on,36,0,63
2,note_on,24,0,0
2,note_on,68,89,600
2,note_on,72,89,0
2,note_on,65,75,0
2,note_on,60,75,0
2,note_on,60,0,1440
2,note_on,68,0,0
2,note_on,72,0,0
2,note_on,65,0,0
2,note_on,60,49,0
2,note_on,70,58,0
2,note_on,64,58,0
2,note_on,72,58,0
2,note_on,72,0,360
2,note_on,60,0,0
2,note_on,70,0,0
2,note_on,64,0,0
2,note_on,64,63,0
2,note_on,60,53,0
2,note_on,72,63,0
2,note_on,70,63,0
2,note_on,70,0,120
2,note_on,64,0,0
2,note_on,60,0,0
2,note_on,72,0,0
2,note_on,70,68,0
2,note_on,60,57,0
2,note_on,64,68,0
2,note_on,72,68,0
2,note_on,72,0,240
2,note_on,70,0,0
2,note_on,60,0,0
2,note_on,64,0,0
2,note_on,72,65,0
2,note_on,65,55,0
2,note_on,68,65,0
2,note_on,68,0,232
2,note_on,65,0,0
2,note_on,72,0,0
2,note_on,53,65,480
2,note_on,65,77,0
2,note_on,60,77,0
2,note_on,60,0,480
2,note_on,65,0,0
2,note_on,53,0,0
2,note_on,53,77,240
2,note_on,48,77,0
2,note_on,41,65,0
2,note_on,41,0,480
2,note_on,48,0,0
2,note_on,53,0,0
2,note_on,28,79,240
2,note_on,40,94,0
2,note_on,40,0,1440
2,note_on,28,0,0
2,note_on,29,94,0
2,note_on,29,0,720
2,note_on,26,45,0
2,note_on,27,45,80
2,note_on,26,0,10
2,note_on,29,45,70
2,note_on,27,0,10
2,note_on,27,46,70
2,note_on,29,0,10
2,note_on,29,47,70
2,note_on,27,0,10
2,note_on,29,0,70
2,note_on,27,49,0
2,note_on,29,50,80
2,note_on,27,0,10
2,note_on,27,51,70
2,note_on,29,0,10
2,note_on,29,51,70
2,note_on,27,0,10
2,note_on,27,52,70
2,note_on,29,0,10
2,note_on,29,53,50
2,note_on,27,0,10
2,note_on,27,53,50
2,note_on,29,0,10
2,note_on,29,54,50
2,note_on,27,0,10
2,note_on,27,55,50
2,note_on,29,0,10
2,note_on,29,55,50
2,note_on,27,0,10
2,note_on,27,56,50
2,note_on,29,0,10
2,note_on,29,56,50
2,note_on,27,0,10
2,note_on,27,59,50
2,note_on,29,0,10
2,note_on,26,73,70
2,note_on,27,0,10
2,note_on,27,73,70
2,note_on,26,0,10
2,note_on,25,74,0
2,note_on,37,88,0
2,note_on,27,0,10
2,note_on,37,0,110
2,note_on,25,0,0
2,note_on,44,45,346
2,note_on,56,45,0
2,note_on,56,0,240
2,note_on,44,0,0
2,note_on,61,53,0
2,note_on,53,53,0
2,note_on,53,0,240
2,note_on,61,0,0
2,note_on,44,42,240
2,note_on,56,42,0
2,note_on,56,0,240
2,note_on,44,0,0
2,note_on,53,47,0
2,note_on,61,47,0
2,note_on,61,0,240
2,note_on,53,0,0
2,note_on,32,52,0
2,note_on,44,52,0
2,note_on,44,0,120
2,note_on,32,0,0
2,note_on,66,38,0
2,note_on,55,38,0
2,note_on,60,38,0
2,note_on,60,0,240
2,note_on,55,0,0
2,note_on,66,0,0
2,note_on,56,35,0
2,note_on,60,35,0
2,note_on,66,35,0
2,note_on,66,0,240
2,note_on,60,0,0
2,note_on,56,0,0
2,note_on,66,31,0
2,note_on,56,31,0
2,note_on,60,31,0
2,note_on,60,0,120
2,note_on,56,0,0
2,note_on,66,0,0
2,note_on,57,35,840
2,note_on,60,35,0
2,note_on,66,35,0
2,note_on,66,0,240
2,note_on,60,0,0
2,note_on,57,0,0
2,note_on,66,32,0
2,note_on,60,32,0
2,note_on,56,32,0
2,note_on,56,0,240
2,note_on,60,0,0
2,note_on,66,0,0
2,note_on,66,28,0
2,note_on,60,28,0
2,note_on,56,28,0
2,note_on,56,0,120
2,note_on,60,0,0
2,note_on,66,0,0
2,note_on,25,74,120
2,note_on,37,88,0
2,note_on,37,0,56
2,note_on,25,0,0
2,note_on,44,45,360
2,note_on,56,45,0
2,note_on,56,0,240
2,note_on,44,0,0
2,note_on,61,53,0
2,note_on,53,53,0
2,note_on,53,0,240
2,note_on,61,0,0
2,note_on,44,42,240
2,note_on,56,42,0
2,note_on,56,0,240
2,note_on,44,0,0
2,note_on,53,47,0
2,note_on,61,47,0
2,note_on,61,0,240
2,note_on,53,0,0
2,note_on,44,25,713
2,note_on,51,25,0
2,note_on,54,25,0
2,note_on,54,0,720
2,note_on,51,0,0
2,note_on,44,0,0
2,note_on,60,32,0
2,note_on,60,0,120
2,note_on,61,32,0
2,note_on,61,0,120
2,note_on,63,32,0
2,note_on,63,0,120
2,note_on,65,32,0
2,note_on,65,0,120
2,note_on,66,32,0
2,note_on,66,0,120
2,note_on,68,32,0
2,note_on,68,0,120
2,note_on,69,32,0
2,note_on,69,0,120
2,note_on,57,30,600
2,note_on,57,0,120
2,note_on,56,29,0
2,note_on,56,0,120
2,note_on,55,28,0
2,note_on,55,0,120
2,note_on,54,27,0
2,note_on,54,0,120
2,note_on,53,26,0
2,note_on,53,0,120
2,note_on,51,25,0
2,note_on,51,0,120
2,note_on,49,27,0
2,note_on,49,0,77
2,note_on,56,28,0
2,note_on,56,0,120
2,note_on,61,30,0
2,note_on,61,0,120
2,note_on,65,34,0
2,note_on,65,0,120
2,note_on,61,31,0
2,note_on,61,0,120
2,note_on,56,30,0
2,note_on,56,0,120
2,note_on,49,29,0
2,note_on,49,0,120
2,note_on,59,28,0
2,note_on,59,0,120
2,note_on,61,30,0
2,note_on,61,0,120
2,note_on,65,31,0
2,note_on,65,0,120
2,note_on,61,30,0
2,note_on,61,0,120
2,note_on,59,29,0
2,note_on,59,0,120
2,note_on,54,28,0
2,note_on,54,0,23
2,note_on,59,28,0
2,note_on,59,0,120
2,note_on,61,31,0
2,note_on,61,0,120
2,note_on,66,34,0
2,note_on,66,0,120
2,note_on,61,31,0
2,note_on,61,0,120
2,note_on,59,29,0
2,note_on,59,0,120
2,note_on,49,29,0
2,note_on,49,0,42
2,note_on,58,28,0
2,note_on,58,0,120
2,note_on,61,30,0
2,note_on,61,0,120
2,note_on,66,33,0
2,note_on,66,0,120
2,note_on,61,31,0
2,note_on,61,0,120
2,note_on,58,30,0
2,note_on,58,0,120
2,note_on,56,28,0
2,note_on,56,0,51
2,note_on,59,28,0
2,note_on,59,0,120
2,note_on,61,30,0
2,note_on,61,0,120
2,note_on,68,33,0
2,note_on,68,0,120
2,note_on,61,31,0
2,note_on,61,0,120
2,note_on,59,29,0
2,note_on,59,0,120
2,note_on,49,29,0
2,note_on,49,0,34
2,note_on,59,28,0
2,note_on,59,0,120
2,note_on,61,30,0
2,note_on,61,0,120
2,note_on,65,31,0
2,note_on,65,0,120
2,note_on,61,30,0
2,note_on,61,0,120
2,note_on,59,29,0
2,note_on,59,0,120
2,note_on,54,29,0
2,note_on,54,0,14
2,note_on,58,30,0
2,note_on,58,0,120
2,note_on,61,34,0
2,note_on,61,0,120
2,note_on,66,35,0
2,note_on,66,0,120
2,note_on,61,34,0
2,note_on,61,0,120
2,note_on,58,33,0
2,note_on,58,0,120
2,note_on,52,35,0
2,note_on,52,0,63
2,note_on,58,36,0
2,note_on,58,0,120
2,note_on,61,39,0
2,note_on,61,0,120
2,note_on,68,37,0
2,note_on,68,0,120
2,note_on,61,34,0
2,note_on,61,0,120
2,note_on,58,31,0
2,note_on,58,0,120
2,note_on,51,36,0
2,note_on,51,0,28
2,note_on,58,38,0
2,note_on,58,0,120
2,note_on,61,41,0
2,note_on,61,0,120
2,note_on,67,45,0
2,note_on,67,0,120
2,note_on,61,42,0
2,note_on,61,0,120
2,note_on,58,39,0
2,note_on,58,0,120
2,note_on,55,36,0
2,note_on,55,0,65
2,note_on,61,38,0
2,note_on,61,0,120
2,note_on,63,41,0
2,note_on,63,0,120
2,note_on,70,46,0
2,note_on,70,0,120
2,note_on,63,42,0
2,note_on,63,0,120
2,note_on,61,39,0
2,note_on,61,0,120
2,note_on,56,37,0
2,note_on,56,0,42
2,note_on,61,38,0
2,note_on,61,0,120
2,note_on,63,42,0
2,note_on,63,0,120
2,note_on,68,45,0
2,note_on,68,0,120
2,note_on,63,41,0
2,note_on,63,0,120
2,note_on,61,38,0
2,note_on,61,0,120
2,note_on,51,36,0
2,note_on,51,0,35
2,note_on,60,37,0
2,note_on,60,0,120
2,note_on,63,40,0
2,note_on,63,0,120
2,note_on,68,44,0
2,note_on,68,0,120
2,note_on,63,41,0
2,note_on,63,0,120
2,note_on,60,39,0
2,note_on,60,0,120
2,note_on,58,36,0
2,note_on,58,0,14
2,note_on,61,37,0
2,note_on,61,0,120
2,note_on,63,40,0
2,note_on,63,0,120
2,note_on,70,42,0
2,note_on,70,0,120
2,note_on,63,41,0
2,note_on,63,0,120
2,note_on,61,39,0
2,note_on,61,0,120
2,note_on,51,37,0
2,note_on,51,0,113
2,note_on,61,36,0
2,note_on,61,0,120
2,note_on,63,38,0
2,note_on,63,0,120
2,note_on,67,40,0
2,note_on,67,0,120
2,note_on,63,40,0
2,note_on,63,0,120
2,note_on,61,37,0
2,note_on,61,0,120
2,note_on,56,50,0
2,note_on,56,0,14
2,note_on,60,40,0
2,note_on,60,0,120
2,note_on,63,44,0
2,note_on,63,0,120
2,note_on,68,45,0
2,note_on,68,0,120
2,note_on,63,44,0
2,note_on,63,0,120
2,note_on,60,42,0
2,note_on,60,0,120
2,note_on,55,39,0
2,note_on,56,41,49
2,note_on,56,0,120
2,note_on,60,45,0
2,note_on,60,0,120
2,note_on,63,49,0
2,note_on,63,0,120
2,note_on,60,47,0
2,note_on,60,0,120
2,note_on,56,41,0
2,note_on,56,0,120
2,note_on,55,0,0
2,note_on,54,38,0
2,note_on,56,36,14
2,note_on,56,0,120
2,note_on,60,39,0
2,note_on,60,0,120
2,note_on,63,42,0
2,note_on,63,0,120
2,note_on,60,41,0
2,note_on,60,0,120
2,note_on,56,38,0
2,note_on,56,0,120
2,note_on,54,0,0
2,note_on,54,47,0
2,note_on,56,41,120
2,note_on,56,0,120
2,note_on,60,41,0
2,note_on,60,0,120
2,note_on,63,41,0
2,note_on,63,0,120
2,note_on,60,38,0
2,note_on,60,0,120
2,note_on,56,35,0
2,note_on,56,0,120
2,note_on,54,0,0
2,note_on,53,34,0
2,note_on,56,33,0
2,note_on,56,0,120
2,note_on,61,36,0
2,note_on,61,0,120
2,note_on,65,39,0
2,note_on,65,0,120
2,note_on,61,37,0
2,note_on,61,0,120
2,note_on,56,35,0
2,note_on,56,0,120
2,note_on,53,0,0
2,note_on,53,36,0
2,note_on,53,0,120
2,note_on,56,38,0
2,note_on,56,0,120
2,note_on,61,41,0
2,note_on,61,0,120
2,note_on,68,42,0
2,note_on,68,0,120
2,note_on,61,40,0
2,note_on,61,0,120
2,note_on,56,37,0
2,note_on,56,0,120
2,note_on,51,35,0
2,note_on,51,0,63
2,note_on,56,38,0
2,note_on,56,0,120
2,note_on,60,41,0
2,note_on,60,0,120
2,note_on,66,41,0
2,note_on,66,0,120
2,note_on,60,39,0
2,note_on,60,0,120
2,note_on,56,36,0
2,note_on,56,0,120
2,note_on,51,34,0
2,note_on,51,0,120
2,note_on,56,34,0
2,note_on,56,0,120
2,note_on,60,37,0
2,note_on,60,0,120
2,note_on,66,39,0
2,note_on,66,0,120
2,note_on,60,36,0
2,note_on,60,0,120
2,note_on,56,31,0
2,note_on,56,0,120
2,note_on,50,31,0
2,note_on,50,0,57
2,note_on,56,31,0
2,note_on,56,0,120
2,note_on,59,35,0
2,note_on,59,0,120
2,note_on,65,37,0
2,note_on,65,0,120
2,note_on,59,36,0
2,note_on,59,0,120
2,note_on,56,34,0
2,note_on,56,0,120
2,note_on,50,34,0
2,note_on,50,0,57
2,note_on,56,30,0
2,note_on,56,0,120
2,note_on,58,35,0
2,note_on,58,0,120
2,note_on,65,37,0
2,note_on,65,0,120
2,note_on,58,36,0
2,note_on,58,0,120
2,note_on,56,34,0
2,note_on,56,0,120
2,note_on,51,34,0
2,note_on,51,0,14
2,note_on,54,35,0
2,note_on,54,0,120
2,note_on,58,38,0
2,note_on,58,0,120
2,note_on,63,39,0
2,note_on,63,0,120
2,note_on,58,38,0
2,note_on,58,0,120
2,note_on,54,36,0
2,note_on,54,0,120
2,note_on,42,34,0
2,note_on,42,0,120
2,note_on,54,31,0
2,note_on,54,0,120
2,note_on,58,36,0
2,note_on,58,0,120
2,note_on,63,38,0
2,note_on,63,0,120
2,note_on,58,36,0
2,note_on,58,0,120
2,note_on,54,34,0
2,note_on,54,0,120
2,note_on,44,35,0
2,note_on,44,0,116
2,note_on,53,36,0
2,note_on,53,0,120
2,note_on,56,37,0
2,note_on,56,0,120
2,note_on,61,39,0
2,note_on,61,0,120
2,note_on,56,37,0
2,note_on,56,0,120
2,note_on,53,35,0
2,note_on,53,0,120
2,note_on,44,33,0
2,note_on,44,0,120
2,note_on,53,34,0
2,note_on,53,0,120
2,note_on,56,35,0
2,note_on,56,0,120
2,note_on,61,38,0
2,note_on,61,0,120
2,note_on,56,37,0
2,note_on,56,0,120
2,note_on,53,36,0
2,note_on,53,0,120
2,note_on,44,39,0
2,note_on,44,0,21
2,note_on,54,34,0
2,note_on,54,0,120
2,note_on,56,36,0
2,note_on,56,0,120
2,note_on,60,36,0
2,note_on,60,0,120
2,note_on,56,35,0
2,note_on,56,0,120
2,note_on,54,34,0
2,note_on,54,0,120
2,note_on,44,31,0
2,note_on,44,0,67
2,note_on,54,31,0
2,note_on,54,0,120
2,note_on,56,35,0
2,note_on,56,0,120
2,note_on,60,37,0
2,note_on,60,0,120
2,note_on,56,35,0
2,note_on,56,0,120
2,note_on,54,33,0
2,note_on,54,0,120
2,note_on,49,33,0
2,note_on,49,0,56
2,note_on,56,33,0
2,note_on,56,0,120
2,note_on,61,36,0
2,note_on,61,0,120
2,note_on,65,37,0
2,note_on,65,0,120
2,note_on,61,36,0
2,note_on,61,0,120
2,note_on,58,35,0
2,note_on,58,0,120
2,note_on,56,36,0
2,note_on,61,36,35
2,note_on,61,0,120
2,note_on,56,0,0
2,note_on,65,39,0
2,note_on,65,0,120
2,note_on,68,40,0
2,note_on,68,0,120
2,note_on,65,39,0
2,note_on,65,0,120
2,note_on,61,38,0
2,note_on,61,0,120
2,note_on,54,38,0
2,note_on,56,42,63
2,note_on,56,0,120
2,note_on,60,42,0
2,note_on,60,0,120
2,note_on,63,42,0
2,note_on,63,0,120
2,note_on,60,42,0
2,note_on,60,0,120
2,note_on,56,42,0
2,note_on,56,0,120
2,note_on,54,0,0
2,note_on,54,41,0
2,note_on,56,45,120
2,note_on,56,0,120
2,note_on,60,45,0
2,note_on,60,0,120
2,note_on,63,45,0
2,note_on,63,0,120
2,note_on,60,41,0
2,note_on,60,0,120
2,note_on,56,38,0
2,note_on,56,0,120
2,note_on,54,0,0
2,note_on,53,37,0
2,note_on,56,36,21
2,note_on,56,0,120
2,note_on,61,39,0
2,note_on,61,0,120
2,note_on,65,42,0
2,note_on,65,0,120
2,note_on,61,40,0
2,note_on,61,0,120
2,note_on,56,38,0
2,note_on,56,0,120
2,note_on,53,0,0
2,note_on,53,39,0
2,note_on,53,0,120
2,note_on,56,41,0
2,note_on,56,0,120
2,note_on,61,45,0
2,note_on,61,0,120
2,note_on,68,46,0
2,note_on,68,0,120
2,note_on,61,44,0
2,note_on,61,0,120
2,note_on,56,40,0
2,note_on,56,0,120
2,note_on,51,39,0
2,note_on,51,0,7
2,note_on,56,41,0
2,note_on,56,0,120
2,note_on,60,45,0
2,note_on,60,0,120
2,note_on,66,45,0
2,note_on,66,0,120
2,note_on,60,42,0
2,note_on,60,0,120
2,note_on,56,39,0
2,note_on,56,0,120
2,note_on,51,38,0
2,note_on,51,0,111
2,note_on,56,37,0
2,note_on,56,0,99
2,note_on,60,40,0
2,note_on,60,0,120
2,note_on,66,42,0
2,note_on,66,0,120
2,note_on,60,39,0
2,note_on,60,0,120
2,note_on,56,34,0
2,note_on,56,0,120
2,note_on,50,35,0
2,note_on,50,0,23
2,note_on,56,37,0
2,note_on,56,0,120
2,note_on,59,41,0
2,note_on,59,0,120
2,note_on,65,44,0
2,note_on,65,0,120
2,note_on,59,42,0
2,note_on,59,0,120
2,note_on,56,40,0
2,note_on,56,0,120
2,note_on,50,35,0
2,note_on,50,0,45
2,note_on,56,36,0
2,note_on,56,0,120
2,note_on,58,41,0
2,note_on,58,0,120
2,note_on,65,44,0
2,note_on,65,0,120
2,note_on,58,42,0
2,note_on,58,0,120
2,note_on,56,40,0
2,note_on,56,0,120
2,note_on,51,37,0
2,note_on,51,0,56
2,note_on,54,38,0
2,note_on,54,0,120
2,note_on,58,41,0
2,note_on,58,0,120
2,note_on,63,42,0
2,note_on,63,0,120
2,note_on,58,41,0
2,note_on,58,0,120
2,note_on,54,39,0
2,note_on,54,0,120
2,note_on,42,37,0
2,note_on,42,0,7
2,note_on,54,34,0
2,note_on,54,0,120
2,note_on,58,39,0
2,note_on,58,0,120
2,note_on,63,41,0
2,note_on,63,0,120
2,note_on,58,39,0
2,note_on,58,0,120
2,note_on,54,37,0
2,note_on,54,0,120
2,note_on,44,37,0
2,note_on,44,0,14
2,note_on,53,39,0
2,note_on,53,0,120
2,note_on,56,40,0
2,note_on,56,0,120
2,note_on,61,42,0
2,note_on,61,0,120
2,note_on,56,40,0
2,note_on,56,0,120
2,note_on,53,38,0
2,note_on,53,0,120
2,note_on,44,35,0
2,note_on,44,0,28
2,note_on,53,35,0
2,note_on,53,0,120
2,note_on,56,37,0
2,note_on,56,0,120
2,note_on,61,39,0
2,note_on,61,0,120
2,note_on,56,37,0
2,note_on,56,0,120
2,note_on,53,35,0
2,note_on,53,0,120
2,note_on,44,38,0
2,note_on,44,0,34
2,note_on,53,37,0
2,note_on,53,0,120
2,note_on,56,39,0
2,note_on,56,0,120
2,note_on,62,41,0
2,note_on,62,0,120
2,note_on,56,39,0
2,note_on,56,0,120
2,note_on,53,36,0
2,note_on,53,0,120
2,note_on,44,40,0
2,note_on,44,0,63
2,note_on,53,39,0
2,note_on,53,0,120
2,note_on,56,43,0
2,note_on,56,0,120
2,note_on,62,48,0
2,note_on,62,0,120
2,note_on,56,45,0
2,note_on,56,0,120
2,note_on,53,41,0
2,note_on,53,0,120
2,note_on,44,40,0
2,note_on,44,0,120
2,note_on,53,40,0
2,note_on,53,0,120
2,note_on,56,43,0
2,note_on,56,0,120
2,note_on,62,45,0
2,note_on,62,0,120
2,note_on,56,42,0
2,note_on,56,0,120
2,note_on,53,36,0
2,note_on,53,0,120
2,note_on,44,52,0
2,note_on,44,0,23
2,note_on,53,40,0
2,note_on,53,0,120
2,note_on,56,43,0
2,note_on,56,0,120
2,note_on,62,47,0
2,note_on,62,0,120
2,note_on,56,44,0
2,note_on,56,0,120
2,note_on,53,40,0
2,note_on,53,0,120
2,note_on,44,54,0
2,note_on,44,0,49
2,note_on,51,43,0
2,note_on,51,0,120
2,note_on,54,47,0
2,note_on,54,0,120
2,note_on,63,50,0
2,note_on,63,0,120
2,note_on,54,46,0
2,note_on,54,0,120
2,note_on,51,43,0
2,note_on,51,0,120
2,note_on,44,56,0
2,note_on,44,0,34
2,note_on,52,47,0
2,note_on,52,0,120
2,note_on,55,49,0
2,note_on,55,0,120
2,note_on,64,51,0
2,note_on,64,0,120
2,note_on,55,49,0
2,note_on,55,0,120
2,note_on,52,47,0
2,note_on,52,0,120
2,note_on,44,57,0
2,note_on,44,0,120
2,note_on,52,48,0
2,note_on,52,0,120
2,note_on,55,51,0
2,note_on,55,0,120
2,note_on,64,53,0
2,note_on,64,0,120
2,note_on,55,51,0
2,note_on,55,0,120
2,note_on,52,49,0
2,note_on,52,0,120
2,note_on,44,61,0
2,note_on,44,0,34
2,note_on,52,51,0
2,note_on,52,0,120
2,note_on,55,54,0
2,note_on,55,0,120
2,note_on,64,56,0
2,note_on,64,0,120
2,note_on,55,54,0
2,note_on,55,0,120
2,note_on,52,51,0
2,note_on,52,0,120
2,note_on,44,64,0
2,note_on,44,0,7
2,note_on,53,54,0
2,note_on,53,0,120
2,note_on,56,56,0
2,note_on,56,0,120
2,note_on,65,59,0
2,note_on,65,0,120
2,note_on,56,55,0
2,note_on,56,0,120
2,note_on,53,52,0
2,note_on,53,0,120
2,note_on,44,67,0
2,note_on,44,0,114
2,note_on,51,55,0
2,note_on,51,0,120
2,note_on,54,57,0
2,note_on,54,0,120
2,note_on,60,60,0
2,note_on,60,0,120
2,note_on,54,58,0
2,note_on,54,0,120
2,note_on,51,55,0
2,note_on,51,0,120
2,note_on,44,68,0
2,note_on,44,0,40
2,note_on,47,57,0
2,note_on,47,0,120
2,note_on,53,59,0
2,note_on,53,0,120
2,note_on,59,60,0
2,note_on,59,0,120
2,note_on,53,59,0
2,note_on,53,0,120
2,note_on,47,57,0
2,note_on,47,0,120
2,note_on,44,68,0
2,note_on,44,0,40
2,note_on,53,56,0
2,note_on,53,0,120
2,note_on,56,60,0
2,note_on,56,0,120
2,note_on,62,62,0
2,note_on,62,0,120
2,note_on,56,60,0
2,note_on,56,0,120
2,note_on,53,57,0
2,note_on,53,0,120
2,note_on,44,70,0
2,note_on,44,0,57
2,note_on,49,59,0
2,note_on,49,0,120
2,note_on,55,62,0
2,note_on,55,0,120
2,note_on,61,65,0
2,note_on,61,0,120
2,note_on,55,62,0
2,note_on,55,0,120
2,note_on,49,59,0
2,note_on,49,0,120
2,note_on,44,72,0
2,note_on,44,0,11
2,note_on,52,59,0
2,note_on,52,0,120
2,note_on,58,64,0
2,note_on,58,0,120
2,note_on,64,66,0
2,note_on,64,0,120
2,note_on,58,62,0
2,note_on,58,0,120
2,note_on,52,59,0
2,note_on,52,0,120
2,note_on,44,72,0
2,note_on,44,0,114
2,note_on,51,58,0
2,note_on,51,0,120
2,note_on,54,63,0
2,note_on,54,0,120
2,note_on,63,68,0
2,note_on,63,0,120
2,note_on,54,65,0
2,note_on,54,0,120
2,note_on,51,62,0
2,note_on,51,0,120
2,note_on,44,72,0
2,note_on,44,0,35
2,note_on,51,60,0
2,note_on,51,0,120
2,note_on,54,64,0
2,note_on,54,0,120
2,note_on,60,69,0
2,note_on,60,0,120
2,note_on,54,65,0
2,note_on,54,0,120
2,note_on,51,63,0
2,note_on,51,0,120
2,note_on,37,78,0
2,note_on,37,0,88
2,note_on,44,68,304
2,note_on,51,68,116
2,note_on,44,0,4
2,note_on,51,0,116
2,note_on,61,83,0
2,note_on,61,0,240
2,note_on,32,87,480
2,note_on,32,0,18
2,note_on,44,68,360
2,note_on,44,0,120
2,note_on,51,74,0
2,note_on,51,0,120
2,note_on,60,84,0
2,note_on,60,0,240
2,note_on,37,87,480
2,note_on,37,0,114
2,note_on,44,70,353
2,note_on,44,0,120
2,note_on,53,75,0
2,note_on,53,0,120
2,note_on,61,83,0
2,note_on,61,0,240
2,note_on,32,87,480
2,note_on,32,0,10
2,note_on,44,68,360
2,note_on,44,0,120
2,note_on,51,74,0
2,note_on,51,0,120
2,note_on,60,84,0
2,note_on,60,0,240
2,note_on,33,97,60
2,note_on,45,97,0
2,note_on,45,0,120
2,note_on,33,0,0
2,note_on,39,82,120
2,note_on,51,82,0
2,note_on,51,0,240
2,note_on,39,0,0
2,note_on,40,90,0
2,note_on,52,90,0
2,note_on,52,0,240
2,note_on,40,0,0
2,note_on,40,90,0
2,note_on,52,90,0
2,note_on,52,0,720
2,note_on,40,0,0
2,note_on,39,77,240
2,note_on,39,0,176
2,note_on,40,77,0
2,note_on,40,0,240
2,note_on,33,81,0
2,note_on,41,81,0
2,note_on,41,0,469
2,note_on,33,0,0
2,note_on,40,75,0
2,note_on,33,75,0
2,note_on,33,0,240
2,note_on,40,0,0
2,note_on,33,97,0
2,note_on,45,97,0
2,note_on,45,0,49
2,note_on,33,0,0
2,note_on,39,82,120
2,note_on,51,82,0
2,note_on,51,0,240
2,note_on,39,0,0
2,note_on,40,90,0
2,note_on,52,90,0
2,note_on,52,0,240
2,note_on,40,0,0
2,note_on,40,90,0
2,note_on,52,90,0
2,note_on,52,0,656
2,note_on,40,0,0
2,note_on,39,77,240
2,note_on,39,0,219
2,note_on,40,77,0
2,note_on,40,0,240
2,note_on,33,81,0
2,note_on,41,81,0
2,note_on,41,0,472
2,note_on,33,0,0
2,note_on,40,75,0
2,note_on,33,75,0
2,note_on,33,0,240
2,note_on,40,0,0
2,note_on,33,87,0
2,note_on,41,87,0
2,note_on,41,0,123
2,note_on,33,0,0
2,note_on,33,38,237
2,note_on,45,38,0
2,note_on,45,0,180
2,note_on,33,0,0
2,note_on,41,42,0
2,note_on,53,42,0
2,note_on,53,0,240
2,note_on,41,0,0
2,note_on,33,39,231
2,note_on,45,39,0
2,note_on,45,0,188
2,note_on,33,0,0
2,note_on,41,43,0
2,note_on,53,43,0
2,note_on,53,0,240
2,note_on,41,0,0
2,note_on,34,39,231
2,note_on,46,39,0
2,note_on,46,0,212
2,note_on,34,0,0
2,note_on,41,43,0
2,note_on,53,43,0
2,note_on,53,0,240
2,note_on,41,0,0
2,note_on,34,40,230
2,note_on,46,40,0
2,note_on,46,0,211
2,note_on,34,0,0
2,note_on,41,44,0
2,note_on,53,44,0
2,note_on,53,0,240
2,note_on,41,0,0
2,note_on,34,42,217
2,note_on,46,42,0
2,note_on,46,0,205
2,note_on,34,0,0
2,note_on,42,48,0
2,note_on,54,48,0
2,note_on,54,0,240
2,note_on,42,0,0
2,note_on,34,44,222
2,note_on,46,44,0
2,note_on,46,0,155
2,note_on,34,0,0
2,note_on,42,48,0
2,note_on,54,48,0
2,note_on,54,0,240
2,note_on,42,0,0
2,note_on,33,46,226
2,note_on,45,46,0
2,note_on,45,0,188
2,note_on,33,0,0
2,note_on,45,51,0
2,note_on,57,51,0
2,note_on,57,0,240
2,note_on,45,0,0
2,note_on,32,54,231
2,note_on,44,54,0
2,note_on,44,0,226
2,note_on,32,0,0
2,note_on,65,65,0
2,note_on,61,65,0
2,note_on,56,65,0
2,note_on,53,65,0
2,note_on,53,0,240
2,note_on,65,0,0
2,note_on,61,0,0
2,note_on,56,0,0
2,note_on,48,58,173
2,note_on,48,0,80
2,note_on,49,60,0
2,note_on,49,0,80
2,note_on,53,61,0
2,note_on,53,0,80
2,note_on,56,63,0
2,note_on,56,0,240
2,note_on,47,58,240
2,note_on,47,0,80
2,note_on,48,60,0
2,note_on,48,0,80
2,note_on,53,62,0
2,note_on,53,0,80
2,note_on,56,64,0
2,note_on,56,0,240
2,note_on,45,57,240
2,note_on,45,0,80
2,note_on,46,58,0
2,note_on,46,0,80
2,note_on,53,61,0
2,note_on,53,0,80
2,note_on,56,63,0
2,note_on,56,0,240
2,note_on,32,81,0
2,note_on,44,81,0
2,note_on,44,0,240
2,note_on,32,0,0
2,note_on,66,85,480
2,note_on,72,85,0
2,note_on,77,85,0
2,note_on,77,0,133
2,note_on,72,0,0
2,note_on,66,0,0
2,note_on,66,65,0
2,note_on,72,65,0
2,note_on,75,65,0
2,note_on,75,0,240
2,note_on,72,0,0
2,note_on,66,0,0
2,note_on,66,65,0
2,note_on,72,65,0
2,note_on,77,65,0
2,note_on,77,0,240
2,note_on,72,0,0
2,note_on,66,0,0
2,note_on,66,63,0
2,note_on,72,63,0
2,note_on,75,63,0
2,note_on,75,0,240
2,note_on,72,0,0
2,note_on,66,0,0
2,note_on,66,67,0
2,note_on,72,67,0
2,note_on,77,67,0
2,note_on,77,0,240
2,note_on,72,0,0
2,note_on,66,0,0
2,note_on,75,66,0
2,note_on,72,66,0
2,note_on,66,66,0
2,note_on,66,0,240
2,note_on,72,0,0
2,note_on,75,0,0
2,note_on,65,76,0
2,note_on,68,76,0
2,note_on,73,76,0
2,note_on,77,76,0
2,note_on,77,0,180
2,note_on,65,0,0
2,note_on,68,0,0
2,note_on,73,0,0
2,note_on,48,58,300
2,note_on,48,0,80
2,note_on,49,60,0
2,note_on,49,0,80
2,note_on,53,61,0
2,note_on,53,0,80
2,note_on,56,63,0
2,note_on,56,0,240
2,note_on,47,58,240
2,note_on,47,0,80
2,note_on,48,60,0
2,note_on,48,0,80
2,note_on,53,62,0
2,note_on,53,0,80
2,note_on,56,64,0
2,note_on,56,0,240
2,note_on,45,57,240
2,note_on,45,0,80
2,note_on,46,58,0
2,note_on,46,0,80
2,note_on,53,61,0
2,note_on,53,0,80
2,note_on,56,63,0
2,note_on,56,0,240
2,note_on,32,81,0
2,note_on,44,81,0
2,note_on,44,0,240
2,note_on,32,0,0
2,note_on,66,85,480
2,note_on,72,85,0
2,note_on,77,85,0
2,note_on,77,0,133
2,note_on,72,0,0
2,note_on,66,0,0
2,note_on,66,70,0
2,note_on,72,70,0
2,note_on,75,70,0
2,note_on,75,0,240
2,note_on,72,0,0
2,note_on,66,0,0
2,note_on,66,68,0
2,note_on,72,68,0
2,note_on,77,68,0
2,note_on,77,0,240
2,note_on,72,0,0
2,note_on,66,0,0
2,note_on,66,66,0
2,note_on,72,66,0
2,note_on,75,66,0
2,note_on,75,0,240
2,note_on,72,0,0
2,note_on,66,0,0
2,note_on,66,64,0
2,note_on,72,64,0
2,note_on,77,64,0
2,note_on,77,0,240
2,note_on,72,0,0
2,note_on,66,0,0
2,note_on,75,61,0
2,note_on,72,61,0
2,note_on,66,61,0
2,note_on,66,0,240
2,note_on,72,0,0
2,note_on,75,0,0
2,note_on,77,59,0
2,note_on,66,59,0
2,note_on,72,59,0
2,note_on,77,0,480
2,note_on,75,56,0
2,note_on,75,0,240
2,note_on,72,0,0
2,note_on,66,0,0
2,note_on,77,55,0
2,note_on,66,55,0
2,note_on,72,55,0
2,note_on,77,0,480
2,note_on,75,58,0
2,note_on,75,0,240
2,note_on,72,0,0
2,note_on,66,0,0
2,note_on,77,60,0
2,note_on,66,60,0
2,note_on,72,60,0
2,note_on,77,0,480
2,note_on,75,57,0
2,note_on,75,0,240
2,note_on,72,0,0
2,note_on,66,0,0
2,note_on,78,61,0
2,note_on,67,61,0
2,note_on,73,61,0
2,note_on,78,0,480
2,note_on,76,63,0
2,note_on,76,0,240
2,note_on,73,0,0
2,note_on,67,0,0
2,note_on,78,67,0
2,note_on,67,67,0
2,note_on,73,67,0
2,note_on,78,0,480
2,note_on,76,69,0
2,note_on,76,0,240
2,note_on,73,0,0
2,note_on,67,0,0
2,note_on,79,72,0
2,note_on,68,72,0
2,note_on,74,72,0
2,note_on,79,0,480
2,note_on,77,74,0
2,note_on,77,0,240
2,note_on,74,0,0
2,note_on,68,0,0
2,note_on,79,75,0
2,note_on,68,75,0
2,note_on,74,75,0
2,note_on,79,0,480
2,note_on,77,79,0
2,note_on,77,0,240
2,note_on,74,0,0
2,note_on,68,0,0
2,note_on,80,83,0
2,note_on,68,83,0
2,note_on,75,83,0
2,note_on,80,0,480
2,note_on,78,86,0
2,note_on,78,0,240
2,note_on,75,0,0
2,note_on,68,0,0
2,note_on,37,90,0
2,note_on,49,90,0
2,note_on,49,0,197
2,note_on,37,0,0
2,note_on,43,74,0
2,note_on,43,0,240
2,note_on,44,74,0
2,note_on,44,0,240
2,note_on,44,79,0
2,note_on,44,0,169
2,note_on,42,62,0
2,note_on,54,62,0
2,note_on,54,0,240
2,note_on,42,0,0
2,note_on,41,58,0
2,note_on,53,58,0
2,note_on,53,0,240
2,note_on,41,0,0
2,note_on,41,68,0
2,note_on,53,68,0
2,note_on,53,0,42
2,note_on,41,0,0
2,note_on,43,59,120
2,note_on,43,0,240
2,note_on,44,59,0
2,note_on,44,0,240
2,note_on,45,73,0
2,note_on,45,0,473
2,note_on,44,70,0
2,note_on,44,0,240
2,note_on,37,90,0
2,note_on,49,90,0
2,note_on,49,0,162
2,note_on,37,0,0
2,note_on,43,73,0
2,note_on,43,0,240
2,note_on,44,75,0
2,note_on,44,0,240
2,note_on,44,77,0
2,note_on,44,0,148
2,note_on,42,62,0
2,note_on,54,62,0
2,note_on,54,0,240
2,note_on,42,0,0
2,note_on,41,58,0
2,note_on,53,58,0
2,note_on,53,0,240
2,note_on,41,0,0
2,note_on,41,68,0
2,note_on,53,68,0
2,note_on,53,0,42
2,note_on,41,0,0
2,note_on,43,59,120
2,note_on,43,0,240
2,note_on,44,59,0
2,note_on,44,0,240
2,note_on,45,73,0
2,note_on,45,0,472
2,note_on,44,70,0
2,note_on,44,0,240
2,note_on,37,60,0
2,note_on,49,60,0
2,note_on,49,0,120
2,note_on,37,0,0
2,note_on,43,68,120
2,note_on,43,0,240
2,note_on,44,68,0
2,note_on,44,0,240
2,note_on,42,70,240
2,note_on,54,70,0
2,note_on,54,0,240
2,note_on,42,0,0
2,note_on,41,70,0
2,note_on,53,70,0
2,note_on,53,0,240
2,note_on,41,0,0
2,note_on,37,63,0
2,note_on,49,63,0
2,note_on,49,0,120
2,note_on,37,0,0
2,note_on,43,69,120
2,note_on,43,0,240
2,note_on,44,69,0
2,note_on,44,0,240
2,note_on,42,70,240
2,note_on,54,70,0
2,note_on,54,0,240
2,note_on,42,0,0
2,note_on,41,70,0
2,note_on,53,70,0
2,note_on,53,0,240
2,note_on,41,0,0
2,note_on,37,64,0
2,note_on,49,64,0
2,note_on,49,0,120
2,note_on,37,0,0
2,note_on,43,69,120
2,note_on,43,0,240
2,note_on,44,69,0
2,note_on,44,0,240
2,note_on,42,70,240
2,note_on,54,70,0
2,note_on,54,0,240
2,note_on,42,0,0
2,note_on,41,70,0
2,note_on,53,70,0
2,note_on,53,0,240
2,note_on,41,0,0
2,note_on,37,67,0
2,note_on,45,67,0
2,note_on,45,0,180
2,note_on,37,0,0
2,note_on,37,68,60
2,note_on,44,68,0
2,note_on,44,0,180
2,note_on,37,0,0
2,note_on,37,70,60
2,note_on,45,70,0
2,note_on,45,0,180
2,note_on,37,0,0
2,note_on,37,71,60
2,note_on,44,71,0
2,note_on,44,0,180
2,note_on,37,0,0
2,note_on,37,73,60
2,note_on,45,73,0
2,note_on,45,0,180
2,note_on,37,0,0
2,note_on,37,74,60
2,note_on,44,74,0
2,note_on,44,0,180
2,note_on,37,0,0
2,note_on,36,84,60
2,note_on,45,84,0
2,note_on,45,0,134
2,note_on,36,0,0
2,note_on,36,85,540
2,note_on,43,101,0
2,note_on,48,101,0
2,note_on,48,0,91
2,note_on,43,0,0
2,note_on,36,0,0
2,note_on,41,85,480
2,note_on,48,101,0
2,note_on,53,101,0
2,note_on,53,0,68
2,note_on,48,0,0
2,note_on,41,0,0
2,note_on,44,85,480
2,note_on,51,101,0
2,note_on,56,101,0
2,note_on,56,0,25
2,note_on,51,0,0
2,note_on,44,0,0
2,note_on,49,85,480
2,note_on,56,101,0
2,note_on,61,101,0
2,note_on,61,0,453
2,note_on,56,0,0
2,note_on,49,0,0
2,note_on,37,85,720
2,note_on,44,100,0
2,note_on,49,100,0
2,note_on,49,0,720
2,note_on,44,0,0
2,note_on,37,0,0
2,note_on,49,69,540
2,note_on,56,82,30
2,note_on,65,82,30
2,note_on,65,0,120
2,note_on,56,0,0
2,note_on,49,0,0
2,note_on,25,100,0
2,note_on,37,109,0
2,note_on,37,0,720
2,note_on,25,0,0
