Track,Message Type,Note,Velocity,Time
1,note_on,70,80,0
1,note_on,70,0,960
1,note_on,70,74,0
1,note_on,70,0,120
1,note_on,70,70,120
1,note_on,70,0,120
1,note_on,70,79,120
1,note_on,70,0,960
1,note_on,70,75,0
1,note_on,70,0,120
1,note_on,70,69,120
1,note_on,70,0,120
1,note_on,70,78,120
1,note_on,70,0,480
1,note_on,70,72,0
1,note_on,70,0,120
1,note_on,70,67,120
1,note_on,70,0,120
1,note_on,70,74,120
1,note_on,70,0,480
1,note_on,70,69,0
1,note_on,70,0,120
1,note_on,70,66,120
1,note_on,70,0,120
1,note_on,70,73,120
1,note_on,70,0,480
1,note_on,70,59,0
1,note_on,70,0,120
1,note_on,70,59,120
1,note_on,70,0,120
1,note_on,70,72,120
1,note_on,70,0,480
1,note_on,74,60,0
1,note_on,75,49,240
1,note_on,74,0,20
1,note_on,74,57,220
1,note_on,77,57,0
1,note_on,75,0,20
1,note_on,77,0,340
1,note_on,74,0,0
1,note_on,70,67,120
1,note_on,70,0,240
1,note_on,75,64,240
1,note_on,77,48,240
1,note_on,75,0,20
1,note_on,75,56,220
1,note_on,79,56,0
1,note_on,77,0,20
1,note_on,79,0,340
1,note_on,75,0,0
1,note_on,70,72,120
1,note_on,70,0,240
1,note_on,77,67,240
1,note_on,79,52,240
1,note_on,77,0,20
1,note_on,77,75,220
1,note_on,80,75,0
1,note_on,79,0,20
1,note_on,80,0,340
1,note_on,77,0,0
1,note_on,82,82,120
1,note_on,79,82,0
1,note_on,73,69,0
1,note_on,73,0,960
1,note_on,79,0,0
1,note_on,82,0,0
1,note_on,82,68,0
1,note_on,79,68,0
1,note_on,73,57,0
1,note_on,73,0,240
1,note_on,79,0,0
1,note_on,82,0,0
1,note_on,82,58,0
1,note_on,79,58,0
1,note_on,73,49,0
1,note_on,73,0,240
1,note_on,79,0,0
1,note_on,82,0,0
1,note_on,82,63,0
1,note_on,73,63,0
1,note_on,79,63,0
1,note_on,82,0,480
1,note_on,84,52,0
1,note_on,82,48,240
1,note_on,84,0,20
1,note_on,73,0,220
1,note_on,72,54,0
1,note_on,80,54,0
1,note_on,79,0,20
1,note_on,82,0,0
1,note_on,72,0,220
1,note_on,80,0,0
1,note_on,80,67,240
1,note_on,71,67,0
1,note_on,82,47,480
1,note_on,80,0,20
1,note_on,80,44,220
1,note_on,82,0,20
1,note_on,71,0,220
1,note_on,70,54,0
1,note_on,79,54,0
1,note_on,80,0,20
1,note_on,79,0,220
1,note_on,70,0,0
1,note_on,79,66,240
1,note_on,70,66,0
1,note_on,80,59,480
1,note_on,79,0,20
1,note_on,79,53,220
1,note_on,80,0,20
1,note_on,70,0,220
1,note_on,68,59,0
1,note_on,77,59,0
1,note_on,79,0,20
1,note_on,77,0,220
1,note_on,68,0,0
1,note_on,77,64,240
1,note_on,68,64,0
1,note_on,79,60,480
1,note_on,77,0,20
1,note_on,77,49,220
1,note_on,79,0,20
1,note_on,68,0,220
1,note_on,75,53,0
1,note_on,67,53,0
1,note_on,77,0,20
1,note_on,67,0,220
1,note_on,75,0,0
1,note_on,70,65,240
1,note_on,70,0,240
1,note_on,74,49,240
1,note_on,75,60,240
1,note_on,74,0,20
1,note_on,74,63,220
1,note_on,77,63,0
1,note_on,75,0,20
1,note_on,77,0,340
1,note_on,74,0,0
1,note_on,70,69,120
1,note_on,70,0,240
1,note_on,75,68,240
1,note_on,77,64,240
1,note_on,75,0,20
1,note_on,75,73,220
1,note_on,79,73,0
1,note_on,77,0,20
1,note_on,79,0,340
1,note_on,75,0,0
1,note_on,70,76,120
1,note_on,70,0,240
1,note_on,77,72,240
1,note_on,79,62,240
1,note_on,77,0,20
1,note_on,77,75,220
1,note_on,80,75,0
1,note_on,79,0,20
1,note_on,80,0,340
1,note_on,77,0,0
1,note_on,82,89,120
1,note_on,79,89,0
1,note_on,73,75,0
1,note_on,73,0,720
1,note_on,79,0,0
1,note_on,82,0,0
1,note_on,79,74,0
1,note_on,82,74,0
1,note_on,82,0,240
1,note_on,79,0,0
1,note_on,73,80,0
1,note_on,82,73,240
1,note_on,79,73,0
1,note_on,79,0,240
1,note_on,82,0,0
1,note_on,73,0,0
1,note_on,73,64,0
1,note_on,82,72,240
1,note_on,84,64,240
1,note_on,82,0,20
1,note_on,82,58,220
1,note_on,84,0,20
1,note_on,73,0,220
1,note_on,72,54,0
1,note_on,80,54,0
1,note_on,82,0,20
1,note_on,80,0,220
1,note_on,72,0,0
1,note_on,71,65,240
1,note_on,80,69,240
1,note_on,82,65,240
1,note_on,80,0,20
1,note_on,80,63,220
1,note_on,82,0,20
1,note_on,71,0,220
1,note_on,70,51,0
1,note_on,79,51,0
1,note_on,80,0,20
1,note_on,79,0,220
1,note_on,70,0,0
1,note_on,70,63,240
1,note_on,79,46,240
1,note_on,80,58,240
1,note_on,79,0,20
1,note_on,79,45,220
1,note_on,80,0,20
1,note_on,70,0,220
1,note_on,68,50,0
1,note_on,77,50,0
1,note_on,79,0,20
1,note_on,77,0,460
1,note_on,68,0,0
1,note_on,67,59,0
1,note_on,75,59,0
1,note_on,75,0,240
1,note_on,67,0,0
1,note_on,70,57,240
1,note_on,70,0,120
1,note_on,70,50,120
1,note_on,70,0,120
1,note_on,70,56,120
1,note_on,70,0,120
1,note_on,70,58,120
1,note_on,70,0,120
1,note_on,70,78,120
1,note_on,70,0,480
1,note_on,74,65,0
1,note_on,75,57,240
1,note_on,74,0,20
1,note_on,74,66,220
1,note_on,77,66,0
1,note_on,75,0,20
1,note_on,77,0,340
1,note_on,74,0,0
1,note_on,70,69,120
1,note_on,70,0,240
1,note_on,75,66,240
1,note_on,77,56,240
1,note_on,75,0,20
1,note_on,75,73,220
1,note_on,79,73,0
1,note_on,77,0,20
1,note_on,79,0,340
1,note_on,75,0,0
1,note_on,70,77,120
1,note_on,70,0,240
1,note_on,77,75,240
1,note_on,79,58,240
1,note_on,77,0,20
1,note_on,77,75,220
1,note_on,80,75,0
1,note_on,79,0,20
1,note_on,80,0,340
1,note_on,77,0,0
1,note_on,82,85,120
1,note_on,79,85,0
1,note_on,73,72,0
1,note_on,73,0,960
1,note_on,79,0,0
1,note_on,82,0,0
1,note_on,82,69,0
1,note_on,79,69,0
1,note_on,73,58,0
1,note_on,73,0,240
1,note_on,79,0,0
1,note_on,82,0,0
1,note_on,82,47,0
1,note_on,79,47,0
1,note_on,73,39,0
1,note_on,73,0,240
1,note_on,79,0,0
1,note_on,82,0,0
1,note_on,82,65,0
1,note_on,73,65,0
1,note_on,79,65,0
1,note_on,84,53,480
1,note_on,82,0,20
1,note_on,82,49,220
1,note_on,84,0,20
1,note_on,73,0,220
1,note_on,79,0,0
1,note_on,72,51,0
1,note_on,80,51,0
1,note_on,82,0,20
1,note_on,80,0,220
1,note_on,72,0,0
1,note_on,80,68,240
1,note_on,71,68,0
1,note_on,82,47,480
1,note_on,80,0,20
1,note_on,80,46,220
1,note_on,82,0,20
1,note_on,71,0,220
1,note_on,70,53,0
1,note_on,79,53,0
1,note_on,80,0,20
1,note_on,79,0,220
1,note_on,70,0,0
1,note_on,79,68,240
1,note_on,70,68,0
1,note_on,80,51,480
1,note_on,79,0,20
1,note_on,79,49,220
1,note_on,80,0,20
1,note_on,70,0,220
1,note_on,68,61,0
1,note_on,77,61,0
1,note_on,79,0,20
1,note_on,77,0,220
1,note_on,68,0,0
1,note_on,77,74,240
1,note_on,68,74,0
1,note_on,79,69,480
1,note_on,77,0,20
1,note_on,77,53,220
1,note_on,79,0,20
1,note_on,68,0,220
1,note_on,75,68,0
1,note_on,67,68,0
1,note_on,77,0,20
1,note_on,67,0,220
1,note_on,75,0,0
1,note_on,70,70,240
1,note_on,70,0,240
1,note_on,74,68,240
1,note_on,75,60,240
1,note_on,74,0,20
1,note_on,74,63,220
1,note_on,77,63,0
1,note_on,75,0,20
1,note_on,77,0,340
1,note_on,74,0,0
1,note_on,70,72,120
1,note_on,70,0,240
1,note_on,75,65,240
1,note_on,77,60,240
1,note_on,75,0,20
1,note_on,75,68,220
1,note_on,79,68,0
1,note_on,77,0,20
1,note_on,79,0,340
1,note_on,75,0,0
1,note_on,70,76,120
1,note_on,70,0,240
1,note_on,77,77,240
1,note_on,79,70,240
1,note_on,77,0,20
1,note_on,77,77,220
1,note_on,80,77,0
1,note_on,79,0,20
1,note_on,80,0,340
1,note_on,77,0,0
1,note_on,82,84,120
1,note_on,79,84,0
1,note_on,73,71,0
1,note_on,73,0,720
1,note_on,79,0,0
1,note_on,82,0,0
1,note_on,79,72,0
1,note_on,82,72,0
1,note_on,82,0,240
1,note_on,79,0,0
1,note_on,73,80,0
1,note_on,82,65,240
1,note_on,79,65,0
1,note_on,79,0,240
1,note_on,82,0,0
1,note_on,73,0,0
1,note_on,73,67,0
1,note_on,82,58,240
1,note_on,84,48,240
1,note_on,82,0,20
1,note_on,82,60,220
1,note_on,84,0,20
1,note_on,73,0,220
1,note_on,72,54,0
1,note_on,80,54,0
1,note_on,82,0,20
1,note_on,80,0,220
1,note_on,72,0,0
1,note_on,71,70,240
1,note_on,80,69,240
1,note_on,82,45,240
1,note_on,80,0,20
1,note_on,80,65,220
1,note_on,82,0,20
1,note_on,71,0,220
1,note_on,70,55,0
1,note_on,79,55,0
1,note_on,80,0,20
1,note_on,79,0,220
1,note_on,70,0,0
1,note_on,70,65,240
1,note_on,79,50,240
1,note_on,80,44,240
1,note_on,79,0,20
1,note_on,79,62,220
1,note_on,80,0,20
1,note_on,70,0,220
1,note_on,68,57,0
1,note_on,77,57,0
1,note_on,79,0,20
1,note_on,77,0,460
1,note_on,68,0,0
1,note_on,67,48,0
1,note_on,75,48,0
1,note_on,75,0,240
1,note_on,67,0,0
1,note_on,75,53,240
1,note_on,75,0,120
1,note_on,75,64,120
1,note_on,75,0,120
1,note_on,75,67,120
1,note_on,75,0,120
1,note_on,75,69,120
1,note_on,75,0,120
1,note_on,75,75,120
1,note_on,75,0,120
1,note_on,75,64,120
1,note_on,75,0,120
1,note_on,75,75,120
1,note_on,75,0,120
1,note_on,75,74,120
1,note_on,75,0,120
1,note_on,75,69,120
1,note_on,75,0,120
1,note_on,75,69,120
1,note_on,75,0,120
1,note_on,77,65,120
1,note_on,75,58,240
1,note_on,77,0,20
1,note_on,72,56,220
1,note_on,75,0,20
1,note_on,68,49,220
1,note_on,72,0,20
1,note_on,63,49,220
1,note_on,68,0,20
1,note_on,63,0,220
1,note_on,64,51,0
1,note_on,64,0,240
1,note_on,65,58,0
1,note_on,65,0,120
1,note_on,65,51,120
1,note_on,65,0,120
1,note_on,65,55,120
1,note_on,65,0,120
1,note_on,65,51,120
1,note_on,65,0,120
1,note_on,65,54,120
1,note_on,65,0,120
1,note_on,65,58,120
1,note_on,65,0,120
1,note_on,63,61,120
1,note_on,68,53,240
1,note_on,63,0,20
1,note_on,72,48,220
1,note_on,68,0,20
1,note_on,75,64,220
1,note_on,72,0,20
1,note_on,80,61,220
1,note_on,75,0,20
1,note_on,76,52,220
1,note_on,80,0,20
1,note_on,76,0,220
1,note_on,77,52,0
1,note_on,77,0,120
1,note_on,77,44,120
1,note_on,77,0,120
1,note_on,77,68,120
1,note_on,77,0,120
1,note_on,77,60,120
1,note_on,77,0,120
1,note_on,77,53,120
1,note_on,77,0,120
1,note_on,77,73,120
1,note_on,77,0,120
1,note_on,77,77,120
1,note_on,79,55,160
1,note_on,77,0,20
1,note_on,77,55,140
1,note_on,79,0,20
1,note_on,75,65,140
1,note_on,77,0,20
1,note_on,80,57,220
1,note_on,75,0,20
1,note_on,84,51,220
1,note_on,80,0,20
1,note_on,84,0,220
1,note_on,89,66,240
1,note_on,87,51,480
1,note_on,89,0,20
1,note_on,85,45,220
1,note_on,87,0,20
1,note_on,79,50,220
1,note_on,85,0,20
1,note_on,79,0,220
1,note_on,82,58,240
1,note_on,80,43,480
1,note_on,82,0,20
1,note_on,75,44,220
1,note_on,80,0,20
1,note_on,72,38,220
1,note_on,75,0,20
1,note_on,72,0,220
1,note_on,75,48,240
1,note_on,75,0,120
1,note_on,75,44,120
1,note_on,75,0,120
1,note_on,75,65,120
1,note_on,75,0,120
1,note_on,75,69,120
1,note_on,75,0,120
1,note_on,75,63,120
1,note_on,75,0,120
1,note_on,75,71,120
1,note_on,75,0,120
1,note_on,77,61,120
1,note_on,75,59,240
1,note_on,77,0,20
1,note_on,72,52,220
1,note_on,75,0,20
1,note_on,68,52,220
1,note_on,72,0,20
1,note_on,63,47,220
1,note_on,68,0,20
1,note_on,63,0,220
1,note_on,64,55,0
1,note_on,64,0,240
1,note_on,65,57,0
1,note_on,65,0,120
1,note_on,65,47,120
1,note_on,65,0,120
1,note_on,65,59,120
1,note_on,65,0,120
1,note_on,65,55,120
1,note_on,65,0,120
1,note_on,65,61,120
1,note_on,65,0,120
1,note_on,65,63,120
1,note_on,65,0,120
1,note_on,63,58,120
1,note_on,68,54,240
1,note_on,63,0,20
1,note_on,72,50,220
1,note_on,68,0,20
1,note_on,75,43,220
1,note_on,72,0,20
1,note_on,80,52,220
1,note_on,75,0,20
1,note_on,76,47,220
1,note_on,80,0,20
1,note_on,76,0,220
1,note_on,77,58,0
1,note_on,77,0,120
1,note_on,77,50,120
1,note_on,77,0,120
1,note_on,77,61,120
1,note_on,77,0,120
1,note_on,77,57,120
1,note_on,77,0,120
1,note_on,77,65,120
1,note_on,77,0,120
1,note_on,77,65,120
1,note_on,77,0,120
1,note_on,77,75,120
1,note_on,79,55,160
1,note_on,77,0,20
1,note_on,77,55,140
1,note_on,79,0,20
1,note_on,75,66,140
1,note_on,77,0,20
1,note_on,80,64,220
1,note_on,75,0,20
1,note_on,84,60,220
1,note_on,80,0,20
1,note_on,84,0,220
1,note_on,89,67,240
1,note_on,87,52,480
1,note_on,89,0,20
1,note_on,85,48,220
1,note_on,87,0,20
1,note_on,79,52,220
1,note_on,85,0,20
1,note_on,79,0,220
1,note_on,80,65,240
1,note_on,80,0,960
1,note_on,72,55,0
1,note_on,72,0,80
1,note_on,74,49,0
1,note_on,74,0,80
1,note_on,72,65,0
1,note_on,72,0,80
1,note_on,74,53,0
1,note_on,74,0,80
1,note_on,72,67,0
1,note_on,72,0,80
1,note_on,71,56,0
1,note_on,71,0,80
1,note_on,70,87,0
1,note_on,74,62,480
1,note_on,70,0,20
1,note_on,75,62,220
1,note_on,74,0,20
1,note_on,74,67,220
1,note_on,77,67,0
1,note_on,75,0,20
1,note_on,77,0,340
1,note_on,74,0,0
1,note_on,70,85,120
1,note_on,70,0,240
1,note_on,75,73,240
1,note_on,77,69,240
1,note_on,75,0,20
1,note_on,75,76,220
1,note_on,79,76,0
1,note_on,77,0,20
1,note_on,79,0,340
1,note_on,75,0,0
1,note_on,70,87,120
1,note_on,70,0,240
1,note_on,77,73,240
1,note_on,79,68,240
1,note_on,77,0,20
1,note_on,77,83,220
1,note_on,80,83,0
1,note_on,79,0,20
1,note_on,80,0,340
1,note_on,77,0,0
1,note_on,82,77,120
1,note_on,79,77,0
1,note_on,73,65,0
1,note_on,73,0,960
1,note_on,79,0,0
1,note_on,82,0,0
1,note_on,82,75,0
1,note_on,79,75,0
1,note_on,73,63,0
1,note_on,73,0,240
1,note_on,79,0,0
1,note_on,82,0,0
1,note_on,82,69,0
1,note_on,79,69,0
1,note_on,73,58,0
1,note_on,73,0,240
1,note_on,79,0,0
1,note_on,82,0,0
1,note_on,82,70,0
1,note_on,73,59,0
1,note_on,79,70,0
1,note_on,84,59,480
1,note_on,82,0,20
1,note_on,82,50,220
1,note_on,84,0,20
1,note_on,73,0,220
1,note_on,79,0,0
1,note_on,72,53,0
1,note_on,80,53,0
1,note_on,82,0,20
1,note_on,80,0,220
1,note_on,72,0,0
1,note_on,80,69,240
1,note_on,71,69,0
1,note_on,82,47,480
1,note_on,80,0,20
1,note_on,80,46,220
1,note_on,82,0,20
1,note_on,71,0,220
1,note_on,70,52,0
1,note_on,79,52,0
1,note_on,80,0,20
1,note_on,79,0,220
1,note_on,70,0,0
1,note_on,79,66,240
1,note_on,70,66,0
1,note_on,80,53,480
1,note_on,79,0,20
1,note_on,79,47,220
1,note_on,80,0,20
1,note_on,70,0,220
1,note_on,68,56,0
1,note_on,77,56,0
1,note_on,79,0,20
1,note_on,77,0,220
1,note_on,68,0,0
1,note_on,77,64,240
1,note_on,68,64,0
1,note_on,79,52,480
1,note_on,77,0,20
1,note_on,77,48,220
1,note_on,79,0,20
1,note_on,68,0,220
1,note_on,75,53,0
1,note_on,67,53,0
1,note_on,77,0,20
1,note_on,67,0,220
1,note_on,75,0,0
1,note_on,70,44,240
1,note_on,70,0,240
1,note_on,74,46,0
1,note_on,74,0,240
1,note_on,75,57,0
1,note_on,75,0,240
1,note_on,76,44,0
1,note_on,76,0,240
1,note_on,74,56,0
1,note_on,77,56,0
1,note_on,77,0,360
1,note_on,74,0,0
1,note_on,70,65,120
1,note_on,70,0,240
1,note_on,74,63,0
1,note_on,74,0,240
1,note_on,75,57,0
1,note_on,75,0,240
1,note_on,77,51,0
1,note_on,77,0,240
1,note_on,75,64,0
1,note_on,79,64,0
1,note_on,79,0,360
1,note_on,75,0,0
1,note_on,70,68,120
1,note_on,70,0,240
1,note_on,76,73,0
1,note_on,76,0,240
1,note_on,77,70,0
1,note_on,77,0,240
1,note_on,79,64,0
1,note_on,79,0,240
1,note_on,77,80,0
1,note_on,80,80,0
1,note_on,80,0,360
1,note_on,77,0,0
1,note_on,82,74,120
1,note_on,79,74,0
1,note_on,73,62,0
1,note_on,73,0,720
1,note_on,79,0,0
1,note_on,82,0,0
1,note_on,79,44,0
1,note_on,82,44,0
1,note_on,82,0,240
1,note_on,79,0,0
1,note_on,73,62,0
1,note_on,82,52,240
1,note_on,79,52,0
1,note_on,79,0,240
1,note_on,82,0,0
1,note_on,73,0,0
1,note_on,73,48,0
1,note_on,82,56,240
1,note_on,84,54,240
1,note_on,82,0,20
1,note_on,82,51,220
1,note_on,84,0,20
1,note_on,73,0,220
1,note_on,72,56,0
1,note_on,80,56,0
1,note_on,82,0,20
1,note_on,80,0,220
1,note_on,72,0,0
1,note_on,71,47,240
1,note_on,80,51,240
1,note_on,82,54,240
1,note_on,80,0,20
1,note_on,80,50,220
1,note_on,82,0,20
1,note_on,71,0,220
1,note_on,70,50,0
1,note_on,79,50,0
1,note_on,80,0,20
1,note_on,79,0,220
1,note_on,70,0,0
1,note_on,70,63,240
1,note_on,79,46,240
1,note_on,80,59,240
1,note_on,79,0,20
1,note_on,79,54,220
1,note_on,80,0,20
1,note_on,70,0,220
1,note_on,68,50,0
1,note_on,77,50,0
1,note_on,79,0,20
1,note_on,77,0,460
1,note_on,68,0,0
1,note_on,67,45,0
1,note_on,75,45,0
1,note_on,75,0,240
1,note_on,67,0,0
1,note_on,75,59,240
1,note_on,75,0,120
1,note_on,75,52,120
1,note_on,75,0,120
1,note_on,75,61,120
1,note_on,75,0,120
1,note_on,75,57,120
1,note_on,75,0,120
1,note_on,75,64,120
1,note_on,75,0,120
1,note_on,75,67,120
1,note_on,75,0,120
1,note_on,75,70,120
1,note_on,75,0,120
1,note_on,75,64,120
1,note_on,75,0,120
1,note_on,75,71,120
1,note_on,75,0,120
1,note_on,75,67,120
1,note_on,75,0,120
1,note_on,77,61,120
1,note_on,77,0,240
1,note_on,75,57,0
1,note_on,75,0,240
1,note_on,72,50,0
1,note_on,72,0,240
1,note_on,68,56,0
1,note_on,68,0,240
1,note_on,63,51,0
1,note_on,63,0,240
1,note_on,64,55,0
1,note_on,64,0,240
1,note_on,65,68,0
1,note_on,65,0,120
1,note_on,65,62,120
1,note_on,65,0,120
1,note_on,65,62,120
1,note_on,65,0,120
1,note_on,65,53,120
1,note_on,65,0,120
1,note_on,65,55,120
1,note_on,65,0,120
1,note_on,65,62,120
1,note_on,65,0,120
1,note_on,63,68,120
1,note_on,63,0,240
1,note_on,68,55,0
1,note_on,68,0,240
1,note_on,72,50,0
1,note_on,72,0,240
1,note_on,75,58,0
1,note_on,75,0,240
1,note_on,80,59,0
1,note_on,80,0,240
1,note_on,76,56,0
1,note_on,76,0,240
1,note_on,77,41,0
1,note_on,77,0,120
1,note_on,77,63,120
1,note_on,77,0,120
1,note_on,77,61,120
1,note_on,77,0,120
1,note_on,77,63,120
1,note_on,77,0,120
1,note_on,77,58,120
1,note_on,77,0,120
1,note_on,77,54,120
1,note_on,77,0,120
1,note_on,77,58,120
1,note_on,77,0,160
1,note_on,79,52,0
1,note_on,79,0,160
1,note_on,77,52,0
1,note_on,77,0,160
1,note_on,75,55,0
1,note_on,75,0,240
1,note_on,80,68,0
1,note_on,80,0,240
1,note_on,84,49,0
1,note_on,84,0,240
1,note_on,89,55,240
1,note_on,89,0,480
1,note_on,87,55,0
1,note_on,87,0,240
1,note_on,85,51,0
1,note_on,85,0,240
1,note_on,79,55,0
1,note_on,79,0,240
1,note_on,82,60,240
1,note_on,82,0,480
1,note_on,80,58,0
1,note_on,80,0,240
1,note_on,75,50,0
1,note_on,75,0,240
1,note_on,72,38,0
1,note_on,72,0,240
1,note_on,75,48,240
1,note_on,75,0,120
1,note_on,75,55,120
1,note_on,75,0,120
1,note_on,75,66,120
1,note_on,75,0,120
1,note_on,75,73,120
1,note_on,75,0,120
1,note_on,75,69,120
1,note_on,75,0,120
1,note_on,75,64,120
1,note_on,75,0,120
1,note_on,77,53,120
1,note_on,77,0,240
1,note_on,75,61,0
1,note_on,75,0,240
1,note_on,72,50,0
1,note_on,72,0,240
1,note_on,68,40,0
1,note_on,68,0,240
1,note_on,63,48,0
1,note_on,63,0,240
1,note_on,64,43,0
1,note_on,64,0,240
1,note_on,65,43,0
1,note_on,65,0,120
1,note_on,65,50,120
1,note_on,65,0,120
1,note_on,65,53,120
1,note_on,65,0,120
1,note_on,65,56,120
1,note_on,65,0,120
1,note_on,65,46,120
1,note_on,65,0,120
1,note_on,65,43,120
1,note_on,65,0,120
1,note_on,63,48,120
1,note_on,63,0,240
1,note_on,68,48,0
1,note_on,68,0,240
1,note_on,72,45,0
1,note_on,72,0,240
1,note_on,75,61,0
1,note_on,75,0,240
1,note_on,80,52,0
1,note_on,80,0,240
1,note_on,76,45,0
1,note_on,76,0,240
1,note_on,77,50,0
1,note_on,77,0,120
1,note_on,77,45,120
1,note_on,77,0,120
1,note_on,77,60,120
1,note_on,77,0,120
1,note_on,77,65,120
1,note_on,77,0,120
1,note_on,77,66,120
1,note_on,77,0,120
1,note_on,77,51,120
1,note_on,77,0,120
1,note_on,77,70,120
1,note_on,77,0,160
1,note_on,79,55,0
1,note_on,79,0,160
1,note_on,77,48,0
1,note_on,77,0,160
1,note_on,75,55,0
1,note_on,75,0,240
1,note_on,80,51,0
1,note_on,80,0,240
1,note_on,84,46,0
1,note_on,84,0,240
1,note_on,89,55,240
1,note_on,89,0,480
1,note_on,87,42,0
1,note_on,87,0,240
1,note_on,85,39,0
1,note_on,85,0,240
1,note_on,79,47,0
1,note_on,79,0,240
1,note_on,80,57,240
1,note_on,80,0,960
1,note_on,68,55,0
1,note_on,68,0,480
1,note_on,75,62,0
1,note_on,78,62,0
1,note_on,71,48,960
1,note_on,74,48,0
1,note_on,78,0,20
1,note_on,75,0,0
1,note_on,72,48,460
1,note_on,75,48,0
1,note_on,71,0,20
1,note_on,74,0,0
1,note_on,72,0,220
1,note_on,75,0,0
1,note_on,68,50,240
1,note_on,68,0,120
1,note_on,68,42,120
1,note_on,68,0,120
1,note_on,68,56,120
1,note_on,68,0,480
1,note_on,78,60,0
1,note_on,82,60,0
1,note_on,76,48,960
1,note_on,79,48,0
1,note_on,82,0,20
1,note_on,78,0,0
1,note_on,77,49,460
1,note_on,80,49,0
1,note_on,76,0,20
1,note_on,79,0,0
1,note_on,77,0,220
1,note_on,80,0,0
1,note_on,68,49,240
1,note_on,68,0,120
1,note_on,68,42,120
1,note_on,68,0,120
1,note_on,68,55,120
1,note_on,68,0,480
1,note_on,75,58,0
1,note_on,78,58,0
1,note_on,71,44,960
1,note_on,74,44,0
1,note_on,78,0,20
1,note_on,75,0,0
1,note_on,72,48,460
1,note_on,75,48,0
1,note_on,71,0,20
1,note_on,74,0,0
1,note_on,72,0,220
1,note_on,75,0,0
1,note_on,68,51,240
1,note_on,68,0,120
1,note_on,68,43,120
1,note_on,68,0,120
1,note_on,68,52,120
1,note_on,68,0,480
1,note_on,70,53,0
1,note_on,78,53,0
1,note_on,78,0,480
1,note_on,70,0,0
1,note_on,68,45,0
1,note_on,77,45,0
1,note_on,77,0,480
1,note_on,68,0,0
1,note_on,66,49,0
1,note_on,75,49,0
1,note_on,75,0,480
1,note_on,66,0,0
1,note_on,65,47,0
1,note_on,73,47,0
1,note_on,73,0,240
1,note_on,65,0,0
1,note_on,68,40,240
1,note_on,68,0,120
1,note_on,68,36,120
1,note_on,68,0,120
1,note_on,68,40,120
1,note_on,68,0,480
1,note_on,75,47,0
1,note_on,78,47,0
1,note_on,71,42,960
1,note_on,74,42,0
1,note_on,78,0,20
1,note_on,75,0,0
1,note_on,72,42,460
1,note_on,75,42,0
1,note_on,71,0,20
1,note_on,74,0,0
1,note_on,72,0,220
1,note_on,75,0,0
1,note_on,68,44,240
1,note_on,68,0,120
1,note_on,68,39,120
1,note_on,68,0,120
1,note_on,68,53,120
1,note_on,68,0,480
1,note_on,78,64,0
1,note_on,82,64,0
1,note_on,76,52,960
1,note_on,79,52,0
1,note_on,82,0,20
1,note_on,78,0,0
1,note_on,77,52,460
1,note_on,80,52,0
1,note_on,76,0,20
1,note_on,79,0,0
1,note_on,77,0,220
1,note_on,80,0,0
1,note_on,68,45,240
1,note_on,68,0,120
1,note_on,68,36,120
1,note_on,68,0,120
1,note_on,68,55,120
1,note_on,68,0,480
1,note_on,80,63,0
1,note_on,80,0,240
1,note_on,70,63,240
1,note_on,80,49,240
1,note_on,80,0,240
1,note_on,70,0,0
1,note_on,78,56,0
1,note_on,75,56,0
1,note_on,75,0,960
1,note_on,68,53,0
1,note_on,78,0,240
1,note_on,78,46,0
1,note_on,78,0,240
1,note_on,68,0,0
1,note_on,73,50,0
1,note_on,77,50,0
1,note_on,73,0,960
1,note_on,66,40,0
1,note_on,77,0,240
1,note_on,77,40,0
1,note_on,77,0,240
1,note_on,66,0,0
1,note_on,66,38,0
1,note_on,75,38,0
1,note_on,75,0,480
1,note_on,66,0,0
1,note_on,65,36,0
1,note_on,73,36,0
1,note_on,73,0,480
1,note_on,65,0,0
1,note_on,68,43,0
1,note_on,68,0,120
1,note_on,68,35,120
1,note_on,68,0,120
1,note_on,68,43,120
1,note_on,68,0,480
1,note_on,75,48,0
1,note_on,78,48,0
1,note_on,71,45,960
1,note_on,74,45,0
1,note_on,78,0,20
1,note_on,75,0,0
1,note_on,72,45,460
1,note_on,75,45,0
1,note_on,71,0,20
1,note_on,74,0,0
1,note_on,72,0,220
1,note_on,75,0,0
1,note_on,68,47,240
1,note_on,68,0,120
1,note_on,68,42,120
1,note_on,68,0,120
1,note_on,68,56,120
1,note_on,68,0,480
1,note_on,78,60,0
1,note_on,82,60,0
1,note_on,76,48,960
1,note_on,79,48,0
1,note_on,82,0,20
1,note_on,78,0,0
1,note_on,77,49,460
1,note_on,80,49,0
1,note_on,76,0,20
1,note_on,79,0,0
1,note_on,77,0,220
1,note_on,80,0,0
1,note_on,68,47,240
1,note_on,68,0,120
1,note_on,68,40,120
1,note_on,68,0,120
1,note_on,68,55,120
1,note_on,68,0,480
1,note_on,75,58,0
1,note_on,78,58,0
1,note_on,71,44,960
1,note_on,74,44,0
1,note_on,78,0,20
1,note_on,75,0,0
1,note_on,72,48,460
1,note_on,75,48,0
1,note_on,71,0,20
1,note_on,74,0,0
1,note_on,72,0,220
1,note_on,75,0,0
1,note_on,68,44,240
1,note_on,68,0,120
1,note_on,68,39,120
1,note_on,68,0,120
1,note_on,68,52,120
1,note_on,68,0,480
1,note_on,70,53,0
1,note_on,78,53,0
1,note_on,78,0,480
1,note_on,70,0,0
1,note_on,68,46,0
1,note_on,77,46,0
1,note_on,77,0,480
1,note_on,68,0,0
1,note_on,66,49,0
1,note_on,75,49,0
1,note_on,75,0,480
1,note_on,66,0,0
1,note_on,65,47,0
1,note_on,73,47,0
1,note_on,73,0,240
1,note_on,65,0,0
1,note_on,68,40,240
1,note_on,68,0,120
1,note_on,68,33,120
1,note_on,68,0,120
1,note_on,68,40,120
1,note_on,68,0,480
1,note_on,75,47,0
1,note_on,78,47,0
1,note_on,71,42,960
1,note_on,74,42,0
1,note_on,78,0,20
1,note_on,75,0,0
1,note_on,72,42,460
1,note_on,75,42,0
1,note_on,71,0,20
1,note_on,74,0,0
1,note_on,72,0,220
1,note_on,75,0,0
1,note_on,68,37,240
1,note_on,68,0,120
1,note_on,68,29,120
1,note_on,68,0,120
1,note_on,68,53,120
1,note_on,68,0,480
1,note_on,78,64,0
1,note_on,82,64,0
1,note_on,76,52,960
1,note_on,79,52,0
1,note_on,82,0,20
1,note_on,78,0,0
1,note_on,77,52,460
1,note_on,80,52,0
1,note_on,76,0,20
1,note_on,79,0,0
1,note_on,77,0,220
1,note_on,80,0,0
1,note_on,68,45,240
1,note_on,68,0,120
1,note_on,68,41,120
1,note_on,68,0,120
1,note_on,68,55,120
1,note_on,68,0,480
1,note_on,80,63,0
1,note_on,80,0,240
1,note_on,70,63,240
1,note_on,80,49,240
1,note_on,80,0,240
1,note_on,70,0,0
1,note_on,78,56,0
1,note_on,75,56,0
1,note_on,75,0,960
1,note_on,68,53,0
1,note_on,78,0,240
1,note_on,78,46,0
1,note_on,78,0,240
1,note_on,68,0,0
1,note_on,73,50,0
1,note_on,77,50,0
1,note_on,73,0,960
1,note_on,66,40,0
1,note_on,77,0,240
1,note_on,77,40,0
1,note_on,77,0,240
1,note_on,66,0,0
1,note_on,66,38,0
1,note_on,75,38,0
1,note_on,75,0,480
1,note_on,66,0,0
1,note_on,65,36,0
1,note_on,73,36,0
1,note_on,73,0,480
1,note_on,65,0,0
1,note_on,65,77,0
1,note_on,77,77,0
1,note_on,77,0,240
1,note_on,65,0,0
1,note_on,77,69,180
1,note_on,77,0,60
1,note_on,67,82,0
1,note_on,75,82,0
1,note_on,75,0,240
1,note_on,67,0,0
1,note_on,67,68,240
1,note_on,67,0,240
1,note_on,77,55,180
1,note_on,77,0,60
1,note_on,67,67,0
1,note_on,75,67,0
1,note_on,75,0,240
1,note_on,67,0,0
1,note_on,67,81,240
1,note_on,67,0,240
1,note_on,77,59,180
1,note_on,77,0,60
1,note_on,67,69,0
1,note_on,75,69,0
1,note_on,75,0,240
1,note_on,67,0,0
1,note_on,67,66,240
1,note_on,67,0,240
1,note_on,68,59,240
1,note_on,68,0,240
1,note_on,72,47,0
1,note_on,72,0,240
1,note_on,75,53,0
1,note_on,75,0,240
1,note_on,80,53,0
1,note_on,80,0,240
1,note_on,84,59,0
1,note_on,84,0,240
1,note_on,80,63,240
1,note_on,80,0,160
1,note_on,82,44,0
1,note_on,82,0,160
1,note_on,80,51,0
1,note_on,80,0,160
1,note_on,77,36,0
1,note_on,77,0,240
1,note_on,74,58,0
1,note_on,74,0,240
1,note_on,75,63,0
1,note_on,75,0,240
1,note_on,77,64,180
1,note_on,77,0,60
1,note_on,67,78,0
1,note_on,75,78,0
1,note_on,75,0,240
1,note_on,67,0,0
1,note_on,67,60,240
1,note_on,67,0,240
1,note_on,77,53,180
1,note_on,77,0,60
1,note_on,67,71,0
1,note_on,75,71,0
1,note_on,75,0,240
1,note_on,67,0,0
1,note_on,67,81,240
1,note_on,67,0,240
1,note_on,77,51,180
1,note_on,77,0,60
1,note_on,67,72,0
1,note_on,75,72,0
1,note_on,75,0,240
1,note_on,67,0,0
1,note_on,67,72,240
1,note_on,67,0,240
1,note_on,63,64,240
1,note_on,63,0,160
1,note_on,65,52,0
1,note_on,65,0,160
1,note_on,63,60,0
1,note_on,63,0,160
1,note_on,62,44,0
1,note_on,62,0,240
1,note_on,63,54,0
1,note_on,63,0,240
1,note_on,72,58,0
1,note_on,72,0,240
1,note_on,70,53,0
1,note_on,70,0,240
1,note_on,68,48,0
1,note_on,68,0,60
1,note_on,70,41,0
1,note_on,70,0,60
1,note_on,68,64,0
1,note_on,68,0,120
1,note_on,67,49,0
1,note_on,67,0,240
1,note_on,68,71,0
1,note_on,68,0,240
1,note_on,70,66,0
1,note_on,70,0,240
1,note_on,72,77,0
1,note_on,72,0,240
1,note_on,73,56,0
1,note_on,73,0,180
1,note_on,77,69,0
1,note_on,77,0,60
1,note_on,67,85,0
1,note_on,75,85,0
1,note_on,75,0,240
1,note_on,67,0,0
1,note_on,67,63,240
1,note_on,67,0,240
1,note_on,77,57,180
1,note_on,77,0,60
1,note_on,67,70,0
1,note_on,75,70,0
1,note_on,75,0,240
1,note_on,67,0,0
1,note_on,67,86,240
1,note_on,67,0,240
1,note_on,77,67,180
1,note_on,77,0,60
1,note_on,67,74,0
1,note_on,75,74,0
1,note_on,75,0,240
1,note_on,67,0,0
1,note_on,67,65,240
1,note_on,67,0,240
1,note_on,68,57,240
1,note_on,68,0,240
1,note_on,72,38,0
1,note_on,72,0,240
1,note_on,75,43,0
1,note_on,75,0,240
1,note_on,80,53,0
1,note_on,80,0,240
1,note_on,84,57,0
1,note_on,84,0,240
1,note_on,80,67,240
1,note_on,80,0,160
1,note_on,82,52,0
1,note_on,82,0,160
1,note_on,80,58,0
1,note_on,80,0,160
1,note_on,77,64,0
1,note_on,77,0,240
1,note_on,74,50,0
1,note_on,74,0,240
1,note_on,75,68,0
1,note_on,75,0,240
1,note_on,77,67,180
1,note_on,77,0,60
1,note_on,67,81,0
1,note_on,75,81,0
1,note_on,75,0,240
1,note_on,67,0,0
1,note_on,67,72,240
1,note_on,67,0,240
1,note_on,77,67,180
1,note_on,77,0,60
1,note_on,67,72,0
1,note_on,75,72,0
1,note_on,75,0,240
1,note_on,67,0,0
1,note_on,67,86,240
1,note_on,67,0,240
1,note_on,77,64,180
1,note_on,77,0,60
1,note_on,67,72,0
1,note_on,75,72,0
1,note_on,75,0,240
1,note_on,67,0,0
1,note_on,67,63,240
1,note_on,67,0,240
1,note_on,68,45,240
1,note_on,68,0,60
1,note_on,70,37,0
1,note_on,70,0,60
1,note_on,68,46,0
1,note_on,68,0,120
1,note_on,67,39,0
1,note_on,67,0,240
1,note_on,68,58,0
1,note_on,68,0,240
1,note_on,70,53,0
1,note_on,70,0,240
1,note_on,72,58,0
1,note_on,72,0,240
1,note_on,73,54,0
1,note_on,73,0,240
1,note_on,75,60,0
1,note_on,75,0,240
1,note_on,77,57,0
1,note_on,77,0,240
1,note_on,78,67,0
1,note_on,78,0,240
1,note_on,79,59,0
1,note_on,79,0,240
1,note_on,82,68,0
1,note_on,82,0,360
1,note_on,80,47,0
1,note_on,80,0,120
1,note_on,75,55,0
1,note_on,78,55,0
1,note_on,71,48,960
1,note_on,74,48,0
1,note_on,78,0,20
1,note_on,75,0,0
1,note_on,72,48,460
1,note_on,75,48,0
1,note_on,71,0,20
1,note_on,74,0,0
1,note_on,72,0,220
1,note_on,75,0,0
1,note_on,68,43,240
1,note_on,68,0,120
1,note_on,68,37,120
1,note_on,68,0,120
1,note_on,68,56,120
1,note_on,68,0,480
1,note_on,78,60,0
1,note_on,82,60,0
1,note_on,76,48,960
1,note_on,79,48,0
1,note_on,82,0,20
1,note_on,78,0,0
1,note_on,77,49,460
1,note_on,80,49,0
1,note_on,76,0,20
1,note_on,79,0,0
1,note_on,77,0,220
1,note_on,80,0,0
1,note_on,68,42,240
1,note_on,68,0,120
1,note_on,68,35,120
1,note_on,68,0,120
1,note_on,68,55,120
1,note_on,68,0,480
1,note_on,75,58,0
1,note_on,78,58,0
1,note_on,71,44,960
1,note_on,74,44,0
1,note_on,78,0,20
1,note_on,75,0,0
1,note_on,72,48,460
1,note_on,75,48,0
1,note_on,71,0,20
1,note_on,74,0,0
1,note_on,72,0,220
1,note_on,75,0,0
1,note_on,68,44,240
1,note_on,68,0,120
1,note_on,68,44,120
1,note_on,68,0,120
1,note_on,68,52,120
1,note_on,68,0,480
1,note_on,70,53,0
1,note_on,78,53,0
1,note_on,78,0,480
1,note_on,70,0,0
1,note_on,68,51,0
1,note_on,77,51,0
1,note_on,77,0,480
1,note_on,68,0,0
1,note_on,66,49,0
1,note_on,75,49,0
1,note_on,75,0,480
1,note_on,66,0,0
1,note_on,65,47,0
1,note_on,73,47,0
1,note_on,73,0,240
1,note_on,65,0,0
1,note_on,68,40,240
1,note_on,68,0,120
1,note_on,68,37,120
1,note_on,68,0,120
1,note_on,68,40,120
1,note_on,68,0,480
1,note_on,75,47,0
1,note_on,78,47,0
1,note_on,71,42,960
1,note_on,74,42,0
1,note_on,78,0,20
1,note_on,75,0,0
1,note_on,72,42,460
1,note_on,75,42,0
1,note_on,71,0,20
1,note_on,74,0,0
1,note_on,72,0,220
1,note_on,75,0,0
1,note_on,68,37,240
1,note_on,68,0,120
1,note_on,68,35,120
1,note_on,68,0,120
1,note_on,68,53,120
1,note_on,68,0,480
1,note_on,78,64,0
1,note_on,82,64,0
1,note_on,76,52,960
1,note_on,79,52,0
1,note_on,82,0,20
1,note_on,78,0,0
1,note_on,77,52,460
1,note_on,80,52,0
1,note_on,76,0,20
1,note_on,79,0,0
1,note_on,77,0,220
1,note_on,80,0,0
1,note_on,68,45,240
1,note_on,68,0,120
1,note_on,68,36,120
1,note_on,68,0,120
1,note_on,68,55,120
1,note_on,68,0,480
1,note_on,80,63,0
1,note_on,80,0,240
1,note_on,70,63,240
1,note_on,80,49,240
1,note_on,80,0,240
1,note_on,70,0,0
1,note_on,78,56,0
1,note_on,75,56,0
1,note_on,75,0,960
1,note_on,68,53,0
1,note_on,78,0,240
1,note_on,78,46,0
1,note_on,78,0,240
1,note_on,68,0,0
1,note_on,73,50,0
1,note_on,77,50,0
1,note_on,73,0,960
1,note_on,66,40,0
1,note_on,77,0,240
1,note_on,77,40,0
1,note_on,77,0,240
1,note_on,66,0,0
1,note_on,66,38,0
1,note_on,75,38,0
1,note_on,75,0,480
1,note_on,66,0,0
1,note_on,65,36,0
1,note_on,73,36,0
1,note_on,73,0,240
1,note_on,65,0,0
1,note_on,61,52,240
1,note_on,61,0,120
1,note_on,61,52,120
1,note_on,61,0,120
1,note_on,61,52,120
1,note_on,61,0,480
1,note_on,65,72,0
1,note_on,68,72,0
1,note_on,68,0,240
1,note_on,65,0,0
1,note_on,65,69,720
1,note_on,68,69,0
1,note_on,68,0,240
1,note_on,65,0,0
1,note_on,68,66,240
1,note_on,68,0,60
1,note_on,70,66,0
1,note_on,70,0,60
1,note_on,65,72,0
1,note_on,68,72,0
1,note_on,68,0,120
1,note_on,65,0,0
1,note_on,63,60,480
1,note_on,66,60,0
1,note_on,66,0,240
1,note_on,63,0,0
1,note_on,65,72,0
1,note_on,68,72,0
1,note_on,68,0,480
1,note_on,65,0,0
1,note_on,66,76,0
1,note_on,70,76,0
1,note_on,70,0,240
1,note_on,66,0,0
1,note_on,70,81,720
1,note_on,73,81,0
1,note_on,73,0,240
1,note_on,70,0,0
1,note_on,70,87,240
1,note_on,78,87,0
1,note_on,78,0,1440
1,note_on,70,0,0
1,note_on,68,58,0
1,note_on,77,58,0
1,note_on,77,0,240
1,note_on,68,0,0
1,note_on,75,54,480
1,note_on,75,0,120
1,note_on,66,58,120
1,note_on,75,58,0
1,note_on,75,0,480
1,note_on,66,0,0
1,note_on,68,60,0
1,note_on,77,60,0
1,note_on,77,0,240
1,note_on,68,0,0
1,note_on,75,50,480
1,note_on,75,0,120
1,note_on,66,56,120
1,note_on,75,56,0
1,note_on,75,0,480
1,note_on,66,0,0
1,note_on,68,60,0
1,note_on,77,60,0
1,note_on,77,0,240
1,note_on,68,0,0
1,note_on,75,51,480
1,note_on,75,0,120
1,note_on,66,57,120
1,note_on,75,57,0
1,note_on,75,0,480
1,note_on,66,0,0
1,note_on,64,68,0
1,note_on,72,68,0
1,note_on,72,0,240
1,note_on,64,0,0
1,note_on,73,56,480
1,note_on,73,0,120
1,note_on,65,62,120
1,note_on,73,62,0
1,note_on,73,0,480
1,note_on,65,0,0
1,note_on,77,86,0
1,note_on,80,86,0
1,note_on,80,0,240
1,note_on,77,0,0
1,note_on,80,72,480
1,note_on,77,72,0
1,note_on,77,0,120
1,note_on,80,0,0
1,note_on,77,80,120
1,note_on,80,80,0
1,note_on,80,0,480
1,note_on,77,0,0
1,note_on,80,77,0
1,note_on,80,0,60
1,note_on,82,78,0
1,note_on,82,0,60
1,note_on,77,86,0
1,note_on,80,86,0
1,note_on,80,0,120
1,note_on,77,0,0
1,note_on,75,80,480
1,note_on,78,80,0
1,note_on,78,0,240
1,note_on,75,0,0
1,note_on,77,80,0
1,note_on,80,80,0
1,note_on,80,0,480
1,note_on,77,0,0
1,note_on,82,88,0
1,note_on,78,88,0
1,note_on,78,0,240
1,note_on,82,0,0
1,note_on,85,88,720
1,note_on,82,88,0
1,note_on,82,0,240
1,note_on,85,0,0
1,note_on,90,94,240
1,note_on,82,94,0
1,note_on,82,0,1440
1,note_on,90,0,0
1,note_on,89,58,0
1,note_on,80,58,0
1,note_on,80,0,240
1,note_on,89,0,0
1,note_on,87,48,480
1,note_on,87,0,120
1,note_on,78,56,120
1,note_on,87,56,0
1,note_on,87,0,480
1,note_on,78,0,0
1,note_on,89,59,0
1,note_on,80,59,0
1,note_on,80,0,240
1,note_on,89,0,0
1,note_on,87,55,480
1,note_on,87,0,120
1,note_on,78,55,120
1,note_on,87,55,0
1,note_on,87,0,480
1,note_on,78,0,0
1,note_on,80,59,0
1,note_on,89,59,0
1,note_on,89,0,240
1,note_on,80,0,0
1,note_on,87,50,480
1,note_on,87,0,120
1,note_on,78,55,120
1,note_on,87,55,0
1,note_on,87,0,480
1,note_on,78,0,0
1,note_on,85,59,0
1,note_on,77,59,0
1,note_on,77,0,480
1,note_on,85,0,0
1,note_on,61,67,480
1,note_on,61,0,480
1,note_on,65,72,0
1,note_on,68,72,0
1,note_on,68,0,240
1,note_on,65,0,0
1,note_on,65,69,720
1,note_on,68,69,0
1,note_on,68,0,240
1,note_on,65,0,0
1,note_on,68,66,240
1,note_on,68,0,60
1,note_on,70,66,0
1,note_on,70,0,60
1,note_on,65,72,0
1,note_on,68,72,0
1,note_on,68,0,120
1,note_on,65,0,0
1,note_on,63,68,480
1,note_on,66,68,0
1,note_on,66,0,240
1,note_on,63,0,0
1,note_on,65,72,0
1,note_on,68,72,0
1,note_on,68,0,480
1,note_on,65,0,0
1,note_on,66,76,0
1,note_on,70,76,0
1,note_on,70,0,240
1,note_on,66,0,0
1,note_on,70,81,720
1,note_on,73,81,0
1,note_on,73,0,240
1,note_on,70,0,0
1,note_on,70,87,240
1,note_on,78,87,0
1,note_on,78,0,1440
1,note_on,70,0,0
1,note_on,68,61,0
1,note_on,77,61,0
1,note_on,77,0,240
1,note_on,68,0,0
1,note_on,75,52,480
1,note_on,75,0,120
1,note_on,66,56,120
1,note_on,75,56,0
1,note_on,75,0,480
1,note_on,66,0,0
1,note_on,68,60,0
1,note_on,77,60,0
1,note_on,77,0,240
1,note_on,68,0,0
1,note_on,75,52,480
1,note_on,75,0,120
1,note_on,66,56,120
1,note_on,75,56,0
1,note_on,75,0,480
1,note_on,66,0,0
1,note_on,68,60,0
1,note_on,77,60,0
1,note_on,77,0,240
1,note_on,68,0,0
1,note_on,75,55,480
1,note_on,75,0,120
1,note_on,66,57,120
1,note_on,75,57,0
1,note_on,75,0,480
1,note_on,66,0,0
1,note_on,64,68,0
1,note_on,72,68,0
1,note_on,72,0,240
1,note_on,64,0,0
1,note_on,73,58,480
1,note_on,73,0,120
1,note_on,65,62,120
1,note_on,73,62,0
1,note_on,73,0,480
1,note_on,65,0,0
1,note_on,77,86,0
1,note_on,80,86,0
1,note_on,80,0,240
1,note_on,77,0,0
1,note_on,80,80,480
1,note_on,77,80,0
1,note_on,77,0,120
1,note_on,80,0,0
1,note_on,77,80,120
1,note_on,80,80,0
1,note_on,80,0,480
1,note_on,77,0,0
1,note_on,80,77,0
1,note_on,80,0,60
1,note_on,82,78,0
1,note_on,82,0,60
1,note_on,77,86,0
1,note_on,80,86,0
1,note_on,80,0,120
1,note_on,77,0,0
1,note_on,75,75,480
1,note_on,78,75,0
1,note_on,78,0,240
1,note_on,75,0,0
1,note_on,77,80,0
1,note_on,80,80,0
1,note_on,80,0,480
1,note_on,77,0,0
1,note_on,82,88,0
1,note_on,78,88,0
1,note_on,78,0,240
1,note_on,82,0,0
1,note_on,85,92,720
1,note_on,82,92,0
1,note_on,82,0,240
1,note_on,85,0,0
1,note_on,90,101,240
1,note_on,82,101,0
1,note_on,82,0,1440
1,note_on,90,0,0
1,note_on,89,59,0
1,note_on,80,59,0
1,note_on,80,0,240
1,note_on,89,0,0
1,note_on,87,56,480
1,note_on,87,0,120
1,note_on,78,56,120
1,note_on,87,56,0
1,note_on,87,0,480
1,note_on,78,0,0
1,note_on,89,59,0
1,note_on,80,59,0
1,note_on,80,0,240
1,note_on,89,0,0
1,note_on,87,51,480
1,note_on,87,0,120
1,note_on,78,55,120
1,note_on,87,55,0
1,note_on,87,0,480
1,note_on,78,0,0
1,note_on,80,59,0
1,note_on,89,59,0
1,note_on,89,0,240
1,note_on,80,0,0
1,note_on,87,52,480
1,note_on,87,0,120
1,note_on,78,55,120
1,note_on,87,55,0
1,note_on,87,0,480
1,note_on,78,0,0
1,note_on,85,59,0
1,note_on,77,59,0
1,note_on,77,0,480
1,note_on,85,0,0
1,note_on,77,50,480
1,note_on,77,0,410
1,note_on,77,45,10
1,note_on,77,0,60
1,note_on,78,52,0
1,note_on,78,0,240
1,note_on,78,41,180
1,note_on,78,0,60
1,note_on,76,46,0
1,note_on,76,0,240
1,note_on,76,43,180
1,note_on,76,0,60
1,note_on,77,50,0
1,note_on,77,0,240
1,note_on,77,46,180
1,note_on,77,0,60
1,note_on,78,53,0
1,note_on,78,0,240
1,note_on,78,44,180
1,note_on,78,0,60
1,note_on,76,50,0
1,note_on,76,0,240
1,note_on,76,45,180
1,note_on,76,0,60
1,note_on,77,50,0
1,note_on,77,0,240
1,note_on,77,50,180
1,note_on,77,0,60
1,note_on,85,57,0
1,note_on,85,0,240
1,note_on,85,50,180
1,note_on,85,0,60
1,note_on,84,59,0
1,note_on,84,0,240
1,note_on,84,56,180
1,note_on,84,0,60
1,note_on,83,66,0
1,note_on,83,0,240
1,note_on,83,64,180
1,note_on,83,0,60
1,note_on,82,75,0
1,note_on,82,0,240
1,note_on,82,63,180
1,note_on,82,0,60
1,note_on,81,73,0
1,note_on,81,0,240
1,note_on,81,63,180
1,note_on,81,0,60
1,note_on,80,70,0
1,note_on,80,0,240
1,note_on,80,58,180
1,note_on,80,0,60
1,note_on,79,67,0
1,note_on,79,0,240
1,note_on,79,54,180
1,note_on,79,0,60
1,note_on,78,65,0
1,note_on,78,0,240
1,note_on,78,51,180
1,note_on,78,0,60
1,note_on,77,63,0
1,note_on,77,0,240
1,note_on,77,49,180
1,note_on,77,0,60
1,note_on,76,60,0
1,note_on,76,0,240
1,note_on,76,46,180
1,note_on,76,0,60
1,note_on,75,58,0
1,note_on,75,0,240
1,note_on,75,44,180
1,note_on,75,0,60
1,note_on,72,54,0
1,note_on,72,0,240
1,note_on,72,44,180
1,note_on,72,0,60
1,note_on,73,52,0
1,note_on,73,0,240
1,note_on,73,38,180
1,note_on,73,0,60
1,note_on,69,48,0
1,note_on,69,0,240
1,note_on,69,39,180
1,note_on,69,0,60
1,note_on,70,50,0
1,note_on,70,0,240
1,note_on,70,39,180
1,note_on,70,0,60
1,note_on,73,50,0
1,note_on,73,0,240
1,note_on,73,39,180
1,note_on,73,0,60
1,note_on,75,50,0
1,note_on,75,0,240
1,note_on,75,37,180
1,note_on,75,0,60
1,note_on,76,51,0
1,note_on,76,0,240
1,note_on,76,40,180
1,note_on,76,0,60
1,note_on,78,54,0
1,note_on,78,0,240
1,note_on,78,44,180
1,note_on,78,0,60
1,note_on,76,55,0
1,note_on,76,0,240
1,note_on,76,44,180
1,note_on,76,0,60
1,note_on,77,58,0
1,note_on,77,0,240
1,note_on,77,49,180
1,note_on,77,0,60
1,note_on,78,62,0
1,note_on,78,0,240
1,note_on,78,51,180
1,note_on,78,0,60
1,note_on,76,68,0
1,note_on,76,0,240
1,note_on,76,54,180
1,note_on,76,0,60
1,note_on,77,73,0
1,note_on,77,0,240
1,note_on,77,71,180
1,note_on,77,0,60
1,note_on,89,83,0
1,note_on,89,0,240
1,note_on,89,68,180
1,note_on,89,0,60
1,note_on,85,80,0
1,note_on,85,0,240
1,note_on,85,63,180
1,note_on,85,0,60
1,note_on,82,76,0
1,note_on,82,0,240
1,note_on,82,57,180
1,note_on,82,0,60
1,note_on,78,71,0
1,note_on,78,0,240
1,note_on,78,52,180
1,note_on,78,0,60
1,note_on,75,66,0
1,note_on,75,0,240
1,note_on,75,44,180
1,note_on,75,0,60
1,note_on,72,57,0
1,note_on,72,0,240
1,note_on,78,41,180
1,note_on,78,0,60
1,note_on,77,55,0
1,note_on,77,0,240
1,note_on,77,42,180
1,note_on,77,0,60
1,note_on,76,53,0
1,note_on,76,0,240
1,note_on,76,42,180
1,note_on,76,0,60
1,note_on,75,55,0
1,note_on,75,0,240
1,note_on,75,43,180
1,note_on,75,0,60
1,note_on,74,56,0
1,note_on,74,0,240
1,note_on,74,44,180
1,note_on,74,0,60
1,note_on,73,58,0
1,note_on,73,0,240
1,note_on,73,46,180
1,note_on,73,0,60
1,note_on,72,60,0
1,note_on,72,0,240
1,note_on,72,46,180
1,note_on,72,0,60
1,note_on,71,62,0
1,note_on,71,0,240
1,note_on,71,49,180
1,note_on,71,0,60
1,note_on,70,64,0
1,note_on,70,0,240
1,note_on,70,48,180
1,note_on,70,0,60
1,note_on,69,66,0
1,note_on,69,0,240
1,note_on,69,47,180
1,note_on,69,0,60
1,note_on,68,67,0
1,note_on,68,0,240
1,note_on,68,51,180
1,note_on,68,0,60
1,note_on,67,69,0
1,note_on,67,0,240
1,note_on,67,55,180
1,note_on,67,0,60
1,note_on,66,71,0
1,note_on,66,0,240
1,note_on,65,72,240
1,note_on,68,72,0
1,note_on,68,0,240
1,note_on,65,0,0
1,note_on,65,69,720
1,note_on,68,69,0
1,note_on,68,0,480
1,note_on,65,0,0
1,note_on,68,66,0
1,note_on,68,0,60
1,note_on,70,66,0
1,note_on,70,0,60
1,note_on,65,72,0
1,note_on,68,72,0
1,note_on,68,0,120
1,note_on,65,0,0
1,note_on,63,68,480
1,note_on,66,68,0
1,note_on,66,0,240
1,note_on,63,0,0
1,note_on,65,72,0
1,note_on,68,72,0
1,note_on,68,0,480
1,note_on,65,0,0
1,note_on,66,76,0
1,note_on,70,76,0
1,note_on,70,0,240
1,note_on,66,0,0
1,note_on,70,81,720
1,note_on,73,81,0
1,note_on,73,0,240
1,note_on,70,0,0
1,note_on,70,87,240
1,note_on,78,87,0
1,note_on,78,0,1440
1,note_on,70,0,0
1,note_on,68,61,0
1,note_on,77,61,0
1,note_on,77,0,240
1,note_on,68,0,0
1,note_on,75,52,480
1,note_on,75,0,120
1,note_on,66,56,120
1,note_on,75,56,0
1,note_on,75,0,480
1,note_on,66,0,0
1,note_on,68,60,0
1,note_on,77,60,0
1,note_on,77,0,240
1,note_on,68,0,0
1,note_on,75,53,480
1,note_on,75,0,120
1,note_on,66,56,120
1,note_on,75,56,0
1,note_on,75,0,480
1,note_on,66,0,0
1,note_on,68,60,0
1,note_on,77,60,0
1,note_on,77,0,240
1,note_on,68,0,0
1,note_on,75,53,480
1,note_on,75,0,120
1,note_on,66,57,120
1,note_on,75,57,0
1,note_on,75,0,480
1,note_on,66,0,0
1,note_on,64,68,0
1,note_on,72,68,0
1,note_on,72,0,240
1,note_on,64,0,0
1,note_on,73,57,480
1,note_on,73,0,120
1,note_on,65,62,120
1,note_on,73,62,0
1,note_on,73,0,480
1,note_on,65,0,0
1,note_on,77,86,0
1,note_on,80,86,0
1,note_on,80,0,240
1,note_on,77,0,0
1,note_on,80,76,480
1,note_on,77,76,0
1,note_on,77,0,120
1,note_on,80,0,0
1,note_on,77,80,120
1,note_on,80,80,0
1,note_on,80,0,480
1,note_on,77,0,0
1,note_on,80,77,0
1,note_on,80,0,60
1,note_on,82,78,0
1,note_on,82,0,60
1,note_on,77,86,0
1,note_on,80,86,0
1,note_on,80,0,120
1,note_on,77,0,0
1,note_on,75,76,480
1,note_on,78,76,0
1,note_on,78,0,240
1,note_on,75,0,0
1,note_on,77,80,0
1,note_on,80,80,0
1,note_on,80,0,480
1,note_on,77,0,0
1,note_on,82,88,0
1,note_on,78,88,0
1,note_on,78,0,240
1,note_on,82,0,0
1,note_on,85,92,720
1,note_on,82,92,0
1,note_on,82,0,240
1,note_on,85,0,0
1,note_on,90,96,240
1,note_on,82,96,0
1,note_on,82,0,1440
1,note_on,90,0,0
1,note_on,89,59,0
1,note_on,80,59,0
1,note_on,80,0,240
1,note_on,89,0,0
1,note_on,87,52,480
1,note_on,87,0,120
1,note_on,78,56,120
1,note_on,87,56,0
1,note_on,87,0,480
1,note_on,78,0,0
1,note_on,89,59,0
1,note_on,80,59,0
1,note_on,80,0,240
1,note_on,89,0,0
1,note_on,87,52,480
1,note_on,87,0,120
1,note_on,78,55,120
1,note_on,87,55,0
1,note_on,87,0,480
1,note_on,78,0,0
1,note_on,80,59,0
1,note_on,89,59,0
1,note_on,89,0,240
1,note_on,80,0,0
1,note_on,87,53,480
1,note_on,87,0,120
1,note_on,78,55,120
1,note_on,87,55,0
1,note_on,87,0,480
1,note_on,78,0,0
1,note_on,85,59,0
1,note_on,77,59,0
1,note_on,77,0,480
1,note_on,85,0,0
1,note_on,77,50,480
1,note_on,77,0,410
1,note_on,77,45,10
1,note_on,77,0,60
1,note_on,78,52,0
1,note_on,78,0,240
1,note_on,78,44,180
1,note_on,78,0,60
1,note_on,76,50,0
1,note_on,76,0,240
1,note_on,76,43,180
1,note_on,76,0,60
1,note_on,77,50,0
1,note_on,77,0,240
1,note_on,77,46,180
1,note_on,77,0,60
1,note_on,78,53,0
1,note_on,78,0,240
1,note_on,78,44,180
1,note_on,78,0,60
1,note_on,76,50,0
1,note_on,76,0,240
1,note_on,76,45,180
1,note_on,76,0,60
1,note_on,77,50,0
1,note_on,77,0,240
1,note_on,77,50,180
1,note_on,77,0,60
1,note_on,85,57,0
1,note_on,85,0,240
1,note_on,85,50,180
1,note_on,85,0,60
1,note_on,84,59,0
1,note_on,84,0,240
1,note_on,84,56,180
1,note_on,84,0,60
1,note_on,83,66,0
1,note_on,83,0,240
1,note_on,83,64,180
1,note_on,83,0,60
1,note_on,82,75,0
1,note_on,82,0,240
1,note_on,82,63,180
1,note_on,82,0,60
1,note_on,81,73,0
1,note_on,81,0,240
1,note_on,81,63,180
1,note_on,81,0,60
1,note_on,80,70,0
1,note_on,80,0,240
1,note_on,80,58,180
1,note_on,80,0,60
1,note_on,79,67,0
1,note_on,79,0,240
1,note_on,79,54,180
1,note_on,79,0,60
1,note_on,78,65,0
1,note_on,78,0,240
1,note_on,78,51,180
1,note_on,78,0,60
1,note_on,77,63,0
1,note_on,77,0,240
1,note_on,77,49,180
1,note_on,77,0,60
1,note_on,76,60,0
1,note_on,76,0,240
1,note_on,76,46,180
1,note_on,76,0,60
1,note_on,75,58,0
1,note_on,75,0,240
1,note_on,75,44,180
1,note_on,75,0,60
1,note_on,72,54,0
1,note_on,72,0,240
1,note_on,72,44,180
1,note_on,72,0,60
1,note_on,73,52,0
1,note_on,73,0,240
1,note_on,73,38,180
1,note_on,73,0,60
1,note_on,69,50,0
1,note_on,69,0,240
1,note_on,69,39,180
1,note_on,69,0,60
1,note_on,70,50,0
1,note_on,70,0,240
1,note_on,70,39,180
1,note_on,70,0,60
1,note_on,73,50,0
1,note_on,73,0,240
1,note_on,73,39,180
1,note_on,73,0,60
1,note_on,75,50,0
1,note_on,75,0,240
1,note_on,75,37,180
1,note_on,75,0,60
1,note_on,76,51,0
1,note_on,76,0,240
1,note_on,76,40,180
1,note_on,76,0,60
1,note_on,78,54,0
1,note_on,78,0,240
1,note_on,78,44,180
1,note_on,78,0,60
1,note_on,76,55,0
1,note_on,76,0,240
1,note_on,76,44,180
1,note_on,76,0,60
1,note_on,77,58,0
1,note_on,77,0,240
1,note_on,77,49,180
1,note_on,77,0,60
1,note_on,78,62,0
1,note_on,78,0,240
1,note_on,78,51,180
1,note_on,78,0,60
1,note_on,76,68,0
1,note_on,76,0,240
1,note_on,76,54,180
1,note_on,76,0,60
1,note_on,77,73,0
1,note_on,77,0,240
1,note_on,77,71,180
1,note_on,77,0,60
1,note_on,89,83,0
1,note_on,89,0,240
1,note_on,89,68,180
1,note_on,89,0,60
1,note_on,85,80,0
1,note_on,85,0,240
1,note_on,85,63,180
1,note_on,85,0,60
1,note_on,82,76,0
1,note_on,82,0,240
1,note_on,82,57,180
1,note_on,82,0,60
1,note_on,78,71,0
1,note_on,78,0,240
1,note_on,78,52,180
1,note_on,78,0,60
1,note_on,75,66,0
1,note_on,75,0,240
1,note_on,75,44,180
1,note_on,75,0,60
1,note_on,72,57,0
1,note_on,72,0,240
1,note_on,78,41,180
1,note_on,78,0,60
1,note_on,77,55,0
1,note_on,77,0,240
1,note_on,77,42,180
1,note_on,77,0,60
1,note_on,76,53,0
1,note_on,76,0,240
1,note_on,76,42,180
1,note_on,76,0,60
1,note_on,75,55,0
1,note_on,75,0,240
1,note_on,75,43,180
1,note_on,75,0,60
1,note_on,74,56,0
1,note_on,74,0,240
1,note_on,74,44,180
1,note_on,74,0,60
1,note_on,73,58,0
1,note_on,73,0,240
1,note_on,73,46,180
1,note_on,73,0,60
1,note_on,72,60,0
1,note_on,72,0,240
1,note_on,72,46,180
1,note_on,72,0,60
1,note_on,71,62,0
1,note_on,71,0,240
1,note_on,71,49,180
1,note_on,71,0,60
1,note_on,70,64,0
1,note_on,70,0,240
1,note_on,70,48,180
1,note_on,70,0,60
1,note_on,69,66,0
1,note_on,69,0,240
1,note_on,69,47,180
1,note_on,69,0,60
1,note_on,68,67,0
1,note_on,68,0,240
1,note_on,68,51,180
1,note_on,68,0,60
1,note_on,67,69,0
1,note_on,67,0,240
1,note_on,67,55,180
1,note_on,67,0,60
1,note_on,66,71,0
1,note_on,66,0,240
1,note_on,65,72,240
1,note_on,68,72,0
1,note_on,68,0,240
1,note_on,65,0,0
1,note_on,65,69,720
1,note_on,68,69,0
1,note_on,68,0,480
1,note_on,65,0,0
1,note_on,68,66,0
1,note_on,68,0,60
1,note_on,70,66,0
1,note_on,70,0,60
1,note_on,65,72,0
1,note_on,68,72,0
1,note_on,68,0,120
1,note_on,65,0,0
1,note_on,63,68,480
1,note_on,66,68,0
1,note_on,66,0,240
1,note_on,63,0,0
1,note_on,65,72,0
1,note_on,68,72,0
1,note_on,68,0,480
1,note_on,65,0,0
1,note_on,66,76,0
1,note_on,70,76,0
1,note_on,70,0,240
1,note_on,66,0,0
1,note_on,70,81,720
1,note_on,73,81,0
1,note_on,73,0,240
1,note_on,70,0,0
1,note_on,70,87,240
1,note_on,78,87,0
1,note_on,78,0,1440
1,note_on,70,0,0
1,note_on,68,61,0
1,note_on,77,61,0
1,note_on,77,0,240
1,note_on,68,0,0
1,note_on,75,54,480
1,note_on,75,0,120
1,note_on,66,56,120
1,note_on,75,56,0
1,note_on,75,0,480
1,note_on,66,0,0
1,note_on,68,60,0
1,note_on,77,60,0
1,note_on,77,0,240
1,note_on,68,0,0
1,note_on,75,54,480
1,note_on,75,0,120
1,note_on,66,56,120
1,note_on,75,56,0
1,note_on,75,0,480
1,note_on,66,0,0
1,note_on,68,60,0
1,note_on,77,60,0
1,note_on,77,0,240
1,note_on,68,0,0
1,note_on,75,55,480
1,note_on,75,0,120
1,note_on,66,57,120
1,note_on,75,57,0
1,note_on,75,0,480
1,note_on,66,0,0
1,note_on,64,68,0
1,note_on,72,68,0
1,note_on,72,0,240
1,note_on,64,0,0
1,note_on,73,57,480
1,note_on,73,0,120
1,note_on,65,62,120
1,note_on,73,62,0
1,note_on,73,0,480
1,note_on,65,0,0
1,note_on,77,86,0
1,note_on,80,86,0
1,note_on,80,0,240
1,note_on,77,0,0
1,note_on,80,77,480
1,note_on,77,77,0
1,note_on,77,0,120
1,note_on,80,0,0
1,note_on,77,80,120
1,note_on,80,80,0
1,note_on,80,0,480
1,note_on,77,0,0
1,note_on,80,77,0
1,note_on,80,0,60
1,note_on,82,78,0
1,note_on,82,0,60
1,note_on,77,86,0
1,note_on,80,86,0
1,note_on,80,0,120
1,note_on,77,0,0
1,note_on,75,77,480
1,note_on,78,77,0
1,note_on,78,0,240
1,note_on,75,0,0
1,note_on,77,80,0
1,note_on,80,80,0
1,note_on,80,0,480
1,note_on,77,0,0
1,note_on,82,88,0
1,note_on,78,88,0
1,note_on,78,0,240
1,note_on,82,0,0
1,note_on,85,92,720
1,note_on,82,92,0
1,note_on,82,0,240
1,note_on,85,0,0
1,note_on,90,95,240
1,note_on,82,95,0
1,note_on,82,0,1440
1,note_on,90,0,0
1,note_on,89,59,0
1,note_on,80,59,0
1,note_on,80,0,240
1,note_on,89,0,0
1,note_on,87,53,480
1,note_on,87,0,120
1,note_on,78,56,120
1,note_on,87,56,0
1,note_on,87,0,480
1,note_on,78,0,0
1,note_on,89,59,0
1,note_on,80,59,0
1,note_on,80,0,240
1,note_on,89,0,0
1,note_on,87,52,480
1,note_on,87,0,120
1,note_on,78,55,120
1,note_on,87,55,0
1,note_on,87,0,480
1,note_on,78,0,0
1,note_on,80,59,0
1,note_on,89,59,0
1,note_on,89,0,240
1,note_on,80,0,0
1,note_on,87,52,480
1,note_on,87,0,120
1,note_on,78,55,120
1,note_on,87,55,0
1,note_on,87,0,480
1,note_on,78,0,0
1,note_on,85,59,0
1,note_on,77,59,0
1,note_on,77,0,480
1,note_on,85,0,0
1,note_on,73,51,480
1,note_on,73,0,240
1,note_on,73,51,0
1,note_on,73,0,240
1,note_on,73,54,0
1,note_on,73,0,240
1,note_on,75,55,0
1,note_on,75,0,240
1,note_on,73,54,0
1,note_on,73,0,240
1,note_on,72,48,0
1,note_on,72,0,240
1,note_on,73,49,0
1,note_on,73,0,240
1,note_on,74,51,0
1,note_on,74,0,240
1,note_on,77,53,0
1,note_on,77,0,960
1,note_on,75,50,0
1,note_on,75,0,480
1,note_on,68,50,0
1,note_on,68,0,240
1,note_on,70,50,0
1,note_on,70,0,240
1,note_on,68,50,0
1,note_on,68,0,240
1,note_on,67,50,0
1,note_on,67,0,240
1,note_on,68,50,0
1,note_on,68,0,240
1,note_on,69,50,0
1,note_on,69,0,240
1,note_on,70,61,0
1,note_on,70,0,480
1,note_on,66,50,0
1,note_on,66,0,120
1,note_on,70,51,120
1,note_on,70,0,240
1,note_on,71,54,0
1,note_on,71,0,240
1,note_on,72,56,0
1,note_on,72,0,240
1,note_on,73,50,0
1,note_on,73,0,60
1,note_on,75,50,0
1,note_on,75,0,60
1,note_on,73,50,0
1,note_on,73,0,120
1,note_on,72,55,0
1,note_on,72,0,240
1,note_on,73,57,0
1,note_on,73,0,240
1,note_on,82,58,0
1,note_on,82,0,240
1,note_on,80,60,0
1,note_on,80,0,240
1,note_on,78,62,0
1,note_on,78,0,240
1,note_on,77,64,0
1,note_on,77,0,960
1,note_on,75,56,0
1,note_on,75,0,480
1,note_on,68,52,0
1,note_on,68,0,160
1,note_on,70,50,0
1,note_on,70,0,160
1,note_on,68,50,0
1,note_on,68,0,160
1,note_on,67,52,0
1,note_on,67,0,240
1,note_on,68,50,0
1,note_on,68,0,240
1,note_on,71,56,0
1,note_on,71,0,240
1,note_on,70,50,0
1,note_on,70,0,240
1,note_on,66,50,0
1,note_on,66,0,120
1,note_on,60,42,120
1,note_on,60,0,240
1,note_on,61,43,0
1,note_on,61,0,240
1,note_on,65,45,0
1,note_on,65,0,240
1,note_on,66,47,0
1,note_on,66,0,240
1,note_on,70,48,0
1,note_on,70,0,240
1,note_on,73,50,0
1,note_on,73,0,240
1,note_on,75,51,0
1,note_on,75,0,240
1,note_on,73,53,0
1,note_on,73,0,240
1,note_on,72,55,0
1,note_on,72,0,240
1,note_on,73,56,0
1,note_on,73,0,240
1,note_on,74,58,0
1,note_on,74,0,180
1,note_on,74,54,0
1,note_on,74,0,60
1,note_on,77,67,0
1,note_on,77,0,960
1,note_on,75,59,0
1,note_on,75,0,480
1,note_on,68,50,0
1,note_on,68,0,240
1,note_on,70,50,0
1,note_on,70,0,240
1,note_on,68,41,0
1,note_on,68,0,60
1,note_on,70,41,0
1,note_on,70,0,60
1,note_on,68,49,0
1,note_on,68,0,120
1,note_on,67,50,0
1,note_on,67,0,240
1,note_on,68,52,0
1,note_on,68,0,240
1,note_on,69,55,0
1,note_on,69,0,240
1,note_on,70,64,0
1,note_on,70,0,480
1,note_on,66,54,0
1,note_on,66,0,120
1,note_on,70,53,120
1,note_on,70,0,240
1,note_on,71,55,0
1,note_on,71,0,240
1,note_on,72,57,0
1,note_on,72,0,240
1,note_on,73,50,0
1,note_on,73,0,60
1,note_on,75,50,0
1,note_on,75,0,60
1,note_on,73,59,0
1,note_on,73,0,120
1,note_on,72,57,0
1,note_on,72,0,240
1,note_on,73,58,0
1,note_on,73,0,160
1,note_on,83,67,0
1,note_on,83,0,160
1,note_on,82,65,0
1,note_on,82,0,160
1,note_on,82,63,0
1,note_on,82,0,160
1,note_on,80,61,0
1,note_on,80,0,160
1,note_on,78,59,0
1,note_on,78,0,160
1,note_on,77,57,0
1,note_on,77,0,960
1,note_on,75,55,0
1,note_on,75,0,480
1,note_on,68,46,0
1,note_on,68,0,160
1,note_on,70,46,0
1,note_on,70,0,160
1,note_on,68,46,0
1,note_on,68,0,160
1,note_on,67,46,0
1,note_on,67,0,240
1,note_on,68,47,0
1,note_on,68,0,240
1,note_on,71,49,0
1,note_on,71,0,240
1,note_on,70,45,0
1,note_on,70,0,240
1,note_on,66,39,0
1,note_on,66,0,240
1,note_on,70,39,720
1,note_on,70,0,120
1,note_on,70,39,120
1,note_on,70,0,120
1,note_on,70,39,120
1,note_on,70,0,240
1,note_on,70,39,720
1,note_on,70,0,120
1,note_on,70,39,120
1,note_on,70,0,120
1,note_on,70,39,120
1,note_on,70,0,240
1,note_on,70,39,720
1,note_on,70,0,120
1,note_on,70,39,120
1,note_on,70,0,120
1,note_on,70,39,120
1,note_on,70,0,240
1,note_on,70,94,240
1,note_on,82,94,0
1,note_on,82,0,120
1,note_on,70,0,0
1,note_on,70,91,120
1,note_on,82,91,0
1,note_on,82,0,120
1,note_on,70,0,0
1,note_on,70,95,120
1,note_on,82,95,0
1,note_on,82,0,240
1,note_on,70,0,0
1,note_on,70,95,240
1,note_on,82,95,0
1,note_on,82,0,120
1,note_on,70,0,0
1,note_on,70,91,120
1,note_on,82,91,0
1,note_on,82,0,120
1,note_on,70,0,0
1,note_on,70,95,120
1,note_on,82,95,0
1,note_on,82,0,240
1,note_on,70,0,0
1,note_on,70,95,240
1,note_on,82,95,0
1,note_on,82,0,120
1,note_on,70,0,0
1,note_on,70,91,120
1,note_on,82,91,0
1,note_on,82,0,120
1,note_on,70,0,0
1,note_on,70,95,120
1,note_on,82,95,0
1,note_on,82,0,240
1,note_on,70,0,0
1,note_on,58,39,720
1,note_on,65,39,0
1,note_on,70,39,0
1,note_on,70,0,120
1,note_on,65,0,0
1,note_on,58,0,0
1,note_on,58,39,120
1,note_on,70,39,0
1,note_on,70,0,120
1,note_on,58,0,0
1,note_on,58,39,120
1,note_on,64,39,0
1,note_on,70,39,0
1,note_on,70,0,240
1,note_on,64,0,0
1,note_on,58,0,0
1,note_on,58,39,720
1,note_on,63,39,0
1,note_on,70,39,0
1,note_on,70,0,120
1,note_on,63,0,0
1,note_on,58,0,0
1,note_on,58,39,120
1,note_on,70,39,0
1,note_on,70,0,120
1,note_on,58,0,0
1,note_on,58,39,120
1,note_on,62,39,0
1,note_on,70,39,0
1,note_on,70,0,240
1,note_on,62,0,0
1,note_on,58,0,0
1,note_on,58,43,240
1,note_on,70,43,0
1,note_on,70,0,120
1,note_on,58,0,0
1,note_on,58,47,120
1,note_on,70,47,0
1,note_on,70,0,120
1,note_on,58,0,0
1,note_on,58,52,120
1,note_on,70,52,0
1,note_on,70,0,480
1,note_on,58,0,0
1,note_on,58,55,0
1,note_on,70,55,0
1,note_on,70,0,120
1,note_on,58,0,0
1,note_on,58,57,120
1,note_on,70,57,0
1,note_on,70,0,120
1,note_on,58,0,0
1,note_on,58,66,120
1,note_on,70,66,0
1,note_on,70,0,480
1,note_on,58,0,0
1,note_on,58,72,0
1,note_on,70,72,0
1,note_on,70,0,120
1,note_on,58,0,0
1,note_on,58,67,120
1,note_on,70,67,0
1,note_on,70,0,120
1,note_on,58,0,0
1,note_on,58,97,0
1,note_on,70,97,0
1,note_on,70,0,240
1,note_on,58,0,0
1,note_on,74,56,240
1,note_on,75,51,240
1,note_on,74,0,20
1,note_on,74,64,220
1,note_on,77,64,0
1,note_on,75,0,20
1,note_on,77,0,340
1,note_on,74,0,0
1,note_on,70,96,120
1,note_on,70,0,240
1,note_on,75,59,240
1,note_on,77,55,240
1,note_on,75,0,20
1,note_on,75,67,220
1,note_on,79,67,0
1,note_on,77,0,20
1,note_on,79,0,340
1,note_on,75,0,0
1,note_on,70,97,120
1,note_on,70,0,240
1,note_on,77,67,240
1,note_on,79,65,240
1,note_on,77,0,20
1,note_on,77,75,220
1,note_on,80,75,0
1,note_on,79,0,20
1,note_on,80,0,340
1,note_on,77,0,0
1,note_on,82,82,120
1,note_on,79,82,0
1,note_on,73,82,0
1,note_on,73,0,960
1,note_on,79,0,0
1,note_on,82,0,0
1,note_on,82,69,0
1,note_on,79,69,0
1,note_on,73,69,0
1,note_on,73,0,240
1,note_on,79,0,0
1,note_on,82,0,0
1,note_on,82,69,0
1,note_on,79,69,0
1,note_on,73,69,0
1,note_on,73,0,240
1,note_on,79,0,0
1,note_on,82,0,0
1,note_on,82,77,0
1,note_on,73,77,0
1,note_on,79,77,0
1,note_on,84,60,480
1,note_on,82,0,20
1,note_on,82,54,220
1,note_on,84,0,20
1,note_on,73,0,220
1,note_on,79,0,0
1,note_on,72,58,0
1,note_on,80,58,0
1,note_on,82,0,20
1,note_on,80,0,220
1,note_on,72,0,0
1,note_on,80,76,240
1,note_on,71,76,0
1,note_on,82,57,480
1,note_on,80,0,20
1,note_on,80,53,220
1,note_on,82,0,20
1,note_on,71,0,220
1,note_on,70,56,0
1,note_on,79,56,0
1,note_on,80,0,20
1,note_on,79,0,220
1,note_on,70,0,0
1,note_on,79,71,240
1,note_on,70,71,0
1,note_on,80,55,480
1,note_on,79,0,20
1,note_on,79,51,220
1,note_on,80,0,20
1,note_on,70,0,220
1,note_on,68,54,0
1,note_on,77,54,0
1,note_on,79,0,20
1,note_on,77,0,220
1,note_on,68,0,0
1,note_on,77,64,240
1,note_on,68,64,0
1,note_on,79,48,480
1,note_on,77,0,20
1,note_on,77,45,220
1,note_on,79,0,20
1,note_on,68,0,220
1,note_on,75,48,0
1,note_on,67,48,0
1,note_on,77,0,20
1,note_on,67,0,220
1,note_on,75,0,0
1,note_on,82,96,240
1,note_on,70,96,0
1,note_on,70,0,480
1,note_on,82,0,0
1,note_on,74,57,0
1,note_on,75,52,240
1,note_on,74,0,20
1,note_on,74,63,220
1,note_on,77,63,0
1,note_on,75,0,20
1,note_on,77,0,340
1,note_on,74,0,0
1,note_on,82,95,120
1,note_on,70,95,0
1,note_on,70,0,480
1,note_on,82,0,0
1,note_on,75,60,0
1,note_on,77,57,240
1,note_on,75,0,20
1,note_on,75,68,220
1,note_on,79,68,0
1,note_on,77,0,20
1,note_on,79,0,340
1,note_on,75,0,0
1,note_on,82,93,120
1,note_on,70,93,0
1,note_on,70,0,480
1,note_on,82,0,0
1,note_on,77,72,0
1,note_on,79,68,240
1,note_on,77,0,20
1,note_on,77,80,220
1,note_on,80,80,0
1,note_on,79,0,20
1,note_on,80,0,340
1,note_on,77,0,0
1,note_on,82,101,120
1,note_on,79,101,0
1,note_on,73,101,0
1,note_on,73,0,720
1,note_on,79,0,0
1,note_on,82,0,0
1,note_on,79,76,0
1,note_on,82,76,0
1,note_on,82,0,240
1,note_on,79,0,0
1,note_on,73,68,0
1,note_on,82,74,240
1,note_on,79,74,0
1,note_on,79,0,240
1,note_on,82,0,0
1,note_on,73,0,0
1,note_on,73,64,0
1,note_on,82,72,240
1,note_on,84,64,240
1,note_on,82,0,20
1,note_on,82,57,220
1,note_on,84,0,20
1,note_on,73,0,220
1,note_on,80,54,0
1,note_on,72,54,0
1,note_on,82,0,20
1,note_on,72,0,220
1,note_on,80,0,0
1,note_on,71,65,240
1,note_on,80,69,240
1,note_on,82,65,240
1,note_on,80,0,20
1,note_on,80,55,220
1,note_on,82,0,20
1,note_on,71,0,220
1,note_on,79,51,0
1,note_on,70,51,0
1,note_on,80,0,20
1,note_on,70,0,220
1,note_on,79,0,0
1,note_on,70,63,240
1,note_on,79,46,240
1,note_on,80,58,240
1,note_on,79,0,20
1,note_on,79,45,220
1,note_on,80,0,20
1,note_on,70,0,220
1,note_on,68,50,0
1,note_on,77,50,0
1,note_on,79,0,20
1,note_on,77,0,460
1,note_on,68,0,0
1,note_on,75,59,0
1,note_on,67,59,0
1,note_on,67,0,240
1,note_on,75,0,0
1,note_on,75,53,240
1,note_on,75,0,120
1,note_on,75,64,120
1,note_on,75,0,120
1,note_on,75,67,120
1,note_on,75,0,120
1,note_on,75,69,120
1,note_on,75,0,120
1,note_on,75,78,120
1,note_on,75,0,120
1,note_on,75,64,120
1,note_on,75,0,120
1,note_on,75,78,120
1,note_on,75,0,120
1,note_on,75,74,120
1,note_on,75,0,120
1,note_on,75,69,120
1,note_on,75,0,120
1,note_on,75,69,120
1,note_on,75,0,120
1,note_on,77,65,120
1,note_on,75,58,240
1,note_on,77,0,20
1,note_on,72,56,220
1,note_on,75,0,20
1,note_on,68,48,220
1,note_on,72,0,20
1,note_on,63,52,220
1,note_on,68,0,20
1,note_on,63,0,220
1,note_on,64,44,0
1,note_on,64,0,240
1,note_on,65,58,0
1,note_on,65,0,120
1,note_on,65,51,120
1,note_on,65,0,120
1,note_on,65,55,120
1,note_on,65,0,120
1,note_on,65,46,120
1,note_on,65,0,120
1,note_on,65,54,120
1,note_on,65,0,120
1,note_on,65,64,120
1,note_on,65,0,120
1,note_on,63,61,120
1,note_on,68,53,240
1,note_on,63,0,20
1,note_on,72,46,220
1,note_on,68,0,20
1,note_on,75,64,220
1,note_on,72,0,20
1,note_on,80,59,220
1,note_on,75,0,20
1,note_on,76,52,220
1,note_on,80,0,20
1,note_on,76,0,220
1,note_on,77,52,0
1,note_on,77,0,120
1,note_on,77,48,120
1,note_on,77,0,120
1,note_on,77,64,120
1,note_on,77,0,120
1,note_on,77,60,120
1,note_on,77,0,120
1,note_on,77,53,120
1,note_on,77,0,120
1,note_on,77,73,120
1,note_on,77,0,120
1,note_on,77,77,120
1,note_on,79,55,160
1,note_on,77,0,20
1,note_on,77,55,140
1,note_on,79,0,20
1,note_on,75,65,140
1,note_on,77,0,20
1,note_on,80,57,220
1,note_on,75,0,20
1,note_on,84,51,220
1,note_on,80,0,20
1,note_on,84,0,220
1,note_on,89,66,240
1,note_on,87,50,480
1,note_on,89,0,20
1,note_on,85,45,220
1,note_on,87,0,20
1,note_on,79,52,220
1,note_on,85,0,20
1,note_on,79,0,220
1,note_on,82,58,240
1,note_on,80,43,480
1,note_on,82,0,20
1,note_on,75,44,220
1,note_on,80,0,20
1,note_on,72,38,220
1,note_on,75,0,20
1,note_on,72,0,220
1,note_on,75,48,240
1,note_on,75,0,120
1,note_on,75,44,120
1,note_on,75,0,120
1,note_on,75,65,120
1,note_on,75,0,120
1,note_on,75,69,120
1,note_on,75,0,120
1,note_on,75,63,120
1,note_on,75,0,120
1,note_on,75,71,120
1,note_on,75,0,120
1,note_on,77,61,120
1,note_on,75,56,240
1,note_on,77,0,20
1,note_on,72,50,220
1,note_on,75,0,20
1,note_on,68,50,220
1,note_on,72,0,20
1,note_on,63,48,220
1,note_on,68,0,20
1,note_on,63,0,220
1,note_on,64,53,0
1,note_on,64,0,240
1,note_on,65,57,0
1,note_on,65,0,120
1,note_on,65,51,120
1,note_on,65,0,120
1,note_on,65,55,120
1,note_on,65,0,120
1,note_on,65,55,120
1,note_on,65,0,120
1,note_on,65,61,120
1,note_on,65,0,120
1,note_on,65,65,120
1,note_on,65,0,120
1,note_on,63,58,120
1,note_on,68,52,240
1,note_on,63,0,20
1,note_on,72,49,220
1,note_on,68,0,20
1,note_on,75,45,220
1,note_on,72,0,20
1,note_on,80,52,220
1,note_on,75,0,20
1,note_on,76,48,220
1,note_on,80,0,20
1,note_on,76,0,220
1,note_on,77,58,0
1,note_on,77,0,120
1,note_on,77,49,120
1,note_on,77,0,120
1,note_on,77,61,120
1,note_on,77,0,120
1,note_on,77,57,120
1,note_on,77,0,120
1,note_on,77,65,120
1,note_on,77,0,120
1,note_on,77,65,120
1,note_on,77,0,120
1,note_on,77,75,120
1,note_on,79,55,160
1,note_on,77,0,20
1,note_on,77,55,140
1,note_on,79,0,20
1,note_on,75,66,140
1,note_on,77,0,20
1,note_on,80,64,220
1,note_on,75,0,20
1,note_on,84,60,220
1,note_on,80,0,20
1,note_on,84,0,220
1,note_on,89,67,240
1,note_on,87,52,480
1,note_on,89,0,20
1,note_on,85,50,220
1,note_on,87,0,20
1,note_on,79,52,220
1,note_on,85,0,20
1,note_on,79,0,220
1,note_on,80,65,240
1,note_on,80,0,960
1,note_on,72,55,0
1,note_on,72,0,80
1,note_on,74,49,0
1,note_on,74,0,80
1,note_on,72,65,0
1,note_on,72,0,80
1,note_on,74,53,0
1,note_on,74,0,80
1,note_on,72,67,0
1,note_on,72,0,80
1,note_on,71,56,0
1,note_on,71,0,80
1,note_on,70,87,0
1,note_on,70,0,250
1,note_on,74,62,230
1,note_on,75,62,240
1,note_on,74,0,20
1,note_on,77,67,220
1,note_on,74,67,0
1,note_on,75,0,20
1,note_on,74,0,340
1,note_on,77,0,0
1,note_on,70,85,120
1,note_on,70,0,240
1,note_on,75,73,240
1,note_on,77,69,240
1,note_on,75,0,20
1,note_on,75,76,220
1,note_on,79,76,0
1,note_on,77,0,20
1,note_on,79,0,340
1,note_on,75,0,0
1,note_on,70,87,120
1,note_on,70,0,240
1,note_on,77,73,240
1,note_on,79,68,240
1,note_on,77,0,20
1,note_on,77,83,220
1,note_on,80,83,0
1,note_on,79,0,20
1,note_on,80,0,340
1,note_on,77,0,0
1,note_on,73,77,120
1,note_on,79,77,0
1,note_on,82,77,0
1,note_on,82,0,960
1,note_on,79,0,0
1,note_on,73,0,0
1,note_on,79,75,0
1,note_on,73,75,0
1,note_on,82,75,0
1,note_on,82,0,240
1,note_on,73,0,0
1,note_on,79,0,0
1,note_on,79,69,0
1,note_on,73,69,0
1,note_on,82,69,0
1,note_on,82,0,240
1,note_on,73,0,0
1,note_on,79,0,0
1,note_on,73,70,0
1,note_on,82,70,0
1,note_on,79,70,0
1,note_on,84,59,480
1,note_on,82,0,20
1,note_on,82,56,220
1,note_on,84,0,20
1,note_on,73,0,220
1,note_on,79,0,0
1,note_on,72,53,0
1,note_on,80,53,0
1,note_on,82,0,20
1,note_on,80,0,220
1,note_on,72,0,0
1,note_on,71,69,240
1,note_on,80,69,0
1,note_on,82,47,480
1,note_on,80,0,20
1,note_on,80,45,220
1,note_on,82,0,20
1,note_on,71,0,220
1,note_on,79,52,0
1,note_on,70,52,0
1,note_on,80,0,20
1,note_on,70,0,220
1,note_on,79,0,0
1,note_on,79,66,240
1,note_on,70,66,0
1,note_on,80,53,480
1,note_on,79,0,20
1,note_on,79,47,220
1,note_on,80,0,20
1,note_on,70,0,220
1,note_on,77,67,0
1,note_on,68,67,0
1,note_on,79,0,20
1,note_on,68,0,220
1,note_on,77,0,0
1,note_on,77,64,240
1,note_on,68,64,0
1,note_on,79,52,480
1,note_on,77,0,20
1,note_on,77,48,220
1,note_on,79,0,20
1,note_on,68,0,220
1,note_on,75,53,0
1,note_on,67,53,0
1,note_on,77,0,20
1,note_on,67,0,220
1,note_on,75,0,0
1,note_on,70,97,240
1,note_on,82,97,0
1,note_on,82,0,240
1,note_on,70,0,0
1,note_on,74,57,240
1,note_on,75,53,240
1,note_on,74,0,20
1,note_on,74,63,220
1,note_on,77,63,0
1,note_on,75,0,20
1,note_on,77,0,340
1,note_on,74,0,0
1,note_on,82,97,120
1,note_on,70,97,0
1,note_on,70,0,240
1,note_on,82,0,0
1,note_on,75,60,240
1,note_on,77,57,240
1,note_on,75,0,20
1,note_on,79,68,220
1,note_on,75,68,0
1,note_on,77,0,20
1,note_on,75,0,340
1,note_on,79,0,0
1,note_on,70,96,120
1,note_on,82,96,0
1,note_on,82,0,240
1,note_on,70,0,0
1,note_on,77,72,240
1,note_on,79,70,240
1,note_on,77,0,20
1,note_on,80,80,220
1,note_on,77,80,0
1,note_on,79,0,20
1,note_on,77,0,340
1,note_on,80,0,0
1,note_on,73,99,120
1,note_on,79,99,0
1,note_on,82,99,0
1,note_on,82,0,480
1,note_on,79,0,0
1,note_on,73,0,0
1,note_on,73,49,3360
1,note_on,79,49,0
1,note_on,82,49,0
1,note_on,82,0,240
1,note_on,79,0,0
1,note_on,73,0,0
1,note_on,82,49,0
1,note_on,73,49,0
1,note_on,79,49,0
1,note_on,79,0,240
1,note_on,73,0,0
1,note_on,82,0,0
1,note_on,79,55,0
1,note_on,73,55,0
1,note_on,82,55,0
1,note_on,84,53,480
1,note_on,82,0,20
1,note_on,82,52,220
1,note_on,84,0,20
1,note_on,79,0,220
1,note_on,73,0,0
1,note_on,80,48,0
1,note_on,72,48,0
1,note_on,82,0,20
1,note_on,72,0,220
1,note_on,80,0,0
1,note_on,71,54,240
1,note_on,80,54,0
1,note_on,82,51,480
1,note_on,80,0,20
1,note_on,80,48,220
1,note_on,82,0,20
1,note_on,71,0,220
1,note_on,79,45,0
1,note_on,70,45,0
1,note_on,80,0,20
1,note_on,70,0,220
1,note_on,79,0,0
1,note_on,70,44,240
1,note_on,79,44,0
1,note_on,80,41,480
1,note_on,79,0,20
1,note_on,79,38,220
1,note_on,80,0,20
1,note_on,70,0,220
1,note_on,68,35,0
1,note_on,77,35,0
1,note_on,79,0,20
1,note_on,77,0,220
1,note_on,68,0,0
1,note_on,63,40,5760
1,note_on,63,0,120
1,note_on,63,38,120
1,note_on,63,0,120
1,note_on,63,40,120
1,note_on,63,0,120
1,note_on,63,37,120
1,note_on,63,0,120
1,note_on,63,49,120
1,note_on,63,0,480
1,note_on,55,39,0
1,note_on,55,0,240
1,note_on,58,39,0
1,note_on,58,0,240
1,note_on,63,46,0
1,note_on,63,0,240
1,note_on,67,45,0
1,note_on,67,0,240
1,note_on,72,55,0
1,note_on,72,0,420
1,note_on,72,44,0
1,note_on,72,0,60
1,note_on,71,51,0
1,note_on,71,0,240
1,note_on,71,39,180
1,note_on,71,0,60
1,note_on,70,48,0
1,note_on,70,0,240
1,note_on,70,39,180
1,note_on,70,0,60
1,note_on,69,46,0
1,note_on,69,0,240
1,note_on,69,35,180
1,note_on,69,0,60
1,note_on,68,44,0
1,note_on,68,0,240
1,note_on,68,33,180
1,note_on,68,0,60
1,note_on,67,41,0
1,note_on,67,0,240
1,note_on,67,32,180
1,note_on,67,0,60
1,note_on,65,39,0
1,note_on,65,0,240
1,note_on,63,44,240
1,note_on,63,0,120
1,note_on,63,41,120
1,note_on,63,0,120
1,note_on,63,44,120
1,note_on,63,0,120
1,note_on,63,41,120
1,note_on,63,0,120
1,note_on,63,53,120
1,note_on,63,0,480
1,note_on,60,42,0
1,note_on,60,0,240
1,note_on,63,42,0
1,note_on,63,0,240
1,note_on,68,50,0
1,note_on,68,0,240
1,note_on,72,49,0
1,note_on,72,0,240
1,note_on,77,59,0
1,note_on,77,0,420
1,note_on,79,48,0
1,note_on,79,0,60
1,note_on,77,56,0
1,note_on,77,0,240
1,note_on,77,42,180
1,note_on,77,0,60
1,note_on,76,52,0
1,note_on,76,0,240
1,note_on,76,42,180
1,note_on,76,0,60
1,note_on,75,50,0
1,note_on,75,0,240
1,note_on,75,38,180
1,note_on,75,0,60
1,note_on,74,48,0
1,note_on,74,0,240
1,note_on,74,36,180
1,note_on,74,0,60
1,note_on,73,45,0
1,note_on,73,0,240
1,note_on,73,35,180
1,note_on,73,0,60
1,note_on,72,42,0
1,note_on,72,0,240
1,note_on,71,48,240
1,note_on,71,0,60
1,note_on,71,45,60
1,note_on,71,0,60
1,note_on,71,48,60
1,note_on,71,0,60
1,note_on,71,37,60
1,note_on,71,0,60
1,note_on,71,48,60
1,note_on,71,0,60
1,note_on,71,42,60
1,note_on,71,0,60
1,note_on,68,46,60
1,note_on,68,0,120
1,note_on,71,45,0
1,note_on,71,0,120
1,note_on,74,55,0
1,note_on,74,0,120
1,note_on,77,53,0
1,note_on,77,0,120
1,note_on,83,70,0
1,note_on,83,0,158
1,note_on,83,52,52
1,note_on,83,0,30
1,note_on,82,62,0
1,note_on,82,0,120
1,note_on,82,53,90
1,note_on,82,0,30
1,note_on,81,65,0
1,note_on,81,0,120
1,note_on,81,54,90
1,note_on,81,0,30
1,note_on,80,68,0
1,note_on,80,0,120
1,note_on,80,59,90
1,note_on,80,0,30
1,note_on,79,70,0
1,note_on,79,0,120
1,note_on,79,60,90
1,note_on,79,0,30
1,note_on,78,73,0
1,note_on,78,0,120
1,note_on,78,65,90
1,note_on,78,0,30
1,note_on,77,76,0
1,note_on,77,0,60
1,note_on,77,70,150
1,note_on,77,0,30
1,note_on,91,88,0
1,note_on,91,0,120
1,note_on,91,71,90
1,note_on,91,0,30
1,note_on,89,80,0
1,note_on,89,0,120
1,note_on,89,70,90
1,note_on,89,0,30
1,note_on,88,80,0
1,note_on,88,0,120
1,note_on,88,69,90
1,note_on,88,0,30
1,note_on,87,80,0
1,note_on,87,0,120
1,note_on,87,72,90
1,note_on,87,0,30
1,note_on,86,80,0
1,note_on,86,0,120
1,note_on,86,70,90
1,note_on,86,0,30
1,note_on,85,80,0
1,note_on,85,0,120
1,note_on,85,70,90
1,note_on,85,0,30
1,note_on,84,80,0
1,note_on,84,0,120
1,note_on,84,70,90
1,note_on,84,0,30
1,note_on,83,83,0
1,note_on,83,0,120
1,note_on,83,71,90
1,note_on,83,0,30
1,note_on,82,86,0
1,note_on,82,0,120
1,note_on,82,73,90
1,note_on,82,0,30
1,note_on,81,89,0
1,note_on,81,0,120
1,note_on,81,77,90
1,note_on,81,0,30
1,note_on,80,92,0
1,note_on,80,0,120
1,note_on,80,79,90
1,note_on,80,0,30
1,note_on,77,95,0
1,note_on,77,0,120
1,note_on,87,100,120
1,note_on,75,100,0
1,note_on,75,0,120
1,note_on,87,0,0
1,note_on,79,75,120
1,note_on,79,0,120
1,note_on,80,84,0
1,note_on,80,0,120
1,note_on,79,87,0
1,note_on,82,87,0
1,note_on,82,0,180
1,note_on,79,0,0
1,note_on,87,100,60
1,note_on,75,100,0
1,note_on,75,0,120
1,note_on,87,0,0
1,note_on,78,78,120
1,note_on,78,0,120
1,note_on,80,83,0
1,note_on,80,0,120
1,note_on,78,86,0
1,note_on,81,86,0
1,note_on,81,0,180
1,note_on,78,0,0
1,note_on,87,100,60
1,note_on,75,100,0
1,note_on,75,0,120
1,note_on,87,0,0
1,note_on,77,86,120
1,note_on,77,0,120
1,note_on,79,82,0
1,note_on,79,0,120
1,note_on,77,89,0
1,note_on,80,89,0
1,note_on,80,0,180
1,note_on,77,0,0
1,note_on,70,100,60
1,note_on,82,100,0
1,note_on,79,100,0
1,note_on,79,0,480
1,note_on,82,0,0
1,note_on,70,0,0
1,note_on,82,95,0
1,note_on,79,95,0
1,note_on,70,95,0
1,note_on,70,0,120
1,note_on,79,0,0
1,note_on,82,0,0
1,note_on,82,92,0
1,note_on,79,92,0
1,note_on,70,92,0
1,note_on,70,0,120
1,note_on,79,0,0
1,note_on,82,0,0
1,note_on,79,100,0
1,note_on,70,100,0
1,note_on,82,100,0
1,note_on,79,0,240
1,note_on,80,96,0
1,note_on,80,0,120
1,note_on,79,91,0
1,note_on,79,0,120
1,note_on,77,96,0
1,note_on,77,0,120
1,note_on,82,0,120
1,note_on,70,0,0
1,note_on,77,94,0
1,note_on,70,94,0
1,note_on,82,94,0
1,note_on,77,0,240
1,note_on,79,84,0
1,note_on,79,0,120
1,note_on,77,78,0
1,note_on,77,0,120
1,note_on,75,75,0
1,note_on,75,0,120
1,note_on,82,0,120
1,note_on,70,0,0
1,note_on,79,77,0
1,note_on,70,77,0
1,note_on,70,0,240
1,note_on,72,69,0
1,note_on,72,0,120
1,note_on,70,58,0
1,note_on,70,0,120
1,note_on,79,0,0
1,note_on,77,62,0
1,note_on,68,62,0
1,note_on,68,0,120
1,note_on,77,0,0
1,note_on,77,71,120
1,note_on,68,71,0
1,note_on,68,0,240
1,note_on,70,62,0
1,note_on,70,0,120
1,note_on,68,52,0
1,note_on,68,0,120
1,note_on,77,0,0
1,note_on,75,56,0
1,note_on,67,56,0
1,note_on,67,0,120
1,note_on,75,0,0
1,note_on,63,68,120
1,note_on,75,68,0
1,note_on,68,55,240
1,note_on,68,0,120
1,note_on,70,57,0
1,note_on,70,0,120
1,note_on,68,59,0
1,note_on,72,59,0
1,note_on,72,0,120
1,note_on,68,0,0
1,note_on,75,0,120
1,note_on,63,0,0
1,note_on,63,65,0
1,note_on,75,65,0
1,note_on,68,51,240
1,note_on,68,0,120
1,note_on,70,54,0
1,note_on,70,0,120
1,note_on,68,56,0
1,note_on,71,56,0
1,note_on,71,0,120
1,note_on,68,0,0
1,note_on,75,0,120
1,note_on,63,0,0
1,note_on,63,62,0
1,note_on,75,62,0
1,note_on,67,46,240
1,note_on,67,0,120
1,note_on,68,49,0
1,note_on,68,0,120
1,note_on,67,51,0
1,note_on,70,51,0
1,note_on,70,0,120
1,note_on,67,0,0
1,note_on,75,0,120
1,note_on,63,0,0
1,note_on,58,59,0
1,note_on,67,59,0
1,note_on,70,59,0
1,note_on,70,0,480
1,note_on,67,0,0
1,note_on,58,0,0
1,note_on,58,49,0
1,note_on,67,49,0
1,note_on,70,49,0
1,note_on,70,0,120
1,note_on,67,0,0
1,note_on,58,0,0
1,note_on,58,45,0
1,note_on,67,45,0
1,note_on,70,45,0
1,note_on,70,0,120
1,note_on,67,0,0
1,note_on,58,0,0
1,note_on,67,55,0
1,note_on,58,55,0
1,note_on,70,55,0
1,note_on,67,0,240
1,note_on,68,48,0
1,note_on,68,0,120
1,note_on,67,43,0
1,note_on,67,0,120
1,note_on,65,48,0
1,note_on,65,0,120
1,note_on,70,0,120
1,note_on,58,0,0
1,note_on,65,55,0
1,note_on,58,52,0
1,note_on,70,52,0
1,note_on,65,0,240
1,note_on,67,46,0
1,note_on,67,0,120
1,note_on,65,44,0
1,note_on,65,0,120
1,note_on,63,47,0
1,note_on,63,0,120
1,note_on,70,0,120
1,note_on,58,0,0
1,note_on,62,46,0
1,note_on,71,50,0
1,note_on,71,0,60
1,note_on,71,46,60
1,note_on,71,0,60
1,note_on,62,0,60
1,note_on,71,50,0
1,note_on,71,0,60
1,note_on,71,45,60
1,note_on,71,0,60
1,note_on,71,39,60
1,note_on,71,0,60
1,note_on,71,46,60
1,note_on,71,0,60
1,note_on,71,48,60
1,note_on,71,0,120
1,note_on,70,43,0
1,note_on,70,0,120
1,note_on,67,47,0
1,note_on,67,0,120
1,note_on,63,41,0
1,note_on,63,0,120
1,note_on,58,46,0
1,note_on,58,0,120
1,note_on,67,55,120
1,note_on,58,55,0
1,note_on,70,55,0
1,note_on,67,0,240
1,note_on,68,42,0
1,note_on,68,0,120
1,note_on,67,45,0
1,note_on,67,0,120
1,note_on,65,48,0
1,note_on,65,0,120
1,note_on,70,0,120
1,note_on,58,0,0
1,note_on,65,55,0
1,note_on,58,52,0
1,note_on,70,52,0
1,note_on,65,0,240
1,note_on,67,46,0
1,note_on,67,0,120
1,note_on,65,44,0
1,note_on,65,0,120
1,note_on,63,40,0
1,note_on,63,0,120
1,note_on,70,0,120
1,note_on,58,0,0
1,note_on,62,50,0
1,note_on,72,50,0
1,note_on,72,0,60
1,note_on,62,0,60
1,note_on,72,48,0
1,note_on,72,0,60
1,note_on,72,50,60
1,note_on,72,0,60
1,note_on,72,47,60
1,note_on,72,0,60
1,note_on,72,44,60
1,note_on,72,0,60
1,note_on,72,47,60
1,note_on,72,0,60
1,note_on,72,48,60
1,note_on,72,0,120
1,note_on,70,45,0
1,note_on,70,0,120
1,note_on,67,47,0
1,note_on,67,0,120
1,note_on,63,42,0
1,note_on,63,0,120
1,note_on,58,46,0
1,note_on,58,0,120
1,note_on,62,52,120
1,note_on,71,52,0
1,note_on,71,0,60
1,note_on,62,0,60
1,note_on,71,50,0
1,note_on,71,0,60
1,note_on,71,53,60
1,note_on,71,0,60
1,note_on,71,51,60
1,note_on,71,0,60
1,note_on,71,48,60
1,note_on,71,0,60
1,note_on,71,53,60
1,note_on,71,0,60
1,note_on,71,56,60
1,note_on,71,0,120
1,note_on,70,53,0
1,note_on,70,0,120
1,note_on,68,57,0
1,note_on,68,0,120
1,note_on,65,56,0
1,note_on,65,0,120
1,note_on,62,55,0
1,note_on,62,0,120
1,note_on,79,73,120
1,note_on,79,0,120
1,note_on,77,59,0
1,note_on,77,0,120
1,note_on,74,64,0
1,note_on,74,0,120
1,note_on,71,59,0
1,note_on,71,0,120
1,note_on,68,58,0
1,note_on,68,0,120
1,note_on,83,80,120
1,note_on,83,0,120
1,note_on,80,67,0
1,note_on,80,0,120
1,note_on,77,71,0
1,note_on,77,0,120
1,note_on,74,67,0
1,note_on,74,0,120
1,note_on,71,68,0
1,note_on,71,0,120
1,note_on,95,90,120
1,note_on,95,0,120
1,note_on,91,74,0
1,note_on,91,0,120
1,note_on,95,77,0
1,note_on,95,0,120
1,note_on,92,76,0
1,note_on,92,0,120
1,note_on,89,74,0
1,note_on,89,0,120
1,note_on,86,72,0
1,note_on,86,0,120
1,note_on,83,80,0
1,note_on,83,0,120
1,note_on,79,73,0
1,note_on,79,0,120
1,note_on,83,77,0
1,note_on,83,0,120
1,note_on,80,76,0
1,note_on,80,0,120
1,note_on,77,76,0
1,note_on,77,0,120
1,note_on,74,75,0
1,note_on,74,0,120
1,note_on,71,80,0
1,note_on,71,0,120
1,note_on,67,73,0
1,note_on,67,0,120
1,note_on,70,75,0
1,note_on,70,0,120
1,note_on,68,74,0
1,note_on,68,0,120
1,note_on,65,73,0
1,note_on,65,0,120
1,note_on,62,72,0
1,note_on,62,0,120
1,note_on,59,80,0
1,note_on,59,0,120
1,note_on,55,73,0
1,note_on,55,0,120
1,note_on,59,76,0
1,note_on,59,0,120
1,note_on,56,75,0
1,note_on,56,0,120
1,note_on,53,75,0
1,note_on,53,0,120
1,note_on,50,74,0
1,note_on,50,0,120
1,note_on,51,89,0
1,note_on,51,0,120
1,note_on,55,50,120
1,note_on,55,0,120
1,note_on,56,50,0
1,note_on,56,0,120
1,note_on,58,50,0
1,note_on,58,0,120
1,note_on,60,50,0
1,note_on,60,0,120
1,note_on,62,50,0
1,note_on,62,0,120
1,note_on,63,50,0
1,note_on,63,0,120
1,note_on,65,50,0
1,note_on,65,0,120
1,note_on,67,50,0
1,note_on,67,0,120
1,note_on,68,50,0
1,note_on,68,0,120
1,note_on,69,50,0
1,note_on,69,0,120
1,note_on,72,53,0
1,note_on,72,0,120
1,note_on,70,50,0
1,note_on,70,0,120
1,note_on,67,45,0
1,note_on,67,0,120
1,note_on,68,45,0
1,note_on,68,0,120
1,note_on,70,46,0
1,note_on,70,0,120
1,note_on,72,47,0
1,note_on,72,0,120
1,note_on,74,50,0
1,note_on,74,0,120
1,note_on,75,50,0
1,note_on,75,0,120
1,note_on,77,50,0
1,note_on,77,0,120
1,note_on,79,49,0
1,note_on,79,0,120
1,note_on,80,51,0
1,note_on,80,0,120
1,note_on,81,53,0
1,note_on,81,0,120
1,note_on,84,59,0
1,note_on,84,0,120
1,note_on,82,55,0
1,note_on,82,0,120
1,note_on,79,51,0
1,note_on,79,0,120
1,note_on,80,50,0
1,note_on,80,0,120
1,note_on,82,50,0
1,note_on,82,0,120
1,note_on,84,51,0
1,note_on,84,0,120
1,note_on,86,52,0
1,note_on,86,0,120
1,note_on,87,53,0
1,note_on,87,0,120
1,note_on,89,54,0
1,note_on,89,0,120
1,note_on,91,55,0
1,note_on,91,0,120
1,note_on,92,55,0
1,note_on,92,0,120
1,note_on,93,56,0
1,note_on,93,0,120
1,note_on,96,65,0
1,note_on,96,0,120
1,note_on,94,58,0
1,note_on,94,0,120
1,note_on,91,55,0
1,note_on,91,0,120
1,note_on,92,51,0
1,note_on,92,0,120
1,note_on,93,53,0
1,note_on,93,0,120
1,note_on,94,55,0
1,note_on,94,0,120
1,note_on,96,64,0
1,note_on,96,0,120
1,note_on,94,59,0
1,note_on,94,0,120
1,note_on,91,51,0
1,note_on,91,0,120
1,note_on,92,52,0
1,note_on,92,0,120
1,note_on,93,54,0
1,note_on,93,0,120
1,note_on,94,55,0
1,note_on,94,0,120
1,note_on,99,57,0
1,note_on,99,0,120
1,note_on,91,50,120
1,note_on,91,0,120
1,note_on,92,51,0
1,note_on,92,0,120
1,note_on,93,53,0
1,note_on,93,0,120
1,note_on,94,55,0
1,note_on,94,0,120
1,note_on,99,57,0
1,note_on,99,0,120
1,note_on,91,46,120
1,note_on,91,0,120
1,note_on,92,48,0
1,note_on,92,0,120
1,note_on,93,50,0
1,note_on,93,0,120
1,note_on,94,52,0
1,note_on,94,0,120
1,note_on,99,54,0
1,note_on,99,0,120
1,note_on,91,49,120
1,note_on,91,0,120
1,note_on,92,50,0
1,note_on,92,0,120
1,note_on,93,52,0
1,note_on,93,0,120
1,note_on,94,53,0
1,note_on,94,0,120
1,note_on,99,55,0
1,note_on,99,0,120
1,note_on,91,50,120
1,note_on,91,0,120
1,note_on,92,52,0
1,note_on,92,0,120
1,note_on,93,55,0
1,note_on,93,0,120
1,note_on,94,57,0
1,note_on,94,0,120
1,note_on,99,59,0
1,note_on,99,0,120
1,note_on,91,50,120
1,note_on,91,0,120
1,note_on,92,51,0
1,note_on,92,0,120
1,note_on,93,53,0
1,note_on,93,0,120
1,note_on,94,55,0
1,note_on,94,0,120
1,note_on,99,57,0
1,note_on,99,0,120
1,note_on,91,44,120
1,note_on,91,0,120
1,note_on,92,46,0
1,note_on,92,0,120
1,note_on,93,48,0
1,note_on,93,0,120
1,note_on,94,50,0
1,note_on,94,0,120
1,note_on,99,53,0
1,note_on,99,0,120
1,note_on,91,33,120
1,note_on,91,0,120
1,note_on,92,35,0
1,note_on,92,0,120
1,note_on,93,37,0
1,note_on,93,0,120
1,note_on,94,39,0
1,note_on,94,0,120
1,note_on,99,42,0
1,note_on,99,0,120
1,note_on,91,30,120
1,note_on,91,0,120
1,note_on,92,31,0
1,note_on,92,0,120
1,note_on,93,32,0
1,note_on,93,0,120
1,note_on,94,33,0
1,note_on,94,0,120
1,note_on,99,34,0
1,note_on,91,34,0
1,note_on,91,0,120
1,note_on,99,0,0
1,note_on,91,92,1320
1,note_on,87,92,0
1,note_on,82,78,0
1,note_on,79,78,0
1,note_on,79,0,120
1,note_on,91,0,0
1,note_on,87,0,0
1,note_on,82,0,0
1,note_on,79,92,600
1,note_on,75,92,0
1,note_on,70,78,0
1,note_on,67,78,0
1,note_on,67,0,120
1,note_on,79,0,0
1,note_on,75,0,0
1,note_on,70,0,0
1,note_on,79,92,120
1,note_on,75,92,0
1,note_on,70,78,0
1,note_on,67,78,0
1,note_on,67,0,120
1,note_on,79,0,0
1,note_on,75,0,0
1,note_on,70,0,0
1,note_on,79,92,120
1,note_on,75,92,0
1,note_on,70,78,0
1,note_on,67,78,0
1,note_on,67,0,120
1,note_on,79,0,0
1,note_on,75,0,0
1,note_on,70,0,0
1,note_on,51,113,120
1,note_on,51,0,720
2,note_on,46,40,5760
2,note_on,46,0,187
2,note_on,68,47,240
2,note_on,65,47,0
2,note_on,58,47,0
2,note_on,58,0,360
2,note_on,65,0,0
2,note_on,68,0,0
2,note_on,68,51,120
2,note_on,65,51,0
2,note_on,58,51,0
2,note_on,58,0,355
2,note_on,65,0,0
2,note_on,68,0,0
2,note_on,51,40,120
2,note_on,51,0,99
2,note_on,67,46,240
2,note_on,63,46,0
2,note_on,58,46,0
2,note_on,58,0,360
2,note_on,63,0,0
2,note_on,67,0,0
2,note_on,67,50,120
2,note_on,63,50,0
2,note_on,58,50,0
2,note_on,58,0,350
2,note_on,63,0,0
2,note_on,67,0,0
2,note_on,50,44,120
2,note_on,50,0,162
2,note_on,68,54,240
2,note_on,65,54,0
2,note_on,58,54,0
2,note_on,58,0,360
2,note_on,65,0,0
2,note_on,68,0,0
2,note_on,68,59,120
2,note_on,65,59,0
2,note_on,58,59,0
2,note_on,58,0,344
2,note_on,65,0,0
2,note_on,68,0,0
2,note_on,51,69,120
2,note_on,51,0,148
2,note_on,67,62,240
2,note_on,61,62,0
2,note_on,58,62,0
2,note_on,58,0,240
2,note_on,61,0,0
2,note_on,67,0,0
2,note_on,52,70,240
2,note_on,52,0,477
2,note_on,53,36,0
2,note_on,53,0,240
2,note_on,65,33,240
2,note_on,56,33,0
2,note_on,56,0,240
2,note_on,65,0,0
2,note_on,44,37,240
2,note_on,44,0,240
2,note_on,46,58,240
2,note_on,46,0,155
2,note_on,63,31,240
2,note_on,55,31,0
2,note_on,55,0,360
2,note_on,63,0,0
2,note_on,63,44,120
2,note_on,55,44,0
2,note_on,55,0,226
2,note_on,63,0,0
2,note_on,46,37,240
2,note_on,46,0,212
2,note_on,62,38,240
2,note_on,53,38,0
2,note_on,53,0,360
2,note_on,62,0,0
2,note_on,62,45,120
2,note_on,58,45,0
2,note_on,58,0,224
2,note_on,62,0,0
2,note_on,51,28,240
2,note_on,63,35,480
2,note_on,58,35,0
2,note_on,58,0,360
2,note_on,63,0,0
2,note_on,63,57,120
2,note_on,58,57,0
2,note_on,58,0,240
2,note_on,63,0,0
2,note_on,51,0,240
2,note_on,46,61,0
2,note_on,46,0,148
2,note_on,68,32,240
2,note_on,65,32,0
2,note_on,58,32,0
2,note_on,58,0,360
2,note_on,65,0,0
2,note_on,68,0,0
2,note_on,68,32,120
2,note_on,65,32,0
2,note_on,58,32,0
2,note_on,58,0,345
2,note_on,65,0,0
2,note_on,68,0,0
2,note_on,51,43,120
2,note_on,51,0,134
2,note_on,67,37,240
2,note_on,63,37,0
2,note_on,58,37,0
2,note_on,58,0,360
2,note_on,63,0,0
2,note_on,67,0,0
2,note_on,67,48,120
2,note_on,63,48,0
2,note_on,58,48,0
2,note_on,58,0,346
2,note_on,63,0,0
2,note_on,67,0,0
2,note_on,50,60,120
2,note_on,50,0,141
2,note_on,68,62,240
2,note_on,65,62,0
2,note_on,58,62,0
2,note_on,58,0,360
2,note_on,65,0,0
2,note_on,68,0,0
2,note_on,68,66,120
2,note_on,65,66,0
2,note_on,58,66,0
2,note_on,58,0,350
2,note_on,65,0,0
2,note_on,68,0,0
2,note_on,51,61,0
2,note_on,51,0,240
2,note_on,67,42,240
2,note_on,61,42,0
2,note_on,58,42,0
2,note_on,58,0,240
2,note_on,61,0,0
2,note_on,67,0,0
2,note_on,52,32,240
2,note_on,52,0,474
2,note_on,53,43,0
2,note_on,53,0,240
2,note_on,65,49,240
2,note_on,56,49,0
2,note_on,56,0,240
2,note_on,65,0,0
2,note_on,44,37,240
2,note_on,44,0,240
2,note_on,46,43,240
2,note_on,46,0,127
2,note_on,63,31,240
2,note_on,55,31,0
2,note_on,55,0,480
2,note_on,63,0,0
2,note_on,63,41,0
2,note_on,55,41,0
2,note_on,55,0,225
2,note_on,63,0,0
2,note_on,46,33,240
2,note_on,46,0,169
2,note_on,62,40,240
2,note_on,53,40,0
2,note_on,53,0,480
2,note_on,62,0,0
2,note_on,62,27,0
2,note_on,58,27,0
2,note_on,62,0,464
2,note_on,51,44,0
2,note_on,63,44,0
2,note_on,63,0,480
2,note_on,51,0,0
2,note_on,58,0,0
2,note_on,46,26,960
2,note_on,46,0,180
2,note_on,68,38,240
2,note_on,65,38,0
2,note_on,58,38,0
2,note_on,58,0,360
2,note_on,65,0,0
2,note_on,68,0,0
2,note_on,68,34,120
2,note_on,65,34,0
2,note_on,58,34,0
2,note_on,58,0,346
2,note_on,65,0,0
2,note_on,68,0,0
2,note_on,51,34,120
2,note_on,51,0,99
2,note_on,67,46,240
2,note_on,63,46,0
2,note_on,58,46,0
2,note_on,58,0,360
2,note_on,63,0,0
2,note_on,67,0,0
2,note_on,67,57,120
2,note_on,63,57,0
2,note_on,58,57,0
2,note_on,58,0,353
2,note_on,63,0,0
2,note_on,67,0,0
2,note_on,50,71,120
2,note_on,50,0,141
2,note_on,68,52,240
2,note_on,65,52,0
2,note_on,58,52,0
2,note_on,58,0,360
2,note_on,65,0,0
2,note_on,68,0,0
2,note_on,68,56,120
2,note_on,65,56,0
2,note_on,58,56,0
2,note_on,58,0,346
2,note_on,65,0,0
2,note_on,68,0,0
2,note_on,51,62,120
2,note_on,51,0,125
2,note_on,67,56,240
2,note_on,61,56,0
2,note_on,58,56,0
2,note_on,58,0,240
2,note_on,61,0,0
2,note_on,67,0,0
2,note_on,52,37,240
2,note_on,52,0,474
2,note_on,53,40,0
2,note_on,53,0,240
2,note_on,65,34,240
2,note_on,56,34,0
2,note_on,56,0,240
2,note_on,65,0,0
2,note_on,44,38,240
2,note_on,44,0,240
2,note_on,46,31,240
2,note_on,46,0,198
2,note_on,63,33,240
2,note_on,55,33,0
2,note_on,55,0,480
2,note_on,63,0,0
2,note_on,63,43,0
2,note_on,55,43,0
2,note_on,55,0,228
2,note_on,63,0,0
2,note_on,46,50,240
2,note_on,46,0,226
2,note_on,62,37,240
2,note_on,53,37,0
2,note_on,53,0,480
2,note_on,62,0,0
2,note_on,62,27,0
2,note_on,58,27,0
2,note_on,58,0,225
2,note_on,62,0,0
2,note_on,51,33,240
2,note_on,63,36,480
2,note_on,58,36,0
2,note_on,58,0,480
2,note_on,63,0,0
2,note_on,63,42,0
2,note_on,58,42,0
2,note_on,58,0,240
2,note_on,63,0,0
2,note_on,51,0,240
2,note_on,46,58,0
2,note_on,46,0,155
2,note_on,68,47,240
2,note_on,65,47,0
2,note_on,58,47,0
2,note_on,58,0,360
2,note_on,65,0,0
2,note_on,68,0,0
2,note_on,68,44,120
2,note_on,65,44,0
2,note_on,58,44,0
2,note_on,58,0,345
2,note_on,65,0,0
2,note_on,68,0,0
2,note_on,51,49,120
2,note_on,51,0,155
2,note_on,67,43,240
2,note_on,63,43,0
2,note_on,58,43,0
2,note_on,58,0,360
2,note_on,63,0,0
2,note_on,67,0,0
2,note_on,67,64,120
2,note_on,63,64,0
2,note_on,58,64,0
2,note_on,58,0,346
2,note_on,63,0,0
2,note_on,67,0,0
2,note_on,50,67,120
2,note_on,50,0,141
2,note_on,68,49,240
2,note_on,65,49,0
2,note_on,58,49,0
2,note_on,58,0,360
2,note_on,65,0,0
2,note_on,68,0,0
2,note_on,68,61,120
2,note_on,65,61,0
2,note_on,58,61,0
2,note_on,58,0,346
2,note_on,65,0,0
2,note_on,68,0,0
2,note_on,51,65,120
2,note_on,51,0,160
2,note_on,67,48,240
2,note_on,61,48,0
2,note_on,58,48,0
2,note_on,58,0,240
2,note_on,61,0,0
2,note_on,67,0,0
2,note_on,52,49,240
2,note_on,52,0,475
2,note_on,53,44,0
2,note_on,53,0,240
2,note_on,65,33,240
2,note_on,56,33,0
2,note_on,56,0,240
2,note_on,65,0,0
2,note_on,44,28,240
2,note_on,44,0,240
2,note_on,46,26,240
2,note_on,46,0,141
2,note_on,63,34,240
2,note_on,55,34,0
2,note_on,55,0,360
2,note_on,63,0,0
2,note_on,63,38,120
2,note_on,55,38,0
2,note_on,55,0,226
2,note_on,63,0,0
2,note_on,46,30,240
2,note_on,46,0,127
2,note_on,62,36,240
2,note_on,53,36,0
2,note_on,53,0,480
2,note_on,62,0,0
2,note_on,62,24,0
2,note_on,58,24,0
2,note_on,58,0,465
2,note_on,62,0,0
2,note_on,51,30,0
2,note_on,63,45,480
2,note_on,55,45,0
2,note_on,55,0,480
2,note_on,63,0,0
2,note_on,51,0,0
2,note_on,51,52,0
2,note_on,61,52,0
2,note_on,55,52,0
2,note_on,55,0,480
2,note_on,61,0,0
2,note_on,51,0,0
2,note_on,44,25,0
2,note_on,44,0,367
2,note_on,60,33,0
2,note_on,56,33,0
2,note_on,51,33,0
2,note_on,51,0,360
2,note_on,56,0,0
2,note_on,60,0,0
2,note_on,60,41,120
2,note_on,56,41,0
2,note_on,51,41,0
2,note_on,51,0,360
2,note_on,56,0,0
2,note_on,60,0,0
2,note_on,44,33,120
2,note_on,44,0,480
2,note_on,60,33,0
2,note_on,56,33,0
2,note_on,51,33,0
2,note_on,51,0,360
2,note_on,56,0,0
2,note_on,60,0,0
2,note_on,51,37,120
2,note_on,56,37,0
2,note_on,60,37,0
2,note_on,60,0,350
2,note_on,56,0,0
2,note_on,51,0,0
2,note_on,44,37,120
2,note_on,44,0,367
2,note_on,59,26,0
2,note_on,56,26,0
2,note_on,50,26,0
2,note_on,50,0,360
2,note_on,56,0,0
2,note_on,59,0,0
2,note_on,50,32,120
2,note_on,56,32,0
2,note_on,59,32,0
2,note_on,59,0,349
2,note_on,56,0,0
2,note_on,50,0,0
2,note_on,44,38,120
2,note_on,44,0,320
2,note_on,60,29,0
2,note_on,56,29,0
2,note_on,51,29,0
2,note_on,51,0,360
2,note_on,56,0,0
2,note_on,60,0,0
2,note_on,60,48,120
2,note_on,56,48,0
2,note_on,51,48,0
2,note_on,51,0,354
2,note_on,56,0,0
2,note_on,60,0,0
2,note_on,50,55,120
2,note_on,50,0,381
2,note_on,65,24,0
2,note_on,59,24,0
2,note_on,56,24,0
2,note_on,56,0,360
2,note_on,59,0,0
2,note_on,65,0,0
2,note_on,65,36,120
2,note_on,59,36,0
2,note_on,56,36,0
2,note_on,56,0,350
2,note_on,59,0,0
2,note_on,65,0,0
2,note_on,51,44,120
2,note_on,51,0,381
2,note_on,60,32,0
2,note_on,63,32,0
2,note_on,68,32,0
2,note_on,68,0,360
2,note_on,63,0,0
2,note_on,60,0,0
2,note_on,60,42,120
2,note_on,63,42,0
2,note_on,68,42,0
2,note_on,68,0,225
2,note_on,63,0,0
2,note_on,60,0,0
2,note_on,51,20,240
2,note_on,51,0,411
2,note_on,61,20,0
2,note_on,63,20,0
2,note_on,67,20,0
2,note_on,67,0,360
2,note_on,63,0,0
2,note_on,61,0,0
2,note_on,61,30,120
2,note_on,63,30,0
2,note_on,67,30,0
2,note_on,67,0,234
2,note_on,63,0,0
2,note_on,61,0,0
2,note_on,56,34,240
2,note_on,56,0,480
2,note_on,68,23,0
2,note_on,63,23,0
2,note_on,60,23,0
2,note_on,60,0,480
2,note_on,63,0,0
2,note_on,68,0,0
2,note_on,60,38,0
2,note_on,63,38,0
2,note_on,68,38,0
2,note_on,68,0,240
2,note_on,63,0,0
2,note_on,60,0,0
2,note_on,44,34,240
2,note_on,44,0,430
2,note_on,60,31,0
2,note_on,56,31,0
2,note_on,51,31,0
2,note_on,51,0,360
2,note_on,56,0,0
2,note_on,60,0,0
2,note_on,60,49,120
2,note_on,56,49,0
2,note_on,51,49,0
2,note_on,51,0,360
2,note_on,56,0,0
2,note_on,60,0,0
2,note_on,44,47,120
2,note_on,44,0,480
2,note_on,60,35,0
2,note_on,56,35,0
2,note_on,51,35,0
2,note_on,51,0,360
2,note_on,56,0,0
2,note_on,60,0,0
2,note_on,51,52,120
2,note_on,56,52,0
2,note_on,60,52,0
2,note_on,60,0,346
2,note_on,56,0,0
2,note_on,51,0,0
2,note_on,44,40,120
2,note_on,44,0,409
2,note_on,59,35,0
2,note_on,56,35,0
2,note_on,50,35,0
2,note_on,50,0,360
2,note_on,56,0,0
2,note_on,59,0,0
2,note_on,50,31,120
2,note_on,56,31,0
2,note_on,59,31,0
2,note_on,59,0,354
2,note_on,56,0,0
2,note_on,50,0,0
2,note_on,44,38,120
2,note_on,44,0,343
2,note_on,60,30,0
2,note_on,56,30,0
2,note_on,51,30,0
2,note_on,51,0,360
2,note_on,56,0,0
2,note_on,60,0,0
2,note_on,60,36,120
2,note_on,56,36,0
2,note_on,51,36,0
2,note_on,51,0,472
2,note_on,56,0,0
2,note_on,60,0,0
2,note_on,50,38,0
2,note_on,50,0,388
2,note_on,65,33,0
2,note_on,59,33,0
2,note_on,56,33,0
2,note_on,56,0,360
2,note_on,59,0,0
2,note_on,65,0,0
2,note_on,65,36,120
2,note_on,59,36,0
2,note_on,56,36,0
2,note_on,56,0,352
2,note_on,59,0,0
2,note_on,65,0,0
2,note_on,51,44,120
2,note_on,51,0,402
2,note_on,60,29,0
2,note_on,63,29,0
2,note_on,68,29,0
2,note_on,68,0,360
2,note_on,63,0,0
2,note_on,60,0,0
2,note_on,60,44,120
2,note_on,63,44,0
2,note_on,68,44,0
2,note_on,68,0,224
2,note_on,63,0,0
2,note_on,60,0,0
2,note_on,51,27,240
2,note_on,51,0,377
2,note_on,61,32,0
2,note_on,63,32,0
2,note_on,67,32,0
2,note_on,67,0,360
2,note_on,63,0,0
2,note_on,61,0,0
2,note_on,61,37,120
2,note_on,63,37,0
2,note_on,67,37,0
2,note_on,67,0,227
2,note_on,63,0,0
2,note_on,61,0,0
2,note_on,56,44,240
2,note_on,60,35,480
2,note_on,68,35,0
2,note_on,68,0,480
2,note_on,60,0,0
2,note_on,65,47,0
2,note_on,68,47,0
2,note_on,68,0,434
2,note_on,65,0,0
2,note_on,56,0,0
2,note_on,58,86,0
2,note_on,46,86,0
2,note_on,46,0,268
2,note_on,58,0,0
2,note_on,68,55,0
2,note_on,65,55,0
2,note_on,58,55,0
2,note_on,58,0,360
2,note_on,65,0,0
2,note_on,68,0,0
2,note_on,68,65,120
2,note_on,65,65,0
2,note_on,58,65,0
2,note_on,58,0,354
2,note_on,65,0,0
2,note_on,68,0,0
2,note_on,51,74,120
2,note_on,51,0,310
2,note_on,67,57,0
2,note_on,63,57,0
2,note_on,58,57,0
2,note_on,58,0,360
2,note_on,63,0,0
2,note_on,67,0,0
2,note_on,67,62,120
2,note_on,63,62,0
2,note_on,58,62,0
2,note_on,58,0,345
2,note_on,63,0,0
2,note_on,67,0,0
2,note_on,50,65,120
2,note_on,50,0,367
2,note_on,68,56,0
2,note_on,65,56,0
2,note_on,58,56,0
2,note_on,58,0,360
2,note_on,65,0,0
2,note_on,68,0,0
2,note_on,68,69,120
2,note_on,65,69,0
2,note_on,58,69,0
2,note_on,58,0,345
2,note_on,65,0,0
2,note_on,68,0,0
2,note_on,51,61,120
2,note_on,51,0,114
2,note_on,67,61,240
2,note_on,61,61,0
2,note_on,58,61,0
2,note_on,58,0,240
2,note_on,61,0,0
2,note_on,67,0,0
2,note_on,52,38,240
2,note_on,52,0,229
2,note_on,53,38,240
2,note_on,53,0,113
2,note_on,65,41,240
2,note_on,56,41,0
2,note_on,56,0,240
2,note_on,65,0,0
2,note_on,44,36,240
2,note_on,44,0,233
2,note_on,46,31,240
2,note_on,46,0,113
2,note_on,63,27,240
2,note_on,55,27,0
2,note_on,55,0,480
2,note_on,63,0,0
2,note_on,63,41,0
2,note_on,55,41,0
2,note_on,55,0,225
2,note_on,63,0,0
2,note_on,46,39,240
2,note_on,46,0,198
2,note_on,62,26,240
2,note_on,53,26,0
2,note_on,53,0,480
2,note_on,62,0,0
2,note_on,62,34,0
2,note_on,58,34,0
2,note_on,58,0,225
2,note_on,62,0,0
2,note_on,51,23,240
2,note_on,63,33,395
2,note_on,58,33,0
2,note_on,58,0,360
2,note_on,63,0,0
2,note_on,63,53,120
2,note_on,58,53,0
2,note_on,58,0,226
2,note_on,63,0,0
2,note_on,51,0,240
2,note_on,46,37,0
2,note_on,46,0,80
2,note_on,68,32,240
2,note_on,65,32,0
2,note_on,58,32,0
2,note_on,58,0,360
2,note_on,65,0,0
2,note_on,68,0,0
2,note_on,68,35,120
2,note_on,65,35,0
2,note_on,58,35,0
2,note_on,58,0,344
2,note_on,65,0,0
2,note_on,68,0,0
2,note_on,51,41,120
2,note_on,51,0,169
2,note_on,67,45,240
2,note_on,63,45,0
2,note_on,58,45,0
2,note_on,58,0,360
2,note_on,63,0,0
2,note_on,67,0,0
2,note_on,67,41,120
2,note_on,63,41,0
2,note_on,58,41,0
2,note_on,58,0,356
2,note_on,63,0,0
2,note_on,67,0,0
2,note_on,50,52,120
2,note_on,50,0,171
2,note_on,68,67,240
2,note_on,65,67,0
2,note_on,58,67,0
2,note_on,58,0,360
2,note_on,65,0,0
2,note_on,68,0,0
2,note_on,68,56,120
2,note_on,65,56,0
2,note_on,58,56,0
2,note_on,58,0,349
2,note_on,65,0,0
2,note_on,68,0,0
2,note_on,51,66,120
2,note_on,51,0,148
2,note_on,67,54,240
2,note_on,61,54,0
2,note_on,58,54,0
2,note_on,58,0,240
2,note_on,61,0,0
2,note_on,67,0,0
2,note_on,52,42,240
2,note_on,52,0,465
2,note_on,53,20,0
2,note_on,53,0,240
2,note_on,65,32,240
2,note_on,56,32,0
2,note_on,56,0,240
2,note_on,65,0,0
2,note_on,44,30,240
2,note_on,44,0,233
2,note_on,46,37,240
2,note_on,46,0,198
2,note_on,63,29,240
2,note_on,55,29,0
2,note_on,55,0,360
2,note_on,63,0,0
2,note_on,63,34,120
2,note_on,55,34,0
2,note_on,55,0,224
2,note_on,63,0,0
2,note_on,46,33,240
2,note_on,46,0,184
2,note_on,62,33,240
2,note_on,53,33,0
2,note_on,53,0,480
2,note_on,62,0,0
2,note_on,62,41,0
2,note_on,58,41,0
2,note_on,62,0,464
2,note_on,63,36,0
2,note_on,51,36,0
2,note_on,51,0,480
2,note_on,63,0,0
2,note_on,58,0,0
2,note_on,51,32,480
2,note_on,61,32,0
2,note_on,55,32,0
2,note_on,55,0,480
2,note_on,61,0,0
2,note_on,51,0,0
2,note_on,44,27,0
2,note_on,44,0,367
2,note_on,60,27,0
2,note_on,56,27,0
2,note_on,51,27,0
2,note_on,51,0,360
2,note_on,56,0,0
2,note_on,60,0,0
2,note_on,60,44,120
2,note_on,56,44,0
2,note_on,51,44,0
2,note_on,51,0,360
2,note_on,56,0,0
2,note_on,60,0,0
2,note_on,44,39,120
2,note_on,44,0,480
2,note_on,60,35,0
2,note_on,56,35,0
2,note_on,51,35,0
2,note_on,51,0,360
2,note_on,56,0,0
2,note_on,60,0,0
2,note_on,51,33,120
2,note_on,56,33,0
2,note_on,60,33,0
2,note_on,60,0,348
2,note_on,56,0,0
2,note_on,51,0,0
2,note_on,44,47,120
2,note_on,44,0,395
2,note_on,59,29,0
2,note_on,56,29,0
2,note_on,50,29,0
2,note_on,50,0,360
2,note_on,56,0,0
2,note_on,59,0,0
2,note_on,50,29,120
2,note_on,56,29,0
2,note_on,59,29,0
2,note_on,59,0,345
2,note_on,56,0,0
2,note_on,50,0,0
2,note_on,44,43,120
2,note_on,44,0,388
2,note_on,60,31,0
2,note_on,56,31,0
2,note_on,51,31,0
2,note_on,51,0,360
2,note_on,56,0,0
2,note_on,60,0,0
2,note_on,60,38,120
2,note_on,56,38,0
2,note_on,51,38,0
2,note_on,51,0,345
2,note_on,56,0,0
2,note_on,60,0,0
2,note_on,50,44,120
2,note_on,50,0,409
2,note_on,65,29,0
2,note_on,59,29,0
2,note_on,56,29,0
2,note_on,56,0,360
2,note_on,59,0,0
2,note_on,65,0,0
2,note_on,65,40,120
2,note_on,59,40,0
2,note_on,56,40,0
2,note_on,56,0,346
2,note_on,59,0,0
2,note_on,65,0,0
2,note_on,51,45,120
2,note_on,51,0,423
2,note_on,60,31,0
2,note_on,63,31,0
2,note_on,68,31,0
2,note_on,68,0,480
2,note_on,63,0,0
2,note_on,60,0,0
2,note_on,60,50,0
2,note_on,63,50,0
2,note_on,68,50,0
2,note_on,68,0,225
2,note_on,63,0,0
2,note_on,60,0,0
2,note_on,51,40,240
2,note_on,51,0,423
2,note_on,61,35,0
2,note_on,63,35,0
2,note_on,67,35,0
2,note_on,67,0,360
2,note_on,63,0,0
2,note_on,61,0,0
2,note_on,61,37,120
2,note_on,63,37,0
2,note_on,67,37,0
2,note_on,67,0,223
2,note_on,63,0,0
2,note_on,61,0,0
2,note_on,56,45,240
2,note_on,68,37,367
2,note_on,63,37,0
2,note_on,60,37,0
2,note_on,60,0,360
2,note_on,63,0,0
2,note_on,68,0,0
2,note_on,60,45,120
2,note_on,63,45,0
2,note_on,68,45,0
2,note_on,68,0,224
2,note_on,63,0,0
2,note_on,60,0,0
2,note_on,56,0,240
2,note_on,44,27,0
2,note_on,44,0,402
2,note_on,60,34,0
2,note_on,56,34,0
2,note_on,51,34,0
2,note_on,51,0,360
2,note_on,56,0,0
2,note_on,60,0,0
2,note_on,60,41,120
2,note_on,56,41,0
2,note_on,51,41,0
2,note_on,51,0,360
2,note_on,56,0,0
2,note_on,60,0,0
2,note_on,44,33,120
2,note_on,44,0,480
2,note_on,60,37,0
2,note_on,56,37,0
2,note_on,51,37,0
2,note_on,51,0,360
2,note_on,56,0,0
2,note_on,60,0,0
2,note_on,51,37,120
2,note_on,56,37,0
2,note_on,60,37,0
2,note_on,60,0,347
2,note_on,56,0,0
2,note_on,51,0,0
2,note_on,44,35,120
2,note_on,44,0,374
2,note_on,59,35,0
2,note_on,56,35,0
2,note_on,50,35,0
2,note_on,50,0,360
2,note_on,56,0,0
2,note_on,59,0,0
2,note_on,50,35,120
2,note_on,56,35,0
2,note_on,59,35,0
2,note_on,59,0,354
2,note_on,56,0,0
2,note_on,50,0,0
2,note_on,44,38,120
2,note_on,44,0,388
2,note_on,60,28,0
2,note_on,56,28,0
2,note_on,51,28,0
2,note_on,51,0,360
2,note_on,56,0,0
2,note_on,60,0,0
2,note_on,60,41,120
2,note_on,56,41,0
2,note_on,51,41,0
2,note_on,51,0,347
2,note_on,56,0,0
2,note_on,60,0,0
2,note_on,50,32,120
2,note_on,50,0,388
2,note_on,65,25,0
2,note_on,59,25,0
2,note_on,56,25,0
2,note_on,56,0,360
2,note_on,59,0,0
2,note_on,65,0,0
2,note_on,65,31,120
2,note_on,59,31,0
2,note_on,56,31,0
2,note_on,56,0,352
2,note_on,59,0,0
2,note_on,65,0,0
2,note_on,51,33,120
2,note_on,60,25,416
2,note_on,63,25,0
2,note_on,56,25,0
2,note_on,56,0,360
2,note_on,63,0,0
2,note_on,60,0,0
2,note_on,60,33,120
2,note_on,63,33,0
2,note_on,56,33,0
2,note_on,56,0,224
2,note_on,63,0,0
2,note_on,60,0,0
2,note_on,51,0,240
2,note_on,51,44,0
2,note_on,61,25,423
2,note_on,63,25,0
2,note_on,67,25,0
2,note_on,67,0,360
2,note_on,63,0,0
2,note_on,61,0,0
2,note_on,61,25,120
2,note_on,63,25,0
2,note_on,67,25,0
2,note_on,67,0,224
2,note_on,63,0,0
2,note_on,61,0,0
2,note_on,51,0,240
2,note_on,44,17,0
2,note_on,44,0,373
2,note_on,51,24,0
2,note_on,60,24,0
2,note_on,60,0,480
2,note_on,51,0,0
2,note_on,44,34,470
2,note_on,44,0,42
2,note_on,60,44,240
2,note_on,51,44,0
2,note_on,66,37,480
2,note_on,56,37,0
2,note_on,51,0,5
2,note_on,60,0,0
2,note_on,66,0,460
2,note_on,56,0,0
2,note_on,44,37,0
2,note_on,44,0,120
2,note_on,60,29,240
2,note_on,51,29,0
2,note_on,66,29,480
2,note_on,56,29,0
2,note_on,51,0,5
2,note_on,60,0,0
2,note_on,66,0,460
2,note_on,56,0,0
2,note_on,49,37,0
2,note_on,49,0,198
2,note_on,53,34,240
2,note_on,61,34,0
2,note_on,65,41,480
2,note_on,56,41,0
2,note_on,61,0,8
2,note_on,53,0,0
2,note_on,65,0,460
2,note_on,56,0,0
2,note_on,49,31,0
2,note_on,49,0,148
2,note_on,61,26,240
2,note_on,53,26,0
2,note_on,65,32,480
2,note_on,56,32,0
2,note_on,53,0,20
2,note_on,61,0,0
2,note_on,65,0,460
2,note_on,56,0,0
2,note_on,44,40,0
2,note_on,44,0,28
2,note_on,60,35,240
2,note_on,51,35,0
2,note_on,66,41,480
2,note_on,56,41,0
2,note_on,51,0,6
2,note_on,60,0,0
2,note_on,66,0,460
2,note_on,56,0,0
2,note_on,44,37,0
2,note_on,44,0,148
2,note_on,60,25,240
2,note_on,51,25,0
2,note_on,56,37,480
2,note_on,66,37,0
2,note_on,51,0,5
2,note_on,60,0,0
2,note_on,56,0,460
2,note_on,66,0,0
2,note_on,49,35,0
2,note_on,56,37,480
2,note_on,56,0,480
2,note_on,60,18,0
2,note_on,60,0,480
2,note_on,49,0,0
2,note_on,61,29,0
2,note_on,49,29,0
2,note_on,49,0,169
2,note_on,61,0,0
2,note_on,53,36,240
2,note_on,61,36,0
2,note_on,65,36,480
2,note_on,56,36,0
2,note_on,61,0,20
2,note_on,53,0,0
2,note_on,65,0,460
2,note_on,56,0,0
2,note_on,44,36,0
2,note_on,44,0,42
2,note_on,60,31,240
2,note_on,51,31,0
2,note_on,66,39,480
2,note_on,56,39,0
2,note_on,51,0,5
2,note_on,60,0,0
2,note_on,66,0,460
2,note_on,56,0,0
2,note_on,44,40,0
2,note_on,44,0,184
2,note_on,60,36,240
2,note_on,51,36,0
2,note_on,66,32,480
2,note_on,56,32,0
2,note_on,51,0,4
2,note_on,60,0,0
2,note_on,66,0,460
2,note_on,56,0,0
2,note_on,37,45,0
2,note_on,37,0,141
2,note_on,53,30,240
2,note_on,61,30,0
2,note_on,65,53,480
2,note_on,56,53,0
2,note_on,61,0,6
2,note_on,53,0,0
2,note_on,65,0,460
2,note_on,56,0,0
2,note_on,49,32,0
2,note_on,49,0,148
2,note_on,61,44,240
2,note_on,53,44,0
2,note_on,65,39,480
2,note_on,56,39,0
2,note_on,53,0,20
2,note_on,61,0,0
2,note_on,65,0,460
2,note_on,56,0,0
2,note_on,42,38,0
2,note_on,42,0,234
2,note_on,62,43,240
2,note_on,54,43,0
2,note_on,63,37,480
2,note_on,58,37,0
2,note_on,54,0,4
2,note_on,62,0,0
2,note_on,63,0,460
2,note_on,58,0,0
2,note_on,44,37,0
2,note_on,44,0,56
2,note_on,60,30,240
2,note_on,53,30,0
2,note_on,61,46,480
2,note_on,56,46,0
2,note_on,53,0,5
2,note_on,60,0,0
2,note_on,61,0,460
2,note_on,56,0,0
2,note_on,44,33,0
2,note_on,44,0,56
2,note_on,60,30,240
2,note_on,56,30,0
2,note_on,51,30,0
2,note_on,51,0,480
2,note_on,56,0,0
2,note_on,60,0,0
2,note_on,60,36,0
2,note_on,56,36,0
2,note_on,51,36,0
2,note_on,51,0,464
2,note_on,56,0,0
2,note_on,60,0,0
2,note_on,61,45,0
2,note_on,56,45,0
2,note_on,49,45,0
2,note_on,49,0,480
2,note_on,56,0,0
2,note_on,61,0,0
2,note_on,44,47,960
2,note_on,44,0,113
2,note_on,60,44,240
2,note_on,51,44,0
2,note_on,66,49,480
2,note_on,56,49,0
2,note_on,51,0,5
2,note_on,60,0,0
2,note_on,66,0,460
2,note_on,56,0,0
2,note_on,44,42,0
2,note_on,44,0,148
2,note_on,60,39,240
2,note_on,51,39,0
2,note_on,66,39,480
2,note_on,56,39,0
2,note_on,51,0,6
2,note_on,60,0,0
2,note_on,66,0,460
2,note_on,56,0,0
2,note_on,49,51,0
2,note_on,49,0,84
2,note_on,53,45,240
2,note_on,61,45,0
2,note_on,65,50,480
2,note_on,56,50,0
2,note_on,61,0,6
2,note_on,53,0,0
2,note_on,65,0,460
2,note_on,56,0,0
2,note_on,49,52,0
2,note_on,49,0,169
2,note_on,61,37,240
2,note_on,53,37,0
2,note_on,65,34,480
2,note_on,56,34,0
2,note_on,53,0,20
2,note_on,61,0,0
2,note_on,65,0,460
2,note_on,56,0,0
2,note_on,44,45,0
2,note_on,44,0,42
2,note_on,60,34,240
2,note_on,51,34,0
2,note_on,66,41,480
2,note_on,56,41,0
2,note_on,51,0,4
2,note_on,60,0,0
2,note_on,66,0,460
2,note_on,56,0,0
2,note_on,44,43,0
2,note_on,44,0,148
2,note_on,60,28,240
2,note_on,51,28,0
2,note_on,56,43,480
2,note_on,66,43,0
2,note_on,51,0,4
2,note_on,60,0,0
2,note_on,56,0,460
2,note_on,66,0,0
2,note_on,49,44,0
2,note_on,56,40,480
2,note_on,56,0,480
2,note_on,60,28,0
2,note_on,60,0,480
2,note_on,49,0,0
2,note_on,61,29,0
2,note_on,49,29,0
2,note_on,49,0,155
2,note_on,61,0,0
2,note_on,53,35,240
2,note_on,61,35,0
2,note_on,61,0,480
2,note_on,53,0,0
2,note_on,65,35,0
2,note_on,56,35,0
2,note_on,56,0,480
2,note_on,65,0,0
2,note_on,44,35,0
2,note_on,44,0,42
2,note_on,60,38,240
2,note_on,51,38,0
2,note_on,66,40,480
2,note_on,56,40,0
2,note_on,51,0,5
2,note_on,60,0,0
2,note_on,66,0,460
2,note_on,56,0,0
2,note_on,44,61,0
2,note_on,44,0,190
2,note_on,60,49,240
2,note_on,51,49,0
2,note_on,66,57,480
2,note_on,56,57,0
2,note_on,51,0,13
2,note_on,60,0,0
2,note_on,66,0,460
2,note_on,56,0,0
2,note_on,37,61,0
2,note_on,37,0,184
2,note_on,53,47,240
2,note_on,61,47,0
2,note_on,65,57,480
2,note_on,56,57,0
2,note_on,61,0,5
2,note_on,53,0,0
2,note_on,65,0,460
2,note_on,56,0,0
2,note_on,49,53,0
2,note_on,49,0,176
2,note_on,61,40,240
2,note_on,53,40,0
2,note_on,53,0,480
2,note_on,61,0,0
2,note_on,65,48,0
2,note_on,56,48,0
2,note_on,56,0,480
2,note_on,65,0,0
2,note_on,42,49,0
2,note_on,42,0,42
2,note_on,62,43,240
2,note_on,54,43,0
2,note_on,63,48,480
2,note_on,58,48,0
2,note_on,54,0,4
2,note_on,62,0,0
2,note_on,63,0,460
2,note_on,58,0,0
2,note_on,44,42,0
2,note_on,44,0,99
2,note_on,60,28,240
2,note_on,53,28,0
2,note_on,61,41,480
2,note_on,56,41,0
2,note_on,53,0,5
2,note_on,60,0,0
2,note_on,61,0,460
2,note_on,56,0,0
2,note_on,44,43,0
2,note_on,44,0,84
2,note_on,60,29,240
2,note_on,56,29,0
2,note_on,51,29,0
2,note_on,51,0,480
2,note_on,56,0,0
2,note_on,60,0,0
2,note_on,60,46,0
2,note_on,56,46,0
2,note_on,51,46,0
2,note_on,51,0,466
2,note_on,56,0,0
2,note_on,60,0,0
2,note_on,61,46,0
2,note_on,56,46,0
2,note_on,49,46,0
2,note_on,49,0,480
2,note_on,56,0,0
2,note_on,61,0,0
2,note_on,49,67,480
2,note_on,56,67,0
2,note_on,61,67,0
2,note_on,61,0,240
2,note_on,56,0,0
2,note_on,49,0,0
2,note_on,61,73,240
2,note_on,58,62,0
2,note_on,51,62,0
2,note_on,51,0,240
2,note_on,58,0,0
2,note_on,61,0,0
2,note_on,61,67,720
2,note_on,58,67,0
2,note_on,51,67,0
2,note_on,51,0,240
2,note_on,58,0,0
2,note_on,61,0,0
2,note_on,61,73,240
2,note_on,58,62,0
2,note_on,51,62,0
2,note_on,51,0,240
2,note_on,58,0,0
2,note_on,61,0,0
2,note_on,61,52,720
2,note_on,58,52,0
2,note_on,51,52,0
2,note_on,51,0,240
2,note_on,58,0,0
2,note_on,61,0,0
2,note_on,44,36,240
2,note_on,44,0,324
2,note_on,60,32,0
2,note_on,56,32,0
2,note_on,51,32,0
2,note_on,51,0,480
2,note_on,56,0,0
2,note_on,60,0,0
2,note_on,60,37,0
2,note_on,56,37,0
2,note_on,51,37,0
2,note_on,51,0,233
2,note_on,56,0,0
2,note_on,60,0,0
2,note_on,44,38,240
2,note_on,44,0,480
2,note_on,59,39,0
2,note_on,56,39,0
2,note_on,50,39,0
2,note_on,50,0,240
2,note_on,53,29,0
2,note_on,53,0,240
2,note_on,56,0,0
2,note_on,59,0,0
2,note_on,51,50,0
2,note_on,56,50,0
2,note_on,60,50,0
2,note_on,60,0,240
2,note_on,56,0,0
2,note_on,51,0,0
2,note_on,61,76,240
2,note_on,58,64,0
2,note_on,51,64,0
2,note_on,51,0,240
2,note_on,58,0,0
2,note_on,61,0,0
2,note_on,61,63,720
2,note_on,58,63,0
2,note_on,51,63,0
2,note_on,51,0,240
2,note_on,58,0,0
2,note_on,61,0,0
2,note_on,61,68,240
2,note_on,58,57,0
2,note_on,51,57,0
2,note_on,51,0,240
2,note_on,58,0,0
2,note_on,61,0,0
2,note_on,61,45,720
2,note_on,58,45,0
2,note_on,51,45,0
2,note_on,51,0,240
2,note_on,58,0,0
2,note_on,61,0,0
2,note_on,39,40,240
2,note_on,39,0,480
2,note_on,61,39,0
2,note_on,55,39,0
2,note_on,55,0,480
2,note_on,61,0,0
2,note_on,51,37,0
2,note_on,61,37,0
2,note_on,61,0,480
2,note_on,51,0,0
2,note_on,44,48,0
2,note_on,44,0,480
2,note_on,56,36,0
2,note_on,60,36,0
2,note_on,60,0,480
2,note_on,56,0,0
2,note_on,51,45,0
2,note_on,60,45,0
2,note_on,60,0,480
2,note_on,51,0,0
2,note_on,61,72,0
2,note_on,58,61,0
2,note_on,51,61,0
2,note_on,51,0,240
2,note_on,58,0,0
2,note_on,61,0,0
2,note_on,61,64,720
2,note_on,58,64,0
2,note_on,51,64,0
2,note_on,51,0,240
2,note_on,58,0,0
2,note_on,61,0,0
2,note_on,61,73,240
2,note_on,58,62,0
2,note_on,51,62,0
2,note_on,51,0,240
2,note_on,58,0,0
2,note_on,61,0,0
2,note_on,61,51,720
2,note_on,58,51,0
2,note_on,51,51,0
2,note_on,51,0,240
2,note_on,58,0,0
2,note_on,61,0,0
2,note_on,44,46,240
2,note_on,44,0,367
2,note_on,60,35,0
2,note_on,56,35,0
2,note_on,51,35,0
2,note_on,51,0,480
2,note_on,56,0,0
2,note_on,60,0,0
2,note_on,60,42,0
2,note_on,56,42,0
2,note_on,51,42,0
2,note_on,51,0,235
2,note_on,56,0,0
2,note_on,60,0,0
2,note_on,44,49,240
2,note_on,44,0,480
2,note_on,59,44,0
2,note_on,56,44,0
2,note_on,50,44,0
2,note_on,50,0,240
2,note_on,53,29,0
2,note_on,53,0,240
2,note_on,56,0,0
2,note_on,59,0,0
2,note_on,51,51,0
2,note_on,56,51,0
2,note_on,60,51,0
2,note_on,60,0,240
2,note_on,56,0,0
2,note_on,51,0,0
2,note_on,61,68,240
2,note_on,58,57,0
2,note_on,51,57,0
2,note_on,51,0,240
2,note_on,58,0,0
2,note_on,61,0,0
2,note_on,61,63,720
2,note_on,58,63,0
2,note_on,51,63,0
2,note_on,51,0,240
2,note_on,58,0,0
2,note_on,61,0,0
2,note_on,61,71,240
2,note_on,58,71,0
2,note_on,51,60,0
2,note_on,51,0,240
2,note_on,58,0,0
2,note_on,61,0,0
2,note_on,61,36,720
2,note_on,58,36,0
2,note_on,51,36,0
2,note_on,51,0,240
2,note_on,58,0,0
2,note_on,61,0,0
2,note_on,60,45,240
2,note_on,56,45,0
2,note_on,56,0,480
2,note_on,60,0,0
2,note_on,44,38,2400
2,note_on,44,0,127
2,note_on,60,44,240
2,note_on,51,44,0
2,note_on,66,36,480
2,note_on,56,36,0
2,note_on,51,0,5
2,note_on,60,0,0
2,note_on,66,0,460
2,note_on,56,0,0
2,note_on,44,43,0
2,note_on,44,0,134
2,note_on,60,35,240
2,note_on,51,35,0
2,note_on,66,39,480
2,note_on,56,39,0
2,note_on,51,0,13
2,note_on,60,0,0
2,note_on,66,0,460
2,note_on,56,0,0
2,note_on,37,51,0
2,note_on,37,0,127
2,note_on,53,37,240
2,note_on,61,37,0
2,note_on,65,45,480
2,note_on,56,45,0
2,note_on,61,0,5
2,note_on,53,0,0
2,note_on,65,0,460
2,note_on,56,0,0
2,note_on,49,37,0
2,note_on,49,0,155
2,note_on,61,40,240
2,note_on,53,40,0
2,note_on,65,39,480
2,note_on,56,39,0
2,note_on,53,0,20
2,note_on,61,0,0
2,note_on,65,0,460
2,note_on,56,0,0
2,note_on,44,38,0
2,note_on,44,0,84
2,note_on,60,45,240
2,note_on,51,45,0
2,note_on,66,45,480
2,note_on,56,45,0
2,note_on,51,0,8
2,note_on,60,0,0
2,note_on,66,0,460
2,note_on,56,0,0
2,note_on,44,44,0
2,note_on,44,0,162
2,note_on,60,42,240
2,note_on,51,42,0
2,note_on,56,34,480
2,note_on,66,34,0
2,note_on,51,0,13
2,note_on,60,0,0
2,note_on,56,0,460
2,note_on,66,0,0
2,note_on,49,38,0
2,note_on,56,46,480
2,note_on,56,0,480
2,note_on,60,45,0
2,note_on,60,0,480
2,note_on,49,0,0
2,note_on,61,43,0
2,note_on,49,43,0
2,note_on,49,0,127
2,note_on,61,0,0
2,note_on,53,36,240
2,note_on,61,36,0
2,note_on,61,0,480
2,note_on,53,0,0
2,note_on,65,36,0
2,note_on,56,36,0
2,note_on,56,0,473
2,note_on,65,0,0
2,note_on,44,33,0
2,note_on,44,0,127
2,note_on,60,38,240
2,note_on,51,38,0
2,note_on,66,35,480
2,note_on,56,35,0
2,note_on,51,0,6
2,note_on,60,0,0
2,note_on,66,0,460
2,note_on,56,0,0
2,note_on,44,43,0
2,note_on,44,0,169
2,note_on,60,35,240
2,note_on,51,35,0
2,note_on,66,39,480
2,note_on,56,39,0
2,note_on,51,0,20
2,note_on,60,0,0
2,note_on,66,0,460
2,note_on,56,0,0
2,note_on,37,48,0
2,note_on,37,0,99
2,note_on,53,38,240
2,note_on,61,38,0
2,note_on,65,47,480
2,note_on,56,47,0
2,note_on,61,0,8
2,note_on,53,0,0
2,note_on,65,0,460
2,note_on,56,0,0
2,note_on,49,52,0
2,note_on,49,0,162
2,note_on,61,40,240
2,note_on,53,40,0
2,note_on,65,39,480
2,note_on,56,39,0
2,note_on,53,0,20
2,note_on,61,0,0
2,note_on,65,0,460
2,note_on,56,0,0
2,note_on,42,46,0
2,note_on,42,0,70
2,note_on,62,37,240
2,note_on,54,37,0
2,note_on,63,43,480
2,note_on,58,43,0
2,note_on,54,0,15
2,note_on,62,0,0
2,note_on,63,0,460
2,note_on,58,0,0
2,note_on,44,35,0
2,note_on,44,0,127
2,note_on,60,40,240
2,note_on,53,40,0
2,note_on,61,41,480
2,note_on,56,41,0
2,note_on,53,0,8
2,note_on,60,0,0
2,note_on,61,0,460
2,note_on,56,0,0
2,note_on,44,33,0
2,note_on,44,0,127
2,note_on,60,36,240
2,note_on,56,36,0
2,note_on,51,36,0
2,note_on,51,0,480
2,note_on,56,0,0
2,note_on,60,0,0
2,note_on,60,30,0
2,note_on,56,30,0
2,note_on,51,30,0
2,note_on,51,0,465
2,note_on,56,0,0
2,note_on,60,0,0
2,note_on,61,42,0
2,note_on,56,42,0
2,note_on,49,42,0
2,note_on,49,0,240
2,note_on,56,0,0
2,note_on,61,0,0
2,note_on,37,61,1200
2,note_on,37,0,141
2,note_on,59,43,240
2,note_on,56,43,0
2,note_on,49,43,0
2,note_on,49,0,480
2,note_on,56,0,0
2,note_on,59,0,0
2,note_on,49,51,0
2,note_on,56,51,0
2,note_on,59,51,0
2,note_on,59,0,480
2,note_on,56,0,0
2,note_on,49,0,0
2,note_on,37,65,0
2,note_on,37,0,240
2,note_on,59,56,240
2,note_on,56,56,0
2,note_on,49,56,0
2,note_on,49,0,480
2,note_on,56,0,0
2,note_on,59,0,0
2,note_on,49,57,0
2,note_on,56,57,0
2,note_on,59,57,0
2,note_on,59,0,465
2,note_on,56,0,0
2,note_on,49,0,0
2,note_on,42,63,0
2,note_on,42,0,28
2,note_on,58,45,240
2,note_on,54,45,0
2,note_on,49,45,0
2,note_on,49,0,480
2,note_on,54,0,0
2,note_on,58,0,0
2,note_on,49,45,0
2,note_on,54,45,0
2,note_on,58,45,0
2,note_on,58,0,240
2,note_on,54,0,0
2,note_on,49,0,0
2,note_on,42,55,240
2,note_on,42,0,240
2,note_on,50,41,240
2,note_on,58,41,0
2,note_on,58,0,464
2,note_on,50,0,0
2,note_on,51,46,0
2,note_on,58,46,0
2,note_on,58,0,480
2,note_on,51,0,0
2,note_on,44,35,0
2,note_on,44,0,120
2,note_on,60,32,240
2,note_on,56,32,0
2,note_on,51,32,0
2,note_on,51,0,480
2,note_on,56,0,0
2,note_on,60,0,0
2,note_on,60,37,0
2,note_on,56,37,0
2,note_on,51,37,0
2,note_on,51,0,480
2,note_on,56,0,0
2,note_on,60,0,0
2,note_on,44,45,0
2,note_on,44,0,92
2,note_on,60,38,240
2,note_on,56,38,0
2,note_on,51,38,0
2,note_on,51,0,480
2,note_on,56,0,0
2,note_on,60,0,0
2,note_on,51,38,0
2,note_on,56,38,0
2,note_on,60,38,0
2,note_on,60,0,480
2,note_on,56,0,0
2,note_on,51,0,0
2,note_on,44,49,0
2,note_on,44,0,106
2,note_on,60,35,240
2,note_on,56,35,0
2,note_on,51,35,0
2,note_on,51,0,480
2,note_on,56,0,0
2,note_on,60,0,0
2,note_on,51,40,0
2,note_on,56,40,0
2,note_on,60,40,0
2,note_on,60,0,466
2,note_on,56,0,0
2,note_on,51,0,0
2,note_on,49,34,0
2,note_on,61,38,480
2,note_on,56,38,0
2,note_on,56,0,480
2,note_on,61,0,0
2,note_on,61,35,0
2,note_on,56,35,0
2,note_on,56,0,480
2,note_on,61,0,0
2,note_on,49,0,0
2,note_on,49,60,0
2,note_on,49,0,155
2,note_on,71,45,240
2,note_on,68,45,0
2,note_on,61,45,0
2,note_on,61,0,480
2,note_on,68,0,0
2,note_on,71,0,0
2,note_on,61,54,0
2,note_on,68,54,0
2,note_on,71,54,0
2,note_on,71,0,480
2,note_on,68,0,0
2,note_on,61,0,0
2,note_on,49,63,0
2,note_on,49,0,240
2,note_on,61,45,240
2,note_on,68,45,0
2,note_on,71,45,0
2,note_on,71,0,480
2,note_on,68,0,0
2,note_on,61,0,0
2,note_on,71,48,0
2,note_on,68,48,0
2,note_on,61,48,0
2,note_on,61,0,469
2,note_on,68,0,0
2,note_on,71,0,0
2,note_on,54,50,0
2,note_on,54,0,127
2,note_on,70,49,240
2,note_on,66,49,0
2,note_on,61,49,0
2,note_on,61,0,480
2,note_on,66,0,0
2,note_on,70,0,0
2,note_on,61,55,0
2,note_on,66,55,0
2,note_on,70,55,0
2,note_on,70,0,240
2,note_on,66,0,0
2,note_on,61,0,0
2,note_on,54,46,240
2,note_on,54,0,240
2,note_on,62,43,240
2,note_on,70,43,0
2,note_on,70,0,472
2,note_on,62,0,0
2,note_on,63,43,0
2,note_on,70,43,0
2,note_on,70,0,480
2,note_on,63,0,0
2,note_on,56,49,0
2,note_on,56,0,134
2,note_on,63,42,240
2,note_on,68,42,0
2,note_on,72,42,0
2,note_on,72,0,480
2,note_on,68,0,0
2,note_on,63,0,0
2,note_on,72,36,0
2,note_on,68,36,0
2,note_on,63,36,0
2,note_on,63,0,480
2,note_on,68,0,0
2,note_on,72,0,0
2,note_on,56,44,0
2,note_on,56,0,134
2,note_on,72,36,240
2,note_on,68,36,0
2,note_on,63,36,0
2,note_on,63,0,480
2,note_on,68,0,0
2,note_on,72,0,0
2,note_on,63,36,0
2,note_on,68,36,0
2,note_on,72,36,0
2,note_on,72,0,480
2,note_on,68,0,0
2,note_on,63,0,0
2,note_on,56,43,0
2,note_on,56,0,92
2,note_on,72,32,240
2,note_on,68,32,0
2,note_on,63,32,0
2,note_on,63,0,480
2,note_on,68,0,0
2,note_on,72,0,0
2,note_on,63,38,0
2,note_on,68,38,0
2,note_on,72,38,0
2,note_on,72,0,464
2,note_on,68,0,0
2,note_on,63,0,0
2,note_on,61,38,0
2,note_on,68,38,0
2,note_on,73,38,0
2,note_on,73,0,480
2,note_on,68,0,0
2,note_on,61,0,0
2,note_on,37,59,960
2,note_on,37,0,141
2,note_on,59,49,240
2,note_on,56,49,0
2,note_on,49,49,0
2,note_on,49,0,480
2,note_on,56,0,0
2,note_on,59,0,0
2,note_on,49,55,0
2,note_on,56,55,0
2,note_on,59,55,0
2,note_on,59,0,240
2,note_on,56,0,0
2,note_on,49,0,0
2,note_on,37,58,240
2,note_on,37,0,240
2,note_on,59,50,240
2,note_on,56,50,0
2,note_on,49,50,0
2,note_on,49,0,480
2,note_on,56,0,0
2,note_on,59,0,0
2,note_on,49,54,0
2,note_on,56,54,0
2,note_on,59,54,0
2,note_on,59,0,473
2,note_on,56,0,0
2,note_on,49,0,0
2,note_on,42,54,0
2,note_on,42,0,56
2,note_on,58,51,240
2,note_on,54,51,0
2,note_on,49,51,0
2,note_on,49,0,480
2,note_on,54,0,0
2,note_on,58,0,0
2,note_on,49,54,0
2,note_on,54,54,0
2,note_on,58,54,0
2,note_on,58,0,240
2,note_on,54,0,0
2,note_on,49,0,0
2,note_on,42,63,240
2,note_on,42,0,240
2,note_on,50,51,240
2,note_on,58,51,0
2,note_on,58,0,469
2,note_on,50,0,0
2,note_on,51,54,0
2,note_on,58,54,0
2,note_on,58,0,480
2,note_on,51,0,0
2,note_on,44,45,0
2,note_on,44,0,148
2,note_on,60,34,240
2,note_on,56,34,0
2,note_on,51,34,0
2,note_on,51,0,480
2,note_on,56,0,0
2,note_on,60,0,0
2,note_on,60,37,0
2,note_on,56,37,0
2,note_on,51,37,0
2,note_on,51,0,480
2,note_on,56,0,0
2,note_on,60,0,0
2,note_on,44,45,0
2,note_on,44,0,141
2,note_on,60,34,240
2,note_on,56,34,0
2,note_on,51,34,0
2,note_on,51,0,480
2,note_on,56,0,0
2,note_on,60,0,0
2,note_on,51,38,0
2,note_on,56,38,0
2,note_on,60,38,0
2,note_on,60,0,480
2,note_on,56,0,0
2,note_on,51,0,0
2,note_on,44,49,0
2,note_on,44,0,127
2,note_on,60,36,240
2,note_on,56,36,0
2,note_on,51,36,0
2,note_on,51,0,480
2,note_on,56,0,0
2,note_on,60,0,0
2,note_on,51,40,0
2,note_on,56,40,0
2,note_on,60,40,0
2,note_on,60,0,480
2,note_on,56,0,0
2,note_on,51,0,0
2,note_on,49,52,0
2,note_on,61,45,472
2,note_on,56,45,0
2,note_on,56,0,480
2,note_on,61,0,0
2,note_on,61,45,0
2,note_on,56,45,0
2,note_on,56,0,480
2,note_on,61,0,0
2,note_on,49,0,0
2,note_on,49,60,0
2,note_on,49,0,134
2,note_on,71,50,240
2,note_on,68,50,0
2,note_on,61,50,0
2,note_on,61,0,480
2,note_on,68,0,0
2,note_on,71,0,0
2,note_on,61,56,0
2,note_on,68,56,0
2,note_on,71,56,0
2,note_on,71,0,480
2,note_on,68,0,0
2,note_on,61,0,0
2,note_on,49,60,0
2,note_on,49,0,240
2,note_on,61,47,240
2,note_on,68,47,0
2,note_on,71,47,0
2,note_on,71,0,480
2,note_on,68,0,0
2,note_on,61,0,0
2,note_on,71,53,0
2,note_on,68,53,0
2,note_on,61,53,0
2,note_on,61,0,468
2,note_on,68,0,0
2,note_on,71,0,0
2,note_on,54,60,0
2,note_on,54,0,84
2,note_on,70,56,240
2,note_on,66,56,0
2,note_on,61,56,0
2,note_on,61,0,480
2,note_on,66,0,0
2,note_on,70,0,0
2,note_on,61,60,0
2,note_on,66,60,0
2,note_on,70,60,0
2,note_on,70,0,240
2,note_on,66,0,0
2,note_on,61,0,0
2,note_on,54,67,240
2,note_on,54,0,240
2,note_on,62,61,240
2,note_on,70,61,0
2,note_on,70,0,464
2,note_on,62,0,0
2,note_on,63,62,0
2,note_on,70,62,0
2,note_on,70,0,480
2,note_on,63,0,0
2,note_on,56,45,0
2,note_on,56,0,148
2,note_on,63,35,240
2,note_on,68,35,0
2,note_on,72,35,0
2,note_on,72,0,480
2,note_on,68,0,0
2,note_on,63,0,0
2,note_on,72,38,0
2,note_on,68,38,0
2,note_on,63,38,0
2,note_on,63,0,480
2,note_on,68,0,0
2,note_on,72,0,0
2,note_on,56,44,0
2,note_on,56,0,127
2,note_on,72,35,240
2,note_on,68,35,0
2,note_on,63,35,0
2,note_on,63,0,480
2,note_on,68,0,0
2,note_on,72,0,0
2,note_on,63,36,0
2,note_on,68,36,0
2,note_on,72,36,0
2,note_on,72,0,480
2,note_on,68,0,0
2,note_on,63,0,0
2,note_on,56,46,0
2,note_on,56,0,49
2,note_on,72,36,240
2,note_on,68,36,0
2,note_on,63,36,0
2,note_on,63,0,480
2,note_on,68,0,0
2,note_on,72,0,0
2,note_on,63,38,0
2,note_on,68,38,0
2,note_on,72,38,0
2,note_on,72,0,464
2,note_on,68,0,0
2,note_on,63,0,0
2,note_on,61,45,0
2,note_on,68,45,0
2,note_on,73,45,0
2,note_on,73,0,480
2,note_on,68,0,0
2,note_on,61,0,0
2,note_on,46,50,960
2,note_on,46,0,240
2,note_on,61,42,240
2,note_on,53,42,0
2,note_on,53,0,240
2,note_on,61,0,0
2,note_on,61,46,240
2,note_on,53,46,0
2,note_on,53,0,240
2,note_on,61,0,0
2,note_on,45,50,240
2,note_on,45,0,240
2,note_on,53,45,240
2,note_on,63,45,0
2,note_on,60,45,0
2,note_on,60,0,240
2,note_on,63,0,0
2,note_on,53,0,0
2,note_on,63,39,240
2,note_on,60,39,0
2,note_on,53,39,0
2,note_on,53,0,240
2,note_on,60,0,0
2,note_on,63,0,0
2,note_on,46,50,240
2,note_on,46,0,240
2,note_on,61,47,240
2,note_on,58,47,0
2,note_on,53,47,0
2,note_on,53,0,240
2,note_on,58,0,0
2,note_on,61,0,0
2,note_on,61,53,240
2,note_on,58,53,0
2,note_on,53,53,0
2,note_on,53,0,240
2,note_on,58,0,0
2,note_on,61,0,0
2,note_on,51,56,240
2,note_on,51,0,120
2,note_on,66,49,360
2,note_on,60,49,0
2,note_on,58,49,0
2,note_on,58,0,240
2,note_on,60,0,0
2,note_on,66,0,0
2,note_on,66,50,240
2,note_on,58,50,0
2,note_on,60,50,0
2,note_on,60,0,240
2,note_on,58,0,0
2,note_on,66,0,0
2,note_on,53,56,240
2,note_on,53,0,240
2,note_on,65,46,240
2,note_on,61,46,0
2,note_on,58,46,0
2,note_on,58,0,240
2,note_on,61,0,0
2,note_on,65,0,0
2,note_on,65,50,240
2,note_on,61,50,0
2,note_on,58,50,0
2,note_on,58,0,240
2,note_on,61,0,0
2,note_on,65,0,0
2,note_on,53,50,240
2,note_on,53,0,240
2,note_on,63,46,240
2,note_on,65,46,0
2,note_on,57,46,0
2,note_on,57,0,240
2,note_on,65,0,0
2,note_on,63,0,0
2,note_on,65,48,240
2,note_on,63,48,0
2,note_on,57,48,0
2,note_on,57,0,240
2,note_on,63,0,0
2,note_on,65,0,0
2,note_on,46,50,240
2,note_on,46,0,120
2,note_on,61,47,360
2,note_on,53,47,0
2,note_on,53,0,240
2,note_on,61,0,0
2,note_on,61,47,240
2,note_on,53,47,0
2,note_on,53,0,240
2,note_on,61,0,0
2,note_on,46,50,240
2,note_on,46,0,240
2,note_on,61,47,240
2,note_on,53,47,0
2,note_on,53,0,240
2,note_on,61,0,0
2,note_on,61,47,240
2,note_on,53,47,0
2,note_on,53,0,240
2,note_on,61,0,0
2,note_on,46,53,240
2,note_on,46,0,208
2,note_on,61,49,240
2,note_on,53,49,0
2,note_on,53,0,240
2,note_on,61,0,0
2,note_on,61,52,0
2,note_on,53,52,0
2,note_on,53,0,240
2,note_on,61,0,0
2,note_on,45,55,240
2,note_on,45,0,187
2,note_on,63,54,240
2,note_on,60,54,0
2,note_on,53,54,0
2,note_on,53,0,240
2,note_on,60,0,0
2,note_on,63,0,0
2,note_on,63,60,240
2,note_on,60,60,0
2,note_on,53,60,0
2,note_on,53,0,234
2,note_on,60,0,0
2,note_on,63,0,0
2,note_on,46,68,240
2,note_on,46,0,194
2,note_on,61,62,240
2,note_on,58,62,0
2,note_on,53,62,0
2,note_on,53,0,240
2,note_on,58,0,0
2,note_on,61,0,0
2,note_on,61,56,240
2,note_on,58,56,0
2,note_on,53,56,0
2,note_on,53,0,228
2,note_on,58,0,0
2,note_on,61,0,0
2,note_on,51,60,240
2,note_on,51,0,180
2,note_on,66,56,240
2,note_on,60,56,0
2,note_on,58,56,0
2,note_on,58,0,240
2,note_on,60,0,0
2,note_on,66,0,0
2,note_on,66,57,240
2,note_on,60,57,0
2,note_on,58,57,0
2,note_on,58,0,226
2,note_on,60,0,0
2,note_on,66,0,0
2,note_on,53,56,240
2,note_on,53,0,240
2,note_on,65,52,240
2,note_on,61,52,0
2,note_on,58,52,0
2,note_on,58,0,240
2,note_on,61,0,0
2,note_on,65,0,0
2,note_on,65,52,240
2,note_on,61,52,0
2,note_on,58,52,0
2,note_on,58,0,240
2,note_on,61,0,0
2,note_on,65,0,0
2,note_on,53,53,240
2,note_on,53,0,240
2,note_on,65,49,240
2,note_on,63,49,0
2,note_on,57,49,0
2,note_on,57,0,240
2,note_on,63,0,0
2,note_on,65,0,0
2,note_on,63,53,240
2,note_on,65,53,0
2,note_on,57,53,0
2,note_on,57,0,240
2,note_on,65,0,0
2,note_on,63,0,0
2,note_on,65,58,240
2,note_on,61,58,0
2,note_on,58,58,0
2,note_on,58,0,480
2,note_on,61,0,0
2,note_on,65,0,0
2,note_on,37,54,2400
2,note_on,37,0,42
2,note_on,59,49,240
2,note_on,56,49,0
2,note_on,49,49,0
2,note_on,49,0,480
2,note_on,56,0,0
2,note_on,59,0,0
2,note_on,49,49,0
2,note_on,56,49,0
2,note_on,59,49,0
2,note_on,59,0,480
2,note_on,56,0,0
2,note_on,49,0,0
2,note_on,37,54,0
2,note_on,37,0,240
2,note_on,59,50,240
2,note_on,56,50,0
2,note_on,49,50,0
2,note_on,49,0,480
2,note_on,56,0,0
2,note_on,59,0,0
2,note_on,49,50,0
2,note_on,56,50,0
2,note_on,59,50,0
2,note_on,59,0,473
2,note_on,56,0,0
2,note_on,49,0,0
2,note_on,42,54,0
2,note_on,42,0,240
2,note_on,58,51,198
2,note_on,54,51,0
2,note_on,49,51,0
2,note_on,49,0,480
2,note_on,54,0,0
2,note_on,58,0,0
2,note_on,49,54,0
2,note_on,54,54,0
2,note_on,58,54,0
2,note_on,58,0,240
2,note_on,54,0,0
2,note_on,49,0,0
2,note_on,42,63,240
2,note_on,42,0,240
2,note_on,50,54,240
2,note_on,58,54,0
2,note_on,58,0,471
2,note_on,50,0,0
2,note_on,51,54,0
2,note_on,58,54,0
2,note_on,58,0,480
2,note_on,51,0,0
2,note_on,44,45,0
2,note_on,44,0,141
2,note_on,60,36,240
2,note_on,56,36,0
2,note_on,51,36,0
2,note_on,51,0,480
2,note_on,56,0,0
2,note_on,60,0,0
2,note_on,60,37,0
2,note_on,56,37,0
2,note_on,51,37,0
2,note_on,51,0,480
2,note_on,56,0,0
2,note_on,60,0,0
2,note_on,44,45,0
2,note_on,44,0,77
2,note_on,60,37,240
2,note_on,56,37,0
2,note_on,51,37,0
2,note_on,51,0,480
2,note_on,56,0,0
2,note_on,60,0,0
2,note_on,51,38,0
2,note_on,56,38,0
2,note_on,60,38,0
2,note_on,60,0,480
2,note_on,56,0,0
2,note_on,51,0,0
2,note_on,44,49,0
2,note_on,44,0,77
2,note_on,60,39,240
2,note_on,56,39,0
2,note_on,51,39,0
2,note_on,51,0,480
2,note_on,56,0,0
2,note_on,60,0,0
2,note_on,51,40,0
2,note_on,56,40,0
2,note_on,60,40,0
2,note_on,60,0,480
2,note_on,56,0,0
2,note_on,51,0,0
2,note_on,49,52,0
2,note_on,61,43,464
2,note_on,56,43,0
2,note_on,56,0,480
2,note_on,61,0,0
2,note_on,61,45,0
2,note_on,56,45,0
2,note_on,56,0,480
2,note_on,61,0,0
2,note_on,49,0,0
2,note_on,49,60,0
2,note_on,49,0,190
2,note_on,71,54,240
2,note_on,68,54,0
2,note_on,61,54,0
2,note_on,61,0,480
2,note_on,68,0,0
2,note_on,71,0,0
2,note_on,61,56,0
2,note_on,68,56,0
2,note_on,71,56,0
2,note_on,71,0,480
2,note_on,68,0,0
2,note_on,61,0,0
2,note_on,49,60,0
2,note_on,49,0,240
2,note_on,61,53,240
2,note_on,68,53,0
2,note_on,71,53,0
2,note_on,71,0,480
2,note_on,68,0,0
2,note_on,61,0,0
2,note_on,71,54,0
2,note_on,68,54,0
2,note_on,61,54,0
2,note_on,61,0,474
2,note_on,68,0,0
2,note_on,71,0,0
2,note_on,54,60,0
2,note_on,54,0,127
2,note_on,70,56,240
2,note_on,66,56,0
2,note_on,61,56,0
2,note_on,61,0,480
2,note_on,66,0,0
2,note_on,70,0,0
2,note_on,61,60,0
2,note_on,66,60,0
2,note_on,70,60,0
2,note_on,70,0,240
2,note_on,66,0,0
2,note_on,61,0,0
2,note_on,54,65,240
2,note_on,54,0,240
2,note_on,62,58,240
2,note_on,70,58,0
2,note_on,70,0,465
2,note_on,62,0,0
2,note_on,63,62,0
2,note_on,70,62,0
2,note_on,70,0,480
2,note_on,63,0,0
2,note_on,56,45,0
2,note_on,56,0,169
2,note_on,63,36,240
2,note_on,68,36,0
2,note_on,72,36,0
2,note_on,72,0,480
2,note_on,68,0,0
2,note_on,63,0,0
2,note_on,72,38,0
2,note_on,68,38,0
2,note_on,63,38,0
2,note_on,63,0,480
2,note_on,68,0,0
2,note_on,72,0,0
2,note_on,56,44,0
2,note_on,56,0,134
2,note_on,72,34,240
2,note_on,68,34,0
2,note_on,63,34,0
2,note_on,63,0,480
2,note_on,68,0,0
2,note_on,72,0,0
2,note_on,63,36,0
2,note_on,68,36,0
2,note_on,72,36,0
2,note_on,72,0,480
2,note_on,68,0,0
2,note_on,63,0,0
2,note_on,56,46,0
2,note_on,56,0,63
2,note_on,72,37,240
2,note_on,68,37,0
2,note_on,63,37,0
2,note_on,63,0,480
2,note_on,68,0,0
2,note_on,72,0,0
2,note_on,63,38,0
2,note_on,68,38,0
2,note_on,72,38,0
2,note_on,72,0,464
2,note_on,68,0,0
2,note_on,63,0,0
2,note_on,61,45,0
2,note_on,68,45,0
2,note_on,73,45,0
2,note_on,73,0,480
2,note_on,68,0,0
2,note_on,61,0,0
2,note_on,46,50,960
2,note_on,46,0,240
2,note_on,61,45,240
2,note_on,53,45,0
2,note_on,53,0,240
2,note_on,61,0,0
2,note_on,61,46,240
2,note_on,53,46,0
2,note_on,53,0,240
2,note_on,61,0,0
2,note_on,45,50,240
2,note_on,45,0,240
2,note_on,53,44,240
2,note_on,63,44,0
2,note_on,60,44,0
2,note_on,60,0,240
2,note_on,63,0,0
2,note_on,53,0,0
2,note_on,63,45,240
2,note_on,60,45,0
2,note_on,53,45,0
2,note_on,53,0,240
2,note_on,60,0,0
2,note_on,63,0,0
2,note_on,46,50,240
2,note_on,46,0,240
2,note_on,61,50,240
2,note_on,58,50,0
2,note_on,53,50,0
2,note_on,53,0,240
2,note_on,58,0,0
2,note_on,61,0,0
2,note_on,61,53,240
2,note_on,58,53,0
2,note_on,53,53,0
2,note_on,53,0,240
2,note_on,58,0,0
2,note_on,61,0,0
2,note_on,51,56,240
2,note_on,51,0,240
2,note_on,66,53,240
2,note_on,60,53,0
2,note_on,58,53,0
2,note_on,58,0,240
2,note_on,60,0,0
2,note_on,66,0,0
2,note_on,66,50,240
2,note_on,58,50,0
2,note_on,60,50,0
2,note_on,60,0,240
2,note_on,58,0,0
2,note_on,66,0,0
2,note_on,53,56,240
2,note_on,53,0,240
2,note_on,65,49,240
2,note_on,61,49,0
2,note_on,58,49,0
2,note_on,58,0,240
2,note_on,61,0,0
2,note_on,65,0,0
2,note_on,65,50,240
2,note_on,61,50,0
2,note_on,58,50,0
2,note_on,58,0,240
2,note_on,61,0,0
2,note_on,65,0,0
2,note_on,53,50,240
2,note_on,53,0,240
2,note_on,63,48,240
2,note_on,65,48,0
2,note_on,57,48,0
2,note_on,57,0,240
2,note_on,65,0,0
2,note_on,63,0,0
2,note_on,65,48,240
2,note_on,63,48,0
2,note_on,57,48,0
2,note_on,57,0,240
2,note_on,63,0,0
2,note_on,65,0,0
2,note_on,46,50,240
2,note_on,46,0,240
2,note_on,61,47,240
2,note_on,53,47,0
2,note_on,53,0,240
2,note_on,61,0,0
2,note_on,61,47,240
2,note_on,53,47,0
2,note_on,53,0,240
2,note_on,61,0,0
2,note_on,46,50,240
2,note_on,46,0,240
2,note_on,61,46,240
2,note_on,53,46,0
2,note_on,53,0,240
2,note_on,61,0,0
2,note_on,61,47,240
2,note_on,53,47,0
2,note_on,53,0,240
2,note_on,61,0,0
2,note_on,46,53,240
2,note_on,46,0,201
2,note_on,61,49,240
2,note_on,53,49,0
2,note_on,53,0,240
2,note_on,61,0,0
2,note_on,61,52,240
2,note_on,53,52,0
2,note_on,53,0,231
2,note_on,61,0,0
2,note_on,45,55,240
2,note_on,45,0,208
2,note_on,63,56,240
2,note_on,60,56,0
2,note_on,53,56,0
2,note_on,53,0,240
2,note_on,60,0,0
2,note_on,63,0,0
2,note_on,63,60,240
2,note_on,60,60,0
2,note_on,53,60,0
2,note_on,53,0,234
2,note_on,60,0,0
2,note_on,63,0,0
2,note_on,46,64,240
2,note_on,46,0,187
2,note_on,61,62,240
2,note_on,58,62,0
2,note_on,53,62,0
2,note_on,53,0,240
2,note_on,58,0,0
2,note_on,61,0,0
2,note_on,61,56,240
2,note_on,58,56,0
2,note_on,53,56,0
2,note_on,53,0,235
2,note_on,58,0,0
2,note_on,61,0,0
2,note_on,51,60,240
2,note_on,51,0,201
2,note_on,66,55,240
2,note_on,60,55,0
2,note_on,58,55,0
2,note_on,58,0,240
2,note_on,60,0,0
2,note_on,66,0,0
2,note_on,66,57,240
2,note_on,60,57,0
2,note_on,58,57,0
2,note_on,58,0,236
2,note_on,60,0,0
2,note_on,66,0,0
2,note_on,53,56,240
2,note_on,53,0,240
2,note_on,65,52,240
2,note_on,61,52,0
2,note_on,58,52,0
2,note_on,58,0,240
2,note_on,61,0,0
2,note_on,65,0,0
2,note_on,65,52,240
2,note_on,61,52,0
2,note_on,58,52,0
2,note_on,58,0,240
2,note_on,61,0,0
2,note_on,65,0,0
2,note_on,53,53,240
2,note_on,53,0,240
2,note_on,65,49,240
2,note_on,63,49,0
2,note_on,57,49,0
2,note_on,57,0,240
2,note_on,63,0,0
2,note_on,65,0,0
2,note_on,63,53,240
2,note_on,65,53,0
2,note_on,57,53,0
2,note_on,57,0,240
2,note_on,65,0,0
2,note_on,63,0,0
2,note_on,65,58,240
2,note_on,61,58,0
2,note_on,58,58,0
2,note_on,58,0,480
2,note_on,61,0,0
2,note_on,65,0,0
2,note_on,37,54,2400
2,note_on,37,0,141
2,note_on,59,49,240
2,note_on,56,49,0
2,note_on,49,49,0
2,note_on,49,0,480
2,note_on,56,0,0
2,note_on,59,0,0
2,note_on,49,49,0
2,note_on,56,49,0
2,note_on,59,49,0
2,note_on,59,0,480
2,note_on,56,0,0
2,note_on,49,0,0
2,note_on,37,54,0
2,note_on,37,0,240
2,note_on,59,48,240
2,note_on,56,48,0
2,note_on,49,48,0
2,note_on,49,0,480
2,note_on,56,0,0
2,note_on,59,0,0
2,note_on,49,50,0
2,note_on,56,50,0
2,note_on,59,50,0
2,note_on,59,0,469
2,note_on,56,0,0
2,note_on,49,0,0
2,note_on,42,54,0
2,note_on,42,0,84
2,note_on,58,51,240
2,note_on,54,51,0
2,note_on,49,51,0
2,note_on,49,0,480
2,note_on,54,0,0
2,note_on,58,0,0
2,note_on,49,54,0
2,note_on,54,54,0
2,note_on,58,54,0
2,note_on,58,0,240
2,note_on,54,0,0
2,note_on,49,0,0
2,note_on,42,63,240
2,note_on,42,0,240
2,note_on,50,54,240
2,note_on,58,54,0
2,note_on,58,0,464
2,note_on,50,0,0
2,note_on,51,54,0
2,note_on,58,54,0
2,note_on,58,0,480
2,note_on,51,0,0
2,note_on,44,45,0
2,note_on,44,0,191
2,note_on,60,36,240
2,note_on,56,36,0
2,note_on,51,36,0
2,note_on,51,0,480
2,note_on,56,0,0
2,note_on,60,0,0
2,note_on,60,37,0
2,note_on,56,37,0
2,note_on,51,37,0
2,note_on,51,0,480
2,note_on,56,0,0
2,note_on,60,0,0
2,note_on,44,45,0
2,note_on,44,0,99
2,note_on,60,37,240
2,note_on,56,37,0
2,note_on,51,37,0
2,note_on,51,0,480
2,note_on,56,0,0
2,note_on,60,0,0
2,note_on,51,38,0
2,note_on,56,38,0
2,note_on,60,38,0
2,note_on,60,0,480
2,note_on,56,0,0
2,note_on,51,0,0
2,note_on,44,49,0
2,note_on,44,0,84
2,note_on,60,39,240
2,note_on,56,39,0
2,note_on,51,39,0
2,note_on,51,0,480
2,note_on,56,0,0
2,note_on,60,0,0
2,note_on,51,40,0
2,note_on,56,40,0
2,note_on,60,40,0
2,note_on,60,0,473
2,note_on,56,0,0
2,note_on,51,0,0
2,note_on,49,52,0
2,note_on,61,42,480
2,note_on,56,42,0
2,note_on,56,0,480
2,note_on,61,0,0
2,note_on,61,45,0
2,note_on,56,45,0
2,note_on,56,0,480
2,note_on,61,0,0
2,note_on,49,0,0
2,note_on,49,60,0
2,note_on,49,0,205
2,note_on,71,53,240
2,note_on,68,53,0
2,note_on,61,53,0
2,note_on,61,0,480
2,note_on,68,0,0
2,note_on,71,0,0
2,note_on,61,56,0
2,note_on,68,56,0
2,note_on,71,56,0
2,note_on,71,0,480
2,note_on,68,0,0
2,note_on,61,0,0
2,note_on,49,60,0
2,note_on,49,0,240
2,note_on,61,53,240
2,note_on,68,53,0
2,note_on,71,53,0
2,note_on,71,0,480
2,note_on,68,0,0
2,note_on,61,0,0
2,note_on,71,54,0
2,note_on,68,54,0
2,note_on,61,54,0
2,note_on,61,0,468
2,note_on,68,0,0
2,note_on,71,0,0
2,note_on,54,60,0
2,note_on,54,0,184
2,note_on,70,56,240
2,note_on,66,56,0
2,note_on,61,56,0
2,note_on,61,0,480
2,note_on,66,0,0
2,note_on,70,0,0
2,note_on,61,60,0
2,note_on,66,60,0
2,note_on,70,60,0
2,note_on,70,0,240
2,note_on,66,0,0
2,note_on,61,0,0
2,note_on,54,67,240
2,note_on,54,0,240
2,note_on,62,61,240
2,note_on,70,61,0
2,note_on,70,0,470
2,note_on,62,0,0
2,note_on,63,62,0
2,note_on,70,62,0
2,note_on,70,0,480
2,note_on,63,0,0
2,note_on,56,45,0
2,note_on,56,0,155
2,note_on,63,36,240
2,note_on,68,36,0
2,note_on,72,36,0
2,note_on,72,0,480
2,note_on,68,0,0
2,note_on,63,0,0
2,note_on,72,38,0
2,note_on,68,38,0
2,note_on,63,38,0
2,note_on,63,0,480
2,note_on,68,0,0
2,note_on,72,0,0
2,note_on,56,44,0
2,note_on,56,0,120
2,note_on,72,36,240
2,note_on,68,36,0
2,note_on,63,36,0
2,note_on,63,0,480
2,note_on,68,0,0
2,note_on,72,0,0
2,note_on,63,36,0
2,note_on,68,36,0
2,note_on,72,36,0
2,note_on,72,0,480
2,note_on,68,0,0
2,note_on,63,0,0
2,note_on,56,46,0
2,note_on,56,0,113
2,note_on,72,38,240
2,note_on,68,38,0
2,note_on,63,38,0
2,note_on,63,0,480
2,note_on,68,0,0
2,note_on,72,0,0
2,note_on,63,38,0
2,note_on,68,38,0
2,note_on,72,38,0
2,note_on,72,0,465
2,note_on,68,0,0
2,note_on,63,0,0
2,note_on,61,45,0
2,note_on,68,45,0
2,note_on,73,45,0
2,note_on,73,0,480
2,note_on,68,0,0
2,note_on,61,0,0
2,note_on,46,32,960
2,note_on,61,36,480
2,note_on,54,36,0
2,note_on,54,0,480
2,note_on,61,0,0
2,note_on,61,36,0
2,note_on,54,36,0
2,note_on,54,0,480
2,note_on,61,0,0
2,note_on,46,0,0
2,note_on,47,38,0
2,note_on,47,0,343
2,note_on,63,35,0
2,note_on,56,35,0
2,note_on,54,35,0
2,note_on,54,0,480
2,note_on,56,0,0
2,note_on,63,0,0
2,note_on,63,35,0
2,note_on,56,35,0
2,note_on,54,35,0
2,note_on,54,0,473
2,note_on,56,0,0
2,note_on,63,0,0
2,note_on,46,30,0
2,note_on,59,24,480
2,note_on,53,24,0
2,note_on,53,0,480
2,note_on,59,0,0
2,note_on,59,30,0
2,note_on,53,30,0
2,note_on,53,0,480
2,note_on,59,0,0
2,note_on,46,0,0
2,note_on,42,30,0
2,note_on,42,0,381
2,note_on,58,29,0
2,note_on,49,29,0
2,note_on,49,0,465
2,note_on,58,0,0
2,note_on,49,34,0
2,note_on,58,34,0
2,note_on,58,0,480
2,note_on,49,0,0
2,note_on,46,37,0
2,note_on,61,29,480
2,note_on,54,29,0
2,note_on,54,0,480
2,note_on,61,0,0
2,note_on,61,35,0
2,note_on,54,35,0
2,note_on,54,0,480
2,note_on,61,0,0
2,note_on,46,0,0
2,note_on,47,29,0
2,note_on,47,0,274
2,note_on,63,29,0
2,note_on,56,29,0
2,note_on,54,29,0
2,note_on,54,0,480
2,note_on,56,0,0
2,note_on,63,0,0
2,note_on,54,36,0
2,note_on,56,36,0
2,note_on,63,36,0
2,note_on,63,0,464
2,note_on,56,0,0
2,note_on,54,0,0
2,note_on,49,36,0
2,note_on,59,19,480
2,note_on,53,19,0
2,note_on,53,0,480
2,note_on,59,0,0
2,note_on,53,26,0
2,note_on,59,26,0
2,note_on,59,0,480
2,note_on,53,0,0
2,note_on,49,0,0
2,note_on,42,27,0
2,note_on,42,0,480
2,note_on,58,32,0
2,note_on,49,32,0
2,note_on,49,0,480
2,note_on,58,0,0
2,note_on,49,34,0
2,note_on,58,34,0
2,note_on,58,0,480
2,note_on,49,0,0
2,note_on,46,28,0
2,note_on,61,28,480
2,note_on,54,28,0
2,note_on,54,0,480
2,note_on,61,0,0
2,note_on,61,37,0
2,note_on,54,37,0
2,note_on,54,0,480
2,note_on,61,0,0
2,note_on,46,0,0
2,note_on,47,33,0
2,note_on,47,0,297
2,note_on,55,30,0
2,note_on,63,30,0
2,note_on,63,0,480
2,note_on,55,0,0
2,note_on,56,33,0
2,note_on,63,33,0
2,note_on,63,0,476
2,note_on,56,0,0
2,note_on,49,25,0
2,note_on,59,20,480
2,note_on,53,20,0
2,note_on,53,0,480
2,note_on,59,0,0
2,note_on,53,29,0
2,note_on,59,29,0
2,note_on,59,0,480
2,note_on,53,0,0
2,note_on,49,0,0
2,note_on,42,34,0
2,note_on,42,0,430
2,note_on,49,28,0
2,note_on,58,28,0
2,note_on,58,0,469
2,note_on,49,0,0
2,note_on,58,33,0
2,note_on,49,33,0
2,note_on,49,0,480
2,note_on,58,0,0
2,note_on,46,38,0
2,note_on,61,28,480
2,note_on,54,28,0
2,note_on,54,0,480
2,note_on,61,0,0
2,note_on,54,28,0
2,note_on,61,28,0
2,note_on,61,0,480
2,note_on,54,0,0
2,note_on,46,0,0
2,note_on,47,35,0
2,note_on,47,0,274
2,note_on,63,30,0
2,note_on,56,30,0
2,note_on,54,30,0
2,note_on,54,0,480
2,note_on,56,0,0
2,note_on,63,0,0
2,note_on,63,28,0
2,note_on,56,28,0
2,note_on,54,28,0
2,note_on,54,0,471
2,note_on,56,0,0
2,note_on,63,0,0
2,note_on,49,26,0
2,note_on,59,26,480
2,note_on,53,26,0
2,note_on,53,0,480
2,note_on,59,0,0
2,note_on,53,25,0
2,note_on,59,25,0
2,note_on,59,0,480
2,note_on,53,0,0
2,note_on,49,0,0
2,note_on,42,30,0
2,note_on,42,0,480
2,note_on,58,27,0
2,note_on,49,27,0
2,note_on,49,0,480
2,note_on,58,0,0
2,note_on,34,35,480
2,note_on,46,35,0
2,note_on,46,0,240
2,note_on,34,0,0
2,note_on,56,37,720
2,note_on,58,37,0
2,note_on,65,37,0
2,note_on,65,0,480
2,note_on,58,0,0
2,note_on,56,0,0
2,note_on,55,32,0
2,note_on,58,32,0
2,note_on,64,32,0
2,note_on,64,0,240
2,note_on,58,0,0
2,note_on,55,0,0
2,note_on,54,36,720
2,note_on,58,36,0
2,note_on,63,36,0
2,note_on,63,0,480
2,note_on,58,0,0
2,note_on,54,0,0
2,note_on,53,32,0
2,note_on,58,32,0
2,note_on,62,32,0
2,note_on,62,0,240
2,note_on,58,0,0
2,note_on,53,0,0
2,note_on,34,82,240
2,note_on,46,82,0
2,note_on,46,0,85
2,note_on,34,0,0
2,note_on,34,78,120
2,note_on,46,78,0
2,note_on,46,0,120
2,note_on,34,0,0
2,note_on,34,82,120
2,note_on,46,82,0
2,note_on,46,0,240
2,note_on,34,0,0
2,note_on,34,82,240
2,note_on,46,82,0
2,note_on,46,0,120
2,note_on,34,0,0
2,note_on,34,78,120
2,note_on,46,78,0
2,note_on,46,0,120
2,note_on,34,0,0
2,note_on,34,82,120
2,note_on,46,82,0
2,note_on,46,0,240
2,note_on,34,0,0
2,note_on,34,82,240
2,note_on,46,82,0
2,note_on,46,0,120
2,note_on,34,0,0
2,note_on,34,78,120
2,note_on,46,78,0
2,note_on,46,0,120
2,note_on,34,0,0
2,note_on,34,82,120
2,note_on,46,82,0
2,note_on,46,0,226
2,note_on,34,0,0
2,note_on,46,39,720
2,note_on,56,39,0
2,note_on,56,0,480
2,note_on,46,0,0
2,note_on,46,36,0
2,note_on,55,36,0
2,note_on,55,0,240
2,note_on,46,0,0
2,note_on,54,39,720
2,note_on,46,39,0
2,note_on,46,0,480
2,note_on,54,0,0
2,note_on,46,36,0
2,note_on,53,36,0
2,note_on,53,0,240
2,note_on,46,0,0
2,note_on,34,95,2287
2,note_on,46,95,0
2,note_on,46,0,240
2,note_on,34,0,0
2,note_on,68,54,240
2,note_on,65,54,0
2,note_on,58,54,0
2,note_on,58,0,360
2,note_on,65,0,0
2,note_on,68,0,0
2,note_on,68,62,120
2,note_on,65,62,0
2,note_on,58,62,0
2,note_on,58,0,354
2,note_on,65,0,0
2,note_on,68,0,0
2,note_on,39,95,120
2,note_on,51,95,0
2,note_on,51,0,127
2,note_on,39,0,0
2,note_on,67,57,240
2,note_on,63,57,0
2,note_on,58,57,0
2,note_on,58,0,360
2,note_on,63,0,0
2,note_on,67,0,0
2,note_on,67,61,120
2,note_on,63,61,0
2,note_on,58,61,0
2,note_on,58,0,351
2,note_on,63,0,0
2,note_on,67,0,0
2,note_on,46,96,120
2,note_on,58,96,0
2,note_on,58,0,113
2,note_on,46,0,0
2,note_on,68,60,240
2,note_on,65,60,0
2,note_on,58,60,0
2,note_on,58,0,360
2,note_on,65,0,0
2,note_on,68,0,0
2,note_on,68,67,120
2,note_on,65,67,0
2,note_on,58,67,0
2,note_on,58,0,344
2,note_on,65,0,0
2,note_on,68,0,0
2,note_on,51,97,120
2,note_on,51,0,137
2,note_on,67,71,240
2,note_on,61,71,0
2,note_on,58,71,0
2,note_on,58,0,240
2,note_on,61,0,0
2,note_on,67,0,0
2,note_on,52,92,240
2,note_on,52,0,222
2,note_on,53,60,240
2,note_on,53,0,240
2,note_on,65,47,240
2,note_on,56,47,0
2,note_on,56,0,240
2,note_on,65,0,0
2,note_on,44,53,240
2,note_on,44,0,240
2,note_on,46,55,240
2,note_on,46,0,113
2,note_on,63,44,240
2,note_on,55,44,0
2,note_on,55,0,360
2,note_on,63,0,0
2,note_on,63,51,120
2,note_on,55,51,0
2,note_on,55,0,225
2,note_on,63,0,0
2,note_on,46,54,240
2,note_on,46,0,184
2,note_on,62,41,240
2,note_on,53,41,0
2,note_on,53,0,480
2,note_on,62,0,0
2,note_on,62,49,0
2,note_on,58,49,0
2,note_on,58,0,224
2,note_on,62,0,0
2,note_on,51,51,240
2,note_on,63,38,381
2,note_on,58,38,0
2,note_on,58,0,360
2,note_on,63,0,0
2,note_on,63,47,0
2,note_on,58,47,0
2,note_on,58,0,240
2,note_on,63,0,0
2,note_on,51,0,240
2,note_on,58,95,0
2,note_on,46,95,0
2,note_on,68,54,324
2,note_on,65,54,0
2,note_on,58,54,0
2,note_on,46,0,240
2,note_on,58,0,0
2,note_on,65,0,120
2,note_on,68,0,0
2,note_on,58,0,0
2,note_on,68,58,120
2,note_on,65,58,0
2,note_on,58,58,0
2,note_on,58,0,346
2,note_on,65,0,0
2,note_on,68,0,0
2,note_on,39,94,120
2,note_on,51,94,0
2,note_on,67,64,367
2,note_on,63,64,0
2,note_on,58,64,0
2,note_on,51,0,240
2,note_on,39,0,0
2,note_on,63,0,120
2,note_on,67,0,0
2,note_on,58,0,0
2,note_on,67,69,120
2,note_on,63,69,0
2,note_on,58,69,0
2,note_on,58,0,352
2,note_on,63,0,0
2,note_on,67,0,0
2,note_on,58,95,120
2,note_on,46,95,0
2,note_on,68,66,388
2,note_on,65,66,0
2,note_on,58,66,0
2,note_on,46,0,240
2,note_on,58,0,0
2,note_on,65,0,120
2,note_on,68,0,0
2,note_on,58,0,0
2,note_on,68,70,120
2,note_on,65,70,0
2,note_on,58,70,0
2,note_on,58,0,352
2,note_on,65,0,0
2,note_on,68,0,0
2,note_on,51,78,120
2,note_on,51,0,240
2,note_on,67,48,240
2,note_on,61,48,0
2,note_on,58,48,0
2,note_on,58,0,240
2,note_on,61,0,0
2,note_on,67,0,0
2,note_on,52,49,240
2,note_on,52,0,480
2,note_on,53,43,0
2,note_on,53,0,240
2,note_on,56,49,240
2,note_on,65,49,0
2,note_on,65,0,240
2,note_on,56,0,0
2,note_on,44,37,240
2,note_on,44,0,240
2,note_on,46,43,240
2,note_on,46,0,155
2,note_on,55,31,240
2,note_on,63,31,0
2,note_on,63,0,360
2,note_on,55,0,0
2,note_on,63,41,120
2,note_on,55,41,0
2,note_on,55,0,226
2,note_on,63,0,0
2,note_on,46,33,240
2,note_on,46,0,155
2,note_on,53,40,240
2,note_on,62,40,0
2,note_on,62,0,480
2,note_on,53,0,0
2,note_on,62,27,0
2,note_on,58,27,0
2,note_on,62,0,470
2,note_on,63,44,0
2,note_on,51,44,0
2,note_on,51,0,480
2,note_on,63,0,0
2,note_on,58,0,0
2,note_on,51,52,480
2,note_on,55,52,0
2,note_on,61,52,0
2,note_on,61,0,480
2,note_on,55,0,0
2,note_on,51,0,0
2,note_on,44,25,0
2,note_on,56,33,374
2,note_on,60,33,0
2,note_on,51,33,0
2,note_on,44,0,240
2,note_on,56,0,120
2,note_on,60,0,0
2,note_on,51,0,0
2,note_on,60,41,120
2,note_on,51,41,0
2,note_on,56,41,0
2,note_on,56,0,360
2,note_on,51,0,0
2,note_on,60,0,0
2,note_on,44,33,120
2,note_on,44,0,480
2,note_on,56,33,0
2,note_on,60,33,0
2,note_on,51,33,0
2,note_on,51,0,360
2,note_on,60,0,0
2,note_on,56,0,0
2,note_on,56,37,120
2,note_on,51,37,0
2,note_on,60,37,0
2,note_on,60,0,352
2,note_on,51,0,0
2,note_on,56,0,0
2,note_on,44,37,120
2,note_on,44,0,409
2,note_on,56,26,0
2,note_on,50,26,0
2,note_on,59,26,0
2,note_on,59,0,360
2,note_on,50,0,0
2,note_on,56,0,0
2,note_on,56,32,120
2,note_on,50,32,0
2,note_on,59,32,0
2,note_on,59,0,351
2,note_on,50,0,0
2,note_on,56,0,0
2,note_on,44,38,120
2,note_on,44,0,343
2,note_on,60,29,0
2,note_on,51,29,0
2,note_on,56,29,0
2,note_on,56,0,360
2,note_on,51,0,0
2,note_on,60,0,0
2,note_on,56,48,120
2,note_on,51,48,0
2,note_on,60,48,0
2,note_on,60,0,347
2,note_on,51,0,0
2,note_on,56,0,0
2,note_on,50,55,120
2,note_on,50,0,374
2,note_on,65,24,0
2,note_on,56,24,0
2,note_on,59,24,0
2,note_on,59,0,360
2,note_on,56,0,0
2,note_on,65,0,0
2,note_on,65,36,120
2,note_on,56,36,0
2,note_on,59,36,0
2,note_on,59,0,346
2,note_on,56,0,0
2,note_on,65,0,0
2,note_on,51,44,120
2,note_on,51,0,430
2,note_on,63,32,0
2,note_on,60,32,0
2,note_on,68,32,0
2,note_on,68,0,360
2,note_on,60,0,0
2,note_on,63,0,0
2,note_on,60,42,120
2,note_on,68,42,0
2,note_on,63,42,0
2,note_on,63,0,233
2,note_on,68,0,0
2,note_on,60,0,0
2,note_on,51,20,240
2,note_on,51,0,297
2,note_on,63,20,0
2,note_on,61,20,0
2,note_on,67,20,0
2,note_on,67,0,360
2,note_on,61,0,0
2,note_on,63,0,0
2,note_on,63,30,120
2,note_on,61,30,0
2,note_on,67,30,0
2,note_on,67,0,229
2,note_on,61,0,0
2,note_on,63,0,0
2,note_on,56,34,240
2,note_on,63,23,353
2,note_on,60,23,0
2,note_on,68,23,0
2,note_on,68,0,360
2,note_on,60,0,0
2,note_on,63,0,0
2,note_on,63,38,120
2,note_on,60,38,0
2,note_on,68,38,0
2,note_on,68,0,240
2,note_on,56,0,0
2,note_on,63,0,0
2,note_on,60,0,0
2,note_on,44,34,240
2,note_on,44,0,367
2,note_on,60,31,0
2,note_on,51,31,0
2,note_on,56,31,0
2,note_on,56,0,360
2,note_on,51,0,0
2,note_on,60,0,0
2,note_on,56,49,120
2,note_on,51,49,0
2,note_on,60,49,0
2,note_on,60,0,360
2,note_on,51,0,0
2,note_on,56,0,0
2,note_on,44,47,120
2,note_on,44,0,480
2,note_on,60,35,0
2,note_on,51,35,0
2,note_on,56,35,0
2,note_on,56,0,360
2,note_on,51,0,0
2,note_on,60,0,0
2,note_on,51,52,120
2,note_on,60,52,0
2,note_on,56,52,0
2,note_on,56,0,348
2,note_on,60,0,0
2,note_on,51,0,0
2,note_on,44,40,120
2,note_on,44,0,409
2,note_on,56,35,0
2,note_on,59,35,0
2,note_on,50,35,0
2,note_on,50,0,360
2,note_on,59,0,0
2,note_on,56,0,0
2,note_on,50,31,120
2,note_on,59,31,0
2,note_on,56,31,0
2,note_on,56,0,349
2,note_on,59,0,0
2,note_on,50,0,0
2,note_on,44,38,120
2,note_on,44,0,320
2,note_on,56,30,0
2,note_on,60,30,0
2,note_on,51,30,0
2,note_on,51,0,360
2,note_on,60,0,0
2,note_on,56,0,0
2,note_on,56,36,120
2,note_on,60,36,0
2,note_on,51,36,0
2,note_on,51,0,343
2,note_on,60,0,0
2,note_on,56,0,0
2,note_on,50,38,120
2,note_on,50,0,388
2,note_on,59,33,0
2,note_on,56,33,0
2,note_on,65,33,0
2,note_on,65,0,360
2,note_on,56,0,0
2,note_on,59,0,0
2,note_on,59,36,120
2,note_on,65,36,0
2,note_on,56,36,0
2,note_on,56,0,352
2,note_on,65,0,0
2,note_on,59,0,0
2,note_on,51,44,120
2,note_on,51,0,353
2,note_on,60,29,0
2,note_on,68,29,0
2,note_on,63,29,0
2,note_on,63,0,360
2,note_on,68,0,0
2,note_on,60,0,0
2,note_on,63,44,120
2,note_on,68,44,0
2,note_on,60,44,0
2,note_on,60,0,226
2,note_on,68,0,0
2,note_on,63,0,0
2,note_on,51,27,240
2,note_on,51,0,274
2,note_on,61,32,0
2,note_on,67,32,0
2,note_on,63,32,0
2,note_on,63,0,480
2,note_on,67,0,0
2,note_on,61,0,0
2,note_on,61,37,0
2,note_on,67,37,0
2,note_on,63,37,0
2,note_on,63,0,226
2,note_on,67,0,0
2,note_on,61,0,0
2,note_on,56,44,240
2,note_on,68,35,434
2,note_on,60,35,0
2,note_on,60,0,480
2,note_on,68,0,0
2,note_on,68,47,0
2,note_on,65,47,0
2,note_on,65,0,417
2,note_on,68,0,0
2,note_on,56,0,0
2,note_on,58,86,0
2,note_on,46,86,0
2,note_on,46,0,296
2,note_on,58,0,0
2,note_on,65,55,0
2,note_on,68,55,0
2,note_on,58,55,0
2,note_on,58,0,360
2,note_on,68,0,0
2,note_on,65,0,0
2,note_on,68,65,120
2,note_on,58,65,0
2,note_on,65,65,0
2,note_on,65,0,345
2,note_on,58,0,0
2,note_on,68,0,0
2,note_on,51,74,120
2,note_on,51,0,381
2,note_on,63,57,0
2,note_on,67,57,0
2,note_on,58,57,0
2,note_on,58,0,360
2,note_on,67,0,0
2,note_on,63,0,0
2,note_on,63,62,120
2,note_on,67,62,0
2,note_on,58,62,0
2,note_on,58,0,356
2,note_on,67,0,0
2,note_on,63,0,0
2,note_on,50,65,120
2,note_on,50,0,395
2,note_on,65,56,0
2,note_on,58,56,0
2,note_on,68,56,0
2,note_on,68,0,360
2,note_on,58,0,0
2,note_on,65,0,0
2,note_on,65,69,120
2,note_on,68,69,0
2,note_on,58,69,0
2,note_on,58,0,353
2,note_on,68,0,0
2,note_on,65,0,0
2,note_on,51,61,120
2,note_on,51,0,149
2,note_on,67,61,240
2,note_on,58,61,0
2,note_on,61,61,0
2,note_on,61,0,240
2,note_on,58,0,0
2,note_on,67,0,0
2,note_on,52,38,240
2,note_on,52,0,474
2,note_on,53,38,0
2,note_on,53,0,84
2,note_on,65,41,240
2,note_on,56,41,0
2,note_on,56,0,240
2,note_on,65,0,0
2,note_on,44,36,240
2,note_on,44,0,224
2,note_on,46,31,240
2,note_on,46,0,134
2,note_on,55,27,240
2,note_on,63,27,0
2,note_on,63,0,360
2,note_on,55,0,0
2,note_on,55,41,120
2,note_on,63,41,0
2,note_on,63,0,212
2,note_on,55,0,0
2,note_on,46,39,240
2,note_on,46,0,84
2,note_on,53,26,240
2,note_on,62,26,0
2,note_on,62,0,480
2,note_on,53,0,0
2,note_on,58,34,0
2,note_on,62,34,0
2,note_on,62,0,228
2,note_on,58,0,0
2,note_on,51,23,240
2,note_on,58,33,353
2,note_on,63,33,0
2,note_on,63,0,480
2,note_on,58,0,0
2,note_on,58,53,0
2,note_on,63,53,0
2,note_on,63,0,231
2,note_on,58,0,0
2,note_on,51,0,240
2,note_on,34,91,0
2,note_on,46,91,0
2,note_on,46,0,353
2,note_on,34,0,0
2,note_on,65,54,0
2,note_on,68,54,0
2,note_on,58,54,0
2,note_on,58,0,360
2,note_on,68,0,0
2,note_on,65,0,0
2,note_on,68,58,120
2,note_on,58,58,0
2,note_on,65,58,0
2,note_on,65,0,355
2,note_on,58,0,0
2,note_on,68,0,0
2,note_on,51,92,120
2,note_on,39,92,0
2,note_on,39,0,339
2,note_on,51,0,0
2,note_on,63,58,0
2,note_on,67,58,0
2,note_on,58,58,0
2,note_on,58,0,360
2,note_on,67,0,0
2,note_on,63,0,0
2,note_on,67,64,120
2,note_on,63,64,0
2,note_on,58,64,0
2,note_on,58,0,348
2,note_on,63,0,0
2,note_on,67,0,0
2,note_on,58,91,120
2,note_on,46,91,0
2,note_on,46,0,367
2,note_on,58,0,0
2,note_on,68,66,0
2,note_on,58,66,0
2,note_on,65,66,0
2,note_on,65,0,360
2,note_on,58,0,0
2,note_on,68,0,0
2,note_on,68,72,120
2,note_on,65,72,0
2,note_on,58,72,0
2,note_on,58,0,346
2,note_on,65,0,0
2,note_on,68,0,0
2,note_on,67,90,120
2,note_on,51,90,0
2,note_on,61,90,0
2,note_on,58,90,0
2,note_on,58,0,343
2,note_on,67,0,0
2,note_on,51,0,0
2,note_on,61,0,0
2,note_on,52,40,480
2,note_on,52,0,480
2,note_on,53,48,0
2,note_on,53,0,28
2,note_on,65,44,240
2,note_on,56,44,0
2,note_on,56,0,240
2,note_on,65,0,0
2,note_on,44,44,240
2,note_on,44,0,226
2,note_on,46,39,240
2,note_on,46,0,155
2,note_on,63,36,240
2,note_on,55,36,0
2,note_on,55,0,480
2,note_on,63,0,0
2,note_on,63,36,0
2,note_on,55,36,0
2,note_on,55,0,466
2,note_on,63,0,0
2,note_on,46,35,0
2,note_on,46,0,42
2,note_on,62,32,240
2,note_on,58,32,0
2,note_on,53,32,0
2,note_on,53,0,480
2,note_on,58,0,0
2,note_on,62,0,0
2,note_on,53,32,0
2,note_on,62,30,0
2,note_on,58,30,0
2,note_on,58,0,466
2,note_on,62,0,0
2,note_on,53,0,0
2,note_on,39,33,0
2,note_on,39,0,400
2,note_on,46,29,0
2,note_on,55,29,0
2,note_on,55,0,480
2,note_on,46,0,0
2,note_on,46,31,0
2,note_on,55,31,0
2,note_on,55,0,480
2,note_on,46,0,0
2,note_on,39,32,0
2,note_on,39,0,480
2,note_on,55,29,0
2,note_on,46,29,0
2,note_on,46,0,480
2,note_on,55,0,0
2,note_on,46,31,0
2,note_on,55,31,0
2,note_on,55,0,480
2,note_on,46,0,0
2,note_on,39,34,0
2,note_on,39,0,480
2,note_on,46,29,0
2,note_on,55,29,0
2,note_on,55,0,480
2,note_on,46,0,0
2,note_on,55,32,0
2,note_on,46,32,0
2,note_on,46,0,480
2,note_on,55,0,0
2,note_on,39,33,0
2,note_on,39,0,480
2,note_on,55,30,0
2,note_on,46,30,0
2,note_on,46,0,480
2,note_on,55,0,0
2,note_on,46,32,0
2,note_on,55,32,0
2,note_on,55,0,480
2,note_on,46,0,0
2,note_on,39,33,0
2,note_on,39,0,480
2,note_on,55,29,0
2,note_on,46,29,0
2,note_on,46,0,480
2,note_on,55,0,0
2,note_on,46,31,0
2,note_on,55,31,0
2,note_on,55,0,480
2,note_on,46,0,0
2,note_on,39,33,0
2,note_on,39,0,480
2,note_on,46,30,0
2,note_on,55,30,0
2,note_on,55,0,360
2,note_on,46,0,0
2,note_on,55,30,120
2,note_on,46,30,0
2,note_on,46,0,350
2,note_on,55,0,0
2,note_on,39,36,120
2,note_on,39,0,480
2,note_on,61,33,0
2,note_on,55,33,0
2,note_on,51,33,0
2,note_on,51,0,360
2,note_on,55,0,0
2,note_on,61,0,0
2,note_on,61,30,120
2,note_on,55,30,0
2,note_on,51,30,0
2,note_on,51,0,360
2,note_on,55,0,0
2,note_on,61,0,0
2,note_on,51,33,120
2,note_on,55,33,0
2,note_on,61,33,0
2,note_on,61,0,360
2,note_on,55,0,0
2,note_on,51,0,0
2,note_on,61,29,120
2,note_on,55,29,0
2,note_on,51,29,0
2,note_on,51,0,360
2,note_on,55,0,0
2,note_on,61,0,0
2,note_on,51,29,120
2,note_on,55,29,0
2,note_on,61,29,0
2,note_on,61,0,360
2,note_on,55,0,0
2,note_on,51,0,0
2,note_on,39,36,120
2,note_on,39,0,374
2,note_on,56,31,0
2,note_on,60,31,0
2,note_on,51,31,0
2,note_on,51,0,360
2,note_on,60,0,0
2,note_on,56,0,0
2,note_on,60,31,120
2,note_on,51,31,0
2,note_on,56,31,0
2,note_on,56,0,360
2,note_on,51,0,0
2,note_on,60,0,0
2,note_on,39,36,120
2,note_on,39,0,480
2,note_on,60,33,0
2,note_on,51,33,0
2,note_on,56,33,0
2,note_on,56,0,360
2,note_on,51,0,0
2,note_on,60,0,0
2,note_on,60,33,120
2,note_on,56,33,0
2,note_on,51,33,0
2,note_on,51,0,352
2,note_on,56,0,0
2,note_on,60,0,0
2,note_on,39,39,120
2,note_on,39,0,480
2,note_on,60,36,0
2,note_on,56,36,0
2,note_on,51,36,0
2,note_on,51,0,360
2,note_on,56,0,0
2,note_on,60,0,0
2,note_on,60,33,120
2,note_on,56,33,0
2,note_on,51,33,0
2,note_on,51,0,360
2,note_on,56,0,0
2,note_on,60,0,0
2,note_on,51,36,120
2,note_on,56,36,0
2,note_on,60,36,0
2,note_on,60,0,360
2,note_on,56,0,0
2,note_on,51,0,0
2,note_on,60,31,120
2,note_on,56,31,0
2,note_on,51,31,0
2,note_on,51,0,360
2,note_on,56,0,0
2,note_on,60,0,0
2,note_on,51,31,120
2,note_on,56,31,0
2,note_on,60,31,0
2,note_on,60,0,360
2,note_on,56,0,0
2,note_on,51,0,0
2,note_on,51,39,120
2,note_on,39,39,0
2,note_on,39,0,191
2,note_on,51,0,0
2,note_on,51,32,0
2,note_on,56,32,0
2,note_on,62,32,0
2,note_on,62,0,180
2,note_on,56,0,0
2,note_on,51,0,0
2,note_on,51,34,60
2,note_on,56,34,0
2,note_on,62,34,0
2,note_on,62,0,180
2,note_on,56,0,0
2,note_on,51,0,0
2,note_on,39,39,60
2,note_on,51,39,0
2,note_on,51,0,240
2,note_on,39,0,0
2,note_on,51,35,0
2,note_on,56,35,0
2,note_on,62,35,0
2,note_on,62,0,180
2,note_on,56,0,0
2,note_on,51,0,0
2,note_on,62,36,60
2,note_on,56,36,0
2,note_on,51,36,0
2,note_on,51,0,180
2,note_on,56,0,0
2,note_on,62,0,0
2,note_on,39,40,60
2,note_on,51,40,0
2,note_on,51,0,211
2,note_on,39,0,0
2,note_on,62,39,0
2,note_on,59,39,0
2,note_on,56,39,0
2,note_on,51,39,0
2,note_on,51,0,180
2,note_on,62,0,0
2,note_on,59,0,0
2,note_on,56,0,0
2,note_on,62,44,60
2,note_on,59,44,0
2,note_on,56,44,0
2,note_on,51,44,0
2,note_on,51,0,180
2,note_on,62,0,0
2,note_on,59,0,0
2,note_on,56,0,0
2,note_on,62,46,60
2,note_on,59,46,0
2,note_on,56,46,0
2,note_on,51,46,0
2,note_on,51,0,180
2,note_on,62,0,0
2,note_on,59,0,0
2,note_on,56,0,0
2,note_on,62,46,60
2,note_on,59,46,0
2,note_on,56,46,0
2,note_on,51,46,0
2,note_on,51,0,180
2,note_on,62,0,0
2,note_on,59,0,0
2,note_on,56,0,0
2,note_on,62,50,60
2,note_on,59,50,0
2,note_on,56,50,0
2,note_on,51,50,0
2,note_on,51,0,180
2,note_on,62,0,0
2,note_on,59,0,0
2,note_on,56,0,0
2,note_on,62,47,60
2,note_on,59,47,0
2,note_on,56,47,0
2,note_on,51,47,0
2,note_on,51,0,180
2,note_on,62,0,0
2,note_on,59,0,0
2,note_on,56,0,0
2,note_on,62,38,60
2,note_on,59,38,0
2,note_on,56,38,0
2,note_on,51,38,0
2,note_on,51,0,180
2,note_on,62,0,0
2,note_on,59,0,0
2,note_on,56,0,0
2,note_on,62,45,60
2,note_on,59,45,0
2,note_on,56,45,0
2,note_on,51,45,0
2,note_on,51,0,180
2,note_on,62,0,0
2,note_on,59,0,0
2,note_on,56,0,0
2,note_on,62,47,60
2,note_on,59,47,0
2,note_on,56,47,0
2,note_on,51,47,0
2,note_on,51,0,180
2,note_on,62,0,0
2,note_on,59,0,0
2,note_on,56,0,0
2,note_on,62,38,60
2,note_on,59,38,0
2,note_on,56,38,0
2,note_on,51,38,0
2,note_on,51,0,180
2,note_on,62,0,0
2,note_on,59,0,0
2,note_on,56,0,0
2,note_on,62,45,60
2,note_on,59,45,0
2,note_on,56,45,0
2,note_on,51,45,0
2,note_on,51,0,180
2,note_on,62,0,0
2,note_on,59,0,0
2,note_on,56,0,0
2,note_on,62,45,60
2,note_on,58,45,0
2,note_on,56,45,0
2,note_on,51,45,0
2,note_on,51,0,180
2,note_on,62,0,0
2,note_on,58,0,0
2,note_on,56,0,0
2,note_on,62,43,60
2,note_on,58,43,0
2,note_on,56,43,0
2,note_on,51,43,0
2,note_on,51,0,180
2,note_on,62,0,0
2,note_on,58,0,0
2,note_on,56,0,0
2,note_on,62,48,60
2,note_on,58,48,0
2,note_on,56,48,0
2,note_on,51,48,0
2,note_on,51,0,180
2,note_on,62,0,0
2,note_on,58,0,0
2,note_on,56,0,0
2,note_on,62,49,60
2,note_on,58,49,0
2,note_on,56,49,0
2,note_on,51,49,0
2,note_on,51,0,180
2,note_on,62,0,0
2,note_on,58,0,0
2,note_on,56,0,0
2,note_on,62,46,60
2,note_on,58,46,0
2,note_on,56,46,0
2,note_on,51,46,0
2,note_on,51,0,180
2,note_on,62,0,0
2,note_on,58,0,0
2,note_on,56,0,0
2,note_on,62,52,60
2,note_on,58,52,0
2,note_on,56,52,0
2,note_on,51,52,0
2,note_on,51,0,180
2,note_on,62,0,0
2,note_on,58,0,0
2,note_on,56,0,0
2,note_on,39,96,60
2,note_on,51,96,0
2,note_on,51,0,35
2,note_on,39,0,0
2,note_on,61,74,120
2,note_on,63,74,0
2,note_on,67,74,0
2,note_on,70,74,0
2,note_on,70,0,180
2,note_on,61,0,0
2,note_on,63,0,0
2,note_on,67,0,0
2,note_on,63,80,60
2,note_on,61,80,0
2,note_on,67,80,0
2,note_on,70,80,0
2,note_on,70,0,173
2,note_on,63,0,0
2,note_on,61,0,0
2,note_on,67,0,0
2,note_on,39,96,60
2,note_on,51,96,0
2,note_on,51,0,68
2,note_on,39,0,0
2,note_on,69,76,120
2,note_on,66,76,0
2,note_on,63,76,0
2,note_on,60,76,0
2,note_on,60,0,180
2,note_on,69,0,0
2,note_on,66,0,0
2,note_on,63,0,0
2,note_on,69,81,60
2,note_on,66,81,0
2,note_on,63,81,0
2,note_on,60,81,0
2,note_on,60,0,169
2,note_on,69,0,0
2,note_on,66,0,0
2,note_on,63,0,0
2,note_on,39,96,60
2,note_on,51,96,0
2,note_on,51,0,99
2,note_on,39,0,0
2,note_on,59,78,120
2,note_on,63,78,0
2,note_on,65,78,0
2,note_on,68,78,0
2,note_on,68,0,180
2,note_on,59,0,0
2,note_on,63,0,0
2,note_on,65,0,0
2,note_on,59,83,60
2,note_on,63,83,0
2,note_on,65,83,0
2,note_on,68,83,0
2,note_on,68,0,171
2,note_on,59,0,0
2,note_on,63,0,0
2,note_on,65,0,0
2,note_on,39,98,60
2,note_on,51,98,0
2,note_on,51,0,134
2,note_on,39,0,0
2,note_on,67,78,0
2,note_on,63,78,0
2,note_on,58,78,0
2,note_on,55,78,0
2,note_on,55,0,240
2,note_on,67,0,0
2,note_on,63,0,0
2,note_on,58,0,0
2,note_on,67,84,0
2,note_on,63,84,0
2,note_on,58,84,0
2,note_on,55,84,0
2,note_on,55,0,240
2,note_on,67,0,0
2,note_on,63,0,0
2,note_on,58,0,0
2,note_on,34,97,0
2,note_on,46,97,0
2,note_on,46,0,240
2,note_on,34,0,0
2,note_on,65,78,0
2,note_on,62,78,0
2,note_on,58,78,0
2,note_on,56,78,0
2,note_on,56,0,180
2,note_on,65,0,0
2,note_on,62,0,0
2,note_on,58,0,0
2,note_on,65,84,60
2,note_on,62,84,0
2,note_on,58,84,0
2,note_on,56,84,0
2,note_on,56,0,111
2,note_on,65,0,0
2,note_on,62,0,0
2,note_on,58,0,0
2,note_on,39,85,120
2,note_on,51,85,0
2,note_on,51,0,198
2,note_on,39,0,0
2,note_on,63,71,0
2,note_on,58,71,0
2,note_on,55,71,0
2,note_on,55,0,180
2,note_on,58,0,0
2,note_on,63,0,0
2,note_on,63,66,60
2,note_on,58,66,0
2,note_on,55,66,0
2,note_on,55,0,108
2,note_on,58,0,0
2,note_on,63,0,0
2,note_on,46,67,120
2,note_on,58,67,0
2,note_on,58,0,198
2,note_on,46,0,0
2,note_on,62,53,0
2,note_on,56,53,0
2,note_on,58,53,0
2,note_on,53,53,0
2,note_on,53,0,180
2,note_on,62,0,0
2,note_on,56,0,0
2,note_on,58,0,0
2,note_on,62,56,60
2,note_on,58,56,0
2,note_on,56,56,0
2,note_on,53,56,0
2,note_on,53,0,111
2,note_on,62,0,0
2,note_on,58,0,0
2,note_on,56,0,0
2,note_on,39,63,120
2,note_on,51,63,0
2,note_on,51,0,191
2,note_on,39,0,0
2,note_on,61,42,0
2,note_on,58,42,0
2,note_on,51,42,0
2,note_on,51,0,180
2,note_on,58,0,0
2,note_on,61,0,0
2,note_on,61,49,60
2,note_on,58,49,0
2,note_on,51,49,0
2,note_on,51,0,115
2,note_on,58,0,0
2,note_on,61,0,0
2,note_on,44,62,120
2,note_on,56,62,0
2,note_on,56,0,169
2,note_on,44,0,0
2,note_on,60,47,0
2,note_on,56,47,0
2,note_on,51,47,0
2,note_on,51,0,180
2,note_on,56,0,0
2,note_on,60,0,0
2,note_on,60,51,60
2,note_on,56,51,0
2,note_on,51,51,0
2,note_on,51,0,109
2,note_on,56,0,0
2,note_on,60,0,0
2,note_on,44,59,120
2,note_on,56,59,0
2,note_on,56,0,188
2,note_on,44,0,0
2,note_on,59,45,0
2,note_on,56,45,0
2,note_on,51,45,0
2,note_on,51,0,180
2,note_on,56,0,0
2,note_on,59,0,0
2,note_on,59,48,60
2,note_on,56,48,0
2,note_on,51,48,0
2,note_on,51,0,109
2,note_on,56,0,0
2,note_on,59,0,0
2,note_on,39,56,120
2,note_on,39,0,162
2,note_on,46,45,0
2,note_on,51,45,0
2,note_on,55,45,0
2,note_on,55,0,180
2,note_on,51,0,0
2,note_on,46,0,0
2,note_on,46,48,60
2,note_on,51,48,0
2,note_on,55,48,0
2,note_on,55,0,108
2,note_on,51,0,0
2,note_on,46,0,0
2,note_on,39,52,120
2,note_on,39,0,176
2,note_on,46,41,0
2,note_on,51,41,0
2,note_on,55,41,0
2,note_on,55,0,180
2,note_on,51,0,0
2,note_on,46,0,0
2,note_on,46,45,60
2,note_on,51,45,0
2,note_on,55,45,0
2,note_on,55,0,180
2,note_on,51,0,0
2,note_on,46,0,0
2,note_on,39,48,60
2,note_on,39,0,127
2,note_on,56,38,0
2,note_on,50,38,0
2,note_on,46,38,0
2,note_on,46,0,180
2,note_on,50,0,0
2,note_on,56,0,0
2,note_on,46,44,60
2,note_on,50,44,0
2,note_on,56,44,0
2,note_on,56,0,102
2,note_on,50,0,0
2,note_on,46,0,0
2,note_on,39,46,120
2,note_on,39,0,155
2,note_on,46,38,0
2,note_on,51,38,0
2,note_on,55,38,0
2,note_on,55,0,180
2,note_on,51,0,0
2,note_on,46,0,0
2,note_on,55,41,60
2,note_on,51,41,0
2,note_on,46,41,0
2,note_on,46,0,104
2,note_on,51,0,0
2,note_on,55,0,0
2,note_on,39,46,120
2,note_on,39,0,180
2,note_on,56,31,0
2,note_on,53,31,0
2,note_on,46,31,0
2,note_on,46,0,180
2,note_on,53,0,0
2,note_on,56,0,0
2,note_on,46,39,60
2,note_on,53,39,0
2,note_on,56,39,0
2,note_on,56,0,169
2,note_on,53,0,0
2,note_on,46,0,0
2,note_on,39,43,60
2,note_on,39,0,190
2,note_on,46,29,0
2,note_on,51,29,0
2,note_on,55,29,0
2,note_on,55,0,180
2,note_on,51,0,0
2,note_on,46,0,0
2,note_on,55,34,60
2,note_on,51,34,0
2,note_on,46,34,0
2,note_on,46,0,120
2,note_on,51,0,0
2,note_on,55,0,0
2,note_on,39,48,120
2,note_on,39,0,134
2,note_on,56,38,0
2,note_on,50,38,0
2,note_on,46,38,0
2,note_on,46,0,180
2,note_on,50,0,0
2,note_on,56,0,0
2,note_on,46,44,60
2,note_on,50,44,0
2,note_on,56,44,0
2,note_on,56,0,104
2,note_on,50,0,0
2,note_on,46,0,0
2,note_on,39,46,120
2,note_on,39,0,169
2,note_on,46,37,0
2,note_on,51,37,0
2,note_on,55,37,0
2,note_on,55,0,180
2,note_on,51,0,0
2,note_on,46,0,0
2,note_on,55,41,60
2,note_on,51,41,0
2,note_on,46,41,0
2,note_on,46,0,104
2,note_on,51,0,0
2,note_on,55,0,0
2,note_on,39,46,120
2,note_on,39,0,187
2,note_on,56,36,0
2,note_on,53,36,0
2,note_on,46,36,0
2,note_on,46,0,180
2,note_on,53,0,0
2,note_on,56,0,0
2,note_on,46,39,60
2,note_on,53,39,0
2,note_on,56,39,0
2,note_on,56,0,45
2,note_on,53,0,0
2,note_on,46,0,0
2,note_on,39,43,60
2,note_on,39,0,240
2,note_on,46,33,0
2,note_on,51,33,0
2,note_on,55,33,0
2,note_on,55,0,180
2,note_on,51,0,0
2,note_on,46,0,0
2,note_on,55,36,60
2,note_on,51,36,0
2,note_on,46,36,0
2,note_on,46,0,120
2,note_on,51,0,0
2,note_on,55,0,0
2,note_on,39,46,120
2,note_on,39,0,188
2,note_on,56,40,0
2,note_on,53,40,0
2,note_on,46,40,0
2,note_on,46,0,180
2,note_on,53,0,0
2,note_on,56,0,0
2,note_on,46,43,60
2,note_on,53,43,0
2,note_on,56,43,0
2,note_on,56,0,50
2,note_on,53,0,0
2,note_on,46,0,0
2,note_on,39,48,60
2,note_on,39,0,240
2,note_on,46,42,0
2,note_on,53,42,0
2,note_on,56,42,0
2,note_on,56,0,180
2,note_on,53,0,0
2,note_on,46,0,0
2,note_on,56,44,60
2,note_on,53,44,0
2,note_on,46,44,0
2,note_on,46,0,120
2,note_on,53,0,0
2,note_on,56,0,0
2,note_on,39,56,120
2,note_on,39,0,240
2,note_on,46,49,0
2,note_on,53,49,0
2,note_on,56,49,0
2,note_on,56,0,180
2,note_on,53,0,0
2,note_on,46,0,0
2,note_on,56,51,60
2,note_on,53,51,0
2,note_on,46,51,0
2,note_on,46,0,120
2,note_on,53,0,0
2,note_on,56,0,0
2,note_on,39,67,120
2,note_on,39,0,240
2,note_on,46,56,0
2,note_on,53,56,0
2,note_on,56,56,0
2,note_on,56,0,180
2,note_on,53,0,0
2,note_on,46,0,0
2,note_on,56,60,60
2,note_on,53,60,0
2,note_on,46,60,0
2,note_on,46,0,120
2,note_on,53,0,0
2,note_on,56,0,0
2,note_on,39,67,120
2,note_on,51,67,0
2,note_on,51,0,240
2,note_on,39,0,0
2,note_on,62,61,0
2,note_on,59,61,0
2,note_on,56,61,0
2,note_on,51,61,0
2,note_on,51,0,240
2,note_on,62,0,0
2,note_on,59,0,0
2,note_on,56,0,0
2,note_on,62,63,240
2,note_on,59,63,0
2,note_on,56,63,0
2,note_on,51,63,0
2,note_on,51,0,180
2,note_on,62,0,0
2,note_on,59,0,0
2,note_on,56,0,0
2,note_on,62,58,60
2,note_on,59,58,0
2,note_on,56,58,0
2,note_on,51,58,0
2,note_on,51,0,180
2,note_on,62,0,0
2,note_on,59,0,0
2,note_on,56,0,0
2,note_on,62,63,300
2,note_on,59,63,0
2,note_on,56,63,0
2,note_on,51,63,0
2,note_on,51,0,180
2,note_on,62,0,0
2,note_on,59,0,0
2,note_on,56,0,0
2,note_on,62,60,60
2,note_on,59,60,0
2,note_on,56,60,0
2,note_on,51,60,0
2,note_on,51,0,180
2,note_on,62,0,0
2,note_on,59,0,0
2,note_on,56,0,0
2,note_on,27,67,720
2,note_on,39,67,0
2,note_on,39,0,120
2,note_on,27,0,0
2,note_on,63,33,1560
2,note_on,58,33,0
2,note_on,55,33,0
2,note_on,55,0,180
2,note_on,58,0,0
2,note_on,63,0,0
2,note_on,67,33,60
2,note_on,63,33,0
2,note_on,58,33,0
2,note_on,55,33,0
2,note_on,55,0,180
2,note_on,67,0,0
2,note_on,63,0,0
2,note_on,58,0,0
2,note_on,67,36,60
2,note_on,63,36,0
2,note_on,58,36,0
2,note_on,55,36,0
2,note_on,55,0,180
2,note_on,67,0,0
2,note_on,63,0,0
2,note_on,58,0,0
2,note_on,67,33,60
2,note_on,63,33,0
2,note_on,58,33,0
2,note_on,55,33,0
2,note_on,55,0,180
2,note_on,67,0,0
2,note_on,63,0,0
2,note_on,58,0,0
2,note_on,67,33,60
2,note_on,63,33,0
2,note_on,58,33,0
2,note_on,55,33,0
2,note_on,55,0,180
2,note_on,67,0,0
2,note_on,63,0,0
2,note_on,58,0,0
2,note_on,67,33,60
2,note_on,63,33,0
2,note_on,58,33,0
2,note_on,55,33,0
2,note_on,55,0,180
2,note_on,67,0,0
2,note_on,63,0,0
2,note_on,58,0,0
2,note_on,67,30,60
2,note_on,63,30,0
2,note_on,58,30,0
2,note_on,55,30,0
2,note_on,55,0,180
2,note_on,67,0,0
2,note_on,63,0,0
2,note_on,58,0,0
2,note_on,67,30,60
2,note_on,63,30,0
2,note_on,58,30,0
2,note_on,55,30,0
2,note_on,55,0,180
2,note_on,67,0,0
2,note_on,63,0,0
2,note_on,58,0,0
2,note_on,67,33,60
2,note_on,63,33,0
2,note_on,58,33,0
2,note_on,55,33,0
2,note_on,55,0,180
2,note_on,67,0,0
2,note_on,63,0,0
2,note_on,58,0,0
2,note_on,67,29,60
2,note_on,63,29,0
2,note_on,58,29,0
2,note_on,55,29,0
2,note_on,55,0,180
2,note_on,67,0,0
2,note_on,63,0,0
2,note_on,58,0,0
2,note_on,67,29,60
2,note_on,63,29,0
2,note_on,58,29,0
2,note_on,55,29,0
2,note_on,55,0,180
2,note_on,67,0,0
2,note_on,63,0,0
2,note_on,58,0,0
2,note_on,67,33,60
2,note_on,63,33,0
2,note_on,58,33,0
2,note_on,55,33,0
2,note_on,55,0,180
2,note_on,67,0,0
2,note_on,63,0,0
2,note_on,58,0,0
2,note_on,67,31,60
2,note_on,63,31,0
2,note_on,58,31,0
2,note_on,55,31,0
2,note_on,55,0,180
2,note_on,67,0,0
2,note_on,63,0,0
2,note_on,58,0,0
2,note_on,67,31,60
2,note_on,63,31,0
2,note_on,58,31,0
2,note_on,55,31,0
2,note_on,55,0,180
2,note_on,67,0,0
2,note_on,63,0,0
2,note_on,58,0,0
2,note_on,67,33,60
2,note_on,63,33,0
2,note_on,58,33,0
2,note_on,55,33,0
2,note_on,55,0,180
2,note_on,67,0,0
2,note_on,63,0,0
2,note_on,58,0,0
2,note_on,67,30,60
2,note_on,63,30,0
2,note_on,58,30,0
2,note_on,55,30,0
2,note_on,55,0,180
2,note_on,67,0,0
2,note_on,63,0,0
2,note_on,58,0,0
2,note_on,67,30,60
2,note_on,63,30,0
2,note_on,58,30,0
2,note_on,55,30,0
2,note_on,55,0,180
2,note_on,67,0,0
2,note_on,63,0,0
2,note_on,58,0,0
2,note_on,67,33,60
2,note_on,63,33,0
2,note_on,58,33,0
2,note_on,55,33,0
2,note_on,55,0,194
2,note_on,67,0,0
2,note_on,63,0,0
2,note_on,58,0,0
2,note_on,63,29,480
2,note_on,51,29,0
2,note_on,55,29,0
2,note_on,55,0,240
2,note_on,51,0,0
2,note_on,63,0,0
2,note_on,67,31,480
2,note_on,63,31,0
2,note_on,58,31,0
2,note_on,55,31,0
2,note_on,55,0,240
2,note_on,67,0,0
2,note_on,63,0,0
2,note_on,58,0,0
2,note_on,58,33,480
2,note_on,67,33,0
2,note_on,70,33,0
2,note_on,70,0,240
2,note_on,67,0,0
2,note_on,58,0,0
2,note_on,63,36,480
2,note_on,67,36,0
2,note_on,75,36,0
2,note_on,75,0,240
2,note_on,67,0,0
2,note_on,63,0,0
2,note_on,58,35,480
2,note_on,67,35,0
2,note_on,70,35,0
2,note_on,70,0,240
2,note_on,67,0,0
2,note_on,58,0,0
2,note_on,79,33,480
2,note_on,75,33,0
2,note_on,67,33,0
2,note_on,67,0,240
2,note_on,75,0,0
2,note_on,79,0,0
2,note_on,82,28,480
2,note_on,79,28,0
2,note_on,70,28,0
2,note_on,70,0,240
2,note_on,79,0,0
2,note_on,82,0,0
2,note_on,87,24,480
2,note_on,79,24,0
2,note_on,79,0,240
2,note_on,87,0,0
2,note_on,63,76,1200
2,note_on,70,76,0
2,note_on,75,90,0
2,note_on,75,0,49
2,note_on,70,0,0
2,note_on,63,0,0
2,note_on,63,90,240
2,note_on,58,76,0
2,note_on,51,76,0
2,note_on,51,0,70
2,note_on,58,0,0
2,note_on,63,0,0
2,note_on,51,76,120
2,note_on,58,76,0
2,note_on,63,90,0
2,note_on,63,0,120
2,note_on,58,0,0
2,note_on,51,0,0
2,note_on,63,90,120
2,note_on,58,76,0
2,note_on,51,76,0
2,note_on,51,0,120
2,note_on,58,0,0
2,note_on,63,0,0
2,note_on,27,91,120
2,note_on,39,101,0
2,note_on,39,0,720
2,note_on,27,0,0
