Track,Message Type,Note,Velocity,Time
1,note_on,76,45,960
1,note_on,76,0,480
1,note_on,77,46,0
1,note_on,77,0,360
1,note_on,76,45,0
1,note_on,76,0,120
1,note_on,74,45,0
1,note_on,74,0,480
1,note_on,77,48,0
1,note_on,77,0,476
1,note_on,77,47,4
1,note_on,77,0,960
1,note_on,76,43,0
1,note_on,76,0,480
1,note_on,74,42,0
1,note_on,74,0,80
1,note_on,76,43,0
1,note_on,76,0,80
1,note_on,74,44,0
1,note_on,74,0,80
1,note_on,73,45,0
1,note_on,73,0,240
1,note_on,74,47,0
1,note_on,74,0,240
1,note_on,75,45,0
1,note_on,75,0,240
1,note_on,76,50,0
1,note_on,76,0,240
1,note_on,71,50,0
1,note_on,71,0,240
1,note_on,74,54,0
1,note_on,74,0,960
1,note_on,72,45,0
1,note_on,72,0,480
1,note_on,69,62,0
1,note_on,69,0,160
1,note_on,71,57,0
1,note_on,71,0,160
1,note_on,69,57,0
1,note_on,69,0,160
1,note_on,68,63,0
1,note_on,68,0,240
1,note_on,69,67,240
1,note_on,69,0,240
1,note_on,71,70,240
1,note_on,71,0,240
1,note_on,76,72,240
1,note_on,76,0,960
1,note_on,71,76,0
1,note_on,71,0,240
1,note_on,67,73,0
1,note_on,67,0,240
1,note_on,64,76,0
1,note_on,64,0,240
1,note_on,71,71,0
1,note_on,71,0,240
1,note_on,63,73,0
1,note_on,63,0,480
1,note_on,64,76,0
1,note_on,64,0,960
1,note_on,76,45,0
1,note_on,76,0,480
1,note_on,77,46,0
1,note_on,77,0,360
1,note_on,76,45,0
1,note_on,76,0,120
1,note_on,74,45,0
1,note_on,74,0,480
1,note_on,77,48,0
1,note_on,77,0,474
1,note_on,77,47,6
1,note_on,77,0,960
1,note_on,76,43,0
1,note_on,76,0,480
1,note_on,74,42,0
1,note_on,74,0,80
1,note_on,76,43,0
1,note_on,76,0,80
1,note_on,74,44,0
1,note_on,74,0,80
1,note_on,73,45,0
1,note_on,73,0,240
1,note_on,74,47,0
1,note_on,74,0,240
1,note_on,75,45,0
1,note_on,75,0,240
1,note_on,76,47,0
1,note_on,76,0,240
1,note_on,71,42,0
1,note_on,71,0,114
1,note_on,71,47,6
1,note_on,71,0,120
1,note_on,74,51,0
1,note_on,74,0,960
1,note_on,72,45,0
1,note_on,72,0,480
1,note_on,69,46,0
1,note_on,69,0,160
1,note_on,70,43,0
1,note_on,70,0,160
1,note_on,69,43,0
1,note_on,69,0,160
1,note_on,67,47,0
1,note_on,67,0,480
1,note_on,69,51,0
1,note_on,69,0,480
1,note_on,70,53,0
1,note_on,70,0,480
1,note_on,74,54,0
1,note_on,74,0,480
1,note_on,69,48,480
1,note_on,69,0,360
1,note_on,68,44,0
1,note_on,68,0,120
1,note_on,62,40,0
1,note_on,64,48,0
1,note_on,64,0,480
1,note_on,62,0,0
1,note_on,68,45,0
1,note_on,62,38,0
1,note_on,62,0,480
1,note_on,68,0,0
1,note_on,60,39,0
1,note_on,69,46,0
1,note_on,60,0,480
1,note_on,69,0,480
1,note_on,76,45,0
1,note_on,76,0,480
1,note_on,77,46,0
1,note_on,77,0,360
1,note_on,76,45,0
1,note_on,76,0,120
1,note_on,74,45,0
1,note_on,74,0,480
1,note_on,77,48,0
1,note_on,77,0,480
1,note_on,77,47,0
1,note_on,77,0,960
1,note_on,76,43,0
1,note_on,76,0,480
1,note_on,74,42,0
1,note_on,74,0,80
1,note_on,76,43,0
1,note_on,76,0,80
1,note_on,74,44,0
1,note_on,74,0,80
1,note_on,73,45,0
1,note_on,73,0,240
1,note_on,74,47,0
1,note_on,74,0,240
1,note_on,75,45,0
1,note_on,75,0,240
1,note_on,76,53,0
1,note_on,76,0,240
1,note_on,71,48,0
1,note_on,71,0,240
1,note_on,74,58,0
1,note_on,74,0,960
1,note_on,72,45,0
1,note_on,72,0,480
1,note_on,69,62,0
1,note_on,69,0,160
1,note_on,71,57,0
1,note_on,71,0,160
1,note_on,69,57,0
1,note_on,69,0,160
1,note_on,68,63,0
1,note_on,68,0,240
1,note_on,69,67,240
1,note_on,69,0,240
1,note_on,71,70,240
1,note_on,71,0,240
1,note_on,76,72,240
1,note_on,76,0,960
1,note_on,71,76,0
1,note_on,71,0,240
1,note_on,67,73,0
1,note_on,67,0,240
1,note_on,64,76,0
1,note_on,64,0,240
1,note_on,71,71,0
1,note_on,71,0,240
1,note_on,63,73,0
1,note_on,63,0,480
1,note_on,64,76,0
1,note_on,64,0,960
1,note_on,76,45,0
1,note_on,76,0,480
1,note_on,77,46,0
1,note_on,77,0,360
1,note_on,76,45,0
1,note_on,76,0,120
1,note_on,74,45,0
1,note_on,74,0,480
1,note_on,77,48,0
1,note_on,77,0,480
1,note_on,77,47,0
1,note_on,77,0,960
1,note_on,76,43,0
1,note_on,76,0,480
1,note_on,74,42,0
1,note_on,74,0,80
1,note_on,76,43,0
1,note_on,76,0,80
1,note_on,74,44,0
1,note_on,74,0,80
1,note_on,73,45,0
1,note_on,73,0,240
1,note_on,74,47,0
1,note_on,74,0,240
1,note_on,75,45,0
1,note_on,75,0,240
1,note_on,76,47,0
1,note_on,76,0,240
1,note_on,71,42,0
1,note_on,71,0,114
1,note_on,71,42,6
1,note_on,71,0,120
1,note_on,74,46,0
1,note_on,74,0,960
1,note_on,72,45,0
1,note_on,72,0,480
1,note_on,69,46,0
1,note_on,69,0,160
1,note_on,70,43,0
1,note_on,70,0,160
1,note_on,69,43,0
1,note_on,69,0,160
1,note_on,67,47,0
1,note_on,67,0,480
1,note_on,69,54,0
1,note_on,69,0,480
1,note_on,70,62,0
1,note_on,70,0,480
1,note_on,74,59,0
1,note_on,74,0,480
1,note_on,69,48,480
1,note_on,69,0,360
1,note_on,68,44,0
1,note_on,68,0,120
1,note_on,62,40,0
1,note_on,64,48,0
1,note_on,64,0,480
1,note_on,62,0,0
1,note_on,68,45,0
1,note_on,62,38,0
1,note_on,62,0,480
1,note_on,68,0,0
1,note_on,60,39,0
1,note_on,69,46,0
1,note_on,60,0,480
1,note_on,69,0,480
1,note_on,71,51,0
1,note_on,71,0,480
1,note_on,72,52,0
1,note_on,72,0,240
1,note_on,74,53,0
1,note_on,74,0,240
1,note_on,75,55,0
1,note_on,75,0,475
1,note_on,75,60,5
1,note_on,75,0,360
1,note_on,77,55,0
1,note_on,77,0,120
1,note_on,75,62,0
1,note_on,75,0,960
1,note_on,74,54,0
1,note_on,74,0,480
1,note_on,72,52,0
1,note_on,72,0,240
1,note_on,74,54,0
1,note_on,74,0,240
1,note_on,75,57,0
1,note_on,75,0,476
1,note_on,75,66,4
1,note_on,75,0,360
1,note_on,77,62,0
1,note_on,77,0,120
1,note_on,75,76,0
1,note_on,75,0,960
1,note_on,74,67,0
1,note_on,74,0,480
1,note_on,82,86,0
1,note_on,82,0,960
1,note_on,73,66,0
1,note_on,73,0,480
1,note_on,81,76,0
1,note_on,81,0,960
1,note_on,72,62,0
1,note_on,72,0,480
1,note_on,80,76,0
1,note_on,80,0,960
1,note_on,71,56,0
1,note_on,71,0,480
1,note_on,79,67,0
1,note_on,79,0,720
1,note_on,70,54,0
1,note_on,70,0,240
1,note_on,69,45,0
1,note_on,69,0,240
1,note_on,76,45,0
1,note_on,76,0,240
1,note_on,77,46,0
1,note_on,77,0,240
1,note_on,76,45,0
1,note_on,76,0,240
1,note_on,74,45,0
1,note_on,74,0,480
1,note_on,77,48,0
1,note_on,77,0,480
1,note_on,77,47,0
1,note_on,77,0,960
1,note_on,76,43,0
1,note_on,76,0,480
1,note_on,74,42,0
1,note_on,74,0,80
1,note_on,76,43,0
1,note_on,76,0,80
1,note_on,74,44,0
1,note_on,74,0,80
1,note_on,73,45,0
1,note_on,73,0,240
1,note_on,74,47,0
1,note_on,74,0,240
1,note_on,75,45,0
1,note_on,75,0,240
1,note_on,76,49,0
1,note_on,76,0,240
1,note_on,71,46,0
1,note_on,71,0,240
1,note_on,74,55,0
1,note_on,74,0,960
1,note_on,72,45,0
1,note_on,72,0,480
1,note_on,69,46,0
1,note_on,69,0,160
1,note_on,70,43,0
1,note_on,70,0,160
1,note_on,69,43,0
1,note_on,69,0,160
1,note_on,67,47,0
1,note_on,67,0,480
1,note_on,69,51,0
1,note_on,69,0,480
1,note_on,70,53,0
1,note_on,70,0,480
1,note_on,74,54,0
1,note_on,74,0,480
1,note_on,69,48,480
1,note_on,69,0,360
1,note_on,68,44,0
1,note_on,68,0,120
1,note_on,62,40,0
1,note_on,64,48,0
1,note_on,64,0,480
1,note_on,62,0,0
1,note_on,68,45,0
1,note_on,62,38,0
1,note_on,62,0,480
1,note_on,68,0,0
1,note_on,60,39,0
1,note_on,69,46,0
1,note_on,60,0,480
1,note_on,69,0,480
1,note_on,71,51,0
1,note_on,71,0,480
1,note_on,72,52,0
1,note_on,72,0,240
1,note_on,74,53,0
1,note_on,74,0,240
1,note_on,75,55,0
1,note_on,75,0,476
1,note_on,75,60,4
1,note_on,75,0,360
1,note_on,77,55,0
1,note_on,77,0,120
1,note_on,75,62,0
1,note_on,75,0,960
1,note_on,74,54,0
1,note_on,74,0,480
1,note_on,72,52,0
1,note_on,72,0,240
1,note_on,74,54,0
1,note_on,74,0,240
1,note_on,75,57,0
1,note_on,75,0,476
1,note_on,75,66,4
1,note_on,75,0,360
1,note_on,77,62,0
1,note_on,77,0,120
1,note_on,75,76,0
1,note_on,75,0,960
1,note_on,74,62,0
1,note_on,74,0,480
1,note_on,82,81,0
1,note_on,82,0,960
1,note_on,73,62,0
1,note_on,73,0,480
1,note_on,81,76,0
1,note_on,81,0,960
1,note_on,72,55,0
1,note_on,72,0,480
1,note_on,80,71,0
1,note_on,80,0,960
1,note_on,71,42,0
1,note_on,71,0,480
1,note_on,79,56,0
1,note_on,79,0,720
1,note_on,70,47,0
1,note_on,70,0,240
1,note_on,69,45,0
1,note_on,69,0,240
1,note_on,76,45,0
1,note_on,76,0,240
1,note_on,77,46,0
1,note_on,77,0,240
1,note_on,76,45,0
1,note_on,76,0,240
1,note_on,74,45,0
1,note_on,74,0,480
1,note_on,77,48,0
1,note_on,77,0,474
1,note_on,77,47,6
1,note_on,77,0,960
1,note_on,76,43,0
1,note_on,76,0,480
1,note_on,74,42,0
1,note_on,74,0,80
1,note_on,76,43,0
1,note_on,76,0,80
1,note_on,74,44,0
1,note_on,74,0,80
1,note_on,73,45,0
1,note_on,73,0,240
1,note_on,74,47,0
1,note_on,74,0,240
1,note_on,75,45,0
1,note_on,75,0,240
1,note_on,76,53,0
1,note_on,76,0,240
1,note_on,71,46,0
1,note_on,71,0,240
1,note_on,74,54,0
1,note_on,74,0,960
1,note_on,72,45,0
1,note_on,72,0,480
1,note_on,69,46,0
1,note_on,69,0,160
1,note_on,70,43,0
1,note_on,70,0,160
1,note_on,69,43,0
1,note_on,69,0,160
1,note_on,67,47,0
1,note_on,67,0,480
1,note_on,69,51,0
1,note_on,69,0,480
1,note_on,70,61,0
1,note_on,70,0,480
1,note_on,74,61,0
1,note_on,74,0,480
1,note_on,69,48,480
1,note_on,69,0,360
1,note_on,68,44,0
1,note_on,68,0,120
1,note_on,62,40,0
1,note_on,64,48,0
1,note_on,64,0,480
1,note_on,62,0,0
1,note_on,68,45,0
1,note_on,62,38,0
1,note_on,62,0,480
1,note_on,68,0,0
1,note_on,69,46,0
1,note_on,61,25,480
1,note_on,64,30,0
1,note_on,64,0,480
1,note_on,61,0,0
1,note_on,69,0,0
1,note_on,61,26,0
1,note_on,64,31,0
1,note_on,64,0,480
1,note_on,61,0,0
1,note_on,67,45,0
1,note_on,73,54,0
1,note_on,73,0,240
1,note_on,73,49,120
1,note_on,73,0,120
1,note_on,67,0,0
1,note_on,66,45,0
1,note_on,74,54,0
1,note_on,74,0,480
1,note_on,66,0,0
1,note_on,65,44,0
1,note_on,71,53,0
1,note_on,71,0,480
1,note_on,65,0,0
1,note_on,62,45,0
1,note_on,68,54,0
1,note_on,68,0,360
1,note_on,64,51,0
1,note_on,64,0,120
1,note_on,62,0,0
1,note_on,61,45,0
1,note_on,69,54,0
1,note_on,69,0,720
1,note_on,61,0,0
1,note_on,68,45,0
1,note_on,71,54,0
1,note_on,71,0,240
1,note_on,68,0,0
1,note_on,67,45,0
1,note_on,73,54,0
1,note_on,73,0,360
1,note_on,76,54,0
1,note_on,76,0,120
1,note_on,67,0,0
1,note_on,66,47,0
1,note_on,74,56,0
1,note_on,74,0,360
1,note_on,66,0,0
1,note_on,65,45,120
1,note_on,71,54,0
1,note_on,71,0,480
1,note_on,65,0,0
1,note_on,62,45,0
1,note_on,68,54,0
1,note_on,68,0,160
1,note_on,66,56,0
1,note_on,66,0,160
1,note_on,64,57,0
1,note_on,64,0,160
1,note_on,62,0,0
1,note_on,61,52,0
1,note_on,69,62,0
1,note_on,69,0,720
1,note_on,61,0,0
1,note_on,68,45,0
1,note_on,71,54,0
1,note_on,71,0,240
1,note_on,68,0,0
1,note_on,67,44,0
1,note_on,73,52,0
1,note_on,73,0,60
1,note_on,67,0,0
1,note_on,67,45,100
1,note_on,73,54,0
1,note_on,73,0,60
1,note_on,67,0,0
1,note_on,67,46,100
1,note_on,73,55,0
1,note_on,73,0,60
1,note_on,67,0,0
1,note_on,66,50,100
1,note_on,74,59,0
1,note_on,74,0,240
1,note_on,66,0,0
1,note_on,65,44,240
1,note_on,71,53,0
1,note_on,71,0,480
1,note_on,65,0,0
1,note_on,62,45,0
1,note_on,68,54,0
1,note_on,68,0,60
1,note_on,62,0,0
1,note_on,62,43,100
1,note_on,66,51,0
1,note_on,66,0,60
1,note_on,62,0,0
1,note_on,62,43,100
1,note_on,64,51,0
1,note_on,64,0,60
1,note_on,62,0,0
1,note_on,61,45,100
1,note_on,69,54,0
1,note_on,69,0,720
1,note_on,61,0,0
1,note_on,68,45,0
1,note_on,71,54,0
1,note_on,71,0,240
1,note_on,68,0,0
1,note_on,67,43,0
1,note_on,73,51,0
1,note_on,73,0,60
1,note_on,67,0,0
1,note_on,67,45,100
1,note_on,74,54,0
1,note_on,74,0,60
1,note_on,67,0,0
1,note_on,67,47,100
1,note_on,76,56,0
1,note_on,76,0,60
1,note_on,67,0,0
1,note_on,66,51,100
1,note_on,74,61,0
1,note_on,74,0,240
1,note_on,66,0,0
1,note_on,65,45,240
1,note_on,71,54,0
1,note_on,71,0,480
1,note_on,65,0,0
1,note_on,62,45,0
1,note_on,68,54,0
1,note_on,68,0,60
1,note_on,62,0,0
1,note_on,62,45,100
1,note_on,66,56,0
1,note_on,66,0,60
1,note_on,62,0,0
1,note_on,62,45,100
1,note_on,64,57,0
1,note_on,64,0,60
1,note_on,62,0,0
1,note_on,61,51,100
1,note_on,69,61,0
1,note_on,69,0,960
1,note_on,61,0,0
1,note_on,73,80,0
1,note_on,69,68,0
1,note_on,69,0,240
1,note_on,73,0,0
1,note_on,73,75,120
1,note_on,69,64,0
1,note_on,69,0,120
1,note_on,73,0,0
1,note_on,74,79,0
1,note_on,71,67,0
1,note_on,71,0,360
1,note_on,74,0,0
1,note_on,71,72,120
1,note_on,68,60,0
1,note_on,68,0,360
1,note_on,71,0,0
1,note_on,69,65,120
1,note_on,73,77,0
1,note_on,73,0,160
1,note_on,69,0,0
1,note_on,68,60,0
1,note_on,71,72,0
1,note_on,71,0,160
1,note_on,68,0,0
1,note_on,69,72,0
1,note_on,66,60,0
1,note_on,66,0,160
1,note_on,69,0,0
1,note_on,71,66,0
1,note_on,74,78,0
1,note_on,74,0,360
1,note_on,71,0,0
1,note_on,68,61,120
1,note_on,71,73,0
1,note_on,71,0,360
1,note_on,68,0,0
1,note_on,73,80,120
1,note_on,69,68,0
1,note_on,69,0,240
1,note_on,73,0,0
1,note_on,73,75,120
1,note_on,69,64,0
1,note_on,69,0,120
1,note_on,73,0,0
1,note_on,74,79,0
1,note_on,71,67,0
1,note_on,71,0,360
1,note_on,74,0,0
1,note_on,71,72,120
1,note_on,68,60,0
1,note_on,68,0,360
1,note_on,71,0,0
1,note_on,69,65,120
1,note_on,73,77,0
1,note_on,73,0,160
1,note_on,69,0,0
1,note_on,68,60,0
1,note_on,71,72,0
1,note_on,71,0,160
1,note_on,68,0,0
1,note_on,69,72,0
1,note_on,66,60,0
1,note_on,66,0,160
1,note_on,69,0,0
1,note_on,78,75,0
1,note_on,90,89,0
1,note_on,90,0,480
1,note_on,78,0,0
1,note_on,78,70,0
1,note_on,90,83,0
1,note_on,90,0,480
1,note_on,78,0,0
1,note_on,73,80,0
1,note_on,69,68,0
1,note_on,69,0,240
1,note_on,73,0,0
1,note_on,73,75,120
1,note_on,69,64,0
1,note_on,69,0,120
1,note_on,73,0,0
1,note_on,74,79,0
1,note_on,71,67,0
1,note_on,71,0,360
1,note_on,74,0,0
1,note_on,71,72,120
1,note_on,68,60,0
1,note_on,68,0,360
1,note_on,71,0,0
1,note_on,69,65,120
1,note_on,73,77,0
1,note_on,73,0,160
1,note_on,69,0,0
1,note_on,68,60,0
1,note_on,71,72,0
1,note_on,71,0,160
1,note_on,68,0,0
1,note_on,69,72,0
1,note_on,66,60,0
1,note_on,66,0,160
1,note_on,69,0,0
1,note_on,71,66,0
1,note_on,74,78,0
1,note_on,74,0,360
1,note_on,71,0,0
1,note_on,68,61,120
1,note_on,71,73,0
1,note_on,71,0,360
1,note_on,68,0,0
1,note_on,69,57,120
1,note_on,73,68,0
1,note_on,73,0,240
1,note_on,75,71,0
1,note_on,75,0,240
1,note_on,69,0,0
1,note_on,68,62,0
1,note_on,76,74,0
1,note_on,76,0,960
1,note_on,68,0,0
1,note_on,69,57,0
1,note_on,73,68,0
1,note_on,73,0,240
1,note_on,75,71,0
1,note_on,75,0,120
1,note_on,78,69,0
1,note_on,78,0,120
1,note_on,69,0,0
1,note_on,68,62,0
1,note_on,76,74,0
1,note_on,76,0,720
1,note_on,74,70,0
1,note_on,74,0,240
1,note_on,68,0,0
1,note_on,67,50,0
1,note_on,73,60,0
1,note_on,73,0,240
1,note_on,73,55,120
1,note_on,73,0,120
1,note_on,67,0,0
1,note_on,66,51,0
1,note_on,74,61,0
1,note_on,74,0,480
1,note_on,66,0,0
1,note_on,65,49,0
1,note_on,71,59,0
1,note_on,71,0,480
1,note_on,65,0,0
1,note_on,62,50,0
1,note_on,68,60,0
1,note_on,68,0,360
1,note_on,64,57,0
1,note_on,64,0,120
1,note_on,62,0,0
1,note_on,61,50,0
1,note_on,69,60,0
1,note_on,69,0,720
1,note_on,61,0,0
1,note_on,68,50,0
1,note_on,71,60,0
1,note_on,71,0,240
1,note_on,68,0,0
1,note_on,67,51,0
1,note_on,73,61,0
1,note_on,73,0,360
1,note_on,76,60,0
1,note_on,76,0,120
1,note_on,67,0,0
1,note_on,66,53,0
1,note_on,74,63,0
1,note_on,74,0,480
1,note_on,66,0,0
1,note_on,65,50,0
1,note_on,71,60,0
1,note_on,71,0,480
1,note_on,65,0,0
1,note_on,62,51,0
1,note_on,68,61,0
1,note_on,68,0,160
1,note_on,66,63,0
1,note_on,66,0,160
1,note_on,64,64,0
1,note_on,64,0,160
1,note_on,62,0,0
1,note_on,61,58,0
1,note_on,69,69,0
1,note_on,69,0,720
1,note_on,61,0,0
1,note_on,68,50,0
1,note_on,71,60,0
1,note_on,71,0,240
1,note_on,68,0,0
1,note_on,67,49,0
1,note_on,73,58,0
1,note_on,73,0,60
1,note_on,67,0,0
1,note_on,67,50,100
1,note_on,73,60,0
1,note_on,73,0,60
1,note_on,67,0,0
1,note_on,67,52,100
1,note_on,73,62,0
1,note_on,73,0,60
1,note_on,67,0,0
1,note_on,66,56,100
1,note_on,74,66,0
1,note_on,74,0,240
1,note_on,66,0,0
1,note_on,65,49,240
1,note_on,71,59,0
1,note_on,71,0,480
1,note_on,65,0,0
1,note_on,62,51,0
1,note_on,68,61,0
1,note_on,68,0,60
1,note_on,62,0,0
1,note_on,62,48,100
1,note_on,66,57,0
1,note_on,66,0,60
1,note_on,62,0,0
1,note_on,62,48,100
1,note_on,64,57,0
1,note_on,64,0,60
1,note_on,62,0,0
1,note_on,61,50,100
1,note_on,69,60,0
1,note_on,69,0,720
1,note_on,61,0,0
1,note_on,68,50,0
1,note_on,71,60,0
1,note_on,71,0,240
1,note_on,68,0,0
1,note_on,67,48,0
1,note_on,73,57,0
1,note_on,73,0,60
1,note_on,67,0,0
1,note_on,67,50,100
1,note_on,74,60,0
1,note_on,74,0,60
1,note_on,67,0,0
1,note_on,67,53,100
1,note_on,76,63,0
1,note_on,76,0,60
1,note_on,67,0,0
1,note_on,66,57,100
1,note_on,74,68,0
1,note_on,74,0,240
1,note_on,66,0,0
1,note_on,65,50,240
1,note_on,71,60,0
1,note_on,71,0,480
1,note_on,65,0,0
1,note_on,62,51,0
1,note_on,68,61,0
1,note_on,68,0,60
1,note_on,62,0,0
1,note_on,62,51,100
1,note_on,66,63,0
1,note_on,66,0,60
1,note_on,62,0,0
1,note_on,62,51,100
1,note_on,64,64,0
1,note_on,64,0,60
1,note_on,62,0,0
1,note_on,61,57,100
1,note_on,69,68,0
1,note_on,69,0,960
1,note_on,61,0,0
1,note_on,73,80,0
1,note_on,69,68,0
1,note_on,69,0,240
1,note_on,73,0,0
1,note_on,73,75,120
1,note_on,69,64,0
1,note_on,69,0,120
1,note_on,73,0,0
1,note_on,74,79,0
1,note_on,71,67,0
1,note_on,71,0,360
1,note_on,74,0,0
1,note_on,71,72,120
1,note_on,68,60,0
1,note_on,68,0,360
1,note_on,71,0,0
1,note_on,69,65,120
1,note_on,73,77,0
1,note_on,73,0,160
1,note_on,69,0,0
1,note_on,68,60,0
1,note_on,71,72,0
1,note_on,71,0,160
1,note_on,68,0,0
1,note_on,69,72,0
1,note_on,66,60,0
1,note_on,66,0,160
1,note_on,69,0,0
1,note_on,71,66,0
1,note_on,74,78,0
1,note_on,74,0,360
1,note_on,71,0,0
1,note_on,68,61,120
1,note_on,71,73,0
1,note_on,71,0,360
1,note_on,68,0,0
1,note_on,73,80,120
1,note_on,69,68,0
1,note_on,69,0,240
1,note_on,73,0,0
1,note_on,73,75,120
1,note_on,69,64,0
1,note_on,69,0,120
1,note_on,73,0,0
1,note_on,74,79,0
1,note_on,71,67,0
1,note_on,71,0,360
1,note_on,74,0,0
1,note_on,71,72,120
1,note_on,68,60,0
1,note_on,68,0,360
1,note_on,71,0,0
1,note_on,69,65,120
1,note_on,73,77,0
1,note_on,73,0,160
1,note_on,69,0,0
1,note_on,68,60,0
1,note_on,71,72,0
1,note_on,71,0,160
1,note_on,68,0,0
1,note_on,69,72,0
1,note_on,66,60,0
1,note_on,66,0,160
1,note_on,69,0,0
1,note_on,78,75,0
1,note_on,90,89,0
1,note_on,90,0,480
1,note_on,78,0,0
1,note_on,78,70,0
1,note_on,90,83,0
1,note_on,90,0,480
1,note_on,78,0,0
1,note_on,73,80,0
1,note_on,69,68,0
1,note_on,69,0,240
1,note_on,73,0,0
1,note_on,73,75,120
1,note_on,69,64,0
1,note_on,69,0,120
1,note_on,73,0,0
1,note_on,74,79,0
1,note_on,71,67,0
1,note_on,71,0,360
1,note_on,74,0,0
1,note_on,71,72,120
1,note_on,68,60,0
1,note_on,68,0,360
1,note_on,71,0,0
1,note_on,69,65,120
1,note_on,73,77,0
1,note_on,73,0,160
1,note_on,69,0,0
1,note_on,68,60,0
1,note_on,71,72,0
1,note_on,71,0,160
1,note_on,68,0,0
1,note_on,69,72,0
1,note_on,66,60,0
1,note_on,66,0,160
1,note_on,69,0,0
1,note_on,71,66,0
1,note_on,74,78,0
1,note_on,74,0,360
1,note_on,71,0,0
1,note_on,68,61,120
1,note_on,71,73,0
1,note_on,71,0,360
1,note_on,68,0,0
1,note_on,69,57,120
1,note_on,73,68,0
1,note_on,73,0,240
1,note_on,75,71,0
1,note_on,75,0,240
1,note_on,69,0,0
1,note_on,68,62,0
1,note_on,76,74,0
1,note_on,76,0,960
1,note_on,68,0,0
1,note_on,69,57,0
1,note_on,73,68,0
1,note_on,73,0,240
1,note_on,75,71,0
1,note_on,75,0,120
1,note_on,78,69,0
1,note_on,78,0,120
1,note_on,69,0,0
1,note_on,68,62,0
1,note_on,76,74,0
1,note_on,76,0,720
1,note_on,74,70,0
1,note_on,74,0,240
1,note_on,68,0,0
1,note_on,67,50,0
1,note_on,73,60,0
1,note_on,73,0,240
1,note_on,73,55,120
1,note_on,73,0,120
1,note_on,67,0,0
1,note_on,66,51,0
1,note_on,74,61,0
1,note_on,74,0,480
1,note_on,66,0,0
1,note_on,65,49,0
1,note_on,71,59,0
1,note_on,71,0,480
1,note_on,65,0,0
1,note_on,62,50,0
1,note_on,68,60,0
1,note_on,68,0,360
1,note_on,64,57,0
1,note_on,64,0,120
1,note_on,62,0,0
1,note_on,61,50,0
1,note_on,69,60,0
1,note_on,69,0,720
1,note_on,61,0,0
1,note_on,68,50,0
1,note_on,71,60,0
1,note_on,71,0,240
1,note_on,68,0,0
1,note_on,67,51,0
1,note_on,73,61,0
1,note_on,73,0,360
1,note_on,76,60,0
1,note_on,76,0,120
1,note_on,67,0,0
1,note_on,66,53,0
1,note_on,74,63,0
1,note_on,74,0,480
1,note_on,66,0,0
1,note_on,65,50,0
1,note_on,71,60,0
1,note_on,71,0,480
1,note_on,65,0,0
1,note_on,62,51,0
1,note_on,68,61,0
1,note_on,68,0,160
1,note_on,66,63,0
1,note_on,66,0,160
1,note_on,64,64,0
1,note_on,64,0,160
1,note_on,62,0,0
1,note_on,61,58,0
1,note_on,69,69,0
1,note_on,69,0,720
1,note_on,61,0,0
1,note_on,68,50,0
1,note_on,71,60,0
1,note_on,71,0,240
1,note_on,68,0,0
1,note_on,67,49,0
1,note_on,73,58,0
1,note_on,73,0,60
1,note_on,67,0,0
1,note_on,67,50,100
1,note_on,73,60,0
1,note_on,73,0,60
1,note_on,67,0,0
1,note_on,67,52,100
1,note_on,73,62,0
1,note_on,73,0,60
1,note_on,67,0,0
1,note_on,66,56,100
1,note_on,74,66,0
1,note_on,74,0,240
1,note_on,66,0,0
1,note_on,65,49,240
1,note_on,71,59,0
1,note_on,71,0,480
1,note_on,65,0,0
1,note_on,62,51,0
1,note_on,68,61,0
1,note_on,68,0,60
1,note_on,62,0,0
1,note_on,62,48,100
1,note_on,66,57,0
1,note_on,66,0,60
1,note_on,62,0,0
1,note_on,62,48,100
1,note_on,64,57,0
1,note_on,64,0,60
1,note_on,62,0,0
1,note_on,61,50,100
1,note_on,69,60,0
1,note_on,69,0,720
1,note_on,61,0,0
1,note_on,68,50,0
1,note_on,71,60,0
1,note_on,71,0,240
1,note_on,68,0,0
1,note_on,67,48,0
1,note_on,73,57,0
1,note_on,73,0,60
1,note_on,67,0,0
1,note_on,67,50,100
1,note_on,74,60,0
1,note_on,74,0,60
1,note_on,67,0,0
1,note_on,67,53,100
1,note_on,76,63,0
1,note_on,76,0,60
1,note_on,67,0,0
1,note_on,66,57,100
1,note_on,74,68,0
1,note_on,74,0,240
1,note_on,66,0,0
1,note_on,65,50,240
1,note_on,71,60,0
1,note_on,71,0,480
1,note_on,65,0,0
1,note_on,62,51,0
1,note_on,68,61,0
1,note_on,68,0,60
1,note_on,62,0,0
1,note_on,62,51,100
1,note_on,66,63,0
1,note_on,66,0,60
1,note_on,62,0,0
1,note_on,62,51,100
1,note_on,64,64,0
1,note_on,64,0,60
1,note_on,62,0,0
1,note_on,61,57,100
1,note_on,69,68,0
1,note_on,69,0,480
1,note_on,61,0,0
1,note_on,76,45,0
1,note_on,76,0,480
1,note_on,77,46,0
1,note_on,77,0,360
1,note_on,76,45,0
1,note_on,76,0,120
1,note_on,74,45,0
1,note_on,74,0,480
1,note_on,77,48,0
1,note_on,77,0,475
1,note_on,77,47,5
1,note_on,77,0,960
1,note_on,76,43,0
1,note_on,76,0,480
1,note_on,74,42,0
1,note_on,74,0,80
1,note_on,76,43,0
1,note_on,76,0,80
1,note_on,74,44,0
1,note_on,74,0,80
1,note_on,73,45,0
1,note_on,73,0,240
1,note_on,74,47,0
1,note_on,74,0,240
1,note_on,75,45,0
1,note_on,75,0,240
1,note_on,76,51,0
1,note_on,76,0,240
1,note_on,71,46,0
1,note_on,71,0,240
1,note_on,74,54,0
1,note_on,74,0,960
1,note_on,72,45,0
1,note_on,72,0,480
1,note_on,69,62,0
1,note_on,69,0,160
1,note_on,71,57,0
1,note_on,71,0,160
1,note_on,69,57,0
1,note_on,69,0,160
1,note_on,68,63,0
1,note_on,68,0,240
1,note_on,69,67,240
1,note_on,69,0,240
1,note_on,71,70,240
1,note_on,71,0,240
1,note_on,76,72,240
1,note_on,76,0,960
1,note_on,71,76,0
1,note_on,71,0,240
1,note_on,67,73,0
1,note_on,67,0,240
1,note_on,64,76,0
1,note_on,64,0,240
1,note_on,71,71,0
1,note_on,71,0,240
1,note_on,63,73,0
1,note_on,63,0,480
1,note_on,64,76,0
1,note_on,64,0,960
1,note_on,76,45,0
1,note_on,76,0,480
1,note_on,77,46,0
1,note_on,77,0,360
1,note_on,76,45,0
1,note_on,76,0,120
1,note_on,74,45,0
1,note_on,74,0,480
1,note_on,77,48,0
1,note_on,77,0,476
1,note_on,77,47,4
1,note_on,77,0,960
1,note_on,76,43,0
1,note_on,76,0,480
1,note_on,74,42,0
1,note_on,74,0,80
1,note_on,76,43,0
1,note_on,76,0,80
1,note_on,74,44,0
1,note_on,74,0,80
1,note_on,73,45,0
1,note_on,73,0,240
1,note_on,74,47,0
1,note_on,74,0,240
1,note_on,75,45,0
1,note_on,75,0,240
1,note_on,76,47,0
1,note_on,76,0,240
1,note_on,71,42,0
1,note_on,71,0,115
1,note_on,71,42,5
1,note_on,71,0,120
1,note_on,74,53,0
1,note_on,74,0,960
1,note_on,72,45,0
1,note_on,72,0,480
1,note_on,69,41,0
1,note_on,69,0,160
1,note_on,70,38,0
1,note_on,70,0,160
1,note_on,69,38,0
1,note_on,69,0,160
1,note_on,67,42,0
1,note_on,67,0,480
1,note_on,69,45,0
1,note_on,69,0,480
1,note_on,70,47,0
1,note_on,70,0,480
1,note_on,74,48,0
1,note_on,74,0,480
1,note_on,69,40,480
1,note_on,69,0,360
1,note_on,68,37,0
1,note_on,68,0,120
1,note_on,62,34,0
1,note_on,64,40,0
1,note_on,64,0,480
1,note_on,62,0,0
1,note_on,68,38,0
1,note_on,62,32,0
1,note_on,62,0,480
1,note_on,68,0,0
1,note_on,60,33,0
1,note_on,69,39,0
1,note_on,60,0,480
1,note_on,69,0,480
2,note_on,65,27,1920
2,note_on,62,22,0
2,note_on,57,22,0
2,note_on,57,0,416
2,note_on,62,0,0
2,note_on,65,0,0
2,note_on,65,27,0
2,note_on,62,22,0
2,note_on,57,22,0
2,note_on,57,0,480
2,note_on,62,0,0
2,note_on,65,0,0
2,note_on,65,25,186
2,note_on,60,21,0
2,note_on,57,21,0
2,note_on,57,0,480
2,note_on,60,0,0
2,note_on,65,0,0
2,note_on,64,25,0
2,note_on,60,21,0
2,note_on,57,21,0
2,note_on,57,0,471
2,note_on,60,0,0
2,note_on,64,0,0
2,note_on,62,28,480
2,note_on,52,23,0
2,note_on,56,23,0
2,note_on,56,0,480
2,note_on,52,0,0
2,note_on,62,0,0
2,note_on,62,25,0
2,note_on,56,21,0
2,note_on,52,21,0
2,note_on,52,0,480
2,note_on,56,0,0
2,note_on,62,0,0
2,note_on,45,30,480
2,note_on,45,0,400
2,note_on,60,28,0
2,note_on,52,22,0
2,note_on,52,0,480
2,note_on,60,0,0
2,note_on,52,39,388
2,note_on,60,46,0
2,note_on,60,0,232
2,note_on,52,0,0
2,note_on,45,48,240
2,note_on,45,0,240
2,note_on,52,41,720
2,note_on,59,49,0
2,note_on,55,41,0
2,note_on,55,0,353
2,note_on,59,0,0
2,note_on,52,0,0
2,note_on,47,56,0
2,note_on,47,0,480
2,note_on,47,45,324
2,note_on,55,45,0
2,note_on,59,54,0
2,note_on,59,0,480
2,note_on,55,0,0
2,note_on,47,0,0
2,note_on,47,41,0
2,note_on,54,41,0
2,note_on,59,49,0
2,note_on,59,0,339
2,note_on,54,0,0
2,note_on,47,0,0
2,note_on,52,45,0
2,note_on,55,45,0
2,note_on,59,54,0
2,note_on,59,0,293
2,note_on,55,0,0
2,note_on,52,0,0
2,note_on,40,50,0
2,note_on,40,0,480
2,note_on,65,27,942
2,note_on,62,22,0
2,note_on,57,22,0
2,note_on,57,0,416
2,note_on,62,0,0
2,note_on,65,0,0
2,note_on,65,27,0
2,note_on,62,22,0
2,note_on,57,22,0
2,note_on,57,0,480
2,note_on,62,0,0
2,note_on,65,0,0
2,note_on,65,25,160
2,note_on,60,21,0
2,note_on,57,21,0
2,note_on,57,0,480
2,note_on,60,0,0
2,note_on,65,0,0
2,note_on,64,25,0
2,note_on,60,21,0
2,note_on,57,21,0
2,note_on,57,0,462
2,note_on,60,0,0
2,note_on,64,0,0
2,note_on,62,28,480
2,note_on,52,23,0
2,note_on,56,23,0
2,note_on,56,0,480
2,note_on,52,0,0
2,note_on,62,0,0
2,note_on,62,25,0
2,note_on,56,21,0
2,note_on,52,21,0
2,note_on,52,0,480
2,note_on,56,0,0
2,note_on,62,0,0
2,note_on,53,21,480
2,note_on,57,21,0
2,note_on,62,28,0
2,note_on,62,0,400
2,note_on,57,0,0
2,note_on,53,0,0
2,note_on,57,21,0
2,note_on,60,26,0
2,note_on,53,21,0
2,note_on,53,0,480
2,note_on,60,0,0
2,note_on,57,0,0
2,note_on,60,29,388
2,note_on,53,29,0
2,note_on,63,34,0
2,note_on,63,0,472
2,note_on,53,0,0
2,note_on,60,0,0
2,note_on,53,29,0
2,note_on,60,29,0
2,note_on,63,34,0
2,note_on,63,0,480
2,note_on,60,0,0
2,note_on,53,0,0
2,note_on,58,34,0
2,note_on,62,37,0
2,note_on,62,0,320
2,note_on,65,37,0
2,note_on,65,0,480
2,note_on,58,0,0
2,note_on,52,29,409
2,note_on,59,35,0
2,note_on,59,0,405
2,note_on,52,0,0
2,note_on,52,26,0
2,note_on,59,31,0
2,note_on,59,0,339
2,note_on,52,0,0
2,note_on,45,29,0
2,note_on,52,35,0
2,note_on,52,0,213
2,note_on,45,0,0
2,note_on,33,36,0
2,note_on,33,0,480
2,note_on,65,27,953
2,note_on,62,22,0
2,note_on,57,22,0
2,note_on,57,0,388
2,note_on,62,0,0
2,note_on,65,0,0
2,note_on,65,27,0
2,note_on,62,22,0
2,note_on,57,22,0
2,note_on,57,0,480
2,note_on,62,0,0
2,note_on,65,0,0
2,note_on,65,25,133
2,note_on,60,21,0
2,note_on,57,21,0
2,note_on,57,0,480
2,note_on,60,0,0
2,note_on,65,0,0
2,note_on,64,25,0
2,note_on,60,21,0
2,note_on,57,21,0
2,note_on,57,0,473
2,note_on,60,0,0
2,note_on,64,0,0
2,note_on,62,28,480
2,note_on,52,23,0
2,note_on,56,23,0
2,note_on,56,0,480
2,note_on,52,0,0
2,note_on,62,0,0
2,note_on,62,25,0
2,note_on,56,21,0
2,note_on,52,21,0
2,note_on,52,0,480
2,note_on,56,0,0
2,note_on,62,0,0
2,note_on,45,30,480
2,note_on,45,0,400
2,note_on,60,28,0
2,note_on,52,22,0
2,note_on,52,0,480
2,note_on,60,0,0
2,note_on,52,39,388
2,note_on,60,46,0
2,note_on,60,0,231
2,note_on,52,0,0
2,note_on,45,48,240
2,note_on,45,0,240
2,note_on,52,41,720
2,note_on,59,49,0
2,note_on,55,41,0
2,note_on,55,0,353
2,note_on,59,0,0
2,note_on,52,0,0
2,note_on,47,56,0
2,note_on,47,0,480
2,note_on,47,45,324
2,note_on,55,45,0
2,note_on,59,54,0
2,note_on,59,0,480
2,note_on,55,0,0
2,note_on,47,0,0
2,note_on,47,41,0
2,note_on,54,41,0
2,note_on,59,49,0
2,note_on,59,0,339
2,note_on,54,0,0
2,note_on,47,0,0
2,note_on,52,45,0
2,note_on,55,45,0
2,note_on,59,54,0
2,note_on,59,0,186
2,note_on,55,0,0
2,note_on,52,0,0
2,note_on,40,50,0
2,note_on,40,0,480
2,note_on,65,27,946
2,note_on,62,22,0
2,note_on,57,22,0
2,note_on,57,0,388
2,note_on,62,0,0
2,note_on,65,0,0
2,note_on,65,27,0
2,note_on,62,22,0
2,note_on,57,22,0
2,note_on,57,0,480
2,note_on,62,0,0
2,note_on,65,0,0
2,note_on,65,25,213
2,note_on,60,21,0
2,note_on,57,21,0
2,note_on,57,0,480
2,note_on,60,0,0
2,note_on,65,0,0
2,note_on,64,25,0
2,note_on,60,21,0
2,note_on,57,21,0
2,note_on,57,0,470
2,note_on,60,0,0
2,note_on,64,0,0
2,note_on,62,28,480
2,note_on,52,23,0
2,note_on,56,23,0
2,note_on,56,0,480
2,note_on,52,0,0
2,note_on,62,0,0
2,note_on,62,25,0
2,note_on,56,21,0
2,note_on,52,21,0
2,note_on,52,0,480
2,note_on,56,0,0
2,note_on,62,0,0
2,note_on,53,21,480
2,note_on,57,21,0
2,note_on,62,28,0
2,note_on,62,0,400
2,note_on,57,0,0
2,note_on,53,0,0
2,note_on,57,21,0
2,note_on,60,26,0
2,note_on,53,21,0
2,note_on,53,0,480
2,note_on,60,0,0
2,note_on,57,0,0
2,note_on,60,29,388
2,note_on,53,29,0
2,note_on,63,34,0
2,note_on,63,0,463
2,note_on,53,0,0
2,note_on,60,0,0
2,note_on,53,29,0
2,note_on,60,29,0
2,note_on,63,34,0
2,note_on,63,0,480
2,note_on,60,0,0
2,note_on,53,0,0
2,note_on,58,34,0
2,note_on,62,37,0
2,note_on,62,0,320
2,note_on,65,37,0
2,note_on,65,0,480
2,note_on,58,0,0
2,note_on,52,29,409
2,note_on,59,35,0
2,note_on,59,0,377
2,note_on,52,0,0
2,note_on,52,26,0
2,note_on,59,31,0
2,note_on,59,0,339
2,note_on,52,0,0
2,note_on,45,29,0
2,note_on,52,35,0
2,note_on,52,0,293
2,note_on,45,0,0
2,note_on,33,30,0
2,note_on,33,0,480
2,note_on,66,32,946
2,note_on,60,27,0
2,note_on,56,27,0
2,note_on,56,0,374
2,note_on,60,0,0
2,note_on,66,0,0
2,note_on,66,32,0
2,note_on,60,27,0
2,note_on,56,27,0
2,note_on,56,0,480
2,note_on,60,0,0
2,note_on,66,0,0
2,note_on,66,33,251
2,note_on,60,27,0
2,note_on,55,27,0
2,note_on,55,0,480
2,note_on,60,0,0
2,note_on,66,0,0
2,note_on,67,33,0
2,note_on,59,27,0
2,note_on,55,27,0
2,note_on,55,0,476
2,note_on,59,0,0
2,note_on,67,0,0
2,note_on,66,36,480
2,note_on,60,30,0
2,note_on,56,30,0
2,note_on,56,0,374
2,note_on,60,0,0
2,note_on,66,0,0
2,note_on,66,38,0
2,note_on,60,31,0
2,note_on,56,31,0
2,note_on,56,0,480
2,note_on,60,0,0
2,note_on,66,0,0
2,note_on,65,48,281
2,note_on,59,40,0
2,note_on,56,40,0
2,note_on,56,0,480
2,note_on,59,0,0
2,note_on,65,0,0
2,note_on,65,48,0
2,note_on,58,40,0
2,note_on,56,40,0
2,note_on,56,0,470
2,note_on,58,0,0
2,note_on,65,0,0
2,note_on,65,59,343
2,note_on,58,48,0
2,note_on,55,48,0
2,note_on,55,0,480
2,note_on,58,0,0
2,note_on,65,0,0
2,note_on,64,55,0
2,note_on,58,46,0
2,note_on,55,46,0
2,note_on,55,0,468
2,note_on,58,0,0
2,note_on,64,0,0
2,note_on,64,54,343
2,note_on,57,42,0
2,note_on,55,42,0
2,note_on,55,0,480
2,note_on,57,0,0
2,note_on,64,0,0
2,note_on,63,48,0
2,note_on,57,40,0
2,note_on,54,40,0
2,note_on,54,0,469
2,note_on,57,0,0
2,note_on,63,0,0
2,note_on,63,44,228
2,note_on,56,35,0
2,note_on,53,35,0
2,note_on,53,0,480
2,note_on,56,0,0
2,note_on,63,0,0
2,note_on,62,39,0
2,note_on,56,32,0
2,note_on,53,32,0
2,note_on,53,0,472
2,note_on,56,0,0
2,note_on,62,0,0
2,note_on,62,36,343
2,note_on,55,29,0
2,note_on,52,29,0
2,note_on,52,0,480
2,note_on,55,0,0
2,note_on,62,0,0
2,note_on,61,28,0
2,note_on,55,22,0
2,note_on,52,22,0
2,note_on,52,0,477
2,note_on,55,0,0
2,note_on,61,0,0
2,note_on,50,22,0
2,note_on,53,22,0
2,note_on,62,28,0
2,note_on,62,0,480
2,note_on,53,0,0
2,note_on,50,0,0
2,note_on,65,27,0
2,note_on,62,22,0
2,note_on,57,22,0
2,note_on,57,0,282
2,note_on,62,0,0
2,note_on,65,0,0
2,note_on,65,27,0
2,note_on,62,22,0
2,note_on,57,22,0
2,note_on,57,0,480
2,note_on,62,0,0
2,note_on,65,0,0
2,note_on,65,25,186
2,note_on,60,21,0
2,note_on,57,21,0
2,note_on,57,0,480
2,note_on,60,0,0
2,note_on,65,0,0
2,note_on,64,25,0
2,note_on,60,21,0
2,note_on,57,21,0
2,note_on,57,0,470
2,note_on,60,0,0
2,note_on,64,0,0
2,note_on,62,28,480
2,note_on,52,23,0
2,note_on,56,23,0
2,note_on,56,0,480
2,note_on,52,0,0
2,note_on,62,0,0
2,note_on,62,25,0
2,note_on,56,21,0
2,note_on,52,21,0
2,note_on,52,0,480
2,note_on,56,0,0
2,note_on,62,0,0
2,note_on,53,21,480
2,note_on,57,21,0
2,note_on,62,28,0
2,note_on,62,0,400
2,note_on,57,0,0
2,note_on,53,0,0
2,note_on,57,21,0
2,note_on,60,26,0
2,note_on,53,21,0
2,note_on,53,0,480
2,note_on,60,0,0
2,note_on,57,0,0
2,note_on,60,29,388
2,note_on,53,29,0
2,note_on,63,34,0
2,note_on,63,0,469
2,note_on,53,0,0
2,note_on,60,0,0
2,note_on,53,29,0
2,note_on,60,29,0
2,note_on,63,34,0
2,note_on,63,0,480
2,note_on,60,0,0
2,note_on,53,0,0
2,note_on,58,34,0
2,note_on,62,37,0
2,note_on,62,0,320
2,note_on,65,37,0
2,note_on,65,0,480
2,note_on,58,0,0
2,note_on,52,29,409
2,note_on,59,35,0
2,note_on,59,0,365
2,note_on,52,0,0
2,note_on,52,26,0
2,note_on,59,31,0
2,note_on,59,0,339
2,note_on,52,0,0
2,note_on,45,29,0
2,note_on,52,35,0
2,note_on,52,0,240
2,note_on,45,0,0
2,note_on,33,30,0
2,note_on,33,0,480
2,note_on,66,32,956
2,note_on,60,27,0
2,note_on,56,27,0
2,note_on,56,0,374
2,note_on,60,0,0
2,note_on,66,0,0
2,note_on,66,32,0
2,note_on,60,27,0
2,note_on,56,27,0
2,note_on,56,0,480
2,note_on,60,0,0
2,note_on,66,0,0
2,note_on,66,33,251
2,note_on,60,27,0
2,note_on,55,27,0
2,note_on,55,0,480
2,note_on,60,0,0
2,note_on,66,0,0
2,note_on,67,33,0
2,note_on,59,27,0
2,note_on,55,27,0
2,note_on,55,0,475
2,note_on,59,0,0
2,note_on,67,0,0
2,note_on,66,36,480
2,note_on,60,30,0
2,note_on,56,30,0
2,note_on,56,0,374
2,note_on,60,0,0
2,note_on,66,0,0
2,note_on,66,38,0
2,note_on,60,31,0
2,note_on,56,31,0
2,note_on,56,0,480
2,note_on,60,0,0
2,note_on,66,0,0
2,note_on,65,48,343
2,note_on,59,40,0
2,note_on,56,40,0
2,note_on,56,0,480
2,note_on,59,0,0
2,note_on,65,0,0
2,note_on,65,48,0
2,note_on,58,40,0
2,note_on,56,40,0
2,note_on,56,0,472
2,note_on,58,0,0
2,note_on,65,0,0
2,note_on,65,59,343
2,note_on,58,48,0
2,note_on,55,48,0
2,note_on,55,0,480
2,note_on,58,0,0
2,note_on,65,0,0
2,note_on,64,55,0
2,note_on,58,46,0
2,note_on,55,46,0
2,note_on,55,0,469
2,note_on,58,0,0
2,note_on,64,0,0
2,note_on,64,54,343
2,note_on,57,42,0
2,note_on,55,42,0
2,note_on,55,0,480
2,note_on,57,0,0
2,note_on,64,0,0
2,note_on,63,48,0
2,note_on,57,40,0
2,note_on,54,40,0
2,note_on,54,0,471
2,note_on,57,0,0
2,note_on,63,0,0
2,note_on,63,44,343
2,note_on,56,35,0
2,note_on,53,35,0
2,note_on,53,0,480
2,note_on,56,0,0
2,note_on,63,0,0
2,note_on,62,39,0
2,note_on,56,32,0
2,note_on,53,32,0
2,note_on,53,0,471
2,note_on,56,0,0
2,note_on,62,0,0
2,note_on,62,36,343
2,note_on,55,29,0
2,note_on,52,29,0
2,note_on,52,0,480
2,note_on,55,0,0
2,note_on,62,0,0
2,note_on,61,28,0
2,note_on,55,22,0
2,note_on,52,22,0
2,note_on,52,0,472
2,note_on,55,0,0
2,note_on,61,0,0
2,note_on,50,22,0
2,note_on,53,22,0
2,note_on,62,28,0
2,note_on,62,0,480
2,note_on,53,0,0
2,note_on,50,0,0
2,note_on,65,27,0
2,note_on,62,22,0
2,note_on,57,22,0
2,note_on,57,0,381
2,note_on,62,0,0
2,note_on,65,0,0
2,note_on,65,27,0
2,note_on,62,22,0
2,note_on,57,22,0
2,note_on,57,0,480
2,note_on,62,0,0
2,note_on,65,0,0
2,note_on,65,25,160
2,note_on,60,21,0
2,note_on,57,21,0
2,note_on,57,0,480
2,note_on,60,0,0
2,note_on,65,0,0
2,note_on,64,25,0
2,note_on,60,21,0
2,note_on,57,21,0
2,note_on,57,0,473
2,note_on,60,0,0
2,note_on,64,0,0
2,note_on,62,28,480
2,note_on,52,23,0
2,note_on,56,23,0
2,note_on,56,0,480
2,note_on,52,0,0
2,note_on,62,0,0
2,note_on,62,25,0
2,note_on,56,21,0
2,note_on,52,21,0
2,note_on,52,0,480
2,note_on,56,0,0
2,note_on,62,0,0
2,note_on,53,21,480
2,note_on,57,21,0
2,note_on,62,28,0
2,note_on,62,0,400
2,note_on,57,0,0
2,note_on,53,0,0
2,note_on,57,21,0
2,note_on,60,26,0
2,note_on,53,21,0
2,note_on,53,0,480
2,note_on,60,0,0
2,note_on,57,0,0
2,note_on,60,29,388
2,note_on,53,29,0
2,note_on,63,34,0
2,note_on,63,0,469
2,note_on,53,0,0
2,note_on,60,0,0
2,note_on,53,29,0
2,note_on,60,29,0
2,note_on,63,34,0
2,note_on,63,0,480
2,note_on,60,0,0
2,note_on,53,0,0
2,note_on,58,34,0
2,note_on,62,37,0
2,note_on,62,0,320
2,note_on,65,37,0
2,note_on,65,0,480
2,note_on,58,0,0
2,note_on,52,29,409
2,note_on,59,35,0
2,note_on,59,0,365
2,note_on,52,0,0
2,note_on,52,26,0
2,note_on,59,31,0
2,note_on,59,0,339
2,note_on,52,0,0
2,note_on,45,19,114
2,note_on,57,22,0
2,note_on,57,0,480
2,note_on,45,0,0
2,note_on,45,20,0
2,note_on,57,23,0
2,note_on,57,0,473
2,note_on,45,0,0
2,note_on,50,36,0
2,note_on,50,0,480
2,note_on,38,36,0
2,note_on,38,0,480
2,note_on,40,42,0
2,note_on,40,0,409
2,note_on,45,35,0
2,note_on,45,0,310
2,note_on,52,39,0
2,note_on,52,0,230
2,note_on,57,44,0
2,note_on,57,0,395
2,note_on,50,41,0
2,note_on,50,0,360
2,note_on,38,36,120
2,note_on,38,0,480
2,note_on,40,41,0
2,note_on,40,0,416
2,note_on,45,36,0
2,note_on,45,0,353
2,note_on,52,41,0
2,note_on,52,0,226
2,note_on,57,44,0
2,note_on,57,0,480
2,note_on,50,36,0
2,note_on,50,0,240
2,note_on,38,36,240
2,note_on,38,0,480
2,note_on,40,42,0
2,note_on,40,0,480
2,note_on,45,35,0
2,note_on,45,0,445
2,note_on,52,39,0
2,note_on,52,0,228
2,note_on,57,44,0
2,note_on,57,0,480
2,note_on,50,41,0
2,note_on,50,0,240
2,note_on,38,36,240
2,note_on,38,0,480
2,note_on,40,41,0
2,note_on,40,0,480
2,note_on,45,36,0
2,note_on,45,0,445
2,note_on,57,41,0
2,note_on,57,0,480
2,note_on,54,58,0
2,note_on,61,70,0
2,note_on,61,0,225
2,note_on,61,63,120
2,note_on,61,0,120
2,note_on,62,69,0
2,note_on,62,0,268
2,note_on,59,63,120
2,note_on,59,0,7
2,note_on,54,0,120
2,note_on,54,55,0
2,note_on,61,66,0
2,note_on,61,0,160
2,note_on,59,57,0
2,note_on,59,0,160
2,note_on,57,57,0
2,note_on,57,0,160
2,note_on,62,66,0
2,note_on,62,0,254
2,note_on,59,57,120
2,note_on,59,0,360
2,note_on,54,0,120
2,note_on,54,58,0
2,note_on,61,70,0
2,note_on,61,0,240
2,note_on,61,63,120
2,note_on,61,0,120
2,note_on,62,69,0
2,note_on,62,0,268
2,note_on,59,63,120
2,note_on,59,0,360
2,note_on,54,0,78
2,note_on,54,55,0
2,note_on,61,66,0
2,note_on,61,0,160
2,note_on,59,57,0
2,note_on,59,0,160
2,note_on,57,57,0
2,note_on,57,0,160
2,note_on,54,0,0
2,note_on,42,75,0
2,note_on,54,75,0
2,note_on,54,0,374
2,note_on,42,0,0
2,note_on,42,65,0
2,note_on,54,65,0
2,note_on,54,0,480
2,note_on,42,0,0
2,note_on,54,58,0
2,note_on,61,70,0
2,note_on,61,0,238
2,note_on,61,63,120
2,note_on,61,0,120
2,note_on,62,69,0
2,note_on,62,0,268
2,note_on,59,63,120
2,note_on,59,0,28
2,note_on,54,0,120
2,note_on,54,55,0
2,note_on,61,66,0
2,note_on,61,0,160
2,note_on,59,57,0
2,note_on,59,0,160
2,note_on,57,57,0
2,note_on,57,0,160
2,note_on,62,66,0
2,note_on,62,0,254
2,note_on,59,57,120
2,note_on,59,0,56
2,note_on,61,53,120
2,note_on,61,0,240
2,note_on,59,57,0
2,note_on,54,0,240
2,note_on,52,51,0
2,note_on,59,0,960
2,note_on,61,53,0
2,note_on,61,0,240
2,note_on,59,57,0
2,note_on,52,0,240
2,note_on,52,51,0
2,note_on,52,0,880
2,note_on,59,0,0
2,note_on,57,49,0
2,note_on,57,0,480
2,note_on,50,40,0
2,note_on,50,0,480
2,note_on,38,40,0
2,note_on,38,0,480
2,note_on,40,47,0
2,note_on,40,0,360
2,note_on,45,39,0
2,note_on,45,0,367
2,note_on,52,44,0
2,note_on,52,0,229
2,note_on,57,49,0
2,note_on,57,0,423
2,note_on,50,46,0
2,note_on,50,0,466
2,note_on,38,40,0
2,note_on,38,0,480
2,note_on,40,46,0
2,note_on,40,0,381
2,note_on,45,40,0
2,note_on,45,0,360
2,note_on,52,46,0
2,note_on,52,0,224
2,note_on,57,49,0
2,note_on,57,0,480
2,note_on,50,40,0
2,note_on,50,0,480
2,note_on,38,40,0
2,note_on,38,0,480
2,note_on,40,47,0
2,note_on,40,0,480
2,note_on,45,39,0
2,note_on,45,0,426
2,note_on,52,44,0
2,note_on,52,0,227
2,note_on,57,49,0
2,note_on,57,0,480
2,note_on,50,46,0
2,note_on,50,0,480
2,note_on,38,40,0
2,note_on,38,0,480
2,note_on,40,46,0
2,note_on,40,0,480
2,note_on,45,40,0
2,note_on,45,0,423
2,note_on,57,46,0
2,note_on,57,0,480
2,note_on,54,58,0
2,note_on,61,70,0
2,note_on,61,0,236
2,note_on,61,63,120
2,note_on,61,0,120
2,note_on,62,69,0
2,note_on,62,0,268
2,note_on,59,63,120
2,note_on,59,0,360
2,note_on,54,0,78
2,note_on,54,55,0
2,note_on,61,66,0
2,note_on,61,0,160
2,note_on,59,57,0
2,note_on,59,0,160
2,note_on,57,57,0
2,note_on,57,0,160
2,note_on,62,66,0
2,note_on,62,0,254
2,note_on,59,57,120
2,note_on,59,0,360
2,note_on,54,0,35
2,note_on,54,58,0
2,note_on,61,70,0
2,note_on,61,0,240
2,note_on,61,63,120
2,note_on,61,0,120
2,note_on,62,69,0
2,note_on,62,0,268
2,note_on,59,63,120
2,note_on,59,0,360
2,note_on,54,0,78
2,note_on,54,55,0
2,note_on,61,66,0
2,note_on,61,0,160
2,note_on,59,57,0
2,note_on,59,0,160
2,note_on,57,57,0
2,note_on,57,0,160
2,note_on,54,0,0
2,note_on,42,75,0
2,note_on,54,75,0
2,note_on,54,0,374
2,note_on,42,0,0
2,note_on,42,65,0
2,note_on,54,65,0
2,note_on,54,0,480
2,note_on,42,0,0
2,note_on,54,58,0
2,note_on,61,70,0
2,note_on,61,0,237
2,note_on,61,63,120
2,note_on,61,0,120
2,note_on,62,69,0
2,note_on,62,0,268
2,note_on,59,63,120
2,note_on,59,0,360
2,note_on,54,0,78
2,note_on,54,55,0
2,note_on,61,66,0
2,note_on,61,0,160
2,note_on,59,57,0
2,note_on,59,0,160
2,note_on,57,57,0
2,note_on,57,0,160
2,note_on,62,66,0
2,note_on,62,0,254
2,note_on,59,57,120
2,note_on,59,0,360
2,note_on,61,53,35
2,note_on,61,0,240
2,note_on,59,57,0
2,note_on,54,0,240
2,note_on,52,51,0
2,note_on,59,0,960
2,note_on,61,53,0
2,note_on,61,0,240
2,note_on,59,57,0
2,note_on,52,0,240
2,note_on,52,51,0
2,note_on,52,0,788
2,note_on,59,0,0
2,note_on,57,49,0
2,note_on,57,0,475
2,note_on,50,40,0
2,note_on,50,0,480
2,note_on,38,40,0
2,note_on,38,0,480
2,note_on,40,47,0
2,note_on,40,0,381
2,note_on,45,39,0
2,note_on,45,0,296
2,note_on,52,44,0
2,note_on,52,0,230
2,note_on,57,49,0
2,note_on,57,0,480
2,note_on,50,46,0
2,note_on,50,0,480
2,note_on,38,40,0
2,note_on,38,0,480
2,note_on,40,46,0
2,note_on,40,0,353
2,note_on,45,40,0
2,note_on,45,0,303
2,note_on,52,46,0
2,note_on,52,0,233
2,note_on,57,49,0
2,note_on,57,0,480
2,note_on,50,40,0
2,note_on,50,0,480
2,note_on,38,40,0
2,note_on,38,0,480
2,note_on,40,47,0
2,note_on,40,0,480
2,note_on,45,39,0
2,note_on,45,0,363
2,note_on,52,44,0
2,note_on,52,0,229
2,note_on,57,49,0
2,note_on,57,0,480
2,note_on,50,46,0
2,note_on,50,0,480
2,note_on,38,40,0
2,note_on,38,0,480
2,note_on,40,46,0
2,note_on,40,0,480
2,note_on,33,34,0
2,note_on,45,40,0
2,note_on,45,0,376
2,note_on,33,0,0
2,note_on,65,27,943
2,note_on,62,22,0
2,note_on,57,22,0
2,note_on,57,0,367
2,note_on,62,0,0
2,note_on,65,0,0
2,note_on,65,27,0
2,note_on,62,22,0
2,note_on,57,22,0
2,note_on,57,0,480
2,note_on,62,0,0
2,note_on,65,0,0
2,note_on,65,25,106
2,note_on,60,21,0
2,note_on,57,21,0
2,note_on,57,0,480
2,note_on,60,0,0
2,note_on,65,0,0
2,note_on,64,25,0
2,note_on,60,21,0
2,note_on,57,21,0
2,note_on,57,0,461
2,note_on,60,0,0
2,note_on,64,0,0
2,note_on,62,28,480
2,note_on,52,23,0
2,note_on,56,23,0
2,note_on,56,0,480
2,note_on,52,0,0
2,note_on,62,0,0
2,note_on,62,25,0
2,note_on,56,21,0
2,note_on,52,21,0
2,note_on,52,0,480
2,note_on,56,0,0
2,note_on,62,0,0
2,note_on,45,30,480
2,note_on,45,0,400
2,note_on,60,28,0
2,note_on,52,22,0
2,note_on,52,0,480
2,note_on,60,0,0
2,note_on,52,39,388
2,note_on,60,46,0
2,note_on,60,0,230
2,note_on,52,0,0
2,note_on,45,48,240
2,note_on,45,0,240
2,note_on,52,41,720
2,note_on,59,49,0
2,note_on,55,41,0
2,note_on,55,0,353
2,note_on,59,0,0
2,note_on,52,0,0
2,note_on,47,56,0
2,note_on,47,0,480
2,note_on,47,45,296
2,note_on,55,45,0
2,note_on,59,54,0
2,note_on,59,0,480
2,note_on,55,0,0
2,note_on,47,0,0
2,note_on,47,41,0
2,note_on,54,41,0
2,note_on,59,49,0
2,note_on,59,0,339
2,note_on,54,0,0
2,note_on,47,0,0
2,note_on,52,45,0
2,note_on,55,45,0
2,note_on,59,54,0
2,note_on,59,0,293
2,note_on,55,0,0
2,note_on,52,0,0
2,note_on,40,50,0
2,note_on,40,0,480
2,note_on,65,27,946
2,note_on,62,22,0
2,note_on,57,22,0
2,note_on,57,0,289
2,note_on,62,0,0
2,note_on,65,0,0
2,note_on,65,27,0
2,note_on,62,22,0
2,note_on,57,22,0
2,note_on,57,0,480
2,note_on,62,0,0
2,note_on,65,0,0
2,note_on,65,25,266
2,note_on,60,21,0
2,note_on,57,21,0
2,note_on,57,0,480
2,note_on,60,0,0
2,note_on,65,0,0
2,note_on,64,25,0
2,note_on,60,21,0
2,note_on,57,21,0
2,note_on,57,0,466
2,note_on,60,0,0
2,note_on,64,0,0
2,note_on,62,28,480
2,note_on,52,23,0
2,note_on,56,23,0
2,note_on,56,0,480
2,note_on,52,0,0
2,note_on,62,0,0
2,note_on,62,25,0
2,note_on,56,21,0
2,note_on,52,21,0
2,note_on,52,0,480
2,note_on,56,0,0
2,note_on,62,0,0
2,note_on,53,21,480
2,note_on,57,21,0
2,note_on,62,28,0
2,note_on,62,0,400
2,note_on,57,0,0
2,note_on,53,0,0
2,note_on,57,21,0
2,note_on,60,26,0
2,note_on,53,21,0
2,note_on,53,0,480
2,note_on,60,0,0
2,note_on,57,0,0
2,note_on,60,26,388
2,note_on,53,26,0
2,note_on,63,30,0
2,note_on,63,0,472
2,note_on,53,0,0
2,note_on,60,0,0
2,note_on,53,26,0
2,note_on,60,26,0
2,note_on,63,30,0
2,note_on,63,0,480
2,note_on,60,0,0
2,note_on,53,0,0
2,note_on,58,30,0
2,note_on,62,33,0
2,note_on,62,0,320
2,note_on,65,33,0
2,note_on,65,0,480
2,note_on,58,0,0
2,note_on,52,24,409
2,note_on,59,29,0
2,note_on,59,0,354
2,note_on,52,0,0
2,note_on,52,22,0
2,note_on,59,26,0
2,note_on,59,0,339
2,note_on,52,0,0
2,note_on,45,24,0
2,note_on,52,29,0
2,note_on,52,0,293
2,note_on,45,0,0
2,note_on,33,25,0
2,note_on,33,0,480
