Track,Message Type,Note,Velocity,Time
1,note_on,64,60,0
1,note_on,64,0,480
1,note_on,64,60,0
1,note_on,64,0,360
1,note_on,64,57,0
1,note_on,64,0,120
1,note_on,64,60,0
1,note_on,64,0,480
1,note_on,65,58,0
1,note_on,65,0,480
1,note_on,64,60,0
1,note_on,64,0,480
1,note_on,60,58,0
1,note_on,60,0,480
1,note_on,64,60,0
1,note_on,64,0,960
1,note_on,64,38,0
1,note_on,55,28,0
1,note_on,60,28,0
1,note_on,60,0,480
1,note_on,55,0,0
1,note_on,64,0,0
1,note_on,64,38,0
1,note_on,55,28,0
1,note_on,60,28,0
1,note_on,60,0,360
1,note_on,55,0,0
1,note_on,64,0,0
1,note_on,55,26,0
1,note_on,64,36,0
1,note_on,60,26,0
1,note_on,60,0,120
1,note_on,64,0,0
1,note_on,55,0,0
1,note_on,60,28,0
1,note_on,55,28,0
1,note_on,64,38,0
1,note_on,64,0,480
1,note_on,55,0,0
1,note_on,60,0,0
1,note_on,65,36,0
1,note_on,57,26,0
1,note_on,60,26,0
1,note_on,60,0,480
1,note_on,57,0,0
1,note_on,65,0,0
1,note_on,60,26,0
1,note_on,55,26,0
1,note_on,64,36,0
1,note_on,64,0,480
1,note_on,55,0,0
1,note_on,60,0,0
1,note_on,57,25,0
1,note_on,60,34,0
1,note_on,60,0,480
1,note_on,57,0,0
1,note_on,60,22,0
1,note_on,64,31,0
1,note_on,55,22,0
1,note_on,55,0,480
1,note_on,60,0,0
1,note_on,62,19,0
1,note_on,56,19,0
1,note_on,101,96,478
1,note_on,56,0,2
1,note_on,64,0,0
1,note_on,62,0,0
1,note_on,101,0,78
1,note_on,96,71,3
1,note_on,100,91,78
1,note_on,96,0,2
1,note_on,100,0,78
1,note_on,93,71,3
1,note_on,99,84,79
1,note_on,93,0,1
1,note_on,96,71,78
1,note_on,99,0,1
1,note_on,96,0,79
1,note_on,98,82,0
1,note_on,98,0,80
1,note_on,93,69,3
1,note_on,97,79,79
1,note_on,93,0,1
1,note_on,97,0,79
1,note_on,93,69,0
1,note_on,96,79,77
1,note_on,93,0,3
1,note_on,96,0,77
1,note_on,88,69,4
1,note_on,95,78,79
1,note_on,88,0,1
1,note_on,88,71,78
1,note_on,95,0,1
1,note_on,94,78,77
1,note_on,88,0,2
1,note_on,84,71,77
1,note_on,94,0,1
1,note_on,84,0,79
1,note_on,93,78,0
1,note_on,93,0,80
1,note_on,88,71,2
1,note_on,92,78,78
1,note_on,88,0,2
1,note_on,92,0,78
1,note_on,84,69,0
1,note_on,84,0,80
1,note_on,91,71,5
1,note_on,84,69,77
1,note_on,91,0,3
1,note_on,90,71,75
1,note_on,84,0,2
1,note_on,90,0,78
1,note_on,81,69,0
1,note_on,81,0,80
1,note_on,89,78,0
1,note_on,89,0,80
1,note_on,84,71,2
1,note_on,84,0,80
1,note_on,88,78,1
1,note_on,88,0,80
1,note_on,81,71,0
1,note_on,81,0,80
1,note_on,87,78,0
1,note_on,87,0,80
1,note_on,84,71,0
1,note_on,86,78,77
1,note_on,84,0,3
1,note_on,86,0,77
1,note_on,81,69,3
1,note_on,85,71,79
1,note_on,81,0,1
1,note_on,85,0,79
1,note_on,81,69,0
1,note_on,84,71,78
1,note_on,81,0,2
1,note_on,84,0,78
1,note_on,76,69,3
1,note_on,76,0,80
1,note_on,83,71,1
1,note_on,83,0,80
1,note_on,76,69,0
1,note_on,82,71,79
1,note_on,76,0,1
1,note_on,72,69,77
1,note_on,82,0,2
1,note_on,72,0,78
1,note_on,81,71,4
1,note_on,76,69,79
1,note_on,81,0,1
1,note_on,76,0,79
1,note_on,80,71,1
1,note_on,80,0,80
1,note_on,72,69,0
1,note_on,79,71,78
1,note_on,72,0,2
1,note_on,72,69,75
1,note_on,79,0,3
1,note_on,72,0,77
1,note_on,78,71,2
1,note_on,69,69,79
1,note_on,78,0,1
1,note_on,69,0,79
1,note_on,77,56,4
1,note_on,72,51,76
1,note_on,77,0,4
1,note_on,72,0,76
1,note_on,76,56,3
1,note_on,76,0,80
1,note_on,69,56,1
1,note_on,69,0,80
1,note_on,75,56,0
1,note_on,75,0,80
1,note_on,72,51,0
1,note_on,74,56,78
1,note_on,72,0,2
1,note_on,69,51,77
1,note_on,74,0,1
1,note_on,73,56,78
1,note_on,69,0,1
1,note_on,73,0,79
1,note_on,69,51,0
1,note_on,69,0,80
1,note_on,72,56,4
1,note_on,64,51,75
1,note_on,72,0,5
1,note_on,64,0,75
1,note_on,71,56,2
1,note_on,64,50,78
1,note_on,71,0,2
1,note_on,64,0,78
1,note_on,70,55,4
1,note_on,60,49,76
1,note_on,70,0,4
1,note_on,60,0,76
1,note_on,69,53,0
1,note_on,69,0,80
1,note_on,64,47,5
1,note_on,68,50,76
1,note_on,64,0,4
1,note_on,68,0,76
1,note_on,60,46,0
1,note_on,60,0,80
1,note_on,67,49,2
1,note_on,67,0,80
1,note_on,60,46,1
1,note_on,60,0,80
1,note_on,66,47,1
1,note_on,57,45,79
1,note_on,66,0,1
1,note_on,65,47,77
1,note_on,57,0,2
1,note_on,60,45,77
1,note_on,65,0,1
1,note_on,60,0,79
1,note_on,64,47,3
1,note_on,57,45,78
1,note_on,64,0,2
1,note_on,57,0,78
1,note_on,63,46,0
1,note_on,63,0,80
1,note_on,60,44,3
1,note_on,62,45,79
1,note_on,60,0,1
1,note_on,57,42,75
1,note_on,62,0,4
1,note_on,57,0,76
1,note_on,61,45,3
1,note_on,57,40,79
1,note_on,61,0,1
1,note_on,57,0,79
1,note_on,60,44,2
1,note_on,52,42,79
1,note_on,60,0,1
1,note_on,52,0,79
1,note_on,59,44,0
1,note_on,52,42,79
1,note_on,59,0,1
1,note_on,58,47,77
1,note_on,52,0,2
1,note_on,58,0,78
1,note_on,48,45,1
1,note_on,48,0,80
1,note_on,57,49,1
1,note_on,57,0,80
1,note_on,52,47,2
1,note_on,56,53,79
1,note_on,52,0,1
1,note_on,56,0,79
1,note_on,48,49,2
1,note_on,57,56,79
1,note_on,48,0,1
1,note_on,52,53,77
1,note_on,57,0,2
1,note_on,60,59,77
1,note_on,52,0,1
1,note_on,60,0,79
1,note_on,53,59,2
1,note_on,64,59,79
1,note_on,53,0,1
1,note_on,59,59,77
1,note_on,64,0,2
1,note_on,59,0,78
1,note_on,62,59,4
1,note_on,65,59,79
1,note_on,62,0,1
1,note_on,76,59,76
1,note_on,65,0,3
1,note_on,76,0,77
1,note_on,71,59,5
1,note_on,74,62,75
1,note_on,71,0,5
1,note_on,74,0,75
1,note_on,77,64,5
1,note_on,88,67,79
1,note_on,77,0,1
1,note_on,83,68,76
1,note_on,88,0,3
1,note_on,83,0,77
1,note_on,86,69,1
1,note_on,77,70,78
1,note_on,86,0,2
1,note_on,77,0,78
1,note_on,86,69,5
1,note_on,81,68,79
1,note_on,86,0,1
1,note_on,84,67,75
1,note_on,81,0,4
1,note_on,84,0,76
1,note_on,77,66,5
1,note_on,74,64,79
1,note_on,77,0,1
1,note_on,69,62,78
1,note_on,74,0,1
1,note_on,72,58,77
1,note_on,69,0,2
1,note_on,72,0,78
1,note_on,65,58,0
1,note_on,65,0,80
1,note_on,62,58,3
1,note_on,57,58,78
1,note_on,62,0,2
1,note_on,60,58,76
1,note_on,57,0,2
1,note_on,60,0,78
1,note_on,53,58,3
1,note_on,53,0,80
1,note_on,64,59,1
1,note_on,59,59,78
1,note_on,64,0,2
1,note_on,62,59,77
1,note_on,59,0,1
1,note_on,62,0,79
1,note_on,65,59,2
1,note_on,65,0,80
1,note_on,76,59,1
1,note_on,76,0,80
1,note_on,71,59,0
1,note_on,71,0,80
1,note_on,74,64,0
1,note_on,77,64,78
1,note_on,74,0,2
1,note_on,88,66,76
1,note_on,77,0,2
1,note_on,88,0,78
1,note_on,83,67,2
1,note_on,83,0,80
1,note_on,86,69,3
1,note_on,76,69,75
1,note_on,86,0,5
1,note_on,76,0,75
1,note_on,86,67,3
1,note_on,86,0,80
1,note_on,81,66,0
1,note_on,84,64,79
1,note_on,81,0,1
1,note_on,76,62,77
1,note_on,84,0,2
1,note_on,76,0,78
1,note_on,74,61,5
1,note_on,74,0,80
1,note_on,69,60,0
1,note_on,72,59,78
1,note_on,69,0,2
1,note_on,64,59,77
1,note_on,72,0,1
1,note_on,64,0,79
1,note_on,62,59,0
1,note_on,62,0,80
1,note_on,57,59,0
1,note_on,57,0,80
1,note_on,60,59,3
1,note_on,59,59,76
1,note_on,60,0,4
1,note_on,59,0,76
1,note_on,69,59,1
1,note_on,64,58,79
1,note_on,69,0,1
1,note_on,64,0,79
1,note_on,68,58,4
1,note_on,71,58,76
1,note_on,68,0,4
1,note_on,71,0,76
1,note_on,81,58,3
1,note_on,76,58,79
1,note_on,81,0,1
1,note_on,80,58,77
1,note_on,76,0,2
1,note_on,80,0,78
1,note_on,83,57,3
1,note_on,83,0,80
1,note_on,93,58,1
1,note_on,88,59,77
1,note_on,93,0,3
1,note_on,88,0,77
1,note_on,92,59,1
1,note_on,92,0,80
1,note_on,83,59,2
1,note_on,92,60,75
1,note_on,83,0,5
1,note_on,92,0,75
1,note_on,87,60,5
1,note_on,90,59,78
1,note_on,87,0,2
1,note_on,83,59,75
1,note_on,90,0,3
1,note_on,83,0,77
1,note_on,80,59,3
1,note_on,75,58,78
1,note_on,80,0,2
1,note_on,75,0,78
1,note_on,78,55,4
1,note_on,71,55,78
1,note_on,78,0,2
1,note_on,71,0,78
1,note_on,68,55,0
1,note_on,63,55,78
1,note_on,68,0,2
1,note_on,63,0,78
1,note_on,66,55,4
1,note_on,59,55,75
1,note_on,66,0,5
1,note_on,59,0,75
1,note_on,69,55,0
1,note_on,69,0,80
1,note_on,64,55,4
1,note_on,68,55,77
1,note_on,64,0,3
1,note_on,68,0,77
1,note_on,71,55,4
1,note_on,81,55,76
1,note_on,71,0,4
1,note_on,81,0,76
1,note_on,76,55,1
1,note_on,80,55,78
1,note_on,76,0,2
1,note_on,80,0,78
1,note_on,83,59,4
1,note_on,83,0,80
1,note_on,93,59,1
1,note_on,88,59,79
1,note_on,93,0,1
1,note_on,92,59,78
1,note_on,88,0,1
1,note_on,92,0,79
1,note_on,83,59,1
1,note_on,100,81,78
1,note_on,83,0,2
1,note_on,100,0,238
1,note_on,101,94,719
1,note_on,96,69,79
1,note_on,101,0,1
1,note_on,96,0,79
1,note_on,100,90,0
1,note_on,100,0,80
1,note_on,93,69,0
1,note_on,93,0,80
1,note_on,99,84,4
1,note_on,99,0,80
1,note_on,96,69,1
1,note_on,98,82,76
1,note_on,96,0,4
1,note_on,93,67,75
1,note_on,98,0,1
1,note_on,93,0,79
1,note_on,97,79,3
1,note_on,93,67,77
1,note_on,97,0,3
1,note_on,93,0,77
1,note_on,96,78,0
1,note_on,96,0,80
1,note_on,88,67,2
1,note_on,88,0,80
1,note_on,95,77,2
1,note_on,95,0,80
1,note_on,88,69,0
1,note_on,94,75,79
1,note_on,88,0,1
1,note_on,84,69,76
1,note_on,94,0,3
1,note_on,84,0,77
1,note_on,93,73,2
1,note_on,88,69,79
1,note_on,93,0,1
1,note_on,88,0,79
1,note_on,92,73,3
1,note_on,84,67,77
1,note_on,92,0,3
1,note_on,84,0,77
1,note_on,91,69,1
1,note_on,84,67,79
1,note_on,91,0,1
1,note_on,84,0,79
1,note_on,90,69,2
1,note_on,90,0,80
1,note_on,81,67,0
1,note_on,81,0,80
1,note_on,89,73,0
1,note_on,84,69,77
1,note_on,89,0,3
1,note_on,84,0,77
1,note_on,88,73,3
1,note_on,88,0,80
1,note_on,81,69,2
1,note_on,87,73,79
1,note_on,81,0,1
1,note_on,87,0,79
1,note_on,84,69,1
1,note_on,86,73,76
1,note_on,84,0,4
1,note_on,86,0,76
1,note_on,81,67,1
1,note_on,85,69,79
1,note_on,81,0,1
1,note_on,85,0,79
1,note_on,81,67,4
1,note_on,84,69,77
1,note_on,81,0,3
1,note_on,84,0,77
1,note_on,76,67,3
1,note_on,83,69,75
1,note_on,76,0,5
1,note_on,83,0,75
1,note_on,76,67,3
1,note_on,82,69,77
1,note_on,76,0,3
1,note_on,82,0,77
1,note_on,72,67,2
1,note_on,72,0,80
1,note_on,81,69,3
1,note_on,76,67,75
1,note_on,81,0,5
1,note_on,76,0,75
1,note_on,80,69,5
1,note_on,72,67,76
1,note_on,80,0,4
1,note_on,72,0,76
1,note_on,79,69,0
1,note_on,79,0,80
1,note_on,72,67,3
1,note_on,78,69,78
1,note_on,72,0,2
1,note_on,69,67,77
1,note_on,78,0,1
1,note_on,69,0,79
1,note_on,77,56,2
1,note_on,77,0,80
1,note_on,70,56,0
1,note_on,76,56,79
1,note_on,70,0,1
1,note_on,76,0,79
1,note_on,67,51,0
1,note_on,67,0,80
1,note_on,75,56,1
1,note_on,75,0,80
1,note_on,70,51,0
1,note_on,70,0,80
1,note_on,74,56,2
1,note_on,67,51,79
1,note_on,74,0,1
1,note_on,73,56,78
1,note_on,67,0,1
1,note_on,73,0,79
1,note_on,70,51,1
1,note_on,72,56,79
1,note_on,70,0,1
1,note_on,67,51,78
1,note_on,72,0,1
1,note_on,71,56,78
1,note_on,67,0,1
1,note_on,71,0,79
1,note_on,67,50,3
1,note_on,70,55,79
1,note_on,67,0,1
1,note_on,70,0,79
1,note_on,64,49,2
1,note_on,69,53,76
1,note_on,64,0,4
1,note_on,69,0,76
1,note_on,60,47,0
1,note_on,60,0,80
1,note_on,68,50,2
1,note_on,68,0,80
1,note_on,58,46,1
1,note_on,67,49,79
1,note_on,58,0,1
1,note_on,60,46,78
1,note_on,67,0,1
1,note_on,60,0,79
1,note_on,66,47,0
1,note_on,58,45,78
1,note_on,66,0,2
1,note_on,58,0,78
1,note_on,65,47,4
1,note_on,60,45,79
1,note_on,65,0,1
1,note_on,60,0,79
1,note_on,64,47,0
1,note_on,64,0,80
1,note_on,58,45,1
1,note_on,58,0,80
1,note_on,63,46,0
1,note_on,60,44,76
1,note_on,63,0,4
1,note_on,60,0,76
1,note_on,62,45,3
1,note_on,62,0,80
1,note_on,55,42,2
1,note_on,55,0,80
1,note_on,61,45,0
1,note_on,58,40,78
1,note_on,61,0,2
1,note_on,58,0,78
1,note_on,60,44,1
1,note_on,55,39,76
1,note_on,60,0,4
1,note_on,55,0,76
1,note_on,59,44,4
1,note_on,59,0,80
1,note_on,55,42,1
1,note_on,60,47,76
1,note_on,55,0,4
1,note_on,60,0,76
1,note_on,58,45,2
1,note_on,61,49,78
1,note_on,58,0,2
1,note_on,61,0,78
1,note_on,55,47,0
1,note_on,62,53,79
1,note_on,55,0,1
1,note_on,62,0,79
1,note_on,58,49,5
1,note_on,58,0,80
1,note_on,63,56,0
1,note_on,55,53,79
1,note_on,63,0,1
1,note_on,64,59,75
1,note_on,55,0,4
1,note_on,64,0,76
1,note_on,58,56,1
1,note_on,69,59,79
1,note_on,58,0,1
1,note_on,69,0,79
1,note_on,64,59,0
1,note_on,64,0,80
1,note_on,67,59,3
1,note_on,67,0,80
1,note_on,70,59,1
1,note_on,81,59,79
1,note_on,70,0,1
1,note_on,76,59,78
1,note_on,81,0,1
1,note_on,76,0,79
1,note_on,79,59,0
1,note_on,82,59,79
1,note_on,79,0,1
1,note_on,82,0,79
1,note_on,93,60,1
1,note_on,93,0,80
1,note_on,88,62,1
1,note_on,91,64,77
1,note_on,88,0,3
1,note_on,91,0,77
1,note_on,82,66,1
1,note_on,82,0,80
1,note_on,93,67,3
1,note_on,87,67,77
1,note_on,93,0,3
1,note_on,87,0,77
1,note_on,91,66,3
1,note_on,91,0,80
1,note_on,82,64,1
1,note_on,82,0,80
1,note_on,81,64,0
1,note_on,75,62,79
1,note_on,81,0,1
1,note_on,79,62,76
1,note_on,75,0,3
1,note_on,79,0,77
1,note_on,70,59,4
1,note_on,69,59,75
1,note_on,70,0,5
1,note_on,69,0,75
1,note_on,63,59,0
1,note_on,63,0,80
1,note_on,67,59,4
1,note_on,58,59,79
1,note_on,67,0,1
1,note_on,58,0,79
1,note_on,69,59,0
1,note_on,69,0,80
1,note_on,62,59,2
1,note_on,67,59,75
1,note_on,62,0,5
1,note_on,67,0,75
1,note_on,70,59,5
1,note_on,81,59,78
1,note_on,70,0,2
1,note_on,74,59,76
1,note_on,81,0,2
1,note_on,79,59,77
1,note_on,74,0,1
1,note_on,79,0,79
1,note_on,82,59,3
1,note_on,93,60,78
1,note_on,82,0,2
1,note_on,93,0,78
1,note_on,86,62,0
1,note_on,86,0,80
1,note_on,91,66,4
1,note_on,82,68,78
1,note_on,91,0,2
1,note_on,82,0,78
1,note_on,93,69,0
1,note_on,85,69,77
1,note_on,93,0,3
1,note_on,85,0,77
1,note_on,91,68,2
1,note_on,91,0,80
1,note_on,82,67,0
1,note_on,82,0,80
1,note_on,81,66,0
1,note_on,81,0,80
1,note_on,73,64,2
1,note_on,79,59,79
1,note_on,73,0,1
1,note_on,70,59,78
1,note_on,79,0,1
1,note_on,70,0,79
1,note_on,69,59,2
1,note_on,61,59,79
1,note_on,69,0,1
1,note_on,61,0,79
1,note_on,67,59,0
1,note_on,58,59,79
1,note_on,67,0,1
1,note_on,69,59,77
1,note_on,58,0,2
1,note_on,69,0,78
1,note_on,60,59,4
1,note_on,67,59,76
1,note_on,60,0,4
1,note_on,67,0,76
1,note_on,58,59,3
1,note_on,58,0,80
1,note_on,72,59,2
1,note_on,69,59,77
1,note_on,72,0,3
1,note_on,69,0,77
1,note_on,70,61,2
1,note_on,67,62,78
1,note_on,70,0,2
1,note_on,67,0,78
1,note_on,81,64,0
1,note_on,81,0,80
1,note_on,72,64,2
1,note_on,79,64,79
1,note_on,72,0,1
1,note_on,70,64,78
1,note_on,79,0,1
1,note_on,70,0,79
1,note_on,84,64,3
1,note_on,81,64,78
1,note_on,84,0,2
1,note_on,82,62,76
1,note_on,81,0,2
1,note_on,82,0,78
1,note_on,79,61,1
1,note_on,93,61,78
1,note_on,79,0,2
1,note_on,93,0,78
1,note_on,84,60,4
1,note_on,84,0,80
1,note_on,91,59,1
1,note_on,82,59,78
1,note_on,91,0,2
1,note_on,96,59,75
1,note_on,82,0,3
1,note_on,96,0,77
1,note_on,93,59,1
1,note_on,94,59,79
1,note_on,93,0,1
1,note_on,94,0,79
1,note_on,91,59,3
1,note_on,98,59,77
1,note_on,91,0,3
1,note_on,98,0,77
1,note_on,93,59,5
1,note_on,93,0,80
1,note_on,96,59,0
1,note_on,89,59,78
1,note_on,96,0,2
1,note_on,89,0,78
1,note_on,92,59,1
1,note_on,92,0,80
1,note_on,89,59,1
1,note_on,93,59,75
1,note_on,89,0,5
1,note_on,93,0,75
1,note_on,84,59,0
1,note_on,84,0,80
1,note_on,88,59,4
1,note_on,84,59,79
1,note_on,88,0,1
1,note_on,89,59,77
1,note_on,84,0,2
1,note_on,81,59,77
1,note_on,89,0,1
1,note_on,81,0,79
1,note_on,85,59,1
1,note_on,85,0,80
1,note_on,81,59,2
1,note_on,86,59,79
1,note_on,81,0,1
1,note_on,77,59,78
1,note_on,86,0,1
1,note_on,77,0,79
1,note_on,80,59,1
1,note_on,80,0,80
1,note_on,77,59,1
1,note_on,77,0,80
1,note_on,81,59,1
1,note_on,81,0,80
1,note_on,74,59,0
1,note_on,76,59,79
1,note_on,74,0,1
1,note_on,76,0,79
1,note_on,74,59,0
1,note_on,74,0,80
1,note_on,77,59,1
1,note_on,77,0,80
1,note_on,69,59,1
1,note_on,76,59,75
1,note_on,69,0,5
1,note_on,76,0,75
1,note_on,71,59,3
1,note_on,74,59,79
1,note_on,71,0,1
1,note_on,77,59,78
1,note_on,74,0,1
1,note_on,88,59,78
1,note_on,77,0,1
1,note_on,88,0,79
1,note_on,83,59,5
1,note_on,86,55,75
1,note_on,83,0,5
1,note_on,86,0,75
1,note_on,89,53,2
1,note_on,89,0,80
1,note_on,100,55,1
1,note_on,95,56,78
1,note_on,100,0,2
1,note_on,95,0,78
1,note_on,98,57,2
1,note_on,89,58,78
1,note_on,98,0,2
1,note_on,89,0,78
1,note_on,93,57,0
1,note_on,89,57,79
1,note_on,93,0,1
1,note_on,89,0,79
1,note_on,91,56,4
1,note_on,83,56,76
1,note_on,91,0,4
1,note_on,83,0,76
1,note_on,81,55,1
1,note_on,81,0,80
1,note_on,77,55,3
1,note_on,77,0,80
1,note_on,79,55,1
1,note_on,71,59,79
1,note_on,79,0,1
1,note_on,71,0,79
1,note_on,88,59,0
1,note_on,79,59,79
1,note_on,88,0,1
1,note_on,86,59,78
1,note_on,79,0,1
1,note_on,86,0,79
1,note_on,77,59,3
1,note_on,83,59,76
1,note_on,77,0,4
1,note_on,83,0,76
1,note_on,79,59,4
1,note_on,84,59,76
1,note_on,79,0,4
1,note_on,84,0,76
1,note_on,76,59,0
1,note_on,76,0,80
1,note_on,87,59,2
1,note_on,87,0,80
1,note_on,84,59,2
1,note_on,88,59,75
1,note_on,84,0,5
1,note_on,88,0,75
1,note_on,79,59,0
1,note_on,79,0,80
1,note_on,90,59,3
1,note_on,88,55,79
1,note_on,90,0,1
1,note_on,91,59,77
1,note_on,88,0,2
1,note_on,91,0,78
1,note_on,84,55,1
1,note_on,84,0,80
1,note_on,94,59,4
1,note_on,91,51,76
1,note_on,94,0,4
1,note_on,95,58,75
1,note_on,91,0,1
1,note_on,95,0,79
1,note_on,88,55,0
1,note_on,88,0,80
1,note_on,96,59,5
1,note_on,91,58,75
1,note_on,96,0,5
1,note_on,91,0,75
1,note_on,97,61,0
1,note_on,97,0,80
1,note_on,88,59,0
1,note_on,88,0,80
1,note_on,98,64,2
1,note_on,98,0,80
1,note_on,91,62,3
1,note_on,99,69,77
1,note_on,91,0,3
1,note_on,99,0,77
1,note_on,88,67,0
1,note_on,88,0,80
1,note_on,100,89,3
1,note_on,100,0,80
1,note_on,95,64,0
1,note_on,99,75,78
1,note_on,95,0,2
1,note_on,99,0,78
1,note_on,91,64,2
1,note_on,98,73,79
1,note_on,91,0,1
1,note_on,95,64,77
1,note_on,98,0,2
1,note_on,97,61,77
1,note_on,95,0,1
1,note_on,91,59,78
1,note_on,97,0,1
1,note_on,91,0,79
1,note_on,96,61,3
1,note_on,96,0,80
1,note_on,91,59,2
1,note_on,95,61,77
1,note_on,91,0,3
1,note_on,88,59,76
1,note_on,95,0,1
1,note_on,88,0,79
1,note_on,94,69,2
1,note_on,91,64,78
1,note_on,94,0,2
1,note_on,91,0,78
1,note_on,93,69,3
1,note_on,93,0,80
1,note_on,88,64,1
1,note_on,92,69,77
1,note_on,88,0,3
1,note_on,92,0,77
1,note_on,88,64,3
1,note_on,91,69,75
1,note_on,88,0,5
1,note_on,91,0,75
1,note_on,84,59,5
1,note_on,90,61,78
1,note_on,84,0,2
1,note_on,90,0,78
1,note_on,84,59,1
1,note_on,89,61,79
1,note_on,84,0,1
1,note_on,79,59,76
1,note_on,89,0,3
1,note_on,79,0,77
1,note_on,88,69,1
1,note_on,88,0,80
1,note_on,83,64,1
1,note_on,87,69,78
1,note_on,83,0,2
1,note_on,87,0,78
1,note_on,79,64,2
1,note_on,86,69,78
1,note_on,79,0,2
1,note_on,86,0,78
1,note_on,83,64,3
1,note_on,83,0,80
1,note_on,85,61,2
1,note_on,79,59,75
1,note_on,85,0,5
1,note_on,79,0,75
1,note_on,84,61,4
1,note_on,79,59,79
1,note_on,84,0,1
1,note_on,79,0,79
1,note_on,83,61,1
1,note_on,83,0,80
1,note_on,76,59,0
1,note_on,82,69,79
1,note_on,76,0,1
1,note_on,82,0,79
1,note_on,79,64,1
1,note_on,81,69,76
1,note_on,79,0,4
1,note_on,81,0,76
1,note_on,76,64,4
1,note_on,76,0,80
1,note_on,80,69,0
1,note_on,80,0,80
1,note_on,76,64,0
1,note_on,79,69,76
1,note_on,76,0,4
1,note_on,79,0,76
1,note_on,71,59,5
1,note_on,78,61,78
1,note_on,71,0,2
1,note_on,78,0,78
1,note_on,71,59,1
1,note_on,77,61,76
1,note_on,71,0,4
1,note_on,77,0,76
1,note_on,67,59,3
1,note_on,67,0,80
1,note_on,76,59,2
1,note_on,71,55,75
1,note_on,76,0,5
1,note_on,71,0,75
1,note_on,75,59,1
1,note_on,67,55,79
1,note_on,75,0,1
1,note_on,67,0,79
1,note_on,74,59,5
1,note_on,71,55,78
1,note_on,74,0,2
1,note_on,73,59,76
1,note_on,71,0,2
1,note_on,73,0,78
1,note_on,67,55,4
1,note_on,72,59,77
1,note_on,67,0,3
1,note_on,72,0,77
1,note_on,67,55,2
1,note_on,71,59,77
1,note_on,67,0,3
1,note_on,64,55,76
1,note_on,71,0,1
1,note_on,64,0,79
1,note_on,70,59,1
1,note_on,70,0,80
1,note_on,67,55,2
1,note_on,67,0,80
1,note_on,69,59,2
1,note_on,64,55,75
1,note_on,69,0,5
1,note_on,64,0,75
1,note_on,68,59,5
1,note_on,64,55,77
1,note_on,68,0,3
1,note_on,67,59,75
1,note_on,64,0,2
1,note_on,67,0,78
1,note_on,60,55,4
1,note_on,66,59,77
1,note_on,60,0,3
1,note_on,66,0,77
1,note_on,60,55,4
1,note_on,65,59,79
1,note_on,60,0,1
1,note_on,65,0,79
1,note_on,55,55,1
1,note_on,64,55,76
1,note_on,55,0,4
1,note_on,64,0,76
1,note_on,59,50,1
1,note_on,63,53,78
1,note_on,59,0,2
1,note_on,63,0,78
1,note_on,55,47,4
1,note_on,62,50,76
1,note_on,55,0,4
1,note_on,62,0,76
1,note_on,59,46,2
1,note_on,61,49,79
1,note_on,59,0,1
1,note_on,61,0,79
1,note_on,55,45,4
1,note_on,60,47,75
1,note_on,55,0,5
1,note_on,60,0,75
1,note_on,55,45,1
1,note_on,55,0,80
1,note_on,59,46,0
1,note_on,59,0,80
1,note_on,52,42,0
1,note_on,58,45,79
1,note_on,52,0,1
1,note_on,58,0,79
1,note_on,55,45,3
1,note_on,55,0,80
1,note_on,57,47,2
1,note_on,57,0,80
1,note_on,47,45,0
1,note_on,56,47,76
1,note_on,47,0,4
1,note_on,56,0,76
1,note_on,52,46,3
1,note_on,55,49,79
1,note_on,52,0,1
1,note_on,55,0,79
1,note_on,47,46,0
1,note_on,47,0,80
1,note_on,54,49,2
1,note_on,52,46,77
1,note_on,54,0,3
1,note_on,52,0,77
1,note_on,55,50,3
1,note_on,48,50,78
1,note_on,55,0,2
1,note_on,59,59,75
1,note_on,48,0,3
1,note_on,59,0,77
1,note_on,54,59,3
1,note_on,54,0,80
1,note_on,57,59,0
1,note_on,60,59,79
1,note_on,57,0,1
1,note_on,60,0,79
1,note_on,71,59,3
1,note_on,66,59,78
1,note_on,71,0,2
1,note_on,66,0,78
1,note_on,69,62,0
1,note_on,69,0,80
1,note_on,72,66,0
1,note_on,83,67,78
1,note_on,72,0,2
1,note_on,83,0,78
1,note_on,78,69,1
1,note_on,78,0,80
1,note_on,81,69,0
1,note_on,72,69,78
1,note_on,81,0,2
1,note_on,72,0,78
1,note_on,81,68,4
1,note_on,76,67,77
1,note_on,81,0,3
1,note_on,79,66,76
1,note_on,76,0,1
1,note_on,79,0,79
1,note_on,72,62,2
1,note_on,72,0,80
1,note_on,69,61,1
1,note_on,64,60,77
1,note_on,69,0,3
1,note_on,64,0,77
1,note_on,67,58,1
1,note_on,60,58,79
1,note_on,67,0,1
1,note_on,60,0,79
1,note_on,57,58,3
1,note_on,52,58,79
1,note_on,57,0,1
1,note_on,52,0,79
1,note_on,55,58,1
1,note_on,55,0,80
1,note_on,48,58,1
1,note_on,59,59,78
1,note_on,48,0,2
1,note_on,59,0,78
1,note_on,54,59,2
1,note_on,57,59,78
1,note_on,54,0,2
1,note_on,57,0,78
1,note_on,60,59,3
1,note_on,71,59,78
1,note_on,60,0,2
1,note_on,66,59,76
1,note_on,71,0,2
1,note_on,66,0,78
1,note_on,69,64,4
1,note_on,69,0,80
1,note_on,72,66,0
1,note_on,83,67,77
1,note_on,72,0,3
1,note_on,83,0,77
1,note_on,78,68,3
1,note_on,81,69,76
1,note_on,78,0,4
1,note_on,81,0,76
1,note_on,71,70,4
1,note_on,81,70,78
1,note_on,71,0,2
1,note_on,76,69,77
1,note_on,81,0,1
1,note_on,76,0,79
1,note_on,79,68,1
1,note_on,79,0,80
1,note_on,71,67,1
1,note_on,69,66,76
1,note_on,71,0,4
1,note_on,69,0,76
1,note_on,64,64,1
1,note_on,64,0,80
1,note_on,67,59,0
1,note_on,67,0,80
1,note_on,59,59,1
1,note_on,59,0,80
1,note_on,57,59,3
1,note_on,52,59,79
1,note_on,57,0,1
1,note_on,52,0,79
1,note_on,55,59,0
1,note_on,55,0,80
1,note_on,54,59,1
1,note_on,64,59,77
1,note_on,54,0,3
1,note_on,64,0,77
1,note_on,59,58,0
1,note_on,59,0,80
1,note_on,63,58,3
1,note_on,66,58,76
1,note_on,63,0,4
1,note_on,66,0,76
1,note_on,76,58,1
1,note_on,76,0,80
1,note_on,71,58,1
1,note_on,75,58,79
1,note_on,71,0,1
1,note_on,75,0,79
1,note_on,78,58,2
1,note_on,78,0,80
1,note_on,88,59,0
1,note_on,88,0,80
1,note_on,83,59,0
1,note_on,83,0,80
1,note_on,87,61,0
1,note_on,78,62,76
1,note_on,87,0,4
1,note_on,78,0,76
1,note_on,87,64,1
1,note_on,87,0,80
1,note_on,82,64,0
1,note_on,82,0,80
1,note_on,85,61,3
1,note_on,85,0,80
1,note_on,78,60,1
1,note_on,75,59,77
1,note_on,78,0,3
1,note_on,75,0,77
1,note_on,70,59,1
1,note_on,73,55,77
1,note_on,70,0,3
1,note_on,73,0,77
1,note_on,66,55,5
1,note_on,63,55,76
1,note_on,66,0,4
1,note_on,63,0,76
1,note_on,58,55,2
1,note_on,58,0,80
1,note_on,61,55,0
1,note_on,54,55,79
1,note_on,61,0,1
1,note_on,54,0,79
1,note_on,63,55,2
1,note_on,59,55,76
1,note_on,63,0,4
1,note_on,59,0,76
1,note_on,63,55,0
1,note_on,63,0,80
1,note_on,66,55,0
1,note_on,66,0,80
1,note_on,76,55,0
1,note_on,76,0,80
1,note_on,71,55,2
1,note_on,75,55,79
1,note_on,71,0,1
1,note_on,75,0,79
1,note_on,78,59,3
1,note_on,88,59,76
1,note_on,78,0,4
1,note_on,88,0,76
1,note_on,83,59,2
1,note_on,87,59,78
1,note_on,83,0,2
1,note_on,87,0,78
1,note_on,78,59,4
1,note_on,95,83,78
1,note_on,78,0,2
1,note_on,95,0,238
1,note_on,96,94,722
1,note_on,91,70,77
1,note_on,96,0,3
1,note_on,91,0,77
1,note_on,95,90,3
1,note_on,88,70,79
1,note_on,95,0,1
1,note_on,88,0,79
1,note_on,94,88,0
1,note_on,94,0,80
1,note_on,91,70,0
1,note_on,93,85,77
1,note_on,91,0,3
1,note_on,93,0,77
1,note_on,88,68,3
1,note_on,92,84,77
1,note_on,88,0,3
1,note_on,92,0,77
1,note_on,88,68,5
1,note_on,91,80,77
1,note_on,88,0,3
1,note_on,91,0,77
1,note_on,83,68,3
1,note_on,90,81,79
1,note_on,83,0,1
1,note_on,83,70,78
1,note_on,90,0,1
1,note_on,83,0,79
1,note_on,89,77,1
1,note_on,89,0,80
1,note_on,79,70,0
1,note_on,88,77,78
1,note_on,79,0,2
1,note_on,88,0,78
1,note_on,83,70,0
1,note_on,87,77,78
1,note_on,83,0,2
1,note_on,87,0,78
1,note_on,79,68,4
1,note_on,86,73,77
1,note_on,79,0,3
1,note_on,79,68,76
1,note_on,86,0,1
1,note_on,79,0,79
1,note_on,85,70,1
1,note_on,85,0,80
1,note_on,76,68,3
1,note_on,84,77,77
1,note_on,76,0,3
1,note_on,84,0,77
1,note_on,79,70,0
1,note_on,79,0,80
1,note_on,83,77,1
1,note_on,76,70,78
1,note_on,83,0,2
1,note_on,76,0,78
1,note_on,82,77,2
1,note_on,82,0,80
1,note_on,79,70,1
1,note_on,79,0,80
1,note_on,81,77,0
1,note_on,81,0,80
1,note_on,76,68,1
1,note_on,80,70,78
1,note_on,76,0,2
1,note_on,80,0,78
1,note_on,76,68,0
1,note_on,76,0,80
1,note_on,79,70,3
1,note_on,79,0,80
1,note_on,71,70,0
1,note_on,78,70,78
1,note_on,71,0,2
1,note_on,78,0,78
1,note_on,71,68,2
1,note_on,77,70,75
1,note_on,71,0,5
1,note_on,77,0,75
1,note_on,67,68,3
1,note_on,67,0,80
1,note_on,76,70,2
1,note_on,71,68,77
1,note_on,76,0,3
1,note_on,75,70,76
1,note_on,71,0,1
1,note_on,75,0,79
1,note_on,67,68,0
1,note_on,74,70,79
1,note_on,67,0,1
1,note_on,74,0,79
1,note_on,67,68,3
1,note_on,73,70,79
1,note_on,67,0,1
1,note_on,64,68,77
1,note_on,73,0,2
1,note_on,64,0,78
1,note_on,72,61,0
1,note_on,72,0,80
1,note_on,67,59,2
1,note_on,67,0,80
1,note_on,71,61,3
1,note_on,71,0,80
1,note_on,64,59,0
1,note_on,70,61,77
1,note_on,64,0,3
1,note_on,70,0,77
1,note_on,67,59,2
1,note_on,69,61,79
1,note_on,67,0,1
1,note_on,69,0,79
1,note_on,64,59,1
1,note_on,64,0,80
1,note_on,68,61,1
1,note_on,64,59,78
1,note_on,68,0,2
1,note_on,64,0,78
1,note_on,67,61,0
1,note_on,59,59,77
1,note_on,67,0,3
1,note_on,59,0,77
1,note_on,66,61,4
1,note_on,59,58,78
1,note_on,66,0,2
1,note_on,59,0,78
1,note_on,65,60,1
1,note_on,65,0,80
1,note_on,55,56,0
1,note_on,55,0,80
1,note_on,64,59,0
1,note_on,64,0,80
1,note_on,59,55,1
1,note_on,59,0,80
1,note_on,63,59,0
1,note_on,54,53,78
1,note_on,63,0,2
1,note_on,62,56,76
1,note_on,54,0,2
1,note_on,62,0,78
1,note_on,55,51,1
1,note_on,55,0,80
1,note_on,61,55,1
1,note_on,53,49,79
1,note_on,61,0,1
1,note_on,53,0,79
1,note_on,60,55,3
1,note_on,55,50,78
1,note_on,60,0,2
1,note_on,55,0,78
1,note_on,59,53,3
1,note_on,53,49,75
1,note_on,59,0,5
1,note_on,53,0,75
1,note_on,58,50,4
1,note_on,55,47,79
1,note_on,58,0,1
1,note_on,55,0,79
1,note_on,57,49,2
1,note_on,50,46,76
1,note_on,57,0,4
1,note_on,50,0,76
1,note_on,56,49,2
1,note_on,56,0,80
1,note_on,53,46,2
1,note_on,55,49,79
1,note_on,53,0,1
1,note_on,55,0,79
1,note_on,47,45,1
1,note_on,54,49,76
1,note_on,47,0,4
1,note_on,54,0,76
1,note_on,53,46,4
1,note_on,55,53,79
1,note_on,53,0,1
1,note_on,55,0,79
1,note_on,47,50,1
1,note_on,47,0,80
1,note_on,56,56,0
1,note_on,56,0,80
1,note_on,53,55,0
1,note_on,57,59,78
1,note_on,53,0,2
1,note_on,50,56,76
1,note_on,57,0,2
1,note_on,50,0,78
1,note_on,58,61,2
1,note_on,55,59,78
1,note_on,58,0,2
1,note_on,55,0,78
1,note_on,59,64,0
1,note_on,59,0,80
1,note_on,53,64,3
1,note_on,53,0,80
1,note_on,64,69,0
1,note_on,59,69,77
1,note_on,64,0,3
1,note_on,59,0,77
1,note_on,62,69,3
1,note_on,65,69,78
1,note_on,62,0,2
1,note_on,76,69,76
1,note_on,65,0,2
1,note_on,76,0,78
1,note_on,71,69,4
1,note_on,71,0,80
1,note_on,74,66,1
1,note_on,77,67,75
1,note_on,74,0,5
1,note_on,77,0,75
1,note_on,88,69,1
1,note_on,88,0,80
1,note_on,83,70,2
1,note_on,86,72,79
1,note_on,83,0,1
1,note_on,86,0,79
1,note_on,77,73,2
1,note_on,88,77,77
1,note_on,77,0,3
1,note_on,88,0,77
1,note_on,82,73,3
1,note_on,82,0,80
1,note_on,86,72,1
1,note_on,77,71,75
1,note_on,86,0,5
1,note_on,77,0,75
1,note_on,76,69,3
1,note_on,76,0,80
1,note_on,70,69,1
1,note_on,74,64,77
1,note_on,70,0,3
1,note_on,65,64,76
1,note_on,74,0,1
1,note_on,65,0,79
1,note_on,64,64,1
1,note_on,64,0,80
1,note_on,58,64,3
1,note_on,58,0,80
1,note_on,62,64,1
1,note_on,53,64,78
1,note_on,62,0,2
1,note_on,64,69,77
1,note_on,53,0,1
1,note_on,64,0,79
1,note_on,57,69,2
1,note_on,62,69,77
1,note_on,57,0,3
1,note_on,62,0,77
1,note_on,65,69,2
1,note_on,76,69,78
1,note_on,65,0,2
1,note_on,76,0,78
1,note_on,69,69,0
1,note_on,69,0,80
1,note_on,74,68,4
1,note_on,77,68,76
1,note_on,74,0,4
1,note_on,88,69,75
1,note_on,77,0,1
1,note_on,88,0,79
1,note_on,81,70,4
1,note_on,86,71,76
1,note_on,81,0,4
1,note_on,86,0,76
1,note_on,77,72,0
1,note_on,77,0,80
1,note_on,88,73,0
1,note_on,88,0,80
1,note_on,80,72,2
1,note_on,80,0,80
1,note_on,86,71,1
1,note_on,77,70,79
1,note_on,86,0,1
1,note_on,77,0,79
1,note_on,76,69,0
1,note_on,76,0,80
1,note_on,68,69,0
1,note_on,74,64,78
1,note_on,68,0,2
1,note_on,74,0,78
1,note_on,65,64,3
1,note_on,65,0,80
1,note_on,64,64,1
1,note_on,56,64,78
1,note_on,64,0,2
1,note_on,56,0,78
1,note_on,62,64,1
1,note_on,62,0,80
1,note_on,53,64,2
1,note_on,64,69,78
1,note_on,53,0,2
1,note_on,64,0,78
1,note_on,55,69,0
1,note_on,62,69,77
1,note_on,55,0,3
1,note_on,62,0,77
1,note_on,53,69,2
1,note_on,67,69,79
1,note_on,53,0,1
1,note_on,67,0,79
1,note_on,64,69,1
1,note_on,64,0,80
1,note_on,65,70,3
1,note_on,62,70,77
1,note_on,65,0,3
1,note_on,76,70,75
1,note_on,62,0,2
1,note_on,76,0,78
1,note_on,67,70,3
1,note_on,67,0,80
1,note_on,74,70,1
1,note_on,74,0,80
1,note_on,65,70,0
1,note_on,65,0,80
1,note_on,79,69,1
1,note_on,79,0,80
1,note_on,76,69,0
1,note_on,77,69,76
1,note_on,76,0,4
1,note_on,77,0,76
1,note_on,74,69,4
1,note_on,88,69,78
1,note_on,74,0,2
1,note_on,88,0,78
1,note_on,79,69,1
1,note_on,79,0,80
1,note_on,86,64,0
1,note_on,86,0,80
1,note_on,77,59,0
1,note_on,77,0,80
1,note_on,91,59,1
1,note_on,91,0,80
1,note_on,88,59,0
1,note_on,88,0,80
1,note_on,89,59,0
1,note_on,86,59,78
1,note_on,89,0,2
1,note_on,93,62,77
1,note_on,86,0,1
1,note_on,88,62,77
1,note_on,93,0,2
1,note_on,88,0,78
1,note_on,91,62,2
1,note_on,91,0,80
1,note_on,84,62,2
1,note_on,100,68,78
1,note_on,84,0,2
1,note_on,91,62,77
1,note_on,100,0,1
1,note_on,98,66,78
1,note_on,91,0,1
1,note_on,98,0,79
1,note_on,88,59,3
1,note_on,88,0,80
1,note_on,96,63,1
1,note_on,92,59,76
1,note_on,96,0,4
1,note_on,92,0,76
1,note_on,95,63,0
1,note_on,95,0,80
1,note_on,88,59,2
1,note_on,88,0,80
1,note_on,94,62,2
1,note_on,94,0,80
1,note_on,89,59,0
1,note_on,92,62,76
1,note_on,89,0,4
1,note_on,92,0,76
1,note_on,85,59,0
1,note_on,85,0,80
1,note_on,90,62,0
1,note_on,90,0,80
1,note_on,85,59,2
1,note_on,89,62,78
1,note_on,85,0,2
1,note_on,89,0,78
1,note_on,80,59,5
1,note_on,87,62,78
1,note_on,80,0,2
1,note_on,80,59,75
1,note_on,87,0,3
1,note_on,80,0,77
1,note_on,85,62,5
1,note_on,77,59,78
1,note_on,85,0,2
1,note_on,85,59,77
1,note_on,77,0,1
1,note_on,78,59,77
1,note_on,85,0,2
1,note_on,78,0,78
1,note_on,84,59,1
1,note_on,84,0,80
1,note_on,76,59,1
1,note_on,76,0,80
1,note_on,79,59,1
1,note_on,79,0,80
1,note_on,72,59,1
1,note_on,80,55,76
1,note_on,72,0,4
1,note_on,80,0,76
1,note_on,76,55,4
1,note_on,78,55,76
1,note_on,76,0,4
1,note_on,78,0,76
1,note_on,72,55,3
1,note_on,72,0,80
1,note_on,79,55,0
1,note_on,79,0,80
1,note_on,76,55,2
1,note_on,81,55,77
1,note_on,76,0,3
1,note_on,71,55,76
1,note_on,81,0,1
1,note_on,71,0,79
1,note_on,78,55,0
1,note_on,78,0,80
1,note_on,77,55,3
1,note_on,79,55,78
1,note_on,77,0,2
1,note_on,79,0,78
1,note_on,71,55,0
1,note_on,71,0,80
1,note_on,83,55,1
1,note_on,77,53,77
1,note_on,83,0,3
1,note_on,77,0,77
1,note_on,88,53,5
1,note_on,79,53,79
1,note_on,88,0,1
1,note_on,86,53,75
1,note_on,79,0,4
1,note_on,86,0,76
1,note_on,77,53,2
1,note_on,77,0,80
1,note_on,86,55,2
1,note_on,86,0,80
1,note_on,79,46,1
1,note_on,84,55,79
1,note_on,79,0,1
1,note_on,76,46,78
1,note_on,84,0,1
1,note_on,76,0,79
1,note_on,81,55,0
1,note_on,81,0,80
1,note_on,76,47,2
1,note_on,79,55,79
1,note_on,76,0,1
1,note_on,72,47,76
1,note_on,79,0,3
1,note_on,72,0,77
1,note_on,77,55,2
1,note_on,72,47,78
1,note_on,77,0,2
1,note_on,72,0,78
1,note_on,76,55,2
1,note_on,76,0,80
1,note_on,67,47,1
1,note_on,81,55,77
1,note_on,67,0,3
1,note_on,81,0,77
1,note_on,76,49,2
1,note_on,79,55,79
1,note_on,76,0,1
1,note_on,79,0,79
1,note_on,72,49,3
1,note_on,77,55,79
1,note_on,72,0,1
1,note_on,77,0,79
1,note_on,72,47,0
1,note_on,76,55,79
1,note_on,72,0,1
1,note_on,67,49,78
1,note_on,76,0,1
1,note_on,67,0,79
1,note_on,81,55,2
1,note_on,81,0,80
1,note_on,76,47,0
1,note_on,76,0,80
1,note_on,79,55,1
1,note_on,72,47,76
1,note_on,79,0,4
1,note_on,72,0,76
1,note_on,76,69,1
1,note_on,79,82,0
1,note_on,79,0,480
1,note_on,76,0,0
1,note_on,76,69,0
1,note_on,79,82,0
1,note_on,67,69,0
1,note_on,67,0,360
1,note_on,79,0,0
1,note_on,76,0,0
1,note_on,76,63,0
1,note_on,67,63,0
1,note_on,79,77,0
1,note_on,79,0,120
1,note_on,67,0,0
1,note_on,76,0,0
1,note_on,67,69,0
1,note_on,79,82,0
1,note_on,76,69,0
1,note_on,76,0,480
1,note_on,79,0,0
1,note_on,67,0,0
1,note_on,76,72,0
1,note_on,69,72,0
1,note_on,81,85,0
1,note_on,81,0,480
1,note_on,69,0,0
1,note_on,76,0,0
1,note_on,79,82,0
1,note_on,67,69,0
1,note_on,76,69,0
1,note_on,76,0,480
1,note_on,67,0,0
1,note_on,79,0,0
1,note_on,73,63,0
1,note_on,67,63,0
1,note_on,76,77,0
1,note_on,76,0,480
1,note_on,67,0,0
1,note_on,73,0,0
1,note_on,67,63,0
1,note_on,79,77,0
1,note_on,76,63,0
1,note_on,76,0,960
1,note_on,79,0,0
1,note_on,67,0,0
1,note_on,79,69,0
1,note_on,82,82,0
1,note_on,82,0,480
1,note_on,79,0,0
1,note_on,70,69,0
1,note_on,79,69,0
1,note_on,82,82,0
1,note_on,82,0,360
1,note_on,79,0,0
1,note_on,70,0,0
1,note_on,70,63,0
1,note_on,79,63,0
1,note_on,82,77,0
1,note_on,82,0,120
1,note_on,79,0,0
1,note_on,70,0,0
1,note_on,82,82,0
1,note_on,70,69,0
1,note_on,79,69,0
1,note_on,79,0,480
1,note_on,70,0,0
1,note_on,82,0,0
1,note_on,72,72,0
1,note_on,84,85,0
1,note_on,79,72,0
1,note_on,79,0,480
1,note_on,84,0,0
1,note_on,72,0,0
1,note_on,70,69,0
1,note_on,79,69,0
1,note_on,82,82,0
1,note_on,82,0,480
1,note_on,79,0,0
1,note_on,70,0,0
1,note_on,79,81,0
1,note_on,70,68,0
1,note_on,76,68,0
1,note_on,76,0,480
1,note_on,70,0,0
1,note_on,79,0,0
1,note_on,79,70,0
1,note_on,70,70,0
1,note_on,82,84,0
1,note_on,82,0,960
1,note_on,70,0,0
1,note_on,79,0,0
1,note_on,96,67,2
1,note_on,96,0,80
1,note_on,87,58,1
1,note_on,94,61,75
1,note_on,87,0,5
1,note_on,94,0,75
1,note_on,85,58,2
1,note_on,85,0,80
1,note_on,92,61,0
1,note_on,92,0,80
1,note_on,87,58,2
1,note_on,91,56,78
1,note_on,87,0,2
1,note_on,91,0,78
1,note_on,85,52,0
1,note_on,85,0,80
1,note_on,89,56,2
1,note_on,85,52,77
1,note_on,89,0,3
1,note_on,85,0,77
1,note_on,87,56,2
1,note_on,79,52,77
1,note_on,87,0,3
1,note_on,79,0,77
1,note_on,89,61,5
1,note_on,89,0,80
1,note_on,84,58,0
1,note_on,84,0,80
1,note_on,87,61,0
1,note_on,80,58,75
1,note_on,87,0,5
1,note_on,80,0,75
1,note_on,85,61,2
1,note_on,85,0,80
1,note_on,80,58,1
1,note_on,80,0,80
1,note_on,84,61,1
1,note_on,84,0,80
1,note_on,75,52,0
1,note_on,82,56,77
1,note_on,75,0,3
1,note_on,82,0,77
1,note_on,75,52,4
1,note_on,80,56,79
1,note_on,75,0,1
1,note_on,72,52,76
1,note_on,80,0,3
1,note_on,72,0,77
1,note_on,84,61,2
1,note_on,75,58,77
1,note_on,84,0,3
1,note_on,75,0,77
1,note_on,82,61,3
1,note_on,82,0,80
1,note_on,73,58,1
1,note_on,73,0,80
1,note_on,81,61,0
1,note_on,75,58,76
1,note_on,81,0,4
1,note_on,75,0,76
1,note_on,82,56,4
1,note_on,73,52,79
1,note_on,82,0,1
1,note_on,73,0,79
1,note_on,85,56,2
1,note_on,85,0,80
1,note_on,75,52,0
1,note_on,79,56,79
1,note_on,75,0,1
1,note_on,73,52,76
1,note_on,79,0,3
1,note_on,73,0,77
1,note_on,82,61,1
1,note_on,82,0,80
1,note_on,75,58,0
1,note_on,80,61,78
1,note_on,75,0,2
1,note_on,80,0,78
1,note_on,72,58,3
1,note_on,79,61,77
1,note_on,72,0,3
1,note_on,79,0,77
1,note_on,75,58,4
1,note_on,75,0,80
1,note_on,80,61,0
1,note_on,72,52,77
1,note_on,80,0,3
1,note_on,82,56,76
1,note_on,72,0,1
1,note_on,82,0,79
1,note_on,75,52,0
1,note_on,75,0,80
1,note_on,80,56,4
1,note_on,72,52,76
1,note_on,80,0,4
1,note_on,72,0,76
1,note_on,92,50,2
1,note_on,92,0,80
1,note_on,83,48,2
1,note_on,83,0,80
1,note_on,90,50,0
1,note_on,81,48,78
1,note_on,90,0,2
1,note_on,81,0,78
1,note_on,88,50,3
1,note_on,83,48,78
1,note_on,88,0,2
1,note_on,87,48,76
1,note_on,83,0,2
1,note_on,87,0,78
1,note_on,81,44,1
1,note_on,81,0,80
1,note_on,85,48,3
1,note_on,81,44,75
1,note_on,85,0,5
1,note_on,81,0,75
1,note_on,83,48,0
1,note_on,83,0,80
1,note_on,78,44,0
1,note_on,78,0,80
1,note_on,88,50,0
1,note_on,88,0,80
1,note_on,80,48,5
1,note_on,87,50,76
1,note_on,80,0,4
1,note_on,87,0,76
1,note_on,76,48,1
1,note_on,76,0,80
1,note_on,85,50,2
1,note_on,80,48,76
1,note_on,85,0,4
1,note_on,80,0,76
1,note_on,83,50,4
1,note_on,76,44,77
1,note_on,83,0,3
1,note_on,76,0,77
1,note_on,81,48,4
1,note_on,76,44,76
1,note_on,81,0,4
1,note_on,76,0,76
1,note_on,80,48,0
1,note_on,80,0,80
1,note_on,71,44,0
1,note_on,71,0,80
1,note_on,80,50,0
1,note_on,80,0,80
1,note_on,75,48,4
1,note_on,75,0,80
1,note_on,78,50,0
1,note_on,78,0,80
1,note_on,69,48,0
1,note_on,69,0,80
1,note_on,77,50,0
1,note_on,75,48,78
1,note_on,77,0,2
1,note_on,78,48,75
1,note_on,75,0,3
1,note_on,78,0,77
1,note_on,69,44,1
1,note_on,69,0,80
1,note_on,81,48,0
1,note_on,81,0,80
1,note_on,71,44,1
1,note_on,71,0,80
1,note_on,75,48,0
1,note_on,69,44,79
1,note_on,75,0,1
1,note_on,69,0,79
1,note_on,78,48,4
1,note_on,71,44,78
1,note_on,78,0,2
1,note_on,71,0,78
1,note_on,77,45,0
1,note_on,77,0,80
1,note_on,68,42,2
1,note_on,76,44,78
1,note_on,68,0,2
1,note_on,76,0,78
1,note_on,71,41,1
1,note_on,71,0,80
1,note_on,75,44,1
1,note_on,75,0,80
1,note_on,68,41,0
1,note_on,68,0,80
1,note_on,74,42,0
1,note_on,74,0,80
1,note_on,71,40,0
1,note_on,73,42,75
1,note_on,71,0,5
1,note_on,73,0,75
1,note_on,68,40,2
1,note_on,73,62,79
1,note_on,68,0,1
1,note_on,73,0,79
1,note_on,68,59,0
1,note_on,68,0,80
1,note_on,71,59,4
1,note_on,62,59,79
1,note_on,71,0,1
1,note_on,62,0,79
1,note_on,73,60,0
1,note_on,68,61,76
1,note_on,73,0,4
1,note_on,68,0,76
1,note_on,71,62,3
1,note_on,71,0,80
1,note_on,74,64,1
1,note_on,74,0,80
1,note_on,85,67,0
1,note_on,85,0,80
1,note_on,80,68,0
1,note_on,83,69,76
1,note_on,80,0,4
1,note_on,83,0,76
1,note_on,86,70,4
1,note_on,97,72,78
1,note_on,86,0,2
1,note_on,97,0,78
1,note_on,92,73,1
1,note_on,92,0,80
1,note_on,95,71,2
1,note_on,95,0,80
1,note_on,86,71,0
1,note_on,85,71,75
1,note_on,86,0,5
1,note_on,85,0,75
1,note_on,80,71,4
1,note_on,83,71,78
1,note_on,80,0,2
1,note_on,74,69,76
1,note_on,83,0,2
1,note_on,74,0,78
1,note_on,73,69,1
1,note_on,73,0,80
1,note_on,68,69,1
1,note_on,71,69,78
1,note_on,68,0,2
1,note_on,71,0,78
1,note_on,62,69,5
1,note_on,74,69,78
1,note_on,62,0,2
1,note_on,67,69,76
1,note_on,74,0,2
1,note_on,67,0,78
1,note_on,72,69,3
1,note_on,72,0,80
1,note_on,60,69,1
1,note_on,77,69,76
1,note_on,60,0,4
1,note_on,72,69,75
1,note_on,77,0,1
1,note_on,72,0,79
1,note_on,75,69,4
1,note_on,67,61,77
1,note_on,75,0,3
1,note_on,67,0,77
1,note_on,80,61,2
1,note_on,80,0,80
1,note_on,75,61,1
1,note_on,75,0,80
1,note_on,79,61,1
1,note_on,72,61,76
1,note_on,79,0,4
1,note_on,72,0,76
1,note_on,84,61,2
1,note_on,84,0,80
1,note_on,79,61,2
1,note_on,79,0,80
1,note_on,83,61,0
1,note_on,75,61,78
1,note_on,83,0,2
1,note_on,82,61,76
1,note_on,75,0,2
1,note_on,82,0,78
1,note_on,79,61,3
1,note_on,81,61,78
1,note_on,79,0,2
1,note_on,81,0,78
1,note_on,76,62,0
1,note_on,80,64,78
1,note_on,76,0,2
1,note_on,80,0,78
1,note_on,76,67,3
1,note_on,79,68,79
1,note_on,76,0,1
1,note_on,72,69,77
1,note_on,79,0,2
1,note_on,72,0,78
1,note_on,77,66,1
1,note_on,77,0,80
1,note_on,72,59,4
1,note_on,75,59,76
1,note_on,72,0,4
1,note_on,75,0,76
1,note_on,66,59,4
1,note_on,77,60,75
1,note_on,66,0,5
1,note_on,77,0,75
1,note_on,72,61,5
1,note_on,72,0,80
1,note_on,75,62,0
1,note_on,78,64,77
1,note_on,75,0,3
1,note_on,89,67,76
1,note_on,78,0,1
1,note_on,89,0,79
1,note_on,84,69,2
1,note_on,84,0,80
1,note_on,87,70,0
1,note_on,87,0,80
1,note_on,90,72,0
1,note_on,101,70,79
1,note_on,90,0,1
1,note_on,96,61,77
1,note_on,101,0,2
1,note_on,96,0,78
1,note_on,99,69,5
1,note_on,90,69,75
1,note_on,99,0,5
1,note_on,90,0,75
1,note_on,89,69,1
1,note_on,89,0,80
1,note_on,84,69,0
1,note_on,84,0,80
1,note_on,87,69,3
1,note_on,78,69,79
1,note_on,87,0,1
1,note_on,78,0,79
1,note_on,77,69,2
1,note_on,72,69,78
1,note_on,77,0,2
1,note_on,72,0,78
1,note_on,75,69,1
1,note_on,66,69,78
1,note_on,75,0,2
1,note_on,66,0,78
1,note_on,78,69,2
1,note_on,78,0,80
1,note_on,71,69,0
1,note_on,76,69,76
1,note_on,71,0,4
1,note_on,76,0,76
1,note_on,64,69,3
1,note_on,81,69,77
1,note_on,64,0,3
1,note_on,81,0,77
1,note_on,76,69,0
1,note_on,76,0,80
1,note_on,79,69,4
1,note_on,71,61,78
1,note_on,79,0,2
1,note_on,71,0,78
1,note_on,84,61,3
1,note_on,79,61,77
1,note_on,84,0,3
1,note_on,79,0,77
1,note_on,83,61,2
1,note_on,76,61,76
1,note_on,83,0,4
1,note_on,76,0,76
1,note_on,88,66,3
1,note_on,83,66,77
1,note_on,88,0,3
1,note_on,83,0,77
1,note_on,87,67,4
1,note_on,87,0,80
1,note_on,79,68,1
1,note_on,86,69,78
1,note_on,79,0,2
1,note_on,86,0,78
1,note_on,83,69,1
1,note_on,85,70,77
1,note_on,83,0,3
1,note_on,85,0,77
1,note_on,79,71,3
1,note_on,84,72,79
1,note_on,79,0,1
1,note_on,84,0,79
1,note_on,79,73,0
1,note_on,83,73,78
1,note_on,79,0,2
1,note_on,83,0,78
1,note_on,76,75,4
1,note_on,82,68,77
1,note_on,76,0,3
1,note_on,82,0,77
1,note_on,76,64,2
1,note_on,81,69,78
1,note_on,76,0,2
1,note_on,70,64,76
1,note_on,81,0,2
1,note_on,70,0,78
1,note_on,80,69,2
1,note_on,80,0,80
1,note_on,76,64,1
1,note_on,79,69,79
1,note_on,76,0,1
1,note_on,79,0,79
1,note_on,70,64,0
1,note_on,81,69,78
1,note_on,70,0,2
1,note_on,81,0,78
1,note_on,76,64,1
1,note_on,76,0,80
1,note_on,79,69,2
1,note_on,79,0,80
1,note_on,70,64,2
1,note_on,79,69,77
1,note_on,70,0,3
1,note_on,79,0,77
1,note_on,72,64,3
1,note_on,78,69,77
1,note_on,72,0,3
1,note_on,78,0,77
1,note_on,69,64,1
1,note_on,77,69,77
1,note_on,69,0,3
1,note_on,77,0,77
1,note_on,72,64,5
1,note_on,72,0,80
1,note_on,78,69,0
1,note_on,69,64,77
1,note_on,78,0,3
1,note_on,69,0,77
1,note_on,79,69,2
1,note_on,71,64,77
1,note_on,79,0,3
1,note_on,71,0,77
1,note_on,78,69,2
1,note_on,69,64,79
1,note_on,78,0,1
1,note_on,69,0,79
1,note_on,78,69,1
1,note_on,71,64,77
1,note_on,78,0,3
1,note_on,71,0,77
1,note_on,77,69,2
1,note_on,67,64,79
1,note_on,77,0,1
1,note_on,67,0,79
1,note_on,76,69,4
1,note_on,76,0,80
1,note_on,71,64,0
1,note_on,71,0,80
1,note_on,76,69,0
1,note_on,67,64,78
1,note_on,76,0,2
1,note_on,67,0,78
1,note_on,77,69,0
1,note_on,69,64,77
1,note_on,77,0,3
1,note_on,69,0,77
1,note_on,76,69,2
1,note_on,67,64,79
1,note_on,76,0,1
1,note_on,67,0,79
1,note_on,76,69,1
1,note_on,69,64,78
1,note_on,76,0,2
1,note_on,69,0,78
1,note_on,73,69,5
1,note_on,65,64,76
1,note_on,73,0,4
1,note_on,65,0,76
1,note_on,74,69,3
1,note_on,74,0,80
1,note_on,69,64,1
1,note_on,74,69,78
1,note_on,69,0,2
1,note_on,64,64,76
1,note_on,74,0,2
1,note_on,64,0,78
1,note_on,71,69,0
1,note_on,71,0,80
1,note_on,69,64,2
1,note_on,69,0,80
1,note_on,72,69,2
1,note_on,64,64,76
1,note_on,72,0,4
1,note_on,64,0,76
1,note_on,72,70,0
1,note_on,72,0,80
1,note_on,69,70,3
1,note_on,69,0,80
1,note_on,71,70,1
1,note_on,65,70,76
1,note_on,71,0,4
1,note_on,65,0,76
1,note_on,72,70,0
1,note_on,72,0,80
1,note_on,69,70,1
1,note_on,69,0,80
1,note_on,71,70,3
1,note_on,77,71,78
1,note_on,71,0,2
1,note_on,84,72,75
1,note_on,77,0,3
1,note_on,84,0,77
1,note_on,81,73,5
1,note_on,83,75,75
1,note_on,81,0,5
1,note_on,83,0,75
1,note_on,89,77,3
1,note_on,96,77,78
1,note_on,89,0,2
1,note_on,96,0,78
1,note_on,93,77,0
1,note_on,95,75,79
1,note_on,93,0,1
1,note_on,95,0,79
1,note_on,89,73,1
1,note_on,89,0,80
1,note_on,84,73,1
1,note_on,84,0,80
1,note_on,81,72,3
1,note_on,83,70,75
1,note_on,81,0,5
1,note_on,83,0,75
1,note_on,77,70,0
1,note_on,77,0,80
1,note_on,72,70,2
1,note_on,69,70,79
1,note_on,72,0,1
1,note_on,69,0,79
1,note_on,71,70,2
1,note_on,65,70,79
1,note_on,71,0,1
1,note_on,65,0,79
1,note_on,71,70,0
1,note_on,71,0,80
1,note_on,66,70,3
1,note_on,69,70,78
1,note_on,66,0,2
1,note_on,60,70,76
1,note_on,69,0,2
1,note_on,60,0,78
1,note_on,71,70,1
1,note_on,71,0,80
1,note_on,66,70,0
1,note_on,66,0,80
1,note_on,69,70,3
1,note_on,72,71,78
1,note_on,69,0,2
1,note_on,72,0,78
1,note_on,83,72,2
1,note_on,78,73,79
1,note_on,83,0,1
1,note_on,78,0,79
1,note_on,81,75,0
1,note_on,84,77,79
1,note_on,81,0,1
1,note_on,84,0,79
1,note_on,95,79,2
1,note_on,90,78,76
1,note_on,95,0,4
1,note_on,90,0,76
1,note_on,93,77,4
1,note_on,84,75,76
1,note_on,93,0,4
1,note_on,84,0,76
1,note_on,83,72,4
1,note_on,78,71,79
1,note_on,83,0,1
1,note_on,81,70,75
1,note_on,78,0,4
1,note_on,81,0,76
1,note_on,72,70,4
1,note_on,71,70,78
1,note_on,72,0,2
1,note_on,66,70,77
1,note_on,71,0,1
1,note_on,69,70,78
1,note_on,66,0,1
1,note_on,69,0,79
1,note_on,60,70,0
1,note_on,60,0,80
1,note_on,69,59,2
1,note_on,69,0,80
1,note_on,64,59,3
1,note_on,68,59,75
1,note_on,64,0,5
1,note_on,68,0,75
1,note_on,71,60,0
1,note_on,71,0,80
1,note_on,81,60,1
1,note_on,81,0,80
1,note_on,76,61,3
1,note_on,76,0,80
1,note_on,80,62,0
1,note_on,80,0,80
1,note_on,83,62,0
1,note_on,93,63,79
1,note_on,83,0,1
1,note_on,88,63,77
1,note_on,93,0,2
1,note_on,88,0,78
1,note_on,92,64,3
1,note_on,92,0,80
1,note_on,83,63,1
1,note_on,83,0,80
1,note_on,92,63,0
1,note_on,86,63,76
1,note_on,92,0,4
1,note_on,86,0,76
1,note_on,90,63,1
1,note_on,83,63,78
1,note_on,90,0,2
1,note_on,83,0,78
1,note_on,80,62,0
1,note_on,80,0,80
1,note_on,74,62,0
1,note_on,74,0,80
1,note_on,78,62,2
1,note_on,78,0,80
1,note_on,71,61,2
1,note_on,68,61,78
1,note_on,71,0,2
1,note_on,62,61,77
1,note_on,68,0,1
1,note_on,62,0,79
1,note_on,66,61,0
1,note_on,66,0,80
1,note_on,59,61,0
1,note_on,59,0,80
1,note_on,66,60,3
1,note_on,61,59,76
1,note_on,66,0,4
1,note_on,61,0,76
1,note_on,64,59,0
1,note_on,64,0,80
1,note_on,68,60,3
1,note_on,78,60,79
1,note_on,68,0,1
1,note_on,78,0,79
1,note_on,73,61,2
1,note_on,76,62,76
1,note_on,73,0,4
1,note_on,76,0,76
1,note_on,80,66,5
1,note_on,90,66,75
1,note_on,80,0,5
1,note_on,90,0,75
1,note_on,85,66,0
1,note_on,85,0,80
1,note_on,88,66,1
1,note_on,88,0,80
1,note_on,80,66,3
1,note_on,88,66,77
1,note_on,80,0,3
1,note_on,88,0,77
1,note_on,83,64,2
1,note_on,86,64,79
1,note_on,83,0,1
1,note_on,86,0,79
1,note_on,78,63,1
1,note_on,78,0,80
1,note_on,76,63,0
1,note_on,76,0,80
1,note_on,71,62,2
1,note_on,71,0,80
1,note_on,74,62,0
1,note_on,74,0,80
1,note_on,66,67,0
1,note_on,64,64,75
1,note_on,66,0,5
1,note_on,64,0,75
1,note_on,59,62,0
1,note_on,59,0,80
1,note_on,62,62,3
1,note_on,62,0,80
1,note_on,54,61,1
1,note_on,54,0,80
1,note_on,61,71,1
1,note_on,56,66,75
1,note_on,61,0,5
1,note_on,56,0,75
1,note_on,59,71,5
1,note_on,53,67,79
1,note_on,59,0,1
1,note_on,64,71,77
1,note_on,53,0,2
1,note_on,64,0,78
1,note_on,59,68,1
1,note_on,59,0,80
1,note_on,62,71,1
1,note_on,56,66,78
1,note_on,62,0,2
1,note_on,67,71,77
1,note_on,56,0,1
1,note_on,67,0,79
1,note_on,62,68,4
1,note_on,62,0,80
1,note_on,65,71,0
1,note_on,59,68,79
1,note_on,65,0,1
1,note_on,69,71,78
1,note_on,59,0,1
1,note_on,65,71,77
1,note_on,69,0,2
1,note_on,68,71,77
1,note_on,65,0,1
1,note_on,68,0,79
1,note_on,62,71,1
1,note_on,62,0,80
1,note_on,72,71,2
1,note_on,68,71,79
1,note_on,72,0,1
1,note_on,68,0,79
1,note_on,71,71,0
1,note_on,65,71,79
1,note_on,71,0,1
1,note_on,65,0,79
1,note_on,76,71,1
1,note_on,76,0,80
1,note_on,71,71,2
1,note_on,71,0,80
1,note_on,74,71,1
1,note_on,68,71,79
1,note_on,74,0,1
1,note_on,68,0,79
1,note_on,79,71,1
1,note_on,74,71,76
1,note_on,79,0,4
1,note_on,74,0,76
1,note_on,77,73,2
1,note_on,71,75,78
1,note_on,77,0,2
1,note_on,71,0,78
1,note_on,81,77,4
1,note_on,77,77,77
1,note_on,81,0,3
1,note_on,80,77,76
1,note_on,77,0,1
1,note_on,80,0,79
1,note_on,74,78,2
1,note_on,74,0,80
1,note_on,84,78,0
1,note_on,80,78,79
1,note_on,84,0,1
1,note_on,80,0,79
1,note_on,83,79,0
1,note_on,77,79,79
1,note_on,83,0,1
1,note_on,77,0,79
1,note_on,88,77,0
1,note_on,88,0,80
1,note_on,83,77,0
1,note_on,83,0,80
1,note_on,86,77,4
1,note_on,80,77,79
1,note_on,86,0,1
1,note_on,80,0,79
1,note_on,91,77,0
1,note_on,86,77,79
1,note_on,91,0,1
1,note_on,86,0,79
1,note_on,89,75,1
1,note_on,83,77,77
1,note_on,89,0,3
1,note_on,83,0,77
1,note_on,93,79,3
1,note_on,89,80,76
1,note_on,93,0,4
1,note_on,89,0,76
1,note_on,92,82,4
1,note_on,92,0,80
1,note_on,86,84,1
1,note_on,101,97,77
1,note_on,86,0,3
1,note_on,95,88,75
1,note_on,101,0,18
1,note_on,100,94,64
1,note_on,95,0,14
1,note_on,92,85,64
1,note_on,100,0,18
1,note_on,99,94,67
1,note_on,92,0,11
1,note_on,95,85,67
1,note_on,99,0,18
1,note_on,98,90,62
1,note_on,95,0,16
1,note_on,92,85,64
1,note_on,98,0,16
1,note_on,97,89,64
1,note_on,92,0,16
1,note_on,92,84,65
1,note_on,97,0,15
1,note_on,96,89,64
1,note_on,92,0,17
1,note_on,89,84,64
1,note_on,96,0,15
1,note_on,95,89,65
1,note_on,89,0,16
1,note_on,89,84,65
1,note_on,95,0,15
1,note_on,94,89,60
1,note_on,89,0,21
1,note_on,86,84,61
1,note_on,94,0,14
1,note_on,93,89,68
1,note_on,86,0,14
1,note_on,89,82,62
1,note_on,93,0,20
1,note_on,92,88,62
1,note_on,89,0,14
1,note_on,83,82,64
1,note_on,92,0,18
1,note_on,91,88,65
1,note_on,83,0,13
1,note_on,86,82,65
1,note_on,91,0,18
1,note_on,90,88,61
1,note_on,86,0,17
1,note_on,80,82,64
1,note_on,90,0,15
1,note_on,89,88,69
1,note_on,80,0,12
1,note_on,83,82,66
1,note_on,89,0,18
1,note_on,88,88,62
1,note_on,83,0,16
1,note_on,80,82,61
1,note_on,88,0,19
1,note_on,87,88,63
1,note_on,80,0,14
1,note_on,83,82,69
1,note_on,87,0,13
1,note_on,86,88,67
1,note_on,83,0,16
1,note_on,79,82,61
1,note_on,86,0,19
1,note_on,85,88,60
1,note_on,79,0,17
1,note_on,79,82,63
1,note_on,85,0,16
1,note_on,84,88,63
1,note_on,79,0,17
1,note_on,77,81,68
1,note_on,84,0,11
1,note_on,83,103,66
1,note_on,83,0,120
1,note_on,77,0,43
1,note_on,95,103,799
1,note_on,89,85,81
1,note_on,95,0,15
1,note_on,94,99,61
1,note_on,89,0,20
1,note_on,86,85,64
1,note_on,94,0,12
1,note_on,93,90,65
1,note_on,86,0,19
1,note_on,89,85,64
1,note_on,93,0,13
1,note_on,92,90,65
1,note_on,89,0,18
1,note_on,86,85,60
1,note_on,92,0,18
1,note_on,91,89,62
1,note_on,86,0,16
1,note_on,86,85,65
1,note_on,91,0,15
1,note_on,90,89,66
1,note_on,86,0,15
1,note_on,83,84,63
1,note_on,90,0,18
1,note_on,89,89,62
1,note_on,83,0,16
1,note_on,83,84,63
1,note_on,89,0,17
1,note_on,88,89,63
1,note_on,83,0,16
1,note_on,80,84,68
1,note_on,88,0,12
1,note_on,87,89,69
1,note_on,80,0,15
1,note_on,83,82,64
1,note_on,87,0,17
1,note_on,86,88,63
1,note_on,83,0,16
1,note_on,77,82,60
1,note_on,86,0,20
1,note_on,85,88,62
1,note_on,77,0,14
1,note_on,80,82,67
1,note_on,85,0,15
1,note_on,84,88,67
1,note_on,80,0,14
1,note_on,74,84,62
1,note_on,84,0,20
1,note_on,83,88,62
1,note_on,74,0,14
1,note_on,77,84,67
1,note_on,83,0,15
1,note_on,82,88,66
1,note_on,77,0,15
1,note_on,74,82,65
1,note_on,82,0,16
1,note_on,81,88,63
1,note_on,74,0,17
1,note_on,77,84,62
1,note_on,81,0,17
1,note_on,80,86,61
1,note_on,77,0,18
1,note_on,74,82,65
1,note_on,80,0,13
1,note_on,79,85,63
1,note_on,74,0,20
1,note_on,74,81,63
1,note_on,79,0,13
1,note_on,78,85,68
1,note_on,74,0,15
1,note_on,71,81,63
1,note_on,78,0,18
1,note_on,71,0,60
1,note_on,77,100,0
1,note_on,74,90,2
1,note_on,68,90,3
1,note_on,74,0,117
1,note_on,68,0,3
1,note_on,77,0,19
1,note_on,77,60,818
1,note_on,77,0,80
1,note_on,74,55,0
1,note_on,74,0,80
1,note_on,76,60,0
1,note_on,76,0,80
1,note_on,68,60,0
1,note_on,68,0,240
1,note_on,77,60,480
1,note_on,77,0,80
1,note_on,74,53,0
1,note_on,74,0,80
1,note_on,76,60,0
1,note_on,76,0,80
1,note_on,68,60,0
1,note_on,68,0,240
1,note_on,77,51,480
1,note_on,77,0,80
1,note_on,74,51,0
1,note_on,74,0,80
1,note_on,76,51,0
1,note_on,76,0,80
1,note_on,68,52,1
1,note_on,68,0,80
1,note_on,77,52,2
1,note_on,74,53,77
1,note_on,77,0,3
1,note_on,74,0,77
1,note_on,76,53,0
1,note_on,76,0,80
1,note_on,68,53,3
1,note_on,77,55,78
1,note_on,68,0,2
1,note_on,74,55,77
1,note_on,77,0,1
1,note_on,74,0,79
1,note_on,76,56,1
1,note_on,76,0,80
1,note_on,68,56,1
1,note_on,77,57,76
1,note_on,68,0,4
1,note_on,77,0,76
1,note_on,74,57,0
1,note_on,74,0,80
1,note_on,76,57,1
1,note_on,68,58,79
1,note_on,76,0,1
1,note_on,68,0,79
1,note_on,77,58,1
1,note_on,77,0,80
1,note_on,74,59,1
1,note_on,74,0,80
1,note_on,76,59,1
1,note_on,68,60,78
1,note_on,76,0,2
1,note_on,77,60,77
1,note_on,68,0,1
1,note_on,77,0,79
1,note_on,74,60,3
1,note_on,76,61,77
1,note_on,74,0,3
1,note_on,76,0,77
1,note_on,68,61,1
1,note_on,68,0,80
1,note_on,77,62,3
1,note_on,74,62,78
1,note_on,77,0,2
1,note_on,74,0,78
1,note_on,76,62,3
1,note_on,68,63,76
1,note_on,76,0,4
1,note_on,77,63,75
1,note_on,68,0,1
1,note_on,77,0,79
1,note_on,74,64,3
1,note_on,76,64,78
1,note_on,74,0,2
1,note_on,68,66,77
1,note_on,76,0,1
1,note_on,68,0,79
1,note_on,77,66,3
1,note_on,77,0,80
1,note_on,74,66,1
1,note_on,76,67,76
1,note_on,74,0,4
1,note_on,76,0,76
1,note_on,68,67,5
1,note_on,77,68,77
1,note_on,68,0,3
1,note_on,77,0,77
1,note_on,74,68,3
1,note_on,76,69,78
1,note_on,74,0,2
1,note_on,68,69,76
1,note_on,76,0,2
1,note_on,68,0,78
1,note_on,77,69,0
1,note_on,77,0,80
1,note_on,74,70,1
1,note_on,76,70,79
1,note_on,74,0,1
1,note_on,76,0,79
1,note_on,68,71,1
1,note_on,68,0,80
1,note_on,77,71,2
1,note_on,77,0,80
1,note_on,74,72,1
1,note_on,76,72,77
1,note_on,74,0,3
1,note_on,76,0,77
1,note_on,68,72,0
1,note_on,68,0,80
1,note_on,77,73,2
1,note_on,77,0,80
1,note_on,74,73,0
1,note_on,76,74,76
1,note_on,74,0,4
1,note_on,76,0,76
1,note_on,68,74,0
1,note_on,68,0,80
1,note_on,77,74,4
1,note_on,77,0,80
1,note_on,74,75,1
1,note_on,76,75,78
1,note_on,74,0,2
1,note_on,80,77,77
1,note_on,76,0,1
1,note_on,80,0,79
1,note_on,89,77,0
1,note_on,86,78,78
1,note_on,89,0,2
1,note_on,86,0,78
1,note_on,88,78,2
1,note_on,92,78,79
1,note_on,88,0,1
1,note_on,92,0,79
1,note_on,101,79,1
1,note_on,101,0,80
1,note_on,98,79,3
1,note_on,100,80,76
1,note_on,98,0,4
1,note_on,100,0,76
1,note_on,92,80,0
1,note_on,101,81,79
1,note_on,92,0,1
1,note_on,101,0,79
1,note_on,98,81,2
1,note_on,100,81,79
1,note_on,98,0,1
1,note_on,100,0,79
1,note_on,92,82,0
1,note_on,92,0,80
1,note_on,101,82,0
1,note_on,101,0,80
1,note_on,98,83,0
1,note_on,98,0,80
1,note_on,100,83,1
1,note_on,92,84,78
1,note_on,100,0,2
1,note_on,92,0,78
1,note_on,101,97,0
1,note_on,101,0,80
1,note_on,96,81,5
1,note_on,100,90,75
1,note_on,96,0,5
1,note_on,100,0,75
1,note_on,93,73,5
1,note_on,99,93,77
1,note_on,93,0,3
1,note_on,99,0,77
1,note_on,96,73,3
1,note_on,98,83,77
1,note_on,96,0,3
1,note_on,93,67,76
1,note_on,98,0,1
1,note_on,93,0,79
1,note_on,97,79,3
1,note_on,97,0,80
1,note_on,93,67,1
1,note_on,96,78,77
1,note_on,93,0,3
1,note_on,96,0,77
1,note_on,88,67,0
1,note_on,88,0,80
1,note_on,95,79,2
1,note_on,88,73,77
1,note_on,95,0,3
1,note_on,88,0,77
1,note_on,94,79,1
1,note_on,94,0,80
1,note_on,84,73,1
1,note_on,84,0,80
1,note_on,93,79,1
1,note_on,93,0,80
1,note_on,88,73,0
1,note_on,88,0,80
1,note_on,92,79,0
1,note_on,84,67,78
1,note_on,92,0,2
1,note_on,84,0,78
1,note_on,91,71,2
1,note_on,84,67,79
1,note_on,91,0,1
1,note_on,90,71,77
1,note_on,84,0,2
1,note_on,90,0,78
1,note_on,81,67,1
1,note_on,89,79,78
1,note_on,81,0,2
1,note_on,89,0,78
1,note_on,84,73,5
1,note_on,88,79,79
1,note_on,84,0,1
1,note_on,81,73,77
1,note_on,88,0,2
1,note_on,87,79,77
1,note_on,81,0,1
1,note_on,87,0,79
1,note_on,84,73,0
1,note_on,84,0,80
1,note_on,86,79,0
1,note_on,81,67,79
1,note_on,86,0,1
1,note_on,81,0,79
1,note_on,85,71,5
1,note_on,81,67,76
1,note_on,85,0,4
1,note_on,81,0,76
1,note_on,84,71,1
1,note_on,76,67,78
1,note_on,84,0,2
1,note_on,76,0,78
1,note_on,83,71,5
1,note_on,76,67,78
1,note_on,83,0,2
1,note_on,76,0,78
1,note_on,82,71,1
1,note_on,72,67,77
1,note_on,82,0,3
1,note_on,72,0,77
1,note_on,81,71,1
1,note_on,81,0,80
1,note_on,76,67,2
1,note_on,80,71,78
1,note_on,76,0,2
1,note_on,80,0,78
1,note_on,72,67,1
1,note_on,72,0,80
1,note_on,79,71,1
1,note_on,72,67,77
1,note_on,79,0,3
1,note_on,72,0,77
1,note_on,78,71,0
1,note_on,78,0,80
1,note_on,69,67,4
1,note_on,77,53,79
1,note_on,69,0,1
1,note_on,72,49,76
1,note_on,77,0,3
1,note_on,72,0,77
1,note_on,76,53,4
1,note_on,69,49,75
1,note_on,76,0,5
1,note_on,69,0,75
1,note_on,75,53,4
1,note_on,72,49,76
1,note_on,75,0,4
1,note_on,72,0,76
1,note_on,74,53,0
1,note_on,74,0,80
1,note_on,69,49,0
1,note_on,69,0,80
1,note_on,73,53,3
1,note_on,73,0,80
1,note_on,69,49,0
1,note_on,69,0,80
1,note_on,72,53,0
1,note_on,64,49,78
1,note_on,72,0,2
1,note_on,71,53,77
1,note_on,64,0,1
1,note_on,71,0,79
1,note_on,64,49,1
1,note_on,70,51,79
1,note_on,64,0,1
1,note_on,70,0,79
1,note_on,60,48,2
1,note_on,69,50,78
1,note_on,60,0,2
1,note_on,69,0,78
1,note_on,64,45,1
1,note_on,64,0,80
1,note_on,68,49,3
1,note_on,60,44,79
1,note_on,68,0,1
1,note_on,67,47,77
1,note_on,60,0,2
1,note_on,67,0,78
1,note_on,60,44,4
1,note_on,60,0,80
1,note_on,66,45,0
1,note_on,57,45,75
1,note_on,66,0,5
1,note_on,57,0,75
1,note_on,65,45,1
1,note_on,65,0,80
1,note_on,60,42,3
1,note_on,64,45,78
1,note_on,60,0,2
1,note_on,57,42,77
1,note_on,64,0,1
1,note_on,57,0,79
1,note_on,63,44,1
1,note_on,63,0,80
1,note_on,60,40,1
1,note_on,60,0,80
1,note_on,62,42,1
1,note_on,57,39,79
1,note_on,62,0,1
1,note_on,61,42,76
1,note_on,57,0,3
1,note_on,61,0,77
1,note_on,57,39,4
1,note_on,60,40,79
1,note_on,57,0,1
1,note_on,52,38,76
1,note_on,60,0,3
1,note_on,52,0,77
1,note_on,59,40,3
1,note_on,59,0,80
1,note_on,52,39,2
1,note_on,58,45,79
1,note_on,52,0,1
1,note_on,48,42,77
1,note_on,58,0,2
1,note_on,48,0,78
1,note_on,57,47,0
1,note_on,57,0,80
1,note_on,52,45,3
1,note_on,56,50,78
1,note_on,52,0,2
1,note_on,48,48,77
1,note_on,56,0,1
1,note_on,48,0,79
1,note_on,57,53,3
1,note_on,52,50,78
1,note_on,57,0,2
1,note_on,60,56,75
1,note_on,52,0,3
1,note_on,60,0,77
1,note_on,53,53,3
1,note_on,64,57,77
1,note_on,53,0,3
1,note_on,64,0,77
1,note_on,59,57,1
1,note_on,59,0,80
1,note_on,62,57,2
1,note_on,62,0,80
1,note_on,65,57,1
1,note_on,76,57,78
1,note_on,65,0,2
1,note_on,76,0,78
1,note_on,71,57,3
1,note_on,74,59,79
1,note_on,71,0,1
1,note_on,77,60,77
1,note_on,74,0,2
1,note_on,77,0,78
1,note_on,88,61,0
1,note_on,88,0,80
1,note_on,83,62,0
1,note_on,83,0,80
1,note_on,86,64,1
1,note_on,77,66,79
1,note_on,86,0,1
1,note_on,77,0,79
1,note_on,86,67,1
1,note_on,86,0,80
1,note_on,81,64,0
1,note_on,84,61,79
1,note_on,81,0,1
1,note_on,84,0,79
1,note_on,77,59,3
1,note_on,74,59,76
1,note_on,77,0,4
1,note_on,69,57,75
1,note_on,74,0,1
1,note_on,69,0,79
1,note_on,72,55,0
1,note_on,72,0,80
1,note_on,65,55,0
1,note_on,65,0,80
1,note_on,62,55,1
1,note_on,62,0,80
1,note_on,57,55,0
1,note_on,57,0,80
1,note_on,60,55,1
1,note_on,60,0,80
1,note_on,53,55,2
1,note_on,64,57,78
1,note_on,53,0,2
1,note_on,59,57,76
1,note_on,64,0,2
1,note_on,59,0,78
1,note_on,62,57,3
1,note_on,62,0,80
1,note_on,65,57,2
1,note_on,76,57,79
1,note_on,65,0,1
1,note_on,71,57,76
1,note_on,76,0,3
1,note_on,71,0,77
1,note_on,74,60,4
1,note_on,77,60,76
1,note_on,74,0,4
1,note_on,88,61,75
1,note_on,77,0,1
1,note_on,88,0,79
1,note_on,83,64,3
1,note_on,86,64,77
1,note_on,83,0,3
1,note_on,86,0,77
1,note_on,76,66,5
1,note_on,86,66,78
1,note_on,76,0,2
1,note_on,81,64,77
1,note_on,86,0,1
1,note_on,84,61,77
1,note_on,81,0,2
1,note_on,84,0,78
1,note_on,76,59,1
1,note_on,76,0,80
1,note_on,74,58,4
1,note_on,69,56,78
1,note_on,74,0,2
1,note_on,72,56,75
1,note_on,69,0,3
1,note_on,72,0,77
1,note_on,64,56,0
1,note_on,64,0,80
1,note_on,62,56,3
1,note_on,62,0,80
1,note_on,57,56,2
1,note_on,60,56,78
1,note_on,57,0,2
1,note_on,59,56,76
1,note_on,60,0,2
1,note_on,59,0,78
1,note_on,69,57,1
1,note_on,69,0,80
1,note_on,64,55,3
1,note_on,68,55,75
1,note_on,64,0,5
1,note_on,68,0,75
1,note_on,71,55,2
1,note_on,71,0,80
1,note_on,81,55,1
1,note_on,76,55,79
1,note_on,81,0,1
1,note_on,80,55,78
1,note_on,76,0,1
1,note_on,80,0,79
1,note_on,83,55,2
1,note_on,93,56,78
1,note_on,83,0,2
1,note_on,93,0,78
1,note_on,88,57,0
1,note_on,88,0,80
1,note_on,92,59,2
1,note_on,92,0,80
1,note_on,83,59,2
1,note_on,92,59,77
1,note_on,83,0,3
1,note_on,87,59,76
1,note_on,92,0,1
1,note_on,87,0,79
1,note_on,90,59,3
1,note_on,83,58,78
1,note_on,90,0,2
1,note_on,83,0,78
1,note_on,80,57,1
1,note_on,75,56,79
1,note_on,80,0,1
1,note_on,75,0,79
1,note_on,78,51,3
1,note_on,71,51,75
1,note_on,78,0,5
1,note_on,71,0,75
1,note_on,68,51,3
1,note_on,63,51,77
1,note_on,68,0,3
1,note_on,63,0,77
1,note_on,66,51,1
1,note_on,59,51,79
1,note_on,66,0,1
1,note_on,59,0,79
1,note_on,69,51,0
1,note_on,69,0,80
1,note_on,64,51,4
1,note_on,64,0,80
1,note_on,68,51,0
1,note_on,71,51,78
1,note_on,68,0,2
1,note_on,71,0,78
1,note_on,81,51,0
1,note_on,81,0,80
1,note_on,76,51,1
1,note_on,80,51,79
1,note_on,76,0,1
1,note_on,80,0,79
1,note_on,83,57,1
1,note_on,93,57,77
1,note_on,83,0,3
1,note_on,93,0,77
1,note_on,88,57,4
1,note_on,92,57,78
1,note_on,88,0,2
1,note_on,92,0,78
1,note_on,83,57,3
1,note_on,100,76,77
1,note_on,83,0,3
1,note_on,100,0,237
1,note_on,101,99,721
1,note_on,101,0,80
1,note_on,96,67,2
1,note_on,100,89,77
1,note_on,96,0,3
1,note_on,100,0,77
1,note_on,93,67,2
1,note_on,99,82,79
1,note_on,93,0,1
1,note_on,96,67,78
1,note_on,99,0,1
1,note_on,96,0,79
1,note_on,98,79,2
1,note_on,98,0,80
1,note_on,93,62,1
1,note_on,97,77,75
1,note_on,93,0,5
1,note_on,97,0,75
1,note_on,93,62,4
1,note_on,96,77,78
1,note_on,93,0,2
1,note_on,88,62,77
1,note_on,96,0,1
1,note_on,88,0,79
1,note_on,95,74,3
1,note_on,95,0,80
1,note_on,88,67,0
1,note_on,94,75,77
1,note_on,88,0,3
1,note_on,94,0,77
1,note_on,84,67,2
1,note_on,93,75,78
1,note_on,84,0,2
1,note_on,88,67,77
1,note_on,93,0,1
1,note_on,88,0,79
1,note_on,92,73,4
1,note_on,84,62,78
1,note_on,92,0,2
1,note_on,91,70,77
1,note_on,84,0,1
1,note_on,91,0,79
1,note_on,84,62,0
1,note_on,84,0,80
1,note_on,90,67,2
1,note_on,81,62,78
1,note_on,90,0,2
1,note_on,81,0,78
1,note_on,89,70,0
1,note_on,89,0,80
1,note_on,84,67,0
1,note_on,84,0,80
1,note_on,88,70,2
1,note_on,88,0,80
1,note_on,81,67,1
1,note_on,81,0,80
1,note_on,87,70,0
1,note_on,84,67,79
1,note_on,87,0,1
1,note_on,86,70,76
1,note_on,84,0,3
1,note_on,86,0,77
1,note_on,81,62,1
1,note_on,81,0,80
1,note_on,85,67,4
1,note_on,81,62,76
1,note_on,85,0,4
1,note_on,81,0,76
1,note_on,84,67,0
1,note_on,76,62,79
1,note_on,84,0,1
1,note_on,76,0,79
1,note_on,83,67,2
1,note_on,76,62,79
1,note_on,83,0,1
1,note_on,76,0,79
1,note_on,82,67,4
1,note_on,72,62,76
1,note_on,82,0,4
1,note_on,72,0,76
1,note_on,81,67,0
1,note_on,81,0,80
1,note_on,76,62,2
1,note_on,76,0,80
1,note_on,80,67,1
1,note_on,72,62,79
1,note_on,80,0,1
1,note_on,79,67,77
1,note_on,72,0,2
1,note_on,79,0,78
1,note_on,72,62,3
1,note_on,78,67,78
1,note_on,72,0,2
1,note_on,78,0,78
1,note_on,69,62,2
1,note_on,77,53,76
1,note_on,69,0,4
1,note_on,77,0,76
1,note_on,72,49,4
1,note_on,76,53,79
1,note_on,72,0,1
1,note_on,69,49,76
1,note_on,76,0,3
1,note_on,69,0,77
1,note_on,75,53,4
1,note_on,72,49,78
1,note_on,75,0,2
1,note_on,72,0,78
1,note_on,74,53,1
1,note_on,74,0,80
1,note_on,69,49,2
1,note_on,73,53,78
1,note_on,69,0,2
1,note_on,69,49,77
1,note_on,73,0,1
1,note_on,72,53,77
1,note_on,69,0,2
1,note_on,72,0,78
1,note_on,64,49,4
1,note_on,71,53,79
1,note_on,64,0,1
1,note_on,64,49,78
1,note_on,71,0,1
1,note_on,64,0,79
1,note_on,70,51,1
1,note_on,70,0,80
1,note_on,60,48,1
1,note_on,69,50,76
1,note_on,60,0,4
1,note_on,69,0,76
1,note_on,64,45,0
1,note_on,64,0,80
1,note_on,68,49,3
1,note_on,68,0,80
1,note_on,60,44,1
1,note_on,67,47,77
1,note_on,60,0,3
1,note_on,67,0,77
1,note_on,60,44,3
1,note_on,60,0,80
1,note_on,66,45,1
1,note_on,57,42,79
1,note_on,66,0,1
1,note_on,65,45,76
1,note_on,57,0,3
1,note_on,65,0,77
1,note_on,60,42,2
1,note_on,64,45,79
1,note_on,60,0,1
1,note_on,57,42,77
1,note_on,64,0,2
1,note_on,57,0,78
1,note_on,63,44,2
1,note_on,60,40,78
1,note_on,63,0,2
1,note_on,60,0,78
1,note_on,62,42,4
1,note_on,57,39,76
1,note_on,62,0,4
1,note_on,57,0,76
1,note_on,61,42,4
1,note_on,61,0,80
1,note_on,57,39,0
1,note_on,57,0,80
1,note_on,60,40,0
1,note_on,60,0,80
1,note_on,52,38,1
1,note_on,59,40,79
1,note_on,52,0,1
1,note_on,53,39,78
1,note_on,59,0,1
1,note_on,57,45,77
1,note_on,53,0,2
1,note_on,48,42,77
1,note_on,57,0,1
1,note_on,48,0,79
1,note_on,56,47,1
1,note_on,56,0,80
1,note_on,53,45,3
1,note_on,53,0,80
1,note_on,57,50,1
1,note_on,48,48,77
1,note_on,57,0,3
1,note_on,59,53,76
1,note_on,48,0,1
1,note_on,59,0,79
1,note_on,52,50,3
1,note_on,60,56,79
1,note_on,52,0,1
1,note_on,48,53,78
1,note_on,60,0,1
1,note_on,48,0,79
1,note_on,60,57,0
1,note_on,60,0,80
1,note_on,53,57,3
1,note_on,59,57,77
1,note_on,53,0,3
1,note_on,59,0,73
1,note_on,59,57,7
1,note_on,72,57,76
1,note_on,59,0,4
1,note_on,72,0,76
1,note_on,65,57,2
1,note_on,71,56,79
1,note_on,65,0,1
1,note_on,71,0,74
1,note_on,71,57,5
1,note_on,71,0,80
1,note_on,84,58,3
1,note_on,77,59,77
1,note_on,84,0,3
1,note_on,77,0,77
1,note_on,83,59,0
1,note_on,83,0,75
1,note_on,83,60,5
1,note_on,83,0,80
1,note_on,96,61,1
1,note_on,96,0,80
1,note_on,90,61,1
1,note_on,95,60,76
1,note_on,90,0,4
1,note_on,95,0,76
1,note_on,83,59,3
1,note_on,84,59,78
1,note_on,83,0,2
1,note_on,84,0,78
1,note_on,78,58,0
1,note_on,78,0,80
1,note_on,83,56,3
1,note_on,83,0,80
1,note_on,71,56,1
1,note_on,72,56,79
1,note_on,71,0,1
1,note_on,72,0,79
1,note_on,66,56,1
1,note_on,71,56,78
1,note_on,66,0,2
1,note_on,71,0,78
1,note_on,59,56,2
1,note_on,59,0,80
1,note_on,74,59,0
1,note_on,67,59,78
1,note_on,74,0,2
1,note_on,73,60,77
1,note_on,67,0,1
1,note_on,73,0,74
1,note_on,73,61,5
1,note_on,86,61,78
1,note_on,73,0,2
1,note_on,86,0,78
1,note_on,77,64,4
1,note_on,85,66,78
1,note_on,77,0,2
1,note_on,85,0,73
1,note_on,85,66,5
1,note_on,85,0,80
1,note_on,98,67,1
1,note_on,98,0,80
1,note_on,91,68,1
1,note_on,91,0,80
1,note_on,97,68,0
1,note_on,97,0,80
1,note_on,85,69,1
1,note_on,99,69,75
1,note_on,85,0,5
1,note_on,99,0,75
1,note_on,94,69,2
1,note_on,94,0,80
1,note_on,98,70,1
1,note_on,86,71,79
1,note_on,98,0,1
1,note_on,86,0,79
1,note_on,87,71,0
1,note_on,87,0,80
1,note_on,82,72,2
1,note_on,86,73,79
1,note_on,82,0,1
1,note_on,74,73,78
1,note_on,86,0,1
1,note_on,74,0,79
1,note_on,75,75,1
1,note_on,70,78,79
1,note_on,75,0,1
1,note_on,70,0,79
1,note_on,74,78,2
1,note_on,62,79,76
1,note_on,74,0,4
1,note_on,62,0,76
1,note_on,76,78,0
1,note_on,76,0,80
1,note_on,69,72,5
1,note_on,75,78,75
1,note_on,69,0,5
1,note_on,75,0,75
1,note_on,63,72,2
1,note_on,76,78,78
1,note_on,63,0,2
1,note_on,76,0,78
1,note_on,69,72,2
1,note_on,69,0,80
1,note_on,75,81,0
1,note_on,75,0,80
1,note_on,75,75,0
1,note_on,75,0,80
1,note_on,88,86,0
1,note_on,81,79,79
1,note_on,88,0,1
1,note_on,81,0,79
1,note_on,87,86,1
1,note_on,87,0,80
1,note_on,87,80,0
1,note_on,87,0,80
1,note_on,100,86,3
1,note_on,100,0,80
1,note_on,93,80,0
1,note_on,99,86,77
1,note_on,93,0,3
1,note_on,99,0,77
1,note_on,87,81,0
1,note_on,88,86,79
1,note_on,87,0,1
1,note_on,88,0,79
1,note_on,81,81,4
1,note_on,87,86,79
1,note_on,81,0,1
1,note_on,75,80,77
1,note_on,87,0,2
1,note_on,75,0,78
1,note_on,88,86,2
1,note_on,81,86,79
1,note_on,88,0,1
1,note_on,87,86,78
1,note_on,81,0,1
1,note_on,87,0,72
1,note_on,87,80,7
1,note_on,87,0,80
1,note_on,100,86,2
1,note_on,93,80,77
1,note_on,100,0,3
1,note_on,99,86,76
1,note_on,93,0,1
1,note_on,99,0,79
1,note_on,87,86,3
1,note_on,87,0,80
1,note_on,88,86,1
1,note_on,81,80,79
1,note_on,88,0,1
1,note_on,87,82,76
1,note_on,81,0,3
1,note_on,87,0,77
1,note_on,75,78,3
1,note_on,88,82,79
1,note_on,75,0,1
1,note_on,88,0,79
1,note_on,81,82,3
1,note_on,87,82,77
1,note_on,81,0,3
1,note_on,87,0,71
1,note_on,87,78,6
1,note_on,100,80,79
1,note_on,87,0,1
1,note_on,93,68,78
1,note_on,100,0,1
1,note_on,93,0,79
1,note_on,99,70,1
1,note_on,99,0,80
1,note_on,87,62,1
1,note_on,87,0,80
1,note_on,100,66,1
1,note_on,93,60,77
1,note_on,100,0,3
1,note_on,93,0,77
1,note_on,99,62,2
1,note_on,87,58,78
1,note_on,99,0,2
1,note_on,87,0,78
1,note_on,100,59,5
1,note_on,93,53,79
1,note_on,100,0,1
1,note_on,99,55,75
1,note_on,93,0,4
1,note_on,99,0,76
1,note_on,87,49,0
1,note_on,87,0,80
1,note_on,100,60,4
1,note_on,100,0,80
1,note_on,95,55,1
1,note_on,99,61,79
1,note_on,95,0,1
1,note_on,99,0,79
1,note_on,93,56,0
1,note_on,100,62,76
1,note_on,93,0,4
1,note_on,100,0,76
1,note_on,95,56,4
1,note_on,99,63,79
1,note_on,95,0,1
1,note_on,99,0,79
1,note_on,93,57,0
1,note_on,93,0,80
1,note_on,100,64,2
1,note_on,95,60,75
1,note_on,100,0,5
1,note_on,95,0,75
1,note_on,99,66,5
1,note_on,99,0,80
1,note_on,93,60,0
1,note_on,100,67,78
1,note_on,93,0,2
1,note_on,100,0,78
1,note_on,95,60,2
1,note_on,99,68,78
1,note_on,95,0,2
1,note_on,93,62,75
1,note_on,99,0,3
1,note_on,93,0,77
1,note_on,100,69,5
1,note_on,95,63,78
1,note_on,100,0,2
1,note_on,99,70,76
1,note_on,95,0,2
1,note_on,99,0,78
1,note_on,93,64,0
1,note_on,93,0,80
1,note_on,100,72,2
1,note_on,100,0,80
1,note_on,95,66,2
1,note_on,99,73,79
1,note_on,95,0,1
1,note_on,99,0,79
1,note_on,93,67,1
1,note_on,100,74,77
1,note_on,93,0,3
1,note_on,100,0,77
1,note_on,95,67,3
1,note_on,99,75,78
1,note_on,95,0,2
1,note_on,99,0,78
1,note_on,93,67,1
1,note_on,100,77,76
1,note_on,93,0,4
1,note_on,100,0,76
1,note_on,95,69,4
1,note_on,95,0,80
1,note_on,99,78,0
1,note_on,99,0,80
1,note_on,93,69,1
1,note_on,93,0,80
1,note_on,100,79,0
1,note_on,95,69,76
1,note_on,100,0,4
1,note_on,99,80,75
1,note_on,95,0,1
1,note_on,99,0,79
1,note_on,93,69,1
1,note_on,93,0,80
1,note_on,100,81,0
1,note_on,100,0,80
1,note_on,95,70,4
1,note_on,95,0,80
1,note_on,99,82,0
1,note_on,93,74,76
1,note_on,99,0,4
1,note_on,93,0,76
1,note_on,100,84,0
1,note_on,100,0,80
1,note_on,95,78,4
1,note_on,99,86,77
1,note_on,95,0,3
1,note_on,93,78,76
1,note_on,99,0,1
1,note_on,93,0,79
1,note_on,100,88,4
1,note_on,95,80,79
1,note_on,100,0,1
1,note_on,99,89,77
1,note_on,95,0,2
1,note_on,99,0,78
1,note_on,93,81,0
1,note_on,93,0,80
1,note_on,101,89,1
1,note_on,101,0,80
1,note_on,96,82,0
1,note_on,96,0,80
1,note_on,100,89,2
1,note_on,93,82,79
1,note_on,100,0,1
1,note_on,93,0,79
1,note_on,98,79,0
1,note_on,93,72,78
1,note_on,98,0,2
1,note_on,93,0,78
1,note_on,96,79,1
1,note_on,96,0,80
1,note_on,88,75,2
1,note_on,95,79,78
1,note_on,88,0,2
1,note_on,88,75,76
1,note_on,95,0,2
1,note_on,88,0,78
1,note_on,93,79,1
1,note_on,93,0,80
1,note_on,84,72,1
1,note_on,84,0,80
1,note_on,89,79,1
1,note_on,84,73,78
1,note_on,89,0,2
1,note_on,84,0,78
1,note_on,88,79,2
1,note_on,81,72,77
1,note_on,88,0,3
1,note_on,86,79,76
1,note_on,81,0,1
1,note_on,86,0,79
1,note_on,81,73,0
1,note_on,81,0,80
1,note_on,84,79,0
1,note_on,84,0,80
1,note_on,76,72,2
1,note_on,83,79,79
1,note_on,76,0,1
1,note_on,83,0,79
1,note_on,76,72,2
1,note_on,76,0,80
1,note_on,81,79,2
1,note_on,72,72,76
1,note_on,81,0,4
1,note_on,72,0,76
1,note_on,77,79,3
1,note_on,72,72,79
1,note_on,77,0,1
1,note_on,72,0,79
1,note_on,76,79,2
1,note_on,69,72,75
1,note_on,76,0,5
1,note_on,69,0,75
1,note_on,74,79,1
1,note_on,74,0,80
1,note_on,69,72,1
1,note_on,69,0,80
1,note_on,72,79,2
1,note_on,72,0,80
1,note_on,64,73,0
1,note_on,71,79,76
1,note_on,64,0,4
1,note_on,71,0,76
1,note_on,64,72,2
1,note_on,64,0,80
1,note_on,69,79,0
1,note_on,69,0,80
1,note_on,60,72,3
1,note_on,59,81,77
1,note_on,71,96,0
1,note_on,64,81,0
1,note_on,69,96,0
1,note_on,60,0,3
1,note_on,64,0,477
1,note_on,59,0,0
1,note_on,71,0,0
1,note_on,69,0,0
1,note_on,64,81,0
1,note_on,76,96,0
1,note_on,62,81,0
1,note_on,68,96,0
1,note_on,71,96,0
1,note_on,93,100,478
1,note_on,71,0,2
1,note_on,68,0,0
1,note_on,62,0,0
1,note_on,64,0,0
1,note_on,76,0,0
1,note_on,93,0,72
1,note_on,88,82,10
1,note_on,88,0,80
1,note_on,92,93,0
1,note_on,84,84,79
1,note_on,92,0,1
1,note_on,84,0,79
1,note_on,91,93,0
1,note_on,88,82,79
1,note_on,91,0,1
1,note_on,90,93,77
1,note_on,88,0,2
1,note_on,90,0,78
1,note_on,84,83,0
1,note_on,84,0,80
1,note_on,89,93,4
1,note_on,84,83,76
1,note_on,89,0,4
1,note_on,84,0,76
1,note_on,88,93,1
1,note_on,88,0,80
1,note_on,81,83,0
1,note_on,87,93,79
1,note_on,81,0,1
1,note_on,87,0,79
1,note_on,84,82,3
1,note_on,86,93,78
1,note_on,84,0,2
1,note_on,86,0,78
1,note_on,81,82,3
1,note_on,85,93,79
1,note_on,81,0,1
1,note_on,85,0,79
1,note_on,81,82,0
1,note_on,81,0,80
1,note_on,84,93,2
1,note_on,76,82,78
1,note_on,84,0,2
1,note_on,76,0,78
1,note_on,83,93,1
1,note_on,76,82,79
1,note_on,83,0,1
1,note_on,82,93,76
1,note_on,76,0,3
1,note_on,82,0,77
1,note_on,72,82,1
1,note_on,81,93,79
1,note_on,72,0,1
1,note_on,81,0,79
1,note_on,76,81,4
1,note_on,76,0,80
1,note_on,80,93,1
1,note_on,72,82,78
1,note_on,80,0,2
1,note_on,79,93,76
1,note_on,72,0,2
1,note_on,79,0,78
1,note_on,76,82,1
1,note_on,78,93,78
1,note_on,76,0,2
1,note_on,78,0,78
1,note_on,72,82,3
1,note_on,77,93,78
1,note_on,72,0,2
1,note_on,77,0,78
1,note_on,72,82,2
1,note_on,76,93,79
1,note_on,72,0,1
1,note_on,76,0,79
1,note_on,69,82,1
1,note_on,69,0,80
1,note_on,75,93,1
1,note_on,75,0,80
1,note_on,72,82,0
1,note_on,72,0,80
1,note_on,74,93,0
1,note_on,69,82,79
1,note_on,74,0,1
1,note_on,73,93,76
1,note_on,69,0,3
1,note_on,73,0,77
1,note_on,69,82,5
1,note_on,72,93,79
1,note_on,69,0,1
1,note_on,64,80,75
1,note_on,72,0,4
1,note_on,64,0,76
1,note_on,71,92,1
1,note_on,71,0,80
1,note_on,64,79,1
1,note_on,70,90,78
1,note_on,64,0,2
1,note_on,70,0,78
1,note_on,60,79,5
1,note_on,69,89,77
1,note_on,60,0,3
1,note_on,69,0,77
1,note_on,64,77,2
1,note_on,68,88,79
1,note_on,64,0,1
1,note_on,68,0,79
1,note_on,60,77,1
1,note_on,67,86,79
1,note_on,60,0,1
1,note_on,67,0,79
1,note_on,64,75,2
1,note_on,66,85,76
1,note_on,64,0,4
1,note_on,66,0,76
1,note_on,60,74,4
1,note_on,60,0,80
1,note_on,65,84,0
1,note_on,60,73,77
1,note_on,65,0,3
1,note_on,64,81,75
1,note_on,60,0,2
1,note_on,64,0,78
1,note_on,57,72,0
1,note_on,57,0,80
1,note_on,63,79,5
1,note_on,63,0,80
1,note_on,60,70,0
1,note_on,62,78,78
1,note_on,60,0,2
1,note_on,57,68,75
1,note_on,62,0,3
1,note_on,57,0,77
1,note_on,61,75,0
1,note_on,61,0,80
1,note_on,57,67,1
1,note_on,57,0,80
1,note_on,60,74,1
1,note_on,60,0,80
1,note_on,52,63,0
1,note_on,52,0,80
1,note_on,59,72,2
1,note_on,59,0,80
1,note_on,52,60,0
1,note_on,58,68,79
1,note_on,52,0,1
1,note_on,58,0,79
1,note_on,48,58,2
1,note_on,57,100,78
1,note_on,48,0,2
1,note_on,57,0,78
1,note_on,52,89,2
1,note_on,56,100,76
1,note_on,52,0,4
1,note_on,56,0,76
1,note_on,48,91,0
1,note_on,48,0,80
1,note_on,55,100,0
1,note_on,55,0,80
1,note_on,52,89,1
1,note_on,54,100,79
1,note_on,52,0,1
1,note_on,54,0,79
1,note_on,48,90,0
1,note_on,48,0,80
1,note_on,53,100,4
1,note_on,48,90,79
1,note_on,53,0,1
1,note_on,48,0,79
1,note_on,52,100,1
1,note_on,45,90,77
1,note_on,52,0,3
1,note_on,45,0,77
1,note_on,51,100,0
1,note_on,51,0,80
1,note_on,48,88,3
1,note_on,50,100,75
1,note_on,48,0,5
1,note_on,50,0,75
1,note_on,45,88,4
1,note_on,49,100,77
1,note_on,45,0,3
1,note_on,49,0,77
1,note_on,45,88,2
1,note_on,48,100,78
1,note_on,45,0,2
1,note_on,48,0,78
1,note_on,40,88,3
1,note_on,47,100,77
1,note_on,40,0,3
1,note_on,47,0,77
1,note_on,40,88,0
1,note_on,40,0,80
1,note_on,46,100,4
1,note_on,40,88,77
1,note_on,46,0,3
1,note_on,40,0,77
1,note_on,45,121,0
1,note_on,45,0,480
1,note_on,57,85,0
1,note_on,60,85,0
1,note_on,69,101,0
1,note_on,64,101,0
1,note_on,64,0,360
1,note_on,57,0,0
1,note_on,60,0,0
1,note_on,69,0,0
1,note_on,57,81,0
1,note_on,64,96,0
1,note_on,60,81,0
1,note_on,69,96,0
1,note_on,69,0,120
1,note_on,57,0,0
1,note_on,64,0,0
1,note_on,60,0,0
1,note_on,57,85,0
1,note_on,64,101,0
1,note_on,60,85,0
1,note_on,69,101,0
1,note_on,69,0,480
1,note_on,57,0,0
1,note_on,64,0,0
1,note_on,60,0,0
1,note_on,57,82,0
1,note_on,65,97,0
1,note_on,62,82,0
1,note_on,69,97,0
1,note_on,69,0,480
1,note_on,57,0,0
1,note_on,65,0,0
1,note_on,62,0,0
1,note_on,57,85,0
1,note_on,64,101,0
1,note_on,60,85,0
1,note_on,69,101,0
1,note_on,69,0,960
1,note_on,57,0,0
1,note_on,64,0,0
1,note_on,60,0,0
1,note_on,57,84,0
1,note_on,62,99,0
1,note_on,59,84,0
1,note_on,69,99,0
1,note_on,69,0,960
1,note_on,57,0,0
1,note_on,62,0,0
1,note_on,59,0,0
1,note_on,57,85,0
1,note_on,64,101,0
1,note_on,60,85,0
1,note_on,69,101,0
1,note_on,45,70,959
1,note_on,47,72,119
1,note_on,45,0,25
1,note_on,48,72,99
1,note_on,47,0,20
1,note_on,50,73,100
1,note_on,48,0,24
1,note_on,52,74,95
1,note_on,50,0,25
1,note_on,54,74,95
1,note_on,52,0,24
1,note_on,56,74,98
1,note_on,54,0,22
1,note_on,57,74,98
1,note_on,56,0,24
1,note_on,59,75,94
1,note_on,57,0,26
1,note_on,60,78,94
1,note_on,59,0,24
1,note_on,62,78,96
1,note_on,60,0,24
1,note_on,64,79,93
1,note_on,62,0,27
1,note_on,66,80,97
1,note_on,64,0,20
1,note_on,68,80,101
1,note_on,66,0,23
1,note_on,69,81,95
1,note_on,68,0,26
1,note_on,71,81,92
1,note_on,69,0,26
1,note_on,72,81,93
1,note_on,71,0,25
1,note_on,74,82,100
1,note_on,72,0,19
1,note_on,76,84,100
1,note_on,74,0,25
1,note_on,78,84,91
1,note_on,76,0,28
1,note_on,80,85,92
1,note_on,78,0,24
1,note_on,81,85,101
1,note_on,80,0,19
1,note_on,83,86,98
1,note_on,81,0,27
1,note_on,84,88,95
1,note_on,83,0,22
1,note_on,86,88,94
1,note_on,84,0,28
1,note_on,88,89,93
1,note_on,86,0,23
1,note_on,90,90,96
1,note_on,88,0,25
1,note_on,92,90,95
1,note_on,90,0,24
1,note_on,69,0,98
1,note_on,60,0,0
1,note_on,57,0,0
1,note_on,64,0,0
1,note_on,93,97,0
1,note_on,92,0,22
1,note_on,93,0,218
2,note_on,48,24,3840
2,note_on,48,0,480
2,note_on,48,24,0
2,note_on,48,0,360
2,note_on,48,22,0
2,note_on,48,0,120
2,note_on,48,25,0
2,note_on,48,0,480
2,note_on,41,24,0
2,note_on,41,0,480
2,note_on,36,24,0
2,note_on,36,0,480
2,note_on,41,22,0
2,note_on,41,0,480
2,note_on,36,20,0
2,note_on,36,0,480
2,note_on,35,18,0
2,note_on,35,0,480
2,note_on,33,112,0
2,note_on,33,0,194
2,note_on,64,88,240
2,note_on,60,74,0
2,note_on,57,74,0
2,note_on,57,0,360
2,note_on,60,0,0
2,note_on,64,0,0
2,note_on,57,70,0
2,note_on,60,70,0
2,note_on,64,82,0
2,note_on,64,0,120
2,note_on,60,0,0
2,note_on,57,0,0
2,note_on,64,88,0
2,note_on,60,74,0
2,note_on,57,74,0
2,note_on,57,0,480
2,note_on,60,0,0
2,note_on,64,0,0
2,note_on,57,77,0
2,note_on,60,77,0
2,note_on,65,92,0
2,note_on,65,0,472
2,note_on,60,0,0
2,note_on,57,0,0
2,note_on,57,74,0
2,note_on,60,74,0
2,note_on,64,88,0
2,note_on,64,0,480
2,note_on,60,0,0
2,note_on,57,0,0
2,note_on,52,70,0
2,note_on,57,70,0
2,note_on,60,82,0
2,note_on,60,0,480
2,note_on,57,0,0
2,note_on,52,0,0
2,note_on,57,70,0
2,note_on,60,70,0
2,note_on,64,82,0
2,note_on,64,0,960
2,note_on,60,0,0
2,note_on,57,0,0
2,note_on,33,99,0
2,note_on,33,0,203
2,note_on,45,58,240
2,note_on,52,69,0
2,note_on,52,0,360
2,note_on,45,0,0
2,note_on,45,50,0
2,note_on,52,61,0
2,note_on,52,0,120
2,note_on,45,0,0
2,note_on,45,60,0
2,note_on,52,70,0
2,note_on,52,0,480
2,note_on,45,0,0
2,note_on,45,52,0
2,note_on,53,62,0
2,note_on,53,0,471
2,note_on,45,0,0
2,note_on,45,55,0
2,note_on,52,63,0
2,note_on,52,0,480
2,note_on,45,0,0
2,note_on,33,60,0
2,note_on,40,68,480
2,note_on,40,0,960
2,note_on,33,0,0
2,note_on,32,99,0
2,note_on,32,0,208
2,note_on,53,66,240
2,note_on,62,77,0
2,note_on,62,0,303
2,note_on,53,0,0
2,note_on,53,61,0
2,note_on,62,73,0
2,note_on,62,0,120
2,note_on,53,0,0
2,note_on,53,66,0
2,note_on,60,77,0
2,note_on,60,0,469
2,note_on,53,0,0
2,note_on,33,70,0
2,note_on,45,84,0
2,note_on,45,0,480
2,note_on,33,0,0
2,note_on,32,73,0
2,note_on,44,86,0
2,note_on,44,0,205
2,note_on,32,0,0
2,note_on,55,77,240
2,note_on,62,66,0
2,note_on,62,0,89
2,note_on,55,0,0
2,note_on,53,72,0
2,note_on,62,60,0
2,note_on,62,0,160
2,note_on,53,0,0
2,note_on,52,73,0
2,note_on,62,61,0
2,note_on,62,0,160
2,note_on,52,0,0
2,note_on,52,77,0
2,note_on,60,66,0
2,note_on,60,0,461
2,note_on,52,0,0
2,note_on,33,68,0
2,note_on,45,81,0
2,note_on,45,0,480
2,note_on,33,0,0
2,note_on,35,66,0
2,note_on,47,77,0
2,note_on,47,0,209
2,note_on,35,0,0
2,note_on,56,60,240
2,note_on,59,60,0
2,note_on,64,70,0
2,note_on,64,0,105
2,note_on,68,66,0
2,note_on,68,0,160
2,note_on,73,70,0
2,note_on,73,0,160
2,note_on,59,0,0
2,note_on,56,0,0
2,note_on,59,60,0
2,note_on,63,60,0
2,note_on,71,70,0
2,note_on,69,70,0
2,note_on,69,0,405
2,note_on,59,0,0
2,note_on,63,0,0
2,note_on,71,0,0
2,note_on,47,66,0
2,note_on,59,77,0
2,note_on,59,0,480
2,note_on,47,0,0
2,note_on,40,66,0
2,note_on,52,77,0
2,note_on,52,0,168
2,note_on,40,0,0
2,note_on,68,67,240
2,note_on,59,56,0
2,note_on,59,0,160
2,note_on,68,0,0
2,note_on,67,58,0
2,note_on,58,49,0
2,note_on,58,0,160
2,note_on,67,0,0
2,note_on,68,63,0
2,note_on,59,55,0
2,note_on,59,0,160
2,note_on,68,0,0
2,note_on,52,63,0
2,note_on,56,63,0
2,note_on,64,72,0
2,note_on,64,0,180
2,note_on,56,0,0
2,note_on,52,0,0
2,note_on,33,100,666
2,note_on,33,0,194
2,note_on,64,84,240
2,note_on,60,70,0
2,note_on,57,70,0
2,note_on,57,0,360
2,note_on,60,0,0
2,note_on,64,0,0
2,note_on,57,67,0
2,note_on,60,67,0
2,note_on,64,79,0
2,note_on,64,0,120
2,note_on,60,0,0
2,note_on,57,0,0
2,note_on,64,84,0
2,note_on,60,70,0
2,note_on,57,70,0
2,note_on,57,0,480
2,note_on,60,0,0
2,note_on,64,0,0
2,note_on,57,74,0
2,note_on,60,74,0
2,note_on,65,88,0
2,note_on,65,0,471
2,note_on,60,0,0
2,note_on,57,0,0
2,note_on,57,70,0
2,note_on,60,70,0
2,note_on,64,84,0
2,note_on,64,0,480
2,note_on,60,0,0
2,note_on,57,0,0
2,note_on,52,67,0
2,note_on,57,67,0
2,note_on,60,79,0
2,note_on,60,0,480
2,note_on,57,0,0
2,note_on,52,0,0
2,note_on,57,67,0
2,note_on,60,67,0
2,note_on,64,79,0
2,note_on,64,0,960
2,note_on,60,0,0
2,note_on,57,0,0
2,note_on,24,70,0
2,note_on,36,80,0
2,note_on,36,0,194
2,note_on,24,0,0
2,note_on,43,58,240
2,note_on,52,69,0
2,note_on,52,0,360
2,note_on,43,0,0
2,note_on,43,50,0
2,note_on,52,61,0
2,note_on,52,0,120
2,note_on,43,0,0
2,note_on,43,60,0
2,note_on,52,70,0
2,note_on,52,0,480
2,note_on,43,0,0
2,note_on,43,52,0
2,note_on,53,62,0
2,note_on,53,0,468
2,note_on,43,0,0
2,note_on,43,49,0
2,note_on,52,58,0
2,note_on,52,0,480
2,note_on,43,0,0
2,note_on,48,58,0
2,note_on,36,55,0
2,note_on,48,0,480
2,note_on,52,58,0
2,note_on,43,49,0
2,note_on,43,0,960
2,note_on,52,0,0
2,note_on,36,0,0
2,note_on,36,74,0
2,note_on,36,0,214
2,note_on,64,55,240
2,note_on,58,55,0
2,note_on,55,61,0
2,note_on,55,0,117
2,note_on,58,0,0
2,note_on,64,0,0
2,note_on,47,62,0
2,note_on,47,0,160
2,note_on,48,63,0
2,note_on,48,0,160
2,note_on,49,69,0
2,note_on,63,58,0
2,note_on,58,58,0
2,note_on,55,58,0
2,note_on,55,0,411
2,note_on,49,0,0
2,note_on,63,0,0
2,note_on,58,0,0
2,note_on,37,60,0
2,note_on,49,72,0
2,note_on,49,0,414
2,note_on,37,0,0
2,note_on,38,66,0
2,note_on,50,77,0
2,note_on,50,0,151
2,note_on,38,0,0
2,note_on,64,55,240
2,note_on,58,55,0
2,note_on,55,63,0
2,note_on,55,0,103
2,note_on,58,0,0
2,note_on,64,0,0
2,note_on,47,63,0
2,note_on,47,0,160
2,note_on,49,63,0
2,note_on,51,70,115
2,note_on,49,0,5
2,note_on,55,70,10
2,note_on,58,58,15
2,note_on,63,58,15
2,note_on,63,0,408
2,note_on,51,0,0
2,note_on,55,0,0
2,note_on,58,0,0
2,note_on,39,60,0
2,note_on,51,72,0
2,note_on,51,0,400
2,note_on,39,0,0
2,note_on,40,80,0
2,note_on,52,80,0
2,note_on,52,0,168
2,note_on,40,0,0
2,note_on,60,88,240
2,note_on,60,0,291
2,note_on,60,79,0
2,note_on,60,0,120
2,note_on,60,88,0
2,note_on,60,0,480
2,note_on,36,55,0
2,note_on,48,63,0
2,note_on,48,0,480
2,note_on,36,0,0
2,note_on,41,58,0
2,note_on,53,70,0
2,note_on,53,0,163
2,note_on,41,0,0
2,note_on,69,74,240
2,note_on,69,0,360
2,note_on,57,67,0
2,note_on,62,70,120
2,note_on,53,70,0
2,note_on,62,0,345
2,note_on,64,67,0
2,note_on,64,0,120
2,note_on,65,70,0
2,note_on,65,0,480
2,note_on,53,0,0
2,note_on,57,0,0
2,note_on,31,77,0
2,note_on,43,77,0
2,note_on,43,0,190
2,note_on,31,0,0
2,note_on,55,70,240
2,note_on,59,70,0
2,note_on,59,0,160
2,note_on,65,63,0
2,note_on,65,0,160
2,note_on,69,63,0
2,note_on,69,0,160
2,note_on,55,0,0
2,note_on,67,70,0
2,note_on,67,0,480
2,note_on,55,68,0
2,note_on,59,68,0
2,note_on,65,68,0
2,note_on,65,0,480
2,note_on,59,0,0
2,note_on,55,0,0
2,note_on,36,72,0
2,note_on,48,72,0
2,note_on,48,0,191
2,note_on,36,0,0
2,note_on,48,55,120
2,note_on,55,55,60
2,note_on,64,63,60
2,note_on,64,0,480
2,note_on,55,0,0
2,note_on,48,0,0
2,note_on,40,90,960
2,note_on,28,90,0
2,note_on,28,0,174
2,note_on,40,0,0
2,note_on,59,77,240
2,note_on,55,66,0
2,note_on,52,66,0
2,note_on,52,0,360
2,note_on,55,0,0
2,note_on,59,0,0
2,note_on,52,60,0
2,note_on,55,60,0
2,note_on,59,72,0
2,note_on,59,0,120
2,note_on,55,0,0
2,note_on,52,0,0
2,note_on,59,77,0
2,note_on,55,66,0
2,note_on,52,66,0
2,note_on,52,0,480
2,note_on,55,0,0
2,note_on,59,0,0
2,note_on,52,67,0
2,note_on,55,67,0
2,note_on,60,80,0
2,note_on,60,0,468
2,note_on,55,0,0
2,note_on,52,0,0
2,note_on,52,66,0
2,note_on,55,66,0
2,note_on,59,77,0
2,note_on,59,0,480
2,note_on,55,0,0
2,note_on,52,0,0
2,note_on,52,60,0
2,note_on,55,72,0
2,note_on,47,60,0
2,note_on,47,0,480
2,note_on,55,0,0
2,note_on,52,0,0
2,note_on,52,60,0
2,note_on,59,72,0
2,note_on,55,60,0
2,note_on,55,0,960
2,note_on,59,0,0
2,note_on,52,0,0
2,note_on,28,74,0
2,note_on,28,0,200
2,note_on,40,58,240
2,note_on,47,69,0
2,note_on,47,0,360
2,note_on,40,0,0
2,note_on,47,61,0
2,note_on,40,50,0
2,note_on,40,0,120
2,note_on,47,0,0
2,note_on,40,60,0
2,note_on,47,70,0
2,note_on,47,0,480
2,note_on,40,0,0
2,note_on,40,52,0
2,note_on,48,62,0
2,note_on,48,0,465
2,note_on,40,0,0
2,note_on,40,55,0
2,note_on,47,63,0
2,note_on,47,0,480
2,note_on,40,0,0
2,note_on,28,55,0
2,note_on,35,58,480
2,note_on,35,0,960
2,note_on,28,0,0
2,note_on,27,70,0
2,note_on,27,0,183
2,note_on,60,77,240
2,note_on,51,77,0
2,note_on,51,0,317
2,note_on,60,0,0
2,note_on,60,73,0
2,note_on,51,73,0
2,note_on,51,0,120
2,note_on,60,0,0
2,note_on,52,77,0
2,note_on,60,77,0
2,note_on,60,0,405
2,note_on,52,0,0
2,note_on,28,66,0
2,note_on,40,77,0
2,note_on,40,0,405
2,note_on,28,0,0
2,note_on,27,67,0
2,note_on,39,67,0
2,note_on,39,0,163
2,note_on,27,0,0
2,note_on,62,77,240
2,note_on,51,77,0
2,note_on,51,0,111
2,note_on,62,0,0
2,note_on,60,72,0
2,note_on,51,72,0
2,note_on,51,0,240
2,note_on,60,0,0
2,note_on,51,73,0
2,note_on,59,73,0
2,note_on,59,0,80
2,note_on,51,0,0
2,note_on,59,77,0
2,note_on,52,77,0
2,note_on,52,0,400
2,note_on,59,0,0
2,note_on,28,67,0
2,note_on,40,79,0
2,note_on,40,0,408
2,note_on,28,0,0
2,note_on,42,69,0
2,note_on,30,69,0
2,note_on,30,0,180
2,note_on,42,0,0
2,note_on,59,70,240
2,note_on,54,60,0
2,note_on,59,0,114
2,note_on,63,66,0
2,note_on,63,0,160
2,note_on,68,70,0
2,note_on,68,0,160
2,note_on,54,0,0
2,note_on,58,60,0
2,note_on,66,70,0
2,note_on,64,70,0
2,note_on,54,60,0
2,note_on,54,0,423
2,note_on,58,0,0
2,note_on,66,0,0
2,note_on,64,0,0
2,note_on,42,77,0
2,note_on,30,66,0
2,note_on,30,0,423
2,note_on,42,0,0
2,note_on,35,66,0
2,note_on,47,77,0
2,note_on,47,0,185
2,note_on,35,0,0
2,note_on,54,56,240
2,note_on,63,67,0
2,note_on,63,0,100
2,note_on,54,0,0
2,note_on,53,49,0
2,note_on,62,58,0
2,note_on,62,0,160
2,note_on,53,0,0
2,note_on,63,63,0
2,note_on,54,55,0
2,note_on,54,0,160
2,note_on,63,0,0
2,note_on,51,65,0
2,note_on,59,76,0
2,note_on,47,65,0
2,note_on,47,0,165
2,note_on,59,0,0
2,note_on,51,0,0
2,note_on,40,90,611
2,note_on,40,0,180
2,note_on,59,77,240
2,note_on,55,66,0
2,note_on,52,66,0
2,note_on,52,0,360
2,note_on,55,0,0
2,note_on,59,0,0
2,note_on,52,60,0
2,note_on,55,60,0
2,note_on,59,72,0
2,note_on,59,0,120
2,note_on,55,0,0
2,note_on,52,0,0
2,note_on,59,77,0
2,note_on,55,66,0
2,note_on,52,66,0
2,note_on,52,0,480
2,note_on,55,0,0
2,note_on,59,0,0
2,note_on,52,67,0
2,note_on,55,67,0
2,note_on,60,80,0
2,note_on,60,0,465
2,note_on,55,0,0
2,note_on,52,0,0
2,note_on,52,66,0
2,note_on,55,66,0
2,note_on,59,77,0
2,note_on,59,0,480
2,note_on,55,0,0
2,note_on,52,0,0
2,note_on,47,60,0
2,note_on,52,60,0
2,note_on,55,72,0
2,note_on,55,0,480
2,note_on,52,0,0
2,note_on,47,0,0
2,note_on,52,60,0
2,note_on,55,60,0
2,note_on,59,72,0
2,note_on,59,0,960
2,note_on,55,0,0
2,note_on,52,0,0
2,note_on,31,62,0
2,note_on,31,0,209
2,note_on,38,58,240
2,note_on,47,69,0
2,note_on,47,0,360
2,note_on,47,61,0
2,note_on,47,0,120
2,note_on,47,70,0
2,note_on,47,0,480
2,note_on,48,62,0
2,note_on,48,0,461
2,note_on,47,73,0
2,note_on,47,0,480
2,note_on,38,0,0
2,note_on,31,69,0
2,note_on,38,66,480
2,note_on,38,0,960
2,note_on,31,0,0
2,note_on,31,75,0
2,note_on,31,0,200
2,note_on,59,82,240
2,note_on,50,70,0
2,note_on,50,0,103
2,note_on,59,0,0
2,note_on,42,73,0
2,note_on,42,0,160
2,note_on,43,79,0
2,note_on,43,0,160
2,note_on,44,82,0
2,note_on,58,82,0
2,note_on,50,70,0
2,note_on,50,0,411
2,note_on,58,0,0
2,note_on,44,0,0
2,note_on,32,86,0
2,note_on,32,0,405
2,note_on,33,81,0
2,note_on,33,0,165
2,note_on,62,80,240
2,note_on,53,67,0
2,note_on,53,0,108
2,note_on,62,0,0
2,note_on,44,73,0
2,note_on,44,0,160
2,note_on,45,79,0
2,note_on,45,0,160
2,note_on,46,82,0
2,note_on,62,82,0
2,note_on,56,70,0
2,note_on,53,70,0
2,note_on,53,0,414
2,note_on,46,0,0
2,note_on,62,0,0
2,note_on,56,0,0
2,note_on,34,94,0
2,note_on,34,0,414
2,note_on,35,90,0
2,note_on,35,0,152
2,note_on,55,96,240
2,note_on,55,0,296
2,note_on,55,86,0
2,note_on,55,0,120
2,note_on,55,96,0
2,note_on,55,0,480
2,note_on,31,55,0
2,note_on,43,55,0
2,note_on,43,0,480
2,note_on,31,0,0
2,note_on,36,60,0
2,note_on,48,60,0
2,note_on,48,0,183
2,note_on,36,0,0
2,note_on,52,57,240
2,note_on,52,0,160
2,note_on,60,57,0
2,note_on,60,0,160
2,note_on,68,57,0
2,note_on,68,0,160
2,note_on,41,57,0
2,note_on,41,0,171
2,note_on,53,48,240
2,note_on,56,57,0
2,note_on,56,0,160
2,note_on,53,0,0
2,note_on,61,57,0
2,note_on,61,0,160
2,note_on,68,57,0
2,note_on,68,0,160
2,note_on,43,68,0
2,note_on,43,0,183
2,note_on,55,52,240
2,note_on,60,62,0
2,note_on,60,0,97
2,note_on,55,0,0
2,note_on,64,57,0
2,note_on,64,0,160
2,note_on,67,57,0
2,note_on,67,0,160
2,note_on,43,62,0
2,note_on,43,0,180
2,note_on,65,57,240
2,note_on,55,57,0
2,note_on,62,57,0
2,note_on,67,57,0
2,note_on,48,60,450
2,note_on,55,60,15
2,note_on,67,0,15
2,note_on,62,0,0
2,note_on,65,0,0
2,note_on,55,0,0
2,note_on,64,60,0
2,note_on,64,0,409
2,note_on,55,0,0
2,note_on,48,0,0
2,note_on,69,66,1423
2,note_on,69,0,80
2,note_on,64,61,2
2,note_on,67,66,78
2,note_on,64,0,2
2,note_on,67,0,78
2,note_on,61,61,2
2,note_on,65,66,78
2,note_on,61,0,2
2,note_on,61,61,77
2,note_on,65,0,1
2,note_on,61,0,79
2,note_on,64,66,0
2,note_on,64,0,80
2,note_on,58,61,3
2,note_on,58,0,80
2,note_on,62,66,0
2,note_on,58,61,76
2,note_on,62,0,4
2,note_on,58,0,76
2,note_on,61,66,0
2,note_on,61,0,80
2,note_on,55,61,0
2,note_on,55,0,80
2,note_on,60,66,3
2,note_on,60,0,80
2,note_on,55,61,1
2,note_on,58,66,78
2,note_on,55,0,2
2,note_on,52,61,75
2,note_on,58,0,3
2,note_on,52,0,77
2,note_on,57,66,3
2,note_on,52,61,77
2,note_on,57,0,3
2,note_on,52,0,77
2,note_on,55,66,3
2,note_on,55,0,80
2,note_on,49,61,0
2,note_on,53,61,79
2,note_on,49,0,1
2,note_on,49,57,77
2,note_on,53,0,2
2,note_on,49,0,78
2,note_on,52,61,5
2,note_on,46,57,75
2,note_on,52,0,5
2,note_on,46,0,75
2,note_on,50,61,3
2,note_on,46,61,77
2,note_on,50,0,3
2,note_on,46,0,77
2,note_on,49,66,1
2,note_on,49,0,80
2,note_on,43,61,2
2,note_on,48,66,78
2,note_on,43,0,2
2,note_on,48,0,78
2,note_on,43,61,0
2,note_on,43,0,80
2,note_on,46,66,2
2,note_on,40,57,79
2,note_on,46,0,1
2,note_on,40,0,79
2,note_on,45,61,0
2,note_on,40,57,79
2,note_on,45,0,1
2,note_on,40,0,79
2,note_on,43,61,3
2,note_on,37,57,76
2,note_on,43,0,4
2,note_on,37,0,76
2,note_on,41,61,2
2,note_on,41,0,80
2,note_on,37,57,1
2,note_on,37,0,80
2,note_on,40,61,1
2,note_on,34,57,78
2,note_on,40,0,2
2,note_on,38,61,76
2,note_on,34,0,2
2,note_on,38,0,78
2,note_on,34,57,2
2,note_on,34,0,80
2,note_on,37,61,0
2,note_on,31,57,78
2,note_on,37,0,2
2,note_on,31,0,78
2,note_on,36,61,4
2,note_on,36,0,80
2,note_on,31,57,0
2,note_on,31,0,80
2,note_on,34,61,1
2,note_on,28,57,78
2,note_on,34,0,2
2,note_on,28,0,78
2,note_on,72,66,0
2,note_on,72,0,80
2,note_on,67,61,0
2,note_on,67,0,80
2,note_on,70,66,1
2,note_on,70,0,80
2,note_on,64,61,0
2,note_on,64,0,80
2,note_on,69,66,1
2,note_on,64,61,77
2,note_on,69,0,3
2,note_on,64,0,77
2,note_on,67,66,0
2,note_on,61,61,78
2,note_on,67,0,2
2,note_on,61,0,78
2,note_on,65,66,5
2,note_on,61,61,79
2,note_on,65,0,1
2,note_on,64,66,77
2,note_on,61,0,2
2,note_on,58,61,76
2,note_on,64,0,2
2,note_on,58,0,78
2,note_on,62,66,5
2,note_on,58,61,79
2,note_on,62,0,1
2,note_on,61,66,75
2,note_on,58,0,4
2,note_on,61,0,76
2,note_on,55,61,2
2,note_on,55,0,80
2,note_on,60,66,3
2,note_on,55,61,75
2,note_on,60,0,5
2,note_on,55,0,75
2,note_on,58,66,0
2,note_on,58,0,80
2,note_on,52,57,1
2,note_on,57,61,79
2,note_on,52,0,1
2,note_on,57,0,79
2,note_on,52,57,3
2,note_on,55,61,77
2,note_on,52,0,3
2,note_on,55,0,77
2,note_on,49,57,3
2,note_on,49,0,80
2,note_on,53,61,0
2,note_on,53,0,80
2,note_on,49,61,1
2,note_on,49,0,80
2,note_on,52,66,0
2,note_on,52,0,80
2,note_on,46,61,1
2,note_on,50,66,79
2,note_on,46,0,1
2,note_on,46,61,76
2,note_on,50,0,3
2,note_on,46,0,77
2,note_on,49,66,3
2,note_on,43,57,78
2,note_on,49,0,2
2,note_on,43,0,78
2,note_on,48,61,3
2,note_on,43,57,79
2,note_on,48,0,1
2,note_on,46,61,76
2,note_on,43,0,3
2,note_on,46,0,77
2,note_on,40,57,0
2,note_on,40,0,80
2,note_on,45,61,1
2,note_on,40,57,79
2,note_on,45,0,1
2,note_on,40,0,79
2,note_on,43,61,2
2,note_on,37,57,78
2,note_on,43,0,2
2,note_on,37,0,78
2,note_on,41,61,4
2,note_on,37,57,76
2,note_on,41,0,4
2,note_on,37,0,76
2,note_on,40,61,1
2,note_on,34,57,79
2,note_on,40,0,1
2,note_on,38,61,78
2,note_on,34,0,1
2,note_on,38,0,79
2,note_on,34,57,1
2,note_on,37,61,79
2,note_on,34,0,1
2,note_on,37,0,79
2,note_on,31,57,4
2,note_on,39,74,78
2,note_on,31,0,2
2,note_on,27,74,5
2,note_on,39,0,209
2,note_on,27,0,7
2,note_on,63,64,233
2,note_on,63,0,360
2,note_on,63,61,0
2,note_on,63,0,120
2,note_on,51,55,0
2,note_on,60,55,0
2,note_on,63,66,0
2,note_on,63,0,480
2,note_on,60,0,0
2,note_on,51,0,0
2,note_on,68,64,0
2,note_on,68,0,303
2,note_on,60,61,0
2,note_on,60,0,120
2,note_on,51,50,0
2,note_on,63,61,0
2,note_on,63,0,474
2,note_on,58,64,0
2,note_on,58,0,360
2,note_on,63,61,0
2,note_on,63,0,120
2,note_on,44,50,0
2,note_on,60,61,0
2,note_on,60,0,480
2,note_on,44,0,0
2,note_on,51,0,0
2,note_on,35,48,480
2,note_on,47,48,0
2,note_on,47,0,209
2,note_on,35,0,0
2,note_on,59,53,240
2,note_on,59,0,360
2,note_on,59,50,0
2,note_on,59,0,120
2,note_on,47,46,0
2,note_on,56,46,0
2,note_on,59,55,0
2,note_on,59,0,480
2,note_on,56,0,0
2,note_on,47,0,0
2,note_on,64,53,0
2,note_on,64,0,225
2,note_on,56,50,120
2,note_on,56,0,120
2,note_on,47,42,0
2,note_on,59,50,0
2,note_on,59,0,480
2,note_on,54,50,0
2,note_on,54,0,160
2,note_on,56,42,0
2,note_on,56,0,160
2,note_on,57,48,0
2,note_on,57,0,130
2,note_on,40,38,0
2,note_on,47,38,15
2,note_on,47,0,15
2,note_on,56,45,0
2,note_on,56,0,480
2,note_on,47,0,0
2,note_on,40,0,0
2,note_on,40,70,480
2,note_on,52,70,0
2,note_on,52,0,423
2,note_on,40,0,0
2,note_on,35,58,0
2,note_on,47,70,0
2,note_on,47,0,160
2,note_on,35,0,0
2,note_on,32,55,0
2,note_on,44,66,0
2,note_on,44,0,160
2,note_on,32,0,0
2,note_on,35,62,0
2,note_on,47,74,0
2,note_on,47,0,160
2,note_on,35,0,0
2,note_on,28,67,0
2,note_on,40,79,0
2,note_on,40,0,108
2,note_on,28,0,0
2,note_on,40,66,180
2,note_on,52,77,0
2,note_on,52,0,120
2,note_on,40,0,0
2,note_on,42,70,0
2,note_on,54,84,0
2,note_on,54,0,342
2,note_on,42,0,0
2,note_on,40,67,0
2,note_on,52,79,0
2,note_on,52,0,120
2,note_on,40,0,0
2,note_on,39,73,0
2,note_on,51,86,0
2,note_on,51,0,480
2,note_on,39,0,0
2,note_on,36,62,0
2,note_on,48,74,0
2,note_on,48,0,480
2,note_on,36,0,0
2,note_on,39,69,0
2,note_on,51,82,0
2,note_on,51,0,480
2,note_on,39,0,0
2,note_on,41,66,0
2,note_on,53,77,0
2,note_on,53,0,160
2,note_on,41,0,0
2,note_on,42,58,0
2,note_on,54,70,0
2,note_on,54,0,160
2,note_on,42,0,0
2,note_on,43,62,0
2,note_on,55,74,0
2,note_on,55,0,160
2,note_on,43,0,0
2,note_on,44,66,0
2,note_on,56,77,0
2,note_on,56,0,448
2,note_on,44,0,0
2,note_on,39,67,0
2,note_on,51,79,0
2,note_on,51,0,160
2,note_on,39,0,0
2,note_on,36,58,0
2,note_on,48,70,0
2,note_on,48,0,160
2,note_on,36,0,0
2,note_on,39,62,0
2,note_on,51,74,0
2,note_on,51,0,160
2,note_on,39,0,0
2,note_on,32,67,0
2,note_on,44,79,0
2,note_on,44,0,120
2,note_on,32,0,0
2,note_on,44,66,177
2,note_on,56,77,0
2,note_on,56,0,120
2,note_on,44,0,0
2,note_on,46,70,0
2,note_on,58,84,0
2,note_on,58,0,360
2,note_on,46,0,0
2,note_on,44,67,0
2,note_on,56,79,0
2,note_on,56,0,120
2,note_on,44,0,0
2,note_on,43,73,0
2,note_on,55,86,0
2,note_on,55,0,480
2,note_on,43,0,0
2,note_on,40,62,0
2,note_on,52,74,0
2,note_on,52,0,480
2,note_on,40,0,0
2,note_on,43,69,0
2,note_on,55,82,0
2,note_on,55,0,480
2,note_on,43,0,0
2,note_on,45,66,0
2,note_on,57,77,0
2,note_on,57,0,160
2,note_on,45,0,0
2,note_on,46,67,0
2,note_on,58,79,0
2,note_on,58,0,160
2,note_on,46,0,0
2,note_on,47,69,0
2,note_on,59,82,0
2,note_on,59,0,160
2,note_on,47,0,0
2,note_on,48,75,0
2,note_on,60,90,0
2,note_on,36,63,450
2,note_on,43,63,15
2,note_on,60,0,15
2,note_on,48,0,0
2,note_on,52,82,0
2,note_on,41,67,450
2,note_on,48,68,15
2,note_on,52,0,15
2,note_on,43,0,0
2,note_on,36,0,0
2,note_on,57,89,0
2,note_on,35,60,465
2,note_on,57,0,15
2,note_on,48,0,0
2,note_on,41,0,0
2,note_on,54,82,0
2,note_on,40,62,450
2,note_on,47,63,15
2,note_on,54,0,15
2,note_on,35,0,0
2,note_on,55,90,0
2,note_on,45,55,450
2,note_on,52,56,15
2,note_on,55,0,15
2,note_on,47,0,0
2,note_on,40,0,0
2,note_on,61,82,0
2,note_on,50,62,450
2,note_on,57,66,15
2,note_on,61,0,15
2,note_on,52,0,0
2,note_on,45,0,0
2,note_on,62,89,0
2,note_on,45,55,450
2,note_on,52,55,15
2,note_on,62,0,15
2,note_on,57,0,0
2,note_on,50,0,0
2,note_on,60,82,0
2,note_on,60,0,480
2,note_on,45,0,0
2,note_on,52,0,0
2,note_on,38,80,0
2,note_on,50,94,0
2,note_on,50,0,169
2,note_on,38,0,0
2,note_on,53,77,240
2,note_on,65,90,0
2,note_on,65,0,480
2,note_on,53,0,0
2,note_on,46,74,0
2,note_on,58,88,0
2,note_on,58,0,240
2,note_on,46,0,0
2,note_on,48,79,120
2,note_on,60,93,0
2,note_on,60,0,116
2,note_on,48,0,0
2,note_on,47,74,0
2,note_on,59,89,0
2,note_on,59,0,480
2,note_on,47,0,0
2,note_on,39,80,0
2,note_on,51,94,0
2,note_on,51,0,194
2,note_on,39,0,0
2,note_on,54,77,240
2,note_on,66,90,0
2,note_on,66,0,480
2,note_on,54,0,0
2,note_on,45,74,0
2,note_on,57,88,0
2,note_on,57,0,240
2,note_on,45,0,0
2,note_on,50,79,120
2,note_on,62,93,0
2,note_on,62,0,105
2,note_on,50,0,0
2,note_on,48,74,0
2,note_on,60,89,0
2,note_on,60,0,480
2,note_on,48,0,0
2,note_on,52,62,0
2,note_on,40,62,0
2,note_on,40,0,185
2,note_on,59,80,240
2,note_on,59,0,360
2,note_on,64,77,0
2,note_on,64,0,120
2,note_on,62,77,0
2,note_on,62,0,940
2,note_on,52,0,0
2,note_on,28,61,0
2,note_on,40,61,0
2,note_on,40,0,191
2,note_on,28,0,0
2,note_on,56,80,240
2,note_on,56,0,360
2,note_on,61,77,0
2,note_on,61,0,120
2,note_on,59,77,0
2,note_on,59,0,940
2,note_on,40,74,0
2,note_on,53,79,480
2,note_on,53,0,360
2,note_on,53,77,0
2,note_on,53,0,120
2,note_on,53,77,0
2,note_on,53,0,480
2,note_on,55,80,0
2,note_on,55,0,480
2,note_on,53,79,0
2,note_on,53,0,480
2,note_on,50,79,0
2,note_on,50,0,480
2,note_on,53,77,0
2,note_on,40,82,959
2,note_on,53,0,1
2,note_on,40,0,0
2,note_on,40,0,44
2,note_on,47,70,0
2,note_on,44,79,80
2,note_on,47,0,16
2,note_on,50,68,67
2,note_on,44,0,13
2,note_on,44,74,66
2,note_on,50,0,17
2,note_on,50,68,60
2,note_on,44,0,19
2,note_on,47,74,62
2,note_on,50,0,8
2,note_on,53,66,29
2,note_on,47,0,14
2,note_on,47,74,64
2,note_on,53,0,18
2,note_on,53,67,64
2,note_on,47,0,14
2,note_on,50,74,63
2,note_on,53,0,19
2,note_on,56,66,63
2,note_on,50,0,14
2,note_on,50,74,66
2,note_on,56,0,7
2,note_on,56,66,27
2,note_on,50,0,17
2,note_on,53,74,66
2,note_on,56,0,13
2,note_on,59,66,68
2,note_on,53,0,15
2,note_on,53,73,63
2,note_on,59,0,18
2,note_on,59,63,64
2,note_on,53,0,14
2,note_on,56,73,65
2,note_on,59,0,16
2,note_on,62,63,35
2,note_on,56,0,17
2,note_on,56,72,63
2,note_on,62,0,16
2,note_on,62,63,64
2,note_on,56,0,16
2,note_on,59,72,64
2,note_on,62,0,16
2,note_on,65,63,62
2,note_on,59,0,18
2,note_on,59,72,62
2,note_on,65,0,4
2,note_on,65,64,22
2,note_on,59,0,16
2,note_on,62,72,64
2,note_on,65,0,16
2,note_on,68,63,65
2,note_on,62,0,15
2,note_on,62,72,67
2,note_on,68,0,14
2,note_on,68,63,63
2,note_on,62,0,19
2,note_on,65,72,64
2,note_on,68,0,3
2,note_on,71,63,22
2,note_on,65,0,19
2,note_on,65,72,60
2,note_on,71,0,17
2,note_on,71,63,66
2,note_on,65,0,13
2,note_on,68,72,66
2,note_on,71,0,17
2,note_on,74,63,63
2,note_on,68,0,16
2,note_on,80,88,64
2,note_on,80,0,100
2,note_on,74,0,40
2,note_on,35,82,800
2,note_on,41,67,36
2,note_on,35,0,14
2,note_on,38,79,63
2,note_on,41,0,19
2,note_on,44,67,61
2,note_on,38,0,16
2,note_on,38,79,64
2,note_on,44,0,16
2,note_on,44,67,64
2,note_on,38,0,16
2,note_on,41,74,67
2,note_on,44,0,3
2,note_on,47,67,31
2,note_on,41,0,18
2,note_on,41,74,60
2,note_on,47,0,18
2,note_on,47,68,67
2,note_on,41,0,11
2,note_on,44,74,64
2,note_on,47,0,21
2,note_on,50,67,62
2,note_on,44,0,13
2,note_on,44,74,67
2,note_on,50,0,2
2,note_on,50,66,20
2,note_on,44,0,17
2,note_on,47,74,63
2,note_on,50,0,16
2,note_on,53,64,64
2,note_on,47,0,16
2,note_on,47,73,65
2,note_on,53,0,15
2,note_on,53,66,66
2,note_on,47,0,15
2,note_on,50,73,27
2,note_on,53,0,11
2,note_on,56,64,63
2,note_on,50,0,14
2,note_on,50,72,63
2,note_on,56,0,19
2,note_on,56,64,64
2,note_on,50,0,13
2,note_on,53,72,66
2,note_on,56,0,17
2,note_on,59,64,66
2,note_on,53,0,13
2,note_on,53,73,64
2,note_on,59,0,11
2,note_on,59,64,28
2,note_on,53,0,16
2,note_on,56,72,65
2,note_on,59,0,15
2,note_on,62,64,66
2,note_on,56,0,15
2,note_on,56,72,61
2,note_on,62,0,20
2,note_on,62,63,60
2,note_on,56,0,16
2,note_on,59,72,65
2,note_on,62,0,2
2,note_on,65,63,27
2,note_on,59,0,13
2,note_on,59,72,68
2,note_on,65,0,15
2,note_on,65,63,61
2,note_on,59,0,20
2,note_on,62,72,60
2,note_on,65,0,16
2,note_on,68,63,66
2,note_on,65,71,79
2,note_on,71,81,0
2,note_on,68,0,1
2,note_on,71,0,94
2,note_on,65,0,0
2,note_on,62,0,55
2,note_on,65,60,785
2,note_on,65,0,80
2,note_on,62,53,0
2,note_on,62,0,80
2,note_on,64,60,0
2,note_on,64,0,80
2,note_on,59,60,0
2,note_on,59,0,240
2,note_on,65,60,480
2,note_on,65,0,80
2,note_on,62,52,0
2,note_on,62,0,80
2,note_on,64,60,0
2,note_on,64,0,80
2,note_on,59,60,0
2,note_on,59,0,240
2,note_on,65,48,481
2,note_on,65,0,80
2,note_on,62,48,2
2,note_on,64,48,79
2,note_on,62,0,1
2,note_on,59,49,77
2,note_on,64,0,2
2,note_on,59,0,78
2,note_on,65,49,3
2,note_on,62,50,76
2,note_on,65,0,4
2,note_on,62,0,76
2,note_on,64,50,1
2,note_on,64,0,80
2,note_on,59,50,0
2,note_on,59,0,80
2,note_on,65,51,2
2,note_on,62,51,77
2,note_on,65,0,3
2,note_on,62,0,77
2,note_on,64,52,4
2,note_on,59,52,76
2,note_on,64,0,4
2,note_on,59,0,76
2,note_on,65,53,0
2,note_on,65,0,80
2,note_on,62,53,3
2,note_on,62,0,80
2,note_on,64,53,0
2,note_on,59,55,79
2,note_on,64,0,1
2,note_on,59,0,79
2,note_on,65,55,1
2,note_on,62,56,76
2,note_on,65,0,4
2,note_on,62,0,76
2,note_on,64,56,1
2,note_on,64,0,80
2,note_on,59,56,0
2,note_on,59,0,80
2,note_on,65,57,4
2,note_on,65,0,80
2,note_on,62,57,0
2,note_on,64,58,78
2,note_on,62,0,2
2,note_on,64,0,78
2,note_on,59,58,1
2,note_on,65,59,77
2,note_on,59,0,3
2,note_on,64,59,46
2,note_on,65,0,12
2,note_on,63,59,65
2,note_on,64,0,19
2,note_on,62,60,59
2,note_on,63,0,18
2,note_on,61,60,66
2,note_on,62,0,12
2,note_on,60,61,64
2,note_on,61,0,20
2,note_on,59,61,61
2,note_on,60,0,15
2,note_on,58,62,66
2,note_on,59,0,15
2,note_on,57,62,66
2,note_on,58,0,15
2,note_on,56,62,65
2,note_on,57,0,16
2,note_on,55,63,63
2,note_on,56,0,17
2,note_on,54,63,61
2,note_on,55,0,18
2,note_on,53,64,67
2,note_on,54,0,11
2,note_on,52,64,64
2,note_on,53,0,21
2,note_on,51,64,59
2,note_on,52,0,16
2,note_on,50,66,69
2,note_on,51,0,11
2,note_on,49,66,66
2,note_on,50,0,19
2,note_on,48,67,63
2,note_on,49,0,14
2,note_on,47,67,63
2,note_on,48,0,19
2,note_on,46,68,60
2,note_on,47,0,17
2,note_on,45,68,65
2,note_on,46,0,14
2,note_on,44,68,68
2,note_on,45,0,14
2,note_on,43,69,65
2,note_on,44,0,17
2,note_on,42,69,64
2,note_on,43,0,15
2,note_on,41,70,66
2,note_on,42,0,10
2,note_on,40,70,33
2,note_on,41,0,4
2,note_on,40,0,76
2,note_on,39,70,1
2,note_on,39,0,80
2,note_on,40,71,3
2,note_on,41,71,75
2,note_on,40,0,5
2,note_on,41,0,75
2,note_on,40,72,5
2,note_on,39,72,78
2,note_on,40,0,2
2,note_on,40,73,76
2,note_on,39,0,2
2,note_on,41,73,77
2,note_on,40,0,1
2,note_on,41,0,79
2,note_on,40,73,1
2,note_on,40,0,80
2,note_on,39,74,0
2,note_on,39,0,80
2,note_on,40,74,0
2,note_on,40,0,80
2,note_on,41,75,0
2,note_on,41,0,30
2,note_on,40,75,4
2,note_on,39,77,78
2,note_on,40,0,2
2,note_on,39,0,78
2,note_on,40,77,1
2,note_on,41,77,77
2,note_on,40,0,3
2,note_on,41,0,77
2,note_on,40,78,3
2,note_on,40,0,80
2,note_on,39,78,0
2,note_on,39,0,80
2,note_on,40,79,1
2,note_on,40,0,80
2,note_on,41,79,0
2,note_on,41,0,80
2,note_on,40,79,0
2,note_on,39,80,76
2,note_on,40,0,4
2,note_on,40,80,75
2,note_on,39,0,1
2,note_on,40,0,79
2,note_on,33,119,2
2,note_on,33,0,171
2,note_on,64,92,240
2,note_on,60,77,0
2,note_on,57,77,0
2,note_on,57,0,360
2,note_on,60,0,0
2,note_on,64,0,0
2,note_on,57,73,0
2,note_on,60,73,0
2,note_on,64,86,0
2,note_on,64,0,120
2,note_on,60,0,0
2,note_on,57,0,0
2,note_on,64,92,0
2,note_on,60,77,0
2,note_on,57,77,0
2,note_on,57,0,480
2,note_on,60,0,0
2,note_on,64,0,0
2,note_on,57,82,0
2,note_on,60,82,0
2,note_on,65,97,0
2,note_on,65,0,463
2,note_on,60,0,0
2,note_on,57,0,0
2,note_on,57,77,0
2,note_on,60,77,0
2,note_on,64,92,0
2,note_on,64,0,480
2,note_on,60,0,0
2,note_on,57,0,0
2,note_on,52,73,0
2,note_on,57,73,0
2,note_on,60,86,0
2,note_on,60,0,480
2,note_on,57,0,0
2,note_on,52,0,0
2,note_on,57,73,0
2,note_on,60,73,0
2,note_on,64,86,0
2,note_on,64,0,960
2,note_on,60,0,0
2,note_on,57,0,0
2,note_on,33,72,0
2,note_on,33,0,185
2,note_on,45,49,240
2,note_on,52,69,0
2,note_on,52,0,360
2,note_on,45,0,0
2,note_on,45,42,0
2,note_on,52,61,0
2,note_on,52,0,120
2,note_on,45,0,0
2,note_on,45,50,0
2,note_on,52,70,0
2,note_on,52,0,480
2,note_on,45,0,0
2,note_on,45,42,0
2,note_on,53,62,0
2,note_on,53,0,460
2,note_on,45,0,0
2,note_on,45,41,0
2,note_on,52,58,0
2,note_on,52,0,480
2,note_on,45,0,0
2,note_on,33,55,0
2,note_on,40,58,480
2,note_on,40,0,960
2,note_on,33,0,0
2,note_on,32,69,0
2,note_on,32,0,201
2,note_on,53,66,240
2,note_on,62,77,0
2,note_on,62,0,272
2,note_on,53,0,0
2,note_on,53,61,0
2,note_on,62,73,0
2,note_on,62,0,120
2,note_on,53,0,0
2,note_on,53,66,0
2,note_on,60,77,0
2,note_on,60,0,462
2,note_on,53,0,0
2,note_on,33,77,0
2,note_on,45,77,0
2,note_on,45,0,480
2,note_on,33,0,0
2,note_on,32,66,0
2,note_on,44,66,0
2,note_on,44,0,183
2,note_on,32,0,0
2,note_on,55,73,240
2,note_on,62,66,0
2,note_on,62,0,96
2,note_on,55,0,0
2,note_on,53,72,0
2,note_on,62,60,0
2,note_on,62,0,160
2,note_on,53,0,0
2,note_on,52,73,0
2,note_on,62,61,0
2,note_on,62,0,160
2,note_on,52,0,0
2,note_on,52,77,0
2,note_on,60,66,0
2,note_on,60,0,462
2,note_on,52,0,0
2,note_on,33,67,0
2,note_on,45,79,0
2,note_on,45,0,480
2,note_on,33,0,0
2,note_on,35,68,0
2,note_on,47,68,0
2,note_on,47,0,203
2,note_on,35,0,0
2,note_on,56,60,240
2,note_on,59,60,0
2,note_on,64,70,0
2,note_on,64,0,117
2,note_on,68,66,0
2,note_on,68,0,160
2,note_on,73,70,0
2,note_on,73,0,160
2,note_on,59,0,0
2,note_on,56,0,0
2,note_on,59,60,0
2,note_on,63,60,0
2,note_on,71,70,0
2,note_on,69,70,0
2,note_on,69,0,411
2,note_on,59,0,0
2,note_on,63,0,0
2,note_on,71,0,0
2,note_on,47,66,0
2,note_on,59,77,0
2,note_on,59,0,480
2,note_on,47,0,0
2,note_on,40,66,0
2,note_on,52,77,0
2,note_on,52,0,188
2,note_on,40,0,0
2,note_on,68,67,240
2,note_on,59,56,0
2,note_on,59,0,111
2,note_on,68,0,0
2,note_on,67,58,0
2,note_on,58,49,0
2,note_on,58,0,160
2,note_on,67,0,0
2,note_on,68,63,0
2,note_on,59,55,0
2,note_on,59,0,160
2,note_on,68,0,0
2,note_on,52,65,0
2,note_on,56,65,0
2,note_on,64,74,0
2,note_on,64,0,29
2,note_on,56,0,0
2,note_on,52,0,0
2,note_on,33,99,720
2,note_on,33,0,214
2,note_on,64,84,240
2,note_on,60,70,0
2,note_on,57,70,0
2,note_on,57,0,360
2,note_on,60,0,0
2,note_on,64,0,0
2,note_on,57,67,0
2,note_on,60,67,0
2,note_on,64,79,0
2,note_on,64,0,120
2,note_on,60,0,0
2,note_on,57,0,0
2,note_on,64,84,0
2,note_on,60,70,0
2,note_on,57,70,0
2,note_on,57,0,480
2,note_on,60,0,0
2,note_on,64,0,0
2,note_on,57,74,0
2,note_on,60,74,0
2,note_on,65,88,0
2,note_on,65,0,468
2,note_on,60,0,0
2,note_on,57,0,0
2,note_on,57,70,0
2,note_on,60,70,0
2,note_on,64,84,0
2,note_on,64,0,480
2,note_on,60,0,0
2,note_on,57,0,0
2,note_on,52,67,0
2,note_on,57,67,0
2,note_on,60,79,0
2,note_on,60,0,480
2,note_on,57,0,0
2,note_on,52,0,0
2,note_on,57,67,0
2,note_on,60,67,0
2,note_on,64,79,0
2,note_on,64,0,960
2,note_on,60,0,0
2,note_on,57,0,0
2,note_on,31,69,0
2,note_on,31,0,197
2,note_on,43,58,240
2,note_on,52,69,0
2,note_on,52,0,300
2,note_on,43,0,0
2,note_on,43,50,0
2,note_on,52,61,0
2,note_on,52,0,120
2,note_on,43,0,0
2,note_on,43,60,0
2,note_on,52,70,0
2,note_on,52,0,480
2,note_on,53,62,0
2,note_on,53,0,463
2,note_on,43,58,0
2,note_on,52,58,0
2,note_on,52,0,480
2,note_on,43,0,0
2,note_on,48,58,0
2,note_on,48,0,480
2,note_on,43,0,0
2,note_on,41,58,0
2,note_on,41,0,480
2,note_on,40,58,0
2,note_on,40,0,480
2,note_on,38,63,0
2,note_on,38,0,194
2,note_on,65,63,240
2,note_on,57,63,0
2,note_on,57,0,100
2,note_on,65,0,0
2,note_on,49,62,0
2,note_on,49,0,160
2,note_on,50,63,0
2,note_on,50,0,160
2,note_on,51,69,0
2,note_on,66,58,0
2,note_on,57,58,0
2,note_on,57,0,434
2,note_on,66,0,0
2,note_on,51,0,0
2,note_on,39,72,0
2,note_on,39,0,480
2,note_on,40,73,0
2,note_on,40,0,168
2,note_on,67,67,240
2,note_on,58,79,0
2,note_on,58,0,108
2,note_on,67,0,0
2,note_on,51,79,0
2,note_on,51,0,160
2,note_on,52,79,0
2,note_on,52,0,160
2,note_on,53,81,0
2,note_on,70,68,0
2,note_on,58,68,0
2,note_on,62,68,0
2,note_on,62,0,423
2,note_on,53,0,0
2,note_on,70,0,0
2,note_on,58,0,0
2,note_on,41,70,0
2,note_on,53,82,0
2,note_on,53,0,480
2,note_on,41,0,0
2,note_on,29,80,0
2,note_on,41,96,0
2,note_on,41,0,168
2,note_on,29,0,0
2,note_on,53,89,240
2,note_on,65,89,0
2,note_on,65,0,360
2,note_on,53,0,0
2,note_on,53,89,0
2,note_on,65,89,0
2,note_on,65,0,120
2,note_on,53,0,0
2,note_on,53,89,0
2,note_on,65,89,0
2,note_on,65,0,480
2,note_on,53,0,0
2,note_on,53,75,0
2,note_on,60,75,0
2,note_on,67,90,0
2,note_on,67,0,463
2,note_on,60,0,0
2,note_on,53,0,0
2,note_on,53,94,0
2,note_on,65,94,0
2,note_on,65,0,480
2,note_on,53,0,0
2,note_on,48,90,0
2,note_on,60,90,0
2,note_on,60,0,480
2,note_on,48,0,0
2,note_on,53,92,0
2,note_on,65,92,0
2,note_on,41,58,958
2,note_on,65,0,2
2,note_on,53,0,0
2,note_on,41,0,41
2,note_on,47,45,0
2,note_on,47,0,80
2,note_on,45,53,3
2,note_on,51,46,78
2,note_on,45,0,2
2,note_on,51,0,78
2,note_on,45,55,3
2,note_on,45,0,80
2,note_on,51,49,0
2,note_on,51,0,80
2,note_on,47,56,0
2,note_on,53,49,79
2,note_on,47,0,1
2,note_on,47,56,76
2,note_on,53,0,3
2,note_on,47,0,77
2,note_on,53,50,1
2,note_on,53,0,80
2,note_on,51,57,4
2,note_on,57,50,77
2,note_on,51,0,3
2,note_on,57,0,77
2,note_on,51,58,2
2,note_on,51,0,30
2,note_on,57,50,1
2,note_on,57,0,80
2,note_on,53,58,0
2,note_on,59,51,77
2,note_on,53,0,3
2,note_on,59,0,77
2,note_on,53,60,0
2,note_on,53,0,80
2,note_on,59,51,2
2,note_on,59,0,80
2,note_on,57,61,0
2,note_on,63,52,78
2,note_on,57,0,2
2,note_on,63,0,78
2,note_on,57,61,2
2,note_on,63,55,77
2,note_on,57,0,3
2,note_on,63,0,77
2,note_on,59,62,1
2,note_on,65,53,78
2,note_on,59,0,2
2,note_on,65,0,78
2,note_on,59,62,4
2,note_on,65,56,22
2,note_on,59,0,3
2,note_on,63,63,76
2,note_on,65,0,1
2,note_on,63,0,79
2,note_on,69,56,1
2,note_on,69,0,80
2,note_on,63,64,2
2,note_on,63,0,80
2,note_on,69,57,1
2,note_on,65,64,77
2,note_on,69,0,3
2,note_on,65,0,77
2,note_on,71,58,0
2,note_on,71,0,80
2,note_on,65,66,1
2,note_on,65,0,80
2,note_on,71,58,2
2,note_on,69,67,79
2,note_on,71,0,1
2,note_on,75,58,78
2,note_on,69,0,1
2,note_on,75,0,79
2,note_on,69,67,3
2,note_on,75,58,19
2,note_on,69,0,4
2,note_on,75,0,76
2,note_on,71,68,4
2,note_on,77,60,78
2,note_on,71,0,2
2,note_on,77,0,78
2,note_on,71,69,0
2,note_on,77,62,79
2,note_on,71,0,1
2,note_on,77,0,79
2,note_on,75,69,2
2,note_on,75,0,80
2,note_on,81,62,0
2,note_on,81,0,80
2,note_on,75,70,0
2,note_on,81,63,78
2,note_on,75,0,2
2,note_on,77,72,76
2,note_on,81,0,2
2,note_on,77,0,78
2,note_on,83,63,3
2,note_on,69,89,78
2,note_on,76,89,0
2,note_on,64,89,1
2,note_on,83,0,1
2,note_on,72,89,0
2,note_on,69,0,179
2,note_on,76,0,0
2,note_on,64,0,1
2,note_on,72,0,1
2,note_on,86,79,82
2,note_on,81,69,52
2,note_on,86,0,1
2,note_on,84,79,77
2,note_on,81,0,2
2,note_on,76,70,77
2,note_on,84,0,1
2,note_on,76,0,79
2,note_on,83,79,1
2,note_on,83,0,80
2,note_on,76,71,1
2,note_on,76,0,80
2,note_on,81,79,2
2,note_on,81,0,80
2,note_on,72,70,0
2,note_on,77,79,79
2,note_on,72,0,1
2,note_on,77,0,39
2,note_on,72,70,1
2,note_on,72,0,80
2,note_on,76,79,0
2,note_on,69,70,78
2,note_on,76,0,2
2,note_on,74,79,75
2,note_on,69,0,3
2,note_on,74,0,77
2,note_on,69,72,1
2,note_on,69,0,80
2,note_on,72,79,0
2,note_on,72,0,80
2,note_on,64,70,3
2,note_on,71,79,77
2,note_on,64,0,3
2,note_on,71,0,77
2,note_on,64,71,0
2,note_on,64,0,80
2,note_on,69,79,1
2,note_on,69,0,80
2,note_on,60,71,3
2,note_on,65,79,76
2,note_on,60,0,4
2,note_on,65,0,76
2,note_on,60,71,0
2,note_on,60,0,80
2,note_on,64,79,4
2,note_on,57,71,76
2,note_on,64,0,4
2,note_on,57,0,76
2,note_on,62,79,4
2,note_on,57,71,79
2,note_on,62,0,1
2,note_on,60,79,75
2,note_on,57,0,4
2,note_on,60,0,76
2,note_on,52,71,3
2,note_on,59,79,78
2,note_on,52,0,2
2,note_on,59,0,78
2,note_on,52,70,1
2,note_on,57,79,79
2,note_on,52,0,1
2,note_on,57,0,79
2,note_on,48,70,3
2,note_on,40,73,78
2,note_on,52,86,0
2,note_on,48,0,2
2,note_on,52,0,420
2,note_on,40,0,0
2,note_on,28,73,0
2,note_on,40,86,0
2,note_on,40,0,392
2,note_on,28,0,0
2,note_on,33,101,3
2,note_on,40,77,55
2,note_on,33,0,2
2,note_on,48,77,115
2,note_on,40,0,3
2,note_on,48,0,117
2,note_on,40,77,2
2,note_on,40,0,120
2,note_on,33,88,2
2,note_on,33,0,59
2,note_on,40,77,0
2,note_on,40,0,120
2,note_on,48,77,1
2,note_on,48,0,120
2,note_on,40,77,0
2,note_on,33,97,115
2,note_on,40,0,5
2,note_on,33,0,52
2,note_on,40,77,3
2,note_on,40,0,120
2,note_on,48,77,2
2,note_on,40,77,118
2,note_on,48,0,2
2,note_on,40,0,118
2,note_on,33,89,0
2,note_on,33,0,58
2,note_on,40,77,0
2,note_on,48,77,118
2,note_on,40,0,2
2,note_on,48,0,118
2,note_on,40,77,3
2,note_on,40,0,120
2,note_on,33,101,0
2,note_on,33,0,63
2,note_on,40,77,0
2,note_on,48,77,115
2,note_on,40,0,5
2,note_on,48,0,115
2,note_on,40,77,2
2,note_on,40,0,120
2,note_on,28,101,0
2,note_on,28,0,57
2,note_on,40,77,0
2,note_on,48,77,118
2,note_on,40,0,2
2,note_on,48,0,118
2,note_on,40,77,1
2,note_on,40,0,120
2,note_on,33,96,3
2,note_on,40,77,43
2,note_on,33,0,4
2,note_on,40,0,116
2,note_on,48,77,5
2,note_on,40,77,117
2,note_on,48,0,3
2,note_on,40,0,117
2,note_on,48,83,1
2,note_on,40,73,65
2,note_on,48,0,1
2,note_on,40,0,119
2,note_on,48,71,2
2,note_on,40,70,119
2,note_on,48,0,1
2,note_on,40,0,119
2,note_on,33,78,0
2,note_on,40,68,57
2,note_on,33,0,1
2,note_on,40,0,119
2,note_on,48,67,2
2,note_on,48,0,120
2,note_on,40,66,1
2,note_on,33,72,118
2,note_on,40,0,2
2,note_on,33,0,55
2,note_on,40,63,1
2,note_on,40,0,120
2,note_on,48,62,0
2,note_on,48,0,120
2,note_on,40,61,1
2,note_on,33,69,116
2,note_on,40,0,4
2,note_on,33,0,59
2,note_on,40,60,2
2,note_on,40,0,120
2,note_on,48,59,2
2,note_on,40,58,119
2,note_on,48,0,1
2,note_on,33,63,117
2,note_on,40,0,2
2,note_on,33,0,43
2,note_on,40,52,2
2,note_on,48,51,119
2,note_on,40,0,1
2,note_on,40,50,118
2,note_on,48,0,1
2,note_on,40,0,119
2,note_on,45,89,1
2,note_on,45,0,112
2,note_on,44,84,46
2,note_on,44,0,112
2,note_on,43,88,46
2,note_on,43,0,112
2,note_on,42,89,50
2,note_on,42,0,112
2,note_on,41,83,49
2,note_on,41,0,112
2,note_on,40,84,47
2,note_on,40,0,112
2,note_on,39,89,50
2,note_on,39,0,112
2,note_on,38,84,46
2,note_on,38,0,112
2,note_on,37,84,46
2,note_on,37,0,112
2,note_on,36,89,50
2,note_on,36,0,112
2,note_on,35,83,46
2,note_on,35,0,112
2,note_on,34,83,52
2,note_on,34,0,112
2,note_on,33,104,45
2,note_on,33,0,388
2,note_on,33,76,0
2,note_on,40,90,0
2,note_on,45,90,0
2,note_on,45,0,360
2,note_on,40,0,0
2,note_on,33,0,0
2,note_on,33,73,0
2,note_on,40,86,0
2,note_on,45,86,0
2,note_on,45,0,120
2,note_on,40,0,0
2,note_on,33,0,0
2,note_on,33,76,0
2,note_on,40,90,0
2,note_on,45,90,0
2,note_on,45,0,480
2,note_on,40,0,0
2,note_on,33,0,0
2,note_on,33,74,0
2,note_on,38,88,0
2,note_on,45,88,0
2,note_on,45,0,374
2,note_on,38,0,0
2,note_on,33,0,0
2,note_on,33,76,0
2,note_on,40,90,0
2,note_on,45,90,0
2,note_on,45,0,640
2,note_on,40,0,0
2,note_on,33,0,0
2,note_on,33,74,0
2,note_on,41,88,0
2,note_on,45,88,0
2,note_on,45,0,533
2,note_on,41,0,0
2,note_on,33,0,0
2,note_on,33,76,0
2,note_on,40,90,0
2,note_on,45,90,0
2,note_on,33,68,765
2,note_on,35,68,100
2,note_on,33,0,26
2,note_on,36,69,95
2,note_on,35,0,23
2,note_on,38,69,99
2,note_on,36,0,22
2,note_on,40,70,99
2,note_on,38,0,23
2,note_on,42,72,95
2,note_on,40,0,26
2,note_on,44,72,94
2,note_on,42,0,24
2,note_on,45,73,94
2,note_on,44,0,26
2,note_on,47,73,98
2,note_on,45,0,20
2,note_on,48,74,98
2,note_on,47,0,26
2,note_on,50,74,93
2,note_on,48,0,25
2,note_on,52,74,99
2,note_on,50,0,20
2,note_on,54,75,98
2,note_on,52,0,26
2,note_on,56,75,94
2,note_on,54,0,24
2,note_on,57,78,98
2,note_on,56,0,22
2,note_on,59,78,96
2,note_on,57,0,26
2,note_on,60,79,92
2,note_on,59,0,26
2,note_on,62,80,94
2,note_on,60,0,24
2,note_on,64,80,96
2,note_on,62,0,24
2,note_on,66,81,98
2,note_on,64,0,22
2,note_on,68,81,98
2,note_on,66,0,24
2,note_on,69,81,96
2,note_on,68,0,24
2,note_on,71,81,97
2,note_on,69,0,23
2,note_on,72,82,95
2,note_on,71,0,26
2,note_on,74,84,95
2,note_on,72,0,23
2,note_on,76,84,95
2,note_on,74,0,26
2,note_on,78,85,95
2,note_on,76,0,23
2,note_on,80,85,97
2,note_on,78,0,24
2,note_on,45,0,96
2,note_on,33,0,0
2,note_on,40,0,0
2,note_on,81,93,0
2,note_on,80,0,24
2,note_on,81,0,216
