Track,Message Type,Note,Velocity,Time
1,note_on,75,49,1440
1,note_on,75,0,480
1,note_on,75,40,0
1,note_on,75,0,480
1,note_on,75,44,0
1,note_on,75,0,480
1,note_on,75,49,0
1,note_on,75,0,480
1,note_on,75,52,0
1,note_on,75,0,480
1,note_on,77,55,0
1,note_on,77,0,480
1,note_on,75,52,0
1,note_on,75,0,480
1,note_on,75,50,0
1,note_on,75,0,480
1,note_on,75,51,0
1,note_on,75,0,480
1,note_on,75,55,0
1,note_on,75,0,480
1,note_on,75,60,0
1,note_on,75,0,480
1,note_on,77,62,0
1,note_on,77,0,480
1,note_on,75,61,0
1,note_on,75,0,480
1,note_on,82,66,0
1,note_on,82,0,480
1,note_on,80,64,0
1,note_on,80,0,480
1,note_on,80,70,0
1,note_on,80,0,480
1,note_on,80,69,0
1,note_on,80,0,480
1,note_on,80,73,0
1,note_on,80,0,480
1,note_on,80,70,0
1,note_on,80,0,480
1,note_on,80,77,0
1,note_on,80,0,480
1,note_on,82,77,0
1,note_on,82,0,480
1,note_on,84,80,0
1,note_on,84,0,480
1,note_on,82,77,0
1,note_on,82,0,480
1,note_on,80,77,0
1,note_on,80,0,480
1,note_on,77,70,0
1,note_on,77,0,480
1,note_on,77,72,0
1,note_on,77,0,480
1,note_on,79,72,0
1,note_on,79,0,480
1,note_on,80,75,0
1,note_on,80,0,480
1,note_on,70,68,10
1,note_on,70,0,470
1,note_on,70,70,0
1,note_on,70,0,480
1,note_on,72,62,0
1,note_on,72,0,480
1,note_on,73,63,0
1,note_on,73,0,480
1,note_on,63,55,0
1,note_on,63,0,480
1,note_on,75,51,0
1,note_on,75,0,480
1,note_on,75,44,0
1,note_on,75,0,480
1,note_on,75,49,0
1,note_on,75,0,480
1,note_on,75,52,0
1,note_on,75,0,480
1,note_on,77,55,0
1,note_on,77,0,480
1,note_on,75,52,0
1,note_on,75,0,480
1,note_on,75,50,0
1,note_on,75,0,480
1,note_on,75,51,0
1,note_on,75,0,480
1,note_on,75,59,0
1,note_on,75,0,480
1,note_on,82,68,0
1,note_on,82,0,480
1,note_on,84,71,0
1,note_on,84,0,480
1,note_on,79,66,0
1,note_on,79,0,480
1,note_on,82,72,0
1,note_on,82,0,480
1,note_on,80,71,0
1,note_on,80,0,480
1,note_on,80,80,0
1,note_on,80,0,480
1,note_on,80,82,0
1,note_on,80,0,480
1,note_on,80,80,0
1,note_on,80,0,480
1,note_on,80,81,0
1,note_on,80,0,480
1,note_on,80,84,0
1,note_on,80,0,480
1,note_on,82,84,0
1,note_on,82,0,480
1,note_on,84,88,0
1,note_on,84,0,480
1,note_on,79,82,0
1,note_on,79,0,480
1,note_on,79,80,0
1,note_on,79,0,480
1,note_on,79,71,0
1,note_on,79,0,480
1,note_on,79,64,0
1,note_on,79,0,480
1,note_on,79,66,0
1,note_on,79,0,480
1,note_on,79,68,0
1,note_on,79,0,480
1,note_on,79,60,0
1,note_on,79,0,480
1,note_on,74,53,0
1,note_on,74,0,480
1,note_on,72,52,0
1,note_on,72,0,480
1,note_on,72,53,0
1,note_on,72,0,480
1,note_on,72,47,0
1,note_on,72,0,480
1,note_on,72,49,0
1,note_on,72,0,480
1,note_on,72,44,0
1,note_on,72,0,480
1,note_on,73,51,0
1,note_on,73,0,480
1,note_on,72,49,0
1,note_on,72,0,480
1,note_on,72,52,0
1,note_on,72,0,480
1,note_on,74,55,0
1,note_on,74,0,480
1,note_on,76,58,0
1,note_on,76,0,480
1,note_on,77,60,0
1,note_on,77,0,480
1,note_on,75,59,0
1,note_on,75,0,480
1,note_on,75,67,0
1,note_on,75,0,480
1,note_on,77,70,0
1,note_on,77,0,480
1,note_on,75,66,0
1,note_on,75,0,480
1,note_on,75,72,0
1,note_on,75,0,480
1,note_on,77,75,0
1,note_on,77,0,480
1,note_on,79,80,0
1,note_on,79,0,480
1,note_on,80,82,0
1,note_on,80,0,480
1,note_on,79,80,0
1,note_on,79,0,480
1,note_on,79,81,0
1,note_on,79,0,480
1,note_on,80,84,0
1,note_on,80,0,480
1,note_on,77,75,0
1,note_on,77,0,480
1,note_on,76,64,0
1,note_on,76,0,480
1,note_on,74,58,0
1,note_on,74,0,480
1,note_on,77,61,0
1,note_on,77,0,480
1,note_on,76,57,0
1,note_on,76,0,480
1,note_on,76,64,0
1,note_on,76,0,480
1,note_on,74,58,0
1,note_on,74,0,480
1,note_on,77,61,0
1,note_on,77,0,480
1,note_on,76,57,0
1,note_on,76,0,480
1,note_on,76,67,0
1,note_on,76,0,480
1,note_on,74,62,0
1,note_on,74,0,480
1,note_on,78,69,0
1,note_on,78,0,480
1,note_on,76,67,0
1,note_on,76,0,480
1,note_on,76,72,0
1,note_on,76,0,480
1,note_on,81,74,0
1,note_on,81,0,480
1,note_on,83,82,0
1,note_on,83,0,480
1,note_on,84,79,0
1,note_on,84,0,480
1,note_on,84,84,0
1,note_on,84,0,480
1,note_on,82,82,0
1,note_on,82,0,480
1,note_on,85,86,0
1,note_on,85,0,480
1,note_on,77,79,0
1,note_on,77,0,480
1,note_on,82,84,0
1,note_on,82,0,480
1,note_on,80,81,0
1,note_on,80,0,480
1,note_on,84,82,0
1,note_on,84,0,480
1,note_on,75,79,0
1,note_on,75,0,480
1,note_on,75,84,0
1,note_on,75,0,480
1,note_on,76,81,0
1,note_on,76,0,480
1,note_on,77,82,0
1,note_on,77,0,480
1,note_on,75,79,0
1,note_on,75,0,480
1,note_on,73,84,0
1,note_on,73,0,480
1,note_on,72,77,0
1,note_on,72,0,480
1,note_on,72,75,0
1,note_on,72,0,480
1,note_on,84,82,0
1,note_on,84,0,480
1,note_on,84,84,0
1,note_on,84,0,480
1,note_on,82,82,0
1,note_on,82,0,480
1,note_on,85,86,0
1,note_on,85,0,480
1,note_on,76,79,0
1,note_on,76,0,480
1,note_on,82,74,0
1,note_on,82,0,480
1,note_on,80,78,0
1,note_on,80,0,480
1,note_on,84,82,0
1,note_on,84,0,480
1,note_on,75,79,0
1,note_on,75,0,480
1,note_on,75,69,0
1,note_on,75,0,480
1,note_on,77,64,0
1,note_on,77,0,480
1,note_on,78,73,0
1,note_on,78,0,480
1,note_on,77,69,0
1,note_on,77,0,480
1,note_on,77,78,0
1,note_on,77,0,480
1,note_on,79,79,0
1,note_on,79,0,480
1,note_on,80,82,0
1,note_on,80,0,480
1,note_on,79,78,0
1,note_on,79,0,480
1,note_on,79,85,0
1,note_on,79,0,480
1,note_on,80,89,0
1,note_on,80,0,480
1,note_on,81,89,0
1,note_on,81,0,480
1,note_on,90,93,0
1,note_on,90,0,480
1,note_on,89,94,0
1,note_on,89,0,480
1,note_on,82,84,0
1,note_on,82,0,480
1,note_on,85,86,0
1,note_on,85,0,480
1,note_on,79,79,0
1,note_on,79,0,480
1,note_on,80,81,0
1,note_on,80,0,480
1,note_on,75,61,0
1,note_on,75,0,480
1,note_on,75,64,0
1,note_on,75,0,480
1,note_on,75,69,0
1,note_on,75,0,480
1,note_on,77,77,0
1,note_on,77,0,480
1,note_on,75,68,0
1,note_on,75,0,480
1,note_on,84,73,0
1,note_on,84,0,480
1,note_on,79,69,0
1,note_on,79,0,480
1,note_on,80,72,0
1,note_on,80,0,480
1,note_on,75,61,0
1,note_on,75,0,480
1,note_on,75,64,0
1,note_on,75,0,480
1,note_on,75,69,0
1,note_on,75,0,480
1,note_on,77,75,0
1,note_on,77,0,480
1,note_on,75,61,0
1,note_on,75,0,480
1,note_on,89,66,0
1,note_on,89,0,480
1,note_on,79,61,0
1,note_on,79,0,480
1,note_on,80,64,0
1,note_on,80,0,480
1,note_on,75,55,0
1,note_on,75,0,480
1,note_on,77,55,0
1,note_on,77,0,480
1,note_on,75,56,0
1,note_on,75,0,480
1,note_on,73,60,0
1,note_on,73,0,480
1,note_on,72,51,0
1,note_on,72,0,480
1,note_on,73,57,0
1,note_on,73,0,480
1,note_on,72,51,0
1,note_on,72,0,480
1,note_on,70,61,0
1,note_on,70,0,480
1,note_on,68,49,0
1,note_on,68,0,480
1,note_on,70,52,0
1,note_on,70,0,480
1,note_on,68,49,0
1,note_on,68,0,480
1,note_on,70,55,0
1,note_on,70,0,480
1,note_on,68,40,0
1,note_on,68,0,480
1,note_on,70,50,0
1,note_on,70,0,480
1,note_on,68,42,0
1,note_on,68,0,480
1,note_on,68,39,7680
1,note_on,68,0,240
1,note_on,92,41,240
1,note_on,80,41,0
1,note_on,80,0,240
1,note_on,92,0,0
1,note_on,72,26,720
1,note_on,63,26,0
1,note_on,63,0,480
1,note_on,72,0,0
1,note_on,60,33,360
1,note_on,68,37,120
1,note_on,68,0,1440
1,note_on,60,0,0
2,note_on,68,22,2000
2,note_on,68,0,80
2,note_on,72,22,0
2,note_on,72,0,80
2,note_on,63,22,0
2,note_on,63,0,80
2,note_on,68,22,0
2,note_on,68,0,80
2,note_on,72,23,0
2,note_on,72,0,80
2,note_on,68,23,80
2,note_on,68,0,80
2,note_on,72,24,0
2,note_on,72,0,80
2,note_on,63,24,0
2,note_on,63,0,80
2,note_on,68,24,0
2,note_on,68,0,80
2,note_on,72,24,0
2,note_on,72,0,80
2,note_on,68,26,80
2,note_on,68,0,80
2,note_on,72,26,0
2,note_on,72,0,80
2,note_on,63,26,0
2,note_on,63,0,80
2,note_on,68,27,0
2,note_on,68,0,80
2,note_on,72,27,0
2,note_on,72,0,80
2,note_on,68,27,80
2,note_on,68,0,80
2,note_on,72,28,0
2,note_on,72,0,80
2,note_on,63,28,0
2,note_on,63,0,80
2,note_on,68,28,0
2,note_on,68,0,80
2,note_on,72,28,0
2,note_on,72,0,80
2,note_on,68,30,80
2,note_on,68,0,80
2,note_on,72,29,0
2,note_on,72,0,80
2,note_on,63,29,0
2,note_on,63,0,80
2,note_on,68,29,0
2,note_on,68,0,80
2,note_on,72,29,0
2,note_on,72,0,80
2,note_on,68,29,80
2,note_on,68,0,80
2,note_on,72,29,0
2,note_on,72,0,80
2,note_on,63,29,0
2,note_on,63,0,80
2,note_on,68,28,0
2,note_on,68,0,80
2,note_on,72,28,0
2,note_on,72,0,80
2,note_on,68,27,80
2,note_on,68,0,80
2,note_on,72,27,0
2,note_on,72,0,80
2,note_on,63,27,0
2,note_on,63,0,80
2,note_on,68,27,0
2,note_on,68,0,80
2,note_on,72,27,0
2,note_on,72,0,80
2,note_on,68,26,80
2,note_on,68,0,80
2,note_on,72,26,0
2,note_on,72,0,80
2,note_on,63,26,0
2,note_on,63,0,80
2,note_on,68,26,0
2,note_on,68,0,80
2,note_on,72,26,0
2,note_on,72,0,80
2,note_on,70,27,80
2,note_on,70,0,80
2,note_on,73,27,0
2,note_on,73,0,80
2,note_on,63,28,0
2,note_on,63,0,80
2,note_on,70,29,0
2,note_on,70,0,80
2,note_on,73,29,0
2,note_on,73,0,80
2,note_on,70,30,80
2,note_on,70,0,80
2,note_on,73,30,0
2,note_on,73,0,80
2,note_on,63,31,0
2,note_on,63,0,80
2,note_on,70,33,0
2,note_on,70,0,80
2,note_on,73,33,0
2,note_on,73,0,80
2,note_on,70,34,80
2,note_on,70,0,80
2,note_on,73,35,0
2,note_on,73,0,80
2,note_on,63,36,0
2,note_on,63,0,80
2,note_on,70,36,0
2,note_on,70,0,80
2,note_on,73,37,0
2,note_on,73,0,80
2,note_on,70,37,80
2,note_on,70,0,80
2,note_on,73,37,0
2,note_on,73,0,80
2,note_on,63,37,0
2,note_on,63,0,80
2,note_on,70,36,0
2,note_on,70,0,80
2,note_on,73,34,0
2,note_on,73,0,80
2,note_on,72,41,80
2,note_on,72,0,80
2,note_on,75,40,0
2,note_on,75,0,80
2,note_on,63,40,0
2,note_on,63,0,80
2,note_on,72,39,0
2,note_on,72,0,80
2,note_on,75,39,0
2,note_on,75,0,80
2,note_on,72,38,80
2,note_on,72,0,80
2,note_on,75,38,0
2,note_on,75,0,80
2,note_on,63,37,0
2,note_on,63,0,80
2,note_on,72,37,0
2,note_on,72,0,80
2,note_on,75,36,0
2,note_on,75,0,80
2,note_on,72,36,80
2,note_on,72,0,80
2,note_on,76,36,0
2,note_on,76,0,80
2,note_on,64,37,0
2,note_on,64,0,80
2,note_on,72,38,0
2,note_on,72,0,80
2,note_on,76,38,0
2,note_on,76,0,80
2,note_on,72,39,80
2,note_on,72,0,80
2,note_on,76,39,0
2,note_on,76,0,80
2,note_on,64,40,0
2,note_on,64,0,80
2,note_on,72,41,0
2,note_on,72,0,80
2,note_on,76,42,0
2,note_on,76,0,80
2,note_on,73,37,80
2,note_on,73,0,80
2,note_on,77,37,0
2,note_on,77,0,80
2,note_on,68,37,0
2,note_on,68,0,80
2,note_on,73,37,0
2,note_on,73,0,80
2,note_on,77,38,0
2,note_on,77,0,80
2,note_on,73,38,80
2,note_on,73,0,80
2,note_on,77,38,0
2,note_on,77,0,80
2,note_on,68,39,0
2,note_on,68,0,80
2,note_on,73,39,0
2,note_on,73,0,80
2,note_on,77,39,0
2,note_on,77,0,80
2,note_on,73,39,80
2,note_on,73,0,80
2,note_on,77,39,0
2,note_on,77,0,80
2,note_on,68,39,0
2,note_on,68,0,80
2,note_on,73,39,0
2,note_on,73,0,80
2,note_on,77,40,0
2,note_on,77,0,80
2,note_on,73,40,80
2,note_on,73,0,80
2,note_on,77,40,0
2,note_on,77,0,80
2,note_on,67,42,0
2,note_on,67,0,80
2,note_on,73,42,0
2,note_on,73,0,80
2,note_on,77,42,0
2,note_on,77,0,80
2,note_on,72,40,80
2,note_on,72,0,80
2,note_on,77,40,0
2,note_on,77,0,80
2,note_on,67,39,0
2,note_on,67,0,80
2,note_on,72,39,0
2,note_on,72,0,80
2,note_on,77,39,0
2,note_on,77,0,80
2,note_on,72,38,80
2,note_on,72,0,80
2,note_on,76,38,0
2,note_on,76,0,80
2,note_on,67,38,0
2,note_on,67,0,80
2,note_on,72,37,0
2,note_on,72,0,80
2,note_on,76,37,0
2,note_on,76,0,80
2,note_on,72,36,80
2,note_on,72,0,80
2,note_on,77,35,0
2,note_on,77,0,80
2,note_on,68,35,0
2,note_on,68,0,80
2,note_on,72,35,0
2,note_on,72,0,80
2,note_on,77,34,0
2,note_on,77,0,78
2,note_on,71,33,82
2,note_on,71,0,80
2,note_on,75,33,0
2,note_on,75,0,80
2,note_on,65,31,0
2,note_on,65,0,80
2,note_on,71,31,0
2,note_on,71,0,80
2,note_on,75,31,0
2,note_on,75,0,80
2,note_on,70,31,80
2,note_on,70,0,80
2,note_on,75,31,0
2,note_on,75,0,80
2,note_on,65,33,0
2,note_on,65,0,80
2,note_on,70,33,0
2,note_on,70,0,80
2,note_on,75,34,0
2,note_on,75,0,80
2,note_on,70,35,80
2,note_on,70,0,80
2,note_on,75,35,0
2,note_on,75,0,80
2,note_on,65,36,0
2,note_on,65,0,80
2,note_on,70,36,0
2,note_on,70,0,80
2,note_on,75,37,0
2,note_on,75,0,80
2,note_on,70,38,80
2,note_on,70,0,80
2,note_on,74,38,0
2,note_on,74,0,80
2,note_on,65,37,0
2,note_on,65,0,80
2,note_on,68,37,0
2,note_on,68,0,80
2,note_on,70,36,0
2,note_on,70,0,78
2,note_on,65,36,82
2,note_on,65,0,80
2,note_on,68,35,0
2,note_on,68,0,80
2,note_on,58,35,0
2,note_on,58,0,80
2,note_on,65,35,0
2,note_on,65,0,80
2,note_on,68,37,0
2,note_on,68,0,80
2,note_on,65,39,80
2,note_on,65,0,80
2,note_on,68,39,0
2,note_on,68,0,80
2,note_on,58,39,0
2,note_on,58,0,80
2,note_on,65,40,0
2,note_on,65,0,80
2,note_on,68,42,0
2,note_on,68,0,80
2,note_on,63,35,80
2,note_on,63,0,80
2,note_on,68,36,0
2,note_on,68,0,80
2,note_on,58,36,0
2,note_on,58,0,80
2,note_on,63,37,0
2,note_on,63,0,80
2,note_on,68,37,0
2,note_on,68,0,80
2,note_on,63,33,80
2,note_on,63,0,80
2,note_on,67,32,0
2,note_on,67,0,80
2,note_on,58,32,0
2,note_on,58,0,80
2,note_on,61,31,0
2,note_on,61,0,80
2,note_on,63,29,0
2,note_on,63,0,78
2,note_on,58,35,82
2,note_on,58,0,80
2,note_on,61,34,0
2,note_on,61,0,80
2,note_on,51,31,0
2,note_on,51,0,80
2,note_on,58,30,0
2,note_on,58,0,80
2,note_on,61,29,0
2,note_on,61,0,80
2,note_on,68,22,80
2,note_on,68,0,80
2,note_on,72,22,0
2,note_on,72,0,80
2,note_on,63,22,0
2,note_on,63,0,80
2,note_on,68,22,0
2,note_on,68,0,80
2,note_on,72,23,0
2,note_on,72,0,80
2,note_on,68,23,80
2,note_on,68,0,80
2,note_on,72,24,0
2,note_on,72,0,80
2,note_on,63,24,0
2,note_on,63,0,80
2,note_on,68,24,0
2,note_on,68,0,80
2,note_on,72,24,0
2,note_on,72,0,80
2,note_on,68,26,80
2,note_on,68,0,80
2,note_on,72,26,0
2,note_on,72,0,80
2,note_on,63,26,0
2,note_on,63,0,80
2,note_on,68,27,0
2,note_on,68,0,80
2,note_on,72,27,0
2,note_on,72,0,80
2,note_on,68,27,80
2,note_on,68,0,80
2,note_on,72,28,0
2,note_on,72,0,80
2,note_on,63,28,0
2,note_on,63,0,80
2,note_on,68,28,0
2,note_on,68,0,80
2,note_on,72,28,0
2,note_on,72,0,80
2,note_on,68,30,80
2,note_on,68,0,80
2,note_on,72,29,0
2,note_on,72,0,80
2,note_on,63,29,0
2,note_on,63,0,80
2,note_on,68,29,0
2,note_on,68,0,80
2,note_on,72,29,0
2,note_on,72,0,80
2,note_on,68,29,80
2,note_on,68,0,80
2,note_on,72,29,0
2,note_on,72,0,80
2,note_on,63,29,0
2,note_on,63,0,80
2,note_on,68,28,0
2,note_on,68,0,80
2,note_on,72,28,0
2,note_on,72,0,80
2,note_on,68,27,80
2,note_on,68,0,80
2,note_on,72,27,0
2,note_on,72,0,80
2,note_on,63,27,0
2,note_on,63,0,80
2,note_on,68,27,0
2,note_on,68,0,80
2,note_on,72,27,0
2,note_on,72,0,80
2,note_on,68,26,80
2,note_on,68,0,80
2,note_on,72,26,0
2,note_on,72,0,80
2,note_on,63,26,0
2,note_on,63,0,80
2,note_on,68,26,0
2,note_on,68,0,80
2,note_on,72,26,0
2,note_on,72,0,80
2,note_on,70,30,80
2,note_on,70,0,80
2,note_on,73,31,0
2,note_on,73,0,80
2,note_on,63,31,0
2,note_on,63,0,80
2,note_on,70,33,0
2,note_on,70,0,80
2,note_on,73,34,0
2,note_on,73,0,80
2,note_on,70,35,80
2,note_on,70,0,80
2,note_on,73,35,0
2,note_on,73,0,80
2,note_on,63,36,0
2,note_on,63,0,80
2,note_on,70,38,0
2,note_on,70,0,80
2,note_on,73,38,0
2,note_on,73,0,80
2,note_on,70,39,80
2,note_on,70,0,80
2,note_on,73,40,0
2,note_on,73,0,80
2,note_on,63,41,0
2,note_on,63,0,80
2,note_on,70,41,0
2,note_on,70,0,80
2,note_on,73,42,0
2,note_on,73,0,80
2,note_on,70,41,80
2,note_on,70,0,80
2,note_on,73,40,0
2,note_on,73,0,80
2,note_on,63,38,0
2,note_on,63,0,80
2,note_on,70,37,0
2,note_on,70,0,80
2,note_on,73,36,0
2,note_on,73,0,80
2,note_on,72,45,80
2,note_on,72,0,80
2,note_on,75,44,0
2,note_on,75,0,80
2,note_on,63,44,0
2,note_on,63,0,80
2,note_on,72,42,0
2,note_on,72,0,80
2,note_on,75,42,0
2,note_on,75,0,80
2,note_on,72,41,80
2,note_on,72,0,80
2,note_on,75,41,0
2,note_on,75,0,80
2,note_on,63,40,0
2,note_on,63,0,80
2,note_on,72,41,0
2,note_on,72,0,80
2,note_on,75,39,0
2,note_on,75,0,80
2,note_on,72,38,80
2,note_on,72,0,80
2,note_on,76,39,0
2,note_on,76,0,80
2,note_on,64,40,0
2,note_on,64,0,80
2,note_on,72,41,0
2,note_on,72,0,80
2,note_on,76,42,0
2,note_on,76,0,80
2,note_on,72,45,80
2,note_on,72,0,80
2,note_on,76,46,0
2,note_on,76,0,80
2,note_on,64,47,0
2,note_on,64,0,80
2,note_on,72,48,0
2,note_on,72,0,80
2,note_on,76,49,0
2,note_on,76,0,80
2,note_on,73,41,80
2,note_on,73,0,80
2,note_on,77,41,0
2,note_on,77,0,80
2,note_on,68,42,0
2,note_on,68,0,80
2,note_on,73,42,0
2,note_on,73,0,80
2,note_on,77,42,0
2,note_on,77,0,80
2,note_on,73,44,80
2,note_on,73,0,80
2,note_on,77,44,0
2,note_on,77,0,80
2,note_on,68,45,0
2,note_on,68,0,80
2,note_on,73,45,0
2,note_on,73,0,80
2,note_on,77,45,0
2,note_on,77,0,80
2,note_on,73,46,80
2,note_on,73,0,80
2,note_on,77,46,0
2,note_on,77,0,80
2,note_on,68,47,0
2,note_on,68,0,80
2,note_on,73,47,0
2,note_on,73,0,80
2,note_on,77,47,0
2,note_on,77,0,80
2,note_on,73,48,80
2,note_on,73,0,80
2,note_on,77,48,0
2,note_on,77,0,80
2,note_on,67,49,0
2,note_on,67,0,80
2,note_on,73,49,0
2,note_on,73,0,80
2,note_on,77,49,0
2,note_on,77,0,80
2,note_on,72,44,80
2,note_on,72,0,80
2,note_on,77,44,0
2,note_on,77,0,80
2,note_on,67,42,0
2,note_on,67,0,80
2,note_on,72,42,0
2,note_on,72,0,80
2,note_on,77,41,0
2,note_on,77,0,80
2,note_on,72,40,80
2,note_on,72,0,80
2,note_on,77,40,0
2,note_on,77,0,80
2,note_on,67,40,0
2,note_on,67,0,80
2,note_on,72,39,0
2,note_on,72,0,80
2,note_on,77,39,0
2,note_on,77,0,80
2,note_on,72,37,80
2,note_on,72,0,80
2,note_on,76,36,0
2,note_on,76,0,80
2,note_on,67,36,0
2,note_on,67,0,80
2,note_on,72,36,0
2,note_on,72,0,80
2,note_on,76,34,0
2,note_on,76,0,80
2,note_on,72,33,80
2,note_on,72,0,80
2,note_on,76,33,0
2,note_on,76,0,80
2,note_on,67,31,0
2,note_on,67,0,80
2,note_on,72,31,0
2,note_on,72,0,80
2,note_on,76,31,0
2,note_on,76,0,80
2,note_on,71,28,80
2,note_on,71,0,80
2,note_on,76,28,0
2,note_on,76,0,80
2,note_on,65,33,0
2,note_on,65,0,80
2,note_on,71,29,0
2,note_on,71,0,80
2,note_on,76,29,0
2,note_on,76,0,80
2,note_on,71,28,80
2,note_on,71,0,80
2,note_on,74,28,0
2,note_on,74,0,80
2,note_on,65,28,0
2,note_on,65,0,80
2,note_on,71,28,0
2,note_on,71,0,80
2,note_on,74,28,0
2,note_on,74,0,80
2,note_on,71,29,80
2,note_on,71,0,80
2,note_on,77,29,0
2,note_on,77,0,80
2,note_on,65,29,0
2,note_on,65,0,80
2,note_on,71,29,0
2,note_on,71,0,80
2,note_on,77,28,0
2,note_on,77,0,80
2,note_on,71,28,80
2,note_on,71,0,80
2,note_on,76,28,0
2,note_on,76,0,80
2,note_on,65,30,0
2,note_on,65,0,80
2,note_on,71,30,0
2,note_on,71,0,80
2,note_on,76,33,0
2,note_on,76,0,80
2,note_on,65,25,80
2,note_on,65,0,80
2,note_on,67,25,0
2,note_on,67,0,80
2,note_on,60,25,0
2,note_on,60,0,80
2,note_on,65,26,0
2,note_on,65,0,80
2,note_on,67,27,0
2,note_on,67,0,80
2,note_on,64,26,80
2,note_on,64,0,80
2,note_on,67,26,0
2,note_on,67,0,80
2,note_on,60,26,0
2,note_on,60,0,80
2,note_on,64,26,0
2,note_on,64,0,80
2,note_on,67,26,0
2,note_on,67,0,80
2,note_on,62,26,80
2,note_on,62,0,80
2,note_on,67,26,0
2,note_on,67,0,80
2,note_on,60,26,0
2,note_on,60,0,80
2,note_on,62,26,0
2,note_on,62,0,80
2,note_on,67,25,0
2,note_on,67,0,80
2,note_on,64,25,80
2,note_on,64,0,80
2,note_on,67,25,0
2,note_on,67,0,80
2,note_on,60,24,0
2,note_on,60,0,80
2,note_on,64,22,0
2,note_on,64,0,80
2,note_on,67,20,0
2,note_on,67,0,80
2,note_on,67,22,80
2,note_on,67,0,80
2,note_on,70,22,0
2,note_on,70,0,80
2,note_on,60,22,0
2,note_on,60,0,80
2,note_on,67,22,0
2,note_on,67,0,80
2,note_on,70,23,0
2,note_on,70,0,80
2,note_on,67,23,80
2,note_on,67,0,80
2,note_on,70,24,0
2,note_on,70,0,80
2,note_on,60,24,0
2,note_on,60,0,80
2,note_on,67,24,0
2,note_on,67,0,80
2,note_on,70,24,0
2,note_on,70,0,80
2,note_on,67,26,80
2,note_on,67,0,80
2,note_on,70,26,0
2,note_on,70,0,80
2,note_on,60,26,0
2,note_on,60,0,80
2,note_on,67,27,0
2,note_on,67,0,80
2,note_on,70,27,0
2,note_on,70,0,80
2,note_on,67,27,80
2,note_on,67,0,80
2,note_on,70,28,0
2,note_on,70,0,80
2,note_on,60,28,0
2,note_on,60,0,80
2,note_on,67,28,0
2,note_on,67,0,80
2,note_on,70,28,0
2,note_on,70,0,80
2,note_on,65,28,80
2,note_on,65,0,80
2,note_on,70,28,0
2,note_on,70,0,80
2,note_on,60,29,0
2,note_on,60,0,80
2,note_on,65,29,0
2,note_on,65,0,80
2,note_on,70,29,0
2,note_on,70,0,80
2,note_on,65,30,80
2,note_on,65,0,80
2,note_on,68,31,0
2,note_on,68,0,80
2,note_on,60,31,0
2,note_on,60,0,80
2,note_on,65,31,0
2,note_on,65,0,80
2,note_on,68,33,0
2,note_on,68,0,80
2,note_on,67,34,80
2,note_on,67,0,80
2,note_on,72,34,0
2,note_on,72,0,80
2,note_on,60,34,0
2,note_on,60,0,80
2,note_on,67,35,0
2,note_on,67,0,80
2,note_on,72,35,0
2,note_on,72,0,80
2,note_on,68,36,80
2,note_on,68,0,80
2,note_on,72,36,0
2,note_on,72,0,80
2,note_on,60,37,0
2,note_on,60,0,80
2,note_on,68,37,0
2,note_on,68,0,80
2,note_on,72,37,0
2,note_on,72,0,80
2,note_on,70,35,80
2,note_on,70,0,80
2,note_on,73,35,0
2,note_on,73,0,80
2,note_on,63,36,0
2,note_on,63,0,80
2,note_on,70,36,0
2,note_on,70,0,80
2,note_on,73,37,0
2,note_on,73,0,80
2,note_on,70,38,80
2,note_on,70,0,80
2,note_on,73,38,0
2,note_on,73,0,80
2,note_on,63,38,0
2,note_on,63,0,80
2,note_on,70,39,0
2,note_on,70,0,80
2,note_on,73,39,0
2,note_on,73,0,80
2,note_on,70,40,80
2,note_on,70,0,80
2,note_on,73,41,0
2,note_on,73,0,80
2,note_on,63,41,0
2,note_on,63,0,80
2,note_on,70,42,0
2,note_on,70,0,80
2,note_on,73,42,0
2,note_on,73,0,80
2,note_on,70,44,80
2,note_on,70,0,80
2,note_on,73,42,0
2,note_on,73,0,80
2,note_on,63,41,0
2,note_on,63,0,80
2,note_on,70,40,0
2,note_on,70,0,80
2,note_on,73,39,0
2,note_on,73,0,80
2,note_on,68,36,80
2,note_on,68,0,80
2,note_on,73,36,0
2,note_on,73,0,80
2,note_on,63,37,0
2,note_on,63,0,80
2,note_on,68,37,0
2,note_on,68,0,80
2,note_on,73,38,0
2,note_on,73,0,80
2,note_on,68,39,80
2,note_on,68,0,80
2,note_on,72,39,0
2,note_on,72,0,80
2,note_on,63,39,0
2,note_on,63,0,80
2,note_on,68,40,0
2,note_on,68,0,80
2,note_on,72,40,0
2,note_on,72,0,80
2,note_on,68,41,80
2,note_on,68,0,80
2,note_on,72,42,0
2,note_on,72,0,80
2,note_on,63,42,0
2,note_on,63,0,80
2,note_on,68,44,0
2,note_on,68,0,80
2,note_on,72,44,0
2,note_on,72,0,80
2,note_on,68,44,80
2,note_on,68,0,80
2,note_on,72,45,0
2,note_on,72,0,80
2,note_on,63,46,0
2,note_on,63,0,80
2,note_on,68,47,0
2,note_on,68,0,80
2,note_on,72,48,0
2,note_on,72,0,80
2,note_on,72,46,80
2,note_on,72,0,80
2,note_on,75,47,0
2,note_on,75,0,80
2,note_on,67,48,0
2,note_on,67,0,80
2,note_on,72,48,0
2,note_on,72,0,80
2,note_on,75,49,0
2,note_on,75,0,80
2,note_on,72,51,80
2,note_on,72,0,80
2,note_on,75,51,0
2,note_on,75,0,80
2,note_on,67,52,0
2,note_on,67,0,80
2,note_on,72,53,0
2,note_on,72,0,80
2,note_on,75,53,0
2,note_on,75,0,80
2,note_on,72,50,80
2,note_on,72,0,80
2,note_on,74,49,0
2,note_on,74,0,80
2,note_on,65,48,0
2,note_on,65,0,80
2,note_on,72,47,0
2,note_on,72,0,80
2,note_on,74,46,0
2,note_on,74,0,80
2,note_on,71,44,80
2,note_on,71,0,80
2,note_on,74,42,0
2,note_on,74,0,80
2,note_on,65,41,0
2,note_on,65,0,80
2,note_on,71,40,0
2,note_on,71,0,80
2,note_on,74,39,0
2,note_on,74,0,80
2,note_on,67,28,80
2,note_on,67,0,80
2,note_on,72,28,0
2,note_on,72,0,80
2,note_on,64,28,0
2,note_on,64,0,80
2,note_on,67,29,0
2,note_on,67,0,80
2,note_on,72,29,0
2,note_on,72,0,80
2,note_on,68,30,80
2,note_on,68,0,80
2,note_on,71,30,0
2,note_on,71,0,80
2,note_on,62,30,0
2,note_on,62,0,80
2,note_on,68,31,0
2,note_on,68,0,80
2,note_on,71,31,0
2,note_on,71,0,80
2,note_on,68,33,80
2,note_on,68,0,80
2,note_on,71,31,0
2,note_on,71,0,80
2,note_on,65,31,0
2,note_on,65,0,80
2,note_on,68,31,0
2,note_on,68,0,80
2,note_on,71,30,0
2,note_on,71,0,80
2,note_on,68,29,80
2,note_on,68,0,80
2,note_on,71,29,0
2,note_on,71,0,80
2,note_on,64,29,0
2,note_on,64,0,80
2,note_on,68,28,0
2,note_on,68,0,80
2,note_on,71,28,0
2,note_on,71,0,80
2,note_on,67,29,80
2,note_on,67,0,80
2,note_on,72,30,0
2,note_on,72,0,80
2,note_on,64,31,0
2,note_on,64,0,80
2,note_on,67,31,0
2,note_on,67,0,80
2,note_on,72,33,0
2,note_on,72,0,80
2,note_on,68,34,80
2,note_on,68,0,80
2,note_on,71,35,0
2,note_on,71,0,80
2,note_on,62,36,0
2,note_on,62,0,80
2,note_on,68,36,0
2,note_on,68,0,80
2,note_on,71,37,0
2,note_on,71,0,80
2,note_on,68,37,80
2,note_on,68,0,80
2,note_on,71,36,0
2,note_on,71,0,80
2,note_on,65,36,0
2,note_on,65,0,80
2,note_on,68,36,0
2,note_on,68,0,80
2,note_on,71,34,0
2,note_on,71,0,80
2,note_on,68,33,80
2,note_on,68,0,80
2,note_on,71,33,0
2,note_on,71,0,80
2,note_on,64,31,0
2,note_on,64,0,80
2,note_on,68,31,0
2,note_on,68,0,80
2,note_on,71,31,0
2,note_on,71,0,80
2,note_on,69,29,80
2,note_on,69,0,80
2,note_on,73,30,0
2,note_on,73,0,80
2,note_on,64,31,0
2,note_on,64,0,80
2,note_on,69,31,0
2,note_on,69,0,80
2,note_on,73,33,0
2,note_on,73,0,80
2,note_on,69,34,80
2,note_on,69,0,80
2,note_on,71,35,0
2,note_on,71,0,80
2,note_on,62,36,0
2,note_on,62,0,80
2,note_on,69,36,0
2,note_on,69,0,80
2,note_on,71,37,0
2,note_on,71,0,80
2,note_on,69,37,80
2,note_on,69,0,80
2,note_on,71,36,0
2,note_on,71,0,80
2,note_on,66,36,0
2,note_on,66,0,80
2,note_on,69,36,0
2,note_on,69,0,80
2,note_on,71,34,0
2,note_on,71,0,80
2,note_on,68,33,80
2,note_on,68,0,80
2,note_on,74,33,0
2,note_on,74,0,80
2,note_on,64,31,0
2,note_on,64,0,80
2,note_on,68,31,0
2,note_on,68,0,80
2,note_on,74,31,0
2,note_on,74,0,80
2,note_on,69,36,80
2,note_on,69,0,80
2,note_on,73,36,0
2,note_on,73,0,80
2,note_on,64,38,0
2,note_on,64,0,80
2,note_on,69,38,0
2,note_on,69,0,80
2,note_on,73,39,0
2,note_on,73,0,80
2,note_on,73,40,80
2,note_on,73,0,80
2,note_on,76,40,0
2,note_on,76,0,80
2,note_on,69,42,0
2,note_on,69,0,80
2,note_on,73,42,0
2,note_on,73,0,80
2,note_on,76,44,0
2,note_on,76,0,80
2,note_on,75,45,80
2,note_on,75,0,80
2,note_on,78,45,0
2,note_on,78,0,80
2,note_on,69,46,0
2,note_on,69,0,80
2,note_on,75,46,0
2,note_on,75,0,80
2,note_on,78,48,0
2,note_on,78,0,80
2,note_on,75,49,80
2,note_on,75,0,80
2,note_on,78,49,0
2,note_on,78,0,80
2,note_on,68,50,0
2,note_on,68,0,80
2,note_on,75,50,0
2,note_on,75,0,80
2,note_on,78,52,0
2,note_on,78,0,80
2,note_on,73,52,80
2,note_on,73,0,80
2,note_on,77,53,0
2,note_on,77,0,80
2,note_on,65,53,0
2,note_on,65,0,80
2,note_on,73,53,0
2,note_on,73,0,80
2,note_on,77,55,0
2,note_on,77,0,80
2,note_on,73,57,80
2,note_on,73,0,80
2,note_on,77,57,0
2,note_on,77,0,80
2,note_on,65,58,0
2,note_on,65,0,80
2,note_on,73,58,0
2,note_on,73,0,80
2,note_on,77,59,0
2,note_on,77,0,80
2,note_on,70,59,80
2,note_on,70,0,80
2,note_on,73,60,0
2,note_on,73,0,80
2,note_on,65,60,0
2,note_on,65,0,80
2,note_on,70,62,0
2,note_on,70,0,80
2,note_on,73,62,0
2,note_on,73,0,80
2,note_on,70,53,80
2,note_on,70,0,80
2,note_on,73,53,0
2,note_on,73,0,80
2,note_on,65,53,0
2,note_on,65,0,80
2,note_on,70,52,0
2,note_on,70,0,80
2,note_on,73,53,0
2,note_on,73,0,80
2,note_on,72,52,80
2,note_on,72,0,80
2,note_on,75,53,0
2,note_on,75,0,80
2,note_on,63,53,0
2,note_on,63,0,80
2,note_on,72,53,0
2,note_on,72,0,80
2,note_on,75,55,0
2,note_on,75,0,80
2,note_on,72,57,80
2,note_on,72,0,80
2,note_on,75,57,0
2,note_on,75,0,80
2,note_on,63,58,0
2,note_on,63,0,80
2,note_on,72,58,0
2,note_on,72,0,80
2,note_on,75,59,0
2,note_on,75,0,80
2,note_on,68,59,80
2,note_on,68,0,80
2,note_on,72,60,0
2,note_on,72,0,80
2,note_on,63,60,0
2,note_on,63,0,80
2,note_on,68,62,0
2,note_on,68,0,80
2,note_on,72,62,0
2,note_on,72,0,80
2,note_on,68,57,80
2,note_on,68,0,80
2,note_on,72,57,0
2,note_on,72,0,80
2,note_on,63,57,0
2,note_on,63,0,80
2,note_on,68,57,0
2,note_on,68,0,80
2,note_on,72,57,0
2,note_on,72,0,80
2,note_on,67,52,80
2,note_on,67,0,80
2,note_on,70,53,0
2,note_on,70,0,80
2,note_on,61,53,0
2,note_on,61,0,80
2,note_on,67,53,0
2,note_on,67,0,80
2,note_on,70,55,0
2,note_on,70,0,80
2,note_on,67,57,80
2,note_on,67,0,80
2,note_on,70,57,0
2,note_on,70,0,80
2,note_on,61,58,0
2,note_on,61,0,80
2,note_on,67,58,0
2,note_on,67,0,80
2,note_on,70,59,0
2,note_on,70,0,80
2,note_on,67,59,80
2,note_on,67,0,80
2,note_on,70,60,0
2,note_on,70,0,80
2,note_on,61,60,0
2,note_on,61,0,80
2,note_on,67,62,0
2,note_on,67,0,80
2,note_on,70,62,0
2,note_on,70,0,80
2,note_on,67,57,80
2,note_on,67,0,80
2,note_on,70,57,0
2,note_on,70,0,80
2,note_on,61,57,0
2,note_on,61,0,80
2,note_on,67,57,0
2,note_on,67,0,80
2,note_on,70,57,0
2,note_on,70,0,80
2,note_on,65,50,80
2,note_on,65,0,80
2,note_on,68,50,0
2,note_on,68,0,80
2,note_on,61,50,0
2,note_on,61,0,80
2,note_on,65,50,0
2,note_on,65,0,80
2,note_on,68,50,0
2,note_on,68,0,80
2,note_on,65,49,80
2,note_on,65,0,80
2,note_on,68,49,0
2,note_on,68,0,80
2,note_on,60,49,0
2,note_on,60,0,80
2,note_on,65,49,0
2,note_on,65,0,80
2,note_on,68,49,0
2,note_on,68,0,80
2,note_on,63,48,80
2,note_on,63,0,80
2,note_on,65,48,0
2,note_on,65,0,80
2,note_on,60,48,0
2,note_on,60,0,80
2,note_on,63,48,0
2,note_on,63,0,80
2,note_on,65,48,0
2,note_on,65,0,80
2,note_on,75,49,80
2,note_on,75,0,80
2,note_on,77,49,0
2,note_on,77,0,80
2,note_on,72,50,0
2,note_on,72,0,80
2,note_on,75,50,0
2,note_on,75,0,80
2,note_on,77,52,0
2,note_on,77,0,80
2,note_on,73,52,80
2,note_on,73,0,80
2,note_on,77,53,0
2,note_on,77,0,80
2,note_on,65,53,0
2,note_on,65,0,80
2,note_on,73,53,0
2,note_on,73,0,80
2,note_on,77,55,0
2,note_on,77,0,80
2,note_on,73,57,80
2,note_on,73,0,80
2,note_on,77,57,0
2,note_on,77,0,80
2,note_on,65,58,0
2,note_on,65,0,80
2,note_on,73,58,0
2,note_on,73,0,80
2,note_on,77,59,0
2,note_on,77,0,80
2,note_on,70,57,80
2,note_on,70,0,80
2,note_on,73,57,0
2,note_on,73,0,80
2,note_on,64,55,0
2,note_on,64,0,80
2,note_on,70,55,0
2,note_on,70,0,80
2,note_on,73,55,0
2,note_on,73,0,80
2,note_on,70,53,80
2,note_on,70,0,80
2,note_on,73,53,0
2,note_on,73,0,80
2,note_on,64,53,0
2,note_on,64,0,80
2,note_on,70,52,0
2,note_on,70,0,80
2,note_on,73,53,0
2,note_on,73,0,80
2,note_on,72,52,80
2,note_on,72,0,80
2,note_on,75,53,0
2,note_on,75,0,80
2,note_on,63,53,0
2,note_on,63,0,80
2,note_on,72,53,0
2,note_on,72,0,80
2,note_on,75,55,0
2,note_on,75,0,80
2,note_on,72,52,80
2,note_on,72,0,80
2,note_on,75,52,0
2,note_on,75,0,80
2,note_on,63,53,0
2,note_on,63,0,80
2,note_on,72,53,0
2,note_on,72,0,80
2,note_on,75,53,0
2,note_on,75,0,80
2,note_on,68,55,80
2,note_on,68,0,80
2,note_on,72,56,0
2,note_on,72,0,80
2,note_on,63,56,0
2,note_on,63,0,80
2,note_on,68,56,0
2,note_on,68,0,80
2,note_on,72,57,0
2,note_on,72,0,80
2,note_on,68,58,80
2,note_on,68,0,80
2,note_on,72,57,0
2,note_on,72,0,80
2,note_on,63,57,0
2,note_on,63,0,80
2,note_on,68,57,0
2,note_on,68,0,80
2,note_on,72,57,0
2,note_on,72,0,80
2,note_on,69,40,80
2,note_on,69,0,80
2,note_on,72,41,0
2,note_on,72,0,80
2,note_on,63,41,0
2,note_on,63,0,80
2,note_on,69,42,0
2,note_on,69,0,80
2,note_on,72,42,0
2,note_on,72,0,80
2,note_on,69,45,80
2,note_on,69,0,80
2,note_on,72,45,0
2,note_on,72,0,80
2,note_on,63,46,0
2,note_on,63,0,80
2,note_on,69,46,0
2,note_on,69,0,80
2,note_on,72,47,0
2,note_on,72,0,80
2,note_on,69,48,80
2,note_on,69,0,80
2,note_on,72,49,0
2,note_on,72,0,80
2,note_on,63,49,0
2,note_on,63,0,80
2,note_on,69,50,0
2,note_on,69,0,80
2,note_on,72,51,0
2,note_on,72,0,80
2,note_on,69,48,80
2,note_on,69,0,80
2,note_on,72,47,0
2,note_on,72,0,80
2,note_on,63,45,0
2,note_on,63,0,80
2,note_on,69,44,0
2,note_on,69,0,80
2,note_on,72,41,0
2,note_on,72,0,80
2,note_on,70,47,80
2,note_on,70,0,80
2,note_on,73,47,0
2,note_on,73,0,80
2,note_on,61,48,0
2,note_on,61,0,80
2,note_on,70,48,0
2,note_on,70,0,80
2,note_on,73,49,0
2,note_on,73,0,80
2,note_on,70,50,80
2,note_on,70,0,80
2,note_on,73,51,0
2,note_on,73,0,80
2,note_on,65,51,0
2,note_on,65,0,80
2,note_on,70,52,0
2,note_on,70,0,80
2,note_on,73,52,0
2,note_on,73,0,80
2,note_on,71,53,80
2,note_on,71,0,80
2,note_on,73,55,0
2,note_on,73,0,80
2,note_on,65,56,0
2,note_on,65,0,80
2,note_on,71,56,0
2,note_on,71,0,80
2,note_on,73,57,0
2,note_on,73,0,80
2,note_on,71,57,80
2,note_on,71,0,80
2,note_on,73,55,0
2,note_on,73,0,80
2,note_on,65,53,0
2,note_on,65,0,80
2,note_on,71,52,0
2,note_on,71,0,80
2,note_on,73,51,0
2,note_on,73,0,80
2,note_on,72,52,80
2,note_on,72,0,80
2,note_on,75,52,0
2,note_on,75,0,80
2,note_on,63,52,0
2,note_on,63,0,80
2,note_on,72,52,0
2,note_on,72,0,80
2,note_on,75,53,0
2,note_on,75,0,80
2,note_on,72,55,80
2,note_on,72,0,80
2,note_on,75,55,0
2,note_on,75,0,80
2,note_on,68,56,0
2,note_on,68,0,80
2,note_on,72,56,0
2,note_on,72,0,80
2,note_on,75,56,0
2,note_on,75,0,80
2,note_on,72,58,80
2,note_on,72,0,80
2,note_on,75,59,0
2,note_on,75,0,80
2,note_on,69,60,0
2,note_on,69,0,80
2,note_on,72,60,0
2,note_on,72,0,80
2,note_on,75,61,0
2,note_on,75,0,80
2,note_on,81,58,80
2,note_on,81,0,80
2,note_on,84,59,0
2,note_on,84,0,80
2,note_on,75,59,0
2,note_on,75,0,80
2,note_on,81,59,0
2,note_on,81,0,80
2,note_on,84,60,0
2,note_on,84,0,80
2,note_on,77,58,80
2,note_on,77,0,80
2,note_on,80,58,0
2,note_on,80,0,80
2,note_on,70,58,0
2,note_on,70,0,80
2,note_on,77,58,0
2,note_on,77,0,80
2,note_on,80,58,0
2,note_on,80,0,80
2,note_on,77,58,80
2,note_on,77,0,80
2,note_on,80,58,0
2,note_on,80,0,80
2,note_on,70,58,0
2,note_on,70,0,80
2,note_on,77,58,0
2,note_on,77,0,80
2,note_on,80,58,0
2,note_on,80,0,80
2,note_on,76,60,80
2,note_on,76,0,80
2,note_on,80,61,0
2,note_on,80,0,80
2,note_on,70,61,0
2,note_on,70,0,80
2,note_on,76,61,0
2,note_on,76,0,80
2,note_on,80,61,0
2,note_on,80,0,80
2,note_on,73,58,80
2,note_on,73,0,80
2,note_on,75,57,0
2,note_on,75,0,80
2,note_on,67,56,0
2,note_on,67,0,80
2,note_on,73,55,0
2,note_on,73,0,80
2,note_on,75,55,0
2,note_on,75,0,80
2,note_on,68,44,80
2,note_on,68,0,80
2,note_on,72,41,0
2,note_on,72,0,80
2,note_on,63,39,0
2,note_on,63,0,80
2,note_on,68,38,0
2,note_on,68,0,80
2,note_on,72,36,0
2,note_on,72,0,80
2,note_on,68,33,80
2,note_on,68,0,80
2,note_on,72,34,0
2,note_on,72,0,80
2,note_on,63,34,0
2,note_on,63,0,80
2,note_on,68,35,0
2,note_on,68,0,80
2,note_on,72,35,0
2,note_on,72,0,80
2,note_on,68,36,80
2,note_on,68,0,80
2,note_on,72,37,0
2,note_on,72,0,80
2,note_on,63,37,0
2,note_on,63,0,80
2,note_on,68,38,0
2,note_on,68,0,80
2,note_on,72,38,0
2,note_on,72,0,80
2,note_on,68,39,80
2,note_on,68,0,80
2,note_on,72,40,0
2,note_on,72,0,80
2,note_on,63,40,0
2,note_on,63,0,80
2,note_on,68,41,0
2,note_on,68,0,80
2,note_on,72,41,0
2,note_on,72,0,80
2,note_on,70,47,80
2,note_on,70,0,80
2,note_on,73,41,0
2,note_on,73,0,80
2,note_on,65,41,0
2,note_on,65,0,80
2,note_on,70,42,0
2,note_on,70,0,80
2,note_on,73,44,0
2,note_on,73,0,80
2,note_on,70,44,80
2,note_on,70,0,80
2,note_on,73,44,0
2,note_on,73,0,80
2,note_on,63,44,0
2,note_on,63,0,80
2,note_on,70,44,0
2,note_on,70,0,80
2,note_on,73,44,0
2,note_on,73,0,80
2,note_on,70,44,80
2,note_on,70,0,80
2,note_on,73,44,0
2,note_on,73,0,80
2,note_on,63,44,0
2,note_on,63,0,80
2,note_on,70,44,0
2,note_on,70,0,80
2,note_on,73,44,0
2,note_on,73,0,80
2,note_on,70,42,80
2,note_on,70,0,80
2,note_on,73,40,0
2,note_on,73,0,80
2,note_on,63,39,0
2,note_on,63,0,80
2,note_on,70,38,0
2,note_on,70,0,80
2,note_on,73,37,0
2,note_on,73,0,80
2,note_on,68,36,80
2,note_on,68,0,80
2,note_on,72,36,0
2,note_on,72,0,80
2,note_on,63,36,0
2,note_on,63,0,80
2,note_on,68,36,0
2,note_on,68,0,80
2,note_on,72,37,0
2,note_on,72,0,80
2,note_on,68,33,80
2,note_on,68,0,80
2,note_on,72,34,0
2,note_on,72,0,80
2,note_on,63,34,0
2,note_on,63,0,80
2,note_on,68,35,0
2,note_on,68,0,80
2,note_on,72,35,0
2,note_on,72,0,80
2,note_on,68,36,80
2,note_on,68,0,80
2,note_on,72,37,0
2,note_on,72,0,80
2,note_on,63,37,0
2,note_on,63,0,80
2,note_on,68,38,0
2,note_on,68,0,80
2,note_on,72,38,0
2,note_on,72,0,80
2,note_on,68,39,80
2,note_on,68,0,80
2,note_on,72,40,0
2,note_on,72,0,80
2,note_on,63,40,0
2,note_on,63,0,80
2,note_on,68,41,0
2,note_on,68,0,80
2,note_on,72,41,0
2,note_on,72,0,80
2,note_on,70,44,80
2,note_on,70,0,80
2,note_on,73,42,0
2,note_on,73,0,80
2,note_on,63,42,0
2,note_on,63,0,80
2,note_on,70,41,0
2,note_on,70,0,80
2,note_on,73,40,0
2,note_on,73,0,80
2,note_on,70,39,80
2,note_on,70,0,80
2,note_on,73,39,0
2,note_on,73,0,80
2,note_on,63,38,0
2,note_on,63,0,80
2,note_on,70,37,0
2,note_on,70,0,80
2,note_on,73,37,0
2,note_on,73,0,80
2,note_on,70,31,80
2,note_on,70,0,80
2,note_on,73,31,0
2,note_on,73,0,80
2,note_on,63,31,0
2,note_on,63,0,80
2,note_on,70,31,0
2,note_on,70,0,80
2,note_on,73,31,0
2,note_on,73,0,80
2,note_on,70,34,80
2,note_on,70,0,80
2,note_on,73,34,0
2,note_on,73,0,80
2,note_on,63,34,0
2,note_on,63,0,80
2,note_on,70,34,0
2,note_on,70,0,80
2,note_on,73,34,0
2,note_on,73,0,80
2,note_on,68,35,80
2,note_on,68,0,80
2,note_on,72,35,0
2,note_on,72,0,80
2,note_on,63,35,0
2,note_on,63,0,80
2,note_on,68,35,0
2,note_on,68,0,80
2,note_on,72,34,0
2,note_on,72,0,80
2,note_on,68,34,80
2,note_on,68,0,80
2,note_on,72,34,0
2,note_on,72,0,80
2,note_on,63,34,0
2,note_on,63,0,80
2,note_on,68,33,0
2,note_on,68,0,80
2,note_on,72,33,0
2,note_on,72,0,80
2,note_on,68,33,80
2,note_on,68,0,80
2,note_on,72,31,0
2,note_on,72,0,80
2,note_on,63,31,0
2,note_on,63,0,80
2,note_on,68,31,0
2,note_on,68,0,80
2,note_on,72,31,0
2,note_on,72,0,80
2,note_on,68,33,80
2,note_on,68,0,80
2,note_on,72,33,0
2,note_on,72,0,80
2,note_on,63,33,0
2,note_on,63,0,80
2,note_on,68,33,0
2,note_on,68,0,80
2,note_on,72,33,0
2,note_on,72,0,80
2,note_on,63,34,80
2,note_on,63,0,80
2,note_on,68,34,0
2,note_on,68,0,80
2,note_on,61,34,0
2,note_on,61,0,80
2,note_on,63,34,0
2,note_on,63,0,80
2,note_on,68,34,0
2,note_on,68,0,80
2,note_on,72,33,0
2,note_on,72,0,80
2,note_on,63,33,0
2,note_on,63,0,80
2,note_on,68,33,0
2,note_on,68,0,80
2,note_on,60,33,0
2,note_on,60,0,80
2,note_on,63,33,0
2,note_on,63,0,80
2,note_on,68,33,0
2,note_on,68,0,80
2,note_on,63,31,80
2,note_on,63,0,80
2,note_on,68,31,0
2,note_on,68,0,80
2,note_on,61,30,0
2,note_on,61,0,80
2,note_on,63,30,0
2,note_on,63,0,80
2,note_on,68,30,0
2,note_on,68,0,80
2,note_on,63,29,80
2,note_on,63,0,80
2,note_on,68,29,0
2,note_on,68,0,80
2,note_on,60,29,0
2,note_on,60,0,80
2,note_on,63,29,0
2,note_on,63,0,80
2,note_on,68,29,0
2,note_on,68,0,80
2,note_on,60,29,80
2,note_on,60,0,80
2,note_on,63,29,0
2,note_on,63,0,80
2,note_on,58,29,0
2,note_on,58,0,80
2,note_on,60,29,0
2,note_on,60,0,80
2,note_on,63,29,0
2,note_on,63,0,80
2,note_on,60,29,80
2,note_on,60,0,80
2,note_on,63,29,0
2,note_on,63,0,80
2,note_on,56,29,0
2,note_on,56,0,80
2,note_on,60,29,0
2,note_on,60,0,80
2,note_on,63,29,0
2,note_on,63,0,80
2,note_on,60,28,80
2,note_on,60,0,80
2,note_on,63,28,0
2,note_on,63,0,80
2,note_on,58,28,0
2,note_on,58,0,80
2,note_on,60,28,0
2,note_on,60,0,80
2,note_on,63,28,0
2,note_on,63,0,80
2,note_on,60,28,80
2,note_on,60,0,80
2,note_on,63,28,0
2,note_on,63,0,80
2,note_on,56,28,0
2,note_on,56,0,80
2,note_on,60,28,0
2,note_on,60,0,80
2,note_on,63,27,0
2,note_on,63,0,80
2,note_on,60,29,80
2,note_on,60,0,80
2,note_on,63,29,0
2,note_on,63,0,80
2,note_on,58,29,0
2,note_on,58,0,80
2,note_on,60,29,0
2,note_on,60,0,80
2,note_on,63,29,0
2,note_on,63,0,80
2,note_on,60,28,80
2,note_on,60,0,80
2,note_on,63,28,0
2,note_on,63,0,80
2,note_on,56,28,0
2,note_on,56,0,80
2,note_on,60,28,0
2,note_on,60,0,80
2,note_on,63,28,0
2,note_on,63,0,80
2,note_on,60,27,80
2,note_on,60,0,80
2,note_on,63,27,0
2,note_on,63,0,80
2,note_on,58,27,0
2,note_on,58,0,80
2,note_on,60,27,0
2,note_on,60,0,80
2,note_on,63,26,0
2,note_on,63,0,80
2,note_on,60,26,80
2,note_on,60,0,80
2,note_on,63,26,0
2,note_on,63,0,80
2,note_on,56,26,0
2,note_on,56,0,80
2,note_on,60,26,0
2,note_on,60,0,80
2,note_on,63,27,0
2,note_on,63,0,80
2,note_on,48,28,80
2,note_on,48,0,80
2,note_on,51,28,0
2,note_on,51,0,80
2,note_on,56,29,0
2,note_on,56,0,80
2,note_on,60,30,0
2,note_on,60,0,80
2,note_on,63,30,0
2,note_on,63,0,80
2,note_on,68,31,0
2,note_on,68,0,80
2,note_on,72,33,0
2,note_on,72,0,80
2,note_on,75,33,0
2,note_on,75,0,80
2,note_on,80,34,0
2,note_on,80,0,80
2,note_on,84,35,0
2,note_on,84,0,80
2,note_on,87,36,0
2,note_on,87,0,80
2,note_on,92,44,0
2,note_on,92,0,80
2,note_on,87,36,0
2,note_on,87,0,80
2,note_on,84,35,0
2,note_on,84,0,80
2,note_on,80,34,0
2,note_on,80,0,80
2,note_on,75,33,0
2,note_on,75,0,80
2,note_on,72,31,0
2,note_on,72,0,80
2,note_on,68,37,0
2,note_on,68,0,80
2,note_on,72,31,0
2,note_on,72,0,80
2,note_on,75,33,0
2,note_on,75,0,80
2,note_on,80,34,0
2,note_on,80,0,80
2,note_on,84,35,0
2,note_on,84,0,80
2,note_on,87,36,0
2,note_on,87,0,80
2,note_on,92,40,0
2,note_on,92,0,80
2,note_on,87,35,0
2,note_on,87,0,80
2,note_on,84,34,0
2,note_on,84,0,80
2,note_on,80,33,0
2,note_on,80,0,80
2,note_on,75,31,0
2,note_on,75,0,80
2,note_on,72,30,0
2,note_on,72,0,80
2,note_on,68,34,0
2,note_on,68,0,80
2,note_on,72,29,0
2,note_on,72,0,80
2,note_on,75,30,0
2,note_on,75,0,80
2,note_on,80,31,0
2,note_on,80,0,80
2,note_on,84,33,0
2,note_on,84,0,80
2,note_on,87,35,0
2,note_on,87,0,80
2,note_on,92,40,0
2,note_on,92,0,80
2,note_on,87,35,0
2,note_on,87,0,80
2,note_on,84,34,0
2,note_on,84,0,80
2,note_on,80,33,0
2,note_on,80,0,80
2,note_on,75,31,0
2,note_on,75,0,80
2,note_on,72,31,0
2,note_on,72,0,80
2,note_on,68,34,0
2,note_on,68,0,80
2,note_on,72,28,0
2,note_on,72,0,80
2,note_on,75,30,0
2,note_on,75,0,80
2,note_on,80,31,0
2,note_on,80,0,80
2,note_on,84,33,0
2,note_on,84,0,80
2,note_on,87,34,0
2,note_on,87,0,80
2,note_on,92,39,0
2,note_on,92,0,80
2,note_on,87,33,0
2,note_on,87,0,80
2,note_on,84,33,0
2,note_on,84,0,80
2,note_on,80,33,0
2,note_on,80,0,80
2,note_on,75,31,0
2,note_on,75,0,80
2,note_on,72,31,0
2,note_on,72,0,80
2,note_on,68,31,0
2,note_on,68,0,80
2,note_on,72,34,0
2,note_on,72,0,80
2,note_on,80,35,0
2,note_on,80,0,80
2,note_on,84,38,0
2,note_on,84,0,80
2,note_on,80,36,0
2,note_on,80,0,80
2,note_on,72,35,0
2,note_on,72,0,80
2,note_on,68,35,0
2,note_on,68,0,80
2,note_on,72,34,0
2,note_on,72,0,80
2,note_on,80,37,0
2,note_on,80,0,80
2,note_on,84,39,0
2,note_on,84,0,80
2,note_on,80,38,0
2,note_on,80,0,80
2,note_on,72,37,0
2,note_on,72,0,80
2,note_on,68,37,0
2,note_on,68,0,80
2,note_on,72,38,0
2,note_on,72,0,80
2,note_on,80,41,0
2,note_on,80,0,80
2,note_on,84,42,0
2,note_on,84,0,80
2,note_on,80,42,0
2,note_on,80,0,80
2,note_on,72,39,0
2,note_on,72,0,80
2,note_on,68,39,0
2,note_on,68,0,80
2,note_on,72,41,0
2,note_on,72,0,80
2,note_on,80,42,0
2,note_on,80,0,80
2,note_on,84,44,0
2,note_on,84,0,80
2,note_on,80,40,0
2,note_on,80,0,80
2,note_on,72,38,0
2,note_on,72,0,80
2,note_on,68,37,0
2,note_on,68,0,80
2,note_on,72,35,0
2,note_on,72,0,80
2,note_on,80,37,0
2,note_on,80,0,80
2,note_on,84,38,0
2,note_on,84,0,80
2,note_on,80,35,0
2,note_on,80,0,80
2,note_on,72,34,0
2,note_on,72,0,80
2,note_on,68,33,0
2,note_on,68,0,80
2,note_on,72,33,0
2,note_on,72,0,80
2,note_on,80,34,0
2,note_on,80,0,80
2,note_on,84,34,0
2,note_on,84,0,80
2,note_on,80,33,0
2,note_on,80,0,80
2,note_on,72,29,0
2,note_on,72,0,80
2,note_on,68,29,0
2,note_on,68,0,80
2,note_on,72,29,0
2,note_on,72,0,80
2,note_on,80,30,0
2,note_on,80,0,80
2,note_on,84,31,0
2,note_on,84,0,80
2,note_on,80,30,0
2,note_on,80,0,80
2,note_on,72,29,0
2,note_on,72,0,80
3,note_on,32,35,560
3,note_on,32,0,80
3,note_on,51,17,0
3,note_on,51,0,80
3,note_on,56,18,0
3,note_on,56,0,80
3,note_on,60,18,0
3,note_on,60,0,80
3,note_on,56,18,0
3,note_on,56,0,80
3,note_on,51,18,0
3,note_on,51,0,80
3,note_on,44,30,0
3,note_on,44,0,80
3,note_on,51,19,0
3,note_on,51,0,80
3,note_on,56,19,0
3,note_on,56,0,80
3,note_on,60,19,0
3,note_on,60,0,80
3,note_on,56,20,0
3,note_on,56,0,80
3,note_on,51,20,0
3,note_on,51,0,80
3,note_on,44,20,0
3,note_on,44,0,80
3,note_on,51,20,0
3,note_on,51,0,80
3,note_on,56,20,0
3,note_on,56,0,80
3,note_on,60,20,0
3,note_on,60,0,80
3,note_on,56,22,0
3,note_on,56,0,80
3,note_on,51,22,0
3,note_on,51,0,80
3,note_on,44,23,0
3,note_on,44,0,80
3,note_on,51,23,0
3,note_on,51,0,80
3,note_on,56,23,0
3,note_on,56,0,80
3,note_on,60,24,0
3,note_on,60,0,80
3,note_on,56,24,0
3,note_on,56,0,80
3,note_on,51,24,0
3,note_on,51,0,80
3,note_on,44,26,0
3,note_on,44,0,80
3,note_on,51,26,0
3,note_on,51,0,80
3,note_on,56,25,0
3,note_on,56,0,80
3,note_on,60,25,0
3,note_on,60,0,80
3,note_on,56,25,0
3,note_on,56,0,80
3,note_on,51,24,0
3,note_on,51,0,80
3,note_on,44,24,0
3,note_on,44,0,34
3,note_on,51,24,0
3,note_on,51,0,80
3,note_on,56,24,0
3,note_on,56,0,80
3,note_on,60,24,0
3,note_on,60,0,80
3,note_on,56,23,0
3,note_on,56,0,80
3,note_on,51,23,0
3,note_on,51,0,80
3,note_on,44,23,0
3,note_on,44,0,80
3,note_on,51,23,0
3,note_on,51,0,80
3,note_on,56,23,0
3,note_on,56,0,80
3,note_on,60,23,0
3,note_on,60,0,80
3,note_on,56,23,0
3,note_on,56,0,80
3,note_on,51,23,0
3,note_on,51,0,80
3,note_on,44,23,0
3,note_on,44,0,80
3,note_on,51,23,0
3,note_on,51,0,80
3,note_on,56,22,0
3,note_on,56,0,80
3,note_on,60,22,0
3,note_on,60,0,80
3,note_on,56,22,0
3,note_on,56,0,80
3,note_on,51,22,0
3,note_on,51,0,80
3,note_on,44,24,0
3,note_on,44,0,45
3,note_on,51,24,0
3,note_on,51,0,80
3,note_on,55,24,0
3,note_on,55,0,80
3,note_on,61,25,0
3,note_on,61,0,80
3,note_on,55,25,0
3,note_on,55,0,80
3,note_on,51,26,0
3,note_on,51,0,80
3,note_on,44,26,0
3,note_on,44,0,80
3,note_on,51,27,0
3,note_on,51,0,80
3,note_on,55,27,0
3,note_on,55,0,80
3,note_on,61,27,0
3,note_on,61,0,80
3,note_on,55,28,0
3,note_on,55,0,80
3,note_on,51,28,0
3,note_on,51,0,80
3,note_on,44,29,0
3,note_on,44,0,80
3,note_on,51,29,0
3,note_on,51,0,80
3,note_on,55,29,0
3,note_on,55,0,80
3,note_on,61,29,0
3,note_on,61,0,80
3,note_on,55,30,0
3,note_on,55,0,80
3,note_on,51,30,0
3,note_on,51,0,80
3,note_on,44,30,0
3,note_on,44,0,80
3,note_on,51,30,0
3,note_on,51,0,80
3,note_on,55,29,0
3,note_on,55,0,80
3,note_on,61,29,0
3,note_on,61,0,80
3,note_on,55,29,0
3,note_on,55,0,80
3,note_on,51,28,0
3,note_on,51,0,80
3,note_on,44,29,0
3,note_on,44,0,24
3,note_on,51,29,0
3,note_on,51,0,80
3,note_on,56,28,0
3,note_on,56,0,80
3,note_on,60,28,0
3,note_on,60,0,80
3,note_on,56,28,0
3,note_on,56,0,80
3,note_on,51,27,0
3,note_on,51,0,80
3,note_on,44,31,0
3,note_on,44,0,80
3,note_on,51,31,0
3,note_on,51,0,80
3,note_on,56,30,0
3,note_on,56,0,80
3,note_on,60,30,0
3,note_on,60,0,80
3,note_on,56,29,0
3,note_on,56,0,80
3,note_on,51,29,0
3,note_on,51,0,80
3,note_on,44,28,0
3,note_on,44,0,43
3,note_on,52,28,0
3,note_on,52,0,80
3,note_on,56,29,0
3,note_on,56,0,80
3,note_on,60,29,0
3,note_on,60,0,80
3,note_on,56,29,0
3,note_on,56,0,80
3,note_on,52,30,0
3,note_on,52,0,80
3,note_on,44,31,0
3,note_on,44,0,80
3,note_on,52,31,0
3,note_on,52,0,80
3,note_on,56,33,0
3,note_on,56,0,80
3,note_on,60,34,0
3,note_on,60,0,80
3,note_on,56,34,0
3,note_on,56,0,80
3,note_on,52,35,0
3,note_on,52,0,80
3,note_on,37,44,0
3,note_on,37,0,13
3,note_on,56,31,0
3,note_on,56,0,80
3,note_on,61,31,0
3,note_on,61,0,80
3,note_on,65,31,0
3,note_on,65,0,80
3,note_on,61,33,0
3,note_on,61,0,80
3,note_on,56,33,0
3,note_on,56,0,80
3,note_on,49,46,0
3,note_on,49,0,80
3,note_on,56,34,0
3,note_on,56,0,80
3,note_on,61,34,0
3,note_on,61,0,80
3,note_on,65,34,0
3,note_on,65,0,80
3,note_on,61,34,0
3,note_on,61,0,80
3,note_on,56,35,0
3,note_on,56,0,80
3,note_on,49,35,0
3,note_on,49,0,80
3,note_on,56,35,0
3,note_on,56,0,80
3,note_on,61,36,0
3,note_on,61,0,80
3,note_on,65,36,0
3,note_on,65,0,80
3,note_on,61,36,0
3,note_on,61,0,80
3,note_on,56,36,0
3,note_on,56,0,80
3,note_on,49,50,0
3,note_on,49,0,9
3,note_on,55,37,0
3,note_on,55,0,80
3,note_on,61,37,0
3,note_on,61,0,80
3,note_on,65,38,0
3,note_on,65,0,80
3,note_on,61,38,0
3,note_on,61,0,80
3,note_on,55,38,0
3,note_on,55,0,80
3,note_on,48,50,0
3,note_on,48,0,49
3,note_on,55,39,0
3,note_on,55,0,80
3,note_on,60,39,0
3,note_on,60,0,80
3,note_on,65,38,0
3,note_on,65,0,80
3,note_on,60,38,0
3,note_on,60,0,80
3,note_on,55,37,0
3,note_on,55,0,80
3,note_on,48,37,0
3,note_on,48,0,34
3,note_on,55,36,0
3,note_on,55,0,80
3,note_on,60,36,0
3,note_on,60,0,80
3,note_on,64,36,0
3,note_on,64,0,80
3,note_on,60,35,0
3,note_on,60,0,80
3,note_on,55,35,0
3,note_on,55,0,80
3,note_on,53,34,0
3,note_on,53,0,40
3,note_on,56,34,0
3,note_on,56,0,80
3,note_on,60,33,0
3,note_on,60,0,80
3,note_on,65,33,0
3,note_on,65,0,80
3,note_on,60,31,0
3,note_on,60,0,80
3,note_on,56,31,0
3,note_on,56,0,80
3,note_on,47,41,0
3,note_on,47,0,54
3,note_on,53,29,0
3,note_on,53,0,80
3,note_on,56,29,0
3,note_on,56,0,80
3,note_on,63,29,0
3,note_on,63,0,80
3,note_on,56,28,0
3,note_on,56,0,80
3,note_on,53,28,0
3,note_on,53,0,80
3,note_on,46,47,0
3,note_on,46,0,40
3,note_on,53,28,0
3,note_on,53,0,80
3,note_on,56,28,0
3,note_on,56,0,80
3,note_on,63,29,0
3,note_on,63,0,80
3,note_on,56,29,0
3,note_on,56,0,80
3,note_on,53,29,0
3,note_on,53,0,80
3,note_on,46,31,0
3,note_on,46,0,80
3,note_on,53,31,0
3,note_on,53,0,80
3,note_on,56,33,0
3,note_on,56,0,80
3,note_on,63,33,0
3,note_on,63,0,80
3,note_on,56,34,0
3,note_on,56,0,80
3,note_on,53,35,0
3,note_on,53,0,80
3,note_on,46,34,0
3,note_on,46,0,40
3,note_on,53,34,0
3,note_on,53,0,80
3,note_on,56,34,0
3,note_on,56,0,80
3,note_on,62,33,0
3,note_on,62,0,80
3,note_on,56,33,0
3,note_on,56,0,80
3,note_on,53,33,0
3,note_on,53,0,80
3,note_on,46,31,0
3,note_on,46,0,53
3,note_on,53,31,0
3,note_on,53,0,80
3,note_on,56,31,0
3,note_on,56,0,80
3,note_on,62,29,0
3,note_on,62,0,80
3,note_on,56,29,0
3,note_on,56,0,80
3,note_on,53,29,0
3,note_on,53,0,80
3,note_on,39,51,0
3,note_on,39,0,34
3,note_on,46,29,0
3,note_on,46,0,80
3,note_on,51,31,0
3,note_on,51,0,80
3,note_on,61,31,0
3,note_on,61,0,80
3,note_on,51,33,0
3,note_on,51,0,80
3,note_on,46,33,0
3,note_on,46,0,80
3,note_on,39,27,0
3,note_on,39,0,20
3,note_on,46,27,0
3,note_on,46,0,80
3,note_on,51,28,0
3,note_on,51,0,80
3,note_on,56,28,0
3,note_on,56,0,80
3,note_on,51,28,0
3,note_on,51,0,80
3,note_on,46,28,0
3,note_on,46,0,80
3,note_on,39,28,0
3,note_on,39,0,65
3,note_on,46,27,0
3,note_on,46,0,54
3,note_on,51,26,0
3,note_on,51,0,80
3,note_on,55,26,0
3,note_on,55,0,80
3,note_on,51,24,0
3,note_on,51,0,80
3,note_on,46,24,0
3,note_on,46,0,80
3,note_on,39,29,0
3,note_on,39,0,80
3,note_on,46,28,0
3,note_on,46,0,80
3,note_on,49,27,0
3,note_on,49,0,80
3,note_on,55,27,0
3,note_on,55,0,80
3,note_on,49,26,0
3,note_on,49,0,80
3,note_on,46,25,0
3,note_on,46,0,80
3,note_on,32,41,0
3,note_on,32,0,16
3,note_on,51,17,0
3,note_on,51,0,80
3,note_on,56,18,0
3,note_on,56,0,80
3,note_on,60,18,0
3,note_on,60,0,80
3,note_on,56,18,0
3,note_on,56,0,80
3,note_on,51,18,0
3,note_on,51,0,80
3,note_on,44,36,0
3,note_on,44,0,80
3,note_on,51,19,0
3,note_on,51,0,80
3,note_on,56,19,0
3,note_on,56,0,80
3,note_on,60,19,0
3,note_on,60,0,80
3,note_on,56,20,0
3,note_on,56,0,80
3,note_on,51,20,0
3,note_on,51,0,80
3,note_on,44,20,0
3,note_on,44,0,80
3,note_on,51,20,0
3,note_on,51,0,80
3,note_on,56,20,0
3,note_on,56,0,80
3,note_on,60,20,0
3,note_on,60,0,80
3,note_on,56,22,0
3,note_on,56,0,80
3,note_on,51,22,0
3,note_on,51,0,80
3,note_on,44,23,0
3,note_on,44,0,80
3,note_on,51,23,0
3,note_on,51,0,80
3,note_on,56,23,0
3,note_on,56,0,80
3,note_on,60,24,0
3,note_on,60,0,80
3,note_on,56,24,0
3,note_on,56,0,80
3,note_on,51,24,0
3,note_on,51,0,80
3,note_on,44,26,0
3,note_on,44,0,80
3,note_on,51,26,0
3,note_on,51,0,80
3,note_on,56,25,0
3,note_on,56,0,80
3,note_on,60,25,0
3,note_on,60,0,80
3,note_on,56,25,0
3,note_on,56,0,80
3,note_on,51,24,0
3,note_on,51,0,80
3,note_on,44,24,0
3,note_on,44,0,34
3,note_on,51,24,0
3,note_on,51,0,80
3,note_on,56,24,0
3,note_on,56,0,80
3,note_on,60,24,0
3,note_on,60,0,80
3,note_on,56,23,0
3,note_on,56,0,80
3,note_on,51,23,0
3,note_on,51,0,80
3,note_on,44,23,0
3,note_on,44,0,80
3,note_on,51,23,0
3,note_on,51,0,80
3,note_on,56,23,0
3,note_on,56,0,80
3,note_on,60,23,0
3,note_on,60,0,80
3,note_on,56,23,0
3,note_on,56,0,80
3,note_on,51,23,0
3,note_on,51,0,80
3,note_on,44,23,0
3,note_on,44,0,80
3,note_on,51,23,0
3,note_on,51,0,80
3,note_on,56,22,0
3,note_on,56,0,80
3,note_on,60,22,0
3,note_on,60,0,80
3,note_on,56,22,0
3,note_on,56,0,80
3,note_on,51,22,0
3,note_on,51,0,80
3,note_on,44,25,0
3,note_on,44,0,45
3,note_on,51,25,0
3,note_on,51,0,80
3,note_on,55,26,0
3,note_on,55,0,80
3,note_on,61,26,0
3,note_on,61,0,80
3,note_on,55,27,0
3,note_on,55,0,80
3,note_on,51,27,0
3,note_on,51,0,80
3,note_on,44,28,0
3,note_on,44,0,80
3,note_on,51,28,0
3,note_on,51,0,80
3,note_on,55,29,0
3,note_on,55,0,80
3,note_on,61,29,0
3,note_on,61,0,80
3,note_on,55,30,0
3,note_on,55,0,80
3,note_on,51,30,0
3,note_on,51,0,80
3,note_on,44,31,0
3,note_on,44,0,34
3,note_on,51,31,0
3,note_on,51,0,80
3,note_on,55,34,0
3,note_on,55,0,80
3,note_on,61,34,0
3,note_on,61,0,80
3,note_on,55,35,0
3,note_on,55,0,80
3,note_on,51,35,0
3,note_on,51,0,80
3,note_on,44,35,0
3,note_on,44,0,80
3,note_on,51,35,0
3,note_on,51,0,80
3,note_on,55,34,0
3,note_on,55,0,80
3,note_on,61,33,0
3,note_on,61,0,80
3,note_on,55,33,0
3,note_on,55,0,80
3,note_on,51,31,0
3,note_on,51,0,80
3,note_on,44,31,0
3,note_on,44,0,24
3,note_on,51,31,0
3,note_on,51,0,80
3,note_on,56,30,0
3,note_on,56,0,80
3,note_on,60,30,0
3,note_on,60,0,80
3,note_on,56,30,0
3,note_on,56,0,80
3,note_on,51,29,0
3,note_on,51,0,80
3,note_on,44,35,0
3,note_on,44,0,80
3,note_on,51,35,0
3,note_on,51,0,80
3,note_on,56,34,0
3,note_on,56,0,80
3,note_on,60,34,0
3,note_on,60,0,80
3,note_on,56,33,0
3,note_on,56,0,80
3,note_on,51,33,0
3,note_on,51,0,80
3,note_on,44,31,0
3,note_on,44,0,43
3,note_on,52,31,0
3,note_on,52,0,80
3,note_on,56,33,0
3,note_on,56,0,80
3,note_on,60,33,0
3,note_on,60,0,80
3,note_on,56,33,0
3,note_on,56,0,80
3,note_on,52,34,0
3,note_on,52,0,80
3,note_on,44,35,0
3,note_on,44,0,80
3,note_on,52,35,0
3,note_on,52,0,80
3,note_on,56,37,0
3,note_on,56,0,80
3,note_on,60,38,0
3,note_on,60,0,80
3,note_on,56,38,0
3,note_on,56,0,80
3,note_on,52,39,0
3,note_on,52,0,80
3,note_on,37,48,0
3,note_on,37,0,13
3,note_on,56,34,0
3,note_on,56,0,80
3,note_on,61,34,0
3,note_on,61,0,80
3,note_on,65,34,0
3,note_on,65,0,80
3,note_on,61,36,0
3,note_on,61,0,80
3,note_on,56,36,0
3,note_on,56,0,80
3,note_on,49,40,0
3,note_on,49,0,80
3,note_on,56,37,0
3,note_on,56,0,80
3,note_on,61,37,0
3,note_on,61,0,80
3,note_on,65,37,0
3,note_on,65,0,80
3,note_on,61,37,0
3,note_on,61,0,80
3,note_on,56,38,0
3,note_on,56,0,80
3,note_on,49,38,0
3,note_on,49,0,80
3,note_on,56,38,0
3,note_on,56,0,80
3,note_on,61,39,0
3,note_on,61,0,80
3,note_on,65,39,0
3,note_on,65,0,80
3,note_on,61,39,0
3,note_on,61,0,80
3,note_on,56,39,0
3,note_on,56,0,80
3,note_on,49,41,0
3,note_on,49,0,9
3,note_on,55,40,0
3,note_on,55,0,80
3,note_on,61,40,0
3,note_on,61,0,80
3,note_on,65,41,0
3,note_on,65,0,80
3,note_on,61,41,0
3,note_on,61,0,80
3,note_on,55,41,0
3,note_on,55,0,80
3,note_on,48,55,0
3,note_on,48,0,49
3,note_on,55,42,0
3,note_on,55,0,80
3,note_on,60,42,0
3,note_on,60,0,80
3,note_on,65,41,0
3,note_on,65,0,80
3,note_on,60,41,0
3,note_on,60,0,80
3,note_on,55,39,0
3,note_on,55,0,80
3,note_on,48,39,0
3,note_on,48,0,80
3,note_on,55,38,0
3,note_on,55,0,80
3,note_on,60,38,0
3,note_on,60,0,80
3,note_on,65,38,0
3,note_on,65,0,80
3,note_on,60,36,0
3,note_on,60,0,80
3,note_on,55,36,0
3,note_on,55,0,80
3,note_on,48,35,0
3,note_on,48,0,40
3,note_on,55,35,0
3,note_on,55,0,80
3,note_on,60,34,0
3,note_on,60,0,80
3,note_on,64,34,0
3,note_on,64,0,80
3,note_on,60,33,0
3,note_on,60,0,80
3,note_on,55,31,0
3,note_on,55,0,80
3,note_on,48,36,0
3,note_on,48,0,80
3,note_on,55,29,0
3,note_on,55,0,80
3,note_on,60,29,0
3,note_on,60,0,80
3,note_on,64,29,0
3,note_on,64,0,80
3,note_on,60,28,0
3,note_on,60,0,80
3,note_on,55,28,0
3,note_on,55,0,80
3,note_on,43,41,0
3,note_on,43,0,40
3,note_on,50,25,0
3,note_on,50,0,80
3,note_on,55,25,0
3,note_on,55,0,80
3,note_on,59,26,0
3,note_on,59,0,80
3,note_on,55,26,0
3,note_on,55,0,80
3,note_on,50,26,0
3,note_on,50,0,80
3,note_on,43,28,0
3,note_on,43,0,28
3,note_on,50,26,0
3,note_on,50,0,80
3,note_on,55,26,0
3,note_on,55,0,80
3,note_on,59,27,0
3,note_on,59,0,80
3,note_on,55,27,0
3,note_on,55,0,80
3,note_on,50,27,0
3,note_on,50,0,80
3,note_on,43,27,0
3,note_on,43,0,80
3,note_on,50,27,0
3,note_on,50,0,80
3,note_on,55,27,0
3,note_on,55,0,80
3,note_on,62,27,0
3,note_on,62,0,80
3,note_on,55,27,0
3,note_on,55,0,80
3,note_on,50,27,0
3,note_on,50,0,80
3,note_on,43,27,0
3,note_on,43,0,80
3,note_on,50,28,0
3,note_on,50,0,80
3,note_on,55,28,0
3,note_on,55,0,80
3,note_on,62,26,0
3,note_on,62,0,80
3,note_on,55,26,0
3,note_on,55,0,80
3,note_on,50,26,0
3,note_on,50,0,80
3,note_on,36,44,0
3,note_on,36,0,34
3,note_on,43,23,0
3,note_on,43,0,80
3,note_on,48,25,0
3,note_on,48,0,80
3,note_on,55,25,0
3,note_on,55,0,80
3,note_on,48,26,0
3,note_on,48,0,80
3,note_on,43,26,0
3,note_on,43,0,80
3,note_on,36,24,0
3,note_on,36,0,20
3,note_on,43,24,0
3,note_on,43,0,80
3,note_on,48,24,0
3,note_on,48,0,80
3,note_on,55,25,0
3,note_on,55,0,80
3,note_on,48,25,0
3,note_on,48,0,80
3,note_on,43,25,0
3,note_on,43,0,80
3,note_on,36,26,0
3,note_on,36,0,20
3,note_on,43,26,0
3,note_on,43,0,80
3,note_on,48,26,0
3,note_on,48,0,80
3,note_on,55,26,0
3,note_on,55,0,80
3,note_on,48,25,0
3,note_on,48,0,80
3,note_on,43,24,0
3,note_on,43,0,80
3,note_on,36,24,0
3,note_on,36,0,20
3,note_on,43,23,0
3,note_on,43,0,80
3,note_on,48,25,0
3,note_on,48,0,80
3,note_on,55,23,0
3,note_on,55,0,120
3,note_on,48,19,0
3,note_on,48,0,120
3,note_on,40,39,0
3,note_on,40,0,60
3,note_on,48,24,0
3,note_on,48,0,120
3,note_on,58,33,0
3,note_on,58,0,120
3,note_on,48,24,0
3,note_on,48,0,120
3,note_on,40,26,0
3,note_on,40,0,120
3,note_on,48,24,0
3,note_on,48,0,120
3,note_on,58,33,0
3,note_on,58,0,120
3,note_on,48,24,0
3,note_on,48,0,4
3,note_on,40,27,0
3,note_on,40,0,85
3,note_on,48,24,0
3,note_on,48,0,120
3,note_on,58,33,0
3,note_on,58,0,120
3,note_on,48,24,0
3,note_on,48,0,120
3,note_on,40,27,0
3,note_on,40,0,60
3,note_on,48,24,0
3,note_on,48,0,120
3,note_on,58,35,0
3,note_on,58,0,120
3,note_on,48,24,0
3,note_on,48,0,120
3,note_on,41,34,0
3,note_on,41,0,56
3,note_on,48,27,0
3,note_on,48,0,120
3,note_on,58,36,0
3,note_on,58,0,120
3,note_on,48,27,0
3,note_on,48,0,120
3,note_on,41,30,0
3,note_on,41,0,74
3,note_on,48,28,0
3,note_on,48,0,120
3,note_on,56,37,0
3,note_on,56,0,120
3,note_on,48,28,0
3,note_on,48,0,120
3,note_on,41,33,0
3,note_on,41,0,54
3,note_on,48,29,0
3,note_on,48,0,120
3,note_on,55,37,0
3,note_on,55,0,120
3,note_on,48,29,0
3,note_on,48,0,120
3,note_on,41,34,0
3,note_on,41,0,57
3,note_on,48,30,0
3,note_on,48,0,120
3,note_on,53,39,0
3,note_on,53,0,120
3,note_on,48,30,0
3,note_on,48,0,120
3,note_on,43,42,0
3,note_on,43,0,85
3,note_on,51,30,0
3,note_on,51,0,120
3,note_on,61,40,0
3,note_on,61,0,120
3,note_on,51,30,0
3,note_on,51,0,120
3,note_on,43,35,0
3,note_on,43,0,120
3,note_on,51,31,0
3,note_on,51,0,120
3,note_on,61,42,0
3,note_on,61,0,120
3,note_on,51,33,0
3,note_on,51,0,120
3,note_on,43,38,0
3,note_on,43,0,81
3,note_on,51,34,0
3,note_on,51,0,120
3,note_on,61,44,0
3,note_on,61,0,120
3,note_on,51,34,0
3,note_on,51,0,120
3,note_on,43,35,0
3,note_on,43,0,32
3,note_on,51,30,0
3,note_on,51,0,120
3,note_on,61,39,0
3,note_on,61,0,120
3,note_on,51,30,0
3,note_on,51,0,120
3,note_on,44,38,0
3,note_on,44,0,64
3,note_on,51,30,0
3,note_on,51,0,120
3,note_on,61,40,0
3,note_on,61,0,120
3,note_on,51,31,0
3,note_on,51,0,120
3,note_on,44,35,0
3,note_on,44,0,60
3,note_on,51,31,0
3,note_on,51,0,120
3,note_on,60,40,0
3,note_on,60,0,120
3,note_on,51,33,0
3,note_on,51,0,11
3,note_on,44,38,0
3,note_on,44,0,83
3,note_on,51,34,0
3,note_on,51,0,120
3,note_on,58,42,0
3,note_on,58,0,120
3,note_on,51,35,0
3,note_on,51,0,120
3,note_on,44,40,0
3,note_on,44,0,49
3,note_on,51,36,0
3,note_on,51,0,120
3,note_on,56,45,0
3,note_on,56,0,120
3,note_on,51,37,0
3,note_on,51,0,120
3,note_on,39,47,0
3,note_on,39,0,66
3,note_on,55,38,0
3,note_on,55,0,120
3,note_on,60,39,0
3,note_on,60,0,120
3,note_on,55,38,0
3,note_on,55,0,120
3,note_on,48,41,0
3,note_on,48,0,120
3,note_on,55,38,0
3,note_on,55,0,120
3,note_on,60,44,0
3,note_on,60,0,120
3,note_on,55,38,0
3,note_on,55,0,120
3,note_on,41,51,0
3,note_on,41,0,70
3,note_on,50,34,0
3,note_on,50,0,120
3,note_on,60,35,0
3,note_on,60,0,120
3,note_on,50,30,0
3,note_on,50,0,120
3,note_on,43,39,0
3,note_on,43,0,49
3,note_on,50,30,0
3,note_on,50,0,120
3,note_on,59,35,0
3,note_on,59,0,80
3,note_on,55,30,0
3,note_on,55,0,80
3,note_on,50,30,0
3,note_on,50,0,80
3,note_on,48,37,0
3,note_on,48,0,49
3,note_on,52,26,0
3,note_on,52,0,80
3,note_on,55,25,0
3,note_on,55,0,80
3,note_on,60,25,0
3,note_on,60,0,80
3,note_on,55,26,0
3,note_on,55,0,80
3,note_on,52,26,0
3,note_on,52,0,80
3,note_on,48,27,0
3,note_on,48,0,34
3,note_on,53,27,0
3,note_on,53,0,80
3,note_on,56,28,0
3,note_on,56,0,80
3,note_on,59,28,0
3,note_on,59,0,80
3,note_on,56,29,0
3,note_on,56,0,80
3,note_on,53,29,0
3,note_on,53,0,80
3,note_on,48,31,0
3,note_on,48,0,80
3,note_on,53,31,0
3,note_on,53,0,80
3,note_on,56,31,0
3,note_on,56,0,80
3,note_on,62,30,0
3,note_on,62,0,80
3,note_on,56,29,0
3,note_on,56,0,80
3,note_on,53,29,0
3,note_on,53,0,80
3,note_on,48,27,0
3,note_on,48,0,37
3,note_on,52,26,0
3,note_on,52,0,80
3,note_on,56,26,0
3,note_on,56,0,80
3,note_on,62,24,0
3,note_on,62,0,80
3,note_on,56,24,0
3,note_on,56,0,80
3,note_on,52,28,0
3,note_on,52,0,80
3,note_on,48,33,0
3,note_on,48,0,49
3,note_on,52,26,0
3,note_on,52,0,80
3,note_on,55,27,0
3,note_on,55,0,80
3,note_on,60,27,0
3,note_on,60,0,80
3,note_on,55,28,0
3,note_on,55,0,80
3,note_on,52,28,0
3,note_on,52,0,80
3,note_on,47,36,0
3,note_on,47,0,34
3,note_on,53,30,0
3,note_on,53,0,80
3,note_on,56,30,0
3,note_on,56,0,80
3,note_on,59,31,0
3,note_on,59,0,80
3,note_on,56,31,0
3,note_on,56,0,80
3,note_on,53,33,0
3,note_on,53,0,80
3,note_on,47,34,0
3,note_on,47,0,80
3,note_on,53,34,0
3,note_on,53,0,80
3,note_on,56,33,0
3,note_on,56,0,80
3,note_on,62,33,0
3,note_on,62,0,80
3,note_on,56,31,0
3,note_on,56,0,80
3,note_on,53,30,0
3,note_on,53,0,80
3,note_on,47,30,0
3,note_on,47,0,37
3,note_on,52,29,0
3,note_on,52,0,80
3,note_on,56,28,0
3,note_on,56,0,80
3,note_on,62,28,0
3,note_on,62,0,80
3,note_on,56,27,0
3,note_on,56,0,80
3,note_on,52,28,0
3,note_on,52,0,80
3,note_on,45,35,0
3,note_on,45,0,49
3,note_on,52,26,0
3,note_on,52,0,80
3,note_on,57,27,0
3,note_on,57,0,80
3,note_on,61,27,0
3,note_on,61,0,80
3,note_on,57,28,0
3,note_on,57,0,80
3,note_on,52,28,0
3,note_on,52,0,80
3,note_on,45,29,0
3,note_on,45,0,34
3,note_on,54,30,0
3,note_on,54,0,80
3,note_on,57,30,0
3,note_on,57,0,80
3,note_on,59,31,0
3,note_on,59,0,80
3,note_on,57,31,0
3,note_on,57,0,80
3,note_on,54,33,0
3,note_on,54,0,80
3,note_on,45,34,0
3,note_on,45,0,80
3,note_on,54,34,0
3,note_on,54,0,80
3,note_on,57,33,0
3,note_on,57,0,80
3,note_on,62,33,0
3,note_on,62,0,80
3,note_on,57,31,0
3,note_on,57,0,80
3,note_on,54,30,0
3,note_on,54,0,80
3,note_on,45,30,0
3,note_on,45,0,37
3,note_on,52,29,0
3,note_on,52,0,80
3,note_on,56,28,0
3,note_on,56,0,80
3,note_on,62,28,0
3,note_on,62,0,80
3,note_on,56,27,0
3,note_on,56,0,80
3,note_on,52,28,0
3,note_on,52,0,80
3,note_on,45,37,0
3,note_on,45,0,49
3,note_on,52,30,0
3,note_on,52,0,80
3,note_on,57,31,0
3,note_on,57,0,80
3,note_on,61,31,0
3,note_on,61,0,80
3,note_on,57,34,0
3,note_on,57,0,80
3,note_on,52,34,0
3,note_on,52,0,80
3,note_on,45,35,0
3,note_on,45,0,80
3,note_on,52,35,0
3,note_on,52,0,80
3,note_on,57,36,0
3,note_on,57,0,80
3,note_on,61,36,0
3,note_on,61,0,80
3,note_on,57,38,0
3,note_on,57,0,80
3,note_on,52,38,0
3,note_on,52,0,80
3,note_on,45,39,0
3,note_on,45,0,40
3,note_on,51,39,0
3,note_on,51,0,80
3,note_on,54,40,0
3,note_on,54,0,80
3,note_on,60,40,0
3,note_on,60,0,80
3,note_on,54,42,0
3,note_on,54,0,80
3,note_on,51,42,0
3,note_on,51,0,80
3,note_on,45,44,0
3,note_on,45,0,37
3,note_on,51,44,0
3,note_on,51,0,80
3,note_on,54,45,0
3,note_on,54,0,80
3,note_on,60,45,0
3,note_on,60,0,80
3,note_on,54,46,0
3,note_on,54,0,80
3,note_on,51,46,0
3,note_on,51,0,80
3,note_on,37,59,0
3,note_on,37,0,49
3,note_on,56,44,0
3,note_on,56,0,80
3,note_on,58,45,0
3,note_on,58,0,80
3,note_on,61,45,0
3,note_on,61,0,80
3,note_on,58,45,0
3,note_on,58,0,80
3,note_on,56,46,0
3,note_on,56,0,80
3,note_on,49,46,0
3,note_on,49,0,41
3,note_on,56,48,0
3,note_on,56,0,80
3,note_on,58,48,0
3,note_on,58,0,80
3,note_on,61,49,0
3,note_on,61,0,80
3,note_on,58,49,0
3,note_on,58,0,80
3,note_on,56,49,0
3,note_on,56,0,80
3,note_on,37,63,0
3,note_on,37,0,80
3,note_on,56,50,0
3,note_on,56,0,80
3,note_on,58,52,0
3,note_on,58,0,80
3,note_on,61,52,0
3,note_on,61,0,80
3,note_on,58,52,0
3,note_on,58,0,80
3,note_on,56,53,0
3,note_on,56,0,80
3,note_on,49,53,0
3,note_on,49,0,80
3,note_on,56,49,0
3,note_on,56,0,80
3,note_on,58,48,0
3,note_on,58,0,80
3,note_on,61,46,0
3,note_on,61,0,80
3,note_on,58,46,0
3,note_on,58,0,80
3,note_on,56,46,0
3,note_on,56,0,80
3,note_on,39,67,0
3,note_on,39,0,49
3,note_on,51,44,0
3,note_on,51,0,80
3,note_on,56,45,0
3,note_on,56,0,80
3,note_on,60,45,0
3,note_on,60,0,80
3,note_on,56,45,0
3,note_on,56,0,80
3,note_on,51,46,0
3,note_on,51,0,80
3,note_on,48,46,0
3,note_on,48,0,38
3,note_on,51,48,0
3,note_on,51,0,80
3,note_on,56,48,0
3,note_on,56,0,80
3,note_on,60,49,0
3,note_on,60,0,80
3,note_on,56,49,0
3,note_on,56,0,80
3,note_on,51,49,0
3,note_on,51,0,80
3,note_on,39,68,0
3,note_on,39,0,80
3,note_on,51,50,0
3,note_on,51,0,80
3,note_on,56,52,0
3,note_on,56,0,80
3,note_on,60,52,0
3,note_on,60,0,80
3,note_on,56,52,0
3,note_on,56,0,80
3,note_on,51,53,0
3,note_on,51,0,80
3,note_on,48,53,0
3,note_on,48,0,80
3,note_on,51,50,0
3,note_on,51,0,80
3,note_on,56,49,0
3,note_on,56,0,80
3,note_on,60,49,0
3,note_on,60,0,80
3,note_on,56,49,0
3,note_on,56,0,80
3,note_on,51,49,0
3,note_on,51,0,80
3,note_on,39,67,0
3,note_on,39,0,49
3,note_on,51,44,0
3,note_on,51,0,80
3,note_on,55,45,0
3,note_on,55,0,80
3,note_on,63,45,0
3,note_on,63,0,80
3,note_on,55,45,0
3,note_on,55,0,80
3,note_on,51,46,0
3,note_on,51,0,80
3,note_on,46,46,0
3,note_on,46,0,38
3,note_on,51,48,0
3,note_on,51,0,80
3,note_on,55,48,0
3,note_on,55,0,80
3,note_on,63,49,0
3,note_on,63,0,80
3,note_on,55,49,0
3,note_on,55,0,80
3,note_on,51,49,0
3,note_on,51,0,80
3,note_on,39,70,0
3,note_on,39,0,40
3,note_on,51,50,0
3,note_on,51,0,80
3,note_on,55,52,0
3,note_on,55,0,80
3,note_on,63,52,0
3,note_on,63,0,80
3,note_on,55,52,0
3,note_on,55,0,80
3,note_on,51,53,0
3,note_on,51,0,80
3,note_on,46,53,0
3,note_on,46,0,37
3,note_on,51,50,0
3,note_on,51,0,80
3,note_on,55,49,0
3,note_on,55,0,80
3,note_on,63,49,0
3,note_on,63,0,80
3,note_on,55,49,0
3,note_on,55,0,80
3,note_on,51,49,0
3,note_on,51,0,80
3,note_on,41,69,0
3,note_on,41,0,89
3,note_on,53,40,0
3,note_on,53,0,120
3,note_on,56,40,0
3,note_on,56,0,120
3,note_on,53,40,0
3,note_on,53,0,120
3,note_on,44,40,0
3,note_on,44,0,78
3,note_on,53,40,0
3,note_on,53,0,120
3,note_on,56,39,0
3,note_on,56,0,80
3,note_on,53,46,0
3,note_on,53,0,80
3,note_on,48,39,0
3,note_on,48,0,80
3,note_on,41,58,0
3,note_on,41,0,63
3,note_on,53,39,0
3,note_on,53,0,120
3,note_on,57,39,0
3,note_on,57,0,120
3,note_on,51,39,0
3,note_on,51,0,120
3,note_on,48,44,0
3,note_on,48,0,120
3,note_on,53,44,0
3,note_on,53,0,120
3,note_on,57,45,0
3,note_on,57,0,80
3,note_on,53,46,0
3,note_on,53,0,80
3,note_on,48,46,0
3,note_on,48,0,80
3,note_on,34,67,0
3,note_on,34,0,49
3,note_on,53,44,0
3,note_on,53,0,80
3,note_on,58,45,0
3,note_on,58,0,80
3,note_on,61,45,0
3,note_on,61,0,80
3,note_on,58,45,0
3,note_on,58,0,80
3,note_on,53,46,0
3,note_on,53,0,80
3,note_on,46,46,0
3,note_on,46,0,41
3,note_on,53,48,0
3,note_on,53,0,80
3,note_on,58,48,0
3,note_on,58,0,80
3,note_on,61,49,0
3,note_on,61,0,80
3,note_on,58,49,0
3,note_on,58,0,80
3,note_on,53,49,0
3,note_on,53,0,80
3,note_on,34,71,0
3,note_on,34,0,37
3,note_on,52,48,0
3,note_on,52,0,80
3,note_on,56,48,0
3,note_on,56,0,80
3,note_on,61,46,0
3,note_on,61,0,80
3,note_on,56,46,0
3,note_on,56,0,80
3,note_on,52,46,0
3,note_on,52,0,80
3,note_on,46,45,0
3,note_on,46,0,80
3,note_on,52,45,0
3,note_on,52,0,80
3,note_on,56,45,0
3,note_on,56,0,80
3,note_on,61,44,0
3,note_on,61,0,80
3,note_on,56,44,0
3,note_on,56,0,80
3,note_on,52,44,0
3,note_on,52,0,80
3,note_on,39,63,0
3,note_on,39,0,38
3,note_on,51,44,0
3,note_on,51,0,80
3,note_on,56,45,0
3,note_on,56,0,80
3,note_on,60,45,0
3,note_on,60,0,80
3,note_on,56,45,0
3,note_on,56,0,80
3,note_on,51,46,0
3,note_on,51,0,80
3,note_on,48,46,0
3,note_on,48,0,23
3,note_on,51,48,0
3,note_on,51,0,80
3,note_on,56,48,0
3,note_on,56,0,80
3,note_on,60,49,0
3,note_on,60,0,80
3,note_on,56,49,0
3,note_on,56,0,80
3,note_on,51,49,0
3,note_on,51,0,80
3,note_on,39,67,0
3,note_on,39,0,80
3,note_on,51,50,0
3,note_on,51,0,80
3,note_on,56,52,0
3,note_on,56,0,80
3,note_on,60,52,0
3,note_on,60,0,80
3,note_on,56,52,0
3,note_on,56,0,80
3,note_on,51,53,0
3,note_on,51,0,80
3,note_on,48,53,0
3,note_on,48,0,80
3,note_on,51,50,0
3,note_on,51,0,80
3,note_on,56,49,0
3,note_on,56,0,80
3,note_on,60,49,0
3,note_on,60,0,80
3,note_on,56,49,0
3,note_on,56,0,80
3,note_on,51,49,0
3,note_on,51,0,80
3,note_on,39,56,0
3,note_on,39,0,74
3,note_on,57,36,0
3,note_on,57,0,120
3,note_on,60,37,0
3,note_on,60,0,120
3,note_on,57,38,0
3,note_on,57,0,120
3,note_on,51,39,0
3,note_on,51,0,120
3,note_on,57,39,0
3,note_on,57,0,120
3,note_on,60,40,0
3,note_on,60,0,80
3,note_on,57,40,0
3,note_on,57,0,80
3,note_on,51,41,0
3,note_on,51,0,80
3,note_on,39,58,0
3,note_on,39,0,60
3,note_on,57,42,0
3,note_on,57,0,120
3,note_on,60,44,0
3,note_on,60,0,120
3,note_on,57,44,0
3,note_on,57,0,120
3,note_on,51,46,0
3,note_on,51,0,32
3,note_on,57,45,24
3,note_on,57,0,96
3,note_on,65,44,24
3,note_on,65,0,80
3,note_on,57,42,0
3,note_on,57,0,80
3,note_on,51,41,0
3,note_on,51,0,80
3,note_on,39,60,0
3,note_on,39,0,80
3,note_on,58,40,0
3,note_on,58,0,120
3,note_on,65,41,0
3,note_on,65,0,120
3,note_on,58,42,0
3,note_on,58,0,120
3,note_on,51,44,0
3,note_on,51,0,120
3,note_on,58,45,0
3,note_on,58,0,120
3,note_on,61,45,0
3,note_on,61,0,80
3,note_on,58,46,0
3,note_on,58,0,80
3,note_on,51,47,0
3,note_on,51,0,4
3,note_on,39,64,0
3,note_on,39,0,85
3,note_on,59,48,0
3,note_on,59,0,120
3,note_on,62,49,0
3,note_on,62,0,120
3,note_on,59,50,0
3,note_on,59,0,120
3,note_on,51,48,0
3,note_on,51,0,120
3,note_on,59,47,0
3,note_on,59,0,120
3,note_on,67,46,0
3,note_on,67,0,80
3,note_on,59,46,0
3,note_on,59,0,80
3,note_on,51,45,0
3,note_on,51,0,80
3,note_on,39,67,0
3,note_on,39,0,80
3,note_on,60,44,0
3,note_on,60,0,120
3,note_on,67,45,0
3,note_on,67,0,120
3,note_on,60,48,0
3,note_on,60,0,120
3,note_on,51,49,0
3,note_on,51,0,120
3,note_on,60,50,0
3,note_on,60,0,120
3,note_on,63,51,0
3,note_on,63,0,80
3,note_on,60,51,0
3,note_on,60,0,80
3,note_on,51,51,0
3,note_on,51,0,80
3,note_on,39,64,0
3,note_on,39,0,85
3,note_on,60,52,0
3,note_on,60,0,120
3,note_on,66,52,0
3,note_on,66,0,120
3,note_on,60,53,0
3,note_on,60,0,120
3,note_on,51,46,0
3,note_on,51,0,80
3,note_on,60,46,0
3,note_on,60,0,80
3,note_on,63,46,0
3,note_on,63,0,80
3,note_on,69,46,0
3,note_on,69,0,80
3,note_on,63,46,0
3,note_on,63,0,80
3,note_on,60,46,0
3,note_on,60,0,80
3,note_on,51,70,0
3,note_on,51,0,49
3,note_on,58,50,0
3,note_on,58,0,80
3,note_on,62,51,0
3,note_on,62,0,80
3,note_on,68,50,0
3,note_on,68,0,80
3,note_on,62,51,0
3,note_on,62,0,80
3,note_on,58,51,0
3,note_on,58,0,80
3,note_on,51,51,0
3,note_on,51,0,80
3,note_on,58,51,0
3,note_on,58,0,80
3,note_on,62,52,0
3,note_on,62,0,80
3,note_on,68,52,0
3,note_on,68,0,80
3,note_on,62,52,0
3,note_on,62,0,80
3,note_on,58,52,0
3,note_on,58,0,80
3,note_on,51,52,0
3,note_on,51,0,37
3,note_on,58,51,0
3,note_on,58,0,80
3,note_on,61,51,0
3,note_on,61,0,80
3,note_on,68,51,0
3,note_on,68,0,80
3,note_on,61,51,0
3,note_on,61,0,80
3,note_on,58,51,0
3,note_on,58,0,80
3,note_on,51,51,0
3,note_on,51,0,23
3,note_on,58,50,0
3,note_on,58,0,80
3,note_on,61,50,0
3,note_on,61,0,80
3,note_on,63,49,0
3,note_on,63,0,80
3,note_on,61,49,0
3,note_on,61,0,80
3,note_on,58,51,0
3,note_on,58,0,80
3,note_on,44,68,0
3,note_on,44,0,48
3,note_on,51,40,0
3,note_on,51,0,80
3,note_on,56,40,0
3,note_on,56,0,80
3,note_on,60,40,0
3,note_on,60,0,80
3,note_on,56,39,0
3,note_on,56,0,80
3,note_on,51,39,0
3,note_on,51,0,80
3,note_on,44,39,0
3,note_on,44,0,16
3,note_on,51,29,0
3,note_on,51,0,80
3,note_on,56,29,0
3,note_on,56,0,80
3,note_on,60,29,0
3,note_on,60,0,80
3,note_on,56,30,0
3,note_on,56,0,80
3,note_on,51,30,0
3,note_on,51,0,80
3,note_on,44,31,0
3,note_on,44,0,80
3,note_on,51,31,0
3,note_on,51,0,80
3,note_on,56,33,0
3,note_on,56,0,80
3,note_on,60,33,0
3,note_on,60,0,80
3,note_on,56,33,0
3,note_on,56,0,80
3,note_on,51,34,0
3,note_on,51,0,80
3,note_on,44,34,0
3,note_on,44,0,80
3,note_on,51,35,0
3,note_on,51,0,80
3,note_on,56,35,0
3,note_on,56,0,80
3,note_on,60,35,0
3,note_on,60,0,80
3,note_on,56,36,0
3,note_on,56,0,80
3,note_on,51,36,0
3,note_on,51,0,80
3,note_on,44,39,0
3,note_on,44,0,49
3,note_on,51,39,0
3,note_on,51,0,80
3,note_on,55,40,0
3,note_on,55,0,80
3,note_on,61,41,0
3,note_on,61,0,80
3,note_on,55,42,0
3,note_on,55,0,80
3,note_on,51,42,0
3,note_on,51,0,80
3,note_on,44,44,0
3,note_on,44,0,41
3,note_on,51,42,0
3,note_on,51,0,80
3,note_on,55,42,0
3,note_on,55,0,80
3,note_on,61,40,0
3,note_on,61,0,80
3,note_on,55,40,0
3,note_on,55,0,80
3,note_on,51,40,0
3,note_on,51,0,80
3,note_on,44,40,0
3,note_on,44,0,80
3,note_on,51,40,0
3,note_on,51,0,80
3,note_on,55,40,0
3,note_on,55,0,80
3,note_on,61,40,0
3,note_on,61,0,80
3,note_on,55,40,0
3,note_on,55,0,80
3,note_on,51,40,0
3,note_on,51,0,80
3,note_on,44,40,0
3,note_on,44,0,80
3,note_on,51,40,0
3,note_on,51,0,80
3,note_on,55,40,0
3,note_on,55,0,80
3,note_on,61,41,0
3,note_on,61,0,80
3,note_on,55,41,0
3,note_on,55,0,80
3,note_on,51,41,0
3,note_on,51,0,80
3,note_on,44,49,0
3,note_on,44,0,45
3,note_on,51,36,0
3,note_on,51,0,80
3,note_on,56,36,0
3,note_on,56,0,80
3,note_on,60,36,0
3,note_on,60,0,80
3,note_on,56,36,0
3,note_on,56,0,80
3,note_on,51,36,0
3,note_on,51,0,80
3,note_on,44,36,0
3,note_on,44,0,30
3,note_on,51,29,0
3,note_on,51,0,80
3,note_on,56,29,0
3,note_on,56,0,80
3,note_on,60,29,0
3,note_on,60,0,80
3,note_on,56,30,0
3,note_on,56,0,80
3,note_on,51,30,0
3,note_on,51,0,80
3,note_on,44,31,0
3,note_on,44,0,80
3,note_on,51,31,0
3,note_on,51,0,80
3,note_on,56,33,0
3,note_on,56,0,80
3,note_on,60,33,0
3,note_on,60,0,80
3,note_on,56,33,0
3,note_on,56,0,80
3,note_on,51,34,0
3,note_on,51,0,80
3,note_on,44,34,0
3,note_on,44,0,80
3,note_on,51,35,0
3,note_on,51,0,80
3,note_on,56,35,0
3,note_on,56,0,80
3,note_on,60,35,0
3,note_on,60,0,80
3,note_on,56,36,0
3,note_on,56,0,80
3,note_on,51,36,0
3,note_on,51,0,80
3,note_on,44,39,0
3,note_on,44,0,49
3,note_on,51,38,0
3,note_on,51,0,80
3,note_on,55,38,0
3,note_on,55,0,80
3,note_on,61,37,0
3,note_on,61,0,80
3,note_on,55,37,0
3,note_on,55,0,80
3,note_on,51,36,0
3,note_on,51,0,80
3,note_on,44,36,0
3,note_on,44,0,41
3,note_on,51,36,0
3,note_on,51,0,80
3,note_on,55,35,0
3,note_on,55,0,80
3,note_on,61,35,0
3,note_on,61,0,80
3,note_on,55,34,0
3,note_on,55,0,80
3,note_on,51,34,0
3,note_on,51,0,80
3,note_on,44,26,0
3,note_on,44,0,80
3,note_on,51,26,0
3,note_on,51,0,80
3,note_on,55,26,0
3,note_on,55,0,80
3,note_on,61,27,0
3,note_on,61,0,80
3,note_on,55,27,0
3,note_on,55,0,80
3,note_on,51,28,0
3,note_on,51,0,80
3,note_on,44,28,0
3,note_on,44,0,80
3,note_on,51,27,0
3,note_on,51,0,80
3,note_on,55,27,0
3,note_on,55,0,80
3,note_on,61,27,0
3,note_on,61,0,80
3,note_on,55,28,0
3,note_on,55,0,80
3,note_on,51,30,0
3,note_on,51,0,80
3,note_on,44,37,0
3,note_on,44,0,27
3,note_on,51,29,0
3,note_on,51,0,80
3,note_on,56,29,0
3,note_on,56,0,80
3,note_on,60,29,0
3,note_on,60,0,80
3,note_on,56,29,0
3,note_on,56,0,80
3,note_on,51,29,0
3,note_on,51,0,80
3,note_on,44,29,0
3,note_on,44,0,80
3,note_on,51,29,0
3,note_on,51,0,80
3,note_on,56,29,0
3,note_on,56,0,80
3,note_on,60,29,0
3,note_on,60,0,80
3,note_on,56,29,0
3,note_on,56,0,80
3,note_on,51,29,0
3,note_on,51,0,80
3,note_on,44,28,0
3,note_on,44,0,80
3,note_on,51,28,0
3,note_on,51,0,80
3,note_on,56,28,0
3,note_on,56,0,80
3,note_on,60,28,0
3,note_on,60,0,80
3,note_on,56,28,0
3,note_on,56,0,80
3,note_on,51,28,0
3,note_on,51,0,80
3,note_on,44,28,0
3,note_on,44,0,6
3,note_on,51,28,0
3,note_on,51,0,80
3,note_on,56,28,0
3,note_on,56,0,80
3,note_on,60,28,0
3,note_on,60,0,80
3,note_on,56,28,0
3,note_on,56,0,80
3,note_on,51,27,0
3,note_on,51,0,80
3,note_on,39,37,0
3,note_on,39,0,38
3,note_on,44,29,0
3,note_on,44,0,80
3,note_on,51,29,0
3,note_on,51,0,80
3,note_on,56,29,0
3,note_on,56,0,80
3,note_on,51,29,0
3,note_on,51,0,80
3,note_on,44,29,0
3,note_on,44,0,80
3,note_on,39,29,0
3,note_on,39,0,16
3,note_on,44,28,0
3,note_on,44,0,80
3,note_on,51,28,0
3,note_on,51,0,80
3,note_on,56,28,0
3,note_on,56,0,80
3,note_on,51,28,0
3,note_on,51,0,80
3,note_on,44,28,0
3,note_on,44,0,80
3,note_on,39,28,0
3,note_on,39,0,64
3,note_on,44,27,0
3,note_on,44,0,72
3,note_on,51,27,0
3,note_on,51,0,80
3,note_on,56,26,0
3,note_on,56,0,80
3,note_on,51,26,0
3,note_on,51,0,80
3,note_on,44,26,0
3,note_on,44,0,80
3,note_on,39,25,0
3,note_on,39,0,23
3,note_on,44,25,0
3,note_on,44,0,80
3,note_on,51,25,0
3,note_on,51,0,80
3,note_on,56,25,0
3,note_on,56,0,80
3,note_on,51,25,0
3,note_on,51,0,80
3,note_on,44,25,0
3,note_on,44,0,80
3,note_on,32,39,0
3,note_on,32,0,48
3,note_on,39,27,0
3,note_on,39,0,80
3,note_on,44,27,0
3,note_on,44,0,80
3,note_on,51,27,0
3,note_on,51,0,80
3,note_on,44,27,0
3,note_on,44,0,80
3,note_on,39,28,0
3,note_on,39,0,80
3,note_on,32,28,0
3,note_on,32,0,80
3,note_on,39,27,0
3,note_on,39,0,80
3,note_on,44,27,0
3,note_on,44,0,80
3,note_on,51,27,0
3,note_on,51,0,80
3,note_on,44,27,0
3,note_on,44,0,80
3,note_on,39,27,0
3,note_on,39,0,80
3,note_on,32,26,0
3,note_on,32,0,80
3,note_on,39,26,0
3,note_on,39,0,80
3,note_on,44,26,0
3,note_on,44,0,80
3,note_on,51,26,0
3,note_on,51,0,80
3,note_on,44,26,0
3,note_on,44,0,80
3,note_on,39,26,0
3,note_on,39,0,80
3,note_on,32,25,0
3,note_on,32,0,80
3,note_on,39,25,0
3,note_on,39,0,80
3,note_on,44,24,0
3,note_on,44,0,80
3,note_on,51,24,0
3,note_on,51,0,80
3,note_on,44,24,0
3,note_on,44,0,80
3,note_on,39,24,0
3,note_on,39,0,80
3,note_on,32,34,0
3,note_on,32,0,80
3,note_on,39,26,0
3,note_on,39,0,80
3,note_on,44,26,0
3,note_on,44,0,80
3,note_on,51,26,0
3,note_on,51,0,80
3,note_on,44,26,0
3,note_on,44,0,80
3,note_on,39,26,0
3,note_on,39,0,80
3,note_on,32,26,0
3,note_on,32,0,80
3,note_on,39,26,0
3,note_on,39,0,80
3,note_on,44,26,0
3,note_on,44,0,80
3,note_on,51,26,0
3,note_on,51,0,80
3,note_on,44,25,0
3,note_on,44,0,80
3,note_on,39,25,0
3,note_on,39,0,80
3,note_on,32,25,0
3,note_on,32,0,80
3,note_on,39,25,0
3,note_on,39,0,80
3,note_on,44,25,0
3,note_on,44,0,80
3,note_on,51,25,0
3,note_on,51,0,80
3,note_on,44,25,0
3,note_on,44,0,80
3,note_on,39,24,0
3,note_on,39,0,80
3,note_on,32,23,0
3,note_on,32,0,80
3,note_on,39,23,0
3,note_on,39,0,80
3,note_on,44,23,0
3,note_on,44,0,80
3,note_on,51,23,0
3,note_on,51,0,80
3,note_on,44,23,0
3,note_on,44,0,80
3,note_on,39,23,0
3,note_on,39,0,80
3,note_on,32,35,0
3,note_on,32,0,41
3,note_on,39,23,0
3,note_on,39,0,80
3,note_on,44,24,0
3,note_on,44,0,80
3,note_on,48,24,0
3,note_on,48,0,80
3,note_on,51,25,0
3,note_on,51,0,80
3,note_on,56,26,0
3,note_on,56,0,80
3,note_on,60,26,0
3,note_on,60,0,80
3,note_on,63,27,0
3,note_on,63,0,80
3,note_on,68,28,0
3,note_on,68,0,80
3,note_on,72,28,0
3,note_on,72,0,80
3,note_on,75,29,0
3,note_on,75,0,80
3,note_on,80,29,0
3,note_on,80,0,80
3,note_on,84,35,0
3,note_on,84,0,80
3,note_on,80,29,0
3,note_on,80,0,80
3,note_on,75,28,0
3,note_on,75,0,80
3,note_on,72,28,0
3,note_on,72,0,80
3,note_on,68,27,0
3,note_on,68,0,80
3,note_on,63,26,0
3,note_on,63,0,80
3,note_on,56,30,0
3,note_on,56,0,80
3,note_on,63,25,0
3,note_on,63,0,80
3,note_on,68,26,0
3,note_on,68,0,80
3,note_on,72,27,0
3,note_on,72,0,80
3,note_on,75,28,0
3,note_on,75,0,80
3,note_on,80,29,0
3,note_on,80,0,80
3,note_on,84,36,0
3,note_on,84,0,80
3,note_on,80,28,0
3,note_on,80,0,80
3,note_on,75,27,0
3,note_on,75,0,80
3,note_on,72,26,0
3,note_on,72,0,80
3,note_on,68,25,0
3,note_on,68,0,80
3,note_on,63,24,0
3,note_on,63,0,80
3,note_on,56,29,0
3,note_on,56,0,80
3,note_on,63,24,0
3,note_on,63,0,80
3,note_on,68,25,0
3,note_on,68,0,80
3,note_on,72,27,0
3,note_on,72,0,80
3,note_on,75,28,0
3,note_on,75,0,80
3,note_on,80,30,0
3,note_on,80,0,80
3,note_on,84,37,0
3,note_on,84,0,80
3,note_on,80,31,0
3,note_on,80,0,80
3,note_on,75,30,0
3,note_on,75,0,80
3,note_on,72,29,0
3,note_on,72,0,80
3,note_on,68,28,0
3,note_on,68,0,80
3,note_on,63,27,0
3,note_on,63,0,80
3,note_on,56,30,0
3,note_on,56,0,80
3,note_on,63,26,0
3,note_on,63,0,80
3,note_on,68,27,0
3,note_on,68,0,80
3,note_on,72,28,0
3,note_on,72,0,80
3,note_on,75,29,0
3,note_on,75,0,80
3,note_on,80,30,0
3,note_on,80,0,80
3,note_on,84,31,0
3,note_on,84,0,80
3,note_on,80,31,0
3,note_on,80,0,80
3,note_on,75,30,0
3,note_on,75,0,80
3,note_on,72,29,0
3,note_on,72,0,80
3,note_on,68,28,0
3,note_on,68,0,80
3,note_on,63,28,0
3,note_on,63,0,80
3,note_on,56,35,0
3,note_on,56,0,80
3,note_on,63,28,0
3,note_on,63,0,80
3,note_on,68,30,0
3,note_on,68,0,80
3,note_on,75,34,0
3,note_on,75,0,80
3,note_on,68,31,0
3,note_on,68,0,80
3,note_on,63,29,0
3,note_on,63,0,80
3,note_on,56,30,0
3,note_on,56,0,80
3,note_on,63,33,0
3,note_on,63,0,80
3,note_on,68,36,0
3,note_on,68,0,80
3,note_on,75,38,0
3,note_on,75,0,80
3,note_on,68,36,0
3,note_on,68,0,80
3,note_on,63,35,0
3,note_on,63,0,80
3,note_on,56,34,0
3,note_on,56,0,80
3,note_on,63,37,0
3,note_on,63,0,80
3,note_on,68,38,0
3,note_on,68,0,80
3,note_on,75,41,0
3,note_on,75,0,80
3,note_on,68,40,0
3,note_on,68,0,80
3,note_on,63,38,0
3,note_on,63,0,80
3,note_on,56,33,0
3,note_on,56,0,80
3,note_on,63,35,0
3,note_on,63,0,80
3,note_on,68,37,0
3,note_on,68,0,80
3,note_on,75,39,0
3,note_on,75,0,80
3,note_on,68,36,0
3,note_on,68,0,80
3,note_on,63,33,0
3,note_on,63,0,80
3,note_on,56,31,0
3,note_on,56,0,80
3,note_on,63,34,0
3,note_on,63,0,80
3,note_on,68,36,0
3,note_on,68,0,80
3,note_on,75,37,0
3,note_on,75,0,80
3,note_on,68,34,0
3,note_on,68,0,80
3,note_on,63,31,0
3,note_on,63,0,80
3,note_on,56,29,0
3,note_on,56,0,80
3,note_on,63,31,0
3,note_on,63,0,80
3,note_on,68,31,0
3,note_on,68,0,80
3,note_on,75,33,0
3,note_on,75,0,80
3,note_on,68,31,0
3,note_on,68,0,80
3,note_on,63,28,0
3,note_on,63,0,80
3,note_on,56,26,0
3,note_on,56,0,80
3,note_on,63,28,0
3,note_on,63,0,80
3,note_on,68,29,0
3,note_on,68,0,80
3,note_on,75,30,0
3,note_on,75,0,80
3,note_on,68,29,0
3,note_on,68,0,80
3,note_on,63,28,0
3,note_on,63,0,80
3,note_on,56,34,0
3,note_on,56,0,240
3,note_on,60,33,240
3,note_on,51,33,0
3,note_on,44,33,0
3,note_on,44,0,240
3,note_on,51,0,0
3,note_on,60,0,0
3,note_on,38,26,431
3,note_on,38,0,120
3,note_on,39,31,0
3,note_on,39,0,90
3,note_on,39,33,30
3,note_on,39,0,24
3,note_on,41,27,0
3,note_on,41,0,40
3,note_on,39,33,0
3,note_on,39,0,40
3,note_on,41,27,0
3,note_on,41,0,40
3,note_on,39,33,0
3,note_on,39,0,40
3,note_on,41,27,0
3,note_on,41,0,40
3,note_on,39,30,0
3,note_on,39,0,40
3,note_on,41,24,0
3,note_on,41,0,40
3,note_on,39,30,0
3,note_on,39,0,40
3,note_on,41,26,0
3,note_on,41,0,40
3,note_on,39,30,0
3,note_on,39,0,40
3,note_on,41,26,0
3,note_on,41,0,40
3,note_on,32,28,0
3,note_on,44,31,63
3,note_on,51,35,120
3,note_on,51,0,1680
3,note_on,44,0,0
3,note_on,32,0,0
