Track,Message Type,Note,Velocity,Time
1,note_on,73,53,60
1,note_on,73,0,60
1,note_on,68,61,0
1,note_on,68,0,60
1,note_on,71,51,0
1,note_on,71,0,60
1,note_on,69,55,0
1,note_on,69,0,60
1,note_on,66,46,0
1,note_on,66,0,60
1,note_on,74,48,60
1,note_on,74,0,60
1,note_on,73,50,60
1,note_on,73,0,60
1,note_on,68,63,0
1,note_on,68,0,60
1,note_on,71,53,0
1,note_on,71,0,60
1,note_on,69,57,0
1,note_on,69,0,60
1,note_on,68,44,0
1,note_on,68,0,60
1,note_on,78,53,60
1,note_on,78,0,60
1,note_on,78,53,60
1,note_on,78,0,60
1,note_on,70,64,0
1,note_on,70,0,60
1,note_on,73,52,0
1,note_on,73,0,60
1,note_on,71,58,0
1,note_on,71,0,60
1,note_on,68,46,0
1,note_on,68,0,60
1,note_on,77,50,60
1,note_on,77,0,60
1,note_on,81,45,60
1,note_on,81,0,60
1,note_on,72,60,0
1,note_on,72,0,60
1,note_on,74,45,0
1,note_on,74,0,60
1,note_on,73,52,0
1,note_on,73,0,60
1,note_on,71,44,0
1,note_on,71,0,60
1,note_on,80,48,60
1,note_on,80,0,60
1,note_on,73,56,60
1,note_on,73,0,60
1,note_on,68,65,0
1,note_on,68,0,60
1,note_on,71,44,0
1,note_on,71,0,60
1,note_on,69,56,0
1,note_on,69,0,60
1,note_on,66,45,0
1,note_on,66,0,60
1,note_on,74,48,60
1,note_on,74,0,60
1,note_on,73,53,60
1,note_on,73,0,60
1,note_on,68,65,0
1,note_on,68,0,60
1,note_on,71,52,0
1,note_on,71,0,60
1,note_on,69,59,0
1,note_on,69,0,60
1,note_on,68,52,0
1,note_on,68,0,60
1,note_on,78,52,60
1,note_on,78,0,60
1,note_on,78,60,60
1,note_on,78,0,60
1,note_on,70,69,0
1,note_on,70,0,60
1,note_on,73,48,0
1,note_on,73,0,60
1,note_on,71,62,0
1,note_on,71,0,60
1,note_on,68,46,0
1,note_on,68,0,60
1,note_on,77,55,60
1,note_on,77,0,60
1,note_on,81,55,60
1,note_on,81,0,60
1,note_on,72,65,0
1,note_on,72,0,60
1,note_on,74,53,0
1,note_on,74,0,60
1,note_on,73,60,0
1,note_on,73,0,60
1,note_on,71,46,0
1,note_on,71,0,60
1,note_on,80,52,60
1,note_on,80,0,60
1,note_on,85,55,60
1,note_on,85,0,60
1,note_on,80,63,0
1,note_on,80,0,60
1,note_on,83,53,0
1,note_on,83,0,60
1,note_on,81,62,0
1,note_on,81,0,60
1,note_on,78,53,0
1,note_on,78,0,60
1,note_on,87,57,60
1,note_on,87,0,60
1,note_on,85,51,60
1,note_on,85,0,60
1,note_on,77,60,0
1,note_on,77,0,60
1,note_on,80,52,0
1,note_on,80,0,60
1,note_on,78,59,0
1,note_on,78,0,60
1,note_on,74,48,0
1,note_on,74,0,60
1,note_on,84,55,60
1,note_on,84,0,60
1,note_on,83,46,60
1,note_on,83,0,60
1,note_on,78,60,0
1,note_on,78,0,60
1,note_on,81,47,0
1,note_on,81,0,60
1,note_on,79,56,0
1,note_on,79,0,60
1,note_on,76,47,0
1,note_on,76,0,60
1,note_on,85,55,60
1,note_on,85,0,60
1,note_on,83,45,60
1,note_on,83,0,60
1,note_on,75,51,0
1,note_on,75,0,60
1,note_on,78,45,0
1,note_on,78,0,60
1,note_on,76,52,0
1,note_on,76,0,60
1,note_on,73,47,0
1,note_on,73,0,60
1,note_on,82,50,60
1,note_on,82,0,60
1,note_on,81,51,60
1,note_on,81,0,60
1,note_on,74,60,0
1,note_on,74,0,60
1,note_on,77,44,0
1,note_on,77,0,60
1,note_on,75,51,0
1,note_on,75,0,60
1,note_on,72,44,0
1,note_on,72,0,60
1,note_on,83,48,60
1,note_on,83,0,60
1,note_on,81,45,60
1,note_on,81,0,60
1,note_on,73,50,0
1,note_on,73,0,60
1,note_on,76,42,0
1,note_on,76,0,60
1,note_on,74,48,0
1,note_on,74,0,60
1,note_on,71,42,0
1,note_on,71,0,60
1,note_on,80,47,60
1,note_on,80,0,60
1,note_on,78,42,60
1,note_on,78,0,60
1,note_on,70,48,0
1,note_on,70,0,60
1,note_on,73,42,0
1,note_on,73,0,60
1,note_on,71,47,0
1,note_on,71,0,60
1,note_on,68,38,0
1,note_on,68,0,60
1,note_on,77,45,60
1,note_on,77,0,60
1,note_on,74,37,60
1,note_on,74,0,60
1,note_on,67,47,0
1,note_on,67,0,60
1,note_on,69,37,0
1,note_on,69,0,60
1,note_on,68,46,0
1,note_on,68,0,60
1,note_on,65,36,0
1,note_on,65,0,60
1,note_on,73,42,60
1,note_on,73,0,60
1,note_on,73,54,60
1,note_on,73,0,60
1,note_on,68,62,0
1,note_on,68,0,60
1,note_on,71,46,0
1,note_on,71,0,60
1,note_on,69,53,0
1,note_on,69,0,60
1,note_on,66,37,0
1,note_on,66,0,60
1,note_on,74,40,60
1,note_on,74,0,60
1,note_on,73,46,60
1,note_on,73,0,60
1,note_on,68,57,0
1,note_on,68,0,60
1,note_on,71,38,0
1,note_on,71,0,60
1,note_on,69,47,0
1,note_on,69,0,60
1,note_on,68,38,0
1,note_on,68,0,60
1,note_on,78,46,60
1,note_on,78,0,60
1,note_on,78,55,60
1,note_on,78,0,60
1,note_on,70,64,0
1,note_on,70,0,60
1,note_on,73,44,0
1,note_on,73,0,60
1,note_on,71,51,0
1,note_on,71,0,60
1,note_on,68,42,0
1,note_on,68,0,60
1,note_on,77,48,60
1,note_on,77,0,60
1,note_on,81,49,60
1,note_on,81,0,60
1,note_on,72,56,0
1,note_on,72,0,60
1,note_on,74,44,0
1,note_on,74,0,60
1,note_on,73,48,0
1,note_on,73,0,60
1,note_on,71,38,0
1,note_on,71,0,60
1,note_on,80,45,60
1,note_on,80,0,60
1,note_on,73,52,60
1,note_on,73,0,60
1,note_on,68,59,0
1,note_on,68,0,60
1,note_on,71,37,0
1,note_on,71,0,60
1,note_on,69,53,0
1,note_on,69,0,60
1,note_on,66,40,0
1,note_on,66,0,60
1,note_on,74,45,60
1,note_on,74,0,60
1,note_on,73,42,60
1,note_on,73,0,60
1,note_on,68,48,0
1,note_on,68,0,60
1,note_on,71,42,0
1,note_on,71,0,60
1,note_on,69,48,0
1,note_on,69,0,60
1,note_on,68,42,0
1,note_on,68,0,60
1,note_on,81,48,60
1,note_on,81,0,60
1,note_on,81,50,60
1,note_on,81,0,60
1,note_on,73,59,0
1,note_on,73,0,60
1,note_on,76,46,0
1,note_on,76,0,60
1,note_on,74,51,0
1,note_on,74,0,60
1,note_on,71,42,0
1,note_on,71,0,60
1,note_on,80,48,60
1,note_on,80,0,60
1,note_on,85,46,60
1,note_on,85,0,60
1,note_on,75,55,0
1,note_on,75,0,60
1,note_on,78,47,0
1,note_on,78,0,60
1,note_on,76,55,0
1,note_on,76,0,60
1,note_on,74,47,0
1,note_on,74,0,60
1,note_on,83,51,60
1,note_on,83,0,60
1,note_on,88,56,60
1,note_on,88,0,60
1,note_on,83,62,0
1,note_on,83,0,60
1,note_on,86,47,0
1,note_on,86,0,60
1,note_on,84,55,0
1,note_on,84,0,60
1,note_on,81,47,0
1,note_on,81,0,60
1,note_on,90,51,60
1,note_on,90,0,60
1,note_on,88,51,60
1,note_on,88,0,60
1,note_on,80,57,0
1,note_on,80,0,60
1,note_on,83,44,0
1,note_on,83,0,60
1,note_on,81,52,0
1,note_on,81,0,60
1,note_on,78,46,0
1,note_on,78,0,60
1,note_on,87,50,60
1,note_on,87,0,60
1,note_on,86,44,60
1,note_on,86,0,60
1,note_on,79,53,0
1,note_on,79,0,60
1,note_on,82,48,0
1,note_on,82,0,60
1,note_on,80,50,0
1,note_on,80,0,60
1,note_on,77,47,0
1,note_on,77,0,60
1,note_on,88,47,60
1,note_on,88,0,60
1,note_on,86,42,60
1,note_on,86,0,60
1,note_on,78,47,0
1,note_on,78,0,60
1,note_on,81,42,0
1,note_on,81,0,60
1,note_on,79,47,0
1,note_on,79,0,60
1,note_on,76,40,0
1,note_on,76,0,60
1,note_on,85,45,60
1,note_on,85,0,60
1,note_on,84,44,60
1,note_on,84,0,60
1,note_on,77,52,0
1,note_on,77,0,60
1,note_on,80,42,0
1,note_on,80,0,60
1,note_on,78,48,0
1,note_on,78,0,60
1,note_on,75,40,0
1,note_on,75,0,60
1,note_on,86,40,60
1,note_on,86,0,60
1,note_on,84,42,60
1,note_on,84,0,60
1,note_on,76,47,0
1,note_on,76,0,60
1,note_on,79,40,0
1,note_on,79,0,60
1,note_on,77,47,0
1,note_on,77,0,60
1,note_on,74,40,0
1,note_on,74,0,60
1,note_on,83,40,60
1,note_on,83,0,60
1,note_on,83,37,60
1,note_on,83,0,60
1,note_on,75,46,0
1,note_on,75,0,60
1,note_on,78,36,0
1,note_on,78,0,60
1,note_on,76,45,0
1,note_on,76,0,60
1,note_on,73,37,0
1,note_on,73,0,60
1,note_on,82,42,60
1,note_on,82,0,60
1,note_on,82,37,60
1,note_on,82,0,60
1,note_on,75,44,0
1,note_on,75,0,60
1,note_on,78,37,0
1,note_on,78,0,60
1,note_on,76,44,0
1,note_on,76,0,60
1,note_on,73,37,0
1,note_on,73,0,60
1,note_on,82,42,60
1,note_on,82,0,60
1,note_on,83,54,60
1,note_on,83,0,60
1,note_on,76,59,0
1,note_on,76,0,60
1,note_on,79,38,0
1,note_on,79,0,60
1,note_on,77,54,0
1,note_on,77,0,60
1,note_on,74,44,0
1,note_on,74,0,60
1,note_on,81,44,60
1,note_on,81,0,60
1,note_on,81,46,60
1,note_on,81,0,60
1,note_on,73,56,0
1,note_on,73,0,60
1,note_on,76,37,0
1,note_on,76,0,60
1,note_on,74,50,0
1,note_on,74,0,60
1,note_on,71,44,0
1,note_on,71,0,60
1,note_on,80,44,60
1,note_on,80,0,60
1,note_on,80,38,60
1,note_on,80,0,60
1,note_on,73,50,0
1,note_on,73,0,60
1,note_on,75,38,0
1,note_on,75,0,60
1,note_on,74,45,0
1,note_on,74,0,60
1,note_on,71,40,0
1,note_on,71,0,60
1,note_on,79,46,60
1,note_on,79,0,60
1,note_on,79,42,60
1,note_on,79,0,60
1,note_on,74,46,0
1,note_on,74,0,60
1,note_on,76,42,0
1,note_on,76,0,60
1,note_on,75,47,0
1,note_on,75,0,60
1,note_on,74,46,0
1,note_on,74,0,60
1,note_on,84,46,60
1,note_on,84,0,60
1,note_on,84,53,60
1,note_on,84,0,60
1,note_on,78,61,0
1,note_on,78,0,60
1,note_on,80,42,0
1,note_on,80,0,60
1,note_on,79,48,0
1,note_on,79,0,60
1,note_on,75,44,0
1,note_on,75,0,60
1,note_on,83,48,60
1,note_on,83,0,60
1,note_on,83,51,60
1,note_on,83,0,60
1,note_on,75,62,0
1,note_on,75,0,60
1,note_on,78,45,0
1,note_on,78,0,60
1,note_on,76,52,0
1,note_on,76,0,60
1,note_on,73,45,0
1,note_on,73,0,60
1,note_on,82,50,60
1,note_on,82,0,60
1,note_on,82,46,60
1,note_on,82,0,60
1,note_on,75,55,0
1,note_on,75,0,60
1,note_on,77,48,0
1,note_on,77,0,60
1,note_on,76,55,0
1,note_on,76,0,60
1,note_on,73,47,0
1,note_on,73,0,60
1,note_on,81,51,60
1,note_on,81,0,60
1,note_on,81,47,60
1,note_on,81,0,60
1,note_on,76,59,0
1,note_on,76,0,60
1,note_on,79,50,0
1,note_on,79,0,60
1,note_on,77,56,0
1,note_on,77,0,60
1,note_on,76,48,0
1,note_on,76,0,60
1,note_on,86,52,60
1,note_on,86,0,60
1,note_on,86,58,60
1,note_on,86,0,60
1,note_on,76,68,0
1,note_on,76,0,60
1,note_on,79,47,0
1,note_on,79,0,60
1,note_on,77,56,0
1,note_on,77,0,60
1,note_on,75,47,0
1,note_on,75,0,60
1,note_on,84,55,60
1,note_on,84,0,60
1,note_on,84,55,60
1,note_on,84,0,60
1,note_on,76,66,0
1,note_on,76,0,60
1,note_on,79,50,0
1,note_on,79,0,60
1,note_on,77,56,0
1,note_on,77,0,60
1,note_on,74,47,0
1,note_on,74,0,60
1,note_on,82,55,60
1,note_on,82,0,60
1,note_on,82,50,60
1,note_on,82,0,60
1,note_on,73,60,0
1,note_on,73,0,60
1,note_on,75,48,0
1,note_on,75,0,60
1,note_on,74,57,0
1,note_on,74,0,60
1,note_on,72,46,0
1,note_on,72,0,60
1,note_on,81,55,60
1,note_on,81,0,60
1,note_on,81,50,60
1,note_on,81,0,60
1,note_on,73,59,0
1,note_on,73,0,60
1,note_on,75,50,0
1,note_on,75,0,60
1,note_on,74,60,0
1,note_on,74,0,60
1,note_on,71,50,0
1,note_on,71,0,60
1,note_on,79,57,60
1,note_on,79,0,60
1,note_on,79,51,60
1,note_on,79,0,60
1,note_on,69,68,0
1,note_on,69,0,60
1,note_on,72,51,0
1,note_on,72,0,60
1,note_on,70,60,0
1,note_on,70,0,60
1,note_on,68,51,0
1,note_on,68,0,60
1,note_on,77,59,60
1,note_on,77,0,60
1,note_on,76,50,60
1,note_on,76,0,60
1,note_on,69,67,0
1,note_on,69,0,60
1,note_on,72,52,0
1,note_on,72,0,60
1,note_on,70,61,0
1,note_on,70,0,60
1,note_on,68,52,0
1,note_on,68,0,60
1,note_on,77,60,60
1,note_on,77,0,60
1,note_on,77,55,60
1,note_on,77,0,60
1,note_on,69,62,0
1,note_on,69,0,60
1,note_on,71,52,0
1,note_on,71,0,60
1,note_on,70,63,0
1,note_on,70,0,60
1,note_on,68,52,0
1,note_on,68,0,60
1,note_on,77,61,60
1,note_on,77,0,60
1,note_on,78,56,60
1,note_on,78,0,60
1,note_on,74,64,0
1,note_on,74,0,60
1,note_on,77,57,0
1,note_on,77,0,60
1,note_on,75,64,0
1,note_on,75,0,60
1,note_on,70,55,0
1,note_on,70,0,60
1,note_on,78,62,60
1,note_on,78,0,60
1,note_on,78,62,60
1,note_on,78,0,60
1,note_on,67,79,0
1,note_on,67,0,60
1,note_on,70,66,0
1,note_on,70,0,60
1,note_on,68,73,0
1,note_on,68,0,60
1,note_on,66,71,0
1,note_on,66,0,60
1,note_on,76,64,60
1,note_on,76,0,60
1,note_on,76,59,60
1,note_on,76,0,60
1,note_on,67,66,0
1,note_on,67,0,60
1,note_on,70,61,0
1,note_on,70,0,60
1,note_on,68,70,0
1,note_on,68,0,60
1,note_on,64,62,0
1,note_on,64,0,60
1,note_on,68,64,60
1,note_on,68,0,60
1,note_on,71,61,60
1,note_on,71,0,60
1,note_on,65,66,0
1,note_on,65,0,60
1,note_on,68,63,0
1,note_on,68,0,60
1,note_on,66,71,0
1,note_on,66,0,60
1,note_on,63,62,0
1,note_on,63,0,60
1,note_on,71,66,60
1,note_on,71,0,60
1,note_on,70,62,60
1,note_on,70,0,60
1,note_on,65,69,0
1,note_on,65,0,60
1,note_on,68,61,0
1,note_on,68,0,60
1,note_on,66,71,0
1,note_on,66,0,60
1,note_on,63,63,0
1,note_on,63,0,60
1,note_on,71,69,60
1,note_on,71,0,60
1,note_on,72,66,60
1,note_on,72,0,60
1,note_on,65,73,0
1,note_on,65,0,60
1,note_on,68,70,0
1,note_on,68,0,60
1,note_on,66,78,0
1,note_on,66,0,60
1,note_on,64,77,0
1,note_on,64,0,60
1,note_on,72,70,60
1,note_on,72,0,60
1,note_on,73,64,60
1,note_on,73,0,60
1,note_on,65,73,0
1,note_on,65,0,60
1,note_on,68,64,0
1,note_on,68,0,60
1,note_on,66,72,0
1,note_on,66,0,60
1,note_on,64,63,0
1,note_on,64,0,60
1,note_on,74,71,60
1,note_on,74,0,60
1,note_on,74,69,60
1,note_on,74,0,60
1,note_on,65,77,0
1,note_on,65,0,60
1,note_on,68,71,0
1,note_on,68,0,60
1,note_on,66,77,0
1,note_on,66,0,60
1,note_on,64,69,0
1,note_on,64,0,60
1,note_on,74,72,60
1,note_on,74,0,60
1,note_on,75,69,60
1,note_on,75,0,60
1,note_on,70,77,0
1,note_on,70,0,60
1,note_on,73,71,0
1,note_on,73,0,60
1,note_on,71,77,0
1,note_on,71,0,60
1,note_on,66,72,0
1,note_on,66,0,60
1,note_on,75,73,60
1,note_on,75,0,60
1,note_on,75,66,60
1,note_on,75,0,60
1,note_on,68,73,0
1,note_on,68,0,60
1,note_on,73,70,0
1,note_on,73,0,60
1,note_on,71,77,0
1,note_on,71,0,60
1,note_on,68,66,0
1,note_on,68,0,60
1,note_on,75,70,60
1,note_on,75,0,60
1,note_on,74,66,60
1,note_on,74,0,60
1,note_on,68,75,0
1,note_on,68,0,60
1,note_on,73,71,0
1,note_on,73,0,60
1,note_on,71,77,0
1,note_on,71,0,60
1,note_on,68,71,0
1,note_on,68,0,60
1,note_on,75,72,60
1,note_on,75,0,60
1,note_on,77,72,60
1,note_on,77,0,60
1,note_on,70,80,0
1,note_on,70,0,60
1,note_on,75,70,0
1,note_on,75,0,60
1,note_on,74,77,0
1,note_on,74,0,60
1,note_on,70,71,0
1,note_on,70,0,60
1,note_on,77,75,60
1,note_on,77,0,60
1,note_on,78,69,60
1,note_on,78,0,60
1,note_on,70,73,0
1,note_on,70,0,60
1,note_on,75,66,0
1,note_on,75,0,60
1,note_on,74,72,0
1,note_on,74,0,60
1,note_on,70,66,0
1,note_on,70,0,60
1,note_on,77,71,60
1,note_on,77,0,60
1,note_on,75,71,60
1,note_on,75,0,60
1,note_on,68,80,0
1,note_on,68,0,60
1,note_on,73,64,0
1,note_on,73,0,60
1,note_on,71,71,0
1,note_on,71,0,60
1,note_on,68,63,0
1,note_on,68,0,60
1,note_on,75,70,60
1,note_on,75,0,60
1,note_on,74,64,60
1,note_on,74,0,60
1,note_on,68,71,0
1,note_on,68,0,60
1,note_on,73,63,0
1,note_on,73,0,60
1,note_on,71,71,0
1,note_on,71,0,60
1,note_on,68,66,0
1,note_on,68,0,60
1,note_on,75,71,60
1,note_on,75,0,60
1,note_on,77,69,60
1,note_on,77,0,60
1,note_on,70,73,0
1,note_on,70,0,60
1,note_on,75,66,0
1,note_on,75,0,60
1,note_on,74,75,0
1,note_on,74,0,60
1,note_on,70,69,0
1,note_on,70,0,60
1,note_on,77,72,60
1,note_on,77,0,60
1,note_on,82,57,60
1,note_on,82,0,60
1,note_on,76,64,0
1,note_on,76,0,60
1,note_on,78,60,0
1,note_on,78,0,60
1,note_on,77,57,0
1,note_on,77,0,60
1,note_on,74,52,0
1,note_on,74,0,60
1,note_on,82,45,60
1,note_on,82,0,60
1,note_on,75,38,60
1,note_on,75,0,60
1,note_on,68,47,0
1,note_on,68,0,60
1,note_on,73,40,0
1,note_on,73,0,60
1,note_on,71,47,0
1,note_on,71,0,60
1,note_on,68,40,0
1,note_on,68,0,60
1,note_on,75,44,60
1,note_on,75,0,60
1,note_on,74,40,60
1,note_on,74,0,60
1,note_on,68,48,0
1,note_on,68,0,60
1,note_on,73,40,0
1,note_on,73,0,60
1,note_on,71,46,0
1,note_on,71,0,60
1,note_on,68,37,0
1,note_on,68,0,60
1,note_on,75,44,60
1,note_on,75,0,60
1,note_on,77,38,60
1,note_on,77,0,60
1,note_on,70,45,0
1,note_on,70,0,60
1,note_on,75,38,0
1,note_on,75,0,60
1,note_on,74,47,0
1,note_on,74,0,60
1,note_on,70,38,0
1,note_on,70,0,60
1,note_on,77,44,60
1,note_on,77,0,60
1,note_on,78,38,60
1,note_on,78,0,60
1,note_on,70,47,0
1,note_on,70,0,60
1,note_on,75,38,0
1,note_on,75,0,60
1,note_on,74,46,0
1,note_on,74,0,60
1,note_on,70,38,0
1,note_on,70,0,60
1,note_on,77,44,60
1,note_on,77,0,60
1,note_on,75,40,60
1,note_on,75,0,60
1,note_on,68,46,0
1,note_on,68,0,60
1,note_on,73,40,0
1,note_on,73,0,60
1,note_on,71,47,0
1,note_on,71,0,60
1,note_on,68,40,0
1,note_on,68,0,60
1,note_on,75,46,60
1,note_on,75,0,60
1,note_on,74,40,60
1,note_on,74,0,60
1,note_on,68,46,0
1,note_on,68,0,60
1,note_on,73,40,0
1,note_on,73,0,60
1,note_on,71,48,0
1,note_on,71,0,60
1,note_on,68,40,0
1,note_on,68,0,60
1,note_on,75,47,60
1,note_on,75,0,60
1,note_on,77,44,60
1,note_on,77,0,60
1,note_on,70,48,0
1,note_on,70,0,60
1,note_on,75,45,0
1,note_on,75,0,60
1,note_on,74,50,0
1,note_on,74,0,60
1,note_on,70,45,0
1,note_on,70,0,60
1,note_on,77,48,60
1,note_on,77,0,60
1,note_on,77,44,60
1,note_on,77,0,60
1,note_on,72,51,0
1,note_on,72,0,60
1,note_on,74,45,0
1,note_on,74,0,60
1,note_on,73,51,0
1,note_on,73,0,60
1,note_on,71,45,0
1,note_on,71,0,60
1,note_on,73,46,60
1,note_on,73,0,60
1,note_on,73,47,60
1,note_on,73,0,60
1,note_on,68,57,0
1,note_on,68,0,60
1,note_on,71,50,0
1,note_on,71,0,60
1,note_on,69,59,0
1,note_on,69,0,60
1,note_on,66,50,0
1,note_on,66,0,60
1,note_on,74,55,60
1,note_on,74,0,60
1,note_on,73,47,60
1,note_on,73,0,60
1,note_on,68,56,0
1,note_on,68,0,60
1,note_on,71,48,0
1,note_on,71,0,60
1,note_on,69,57,0
1,note_on,69,0,60
1,note_on,68,47,0
1,note_on,68,0,60
1,note_on,78,56,60
1,note_on,78,0,60
1,note_on,78,48,60
1,note_on,78,0,60
1,note_on,70,60,0
1,note_on,70,0,60
1,note_on,73,48,0
1,note_on,73,0,60
1,note_on,71,61,0
1,note_on,71,0,60
1,note_on,68,51,0
1,note_on,68,0,60
1,note_on,77,59,60
1,note_on,77,0,60
1,note_on,81,51,60
1,note_on,81,0,60
1,note_on,72,63,0
1,note_on,72,0,60
1,note_on,74,55,0
1,note_on,74,0,60
1,note_on,73,63,0
1,note_on,73,0,60
1,note_on,71,60,0
1,note_on,71,0,60
1,note_on,80,60,60
1,note_on,80,0,60
1,note_on,73,52,60
1,note_on,73,0,60
1,note_on,68,60,0
1,note_on,68,0,60
1,note_on,71,51,0
1,note_on,71,0,60
1,note_on,69,61,0
1,note_on,69,0,60
1,note_on,66,51,0
1,note_on,66,0,60
1,note_on,74,60,60
1,note_on,74,0,60
1,note_on,73,55,60
1,note_on,73,0,60
1,note_on,68,63,0
1,note_on,68,0,60
1,note_on,71,52,0
1,note_on,71,0,60
1,note_on,69,63,0
1,note_on,69,0,60
1,note_on,68,52,0
1,note_on,68,0,60
1,note_on,81,62,60
1,note_on,81,0,60
1,note_on,81,56,60
1,note_on,81,0,60
1,note_on,73,64,0
1,note_on,73,0,60
1,note_on,76,52,0
1,note_on,76,0,60
1,note_on,74,64,0
1,note_on,74,0,60
1,note_on,71,55,0
1,note_on,71,0,60
1,note_on,80,62,60
1,note_on,80,0,60
1,note_on,85,56,60
1,note_on,85,0,60
1,note_on,75,66,0
1,note_on,75,0,60
1,note_on,78,59,0
1,note_on,78,0,60
1,note_on,76,69,0
1,note_on,76,0,60
1,note_on,74,59,0
1,note_on,74,0,60
1,note_on,83,69,60
1,note_on,83,0,60
1,note_on,83,61,60
1,note_on,83,0,60
1,note_on,75,70,0
1,note_on,75,0,60
1,note_on,78,60,0
1,note_on,78,0,60
1,note_on,76,70,0
1,note_on,76,0,60
1,note_on,73,60,0
1,note_on,73,0,60
1,note_on,82,71,60
1,note_on,82,0,60
1,note_on,86,62,60
1,note_on,86,0,60
1,note_on,77,71,0
1,note_on,77,0,60
1,note_on,79,63,0
1,note_on,79,0,60
1,note_on,78,71,0
1,note_on,78,0,60
1,note_on,76,63,0
1,note_on,76,0,60
1,note_on,85,72,60
1,note_on,85,0,60
1,note_on,85,63,60
1,note_on,85,0,60
1,note_on,77,73,0
1,note_on,77,0,60
1,note_on,80,66,0
1,note_on,80,0,60
1,note_on,78,73,0
1,note_on,78,0,60
1,note_on,75,63,0
1,note_on,75,0,60
1,note_on,84,73,60
1,note_on,84,0,60
1,note_on,89,64,60
1,note_on,89,0,60
1,note_on,80,75,0
1,note_on,80,0,60
1,note_on,83,69,0
1,note_on,83,0,60
1,note_on,81,75,0
1,note_on,81,0,60
1,note_on,80,69,0
1,note_on,80,0,60
1,note_on,90,77,60
1,note_on,90,0,60
1,note_on,92,70,60
1,note_on,92,0,60
1,note_on,86,81,0
1,note_on,86,0,60
1,note_on,89,71,0
1,note_on,89,0,60
1,note_on,87,78,0
1,note_on,87,0,60
1,note_on,84,72,0
1,note_on,84,0,60
1,note_on,93,77,60
1,note_on,93,0,60
1,note_on,92,71,60
1,note_on,92,0,60
1,note_on,86,77,0
1,note_on,86,0,60
1,note_on,89,75,0
1,note_on,89,0,60
1,note_on,87,71,0
1,note_on,87,0,60
1,note_on,84,69,0
1,note_on,84,0,60
1,note_on,93,77,60
1,note_on,93,0,60
1,note_on,92,70,60
1,note_on,92,0,60
1,note_on,85,77,0
1,note_on,85,0,60
1,note_on,88,72,0
1,note_on,88,0,60
1,note_on,86,78,0
1,note_on,86,0,60
1,note_on,84,71,0
1,note_on,84,0,60
1,note_on,93,77,60
1,note_on,93,0,60
1,note_on,92,75,60
1,note_on,92,0,60
1,note_on,85,82,0
1,note_on,85,0,60
1,note_on,88,75,0
1,note_on,88,0,60
1,note_on,86,78,0
1,note_on,86,0,60
1,note_on,84,71,0
1,note_on,84,0,60
1,note_on,93,77,60
1,note_on,93,0,60
1,note_on,93,70,60
1,note_on,93,0,60
1,note_on,89,77,0
1,note_on,89,0,60
1,note_on,92,70,0
1,note_on,92,0,60
1,note_on,90,77,0
1,note_on,90,0,60
1,note_on,85,66,0
1,note_on,85,0,60
1,note_on,93,70,60
1,note_on,93,0,60
1,note_on,92,69,60
1,note_on,92,0,60
1,note_on,87,78,0
1,note_on,87,0,60
1,note_on,90,71,0
1,note_on,90,0,60
1,note_on,88,77,0
1,note_on,88,0,60
1,note_on,85,69,0
1,note_on,85,0,60
1,note_on,92,72,60
1,note_on,92,0,60
1,note_on,88,64,60
1,note_on,88,0,60
1,note_on,83,73,0
1,note_on,83,0,60
1,note_on,86,66,0
1,note_on,86,0,60
1,note_on,85,71,0
1,note_on,85,0,60
1,note_on,81,63,0
1,note_on,81,0,60
1,note_on,88,71,60
1,note_on,88,0,60
1,note_on,85,64,60
1,note_on,85,0,60
1,note_on,80,71,0
1,note_on,80,0,60
1,note_on,83,64,0
1,note_on,83,0,60
1,note_on,81,70,0
1,note_on,81,0,60
1,note_on,78,62,0
1,note_on,78,0,60
1,note_on,85,63,60
1,note_on,85,0,60
1,note_on,80,59,60
1,note_on,80,0,60
1,note_on,75,69,0
1,note_on,75,0,60
1,note_on,78,61,0
1,note_on,78,0,60
1,note_on,76,66,0
1,note_on,76,0,60
1,note_on,73,62,0
1,note_on,73,0,60
1,note_on,80,62,60
1,note_on,80,0,60
1,note_on,78,57,60
1,note_on,78,0,60
1,note_on,73,64,0
1,note_on,73,0,60
1,note_on,76,57,0
1,note_on,76,0,60
1,note_on,74,64,0
1,note_on,74,0,60
1,note_on,69,52,0
1,note_on,69,0,60
1,note_on,78,61,60
1,note_on,78,0,60
1,note_on,76,55,60
1,note_on,76,0,60
1,note_on,71,64,0
1,note_on,71,0,60
1,note_on,74,59,0
1,note_on,74,0,60
1,note_on,73,63,0
1,note_on,73,0,60
1,note_on,69,56,0
1,note_on,69,0,60
1,note_on,76,60,60
1,note_on,76,0,60
1,note_on,74,52,60
1,note_on,74,0,60
1,note_on,69,62,0
1,note_on,69,0,60
1,note_on,73,52,0
1,note_on,73,0,60
1,note_on,71,61,0
1,note_on,71,0,60
1,note_on,67,55,0
1,note_on,67,0,60
1,note_on,74,60,60
1,note_on,74,0,60
1,note_on,73,60,60
1,note_on,73,0,60
1,note_on,68,70,0
1,note_on,68,0,60
1,note_on,71,59,0
1,note_on,71,0,60
1,note_on,69,64,0
1,note_on,69,0,60
1,note_on,66,61,0
1,note_on,66,0,60
1,note_on,73,60,60
1,note_on,73,0,60
1,note_on,73,51,60
1,note_on,73,0,60
1,note_on,68,60,0
1,note_on,68,0,60
1,note_on,71,51,0
1,note_on,71,0,60
1,note_on,69,59,0
1,note_on,69,0,60
1,note_on,66,51,0
1,note_on,66,0,60
1,note_on,73,57,60
1,note_on,73,0,60
1,note_on,73,52,60
1,note_on,73,0,60
1,note_on,68,62,0
1,note_on,68,0,60
1,note_on,71,52,0
1,note_on,71,0,60
1,note_on,69,60,0
1,note_on,69,0,60
1,note_on,66,52,0
1,note_on,66,0,60
1,note_on,73,56,60
1,note_on,73,0,60
1,note_on,73,51,60
1,note_on,73,0,60
1,note_on,68,60,0
1,note_on,68,0,60
1,note_on,71,52,0
1,note_on,71,0,60
1,note_on,69,59,0
1,note_on,69,0,60
1,note_on,66,48,0
1,note_on,66,0,60
1,note_on,73,55,60
1,note_on,73,0,60
1,note_on,73,48,60
1,note_on,73,0,60
1,note_on,67,60,0
1,note_on,67,0,60
1,note_on,69,47,0
1,note_on,69,0,60
1,note_on,68,55,0
1,note_on,68,0,60
1,note_on,66,47,0
1,note_on,66,0,60
1,note_on,73,51,60
1,note_on,73,0,60
1,note_on,73,50,60
1,note_on,73,0,60
1,note_on,67,57,0
1,note_on,67,0,60
1,note_on,69,48,0
1,note_on,69,0,60
1,note_on,68,55,0
1,note_on,68,0,60
1,note_on,66,46,0
1,note_on,66,0,60
1,note_on,73,50,60
1,note_on,73,0,60
1,note_on,73,45,60
1,note_on,73,0,60
1,note_on,67,50,0
1,note_on,67,0,60
1,note_on,69,42,0
1,note_on,69,0,60
1,note_on,68,48,0
1,note_on,68,0,60
1,note_on,65,42,0
1,note_on,65,0,60
1,note_on,73,46,60
1,note_on,73,0,60
1,note_on,73,38,60
1,note_on,73,0,60
1,note_on,67,44,0
1,note_on,67,0,60
1,note_on,69,36,0
1,note_on,69,0,60
1,note_on,68,44,0
1,note_on,68,0,60
1,note_on,65,38,0
1,note_on,65,0,60
1,note_on,73,38,60
1,note_on,73,0,60
1,note_on,73,35,60
1,note_on,73,0,60
1,note_on,68,40,0
1,note_on,68,0,60
1,note_on,71,35,0
1,note_on,71,0,60
1,note_on,69,40,0
1,note_on,69,0,60
1,note_on,66,35,0
1,note_on,66,0,60
1,note_on,73,38,60
1,note_on,73,0,60
1,note_on,73,34,60
1,note_on,73,0,60
1,note_on,68,37,0
1,note_on,68,0,60
1,note_on,71,31,0
1,note_on,71,0,60
1,note_on,69,37,0
1,note_on,69,0,60
1,note_on,66,30,0
1,note_on,66,0,60
1,note_on,73,37,60
1,note_on,73,0,60
1,note_on,73,31,60
1,note_on,73,0,60
1,note_on,68,37,0
1,note_on,68,0,60
1,note_on,71,31,0
1,note_on,71,0,60
1,note_on,69,37,0
1,note_on,69,0,60
1,note_on,66,36,0
1,note_on,66,0,60
1,note_on,73,38,60
1,note_on,73,0,60
1,note_on,73,34,60
1,note_on,73,0,60
1,note_on,68,38,0
1,note_on,68,0,60
1,note_on,71,34,0
1,note_on,71,0,60
1,note_on,69,38,0
1,note_on,69,0,60
1,note_on,66,34,0
1,note_on,66,0,60
1,note_on,73,38,60
1,note_on,73,0,60
1,note_on,74,34,60
1,note_on,74,0,60
1,note_on,70,37,0
1,note_on,70,0,60
1,note_on,73,31,0
1,note_on,73,0,60
1,note_on,71,37,0
1,note_on,71,0,60
1,note_on,66,31,0
1,note_on,66,0,60
1,note_on,74,38,60
1,note_on,74,0,60
1,note_on,74,34,60
1,note_on,74,0,60
1,note_on,70,38,0
1,note_on,70,0,60
1,note_on,73,34,0
1,note_on,73,0,60
1,note_on,71,40,0
1,note_on,71,0,60
1,note_on,66,35,0
1,note_on,66,0,60
1,note_on,74,42,60
1,note_on,74,0,60
1,note_on,74,37,60
1,note_on,74,0,60
1,note_on,70,44,0
1,note_on,70,0,60
1,note_on,73,36,0
1,note_on,73,0,60
1,note_on,71,44,0
1,note_on,71,0,60
1,note_on,66,35,0
1,note_on,66,0,60
1,note_on,74,44,60
1,note_on,74,0,60
1,note_on,78,46,60
1,note_on,78,0,60
1,note_on,70,51,0
1,note_on,70,0,60
1,note_on,73,45,0
1,note_on,73,0,60
1,note_on,71,48,0
1,note_on,71,0,60
1,note_on,66,42,0
1,note_on,66,0,60
1,note_on,74,36,60
1,note_on,74,0,60
1,note_on,73,28,60
1,note_on,73,0,60
1,note_on,68,36,0
1,note_on,68,0,60
1,note_on,71,29,0
1,note_on,71,0,60
1,note_on,70,35,0
1,note_on,70,0,60
1,note_on,66,30,0
1,note_on,66,0,60
1,note_on,73,35,60
1,note_on,73,0,60
1,note_on,73,27,60
1,note_on,73,0,60
1,note_on,68,34,0
1,note_on,68,0,60
1,note_on,71,27,0
1,note_on,71,0,60
1,note_on,70,34,0
1,note_on,70,0,60
1,note_on,66,28,0
1,note_on,66,0,60
1,note_on,73,34,60
1,note_on,73,0,60
1,note_on,73,28,60
1,note_on,73,0,60
1,note_on,68,34,0
1,note_on,68,0,60
1,note_on,71,28,0
1,note_on,71,0,60
1,note_on,70,34,0
1,note_on,70,0,60
1,note_on,66,28,0
1,note_on,66,0,60
1,note_on,73,31,60
1,note_on,73,0,60
1,note_on,73,28,60
1,note_on,73,0,60
1,note_on,68,31,0
1,note_on,68,0,60
1,note_on,71,27,0
1,note_on,71,0,60
1,note_on,70,31,0
1,note_on,70,0,60
1,note_on,66,25,0
1,note_on,66,0,60
1,note_on,73,31,60
1,note_on,73,0,60
1,note_on,75,22,60
1,note_on,75,0,60
1,note_on,70,28,0
1,note_on,70,0,60
1,note_on,73,22,0
1,note_on,73,0,60
1,note_on,71,29,0
1,note_on,71,0,60
1,note_on,66,23,0
1,note_on,66,0,60
1,note_on,75,29,60
1,note_on,75,0,60
1,note_on,75,23,60
1,note_on,75,0,60
1,note_on,70,29,0
1,note_on,70,0,60
1,note_on,73,23,0
1,note_on,73,0,60
1,note_on,71,30,0
1,note_on,71,0,60
1,note_on,66,23,0
1,note_on,66,0,60
1,note_on,75,30,60
1,note_on,75,0,60
1,note_on,75,27,60
1,note_on,75,0,60
1,note_on,70,31,0
1,note_on,70,0,60
1,note_on,73,27,0
1,note_on,73,0,60
1,note_on,71,31,0
1,note_on,71,0,60
1,note_on,66,30,0
1,note_on,66,0,60
1,note_on,75,34,60
1,note_on,75,0,60
1,note_on,78,37,60
1,note_on,78,0,60
1,note_on,70,38,0
1,note_on,70,0,60
1,note_on,73,36,0
1,note_on,73,0,60
1,note_on,71,36,0
1,note_on,71,0,60
1,note_on,66,34,0
1,note_on,66,0,60
1,note_on,75,27,60
1,note_on,75,0,60
1,note_on,73,20,60
1,note_on,73,0,60
1,note_on,68,27,0
1,note_on,68,0,60
1,note_on,71,22,0
1,note_on,71,0,60
1,note_on,70,27,0
1,note_on,70,0,60
1,note_on,66,23,0
1,note_on,66,0,60
1,note_on,73,27,60
1,note_on,73,0,60
1,note_on,73,23,60
1,note_on,73,0,60
1,note_on,68,28,0
1,note_on,68,0,60
1,note_on,71,23,0
1,note_on,71,0,60
1,note_on,70,28,0
1,note_on,70,0,60
1,note_on,66,22,0
1,note_on,66,0,60
1,note_on,73,29,60
1,note_on,73,0,60
1,note_on,73,25,60
1,note_on,73,0,60
1,note_on,68,29,0
1,note_on,68,0,60
1,note_on,71,23,0
1,note_on,71,0,60
1,note_on,70,29,0
1,note_on,70,0,60
1,note_on,66,23,0
1,note_on,66,0,60
1,note_on,73,29,60
1,note_on,73,0,60
1,note_on,73,23,60
1,note_on,73,0,60
1,note_on,68,30,0
1,note_on,68,0,60
1,note_on,71,23,0
1,note_on,71,0,60
1,note_on,70,30,0
1,note_on,70,0,60
1,note_on,66,23,0
1,note_on,66,0,60
1,note_on,73,29,60
1,note_on,73,0,60
1,note_on,73,23,60
1,note_on,73,0,60
1,note_on,68,29,0
1,note_on,68,0,60
1,note_on,71,23,0
1,note_on,71,0,60
1,note_on,69,29,0
1,note_on,69,0,60
1,note_on,66,25,0
1,note_on,66,0,60
1,note_on,73,29,60
1,note_on,73,0,60
1,note_on,73,22,60
1,note_on,73,0,60
1,note_on,68,29,0
1,note_on,68,0,60
1,note_on,71,23,0
1,note_on,71,0,60
1,note_on,69,28,0
1,note_on,69,0,60
1,note_on,66,23,0
1,note_on,66,0,60
1,note_on,73,28,60
1,note_on,73,0,60
1,note_on,73,22,60
1,note_on,73,0,60
1,note_on,68,28,0
1,note_on,68,0,60
1,note_on,71,23,0
1,note_on,71,0,60
1,note_on,69,27,0
1,note_on,69,0,60
1,note_on,66,22,0
1,note_on,66,0,60
1,note_on,73,27,60
1,note_on,73,0,60
1,note_on,73,22,60
1,note_on,73,0,60
1,note_on,68,27,0
1,note_on,68,0,60
1,note_on,71,22,0
1,note_on,71,0,60
1,note_on,69,27,0
1,note_on,69,0,60
1,note_on,66,23,0
1,note_on,66,0,60
1,note_on,73,27,60
1,note_on,73,0,60
2,note_on,61,77,0
2,note_on,61,0,360
2,note_on,62,59,0
2,note_on,62,0,120
2,note_on,61,73,0
2,note_on,61,0,360
2,note_on,66,74,0
2,note_on,66,0,120
2,note_on,66,89,0
2,note_on,66,0,360
2,note_on,65,62,0
2,note_on,65,0,120
2,note_on,69,82,0
2,note_on,69,0,360
2,note_on,68,52,0
2,note_on,68,0,120
2,note_on,61,80,0
2,note_on,61,0,360
2,note_on,62,52,0
2,note_on,62,0,120
2,note_on,61,75,0
2,note_on,61,0,360
2,note_on,66,73,0
2,note_on,66,0,120
2,note_on,66,83,0
2,note_on,66,0,360
2,note_on,65,73,0
2,note_on,65,0,120
2,note_on,69,83,0
2,note_on,69,0,360
2,note_on,68,55,0
2,note_on,68,0,120
2,note_on,73,83,0
2,note_on,73,0,360
2,note_on,75,62,0
2,note_on,75,0,120
2,note_on,73,80,0
2,note_on,73,0,360
2,note_on,72,60,0
2,note_on,72,0,120
2,note_on,71,77,0
2,note_on,71,0,360
2,note_on,73,57,0
2,note_on,73,0,120
2,note_on,71,73,0
2,note_on,71,0,360
2,note_on,70,57,0
2,note_on,70,0,120
2,note_on,69,75,0
2,note_on,69,0,360
2,note_on,71,59,0
2,note_on,71,0,120
2,note_on,69,73,0
2,note_on,69,0,360
2,note_on,68,59,0
2,note_on,68,0,120
2,note_on,66,74,0
2,note_on,66,0,360
2,note_on,65,57,0
2,note_on,65,0,120
2,note_on,62,72,0
2,note_on,62,0,360
2,note_on,61,63,0
2,note_on,61,0,120
2,note_on,61,84,0
2,note_on,61,0,360
2,note_on,62,63,0
2,note_on,62,0,120
2,note_on,61,75,0
2,note_on,61,0,360
2,note_on,66,71,0
2,note_on,66,0,120
2,note_on,66,84,0
2,note_on,66,0,360
2,note_on,65,59,0
2,note_on,65,0,120
2,note_on,69,77,0
2,note_on,69,0,360
2,note_on,68,56,0
2,note_on,68,0,120
2,note_on,61,81,0
2,note_on,61,0,360
2,note_on,62,58,0
2,note_on,62,0,120
2,note_on,61,75,0
2,note_on,61,0,360
2,note_on,66,71,0
2,note_on,66,0,120
2,note_on,69,85,0
2,note_on,69,0,360
2,note_on,68,58,0
2,note_on,68,0,120
2,note_on,73,83,0
2,note_on,73,0,360
2,note_on,71,66,0
2,note_on,71,0,120
2,note_on,76,79,0
2,note_on,76,0,360
2,note_on,78,59,0
2,note_on,78,0,120
2,note_on,76,75,0
2,note_on,76,0,360
2,note_on,75,60,0
2,note_on,75,0,120
2,note_on,74,75,0
2,note_on,74,0,360
2,note_on,76,55,0
2,note_on,76,0,120
2,note_on,74,73,0
2,note_on,74,0,360
2,note_on,73,55,0
2,note_on,73,0,120
2,note_on,72,76,0
2,note_on,72,0,360
2,note_on,74,55,0
2,note_on,74,0,120
2,note_on,72,73,0
2,note_on,72,0,360
2,note_on,71,55,0
2,note_on,71,0,120
2,note_on,71,73,0
2,note_on,71,0,360
2,note_on,70,53,0
2,note_on,70,0,120
2,note_on,70,67,0
2,note_on,70,0,360
2,note_on,70,58,0
2,note_on,70,0,120
2,note_on,70,81,0
2,note_on,70,0,360
2,note_on,69,58,0
2,note_on,69,0,120
2,note_on,69,78,0
2,note_on,69,0,360
2,note_on,68,58,0
2,note_on,68,0,120
2,note_on,68,83,0
2,note_on,68,0,360
2,note_on,67,62,0
2,note_on,67,0,120
2,note_on,67,80,0
2,note_on,67,0,360
2,note_on,72,62,0
2,note_on,72,0,120
2,note_on,72,85,0
2,note_on,72,0,360
2,note_on,71,66,0
2,note_on,71,0,120
2,note_on,71,82,0
2,note_on,71,0,360
2,note_on,70,61,0
2,note_on,70,0,120
2,note_on,70,84,0
2,note_on,70,0,360
2,note_on,69,62,0
2,note_on,69,0,120
2,note_on,69,82,0
2,note_on,69,0,360
2,note_on,74,70,0
2,note_on,74,0,120
2,note_on,74,90,0
2,note_on,74,0,360
2,note_on,72,70,0
2,note_on,72,0,120
2,note_on,72,83,0
2,note_on,72,0,360
2,note_on,70,66,0
2,note_on,70,0,120
2,note_on,70,93,0
2,note_on,70,0,360
2,note_on,69,70,0
2,note_on,69,0,120
2,note_on,69,88,0
2,note_on,69,0,360
2,note_on,67,72,0
2,note_on,67,0,120
2,note_on,67,93,0
2,note_on,67,0,360
2,note_on,65,77,0
2,note_on,65,0,120
2,note_on,64,90,0
2,note_on,64,0,360
2,note_on,65,78,0
2,note_on,65,0,120
2,note_on,65,97,0
2,note_on,65,0,360
2,note_on,65,78,0
2,note_on,65,0,120
2,note_on,66,93,0
2,note_on,66,0,360
2,note_on,66,77,0
2,note_on,66,0,120
2,note_on,66,99,0
2,note_on,66,0,360
2,note_on,64,78,0
2,note_on,64,0,120
2,note_on,64,93,0
2,note_on,64,0,360
2,note_on,56,78,0
2,note_on,56,0,120
2,note_on,59,94,0
2,note_on,59,0,360
2,note_on,59,73,0
2,note_on,59,0,120
2,note_on,58,92,0
2,note_on,58,0,360
2,note_on,59,72,0
2,note_on,59,0,120
2,note_on,60,96,0
2,note_on,60,0,360
2,note_on,60,78,0
2,note_on,60,0,120
2,note_on,61,92,0
2,note_on,61,0,360
2,note_on,62,84,0
2,note_on,62,0,120
2,note_on,62,96,0
2,note_on,62,0,360
2,note_on,62,82,0
2,note_on,62,0,120
2,note_on,63,98,0
2,note_on,63,0,360
2,note_on,63,80,0
2,note_on,63,0,120
2,note_on,63,103,0
2,note_on,63,0,360
2,note_on,63,85,0
2,note_on,63,0,120
2,note_on,62,97,0
2,note_on,62,0,360
2,note_on,63,78,0
2,note_on,63,0,120
2,note_on,65,100,0
2,note_on,65,0,360
2,note_on,65,82,0
2,note_on,65,0,120
2,note_on,66,95,0
2,note_on,66,0,360
2,note_on,65,80,0
2,note_on,65,0,120
2,note_on,63,102,0
2,note_on,63,0,360
2,note_on,63,83,0
2,note_on,63,0,120
2,note_on,62,96,0
2,note_on,62,0,360
2,note_on,63,84,0
2,note_on,63,0,120
2,note_on,65,97,0
2,note_on,65,0,360
2,note_on,65,79,0
2,note_on,65,0,120
2,note_on,70,93,0
2,note_on,70,0,360
2,note_on,70,81,0
2,note_on,70,0,120
2,note_on,63,80,0
2,note_on,63,0,360
2,note_on,63,62,0
2,note_on,63,0,120
2,note_on,62,77,0
2,note_on,62,0,360
2,note_on,63,64,0
2,note_on,63,0,120
2,note_on,65,81,0
2,note_on,65,0,360
2,note_on,65,67,0
2,note_on,65,0,120
2,note_on,66,85,0
2,note_on,66,0,360
2,note_on,65,62,0
2,note_on,65,0,120
2,note_on,63,81,0
2,note_on,63,0,360
2,note_on,63,66,0
2,note_on,63,0,120
2,note_on,62,78,0
2,note_on,62,0,360
2,note_on,63,66,0
2,note_on,63,0,120
2,note_on,65,84,0
2,note_on,65,0,360
2,note_on,65,67,0
2,note_on,65,0,120
2,note_on,65,86,0
2,note_on,65,0,360
2,note_on,61,77,0
2,note_on,61,0,120
2,note_on,61,92,0
2,note_on,61,0,360
2,note_on,62,71,0
2,note_on,62,0,120
2,note_on,61,83,0
2,note_on,61,0,360
2,note_on,66,75,0
2,note_on,66,0,120
2,note_on,66,93,0
2,note_on,66,0,360
2,note_on,65,70,0
2,note_on,65,0,120
2,note_on,69,84,0
2,note_on,69,0,360
2,note_on,68,67,0
2,note_on,68,0,120
2,note_on,61,93,0
2,note_on,61,0,360
2,note_on,62,70,0
2,note_on,62,0,120
2,note_on,61,86,0
2,note_on,61,0,360
2,note_on,66,79,0
2,note_on,66,0,120
2,note_on,69,91,0
2,note_on,69,0,360
2,note_on,68,75,0
2,note_on,68,0,120
2,note_on,73,100,0
2,note_on,73,0,360
2,note_on,71,78,0
2,note_on,71,0,120
2,note_on,71,101,0
2,note_on,71,0,360
2,note_on,70,84,0
2,note_on,70,0,120
2,note_on,74,98,0
2,note_on,74,0,360
2,note_on,73,79,0
2,note_on,73,0,120
2,note_on,73,107,0
2,note_on,73,0,360
2,note_on,72,84,0
2,note_on,72,0,120
2,note_on,77,105,0
2,note_on,77,0,360
2,note_on,78,84,0
2,note_on,78,0,120
2,note_on,80,108,0
2,note_on,80,0,360
2,note_on,81,95,0
2,note_on,81,0,120
2,note_on,80,106,0
2,note_on,80,0,360
2,note_on,81,89,0
2,note_on,81,0,120
2,note_on,80,109,0
2,note_on,80,0,360
2,note_on,81,92,0
2,note_on,81,0,120
2,note_on,80,104,0
2,note_on,80,0,360
2,note_on,81,86,0
2,note_on,81,0,120
2,note_on,81,109,0
2,note_on,81,0,360
2,note_on,81,90,0
2,note_on,81,0,120
2,note_on,80,105,0
2,note_on,80,0,360
2,note_on,80,86,0
2,note_on,80,0,120
2,note_on,76,106,0
2,note_on,76,0,360
2,note_on,76,94,0
2,note_on,76,0,120
2,note_on,73,100,0
2,note_on,73,0,360
2,note_on,73,86,0
2,note_on,73,0,120
2,note_on,68,100,0
2,note_on,68,0,360
2,note_on,68,84,0
2,note_on,68,0,120
2,note_on,66,96,0
2,note_on,66,0,360
2,note_on,66,83,0
2,note_on,66,0,120
2,note_on,64,100,0
2,note_on,64,0,360
2,note_on,64,79,0
2,note_on,64,0,120
2,note_on,62,90,0
2,note_on,62,0,360
2,note_on,62,76,0
2,note_on,62,0,120
2,note_on,61,89,0
2,note_on,61,0,360
2,note_on,61,73,0
2,note_on,61,0,120
2,note_on,61,87,0
2,note_on,61,0,360
2,note_on,61,73,0
2,note_on,61,0,120
2,note_on,61,89,0
2,note_on,61,0,360
2,note_on,61,72,0
2,note_on,61,0,120
2,note_on,61,85,0
2,note_on,61,0,360
2,note_on,61,61,0
2,note_on,61,0,120
2,note_on,61,89,0
2,note_on,61,0,360
2,note_on,61,58,0
2,note_on,61,0,120
2,note_on,61,79,0
2,note_on,61,0,360
2,note_on,61,58,0
2,note_on,61,0,120
2,note_on,61,79,0
2,note_on,61,0,360
2,note_on,61,55,0
2,note_on,61,0,120
2,note_on,61,73,0
2,note_on,61,0,360
2,note_on,61,50,0
2,note_on,61,0,120
2,note_on,61,69,0
2,note_on,61,0,360
2,note_on,61,52,0
2,note_on,61,0,120
2,note_on,61,68,0
2,note_on,61,0,360
2,note_on,61,50,0
2,note_on,61,0,120
2,note_on,61,69,0
2,note_on,61,0,360
2,note_on,61,49,0
2,note_on,61,0,120
2,note_on,61,71,0
2,note_on,61,0,360
2,note_on,61,49,0
2,note_on,61,0,120
2,note_on,62,66,0
2,note_on,62,0,360
2,note_on,62,49,0
2,note_on,62,0,120
2,note_on,62,63,0
2,note_on,62,0,360
2,note_on,62,49,0
2,note_on,62,0,120
2,note_on,62,69,0
2,note_on,62,0,360
2,note_on,62,50,0
2,note_on,62,0,120
2,note_on,66,71,0
2,note_on,66,0,360
2,note_on,62,47,0
2,note_on,62,0,120
2,note_on,61,59,0
2,note_on,61,0,360
2,note_on,61,41,0
2,note_on,61,0,120
2,note_on,61,58,0
2,note_on,61,0,360
2,note_on,61,41,0
2,note_on,61,0,120
2,note_on,61,58,0
2,note_on,61,0,360
2,note_on,61,40,0
2,note_on,61,0,120
2,note_on,61,58,0
2,note_on,61,0,360
2,note_on,61,36,0
2,note_on,61,0,120
2,note_on,63,56,0
2,note_on,63,0,360
2,note_on,63,38,0
2,note_on,63,0,120
2,note_on,63,58,0
2,note_on,63,0,360
2,note_on,63,40,0
2,note_on,63,0,120
2,note_on,63,61,0
2,note_on,63,0,360
2,note_on,63,41,0
2,note_on,63,0,120
2,note_on,66,63,0
2,note_on,66,0,360
2,note_on,63,37,0
2,note_on,63,0,120
2,note_on,61,57,0
2,note_on,61,0,360
2,note_on,61,37,0
2,note_on,61,0,120
2,note_on,61,56,0
2,note_on,61,0,360
2,note_on,61,37,0
2,note_on,61,0,120
2,note_on,61,57,0
2,note_on,61,0,360
2,note_on,61,41,0
2,note_on,61,0,120
2,note_on,61,61,0
2,note_on,61,0,360
2,note_on,61,38,0
2,note_on,61,0,120
2,note_on,61,58,0
2,note_on,61,0,360
2,note_on,61,38,0
2,note_on,61,0,120
2,note_on,61,55,0
2,note_on,61,0,360
2,note_on,61,34,0
2,note_on,61,0,120
2,note_on,61,49,0
2,note_on,61,0,360
2,note_on,61,34,0
2,note_on,61,0,120
2,note_on,61,44,0
2,note_on,61,0,360
2,note_on,61,36,0
2,note_on,61,0,120
2,note_on,73,46,0
2,note_on,64,39,0
2,note_on,61,39,0
2,note_on,61,0,960
2,note_on,64,0,0
2,note_on,73,0,0
2,note_on,62,36,0
2,note_on,67,36,0
2,note_on,71,43,0
2,note_on,71,0,480
2,note_on,67,0,0
2,note_on,62,0,0
2,note_on,59,33,0
2,note_on,61,33,0
2,note_on,65,39,0
2,note_on,65,0,480
2,note_on,61,0,0
2,note_on,59,0,0
2,note_on,65,29,0
2,note_on,65,0,120
2,note_on,61,25,360
2,note_on,66,22,120
2,note_on,66,0,1320
2,note_on,61,0,0
3,note_on,57,44,0
3,note_on,57,0,80
3,note_on,49,37,0
3,note_on,49,0,80
3,note_on,54,39,0
3,note_on,54,0,80
3,note_on,42,34,0
3,note_on,42,0,240
3,note_on,57,47,0
3,note_on,57,0,48
3,note_on,49,40,0
3,note_on,49,0,80
3,note_on,54,44,0
3,note_on,54,0,80
3,note_on,45,37,0
3,note_on,45,0,240
3,note_on,62,57,0
3,note_on,62,0,25
3,note_on,56,49,0
3,note_on,56,0,80
3,note_on,59,52,0
3,note_on,59,0,80
3,note_on,50,45,0
3,note_on,50,0,240
3,note_on,61,53,0
3,note_on,61,0,28
3,note_on,53,42,0
3,note_on,53,0,80
3,note_on,59,50,0
3,note_on,59,0,80
3,note_on,49,39,0
3,note_on,49,0,240
3,note_on,57,53,0
3,note_on,57,0,37
3,note_on,49,39,0
3,note_on,49,0,80
3,note_on,54,48,0
3,note_on,54,0,80
3,note_on,42,36,0
3,note_on,42,0,240
3,note_on,57,51,0
3,note_on,57,0,31
3,note_on,49,38,0
3,note_on,49,0,80
3,note_on,54,46,0
3,note_on,54,0,80
3,note_on,45,36,0
3,note_on,45,0,240
3,note_on,62,57,0
3,note_on,62,0,48
3,note_on,56,45,0
3,note_on,56,0,80
3,note_on,59,51,0
3,note_on,59,0,80
3,note_on,50,41,0
3,note_on,50,0,240
3,note_on,61,50,0
3,note_on,61,0,31
3,note_on,53,41,0
3,note_on,53,0,80
3,note_on,59,44,0
3,note_on,59,0,80
3,note_on,49,37,0
3,note_on,49,0,240
3,note_on,69,57,0
3,note_on,69,0,37
3,note_on,63,46,0
3,note_on,63,0,80
3,note_on,66,55,0
3,note_on,66,0,80
3,note_on,57,49,0
3,note_on,57,0,240
3,note_on,68,57,0
3,note_on,68,0,31
3,note_on,63,50,0
3,note_on,63,0,80
3,note_on,66,57,0
3,note_on,66,0,80
3,note_on,56,46,0
3,note_on,56,0,240
3,note_on,67,59,0
3,note_on,67,0,40
3,note_on,61,49,0
3,note_on,61,0,80
3,note_on,64,57,0
3,note_on,64,0,80
3,note_on,55,44,0
3,note_on,55,0,240
3,note_on,66,57,0
3,note_on,66,0,25
3,note_on,61,47,0
3,note_on,61,0,80
3,note_on,64,53,0
3,note_on,64,0,80
3,note_on,54,46,0
3,note_on,54,0,240
3,note_on,65,58,0
3,note_on,65,0,34
3,note_on,60,49,0
3,note_on,60,0,80
3,note_on,63,55,0
3,note_on,63,0,80
3,note_on,53,45,0
3,note_on,53,0,240
3,note_on,65,55,0
3,note_on,65,0,23
3,note_on,59,48,0
3,note_on,59,0,80
3,note_on,62,52,0
3,note_on,62,0,80
3,note_on,53,46,0
3,note_on,53,0,240
3,note_on,62,57,0
3,note_on,62,0,31
3,note_on,56,51,0
3,note_on,56,0,80
3,note_on,59,53,0
3,note_on,59,0,80
3,note_on,50,48,0
3,note_on,50,0,240
3,note_on,59,58,0
3,note_on,59,0,40
3,note_on,49,46,0
3,note_on,49,0,80
3,note_on,53,51,0
3,note_on,53,0,80
3,note_on,37,42,0
3,note_on,37,0,240
3,note_on,57,56,0
3,note_on,57,0,31
3,note_on,49,44,0
3,note_on,49,0,80
3,note_on,54,50,0
3,note_on,54,0,80
3,note_on,42,38,0
3,note_on,42,0,240
3,note_on,57,59,0
3,note_on,57,0,37
3,note_on,49,49,0
3,note_on,49,0,80
3,note_on,54,53,0
3,note_on,54,0,80
3,note_on,45,45,0
3,note_on,45,0,240
3,note_on,62,60,0
3,note_on,62,0,25
3,note_on,56,49,0
3,note_on,56,0,80
3,note_on,59,55,0
3,note_on,59,0,80
3,note_on,50,44,0
3,note_on,50,0,240
3,note_on,61,56,0
3,note_on,61,0,31
3,note_on,53,39,0
3,note_on,53,0,80
3,note_on,59,48,0
3,note_on,59,0,80
3,note_on,49,37,0
3,note_on,49,0,240
3,note_on,57,58,0
3,note_on,57,0,34
3,note_on,49,40,0
3,note_on,49,0,80
3,note_on,54,50,0
3,note_on,54,0,80
3,note_on,42,40,0
3,note_on,42,0,240
3,note_on,57,57,0
3,note_on,57,0,31
3,note_on,49,40,0
3,note_on,49,0,80
3,note_on,54,48,0
3,note_on,54,0,80
3,note_on,45,39,0
3,note_on,45,0,240
3,note_on,65,60,0
3,note_on,65,0,31
3,note_on,59,42,0
3,note_on,59,0,80
3,note_on,62,49,0
3,note_on,62,0,80
3,note_on,53,41,0
3,note_on,53,0,240
3,note_on,64,58,0
3,note_on,64,0,23
3,note_on,56,44,0
3,note_on,56,0,80
3,note_on,62,50,0
3,note_on,62,0,80
3,note_on,52,42,0
3,note_on,52,0,240
3,note_on,72,58,0
3,note_on,72,0,37
3,note_on,66,46,0
3,note_on,66,0,80
3,note_on,69,50,0
3,note_on,69,0,80
3,note_on,60,42,0
3,note_on,60,0,240
3,note_on,71,59,0
3,note_on,71,0,43
3,note_on,66,46,0
3,note_on,66,0,80
3,note_on,69,50,0
3,note_on,69,0,80
3,note_on,59,41,0
3,note_on,59,0,240
3,note_on,70,57,0
3,note_on,70,0,25
3,note_on,65,46,0
3,note_on,65,0,80
3,note_on,68,51,0
3,note_on,68,0,80
3,note_on,58,44,0
3,note_on,58,0,240
3,note_on,69,57,0
3,note_on,69,0,34
3,note_on,64,45,0
3,note_on,64,0,80
3,note_on,67,51,0
3,note_on,67,0,80
3,note_on,57,40,0
3,note_on,57,0,240
3,note_on,68,52,0
3,note_on,68,0,40
3,note_on,63,46,0
3,note_on,63,0,80
3,note_on,66,51,0
3,note_on,66,0,80
3,note_on,56,42,0
3,note_on,56,0,240
3,note_on,67,55,0
3,note_on,67,0,37
3,note_on,62,45,0
3,note_on,62,0,80
3,note_on,65,49,0
3,note_on,65,0,80
3,note_on,55,40,0
3,note_on,55,0,240
3,note_on,67,55,0
3,note_on,67,0,31
3,note_on,61,42,0
3,note_on,61,0,80
3,note_on,64,49,0
3,note_on,64,0,80
3,note_on,55,42,0
3,note_on,55,0,240
3,note_on,66,53,0
3,note_on,66,0,20
3,note_on,61,40,0
3,note_on,61,0,80
3,note_on,64,47,0
3,note_on,64,0,80
3,note_on,54,40,0
3,note_on,54,0,240
3,note_on,65,52,0
3,note_on,65,0,46
3,note_on,58,40,0
3,note_on,58,0,80
3,note_on,62,49,0
3,note_on,62,0,80
3,note_on,53,39,0
3,note_on,53,0,240
3,note_on,65,51,0
3,note_on,65,0,41
3,note_on,59,41,0
3,note_on,59,0,80
3,note_on,62,48,0
3,note_on,62,0,80
3,note_on,53,41,0
3,note_on,53,0,240
3,note_on,65,53,0
3,note_on,65,0,32
3,note_on,55,42,0
3,note_on,55,0,80
3,note_on,59,49,0
3,note_on,59,0,80
3,note_on,53,41,0
3,note_on,53,0,240
3,note_on,63,53,0
3,note_on,63,0,32
3,note_on,55,45,0
3,note_on,55,0,80
3,note_on,60,50,0
3,note_on,60,0,80
3,note_on,53,41,0
3,note_on,53,0,240
3,note_on,67,56,0
3,note_on,67,0,40
3,note_on,60,46,0
3,note_on,60,0,80
3,note_on,63,50,0
3,note_on,63,0,80
3,note_on,53,40,0
3,note_on,53,0,240
3,note_on,67,55,0
3,note_on,67,0,31
3,note_on,61,45,0
3,note_on,61,0,80
3,note_on,64,51,0
3,note_on,64,0,80
3,note_on,53,39,0
3,note_on,53,0,240
3,note_on,67,55,0
3,note_on,67,0,31
3,note_on,57,48,0
3,note_on,57,0,80
3,note_on,61,52,0
3,note_on,61,0,80
3,note_on,53,40,0
3,note_on,53,0,240
3,note_on,65,56,0
3,note_on,65,0,28
3,note_on,57,50,0
3,note_on,57,0,80
3,note_on,62,52,0
3,note_on,62,0,80
3,note_on,53,47,0
3,note_on,53,0,240
3,note_on,65,61,0
3,note_on,65,0,28
3,note_on,57,51,0
3,note_on,57,0,80
3,note_on,63,57,0
3,note_on,63,0,80
3,note_on,53,48,0
3,note_on,53,0,240
3,note_on,62,62,0
3,note_on,62,0,43
3,note_on,53,49,0
3,note_on,53,0,80
3,note_on,58,57,0
3,note_on,58,0,80
3,note_on,46,47,0
3,note_on,46,0,240
3,note_on,62,58,0
3,note_on,62,0,40
3,note_on,54,51,0
3,note_on,54,0,80
3,note_on,60,58,0
3,note_on,60,0,80
3,note_on,50,49,0
3,note_on,50,0,240
3,note_on,58,61,0
3,note_on,58,0,20
3,note_on,50,50,0
3,note_on,50,0,80
3,note_on,55,56,0
3,note_on,55,0,80
3,note_on,43,45,0
3,note_on,43,0,240
3,note_on,58,62,0
3,note_on,58,0,37
3,note_on,50,56,0
3,note_on,50,0,80
3,note_on,56,63,0
3,note_on,56,0,80
3,note_on,46,53,0
3,note_on,46,0,240
3,note_on,58,62,0
3,note_on,58,0,25
3,note_on,50,58,0
3,note_on,50,0,80
3,note_on,56,63,0
3,note_on,56,0,80
3,note_on,46,56,0
3,note_on,46,0,240
3,note_on,56,64,0
3,note_on,56,0,25
3,note_on,46,58,0
3,note_on,46,0,80
3,note_on,50,64,0
3,note_on,50,0,80
3,note_on,39,58,0
3,note_on,39,0,240
3,note_on,54,67,0
3,note_on,54,0,31
3,note_on,46,60,0
3,note_on,46,0,80
3,note_on,51,63,0
3,note_on,51,0,80
3,note_on,39,57,0
3,note_on,39,0,240
3,note_on,56,65,0
3,note_on,56,0,37
3,note_on,44,56,0
3,note_on,44,0,80
3,note_on,49,64,0
3,note_on,49,0,80
3,note_on,40,56,0
3,note_on,40,0,240
3,note_on,56,65,0
3,note_on,56,0,34
3,note_on,44,63,0
3,note_on,44,0,80
3,note_on,49,66,0
3,note_on,49,0,80
3,note_on,40,60,0
3,note_on,40,0,240
3,note_on,54,69,0
3,note_on,54,0,20
3,note_on,47,63,0
3,note_on,47,0,80
3,note_on,51,66,0
3,note_on,51,0,80
3,note_on,42,57,0
3,note_on,42,0,240
3,note_on,54,70,0
3,note_on,54,0,28
3,note_on,47,63,0
3,note_on,47,0,80
3,note_on,51,69,0
3,note_on,51,0,80
3,note_on,42,63,0
3,note_on,42,0,240
3,note_on,54,77,0
3,note_on,54,0,43
3,note_on,46,65,0
3,note_on,46,0,80
3,note_on,52,72,0
3,note_on,52,0,80
3,note_on,42,64,0
3,note_on,42,0,240
3,note_on,54,75,0
3,note_on,54,0,31
3,note_on,46,63,0
3,note_on,46,0,80
3,note_on,52,72,0
3,note_on,52,0,80
3,note_on,42,64,0
3,note_on,42,0,240
3,note_on,52,81,0
3,note_on,52,0,34
3,note_on,42,65,0
3,note_on,42,0,80
3,note_on,46,72,0
3,note_on,46,0,80
3,note_on,35,65,0
3,note_on,35,0,240
3,note_on,51,75,0
3,note_on,51,0,43
3,note_on,42,64,0
3,note_on,42,0,80
3,note_on,47,70,0
3,note_on,47,0,80
3,note_on,35,61,0
3,note_on,35,0,240
3,note_on,56,77,0
3,note_on,56,0,34
3,note_on,47,66,0
3,note_on,47,0,80
3,note_on,51,73,0
3,note_on,51,0,80
3,note_on,41,67,0
3,note_on,41,0,240
3,note_on,56,76,0
3,note_on,56,0,25
3,note_on,47,70,0
3,note_on,47,0,80
3,note_on,51,77,0
3,note_on,51,0,80
3,note_on,41,72,0
3,note_on,41,0,240
3,note_on,62,83,0
3,note_on,62,0,37
3,note_on,53,71,0
3,note_on,53,0,80
3,note_on,58,77,0
3,note_on,58,0,80
3,note_on,46,71,0
3,note_on,46,0,240
3,note_on,62,79,0
3,note_on,62,0,31
3,note_on,53,72,0
3,note_on,53,0,80
3,note_on,58,76,0
3,note_on,58,0,80
3,note_on,46,71,0
3,note_on,46,0,240
3,note_on,56,82,0
3,note_on,56,0,43
3,note_on,47,72,0
3,note_on,47,0,80
3,note_on,51,76,0
3,note_on,51,0,80
3,note_on,41,72,0
3,note_on,41,0,240
3,note_on,56,77,0
3,note_on,56,0,25
3,note_on,47,68,0
3,note_on,47,0,80
3,note_on,51,73,0
3,note_on,51,0,80
3,note_on,41,65,0
3,note_on,41,0,240
3,note_on,62,82,0
3,note_on,62,0,34
3,note_on,53,71,0
3,note_on,53,0,80
3,note_on,58,77,0
3,note_on,58,0,80
3,note_on,46,70,0
3,note_on,46,0,240
3,note_on,62,75,0
3,note_on,62,0,37
3,note_on,53,66,0
3,note_on,53,0,80
3,note_on,58,72,0
3,note_on,58,0,80
3,note_on,46,66,0
3,note_on,46,0,240
3,note_on,56,59,0
3,note_on,56,0,37
3,note_on,47,48,0
3,note_on,47,0,80
3,note_on,51,55,0
3,note_on,51,0,80
3,note_on,41,42,0
3,note_on,41,0,240
3,note_on,56,56,0
3,note_on,56,0,31
3,note_on,47,48,0
3,note_on,47,0,80
3,note_on,51,53,0
3,note_on,51,0,80
3,note_on,41,41,0
3,note_on,41,0,240
3,note_on,62,56,0
3,note_on,62,0,20
3,note_on,53,44,0
3,note_on,53,0,80
3,note_on,58,52,0
3,note_on,58,0,80
3,note_on,46,42,0
3,note_on,46,0,240
3,note_on,62,56,0
3,note_on,62,0,31
3,note_on,53,48,0
3,note_on,53,0,80
3,note_on,58,53,0
3,note_on,58,0,80
3,note_on,46,45,0
3,note_on,46,0,240
3,note_on,56,58,0
3,note_on,56,0,37
3,note_on,47,49,0
3,note_on,47,0,80
3,note_on,51,52,0
3,note_on,51,0,80
3,note_on,41,45,0
3,note_on,41,0,240
3,note_on,56,57,0
3,note_on,56,0,43
3,note_on,47,47,0
3,note_on,47,0,80
3,note_on,51,53,0
3,note_on,51,0,80
3,note_on,41,47,0
3,note_on,41,0,240
3,note_on,62,60,0
3,note_on,62,0,25
3,note_on,53,53,0
3,note_on,53,0,80
3,note_on,58,58,0
3,note_on,58,0,80
3,note_on,46,50,0
3,note_on,46,0,240
3,note_on,59,61,0
3,note_on,59,0,34
3,note_on,49,53,0
3,note_on,49,0,80
3,note_on,53,62,0
3,note_on,53,0,80
3,note_on,44,55,0
3,note_on,44,0,240
3,note_on,57,64,0
3,note_on,57,0,28
3,note_on,49,55,0
3,note_on,49,0,80
3,note_on,54,59,0
3,note_on,54,0,80
3,note_on,42,57,0
3,note_on,42,0,240
3,note_on,57,66,0
3,note_on,57,0,37
3,note_on,49,55,0
3,note_on,49,0,80
3,note_on,54,61,0
3,note_on,54,0,80
3,note_on,45,56,0
3,note_on,45,0,240
3,note_on,62,70,0
3,note_on,62,0,31
3,note_on,56,59,0
3,note_on,56,0,80
3,note_on,59,64,0
3,note_on,59,0,80
3,note_on,54,59,0
3,note_on,54,0,240
3,note_on,61,70,0
3,note_on,61,0,28
3,note_on,53,59,0
3,note_on,53,0,80
3,note_on,59,66,0
3,note_on,59,0,80
3,note_on,49,58,0
3,note_on,49,0,240
3,note_on,57,73,0
3,note_on,57,0,31
3,note_on,49,60,0
3,note_on,49,0,80
3,note_on,54,68,0
3,note_on,54,0,80
3,note_on,42,58,0
3,note_on,42,0,240
3,note_on,57,73,0
3,note_on,57,0,45
3,note_on,49,60,0
3,note_on,49,0,80
3,note_on,54,64,0
3,note_on,54,0,80
3,note_on,45,58,0
3,note_on,45,0,240
3,note_on,65,72,0
3,note_on,65,0,31
3,note_on,59,60,0
3,note_on,59,0,80
3,note_on,62,66,0
3,note_on,62,0,80
3,note_on,53,58,0
3,note_on,53,0,240
3,note_on,64,74,0
3,note_on,64,0,37
3,note_on,56,59,0
3,note_on,56,0,80
3,note_on,62,66,0
3,note_on,62,0,80
3,note_on,52,60,0
3,note_on,52,0,240
3,note_on,67,78,0
3,note_on,67,0,31
3,note_on,61,66,0
3,note_on,61,0,80
3,note_on,64,73,0
3,note_on,64,0,80
3,note_on,55,62,0
3,note_on,55,0,240
3,note_on,66,82,0
3,note_on,66,0,25
3,note_on,58,70,0
3,note_on,58,0,80
3,note_on,64,77,0
3,note_on,64,0,80
3,note_on,54,68,0
3,note_on,54,0,240
3,note_on,69,86,0
3,note_on,69,0,28
3,note_on,63,72,0
3,note_on,63,0,80
3,note_on,66,79,0
3,note_on,66,0,80
3,note_on,57,73,0
3,note_on,57,0,240
3,note_on,72,86,0
3,note_on,72,0,28
3,note_on,66,74,0
3,note_on,66,0,80
3,note_on,69,79,0
3,note_on,69,0,80
3,note_on,60,74,0
3,note_on,60,0,240
3,note_on,78,89,0
3,note_on,78,0,31
3,note_on,69,76,0
3,note_on,69,0,80
3,note_on,72,84,0
3,note_on,72,0,80
3,note_on,63,76,0
3,note_on,63,0,240
3,note_on,78,85,0
3,note_on,78,0,80
3,note_on,69,78,0
3,note_on,69,0,80
3,note_on,72,87,0
3,note_on,72,0,80
3,note_on,63,78,0
3,note_on,63,0,240
3,note_on,78,88,0
3,note_on,78,0,20
3,note_on,69,78,0
3,note_on,69,0,80
3,note_on,72,87,0
3,note_on,72,0,80
3,note_on,62,77,0
3,note_on,62,0,240
3,note_on,78,90,0
3,note_on,78,0,80
3,note_on,69,81,0
3,note_on,69,0,80
3,note_on,72,87,0
3,note_on,72,0,80
3,note_on,62,77,0
3,note_on,62,0,240
3,note_on,78,89,0
3,note_on,78,0,45
3,note_on,69,76,0
3,note_on,69,0,80
3,note_on,73,83,0
3,note_on,73,0,80
3,note_on,61,75,0
3,note_on,61,0,240
3,note_on,76,87,0
3,note_on,76,0,40
3,note_on,68,77,0
3,note_on,68,0,80
3,note_on,73,83,0
3,note_on,73,0,80
3,note_on,61,74,0
3,note_on,61,0,240
3,note_on,73,87,0
3,note_on,73,0,34
3,note_on,64,77,0
3,note_on,64,0,80
3,note_on,69,84,0
3,note_on,69,0,80
3,note_on,57,76,0
3,note_on,57,0,240
3,note_on,69,80,0
3,note_on,69,0,28
3,note_on,61,73,0
3,note_on,61,0,80
3,note_on,66,79,0
3,note_on,66,0,80
3,note_on,54,74,0
3,note_on,54,0,240
3,note_on,64,84,0
3,note_on,64,0,34
3,note_on,56,68,0
3,note_on,56,0,80
3,note_on,61,78,0
3,note_on,61,0,80
3,note_on,49,67,0
3,note_on,49,0,240
3,note_on,62,78,0
3,note_on,62,0,37
3,note_on,54,67,0
3,note_on,54,0,80
3,note_on,57,74,0
3,note_on,57,0,80
3,note_on,50,68,0
3,note_on,50,0,240
3,note_on,61,78,0
3,note_on,61,0,28
3,note_on,52,70,0
3,note_on,52,0,80
3,note_on,57,79,0
3,note_on,57,0,80
3,note_on,45,67,0
3,note_on,45,0,240
3,note_on,59,77,0
3,note_on,59,0,31
3,note_on,50,67,0
3,note_on,50,0,80
3,note_on,55,77,0
3,note_on,55,0,80
3,note_on,47,69,0
3,note_on,47,0,240
3,note_on,57,81,0
3,note_on,57,0,30
3,note_on,45,67,0
3,note_on,45,0,80
3,note_on,49,75,0
3,note_on,49,0,80
3,note_on,37,66,0
3,note_on,37,0,240
3,note_on,57,82,0
3,note_on,57,0,80
3,note_on,45,66,0
3,note_on,45,0,80
3,note_on,49,76,0
3,note_on,49,0,80
3,note_on,37,68,0
3,note_on,37,0,240
3,note_on,56,80,0
3,note_on,56,0,37
3,note_on,45,67,0
3,note_on,45,0,80
3,note_on,49,73,0
3,note_on,49,0,80
3,note_on,37,68,0
3,note_on,37,0,240
3,note_on,54,78,0
3,note_on,54,0,30
3,note_on,45,68,0
3,note_on,45,0,80
3,note_on,49,77,0
3,note_on,49,0,80
3,note_on,37,70,0
3,note_on,37,0,240
3,note_on,54,75,0
3,note_on,54,0,34
3,note_on,44,63,0
3,note_on,44,0,80
3,note_on,49,64,0
3,note_on,49,0,80
3,note_on,37,57,0
3,note_on,37,0,240
3,note_on,54,73,0
3,note_on,54,0,80
3,note_on,44,61,0
3,note_on,44,0,80
3,note_on,49,66,0
3,note_on,49,0,80
3,note_on,37,58,0
3,note_on,37,0,240
3,note_on,53,75,0
3,note_on,53,0,43
3,note_on,44,64,0
3,note_on,44,0,80
3,note_on,49,69,0
3,note_on,49,0,80
3,note_on,37,56,0
3,note_on,37,0,240
3,note_on,53,74,0
3,note_on,53,0,31
3,note_on,44,54,0
3,note_on,44,0,80
3,note_on,49,60,0
3,note_on,49,0,80
3,note_on,37,49,0
3,note_on,37,0,240
3,note_on,57,49,0
3,note_on,57,0,30
3,note_on,49,39,0
3,note_on,49,0,80
3,note_on,54,45,0
3,note_on,54,0,80
3,note_on,42,38,0
3,note_on,42,0,240
3,note_on,57,49,0
3,note_on,57,0,80
3,note_on,49,39,0
3,note_on,49,0,80
3,note_on,54,44,0
3,note_on,54,0,80
3,note_on,42,37,0
3,note_on,42,0,240
3,note_on,57,49,0
3,note_on,57,0,80
3,note_on,49,39,0
3,note_on,49,0,80
3,note_on,54,45,0
3,note_on,54,0,80
3,note_on,42,38,0
3,note_on,42,0,240
3,note_on,57,49,0
3,note_on,57,0,80
3,note_on,49,39,0
3,note_on,49,0,80
3,note_on,54,49,0
3,note_on,54,0,80
3,note_on,42,45,0
3,note_on,42,0,240
3,note_on,54,49,0
3,note_on,54,0,28
3,note_on,42,41,0
3,note_on,42,0,80
3,note_on,47,49,0
3,note_on,47,0,80
3,note_on,35,39,0
3,note_on,35,0,240
3,note_on,54,49,0
3,note_on,54,0,80
3,note_on,42,40,0
3,note_on,42,0,80
3,note_on,47,45,0
3,note_on,47,0,80
3,note_on,35,39,0
3,note_on,35,0,240
3,note_on,54,49,0
3,note_on,54,0,80
3,note_on,42,41,0
3,note_on,42,0,80
3,note_on,47,49,0
3,note_on,47,0,80
3,note_on,35,39,0
3,note_on,35,0,240
3,note_on,54,50,0
3,note_on,54,0,80
3,note_on,42,41,0
3,note_on,42,0,80
3,note_on,47,46,0
3,note_on,47,0,80
3,note_on,35,40,0
3,note_on,35,0,240
3,note_on,58,39,0
3,note_on,58,0,28
3,note_on,49,36,0
3,note_on,49,0,80
3,note_on,54,37,0
3,note_on,54,0,80
3,note_on,42,35,0
3,note_on,42,0,240
3,note_on,58,39,0
3,note_on,58,0,80
3,note_on,49,35,0
3,note_on,49,0,80
3,note_on,54,36,0
3,note_on,54,0,80
3,note_on,42,34,0
3,note_on,42,0,240
3,note_on,58,39,0
3,note_on,58,0,80
3,note_on,49,34,0
3,note_on,49,0,80
3,note_on,54,37,0
3,note_on,54,0,80
3,note_on,42,31,0
3,note_on,42,0,240
3,note_on,58,39,0
3,note_on,58,0,80
3,note_on,49,31,0
3,note_on,49,0,80
3,note_on,54,38,0
3,note_on,54,0,80
3,note_on,42,33,0
3,note_on,42,0,240
3,note_on,54,39,0
3,note_on,54,0,43
3,note_on,42,34,0
3,note_on,42,0,80
3,note_on,47,36,0
3,note_on,47,0,80
3,note_on,35,33,0
3,note_on,35,0,240
3,note_on,54,39,0
3,note_on,54,0,80
3,note_on,42,34,0
3,note_on,42,0,80
3,note_on,47,37,0
3,note_on,47,0,80
3,note_on,35,33,0
3,note_on,35,0,240
3,note_on,54,38,0
3,note_on,54,0,80
3,note_on,42,36,0
3,note_on,42,0,80
3,note_on,47,38,0
3,note_on,47,0,80
3,note_on,35,34,0
3,note_on,35,0,240
3,note_on,54,40,0
3,note_on,54,0,80
3,note_on,42,34,0
3,note_on,42,0,80
3,note_on,47,39,0
3,note_on,47,0,80
3,note_on,35,36,0
3,note_on,35,0,240
3,note_on,58,39,0
3,note_on,58,0,14
3,note_on,49,34,0
3,note_on,49,0,80
3,note_on,54,38,0
3,note_on,54,0,80
3,note_on,42,34,0
3,note_on,42,0,240
3,note_on,58,39,0
3,note_on,58,0,80
3,note_on,49,31,0
3,note_on,49,0,80
3,note_on,54,37,0
3,note_on,54,0,80
3,note_on,42,31,0
3,note_on,42,0,240
3,note_on,58,39,0
3,note_on,58,0,80
3,note_on,49,34,0
3,note_on,49,0,80
3,note_on,54,39,0
3,note_on,54,0,80
3,note_on,42,35,0
3,note_on,42,0,240
3,note_on,58,39,0
3,note_on,58,0,80
3,note_on,49,34,0
3,note_on,49,0,80
3,note_on,54,38,0
3,note_on,54,0,80
3,note_on,42,34,0
3,note_on,42,0,240
3,note_on,57,39,0
3,note_on,57,0,16
3,note_on,49,33,0
3,note_on,49,0,80
3,note_on,54,37,0
3,note_on,54,0,80
3,note_on,42,35,0
3,note_on,42,0,240
3,note_on,57,39,0
3,note_on,57,0,80
3,note_on,49,35,0
3,note_on,49,0,80
3,note_on,54,39,0
3,note_on,54,0,80
3,note_on,42,36,0
3,note_on,42,0,240
3,note_on,57,37,0
3,note_on,57,0,80
3,note_on,49,34,0
3,note_on,49,0,80
3,note_on,54,37,0
3,note_on,54,0,80
3,note_on,42,33,0
3,note_on,42,0,240
3,note_on,57,35,0
3,note_on,57,0,80
3,note_on,49,30,0
3,note_on,49,0,80
3,note_on,54,34,0
3,note_on,54,0,80
3,note_on,42,31,0
3,note_on,42,0,240
3,note_on,45,31,0
3,note_on,52,31,0
3,note_on,57,37,0
3,note_on,57,0,662
3,note_on,52,0,0
3,note_on,45,0,0
3,note_on,47,27,0
3,note_on,55,32,0
3,note_on,55,0,314
3,note_on,47,0,0
3,note_on,49,23,0
3,note_on,56,28,0
3,note_on,56,0,331
3,note_on,49,0,0
3,note_on,42,31,51
3,note_on,49,31,120
3,note_on,57,31,120
3,note_on,57,0,1560
3,note_on,49,0,0
3,note_on,42,0,0
