Track,Message Type,Note,Velocity,Time
1,note_on,60,34,0
1,note_on,60,0,228
1,note_on,60,35,12
1,note_on,60,0,228
1,note_on,60,37,12
1,note_on,60,0,228
1,note_on,60,38,12
1,note_on,60,0,228
1,note_on,60,39,12
1,note_on,60,0,228
1,note_on,60,41,12
1,note_on,60,0,228
1,note_on,60,43,12
1,note_on,60,0,228
1,note_on,60,45,12
1,note_on,60,0,228
1,note_on,60,47,12
1,note_on,60,0,228
1,note_on,60,47,12
1,note_on,60,0,228
1,note_on,60,45,12
1,note_on,60,0,228
1,note_on,60,40,12
1,note_on,60,0,228
1,note_on,61,48,12
1,note_on,61,0,228
1,note_on,67,55,12
1,note_on,61,42,0
1,note_on,61,0,228
1,note_on,67,0,0
1,note_on,72,57,12
1,note_on,61,44,0
1,note_on,61,0,228
1,note_on,72,0,0
1,note_on,73,59,12
1,note_on,61,45,0
1,note_on,61,0,228
1,note_on,73,0,0
1,note_on,65,56,12
1,note_on,61,43,0
1,note_on,61,0,228
1,note_on,65,0,0
1,note_on,67,55,12
1,note_on,61,42,0
1,note_on,61,0,228
1,note_on,67,0,0
1,note_on,70,61,12
1,note_on,60,26,240
1,note_on,66,31,0
1,note_on,66,0,228
1,note_on,60,0,0
1,note_on,60,26,12
1,note_on,66,31,0
1,note_on,66,0,228
1,note_on,60,0,0
1,note_on,70,0,12
1,note_on,68,52,0
1,note_on,60,30,0
1,note_on,66,36,0
1,note_on,66,0,228
1,note_on,60,0,0
1,note_on,66,31,12
1,note_on,60,26,0
1,note_on,60,0,228
1,note_on,66,0,0
1,note_on,66,31,12
1,note_on,60,26,0
1,note_on,60,0,228
1,note_on,66,0,0
1,note_on,68,0,252
1,note_on,73,59,0
1,note_on,68,45,0
1,note_on,68,0,228
1,note_on,73,0,0
1,note_on,79,63,12
1,note_on,68,49,0
1,note_on,68,0,228
1,note_on,79,0,0
1,note_on,82,68,12
1,note_on,68,52,0
1,note_on,68,0,228
1,note_on,82,0,0
1,note_on,80,61,12
1,note_on,68,47,0
1,note_on,68,0,228
1,note_on,80,0,0
1,note_on,77,61,12
1,note_on,68,47,0
1,note_on,68,0,228
1,note_on,77,0,0
1,note_on,75,71,12
1,note_on,63,42,240
1,note_on,70,50,0
1,note_on,70,0,228
1,note_on,63,0,0
1,note_on,63,42,12
1,note_on,70,50,0
1,note_on,70,0,228
1,note_on,63,0,0
1,note_on,75,0,12
1,note_on,77,69,0
1,note_on,73,50,240
1,note_on,65,42,0
1,note_on,65,0,228
1,note_on,73,0,0
1,note_on,73,48,12
1,note_on,65,40,0
1,note_on,65,0,228
1,note_on,73,0,0
1,note_on,77,0,252
1,note_on,70,59,0
1,note_on,70,0,228
1,note_on,75,63,12
1,note_on,63,49,0
1,note_on,70,49,0
1,note_on,70,0,228
1,note_on,63,0,0
1,note_on,75,0,0
1,note_on,79,64,12
1,note_on,70,52,0
1,note_on,70,0,228
1,note_on,79,0,0
1,note_on,77,61,12
1,note_on,70,47,0
1,note_on,70,0,228
1,note_on,77,0,0
1,note_on,73,61,12
1,note_on,70,47,0
1,note_on,70,0,228
1,note_on,73,0,0
1,note_on,72,70,12
1,note_on,63,37,240
1,note_on,69,45,0
1,note_on,69,0,228
1,note_on,63,0,0
1,note_on,63,37,12
1,note_on,69,45,0
1,note_on,69,0,228
1,note_on,63,0,0
1,note_on,72,0,12
1,note_on,73,58,0
1,note_on,68,35,240
1,note_on,61,29,0
1,note_on,61,0,228
1,note_on,68,0,0
1,note_on,68,34,12
1,note_on,61,28,0
1,note_on,61,0,228
1,note_on,68,0,0
1,note_on,73,0,252
1,note_on,68,50,0
1,note_on,61,41,0
1,note_on,61,0,228
1,note_on,68,0,0
1,note_on,67,41,12
1,note_on,61,34,0
1,note_on,70,53,0
1,note_on,70,0,228
1,note_on,61,0,0
1,note_on,67,0,0
1,note_on,73,57,12
1,note_on,73,0,228
1,note_on,68,39,12
1,note_on,60,33,0
1,note_on,72,51,0
1,note_on,72,0,228
1,note_on,60,0,0
1,note_on,68,0,0
1,note_on,68,46,12
1,note_on,60,29,0
1,note_on,65,35,0
1,note_on,65,0,228
1,note_on,60,0,0
1,note_on,68,0,0
1,note_on,70,55,12
1,note_on,58,34,240
1,note_on,67,40,0
1,note_on,67,0,228
1,note_on,58,0,0
1,note_on,58,33,12
1,note_on,67,39,0
1,note_on,67,0,228
1,note_on,58,0,0
1,note_on,58,34,12
1,note_on,67,40,0
1,note_on,67,0,228
1,note_on,58,0,0
1,note_on,58,32,12
1,note_on,67,38,0
1,note_on,67,0,228
1,note_on,58,0,0
1,note_on,58,32,12
1,note_on,67,38,0
1,note_on,67,0,228
1,note_on,58,0,0
1,note_on,61,64,12
1,note_on,61,0,228
1,note_on,70,0,12
1,note_on,67,68,0
1,note_on,61,52,0
1,note_on,61,0,228
1,note_on,67,0,0
1,note_on,61,54,12
1,note_on,67,54,0
1,note_on,72,70,0
1,note_on,72,0,228
1,note_on,67,0,0
1,note_on,61,0,0
1,note_on,73,72,12
1,note_on,67,55,0
1,note_on,61,55,0
1,note_on,61,0,228
1,note_on,67,0,0
1,note_on,73,0,0
1,note_on,65,69,12
1,note_on,61,53,0
1,note_on,61,0,228
1,note_on,65,0,0
1,note_on,67,68,12
1,note_on,61,52,0
1,note_on,61,0,228
1,note_on,67,0,0
1,note_on,70,72,12
1,note_on,60,37,240
1,note_on,66,44,0
1,note_on,66,0,228
1,note_on,60,0,0
1,note_on,60,37,12
1,note_on,66,44,0
1,note_on,66,0,228
1,note_on,60,0,0
1,note_on,70,0,12
1,note_on,68,73,0
1,note_on,60,43,0
1,note_on,66,52,0
1,note_on,66,0,228
1,note_on,60,0,0
1,note_on,66,44,12
1,note_on,60,37,0
1,note_on,60,0,228
1,note_on,66,0,0
1,note_on,66,44,12
1,note_on,60,37,0
1,note_on,60,0,228
1,note_on,66,0,0
1,note_on,68,0,252
1,note_on,73,72,0
1,note_on,68,55,0
1,note_on,68,0,228
1,note_on,73,0,0
1,note_on,68,50,12
1,note_on,73,59,0
1,note_on,79,75,0
1,note_on,79,0,228
1,note_on,73,0,0
1,note_on,68,0,0
1,note_on,73,62,12
1,note_on,82,80,0
1,note_on,68,52,0
1,note_on,68,0,228
1,note_on,82,0,0
1,note_on,73,0,0
1,note_on,73,57,12
1,note_on,80,75,0
1,note_on,68,48,0
1,note_on,68,0,228
1,note_on,80,0,0
1,note_on,73,0,0
1,note_on,68,48,12
1,note_on,73,57,0
1,note_on,77,75,0
1,note_on,77,0,228
1,note_on,73,0,0
1,note_on,68,0,0
1,note_on,75,88,12
1,note_on,70,65,240
1,note_on,63,54,0
1,note_on,63,0,228
1,note_on,70,0,0
1,note_on,70,65,12
1,note_on,63,54,0
1,note_on,63,0,228
1,note_on,70,0,0
1,note_on,75,0,12
1,note_on,77,84,0
1,note_on,65,54,240
1,note_on,73,65,0
1,note_on,73,0,228
1,note_on,65,0,0
1,note_on,65,52,12
1,note_on,73,62,0
1,note_on,73,0,228
1,note_on,65,0,0
1,note_on,77,0,252
1,note_on,70,72,0
1,note_on,70,0,228
1,note_on,70,59,12
1,note_on,63,51,0
1,note_on,75,75,0
1,note_on,75,0,228
1,note_on,63,0,0
1,note_on,70,0,0
1,note_on,70,64,12
1,note_on,79,80,0
1,note_on,79,0,228
1,note_on,70,0,0
1,note_on,70,57,12
1,note_on,77,75,0
1,note_on,77,0,228
1,note_on,70,0,0
1,note_on,63,51,12
1,note_on,73,75,0
1,note_on,70,57,0
1,note_on,70,0,228
1,note_on,73,0,0
1,note_on,63,0,0
1,note_on,72,81,12
1,note_on,63,49,240
1,note_on,69,58,0
1,note_on,69,0,228
1,note_on,63,0,0
1,note_on,63,49,12
1,note_on,69,58,0
1,note_on,69,0,228
1,note_on,63,0,0
1,note_on,72,0,12
1,note_on,73,81,0
1,note_on,68,56,240
1,note_on,61,47,0
1,note_on,61,0,228
1,note_on,68,0,0
1,note_on,68,53,12
1,note_on,61,44,0
1,note_on,61,0,228
1,note_on,68,0,0
1,note_on,73,0,252
1,note_on,61,64,0
1,note_on,61,0,228
1,note_on,61,45,12
1,note_on,68,68,0
1,note_on,68,0,228
1,note_on,61,0,0
1,note_on,72,57,12
1,note_on,72,0,228
1,note_on,67,43,12
1,note_on,61,35,0
1,note_on,70,57,0
1,note_on,61,0,228
1,note_on,67,0,0
1,note_on,61,28,12
1,note_on,67,34,0
1,note_on,70,0,120
1,note_on,68,51,0
1,note_on,67,0,108
1,note_on,61,0,0
1,note_on,68,0,12
1,note_on,68,56,0
1,note_on,60,39,240
1,note_on,60,0,228
1,note_on,60,38,12
1,note_on,60,0,228
1,note_on,60,39,12
1,note_on,60,0,228
1,note_on,60,37,12
1,note_on,60,0,228
1,note_on,60,37,12
1,note_on,60,0,228
1,note_on,68,0,12
1,note_on,68,52,0
1,note_on,56,26,240
1,note_on,62,34,0
1,note_on,62,0,228
1,note_on,56,0,0
1,note_on,56,26,12
1,note_on,62,34,0
1,note_on,62,0,228
1,note_on,56,0,0
1,note_on,68,0,12
1,note_on,68,51,0
1,note_on,56,26,0
1,note_on,62,34,0
1,note_on,62,0,228
1,note_on,56,0,0
1,note_on,68,0,0
1,note_on,62,34,12
1,note_on,56,26,0
1,note_on,66,49,0
1,note_on,66,0,228
1,note_on,56,0,0
1,note_on,62,0,0
1,note_on,56,22,12
1,note_on,64,49,0
1,note_on,62,28,0
1,note_on,62,0,228
1,note_on,64,0,0
1,note_on,56,0,0
1,note_on,73,62,12
1,note_on,61,40,240
1,note_on,69,48,0
1,note_on,69,0,228
1,note_on,61,0,0
1,note_on,61,42,12
1,note_on,69,50,0
1,note_on,69,0,228
1,note_on,61,0,0
1,note_on,61,44,12
1,note_on,69,53,0
1,note_on,69,0,228
1,note_on,61,0,0
1,note_on,61,47,12
1,note_on,69,56,0
1,note_on,69,0,228
1,note_on,61,0,0
1,note_on,61,49,12
1,note_on,69,59,0
1,note_on,69,0,228
1,note_on,61,0,0
1,note_on,73,0,12
1,note_on,73,79,0
1,note_on,68,51,240
1,note_on,61,39,0
1,note_on,61,0,228
1,note_on,68,0,0
1,note_on,60,33,12
1,note_on,72,67,0
1,note_on,68,42,0
1,note_on,68,0,228
1,note_on,72,0,0
1,note_on,60,0,0
1,note_on,73,0,12
1,note_on,60,39,0
1,note_on,72,70,0
1,note_on,68,48,0
1,note_on,68,0,228
1,note_on,72,0,0
1,note_on,60,0,0
1,note_on,70,69,12
1,note_on,60,49,0
1,note_on,60,0,228
1,note_on,70,0,0
1,note_on,68,70,12
1,note_on,60,39,0
1,note_on,60,0,228
1,note_on,68,0,0
1,note_on,76,72,12
1,note_on,64,44,240
1,note_on,73,52,0
1,note_on,73,0,228
1,note_on,64,0,0
1,note_on,64,45,12
1,note_on,73,54,0
1,note_on,73,0,228
1,note_on,64,0,0
1,note_on,64,47,12
1,note_on,73,58,0
1,note_on,73,0,228
1,note_on,64,0,0
1,note_on,64,52,12
1,note_on,73,61,0
1,note_on,73,0,228
1,note_on,64,0,0
1,note_on,64,54,12
1,note_on,72,64,0
1,note_on,72,0,228
1,note_on,64,0,0
1,note_on,76,0,12
1,note_on,76,82,0
1,note_on,71,53,240
1,note_on,64,40,0
1,note_on,64,0,228
1,note_on,71,0,0
1,note_on,71,53,12
1,note_on,75,75,0
1,note_on,75,0,228
1,note_on,71,0,0
1,note_on,76,0,12
1,note_on,75,80,0
1,note_on,71,53,0
1,note_on,71,0,228
1,note_on,75,0,0
1,note_on,73,77,12
1,note_on,71,53,0
1,note_on,71,0,228
1,note_on,73,0,0
1,note_on,71,77,12
1,note_on,71,0,228
1,note_on,80,84,12
1,note_on,74,56,240
1,note_on,68,42,0
1,note_on,68,0,228
1,note_on,74,0,0
1,note_on,80,0,12
1,note_on,74,57,0
1,note_on,80,73,0
1,note_on,68,46,0
1,note_on,68,0,228
1,note_on,80,0,0
1,note_on,74,0,0
1,note_on,80,77,12
1,note_on,80,0,228
1,note_on,75,46,12
1,note_on,67,45,0
1,note_on,79,70,0
1,note_on,79,0,228
1,note_on,67,0,0
1,note_on,75,0,0
1,note_on,67,47,12
1,note_on,75,68,0
1,note_on,75,0,228
1,note_on,67,0,0
1,note_on,78,61,12
1,note_on,72,39,240
1,note_on,66,30,0
1,note_on,66,0,228
1,note_on,72,0,0
1,note_on,78,0,12
1,note_on,72,45,0
1,note_on,66,36,0
1,note_on,78,55,0
1,note_on,78,0,228
1,note_on,66,0,0
1,note_on,72,0,0
1,note_on,78,59,12
1,note_on,78,0,228
1,note_on,73,36,12
1,note_on,65,36,0
1,note_on,77,54,0
1,note_on,77,0,228
1,note_on,65,0,0
1,note_on,73,0,0
1,note_on,65,36,12
1,note_on,73,52,0
1,note_on,73,0,228
1,note_on,65,0,0
1,note_on,76,58,12
1,note_on,76,0,228
1,note_on,63,28,12
1,note_on,75,53,0
1,note_on,70,35,0
1,note_on,70,0,228
1,note_on,75,0,0
1,note_on,63,0,0
1,note_on,64,35,12
1,note_on,76,53,0
1,note_on,70,44,0
1,note_on,70,0,228
1,note_on,76,0,0
1,note_on,64,0,0
1,note_on,80,56,12
1,note_on,68,36,240
1,note_on,76,36,0
1,note_on,76,0,228
1,note_on,68,0,0
1,note_on,80,0,12
1,note_on,78,52,0
1,note_on,71,44,0
1,note_on,66,36,0
1,note_on,66,0,228
1,note_on,71,0,0
1,note_on,78,0,0
1,note_on,76,55,12
1,note_on,64,29,240
1,note_on,71,35,0
1,note_on,71,0,228
1,note_on,64,0,0
1,note_on,64,30,12
1,note_on,71,36,0
1,note_on,71,0,228
1,note_on,64,0,0
1,note_on,64,31,12
1,note_on,71,37,0
1,note_on,71,0,228
1,note_on,64,0,0
1,note_on,64,32,12
1,note_on,71,39,0
1,note_on,71,0,228
1,note_on,64,0,0
1,note_on,64,33,12
1,note_on,71,40,0
1,note_on,71,0,228
1,note_on,64,0,0
1,note_on,76,0,252
1,note_on,76,60,0
1,note_on,72,46,0
1,note_on,64,46,0
1,note_on,64,0,228
1,note_on,72,0,0
1,note_on,76,0,0
1,note_on,63,44,12
1,note_on,75,57,0
1,note_on,72,44,0
1,note_on,72,0,228
1,note_on,75,0,0
1,note_on,63,0,0
1,note_on,66,50,12
1,note_on,78,64,0
1,note_on,72,50,0
1,note_on,72,0,228
1,note_on,78,0,0
1,note_on,66,0,0
1,note_on,64,45,12
1,note_on,72,45,0
1,note_on,76,58,0
1,note_on,76,0,228
1,note_on,72,0,0
1,note_on,64,0,0
1,note_on,64,45,12
1,note_on,72,59,0
1,note_on,72,0,228
1,note_on,64,0,0
1,note_on,76,62,12
1,note_on,71,39,240
1,note_on,64,33,0
1,note_on,64,0,228
1,note_on,71,0,0
1,note_on,71,40,12
1,note_on,64,34,0
1,note_on,64,0,228
1,note_on,71,0,0
1,note_on,71,42,12
1,note_on,64,35,0
1,note_on,64,0,228
1,note_on,71,0,0
1,note_on,71,44,12
1,note_on,64,36,0
1,note_on,64,0,228
1,note_on,71,0,0
1,note_on,71,45,12
1,note_on,64,37,0
1,note_on,64,0,228
1,note_on,71,0,0
1,note_on,76,0,252
1,note_on,64,46,0
1,note_on,72,46,0
1,note_on,76,60,0
1,note_on,76,0,228
1,note_on,72,0,0
1,note_on,64,0,0
1,note_on,72,44,12
1,note_on,75,57,0
1,note_on,63,44,0
1,note_on,63,0,228
1,note_on,75,0,0
1,note_on,72,0,0
1,note_on,72,50,12
1,note_on,66,50,0
1,note_on,78,64,0
1,note_on,78,0,228
1,note_on,66,0,0
1,note_on,72,0,0
1,note_on,72,45,12
1,note_on,76,58,0
1,note_on,64,45,0
1,note_on,64,0,228
1,note_on,76,0,0
1,note_on,72,0,0
1,note_on,72,59,12
1,note_on,64,45,0
1,note_on,64,0,228
1,note_on,72,0,0
1,note_on,76,62,12
1,note_on,64,33,240
1,note_on,71,39,0
1,note_on,71,0,228
1,note_on,64,0,0
1,note_on,64,34,12
1,note_on,71,40,0
1,note_on,71,0,228
1,note_on,64,0,0
1,note_on,64,35,12
1,note_on,71,42,0
1,note_on,71,0,228
1,note_on,64,0,0
1,note_on,64,36,12
1,note_on,71,44,0
1,note_on,71,0,228
1,note_on,64,0,0
1,note_on,64,37,12
1,note_on,71,45,0
1,note_on,71,0,228
1,note_on,64,0,0
1,note_on,64,35,12
1,note_on,71,42,0
1,note_on,71,0,228
1,note_on,64,0,0
1,note_on,64,33,12
1,note_on,71,39,0
1,note_on,71,0,228
1,note_on,64,0,0
1,note_on,64,35,12
1,note_on,71,41,0
1,note_on,71,0,228
1,note_on,64,0,0
1,note_on,76,0,12
1,note_on,71,49,0
1,note_on,75,64,0
1,note_on,63,40,0
1,note_on,63,0,228
1,note_on,71,0,0
1,note_on,71,51,12
1,note_on,63,43,0
1,note_on,63,0,228
1,note_on,71,0,0
1,note_on,75,0,12
1,note_on,63,45,0
1,note_on,75,67,0
1,note_on,71,54,0
1,note_on,71,0,228
1,note_on,75,0,0
1,note_on,63,0,0
1,note_on,71,51,12
1,note_on,75,71,0
1,note_on,63,42,0
1,note_on,63,0,228
1,note_on,71,0,0
1,note_on,71,48,12
1,note_on,63,40,0
1,note_on,63,0,228
1,note_on,71,0,0
1,note_on,71,50,12
1,note_on,63,42,0
1,note_on,63,0,228
1,note_on,71,0,0
1,note_on,71,53,12
1,note_on,63,44,0
1,note_on,63,0,228
1,note_on,71,0,0
1,note_on,71,56,12
1,note_on,63,47,0
1,note_on,63,0,228
1,note_on,71,0,0
1,note_on,71,59,12
1,note_on,63,49,0
1,note_on,63,0,228
1,note_on,71,0,0
1,note_on,75,0,12
1,note_on,62,39,0
1,note_on,74,78,0
1,note_on,71,56,0
1,note_on,71,0,228
1,note_on,62,0,0
1,note_on,71,60,12
1,note_on,68,60,0
1,note_on,62,51,0
1,note_on,62,0,228
1,note_on,68,0,0
1,note_on,71,0,0
1,note_on,62,53,12
1,note_on,68,63,0
1,note_on,71,63,0
1,note_on,71,0,228
1,note_on,68,0,0
1,note_on,62,0,0
1,note_on,68,67,12
1,note_on,71,67,0
1,note_on,62,56,0
1,note_on,62,0,228
1,note_on,71,0,0
1,note_on,68,0,0
1,note_on,62,59,12
1,note_on,68,69,0
1,note_on,71,69,0
1,note_on,71,0,228
1,note_on,68,0,0
1,note_on,62,0,0
1,note_on,71,73,12
1,note_on,68,73,0
1,note_on,62,61,0
1,note_on,62,0,228
1,note_on,68,0,0
1,note_on,71,0,0
1,note_on,74,0,12
1,note_on,67,81,0
1,note_on,61,74,0
1,note_on,61,0,228
1,note_on,67,0,0
1,note_on,67,78,12
1,note_on,61,59,0
1,note_on,61,0,228
1,note_on,67,0,0
1,note_on,67,62,12
1,note_on,72,80,0
1,note_on,61,62,0
1,note_on,61,0,228
1,note_on,72,0,0
1,note_on,67,0,0
1,note_on,61,63,12
1,note_on,67,63,0
1,note_on,73,82,0
1,note_on,73,0,228
1,note_on,67,0,0
1,note_on,61,0,0
1,note_on,61,60,12
1,note_on,65,79,0
1,note_on,65,0,228
1,note_on,61,0,0
1,note_on,61,59,12
1,note_on,67,78,0
1,note_on,67,0,228
1,note_on,61,0,0
1,note_on,70,86,12
1,note_on,66,50,240
1,note_on,60,42,0
1,note_on,60,0,228
1,note_on,66,0,0
1,note_on,66,50,12
1,note_on,60,42,0
1,note_on,60,0,228
1,note_on,66,0,0
1,note_on,70,0,12
1,note_on,66,59,0
1,note_on,60,49,0
1,note_on,68,84,0
1,note_on,60,0,228
1,note_on,66,0,0
1,note_on,60,42,12
1,note_on,66,50,0
1,note_on,66,0,228
1,note_on,60,0,0
1,note_on,60,42,12
1,note_on,66,50,0
1,note_on,66,0,228
1,note_on,60,0,0
1,note_on,68,0,252
1,note_on,68,63,0
1,note_on,73,82,0
1,note_on,73,0,228
1,note_on,68,0,0
1,note_on,73,67,12
1,note_on,79,86,0
1,note_on,68,57,0
1,note_on,68,0,228
1,note_on,79,0,0
1,note_on,73,0,0
1,note_on,68,59,12
1,note_on,73,71,0
1,note_on,82,91,0
1,note_on,82,0,228
1,note_on,73,0,0
1,note_on,68,0,0
1,note_on,80,86,12
1,note_on,73,65,0
1,note_on,68,55,0
1,note_on,68,0,228
1,note_on,73,0,0
1,note_on,80,0,0
1,note_on,68,55,12
1,note_on,73,65,0
1,note_on,77,86,0
1,note_on,77,0,228
1,note_on,73,0,0
1,note_on,68,0,0
1,note_on,75,101,12
1,note_on,70,74,240
1,note_on,63,62,0
1,note_on,63,0,228
1,note_on,70,0,0
1,note_on,70,74,12
1,note_on,63,62,0
1,note_on,63,0,228
1,note_on,70,0,0
1,note_on,75,0,12
1,note_on,77,96,0
1,note_on,65,62,240
1,note_on,73,74,0
1,note_on,73,0,228
1,note_on,65,0,0
1,note_on,65,59,12
1,note_on,73,71,0
1,note_on,73,0,228
1,note_on,65,0,0
1,note_on,77,0,252
1,note_on,70,82,0
1,note_on,70,0,228
1,note_on,70,67,12
1,note_on,63,58,0
1,note_on,75,86,0
1,note_on,75,0,228
1,note_on,63,0,0
1,note_on,70,0,0
1,note_on,70,69,12
1,note_on,79,89,0
1,note_on,79,0,228
1,note_on,70,0,0
1,note_on,70,65,12
1,note_on,77,86,0
1,note_on,77,0,228
1,note_on,70,0,0
1,note_on,73,86,12
1,note_on,63,38,0
1,note_on,70,65,0
1,note_on,70,0,228
1,note_on,63,0,0
1,note_on,73,0,0
1,note_on,72,96,12
1,note_on,63,56,240
1,note_on,69,66,0
1,note_on,69,0,228
1,note_on,63,0,0
1,note_on,63,56,12
1,note_on,69,66,0
1,note_on,69,0,228
1,note_on,63,0,0
1,note_on,72,0,12
1,note_on,73,95,0
1,note_on,68,64,240
1,note_on,61,54,0
1,note_on,61,0,228
1,note_on,68,0,0
1,note_on,68,61,12
1,note_on,61,50,0
1,note_on,61,0,228
1,note_on,68,0,0
1,note_on,73,0,252
1,note_on,68,66,0
1,note_on,61,54,0
1,note_on,61,0,228
1,note_on,68,0,0
1,note_on,61,45,12
1,note_on,67,45,0
1,note_on,70,69,0
1,note_on,70,0,228
1,note_on,67,0,0
1,note_on,61,0,0
1,note_on,61,54,12
1,note_on,73,69,0
1,note_on,68,54,0
1,note_on,68,0,228
1,note_on,73,0,0
1,note_on,61,0,0
1,note_on,68,52,12
1,note_on,60,43,0
1,note_on,72,69,0
1,note_on,72,0,228
1,note_on,60,0,0
1,note_on,68,0,0
1,note_on,65,46,12
1,note_on,68,61,0
1,note_on,60,37,0
1,note_on,60,0,228
1,note_on,68,0,0
1,note_on,65,0,0
1,note_on,70,70,12
1,note_on,58,37,240
1,note_on,67,43,0
1,note_on,67,0,228
1,note_on,58,0,0
1,note_on,58,36,12
1,note_on,67,42,0
1,note_on,67,0,228
1,note_on,58,0,0
1,note_on,58,37,12
1,note_on,67,43,0
1,note_on,67,0,228
1,note_on,58,0,0
1,note_on,58,33,12
1,note_on,67,39,0
1,note_on,67,0,228
1,note_on,58,0,0
1,note_on,58,31,12
1,note_on,67,37,0
1,note_on,67,0,228
1,note_on,58,0,0
1,note_on,70,0,12
1,note_on,71,52,0
1,note_on,66,34,240
1,note_on,59,26,0
1,note_on,59,0,228
1,note_on,66,0,0
1,note_on,66,34,12
1,note_on,59,26,0
1,note_on,71,0,120
1,note_on,71,34,0
1,note_on,71,0,60
1,note_on,73,34,0
1,note_on,59,0,48
1,note_on,66,0,0
1,note_on,73,0,12
1,note_on,66,34,0
1,note_on,59,26,0
1,note_on,71,51,0
1,note_on,71,0,228
1,note_on,59,0,0
1,note_on,66,0,0
1,note_on,70,49,12
1,note_on,58,26,0
1,note_on,66,34,0
1,note_on,66,0,228
1,note_on,58,0,0
1,note_on,70,0,0
1,note_on,66,28,12
1,note_on,59,22,0
1,note_on,71,49,0
1,note_on,71,0,228
1,note_on,59,0,0
1,note_on,66,0,0
1,note_on,73,52,12
1,note_on,68,33,240
1,note_on,61,28,0
1,note_on,61,0,228
1,note_on,68,0,0
1,note_on,68,34,12
1,note_on,61,28,0
1,note_on,61,0,228
1,note_on,68,0,0
1,note_on,73,0,12
1,note_on,59,27,0
1,note_on,71,51,0
1,note_on,68,32,0
1,note_on,68,0,228
1,note_on,59,0,0
1,note_on,68,37,12
1,note_on,68,0,228
1,note_on,71,0,12
1,note_on,68,38,0
1,note_on,68,0,228
1,note_on,71,56,12
1,note_on,71,0,228
1,note_on,71,47,12
1,note_on,66,36,0
1,note_on,66,0,228
1,note_on,71,0,0
1,note_on,73,60,12
1,note_on,71,47,0
1,note_on,66,47,0
1,note_on,66,0,228
1,note_on,71,0,0
1,note_on,73,0,0
1,note_on,66,36,12
1,note_on,75,63,0
1,note_on,71,47,0
1,note_on,71,0,228
1,note_on,75,0,0
1,note_on,66,0,0
1,note_on,66,47,12
1,note_on,76,67,0
1,note_on,71,47,0
1,note_on,71,0,228
1,note_on,76,0,0
1,note_on,66,0,0
1,note_on,71,47,12
1,note_on,78,67,0
1,note_on,66,38,0
1,note_on,66,0,228
1,note_on,78,0,0
1,note_on,71,0,0
1,note_on,80,72,12
1,note_on,68,40,240
1,note_on,76,48,0
1,note_on,76,0,228
1,note_on,68,0,0
1,note_on,68,41,12
1,note_on,76,49,0
1,note_on,76,0,228
1,note_on,68,0,0
1,note_on,68,42,12
1,note_on,76,51,0
1,note_on,76,0,228
1,note_on,68,0,0
1,note_on,76,53,12
1,note_on,71,45,0
1,note_on,68,45,0
1,note_on,68,0,228
1,note_on,71,0,0
1,note_on,76,0,0
1,note_on,68,46,12
1,note_on,71,45,0
1,note_on,76,55,0
1,note_on,76,0,228
1,note_on,71,0,0
1,note_on,68,0,0
1,note_on,80,0,252
1,note_on,61,31,0
1,note_on,61,0,228
1,note_on,61,31,12
1,note_on,68,31,0
1,note_on,73,40,0
1,note_on,73,0,119
1,note_on,73,40,1
1,note_on,73,0,60
1,note_on,75,40,0
1,note_on,68,0,48
1,note_on,61,0,0
1,note_on,75,0,12
1,note_on,73,61,0
1,note_on,61,31,0
1,note_on,68,40,0
1,note_on,68,0,228
1,note_on,61,0,0
1,note_on,73,0,0
1,note_on,68,38,12
1,note_on,60,31,0
1,note_on,72,56,0
1,note_on,72,0,228
1,note_on,60,0,0
1,note_on,68,0,0
1,note_on,61,27,12
1,note_on,73,58,0
1,note_on,68,33,0
1,note_on,68,0,228
1,note_on,73,0,0
1,note_on,61,0,0
1,note_on,75,62,12
1,note_on,61,33,240
1,note_on,70,39,0
1,note_on,70,0,228
1,note_on,61,0,0
1,note_on,61,34,12
1,note_on,70,40,0
1,note_on,70,0,228
1,note_on,61,0,0
1,note_on,75,0,12
1,note_on,73,60,0
1,note_on,70,38,0
1,note_on,61,32,0
1,note_on,61,0,228
1,note_on,70,0,0
1,note_on,70,44,12
1,note_on,61,32,0
1,note_on,61,0,228
1,note_on,70,0,0
1,note_on,70,45,12
1,note_on,61,32,0
1,note_on,61,0,228
1,note_on,70,0,0
1,note_on,73,0,12
1,note_on,73,56,0
1,note_on,73,0,228
1,note_on,65,36,12
1,note_on,73,47,0
1,note_on,71,36,0
1,note_on,71,0,228
1,note_on,73,0,0
1,note_on,65,0,0
1,note_on,75,60,12
1,note_on,71,47,0
1,note_on,65,47,0
1,note_on,65,0,228
1,note_on,71,0,0
1,note_on,75,0,0
1,note_on,77,63,12
1,note_on,65,36,0
1,note_on,71,47,0
1,note_on,71,0,228
1,note_on,65,0,0
1,note_on,77,0,0
1,note_on,78,67,12
1,note_on,71,47,0
1,note_on,73,47,0
1,note_on,66,47,0
1,note_on,66,0,228
1,note_on,78,0,0
1,note_on,71,0,0
1,note_on,73,0,0
1,note_on,80,67,12
1,note_on,71,47,0
1,note_on,73,47,0
1,note_on,68,38,0
1,note_on,68,0,228
1,note_on,80,0,0
1,note_on,71,0,0
1,note_on,73,0,0
1,note_on,82,72,12
1,note_on,70,50,240
1,note_on,78,59,0
1,note_on,78,0,228
1,note_on,70,0,0
1,note_on,70,46,12
1,note_on,78,55,0
1,note_on,78,0,228
1,note_on,70,0,0
1,note_on,78,62,12
1,note_on,73,52,0
1,note_on,70,52,0
1,note_on,70,0,228
1,note_on,73,0,0
1,note_on,78,0,0
1,note_on,70,56,12
1,note_on,73,56,0
1,note_on,78,66,0
1,note_on,78,0,228
1,note_on,73,0,0
1,note_on,70,0,0
1,note_on,73,59,12
1,note_on,78,70,0
1,note_on,70,59,0
1,note_on,70,0,228
1,note_on,78,0,0
1,note_on,73,0,0
1,note_on,82,0,12
1,note_on,83,78,0
1,note_on,69,48,240
1,note_on,78,58,0
1,note_on,71,48,0
1,note_on,71,0,228
1,note_on,78,0,0
1,note_on,69,0,0
1,note_on,71,48,12
1,note_on,69,48,0
1,note_on,78,58,0
1,note_on,78,0,228
1,note_on,69,0,0
1,note_on,71,0,0
1,note_on,83,0,12
1,note_on,80,74,0
1,note_on,76,57,240
1,note_on,68,48,0
1,note_on,68,0,228
1,note_on,76,0,0
1,note_on,76,57,12
1,note_on,68,48,0
1,note_on,68,0,228
1,note_on,76,0,0
1,note_on,80,0,12
1,note_on,82,74,0
1,note_on,68,44,240
1,note_on,77,55,0
1,note_on,77,0,228
1,note_on,68,0,0
1,note_on,68,44,12
1,note_on,77,55,0
1,note_on,77,0,228
1,note_on,68,0,0
1,note_on,82,0,12
1,note_on,79,70,0
1,note_on,75,52,240
1,note_on,67,43,0
1,note_on,67,0,228
1,note_on,75,0,0
1,note_on,75,52,12
1,note_on,67,43,0
1,note_on,67,0,228
1,note_on,75,0,0
1,note_on,79,0,12
1,note_on,81,66,0
1,note_on,67,42,240
1,note_on,76,51,0
1,note_on,76,0,228
1,note_on,67,0,0
1,note_on,67,42,12
1,note_on,76,51,0
1,note_on,76,0,228
1,note_on,67,0,0
1,note_on,81,0,12
1,note_on,78,63,0
1,note_on,74,48,240
1,note_on,66,40,0
1,note_on,66,0,228
1,note_on,74,0,0
1,note_on,73,48,12
1,note_on,66,40,0
1,note_on,66,0,228
1,note_on,73,0,0
1,note_on,72,56,12
1,note_on,66,47,0
1,note_on,66,0,228
1,note_on,72,0,0
1,note_on,69,49,12
1,note_on,66,49,0
1,note_on,72,58,0
1,note_on,72,0,228
1,note_on,66,0,0
1,note_on,69,0,0
1,note_on,66,51,12
1,note_on,73,60,0
1,note_on,69,51,0
1,note_on,69,0,228
1,note_on,73,0,0
1,note_on,66,0,0
1,note_on,69,52,12
1,note_on,66,52,0
1,note_on,74,62,0
1,note_on,74,0,228
1,note_on,66,0,0
1,note_on,69,0,0
1,note_on,74,64,12
1,note_on,66,54,0
1,note_on,69,54,0
1,note_on,69,0,228
1,note_on,66,0,0
1,note_on,74,0,0
1,note_on,69,56,12
1,note_on,66,56,0
1,note_on,75,66,0
1,note_on,75,0,228
1,note_on,66,0,0
1,note_on,69,0,0
1,note_on,78,0,12
1,note_on,79,77,0
1,note_on,67,39,240
1,note_on,75,51,0
1,note_on,75,0,228
1,note_on,67,0,0
1,note_on,67,45,12
1,note_on,75,55,0
1,note_on,75,0,228
1,note_on,67,0,0
1,note_on,67,48,12
1,note_on,73,48,0
1,note_on,73,0,228
1,note_on,67,0,0
1,note_on,79,0,12
1,note_on,73,56,0
1,note_on,80,66,0
1,note_on,67,48,0
1,note_on,67,0,228
1,note_on,80,0,0
1,note_on,73,0,0
1,note_on,73,49,12
1,note_on,67,49,0
1,note_on,76,64,0
1,note_on,76,0,228
1,note_on,67,0,0
1,note_on,73,0,0
1,note_on,79,69,12
1,note_on,79,0,120
1,note_on,77,54,0
1,note_on,77,0,60
1,note_on,79,49,0
1,note_on,79,0,60
1,note_on,68,53,0
1,note_on,77,62,0
1,note_on,74,51,0
1,note_on,74,0,228
1,note_on,77,0,0
1,note_on,68,0,0
1,note_on,68,35,12
1,note_on,76,64,0
1,note_on,74,44,0
1,note_on,74,0,228
1,note_on,76,0,0
1,note_on,68,0,0
1,note_on,74,55,12
1,note_on,68,57,0
1,note_on,77,64,0
1,note_on,77,0,228
1,note_on,68,0,0
1,note_on,74,0,0
1,note_on,68,51,12
1,note_on,79,60,0
1,note_on,74,51,0
1,note_on,74,0,228
1,note_on,79,0,0
1,note_on,68,0,0
1,note_on,74,63,12
1,note_on,68,51,0
1,note_on,68,0,228
1,note_on,74,0,0
1,note_on,75,62,12
1,note_on,63,35,240
1,note_on,70,41,0
1,note_on,70,0,228
1,note_on,63,0,0
1,note_on,63,36,12
1,note_on,70,42,0
1,note_on,70,0,228
1,note_on,63,0,0
1,note_on,63,37,12
1,note_on,70,44,0
1,note_on,70,0,228
1,note_on,63,0,0
1,note_on,63,38,12
1,note_on,70,46,0
1,note_on,70,0,228
1,note_on,63,0,0
1,note_on,63,39,12
1,note_on,70,47,0
1,note_on,70,0,228
1,note_on,63,0,0
1,note_on,63,45,12
1,note_on,71,48,0
1,note_on,71,0,228
1,note_on,63,0,0
1,note_on,75,0,12
1,note_on,75,60,0
1,note_on,71,46,0
1,note_on,63,46,0
1,note_on,63,0,228
1,note_on,71,0,0
1,note_on,75,0,0
1,note_on,62,44,12
1,note_on,74,57,0
1,note_on,71,44,0
1,note_on,71,0,228
1,note_on,74,0,0
1,note_on,62,0,0
1,note_on,65,48,12
1,note_on,77,62,0
1,note_on,71,48,0
1,note_on,71,0,228
1,note_on,77,0,0
1,note_on,65,0,0
1,note_on,63,45,12
1,note_on,71,45,0
1,note_on,75,58,0
1,note_on,75,0,228
1,note_on,71,0,0
1,note_on,63,0,0
1,note_on,63,45,12
1,note_on,71,59,0
1,note_on,71,0,228
1,note_on,63,0,0
1,note_on,75,62,12
1,note_on,70,41,240
1,note_on,63,35,0
1,note_on,63,0,228
1,note_on,70,0,0
1,note_on,70,42,12
1,note_on,63,36,0
1,note_on,63,0,228
1,note_on,70,0,0
1,note_on,70,44,12
1,note_on,63,37,0
1,note_on,63,0,228
1,note_on,70,0,0
1,note_on,70,46,12
1,note_on,63,38,0
1,note_on,63,0,228
1,note_on,70,0,0
1,note_on,70,47,12
1,note_on,63,39,0
1,note_on,63,0,228
1,note_on,70,0,0
1,note_on,71,48,12
1,note_on,63,45,0
1,note_on,63,0,228
1,note_on,71,0,0
1,note_on,75,0,12
1,note_on,63,39,0
1,note_on,71,39,0
1,note_on,75,51,0
1,note_on,75,0,228
1,note_on,71,0,0
1,note_on,63,0,0
1,note_on,74,48,12
1,note_on,71,37,0
1,note_on,62,37,0
1,note_on,62,0,228
1,note_on,71,0,0
1,note_on,74,0,0
1,note_on,71,40,12
1,note_on,65,40,0
1,note_on,77,52,0
1,note_on,77,0,228
1,note_on,65,0,0
1,note_on,71,0,0
1,note_on,75,49,12
1,note_on,71,38,0
1,note_on,63,38,0
1,note_on,63,0,228
1,note_on,71,0,0
1,note_on,75,0,0
1,note_on,71,50,12
1,note_on,63,38,0
1,note_on,63,0,228
1,note_on,71,0,0
1,note_on,75,47,12
1,note_on,63,23,240
1,note_on,70,28,0
1,note_on,70,0,228
1,note_on,63,0,0
1,note_on,63,24,12
1,note_on,70,29,0
1,note_on,70,0,228
1,note_on,63,0,0
1,note_on,63,25,12
1,note_on,70,30,0
1,note_on,70,0,228
1,note_on,63,0,0
1,note_on,63,26,12
1,note_on,70,31,0
1,note_on,70,0,228
1,note_on,63,0,0
1,note_on,63,28,12
1,note_on,70,33,0
1,note_on,70,0,228
1,note_on,63,0,0
1,note_on,63,28,12
1,note_on,70,34,0
1,note_on,70,0,228
1,note_on,63,0,0
1,note_on,63,28,12
1,note_on,70,34,0
1,note_on,70,0,228
1,note_on,63,0,0
1,note_on,63,31,12
1,note_on,70,37,0
1,note_on,70,0,228
1,note_on,63,0,0
1,note_on,63,32,12
1,note_on,70,39,0
1,note_on,70,0,228
1,note_on,63,0,0
1,note_on,63,34,12
1,note_on,70,39,0
1,note_on,70,0,228
1,note_on,63,0,0
1,note_on,63,35,12
1,note_on,70,42,0
1,note_on,70,0,228
1,note_on,63,0,0
1,note_on,75,0,12
1,note_on,63,35,0
1,note_on,70,43,0
1,note_on,70,0,228
1,note_on,63,0,0
1,note_on,63,35,12
1,note_on,70,42,0
1,note_on,70,0,228
1,note_on,63,0,0
1,note_on,63,34,12
1,note_on,70,41,0
1,note_on,70,0,228
1,note_on,63,0,0
1,note_on,63,33,12
1,note_on,70,39,0
1,note_on,70,0,228
1,note_on,63,0,0
1,note_on,63,32,12
1,note_on,70,39,0
1,note_on,70,0,228
1,note_on,63,0,0
1,note_on,63,30,12
1,note_on,70,36,0
1,note_on,70,0,228
1,note_on,63,0,0
1,note_on,63,29,12
1,note_on,70,35,0
1,note_on,70,0,228
1,note_on,63,0,0
1,note_on,63,28,12
1,note_on,70,34,0
1,note_on,70,0,228
1,note_on,63,0,0
1,note_on,63,28,12
1,note_on,70,33,0
1,note_on,70,0,228
1,note_on,63,0,0
1,note_on,63,26,12
1,note_on,70,32,0
1,note_on,70,0,228
1,note_on,63,0,0
1,note_on,63,24,12
1,note_on,70,29,0
1,note_on,70,0,228
1,note_on,63,0,0
1,note_on,63,23,12
1,note_on,70,28,0
1,note_on,70,0,480
1,note_on,63,0,0
1,note_on,70,39,0
1,note_on,63,28,0
1,note_on,63,0,228
1,note_on,70,0,0
1,note_on,72,39,12
1,note_on,63,29,0
1,note_on,63,0,228
1,note_on,72,0,0
1,note_on,63,30,12
1,note_on,73,41,0
1,note_on,73,0,228
1,note_on,63,0,0
1,note_on,61,28,12
1,note_on,65,39,0
1,note_on,65,0,228
1,note_on,61,0,0
1,note_on,61,28,12
1,note_on,67,39,0
1,note_on,67,0,228
1,note_on,61,0,0
1,note_on,60,19,12
1,note_on,70,42,0
1,note_on,60,0,228
1,note_on,60,19,12
1,note_on,60,0,228
1,note_on,60,19,12
1,note_on,60,0,228
1,note_on,70,0,12
1,note_on,60,22,0
1,note_on,68,40,0
1,note_on,60,0,228
1,note_on,60,19,12
1,note_on,60,0,228
1,note_on,60,19,12
1,note_on,60,0,228
1,note_on,68,0,12
1,note_on,68,30,240
1,note_on,73,41,0
1,note_on,73,0,228
1,note_on,68,0,0
1,note_on,73,33,12
1,note_on,79,44,0
1,note_on,68,33,0
1,note_on,68,0,228
1,note_on,79,0,0
1,note_on,73,0,0
1,note_on,68,34,12
1,note_on,73,34,0
1,note_on,82,47,0
1,note_on,82,0,228
1,note_on,73,0,0
1,note_on,68,0,0
1,note_on,80,42,12
1,note_on,73,31,0
1,note_on,68,31,0
1,note_on,68,0,228
1,note_on,73,0,0
1,note_on,80,0,0
1,note_on,68,31,12
1,note_on,73,31,0
1,note_on,77,42,0
1,note_on,77,0,228
1,note_on,73,0,0
1,note_on,68,0,0
1,note_on,63,31,12
1,note_on,75,49,0
1,note_on,70,37,0
1,note_on,70,0,228
1,note_on,63,0,0
1,note_on,70,37,12
1,note_on,63,31,0
1,note_on,63,0,228
1,note_on,70,0,0
1,note_on,70,37,12
1,note_on,63,31,0
1,note_on,63,0,228
1,note_on,70,0,0
1,note_on,75,0,12
1,note_on,73,37,0
1,note_on,65,31,0
1,note_on,77,48,0
1,note_on,65,0,228
1,note_on,73,0,0
1,note_on,65,31,12
1,note_on,73,37,0
1,note_on,73,0,228
1,note_on,65,0,0
1,note_on,65,30,12
1,note_on,73,36,0
1,note_on,73,0,228
1,note_on,65,0,0
1,note_on,77,0,12
1,note_on,63,33,240
1,note_on,70,41,0
1,note_on,70,0,228
1,note_on,63,0,0
1,note_on,75,44,12
1,note_on,70,33,0
1,note_on,70,0,228
1,note_on,75,0,0
1,note_on,79,47,12
1,note_on,70,34,0
1,note_on,70,0,228
1,note_on,79,0,0
1,note_on,77,42,12
1,note_on,70,31,0
1,note_on,70,0,228
1,note_on,77,0,0
1,note_on,73,42,12
1,note_on,70,31,0
1,note_on,70,0,228
1,note_on,73,0,0
1,note_on,68,34,12
1,note_on,63,28,0
1,note_on,72,49,0
1,note_on,63,0,228
1,note_on,68,0,0
1,note_on,63,28,12
1,note_on,68,34,0
1,note_on,68,0,228
1,note_on,63,0,0
1,note_on,63,28,12
1,note_on,68,34,0
1,note_on,68,0,228
1,note_on,63,0,0
1,note_on,72,0,12
1,note_on,61,28,0
1,note_on,73,48,0
1,note_on,68,34,0
1,note_on,68,0,228
1,note_on,61,0,0
1,note_on,68,34,12
1,note_on,61,28,0
1,note_on,61,0,228
1,note_on,68,0,0
1,note_on,68,32,12
1,note_on,61,27,0
1,note_on,61,0,228
1,note_on,68,0,0
1,note_on,73,0,12
1,note_on,61,34,240
1,note_on,61,0,228
1,note_on,61,27,12
1,note_on,70,44,0
1,note_on,70,0,228
1,note_on,61,0,0
1,note_on,73,47,12
1,note_on,60,26,0
1,note_on,68,31,0
1,note_on,68,0,228
1,note_on,60,0,0
1,note_on,73,0,0
1,note_on,68,31,12
1,note_on,60,26,0
1,note_on,72,42,0
1,note_on,72,0,228
1,note_on,60,0,0
1,note_on,68,0,0
1,note_on,60,23,12
1,note_on,68,39,0
1,note_on,65,28,0
1,note_on,65,0,228
1,note_on,68,0,0
1,note_on,60,0,0
1,note_on,67,32,12
1,note_on,58,27,0
1,note_on,70,45,0
1,note_on,58,0,228
1,note_on,67,0,0
1,note_on,58,27,12
1,note_on,67,32,0
1,note_on,67,0,228
1,note_on,58,0,0
1,note_on,58,26,12
1,note_on,67,30,0
1,note_on,67,0,228
1,note_on,58,0,0
1,note_on,58,27,12
1,note_on,67,32,0
1,note_on,67,0,228
1,note_on,58,0,0
1,note_on,58,25,12
1,note_on,67,30,0
1,note_on,67,0,228
1,note_on,58,0,0
1,note_on,58,25,12
1,note_on,67,30,0
1,note_on,67,0,228
1,note_on,58,0,0
1,note_on,70,0,12
1,note_on,70,39,240
1,note_on,67,38,0
1,note_on,61,28,0
1,note_on,61,0,228
1,note_on,67,0,0
1,note_on,70,0,0
1,note_on,61,30,12
1,note_on,67,30,0
1,note_on,72,41,0
1,note_on,72,0,228
1,note_on,67,0,0
1,note_on,61,0,0
1,note_on,73,42,12
1,note_on,67,31,0
1,note_on,61,31,0
1,note_on,61,0,228
1,note_on,67,0,0
1,note_on,73,0,0
1,note_on,65,40,12
1,note_on,61,29,0
1,note_on,61,0,228
1,note_on,65,0,0
1,note_on,67,39,12
1,note_on,61,28,0
1,note_on,61,0,228
1,note_on,67,0,0
1,note_on,66,24,12
1,note_on,61,20,0
1,note_on,70,42,0
1,note_on,61,0,228
1,note_on,66,0,0
1,note_on,61,20,12
1,note_on,66,24,0
1,note_on,66,0,228
1,note_on,61,0,0
1,note_on,61,20,12
1,note_on,66,24,0
1,note_on,66,0,228
1,note_on,61,0,0
1,note_on,70,0,12
1,note_on,60,23,0
1,note_on,68,43,0
1,note_on,66,28,0
1,note_on,66,0,228
1,note_on,60,0,0
1,note_on,66,24,12
1,note_on,60,20,0
1,note_on,60,0,228
1,note_on,66,0,0
1,note_on,66,24,12
1,note_on,60,20,0
1,note_on,60,0,228
1,note_on,66,0,0
1,note_on,68,0,12
1,note_on,73,42,240
1,note_on,68,31,0
1,note_on,68,0,228
1,note_on,73,0,0
1,note_on,68,28,12
1,note_on,73,33,0
1,note_on,79,45,0
1,note_on,79,0,228
1,note_on,73,0,0
1,note_on,68,0,0
1,note_on,73,34,12
1,note_on,68,28,0
1,note_on,82,47,0
1,note_on,82,0,228
1,note_on,68,0,0
1,note_on,73,0,0
1,note_on,68,27,12
1,note_on,80,45,0
1,note_on,73,32,0
1,note_on,73,0,228
1,note_on,80,0,0
1,note_on,68,0,0
1,note_on,68,27,12
1,note_on,73,32,0
1,note_on,77,45,0
1,note_on,77,0,228
1,note_on,73,0,0
1,note_on,68,0,0
1,note_on,63,30,12
1,note_on,75,51,0
1,note_on,70,37,0
1,note_on,70,0,228
1,note_on,63,0,0
1,note_on,70,37,12
1,note_on,63,30,0
1,note_on,63,0,228
1,note_on,70,0,0
1,note_on,70,37,12
1,note_on,63,30,0
1,note_on,63,0,228
1,note_on,70,0,0
1,note_on,75,0,12
1,note_on,73,37,0
1,note_on,65,30,0
1,note_on,77,49,0
1,note_on,65,0,228
1,note_on,73,0,0
1,note_on,65,30,12
1,note_on,73,37,0
1,note_on,73,0,228
1,note_on,65,0,0
1,note_on,65,28,12
1,note_on,73,34,0
1,note_on,73,0,228
1,note_on,65,0,0
1,note_on,77,0,12
1,note_on,63,28,240
1,note_on,70,42,0
1,note_on,70,0,228
1,note_on,63,0,0
1,note_on,63,28,12
1,note_on,75,45,0
1,note_on,70,33,0
1,note_on,70,0,228
1,note_on,75,0,0
1,note_on,63,0,0
1,note_on,79,48,12
1,note_on,70,36,0
1,note_on,70,0,228
1,note_on,79,0,0
1,note_on,77,45,12
1,note_on,70,32,0
1,note_on,70,0,228
1,note_on,77,0,0
1,note_on,73,45,12
1,note_on,70,32,0
1,note_on,70,0,228
1,note_on,73,0,0
1,note_on,68,33,12
1,note_on,63,28,0
1,note_on,72,47,0
1,note_on,63,0,228
1,note_on,68,0,0
1,note_on,63,28,12
1,note_on,68,33,0
1,note_on,68,0,228
1,note_on,63,0,0
1,note_on,63,28,12
1,note_on,68,33,0
1,note_on,68,0,228
1,note_on,63,0,0
1,note_on,72,0,12
1,note_on,61,28,0
1,note_on,73,47,0
1,note_on,68,33,0
1,note_on,68,0,228
1,note_on,61,0,0
1,note_on,68,31,12
1,note_on,61,26,0
1,note_on,61,0,228
1,note_on,68,0,0
1,note_on,68,27,12
1,note_on,61,22,0
1,note_on,61,0,228
1,note_on,68,0,0
1,note_on,73,0,12
1,note_on,61,38,240
1,note_on,61,0,228
1,note_on,61,25,12
1,note_on,68,39,0
1,note_on,68,0,228
1,note_on,61,0,0
1,note_on,61,23,12
1,note_on,72,39,0
1,note_on,72,0,228
1,note_on,61,0,0
1,note_on,61,23,12
1,note_on,70,39,0
1,note_on,70,0,228
1,note_on,61,0,0
1,note_on,68,35,12
1,note_on,61,20,0
1,note_on,61,0,228
1,note_on,68,0,0
1,note_on,60,30,12
1,note_on,72,46,0
1,note_on,60,0,228
1,note_on,60,30,12
1,note_on,60,0,228
1,note_on,60,30,12
1,note_on,60,0,228
1,note_on,60,30,12
1,note_on,60,0,228
1,note_on,60,29,12
1,note_on,60,0,228
1,note_on,60,29,12
1,note_on,60,0,228
1,note_on,61,36,12
1,note_on,61,0,228
1,note_on,61,38,12
1,note_on,61,0,228
1,note_on,72,0,12
1,note_on,68,39,0
1,note_on,61,25,0
1,note_on,61,0,228
1,note_on,68,0,0
1,note_on,72,39,12
1,note_on,61,23,0
1,note_on,61,0,228
1,note_on,72,0,0
1,note_on,70,39,12
1,note_on,61,23,0
1,note_on,61,0,228
1,note_on,70,0,0
1,note_on,61,20,12
1,note_on,68,35,0
1,note_on,68,0,228
1,note_on,61,0,0
1,note_on,72,46,12
1,note_on,60,30,0
1,note_on,60,0,228
1,note_on,60,30,12
1,note_on,60,0,228
1,note_on,60,30,12
1,note_on,60,0,228
1,note_on,61,24,12
1,note_on,61,0,228
1,note_on,72,0,12
1,note_on,61,23,0
1,note_on,70,39,0
1,note_on,70,0,228
1,note_on,61,0,0
1,note_on,68,35,12
1,note_on,61,20,0
1,note_on,61,0,228
1,note_on,68,0,0
1,note_on,60,30,12
1,note_on,72,46,0
1,note_on,60,0,228
1,note_on,60,30,12
1,note_on,60,0,228
1,note_on,60,30,12
1,note_on,60,0,228
1,note_on,60,23,12
1,note_on,60,0,228
1,note_on,72,0,12
1,note_on,70,39,0
1,note_on,60,23,0
1,note_on,60,0,228
1,note_on,70,0,0
1,note_on,60,20,12
1,note_on,68,35,0
1,note_on,68,0,228
1,note_on,60,0,0
1,note_on,68,45,12
1,note_on,60,30,240
1,note_on,60,0,228
1,note_on,60,30,12
1,note_on,60,0,228
1,note_on,60,23,12
1,note_on,60,0,228
1,note_on,58,23,12
1,note_on,58,0,228
1,note_on,65,20,12
1,note_on,65,0,228
1,note_on,68,0,12
1,note_on,68,45,0
1,note_on,60,30,0
1,note_on,60,0,228
1,note_on,60,30,12
1,note_on,60,0,228
1,note_on,60,30,12
1,note_on,60,0,228
1,note_on,60,23,12
1,note_on,60,0,228
1,note_on,58,23,12
1,note_on,58,0,228
1,note_on,65,20,12
1,note_on,65,0,228
1,note_on,68,0,12
1,note_on,60,30,0
1,note_on,68,45,0
1,note_on,68,0,480
1,note_on,60,0,0
1,note_on,58,30,0
1,note_on,58,0,228
1,note_on,60,23,12
1,note_on,68,45,0
1,note_on,68,0,480
1,note_on,60,0,0
1,note_on,58,20,0
1,note_on,58,0,228
1,note_on,60,30,12
1,note_on,68,45,0
1,note_on,68,0,480
1,note_on,60,0,0
1,note_on,58,30,0
1,note_on,58,0,228
1,note_on,60,23,12
1,note_on,68,45,0
1,note_on,68,0,480
1,note_on,60,0,0
1,note_on,58,20,0
1,note_on,58,0,228
1,note_on,60,30,252
1,note_on,60,0,228
1,note_on,60,30,12
1,note_on,60,0,228
1,note_on,60,23,12
1,note_on,60,0,228
1,note_on,60,23,12
1,note_on,60,0,228
1,note_on,60,20,12
1,note_on,60,0,228
1,note_on,60,23,12
1,note_on,60,0,228
1,note_on,60,30,12
1,note_on,60,0,228
1,note_on,60,30,12
1,note_on,60,0,228
1,note_on,60,23,12
1,note_on,60,0,180
1,note_on,63,23,0
1,note_on,63,0,60
1,note_on,61,23,0
1,note_on,61,0,228
1,note_on,60,20,12
1,note_on,60,0,228
1,note_on,60,17,12
1,note_on,60,0,1440
2,note_on,51,17,0
2,note_on,56,23,0
2,note_on,63,28,0
2,note_on,63,0,228
2,note_on,56,0,0
2,note_on,51,0,0
2,note_on,51,17,12
2,note_on,56,24,0
2,note_on,63,29,0
2,note_on,63,0,228
2,note_on,56,0,0
2,note_on,51,0,0
2,note_on,51,18,12
2,note_on,56,25,0
2,note_on,63,30,0
2,note_on,63,0,228
2,note_on,56,0,0
2,note_on,51,0,0
2,note_on,51,18,12
2,note_on,56,25,0
2,note_on,63,30,0
2,note_on,63,0,228
2,note_on,56,0,0
2,note_on,51,0,0
2,note_on,51,20,12
2,note_on,56,27,0
2,note_on,63,33,0
2,note_on,63,0,228
2,note_on,56,0,0
2,note_on,51,0,0
2,note_on,51,21,12
2,note_on,56,28,0
2,note_on,63,34,0
2,note_on,63,0,228
2,note_on,56,0,0
2,note_on,51,0,0
2,note_on,51,22,12
2,note_on,56,29,0
2,note_on,63,35,0
2,note_on,63,0,228
2,note_on,56,0,0
2,note_on,51,0,0
2,note_on,51,22,12
2,note_on,56,31,0
2,note_on,63,38,0
2,note_on,63,0,228
2,note_on,56,0,0
2,note_on,51,0,0
2,note_on,51,24,12
2,note_on,56,33,0
2,note_on,63,39,0
2,note_on,63,0,228
2,note_on,56,0,0
2,note_on,51,0,0
2,note_on,51,24,12
2,note_on,56,33,0
2,note_on,63,39,0
2,note_on,63,0,228
2,note_on,56,0,0
2,note_on,51,0,0
2,note_on,51,22,12
2,note_on,56,31,0
2,note_on,63,37,0
2,note_on,63,0,228
2,note_on,56,0,0
2,note_on,51,0,0
2,note_on,51,21,12
2,note_on,56,28,0
2,note_on,63,34,0
2,note_on,63,0,228
2,note_on,56,0,0
2,note_on,51,0,0
2,note_on,39,46,12
2,note_on,39,0,121
2,note_on,51,24,12
2,note_on,58,32,0
2,note_on,63,32,0
2,note_on,63,0,228
2,note_on,58,0,0
2,note_on,51,0,0
2,note_on,51,25,12
2,note_on,58,34,0
2,note_on,63,34,0
2,note_on,63,0,228
2,note_on,58,0,0
2,note_on,51,0,0
2,note_on,51,27,12
2,note_on,58,36,0
2,note_on,63,36,0
2,note_on,63,0,228
2,note_on,58,0,0
2,note_on,51,0,0
2,note_on,51,25,12
2,note_on,58,34,0
2,note_on,63,34,0
2,note_on,63,0,228
2,note_on,58,0,0
2,note_on,51,0,0
2,note_on,51,25,12
2,note_on,58,34,0
2,note_on,63,34,0
2,note_on,63,0,228
2,note_on,58,0,0
2,note_on,51,0,0
2,note_on,44,47,12
2,note_on,44,0,137
2,note_on,56,22,12
2,note_on,63,30,0
2,note_on,63,0,228
2,note_on,56,0,0
2,note_on,56,21,12
2,note_on,63,29,0
2,note_on,63,0,228
2,note_on,56,0,0
2,note_on,56,25,12
2,note_on,63,34,0
2,note_on,63,0,79
2,note_on,56,0,0
2,note_on,56,22,12
2,note_on,63,30,0
2,note_on,63,0,228
2,note_on,56,0,0
2,note_on,56,22,12
2,note_on,63,30,0
2,note_on,63,0,228
2,note_on,56,0,0
2,note_on,49,47,12
2,note_on,49,0,108
2,note_on,56,21,12
2,note_on,61,28,0
2,note_on,65,34,0
2,note_on,65,0,228
2,note_on,61,0,0
2,note_on,56,0,0
2,note_on,56,21,12
2,note_on,61,28,0
2,note_on,65,34,0
2,note_on,65,0,228
2,note_on,61,0,0
2,note_on,56,0,0
2,note_on,56,22,12
2,note_on,61,30,0
2,note_on,65,36,0
2,note_on,65,0,228
2,note_on,61,0,0
2,note_on,56,0,0
2,note_on,56,21,12
2,note_on,61,28,0
2,note_on,65,34,0
2,note_on,65,0,228
2,note_on,61,0,0
2,note_on,56,0,0
2,note_on,56,21,12
2,note_on,61,28,0
2,note_on,65,34,0
2,note_on,65,0,228
2,note_on,61,0,0
2,note_on,56,0,0
2,note_on,51,47,12
2,note_on,51,0,81
2,note_on,58,18,12
2,note_on,61,24,0
2,note_on,67,29,0
2,note_on,67,0,228
2,note_on,61,0,0
2,note_on,58,0,0
2,note_on,58,18,12
2,note_on,61,25,0
2,note_on,67,30,0
2,note_on,67,0,228
2,note_on,61,0,0
2,note_on,58,0,0
2,note_on,49,47,12
2,note_on,49,0,95
2,note_on,56,16,12
2,note_on,61,22,0
2,note_on,68,27,0
2,note_on,68,0,228
2,note_on,61,0,0
2,note_on,56,0,0
2,note_on,56,16,12
2,note_on,61,22,0
2,note_on,68,27,0
2,note_on,68,0,228
2,note_on,61,0,0
2,note_on,56,0,0
2,note_on,51,47,12
2,note_on,51,0,108
2,note_on,58,21,12
2,note_on,61,28,0
2,note_on,67,34,0
2,note_on,67,0,228
2,note_on,61,0,0
2,note_on,58,0,0
2,note_on,58,21,12
2,note_on,61,28,0
2,note_on,67,34,0
2,note_on,67,0,228
2,note_on,61,0,0
2,note_on,58,0,0
2,note_on,58,22,12
2,note_on,61,30,0
2,note_on,67,36,0
2,note_on,67,0,228
2,note_on,61,0,0
2,note_on,58,0,0
2,note_on,58,21,12
2,note_on,61,28,0
2,note_on,67,34,0
2,note_on,67,0,228
2,note_on,61,0,0
2,note_on,58,0,0
2,note_on,58,21,12
2,note_on,61,28,0
2,note_on,67,34,0
2,note_on,67,0,228
2,note_on,61,0,0
2,note_on,58,0,0
2,note_on,53,47,12
2,note_on,60,21,93
2,note_on,65,29,0
2,note_on,65,0,228
2,note_on,60,0,0
2,note_on,60,22,12
2,note_on,65,30,0
2,note_on,65,0,228
2,note_on,60,0,0
2,note_on,53,0,12
2,note_on,46,39,0
2,note_on,46,0,95
2,note_on,53,13,12
2,note_on,58,15,0
2,note_on,65,18,0
2,note_on,65,0,228
2,note_on,58,0,0
2,note_on,53,0,0
2,note_on,53,13,12
2,note_on,58,15,0
2,note_on,65,18,0
2,note_on,65,0,228
2,note_on,58,0,0
2,note_on,53,0,0
2,note_on,51,39,12
2,note_on,58,21,120
2,note_on,65,28,0
2,note_on,65,0,228
2,note_on,58,0,0
2,note_on,58,21,12
2,note_on,63,28,0
2,note_on,63,0,228
2,note_on,58,0,0
2,note_on,51,0,12
2,note_on,44,39,0
2,note_on,44,0,134
2,note_on,51,17,12
2,note_on,56,23,0
2,note_on,63,28,0
2,note_on,63,0,228
2,note_on,56,0,0
2,note_on,51,0,0
2,note_on,51,15,12
2,note_on,56,21,0
2,note_on,63,25,0
2,note_on,63,0,228
2,note_on,56,0,0
2,note_on,51,0,0
2,note_on,39,39,12
2,note_on,39,0,55
2,note_on,51,18,12
2,note_on,63,25,0
2,note_on,63,0,228
2,note_on,51,0,0
2,note_on,51,17,12
2,note_on,63,23,0
2,note_on,63,0,228
2,note_on,51,0,0
2,note_on,51,18,12
2,note_on,63,25,0
2,note_on,63,0,228
2,note_on,51,0,0
2,note_on,51,17,12
2,note_on,63,23,0
2,note_on,63,0,228
2,note_on,51,0,0
2,note_on,51,17,12
2,note_on,63,23,0
2,note_on,63,0,228
2,note_on,51,0,0
2,note_on,39,69,12
2,note_on,39,0,121
2,note_on,51,28,12
2,note_on,58,39,0
2,note_on,63,39,0
2,note_on,63,0,228
2,note_on,58,0,0
2,note_on,51,0,0
2,note_on,51,30,12
2,note_on,58,42,0
2,note_on,63,42,0
2,note_on,63,0,228
2,note_on,58,0,0
2,note_on,51,0,0
2,note_on,51,32,12
2,note_on,58,44,0
2,note_on,63,44,0
2,note_on,63,0,228
2,note_on,58,0,0
2,note_on,51,0,0
2,note_on,51,30,12
2,note_on,58,42,0
2,note_on,63,42,0
2,note_on,63,0,228
2,note_on,58,0,0
2,note_on,51,0,0
2,note_on,51,30,12
2,note_on,58,42,0
2,note_on,63,42,0
2,note_on,63,0,228
2,note_on,58,0,0
2,note_on,51,0,0
2,note_on,44,66,12
2,note_on,44,0,137
2,note_on,51,32,12
2,note_on,56,32,0
2,note_on,63,43,0
2,note_on,63,0,228
2,note_on,56,0,0
2,note_on,51,0,0
2,note_on,51,32,12
2,note_on,56,32,0
2,note_on,63,42,0
2,note_on,63,0,228
2,note_on,56,0,0
2,note_on,51,0,0
2,note_on,51,36,12
2,note_on,56,36,0
2,note_on,63,50,0
2,note_on,63,0,79
2,note_on,56,0,0
2,note_on,51,0,0
2,note_on,51,32,12
2,note_on,56,32,0
2,note_on,63,43,0
2,note_on,63,0,228
2,note_on,56,0,0
2,note_on,51,0,0
2,note_on,51,32,12
2,note_on,56,32,0
2,note_on,63,43,0
2,note_on,63,0,228
2,note_on,56,0,0
2,note_on,51,0,0
2,note_on,37,71,12
2,note_on,37,0,108
2,note_on,53,20,12
2,note_on,56,20,0
2,note_on,61,34,0
2,note_on,65,41,0
2,note_on,65,0,228
2,note_on,53,0,0
2,note_on,56,0,0
2,note_on,61,0,0
2,note_on,53,20,12
2,note_on,56,20,0
2,note_on,61,34,0
2,note_on,65,41,0
2,note_on,65,0,228
2,note_on,53,0,0
2,note_on,56,0,0
2,note_on,61,0,0
2,note_on,53,22,12
2,note_on,56,22,0
2,note_on,61,36,0
2,note_on,65,45,0
2,note_on,65,0,228
2,note_on,53,0,0
2,note_on,56,0,0
2,note_on,61,0,0
2,note_on,53,20,12
2,note_on,56,20,0
2,note_on,61,34,0
2,note_on,65,41,0
2,note_on,65,0,228
2,note_on,53,0,0
2,note_on,56,0,0
2,note_on,61,0,0
2,note_on,53,20,12
2,note_on,56,20,0
2,note_on,61,34,0
2,note_on,65,41,0
2,note_on,65,0,228
2,note_on,53,0,0
2,note_on,56,0,0
2,note_on,61,0,0
2,note_on,51,65,12
2,note_on,51,0,81
2,note_on,58,19,12
2,note_on,61,27,0
2,note_on,67,33,0
2,note_on,67,0,228
2,note_on,61,0,0
2,note_on,58,0,0
2,note_on,58,20,12
2,note_on,61,28,0
2,note_on,67,34,0
2,note_on,67,0,228
2,note_on,61,0,0
2,note_on,58,0,0
2,note_on,49,57,12
2,note_on,49,0,95
2,note_on,56,18,12
2,note_on,61,25,0
2,note_on,68,30,0
2,note_on,68,0,228
2,note_on,61,0,0
2,note_on,56,0,0
2,note_on,56,18,12
2,note_on,61,25,0
2,note_on,68,30,0
2,note_on,68,0,228
2,note_on,61,0,0
2,note_on,56,0,0
2,note_on,51,69,12
2,note_on,51,0,108
2,note_on,58,25,12
2,note_on,61,34,0
2,note_on,67,41,0
2,note_on,67,0,228
2,note_on,61,0,0
2,note_on,58,0,0
2,note_on,58,25,12
2,note_on,61,34,0
2,note_on,67,41,0
2,note_on,67,0,228
2,note_on,61,0,0
2,note_on,58,0,0
2,note_on,63,36,12
2,note_on,58,27,0
2,note_on,61,36,0
2,note_on,67,45,0
2,note_on,67,0,228
2,note_on,63,0,0
2,note_on,58,0,0
2,note_on,61,0,0
2,note_on,63,34,12
2,note_on,58,25,0
2,note_on,61,34,0
2,note_on,67,41,0
2,note_on,67,0,228
2,note_on,63,0,0
2,note_on,58,0,0
2,note_on,61,0,0
2,note_on,58,25,12
2,note_on,61,34,0
2,note_on,67,41,0
2,note_on,67,0,228
2,note_on,61,0,0
2,note_on,58,0,0
2,note_on,41,68,12
2,note_on,41,0,81
2,note_on,53,24,12
2,note_on,60,24,0
2,note_on,65,33,0
2,note_on,65,0,228
2,note_on,60,0,0
2,note_on,53,0,0
2,note_on,53,25,12
2,note_on,60,25,0
2,note_on,65,34,0
2,note_on,65,0,228
2,note_on,60,0,0
2,note_on,53,0,0
2,note_on,46,57,12
2,note_on,46,0,95
2,note_on,53,21,12
2,note_on,58,24,0
2,note_on,65,29,0
2,note_on,65,0,228
2,note_on,58,0,0
2,note_on,53,0,0
2,note_on,53,21,12
2,note_on,58,24,0
2,note_on,65,29,0
2,note_on,65,0,228
2,note_on,58,0,0
2,note_on,53,0,0
2,note_on,51,57,12
2,note_on,51,0,108
2,note_on,53,27,12
2,note_on,58,30,0
2,note_on,65,36,0
2,note_on,65,0,228
2,note_on,58,0,0
2,note_on,53,0,0
2,note_on,53,27,12
2,note_on,58,30,0
2,note_on,65,36,0
2,note_on,65,0,228
2,note_on,58,0,0
2,note_on,53,0,0
2,note_on,39,39,12
2,note_on,39,0,129
2,note_on,51,18,12
2,note_on,58,25,0
2,note_on,63,30,0
2,note_on,63,0,228
2,note_on,58,0,0
2,note_on,51,0,0
2,note_on,51,14,12
2,note_on,58,20,0
2,note_on,63,23,0
2,note_on,63,0,228
2,note_on,58,0,0
2,note_on,51,0,0
2,note_on,44,39,12
2,note_on,44,0,55
2,note_on,56,20,12
2,note_on,51,13,0
2,note_on,63,23,0
2,note_on,63,0,228
2,note_on,51,0,0
2,note_on,56,0,0
2,note_on,56,18,12
2,note_on,51,12,0
2,note_on,63,22,0
2,note_on,63,0,228
2,note_on,51,0,0
2,note_on,56,0,0
2,note_on,56,20,12
2,note_on,51,13,0
2,note_on,63,23,0
2,note_on,63,0,228
2,note_on,51,0,0
2,note_on,56,0,0
2,note_on,56,18,12
2,note_on,51,12,0
2,note_on,63,22,0
2,note_on,63,0,228
2,note_on,51,0,0
2,note_on,56,0,0
2,note_on,56,18,12
2,note_on,51,12,0
2,note_on,63,22,0
2,note_on,63,0,228
2,note_on,51,0,0
2,note_on,56,0,0
2,note_on,40,28,12
2,note_on,40,0,125
2,note_on,52,18,12
2,note_on,59,21,0
2,note_on,64,25,0
2,note_on,64,0,228
2,note_on,59,0,0
2,note_on,52,0,0
2,note_on,52,18,12
2,note_on,59,21,0
2,note_on,64,25,0
2,note_on,64,0,228
2,note_on,59,0,0
2,note_on,52,0,0
2,note_on,52,18,12
2,note_on,59,21,0
2,note_on,64,25,0
2,note_on,64,0,213
2,note_on,59,0,0
2,note_on,52,0,0
2,note_on,52,18,12
2,note_on,59,21,0
2,note_on,64,25,0
2,note_on,59,0,228
2,note_on,52,0,0
2,note_on,64,0,7
2,note_on,52,16,5
2,note_on,59,22,0
2,note_on,59,0,228
2,note_on,52,0,0
2,note_on,45,34,12
2,note_on,45,0,137
2,note_on,52,20,12
2,note_on,57,29,0
2,note_on,64,39,0
2,note_on,64,0,228
2,note_on,57,0,0
2,note_on,52,0,0
2,note_on,53,23,12
2,note_on,57,31,0
2,note_on,65,42,0
2,note_on,65,0,216
2,note_on,57,0,0
2,note_on,53,0,0
2,note_on,53,25,12
2,note_on,57,34,0
2,note_on,65,45,0
2,note_on,65,0,228
2,note_on,57,0,0
2,note_on,53,0,0
2,note_on,54,26,12
2,note_on,57,35,0
2,note_on,66,48,0
2,note_on,66,0,228
2,note_on,57,0,0
2,note_on,54,0,0
2,note_on,57,38,12
2,note_on,55,28,0
2,note_on,67,51,0
2,note_on,67,0,228
2,note_on,55,0,0
2,note_on,57,0,0
2,note_on,44,42,12
2,note_on,44,0,125
2,note_on,56,28,12
2,note_on,63,31,0
2,note_on,66,38,0
2,note_on,66,0,228
2,note_on,63,0,0
2,note_on,56,0,0
2,note_on,56,28,12
2,note_on,63,31,0
2,note_on,66,38,0
2,note_on,66,0,217
2,note_on,63,0,0
2,note_on,56,0,0
2,note_on,56,28,12
2,note_on,63,31,0
2,note_on,66,38,0
2,note_on,66,0,228
2,note_on,63,0,0
2,note_on,56,0,0
2,note_on,56,26,12
2,note_on,63,29,0
2,note_on,66,36,0
2,note_on,66,0,228
2,note_on,63,0,0
2,note_on,56,0,0
2,note_on,66,36,12
2,note_on,56,23,0
2,note_on,63,32,0
2,note_on,63,0,228
2,note_on,56,0,0
2,note_on,66,0,0
2,note_on,49,39,12
2,note_on,49,0,137
2,note_on,55,23,12
2,note_on,61,31,0
2,note_on,67,42,0
2,note_on,67,0,228
2,note_on,61,0,0
2,note_on,55,0,0
2,note_on,56,25,12
2,note_on,61,34,0
2,note_on,68,45,0
2,note_on,68,0,216
2,note_on,61,0,0
2,note_on,56,0,0
2,note_on,56,27,12
2,note_on,61,37,0
2,note_on,68,50,0
2,note_on,68,0,228
2,note_on,61,0,0
2,note_on,56,0,0
2,note_on,57,27,12
2,note_on,61,39,0
2,note_on,69,53,0
2,note_on,69,0,228
2,note_on,61,0,0
2,note_on,57,0,0
2,note_on,60,42,12
2,note_on,58,31,0
2,note_on,70,56,0
2,note_on,70,0,228
2,note_on,58,0,0
2,note_on,60,0,0
2,note_on,47,67,12
2,note_on,47,0,162
2,note_on,59,29,12
2,note_on,66,33,0
2,note_on,69,39,0
2,note_on,69,0,228
2,note_on,66,0,0
2,note_on,59,0,0
2,note_on,63,33,12
2,note_on,59,29,0
2,note_on,66,33,0
2,note_on,69,39,0
2,note_on,69,0,228
2,note_on,63,0,0
2,note_on,59,0,0
2,note_on,66,0,0
2,note_on,63,33,12
2,note_on,59,29,0
2,note_on,66,33,0
2,note_on,69,39,0
2,note_on,69,0,220
2,note_on,63,0,0
2,note_on,59,0,0
2,note_on,66,0,0
2,note_on,61,33,12
2,note_on,59,29,0
2,note_on,66,33,0
2,note_on,69,39,0
2,note_on,69,0,228
2,note_on,61,0,0
2,note_on,59,0,0
2,note_on,66,0,0
2,note_on,63,29,12
2,note_on,69,39,0
2,note_on,59,26,0
2,note_on,66,35,0
2,note_on,66,0,228
2,note_on,63,0,0
2,note_on,69,0,0
2,note_on,59,0,0
2,note_on,52,52,12
2,note_on,52,0,125
2,note_on,59,35,12
2,note_on,64,35,0
2,note_on,71,41,0
2,note_on,71,0,228
2,note_on,64,0,0
2,note_on,59,0,0
2,note_on,58,29,12
2,note_on,64,33,0
2,note_on,70,40,0
2,note_on,70,0,228
2,note_on,64,0,0
2,note_on,58,0,0
2,note_on,51,52,12
2,note_on,51,0,148
2,note_on,58,27,12
2,note_on,63,31,0
2,note_on,70,36,0
2,note_on,70,0,228
2,note_on,63,0,0
2,note_on,58,0,0
2,note_on,58,23,12
2,note_on,70,35,0
2,note_on,63,31,0
2,note_on,63,0,228
2,note_on,70,0,0
2,note_on,58,0,0
2,note_on,50,38,12
2,note_on,50,0,114
2,note_on,57,20,12
2,note_on,62,22,0
2,note_on,69,28,0
2,note_on,69,0,228
2,note_on,62,0,0
2,note_on,57,0,0
2,note_on,56,20,12
2,note_on,62,23,0
2,note_on,68,28,0
2,note_on,68,0,228
2,note_on,62,0,0
2,note_on,56,0,0
2,note_on,49,38,12
2,note_on,49,0,102
2,note_on,56,17,12
2,note_on,61,20,0
2,note_on,68,23,0
2,note_on,68,0,228
2,note_on,61,0,0
2,note_on,56,0,0
2,note_on,56,15,12
2,note_on,68,23,0
2,note_on,61,21,0
2,note_on,61,0,228
2,note_on,68,0,0
2,note_on,56,0,0
2,note_on,48,36,12
2,note_on,48,0,114
2,note_on,55,20,12
2,note_on,60,22,0
2,note_on,67,27,0
2,note_on,67,0,228
2,note_on,60,0,0
2,note_on,55,0,0
2,note_on,54,20,12
2,note_on,60,22,0
2,note_on,66,27,0
2,note_on,66,0,228
2,note_on,60,0,0
2,note_on,54,0,0
2,note_on,47,37,12
2,note_on,47,0,148
2,note_on,59,20,12
2,note_on,64,22,0
2,note_on,71,27,0
2,note_on,71,0,228
2,note_on,64,0,0
2,note_on,59,0,0
2,note_on,59,17,12
2,note_on,69,27,0
2,note_on,63,23,0
2,note_on,63,0,136
2,note_on,69,0,0
2,note_on,59,0,0
2,note_on,40,39,12
2,note_on,40,0,91
2,note_on,56,13,12
2,note_on,59,18,0
2,note_on,68,22,0
2,note_on,68,0,228
2,note_on,59,0,0
2,note_on,56,0,0
2,note_on,56,14,12
2,note_on,59,19,0
2,note_on,68,24,0
2,note_on,68,0,228
2,note_on,59,0,0
2,note_on,56,0,0
2,note_on,56,15,12
2,note_on,59,21,0
2,note_on,68,25,0
2,note_on,68,0,228
2,note_on,59,0,0
2,note_on,56,0,0
2,note_on,56,16,12
2,note_on,59,21,0
2,note_on,68,26,0
2,note_on,68,0,228
2,note_on,59,0,0
2,note_on,56,0,0
2,note_on,59,23,12
2,note_on,56,16,0
2,note_on,68,27,0
2,note_on,68,0,228
2,note_on,56,0,0
2,note_on,59,0,0
2,note_on,52,53,12
2,note_on,52,0,125
2,note_on,57,22,12
2,note_on,60,25,0
2,note_on,69,35,0
2,note_on,69,0,228
2,note_on,60,0,0
2,note_on,57,0,0
2,note_on,57,23,12
2,note_on,60,26,0
2,note_on,69,31,0
2,note_on,69,0,228
2,note_on,60,0,0
2,note_on,57,0,0
2,note_on,57,22,12
2,note_on,60,25,0
2,note_on,69,35,0
2,note_on,69,0,228
2,note_on,60,0,0
2,note_on,57,0,0
2,note_on,57,24,12
2,note_on,60,27,0
2,note_on,69,32,0
2,note_on,69,0,228
2,note_on,60,0,0
2,note_on,57,0,0
2,note_on,69,32,12
2,note_on,57,24,0
2,note_on,60,27,0
2,note_on,60,0,228
2,note_on,57,0,0
2,note_on,69,0,0
2,note_on,40,44,12
2,note_on,40,0,113
2,note_on,56,15,12
2,note_on,59,21,0
2,note_on,68,25,0
2,note_on,68,0,228
2,note_on,59,0,0
2,note_on,56,0,0
2,note_on,56,16,12
2,note_on,59,22,0
2,note_on,68,27,0
2,note_on,68,0,228
2,note_on,59,0,0
2,note_on,56,0,0
2,note_on,56,17,12
2,note_on,59,24,0
2,note_on,68,28,0
2,note_on,68,0,228
2,note_on,59,0,0
2,note_on,56,0,0
2,note_on,56,18,12
2,note_on,59,24,0
2,note_on,68,29,0
2,note_on,68,0,228
2,note_on,59,0,0
2,note_on,56,0,0
2,note_on,59,26,12
2,note_on,56,18,0
2,note_on,68,31,0
2,note_on,68,0,228
2,note_on,56,0,0
2,note_on,59,0,0
2,note_on,52,53,12
2,note_on,52,0,125
2,note_on,57,22,12
2,note_on,60,25,0
2,note_on,69,35,0
2,note_on,69,0,228
2,note_on,60,0,0
2,note_on,57,0,0
2,note_on,57,23,12
2,note_on,60,26,0
2,note_on,69,31,0
2,note_on,69,0,228
2,note_on,60,0,0
2,note_on,57,0,0
2,note_on,57,22,12
2,note_on,60,25,0
2,note_on,69,35,0
2,note_on,69,0,228
2,note_on,60,0,0
2,note_on,57,0,0
2,note_on,57,24,12
2,note_on,60,27,0
2,note_on,69,32,0
2,note_on,69,0,228
2,note_on,60,0,0
2,note_on,57,0,0
2,note_on,69,32,12
2,note_on,57,24,0
2,note_on,60,27,0
2,note_on,60,0,228
2,note_on,57,0,0
2,note_on,69,0,0
2,note_on,40,44,12
2,note_on,40,0,57
2,note_on,56,15,12
2,note_on,59,21,0
2,note_on,68,25,0
2,note_on,68,0,228
2,note_on,59,0,0
2,note_on,56,0,0
2,note_on,56,16,12
2,note_on,59,22,0
2,note_on,68,27,0
2,note_on,68,0,228
2,note_on,59,0,0
2,note_on,56,0,0
2,note_on,56,17,12
2,note_on,59,24,0
2,note_on,68,28,0
2,note_on,68,0,228
2,note_on,59,0,0
2,note_on,56,0,0
2,note_on,56,18,12
2,note_on,59,24,0
2,note_on,68,29,0
2,note_on,68,0,228
2,note_on,59,0,0
2,note_on,56,0,0
2,note_on,59,26,12
2,note_on,56,18,0
2,note_on,68,31,0
2,note_on,68,0,228
2,note_on,56,0,0
2,note_on,59,0,0
2,note_on,56,17,12
2,note_on,59,24,0
2,note_on,68,28,0
2,note_on,68,0,228
2,note_on,59,0,0
2,note_on,56,0,0
2,note_on,56,15,12
2,note_on,59,21,0
2,note_on,68,25,0
2,note_on,68,0,228
2,note_on,59,0,0
2,note_on,56,0,0
2,note_on,56,16,12
2,note_on,59,22,0
2,note_on,68,27,0
2,note_on,68,0,228
2,note_on,59,0,0
2,note_on,56,0,0
2,note_on,56,20,12
2,note_on,59,27,0
2,note_on,68,33,0
2,note_on,68,0,108
2,note_on,59,0,0
2,note_on,56,0,0
2,note_on,56,21,12
2,note_on,59,28,0
2,note_on,68,35,0
2,note_on,68,0,228
2,note_on,59,0,0
2,note_on,56,0,0
2,note_on,59,31,12
2,note_on,56,23,0
2,note_on,68,37,0
2,note_on,68,0,228
2,note_on,56,0,0
2,note_on,59,0,0
2,note_on,56,21,12
2,note_on,59,29,0
2,note_on,68,35,0
2,note_on,68,0,137
2,note_on,59,0,0
2,note_on,56,0,0
2,note_on,56,18,12
2,note_on,59,26,0
2,note_on,68,31,0
2,note_on,68,0,228
2,note_on,59,0,0
2,note_on,56,0,0
2,note_on,56,20,12
2,note_on,59,27,0
2,note_on,68,34,0
2,note_on,68,0,228
2,note_on,59,0,0
2,note_on,56,0,0
2,note_on,56,22,12
2,note_on,59,30,0
2,note_on,68,36,0
2,note_on,68,0,228
2,note_on,59,0,0
2,note_on,56,0,0
2,note_on,56,23,12
2,note_on,59,31,0
2,note_on,68,37,0
2,note_on,68,0,228
2,note_on,59,0,0
2,note_on,56,0,0
2,note_on,59,34,12
2,note_on,56,24,0
2,note_on,68,41,0
2,note_on,68,0,228
2,note_on,56,0,0
2,note_on,59,0,0
2,note_on,56,42,12
2,note_on,59,42,0
2,note_on,68,50,0
2,note_on,68,0,137
2,note_on,59,0,0
2,note_on,56,0,0
2,note_on,41,40,12
2,note_on,53,48,0
2,note_on,53,0,228
2,note_on,41,0,0
2,note_on,38,45,12
2,note_on,50,53,0
2,note_on,50,0,228
2,note_on,38,0,0
2,note_on,35,49,12
2,note_on,47,58,0
2,note_on,47,0,228
2,note_on,35,0,0
2,note_on,32,54,12
2,note_on,44,63,0
2,note_on,44,0,228
2,note_on,32,0,0
2,note_on,29,58,12
2,note_on,41,69,0
2,note_on,41,0,228
2,note_on,29,0,0
2,note_on,27,77,12
2,note_on,39,86,0
2,note_on,39,0,121
2,note_on,27,0,0
2,note_on,51,32,12
2,note_on,58,45,0
2,note_on,63,45,0
2,note_on,63,0,228
2,note_on,58,0,0
2,note_on,51,0,0
2,note_on,51,34,12
2,note_on,58,48,0
2,note_on,63,48,0
2,note_on,63,0,228
2,note_on,58,0,0
2,note_on,51,0,0
2,note_on,51,37,12
2,note_on,58,50,0
2,note_on,63,50,0
2,note_on,63,0,228
2,note_on,58,0,0
2,note_on,51,0,0
2,note_on,51,34,12
2,note_on,58,48,0
2,note_on,63,48,0
2,note_on,63,0,228
2,note_on,58,0,0
2,note_on,51,0,0
2,note_on,51,34,12
2,note_on,58,48,0
2,note_on,63,48,0
2,note_on,63,0,228
2,note_on,58,0,0
2,note_on,51,0,0
2,note_on,32,71,12
2,note_on,44,77,0
2,note_on,44,0,137
2,note_on,32,0,0
2,note_on,51,36,12
2,note_on,56,41,0
2,note_on,63,49,0
2,note_on,63,0,228
2,note_on,56,0,0
2,note_on,51,0,0
2,note_on,51,36,12
2,note_on,56,41,0
2,note_on,63,48,0
2,note_on,63,0,228
2,note_on,56,0,0
2,note_on,51,0,0
2,note_on,51,41,12
2,note_on,56,46,0
2,note_on,63,57,0
2,note_on,63,0,79
2,note_on,56,0,0
2,note_on,51,0,0
2,note_on,51,36,12
2,note_on,56,41,0
2,note_on,63,49,0
2,note_on,63,0,228
2,note_on,56,0,0
2,note_on,51,0,0
2,note_on,51,36,12
2,note_on,56,41,0
2,note_on,63,49,0
2,note_on,63,0,228
2,note_on,56,0,0
2,note_on,51,0,0
2,note_on,25,69,12
2,note_on,37,82,0
2,note_on,37,0,108
2,note_on,25,0,0
2,note_on,53,23,12
2,note_on,56,26,0
2,note_on,61,38,0
2,note_on,65,46,0
2,note_on,65,0,228
2,note_on,53,0,0
2,note_on,56,0,0
2,note_on,61,0,0
2,note_on,53,23,12
2,note_on,56,26,0
2,note_on,61,38,0
2,note_on,65,46,0
2,note_on,65,0,228
2,note_on,53,0,0
2,note_on,56,0,0
2,note_on,61,0,0
2,note_on,53,25,12
2,note_on,56,28,0
2,note_on,61,42,0
2,note_on,65,51,0
2,note_on,65,0,228
2,note_on,53,0,0
2,note_on,56,0,0
2,note_on,61,0,0
2,note_on,53,23,12
2,note_on,56,26,0
2,note_on,61,38,0
2,note_on,65,46,0
2,note_on,65,0,228
2,note_on,53,0,0
2,note_on,56,0,0
2,note_on,61,0,0
2,note_on,53,23,12
2,note_on,56,26,0
2,note_on,61,38,0
2,note_on,65,46,0
2,note_on,65,0,228
2,note_on,53,0,0
2,note_on,56,0,0
2,note_on,61,0,0
2,note_on,27,60,12
2,note_on,39,71,0
2,note_on,39,0,81
2,note_on,27,0,0
2,note_on,55,22,12
2,note_on,58,30,0
2,note_on,67,37,0
2,note_on,67,0,228
2,note_on,58,0,0
2,note_on,55,0,0
2,note_on,55,23,12
2,note_on,58,32,0
2,note_on,67,38,0
2,note_on,67,0,228
2,note_on,58,0,0
2,note_on,55,0,0
2,note_on,29,55,12
2,note_on,41,65,0
2,note_on,41,0,95
2,note_on,29,0,0
2,note_on,53,23,12
2,note_on,56,23,0
2,note_on,61,32,0
2,note_on,68,38,0
2,note_on,68,0,228
2,note_on,53,0,0
2,note_on,56,0,0
2,note_on,61,0,0
2,note_on,53,23,12
2,note_on,56,23,0
2,note_on,61,32,0
2,note_on,68,38,0
2,note_on,68,0,228
2,note_on,53,0,0
2,note_on,56,0,0
2,note_on,61,0,0
2,note_on,27,64,12
2,note_on,39,71,0
2,note_on,39,0,108
2,note_on,27,0,0
2,note_on,55,28,12
2,note_on,58,32,0
2,note_on,61,38,0
2,note_on,67,46,0
2,note_on,67,0,228
2,note_on,55,0,0
2,note_on,58,0,0
2,note_on,61,0,0
2,note_on,55,28,12
2,note_on,58,32,0
2,note_on,61,38,0
2,note_on,67,46,0
2,note_on,67,0,228
2,note_on,55,0,0
2,note_on,58,0,0
2,note_on,61,0,0
2,note_on,63,42,12
2,note_on,55,31,0
2,note_on,58,35,0
2,note_on,61,42,0
2,note_on,67,51,0
2,note_on,67,0,228
2,note_on,58,0,0
2,note_on,63,0,0
2,note_on,55,0,0
2,note_on,61,0,0
2,note_on,63,38,12
2,note_on,55,28,0
2,note_on,58,32,0
2,note_on,61,38,0
2,note_on,67,46,0
2,note_on,67,0,228
2,note_on,58,0,0
2,note_on,63,0,0
2,note_on,55,0,0
2,note_on,61,0,0
2,note_on,55,28,12
2,note_on,58,32,0
2,note_on,61,38,0
2,note_on,67,46,0
2,note_on,67,0,228
2,note_on,55,0,0
2,note_on,58,0,0
2,note_on,61,0,0
2,note_on,29,63,12
2,note_on,41,71,0
2,note_on,41,0,81
2,note_on,29,0,0
2,note_on,53,27,12
2,note_on,60,30,0
2,note_on,65,37,0
2,note_on,65,0,228
2,note_on,60,0,0
2,note_on,53,0,0
2,note_on,53,28,12
2,note_on,60,32,0
2,note_on,65,38,0
2,note_on,65,0,228
2,note_on,60,0,0
2,note_on,53,0,0
2,note_on,34,59,12
2,note_on,46,65,0
2,note_on,46,0,95
2,note_on,34,0,0
2,note_on,53,27,12
2,note_on,58,31,0
2,note_on,65,36,0
2,note_on,65,0,228
2,note_on,58,0,0
2,note_on,53,0,0
2,note_on,53,27,12
2,note_on,58,31,0
2,note_on,65,36,0
2,note_on,65,0,228
2,note_on,58,0,0
2,note_on,53,0,0
2,note_on,39,65,12
2,note_on,51,65,0
2,note_on,51,0,108
2,note_on,39,0,0
2,note_on,53,27,12
2,note_on,58,31,0
2,note_on,65,37,0
2,note_on,65,0,228
2,note_on,58,0,0
2,note_on,53,0,0
2,note_on,51,27,12
2,note_on,58,31,0
2,note_on,63,37,0
2,note_on,63,0,228
2,note_on,58,0,0
2,note_on,51,0,0
2,note_on,44,48,12
2,note_on,44,0,121
2,note_on,51,22,12
2,note_on,56,31,0
2,note_on,63,37,0
2,note_on,63,0,228
2,note_on,56,0,0
2,note_on,51,0,0
2,note_on,51,19,12
2,note_on,56,27,0
2,note_on,63,32,0
2,note_on,63,0,228
2,note_on,56,0,0
2,note_on,51,0,0
2,note_on,39,48,12
2,note_on,39,0,55
2,note_on,51,15,12
2,note_on,63,26,0
2,note_on,63,0,228
2,note_on,51,0,0
2,note_on,51,13,12
2,note_on,63,25,0
2,note_on,63,0,228
2,note_on,51,0,0
2,note_on,51,15,12
2,note_on,63,26,0
2,note_on,63,0,228
2,note_on,51,0,0
2,note_on,51,12,12
2,note_on,63,23,0
2,note_on,63,0,228
2,note_on,51,0,0
2,note_on,51,11,12
2,note_on,63,22,0
2,note_on,63,0,228
2,note_on,51,0,0
2,note_on,39,28,12
2,note_on,39,0,125
2,note_on,51,18,12
2,note_on,57,21,0
2,note_on,63,25,0
2,note_on,63,0,228
2,note_on,57,0,0
2,note_on,51,0,0
2,note_on,51,18,12
2,note_on,57,21,0
2,note_on,63,25,0
2,note_on,63,0,228
2,note_on,57,0,0
2,note_on,51,0,0
2,note_on,51,18,12
2,note_on,57,21,0
2,note_on,63,25,0
2,note_on,63,0,219
2,note_on,57,0,0
2,note_on,51,0,0
2,note_on,51,18,12
2,note_on,57,21,0
2,note_on,63,25,0
2,note_on,63,0,228
2,note_on,57,0,0
2,note_on,51,0,0
2,note_on,63,25,12
2,note_on,51,16,0
2,note_on,57,22,0
2,note_on,57,0,228
2,note_on,51,0,0
2,note_on,63,0,0
2,note_on,40,28,12
2,note_on,40,0,137
2,note_on,52,14,12
2,note_on,56,20,0
2,note_on,64,23,0
2,note_on,64,0,228
2,note_on,56,0,0
2,note_on,52,0,0
2,note_on,52,15,12
2,note_on,56,21,0
2,note_on,64,25,0
2,note_on,64,0,228
2,note_on,56,0,0
2,note_on,52,0,0
2,note_on,52,16,12
2,note_on,56,22,0
2,note_on,64,27,0
2,note_on,64,0,218
2,note_on,56,0,0
2,note_on,52,0,0
2,note_on,52,17,12
2,note_on,56,22,0
2,note_on,63,28,0
2,note_on,63,0,228
2,note_on,56,0,0
2,note_on,52,0,0
2,note_on,56,24,12
2,note_on,52,17,0
2,note_on,61,29,0
2,note_on,61,0,228
2,note_on,52,0,0
2,note_on,56,0,0
2,note_on,35,39,12
2,note_on,47,39,0
2,note_on,47,0,125
2,note_on,35,0,0
2,note_on,59,26,12
2,note_on,63,29,0
2,note_on,69,35,0
2,note_on,69,0,228
2,note_on,63,0,0
2,note_on,59,0,0
2,note_on,59,26,12
2,note_on,63,29,0
2,note_on,69,35,0
2,note_on,69,0,228
2,note_on,63,0,0
2,note_on,59,0,0
2,note_on,59,26,12
2,note_on,63,29,0
2,note_on,69,35,0
2,note_on,69,0,215
2,note_on,63,0,0
2,note_on,59,0,0
2,note_on,59,26,12
2,note_on,61,29,0
2,note_on,69,35,0
2,note_on,69,0,228
2,note_on,61,0,0
2,note_on,59,0,0
2,note_on,69,35,12
2,note_on,59,23,0
2,note_on,63,31,0
2,note_on,63,0,228
2,note_on,59,0,0
2,note_on,69,0,0
2,note_on,40,39,12
2,note_on,52,50,0
2,note_on,52,0,137
2,note_on,40,0,0
2,note_on,59,21,12
2,note_on,64,29,0
2,note_on,71,35,0
2,note_on,71,0,228
2,note_on,64,0,0
2,note_on,59,0,0
2,note_on,59,23,12
2,note_on,64,31,0
2,note_on,71,36,0
2,note_on,71,0,228
2,note_on,64,0,0
2,note_on,59,0,0
2,note_on,59,24,12
2,note_on,64,33,0
2,note_on,71,39,0
2,note_on,71,0,228
2,note_on,64,0,0
2,note_on,59,0,0
2,note_on,39,40,12
2,note_on,51,49,0
2,note_on,51,0,215
2,note_on,39,0,0
2,note_on,50,55,12
2,note_on,38,46,0
2,note_on,38,0,228
2,note_on,50,0,0
2,note_on,37,48,12
2,note_on,49,60,0
2,note_on,49,0,156
2,note_on,37,0,0
2,note_on,53,22,12
2,note_on,59,25,0
2,note_on,65,30,0
2,note_on,65,0,228
2,note_on,59,0,0
2,note_on,53,0,0
2,note_on,53,22,12
2,note_on,59,25,0
2,note_on,65,30,0
2,note_on,65,0,228
2,note_on,59,0,0
2,note_on,53,0,0
2,note_on,53,22,12
2,note_on,59,25,0
2,note_on,65,30,0
2,note_on,65,0,228
2,note_on,59,0,0
2,note_on,53,0,0
2,note_on,53,22,12
2,note_on,59,25,0
2,note_on,65,30,0
2,note_on,65,0,216
2,note_on,59,0,0
2,note_on,53,0,0
2,note_on,65,30,12
2,note_on,53,19,0
2,note_on,59,27,0
2,note_on,59,0,228
2,note_on,53,0,0
2,note_on,65,0,0
2,note_on,42,34,12
2,note_on,42,0,137
2,note_on,54,17,12
2,note_on,58,24,0
2,note_on,66,28,0
2,note_on,66,0,228
2,note_on,58,0,0
2,note_on,54,0,0
2,note_on,54,18,12
2,note_on,58,25,0
2,note_on,66,30,0
2,note_on,66,0,228
2,note_on,58,0,0
2,note_on,54,0,0
2,note_on,54,19,12
2,note_on,58,27,0
2,note_on,66,32,0
2,note_on,66,0,216
2,note_on,58,0,0
2,note_on,54,0,0
2,note_on,54,20,12
2,note_on,58,27,0
2,note_on,65,33,0
2,note_on,65,0,228
2,note_on,58,0,0
2,note_on,54,0,0
2,note_on,58,29,12
2,note_on,54,21,0
2,note_on,63,35,0
2,note_on,63,0,228
2,note_on,54,0,0
2,note_on,58,0,0
2,note_on,37,39,12
2,note_on,49,39,0
2,note_on,49,0,143
2,note_on,37,0,0
2,note_on,61,29,12
2,note_on,56,26,0
2,note_on,59,29,0
2,note_on,68,35,0
2,note_on,68,0,228
2,note_on,61,0,0
2,note_on,56,0,0
2,note_on,59,0,0
2,note_on,61,29,12
2,note_on,56,26,0
2,note_on,59,29,0
2,note_on,68,35,0
2,note_on,68,0,228
2,note_on,61,0,0
2,note_on,56,0,0
2,note_on,59,0,0
2,note_on,61,29,12
2,note_on,56,26,0
2,note_on,59,29,0
2,note_on,68,35,0
2,note_on,68,0,215
2,note_on,61,0,0
2,note_on,56,0,0
2,note_on,59,0,0
2,note_on,61,29,12
2,note_on,56,26,0
2,note_on,59,29,0
2,note_on,63,35,0
2,note_on,63,0,228
2,note_on,61,0,0
2,note_on,56,0,0
2,note_on,59,0,0
2,note_on,61,31,12
2,note_on,65,35,0
2,note_on,56,23,0
2,note_on,59,31,0
2,note_on,59,0,228
2,note_on,61,0,0
2,note_on,65,0,0
2,note_on,56,0,0
2,note_on,42,45,12
2,note_on,42,0,137
2,note_on,54,21,12
2,note_on,61,29,0
2,note_on,66,35,0
2,note_on,66,0,228
2,note_on,61,0,0
2,note_on,54,0,0
2,note_on,54,23,12
2,note_on,61,31,0
2,note_on,66,36,0
2,note_on,66,0,228
2,note_on,61,0,0
2,note_on,54,0,0
2,note_on,42,42,12
2,note_on,54,50,0
2,note_on,54,0,228
2,note_on,42,0,0
2,note_on,41,45,12
2,note_on,53,53,0
2,note_on,53,0,159
2,note_on,41,0,0
2,note_on,52,56,12
2,note_on,40,47,0
2,note_on,40,0,228
2,note_on,52,0,0
2,note_on,39,63,12
2,note_on,51,63,0
2,note_on,51,0,131
2,note_on,39,0,0
2,note_on,59,34,12
2,note_on,66,41,0
2,note_on,66,0,228
2,note_on,59,0,0
2,note_on,59,34,12
2,note_on,66,41,0
2,note_on,66,0,228
2,note_on,59,0,0
2,note_on,52,59,12
2,note_on,52,0,105
2,note_on,59,34,12
2,note_on,64,34,0
2,note_on,71,40,0
2,note_on,71,0,228
2,note_on,64,0,0
2,note_on,59,0,0
2,note_on,59,34,12
2,note_on,64,34,0
2,note_on,71,40,0
2,note_on,71,0,228
2,note_on,64,0,0
2,note_on,59,0,0
2,note_on,50,59,12
2,note_on,50,0,131
2,note_on,70,39,12
2,note_on,58,28,0
2,note_on,65,34,0
2,note_on,65,0,228
2,note_on,58,0,0
2,note_on,70,0,0
2,note_on,70,39,12
2,note_on,58,28,0
2,note_on,65,34,0
2,note_on,65,0,228
2,note_on,58,0,0
2,note_on,70,0,0
2,note_on,51,56,12
2,note_on,51,0,105
2,note_on,58,27,12
2,note_on,63,27,0
2,note_on,70,32,0
2,note_on,70,0,228
2,note_on,63,0,0
2,note_on,58,0,0
2,note_on,58,27,12
2,note_on,63,27,0
2,note_on,70,32,0
2,note_on,70,0,228
2,note_on,63,0,0
2,note_on,58,0,0
2,note_on,49,53,12
2,note_on,49,0,131
2,note_on,69,36,12
2,note_on,57,30,0
2,note_on,64,36,0
2,note_on,64,0,228
2,note_on,57,0,0
2,note_on,69,0,0
2,note_on,69,36,12
2,note_on,57,30,0
2,note_on,64,36,0
2,note_on,64,0,228
2,note_on,57,0,0
2,note_on,69,0,0
2,note_on,50,50,12
2,note_on,50,0,105
2,note_on,57,28,12
2,note_on,62,28,0
2,note_on,69,34,0
2,note_on,69,0,228
2,note_on,62,0,0
2,note_on,57,0,0
2,note_on,57,28,12
2,note_on,62,28,0
2,note_on,69,34,0
2,note_on,69,0,228
2,note_on,62,0,0
2,note_on,57,0,0
2,note_on,57,43,12
2,note_on,62,43,0
2,note_on,69,43,0
2,note_on,69,0,228
2,note_on,62,0,0
2,note_on,57,0,0
2,note_on,38,35,12
2,note_on,50,42,0
2,note_on,50,0,163
2,note_on,38,0,0
2,note_on,37,38,12
2,note_on,49,45,0
2,note_on,49,0,157
2,note_on,37,0,0
2,note_on,36,39,12
2,note_on,48,47,0
2,note_on,48,0,137
2,note_on,36,0,0
2,note_on,36,42,12
2,note_on,48,50,0
2,note_on,48,0,228
2,note_on,36,0,0
2,note_on,35,44,12
2,note_on,47,52,0
2,note_on,47,0,130
2,note_on,35,0,0
2,note_on,34,48,12
2,note_on,46,48,0
2,note_on,46,0,125
2,note_on,34,0,0
2,note_on,58,27,12
2,note_on,63,31,0
2,note_on,70,37,0
2,note_on,70,0,228
2,note_on,63,0,0
2,note_on,58,0,0
2,note_on,58,28,12
2,note_on,63,32,0
2,note_on,70,38,0
2,note_on,70,0,228
2,note_on,63,0,0
2,note_on,58,0,0
2,note_on,58,31,12
2,note_on,64,35,0
2,note_on,70,42,0
2,note_on,70,0,79
2,note_on,64,0,0
2,note_on,58,0,0
2,note_on,58,30,12
2,note_on,64,34,0
2,note_on,70,41,0
2,note_on,70,0,228
2,note_on,64,0,0
2,note_on,58,0,0
2,note_on,58,18,12
2,note_on,70,35,0
2,note_on,64,26,0
2,note_on,64,0,228
2,note_on,70,0,0
2,note_on,58,0,0
2,note_on,46,46,12
2,note_on,46,0,182
2,note_on,58,27,12
2,note_on,65,30,0
2,note_on,70,36,0
2,note_on,70,0,228
2,note_on,65,0,0
2,note_on,58,0,0
2,note_on,58,27,12
2,note_on,65,30,0
2,note_on,70,36,0
2,note_on,70,0,228
2,note_on,65,0,0
2,note_on,58,0,0
2,note_on,58,29,12
2,note_on,65,33,0
2,note_on,70,39,0
2,note_on,70,0,228
2,note_on,65,0,0
2,note_on,58,0,0
2,note_on,58,24,12
2,note_on,65,27,0
2,note_on,70,33,0
2,note_on,70,0,228
2,note_on,65,0,0
2,note_on,58,0,0
2,note_on,58,24,12
2,note_on,70,33,0
2,note_on,65,27,0
2,note_on,65,0,228
2,note_on,70,0,0
2,note_on,58,0,0
2,note_on,39,44,12
2,note_on,39,0,57
2,note_on,55,16,12
2,note_on,58,22,0
2,note_on,67,26,0
2,note_on,67,0,228
2,note_on,58,0,0
2,note_on,55,0,0
2,note_on,55,17,12
2,note_on,58,23,0
2,note_on,67,28,0
2,note_on,67,0,228
2,note_on,58,0,0
2,note_on,55,0,0
2,note_on,55,18,12
2,note_on,58,25,0
2,note_on,67,30,0
2,note_on,67,0,228
2,note_on,58,0,0
2,note_on,55,0,0
2,note_on,55,19,12
2,note_on,58,25,0
2,note_on,67,31,0
2,note_on,67,0,228
2,note_on,58,0,0
2,note_on,55,0,0
2,note_on,58,27,12
2,note_on,55,19,0
2,note_on,67,33,0
2,note_on,67,0,228
2,note_on,55,0,0
2,note_on,58,0,0
2,note_on,51,53,12
2,note_on,51,0,125
2,note_on,56,22,12
2,note_on,59,25,0
2,note_on,68,35,0
2,note_on,68,0,228
2,note_on,59,0,0
2,note_on,56,0,0
2,note_on,56,23,12
2,note_on,59,26,0
2,note_on,68,31,0
2,note_on,68,0,228
2,note_on,59,0,0
2,note_on,56,0,0
2,note_on,56,22,12
2,note_on,59,25,0
2,note_on,68,35,0
2,note_on,68,0,228
2,note_on,59,0,0
2,note_on,56,0,0
2,note_on,56,24,12
2,note_on,59,27,0
2,note_on,68,32,0
2,note_on,68,0,228
2,note_on,59,0,0
2,note_on,56,0,0
2,note_on,68,32,12
2,note_on,56,24,0
2,note_on,59,27,0
2,note_on,59,0,228
2,note_on,56,0,0
2,note_on,68,0,0
2,note_on,39,44,12
2,note_on,39,0,57
2,note_on,55,16,12
2,note_on,58,22,0
2,note_on,67,26,0
2,note_on,67,0,228
2,note_on,58,0,0
2,note_on,55,0,0
2,note_on,55,17,12
2,note_on,58,23,0
2,note_on,67,28,0
2,note_on,67,0,228
2,note_on,58,0,0
2,note_on,55,0,0
2,note_on,55,18,12
2,note_on,58,25,0
2,note_on,67,30,0
2,note_on,67,0,228
2,note_on,58,0,0
2,note_on,55,0,0
2,note_on,55,19,12
2,note_on,58,25,0
2,note_on,67,31,0
2,note_on,67,0,228
2,note_on,58,0,0
2,note_on,55,0,0
2,note_on,58,27,12
2,note_on,55,19,0
2,note_on,67,33,0
2,note_on,67,0,228
2,note_on,55,0,0
2,note_on,58,0,0
2,note_on,51,53,12
2,note_on,51,0,125
2,note_on,56,18,12
2,note_on,59,21,0
2,note_on,68,29,0
2,note_on,68,0,228
2,note_on,59,0,0
2,note_on,56,0,0
2,note_on,56,19,12
2,note_on,59,22,0
2,note_on,68,26,0
2,note_on,68,0,228
2,note_on,59,0,0
2,note_on,56,0,0
2,note_on,56,18,12
2,note_on,59,21,0
2,note_on,68,29,0
2,note_on,68,0,228
2,note_on,59,0,0
2,note_on,56,0,0
2,note_on,56,20,12
2,note_on,59,22,0
2,note_on,68,27,0
2,note_on,68,0,228
2,note_on,59,0,0
2,note_on,56,0,0
2,note_on,68,27,12
2,note_on,56,20,0
2,note_on,59,22,0
2,note_on,59,0,228
2,note_on,56,0,0
2,note_on,68,0,0
2,note_on,39,33,12
2,note_on,39,0,57
2,note_on,55,13,12
2,note_on,58,15,0
2,note_on,67,17,0
2,note_on,67,0,228
2,note_on,58,0,0
2,note_on,55,0,0
2,note_on,55,13,12
2,note_on,58,15,0
2,note_on,67,17,0
2,note_on,67,0,228
2,note_on,58,0,0
2,note_on,55,0,0
2,note_on,55,13,12
2,note_on,58,15,0
2,note_on,67,18,0
2,note_on,67,0,228
2,note_on,58,0,0
2,note_on,55,0,0
2,note_on,55,14,12
2,note_on,58,16,0
2,note_on,67,19,0
2,note_on,67,0,228
2,note_on,58,0,0
2,note_on,55,0,0
2,note_on,58,16,12
2,note_on,55,14,0
2,note_on,67,20,0
2,note_on,67,0,228
2,note_on,55,0,0
2,note_on,58,0,0
2,note_on,55,15,12
2,note_on,58,17,0
2,note_on,67,21,0
2,note_on,67,0,228
2,note_on,58,0,0
2,note_on,55,0,0
2,note_on,55,15,12
2,note_on,58,17,0
2,note_on,67,22,0
2,note_on,67,0,228
2,note_on,58,0,0
2,note_on,55,0,0
2,note_on,55,16,12
2,note_on,58,18,0
2,note_on,67,22,0
2,note_on,67,0,228
2,note_on,58,0,0
2,note_on,55,0,0
2,note_on,55,17,12
2,note_on,58,20,0
2,note_on,67,23,0
2,note_on,67,0,228
2,note_on,58,0,0
2,note_on,55,0,0
2,note_on,55,18,12
2,note_on,58,21,0
2,note_on,67,24,0
2,note_on,67,0,228
2,note_on,58,0,0
2,note_on,55,0,0
2,note_on,58,22,12
2,note_on,55,19,0
2,note_on,67,26,0
2,note_on,67,0,228
2,note_on,55,0,0
2,note_on,58,0,0
2,note_on,55,20,12
2,note_on,58,22,0
2,note_on,67,28,0
2,note_on,67,0,228
2,note_on,58,0,0
2,note_on,55,0,0
2,note_on,55,20,12
2,note_on,58,22,0
2,note_on,67,28,0
2,note_on,67,0,228
2,note_on,58,0,0
2,note_on,55,0,0
2,note_on,55,19,12
2,note_on,58,22,0
2,note_on,67,26,0
2,note_on,67,0,228
2,note_on,58,0,0
2,note_on,55,0,0
2,note_on,55,19,12
2,note_on,58,22,0
2,note_on,67,26,0
2,note_on,67,0,228
2,note_on,58,0,0
2,note_on,55,0,0
2,note_on,55,18,12
2,note_on,58,21,0
2,note_on,67,24,0
2,note_on,67,0,228
2,note_on,58,0,0
2,note_on,55,0,0
2,note_on,58,21,12
2,note_on,55,18,0
2,note_on,67,24,0
2,note_on,67,0,228
2,note_on,55,0,0
2,note_on,58,0,0
2,note_on,55,17,12
2,note_on,58,20,0
2,note_on,67,23,0
2,note_on,67,0,228
2,note_on,58,0,0
2,note_on,55,0,0
2,note_on,55,17,12
2,note_on,58,20,0
2,note_on,67,23,0
2,note_on,67,0,228
2,note_on,58,0,0
2,note_on,55,0,0
2,note_on,55,16,12
2,note_on,58,18,0
2,note_on,67,23,0
2,note_on,67,0,228
2,note_on,58,0,0
2,note_on,55,0,0
2,note_on,55,16,12
2,note_on,58,18,0
2,note_on,67,22,0
2,note_on,67,0,228
2,note_on,58,0,0
2,note_on,55,0,0
2,note_on,55,15,12
2,note_on,58,17,0
2,note_on,67,22,0
2,note_on,67,0,228
2,note_on,58,0,0
2,note_on,55,0,0
2,note_on,58,17,12
2,note_on,55,15,0
2,note_on,67,22,0
2,note_on,67,0,228
2,note_on,55,0,0
2,note_on,58,0,0
2,note_on,32,61,12
2,note_on,44,17,133
2,note_on,51,21,0
2,note_on,51,0,228
2,note_on,44,0,0
2,note_on,44,18,12
2,note_on,51,22,0
2,note_on,51,0,228
2,note_on,44,0,0
2,note_on,44,20,12
2,note_on,51,23,0
2,note_on,58,23,0
2,note_on,58,0,228
2,note_on,51,0,0
2,note_on,44,0,0
2,note_on,51,18,12
2,note_on,58,22,0
2,note_on,58,0,228
2,note_on,51,0,0
2,note_on,51,18,12
2,note_on,58,22,0
2,note_on,58,0,228
2,note_on,51,0,0
2,note_on,32,0,12
2,note_on,51,16,0
2,note_on,56,18,0
2,note_on,63,22,0
2,note_on,63,0,94
2,note_on,56,0,0
2,note_on,51,0,0
2,note_on,51,14,12
2,note_on,56,16,0
2,note_on,63,20,0
2,note_on,63,0,228
2,note_on,56,0,0
2,note_on,51,0,0
2,note_on,51,13,12
2,note_on,56,15,0
2,note_on,63,19,0
2,note_on,63,0,228
2,note_on,56,0,0
2,note_on,51,0,0
2,note_on,51,16,12
2,note_on,56,18,0
2,note_on,63,22,0
2,note_on,63,0,79
2,note_on,56,0,0
2,note_on,51,0,0
2,note_on,51,14,12
2,note_on,56,16,0
2,note_on,63,20,0
2,note_on,63,0,228
2,note_on,56,0,0
2,note_on,51,0,0
2,note_on,51,14,12
2,note_on,56,16,0
2,note_on,63,20,0
2,note_on,63,0,228
2,note_on,56,0,0
2,note_on,51,0,0
2,note_on,32,57,12
2,note_on,53,13,120
2,note_on,56,15,0
2,note_on,61,18,0
2,note_on,65,22,0
2,note_on,65,0,228
2,note_on,56,0,0
2,note_on,61,0,0
2,note_on,53,0,0
2,note_on,53,13,12
2,note_on,56,15,0
2,note_on,61,18,0
2,note_on,65,22,0
2,note_on,65,0,228
2,note_on,56,0,0
2,note_on,61,0,0
2,note_on,53,0,0
2,note_on,53,14,12
2,note_on,56,16,0
2,note_on,61,20,0
2,note_on,65,23,0
2,note_on,65,0,228
2,note_on,56,0,0
2,note_on,61,0,0
2,note_on,53,0,0
2,note_on,53,13,12
2,note_on,56,15,0
2,note_on,61,18,0
2,note_on,65,22,0
2,note_on,65,0,228
2,note_on,56,0,0
2,note_on,61,0,0
2,note_on,53,0,0
2,note_on,53,13,12
2,note_on,56,15,0
2,note_on,61,18,0
2,note_on,65,22,0
2,note_on,65,0,228
2,note_on,56,0,0
2,note_on,61,0,0
2,note_on,53,0,0
2,note_on,32,0,12
2,note_on,55,11,0
2,note_on,58,13,0
2,note_on,61,15,0
2,note_on,67,19,0
2,note_on,67,0,81
2,note_on,55,0,0
2,note_on,58,0,0
2,note_on,61,0,0
2,note_on,55,11,12
2,note_on,58,13,0
2,note_on,61,15,0
2,note_on,67,19,0
2,note_on,67,0,228
2,note_on,55,0,0
2,note_on,58,0,0
2,note_on,61,0,0
2,note_on,55,12,12
2,note_on,58,14,0
2,note_on,61,16,0
2,note_on,67,20,0
2,note_on,67,0,228
2,note_on,55,0,0
2,note_on,58,0,0
2,note_on,61,0,0
2,note_on,56,12,12
2,note_on,61,16,0
2,note_on,68,20,0
2,note_on,68,0,95
2,note_on,61,0,0
2,note_on,56,0,0
2,note_on,56,12,12
2,note_on,61,16,0
2,note_on,68,20,0
2,note_on,68,0,228
2,note_on,61,0,0
2,note_on,56,0,0
2,note_on,56,12,12
2,note_on,61,16,0
2,note_on,68,20,0
2,note_on,68,0,228
2,note_on,61,0,0
2,note_on,56,0,0
2,note_on,32,57,12
2,note_on,55,13,120
2,note_on,58,18,0
2,note_on,67,22,0
2,note_on,67,0,228
2,note_on,58,0,0
2,note_on,55,0,0
2,note_on,55,13,12
2,note_on,58,18,0
2,note_on,67,22,0
2,note_on,67,0,228
2,note_on,58,0,0
2,note_on,55,0,0
2,note_on,63,20,12
2,note_on,55,14,0
2,note_on,58,14,0
2,note_on,61,20,0
2,note_on,67,23,0
2,note_on,67,0,228
2,note_on,63,0,0
2,note_on,55,0,0
2,note_on,58,0,0
2,note_on,61,0,0
2,note_on,63,18,12
2,note_on,55,13,0
2,note_on,58,13,0
2,note_on,61,18,0
2,note_on,67,22,0
2,note_on,67,0,228
2,note_on,63,0,0
2,note_on,55,0,0
2,note_on,58,0,0
2,note_on,61,0,0
2,note_on,63,18,12
2,note_on,55,13,0
2,note_on,58,13,0
2,note_on,61,18,0
2,note_on,67,22,0
2,note_on,67,0,228
2,note_on,63,0,0
2,note_on,55,0,0
2,note_on,58,0,0
2,note_on,61,0,0
2,note_on,32,0,12
2,note_on,56,13,0
2,note_on,60,15,0
2,note_on,66,19,0
2,note_on,66,0,81
2,note_on,60,0,0
2,note_on,56,0,0
2,note_on,56,13,12
2,note_on,60,15,0
2,note_on,66,19,0
2,note_on,66,0,228
2,note_on,60,0,0
2,note_on,56,0,0
2,note_on,56,13,12
2,note_on,60,16,0
2,note_on,66,20,0
2,note_on,66,0,228
2,note_on,60,0,0
2,note_on,56,0,0
2,note_on,53,13,12
2,note_on,56,15,0
2,note_on,65,17,0
2,note_on,65,0,95
2,note_on,56,0,0
2,note_on,53,0,0
2,note_on,53,13,12
2,note_on,56,15,0
2,note_on,65,17,0
2,note_on,65,0,228
2,note_on,56,0,0
2,note_on,53,0,0
2,note_on,53,13,12
2,note_on,56,15,0
2,note_on,65,17,0
2,note_on,65,0,228
2,note_on,56,0,0
2,note_on,53,0,0
2,note_on,32,58,12
2,note_on,51,18,120
2,note_on,56,18,0
2,note_on,63,22,0
2,note_on,63,0,228
2,note_on,56,0,0
2,note_on,51,0,0
2,note_on,51,18,12
2,note_on,56,18,0
2,note_on,63,22,0
2,note_on,63,0,228
2,note_on,56,0,0
2,note_on,51,0,0
2,note_on,51,15,12
2,note_on,56,18,0
2,note_on,63,22,0
2,note_on,63,0,68
2,note_on,56,0,0
2,note_on,51,0,0
2,note_on,51,15,12
2,note_on,56,18,0
2,note_on,63,22,0
2,note_on,63,0,228
2,note_on,56,0,0
2,note_on,51,0,0
2,note_on,51,14,12
2,note_on,56,16,0
2,note_on,63,20,0
2,note_on,63,0,228
2,note_on,56,0,0
2,note_on,51,0,0
2,note_on,32,0,12
2,note_on,51,16,0
2,note_on,63,20,0
2,note_on,63,0,108
2,note_on,51,0,0
2,note_on,51,16,12
2,note_on,63,20,0
2,note_on,63,0,228
2,note_on,51,0,0
2,note_on,51,15,12
2,note_on,63,18,0
2,note_on,63,0,228
2,note_on,51,0,0
2,note_on,51,16,12
2,note_on,63,20,0
2,note_on,63,0,228
2,note_on,51,0,0
2,note_on,51,15,12
2,note_on,63,18,0
2,note_on,63,0,228
2,note_on,51,0,0
2,note_on,51,15,12
2,note_on,63,18,0
2,note_on,63,0,228
2,note_on,51,0,0
2,note_on,32,62,12
2,note_on,51,17,80
2,note_on,63,22,0
2,note_on,63,0,228
2,note_on,51,0,0
2,note_on,51,18,12
2,note_on,63,22,0
2,note_on,63,0,228
2,note_on,51,0,0
2,note_on,51,20,12
2,note_on,63,24,0
2,note_on,63,0,228
2,note_on,51,0,0
2,note_on,51,18,12
2,note_on,63,22,0
2,note_on,63,0,228
2,note_on,51,0,0
2,note_on,51,18,12
2,note_on,63,22,0
2,note_on,63,0,228
2,note_on,51,0,0
2,note_on,32,0,12
2,note_on,51,15,0
2,note_on,56,17,0
2,note_on,63,21,0
2,note_on,63,0,137
2,note_on,56,0,0
2,note_on,51,0,0
2,note_on,51,15,12
2,note_on,56,17,0
2,note_on,63,21,0
2,note_on,63,0,228
2,note_on,56,0,0
2,note_on,51,0,0
2,note_on,51,15,12
2,note_on,56,17,0
2,note_on,63,21,0
2,note_on,63,0,228
2,note_on,56,0,0
2,note_on,51,0,0
2,note_on,51,15,12
2,note_on,56,20,0
2,note_on,63,25,0
2,note_on,63,0,79
2,note_on,56,0,0
2,note_on,51,0,0
2,note_on,51,15,12
2,note_on,56,17,0
2,note_on,63,21,0
2,note_on,63,0,228
2,note_on,56,0,0
2,note_on,51,0,0
2,note_on,51,15,12
2,note_on,56,17,0
2,note_on,63,21,0
2,note_on,63,0,228
2,note_on,56,0,0
2,note_on,51,0,0
2,note_on,32,56,12
2,note_on,53,11,120
2,note_on,56,12,0
2,note_on,61,18,0
2,note_on,65,22,0
2,note_on,65,0,228
2,note_on,56,0,0
2,note_on,61,0,0
2,note_on,53,0,0
2,note_on,53,11,12
2,note_on,56,12,0
2,note_on,61,18,0
2,note_on,65,22,0
2,note_on,65,0,228
2,note_on,56,0,0
2,note_on,61,0,0
2,note_on,53,0,0
2,note_on,53,11,12
2,note_on,56,13,0
2,note_on,61,20,0
2,note_on,65,25,0
2,note_on,65,0,228
2,note_on,56,0,0
2,note_on,61,0,0
2,note_on,53,0,0
2,note_on,53,11,12
2,note_on,56,12,0
2,note_on,61,18,0
2,note_on,65,22,0
2,note_on,65,0,228
2,note_on,56,0,0
2,note_on,61,0,0
2,note_on,53,0,0
2,note_on,53,11,12
2,note_on,56,12,0
2,note_on,61,18,0
2,note_on,65,22,0
2,note_on,65,0,228
2,note_on,56,0,0
2,note_on,61,0,0
2,note_on,53,0,0
2,note_on,32,0,12
2,note_on,55,11,0
2,note_on,58,12,0
2,note_on,61,15,0
2,note_on,67,17,0
2,note_on,67,0,81
2,note_on,55,0,0
2,note_on,58,0,0
2,note_on,61,0,0
2,note_on,55,11,12
2,note_on,58,12,0
2,note_on,61,15,0
2,note_on,67,17,0
2,note_on,67,0,228
2,note_on,55,0,0
2,note_on,58,0,0
2,note_on,61,0,0
2,note_on,55,11,12
2,note_on,58,12,0
2,note_on,61,15,0
2,note_on,67,18,0
2,note_on,67,0,228
2,note_on,55,0,0
2,note_on,58,0,0
2,note_on,61,0,0
2,note_on,56,13,12
2,note_on,61,15,0
2,note_on,68,18,0
2,note_on,68,0,95
2,note_on,61,0,0
2,note_on,56,0,0
2,note_on,56,11,12
2,note_on,61,15,0
2,note_on,68,18,0
2,note_on,68,0,228
2,note_on,61,0,0
2,note_on,56,0,0
2,note_on,56,11,12
2,note_on,61,15,0
2,note_on,68,18,0
2,note_on,68,0,228
2,note_on,61,0,0
2,note_on,56,0,0
2,note_on,32,57,12
2,note_on,55,13,120
2,note_on,58,18,0
2,note_on,67,22,0
2,note_on,67,0,228
2,note_on,58,0,0
2,note_on,55,0,0
2,note_on,55,13,12
2,note_on,58,18,0
2,note_on,67,22,0
2,note_on,67,0,228
2,note_on,58,0,0
2,note_on,55,0,0
2,note_on,61,18,12
2,note_on,63,18,0
2,note_on,55,14,0
2,note_on,58,20,0
2,note_on,67,25,0
2,note_on,67,0,228
2,note_on,61,0,0
2,note_on,63,0,0
2,note_on,55,0,0
2,note_on,58,0,0
2,note_on,61,18,12
2,note_on,63,18,0
2,note_on,55,13,0
2,note_on,58,18,0
2,note_on,67,22,0
2,note_on,67,0,228
2,note_on,61,0,0
2,note_on,63,0,0
2,note_on,55,0,0
2,note_on,58,0,0
2,note_on,61,18,12
2,note_on,63,18,0
2,note_on,55,13,0
2,note_on,58,18,0
2,note_on,67,22,0
2,note_on,67,0,228
2,note_on,61,0,0
2,note_on,63,0,0
2,note_on,55,0,0
2,note_on,58,0,0
2,note_on,32,0,12
2,note_on,56,13,0
2,note_on,60,15,0
2,note_on,66,17,0
2,note_on,66,0,81
2,note_on,60,0,0
2,note_on,56,0,0
2,note_on,56,13,12
2,note_on,60,15,0
2,note_on,66,17,0
2,note_on,66,0,228
2,note_on,60,0,0
2,note_on,56,0,0
2,note_on,56,13,12
2,note_on,60,15,0
2,note_on,66,18,0
2,note_on,66,0,228
2,note_on,60,0,0
2,note_on,56,0,0
2,note_on,53,13,12
2,note_on,56,15,0
2,note_on,65,18,0
2,note_on,65,0,95
2,note_on,56,0,0
2,note_on,53,0,0
2,note_on,53,12,12
2,note_on,56,14,0
2,note_on,65,17,0
2,note_on,65,0,228
2,note_on,56,0,0
2,note_on,53,0,0
2,note_on,53,11,12
2,note_on,56,13,0
2,note_on,65,16,0
2,note_on,65,0,228
2,note_on,56,0,0
2,note_on,53,0,0
2,note_on,32,56,12
2,note_on,52,14,120
2,note_on,56,16,0
2,note_on,64,20,0
2,note_on,64,0,228
2,note_on,56,0,0
2,note_on,52,0,0
2,note_on,52,14,12
2,note_on,56,16,0
2,note_on,64,20,0
2,note_on,64,0,228
2,note_on,56,0,0
2,note_on,52,0,0
2,note_on,52,14,12
2,note_on,56,16,0
2,note_on,64,20,0
2,note_on,64,0,228
2,note_on,56,0,0
2,note_on,52,0,0
2,note_on,52,11,12
2,note_on,56,16,0
2,note_on,64,20,0
2,note_on,64,0,228
2,note_on,56,0,0
2,note_on,52,0,0
2,note_on,52,11,12
2,note_on,56,15,0
2,note_on,64,17,0
2,note_on,64,0,228
2,note_on,56,0,0
2,note_on,52,0,0
2,note_on,32,0,12
2,note_on,51,10,0
2,note_on,56,15,0
2,note_on,63,18,0
2,note_on,63,0,55
2,note_on,56,0,0
2,note_on,51,0,0
2,note_on,56,15,12
2,note_on,51,10,0
2,note_on,63,18,0
2,note_on,63,0,228
2,note_on,51,0,0
2,note_on,56,0,0
2,note_on,56,15,12
2,note_on,51,9,0
2,note_on,63,17,0
2,note_on,63,0,228
2,note_on,51,0,0
2,note_on,56,0,0
2,note_on,56,15,12
2,note_on,51,10,0
2,note_on,63,18,0
2,note_on,63,0,228
2,note_on,51,0,0
2,note_on,56,0,0
2,note_on,56,15,12
2,note_on,51,9,0
2,note_on,63,17,0
2,note_on,63,0,228
2,note_on,51,0,0
2,note_on,56,0,0
2,note_on,56,15,12
2,note_on,51,9,0
2,note_on,63,17,0
2,note_on,63,0,228
2,note_on,51,0,0
2,note_on,56,0,0
2,note_on,32,56,12
2,note_on,52,14,120
2,note_on,56,16,0
2,note_on,64,20,0
2,note_on,64,0,228
2,note_on,56,0,0
2,note_on,52,0,0
2,note_on,52,14,12
2,note_on,56,16,0
2,note_on,64,20,0
2,note_on,64,0,228
2,note_on,56,0,0
2,note_on,52,0,0
2,note_on,52,14,12
2,note_on,56,16,0
2,note_on,64,20,0
2,note_on,64,0,228
2,note_on,56,0,0
2,note_on,52,0,0
2,note_on,52,11,12
2,note_on,56,16,0
2,note_on,64,20,0
2,note_on,64,0,228
2,note_on,56,0,0
2,note_on,52,0,0
2,note_on,52,11,12
2,note_on,56,15,0
2,note_on,64,17,0
2,note_on,64,0,228
2,note_on,56,0,0
2,note_on,52,0,0
2,note_on,32,0,12
2,note_on,51,10,0
2,note_on,56,15,0
2,note_on,63,18,0
2,note_on,63,0,55
2,note_on,56,0,0
2,note_on,51,0,0
2,note_on,56,15,12
2,note_on,51,10,0
2,note_on,63,18,0
2,note_on,63,0,228
2,note_on,51,0,0
2,note_on,56,0,0
2,note_on,56,15,12
2,note_on,51,9,0
2,note_on,63,17,0
2,note_on,63,0,228
2,note_on,51,0,0
2,note_on,56,0,0
2,note_on,52,14,12
2,note_on,56,16,0
2,note_on,64,20,0
2,note_on,64,0,102
2,note_on,56,0,0
2,note_on,52,0,0
2,note_on,52,11,12
2,note_on,56,16,0
2,note_on,64,20,0
2,note_on,64,0,228
2,note_on,56,0,0
2,note_on,52,0,0
2,note_on,52,11,12
2,note_on,56,15,0
2,note_on,64,17,0
2,note_on,64,0,228
2,note_on,56,0,0
2,note_on,52,0,0
2,note_on,51,10,12
2,note_on,56,15,0
2,note_on,63,18,0
2,note_on,63,0,91
2,note_on,56,0,0
2,note_on,51,0,0
2,note_on,56,15,12
2,note_on,51,10,0
2,note_on,63,18,0
2,note_on,63,0,228
2,note_on,51,0,0
2,note_on,56,0,0
2,note_on,56,15,12
2,note_on,51,9,0
2,note_on,63,17,0
2,note_on,63,0,228
2,note_on,51,0,0
2,note_on,56,0,0
2,note_on,51,14,12
2,note_on,56,16,0
2,note_on,63,20,0
2,note_on,63,0,228
2,note_on,56,0,0
2,note_on,51,0,0
2,note_on,51,11,12
2,note_on,56,16,0
2,note_on,63,20,0
2,note_on,63,0,228
2,note_on,56,0,0
2,note_on,51,0,0
2,note_on,51,11,12
2,note_on,56,15,0
2,note_on,63,17,0
2,note_on,63,0,228
2,note_on,56,0,0
2,note_on,51,0,0
2,note_on,32,55,12
2,note_on,56,15,103
2,note_on,51,10,0
2,note_on,63,18,0
2,note_on,63,0,228
2,note_on,51,0,0
2,note_on,56,0,0
2,note_on,56,15,12
2,note_on,51,9,0
2,note_on,63,17,0
2,note_on,63,0,228
2,note_on,51,0,0
2,note_on,56,0,0
2,note_on,51,14,12
2,note_on,56,16,0
2,note_on,63,20,0
2,note_on,63,0,228
2,note_on,56,0,0
2,note_on,51,0,0
2,note_on,51,11,12
2,note_on,56,16,0
2,note_on,61,20,0
2,note_on,61,0,148
2,note_on,56,0,0
2,note_on,51,0,0
2,note_on,51,11,12
2,note_on,56,15,0
2,note_on,61,17,0
2,note_on,61,0,228
2,note_on,56,0,0
2,note_on,51,0,0
2,note_on,32,0,12
2,note_on,51,13,0
2,note_on,56,15,0
2,note_on,63,18,0
2,note_on,63,0,91
2,note_on,56,0,0
2,note_on,51,0,0
2,note_on,56,15,12
2,note_on,51,10,0
2,note_on,63,18,0
2,note_on,63,0,228
2,note_on,51,0,0
2,note_on,56,0,0
2,note_on,56,15,12
2,note_on,51,9,0
2,note_on,63,17,0
2,note_on,63,0,228
2,note_on,51,0,0
2,note_on,56,0,0
2,note_on,51,14,12
2,note_on,56,16,0
2,note_on,63,20,0
2,note_on,63,0,228
2,note_on,56,0,0
2,note_on,51,0,0
2,note_on,51,11,12
2,note_on,56,16,0
2,note_on,61,20,0
2,note_on,61,0,134
2,note_on,56,0,0
2,note_on,51,0,0
2,note_on,51,11,12
2,note_on,56,15,0
2,note_on,61,17,0
2,note_on,61,0,228
2,note_on,56,0,0
2,note_on,51,0,0
2,note_on,51,13,12
2,note_on,56,15,0
2,note_on,63,18,0
2,note_on,63,0,91
2,note_on,56,0,0
2,note_on,51,0,0
2,note_on,56,15,12
2,note_on,51,10,0
2,note_on,63,18,0
2,note_on,63,0,228
2,note_on,51,0,0
2,note_on,56,0,0
2,note_on,55,15,12
2,note_on,51,9,0
2,note_on,63,17,0
2,note_on,63,0,228
2,note_on,51,0,0
2,note_on,55,0,0
2,note_on,51,14,12
2,note_on,56,16,0
2,note_on,63,20,0
2,note_on,63,0,121
2,note_on,56,0,0
2,note_on,51,0,0
2,note_on,51,11,12
2,note_on,56,16,0
2,note_on,63,20,0
2,note_on,63,0,228
2,note_on,56,0,0
2,note_on,51,0,0
2,note_on,51,11,12
2,note_on,55,15,0
2,note_on,63,17,0
2,note_on,63,0,228
2,note_on,55,0,0
2,note_on,51,0,0
2,note_on,51,13,12
2,note_on,56,15,0
2,note_on,63,18,0
2,note_on,63,0,91
2,note_on,56,0,0
2,note_on,51,0,0
2,note_on,56,15,12
2,note_on,51,10,0
2,note_on,63,18,0
2,note_on,63,0,228
2,note_on,51,0,0
2,note_on,56,0,0
2,note_on,55,15,12
2,note_on,51,9,0
2,note_on,63,17,0
2,note_on,63,0,228
2,note_on,51,0,0
2,note_on,55,0,0
2,note_on,51,14,12
2,note_on,56,16,0
2,note_on,63,20,0
2,note_on,63,0,94
2,note_on,56,0,0
2,note_on,51,0,0
2,note_on,51,11,12
2,note_on,56,16,0
2,note_on,63,20,0
2,note_on,63,0,228
2,note_on,56,0,0
2,note_on,51,0,0
2,note_on,51,11,12
2,note_on,55,15,0
2,note_on,63,17,0
2,note_on,63,0,228
2,note_on,55,0,0
2,note_on,51,0,0
2,note_on,32,53,12
2,note_on,56,15,103
2,note_on,51,10,0
2,note_on,63,18,0
2,note_on,63,0,228
2,note_on,51,0,0
2,note_on,56,0,0
2,note_on,56,15,12
2,note_on,51,9,0
2,note_on,63,17,0
2,note_on,63,0,228
2,note_on,51,0,0
2,note_on,56,0,0
2,note_on,51,14,12
2,note_on,56,16,0
2,note_on,63,20,0
2,note_on,63,0,228
2,note_on,56,0,0
2,note_on,51,0,0
2,note_on,51,11,12
2,note_on,56,16,0
2,note_on,63,20,0
2,note_on,63,0,228
2,note_on,56,0,0
2,note_on,51,0,0
2,note_on,51,11,12
2,note_on,56,15,0
2,note_on,63,17,0
2,note_on,63,0,228
2,note_on,56,0,0
2,note_on,51,0,0
2,note_on,32,0,12
2,note_on,51,13,0
2,note_on,56,15,0
2,note_on,63,18,0
2,note_on,63,0,228
2,note_on,56,0,0
2,note_on,51,0,0
2,note_on,56,15,12
2,note_on,51,10,0
2,note_on,63,18,0
2,note_on,63,0,228
2,note_on,51,0,0
2,note_on,56,0,0
2,note_on,56,15,12
2,note_on,51,9,0
2,note_on,63,17,0
2,note_on,63,0,228
2,note_on,51,0,0
2,note_on,56,0,0
2,note_on,51,14,12
2,note_on,56,16,0
2,note_on,63,20,0
2,note_on,63,0,228
2,note_on,56,0,0
2,note_on,51,0,0
2,note_on,51,11,12
2,note_on,56,16,0
2,note_on,56,0,228
2,note_on,51,0,0
2,note_on,51,11,12
2,note_on,56,15,0
2,note_on,63,17,0
2,note_on,63,0,175
2,note_on,56,0,0
2,note_on,51,0,0
2,note_on,51,11,12
2,note_on,56,13,0
2,note_on,63,15,0
2,note_on,63,0,1440
2,note_on,56,0,0
2,note_on,51,0,0
