Track,Message Type,Note,Velocity,Time
1,note_on,72,61,960
1,note_on,72,0,480
1,note_on,65,50,0
1,note_on,74,73,0
1,note_on,74,0,120
1,note_on,72,52,0
1,note_on,65,0,120
1,note_on,77,64,0
1,note_on,77,0,120
1,note_on,72,0,0
1,note_on,60,46,120
1,note_on,67,67,0
1,note_on,67,0,120
1,note_on,65,47,0
1,note_on,60,0,120
1,note_on,72,63,0
1,note_on,72,0,120
1,note_on,65,0,0
1,note_on,65,48,120
1,note_on,74,69,0
1,note_on,74,0,120
1,note_on,72,49,0
1,note_on,65,0,120
1,note_on,77,63,0
1,note_on,77,0,120
1,note_on,72,0,0
1,note_on,67,50,120
1,note_on,74,73,0
1,note_on,74,0,120
1,note_on,72,51,0
1,note_on,67,0,120
1,note_on,79,61,0
1,note_on,79,0,120
1,note_on,72,0,0
1,note_on,60,44,120
1,note_on,69,64,0
1,note_on,69,0,120
1,note_on,67,47,0
1,note_on,60,0,120
1,note_on,72,59,0
1,note_on,72,0,120
1,note_on,67,0,0
1,note_on,67,48,120
1,note_on,74,69,0
1,note_on,74,0,120
1,note_on,72,52,0
1,note_on,67,0,120
1,note_on,79,66,0
1,note_on,79,0,120
1,note_on,72,0,0
1,note_on,69,52,120
1,note_on,74,76,0
1,note_on,74,0,120
1,note_on,72,53,0
1,note_on,69,0,120
1,note_on,81,65,0
1,note_on,81,0,120
1,note_on,72,0,0
1,note_on,65,49,120
1,note_on,74,71,0
1,note_on,74,0,120
1,note_on,72,49,0
1,note_on,65,0,120
1,note_on,77,63,0
1,note_on,77,0,120
1,note_on,72,0,0
1,note_on,74,50,120
1,note_on,81,72,0
1,note_on,81,0,120
1,note_on,79,54,0
1,note_on,74,0,120
1,note_on,86,66,0
1,note_on,86,0,120
1,note_on,79,0,0
1,note_on,67,52,120
1,note_on,74,76,0
1,note_on,74,0,120
1,note_on,72,57,0
1,note_on,67,0,120
1,note_on,79,66,0
1,note_on,79,0,120
1,note_on,72,0,0
1,note_on,72,51,120
1,note_on,81,72,0
1,note_on,81,0,120
1,note_on,79,51,0
1,note_on,72,0,120
1,note_on,84,64,0
1,note_on,84,0,120
1,note_on,79,0,0
1,note_on,84,51,120
1,note_on,93,75,0
1,note_on,93,0,120
1,note_on,91,53,0
1,note_on,84,0,120
1,note_on,96,69,0
1,note_on,96,0,120
1,note_on,91,0,0
1,note_on,65,50,120
1,note_on,74,73,0
1,note_on,74,0,120
1,note_on,72,51,0
1,note_on,65,0,120
1,note_on,77,69,0
1,note_on,77,0,120
1,note_on,72,0,0
1,note_on,60,46,120
1,note_on,67,67,0
1,note_on,67,0,120
1,note_on,65,47,0
1,note_on,60,0,120
1,note_on,72,65,0
1,note_on,72,0,120
1,note_on,65,0,0
1,note_on,65,48,120
1,note_on,74,69,0
1,note_on,74,0,120
1,note_on,72,53,0
1,note_on,65,0,120
1,note_on,77,67,0
1,note_on,77,0,120
1,note_on,72,0,0
1,note_on,67,50,120
1,note_on,74,73,0
1,note_on,74,0,120
1,note_on,72,51,0
1,note_on,67,0,120
1,note_on,79,65,0
1,note_on,79,0,120
1,note_on,72,0,0
1,note_on,60,40,120
1,note_on,69,64,0
1,note_on,69,0,120
1,note_on,67,47,0
1,note_on,60,0,120
1,note_on,72,63,0
1,note_on,72,0,120
1,note_on,67,0,0
1,note_on,67,48,120
1,note_on,74,69,0
1,note_on,74,0,120
1,note_on,72,49,0
1,note_on,67,0,120
1,note_on,79,66,0
1,note_on,79,0,120
1,note_on,72,0,0
1,note_on,69,52,120
1,note_on,74,76,0
1,note_on,74,0,120
1,note_on,72,53,0
1,note_on,69,0,120
1,note_on,81,70,0
1,note_on,81,0,120
1,note_on,72,0,0
1,note_on,69,49,120
1,note_on,76,71,0
1,note_on,76,0,120
1,note_on,74,49,0
1,note_on,69,0,120
1,note_on,81,66,0
1,note_on,81,0,120
1,note_on,74,0,0
1,note_on,67,50,120
1,note_on,74,72,0
1,note_on,74,0,120
1,note_on,72,53,0
1,note_on,67,0,120
1,note_on,79,65,0
1,note_on,79,0,120
1,note_on,72,0,0
1,note_on,65,54,120
1,note_on,74,80,0
1,note_on,74,0,120
1,note_on,72,57,0
1,note_on,65,0,120
1,note_on,77,71,0
1,note_on,77,0,120
1,note_on,72,0,0
1,note_on,77,51,120
1,note_on,86,72,0
1,note_on,86,0,120
1,note_on,84,51,0
1,note_on,77,0,120
1,note_on,89,65,0
1,note_on,89,0,120
1,note_on,84,0,0
1,note_on,89,51,120
1,note_on,98,75,0
1,note_on,98,0,120
1,note_on,96,58,0
1,note_on,89,0,120
1,note_on,101,71,0
1,note_on,101,0,120
1,note_on,96,0,0
1,note_on,65,50,120
1,note_on,74,73,0
1,note_on,74,0,60
1,note_on,72,58,0
1,note_on,72,0,60
1,note_on,74,63,0
1,note_on,74,0,60
1,note_on,72,52,0
1,note_on,65,0,60
1,note_on,77,67,0
1,note_on,77,0,120
1,note_on,72,0,0
1,note_on,60,46,120
1,note_on,67,67,0
1,note_on,67,0,60
1,note_on,65,53,0
1,note_on,65,0,60
1,note_on,67,57,0
1,note_on,67,0,60
1,note_on,65,47,0
1,note_on,60,0,60
1,note_on,72,66,0
1,note_on,72,0,120
1,note_on,65,0,0
1,note_on,65,48,120
1,note_on,74,69,0
1,note_on,74,0,60
1,note_on,72,55,0
1,note_on,72,0,60
1,note_on,74,59,0
1,note_on,74,0,60
1,note_on,72,49,0
1,note_on,65,0,60
1,note_on,77,66,0
1,note_on,77,0,120
1,note_on,72,0,0
1,note_on,67,50,120
1,note_on,74,73,0
1,note_on,74,0,60
1,note_on,72,57,0
1,note_on,72,0,60
1,note_on,74,63,0
1,note_on,74,0,60
1,note_on,72,51,0
1,note_on,67,0,60
1,note_on,79,66,0
1,note_on,79,0,120
1,note_on,72,0,0
1,note_on,60,40,120
1,note_on,69,64,0
1,note_on,69,0,60
1,note_on,67,53,0
1,note_on,67,0,60
1,note_on,69,57,0
1,note_on,69,0,60
1,note_on,67,57,0
1,note_on,60,0,60
1,note_on,72,64,0
1,note_on,72,0,120
1,note_on,67,0,0
1,note_on,67,48,120
1,note_on,74,69,0
1,note_on,74,0,60
1,note_on,72,59,0
1,note_on,72,0,60
1,note_on,74,61,0
1,note_on,74,0,60
1,note_on,72,52,0
1,note_on,67,0,60
1,note_on,79,65,0
1,note_on,79,0,120
1,note_on,72,0,0
1,note_on,69,52,120
1,note_on,74,76,0
1,note_on,74,0,60
1,note_on,72,57,0
1,note_on,72,0,60
1,note_on,74,64,0
1,note_on,74,0,60
1,note_on,72,53,0
1,note_on,69,0,60
1,note_on,81,66,0
1,note_on,81,0,120
1,note_on,72,0,0
1,note_on,65,49,120
1,note_on,74,71,0
1,note_on,74,0,60
1,note_on,72,57,0
1,note_on,72,0,60
1,note_on,74,63,0
1,note_on,74,0,60
1,note_on,72,49,0
1,note_on,65,0,60
1,note_on,77,67,0
1,note_on,77,0,120
1,note_on,72,0,0
1,note_on,74,50,120
1,note_on,81,72,0
1,note_on,81,0,60
1,note_on,79,58,0
1,note_on,79,0,60
1,note_on,81,64,0
1,note_on,81,0,60
1,note_on,79,54,0
1,note_on,74,0,60
1,note_on,86,71,0
1,note_on,86,0,120
1,note_on,79,0,0
1,note_on,67,52,120
1,note_on,74,76,0
1,note_on,74,0,60
1,note_on,72,57,0
1,note_on,72,0,60
1,note_on,74,65,0
1,note_on,74,0,60
1,note_on,72,57,0
1,note_on,67,0,60
1,note_on,79,70,0
1,note_on,79,0,120
1,note_on,72,0,0
1,note_on,72,51,120
1,note_on,81,72,0
1,note_on,81,0,60
1,note_on,79,55,0
1,note_on,79,0,60
1,note_on,81,61,0
1,note_on,81,0,60
1,note_on,79,51,0
1,note_on,72,0,60
1,note_on,84,64,0
1,note_on,84,0,120
1,note_on,79,0,0
1,note_on,84,51,120
1,note_on,93,75,0
1,note_on,93,0,60
1,note_on,91,59,0
1,note_on,91,0,60
1,note_on,93,63,0
1,note_on,93,0,60
1,note_on,91,53,0
1,note_on,84,0,60
1,note_on,96,72,0
1,note_on,96,0,120
1,note_on,91,0,0
1,note_on,65,50,120
1,note_on,74,73,0
1,note_on,74,0,60
1,note_on,72,53,0
1,note_on,72,0,60
1,note_on,74,61,0
1,note_on,74,0,60
1,note_on,72,51,0
1,note_on,65,0,60
1,note_on,77,69,0
1,note_on,77,0,120
1,note_on,72,0,0
1,note_on,60,46,120
1,note_on,67,67,0
1,note_on,67,0,60
1,note_on,65,51,0
1,note_on,65,0,60
1,note_on,67,59,0
1,note_on,67,0,60
1,note_on,65,47,0
1,note_on,60,0,60
1,note_on,72,65,0
1,note_on,72,0,120
1,note_on,65,0,0
1,note_on,65,48,120
1,note_on,74,69,0
1,note_on,74,0,60
1,note_on,72,54,0
1,note_on,72,0,60
1,note_on,74,61,0
1,note_on,74,0,60
1,note_on,72,53,0
1,note_on,65,0,60
1,note_on,77,67,0
1,note_on,77,0,120
1,note_on,72,0,0
1,note_on,67,50,120
1,note_on,74,73,0
1,note_on,74,0,60
1,note_on,72,58,0
1,note_on,72,0,60
1,note_on,74,65,0
1,note_on,74,0,60
1,note_on,72,51,0
1,note_on,67,0,60
1,note_on,79,65,0
1,note_on,79,0,120
1,note_on,72,0,0
1,note_on,60,40,120
1,note_on,69,64,0
1,note_on,69,0,60
1,note_on,67,51,0
1,note_on,67,0,60
1,note_on,69,57,0
1,note_on,69,0,60
1,note_on,67,47,0
1,note_on,60,0,60
1,note_on,72,63,0
1,note_on,72,0,120
1,note_on,67,0,0
1,note_on,67,48,120
1,note_on,74,69,0
1,note_on,74,0,60
1,note_on,72,54,0
1,note_on,72,0,60
1,note_on,74,61,0
1,note_on,74,0,60
1,note_on,72,49,0
1,note_on,67,0,60
1,note_on,79,66,0
1,note_on,79,0,120
1,note_on,72,0,0
1,note_on,69,52,120
1,note_on,74,76,0
1,note_on,74,0,60
1,note_on,72,59,0
1,note_on,72,0,60
1,note_on,74,67,0
1,note_on,74,0,60
1,note_on,72,53,0
1,note_on,69,0,60
1,note_on,81,70,0
1,note_on,81,0,120
1,note_on,72,0,0
1,note_on,69,49,120
1,note_on,76,71,0
1,note_on,76,0,60
1,note_on,74,58,0
1,note_on,74,0,60
1,note_on,76,65,0
1,note_on,76,0,60
1,note_on,74,49,0
1,note_on,69,0,60
1,note_on,81,66,0
1,note_on,81,0,120
1,note_on,74,0,0
1,note_on,67,50,120
1,note_on,74,72,0
1,note_on,74,0,60
1,note_on,72,58,0
1,note_on,72,0,60
1,note_on,74,64,0
1,note_on,74,0,60
1,note_on,72,53,0
1,note_on,67,0,60
1,note_on,79,65,0
1,note_on,79,0,120
1,note_on,72,0,0
1,note_on,65,54,120
1,note_on,74,80,0
1,note_on,74,0,60
1,note_on,72,59,0
1,note_on,72,0,60
1,note_on,74,66,0
1,note_on,74,0,60
1,note_on,72,57,0
1,note_on,65,0,60
1,note_on,77,71,0
1,note_on,77,0,120
1,note_on,72,0,0
1,note_on,77,51,120
1,note_on,86,72,0
1,note_on,86,0,60
1,note_on,84,55,0
1,note_on,84,0,60
1,note_on,86,61,0
1,note_on,86,0,60
1,note_on,84,51,0
1,note_on,77,0,60
1,note_on,89,65,0
1,note_on,89,0,120
1,note_on,84,0,0
1,note_on,89,51,120
1,note_on,98,75,0
1,note_on,98,0,60
1,note_on,96,60,0
1,note_on,96,0,60
1,note_on,98,66,0
1,note_on,98,0,60
1,note_on,96,58,0
1,note_on,89,0,60
1,note_on,101,71,0
1,note_on,101,0,120
1,note_on,96,0,0
1,note_on,67,39,120
1,note_on,74,58,0
1,note_on,74,0,120
1,note_on,72,47,0
1,note_on,67,0,120
1,note_on,79,65,0
1,note_on,79,0,240
1,note_on,72,0,0
1,note_on,67,37,0
1,note_on,74,56,0
1,note_on,74,0,120
1,note_on,72,44,0
1,note_on,67,0,120
1,note_on,79,66,0
1,note_on,79,0,240
1,note_on,72,0,0
1,note_on,69,38,0
1,note_on,74,58,0
1,note_on,74,0,120
1,note_on,72,47,0
1,note_on,69,0,120
1,note_on,81,70,0
1,note_on,81,0,240
1,note_on,72,0,0
1,note_on,65,42,0
1,note_on,72,61,0
1,note_on,72,0,120
1,note_on,70,47,0
1,note_on,65,0,120
1,note_on,82,64,0
1,note_on,82,0,240
1,note_on,70,0,0
1,note_on,65,34,0
1,note_on,72,52,0
1,note_on,72,0,120
1,note_on,70,44,0
1,note_on,65,0,120
1,note_on,77,59,0
1,note_on,77,0,240
1,note_on,70,0,0
1,note_on,65,32,0
1,note_on,72,50,0
1,note_on,72,0,120
1,note_on,70,44,0
1,note_on,65,0,120
1,note_on,77,59,0
1,note_on,77,0,240
1,note_on,70,0,0
1,note_on,65,38,0
1,note_on,72,56,0
1,note_on,72,0,120
1,note_on,70,47,0
1,note_on,65,0,120
1,note_on,77,65,0
1,note_on,77,0,240
1,note_on,70,0,0
1,note_on,65,37,0
1,note_on,72,56,0
1,note_on,72,0,120
1,note_on,70,44,0
1,note_on,65,0,120
1,note_on,77,66,0
1,note_on,77,0,240
1,note_on,70,0,0
1,note_on,67,38,0
1,note_on,72,58,0
1,note_on,72,0,120
1,note_on,70,47,0
1,note_on,67,0,120
1,note_on,79,70,0
1,note_on,79,0,240
1,note_on,70,0,0
1,note_on,63,42,0
1,note_on,70,61,0
1,note_on,70,0,120
1,note_on,68,47,0
1,note_on,63,0,120
1,note_on,80,64,0
1,note_on,80,0,240
1,note_on,68,0,0
1,note_on,63,34,0
1,note_on,70,52,0
1,note_on,70,0,120
1,note_on,68,44,0
1,note_on,63,0,120
1,note_on,75,59,0
1,note_on,75,0,240
1,note_on,68,0,0
1,note_on,63,32,0
1,note_on,70,50,0
1,note_on,70,0,120
1,note_on,68,44,0
1,note_on,63,0,120
1,note_on,75,59,0
1,note_on,75,0,240
1,note_on,68,0,0
1,note_on,63,38,0
1,note_on,70,56,0
1,note_on,70,0,120
1,note_on,68,47,0
1,note_on,63,0,120
1,note_on,75,65,0
1,note_on,75,0,240
1,note_on,68,0,0
1,note_on,63,37,0
1,note_on,70,56,0
1,note_on,70,0,120
1,note_on,68,44,0
1,note_on,63,0,120
1,note_on,75,66,0
1,note_on,75,0,240
1,note_on,68,0,0
1,note_on,63,40,0
1,note_on,70,59,0
1,note_on,70,0,120
1,note_on,68,47,0
1,note_on,63,0,120
1,note_on,77,68,0
1,note_on,77,0,240
1,note_on,68,0,0
1,note_on,63,33,0
1,note_on,68,58,0
1,note_on,68,0,120
1,note_on,67,46,0
1,note_on,63,0,120
1,note_on,75,61,0
1,note_on,75,0,240
1,note_on,67,0,0
1,note_on,62,30,0
1,note_on,68,52,0
1,note_on,68,0,120
1,note_on,67,44,0
1,note_on,62,0,120
1,note_on,74,59,0
1,note_on,74,0,240
1,note_on,67,0,0
1,note_on,62,27,0
1,note_on,68,50,0
1,note_on,68,0,120
1,note_on,67,44,0
1,note_on,62,0,120
1,note_on,74,59,0
1,note_on,74,0,240
1,note_on,67,0,0
1,note_on,63,28,0
1,note_on,70,48,0
1,note_on,70,0,120
1,note_on,68,38,0
1,note_on,63,0,120
1,note_on,75,55,0
1,note_on,75,0,240
1,note_on,68,0,0
1,note_on,75,34,0
1,note_on,82,52,0
1,note_on,82,0,120
1,note_on,80,42,0
1,note_on,75,0,120
1,note_on,87,64,0
1,note_on,87,0,240
1,note_on,80,0,0
1,note_on,75,38,0
1,note_on,82,58,0
1,note_on,82,0,120
1,note_on,80,45,0
1,note_on,75,0,120
1,note_on,89,66,0
1,note_on,89,0,240
1,note_on,80,0,0
1,note_on,75,37,0
1,note_on,80,56,0
1,note_on,80,0,120
1,note_on,79,44,0
1,note_on,75,0,120
1,note_on,87,58,0
1,note_on,87,0,240
1,note_on,79,0,0
1,note_on,74,33,0
1,note_on,80,50,0
1,note_on,80,0,120
1,note_on,79,42,0
1,note_on,74,0,120
1,note_on,86,57,0
1,note_on,86,0,240
1,note_on,79,0,0
1,note_on,74,29,0
1,note_on,80,49,0
1,note_on,80,0,120
1,note_on,79,42,0
1,note_on,74,0,120
1,note_on,86,57,0
1,note_on,86,0,240
1,note_on,79,0,0
1,note_on,74,34,0
1,note_on,79,50,0
1,note_on,79,0,120
1,note_on,78,42,0
1,note_on,74,0,120
1,note_on,86,59,0
1,note_on,86,0,240
1,note_on,78,0,0
1,note_on,62,30,0
1,note_on,67,47,0
1,note_on,67,0,120
1,note_on,66,36,0
1,note_on,62,0,120
1,note_on,74,57,0
1,note_on,74,0,240
1,note_on,66,0,0
1,note_on,64,33,0
1,note_on,67,51,0
1,note_on,67,0,120
1,note_on,66,38,0
1,note_on,64,0,120
1,note_on,76,59,0
1,note_on,76,0,240
1,note_on,66,0,0
1,note_on,62,33,0
1,note_on,67,50,0
1,note_on,67,0,120
1,note_on,66,37,0
1,note_on,62,0,120
1,note_on,74,51,0
1,note_on,74,0,240
1,note_on,66,0,0
1,note_on,61,29,0
1,note_on,67,46,0
1,note_on,67,0,120
1,note_on,66,36,0
1,note_on,61,0,120
1,note_on,73,51,0
1,note_on,73,0,240
1,note_on,66,0,0
1,note_on,61,27,0
1,note_on,67,43,0
1,note_on,67,0,120
1,note_on,66,36,0
1,note_on,61,0,120
1,note_on,73,51,0
1,note_on,73,0,240
1,note_on,66,0,0
1,note_on,59,37,0
1,note_on,67,56,0
1,note_on,67,0,120
1,note_on,66,47,0
1,note_on,59,0,120
1,note_on,71,65,0
1,note_on,71,0,240
1,note_on,66,0,0
1,note_on,59,36,0
1,note_on,67,56,0
1,note_on,67,0,120
1,note_on,66,44,0
1,note_on,59,0,120
1,note_on,71,67,0
1,note_on,71,0,240
1,note_on,66,0,0
1,note_on,61,38,0
1,note_on,67,60,0
1,note_on,67,0,120
1,note_on,66,47,0
1,note_on,61,0,120
1,note_on,73,72,0
1,note_on,73,0,240
1,note_on,66,0,0
1,note_on,59,40,0
1,note_on,67,61,0
1,note_on,67,0,120
1,note_on,66,47,0
1,note_on,59,0,120
1,note_on,71,63,0
1,note_on,71,0,240
1,note_on,66,0,0
1,note_on,58,35,0
1,note_on,67,54,0
1,note_on,67,0,120
1,note_on,66,44,0
1,note_on,58,0,120
1,note_on,70,59,0
1,note_on,70,0,240
1,note_on,66,0,0
1,note_on,58,31,0
1,note_on,68,50,0
1,note_on,68,0,120
1,note_on,66,43,0
1,note_on,58,0,120
1,note_on,70,59,0
1,note_on,70,0,240
1,note_on,66,0,0
1,note_on,59,48,0
1,note_on,68,72,0
1,note_on,68,0,120
1,note_on,66,57,0
1,note_on,59,0,120
1,note_on,71,78,0
1,note_on,71,0,240
1,note_on,66,0,0
1,note_on,54,45,0
1,note_on,61,66,0
1,note_on,61,0,120
1,note_on,59,51,0
1,note_on,54,0,120
1,note_on,66,74,0
1,note_on,66,0,240
1,note_on,59,0,0
1,note_on,59,46,0
1,note_on,68,67,0
1,note_on,68,0,120
1,note_on,66,53,0
1,note_on,59,0,120
1,note_on,71,78,0
1,note_on,71,0,240
1,note_on,66,0,0
1,note_on,61,48,0
1,note_on,68,72,0
1,note_on,68,0,120
1,note_on,66,55,0
1,note_on,61,0,120
1,note_on,73,81,0
1,note_on,73,0,240
1,note_on,66,0,0
1,note_on,54,47,0
1,note_on,63,66,0
1,note_on,63,0,120
1,note_on,61,53,0
1,note_on,54,0,120
1,note_on,66,75,0
1,note_on,66,0,240
1,note_on,61,0,0
1,note_on,61,46,0
1,note_on,68,67,0
1,note_on,68,0,120
1,note_on,66,57,0
1,note_on,61,0,120
1,note_on,73,76,0
1,note_on,73,0,240
1,note_on,66,0,0
1,note_on,63,51,0
1,note_on,68,75,0
1,note_on,68,0,120
1,note_on,66,58,0
1,note_on,63,0,120
1,note_on,75,78,0
1,note_on,75,0,240
1,note_on,66,0,0
1,note_on,59,47,0
1,note_on,68,69,0
1,note_on,68,0,120
1,note_on,66,53,0
1,note_on,59,0,120
1,note_on,71,76,0
1,note_on,71,0,240
1,note_on,66,0,0
1,note_on,68,48,0
1,note_on,75,70,0
1,note_on,75,0,120
1,note_on,73,59,0
1,note_on,68,0,120
1,note_on,80,76,0
1,note_on,80,0,240
1,note_on,73,0,0
1,note_on,61,51,0
1,note_on,68,75,0
1,note_on,68,0,120
1,note_on,66,63,0
1,note_on,61,0,120
1,note_on,73,81,0
1,note_on,73,0,240
1,note_on,66,0,0
1,note_on,66,49,0
1,note_on,75,70,0
1,note_on,75,0,120
1,note_on,73,55,0
1,note_on,66,0,120
1,note_on,78,76,0
1,note_on,78,0,240
1,note_on,73,0,0
1,note_on,78,49,0
1,note_on,87,74,0
1,note_on,87,0,120
1,note_on,85,58,0
1,note_on,78,0,120
1,note_on,90,82,0
1,note_on,90,0,210
1,note_on,85,0,30
1,note_on,59,48,0
1,note_on,68,72,0
1,note_on,68,0,120
1,note_on,66,57,0
1,note_on,59,0,120
1,note_on,71,78,0
1,note_on,71,0,240
1,note_on,66,0,0
1,note_on,54,45,0
1,note_on,61,66,0
1,note_on,61,0,120
1,note_on,59,46,0
1,note_on,54,0,120
1,note_on,66,74,0
1,note_on,66,0,240
1,note_on,59,0,0
1,note_on,59,46,0
1,note_on,68,67,0
1,note_on,68,0,120
1,note_on,66,53,0
1,note_on,59,0,120
1,note_on,71,78,0
1,note_on,71,0,240
1,note_on,66,0,0
1,note_on,61,48,0
1,note_on,68,72,0
1,note_on,68,0,120
1,note_on,66,55,0
1,note_on,61,0,120
1,note_on,73,81,0
1,note_on,73,0,240
1,note_on,66,0,0
1,note_on,54,47,0
1,note_on,63,66,0
1,note_on,63,0,120
1,note_on,61,53,0
1,note_on,54,0,120
1,note_on,66,75,0
1,note_on,66,0,240
1,note_on,61,0,0
1,note_on,61,46,0
1,note_on,68,67,0
1,note_on,68,0,120
1,note_on,66,57,0
1,note_on,61,0,120
1,note_on,73,76,0
1,note_on,73,0,240
1,note_on,66,0,0
1,note_on,63,51,0
1,note_on,68,75,0
1,note_on,68,0,120
1,note_on,66,58,0
1,note_on,63,0,120
1,note_on,75,78,0
1,note_on,75,0,240
1,note_on,66,0,0
1,note_on,63,47,0
1,note_on,70,69,0
1,note_on,70,0,120
1,note_on,68,53,0
1,note_on,63,0,120
1,note_on,75,76,0
1,note_on,75,0,240
1,note_on,68,0,0
1,note_on,61,48,0
1,note_on,68,70,0
1,note_on,68,0,120
1,note_on,66,59,0
1,note_on,61,0,120
1,note_on,73,76,0
1,note_on,73,0,240
1,note_on,66,0,0
1,note_on,59,51,0
1,note_on,68,75,0
1,note_on,68,0,120
1,note_on,66,63,0
1,note_on,59,0,120
1,note_on,71,81,0
1,note_on,71,0,240
1,note_on,66,0,0
1,note_on,71,49,0
1,note_on,80,70,0
1,note_on,80,0,120
1,note_on,78,55,0
1,note_on,71,0,120
1,note_on,83,76,0
1,note_on,83,0,240
1,note_on,78,0,0
1,note_on,83,49,0
1,note_on,92,74,0
1,note_on,92,0,120
1,note_on,90,58,0
1,note_on,83,0,120
1,note_on,95,82,0
1,note_on,95,0,210
1,note_on,90,0,30
1,note_on,61,44,0
1,note_on,68,65,0
1,note_on,68,0,120
1,note_on,66,51,0
1,note_on,61,0,120
1,note_on,73,71,0
1,note_on,73,0,240
1,note_on,66,0,0
1,note_on,61,40,0
1,note_on,68,59,0
1,note_on,68,0,120
1,note_on,66,48,0
1,note_on,61,0,120
1,note_on,73,70,0
1,note_on,73,0,240
1,note_on,66,0,0
1,note_on,63,44,0
1,note_on,68,65,0
1,note_on,68,0,120
1,note_on,66,51,0
1,note_on,63,0,120
1,note_on,75,76,0
1,note_on,75,0,240
1,note_on,66,0,0
1,note_on,64,46,0
1,note_on,69,68,0
1,note_on,69,0,120
1,note_on,68,52,0
1,note_on,64,0,120
1,note_on,76,76,0
1,note_on,76,0,240
1,note_on,68,0,0
1,note_on,59,39,0
1,note_on,66,56,0
1,note_on,66,0,120
1,note_on,64,46,0
1,note_on,59,0,120
1,note_on,71,63,0
1,note_on,71,0,240
1,note_on,64,0,0
1,note_on,59,39,0
1,note_on,66,59,0
1,note_on,66,0,120
1,note_on,64,49,0
1,note_on,59,0,120
1,note_on,71,66,0
1,note_on,71,0,240
1,note_on,64,0,0
1,note_on,59,44,0
1,note_on,66,65,0
1,note_on,66,0,120
1,note_on,64,51,0
1,note_on,59,0,120
1,note_on,71,71,0
1,note_on,71,0,240
1,note_on,64,0,0
1,note_on,59,40,0
1,note_on,66,59,0
1,note_on,66,0,120
1,note_on,64,48,0
1,note_on,59,0,120
1,note_on,71,70,0
1,note_on,71,0,240
1,note_on,64,0,0
1,note_on,61,44,0
1,note_on,66,65,0
1,note_on,66,0,120
1,note_on,64,51,0
1,note_on,61,0,120
1,note_on,73,76,0
1,note_on,73,0,240
1,note_on,64,0,0
1,note_on,62,46,0
1,note_on,67,68,0
1,note_on,67,0,120
1,note_on,66,52,0
1,note_on,62,0,120
1,note_on,74,76,0
1,note_on,74,0,240
1,note_on,66,0,0
1,note_on,57,39,0
1,note_on,64,56,0
1,note_on,64,0,120
1,note_on,62,46,0
1,note_on,57,0,120
1,note_on,69,63,0
1,note_on,69,0,240
1,note_on,62,0,0
1,note_on,57,39,0
1,note_on,64,59,0
1,note_on,64,0,120
1,note_on,62,49,0
1,note_on,57,0,120
1,note_on,69,66,0
1,note_on,69,0,240
1,note_on,62,0,0
1,note_on,57,40,0
1,note_on,62,60,0
1,note_on,62,0,120
1,note_on,61,48,0
1,note_on,57,0,120
1,note_on,69,67,0
1,note_on,69,0,240
1,note_on,61,0,0
1,note_on,69,37,0
1,note_on,74,56,0
1,note_on,74,0,120
1,note_on,73,45,0
1,note_on,69,0,120
1,note_on,81,66,0
1,note_on,81,0,240
1,note_on,73,0,0
1,note_on,71,40,0
1,note_on,74,60,0
1,note_on,74,0,120
1,note_on,73,48,0
1,note_on,71,0,120
1,note_on,83,70,0
1,note_on,83,0,240
1,note_on,73,0,0
1,note_on,69,46,0
1,note_on,74,68,0
1,note_on,74,0,120
1,note_on,73,52,0
1,note_on,69,0,120
1,note_on,81,72,0
1,note_on,81,0,240
1,note_on,73,0,0
1,note_on,68,39,0
1,note_on,74,52,0
1,note_on,74,0,120
1,note_on,73,46,0
1,note_on,68,0,120
1,note_on,80,63,0
1,note_on,80,0,240
1,note_on,73,0,0
1,note_on,68,39,0
1,note_on,74,55,0
1,note_on,74,0,120
1,note_on,73,49,0
1,note_on,68,0,120
1,note_on,80,66,0
1,note_on,80,0,240
1,note_on,73,0,0
1,note_on,69,34,0
1,note_on,74,51,0
1,note_on,74,0,120
1,note_on,73,40,0
1,note_on,69,0,120
1,note_on,81,55,0
1,note_on,81,0,240
1,note_on,73,0,0
1,note_on,81,36,0
1,note_on,86,53,0
1,note_on,86,0,120
1,note_on,85,37,0
1,note_on,81,0,120
1,note_on,93,54,0
1,note_on,93,0,240
1,note_on,85,0,0
1,note_on,83,38,0
1,note_on,86,57,0
1,note_on,86,0,120
1,note_on,85,40,0
1,note_on,83,0,120
1,note_on,95,60,0
1,note_on,95,0,240
1,note_on,85,0,0
1,note_on,81,43,0
1,note_on,86,64,0
1,note_on,86,0,120
1,note_on,85,44,0
1,note_on,81,0,120
1,note_on,93,64,0
1,note_on,93,0,240
1,note_on,85,0,0
1,note_on,80,37,0
1,note_on,86,53,0
1,note_on,86,0,120
1,note_on,85,38,0
1,note_on,80,0,120
1,note_on,92,53,0
1,note_on,92,0,240
1,note_on,85,0,0
1,note_on,80,37,0
1,note_on,86,55,0
1,note_on,86,0,120
1,note_on,85,40,0
1,note_on,80,0,120
1,note_on,92,54,0
1,note_on,92,0,240
1,note_on,85,0,0
1,note_on,80,38,0
1,note_on,85,57,0
1,note_on,85,0,120
1,note_on,84,40,0
1,note_on,80,0,120
1,note_on,92,55,0
1,note_on,92,0,240
1,note_on,84,0,0
1,note_on,68,35,0
1,note_on,73,52,0
1,note_on,73,0,120
1,note_on,72,36,0
1,note_on,68,0,120
1,note_on,80,53,0
1,note_on,80,0,240
1,note_on,72,0,0
1,note_on,70,37,0
1,note_on,73,55,0
1,note_on,73,0,120
1,note_on,72,39,0
1,note_on,70,0,120
1,note_on,82,58,0
1,note_on,82,0,240
1,note_on,72,0,0
1,note_on,68,40,0
1,note_on,73,61,0
1,note_on,73,0,120
1,note_on,72,42,0
1,note_on,68,0,120
1,note_on,80,60,0
1,note_on,80,0,240
1,note_on,72,0,0
1,note_on,67,35,0
1,note_on,73,50,0
1,note_on,73,0,120
1,note_on,72,36,0
1,note_on,67,0,120
1,note_on,79,50,0
1,note_on,79,0,240
1,note_on,72,0,0
1,note_on,67,35,0
1,note_on,73,52,0
1,note_on,73,0,120
1,note_on,72,37,0
1,note_on,67,0,120
1,note_on,79,51,0
1,note_on,79,0,240
1,note_on,72,0,0
1,note_on,65,35,0
1,note_on,74,52,0
1,note_on,74,0,120
1,note_on,72,37,0
1,note_on,65,0,120
1,note_on,77,51,0
1,note_on,77,0,240
1,note_on,72,0,0
1,note_on,65,32,0
1,note_on,74,49,0
1,note_on,74,0,120
1,note_on,72,34,0
1,note_on,65,0,120
1,note_on,77,49,0
1,note_on,77,0,240
1,note_on,72,0,0
1,note_on,67,34,0
1,note_on,74,51,0
1,note_on,74,0,120
1,note_on,72,36,0
1,note_on,67,0,120
1,note_on,79,53,0
1,note_on,79,0,240
1,note_on,72,0,0
1,note_on,65,37,0
1,note_on,74,55,0
1,note_on,74,0,120
1,note_on,72,38,0
1,note_on,65,0,120
1,note_on,77,55,0
1,note_on,77,0,240
1,note_on,72,0,0
1,note_on,64,32,0
1,note_on,74,47,0
1,note_on,74,0,120
1,note_on,72,32,0
1,note_on,64,0,120
1,note_on,76,46,0
1,note_on,76,0,240
1,note_on,72,0,0
1,note_on,64,31,0
1,note_on,74,48,0
1,note_on,74,0,120
1,note_on,72,34,0
1,note_on,64,0,120
1,note_on,76,47,0
1,note_on,76,0,210
1,note_on,72,0,30
1,note_on,65,59,0
1,note_on,74,87,0
1,note_on,74,0,120
1,note_on,72,63,0
1,note_on,72,0,120
1,note_on,65,0,0
1,note_on,77,76,0
1,note_on,77,0,60
1,note_on,60,54,180
1,note_on,67,80,0
1,note_on,67,0,120
1,note_on,65,55,0
1,note_on,65,0,120
1,note_on,60,0,0
1,note_on,72,75,0
1,note_on,72,0,60
1,note_on,65,57,180
1,note_on,74,82,0
1,note_on,74,0,120
1,note_on,72,58,0
1,note_on,72,0,120
1,note_on,65,0,0
1,note_on,77,75,0
1,note_on,77,0,60
1,note_on,67,59,180
1,note_on,74,87,0
1,note_on,74,0,120
1,note_on,72,61,0
1,note_on,72,0,120
1,note_on,67,0,0
1,note_on,79,73,0
1,note_on,79,0,60
1,note_on,60,54,180
1,note_on,69,76,0
1,note_on,69,0,120
1,note_on,67,55,0
1,note_on,67,0,120
1,note_on,60,0,0
1,note_on,72,71,0
1,note_on,72,0,60
1,note_on,67,57,180
1,note_on,74,82,0
1,note_on,74,0,120
1,note_on,72,63,0
1,note_on,72,0,120
1,note_on,67,0,0
1,note_on,79,78,0
1,note_on,79,0,60
1,note_on,69,63,180
1,note_on,74,92,0
1,note_on,74,0,120
1,note_on,72,64,0
1,note_on,72,0,120
1,note_on,69,0,0
1,note_on,81,77,0
1,note_on,81,0,60
1,note_on,65,58,180
1,note_on,74,85,0
1,note_on,74,0,120
1,note_on,72,58,0
1,note_on,72,0,120
1,note_on,65,0,0
1,note_on,77,75,0
1,note_on,77,0,60
1,note_on,74,59,180
1,note_on,81,86,0
1,note_on,81,0,120
1,note_on,79,65,0
1,note_on,79,0,120
1,note_on,74,0,0
1,note_on,86,78,0
1,note_on,86,0,60
1,note_on,67,63,180
1,note_on,74,92,0
1,note_on,74,0,120
1,note_on,72,69,0
1,note_on,67,0,120
1,note_on,79,78,0
1,note_on,79,0,60
1,note_on,72,0,0
1,note_on,72,61,180
1,note_on,81,86,0
1,note_on,81,0,120
1,note_on,79,61,0
1,note_on,79,0,120
1,note_on,72,0,0
1,note_on,84,76,0
1,note_on,84,0,60
1,note_on,84,61,180
1,note_on,93,90,0
1,note_on,93,0,120
1,note_on,91,64,0
1,note_on,91,0,120
1,note_on,84,0,0
1,note_on,96,82,0
1,note_on,96,0,60
1,note_on,65,59,180
1,note_on,74,87,0
1,note_on,74,0,120
1,note_on,72,61,0
1,note_on,72,0,120
1,note_on,65,0,0
1,note_on,77,82,0
1,note_on,77,0,60
1,note_on,60,54,180
1,note_on,67,80,0
1,note_on,67,0,120
1,note_on,65,55,0
1,note_on,65,0,120
1,note_on,60,0,0
1,note_on,72,77,0
1,note_on,72,0,60
1,note_on,65,57,180
1,note_on,74,82,0
1,note_on,74,0,120
1,note_on,72,64,0
1,note_on,72,0,120
1,note_on,65,0,0
1,note_on,77,80,0
1,note_on,77,0,60
1,note_on,67,59,180
1,note_on,74,87,0
1,note_on,74,0,120
1,note_on,72,61,0
1,note_on,72,0,120
1,note_on,67,0,0
1,note_on,79,77,0
1,note_on,79,0,60
1,note_on,60,54,180
1,note_on,69,76,0
1,note_on,69,0,120
1,note_on,67,55,0
1,note_on,67,0,120
1,note_on,60,0,0
1,note_on,72,75,0
1,note_on,72,0,60
1,note_on,67,57,180
1,note_on,74,82,0
1,note_on,74,0,120
1,note_on,72,58,0
1,note_on,72,0,120
1,note_on,67,0,0
1,note_on,79,78,0
1,note_on,79,0,60
1,note_on,69,63,180
1,note_on,74,92,0
1,note_on,74,0,120
1,note_on,72,64,0
1,note_on,72,0,120
1,note_on,69,0,0
1,note_on,81,84,0
1,note_on,81,0,60
1,note_on,69,58,180
1,note_on,76,85,0
1,note_on,76,0,120
1,note_on,74,58,0
1,note_on,74,0,120
1,note_on,69,0,0
1,note_on,81,78,0
1,note_on,81,0,60
1,note_on,67,59,180
1,note_on,74,86,0
1,note_on,74,0,120
1,note_on,72,64,0
1,note_on,72,0,120
1,note_on,67,0,0
1,note_on,79,77,0
1,note_on,79,0,60
1,note_on,65,65,180
1,note_on,74,96,0
1,note_on,74,0,120
1,note_on,72,69,0
1,note_on,72,0,120
1,note_on,65,0,0
1,note_on,77,85,0
1,note_on,77,0,60
1,note_on,72,61,180
1,note_on,79,86,0
1,note_on,79,0,120
1,note_on,77,61,0
1,note_on,77,0,120
1,note_on,72,0,0
1,note_on,84,77,0
1,note_on,84,0,60
1,note_on,72,55,180
1,note_on,81,80,0
1,note_on,81,0,120
1,note_on,79,63,0
1,note_on,79,0,120
1,note_on,72,0,0
1,note_on,84,73,0
1,note_on,84,0,60
1,note_on,65,57,180
1,note_on,79,86,0
1,note_on,79,0,120
1,note_on,77,61,0
1,note_on,77,0,120
1,note_on,65,0,0
1,note_on,84,75,0
1,note_on,84,0,60
1,note_on,84,54,180
1,note_on,91,76,0
1,note_on,91,0,120
1,note_on,89,54,0
1,note_on,89,0,120
1,note_on,84,0,0
1,note_on,96,70,0
1,note_on,96,0,60
1,note_on,84,49,180
1,note_on,93,77,0
1,note_on,93,0,120
1,note_on,91,58,0
1,note_on,91,0,120
1,note_on,84,0,0
1,note_on,96,69,0
1,note_on,96,0,60
1,note_on,84,58,180
1,note_on,91,86,0
1,note_on,91,0,120
1,note_on,89,61,0
1,note_on,89,0,120
1,note_on,84,0,0
1,note_on,96,75,0
1,note_on,96,0,60
1,note_on,72,44,180
1,note_on,79,61,0
1,note_on,79,0,120
1,note_on,77,49,0
1,note_on,77,0,120
1,note_on,72,0,0
1,note_on,84,61,0
1,note_on,84,0,240
1,note_on,72,44,0
1,note_on,81,65,0
1,note_on,81,0,120
1,note_on,79,54,0
1,note_on,79,0,120
1,note_on,72,0,0
1,note_on,84,65,0
1,note_on,84,0,240
1,note_on,65,46,0
1,note_on,79,68,0
1,note_on,79,0,120
1,note_on,77,54,0
1,note_on,77,0,120
1,note_on,65,0,0
1,note_on,84,67,0
1,note_on,84,0,240
1,note_on,84,44,0
1,note_on,91,61,0
1,note_on,91,0,120
1,note_on,89,49,0
1,note_on,89,0,120
1,note_on,84,0,0
1,note_on,96,61,0
1,note_on,96,0,240
1,note_on,84,42,0
1,note_on,93,65,0
1,note_on,93,0,120
1,note_on,91,54,0
1,note_on,91,0,120
1,note_on,84,0,0
1,note_on,96,65,0
1,note_on,96,0,240
1,note_on,84,46,0
1,note_on,91,68,0
1,note_on,91,0,120
1,note_on,89,54,0
1,note_on,89,0,120
1,note_on,84,0,0
1,note_on,96,67,0
1,note_on,96,0,240
1,note_on,83,46,0
1,note_on,91,65,0
1,note_on,91,0,120
1,note_on,90,46,0
1,note_on,90,0,120
1,note_on,83,0,0
1,note_on,95,56,0
1,note_on,95,0,60
1,note_on,83,45,180
1,note_on,89,66,0
1,note_on,89,0,120
1,note_on,88,49,0
1,note_on,88,0,120
1,note_on,83,0,0
1,note_on,95,61,0
1,note_on,95,0,60
1,note_on,81,46,180
1,note_on,89,68,0
1,note_on,89,0,120
1,note_on,88,48,0
1,note_on,88,0,120
1,note_on,81,0,0
1,note_on,93,59,0
1,note_on,93,0,60
1,note_on,81,45,180
1,note_on,88,61,0
1,note_on,88,0,120
1,note_on,86,45,0
1,note_on,86,0,120
1,note_on,81,0,0
1,note_on,93,55,0
1,note_on,93,0,60
1,note_on,79,42,180
1,note_on,86,63,0
1,note_on,86,0,120
1,note_on,84,47,0
1,note_on,84,0,120
1,note_on,79,0,0
1,note_on,91,56,0
1,note_on,91,0,60
1,note_on,77,43,180
1,note_on,86,65,0
1,note_on,86,0,120
1,note_on,84,46,0
1,note_on,84,0,120
1,note_on,77,0,0
1,note_on,89,56,0
1,note_on,89,0,60
1,note_on,71,43,180
1,note_on,79,59,0
1,note_on,79,0,120
1,note_on,78,43,0
1,note_on,78,0,120
1,note_on,71,0,0
1,note_on,83,54,0
1,note_on,83,0,60
1,note_on,71,39,180
1,note_on,77,58,0
1,note_on,77,0,120
1,note_on,76,44,0
1,note_on,76,0,120
1,note_on,71,0,0
1,note_on,83,54,0
1,note_on,83,0,60
1,note_on,69,39,180
1,note_on,77,60,0
1,note_on,77,0,120
1,note_on,76,43,0
1,note_on,76,0,120
1,note_on,69,0,0
1,note_on,81,53,0
1,note_on,81,0,60
1,note_on,69,39,180
1,note_on,76,58,0
1,note_on,76,0,120
1,note_on,74,39,0
1,note_on,74,0,120
1,note_on,69,0,0
1,note_on,81,51,0
1,note_on,81,0,60
1,note_on,67,37,180
1,note_on,74,57,0
1,note_on,74,0,120
1,note_on,72,44,0
1,note_on,72,0,120
1,note_on,67,0,0
1,note_on,79,54,0
1,note_on,79,0,60
1,note_on,65,39,180
1,note_on,74,60,0
1,note_on,74,0,120
1,note_on,72,43,0
1,note_on,72,0,120
1,note_on,65,0,0
1,note_on,77,54,0
1,note_on,77,0,240
1,note_on,72,43,0
1,note_on,79,61,0
1,note_on,79,0,120
1,note_on,77,44,0
1,note_on,77,0,120
1,note_on,72,0,0
1,note_on,84,55,0
1,note_on,84,0,240
1,note_on,72,39,0
1,note_on,81,61,0
1,note_on,81,0,120
1,note_on,79,46,0
1,note_on,79,0,120
1,note_on,72,0,0
1,note_on,84,59,0
1,note_on,84,0,240
1,note_on,72,43,0
1,note_on,79,63,0
1,note_on,79,0,120
1,note_on,77,46,0
1,note_on,77,0,120
1,note_on,72,0,0
1,note_on,84,56,0
1,note_on,84,0,240
1,note_on,72,43,0
1,note_on,79,63,0
1,note_on,79,0,120
1,note_on,77,44,0
1,note_on,77,0,120
1,note_on,72,0,0
1,note_on,84,54,0
1,note_on,84,0,240
1,note_on,72,37,0
1,note_on,81,58,0
1,note_on,81,0,120
1,note_on,79,44,0
1,note_on,79,0,120
1,note_on,72,0,0
1,note_on,84,54,0
1,note_on,84,0,240
1,note_on,72,38,0
1,note_on,79,59,0
1,note_on,79,0,120
1,note_on,77,43,0
1,note_on,77,0,120
1,note_on,72,0,0
1,note_on,84,54,0
1,note_on,84,0,240
1,note_on,72,40,0
1,note_on,79,58,0
1,note_on,79,0,120
1,note_on,77,40,0
1,note_on,77,0,120
1,note_on,72,0,0
1,note_on,84,52,0
1,note_on,84,0,240
1,note_on,72,35,0
1,note_on,79,56,0
1,note_on,79,0,120
1,note_on,77,42,0
1,note_on,77,0,120
1,note_on,72,0,0
1,note_on,84,51,0
1,note_on,84,0,240
1,note_on,72,37,0
1,note_on,79,56,0
1,note_on,79,0,60
1,note_on,77,40,0
1,note_on,77,0,60
1,note_on,79,46,0
1,note_on,79,0,60
1,note_on,77,38,0
1,note_on,77,0,60
1,note_on,72,0,0
1,note_on,84,49,0
1,note_on,84,0,240
1,note_on,72,37,0
1,note_on,79,54,0
1,note_on,79,0,60
1,note_on,77,37,0
1,note_on,77,0,60
1,note_on,79,40,0
1,note_on,79,0,60
1,note_on,77,37,0
1,note_on,77,0,60
1,note_on,72,0,0
1,note_on,84,47,0
1,note_on,84,0,240
1,note_on,72,32,0
1,note_on,79,51,0
1,note_on,79,0,60
1,note_on,77,37,0
1,note_on,77,0,60
1,note_on,79,38,0
1,note_on,79,0,60
1,note_on,77,37,0
1,note_on,77,0,60
1,note_on,72,0,0
1,note_on,84,46,0
1,note_on,84,0,240
1,note_on,72,33,0
1,note_on,79,51,0
1,note_on,79,0,60
1,note_on,77,36,0
1,note_on,77,0,60
1,note_on,79,40,0
1,note_on,79,0,60
1,note_on,77,34,0
1,note_on,77,0,60
1,note_on,72,0,0
1,note_on,79,48,0
1,note_on,84,45,0
1,note_on,79,0,60
1,note_on,77,34,0
1,note_on,77,0,60
1,note_on,79,48,0
1,note_on,79,0,60
1,note_on,77,34,0
1,note_on,77,0,60
1,note_on,84,0,0
1,note_on,72,33,0
1,note_on,79,47,0
1,note_on,79,0,60
1,note_on,77,33,0
1,note_on,77,0,60
1,note_on,79,35,0
1,note_on,79,0,60
1,note_on,77,33,0
1,note_on,77,0,60
1,note_on,72,0,0
1,note_on,79,35,0
1,note_on,84,42,0
1,note_on,79,0,60
1,note_on,77,33,0
1,note_on,77,0,60
1,note_on,79,35,0
1,note_on,79,0,60
1,note_on,77,32,0
1,note_on,77,0,60
1,note_on,84,0,0
1,note_on,72,28,0
1,note_on,79,45,0
1,note_on,79,0,60
1,note_on,77,32,0
1,note_on,77,0,60
1,note_on,79,34,0
1,note_on,79,0,60
1,note_on,77,32,0
1,note_on,77,0,60
1,note_on,72,0,0
1,note_on,79,33,0
1,note_on,84,40,0
1,note_on,79,0,60
1,note_on,77,32,0
1,note_on,77,0,60
1,note_on,79,33,0
1,note_on,79,0,60
1,note_on,77,31,0
1,note_on,77,0,60
1,note_on,84,0,0
1,note_on,72,28,0
1,note_on,77,45,0
1,note_on,77,0,60
1,note_on,79,32,0
1,note_on,79,0,60
1,note_on,77,34,0
1,note_on,77,0,60
1,note_on,79,32,0
1,note_on,79,0,60
1,note_on,72,0,0
1,note_on,77,33,0
1,note_on,77,0,60
1,note_on,79,32,0
1,note_on,79,0,60
1,note_on,76,33,0
1,note_on,76,0,120
1,note_on,77,44,0
1,note_on,77,0,60
1,note_on,80,44,0
1,note_on,80,0,60
1,note_on,82,45,0
1,note_on,82,0,60
1,note_on,81,46,0
1,note_on,81,0,60
1,note_on,83,46,0
1,note_on,83,0,60
1,note_on,86,47,0
1,note_on,86,0,60
1,note_on,84,48,0
1,note_on,84,0,60
1,note_on,88,48,0
1,note_on,88,0,60
1,note_on,91,49,0
1,note_on,91,0,60
1,note_on,89,50,0
1,note_on,89,0,60
1,note_on,92,50,0
1,note_on,92,0,60
1,note_on,94,51,0
1,note_on,94,0,60
1,note_on,93,51,0
1,note_on,93,0,60
1,note_on,95,52,0
1,note_on,95,0,60
1,note_on,98,53,0
1,note_on,98,0,60
1,note_on,96,53,0
1,note_on,96,0,60
1,note_on,101,60,0
1,note_on,101,0,480
1,note_on,57,31,480
1,note_on,60,31,0
1,note_on,69,36,0
1,note_on,69,0,480
1,note_on,60,0,0
1,note_on,57,0,0
1,note_on,57,31,0
1,note_on,65,31,0
1,note_on,69,36,0
1,note_on,69,0,1440
1,note_on,65,0,0
1,note_on,57,0,0
1,note_on,57,31,0
1,note_on,65,31,0
1,note_on,69,36,0
1,note_on,69,0,960
1,note_on,65,0,0
1,note_on,57,0,0
2,note_on,57,38,1440
2,note_on,48,31,0
2,note_on,57,0,108
2,note_on,53,35,0
2,note_on,53,0,120
2,note_on,48,0,0
2,note_on,41,31,0
2,note_on,41,0,117
2,note_on,57,36,120
2,note_on,48,29,0
2,note_on,57,0,91
2,note_on,53,33,0
2,note_on,53,0,120
2,note_on,48,0,0
2,note_on,41,29,0
2,note_on,41,0,109
2,note_on,57,36,120
2,note_on,48,29,0
2,note_on,57,0,101
2,note_on,53,33,0
2,note_on,53,0,120
2,note_on,48,0,0
2,note_on,41,28,0
2,note_on,41,0,117
2,note_on,58,38,120
2,note_on,48,31,0
2,note_on,58,0,105
2,note_on,52,35,0
2,note_on,52,0,120
2,note_on,48,0,0
2,note_on,41,30,0
2,note_on,41,0,106
2,note_on,58,32,120
2,note_on,48,29,0
2,note_on,58,0,56
2,note_on,52,33,0
2,note_on,52,0,120
2,note_on,48,0,0
2,note_on,41,28,0
2,note_on,41,0,109
2,note_on,58,36,120
2,note_on,48,29,0
2,note_on,58,0,56
2,note_on,52,33,0
2,note_on,52,0,120
2,note_on,48,0,0
2,note_on,41,28,0
2,note_on,41,0,92
2,note_on,57,39,120
2,note_on,48,32,0
2,note_on,57,0,91
2,note_on,53,36,0
2,note_on,53,0,120
2,note_on,48,0,0
2,note_on,41,32,0
2,note_on,41,0,102
2,note_on,57,37,120
2,note_on,50,30,0
2,note_on,57,0,69
2,note_on,53,34,0
2,note_on,53,0,120
2,note_on,50,0,0
2,note_on,41,29,0
2,note_on,41,0,106
2,note_on,59,37,120
2,note_on,50,30,0
2,note_on,59,0,74
2,note_on,53,34,0
2,note_on,53,0,120
2,note_on,50,0,0
2,note_on,43,30,0
2,note_on,43,0,109
2,note_on,64,40,0
2,note_on,55,33,0
2,note_on,64,0,120
2,note_on,58,37,0
2,note_on,58,0,120
2,note_on,55,0,0
2,note_on,48,32,0
2,note_on,48,0,120
2,note_on,70,38,120
2,note_on,60,31,0
2,note_on,70,0,120
2,note_on,64,35,0
2,note_on,64,0,120
2,note_on,60,0,0
2,note_on,55,28,0
2,note_on,55,0,120
2,note_on,76,38,120
2,note_on,67,31,0
2,note_on,76,0,120
2,note_on,70,35,0
2,note_on,70,0,120
2,note_on,67,0,0
2,note_on,60,30,0
2,note_on,60,0,120
2,note_on,57,38,64
2,note_on,48,31,0
2,note_on,57,0,99
2,note_on,53,35,0
2,note_on,53,0,11
2,note_on,48,0,0
2,note_on,41,31,0
2,note_on,41,0,120
2,note_on,57,36,120
2,note_on,48,29,0
2,note_on,57,0,85
2,note_on,53,33,0
2,note_on,53,0,120
2,note_on,48,0,0
2,note_on,41,29,0
2,note_on,41,0,109
2,note_on,57,36,120
2,note_on,48,29,0
2,note_on,57,0,85
2,note_on,53,33,0
2,note_on,53,0,120
2,note_on,48,0,0
2,note_on,41,28,0
2,note_on,41,0,117
2,note_on,58,38,120
2,note_on,48,31,0
2,note_on,58,0,99
2,note_on,52,35,0
2,note_on,52,0,120
2,note_on,48,0,0
2,note_on,41,30,0
2,note_on,41,0,106
2,note_on,58,32,120
2,note_on,48,29,0
2,note_on,58,0,56
2,note_on,52,33,0
2,note_on,52,0,120
2,note_on,48,0,0
2,note_on,41,28,0
2,note_on,41,0,109
2,note_on,58,36,120
2,note_on,48,29,0
2,note_on,58,0,56
2,note_on,52,33,0
2,note_on,52,0,120
2,note_on,48,0,0
2,note_on,41,28,0
2,note_on,41,0,103
2,note_on,57,39,120
2,note_on,48,32,0
2,note_on,57,0,91
2,note_on,53,36,0
2,note_on,53,0,120
2,note_on,48,0,0
2,note_on,41,32,0
2,note_on,41,0,102
2,note_on,59,37,120
2,note_on,50,30,0
2,note_on,59,0,69
2,note_on,53,34,0
2,note_on,53,0,120
2,note_on,50,0,0
2,note_on,43,29,0
2,note_on,43,0,106
2,note_on,64,37,120
2,note_on,55,30,0
2,note_on,64,0,74
2,note_on,58,34,0
2,note_on,58,0,120
2,note_on,55,0,0
2,note_on,48,30,0
2,note_on,48,0,109
2,note_on,57,40,0
2,note_on,48,33,0
2,note_on,57,0,120
2,note_on,53,37,0
2,note_on,53,0,120
2,note_on,48,0,0
2,note_on,41,32,0
2,note_on,41,0,120
2,note_on,69,38,120
2,note_on,60,31,0
2,note_on,69,0,120
2,note_on,65,35,0
2,note_on,65,0,120
2,note_on,60,0,0
2,note_on,53,28,0
2,note_on,53,0,120
2,note_on,81,38,120
2,note_on,72,31,0
2,note_on,81,0,120
2,note_on,77,35,0
2,note_on,77,0,120
2,note_on,72,0,0
2,note_on,65,30,0
2,note_on,65,0,120
2,note_on,57,38,113
2,note_on,48,31,0
2,note_on,57,0,99
2,note_on,53,35,0
2,note_on,53,0,120
2,note_on,48,0,0
2,note_on,41,31,0
2,note_on,41,0,113
2,note_on,57,36,120
2,note_on,48,29,0
2,note_on,57,0,85
2,note_on,53,33,0
2,note_on,53,0,120
2,note_on,48,0,0
2,note_on,41,29,0
2,note_on,41,0,109
2,note_on,57,36,120
2,note_on,48,29,0
2,note_on,57,0,85
2,note_on,53,33,0
2,note_on,53,0,120
2,note_on,48,0,0
2,note_on,41,28,0
2,note_on,41,0,114
2,note_on,58,38,120
2,note_on,48,31,0
2,note_on,58,0,99
2,note_on,52,35,0
2,note_on,52,0,120
2,note_on,48,0,0
2,note_on,41,30,0
2,note_on,41,0,106
2,note_on,58,32,120
2,note_on,48,29,0
2,note_on,58,0,56
2,note_on,52,33,0
2,note_on,52,0,120
2,note_on,48,0,0
2,note_on,41,28,0
2,note_on,41,0,109
2,note_on,58,36,120
2,note_on,48,29,0
2,note_on,58,0,56
2,note_on,52,33,0
2,note_on,52,0,120
2,note_on,48,0,0
2,note_on,41,28,0
2,note_on,41,0,95
2,note_on,57,39,120
2,note_on,48,32,0
2,note_on,57,0,91
2,note_on,53,36,0
2,note_on,53,0,120
2,note_on,48,0,0
2,note_on,41,32,0
2,note_on,41,0,102
2,note_on,57,37,120
2,note_on,50,30,0
2,note_on,57,0,69
2,note_on,53,34,0
2,note_on,53,0,120
2,note_on,50,0,0
2,note_on,41,29,0
2,note_on,41,0,106
2,note_on,59,37,120
2,note_on,50,30,0
2,note_on,59,0,74
2,note_on,53,34,0
2,note_on,53,0,120
2,note_on,50,0,0
2,note_on,43,30,0
2,note_on,43,0,109
2,note_on,64,40,0
2,note_on,55,33,0
2,note_on,64,0,120
2,note_on,58,37,0
2,note_on,58,0,120
2,note_on,55,0,0
2,note_on,48,32,0
2,note_on,48,0,120
2,note_on,70,38,120
2,note_on,60,31,0
2,note_on,70,0,120
2,note_on,64,35,0
2,note_on,64,0,120
2,note_on,60,0,0
2,note_on,55,28,0
2,note_on,55,0,120
2,note_on,76,38,120
2,note_on,67,31,0
2,note_on,76,0,120
2,note_on,70,35,0
2,note_on,70,0,120
2,note_on,67,0,0
2,note_on,60,30,0
2,note_on,60,0,120
2,note_on,57,38,64
2,note_on,48,31,0
2,note_on,57,0,99
2,note_on,53,35,0
2,note_on,53,0,11
2,note_on,48,0,0
2,note_on,41,31,0
2,note_on,41,0,120
2,note_on,57,36,120
2,note_on,48,29,0
2,note_on,57,0,85
2,note_on,53,33,0
2,note_on,53,0,120
2,note_on,48,0,0
2,note_on,41,29,0
2,note_on,41,0,109
2,note_on,57,36,120
2,note_on,48,29,0
2,note_on,57,0,85
2,note_on,53,33,0
2,note_on,53,0,120
2,note_on,48,0,0
2,note_on,41,28,0
2,note_on,41,0,117
2,note_on,58,38,120
2,note_on,48,31,0
2,note_on,58,0,99
2,note_on,52,35,0
2,note_on,52,0,120
2,note_on,48,0,0
2,note_on,41,30,0
2,note_on,41,0,106
2,note_on,58,32,120
2,note_on,48,29,0
2,note_on,58,0,56
2,note_on,52,33,0
2,note_on,52,0,120
2,note_on,48,0,0
2,note_on,41,28,0
2,note_on,41,0,109
2,note_on,58,36,120
2,note_on,48,29,0
2,note_on,58,0,56
2,note_on,52,33,0
2,note_on,52,0,120
2,note_on,48,0,0
2,note_on,41,28,0
2,note_on,41,0,98
2,note_on,57,39,120
2,note_on,48,32,0
2,note_on,57,0,91
2,note_on,53,36,0
2,note_on,53,0,120
2,note_on,48,0,0
2,note_on,41,32,0
2,note_on,41,0,102
2,note_on,59,37,120
2,note_on,50,30,0
2,note_on,59,0,69
2,note_on,53,34,0
2,note_on,53,0,120
2,note_on,50,0,0
2,note_on,43,29,0
2,note_on,43,0,106
2,note_on,58,37,120
2,note_on,48,30,0
2,note_on,58,0,74
2,note_on,52,34,0
2,note_on,52,0,120
2,note_on,48,0,0
2,note_on,36,30,0
2,note_on,36,0,109
2,note_on,57,40,0
2,note_on,48,33,0
2,note_on,57,0,120
2,note_on,53,37,0
2,note_on,53,0,120
2,note_on,48,0,0
2,note_on,41,32,0
2,note_on,41,0,120
2,note_on,69,38,120
2,note_on,60,31,0
2,note_on,69,0,120
2,note_on,65,35,0
2,note_on,65,0,120
2,note_on,60,0,0
2,note_on,53,28,0
2,note_on,53,0,120
2,note_on,81,38,120
2,note_on,72,31,0
2,note_on,81,0,120
2,note_on,77,35,0
2,note_on,77,0,120
2,note_on,72,0,0
2,note_on,65,30,0
2,note_on,65,0,120
2,note_on,64,30,113
2,note_on,55,25,0
2,note_on,64,0,99
2,note_on,60,31,0
2,note_on,60,0,120
2,note_on,55,0,0
2,note_on,48,31,0
2,note_on,48,0,240
2,note_on,63,29,0
2,note_on,55,24,0
2,note_on,63,0,45
2,note_on,60,30,0
2,note_on,60,0,120
2,note_on,55,0,0
2,note_on,48,30,0
2,note_on,48,0,240
2,note_on,65,31,0
2,note_on,60,25,0
2,note_on,65,0,51
2,note_on,63,32,0
2,note_on,63,0,120
2,note_on,60,0,0
2,note_on,53,31,0
2,note_on,53,0,240
2,note_on,63,31,0
2,note_on,53,26,0
2,note_on,63,0,23
2,note_on,58,32,0
2,note_on,58,0,120
2,note_on,53,0,0
2,note_on,46,31,0
2,note_on,46,0,240
2,note_on,62,29,0
2,note_on,53,23,0
2,note_on,62,0,56
2,note_on,58,30,0
2,note_on,58,0,120
2,note_on,53,0,0
2,note_on,46,29,0
2,note_on,46,0,240
2,note_on,62,29,0
2,note_on,53,24,0
2,note_on,62,0,120
2,note_on,58,30,0
2,note_on,58,0,120
2,note_on,53,0,0
2,note_on,46,29,0
2,note_on,46,0,240
2,note_on,61,30,0
2,note_on,53,24,0
2,note_on,61,0,51
2,note_on,58,31,0
2,note_on,58,0,120
2,note_on,53,0,0
2,note_on,46,31,0
2,note_on,46,0,240
2,note_on,61,29,0
2,note_on,53,24,0
2,note_on,61,0,51
2,note_on,58,30,0
2,note_on,58,0,120
2,note_on,53,0,0
2,note_on,46,30,0
2,note_on,46,0,240
2,note_on,61,31,0
2,note_on,51,25,0
2,note_on,61,0,40
2,note_on,58,32,0
2,note_on,58,0,120
2,note_on,51,0,0
2,note_on,39,31,0
2,note_on,39,0,240
2,note_on,61,31,0
2,note_on,51,26,0
2,note_on,61,0,23
2,note_on,56,32,0
2,note_on,56,0,120
2,note_on,51,0,0
2,note_on,44,31,0
2,note_on,44,0,240
2,note_on,60,29,0
2,note_on,51,23,0
2,note_on,60,0,56
2,note_on,56,30,0
2,note_on,56,0,120
2,note_on,51,0,0
2,note_on,44,29,0
2,note_on,44,0,240
2,note_on,60,29,0
2,note_on,51,24,0
2,note_on,60,0,120
2,note_on,56,30,0
2,note_on,56,0,120
2,note_on,51,0,0
2,note_on,44,29,0
2,note_on,44,0,240
2,note_on,60,30,0
2,note_on,51,24,0
2,note_on,60,0,51
2,note_on,56,31,0
2,note_on,56,0,120
2,note_on,51,0,0
2,note_on,43,31,0
2,note_on,43,0,240
2,note_on,60,29,0
2,note_on,51,24,0
2,note_on,60,0,68
2,note_on,56,30,0
2,note_on,56,0,120
2,note_on,51,0,0
2,note_on,43,30,0
2,note_on,43,0,240
2,note_on,60,31,0
2,note_on,51,25,0
2,note_on,60,0,23
2,note_on,56,32,0
2,note_on,56,0,120
2,note_on,51,0,0
2,note_on,43,31,0
2,note_on,43,0,240
2,note_on,60,27,0
2,note_on,50,23,0
2,note_on,60,0,23
2,note_on,55,31,0
2,note_on,55,0,120
2,note_on,50,0,0
2,note_on,43,30,0
2,note_on,43,0,240
2,note_on,59,29,0
2,note_on,50,23,0
2,note_on,59,0,56
2,note_on,55,30,0
2,note_on,55,0,120
2,note_on,50,0,0
2,note_on,43,29,0
2,note_on,43,0,240
2,note_on,59,29,0
2,note_on,50,24,0
2,note_on,59,0,120
2,note_on,55,30,0
2,note_on,55,0,120
2,note_on,50,0,0
2,note_on,43,29,0
2,note_on,43,0,240
2,note_on,60,25,0
2,note_on,51,18,0
2,note_on,60,0,51
2,note_on,56,26,0
2,note_on,56,0,120
2,note_on,51,0,0
2,note_on,43,26,0
2,note_on,43,0,240
2,note_on,72,28,0
2,note_on,63,22,0
2,note_on,72,0,45
2,note_on,68,29,0
2,note_on,68,0,120
2,note_on,63,0,0
2,note_on,55,28,0
2,note_on,55,0,240
2,note_on,72,29,0
2,note_on,63,23,0
2,note_on,72,0,51
2,note_on,68,30,0
2,note_on,68,0,120
2,note_on,63,0,0
2,note_on,55,29,0
2,note_on,55,0,240
2,note_on,72,28,0
2,note_on,62,23,0
2,note_on,72,0,23
2,note_on,67,29,0
2,note_on,67,0,120
2,note_on,62,0,0
2,note_on,55,28,0
2,note_on,55,0,240
2,note_on,71,28,0
2,note_on,62,21,0
2,note_on,71,0,56
2,note_on,67,29,0
2,note_on,67,0,120
2,note_on,62,0,0
2,note_on,55,27,0
2,note_on,55,0,240
2,note_on,71,28,0
2,note_on,62,22,0
2,note_on,71,0,120
2,note_on,67,29,0
2,note_on,67,0,120
2,note_on,62,0,0
2,note_on,55,27,0
2,note_on,55,0,240
2,note_on,71,27,0
2,note_on,62,19,0
2,note_on,71,0,51
2,note_on,66,28,0
2,note_on,66,0,120
2,note_on,62,0,0
2,note_on,54,27,0
2,note_on,54,0,240
2,note_on,59,25,0
2,note_on,50,18,0
2,note_on,59,0,45
2,note_on,54,26,0
2,note_on,54,0,120
2,note_on,50,0,0
2,note_on,42,25,0
2,note_on,42,0,240
2,note_on,61,26,0
2,note_on,50,19,0
2,note_on,61,0,40
2,note_on,54,27,0
2,note_on,54,0,120
2,note_on,50,0,0
2,note_on,42,26,0
2,note_on,42,0,240
2,note_on,59,25,0
2,note_on,49,19,0
2,note_on,59,0,23
2,note_on,54,26,0
2,note_on,54,0,120
2,note_on,49,0,0
2,note_on,42,25,0
2,note_on,42,0,240
2,note_on,58,25,0
2,note_on,49,18,0
2,note_on,58,0,56
2,note_on,54,26,0
2,note_on,54,0,120
2,note_on,49,0,0
2,note_on,42,24,0
2,note_on,42,0,240
2,note_on,58,25,0
2,note_on,49,18,0
2,note_on,58,0,120
2,note_on,54,26,0
2,note_on,54,0,120
2,note_on,49,0,0
2,note_on,42,24,0
2,note_on,42,0,240
2,note_on,55,29,0
2,note_on,50,23,0
2,note_on,55,0,51
2,note_on,54,30,0
2,note_on,54,0,120
2,note_on,50,0,0
2,note_on,42,30,0
2,note_on,42,0,240
2,note_on,55,29,0
2,note_on,50,23,0
2,note_on,55,0,45
2,note_on,54,31,0
2,note_on,54,0,120
2,note_on,50,0,0
2,note_on,42,29,0
2,note_on,42,0,240
2,note_on,55,31,0
2,note_on,52,25,0
2,note_on,55,0,11
2,note_on,54,32,0
2,note_on,54,0,120
2,note_on,52,0,0
2,note_on,42,31,0
2,note_on,42,0,240
2,note_on,55,31,0
2,note_on,50,25,0
2,note_on,55,0,23
2,note_on,54,32,0
2,note_on,54,0,120
2,note_on,50,0,0
2,note_on,42,29,0
2,note_on,42,0,240
2,note_on,55,29,0
2,note_on,49,22,0
2,note_on,55,0,56
2,note_on,54,30,0
2,note_on,54,0,120
2,note_on,49,0,0
2,note_on,42,28,0
2,note_on,42,0,240
2,note_on,54,29,0
2,note_on,49,23,0
2,note_on,54,0,120
2,note_on,52,30,0
2,note_on,52,0,120
2,note_on,49,0,0
2,note_on,42,27,0
2,note_on,42,0,86
2,note_on,51,42,0
2,note_on,51,0,60
2,note_on,42,38,0
2,note_on,42,0,120
2,note_on,35,34,0
2,note_on,35,0,240
2,note_on,51,39,0
2,note_on,51,0,76
2,note_on,42,36,0
2,note_on,42,0,120
2,note_on,35,31,0
2,note_on,35,0,13
2,note_on,51,39,0
2,note_on,51,0,28
2,note_on,42,36,0
2,note_on,42,0,120
2,note_on,35,30,0
2,note_on,35,0,240
2,note_on,52,42,0
2,note_on,52,0,78
2,note_on,42,38,0
2,note_on,42,0,120
2,note_on,35,32,0
2,note_on,35,0,240
2,note_on,52,40,0
2,note_on,52,0,56
2,note_on,42,37,0
2,note_on,42,0,120
2,note_on,35,31,0
2,note_on,35,0,240
2,note_on,52,39,0
2,note_on,52,0,56
2,note_on,42,36,0
2,note_on,42,0,120
2,note_on,35,30,0
2,note_on,35,0,240
2,note_on,51,43,0
2,note_on,51,0,51
2,note_on,42,39,0
2,note_on,42,0,120
2,note_on,35,35,0
2,note_on,35,0,240
2,note_on,51,40,0
2,note_on,51,0,69
2,note_on,42,37,0
2,note_on,42,0,120
2,note_on,35,31,0
2,note_on,35,0,240
2,note_on,53,40,0
2,note_on,53,0,28
2,note_on,47,37,0
2,note_on,47,0,120
2,note_on,37,32,0
2,note_on,37,0,240
2,note_on,58,44,0
2,note_on,49,36,0
2,note_on,58,0,14
2,note_on,52,40,0
2,note_on,52,0,120
2,note_on,49,0,0
2,note_on,42,35,0
2,note_on,42,0,240
2,note_on,64,42,0
2,note_on,54,34,0
2,note_on,64,0,120
2,note_on,58,38,0
2,note_on,58,0,120
2,note_on,54,0,0
2,note_on,49,30,0
2,note_on,49,0,240
2,note_on,70,42,0
2,note_on,61,34,0
2,note_on,70,0,120
2,note_on,64,38,0
2,note_on,64,0,120
2,note_on,61,0,0
2,note_on,54,32,0
2,note_on,54,0,34
2,note_on,51,42,30
2,note_on,51,0,60
2,note_on,42,38,0
2,note_on,42,0,120
2,note_on,35,34,0
2,note_on,35,0,240
2,note_on,51,39,0
2,note_on,51,0,42
2,note_on,42,36,0
2,note_on,42,0,120
2,note_on,35,31,0
2,note_on,35,0,240
2,note_on,51,39,0
2,note_on,51,0,35
2,note_on,42,36,0
2,note_on,42,0,120
2,note_on,35,30,0
2,note_on,35,0,240
2,note_on,52,42,0
2,note_on,52,0,71
2,note_on,42,38,0
2,note_on,42,0,120
2,note_on,35,32,0
2,note_on,35,0,240
2,note_on,52,40,0
2,note_on,52,0,56
2,note_on,42,37,0
2,note_on,42,0,120
2,note_on,35,31,0
2,note_on,35,0,240
2,note_on,52,39,0
2,note_on,52,0,56
2,note_on,42,36,0
2,note_on,42,0,120
2,note_on,35,30,0
2,note_on,35,0,240
2,note_on,51,43,0
2,note_on,51,0,46
2,note_on,42,39,0
2,note_on,42,0,120
2,note_on,35,35,0
2,note_on,35,0,240
2,note_on,53,40,0
2,note_on,53,0,69
2,note_on,47,37,0
2,note_on,47,0,120
2,note_on,37,31,0
2,note_on,37,0,240
2,note_on,58,40,0
2,note_on,58,0,28
2,note_on,52,37,0
2,note_on,52,0,120
2,note_on,42,32,0
2,note_on,42,0,240
2,note_on,51,44,0
2,note_on,51,0,21
2,note_on,42,40,0
2,note_on,42,0,120
2,note_on,35,35,0
2,note_on,35,0,240
2,note_on,63,42,0
2,note_on,63,0,120
2,note_on,54,38,0
2,note_on,54,0,120
2,note_on,47,30,0
2,note_on,47,0,240
2,note_on,75,42,0
2,note_on,75,0,120
2,note_on,66,38,0
2,note_on,66,0,120
2,note_on,59,32,0
2,note_on,59,0,34
2,note_on,58,33,30
2,note_on,58,0,60
2,note_on,49,34,0
2,note_on,49,0,120
2,note_on,42,31,0
2,note_on,42,0,240
2,note_on,57,32,0
2,note_on,57,0,40
2,note_on,49,33,0
2,note_on,49,0,120
2,note_on,42,29,0
2,note_on,42,0,240
2,note_on,57,33,0
2,note_on,57,0,40
2,note_on,47,34,0
2,note_on,47,0,120
2,note_on,42,29,0
2,note_on,42,0,240
2,note_on,57,35,0
2,note_on,57,0,57
2,note_on,47,36,0
2,note_on,47,0,120
2,note_on,40,29,0
2,note_on,40,0,240
2,note_on,56,31,0
2,note_on,56,0,56
2,note_on,47,32,0
2,note_on,47,0,120
2,note_on,40,26,0
2,note_on,40,0,240
2,note_on,56,30,0
2,note_on,56,0,56
2,note_on,47,31,0
2,note_on,47,0,120
2,note_on,40,25,0
2,note_on,40,0,240
2,note_on,55,33,0
2,note_on,55,0,60
2,note_on,47,34,0
2,note_on,47,0,120
2,note_on,40,31,0
2,note_on,40,0,240
2,note_on,55,32,0
2,note_on,55,0,40
2,note_on,47,33,0
2,note_on,47,0,120
2,note_on,40,29,0
2,note_on,40,0,240
2,note_on,55,33,0
2,note_on,55,0,40
2,note_on,45,34,0
2,note_on,45,0,120
2,note_on,40,29,0
2,note_on,40,0,240
2,note_on,55,35,0
2,note_on,55,0,57
2,note_on,45,36,0
2,note_on,45,0,120
2,note_on,38,29,0
2,note_on,38,0,240
2,note_on,54,31,0
2,note_on,54,0,56
2,note_on,45,32,0
2,note_on,45,0,120
2,note_on,38,26,0
2,note_on,38,0,240
2,note_on,54,30,0
2,note_on,54,0,56
2,note_on,45,31,0
2,note_on,45,0,120
2,note_on,38,25,0
2,note_on,38,0,240
2,note_on,54,31,0
2,note_on,54,0,60
2,note_on,45,32,0
2,note_on,45,0,120
2,note_on,37,29,0
2,note_on,37,0,240
2,note_on,57,24,0
2,note_on,66,30,0
2,note_on,66,0,28
2,note_on,61,31,0
2,note_on,61,0,120
2,note_on,57,0,0
2,note_on,49,27,0
2,note_on,49,0,240
2,note_on,57,24,0
2,note_on,68,31,0
2,note_on,68,0,40
2,note_on,61,32,0
2,note_on,61,0,120
2,note_on,57,0,0
2,note_on,49,27,0
2,note_on,49,0,240
2,note_on,56,24,0
2,note_on,66,35,0
2,note_on,66,0,57
2,note_on,61,36,0
2,note_on,61,0,120
2,note_on,56,0,0
2,note_on,49,29,0
2,note_on,49,0,240
2,note_on,56,24,0
2,note_on,65,31,0
2,note_on,65,0,56
2,note_on,61,32,0
2,note_on,61,0,120
2,note_on,56,0,0
2,note_on,49,26,0
2,note_on,49,0,240
2,note_on,56,24,0
2,note_on,65,30,0
2,note_on,65,0,56
2,note_on,61,31,0
2,note_on,61,0,120
2,note_on,56,0,0
2,note_on,49,25,0
2,note_on,49,0,240
2,note_on,57,19,0
2,note_on,66,26,0
2,note_on,66,0,60
2,note_on,61,27,0
2,note_on,61,0,120
2,note_on,57,0,0
2,note_on,49,25,0
2,note_on,49,0,240
2,note_on,69,23,0
2,note_on,78,29,0
2,note_on,78,0,34
2,note_on,73,26,0
2,note_on,73,0,120
2,note_on,69,0,0
2,note_on,61,23,0
2,note_on,61,0,240
2,note_on,69,23,0
2,note_on,80,29,0
2,note_on,80,0,40
2,note_on,73,27,0
2,note_on,73,0,120
2,note_on,69,0,0
2,note_on,61,23,0
2,note_on,61,0,240
2,note_on,68,23,0
2,note_on,78,33,0
2,note_on,78,0,57
2,note_on,73,30,0
2,note_on,73,0,120
2,note_on,68,0,0
2,note_on,61,25,0
2,note_on,61,0,240
2,note_on,68,23,0
2,note_on,77,29,0
2,note_on,77,0,56
2,note_on,73,27,0
2,note_on,73,0,120
2,note_on,68,0,0
2,note_on,61,22,0
2,note_on,61,0,240
2,note_on,68,23,0
2,note_on,77,29,0
2,note_on,77,0,56
2,note_on,73,26,0
2,note_on,73,0,120
2,note_on,68,0,0
2,note_on,61,21,0
2,note_on,61,0,240
2,note_on,68,23,0
2,note_on,77,29,0
2,note_on,77,0,60
2,note_on,72,27,0
2,note_on,72,0,120
2,note_on,68,0,0
2,note_on,60,25,0
2,note_on,60,0,240
2,note_on,56,22,0
2,note_on,65,28,0
2,note_on,65,0,45
2,note_on,60,25,0
2,note_on,60,0,120
2,note_on,56,0,0
2,note_on,48,22,0
2,note_on,48,0,240
2,note_on,56,22,0
2,note_on,67,28,0
2,note_on,67,0,40
2,note_on,60,26,0
2,note_on,60,0,120
2,note_on,56,0,0
2,note_on,48,22,0
2,note_on,48,0,240
2,note_on,55,22,0
2,note_on,65,32,0
2,note_on,65,0,57
2,note_on,60,28,0
2,note_on,60,0,120
2,note_on,55,0,0
2,note_on,48,24,0
2,note_on,48,0,240
2,note_on,55,21,0
2,note_on,64,27,0
2,note_on,64,0,56
2,note_on,60,25,0
2,note_on,60,0,120
2,note_on,55,0,0
2,note_on,48,19,0
2,note_on,48,0,240
2,note_on,55,21,0
2,note_on,64,27,0
2,note_on,64,0,56
2,note_on,60,24,0
2,note_on,60,0,120
2,note_on,55,0,0
2,note_on,48,18,0
2,note_on,48,0,240
2,note_on,55,21,0
2,note_on,62,27,0
2,note_on,62,0,60
2,note_on,60,25,0
2,note_on,60,0,120
2,note_on,55,0,0
2,note_on,48,23,0
2,note_on,48,0,240
2,note_on,55,21,0
2,note_on,62,26,0
2,note_on,62,0,35
2,note_on,60,23,0
2,note_on,60,0,120
2,note_on,55,0,0
2,note_on,48,21,0
2,note_on,48,0,240
2,note_on,55,19,0
2,note_on,64,26,0
2,note_on,64,0,40
2,note_on,60,24,0
2,note_on,60,0,120
2,note_on,55,0,0
2,note_on,48,19,0
2,note_on,48,0,240
2,note_on,55,19,0
2,note_on,62,29,0
2,note_on,62,0,57
2,note_on,60,26,0
2,note_on,60,0,120
2,note_on,55,0,0
2,note_on,48,22,0
2,note_on,48,0,240
2,note_on,55,19,0
2,note_on,62,25,0
2,note_on,62,0,56
2,note_on,60,23,0
2,note_on,60,0,120
2,note_on,55,0,0
2,note_on,48,18,0
2,note_on,48,0,240
2,note_on,55,19,0
2,note_on,60,25,0
2,note_on,60,0,56
2,note_on,58,22,0
2,note_on,58,0,120
2,note_on,55,0,0
2,note_on,48,17,0
2,note_on,48,0,41
2,note_on,57,46,30
2,note_on,48,37,0
2,note_on,57,0,99
2,note_on,53,42,0
2,note_on,53,0,120
2,note_on,48,0,0
2,note_on,41,37,0
2,note_on,41,0,56
2,note_on,57,44,180
2,note_on,48,34,0
2,note_on,57,0,85
2,note_on,53,39,0
2,note_on,53,0,120
2,note_on,48,0,0
2,note_on,41,34,0
2,note_on,41,0,49
2,note_on,57,44,180
2,note_on,48,34,0
2,note_on,57,0,85
2,note_on,53,39,0
2,note_on,53,0,120
2,note_on,48,0,0
2,note_on,41,33,0
2,note_on,41,0,51
2,note_on,58,46,180
2,note_on,48,37,0
2,note_on,58,0,99
2,note_on,52,42,0
2,note_on,52,0,120
2,note_on,48,0,0
2,note_on,41,35,0
2,note_on,41,0,46
2,note_on,58,44,180
2,note_on,48,34,0
2,note_on,58,0,56
2,note_on,52,39,0
2,note_on,52,0,120
2,note_on,48,0,0
2,note_on,41,33,0
2,note_on,41,0,49
2,note_on,58,44,180
2,note_on,48,34,0
2,note_on,58,0,56
2,note_on,52,39,0
2,note_on,52,0,120
2,note_on,48,0,0
2,note_on,41,33,0
2,note_on,41,0,32
2,note_on,57,47,180
2,note_on,48,38,0
2,note_on,57,0,91
2,note_on,53,44,0
2,note_on,53,0,120
2,note_on,48,0,0
2,note_on,41,38,0
2,note_on,41,0,42
2,note_on,57,45,180
2,note_on,50,35,0
2,note_on,57,0,69
2,note_on,53,40,0
2,note_on,53,0,120
2,note_on,50,0,0
2,note_on,41,34,0
2,note_on,41,0,46
2,note_on,59,45,180
2,note_on,50,35,0
2,note_on,59,0,74
2,note_on,53,40,0
2,note_on,53,0,120
2,note_on,50,0,0
2,note_on,43,35,0
2,note_on,43,0,49
2,note_on,64,48,0
2,note_on,55,39,0
2,note_on,64,0,120
2,note_on,58,45,0
2,note_on,58,0,120
2,note_on,55,0,0
2,note_on,48,38,0
2,note_on,48,0,60
2,note_on,70,46,180
2,note_on,60,37,0
2,note_on,70,0,120
2,note_on,64,42,0
2,note_on,64,0,120
2,note_on,60,0,0
2,note_on,55,33,0
2,note_on,55,0,60
2,note_on,76,46,180
2,note_on,67,37,0
2,note_on,76,0,120
2,note_on,70,42,0
2,note_on,70,0,120
2,note_on,67,0,0
2,note_on,60,35,0
2,note_on,60,0,60
2,note_on,57,46,64
2,note_on,48,37,0
2,note_on,57,0,99
2,note_on,53,42,0
2,note_on,53,0,120
2,note_on,48,0,0
2,note_on,41,37,0
2,note_on,41,0,51
2,note_on,57,44,180
2,note_on,48,34,0
2,note_on,57,0,85
2,note_on,53,39,0
2,note_on,53,0,120
2,note_on,48,0,0
2,note_on,41,34,0
2,note_on,41,0,49
2,note_on,57,44,180
2,note_on,48,34,0
2,note_on,57,0,85
2,note_on,53,39,0
2,note_on,53,0,120
2,note_on,48,0,0
2,note_on,41,33,0
2,note_on,41,0,51
2,note_on,58,46,180
2,note_on,48,37,0
2,note_on,58,0,99
2,note_on,52,42,0
2,note_on,52,0,120
2,note_on,48,0,0
2,note_on,41,35,0
2,note_on,41,0,46
2,note_on,58,44,180
2,note_on,48,34,0
2,note_on,58,0,56
2,note_on,52,39,0
2,note_on,52,0,120
2,note_on,48,0,0
2,note_on,41,33,0
2,note_on,41,0,49
2,note_on,58,44,180
2,note_on,48,34,0
2,note_on,58,0,56
2,note_on,52,39,0
2,note_on,52,0,120
2,note_on,48,0,0
2,note_on,41,33,0
2,note_on,41,0,32
2,note_on,57,47,180
2,note_on,48,38,0
2,note_on,57,0,91
2,note_on,53,44,0
2,note_on,53,0,120
2,note_on,48,0,0
2,note_on,41,38,0
2,note_on,41,0,42
2,note_on,59,45,180
2,note_on,50,35,0
2,note_on,59,0,69
2,note_on,53,40,0
2,note_on,53,0,120
2,note_on,50,0,0
2,note_on,43,34,0
2,note_on,43,0,46
2,note_on,64,45,180
2,note_on,55,35,0
2,note_on,64,0,74
2,note_on,58,40,0
2,note_on,58,0,120
2,note_on,55,0,0
2,note_on,48,35,0
2,note_on,48,0,49
2,note_on,57,48,0
2,note_on,48,35,0
2,note_on,57,0,120
2,note_on,53,45,0
2,note_on,53,0,120
2,note_on,48,0,0
2,note_on,41,38,0
2,note_on,41,0,60
2,note_on,69,46,180
2,note_on,60,33,0
2,note_on,69,0,92
2,note_on,65,42,0
2,note_on,65,0,120
2,note_on,60,0,0
2,note_on,53,33,0
2,note_on,53,0,60
2,note_on,70,37,180
2,note_on,60,30,0
2,note_on,70,0,49
2,note_on,64,37,0
2,note_on,64,0,120
2,note_on,60,0,0
2,note_on,53,29,0
2,note_on,53,0,60
2,note_on,69,43,180
2,note_on,60,32,0
2,note_on,69,0,49
2,note_on,65,39,0
2,note_on,65,0,120
2,note_on,60,0,0
2,note_on,53,34,0
2,note_on,53,0,60
2,note_on,81,40,180
2,note_on,72,28,0
2,note_on,81,0,56
2,note_on,77,37,0
2,note_on,77,0,120
2,note_on,72,0,0
2,note_on,65,29,0
2,note_on,65,0,60
2,note_on,82,36,180
2,note_on,72,24,0
2,note_on,82,0,67
2,note_on,76,35,0
2,note_on,76,0,120
2,note_on,72,0,0
2,note_on,65,27,0
2,note_on,65,0,60
2,note_on,81,43,0
2,note_on,72,35,0
2,note_on,81,0,49
2,note_on,77,39,0
2,note_on,77,0,120
2,note_on,72,0,0
2,note_on,65,34,0
2,note_on,65,0,60
2,note_on,69,36,180
2,note_on,60,29,0
2,note_on,69,0,56
2,note_on,65,33,0
2,note_on,65,0,120
2,note_on,60,0,0
2,note_on,53,26,0
2,note_on,53,0,240
2,note_on,70,36,0
2,note_on,60,29,0
2,note_on,70,0,74
2,note_on,64,33,0
2,note_on,64,0,120
2,note_on,60,0,0
2,note_on,53,26,0
2,note_on,53,0,240
2,note_on,69,37,0
2,note_on,60,31,0
2,note_on,69,0,42
2,note_on,65,35,0
2,note_on,65,0,120
2,note_on,60,0,0
2,note_on,53,30,0
2,note_on,53,0,240
2,note_on,81,36,0
2,note_on,72,29,0
2,note_on,81,0,49
2,note_on,77,33,0
2,note_on,77,0,120
2,note_on,72,0,0
2,note_on,65,26,0
2,note_on,65,0,240
2,note_on,82,33,0
2,note_on,72,27,0
2,note_on,82,0,49
2,note_on,76,33,0
2,note_on,76,0,120
2,note_on,72,0,0
2,note_on,65,26,0
2,note_on,65,0,240
2,note_on,81,37,0
2,note_on,72,31,0
2,note_on,81,0,49
2,note_on,77,35,0
2,note_on,77,0,120
2,note_on,72,0,0
2,note_on,65,30,0
2,note_on,65,0,60
2,note_on,81,37,180
2,note_on,71,30,0
2,note_on,81,0,74
2,note_on,75,34,0
2,note_on,75,0,120
2,note_on,71,0,0
2,note_on,59,27,0
2,note_on,59,0,60
2,note_on,80,37,180
2,note_on,71,29,0
2,note_on,80,0,85
2,note_on,74,33,0
2,note_on,74,0,120
2,note_on,71,0,0
2,note_on,64,28,0
2,note_on,64,0,60
2,note_on,79,37,180
2,note_on,69,31,0
2,note_on,79,0,49
2,note_on,73,35,0
2,note_on,73,0,120
2,note_on,69,0,0
2,note_on,57,30,0
2,note_on,57,0,60
2,note_on,74,36,180
2,note_on,67,29,0
2,note_on,74,0,74
2,note_on,70,33,0
2,note_on,70,0,120
2,note_on,67,0,0
2,note_on,58,26,0
2,note_on,58,0,60
2,note_on,76,34,180
2,note_on,67,28,0
2,note_on,76,0,85
2,note_on,70,32,0
2,note_on,70,0,120
2,note_on,67,0,0
2,note_on,60,26,0
2,note_on,60,0,60
2,note_on,69,35,180
2,note_on,60,29,0
2,note_on,69,0,49
2,note_on,65,33,0
2,note_on,65,0,120
2,note_on,60,0,0
2,note_on,53,28,0
2,note_on,53,0,60
2,note_on,69,35,180
2,note_on,59,28,0
2,note_on,69,0,68
2,note_on,63,32,0
2,note_on,63,0,120
2,note_on,59,0,0
2,note_on,47,25,0
2,note_on,47,0,60
2,note_on,68,33,180
2,note_on,59,25,0
2,note_on,68,0,85
2,note_on,62,29,0
2,note_on,62,0,120
2,note_on,59,0,0
2,note_on,52,24,0
2,note_on,52,0,60
2,note_on,67,33,180
2,note_on,57,27,0
2,note_on,67,0,49
2,note_on,61,31,0
2,note_on,61,0,120
2,note_on,57,0,0
2,note_on,45,26,0
2,note_on,45,0,60
2,note_on,62,34,180
2,note_on,55,27,0
2,note_on,62,0,53
2,note_on,58,31,0
2,note_on,58,0,120
2,note_on,55,0,0
2,note_on,46,24,0
2,note_on,46,0,60
2,note_on,64,32,180
2,note_on,55,26,0
2,note_on,64,0,53
2,note_on,58,30,0
2,note_on,58,0,120
2,note_on,55,0,0
2,note_on,48,24,0
2,note_on,48,0,60
2,note_on,57,33,0
2,note_on,48,27,0
2,note_on,57,0,49
2,note_on,53,31,0
2,note_on,53,0,120
2,note_on,48,0,0
2,note_on,41,26,0
2,note_on,41,0,240
2,note_on,57,35,0
2,note_on,48,27,0
2,note_on,57,0,120
2,note_on,53,33,0
2,note_on,53,0,120
2,note_on,48,0,0
2,note_on,41,25,0
2,note_on,41,0,240
2,note_on,58,34,0
2,note_on,48,27,0
2,note_on,58,0,28
2,note_on,52,32,0
2,note_on,52,0,120
2,note_on,48,0,0
2,note_on,41,25,0
2,note_on,41,0,240
2,note_on,57,35,0
2,note_on,48,29,0
2,note_on,57,0,49
2,note_on,53,33,0
2,note_on,53,0,120
2,note_on,48,0,0
2,note_on,41,27,0
2,note_on,41,0,240
2,note_on,57,34,0
2,note_on,48,27,0
2,note_on,57,0,120
2,note_on,53,32,0
2,note_on,53,0,120
2,note_on,48,0,0
2,note_on,41,24,0
2,note_on,41,0,240
2,note_on,58,32,0
2,note_on,48,26,0
2,note_on,58,0,21
2,note_on,52,30,0
2,note_on,52,0,120
2,note_on,48,0,0
2,note_on,41,23,0
2,note_on,41,0,240
2,note_on,57,33,0
2,note_on,48,27,0
2,note_on,57,0,49
2,note_on,53,31,0
2,note_on,53,0,120
2,note_on,48,0,0
2,note_on,41,25,0
2,note_on,41,0,240
2,note_on,29,27,0
2,note_on,29,0,240
2,note_on,41,22,240
2,note_on,48,22,0
2,note_on,57,26,0
2,note_on,57,0,480
2,note_on,48,0,0
2,note_on,41,0,0
2,note_on,53,21,0
2,note_on,60,21,0
2,note_on,69,26,0
2,note_on,69,0,480
2,note_on,60,0,0
2,note_on,53,0,0
2,note_on,29,25,0
2,note_on,29,0,240
2,note_on,41,19,240
2,note_on,48,19,0
2,note_on,57,24,0
2,note_on,57,0,480
2,note_on,48,0,0
2,note_on,41,0,0
2,note_on,53,18,0
2,note_on,60,18,0
2,note_on,69,23,0
2,note_on,69,0,480
2,note_on,60,0,0
2,note_on,53,0,0
2,note_on,36,23,480
2,note_on,48,29,0
2,note_on,48,0,480
2,note_on,36,0,0
2,note_on,29,23,0
2,note_on,41,29,0
2,note_on,41,0,960
2,note_on,29,0,0
2,note_on,41,23,0
2,note_on,48,29,0
2,note_on,48,0,960
2,note_on,41,0,0
