Track,Message Type,Note,Velocity,Time
1,note_on,77,52,0
1,note_on,77,0,1440
1,note_on,74,52,0
1,note_on,74,0,880
1,note_on,77,53,0
1,note_on,75,59,80
1,note_on,77,0,20
1,note_on,75,0,460
1,note_on,74,55,0
1,note_on,74,0,1440
1,note_on,67,52,0
1,note_on,67,0,960
1,note_on,69,57,480
1,note_on,69,0,480
1,note_on,75,58,0
1,note_on,75,0,480
1,note_on,75,56,0
1,note_on,75,0,480
1,note_on,75,58,0
1,note_on,75,49,360
1,note_on,77,51,40
1,note_on,75,0,20
1,note_on,75,0,0
1,note_on,75,54,20
1,note_on,77,0,20
1,note_on,74,55,20
1,note_on,75,0,20
1,note_on,74,0,460
1,note_on,75,56,0
1,note_on,75,0,480
1,note_on,79,57,0
1,note_on,79,0,1320
1,note_on,77,48,0
1,note_on,77,0,120
1,note_on,74,52,0
1,note_on,74,0,960
1,note_on,82,70,480
1,note_on,82,0,1440
1,note_on,70,61,0
1,note_on,70,0,1320
1,note_on,70,54,0
1,note_on,70,0,120
1,note_on,79,66,0
1,note_on,79,0,1440
1,note_on,67,60,0
1,note_on,67,0,234
1,note_on,67,49,6
1,note_on,67,0,48
1,note_on,69,49,0
1,note_on,69,0,48
1,note_on,67,49,0
1,note_on,67,0,48
1,note_on,66,49,0
1,note_on,66,0,48
1,note_on,67,51,0
1,note_on,67,0,48
1,note_on,75,57,0
1,note_on,75,0,480
1,note_on,72,55,0
1,note_on,72,0,480
1,note_on,69,55,0
1,note_on,69,0,240
1,note_on,77,50,0
1,note_on,86,63,0
1,note_on,86,0,240
1,note_on,77,0,0
1,note_on,79,60,0
1,note_on,76,48,0
1,note_on,76,0,240
1,note_on,79,0,0
1,note_on,81,58,0
1,note_on,75,46,0
1,note_on,75,0,240
1,note_on,81,0,0
1,note_on,74,44,0
1,note_on,82,55,0
1,note_on,82,0,240
1,note_on,74,0,0
1,note_on,73,41,0
1,note_on,77,52,0
1,note_on,77,0,240
1,note_on,73,0,0
1,note_on,80,60,0
1,note_on,72,48,0
1,note_on,72,0,240
1,note_on,80,0,0
1,note_on,70,46,0
1,note_on,78,58,0
1,note_on,78,0,240
1,note_on,70,0,0
1,note_on,72,57,0
1,note_on,69,45,0
1,note_on,69,0,240
1,note_on,72,0,0
1,note_on,68,43,0
1,note_on,74,55,0
1,note_on,74,0,240
1,note_on,68,0,0
1,note_on,67,42,0
1,note_on,75,54,0
1,note_on,75,0,240
1,note_on,67,0,0
1,note_on,70,52,0
1,note_on,66,41,0
1,note_on,66,0,240
1,note_on,70,0,0
1,note_on,65,43,240
1,note_on,74,55,0
1,note_on,74,0,240
1,note_on,65,0,0
1,note_on,67,54,0
1,note_on,64,43,0
1,note_on,64,0,240
1,note_on,67,0,0
1,note_on,63,41,0
1,note_on,69,52,0
1,note_on,69,0,240
1,note_on,63,0,0
1,note_on,62,40,0
1,note_on,70,50,0
1,note_on,70,0,240
1,note_on,62,0,0
1,note_on,65,47,0
1,note_on,65,0,240
1,note_on,58,51,0
1,note_on,58,0,240
1,note_on,70,77,1200
1,note_on,73,77,0
1,note_on,82,90,0
1,note_on,82,0,1440
1,note_on,73,0,0
1,note_on,70,0,0
1,note_on,70,71,0
1,note_on,66,71,0
1,note_on,78,84,0
1,note_on,78,0,960
1,note_on,66,0,0
1,note_on,70,0,0
1,note_on,71,66,0
1,note_on,83,78,0
1,note_on,75,66,0
1,note_on,75,0,480
1,note_on,83,0,0
1,note_on,71,0,0
1,note_on,70,71,0
1,note_on,73,71,0
1,note_on,82,84,0
1,note_on,82,0,1440
1,note_on,73,0,0
1,note_on,70,0,0
1,note_on,70,68,0
1,note_on,78,80,0
1,note_on,66,68,0
1,note_on,66,0,1440
1,note_on,78,0,0
1,note_on,70,0,0
1,note_on,73,76,0
1,note_on,85,90,0
1,note_on,82,76,0
1,note_on,82,0,960
1,note_on,85,0,0
1,note_on,73,0,0
1,note_on,82,87,0
1,note_on,70,73,0
1,note_on,78,73,0
1,note_on,78,0,480
1,note_on,70,0,0
1,note_on,82,0,0
1,note_on,90,93,0
1,note_on,78,78,0
1,note_on,82,78,0
1,note_on,82,0,960
1,note_on,78,0,0
1,note_on,90,0,0
1,note_on,85,84,0
1,note_on,82,73,0
1,note_on,73,69,0
1,note_on,73,0,360
1,note_on,82,0,0
1,note_on,85,0,0
1,note_on,80,68,0
1,note_on,83,79,0
1,note_on,71,68,0
1,note_on,71,0,120
1,note_on,83,0,0
1,note_on,80,0,0
1,note_on,71,67,0
1,note_on,80,67,0
1,note_on,83,79,0
1,note_on,83,0,480
1,note_on,80,0,0
1,note_on,71,0,0
1,note_on,78,61,0
1,note_on,70,61,0
1,note_on,82,71,0
1,note_on,82,0,480
1,note_on,70,0,0
1,note_on,78,0,0
1,note_on,70,43,1920
1,note_on,82,51,0
1,note_on,73,43,0
1,note_on,73,0,1440
1,note_on,82,0,0
1,note_on,70,0,0
1,note_on,66,39,0
1,note_on,70,39,0
1,note_on,78,48,0
1,note_on,78,0,960
1,note_on,70,0,0
1,note_on,66,0,0
1,note_on,75,37,0
1,note_on,83,44,0
1,note_on,71,37,0
1,note_on,71,0,480
1,note_on,83,0,0
1,note_on,75,0,0
1,note_on,70,39,0
1,note_on,73,39,0
1,note_on,82,48,0
1,note_on,82,0,1440
1,note_on,73,0,0
1,note_on,70,0,0
1,note_on,70,38,0
1,note_on,66,38,0
1,note_on,78,46,0
1,note_on,78,0,1440
1,note_on,66,0,0
1,note_on,70,0,0
1,note_on,73,43,0
1,note_on,82,43,0
1,note_on,85,51,0
1,note_on,85,0,960
1,note_on,82,0,0
1,note_on,73,0,0
1,note_on,70,40,0
1,note_on,82,49,0
1,note_on,78,40,0
1,note_on,78,0,480
1,note_on,82,0,0
1,note_on,70,0,0
1,note_on,82,44,0
1,note_on,78,44,0
1,note_on,90,52,0
1,note_on,90,0,960
1,note_on,78,0,0
1,note_on,82,0,0
1,note_on,85,48,0
1,note_on,82,40,0
1,note_on,73,38,0
1,note_on,73,0,360
1,note_on,82,0,0
1,note_on,85,0,0
1,note_on,80,38,0
1,note_on,71,38,0
1,note_on,83,46,0
1,note_on,83,0,120
1,note_on,71,0,0
1,note_on,80,0,0
1,note_on,71,38,0
1,note_on,83,46,0
1,note_on,80,38,0
1,note_on,80,0,480
1,note_on,83,0,0
1,note_on,71,0,0
1,note_on,70,38,0
1,note_on,78,38,0
1,note_on,82,44,0
1,note_on,82,0,480
1,note_on,78,0,0
1,note_on,70,0,0
1,note_on,77,62,1920
1,note_on,65,46,240
1,note_on,65,0,240
1,note_on,77,0,0
1,note_on,64,36,0
1,note_on,67,46,0
1,note_on,67,0,240
1,note_on,64,0,0
1,note_on,63,37,0
1,note_on,69,48,0
1,note_on,69,0,240
1,note_on,63,0,0
1,note_on,70,52,0
1,note_on,62,41,0
1,note_on,62,0,240
1,note_on,70,0,0
1,note_on,72,50,0
1,note_on,60,45,0
1,note_on,60,0,240
1,note_on,72,0,0
1,note_on,74,60,0
1,note_on,74,0,240
1,note_on,65,49,0
1,note_on,65,0,240
1,note_on,64,38,0
1,note_on,67,49,0
1,note_on,67,0,240
1,note_on,64,0,0
1,note_on,63,39,0
1,note_on,69,51,0
1,note_on,69,0,240
1,note_on,63,0,0
1,note_on,70,55,0
1,note_on,62,44,0
1,note_on,62,0,240
1,note_on,70,0,0
1,note_on,74,53,0
1,note_on,74,0,240
1,note_on,79,64,0
1,note_on,67,52,240
1,note_on,67,0,240
1,note_on,79,0,0
1,note_on,69,52,0
1,note_on,66,41,0
1,note_on,66,0,240
1,note_on,69,0,0
1,note_on,71,54,0
1,note_on,65,41,0
1,note_on,65,0,240
1,note_on,71,0,0
1,note_on,72,58,0
1,note_on,63,46,0
1,note_on,63,0,240
1,note_on,72,0,0
1,note_on,74,56,0
1,note_on,62,50,0
1,note_on,62,0,240
1,note_on,74,0,0
1,note_on,75,74,0
1,note_on,67,60,240
1,note_on,67,0,240
1,note_on,75,0,0
1,note_on,69,62,0
1,note_on,66,47,0
1,note_on,66,0,240
1,note_on,69,0,0
1,note_on,65,49,0
1,note_on,71,63,0
1,note_on,71,0,240
1,note_on,65,0,0
1,note_on,63,55,0
1,note_on,72,70,0
1,note_on,72,0,240
1,note_on,63,0,0
1,note_on,75,68,0
1,note_on,75,0,240
1,note_on,81,81,0
1,note_on,69,66,240
1,note_on,69,0,240
1,note_on,81,0,0
1,note_on,68,53,0
1,note_on,71,67,0
1,note_on,71,0,240
1,note_on,68,0,0
1,note_on,73,71,0
1,note_on,67,53,0
1,note_on,67,0,240
1,note_on,73,0,0
1,note_on,65,61,0
1,note_on,74,76,0
1,note_on,74,0,240
1,note_on,65,0,0
1,note_on,77,74,0
1,note_on,77,0,240
1,note_on,82,90,0
1,note_on,70,73,240
1,note_on,70,0,240
1,note_on,82,0,0
1,note_on,69,58,0
1,note_on,72,75,0
1,note_on,72,0,240
1,note_on,69,0,0
1,note_on,74,76,0
1,note_on,68,58,0
1,note_on,68,0,240
1,note_on,74,0,0
1,note_on,67,66,0
1,note_on,75,83,0
1,note_on,75,0,240
1,note_on,67,0,0
1,note_on,66,73,0
1,note_on,78,81,0
1,note_on,78,0,240
1,note_on,66,0,0
1,note_on,77,84,240
1,note_on,77,0,240
1,note_on,82,79,0
1,note_on,78,79,0
1,note_on,87,92,0
1,note_on,87,0,240
1,note_on,78,0,0
1,note_on,82,0,0
1,note_on,77,85,0
1,note_on,77,0,240
1,note_on,82,77,0
1,note_on,78,77,0
1,note_on,87,91,0
1,note_on,87,0,240
1,note_on,78,0,0
1,note_on,82,0,0
1,note_on,77,86,0
1,note_on,77,0,240
1,note_on,78,82,0
1,note_on,87,96,0
1,note_on,82,82,0
1,note_on,82,0,240
1,note_on,87,0,0
1,note_on,78,0,0
1,note_on,77,89,0
1,note_on,77,0,240
1,note_on,78,80,0
1,note_on,87,95,0
1,note_on,82,80,0
1,note_on,82,0,240
1,note_on,87,0,0
1,note_on,78,0,0
1,note_on,77,91,0
1,note_on,77,0,240
1,note_on,82,85,0
1,note_on,78,85,0
1,note_on,87,101,0
1,note_on,87,0,240
1,note_on,78,0,0
1,note_on,82,0,0
1,note_on,77,93,0
1,note_on,77,0,240
1,note_on,78,79,0
1,note_on,87,100,0
1,note_on,87,0,240
1,note_on,78,0,0
1,note_on,86,92,0
1,note_on,77,73,0
1,note_on,77,0,240
1,note_on,86,0,0
1,note_on,79,89,0
1,note_on,76,70,0
1,note_on,76,0,240
1,note_on,79,0,0
1,note_on,75,60,0
1,note_on,81,78,0
1,note_on,81,0,240
1,note_on,75,0,0
1,note_on,82,85,0
1,note_on,74,67,0
1,note_on,74,0,240
1,note_on,82,0,0
1,note_on,73,59,0
1,note_on,77,76,0
1,note_on,77,0,240
1,note_on,73,0,0
1,note_on,72,63,0
1,note_on,80,80,0
1,note_on,80,0,240
1,note_on,72,0,0
1,note_on,78,76,0
1,note_on,70,59,0
1,note_on,70,0,240
1,note_on,78,0,0
1,note_on,69,59,0
1,note_on,72,75,0
1,note_on,72,0,240
1,note_on,69,0,0
1,note_on,74,72,0
1,note_on,68,57,0
1,note_on,68,0,240
1,note_on,74,0,0
1,note_on,67,60,0
1,note_on,75,76,0
1,note_on,75,0,240
1,note_on,67,0,0
1,note_on,66,55,0
1,note_on,70,69,0
1,note_on,70,0,240
1,note_on,66,0,0
1,note_on,73,78,0
1,note_on,65,62,0
1,note_on,65,0,240
1,note_on,73,0,0
1,note_on,64,55,0
1,note_on,72,70,0
1,note_on,72,0,240
1,note_on,64,0,0
1,note_on,67,70,0
1,note_on,63,54,0
1,note_on,63,0,240
1,note_on,67,0,0
1,note_on,62,53,0
1,note_on,68,66,0
1,note_on,68,0,240
1,note_on,62,0,0
1,note_on,61,55,0
1,note_on,69,70,0
1,note_on,69,0,240
1,note_on,61,0,0
1,note_on,63,65,0
1,note_on,60,52,0
1,note_on,60,0,240
1,note_on,63,0,0
1,note_on,58,57,0
1,note_on,66,73,0
1,note_on,66,0,240
1,note_on,58,0,0
1,note_on,65,65,0
1,note_on,57,52,0
1,note_on,57,0,240
1,note_on,65,0,0
1,note_on,56,55,0
1,note_on,60,70,0
1,note_on,60,0,240
1,note_on,56,0,0
1,note_on,55,47,0
1,note_on,62,60,0
1,note_on,62,0,240
1,note_on,55,0,0
1,note_on,63,69,0
1,note_on,54,52,0
1,note_on,54,0,240
1,note_on,53,50,0
1,note_on,57,62,0
1,note_on,57,0,240
1,note_on,53,0,0
1,note_on,63,0,0
1,note_on,58,57,0
1,note_on,62,73,0
1,note_on,53,57,0
1,note_on,53,0,240
1,note_on,62,0,0
1,note_on,58,0,0
1,note_on,66,44,1440
1,note_on,75,56,0
1,note_on,75,0,240
1,note_on,66,0,0
1,note_on,69,54,0
1,note_on,65,43,0
1,note_on,65,0,240
1,note_on,69,0,0
1,note_on,64,39,0
1,note_on,70,50,0
1,note_on,70,0,240
1,note_on,64,0,0
1,note_on,63,40,0
1,note_on,72,50,0
1,note_on,66,47,240
1,note_on,66,0,240
1,note_on,72,0,0
1,note_on,63,0,0
1,note_on,62,45,0
1,note_on,65,45,0
1,note_on,70,45,0
1,note_on,74,58,0
1,note_on,74,0,480
1,note_on,62,0,0
1,note_on,65,0,0
1,note_on,70,0,0
1,note_on,75,56,1200
1,note_on,66,44,0
1,note_on,66,0,240
1,note_on,75,0,0
1,note_on,65,43,0
1,note_on,69,54,0
1,note_on,69,0,240
1,note_on,65,0,0
1,note_on,70,50,0
1,note_on,64,39,0
1,note_on,64,0,240
1,note_on,70,0,0
1,note_on,63,40,0
1,note_on,72,50,0
1,note_on,66,47,240
1,note_on,66,0,240
1,note_on,72,0,0
1,note_on,63,0,0
1,note_on,65,45,0
1,note_on,70,45,0
1,note_on,62,45,0
1,note_on,74,58,0
1,note_on,74,0,480
1,note_on,65,0,0
1,note_on,70,0,0
1,note_on,62,0,0
1,note_on,67,58,960
1,note_on,62,58,0
1,note_on,55,49,0
1,note_on,58,49,0
1,note_on,58,0,720
1,note_on,62,0,0
1,note_on,60,54,0
1,note_on,60,0,240
1,note_on,63,58,0
1,note_on,63,0,240
1,note_on,62,51,0
1,note_on,62,0,240
1,note_on,55,0,0
1,note_on,67,0,0
1,note_on,58,48,0
1,note_on,53,48,0
1,note_on,62,57,0
1,note_on,65,57,0
1,note_on,62,0,960
1,note_on,58,0,480
1,note_on,53,0,0
1,note_on,65,0,0
1,note_on,58,49,0
1,note_on,62,58,0
1,note_on,55,49,0
1,note_on,67,58,0
1,note_on,62,0,720
1,note_on,58,0,0
1,note_on,60,54,0
1,note_on,60,0,240
1,note_on,63,58,0
1,note_on,63,0,240
1,note_on,62,51,0
1,note_on,62,0,240
1,note_on,55,0,0
1,note_on,67,0,0
1,note_on,53,48,0
1,note_on,58,48,0
1,note_on,62,57,0
1,note_on,65,57,0
1,note_on,65,0,4320
1,note_on,53,0,0
1,note_on,58,0,0
1,note_on,62,0,0
1,note_on,60,60,2880
1,note_on,53,60,0
1,note_on,63,71,0
1,note_on,65,71,0
1,note_on,65,0,1440
1,note_on,60,0,0
1,note_on,53,0,0
1,note_on,63,0,0
1,note_on,65,71,0
1,note_on,58,61,0
1,note_on,62,72,0
1,note_on,53,61,0
1,note_on,53,0,1440
1,note_on,65,0,0
1,note_on,58,0,0
1,note_on,62,0,0
2,note_on,34,50,0
2,note_on,34,0,137
2,note_on,53,40,0
2,note_on,53,0,240
2,note_on,52,32,0
2,note_on,55,40,0
2,note_on,55,0,91
2,note_on,52,0,0
2,note_on,51,32,0
2,note_on,57,41,0
2,note_on,57,0,240
2,note_on,51,0,0
2,note_on,50,35,0
2,note_on,58,44,0
2,note_on,58,0,103
2,note_on,50,0,0
2,note_on,48,35,0
2,note_on,60,45,0
2,note_on,60,0,240
2,note_on,48,0,0
2,note_on,46,50,0
2,note_on,46,0,162
2,note_on,53,28,0
2,note_on,62,36,0
2,note_on,62,0,240
2,note_on,53,0,0
2,note_on,52,35,0
2,note_on,55,44,0
2,note_on,55,0,155
2,note_on,52,0,0
2,note_on,51,37,0
2,note_on,57,47,0
2,note_on,57,0,240
2,note_on,51,0,0
2,note_on,50,40,0
2,note_on,58,50,0
2,note_on,58,0,162
2,note_on,50,0,0
2,note_on,46,40,0
2,note_on,46,0,240
2,note_on,39,50,0
2,note_on,39,0,103
2,note_on,55,39,0
2,note_on,55,0,240
2,note_on,57,40,0
2,note_on,54,32,0
2,note_on,54,0,103
2,note_on,57,0,0
2,note_on,53,31,0
2,note_on,59,39,0
2,note_on,59,0,240
2,note_on,53,0,0
2,note_on,51,35,0
2,note_on,60,44,0
2,note_on,60,0,80
2,note_on,51,0,0
2,note_on,50,36,0
2,note_on,62,47,0
2,note_on,62,0,240
2,note_on,50,0,0
2,note_on,48,50,0
2,note_on,48,0,103
2,note_on,63,41,0
2,note_on,55,32,0
2,note_on,55,0,240
2,note_on,63,0,0
2,note_on,54,35,0
2,note_on,57,44,0
2,note_on,57,0,126
2,note_on,54,0,0
2,note_on,53,37,0
2,note_on,59,47,0
2,note_on,59,0,240
2,note_on,53,0,0
2,note_on,51,40,0
2,note_on,60,50,0
2,note_on,60,0,114
2,note_on,51,0,0
2,note_on,63,52,0
2,note_on,48,41,0
2,note_on,48,0,240
2,note_on,63,0,0
2,note_on,41,50,0
2,note_on,41,0,80
2,note_on,66,42,0
2,note_on,58,33,0
2,note_on,58,0,240
2,note_on,66,0,0
2,note_on,65,43,0
2,note_on,57,34,0
2,note_on,57,0,103
2,note_on,65,0,0
2,note_on,56,31,0
2,note_on,60,39,0
2,note_on,60,0,240
2,note_on,56,0,0
2,note_on,63,40,0
2,note_on,55,32,0
2,note_on,55,0,91
2,note_on,63,0,0
2,note_on,58,37,0
2,note_on,54,29,0
2,note_on,54,0,240
2,note_on,58,0,0
2,note_on,41,50,0
2,note_on,41,0,148
2,note_on,63,41,0
2,note_on,54,32,0
2,note_on,54,0,240
2,note_on,63,0,0
2,note_on,62,45,0
2,note_on,53,36,0
2,note_on,53,0,186
2,note_on,62,0,0
2,note_on,52,31,0
2,note_on,55,39,0
2,note_on,55,0,240
2,note_on,52,0,0
2,note_on,51,31,0
2,note_on,57,39,0
2,note_on,57,0,123
2,note_on,51,0,0
2,note_on,53,36,0
2,note_on,53,0,240
2,note_on,46,50,0
2,note_on,46,0,141
2,note_on,53,41,0
2,note_on,53,0,240
2,note_on,52,32,0
2,note_on,55,41,0
2,note_on,55,0,162
2,note_on,52,0,0
2,note_on,51,28,0
2,note_on,57,36,0
2,note_on,57,0,240
2,note_on,51,0,0
2,note_on,50,32,0
2,note_on,58,41,0
2,note_on,58,0,141
2,note_on,50,0,0
2,note_on,48,28,0
2,note_on,60,36,0
2,note_on,60,0,240
2,note_on,48,0,0
2,note_on,46,50,0
2,note_on,46,0,114
2,note_on,53,28,0
2,note_on,62,36,0
2,note_on,62,0,240
2,note_on,53,0,0
2,note_on,52,32,0
2,note_on,55,41,0
2,note_on,55,0,91
2,note_on,52,0,0
2,note_on,51,28,0
2,note_on,57,36,0
2,note_on,57,0,240
2,note_on,51,0,0
2,note_on,50,32,0
2,note_on,58,41,0
2,note_on,58,0,125
2,note_on,50,0,0
2,note_on,48,29,0
2,note_on,60,37,0
2,note_on,60,0,240
2,note_on,48,0,0
2,note_on,43,50,0
2,note_on,43,0,80
2,note_on,62,42,0
2,note_on,62,0,240
2,note_on,61,33,0
2,note_on,64,42,0
2,note_on,64,0,137
2,note_on,61,0,0
2,note_on,60,33,0
2,note_on,66,43,0
2,note_on,66,0,240
2,note_on,60,0,0
2,note_on,58,36,0
2,note_on,67,46,0
2,note_on,67,0,137
2,note_on,58,0,0
2,note_on,57,37,0
2,note_on,69,48,0
2,note_on,69,0,240
2,note_on,57,0,0
2,note_on,46,50,0
2,note_on,46,0,127
2,note_on,58,40,0
2,note_on,58,0,240
2,note_on,57,32,0
2,note_on,60,40,0
2,note_on,60,0,106
2,note_on,57,0,0
2,note_on,56,32,0
2,note_on,62,41,0
2,note_on,62,0,240
2,note_on,56,0,0
2,note_on,55,35,0
2,note_on,63,44,0
2,note_on,63,0,169
2,note_on,55,0,0
2,note_on,53,38,0
2,note_on,65,48,0
2,note_on,65,0,240
2,note_on,53,0,0
2,note_on,39,50,0
2,note_on,39,0,137
2,note_on,55,40,0
2,note_on,55,0,240
2,note_on,54,32,0
2,note_on,57,40,0
2,note_on,57,0,137
2,note_on,54,0,0
2,note_on,53,32,0
2,note_on,59,41,0
2,note_on,59,0,240
2,note_on,53,0,0
2,note_on,51,35,0
2,note_on,60,44,0
2,note_on,60,0,125
2,note_on,51,0,0
2,note_on,50,36,0
2,note_on,62,46,0
2,note_on,62,0,240
2,note_on,50,0,0
2,note_on,48,50,0
2,note_on,48,0,149
2,note_on,55,32,0
2,note_on,63,40,0
2,note_on,63,0,240
2,note_on,55,0,0
2,note_on,54,32,0
2,note_on,57,40,0
2,note_on,57,0,103
2,note_on,54,0,0
2,note_on,53,32,0
2,note_on,59,41,0
2,note_on,59,0,240
2,note_on,53,0,0
2,note_on,51,35,0
2,note_on,60,44,0
2,note_on,60,0,194
2,note_on,51,0,0
2,note_on,48,35,0
2,note_on,63,45,0
2,note_on,63,0,240
2,note_on,48,0,0
2,note_on,41,50,0
2,note_on,41,0,149
2,note_on,74,50,0
2,note_on,65,40,0
2,note_on,65,0,240
2,note_on,74,0,0
2,note_on,67,48,0
2,note_on,64,38,0
2,note_on,64,0,114
2,note_on,67,0,0
2,note_on,69,46,0
2,note_on,63,36,0
2,note_on,63,0,240
2,note_on,69,0,0
2,note_on,62,35,0
2,note_on,70,44,0
2,note_on,70,0,91
2,note_on,62,0,0
2,note_on,65,41,0
2,note_on,61,32,0
2,note_on,61,0,240
2,note_on,65,0,0
2,note_on,60,38,0
2,note_on,68,48,0
2,note_on,68,0,103
2,note_on,60,0,0
2,note_on,66,46,0
2,note_on,58,36,0
2,note_on,58,0,240
2,note_on,66,0,0
2,note_on,57,36,0
2,note_on,60,45,0
2,note_on,60,0,149
2,note_on,57,0,0
2,note_on,56,34,0
2,note_on,62,44,0
2,note_on,62,0,240
2,note_on,56,0,0
2,note_on,63,43,0
2,note_on,55,33,0
2,note_on,55,0,103
2,note_on,63,0,0
2,note_on,54,32,0
2,note_on,58,41,0
2,note_on,58,0,240
2,note_on,54,0,0
2,note_on,46,50,0
2,note_on,46,0,114
2,note_on,53,34,0
2,note_on,62,43,0
2,note_on,62,0,240
2,note_on,53,0,0
2,note_on,52,34,0
2,note_on,55,43,0
2,note_on,55,0,126
2,note_on,52,0,0
2,note_on,51,32,0
2,note_on,57,41,0
2,note_on,57,0,240
2,note_on,51,0,0
2,note_on,50,32,0
2,note_on,58,40,0
2,note_on,58,0,137
2,note_on,50,0,0
2,note_on,53,37,0
2,note_on,53,0,240
2,note_on,46,50,0
2,note_on,46,0,125
2,note_on,53,35,0
2,note_on,62,44,0
2,note_on,62,0,240
2,note_on,53,0,0
2,note_on,52,32,0
2,note_on,55,41,0
2,note_on,55,0,114
2,note_on,52,0,0
2,note_on,51,30,0
2,note_on,57,38,0
2,note_on,57,0,240
2,note_on,51,0,0
2,note_on,50,29,0
2,note_on,58,36,0
2,note_on,58,0,125
2,note_on,50,0,0
2,note_on,46,32,0
2,note_on,46,0,240
2,note_on,30,64,0
2,note_on,30,0,103
2,note_on,49,41,0
2,note_on,58,49,0
2,note_on,58,0,240
2,note_on,49,0,0
2,note_on,61,53,0
2,note_on,54,44,0
2,note_on,54,0,240
2,note_on,61,0,0
2,note_on,63,48,0
2,note_on,58,40,0
2,note_on,58,0,240
2,note_on,63,0,0
2,note_on,54,46,0
2,note_on,61,55,0
2,note_on,61,0,240
2,note_on,54,0,0
2,note_on,49,42,0
2,note_on,58,50,0
2,note_on,58,0,240
2,note_on,49,0,0
2,note_on,54,44,0
2,note_on,61,53,0
2,note_on,61,0,126
2,note_on,54,0,0
2,note_on,58,41,0
2,note_on,63,49,0
2,note_on,63,0,240
2,note_on,58,0,0
2,note_on,61,53,0
2,note_on,54,44,0
2,note_on,54,0,240
2,note_on,61,0,0
2,note_on,58,48,0
2,note_on,49,40,0
2,note_on,49,0,240
2,note_on,58,0,0
2,note_on,54,46,0
2,note_on,61,55,0
2,note_on,61,0,240
2,note_on,54,0,0
2,note_on,58,42,0
2,note_on,63,50,0
2,note_on,63,0,240
2,note_on,58,0,0
2,note_on,54,44,0
2,note_on,61,53,0
2,note_on,61,0,103
2,note_on,54,0,0
2,note_on,49,41,0
2,note_on,58,49,0
2,note_on,58,0,240
2,note_on,49,0,0
2,note_on,61,53,0
2,note_on,54,44,0
2,note_on,54,0,240
2,note_on,61,0,0
2,note_on,63,48,0
2,note_on,58,40,0
2,note_on,58,0,240
2,note_on,63,0,0
2,note_on,54,46,0
2,note_on,61,55,0
2,note_on,61,0,240
2,note_on,54,0,0
2,note_on,49,42,0
2,note_on,58,50,0
2,note_on,58,0,240
2,note_on,49,0,0
2,note_on,61,53,0
2,note_on,54,44,0
2,note_on,54,0,91
2,note_on,61,0,0
2,note_on,63,49,0
2,note_on,58,41,0
2,note_on,58,0,240
2,note_on,63,0,0
2,note_on,61,53,0
2,note_on,54,44,0
2,note_on,54,0,240
2,note_on,61,0,0
2,note_on,58,48,0
2,note_on,49,40,0
2,note_on,49,0,240
2,note_on,58,0,0
2,note_on,54,46,0
2,note_on,61,55,0
2,note_on,61,0,240
2,note_on,54,0,0
2,note_on,58,42,0
2,note_on,63,50,0
2,note_on,63,0,240
2,note_on,58,0,0
2,note_on,54,44,0
2,note_on,61,53,0
2,note_on,61,0,137
2,note_on,54,0,0
2,note_on,49,41,0
2,note_on,58,49,0
2,note_on,58,0,240
2,note_on,49,0,0
2,note_on,61,53,0
2,note_on,54,44,0
2,note_on,54,0,240
2,note_on,61,0,0
2,note_on,58,40,0
2,note_on,63,48,0
2,note_on,63,0,240
2,note_on,58,0,0
2,note_on,54,46,0
2,note_on,61,55,0
2,note_on,61,0,240
2,note_on,54,0,0
2,note_on,49,42,0
2,note_on,58,50,0
2,note_on,58,0,240
2,note_on,49,0,0
2,note_on,54,44,0
2,note_on,61,53,0
2,note_on,61,0,148
2,note_on,54,0,0
2,note_on,63,49,0
2,note_on,58,41,0
2,note_on,58,0,240
2,note_on,63,0,0
2,note_on,61,53,0
2,note_on,54,44,0
2,note_on,54,0,240
2,note_on,61,0,0
2,note_on,58,48,0
2,note_on,49,40,0
2,note_on,49,0,240
2,note_on,58,0,0
2,note_on,61,55,0
2,note_on,54,46,0
2,note_on,54,0,240
2,note_on,61,0,0
2,note_on,58,40,0
2,note_on,63,48,0
2,note_on,63,0,240
2,note_on,58,0,0
2,note_on,54,43,0
2,note_on,61,51,0
2,note_on,61,0,126
2,note_on,54,0,0
2,note_on,49,37,0
2,note_on,58,46,0
2,note_on,58,0,240
2,note_on,49,0,0
2,note_on,54,39,0
2,note_on,61,48,0
2,note_on,61,0,114
2,note_on,54,0,0
2,note_on,58,34,0
2,note_on,63,42,0
2,note_on,63,0,240
2,note_on,58,0,0
2,note_on,54,36,0
2,note_on,61,44,0
2,note_on,61,0,240
2,note_on,54,0,0
2,note_on,58,42,0
2,note_on,49,34,0
2,note_on,49,0,240
2,note_on,58,0,0
2,note_on,54,36,0
2,note_on,61,44,0
2,note_on,61,0,80
2,note_on,54,0,0
2,note_on,58,33,0
2,note_on,63,40,0
2,note_on,63,0,240
2,note_on,58,0,0
2,note_on,61,44,0
2,note_on,54,36,0
2,note_on,54,0,240
2,note_on,61,0,0
2,note_on,58,39,0
2,note_on,49,33,0
2,note_on,49,0,240
2,note_on,58,0,0
2,note_on,54,37,0
2,note_on,61,46,0
2,note_on,61,0,240
2,note_on,54,0,0
2,note_on,58,34,0
2,note_on,63,42,0
2,note_on,63,0,240
2,note_on,58,0,0
2,note_on,54,25,0
2,note_on,64,27,0
2,note_on,64,0,125
2,note_on,54,0,0
2,note_on,58,23,0
2,note_on,61,27,0
2,note_on,61,0,240
2,note_on,58,0,0
2,note_on,66,29,0
2,note_on,54,25,0
2,note_on,54,0,240
2,note_on,66,0,0
2,note_on,63,27,0
2,note_on,58,23,0
2,note_on,58,0,240
2,note_on,63,0,0
2,note_on,54,26,0
2,note_on,64,30,0
2,note_on,64,0,240
2,note_on,54,0,0
2,note_on,58,24,0
2,note_on,61,28,0
2,note_on,61,0,240
2,note_on,58,0,0
2,note_on,54,29,0
2,note_on,54,0,126
2,note_on,58,23,0
2,note_on,63,27,0
2,note_on,63,0,240
2,note_on,58,0,0
2,note_on,64,29,0
2,note_on,54,25,0
2,note_on,54,0,240
2,note_on,64,0,0
2,note_on,61,27,0
2,note_on,58,23,0
2,note_on,58,0,240
2,note_on,61,0,0
2,note_on,54,26,0
2,note_on,66,30,0
2,note_on,66,0,240
2,note_on,54,0,0
2,note_on,58,24,0
2,note_on,63,28,0
2,note_on,63,0,240
2,note_on,58,0,0
2,note_on,54,25,0
2,note_on,64,27,0
2,note_on,64,0,137
2,note_on,54,0,0
2,note_on,58,23,0
2,note_on,61,27,0
2,note_on,61,0,240
2,note_on,58,0,0
2,note_on,66,29,0
2,note_on,54,25,0
2,note_on,54,0,240
2,note_on,66,0,0
2,note_on,63,27,0
2,note_on,58,23,0
2,note_on,58,0,240
2,note_on,63,0,0
2,note_on,54,26,0
2,note_on,64,30,0
2,note_on,64,0,240
2,note_on,54,0,0
2,note_on,58,24,0
2,note_on,61,28,0
2,note_on,61,0,240
2,note_on,58,0,0
2,note_on,54,29,0
2,note_on,54,0,126
2,note_on,58,23,0
2,note_on,63,27,0
2,note_on,63,0,240
2,note_on,58,0,0
2,note_on,64,29,0
2,note_on,54,25,0
2,note_on,54,0,240
2,note_on,64,0,0
2,note_on,61,27,0
2,note_on,58,23,0
2,note_on,58,0,240
2,note_on,61,0,0
2,note_on,54,26,0
2,note_on,66,30,0
2,note_on,66,0,240
2,note_on,54,0,0
2,note_on,58,24,0
2,note_on,63,28,0
2,note_on,63,0,240
2,note_on,58,0,0
2,note_on,54,25,0
2,note_on,64,27,0
2,note_on,64,0,91
2,note_on,54,0,0
2,note_on,58,23,0
2,note_on,61,27,0
2,note_on,61,0,240
2,note_on,58,0,0
2,note_on,66,29,0
2,note_on,54,25,0
2,note_on,54,0,240
2,note_on,66,0,0
2,note_on,63,27,0
2,note_on,58,23,0
2,note_on,58,0,240
2,note_on,63,0,0
2,note_on,54,26,0
2,note_on,64,30,0
2,note_on,64,0,240
2,note_on,54,0,0
2,note_on,58,24,0
2,note_on,61,28,0
2,note_on,61,0,240
2,note_on,58,0,0
2,note_on,66,29,0
2,note_on,54,25,0
2,note_on,54,0,154
2,note_on,66,0,0
2,note_on,58,23,0
2,note_on,63,27,0
2,note_on,63,0,240
2,note_on,58,0,0
2,note_on,64,29,0
2,note_on,54,25,0
2,note_on,54,0,240
2,note_on,64,0,0
2,note_on,61,27,0
2,note_on,58,23,0
2,note_on,58,0,240
2,note_on,61,0,0
2,note_on,54,26,0
2,note_on,66,30,0
2,note_on,66,0,240
2,note_on,54,0,0
2,note_on,58,24,0
2,note_on,63,28,0
2,note_on,63,0,240
2,note_on,58,0,0
2,note_on,54,25,0
2,note_on,64,27,0
2,note_on,64,0,103
2,note_on,54,0,0
2,note_on,58,23,0
2,note_on,61,27,0
2,note_on,61,0,240
2,note_on,58,0,0
2,note_on,66,29,0
2,note_on,54,25,0
2,note_on,54,0,91
2,note_on,66,0,0
2,note_on,63,27,0
2,note_on,58,23,0
2,note_on,58,0,240
2,note_on,63,0,0
2,note_on,54,26,0
2,note_on,64,30,0
2,note_on,64,0,240
2,note_on,54,0,0
2,note_on,58,24,0
2,note_on,61,28,0
2,note_on,61,0,240
2,note_on,58,0,0
2,note_on,66,34,0
2,note_on,54,29,0
2,note_on,54,0,126
2,note_on,66,0,0
2,note_on,58,29,0
2,note_on,63,33,0
2,note_on,63,0,240
2,note_on,58,0,0
2,note_on,64,40,0
2,note_on,54,33,0
2,note_on,54,0,240
2,note_on,64,0,0
2,note_on,61,39,0
2,note_on,58,32,0
2,note_on,58,0,240
2,note_on,61,0,0
2,note_on,54,38,0
2,note_on,64,46,0
2,note_on,64,0,240
2,note_on,54,0,0
2,note_on,58,37,0
2,note_on,60,45,0
2,note_on,60,0,240
2,note_on,58,0,0
2,note_on,29,57,0
2,note_on,29,0,126
2,note_on,53,40,0
2,note_on,53,0,240
2,note_on,52,32,0
2,note_on,55,40,0
2,note_on,55,0,114
2,note_on,52,0,0
2,note_on,51,32,0
2,note_on,57,42,0
2,note_on,57,0,240
2,note_on,51,0,0
2,note_on,50,36,0
2,note_on,58,45,0
2,note_on,58,0,137
2,note_on,50,0,0
2,note_on,48,39,0
2,note_on,48,0,240
2,note_on,41,53,0
2,note_on,41,0,126
2,note_on,53,42,0
2,note_on,53,0,240
2,note_on,52,34,0
2,note_on,55,43,0
2,note_on,55,0,91
2,note_on,52,0,0
2,note_on,51,35,0
2,note_on,57,45,0
2,note_on,57,0,240
2,note_on,51,0,0
2,note_on,50,38,0
2,note_on,58,48,0
2,note_on,58,0,125
2,note_on,50,0,0
2,note_on,53,42,0
2,note_on,53,0,240
2,note_on,41,56,0
2,note_on,41,0,126
2,note_on,55,45,0
2,note_on,55,0,240
2,note_on,54,36,0
2,note_on,57,46,0
2,note_on,57,0,126
2,note_on,54,0,0
2,note_on,53,37,0
2,note_on,59,47,0
2,note_on,59,0,240
2,note_on,53,0,0
2,note_on,51,40,0
2,note_on,60,51,0
2,note_on,60,0,137
2,note_on,51,0,0
2,note_on,50,44,0
2,note_on,50,0,240
2,note_on,41,66,0
2,note_on,41,0,126
2,note_on,55,52,0
2,note_on,55,0,240
2,note_on,54,43,0
2,note_on,57,53,0
2,note_on,57,0,126
2,note_on,54,0,0
2,note_on,53,43,0
2,note_on,59,56,0
2,note_on,59,0,240
2,note_on,53,0,0
2,note_on,51,48,0
2,note_on,60,61,0
2,note_on,60,0,137
2,note_on,51,0,0
2,note_on,55,53,0
2,note_on,55,0,240
2,note_on,41,72,0
2,note_on,41,0,80
2,note_on,57,57,0
2,note_on,57,0,240
2,note_on,56,46,0
2,note_on,59,59,0
2,note_on,59,0,126
2,note_on,56,0,0
2,note_on,55,47,0
2,note_on,61,62,0
2,note_on,61,0,240
2,note_on,55,0,0
2,note_on,53,53,0
2,note_on,62,67,0
2,note_on,62,0,125
2,note_on,53,0,0
2,note_on,57,59,0
2,note_on,57,0,240
2,note_on,41,79,0
2,note_on,41,0,91
2,note_on,58,63,0
2,note_on,58,0,240
2,note_on,57,52,0
2,note_on,60,65,0
2,note_on,60,0,126
2,note_on,57,0,0
2,note_on,56,52,0
2,note_on,62,67,0
2,note_on,62,0,240
2,note_on,56,0,0
2,note_on,55,57,0
2,note_on,63,73,0
2,note_on,63,0,125
2,note_on,55,0,0
2,note_on,54,64,0
2,note_on,54,0,240
2,note_on,29,85,0
2,note_on,41,101,0
2,note_on,41,0,125
2,note_on,29,0,0
2,note_on,65,67,0
2,note_on,65,0,240
2,note_on,70,62,0
2,note_on,66,62,0
2,note_on,75,73,0
2,note_on,75,0,114
2,note_on,66,0,0
2,note_on,70,0,0
2,note_on,65,67,0
2,note_on,65,0,240
2,note_on,66,61,0
2,note_on,70,61,0
2,note_on,75,72,0
2,note_on,75,0,240
2,note_on,70,0,0
2,note_on,66,0,0
2,note_on,65,69,0
2,note_on,65,0,240
2,note_on,70,66,0
2,note_on,66,66,0
2,note_on,75,77,0
2,note_on,75,0,240
2,note_on,66,0,0
2,note_on,70,0,0
2,note_on,65,70,0
2,note_on,65,0,240
2,note_on,66,63,0
2,note_on,70,63,0
2,note_on,75,75,0
2,note_on,75,0,240
2,note_on,70,0,0
2,note_on,66,0,0
2,note_on,65,71,0
2,note_on,65,0,240
2,note_on,70,68,0
2,note_on,66,68,0
2,note_on,75,80,0
2,note_on,75,0,240
2,note_on,66,0,0
2,note_on,70,0,0
2,note_on,65,73,0
2,note_on,65,0,240
2,note_on,69,55,0
2,note_on,66,55,0
2,note_on,75,69,0
2,note_on,75,0,114
2,note_on,66,0,0
2,note_on,69,0,0
2,note_on,74,63,0
2,note_on,65,50,0
2,note_on,65,0,240
2,note_on,74,0,0
2,note_on,64,49,0
2,note_on,67,62,0
2,note_on,67,0,149
2,note_on,64,0,0
2,note_on,63,41,0
2,note_on,69,55,0
2,note_on,69,0,240
2,note_on,63,0,0
2,note_on,62,46,0
2,note_on,70,59,0
2,note_on,70,0,155
2,note_on,62,0,0
2,note_on,61,40,0
2,note_on,65,53,0
2,note_on,65,0,240
2,note_on,61,0,0
2,note_on,60,43,0
2,note_on,68,56,0
2,note_on,68,0,91
2,note_on,60,0,0
2,note_on,58,40,0
2,note_on,66,53,0
2,note_on,66,0,240
2,note_on,58,0,0
2,note_on,57,40,0
2,note_on,60,52,0
2,note_on,60,0,103
2,note_on,57,0,0
2,note_on,56,38,0
2,note_on,62,50,0
2,note_on,62,0,240
2,note_on,56,0,0
2,note_on,55,41,0
2,note_on,63,54,0
2,note_on,63,0,137
2,note_on,55,0,0
2,note_on,54,38,0
2,note_on,58,47,0
2,note_on,58,0,240
2,note_on,54,0,0
2,note_on,53,43,0
2,note_on,61,54,0
2,note_on,61,0,125
2,note_on,53,0,0
2,note_on,52,32,0
2,note_on,60,50,0
2,note_on,60,0,240
2,note_on,52,0,0
2,note_on,51,36,0
2,note_on,55,49,0
2,note_on,55,0,126
2,note_on,51,0,0
2,note_on,50,36,0
2,note_on,56,45,0
2,note_on,56,0,240
2,note_on,50,0,0
2,note_on,49,36,0
2,note_on,57,48,0
2,note_on,57,0,137
2,note_on,49,0,0
2,note_on,48,36,0
2,note_on,51,45,0
2,note_on,51,0,240
2,note_on,48,0,0
2,note_on,46,37,0
2,note_on,54,49,0
2,note_on,54,0,137
2,note_on,46,0,0
2,note_on,45,36,0
2,note_on,53,45,0
2,note_on,53,0,240
2,note_on,45,0,0
2,note_on,44,37,0
2,note_on,48,48,0
2,note_on,48,0,114
2,note_on,44,0,0
2,note_on,43,32,0
2,note_on,50,40,0
2,note_on,50,0,240
2,note_on,43,0,0
2,note_on,42,37,0
2,note_on,51,45,0
2,note_on,51,0,57
2,note_on,42,0,0
2,note_on,41,35,0
2,note_on,41,0,240
2,note_on,34,50,0
2,note_on,34,0,125
2,note_on,52,43,0
2,note_on,52,0,240
2,note_on,53,47,0
2,note_on,53,0,223
2,note_on,58,43,0
2,note_on,58,0,240
2,note_on,57,43,0
2,note_on,57,0,240
2,note_on,55,43,0
2,note_on,55,0,240
2,note_on,41,55,0
2,note_on,41,0,160
2,note_on,54,35,0
2,note_on,63,44,0
2,note_on,63,0,240
2,note_on,54,0,0
2,note_on,53,34,0
2,note_on,57,43,0
2,note_on,57,0,126
2,note_on,53,0,0
2,note_on,52,31,0
2,note_on,58,39,0
2,note_on,58,0,240
2,note_on,52,0,0
2,note_on,51,32,0
2,note_on,60,40,0
2,note_on,60,0,148
2,note_on,51,0,0
2,note_on,54,37,0
2,note_on,54,0,240
2,note_on,46,50,0
2,note_on,46,0,114
2,note_on,52,43,0
2,note_on,52,0,228
2,note_on,53,46,0
2,note_on,53,0,240
2,note_on,58,39,0
2,note_on,58,0,240
2,note_on,57,43,0
2,note_on,57,0,240
2,note_on,55,37,0
2,note_on,55,0,240
2,note_on,41,54,0
2,note_on,41,0,160
2,note_on,54,35,0
2,note_on,63,44,0
2,note_on,63,0,240
2,note_on,54,0,0
2,note_on,53,34,0
2,note_on,57,43,0
2,note_on,57,0,103
2,note_on,53,0,0
2,note_on,52,31,0
2,note_on,58,39,0
2,note_on,58,0,240
2,note_on,52,0,0
2,note_on,51,32,0
2,note_on,60,40,0
2,note_on,60,0,114
2,note_on,51,0,0
2,note_on,54,37,0
2,note_on,54,0,240
2,note_on,34,50,0
2,note_on,34,0,114
2,note_on,40,43,0
2,note_on,40,0,225
2,note_on,41,46,0
2,note_on,41,0,240
2,note_on,46,39,0
2,note_on,46,0,240
2,note_on,45,43,0
2,note_on,45,0,240
2,note_on,43,37,0
2,note_on,43,0,240
2,note_on,31,47,0
2,note_on,31,0,833
2,note_on,33,44,0
2,note_on,33,0,466
2,note_on,34,50,0
2,note_on,34,0,114
2,note_on,40,43,0
2,note_on,40,0,214
2,note_on,41,46,0
2,note_on,41,0,240
2,note_on,46,39,0
2,note_on,46,0,240
2,note_on,45,43,0
2,note_on,45,0,240
2,note_on,43,37,0
2,note_on,43,0,240
2,note_on,31,47,0
2,note_on,31,0,776
2,note_on,33,44,0
2,note_on,33,0,466
2,note_on,34,50,0
2,note_on,34,0,114
2,note_on,40,43,0
2,note_on,40,0,214
2,note_on,41,46,0
2,note_on,41,0,240
2,note_on,46,39,0
2,note_on,46,0,240
2,note_on,45,43,0
2,note_on,45,0,240
2,note_on,43,37,0
2,note_on,43,0,240
2,note_on,34,50,0
2,note_on,34,0,114
2,note_on,40,43,0
2,note_on,40,0,225
2,note_on,41,50,0
2,note_on,41,0,240
2,note_on,46,43,0
2,note_on,46,0,240
2,note_on,45,51,0
2,note_on,45,0,240
2,note_on,43,48,0
2,note_on,43,0,240
2,note_on,34,50,0
2,note_on,34,0,114
2,note_on,40,43,0
2,note_on,40,0,220
2,note_on,41,50,0
2,note_on,48,43,229
2,note_on,41,0,11
2,note_on,48,0,229
2,note_on,45,51,11
2,note_on,45,0,240
2,note_on,46,48,0
2,note_on,46,0,240
2,note_on,51,56,0
2,note_on,51,0,160
2,note_on,49,53,0
2,note_on,49,0,230
2,note_on,50,61,0
2,note_on,50,0,240
2,note_on,55,55,0
2,note_on,55,0,240
2,note_on,52,62,0
2,note_on,52,0,240
2,note_on,53,58,0
2,note_on,53,0,240
2,note_on,62,69,0
2,note_on,62,0,373
2,note_on,41,53,933
2,note_on,29,45,0
2,note_on,29,0,1253
2,note_on,41,0,0
2,note_on,34,46,0
2,note_on,46,55,0
2,note_on,46,0,1040
2,note_on,34,0,0
