Track,Message Type,Note,Velocity,Time
1,note_on,70,57,122400
1,note_on,70,0,480
1,note_on,65,49,0
1,note_on,65,0,480
1,note_on,66,52,0
1,note_on,66,0,480
1,note_on,75,57,0
1,note_on,75,0,960
1,note_on,73,52,0
1,note_on,73,0,480
1,note_on,73,52,0
1,note_on,73,0,480
1,note_on,66,44,0
1,note_on,66,0,480
1,note_on,68,45,0
1,note_on,68,0,480
1,note_on,70,52,0
1,note_on,70,0,3360
1,note_on,73,53,3840
1,note_on,73,0,480
1,note_on,69,49,0
1,note_on,69,0,480
1,note_on,70,54,0
1,note_on,70,0,480
1,note_on,78,58,0
1,note_on,78,0,960
1,note_on,77,52,0
1,note_on,77,0,480
1,note_on,77,52,0
1,note_on,77,0,480
1,note_on,70,52,0
1,note_on,70,0,480
1,note_on,72,53,0
1,note_on,72,0,480
1,note_on,75,57,0
1,note_on,75,0,480
1,note_on,73,57,0
1,note_on,73,0,2880
1,note_on,70,60,3840
1,note_on,70,0,480
1,note_on,65,53,0
1,note_on,65,0,480
1,note_on,66,57,0
1,note_on,66,0,480
1,note_on,75,59,0
1,note_on,75,0,960
1,note_on,73,57,0
1,note_on,73,0,480
1,note_on,73,57,0
1,note_on,73,0,480
1,note_on,66,53,0
1,note_on,66,0,480
1,note_on,68,52,0
1,note_on,68,0,480
1,note_on,70,57,0
1,note_on,70,0,3360
1,note_on,70,62,3840
1,note_on,70,0,480
1,note_on,69,54,0
1,note_on,69,0,480
1,note_on,70,59,0
1,note_on,70,0,480
1,note_on,71,62,0
1,note_on,71,0,960
1,note_on,72,60,0
1,note_on,72,0,480
1,note_on,74,63,0
1,note_on,74,0,480
1,note_on,70,60,0
1,note_on,70,0,480
1,note_on,79,60,0
1,note_on,79,0,480
1,note_on,77,61,0
1,note_on,77,0,1320
1,note_on,70,52,0
1,note_on,70,0,60
1,note_on,72,46,0
1,note_on,72,0,60
1,note_on,70,63,0
1,note_on,70,0,480
1,note_on,69,57,0
1,note_on,69,0,480
1,note_on,70,61,0
1,note_on,70,0,480
1,note_on,71,62,0
1,note_on,71,0,960
1,note_on,72,63,0
1,note_on,72,0,480
1,note_on,73,66,0
1,note_on,73,0,480
1,note_on,70,63,0
1,note_on,70,0,480
1,note_on,78,63,0
1,note_on,78,0,480
1,note_on,77,65,0
1,note_on,77,0,480
1,note_on,75,63,0
1,note_on,75,0,480
1,note_on,73,63,0
1,note_on,73,0,480
1,note_on,71,62,0
1,note_on,71,0,5760
1,note_on,70,54,0
1,note_on,70,0,480
1,note_on,65,49,0
1,note_on,65,0,480
1,note_on,66,52,0
1,note_on,66,0,480
1,note_on,75,57,0
1,note_on,75,0,960
1,note_on,73,52,0
1,note_on,73,0,480
1,note_on,73,52,0
1,note_on,73,0,480
1,note_on,66,45,0
1,note_on,66,0,480
1,note_on,68,46,0
1,note_on,68,0,480
1,note_on,70,52,0
1,note_on,70,0,3360
1,note_on,71,53,3840
1,note_on,71,0,480
1,note_on,67,49,0
1,note_on,67,0,480
1,note_on,68,54,0
1,note_on,68,0,480
1,note_on,76,58,0
1,note_on,76,0,960
1,note_on,75,54,0
1,note_on,75,0,480
1,note_on,75,54,0
1,note_on,75,0,480
1,note_on,68,49,0
1,note_on,68,0,480
1,note_on,70,51,0
1,note_on,70,0,480
1,note_on,73,53,0
1,note_on,73,0,480
1,note_on,71,51,0
1,note_on,71,0,2880
1,note_on,68,39,4320
1,note_on,68,0,480
1,note_on,70,39,0
1,note_on,70,0,480
1,note_on,66,46,0
1,note_on,66,0,960
1,note_on,63,39,0
1,note_on,63,0,480
1,note_on,68,39,480
1,note_on,68,0,480
1,note_on,70,39,0
1,note_on,70,0,480
1,note_on,66,46,0
1,note_on,66,0,960
1,note_on,63,43,0
1,note_on,63,0,480
1,note_on,68,44,480
1,note_on,68,0,480
1,note_on,70,45,0
1,note_on,70,0,480
1,note_on,71,47,0
1,note_on,71,0,480
1,note_on,72,48,0
1,note_on,72,0,480
1,note_on,73,52,0
1,note_on,73,0,480
1,note_on,74,56,0
1,note_on,74,0,480
1,note_on,75,52,0
1,note_on,75,0,480
1,note_on,65,35,0
1,note_on,65,0,480
1,note_on,66,36,0
1,note_on,66,0,480
1,note_on,70,57,24000
1,note_on,70,0,480
1,note_on,65,49,0
1,note_on,65,0,480
1,note_on,66,52,0
1,note_on,66,0,480
1,note_on,75,56,0
1,note_on,75,0,960
1,note_on,73,52,0
1,note_on,73,0,480
1,note_on,73,52,0
1,note_on,73,0,480
1,note_on,66,44,0
1,note_on,66,0,480
1,note_on,68,45,0
1,note_on,68,0,480
1,note_on,70,52,0
1,note_on,70,0,3360
1,note_on,71,53,3840
1,note_on,71,0,480
1,note_on,67,50,0
1,note_on,67,0,480
1,note_on,68,57,0
1,note_on,68,0,480
1,note_on,76,58,0
1,note_on,76,0,960
1,note_on,75,54,0
1,note_on,75,0,480
1,note_on,75,54,0
1,note_on,75,0,480
1,note_on,68,49,0
1,note_on,68,0,480
1,note_on,70,52,0
1,note_on,70,0,480
1,note_on,73,58,0
1,note_on,73,0,480
1,note_on,71,54,0
1,note_on,71,0,2880
1,note_on,68,39,4320
1,note_on,68,0,480
1,note_on,70,39,0
1,note_on,70,0,480
1,note_on,66,46,0
1,note_on,66,0,960
1,note_on,63,39,0
1,note_on,63,0,480
1,note_on,68,39,480
1,note_on,68,0,480
1,note_on,70,39,0
1,note_on,70,0,480
1,note_on,66,46,0
1,note_on,66,0,960
1,note_on,63,43,0
1,note_on,63,0,480
1,note_on,68,44,480
1,note_on,68,0,480
1,note_on,70,45,0
1,note_on,70,0,480
1,note_on,71,47,0
1,note_on,71,0,480
1,note_on,72,48,0
1,note_on,72,0,480
1,note_on,73,52,0
1,note_on,73,0,480
1,note_on,74,52,0
1,note_on,74,0,480
1,note_on,75,51,0
1,note_on,75,0,480
1,note_on,65,35,0
1,note_on,65,0,480
1,note_on,66,36,0
1,note_on,66,0,480
1,note_on,70,54,24000
1,note_on,70,0,480
1,note_on,65,49,0
1,note_on,65,0,480
1,note_on,66,52,0
1,note_on,66,0,480
1,note_on,75,57,0
1,note_on,75,0,960
1,note_on,73,52,0
1,note_on,73,0,480
1,note_on,73,52,0
1,note_on,73,0,480
1,note_on,66,45,0
1,note_on,66,0,480
1,note_on,68,45,0
1,note_on,68,0,480
1,note_on,70,52,0
1,note_on,70,0,3360
1,note_on,71,54,3840
1,note_on,71,0,480
1,note_on,67,52,0
1,note_on,67,0,480
1,note_on,68,54,0
1,note_on,68,0,480
1,note_on,76,59,0
1,note_on,76,0,960
1,note_on,75,56,0
1,note_on,75,0,480
1,note_on,75,58,0
1,note_on,75,0,480
1,note_on,68,49,0
1,note_on,68,0,480
1,note_on,70,51,0
1,note_on,70,0,480
1,note_on,73,57,0
1,note_on,73,0,480
1,note_on,71,52,0
1,note_on,71,0,2880
1,note_on,68,39,4320
1,note_on,68,0,480
1,note_on,70,39,0
1,note_on,70,0,480
1,note_on,66,46,0
1,note_on,66,0,960
1,note_on,63,39,0
1,note_on,63,0,480
1,note_on,68,39,480
1,note_on,68,0,480
1,note_on,70,39,0
1,note_on,70,0,480
1,note_on,66,46,0
1,note_on,66,0,960
1,note_on,63,43,0
1,note_on,63,0,480
1,note_on,68,44,480
1,note_on,68,0,480
1,note_on,70,45,0
1,note_on,70,0,480
1,note_on,71,47,0
1,note_on,71,0,480
1,note_on,72,51,0
1,note_on,72,0,480
1,note_on,73,57,0
1,note_on,73,0,480
1,note_on,70,51,129600
1,note_on,70,0,480
1,note_on,65,42,0
1,note_on,65,0,480
1,note_on,66,46,0
1,note_on,66,0,480
1,note_on,75,51,0
1,note_on,75,0,960
1,note_on,73,47,0
1,note_on,73,0,480
1,note_on,73,47,0
1,note_on,73,0,480
1,note_on,66,38,0
1,note_on,66,0,480
1,note_on,68,38,0
1,note_on,68,0,480
1,note_on,70,49,0
1,note_on,70,0,3360
2,note_on,58,72,960
2,note_on,58,0,480
2,note_on,51,47,0
2,note_on,63,56,0
2,note_on,63,0,90
2,note_on,51,0,0
2,note_on,51,49,150
2,note_on,63,58,0
2,note_on,63,0,90
2,note_on,51,0,0
2,note_on,51,54,150
2,note_on,63,64,0
2,note_on,63,0,90
2,note_on,51,0,0
2,note_on,51,56,150
2,note_on,63,65,0
2,note_on,63,0,90
2,note_on,51,0,0
2,note_on,51,61,150
2,note_on,63,72,0
2,note_on,63,0,480
2,note_on,51,0,0
2,note_on,65,80,0
2,note_on,59,67,0
2,note_on,63,67,0
2,note_on,53,67,0
2,note_on,53,0,480
2,note_on,65,0,0
2,note_on,59,0,0
2,note_on,63,0,0
2,note_on,65,56,0
2,note_on,71,56,0
2,note_on,75,56,0
2,note_on,77,68,0
2,note_on,77,0,240
2,note_on,65,0,0
2,note_on,71,0,0
2,note_on,75,0,0
2,note_on,63,55,0
2,note_on,75,66,0
2,note_on,75,0,240
2,note_on,63,0,0
2,note_on,65,56,0
2,note_on,70,56,0
2,note_on,74,56,0
2,note_on,77,68,0
2,note_on,77,0,240
2,note_on,65,0,0
2,note_on,70,0,0
2,note_on,74,0,0
2,note_on,66,53,0
2,note_on,78,65,0
2,note_on,78,0,240
2,note_on,66,0,0
2,note_on,54,49,0
2,note_on,66,59,0
2,note_on,66,0,90
2,note_on,54,0,0
2,note_on,54,52,150
2,note_on,66,61,0
2,note_on,66,0,90
2,note_on,54,0,0
2,note_on,54,57,150
2,note_on,66,67,0
2,note_on,66,0,90
2,note_on,54,0,0
2,note_on,54,57,150
2,note_on,66,66,0
2,note_on,66,0,90
2,note_on,54,0,0
2,note_on,54,64,150
2,note_on,66,75,0
2,note_on,66,0,480
2,note_on,54,0,0
2,note_on,56,67,0
2,note_on,62,69,0
2,note_on,66,69,0
2,note_on,68,82,0
2,note_on,68,0,480
2,note_on,56,0,0
2,note_on,62,0,0
2,note_on,66,0,0
2,note_on,80,72,0
2,note_on,74,59,0
2,note_on,78,59,0
2,note_on,68,59,0
2,note_on,68,0,240
2,note_on,80,0,0
2,note_on,74,0,0
2,note_on,78,0,0
2,note_on,66,58,0
2,note_on,78,70,0
2,note_on,78,0,240
2,note_on,66,0,0
2,note_on,80,72,0
2,note_on,73,59,0
2,note_on,77,59,0
2,note_on,68,59,0
2,note_on,68,0,240
2,note_on,80,0,0
2,note_on,73,0,0
2,note_on,77,0,0
2,note_on,69,54,0
2,note_on,81,65,0
2,note_on,81,0,240
2,note_on,69,0,0
2,note_on,57,47,0
2,note_on,69,56,0
2,note_on,69,0,90
2,note_on,57,0,0
2,note_on,57,51,150
2,note_on,69,60,0
2,note_on,69,0,90
2,note_on,57,0,0
2,note_on,57,54,150
2,note_on,69,64,0
2,note_on,69,0,90
2,note_on,57,0,0
2,note_on,57,59,150
2,note_on,69,69,0
2,note_on,69,0,90
2,note_on,57,0,0
2,note_on,57,68,150
2,note_on,69,79,0
2,note_on,69,0,480
2,note_on,57,0,0
2,note_on,58,52,0
2,note_on,70,63,0
2,note_on,68,52,0
2,note_on,56,52,0
2,note_on,65,52,0
2,note_on,65,0,90
2,note_on,68,0,0
2,note_on,58,0,0
2,note_on,70,0,0
2,note_on,56,0,0
2,note_on,58,55,150
2,note_on,65,55,0
2,note_on,68,55,0
2,note_on,56,55,0
2,note_on,70,66,0
2,note_on,70,0,90
2,note_on,68,0,0
2,note_on,58,0,0
2,note_on,65,0,0
2,note_on,56,0,0
2,note_on,58,57,150
2,note_on,65,57,0
2,note_on,68,57,0
2,note_on,56,57,0
2,note_on,70,67,0
2,note_on,70,0,90
2,note_on,68,0,0
2,note_on,58,0,0
2,note_on,65,0,0
2,note_on,56,0,0
2,note_on,56,57,150
2,note_on,65,57,0
2,note_on,68,68,0
2,note_on,58,57,0
2,note_on,70,68,0
2,note_on,70,0,90
2,note_on,68,0,0
2,note_on,56,0,0
2,note_on,65,0,0
2,note_on,58,0,0
2,note_on,56,68,150
2,note_on,70,81,0
2,note_on,68,68,0
2,note_on,58,68,0
2,note_on,62,68,0
2,note_on,62,0,480
2,note_on,68,0,0
2,note_on,56,0,0
2,note_on,70,0,0
2,note_on,58,0,0
2,note_on,70,63,0
2,note_on,63,52,0
2,note_on,66,52,0
2,note_on,58,52,0
2,note_on,58,0,90
2,note_on,70,0,0
2,note_on,63,0,0
2,note_on,66,0,0
2,note_on,58,55,150
2,note_on,63,55,0
2,note_on,66,55,0
2,note_on,70,66,0
2,note_on,70,0,90
2,note_on,58,0,0
2,note_on,63,0,0
2,note_on,66,0,0
2,note_on,63,57,150
2,note_on,66,57,0
2,note_on,70,67,0
2,note_on,70,0,90
2,note_on,66,0,0
2,note_on,63,0,0
2,note_on,63,56,150
2,note_on,66,56,0
2,note_on,70,67,0
2,note_on,70,0,90
2,note_on,66,0,0
2,note_on,63,0,0
2,note_on,63,70,150
2,note_on,66,72,0
2,note_on,70,85,0
2,note_on,70,0,480
2,note_on,66,0,0
2,note_on,63,0,0
2,note_on,58,66,0
2,note_on,63,66,0
2,note_on,70,78,0
2,note_on,70,0,480
2,note_on,63,0,0
2,note_on,58,0,0
2,note_on,56,66,0
2,note_on,63,66,0
2,note_on,68,78,0
2,note_on,68,0,480
2,note_on,63,0,0
2,note_on,56,0,0
2,note_on,54,63,0
2,note_on,57,63,0
2,note_on,63,63,0
2,note_on,66,74,0
2,note_on,66,0,480
2,note_on,54,0,0
2,note_on,57,0,0
2,note_on,63,0,0
2,note_on,58,52,0
2,note_on,61,52,0
2,note_on,65,61,0
2,note_on,65,0,240
2,note_on,61,0,0
2,note_on,58,0,0
2,note_on,61,59,0
2,note_on,61,0,240
2,note_on,66,66,0
2,note_on,73,78,0
2,note_on,73,0,240
2,note_on,66,0,0
2,note_on,66,73,0
2,note_on,66,0,240
2,note_on,70,69,0
2,note_on,78,82,0
2,note_on,78,0,240
2,note_on,70,0,0
2,note_on,70,71,0
2,note_on,70,0,240
2,note_on,73,65,0
2,note_on,82,76,0
2,note_on,82,0,240
2,note_on,73,0,0
2,note_on,73,69,0
2,note_on,73,0,240
2,note_on,78,66,0
2,note_on,85,78,0
2,note_on,85,0,240
2,note_on,78,0,0
2,note_on,78,73,0
2,note_on,78,0,240
2,note_on,82,69,0
2,note_on,90,82,0
2,note_on,90,0,240
2,note_on,82,0,0
2,note_on,82,75,0
2,note_on,82,0,240
2,note_on,85,69,0
2,note_on,82,69,0
2,note_on,94,82,0
2,note_on,94,0,480
2,note_on,82,0,0
2,note_on,85,0,0
2,note_on,85,66,0
2,note_on,80,64,0
2,note_on,92,76,0
2,note_on,92,0,480
2,note_on,80,0,0
2,note_on,85,0,0
2,note_on,85,73,0
2,note_on,80,61,0
2,note_on,73,61,0
2,note_on,73,0,480
2,note_on,80,0,0
2,note_on,85,0,0
2,note_on,73,57,0
2,note_on,80,61,0
2,note_on,85,75,0
2,note_on,80,0,480
2,note_on,73,0,0
2,note_on,90,68,0
2,note_on,78,58,0
2,note_on,78,0,480
2,note_on,90,0,0
2,note_on,85,0,0
2,note_on,73,56,0
2,note_on,68,49,0
2,note_on,61,40,0
2,note_on,61,0,480
2,note_on,68,0,0
2,note_on,73,0,0
2,note_on,61,40,0
2,note_on,68,48,0
2,note_on,73,56,0
2,note_on,68,0,480
2,note_on,61,0,0
2,note_on,78,56,0
2,note_on,66,49,0
2,note_on,66,0,480
2,note_on,78,0,0
2,note_on,73,0,0
2,note_on,73,55,0
2,note_on,68,46,0
2,note_on,61,38,0
2,note_on,61,0,480
2,note_on,68,0,0
2,note_on,73,0,0
2,note_on,61,40,0
2,note_on,68,48,0
2,note_on,73,55,0
2,note_on,68,0,480
2,note_on,61,0,0
2,note_on,78,56,0
2,note_on,66,48,0
2,note_on,66,0,480
2,note_on,78,0,0
2,note_on,73,0,0
2,note_on,61,52,0
2,note_on,73,52,0
2,note_on,73,0,480
2,note_on,61,0,0
2,note_on,61,51,0
2,note_on,73,56,0
2,note_on,73,0,1440
2,note_on,61,0,0
2,note_on,58,46,0
2,note_on,70,53,0
2,note_on,70,0,5760
2,note_on,58,0,0
2,note_on,51,52,1440
2,note_on,63,63,0
2,note_on,63,0,90
2,note_on,51,0,0
2,note_on,51,55,150
2,note_on,63,66,0
2,note_on,63,0,90
2,note_on,51,0,0
2,note_on,51,57,150
2,note_on,63,67,0
2,note_on,63,0,90
2,note_on,51,0,0
2,note_on,51,59,150
2,note_on,63,68,0
2,note_on,63,0,90
2,note_on,51,0,0
2,note_on,51,69,150
2,note_on,63,80,0
2,note_on,63,0,480
2,note_on,51,0,0
2,note_on,65,90,0
2,note_on,59,75,0
2,note_on,63,75,0
2,note_on,53,75,0
2,note_on,53,0,480
2,note_on,65,0,0
2,note_on,59,0,0
2,note_on,63,0,0
2,note_on,77,76,0
2,note_on,71,63,0
2,note_on,75,63,0
2,note_on,65,63,0
2,note_on,65,0,240
2,note_on,77,0,0
2,note_on,71,0,0
2,note_on,75,0,0
2,note_on,63,61,0
2,note_on,75,74,0
2,note_on,75,0,240
2,note_on,63,0,0
2,note_on,77,76,0
2,note_on,70,63,0
2,note_on,74,63,0
2,note_on,65,63,0
2,note_on,65,0,240
2,note_on,77,0,0
2,note_on,70,0,0
2,note_on,74,0,0
2,note_on,66,59,0
2,note_on,78,72,0
2,note_on,78,0,240
2,note_on,66,0,0
2,note_on,54,52,0
2,note_on,66,63,0
2,note_on,66,0,90
2,note_on,54,0,0
2,note_on,54,55,150
2,note_on,66,66,0
2,note_on,66,0,90
2,note_on,54,0,0
2,note_on,54,57,150
2,note_on,66,67,0
2,note_on,66,0,90
2,note_on,54,0,0
2,note_on,54,57,150
2,note_on,66,66,0
2,note_on,66,0,90
2,note_on,54,0,0
2,note_on,54,68,150
2,note_on,66,79,0
2,note_on,66,0,480
2,note_on,54,0,0
2,note_on,56,72,0
2,note_on,62,73,0
2,note_on,66,75,0
2,note_on,68,87,0
2,note_on,68,0,480
2,note_on,56,0,0
2,note_on,62,0,0
2,note_on,66,0,0
2,note_on,80,76,0
2,note_on,74,63,0
2,note_on,78,63,0
2,note_on,68,63,0
2,note_on,68,0,240
2,note_on,80,0,0
2,note_on,74,0,0
2,note_on,78,0,0
2,note_on,66,61,0
2,note_on,78,74,0
2,note_on,78,0,240
2,note_on,66,0,0
2,note_on,80,76,0
2,note_on,73,63,0
2,note_on,77,63,0
2,note_on,68,63,0
2,note_on,68,0,240
2,note_on,80,0,0
2,note_on,73,0,0
2,note_on,77,0,0
2,note_on,69,58,0
2,note_on,81,71,0
2,note_on,81,0,240
2,note_on,69,0,0
2,note_on,57,47,0
2,note_on,69,56,0
2,note_on,69,0,90
2,note_on,57,0,0
2,note_on,57,51,150
2,note_on,69,60,0
2,note_on,69,0,90
2,note_on,57,0,0
2,note_on,57,54,150
2,note_on,69,64,0
2,note_on,69,0,90
2,note_on,57,0,0
2,note_on,57,57,150
2,note_on,69,68,0
2,note_on,69,0,90
2,note_on,57,0,0
2,note_on,57,68,150
2,note_on,69,80,0
2,note_on,69,0,480
2,note_on,57,0,0
2,note_on,71,64,0
2,note_on,65,53,0
2,note_on,69,53,0
2,note_on,59,53,0
2,note_on,59,0,90
2,note_on,71,0,0
2,note_on,65,0,0
2,note_on,69,0,0
2,note_on,59,56,150
2,note_on,65,56,0
2,note_on,69,56,0
2,note_on,71,67,0
2,note_on,71,0,90
2,note_on,59,0,0
2,note_on,65,0,0
2,note_on,69,0,0
2,note_on,71,71,150
2,note_on,65,60,0
2,note_on,69,60,0
2,note_on,59,60,0
2,note_on,59,0,90
2,note_on,71,0,0
2,note_on,65,0,0
2,note_on,69,0,0
2,note_on,71,72,150
2,note_on,65,60,0
2,note_on,69,72,0
2,note_on,59,60,0
2,note_on,59,0,90
2,note_on,71,0,0
2,note_on,65,0,0
2,note_on,69,0,0
2,note_on,59,68,150
2,note_on,65,68,0
2,note_on,69,68,0
2,note_on,71,81,0
2,note_on,71,0,480
2,note_on,59,0,0
2,note_on,65,0,0
2,note_on,69,0,0
2,note_on,72,66,0
2,note_on,63,54,0
2,note_on,69,54,0
2,note_on,60,54,0
2,note_on,60,0,90
2,note_on,72,0,0
2,note_on,63,0,0
2,note_on,69,0,0
2,note_on,72,69,150
2,note_on,63,57,0
2,note_on,69,57,0
2,note_on,60,57,0
2,note_on,60,0,90
2,note_on,72,0,0
2,note_on,63,0,0
2,note_on,69,0,0
2,note_on,60,63,150
2,note_on,63,63,0
2,note_on,72,74,0
2,note_on,72,0,90
2,note_on,63,0,0
2,note_on,60,0,0
2,note_on,60,55,150
2,note_on,63,55,0
2,note_on,72,76,0
2,note_on,72,0,90
2,note_on,63,0,0
2,note_on,60,0,0
2,note_on,66,73,150
2,note_on,60,73,0
2,note_on,63,73,0
2,note_on,72,86,0
2,note_on,72,0,480
2,note_on,66,0,0
2,note_on,60,0,0
2,note_on,63,0,0
2,note_on,76,81,0
2,note_on,66,69,0
2,note_on,69,69,0
2,note_on,64,69,0
2,note_on,64,0,480
2,note_on,76,0,0
2,note_on,66,0,0
2,note_on,69,0,0
2,note_on,62,69,0
2,note_on,67,69,0
2,note_on,74,81,0
2,note_on,74,0,480
2,note_on,67,0,0
2,note_on,62,0,0
2,note_on,50,72,0
2,note_on,62,85,0
2,note_on,62,0,480
2,note_on,50,0,0
2,note_on,61,61,0
2,note_on,61,0,240
2,note_on,61,59,0
2,note_on,61,0,240
2,note_on,66,66,0
2,note_on,73,78,0
2,note_on,73,0,240
2,note_on,66,0,0
2,note_on,66,75,0
2,note_on,66,0,240
2,note_on,69,69,0
2,note_on,78,82,0
2,note_on,78,0,240
2,note_on,69,0,0
2,note_on,69,75,0
2,note_on,69,0,240
2,note_on,73,65,0
2,note_on,81,76,0
2,note_on,81,0,240
2,note_on,73,0,0
2,note_on,73,71,0
2,note_on,73,0,240
2,note_on,78,66,0
2,note_on,85,78,0
2,note_on,85,0,240
2,note_on,78,0,0
2,note_on,78,75,0
2,note_on,78,0,240
2,note_on,81,69,0
2,note_on,90,82,0
2,note_on,90,0,240
2,note_on,81,0,0
2,note_on,81,75,0
2,note_on,81,0,240
2,note_on,85,69,0
2,note_on,81,69,0
2,note_on,93,82,0
2,note_on,93,0,480
2,note_on,81,0,0
2,note_on,85,0,0
2,note_on,85,66,0
2,note_on,80,66,0
2,note_on,92,78,0
2,note_on,92,0,480
2,note_on,80,0,0
2,note_on,85,0,0
2,note_on,85,73,0
2,note_on,80,61,0
2,note_on,73,61,0
2,note_on,73,0,480
2,note_on,80,0,0
2,note_on,85,0,0
2,note_on,73,61,0
2,note_on,80,61,0
2,note_on,85,75,0
2,note_on,80,0,480
2,note_on,73,0,0
2,note_on,90,68,0
2,note_on,78,58,0
2,note_on,78,0,480
2,note_on,90,0,0
2,note_on,85,0,0
2,note_on,73,58,0
2,note_on,68,48,0
2,note_on,61,40,0
2,note_on,61,0,480
2,note_on,68,0,0
2,note_on,73,0,0
2,note_on,61,42,0
2,note_on,68,50,0
2,note_on,73,58,0
2,note_on,68,0,480
2,note_on,61,0,0
2,note_on,78,56,0
2,note_on,66,49,0
2,note_on,66,0,480
2,note_on,78,0,0
2,note_on,73,0,0
2,note_on,73,56,0
2,note_on,68,46,0
2,note_on,61,38,0
2,note_on,61,0,480
2,note_on,68,0,0
2,note_on,73,0,0
2,note_on,61,40,0
2,note_on,68,48,0
2,note_on,73,56,0
2,note_on,68,0,480
2,note_on,61,0,0
2,note_on,78,55,0
2,note_on,66,46,0
2,note_on,66,0,480
2,note_on,78,0,0
2,note_on,73,0,0
2,note_on,61,69,0
2,note_on,73,81,0
2,note_on,73,0,960
2,note_on,61,0,0
2,note_on,62,64,0
2,note_on,74,75,0
2,note_on,74,0,240
2,note_on,62,0,0
2,note_on,61,59,0
2,note_on,73,71,0
2,note_on,73,0,240
2,note_on,61,0,0
2,note_on,56,63,0
2,note_on,68,73,0
2,note_on,68,0,240
2,note_on,56,0,0
2,note_on,57,54,0
2,note_on,69,65,0
2,note_on,69,0,240
2,note_on,57,0,0
2,note_on,54,58,0
2,note_on,66,70,0
2,note_on,66,0,1440
2,note_on,54,0,0
2,note_on,62,84,0
2,note_on,74,84,0
2,note_on,74,0,480
2,note_on,62,0,0
2,note_on,57,48,0
2,note_on,62,48,0
2,note_on,62,0,240
2,note_on,57,0,0
2,note_on,57,49,0
2,note_on,62,49,0
2,note_on,62,0,240
2,note_on,57,0,0
2,note_on,56,50,0
2,note_on,61,50,0
2,note_on,61,0,240
2,note_on,56,0,0
2,note_on,57,51,0
2,note_on,62,51,0
2,note_on,62,0,240
2,note_on,57,0,0
2,note_on,58,52,0
2,note_on,63,52,0
2,note_on,63,0,240
2,note_on,58,0,0
2,note_on,59,53,0
2,note_on,64,53,0
2,note_on,64,0,240
2,note_on,59,0,0
2,note_on,60,54,0
2,note_on,65,54,0
2,note_on,65,0,240
2,note_on,60,0,0
2,note_on,61,55,0
2,note_on,66,55,0
2,note_on,66,0,240
2,note_on,61,0,0
2,note_on,62,57,0
2,note_on,67,57,0
2,note_on,67,0,240
2,note_on,62,0,0
2,note_on,63,59,0
2,note_on,68,59,0
2,note_on,68,0,240
2,note_on,63,0,0
2,note_on,64,59,0
2,note_on,69,59,0
2,note_on,69,0,240
2,note_on,64,0,0
2,note_on,65,60,0
2,note_on,70,60,0
2,note_on,70,0,240
2,note_on,65,0,0
2,note_on,66,64,0
2,note_on,71,64,0
2,note_on,71,0,240
2,note_on,66,0,0
2,note_on,67,65,0
2,note_on,72,65,0
2,note_on,72,0,240
2,note_on,67,0,0
2,note_on,68,66,0
2,note_on,73,66,0
2,note_on,73,0,240
2,note_on,68,0,0
2,note_on,69,67,0
2,note_on,74,67,0
2,note_on,74,0,240
2,note_on,69,0,0
2,note_on,69,68,0
2,note_on,74,68,0
2,note_on,74,0,480
2,note_on,69,0,0
2,note_on,70,73,0
2,note_on,75,73,0
2,note_on,75,0,480
2,note_on,70,0,0
2,note_on,87,80,0
2,note_on,82,80,0
2,note_on,75,80,0
2,note_on,75,0,240
2,note_on,82,0,0
2,note_on,87,0,0
2,note_on,87,91,240
2,note_on,99,79,0
2,note_on,99,0,480
2,note_on,87,0,0
2,note_on,58,48,0
2,note_on,63,48,0
2,note_on,63,0,240
2,note_on,58,0,0
2,note_on,63,49,0
2,note_on,58,49,0
2,note_on,58,0,240
2,note_on,63,0,0
2,note_on,57,50,0
2,note_on,62,50,0
2,note_on,62,0,240
2,note_on,57,0,0
2,note_on,58,51,0
2,note_on,63,51,0
2,note_on,63,0,240
2,note_on,58,0,0
2,note_on,59,52,0
2,note_on,64,52,0
2,note_on,64,0,240
2,note_on,59,0,0
2,note_on,60,53,0
2,note_on,65,53,0
2,note_on,65,0,240
2,note_on,60,0,0
2,note_on,61,54,0
2,note_on,66,54,0
2,note_on,66,0,240
2,note_on,61,0,0
2,note_on,62,55,0
2,note_on,67,55,0
2,note_on,67,0,240
2,note_on,62,0,0
2,note_on,63,57,0
2,note_on,68,57,0
2,note_on,68,0,240
2,note_on,63,0,0
2,note_on,64,59,0
2,note_on,69,59,0
2,note_on,69,0,240
2,note_on,64,0,0
2,note_on,65,59,0
2,note_on,70,59,0
2,note_on,70,0,240
2,note_on,65,0,0
2,note_on,66,60,0
2,note_on,71,60,0
2,note_on,71,0,240
2,note_on,66,0,0
2,note_on,67,64,0
2,note_on,72,64,0
2,note_on,72,0,240
2,note_on,67,0,0
2,note_on,68,65,0
2,note_on,73,65,0
2,note_on,73,0,240
2,note_on,68,0,0
2,note_on,69,66,0
2,note_on,74,66,0
2,note_on,74,0,240
2,note_on,69,0,0
2,note_on,70,67,0
2,note_on,75,67,0
2,note_on,75,0,240
2,note_on,70,0,0
2,note_on,70,68,0
2,note_on,75,68,0
2,note_on,75,0,480
2,note_on,70,0,0
2,note_on,71,73,0
2,note_on,76,73,0
2,note_on,76,0,480
2,note_on,71,0,0
2,note_on,88,80,0
2,note_on,83,80,0
2,note_on,76,80,0
2,note_on,76,0,240
2,note_on,83,0,0
2,note_on,88,0,0
2,note_on,88,91,240
2,note_on,100,85,0
2,note_on,100,0,480
2,note_on,88,0,0
2,note_on,64,58,0
2,note_on,76,70,0
2,note_on,76,0,240
2,note_on,64,0,0
2,note_on,64,58,0
2,note_on,76,70,0
2,note_on,76,0,240
2,note_on,64,0,0
2,note_on,63,53,0
2,note_on,75,64,0
2,note_on,75,0,240
2,note_on,63,0,0
2,note_on,64,53,0
2,note_on,76,64,0
2,note_on,76,0,240
2,note_on,64,0,0
2,note_on,65,58,0
2,note_on,77,70,0
2,note_on,77,0,240
2,note_on,65,0,0
2,note_on,66,53,0
2,note_on,78,64,0
2,note_on,78,0,240
2,note_on,66,0,0
2,note_on,67,58,0
2,note_on,79,70,0
2,note_on,79,0,120
2,note_on,67,0,0
2,note_on,67,54,120
2,note_on,79,65,0
2,note_on,79,0,120
2,note_on,67,0,0
2,note_on,67,54,120
2,note_on,79,65,0
2,note_on,79,0,120
2,note_on,67,0,0
2,note_on,67,54,120
2,note_on,79,65,0
2,note_on,79,0,120
2,note_on,67,0,0
2,note_on,67,58,120
2,note_on,79,70,0
2,note_on,79,0,240
2,note_on,67,0,0
2,note_on,66,54,0
2,note_on,78,65,0
2,note_on,78,0,240
2,note_on,66,0,0
2,note_on,66,58,0
2,note_on,78,70,0
2,note_on,78,0,120
2,note_on,66,0,0
2,note_on,66,54,120
2,note_on,78,65,0
2,note_on,78,0,120
2,note_on,66,0,0
2,note_on,65,54,120
2,note_on,77,65,0
2,note_on,77,0,120
2,note_on,65,0,0
2,note_on,66,54,120
2,note_on,78,65,0
2,note_on,78,0,120
2,note_on,66,0,0
2,note_on,67,58,120
2,note_on,79,70,0
2,note_on,79,0,240
2,note_on,67,0,0
2,note_on,68,53,0
2,note_on,80,63,0
2,note_on,80,0,240
2,note_on,68,0,0
2,note_on,69,54,0
2,note_on,81,65,0
2,note_on,81,0,120
2,note_on,69,0,0
2,note_on,69,56,120
2,note_on,81,67,0
2,note_on,81,0,120
2,note_on,69,0,0
2,note_on,69,58,120
2,note_on,81,70,0
2,note_on,81,0,120
2,note_on,69,0,0
2,note_on,69,60,120
2,note_on,81,72,0
2,note_on,81,0,120
2,note_on,69,0,0
2,note_on,69,66,120
2,note_on,81,78,0
2,note_on,81,0,240
2,note_on,69,0,0
2,note_on,68,60,0
2,note_on,80,72,0
2,note_on,80,0,240
2,note_on,68,0,0
2,note_on,68,63,0
2,note_on,80,74,0
2,note_on,80,0,120
2,note_on,68,0,0
2,note_on,68,65,120
2,note_on,80,76,0
2,note_on,80,0,120
2,note_on,68,0,0
2,note_on,67,65,120
2,note_on,79,77,0
2,note_on,79,0,120
2,note_on,67,0,0
2,note_on,68,68,120
2,note_on,80,80,0
2,note_on,80,0,120
2,note_on,68,0,0
2,note_on,68,77,120
2,note_on,73,77,0
2,note_on,80,91,0
2,note_on,80,0,420
2,note_on,73,0,0
2,note_on,68,0,0
2,note_on,70,55,0
2,note_on,82,63,0
2,note_on,82,0,60
2,note_on,70,0,0
2,note_on,68,73,0
2,note_on,73,73,0
2,note_on,80,86,0
2,note_on,80,0,240
2,note_on,73,0,0
2,note_on,68,0,0
2,note_on,67,66,0
2,note_on,79,79,0
2,note_on,79,0,240
2,note_on,67,0,0
2,note_on,68,73,0
2,note_on,73,73,0
2,note_on,80,88,0
2,note_on,80,0,240
2,note_on,73,0,0
2,note_on,68,0,0
2,note_on,70,69,0
2,note_on,82,82,0
2,note_on,82,0,240
2,note_on,70,0,0
2,note_on,73,76,0
2,note_on,68,76,0
2,note_on,80,90,0
2,note_on,80,0,480
2,note_on,68,0,0
2,note_on,73,0,0
2,note_on,92,95,0
2,note_on,80,79,0
2,note_on,80,0,240
2,note_on,92,0,0
2,note_on,66,73,240
2,note_on,73,73,0
2,note_on,78,88,0
2,note_on,78,0,480
2,note_on,73,0,0
2,note_on,66,0,0
2,note_on,66,65,0
2,note_on,71,65,0
2,note_on,78,77,0
2,note_on,78,0,420
2,note_on,71,0,0
2,note_on,66,0,0
2,note_on,68,61,0
2,note_on,80,61,0
2,note_on,80,0,60
2,note_on,68,0,0
2,note_on,66,70,0
2,note_on,71,70,0
2,note_on,78,82,0
2,note_on,78,0,240
2,note_on,71,0,0
2,note_on,66,0,0
2,note_on,65,67,0
2,note_on,77,79,0
2,note_on,77,0,240
2,note_on,65,0,0
2,note_on,66,70,0
2,note_on,71,70,0
2,note_on,78,84,0
2,note_on,78,0,240
2,note_on,71,0,0
2,note_on,66,0,0
2,note_on,68,67,0
2,note_on,80,79,0
2,note_on,80,0,240
2,note_on,68,0,0
2,note_on,71,76,0
2,note_on,66,76,0
2,note_on,78,90,0
2,note_on,78,0,480
2,note_on,66,0,0
2,note_on,71,0,0
2,note_on,90,92,0
2,note_on,78,79,0
2,note_on,78,0,240
2,note_on,90,0,0
2,note_on,64,73,240
2,note_on,71,73,0
2,note_on,76,88,0
2,note_on,76,0,480
2,note_on,71,0,0
2,note_on,64,0,0
2,note_on,64,77,0
2,note_on,69,77,0
2,note_on,76,91,0
2,note_on,76,0,420
2,note_on,69,0,0
2,note_on,64,0,0
2,note_on,66,55,0
2,note_on,78,63,0
2,note_on,78,0,60
2,note_on,66,0,0
2,note_on,64,77,0
2,note_on,69,77,0
2,note_on,76,91,0
2,note_on,76,0,240
2,note_on,69,0,0
2,note_on,64,0,0
2,note_on,63,69,0
2,note_on,75,82,0
2,note_on,75,0,240
2,note_on,63,0,0
2,note_on,64,73,0
2,note_on,69,73,0
2,note_on,76,88,0
2,note_on,76,0,240
2,note_on,69,0,0
2,note_on,64,0,0
2,note_on,66,69,0
2,note_on,78,82,0
2,note_on,78,0,240
2,note_on,66,0,0
2,note_on,63,76,0
2,note_on,69,76,0
2,note_on,75,90,0
2,note_on,75,0,240
2,note_on,69,0,0
2,note_on,63,0,0
2,note_on,63,74,0
2,note_on,63,0,240
2,note_on,66,71,0
2,note_on,75,84,0
2,note_on,75,0,240
2,note_on,66,0,0
2,note_on,75,81,0
2,note_on,75,0,240
2,note_on,87,89,0
2,note_on,78,74,0
2,note_on,78,0,240
2,note_on,87,0,0
2,note_on,87,88,0
2,note_on,87,0,240
2,note_on,99,93,0
2,note_on,90,77,0
2,note_on,90,0,480
2,note_on,99,0,0
2,note_on,63,70,0
2,note_on,69,82,0
2,note_on,66,70,0
2,note_on,66,0,240
2,note_on,69,0,0
2,note_on,63,0,0
2,note_on,66,67,240
2,note_on,69,67,0
2,note_on,78,79,0
2,note_on,78,0,240
2,note_on,69,0,0
2,note_on,66,0,0
2,note_on,65,70,240
2,note_on,70,70,0
2,note_on,77,82,0
2,note_on,77,0,240
2,note_on,70,0,0
2,note_on,65,0,0
2,note_on,58,52,240
2,note_on,65,52,0
2,note_on,70,61,0
2,note_on,70,0,240
2,note_on,65,0,0
2,note_on,58,0,0
2,note_on,75,66,240
2,note_on,66,56,0
2,note_on,72,66,0
2,note_on,63,56,0
2,note_on,63,0,240
2,note_on,75,0,0
2,note_on,66,0,0
2,note_on,72,0,0
2,note_on,61,57,240
2,note_on,65,57,0
2,note_on,70,68,0
2,note_on,73,68,0
2,note_on,73,0,240
2,note_on,61,0,0
2,note_on,65,0,0
2,note_on,70,0,0
2,note_on,61,50,240
2,note_on,65,60,0
2,note_on,65,0,240
2,note_on,61,0,0
2,note_on,63,49,240
2,note_on,65,49,0
2,note_on,69,58,0
2,note_on,72,58,0
2,note_on,72,0,240
2,note_on,63,0,0
2,note_on,65,0,0
2,note_on,69,0,0
2,note_on,61,46,240
2,note_on,65,46,0
2,note_on,70,55,0
2,note_on,70,0,240
2,note_on,65,0,0
2,note_on,61,0,0
2,note_on,53,38,240
2,note_on,58,48,0
2,note_on,58,0,240
2,note_on,53,0,0
2,note_on,63,50,240
2,note_on,58,40,0
2,note_on,54,40,0
2,note_on,54,0,240
2,note_on,58,0,0
2,note_on,63,0,0
2,note_on,53,43,240
2,note_on,58,43,0
2,note_on,61,51,0
2,note_on,61,0,240
2,note_on,58,0,0
2,note_on,53,0,0
2,note_on,53,45,240
2,note_on,53,0,240
2,note_on,60,45,240
2,note_on,57,37,0
2,note_on,51,37,0
2,note_on,51,0,240
2,note_on,57,0,0
2,note_on,60,0,0
2,note_on,58,46,240
2,note_on,70,46,0
2,note_on,70,0,1920
2,note_on,58,0,0
2,note_on,70,46,0
2,note_on,82,46,0
2,note_on,82,0,480
2,note_on,70,0,0
2,note_on,94,46,0
2,note_on,82,46,0
2,note_on,82,0,480
2,note_on,94,0,0
2,note_on,70,46,0
2,note_on,58,46,0
2,note_on,58,0,1920
2,note_on,70,0,0
2,note_on,70,53,0
2,note_on,82,53,0
2,note_on,82,0,480
2,note_on,70,0,0
2,note_on,94,59,0
2,note_on,82,59,0
2,note_on,82,0,480
2,note_on,94,0,0
2,note_on,51,52,0
2,note_on,63,63,0
2,note_on,63,0,90
2,note_on,51,0,0
2,note_on,51,55,150
2,note_on,63,66,0
2,note_on,63,0,90
2,note_on,51,0,0
2,note_on,63,67,150
2,note_on,51,57,0
2,note_on,51,0,90
2,note_on,63,0,0
2,note_on,63,68,150
2,note_on,51,59,0
2,note_on,51,0,90
2,note_on,63,0,0
2,note_on,63,79,150
2,note_on,51,66,0
2,note_on,51,0,480
2,note_on,63,0,0
2,note_on,53,73,0
2,note_on,63,75,0
2,note_on,59,71,0
2,note_on,65,88,0
2,note_on,65,0,480
2,note_on,53,0,0
2,note_on,63,0,0
2,note_on,59,0,0
2,note_on,71,63,0
2,note_on,77,76,0
2,note_on,75,63,0
2,note_on,65,63,0
2,note_on,65,0,240
2,note_on,71,0,0
2,note_on,77,0,0
2,note_on,75,0,0
2,note_on,63,61,0
2,note_on,75,74,0
2,note_on,75,0,240
2,note_on,63,0,0
2,note_on,65,63,0
2,note_on,74,63,0
2,note_on,77,76,0
2,note_on,70,63,0
2,note_on,70,0,240
2,note_on,65,0,0
2,note_on,74,0,0
2,note_on,77,0,0
2,note_on,78,72,0
2,note_on,66,59,0
2,note_on,66,0,240
2,note_on,78,0,0
2,note_on,66,63,0
2,note_on,54,52,0
2,note_on,54,0,90
2,note_on,66,0,0
2,note_on,54,55,150
2,note_on,66,66,0
2,note_on,66,0,90
2,note_on,54,0,0
2,note_on,54,57,150
2,note_on,66,67,0
2,note_on,66,0,90
2,note_on,54,0,0
2,note_on,66,66,150
2,note_on,54,57,0
2,note_on,54,0,90
2,note_on,66,0,0
2,note_on,66,79,150
2,note_on,54,68,0
2,note_on,54,0,480
2,note_on,66,0,0
2,note_on,56,72,0
2,note_on,62,73,0
2,note_on,66,75,0
2,note_on,68,87,0
2,note_on,68,0,480
2,note_on,56,0,0
2,note_on,62,0,0
2,note_on,66,0,0
2,note_on,68,63,0
2,note_on,78,63,0
2,note_on,80,76,0
2,note_on,74,63,0
2,note_on,74,0,240
2,note_on,68,0,0
2,note_on,78,0,0
2,note_on,80,0,0
2,note_on,66,61,0
2,note_on,78,74,0
2,note_on,78,0,240
2,note_on,66,0,0
2,note_on,68,63,0
2,note_on,77,63,0
2,note_on,80,76,0
2,note_on,73,63,0
2,note_on,73,0,240
2,note_on,68,0,0
2,note_on,77,0,0
2,note_on,80,0,0
2,note_on,81,72,0
2,note_on,69,59,0
2,note_on,69,0,240
2,note_on,81,0,0
2,note_on,69,56,0
2,note_on,57,47,0
2,note_on,57,0,90
2,note_on,69,0,0
2,note_on,57,51,150
2,note_on,69,60,0
2,note_on,69,0,90
2,note_on,57,0,0
2,note_on,57,54,150
2,note_on,69,64,0
2,note_on,69,0,90
2,note_on,57,0,0
2,note_on,57,57,150
2,note_on,69,68,0
2,note_on,69,0,90
2,note_on,57,0,0
2,note_on,69,82,150
2,note_on,57,70,0
2,note_on,57,0,480
2,note_on,69,0,0
2,note_on,70,63,0
2,note_on,58,52,0
2,note_on,68,52,0
2,note_on,56,52,0
2,note_on,65,52,0
2,note_on,65,0,90
2,note_on,68,0,0
2,note_on,70,0,0
2,note_on,58,0,0
2,note_on,56,0,0
2,note_on,65,55,150
2,note_on,70,66,0
2,note_on,68,55,0
2,note_on,56,55,0
2,note_on,58,55,0
2,note_on,58,0,90
2,note_on,68,0,0
2,note_on,65,0,0
2,note_on,70,0,0
2,note_on,56,0,0
2,note_on,56,60,150
2,note_on,68,60,0
2,note_on,58,60,0
2,note_on,70,71,0
2,note_on,65,60,0
2,note_on,65,0,90
2,note_on,58,0,0
2,note_on,56,0,0
2,note_on,68,0,0
2,note_on,70,0,0
2,note_on,56,61,150
2,note_on,65,61,0
2,note_on,68,73,0
2,note_on,70,73,0
2,note_on,58,61,0
2,note_on,58,0,90
2,note_on,68,0,0
2,note_on,56,0,0
2,note_on,65,0,0
2,note_on,70,0,0
2,note_on,56,68,150
2,note_on,58,68,0
2,note_on,62,68,0
2,note_on,68,68,0
2,note_on,70,81,0
2,note_on,70,0,480
2,note_on,62,0,0
2,note_on,56,0,0
2,note_on,58,0,0
2,note_on,68,0,0
2,note_on,66,53,0
2,note_on,63,53,0
2,note_on,70,64,0
2,note_on,58,53,0
2,note_on,58,0,90
2,note_on,66,0,0
2,note_on,63,0,0
2,note_on,70,0,0
2,note_on,66,56,150
2,note_on,58,56,0
2,note_on,70,68,0
2,note_on,63,56,0
2,note_on,63,0,90
2,note_on,66,0,0
2,note_on,58,0,0
2,note_on,70,0,0
2,note_on,66,61,150
2,note_on,70,73,0
2,note_on,63,61,0
2,note_on,63,0,90
2,note_on,70,0,0
2,note_on,66,0,0
2,note_on,66,64,150
2,note_on,63,64,0
2,note_on,70,75,0
2,note_on,70,0,90
2,note_on,63,0,0
2,note_on,66,0,0
2,note_on,66,72,150
2,note_on,70,84,0
2,note_on,63,72,0
2,note_on,63,0,480
2,note_on,70,0,0
2,note_on,66,0,0
2,note_on,56,75,0
2,note_on,63,75,0
2,note_on,68,90,0
2,note_on,68,0,480
2,note_on,63,0,0
2,note_on,56,0,0
2,note_on,63,75,0
2,note_on,68,75,0
2,note_on,75,90,0
2,note_on,75,0,480
2,note_on,68,0,0
2,note_on,63,0,0
2,note_on,77,85,0
2,note_on,71,72,0
2,note_on,65,72,0
2,note_on,75,72,0
2,note_on,75,0,480
2,note_on,77,0,0
2,note_on,71,0,0
2,note_on,65,0,0
2,note_on,70,72,0
2,note_on,66,72,0
2,note_on,75,72,0
2,note_on,78,85,0
2,note_on,78,0,480
2,note_on,70,0,0
2,note_on,66,0,0
2,note_on,75,0,0
2,note_on,87,87,0
2,note_on,99,101,0
2,note_on,99,0,240
2,note_on,87,0,0
2,note_on,83,86,240
2,note_on,71,72,0
2,note_on,75,72,0
2,note_on,75,0,480
2,note_on,71,0,0
2,note_on,83,0,0
2,note_on,83,84,0
2,note_on,95,99,0
2,note_on,95,0,240
2,note_on,83,0,0
2,note_on,68,71,240
2,note_on,71,71,0
2,note_on,75,71,0
2,note_on,80,85,0
2,note_on,80,0,480
2,note_on,68,0,0
2,note_on,71,0,0
2,note_on,75,0,0
2,note_on,80,84,0
2,note_on,92,99,0
2,note_on,92,0,240
2,note_on,80,0,0
2,note_on,70,75,240
2,note_on,66,75,0
2,note_on,75,75,0
2,note_on,78,89,0
2,note_on,78,0,480
2,note_on,70,0,0
2,note_on,66,0,0
2,note_on,75,0,0
2,note_on,90,99,0
2,note_on,78,84,0
2,note_on,78,0,240
2,note_on,90,0,0
2,note_on,65,72,240
2,note_on,70,72,0
2,note_on,77,86,0
2,note_on,75,72,0
2,note_on,75,0,480
2,note_on,65,0,0
2,note_on,70,0,0
2,note_on,77,0,0
2,note_on,89,99,0
2,note_on,77,84,0
2,note_on,77,0,240
2,note_on,89,0,0
2,note_on,65,75,240
2,note_on,70,75,0
2,note_on,74,75,0
2,note_on,77,89,0
2,note_on,77,0,480
2,note_on,65,0,0
2,note_on,70,0,0
2,note_on,74,0,0
2,note_on,87,102,0
2,note_on,75,85,0
2,note_on,75,0,450
2,note_on,87,0,0
2,note_on,63,78,30
2,note_on,75,94,0
2,note_on,75,0,1440
2,note_on,63,0,0
2,note_on,58,69,0
2,note_on,70,81,0
2,note_on,70,0,480
2,note_on,58,0,0
2,note_on,59,64,0
2,note_on,71,75,0
2,note_on,71,0,240
2,note_on,59,0,0
2,note_on,58,59,0
2,note_on,70,71,0
2,note_on,70,0,240
2,note_on,58,0,0
2,note_on,53,63,0
2,note_on,65,73,0
2,note_on,65,0,240
2,note_on,53,0,0
2,note_on,54,54,0
2,note_on,66,65,0
2,note_on,66,0,240
2,note_on,54,0,0
2,note_on,51,58,0
2,note_on,63,70,0
2,note_on,63,0,1920
2,note_on,51,0,0
2,note_on,58,30,1440
2,note_on,58,0,480
2,note_on,58,32,0
2,note_on,58,0,960
2,note_on,58,28,0
2,note_on,58,0,480
2,note_on,58,32,0
2,note_on,58,0,960
2,note_on,58,27,0
2,note_on,58,0,480
2,note_on,58,32,0
2,note_on,58,0,960
2,note_on,58,27,0
2,note_on,58,0,480
2,note_on,58,33,0
2,note_on,58,0,480
2,note_on,58,25,480
2,note_on,58,0,480
2,note_on,58,25,0
2,note_on,58,0,480
2,note_on,58,19,480
2,note_on,66,24,0
2,note_on,66,0,480
2,note_on,58,0,0
2,note_on,58,19,0
2,note_on,66,24,0
2,note_on,66,0,480
2,note_on,58,0,0
2,note_on,59,22,480
2,note_on,59,0,480
2,note_on,65,25,0
2,note_on,59,21,0
2,note_on,59,0,480
2,note_on,65,0,0
2,note_on,58,22,480
2,note_on,66,26,0
2,note_on,66,0,480
2,note_on,58,0,0
2,note_on,58,22,0
2,note_on,66,26,0
2,note_on,66,0,480
2,note_on,58,0,0
2,note_on,58,21,0
2,note_on,66,25,0
2,note_on,66,0,480
2,note_on,58,0,0
2,note_on,61,20,0
2,note_on,66,24,0
2,note_on,66,0,480
2,note_on,61,0,0
2,note_on,61,20,0
2,note_on,66,24,0
2,note_on,66,0,480
2,note_on,61,0,0
2,note_on,61,21,0
2,note_on,66,25,0
2,note_on,66,0,480
2,note_on,61,0,0
2,note_on,56,20,0
2,note_on,61,24,0
2,note_on,61,0,480
2,note_on,56,0,0
2,note_on,54,20,0
2,note_on,61,24,0
2,note_on,61,0,480
2,note_on,54,0,0
2,note_on,54,21,0
2,note_on,61,25,0
2,note_on,61,0,480
2,note_on,54,0,0
2,note_on,56,20,0
2,note_on,61,24,0
2,note_on,61,0,480
2,note_on,56,0,0
2,note_on,54,20,0
2,note_on,61,24,0
2,note_on,61,0,480
2,note_on,54,0,0
2,note_on,54,21,0
2,note_on,61,25,0
2,note_on,61,0,480
2,note_on,54,0,0
2,note_on,56,20,0
2,note_on,61,24,0
2,note_on,61,0,480
2,note_on,56,0,0
2,note_on,54,21,0
2,note_on,61,25,0
2,note_on,61,0,480
2,note_on,54,0,0
2,note_on,61,27,480
2,note_on,61,0,480
2,note_on,61,27,0
2,note_on,61,0,480
2,note_on,61,22,480
2,note_on,70,26,0
2,note_on,70,0,480
2,note_on,61,0,0
2,note_on,61,20,0
2,note_on,70,24,0
2,note_on,70,0,480
2,note_on,61,0,0
2,note_on,63,22,480
2,note_on,63,0,480
2,note_on,69,26,0
2,note_on,63,22,0
2,note_on,63,0,480
2,note_on,69,0,0
2,note_on,61,21,480
2,note_on,70,25,0
2,note_on,70,0,480
2,note_on,61,0,0
2,note_on,61,21,0
2,note_on,70,25,0
2,note_on,70,0,480
2,note_on,61,0,0
2,note_on,61,23,0
2,note_on,70,27,0
2,note_on,70,0,480
2,note_on,61,0,0
2,note_on,65,24,0
2,note_on,70,28,0
2,note_on,70,0,480
2,note_on,65,0,0
2,note_on,65,23,0
2,note_on,70,27,0
2,note_on,70,0,480
2,note_on,65,0,0
2,note_on,65,22,0
2,note_on,70,27,0
2,note_on,70,0,480
2,note_on,65,0,0
2,note_on,60,22,0
2,note_on,65,26,0
2,note_on,65,0,480
2,note_on,60,0,0
2,note_on,58,22,0
2,note_on,65,26,0
2,note_on,65,0,480
2,note_on,58,0,0
2,note_on,58,22,0
2,note_on,65,26,0
2,note_on,65,0,480
2,note_on,58,0,0
2,note_on,60,22,0
2,note_on,65,26,0
2,note_on,65,0,480
2,note_on,60,0,0
2,note_on,58,22,0
2,note_on,65,26,0
2,note_on,65,0,480
2,note_on,58,0,0
2,note_on,58,22,0
2,note_on,65,26,0
2,note_on,65,0,480
2,note_on,58,0,0
2,note_on,60,22,0
2,note_on,65,26,0
2,note_on,65,0,480
2,note_on,60,0,0
2,note_on,58,22,0
2,note_on,65,26,0
2,note_on,65,0,480
2,note_on,58,0,0
2,note_on,58,27,480
2,note_on,58,0,480
2,note_on,58,26,0
2,note_on,58,0,480
2,note_on,58,22,480
2,note_on,66,27,0
2,note_on,66,0,480
2,note_on,58,0,0
2,note_on,58,22,0
2,note_on,66,26,0
2,note_on,66,0,480
2,note_on,58,0,0
2,note_on,59,22,480
2,note_on,59,0,480
2,note_on,65,27,0
2,note_on,59,22,0
2,note_on,59,0,480
2,note_on,65,0,0
2,note_on,58,24,480
2,note_on,66,28,0
2,note_on,66,0,480
2,note_on,58,0,0
2,note_on,58,24,0
2,note_on,66,27,0
2,note_on,66,0,480
2,note_on,58,0,0
2,note_on,58,23,0
2,note_on,66,27,0
2,note_on,66,0,480
2,note_on,58,0,0
2,note_on,61,22,0
2,note_on,66,27,0
2,note_on,66,0,480
2,note_on,61,0,0
2,note_on,61,22,0
2,note_on,66,27,0
2,note_on,66,0,480
2,note_on,61,0,0
2,note_on,61,22,0
2,note_on,66,26,0
2,note_on,66,0,480
2,note_on,61,0,0
2,note_on,56,22,0
2,note_on,61,26,0
2,note_on,61,0,480
2,note_on,56,0,0
2,note_on,54,21,0
2,note_on,61,25,0
2,note_on,61,0,480
2,note_on,54,0,0
2,note_on,54,22,0
2,note_on,61,27,0
2,note_on,61,0,480
2,note_on,54,0,0
2,note_on,56,22,0
2,note_on,61,26,0
2,note_on,61,0,480
2,note_on,56,0,0
2,note_on,54,22,0
2,note_on,61,26,0
2,note_on,61,0,480
2,note_on,54,0,0
2,note_on,54,22,0
2,note_on,61,27,0
2,note_on,61,0,480
2,note_on,54,0,0
2,note_on,56,22,0
2,note_on,61,26,0
2,note_on,61,0,480
2,note_on,56,0,0
2,note_on,58,22,0
2,note_on,61,26,0
2,note_on,61,0,480
2,note_on,58,0,0
2,note_on,58,24,480
2,note_on,65,28,0
2,note_on,65,0,480
2,note_on,58,0,0
2,note_on,58,24,0
2,note_on,65,28,0
2,note_on,65,0,480
2,note_on,58,0,0
2,note_on,59,24,480
2,note_on,65,28,0
2,note_on,65,0,480
2,note_on,59,0,0
2,note_on,60,31,0
2,note_on,65,37,0
2,note_on,65,0,480
2,note_on,60,0,0
2,note_on,62,28,480
2,note_on,62,0,480
2,note_on,70,28,0
2,note_on,67,24,0
2,note_on,67,0,480
2,note_on,70,0,0
2,note_on,65,27,480
2,note_on,69,32,0
2,note_on,69,0,480
2,note_on,65,0,0
2,note_on,65,31,0
2,note_on,69,31,0
2,note_on,69,0,360
2,note_on,65,0,0
2,note_on,58,24,600
2,note_on,65,27,0
2,note_on,65,0,480
2,note_on,58,0,0
2,note_on,58,23,0
2,note_on,65,27,0
2,note_on,65,0,480
2,note_on,58,0,0
2,note_on,59,24,480
2,note_on,65,28,0
2,note_on,65,0,480
2,note_on,59,0,0
2,note_on,60,22,0
2,note_on,65,26,0
2,note_on,65,0,480
2,note_on,60,0,0
2,note_on,61,34,480
2,note_on,61,0,480
2,note_on,70,28,0
2,note_on,66,24,0
2,note_on,66,0,480
2,note_on,70,0,0
2,note_on,65,24,480
2,note_on,71,28,0
2,note_on,71,0,480
2,note_on,65,0,0
2,note_on,65,24,0
2,note_on,71,28,0
2,note_on,71,0,478
2,note_on,65,0,2
2,note_on,65,35,0
2,note_on,65,0,480
2,note_on,65,39,0
2,note_on,65,0,480
2,note_on,65,39,0
2,note_on,65,0,480
2,note_on,65,37,0
2,note_on,65,0,480
2,note_on,63,36,0
2,note_on,63,0,480
2,note_on,65,36,0
2,note_on,65,0,480
2,note_on,65,35,0
2,note_on,65,0,480
2,note_on,63,35,0
2,note_on,63,0,480
2,note_on,65,32,0
2,note_on,65,0,480
2,note_on,65,32,0
2,note_on,65,0,480
2,note_on,63,31,0
2,note_on,63,0,480
2,note_on,65,31,0
2,note_on,65,0,480
2,note_on,58,25,480
2,note_on,58,0,480
2,note_on,58,22,0
2,note_on,58,0,480
2,note_on,58,20,480
2,note_on,66,25,0
2,note_on,66,0,480
2,note_on,58,0,0
2,note_on,58,20,0
2,note_on,66,25,0
2,note_on,66,0,480
2,note_on,58,0,0
2,note_on,59,23,480
2,note_on,59,0,480
2,note_on,65,27,0
2,note_on,59,22,0
2,note_on,59,0,480
2,note_on,65,0,0
2,note_on,58,24,480
2,note_on,66,28,0
2,note_on,66,0,480
2,note_on,58,0,0
2,note_on,58,23,0
2,note_on,66,27,0
2,note_on,66,0,480
2,note_on,58,0,0
2,note_on,58,23,0
2,note_on,66,28,0
2,note_on,66,0,480
2,note_on,58,0,0
2,note_on,61,20,0
2,note_on,66,24,0
2,note_on,66,0,480
2,note_on,61,0,0
2,note_on,61,20,0
2,note_on,66,24,0
2,note_on,66,0,480
2,note_on,61,0,0
2,note_on,61,20,0
2,note_on,66,24,0
2,note_on,66,0,480
2,note_on,61,0,0
2,note_on,56,20,0
2,note_on,61,24,0
2,note_on,61,0,480
2,note_on,56,0,0
2,note_on,54,18,0
2,note_on,61,24,0
2,note_on,61,0,480
2,note_on,54,0,0
2,note_on,54,18,0
2,note_on,61,24,0
2,note_on,61,0,480
2,note_on,54,0,0
2,note_on,56,17,0
2,note_on,61,22,0
2,note_on,61,0,480
2,note_on,56,0,0
2,note_on,54,17,0
2,note_on,61,22,0
2,note_on,61,0,480
2,note_on,54,0,0
2,note_on,54,14,0
2,note_on,61,22,0
2,note_on,61,0,480
2,note_on,54,0,0
2,note_on,56,13,0
2,note_on,61,22,0
2,note_on,61,0,480
2,note_on,56,0,0
2,note_on,58,13,0
2,note_on,61,20,0
2,note_on,61,0,480
2,note_on,58,0,0
2,note_on,59,26,480
2,note_on,59,0,480
2,note_on,59,26,0
2,note_on,59,0,480
2,note_on,59,22,480
2,note_on,68,27,0
2,note_on,68,0,480
2,note_on,59,0,0
2,note_on,59,21,0
2,note_on,68,25,0
2,note_on,68,0,480
2,note_on,59,0,0
2,note_on,61,28,480
2,note_on,61,0,480
2,note_on,67,27,0
2,note_on,61,22,0
2,note_on,61,0,480
2,note_on,67,0,0
2,note_on,59,22,480
2,note_on,68,26,0
2,note_on,68,0,480
2,note_on,59,0,0
2,note_on,59,22,0
2,note_on,68,26,0
2,note_on,68,0,480
2,note_on,59,0,0
2,note_on,59,20,0
2,note_on,68,28,0
2,note_on,68,0,480
2,note_on,59,0,0
2,note_on,63,24,0
2,note_on,68,29,0
2,note_on,68,0,480
2,note_on,63,0,0
2,note_on,63,24,0
2,note_on,68,27,0
2,note_on,68,0,480
2,note_on,63,0,0
2,note_on,63,22,0
2,note_on,68,27,0
2,note_on,68,0,480
2,note_on,63,0,0
2,note_on,58,21,0
2,note_on,63,26,0
2,note_on,63,0,480
2,note_on,58,0,0
2,note_on,56,20,0
2,note_on,63,25,0
2,note_on,63,0,480
2,note_on,56,0,0
2,note_on,56,20,0
2,note_on,63,25,0
2,note_on,63,0,480
2,note_on,56,0,0
2,note_on,58,18,0
2,note_on,63,24,0
2,note_on,63,0,480
2,note_on,58,0,0
2,note_on,56,18,0
2,note_on,63,24,0
2,note_on,63,0,480
2,note_on,56,0,0
2,note_on,56,18,0
2,note_on,63,24,0
2,note_on,63,0,480
2,note_on,56,0,0
2,note_on,58,18,0
2,note_on,63,23,0
2,note_on,63,0,480
2,note_on,58,0,0
2,note_on,59,18,0
2,note_on,54,18,0
2,note_on,63,23,0
2,note_on,63,0,480
2,note_on,54,0,0
2,note_on,59,0,0
2,note_on,53,24,0
2,note_on,59,24,0
2,note_on,61,28,0
2,note_on,61,0,480
2,note_on,59,0,0
2,note_on,53,0,0
2,note_on,59,22,0
2,note_on,65,27,0
2,note_on,65,0,480
2,note_on,59,0,0
2,note_on,59,22,0
2,note_on,65,27,0
2,note_on,65,0,480
2,note_on,59,0,0
2,note_on,54,25,0
2,note_on,59,30,0
2,note_on,59,0,480
2,note_on,54,0,0
2,note_on,54,21,0
2,note_on,59,25,0
2,note_on,59,0,480
2,note_on,54,0,0
2,note_on,54,22,0
2,note_on,59,26,0
2,note_on,59,0,480
2,note_on,54,0,0
2,note_on,56,27,0
2,note_on,59,27,0
2,note_on,61,36,0
2,note_on,61,0,480
2,note_on,59,0,0
2,note_on,56,0,0
2,note_on,59,23,0
2,note_on,65,27,0
2,note_on,65,0,480
2,note_on,59,0,0
2,note_on,59,23,0
2,note_on,65,27,0
2,note_on,65,0,480
2,note_on,59,0,0
2,note_on,54,25,0
2,note_on,59,30,0
2,note_on,59,0,480
2,note_on,54,0,0
2,note_on,54,23,0
2,note_on,59,27,0
2,note_on,59,0,480
2,note_on,54,0,0
2,note_on,54,23,0
2,note_on,59,27,0
2,note_on,59,0,480
2,note_on,54,0,0
2,note_on,56,27,0
2,note_on,59,27,0
2,note_on,61,31,0
2,note_on,61,0,480
2,note_on,59,0,0
2,note_on,56,0,0
2,note_on,59,28,0
2,note_on,65,34,0
2,note_on,65,0,480
2,note_on,59,0,0
2,note_on,59,30,0
2,note_on,65,36,0
2,note_on,65,0,480
2,note_on,59,0,0
2,note_on,59,31,0
2,note_on,65,37,0
2,note_on,65,0,480
2,note_on,59,0,0
2,note_on,60,32,0
2,note_on,65,39,0
2,note_on,65,0,480
2,note_on,60,0,0
2,note_on,61,36,0
2,note_on,65,43,0
2,note_on,65,0,480
2,note_on,61,0,0
2,note_on,62,36,0
2,note_on,65,45,0
2,note_on,65,0,480
2,note_on,62,0,0
2,note_on,63,34,0
2,note_on,65,42,0
2,note_on,65,0,478
2,note_on,63,0,2
2,note_on,59,24,0
2,note_on,61,28,0
2,note_on,61,0,480
2,note_on,59,0,0
2,note_on,58,26,0
2,note_on,61,30,0
2,note_on,61,0,480
2,note_on,58,0,0
2,note_on,56,30,960
2,note_on,60,30,0
2,note_on,66,36,0
2,note_on,68,36,0
2,note_on,68,0,1440
2,note_on,56,0,0
2,note_on,60,0,0
2,note_on,66,0,0
2,note_on,56,30,0
2,note_on,61,30,0
2,note_on,65,30,0
2,note_on,68,36,0
2,note_on,56,0,480
2,note_on,61,0,960
2,note_on,65,0,0
2,note_on,68,0,0
2,note_on,60,31,0
2,note_on,66,37,0
2,note_on,68,37,0
2,note_on,60,0,960
2,note_on,61,42,0
2,note_on,61,0,240
2,note_on,63,37,0
2,note_on,63,0,240
2,note_on,68,0,0
2,note_on,66,0,0
2,note_on,64,45,0
2,note_on,68,45,0
2,note_on,64,0,480
2,note_on,65,39,0
2,note_on,68,0,720
2,note_on,77,52,0
2,note_on,77,0,240
2,note_on,65,0,0
2,note_on,63,39,0
2,note_on,69,39,0
2,note_on,77,49,0
2,note_on,77,0,960
2,note_on,69,0,0
2,note_on,69,39,0
2,note_on,69,0,480
2,note_on,63,0,0
2,note_on,70,46,0
2,note_on,61,39,0
2,note_on,70,0,960
2,note_on,65,37,0
2,note_on,73,45,0
2,note_on,73,0,480
2,note_on,65,0,0
2,note_on,61,0,0
2,note_on,61,34,0
2,note_on,63,39,0
2,note_on,67,47,0
2,note_on,67,0,1440
2,note_on,63,0,0
2,note_on,61,0,0
2,note_on,60,39,0
2,note_on,63,39,0
2,note_on,68,47,0
2,note_on,68,0,960
2,note_on,63,0,0
2,note_on,60,0,0
2,note_on,61,37,0
2,note_on,65,37,0
2,note_on,68,45,0
2,note_on,68,0,480
2,note_on,65,0,0
2,note_on,61,0,0
2,note_on,60,30,0
2,note_on,66,36,0
2,note_on,68,36,0
2,note_on,68,0,1440
2,note_on,66,0,0
2,note_on,60,0,0
2,note_on,61,39,0
2,note_on,65,42,0
2,note_on,68,46,0
2,note_on,61,0,960
2,note_on,56,35,0
2,note_on,56,0,480
2,note_on,68,0,0
2,note_on,65,0,0
2,note_on,60,45,0
2,note_on,66,45,0
2,note_on,68,45,0
2,note_on,60,0,480
2,note_on,58,38,0
2,note_on,58,0,240
2,note_on,56,34,0
2,note_on,56,0,240
2,note_on,61,42,0
2,note_on,61,0,240
2,note_on,63,37,0
2,note_on,63,0,240
2,note_on,68,0,0
2,note_on,66,0,0
2,note_on,65,39,0
2,note_on,68,47,0
2,note_on,65,0,960
2,note_on,64,42,0
2,note_on,64,0,480
2,note_on,68,0,0
2,note_on,68,45,0
2,note_on,63,38,0
2,note_on,68,0,960
2,note_on,66,38,0
2,note_on,66,0,480
2,note_on,63,0,0
2,note_on,62,37,0
2,note_on,66,45,0
2,note_on,62,0,480
2,note_on,61,39,0
2,note_on,66,0,480
2,note_on,63,39,0
2,note_on,73,47,0
2,note_on,73,0,480
2,note_on,63,0,0
2,note_on,61,0,0
2,note_on,61,41,0
2,note_on,65,41,0
2,note_on,73,48,0
2,note_on,61,0,1437
2,note_on,73,0,3
2,note_on,65,0,0
2,note_on,65,31,0
2,note_on,68,37,0
2,note_on,68,0,960
2,note_on,69,45,0
2,note_on,69,0,480
2,note_on,65,0,0
2,note_on,58,25,480
2,note_on,58,0,480
2,note_on,58,22,0
2,note_on,58,0,480
2,note_on,58,20,480
2,note_on,66,25,0
2,note_on,66,0,480
2,note_on,58,0,0
2,note_on,58,20,0
2,note_on,66,25,0
2,note_on,66,0,480
2,note_on,58,0,0
2,note_on,59,23,480
2,note_on,59,0,480
2,note_on,65,27,0
2,note_on,59,22,0
2,note_on,59,0,480
2,note_on,65,0,0
2,note_on,58,24,480
2,note_on,66,28,0
2,note_on,66,0,480
2,note_on,58,0,0
2,note_on,58,23,0
2,note_on,66,27,0
2,note_on,66,0,480
2,note_on,58,0,0
2,note_on,58,23,0
2,note_on,66,27,0
2,note_on,66,0,480
2,note_on,58,0,0
2,note_on,61,20,0
2,note_on,66,24,0
2,note_on,66,0,480
2,note_on,61,0,0
2,note_on,61,20,0
2,note_on,66,24,0
2,note_on,66,0,480
2,note_on,61,0,0
2,note_on,61,20,0
2,note_on,66,24,0
2,note_on,66,0,480
2,note_on,61,0,0
2,note_on,56,20,0
2,note_on,61,24,0
2,note_on,61,0,480
2,note_on,56,0,0
2,note_on,54,20,0
2,note_on,61,24,0
2,note_on,61,0,480
2,note_on,54,0,0
2,note_on,54,20,0
2,note_on,61,24,0
2,note_on,61,0,480
2,note_on,54,0,0
2,note_on,56,18,0
2,note_on,61,23,0
2,note_on,61,0,480
2,note_on,56,0,0
2,note_on,54,18,0
2,note_on,61,23,0
2,note_on,61,0,480
2,note_on,54,0,0
2,note_on,54,15,0
2,note_on,61,23,0
2,note_on,61,0,480
2,note_on,54,0,0
2,note_on,56,15,0
2,note_on,61,24,0
2,note_on,61,0,480
2,note_on,56,0,0
2,note_on,54,15,0
2,note_on,61,23,0
2,note_on,61,0,480
2,note_on,54,0,0
2,note_on,59,26,480
2,note_on,59,0,480
2,note_on,59,26,0
2,note_on,59,0,480
2,note_on,59,25,480
2,note_on,68,30,0
2,note_on,68,0,480
2,note_on,59,0,0
2,note_on,59,21,0
2,note_on,68,25,0
2,note_on,68,0,480
2,note_on,59,0,0
2,note_on,61,28,480
2,note_on,61,0,480
2,note_on,67,27,0
2,note_on,61,22,0
2,note_on,61,0,480
2,note_on,67,0,0
2,note_on,59,22,480
2,note_on,68,26,0
2,note_on,68,0,480
2,note_on,59,0,0
2,note_on,59,22,0
2,note_on,68,26,0
2,note_on,68,0,480
2,note_on,59,0,0
2,note_on,59,20,0
2,note_on,68,28,0
2,note_on,68,0,480
2,note_on,59,0,0
2,note_on,63,24,0
2,note_on,68,29,0
2,note_on,68,0,480
2,note_on,63,0,0
2,note_on,63,24,0
2,note_on,68,27,0
2,note_on,68,0,480
2,note_on,63,0,0
2,note_on,63,22,0
2,note_on,68,27,0
2,note_on,68,0,480
2,note_on,63,0,0
2,note_on,58,23,0
2,note_on,63,27,0
2,note_on,63,0,480
2,note_on,58,0,0
2,note_on,56,22,0
2,note_on,63,27,0
2,note_on,63,0,480
2,note_on,56,0,0
2,note_on,56,22,0
2,note_on,63,27,0
2,note_on,63,0,480
2,note_on,56,0,0
2,note_on,58,22,0
2,note_on,63,27,0
2,note_on,63,0,480
2,note_on,58,0,0
2,note_on,56,22,0
2,note_on,63,27,0
2,note_on,63,0,480
2,note_on,56,0,0
2,note_on,56,22,0
2,note_on,63,27,0
2,note_on,63,0,480
2,note_on,56,0,0
2,note_on,58,22,0
2,note_on,63,27,0
2,note_on,63,0,480
2,note_on,58,0,0
2,note_on,59,22,0
2,note_on,54,22,0
2,note_on,63,27,0
2,note_on,63,0,480
2,note_on,54,0,0
2,note_on,59,0,0
2,note_on,53,24,0
2,note_on,59,28,0
2,note_on,61,28,0
2,note_on,61,0,480
2,note_on,59,0,0
2,note_on,53,0,0
2,note_on,59,22,0
2,note_on,65,27,0
2,note_on,65,0,480
2,note_on,59,0,0
2,note_on,59,22,0
2,note_on,65,27,0
2,note_on,65,0,480
2,note_on,59,0,0
2,note_on,54,25,0
2,note_on,59,30,0
2,note_on,59,0,480
2,note_on,54,0,0
2,note_on,54,21,0
2,note_on,59,25,0
2,note_on,59,0,480
2,note_on,54,0,0
2,note_on,54,22,0
2,note_on,59,26,0
2,note_on,59,0,480
2,note_on,54,0,0
2,note_on,56,27,0
2,note_on,59,27,0
2,note_on,61,36,0
2,note_on,61,0,480
2,note_on,59,0,0
2,note_on,56,0,0
2,note_on,59,23,0
2,note_on,65,27,0
2,note_on,65,0,480
2,note_on,59,0,0
2,note_on,59,23,0
2,note_on,65,27,0
2,note_on,65,0,480
2,note_on,59,0,0
2,note_on,54,25,0
2,note_on,59,30,0
2,note_on,59,0,480
2,note_on,54,0,0
2,note_on,54,23,0
2,note_on,59,27,0
2,note_on,59,0,480
2,note_on,54,0,0
2,note_on,54,23,0
2,note_on,59,27,0
2,note_on,59,0,480
2,note_on,54,0,0
2,note_on,56,27,0
2,note_on,59,27,0
2,note_on,61,31,0
2,note_on,61,0,480
2,note_on,59,0,0
2,note_on,56,0,0
2,note_on,59,28,0
2,note_on,65,34,0
2,note_on,65,0,480
2,note_on,59,0,0
2,note_on,59,30,0
2,note_on,65,36,0
2,note_on,65,0,480
2,note_on,59,0,0
2,note_on,59,31,0
2,note_on,65,37,0
2,note_on,65,0,480
2,note_on,59,0,0
2,note_on,60,32,0
2,note_on,65,39,0
2,note_on,65,0,480
2,note_on,60,0,0
2,note_on,61,35,0
2,note_on,65,42,0
2,note_on,65,0,480
2,note_on,61,0,0
2,note_on,62,37,0
2,note_on,65,45,0
2,note_on,65,0,480
2,note_on,62,0,0
2,note_on,63,34,0
2,note_on,65,41,0
2,note_on,65,0,478
2,note_on,63,0,2
2,note_on,59,24,0
2,note_on,61,28,0
2,note_on,61,0,480
2,note_on,59,0,0
2,note_on,58,26,0
2,note_on,61,30,0
2,note_on,61,0,480
2,note_on,58,0,0
2,note_on,56,30,960
2,note_on,60,30,0
2,note_on,66,36,0
2,note_on,68,36,0
2,note_on,68,0,1440
2,note_on,56,0,0
2,note_on,60,0,0
2,note_on,66,0,0
2,note_on,56,30,0
2,note_on,61,30,0
2,note_on,65,30,0
2,note_on,68,36,0
2,note_on,56,0,480
2,note_on,61,0,960
2,note_on,65,0,0
2,note_on,68,0,0
2,note_on,60,31,0
2,note_on,66,37,0
2,note_on,68,37,0
2,note_on,60,0,960
2,note_on,61,42,0
2,note_on,61,0,240
2,note_on,63,37,0
2,note_on,63,0,240
2,note_on,68,0,0
2,note_on,66,0,0
2,note_on,64,45,0
2,note_on,68,45,0
2,note_on,64,0,480
2,note_on,65,39,0
2,note_on,68,0,720
2,note_on,77,52,0
2,note_on,77,0,240
2,note_on,65,0,0
2,note_on,63,39,0
2,note_on,69,39,0
2,note_on,77,49,0
2,note_on,77,0,960
2,note_on,69,0,0
2,note_on,69,39,0
2,note_on,69,0,480
2,note_on,63,0,0
2,note_on,70,46,0
2,note_on,61,39,0
2,note_on,70,0,960
2,note_on,65,37,0
2,note_on,73,45,0
2,note_on,73,0,480
2,note_on,65,0,0
2,note_on,61,0,0
2,note_on,61,34,0
2,note_on,63,39,0
2,note_on,67,47,0
2,note_on,67,0,1440
2,note_on,63,0,0
2,note_on,61,0,0
2,note_on,60,39,0
2,note_on,63,39,0
2,note_on,68,47,0
2,note_on,68,0,960
2,note_on,63,0,0
2,note_on,60,0,0
2,note_on,61,37,0
2,note_on,65,37,0
2,note_on,68,45,0
2,note_on,68,0,480
2,note_on,65,0,0
2,note_on,61,0,0
2,note_on,60,30,0
2,note_on,66,36,0
2,note_on,68,36,0
2,note_on,68,0,1440
2,note_on,66,0,0
2,note_on,60,0,0
2,note_on,61,39,0
2,note_on,65,43,0
2,note_on,68,46,0
2,note_on,61,0,960
2,note_on,56,35,0
2,note_on,56,0,480
2,note_on,68,0,0
2,note_on,65,0,0
2,note_on,60,45,0
2,note_on,66,40,0
2,note_on,68,45,0
2,note_on,60,0,480
2,note_on,58,38,0
2,note_on,58,0,240
2,note_on,56,34,0
2,note_on,56,0,240
2,note_on,61,42,0
2,note_on,61,0,240
2,note_on,63,37,0
2,note_on,63,0,240
2,note_on,68,0,0
2,note_on,66,0,0
2,note_on,65,39,0
2,note_on,68,47,0
2,note_on,65,0,960
2,note_on,64,42,0
2,note_on,64,0,480
2,note_on,68,0,0
2,note_on,68,45,0
2,note_on,63,38,0
2,note_on,68,0,960
2,note_on,66,38,0
2,note_on,66,0,478
2,note_on,63,0,2
2,note_on,62,37,0
2,note_on,66,45,0
2,note_on,62,0,480
2,note_on,61,39,0
2,note_on,66,0,480
2,note_on,63,39,0
2,note_on,73,47,0
2,note_on,73,0,480
2,note_on,63,0,0
2,note_on,61,0,0
2,note_on,61,41,0
2,note_on,65,41,0
2,note_on,73,48,0
2,note_on,61,0,1438
2,note_on,73,0,2
2,note_on,65,0,0
2,note_on,65,31,0
2,note_on,68,37,0
2,note_on,68,0,960
2,note_on,69,45,0
2,note_on,69,0,480
2,note_on,65,0,0
2,note_on,58,25,480
2,note_on,58,0,480
2,note_on,58,22,0
2,note_on,58,0,480
2,note_on,58,20,480
2,note_on,66,25,0
2,note_on,66,0,480
2,note_on,58,0,0
2,note_on,58,20,0
2,note_on,66,25,0
2,note_on,66,0,480
2,note_on,58,0,0
2,note_on,59,23,480
2,note_on,59,0,480
2,note_on,65,27,0
2,note_on,59,22,0
2,note_on,59,0,480
2,note_on,65,0,0
2,note_on,58,24,480
2,note_on,66,28,0
2,note_on,66,0,480
2,note_on,58,0,0
2,note_on,58,23,0
2,note_on,66,27,0
2,note_on,66,0,480
2,note_on,58,0,0
2,note_on,58,23,0
2,note_on,66,27,0
2,note_on,66,0,480
2,note_on,58,0,0
2,note_on,61,20,0
2,note_on,66,24,0
2,note_on,66,0,480
2,note_on,61,0,0
2,note_on,61,20,0
2,note_on,66,24,0
2,note_on,66,0,480
2,note_on,61,0,0
2,note_on,61,20,0
2,note_on,66,24,0
2,note_on,66,0,480
2,note_on,61,0,0
2,note_on,56,20,0
2,note_on,61,24,0
2,note_on,61,0,480
2,note_on,56,0,0
2,note_on,54,20,0
2,note_on,61,24,0
2,note_on,61,0,480
2,note_on,54,0,0
2,note_on,54,20,0
2,note_on,61,24,0
2,note_on,61,0,480
2,note_on,54,0,0
2,note_on,56,18,0
2,note_on,61,23,0
2,note_on,61,0,480
2,note_on,56,0,0
2,note_on,54,18,0
2,note_on,61,23,0
2,note_on,61,0,480
2,note_on,54,0,0
2,note_on,54,15,0
2,note_on,61,23,0
2,note_on,61,0,480
2,note_on,54,0,0
2,note_on,56,15,0
2,note_on,61,24,0
2,note_on,61,0,480
2,note_on,56,0,0
2,note_on,54,15,0
2,note_on,61,23,0
2,note_on,61,0,480
2,note_on,54,0,0
2,note_on,59,26,480
2,note_on,59,0,480
2,note_on,59,26,0
2,note_on,59,0,480
2,note_on,59,25,480
2,note_on,68,30,0
2,note_on,68,0,480
2,note_on,59,0,0
2,note_on,59,21,0
2,note_on,68,25,0
2,note_on,68,0,480
2,note_on,59,0,0
2,note_on,61,28,480
2,note_on,61,0,480
2,note_on,67,27,0
2,note_on,61,22,0
2,note_on,61,0,480
2,note_on,67,0,0
2,note_on,59,22,480
2,note_on,68,26,0
2,note_on,68,0,480
2,note_on,59,0,0
2,note_on,59,22,0
2,note_on,68,26,0
2,note_on,68,0,480
2,note_on,59,0,0
2,note_on,59,20,0
2,note_on,68,28,0
2,note_on,68,0,480
2,note_on,59,0,0
2,note_on,63,24,0
2,note_on,68,29,0
2,note_on,68,0,480
2,note_on,63,0,0
2,note_on,63,24,0
2,note_on,68,27,0
2,note_on,68,0,480
2,note_on,63,0,0
2,note_on,63,22,0
2,note_on,68,27,0
2,note_on,68,0,480
2,note_on,63,0,0
2,note_on,58,23,0
2,note_on,63,27,0
2,note_on,63,0,480
2,note_on,58,0,0
2,note_on,56,22,0
2,note_on,63,27,0
2,note_on,63,0,480
2,note_on,56,0,0
2,note_on,56,22,0
2,note_on,63,27,0
2,note_on,63,0,480
2,note_on,56,0,0
2,note_on,58,22,0
2,note_on,63,27,0
2,note_on,63,0,480
2,note_on,58,0,0
2,note_on,56,22,0
2,note_on,63,27,0
2,note_on,63,0,480
2,note_on,56,0,0
2,note_on,56,22,0
2,note_on,63,27,0
2,note_on,63,0,480
2,note_on,56,0,0
2,note_on,58,22,0
2,note_on,63,27,0
2,note_on,63,0,480
2,note_on,58,0,0
2,note_on,59,22,0
2,note_on,54,22,0
2,note_on,63,27,0
2,note_on,63,0,480
2,note_on,54,0,0
2,note_on,59,0,0
2,note_on,53,24,0
2,note_on,59,28,0
2,note_on,61,28,0
2,note_on,61,0,480
2,note_on,59,0,0
2,note_on,53,0,0
2,note_on,59,22,0
2,note_on,65,27,0
2,note_on,65,0,480
2,note_on,59,0,0
2,note_on,59,22,0
2,note_on,65,27,0
2,note_on,65,0,480
2,note_on,59,0,0
2,note_on,54,25,0
2,note_on,59,30,0
2,note_on,59,0,480
2,note_on,54,0,0
2,note_on,54,21,0
2,note_on,59,25,0
2,note_on,59,0,480
2,note_on,54,0,0
2,note_on,54,22,0
2,note_on,59,26,0
2,note_on,59,0,480
2,note_on,54,0,0
2,note_on,56,27,0
2,note_on,59,27,0
2,note_on,61,36,0
2,note_on,61,0,480
2,note_on,59,0,0
2,note_on,56,0,0
2,note_on,59,23,0
2,note_on,65,27,0
2,note_on,65,0,480
2,note_on,59,0,0
2,note_on,59,23,0
2,note_on,65,27,0
2,note_on,65,0,480
2,note_on,59,0,0
2,note_on,54,25,0
2,note_on,59,30,0
2,note_on,59,0,480
2,note_on,54,0,0
2,note_on,54,23,0
2,note_on,59,27,0
2,note_on,59,0,480
2,note_on,54,0,0
2,note_on,54,23,0
2,note_on,59,27,0
2,note_on,59,0,480
2,note_on,54,0,0
2,note_on,56,27,0
2,note_on,59,27,0
2,note_on,61,31,0
2,note_on,61,0,480
2,note_on,59,0,0
2,note_on,56,0,0
2,note_on,59,29,0
2,note_on,65,35,0
2,note_on,65,0,480
2,note_on,59,0,0
2,note_on,59,31,0
2,note_on,65,37,0
2,note_on,65,0,480
2,note_on,59,0,0
2,note_on,59,33,0
2,note_on,65,40,0
2,note_on,65,0,480
2,note_on,59,0,0
2,note_on,60,36,0
2,note_on,65,45,0
2,note_on,65,0,480
2,note_on,60,0,0
2,note_on,61,42,0
2,note_on,65,47,0
2,note_on,65,0,480
2,note_on,61,0,0
2,note_on,74,49,0
2,note_on,62,43,0
2,note_on,65,43,0
2,note_on,65,0,480
2,note_on,62,0,0
2,note_on,74,0,0
2,note_on,75,51,0
2,note_on,63,44,0
2,note_on,65,45,0
2,note_on,65,0,720
2,note_on,63,0,0
2,note_on,75,0,0
2,note_on,74,49,0
2,note_on,62,33,0
2,note_on,65,33,0
2,note_on,65,0,240
2,note_on,62,0,0
2,note_on,74,0,0
2,note_on,74,50,0
2,note_on,62,34,0
2,note_on,65,35,0
2,note_on,65,0,480
2,note_on,62,0,0
2,note_on,74,0,0
2,note_on,75,51,0
2,note_on,63,44,0
2,note_on,65,44,0
2,note_on,65,0,720
2,note_on,63,0,0
2,note_on,75,0,0
2,note_on,74,54,0
2,note_on,62,37,0
2,note_on,62,0,240
2,note_on,74,0,0
2,note_on,74,58,0
2,note_on,62,49,0
2,note_on,62,0,480
2,note_on,74,0,0
2,note_on,73,63,0
2,note_on,61,52,0
2,note_on,61,0,720
2,note_on,73,0,0
2,note_on,72,55,0
2,note_on,60,46,0
2,note_on,60,0,240
2,note_on,72,0,0
2,note_on,72,61,0
2,note_on,60,51,0
2,note_on,60,0,480
2,note_on,72,0,0
2,note_on,71,61,0
2,note_on,59,52,0
2,note_on,59,0,720
2,note_on,71,0,0
2,note_on,70,61,0
2,note_on,58,49,0
2,note_on,58,0,240
2,note_on,70,0,0
2,note_on,70,66,0
2,note_on,58,55,0
2,note_on,58,0,480
2,note_on,70,0,0
2,note_on,69,68,0
2,note_on,57,56,0
2,note_on,57,0,720
2,note_on,69,0,0
2,note_on,68,67,0
2,note_on,56,55,0
2,note_on,56,0,240
2,note_on,68,0,0
2,note_on,68,73,0
2,note_on,56,59,0
2,note_on,56,0,480
2,note_on,68,0,0
2,note_on,66,73,0
2,note_on,54,61,0
2,note_on,54,0,480
2,note_on,66,0,0
2,note_on,58,73,0
2,note_on,58,0,480
2,note_on,51,47,0
2,note_on,63,56,0
2,note_on,63,0,90
2,note_on,51,0,0
2,note_on,51,49,150
2,note_on,63,58,0
2,note_on,63,0,90
2,note_on,51,0,0
2,note_on,51,54,150
2,note_on,63,64,0
2,note_on,63,0,90
2,note_on,51,0,0
2,note_on,51,56,150
2,note_on,63,65,0
2,note_on,63,0,90
2,note_on,51,0,0
2,note_on,51,61,150
2,note_on,63,72,0
2,note_on,63,0,480
2,note_on,51,0,0
2,note_on,53,67,0
2,note_on,59,67,0
2,note_on,63,67,0
2,note_on,65,80,0
2,note_on,65,0,480
2,note_on,53,0,0
2,note_on,59,0,0
2,note_on,63,0,0
2,note_on,65,56,0
2,note_on,71,56,0
2,note_on,75,56,0
2,note_on,77,68,0
2,note_on,77,0,240
2,note_on,65,0,0
2,note_on,71,0,0
2,note_on,75,0,0
2,note_on,63,55,0
2,note_on,75,66,0
2,note_on,75,0,240
2,note_on,63,0,0
2,note_on,65,56,0
2,note_on,70,56,0
2,note_on,74,56,0
2,note_on,77,68,0
2,note_on,77,0,240
2,note_on,65,0,0
2,note_on,70,0,0
2,note_on,74,0,0
2,note_on,66,53,0
2,note_on,78,65,0
2,note_on,78,0,240
2,note_on,66,0,0
2,note_on,54,49,0
2,note_on,66,59,0
2,note_on,66,0,90
2,note_on,54,0,0
2,note_on,54,52,150
2,note_on,66,61,0
2,note_on,66,0,90
2,note_on,54,0,0
2,note_on,54,57,150
2,note_on,66,67,0
2,note_on,66,0,90
2,note_on,54,0,0
2,note_on,54,57,150
2,note_on,66,66,0
2,note_on,66,0,90
2,note_on,54,0,0
2,note_on,54,64,150
2,note_on,66,75,0
2,note_on,66,0,480
2,note_on,54,0,0
2,note_on,56,67,0
2,note_on,62,69,0
2,note_on,66,69,0
2,note_on,68,82,0
2,note_on,68,0,480
2,note_on,56,0,0
2,note_on,62,0,0
2,note_on,66,0,0
2,note_on,68,59,0
2,note_on,74,59,0
2,note_on,78,59,0
2,note_on,80,72,0
2,note_on,80,0,240
2,note_on,68,0,0
2,note_on,74,0,0
2,note_on,78,0,0
2,note_on,66,58,0
2,note_on,78,70,0
2,note_on,78,0,240
2,note_on,66,0,0
2,note_on,68,59,0
2,note_on,73,59,0
2,note_on,77,59,0
2,note_on,80,72,0
2,note_on,80,0,240
2,note_on,68,0,0
2,note_on,73,0,0
2,note_on,77,0,0
2,note_on,69,54,0
2,note_on,81,65,0
2,note_on,81,0,240
2,note_on,69,0,0
2,note_on,57,47,0
2,note_on,69,56,0
2,note_on,69,0,90
2,note_on,57,0,0
2,note_on,57,51,150
2,note_on,69,60,0
2,note_on,69,0,90
2,note_on,57,0,0
2,note_on,57,54,150
2,note_on,69,64,0
2,note_on,69,0,90
2,note_on,57,0,0
2,note_on,57,59,150
2,note_on,69,69,0
2,note_on,69,0,90
2,note_on,57,0,0
2,note_on,57,68,150
2,note_on,69,79,0
2,note_on,69,0,480
2,note_on,57,0,0
2,note_on,58,52,0
2,note_on,65,52,0
2,note_on,68,52,0
2,note_on,56,52,0
2,note_on,70,63,0
2,note_on,70,0,90
2,note_on,68,0,0
2,note_on,58,0,0
2,note_on,65,0,0
2,note_on,56,0,0
2,note_on,58,55,150
2,note_on,65,55,0
2,note_on,68,55,0
2,note_on,56,55,0
2,note_on,70,66,0
2,note_on,70,0,90
2,note_on,68,0,0
2,note_on,58,0,0
2,note_on,65,0,0
2,note_on,56,0,0
2,note_on,58,57,150
2,note_on,65,57,0
2,note_on,68,57,0
2,note_on,56,57,0
2,note_on,70,67,0
2,note_on,70,0,90
2,note_on,68,0,0
2,note_on,58,0,0
2,note_on,65,0,0
2,note_on,56,0,0
2,note_on,58,57,150
2,note_on,65,57,0
2,note_on,68,68,0
2,note_on,56,57,0
2,note_on,70,68,0
2,note_on,70,0,90
2,note_on,68,0,0
2,note_on,58,0,0
2,note_on,65,0,0
2,note_on,56,0,0
2,note_on,58,68,150
2,note_on,62,68,0
2,note_on,68,68,0
2,note_on,56,68,0
2,note_on,70,81,0
2,note_on,70,0,480
2,note_on,68,0,0
2,note_on,58,0,0
2,note_on,62,0,0
2,note_on,56,0,0
2,note_on,58,52,0
2,note_on,63,52,0
2,note_on,66,52,0
2,note_on,70,63,0
2,note_on,70,0,90
2,note_on,58,0,0
2,note_on,63,0,0
2,note_on,66,0,0
2,note_on,58,55,150
2,note_on,63,55,0
2,note_on,66,55,0
2,note_on,70,66,0
2,note_on,70,0,90
2,note_on,58,0,0
2,note_on,63,0,0
2,note_on,66,0,0
2,note_on,63,57,150
2,note_on,66,57,0
2,note_on,70,67,0
2,note_on,70,0,90
2,note_on,66,0,0
2,note_on,63,0,0
2,note_on,63,56,150
2,note_on,66,56,0
2,note_on,70,67,0
2,note_on,70,0,90
2,note_on,66,0,0
2,note_on,63,0,0
2,note_on,63,70,150
2,note_on,66,72,0
2,note_on,70,85,0
2,note_on,70,0,480
2,note_on,66,0,0
2,note_on,63,0,0
2,note_on,58,66,0
2,note_on,63,66,0
2,note_on,70,78,0
2,note_on,70,0,480
2,note_on,63,0,0
2,note_on,58,0,0
2,note_on,56,66,0
2,note_on,63,66,0
2,note_on,68,78,0
2,note_on,68,0,480
2,note_on,63,0,0
2,note_on,56,0,0
2,note_on,54,63,0
2,note_on,57,63,0
2,note_on,63,63,0
2,note_on,66,74,0
2,note_on,66,0,480
2,note_on,54,0,0
2,note_on,57,0,0
2,note_on,63,0,0
2,note_on,58,52,0
2,note_on,61,52,0
2,note_on,65,61,0
2,note_on,65,0,240
2,note_on,61,0,0
2,note_on,58,0,0
2,note_on,61,59,0
2,note_on,61,0,240
2,note_on,66,66,0
2,note_on,73,78,0
2,note_on,73,0,240
2,note_on,66,0,0
2,note_on,66,75,0
2,note_on,66,0,240
2,note_on,70,69,0
2,note_on,78,82,0
2,note_on,78,0,240
2,note_on,70,0,0
2,note_on,70,75,0
2,note_on,70,0,240
2,note_on,73,65,0
2,note_on,82,76,0
2,note_on,82,0,240
2,note_on,73,0,0
2,note_on,73,71,0
2,note_on,73,0,240
2,note_on,78,66,0
2,note_on,85,78,0
2,note_on,85,0,240
2,note_on,78,0,0
2,note_on,78,75,0
2,note_on,78,0,240
2,note_on,82,69,0
2,note_on,90,82,0
2,note_on,90,0,240
2,note_on,82,0,0
2,note_on,82,75,0
2,note_on,82,0,240
2,note_on,85,69,0
2,note_on,82,69,0
2,note_on,94,82,0
2,note_on,94,0,480
2,note_on,82,0,0
2,note_on,85,0,0
2,note_on,85,66,0
2,note_on,80,64,0
2,note_on,92,76,0
2,note_on,92,0,480
2,note_on,80,0,0
2,note_on,85,0,0
2,note_on,85,73,0
2,note_on,80,61,0
2,note_on,73,61,0
2,note_on,73,0,480
2,note_on,80,0,0
2,note_on,85,0,0
2,note_on,73,57,0
2,note_on,80,61,0
2,note_on,85,75,0
2,note_on,80,0,480
2,note_on,73,0,0
2,note_on,90,68,0
2,note_on,78,58,0
2,note_on,78,0,480
2,note_on,90,0,0
2,note_on,85,0,0
2,note_on,73,56,0
2,note_on,68,49,0
2,note_on,61,40,0
2,note_on,61,0,480
2,note_on,68,0,0
2,note_on,73,0,0
2,note_on,61,40,0
2,note_on,68,48,0
2,note_on,73,56,0
2,note_on,68,0,480
2,note_on,61,0,0
2,note_on,78,56,0
2,note_on,66,49,0
2,note_on,66,0,480
2,note_on,78,0,0
2,note_on,73,0,0
2,note_on,73,55,0
2,note_on,68,46,0
2,note_on,61,38,0
2,note_on,61,0,480
2,note_on,68,0,0
2,note_on,73,0,0
2,note_on,61,40,0
2,note_on,68,48,0
2,note_on,73,55,0
2,note_on,68,0,480
2,note_on,61,0,0
2,note_on,78,56,0
2,note_on,66,48,0
2,note_on,66,0,480
2,note_on,78,0,0
2,note_on,73,0,0
2,note_on,61,52,0
2,note_on,73,52,0
2,note_on,73,0,480
2,note_on,61,0,0
2,note_on,61,51,0
2,note_on,73,56,0
2,note_on,73,0,1440
2,note_on,61,0,0
2,note_on,58,46,0
2,note_on,70,53,0
2,note_on,70,0,5760
2,note_on,58,0,0
2,note_on,51,52,1440
2,note_on,63,63,0
2,note_on,63,0,90
2,note_on,51,0,0
2,note_on,51,55,150
2,note_on,63,66,0
2,note_on,63,0,90
2,note_on,51,0,0
2,note_on,51,57,150
2,note_on,63,67,0
2,note_on,63,0,90
2,note_on,51,0,0
2,note_on,51,59,150
2,note_on,63,68,0
2,note_on,63,0,90
2,note_on,51,0,0
2,note_on,51,69,150
2,note_on,63,80,0
2,note_on,63,0,480
2,note_on,51,0,0
2,note_on,53,75,0
2,note_on,59,75,0
2,note_on,63,75,0
2,note_on,65,90,0
2,note_on,65,0,480
2,note_on,53,0,0
2,note_on,59,0,0
2,note_on,63,0,0
2,note_on,65,63,0
2,note_on,71,63,0
2,note_on,75,63,0
2,note_on,77,76,0
2,note_on,77,0,240
2,note_on,65,0,0
2,note_on,71,0,0
2,note_on,75,0,0
2,note_on,63,61,0
2,note_on,75,74,0
2,note_on,75,0,240
2,note_on,63,0,0
2,note_on,65,63,0
2,note_on,70,63,0
2,note_on,74,63,0
2,note_on,77,76,0
2,note_on,77,0,240
2,note_on,65,0,0
2,note_on,70,0,0
2,note_on,74,0,0
2,note_on,66,59,0
2,note_on,78,72,0
2,note_on,78,0,240
2,note_on,66,0,0
2,note_on,54,52,0
2,note_on,66,63,0
2,note_on,66,0,90
2,note_on,54,0,0
2,note_on,54,55,150
2,note_on,66,66,0
2,note_on,66,0,90
2,note_on,54,0,0
2,note_on,54,57,150
2,note_on,66,67,0
2,note_on,66,0,90
2,note_on,54,0,0
2,note_on,54,57,150
2,note_on,66,66,0
2,note_on,66,0,90
2,note_on,54,0,0
2,note_on,54,68,150
2,note_on,66,79,0
2,note_on,66,0,480
2,note_on,54,0,0
2,note_on,56,72,0
2,note_on,62,73,0
2,note_on,66,75,0
2,note_on,68,87,0
2,note_on,68,0,480
2,note_on,56,0,0
2,note_on,62,0,0
2,note_on,66,0,0
2,note_on,68,63,0
2,note_on,74,63,0
2,note_on,78,63,0
2,note_on,80,76,0
2,note_on,80,0,240
2,note_on,68,0,0
2,note_on,74,0,0
2,note_on,78,0,0
2,note_on,66,61,0
2,note_on,78,74,0
2,note_on,78,0,240
2,note_on,66,0,0
2,note_on,68,63,0
2,note_on,73,63,0
2,note_on,77,63,0
2,note_on,80,76,0
2,note_on,80,0,240
2,note_on,68,0,0
2,note_on,73,0,0
2,note_on,77,0,0
2,note_on,69,58,0
2,note_on,81,71,0
2,note_on,81,0,240
2,note_on,69,0,0
2,note_on,57,47,0
2,note_on,69,56,0
2,note_on,69,0,90
2,note_on,57,0,0
2,note_on,57,51,150
2,note_on,69,60,0
2,note_on,69,0,90
2,note_on,57,0,0
2,note_on,57,54,150
2,note_on,69,64,0
2,note_on,69,0,90
2,note_on,57,0,0
2,note_on,57,57,150
2,note_on,69,68,0
2,note_on,69,0,90
2,note_on,57,0,0
2,note_on,57,68,150
2,note_on,69,80,0
2,note_on,69,0,480
2,note_on,57,0,0
2,note_on,59,53,0
2,note_on,65,53,0
2,note_on,69,53,0
2,note_on,71,64,0
2,note_on,71,0,90
2,note_on,59,0,0
2,note_on,65,0,0
2,note_on,69,0,0
2,note_on,59,56,150
2,note_on,65,56,0
2,note_on,69,56,0
2,note_on,71,67,0
2,note_on,71,0,90
2,note_on,59,0,0
2,note_on,65,0,0
2,note_on,69,0,0
2,note_on,59,60,150
2,note_on,65,60,0
2,note_on,69,60,0
2,note_on,71,71,0
2,note_on,71,0,90
2,note_on,59,0,0
2,note_on,65,0,0
2,note_on,69,0,0
2,note_on,59,60,150
2,note_on,65,60,0
2,note_on,69,72,0
2,note_on,71,72,0
2,note_on,71,0,90
2,note_on,59,0,0
2,note_on,65,0,0
2,note_on,69,0,0
2,note_on,59,68,150
2,note_on,65,68,0
2,note_on,69,68,0
2,note_on,71,81,0
2,note_on,71,0,480
2,note_on,59,0,0
2,note_on,65,0,0
2,note_on,69,0,0
2,note_on,60,54,0
2,note_on,63,54,0
2,note_on,69,54,0
2,note_on,72,66,0
2,note_on,72,0,90
2,note_on,60,0,0
2,note_on,63,0,0
2,note_on,69,0,0
2,note_on,60,57,150
2,note_on,63,57,0
2,note_on,69,57,0
2,note_on,72,69,0
2,note_on,72,0,90
2,note_on,60,0,0
2,note_on,63,0,0
2,note_on,69,0,0
2,note_on,60,63,150
2,note_on,63,63,0
2,note_on,72,74,0
2,note_on,72,0,90
2,note_on,63,0,0
2,note_on,60,0,0
2,note_on,60,55,150
2,note_on,63,55,0
2,note_on,72,76,0
2,note_on,72,0,90
2,note_on,63,0,0
2,note_on,60,0,0
2,note_on,66,73,150
2,note_on,60,73,0
2,note_on,63,73,0
2,note_on,72,86,0
2,note_on,72,0,480
2,note_on,66,0,0
2,note_on,60,0,0
2,note_on,63,0,0
2,note_on,64,69,0
2,note_on,66,69,0
2,note_on,69,69,0
2,note_on,76,81,0
2,note_on,76,0,480
2,note_on,64,0,0
2,note_on,66,0,0
2,note_on,69,0,0
2,note_on,62,69,0
2,note_on,67,69,0
2,note_on,74,81,0
2,note_on,74,0,480
2,note_on,67,0,0
2,note_on,62,0,0
2,note_on,50,72,0
2,note_on,62,85,0
2,note_on,62,0,480
2,note_on,50,0,0
2,note_on,61,61,0
2,note_on,61,0,240
2,note_on,61,59,0
2,note_on,61,0,240
2,note_on,66,66,0
2,note_on,73,78,0
2,note_on,73,0,240
2,note_on,66,0,0
2,note_on,66,75,0
2,note_on,66,0,240
2,note_on,69,69,0
2,note_on,78,82,0
2,note_on,78,0,240
2,note_on,69,0,0
2,note_on,69,73,0
2,note_on,69,0,240
2,note_on,73,65,0
2,note_on,81,76,0
2,note_on,81,0,240
2,note_on,73,0,0
2,note_on,73,71,0
2,note_on,73,0,240
2,note_on,78,66,0
2,note_on,85,78,0
2,note_on,85,0,240
2,note_on,78,0,0
2,note_on,78,75,0
2,note_on,78,0,240
2,note_on,81,69,0
2,note_on,90,82,0
2,note_on,90,0,240
2,note_on,81,0,0
2,note_on,81,75,0
2,note_on,81,0,240
2,note_on,85,69,0
2,note_on,81,69,0
2,note_on,93,82,0
2,note_on,93,0,480
2,note_on,81,0,0
2,note_on,85,0,0
2,note_on,85,66,0
2,note_on,80,66,0
2,note_on,92,78,0
2,note_on,92,0,480
2,note_on,80,0,0
2,note_on,85,0,0
2,note_on,85,73,0
2,note_on,80,61,0
2,note_on,73,61,0
2,note_on,73,0,480
2,note_on,80,0,0
2,note_on,85,0,0
2,note_on,73,61,0
2,note_on,80,61,0
2,note_on,85,75,0
2,note_on,80,0,480
2,note_on,73,0,0
2,note_on,90,68,0
2,note_on,78,58,0
2,note_on,78,0,480
2,note_on,90,0,0
2,note_on,85,0,0
2,note_on,73,58,0
2,note_on,68,48,0
2,note_on,61,40,0
2,note_on,61,0,480
2,note_on,68,0,0
2,note_on,73,0,0
2,note_on,61,42,0
2,note_on,68,50,0
2,note_on,73,58,0
2,note_on,68,0,480
2,note_on,61,0,0
2,note_on,78,56,0
2,note_on,66,49,0
2,note_on,66,0,480
2,note_on,78,0,0
2,note_on,73,0,0
2,note_on,73,56,0
2,note_on,68,46,0
2,note_on,61,38,0
2,note_on,61,0,480
2,note_on,68,0,0
2,note_on,73,0,0
2,note_on,61,40,0
2,note_on,68,48,0
2,note_on,73,56,0
2,note_on,68,0,480
2,note_on,61,0,0
2,note_on,78,55,0
2,note_on,66,46,0
2,note_on,66,0,480
2,note_on,78,0,0
2,note_on,73,0,0
2,note_on,61,69,0
2,note_on,73,81,0
2,note_on,73,0,960
2,note_on,61,0,0
2,note_on,62,64,0
2,note_on,74,75,0
2,note_on,74,0,240
2,note_on,62,0,0
2,note_on,61,59,0
2,note_on,73,71,0
2,note_on,73,0,240
2,note_on,61,0,0
2,note_on,56,63,0
2,note_on,68,73,0
2,note_on,68,0,240
2,note_on,56,0,0
2,note_on,57,54,0
2,note_on,69,65,0
2,note_on,69,0,240
2,note_on,57,0,0
2,note_on,54,58,0
2,note_on,66,70,0
2,note_on,66,0,1440
2,note_on,54,0,0
2,note_on,62,84,0
2,note_on,74,84,0
2,note_on,74,0,480
2,note_on,62,0,0
2,note_on,57,48,0
2,note_on,62,48,0
2,note_on,62,0,240
2,note_on,57,0,0
2,note_on,57,49,0
2,note_on,62,49,0
2,note_on,62,0,240
2,note_on,57,0,0
2,note_on,56,50,0
2,note_on,61,50,0
2,note_on,61,0,240
2,note_on,56,0,0
2,note_on,57,51,0
2,note_on,62,51,0
2,note_on,62,0,240
2,note_on,57,0,0
2,note_on,58,52,0
2,note_on,63,52,0
2,note_on,63,0,240
2,note_on,58,0,0
2,note_on,59,53,0
2,note_on,64,53,0
2,note_on,64,0,240
2,note_on,59,0,0
2,note_on,60,54,0
2,note_on,65,54,0
2,note_on,65,0,240
2,note_on,60,0,0
2,note_on,61,55,0
2,note_on,66,55,0
2,note_on,66,0,240
2,note_on,61,0,0
2,note_on,62,57,0
2,note_on,67,57,0
2,note_on,67,0,240
2,note_on,62,0,0
2,note_on,63,59,0
2,note_on,68,59,0
2,note_on,68,0,240
2,note_on,63,0,0
2,note_on,64,59,0
2,note_on,69,59,0
2,note_on,69,0,240
2,note_on,64,0,0
2,note_on,65,60,0
2,note_on,70,60,0
2,note_on,70,0,240
2,note_on,65,0,0
2,note_on,66,64,0
2,note_on,71,64,0
2,note_on,71,0,240
2,note_on,66,0,0
2,note_on,67,65,0
2,note_on,72,65,0
2,note_on,72,0,240
2,note_on,67,0,0
2,note_on,68,66,0
2,note_on,73,66,0
2,note_on,73,0,240
2,note_on,68,0,0
2,note_on,69,67,0
2,note_on,74,67,0
2,note_on,74,0,240
2,note_on,69,0,0
2,note_on,69,68,0
2,note_on,74,68,0
2,note_on,74,0,480
2,note_on,69,0,0
2,note_on,70,73,0
2,note_on,75,73,0
2,note_on,75,0,480
2,note_on,70,0,0
2,note_on,87,80,0
2,note_on,82,80,0
2,note_on,75,80,0
2,note_on,75,0,240
2,note_on,82,0,0
2,note_on,87,0,0
2,note_on,87,91,240
2,note_on,99,79,0
2,note_on,99,0,480
2,note_on,87,0,0
2,note_on,58,48,0
2,note_on,63,48,0
2,note_on,63,0,240
2,note_on,58,0,0
2,note_on,58,49,0
2,note_on,63,49,0
2,note_on,63,0,240
2,note_on,58,0,0
2,note_on,57,50,0
2,note_on,62,50,0
2,note_on,62,0,240
2,note_on,57,0,0
2,note_on,58,51,0
2,note_on,63,51,0
2,note_on,63,0,240
2,note_on,58,0,0
2,note_on,59,52,0
2,note_on,64,52,0
2,note_on,64,0,240
2,note_on,59,0,0
2,note_on,60,53,0
2,note_on,65,53,0
2,note_on,65,0,240
2,note_on,60,0,0
2,note_on,61,54,0
2,note_on,66,54,0
2,note_on,66,0,240
2,note_on,61,0,0
2,note_on,62,55,0
2,note_on,67,55,0
2,note_on,67,0,240
2,note_on,62,0,0
2,note_on,63,57,0
2,note_on,68,57,0
2,note_on,68,0,240
2,note_on,63,0,0
2,note_on,64,59,0
2,note_on,69,59,0
2,note_on,69,0,240
2,note_on,64,0,0
2,note_on,65,59,0
2,note_on,70,59,0
2,note_on,70,0,240
2,note_on,65,0,0
2,note_on,66,60,0
2,note_on,71,60,0
2,note_on,71,0,240
2,note_on,66,0,0
2,note_on,67,64,0
2,note_on,72,64,0
2,note_on,72,0,240
2,note_on,67,0,0
2,note_on,68,65,0
2,note_on,73,65,0
2,note_on,73,0,240
2,note_on,68,0,0
2,note_on,69,66,0
2,note_on,74,66,0
2,note_on,74,0,240
2,note_on,69,0,0
2,note_on,70,67,0
2,note_on,75,67,0
2,note_on,75,0,240
2,note_on,70,0,0
2,note_on,70,68,0
2,note_on,75,68,0
2,note_on,75,0,480
2,note_on,70,0,0
2,note_on,71,73,0
2,note_on,76,73,0
2,note_on,76,0,480
2,note_on,71,0,0
2,note_on,88,80,0
2,note_on,83,80,0
2,note_on,76,80,0
2,note_on,76,0,240
2,note_on,83,0,0
2,note_on,88,0,0
2,note_on,88,91,240
2,note_on,100,85,0
2,note_on,100,0,480
2,note_on,88,0,0
2,note_on,64,58,0
2,note_on,76,70,0
2,note_on,76,0,240
2,note_on,64,0,0
2,note_on,64,58,0
2,note_on,76,70,0
2,note_on,76,0,240
2,note_on,64,0,0
2,note_on,63,53,0
2,note_on,75,64,0
2,note_on,75,0,240
2,note_on,63,0,0
2,note_on,64,53,0
2,note_on,76,64,0
2,note_on,76,0,240
2,note_on,64,0,0
2,note_on,65,58,0
2,note_on,77,70,0
2,note_on,77,0,240
2,note_on,65,0,0
2,note_on,66,53,0
2,note_on,78,64,0
2,note_on,78,0,240
2,note_on,66,0,0
2,note_on,67,58,0
2,note_on,79,70,0
2,note_on,79,0,120
2,note_on,67,0,0
2,note_on,67,54,120
2,note_on,79,65,0
2,note_on,79,0,120
2,note_on,67,0,0
2,note_on,67,54,120
2,note_on,79,65,0
2,note_on,79,0,120
2,note_on,67,0,0
2,note_on,67,54,120
2,note_on,79,65,0
2,note_on,79,0,120
2,note_on,67,0,0
2,note_on,67,58,120
2,note_on,79,70,0
2,note_on,79,0,240
2,note_on,67,0,0
2,note_on,66,54,0
2,note_on,78,65,0
2,note_on,78,0,240
2,note_on,66,0,0
2,note_on,66,58,0
2,note_on,78,70,0
2,note_on,78,0,120
2,note_on,66,0,0
2,note_on,66,54,120
2,note_on,78,65,0
2,note_on,78,0,120
2,note_on,66,0,0
2,note_on,65,54,120
2,note_on,77,65,0
2,note_on,77,0,120
2,note_on,65,0,0
2,note_on,66,54,120
2,note_on,78,65,0
2,note_on,78,0,120
2,note_on,66,0,0
2,note_on,67,58,120
2,note_on,79,70,0
2,note_on,79,0,240
2,note_on,67,0,0
2,note_on,68,53,0
2,note_on,80,63,0
2,note_on,80,0,240
2,note_on,68,0,0
2,note_on,69,54,0
2,note_on,81,65,0
2,note_on,81,0,120
2,note_on,69,0,0
2,note_on,69,56,120
2,note_on,81,67,0
2,note_on,81,0,120
2,note_on,69,0,0
2,note_on,69,58,120
2,note_on,81,70,0
2,note_on,81,0,120
2,note_on,69,0,0
2,note_on,69,60,120
2,note_on,81,72,0
2,note_on,81,0,120
2,note_on,69,0,0
2,note_on,69,66,120
2,note_on,81,78,0
2,note_on,81,0,240
2,note_on,69,0,0
2,note_on,68,60,0
2,note_on,80,72,0
2,note_on,80,0,240
2,note_on,68,0,0
2,note_on,68,63,0
2,note_on,80,74,0
2,note_on,80,0,120
2,note_on,68,0,0
2,note_on,68,65,120
2,note_on,80,76,0
2,note_on,80,0,120
2,note_on,68,0,0
2,note_on,67,65,120
2,note_on,79,77,0
2,note_on,79,0,120
2,note_on,67,0,0
2,note_on,68,68,120
2,note_on,80,80,0
2,note_on,80,0,120
2,note_on,68,0,0
2,note_on,68,77,120
2,note_on,73,77,0
2,note_on,80,91,0
2,note_on,80,0,420
2,note_on,73,0,0
2,note_on,68,0,0
2,note_on,70,55,0
2,note_on,82,63,0
2,note_on,82,0,60
2,note_on,70,0,0
2,note_on,68,73,0
2,note_on,73,73,0
2,note_on,80,86,0
2,note_on,80,0,240
2,note_on,73,0,0
2,note_on,68,0,0
2,note_on,67,66,0
2,note_on,79,79,0
2,note_on,79,0,240
2,note_on,67,0,0
2,note_on,68,73,0
2,note_on,73,73,0
2,note_on,80,88,0
2,note_on,80,0,240
2,note_on,73,0,0
2,note_on,68,0,0
2,note_on,70,69,0
2,note_on,82,82,0
2,note_on,82,0,240
2,note_on,70,0,0
2,note_on,73,76,0
2,note_on,68,76,0
2,note_on,80,90,0
2,note_on,80,0,480
2,note_on,68,0,0
2,note_on,73,0,0
2,note_on,92,95,0
2,note_on,80,79,0
2,note_on,80,0,240
2,note_on,92,0,0
2,note_on,66,73,240
2,note_on,73,73,0
2,note_on,78,88,0
2,note_on,78,0,480
2,note_on,73,0,0
2,note_on,66,0,0
2,note_on,66,65,0
2,note_on,71,65,0
2,note_on,78,77,0
2,note_on,78,0,420
2,note_on,71,0,0
2,note_on,66,0,0
2,note_on,68,61,0
2,note_on,80,61,0
2,note_on,80,0,60
2,note_on,68,0,0
2,note_on,66,70,0
2,note_on,71,70,0
2,note_on,78,82,0
2,note_on,78,0,240
2,note_on,71,0,0
2,note_on,66,0,0
2,note_on,65,67,0
2,note_on,77,79,0
2,note_on,77,0,240
2,note_on,65,0,0
2,note_on,66,70,0
2,note_on,71,70,0
2,note_on,78,84,0
2,note_on,78,0,240
2,note_on,71,0,0
2,note_on,66,0,0
2,note_on,68,67,0
2,note_on,80,79,0
2,note_on,80,0,240
2,note_on,68,0,0
2,note_on,71,76,0
2,note_on,66,76,0
2,note_on,78,90,0
2,note_on,78,0,480
2,note_on,66,0,0
2,note_on,71,0,0
2,note_on,90,92,0
2,note_on,78,79,0
2,note_on,78,0,240
2,note_on,90,0,0
2,note_on,64,73,240
2,note_on,71,73,0
2,note_on,76,88,0
2,note_on,76,0,480
2,note_on,71,0,0
2,note_on,64,0,0
2,note_on,64,77,0
2,note_on,69,77,0
2,note_on,76,91,0
2,note_on,76,0,420
2,note_on,69,0,0
2,note_on,64,0,0
2,note_on,66,55,0
2,note_on,78,63,0
2,note_on,78,0,60
2,note_on,66,0,0
2,note_on,64,77,0
2,note_on,69,77,0
2,note_on,76,91,0
2,note_on,76,0,240
2,note_on,69,0,0
2,note_on,64,0,0
2,note_on,63,69,0
2,note_on,75,82,0
2,note_on,75,0,240
2,note_on,63,0,0
2,note_on,64,73,0
2,note_on,69,73,0
2,note_on,76,88,0
2,note_on,76,0,240
2,note_on,69,0,0
2,note_on,64,0,0
2,note_on,66,69,0
2,note_on,78,82,0
2,note_on,78,0,240
2,note_on,66,0,0
2,note_on,63,76,0
2,note_on,69,76,0
2,note_on,75,90,0
2,note_on,75,0,240
2,note_on,69,0,0
2,note_on,63,0,0
2,note_on,63,74,0
2,note_on,63,0,240
2,note_on,66,71,0
2,note_on,75,84,0
2,note_on,75,0,240
2,note_on,66,0,0
2,note_on,75,91,0
2,note_on,75,0,240
2,note_on,87,89,0
2,note_on,78,74,0
2,note_on,78,0,240
2,note_on,87,0,0
2,note_on,87,93,0
2,note_on,87,0,240
2,note_on,99,93,0
2,note_on,90,77,0
2,note_on,90,0,480
2,note_on,99,0,0
2,note_on,63,70,0
2,note_on,69,82,0
2,note_on,66,70,0
2,note_on,66,0,240
2,note_on,69,0,0
2,note_on,63,0,0
2,note_on,66,67,240
2,note_on,69,67,0
2,note_on,78,79,0
2,note_on,78,0,240
2,note_on,69,0,0
2,note_on,66,0,0
2,note_on,65,70,240
2,note_on,70,70,0
2,note_on,77,82,0
2,note_on,77,0,240
2,note_on,70,0,0
2,note_on,65,0,0
2,note_on,58,52,240
2,note_on,65,52,0
2,note_on,70,61,0
2,note_on,70,0,240
2,note_on,65,0,0
2,note_on,58,0,0
2,note_on,63,56,240
2,note_on,66,56,0
2,note_on,72,66,0
2,note_on,75,66,0
2,note_on,75,0,240
2,note_on,63,0,0
2,note_on,66,0,0
2,note_on,72,0,0
2,note_on,61,57,240
2,note_on,65,57,0
2,note_on,70,68,0
2,note_on,73,68,0
2,note_on,73,0,240
2,note_on,61,0,0
2,note_on,65,0,0
2,note_on,70,0,0
2,note_on,61,50,240
2,note_on,65,60,0
2,note_on,65,0,240
2,note_on,61,0,0
2,note_on,63,49,240
2,note_on,65,49,0
2,note_on,69,58,0
2,note_on,72,58,0
2,note_on,72,0,240
2,note_on,63,0,0
2,note_on,65,0,0
2,note_on,69,0,0
2,note_on,61,46,240
2,note_on,65,46,0
2,note_on,70,55,0
2,note_on,70,0,240
2,note_on,65,0,0
2,note_on,61,0,0
2,note_on,53,38,240
2,note_on,58,48,0
2,note_on,58,0,240
2,note_on,53,0,0
2,note_on,63,50,240
2,note_on,58,40,0
2,note_on,54,40,0
2,note_on,54,0,240
2,note_on,58,0,0
2,note_on,63,0,0
2,note_on,53,43,240
2,note_on,58,43,0
2,note_on,61,51,0
2,note_on,61,0,240
2,note_on,58,0,0
2,note_on,53,0,0
2,note_on,53,45,240
2,note_on,53,0,240
2,note_on,60,45,240
2,note_on,57,37,0
2,note_on,51,37,0
2,note_on,51,0,240
2,note_on,57,0,0
2,note_on,60,0,0
2,note_on,58,46,240
2,note_on,70,46,0
2,note_on,70,0,1920
2,note_on,58,0,0
2,note_on,70,46,0
2,note_on,82,46,0
2,note_on,82,0,480
2,note_on,70,0,0
2,note_on,94,46,0
2,note_on,82,46,0
2,note_on,82,0,480
2,note_on,94,0,0
2,note_on,70,46,0
2,note_on,58,46,0
2,note_on,58,0,1920
2,note_on,70,0,0
2,note_on,70,53,0
2,note_on,82,53,0
2,note_on,82,0,480
2,note_on,70,0,0
2,note_on,94,59,0
2,note_on,82,59,0
2,note_on,82,0,480
2,note_on,94,0,0
2,note_on,51,52,0
2,note_on,63,63,0
2,note_on,63,0,90
2,note_on,51,0,0
2,note_on,51,55,150
2,note_on,63,66,0
2,note_on,63,0,90
2,note_on,51,0,0
2,note_on,63,67,150
2,note_on,51,57,0
2,note_on,51,0,90
2,note_on,63,0,0
2,note_on,63,68,150
2,note_on,51,59,0
2,note_on,51,0,90
2,note_on,63,0,0
2,note_on,63,79,150
2,note_on,51,66,0
2,note_on,51,0,480
2,note_on,63,0,0
2,note_on,53,73,0
2,note_on,63,75,0
2,note_on,59,71,0
2,note_on,65,88,0
2,note_on,65,0,480
2,note_on,53,0,0
2,note_on,63,0,0
2,note_on,59,0,0
2,note_on,65,63,0
2,note_on,77,76,0
2,note_on,75,63,0
2,note_on,71,63,0
2,note_on,71,0,240
2,note_on,65,0,0
2,note_on,77,0,0
2,note_on,75,0,0
2,note_on,63,61,0
2,note_on,75,74,0
2,note_on,75,0,240
2,note_on,63,0,0
2,note_on,70,63,0
2,note_on,74,63,0
2,note_on,77,76,0
2,note_on,65,63,0
2,note_on,65,0,240
2,note_on,70,0,0
2,note_on,74,0,0
2,note_on,77,0,0
2,note_on,78,72,0
2,note_on,66,59,0
2,note_on,66,0,240
2,note_on,78,0,0
2,note_on,66,63,0
2,note_on,54,52,0
2,note_on,54,0,90
2,note_on,66,0,0
2,note_on,54,55,150
2,note_on,66,66,0
2,note_on,66,0,90
2,note_on,54,0,0
2,note_on,54,57,150
2,note_on,66,67,0
2,note_on,66,0,90
2,note_on,54,0,0
2,note_on,66,66,150
2,note_on,54,57,0
2,note_on,54,0,90
2,note_on,66,0,0
2,note_on,66,79,150
2,note_on,54,68,0
2,note_on,54,0,480
2,note_on,66,0,0
2,note_on,56,72,0
2,note_on,62,73,0
2,note_on,66,75,0
2,note_on,68,87,0
2,note_on,68,0,480
2,note_on,56,0,0
2,note_on,62,0,0
2,note_on,66,0,0
2,note_on,68,63,0
2,note_on,78,63,0
2,note_on,80,76,0
2,note_on,74,63,0
2,note_on,74,0,240
2,note_on,68,0,0
2,note_on,78,0,0
2,note_on,80,0,0
2,note_on,66,61,0
2,note_on,78,74,0
2,note_on,78,0,240
2,note_on,66,0,0
2,note_on,68,63,0
2,note_on,77,63,0
2,note_on,80,76,0
2,note_on,73,63,0
2,note_on,73,0,240
2,note_on,68,0,0
2,note_on,77,0,0
2,note_on,80,0,0
2,note_on,81,72,0
2,note_on,69,59,0
2,note_on,69,0,240
2,note_on,81,0,0
2,note_on,69,56,0
2,note_on,57,47,0
2,note_on,57,0,90
2,note_on,69,0,0
2,note_on,57,51,150
2,note_on,69,60,0
2,note_on,69,0,90
2,note_on,57,0,0
2,note_on,57,54,150
2,note_on,69,64,0
2,note_on,69,0,90
2,note_on,57,0,0
2,note_on,57,57,150
2,note_on,69,68,0
2,note_on,69,0,90
2,note_on,57,0,0
2,note_on,69,82,150
2,note_on,57,70,0
2,note_on,57,0,480
2,note_on,69,0,0
2,note_on,65,52,0
2,note_on,69,52,0
2,note_on,71,63,0
2,note_on,59,52,0
2,note_on,59,0,90
2,note_on,65,0,0
2,note_on,69,0,0
2,note_on,71,0,0
2,note_on,59,55,150
2,note_on,69,55,0
2,note_on,65,55,0
2,note_on,71,66,0
2,note_on,71,0,90
2,note_on,59,0,0
2,note_on,69,0,0
2,note_on,65,0,0
2,note_on,65,60,150
2,note_on,59,60,0
2,note_on,71,71,0
2,note_on,69,60,0
2,note_on,69,0,90
2,note_on,65,0,0
2,note_on,59,0,0
2,note_on,71,0,0
2,note_on,65,61,150
2,note_on,69,73,0
2,note_on,71,73,0
2,note_on,59,61,0
2,note_on,59,0,90
2,note_on,65,0,0
2,note_on,69,0,0
2,note_on,71,0,0
2,note_on,59,68,150
2,note_on,65,68,0
2,note_on,69,68,0
2,note_on,71,81,0
2,note_on,71,0,480
2,note_on,59,0,0
2,note_on,65,0,0
2,note_on,69,0,0
2,note_on,60,53,0
2,note_on,63,53,0
2,note_on,72,64,0
2,note_on,69,53,0
2,note_on,69,0,90
2,note_on,60,0,0
2,note_on,63,0,0
2,note_on,72,0,0
2,note_on,63,56,150
2,note_on,60,56,0
2,note_on,72,68,0
2,note_on,69,56,0
2,note_on,69,0,90
2,note_on,63,0,0
2,note_on,60,0,0
2,note_on,72,0,0
2,note_on,63,61,150
2,note_on,72,73,0
2,note_on,60,61,0
2,note_on,60,0,90
2,note_on,72,0,0
2,note_on,63,0,0
2,note_on,63,64,150
2,note_on,60,64,0
2,note_on,72,75,0
2,note_on,72,0,90
2,note_on,60,0,0
2,note_on,63,0,0
2,note_on,66,72,150
2,note_on,63,72,0
2,note_on,72,84,0
2,note_on,60,72,0
2,note_on,60,0,480
2,note_on,66,0,0
2,note_on,63,0,0
2,note_on,72,0,0
2,note_on,66,78,0
2,note_on,63,78,0
2,note_on,69,78,0
2,note_on,75,93,0
2,note_on,75,0,480
2,note_on,66,0,0
2,note_on,63,0,0
2,note_on,69,0,0
2,note_on,75,80,0
2,note_on,78,80,0
2,note_on,81,80,0
2,note_on,90,94,0
2,note_on,90,0,240
2,note_on,75,0,0
2,note_on,78,0,0
2,note_on,81,0,0
2,note_on,74,94,240
2,note_on,62,78,0
2,note_on,66,78,0
2,note_on,66,0,480
2,note_on,62,0,0
2,note_on,74,0,0
2,note_on,61,74,0
2,note_on,66,74,0
2,note_on,73,88,0
2,note_on,73,0,480
2,note_on,66,0,0
2,note_on,61,0,0
2,note_on,78,81,0
2,note_on,90,98,0
2,note_on,90,0,240
2,note_on,78,0,0
2,note_on,66,71,240
2,note_on,62,71,0
2,note_on,74,84,0
2,note_on,74,0,480
2,note_on,62,0,0
2,note_on,66,0,0
2,note_on,74,81,0
2,note_on,86,98,0
2,note_on,86,0,240
2,note_on,74,0,0
2,note_on,68,71,240
2,note_on,66,66,0
2,note_on,62,64,0
2,note_on,71,84,0
2,note_on,71,0,480
2,note_on,68,0,0
2,note_on,66,0,0
2,note_on,62,0,0
2,note_on,71,81,0
2,note_on,83,98,0
2,note_on,83,0,240
2,note_on,71,0,0
2,note_on,66,71,240
2,note_on,61,71,0
2,note_on,69,84,0
2,note_on,69,0,480
2,note_on,61,0,0
2,note_on,66,0,0
2,note_on,69,80,0
2,note_on,81,96,0
2,note_on,81,0,240
2,note_on,69,0,0
2,note_on,66,71,240
2,note_on,61,71,0
2,note_on,68,84,0
2,note_on,68,0,480
2,note_on,61,0,0
2,note_on,66,0,0
2,note_on,68,78,0
2,note_on,80,94,0
2,note_on,80,0,240
2,note_on,68,0,0
2,note_on,65,67,240
2,note_on,61,67,0
2,note_on,68,79,0
2,note_on,68,0,480
2,note_on,61,0,0
2,note_on,65,0,0
2,note_on,85,80,0
2,note_on,80,67,0
2,note_on,73,63,0
2,note_on,73,0,240
2,note_on,80,0,0
2,note_on,85,0,0
2,note_on,73,63,240
2,note_on,80,67,0
2,note_on,85,82,0
2,note_on,85,0,480
2,note_on,80,0,0
2,note_on,73,0,0
2,note_on,90,74,0
2,note_on,78,64,0
2,note_on,78,0,480
2,note_on,90,0,0
2,note_on,73,46,0
2,note_on,68,38,0
2,note_on,61,29,0
2,note_on,61,0,240
2,note_on,68,0,0
2,note_on,73,0,0
2,note_on,61,30,240
2,note_on,68,40,0
2,note_on,73,46,0
2,note_on,73,0,480
2,note_on,68,0,0
2,note_on,61,0,0
2,note_on,78,43,0
2,note_on,66,37,0
2,note_on,66,0,480
2,note_on,78,0,0
2,note_on,73,42,0
2,note_on,68,31,0
2,note_on,61,27,0
2,note_on,61,0,480
2,note_on,68,0,0
2,note_on,73,0,0
2,note_on,61,35,0
2,note_on,73,46,0
2,note_on,73,0,480
2,note_on,61,0,0
2,note_on,78,43,0
2,note_on,66,34,0
2,note_on,66,0,480
2,note_on,78,0,0
2,note_on,73,39,0
2,note_on,68,29,0
2,note_on,61,25,0
2,note_on,61,0,480
2,note_on,68,0,0
2,note_on,73,0,0
2,note_on,61,32,0
2,note_on,73,43,0
2,note_on,73,0,480
2,note_on,61,0,0
2,note_on,78,40,0
2,note_on,66,31,0
2,note_on,66,0,480
2,note_on,78,0,0
2,note_on,73,36,0
2,note_on,68,27,0
2,note_on,61,23,0
2,note_on,61,0,480
2,note_on,68,0,0
2,note_on,73,0,0
2,note_on,61,29,0
2,note_on,73,39,0
2,note_on,73,0,480
2,note_on,61,0,0
2,note_on,78,37,0
2,note_on,66,29,0
2,note_on,66,0,480
2,note_on,78,0,0
2,note_on,73,33,0
2,note_on,68,26,0
2,note_on,61,21,0
2,note_on,61,0,480
2,note_on,68,0,0
2,note_on,73,0,0
2,note_on,61,27,0
2,note_on,73,37,0
2,note_on,73,0,480
2,note_on,61,0,0
2,note_on,78,35,0
2,note_on,66,27,0
2,note_on,66,0,480
2,note_on,78,0,0
2,note_on,73,32,0
2,note_on,68,24,0
2,note_on,61,20,0
2,note_on,61,0,480
2,note_on,68,0,0
2,note_on,73,0,0
2,note_on,61,27,0
2,note_on,73,35,0
2,note_on,73,0,480
2,note_on,61,0,0
2,note_on,78,33,0
2,note_on,66,27,0
2,note_on,66,0,480
2,note_on,78,0,0
2,note_on,73,30,0
2,note_on,68,23,0
2,note_on,61,19,0
2,note_on,61,0,480
2,note_on,68,0,0
2,note_on,73,0,0
2,note_on,61,25,0
2,note_on,73,33,0
2,note_on,73,0,480
2,note_on,61,0,0
2,note_on,78,31,0
2,note_on,66,25,0
2,note_on,66,0,480
2,note_on,78,0,0
2,note_on,61,19,0
2,note_on,68,23,0
2,note_on,73,30,0
2,note_on,73,0,480
2,note_on,68,0,0
2,note_on,61,0,0
2,note_on,58,23,480
2,note_on,58,0,480
2,note_on,58,23,0
2,note_on,58,0,480
2,note_on,58,17,480
2,note_on,66,22,0
2,note_on,66,0,480
2,note_on,58,0,0
2,note_on,58,17,0
2,note_on,66,22,0
2,note_on,66,0,480
2,note_on,58,0,0
2,note_on,59,20,480
2,note_on,59,0,480
2,note_on,65,23,0
2,note_on,59,19,0
2,note_on,59,0,480
2,note_on,65,0,0
2,note_on,58,20,480
2,note_on,66,24,0
2,note_on,66,0,480
2,note_on,58,0,0
2,note_on,58,20,0
2,note_on,66,24,0
2,note_on,66,0,480
2,note_on,58,0,0
2,note_on,58,19,0
2,note_on,66,23,0
2,note_on,66,0,480
2,note_on,58,0,0
2,note_on,61,18,0
2,note_on,66,22,0
2,note_on,66,0,480
2,note_on,61,0,0
2,note_on,61,18,0
2,note_on,66,22,0
2,note_on,66,0,480
2,note_on,61,0,0
2,note_on,61,19,0
2,note_on,66,23,0
2,note_on,66,0,480
2,note_on,61,0,0
2,note_on,56,18,0
2,note_on,61,22,0
2,note_on,61,0,480
2,note_on,56,0,0
2,note_on,54,18,0
2,note_on,61,22,0
2,note_on,61,0,480
2,note_on,54,0,0
2,note_on,54,19,0
2,note_on,61,23,0
2,note_on,61,0,480
2,note_on,54,0,0
2,note_on,56,18,0
2,note_on,61,22,0
2,note_on,61,0,480
2,note_on,56,0,0
2,note_on,54,18,0
2,note_on,61,22,0
2,note_on,61,0,480
2,note_on,54,0,0
2,note_on,54,19,0
2,note_on,61,23,0
2,note_on,61,0,480
2,note_on,54,0,0
2,note_on,56,18,0
2,note_on,61,22,0
2,note_on,61,0,480
2,note_on,56,0,0
2,note_on,54,19,0
2,note_on,61,23,0
2,note_on,61,0,480
2,note_on,54,0,0
2,note_on,54,19,0
2,note_on,61,23,0
2,note_on,61,0,480
2,note_on,54,0,0
2,note_on,54,23,2400
2,note_on,61,23,0
2,note_on,66,23,0
2,note_on,70,23,0
2,note_on,70,0,6240
2,note_on,54,0,0
2,note_on,61,0,0
2,note_on,66,0,0
3,note_on,34,40,960
3,note_on,46,47,0
3,note_on,46,0,480
3,note_on,34,0,0
3,note_on,27,36,0
3,note_on,39,42,0
3,note_on,39,0,480
3,note_on,27,0,0
3,note_on,28,36,0
3,note_on,40,42,0
3,note_on,40,0,90
3,note_on,28,0,0
3,note_on,29,36,150
3,note_on,41,45,0
3,note_on,41,0,90
3,note_on,29,0,0
3,note_on,30,42,150
3,note_on,42,50,0
3,note_on,42,0,480
3,note_on,30,0,0
3,note_on,32,50,0
3,note_on,44,59,0
3,note_on,44,0,264
3,note_on,32,0,0
3,note_on,44,37,0
3,note_on,51,37,30
3,note_on,53,37,4
3,note_on,59,46,30
3,note_on,59,0,333
3,note_on,44,0,0
3,note_on,51,0,0
3,note_on,53,0,0
3,note_on,46,37,0
3,note_on,53,37,30
3,note_on,56,37,13
3,note_on,62,46,30
3,note_on,56,0,453
3,note_on,46,0,27
3,note_on,53,0,0
3,note_on,62,0,0
3,note_on,30,38,0
3,note_on,42,44,0
3,note_on,42,0,480
3,note_on,30,0,0
3,note_on,31,38,0
3,note_on,43,44,0
3,note_on,43,0,90
3,note_on,31,0,0
3,note_on,32,35,150
3,note_on,44,43,0
3,note_on,44,0,90
3,note_on,32,0,0
3,note_on,33,43,150
3,note_on,45,51,0
3,note_on,45,0,480
3,note_on,33,0,0
3,note_on,35,53,0
3,note_on,47,63,0
3,note_on,47,0,312
3,note_on,35,0,0
3,note_on,48,39,0
3,note_on,54,39,30
3,note_on,56,39,30
3,note_on,62,48,0
3,note_on,62,0,351
3,note_on,48,0,0
3,note_on,54,0,0
3,note_on,56,0,0
3,note_on,49,39,0
3,note_on,56,39,30
3,note_on,59,39,15
3,note_on,65,48,30
3,note_on,65,0,480
3,note_on,49,0,0
3,note_on,56,0,0
3,note_on,59,0,0
3,note_on,33,36,0
3,note_on,45,42,0
3,note_on,45,0,480
3,note_on,33,0,0
3,note_on,35,36,0
3,note_on,47,42,0
3,note_on,47,0,90
3,note_on,35,0,0
3,note_on,36,37,150
3,note_on,48,45,0
3,note_on,48,0,90
3,note_on,36,0,0
3,note_on,37,46,150
3,note_on,49,54,0
3,note_on,49,0,480
3,note_on,37,0,0
3,note_on,38,40,0
3,note_on,50,47,0
3,note_on,50,0,480
3,note_on,38,0,0
3,note_on,39,38,0
3,note_on,51,44,0
3,note_on,51,0,90
3,note_on,39,0,0
3,note_on,40,37,150
3,note_on,52,45,0
3,note_on,52,0,90
3,note_on,40,0,0
3,note_on,41,45,150
3,note_on,53,53,0
3,note_on,53,0,480
3,note_on,41,0,0
3,note_on,42,40,0
3,note_on,54,47,0
3,note_on,54,0,480
3,note_on,42,0,0
3,note_on,44,38,0
3,note_on,56,44,0
3,note_on,56,0,90
3,note_on,44,0,0
3,note_on,45,37,150
3,note_on,57,45,0
3,note_on,57,0,90
3,note_on,45,0,0
3,note_on,46,47,150
3,note_on,58,56,0
3,note_on,58,0,480
3,note_on,46,0,0
3,note_on,47,48,0
3,note_on,59,57,0
3,note_on,59,0,381
3,note_on,47,0,0
3,note_on,35,43,0
3,note_on,47,52,0
3,note_on,47,0,480
3,note_on,35,0,0
3,note_on,36,43,0
3,note_on,48,52,0
3,note_on,48,0,463
3,note_on,36,0,0
3,note_on,37,50,0
3,note_on,49,60,0
3,note_on,49,0,282
3,note_on,37,0,0
3,note_on,49,48,0
3,note_on,58,57,0
3,note_on,58,0,480
3,note_on,49,0,0
3,note_on,61,57,0
3,note_on,54,48,0
3,note_on,54,0,480
3,note_on,61,0,0
3,note_on,58,42,0
3,note_on,66,60,0
3,note_on,66,0,254
3,note_on,58,0,0
3,note_on,61,40,0
3,note_on,70,57,0
3,note_on,70,0,480
3,note_on,61,0,0
3,note_on,73,57,0
3,note_on,66,40,0
3,note_on,66,0,480
3,note_on,73,0,0
3,note_on,70,48,0
3,note_on,78,57,0
3,note_on,78,0,480
3,note_on,70,0,0
3,note_on,71,46,0
3,note_on,77,51,0
3,note_on,77,0,80
3,note_on,71,0,0
3,note_on,61,42,0
3,note_on,65,42,0
3,note_on,71,51,0
3,note_on,71,0,480
3,note_on,65,0,0
3,note_on,61,0,0
3,note_on,61,46,0
3,note_on,65,46,0
3,note_on,71,52,0
3,note_on,71,0,480
3,note_on,65,0,0
3,note_on,54,38,0
3,note_on,70,47,0
3,note_on,70,0,455
3,note_on,54,0,0
3,note_on,61,0,0
3,note_on,49,28,0
3,note_on,53,33,0
3,note_on,59,38,0
3,note_on,59,0,320
3,note_on,53,0,0
3,note_on,49,0,0
3,note_on,49,31,0
3,note_on,53,34,0
3,note_on,59,42,0
3,note_on,59,0,480
3,note_on,53,0,0
3,note_on,42,32,0
3,note_on,58,38,0
3,note_on,58,0,470
3,note_on,42,0,0
3,note_on,49,0,0
3,note_on,49,29,0
3,note_on,53,31,0
3,note_on,59,36,0
3,note_on,59,0,320
3,note_on,53,0,0
3,note_on,49,0,0
3,note_on,49,30,0
3,note_on,53,34,0
3,note_on,59,38,0
3,note_on,59,0,480
3,note_on,53,0,0
3,note_on,42,32,0
3,note_on,58,38,0
3,note_on,58,0,456
3,note_on,42,0,0
3,note_on,49,0,0
3,note_on,44,36,3360
3,note_on,56,43,0
3,note_on,56,0,480
3,note_on,44,0,0
3,note_on,42,30,0
3,note_on,54,37,0
3,note_on,54,0,480
3,note_on,42,0,0
3,note_on,39,30,0
3,note_on,51,37,0
3,note_on,51,0,480
3,note_on,39,0,0
3,note_on,42,36,0
3,note_on,54,43,0
3,note_on,54,0,480
3,note_on,42,0,0
3,note_on,41,30,0
3,note_on,53,37,0
3,note_on,53,0,480
3,note_on,41,0,0
3,note_on,37,30,0
3,note_on,49,37,0
3,note_on,49,0,480
3,note_on,37,0,0
3,note_on,39,36,0
3,note_on,51,43,0
3,note_on,51,0,480
3,note_on,39,0,0
3,note_on,37,30,0
3,note_on,49,37,0
3,note_on,49,0,480
3,note_on,37,0,0
3,note_on,34,30,0
3,note_on,46,37,0
3,note_on,46,0,480
3,note_on,34,0,0
3,note_on,35,32,0
3,note_on,47,39,0
3,note_on,47,0,480
3,note_on,35,0,0
3,note_on,34,29,0
3,note_on,46,35,0
3,note_on,46,0,480
3,note_on,34,0,0
3,note_on,30,29,0
3,note_on,42,35,0
3,note_on,42,0,480
3,note_on,30,0,0
3,note_on,27,40,0
3,note_on,39,47,0
3,note_on,39,0,480
3,note_on,27,0,0
3,note_on,28,38,0
3,note_on,40,44,0
3,note_on,40,0,90
3,note_on,28,0,0
3,note_on,29,38,150
3,note_on,41,47,0
3,note_on,41,0,90
3,note_on,29,0,0
3,note_on,30,47,150
3,note_on,42,56,0
3,note_on,42,0,480
3,note_on,30,0,0
3,note_on,32,56,0
3,note_on,44,67,0
3,note_on,44,0,354
3,note_on,32,0,0
3,note_on,44,43,0
3,note_on,51,43,0
3,note_on,53,43,0
3,note_on,59,51,0
3,note_on,59,0,480
3,note_on,44,0,0
3,note_on,51,0,0
3,note_on,53,0,0
3,note_on,46,43,0
3,note_on,53,43,0
3,note_on,56,43,0
3,note_on,62,51,0
3,note_on,62,0,468
3,note_on,46,0,0
3,note_on,53,0,0
3,note_on,56,0,0
3,note_on,30,40,0
3,note_on,42,47,0
3,note_on,42,0,480
3,note_on,30,0,0
3,note_on,31,38,0
3,note_on,43,44,0
3,note_on,43,0,90
3,note_on,31,0,0
3,note_on,32,35,150
3,note_on,44,43,0
3,note_on,44,0,90
3,note_on,32,0,0
3,note_on,33,46,150
3,note_on,45,54,0
3,note_on,45,0,480
3,note_on,33,0,0
3,note_on,35,56,0
3,note_on,47,67,0
3,note_on,47,0,402
3,note_on,35,0,0
3,note_on,48,43,0
3,note_on,54,43,0
3,note_on,56,43,0
3,note_on,62,51,0
3,note_on,62,0,480
3,note_on,48,0,0
3,note_on,54,0,0
3,note_on,56,0,0
3,note_on,49,43,0
3,note_on,56,43,0
3,note_on,59,43,0
3,note_on,65,51,0
3,note_on,65,0,467
3,note_on,49,0,0
3,note_on,56,0,0
3,note_on,59,0,0
3,note_on,33,36,0
3,note_on,45,42,0
3,note_on,45,0,480
3,note_on,33,0,0
3,note_on,35,36,0
3,note_on,47,42,0
3,note_on,47,0,90
3,note_on,35,0,0
3,note_on,36,37,150
3,note_on,48,45,0
3,note_on,48,0,90
3,note_on,36,0,0
3,note_on,37,46,150
3,note_on,49,54,0
3,note_on,49,0,480
3,note_on,37,0,0
3,note_on,38,40,0
3,note_on,50,47,0
3,note_on,50,0,480
3,note_on,38,0,0
3,note_on,39,40,0
3,note_on,51,47,0
3,note_on,51,0,90
3,note_on,39,0,0
3,note_on,40,39,150
3,note_on,52,48,0
3,note_on,52,0,90
3,note_on,40,0,0
3,note_on,41,45,150
3,note_on,53,53,0
3,note_on,53,0,480
3,note_on,41,0,0
3,note_on,42,42,0
3,note_on,54,49,0
3,note_on,54,0,480
3,note_on,42,0,0
3,note_on,43,42,0
3,note_on,55,49,0
3,note_on,55,0,90
3,note_on,43,0,0
3,note_on,44,40,150
3,note_on,56,50,0
3,note_on,56,0,90
3,note_on,44,0,0
3,note_on,45,49,150
3,note_on,57,58,0
3,note_on,57,0,480
3,note_on,45,0,0
3,note_on,54,50,0
3,note_on,48,50,0
3,note_on,60,59,0
3,note_on,60,0,381
3,note_on,48,0,0
3,note_on,54,0,0
3,note_on,55,45,0
3,note_on,47,45,0
3,note_on,59,54,0
3,note_on,59,0,272
3,note_on,47,0,0
3,note_on,55,0,0
3,note_on,26,49,0
3,note_on,38,59,0
3,note_on,38,0,462
3,note_on,26,0,0
3,note_on,49,61,0
3,note_on,25,50,0
3,note_on,37,60,0
3,note_on,49,0,23
3,note_on,37,0,240
3,note_on,25,0,0
3,note_on,49,48,0
3,note_on,57,57,0
3,note_on,57,0,480
3,note_on,49,0,0
3,note_on,61,57,0
3,note_on,54,48,0
3,note_on,54,0,480
3,note_on,61,0,0
3,note_on,57,42,0
3,note_on,66,60,0
3,note_on,66,0,480
3,note_on,57,0,0
3,note_on,61,40,0
3,note_on,69,57,0
3,note_on,69,0,480
3,note_on,61,0,0
3,note_on,73,57,0
3,note_on,66,40,0
3,note_on,66,0,480
3,note_on,73,0,0
3,note_on,69,48,0
3,note_on,78,57,0
3,note_on,78,0,480
3,note_on,69,0,0
3,note_on,71,46,0
3,note_on,77,54,0
3,note_on,77,0,463
3,note_on,71,0,0
3,note_on,61,42,0
3,note_on,65,42,0
3,note_on,71,51,0
3,note_on,71,0,389
3,note_on,65,0,0
3,note_on,61,0,0
3,note_on,61,46,0
3,note_on,65,46,0
3,note_on,71,54,0
3,note_on,71,0,480
3,note_on,65,0,0
3,note_on,54,38,0
3,note_on,69,47,0
3,note_on,69,0,463
3,note_on,54,0,0
3,note_on,61,0,0
3,note_on,49,28,0
3,note_on,53,33,0
3,note_on,59,38,0
3,note_on,59,0,320
3,note_on,53,0,0
3,note_on,49,0,0
3,note_on,49,30,0
3,note_on,53,36,0
3,note_on,59,42,0
3,note_on,59,0,480
3,note_on,53,0,0
3,note_on,42,32,0
3,note_on,57,38,0
3,note_on,57,0,473
3,note_on,42,0,0
3,note_on,49,0,0
3,note_on,49,26,0
3,note_on,53,31,0
3,note_on,59,36,0
3,note_on,59,0,343
3,note_on,53,0,0
3,note_on,49,0,0
3,note_on,49,29,0
3,note_on,53,34,0
3,note_on,59,38,0
3,note_on,59,0,480
3,note_on,53,0,0
3,note_on,42,30,0
3,note_on,57,37,0
3,note_on,57,0,469
3,note_on,42,0,0
3,note_on,49,0,0
3,note_on,37,57,0
3,note_on,49,69,0
3,note_on,49,0,777
3,note_on,37,0,0
3,note_on,38,52,0
3,note_on,50,63,0
3,note_on,50,0,114
3,note_on,38,0,0
3,note_on,37,48,0
3,note_on,49,57,0
3,note_on,49,0,240
3,note_on,37,0,0
3,note_on,32,53,0
3,note_on,44,64,0
3,note_on,44,0,80
3,note_on,32,0,0
3,note_on,33,47,0
3,note_on,45,55,0
3,note_on,45,0,240
3,note_on,33,0,0
3,note_on,30,52,0
3,note_on,42,63,0
3,note_on,42,0,1227
3,note_on,30,0,0
3,note_on,26,72,0
3,note_on,38,72,0
3,note_on,38,0,46
3,note_on,26,0,0
3,note_on,54,38,0
3,note_on,54,0,240
3,note_on,54,39,0
3,note_on,54,0,240
3,note_on,53,40,0
3,note_on,53,0,240
3,note_on,54,42,0
3,note_on,54,0,240
3,note_on,55,43,0
3,note_on,55,0,240
3,note_on,56,45,0
3,note_on,56,0,240
3,note_on,57,46,0
3,note_on,57,0,240
3,note_on,58,47,0
3,note_on,58,0,240
3,note_on,59,49,0
3,note_on,59,0,240
3,note_on,60,50,0
3,note_on,60,0,240
3,note_on,61,51,0
3,note_on,61,0,240
3,note_on,62,53,0
3,note_on,62,0,240
3,note_on,63,55,0
3,note_on,63,0,240
3,note_on,64,55,0
3,note_on,64,0,240
3,note_on,65,55,0
3,note_on,65,0,240
3,note_on,66,57,0
3,note_on,66,0,240
3,note_on,66,58,0
3,note_on,66,0,480
3,note_on,67,64,0
3,note_on,67,0,23
3,note_on,67,74,0
3,note_on,63,74,0
3,note_on,58,74,0
3,note_on,55,74,0
3,note_on,55,0,240
3,note_on,67,0,0
3,note_on,63,0,0
3,note_on,58,0,0
3,note_on,39,79,240
3,note_on,51,79,0
3,note_on,51,0,23
3,note_on,39,0,0
3,note_on,55,38,0
3,note_on,55,0,240
3,note_on,55,39,0
3,note_on,55,0,240
3,note_on,54,40,0
3,note_on,54,0,240
3,note_on,55,42,0
3,note_on,55,0,240
3,note_on,56,43,0
3,note_on,56,0,240
3,note_on,57,45,0
3,note_on,57,0,240
3,note_on,58,46,0
3,note_on,58,0,240
3,note_on,59,47,0
3,note_on,59,0,240
3,note_on,60,49,0
3,note_on,60,0,240
3,note_on,61,50,0
3,note_on,61,0,240
3,note_on,62,51,0
3,note_on,62,0,240
3,note_on,63,53,0
3,note_on,63,0,240
3,note_on,64,55,0
3,note_on,64,0,240
3,note_on,65,55,0
3,note_on,65,0,240
3,note_on,66,55,0
3,note_on,66,0,240
3,note_on,67,57,0
3,note_on,67,0,240
3,note_on,67,58,0
3,note_on,67,0,480
3,note_on,68,64,0
3,note_on,68,0,480
3,note_on,68,74,0
3,note_on,64,74,0
3,note_on,59,74,0
3,note_on,56,74,0
3,note_on,56,0,103
3,note_on,68,0,0
3,note_on,64,0,0
3,note_on,59,0,0
3,note_on,40,79,240
3,note_on,52,79,0
3,note_on,52,0,480
3,note_on,40,0,0
3,note_on,56,50,0
3,note_on,59,59,0
3,note_on,59,0,228
3,note_on,56,0,0
3,note_on,56,49,0
3,note_on,59,58,0
3,note_on,59,0,240
3,note_on,56,0,0
3,note_on,55,46,0
3,note_on,58,54,0
3,note_on,58,0,240
3,note_on,55,0,0
3,note_on,56,46,0
3,note_on,59,54,0
3,note_on,59,0,240
3,note_on,56,0,0
3,note_on,57,49,0
3,note_on,60,58,0
3,note_on,60,0,240
3,note_on,57,0,0
3,note_on,58,49,0
3,note_on,61,58,0
3,note_on,61,0,240
3,note_on,58,0,0
3,note_on,59,49,0
3,note_on,62,58,0
3,note_on,62,0,120
3,note_on,59,0,0
3,note_on,59,45,120
3,note_on,62,53,0
3,note_on,62,0,120
3,note_on,59,0,0
3,note_on,59,45,120
3,note_on,62,53,0
3,note_on,62,0,120
3,note_on,59,0,0
3,note_on,59,46,120
3,note_on,62,54,0
3,note_on,62,0,120
3,note_on,59,0,0
3,note_on,59,49,120
3,note_on,62,58,0
3,note_on,62,0,240
3,note_on,59,0,0
3,note_on,58,46,0
3,note_on,61,54,0
3,note_on,61,0,240
3,note_on,58,0,0
3,note_on,58,49,0
3,note_on,61,58,0
3,note_on,61,0,120
3,note_on,58,0,0
3,note_on,58,46,120
3,note_on,61,54,0
3,note_on,61,0,120
3,note_on,58,0,0
3,note_on,57,46,120
3,note_on,60,54,0
3,note_on,60,0,120
3,note_on,57,0,0
3,note_on,58,46,120
3,note_on,61,54,0
3,note_on,61,0,120
3,note_on,58,0,0
3,note_on,59,49,120
3,note_on,62,58,0
3,note_on,62,0,240
3,note_on,59,0,0
3,note_on,60,46,0
3,note_on,63,54,0
3,note_on,63,0,240
3,note_on,60,0,0
3,note_on,61,49,0
3,note_on,64,58,0
3,note_on,64,0,120
3,note_on,61,0,0
3,note_on,61,51,120
3,note_on,64,60,0
3,note_on,64,0,120
3,note_on,61,0,0
3,note_on,61,53,120
3,note_on,64,63,0
3,note_on,64,0,120
3,note_on,61,0,0
3,note_on,61,53,120
3,note_on,64,64,0
3,note_on,64,0,120
3,note_on,61,0,0
3,note_on,61,56,120
3,note_on,64,67,0
3,note_on,64,0,240
3,note_on,61,0,0
3,note_on,60,50,0
3,note_on,63,59,0
3,note_on,63,0,240
3,note_on,60,0,0
3,note_on,60,50,0
3,note_on,63,59,0
3,note_on,63,0,120
3,note_on,60,0,0
3,note_on,60,52,120
3,note_on,63,61,0
3,note_on,63,0,120
3,note_on,60,0,0
3,note_on,59,53,120
3,note_on,62,64,0
3,note_on,62,0,120
3,note_on,59,0,0
3,note_on,60,54,120
3,note_on,63,65,0
3,note_on,63,0,120
3,note_on,60,0,0
3,note_on,59,56,120
3,note_on,65,67,0
3,note_on,61,56,0
3,note_on,61,0,409
3,note_on,65,0,0
3,note_on,59,0,0
3,note_on,37,49,0
3,note_on,49,59,0
3,note_on,49,0,480
3,note_on,37,0,0
3,note_on,65,65,0
3,note_on,61,54,0
3,note_on,59,54,0
3,note_on,59,0,480
3,note_on,61,0,0
3,note_on,65,0,0
3,note_on,64,67,0
3,note_on,61,56,0
3,note_on,59,56,0
3,note_on,54,56,0
3,note_on,54,0,240
3,note_on,64,0,0
3,note_on,61,0,0
3,note_on,59,0,0
3,note_on,30,51,0
3,note_on,42,60,0
3,note_on,42,0,240
3,note_on,30,0,0
3,note_on,64,61,240
3,note_on,61,52,0
3,note_on,58,52,0
3,note_on,54,52,0
3,note_on,54,0,480
3,note_on,64,0,0
3,note_on,61,0,0
3,note_on,58,0,0
3,note_on,57,54,0
3,note_on,63,63,0
3,note_on,59,54,0
3,note_on,59,0,226
3,note_on,63,0,0
3,note_on,57,0,0
3,note_on,35,47,0
3,note_on,47,57,0
3,note_on,47,0,480
3,note_on,35,0,0
3,note_on,63,61,0
3,note_on,59,51,0
3,note_on,57,51,0
3,note_on,57,0,480
3,note_on,59,0,0
3,note_on,63,0,0
3,note_on,62,67,0
3,note_on,59,56,0
3,note_on,57,56,0
3,note_on,52,56,0
3,note_on,52,0,240
3,note_on,62,0,0
3,note_on,59,0,0
3,note_on,57,0,0
3,note_on,28,51,0
3,note_on,40,60,0
3,note_on,40,0,240
3,note_on,28,0,0
3,note_on,62,61,240
3,note_on,56,52,0
3,note_on,52,52,0
3,note_on,52,0,480
3,note_on,56,0,0
3,note_on,62,0,0
3,note_on,55,56,0
3,note_on,61,67,0
3,note_on,57,56,0
3,note_on,57,0,223
3,note_on,61,0,0
3,note_on,55,0,0
3,note_on,33,50,0
3,note_on,45,59,0
3,note_on,45,0,480
3,note_on,33,0,0
3,note_on,61,60,0
3,note_on,57,51,0
3,note_on,55,51,0
3,note_on,55,0,480
3,note_on,57,0,0
3,note_on,61,0,0
3,note_on,54,56,0
3,note_on,60,67,0
3,note_on,60,0,240
3,note_on,54,0,0
3,note_on,57,48,0
3,note_on,60,58,0
3,note_on,60,0,480
3,note_on,57,0,0
3,note_on,69,55,0
3,note_on,72,65,0
3,note_on,72,0,480
3,note_on,69,0,0
3,note_on,84,68,0
3,note_on,81,56,0
3,note_on,81,0,480
3,note_on,84,0,0
3,note_on,48,48,0
3,note_on,60,58,0
3,note_on,60,0,230
3,note_on,48,0,0
3,note_on,24,48,240
3,note_on,36,57,0
3,note_on,36,0,240
3,note_on,24,0,0
3,note_on,25,50,240
3,note_on,37,59,0
3,note_on,37,0,240
3,note_on,25,0,0
3,note_on,37,34,240
3,note_on,49,40,0
3,note_on,49,0,240
3,note_on,37,0,0
3,note_on,27,37,240
3,note_on,39,46,0
3,note_on,39,0,240
3,note_on,27,0,0
3,note_on,29,40,240
3,note_on,41,49,0
3,note_on,41,0,240
3,note_on,29,0,0
3,note_on,41,35,240
3,note_on,53,44,0
3,note_on,53,0,240
3,note_on,41,0,0
3,note_on,29,35,240
3,note_on,41,43,0
3,note_on,41,0,240
3,note_on,29,0,0
3,note_on,34,30,240
3,note_on,46,37,0
3,note_on,46,0,240
3,note_on,34,0,0
3,note_on,37,25,240
3,note_on,49,31,0
3,note_on,49,0,240
3,note_on,37,0,0
3,note_on,39,33,240
3,note_on,39,0,240
3,note_on,41,38,240
3,note_on,41,0,240
3,note_on,29,28,720
3,note_on,41,34,0
3,note_on,41,0,240
3,note_on,29,0,0
3,note_on,34,30,240
3,note_on,46,36,0
3,note_on,46,0,480
3,note_on,34,0,0
3,note_on,44,26,0
3,note_on,56,31,0
3,note_on,56,0,480
3,note_on,44,0,0
3,note_on,41,26,0
3,note_on,53,31,0
3,note_on,53,0,480
3,note_on,41,0,0
3,note_on,42,30,0
3,note_on,54,36,0
3,note_on,54,0,480
3,note_on,42,0,0
3,note_on,41,26,0
3,note_on,53,31,0
3,note_on,53,0,266
3,note_on,41,0,0
3,note_on,37,26,0
3,note_on,49,31,0
3,note_on,49,0,480
3,note_on,37,0,0
3,note_on,39,30,0
3,note_on,51,36,0
3,note_on,51,0,471
3,note_on,39,0,0
3,note_on,37,26,0
3,note_on,49,31,0
3,note_on,49,0,480
3,note_on,37,0,0
3,note_on,34,31,0
3,note_on,46,31,0
3,note_on,46,0,480
3,note_on,34,0,0
3,note_on,35,38,0
3,note_on,47,38,0
3,note_on,47,0,480
3,note_on,35,0,0
3,note_on,34,38,0
3,note_on,46,38,0
3,note_on,46,0,240
3,note_on,34,0,0
3,note_on,30,40,0
3,note_on,42,40,0
3,note_on,42,0,480
3,note_on,30,0,0
3,note_on,27,40,0
3,note_on,39,47,0
3,note_on,39,0,475
3,note_on,27,0,0
3,note_on,28,38,0
3,note_on,40,44,0
3,note_on,40,0,90
3,note_on,28,0,0
3,note_on,29,38,150
3,note_on,41,47,0
3,note_on,41,0,90
3,note_on,29,0,0
3,note_on,30,46,150
3,note_on,42,54,0
3,note_on,42,0,480
3,note_on,30,0,0
3,note_on,32,56,0
3,note_on,44,67,0
3,note_on,44,0,354
3,note_on,32,0,0
3,note_on,44,43,0
3,note_on,51,43,0
3,note_on,53,43,0
3,note_on,59,51,0
3,note_on,59,0,480
3,note_on,44,0,0
3,note_on,51,0,0
3,note_on,53,0,0
3,note_on,46,43,0
3,note_on,53,43,0
3,note_on,56,43,0
3,note_on,62,51,0
3,note_on,62,0,468
3,note_on,46,0,0
3,note_on,53,0,0
3,note_on,56,0,0
3,note_on,30,40,0
3,note_on,42,47,0
3,note_on,42,0,480
3,note_on,30,0,0
3,note_on,31,38,0
3,note_on,43,44,0
3,note_on,43,0,90
3,note_on,31,0,0
3,note_on,32,35,150
3,note_on,44,43,0
3,note_on,44,0,90
3,note_on,32,0,0
3,note_on,33,46,150
3,note_on,45,54,0
3,note_on,45,0,480
3,note_on,33,0,0
3,note_on,35,56,0
3,note_on,47,67,0
3,note_on,47,0,402
3,note_on,35,0,0
3,note_on,48,43,0
3,note_on,54,43,0
3,note_on,56,43,0
3,note_on,62,51,0
3,note_on,62,0,480
3,note_on,48,0,0
3,note_on,54,0,0
3,note_on,56,0,0
3,note_on,49,43,0
3,note_on,56,43,0
3,note_on,59,43,0
3,note_on,65,51,0
3,note_on,65,0,463
3,note_on,49,0,0
3,note_on,56,0,0
3,note_on,59,0,0
3,note_on,33,36,0
3,note_on,45,42,0
3,note_on,45,0,480
3,note_on,33,0,0
3,note_on,35,36,0
3,note_on,47,42,0
3,note_on,47,0,90
3,note_on,35,0,0
3,note_on,36,37,150
3,note_on,48,45,0
3,note_on,48,0,90
3,note_on,36,0,0
3,note_on,37,47,150
3,note_on,49,56,0
3,note_on,49,0,480
3,note_on,37,0,0
3,note_on,38,40,0
3,note_on,50,47,0
3,note_on,50,0,480
3,note_on,38,0,0
3,note_on,39,40,0
3,note_on,51,47,0
3,note_on,51,0,90
3,note_on,39,0,0
3,note_on,40,39,150
3,note_on,52,48,0
3,note_on,52,0,90
3,note_on,40,0,0
3,note_on,41,45,150
3,note_on,53,53,0
3,note_on,53,0,480
3,note_on,41,0,0
3,note_on,42,42,0
3,note_on,54,50,0
3,note_on,54,0,480
3,note_on,42,0,0
3,note_on,44,42,0
3,note_on,56,48,0
3,note_on,56,0,90
3,note_on,44,0,0
3,note_on,45,39,150
3,note_on,57,50,0
3,note_on,57,0,90
3,note_on,45,0,0
3,note_on,46,48,150
3,note_on,58,57,0
3,note_on,58,0,480
3,note_on,46,0,0
3,note_on,47,54,0
3,note_on,59,66,0
3,note_on,59,0,381
3,note_on,47,0,0
3,note_on,35,49,0
3,note_on,47,59,0
3,note_on,47,0,480
3,note_on,35,0,0
3,note_on,32,49,0
3,note_on,44,59,0
3,note_on,44,0,464
3,note_on,32,0,0
3,note_on,51,49,0
3,note_on,54,49,0
3,note_on,58,49,0
3,note_on,63,59,0
3,note_on,63,0,426
3,note_on,51,0,0
3,note_on,54,0,0
3,note_on,58,0,0
3,note_on,30,55,0
3,note_on,42,67,0
3,note_on,42,0,240
3,note_on,30,0,0
3,note_on,63,63,141
3,note_on,59,52,0
3,note_on,56,52,0
3,note_on,51,52,0
3,note_on,51,0,186
3,note_on,63,0,0
3,note_on,59,0,0
3,note_on,56,0,0
3,note_on,32,55,0
3,note_on,44,67,0
3,note_on,44,0,240
3,note_on,32,0,0
3,note_on,63,57,183
3,note_on,59,48,0
3,note_on,56,48,0
3,note_on,53,48,0
3,note_on,53,0,160
3,note_on,63,0,0
3,note_on,59,0,0
3,note_on,56,0,0
3,note_on,35,55,0
3,note_on,47,66,0
3,note_on,47,0,240
3,note_on,35,0,0
3,note_on,63,60,155
3,note_on,58,51,0
3,note_on,54,51,0
3,note_on,54,0,278
3,note_on,58,0,0
3,note_on,63,0,0
3,note_on,34,55,0
3,note_on,46,66,0
3,note_on,46,0,240
3,note_on,34,0,0
3,note_on,63,60,183
3,note_on,58,51,0
3,note_on,53,51,0
3,note_on,53,0,252
3,note_on,58,0,0
3,note_on,63,0,0
3,note_on,34,57,0
3,note_on,46,69,0
3,note_on,46,0,240
3,note_on,34,0,0
3,note_on,62,60,169
3,note_on,58,51,0
3,note_on,56,51,0
3,note_on,53,51,0
3,note_on,53,0,248
3,note_on,62,0,0
3,note_on,58,0,0
3,note_on,56,0,0
3,note_on,27,62,0
3,note_on,39,74,0
3,note_on,39,0,251
3,note_on,27,0,0
3,note_on,39,52,30
3,note_on,51,63,0
3,note_on,51,0,1440
3,note_on,39,0,0
3,note_on,34,57,0
3,note_on,46,69,0
3,note_on,46,0,339
3,note_on,34,0,0
3,note_on,35,52,0
3,note_on,47,63,0
3,note_on,47,0,113
3,note_on,35,0,0
3,note_on,34,48,0
3,note_on,46,57,0
3,note_on,46,0,240
3,note_on,34,0,0
3,note_on,29,53,0
3,note_on,41,64,0
3,note_on,41,0,28
3,note_on,29,0,0
3,note_on,30,47,0
3,note_on,42,55,0
3,note_on,42,0,240
3,note_on,30,0,0
3,note_on,27,52,0
3,note_on,39,63,0
3,note_on,39,0,80
3,note_on,27,0,0
3,note_on,30,27,960
3,note_on,30,0,400
3,note_on,63,22,0
3,note_on,49,17,0
3,note_on,54,17,0
3,note_on,54,0,480
3,note_on,49,0,0
3,note_on,63,0,0
3,note_on,49,16,0
3,note_on,54,16,0
3,note_on,61,20,0
3,note_on,61,0,480
3,note_on,54,0,0
3,note_on,49,0,0
3,note_on,42,25,0
3,note_on,42,0,186
3,note_on,63,24,0
3,note_on,54,20,0
3,note_on,49,20,0
3,note_on,49,0,480
3,note_on,54,0,0
3,note_on,63,0,0
3,note_on,49,15,0
3,note_on,54,15,0
3,note_on,61,18,0
3,note_on,61,0,480
3,note_on,54,0,0
3,note_on,49,0,0
3,note_on,42,27,0
3,note_on,42,0,240
3,note_on,63,24,0
3,note_on,54,20,0
3,note_on,49,20,0
3,note_on,49,0,480
3,note_on,54,0,0
3,note_on,63,0,0
3,note_on,49,15,0
3,note_on,54,15,0
3,note_on,61,18,0
3,note_on,61,0,480
3,note_on,54,0,0
3,note_on,49,0,0
3,note_on,42,27,0
3,note_on,42,0,213
3,note_on,63,27,0
3,note_on,49,22,0
3,note_on,54,22,0
3,note_on,54,0,480
3,note_on,49,0,0
3,note_on,63,0,0
3,note_on,49,17,0
3,note_on,54,17,0
3,note_on,61,21,0
3,note_on,61,0,480
3,note_on,54,0,0
3,note_on,49,0,0
3,note_on,42,34,0
3,note_on,42,0,266
3,note_on,63,24,0
3,note_on,54,20,0
3,note_on,49,20,0
3,note_on,49,0,480
3,note_on,54,0,0
3,note_on,63,0,0
3,note_on,49,16,0
3,note_on,54,16,0
3,note_on,61,21,0
3,note_on,61,0,480
3,note_on,54,0,0
3,note_on,49,0,0
3,note_on,42,34,0
3,note_on,42,0,213
3,note_on,63,21,0
3,note_on,49,17,0
3,note_on,54,17,0
3,note_on,54,0,480
3,note_on,49,0,0
3,note_on,63,0,0
3,note_on,49,15,0
3,note_on,54,15,0
3,note_on,61,18,0
3,note_on,61,0,480
3,note_on,54,0,0
3,note_on,49,0,0
3,note_on,37,33,0
3,note_on,37,0,160
3,note_on,63,24,0
3,note_on,54,20,0
3,note_on,49,20,0
3,note_on,49,0,480
3,note_on,54,0,0
3,note_on,63,0,0
3,note_on,49,16,0
3,note_on,54,16,0
3,note_on,61,21,0
3,note_on,61,0,480
3,note_on,54,0,0
3,note_on,49,0,0
3,note_on,42,34,0
3,note_on,42,0,186
3,note_on,63,24,0
3,note_on,49,20,0
3,note_on,54,20,0
3,note_on,54,0,480
3,note_on,49,0,0
3,note_on,63,0,0
3,note_on,49,16,0
3,note_on,54,16,0
3,note_on,61,21,0
3,note_on,61,0,480
3,note_on,54,0,0
3,note_on,49,0,0
3,note_on,49,20,0
3,note_on,54,18,0
3,note_on,61,22,0
3,note_on,61,0,213
3,note_on,54,0,0
3,note_on,49,0,0
3,note_on,49,17,0
3,note_on,54,17,0
3,note_on,59,22,0
3,note_on,59,0,480
3,note_on,54,0,0
3,note_on,49,0,0
3,note_on,49,18,0
3,note_on,54,18,0
3,note_on,58,23,0
3,note_on,58,0,480
3,note_on,54,0,0
3,note_on,49,0,0
3,note_on,49,18,0
3,note_on,54,18,0
3,note_on,58,23,0
3,note_on,58,0,177
3,note_on,54,0,0
3,note_on,49,0,0
3,note_on,47,18,0
3,note_on,49,23,0
3,note_on,49,0,480
3,note_on,47,0,0
3,note_on,46,18,0
3,note_on,49,23,0
3,note_on,49,0,480
3,note_on,46,0,0
3,note_on,46,18,0
3,note_on,49,23,0
3,note_on,49,0,480
3,note_on,46,0,0
3,note_on,47,18,0
3,note_on,49,23,0
3,note_on,49,0,480
3,note_on,47,0,0
3,note_on,46,18,0
3,note_on,49,23,0
3,note_on,49,0,480
3,note_on,46,0,0
3,note_on,46,17,0
3,note_on,49,22,0
3,note_on,49,0,480
3,note_on,46,0,0
3,note_on,47,17,0
3,note_on,49,22,0
3,note_on,49,0,480
3,note_on,47,0,0
3,note_on,46,16,0
3,note_on,49,20,0
3,note_on,49,0,480
3,note_on,46,0,0
3,note_on,46,34,0
3,note_on,46,0,205
3,note_on,66,24,0
3,note_on,58,20,0
3,note_on,53,20,0
3,note_on,53,0,480
3,note_on,58,0,0
3,note_on,66,0,0
3,note_on,53,16,0
3,note_on,58,16,0
3,note_on,65,21,0
3,note_on,65,0,480
3,note_on,58,0,0
3,note_on,53,0,0
3,note_on,46,34,0
3,note_on,46,0,106
3,note_on,66,22,0
3,note_on,53,17,0
3,note_on,58,17,0
3,note_on,58,0,480
3,note_on,53,0,0
3,note_on,66,0,0
3,note_on,53,14,0
3,note_on,58,14,0
3,note_on,65,17,0
3,note_on,65,0,480
3,note_on,58,0,0
3,note_on,53,0,0
3,note_on,41,33,0
3,note_on,41,0,183
3,note_on,66,24,0
3,note_on,60,13,0
3,note_on,53,13,0
3,note_on,53,0,480
3,note_on,60,0,0
3,note_on,66,0,0
3,note_on,53,16,0
3,note_on,60,16,0
3,note_on,65,20,0
3,note_on,65,0,480
3,note_on,60,0,0
3,note_on,53,0,0
3,note_on,46,34,0
3,note_on,46,0,213
3,note_on,66,24,0
3,note_on,53,20,0
3,note_on,58,20,0
3,note_on,58,0,480
3,note_on,53,0,0
3,note_on,66,0,0
3,note_on,53,17,0
3,note_on,58,17,0
3,note_on,65,22,0
3,note_on,65,0,480
3,note_on,58,0,0
3,note_on,53,0,0
3,note_on,53,14,0
3,note_on,58,17,0
3,note_on,65,23,0
3,note_on,65,0,240
3,note_on,58,0,0
3,note_on,53,0,0
3,note_on,53,20,0
3,note_on,58,20,0
3,note_on,63,24,0
3,note_on,63,0,480
3,note_on,58,0,0
3,note_on,53,0,0
3,note_on,53,20,0
3,note_on,58,20,0
3,note_on,61,24,0
3,note_on,61,0,480
3,note_on,58,0,0
3,note_on,53,0,0
3,note_on,53,16,0
3,note_on,58,16,0
3,note_on,61,25,0
3,note_on,61,0,228
3,note_on,58,0,0
3,note_on,53,0,0
3,note_on,51,20,0
3,note_on,53,24,0
3,note_on,53,0,480
3,note_on,51,0,0
3,note_on,49,20,0
3,note_on,53,24,0
3,note_on,53,0,480
3,note_on,49,0,0
3,note_on,49,20,0
3,note_on,53,24,0
3,note_on,53,0,480
3,note_on,49,0,0
3,note_on,51,20,0
3,note_on,53,24,0
3,note_on,53,0,480
3,note_on,51,0,0
3,note_on,49,20,0
3,note_on,53,24,0
3,note_on,53,0,480
3,note_on,49,0,0
3,note_on,49,20,0
3,note_on,53,24,0
3,note_on,53,0,480
3,note_on,49,0,0
3,note_on,51,24,0
3,note_on,53,24,0
3,note_on,53,0,480
3,note_on,51,0,0
3,note_on,49,20,0
3,note_on,53,24,0
3,note_on,53,0,480
3,note_on,49,0,0
3,note_on,42,36,0
3,note_on,42,0,267
3,note_on,63,25,0
3,note_on,54,21,0
3,note_on,49,21,0
3,note_on,49,0,480
3,note_on,54,0,0
3,note_on,63,0,0
3,note_on,49,16,0
3,note_on,54,16,0
3,note_on,61,21,0
3,note_on,61,0,480
3,note_on,54,0,0
3,note_on,49,0,0
3,note_on,42,34,0
3,note_on,42,0,213
3,note_on,63,21,0
3,note_on,49,17,0
3,note_on,54,17,0
3,note_on,54,0,480
3,note_on,49,0,0
3,note_on,63,0,0
3,note_on,49,15,0
3,note_on,54,15,0
3,note_on,61,18,0
3,note_on,61,0,480
3,note_on,54,0,0
3,note_on,49,0,0
3,note_on,37,34,0
3,note_on,37,0,160
3,note_on,63,26,0
3,note_on,54,22,0
3,note_on,49,22,0
3,note_on,49,0,480
3,note_on,54,0,0
3,note_on,63,0,0
3,note_on,49,18,0
3,note_on,54,18,0
3,note_on,61,23,0
3,note_on,61,0,480
3,note_on,54,0,0
3,note_on,49,0,0
3,note_on,42,34,0
3,note_on,42,0,240
3,note_on,63,25,0
3,note_on,49,21,0
3,note_on,54,21,0
3,note_on,54,0,480
3,note_on,49,0,0
3,note_on,63,0,0
3,note_on,49,20,0
3,note_on,54,20,0
3,note_on,61,24,0
3,note_on,61,0,480
3,note_on,54,0,0
3,note_on,49,0,0
3,note_on,49,21,0
3,note_on,54,21,0
3,note_on,61,25,0
3,note_on,61,0,480
3,note_on,54,0,0
3,note_on,49,0,0
3,note_on,49,20,0
3,note_on,54,20,0
3,note_on,59,24,0
3,note_on,59,0,480
3,note_on,54,0,0
3,note_on,49,0,0
3,note_on,49,21,0
3,note_on,54,21,0
3,note_on,58,25,0
3,note_on,58,0,480
3,note_on,54,0,0
3,note_on,49,0,0
3,note_on,49,21,0
3,note_on,54,21,0
3,note_on,58,25,0
3,note_on,58,0,480
3,note_on,54,0,0
3,note_on,49,0,0
3,note_on,47,21,0
3,note_on,49,25,0
3,note_on,49,0,480
3,note_on,47,0,0
3,note_on,46,21,0
3,note_on,49,25,0
3,note_on,49,0,480
3,note_on,46,0,0
3,note_on,46,21,0
3,note_on,49,25,0
3,note_on,49,0,480
3,note_on,46,0,0
3,note_on,47,21,0
3,note_on,49,25,0
3,note_on,49,0,480
3,note_on,47,0,0
3,note_on,46,21,0
3,note_on,49,25,0
3,note_on,49,0,480
3,note_on,46,0,0
3,note_on,46,18,0
3,note_on,49,23,0
3,note_on,49,0,480
3,note_on,46,0,0
3,note_on,44,16,0
3,note_on,49,22,0
3,note_on,49,0,480
3,note_on,44,0,0
3,note_on,42,16,0
3,note_on,49,22,0
3,note_on,49,0,480
3,note_on,42,0,0
3,note_on,41,44,0
3,note_on,41,0,183
3,note_on,62,27,0
3,note_on,53,23,0
3,note_on,53,0,480
3,note_on,62,0,0
3,note_on,53,20,0
3,note_on,62,24,0
3,note_on,62,0,480
3,note_on,53,0,0
3,note_on,41,41,0
3,note_on,41,0,137
3,note_on,63,27,0
3,note_on,53,22,0
3,note_on,57,22,0
3,note_on,57,0,480
3,note_on,53,0,0
3,note_on,63,0,0
3,note_on,53,24,0
3,note_on,57,24,0
3,note_on,63,28,0
3,note_on,63,0,480
3,note_on,57,0,0
3,note_on,53,0,0
3,note_on,41,39,0
3,note_on,41,0,198
3,note_on,65,28,0
3,note_on,58,24,0
3,note_on,53,24,0
3,note_on,53,0,480
3,note_on,58,0,0
3,note_on,65,0,0
3,note_on,53,20,0
3,note_on,61,20,0
3,note_on,64,24,0
3,note_on,64,0,480
3,note_on,61,0,0
3,note_on,53,0,0
3,note_on,41,41,0
3,note_on,41,0,213
3,note_on,63,27,0
3,note_on,53,23,0
3,note_on,60,23,0
3,note_on,60,0,480
3,note_on,53,0,0
3,note_on,63,0,0
3,note_on,53,20,0
3,note_on,60,20,0
3,note_on,63,24,0
3,note_on,63,0,480
3,note_on,60,0,0
3,note_on,53,0,0
3,note_on,41,45,0
3,note_on,41,0,205
3,note_on,62,28,0
3,note_on,53,24,0
3,note_on,53,0,480
3,note_on,62,0,0
3,note_on,53,22,0
3,note_on,62,27,0
3,note_on,62,0,480
3,note_on,53,0,0
3,note_on,41,43,0
3,note_on,41,0,213
3,note_on,63,27,0
3,note_on,53,24,0
3,note_on,57,24,0
3,note_on,57,0,480
3,note_on,53,0,0
3,note_on,63,0,0
3,note_on,53,20,0
3,note_on,57,20,0
3,note_on,63,24,0
3,note_on,63,0,480
3,note_on,57,0,0
3,note_on,53,0,0
3,note_on,46,45,0
3,note_on,46,0,240
3,note_on,65,33,0
3,note_on,58,22,0
3,note_on,53,22,0
3,note_on,53,0,480
3,note_on,58,0,0
3,note_on,65,0,0
3,note_on,53,13,0
3,note_on,58,13,0
3,note_on,61,24,0
3,note_on,61,0,480
3,note_on,58,0,0
3,note_on,53,0,0
3,note_on,37,45,0
3,note_on,37,0,213
3,note_on,61,24,0
3,note_on,68,27,0
3,note_on,56,24,0
3,note_on,59,24,0
3,note_on,59,0,480
3,note_on,61,0,0
3,note_on,68,0,0
3,note_on,56,0,0
3,note_on,61,22,0
3,note_on,56,22,0
3,note_on,59,22,0
3,note_on,68,26,0
3,note_on,68,0,480
3,note_on,61,0,0
3,note_on,56,0,0
3,note_on,59,0,0
3,note_on,56,22,0
3,note_on,59,22,0
3,note_on,61,22,0
3,note_on,68,26,0
3,note_on,68,0,480
3,note_on,56,0,0
3,note_on,59,0,0
3,note_on,61,0,0
3,note_on,56,23,0
3,note_on,59,23,0
3,note_on,61,27,0
3,note_on,61,0,480
3,note_on,59,0,0
3,note_on,56,0,0
3,note_on,56,23,0
3,note_on,59,27,0
3,note_on,61,27,0
3,note_on,61,0,480
3,note_on,59,0,0
3,note_on,56,0,0
3,note_on,56,23,0
3,note_on,59,23,0
3,note_on,61,27,0
3,note_on,61,0,480
3,note_on,59,0,0
3,note_on,56,0,0
3,note_on,54,23,0
3,note_on,59,23,0
3,note_on,61,27,0
3,note_on,61,0,480
3,note_on,59,0,0
3,note_on,54,0,0
3,note_on,56,23,0
3,note_on,59,23,0
3,note_on,61,27,0
3,note_on,61,0,480
3,note_on,59,0,0
3,note_on,56,0,0
3,note_on,56,23,0
3,note_on,59,23,0
3,note_on,61,27,0
3,note_on,61,0,480
3,note_on,59,0,0
3,note_on,56,0,0
3,note_on,54,22,0
3,note_on,59,22,0
3,note_on,61,26,0
3,note_on,61,0,480
3,note_on,59,0,0
3,note_on,54,0,0
3,note_on,56,22,0
3,note_on,59,22,0
3,note_on,61,26,0
3,note_on,61,0,480
3,note_on,59,0,0
3,note_on,56,0,0
3,note_on,56,20,0
3,note_on,59,20,0
3,note_on,61,24,0
3,note_on,61,0,480
3,note_on,59,0,0
3,note_on,56,0,0
3,note_on,54,18,0
3,note_on,59,18,0
3,note_on,61,23,0
3,note_on,61,0,480
3,note_on,59,0,0
3,note_on,54,0,0
3,note_on,56,18,0
3,note_on,59,18,0
3,note_on,61,23,0
3,note_on,61,0,480
3,note_on,59,0,0
3,note_on,56,0,0
3,note_on,42,37,0
3,note_on,42,0,213
3,note_on,63,25,0
3,note_on,54,21,0
3,note_on,49,21,0
3,note_on,49,0,480
3,note_on,54,0,0
3,note_on,63,0,0
3,note_on,49,18,0
3,note_on,54,18,0
3,note_on,61,23,0
3,note_on,61,0,480
3,note_on,54,0,0
3,note_on,49,0,0
3,note_on,42,34,0
3,note_on,42,0,160
3,note_on,63,23,0
3,note_on,49,18,0
3,note_on,54,18,0
3,note_on,54,0,480
3,note_on,49,0,0
3,note_on,63,0,0
3,note_on,49,15,0
3,note_on,54,15,0
3,note_on,61,18,0
3,note_on,61,0,480
3,note_on,54,0,0
3,note_on,49,0,0
3,note_on,37,33,0
3,note_on,37,0,213
3,note_on,63,27,0
3,note_on,54,23,0
3,note_on,49,23,0
3,note_on,49,0,480
3,note_on,54,0,0
3,note_on,63,0,0
3,note_on,49,18,0
3,note_on,54,18,0
3,note_on,61,23,0
3,note_on,61,0,480
3,note_on,54,0,0
3,note_on,49,0,0
3,note_on,42,34,0
3,note_on,42,0,240
3,note_on,63,24,0
3,note_on,49,20,0
3,note_on,54,20,0
3,note_on,54,0,480
3,note_on,49,0,0
3,note_on,63,0,0
3,note_on,49,17,0
3,note_on,54,17,0
3,note_on,61,22,0
3,note_on,61,0,480
3,note_on,54,0,0
3,note_on,49,0,0
3,note_on,49,12,0
3,note_on,54,12,0
3,note_on,61,21,0
3,note_on,61,0,480
3,note_on,54,0,0
3,note_on,49,0,0
3,note_on,49,18,0
3,note_on,54,18,0
3,note_on,59,23,0
3,note_on,59,0,480
3,note_on,54,0,0
3,note_on,49,0,0
3,note_on,49,13,0
3,note_on,54,15,0
3,note_on,58,22,0
3,note_on,58,0,480
3,note_on,54,0,0
3,note_on,49,0,0
3,note_on,49,20,0
3,note_on,54,20,0
3,note_on,58,24,0
3,note_on,58,0,480
3,note_on,54,0,0
3,note_on,49,0,0
3,note_on,47,20,0
3,note_on,49,24,0
3,note_on,49,0,480
3,note_on,47,0,0
3,note_on,46,18,0
3,note_on,49,24,0
3,note_on,49,0,480
3,note_on,46,0,0
3,note_on,46,18,0
3,note_on,49,24,0
3,note_on,49,0,480
3,note_on,46,0,0
3,note_on,47,18,0
3,note_on,49,23,0
3,note_on,49,0,480
3,note_on,47,0,0
3,note_on,46,18,0
3,note_on,49,23,0
3,note_on,49,0,480
3,note_on,46,0,0
3,note_on,46,17,0
3,note_on,49,23,0
3,note_on,49,0,480
3,note_on,46,0,0
3,note_on,44,17,0
3,note_on,49,22,0
3,note_on,49,0,480
3,note_on,44,0,0
3,note_on,42,17,0
3,note_on,49,22,0
3,note_on,49,0,480
3,note_on,42,0,0
3,note_on,44,31,0
3,note_on,44,0,205
3,note_on,64,26,0
3,note_on,56,22,0
3,note_on,51,22,0
3,note_on,51,0,480
3,note_on,56,0,0
3,note_on,64,0,0
3,note_on,51,17,0
3,note_on,56,17,0
3,note_on,63,22,0
3,note_on,63,0,480
3,note_on,56,0,0
3,note_on,51,0,0
3,note_on,44,38,0
3,note_on,44,0,213
3,note_on,64,24,0
3,note_on,51,18,0
3,note_on,56,18,0
3,note_on,56,0,480
3,note_on,51,0,0
3,note_on,64,0,0
3,note_on,51,17,0
3,note_on,56,17,0
3,note_on,63,21,0
3,note_on,63,0,480
3,note_on,56,0,0
3,note_on,51,0,0
3,note_on,39,33,0
3,note_on,39,0,205
3,note_on,64,22,0
3,note_on,58,17,0
3,note_on,51,17,0
3,note_on,51,0,480
3,note_on,58,0,0
3,note_on,64,0,0
3,note_on,51,14,0
3,note_on,58,14,0
3,note_on,63,17,0
3,note_on,63,0,480
3,note_on,58,0,0
3,note_on,51,0,0
3,note_on,44,34,0
3,note_on,44,0,213
3,note_on,64,25,0
3,note_on,51,21,0
3,note_on,56,21,0
3,note_on,56,0,480
3,note_on,51,0,0
3,note_on,64,0,0
3,note_on,51,18,0
3,note_on,56,18,0
3,note_on,63,23,0
3,note_on,63,0,480
3,note_on,56,0,0
3,note_on,51,0,0
3,note_on,51,16,0
3,note_on,56,16,0
3,note_on,63,25,0
3,note_on,63,0,474
3,note_on,56,0,6
3,note_on,51,0,0
3,note_on,51,20,0
3,note_on,56,20,0
3,note_on,61,24,0
3,note_on,61,0,480
3,note_on,56,0,0
3,note_on,51,0,0
3,note_on,51,20,0
3,note_on,56,20,0
3,note_on,59,24,0
3,note_on,59,0,480
3,note_on,56,0,0
3,note_on,51,0,0
3,note_on,51,21,0
3,note_on,56,21,0
3,note_on,59,25,0
3,note_on,59,0,480
3,note_on,56,0,0
3,note_on,51,0,0
3,note_on,49,20,0
3,note_on,51,24,0
3,note_on,51,0,480
3,note_on,49,0,0
3,note_on,47,20,0
3,note_on,51,24,0
3,note_on,51,0,480
3,note_on,47,0,0
3,note_on,47,20,0
3,note_on,51,24,0
3,note_on,51,0,480
3,note_on,47,0,0
3,note_on,49,20,0
3,note_on,51,21,0
3,note_on,51,0,480
3,note_on,49,0,0
3,note_on,47,18,0
3,note_on,51,23,0
3,note_on,51,0,480
3,note_on,47,0,0
3,note_on,47,18,0
3,note_on,51,23,0
3,note_on,51,0,468
3,note_on,47,0,0
3,note_on,46,17,0
3,note_on,51,22,0
3,note_on,51,0,480
3,note_on,46,0,0
3,note_on,44,16,0
3,note_on,51,20,0
3,note_on,51,0,480
3,note_on,44,0,0
3,note_on,37,20,0
3,note_on,37,0,440
3,note_on,49,27,480
3,note_on,49,0,337
3,note_on,50,26,0
3,note_on,50,0,60
3,note_on,51,26,0
3,note_on,51,0,60
3,note_on,53,25,0
3,note_on,53,0,30
3,note_on,51,21,0
3,note_on,51,0,80
3,note_on,53,24,0
3,note_on,53,0,80
3,note_on,51,22,0
3,note_on,51,0,80
3,note_on,53,24,0
3,note_on,53,0,80
3,note_on,51,21,0
3,note_on,51,0,80
3,note_on,53,24,0
3,note_on,53,0,80
3,note_on,51,21,0
3,note_on,51,0,80
3,note_on,53,24,0
3,note_on,53,0,80
3,note_on,51,21,0
3,note_on,51,0,80
3,note_on,53,24,0
3,note_on,53,0,80
3,note_on,51,21,0
3,note_on,51,0,80
3,note_on,53,24,0
3,note_on,53,0,120
3,note_on,51,21,0
3,note_on,51,0,120
3,note_on,53,24,0
3,note_on,53,0,60
3,note_on,51,20,0
3,note_on,51,0,60
3,note_on,49,24,0
3,note_on,49,0,60
3,note_on,51,18,0
3,note_on,51,0,60
3,note_on,53,32,0
3,note_on,53,0,409
3,note_on,37,25,0
3,note_on,37,0,9
3,note_on,49,27,0
3,note_on,49,0,360
3,note_on,50,26,0
3,note_on,50,0,60
3,note_on,51,26,0
3,note_on,51,0,60
3,note_on,53,25,0
3,note_on,53,0,44
3,note_on,51,21,0
3,note_on,51,0,80
3,note_on,53,24,0
3,note_on,53,0,80
3,note_on,51,22,0
3,note_on,51,0,80
3,note_on,53,24,0
3,note_on,53,0,80
3,note_on,51,21,0
3,note_on,51,0,80
3,note_on,53,24,0
3,note_on,53,0,80
3,note_on,51,21,0
3,note_on,51,0,80
3,note_on,53,24,0
3,note_on,53,0,80
3,note_on,51,21,0
3,note_on,51,0,80
3,note_on,53,24,0
3,note_on,53,0,80
3,note_on,51,21,0
3,note_on,51,0,80
3,note_on,53,24,0
3,note_on,53,0,120
3,note_on,51,21,0
3,note_on,51,0,120
3,note_on,53,24,0
3,note_on,53,0,60
3,note_on,51,20,0
3,note_on,51,0,60
3,note_on,49,24,0
3,note_on,49,0,60
3,note_on,51,18,0
3,note_on,51,0,60
3,note_on,53,34,0
3,note_on,53,0,76
3,note_on,37,36,0
3,note_on,37,0,480
3,note_on,49,17,0
3,note_on,56,17,0
3,note_on,61,26,0
3,note_on,61,0,480
3,note_on,56,0,0
3,note_on,49,0,0
3,note_on,49,20,0
3,note_on,56,20,0
3,note_on,61,28,0
3,note_on,61,0,337
3,note_on,56,0,0
3,note_on,49,0,0
3,note_on,49,21,0
3,note_on,56,21,0
3,note_on,59,32,0
3,note_on,59,0,480
3,note_on,56,0,0
3,note_on,49,0,0
3,note_on,49,21,0
3,note_on,56,21,0
3,note_on,59,35,0
3,note_on,59,0,480
3,note_on,56,0,0
3,note_on,49,0,0
3,note_on,49,26,0
3,note_on,56,26,0
3,note_on,59,37,0
3,note_on,59,0,331
3,note_on,56,0,0
3,note_on,49,0,0
3,note_on,49,21,0
3,note_on,56,21,0
3,note_on,59,31,0
3,note_on,59,0,293
3,note_on,56,0,5
3,note_on,49,0,0
3,note_on,49,17,0
3,note_on,56,26,0
3,note_on,56,0,331
3,note_on,49,0,0
3,note_on,42,18,0
3,note_on,49,25,0
3,note_on,49,0,267
3,note_on,42,0,0
3,note_on,58,39,0
3,note_on,58,0,198
3,note_on,56,37,0
3,note_on,56,0,240
3,note_on,54,36,0
3,note_on,54,0,240
3,note_on,53,35,0
3,note_on,53,0,240
3,note_on,53,39,0
3,note_on,53,0,240
3,note_on,51,39,0
3,note_on,51,0,240
3,note_on,49,37,0
3,note_on,49,0,240
3,note_on,48,36,0
3,note_on,48,0,240
3,note_on,46,35,0
3,note_on,46,0,240
3,note_on,44,35,0
3,note_on,44,0,240
3,note_on,37,35,0
3,note_on,37,0,240
3,note_on,58,42,240
3,note_on,58,0,240
3,note_on,56,37,0
3,note_on,56,0,240
3,note_on,54,36,0
3,note_on,54,0,240
3,note_on,53,36,0
3,note_on,53,0,240
3,note_on,53,39,0
3,note_on,53,0,240
3,note_on,51,39,0
3,note_on,51,0,240
3,note_on,49,37,0
3,note_on,49,0,240
3,note_on,48,36,0
3,note_on,48,0,240
3,note_on,46,36,0
3,note_on,46,0,240
3,note_on,44,35,0
3,note_on,44,0,240
3,note_on,37,35,0
3,note_on,37,0,240
3,note_on,56,35,240
3,note_on,56,0,240
3,note_on,58,36,0
3,note_on,58,0,240
3,note_on,60,37,0
3,note_on,60,0,240
3,note_on,61,41,0
3,note_on,61,0,240
3,note_on,61,45,0
3,note_on,61,0,240
3,note_on,60,37,0
3,note_on,60,0,240
3,note_on,52,41,0
3,note_on,52,0,240
3,note_on,53,36,0
3,note_on,53,0,240
3,note_on,61,39,0
3,note_on,61,0,240
3,note_on,60,35,0
3,note_on,60,0,240
3,note_on,58,39,0
3,note_on,58,0,480
3,note_on,46,41,0
3,note_on,46,0,240
3,note_on,53,35,0
3,note_on,53,0,240
3,note_on,56,37,0
3,note_on,56,0,240
3,note_on,60,35,0
3,note_on,60,0,240
3,note_on,60,39,0
3,note_on,60,0,240
3,note_on,58,35,0
3,note_on,58,0,240
3,note_on,50,36,0
3,note_on,50,0,240
3,note_on,51,35,0
3,note_on,51,0,240
3,note_on,60,37,0
3,note_on,60,0,240
3,note_on,58,35,0
3,note_on,58,0,240
3,note_on,56,37,0
3,note_on,56,0,480
3,note_on,58,39,0
3,note_on,58,0,198
3,note_on,56,37,0
3,note_on,56,0,240
3,note_on,54,36,0
3,note_on,54,0,240
3,note_on,53,35,0
3,note_on,53,0,240
3,note_on,53,39,0
3,note_on,53,0,240
3,note_on,51,39,0
3,note_on,51,0,240
3,note_on,49,37,0
3,note_on,49,0,240
3,note_on,48,36,0
3,note_on,48,0,240
3,note_on,46,35,0
3,note_on,46,0,240
3,note_on,44,35,0
3,note_on,44,0,240
3,note_on,37,35,0
3,note_on,37,0,240
3,note_on,58,42,240
3,note_on,58,0,240
3,note_on,56,37,0
3,note_on,56,0,240
3,note_on,54,36,0
3,note_on,54,0,240
3,note_on,53,36,0
3,note_on,53,0,240
3,note_on,53,39,0
3,note_on,53,0,240
3,note_on,51,39,0
3,note_on,51,0,240
3,note_on,49,37,0
3,note_on,49,0,240
3,note_on,48,36,0
3,note_on,48,0,240
3,note_on,46,36,0
3,note_on,46,0,240
3,note_on,44,35,0
3,note_on,44,0,240
3,note_on,37,35,0
3,note_on,37,0,68
3,note_on,56,39,240
3,note_on,56,0,240
3,note_on,55,36,0
3,note_on,55,0,240
3,note_on,58,39,0
3,note_on,58,0,229
3,note_on,56,34,0
3,note_on,56,0,240
3,note_on,59,39,0
3,note_on,59,0,339
3,note_on,47,43,0
3,note_on,47,0,240
3,note_on,53,39,0
3,note_on,53,0,240
3,note_on,56,43,0
3,note_on,56,0,231
3,note_on,54,39,0
3,note_on,54,0,240
3,note_on,58,45,0
3,note_on,58,0,480
3,note_on,42,41,0
3,note_on,42,0,212
3,note_on,49,36,0
3,note_on,49,0,240
3,note_on,54,41,0
3,note_on,54,0,240
3,note_on,58,36,0
3,note_on,58,0,240
3,note_on,56,43,0
3,note_on,56,0,452
3,note_on,37,39,0
3,note_on,37,0,141
3,note_on,44,35,0
3,note_on,44,0,240
3,note_on,49,39,0
3,note_on,49,0,240
3,note_on,56,36,0
3,note_on,56,0,240
3,note_on,61,39,0
3,note_on,61,0,221
3,note_on,60,34,0
3,note_on,60,0,240
3,note_on,59,35,0
3,note_on,59,0,240
3,note_on,58,34,0
3,note_on,58,0,240
3,note_on,59,41,0
3,note_on,59,0,240
3,note_on,49,35,0
3,note_on,49,0,240
3,note_on,42,37,0
3,note_on,42,0,213
3,note_on,63,25,0
3,note_on,54,21,0
3,note_on,49,21,0
3,note_on,49,0,480
3,note_on,54,0,0
3,note_on,63,0,0
3,note_on,49,18,0
3,note_on,54,18,0
3,note_on,61,23,0
3,note_on,61,0,480
3,note_on,54,0,0
3,note_on,49,0,0
3,note_on,42,34,0
3,note_on,42,0,213
3,note_on,63,23,0
3,note_on,49,18,0
3,note_on,54,18,0
3,note_on,54,0,480
3,note_on,49,0,0
3,note_on,63,0,0
3,note_on,49,15,0
3,note_on,54,15,0
3,note_on,61,18,0
3,note_on,61,0,480
3,note_on,54,0,0
3,note_on,49,0,0
3,note_on,37,33,0
3,note_on,37,0,213
3,note_on,63,27,0
3,note_on,54,23,0
3,note_on,49,23,0
3,note_on,49,0,480
3,note_on,54,0,0
3,note_on,63,0,0
3,note_on,49,18,0
3,note_on,54,18,0
3,note_on,61,23,0
3,note_on,61,0,480
3,note_on,54,0,0
3,note_on,49,0,0
3,note_on,42,34,0
3,note_on,42,0,213
3,note_on,63,24,0
3,note_on,49,20,0
3,note_on,54,20,0
3,note_on,54,0,480
3,note_on,49,0,0
3,note_on,63,0,0
3,note_on,49,17,0
3,note_on,54,17,0
3,note_on,61,22,0
3,note_on,61,0,480
3,note_on,54,0,0
3,note_on,49,0,0
3,note_on,49,12,0
3,note_on,54,15,0
3,note_on,61,22,0
3,note_on,61,0,480
3,note_on,54,0,0
3,note_on,49,0,0
3,note_on,49,18,0
3,note_on,54,18,0
3,note_on,59,23,0
3,note_on,59,0,480
3,note_on,54,0,0
3,note_on,49,0,0
3,note_on,49,12,0
3,note_on,54,15,0
3,note_on,58,21,0
3,note_on,58,0,480
3,note_on,54,0,0
3,note_on,49,0,0
3,note_on,49,13,0
3,note_on,54,16,0
3,note_on,58,21,0
3,note_on,58,0,227
3,note_on,54,0,0
3,note_on,49,0,0
3,note_on,47,20,0
3,note_on,49,24,0
3,note_on,49,0,480
3,note_on,47,0,0
3,note_on,46,20,0
3,note_on,49,24,0
3,note_on,49,0,480
3,note_on,46,0,0
3,note_on,46,20,0
3,note_on,49,24,0
3,note_on,49,0,480
3,note_on,46,0,0
3,note_on,47,20,0
3,note_on,49,24,0
3,note_on,49,0,480
3,note_on,47,0,0
3,note_on,46,20,0
3,note_on,49,24,0
3,note_on,49,0,480
3,note_on,46,0,0
3,note_on,46,20,0
3,note_on,49,24,0
3,note_on,49,0,480
3,note_on,46,0,0
3,note_on,47,20,0
3,note_on,49,24,0
3,note_on,49,0,480
3,note_on,47,0,0
3,note_on,46,20,0
3,note_on,49,24,0
3,note_on,49,0,480
3,note_on,46,0,0
3,note_on,44,31,0
3,note_on,44,0,251
3,note_on,64,26,0
3,note_on,56,22,0
3,note_on,51,22,0
3,note_on,51,0,480
3,note_on,56,0,0
3,note_on,64,0,0
3,note_on,51,17,0
3,note_on,56,17,0
3,note_on,63,22,0
3,note_on,63,0,480
3,note_on,56,0,0
3,note_on,51,0,0
3,note_on,44,38,0
3,note_on,44,0,160
3,note_on,64,24,0
3,note_on,51,18,0
3,note_on,56,18,0
3,note_on,56,0,480
3,note_on,51,0,0
3,note_on,64,0,0
3,note_on,51,17,0
3,note_on,56,17,0
3,note_on,63,21,0
3,note_on,63,0,480
3,note_on,56,0,0
3,note_on,51,0,0
3,note_on,39,33,0
3,note_on,39,0,183
3,note_on,64,25,0
3,note_on,58,21,0
3,note_on,51,21,0
3,note_on,51,0,480
3,note_on,58,0,0
3,note_on,64,0,0
3,note_on,51,16,0
3,note_on,58,16,0
3,note_on,63,21,0
3,note_on,63,0,480
3,note_on,58,0,0
3,note_on,51,0,0
3,note_on,44,34,0
3,note_on,44,0,213
3,note_on,64,25,0
3,note_on,51,21,0
3,note_on,56,21,0
3,note_on,56,0,480
3,note_on,51,0,0
3,note_on,64,0,0
3,note_on,51,18,0
3,note_on,56,18,0
3,note_on,63,23,0
3,note_on,63,0,480
3,note_on,56,0,0
3,note_on,51,0,0
3,note_on,51,16,0
3,note_on,56,16,0
3,note_on,63,25,0
3,note_on,63,0,480
3,note_on,56,0,0
3,note_on,51,0,0
3,note_on,51,20,0
3,note_on,56,20,0
3,note_on,61,24,0
3,note_on,61,0,480
3,note_on,56,0,0
3,note_on,51,0,0
3,note_on,51,20,0
3,note_on,56,20,0
3,note_on,59,24,0
3,note_on,59,0,480
3,note_on,56,0,0
3,note_on,51,0,0
3,note_on,51,21,0
3,note_on,56,21,0
3,note_on,59,25,0
3,note_on,59,0,480
3,note_on,56,0,0
3,note_on,51,0,0
3,note_on,49,22,0
3,note_on,51,26,0
3,note_on,51,0,464
3,note_on,49,0,0
3,note_on,47,22,0
3,note_on,51,26,0
3,note_on,51,0,480
3,note_on,47,0,0
3,note_on,47,22,0
3,note_on,51,26,0
3,note_on,51,0,480
3,note_on,47,0,0
3,note_on,49,22,0
3,note_on,51,24,0
3,note_on,51,0,480
3,note_on,49,0,0
3,note_on,47,22,0
3,note_on,51,26,0
3,note_on,51,0,480
3,note_on,47,0,0
3,note_on,47,22,0
3,note_on,51,26,0
3,note_on,51,0,480
3,note_on,47,0,0
3,note_on,46,21,0
3,note_on,51,25,0
3,note_on,51,0,480
3,note_on,46,0,0
3,note_on,44,20,0
3,note_on,51,24,0
3,note_on,51,0,480
3,note_on,44,0,0
3,note_on,37,20,0
3,note_on,37,0,374
3,note_on,49,27,480
3,note_on,49,0,331
3,note_on,50,26,0
3,note_on,50,0,60
3,note_on,51,26,0
3,note_on,51,0,60
3,note_on,53,25,0
3,note_on,53,0,30
3,note_on,51,21,0
3,note_on,51,0,80
3,note_on,53,24,0
3,note_on,53,0,80
3,note_on,51,22,0
3,note_on,51,0,80
3,note_on,53,24,0
3,note_on,53,0,80
3,note_on,51,21,0
3,note_on,51,0,80
3,note_on,53,24,0
3,note_on,53,0,80
3,note_on,51,21,0
3,note_on,51,0,80
3,note_on,53,24,0
3,note_on,53,0,80
3,note_on,51,21,0
3,note_on,51,0,80
3,note_on,53,24,0
3,note_on,53,0,80
3,note_on,51,21,0
3,note_on,51,0,80
3,note_on,53,24,0
3,note_on,53,0,120
3,note_on,51,21,0
3,note_on,51,0,120
3,note_on,53,24,0
3,note_on,53,0,60
3,note_on,51,20,0
3,note_on,51,0,60
3,note_on,49,24,0
3,note_on,49,0,60
3,note_on,51,18,0
3,note_on,51,0,60
3,note_on,53,32,0
3,note_on,53,0,320
3,note_on,37,25,0
3,note_on,37,0,480
3,note_on,49,27,0
3,note_on,49,0,343
3,note_on,50,26,0
3,note_on,50,0,60
3,note_on,51,26,0
3,note_on,51,0,60
3,note_on,53,25,0
3,note_on,53,0,44
3,note_on,51,21,0
3,note_on,51,0,80
3,note_on,53,24,0
3,note_on,53,0,80
3,note_on,51,22,0
3,note_on,51,0,80
3,note_on,53,24,0
3,note_on,53,0,80
3,note_on,51,21,0
3,note_on,51,0,80
3,note_on,53,24,0
3,note_on,53,0,80
3,note_on,51,21,0
3,note_on,51,0,80
3,note_on,53,24,0
3,note_on,53,0,80
3,note_on,51,21,0
3,note_on,51,0,80
3,note_on,53,24,0
3,note_on,53,0,80
3,note_on,51,21,0
3,note_on,51,0,80
3,note_on,53,24,0
3,note_on,53,0,120
3,note_on,51,21,0
3,note_on,51,0,120
3,note_on,53,24,0
3,note_on,53,0,60
3,note_on,51,20,0
3,note_on,51,0,60
3,note_on,49,24,0
3,note_on,49,0,60
3,note_on,51,18,0
3,note_on,51,0,60
3,note_on,53,34,0
3,note_on,53,0,151
3,note_on,37,36,0
3,note_on,37,0,480
3,note_on,49,17,0
3,note_on,56,17,0
3,note_on,61,26,0
3,note_on,61,0,480
3,note_on,56,0,0
3,note_on,49,0,0
3,note_on,49,20,0
3,note_on,56,20,0
3,note_on,61,28,0
3,note_on,61,0,251
3,note_on,56,0,0
3,note_on,49,0,0
3,note_on,49,21,0
3,note_on,56,21,0
3,note_on,59,32,0
3,note_on,59,0,480
3,note_on,56,0,0
3,note_on,49,0,0
3,note_on,49,21,0
3,note_on,56,21,0
3,note_on,59,34,0
3,note_on,59,0,480
3,note_on,56,0,0
3,note_on,49,0,0
3,note_on,49,27,0
3,note_on,56,27,0
3,note_on,59,37,0
3,note_on,59,0,331
3,note_on,56,0,0
3,note_on,49,0,0
3,note_on,49,20,0
3,note_on,56,20,0
3,note_on,59,31,0
3,note_on,59,0,12
3,note_on,56,0,5
3,note_on,49,0,0
3,note_on,49,17,0
3,note_on,56,26,0
3,note_on,56,0,331
3,note_on,49,0,0
3,note_on,42,18,0
3,note_on,49,26,0
3,note_on,49,0,480
3,note_on,42,0,0
3,note_on,58,39,0
3,note_on,58,0,240
3,note_on,56,37,0
3,note_on,56,0,240
3,note_on,54,36,0
3,note_on,54,0,240
3,note_on,53,35,0
3,note_on,53,0,240
3,note_on,53,39,0
3,note_on,53,0,240
3,note_on,51,39,0
3,note_on,51,0,240
3,note_on,49,37,0
3,note_on,49,0,240
3,note_on,48,36,0
3,note_on,48,0,240
3,note_on,46,35,0
3,note_on,46,0,240
3,note_on,44,35,0
3,note_on,44,0,240
3,note_on,37,35,0
3,note_on,37,0,240
3,note_on,58,42,240
3,note_on,58,0,240
3,note_on,56,37,0
3,note_on,56,0,240
3,note_on,54,36,0
3,note_on,54,0,240
3,note_on,53,36,0
3,note_on,53,0,240
3,note_on,53,39,0
3,note_on,53,0,240
3,note_on,51,39,0
3,note_on,51,0,240
3,note_on,49,37,0
3,note_on,49,0,240
3,note_on,48,36,0
3,note_on,48,0,240
3,note_on,46,36,0
3,note_on,46,0,240
3,note_on,44,35,0
3,note_on,44,0,240
3,note_on,37,35,0
3,note_on,37,0,240
3,note_on,56,35,240
3,note_on,56,0,240
3,note_on,58,36,0
3,note_on,58,0,240
3,note_on,60,37,0
3,note_on,60,0,240
3,note_on,61,41,0
3,note_on,61,0,240
3,note_on,61,45,0
3,note_on,61,0,240
3,note_on,60,37,0
3,note_on,60,0,240
3,note_on,52,41,0
3,note_on,52,0,240
3,note_on,53,36,0
3,note_on,53,0,240
3,note_on,61,39,0
3,note_on,61,0,240
3,note_on,60,35,0
3,note_on,60,0,240
3,note_on,58,39,0
3,note_on,58,0,480
3,note_on,46,41,0
3,note_on,46,0,240
3,note_on,53,35,0
3,note_on,53,0,240
3,note_on,56,37,0
3,note_on,56,0,240
3,note_on,60,35,0
3,note_on,60,0,240
3,note_on,60,39,0
3,note_on,60,0,240
3,note_on,58,35,0
3,note_on,58,0,240
3,note_on,50,36,0
3,note_on,50,0,240
3,note_on,51,35,0
3,note_on,51,0,240
3,note_on,60,37,0
3,note_on,60,0,240
3,note_on,58,35,0
3,note_on,58,0,240
3,note_on,56,37,0
3,note_on,56,0,480
3,note_on,58,39,0
3,note_on,58,0,240
3,note_on,56,37,0
3,note_on,56,0,240
3,note_on,54,36,0
3,note_on,54,0,240
3,note_on,53,35,0
3,note_on,53,0,240
3,note_on,53,39,0
3,note_on,53,0,240
3,note_on,51,39,0
3,note_on,51,0,240
3,note_on,49,37,0
3,note_on,49,0,240
3,note_on,48,36,0
3,note_on,48,0,240
3,note_on,46,35,0
3,note_on,46,0,240
3,note_on,44,35,0
3,note_on,44,0,240
3,note_on,37,35,0
3,note_on,37,0,240
3,note_on,58,42,240
3,note_on,58,0,240
3,note_on,56,37,0
3,note_on,56,0,240
3,note_on,54,36,0
3,note_on,54,0,240
3,note_on,53,36,0
3,note_on,53,0,240
3,note_on,53,39,0
3,note_on,53,0,240
3,note_on,51,39,0
3,note_on,51,0,240
3,note_on,49,37,0
3,note_on,49,0,240
3,note_on,48,36,0
3,note_on,48,0,240
3,note_on,46,36,0
3,note_on,46,0,240
3,note_on,44,35,0
3,note_on,44,0,240
3,note_on,37,35,0
3,note_on,37,0,57
3,note_on,56,39,240
3,note_on,56,0,240
3,note_on,55,36,0
3,note_on,55,0,240
3,note_on,58,39,0
3,note_on,58,0,229
3,note_on,56,34,0
3,note_on,56,0,240
3,note_on,59,39,0
3,note_on,59,0,339
3,note_on,47,43,0
3,note_on,47,0,240
3,note_on,53,39,0
3,note_on,53,0,240
3,note_on,56,43,0
3,note_on,56,0,230
3,note_on,54,39,0
3,note_on,54,0,240
3,note_on,58,45,0
3,note_on,58,0,480
3,note_on,42,41,0
3,note_on,42,0,169
3,note_on,49,36,0
3,note_on,49,0,240
3,note_on,54,41,0
3,note_on,54,0,240
3,note_on,58,36,0
3,note_on,58,0,240
3,note_on,56,43,0
3,note_on,56,0,462
3,note_on,37,39,0
3,note_on,37,0,70
3,note_on,44,35,0
3,note_on,44,0,240
3,note_on,49,39,0
3,note_on,49,0,240
3,note_on,56,36,0
3,note_on,56,0,240
3,note_on,61,39,0
3,note_on,61,0,221
3,note_on,60,34,0
3,note_on,60,0,240
3,note_on,59,34,0
3,note_on,59,0,240
3,note_on,58,34,0
3,note_on,58,0,240
3,note_on,59,41,0
3,note_on,59,0,240
3,note_on,49,34,0
3,note_on,49,0,240
3,note_on,42,37,0
3,note_on,42,0,213
3,note_on,63,25,0
3,note_on,54,21,0
3,note_on,49,21,0
3,note_on,49,0,480
3,note_on,54,0,0
3,note_on,63,0,0
3,note_on,49,18,0
3,note_on,54,18,0
3,note_on,61,23,0
3,note_on,61,0,480
3,note_on,54,0,0
3,note_on,49,0,0
3,note_on,42,34,0
3,note_on,42,0,213
3,note_on,63,23,0
3,note_on,49,18,0
3,note_on,54,18,0
3,note_on,54,0,480
3,note_on,49,0,0
3,note_on,63,0,0
3,note_on,49,15,0
3,note_on,54,15,0
3,note_on,61,18,0
3,note_on,61,0,480
3,note_on,54,0,0
3,note_on,49,0,0
3,note_on,37,33,0
3,note_on,37,0,186
3,note_on,63,27,0
3,note_on,54,23,0
3,note_on,49,23,0
3,note_on,49,0,480
3,note_on,54,0,0
3,note_on,63,0,0
3,note_on,49,18,0
3,note_on,54,18,0
3,note_on,61,23,0
3,note_on,61,0,480
3,note_on,54,0,0
3,note_on,49,0,0
3,note_on,42,34,0
3,note_on,42,0,240
3,note_on,63,24,0
3,note_on,49,20,0
3,note_on,54,20,0
3,note_on,54,0,480
3,note_on,49,0,0
3,note_on,63,0,0
3,note_on,49,17,0
3,note_on,54,17,0
3,note_on,61,22,0
3,note_on,61,0,480
3,note_on,54,0,0
3,note_on,49,0,0
3,note_on,49,12,0
3,note_on,54,15,0
3,note_on,61,22,0
3,note_on,61,0,480
3,note_on,54,0,0
3,note_on,49,0,0
3,note_on,49,18,0
3,note_on,54,18,0
3,note_on,59,23,0
3,note_on,59,0,480
3,note_on,54,0,0
3,note_on,49,0,0
3,note_on,49,12,0
3,note_on,54,15,0
3,note_on,58,21,0
3,note_on,58,0,480
3,note_on,54,0,0
3,note_on,49,0,0
3,note_on,49,20,0
3,note_on,54,20,0
3,note_on,58,23,0
3,note_on,58,0,468
3,note_on,54,0,0
3,note_on,49,0,0
3,note_on,47,20,0
3,note_on,49,24,0
3,note_on,49,0,480
3,note_on,47,0,0
3,note_on,46,20,0
3,note_on,49,24,0
3,note_on,49,0,480
3,note_on,46,0,0
3,note_on,46,20,0
3,note_on,49,24,0
3,note_on,49,0,480
3,note_on,46,0,0
3,note_on,47,20,0
3,note_on,49,24,0
3,note_on,49,0,480
3,note_on,47,0,0
3,note_on,46,20,0
3,note_on,49,24,0
3,note_on,49,0,480
3,note_on,46,0,0
3,note_on,46,20,0
3,note_on,49,24,0
3,note_on,49,0,480
3,note_on,46,0,0
3,note_on,47,20,0
3,note_on,49,24,0
3,note_on,49,0,480
3,note_on,47,0,0
3,note_on,46,20,0
3,note_on,49,24,0
3,note_on,49,0,480
3,note_on,46,0,0
3,note_on,44,31,0
3,note_on,44,0,251
3,note_on,64,26,0
3,note_on,56,22,0
3,note_on,51,22,0
3,note_on,51,0,480
3,note_on,56,0,0
3,note_on,64,0,0
3,note_on,51,17,0
3,note_on,56,17,0
3,note_on,63,22,0
3,note_on,63,0,480
3,note_on,56,0,0
3,note_on,51,0,0
3,note_on,44,38,0
3,note_on,44,0,114
3,note_on,64,24,0
3,note_on,51,18,0
3,note_on,56,18,0
3,note_on,56,0,480
3,note_on,51,0,0
3,note_on,64,0,0
3,note_on,51,17,0
3,note_on,56,17,0
3,note_on,63,21,0
3,note_on,63,0,480
3,note_on,56,0,0
3,note_on,51,0,0
3,note_on,39,33,0
3,note_on,39,0,228
3,note_on,64,25,0
3,note_on,58,21,0
3,note_on,51,21,0
3,note_on,51,0,480
3,note_on,58,0,0
3,note_on,64,0,0
3,note_on,51,16,0
3,note_on,58,16,0
3,note_on,63,21,0
3,note_on,63,0,480
3,note_on,58,0,0
3,note_on,51,0,0
3,note_on,44,34,0
3,note_on,44,0,213
3,note_on,64,25,0
3,note_on,51,21,0
3,note_on,56,21,0
3,note_on,56,0,480
3,note_on,51,0,0
3,note_on,64,0,0
3,note_on,51,18,0
3,note_on,56,18,0
3,note_on,63,23,0
3,note_on,63,0,480
3,note_on,56,0,0
3,note_on,51,0,0
3,note_on,51,16,0
3,note_on,56,16,0
3,note_on,63,25,0
3,note_on,63,0,480
3,note_on,56,0,0
3,note_on,51,0,0
3,note_on,51,20,0
3,note_on,56,20,0
3,note_on,61,24,0
3,note_on,61,0,480
3,note_on,56,0,0
3,note_on,51,0,0
3,note_on,51,20,0
3,note_on,56,20,0
3,note_on,59,24,0
3,note_on,59,0,480
3,note_on,56,0,0
3,note_on,51,0,0
3,note_on,51,21,0
3,note_on,56,21,0
3,note_on,59,25,0
3,note_on,59,0,480
3,note_on,56,0,0
3,note_on,51,0,0
3,note_on,49,22,0
3,note_on,51,26,0
3,note_on,51,0,471
3,note_on,49,0,0
3,note_on,47,22,0
3,note_on,51,26,0
3,note_on,51,0,480
3,note_on,47,0,0
3,note_on,47,22,0
3,note_on,51,26,0
3,note_on,51,0,480
3,note_on,47,0,0
3,note_on,49,22,0
3,note_on,51,24,0
3,note_on,51,0,480
3,note_on,49,0,0
3,note_on,47,22,0
3,note_on,51,26,0
3,note_on,51,0,480
3,note_on,47,0,0
3,note_on,47,22,0
3,note_on,51,26,0
3,note_on,51,0,480
3,note_on,47,0,0
3,note_on,46,21,0
3,note_on,51,25,0
3,note_on,51,0,480
3,note_on,46,0,0
3,note_on,44,20,0
3,note_on,51,24,0
3,note_on,51,0,480
3,note_on,44,0,0
3,note_on,37,20,0
3,note_on,37,0,377
3,note_on,49,27,480
3,note_on,49,0,348
3,note_on,50,26,0
3,note_on,50,0,60
3,note_on,51,26,0
3,note_on,51,0,60
3,note_on,53,25,0
3,note_on,53,0,44
3,note_on,51,21,0
3,note_on,51,0,80
3,note_on,53,24,0
3,note_on,53,0,80
3,note_on,51,22,0
3,note_on,51,0,80
3,note_on,53,24,0
3,note_on,53,0,80
3,note_on,51,21,0
3,note_on,51,0,80
3,note_on,53,24,0
3,note_on,53,0,80
3,note_on,51,21,0
3,note_on,51,0,80
3,note_on,53,24,0
3,note_on,53,0,80
3,note_on,51,21,0
3,note_on,51,0,80
3,note_on,53,24,0
3,note_on,53,0,80
3,note_on,51,21,0
3,note_on,51,0,80
3,note_on,53,24,0
3,note_on,53,0,120
3,note_on,51,21,0
3,note_on,51,0,120
3,note_on,53,24,0
3,note_on,53,0,60
3,note_on,51,20,0
3,note_on,51,0,60
3,note_on,49,24,0
3,note_on,49,0,60
3,note_on,51,18,0
3,note_on,51,0,60
3,note_on,53,32,0
3,note_on,53,0,305
3,note_on,37,25,0
3,note_on,37,0,480
3,note_on,49,27,0
3,note_on,49,0,360
3,note_on,50,26,0
3,note_on,50,0,60
3,note_on,51,26,0
3,note_on,51,0,60
3,note_on,53,25,0
3,note_on,53,0,34
3,note_on,51,21,0
3,note_on,51,0,80
3,note_on,53,24,0
3,note_on,53,0,80
3,note_on,51,22,0
3,note_on,51,0,80
3,note_on,53,24,0
3,note_on,53,0,80
3,note_on,51,21,0
3,note_on,51,0,80
3,note_on,53,24,0
3,note_on,53,0,80
3,note_on,51,21,0
3,note_on,51,0,80
3,note_on,53,24,0
3,note_on,53,0,80
3,note_on,51,21,0
3,note_on,51,0,80
3,note_on,53,24,0
3,note_on,53,0,80
3,note_on,51,21,0
3,note_on,51,0,80
3,note_on,53,24,0
3,note_on,53,0,120
3,note_on,51,21,0
3,note_on,51,0,120
3,note_on,53,24,0
3,note_on,53,0,60
3,note_on,51,20,0
3,note_on,51,0,60
3,note_on,49,24,0
3,note_on,49,0,60
3,note_on,51,18,0
3,note_on,51,0,60
3,note_on,53,34,0
3,note_on,53,0,76
3,note_on,37,37,0
3,note_on,37,0,480
3,note_on,49,20,0
3,note_on,56,20,0
3,note_on,61,30,0
3,note_on,61,0,480
3,note_on,56,0,0
3,note_on,49,0,0
3,note_on,49,23,0
3,note_on,56,23,0
3,note_on,61,34,0
3,note_on,61,0,274
3,note_on,56,0,0
3,note_on,49,0,0
3,note_on,49,24,0
3,note_on,56,24,0
3,note_on,59,36,0
3,note_on,59,0,480
3,note_on,56,0,0
3,note_on,49,0,0
3,note_on,49,23,0
3,note_on,56,22,0
3,note_on,59,39,0
3,note_on,59,0,480
3,note_on,56,0,0
3,note_on,49,0,0
3,note_on,49,28,0
3,note_on,56,34,0
3,note_on,59,34,0
3,note_on,59,0,331
3,note_on,56,0,0
3,note_on,49,0,0
3,note_on,49,29,0
3,note_on,56,34,0
3,note_on,59,35,0
3,note_on,59,0,254
3,note_on,56,0,0
3,note_on,49,0,0
3,note_on,59,27,0
3,note_on,49,23,0
3,note_on,56,24,0
3,note_on,56,0,480
3,note_on,49,0,0
3,note_on,59,0,0
3,note_on,49,27,0
3,note_on,56,34,0
3,note_on,59,34,0
3,note_on,59,0,317
3,note_on,56,0,0
3,note_on,49,0,0
3,note_on,49,14,0
3,note_on,56,20,0
3,note_on,59,36,0
3,note_on,59,0,600
3,note_on,56,0,0
3,note_on,49,0,0
3,note_on,38,31,0
3,note_on,50,39,0
3,note_on,50,0,240
3,note_on,38,0,0
3,note_on,38,35,0
3,note_on,50,43,0
3,note_on,50,0,354
3,note_on,38,0,0
3,note_on,37,39,0
3,note_on,49,47,0
3,note_on,49,0,514
3,note_on,37,0,0
3,note_on,36,31,0
3,note_on,48,38,0
3,note_on,48,0,240
3,note_on,36,0,0
3,note_on,36,34,0
3,note_on,48,42,0
3,note_on,48,0,310
3,note_on,36,0,0
3,note_on,35,42,0
3,note_on,47,50,0
3,note_on,47,0,423
3,note_on,35,0,0
3,note_on,34,32,0
3,note_on,46,40,0
3,note_on,46,0,240
3,note_on,34,0,0
3,note_on,34,34,0
3,note_on,46,44,0
3,note_on,46,0,331
3,note_on,34,0,0
3,note_on,33,45,0
3,note_on,45,55,0
3,note_on,45,0,548
3,note_on,33,0,0
3,note_on,32,35,0
3,note_on,44,44,0
3,note_on,44,0,240
3,note_on,32,0,0
3,note_on,32,37,0
3,note_on,44,48,0
3,note_on,44,0,213
3,note_on,32,0,0
3,note_on,30,29,0
3,note_on,42,56,0
3,note_on,42,0,186
3,note_on,30,0,0
3,note_on,34,42,0
3,note_on,46,49,0
3,note_on,46,0,463
3,note_on,34,0,0
3,note_on,27,36,0
3,note_on,39,42,0
3,note_on,39,0,480
3,note_on,27,0,0
3,note_on,28,36,0
3,note_on,40,42,0
3,note_on,40,0,90
3,note_on,28,0,0
3,note_on,29,36,150
3,note_on,41,45,0
3,note_on,41,0,90
3,note_on,29,0,0
3,note_on,30,42,150
3,note_on,42,50,0
3,note_on,42,0,480
3,note_on,30,0,0
3,note_on,32,50,0
3,note_on,44,59,0
3,note_on,44,0,264
3,note_on,32,0,0
3,note_on,44,37,0
3,note_on,51,37,30
3,note_on,53,37,4
3,note_on,59,46,30
3,note_on,59,0,333
3,note_on,44,0,0
3,note_on,51,0,0
3,note_on,53,0,0
3,note_on,46,37,0
3,note_on,53,37,30
3,note_on,56,37,16
3,note_on,62,46,30
3,note_on,62,0,480
3,note_on,46,0,0
3,note_on,53,0,0
3,note_on,56,0,0
3,note_on,30,38,0
3,note_on,42,44,0
3,note_on,42,0,480
3,note_on,30,0,0
3,note_on,31,38,0
3,note_on,43,44,0
3,note_on,43,0,90
3,note_on,31,0,0
3,note_on,32,35,150
3,note_on,44,43,0
3,note_on,44,0,90
3,note_on,32,0,0
3,note_on,33,43,150
3,note_on,45,51,0
3,note_on,45,0,480
3,note_on,33,0,0
3,note_on,35,53,0
3,note_on,47,63,0
3,note_on,47,0,312
3,note_on,35,0,0
3,note_on,48,39,0
3,note_on,54,39,30
3,note_on,56,39,13
3,note_on,62,48,30
3,note_on,62,0,351
3,note_on,48,0,0
3,note_on,54,0,0
3,note_on,56,0,0
3,note_on,49,39,0
3,note_on,56,39,30
3,note_on,59,39,20
3,note_on,65,48,30
3,note_on,65,0,480
3,note_on,49,0,0
3,note_on,56,0,0
3,note_on,59,0,0
3,note_on,33,36,0
3,note_on,45,42,0
3,note_on,45,0,480
3,note_on,33,0,0
3,note_on,35,36,0
3,note_on,47,42,0
3,note_on,47,0,90
3,note_on,35,0,0
3,note_on,36,37,150
3,note_on,48,45,0
3,note_on,48,0,90
3,note_on,36,0,0
3,note_on,37,46,150
3,note_on,49,54,0
3,note_on,49,0,480
3,note_on,37,0,0
3,note_on,38,40,0
3,note_on,50,47,0
3,note_on,50,0,480
3,note_on,38,0,0
3,note_on,39,38,0
3,note_on,51,44,0
3,note_on,51,0,90
3,note_on,39,0,0
3,note_on,40,37,150
3,note_on,52,45,0
3,note_on,52,0,90
3,note_on,40,0,0
3,note_on,41,45,150
3,note_on,53,53,0
3,note_on,53,0,480
3,note_on,41,0,0
3,note_on,42,40,0
3,note_on,54,47,0
3,note_on,54,0,480
3,note_on,42,0,0
3,note_on,44,38,0
3,note_on,56,44,0
3,note_on,56,0,90
3,note_on,44,0,0
3,note_on,45,37,150
3,note_on,57,45,0
3,note_on,57,0,90
3,note_on,45,0,0
3,note_on,46,47,150
3,note_on,58,56,0
3,note_on,58,0,480
3,note_on,46,0,0
3,note_on,47,48,0
3,note_on,59,57,0
3,note_on,59,0,381
3,note_on,47,0,0
3,note_on,35,43,0
3,note_on,47,52,0
3,note_on,47,0,480
3,note_on,35,0,0
3,note_on,36,43,0
3,note_on,48,52,0
3,note_on,48,0,462
3,note_on,36,0,0
3,note_on,37,50,0
3,note_on,49,60,0
3,note_on,49,0,282
3,note_on,37,0,0
3,note_on,49,48,0
3,note_on,58,57,0
3,note_on,58,0,480
3,note_on,49,0,0
3,note_on,61,57,0
3,note_on,54,48,0
3,note_on,54,0,480
3,note_on,61,0,0
3,note_on,58,42,0
3,note_on,66,60,0
3,note_on,66,0,480
3,note_on,58,0,0
3,note_on,61,40,0
3,note_on,70,57,0
3,note_on,70,0,480
3,note_on,61,0,0
3,note_on,73,57,0
3,note_on,66,40,0
3,note_on,66,0,480
3,note_on,73,0,0
3,note_on,70,48,0
3,note_on,78,57,0
3,note_on,78,0,480
3,note_on,70,0,0
3,note_on,71,46,0
3,note_on,77,51,0
3,note_on,77,0,460
3,note_on,71,0,0
3,note_on,61,42,0
3,note_on,65,42,0
3,note_on,71,51,0
3,note_on,71,0,320
3,note_on,65,0,0
3,note_on,61,0,0
3,note_on,61,46,0
3,note_on,65,46,0
3,note_on,71,52,0
3,note_on,71,0,480
3,note_on,65,0,0
3,note_on,54,38,0
3,note_on,70,47,0
3,note_on,70,0,462
3,note_on,54,0,0
3,note_on,61,0,0
3,note_on,49,28,0
3,note_on,53,33,0
3,note_on,59,38,0
3,note_on,59,0,213
3,note_on,53,0,0
3,note_on,49,0,0
3,note_on,49,31,0
3,note_on,53,34,0
3,note_on,59,42,0
3,note_on,59,0,480
3,note_on,53,0,0
3,note_on,42,32,0
3,note_on,58,38,0
3,note_on,58,0,460
3,note_on,42,0,0
3,note_on,49,0,0
3,note_on,49,29,0
3,note_on,53,31,0
3,note_on,59,36,0
3,note_on,59,0,320
3,note_on,53,0,0
3,note_on,49,0,0
3,note_on,49,30,0
3,note_on,53,34,0
3,note_on,59,38,0
3,note_on,59,0,480
3,note_on,53,0,0
3,note_on,42,32,0
3,note_on,58,38,0
3,note_on,58,0,462
3,note_on,42,0,0
3,note_on,49,0,0
3,note_on,44,36,3360
3,note_on,56,43,0
3,note_on,56,0,480
3,note_on,44,0,0
3,note_on,42,30,0
3,note_on,54,37,0
3,note_on,54,0,480
3,note_on,42,0,0
3,note_on,39,30,0
3,note_on,51,37,0
3,note_on,51,0,480
3,note_on,39,0,0
3,note_on,42,36,0
3,note_on,54,43,0
3,note_on,54,0,480
3,note_on,42,0,0
3,note_on,41,30,0
3,note_on,53,37,0
3,note_on,53,0,480
3,note_on,41,0,0
3,note_on,37,30,0
3,note_on,49,37,0
3,note_on,49,0,480
3,note_on,37,0,0
3,note_on,39,36,0
3,note_on,51,43,0
3,note_on,51,0,480
3,note_on,39,0,0
3,note_on,37,30,0
3,note_on,49,37,0
3,note_on,49,0,480
3,note_on,37,0,0
3,note_on,34,30,0
3,note_on,46,37,0
3,note_on,46,0,480
3,note_on,34,0,0
3,note_on,35,32,0
3,note_on,47,39,0
3,note_on,47,0,480
3,note_on,35,0,0
3,note_on,34,29,0
3,note_on,46,35,0
3,note_on,46,0,480
3,note_on,34,0,0
3,note_on,30,29,0
3,note_on,42,35,0
3,note_on,42,0,480
3,note_on,30,0,0
3,note_on,27,40,0
3,note_on,39,47,0
3,note_on,39,0,480
3,note_on,27,0,0
3,note_on,28,38,0
3,note_on,40,44,0
3,note_on,40,0,90
3,note_on,28,0,0
3,note_on,29,38,150
3,note_on,41,47,0
3,note_on,41,0,90
3,note_on,29,0,0
3,note_on,30,47,150
3,note_on,42,56,0
3,note_on,42,0,480
3,note_on,30,0,0
3,note_on,32,56,0
3,note_on,44,67,0
3,note_on,44,0,354
3,note_on,32,0,0
3,note_on,44,43,0
3,note_on,51,43,0
3,note_on,53,43,0
3,note_on,59,51,0
3,note_on,59,0,480
3,note_on,44,0,0
3,note_on,51,0,0
3,note_on,53,0,0
3,note_on,46,43,0
3,note_on,53,43,0
3,note_on,56,43,0
3,note_on,62,51,0
3,note_on,62,0,460
3,note_on,46,0,0
3,note_on,53,0,0
3,note_on,56,0,0
3,note_on,30,40,0
3,note_on,42,47,0
3,note_on,42,0,480
3,note_on,30,0,0
3,note_on,31,38,0
3,note_on,43,44,0
3,note_on,43,0,90
3,note_on,31,0,0
3,note_on,32,35,150
3,note_on,44,43,0
3,note_on,44,0,90
3,note_on,32,0,0
3,note_on,33,46,150
3,note_on,45,54,0
3,note_on,45,0,480
3,note_on,33,0,0
3,note_on,35,56,0
3,note_on,47,67,0
3,note_on,47,0,402
3,note_on,35,0,0
3,note_on,48,43,0
3,note_on,54,43,0
3,note_on,56,43,0
3,note_on,62,51,0
3,note_on,62,0,480
3,note_on,48,0,0
3,note_on,54,0,0
3,note_on,56,0,0
3,note_on,49,43,0
3,note_on,56,43,0
3,note_on,59,43,0
3,note_on,65,51,0
3,note_on,65,0,472
3,note_on,49,0,0
3,note_on,56,0,0
3,note_on,59,0,0
3,note_on,33,36,0
3,note_on,45,42,0
3,note_on,45,0,480
3,note_on,33,0,0
3,note_on,35,36,0
3,note_on,47,42,0
3,note_on,47,0,90
3,note_on,35,0,0
3,note_on,36,37,150
3,note_on,48,45,0
3,note_on,48,0,90
3,note_on,36,0,0
3,note_on,37,46,150
3,note_on,49,54,0
3,note_on,49,0,480
3,note_on,37,0,0
3,note_on,38,40,0
3,note_on,50,47,0
3,note_on,50,0,480
3,note_on,38,0,0
3,note_on,39,40,0
3,note_on,51,47,0
3,note_on,51,0,90
3,note_on,39,0,0
3,note_on,40,39,150
3,note_on,52,48,0
3,note_on,52,0,90
3,note_on,40,0,0
3,note_on,41,45,150
3,note_on,53,53,0
3,note_on,53,0,480
3,note_on,41,0,0
3,note_on,42,42,0
3,note_on,54,49,0
3,note_on,54,0,480
3,note_on,42,0,0
3,note_on,43,42,0
3,note_on,55,49,0
3,note_on,55,0,90
3,note_on,43,0,0
3,note_on,44,40,150
3,note_on,56,50,0
3,note_on,56,0,90
3,note_on,44,0,0
3,note_on,45,49,150
3,note_on,57,58,0
3,note_on,57,0,480
3,note_on,45,0,0
3,note_on,54,50,0
3,note_on,48,50,0
3,note_on,60,59,0
3,note_on,60,0,381
3,note_on,48,0,0
3,note_on,54,0,0
3,note_on,55,45,0
3,note_on,47,45,0
3,note_on,59,54,0
3,note_on,59,0,337
3,note_on,47,0,0
3,note_on,55,0,0
3,note_on,26,49,0
3,note_on,38,59,0
3,note_on,38,0,467
3,note_on,26,0,0
3,note_on,49,61,0
3,note_on,25,50,0
3,note_on,37,60,0
3,note_on,49,0,42
3,note_on,37,0,240
3,note_on,25,0,0
3,note_on,49,48,0
3,note_on,57,57,0
3,note_on,57,0,480
3,note_on,49,0,0
3,note_on,61,57,0
3,note_on,54,48,0
3,note_on,54,0,480
3,note_on,61,0,0
3,note_on,57,42,0
3,note_on,66,60,0
3,note_on,66,0,480
3,note_on,57,0,0
3,note_on,61,40,0
3,note_on,69,57,0
3,note_on,69,0,480
3,note_on,61,0,0
3,note_on,73,57,0
3,note_on,66,40,0
3,note_on,66,0,480
3,note_on,73,0,0
3,note_on,69,48,0
3,note_on,78,57,0
3,note_on,78,0,480
3,note_on,69,0,0
3,note_on,71,46,0
3,note_on,77,54,0
3,note_on,77,0,461
3,note_on,71,0,0
3,note_on,61,42,0
3,note_on,65,42,0
3,note_on,71,51,0
3,note_on,71,0,389
3,note_on,65,0,0
3,note_on,61,0,0
3,note_on,61,46,0
3,note_on,65,46,0
3,note_on,71,54,0
3,note_on,71,0,480
3,note_on,65,0,0
3,note_on,54,38,0
3,note_on,69,47,0
3,note_on,69,0,463
3,note_on,54,0,0
3,note_on,61,0,0
3,note_on,49,28,0
3,note_on,53,33,0
3,note_on,59,38,0
3,note_on,59,0,320
3,note_on,53,0,0
3,note_on,49,0,0
3,note_on,49,30,0
3,note_on,53,36,0
3,note_on,59,42,0
3,note_on,59,0,480
3,note_on,53,0,0
3,note_on,42,32,0
3,note_on,57,38,0
3,note_on,57,0,464
3,note_on,42,0,0
3,note_on,49,0,0
3,note_on,49,26,0
3,note_on,53,31,0
3,note_on,59,36,0
3,note_on,59,0,343
3,note_on,53,0,0
3,note_on,49,0,0
3,note_on,49,29,0
3,note_on,53,34,0
3,note_on,59,38,0
3,note_on,59,0,480
3,note_on,53,0,0
3,note_on,42,30,0
3,note_on,57,37,0
3,note_on,57,0,461
3,note_on,42,0,0
3,note_on,49,0,0
3,note_on,37,57,0
3,note_on,49,69,0
3,note_on,49,0,594
3,note_on,37,0,0
3,note_on,38,52,0
3,note_on,50,63,0
3,note_on,50,0,114
3,note_on,38,0,0
3,note_on,37,48,0
3,note_on,49,57,0
3,note_on,49,0,240
3,note_on,37,0,0
3,note_on,32,53,0
3,note_on,44,64,0
3,note_on,44,0,57
3,note_on,32,0,0
3,note_on,33,47,0
3,note_on,45,55,0
3,note_on,45,0,240
3,note_on,33,0,0
3,note_on,30,52,0
3,note_on,42,63,0
3,note_on,42,0,1227
3,note_on,30,0,0
3,note_on,26,72,0
3,note_on,38,72,0
3,note_on,38,0,46
3,note_on,26,0,0
3,note_on,54,38,0
3,note_on,54,0,240
3,note_on,54,39,0
3,note_on,54,0,240
3,note_on,53,40,0
3,note_on,53,0,240
3,note_on,54,42,0
3,note_on,54,0,240
3,note_on,55,43,0
3,note_on,55,0,240
3,note_on,56,45,0
3,note_on,56,0,240
3,note_on,57,46,0
3,note_on,57,0,240
3,note_on,58,47,0
3,note_on,58,0,240
3,note_on,59,49,0
3,note_on,59,0,240
3,note_on,60,50,0
3,note_on,60,0,240
3,note_on,61,51,0
3,note_on,61,0,240
3,note_on,62,53,0
3,note_on,62,0,240
3,note_on,63,55,0
3,note_on,63,0,240
3,note_on,64,55,0
3,note_on,64,0,240
3,note_on,65,55,0
3,note_on,65,0,240
3,note_on,66,57,0
3,note_on,66,0,240
3,note_on,66,58,0
3,note_on,66,0,480
3,note_on,67,64,0
3,note_on,67,0,480
3,note_on,67,74,0
3,note_on,63,74,0
3,note_on,58,74,0
3,note_on,55,74,0
3,note_on,55,0,137
3,note_on,67,0,0
3,note_on,63,0,0
3,note_on,58,0,0
3,note_on,39,79,240
3,note_on,51,79,0
3,note_on,51,0,480
3,note_on,39,0,0
3,note_on,55,38,0
3,note_on,55,0,230
3,note_on,55,39,0
3,note_on,55,0,240
3,note_on,54,40,0
3,note_on,54,0,240
3,note_on,55,42,0
3,note_on,55,0,240
3,note_on,56,43,0
3,note_on,56,0,240
3,note_on,57,45,0
3,note_on,57,0,240
3,note_on,58,46,0
3,note_on,58,0,240
3,note_on,59,47,0
3,note_on,59,0,240
3,note_on,60,49,0
3,note_on,60,0,240
3,note_on,61,50,0
3,note_on,61,0,240
3,note_on,62,51,0
3,note_on,62,0,240
3,note_on,63,53,0
3,note_on,63,0,240
3,note_on,64,55,0
3,note_on,64,0,240
3,note_on,65,55,0
3,note_on,65,0,240
3,note_on,66,55,0
3,note_on,66,0,240
3,note_on,67,57,0
3,note_on,67,0,240
3,note_on,67,58,0
3,note_on,67,0,480
3,note_on,68,64,0
3,note_on,68,0,480
3,note_on,68,74,0
3,note_on,64,74,0
3,note_on,59,74,0
3,note_on,56,74,0
3,note_on,56,0,160
3,note_on,68,0,0
3,note_on,64,0,0
3,note_on,59,0,0
3,note_on,40,79,240
3,note_on,52,79,0
3,note_on,52,0,480
3,note_on,40,0,0
3,note_on,56,50,0
3,note_on,59,59,0
3,note_on,59,0,233
3,note_on,56,0,0
3,note_on,56,49,0
3,note_on,59,58,0
3,note_on,59,0,240
3,note_on,56,0,0
3,note_on,55,46,0
3,note_on,58,54,0
3,note_on,58,0,240
3,note_on,55,0,0
3,note_on,56,46,0
3,note_on,59,54,0
3,note_on,59,0,240
3,note_on,56,0,0
3,note_on,57,49,0
3,note_on,60,58,0
3,note_on,60,0,240
3,note_on,57,0,0
3,note_on,58,49,0
3,note_on,61,58,0
3,note_on,61,0,240
3,note_on,58,0,0
3,note_on,59,49,0
3,note_on,62,58,0
3,note_on,62,0,120
3,note_on,59,0,0
3,note_on,59,45,120
3,note_on,62,53,0
3,note_on,62,0,120
3,note_on,59,0,0
3,note_on,59,45,120
3,note_on,62,53,0
3,note_on,62,0,120
3,note_on,59,0,0
3,note_on,59,46,120
3,note_on,62,54,0
3,note_on,62,0,120
3,note_on,59,0,0
3,note_on,59,49,120
3,note_on,62,58,0
3,note_on,62,0,240
3,note_on,59,0,0
3,note_on,58,46,0
3,note_on,61,54,0
3,note_on,61,0,240
3,note_on,58,0,0
3,note_on,58,49,0
3,note_on,61,58,0
3,note_on,61,0,120
3,note_on,58,0,0
3,note_on,58,46,120
3,note_on,61,54,0
3,note_on,61,0,120
3,note_on,58,0,0
3,note_on,57,46,120
3,note_on,60,54,0
3,note_on,60,0,120
3,note_on,57,0,0
3,note_on,58,46,120
3,note_on,61,54,0
3,note_on,61,0,120
3,note_on,58,0,0
3,note_on,59,49,120
3,note_on,62,58,0
3,note_on,62,0,240
3,note_on,59,0,0
3,note_on,60,46,0
3,note_on,63,54,0
3,note_on,63,0,240
3,note_on,60,0,0
3,note_on,61,49,0
3,note_on,64,58,0
3,note_on,64,0,120
3,note_on,61,0,0
3,note_on,61,51,120
3,note_on,64,60,0
3,note_on,64,0,120
3,note_on,61,0,0
3,note_on,61,53,120
3,note_on,64,63,0
3,note_on,64,0,120
3,note_on,61,0,0
3,note_on,61,53,120
3,note_on,64,64,0
3,note_on,64,0,120
3,note_on,61,0,0
3,note_on,61,56,120
3,note_on,64,67,0
3,note_on,64,0,240
3,note_on,61,0,0
3,note_on,60,50,0
3,note_on,63,59,0
3,note_on,63,0,240
3,note_on,60,0,0
3,note_on,60,50,0
3,note_on,63,59,0
3,note_on,63,0,120
3,note_on,60,0,0
3,note_on,60,52,120
3,note_on,63,61,0
3,note_on,63,0,120
3,note_on,60,0,0
3,note_on,59,53,120
3,note_on,62,64,0
3,note_on,62,0,120
3,note_on,59,0,0
3,note_on,60,54,120
3,note_on,63,65,0
3,note_on,63,0,120
3,note_on,60,0,0
3,note_on,59,56,120
3,note_on,65,67,0
3,note_on,61,56,0
3,note_on,61,0,416
3,note_on,65,0,0
3,note_on,59,0,0
3,note_on,37,49,0
3,note_on,49,59,0
3,note_on,49,0,480
3,note_on,37,0,0
3,note_on,65,65,0
3,note_on,61,54,0
3,note_on,59,54,0
3,note_on,59,0,480
3,note_on,61,0,0
3,note_on,65,0,0
3,note_on,64,67,0
3,note_on,61,56,0
3,note_on,59,56,0
3,note_on,54,56,0
3,note_on,54,0,240
3,note_on,64,0,0
3,note_on,61,0,0
3,note_on,59,0,0
3,note_on,30,51,0
3,note_on,42,60,0
3,note_on,42,0,480
3,note_on,30,0,0
3,note_on,64,61,0
3,note_on,61,52,0
3,note_on,58,52,0
3,note_on,54,52,0
3,note_on,54,0,480
3,note_on,64,0,0
3,note_on,61,0,0
3,note_on,58,0,0
3,note_on,57,54,0
3,note_on,63,63,0
3,note_on,59,54,0
3,note_on,59,0,247
3,note_on,63,0,0
3,note_on,57,0,0
3,note_on,35,47,0
3,note_on,47,57,0
3,note_on,47,0,480
3,note_on,35,0,0
3,note_on,63,61,0
3,note_on,59,51,0
3,note_on,57,51,0
3,note_on,57,0,480
3,note_on,59,0,0
3,note_on,63,0,0
3,note_on,62,67,0
3,note_on,59,56,0
3,note_on,57,56,0
3,note_on,52,56,0
3,note_on,52,0,240
3,note_on,62,0,0
3,note_on,59,0,0
3,note_on,57,0,0
3,note_on,28,51,0
3,note_on,40,60,0
3,note_on,40,0,480
3,note_on,28,0,0
3,note_on,62,61,0
3,note_on,56,52,0
3,note_on,52,52,0
3,note_on,52,0,480
3,note_on,56,0,0
3,note_on,62,0,0
3,note_on,55,56,0
3,note_on,61,67,0
3,note_on,57,56,0
3,note_on,57,0,251
3,note_on,61,0,0
3,note_on,55,0,0
3,note_on,33,50,0
3,note_on,45,59,0
3,note_on,45,0,480
3,note_on,33,0,0
3,note_on,61,60,0
3,note_on,57,51,0
3,note_on,55,51,0
3,note_on,55,0,480
3,note_on,57,0,0
3,note_on,61,0,0
3,note_on,54,56,0
3,note_on,60,67,0
3,note_on,60,0,240
3,note_on,54,0,0
3,note_on,57,48,0
3,note_on,60,58,0
3,note_on,60,0,480
3,note_on,57,0,0
3,note_on,69,55,0
3,note_on,72,65,0
3,note_on,72,0,480
3,note_on,69,0,0
3,note_on,84,68,0
3,note_on,81,56,0
3,note_on,81,0,480
3,note_on,84,0,0
3,note_on,48,48,0
3,note_on,60,58,0
3,note_on,60,0,228
3,note_on,48,0,0
3,note_on,24,48,240
3,note_on,36,57,0
3,note_on,36,0,240
3,note_on,24,0,0
3,note_on,25,50,240
3,note_on,37,59,0
3,note_on,37,0,240
3,note_on,25,0,0
3,note_on,37,34,240
3,note_on,49,40,0
3,note_on,49,0,240
3,note_on,37,0,0
3,note_on,27,37,240
3,note_on,39,46,0
3,note_on,39,0,240
3,note_on,27,0,0
3,note_on,29,40,240
3,note_on,41,49,0
3,note_on,41,0,240
3,note_on,29,0,0
3,note_on,41,35,240
3,note_on,53,44,0
3,note_on,53,0,240
3,note_on,41,0,0
3,note_on,29,35,240
3,note_on,41,43,0
3,note_on,41,0,240
3,note_on,29,0,0
3,note_on,34,30,240
3,note_on,46,37,0
3,note_on,46,0,240
3,note_on,34,0,0
3,note_on,37,25,240
3,note_on,49,31,0
3,note_on,49,0,240
3,note_on,37,0,0
3,note_on,39,33,240
3,note_on,39,0,240
3,note_on,41,38,240
3,note_on,41,0,240
3,note_on,29,28,720
3,note_on,41,34,0
3,note_on,41,0,240
3,note_on,29,0,0
3,note_on,34,30,240
3,note_on,46,36,0
3,note_on,46,0,480
3,note_on,34,0,0
3,note_on,44,26,0
3,note_on,56,31,0
3,note_on,56,0,480
3,note_on,44,0,0
3,note_on,41,26,0
3,note_on,53,31,0
3,note_on,53,0,480
3,note_on,41,0,0
3,note_on,42,30,0
3,note_on,54,36,0
3,note_on,54,0,480
3,note_on,42,0,0
3,note_on,41,26,0
3,note_on,53,31,0
3,note_on,53,0,320
3,note_on,41,0,0
3,note_on,37,26,0
3,note_on,49,31,0
3,note_on,49,0,480
3,note_on,37,0,0
3,note_on,39,30,0
3,note_on,51,36,0
3,note_on,51,0,472
3,note_on,39,0,0
3,note_on,37,26,0
3,note_on,49,31,0
3,note_on,49,0,480
3,note_on,37,0,0
3,note_on,34,31,0
3,note_on,46,31,0
3,note_on,46,0,480
3,note_on,34,0,0
3,note_on,35,38,0
3,note_on,47,38,0
3,note_on,47,0,480
3,note_on,35,0,0
3,note_on,34,38,0
3,note_on,46,38,0
3,note_on,46,0,266
3,note_on,34,0,0
3,note_on,30,40,0
3,note_on,42,40,0
3,note_on,42,0,480
3,note_on,30,0,0
3,note_on,27,40,0
3,note_on,39,47,0
3,note_on,39,0,473
3,note_on,27,0,0
3,note_on,28,38,0
3,note_on,40,44,0
3,note_on,40,0,90
3,note_on,28,0,0
3,note_on,29,38,150
3,note_on,41,47,0
3,note_on,41,0,90
3,note_on,29,0,0
3,note_on,30,46,150
3,note_on,42,54,0
3,note_on,42,0,480
3,note_on,30,0,0
3,note_on,32,56,0
3,note_on,44,67,0
3,note_on,44,0,297
3,note_on,32,0,0
3,note_on,44,43,0
3,note_on,51,43,0
3,note_on,53,43,0
3,note_on,59,51,0
3,note_on,59,0,480
3,note_on,44,0,0
3,note_on,51,0,0
3,note_on,53,0,0
3,note_on,46,43,0
3,note_on,53,43,0
3,note_on,56,43,0
3,note_on,62,51,0
3,note_on,62,0,468
3,note_on,46,0,0
3,note_on,53,0,0
3,note_on,56,0,0
3,note_on,30,40,0
3,note_on,42,47,0
3,note_on,42,0,480
3,note_on,30,0,0
3,note_on,31,38,0
3,note_on,43,44,0
3,note_on,43,0,90
3,note_on,31,0,0
3,note_on,32,35,150
3,note_on,44,43,0
3,note_on,44,0,90
3,note_on,32,0,0
3,note_on,33,46,150
3,note_on,45,54,0
3,note_on,45,0,480
3,note_on,33,0,0
3,note_on,35,56,0
3,note_on,47,67,0
3,note_on,47,0,402
3,note_on,35,0,0
3,note_on,48,43,0
3,note_on,54,43,0
3,note_on,56,43,0
3,note_on,62,51,0
3,note_on,62,0,480
3,note_on,48,0,0
3,note_on,54,0,0
3,note_on,56,0,0
3,note_on,49,43,0
3,note_on,56,43,0
3,note_on,59,43,0
3,note_on,65,51,0
3,note_on,65,0,470
3,note_on,49,0,0
3,note_on,56,0,0
3,note_on,59,0,0
3,note_on,33,36,0
3,note_on,45,42,0
3,note_on,45,0,480
3,note_on,33,0,0
3,note_on,35,36,0
3,note_on,47,42,0
3,note_on,47,0,90
3,note_on,35,0,0
3,note_on,36,37,150
3,note_on,48,45,0
3,note_on,48,0,90
3,note_on,36,0,0
3,note_on,37,47,150
3,note_on,49,56,0
3,note_on,49,0,480
3,note_on,37,0,0
3,note_on,38,40,0
3,note_on,50,47,0
3,note_on,50,0,480
3,note_on,38,0,0
3,note_on,39,40,0
3,note_on,51,47,0
3,note_on,51,0,90
3,note_on,39,0,0
3,note_on,40,39,150
3,note_on,52,48,0
3,note_on,52,0,90
3,note_on,40,0,0
3,note_on,41,45,150
3,note_on,53,53,0
3,note_on,53,0,480
3,note_on,41,0,0
3,note_on,42,42,0
3,note_on,54,50,0
3,note_on,54,0,480
3,note_on,42,0,0
3,note_on,43,42,0
3,note_on,55,48,0
3,note_on,55,0,90
3,note_on,43,0,0
3,note_on,44,39,150
3,note_on,56,50,0
3,note_on,56,0,90
3,note_on,44,0,0
3,note_on,45,48,150
3,note_on,57,57,0
3,note_on,57,0,480
3,note_on,45,0,0
3,note_on,36,53,0
3,note_on,48,65,0
3,note_on,48,0,360
3,note_on,36,0,0
3,note_on,60,51,0
3,note_on,66,51,0
3,note_on,69,51,0
3,note_on,72,61,0
3,note_on,72,0,240
3,note_on,60,0,0
3,note_on,66,0,0
3,note_on,69,0,0
3,note_on,47,69,165
3,note_on,35,57,0
3,note_on,35,0,281
3,note_on,47,0,0
3,note_on,45,49,0
3,note_on,49,58,0
3,note_on,54,58,0
3,note_on,57,58,0
3,note_on,57,0,320
3,note_on,45,0,0
3,note_on,49,0,0
3,note_on,54,0,0
3,note_on,33,54,0
3,note_on,45,65,0
3,note_on,45,0,125
3,note_on,33,0,0
3,note_on,47,50,240
3,note_on,54,50,0
3,note_on,59,59,0
3,note_on,59,0,320
3,note_on,54,0,0
3,note_on,47,0,0
3,note_on,35,54,0
3,note_on,47,65,0
3,note_on,47,0,45
3,note_on,35,0,0
3,note_on,56,50,240
3,note_on,50,45,0
3,note_on,54,47,0
3,note_on,59,59,0
3,note_on,59,0,411
3,note_on,56,0,0
3,note_on,50,0,0
3,note_on,54,0,0
3,note_on,38,54,0
3,note_on,50,65,0
3,note_on,50,0,240
3,note_on,38,0,0
3,note_on,54,50,217
3,note_on,49,50,0
3,note_on,57,59,0
3,note_on,57,0,434
3,note_on,49,0,0
3,note_on,54,0,0
3,note_on,37,54,0
3,note_on,49,65,0
3,note_on,49,0,11
3,note_on,37,0,0
3,note_on,54,50,240
3,note_on,49,50,0
3,note_on,56,59,0
3,note_on,56,0,388
3,note_on,49,0,0
3,note_on,54,0,0
3,note_on,37,54,0
3,note_on,49,65,0
3,note_on,49,0,11
3,note_on,37,0,0
3,note_on,56,47,240
3,note_on,49,47,0
3,note_on,59,56,0
3,note_on,59,0,423
3,note_on,49,0,0
3,note_on,56,0,0
3,note_on,61,40,0
3,note_on,65,46,0
3,note_on,71,55,0
3,note_on,71,0,240
3,note_on,65,0,0
3,note_on,61,0,0
3,note_on,61,46,205
3,note_on,65,50,0
3,note_on,71,59,0
3,note_on,71,0,334
3,note_on,65,0,0
3,note_on,61,0,0
3,note_on,54,42,0
3,note_on,61,44,30
3,note_on,69,51,30
3,note_on,69,0,469
3,note_on,61,0,0
3,note_on,54,0,0
3,note_on,49,19,0
3,note_on,53,26,0
3,note_on,59,30,0
3,note_on,59,0,240
3,note_on,53,0,0
3,note_on,49,0,0
3,note_on,49,21,240
3,note_on,53,28,0
3,note_on,59,33,0
3,note_on,59,0,320
3,note_on,53,0,0
3,note_on,49,0,0
3,note_on,42,25,0
3,note_on,49,25,30
3,note_on,57,30,30
3,note_on,57,0,464
3,note_on,49,0,0
3,note_on,42,0,0
3,note_on,49,17,0
3,note_on,53,21,0
3,note_on,59,25,0
3,note_on,59,0,480
3,note_on,53,0,0
3,note_on,49,0,0
3,note_on,49,24,0
3,note_on,54,28,0
3,note_on,57,33,0
3,note_on,57,0,380
3,note_on,54,0,0
3,note_on,49,0,0
3,note_on,42,25,0
3,note_on,42,0,480
3,note_on,49,17,0
3,note_on,53,20,0
3,note_on,59,23,0
3,note_on,59,0,470
3,note_on,53,0,0
3,note_on,49,0,0
3,note_on,49,21,0
3,note_on,54,26,0
3,note_on,57,30,0
3,note_on,57,0,326
3,note_on,54,0,0
3,note_on,49,0,0
3,note_on,42,22,0
3,note_on,42,0,480
3,note_on,49,15,0
3,note_on,53,18,0
3,note_on,59,21,0
3,note_on,59,0,467
3,note_on,53,0,0
3,note_on,49,0,0
3,note_on,49,19,0
3,note_on,54,24,0
3,note_on,58,27,0
3,note_on,58,0,293
3,note_on,54,0,0
3,note_on,49,0,0
3,note_on,42,21,0
3,note_on,42,0,480
3,note_on,49,14,0
3,note_on,53,17,0
3,note_on,59,20,0
3,note_on,59,0,470
3,note_on,53,0,0
3,note_on,49,0,0
3,note_on,49,18,0
3,note_on,54,23,0
3,note_on,58,26,0
3,note_on,58,0,320
3,note_on,54,0,0
3,note_on,49,0,0
3,note_on,42,19,0
3,note_on,42,0,480
3,note_on,49,13,0
3,note_on,53,16,0
3,note_on,59,19,0
3,note_on,59,0,476
3,note_on,53,0,0
3,note_on,49,0,0
3,note_on,49,17,0
3,note_on,54,21,0
3,note_on,58,25,0
3,note_on,58,0,346
3,note_on,54,0,0
3,note_on,49,0,0
3,note_on,42,18,0
3,note_on,42,0,480
3,note_on,49,13,0
3,note_on,53,15,0
3,note_on,59,17,0
3,note_on,59,0,470
3,note_on,53,0,0
3,note_on,49,0,0
3,note_on,49,16,0
3,note_on,54,20,0
3,note_on,58,24,0
3,note_on,58,0,373
3,note_on,54,0,0
3,note_on,49,0,0
3,note_on,42,17,0
3,note_on,42,0,480
3,note_on,49,13,0
3,note_on,53,15,0
3,note_on,59,17,0
3,note_on,59,0,472
3,note_on,53,0,0
3,note_on,49,0,0
3,note_on,42,32,0
3,note_on,42,0,186
3,note_on,63,20,0
3,note_on,54,17,0
3,note_on,49,17,0
3,note_on,49,0,480
3,note_on,54,0,0
3,note_on,63,0,0
3,note_on,49,14,0
3,note_on,54,14,0
3,note_on,61,17,0
3,note_on,61,0,480
3,note_on,54,0,0
3,note_on,49,0,0
3,note_on,49,16,0
3,note_on,54,16,0
3,note_on,61,20,0
3,note_on,61,0,213
3,note_on,54,0,0
3,note_on,49,0,0
3,note_on,63,16,0
3,note_on,49,10,0
3,note_on,54,14,0
3,note_on,54,0,480
3,note_on,49,0,0
3,note_on,63,0,0
3,note_on,49,12,0
3,note_on,54,12,0
3,note_on,61,15,0
3,note_on,61,0,480
3,note_on,54,0,0
3,note_on,49,0,0
3,note_on,49,16,0
3,note_on,54,16,0
3,note_on,61,20,0
3,note_on,61,0,160
3,note_on,54,0,0
3,note_on,49,0,0
3,note_on,63,19,0
3,note_on,54,16,0
3,note_on,49,16,0
3,note_on,49,0,480
3,note_on,54,0,0
3,note_on,63,0,0
3,note_on,49,13,0
3,note_on,54,13,0
3,note_on,61,16,0
3,note_on,61,0,480
3,note_on,54,0,0
3,note_on,49,0,0
3,note_on,49,16,0
3,note_on,54,16,0
3,note_on,61,20,0
3,note_on,61,0,213
3,note_on,54,0,0
3,note_on,49,0,0
3,note_on,63,19,0
3,note_on,49,16,0
3,note_on,54,16,0
3,note_on,54,0,480
3,note_on,49,0,0
3,note_on,63,0,0
3,note_on,49,13,0
3,note_on,54,13,0
3,note_on,61,16,0
3,note_on,61,0,480
3,note_on,54,0,0
3,note_on,49,0,0
3,note_on,49,16,0
3,note_on,54,16,0
3,note_on,61,19,0
3,note_on,61,0,464
3,note_on,54,0,0
3,note_on,49,0,0
3,note_on,49,14,0
3,note_on,54,14,0
3,note_on,59,17,0
3,note_on,59,0,480
3,note_on,54,0,0
3,note_on,49,0,0
3,note_on,49,15,0
3,note_on,54,15,0
3,note_on,58,18,0
3,note_on,58,0,480
3,note_on,54,0,0
3,note_on,49,0,0
3,note_on,49,15,0
3,note_on,54,15,0
3,note_on,58,18,0
3,note_on,58,0,480
3,note_on,54,0,0
3,note_on,49,0,0
3,note_on,47,17,0
3,note_on,49,21,0
3,note_on,49,0,480
3,note_on,47,0,0
3,note_on,46,17,0
3,note_on,49,21,0
3,note_on,49,0,480
3,note_on,46,0,0
3,note_on,46,17,0
3,note_on,49,21,0
3,note_on,49,0,480
3,note_on,46,0,0
3,note_on,47,17,0
3,note_on,49,21,0
3,note_on,49,0,480
3,note_on,47,0,0
3,note_on,46,17,0
3,note_on,49,21,0
3,note_on,49,0,480
3,note_on,46,0,0
3,note_on,46,16,0
3,note_on,49,20,0
3,note_on,49,0,480
3,note_on,46,0,0
3,note_on,47,16,0
3,note_on,49,20,0
3,note_on,49,0,480
3,note_on,47,0,0
3,note_on,46,15,0
3,note_on,49,18,0
3,note_on,49,0,960
3,note_on,46,0,0
3,note_on,32,17,0
3,note_on,44,20,0
3,note_on,44,0,480
3,note_on,32,0,0
3,note_on,30,17,0
3,note_on,42,20,0
3,note_on,42,0,480
3,note_on,30,0,0
3,note_on,30,17,0
3,note_on,42,20,0
3,note_on,42,0,480
3,note_on,30,0,0
3,note_on,32,17,0
3,note_on,44,20,0
3,note_on,44,0,480
3,note_on,32,0,0
3,note_on,30,17,0
3,note_on,42,20,0
3,note_on,42,0,480
3,note_on,30,0,0
3,note_on,25,16,0
3,note_on,37,20,0
3,note_on,37,0,120
3,note_on,25,0,0
3,note_on,30,16,1320
3,note_on,42,20,0
3,note_on,42,0,120
3,note_on,30,0,0
