Track,Message Type,Note,Velocity,Time
1,note_on,65,70,0
1,note_on,65,0,240
1,note_on,65,66,120
1,note_on,65,0,120
1,note_on,67,70,0
1,note_on,67,0,480
1,note_on,69,70,0
1,note_on,69,0,480
1,note_on,70,71,0
1,note_on,70,0,240
1,note_on,72,66,120
1,note_on,72,0,120
1,note_on,74,70,0
1,note_on,74,0,480
1,note_on,75,75,0
1,note_on,75,0,240
1,note_on,77,79,0
1,note_on,77,0,240
1,note_on,79,83,0
1,note_on,79,0,120
1,note_on,81,75,240
1,note_on,81,0,120
1,note_on,82,76,0
1,note_on,82,0,60
1,note_on,84,67,0
1,note_on,84,0,60
1,note_on,82,73,0
1,note_on,82,0,60
1,note_on,84,66,0
1,note_on,84,0,60
1,note_on,82,70,0
1,note_on,82,0,60
1,note_on,84,64,0
1,note_on,84,0,60
1,note_on,82,70,0
1,note_on,82,0,60
1,note_on,84,64,0
1,note_on,84,0,60
1,note_on,81,70,0
1,note_on,81,0,240
1,note_on,79,56,0
1,note_on,79,0,180
1,note_on,77,46,0
1,note_on,77,0,60
1,note_on,82,53,0
1,note_on,82,0,120
1,note_on,82,49,240
1,note_on,82,0,120
1,note_on,74,44,0
1,note_on,74,0,900
1,note_on,75,45,0
1,note_on,75,0,60
1,note_on,79,51,0
1,note_on,79,0,120
1,note_on,79,46,240
1,note_on,79,0,120
1,note_on,69,44,0
1,note_on,69,0,900
1,note_on,70,45,0
1,note_on,70,0,60
1,note_on,74,49,0
1,note_on,74,0,120
1,note_on,74,47,240
1,note_on,74,0,120
1,note_on,64,44,0
1,note_on,64,0,960
1,note_on,65,55,0
1,note_on,65,0,120
1,note_on,69,58,240
1,note_on,69,0,120
1,note_on,72,59,0
1,note_on,72,0,240
1,note_on,75,60,0
1,note_on,75,0,240
1,note_on,79,67,0
1,note_on,79,0,360
1,note_on,77,63,0
1,note_on,77,0,58
1,note_on,77,55,2
1,note_on,77,0,60
1,note_on,86,75,0
1,note_on,86,0,120
1,note_on,84,64,240
1,note_on,84,0,120
1,note_on,82,55,0
1,note_on,82,0,60
1,note_on,84,54,0
1,note_on,84,0,60
1,note_on,82,60,0
1,note_on,82,0,120
1,note_on,79,58,0
1,note_on,79,0,240
1,note_on,77,55,0
1,note_on,79,45,420
1,note_on,79,0,60
1,note_on,77,0,0
1,note_on,82,51,0
1,note_on,82,0,120
1,note_on,82,46,240
1,note_on,82,0,120
1,note_on,69,44,0
1,note_on,69,0,840
1,note_on,70,42,0
1,note_on,70,0,60
1,note_on,74,41,0
1,note_on,74,0,60
1,note_on,77,49,0
1,note_on,77,0,120
1,note_on,77,47,240
1,note_on,77,0,120
1,note_on,64,44,0
1,note_on,64,0,960
1,note_on,65,55,0
1,note_on,65,0,120
1,note_on,69,58,240
1,note_on,69,0,120
1,note_on,72,59,0
1,note_on,72,0,240
1,note_on,75,60,0
1,note_on,75,0,240
1,note_on,74,56,0
1,note_on,74,0,60
1,note_on,75,56,0
1,note_on,75,0,60
1,note_on,74,61,0
1,note_on,74,0,120
1,note_on,72,56,0
1,note_on,72,0,240
1,note_on,74,64,0
1,note_on,74,0,120
1,note_on,65,57,240
1,note_on,65,0,120
1,note_on,70,59,0
1,note_on,70,0,480
1,note_on,69,64,0
1,note_on,69,0,240
1,note_on,67,61,0
1,note_on,67,0,240
1,note_on,65,70,0
1,note_on,65,0,240
1,note_on,65,66,120
1,note_on,65,0,120
1,note_on,67,70,0
1,note_on,67,0,480
1,note_on,69,70,0
1,note_on,69,0,480
1,note_on,70,71,0
1,note_on,70,0,240
1,note_on,72,66,120
1,note_on,72,0,120
1,note_on,74,70,0
1,note_on,74,0,480
1,note_on,75,75,0
1,note_on,75,0,240
1,note_on,77,79,0
1,note_on,77,0,240
1,note_on,79,83,0
1,note_on,79,0,120
1,note_on,81,75,240
1,note_on,81,0,120
1,note_on,82,76,0
1,note_on,82,0,60
1,note_on,84,67,0
1,note_on,84,0,60
1,note_on,82,73,0
1,note_on,82,0,60
1,note_on,84,66,0
1,note_on,84,0,60
1,note_on,82,70,0
1,note_on,82,0,60
1,note_on,84,64,0
1,note_on,84,0,60
1,note_on,82,70,0
1,note_on,82,0,60
1,note_on,84,64,0
1,note_on,84,0,60
1,note_on,81,70,0
1,note_on,81,0,240
1,note_on,79,56,0
1,note_on,79,0,180
1,note_on,77,46,0
1,note_on,77,0,60
1,note_on,82,53,0
1,note_on,82,0,120
1,note_on,82,49,240
1,note_on,82,0,120
1,note_on,74,44,0
1,note_on,74,0,900
1,note_on,75,45,0
1,note_on,75,0,60
1,note_on,79,51,0
1,note_on,79,0,120
1,note_on,79,46,240
1,note_on,79,0,120
1,note_on,69,44,0
1,note_on,69,0,900
1,note_on,70,45,0
1,note_on,70,0,60
1,note_on,74,49,0
1,note_on,74,0,120
1,note_on,74,47,240
1,note_on,74,0,120
1,note_on,64,44,0
1,note_on,64,0,960
1,note_on,65,55,0
1,note_on,65,0,120
1,note_on,69,58,240
1,note_on,69,0,120
1,note_on,72,59,0
1,note_on,72,0,240
1,note_on,75,60,0
1,note_on,75,0,240
1,note_on,79,67,0
1,note_on,79,0,360
1,note_on,77,63,0
1,note_on,77,0,57
1,note_on,77,49,3
1,note_on,77,0,60
1,note_on,86,67,0
1,note_on,86,0,120
1,note_on,84,61,240
1,note_on,84,0,120
1,note_on,82,50,0
1,note_on,82,0,60
1,note_on,84,49,0
1,note_on,84,0,60
1,note_on,82,57,0
1,note_on,82,0,120
1,note_on,79,52,0
1,note_on,79,0,240
1,note_on,77,49,0
1,note_on,79,45,420
1,note_on,79,0,60
1,note_on,77,0,0
1,note_on,82,51,0
1,note_on,82,0,120
1,note_on,82,46,240
1,note_on,82,0,120
1,note_on,69,44,0
1,note_on,69,0,840
1,note_on,70,42,0
1,note_on,70,0,60
1,note_on,74,41,0
1,note_on,74,0,60
1,note_on,77,49,0
1,note_on,77,0,120
1,note_on,77,47,240
1,note_on,77,0,120
1,note_on,64,44,0
1,note_on,64,0,960
1,note_on,65,55,0
1,note_on,65,0,120
1,note_on,69,58,240
1,note_on,69,0,120
1,note_on,72,59,0
1,note_on,72,0,240
1,note_on,75,60,0
1,note_on,75,0,240
1,note_on,74,56,0
1,note_on,74,0,60
1,note_on,75,56,0
1,note_on,75,0,60
1,note_on,74,61,0
1,note_on,74,0,120
1,note_on,72,56,0
1,note_on,72,0,240
1,note_on,74,64,0
1,note_on,74,0,120
1,note_on,65,57,240
1,note_on,65,0,120
1,note_on,70,59,0
1,note_on,70,0,480
1,note_on,69,44,0
1,note_on,69,0,240
1,note_on,70,44,0
1,note_on,70,0,240
1,note_on,72,46,0
1,note_on,72,0,360
1,note_on,74,42,0
1,note_on,74,0,120
1,note_on,72,46,0
1,note_on,72,0,480
1,note_on,76,49,0
1,note_on,76,0,240
1,note_on,77,51,0
1,note_on,77,0,240
1,note_on,79,55,0
1,note_on,79,0,360
1,note_on,81,52,0
1,note_on,81,0,120
1,note_on,79,56,0
1,note_on,79,0,480
1,note_on,77,52,0
1,note_on,77,0,240
1,note_on,74,49,0
1,note_on,74,0,240
1,note_on,72,56,0
1,note_on,72,0,240
1,note_on,74,51,0
1,note_on,74,0,240
1,note_on,72,56,0
1,note_on,72,0,480
1,note_on,76,50,0
1,note_on,76,0,240
1,note_on,77,55,120
1,note_on,77,0,120
1,note_on,79,59,0
1,note_on,79,0,160
1,note_on,81,56,0
1,note_on,81,0,160
1,note_on,79,56,0
1,note_on,79,0,160
1,note_on,77,53,0
1,note_on,77,0,720
1,note_on,74,50,0
1,note_on,74,0,240
1,note_on,72,51,0
1,note_on,72,0,240
1,note_on,74,49,0
1,note_on,74,0,240
1,note_on,72,51,0
1,note_on,72,0,480
1,note_on,76,49,0
1,note_on,76,0,240
1,note_on,77,51,0
1,note_on,77,0,240
1,note_on,79,55,0
1,note_on,79,0,240
1,note_on,81,52,0
1,note_on,81,0,240
1,note_on,79,50,0
1,note_on,79,0,60
1,note_on,81,47,0
1,note_on,81,0,60
1,note_on,79,52,0
1,note_on,79,0,60
1,note_on,81,49,0
1,note_on,81,0,60
1,note_on,79,56,0
1,note_on,79,0,60
1,note_on,81,49,0
1,note_on,81,0,60
1,note_on,79,51,0
1,note_on,79,0,60
1,note_on,81,49,0
1,note_on,81,0,60
1,note_on,77,52,0
1,note_on,77,0,240
1,note_on,74,49,0
1,note_on,74,0,240
1,note_on,72,56,0
1,note_on,72,0,240
1,note_on,74,51,0
1,note_on,74,0,240
1,note_on,72,56,0
1,note_on,72,0,480
1,note_on,76,55,0
1,note_on,76,0,240
1,note_on,77,59,0
1,note_on,77,0,240
1,note_on,79,64,0
1,note_on,79,0,160
1,note_on,81,61,0
1,note_on,81,0,160
1,note_on,79,61,0
1,note_on,79,0,160
1,note_on,77,66,0
1,note_on,77,0,360
1,note_on,67,62,0
1,note_on,67,0,120
1,note_on,77,68,0
1,note_on,77,0,160
1,note_on,66,62,0
1,note_on,66,0,160
1,note_on,77,69,0
1,note_on,77,0,97
1,note_on,77,66,3
1,note_on,77,0,60
1,note_on,65,70,0
1,note_on,65,0,240
1,note_on,65,66,120
1,note_on,65,0,120
1,note_on,67,70,0
1,note_on,67,0,480
1,note_on,69,70,0
1,note_on,69,0,480
1,note_on,70,71,0
1,note_on,70,0,240
1,note_on,72,66,120
1,note_on,72,0,120
1,note_on,74,70,0
1,note_on,74,0,480
1,note_on,75,75,0
1,note_on,75,0,240
1,note_on,77,79,0
1,note_on,77,0,240
1,note_on,79,83,0
1,note_on,79,0,120
1,note_on,81,75,240
1,note_on,81,0,120
1,note_on,82,76,0
1,note_on,82,0,60
1,note_on,84,67,0
1,note_on,84,0,60
1,note_on,82,73,0
1,note_on,82,0,60
1,note_on,84,66,0
1,note_on,84,0,60
1,note_on,82,70,0
1,note_on,82,0,60
1,note_on,84,64,0
1,note_on,84,0,60
1,note_on,82,70,0
1,note_on,82,0,60
1,note_on,84,64,0
1,note_on,84,0,60
1,note_on,81,70,0
1,note_on,81,0,240
1,note_on,79,56,0
1,note_on,79,0,180
1,note_on,77,51,0
1,note_on,77,0,60
1,note_on,82,60,0
1,note_on,82,0,120
1,note_on,82,55,240
1,note_on,82,0,120
1,note_on,74,49,0
1,note_on,74,0,900
1,note_on,75,50,0
1,note_on,75,0,60
1,note_on,79,58,0
1,note_on,79,0,120
1,note_on,79,51,240
1,note_on,79,0,120
1,note_on,69,49,0
1,note_on,69,0,900
1,note_on,70,50,0
1,note_on,70,0,60
1,note_on,74,56,0
1,note_on,74,0,120
1,note_on,74,52,240
1,note_on,74,0,120
1,note_on,64,49,0
1,note_on,64,0,960
1,note_on,65,55,0
1,note_on,65,0,120
1,note_on,69,58,240
1,note_on,69,0,120
1,note_on,72,59,0
1,note_on,72,0,240
1,note_on,75,60,0
1,note_on,75,0,240
1,note_on,79,67,0
1,note_on,79,0,360
1,note_on,77,63,0
1,note_on,77,0,57
1,note_on,77,55,3
1,note_on,77,0,60
1,note_on,86,75,0
1,note_on,86,0,120
1,note_on,84,68,240
1,note_on,84,0,120
1,note_on,82,56,0
1,note_on,82,0,60
1,note_on,84,55,0
1,note_on,84,0,60
1,note_on,82,64,0
1,note_on,82,0,120
1,note_on,79,58,0
1,note_on,79,0,240
1,note_on,77,55,0
1,note_on,79,45,420
1,note_on,79,0,60
1,note_on,77,0,0
1,note_on,82,51,0
1,note_on,82,0,120
1,note_on,82,46,240
1,note_on,82,0,120
1,note_on,69,44,0
1,note_on,69,0,840
1,note_on,70,42,0
1,note_on,70,0,60
1,note_on,74,41,0
1,note_on,74,0,60
1,note_on,77,49,0
1,note_on,77,0,120
1,note_on,77,47,240
1,note_on,77,0,120
1,note_on,64,44,0
1,note_on,64,0,960
1,note_on,65,55,0
1,note_on,65,0,120
1,note_on,69,58,240
1,note_on,69,0,120
1,note_on,72,59,0
1,note_on,72,0,240
1,note_on,75,60,0
1,note_on,75,0,240
1,note_on,74,56,0
1,note_on,74,0,60
1,note_on,75,56,0
1,note_on,75,0,60
1,note_on,74,61,0
1,note_on,74,0,120
1,note_on,72,56,0
1,note_on,72,0,240
1,note_on,74,64,0
1,note_on,74,0,120
1,note_on,65,57,240
1,note_on,65,0,120
1,note_on,70,59,0
1,note_on,70,0,480
1,note_on,69,44,0
1,note_on,69,0,240
1,note_on,70,44,0
1,note_on,70,0,240
1,note_on,72,46,0
1,note_on,72,0,360
1,note_on,74,42,0
1,note_on,74,0,120
1,note_on,72,46,0
1,note_on,72,0,480
1,note_on,76,49,0
1,note_on,76,0,240
1,note_on,77,51,0
1,note_on,77,0,240
1,note_on,79,55,0
1,note_on,79,0,360
1,note_on,81,52,0
1,note_on,81,0,120
1,note_on,79,56,0
1,note_on,79,0,480
1,note_on,77,52,0
1,note_on,77,0,240
1,note_on,74,49,0
1,note_on,74,0,240
1,note_on,72,56,0
1,note_on,72,0,240
1,note_on,74,51,0
1,note_on,74,0,240
1,note_on,72,56,0
1,note_on,72,0,480
1,note_on,76,50,0
1,note_on,76,0,240
1,note_on,77,55,120
1,note_on,77,0,120
1,note_on,79,59,0
1,note_on,79,0,160
1,note_on,81,56,0
1,note_on,81,0,160
1,note_on,79,56,0
1,note_on,79,0,160
1,note_on,77,53,0
1,note_on,77,0,720
1,note_on,74,50,0
1,note_on,74,0,240
1,note_on,72,51,0
1,note_on,72,0,240
1,note_on,74,49,0
1,note_on,74,0,240
1,note_on,72,51,0
1,note_on,72,0,480
1,note_on,76,49,0
1,note_on,76,0,240
1,note_on,77,51,0
1,note_on,77,0,240
1,note_on,79,55,0
1,note_on,79,0,240
1,note_on,81,52,0
1,note_on,81,0,240
1,note_on,79,50,0
1,note_on,79,0,60
1,note_on,81,47,0
1,note_on,81,0,60
1,note_on,79,52,0
1,note_on,79,0,60
1,note_on,81,49,0
1,note_on,81,0,60
1,note_on,79,56,0
1,note_on,79,0,60
1,note_on,81,49,0
1,note_on,81,0,60
1,note_on,79,51,0
1,note_on,79,0,60
1,note_on,81,49,0
1,note_on,81,0,60
1,note_on,77,52,0
1,note_on,77,0,240
1,note_on,74,49,0
1,note_on,74,0,240
1,note_on,72,56,0
1,note_on,72,0,240
1,note_on,74,51,0
1,note_on,74,0,240
1,note_on,72,56,0
1,note_on,72,0,480
1,note_on,76,55,0
1,note_on,76,0,240
1,note_on,77,59,0
1,note_on,77,0,240
1,note_on,79,64,0
1,note_on,79,0,160
1,note_on,81,61,0
1,note_on,81,0,160
1,note_on,79,61,0
1,note_on,79,0,160
1,note_on,77,66,0
1,note_on,77,0,360
1,note_on,67,62,0
1,note_on,67,0,120
1,note_on,77,68,0
1,note_on,77,0,160
1,note_on,66,62,0
1,note_on,66,0,160
1,note_on,77,69,0
1,note_on,77,0,96
1,note_on,77,66,4
1,note_on,77,0,60
1,note_on,65,70,0
1,note_on,65,0,240
1,note_on,65,66,120
1,note_on,65,0,120
1,note_on,67,70,0
1,note_on,67,0,480
1,note_on,69,70,0
1,note_on,69,0,480
1,note_on,70,71,0
1,note_on,70,0,240
1,note_on,72,66,120
1,note_on,72,0,120
1,note_on,74,70,0
1,note_on,74,0,480
1,note_on,75,75,0
1,note_on,75,0,240
1,note_on,77,79,0
1,note_on,77,0,240
1,note_on,79,83,0
1,note_on,79,0,120
1,note_on,81,75,240
1,note_on,81,0,120
1,note_on,82,76,0
1,note_on,82,0,60
1,note_on,84,67,0
1,note_on,84,0,60
1,note_on,82,73,0
1,note_on,82,0,60
1,note_on,84,66,0
1,note_on,84,0,60
1,note_on,82,70,0
1,note_on,82,0,60
1,note_on,84,64,0
1,note_on,84,0,60
1,note_on,82,70,0
1,note_on,82,0,60
1,note_on,84,64,0
1,note_on,84,0,60
1,note_on,81,70,0
1,note_on,81,0,240
1,note_on,79,56,0
1,note_on,79,0,180
1,note_on,77,51,0
1,note_on,77,0,60
1,note_on,82,60,0
1,note_on,82,0,120
1,note_on,82,55,240
1,note_on,82,0,120
1,note_on,74,49,0
1,note_on,74,0,900
1,note_on,75,50,0
1,note_on,75,0,60
1,note_on,79,58,0
1,note_on,79,0,120
1,note_on,79,51,240
1,note_on,79,0,120
1,note_on,69,49,0
1,note_on,69,0,900
1,note_on,70,50,0
1,note_on,70,0,60
1,note_on,74,56,0
1,note_on,74,0,120
1,note_on,74,52,240
1,note_on,74,0,120
1,note_on,64,49,0
1,note_on,64,0,960
1,note_on,65,55,0
1,note_on,65,0,120
1,note_on,69,58,240
1,note_on,69,0,120
1,note_on,72,59,0
1,note_on,72,0,240
1,note_on,75,60,0
1,note_on,75,0,240
1,note_on,79,67,0
1,note_on,79,0,360
1,note_on,77,63,0
1,note_on,77,0,57
1,note_on,77,49,3
1,note_on,77,0,60
1,note_on,86,67,0
1,note_on,86,0,120
1,note_on,84,61,240
1,note_on,84,0,120
1,note_on,82,50,0
1,note_on,82,0,60
1,note_on,84,49,0
1,note_on,84,0,60
1,note_on,82,57,0
1,note_on,82,0,120
1,note_on,79,52,0
1,note_on,79,0,240
1,note_on,77,49,0
1,note_on,79,45,420
1,note_on,79,0,60
1,note_on,77,0,0
1,note_on,82,51,0
1,note_on,82,0,120
1,note_on,82,46,240
1,note_on,82,0,120
1,note_on,69,44,0
1,note_on,69,0,840
1,note_on,70,42,0
1,note_on,70,0,60
1,note_on,74,41,0
1,note_on,74,0,60
1,note_on,77,49,0
1,note_on,77,0,120
1,note_on,77,47,240
1,note_on,77,0,120
1,note_on,64,44,0
1,note_on,64,0,960
1,note_on,65,55,0
1,note_on,65,0,120
1,note_on,69,58,240
1,note_on,69,0,120
1,note_on,72,59,0
1,note_on,72,0,240
1,note_on,75,60,0
1,note_on,75,0,240
1,note_on,74,56,0
1,note_on,74,0,60
1,note_on,75,56,0
1,note_on,75,0,60
1,note_on,74,61,0
1,note_on,74,0,120
1,note_on,72,56,0
1,note_on,72,0,240
1,note_on,74,64,0
1,note_on,74,0,120
1,note_on,65,57,240
1,note_on,65,0,120
1,note_on,70,59,0
1,note_on,70,0,480
1,note_on,77,46,480
1,note_on,77,0,120
1,note_on,77,37,240
1,note_on,77,0,120
1,note_on,76,41,0
1,note_on,76,0,480
1,note_on,73,37,0
1,note_on,73,0,240
1,note_on,72,37,0
1,note_on,72,0,240
1,note_on,70,42,0
1,note_on,70,0,240
1,note_on,73,37,120
1,note_on,73,0,120
1,note_on,72,37,0
1,note_on,72,0,60
1,note_on,73,37,0
1,note_on,73,0,60
1,note_on,72,40,0
1,note_on,72,0,360
1,note_on,70,37,0
1,note_on,70,0,240
1,note_on,64,41,120
1,note_on,64,0,120
1,note_on,77,46,0
1,note_on,77,0,120
1,note_on,77,37,240
1,note_on,77,0,120
1,note_on,76,41,0
1,note_on,76,0,480
1,note_on,73,37,0
1,note_on,73,0,240
1,note_on,72,37,0
1,note_on,72,0,240
1,note_on,70,45,0
1,note_on,70,0,160
1,note_on,72,40,0
1,note_on,72,0,160
1,note_on,70,39,0
1,note_on,70,0,160
1,note_on,64,42,0
1,note_on,64,0,960
1,note_on,77,46,0
1,note_on,77,0,120
1,note_on,77,37,240
1,note_on,77,0,120
1,note_on,76,41,0
1,note_on,76,0,480
1,note_on,73,37,0
1,note_on,73,0,240
1,note_on,72,37,0
1,note_on,72,0,240
1,note_on,70,42,0
1,note_on,70,0,240
1,note_on,73,37,120
1,note_on,73,0,120
1,note_on,72,37,0
1,note_on,72,0,60
1,note_on,73,33,0
1,note_on,73,0,60
1,note_on,72,37,0
1,note_on,72,0,60
1,note_on,73,35,0
1,note_on,73,0,60
1,note_on,72,37,0
1,note_on,72,0,60
1,note_on,73,34,0
1,note_on,73,0,60
1,note_on,72,37,0
1,note_on,72,0,60
1,note_on,73,37,0
1,note_on,73,0,60
1,note_on,70,37,0
1,note_on,70,0,240
1,note_on,64,41,120
1,note_on,64,0,120
1,note_on,77,46,0
1,note_on,77,0,120
1,note_on,77,37,240
1,note_on,77,0,120
1,note_on,76,41,0
1,note_on,76,0,480
1,note_on,73,37,0
1,note_on,73,0,360
1,note_on,72,37,0
1,note_on,72,0,120
1,note_on,70,45,0
1,note_on,70,0,160
1,note_on,72,40,0
1,note_on,72,0,160
1,note_on,70,39,0
1,note_on,70,0,160
1,note_on,69,42,0
1,note_on,69,0,720
1,note_on,67,53,0
1,note_on,67,0,240
1,note_on,65,70,0
1,note_on,65,0,240
1,note_on,65,66,120
1,note_on,65,0,120
1,note_on,67,70,0
1,note_on,67,0,480
1,note_on,69,70,0
1,note_on,69,0,480
1,note_on,70,71,0
1,note_on,70,0,240
1,note_on,72,66,120
1,note_on,72,0,120
1,note_on,74,70,0
1,note_on,74,0,480
1,note_on,75,75,0
1,note_on,75,0,240
1,note_on,77,79,0
1,note_on,77,0,240
1,note_on,79,83,0
1,note_on,79,0,120
1,note_on,81,75,240
1,note_on,81,0,120
1,note_on,82,76,0
1,note_on,82,0,60
1,note_on,84,67,0
1,note_on,84,0,60
1,note_on,82,73,0
1,note_on,82,0,60
1,note_on,84,66,0
1,note_on,84,0,60
1,note_on,82,70,0
1,note_on,82,0,60
1,note_on,84,64,0
1,note_on,84,0,60
1,note_on,82,70,0
1,note_on,82,0,60
1,note_on,84,64,0
1,note_on,84,0,60
1,note_on,81,70,0
1,note_on,81,0,240
1,note_on,79,56,0
1,note_on,79,0,180
1,note_on,77,51,0
1,note_on,77,0,60
1,note_on,82,60,0
1,note_on,82,0,120
1,note_on,82,55,240
1,note_on,82,0,120
1,note_on,74,49,0
1,note_on,74,0,900
1,note_on,75,50,0
1,note_on,75,0,60
1,note_on,79,58,0
1,note_on,79,0,120
1,note_on,79,51,240
1,note_on,79,0,120
1,note_on,69,49,0
1,note_on,69,0,900
1,note_on,70,50,0
1,note_on,70,0,60
1,note_on,74,56,0
1,note_on,74,0,120
1,note_on,74,52,240
1,note_on,74,0,120
1,note_on,64,49,0
1,note_on,64,0,960
1,note_on,65,55,0
1,note_on,65,0,120
1,note_on,69,58,240
1,note_on,69,0,120
1,note_on,72,59,0
1,note_on,72,0,240
1,note_on,75,60,0
1,note_on,75,0,240
1,note_on,79,67,0
1,note_on,79,0,360
1,note_on,77,63,0
1,note_on,77,0,58
1,note_on,77,55,2
1,note_on,77,0,60
1,note_on,86,75,0
1,note_on,86,0,120
1,note_on,84,68,240
1,note_on,84,0,120
1,note_on,82,56,0
1,note_on,82,0,60
1,note_on,84,55,0
1,note_on,84,0,60
1,note_on,82,64,0
1,note_on,82,0,120
1,note_on,79,58,0
1,note_on,79,0,240
1,note_on,77,55,0
1,note_on,79,45,420
1,note_on,79,0,60
1,note_on,77,0,0
1,note_on,82,51,0
1,note_on,82,0,120
1,note_on,82,46,240
1,note_on,82,0,120
1,note_on,69,44,0
1,note_on,69,0,840
1,note_on,70,42,0
1,note_on,70,0,60
1,note_on,74,41,0
1,note_on,74,0,60
1,note_on,77,49,0
1,note_on,77,0,120
1,note_on,77,47,240
1,note_on,77,0,120
1,note_on,64,44,0
1,note_on,64,0,960
1,note_on,65,55,0
1,note_on,65,0,120
1,note_on,69,58,240
1,note_on,69,0,120
1,note_on,72,59,0
1,note_on,72,0,240
1,note_on,75,60,0
1,note_on,75,0,240
1,note_on,74,56,0
1,note_on,74,0,60
1,note_on,75,56,0
1,note_on,75,0,60
1,note_on,74,61,0
1,note_on,74,0,240
1,note_on,72,56,0
1,note_on,72,0,120
1,note_on,74,64,0
1,note_on,74,0,120
1,note_on,65,57,240
1,note_on,65,0,120
1,note_on,70,59,0
1,note_on,70,0,480
1,note_on,77,46,480
1,note_on,77,0,120
1,note_on,77,37,240
1,note_on,77,0,120
1,note_on,76,41,0
1,note_on,76,0,480
1,note_on,73,37,0
1,note_on,73,0,240
1,note_on,72,37,0
1,note_on,72,0,240
1,note_on,70,42,0
1,note_on,70,0,240
1,note_on,73,37,120
1,note_on,73,0,120
1,note_on,72,37,0
1,note_on,72,0,60
1,note_on,73,37,0
1,note_on,73,0,60
1,note_on,72,40,0
1,note_on,72,0,360
1,note_on,70,37,0
1,note_on,70,0,240
1,note_on,64,41,120
1,note_on,64,0,120
1,note_on,77,46,0
1,note_on,77,0,120
1,note_on,77,37,240
1,note_on,77,0,120
1,note_on,76,41,0
1,note_on,76,0,480
1,note_on,73,37,0
1,note_on,73,0,240
1,note_on,72,37,0
1,note_on,72,0,240
1,note_on,70,45,0
1,note_on,70,0,160
1,note_on,72,40,0
1,note_on,72,0,160
1,note_on,70,39,0
1,note_on,70,0,160
1,note_on,64,42,0
1,note_on,64,0,960
1,note_on,77,46,0
1,note_on,77,0,120
1,note_on,77,37,240
1,note_on,77,0,120
1,note_on,76,41,0
1,note_on,76,0,480
1,note_on,73,37,0
1,note_on,73,0,240
1,note_on,72,37,0
1,note_on,72,0,240
1,note_on,70,42,0
1,note_on,70,0,240
1,note_on,73,37,120
1,note_on,73,0,120
1,note_on,72,37,0
1,note_on,72,0,60
1,note_on,73,33,0
1,note_on,73,0,60
1,note_on,72,37,0
1,note_on,72,0,60
1,note_on,73,35,0
1,note_on,73,0,60
1,note_on,72,37,0
1,note_on,72,0,60
1,note_on,73,34,0
1,note_on,73,0,60
1,note_on,72,37,0
1,note_on,72,0,60
1,note_on,73,37,0
1,note_on,73,0,60
1,note_on,70,37,0
1,note_on,70,0,240
1,note_on,64,41,120
1,note_on,64,0,120
1,note_on,77,46,0
1,note_on,77,0,120
1,note_on,77,37,240
1,note_on,77,0,120
1,note_on,76,41,0
1,note_on,76,0,480
1,note_on,73,37,0
1,note_on,73,0,360
1,note_on,72,37,0
1,note_on,72,0,120
1,note_on,70,45,0
1,note_on,70,0,160
1,note_on,72,40,0
1,note_on,72,0,160
1,note_on,70,39,0
1,note_on,70,0,160
1,note_on,69,42,0
1,note_on,69,0,720
1,note_on,67,53,0
1,note_on,67,0,240
1,note_on,65,70,0
1,note_on,65,0,240
1,note_on,65,66,120
1,note_on,65,0,120
1,note_on,67,70,0
1,note_on,67,0,480
1,note_on,69,70,0
1,note_on,69,0,480
1,note_on,70,71,0
1,note_on,70,0,240
1,note_on,72,66,120
1,note_on,72,0,120
1,note_on,74,70,0
1,note_on,74,0,480
1,note_on,75,75,0
1,note_on,75,0,240
1,note_on,77,79,0
1,note_on,77,0,240
1,note_on,79,83,0
1,note_on,79,0,120
1,note_on,81,75,240
1,note_on,81,0,120
1,note_on,82,76,0
1,note_on,82,0,60
1,note_on,84,67,0
1,note_on,84,0,60
1,note_on,82,73,0
1,note_on,82,0,60
1,note_on,84,66,0
1,note_on,84,0,60
1,note_on,82,70,0
1,note_on,82,0,60
1,note_on,84,64,0
1,note_on,84,0,60
1,note_on,82,70,0
1,note_on,82,0,60
1,note_on,84,64,0
1,note_on,84,0,60
1,note_on,81,70,0
1,note_on,81,0,240
1,note_on,79,56,0
1,note_on,79,0,180
1,note_on,77,51,0
1,note_on,77,0,60
1,note_on,82,60,0
1,note_on,82,0,120
1,note_on,82,55,240
1,note_on,82,0,120
1,note_on,74,49,0
1,note_on,74,0,900
1,note_on,75,50,0
1,note_on,75,0,60
1,note_on,79,58,0
1,note_on,79,0,120
1,note_on,79,51,240
1,note_on,79,0,120
1,note_on,69,49,0
1,note_on,69,0,900
1,note_on,70,50,0
1,note_on,70,0,60
1,note_on,74,56,0
1,note_on,74,0,120
1,note_on,74,52,240
1,note_on,74,0,120
1,note_on,64,49,0
1,note_on,64,0,960
1,note_on,65,55,0
1,note_on,65,0,120
1,note_on,69,58,240
1,note_on,69,0,120
1,note_on,72,59,0
1,note_on,72,0,240
1,note_on,75,60,0
1,note_on,75,0,240
1,note_on,79,67,0
1,note_on,79,0,360
1,note_on,77,63,0
1,note_on,77,0,60
1,note_on,77,49,0
1,note_on,77,0,60
1,note_on,86,67,0
1,note_on,86,0,120
1,note_on,84,61,240
1,note_on,84,0,120
1,note_on,82,50,0
1,note_on,82,0,60
1,note_on,84,49,0
1,note_on,84,0,60
1,note_on,82,57,0
1,note_on,82,0,120
1,note_on,79,52,0
1,note_on,79,0,240
1,note_on,77,49,0
1,note_on,79,45,420
1,note_on,79,0,60
1,note_on,77,0,0
1,note_on,82,51,0
1,note_on,82,0,120
1,note_on,82,46,240
1,note_on,82,0,120
1,note_on,69,44,0
1,note_on,69,0,840
1,note_on,70,42,0
1,note_on,70,0,60
1,note_on,74,41,0
1,note_on,74,0,60
1,note_on,77,49,0
1,note_on,77,0,120
1,note_on,77,47,240
1,note_on,77,0,120
1,note_on,64,44,0
1,note_on,64,0,960
1,note_on,65,55,0
1,note_on,65,0,120
1,note_on,69,60,240
1,note_on,69,0,120
1,note_on,72,62,0
1,note_on,72,0,240
1,note_on,75,66,0
1,note_on,75,0,240
1,note_on,74,63,0
1,note_on,74,0,60
1,note_on,75,63,0
1,note_on,75,0,60
1,note_on,74,70,0
1,note_on,74,0,240
1,note_on,72,64,0
1,note_on,72,0,120
1,note_on,74,76,0
1,note_on,74,0,240
1,note_on,65,68,0
1,note_on,65,0,240
1,note_on,70,68,0
1,note_on,82,70,0
1,note_on,82,0,960
1,note_on,70,0,0
2,note_on,41,70,0
2,note_on,41,0,198
2,note_on,63,59,240
2,note_on,60,50,0
2,note_on,53,50,0
2,note_on,53,0,480
2,note_on,60,0,0
2,note_on,63,0,0
2,note_on,63,60,0
2,note_on,60,51,0
2,note_on,53,51,0
2,note_on,53,0,473
2,note_on,60,0,0
2,note_on,63,0,0
2,note_on,46,70,0
2,note_on,46,0,99
2,note_on,62,52,240
2,note_on,58,52,0
2,note_on,53,52,0
2,note_on,53,0,480
2,note_on,58,0,0
2,note_on,62,0,0
2,note_on,46,62,0
2,note_on,46,0,226
2,note_on,39,68,240
2,note_on,51,80,0
2,note_on,51,0,312
2,note_on,39,0,0
2,note_on,55,59,0
2,note_on,58,59,30
2,note_on,63,59,30
2,note_on,67,70,30
2,note_on,67,0,480
2,note_on,55,0,0
2,note_on,58,0,0
2,note_on,63,0,0
2,note_on,46,43,471
2,note_on,46,0,222
2,note_on,62,28,240
2,note_on,58,23,0
2,note_on,53,23,0
2,note_on,53,0,480
2,note_on,58,0,0
2,note_on,62,0,0
2,note_on,62,26,0
2,note_on,58,22,0
2,note_on,53,22,0
2,note_on,53,0,473
2,note_on,58,0,0
2,note_on,62,0,0
2,note_on,41,40,0
2,note_on,41,0,194
2,note_on,63,27,240
2,note_on,60,22,0
2,note_on,53,22,0
2,note_on,53,0,480
2,note_on,60,0,0
2,note_on,63,0,0
2,note_on,63,25,0
2,note_on,60,21,0
2,note_on,53,21,0
2,note_on,53,0,472
2,note_on,60,0,0
2,note_on,63,0,0
2,note_on,46,43,0
2,note_on,46,0,155
2,note_on,62,28,240
2,note_on,58,23,0
2,note_on,53,23,0
2,note_on,53,0,480
2,note_on,58,0,0
2,note_on,62,0,0
2,note_on,62,26,0
2,note_on,58,22,0
2,note_on,53,22,0
2,note_on,53,0,470
2,note_on,58,0,0
2,note_on,62,0,0
2,note_on,41,57,0
2,note_on,41,0,166
2,note_on,53,39,240
2,note_on,63,47,0
2,note_on,63,0,480
2,note_on,53,0,0
2,note_on,53,39,0
2,note_on,57,39,0
2,note_on,63,46,0
2,note_on,63,0,468
2,note_on,57,0,0
2,note_on,53,0,0
2,note_on,46,57,0
2,note_on,46,0,176
2,note_on,53,39,240
2,note_on,58,39,0
2,note_on,62,47,0
2,note_on,62,0,480
2,note_on,58,0,0
2,note_on,53,0,0
2,note_on,53,39,0
2,note_on,58,39,0
2,note_on,62,46,0
2,note_on,62,0,468
2,note_on,58,0,0
2,note_on,53,0,0
2,note_on,46,36,0
2,note_on,46,0,194
2,note_on,63,27,240
2,note_on,60,22,0
2,note_on,53,22,0
2,note_on,53,0,480
2,note_on,60,0,0
2,note_on,63,0,0
2,note_on,63,25,0
2,note_on,60,21,0
2,note_on,53,21,0
2,note_on,53,0,476
2,note_on,60,0,0
2,note_on,63,0,0
2,note_on,46,38,0
2,note_on,46,0,155
2,note_on,62,28,240
2,note_on,58,23,0
2,note_on,53,23,0
2,note_on,53,0,480
2,note_on,58,0,0
2,note_on,62,0,0
2,note_on,62,26,0
2,note_on,58,22,0
2,note_on,53,22,0
2,note_on,53,0,480
2,note_on,58,0,0
2,note_on,62,0,0
2,note_on,41,57,0
2,note_on,41,0,166
2,note_on,53,39,240
2,note_on,63,47,0
2,note_on,63,0,480
2,note_on,53,0,0
2,note_on,53,39,0
2,note_on,57,39,0
2,note_on,63,46,0
2,note_on,63,0,427
2,note_on,57,0,0
2,note_on,53,0,0
2,note_on,46,57,0
2,note_on,46,0,99
2,note_on,53,39,240
2,note_on,58,39,0
2,note_on,62,47,0
2,note_on,62,0,480
2,note_on,58,0,0
2,note_on,53,0,0
2,note_on,41,70,472
2,note_on,41,0,120
2,note_on,63,59,240
2,note_on,60,50,0
2,note_on,53,50,0
2,note_on,53,0,480
2,note_on,60,0,0
2,note_on,63,0,0
2,note_on,63,60,0
2,note_on,60,51,0
2,note_on,53,51,0
2,note_on,53,0,473
2,note_on,60,0,0
2,note_on,63,0,0
2,note_on,46,70,0
2,note_on,46,0,99
2,note_on,62,52,240
2,note_on,58,52,0
2,note_on,53,52,0
2,note_on,53,0,480
2,note_on,58,0,0
2,note_on,62,0,0
2,note_on,46,62,0
2,note_on,46,0,222
2,note_on,39,68,240
2,note_on,51,80,0
2,note_on,51,0,312
2,note_on,39,0,0
2,note_on,55,59,0
2,note_on,58,59,30
2,note_on,63,59,30
2,note_on,67,70,30
2,note_on,67,0,480
2,note_on,55,0,0
2,note_on,58,0,0
2,note_on,63,0,0
2,note_on,46,43,468
2,note_on,46,0,173
2,note_on,62,28,240
2,note_on,58,23,0
2,note_on,53,23,0
2,note_on,53,0,480
2,note_on,58,0,0
2,note_on,62,0,0
2,note_on,62,26,0
2,note_on,58,22,0
2,note_on,53,22,0
2,note_on,53,0,470
2,note_on,58,0,0
2,note_on,62,0,0
2,note_on,41,40,0
2,note_on,41,0,194
2,note_on,63,27,240
2,note_on,60,22,0
2,note_on,53,22,0
2,note_on,53,0,480
2,note_on,60,0,0
2,note_on,63,0,0
2,note_on,63,25,0
2,note_on,60,21,0
2,note_on,53,21,0
2,note_on,53,0,469
2,note_on,60,0,0
2,note_on,63,0,0
2,note_on,46,43,0
2,note_on,46,0,155
2,note_on,62,28,240
2,note_on,58,23,0
2,note_on,53,23,0
2,note_on,53,0,480
2,note_on,58,0,0
2,note_on,62,0,0
2,note_on,62,26,0
2,note_on,58,22,0
2,note_on,53,22,0
2,note_on,53,0,480
2,note_on,58,0,0
2,note_on,62,0,0
2,note_on,41,57,0
2,note_on,41,0,166
2,note_on,53,39,240
2,note_on,63,47,0
2,note_on,63,0,480
2,note_on,53,0,0
2,note_on,53,39,0
2,note_on,57,39,0
2,note_on,63,46,0
2,note_on,63,0,468
2,note_on,57,0,0
2,note_on,53,0,0
2,note_on,46,51,0
2,note_on,46,0,176
2,note_on,53,31,240
2,note_on,58,31,0
2,note_on,62,37,0
2,note_on,62,0,480
2,note_on,58,0,0
2,note_on,53,0,0
2,note_on,53,31,0
2,note_on,58,31,0
2,note_on,62,36,0
2,note_on,62,0,470
2,note_on,58,0,0
2,note_on,53,0,0
2,note_on,46,40,0
2,note_on,46,0,194
2,note_on,63,27,240
2,note_on,60,22,0
2,note_on,53,22,0
2,note_on,53,0,480
2,note_on,60,0,0
2,note_on,63,0,0
2,note_on,63,25,0
2,note_on,60,21,0
2,note_on,53,21,0
2,note_on,53,0,468
2,note_on,60,0,0
2,note_on,63,0,0
2,note_on,46,43,0
2,note_on,46,0,155
2,note_on,62,28,240
2,note_on,58,23,0
2,note_on,53,23,0
2,note_on,53,0,480
2,note_on,58,0,0
2,note_on,62,0,0
2,note_on,62,26,0
2,note_on,58,22,0
2,note_on,53,22,0
2,note_on,53,0,480
2,note_on,58,0,0
2,note_on,62,0,0
2,note_on,41,57,0
2,note_on,41,0,166
2,note_on,53,39,240
2,note_on,63,47,0
2,note_on,63,0,480
2,note_on,53,0,0
2,note_on,53,39,0
2,note_on,57,39,0
2,note_on,63,46,0
2,note_on,63,0,416
2,note_on,57,0,0
2,note_on,53,0,0
2,note_on,46,57,0
2,note_on,46,0,127
2,note_on,53,39,240
2,note_on,58,39,0
2,note_on,62,47,0
2,note_on,62,0,480
2,note_on,58,0,0
2,note_on,53,0,0
2,note_on,41,37,469
2,note_on,41,0,480
2,note_on,48,25,0
2,note_on,57,30,0
2,note_on,57,0,480
2,note_on,48,0,0
2,note_on,48,28,0
2,note_on,57,34,0
2,note_on,57,0,480
2,note_on,48,0,0
2,note_on,41,42,0
2,note_on,41,0,480
2,note_on,50,32,0
2,note_on,58,38,0
2,note_on,58,0,480
2,note_on,50,0,0
2,note_on,50,33,0
2,note_on,58,39,0
2,note_on,58,0,480
2,note_on,50,0,0
2,note_on,41,42,0
2,note_on,41,0,480
2,note_on,48,32,0
2,note_on,57,38,0
2,note_on,57,0,480
2,note_on,48,0,0
2,note_on,48,32,0
2,note_on,57,38,0
2,note_on,57,0,480
2,note_on,48,0,0
2,note_on,41,39,0
2,note_on,41,0,240
2,note_on,50,28,240
2,note_on,58,34,0
2,note_on,58,0,240
2,note_on,50,0,0
2,note_on,41,34,240
2,note_on,41,0,240
2,note_on,48,31,240
2,note_on,57,37,0
2,note_on,57,0,240
2,note_on,48,0,0
2,note_on,41,34,240
2,note_on,41,0,240
2,note_on,48,28,240
2,note_on,57,34,0
2,note_on,57,0,240
2,note_on,48,0,0
2,note_on,41,42,240
2,note_on,41,0,240
2,note_on,50,32,240
2,note_on,58,38,0
2,note_on,58,0,212
2,note_on,50,0,0
2,note_on,41,34,240
2,note_on,41,0,236
2,note_on,48,32,240
2,note_on,57,38,0
2,note_on,57,0,240
2,note_on,48,0,0
2,note_on,41,34,240
2,note_on,41,0,240
2,note_on,48,38,240
2,note_on,57,45,0
2,note_on,57,0,480
2,note_on,52,38,0
2,note_on,58,45,0
2,note_on,58,0,480
2,note_on,52,0,0
2,note_on,48,0,0
2,note_on,53,38,0
2,note_on,57,45,0
2,note_on,57,0,321
2,note_on,53,0,0
2,note_on,41,70,0
2,note_on,41,0,120
2,note_on,63,59,240
2,note_on,60,50,0
2,note_on,53,50,0
2,note_on,53,0,480
2,note_on,60,0,0
2,note_on,63,0,0
2,note_on,63,60,0
2,note_on,60,51,0
2,note_on,53,51,0
2,note_on,53,0,473
2,note_on,60,0,0
2,note_on,63,0,0
2,note_on,46,70,0
2,note_on,46,0,99
2,note_on,62,52,240
2,note_on,58,52,0
2,note_on,53,52,0
2,note_on,53,0,480
2,note_on,58,0,0
2,note_on,62,0,0
2,note_on,46,62,0
2,note_on,46,0,221
2,note_on,39,68,240
2,note_on,51,80,0
2,note_on,51,0,312
2,note_on,39,0,0
2,note_on,55,59,0
2,note_on,58,59,30
2,note_on,63,59,30
2,note_on,67,70,30
2,note_on,67,0,480
2,note_on,55,0,0
2,note_on,58,0,0
2,note_on,63,0,0
2,note_on,46,48,468
2,note_on,46,0,166
2,note_on,62,31,240
2,note_on,58,27,0
2,note_on,53,27,0
2,note_on,53,0,480
2,note_on,58,0,0
2,note_on,62,0,0
2,note_on,62,29,0
2,note_on,58,24,0
2,note_on,53,24,0
2,note_on,53,0,471
2,note_on,58,0,0
2,note_on,62,0,0
2,note_on,41,45,0
2,note_on,41,0,194
2,note_on,63,30,240
2,note_on,60,26,0
2,note_on,53,26,0
2,note_on,53,0,480
2,note_on,60,0,0
2,note_on,63,0,0
2,note_on,63,28,0
2,note_on,60,23,0
2,note_on,53,23,0
2,note_on,53,0,470
2,note_on,60,0,0
2,note_on,63,0,0
2,note_on,46,48,0
2,note_on,46,0,155
2,note_on,62,31,240
2,note_on,58,27,0
2,note_on,53,27,0
2,note_on,53,0,480
2,note_on,58,0,0
2,note_on,62,0,0
2,note_on,62,29,0
2,note_on,58,24,0
2,note_on,53,24,0
2,note_on,53,0,480
2,note_on,58,0,0
2,note_on,62,0,0
2,note_on,41,57,0
2,note_on,41,0,166
2,note_on,53,39,240
2,note_on,63,47,0
2,note_on,63,0,480
2,note_on,53,0,0
2,note_on,53,39,0
2,note_on,57,39,0
2,note_on,63,46,0
2,note_on,63,0,467
2,note_on,57,0,0
2,note_on,53,0,0
2,note_on,46,57,0
2,note_on,46,0,176
2,note_on,53,39,240
2,note_on,58,39,0
2,note_on,62,47,0
2,note_on,62,0,480
2,note_on,58,0,0
2,note_on,53,0,0
2,note_on,53,39,0
2,note_on,58,39,0
2,note_on,62,46,0
2,note_on,62,0,467
2,note_on,58,0,0
2,note_on,53,0,0
2,note_on,46,40,0
2,note_on,46,0,194
2,note_on,63,27,240
2,note_on,60,22,0
2,note_on,53,22,0
2,note_on,53,0,480
2,note_on,60,0,0
2,note_on,63,0,0
2,note_on,63,25,0
2,note_on,60,21,0
2,note_on,53,21,0
2,note_on,53,0,474
2,note_on,60,0,0
2,note_on,63,0,0
2,note_on,46,43,0
2,note_on,46,0,155
2,note_on,62,28,240
2,note_on,58,23,0
2,note_on,53,23,0
2,note_on,53,0,480
2,note_on,58,0,0
2,note_on,62,0,0
2,note_on,62,26,0
2,note_on,58,22,0
2,note_on,53,22,0
2,note_on,53,0,480
2,note_on,58,0,0
2,note_on,62,0,0
2,note_on,41,57,0
2,note_on,41,0,166
2,note_on,53,39,240
2,note_on,63,47,0
2,note_on,63,0,480
2,note_on,53,0,0
2,note_on,53,39,0
2,note_on,57,39,0
2,note_on,63,46,0
2,note_on,63,0,423
2,note_on,57,0,0
2,note_on,53,0,0
2,note_on,46,57,0
2,note_on,46,0,169
2,note_on,53,39,240
2,note_on,58,39,0
2,note_on,62,47,0
2,note_on,62,0,480
2,note_on,58,0,0
2,note_on,53,0,0
2,note_on,41,37,473
2,note_on,41,0,480
2,note_on,48,25,0
2,note_on,57,30,0
2,note_on,57,0,480
2,note_on,48,0,0
2,note_on,48,28,0
2,note_on,57,34,0
2,note_on,57,0,480
2,note_on,48,0,0
2,note_on,41,42,0
2,note_on,41,0,480
2,note_on,50,32,0
2,note_on,58,38,0
2,note_on,58,0,480
2,note_on,50,0,0
2,note_on,50,33,0
2,note_on,58,39,0
2,note_on,58,0,480
2,note_on,50,0,0
2,note_on,41,42,0
2,note_on,41,0,480
2,note_on,48,32,0
2,note_on,57,38,0
2,note_on,57,0,480
2,note_on,48,0,0
2,note_on,48,32,0
2,note_on,57,38,0
2,note_on,57,0,480
2,note_on,48,0,0
2,note_on,41,39,0
2,note_on,41,0,240
2,note_on,50,28,240
2,note_on,58,34,0
2,note_on,58,0,240
2,note_on,50,0,0
2,note_on,41,34,240
2,note_on,41,0,240
2,note_on,48,31,240
2,note_on,57,37,0
2,note_on,57,0,240
2,note_on,48,0,0
2,note_on,41,34,240
2,note_on,41,0,240
2,note_on,48,28,240
2,note_on,57,34,0
2,note_on,57,0,240
2,note_on,48,0,0
2,note_on,41,42,240
2,note_on,41,0,240
2,note_on,50,32,240
2,note_on,58,38,0
2,note_on,58,0,219
2,note_on,50,0,0
2,note_on,41,34,240
2,note_on,41,0,231
2,note_on,48,32,240
2,note_on,57,38,0
2,note_on,57,0,240
2,note_on,48,0,0
2,note_on,41,34,240
2,note_on,41,0,240
2,note_on,48,38,240
2,note_on,57,45,0
2,note_on,57,0,480
2,note_on,52,38,0
2,note_on,58,45,0
2,note_on,58,0,480
2,note_on,52,0,0
2,note_on,48,0,0
2,note_on,53,38,0
2,note_on,57,45,0
2,note_on,57,0,310
2,note_on,53,0,0
2,note_on,41,70,480
2,note_on,41,0,120
2,note_on,63,59,240
2,note_on,60,50,0
2,note_on,53,50,0
2,note_on,53,0,480
2,note_on,60,0,0
2,note_on,63,0,0
2,note_on,63,60,0
2,note_on,60,51,0
2,note_on,53,51,0
2,note_on,53,0,469
2,note_on,60,0,0
2,note_on,63,0,0
2,note_on,46,70,0
2,note_on,46,0,99
2,note_on,62,52,240
2,note_on,58,52,0
2,note_on,53,52,0
2,note_on,53,0,480
2,note_on,58,0,0
2,note_on,62,0,0
2,note_on,46,62,0
2,note_on,46,0,224
2,note_on,39,68,240
2,note_on,51,80,0
2,note_on,51,0,312
2,note_on,39,0,0
2,note_on,55,59,0
2,note_on,58,59,30
2,note_on,63,59,30
2,note_on,67,70,30
2,note_on,67,0,480
2,note_on,55,0,0
2,note_on,58,0,0
2,note_on,63,0,0
2,note_on,46,48,470
2,note_on,46,0,169
2,note_on,62,31,240
2,note_on,58,27,0
2,note_on,53,27,0
2,note_on,53,0,480
2,note_on,58,0,0
2,note_on,62,0,0
2,note_on,62,29,0
2,note_on,58,24,0
2,note_on,53,24,0
2,note_on,53,0,470
2,note_on,58,0,0
2,note_on,62,0,0
2,note_on,41,45,0
2,note_on,41,0,194
2,note_on,63,30,240
2,note_on,60,26,0
2,note_on,53,26,0
2,note_on,53,0,480
2,note_on,60,0,0
2,note_on,63,0,0
2,note_on,63,28,0
2,note_on,60,23,0
2,note_on,53,23,0
2,note_on,53,0,469
2,note_on,60,0,0
2,note_on,63,0,0
2,note_on,46,48,0
2,note_on,46,0,155
2,note_on,62,31,240
2,note_on,58,27,0
2,note_on,53,27,0
2,note_on,53,0,480
2,note_on,58,0,0
2,note_on,62,0,0
2,note_on,62,29,0
2,note_on,58,24,0
2,note_on,53,24,0
2,note_on,53,0,480
2,note_on,58,0,0
2,note_on,62,0,0
2,note_on,41,57,0
2,note_on,41,0,166
2,note_on,53,39,240
2,note_on,63,47,0
2,note_on,63,0,480
2,note_on,53,0,0
2,note_on,53,39,0
2,note_on,57,39,0
2,note_on,63,46,0
2,note_on,63,0,474
2,note_on,57,0,0
2,note_on,53,0,0
2,note_on,46,51,0
2,note_on,46,0,176
2,note_on,53,31,240
2,note_on,58,31,0
2,note_on,62,37,0
2,note_on,62,0,480
2,note_on,58,0,0
2,note_on,53,0,0
2,note_on,53,31,0
2,note_on,58,31,0
2,note_on,62,36,0
2,note_on,62,0,467
2,note_on,58,0,0
2,note_on,53,0,0
2,note_on,46,40,0
2,note_on,46,0,194
2,note_on,63,27,240
2,note_on,60,22,0
2,note_on,53,22,0
2,note_on,53,0,480
2,note_on,60,0,0
2,note_on,63,0,0
2,note_on,63,25,0
2,note_on,60,21,0
2,note_on,53,21,0
2,note_on,53,0,471
2,note_on,60,0,0
2,note_on,63,0,0
2,note_on,46,43,0
2,note_on,46,0,155
2,note_on,62,28,240
2,note_on,58,23,0
2,note_on,53,23,0
2,note_on,53,0,480
2,note_on,58,0,0
2,note_on,62,0,0
2,note_on,62,26,0
2,note_on,58,22,0
2,note_on,53,22,0
2,note_on,53,0,480
2,note_on,58,0,0
2,note_on,62,0,0
2,note_on,41,57,0
2,note_on,41,0,166
2,note_on,53,39,240
2,note_on,63,47,0
2,note_on,63,0,480
2,note_on,53,0,0
2,note_on,53,39,0
2,note_on,57,39,0
2,note_on,63,46,0
2,note_on,63,0,420
2,note_on,57,0,0
2,note_on,53,0,0
2,note_on,46,57,0
2,note_on,46,0,113
2,note_on,53,39,240
2,note_on,58,39,0
2,note_on,62,47,0
2,note_on,62,0,480
2,note_on,58,0,0
2,note_on,53,0,0
2,note_on,46,49,0
2,note_on,46,0,462
2,note_on,42,22,0
2,note_on,49,26,0
2,note_on,49,0,381
2,note_on,42,0,0
2,note_on,42,20,0
2,note_on,49,23,0
2,note_on,49,0,480
2,note_on,42,0,0
2,note_on,42,20,0
2,note_on,49,23,0
2,note_on,49,0,480
2,note_on,42,0,0
2,note_on,42,22,0
2,note_on,49,26,0
2,note_on,49,0,416
2,note_on,42,0,0
2,note_on,42,20,0
2,note_on,49,23,0
2,note_on,49,0,480
2,note_on,42,0,0
2,note_on,42,20,0
2,note_on,49,23,0
2,note_on,49,0,480
2,note_on,42,0,0
2,note_on,42,22,0
2,note_on,49,26,0
2,note_on,49,0,332
2,note_on,42,0,0
2,note_on,42,20,0
2,note_on,49,23,0
2,note_on,49,0,480
2,note_on,42,0,0
2,note_on,42,20,0
2,note_on,49,23,0
2,note_on,49,0,480
2,note_on,42,0,0
2,note_on,42,22,0
2,note_on,49,26,0
2,note_on,49,0,346
2,note_on,42,0,0
2,note_on,42,20,0
2,note_on,49,23,0
2,note_on,49,0,480
2,note_on,42,0,0
2,note_on,42,20,0
2,note_on,49,23,0
2,note_on,49,0,480
2,note_on,42,0,0
2,note_on,42,22,0
2,note_on,49,26,0
2,note_on,49,0,381
2,note_on,42,0,0
2,note_on,42,20,0
2,note_on,49,23,0
2,note_on,49,0,480
2,note_on,42,0,0
2,note_on,42,20,0
2,note_on,49,23,0
2,note_on,49,0,480
2,note_on,42,0,0
2,note_on,42,22,0
2,note_on,49,26,0
2,note_on,49,0,416
2,note_on,42,0,0
2,note_on,42,20,0
2,note_on,49,23,0
2,note_on,49,0,480
2,note_on,42,0,0
2,note_on,42,20,0
2,note_on,49,23,0
2,note_on,49,0,480
2,note_on,42,0,0
2,note_on,42,22,0
2,note_on,49,26,0
2,note_on,49,0,353
2,note_on,42,0,0
2,note_on,42,20,0
2,note_on,49,23,0
2,note_on,49,0,480
2,note_on,42,0,0
2,note_on,42,20,0
2,note_on,49,23,0
2,note_on,49,0,480
2,note_on,42,0,0
2,note_on,41,22,0
2,note_on,49,26,0
2,note_on,49,0,476
2,note_on,48,23,0
2,note_on,48,0,960
2,note_on,41,0,0
2,note_on,41,70,0
2,note_on,41,0,120
2,note_on,63,59,240
2,note_on,60,50,0
2,note_on,53,50,0
2,note_on,53,0,480
2,note_on,60,0,0
2,note_on,63,0,0
2,note_on,63,60,0
2,note_on,60,51,0
2,note_on,53,51,0
2,note_on,53,0,480
2,note_on,60,0,0
2,note_on,63,0,0
2,note_on,46,70,0
2,note_on,46,0,99
2,note_on,62,52,240
2,note_on,58,52,0
2,note_on,53,52,0
2,note_on,53,0,480
2,note_on,58,0,0
2,note_on,62,0,0
2,note_on,46,62,0
2,note_on,46,0,240
2,note_on,39,68,240
2,note_on,51,80,0
2,note_on,51,0,312
2,note_on,39,0,0
2,note_on,55,59,0
2,note_on,58,59,30
2,note_on,63,59,30
2,note_on,67,70,30
2,note_on,67,0,480
2,note_on,55,0,0
2,note_on,58,0,0
2,note_on,63,0,0
2,note_on,46,48,468
2,note_on,46,0,152
2,note_on,62,31,240
2,note_on,58,27,0
2,note_on,53,27,0
2,note_on,53,0,480
2,note_on,58,0,0
2,note_on,62,0,0
2,note_on,62,29,0
2,note_on,58,24,0
2,note_on,53,24,0
2,note_on,53,0,480
2,note_on,58,0,0
2,note_on,62,0,0
2,note_on,41,45,0
2,note_on,41,0,120
2,note_on,63,30,240
2,note_on,60,26,0
2,note_on,53,26,0
2,note_on,53,0,480
2,note_on,60,0,0
2,note_on,63,0,0
2,note_on,63,28,0
2,note_on,60,23,0
2,note_on,53,23,0
2,note_on,53,0,480
2,note_on,60,0,0
2,note_on,63,0,0
2,note_on,46,48,0
2,note_on,46,0,106
2,note_on,62,31,240
2,note_on,58,27,0
2,note_on,53,27,0
2,note_on,53,0,480
2,note_on,58,0,0
2,note_on,62,0,0
2,note_on,62,29,0
2,note_on,58,24,0
2,note_on,53,24,0
2,note_on,53,0,480
2,note_on,58,0,0
2,note_on,62,0,0
2,note_on,41,57,0
2,note_on,41,0,166
2,note_on,53,39,240
2,note_on,63,47,0
2,note_on,63,0,480
2,note_on,53,0,0
2,note_on,53,39,0
2,note_on,57,39,0
2,note_on,63,46,0
2,note_on,63,0,480
2,note_on,57,0,0
2,note_on,53,0,0
2,note_on,46,57,0
2,note_on,46,0,148
2,note_on,53,39,240
2,note_on,58,39,0
2,note_on,62,47,0
2,note_on,62,0,480
2,note_on,58,0,0
2,note_on,53,0,0
2,note_on,53,39,0
2,note_on,58,39,0
2,note_on,62,46,0
2,note_on,62,0,480
2,note_on,58,0,0
2,note_on,53,0,0
2,note_on,46,40,0
2,note_on,46,0,152
2,note_on,63,27,240
2,note_on,60,22,0
2,note_on,53,22,0
2,note_on,53,0,480
2,note_on,60,0,0
2,note_on,63,0,0
2,note_on,63,25,0
2,note_on,60,21,0
2,note_on,53,21,0
2,note_on,53,0,480
2,note_on,60,0,0
2,note_on,63,0,0
2,note_on,46,43,0
2,note_on,46,0,99
2,note_on,62,28,240
2,note_on,58,23,0
2,note_on,53,23,0
2,note_on,53,0,480
2,note_on,58,0,0
2,note_on,62,0,0
2,note_on,62,26,0
2,note_on,58,22,0
2,note_on,53,22,0
2,note_on,53,0,480
2,note_on,58,0,0
2,note_on,62,0,0
2,note_on,41,57,0
2,note_on,41,0,166
2,note_on,53,39,240
2,note_on,63,47,0
2,note_on,63,0,480
2,note_on,53,0,0
2,note_on,53,39,0
2,note_on,57,39,0
2,note_on,63,46,0
2,note_on,63,0,480
2,note_on,57,0,0
2,note_on,53,0,0
2,note_on,46,57,0
2,note_on,46,0,113
2,note_on,53,39,240
2,note_on,58,39,0
2,note_on,62,47,0
2,note_on,62,0,480
2,note_on,58,0,0
2,note_on,53,0,0
2,note_on,46,48,0
2,note_on,46,0,467
2,note_on,42,22,0
2,note_on,49,26,0
2,note_on,49,0,381
2,note_on,42,0,0
2,note_on,42,20,0
2,note_on,49,23,0
2,note_on,49,0,480
2,note_on,42,0,0
2,note_on,42,20,0
2,note_on,49,23,0
2,note_on,49,0,480
2,note_on,42,0,0
2,note_on,42,22,0
2,note_on,49,26,0
2,note_on,49,0,416
2,note_on,42,0,0
2,note_on,42,20,0
2,note_on,49,23,0
2,note_on,49,0,480
2,note_on,42,0,0
2,note_on,42,20,0
2,note_on,49,23,0
2,note_on,49,0,480
2,note_on,42,0,0
2,note_on,42,22,0
2,note_on,49,26,0
2,note_on,49,0,395
2,note_on,42,0,0
2,note_on,42,20,0
2,note_on,49,23,0
2,note_on,49,0,480
2,note_on,42,0,0
2,note_on,42,20,0
2,note_on,49,23,0
2,note_on,49,0,480
2,note_on,42,0,0
2,note_on,42,22,0
2,note_on,49,26,0
2,note_on,49,0,360
2,note_on,42,0,0
2,note_on,42,20,0
2,note_on,49,23,0
2,note_on,49,0,480
2,note_on,42,0,0
2,note_on,42,20,0
2,note_on,49,23,0
2,note_on,49,0,480
2,note_on,42,0,0
2,note_on,42,22,0
2,note_on,49,26,0
2,note_on,49,0,381
2,note_on,42,0,0
2,note_on,42,20,0
2,note_on,49,23,0
2,note_on,49,0,480
2,note_on,42,0,0
2,note_on,42,20,0
2,note_on,49,23,0
2,note_on,49,0,480
2,note_on,42,0,0
2,note_on,42,22,0
2,note_on,49,26,0
2,note_on,49,0,356
2,note_on,42,0,0
2,note_on,42,20,0
2,note_on,49,23,0
2,note_on,49,0,480
2,note_on,42,0,0
2,note_on,42,20,0
2,note_on,49,23,0
2,note_on,49,0,480
2,note_on,42,0,0
2,note_on,42,22,0
2,note_on,49,26,0
2,note_on,49,0,339
2,note_on,42,0,0
2,note_on,42,20,0
2,note_on,49,23,0
2,note_on,49,0,480
2,note_on,42,0,0
2,note_on,42,20,0
2,note_on,49,23,0
2,note_on,49,0,480
2,note_on,42,0,0
2,note_on,41,22,0
2,note_on,49,26,0
2,note_on,49,0,474
2,note_on,48,23,0
2,note_on,48,0,960
2,note_on,41,0,0
2,note_on,41,70,0
2,note_on,41,0,120
2,note_on,63,59,240
2,note_on,60,50,0
2,note_on,53,50,0
2,note_on,53,0,480
2,note_on,60,0,0
2,note_on,63,0,0
2,note_on,63,60,0
2,note_on,60,51,0
2,note_on,53,51,0
2,note_on,53,0,480
2,note_on,60,0,0
2,note_on,63,0,0
2,note_on,46,70,0
2,note_on,46,0,99
2,note_on,62,52,240
2,note_on,58,52,0
2,note_on,53,52,0
2,note_on,53,0,480
2,note_on,58,0,0
2,note_on,62,0,0
2,note_on,46,62,0
2,note_on,46,0,240
2,note_on,39,68,240
2,note_on,51,80,0
2,note_on,51,0,312
2,note_on,39,0,0
2,note_on,55,59,0
2,note_on,58,59,30
2,note_on,63,59,30
2,note_on,67,70,30
2,note_on,67,0,480
2,note_on,55,0,0
2,note_on,58,0,0
2,note_on,63,0,0
2,note_on,46,48,468
2,note_on,46,0,183
2,note_on,62,31,240
2,note_on,58,27,0
2,note_on,53,27,0
2,note_on,53,0,480
2,note_on,58,0,0
2,note_on,62,0,0
2,note_on,62,29,0
2,note_on,58,24,0
2,note_on,53,24,0
2,note_on,53,0,480
2,note_on,58,0,0
2,note_on,62,0,0
2,note_on,41,45,0
2,note_on,41,0,141
2,note_on,63,30,240
2,note_on,60,26,0
2,note_on,53,26,0
2,note_on,53,0,480
2,note_on,60,0,0
2,note_on,63,0,0
2,note_on,63,28,0
2,note_on,60,23,0
2,note_on,53,23,0
2,note_on,53,0,480
2,note_on,60,0,0
2,note_on,63,0,0
2,note_on,46,48,0
2,note_on,46,0,92
2,note_on,62,31,240
2,note_on,58,27,0
2,note_on,53,27,0
2,note_on,53,0,480
2,note_on,58,0,0
2,note_on,62,0,0
2,note_on,62,29,0
2,note_on,58,24,0
2,note_on,53,24,0
2,note_on,53,0,480
2,note_on,58,0,0
2,note_on,62,0,0
2,note_on,41,57,0
2,note_on,41,0,166
2,note_on,53,39,240
2,note_on,63,47,0
2,note_on,63,0,480
2,note_on,53,0,0
2,note_on,53,39,0
2,note_on,57,39,0
2,note_on,63,46,0
2,note_on,63,0,480
2,note_on,57,0,0
2,note_on,53,0,0
2,note_on,46,51,0
2,note_on,46,0,176
2,note_on,53,31,240
2,note_on,58,31,0
2,note_on,62,37,0
2,note_on,62,0,480
2,note_on,58,0,0
2,note_on,53,0,0
2,note_on,53,31,0
2,note_on,58,31,0
2,note_on,62,36,0
2,note_on,62,0,480
2,note_on,58,0,0
2,note_on,53,0,0
2,note_on,46,40,0
2,note_on,46,0,148
2,note_on,63,27,240
2,note_on,60,22,0
2,note_on,53,22,0
2,note_on,53,0,480
2,note_on,60,0,0
2,note_on,63,0,0
2,note_on,63,25,0
2,note_on,60,21,0
2,note_on,53,21,0
2,note_on,53,0,480
2,note_on,60,0,0
2,note_on,63,0,0
2,note_on,46,43,0
2,note_on,46,0,63
2,note_on,62,28,240
2,note_on,58,23,0
2,note_on,53,23,0
2,note_on,53,0,480
2,note_on,58,0,0
2,note_on,62,0,0
2,note_on,62,26,0
2,note_on,58,22,0
2,note_on,53,22,0
2,note_on,53,0,480
2,note_on,58,0,0
2,note_on,62,0,0
2,note_on,41,57,0
2,note_on,41,0,166
2,note_on,53,41,240
2,note_on,63,49,0
2,note_on,63,0,480
2,note_on,53,0,0
2,note_on,53,44,0
2,note_on,57,44,0
2,note_on,63,51,0
2,note_on,63,0,480
2,note_on,57,0,0
2,note_on,53,0,0
2,note_on,46,68,0
2,note_on,46,0,310
2,note_on,46,46,0
2,note_on,53,46,0
2,note_on,62,56,0
2,note_on,62,0,960
2,note_on,53,0,0
2,note_on,46,0,0
