Track,Message Type,Note,Velocity,Time
1,note_on,73,54,11520
1,note_on,73,0,120
1,note_on,70,51,0
1,note_on,70,0,60
1,note_on,72,51,180
1,note_on,72,0,120
1,note_on,73,54,0
1,note_on,73,0,120
1,note_on,70,51,0
1,note_on,70,0,60
1,note_on,73,54,300
1,note_on,73,0,120
1,note_on,70,51,0
1,note_on,70,0,60
1,note_on,72,51,180
1,note_on,72,0,120
1,note_on,73,54,0
1,note_on,73,0,120
1,note_on,70,51,0
1,note_on,70,0,60
1,note_on,73,54,300
1,note_on,73,0,120
1,note_on,70,51,0
1,note_on,70,0,60
1,note_on,72,61,180
1,note_on,72,0,120
1,note_on,73,66,0
1,note_on,73,0,120
1,note_on,82,64,0
1,note_on,82,0,60
1,note_on,81,61,300
1,note_on,81,0,120
1,note_on,72,57,0
1,note_on,72,0,60
1,note_on,73,49,180
1,note_on,73,0,120
1,note_on,75,52,0
1,note_on,75,0,120
1,note_on,72,49,0
1,note_on,72,0,60
1,note_on,78,55,300
1,note_on,78,0,120
1,note_on,72,49,0
1,note_on,72,0,60
1,note_on,73,49,180
1,note_on,73,0,120
1,note_on,75,52,0
1,note_on,75,0,120
1,note_on,72,49,0
1,note_on,72,0,60
1,note_on,78,55,300
1,note_on,78,0,120
1,note_on,72,49,0
1,note_on,72,0,60
1,note_on,73,49,180
1,note_on,73,0,120
1,note_on,75,52,0
1,note_on,75,0,120
1,note_on,72,49,0
1,note_on,72,0,60
1,note_on,78,58,300
1,note_on,78,0,120
1,note_on,72,51,0
1,note_on,72,0,60
1,note_on,73,65,180
1,note_on,73,0,120
1,note_on,75,71,0
1,note_on,75,0,120
1,note_on,84,64,0
1,note_on,84,0,60
1,note_on,84,61,300
1,note_on,73,57,120
1,note_on,73,0,60
1,note_on,84,0,60
1,note_on,75,49,120
1,note_on,75,0,120
1,note_on,82,52,0
1,note_on,77,52,0
1,note_on,77,0,120
1,note_on,73,49,0
1,note_on,73,0,60
1,note_on,82,0,60
1,note_on,85,82,240
1,note_on,73,69,0
1,note_on,73,0,120
1,note_on,85,0,0
1,note_on,84,75,0
1,note_on,79,63,0
1,note_on,79,0,60
1,note_on,84,0,0
1,note_on,73,61,180
1,note_on,82,72,0
1,note_on,82,0,120
1,note_on,73,0,0
1,note_on,81,78,0
1,note_on,77,64,0
1,note_on,77,0,120
1,note_on,81,0,0
1,note_on,72,57,0
1,note_on,84,68,0
1,note_on,84,0,60
1,note_on,72,0,0
1,note_on,66,46,300
1,note_on,78,55,0
1,note_on,78,0,120
1,note_on,66,0,0
1,note_on,72,42,0
1,note_on,77,50,0
1,note_on,77,0,60
1,note_on,72,0,0
1,note_on,66,40,180
1,note_on,75,49,0
1,note_on,75,0,120
1,note_on,66,0,0
1,note_on,73,52,0
1,note_on,70,44,0
1,note_on,70,0,120
1,note_on,73,0,0
1,note_on,65,40,0
1,note_on,77,49,0
1,note_on,77,0,60
1,note_on,65,0,0
1,note_on,73,69,300
1,note_on,85,82,0
1,note_on,85,0,120
1,note_on,73,0,0
1,note_on,84,75,0
1,note_on,79,63,0
1,note_on,79,0,60
1,note_on,84,0,0
1,note_on,73,61,180
1,note_on,82,72,0
1,note_on,82,0,120
1,note_on,73,0,0
1,note_on,77,64,0
1,note_on,81,78,0
1,note_on,81,0,120
1,note_on,77,0,0
1,note_on,72,57,0
1,note_on,84,68,0
1,note_on,84,0,60
1,note_on,72,0,0
1,note_on,66,46,300
1,note_on,78,55,0
1,note_on,78,0,120
1,note_on,66,0,0
1,note_on,77,50,0
1,note_on,72,42,0
1,note_on,72,0,60
1,note_on,77,0,0
1,note_on,66,40,180
1,note_on,75,49,0
1,note_on,75,0,120
1,note_on,66,0,0
1,note_on,74,52,0
1,note_on,70,44,0
1,note_on,70,0,120
1,note_on,74,0,0
1,note_on,77,49,0
1,note_on,73,40,0
1,note_on,65,40,0
1,note_on,65,0,60
1,note_on,73,0,0
1,note_on,77,0,0
1,note_on,82,75,300
1,note_on,77,75,0
1,note_on,89,89,0
1,note_on,89,0,120
1,note_on,77,0,0
1,note_on,82,0,0
1,note_on,88,83,0
1,note_on,76,70,0
1,note_on,76,0,60
1,note_on,88,0,0
1,note_on,73,62,180
1,note_on,85,72,0
1,note_on,85,0,120
1,note_on,73,0,0
1,note_on,76,68,0
1,note_on,84,80,0
1,note_on,72,68,0
1,note_on,72,0,120
1,note_on,84,0,0
1,note_on,76,0,0
1,note_on,82,75,0
1,note_on,70,62,0
1,note_on,70,0,60
1,note_on,82,0,0
1,note_on,70,68,300
1,note_on,82,80,0
1,note_on,82,0,120
1,note_on,70,0,0
1,note_on,80,73,0
1,note_on,76,61,0
1,note_on,76,0,60
1,note_on,80,0,0
1,note_on,67,57,180
1,note_on,79,68,0
1,note_on,79,0,120
1,note_on,67,0,0
1,note_on,75,59,0
1,note_on,78,69,0
1,note_on,78,0,120
1,note_on,75,0,0
1,note_on,66,55,0
1,note_on,72,64,0
1,note_on,72,0,60
1,note_on,66,0,0
1,note_on,68,57,300
1,note_on,80,68,0
1,note_on,80,0,120
1,note_on,68,0,0
1,note_on,74,52,0
1,note_on,79,62,0
1,note_on,79,0,60
1,note_on,74,0,0
1,note_on,65,51,180
1,note_on,77,61,0
1,note_on,77,0,120
1,note_on,65,0,0
1,note_on,72,53,0
1,note_on,75,63,0
1,note_on,75,0,120
1,note_on,72,0,0
1,note_on,63,44,0
1,note_on,67,52,0
1,note_on,67,0,60
1,note_on,63,0,0
1,note_on,72,57,300
1,note_on,75,67,0
1,note_on,75,0,120
1,note_on,72,0,0
1,note_on,66,59,0
1,note_on,63,49,0
1,note_on,63,0,60
1,note_on,66,0,0
1,note_on,75,62,300
1,note_on,72,53,0
1,note_on,72,0,120
1,note_on,75,0,0
1,note_on,63,46,0
1,note_on,65,56,0
1,note_on,65,0,60
1,note_on,63,0,0
1,note_on,73,68,300
1,note_on,73,0,120
1,note_on,61,40,0
1,note_on,65,40,0
1,note_on,70,59,0
1,note_on,70,0,120
1,note_on,65,0,0
1,note_on,61,0,0
1,note_on,72,67,120
1,note_on,72,0,120
1,note_on,73,68,0
1,note_on,73,0,120
1,note_on,61,40,0
1,note_on,65,40,0
1,note_on,70,60,0
1,note_on,70,0,120
1,note_on,65,0,0
1,note_on,61,0,0
1,note_on,73,68,240
1,note_on,73,0,120
1,note_on,65,40,0
1,note_on,61,40,0
1,note_on,70,60,0
1,note_on,70,0,120
1,note_on,61,0,0
1,note_on,65,0,0
1,note_on,72,68,120
1,note_on,72,0,120
1,note_on,73,68,0
1,note_on,73,0,120
1,note_on,61,40,0
1,note_on,65,40,0
1,note_on,70,60,0
1,note_on,70,0,120
1,note_on,65,0,0
1,note_on,61,0,0
1,note_on,73,68,240
1,note_on,73,0,120
1,note_on,61,46,0
1,note_on,65,46,0
1,note_on,70,67,0
1,note_on,70,0,120
1,note_on,65,0,0
1,note_on,61,0,0
1,note_on,72,73,120
1,note_on,72,0,120
1,note_on,73,84,0
1,note_on,73,0,120
1,note_on,70,52,0
1,note_on,77,52,0
1,note_on,82,76,0
1,note_on,82,0,120
1,note_on,77,0,0
1,note_on,70,0,0
1,note_on,81,76,240
1,note_on,81,0,120
1,note_on,69,46,0
1,note_on,72,67,0
1,note_on,72,0,120
1,note_on,69,0,0
1,note_on,73,67,120
1,note_on,73,0,120
1,note_on,75,68,0
1,note_on,75,0,120
1,note_on,66,40,0
1,note_on,69,40,0
1,note_on,72,60,0
1,note_on,72,0,120
1,note_on,69,0,0
1,note_on,66,0,0
1,note_on,78,71,240
1,note_on,78,0,120
1,note_on,69,40,0
1,note_on,66,40,0
1,note_on,72,59,0
1,note_on,72,0,120
1,note_on,66,0,0
1,note_on,69,0,0
1,note_on,73,67,120
1,note_on,73,0,120
1,note_on,75,68,0
1,note_on,75,0,120
1,note_on,66,40,0
1,note_on,69,40,0
1,note_on,72,60,0
1,note_on,72,0,120
1,note_on,69,0,0
1,note_on,66,0,0
1,note_on,78,71,240
1,note_on,78,0,120
1,note_on,66,40,0
1,note_on,69,40,0
1,note_on,72,59,0
1,note_on,72,0,120
1,note_on,69,0,0
1,note_on,66,0,0
1,note_on,73,67,120
1,note_on,73,0,120
1,note_on,75,68,0
1,note_on,75,0,120
1,note_on,66,40,0
1,note_on,69,40,0
1,note_on,72,60,0
1,note_on,72,0,120
1,note_on,69,0,0
1,note_on,66,0,0
1,note_on,78,74,240
1,note_on,78,0,120
1,note_on,66,42,0
1,note_on,69,42,0
1,note_on,72,63,0
1,note_on,72,0,120
1,note_on,69,0,0
1,note_on,66,0,0
1,note_on,73,78,120
1,note_on,73,0,120
1,note_on,75,88,0
1,note_on,75,0,120
1,note_on,72,54,0
1,note_on,78,54,0
1,note_on,84,78,0
1,note_on,84,0,120
1,note_on,78,0,0
1,note_on,72,0,0
1,note_on,84,73,240
1,note_on,84,0,120
1,note_on,72,50,0
1,note_on,73,72,0
1,note_on,73,0,120
1,note_on,72,0,0
1,note_on,75,64,120
1,note_on,75,0,120
1,note_on,77,69,0
1,note_on,77,0,120
1,note_on,70,44,0
1,note_on,82,69,0
1,note_on,73,44,0
1,note_on,73,0,120
1,note_on,82,0,0
1,note_on,70,0,0
1,note_on,85,85,240
1,note_on,85,0,120
1,note_on,73,71,0
1,note_on,84,84,0
1,note_on,79,71,0
1,note_on,79,0,120
1,note_on,84,0,0
1,note_on,73,0,0
1,note_on,82,80,120
1,note_on,82,0,120
1,note_on,81,86,0
1,note_on,81,0,120
1,note_on,77,67,0
1,note_on,72,67,0
1,note_on,84,80,0
1,note_on,84,0,120
1,note_on,72,0,0
1,note_on,77,0,0
1,note_on,78,67,240
1,note_on,78,0,120
1,note_on,66,55,0
1,note_on,77,66,0
1,note_on,72,55,0
1,note_on,72,0,120
1,note_on,77,0,0
1,note_on,66,0,0
1,note_on,75,64,120
1,note_on,75,0,120
1,note_on,74,69,0
1,note_on,74,0,120
1,note_on,70,53,0
1,note_on,77,64,0
1,note_on,73,53,0
1,note_on,65,53,0
1,note_on,65,0,120
1,note_on,70,0,0
1,note_on,77,0,0
1,note_on,73,0,0
1,note_on,85,85,240
1,note_on,85,0,120
1,note_on,73,71,0
1,note_on,84,84,0
1,note_on,79,71,0
1,note_on,79,0,120
1,note_on,84,0,0
1,note_on,73,0,0
1,note_on,82,80,120
1,note_on,82,0,120
1,note_on,81,86,0
1,note_on,81,0,120
1,note_on,77,67,0
1,note_on,72,67,0
1,note_on,84,80,0
1,note_on,84,0,120
1,note_on,72,0,0
1,note_on,77,0,0
1,note_on,83,84,240
1,note_on,83,0,120
1,note_on,71,65,0
1,note_on,82,77,0
1,note_on,77,65,0
1,note_on,77,0,120
1,note_on,82,0,0
1,note_on,71,0,0
1,note_on,80,80,120
1,note_on,80,0,120
1,note_on,79,86,0
1,note_on,79,0,120
1,note_on,78,63,0
1,note_on,70,63,0
1,note_on,82,75,0
1,note_on,82,0,120
1,note_on,70,0,0
1,note_on,78,0,0
1,note_on,78,83,240
1,note_on,69,83,0
1,note_on,81,99,0
1,note_on,81,0,240
1,note_on,69,0,0
1,note_on,70,66,0
1,note_on,82,79,0
1,note_on,82,0,240
1,note_on,70,0,0
1,note_on,69,75,0
1,note_on,81,89,0
1,note_on,81,0,240
1,note_on,69,0,0
1,note_on,78,0,0
1,note_on,82,79,0
1,note_on,70,66,0
1,note_on,77,66,0
1,note_on,77,0,240
1,note_on,70,0,0
1,note_on,82,0,0
1,note_on,69,78,0
1,note_on,77,78,0
1,note_on,81,92,0
1,note_on,81,0,240
1,note_on,77,0,0
1,note_on,69,0,0
1,note_on,75,67,0
1,note_on,70,67,0
1,note_on,82,80,0
1,note_on,82,0,240
1,note_on,70,0,0
1,note_on,69,74,0
1,note_on,81,89,0
1,note_on,81,0,240
1,note_on,69,0,0
1,note_on,75,0,0
1,note_on,70,67,0
1,note_on,73,67,0
1,note_on,82,80,0
1,note_on,82,0,240
1,note_on,73,0,0
1,note_on,70,0,0
1,note_on,66,84,0
1,note_on,61,79,0
1,note_on,73,100,0
1,note_on,73,0,120
1,note_on,61,0,0
1,note_on,66,0,0
1,note_on,60,65,120
1,note_on,66,73,0
1,note_on,72,86,0
1,note_on,72,0,120
1,note_on,66,0,0
1,note_on,60,0,0
1,note_on,70,66,360
1,note_on,61,56,0
1,note_on,66,58,0
1,note_on,56,56,0
1,note_on,56,0,240
1,note_on,70,0,0
1,note_on,61,0,0
1,note_on,66,0,0
1,note_on,56,58,0
1,note_on,70,68,0
1,note_on,62,58,0
1,note_on,66,56,0
1,note_on,66,0,480
1,note_on,56,0,0
1,note_on,70,0,0
1,note_on,62,0,0
1,note_on,68,62,0
1,note_on,63,53,0
1,note_on,66,62,0
1,note_on,56,53,0
1,note_on,56,0,360
1,note_on,68,0,0
1,note_on,63,0,0
1,note_on,66,0,0
1,note_on,53,49,0
1,note_on,53,0,120
1,note_on,53,41,0
1,note_on,61,41,0
1,note_on,68,49,0
1,note_on,68,0,960
1,note_on,61,0,0
1,note_on,53,0,0
1,note_on,56,41,0
1,note_on,61,41,0
1,note_on,65,49,0
1,note_on,65,0,480
1,note_on,61,0,0
1,note_on,56,0,0
1,note_on,66,44,0
1,note_on,58,37,0
1,note_on,63,37,0
1,note_on,63,0,480
1,note_on,58,0,0
1,note_on,66,0,0
1,note_on,54,31,0
1,note_on,60,37,0
1,note_on,65,46,0
1,note_on,65,0,960
1,note_on,63,41,0
1,note_on,53,41,840
1,note_on,61,41,60
1,note_on,63,0,60
1,note_on,54,0,0
1,note_on,60,0,0
1,note_on,68,49,0
1,note_on,68,0,480
1,note_on,53,0,0
1,note_on,56,41,0
1,note_on,65,49,0
1,note_on,65,0,480
1,note_on,56,0,0
1,note_on,61,0,0
1,note_on,66,49,0
1,note_on,58,41,0
1,note_on,61,41,0
1,note_on,58,0,240
1,note_on,66,0,0
1,note_on,56,39,0
1,note_on,65,47,0
1,note_on,65,0,240
1,note_on,56,0,0
1,note_on,61,0,0
1,note_on,63,41,0
1,note_on,60,37,0
1,note_on,68,44,0
1,note_on,68,0,240
1,note_on,60,0,0
1,note_on,58,35,0
1,note_on,66,41,0
1,note_on,66,0,240
1,note_on,58,0,0
1,note_on,63,0,0
1,note_on,54,29,0
1,note_on,60,36,0
1,note_on,65,45,0
1,note_on,65,0,960
1,note_on,63,41,0
1,note_on,63,0,960
1,note_on,60,0,0
1,note_on,54,0,0
1,note_on,68,52,0
1,note_on,61,40,0
1,note_on,53,41,0
1,note_on,53,0,480
1,note_on,68,0,0
1,note_on,64,44,0
1,note_on,70,51,0
1,note_on,70,0,480
1,note_on,64,0,0
1,note_on,61,0,0
1,note_on,63,44,0
1,note_on,72,52,0
1,note_on,72,0,480
1,note_on,63,0,0
1,note_on,73,58,0
1,note_on,66,49,0
1,note_on,73,0,360
1,note_on,72,53,0
1,note_on,75,60,0
1,note_on,75,0,120
1,note_on,72,0,0
1,note_on,66,0,0
1,note_on,65,42,0
1,note_on,73,47,0
1,note_on,77,61,0
1,note_on,77,0,480
1,note_on,73,0,0
1,note_on,65,0,0
1,note_on,64,44,0
1,note_on,61,44,0
1,note_on,70,51,0
1,note_on,70,0,480
1,note_on,61,0,0
1,note_on,64,0,0
1,note_on,60,44,0
1,note_on,63,44,0
1,note_on,72,52,0
1,note_on,72,0,420
1,note_on,60,0,0
1,note_on,58,56,0
1,note_on,73,58,60
1,note_on,73,0,360
1,note_on,75,60,0
1,note_on,75,0,120
1,note_on,58,0,0
1,note_on,63,0,0
1,note_on,65,53,0
1,note_on,72,53,0
1,note_on,77,63,0
1,note_on,77,0,480
1,note_on,65,0,0
1,note_on,75,60,0
1,note_on,65,53,0
1,note_on,75,0,480
1,note_on,72,0,0
1,note_on,61,53,0
1,note_on,70,63,0
1,note_on,73,63,0
1,note_on,73,0,480
1,note_on,65,0,0
1,note_on,61,0,0
1,note_on,70,0,0
1,note_on,64,53,0
1,note_on,68,53,0
1,note_on,72,63,0
1,note_on,72,0,360
1,note_on,68,0,0
1,note_on,64,0,0
1,note_on,65,57,0
1,note_on,70,57,0
1,note_on,70,0,120
1,note_on,65,0,0
1,note_on,59,51,0
1,note_on,65,56,0
1,note_on,68,61,0
1,note_on,68,0,480
1,note_on,65,0,0
1,note_on,59,0,0
1,note_on,63,59,0
1,note_on,54,47,0
1,note_on,58,49,0
1,note_on,66,59,0
1,note_on,66,0,360
1,note_on,63,0,0
1,note_on,54,0,0
1,note_on,58,0,0
1,note_on,56,47,0
1,note_on,61,56,0
1,note_on,65,56,0
1,note_on,65,0,120
1,note_on,61,0,0
1,note_on,56,0,0
1,note_on,63,59,0
1,note_on,58,49,0
1,note_on,61,59,0
1,note_on,61,0,480
1,note_on,58,0,0
1,note_on,54,47,0
1,note_on,60,53,0
1,note_on,63,0,240
1,note_on,64,60,0
1,note_on,64,0,120
1,note_on,60,0,0
1,note_on,54,0,0
1,note_on,65,55,0
1,note_on,73,60,60
1,note_on,80,72,60
1,note_on,80,0,960
1,note_on,73,0,0
1,note_on,65,0,0
1,note_on,68,49,0
1,note_on,73,49,0
1,note_on,77,60,0
1,note_on,77,0,480
1,note_on,73,0,0
1,note_on,68,0,0
1,note_on,65,34,0
1,note_on,68,39,0
1,note_on,68,0,240
1,note_on,65,0,0
1,note_on,70,41,0
1,note_on,75,41,0
1,note_on,78,55,0
1,note_on,78,0,240
1,note_on,75,0,0
1,note_on,70,0,0
1,note_on,77,65,0
1,note_on,66,38,0
1,note_on,72,45,0
1,note_on,77,0,720
1,note_on,75,55,0
1,note_on,75,0,240
1,note_on,72,0,0
1,note_on,66,0,0
1,note_on,70,58,0
1,note_on,70,0,240
1,note_on,68,52,0
1,note_on,68,0,240
1,note_on,61,61,0
1,note_on,61,0,240
1,note_on,63,55,0
1,note_on,63,0,120
1,note_on,65,62,0
1,note_on,65,0,120
1,note_on,65,55,0
1,note_on,73,57,0
1,note_on,80,68,0
1,note_on,80,0,480
1,note_on,65,0,0
1,note_on,68,49,0
1,note_on,77,62,0
1,note_on,77,0,480
1,note_on,68,0,0
1,note_on,73,0,0
1,note_on,78,66,0
1,note_on,73,57,0
1,note_on,70,55,0
1,note_on,70,0,240
1,note_on,78,0,0
1,note_on,68,46,0
1,note_on,77,55,0
1,note_on,77,0,240
1,note_on,68,0,0
1,note_on,73,0,0
1,note_on,68,48,0
1,note_on,77,57,0
1,note_on,77,0,160
1,note_on,68,0,0
1,note_on,72,46,0
1,note_on,80,55,0
1,note_on,80,0,160
1,note_on,72,0,0
1,note_on,70,46,0
1,note_on,78,55,0
1,note_on,78,0,160
1,note_on,70,0,0
1,note_on,77,61,0
1,note_on,66,32,0
1,note_on,72,38,0
1,note_on,77,0,720
1,note_on,75,60,0
1,note_on,75,0,240
1,note_on,72,0,0
1,note_on,66,0,0
1,note_on,70,60,0
1,note_on,70,0,160
1,note_on,68,51,0
1,note_on,68,0,160
1,note_on,70,51,0
1,note_on,70,0,160
1,note_on,68,58,0
1,note_on,68,0,160
1,note_on,61,53,0
1,note_on,61,0,160
1,note_on,63,53,0
1,note_on,63,0,160
1,note_on,68,59,0
1,note_on,73,58,0
1,note_on,80,73,0
1,note_on,68,0,480
1,note_on,70,57,0
1,note_on,82,68,0
1,note_on,82,0,480
1,note_on,73,0,0
1,note_on,80,0,0
1,note_on,70,0,0
1,note_on,84,73,0
1,note_on,80,61,0
1,note_on,78,61,0
1,note_on,72,61,0
1,note_on,72,0,480
1,note_on,84,0,0
1,note_on,73,68,0
1,note_on,85,75,0
1,note_on,85,0,360
1,note_on,73,0,0
1,note_on,75,70,0
1,note_on,87,73,0
1,note_on,87,0,120
1,note_on,80,0,0
1,note_on,78,0,0
1,note_on,75,0,0
1,note_on,80,66,0
1,note_on,77,66,0
1,note_on,89,78,0
1,note_on,89,0,480
1,note_on,82,73,0
1,note_on,70,61,0
1,note_on,70,0,480
1,note_on,80,0,0
1,note_on,77,0,0
1,note_on,82,0,0
1,note_on,78,66,0
1,note_on,80,66,0
1,note_on,72,66,0
1,note_on,84,78,0
1,note_on,84,0,480
1,note_on,78,0,0
1,note_on,80,0,0
1,note_on,72,0,0
1,note_on,73,66,0
1,note_on,85,79,0
1,note_on,85,0,360
1,note_on,73,0,0
1,note_on,75,64,0
1,note_on,87,77,0
1,note_on,87,0,120
1,note_on,75,0,0
1,note_on,84,66,0
1,note_on,87,74,0
1,note_on,77,70,0
1,note_on,89,81,0
1,note_on,89,0,480
1,note_on,77,0,0
1,note_on,78,66,0
1,note_on,90,78,0
1,note_on,87,0,480
1,note_on,84,0,0
1,note_on,82,74,0
1,note_on,85,74,0
1,note_on,78,0,240
1,note_on,90,0,0
1,note_on,89,77,0
1,note_on,77,64,0
1,note_on,77,0,240
1,note_on,89,0,0
1,note_on,76,63,0
1,note_on,88,75,0
1,note_on,88,0,240
1,note_on,76,0,0
1,note_on,77,63,0
1,note_on,89,75,0
1,note_on,89,0,240
1,note_on,85,0,0
1,note_on,82,0,0
1,note_on,77,0,0
1,note_on,80,72,0
1,note_on,90,71,0
1,note_on,92,85,0
1,note_on,87,57,0
1,note_on,92,0,480
1,note_on,80,0,0
1,note_on,82,70,0
1,note_on,94,84,0
1,note_on,90,0,480
1,note_on,87,0,0
1,note_on,89,81,0
1,note_on,82,0,240
1,note_on,94,0,0
1,note_on,92,80,0
1,note_on,80,67,0
1,note_on,80,0,240
1,note_on,92,0,0
1,note_on,89,0,0
1,note_on,78,70,0
1,note_on,90,84,0
1,note_on,82,62,0
1,note_on,90,0,360
1,note_on,78,0,0
1,note_on,89,78,0
1,note_on,77,66,0
1,note_on,77,0,120
1,note_on,89,0,0
1,note_on,82,0,0
1,note_on,82,73,0
1,note_on,80,73,0
1,note_on,92,86,0
1,note_on,92,0,240
1,note_on,80,0,0
1,note_on,78,60,0
1,note_on,90,72,0
1,note_on,90,0,240
1,note_on,78,0,0
1,note_on,82,0,0
1,note_on,89,72,0
1,note_on,82,54,0
1,note_on,77,57,0
1,note_on,77,0,240
1,note_on,89,0,0
1,note_on,74,60,0
1,note_on,86,72,0
1,note_on,86,0,240
1,note_on,74,0,0
1,note_on,82,0,0
1,note_on,82,54,0
1,note_on,89,81,0
1,note_on,77,69,0
1,note_on,77,0,240
1,note_on,89,0,0
1,note_on,87,71,0
1,note_on,75,60,0
1,note_on,75,0,240
1,note_on,87,0,0
1,note_on,82,0,0
1,note_on,76,55,0
1,note_on,82,72,0
1,note_on,70,61,0
1,note_on,70,0,240
1,note_on,82,0,0
1,note_on,85,67,0
1,note_on,73,56,0
1,note_on,73,0,240
1,note_on,85,0,0
1,note_on,76,0,0
1,note_on,70,66,0
1,note_on,77,61,0
1,note_on,82,80,0
1,note_on,82,0,240
1,note_on,70,0,0
1,note_on,80,73,0
1,note_on,68,61,0
1,note_on,68,0,240
1,note_on,80,0,0
1,note_on,77,0,0
1,note_on,73,73,0
1,note_on,66,61,0
1,note_on,61,61,0
1,note_on,61,0,240
1,note_on,66,0,0
1,note_on,66,62,0
1,note_on,78,74,0
1,note_on,78,0,240
1,note_on,66,0,0
1,note_on,73,0,0
1,note_on,61,67,0
1,note_on,75,80,0
1,note_on,66,67,0
1,note_on,73,67,0
1,note_on,73,0,480
1,note_on,61,0,0
1,note_on,75,0,0
1,note_on,66,0,0
1,note_on,65,63,0
1,note_on,77,75,0
1,note_on,72,51,0
1,note_on,77,0,240
1,note_on,65,0,0
1,note_on,66,60,0
1,note_on,78,70,0
1,note_on,78,0,240
1,note_on,66,0,0
1,note_on,72,0,0
1,note_on,73,47,0
1,note_on,70,62,0
1,note_on,82,77,0
1,note_on,82,0,240
1,note_on,70,0,0
1,note_on,69,51,0
1,note_on,81,68,0
1,note_on,81,0,240
1,note_on,69,0,0
1,note_on,73,0,0
1,note_on,80,77,0
1,note_on,73,53,0
1,note_on,68,64,0
1,note_on,68,0,160
1,note_on,73,0,0
1,note_on,80,0,0
1,note_on,73,70,0
1,note_on,61,60,0
1,note_on,61,0,160
1,note_on,66,60,0
1,note_on,78,70,0
1,note_on,78,0,160
1,note_on,66,0,0
1,note_on,73,0,0
1,note_on,73,66,0
1,note_on,75,80,0
1,note_on,66,66,0
1,note_on,63,66,0
1,note_on,63,0,240
1,note_on,75,0,0
1,note_on,65,57,0
1,note_on,77,68,0
1,note_on,77,0,120
1,note_on,65,0,0
1,note_on,63,53,0
1,note_on,75,63,0
1,note_on,75,0,120
1,note_on,73,0,0
1,note_on,66,0,0
1,note_on,63,0,0
1,note_on,62,61,0
1,note_on,72,61,0
1,note_on,74,73,0
1,note_on,74,0,120
1,note_on,62,0,0
1,note_on,63,57,0
1,note_on,75,68,0
1,note_on,75,0,120
1,note_on,63,0,0
1,note_on,65,61,0
1,note_on,77,73,0
1,note_on,77,0,120
1,note_on,65,0,0
1,note_on,66,58,0
1,note_on,78,69,0
1,note_on,78,0,120
1,note_on,66,0,0
1,note_on,72,0,0
1,note_on,73,67,0
1,note_on,67,70,0
1,note_on,79,83,0
1,note_on,79,0,160
1,note_on,67,0,0
1,note_on,80,79,0
1,note_on,68,66,0
1,note_on,68,0,160
1,note_on,80,0,0
1,note_on,73,0,0
1,note_on,77,69,0
1,note_on,89,77,0
1,note_on,89,0,160
1,note_on,77,0,0
1,note_on,78,70,0
1,note_on,75,70,0
1,note_on,87,82,0
1,note_on,87,0,160
1,note_on,75,0,0
1,note_on,73,62,0
1,note_on,85,73,0
1,note_on,85,0,160
1,note_on,73,0,0
1,note_on,78,0,0
1,note_on,73,64,0
1,note_on,78,80,0
1,note_on,66,68,0
1,note_on,66,0,160
1,note_on,78,0,0
1,note_on,73,0,0
1,note_on,73,69,0
1,note_on,75,82,0
1,note_on,63,69,0
1,note_on,68,69,0
1,note_on,63,0,480
1,note_on,73,0,0
1,note_on,66,61,0
1,note_on,72,61,0
1,note_on,72,0,240
1,note_on,66,0,0
1,note_on,68,0,0
1,note_on,75,0,180
1,note_on,73,73,0
1,note_on,73,0,60
1,note_on,65,72,0
1,note_on,73,85,0
1,note_on,73,0,160
1,note_on,65,0,0
1,note_on,63,62,0
1,note_on,70,73,0
1,note_on,70,0,80
1,note_on,63,0,0
1,note_on,63,62,80
1,note_on,70,73,0
1,note_on,70,0,80
1,note_on,63,0,0
1,note_on,63,62,80
1,note_on,70,75,0
1,note_on,70,0,160
1,note_on,63,0,0
1,note_on,68,71,0
1,note_on,68,0,80
1,note_on,72,62,80
1,note_on,78,74,0
1,note_on,78,0,80
1,note_on,72,0,0
1,note_on,72,63,80
1,note_on,78,75,0
1,note_on,78,0,160
1,note_on,72,0,0
1,note_on,73,62,0
1,note_on,77,74,0
1,note_on,77,0,80
1,note_on,73,0,0
1,note_on,75,62,80
1,note_on,82,74,0
1,note_on,82,0,80
1,note_on,75,0,0
1,note_on,75,64,80
1,note_on,82,78,0
1,note_on,82,0,160
1,note_on,75,0,0
1,note_on,80,73,0
1,note_on,80,0,80
1,note_on,90,73,80
1,note_on,84,62,0
1,note_on,84,0,80
1,note_on,90,0,0
1,note_on,84,64,80
1,note_on,90,78,0
1,note_on,90,0,160
1,note_on,84,0,0
1,note_on,85,62,0
1,note_on,89,73,0
1,note_on,89,0,80
1,note_on,85,0,0
1,note_on,82,73,80
1,note_on,75,62,0
1,note_on,75,0,80
1,note_on,82,0,0
1,note_on,75,62,80
1,note_on,82,75,0
1,note_on,82,0,160
1,note_on,75,0,0
1,note_on,80,72,0
1,note_on,80,0,80
1,note_on,72,62,80
1,note_on,78,74,0
1,note_on,78,0,80
1,note_on,72,0,0
1,note_on,78,75,80
1,note_on,72,62,0
1,note_on,72,0,160
1,note_on,78,0,0
1,note_on,73,60,0
1,note_on,77,71,0
1,note_on,77,0,80
1,note_on,73,0,0
1,note_on,70,74,80
1,note_on,63,62,0
1,note_on,63,0,80
1,note_on,70,0,0
1,note_on,63,64,80
1,note_on,70,78,0
1,note_on,70,0,160
1,note_on,63,0,0
1,note_on,68,74,0
1,note_on,68,0,80
1,note_on,60,62,80
1,note_on,66,74,0
1,note_on,66,0,80
1,note_on,60,0,0
1,note_on,60,64,80
1,note_on,66,78,0
1,note_on,66,0,160
1,note_on,60,0,0
1,note_on,65,67,0
1,note_on,61,56,0
1,note_on,61,0,80
1,note_on,65,0,0
1,note_on,64,49,80
1,note_on,69,59,0
1,note_on,69,0,80
1,note_on,64,0,0
1,note_on,64,51,80
1,note_on,69,62,0
1,note_on,69,0,160
1,note_on,64,0,0
1,note_on,63,49,0
1,note_on,68,58,0
1,note_on,68,0,80
1,note_on,63,0,0
1,note_on,72,44,80
1,note_on,78,52,0
1,note_on,78,0,80
1,note_on,72,0,0
1,note_on,72,46,80
1,note_on,78,55,0
1,note_on,78,0,160
1,note_on,72,0,0
1,note_on,73,44,0
1,note_on,77,52,0
1,note_on,77,0,80
1,note_on,73,0,0
1,note_on,81,52,80
1,note_on,76,44,0
1,note_on,76,0,80
1,note_on,81,0,0
1,note_on,76,46,80
1,note_on,81,55,0
1,note_on,81,0,160
1,note_on,76,0,0
1,note_on,75,41,0
1,note_on,80,51,0
1,note_on,80,0,80
1,note_on,75,0,0
1,note_on,84,39,80
1,note_on,90,46,0
1,note_on,90,0,80
1,note_on,84,0,0
1,note_on,84,40,80
1,note_on,90,49,0
1,note_on,90,0,160
1,note_on,84,0,0
1,note_on,85,39,0
1,note_on,89,46,0
1,note_on,89,0,80
1,note_on,85,0,0
1,note_on,76,47,80
1,note_on,81,55,0
1,note_on,81,0,80
1,note_on,76,0,0
1,note_on,76,49,80
1,note_on,81,59,0
1,note_on,81,0,160
1,note_on,76,0,0
1,note_on,75,45,0
1,note_on,80,56,0
1,note_on,80,0,80
1,note_on,75,0,0
1,note_on,72,47,80
1,note_on,78,56,0
1,note_on,78,0,80
1,note_on,72,0,0
1,note_on,72,49,80
1,note_on,78,59,0
1,note_on,78,0,160
1,note_on,72,0,0
1,note_on,73,47,0
1,note_on,77,55,0
1,note_on,77,0,80
1,note_on,73,0,0
1,note_on,64,45,80
1,note_on,69,54,0
1,note_on,69,0,80
1,note_on,64,0,0
1,note_on,64,49,80
1,note_on,69,59,0
1,note_on,69,0,160
1,note_on,64,0,0
1,note_on,63,45,0
1,note_on,68,56,0
1,note_on,68,0,80
1,note_on,63,0,0
1,note_on,63,52,80
1,note_on,60,52,0
1,note_on,66,62,0
1,note_on,66,0,80
1,note_on,60,0,0
1,note_on,63,0,0
1,note_on,63,49,80
1,note_on,60,49,0
1,note_on,66,59,0
1,note_on,66,0,160
1,note_on,60,0,0
1,note_on,63,0,0
1,note_on,64,42,0
1,note_on,60,41,0
1,note_on,67,49,0
1,note_on,67,0,80
1,note_on,60,0,0
1,note_on,64,0,0
1,note_on,72,56,80
1,note_on,62,49,0
1,note_on,66,47,0
1,note_on,66,0,80
1,note_on,62,0,0
1,note_on,72,0,0
1,note_on,62,49,80
1,note_on,66,49,0
1,note_on,72,59,0
1,note_on,72,0,160
1,note_on,66,0,0
1,note_on,62,0,0
1,note_on,62,42,0
1,note_on,67,41,0
1,note_on,71,48,0
1,note_on,71,0,80
1,note_on,67,0,0
1,note_on,62,0,0
1,note_on,65,47,80
1,note_on,67,47,0
1,note_on,71,47,0
1,note_on,77,56,0
1,note_on,77,0,80
1,note_on,65,0,0
1,note_on,67,0,0
1,note_on,71,0,0
1,note_on,71,49,80
1,note_on,65,49,0
1,note_on,67,49,0
1,note_on,77,59,0
1,note_on,77,0,160
1,note_on,71,0,0
1,note_on,65,0,0
1,note_on,67,0,0
1,note_on,67,46,0
1,note_on,72,44,0
1,note_on,76,52,0
1,note_on,76,0,80
1,note_on,72,0,0
1,note_on,67,0,0
1,note_on,84,56,80
1,note_on,74,49,0
1,note_on,78,47,0
1,note_on,72,49,0
1,note_on,72,0,80
1,note_on,84,0,0
1,note_on,74,0,0
1,note_on,78,0,0
1,note_on,72,49,80
1,note_on,84,59,0
1,note_on,74,49,0
1,note_on,78,49,0
1,note_on,78,0,160
1,note_on,72,0,0
1,note_on,84,0,0
1,note_on,74,0,0
1,note_on,71,46,0
1,note_on,79,41,0
1,note_on,83,51,0
1,note_on,83,0,80
1,note_on,79,0,0
1,note_on,71,0,0
1,note_on,77,49,80
1,note_on,79,49,0
1,note_on,83,47,0
1,note_on,89,55,0
1,note_on,89,0,80
1,note_on,77,0,0
1,note_on,79,0,0
1,note_on,83,0,0
1,note_on,77,49,80
1,note_on,79,49,0
1,note_on,83,49,0
1,note_on,89,59,0
1,note_on,89,0,160
1,note_on,77,0,0
1,note_on,79,0,0
1,note_on,83,0,0
1,note_on,74,63,0
1,note_on,70,45,0
1,note_on,70,0,160
1,note_on,74,0,0
1,note_on,71,66,0
1,note_on,80,80,0
1,note_on,80,0,160
1,note_on,71,0,0
1,note_on,73,68,0
1,note_on,77,74,0
1,note_on,77,0,160
1,note_on,73,0,0
1,note_on,74,71,0
1,note_on,83,84,0
1,note_on,83,0,160
1,note_on,74,0,0
1,note_on,76,66,0
1,note_on,80,79,0
1,note_on,80,0,160
1,note_on,76,0,0
1,note_on,77,74,0
1,note_on,86,89,0
1,note_on,86,0,160
1,note_on,77,0,0
1,note_on,83,85,0
1,note_on,79,72,0
1,note_on,79,0,160
1,note_on,83,0,0
1,note_on,89,92,0
1,note_on,80,78,0
1,note_on,80,0,160
1,note_on,89,0,0
1,note_on,82,73,0
1,note_on,86,86,0
1,note_on,86,0,160
1,note_on,82,0,0
1,note_on,83,79,0
1,note_on,92,94,0
1,note_on,92,0,160
1,note_on,83,0,0
1,note_on,83,77,0
1,note_on,95,90,0
1,note_on,95,0,160
1,note_on,83,0,0
1,note_on,84,85,0
1,note_on,96,101,0
1,note_on,96,0,160
1,note_on,84,0,0
1,note_on,60,64,0
1,note_on,67,64,0
1,note_on,72,77,0
1,note_on,72,0,160
1,note_on,67,0,0
1,note_on,60,0,0
1,note_on,67,64,0
1,note_on,60,64,0
1,note_on,72,77,0
1,note_on,72,0,160
1,note_on,60,0,0
1,note_on,67,0,0
1,note_on,60,55,0
1,note_on,68,55,0
1,note_on,72,77,0
1,note_on,72,0,160
1,note_on,68,0,0
1,note_on,60,0,0
1,note_on,60,63,0
1,note_on,68,63,0
1,note_on,72,75,0
1,note_on,72,0,160
1,note_on,68,0,0
1,note_on,60,0,0
1,note_on,60,63,0
1,note_on,68,63,0
1,note_on,72,75,0
1,note_on,72,0,160
1,note_on,68,0,0
1,note_on,60,0,0
1,note_on,72,80,0
1,note_on,60,57,0
1,note_on,68,57,0
1,note_on,68,0,160
1,note_on,60,0,0
1,note_on,72,0,0
1,note_on,60,64,0
1,note_on,68,64,0
1,note_on,72,77,0
1,note_on,72,0,160
1,note_on,68,0,0
1,note_on,60,0,0
1,note_on,60,64,0
1,note_on,68,64,0
1,note_on,72,77,0
1,note_on,72,0,160
1,note_on,68,0,0
1,note_on,60,0,0
1,note_on,60,68,0
1,note_on,68,68,0
1,note_on,72,81,0
1,note_on,72,0,160
1,note_on,68,0,0
1,note_on,60,0,0
1,note_on,72,79,0
1,note_on,60,67,0
1,note_on,68,67,0
1,note_on,68,0,160
1,note_on,60,0,0
1,note_on,72,0,0
1,note_on,60,67,0
1,note_on,68,67,0
1,note_on,72,79,0
1,note_on,72,0,160
1,note_on,68,0,0
1,note_on,60,0,0
1,note_on,60,67,0
1,note_on,68,67,0
1,note_on,72,80,0
1,note_on,72,0,80
1,note_on,68,0,0
1,note_on,60,0,0
1,note_on,60,68,80
1,note_on,69,68,0
1,note_on,72,81,0
1,note_on,72,0,80
1,note_on,69,0,0
1,note_on,60,0,0
1,note_on,60,69,80
1,note_on,69,69,0
1,note_on,72,82,0
1,note_on,72,0,80
1,note_on,69,0,0
1,note_on,60,0,0
1,note_on,69,71,80
1,note_on,60,71,0
1,note_on,72,83,0
1,note_on,72,0,80
1,note_on,60,0,0
1,note_on,69,0,0
1,note_on,61,71,80
1,note_on,69,71,0
1,note_on,73,84,0
1,note_on,73,0,80
1,note_on,69,0,0
1,note_on,61,0,0
1,note_on,61,71,80
1,note_on,69,71,0
1,note_on,73,85,0
1,note_on,73,0,80
1,note_on,69,0,0
1,note_on,61,0,0
1,note_on,61,72,80
1,note_on,69,72,0
1,note_on,73,86,0
1,note_on,73,0,80
1,note_on,69,0,0
1,note_on,61,0,0
1,note_on,73,88,80
1,note_on,61,73,0
1,note_on,69,73,0
1,note_on,69,0,80
1,note_on,61,0,0
1,note_on,73,0,0
1,note_on,61,75,80
1,note_on,69,75,0
1,note_on,73,90,0
1,note_on,73,0,80
1,note_on,69,0,0
1,note_on,61,0,0
1,note_on,61,77,80
1,note_on,69,77,0
1,note_on,73,91,0
1,note_on,73,0,80
1,note_on,69,0,0
1,note_on,61,0,0
1,note_on,61,78,80
1,note_on,68,78,0
1,note_on,73,92,0
1,note_on,73,0,80
1,note_on,68,0,0
1,note_on,61,0,0
1,note_on,73,93,80
1,note_on,61,79,0
1,note_on,67,79,0
1,note_on,67,0,80
1,note_on,61,0,0
1,note_on,73,0,0
1,note_on,61,73,80
1,note_on,68,86,0
1,note_on,73,102,0
1,note_on,73,0,80
1,note_on,68,0,0
1,note_on,61,0,0
1,note_on,65,68,80
1,note_on,68,80,0
1,note_on,77,95,0
1,note_on,77,0,160
1,note_on,68,0,0
1,note_on,65,0,0
1,note_on,65,68,0
1,note_on,68,80,0
1,note_on,77,95,0
1,note_on,77,0,160
1,note_on,68,0,0
1,note_on,65,0,0
1,note_on,65,72,0
1,note_on,68,85,0
1,note_on,77,101,0
1,note_on,77,0,160
1,note_on,68,0,0
1,note_on,65,0,0
1,note_on,75,95,0
1,note_on,63,68,0
1,note_on,63,0,160
1,note_on,75,0,0
1,note_on,61,68,0
1,note_on,73,95,0
1,note_on,73,0,160
1,note_on,61,0,0
1,note_on,65,68,160
1,note_on,70,80,0
1,note_on,77,95,0
1,note_on,77,0,160
1,note_on,70,0,0
1,note_on,65,0,0
1,note_on,65,68,0
1,note_on,70,80,0
1,note_on,77,95,0
1,note_on,77,0,160
1,note_on,70,0,0
1,note_on,65,0,0
1,note_on,65,72,0
1,note_on,70,85,0
1,note_on,77,101,0
1,note_on,77,0,160
1,note_on,70,0,0
1,note_on,65,0,0
1,note_on,75,95,0
1,note_on,63,68,0
1,note_on,63,0,160
1,note_on,75,0,0
1,note_on,61,68,0
1,note_on,73,95,0
1,note_on,73,0,160
1,note_on,61,0,0
1,note_on,65,68,160
1,note_on,68,80,0
1,note_on,77,95,0
1,note_on,77,0,160
1,note_on,68,0,0
1,note_on,65,0,0
1,note_on,65,68,0
1,note_on,68,80,0
1,note_on,77,95,0
1,note_on,77,0,160
1,note_on,68,0,0
1,note_on,65,0,0
1,note_on,65,72,0
1,note_on,68,85,0
1,note_on,77,101,0
1,note_on,77,0,160
1,note_on,68,0,0
1,note_on,65,0,0
1,note_on,75,95,0
1,note_on,63,68,0
1,note_on,63,0,160
1,note_on,75,0,0
1,note_on,61,68,0
1,note_on,73,95,0
1,note_on,73,0,160
1,note_on,61,0,0
1,note_on,65,68,160
1,note_on,67,80,0
1,note_on,77,95,0
1,note_on,77,0,160
1,note_on,67,0,0
1,note_on,65,0,0
1,note_on,65,68,0
1,note_on,67,80,0
1,note_on,77,95,0
1,note_on,77,0,160
1,note_on,67,0,0
1,note_on,65,0,0
1,note_on,65,72,0
1,note_on,67,85,0
1,note_on,77,101,0
1,note_on,77,0,160
1,note_on,67,0,0
1,note_on,65,0,0
1,note_on,75,95,0
1,note_on,63,68,0
1,note_on,63,0,160
1,note_on,75,0,0
1,note_on,61,68,0
1,note_on,73,95,0
1,note_on,73,0,160
1,note_on,61,0,0
1,note_on,51,84,0
1,note_on,55,84,0
1,note_on,61,95,0
1,note_on,63,101,0
1,note_on,63,0,1920
1,note_on,51,0,0
1,note_on,55,0,0
1,note_on,61,0,0
1,note_on,54,80,0
1,note_on,60,80,0
1,note_on,65,95,0
1,note_on,65,0,1920
1,note_on,60,0,0
1,note_on,54,0,0
1,note_on,73,54,3840
1,note_on,73,0,120
1,note_on,70,51,0
1,note_on,70,0,60
1,note_on,72,51,180
1,note_on,72,0,120
1,note_on,73,54,0
1,note_on,73,0,120
1,note_on,70,51,0
1,note_on,70,0,60
1,note_on,73,54,300
1,note_on,73,0,120
1,note_on,70,51,0
1,note_on,70,0,60
1,note_on,72,51,180
1,note_on,72,0,120
1,note_on,73,54,0
1,note_on,73,0,120
1,note_on,70,51,0
1,note_on,70,0,60
1,note_on,73,54,300
1,note_on,73,0,120
1,note_on,70,51,0
1,note_on,70,0,60
1,note_on,72,61,180
1,note_on,72,0,120
1,note_on,73,66,0
1,note_on,73,0,120
1,note_on,82,64,0
1,note_on,82,0,60
1,note_on,81,64,300
1,note_on,81,0,120
1,note_on,72,59,0
1,note_on,72,0,60
1,note_on,73,51,180
1,note_on,73,0,120
1,note_on,75,54,0
1,note_on,75,0,120
1,note_on,72,51,0
1,note_on,72,0,60
1,note_on,78,57,300
1,note_on,78,0,120
1,note_on,72,51,0
1,note_on,72,0,60
1,note_on,73,51,180
1,note_on,73,0,120
1,note_on,75,54,0
1,note_on,75,0,120
1,note_on,72,51,0
1,note_on,72,0,60
1,note_on,78,57,300
1,note_on,78,0,120
1,note_on,72,51,0
1,note_on,72,0,60
1,note_on,73,51,180
1,note_on,73,0,120
1,note_on,75,54,0
1,note_on,75,0,120
1,note_on,72,51,0
1,note_on,72,0,60
1,note_on,78,60,300
1,note_on,78,0,120
1,note_on,72,53,0
1,note_on,72,0,60
1,note_on,73,65,180
1,note_on,73,0,120
1,note_on,75,71,0
1,note_on,75,0,120
1,note_on,84,64,0
1,note_on,84,0,60
1,note_on,84,61,300
1,note_on,73,57,120
1,note_on,73,0,60
1,note_on,84,0,60
1,note_on,75,49,120
1,note_on,75,0,120
1,note_on,82,52,0
1,note_on,77,52,0
1,note_on,77,0,120
1,note_on,73,49,0
1,note_on,73,0,60
1,note_on,82,0,60
1,note_on,73,69,240
1,note_on,85,82,0
1,note_on,85,0,120
1,note_on,73,0,0
1,note_on,84,75,0
1,note_on,79,63,0
1,note_on,79,0,60
1,note_on,84,0,0
1,note_on,73,61,180
1,note_on,82,72,0
1,note_on,82,0,120
1,note_on,73,0,0
1,note_on,81,78,0
1,note_on,77,64,0
1,note_on,77,0,120
1,note_on,81,0,0
1,note_on,72,57,0
1,note_on,84,68,0
1,note_on,84,0,60
1,note_on,72,0,0
1,note_on,66,46,300
1,note_on,78,55,0
1,note_on,78,0,120
1,note_on,66,0,0
1,note_on,77,50,0
1,note_on,72,42,0
1,note_on,72,0,60
1,note_on,77,0,0
1,note_on,66,40,180
1,note_on,75,49,0
1,note_on,75,0,120
1,note_on,66,0,0
1,note_on,73,52,0
1,note_on,70,44,0
1,note_on,70,0,120
1,note_on,73,0,0
1,note_on,65,40,0
1,note_on,77,49,0
1,note_on,77,0,60
1,note_on,65,0,0
1,note_on,73,69,300
1,note_on,85,82,0
1,note_on,85,0,120
1,note_on,73,0,0
1,note_on,84,75,0
1,note_on,79,63,0
1,note_on,79,0,60
1,note_on,84,0,0
1,note_on,73,61,180
1,note_on,82,72,0
1,note_on,82,0,120
1,note_on,73,0,0
1,note_on,81,78,0
1,note_on,77,64,0
1,note_on,77,0,120
1,note_on,81,0,0
1,note_on,72,57,0
1,note_on,84,68,0
1,note_on,84,0,60
1,note_on,72,0,0
1,note_on,66,46,300
1,note_on,78,55,0
1,note_on,78,0,120
1,note_on,66,0,0
1,note_on,77,50,0
1,note_on,72,42,0
1,note_on,72,0,60
1,note_on,77,0,0
1,note_on,66,40,180
1,note_on,75,49,0
1,note_on,75,0,120
1,note_on,66,0,0
1,note_on,74,52,0
1,note_on,70,44,0
1,note_on,70,0,120
1,note_on,74,0,0
1,note_on,73,40,0
1,note_on,65,40,0
1,note_on,77,49,0
1,note_on,77,0,60
1,note_on,65,0,0
1,note_on,73,0,0
1,note_on,82,75,300
1,note_on,77,75,0
1,note_on,89,89,0
1,note_on,89,0,120
1,note_on,77,0,0
1,note_on,82,0,0
1,note_on,88,83,0
1,note_on,76,70,0
1,note_on,76,0,60
1,note_on,88,0,0
1,note_on,73,62,180
1,note_on,85,75,0
1,note_on,85,0,120
1,note_on,73,0,0
1,note_on,75,68,0
1,note_on,84,80,0
1,note_on,72,68,0
1,note_on,72,0,120
1,note_on,84,0,0
1,note_on,75,0,0
1,note_on,70,62,0
1,note_on,82,75,0
1,note_on,82,0,60
1,note_on,70,0,0
1,note_on,70,68,300
1,note_on,82,80,0
1,note_on,82,0,120
1,note_on,70,0,0
1,note_on,80,73,0
1,note_on,76,61,0
1,note_on,76,0,60
1,note_on,80,0,0
1,note_on,67,57,180
1,note_on,79,68,0
1,note_on,79,0,120
1,note_on,67,0,0
1,note_on,75,59,0
1,note_on,78,69,0
1,note_on,78,0,120
1,note_on,75,0,0
1,note_on,66,53,0
1,note_on,72,62,0
1,note_on,72,0,60
1,note_on,66,0,0
1,note_on,68,57,300
1,note_on,80,68,0
1,note_on,80,0,120
1,note_on,68,0,0
1,note_on,79,62,0
1,note_on,74,52,0
1,note_on,74,0,60
1,note_on,79,0,0
1,note_on,65,51,180
1,note_on,77,61,0
1,note_on,77,0,120
1,note_on,65,0,0
1,note_on,72,53,0
1,note_on,75,63,0
1,note_on,75,0,120
1,note_on,72,0,0
1,note_on,63,44,0
1,note_on,67,52,0
1,note_on,67,0,60
1,note_on,63,0,0
1,note_on,72,57,300
1,note_on,75,67,0
1,note_on,75,0,120
1,note_on,72,0,0
1,note_on,66,59,0
1,note_on,63,49,0
1,note_on,63,0,60
1,note_on,66,0,0
1,note_on,72,53,300
1,note_on,75,62,0
1,note_on,75,0,120
1,note_on,72,0,0
1,note_on,63,46,0
1,note_on,65,56,0
1,note_on,65,0,60
1,note_on,63,0,0
1,note_on,73,68,300
1,note_on,73,0,120
1,note_on,61,40,0
1,note_on,65,40,0
1,note_on,70,59,0
1,note_on,70,0,120
1,note_on,65,0,0
1,note_on,61,0,0
1,note_on,72,67,120
1,note_on,72,0,120
1,note_on,73,68,0
1,note_on,73,0,120
1,note_on,61,40,0
1,note_on,65,40,0
1,note_on,70,60,0
1,note_on,70,0,120
1,note_on,65,0,0
1,note_on,61,0,0
1,note_on,73,68,240
1,note_on,73,0,120
1,note_on,61,40,0
1,note_on,65,40,0
1,note_on,70,60,0
1,note_on,70,0,120
1,note_on,65,0,0
1,note_on,61,0,0
1,note_on,72,68,120
1,note_on,72,0,120
1,note_on,73,68,0
1,note_on,73,0,120
1,note_on,61,40,0
1,note_on,65,40,0
1,note_on,70,60,0
1,note_on,70,0,120
1,note_on,65,0,0
1,note_on,61,0,0
1,note_on,73,68,240
1,note_on,73,0,120
1,note_on,61,46,0
1,note_on,65,46,0
1,note_on,70,67,0
1,note_on,70,0,120
1,note_on,65,0,0
1,note_on,61,0,0
1,note_on,72,73,120
1,note_on,72,0,120
1,note_on,73,84,0
1,note_on,73,0,120
1,note_on,70,52,0
1,note_on,77,52,0
1,note_on,82,76,0
1,note_on,82,0,120
1,note_on,77,0,0
1,note_on,70,0,0
1,note_on,81,76,240
1,note_on,81,0,120
1,note_on,69,46,0
1,note_on,72,67,0
1,note_on,72,0,120
1,note_on,69,0,0
1,note_on,73,67,120
1,note_on,73,0,120
1,note_on,75,68,0
1,note_on,75,0,120
1,note_on,66,40,0
1,note_on,69,40,0
1,note_on,72,60,0
1,note_on,72,0,120
1,note_on,69,0,0
1,note_on,66,0,0
1,note_on,78,71,240
1,note_on,78,0,120
1,note_on,66,40,0
1,note_on,69,40,0
1,note_on,72,59,0
1,note_on,72,0,120
1,note_on,69,0,0
1,note_on,66,0,0
1,note_on,73,67,120
1,note_on,73,0,120
1,note_on,75,68,0
1,note_on,75,0,120
1,note_on,66,40,0
1,note_on,69,40,0
1,note_on,72,60,0
1,note_on,72,0,120
1,note_on,69,0,0
1,note_on,66,0,0
1,note_on,78,71,240
1,note_on,78,0,120
1,note_on,66,40,0
1,note_on,69,40,0
1,note_on,72,59,0
1,note_on,72,0,120
1,note_on,69,0,0
1,note_on,66,0,0
1,note_on,73,67,120
1,note_on,73,0,120
1,note_on,75,68,0
1,note_on,75,0,120
1,note_on,66,40,0
1,note_on,69,40,0
1,note_on,72,60,0
1,note_on,72,0,120
1,note_on,69,0,0
1,note_on,66,0,0
1,note_on,78,74,240
1,note_on,78,0,120
1,note_on,66,42,0
1,note_on,69,42,0
1,note_on,72,63,0
1,note_on,72,0,120
1,note_on,69,0,0
1,note_on,66,0,0
1,note_on,73,82,120
1,note_on,73,0,120
1,note_on,75,88,0
1,note_on,75,0,120
1,note_on,72,54,0
1,note_on,78,54,0
1,note_on,84,78,0
1,note_on,84,0,120
1,note_on,78,0,0
1,note_on,72,0,0
1,note_on,84,73,240
1,note_on,84,0,120
1,note_on,72,50,0
1,note_on,73,72,0
1,note_on,73,0,120
1,note_on,72,0,0
1,note_on,75,64,120
1,note_on,75,0,120
1,note_on,77,69,0
1,note_on,77,0,120
1,note_on,70,44,0
1,note_on,82,69,0
1,note_on,73,44,0
1,note_on,73,0,120
1,note_on,82,0,0
1,note_on,70,0,0
1,note_on,85,85,240
1,note_on,85,0,120
1,note_on,73,71,0
1,note_on,84,84,0
1,note_on,79,71,0
1,note_on,79,0,120
1,note_on,84,0,0
1,note_on,73,0,0
1,note_on,82,80,120
1,note_on,82,0,120
1,note_on,81,86,0
1,note_on,81,0,120
1,note_on,77,67,0
1,note_on,72,67,0
1,note_on,84,80,0
1,note_on,84,0,120
1,note_on,72,0,0
1,note_on,77,0,0
1,note_on,78,67,240
1,note_on,78,0,120
1,note_on,66,55,0
1,note_on,77,66,0
1,note_on,72,55,0
1,note_on,72,0,120
1,note_on,77,0,0
1,note_on,66,0,0
1,note_on,75,64,120
1,note_on,75,0,120
1,note_on,74,69,0
1,note_on,74,0,120
1,note_on,70,53,0
1,note_on,73,53,0
1,note_on,65,53,0
1,note_on,77,64,0
1,note_on,77,0,120
1,note_on,70,0,0
1,note_on,73,0,0
1,note_on,65,0,0
1,note_on,85,85,240
1,note_on,85,0,120
1,note_on,73,71,0
1,note_on,84,84,0
1,note_on,79,71,0
1,note_on,79,0,120
1,note_on,84,0,0
1,note_on,73,0,0
1,note_on,82,80,120
1,note_on,82,0,120
1,note_on,81,86,0
1,note_on,81,0,120
1,note_on,77,67,0
1,note_on,72,67,0
1,note_on,84,80,0
1,note_on,84,0,120
1,note_on,72,0,0
1,note_on,77,0,0
1,note_on,83,84,240
1,note_on,83,0,120
1,note_on,71,65,0
1,note_on,82,77,0
1,note_on,77,65,0
1,note_on,77,0,120
1,note_on,82,0,0
1,note_on,71,0,0
1,note_on,80,80,120
1,note_on,80,0,120
1,note_on,79,86,0
1,note_on,79,0,120
1,note_on,78,63,0
1,note_on,70,63,0
1,note_on,82,75,0
1,note_on,82,0,120
1,note_on,70,0,0
1,note_on,78,0,0
1,note_on,78,83,240
1,note_on,69,83,0
1,note_on,81,99,0
1,note_on,81,0,240
1,note_on,69,0,0
1,note_on,70,66,0
1,note_on,82,79,0
1,note_on,82,0,240
1,note_on,70,0,0
1,note_on,69,75,0
1,note_on,81,89,0
1,note_on,81,0,240
1,note_on,69,0,0
1,note_on,78,0,0
1,note_on,70,66,0
1,note_on,77,66,0
1,note_on,82,79,0
1,note_on,82,0,240
1,note_on,77,0,0
1,note_on,70,0,0
1,note_on,69,78,0
1,note_on,77,78,0
1,note_on,81,92,0
1,note_on,81,0,240
1,note_on,77,0,0
1,note_on,69,0,0
1,note_on,75,67,0
1,note_on,70,67,0
1,note_on,82,80,0
1,note_on,82,0,240
1,note_on,70,0,0
1,note_on,69,74,0
1,note_on,81,89,0
1,note_on,81,0,240
1,note_on,69,0,0
1,note_on,75,0,0
1,note_on,70,67,0
1,note_on,73,67,0
1,note_on,82,80,0
1,note_on,82,0,240
1,note_on,73,0,0
1,note_on,70,0,0
1,note_on,61,79,0
1,note_on,66,84,0
1,note_on,73,100,0
1,note_on,73,0,120
1,note_on,66,0,0
1,note_on,61,0,0
1,note_on,60,66,120
1,note_on,66,73,0
1,note_on,72,86,0
1,note_on,72,0,120
1,note_on,66,0,0
1,note_on,60,0,0
1,note_on,56,56,360
1,note_on,61,56,0
1,note_on,66,58,0
1,note_on,70,66,0
1,note_on,70,0,240
1,note_on,56,0,0
1,note_on,61,0,0
1,note_on,66,0,0
1,note_on,56,58,0
1,note_on,62,58,0
1,note_on,66,56,0
1,note_on,70,68,0
1,note_on,70,0,480
1,note_on,56,0,0
1,note_on,62,0,0
1,note_on,66,0,0
1,note_on,56,53,0
1,note_on,63,53,0
1,note_on,66,62,0
1,note_on,68,62,0
1,note_on,68,0,360
1,note_on,56,0,0
1,note_on,63,0,0
1,note_on,66,0,0
1,note_on,53,49,0
1,note_on,53,0,120
1,note_on,53,41,0
1,note_on,61,41,0
1,note_on,68,49,0
1,note_on,68,0,960
1,note_on,61,0,0
1,note_on,53,0,0
1,note_on,56,41,0
1,note_on,61,41,0
1,note_on,65,49,0
1,note_on,65,0,480
1,note_on,61,0,0
1,note_on,56,0,0
1,note_on,58,37,0
1,note_on,63,37,0
1,note_on,66,44,0
1,note_on,66,0,480
1,note_on,63,0,0
1,note_on,58,0,0
1,note_on,54,34,0
1,note_on,60,36,0
1,note_on,65,47,0
1,note_on,65,0,960
1,note_on,63,41,0
1,note_on,53,41,840
1,note_on,61,41,60
1,note_on,63,0,60
1,note_on,54,0,0
1,note_on,60,0,0
1,note_on,68,49,0
1,note_on,68,0,480
1,note_on,53,0,0
1,note_on,56,41,0
1,note_on,65,49,0
1,note_on,65,0,480
1,note_on,56,0,0
1,note_on,61,0,0
1,note_on,58,41,0
1,note_on,61,41,0
1,note_on,66,49,0
1,note_on,66,0,240
1,note_on,58,0,0
1,note_on,56,39,0
1,note_on,65,47,0
1,note_on,65,0,240
1,note_on,56,0,0
1,note_on,61,0,0
1,note_on,63,41,0
1,note_on,60,37,0
1,note_on,68,44,0
1,note_on,68,0,240
1,note_on,60,0,0
1,note_on,58,35,0
1,note_on,66,41,0
1,note_on,66,0,240
1,note_on,58,0,0
1,note_on,63,0,0
1,note_on,54,31,0
1,note_on,60,36,0
1,note_on,65,45,0
1,note_on,65,0,960
1,note_on,63,41,0
1,note_on,63,0,960
1,note_on,60,0,0
1,note_on,54,0,0
1,note_on,61,40,0
1,note_on,53,41,0
1,note_on,68,53,0
1,note_on,68,0,480
1,note_on,53,0,0
1,note_on,64,44,0
1,note_on,70,51,0
1,note_on,70,0,480
1,note_on,64,0,0
1,note_on,61,0,0
1,note_on,63,44,0
1,note_on,72,52,0
1,note_on,72,0,480
1,note_on,63,0,0
1,note_on,73,58,0
1,note_on,66,49,0
1,note_on,73,0,360
1,note_on,72,53,0
1,note_on,75,60,0
1,note_on,75,0,120
1,note_on,72,0,0
1,note_on,66,0,0
1,note_on,65,43,0
1,note_on,73,46,0
1,note_on,77,61,0
1,note_on,77,0,480
1,note_on,73,0,0
1,note_on,65,0,0
1,note_on,61,44,0
1,note_on,64,44,0
1,note_on,70,51,0
1,note_on,70,0,480
1,note_on,64,0,0
1,note_on,61,0,0
1,note_on,60,44,0
1,note_on,63,44,0
1,note_on,72,52,0
1,note_on,72,0,420
1,note_on,60,0,0
1,note_on,58,56,0
1,note_on,73,58,60
1,note_on,73,0,360
1,note_on,75,60,0
1,note_on,75,0,120
1,note_on,58,0,0
1,note_on,63,0,0
1,note_on,65,53,0
1,note_on,72,53,0
1,note_on,77,63,0
1,note_on,77,0,480
1,note_on,65,0,0
1,note_on,65,53,0
1,note_on,75,60,0
1,note_on,75,0,480
1,note_on,72,0,0
1,note_on,61,53,0
1,note_on,70,63,0
1,note_on,73,63,0
1,note_on,73,0,480
1,note_on,65,0,0
1,note_on,61,0,0
1,note_on,70,0,0
1,note_on,64,53,0
1,note_on,68,53,0
1,note_on,72,63,0
1,note_on,72,0,360
1,note_on,68,0,0
1,note_on,64,0,0
1,note_on,65,57,0
1,note_on,70,57,0
1,note_on,70,0,120
1,note_on,65,0,0
1,note_on,59,51,0
1,note_on,65,56,0
1,note_on,68,61,0
1,note_on,68,0,480
1,note_on,65,0,0
1,note_on,59,0,0
1,note_on,54,49,0
1,note_on,58,49,0
1,note_on,63,59,0
1,note_on,66,59,0
1,note_on,66,0,360
1,note_on,54,0,0
1,note_on,58,0,0
1,note_on,63,0,0
1,note_on,56,47,0
1,note_on,61,56,0
1,note_on,65,56,0
1,note_on,65,0,120
1,note_on,61,0,0
1,note_on,56,0,0
1,note_on,63,59,0
1,note_on,58,49,0
1,note_on,61,59,0
1,note_on,61,0,480
1,note_on,58,0,0
1,note_on,54,47,0
1,note_on,60,53,0
1,note_on,63,0,240
1,note_on,64,60,0
1,note_on,64,0,120
1,note_on,60,0,0
1,note_on,54,0,0
1,note_on,65,55,0
1,note_on,73,60,60
1,note_on,80,72,60
1,note_on,80,0,960
1,note_on,73,0,0
1,note_on,65,0,0
1,note_on,68,49,0
1,note_on,73,49,0
1,note_on,77,60,0
1,note_on,77,0,480
1,note_on,73,0,0
1,note_on,68,0,0
1,note_on,65,34,0
1,note_on,68,39,0
1,note_on,68,0,240
1,note_on,65,0,0
1,note_on,70,41,0
1,note_on,75,41,0
1,note_on,78,55,0
1,note_on,78,0,240
1,note_on,75,0,0
1,note_on,70,0,0
1,note_on,77,68,0
1,note_on,66,33,0
1,note_on,72,42,0
1,note_on,77,0,720
1,note_on,75,55,0
1,note_on,75,0,240
1,note_on,72,0,0
1,note_on,66,0,0
1,note_on,70,58,0
1,note_on,70,0,240
1,note_on,68,52,0
1,note_on,68,0,240
1,note_on,61,61,0
1,note_on,61,0,240
1,note_on,63,55,0
1,note_on,63,0,120
1,note_on,65,62,0
1,note_on,65,0,120
1,note_on,65,55,0
1,note_on,73,57,0
1,note_on,80,68,0
1,note_on,80,0,480
1,note_on,65,0,0
1,note_on,68,49,0
1,note_on,77,62,0
1,note_on,77,0,480
1,note_on,68,0,0
1,note_on,73,0,0
1,note_on,73,57,0
1,note_on,70,55,0
1,note_on,78,66,0
1,note_on,78,0,240
1,note_on,70,0,0
1,note_on,68,46,0
1,note_on,77,55,0
1,note_on,77,0,240
1,note_on,68,0,0
1,note_on,73,0,0
1,note_on,68,48,0
1,note_on,77,57,0
1,note_on,77,0,160
1,note_on,68,0,0
1,note_on,72,46,0
1,note_on,80,55,0
1,note_on,80,0,160
1,note_on,72,0,0
1,note_on,70,46,0
1,note_on,78,55,0
1,note_on,78,0,160
1,note_on,70,0,0
1,note_on,77,61,0
1,note_on,66,32,0
1,note_on,72,36,0
1,note_on,77,0,720
1,note_on,75,60,0
1,note_on,75,0,240
1,note_on,72,0,0
1,note_on,66,0,0
1,note_on,70,60,0
1,note_on,70,0,160
1,note_on,68,51,0
1,note_on,68,0,160
1,note_on,70,51,0
1,note_on,70,0,160
1,note_on,68,58,0
1,note_on,68,0,160
1,note_on,61,53,0
1,note_on,61,0,160
1,note_on,63,53,0
1,note_on,63,0,160
1,note_on,68,61,0
1,note_on,73,58,0
1,note_on,80,73,0
1,note_on,68,0,480
1,note_on,70,57,0
1,note_on,82,68,0
1,note_on,82,0,480
1,note_on,73,0,0
1,note_on,80,0,0
1,note_on,70,0,0
1,note_on,80,61,0
1,note_on,78,61,0
1,note_on,72,61,0
1,note_on,84,73,0
1,note_on,84,0,480
1,note_on,72,0,0
1,note_on,73,68,0
1,note_on,85,75,0
1,note_on,85,0,360
1,note_on,73,0,0
1,note_on,75,70,0
1,note_on,87,73,0
1,note_on,87,0,120
1,note_on,80,0,0
1,note_on,78,0,0
1,note_on,75,0,0
1,note_on,80,66,0
1,note_on,77,66,0
1,note_on,89,78,0
1,note_on,89,0,480
1,note_on,82,73,0
1,note_on,70,61,0
1,note_on,70,0,480
1,note_on,80,0,0
1,note_on,77,0,0
1,note_on,82,0,0
1,note_on,72,66,0
1,note_on,84,78,0
1,note_on,80,66,0
1,note_on,78,66,0
1,note_on,78,0,480
1,note_on,72,0,0
1,note_on,84,0,0
1,note_on,80,0,0
1,note_on,85,79,0
1,note_on,73,66,0
1,note_on,73,0,360
1,note_on,85,0,0
1,note_on,75,64,0
1,note_on,87,77,0
1,note_on,87,0,120
1,note_on,75,0,0
1,note_on,84,66,0
1,note_on,87,74,0
1,note_on,77,70,0
1,note_on,89,81,0
1,note_on,89,0,480
1,note_on,77,0,0
1,note_on,78,66,0
1,note_on,90,78,0
1,note_on,87,0,480
1,note_on,84,0,0
1,note_on,82,74,0
1,note_on,85,74,0
1,note_on,78,0,240
1,note_on,90,0,0
1,note_on,77,64,0
1,note_on,89,77,0
1,note_on,89,0,240
1,note_on,77,0,0
1,note_on,76,63,0
1,note_on,88,75,0
1,note_on,88,0,240
1,note_on,76,0,0
1,note_on,77,63,0
1,note_on,89,75,0
1,note_on,89,0,240
1,note_on,85,0,0
1,note_on,82,0,0
1,note_on,77,0,0
1,note_on,87,57,0
1,note_on,90,71,0
1,note_on,92,85,0
1,note_on,80,72,0
1,note_on,80,0,480
1,note_on,92,0,0
1,note_on,82,70,0
1,note_on,94,84,0
1,note_on,90,0,480
1,note_on,87,0,0
1,note_on,89,81,0
1,note_on,82,0,240
1,note_on,94,0,0
1,note_on,80,67,0
1,note_on,92,80,0
1,note_on,92,0,240
1,note_on,80,0,0
1,note_on,89,0,0
1,note_on,78,70,0
1,note_on,90,84,0
1,note_on,82,62,0
1,note_on,90,0,360
1,note_on,78,0,0
1,note_on,89,78,0
1,note_on,77,66,0
1,note_on,77,0,120
1,note_on,89,0,0
1,note_on,82,0,0
1,note_on,82,73,0
1,note_on,80,73,0
1,note_on,92,86,0
1,note_on,92,0,240
1,note_on,80,0,0
1,note_on,78,60,0
1,note_on,90,72,0
1,note_on,90,0,240
1,note_on,78,0,0
1,note_on,82,0,0
1,note_on,82,53,0
1,note_on,77,59,0
1,note_on,89,72,0
1,note_on,89,0,240
1,note_on,77,0,0
1,note_on,74,60,0
1,note_on,86,72,0
1,note_on,86,0,240
1,note_on,74,0,0
1,note_on,82,0,0
1,note_on,82,61,0
1,note_on,89,81,0
1,note_on,77,69,0
1,note_on,77,0,240
1,note_on,89,0,0
1,note_on,87,71,0
1,note_on,75,60,0
1,note_on,75,0,240
1,note_on,87,0,0
1,note_on,82,0,0
1,note_on,76,53,0
1,note_on,82,72,0
1,note_on,70,61,0
1,note_on,70,0,240
1,note_on,82,0,0
1,note_on,85,67,0
1,note_on,73,56,0
1,note_on,73,0,240
1,note_on,85,0,0
1,note_on,76,0,0
1,note_on,77,64,0
1,note_on,70,66,0
1,note_on,82,80,0
1,note_on,82,0,240
1,note_on,70,0,0
1,note_on,80,73,0
1,note_on,68,61,0
1,note_on,68,0,240
1,note_on,80,0,0
1,note_on,77,0,0
1,note_on,73,73,0
1,note_on,66,61,0
1,note_on,61,61,0
1,note_on,61,0,240
1,note_on,66,0,0
1,note_on,66,62,0
1,note_on,78,74,0
1,note_on,78,0,240
1,note_on,66,0,0
1,note_on,73,0,0
1,note_on,61,67,0
1,note_on,66,67,0
1,note_on,73,67,0
1,note_on,75,80,0
1,note_on,75,0,480
1,note_on,61,0,0
1,note_on,66,0,0
1,note_on,73,0,0
1,note_on,65,59,0
1,note_on,77,75,0
1,note_on,72,51,0
1,note_on,77,0,240
1,note_on,65,0,0
1,note_on,66,60,0
1,note_on,78,70,0
1,note_on,78,0,240
1,note_on,66,0,0
1,note_on,72,0,0
1,note_on,73,46,0
1,note_on,70,60,0
1,note_on,82,77,0
1,note_on,82,0,240
1,note_on,70,0,0
1,note_on,69,50,0
1,note_on,81,70,0
1,note_on,81,0,240
1,note_on,69,0,0
1,note_on,73,0,0
1,note_on,73,53,0
1,note_on,68,64,0
1,note_on,80,77,0
1,note_on,80,0,160
1,note_on,68,0,0
1,note_on,73,0,0
1,note_on,73,70,0
1,note_on,61,60,0
1,note_on,61,0,160
1,note_on,66,60,0
1,note_on,78,70,0
1,note_on,78,0,160
1,note_on,66,0,0
1,note_on,73,0,0
1,note_on,63,66,0
1,note_on,75,80,0
1,note_on,66,66,0
1,note_on,73,66,0
1,note_on,75,0,240
1,note_on,63,0,0
1,note_on,65,57,0
1,note_on,77,68,0
1,note_on,77,0,120
1,note_on,65,0,0
1,note_on,63,53,0
1,note_on,75,63,0
1,note_on,75,0,120
1,note_on,73,0,0
1,note_on,66,0,0
1,note_on,63,0,0
1,note_on,72,61,0
1,note_on,62,61,0
1,note_on,74,73,0
1,note_on,74,0,120
1,note_on,62,0,0
1,note_on,63,57,0
1,note_on,75,68,0
1,note_on,75,0,120
1,note_on,63,0,0
1,note_on,65,61,0
1,note_on,77,73,0
1,note_on,77,0,120
1,note_on,65,0,0
1,note_on,66,58,0
1,note_on,78,69,0
1,note_on,78,0,120
1,note_on,66,0,0
1,note_on,72,0,0
1,note_on,73,70,0
1,note_on,67,70,0
1,note_on,79,83,0
1,note_on,79,0,160
1,note_on,67,0,0
1,note_on,68,66,0
1,note_on,80,79,0
1,note_on,80,0,160
1,note_on,68,0,0
1,note_on,73,0,0
1,note_on,77,69,0
1,note_on,89,77,0
1,note_on,89,0,160
1,note_on,77,0,0
1,note_on,78,70,0
1,note_on,75,70,0
1,note_on,87,82,0
1,note_on,87,0,160
1,note_on,75,0,0
1,note_on,73,62,0
1,note_on,85,73,0
1,note_on,85,0,160
1,note_on,73,0,0
1,note_on,78,0,0
1,note_on,73,64,0
1,note_on,78,80,0
1,note_on,66,68,0
1,note_on,66,0,160
1,note_on,78,0,0
1,note_on,73,0,0
1,note_on,75,82,0
1,note_on,63,69,0
1,note_on,68,69,0
1,note_on,73,69,0
1,note_on,73,0,480
1,note_on,63,0,0
1,note_on,66,61,0
1,note_on,72,61,0
1,note_on,72,0,240
1,note_on,66,0,0
1,note_on,68,0,0
1,note_on,75,0,180
1,note_on,73,73,0
1,note_on,73,0,60
1,note_on,65,72,0
1,note_on,73,85,0
1,note_on,73,0,160
1,note_on,65,0,0
1,note_on,63,62,0
1,note_on,70,73,0
1,note_on,70,0,80
1,note_on,63,0,0
1,note_on,70,73,80
1,note_on,63,62,0
1,note_on,63,0,80
1,note_on,70,0,0
1,note_on,63,62,80
1,note_on,70,75,0
1,note_on,70,0,160
1,note_on,63,0,0
1,note_on,68,71,0
1,note_on,68,0,80
1,note_on,72,62,80
1,note_on,78,74,0
1,note_on,78,0,80
1,note_on,72,0,0
1,note_on,72,63,80
1,note_on,78,75,0
1,note_on,78,0,160
1,note_on,72,0,0
1,note_on,73,62,0
1,note_on,77,74,0
1,note_on,77,0,80
1,note_on,73,0,0
1,note_on,75,62,80
1,note_on,82,74,0
1,note_on,82,0,80
1,note_on,75,0,0
1,note_on,82,78,80
1,note_on,75,64,0
1,note_on,75,0,160
1,note_on,82,0,0
1,note_on,80,73,0
1,note_on,80,0,80
1,note_on,90,73,80
1,note_on,84,62,0
1,note_on,84,0,80
1,note_on,90,0,0
1,note_on,84,64,80
1,note_on,90,78,0
1,note_on,90,0,160
1,note_on,84,0,0
1,note_on,85,62,0
1,note_on,89,73,0
1,note_on,89,0,80
1,note_on,85,0,0
1,note_on,82,73,80
1,note_on,75,62,0
1,note_on,75,0,80
1,note_on,82,0,0
1,note_on,75,62,80
1,note_on,82,75,0
1,note_on,82,0,160
1,note_on,75,0,0
1,note_on,80,72,0
1,note_on,80,0,80
1,note_on,72,62,80
1,note_on,78,74,0
1,note_on,78,0,80
1,note_on,72,0,0
1,note_on,78,75,80
1,note_on,72,62,0
1,note_on,72,0,160
1,note_on,78,0,0
1,note_on,73,60,0
1,note_on,77,71,0
1,note_on,77,0,80
1,note_on,73,0,0
1,note_on,70,74,80
1,note_on,63,62,0
1,note_on,63,0,80
1,note_on,70,0,0
1,note_on,63,64,80
1,note_on,70,78,0
1,note_on,70,0,160
1,note_on,63,0,0
1,note_on,68,74,0
1,note_on,68,0,80
1,note_on,60,62,80
1,note_on,66,74,0
1,note_on,66,0,80
1,note_on,60,0,0
1,note_on,60,64,80
1,note_on,66,78,0
1,note_on,66,0,160
1,note_on,60,0,0
1,note_on,65,67,0
1,note_on,61,56,0
1,note_on,61,0,80
1,note_on,65,0,0
1,note_on,69,59,80
1,note_on,64,49,0
1,note_on,64,0,80
1,note_on,69,0,0
1,note_on,69,62,80
1,note_on,64,51,0
1,note_on,64,0,160
1,note_on,69,0,0
1,note_on,63,49,0
1,note_on,68,58,0
1,note_on,68,0,80
1,note_on,63,0,0
1,note_on,72,44,80
1,note_on,78,52,0
1,note_on,78,0,80
1,note_on,72,0,0
1,note_on,72,46,80
1,note_on,78,55,0
1,note_on,78,0,160
1,note_on,72,0,0
1,note_on,73,44,0
1,note_on,77,52,0
1,note_on,77,0,80
1,note_on,73,0,0
1,note_on,76,44,80
1,note_on,81,52,0
1,note_on,81,0,80
1,note_on,76,0,0
1,note_on,81,55,80
1,note_on,76,46,0
1,note_on,76,0,160
1,note_on,81,0,0
1,note_on,75,41,0
1,note_on,80,51,0
1,note_on,80,0,80
1,note_on,75,0,0
1,note_on,84,39,80
1,note_on,90,46,0
1,note_on,90,0,80
1,note_on,84,0,0
1,note_on,84,40,80
1,note_on,90,49,0
1,note_on,90,0,160
1,note_on,84,0,0
1,note_on,85,39,0
1,note_on,89,46,0
1,note_on,89,0,80
1,note_on,85,0,0
1,note_on,81,55,80
1,note_on,76,47,0
1,note_on,76,0,80
1,note_on,81,0,0
1,note_on,76,49,80
1,note_on,81,59,0
1,note_on,81,0,160
1,note_on,76,0,0
1,note_on,80,56,0
1,note_on,75,45,0
1,note_on,75,0,80
1,note_on,80,0,0
1,note_on,72,47,80
1,note_on,78,56,0
1,note_on,78,0,80
1,note_on,72,0,0
1,note_on,72,49,80
1,note_on,78,59,0
1,note_on,78,0,160
1,note_on,72,0,0
1,note_on,73,47,0
1,note_on,77,55,0
1,note_on,77,0,80
1,note_on,73,0,0
1,note_on,69,56,80
1,note_on,64,47,0
1,note_on,64,0,80
1,note_on,69,0,0
1,note_on,64,49,80
1,note_on,69,59,0
1,note_on,69,0,160
1,note_on,64,0,0
1,note_on,68,56,0
1,note_on,63,45,0
1,note_on,63,0,80
1,note_on,68,0,0
1,note_on,63,52,80
1,note_on,60,52,0
1,note_on,66,62,0
1,note_on,66,0,80
1,note_on,60,0,0
1,note_on,63,0,0
1,note_on,63,49,80
1,note_on,60,49,0
1,note_on,66,59,0
1,note_on,66,0,160
1,note_on,60,0,0
1,note_on,63,0,0
1,note_on,64,42,0
1,note_on,60,41,0
1,note_on,67,49,0
1,note_on,67,0,80
1,note_on,60,0,0
1,note_on,64,0,0
1,note_on,62,49,80
1,note_on,66,47,0
1,note_on,72,56,0
1,note_on,72,0,80
1,note_on,66,0,0
1,note_on,62,0,0
1,note_on,66,49,80
1,note_on,72,59,0
1,note_on,62,49,0
1,note_on,62,0,160
1,note_on,72,0,0
1,note_on,66,0,0
1,note_on,62,42,0
1,note_on,67,41,0
1,note_on,71,48,0
1,note_on,71,0,80
1,note_on,67,0,0
1,note_on,62,0,0
1,note_on,65,47,80
1,note_on,67,47,0
1,note_on,71,47,0
1,note_on,77,56,0
1,note_on,77,0,80
1,note_on,65,0,0
1,note_on,67,0,0
1,note_on,71,0,0
1,note_on,65,49,80
1,note_on,67,49,0
1,note_on,77,59,0
1,note_on,71,49,0
1,note_on,71,0,160
1,note_on,65,0,0
1,note_on,67,0,0
1,note_on,77,0,0
1,note_on,67,46,0
1,note_on,72,44,0
1,note_on,76,52,0
1,note_on,76,0,80
1,note_on,72,0,0
1,note_on,67,0,0
1,note_on,84,56,80
1,note_on,74,49,0
1,note_on,78,47,0
1,note_on,72,49,0
1,note_on,72,0,80
1,note_on,84,0,0
1,note_on,74,0,0
1,note_on,78,0,0
1,note_on,72,49,80
1,note_on,74,49,0
1,note_on,78,49,0
1,note_on,84,59,0
1,note_on,84,0,160
1,note_on,72,0,0
1,note_on,74,0,0
1,note_on,78,0,0
1,note_on,79,41,0
1,note_on,83,51,0
1,note_on,71,46,0
1,note_on,71,0,80
1,note_on,83,0,0
1,note_on,79,0,0
1,note_on,77,49,80
1,note_on,79,49,0
1,note_on,83,47,0
1,note_on,89,55,0
1,note_on,89,0,80
1,note_on,77,0,0
1,note_on,79,0,0
1,note_on,83,0,0
1,note_on,77,49,80
1,note_on,79,49,0
1,note_on,83,49,0
1,note_on,89,59,0
1,note_on,89,0,160
1,note_on,77,0,0
1,note_on,79,0,0
1,note_on,83,0,0
1,note_on,74,63,0
1,note_on,70,45,0
1,note_on,70,0,160
1,note_on,74,0,0
1,note_on,71,66,0
1,note_on,80,80,0
1,note_on,80,0,160
1,note_on,71,0,0
1,note_on,73,68,0
1,note_on,77,74,0
1,note_on,77,0,160
1,note_on,73,0,0
1,note_on,74,71,0
1,note_on,83,84,0
1,note_on,83,0,160
1,note_on,74,0,0
1,note_on,76,66,0
1,note_on,80,79,0
1,note_on,80,0,160
1,note_on,76,0,0
1,note_on,77,74,0
1,note_on,86,89,0
1,note_on,86,0,160
1,note_on,77,0,0
1,note_on,83,85,0
1,note_on,79,72,0
1,note_on,79,0,160
1,note_on,83,0,0
1,note_on,89,92,0
1,note_on,80,78,0
1,note_on,80,0,160
1,note_on,89,0,0
1,note_on,82,73,0
1,note_on,86,86,0
1,note_on,86,0,160
1,note_on,82,0,0
1,note_on,83,79,0
1,note_on,92,94,0
1,note_on,92,0,160
1,note_on,83,0,0
1,note_on,83,77,0
1,note_on,95,90,0
1,note_on,95,0,160
1,note_on,83,0,0
1,note_on,84,85,0
1,note_on,96,101,0
1,note_on,96,0,160
1,note_on,84,0,0
1,note_on,60,64,0
1,note_on,67,64,0
1,note_on,72,77,0
1,note_on,72,0,160
1,note_on,67,0,0
1,note_on,60,0,0
1,note_on,67,64,0
1,note_on,60,64,0
1,note_on,72,77,0
1,note_on,72,0,160
1,note_on,60,0,0
1,note_on,67,0,0
1,note_on,60,55,0
1,note_on,68,55,0
1,note_on,72,77,0
1,note_on,72,0,160
1,note_on,68,0,0
1,note_on,60,0,0
1,note_on,60,63,0
1,note_on,68,63,0
1,note_on,72,75,0
1,note_on,72,0,160
1,note_on,68,0,0
1,note_on,60,0,0
1,note_on,60,63,0
1,note_on,68,63,0
1,note_on,72,75,0
1,note_on,72,0,160
1,note_on,68,0,0
1,note_on,60,0,0
1,note_on,72,80,0
1,note_on,60,57,0
1,note_on,68,57,0
1,note_on,68,0,160
1,note_on,60,0,0
1,note_on,72,0,0
1,note_on,60,64,0
1,note_on,68,64,0
1,note_on,72,77,0
1,note_on,72,0,160
1,note_on,68,0,0
1,note_on,60,0,0
1,note_on,60,64,0
1,note_on,68,64,0
1,note_on,72,77,0
1,note_on,72,0,160
1,note_on,68,0,0
1,note_on,60,0,0
1,note_on,60,68,0
1,note_on,68,68,0
1,note_on,72,81,0
1,note_on,72,0,160
1,note_on,68,0,0
1,note_on,60,0,0
1,note_on,72,79,0
1,note_on,60,67,0
1,note_on,68,67,0
1,note_on,68,0,160
1,note_on,60,0,0
1,note_on,72,0,0
1,note_on,60,67,0
1,note_on,68,67,0
1,note_on,72,79,0
1,note_on,72,0,160
1,note_on,68,0,0
1,note_on,60,0,0
1,note_on,60,67,0
1,note_on,68,67,0
1,note_on,72,80,0
1,note_on,72,0,80
1,note_on,68,0,0
1,note_on,60,0,0
1,note_on,60,68,80
1,note_on,69,68,0
1,note_on,72,81,0
1,note_on,72,0,80
1,note_on,69,0,0
1,note_on,60,0,0
1,note_on,60,69,80
1,note_on,69,69,0
1,note_on,72,82,0
1,note_on,72,0,80
1,note_on,69,0,0
1,note_on,60,0,0
1,note_on,69,71,80
1,note_on,60,71,0
1,note_on,72,83,0
1,note_on,72,0,80
1,note_on,60,0,0
1,note_on,69,0,0
1,note_on,61,71,80
1,note_on,69,71,0
1,note_on,73,84,0
1,note_on,73,0,80
1,note_on,69,0,0
1,note_on,61,0,0
1,note_on,61,71,80
1,note_on,69,71,0
1,note_on,73,85,0
1,note_on,73,0,80
1,note_on,69,0,0
1,note_on,61,0,0
1,note_on,61,72,80
1,note_on,69,72,0
1,note_on,73,86,0
1,note_on,73,0,80
1,note_on,69,0,0
1,note_on,61,0,0
1,note_on,73,88,80
1,note_on,61,73,0
1,note_on,69,73,0
1,note_on,69,0,80
1,note_on,61,0,0
1,note_on,73,0,0
1,note_on,69,75,80
1,note_on,73,90,0
1,note_on,61,75,0
1,note_on,61,0,80
1,note_on,73,0,0
1,note_on,69,0,0
1,note_on,61,77,80
1,note_on,73,91,0
1,note_on,69,77,0
1,note_on,69,0,80
1,note_on,73,0,0
1,note_on,61,0,0
1,note_on,61,78,80
1,note_on,73,92,0
1,note_on,68,78,0
1,note_on,68,0,80
1,note_on,73,0,0
1,note_on,61,0,0
1,note_on,61,79,80
1,note_on,67,79,0
1,note_on,73,93,0
1,note_on,73,0,80
1,note_on,67,0,0
1,note_on,61,0,0
1,note_on,61,73,80
1,note_on,73,102,0
1,note_on,68,86,0
1,note_on,68,0,80
1,note_on,73,0,0
1,note_on,61,0,0
1,note_on,65,68,80
1,note_on,68,80,0
1,note_on,77,95,0
1,note_on,77,0,160
1,note_on,68,0,0
1,note_on,65,0,0
1,note_on,65,68,0
1,note_on,68,80,0
1,note_on,77,95,0
1,note_on,77,0,160
1,note_on,68,0,0
1,note_on,65,0,0
1,note_on,65,72,0
1,note_on,68,85,0
1,note_on,77,101,0
1,note_on,77,0,160
1,note_on,68,0,0
1,note_on,65,0,0
1,note_on,63,68,0
1,note_on,75,95,0
1,note_on,75,0,160
1,note_on,63,0,0
1,note_on,73,95,0
1,note_on,61,68,0
1,note_on,61,0,160
1,note_on,73,0,0
1,note_on,65,68,160
1,note_on,70,80,0
1,note_on,77,95,0
1,note_on,77,0,160
1,note_on,70,0,0
1,note_on,65,0,0
1,note_on,65,68,0
1,note_on,70,80,0
1,note_on,77,95,0
1,note_on,77,0,160
1,note_on,70,0,0
1,note_on,65,0,0
1,note_on,65,72,0
1,note_on,70,85,0
1,note_on,77,101,0
1,note_on,77,0,160
1,note_on,70,0,0
1,note_on,65,0,0
1,note_on,63,68,0
1,note_on,75,95,0
1,note_on,75,0,160
1,note_on,63,0,0
1,note_on,73,95,0
1,note_on,61,68,0
1,note_on,61,0,160
1,note_on,73,0,0
1,note_on,65,68,160
1,note_on,68,80,0
1,note_on,77,95,0
1,note_on,77,0,160
1,note_on,68,0,0
1,note_on,65,0,0
1,note_on,65,68,0
1,note_on,68,80,0
1,note_on,77,95,0
1,note_on,77,0,160
1,note_on,68,0,0
1,note_on,65,0,0
1,note_on,65,72,0
1,note_on,68,85,0
1,note_on,77,101,0
1,note_on,77,0,160
1,note_on,68,0,0
1,note_on,65,0,0
1,note_on,63,68,0
1,note_on,75,95,0
1,note_on,75,0,160
1,note_on,63,0,0
1,note_on,73,95,0
1,note_on,61,68,0
1,note_on,61,0,160
1,note_on,73,0,0
1,note_on,65,68,160
1,note_on,67,80,0
1,note_on,77,95,0
1,note_on,77,0,160
1,note_on,67,0,0
1,note_on,65,0,0
1,note_on,65,68,0
1,note_on,67,80,0
1,note_on,77,95,0
1,note_on,77,0,160
1,note_on,67,0,0
1,note_on,65,0,0
1,note_on,65,72,0
1,note_on,67,85,0
1,note_on,77,101,0
1,note_on,77,0,160
1,note_on,67,0,0
1,note_on,65,0,0
1,note_on,63,68,0
1,note_on,75,95,0
1,note_on,75,0,160
1,note_on,63,0,0
1,note_on,73,95,0
1,note_on,61,68,0
1,note_on,61,0,160
1,note_on,73,0,0
1,note_on,51,84,0
1,note_on,55,84,0
1,note_on,63,101,0
1,note_on,61,95,0
1,note_on,61,0,1920
1,note_on,51,0,0
1,note_on,55,0,0
1,note_on,63,0,0
1,note_on,54,80,0
1,note_on,65,95,0
1,note_on,60,80,0
1,note_on,65,0,1860
1,note_on,66,86,0
1,note_on,66,0,60
1,note_on,60,0,0
1,note_on,54,0,0
1,note_on,54,79,0
1,note_on,61,79,0
1,note_on,66,93,0
1,note_on,66,0,960
1,note_on,61,0,0
1,note_on,54,0,0
1,note_on,60,31,1920
1,note_on,62,32,0
1,note_on,69,47,0
1,note_on,69,0,480
1,note_on,70,44,0
1,note_on,70,0,480
1,note_on,60,0,0
1,note_on,59,39,0
1,note_on,71,47,0
1,note_on,71,0,360
1,note_on,62,0,0
1,note_on,62,40,0
1,note_on,62,0,120
1,note_on,62,44,0
1,note_on,62,0,480
1,note_on,59,0,0
1,note_on,62,41,5760
1,note_on,64,41,0
1,note_on,71,49,0
1,note_on,71,0,480
1,note_on,72,47,0
1,note_on,72,0,480
1,note_on,62,0,0
1,note_on,61,41,0
1,note_on,73,49,0
1,note_on,73,0,360
1,note_on,64,0,0
1,note_on,65,44,0
1,note_on,65,0,120
1,note_on,65,47,0
1,note_on,65,0,1440
1,note_on,61,0,0
1,note_on,65,40,0
1,note_on,61,39,0
1,note_on,73,56,0
1,note_on,73,0,360
1,note_on,65,0,0
1,note_on,66,55,0
1,note_on,66,0,120
1,note_on,66,58,0
1,note_on,66,0,480
1,note_on,61,0,0
1,note_on,66,51,0
1,note_on,62,51,0
1,note_on,74,61,0
1,note_on,74,0,360
1,note_on,66,0,0
1,note_on,67,57,0
1,note_on,67,0,120
1,note_on,67,60,0
1,note_on,67,0,480
1,note_on,62,0,0
1,note_on,65,58,0
1,note_on,67,58,0
1,note_on,75,75,0
1,note_on,74,68,720
1,note_on,75,0,10
1,note_on,65,0,230
1,note_on,67,0,0
1,note_on,74,0,0
1,note_on,63,54,0
1,note_on,67,58,0
1,note_on,74,73,0
1,note_on,72,51,360
1,note_on,74,0,10
1,note_on,63,0,110
1,note_on,67,0,0
1,note_on,65,44,0
1,note_on,72,0,360
1,note_on,70,61,0
1,note_on,70,0,120
1,note_on,65,0,0
1,note_on,60,50,0
1,note_on,63,58,0
1,note_on,70,68,0
1,note_on,68,55,360
1,note_on,70,0,10
1,note_on,68,0,110
1,note_on,68,61,0
1,note_on,72,62,160
1,note_on,68,0,10
1,note_on,70,61,150
1,note_on,72,0,10
1,note_on,60,0,150
1,note_on,63,0,0
1,note_on,59,49,0
1,note_on,68,64,0
1,note_on,70,0,10
1,note_on,67,58,470
1,note_on,68,0,10
1,note_on,67,0,230
1,note_on,67,67,0
1,note_on,79,70,0
1,note_on,79,0,240
1,note_on,67,0,0
1,note_on,59,0,0
1,note_on,58,55,0
1,note_on,70,64,0
1,note_on,70,0,120
1,note_on,58,0,0
1,note_on,61,49,0
1,note_on,69,58,0
1,note_on,69,0,120
1,note_on,61,0,0
1,note_on,57,51,120
1,note_on,67,61,0
1,note_on,67,0,120
1,note_on,57,0,0
1,note_on,62,56,0
1,note_on,66,67,0
1,note_on,66,0,120
1,note_on,62,0,0
1,note_on,57,51,0
1,note_on,69,61,0
1,note_on,69,0,120
1,note_on,57,0,0
1,note_on,60,52,120
1,note_on,72,63,0
1,note_on,72,0,120
1,note_on,60,0,0
1,note_on,60,57,0
1,note_on,72,68,0
1,note_on,72,0,120
1,note_on,60,0,0
1,note_on,63,52,0
1,note_on,71,63,0
1,note_on,71,0,120
1,note_on,63,0,0
1,note_on,59,52,120
1,note_on,69,62,0
1,note_on,69,0,120
1,note_on,59,0,0
1,note_on,64,57,0
1,note_on,68,68,0
1,note_on,68,0,120
1,note_on,64,0,0
1,note_on,59,52,0
1,note_on,71,62,0
1,note_on,71,0,120
1,note_on,59,0,0
1,note_on,62,53,120
1,note_on,74,64,0
1,note_on,74,0,120
1,note_on,62,0,0
1,note_on,62,59,0
1,note_on,74,70,0
1,note_on,74,0,120
1,note_on,62,0,0
1,note_on,65,55,0
1,note_on,73,64,0
1,note_on,73,0,120
1,note_on,65,0,0
1,note_on,61,52,120
1,note_on,71,62,0
1,note_on,71,0,120
1,note_on,61,0,0
1,note_on,66,55,0
1,note_on,70,64,0
1,note_on,70,0,160
1,note_on,66,0,0
1,note_on,61,58,0
1,note_on,73,68,0
1,note_on,73,0,160
1,note_on,61,0,0
1,note_on,70,61,0
1,note_on,73,72,0
1,note_on,73,0,160
1,note_on,70,0,0
1,note_on,64,62,0
1,note_on,76,75,0
1,note_on,76,0,160
1,note_on,64,0,0
1,note_on,73,66,0
1,note_on,76,78,0
1,note_on,76,0,160
1,note_on,73,0,0
1,note_on,70,67,0
1,note_on,82,81,0
1,note_on,82,0,160
1,note_on,70,0,0
1,note_on,80,72,0
1,note_on,85,86,0
1,note_on,85,0,160
1,note_on,80,0,0
1,note_on,76,75,0
1,note_on,88,84,0
1,note_on,88,0,160
1,note_on,76,0,0
1,note_on,88,77,0
1,note_on,100,86,0
1,note_on,100,0,160
1,note_on,88,0,0
1,note_on,60,61,0
1,note_on,64,69,0
1,note_on,72,82,0
1,note_on,58,52,720
1,note_on,70,72,0
1,note_on,72,0,10
1,note_on,58,0,230
1,note_on,60,0,0
1,note_on,64,0,0
1,note_on,70,0,0
1,note_on,58,64,0
1,note_on,60,53,0
1,note_on,65,56,0
1,note_on,70,77,0
1,note_on,70,0,480
1,note_on,58,0,0
1,note_on,56,55,0
1,note_on,68,73,0
1,note_on,68,0,360
1,note_on,56,0,0
1,note_on,56,49,0
1,note_on,68,67,0
1,note_on,68,0,120
1,note_on,60,0,0
1,note_on,65,0,0
1,note_on,56,0,0
1,note_on,61,58,0
1,note_on,56,52,0
1,note_on,64,61,0
1,note_on,68,70,0
1,note_on,68,0,360
1,note_on,56,0,0
1,note_on,55,58,0
1,note_on,67,60,0
1,note_on,67,0,120
1,note_on,55,0,0
1,note_on,61,0,0
1,note_on,55,58,0
1,note_on,67,68,0
1,note_on,55,0,117
1,note_on,53,44,43
1,note_on,65,63,0
1,note_on,67,0,10
1,note_on,64,0,150
1,note_on,53,0,0
1,note_on,52,30,0
1,note_on,64,60,0
1,note_on,65,0,10
1,note_on,64,0,150
1,note_on,52,0,0
1,note_on,55,45,0
1,note_on,63,58,0
1,note_on,67,71,0
1,note_on,55,0,480
1,note_on,54,42,0
1,note_on,66,62,0
1,note_on,67,0,10
1,note_on,66,0,230
1,note_on,54,0,0
1,note_on,69,59,0
1,note_on,81,68,0
1,note_on,81,0,240
1,note_on,69,0,0
1,note_on,63,0,0
1,note_on,60,60,0
1,note_on,72,70,0
1,note_on,72,0,120
1,note_on,60,0,0
1,note_on,66,53,0
1,note_on,71,63,0
1,note_on,71,0,120
1,note_on,66,0,0
1,note_on,59,56,120
1,note_on,69,67,0
1,note_on,69,0,120
1,note_on,59,0,0
1,note_on,64,61,0
1,note_on,68,73,0
1,note_on,68,0,120
1,note_on,64,0,0
1,note_on,59,56,0
1,note_on,71,67,0
1,note_on,71,0,120
1,note_on,59,0,0
1,note_on,62,57,120
1,note_on,74,69,0
1,note_on,74,0,120
1,note_on,62,0,0
1,note_on,62,62,0
1,note_on,74,74,0
1,note_on,74,0,120
1,note_on,62,0,0
1,note_on,68,57,0
1,note_on,73,69,0
1,note_on,73,0,120
1,note_on,68,0,0
1,note_on,61,57,120
1,note_on,71,68,0
1,note_on,71,0,120
1,note_on,61,0,0
1,note_on,66,62,0
1,note_on,70,74,0
1,note_on,70,0,120
1,note_on,66,0,0
1,note_on,61,57,0
1,note_on,73,68,0
1,note_on,73,0,120
1,note_on,61,0,0
1,note_on,64,58,120
1,note_on,76,70,0
1,note_on,76,0,120
1,note_on,64,0,0
1,note_on,64,64,0
1,note_on,76,77,0
1,note_on,76,0,120
1,note_on,64,0,0
1,note_on,70,60,0
1,note_on,75,70,0
1,note_on,75,0,120
1,note_on,70,0,0
1,note_on,63,57,120
1,note_on,73,68,0
1,note_on,73,0,120
1,note_on,63,0,0
1,note_on,68,60,0
1,note_on,72,70,0
1,note_on,72,0,160
1,note_on,68,0,0
1,note_on,63,63,0
1,note_on,75,74,0
1,note_on,75,0,160
1,note_on,63,0,0
1,note_on,72,67,0
1,note_on,75,79,0
1,note_on,75,0,160
1,note_on,72,0,0
1,note_on,66,68,0
1,note_on,78,82,0
1,note_on,78,0,160
1,note_on,66,0,0
1,note_on,75,71,0
1,note_on,78,85,0
1,note_on,78,0,160
1,note_on,75,0,0
1,note_on,69,73,0
1,note_on,81,89,0
1,note_on,81,0,160
1,note_on,69,0,0
1,note_on,78,80,0
1,note_on,81,94,0
1,note_on,81,0,160
1,note_on,78,0,0
1,note_on,74,82,0
1,note_on,86,97,0
1,note_on,86,0,160
1,note_on,74,0,0
1,note_on,78,85,0
1,note_on,90,104,0
1,note_on,90,0,160
1,note_on,78,0,0
1,note_on,86,88,0
1,note_on,91,104,0
1,note_on,91,0,120
1,note_on,86,0,0
1,note_on,79,79,0
1,note_on,82,93,0
1,note_on,82,0,120
1,note_on,79,0,0
1,note_on,84,94,120
1,note_on,81,80,0
1,note_on,81,0,120
1,note_on,84,0,0
1,note_on,82,84,0
1,note_on,86,100,0
1,note_on,86,0,120
1,note_on,82,0,0
1,note_on,74,80,0
1,note_on,79,94,0
1,note_on,79,0,120
1,note_on,74,0,0
1,note_on,82,88,240
1,note_on,86,104,0
1,note_on,86,0,120
1,note_on,82,0,0
1,note_on,74,79,0
1,note_on,79,93,0
1,note_on,79,0,120
1,note_on,74,0,0
1,note_on,81,89,120
1,note_on,78,75,0
1,note_on,78,0,120
1,note_on,81,0,0
1,note_on,79,80,0
1,note_on,82,94,0
1,note_on,82,0,120
1,note_on,79,0,0
1,note_on,86,75,0
1,note_on,91,89,0
1,note_on,91,0,120
1,note_on,86,0,0
1,note_on,85,84,240
1,note_on,89,101,0
1,note_on,89,0,120
1,note_on,85,0,0
1,note_on,77,75,0
1,note_on,82,90,0
1,note_on,82,0,120
1,note_on,77,0,0
1,note_on,84,91,120
1,note_on,81,77,0
1,note_on,81,0,120
1,note_on,84,0,0
1,note_on,82,81,0
1,note_on,85,96,0
1,note_on,85,0,120
1,note_on,82,0,0
1,note_on,73,77,0
1,note_on,77,91,0
1,note_on,77,0,120
1,note_on,73,0,0
1,note_on,85,82,240
1,note_on,89,99,0
1,note_on,89,0,120
1,note_on,85,0,0
1,note_on,77,75,0
1,note_on,82,90,0
1,note_on,82,0,120
1,note_on,77,0,0
1,note_on,84,85,120
1,note_on,81,72,0
1,note_on,81,0,120
1,note_on,84,0,0
1,note_on,82,77,0
1,note_on,85,91,0
1,note_on,85,0,120
1,note_on,82,0,0
1,note_on,89,72,0
1,note_on,94,85,0
1,note_on,94,0,120
1,note_on,89,0,0
1,note_on,84,88,240
1,note_on,89,104,0
1,note_on,89,0,120
1,note_on,84,0,0
1,note_on,77,79,0
1,note_on,80,93,0
1,note_on,80,0,120
1,note_on,77,0,0
1,note_on,82,91,120
1,note_on,79,77,0
1,note_on,79,0,120
1,note_on,82,0,0
1,note_on,80,77,0
1,note_on,84,96,0
1,note_on,84,0,120
1,note_on,80,0,0
1,note_on,72,77,0
1,note_on,77,91,0
1,note_on,77,0,120
1,note_on,72,0,0
1,note_on,80,88,240
1,note_on,84,104,0
1,note_on,84,0,120
1,note_on,80,0,0
1,note_on,72,79,0
1,note_on,77,93,0
1,note_on,77,0,120
1,note_on,72,0,0
1,note_on,79,89,120
1,note_on,76,75,0
1,note_on,76,0,120
1,note_on,79,0,0
1,note_on,77,80,0
1,note_on,80,94,0
1,note_on,80,0,120
1,note_on,77,0,0
1,note_on,84,75,0
1,note_on,89,89,0
1,note_on,89,0,120
1,note_on,84,0,0
1,note_on,84,90,240
1,note_on,88,107,0
1,note_on,88,0,120
1,note_on,84,0,0
1,note_on,76,79,0
1,note_on,80,93,0
1,note_on,80,0,120
1,note_on,76,0,0
1,note_on,82,91,120
1,note_on,79,77,0
1,note_on,79,0,120
1,note_on,82,0,0
1,note_on,80,78,0
1,note_on,84,94,0
1,note_on,84,0,120
1,note_on,80,0,0
1,note_on,72,77,0
1,note_on,76,91,0
1,note_on,76,0,120
1,note_on,72,0,0
1,note_on,80,88,240
1,note_on,84,104,0
1,note_on,84,0,120
1,note_on,80,0,0
1,note_on,72,79,0
1,note_on,76,93,0
1,note_on,76,0,120
1,note_on,72,0,0
1,note_on,79,89,120
1,note_on,76,75,0
1,note_on,76,0,120
1,note_on,79,0,0
1,note_on,76,80,0
1,note_on,80,94,0
1,note_on,80,0,120
1,note_on,76,0,0
1,note_on,84,75,0
1,note_on,88,89,0
1,note_on,88,0,120
1,note_on,84,0,0
1,note_on,83,88,240
1,note_on,88,104,0
1,note_on,88,0,120
1,note_on,83,0,0
1,note_on,76,79,0
1,note_on,79,93,0
1,note_on,79,0,120
1,note_on,76,0,0
1,note_on,81,91,120
1,note_on,78,77,0
1,note_on,78,0,120
1,note_on,81,0,0
1,note_on,79,81,0
1,note_on,83,96,0
1,note_on,83,0,120
1,note_on,79,0,0
1,note_on,71,77,0
1,note_on,76,91,0
1,note_on,76,0,120
1,note_on,71,0,0
1,note_on,79,88,240
1,note_on,83,104,0
1,note_on,83,0,120
1,note_on,79,0,0
1,note_on,71,79,0
1,note_on,76,93,0
1,note_on,76,0,120
1,note_on,71,0,0
1,note_on,78,89,120
1,note_on,75,75,0
1,note_on,75,0,120
1,note_on,78,0,0
1,note_on,76,80,0
1,note_on,79,94,0
1,note_on,79,0,120
1,note_on,76,0,0
1,note_on,83,75,0
1,note_on,88,89,0
1,note_on,88,0,120
1,note_on,83,0,0
1,note_on,83,88,240
1,note_on,86,104,0
1,note_on,86,0,120
1,note_on,83,0,0
1,note_on,74,79,0
1,note_on,79,93,0
1,note_on,79,0,120
1,note_on,74,0,0
1,note_on,81,91,120
1,note_on,78,77,0
1,note_on,78,0,120
1,note_on,81,0,0
1,note_on,79,81,0
1,note_on,83,96,0
1,note_on,83,0,120
1,note_on,79,0,0
1,note_on,71,77,0
1,note_on,74,91,0
1,note_on,74,0,120
1,note_on,71,0,0
1,note_on,83,88,240
1,note_on,86,104,0
1,note_on,86,0,120
1,note_on,83,0,0
1,note_on,74,79,0
1,note_on,79,93,0
1,note_on,79,0,120
1,note_on,74,0,0
1,note_on,81,89,120
1,note_on,78,75,0
1,note_on,78,0,120
1,note_on,81,0,0
1,note_on,79,80,0
1,note_on,83,94,0
1,note_on,83,0,120
1,note_on,79,0,0
1,note_on,86,75,0
1,note_on,91,89,0
1,note_on,91,0,120
1,note_on,86,0,0
1,note_on,81,88,240
1,note_on,86,104,0
1,note_on,86,0,120
1,note_on,81,0,0
1,note_on,74,79,0
1,note_on,78,93,0
1,note_on,78,0,120
1,note_on,74,0,0
1,note_on,79,91,120
1,note_on,76,77,0
1,note_on,76,0,120
1,note_on,79,0,0
1,note_on,78,81,0
1,note_on,81,96,0
1,note_on,81,0,120
1,note_on,78,0,0
1,note_on,69,77,0
1,note_on,74,91,0
1,note_on,74,0,120
1,note_on,69,0,0
1,note_on,77,88,240
1,note_on,81,104,0
1,note_on,81,0,120
1,note_on,77,0,0
1,note_on,69,79,0
1,note_on,74,93,0
1,note_on,74,0,120
1,note_on,69,0,0
1,note_on,76,89,120
1,note_on,73,75,0
1,note_on,73,0,120
1,note_on,76,0,0
1,note_on,74,80,0
1,note_on,77,94,0
1,note_on,77,0,120
1,note_on,74,0,0
1,note_on,81,75,0
1,note_on,86,89,0
1,note_on,86,0,120
1,note_on,81,0,0
1,note_on,81,78,240
1,note_on,84,78,0
1,note_on,89,92,0
1,note_on,89,0,160
1,note_on,84,0,0
1,note_on,81,0,0
1,note_on,78,86,0
1,note_on,78,0,160
1,note_on,81,75,0
1,note_on,84,90,0
1,note_on,77,75,0
1,note_on,77,0,160
1,note_on,84,0,0
1,note_on,81,0,0
1,note_on,77,83,0
1,note_on,72,77,0
1,note_on,72,0,160
1,note_on,77,0,0
1,note_on,72,77,0
1,note_on,77,77,0
1,note_on,81,91,0
1,note_on,81,0,160
1,note_on,77,0,0
1,note_on,72,0,0
1,note_on,69,82,0
1,note_on,69,0,160
1,note_on,69,78,0
1,note_on,72,78,0
1,note_on,77,92,0
1,note_on,77,0,160
1,note_on,72,0,0
1,note_on,69,0,0
1,note_on,66,86,0
1,note_on,66,0,160
1,note_on,69,71,0
1,note_on,72,85,0
1,note_on,65,71,0
1,note_on,65,0,160
1,note_on,72,0,0
1,note_on,69,0,0
1,note_on,60,78,0
1,note_on,60,0,160
1,note_on,57,69,0
1,note_on,60,69,0
1,note_on,65,81,0
1,note_on,65,0,160
1,note_on,60,0,0
1,note_on,57,0,0
1,note_on,65,73,0
1,note_on,53,73,0
1,note_on,53,0,160
1,note_on,65,0,0
1,note_on,54,73,0
1,note_on,66,86,0
1,note_on,66,0,120
1,note_on,54,0,0
1,note_on,63,69,0
1,note_on,63,0,120
1,note_on,61,68,0
1,note_on,61,0,120
1,note_on,59,59,0
1,note_on,59,0,120
1,note_on,66,57,0
1,note_on,71,68,0
1,note_on,71,0,120
1,note_on,66,0,0
1,note_on,59,52,0
1,note_on,63,62,0
1,note_on,63,0,120
1,note_on,59,0,0
1,note_on,61,55,120
1,note_on,64,66,0
1,note_on,64,0,120
1,note_on,61,0,0
1,note_on,66,69,0
1,note_on,63,58,0
1,note_on,63,0,120
1,note_on,66,0,0
1,note_on,75,67,0
1,note_on,71,56,0
1,note_on,71,0,120
1,note_on,75,0,0
1,note_on,75,60,240
1,note_on,78,72,0
1,note_on,78,0,120
1,note_on,75,0,0
1,note_on,66,55,0
1,note_on,71,66,0
1,note_on,71,0,120
1,note_on,66,0,0
1,note_on,70,59,120
1,note_on,73,70,0
1,note_on,73,0,120
1,note_on,70,0,0
1,note_on,71,62,0
1,note_on,75,74,0
1,note_on,75,0,120
1,note_on,71,0,0
1,note_on,83,70,0
1,note_on,78,58,0
1,note_on,78,0,120
1,note_on,83,0,0
1,note_on,83,66,240
1,note_on,87,79,0
1,note_on,87,0,120
1,note_on,83,0,0
1,note_on,75,62,0
1,note_on,78,74,0
1,note_on,78,0,120
1,note_on,75,0,0
1,note_on,76,64,120
1,note_on,82,75,0
1,note_on,82,0,120
1,note_on,76,0,0
1,note_on,78,68,0
1,note_on,83,80,0
1,note_on,83,0,120
1,note_on,78,0,0
1,note_on,90,75,0
1,note_on,87,63,0
1,note_on,87,0,120
1,note_on,90,0,0
1,note_on,79,74,240
1,note_on,82,89,0
1,note_on,82,0,160
1,note_on,79,0,0
1,note_on,79,67,0
1,note_on,85,67,0
1,note_on,91,79,0
1,note_on,91,0,160
1,note_on,85,0,0
1,note_on,79,0,0
1,note_on,79,67,0
1,note_on,85,67,0
1,note_on,91,79,0
1,note_on,91,0,160
1,note_on,85,0,0
1,note_on,79,0,0
1,note_on,79,72,0
1,note_on,83,72,0
1,note_on,91,85,0
1,note_on,91,0,120
1,note_on,83,0,0
1,note_on,79,0,0
1,note_on,78,67,0
1,note_on,90,79,0
1,note_on,90,0,120
1,note_on,78,0,0
1,note_on,66,57,240
1,note_on,71,68,0
1,note_on,71,0,120
1,note_on,66,0,0
1,note_on,59,52,0
1,note_on,63,62,0
1,note_on,63,0,120
1,note_on,59,0,0
1,note_on,61,55,120
1,note_on,64,66,0
1,note_on,64,0,120
1,note_on,61,0,0
1,note_on,66,69,0
1,note_on,63,58,0
1,note_on,63,0,120
1,note_on,66,0,0
1,note_on,75,67,0
1,note_on,71,56,0
1,note_on,71,0,120
1,note_on,75,0,0
1,note_on,75,60,240
1,note_on,78,72,0
1,note_on,78,0,120
1,note_on,75,0,0
1,note_on,66,55,0
1,note_on,71,66,0
1,note_on,71,0,120
1,note_on,66,0,0
1,note_on,70,59,120
1,note_on,73,70,0
1,note_on,73,0,120
1,note_on,70,0,0
1,note_on,71,62,0
1,note_on,75,74,0
1,note_on,75,0,120
1,note_on,71,0,0
1,note_on,83,70,0
1,note_on,78,58,0
1,note_on,78,0,120
1,note_on,83,0,0
1,note_on,83,66,240
1,note_on,87,79,0
1,note_on,87,0,120
1,note_on,83,0,0
1,note_on,75,62,0
1,note_on,78,74,0
1,note_on,78,0,120
1,note_on,75,0,0
1,note_on,76,64,120
1,note_on,82,75,0
1,note_on,82,0,120
1,note_on,76,0,0
1,note_on,78,68,0
1,note_on,83,80,0
1,note_on,83,0,120
1,note_on,78,0,0
1,note_on,90,75,0
1,note_on,87,63,0
1,note_on,87,0,120
1,note_on,90,0,0
1,note_on,79,74,240
1,note_on,82,89,0
1,note_on,82,0,160
1,note_on,79,0,0
1,note_on,79,67,0
1,note_on,85,67,0
1,note_on,91,79,0
1,note_on,91,0,160
1,note_on,85,0,0
1,note_on,79,0,0
1,note_on,79,67,0
1,note_on,85,67,0
1,note_on,91,79,0
1,note_on,91,0,160
1,note_on,85,0,0
1,note_on,79,0,0
1,note_on,80,85,0
1,note_on,84,85,0
1,note_on,92,85,0
1,note_on,92,0,160
1,note_on,84,0,0
1,note_on,80,0,0
1,note_on,81,80,0
1,note_on,87,80,0
1,note_on,93,80,0
1,note_on,93,0,160
1,note_on,87,0,0
1,note_on,81,0,0
1,note_on,58,56,0
1,note_on,70,66,0
1,note_on,70,0,160
1,note_on,58,0,0
1,note_on,57,49,0
1,note_on,69,58,0
1,note_on,69,0,160
1,note_on,57,0,0
1,note_on,63,52,0
1,note_on,66,61,0
1,note_on,66,0,160
1,note_on,63,0,0
1,note_on,61,58,0
1,note_on,73,70,0
1,note_on,73,0,160
1,note_on,61,0,0
1,note_on,60,53,0
1,note_on,72,63,0
1,note_on,72,0,160
1,note_on,60,0,0
1,note_on,63,53,0
1,note_on,66,63,0
1,note_on,66,0,160
1,note_on,63,0,0
1,note_on,58,60,0
1,note_on,70,72,0
1,note_on,70,0,160
1,note_on,58,0,0
1,note_on,57,55,0
1,note_on,69,64,0
1,note_on,69,0,160
1,note_on,57,0,0
1,note_on,63,57,0
1,note_on,66,68,0
1,note_on,66,0,160
1,note_on,63,0,0
1,note_on,61,62,0
1,note_on,73,74,0
1,note_on,73,0,160
1,note_on,61,0,0
1,note_on,60,57,0
1,note_on,72,68,0
1,note_on,72,0,160
1,note_on,60,0,0
1,note_on,63,60,0
1,note_on,66,71,0
1,note_on,66,0,160
1,note_on,63,0,0
1,note_on,66,66,0
1,note_on,78,79,0
1,note_on,78,0,160
1,note_on,66,0,0
1,note_on,65,58,0
1,note_on,77,70,0
1,note_on,77,0,160
1,note_on,65,0,0
1,note_on,72,61,0
1,note_on,75,72,0
1,note_on,75,0,160
1,note_on,72,0,0
1,note_on,70,67,0
1,note_on,82,80,0
1,note_on,82,0,160
1,note_on,70,0,0
1,note_on,69,61,0
1,note_on,81,73,0
1,note_on,81,0,160
1,note_on,69,0,0
1,note_on,75,63,0
1,note_on,78,75,0
1,note_on,78,0,160
1,note_on,75,0,0
1,note_on,73,72,0
1,note_on,85,85,0
1,note_on,85,0,160
1,note_on,73,0,0
1,note_on,84,75,0
1,note_on,72,63,0
1,note_on,72,0,160
1,note_on,84,0,0
1,note_on,78,81,0
1,note_on,75,68,0
1,note_on,75,0,160
1,note_on,78,0,0
1,note_on,90,89,0
1,note_on,78,74,0
1,note_on,78,0,320
1,note_on,90,0,0
1,note_on,84,63,0
1,note_on,89,75,0
1,note_on,89,0,160
1,note_on,84,0,0
1,note_on,78,62,0
1,note_on,88,74,0
1,note_on,88,0,160
1,note_on,78,0,0
1,note_on,84,64,0
1,note_on,87,77,0
1,note_on,87,0,160
1,note_on,84,0,0
1,note_on,78,62,0
1,note_on,86,73,0
1,note_on,86,0,160
1,note_on,78,0,0
1,note_on,81,58,0
1,note_on,85,70,0
1,note_on,85,0,160
1,note_on,81,0,0
1,note_on,75,62,0
1,note_on,84,73,0
1,note_on,84,0,160
1,note_on,75,0,0
1,note_on,78,58,0
1,note_on,83,68,0
1,note_on,83,0,160
1,note_on,78,0,0
1,note_on,75,55,0
1,note_on,82,66,0
1,note_on,82,0,160
1,note_on,75,0,0
1,note_on,78,58,0
1,note_on,81,69,0
1,note_on,81,0,160
1,note_on,78,0,0
1,note_on,72,53,0
1,note_on,80,63,0
1,note_on,80,0,160
1,note_on,72,0,0
1,note_on,79,63,0
1,note_on,75,53,0
1,note_on,75,0,160
1,note_on,79,0,0
1,note_on,69,52,0
1,note_on,78,62,0
1,note_on,78,0,160
1,note_on,69,0,0
1,note_on,72,49,0
1,note_on,77,59,0
1,note_on,77,0,160
1,note_on,72,0,0
1,note_on,69,49,0
1,note_on,76,59,0
1,note_on,76,0,160
1,note_on,69,0,0
1,note_on,72,49,0
1,note_on,75,59,0
1,note_on,75,0,160
1,note_on,72,0,0
1,note_on,63,45,0
1,note_on,74,53,0
1,note_on,74,0,160
1,note_on,63,0,0
1,note_on,69,46,0
1,note_on,73,53,0
1,note_on,73,0,160
1,note_on,69,0,0
1,note_on,63,53,0
1,note_on,72,53,0
1,note_on,72,0,160
1,note_on,63,0,0
1,note_on,69,49,0
1,note_on,71,49,0
1,note_on,71,0,160
1,note_on,69,0,0
1,note_on,63,49,0
1,note_on,74,49,0
1,note_on,74,0,160
1,note_on,63,0,0
1,note_on,69,52,0
1,note_on,72,52,0
1,note_on,72,0,160
1,note_on,69,0,0
1,note_on,69,53,0
1,note_on,79,53,0
1,note_on,79,0,160
1,note_on,69,0,0
1,note_on,75,49,0
1,note_on,77,49,0
1,note_on,77,0,100
1,note_on,75,0,0
1,note_on,62,39,0
1,note_on,62,0,60
1,note_on,62,41,0
1,note_on,70,41,0
1,note_on,77,49,0
1,note_on,77,0,960
1,note_on,70,0,0
1,note_on,62,0,0
1,note_on,65,41,0
1,note_on,70,41,0
1,note_on,74,49,0
1,note_on,74,0,480
1,note_on,70,0,0
1,note_on,65,0,0
1,note_on,67,37,0
1,note_on,72,37,0
1,note_on,75,44,0
1,note_on,75,0,480
1,note_on,72,0,0
1,note_on,67,0,0
1,note_on,63,39,0
1,note_on,74,47,0
1,note_on,74,0,960
1,note_on,72,41,0
1,note_on,72,0,960
1,note_on,63,0,0
1,note_on,62,41,0
1,note_on,70,41,0
1,note_on,77,49,0
1,note_on,77,0,480
1,note_on,70,0,0
1,note_on,62,0,0
1,note_on,70,41,0
1,note_on,65,41,0
1,note_on,74,49,0
1,note_on,74,0,480
1,note_on,65,0,0
1,note_on,70,0,0
1,note_on,67,41,0
1,note_on,70,41,0
1,note_on,75,49,0
1,note_on,75,0,240
1,note_on,67,0,0
1,note_on,65,39,0
1,note_on,74,47,0
1,note_on,74,0,240
1,note_on,65,0,0
1,note_on,70,0,0
1,note_on,71,37,0
1,note_on,68,37,0
1,note_on,77,44,0
1,note_on,77,0,240
1,note_on,68,0,0
1,note_on,71,0,0
1,note_on,72,35,0
1,note_on,67,35,0
1,note_on,75,41,0
1,note_on,75,0,240
1,note_on,67,0,0
1,note_on,72,0,0
1,note_on,63,31,0
1,note_on,69,36,0
1,note_on,74,45,0
1,note_on,74,0,960
1,note_on,72,41,0
1,note_on,72,0,960
1,note_on,69,0,0
1,note_on,63,0,0
1,note_on,70,40,0
1,note_on,62,42,0
1,note_on,77,53,0
1,note_on,77,0,480
1,note_on,62,0,0
1,note_on,70,0,0
1,note_on,67,37,0
1,note_on,70,40,0
1,note_on,79,51,0
1,note_on,79,0,480
1,note_on,70,0,0
1,note_on,67,0,0
1,note_on,69,44,0
1,note_on,75,44,0
1,note_on,81,52,0
1,note_on,81,0,480
1,note_on,69,0,0
1,note_on,70,51,0
1,note_on,82,58,0
1,note_on,82,0,360
1,note_on,70,0,0
1,note_on,72,53,0
1,note_on,81,53,0
1,note_on,84,60,0
1,note_on,84,0,120
1,note_on,75,0,0
1,note_on,72,0,0
1,note_on,81,0,0
1,note_on,74,48,0
1,note_on,82,51,0
1,note_on,86,61,0
1,note_on,86,0,480
1,note_on,82,0,0
1,note_on,74,0,0
1,note_on,67,44,0
1,note_on,70,44,0
1,note_on,73,44,0
1,note_on,79,51,0
1,note_on,79,0,480
1,note_on,67,0,0
1,note_on,70,0,0
1,note_on,73,0,0
1,note_on,69,44,0
1,note_on,72,44,0
1,note_on,81,52,0
1,note_on,81,0,420
1,note_on,69,0,0
1,note_on,67,56,0
1,note_on,72,56,30
1,note_on,72,0,30
1,note_on,82,58,0
1,note_on,82,0,360
1,note_on,84,60,0
1,note_on,84,0,120
1,note_on,72,0,0
1,note_on,67,0,0
1,note_on,74,53,0
1,note_on,81,53,0
1,note_on,86,63,0
1,note_on,86,0,480
1,note_on,81,0,0
1,note_on,74,0,0
1,note_on,72,50,0
1,note_on,81,53,0
1,note_on,74,53,0
1,note_on,84,60,0
1,note_on,84,0,480
1,note_on,72,0,0
1,note_on,81,0,0
1,note_on,74,0,0
1,note_on,74,53,0
1,note_on,70,53,0
1,note_on,79,63,0
1,note_on,82,63,0
1,note_on,82,0,480
1,note_on,74,0,0
1,note_on,70,0,0
1,note_on,79,0,0
1,note_on,73,53,0
1,note_on,77,53,0
1,note_on,81,63,0
1,note_on,81,0,360
1,note_on,77,0,0
1,note_on,73,0,0
1,note_on,67,54,0
1,note_on,74,57,0
1,note_on,79,57,0
1,note_on,79,0,120
1,note_on,74,0,0
1,note_on,67,0,0
1,note_on,65,51,0
1,note_on,67,51,0
1,note_on,74,56,0
1,note_on,77,61,0
1,note_on,77,0,480
1,note_on,65,0,0
1,note_on,67,0,0
1,note_on,74,0,0
1,note_on,63,49,0
1,note_on,67,49,0
1,note_on,72,59,0
1,note_on,75,59,0
1,note_on,75,0,360
1,note_on,63,0,0
1,note_on,67,0,0
1,note_on,72,0,0
1,note_on,66,47,0
1,note_on,70,56,0
1,note_on,74,56,0
1,note_on,74,0,120
1,note_on,70,0,0
1,note_on,66,0,0
1,note_on,60,52,0
1,note_on,72,59,0
1,note_on,67,49,0
1,note_on,70,59,0
1,note_on,70,0,480
1,note_on,67,0,0
1,note_on,65,45,0
1,note_on,69,49,0
1,note_on,69,0,240
1,note_on,65,0,0
1,note_on,63,43,0
1,note_on,67,50,0
1,note_on,67,0,240
1,note_on,60,0,0
1,note_on,72,0,0
1,note_on,63,0,0
1,note_on,62,45,0
1,note_on,70,49,0
1,note_on,77,64,0
1,note_on,77,0,960
1,note_on,70,0,0
1,note_on,62,0,0
1,note_on,65,49,0
1,note_on,70,49,0
1,note_on,74,60,0
1,note_on,74,0,480
1,note_on,70,0,0
1,note_on,65,0,0
1,note_on,62,34,0
1,note_on,65,39,0
1,note_on,65,0,240
1,note_on,62,0,0
1,note_on,67,41,0
1,note_on,72,41,0
1,note_on,75,55,0
1,note_on,75,0,240
1,note_on,72,0,0
1,note_on,67,0,0
1,note_on,74,68,0
1,note_on,63,35,0
1,note_on,69,42,0
1,note_on,74,0,720
1,note_on,72,55,0
1,note_on,72,0,240
1,note_on,69,0,0
1,note_on,63,0,0
1,note_on,67,58,0
1,note_on,67,0,240
1,note_on,65,52,0
1,note_on,65,0,240
1,note_on,58,61,0
1,note_on,58,0,240
1,note_on,60,55,0
1,note_on,60,0,240
1,note_on,62,55,0
1,note_on,70,54,0
1,note_on,77,68,0
1,note_on,77,0,480
1,note_on,62,0,0
1,note_on,65,49,0
1,note_on,74,62,0
1,note_on,74,0,480
1,note_on,65,0,0
1,note_on,70,0,0
1,note_on,70,57,0
1,note_on,67,55,0
1,note_on,75,66,0
1,note_on,75,0,240
1,note_on,67,0,0
1,note_on,65,46,0
1,note_on,74,55,0
1,note_on,74,0,240
1,note_on,65,0,0
1,note_on,65,48,0
1,note_on,74,57,0
1,note_on,74,0,160
1,note_on,65,0,0
1,note_on,69,46,0
1,note_on,77,55,0
1,note_on,77,0,160
1,note_on,69,0,0
1,note_on,67,46,0
1,note_on,75,55,0
1,note_on,75,0,160
1,note_on,67,0,0
1,note_on,70,0,0
1,note_on,74,64,0
1,note_on,63,42,0
1,note_on,69,41,0
1,note_on,74,0,720
1,note_on,72,58,0
1,note_on,72,0,240
1,note_on,69,0,0
1,note_on,63,0,0
1,note_on,67,60,0
1,note_on,67,0,160
1,note_on,65,51,0
1,note_on,65,0,160
1,note_on,67,51,0
1,note_on,67,0,160
1,note_on,65,58,0
1,note_on,65,0,160
1,note_on,58,53,0
1,note_on,58,0,160
1,note_on,60,53,0
1,note_on,60,0,100
1,note_on,62,51,0
1,note_on,70,61,30
1,note_on,77,73,30
1,note_on,77,0,480
1,note_on,62,0,0
1,note_on,67,57,0
1,note_on,79,68,0
1,note_on,79,0,480
1,note_on,67,0,0
1,note_on,70,0,0
1,note_on,77,61,0
1,note_on,77,56,0
1,note_on,75,56,0
1,note_on,69,57,0
1,note_on,81,73,0
1,note_on,81,0,480
1,note_on,69,0,0
1,note_on,70,72,0
1,note_on,82,75,0
1,note_on,82,0,360
1,note_on,70,0,0
1,note_on,72,70,0
1,note_on,84,73,0
1,note_on,84,0,120
1,note_on,75,0,0
1,note_on,77,0,0
1,note_on,77,0,0
1,note_on,72,0,0
1,note_on,77,68,0
1,note_on,74,66,0
1,note_on,86,80,0
1,note_on,86,0,480
1,note_on,77,0,0
1,note_on,79,73,0
1,note_on,67,61,0
1,note_on,67,0,480
1,note_on,79,0,0
1,note_on,74,0,0
1,note_on,69,66,0
1,note_on,81,78,0
1,note_on,77,66,0
1,note_on,75,66,0
1,note_on,81,0,480
1,note_on,69,0,0
1,note_on,82,81,0
1,note_on,70,68,0
1,note_on,70,0,360
1,note_on,82,0,0
1,note_on,72,64,0
1,note_on,84,77,0
1,note_on,84,0,120
1,note_on,75,0,0
1,note_on,77,0,0
1,note_on,72,0,0
1,note_on,81,66,0
1,note_on,84,74,0
1,note_on,74,73,0
1,note_on,86,88,0
1,note_on,86,0,480
1,note_on,74,0,0
1,note_on,75,78,0
1,note_on,87,91,0
1,note_on,84,0,480
1,note_on,81,0,0
1,note_on,79,74,0
1,note_on,82,74,0
1,note_on,75,0,240
1,note_on,87,0,0
1,note_on,74,67,0
1,note_on,86,80,0
1,note_on,86,0,240
1,note_on,74,0,0
1,note_on,73,66,0
1,note_on,85,79,0
1,note_on,85,0,240
1,note_on,73,0,0
1,note_on,74,66,0
1,note_on,86,79,0
1,note_on,86,0,240
1,note_on,82,0,0
1,note_on,79,0,0
1,note_on,74,0,0
1,note_on,81,57,0
1,note_on,84,57,0
1,note_on,87,71,0
1,note_on,89,90,0
1,note_on,77,72,0
1,note_on,77,0,480
1,note_on,89,0,0
1,note_on,79,70,0
1,note_on,91,84,0
1,note_on,81,0,480
1,note_on,87,0,0
1,note_on,84,0,0
1,note_on,86,85,0
1,note_on,79,0,240
1,note_on,91,0,0
1,note_on,77,64,0
1,note_on,89,77,0
1,note_on,89,0,240
1,note_on,77,0,0
1,note_on,86,0,0
1,note_on,75,70,0
1,note_on,87,84,0
1,note_on,79,62,0
1,note_on,87,0,360
1,note_on,75,0,0
1,note_on,86,78,0
1,note_on,74,66,0
1,note_on,74,0,120
1,note_on,86,0,0
1,note_on,79,0,0
1,note_on,79,67,0
1,note_on,77,74,0
1,note_on,89,88,0
1,note_on,89,0,240
1,note_on,77,0,0
1,note_on,75,62,0
1,note_on,87,76,0
1,note_on,87,0,240
1,note_on,75,0,0
1,note_on,79,0,0
1,note_on,79,59,0
1,note_on,74,61,0
1,note_on,86,73,0
1,note_on,86,0,240
1,note_on,74,0,0
1,note_on,71,55,0
1,note_on,83,68,0
1,note_on,83,0,240
1,note_on,71,0,0
1,note_on,79,0,0
1,note_on,79,59,0
1,note_on,86,79,0
1,note_on,74,67,0
1,note_on,74,0,240
1,note_on,86,0,0
1,note_on,84,69,0
1,note_on,72,58,0
1,note_on,72,0,240
1,note_on,84,0,0
1,note_on,79,0,0
1,note_on,73,57,0
1,note_on,79,72,0
1,note_on,67,61,0
1,note_on,67,0,240
1,note_on,79,0,0
1,note_on,82,67,0
1,note_on,70,56,0
1,note_on,73,0,240
1,note_on,72,64,0
1,note_on,75,64,0
1,note_on,70,0,240
1,note_on,82,0,0
1,note_on,81,71,0
1,note_on,69,57,0
1,note_on,72,0,240
1,note_on,75,0,0
1,note_on,75,73,0
1,note_on,70,61,0
1,note_on,81,0,240
1,note_on,69,0,0
1,note_on,67,57,0
1,note_on,79,72,0
1,note_on,75,0,240
1,note_on,70,0,0
1,note_on,72,67,0
1,note_on,75,80,0
1,note_on,67,0,240
1,note_on,79,0,0
1,note_on,66,57,0
1,note_on,78,71,0
1,note_on,72,0,240
1,note_on,75,0,0
1,note_on,75,73,0
1,note_on,69,59,0
1,note_on,66,0,240
1,note_on,78,0,0
1,note_on,65,60,0
1,note_on,77,70,0
1,note_on,75,0,240
1,note_on,69,0,0
1,note_on,70,53,0
1,note_on,70,0,240
1,note_on,65,0,0
1,note_on,77,0,0
1,note_on,70,56,0
1,note_on,66,56,0
1,note_on,78,72,0
1,note_on,78,0,240
1,note_on,66,0,0
1,note_on,70,0,0
1,note_on,70,53,0
1,note_on,67,64,0
1,note_on,79,77,0
1,note_on,79,0,240
1,note_on,67,0,0
1,note_on,70,0,0
1,note_on,65,56,0
1,note_on,70,56,0
1,note_on,77,72,0
1,note_on,77,0,240
1,note_on,70,0,0
1,note_on,65,0,0
1,note_on,69,60,0
1,note_on,72,69,0
1,note_on,72,0,240
1,note_on,69,0,0
1,note_on,65,52,0
1,note_on,68,55,0
1,note_on,74,68,0
1,note_on,74,0,240
1,note_on,68,0,0
1,note_on,65,0,0
1,note_on,63,59,0
1,note_on,67,62,0
1,note_on,75,70,0
1,note_on,75,0,240
1,note_on,67,0,0
1,note_on,63,0,0
1,note_on,66,57,0
1,note_on,69,68,0
1,note_on,69,0,240
1,note_on,66,0,0
1,note_on,65,60,0
1,note_on,70,69,0
1,note_on,70,0,240
1,note_on,65,0,0
1,note_on,63,56,0
1,note_on,66,56,0
1,note_on,72,67,0
1,note_on,72,0,240
1,note_on,66,0,0
1,note_on,63,0,0
1,note_on,62,54,0
1,note_on,65,58,0
1,note_on,74,70,0
1,note_on,74,0,240
1,note_on,65,0,0
1,note_on,62,0,0
1,note_on,58,58,0
1,note_on,61,58,0
1,note_on,67,69,0
1,note_on,67,0,180
1,note_on,61,0,0
1,note_on,58,0,0
1,note_on,58,50,0
1,note_on,58,0,60
1,note_on,60,58,0
1,note_on,58,58,0
1,note_on,63,58,0
1,note_on,70,69,0
1,note_on,70,0,480
1,note_on,58,0,0
1,note_on,57,51,0
1,note_on,69,61,0
1,note_on,69,0,480
1,note_on,60,0,0
1,note_on,63,0,0
1,note_on,57,0,0
1,note_on,62,65,0
1,note_on,70,77,0
1,note_on,58,65,6
1,note_on,70,0,154
1,note_on,62,0,0
1,note_on,61,62,0
1,note_on,66,73,0
1,note_on,58,0,6
1,note_on,66,0,74
1,note_on,61,0,0
1,note_on,61,62,80
1,note_on,66,73,0
1,note_on,66,0,80
1,note_on,61,0,0
1,note_on,61,62,80
1,note_on,66,75,0
1,note_on,66,0,160
1,note_on,61,0,0
1,note_on,60,61,0
1,note_on,65,66,0
1,note_on,65,0,80
1,note_on,60,0,0
1,note_on,69,62,80
1,note_on,75,74,0
1,note_on,75,0,80
1,note_on,69,0,0
1,note_on,69,62,80
1,note_on,75,75,0
1,note_on,75,0,160
1,note_on,69,0,0
1,note_on,70,62,0
1,note_on,74,74,0
1,note_on,74,0,80
1,note_on,70,0,0
1,note_on,73,62,80
1,note_on,78,74,0
1,note_on,78,0,80
1,note_on,73,0,0
1,note_on,73,62,80
1,note_on,78,75,0
1,note_on,78,0,160
1,note_on,73,0,0
1,note_on,72,63,0
1,note_on,77,69,0
1,note_on,77,0,80
1,note_on,72,0,0
1,note_on,81,62,80
1,note_on,87,73,0
1,note_on,87,0,80
1,note_on,81,0,0
1,note_on,81,64,80
1,note_on,87,78,0
1,note_on,87,0,160
1,note_on,81,0,0
1,note_on,82,62,0
1,note_on,86,73,0
1,note_on,86,0,80
1,note_on,82,0,0
1,note_on,78,73,80
1,note_on,73,62,0
1,note_on,73,0,80
1,note_on,78,0,0
1,note_on,73,64,80
1,note_on,78,78,0
1,note_on,78,0,160
1,note_on,73,0,0
1,note_on,72,62,0
1,note_on,77,70,0
1,note_on,77,0,80
1,note_on,72,0,0
1,note_on,69,62,80
1,note_on,75,74,0
1,note_on,75,0,80
1,note_on,69,0,0
1,note_on,69,64,80
1,note_on,75,78,0
1,note_on,75,0,160
1,note_on,69,0,0
1,note_on,70,59,0
1,note_on,74,69,0
1,note_on,74,0,80
1,note_on,70,0,0
1,note_on,66,74,80
1,note_on,61,62,0
1,note_on,61,0,80
1,note_on,66,0,0
1,note_on,61,62,80
1,note_on,66,75,0
1,note_on,66,0,160
1,note_on,61,0,0
1,note_on,60,59,0
1,note_on,65,66,0
1,note_on,65,0,80
1,note_on,60,0,0
1,note_on,57,62,80
1,note_on,63,74,0
1,note_on,63,0,80
1,note_on,57,0,0
1,note_on,57,62,80
1,note_on,63,75,0
1,note_on,63,0,160
1,note_on,57,0,0
1,note_on,58,53,0
1,note_on,62,63,0
1,note_on,62,0,80
1,note_on,58,0,0
1,note_on,60,49,80
1,note_on,67,59,0
1,note_on,67,0,80
1,note_on,60,0,0
1,note_on,60,51,80
1,note_on,67,62,0
1,note_on,67,0,160
1,note_on,60,0,0
1,note_on,65,58,0
1,note_on,65,0,80
1,note_on,69,44,80
1,note_on,75,52,0
1,note_on,75,0,80
1,note_on,69,0,0
1,note_on,69,46,80
1,note_on,75,55,0
1,note_on,75,0,160
1,note_on,69,0,0
1,note_on,70,44,0
1,note_on,74,52,0
1,note_on,74,0,80
1,note_on,70,0,0
1,note_on,72,44,80
1,note_on,79,52,0
1,note_on,79,0,80
1,note_on,72,0,0
1,note_on,72,46,80
1,note_on,79,55,0
1,note_on,79,0,160
1,note_on,72,0,0
1,note_on,77,51,0
1,note_on,77,0,80
1,note_on,81,39,80
1,note_on,87,46,0
1,note_on,87,0,80
1,note_on,81,0,0
1,note_on,81,40,80
1,note_on,87,49,0
1,note_on,87,0,160
1,note_on,81,0,0
1,note_on,82,39,0
1,note_on,86,46,0
1,note_on,86,0,80
1,note_on,82,0,0
1,note_on,79,55,80
1,note_on,72,47,0
1,note_on,72,0,80
1,note_on,79,0,0
1,note_on,72,49,80
1,note_on,79,59,0
1,note_on,79,0,160
1,note_on,72,0,0
1,note_on,77,56,0
1,note_on,77,0,80
1,note_on,69,47,80
1,note_on,75,56,0
1,note_on,75,0,80
1,note_on,69,0,0
1,note_on,69,49,80
1,note_on,75,59,0
1,note_on,75,0,160
1,note_on,69,0,0
1,note_on,70,47,0
1,note_on,74,55,0
1,note_on,74,0,80
1,note_on,70,0,0
1,note_on,67,56,80
1,note_on,60,47,0
1,note_on,60,0,80
1,note_on,67,0,0
1,note_on,60,49,80
1,note_on,67,59,0
1,note_on,67,0,160
1,note_on,60,0,0
1,note_on,65,56,0
1,note_on,65,0,80
1,note_on,60,52,80
1,note_on,57,52,0
1,note_on,63,62,0
1,note_on,63,0,80
1,note_on,57,0,0
1,note_on,60,0,0
1,note_on,60,49,80
1,note_on,57,49,0
1,note_on,63,59,0
1,note_on,63,0,160
1,note_on,57,0,0
1,note_on,60,0,0
1,note_on,61,46,0
1,note_on,57,44,0
1,note_on,64,52,0
1,note_on,64,0,80
1,note_on,57,0,0
1,note_on,61,0,0
1,note_on,57,49,80
1,note_on,59,49,0
1,note_on,63,47,0
1,note_on,69,56,0
1,note_on,69,0,80
1,note_on,57,0,0
1,note_on,59,0,0
1,note_on,63,0,0
1,note_on,57,49,80
1,note_on,59,49,0
1,note_on,63,49,0
1,note_on,69,59,0
1,note_on,69,0,160
1,note_on,57,0,0
1,note_on,59,0,0
1,note_on,63,0,0
1,note_on,56,46,0
1,note_on,64,44,0
1,note_on,68,51,0
1,note_on,68,0,80
1,note_on,64,0,0
1,note_on,56,0,0
1,note_on,62,47,80
1,note_on,64,47,0
1,note_on,68,47,0
1,note_on,74,56,0
1,note_on,74,0,80
1,note_on,62,0,0
1,note_on,64,0,0
1,note_on,68,0,0
1,note_on,62,49,80
1,note_on,64,49,0
1,note_on,68,49,0
1,note_on,74,59,0
1,note_on,74,0,160
1,note_on,62,0,0
1,note_on,64,0,0
1,note_on,68,0,0
1,note_on,61,46,0
1,note_on,69,44,0
1,note_on,73,52,0
1,note_on,73,0,80
1,note_on,69,0,0
1,note_on,61,0,0
1,note_on,69,49,80
1,note_on,71,49,0
1,note_on,75,47,0
1,note_on,81,56,0
1,note_on,81,0,80
1,note_on,69,0,0
1,note_on,71,0,0
1,note_on,75,0,0
1,note_on,69,49,80
1,note_on,71,49,0
1,note_on,75,49,0
1,note_on,81,59,0
1,note_on,81,0,160
1,note_on,69,0,0
1,note_on,71,0,0
1,note_on,75,0,0
1,note_on,68,46,0
1,note_on,76,41,0
1,note_on,80,51,0
1,note_on,80,0,80
1,note_on,76,0,0
1,note_on,68,0,0
1,note_on,74,49,80
1,note_on,76,49,0
1,note_on,80,47,0
1,note_on,86,55,0
1,note_on,86,0,80
1,note_on,74,0,0
1,note_on,76,0,0
1,note_on,80,0,0
1,note_on,74,49,80
1,note_on,76,49,0
1,note_on,80,49,0
1,note_on,86,59,0
1,note_on,86,0,160
1,note_on,74,0,0
1,note_on,76,0,0
1,note_on,80,0,0
1,note_on,67,45,0
1,note_on,71,63,0
1,note_on,71,0,160
1,note_on,67,0,0
1,note_on,68,66,0
1,note_on,77,80,0
1,note_on,77,0,160
1,note_on,68,0,0
1,note_on,70,68,0
1,note_on,74,74,0
1,note_on,74,0,160
1,note_on,70,0,0
1,note_on,71,71,0
1,note_on,80,84,0
1,note_on,80,0,160
1,note_on,71,0,0
1,note_on,73,66,0
1,note_on,77,79,0
1,note_on,77,0,160
1,note_on,73,0,0
1,note_on,74,74,0
1,note_on,83,89,0
1,note_on,83,0,160
1,note_on,74,0,0
1,note_on,80,85,0
1,note_on,76,72,0
1,note_on,76,0,160
1,note_on,80,0,0
1,note_on,77,78,0
1,note_on,86,92,0
1,note_on,86,0,160
1,note_on,77,0,0
1,note_on,79,73,0
1,note_on,83,86,0
1,note_on,83,0,160
1,note_on,79,0,0
1,note_on,80,79,0
1,note_on,89,94,0
1,note_on,89,0,160
1,note_on,80,0,0
1,note_on,80,77,0
1,note_on,92,90,0
1,note_on,92,0,160
1,note_on,80,0,0
1,note_on,88,85,0
1,note_on,81,85,0
1,note_on,93,101,0
1,note_on,93,0,160
1,note_on,81,0,0
1,note_on,88,0,0
1,note_on,57,64,0
1,note_on,64,64,0
1,note_on,69,77,0
1,note_on,69,0,160
1,note_on,64,0,0
1,note_on,57,0,0
1,note_on,57,64,0
1,note_on,64,64,0
1,note_on,69,77,0
1,note_on,69,0,160
1,note_on,64,0,0
1,note_on,57,0,0
1,note_on,57,55,0
1,note_on,64,55,0
1,note_on,69,77,0
1,note_on,69,0,160
1,note_on,64,0,0
1,note_on,57,0,0
1,note_on,57,63,0
1,note_on,64,63,0
1,note_on,69,75,0
1,note_on,69,0,160
1,note_on,64,0,0
1,note_on,57,0,0
1,note_on,57,63,0
1,note_on,64,63,0
1,note_on,69,75,0
1,note_on,69,0,160
1,note_on,64,0,0
1,note_on,57,0,0
1,note_on,57,57,0
1,note_on,65,57,0
1,note_on,69,80,0
1,note_on,69,0,160
1,note_on,65,0,0
1,note_on,57,0,0
1,note_on,57,64,0
1,note_on,65,64,0
1,note_on,69,77,0
1,note_on,69,0,160
1,note_on,65,0,0
1,note_on,57,0,0
1,note_on,57,64,0
1,note_on,65,64,0
1,note_on,69,77,0
1,note_on,69,0,160
1,note_on,65,0,0
1,note_on,57,0,0
1,note_on,57,68,0
1,note_on,65,68,0
1,note_on,69,81,0
1,note_on,69,0,160
1,note_on,65,0,0
1,note_on,57,0,0
1,note_on,57,67,0
1,note_on,65,67,0
1,note_on,69,79,0
1,note_on,69,0,160
1,note_on,65,0,0
1,note_on,57,0,0
1,note_on,57,67,0
1,note_on,65,67,0
1,note_on,69,79,0
1,note_on,69,0,160
1,note_on,65,0,0
1,note_on,57,0,0
1,note_on,57,67,0
1,note_on,65,67,0
1,note_on,69,80,0
1,note_on,69,0,80
1,note_on,65,0,0
1,note_on,57,0,0
1,note_on,58,68,80
1,note_on,65,68,0
1,note_on,70,81,0
1,note_on,70,0,80
1,note_on,65,0,0
1,note_on,58,0,0
1,note_on,58,69,80
1,note_on,65,69,0
1,note_on,70,82,0
1,note_on,70,0,80
1,note_on,65,0,0
1,note_on,58,0,0
1,note_on,58,71,80
1,note_on,65,71,0
1,note_on,70,83,0
1,note_on,70,0,80
1,note_on,65,0,0
1,note_on,58,0,0
1,note_on,58,71,80
1,note_on,66,71,0
1,note_on,70,84,0
1,note_on,70,0,80
1,note_on,66,0,0
1,note_on,58,0,0
1,note_on,58,71,80
1,note_on,66,71,0
1,note_on,70,85,0
1,note_on,70,0,80
1,note_on,66,0,0
1,note_on,58,0,0
1,note_on,58,72,80
1,note_on,66,72,0
1,note_on,70,86,0
1,note_on,70,0,80
1,note_on,66,0,0
1,note_on,58,0,0
1,note_on,58,73,80
1,note_on,66,73,0
1,note_on,70,88,0
1,note_on,70,0,80
1,note_on,66,0,0
1,note_on,58,0,0
1,note_on,58,75,80
1,note_on,66,75,0
1,note_on,70,90,0
1,note_on,70,0,80
1,note_on,66,0,0
1,note_on,58,0,0
1,note_on,58,77,80
1,note_on,66,77,0
1,note_on,70,91,0
1,note_on,70,0,80
1,note_on,66,0,0
1,note_on,58,0,0
1,note_on,58,78,80
1,note_on,65,78,0
1,note_on,70,92,0
1,note_on,70,0,80
1,note_on,65,0,0
1,note_on,58,0,0
1,note_on,58,79,80
1,note_on,64,79,0
1,note_on,70,93,0
1,note_on,70,0,80
1,note_on,64,0,0
1,note_on,58,0,0
1,note_on,58,73,80
1,note_on,65,86,0
1,note_on,70,102,0
1,note_on,70,0,80
1,note_on,65,0,0
1,note_on,58,0,0
1,note_on,62,68,80
1,note_on,65,80,0
1,note_on,74,95,0
1,note_on,74,0,160
1,note_on,65,0,0
1,note_on,62,0,0
1,note_on,62,68,0
1,note_on,65,80,0
1,note_on,74,95,0
1,note_on,74,0,160
1,note_on,65,0,0
1,note_on,62,0,0
1,note_on,62,72,0
1,note_on,65,85,0
1,note_on,74,101,0
1,note_on,74,0,160
1,note_on,65,0,0
1,note_on,62,0,0
1,note_on,60,68,0
1,note_on,72,95,0
1,note_on,72,0,160
1,note_on,60,0,0
1,note_on,58,68,0
1,note_on,70,95,0
1,note_on,70,0,160
1,note_on,58,0,0
1,note_on,62,68,160
1,note_on,66,80,0
1,note_on,74,95,0
1,note_on,74,0,160
1,note_on,66,0,0
1,note_on,62,0,0
1,note_on,62,68,0
1,note_on,66,80,0
1,note_on,74,95,0
1,note_on,74,0,160
1,note_on,66,0,0
1,note_on,62,0,0
1,note_on,62,72,0
1,note_on,66,85,0
1,note_on,74,101,0
1,note_on,74,0,160
1,note_on,66,0,0
1,note_on,62,0,0
1,note_on,60,68,0
1,note_on,72,95,0
1,note_on,72,0,160
1,note_on,60,0,0
1,note_on,58,68,0
1,note_on,70,95,0
1,note_on,70,0,160
1,note_on,58,0,0
1,note_on,62,68,160
1,note_on,65,80,0
1,note_on,74,95,0
1,note_on,74,0,160
1,note_on,65,0,0
1,note_on,62,0,0
1,note_on,62,68,0
1,note_on,65,80,0
1,note_on,74,95,0
1,note_on,74,0,160
1,note_on,65,0,0
1,note_on,62,0,0
1,note_on,62,72,0
1,note_on,65,85,0
1,note_on,74,101,0
1,note_on,74,0,160
1,note_on,65,0,0
1,note_on,62,0,0
1,note_on,60,68,0
1,note_on,72,95,0
1,note_on,72,0,160
1,note_on,60,0,0
1,note_on,58,68,0
1,note_on,70,95,0
1,note_on,70,0,160
1,note_on,58,0,0
1,note_on,63,80,160
1,note_on,74,95,0
1,note_on,74,0,160
1,note_on,63,0,0
1,note_on,63,80,0
1,note_on,74,95,0
1,note_on,74,0,160
1,note_on,63,0,0
1,note_on,63,85,0
1,note_on,74,101,0
1,note_on,74,0,160
1,note_on,72,95,0
1,note_on,72,0,160
1,note_on,70,95,0
1,note_on,70,0,160
1,note_on,63,0,0
1,note_on,62,84,0
1,note_on,65,84,0
1,note_on,70,101,0
1,note_on,74,101,0
1,note_on,74,0,960
1,note_on,62,0,0
1,note_on,65,0,0
1,note_on,70,0,0
1,note_on,62,71,0
1,note_on,65,71,0
1,note_on,70,84,0
1,note_on,74,84,0
1,note_on,74,0,480
1,note_on,62,0,0
1,note_on,65,0,0
1,note_on,70,0,0
1,note_on,62,69,0
1,note_on,65,69,0
1,note_on,71,83,0
1,note_on,74,83,0
1,note_on,74,0,480
1,note_on,62,0,0
1,note_on,65,0,0
1,note_on,71,0,0
1,note_on,62,69,0
1,note_on,65,69,0
1,note_on,70,82,0
1,note_on,74,82,0
1,note_on,74,0,480
1,note_on,62,0,0
1,note_on,65,0,0
1,note_on,70,0,0
1,note_on,62,68,0
1,note_on,65,68,0
1,note_on,71,82,0
1,note_on,74,82,0
1,note_on,74,0,480
1,note_on,62,0,0
1,note_on,65,0,0
1,note_on,71,0,0
1,note_on,63,74,0
1,note_on,66,74,0
1,note_on,71,88,0
1,note_on,75,88,0
1,note_on,75,0,480
1,note_on,63,0,0
1,note_on,66,0,0
1,note_on,71,0,0
1,note_on,63,72,0
1,note_on,66,72,0
1,note_on,72,88,0
1,note_on,75,88,0
1,note_on,75,0,480
1,note_on,63,0,0
1,note_on,66,0,0
1,note_on,72,0,0
1,note_on,64,74,0
1,note_on,67,74,0
1,note_on,72,88,0
1,note_on,76,88,0
1,note_on,76,0,480
1,note_on,64,0,0
1,note_on,67,0,0
1,note_on,72,0,0
1,note_on,64,73,0
1,note_on,67,73,0
1,note_on,73,87,0
1,note_on,76,87,0
1,note_on,76,0,480
1,note_on,64,0,0
1,note_on,67,0,0
1,note_on,73,0,0
1,note_on,65,76,0
1,note_on,68,76,0
1,note_on,73,93,0
1,note_on,77,93,0
1,note_on,77,0,480
1,note_on,65,0,0
1,note_on,68,0,0
1,note_on,73,0,0
1,note_on,65,76,0
1,note_on,69,76,0
1,note_on,75,92,0
1,note_on,77,92,0
1,note_on,77,0,480
1,note_on,65,0,0
1,note_on,69,0,0
1,note_on,75,0,0
1,note_on,65,78,0
1,note_on,70,93,0
1,note_on,77,93,0
1,note_on,77,0,480
1,note_on,70,0,0
1,note_on,65,0,0
1,note_on,66,79,0
1,note_on,70,94,0
1,note_on,78,94,0
1,note_on,78,0,480
1,note_on,70,0,0
1,note_on,66,0,0
1,note_on,70,79,0
1,note_on,72,79,0
1,note_on,75,95,0
1,note_on,82,95,0
1,note_on,82,0,480
1,note_on,70,0,0
1,note_on,72,0,0
1,note_on,75,0,0
1,note_on,69,77,0
1,note_on,72,77,0
1,note_on,75,93,0
1,note_on,81,93,0
1,note_on,81,0,480
1,note_on,69,0,0
1,note_on,72,0,0
1,note_on,75,0,0
1,note_on,70,85,0
1,note_on,74,102,0
1,note_on,82,102,0
1,note_on,82,0,480
1,note_on,74,0,0
1,note_on,70,0,0
1,note_on,70,84,0
1,note_on,75,84,0
1,note_on,78,101,0
1,note_on,82,101,0
1,note_on,82,0,480
1,note_on,70,0,0
1,note_on,75,0,0
1,note_on,78,0,0
1,note_on,70,85,0
1,note_on,74,85,0
1,note_on,77,101,0
1,note_on,82,101,0
1,note_on,82,0,480
1,note_on,70,0,0
1,note_on,74,0,0
1,note_on,77,0,0
1,note_on,70,85,0
1,note_on,75,85,0
1,note_on,78,101,0
1,note_on,82,101,0
1,note_on,82,0,480
1,note_on,70,0,0
1,note_on,75,0,0
1,note_on,78,0,0
1,note_on,70,91,0
1,note_on,74,91,0
1,note_on,77,108,0
1,note_on,82,108,0
1,note_on,82,0,960
1,note_on,70,0,0
1,note_on,74,0,0
1,note_on,77,0,0
1,note_on,82,100,0
1,note_on,94,117,0
1,note_on,94,0,960
1,note_on,82,0,0
1,note_on,62,105,0
1,note_on,62,0,960
2,note_on,37,76,0
2,note_on,49,90,0
2,note_on,49,0,1680
2,note_on,37,0,0
2,note_on,28,76,0
2,note_on,40,90,0
2,note_on,40,0,240
2,note_on,28,0,0
2,note_on,28,76,0
2,note_on,40,90,0
2,note_on,49,76,960
2,note_on,61,90,0
2,note_on,56,76,0
2,note_on,56,0,960
2,note_on,49,0,0
2,note_on,28,0,0
2,note_on,40,0,0
2,note_on,61,0,0
2,note_on,49,72,0
2,note_on,49,0,120
2,note_on,49,65,0
2,note_on,51,79,120
2,note_on,57,81,120
2,note_on,29,85,120
2,note_on,41,85,0
2,note_on,61,85,0
2,note_on,61,0,1440
2,note_on,49,0,0
2,note_on,48,64,0
2,note_on,60,64,0
2,note_on,60,0,1920
2,note_on,57,0,0
2,note_on,41,0,0
2,note_on,51,0,0
2,note_on,48,0,0
2,note_on,29,0,0
2,note_on,34,44,0
2,note_on,46,52,0
2,note_on,46,0,120
2,note_on,34,0,0
2,note_on,53,29,0
2,note_on,53,0,120
2,note_on,49,22,0
2,note_on,61,26,0
2,note_on,58,22,0
2,note_on,58,0,120
2,note_on,61,0,0
2,note_on,49,0,0
2,note_on,41,33,0
2,note_on,41,0,120
2,note_on,34,25,0
2,note_on,46,29,0
2,note_on,46,0,120
2,note_on,34,0,0
2,note_on,53,29,0
2,note_on,53,0,120
2,note_on,49,23,0
2,note_on,61,27,0
2,note_on,58,23,0
2,note_on,58,0,120
2,note_on,61,0,0
2,note_on,49,0,0
2,note_on,41,35,0
2,note_on,41,0,120
2,note_on,34,27,0
2,note_on,46,33,0
2,note_on,46,0,120
2,note_on,34,0,0
2,note_on,53,30,0
2,note_on,53,0,120
2,note_on,49,24,0
2,note_on,61,29,0
2,note_on,58,24,0
2,note_on,58,0,120
2,note_on,61,0,0
2,note_on,49,0,0
2,note_on,41,35,0
2,note_on,41,0,120
2,note_on,34,28,0
2,note_on,46,34,0
2,note_on,46,0,120
2,note_on,34,0,0
2,note_on,53,35,0
2,note_on,53,0,120
2,note_on,49,26,0
2,note_on,61,31,0
2,note_on,58,26,0
2,note_on,58,0,120
2,note_on,61,0,0
2,note_on,49,0,0
2,note_on,41,39,0
2,note_on,41,0,120
2,note_on,34,30,0
2,note_on,46,38,0
2,note_on,46,0,120
2,note_on,34,0,0
2,note_on,53,35,0
2,note_on,53,0,120
2,note_on,49,28,0
2,note_on,61,34,0
2,note_on,58,28,0
2,note_on,58,0,120
2,note_on,61,0,0
2,note_on,49,0,0
2,note_on,41,39,0
2,note_on,41,0,120
2,note_on,34,29,0
2,note_on,46,35,0
2,note_on,46,0,120
2,note_on,34,0,0
2,note_on,53,34,0
2,note_on,53,0,120
2,note_on,49,25,0
2,note_on,61,30,0
2,note_on,58,25,0
2,note_on,58,0,120
2,note_on,61,0,0
2,note_on,49,0,0
2,note_on,41,36,0
2,note_on,41,0,120
2,note_on,34,27,0
2,note_on,46,33,0
2,note_on,46,0,120
2,note_on,34,0,0
2,note_on,53,30,0
2,note_on,53,0,120
2,note_on,49,24,0
2,note_on,61,29,0
2,note_on,58,24,0
2,note_on,58,0,120
2,note_on,61,0,0
2,note_on,49,0,0
2,note_on,41,35,0
2,note_on,41,0,120
2,note_on,34,25,0
2,note_on,46,29,0
2,note_on,46,0,120
2,note_on,34,0,0
2,note_on,53,29,0
2,note_on,53,0,120
2,note_on,49,24,0
2,note_on,61,28,0
2,note_on,58,24,0
2,note_on,58,0,120
2,note_on,61,0,0
2,note_on,49,0,0
2,note_on,53,33,0
2,note_on,53,0,120
2,note_on,46,35,0
2,note_on,46,0,120
2,note_on,53,34,0
2,note_on,53,0,120
2,note_on,61,30,0
2,note_on,58,30,0
2,note_on,58,0,120
2,note_on,61,0,0
2,note_on,53,31,0
2,note_on,53,0,120
2,note_on,46,35,0
2,note_on,46,0,120
2,note_on,53,33,0
2,note_on,53,0,120
2,note_on,61,31,0
2,note_on,58,31,0
2,note_on,58,0,120
2,note_on,61,0,0
2,note_on,53,31,0
2,note_on,53,0,120
2,note_on,46,35,0
2,note_on,46,0,120
2,note_on,53,34,0
2,note_on,53,0,120
2,note_on,61,31,0
2,note_on,58,31,0
2,note_on,58,0,120
2,note_on,61,0,0
2,note_on,53,31,0
2,note_on,53,0,120
2,note_on,46,35,0
2,note_on,46,0,120
2,note_on,53,33,0
2,note_on,53,0,120
2,note_on,61,31,0
2,note_on,58,31,0
2,note_on,58,0,120
2,note_on,61,0,0
2,note_on,53,31,0
2,note_on,53,0,120
2,note_on,46,35,0
2,note_on,46,0,120
2,note_on,53,33,0
2,note_on,53,0,120
2,note_on,61,31,0
2,note_on,58,31,0
2,note_on,58,0,120
2,note_on,61,0,0
2,note_on,53,33,0
2,note_on,53,0,120
2,note_on,46,37,0
2,note_on,46,0,120
2,note_on,53,35,0
2,note_on,53,0,120
2,note_on,61,34,0
2,note_on,58,34,0
2,note_on,58,0,120
2,note_on,61,0,0
2,note_on,53,34,0
2,note_on,53,0,120
2,note_on,48,35,0
2,note_on,48,0,120
2,note_on,54,34,0
2,note_on,54,0,120
2,note_on,63,30,0
2,note_on,57,30,0
2,note_on,57,0,120
2,note_on,63,0,0
2,note_on,54,31,0
2,note_on,54,0,120
2,note_on,48,35,0
2,note_on,48,0,120
2,note_on,54,33,0
2,note_on,54,0,120
2,note_on,63,31,0
2,note_on,57,31,0
2,note_on,57,0,120
2,note_on,63,0,0
2,note_on,54,31,0
2,note_on,54,0,120
2,note_on,48,35,0
2,note_on,48,0,120
2,note_on,51,34,0
2,note_on,51,0,120
2,note_on,63,30,0
2,note_on,57,30,0
2,note_on,57,0,120
2,note_on,63,0,0
2,note_on,51,31,0
2,note_on,51,0,120
2,note_on,48,35,0
2,note_on,48,0,120
2,note_on,54,33,0
2,note_on,54,0,120
2,note_on,63,31,0
2,note_on,57,31,0
2,note_on,57,0,120
2,note_on,63,0,0
2,note_on,54,31,0
2,note_on,54,0,120
2,note_on,48,35,0
2,note_on,48,0,120
2,note_on,51,34,0
2,note_on,51,0,120
2,note_on,63,30,0
2,note_on,57,30,0
2,note_on,57,0,120
2,note_on,63,0,0
2,note_on,51,31,0
2,note_on,51,0,120
2,note_on,48,35,0
2,note_on,48,0,120
2,note_on,54,33,0
2,note_on,54,0,120
2,note_on,63,31,0
2,note_on,57,31,0
2,note_on,57,0,120
2,note_on,63,0,0
2,note_on,54,31,0
2,note_on,54,0,120
2,note_on,48,35,0
2,note_on,48,0,120
2,note_on,51,35,0
2,note_on,51,0,120
2,note_on,63,34,0
2,note_on,57,34,0
2,note_on,57,0,120
2,note_on,63,0,0
2,note_on,51,35,0
2,note_on,51,0,120
2,note_on,48,39,0
2,note_on,48,0,120
2,note_on,54,37,0
2,note_on,54,0,120
2,note_on,63,37,0
2,note_on,57,37,0
2,note_on,57,0,120
2,note_on,63,0,0
2,note_on,54,38,0
2,note_on,54,0,120
2,note_on,49,35,0
2,note_on,49,0,120
2,note_on,53,34,0
2,note_on,53,0,120
2,note_on,65,30,0
2,note_on,57,30,0
2,note_on,57,0,120
2,note_on,65,0,0
2,note_on,53,31,0
2,note_on,53,0,120
2,note_on,49,35,0
2,note_on,49,0,120
2,note_on,53,33,0
2,note_on,53,0,120
2,note_on,65,31,0
2,note_on,58,31,0
2,note_on,58,0,120
2,note_on,65,0,0
2,note_on,53,31,0
2,note_on,53,0,120
2,note_on,52,56,0
2,note_on,52,0,120
2,note_on,61,53,0
2,note_on,61,0,120
2,note_on,67,50,0
2,note_on,67,0,120
2,note_on,52,51,0
2,note_on,52,0,120
2,note_on,53,56,0
2,note_on,53,0,120
2,note_on,60,52,0
2,note_on,60,0,120
2,note_on,69,58,0
2,note_on,69,0,120
2,note_on,53,51,0
2,note_on,53,0,120
2,note_on,45,33,0
2,note_on,45,0,120
2,note_on,54,30,0
2,note_on,54,0,120
2,note_on,63,29,0
2,note_on,63,0,120
2,note_on,45,29,0
2,note_on,45,0,120
2,note_on,46,33,0
2,note_on,46,0,120
2,note_on,53,30,0
2,note_on,53,0,120
2,note_on,61,29,0
2,note_on,61,0,120
2,note_on,46,29,0
2,note_on,46,0,120
2,note_on,52,56,0
2,note_on,52,0,120
2,note_on,61,53,0
2,note_on,61,0,120
2,note_on,67,50,0
2,note_on,67,0,120
2,note_on,52,51,0
2,note_on,52,0,120
2,note_on,53,56,0
2,note_on,53,0,120
2,note_on,60,52,0
2,note_on,60,0,120
2,note_on,69,58,0
2,note_on,69,0,120
2,note_on,53,51,0
2,note_on,53,0,120
2,note_on,45,33,0
2,note_on,45,0,120
2,note_on,54,30,0
2,note_on,54,0,120
2,note_on,63,29,0
2,note_on,63,0,120
2,note_on,45,29,0
2,note_on,45,0,120
2,note_on,46,33,0
2,note_on,46,0,120
2,note_on,53,30,0
2,note_on,53,0,120
2,note_on,61,29,0
2,note_on,61,0,120
2,note_on,46,29,0
2,note_on,46,0,120
2,note_on,43,56,0
2,note_on,43,0,120
2,note_on,48,53,0
2,note_on,48,0,120
2,note_on,49,50,0
2,note_on,49,0,120
2,note_on,58,49,0
2,note_on,58,0,120
2,note_on,43,52,0
2,note_on,43,0,120
2,note_on,48,49,0
2,note_on,48,0,120
2,note_on,49,49,0
2,note_on,49,0,120
2,note_on,58,49,0
2,note_on,58,0,120
2,note_on,43,47,0
2,note_on,43,0,120
2,note_on,48,45,0
2,note_on,48,0,120
2,note_on,49,42,0
2,note_on,49,0,120
2,note_on,58,44,0
2,note_on,58,0,120
2,note_on,45,49,0
2,note_on,45,0,120
2,note_on,50,44,0
2,note_on,50,0,120
2,note_on,51,46,0
2,note_on,51,0,120
2,note_on,60,44,0
2,note_on,60,0,120
2,note_on,47,47,0
2,note_on,47,0,120
2,note_on,52,45,0
2,note_on,52,0,120
2,note_on,53,42,0
2,note_on,53,0,120
2,note_on,62,44,0
2,note_on,62,0,120
2,note_on,48,49,0
2,note_on,48,0,120
2,note_on,54,39,0
2,note_on,54,0,120
2,note_on,55,40,0
2,note_on,55,0,120
2,note_on,63,39,0
2,note_on,63,0,120
2,note_on,46,52,0
2,note_on,46,0,120
2,note_on,53,45,0
2,note_on,53,0,120
2,note_on,54,41,0
2,note_on,54,0,120
2,note_on,63,42,0
2,note_on,63,0,120
2,note_on,45,52,0
2,note_on,45,0,120
2,note_on,52,41,0
2,note_on,52,0,120
2,note_on,53,42,0
2,note_on,53,0,120
2,note_on,63,41,0
2,note_on,63,0,120
2,note_on,46,51,0
2,note_on,46,0,120
2,note_on,53,44,0
2,note_on,53,0,120
2,note_on,58,47,0
2,note_on,58,0,120
2,note_on,41,48,0
2,note_on,41,0,120
2,note_on,46,51,0
2,note_on,46,0,120
2,note_on,53,43,0
2,note_on,53,0,120
2,note_on,58,48,0
2,note_on,58,0,120
2,note_on,41,48,0
2,note_on,41,0,120
2,note_on,46,51,0
2,note_on,46,0,120
2,note_on,53,44,0
2,note_on,53,0,120
2,note_on,58,48,0
2,note_on,58,0,120
2,note_on,41,48,0
2,note_on,41,0,120
2,note_on,46,51,0
2,note_on,46,0,120
2,note_on,53,43,0
2,note_on,53,0,120
2,note_on,58,48,0
2,note_on,58,0,120
2,note_on,41,48,0
2,note_on,41,0,120
2,note_on,46,51,0
2,note_on,46,0,120
2,note_on,53,49,0
2,note_on,53,0,120
2,note_on,58,48,0
2,note_on,58,0,120
2,note_on,41,49,0
2,note_on,41,0,120
2,note_on,46,54,0
2,note_on,46,0,120
2,note_on,53,51,0
2,note_on,53,0,120
2,note_on,61,50,0
2,note_on,61,0,120
2,note_on,49,50,0
2,note_on,49,0,120
2,note_on,48,51,0
2,note_on,48,0,120
2,note_on,54,44,0
2,note_on,54,0,120
2,note_on,63,47,0
2,note_on,63,0,120
2,note_on,48,48,0
2,note_on,48,0,120
2,note_on,54,51,0
2,note_on,54,0,120
2,note_on,57,43,0
2,note_on,57,0,120
2,note_on,63,48,0
2,note_on,63,0,120
2,note_on,48,48,0
2,note_on,48,0,120
2,note_on,51,51,0
2,note_on,51,0,120
2,note_on,57,44,0
2,note_on,57,0,120
2,note_on,63,47,0
2,note_on,63,0,120
2,note_on,48,48,0
2,note_on,48,0,120
2,note_on,54,51,0
2,note_on,54,0,120
2,note_on,57,43,0
2,note_on,57,0,120
2,note_on,63,48,0
2,note_on,63,0,120
2,note_on,48,48,0
2,note_on,48,0,120
2,note_on,51,51,0
2,note_on,51,0,120
2,note_on,57,44,0
2,note_on,57,0,120
2,note_on,63,47,0
2,note_on,63,0,120
2,note_on,48,48,0
2,note_on,48,0,120
2,note_on,54,51,0
2,note_on,54,0,120
2,note_on,57,43,0
2,note_on,57,0,120
2,note_on,63,48,0
2,note_on,63,0,120
2,note_on,48,48,0
2,note_on,48,0,120
2,note_on,51,52,0
2,note_on,51,0,120
2,note_on,57,46,0
2,note_on,57,0,120
2,note_on,63,50,0
2,note_on,63,0,120
2,note_on,48,51,0
2,note_on,48,0,120
2,note_on,54,57,0
2,note_on,54,0,120
2,note_on,57,54,0
2,note_on,57,0,120
2,note_on,63,54,0
2,note_on,63,0,120
2,note_on,48,55,0
2,note_on,48,0,120
2,note_on,49,51,0
2,note_on,49,0,120
2,note_on,57,50,0
2,note_on,57,0,120
2,note_on,65,47,0
2,note_on,65,0,120
2,note_on,53,48,0
2,note_on,53,0,120
2,note_on,58,51,0
2,note_on,58,0,120
2,note_on,61,49,0
2,note_on,61,0,120
2,note_on,65,48,0
2,note_on,65,0,120
2,note_on,49,48,0
2,note_on,49,0,120
2,note_on,52,61,0
2,note_on,52,0,120
2,note_on,61,59,0
2,note_on,61,0,120
2,note_on,67,55,0
2,note_on,67,0,120
2,note_on,52,57,0
2,note_on,52,0,120
2,note_on,53,61,0
2,note_on,53,0,120
2,note_on,60,58,0
2,note_on,60,0,120
2,note_on,69,57,0
2,note_on,69,0,120
2,note_on,53,57,0
2,note_on,53,0,120
2,note_on,45,48,0
2,note_on,45,0,120
2,note_on,54,44,0
2,note_on,54,0,120
2,note_on,63,44,0
2,note_on,63,0,120
2,note_on,45,44,0
2,note_on,45,0,120
2,note_on,46,48,0
2,note_on,46,0,120
2,note_on,53,44,0
2,note_on,53,0,120
2,note_on,61,44,0
2,note_on,61,0,120
2,note_on,46,44,0
2,note_on,46,0,120
2,note_on,52,61,0
2,note_on,52,0,120
2,note_on,61,59,0
2,note_on,61,0,120
2,note_on,67,55,0
2,note_on,67,0,120
2,note_on,52,57,0
2,note_on,52,0,120
2,note_on,53,61,0
2,note_on,53,0,120
2,note_on,60,58,0
2,note_on,60,0,120
2,note_on,69,57,0
2,note_on,69,0,120
2,note_on,53,57,0
2,note_on,53,0,120
2,note_on,50,61,0
2,note_on,50,0,120
2,note_on,59,58,0
2,note_on,59,0,120
2,note_on,65,55,0
2,note_on,65,0,120
2,note_on,50,55,0
2,note_on,50,0,120
2,note_on,51,61,0
2,note_on,51,0,120
2,note_on,58,57,0
2,note_on,58,0,120
2,note_on,66,55,0
2,note_on,66,0,120
2,note_on,51,55,0
2,note_on,51,0,120
2,note_on,39,69,0
2,note_on,39,0,120
2,note_on,46,59,0
2,note_on,46,0,120
2,note_on,58,71,0
2,note_on,58,0,120
2,note_on,46,59,0
2,note_on,46,0,120
2,note_on,41,69,0
2,note_on,41,0,120
2,note_on,46,59,0
2,note_on,46,0,120
2,note_on,58,69,0
2,note_on,58,0,120
2,note_on,46,59,0
2,note_on,46,0,120
2,note_on,42,69,0
2,note_on,42,0,120
2,note_on,46,59,0
2,note_on,46,0,120
2,note_on,58,68,0
2,note_on,58,0,120
2,note_on,46,59,0
2,note_on,46,0,120
2,note_on,43,68,0
2,note_on,43,0,120
2,note_on,51,59,0
2,note_on,51,0,120
2,note_on,63,68,0
2,note_on,63,0,120
2,note_on,51,59,0
2,note_on,51,0,120
2,note_on,44,52,0
2,note_on,51,57,0
2,note_on,58,68,0
2,note_on,58,0,120
2,note_on,51,0,0
2,note_on,44,0,0
2,note_on,44,39,120
2,note_on,51,46,0
2,note_on,56,56,0
2,note_on,56,0,120
2,note_on,51,0,0
2,note_on,44,0,0
2,note_on,34,38,360
2,note_on,46,46,0
2,note_on,46,0,240
2,note_on,34,0,0
2,note_on,35,41,0
2,note_on,47,49,0
2,note_on,47,0,480
2,note_on,35,0,0
2,note_on,36,39,0
2,note_on,48,46,0
2,note_on,48,0,360
2,note_on,36,0,0
2,note_on,37,31,120
2,note_on,49,37,0
2,note_on,37,0,960
2,note_on,49,0,480
2,note_on,42,39,0
2,note_on,42,0,480
2,note_on,44,36,0
2,note_on,44,0,1200
2,note_on,45,37,0
2,note_on,45,0,240
2,note_on,46,39,0
2,note_on,46,0,240
2,note_on,44,37,0
2,note_on,44,0,240
2,note_on,37,33,0
2,note_on,37,0,960
2,note_on,49,39,0
2,note_on,49,0,480
2,note_on,42,39,0
2,note_on,42,0,480
2,note_on,44,29,0
2,note_on,44,0,1200
2,note_on,45,37,0
2,note_on,45,0,240
2,note_on,48,35,0
2,note_on,48,0,160
2,note_on,46,34,0
2,note_on,46,0,160
2,note_on,44,34,0
2,note_on,44,0,160
2,note_on,37,41,0
2,note_on,37,0,480
2,note_on,55,44,0
2,note_on,55,0,480
2,note_on,44,37,0
2,note_on,54,44,0
2,note_on,54,0,480
2,note_on,58,44,0
2,note_on,58,0,360
2,note_on,56,49,0
2,note_on,56,0,120
2,note_on,44,0,0
2,note_on,49,39,0
2,note_on,56,42,0
2,note_on,56,0,480
2,note_on,49,0,0
2,note_on,55,44,0
2,note_on,55,0,480
2,note_on,44,37,0
2,note_on,54,44,0
2,note_on,44,0,480
2,note_on,42,37,0
2,note_on,42,0,420
2,note_on,41,41,0
2,note_on,54,0,60
2,note_on,57,49,0
2,note_on,57,0,480
2,note_on,41,0,0
2,note_on,33,40,0
2,note_on,45,48,0
2,note_on,45,0,480
2,note_on,33,0,0
2,note_on,34,41,0
2,note_on,46,49,0
2,note_on,46,0,480
2,note_on,34,0,0
2,note_on,36,41,0
2,note_on,48,49,0
2,note_on,48,0,360
2,note_on,36,0,0
2,note_on,37,37,0
2,note_on,49,45,0
2,note_on,49,0,120
2,note_on,37,0,0
2,note_on,38,41,0
2,note_on,50,49,0
2,note_on,50,0,480
2,note_on,38,0,0
2,note_on,39,41,0
2,note_on,51,49,0
2,note_on,51,0,360
2,note_on,39,0,0
2,note_on,41,37,0
2,note_on,53,45,0
2,note_on,53,0,120
2,note_on,41,0,0
2,note_on,42,41,0
2,note_on,54,49,0
2,note_on,54,0,480
2,note_on,42,0,0
2,note_on,44,45,0
2,note_on,44,0,480
2,note_on,37,39,0
2,note_on,37,0,160
2,note_on,55,33,0
2,note_on,55,0,160
2,note_on,56,31,0
2,note_on,56,0,160
2,note_on,58,37,0
2,note_on,58,0,160
2,note_on,56,31,0
2,note_on,56,0,160
2,note_on,44,31,0
2,note_on,44,0,160
2,note_on,49,39,0
2,note_on,49,0,160
2,note_on,55,35,0
2,note_on,55,0,160
2,note_on,56,35,0
2,note_on,56,0,160
2,note_on,58,37,0
2,note_on,58,0,160
2,note_on,56,33,0
2,note_on,56,0,160
2,note_on,44,33,0
2,note_on,44,0,160
2,note_on,51,39,0
2,note_on,51,0,160
2,note_on,55,35,0
2,note_on,55,0,160
2,note_on,56,35,0
2,note_on,56,0,160
2,note_on,58,37,0
2,note_on,58,0,160
2,note_on,56,33,0
2,note_on,56,0,160
2,note_on,44,33,0
2,note_on,44,0,160
2,note_on,54,39,0
2,note_on,54,0,160
2,note_on,55,35,0
2,note_on,55,0,160
2,note_on,56,35,0
2,note_on,56,0,160
2,note_on,58,37,0
2,note_on,58,0,160
2,note_on,56,33,0
2,note_on,56,0,160
2,note_on,44,33,0
2,note_on,44,0,160
2,note_on,49,39,0
2,note_on,49,0,120
2,note_on,55,34,120
2,note_on,55,0,120
2,note_on,56,33,0
2,note_on,56,0,120
2,note_on,58,37,0
2,note_on,58,0,120
2,note_on,56,31,0
2,note_on,56,0,108
2,note_on,56,37,12
2,note_on,56,0,120
2,note_on,44,37,0
2,note_on,44,0,120
2,note_on,49,39,0
2,note_on,49,0,120
2,note_on,55,35,120
2,note_on,55,0,120
2,note_on,56,35,0
2,note_on,56,0,120
2,note_on,58,37,0
2,note_on,58,0,120
2,note_on,56,33,0
2,note_on,56,0,108
2,note_on,56,37,12
2,note_on,56,0,120
2,note_on,44,31,0
2,note_on,44,0,120
2,note_on,51,39,0
2,note_on,51,0,120
2,note_on,55,35,120
2,note_on,55,0,120
2,note_on,56,35,0
2,note_on,56,0,120
2,note_on,58,37,0
2,note_on,58,0,120
2,note_on,56,33,0
2,note_on,56,0,108
2,note_on,56,37,12
2,note_on,56,0,120
2,note_on,44,33,0
2,note_on,44,0,120
2,note_on,54,39,0
2,note_on,54,0,240
2,note_on,55,35,0
2,note_on,55,0,120
2,note_on,56,35,0
2,note_on,56,0,120
2,note_on,58,39,0
2,note_on,58,0,120
2,note_on,56,35,0
2,note_on,56,0,108
2,note_on,56,39,12
2,note_on,56,0,120
2,note_on,44,35,0
2,note_on,44,0,120
2,note_on,49,44,0
2,note_on,49,0,120
2,note_on,56,39,0
2,note_on,56,0,120
2,note_on,58,39,0
2,note_on,58,0,120
2,note_on,56,39,0
2,note_on,56,0,120
2,note_on,65,44,0
2,note_on,65,0,120
2,note_on,56,40,0
2,note_on,56,0,120
2,note_on,58,40,0
2,note_on,58,0,120
2,note_on,56,41,0
2,note_on,56,0,120
2,note_on,44,45,0
2,note_on,44,0,120
2,note_on,56,40,0
2,note_on,56,0,120
2,note_on,58,41,0
2,note_on,58,0,120
2,note_on,56,41,0
2,note_on,56,0,120
2,note_on,66,47,0
2,note_on,66,0,120
2,note_on,56,44,0
2,note_on,56,0,120
2,note_on,58,44,0
2,note_on,58,0,120
2,note_on,56,44,0
2,note_on,56,0,120
2,note_on,49,48,0
2,note_on,49,0,120
2,note_on,56,42,0
2,note_on,56,0,120
2,note_on,58,42,0
2,note_on,58,0,120
2,note_on,56,42,0
2,note_on,56,0,120
2,note_on,65,49,0
2,note_on,65,0,120
2,note_on,56,46,0
2,note_on,56,0,120
2,note_on,58,46,0
2,note_on,58,0,120
2,note_on,56,46,0
2,note_on,56,0,120
2,note_on,44,50,0
2,note_on,44,0,120
2,note_on,56,46,0
2,note_on,56,0,120
2,note_on,58,46,0
2,note_on,58,0,120
2,note_on,56,46,0
2,note_on,56,0,120
2,note_on,66,52,0
2,note_on,66,0,120
2,note_on,56,49,0
2,note_on,56,0,120
2,note_on,58,49,0
2,note_on,58,0,120
2,note_on,56,49,0
2,note_on,56,0,120
2,note_on,45,57,0
2,note_on,45,0,120
2,note_on,52,51,0
2,note_on,52,0,120
2,note_on,53,51,0
2,note_on,53,0,120
2,note_on,60,51,0
2,note_on,60,0,120
2,note_on,57,58,0
2,note_on,57,0,120
2,note_on,64,53,0
2,note_on,64,0,120
2,note_on,65,53,0
2,note_on,65,0,120
2,note_on,72,53,0
2,note_on,72,0,120
2,note_on,46,59,0
2,note_on,46,0,120
2,note_on,52,52,0
2,note_on,52,0,120
2,note_on,53,52,0
2,note_on,53,0,120
2,note_on,61,53,0
2,note_on,61,0,120
2,note_on,58,60,0
2,note_on,58,0,120
2,note_on,64,55,0
2,note_on,64,0,120
2,note_on,65,55,0
2,note_on,65,0,120
2,note_on,73,56,0
2,note_on,73,0,120
2,note_on,48,61,0
2,note_on,48,0,120
2,note_on,55,55,0
2,note_on,55,0,120
2,note_on,56,55,0
2,note_on,56,0,120
2,note_on,63,55,0
2,note_on,63,0,120
2,note_on,60,62,0
2,note_on,60,0,120
2,note_on,67,57,0
2,note_on,67,0,120
2,note_on,68,57,0
2,note_on,68,0,120
2,note_on,75,57,0
2,note_on,75,0,120
2,note_on,50,62,0
2,note_on,50,0,120
2,note_on,57,56,0
2,note_on,57,0,120
2,note_on,58,57,0
2,note_on,58,0,120
2,note_on,65,57,0
2,note_on,65,0,120
2,note_on,62,63,0
2,note_on,62,0,120
2,note_on,69,58,0
2,note_on,69,0,120
2,note_on,70,59,0
2,note_on,70,0,120
2,note_on,39,59,120
2,note_on,39,0,120
2,note_on,46,52,0
2,note_on,46,0,120
2,note_on,51,52,0
2,note_on,51,0,120
2,note_on,58,52,0
2,note_on,58,0,120
2,note_on,41,59,0
2,note_on,41,0,120
2,note_on,46,52,0
2,note_on,46,0,120
2,note_on,50,52,0
2,note_on,50,0,120
2,note_on,56,52,0
2,note_on,56,0,120
2,note_on,42,62,0
2,note_on,42,0,120
2,note_on,46,52,0
2,note_on,46,0,120
2,note_on,51,52,0
2,note_on,51,0,120
2,note_on,58,52,0
2,note_on,58,0,120
2,note_on,43,61,0
2,note_on,43,0,120
2,note_on,49,52,0
2,note_on,49,0,120
2,note_on,52,52,0
2,note_on,52,0,120
2,note_on,58,52,0
2,note_on,58,0,120
2,note_on,44,59,0
2,note_on,44,0,120
2,note_on,49,52,0
2,note_on,49,0,120
2,note_on,53,52,0
2,note_on,53,0,120
2,note_on,61,52,0
2,note_on,61,0,120
2,note_on,46,58,0
2,note_on,46,0,120
2,note_on,49,52,0
2,note_on,49,0,120
2,note_on,54,52,0
2,note_on,54,0,120
2,note_on,61,52,0
2,note_on,61,0,120
2,note_on,44,52,0
2,note_on,44,0,120
2,note_on,51,47,0
2,note_on,51,0,120
2,note_on,56,47,0
2,note_on,56,0,120
2,note_on,61,47,0
2,note_on,61,0,120
2,note_on,42,55,0
2,note_on,42,0,120
2,note_on,48,47,0
2,note_on,48,0,120
2,note_on,51,47,0
2,note_on,51,0,120
2,note_on,56,47,0
2,note_on,56,0,120
2,note_on,41,55,0
2,note_on,41,0,120
2,note_on,44,47,0
2,note_on,44,0,120
2,note_on,49,47,0
2,note_on,49,0,120
2,note_on,56,47,0
2,note_on,56,0,120
2,note_on,46,56,0
2,note_on,46,0,120
2,note_on,49,47,0
2,note_on,49,0,120
2,note_on,54,47,0
2,note_on,54,0,120
2,note_on,61,47,0
2,note_on,61,0,120
2,note_on,45,55,0
2,note_on,45,0,120
2,note_on,49,47,0
2,note_on,49,0,120
2,note_on,54,47,0
2,note_on,54,0,120
2,note_on,61,47,0
2,note_on,61,0,120
2,note_on,44,51,0
2,note_on,44,0,120
2,note_on,51,47,0
2,note_on,51,0,120
2,note_on,60,47,0
2,note_on,60,0,120
2,note_on,42,47,0
2,note_on,42,0,120
2,note_on,41,56,0
2,note_on,41,0,120
2,note_on,44,47,0
2,note_on,44,0,120
2,note_on,49,46,0
2,note_on,49,0,120
2,note_on,56,46,0
2,note_on,56,0,120
2,note_on,46,53,0
2,note_on,46,0,120
2,note_on,49,45,0
2,note_on,49,0,120
2,note_on,54,44,0
2,note_on,54,0,120
2,note_on,61,44,0
2,note_on,61,0,120
2,note_on,44,50,0
2,note_on,44,0,120
2,note_on,51,42,0
2,note_on,51,0,120
2,note_on,56,42,0
2,note_on,56,0,120
2,note_on,61,41,0
2,note_on,61,0,120
2,note_on,44,49,0
2,note_on,44,0,120
2,note_on,51,41,0
2,note_on,51,0,120
2,note_on,56,40,0
2,note_on,56,0,120
2,note_on,60,40,0
2,note_on,60,0,120
2,note_on,49,56,0
2,note_on,56,56,0
2,note_on,61,66,0
2,note_on,61,0,160
2,note_on,56,0,0
2,note_on,49,0,0
2,note_on,51,42,0
2,note_on,55,42,0
2,note_on,61,51,0
2,note_on,61,0,80
2,note_on,55,0,0
2,note_on,51,0,0
2,note_on,51,42,80
2,note_on,55,42,0
2,note_on,61,51,0
2,note_on,61,0,80
2,note_on,55,0,0
2,note_on,51,0,0
2,note_on,51,46,80
2,note_on,55,46,0
2,note_on,61,56,0
2,note_on,61,0,160
2,note_on,55,0,0
2,note_on,51,0,0
2,note_on,56,42,0
2,note_on,60,51,0
2,note_on,60,0,80
2,note_on,56,0,0
2,note_on,56,42,80
2,note_on,68,51,0
2,note_on,63,42,0
2,note_on,63,0,80
2,note_on,68,0,0
2,note_on,56,0,0
2,note_on,56,46,80
2,note_on,63,46,0
2,note_on,68,56,0
2,note_on,68,0,160
2,note_on,63,0,0
2,note_on,56,0,0
2,note_on,61,42,0
2,note_on,68,51,0
2,note_on,68,0,80
2,note_on,61,0,0
2,note_on,67,51,80
2,note_on,63,42,0
2,note_on,73,51,0
2,note_on,73,0,80
2,note_on,63,0,0
2,note_on,67,0,0
2,note_on,63,46,80
2,note_on,67,56,0
2,note_on,73,56,0
2,note_on,73,0,160
2,note_on,67,0,0
2,note_on,63,0,0
2,note_on,68,42,0
2,note_on,72,51,0
2,note_on,72,0,80
2,note_on,68,0,0
2,note_on,68,42,80
2,note_on,75,42,0
2,note_on,80,51,0
2,note_on,80,0,80
2,note_on,75,0,0
2,note_on,68,0,0
2,note_on,68,46,80
2,note_on,75,46,0
2,note_on,80,56,0
2,note_on,80,0,160
2,note_on,75,0,0
2,note_on,68,0,0
2,note_on,73,42,0
2,note_on,80,51,0
2,note_on,80,0,80
2,note_on,73,0,0
2,note_on,63,44,80
2,note_on,73,52,0
2,note_on,67,44,0
2,note_on,67,0,80
2,note_on,73,0,0
2,note_on,63,0,0
2,note_on,63,46,80
2,note_on,67,46,0
2,note_on,73,56,0
2,note_on,73,0,160
2,note_on,67,0,0
2,note_on,63,0,0
2,note_on,68,44,0
2,note_on,72,52,0
2,note_on,72,0,80
2,note_on,68,0,0
2,note_on,56,44,80
2,note_on,63,44,0
2,note_on,68,52,0
2,note_on,68,0,80
2,note_on,63,0,0
2,note_on,56,0,0
2,note_on,56,46,80
2,note_on,63,46,0
2,note_on,68,56,0
2,note_on,68,0,160
2,note_on,63,0,0
2,note_on,56,0,0
2,note_on,61,44,0
2,note_on,68,52,0
2,note_on,68,0,80
2,note_on,61,0,0
2,note_on,55,44,80
2,note_on,51,44,0
2,note_on,61,52,0
2,note_on,61,0,80
2,note_on,51,0,0
2,note_on,55,0,0
2,note_on,51,46,80
2,note_on,55,46,0
2,note_on,61,56,0
2,note_on,61,0,160
2,note_on,55,0,0
2,note_on,51,0,0
2,note_on,56,44,0
2,note_on,60,52,0
2,note_on,60,0,80
2,note_on,56,0,0
2,note_on,51,44,80
2,note_on,44,44,0
2,note_on,56,52,0
2,note_on,56,0,80
2,note_on,44,0,0
2,note_on,51,0,0
2,note_on,44,46,80
2,note_on,51,46,0
2,note_on,56,56,0
2,note_on,56,0,160
2,note_on,51,0,0
2,note_on,44,0,0
2,note_on,49,39,0
2,note_on,56,47,0
2,note_on,56,0,80
2,note_on,49,0,0
2,note_on,55,36,80
2,note_on,61,41,0
2,note_on,61,0,80
2,note_on,55,0,0
2,note_on,55,37,80
2,note_on,61,44,0
2,note_on,61,0,160
2,note_on,55,0,0
2,note_on,56,34,0
2,note_on,60,41,0
2,note_on,60,0,80
2,note_on,56,0,0
2,note_on,56,29,80
2,note_on,68,36,0
2,note_on,63,29,0
2,note_on,63,0,80
2,note_on,68,0,0
2,note_on,56,0,0
2,note_on,56,33,80
2,note_on,63,33,0
2,note_on,68,39,0
2,note_on,68,0,160
2,note_on,63,0,0
2,note_on,56,0,0
2,note_on,61,29,0
2,note_on,68,36,0
2,note_on,68,0,80
2,note_on,61,0,0
2,note_on,67,36,80
2,note_on,73,36,0
2,note_on,73,0,80
2,note_on,67,0,0
2,note_on,67,39,80
2,note_on,73,39,0
2,note_on,73,0,160
2,note_on,67,0,0
2,note_on,68,29,0
2,note_on,72,36,0
2,note_on,72,0,80
2,note_on,68,0,0
2,note_on,68,26,80
2,note_on,75,26,0
2,note_on,80,31,0
2,note_on,80,0,80
2,note_on,75,0,0
2,note_on,68,0,0
2,note_on,68,29,80
2,note_on,75,29,0
2,note_on,80,35,0
2,note_on,80,0,160
2,note_on,75,0,0
2,note_on,68,0,0
2,note_on,73,26,0
2,note_on,80,31,0
2,note_on,80,0,80
2,note_on,73,0,0
2,note_on,73,39,80
2,note_on,67,33,0
2,note_on,67,0,80
2,note_on,73,0,0
2,note_on,67,35,80
2,note_on,73,41,0
2,note_on,73,0,160
2,note_on,67,0,0
2,note_on,68,33,0
2,note_on,72,39,0
2,note_on,72,0,80
2,note_on,68,0,0
2,note_on,56,33,80
2,note_on,63,33,0
2,note_on,68,39,0
2,note_on,68,0,80
2,note_on,63,0,0
2,note_on,56,0,0
2,note_on,56,35,80
2,note_on,63,35,0
2,note_on,68,41,0
2,note_on,68,0,160
2,note_on,63,0,0
2,note_on,56,0,0
2,note_on,61,33,0
2,note_on,68,39,0
2,note_on,68,0,80
2,note_on,61,0,0
2,note_on,55,33,80
2,note_on,61,39,0
2,note_on,61,0,80
2,note_on,55,0,0
2,note_on,55,35,80
2,note_on,61,41,0
2,note_on,61,0,160
2,note_on,55,0,0
2,note_on,56,33,0
2,note_on,60,39,0
2,note_on,60,0,80
2,note_on,56,0,0
2,note_on,44,41,80
2,note_on,56,49,0
2,note_on,56,0,80
2,note_on,44,0,0
2,note_on,44,39,80
2,note_on,56,47,0
2,note_on,56,0,160
2,note_on,44,0,0
2,note_on,43,33,0
2,note_on,55,39,0
2,note_on,55,0,80
2,note_on,43,0,0
2,note_on,55,38,80
2,note_on,57,45,0
2,note_on,57,0,80
2,note_on,55,0,0
2,note_on,55,39,80
2,note_on,57,47,0
2,note_on,57,0,160
2,note_on,55,0,0
2,note_on,55,31,0
2,note_on,59,39,0
2,note_on,59,0,80
2,note_on,55,0,0
2,note_on,55,36,80
2,note_on,62,44,0
2,note_on,62,0,80
2,note_on,55,0,0
2,note_on,55,39,80
2,note_on,62,47,0
2,note_on,62,0,160
2,note_on,55,0,0
2,note_on,60,34,0
2,note_on,55,34,0
2,note_on,64,41,0
2,note_on,64,0,80
2,note_on,55,0,0
2,note_on,60,0,0
2,note_on,55,44,80
2,note_on,62,44,0
2,note_on,69,44,0
2,note_on,69,0,80
2,note_on,62,0,0
2,note_on,55,0,0
2,note_on,55,47,80
2,note_on,62,47,0
2,note_on,69,47,0
2,note_on,69,0,160
2,note_on,62,0,0
2,note_on,55,0,0
2,note_on,55,44,0
2,note_on,62,34,0
2,note_on,67,41,0
2,note_on,67,0,80
2,note_on,62,0,0
2,note_on,55,0,0
2,note_on,55,47,80
2,note_on,62,36,0
2,note_on,67,44,0
2,note_on,67,0,80
2,note_on,62,0,0
2,note_on,55,0,0
2,note_on,55,39,80
2,note_on,62,39,0
2,note_on,67,47,0
2,note_on,67,0,160
2,note_on,62,0,0
2,note_on,55,0,0
2,note_on,62,34,0
2,note_on,68,49,0
2,note_on,68,0,160
2,note_on,62,0,0
2,note_on,53,61,0
2,note_on,53,0,160
2,note_on,56,47,0
2,note_on,65,56,0
2,note_on,65,0,160
2,note_on,56,0,0
2,note_on,50,62,0
2,note_on,50,0,160
2,note_on,56,49,0
2,note_on,62,59,0
2,note_on,62,0,160
2,note_on,56,0,0
2,note_on,47,64,0
2,note_on,47,0,160
2,note_on,53,50,0
2,note_on,59,60,0
2,note_on,59,0,160
2,note_on,53,0,0
2,note_on,44,69,0
2,note_on,44,0,160
2,note_on,50,53,0
2,note_on,56,64,0
2,note_on,56,0,160
2,note_on,50,0,0
2,note_on,41,77,0
2,note_on,41,0,160
2,note_on,29,69,0
2,note_on,41,69,0
2,note_on,41,0,160
2,note_on,29,0,0
2,note_on,40,42,0
2,note_on,28,42,0
2,note_on,28,0,160
2,note_on,40,0,0
2,note_on,40,36,0
2,note_on,52,50,0
2,note_on,52,0,160
2,note_on,40,0,0
2,note_on,40,40,0
2,note_on,52,48,0
2,note_on,52,0,160
2,note_on,40,0,0
2,note_on,40,40,0
2,note_on,52,48,0
2,note_on,52,0,160
2,note_on,40,0,0
2,note_on,40,40,0
2,note_on,52,48,0
2,note_on,52,0,160
2,note_on,40,0,0
2,note_on,40,41,0
2,note_on,52,49,0
2,note_on,52,0,160
2,note_on,40,0,0
2,note_on,40,38,0
2,note_on,52,55,0
2,note_on,52,0,160
2,note_on,40,0,0
2,note_on,39,44,0
2,note_on,51,52,0
2,note_on,51,0,160
2,note_on,39,0,0
2,note_on,39,44,0
2,note_on,51,52,0
2,note_on,51,0,160
2,note_on,39,0,0
2,note_on,39,47,0
2,note_on,51,56,0
2,note_on,51,0,160
2,note_on,39,0,0
2,note_on,40,44,0
2,note_on,52,52,0
2,note_on,52,0,160
2,note_on,40,0,0
2,note_on,40,44,0
2,note_on,52,52,0
2,note_on,52,0,160
2,note_on,40,0,0
2,note_on,40,46,0
2,note_on,52,56,0
2,note_on,52,0,80
2,note_on,40,0,0
2,note_on,40,47,80
2,note_on,52,57,0
2,note_on,52,0,80
2,note_on,40,0,0
2,note_on,40,48,80
2,note_on,52,58,0
2,note_on,52,0,80
2,note_on,40,0,0
2,note_on,40,49,80
2,note_on,52,58,0
2,note_on,52,0,80
2,note_on,40,0,0
2,note_on,40,50,80
2,note_on,52,59,0
2,note_on,52,0,80
2,note_on,40,0,0
2,note_on,40,51,80
2,note_on,52,61,0
2,note_on,52,0,80
2,note_on,40,0,0
2,note_on,40,52,80
2,note_on,52,62,0
2,note_on,52,0,80
2,note_on,40,0,0
2,note_on,39,52,80
2,note_on,51,62,0
2,note_on,51,0,80
2,note_on,39,0,0
2,note_on,39,53,80
2,note_on,51,63,0
2,note_on,51,0,80
2,note_on,39,0,0
2,note_on,39,53,80
2,note_on,51,64,0
2,note_on,51,0,80
2,note_on,39,0,0
2,note_on,40,55,80
2,note_on,52,66,0
2,note_on,52,0,80
2,note_on,40,0,0
2,note_on,40,56,80
2,note_on,52,67,0
2,note_on,52,0,80
2,note_on,40,0,0
2,note_on,41,52,80
2,note_on,53,74,0
2,note_on,53,0,80
2,note_on,41,0,0
2,note_on,56,50,80
2,note_on,49,50,0
2,note_on,61,71,0
2,note_on,61,0,160
2,note_on,49,0,0
2,note_on,56,0,0
2,note_on,56,51,0
2,note_on,49,51,0
2,note_on,61,72,0
2,note_on,61,0,160
2,note_on,49,0,0
2,note_on,56,0,0
2,note_on,49,53,0
2,note_on,56,53,0
2,note_on,61,75,0
2,note_on,61,0,160
2,note_on,56,0,0
2,note_on,49,0,0
2,note_on,30,68,320
2,note_on,42,96,0
2,note_on,42,0,160
2,note_on,30,0,0
2,note_on,54,50,0
2,note_on,49,50,0
2,note_on,61,71,0
2,note_on,61,0,160
2,note_on,49,0,0
2,note_on,54,0,0
2,note_on,54,51,0
2,note_on,49,51,0
2,note_on,61,72,0
2,note_on,61,0,160
2,note_on,49,0,0
2,note_on,54,0,0
2,note_on,49,53,0
2,note_on,54,53,0
2,note_on,61,75,0
2,note_on,61,0,160
2,note_on,54,0,0
2,note_on,49,0,0
2,note_on,32,68,320
2,note_on,44,96,0
2,note_on,44,0,160
2,note_on,32,0,0
2,note_on,56,50,0
2,note_on,49,50,0
2,note_on,61,71,0
2,note_on,61,0,160
2,note_on,49,0,0
2,note_on,56,0,0
2,note_on,56,51,0
2,note_on,49,51,0
2,note_on,61,72,0
2,note_on,61,0,160
2,note_on,49,0,0
2,note_on,56,0,0
2,note_on,49,53,0
2,note_on,56,53,0
2,note_on,61,75,0
2,note_on,61,0,160
2,note_on,56,0,0
2,note_on,49,0,0
2,note_on,34,68,320
2,note_on,46,96,0
2,note_on,46,0,160
2,note_on,34,0,0
2,note_on,58,50,0
2,note_on,51,50,0
2,note_on,61,71,0
2,note_on,61,0,160
2,note_on,51,0,0
2,note_on,58,0,0
2,note_on,58,51,0
2,note_on,51,51,0
2,note_on,61,72,0
2,note_on,61,0,160
2,note_on,51,0,0
2,note_on,58,0,0
2,note_on,51,53,0
2,note_on,58,53,0
2,note_on,61,75,0
2,note_on,61,0,160
2,note_on,58,0,0
2,note_on,51,0,0
2,note_on,27,59,320
2,note_on,39,70,0
2,note_on,39,0,1920
2,note_on,27,0,0
2,note_on,32,56,0
2,note_on,44,66,0
2,note_on,44,0,1920
2,note_on,32,0,0
2,note_on,34,44,0
2,note_on,46,52,0
2,note_on,46,0,120
2,note_on,34,0,0
2,note_on,53,29,0
2,note_on,53,0,120
2,note_on,49,22,0
2,note_on,61,26,0
2,note_on,58,22,0
2,note_on,58,0,120
2,note_on,61,0,0
2,note_on,49,0,0
2,note_on,41,33,0
2,note_on,41,0,120
2,note_on,34,25,0
2,note_on,46,29,0
2,note_on,46,0,120
2,note_on,34,0,0
2,note_on,53,29,0
2,note_on,53,0,120
2,note_on,49,23,0
2,note_on,61,27,0
2,note_on,58,23,0
2,note_on,58,0,120
2,note_on,61,0,0
2,note_on,49,0,0
2,note_on,41,35,0
2,note_on,41,0,120
2,note_on,34,27,0
2,note_on,46,33,0
2,note_on,46,0,120
2,note_on,34,0,0
2,note_on,53,30,0
2,note_on,53,0,120
2,note_on,49,24,0
2,note_on,61,29,0
2,note_on,58,24,0
2,note_on,58,0,120
2,note_on,61,0,0
2,note_on,49,0,0
2,note_on,41,35,0
2,note_on,41,0,120
2,note_on,34,28,0
2,note_on,46,34,0
2,note_on,46,0,120
2,note_on,34,0,0
2,note_on,53,35,0
2,note_on,53,0,120
2,note_on,49,26,0
2,note_on,61,31,0
2,note_on,58,26,0
2,note_on,58,0,120
2,note_on,61,0,0
2,note_on,49,0,0
2,note_on,41,39,0
2,note_on,41,0,120
2,note_on,34,30,0
2,note_on,46,38,0
2,note_on,46,0,120
2,note_on,34,0,0
2,note_on,53,35,0
2,note_on,53,0,120
2,note_on,49,28,0
2,note_on,61,34,0
2,note_on,58,28,0
2,note_on,58,0,120
2,note_on,61,0,0
2,note_on,49,0,0
2,note_on,41,39,0
2,note_on,41,0,120
2,note_on,34,29,0
2,note_on,46,35,0
2,note_on,46,0,120
2,note_on,34,0,0
2,note_on,53,34,0
2,note_on,53,0,120
2,note_on,49,25,0
2,note_on,61,30,0
2,note_on,58,25,0
2,note_on,58,0,120
2,note_on,61,0,0
2,note_on,49,0,0
2,note_on,41,36,0
2,note_on,41,0,120
2,note_on,34,27,0
2,note_on,46,33,0
2,note_on,46,0,120
2,note_on,34,0,0
2,note_on,53,30,0
2,note_on,53,0,120
2,note_on,49,24,0
2,note_on,61,29,0
2,note_on,58,24,0
2,note_on,58,0,120
2,note_on,61,0,0
2,note_on,49,0,0
2,note_on,41,35,0
2,note_on,41,0,120
2,note_on,34,25,0
2,note_on,46,29,0
2,note_on,46,0,120
2,note_on,34,0,0
2,note_on,53,29,0
2,note_on,53,0,120
2,note_on,49,24,0
2,note_on,61,28,0
2,note_on,58,24,0
2,note_on,58,0,120
2,note_on,61,0,0
2,note_on,49,0,0
2,note_on,53,33,0
2,note_on,53,0,120
2,note_on,46,35,0
2,note_on,46,0,120
2,note_on,53,34,0
2,note_on,53,0,120
2,note_on,61,30,0
2,note_on,58,30,0
2,note_on,58,0,120
2,note_on,61,0,0
2,note_on,53,31,0
2,note_on,53,0,120
2,note_on,46,35,0
2,note_on,46,0,120
2,note_on,53,33,0
2,note_on,53,0,120
2,note_on,61,31,0
2,note_on,58,31,0
2,note_on,58,0,120
2,note_on,61,0,0
2,note_on,53,31,0
2,note_on,53,0,120
2,note_on,46,35,0
2,note_on,46,0,120
2,note_on,53,34,0
2,note_on,53,0,120
2,note_on,61,31,0
2,note_on,58,31,0
2,note_on,58,0,120
2,note_on,61,0,0
2,note_on,53,31,0
2,note_on,53,0,120
2,note_on,46,35,0
2,note_on,46,0,120
2,note_on,53,33,0
2,note_on,53,0,120
2,note_on,61,31,0
2,note_on,58,31,0
2,note_on,58,0,120
2,note_on,61,0,0
2,note_on,53,31,0
2,note_on,53,0,120
2,note_on,46,35,0
2,note_on,46,0,120
2,note_on,53,33,0
2,note_on,53,0,120
2,note_on,61,31,0
2,note_on,58,31,0
2,note_on,58,0,120
2,note_on,61,0,0
2,note_on,53,33,0
2,note_on,53,0,120
2,note_on,46,37,0
2,note_on,46,0,120
2,note_on,53,35,0
2,note_on,53,0,120
2,note_on,61,34,0
2,note_on,58,34,0
2,note_on,58,0,120
2,note_on,61,0,0
2,note_on,53,34,0
2,note_on,53,0,120
2,note_on,48,35,0
2,note_on,48,0,120
2,note_on,54,34,0
2,note_on,54,0,120
2,note_on,63,30,0
2,note_on,57,30,0
2,note_on,57,0,120
2,note_on,63,0,0
2,note_on,54,31,0
2,note_on,54,0,120
2,note_on,48,35,0
2,note_on,48,0,120
2,note_on,54,33,0
2,note_on,54,0,120
2,note_on,63,31,0
2,note_on,57,31,0
2,note_on,57,0,120
2,note_on,63,0,0
2,note_on,54,31,0
2,note_on,54,0,120
2,note_on,48,35,0
2,note_on,48,0,120
2,note_on,51,34,0
2,note_on,51,0,120
2,note_on,63,30,0
2,note_on,57,30,0
2,note_on,57,0,120
2,note_on,63,0,0
2,note_on,51,31,0
2,note_on,51,0,120
2,note_on,48,35,0
2,note_on,48,0,120
2,note_on,54,33,0
2,note_on,54,0,120
2,note_on,63,31,0
2,note_on,57,31,0
2,note_on,57,0,120
2,note_on,63,0,0
2,note_on,54,31,0
2,note_on,54,0,120
2,note_on,48,35,0
2,note_on,48,0,120
2,note_on,51,34,0
2,note_on,51,0,120
2,note_on,63,30,0
2,note_on,57,30,0
2,note_on,57,0,120
2,note_on,63,0,0
2,note_on,51,31,0
2,note_on,51,0,120
2,note_on,48,35,0
2,note_on,48,0,120
2,note_on,54,33,0
2,note_on,54,0,120
2,note_on,63,31,0
2,note_on,57,31,0
2,note_on,57,0,120
2,note_on,63,0,0
2,note_on,54,31,0
2,note_on,54,0,120
2,note_on,48,35,0
2,note_on,48,0,120
2,note_on,51,35,0
2,note_on,51,0,120
2,note_on,63,34,0
2,note_on,57,34,0
2,note_on,57,0,120
2,note_on,63,0,0
2,note_on,51,35,0
2,note_on,51,0,120
2,note_on,48,39,0
2,note_on,48,0,120
2,note_on,54,37,0
2,note_on,54,0,120
2,note_on,63,37,0
2,note_on,57,37,0
2,note_on,57,0,120
2,note_on,63,0,0
2,note_on,54,38,0
2,note_on,54,0,120
2,note_on,49,35,0
2,note_on,49,0,120
2,note_on,53,34,0
2,note_on,53,0,120
2,note_on,65,30,0
2,note_on,57,30,0
2,note_on,57,0,120
2,note_on,65,0,0
2,note_on,53,31,0
2,note_on,53,0,120
2,note_on,49,35,0
2,note_on,49,0,120
2,note_on,53,33,0
2,note_on,53,0,120
2,note_on,65,31,0
2,note_on,58,31,0
2,note_on,58,0,120
2,note_on,65,0,0
2,note_on,53,31,0
2,note_on,53,0,120
2,note_on,52,56,0
2,note_on,52,0,120
2,note_on,61,53,0
2,note_on,61,0,120
2,note_on,67,50,0
2,note_on,67,0,120
2,note_on,52,51,0
2,note_on,52,0,120
2,note_on,53,56,0
2,note_on,53,0,120
2,note_on,60,52,0
2,note_on,60,0,120
2,note_on,69,58,0
2,note_on,69,0,120
2,note_on,53,51,0
2,note_on,53,0,120
2,note_on,45,33,0
2,note_on,45,0,120
2,note_on,54,30,0
2,note_on,54,0,120
2,note_on,63,29,0
2,note_on,63,0,120
2,note_on,45,29,0
2,note_on,45,0,120
2,note_on,46,33,0
2,note_on,46,0,120
2,note_on,53,30,0
2,note_on,53,0,120
2,note_on,61,29,0
2,note_on,61,0,120
2,note_on,46,29,0
2,note_on,46,0,120
2,note_on,52,56,0
2,note_on,52,0,120
2,note_on,61,53,0
2,note_on,61,0,120
2,note_on,67,50,0
2,note_on,67,0,120
2,note_on,52,51,0
2,note_on,52,0,120
2,note_on,53,56,0
2,note_on,53,0,120
2,note_on,60,52,0
2,note_on,60,0,120
2,note_on,69,58,0
2,note_on,69,0,120
2,note_on,53,51,0
2,note_on,53,0,120
2,note_on,45,33,0
2,note_on,45,0,120
2,note_on,54,30,0
2,note_on,54,0,120
2,note_on,63,29,0
2,note_on,63,0,120
2,note_on,45,29,0
2,note_on,45,0,120
2,note_on,46,33,0
2,note_on,46,0,120
2,note_on,53,30,0
2,note_on,53,0,120
2,note_on,61,29,0
2,note_on,61,0,120
2,note_on,46,29,0
2,note_on,46,0,120
2,note_on,43,56,0
2,note_on,43,0,120
2,note_on,48,53,0
2,note_on,48,0,120
2,note_on,49,50,0
2,note_on,49,0,120
2,note_on,58,49,0
2,note_on,58,0,120
2,note_on,43,52,0
2,note_on,43,0,120
2,note_on,48,49,0
2,note_on,48,0,120
2,note_on,49,49,0
2,note_on,49,0,120
2,note_on,58,49,0
2,note_on,58,0,120
2,note_on,43,47,0
2,note_on,43,0,120
2,note_on,48,45,0
2,note_on,48,0,120
2,note_on,49,42,0
2,note_on,49,0,120
2,note_on,58,44,0
2,note_on,58,0,120
2,note_on,45,49,0
2,note_on,45,0,120
2,note_on,50,44,0
2,note_on,50,0,120
2,note_on,51,46,0
2,note_on,51,0,120
2,note_on,60,44,0
2,note_on,60,0,120
2,note_on,47,47,0
2,note_on,47,0,120
2,note_on,52,45,0
2,note_on,52,0,120
2,note_on,53,42,0
2,note_on,53,0,120
2,note_on,62,44,0
2,note_on,62,0,120
2,note_on,48,49,0
2,note_on,48,0,120
2,note_on,54,39,0
2,note_on,54,0,120
2,note_on,55,40,0
2,note_on,55,0,120
2,note_on,63,39,0
2,note_on,63,0,120
2,note_on,46,52,0
2,note_on,46,0,120
2,note_on,53,45,0
2,note_on,53,0,120
2,note_on,54,41,0
2,note_on,54,0,120
2,note_on,63,42,0
2,note_on,63,0,120
2,note_on,45,52,0
2,note_on,45,0,120
2,note_on,52,41,0
2,note_on,52,0,120
2,note_on,53,42,0
2,note_on,53,0,120
2,note_on,63,41,0
2,note_on,63,0,120
2,note_on,46,51,0
2,note_on,46,0,120
2,note_on,53,44,0
2,note_on,53,0,120
2,note_on,58,47,0
2,note_on,58,0,120
2,note_on,41,48,0
2,note_on,41,0,120
2,note_on,46,51,0
2,note_on,46,0,120
2,note_on,53,43,0
2,note_on,53,0,120
2,note_on,58,48,0
2,note_on,58,0,120
2,note_on,41,48,0
2,note_on,41,0,120
2,note_on,46,51,0
2,note_on,46,0,120
2,note_on,53,44,0
2,note_on,53,0,120
2,note_on,58,48,0
2,note_on,58,0,120
2,note_on,41,48,0
2,note_on,41,0,120
2,note_on,46,51,0
2,note_on,46,0,120
2,note_on,53,43,0
2,note_on,53,0,120
2,note_on,58,48,0
2,note_on,58,0,120
2,note_on,41,48,0
2,note_on,41,0,120
2,note_on,46,51,0
2,note_on,46,0,120
2,note_on,53,49,0
2,note_on,53,0,120
2,note_on,58,48,0
2,note_on,58,0,120
2,note_on,41,49,0
2,note_on,41,0,120
2,note_on,46,54,0
2,note_on,46,0,120
2,note_on,53,51,0
2,note_on,53,0,120
2,note_on,61,50,0
2,note_on,61,0,120
2,note_on,49,50,0
2,note_on,49,0,120
2,note_on,48,51,0
2,note_on,48,0,120
2,note_on,54,44,0
2,note_on,54,0,120
2,note_on,63,47,0
2,note_on,63,0,120
2,note_on,48,48,0
2,note_on,48,0,120
2,note_on,54,51,0
2,note_on,54,0,120
2,note_on,57,43,0
2,note_on,57,0,120
2,note_on,63,48,0
2,note_on,63,0,120
2,note_on,48,48,0
2,note_on,48,0,120
2,note_on,51,51,0
2,note_on,51,0,120
2,note_on,57,44,0
2,note_on,57,0,120
2,note_on,63,47,0
2,note_on,63,0,120
2,note_on,48,48,0
2,note_on,48,0,120
2,note_on,54,51,0
2,note_on,54,0,120
2,note_on,57,43,0
2,note_on,57,0,120
2,note_on,63,48,0
2,note_on,63,0,120
2,note_on,48,48,0
2,note_on,48,0,120
2,note_on,51,51,0
2,note_on,51,0,120
2,note_on,57,44,0
2,note_on,57,0,120
2,note_on,63,47,0
2,note_on,63,0,120
2,note_on,48,48,0
2,note_on,48,0,120
2,note_on,54,51,0
2,note_on,54,0,120
2,note_on,57,43,0
2,note_on,57,0,120
2,note_on,63,48,0
2,note_on,63,0,120
2,note_on,48,48,0
2,note_on,48,0,120
2,note_on,51,52,0
2,note_on,51,0,120
2,note_on,57,46,0
2,note_on,57,0,120
2,note_on,63,50,0
2,note_on,63,0,120
2,note_on,48,51,0
2,note_on,48,0,120
2,note_on,54,57,0
2,note_on,54,0,120
2,note_on,57,54,0
2,note_on,57,0,120
2,note_on,63,54,0
2,note_on,63,0,120
2,note_on,48,55,0
2,note_on,48,0,120
2,note_on,49,51,0
2,note_on,49,0,120
2,note_on,57,50,0
2,note_on,57,0,120
2,note_on,65,47,0
2,note_on,65,0,120
2,note_on,53,48,0
2,note_on,53,0,120
2,note_on,58,51,0
2,note_on,58,0,120
2,note_on,61,49,0
2,note_on,61,0,120
2,note_on,65,48,0
2,note_on,65,0,120
2,note_on,49,48,0
2,note_on,49,0,120
2,note_on,52,61,0
2,note_on,52,0,120
2,note_on,61,59,0
2,note_on,61,0,120
2,note_on,67,55,0
2,note_on,67,0,120
2,note_on,52,57,0
2,note_on,52,0,120
2,note_on,53,61,0
2,note_on,53,0,120
2,note_on,60,58,0
2,note_on,60,0,120
2,note_on,69,57,0
2,note_on,69,0,120
2,note_on,53,57,0
2,note_on,53,0,120
2,note_on,45,48,0
2,note_on,45,0,120
2,note_on,54,44,0
2,note_on,54,0,120
2,note_on,63,44,0
2,note_on,63,0,120
2,note_on,45,44,0
2,note_on,45,0,120
2,note_on,46,48,0
2,note_on,46,0,120
2,note_on,53,44,0
2,note_on,53,0,120
2,note_on,61,44,0
2,note_on,61,0,120
2,note_on,46,44,0
2,note_on,46,0,120
2,note_on,52,61,0
2,note_on,52,0,120
2,note_on,61,59,0
2,note_on,61,0,120
2,note_on,67,55,0
2,note_on,67,0,120
2,note_on,52,57,0
2,note_on,52,0,120
2,note_on,53,61,0
2,note_on,53,0,120
2,note_on,60,58,0
2,note_on,60,0,120
2,note_on,69,57,0
2,note_on,69,0,120
2,note_on,53,57,0
2,note_on,53,0,120
2,note_on,50,61,0
2,note_on,50,0,120
2,note_on,59,58,0
2,note_on,59,0,120
2,note_on,65,55,0
2,note_on,65,0,120
2,note_on,50,55,0
2,note_on,50,0,120
2,note_on,51,61,0
2,note_on,51,0,120
2,note_on,58,57,0
2,note_on,58,0,120
2,note_on,66,55,0
2,note_on,66,0,120
2,note_on,51,55,0
2,note_on,51,0,120
2,note_on,39,69,0
2,note_on,39,0,120
2,note_on,46,59,0
2,note_on,46,0,120
2,note_on,58,71,0
2,note_on,58,0,120
2,note_on,46,59,0
2,note_on,46,0,120
2,note_on,41,69,0
2,note_on,41,0,120
2,note_on,46,59,0
2,note_on,46,0,120
2,note_on,58,69,0
2,note_on,58,0,120
2,note_on,46,59,0
2,note_on,46,0,120
2,note_on,42,69,0
2,note_on,42,0,120
2,note_on,46,59,0
2,note_on,46,0,120
2,note_on,58,68,0
2,note_on,58,0,120
2,note_on,46,59,0
2,note_on,46,0,120
2,note_on,43,68,0
2,note_on,43,0,120
2,note_on,51,59,0
2,note_on,51,0,120
2,note_on,63,68,0
2,note_on,63,0,120
2,note_on,51,59,0
2,note_on,51,0,120
2,note_on,44,51,0
2,note_on,51,57,0
2,note_on,58,68,0
2,note_on,58,0,120
2,note_on,51,0,0
2,note_on,44,0,0
2,note_on,44,39,120
2,note_on,51,46,0
2,note_on,56,56,0
2,note_on,56,0,120
2,note_on,51,0,0
2,note_on,44,0,0
2,note_on,34,38,360
2,note_on,46,46,0
2,note_on,46,0,240
2,note_on,34,0,0
2,note_on,35,41,0
2,note_on,47,49,0
2,note_on,47,0,480
2,note_on,35,0,0
2,note_on,36,39,0
2,note_on,48,46,0
2,note_on,48,0,360
2,note_on,36,0,0
2,note_on,37,31,120
2,note_on,49,37,0
2,note_on,37,0,960
2,note_on,49,0,480
2,note_on,42,39,0
2,note_on,42,0,480
2,note_on,44,39,0
2,note_on,44,0,1200
2,note_on,45,37,0
2,note_on,45,0,240
2,note_on,46,39,0
2,note_on,46,0,240
2,note_on,44,37,0
2,note_on,44,0,240
2,note_on,37,33,0
2,note_on,49,39,0
2,note_on,37,0,960
2,note_on,49,0,480
2,note_on,42,39,0
2,note_on,42,0,480
2,note_on,44,29,0
2,note_on,44,0,1200
2,note_on,45,37,0
2,note_on,45,0,240
2,note_on,48,35,0
2,note_on,48,0,160
2,note_on,46,34,0
2,note_on,46,0,160
2,note_on,44,34,0
2,note_on,44,0,160
2,note_on,37,41,0
2,note_on,37,0,480
2,note_on,55,44,0
2,note_on,55,0,480
2,note_on,44,37,0
2,note_on,54,44,0
2,note_on,54,0,480
2,note_on,58,44,0
2,note_on,58,0,360
2,note_on,56,49,0
2,note_on,56,0,120
2,note_on,44,0,0
2,note_on,49,39,0
2,note_on,56,45,0
2,note_on,56,0,480
2,note_on,49,0,0
2,note_on,55,44,0
2,note_on,55,0,480
2,note_on,44,37,0
2,note_on,54,44,0
2,note_on,44,0,480
2,note_on,42,37,0
2,note_on,42,0,420
2,note_on,41,41,0
2,note_on,54,0,60
2,note_on,57,49,0
2,note_on,57,0,480
2,note_on,41,0,0
2,note_on,33,40,0
2,note_on,45,48,0
2,note_on,45,0,480
2,note_on,33,0,0
2,note_on,34,41,0
2,note_on,46,49,0
2,note_on,46,0,480
2,note_on,34,0,0
2,note_on,36,41,0
2,note_on,48,49,0
2,note_on,48,0,360
2,note_on,36,0,0
2,note_on,37,37,0
2,note_on,49,45,0
2,note_on,49,0,120
2,note_on,37,0,0
2,note_on,38,41,0
2,note_on,50,49,0
2,note_on,50,0,480
2,note_on,38,0,0
2,note_on,39,41,0
2,note_on,51,49,0
2,note_on,51,0,360
2,note_on,39,0,0
2,note_on,41,37,0
2,note_on,53,45,0
2,note_on,53,0,120
2,note_on,41,0,0
2,note_on,42,41,0
2,note_on,54,49,0
2,note_on,54,0,480
2,note_on,42,0,0
2,note_on,44,45,0
2,note_on,44,0,480
2,note_on,37,39,0
2,note_on,37,0,160
2,note_on,55,33,0
2,note_on,55,0,160
2,note_on,56,31,0
2,note_on,56,0,160
2,note_on,58,37,0
2,note_on,58,0,160
2,note_on,56,31,0
2,note_on,56,0,160
2,note_on,44,31,0
2,note_on,44,0,160
2,note_on,49,39,0
2,note_on,49,0,160
2,note_on,55,35,0
2,note_on,55,0,160
2,note_on,56,35,0
2,note_on,56,0,160
2,note_on,58,37,0
2,note_on,58,0,160
2,note_on,56,33,0
2,note_on,56,0,160
2,note_on,44,33,0
2,note_on,44,0,160
2,note_on,51,39,0
2,note_on,51,0,160
2,note_on,55,35,0
2,note_on,55,0,160
2,note_on,56,35,0
2,note_on,56,0,160
2,note_on,58,37,0
2,note_on,58,0,160
2,note_on,56,33,0
2,note_on,56,0,160
2,note_on,44,33,0
2,note_on,44,0,160
2,note_on,54,39,0
2,note_on,54,0,160
2,note_on,55,35,0
2,note_on,55,0,160
2,note_on,56,35,0
2,note_on,56,0,160
2,note_on,58,37,0
2,note_on,58,0,160
2,note_on,56,33,0
2,note_on,56,0,160
2,note_on,44,33,0
2,note_on,44,0,160
2,note_on,49,39,0
2,note_on,49,0,120
2,note_on,55,34,120
2,note_on,55,0,120
2,note_on,56,33,0
2,note_on,56,0,120
2,note_on,58,37,0
2,note_on,58,0,120
2,note_on,56,31,0
2,note_on,56,0,108
2,note_on,56,37,12
2,note_on,56,0,120
2,note_on,44,37,0
2,note_on,44,0,120
2,note_on,49,39,0
2,note_on,49,0,120
2,note_on,55,35,120
2,note_on,55,0,120
2,note_on,56,35,0
2,note_on,56,0,120
2,note_on,58,37,0
2,note_on,58,0,120
2,note_on,56,33,0
2,note_on,56,0,108
2,note_on,56,37,12
2,note_on,56,0,120
2,note_on,44,31,0
2,note_on,44,0,120
2,note_on,51,39,0
2,note_on,51,0,120
2,note_on,55,35,120
2,note_on,55,0,120
2,note_on,56,35,0
2,note_on,56,0,120
2,note_on,58,37,0
2,note_on,58,0,120
2,note_on,56,33,0
2,note_on,56,0,108
2,note_on,56,37,12
2,note_on,56,0,120
2,note_on,44,33,0
2,note_on,44,0,120
2,note_on,54,39,0
2,note_on,54,0,240
2,note_on,55,35,0
2,note_on,55,0,120
2,note_on,56,35,0
2,note_on,56,0,120
2,note_on,58,39,0
2,note_on,58,0,120
2,note_on,56,35,0
2,note_on,56,0,108
2,note_on,56,39,12
2,note_on,56,0,120
2,note_on,44,35,0
2,note_on,44,0,120
2,note_on,49,44,0
2,note_on,49,0,120
2,note_on,56,39,0
2,note_on,56,0,120
2,note_on,58,39,0
2,note_on,58,0,120
2,note_on,56,39,0
2,note_on,56,0,120
2,note_on,65,44,0
2,note_on,65,0,120
2,note_on,56,40,0
2,note_on,56,0,120
2,note_on,58,40,0
2,note_on,58,0,120
2,note_on,56,41,0
2,note_on,56,0,120
2,note_on,44,45,0
2,note_on,44,0,120
2,note_on,56,40,0
2,note_on,56,0,120
2,note_on,58,41,0
2,note_on,58,0,120
2,note_on,56,41,0
2,note_on,56,0,120
2,note_on,66,47,0
2,note_on,66,0,120
2,note_on,56,44,0
2,note_on,56,0,120
2,note_on,58,44,0
2,note_on,58,0,120
2,note_on,56,44,0
2,note_on,56,0,120
2,note_on,49,48,0
2,note_on,49,0,120
2,note_on,56,42,0
2,note_on,56,0,120
2,note_on,58,42,0
2,note_on,58,0,120
2,note_on,56,42,0
2,note_on,56,0,120
2,note_on,65,49,0
2,note_on,65,0,120
2,note_on,56,46,0
2,note_on,56,0,120
2,note_on,58,46,0
2,note_on,58,0,120
2,note_on,56,46,0
2,note_on,56,0,120
2,note_on,44,50,0
2,note_on,44,0,120
2,note_on,56,46,0
2,note_on,56,0,120
2,note_on,58,46,0
2,note_on,58,0,120
2,note_on,56,46,0
2,note_on,56,0,120
2,note_on,66,52,0
2,note_on,66,0,120
2,note_on,56,49,0
2,note_on,56,0,120
2,note_on,58,49,0
2,note_on,58,0,120
2,note_on,56,49,0
2,note_on,56,0,120
2,note_on,45,57,0
2,note_on,45,0,120
2,note_on,52,51,0
2,note_on,52,0,120
2,note_on,53,51,0
2,note_on,53,0,120
2,note_on,60,51,0
2,note_on,60,0,120
2,note_on,57,58,0
2,note_on,57,0,120
2,note_on,64,53,0
2,note_on,64,0,120
2,note_on,65,53,0
2,note_on,65,0,120
2,note_on,72,53,0
2,note_on,72,0,120
2,note_on,46,59,0
2,note_on,46,0,120
2,note_on,52,52,0
2,note_on,52,0,120
2,note_on,53,52,0
2,note_on,53,0,120
2,note_on,61,53,0
2,note_on,61,0,120
2,note_on,58,60,0
2,note_on,58,0,120
2,note_on,64,55,0
2,note_on,64,0,120
2,note_on,65,55,0
2,note_on,65,0,120
2,note_on,73,56,0
2,note_on,73,0,120
2,note_on,48,61,0
2,note_on,48,0,120
2,note_on,55,55,0
2,note_on,55,0,120
2,note_on,56,55,0
2,note_on,56,0,120
2,note_on,63,55,0
2,note_on,63,0,120
2,note_on,60,62,0
2,note_on,60,0,120
2,note_on,67,57,0
2,note_on,67,0,120
2,note_on,68,57,0
2,note_on,68,0,120
2,note_on,75,57,0
2,note_on,75,0,120
2,note_on,50,62,0
2,note_on,50,0,120
2,note_on,57,56,0
2,note_on,57,0,120
2,note_on,58,57,0
2,note_on,58,0,120
2,note_on,65,57,0
2,note_on,65,0,120
2,note_on,62,63,0
2,note_on,62,0,120
2,note_on,69,58,0
2,note_on,69,0,120
2,note_on,70,59,0
2,note_on,70,0,120
2,note_on,39,59,120
2,note_on,39,0,120
2,note_on,46,52,0
2,note_on,46,0,120
2,note_on,51,52,0
2,note_on,51,0,120
2,note_on,58,52,0
2,note_on,58,0,120
2,note_on,41,59,0
2,note_on,41,0,120
2,note_on,46,52,0
2,note_on,46,0,120
2,note_on,50,52,0
2,note_on,50,0,120
2,note_on,56,52,0
2,note_on,56,0,120
2,note_on,42,62,0
2,note_on,42,0,120
2,note_on,46,52,0
2,note_on,46,0,120
2,note_on,51,52,0
2,note_on,51,0,120
2,note_on,58,52,0
2,note_on,58,0,120
2,note_on,43,61,0
2,note_on,43,0,120
2,note_on,49,52,0
2,note_on,49,0,120
2,note_on,52,52,0
2,note_on,52,0,120
2,note_on,58,52,0
2,note_on,58,0,120
2,note_on,44,59,0
2,note_on,44,0,120
2,note_on,49,52,0
2,note_on,49,0,120
2,note_on,53,52,0
2,note_on,53,0,120
2,note_on,61,52,0
2,note_on,61,0,120
2,note_on,46,58,0
2,note_on,46,0,120
2,note_on,49,52,0
2,note_on,49,0,120
2,note_on,54,52,0
2,note_on,54,0,120
2,note_on,61,52,0
2,note_on,61,0,120
2,note_on,44,52,0
2,note_on,44,0,120
2,note_on,51,47,0
2,note_on,51,0,120
2,note_on,56,47,0
2,note_on,56,0,120
2,note_on,61,47,0
2,note_on,61,0,120
2,note_on,42,55,0
2,note_on,42,0,120
2,note_on,48,47,0
2,note_on,48,0,120
2,note_on,51,47,0
2,note_on,51,0,120
2,note_on,56,47,0
2,note_on,56,0,120
2,note_on,41,55,0
2,note_on,41,0,120
2,note_on,44,47,0
2,note_on,44,0,120
2,note_on,49,47,0
2,note_on,49,0,120
2,note_on,56,47,0
2,note_on,56,0,120
2,note_on,46,56,0
2,note_on,46,0,120
2,note_on,49,47,0
2,note_on,49,0,120
2,note_on,54,47,0
2,note_on,54,0,120
2,note_on,61,47,0
2,note_on,61,0,120
2,note_on,45,55,0
2,note_on,45,0,120
2,note_on,49,47,0
2,note_on,49,0,120
2,note_on,54,47,0
2,note_on,54,0,120
2,note_on,61,47,0
2,note_on,61,0,120
2,note_on,44,51,0
2,note_on,44,0,120
2,note_on,51,47,0
2,note_on,51,0,120
2,note_on,60,47,0
2,note_on,60,0,120
2,note_on,42,47,0
2,note_on,42,0,120
2,note_on,41,56,0
2,note_on,41,0,120
2,note_on,44,47,0
2,note_on,44,0,120
2,note_on,49,46,0
2,note_on,49,0,120
2,note_on,56,46,0
2,note_on,56,0,120
2,note_on,46,53,0
2,note_on,46,0,120
2,note_on,49,45,0
2,note_on,49,0,120
2,note_on,54,44,0
2,note_on,54,0,120
2,note_on,61,44,0
2,note_on,61,0,120
2,note_on,44,50,0
2,note_on,44,0,120
2,note_on,51,42,0
2,note_on,51,0,120
2,note_on,56,42,0
2,note_on,56,0,120
2,note_on,61,41,0
2,note_on,61,0,120
2,note_on,44,49,0
2,note_on,44,0,120
2,note_on,51,41,0
2,note_on,51,0,120
2,note_on,56,40,0
2,note_on,56,0,120
2,note_on,60,40,0
2,note_on,60,0,120
2,note_on,61,66,0
2,note_on,49,56,0
2,note_on,56,56,0
2,note_on,56,0,160
2,note_on,49,0,0
2,note_on,61,0,0
2,note_on,51,42,0
2,note_on,55,42,0
2,note_on,61,51,0
2,note_on,61,0,80
2,note_on,55,0,0
2,note_on,51,0,0
2,note_on,61,51,80
2,note_on,55,42,0
2,note_on,51,42,0
2,note_on,51,0,80
2,note_on,55,0,0
2,note_on,61,0,0
2,note_on,61,56,80
2,note_on,55,46,0
2,note_on,51,46,0
2,note_on,51,0,160
2,note_on,55,0,0
2,note_on,61,0,0
2,note_on,56,42,0
2,note_on,60,51,0
2,note_on,60,0,80
2,note_on,56,0,0
2,note_on,63,42,80
2,note_on,68,51,0
2,note_on,56,42,0
2,note_on,56,0,80
2,note_on,68,0,0
2,note_on,63,0,0
2,note_on,68,56,80
2,note_on,56,46,0
2,note_on,63,46,0
2,note_on,63,0,160
2,note_on,56,0,0
2,note_on,68,0,0
2,note_on,61,42,0
2,note_on,68,51,0
2,note_on,68,0,80
2,note_on,61,0,0
2,note_on,73,51,80
2,note_on,63,42,0
2,note_on,67,51,0
2,note_on,67,0,80
2,note_on,63,0,0
2,note_on,73,0,0
2,note_on,63,46,80
2,note_on,67,56,0
2,note_on,73,56,0
2,note_on,73,0,160
2,note_on,67,0,0
2,note_on,63,0,0
2,note_on,68,42,0
2,note_on,72,51,0
2,note_on,72,0,80
2,note_on,68,0,0
2,note_on,80,51,80
2,note_on,75,42,0
2,note_on,68,42,0
2,note_on,68,0,80
2,note_on,75,0,0
2,note_on,80,0,0
2,note_on,68,46,80
2,note_on,80,56,0
2,note_on,75,46,0
2,note_on,75,0,160
2,note_on,80,0,0
2,note_on,68,0,0
2,note_on,80,51,0
2,note_on,73,42,0
2,note_on,73,0,80
2,note_on,80,0,0
2,note_on,63,44,80
2,note_on,73,52,0
2,note_on,67,44,0
2,note_on,67,0,80
2,note_on,73,0,0
2,note_on,63,0,0
2,note_on,73,56,80
2,note_on,67,46,0
2,note_on,63,46,0
2,note_on,63,0,160
2,note_on,67,0,0
2,note_on,73,0,0
2,note_on,68,44,0
2,note_on,72,52,0
2,note_on,72,0,80
2,note_on,68,0,0
2,note_on,56,44,80
2,note_on,63,44,0
2,note_on,68,52,0
2,note_on,68,0,80
2,note_on,63,0,0
2,note_on,56,0,0
2,note_on,68,56,80
2,note_on,63,46,0
2,note_on,56,46,0
2,note_on,56,0,160
2,note_on,63,0,0
2,note_on,68,0,0
2,note_on,68,52,0
2,note_on,61,44,0
2,note_on,61,0,80
2,note_on,68,0,0
2,note_on,61,52,80
2,note_on,51,44,0
2,note_on,55,44,0
2,note_on,55,0,80
2,note_on,51,0,0
2,note_on,61,0,0
2,note_on,61,56,80
2,note_on,55,46,0
2,note_on,51,46,0
2,note_on,51,0,160
2,note_on,55,0,0
2,note_on,61,0,0
2,note_on,56,44,0
2,note_on,60,52,0
2,note_on,60,0,80
2,note_on,56,0,0
2,note_on,56,52,80
2,note_on,44,44,0
2,note_on,51,44,0
2,note_on,51,0,80
2,note_on,44,0,0
2,note_on,56,0,0
2,note_on,56,56,80
2,note_on,51,46,0
2,note_on,44,46,0
2,note_on,44,0,160
2,note_on,51,0,0
2,note_on,56,0,0
2,note_on,49,39,0
2,note_on,56,47,0
2,note_on,56,0,80
2,note_on,49,0,0
2,note_on,55,36,80
2,note_on,61,41,0
2,note_on,61,0,80
2,note_on,55,0,0
2,note_on,55,37,80
2,note_on,61,44,0
2,note_on,61,0,160
2,note_on,55,0,0
2,note_on,56,34,0
2,note_on,60,41,0
2,note_on,60,0,80
2,note_on,56,0,0
2,note_on,63,29,80
2,note_on,68,36,0
2,note_on,56,29,0
2,note_on,56,0,80
2,note_on,68,0,0
2,note_on,63,0,0
2,note_on,68,39,80
2,note_on,63,33,0
2,note_on,56,33,0
2,note_on,56,0,160
2,note_on,63,0,0
2,note_on,68,0,0
2,note_on,61,29,0
2,note_on,68,36,0
2,note_on,68,0,80
2,note_on,61,0,0
2,note_on,67,36,80
2,note_on,73,36,0
2,note_on,73,0,80
2,note_on,67,0,0
2,note_on,67,39,80
2,note_on,73,39,0
2,note_on,73,0,160
2,note_on,67,0,0
2,note_on,72,36,0
2,note_on,68,29,0
2,note_on,68,0,80
2,note_on,72,0,0
2,note_on,68,26,80
2,note_on,75,26,0
2,note_on,80,31,0
2,note_on,80,0,80
2,note_on,75,0,0
2,note_on,68,0,0
2,note_on,80,35,80
2,note_on,75,29,0
2,note_on,68,29,0
2,note_on,68,0,160
2,note_on,75,0,0
2,note_on,80,0,0
2,note_on,73,26,0
2,note_on,80,31,0
2,note_on,80,0,80
2,note_on,73,0,0
2,note_on,73,39,80
2,note_on,67,33,0
2,note_on,67,0,80
2,note_on,73,0,0
2,note_on,67,35,80
2,note_on,73,41,0
2,note_on,73,0,160
2,note_on,67,0,0
2,note_on,68,33,0
2,note_on,72,39,0
2,note_on,72,0,80
2,note_on,68,0,0
2,note_on,68,39,80
2,note_on,63,33,0
2,note_on,56,33,0
2,note_on,56,0,80
2,note_on,63,0,0
2,note_on,68,0,0
2,note_on,63,35,80
2,note_on,68,41,0
2,note_on,56,35,0
2,note_on,56,0,160
2,note_on,68,0,0
2,note_on,63,0,0
2,note_on,61,33,0
2,note_on,68,39,0
2,note_on,68,0,80
2,note_on,61,0,0
2,note_on,55,33,80
2,note_on,61,39,0
2,note_on,61,0,80
2,note_on,55,0,0
2,note_on,55,35,80
2,note_on,61,41,0
2,note_on,61,0,160
2,note_on,55,0,0
2,note_on,56,33,0
2,note_on,60,39,0
2,note_on,60,0,80
2,note_on,56,0,0
2,note_on,44,41,80
2,note_on,56,49,0
2,note_on,56,0,80
2,note_on,44,0,0
2,note_on,44,39,80
2,note_on,56,47,0
2,note_on,56,0,160
2,note_on,44,0,0
2,note_on,43,33,0
2,note_on,55,39,0
2,note_on,55,0,80
2,note_on,43,0,0
2,note_on,55,38,80
2,note_on,57,45,0
2,note_on,57,0,80
2,note_on,55,0,0
2,note_on,57,47,80
2,note_on,55,39,0
2,note_on,55,0,160
2,note_on,57,0,0
2,note_on,59,39,0
2,note_on,55,31,0
2,note_on,55,0,80
2,note_on,59,0,0
2,note_on,62,44,80
2,note_on,55,36,0
2,note_on,55,0,80
2,note_on,62,0,0
2,note_on,62,47,80
2,note_on,55,39,0
2,note_on,55,0,160
2,note_on,62,0,0
2,note_on,55,34,0
2,note_on,60,34,0
2,note_on,64,41,0
2,note_on,64,0,80
2,note_on,60,0,0
2,note_on,55,0,0
2,note_on,69,44,80
2,note_on,55,44,0
2,note_on,62,44,0
2,note_on,62,0,80
2,note_on,55,0,0
2,note_on,69,0,0
2,note_on,69,47,80
2,note_on,55,47,0
2,note_on,62,47,0
2,note_on,62,0,160
2,note_on,55,0,0
2,note_on,69,0,0
2,note_on,62,34,0
2,note_on,67,41,0
2,note_on,55,44,0
2,note_on,55,0,80
2,note_on,67,0,0
2,note_on,62,0,0
2,note_on,62,36,80
2,note_on,55,47,0
2,note_on,67,44,0
2,note_on,67,0,80
2,note_on,55,0,0
2,note_on,62,0,0
2,note_on,55,39,80
2,note_on,67,47,0
2,note_on,62,39,0
2,note_on,62,0,160
2,note_on,67,0,0
2,note_on,55,0,0
2,note_on,68,49,0
2,note_on,62,34,0
2,note_on,62,0,160
2,note_on,68,0,0
2,note_on,53,61,0
2,note_on,53,0,160
2,note_on,65,56,0
2,note_on,56,47,0
2,note_on,56,0,160
2,note_on,65,0,0
2,note_on,50,62,0
2,note_on,50,0,160
2,note_on,56,49,0
2,note_on,62,59,0
2,note_on,62,0,160
2,note_on,56,0,0
2,note_on,47,64,0
2,note_on,47,0,160
2,note_on,53,50,0
2,note_on,59,60,0
2,note_on,59,0,160
2,note_on,53,0,0
2,note_on,44,69,0
2,note_on,44,0,160
2,note_on,50,53,0
2,note_on,56,64,0
2,note_on,56,0,160
2,note_on,50,0,0
2,note_on,41,77,0
2,note_on,41,0,160
2,note_on,29,69,0
2,note_on,41,69,0
2,note_on,41,0,160
2,note_on,29,0,0
2,note_on,40,42,0
2,note_on,28,42,0
2,note_on,28,0,160
2,note_on,40,0,0
2,note_on,52,50,0
2,note_on,40,36,0
2,note_on,40,0,160
2,note_on,52,0,0
2,note_on,52,48,0
2,note_on,40,40,0
2,note_on,40,0,160
2,note_on,52,0,0
2,note_on,52,48,0
2,note_on,40,40,0
2,note_on,40,0,160
2,note_on,52,0,0
2,note_on,40,40,0
2,note_on,52,48,0
2,note_on,52,0,160
2,note_on,40,0,0
2,note_on,40,41,0
2,note_on,52,49,0
2,note_on,52,0,160
2,note_on,40,0,0
2,note_on,40,38,0
2,note_on,52,55,0
2,note_on,52,0,160
2,note_on,40,0,0
2,note_on,39,44,0
2,note_on,51,52,0
2,note_on,51,0,160
2,note_on,39,0,0
2,note_on,39,44,0
2,note_on,51,52,0
2,note_on,51,0,160
2,note_on,39,0,0
2,note_on,39,47,0
2,note_on,51,56,0
2,note_on,51,0,160
2,note_on,39,0,0
2,note_on,40,44,0
2,note_on,52,52,0
2,note_on,52,0,160
2,note_on,40,0,0
2,note_on,52,52,0
2,note_on,40,44,0
2,note_on,40,0,160
2,note_on,52,0,0
2,note_on,40,46,0
2,note_on,52,56,0
2,note_on,52,0,80
2,note_on,40,0,0
2,note_on,40,47,80
2,note_on,52,57,0
2,note_on,52,0,80
2,note_on,40,0,0
2,note_on,40,48,80
2,note_on,52,58,0
2,note_on,52,0,80
2,note_on,40,0,0
2,note_on,40,49,80
2,note_on,52,58,0
2,note_on,52,0,80
2,note_on,40,0,0
2,note_on,40,50,80
2,note_on,52,59,0
2,note_on,52,0,80
2,note_on,40,0,0
2,note_on,52,61,80
2,note_on,40,51,0
2,note_on,40,0,80
2,note_on,52,0,0
2,note_on,40,52,80
2,note_on,52,62,0
2,note_on,52,0,80
2,note_on,40,0,0
2,note_on,39,52,80
2,note_on,51,62,0
2,note_on,51,0,80
2,note_on,39,0,0
2,note_on,39,53,80
2,note_on,51,63,0
2,note_on,51,0,80
2,note_on,39,0,0
2,note_on,51,64,80
2,note_on,39,53,0
2,note_on,39,0,80
2,note_on,51,0,0
2,note_on,52,66,80
2,note_on,40,55,0
2,note_on,40,0,80
2,note_on,52,0,0
2,note_on,52,67,80
2,note_on,40,56,0
2,note_on,40,0,80
2,note_on,52,0,0
2,note_on,53,74,80
2,note_on,41,52,0
2,note_on,41,0,80
2,note_on,53,0,0
2,note_on,56,50,80
2,note_on,49,50,0
2,note_on,61,71,0
2,note_on,61,0,160
2,note_on,49,0,0
2,note_on,56,0,0
2,note_on,56,51,0
2,note_on,49,51,0
2,note_on,61,72,0
2,note_on,61,0,160
2,note_on,49,0,0
2,note_on,56,0,0
2,note_on,49,53,0
2,note_on,56,53,0
2,note_on,61,75,0
2,note_on,61,0,160
2,note_on,56,0,0
2,note_on,49,0,0
2,note_on,30,68,320
2,note_on,42,96,0
2,note_on,42,0,160
2,note_on,30,0,0
2,note_on,49,50,0
2,note_on,54,50,0
2,note_on,61,71,0
2,note_on,61,0,160
2,note_on,54,0,0
2,note_on,49,0,0
2,note_on,54,51,0
2,note_on,49,51,0
2,note_on,61,72,0
2,note_on,61,0,160
2,note_on,49,0,0
2,note_on,54,0,0
2,note_on,49,53,0
2,note_on,54,53,0
2,note_on,61,75,0
2,note_on,61,0,160
2,note_on,54,0,0
2,note_on,49,0,0
2,note_on,32,68,320
2,note_on,44,96,0
2,note_on,44,0,160
2,note_on,32,0,0
2,note_on,56,50,0
2,note_on,61,71,0
2,note_on,49,50,0
2,note_on,49,0,160
2,note_on,61,0,0
2,note_on,56,0,0
2,note_on,61,72,0
2,note_on,49,51,0
2,note_on,56,51,0
2,note_on,56,0,160
2,note_on,49,0,0
2,note_on,61,0,0
2,note_on,61,75,0
2,note_on,56,53,0
2,note_on,49,53,0
2,note_on,49,0,160
2,note_on,56,0,0
2,note_on,61,0,0
2,note_on,34,68,320
2,note_on,46,96,0
2,note_on,46,0,160
2,note_on,34,0,0
2,note_on,58,50,0
2,note_on,51,50,0
2,note_on,61,71,0
2,note_on,61,0,160
2,note_on,51,0,0
2,note_on,58,0,0
2,note_on,61,72,0
2,note_on,51,51,0
2,note_on,58,51,0
2,note_on,58,0,160
2,note_on,51,0,0
2,note_on,61,0,0
2,note_on,61,75,0
2,note_on,58,53,0
2,note_on,51,53,0
2,note_on,51,0,160
2,note_on,58,0,0
2,note_on,61,0,0
2,note_on,27,59,320
2,note_on,39,70,0
2,note_on,39,0,1920
2,note_on,27,0,0
2,note_on,32,56,0
2,note_on,44,66,0
2,note_on,44,0,1920
2,note_on,32,0,0
2,note_on,45,66,0
2,note_on,33,56,0
2,note_on,33,0,120
2,note_on,45,0,0
2,note_on,42,60,0
2,note_on,30,50,0
2,note_on,30,0,120
2,note_on,42,0,0
2,note_on,32,56,120
2,note_on,44,66,0
2,note_on,44,0,120
2,note_on,32,0,0
2,note_on,33,52,0
2,note_on,45,62,0
2,note_on,45,0,120
2,note_on,33,0,0
2,note_on,30,52,0
2,note_on,42,62,0
2,note_on,42,0,120
2,note_on,30,0,0
2,note_on,33,37,240
2,note_on,45,44,0
2,note_on,45,0,120
2,note_on,33,0,0
2,note_on,30,33,0
2,note_on,42,39,0
2,note_on,42,0,120
2,note_on,30,0,0
2,note_on,32,37,120
2,note_on,44,44,0
2,note_on,44,0,120
2,note_on,32,0,0
2,note_on,33,33,0
2,note_on,45,39,0
2,note_on,45,0,120
2,note_on,33,0,0
2,note_on,30,33,0
2,note_on,42,39,0
2,note_on,42,0,120
2,note_on,30,0,0
2,note_on,33,37,240
2,note_on,45,44,0
2,note_on,45,0,120
2,note_on,33,0,0
2,note_on,30,34,0
2,note_on,42,39,0
2,note_on,42,0,120
2,note_on,30,0,0
2,note_on,32,37,120
2,note_on,44,44,0
2,note_on,44,0,120
2,note_on,32,0,0
2,note_on,33,34,0
2,note_on,45,39,0
2,note_on,45,0,120
2,note_on,33,0,0
2,note_on,42,34,0
2,note_on,54,39,0
2,note_on,54,0,120
2,note_on,42,0,0
2,note_on,54,41,240
2,note_on,54,0,480
2,note_on,38,34,0
2,note_on,38,0,480
2,note_on,43,30,0
2,note_on,50,30,0
2,note_on,55,37,0
2,note_on,55,0,960
2,note_on,50,0,0
2,note_on,43,0,0
2,note_on,38,33,0
2,note_on,50,39,0
2,note_on,50,0,360
2,note_on,38,0,0
2,note_on,31,29,0
2,note_on,43,35,0
2,note_on,43,0,120
2,note_on,31,0,0
2,note_on,31,30,0
2,note_on,43,37,0
2,note_on,43,0,480
2,note_on,31,0,0
2,note_on,38,39,0
2,note_on,38,0,120
2,note_on,31,36,0
2,note_on,31,0,120
2,note_on,33,39,120
2,note_on,33,0,120
2,note_on,35,36,0
2,note_on,35,0,120
2,note_on,31,36,0
2,note_on,31,0,120
2,note_on,50,41,240
2,note_on,38,35,0
2,note_on,38,0,120
2,note_on,50,0,0
2,note_on,43,39,0
2,note_on,31,31,0
2,note_on,31,0,120
2,note_on,43,0,0
2,note_on,45,42,120
2,note_on,33,36,0
2,note_on,33,0,120
2,note_on,45,0,0
2,note_on,47,39,0
2,note_on,35,33,0
2,note_on,35,0,120
2,note_on,47,0,0
2,note_on,43,39,0
2,note_on,31,33,0
2,note_on,31,0,120
2,note_on,43,0,0
2,note_on,50,46,240
2,note_on,38,38,0
2,note_on,38,0,120
2,note_on,50,0,0
2,note_on,44,42,0
2,note_on,32,36,0
2,note_on,32,0,120
2,note_on,44,0,0
2,note_on,45,47,120
2,note_on,33,40,0
2,note_on,33,0,120
2,note_on,45,0,0
2,note_on,47,42,0
2,note_on,35,36,0
2,note_on,35,0,120
2,note_on,47,0,0
2,note_on,44,45,0
2,note_on,32,37,0
2,note_on,32,0,120
2,note_on,44,0,0
2,note_on,50,58,240
2,note_on,38,48,0
2,note_on,38,0,120
2,note_on,50,0,0
2,note_on,44,53,0
2,note_on,32,45,0
2,note_on,32,0,120
2,note_on,44,0,0
2,note_on,45,60,120
2,note_on,33,49,0
2,note_on,33,0,120
2,note_on,45,0,0
2,note_on,47,53,0
2,note_on,35,46,0
2,note_on,35,0,120
2,note_on,47,0,0
2,note_on,44,56,0
2,note_on,32,47,0
2,note_on,32,0,120
2,note_on,44,0,0
2,note_on,50,63,240
2,note_on,38,52,0
2,note_on,38,0,120
2,note_on,50,0,0
2,note_on,47,58,0
2,note_on,35,49,0
2,note_on,35,0,120
2,note_on,47,0,0
2,note_on,49,67,120
2,note_on,37,57,0
2,note_on,37,0,120
2,note_on,49,0,0
2,note_on,50,60,0
2,note_on,38,51,0
2,note_on,38,0,120
2,note_on,50,0,0
2,note_on,59,62,0
2,note_on,47,52,0
2,note_on,47,0,120
2,note_on,59,0,0
2,note_on,56,40,240
2,note_on,56,0,480
2,note_on,40,36,0
2,note_on,40,0,480
2,note_on,45,33,0
2,note_on,52,33,0
2,note_on,57,39,0
2,note_on,52,0,480
2,note_on,53,33,0
2,note_on,57,0,480
2,note_on,45,0,0
2,note_on,33,33,0
2,note_on,45,39,0
2,note_on,45,0,120
2,note_on,33,0,0
2,note_on,29,29,0
2,note_on,41,36,0
2,note_on,41,0,120
2,note_on,29,0,0
2,note_on,31,33,120
2,note_on,43,39,0
2,note_on,43,0,120
2,note_on,31,0,0
2,note_on,33,29,0
2,note_on,45,35,0
2,note_on,45,0,120
2,note_on,33,0,0
2,note_on,29,29,0
2,note_on,41,35,0
2,note_on,41,0,120
2,note_on,29,0,0
2,note_on,53,0,240
2,note_on,45,31,0
2,note_on,53,38,0
2,note_on,53,0,480
2,note_on,54,39,0
2,note_on,54,0,480
2,note_on,45,0,0
2,note_on,47,35,0
2,note_on,54,41,0
2,note_on,54,0,480
2,note_on,55,42,0
2,note_on,55,0,480
2,note_on,47,0,0
2,note_on,35,35,0
2,note_on,47,41,0
2,note_on,47,0,120
2,note_on,35,0,0
2,note_on,31,31,0
2,note_on,43,38,0
2,note_on,43,0,120
2,note_on,31,0,0
2,note_on,33,38,120
2,note_on,45,46,0
2,note_on,45,0,120
2,note_on,33,0,0
2,note_on,35,35,0
2,note_on,47,41,0
2,note_on,47,0,120
2,note_on,35,0,0
2,note_on,31,36,0
2,note_on,43,42,0
2,note_on,43,0,120
2,note_on,31,0,0
2,note_on,36,35,240
2,note_on,48,41,0
2,note_on,48,0,120
2,note_on,36,0,0
2,note_on,31,31,0
2,note_on,43,38,0
2,note_on,43,0,120
2,note_on,31,0,0
2,note_on,36,38,120
2,note_on,48,46,0
2,note_on,48,0,120
2,note_on,36,0,0
2,note_on,38,35,0
2,note_on,50,41,0
2,note_on,50,0,120
2,note_on,38,0,0
2,note_on,31,36,0
2,note_on,43,42,0
2,note_on,43,0,120
2,note_on,31,0,0
2,note_on,39,29,240
2,note_on,51,35,0
2,note_on,51,0,120
2,note_on,39,0,0
2,note_on,31,26,0
2,note_on,43,31,0
2,note_on,43,0,120
2,note_on,31,0,0
2,note_on,38,29,120
2,note_on,50,35,0
2,note_on,50,0,120
2,note_on,38,0,0
2,note_on,39,26,0
2,note_on,51,30,0
2,note_on,51,0,120
2,note_on,39,0,0
2,note_on,44,26,0
2,note_on,56,30,0
2,note_on,56,0,120
2,note_on,44,0,0
2,note_on,41,29,240
2,note_on,53,35,0
2,note_on,53,0,120
2,note_on,41,0,0
2,note_on,38,26,0
2,note_on,50,31,0
2,note_on,50,0,120
2,note_on,38,0,0
2,note_on,39,29,120
2,note_on,51,35,0
2,note_on,51,0,120
2,note_on,39,0,0
2,note_on,41,26,0
2,note_on,53,30,0
2,note_on,53,0,120
2,note_on,41,0,0
2,note_on,50,26,0
2,note_on,62,30,0
2,note_on,62,0,120
2,note_on,50,0,0
2,note_on,40,42,240
2,note_on,40,0,160
2,note_on,45,39,0
2,note_on,55,39,160
2,note_on,55,0,160
2,note_on,45,0,0
2,note_on,54,44,0
2,note_on,54,0,160
2,note_on,45,40,0
2,note_on,45,0,160
2,note_on,38,40,0
2,note_on,38,0,160
2,note_on,41,44,0
2,note_on,41,0,160
2,note_on,47,38,0
2,note_on,57,39,160
2,note_on,57,0,160
2,note_on,47,0,0
2,note_on,56,44,0
2,note_on,56,0,160
2,note_on,47,39,0
2,note_on,47,0,160
2,note_on,40,39,0
2,note_on,40,0,160
2,note_on,43,46,0
2,note_on,43,0,160
2,note_on,49,40,0
2,note_on,49,0,160
2,note_on,59,40,0
2,note_on,59,0,160
2,note_on,42,49,0
2,note_on,42,0,160
2,note_on,49,42,0
2,note_on,49,0,160
2,note_on,58,42,0
2,note_on,58,0,160
2,note_on,43,53,0
2,note_on,43,0,160
2,note_on,52,58,0
2,note_on,52,0,160
2,note_on,61,60,0
2,note_on,61,0,160
2,note_on,44,66,0
2,note_on,44,0,160
2,note_on,52,69,0
2,note_on,52,0,160
2,note_on,61,74,0
2,note_on,61,0,160
2,note_on,32,49,0
2,note_on,44,59,0
2,note_on,44,0,120
2,note_on,32,0,0
2,note_on,28,44,0
2,note_on,40,53,0
2,note_on,40,0,120
2,note_on,28,0,0
2,note_on,30,51,120
2,note_on,42,62,0
2,note_on,42,0,120
2,note_on,30,0,0
2,note_on,32,46,0
2,note_on,44,56,0
2,note_on,44,0,120
2,note_on,32,0,0
2,note_on,28,47,0
2,note_on,40,57,0
2,note_on,40,0,120
2,note_on,28,0,0
2,note_on,32,49,240
2,note_on,44,59,0
2,note_on,44,0,120
2,note_on,32,0,0
2,note_on,29,44,0
2,note_on,41,53,0
2,note_on,41,0,120
2,note_on,29,0,0
2,note_on,31,51,120
2,note_on,43,62,0
2,note_on,43,0,120
2,note_on,31,0,0
2,note_on,32,46,0
2,note_on,44,56,0
2,note_on,44,0,120
2,note_on,32,0,0
2,note_on,29,47,0
2,note_on,41,57,0
2,note_on,41,0,120
2,note_on,29,0,0
2,note_on,34,38,240
2,note_on,46,46,0
2,note_on,46,0,120
2,note_on,34,0,0
2,note_on,31,35,0
2,note_on,43,42,0
2,note_on,43,0,120
2,note_on,31,0,0
2,note_on,32,41,120
2,note_on,44,51,0
2,note_on,44,0,120
2,note_on,32,0,0
2,note_on,34,39,0
2,note_on,46,46,0
2,note_on,46,0,120
2,note_on,34,0,0
2,note_on,43,40,0
2,note_on,55,47,0
2,note_on,55,0,120
2,note_on,43,0,0
2,note_on,36,36,240
2,note_on,48,44,0
2,note_on,48,0,120
2,note_on,36,0,0
2,note_on,33,31,0
2,note_on,45,39,0
2,note_on,45,0,120
2,note_on,33,0,0
2,note_on,34,36,120
2,note_on,46,44,0
2,note_on,46,0,120
2,note_on,34,0,0
2,note_on,36,31,0
2,note_on,48,38,0
2,note_on,48,0,120
2,note_on,36,0,0
2,note_on,48,31,0
2,note_on,60,38,0
2,note_on,60,0,120
2,note_on,48,0,0
2,note_on,39,55,240
2,note_on,39,0,160
2,note_on,47,42,0
2,note_on,57,42,160
2,note_on,57,0,160
2,note_on,47,0,0
2,note_on,56,48,0
2,note_on,56,0,160
2,note_on,47,44,0
2,note_on,47,0,160
2,note_on,40,44,0
2,note_on,40,0,160
2,note_on,41,48,0
2,note_on,41,0,160
2,note_on,49,41,0
2,note_on,59,42,160
2,note_on,59,0,160
2,note_on,49,0,0
2,note_on,58,48,0
2,note_on,58,0,160
2,note_on,49,42,0
2,note_on,49,0,160
2,note_on,42,42,0
2,note_on,42,0,160
2,note_on,43,50,0
2,note_on,43,0,160
2,note_on,51,44,0
2,note_on,61,44,160
2,note_on,61,0,160
2,note_on,51,0,0
2,note_on,44,53,0
2,note_on,44,0,160
2,note_on,51,46,0
2,note_on,51,0,160
2,note_on,60,46,0
2,note_on,60,0,160
2,note_on,45,58,0
2,note_on,45,0,160
2,note_on,54,63,0
2,note_on,54,0,160
2,note_on,63,66,0
2,note_on,63,0,160
2,note_on,48,71,0
2,note_on,48,0,160
2,note_on,54,74,0
2,note_on,54,0,160
2,note_on,62,81,0
2,note_on,62,0,160
2,note_on,34,73,0
2,note_on,46,86,0
2,note_on,46,0,160
2,note_on,34,0,0
2,note_on,50,61,0
2,note_on,58,72,0
2,note_on,58,0,160
2,note_on,50,0,0
2,note_on,55,68,0
2,note_on,62,80,0
2,note_on,62,0,160
2,note_on,55,0,0
2,note_on,58,68,0
2,note_on,67,80,0
2,note_on,67,0,160
2,note_on,58,0,0
2,note_on,55,63,0
2,note_on,62,75,0
2,note_on,62,0,160
2,note_on,55,0,0
2,note_on,26,56,80
2,note_on,38,66,0
2,note_on,38,0,80
2,note_on,26,0,0
2,note_on,26,73,0
2,note_on,38,86,0
2,note_on,38,0,160
2,note_on,26,0,0
2,note_on,50,61,0
2,note_on,58,72,0
2,note_on,58,0,160
2,note_on,50,0,0
2,note_on,55,63,0
2,note_on,62,75,0
2,note_on,62,0,160
2,note_on,55,0,0
2,note_on,58,63,0
2,note_on,67,75,0
2,note_on,67,0,160
2,note_on,58,0,0
2,note_on,55,60,0
2,note_on,62,71,0
2,note_on,62,0,160
2,note_on,55,0,0
2,note_on,50,52,0
2,note_on,58,62,0
2,note_on,58,0,160
2,note_on,50,0,0
2,note_on,46,70,0
2,note_on,58,82,0
2,note_on,58,0,160
2,note_on,46,0,0
2,note_on,53,59,0
2,note_on,61,70,0
2,note_on,61,0,160
2,note_on,53,0,0
2,note_on,58,66,0
2,note_on,65,77,0
2,note_on,65,0,160
2,note_on,58,0,0
2,note_on,61,66,0
2,note_on,70,77,0
2,note_on,70,0,160
2,note_on,61,0,0
2,note_on,58,61,0
2,note_on,65,72,0
2,note_on,65,0,160
2,note_on,58,0,0
2,note_on,37,53,80
2,note_on,49,63,0
2,note_on,49,0,80
2,note_on,37,0,0
2,note_on,37,70,0
2,note_on,49,82,0
2,note_on,49,0,160
2,note_on,37,0,0
2,note_on,53,59,0
2,note_on,61,70,0
2,note_on,61,0,160
2,note_on,53,0,0
2,note_on,58,61,0
2,note_on,65,72,0
2,note_on,65,0,160
2,note_on,58,0,0
2,note_on,61,61,0
2,note_on,70,72,0
2,note_on,70,0,160
2,note_on,61,0,0
2,note_on,58,58,0
2,note_on,65,69,0
2,note_on,65,0,160
2,note_on,58,0,0
2,note_on,53,50,0
2,note_on,61,60,0
2,note_on,61,0,160
2,note_on,53,0,0
2,note_on,32,73,0
2,note_on,44,86,0
2,note_on,44,0,160
2,note_on,32,0,0
2,note_on,53,61,0
2,note_on,60,72,0
2,note_on,60,0,160
2,note_on,53,0,0
2,note_on,56,68,0
2,note_on,65,80,0
2,note_on,65,0,160
2,note_on,56,0,0
2,note_on,60,68,0
2,note_on,68,80,0
2,note_on,68,0,160
2,note_on,60,0,0
2,note_on,56,63,0
2,note_on,65,75,0
2,note_on,65,0,160
2,note_on,56,0,0
2,note_on,36,66,100
2,note_on,24,56,0
2,note_on,24,73,60
2,note_on,36,86,0
2,note_on,24,0,20
2,note_on,36,0,0
2,note_on,24,0,140
2,note_on,36,0,0
2,note_on,53,61,0
2,note_on,60,72,0
2,note_on,60,0,160
2,note_on,53,0,0
2,note_on,56,63,0
2,note_on,65,75,0
2,note_on,65,0,160
2,note_on,56,0,0
2,note_on,60,63,0
2,note_on,68,75,0
2,note_on,68,0,160
2,note_on,60,0,0
2,note_on,56,60,0
2,note_on,65,71,0
2,note_on,65,0,160
2,note_on,56,0,0
2,note_on,53,52,0
2,note_on,60,62,0
2,note_on,60,0,160
2,note_on,53,0,0
2,note_on,44,73,0
2,note_on,56,86,0
2,note_on,56,0,160
2,note_on,44,0,0
2,note_on,52,61,0
2,note_on,60,72,0
2,note_on,60,0,160
2,note_on,52,0,0
2,note_on,56,68,0
2,note_on,64,80,0
2,note_on,64,0,160
2,note_on,56,0,0
2,note_on,60,68,0
2,note_on,68,80,0
2,note_on,68,0,160
2,note_on,60,0,0
2,note_on,56,63,0
2,note_on,64,75,0
2,note_on,64,0,160
2,note_on,56,0,0
2,note_on,48,66,100
2,note_on,36,56,0
2,note_on,36,73,60
2,note_on,48,86,0
2,note_on,36,0,20
2,note_on,48,0,0
2,note_on,36,0,140
2,note_on,48,0,0
2,note_on,52,61,0
2,note_on,60,72,0
2,note_on,60,0,160
2,note_on,52,0,0
2,note_on,56,63,0
2,note_on,64,75,0
2,note_on,64,0,160
2,note_on,56,0,0
2,note_on,60,63,0
2,note_on,68,75,0
2,note_on,68,0,160
2,note_on,60,0,0
2,note_on,56,60,0
2,note_on,64,71,0
2,note_on,64,0,160
2,note_on,56,0,0
2,note_on,52,52,0
2,note_on,60,62,0
2,note_on,60,0,160
2,note_on,52,0,0
2,note_on,43,73,0
2,note_on,55,86,0
2,note_on,55,0,160
2,note_on,43,0,0
2,note_on,55,61,0
2,note_on,64,72,0
2,note_on,64,0,160
2,note_on,55,0,0
2,note_on,59,68,0
2,note_on,67,80,0
2,note_on,67,0,160
2,note_on,59,0,0
2,note_on,64,68,0
2,note_on,71,80,0
2,note_on,71,0,160
2,note_on,64,0,0
2,note_on,59,63,0
2,note_on,67,75,0
2,note_on,67,0,160
2,note_on,59,0,0
2,note_on,47,66,100
2,note_on,35,56,0
2,note_on,35,73,60
2,note_on,47,86,0
2,note_on,35,0,20
2,note_on,47,0,0
2,note_on,35,0,140
2,note_on,47,0,0
2,note_on,55,61,0
2,note_on,64,72,0
2,note_on,64,0,160
2,note_on,55,0,0
2,note_on,59,63,0
2,note_on,67,75,0
2,note_on,67,0,160
2,note_on,59,0,0
2,note_on,64,63,0
2,note_on,71,75,0
2,note_on,71,0,160
2,note_on,64,0,0
2,note_on,59,60,0
2,note_on,67,71,0
2,note_on,67,0,160
2,note_on,59,0,0
2,note_on,55,52,0
2,note_on,64,62,0
2,note_on,64,0,160
2,note_on,55,0,0
2,note_on,43,73,0
2,note_on,55,86,0
2,note_on,55,0,160
2,note_on,43,0,0
2,note_on,50,61,0
2,note_on,59,72,0
2,note_on,59,0,160
2,note_on,50,0,0
2,note_on,55,68,0
2,note_on,62,80,0
2,note_on,62,0,160
2,note_on,55,0,0
2,note_on,59,68,0
2,note_on,67,80,0
2,note_on,67,0,160
2,note_on,59,0,0
2,note_on,55,63,0
2,note_on,62,75,0
2,note_on,62,0,160
2,note_on,55,0,0
2,note_on,43,66,100
2,note_on,31,56,0
2,note_on,31,73,60
2,note_on,43,86,0
2,note_on,31,0,20
2,note_on,43,0,0
2,note_on,31,0,140
2,note_on,43,0,0
2,note_on,50,61,0
2,note_on,59,72,0
2,note_on,59,0,160
2,note_on,50,0,0
2,note_on,55,63,0
2,note_on,62,75,0
2,note_on,62,0,160
2,note_on,55,0,0
2,note_on,59,63,0
2,note_on,67,75,0
2,note_on,67,0,160
2,note_on,59,0,0
2,note_on,55,60,0
2,note_on,62,71,0
2,note_on,62,0,160
2,note_on,55,0,0
2,note_on,50,52,0
2,note_on,59,62,0
2,note_on,59,0,160
2,note_on,50,0,0
2,note_on,42,73,0
2,note_on,54,86,0
2,note_on,54,0,160
2,note_on,42,0,0
2,note_on,50,61,0
2,note_on,57,72,0
2,note_on,57,0,160
2,note_on,50,0,0
2,note_on,54,68,0
2,note_on,62,80,0
2,note_on,62,0,160
2,note_on,54,0,0
2,note_on,57,68,0
2,note_on,66,80,0
2,note_on,66,0,160
2,note_on,57,0,0
2,note_on,54,63,0
2,note_on,62,75,0
2,note_on,62,0,160
2,note_on,54,0,0
2,note_on,50,56,0
2,note_on,57,66,0
2,note_on,57,0,160
2,note_on,50,0,0
2,note_on,41,73,0
2,note_on,53,86,0
2,note_on,53,0,160
2,note_on,41,0,0
2,note_on,50,61,0
2,note_on,57,72,0
2,note_on,57,0,160
2,note_on,50,0,0
2,note_on,53,63,0
2,note_on,62,75,0
2,note_on,62,0,160
2,note_on,53,0,0
2,note_on,57,63,0
2,note_on,65,75,0
2,note_on,65,0,160
2,note_on,57,0,0
2,note_on,53,60,0
2,note_on,62,71,0
2,note_on,62,0,160
2,note_on,53,0,0
2,note_on,50,52,0
2,note_on,57,62,0
2,note_on,57,0,160
2,note_on,50,0,0
2,note_on,41,64,0
2,note_on,53,77,0
2,note_on,53,0,160
2,note_on,41,0,0
2,note_on,48,55,0
2,note_on,57,64,0
2,note_on,57,0,160
2,note_on,48,0,0
2,note_on,53,60,0
2,note_on,60,71,0
2,note_on,60,0,160
2,note_on,53,0,0
2,note_on,57,60,0
2,note_on,65,71,0
2,note_on,65,0,160
2,note_on,57,0,0
2,note_on,53,57,0
2,note_on,60,68,0
2,note_on,60,0,160
2,note_on,53,0,0
2,note_on,29,49,80
2,note_on,41,59,0
2,note_on,41,0,80
2,note_on,29,0,0
2,note_on,29,64,0
2,note_on,41,77,0
2,note_on,41,0,160
2,note_on,29,0,0
2,note_on,48,55,0
2,note_on,57,64,0
2,note_on,57,0,160
2,note_on,48,0,0
2,note_on,53,57,0
2,note_on,60,67,0
2,note_on,60,0,160
2,note_on,53,0,0
2,note_on,57,57,0
2,note_on,57,0,157
2,note_on,41,51,3
2,note_on,41,0,160
2,note_on,29,53,0
2,note_on,29,0,160
2,note_on,27,57,0
2,note_on,39,57,0
2,note_on,39,0,240
2,note_on,27,0,0
2,note_on,39,46,240
2,note_on,39,0,120
2,note_on,42,39,0
2,note_on,42,0,120
2,note_on,54,39,0
2,note_on,54,0,120
2,note_on,47,39,0
2,note_on,47,0,120
2,note_on,42,47,0
2,note_on,42,0,120
2,note_on,47,42,0
2,note_on,47,0,120
2,note_on,59,42,0
2,note_on,59,0,120
2,note_on,51,44,0
2,note_on,51,0,120
2,note_on,47,49,0
2,note_on,47,0,120
2,note_on,51,42,0
2,note_on,51,0,120
2,note_on,63,44,0
2,note_on,63,0,120
2,note_on,54,44,0
2,note_on,54,0,120
2,note_on,51,50,0
2,note_on,51,0,120
2,note_on,54,42,0
2,note_on,54,0,120
2,note_on,66,44,0
2,note_on,66,0,120
2,note_on,59,44,0
2,note_on,59,0,120
2,note_on,54,56,0
2,note_on,54,0,120
2,note_on,59,48,0
2,note_on,59,0,120
2,note_on,71,48,0
2,note_on,71,0,120
2,note_on,63,48,0
2,note_on,63,0,120
2,note_on,59,56,0
2,note_on,59,0,120
2,note_on,63,51,0
2,note_on,63,0,120
2,note_on,75,51,0
2,note_on,75,0,120
2,note_on,66,52,0
2,note_on,66,0,120
2,note_on,52,62,0
2,note_on,52,0,120
2,note_on,58,56,0
2,note_on,58,0,120
2,note_on,67,56,0
2,note_on,67,0,120
2,note_on,61,56,0
2,note_on,61,0,120
2,note_on,51,62,0
2,note_on,51,0,120
2,note_on,54,53,0
2,note_on,54,0,120
2,note_on,66,53,0
2,note_on,66,0,120
2,note_on,59,53,0
2,note_on,59,0,120
2,note_on,39,46,0
2,note_on,39,0,120
2,note_on,42,39,0
2,note_on,42,0,120
2,note_on,54,39,0
2,note_on,54,0,120
2,note_on,47,39,0
2,note_on,47,0,120
2,note_on,42,47,0
2,note_on,42,0,120
2,note_on,47,42,0
2,note_on,47,0,120
2,note_on,59,42,0
2,note_on,59,0,120
2,note_on,51,44,0
2,note_on,51,0,120
2,note_on,47,49,0
2,note_on,47,0,120
2,note_on,51,42,0
2,note_on,51,0,120
2,note_on,63,44,0
2,note_on,63,0,120
2,note_on,54,44,0
2,note_on,54,0,120
2,note_on,51,50,0
2,note_on,51,0,120
2,note_on,54,42,0
2,note_on,54,0,120
2,note_on,66,44,0
2,note_on,66,0,120
2,note_on,59,44,0
2,note_on,59,0,120
2,note_on,54,56,0
2,note_on,54,0,120
2,note_on,59,48,0
2,note_on,59,0,120
2,note_on,71,48,0
2,note_on,71,0,120
2,note_on,63,48,0
2,note_on,63,0,120
2,note_on,59,56,0
2,note_on,59,0,120
2,note_on,63,51,0
2,note_on,63,0,120
2,note_on,75,51,0
2,note_on,75,0,120
2,note_on,66,52,0
2,note_on,66,0,120
2,note_on,52,62,0
2,note_on,52,0,120
2,note_on,58,56,0
2,note_on,58,0,120
2,note_on,67,56,0
2,note_on,67,0,120
2,note_on,61,56,0
2,note_on,61,0,120
2,note_on,41,62,0
2,note_on,41,0,160
2,note_on,48,52,0
2,note_on,48,0,160
2,note_on,49,41,0
2,note_on,54,34,0
2,note_on,49,0,160
2,note_on,48,38,0
2,note_on,48,0,160
2,note_on,54,0,0
2,note_on,41,39,0
2,note_on,41,0,160
2,note_on,51,36,0
2,note_on,58,42,0
2,note_on,58,0,160
2,note_on,57,39,0
2,note_on,57,0,160
2,note_on,51,0,0
2,note_on,41,41,0
2,note_on,41,0,160
2,note_on,49,46,0
2,note_on,54,39,0
2,note_on,49,0,160
2,note_on,48,44,0
2,note_on,48,0,160
2,note_on,54,0,0
2,note_on,41,44,0
2,note_on,41,0,160
2,note_on,51,41,0
2,note_on,58,48,0
2,note_on,58,0,160
2,note_on,57,46,0
2,note_on,57,0,160
2,note_on,51,0,0
2,note_on,41,46,0
2,note_on,41,0,160
2,note_on,58,51,0
2,note_on,63,42,0
2,note_on,58,0,160
2,note_on,57,47,0
2,note_on,57,0,160
2,note_on,63,0,0
2,note_on,53,47,0
2,note_on,53,0,160
2,note_on,66,46,0
2,note_on,61,53,0
2,note_on,61,0,160
2,note_on,60,49,0
2,note_on,60,0,160
2,note_on,66,0,0
2,note_on,53,50,0
2,note_on,53,0,160
2,note_on,63,48,0
2,note_on,70,56,0
2,note_on,70,0,160
2,note_on,69,50,0
2,note_on,69,0,160
2,note_on,63,0,0
2,note_on,53,51,0
2,note_on,53,0,160
2,note_on,70,49,0
2,note_on,75,59,0
2,note_on,70,0,160
2,note_on,69,58,0
2,note_on,69,0,160
2,note_on,75,0,0
2,note_on,65,56,800
2,note_on,65,0,480
2,note_on,65,55,0
2,note_on,65,0,480
2,note_on,65,49,0
2,note_on,65,0,960
2,note_on,53,40,0
2,note_on,53,0,480
2,note_on,53,34,0
2,note_on,53,0,420
2,note_on,34,39,0
2,note_on,34,0,60
2,note_on,46,31,0
2,note_on,53,37,0
2,note_on,53,0,960
2,note_on,58,37,0
2,note_on,46,0,480
2,note_on,51,39,0
2,note_on,41,29,420
2,note_on,51,0,60
2,note_on,58,0,0
2,note_on,53,39,0
2,note_on,53,0,1200
2,note_on,54,33,0
2,note_on,54,0,240
2,note_on,55,35,0
2,note_on,55,0,240
2,note_on,53,33,0
2,note_on,53,0,240
2,note_on,41,0,0
2,note_on,46,33,0
2,note_on,46,0,960
2,note_on,58,39,0
2,note_on,58,0,480
2,note_on,51,39,0
2,note_on,51,0,480
2,note_on,53,29,0
2,note_on,53,0,240
2,note_on,54,37,0
2,note_on,54,0,240
2,note_on,57,35,0
2,note_on,57,0,160
2,note_on,55,34,0
2,note_on,55,0,160
2,note_on,53,34,0
2,note_on,53,0,160
2,note_on,41,29,0
2,note_on,41,0,240
2,note_on,42,37,0
2,note_on,42,0,240
2,note_on,45,35,0
2,note_on,45,0,160
2,note_on,43,34,0
2,note_on,43,0,160
2,note_on,41,34,0
2,note_on,41,0,160
2,note_on,34,39,0
2,note_on,34,0,240
2,note_on,61,36,240
2,note_on,64,44,0
2,note_on,64,0,480
2,note_on,61,0,0
2,note_on,60,37,0
2,note_on,53,37,0
2,note_on,63,44,0
2,note_on,63,0,480
2,note_on,67,44,0
2,note_on,67,0,360
2,note_on,65,40,0
2,note_on,65,0,60
2,note_on,46,39,0
2,note_on,53,39,30
2,note_on,53,0,30
2,note_on,60,0,0
2,note_on,65,46,0
2,note_on,65,0,480
2,note_on,46,0,0
2,note_on,53,0,0
2,note_on,64,44,0
2,note_on,64,0,480
2,note_on,63,37,0
2,note_on,60,37,0
2,note_on,53,37,0
2,note_on,65,44,0
2,note_on,65,0,480
2,note_on,63,0,0
2,note_on,60,0,0
2,note_on,53,0,0
2,note_on,51,37,0
2,note_on,55,37,0
2,note_on,60,37,0
2,note_on,63,37,0
2,note_on,63,0,480
2,note_on,51,0,0
2,note_on,55,0,0
2,note_on,60,0,0
2,note_on,60,41,0
2,note_on,57,41,0
2,note_on,50,41,0
2,note_on,66,49,0
2,note_on,66,0,480
2,note_on,60,0,0
2,note_on,57,0,0
2,note_on,50,0,0
2,note_on,30,36,0
2,note_on,42,42,0
2,note_on,42,0,480
2,note_on,30,0,0
2,note_on,31,41,0
2,note_on,43,49,0
2,note_on,43,0,480
2,note_on,31,0,0
2,note_on,33,41,0
2,note_on,45,49,0
2,note_on,45,0,360
2,note_on,33,0,0
2,note_on,34,37,0
2,note_on,46,45,0
2,note_on,46,0,120
2,note_on,34,0,0
2,note_on,35,41,0
2,note_on,47,49,0
2,note_on,47,0,480
2,note_on,35,0,0
2,note_on,36,41,0
2,note_on,48,49,0
2,note_on,48,0,360
2,note_on,36,0,0
2,note_on,38,37,0
2,note_on,50,45,0
2,note_on,50,0,120
2,note_on,38,0,0
2,note_on,39,41,0
2,note_on,51,49,0
2,note_on,51,0,480
2,note_on,39,0,0
2,note_on,41,41,0
2,note_on,53,46,0
2,note_on,53,0,480
2,note_on,41,0,0
2,note_on,34,39,0
2,note_on,34,0,160
2,note_on,52,33,0
2,note_on,52,0,160
2,note_on,53,31,0
2,note_on,53,0,160
2,note_on,55,37,0
2,note_on,55,0,160
2,note_on,53,31,0
2,note_on,53,0,160
2,note_on,41,31,0
2,note_on,41,0,160
2,note_on,46,39,0
2,note_on,46,0,160
2,note_on,52,35,0
2,note_on,52,0,160
2,note_on,53,35,0
2,note_on,53,0,160
2,note_on,55,37,0
2,note_on,55,0,160
2,note_on,53,33,0
2,note_on,53,0,160
2,note_on,41,33,0
2,note_on,41,0,160
2,note_on,48,39,0
2,note_on,48,0,160
2,note_on,52,35,0
2,note_on,52,0,160
2,note_on,53,35,0
2,note_on,53,0,160
2,note_on,55,37,0
2,note_on,55,0,160
2,note_on,53,33,0
2,note_on,53,0,160
2,note_on,41,33,0
2,note_on,41,0,160
2,note_on,51,39,0
2,note_on,51,0,160
2,note_on,52,35,0
2,note_on,52,0,160
2,note_on,53,35,0
2,note_on,53,0,160
2,note_on,55,37,0
2,note_on,55,0,160
2,note_on,53,33,0
2,note_on,53,0,160
2,note_on,41,33,0
2,note_on,41,0,160
2,note_on,34,39,0
2,note_on,34,0,240
2,note_on,52,34,0
2,note_on,52,0,120
2,note_on,53,33,0
2,note_on,53,0,120
2,note_on,55,37,0
2,note_on,55,0,120
2,note_on,53,31,0
2,note_on,53,0,108
2,note_on,53,37,12
2,note_on,53,0,120
2,note_on,41,37,0
2,note_on,41,0,120
2,note_on,46,39,0
2,note_on,46,0,240
2,note_on,52,35,0
2,note_on,52,0,120
2,note_on,53,35,0
2,note_on,53,0,120
2,note_on,55,37,0
2,note_on,55,0,120
2,note_on,53,33,0
2,note_on,53,0,108
2,note_on,53,37,12
2,note_on,53,0,120
2,note_on,41,31,0
2,note_on,41,0,120
2,note_on,29,39,0
2,note_on,29,0,240
2,note_on,52,35,0
2,note_on,52,0,120
2,note_on,53,35,0
2,note_on,53,0,120
2,note_on,55,37,0
2,note_on,55,0,120
2,note_on,53,33,0
2,note_on,53,0,108
2,note_on,53,37,12
2,note_on,53,0,120
2,note_on,41,33,0
2,note_on,41,0,120
2,note_on,51,39,0
2,note_on,51,0,240
2,note_on,52,35,0
2,note_on,52,0,120
2,note_on,53,35,0
2,note_on,53,0,120
2,note_on,55,39,0
2,note_on,55,0,120
2,note_on,53,35,0
2,note_on,53,0,108
2,note_on,53,39,12
2,note_on,53,0,120
2,note_on,41,35,0
2,note_on,41,0,120
2,note_on,46,44,0
2,note_on,46,0,120
2,note_on,53,39,0
2,note_on,53,0,120
2,note_on,55,39,0
2,note_on,55,0,120
2,note_on,53,39,0
2,note_on,53,0,120
2,note_on,62,44,0
2,note_on,62,0,120
2,note_on,53,40,0
2,note_on,53,0,120
2,note_on,55,40,0
2,note_on,55,0,120
2,note_on,53,41,0
2,note_on,53,0,120
2,note_on,41,45,0
2,note_on,41,0,120
2,note_on,53,40,0
2,note_on,53,0,120
2,note_on,55,41,0
2,note_on,55,0,120
2,note_on,53,41,0
2,note_on,53,0,120
2,note_on,63,47,0
2,note_on,63,0,120
2,note_on,53,44,0
2,note_on,53,0,120
2,note_on,55,44,0
2,note_on,55,0,120
2,note_on,53,44,0
2,note_on,53,0,120
2,note_on,46,48,0
2,note_on,46,0,120
2,note_on,53,42,0
2,note_on,53,0,120
2,note_on,55,42,0
2,note_on,55,0,120
2,note_on,53,42,0
2,note_on,53,0,120
2,note_on,62,49,0
2,note_on,62,0,120
2,note_on,53,46,0
2,note_on,53,0,120
2,note_on,55,46,0
2,note_on,55,0,120
2,note_on,53,46,0
2,note_on,53,0,120
2,note_on,41,50,0
2,note_on,41,0,120
2,note_on,53,46,0
2,note_on,53,0,120
2,note_on,55,46,0
2,note_on,55,0,120
2,note_on,53,46,0
2,note_on,53,0,120
2,note_on,63,52,0
2,note_on,63,0,120
2,note_on,53,49,0
2,note_on,53,0,120
2,note_on,55,49,0
2,note_on,55,0,120
2,note_on,53,49,0
2,note_on,53,0,120
2,note_on,42,57,0
2,note_on,42,0,120
2,note_on,49,51,0
2,note_on,49,0,120
2,note_on,50,51,0
2,note_on,50,0,120
2,note_on,57,51,0
2,note_on,57,0,120
2,note_on,54,58,0
2,note_on,54,0,120
2,note_on,61,53,0
2,note_on,61,0,120
2,note_on,62,53,0
2,note_on,62,0,120
2,note_on,69,53,0
2,note_on,69,0,120
2,note_on,43,59,0
2,note_on,43,0,120
2,note_on,49,52,0
2,note_on,49,0,120
2,note_on,50,52,0
2,note_on,50,0,120
2,note_on,58,53,0
2,note_on,58,0,120
2,note_on,55,60,0
2,note_on,55,0,120
2,note_on,61,55,0
2,note_on,61,0,120
2,note_on,62,55,0
2,note_on,62,0,120
2,note_on,70,56,0
2,note_on,70,0,120
2,note_on,45,61,0
2,note_on,45,0,120
2,note_on,52,55,0
2,note_on,52,0,120
2,note_on,53,55,0
2,note_on,53,0,120
2,note_on,60,55,0
2,note_on,60,0,120
2,note_on,57,62,0
2,note_on,57,0,120
2,note_on,64,57,0
2,note_on,64,0,120
2,note_on,65,57,0
2,note_on,65,0,120
2,note_on,72,57,0
2,note_on,72,0,120
2,note_on,47,62,0
2,note_on,47,0,120
2,note_on,54,56,0
2,note_on,54,0,120
2,note_on,55,57,0
2,note_on,55,0,120
2,note_on,62,57,0
2,note_on,62,0,120
2,note_on,59,63,0
2,note_on,59,0,120
2,note_on,66,58,0
2,note_on,66,0,120
2,note_on,67,59,0
2,note_on,67,0,120
2,note_on,36,59,120
2,note_on,36,0,120
2,note_on,43,52,0
2,note_on,43,0,120
2,note_on,48,52,0
2,note_on,48,0,120
2,note_on,55,52,0
2,note_on,55,0,120
2,note_on,38,59,0
2,note_on,38,0,120
2,note_on,43,52,0
2,note_on,43,0,120
2,note_on,50,52,0
2,note_on,50,0,120
2,note_on,55,52,0
2,note_on,55,0,120
2,note_on,39,62,0
2,note_on,39,0,120
2,note_on,43,52,0
2,note_on,43,0,120
2,note_on,48,52,0
2,note_on,48,0,120
2,note_on,55,52,0
2,note_on,55,0,120
2,note_on,40,61,0
2,note_on,40,0,120
2,note_on,46,52,0
2,note_on,46,0,120
2,note_on,49,52,0
2,note_on,49,0,120
2,note_on,55,52,0
2,note_on,55,0,120
2,note_on,41,59,0
2,note_on,41,0,120
2,note_on,48,52,0
2,note_on,48,0,120
2,note_on,51,52,0
2,note_on,51,0,120
2,note_on,57,52,0
2,note_on,57,0,120
2,note_on,43,58,0
2,note_on,43,0,120
2,note_on,46,52,0
2,note_on,46,0,120
2,note_on,51,52,0
2,note_on,51,0,120
2,note_on,58,52,0
2,note_on,58,0,120
2,note_on,45,52,0
2,note_on,45,0,120
2,note_on,48,47,0
2,note_on,48,0,120
2,note_on,51,47,0
2,note_on,51,0,120
2,note_on,60,47,0
2,note_on,60,0,120
2,note_on,48,55,0
2,note_on,48,0,120
2,note_on,51,47,0
2,note_on,51,0,120
2,note_on,57,47,0
2,note_on,57,0,120
2,note_on,63,47,0
2,note_on,63,0,120
2,note_on,50,46,0
2,note_on,62,55,0
2,note_on,58,46,0
2,note_on,58,0,240
2,note_on,62,0,0
2,note_on,50,0,0
2,note_on,62,46,0
2,note_on,58,38,0
2,note_on,50,38,0
2,note_on,50,0,240
2,note_on,58,0,0
2,note_on,62,0,0
2,note_on,51,42,0
2,note_on,58,42,0
2,note_on,63,51,0
2,note_on,63,0,240
2,note_on,58,0,0
2,note_on,51,0,0
2,note_on,53,38,0
2,note_on,58,38,0
2,note_on,62,46,0
2,note_on,62,0,240
2,note_on,58,0,0
2,note_on,53,0,0
2,note_on,63,50,0
2,note_on,54,42,0
2,note_on,54,0,240
2,note_on,63,0,0
2,note_on,47,39,0
2,note_on,59,47,0
2,note_on,59,0,240
2,note_on,47,0,0
2,note_on,48,44,0
2,note_on,60,52,0
2,note_on,60,0,240
2,note_on,48,0,0
2,note_on,51,40,0
2,note_on,63,47,0
2,note_on,63,0,240
2,note_on,51,0,0
2,note_on,50,36,0
2,note_on,53,39,0
2,note_on,62,50,0
2,note_on,58,38,0
2,note_on,58,0,240
2,note_on,50,0,0
2,note_on,53,0,0
2,note_on,62,0,0
2,note_on,45,36,0
2,note_on,57,42,0
2,note_on,57,0,240
2,note_on,45,0,0
2,note_on,46,49,0
2,note_on,58,49,0
2,note_on,58,0,240
2,note_on,46,0,0
2,note_on,40,37,0
2,note_on,52,45,0
2,note_on,52,0,180
2,note_on,40,0,0
2,note_on,28,44,60
2,note_on,40,52,0
2,note_on,40,0,240
2,note_on,28,0,0
2,note_on,41,48,0
2,note_on,29,40,0
2,note_on,55,55,240
2,note_on,55,0,240
2,note_on,29,0,0
2,note_on,53,51,0
2,note_on,41,0,240
2,note_on,46,53,0
2,note_on,46,0,160
2,note_on,53,0,0
2,note_on,52,42,0
2,note_on,58,51,0
2,note_on,58,0,80
2,note_on,52,0,0
2,note_on,52,42,80
2,note_on,58,51,0
2,note_on,58,0,80
2,note_on,52,0,0
2,note_on,52,46,80
2,note_on,58,56,0
2,note_on,58,0,160
2,note_on,52,0,0
2,note_on,53,38,0
2,note_on,57,45,0
2,note_on,57,0,80
2,note_on,53,0,0
2,note_on,53,42,80
2,note_on,65,51,0
2,note_on,60,42,0
2,note_on,60,0,80
2,note_on,65,0,0
2,note_on,53,0,0
2,note_on,53,46,80
2,note_on,60,46,0
2,note_on,65,56,0
2,note_on,65,0,160
2,note_on,60,0,0
2,note_on,53,0,0
2,note_on,58,42,0
2,note_on,65,51,0
2,note_on,65,0,80
2,note_on,58,0,0
2,note_on,64,51,80
2,note_on,70,51,0
2,note_on,70,0,80
2,note_on,64,0,0
2,note_on,64,56,80
2,note_on,70,56,0
2,note_on,70,0,160
2,note_on,64,0,0
2,note_on,65,40,0
2,note_on,69,48,0
2,note_on,69,0,80
2,note_on,65,0,0
2,note_on,65,42,80
2,note_on,72,42,0
2,note_on,77,51,0
2,note_on,77,0,80
2,note_on,72,0,0
2,note_on,65,0,0
2,note_on,65,46,80
2,note_on,72,46,0
2,note_on,77,56,0
2,note_on,77,0,160
2,note_on,72,0,0
2,note_on,65,0,0
2,note_on,70,42,0
2,note_on,77,51,0
2,note_on,77,0,80
2,note_on,70,0,0
2,note_on,70,52,80
2,note_on,64,44,0
2,note_on,64,0,80
2,note_on,70,0,0
2,note_on,64,46,80
2,note_on,70,56,0
2,note_on,70,0,160
2,note_on,64,0,0
2,note_on,65,41,0
2,note_on,69,49,0
2,note_on,69,0,80
2,note_on,65,0,0
2,note_on,53,44,80
2,note_on,60,44,0
2,note_on,65,52,0
2,note_on,65,0,80
2,note_on,60,0,0
2,note_on,53,0,0
2,note_on,53,46,80
2,note_on,60,46,0
2,note_on,65,56,0
2,note_on,65,0,160
2,note_on,60,0,0
2,note_on,53,0,0
2,note_on,58,41,0
2,note_on,65,49,0
2,note_on,65,0,80
2,note_on,58,0,0
2,note_on,52,44,80
2,note_on,58,52,0
2,note_on,58,0,80
2,note_on,52,0,0
2,note_on,52,46,80
2,note_on,58,56,0
2,note_on,58,0,160
2,note_on,52,0,0
2,note_on,53,39,0
2,note_on,57,46,0
2,note_on,57,0,80
2,note_on,53,0,0
2,note_on,48,44,80
2,note_on,41,44,0
2,note_on,53,52,0
2,note_on,53,0,80
2,note_on,41,0,0
2,note_on,48,0,0
2,note_on,41,46,80
2,note_on,53,56,0
2,note_on,48,46,0
2,note_on,48,0,160
2,note_on,53,0,0
2,note_on,41,0,0
2,note_on,53,46,0
2,note_on,46,39,0
2,note_on,46,0,80
2,note_on,53,0,0
2,note_on,48,36,80
2,note_on,52,36,0
2,note_on,58,41,0
2,note_on,58,0,80
2,note_on,52,0,0
2,note_on,48,0,0
2,note_on,48,37,80
2,note_on,52,37,0
2,note_on,58,44,0
2,note_on,58,0,160
2,note_on,52,0,0
2,note_on,48,0,0
2,note_on,53,34,0
2,note_on,57,41,0
2,note_on,57,0,80
2,note_on,53,0,0
2,note_on,53,29,80
2,note_on,65,36,0
2,note_on,60,29,0
2,note_on,60,0,80
2,note_on,65,0,0
2,note_on,53,0,0
2,note_on,53,33,80
2,note_on,60,33,0
2,note_on,65,39,0
2,note_on,65,0,160
2,note_on,60,0,0
2,note_on,53,0,0
2,note_on,58,29,0
2,note_on,65,36,0
2,note_on,65,0,80
2,note_on,58,0,0
2,note_on,60,36,80
2,note_on,64,36,0
2,note_on,70,36,0
2,note_on,70,0,80
2,note_on,64,0,0
2,note_on,60,0,0
2,note_on,60,39,80
2,note_on,64,39,0
2,note_on,70,39,0
2,note_on,70,0,160
2,note_on,64,0,0
2,note_on,60,0,0
2,note_on,65,29,0
2,note_on,69,36,0
2,note_on,69,0,80
2,note_on,65,0,0
2,note_on,65,26,80
2,note_on,72,26,0
2,note_on,77,31,0
2,note_on,77,0,80
2,note_on,72,0,0
2,note_on,65,0,0
2,note_on,65,29,80
2,note_on,72,29,0
2,note_on,77,35,0
2,note_on,77,0,160
2,note_on,72,0,0
2,note_on,65,0,0
2,note_on,70,26,0
2,note_on,77,31,0
2,note_on,77,0,80
2,note_on,70,0,0
2,note_on,60,33,80
2,note_on,70,39,0
2,note_on,64,33,0
2,note_on,64,0,80
2,note_on,70,0,0
2,note_on,60,0,0
2,note_on,60,35,80
2,note_on,64,35,0
2,note_on,70,41,0
2,note_on,70,0,160
2,note_on,64,0,0
2,note_on,60,0,0
2,note_on,65,33,0
2,note_on,69,39,0
2,note_on,69,0,80
2,note_on,65,0,0
2,note_on,53,33,80
2,note_on,60,33,0
2,note_on,65,39,0
2,note_on,65,0,80
2,note_on,60,0,0
2,note_on,53,0,0
2,note_on,53,35,80
2,note_on,60,35,0
2,note_on,65,41,0
2,note_on,65,0,160
2,note_on,60,0,0
2,note_on,53,0,0
2,note_on,58,33,0
2,note_on,65,39,0
2,note_on,65,0,80
2,note_on,58,0,0
2,note_on,48,33,80
2,note_on,52,33,0
2,note_on,58,39,0
2,note_on,58,0,80
2,note_on,52,0,0
2,note_on,48,0,0
2,note_on,48,35,80
2,note_on,52,35,0
2,note_on,58,41,0
2,note_on,58,0,160
2,note_on,52,0,0
2,note_on,48,0,0
2,note_on,53,33,0
2,note_on,57,39,0
2,note_on,57,0,80
2,note_on,53,0,0
2,note_on,41,41,80
2,note_on,53,49,0
2,note_on,53,0,80
2,note_on,41,0,0
2,note_on,41,39,80
2,note_on,53,47,0
2,note_on,53,0,160
2,note_on,41,0,0
2,note_on,40,35,0
2,note_on,52,41,0
2,note_on,52,0,80
2,note_on,40,0,0
2,note_on,52,38,80
2,note_on,54,45,0
2,note_on,54,0,80
2,note_on,52,0,0
2,note_on,52,39,80
2,note_on,54,47,0
2,note_on,54,0,160
2,note_on,52,0,0
2,note_on,52,34,0
2,note_on,59,41,0
2,note_on,59,0,80
2,note_on,52,0,0
2,note_on,52,36,80
2,note_on,59,44,0
2,note_on,59,0,80
2,note_on,52,0,0
2,note_on,52,39,80
2,note_on,59,47,0
2,note_on,59,0,160
2,note_on,52,0,0
2,note_on,57,34,0
2,note_on,52,34,0
2,note_on,64,41,0
2,note_on,64,0,80
2,note_on,52,0,0
2,note_on,57,0,0
2,note_on,52,44,80
2,note_on,59,44,0
2,note_on,66,44,0
2,note_on,66,0,80
2,note_on,59,0,0
2,note_on,52,0,0
2,note_on,52,47,80
2,note_on,59,47,0
2,note_on,66,47,0
2,note_on,66,0,160
2,note_on,59,0,0
2,note_on,52,0,0
2,note_on,52,44,0
2,note_on,59,34,0
2,note_on,64,41,0
2,note_on,64,0,80
2,note_on,59,0,0
2,note_on,52,0,0
2,note_on,62,36,80
2,note_on,52,47,0
2,note_on,64,44,0
2,note_on,59,36,0
2,note_on,59,0,80
2,note_on,62,0,0
2,note_on,52,0,0
2,note_on,64,0,0
2,note_on,62,39,80
2,note_on,59,39,0
2,note_on,52,39,0
2,note_on,64,47,0
2,note_on,64,0,160
2,note_on,62,0,0
2,note_on,59,0,0
2,note_on,52,0,0
2,note_on,59,34,0
2,note_on,65,49,0
2,note_on,65,0,160
2,note_on,59,0,0
2,note_on,50,61,0
2,note_on,50,0,160
2,note_on,53,47,0
2,note_on,62,56,0
2,note_on,62,0,160
2,note_on,53,0,0
2,note_on,47,62,0
2,note_on,47,0,160
2,note_on,53,49,0
2,note_on,59,59,0
2,note_on,59,0,160
2,note_on,53,0,0
2,note_on,44,64,0
2,note_on,44,0,160
2,note_on,47,50,0
2,note_on,56,60,0
2,note_on,56,0,160
2,note_on,47,0,0
2,note_on,41,69,0
2,note_on,41,0,160
2,note_on,47,53,0
2,note_on,53,64,0
2,note_on,53,0,160
2,note_on,47,0,0
2,note_on,38,77,0
2,note_on,38,0,160
2,note_on,26,69,0
2,note_on,38,69,0
2,note_on,38,0,160
2,note_on,26,0,0
2,note_on,37,42,0
2,note_on,25,42,0
2,note_on,25,0,160
2,note_on,37,0,0
2,note_on,37,36,0
2,note_on,49,50,0
2,note_on,49,0,160
2,note_on,37,0,0
2,note_on,37,40,0
2,note_on,49,48,0
2,note_on,49,0,160
2,note_on,37,0,0
2,note_on,37,40,0
2,note_on,49,48,0
2,note_on,49,0,160
2,note_on,37,0,0
2,note_on,37,40,0
2,note_on,49,48,0
2,note_on,49,0,160
2,note_on,37,0,0
2,note_on,37,41,0
2,note_on,49,49,0
2,note_on,49,0,160
2,note_on,37,0,0
2,note_on,37,38,0
2,note_on,49,55,0
2,note_on,49,0,160
2,note_on,37,0,0
2,note_on,36,44,0
2,note_on,48,52,0
2,note_on,48,0,160
2,note_on,36,0,0
2,note_on,36,44,0
2,note_on,48,52,0
2,note_on,48,0,160
2,note_on,36,0,0
2,note_on,36,47,0
2,note_on,48,56,0
2,note_on,48,0,160
2,note_on,36,0,0
2,note_on,37,44,0
2,note_on,49,52,0
2,note_on,49,0,160
2,note_on,37,0,0
2,note_on,37,44,0
2,note_on,49,52,0
2,note_on,49,0,160
2,note_on,37,0,0
2,note_on,37,46,0
2,note_on,49,56,0
2,note_on,49,0,80
2,note_on,37,0,0
2,note_on,37,47,80
2,note_on,49,57,0
2,note_on,49,0,80
2,note_on,37,0,0
2,note_on,37,48,80
2,note_on,49,58,0
2,note_on,49,0,80
2,note_on,37,0,0
2,note_on,37,49,80
2,note_on,49,58,0
2,note_on,49,0,80
2,note_on,37,0,0
2,note_on,37,50,80
2,note_on,49,59,0
2,note_on,49,0,80
2,note_on,37,0,0
2,note_on,37,51,80
2,note_on,49,61,0
2,note_on,49,0,80
2,note_on,37,0,0
2,note_on,49,62,80
2,note_on,37,52,0
2,note_on,37,0,80
2,note_on,49,0,0
2,note_on,36,52,80
2,note_on,48,62,0
2,note_on,48,0,80
2,note_on,36,0,0
2,note_on,36,53,80
2,note_on,48,63,0
2,note_on,48,0,80
2,note_on,36,0,0
2,note_on,36,53,80
2,note_on,48,64,0
2,note_on,48,0,80
2,note_on,36,0,0
2,note_on,37,55,80
2,note_on,49,66,0
2,note_on,49,0,80
2,note_on,37,0,0
2,note_on,37,56,80
2,note_on,49,67,0
2,note_on,49,0,80
2,note_on,37,0,0
2,note_on,38,52,80
2,note_on,50,74,0
2,note_on,50,0,80
2,note_on,38,0,0
2,note_on,53,50,80
2,note_on,46,50,0
2,note_on,58,71,0
2,note_on,58,0,160
2,note_on,46,0,0
2,note_on,53,0,0
2,note_on,53,51,0
2,note_on,46,51,0
2,note_on,58,72,0
2,note_on,58,0,160
2,note_on,46,0,0
2,note_on,53,0,0
2,note_on,46,53,0
2,note_on,53,53,0
2,note_on,58,75,0
2,note_on,58,0,160
2,note_on,53,0,0
2,note_on,46,0,0
2,note_on,27,68,320
2,note_on,39,96,0
2,note_on,39,0,160
2,note_on,27,0,0
2,note_on,51,50,0
2,note_on,46,50,0
2,note_on,58,71,0
2,note_on,58,0,160
2,note_on,46,0,0
2,note_on,51,0,0
2,note_on,51,51,0
2,note_on,46,51,0
2,note_on,58,72,0
2,note_on,58,0,160
2,note_on,46,0,0
2,note_on,51,0,0
2,note_on,46,53,0
2,note_on,51,53,0
2,note_on,58,75,0
2,note_on,58,0,160
2,note_on,51,0,0
2,note_on,46,0,0
2,note_on,29,68,320
2,note_on,41,96,0
2,note_on,41,0,160
2,note_on,29,0,0
2,note_on,53,50,0
2,note_on,46,50,0
2,note_on,58,71,0
2,note_on,58,0,160
2,note_on,46,0,0
2,note_on,53,0,0
2,note_on,53,51,0
2,note_on,46,51,0
2,note_on,58,72,0
2,note_on,58,0,160
2,note_on,46,0,0
2,note_on,53,0,0
2,note_on,46,53,0
2,note_on,53,53,0
2,note_on,58,75,0
2,note_on,58,0,160
2,note_on,53,0,0
2,note_on,46,0,0
2,note_on,30,68,320
2,note_on,42,96,0
2,note_on,42,0,160
2,note_on,30,0,0
2,note_on,51,50,0
2,note_on,46,50,0
2,note_on,58,71,0
2,note_on,58,0,160
2,note_on,46,0,0
2,note_on,51,0,0
2,note_on,51,51,0
2,note_on,46,51,0
2,note_on,58,72,0
2,note_on,58,0,160
2,note_on,46,0,0
2,note_on,51,0,0
2,note_on,46,53,0
2,note_on,51,53,0
2,note_on,58,75,0
2,note_on,58,0,160
2,note_on,51,0,0
2,note_on,46,0,0
2,note_on,31,60,200
2,note_on,43,72,0
2,note_on,43,0,120
2,note_on,31,0,0
2,note_on,32,73,0
2,note_on,44,86,0
2,note_on,44,0,60
2,note_on,32,0,0
2,note_on,29,66,60
2,note_on,41,79,0
2,note_on,41,0,60
2,note_on,29,0,0
2,note_on,31,73,180
2,note_on,43,86,0
2,note_on,43,0,60
2,note_on,31,0,0
2,note_on,32,68,60
2,note_on,44,81,0
2,note_on,44,0,60
2,note_on,32,0,0
2,note_on,29,68,60
2,note_on,41,81,0
2,note_on,41,0,60
2,note_on,29,0,0
2,note_on,32,56,300
2,note_on,44,67,0
2,note_on,44,0,120
2,note_on,32,0,0
2,note_on,29,49,0
2,note_on,41,60,0
2,note_on,41,0,60
2,note_on,29,0,0
2,note_on,31,52,180
2,note_on,43,62,0
2,note_on,43,0,120
2,note_on,31,0,0
2,note_on,32,51,0
2,note_on,44,61,0
2,note_on,44,0,120
2,note_on,32,0,0
2,note_on,29,51,0
2,note_on,41,61,0
2,note_on,41,0,60
2,note_on,29,0,0
2,note_on,32,56,300
2,note_on,44,67,0
2,note_on,44,0,120
2,note_on,32,0,0
2,note_on,29,50,0
2,note_on,41,60,0
2,note_on,41,0,60
2,note_on,29,0,0
2,note_on,31,52,180
2,note_on,43,66,0
2,note_on,43,0,120
2,note_on,31,0,0
2,note_on,32,51,0
2,note_on,44,62,0
2,note_on,44,0,120
2,note_on,32,0,0
2,note_on,29,52,0
2,note_on,41,63,0
2,note_on,41,0,60
2,note_on,29,0,0
2,note_on,33,60,300
2,note_on,45,74,0
2,note_on,45,0,120
2,note_on,33,0,0
2,note_on,30,56,0
2,note_on,42,63,0
2,note_on,42,0,60
2,note_on,30,0,0
2,note_on,31,59,180
2,note_on,43,71,0
2,note_on,43,0,120
2,note_on,31,0,0
2,note_on,33,57,0
2,note_on,45,69,0
2,note_on,45,0,120
2,note_on,33,0,0
2,note_on,42,57,0
2,note_on,54,69,0
2,note_on,54,0,60
2,note_on,42,0,0
2,note_on,34,63,300
2,note_on,46,75,0
2,note_on,46,0,120
2,note_on,34,0,0
2,note_on,31,56,0
2,note_on,43,67,0
2,note_on,43,0,60
2,note_on,31,0,0
2,note_on,33,61,180
2,note_on,45,71,0
2,note_on,45,0,120
2,note_on,33,0,0
2,note_on,34,59,0
2,note_on,46,71,0
2,note_on,46,0,120
2,note_on,34,0,0
2,note_on,43,60,0
2,note_on,55,71,0
2,note_on,55,0,60
2,note_on,43,0,0
2,note_on,35,68,300
2,note_on,47,79,0
2,note_on,47,0,120
2,note_on,35,0,0
2,note_on,47,60,0
2,note_on,59,73,0
2,note_on,59,0,60
2,note_on,47,0,0
2,note_on,36,68,300
2,note_on,48,68,0
2,note_on,48,0,160
2,note_on,36,0,0
2,note_on,48,74,0
2,note_on,60,74,0
2,note_on,60,0,160
2,note_on,48,0,0
2,note_on,49,78,0
2,note_on,61,78,0
2,note_on,61,0,160
2,note_on,49,0,0
2,note_on,50,66,0
2,note_on,58,66,0
2,note_on,62,79,0
2,note_on,62,0,480
2,note_on,58,0,0
2,note_on,50,0,0
2,note_on,51,67,0
2,note_on,58,67,0
2,note_on,63,80,0
2,note_on,63,0,480
2,note_on,58,0,0
2,note_on,51,0,0
2,note_on,54,67,0
2,note_on,58,67,0
2,note_on,60,67,0
2,note_on,63,67,0
2,note_on,66,80,0
2,note_on,66,0,480
2,note_on,60,0,0
2,note_on,54,0,0
2,note_on,58,0,0
2,note_on,63,0,0
2,note_on,53,65,0
2,note_on,60,65,0
2,note_on,63,65,0
2,note_on,65,78,0
2,note_on,65,0,480
2,note_on,53,0,0
2,note_on,60,0,0
2,note_on,63,0,0
2,note_on,46,72,0
2,note_on,58,86,0
2,note_on,58,0,480
2,note_on,46,0,0
2,note_on,39,70,0
2,note_on,51,86,0
2,note_on,51,0,480
2,note_on,39,0,0
2,note_on,34,72,0
2,note_on,46,87,0
2,note_on,46,0,480
2,note_on,34,0,0
2,note_on,27,70,0
2,note_on,39,86,0
2,note_on,39,0,480
2,note_on,27,0,0
2,note_on,34,74,0
2,note_on,46,92,0
2,note_on,46,0,960
2,note_on,34,0,0
2,note_on,62,74,0
2,note_on,65,74,0
2,note_on,70,77,0
2,note_on,74,95,0
2,note_on,74,0,960
2,note_on,62,0,0
2,note_on,65,0,0
2,note_on,70,0,0
2,note_on,46,65,0
2,note_on,34,59,0
2,note_on,41,60,0
2,note_on,50,67,0
2,note_on,53,71,0
2,note_on,58,91,0
2,note_on,58,0,960
2,note_on,34,0,0
2,note_on,41,0,0
2,note_on,46,0,0
2,note_on,53,0,0
2,note_on,50,0,0
