Track,Message Type,Note,Velocity,Time
1,note_on,68,37,7800
1,note_on,68,0,120
1,note_on,69,41,0
1,note_on,69,0,120
1,note_on,68,38,0
1,note_on,68,0,120
1,note_on,67,39,0
1,note_on,67,0,120
1,note_on,68,40,0
1,note_on,68,0,120
1,note_on,73,42,0
1,note_on,73,0,120
1,note_on,76,43,0
1,note_on,76,0,120
1,note_on,75,45,0
1,note_on,75,0,120
1,note_on,73,43,0
1,note_on,73,0,120
1,note_on,75,45,0
1,note_on,75,0,120
1,note_on,73,43,0
1,note_on,73,0,120
1,note_on,72,44,0
1,note_on,72,0,120
1,note_on,73,46,0
1,note_on,73,0,120
1,note_on,76,49,0
1,note_on,76,0,120
1,note_on,80,47,0
1,note_on,80,0,120
1,note_on,68,45,120
1,note_on,68,0,120
1,note_on,69,49,0
1,note_on,69,0,120
1,note_on,68,45,0
1,note_on,68,0,120
1,note_on,67,46,0
1,note_on,67,0,120
1,note_on,68,48,0
1,note_on,68,0,120
1,note_on,73,50,0
1,note_on,73,0,120
1,note_on,76,51,0
1,note_on,76,0,120
1,note_on,75,54,0
1,note_on,75,0,120
1,note_on,73,51,0
1,note_on,73,0,120
1,note_on,75,53,0
1,note_on,75,0,120
1,note_on,73,51,0
1,note_on,73,0,120
1,note_on,72,52,0
1,note_on,72,0,120
1,note_on,73,54,0
1,note_on,73,0,120
1,note_on,76,57,0
1,note_on,76,0,120
1,note_on,80,55,0
1,note_on,80,0,120
1,note_on,69,55,120
1,note_on,69,0,120
1,note_on,73,55,0
1,note_on,73,0,120
1,note_on,75,58,0
1,note_on,75,0,120
1,note_on,78,61,0
1,note_on,78,0,120
1,note_on,81,64,0
1,note_on,81,0,120
1,note_on,85,67,0
1,note_on,85,0,120
1,note_on,87,70,0
1,note_on,87,0,120
1,note_on,95,74,0
1,note_on,95,0,120
1,note_on,93,72,0
1,note_on,93,0,120
1,note_on,92,71,0
1,note_on,92,0,120
1,note_on,90,70,0
1,note_on,90,0,120
1,note_on,88,69,0
1,note_on,88,0,120
1,note_on,87,68,0
1,note_on,87,0,120
1,note_on,90,67,0
1,note_on,90,0,120
1,note_on,85,66,0
1,note_on,85,0,120
1,note_on,84,68,0
1,note_on,84,0,120
1,note_on,87,63,0
1,note_on,87,0,120
1,note_on,81,63,0
1,note_on,81,0,120
1,note_on,80,63,0
1,note_on,80,0,120
1,note_on,78,60,0
1,note_on,78,0,120
1,note_on,81,58,0
1,note_on,81,0,120
1,note_on,76,54,0
1,note_on,76,0,120
1,note_on,75,54,0
1,note_on,75,0,120
1,note_on,78,53,0
1,note_on,78,0,120
1,note_on,73,48,0
1,note_on,73,0,120
1,note_on,72,48,0
1,note_on,72,0,120
1,note_on,75,47,0
1,note_on,75,0,120
1,note_on,69,45,0
1,note_on,69,0,120
1,note_on,68,42,0
1,note_on,68,0,120
1,note_on,71,42,0
1,note_on,71,0,120
1,note_on,69,41,0
1,note_on,69,0,240
1,note_on,68,37,0
1,note_on,68,0,120
1,note_on,69,41,0
1,note_on,69,0,120
1,note_on,68,38,0
1,note_on,68,0,120
1,note_on,67,39,0
1,note_on,67,0,120
1,note_on,68,40,0
1,note_on,68,0,120
1,note_on,73,42,0
1,note_on,73,0,120
1,note_on,76,43,0
1,note_on,76,0,120
1,note_on,75,45,0
1,note_on,75,0,120
1,note_on,73,43,0
1,note_on,73,0,120
1,note_on,75,45,0
1,note_on,75,0,120
1,note_on,73,43,0
1,note_on,73,0,120
1,note_on,72,44,0
1,note_on,72,0,120
1,note_on,73,46,0
1,note_on,73,0,120
1,note_on,76,49,0
1,note_on,76,0,120
1,note_on,80,47,0
1,note_on,80,0,120
1,note_on,68,45,120
1,note_on,68,0,120
1,note_on,70,49,0
1,note_on,70,0,120
1,note_on,68,45,0
1,note_on,68,0,120
1,note_on,67,46,0
1,note_on,67,0,120
1,note_on,68,48,0
1,note_on,68,0,120
1,note_on,73,50,0
1,note_on,73,0,120
1,note_on,76,51,0
1,note_on,76,0,120
1,note_on,75,54,0
1,note_on,75,0,120
1,note_on,73,51,0
1,note_on,73,0,120
1,note_on,75,53,0
1,note_on,75,0,120
1,note_on,73,51,0
1,note_on,73,0,120
1,note_on,72,52,0
1,note_on,72,0,120
1,note_on,73,54,0
1,note_on,73,0,120
1,note_on,76,57,0
1,note_on,76,0,120
1,note_on,80,55,0
1,note_on,80,0,120
1,note_on,75,64,0
1,note_on,75,0,120
1,note_on,76,58,0
1,note_on,76,0,120
1,note_on,75,61,0
1,note_on,75,0,120
1,note_on,74,50,0
1,note_on,74,0,120
1,note_on,75,56,0
1,note_on,75,0,120
1,note_on,83,68,0
1,note_on,83,0,120
1,note_on,82,62,0
1,note_on,82,0,120
1,note_on,80,65,0
1,note_on,80,0,120
1,note_on,79,69,0
1,note_on,79,0,120
1,note_on,88,73,0
1,note_on,88,0,120
1,note_on,87,72,0
1,note_on,87,0,120
1,note_on,85,72,0
1,note_on,85,0,120
1,note_on,83,75,0
1,note_on,83,0,120
1,note_on,82,69,0
1,note_on,82,0,120
1,note_on,80,68,0
1,note_on,80,0,120
1,note_on,79,68,0
1,note_on,79,0,120
1,note_on,82,72,0
1,note_on,82,0,120
1,note_on,80,70,0
1,note_on,80,0,120
1,note_on,83,64,0
1,note_on,83,0,120
1,note_on,74,57,0
1,note_on,74,0,120
1,note_on,76,65,0
1,note_on,76,0,120
1,note_on,75,57,0
1,note_on,75,0,120
1,note_on,80,63,0
1,note_on,80,0,120
1,note_on,70,57,0
1,note_on,70,0,120
1,note_on,73,61,0
1,note_on,73,0,120
1,note_on,71,59,0
1,note_on,71,0,120
1,note_on,75,58,0
1,note_on,75,0,120
1,note_on,67,56,0
1,note_on,67,0,120
1,note_on,70,60,0
1,note_on,70,0,120
1,note_on,68,51,0
1,note_on,68,0,120
1,note_on,67,55,0
1,note_on,67,0,120
1,note_on,68,50,0
1,note_on,68,0,120
1,note_on,68,72,0
1,note_on,68,0,120
1,note_on,80,58,0
1,note_on,80,0,120
1,note_on,72,59,0
1,note_on,72,0,120
1,note_on,73,59,0
1,note_on,73,0,120
1,note_on,66,71,0
1,note_on,66,0,120
1,note_on,78,60,0
1,note_on,78,0,120
1,note_on,72,60,0
1,note_on,72,0,120
1,note_on,73,61,0
1,note_on,73,0,120
1,note_on,65,75,0
1,note_on,65,0,120
1,note_on,77,62,0
1,note_on,77,0,120
1,note_on,72,63,0
1,note_on,72,0,120
1,note_on,73,63,0
1,note_on,73,0,120
1,note_on,66,74,0
1,note_on,66,0,120
1,note_on,78,65,0
1,note_on,78,0,120
1,note_on,72,64,0
1,note_on,72,0,120
1,note_on,73,64,0
1,note_on,73,0,120
1,note_on,61,77,0
1,note_on,61,0,120
1,note_on,73,65,0
1,note_on,73,0,120
1,note_on,66,65,0
1,note_on,66,0,120
1,note_on,69,65,0
1,note_on,69,0,120
1,note_on,63,75,0
1,note_on,63,0,120
1,note_on,75,65,0
1,note_on,75,0,120
1,note_on,66,65,0
1,note_on,66,0,120
1,note_on,69,65,0
1,note_on,69,0,120
1,note_on,64,79,0
1,note_on,64,0,120
1,note_on,76,66,0
1,note_on,76,0,120
1,note_on,68,66,0
1,note_on,68,0,120
1,note_on,71,66,0
1,note_on,71,0,120
1,note_on,68,77,0
1,note_on,68,0,120
1,note_on,80,67,0
1,note_on,80,0,120
1,note_on,71,66,0
1,note_on,71,0,120
1,note_on,76,65,0
1,note_on,76,0,120
1,note_on,68,81,0
1,note_on,68,0,120
1,note_on,80,65,0
1,note_on,80,0,120
1,note_on,72,65,0
1,note_on,72,0,120
1,note_on,73,65,0
1,note_on,73,0,120
1,note_on,66,78,0
1,note_on,66,0,120
1,note_on,78,65,0
1,note_on,78,0,120
1,note_on,72,65,0
1,note_on,72,0,120
1,note_on,73,65,0
1,note_on,73,0,120
1,note_on,65,79,0
1,note_on,65,0,120
1,note_on,77,66,0
1,note_on,77,0,120
1,note_on,72,66,0
1,note_on,72,0,120
1,note_on,73,66,0
1,note_on,73,0,120
1,note_on,66,77,0
1,note_on,66,0,120
1,note_on,78,67,0
1,note_on,78,0,120
1,note_on,72,66,0
1,note_on,72,0,120
1,note_on,73,65,0
1,note_on,73,0,120
1,note_on,65,81,0
1,note_on,65,0,120
1,note_on,77,65,0
1,note_on,77,0,120
1,note_on,71,65,0
1,note_on,71,0,120
1,note_on,75,65,0
1,note_on,75,0,120
1,note_on,66,78,0
1,note_on,66,0,120
1,note_on,78,65,0
1,note_on,78,0,120
1,note_on,71,65,0
1,note_on,71,0,120
1,note_on,75,65,0
1,note_on,75,0,120
1,note_on,69,79,0
1,note_on,69,0,120
1,note_on,81,66,0
1,note_on,81,0,120
1,note_on,71,66,0
1,note_on,71,0,120
1,note_on,76,66,0
1,note_on,76,0,120
1,note_on,68,77,0
1,note_on,68,0,120
1,note_on,80,67,0
1,note_on,80,0,120
1,note_on,71,66,0
1,note_on,71,0,120
1,note_on,76,65,0
1,note_on,76,0,120
1,note_on,68,52,0
1,note_on,68,0,120
1,note_on,80,57,0
1,note_on,80,0,120
1,note_on,72,47,0
1,note_on,72,0,120
1,note_on,73,47,0
1,note_on,73,0,120
1,note_on,66,49,0
1,note_on,66,0,120
1,note_on,78,54,0
1,note_on,78,0,120
1,note_on,72,48,0
1,note_on,72,0,120
1,note_on,73,48,0
1,note_on,73,0,120
1,note_on,65,51,0
1,note_on,65,0,120
1,note_on,77,56,0
1,note_on,77,0,120
1,note_on,72,50,0
1,note_on,72,0,120
1,note_on,73,50,0
1,note_on,73,0,120
1,note_on,66,53,0
1,note_on,66,0,120
1,note_on,78,58,0
1,note_on,78,0,120
1,note_on,72,51,0
1,note_on,72,0,120
1,note_on,73,51,0
1,note_on,73,0,120
1,note_on,61,55,0
1,note_on,61,0,120
1,note_on,73,60,0
1,note_on,73,0,120
1,note_on,66,52,0
1,note_on,66,0,120
1,note_on,69,53,0
1,note_on,69,0,120
1,note_on,63,55,0
1,note_on,63,0,120
1,note_on,75,62,0
1,note_on,75,0,120
1,note_on,66,54,0
1,note_on,66,0,120
1,note_on,69,54,0
1,note_on,69,0,120
1,note_on,64,57,0
1,note_on,64,0,120
1,note_on,76,65,0
1,note_on,76,0,120
1,note_on,68,56,0
1,note_on,68,0,120
1,note_on,71,56,0
1,note_on,71,0,120
1,note_on,68,60,0
1,note_on,68,0,120
1,note_on,80,68,0
1,note_on,80,0,120
1,note_on,71,57,0
1,note_on,71,0,120
1,note_on,76,58,0
1,note_on,76,0,120
1,note_on,68,62,0
1,note_on,68,0,120
1,note_on,80,68,0
1,note_on,80,0,120
1,note_on,72,59,0
1,note_on,72,0,120
1,note_on,73,59,0
1,note_on,73,0,120
1,note_on,66,62,0
1,note_on,66,0,120
1,note_on,78,70,0
1,note_on,78,0,120
1,note_on,72,61,0
1,note_on,72,0,120
1,note_on,73,61,0
1,note_on,73,0,120
1,note_on,75,64,0
1,note_on,75,0,120
1,note_on,87,73,0
1,note_on,87,0,120
1,note_on,78,62,0
1,note_on,78,0,120
1,note_on,81,62,0
1,note_on,81,0,120
1,note_on,73,66,0
1,note_on,73,0,120
1,note_on,85,74,0
1,note_on,85,0,120
1,note_on,78,62,0
1,note_on,78,0,120
1,note_on,81,62,0
1,note_on,81,0,120
1,note_on,73,64,0
1,note_on,73,0,120
1,note_on,85,73,0
1,note_on,85,0,120
1,note_on,75,61,0
1,note_on,75,0,120
1,note_on,78,61,0
1,note_on,78,0,120
1,note_on,72,64,0
1,note_on,72,0,120
1,note_on,84,71,0
1,note_on,84,0,120
1,note_on,75,60,0
1,note_on,75,0,120
1,note_on,78,59,0
1,note_on,78,0,120
1,note_on,72,60,0
1,note_on,72,0,120
1,note_on,84,69,0
1,note_on,84,0,120
1,note_on,75,58,0
1,note_on,75,0,120
1,note_on,78,58,0
1,note_on,78,0,120
1,note_on,72,61,0
1,note_on,72,0,120
1,note_on,84,68,0
1,note_on,84,0,120
1,note_on,75,57,0
1,note_on,75,0,120
1,note_on,78,56,0
1,note_on,78,0,120
1,note_on,72,57,0
1,note_on,72,0,120
1,note_on,84,65,0
1,note_on,84,0,120
1,note_on,75,55,0
1,note_on,75,0,120
1,note_on,78,55,0
1,note_on,78,0,120
1,note_on,71,58,0
1,note_on,71,0,120
1,note_on,83,64,0
1,note_on,83,0,120
1,note_on,75,53,0
1,note_on,75,0,120
1,note_on,78,53,0
1,note_on,78,0,120
1,note_on,71,54,0
1,note_on,71,0,120
1,note_on,83,62,0
1,note_on,83,0,120
1,note_on,75,52,0
1,note_on,75,0,120
1,note_on,78,52,0
1,note_on,78,0,120
1,note_on,70,54,0
1,note_on,70,0,120
1,note_on,82,60,0
1,note_on,82,0,120
1,note_on,75,50,0
1,note_on,75,0,120
1,note_on,78,50,0
1,note_on,78,0,120
1,note_on,70,55,0
1,note_on,70,0,120
1,note_on,82,49,6
1,note_on,75,48,114
1,note_on,82,0,6
1,note_on,75,0,114
1,note_on,78,48,0
1,note_on,78,0,120
1,note_on,69,53,0
1,note_on,69,0,120
1,note_on,81,48,6
1,note_on,75,47,114
1,note_on,81,0,6
1,note_on,75,0,114
1,note_on,78,47,0
1,note_on,78,0,120
1,note_on,69,52,0
1,note_on,69,0,120
1,note_on,81,49,0
1,note_on,81,0,120
1,note_on,75,45,0
1,note_on,75,0,120
1,note_on,78,45,0
1,note_on,78,0,120
1,note_on,69,51,0
1,note_on,69,0,120
1,note_on,81,47,0
1,note_on,81,0,120
1,note_on,75,44,0
1,note_on,75,0,120
1,note_on,78,44,0
1,note_on,78,0,120
1,note_on,72,52,0
1,note_on,72,0,120
1,note_on,84,47,6
1,note_on,75,46,114
1,note_on,84,0,6
1,note_on,75,0,114
1,note_on,78,46,0
1,note_on,78,0,120
1,note_on,71,49,0
1,note_on,71,0,120
1,note_on,83,44,0
1,note_on,83,0,120
1,note_on,75,44,0
1,note_on,75,0,120
1,note_on,78,44,0
1,note_on,78,0,120
1,note_on,71,48,0
1,note_on,71,0,120
1,note_on,83,45,0
1,note_on,83,0,120
1,note_on,75,42,0
1,note_on,75,0,120
1,note_on,78,42,0
1,note_on,78,0,120
1,note_on,70,47,0
1,note_on,70,0,120
1,note_on,82,43,0
1,note_on,82,0,120
1,note_on,75,40,0
1,note_on,75,0,120
1,note_on,78,40,0
1,note_on,78,0,120
1,note_on,70,46,0
1,note_on,70,0,120
1,note_on,82,42,0
1,note_on,82,0,120
1,note_on,75,41,0
1,note_on,75,0,120
1,note_on,78,41,0
1,note_on,78,0,120
1,note_on,69,44,0
1,note_on,69,0,120
1,note_on,81,40,0
1,note_on,81,0,120
1,note_on,75,40,0
1,note_on,75,0,120
1,note_on,78,39,0
1,note_on,78,0,120
1,note_on,69,43,0
1,note_on,69,0,120
1,note_on,81,40,0
1,note_on,81,0,120
1,note_on,75,37,0
1,note_on,75,0,120
1,note_on,78,37,0
1,note_on,78,0,120
1,note_on,68,42,0
1,note_on,68,0,120
1,note_on,80,38,0
1,note_on,80,0,120
1,note_on,75,36,0
1,note_on,75,0,120
1,note_on,78,35,0
1,note_on,78,0,120
1,note_on,68,37,120
1,note_on,68,0,120
1,note_on,69,41,0
1,note_on,69,0,120
1,note_on,68,38,0
1,note_on,68,0,120
1,note_on,67,39,0
1,note_on,67,0,120
1,note_on,68,40,0
1,note_on,68,0,120
1,note_on,73,42,0
1,note_on,73,0,120
1,note_on,76,43,0
1,note_on,76,0,120
1,note_on,75,45,0
1,note_on,75,0,120
1,note_on,73,43,0
1,note_on,73,0,120
1,note_on,75,45,0
1,note_on,75,0,120
1,note_on,73,43,0
1,note_on,73,0,120
1,note_on,72,44,0
1,note_on,72,0,120
1,note_on,73,46,0
1,note_on,73,0,120
1,note_on,76,49,0
1,note_on,76,0,120
1,note_on,80,47,0
1,note_on,80,0,120
1,note_on,68,45,120
1,note_on,68,0,120
1,note_on,69,49,0
1,note_on,69,0,120
1,note_on,68,45,0
1,note_on,68,0,120
1,note_on,67,46,0
1,note_on,67,0,120
1,note_on,68,48,0
1,note_on,68,0,120
1,note_on,73,50,0
1,note_on,73,0,120
1,note_on,76,51,0
1,note_on,76,0,120
1,note_on,75,54,0
1,note_on,75,0,120
1,note_on,73,51,0
1,note_on,73,0,120
1,note_on,75,53,0
1,note_on,75,0,120
1,note_on,73,51,0
1,note_on,73,0,120
1,note_on,72,52,0
1,note_on,72,0,120
1,note_on,73,54,0
1,note_on,73,0,120
1,note_on,76,57,0
1,note_on,76,0,120
1,note_on,80,55,0
1,note_on,80,0,120
1,note_on,69,56,120
1,note_on,69,0,120
1,note_on,73,57,0
1,note_on,73,0,120
1,note_on,75,59,0
1,note_on,75,0,120
1,note_on,78,61,0
1,note_on,78,0,120
1,note_on,81,66,0
1,note_on,81,0,120
1,note_on,85,69,0
1,note_on,85,0,120
1,note_on,87,71,0
1,note_on,87,0,120
1,note_on,95,73,0
1,note_on,95,0,120
1,note_on,93,71,0
1,note_on,93,0,120
1,note_on,92,71,0
1,note_on,92,0,120
1,note_on,90,70,0
1,note_on,90,0,120
1,note_on,88,69,0
1,note_on,88,0,120
1,note_on,87,68,0
1,note_on,87,0,120
1,note_on,90,67,0
1,note_on,90,0,120
1,note_on,85,67,0
1,note_on,85,0,120
1,note_on,84,68,0
1,note_on,84,0,120
1,note_on,87,64,0
1,note_on,87,0,120
1,note_on,81,65,0
1,note_on,81,0,120
1,note_on,80,65,0
1,note_on,80,0,120
1,note_on,78,64,0
1,note_on,78,0,120
1,note_on,81,62,0
1,note_on,81,0,120
1,note_on,76,59,0
1,note_on,76,0,120
1,note_on,75,59,0
1,note_on,75,0,120
1,note_on,78,59,0
1,note_on,78,0,120
1,note_on,73,55,0
1,note_on,73,0,120
1,note_on,72,55,0
1,note_on,72,0,120
1,note_on,75,55,0
1,note_on,75,0,120
1,note_on,69,54,0
1,note_on,69,0,120
1,note_on,68,51,0
1,note_on,68,0,120
1,note_on,71,51,0
1,note_on,71,0,120
1,note_on,69,50,0
1,note_on,69,0,240
1,note_on,68,47,0
1,note_on,68,0,120
1,note_on,69,51,0
1,note_on,69,0,120
1,note_on,68,47,0
1,note_on,68,0,120
1,note_on,67,48,0
1,note_on,67,0,120
1,note_on,68,49,0
1,note_on,68,0,120
1,note_on,73,51,0
1,note_on,73,0,120
1,note_on,76,52,0
1,note_on,76,0,120
1,note_on,75,54,0
1,note_on,75,0,120
1,note_on,73,51,0
1,note_on,73,0,120
1,note_on,75,53,0
1,note_on,75,0,120
1,note_on,73,51,0
1,note_on,73,0,120
1,note_on,72,51,0
1,note_on,72,0,120
1,note_on,73,53,0
1,note_on,73,0,120
1,note_on,76,57,0
1,note_on,76,0,120
1,note_on,80,54,0
1,note_on,80,0,120
1,note_on,76,52,0
1,note_on,76,0,120
1,note_on,75,48,0
1,note_on,75,0,120
1,note_on,76,52,0
1,note_on,76,0,120
1,note_on,75,48,0
1,note_on,75,0,120
1,note_on,74,49,0
1,note_on,74,0,120
1,note_on,75,50,0
1,note_on,75,0,120
1,note_on,78,53,0
1,note_on,78,0,120
1,note_on,81,54,0
1,note_on,81,0,120
1,note_on,78,56,0
1,note_on,78,0,120
1,note_on,77,54,0
1,note_on,77,0,120
1,note_on,78,56,0
1,note_on,78,0,120
1,note_on,77,54,0
1,note_on,77,0,120
1,note_on,76,54,0
1,note_on,76,0,120
1,note_on,77,56,0
1,note_on,77,0,120
1,note_on,80,59,0
1,note_on,80,0,120
1,note_on,85,57,0
1,note_on,85,0,120
1,note_on,73,50,120
1,note_on,73,0,120
1,note_on,74,55,0
1,note_on,74,0,120
1,note_on,73,51,0
1,note_on,73,0,120
1,note_on,72,52,0
1,note_on,72,0,120
1,note_on,73,53,0
1,note_on,73,0,120
1,note_on,78,56,0
1,note_on,78,0,120
1,note_on,81,57,0
1,note_on,81,0,120
1,note_on,78,59,0
1,note_on,78,0,120
1,note_on,77,56,0
1,note_on,77,0,120
1,note_on,78,59,0
1,note_on,78,0,120
1,note_on,77,57,0
1,note_on,77,0,120
1,note_on,76,57,0
1,note_on,76,0,120
1,note_on,77,59,0
1,note_on,77,0,120
1,note_on,80,63,0
1,note_on,80,0,120
1,note_on,85,59,0
1,note_on,85,0,120
1,note_on,80,58,0
1,note_on,80,0,120
1,note_on,78,53,0
1,note_on,78,0,120
1,note_on,80,58,0
1,note_on,80,0,120
1,note_on,78,54,0
1,note_on,78,0,120
1,note_on,77,55,0
1,note_on,77,0,120
1,note_on,78,56,0
1,note_on,78,0,120
1,note_on,81,59,0
1,note_on,81,0,120
1,note_on,85,60,0
1,note_on,85,0,120
1,note_on,81,63,0
1,note_on,81,0,120
1,note_on,80,59,0
1,note_on,80,0,120
1,note_on,81,62,0
1,note_on,81,0,120
1,note_on,80,60,0
1,note_on,80,0,120
1,note_on,79,60,0
1,note_on,79,0,120
1,note_on,80,62,0
1,note_on,80,0,120
1,note_on,84,66,0
1,note_on,84,0,120
1,note_on,87,63,0
1,note_on,87,0,120
1,note_on,80,69,0
1,note_on,80,0,120
1,note_on,81,64,0
1,note_on,81,0,120
1,note_on,80,67,0
1,note_on,80,0,120
1,note_on,79,58,0
1,note_on,79,0,120
1,note_on,80,62,0
1,note_on,80,0,120
1,note_on,88,71,0
1,note_on,88,0,120
1,note_on,87,71,0
1,note_on,87,0,120
1,note_on,86,70,0
1,note_on,86,0,120
1,note_on,85,69,0
1,note_on,85,0,120
1,note_on,84,69,0
1,note_on,84,0,120
1,note_on,83,68,0
1,note_on,83,0,120
1,note_on,82,67,0
1,note_on,82,0,120
1,note_on,81,67,0
1,note_on,81,0,120
1,note_on,80,66,0
1,note_on,80,0,120
1,note_on,79,65,0
1,note_on,79,0,120
1,note_on,78,64,0
1,note_on,78,0,120
1,note_on,76,69,0
1,note_on,76,0,120
1,note_on,78,64,0
1,note_on,78,0,120
1,note_on,76,67,0
1,note_on,76,0,120
1,note_on,75,58,0
1,note_on,75,0,120
1,note_on,76,62,0
1,note_on,76,0,120
1,note_on,88,71,0
1,note_on,88,0,120
1,note_on,87,71,0
1,note_on,87,0,120
1,note_on,86,70,0
1,note_on,86,0,120
1,note_on,85,70,0
1,note_on,85,0,120
1,note_on,84,71,0
1,note_on,84,0,120
1,note_on,83,71,0
1,note_on,83,0,120
1,note_on,82,72,0
1,note_on,82,0,120
1,note_on,81,73,0
1,note_on,81,0,120
1,note_on,80,74,0
1,note_on,80,0,120
1,note_on,79,75,0
1,note_on,79,0,120
1,note_on,78,76,0
1,note_on,78,0,120
1,note_on,80,76,0
1,note_on,80,0,60
1,note_on,92,85,180
1,note_on,92,0,120
1,note_on,91,85,0
1,note_on,91,0,120
1,note_on,90,84,0
1,note_on,90,0,120
1,note_on,89,84,0
1,note_on,89,0,120
1,note_on,88,83,0
1,note_on,88,0,120
1,note_on,87,83,0
1,note_on,87,0,120
1,note_on,86,82,0
1,note_on,86,0,120
1,note_on,85,81,0
1,note_on,85,0,120
1,note_on,84,81,0
1,note_on,84,0,120
1,note_on,83,80,0
1,note_on,83,0,120
1,note_on,82,80,0
1,note_on,82,0,120
1,note_on,81,79,0
1,note_on,81,0,120
1,note_on,80,79,0
1,note_on,80,0,120
1,note_on,79,78,0
1,note_on,79,0,120
1,note_on,78,77,0
1,note_on,78,0,120
1,note_on,77,77,0
1,note_on,77,0,120
1,note_on,76,77,0
1,note_on,76,0,120
1,note_on,75,77,0
1,note_on,75,0,120
1,note_on,74,77,0
1,note_on,74,0,120
1,note_on,73,77,0
1,note_on,73,0,120
1,note_on,72,77,0
1,note_on,72,0,120
1,note_on,71,77,0
1,note_on,71,0,120
1,note_on,70,77,0
1,note_on,70,0,120
1,note_on,69,78,0
1,note_on,69,0,120
1,note_on,68,80,0
1,note_on,68,0,120
1,note_on,67,82,0
1,note_on,67,0,120
1,note_on,66,85,0
1,note_on,66,0,120
1,note_on,64,87,0
1,note_on,64,0,120
1,note_on,63,90,0
1,note_on,63,0,120
1,note_on,61,92,0
1,note_on,61,0,120
1,note_on,56,94,0
1,note_on,56,0,120
1,note_on,93,90,360
1,note_on,93,0,120
1,note_on,92,81,0
1,note_on,92,0,120
1,note_on,100,77,0
1,note_on,100,0,120
1,note_on,88,77,0
1,note_on,88,0,120
1,note_on,90,90,0
1,note_on,90,0,120
1,note_on,88,77,0
1,note_on,88,0,120
1,note_on,97,77,0
1,note_on,97,0,120
1,note_on,85,77,0
1,note_on,85,0,120
1,note_on,87,89,0
1,note_on,87,0,120
1,note_on,85,77,0
1,note_on,85,0,120
1,note_on,92,77,0
1,note_on,92,0,120
1,note_on,80,77,0
1,note_on,80,0,120
1,note_on,81,89,0
1,note_on,81,0,120
1,note_on,80,77,0
1,note_on,80,0,120
1,note_on,88,77,0
1,note_on,88,0,120
1,note_on,76,77,0
1,note_on,76,0,120
1,note_on,78,88,0
1,note_on,78,0,120
1,note_on,76,77,0
1,note_on,76,0,120
1,note_on,85,77,0
1,note_on,85,0,120
1,note_on,73,77,0
1,note_on,73,0,120
1,note_on,75,89,0
1,note_on,75,0,120
1,note_on,73,77,0
1,note_on,73,0,120
1,note_on,80,77,0
1,note_on,80,0,120
1,note_on,68,77,0
1,note_on,68,0,120
1,note_on,69,90,0
1,note_on,69,0,120
1,note_on,68,77,0
1,note_on,68,0,120
1,note_on,76,77,0
1,note_on,76,0,120
1,note_on,64,77,0
1,note_on,64,0,120
1,note_on,66,88,0
1,note_on,66,0,120
1,note_on,64,77,0
1,note_on,64,0,120
1,note_on,73,77,0
1,note_on,73,0,120
1,note_on,61,77,0
1,note_on,61,0,120
1,note_on,63,89,0
1,note_on,63,0,120
1,note_on,61,77,0
1,note_on,61,0,120
1,note_on,68,77,0
1,note_on,68,0,120
1,note_on,56,77,0
1,note_on,56,0,120
1,note_on,63,89,0
1,note_on,63,0,120
1,note_on,61,77,0
1,note_on,61,0,120
1,note_on,68,77,0
1,note_on,68,0,120
1,note_on,56,77,0
1,note_on,56,0,120
1,note_on,63,89,0
1,note_on,63,0,120
1,note_on,61,77,0
1,note_on,61,0,120
1,note_on,69,77,0
1,note_on,69,0,120
1,note_on,57,77,0
1,note_on,57,0,120
1,note_on,63,89,0
1,note_on,63,0,120
1,note_on,61,75,0
1,note_on,61,0,120
1,note_on,68,74,0
1,note_on,68,0,120
1,note_on,56,73,0
1,note_on,56,0,120
1,note_on,63,83,0
1,note_on,63,0,120
1,note_on,61,71,0
1,note_on,61,0,120
1,note_on,67,71,0
1,note_on,67,0,120
1,note_on,55,70,0
1,note_on,55,0,120
1,note_on,63,79,0
1,note_on,63,0,120
1,note_on,61,68,0
1,note_on,61,0,120
1,note_on,68,67,0
1,note_on,68,0,120
1,note_on,56,66,0
1,note_on,56,0,120
1,note_on,63,75,0
1,note_on,63,0,120
1,note_on,60,63,0
1,note_on,60,0,120
1,note_on,68,63,0
1,note_on,68,0,120
1,note_on,56,62,0
1,note_on,56,0,120
1,note_on,68,45,3840
1,note_on,68,0,960
1,note_on,70,42,0
1,note_on,70,0,60
1,note_on,72,42,0
1,note_on,72,0,60
1,note_on,70,46,0
1,note_on,70,0,120
1,note_on,68,45,0
1,note_on,68,0,240
1,note_on,73,45,0
1,note_on,73,0,240
1,note_on,75,48,0
1,note_on,75,0,240
1,note_on,77,51,0
1,note_on,77,0,960
1,note_on,80,56,0
1,note_on,68,49,480
1,note_on,68,0,480
1,note_on,80,0,0
1,note_on,78,53,0
1,note_on,78,0,480
1,note_on,77,51,0
1,note_on,77,0,480
1,note_on,75,49,0
1,note_on,75,0,480
1,note_on,77,51,0
1,note_on,77,0,360
1,note_on,73,47,0
1,note_on,73,0,120
1,note_on,68,48,0
1,note_on,68,0,960
1,note_on,70,48,0
1,note_on,70,0,1920
1,note_on,71,42,0
1,note_on,71,0,60
1,note_on,73,42,0
1,note_on,73,0,60
1,note_on,71,46,0
1,note_on,71,0,120
1,note_on,70,45,0
1,note_on,70,0,240
1,note_on,75,45,0
1,note_on,75,0,240
1,note_on,77,48,0
1,note_on,77,0,240
1,note_on,78,51,0
1,note_on,78,0,480
1,note_on,77,50,0
1,note_on,77,0,480
1,note_on,75,51,0
1,note_on,75,0,480
1,note_on,77,49,0
1,note_on,77,0,480
1,note_on,73,48,0
1,note_on,73,0,720
1,note_on,72,49,0
1,note_on,72,0,60
1,note_on,73,45,0
1,note_on,73,0,60
1,note_on,75,45,0
1,note_on,75,0,60
1,note_on,73,45,0
1,note_on,73,0,60
1,note_on,77,50,0
1,note_on,77,0,720
1,note_on,75,49,0
1,note_on,75,0,240
1,note_on,75,47,0
1,note_on,75,0,1920
1,note_on,68,45,0
1,note_on,68,0,960
1,note_on,70,42,0
1,note_on,70,0,60
1,note_on,72,42,0
1,note_on,72,0,60
1,note_on,70,46,0
1,note_on,70,0,120
1,note_on,68,45,0
1,note_on,68,0,240
1,note_on,73,45,0
1,note_on,73,0,240
1,note_on,75,48,0
1,note_on,75,0,240
1,note_on,77,51,0
1,note_on,77,0,960
1,note_on,80,56,0
1,note_on,68,49,480
1,note_on,68,0,480
1,note_on,80,0,0
1,note_on,78,53,0
1,note_on,78,0,480
1,note_on,77,51,0
1,note_on,77,0,480
1,note_on,75,49,0
1,note_on,75,0,240
1,note_on,77,47,0
1,note_on,77,0,60
1,note_on,75,47,0
1,note_on,75,0,60
1,note_on,73,47,0
1,note_on,73,0,60
1,note_on,75,47,0
1,note_on,75,0,60
1,note_on,77,51,0
1,note_on,77,0,360
1,note_on,73,47,0
1,note_on,73,0,120
1,note_on,68,48,0
1,note_on,68,0,960
1,note_on,70,48,0
1,note_on,70,0,1920
1,note_on,71,42,0
1,note_on,71,0,60
1,note_on,73,42,0
1,note_on,73,0,60
1,note_on,71,46,0
1,note_on,71,0,120
1,note_on,70,45,0
1,note_on,70,0,240
1,note_on,75,45,0
1,note_on,75,0,240
1,note_on,77,48,0
1,note_on,77,0,240
1,note_on,78,51,0
1,note_on,78,0,480
1,note_on,77,50,0
1,note_on,77,0,480
1,note_on,75,51,0
1,note_on,75,0,480
1,note_on,77,49,0
1,note_on,77,0,480
1,note_on,73,48,0
1,note_on,73,0,720
1,note_on,67,49,0
1,note_on,67,0,60
1,note_on,68,45,0
1,note_on,68,0,60
1,note_on,70,45,0
1,note_on,70,0,60
1,note_on,68,45,0
1,note_on,68,0,60
1,note_on,77,50,0
1,note_on,77,0,720
1,note_on,75,49,0
1,note_on,75,0,240
1,note_on,75,52,0
1,note_on,75,0,960
1,note_on,73,52,0
1,note_on,73,0,480
1,note_on,80,60,240
1,note_on,80,0,240
1,note_on,68,65,0
1,note_on,68,0,960
1,note_on,70,65,0
1,note_on,70,0,60
1,note_on,72,59,0
1,note_on,72,0,60
1,note_on,70,60,0
1,note_on,70,0,60
1,note_on,72,59,0
1,note_on,72,0,60
1,note_on,70,56,0
1,note_on,70,0,40
1,note_on,72,56,0
1,note_on,72,0,40
1,note_on,70,56,0
1,note_on,70,0,40
1,note_on,69,62,0
1,note_on,69,0,120
1,note_on,70,64,0
1,note_on,70,0,360
1,note_on,72,62,0
1,note_on,72,0,120
1,note_on,68,66,0
1,note_on,68,0,240
1,note_on,84,66,240
1,note_on,84,0,617
1,note_on,82,63,0
1,note_on,82,0,137
1,note_on,80,62,0
1,note_on,80,0,137
1,note_on,76,61,0
1,note_on,76,0,137
1,note_on,73,59,0
1,note_on,73,0,137
1,note_on,70,58,0
1,note_on,70,0,206
1,note_on,80,55,0
1,note_on,80,0,69
1,note_on,63,66,0
1,note_on,63,0,900
1,note_on,72,59,0
1,note_on,72,0,60
1,note_on,70,64,0
1,note_on,70,0,360
1,note_on,69,57,0
1,note_on,69,0,120
1,note_on,70,64,0
1,note_on,70,0,360
1,note_on,75,62,0
1,note_on,75,0,120
1,note_on,68,65,0
1,note_on,68,0,480
1,note_on,70,39,480
1,note_on,70,0,480
1,note_on,73,44,0
1,note_on,73,0,160
1,note_on,72,39,0
1,note_on,72,0,160
1,note_on,70,39,0
1,note_on,70,0,160
1,note_on,68,43,0
1,note_on,68,0,960
1,note_on,70,46,0
1,note_on,70,0,48
1,note_on,72,42,0
1,note_on,72,0,48
1,note_on,70,42,0
1,note_on,70,0,48
1,note_on,72,44,0
1,note_on,72,0,48
1,note_on,70,42,0
1,note_on,70,0,48
1,note_on,68,41,0
1,note_on,68,0,240
1,note_on,73,45,0
1,note_on,73,0,240
1,note_on,75,48,0
1,note_on,75,0,240
1,note_on,77,51,0
1,note_on,77,0,960
1,note_on,80,56,0
1,note_on,68,49,480
1,note_on,68,0,480
1,note_on,80,0,0
1,note_on,78,53,0
1,note_on,78,0,480
1,note_on,77,51,0
1,note_on,77,0,480
1,note_on,75,49,0
1,note_on,75,0,240
1,note_on,77,47,0
1,note_on,77,0,60
1,note_on,75,47,0
1,note_on,75,0,60
1,note_on,73,47,0
1,note_on,73,0,60
1,note_on,75,47,0
1,note_on,75,0,60
1,note_on,77,51,0
1,note_on,77,0,240
1,note_on,73,47,0
1,note_on,73,0,240
1,note_on,68,48,0
1,note_on,68,0,960
1,note_on,70,48,0
1,note_on,70,0,1920
1,note_on,71,45,0
1,note_on,71,0,48
1,note_on,73,42,0
1,note_on,73,0,48
1,note_on,71,41,0
1,note_on,71,0,48
1,note_on,73,42,0
1,note_on,73,0,48
1,note_on,71,42,4
1,note_on,70,45,44
1,note_on,71,0,4
1,note_on,70,0,236
1,note_on,75,45,0
1,note_on,75,0,240
1,note_on,77,48,0
1,note_on,77,0,240
1,note_on,78,51,0
1,note_on,78,0,480
1,note_on,77,50,0
1,note_on,77,0,480
1,note_on,75,51,0
1,note_on,75,0,480
1,note_on,77,49,0
1,note_on,77,0,480
1,note_on,73,48,0
1,note_on,73,0,720
1,note_on,67,49,0
1,note_on,67,0,60
1,note_on,68,45,0
1,note_on,68,0,60
1,note_on,70,45,0
1,note_on,70,0,60
1,note_on,68,45,0
1,note_on,68,0,60
1,note_on,77,50,0
1,note_on,77,0,720
1,note_on,75,49,0
1,note_on,75,0,240
1,note_on,75,52,0
1,note_on,75,0,960
1,note_on,73,52,0
1,note_on,73,0,480
1,note_on,80,60,240
1,note_on,80,0,240
1,note_on,68,65,0
1,note_on,68,0,960
1,note_on,70,65,0
1,note_on,70,0,60
1,note_on,72,59,0
1,note_on,72,0,60
1,note_on,70,60,0
1,note_on,70,0,60
1,note_on,72,59,0
1,note_on,72,0,60
1,note_on,70,56,0
1,note_on,70,0,40
1,note_on,72,56,0
1,note_on,72,0,40
1,note_on,70,56,0
1,note_on,70,0,40
1,note_on,69,62,0
1,note_on,69,0,120
1,note_on,70,64,0
1,note_on,70,0,360
1,note_on,72,62,0
1,note_on,72,0,120
1,note_on,68,66,0
1,note_on,68,0,240
1,note_on,84,66,240
1,note_on,84,0,617
1,note_on,82,63,0
1,note_on,82,0,137
1,note_on,80,62,0
1,note_on,80,0,137
1,note_on,76,61,0
1,note_on,76,0,137
1,note_on,73,59,0
1,note_on,73,0,137
1,note_on,70,58,0
1,note_on,70,0,206
1,note_on,80,55,0
1,note_on,80,0,69
1,note_on,63,66,0
1,note_on,63,0,900
1,note_on,72,59,0
1,note_on,72,0,60
1,note_on,70,64,0
1,note_on,70,0,360
1,note_on,69,57,0
1,note_on,69,0,120
1,note_on,70,64,0
1,note_on,70,0,360
1,note_on,75,62,0
1,note_on,75,0,120
1,note_on,68,65,0
1,note_on,68,0,480
1,note_on,70,39,480
1,note_on,70,0,480
1,note_on,73,44,0
1,note_on,73,0,160
1,note_on,72,39,0
1,note_on,72,0,160
1,note_on,70,39,0
1,note_on,70,0,160
1,note_on,68,43,0
1,note_on,68,0,960
1,note_on,70,47,0
1,note_on,70,0,48
1,note_on,72,43,0
1,note_on,72,0,48
1,note_on,70,43,0
1,note_on,70,0,48
1,note_on,72,43,0
1,note_on,72,0,48
1,note_on,70,43,0
1,note_on,70,0,48
1,note_on,68,45,0
1,note_on,68,0,240
1,note_on,73,45,0
1,note_on,73,0,240
1,note_on,75,48,0
1,note_on,75,0,240
1,note_on,77,51,0
1,note_on,77,0,960
1,note_on,80,56,0
1,note_on,68,49,480
1,note_on,68,0,480
1,note_on,80,0,0
1,note_on,78,53,0
1,note_on,78,0,480
1,note_on,77,51,0
1,note_on,77,0,480
1,note_on,75,49,0
1,note_on,75,0,240
1,note_on,77,47,0
1,note_on,77,0,60
1,note_on,75,47,0
1,note_on,75,0,60
1,note_on,73,47,0
1,note_on,73,0,60
1,note_on,75,47,0
1,note_on,75,0,60
1,note_on,77,51,0
1,note_on,77,0,240
1,note_on,73,47,0
1,note_on,73,0,240
1,note_on,68,48,0
1,note_on,68,0,960
1,note_on,70,48,0
1,note_on,70,0,1920
1,note_on,71,48,0
1,note_on,71,0,48
1,note_on,73,42,0
1,note_on,73,0,48
1,note_on,71,43,0
1,note_on,71,0,48
1,note_on,73,42,0
1,note_on,73,0,48
1,note_on,71,42,0
1,note_on,71,0,48
1,note_on,70,45,0
1,note_on,70,0,240
1,note_on,75,45,0
1,note_on,75,0,240
1,note_on,77,48,0
1,note_on,77,0,240
1,note_on,78,51,0
1,note_on,78,0,480
1,note_on,77,47,0
1,note_on,77,0,480
1,note_on,75,49,0
1,note_on,75,0,480
1,note_on,77,45,0
1,note_on,77,0,480
1,note_on,73,43,0
1,note_on,73,0,720
1,note_on,67,44,0
1,note_on,67,0,60
1,note_on,68,40,0
1,note_on,68,0,60
1,note_on,70,40,0
1,note_on,70,0,60
1,note_on,68,40,0
1,note_on,68,0,60
1,note_on,77,45,0
1,note_on,77,0,720
1,note_on,75,44,0
1,note_on,75,0,240
1,note_on,75,44,0
1,note_on,75,0,1920
1,note_on,68,37,120
1,note_on,68,0,120
1,note_on,69,41,0
1,note_on,69,0,120
1,note_on,68,38,0
1,note_on,68,0,120
1,note_on,67,39,0
1,note_on,67,0,120
1,note_on,68,40,0
1,note_on,68,0,120
1,note_on,73,42,0
1,note_on,73,0,120
1,note_on,76,43,0
1,note_on,76,0,120
1,note_on,75,45,0
1,note_on,75,0,120
1,note_on,73,43,0
1,note_on,73,0,120
1,note_on,75,45,0
1,note_on,75,0,120
1,note_on,73,43,0
1,note_on,73,0,120
1,note_on,72,44,0
1,note_on,72,0,120
1,note_on,73,46,0
1,note_on,73,0,120
1,note_on,76,49,0
1,note_on,76,0,120
1,note_on,80,47,0
1,note_on,80,0,120
1,note_on,68,45,120
1,note_on,68,0,120
1,note_on,69,49,0
1,note_on,69,0,120
1,note_on,68,45,0
1,note_on,68,0,120
1,note_on,67,46,0
1,note_on,67,0,120
1,note_on,68,48,0
1,note_on,68,0,120
1,note_on,73,50,0
1,note_on,73,0,120
1,note_on,76,51,0
1,note_on,76,0,120
1,note_on,75,54,0
1,note_on,75,0,120
1,note_on,73,51,0
1,note_on,73,0,120
1,note_on,75,53,0
1,note_on,75,0,120
1,note_on,73,51,0
1,note_on,73,0,120
1,note_on,72,52,0
1,note_on,72,0,120
1,note_on,73,54,0
1,note_on,73,0,120
1,note_on,76,57,0
1,note_on,76,0,120
1,note_on,80,55,0
1,note_on,80,0,120
1,note_on,69,56,120
1,note_on,69,0,120
1,note_on,73,58,0
1,note_on,73,0,120
1,note_on,75,60,0
1,note_on,75,0,120
1,note_on,78,63,0
1,note_on,78,0,120
1,note_on,81,63,0
1,note_on,81,0,120
1,note_on,85,66,0
1,note_on,85,0,120
1,note_on,87,72,0
1,note_on,87,0,120
1,note_on,95,76,0
1,note_on,95,0,120
1,note_on,93,75,0
1,note_on,93,0,120
1,note_on,92,70,0
1,note_on,92,0,120
1,note_on,90,69,0
1,note_on,90,0,120
1,note_on,88,68,0
1,note_on,88,0,120
1,note_on,87,67,0
1,note_on,87,0,120
1,note_on,90,66,0
1,note_on,90,0,120
1,note_on,85,67,0
1,note_on,85,0,120
1,note_on,84,68,0
1,note_on,84,0,120
1,note_on,87,63,0
1,note_on,87,0,120
1,note_on,81,63,0
1,note_on,81,0,120
1,note_on,80,63,0
1,note_on,80,0,120
1,note_on,78,60,0
1,note_on,78,0,120
1,note_on,81,58,0
1,note_on,81,0,120
1,note_on,76,54,0
1,note_on,76,0,120
1,note_on,75,54,0
1,note_on,75,0,120
1,note_on,78,53,0
1,note_on,78,0,120
1,note_on,73,48,0
1,note_on,73,0,120
1,note_on,72,48,0
1,note_on,72,0,120
1,note_on,75,47,0
1,note_on,75,0,120
1,note_on,69,45,0
1,note_on,69,0,120
1,note_on,68,42,0
1,note_on,68,0,120
1,note_on,71,42,0
1,note_on,71,0,120
1,note_on,69,41,0
1,note_on,69,0,240
1,note_on,68,37,0
1,note_on,68,0,120
1,note_on,69,41,0
1,note_on,69,0,120
1,note_on,68,38,0
1,note_on,68,0,120
1,note_on,67,39,0
1,note_on,67,0,120
1,note_on,68,40,0
1,note_on,68,0,120
1,note_on,73,42,0
1,note_on,73,0,120
1,note_on,76,43,0
1,note_on,76,0,120
1,note_on,75,45,0
1,note_on,75,0,120
1,note_on,73,43,0
1,note_on,73,0,120
1,note_on,75,45,0
1,note_on,75,0,120
1,note_on,73,43,0
1,note_on,73,0,120
1,note_on,72,44,0
1,note_on,72,0,120
1,note_on,73,46,0
1,note_on,73,0,120
1,note_on,76,49,0
1,note_on,76,0,120
1,note_on,80,47,0
1,note_on,80,0,120
1,note_on,68,45,120
1,note_on,68,0,120
1,note_on,70,49,0
1,note_on,70,0,120
1,note_on,68,45,0
1,note_on,68,0,120
1,note_on,67,46,0
1,note_on,67,0,120
1,note_on,68,48,0
1,note_on,68,0,120
1,note_on,73,50,0
1,note_on,73,0,120
1,note_on,76,51,0
1,note_on,76,0,120
1,note_on,75,54,0
1,note_on,75,0,120
1,note_on,73,51,0
1,note_on,73,0,120
1,note_on,75,53,0
1,note_on,75,0,120
1,note_on,73,51,0
1,note_on,73,0,120
1,note_on,72,52,0
1,note_on,72,0,120
1,note_on,73,54,0
1,note_on,73,0,120
1,note_on,76,57,0
1,note_on,76,0,120
1,note_on,80,55,0
1,note_on,80,0,120
1,note_on,75,64,0
1,note_on,75,0,120
1,note_on,76,58,0
1,note_on,76,0,120
1,note_on,75,61,0
1,note_on,75,0,120
1,note_on,74,50,0
1,note_on,74,0,120
1,note_on,75,56,0
1,note_on,75,0,120
1,note_on,83,68,0
1,note_on,83,0,120
1,note_on,82,62,0
1,note_on,82,0,120
1,note_on,80,65,0
1,note_on,80,0,120
1,note_on,79,68,0
1,note_on,79,0,120
1,note_on,88,72,0
1,note_on,88,0,120
1,note_on,87,69,0
1,note_on,87,0,120
1,note_on,85,69,0
1,note_on,85,0,120
1,note_on,83,74,0
1,note_on,83,0,120
1,note_on,82,69,0
1,note_on,82,0,120
1,note_on,80,69,0
1,note_on,80,0,120
1,note_on,79,69,0
1,note_on,79,0,120
1,note_on,82,72,0
1,note_on,82,0,120
1,note_on,80,70,0
1,note_on,80,0,120
1,note_on,83,64,0
1,note_on,83,0,120
1,note_on,74,57,0
1,note_on,74,0,120
1,note_on,76,65,0
1,note_on,76,0,120
1,note_on,75,57,0
1,note_on,75,0,120
1,note_on,80,63,0
1,note_on,80,0,120
1,note_on,70,57,0
1,note_on,70,0,120
1,note_on,73,61,0
1,note_on,73,0,120
1,note_on,71,59,0
1,note_on,71,0,120
1,note_on,75,58,0
1,note_on,75,0,120
1,note_on,67,56,0
1,note_on,67,0,120
1,note_on,70,60,0
1,note_on,70,0,120
1,note_on,68,51,0
1,note_on,68,0,120
1,note_on,67,55,0
1,note_on,67,0,120
1,note_on,68,50,0
1,note_on,68,0,120
1,note_on,68,72,0
1,note_on,68,0,120
1,note_on,80,58,0
1,note_on,80,0,120
1,note_on,72,59,0
1,note_on,72,0,120
1,note_on,73,59,0
1,note_on,73,0,120
1,note_on,66,71,0
1,note_on,66,0,120
1,note_on,78,60,0
1,note_on,78,0,120
1,note_on,72,60,0
1,note_on,72,0,120
1,note_on,73,61,0
1,note_on,73,0,120
1,note_on,65,75,0
1,note_on,65,0,120
1,note_on,77,62,0
1,note_on,77,0,120
1,note_on,72,63,0
1,note_on,72,0,120
1,note_on,73,63,0
1,note_on,73,0,120
1,note_on,66,74,0
1,note_on,66,0,120
1,note_on,78,65,0
1,note_on,78,0,120
1,note_on,72,64,0
1,note_on,72,0,120
1,note_on,73,64,0
1,note_on,73,0,120
1,note_on,61,77,0
1,note_on,61,0,120
1,note_on,73,65,0
1,note_on,73,0,120
1,note_on,66,65,0
1,note_on,66,0,120
1,note_on,69,65,0
1,note_on,69,0,120
1,note_on,63,75,0
1,note_on,63,0,120
1,note_on,75,65,0
1,note_on,75,0,120
1,note_on,66,65,0
1,note_on,66,0,120
1,note_on,69,65,0
1,note_on,69,0,120
1,note_on,64,79,0
1,note_on,64,0,120
1,note_on,76,66,0
1,note_on,76,0,120
1,note_on,68,66,0
1,note_on,68,0,120
1,note_on,71,66,0
1,note_on,71,0,120
1,note_on,68,77,0
1,note_on,68,0,120
1,note_on,80,67,0
1,note_on,80,0,120
1,note_on,71,66,0
1,note_on,71,0,120
1,note_on,76,65,0
1,note_on,76,0,120
1,note_on,68,81,0
1,note_on,68,0,120
1,note_on,80,65,0
1,note_on,80,0,120
1,note_on,72,65,0
1,note_on,72,0,120
1,note_on,73,65,0
1,note_on,73,0,120
1,note_on,66,78,0
1,note_on,66,0,120
1,note_on,78,65,0
1,note_on,78,0,120
1,note_on,72,65,0
1,note_on,72,0,120
1,note_on,73,65,0
1,note_on,73,0,120
1,note_on,65,79,0
1,note_on,65,0,120
1,note_on,77,66,0
1,note_on,77,0,120
1,note_on,72,66,0
1,note_on,72,0,120
1,note_on,73,66,0
1,note_on,73,0,120
1,note_on,66,77,0
1,note_on,66,0,120
1,note_on,78,67,0
1,note_on,78,0,120
1,note_on,72,66,0
1,note_on,72,0,120
1,note_on,73,65,0
1,note_on,73,0,120
1,note_on,65,81,0
1,note_on,65,0,120
1,note_on,77,65,0
1,note_on,77,0,120
1,note_on,71,65,0
1,note_on,71,0,120
1,note_on,75,65,0
1,note_on,75,0,120
1,note_on,66,78,0
1,note_on,66,0,120
1,note_on,78,65,0
1,note_on,78,0,120
1,note_on,71,65,0
1,note_on,71,0,120
1,note_on,75,65,0
1,note_on,75,0,120
1,note_on,69,79,0
1,note_on,69,0,120
1,note_on,81,66,0
1,note_on,81,0,120
1,note_on,71,66,0
1,note_on,71,0,120
1,note_on,76,66,0
1,note_on,76,0,120
1,note_on,68,77,0
1,note_on,68,0,120
1,note_on,80,67,0
1,note_on,80,0,120
1,note_on,71,66,0
1,note_on,71,0,120
1,note_on,76,65,0
1,note_on,76,0,120
1,note_on,68,52,0
1,note_on,68,0,120
1,note_on,80,57,0
1,note_on,80,0,120
1,note_on,72,47,0
1,note_on,72,0,120
1,note_on,73,47,0
1,note_on,73,0,120
1,note_on,66,49,0
1,note_on,66,0,120
1,note_on,78,54,0
1,note_on,78,0,120
1,note_on,72,48,0
1,note_on,72,0,120
1,note_on,73,48,0
1,note_on,73,0,120
1,note_on,65,51,0
1,note_on,65,0,120
1,note_on,77,56,0
1,note_on,77,0,120
1,note_on,72,50,0
1,note_on,72,0,120
1,note_on,73,50,0
1,note_on,73,0,120
1,note_on,66,53,0
1,note_on,66,0,120
1,note_on,78,58,0
1,note_on,78,0,120
1,note_on,72,51,0
1,note_on,72,0,120
1,note_on,73,51,0
1,note_on,73,0,120
1,note_on,61,55,0
1,note_on,61,0,120
1,note_on,73,60,0
1,note_on,73,0,120
1,note_on,66,52,0
1,note_on,66,0,120
1,note_on,69,53,0
1,note_on,69,0,120
1,note_on,63,55,0
1,note_on,63,0,120
1,note_on,75,62,0
1,note_on,75,0,120
1,note_on,66,54,0
1,note_on,66,0,120
1,note_on,69,54,0
1,note_on,69,0,120
1,note_on,64,57,0
1,note_on,64,0,120
1,note_on,76,65,0
1,note_on,76,0,120
1,note_on,68,56,0
1,note_on,68,0,120
1,note_on,71,56,0
1,note_on,71,0,120
1,note_on,68,60,0
1,note_on,68,0,120
1,note_on,80,68,0
1,note_on,80,0,120
1,note_on,71,57,0
1,note_on,71,0,120
1,note_on,76,58,0
1,note_on,76,0,120
1,note_on,68,62,0
1,note_on,68,0,120
1,note_on,80,68,0
1,note_on,80,0,120
1,note_on,72,59,0
1,note_on,72,0,120
1,note_on,73,59,0
1,note_on,73,0,120
1,note_on,66,62,0
1,note_on,66,0,120
1,note_on,78,70,0
1,note_on,78,0,120
1,note_on,72,61,0
1,note_on,72,0,120
1,note_on,73,61,0
1,note_on,73,0,120
1,note_on,75,64,0
1,note_on,75,0,120
1,note_on,87,73,0
1,note_on,87,0,120
1,note_on,78,62,0
1,note_on,78,0,120
1,note_on,81,62,0
1,note_on,81,0,120
1,note_on,73,66,0
1,note_on,73,0,120
1,note_on,85,74,0
1,note_on,85,0,120
1,note_on,78,62,0
1,note_on,78,0,120
1,note_on,81,62,0
1,note_on,81,0,120
1,note_on,73,64,0
1,note_on,73,0,120
1,note_on,85,73,0
1,note_on,85,0,120
1,note_on,75,61,0
1,note_on,75,0,120
1,note_on,78,61,0
1,note_on,78,0,120
1,note_on,72,64,0
1,note_on,72,0,120
1,note_on,84,71,0
1,note_on,84,0,120
1,note_on,75,60,0
1,note_on,75,0,120
1,note_on,78,59,0
1,note_on,78,0,120
1,note_on,72,60,0
1,note_on,72,0,120
1,note_on,84,69,0
1,note_on,84,0,120
1,note_on,75,58,0
1,note_on,75,0,120
1,note_on,78,58,0
1,note_on,78,0,120
1,note_on,72,61,0
1,note_on,72,0,120
1,note_on,84,68,0
1,note_on,84,0,120
1,note_on,75,57,0
1,note_on,75,0,120
1,note_on,78,56,0
1,note_on,78,0,120
1,note_on,72,57,0
1,note_on,72,0,120
1,note_on,84,65,0
1,note_on,84,0,120
1,note_on,75,55,0
1,note_on,75,0,120
1,note_on,78,55,0
1,note_on,78,0,120
1,note_on,71,58,0
1,note_on,71,0,120
1,note_on,83,64,0
1,note_on,83,0,120
1,note_on,75,53,0
1,note_on,75,0,120
1,note_on,78,53,0
1,note_on,78,0,120
1,note_on,71,54,0
1,note_on,71,0,120
1,note_on,83,62,0
1,note_on,83,0,120
1,note_on,75,52,0
1,note_on,75,0,120
1,note_on,78,52,0
1,note_on,78,0,120
1,note_on,70,54,0
1,note_on,70,0,120
1,note_on,82,60,0
1,note_on,82,0,120
1,note_on,75,50,0
1,note_on,75,0,120
1,note_on,78,50,0
1,note_on,78,0,120
1,note_on,70,55,0
1,note_on,70,0,120
1,note_on,82,49,6
1,note_on,75,48,114
1,note_on,82,0,6
1,note_on,75,0,114
1,note_on,78,48,0
1,note_on,78,0,120
1,note_on,69,53,0
1,note_on,69,0,120
1,note_on,81,48,6
1,note_on,75,47,114
1,note_on,81,0,6
1,note_on,75,0,114
1,note_on,78,47,0
1,note_on,78,0,120
1,note_on,69,52,0
1,note_on,69,0,120
1,note_on,81,49,0
1,note_on,81,0,120
1,note_on,75,45,0
1,note_on,75,0,120
1,note_on,78,45,0
1,note_on,78,0,120
1,note_on,69,51,0
1,note_on,69,0,120
1,note_on,81,47,0
1,note_on,81,0,120
1,note_on,75,44,0
1,note_on,75,0,120
1,note_on,78,44,0
1,note_on,78,0,120
1,note_on,72,52,0
1,note_on,72,0,120
1,note_on,84,47,6
1,note_on,75,47,114
1,note_on,84,0,6
1,note_on,75,0,114
1,note_on,78,47,0
1,note_on,78,0,120
1,note_on,71,51,0
1,note_on,71,0,120
1,note_on,83,46,0
1,note_on,83,0,120
1,note_on,75,46,0
1,note_on,75,0,120
1,note_on,78,46,0
1,note_on,78,0,120
1,note_on,71,51,0
1,note_on,71,0,120
1,note_on,83,48,0
1,note_on,83,0,120
1,note_on,75,45,0
1,note_on,75,0,120
1,note_on,78,45,0
1,note_on,78,0,120
1,note_on,70,51,0
1,note_on,70,0,120
1,note_on,82,47,0
1,note_on,82,0,120
1,note_on,75,44,0
1,note_on,75,0,120
1,note_on,78,44,0
1,note_on,78,0,120
1,note_on,70,52,0
1,note_on,70,0,120
1,note_on,82,46,0
1,note_on,82,0,120
1,note_on,75,46,0
1,note_on,75,0,120
1,note_on,78,45,0
1,note_on,78,0,120
1,note_on,69,48,0
1,note_on,69,0,120
1,note_on,81,43,0
1,note_on,81,0,120
1,note_on,75,42,0
1,note_on,75,0,120
1,note_on,78,42,0
1,note_on,78,0,120
1,note_on,69,45,0
1,note_on,69,0,120
1,note_on,81,42,0
1,note_on,81,0,120
1,note_on,75,39,0
1,note_on,75,0,120
1,note_on,78,39,0
1,note_on,78,0,120
1,note_on,68,43,0
1,note_on,68,0,120
1,note_on,80,39,0
1,note_on,80,0,120
1,note_on,75,36,0
1,note_on,75,0,120
1,note_on,78,36,0
1,note_on,78,0,120
1,note_on,68,37,120
1,note_on,68,0,120
1,note_on,69,41,0
1,note_on,69,0,120
1,note_on,68,38,0
1,note_on,68,0,120
1,note_on,67,39,0
1,note_on,67,0,120
1,note_on,68,40,0
1,note_on,68,0,120
1,note_on,73,42,0
1,note_on,73,0,120
1,note_on,76,43,0
1,note_on,76,0,120
1,note_on,75,45,0
1,note_on,75,0,120
1,note_on,73,43,0
1,note_on,73,0,120
1,note_on,75,45,0
1,note_on,75,0,120
1,note_on,73,43,0
1,note_on,73,0,120
1,note_on,72,44,0
1,note_on,72,0,120
1,note_on,73,46,0
1,note_on,73,0,120
1,note_on,76,49,0
1,note_on,76,0,120
1,note_on,80,47,0
1,note_on,80,0,120
1,note_on,68,45,120
1,note_on,68,0,120
1,note_on,69,49,0
1,note_on,69,0,120
1,note_on,68,45,0
1,note_on,68,0,120
1,note_on,67,46,0
1,note_on,67,0,120
1,note_on,68,48,0
1,note_on,68,0,120
1,note_on,73,50,0
1,note_on,73,0,120
1,note_on,76,51,0
1,note_on,76,0,120
1,note_on,75,54,0
1,note_on,75,0,120
1,note_on,73,51,0
1,note_on,73,0,120
1,note_on,75,53,0
1,note_on,75,0,120
1,note_on,73,51,0
1,note_on,73,0,120
1,note_on,72,52,0
1,note_on,72,0,120
1,note_on,73,54,0
1,note_on,73,0,120
1,note_on,76,57,0
1,note_on,76,0,120
1,note_on,80,55,0
1,note_on,80,0,120
1,note_on,69,56,120
1,note_on,69,0,120
1,note_on,73,59,0
1,note_on,73,0,120
1,note_on,75,62,0
1,note_on,75,0,120
1,note_on,78,63,0
1,note_on,78,0,120
1,note_on,81,66,0
1,note_on,81,0,120
1,note_on,85,69,0
1,note_on,85,0,120
1,note_on,87,72,0
1,note_on,87,0,120
1,note_on,95,75,0
1,note_on,95,0,120
1,note_on,93,73,0
1,note_on,93,0,120
1,note_on,92,72,0
1,note_on,92,0,120
1,note_on,90,71,0
1,note_on,90,0,120
1,note_on,88,71,0
1,note_on,88,0,120
1,note_on,87,70,0
1,note_on,87,0,120
1,note_on,90,68,0
1,note_on,90,0,120
1,note_on,85,67,0
1,note_on,85,0,120
1,note_on,84,68,0
1,note_on,84,0,120
1,note_on,87,63,0
1,note_on,87,0,120
1,note_on,81,63,0
1,note_on,81,0,120
1,note_on,80,63,0
1,note_on,80,0,120
1,note_on,78,60,0
1,note_on,78,0,120
1,note_on,81,58,0
1,note_on,81,0,120
1,note_on,76,54,0
1,note_on,76,0,120
1,note_on,75,54,0
1,note_on,75,0,120
1,note_on,78,53,0
1,note_on,78,0,120
1,note_on,73,48,0
1,note_on,73,0,120
1,note_on,72,48,0
1,note_on,72,0,120
1,note_on,75,47,0
1,note_on,75,0,120
1,note_on,69,45,0
1,note_on,69,0,120
1,note_on,68,42,0
1,note_on,68,0,120
1,note_on,71,42,0
1,note_on,71,0,120
1,note_on,69,41,0
1,note_on,69,0,240
1,note_on,68,37,0
1,note_on,68,0,120
1,note_on,69,41,0
1,note_on,69,0,120
1,note_on,68,38,0
1,note_on,68,0,120
1,note_on,67,39,0
1,note_on,67,0,120
1,note_on,68,40,0
1,note_on,68,0,120
1,note_on,73,42,0
1,note_on,73,0,120
1,note_on,76,43,0
1,note_on,76,0,120
1,note_on,75,45,0
1,note_on,75,0,120
1,note_on,73,43,0
1,note_on,73,0,120
1,note_on,75,45,0
1,note_on,75,0,120
1,note_on,73,43,0
1,note_on,73,0,120
1,note_on,72,44,0
1,note_on,72,0,120
1,note_on,73,46,0
1,note_on,73,0,120
1,note_on,76,50,0
1,note_on,76,0,120
1,note_on,80,48,0
1,note_on,80,0,120
1,note_on,76,46,0
1,note_on,76,0,120
1,note_on,75,43,0
1,note_on,75,0,120
1,note_on,76,47,0
1,note_on,76,0,120
1,note_on,75,43,0
1,note_on,75,0,120
1,note_on,74,45,0
1,note_on,74,0,120
1,note_on,75,46,0
1,note_on,75,0,120
1,note_on,78,49,0
1,note_on,78,0,120
1,note_on,81,50,0
1,note_on,81,0,120
1,note_on,78,53,0
1,note_on,78,0,120
1,note_on,77,51,0
1,note_on,77,0,120
1,note_on,78,53,0
1,note_on,78,0,120
1,note_on,77,51,0
1,note_on,77,0,120
1,note_on,76,52,0
1,note_on,76,0,120
1,note_on,77,54,0
1,note_on,77,0,120
1,note_on,80,57,0
1,note_on,80,0,120
1,note_on,85,56,0
1,note_on,85,0,120
1,note_on,73,50,120
1,note_on,73,0,120
1,note_on,74,55,0
1,note_on,74,0,120
1,note_on,73,51,0
1,note_on,73,0,120
1,note_on,72,52,0
1,note_on,72,0,120
1,note_on,73,53,0
1,note_on,73,0,120
1,note_on,78,56,0
1,note_on,78,0,120
1,note_on,81,57,0
1,note_on,81,0,120
1,note_on,78,59,0
1,note_on,78,0,120
1,note_on,77,56,0
1,note_on,77,0,120
1,note_on,78,59,0
1,note_on,78,0,120
1,note_on,77,57,0
1,note_on,77,0,120
1,note_on,76,57,0
1,note_on,76,0,120
1,note_on,77,59,0
1,note_on,77,0,120
1,note_on,80,63,0
1,note_on,80,0,120
1,note_on,85,59,0
1,note_on,85,0,120
1,note_on,80,58,0
1,note_on,80,0,120
1,note_on,78,53,0
1,note_on,78,0,120
1,note_on,80,58,0
1,note_on,80,0,120
1,note_on,78,54,0
1,note_on,78,0,120
1,note_on,77,55,0
1,note_on,77,0,120
1,note_on,78,56,0
1,note_on,78,0,120
1,note_on,81,59,0
1,note_on,81,0,120
1,note_on,85,60,0
1,note_on,85,0,120
1,note_on,81,63,0
1,note_on,81,0,120
1,note_on,80,59,0
1,note_on,80,0,120
1,note_on,81,62,0
1,note_on,81,0,120
1,note_on,80,60,0
1,note_on,80,0,120
1,note_on,79,60,0
1,note_on,79,0,120
1,note_on,80,62,0
1,note_on,80,0,120
1,note_on,84,66,0
1,note_on,84,0,120
1,note_on,87,63,0
1,note_on,87,0,120
1,note_on,80,69,0
1,note_on,80,0,120
1,note_on,81,64,0
1,note_on,81,0,120
1,note_on,80,67,0
1,note_on,80,0,120
1,note_on,79,58,0
1,note_on,79,0,120
1,note_on,80,62,0
1,note_on,80,0,120
1,note_on,88,71,0
1,note_on,88,0,120
1,note_on,87,71,0
1,note_on,87,0,120
1,note_on,86,70,0
1,note_on,86,0,120
1,note_on,85,69,0
1,note_on,85,0,120
1,note_on,84,69,0
1,note_on,84,0,120
1,note_on,83,68,0
1,note_on,83,0,120
1,note_on,82,67,0
1,note_on,82,0,120
1,note_on,81,67,0
1,note_on,81,0,120
1,note_on,80,66,0
1,note_on,80,0,120
1,note_on,79,65,0
1,note_on,79,0,120
1,note_on,78,64,0
1,note_on,78,0,120
1,note_on,76,69,0
1,note_on,76,0,120
1,note_on,78,64,0
1,note_on,78,0,120
1,note_on,76,67,0
1,note_on,76,0,120
1,note_on,75,58,0
1,note_on,75,0,120
1,note_on,76,62,0
1,note_on,76,0,120
1,note_on,88,71,0
1,note_on,88,0,120
1,note_on,87,71,0
1,note_on,87,0,120
1,note_on,86,70,0
1,note_on,86,0,120
1,note_on,85,70,0
1,note_on,85,0,120
1,note_on,84,71,0
1,note_on,84,0,120
1,note_on,83,71,0
1,note_on,83,0,120
1,note_on,82,72,0
1,note_on,82,0,120
1,note_on,81,73,0
1,note_on,81,0,120
1,note_on,80,74,0
1,note_on,80,0,120
1,note_on,79,75,0
1,note_on,79,0,120
1,note_on,78,76,0
1,note_on,78,0,120
1,note_on,80,76,0
1,note_on,80,0,60
1,note_on,92,85,180
1,note_on,92,0,120
1,note_on,91,85,0
1,note_on,91,0,120
1,note_on,90,84,0
1,note_on,90,0,120
1,note_on,89,84,0
1,note_on,89,0,120
1,note_on,88,83,0
1,note_on,88,0,120
1,note_on,87,83,0
1,note_on,87,0,120
1,note_on,86,82,0
1,note_on,86,0,120
1,note_on,85,81,0
1,note_on,85,0,120
1,note_on,84,81,0
1,note_on,84,0,120
1,note_on,83,80,0
1,note_on,83,0,120
1,note_on,82,80,0
1,note_on,82,0,120
1,note_on,81,79,0
1,note_on,81,0,120
1,note_on,80,79,0
1,note_on,80,0,120
1,note_on,79,78,0
1,note_on,79,0,120
1,note_on,78,77,0
1,note_on,78,0,120
1,note_on,77,77,0
1,note_on,77,0,120
1,note_on,76,77,0
1,note_on,76,0,120
1,note_on,75,77,0
1,note_on,75,0,120
1,note_on,74,77,0
1,note_on,74,0,120
1,note_on,73,77,0
1,note_on,73,0,120
1,note_on,72,77,0
1,note_on,72,0,120
1,note_on,71,77,0
1,note_on,71,0,120
1,note_on,70,77,0
1,note_on,70,0,120
1,note_on,69,80,0
1,note_on,69,0,120
1,note_on,68,83,0
1,note_on,68,0,120
1,note_on,67,85,0
1,note_on,67,0,120
1,note_on,66,87,0
1,note_on,66,0,120
1,note_on,64,89,0
1,note_on,64,0,120
1,note_on,63,92,0
1,note_on,63,0,120
1,note_on,61,94,0
1,note_on,61,0,120
1,note_on,56,96,0
1,note_on,56,0,120
1,note_on,93,90,360
1,note_on,93,0,120
1,note_on,92,81,0
1,note_on,92,0,120
1,note_on,100,77,0
1,note_on,100,0,120
1,note_on,88,77,0
1,note_on,88,0,120
1,note_on,90,90,0
1,note_on,90,0,120
1,note_on,88,77,0
1,note_on,88,0,120
1,note_on,97,77,0
1,note_on,97,0,120
1,note_on,85,77,0
1,note_on,85,0,120
1,note_on,87,89,0
1,note_on,87,0,120
1,note_on,85,77,0
1,note_on,85,0,120
1,note_on,92,77,0
1,note_on,92,0,120
1,note_on,80,77,0
1,note_on,80,0,120
1,note_on,81,89,0
1,note_on,81,0,120
1,note_on,80,77,0
1,note_on,80,0,120
1,note_on,88,77,0
1,note_on,88,0,120
1,note_on,76,77,0
1,note_on,76,0,120
1,note_on,78,88,0
1,note_on,78,0,120
1,note_on,76,77,0
1,note_on,76,0,120
1,note_on,85,77,0
1,note_on,85,0,120
1,note_on,73,77,0
1,note_on,73,0,120
1,note_on,75,89,0
1,note_on,75,0,120
1,note_on,73,77,0
1,note_on,73,0,120
1,note_on,80,77,0
1,note_on,80,0,120
1,note_on,68,77,0
1,note_on,68,0,120
1,note_on,69,90,0
1,note_on,69,0,120
1,note_on,68,77,0
1,note_on,68,0,120
1,note_on,76,77,0
1,note_on,76,0,120
1,note_on,64,77,0
1,note_on,64,0,120
1,note_on,66,88,0
1,note_on,66,0,120
1,note_on,64,77,0
1,note_on,64,0,120
1,note_on,73,77,0
1,note_on,73,0,120
1,note_on,61,77,0
1,note_on,61,0,120
1,note_on,63,89,0
1,note_on,63,0,120
1,note_on,61,77,0
1,note_on,61,0,120
1,note_on,68,77,0
1,note_on,68,0,120
1,note_on,56,77,0
1,note_on,56,0,120
1,note_on,63,89,0
1,note_on,63,0,120
1,note_on,61,77,0
1,note_on,61,0,120
1,note_on,68,77,0
1,note_on,68,0,120
1,note_on,56,77,0
1,note_on,56,0,120
1,note_on,63,89,0
1,note_on,63,0,120
1,note_on,61,77,0
1,note_on,61,0,120
1,note_on,69,77,0
1,note_on,69,0,120
1,note_on,57,77,0
1,note_on,57,0,120
1,note_on,63,89,0
1,note_on,63,0,120
1,note_on,61,75,0
1,note_on,61,0,120
1,note_on,68,74,0
1,note_on,68,0,120
1,note_on,56,73,0
1,note_on,56,0,120
1,note_on,63,83,0
1,note_on,63,0,120
1,note_on,61,71,0
1,note_on,61,0,120
1,note_on,67,71,0
1,note_on,67,0,120
1,note_on,55,70,0
1,note_on,55,0,120
1,note_on,63,79,0
1,note_on,63,0,120
1,note_on,61,68,0
1,note_on,61,0,120
1,note_on,68,67,0
1,note_on,68,0,120
1,note_on,56,66,0
1,note_on,56,0,120
1,note_on,63,75,0
1,note_on,63,0,120
1,note_on,60,63,0
1,note_on,60,0,120
1,note_on,68,63,0
1,note_on,68,0,120
1,note_on,56,62,0
1,note_on,56,0,120
1,note_on,63,73,0
1,note_on,63,0,120
1,note_on,61,65,0
1,note_on,61,0,120
1,note_on,68,65,0
1,note_on,68,0,120
1,note_on,56,65,0
1,note_on,56,0,120
1,note_on,69,69,0
1,note_on,69,0,120
1,note_on,68,65,0
1,note_on,68,0,120
1,note_on,76,83,0
1,note_on,76,0,120
1,note_on,64,64,0
1,note_on,64,0,120
1,note_on,69,70,0
1,note_on,69,0,120
1,note_on,68,66,0
1,note_on,68,0,120
1,note_on,76,83,0
1,note_on,76,0,120
1,note_on,64,60,0
1,note_on,64,0,120
1,note_on,69,68,0
1,note_on,69,0,120
1,note_on,68,62,0
1,note_on,68,0,120
1,note_on,75,79,0
1,note_on,75,0,120
1,note_on,63,71,0
1,note_on,63,0,120
1,note_on,69,68,0
1,note_on,69,0,120
1,note_on,68,66,0
1,note_on,68,0,120
1,note_on,75,83,0
1,note_on,75,0,120
1,note_on,64,60,0
1,note_on,64,0,120
1,note_on,69,68,0
1,note_on,69,0,120
1,note_on,68,62,0
1,note_on,68,0,120
1,note_on,73,79,0
1,note_on,73,0,120
1,note_on,61,71,0
1,note_on,61,0,120
1,note_on,64,54,0
1,note_on,64,0,120
1,note_on,63,49,0
1,note_on,63,0,120
1,note_on,68,62,0
1,note_on,68,0,120
1,note_on,56,45,0
1,note_on,56,0,120
1,note_on,64,51,0
1,note_on,64,0,120
1,note_on,63,46,0
1,note_on,63,0,120
1,note_on,68,59,0
1,note_on,68,0,120
1,note_on,56,53,0
1,note_on,56,0,120
1,note_on,63,54,0
1,note_on,63,0,120
1,note_on,61,49,0
1,note_on,61,0,120
1,note_on,68,62,0
1,note_on,68,0,120
1,note_on,56,45,0
1,note_on,56,0,120
1,note_on,69,67,0
1,note_on,69,0,120
1,note_on,68,65,0
1,note_on,68,0,120
1,note_on,76,83,0
1,note_on,76,0,120
1,note_on,64,64,0
1,note_on,64,0,120
1,note_on,69,68,0
1,note_on,69,0,120
1,note_on,68,66,0
1,note_on,68,0,120
1,note_on,76,83,0
1,note_on,76,0,120
1,note_on,64,60,0
1,note_on,64,0,120
1,note_on,69,65,0
1,note_on,69,0,120
1,note_on,68,62,0
1,note_on,68,0,120
1,note_on,75,79,0
1,note_on,75,0,120
1,note_on,63,66,0
1,note_on,63,0,120
1,note_on,69,66,0
1,note_on,69,0,120
1,note_on,68,66,0
1,note_on,68,0,120
1,note_on,75,83,0
1,note_on,75,0,120
1,note_on,64,60,0
1,note_on,64,0,120
1,note_on,69,67,0
1,note_on,69,0,120
1,note_on,68,62,0
1,note_on,68,0,120
1,note_on,73,79,0
1,note_on,73,0,120
1,note_on,61,71,0
1,note_on,61,0,120
1,note_on,64,54,0
1,note_on,64,0,120
1,note_on,63,49,0
1,note_on,63,0,120
1,note_on,68,62,0
1,note_on,68,0,120
1,note_on,56,45,0
1,note_on,56,0,120
1,note_on,64,51,0
1,note_on,64,0,120
1,note_on,63,46,0
1,note_on,63,0,120
1,note_on,68,59,0
1,note_on,68,0,120
1,note_on,56,53,0
1,note_on,56,0,120
1,note_on,63,54,0
1,note_on,63,0,120
1,note_on,61,49,0
1,note_on,61,0,120
1,note_on,68,62,0
1,note_on,68,0,120
1,note_on,56,45,0
1,note_on,56,0,120
1,note_on,69,55,0
1,note_on,69,0,120
1,note_on,68,48,0
1,note_on,68,0,120
1,note_on,76,62,0
1,note_on,76,0,120
1,note_on,64,48,0
1,note_on,64,0,120
1,note_on,66,54,0
1,note_on,66,0,120
1,note_on,64,49,0
1,note_on,64,0,120
1,note_on,73,62,0
1,note_on,73,0,120
1,note_on,61,45,0
1,note_on,61,0,120
1,note_on,69,51,0
1,note_on,69,0,120
1,note_on,68,46,0
1,note_on,68,0,120
1,note_on,76,59,0
1,note_on,76,0,120
1,note_on,64,53,0
1,note_on,64,0,120
1,note_on,63,54,0
1,note_on,63,0,120
1,note_on,61,49,0
1,note_on,61,0,120
1,note_on,68,62,0
1,note_on,68,0,120
1,note_on,56,45,0
1,note_on,56,0,120
1,note_on,69,55,0
1,note_on,69,0,120
1,note_on,68,48,0
1,note_on,68,0,120
1,note_on,76,62,0
1,note_on,76,0,120
1,note_on,64,48,0
1,note_on,64,0,120
1,note_on,66,54,0
1,note_on,66,0,120
1,note_on,64,49,0
1,note_on,64,0,120
1,note_on,73,62,0
1,note_on,73,0,120
1,note_on,61,45,0
1,note_on,61,0,120
1,note_on,69,51,0
1,note_on,69,0,120
1,note_on,68,46,0
1,note_on,68,0,120
1,note_on,76,59,0
1,note_on,76,0,120
1,note_on,64,53,0
1,note_on,64,0,120
1,note_on,66,54,0
1,note_on,66,0,120
1,note_on,64,49,0
1,note_on,64,0,120
1,note_on,73,61,0
1,note_on,73,0,120
1,note_on,61,44,0
1,note_on,61,0,120
1,note_on,69,53,0
1,note_on,69,0,120
1,note_on,68,46,0
1,note_on,68,0,120
1,note_on,73,60,0
1,note_on,73,0,120
1,note_on,61,46,0
1,note_on,61,0,120
1,note_on,66,51,0
1,note_on,66,0,120
1,note_on,64,46,0
1,note_on,64,0,120
1,note_on,73,58,0
1,note_on,73,0,120
1,note_on,61,42,0
1,note_on,61,0,120
1,note_on,69,47,0
1,note_on,69,0,120
1,note_on,68,42,0
1,note_on,68,0,120
1,note_on,73,54,0
1,note_on,73,0,120
1,note_on,61,48,0
1,note_on,61,0,120
1,note_on,66,48,0
1,note_on,66,0,120
1,note_on,64,44,0
1,note_on,64,0,120
1,note_on,73,55,0
1,note_on,73,0,120
1,note_on,61,40,0
1,note_on,61,0,120
1,note_on,69,48,0
1,note_on,69,0,120
1,note_on,68,41,0
1,note_on,68,0,120
1,note_on,73,53,0
1,note_on,73,0,120
1,note_on,61,41,0
1,note_on,61,0,120
1,note_on,66,45,0
1,note_on,66,0,120
1,note_on,64,41,0
1,note_on,64,0,120
1,note_on,73,52,0
1,note_on,73,0,120
1,note_on,61,37,0
1,note_on,61,0,120
1,note_on,69,42,0
1,note_on,69,0,120
1,note_on,68,37,0
1,note_on,68,0,120
1,note_on,73,48,0
1,note_on,73,0,120
1,note_on,61,42,0
1,note_on,61,0,120
1,note_on,63,43,0
1,note_on,63,0,120
1,note_on,61,39,0
1,note_on,61,0,120
1,note_on,68,49,0
1,note_on,68,0,120
1,note_on,56,36,0
1,note_on,56,0,120
1,note_on,63,44,0
1,note_on,63,0,120
1,note_on,61,38,0
1,note_on,61,0,120
1,note_on,68,49,0
1,note_on,68,0,120
1,note_on,56,38,0
1,note_on,56,0,120
1,note_on,63,43,0
1,note_on,63,0,120
1,note_on,61,39,0
1,note_on,61,0,120
1,note_on,68,49,0
1,note_on,68,0,120
1,note_on,56,36,0
1,note_on,56,0,120
1,note_on,63,40,0
1,note_on,63,0,120
1,note_on,61,36,0
1,note_on,61,0,120
1,note_on,68,47,0
1,note_on,68,0,120
1,note_on,56,42,0
1,note_on,56,0,120
1,note_on,63,43,0
1,note_on,63,0,120
1,note_on,61,39,0
1,note_on,61,0,120
1,note_on,68,48,0
1,note_on,68,0,120
1,note_on,56,35,0
1,note_on,56,0,120
1,note_on,63,42,0
1,note_on,63,0,120
1,note_on,61,36,0
1,note_on,61,0,120
1,note_on,68,46,0
1,note_on,68,0,120
1,note_on,56,35,0
1,note_on,56,0,120
1,note_on,63,39,0
1,note_on,63,0,120
1,note_on,61,35,0
1,note_on,61,0,120
1,note_on,68,44,0
1,note_on,68,0,120
1,note_on,56,32,0
1,note_on,56,0,120
1,note_on,63,35,0
1,note_on,63,0,120
1,note_on,61,31,0
1,note_on,61,0,120
1,note_on,68,40,0
1,note_on,68,0,120
1,note_on,56,36,0
1,note_on,56,0,120
1,note_on,63,36,0
1,note_on,63,0,120
1,note_on,61,33,0
1,note_on,61,0,120
1,note_on,68,41,0
1,note_on,68,0,120
1,note_on,56,30,0
1,note_on,56,0,120
1,note_on,63,37,0
1,note_on,63,0,120
1,note_on,61,32,0
1,note_on,61,0,120
1,note_on,68,41,0
1,note_on,68,0,120
1,note_on,56,32,0
1,note_on,56,0,120
1,note_on,63,36,0
1,note_on,63,0,120
1,note_on,61,33,0
1,note_on,61,0,120
1,note_on,68,41,0
1,note_on,68,0,120
1,note_on,56,30,0
1,note_on,56,0,120
1,note_on,63,34,0
1,note_on,63,0,120
1,note_on,61,30,0
1,note_on,61,0,120
1,note_on,68,39,0
1,note_on,68,0,120
1,note_on,56,35,0
1,note_on,56,0,120
1,note_on,63,36,0
1,note_on,63,0,120
1,note_on,61,33,0
1,note_on,61,0,120
1,note_on,68,41,0
1,note_on,68,0,120
1,note_on,56,30,0
1,note_on,56,0,120
1,note_on,63,37,0
1,note_on,63,0,120
1,note_on,61,32,0
1,note_on,61,0,120
1,note_on,68,41,0
1,note_on,68,0,120
1,note_on,56,32,0
1,note_on,56,0,120
1,note_on,63,36,0
1,note_on,63,0,120
1,note_on,61,33,0
1,note_on,61,0,120
1,note_on,68,41,0
1,note_on,68,0,120
1,note_on,56,30,0
1,note_on,56,0,120
1,note_on,63,34,0
1,note_on,63,0,120
1,note_on,61,30,0
1,note_on,61,0,120
1,note_on,68,39,0
1,note_on,68,0,120
1,note_on,56,35,0
1,note_on,56,0,120
1,note_on,63,36,0
1,note_on,63,0,120
1,note_on,61,33,0
1,note_on,61,0,120
1,note_on,68,41,0
1,note_on,68,0,120
1,note_on,56,30,0
1,note_on,56,0,120
1,note_on,63,37,0
1,note_on,63,0,120
1,note_on,61,32,0
1,note_on,61,0,120
1,note_on,68,41,0
1,note_on,68,0,120
1,note_on,56,32,0
1,note_on,56,0,120
1,note_on,63,36,0
1,note_on,63,0,120
1,note_on,61,33,0
1,note_on,61,0,120
1,note_on,68,41,0
1,note_on,68,0,120
1,note_on,56,30,0
1,note_on,56,0,120
1,note_on,63,34,0
1,note_on,63,0,120
1,note_on,61,30,0
1,note_on,61,0,120
1,note_on,68,39,0
1,note_on,68,0,120
1,note_on,56,35,0
1,note_on,56,0,120
1,note_on,63,36,0
1,note_on,63,0,120
1,note_on,61,33,0
1,note_on,61,0,120
1,note_on,68,41,0
1,note_on,68,0,120
1,note_on,56,30,0
1,note_on,56,0,120
1,note_on,63,37,0
1,note_on,63,0,120
1,note_on,61,32,0
1,note_on,61,0,120
1,note_on,68,41,0
1,note_on,68,0,120
1,note_on,56,32,0
1,note_on,56,0,120
1,note_on,63,36,0
1,note_on,63,0,120
1,note_on,61,33,0
1,note_on,61,0,120
1,note_on,68,41,0
1,note_on,68,0,120
1,note_on,56,30,0
1,note_on,56,0,120
1,note_on,63,34,0
1,note_on,63,0,120
1,note_on,61,30,0
1,note_on,61,0,120
1,note_on,68,39,0
1,note_on,68,0,120
1,note_on,56,35,0
1,note_on,56,0,120
1,note_on,63,36,0
1,note_on,63,0,120
1,note_on,61,33,0
1,note_on,61,0,120
1,note_on,68,41,0
1,note_on,68,0,120
1,note_on,56,30,0
1,note_on,56,0,120
1,note_on,63,37,0
1,note_on,63,0,120
1,note_on,61,32,0
1,note_on,61,0,120
1,note_on,68,41,0
1,note_on,68,0,120
1,note_on,56,32,0
1,note_on,56,0,120
1,note_on,63,36,0
1,note_on,63,0,120
1,note_on,61,33,0
1,note_on,61,0,120
1,note_on,68,41,0
1,note_on,68,0,120
1,note_on,56,30,0
1,note_on,56,0,120
1,note_on,63,34,0
1,note_on,63,0,120
1,note_on,61,30,0
1,note_on,61,0,120
1,note_on,68,39,0
1,note_on,68,0,120
1,note_on,56,35,0
1,note_on,56,0,120
1,note_on,63,36,0
1,note_on,63,0,120
1,note_on,61,33,0
1,note_on,61,0,120
1,note_on,68,41,0
1,note_on,68,0,120
1,note_on,56,30,0
1,note_on,56,0,120
1,note_on,63,37,0
1,note_on,63,0,120
1,note_on,61,32,0
1,note_on,61,0,120
1,note_on,68,41,0
1,note_on,68,0,120
1,note_on,56,32,0
1,note_on,56,0,120
1,note_on,63,36,0
1,note_on,63,0,120
1,note_on,61,33,0
1,note_on,61,0,120
1,note_on,68,41,0
1,note_on,68,0,120
1,note_on,56,30,0
1,note_on,56,0,120
1,note_on,63,34,0
1,note_on,63,0,120
1,note_on,61,30,0
1,note_on,61,0,120
1,note_on,68,39,0
1,note_on,68,0,120
1,note_on,56,35,0
1,note_on,56,0,120
1,note_on,63,36,0
1,note_on,63,0,120
1,note_on,61,29,0
1,note_on,61,0,120
1,note_on,68,35,0
1,note_on,68,0,120
1,note_on,53,37,0
1,note_on,53,0,120
1,note_on,63,44,0
1,note_on,63,0,120
1,note_on,61,28,0
1,note_on,61,0,120
1,note_on,68,36,0
1,note_on,68,0,120
1,note_on,53,37,0
1,note_on,53,0,120
1,note_on,63,43,0
1,note_on,63,0,120
1,note_on,61,29,0
1,note_on,61,0,120
1,note_on,68,37,0
1,note_on,68,0,120
1,note_on,53,37,0
1,note_on,53,0,120
1,note_on,63,45,0
1,note_on,63,0,120
1,note_on,61,27,0
1,note_on,61,0,120
1,note_on,68,36,0
1,note_on,68,0,120
1,note_on,53,31,0
1,note_on,53,0,120
1,note_on,65,32,0
1,note_on,65,0,120
1,note_on,63,29,6
1,note_on,68,35,114
1,note_on,63,0,6
1,note_on,68,0,114
1,note_on,54,38,0
1,note_on,54,0,120
1,note_on,65,44,0
1,note_on,65,0,120
1,note_on,63,28,0
1,note_on,63,0,120
1,note_on,68,35,0
1,note_on,68,0,120
1,note_on,54,38,0
1,note_on,54,0,120
1,note_on,65,42,6
1,note_on,65,0,120
1,note_on,63,29,0
1,note_on,68,37,114
1,note_on,63,0,6
1,note_on,68,0,114
1,note_on,54,37,0
1,note_on,54,0,120
1,note_on,65,40,0
1,note_on,65,0,120
1,note_on,63,27,0
1,note_on,63,0,120
1,note_on,68,35,0
1,note_on,68,0,120
1,note_on,54,38,0
1,note_on,54,0,120
1,note_on,54,38,120
1,note_on,56,40,60
1,note_on,60,43,60
1,note_on,63,48,120
1,note_on,63,0,1560
1,note_on,60,0,0
1,note_on,54,0,0
1,note_on,53,35,120
1,note_on,61,42,60
1,note_on,61,0,1740
1,note_on,53,0,0
1,note_on,56,0,0
2,note_on,44,79,0
2,note_on,56,79,0
2,note_on,56,0,3600
2,note_on,44,0,0
2,note_on,37,75,0
2,note_on,49,75,0
2,note_on,49,0,61
2,note_on,37,0,0
2,note_on,56,60,0
2,note_on,56,0,160
2,note_on,61,64,0
2,note_on,61,0,160
2,note_on,64,65,0
2,note_on,64,0,160
2,note_on,61,62,0
2,note_on,61,0,160
2,note_on,56,61,0
2,note_on,56,0,160
2,note_on,49,57,0
2,note_on,49,0,160
2,note_on,56,58,0
2,note_on,56,0,160
2,note_on,61,60,0
2,note_on,61,0,160
2,note_on,64,60,0
2,note_on,64,0,160
2,note_on,61,58,0
2,note_on,61,0,160
2,note_on,56,57,0
2,note_on,56,0,160
2,note_on,49,53,0
2,note_on,49,0,160
2,note_on,56,54,0
2,note_on,56,0,160
2,note_on,61,55,0
2,note_on,61,0,160
2,note_on,64,54,0
2,note_on,64,0,160
2,note_on,61,52,0
2,note_on,61,0,160
2,note_on,56,50,0
2,note_on,56,0,160
2,note_on,49,45,0
2,note_on,49,0,160
2,note_on,56,47,0
2,note_on,56,0,160
2,note_on,61,49,0
2,note_on,61,0,160
2,note_on,64,46,0
2,note_on,64,0,160
2,note_on,61,43,0
2,note_on,61,0,160
2,note_on,56,38,0
2,note_on,56,0,160
2,note_on,49,22,0
2,note_on,49,0,97
2,note_on,56,25,0
2,note_on,56,0,160
2,note_on,61,28,0
2,note_on,61,0,160
2,note_on,64,30,0
2,note_on,64,0,160
2,note_on,61,28,0
2,note_on,61,0,160
2,note_on,56,27,0
2,note_on,56,0,160
2,note_on,52,26,0
2,note_on,52,0,145
2,note_on,56,28,0
2,note_on,56,0,160
2,note_on,61,30,0
2,note_on,61,0,160
2,note_on,64,31,0
2,note_on,64,0,160
2,note_on,61,28,0
2,note_on,61,0,160
2,note_on,56,27,0
2,note_on,56,0,160
2,note_on,49,27,0
2,note_on,49,0,97
2,note_on,56,30,0
2,note_on,56,0,160
2,note_on,61,34,0
2,note_on,61,0,160
2,note_on,64,36,0
2,note_on,64,0,160
2,note_on,61,34,0
2,note_on,61,0,160
2,note_on,56,33,0
2,note_on,56,0,160
2,note_on,52,31,0
2,note_on,52,0,143
2,note_on,56,33,0
2,note_on,56,0,160
2,note_on,61,36,0
2,note_on,61,0,160
2,note_on,64,37,0
2,note_on,64,0,160
2,note_on,61,34,0
2,note_on,61,0,160
2,note_on,56,32,0
2,note_on,56,0,160
2,note_on,51,31,0
2,note_on,51,0,97
2,note_on,57,35,0
2,note_on,57,0,160
2,note_on,61,39,0
2,note_on,61,0,160
2,note_on,66,45,0
2,note_on,66,0,160
2,note_on,61,39,0
2,note_on,61,0,160
2,note_on,57,37,0
2,note_on,57,0,160
2,note_on,54,37,0
2,note_on,54,0,160
2,note_on,61,40,0
2,note_on,61,0,160
2,note_on,63,44,0
2,note_on,63,0,160
2,note_on,69,46,0
2,note_on,69,0,160
2,note_on,63,44,0
2,note_on,63,0,160
2,note_on,61,41,0
2,note_on,61,0,160
2,note_on,44,33,0
2,note_on,44,0,97
2,note_on,51,35,0
2,note_on,51,0,160
2,note_on,54,38,0
2,note_on,54,0,160
2,note_on,60,39,0
2,note_on,60,0,160
2,note_on,54,36,0
2,note_on,54,0,160
2,note_on,51,34,0
2,note_on,51,0,160
2,note_on,44,29,0
2,note_on,44,0,160
2,note_on,51,31,0
2,note_on,51,0,160
2,note_on,54,33,0
2,note_on,54,0,160
2,note_on,60,33,0
2,note_on,60,0,160
2,note_on,54,29,0
2,note_on,54,0,160
2,note_on,51,26,0
2,note_on,51,0,160
2,note_on,49,22,0
2,note_on,49,0,97
2,note_on,56,25,0
2,note_on,56,0,160
2,note_on,61,28,0
2,note_on,61,0,160
2,note_on,64,30,0
2,note_on,64,0,160
2,note_on,61,28,0
2,note_on,61,0,160
2,note_on,56,27,0
2,note_on,56,0,160
2,note_on,52,26,0
2,note_on,52,0,143
2,note_on,56,28,0
2,note_on,56,0,160
2,note_on,61,30,0
2,note_on,61,0,160
2,note_on,64,31,0
2,note_on,64,0,160
2,note_on,61,28,0
2,note_on,61,0,160
2,note_on,56,27,0
2,note_on,56,0,160
2,note_on,49,27,0
2,note_on,49,0,97
2,note_on,56,30,0
2,note_on,56,0,160
2,note_on,58,34,0
2,note_on,58,0,160
2,note_on,64,36,0
2,note_on,64,0,160
2,note_on,58,34,0
2,note_on,58,0,160
2,note_on,56,33,0
2,note_on,56,0,160
2,note_on,52,31,0
2,note_on,52,0,145
2,note_on,56,33,0
2,note_on,56,0,160
2,note_on,58,36,0
2,note_on,58,0,160
2,note_on,61,37,0
2,note_on,61,0,160
2,note_on,58,34,0
2,note_on,58,0,160
2,note_on,56,32,0
2,note_on,56,0,160
2,note_on,51,30,0
2,note_on,51,0,97
2,note_on,56,34,0
2,note_on,56,0,160
2,note_on,59,37,0
2,note_on,59,0,160
2,note_on,63,39,0
2,note_on,63,0,160
2,note_on,59,38,0
2,note_on,59,0,160
2,note_on,56,35,0
2,note_on,56,0,160
2,note_on,51,38,0
2,note_on,51,0,63
2,note_on,58,41,0
2,note_on,58,0,160
2,note_on,61,45,0
2,note_on,61,0,160
2,note_on,67,46,0
2,note_on,67,0,160
2,note_on,61,44,0
2,note_on,61,0,160
2,note_on,58,41,0
2,note_on,58,0,160
2,note_on,44,33,0
2,note_on,44,0,97
2,note_on,51,35,0
2,note_on,51,0,160
2,note_on,56,37,0
2,note_on,56,0,160
2,note_on,59,39,0
2,note_on,59,0,160
2,note_on,56,39,0
2,note_on,56,0,160
2,note_on,51,37,0
2,note_on,51,0,160
2,note_on,44,33,0
2,note_on,44,0,160
2,note_on,51,35,0
2,note_on,51,0,160
2,note_on,56,38,0
2,note_on,56,0,160
2,note_on,59,39,0
2,note_on,59,0,160
2,note_on,56,35,0
2,note_on,56,0,160
2,note_on,51,33,0
2,note_on,51,0,160
2,note_on,45,39,0
2,note_on,45,0,108
2,note_on,49,41,0
2,note_on,49,0,160
2,note_on,54,43,0
2,note_on,54,0,160
2,note_on,57,45,0
2,note_on,57,0,160
2,note_on,54,44,0
2,note_on,54,0,160
2,note_on,49,42,0
2,note_on,49,0,160
2,note_on,45,42,0
2,note_on,45,0,160
2,note_on,49,44,0
2,note_on,49,0,160
2,note_on,54,45,0
2,note_on,54,0,160
2,note_on,57,45,0
2,note_on,57,0,160
2,note_on,54,45,0
2,note_on,54,0,160
2,note_on,49,44,0
2,note_on,49,0,160
2,note_on,47,44,0
2,note_on,47,0,69
2,note_on,54,46,0
2,note_on,54,0,160
2,note_on,57,48,0
2,note_on,57,0,160
2,note_on,59,49,0
2,note_on,59,0,160
2,note_on,57,47,0
2,note_on,57,0,160
2,note_on,54,45,0
2,note_on,54,0,160
2,note_on,40,45,0
2,note_on,40,0,68
2,note_on,47,46,0
2,note_on,47,0,160
2,note_on,52,48,0
2,note_on,52,0,160
2,note_on,56,47,0
2,note_on,56,0,160
2,note_on,52,46,0
2,note_on,52,0,160
2,note_on,47,45,0
2,note_on,47,0,160
2,note_on,45,44,0
2,note_on,45,0,91
2,note_on,49,46,0
2,note_on,49,0,160
2,note_on,54,48,0
2,note_on,54,0,160
2,note_on,57,49,0
2,note_on,57,0,160
2,note_on,54,47,0
2,note_on,54,0,160
2,note_on,49,45,0
2,note_on,49,0,160
2,note_on,45,45,0
2,note_on,45,0,160
2,note_on,49,46,0
2,note_on,49,0,160
2,note_on,54,48,0
2,note_on,54,0,160
2,note_on,57,47,0
2,note_on,57,0,160
2,note_on,54,46,0
2,note_on,54,0,160
2,note_on,49,45,0
2,note_on,49,0,160
2,note_on,47,44,0
2,note_on,47,0,69
2,note_on,51,46,0
2,note_on,51,0,160
2,note_on,57,48,0
2,note_on,57,0,160
2,note_on,59,49,0
2,note_on,59,0,160
2,note_on,57,47,0
2,note_on,57,0,160
2,note_on,51,45,0
2,note_on,51,0,160
2,note_on,40,45,0
2,note_on,40,0,68
2,note_on,47,46,0
2,note_on,47,0,160
2,note_on,52,48,0
2,note_on,52,0,160
2,note_on,56,47,0
2,note_on,56,0,160
2,note_on,52,46,0
2,note_on,52,0,160
2,note_on,47,45,0
2,note_on,47,0,160
2,note_on,45,30,0
2,note_on,45,0,69
2,note_on,49,33,0
2,note_on,49,0,160
2,note_on,54,34,0
2,note_on,54,0,160
2,note_on,57,35,0
2,note_on,57,0,160
2,note_on,54,34,0
2,note_on,54,0,160
2,note_on,49,34,0
2,note_on,49,0,160
2,note_on,45,34,0
2,note_on,45,0,160
2,note_on,49,34,0
2,note_on,49,0,160
2,note_on,54,36,0
2,note_on,54,0,160
2,note_on,57,36,0
2,note_on,57,0,160
2,note_on,54,35,0
2,note_on,54,0,160
2,note_on,49,34,0
2,note_on,49,0,160
2,note_on,47,34,0
2,note_on,47,0,69
2,note_on,54,37,0
2,note_on,54,0,160
2,note_on,57,38,0
2,note_on,57,0,160
2,note_on,59,39,0
2,note_on,59,0,160
2,note_on,57,38,0
2,note_on,57,0,160
2,note_on,54,38,0
2,note_on,54,0,160
2,note_on,40,37,0
2,note_on,40,0,68
2,note_on,47,39,0
2,note_on,47,0,160
2,note_on,52,40,0
2,note_on,52,0,160
2,note_on,56,40,0
2,note_on,56,0,160
2,note_on,52,40,0
2,note_on,52,0,160
2,note_on,47,39,0
2,note_on,47,0,160
2,note_on,45,39,0
2,note_on,45,0,69
2,note_on,49,42,0
2,note_on,49,0,160
2,note_on,54,43,0
2,note_on,54,0,160
2,note_on,57,45,0
2,note_on,57,0,160
2,note_on,54,43,0
2,note_on,54,0,160
2,note_on,49,42,0
2,note_on,49,0,160
2,note_on,45,42,0
2,note_on,45,0,68
2,note_on,51,44,0
2,note_on,51,0,160
2,note_on,54,45,0
2,note_on,54,0,160
2,note_on,57,44,0
2,note_on,57,0,160
2,note_on,54,44,0
2,note_on,54,0,160
2,note_on,51,42,0
2,note_on,51,0,160
2,note_on,44,42,0
2,note_on,44,0,68
2,note_on,51,44,0
2,note_on,51,0,160
2,note_on,54,45,0
2,note_on,54,0,160
2,note_on,60,42,0
2,note_on,60,0,103
2,note_on,54,42,0
2,note_on,54,0,160
2,note_on,51,40,0
2,note_on,51,0,160
2,note_on,44,39,0
2,note_on,44,0,160
2,note_on,51,41,0
2,note_on,51,0,160
2,note_on,54,42,0
2,note_on,54,0,160
2,note_on,60,40,0
2,note_on,60,0,160
2,note_on,54,39,0
2,note_on,54,0,160
2,note_on,51,38,0
2,note_on,51,0,160
2,note_on,45,38,0
2,note_on,45,0,68
2,note_on,51,39,0
2,note_on,51,0,160
2,note_on,54,40,0
2,note_on,54,0,160
2,note_on,59,38,0
2,note_on,59,0,103
2,note_on,54,38,0
2,note_on,54,0,160
2,note_on,51,36,0
2,note_on,51,0,160
2,note_on,46,35,0
2,note_on,46,0,103
2,note_on,51,37,0
2,note_on,51,0,160
2,note_on,54,38,0
2,note_on,54,0,160
2,note_on,58,36,0
2,note_on,58,0,101
2,note_on,54,35,0
2,note_on,54,0,160
2,note_on,51,34,0
2,note_on,51,0,160
2,note_on,48,34,0
2,note_on,48,0,91
2,note_on,51,34,0
2,note_on,51,0,160
2,note_on,54,35,0
2,note_on,54,0,160
2,note_on,57,34,0
2,note_on,57,0,103
2,note_on,54,34,0
2,note_on,54,0,160
2,note_on,51,32,0
2,note_on,51,0,160
2,note_on,48,31,0
2,note_on,48,0,160
2,note_on,51,33,0
2,note_on,51,0,160
2,note_on,54,33,0
2,note_on,54,0,160
2,note_on,57,31,0
2,note_on,57,0,160
2,note_on,54,31,0
2,note_on,54,0,160
2,note_on,51,29,0
2,note_on,51,0,160
2,note_on,45,28,0
2,note_on,45,0,68
2,note_on,51,29,0
2,note_on,51,0,160
2,note_on,54,29,0
2,note_on,54,0,160
2,note_on,59,31,0
2,note_on,59,0,103
2,note_on,54,29,0
2,note_on,54,0,160
2,note_on,51,28,0
2,note_on,51,0,160
2,note_on,46,25,0
2,note_on,46,0,103
2,note_on,51,26,0
2,note_on,51,0,160
2,note_on,54,27,0
2,note_on,54,0,160
2,note_on,58,28,0
2,note_on,58,0,68
2,note_on,54,27,0
2,note_on,54,0,160
2,note_on,51,25,0
2,note_on,51,0,160
2,note_on,47,24,0
2,note_on,47,0,97
2,note_on,51,26,0
2,note_on,51,0,160
2,note_on,54,27,0
2,note_on,54,0,160
2,note_on,57,28,0
2,note_on,57,0,103
2,note_on,54,27,0
2,note_on,54,0,160
2,note_on,51,25,0
2,note_on,51,0,160
2,note_on,48,22,0
2,note_on,48,0,103
2,note_on,51,23,0
2,note_on,51,0,160
2,note_on,54,24,0
2,note_on,54,0,160
2,note_on,56,24,0
2,note_on,56,0,74
2,note_on,54,23,0
2,note_on,54,0,160
2,note_on,51,22,0
2,note_on,51,0,160
2,note_on,49,22,0
2,note_on,49,0,97
2,note_on,56,25,0
2,note_on,56,0,160
2,note_on,61,28,0
2,note_on,61,0,160
2,note_on,64,30,0
2,note_on,64,0,160
2,note_on,61,28,0
2,note_on,61,0,160
2,note_on,56,27,0
2,note_on,56,0,160
2,note_on,52,26,0
2,note_on,52,0,143
2,note_on,56,28,0
2,note_on,56,0,160
2,note_on,61,30,0
2,note_on,61,0,160
2,note_on,64,31,0
2,note_on,64,0,160
2,note_on,61,28,0
2,note_on,61,0,160
2,note_on,56,27,0
2,note_on,56,0,160
2,note_on,49,27,0
2,note_on,49,0,97
2,note_on,56,30,0
2,note_on,56,0,160
2,note_on,61,34,0
2,note_on,61,0,160
2,note_on,64,36,0
2,note_on,64,0,160
2,note_on,61,34,0
2,note_on,61,0,160
2,note_on,56,33,0
2,note_on,56,0,160
2,note_on,52,31,0
2,note_on,52,0,143
2,note_on,56,33,0
2,note_on,56,0,160
2,note_on,61,36,0
2,note_on,61,0,160
2,note_on,64,37,0
2,note_on,64,0,160
2,note_on,61,34,0
2,note_on,61,0,160
2,note_on,56,32,0
2,note_on,56,0,160
2,note_on,51,31,0
2,note_on,51,0,97
2,note_on,57,35,0
2,note_on,57,0,160
2,note_on,61,39,0
2,note_on,61,0,160
2,note_on,66,45,0
2,note_on,66,0,160
2,note_on,61,39,0
2,note_on,61,0,160
2,note_on,57,37,0
2,note_on,57,0,160
2,note_on,54,37,0
2,note_on,54,0,160
2,note_on,61,40,0
2,note_on,61,0,160
2,note_on,63,44,0
2,note_on,63,0,160
2,note_on,69,46,0
2,note_on,69,0,160
2,note_on,63,44,0
2,note_on,63,0,160
2,note_on,61,41,0
2,note_on,61,0,160
2,note_on,44,33,0
2,note_on,44,0,97
2,note_on,51,36,0
2,note_on,51,0,160
2,note_on,54,39,0
2,note_on,54,0,160
2,note_on,60,41,0
2,note_on,60,0,160
2,note_on,54,39,0
2,note_on,54,0,160
2,note_on,51,37,0
2,note_on,51,0,160
2,note_on,44,33,0
2,note_on,44,0,160
2,note_on,51,35,0
2,note_on,51,0,160
2,note_on,54,38,0
2,note_on,54,0,160
2,note_on,60,39,0
2,note_on,60,0,160
2,note_on,54,35,0
2,note_on,54,0,160
2,note_on,51,33,0
2,note_on,51,0,160
2,note_on,49,28,0
2,note_on,49,0,97
2,note_on,56,32,0
2,note_on,56,0,160
2,note_on,61,34,0
2,note_on,61,0,160
2,note_on,64,37,0
2,note_on,64,0,160
2,note_on,61,35,0
2,note_on,61,0,160
2,note_on,56,33,0
2,note_on,56,0,160
2,note_on,52,31,0
2,note_on,52,0,80
2,note_on,56,33,0
2,note_on,56,0,160
2,note_on,61,35,0
2,note_on,61,0,160
2,note_on,64,36,0
2,note_on,64,0,160
2,note_on,61,33,0
2,note_on,61,0,160
2,note_on,56,31,0
2,note_on,56,0,160
2,note_on,54,28,0
2,note_on,54,0,97
2,note_on,61,33,0
2,note_on,61,0,160
2,note_on,63,35,0
2,note_on,63,0,160
2,note_on,69,38,0
2,note_on,69,0,160
2,note_on,63,36,0
2,note_on,63,0,160
2,note_on,61,34,0
2,note_on,61,0,160
2,note_on,56,32,0
2,note_on,56,0,80
2,note_on,61,34,0
2,note_on,61,0,160
2,note_on,65,37,0
2,note_on,65,0,160
2,note_on,71,39,0
2,note_on,71,0,160
2,note_on,65,34,0
2,note_on,65,0,160
2,note_on,61,33,0
2,note_on,61,0,160
2,note_on,57,30,0
2,note_on,57,0,97
2,note_on,61,34,0
2,note_on,61,0,160
2,note_on,66,37,0
2,note_on,66,0,160
2,note_on,69,40,0
2,note_on,69,0,160
2,note_on,66,39,0
2,note_on,66,0,160
2,note_on,61,35,0
2,note_on,61,0,160
2,note_on,56,34,0
2,note_on,56,0,80
2,note_on,61,36,0
2,note_on,61,0,160
2,note_on,65,39,0
2,note_on,65,0,160
2,note_on,71,40,0
2,note_on,71,0,160
2,note_on,65,37,0
2,note_on,65,0,160
2,note_on,61,34,0
2,note_on,61,0,160
2,note_on,57,32,0
2,note_on,57,0,97
2,note_on,61,36,0
2,note_on,61,0,160
2,note_on,66,39,0
2,note_on,66,0,160
2,note_on,69,42,0
2,note_on,69,0,160
2,note_on,66,40,0
2,note_on,66,0,160
2,note_on,61,38,0
2,note_on,61,0,160
2,note_on,48,36,0
2,note_on,48,0,80
2,note_on,54,38,0
2,note_on,54,0,160
2,note_on,56,41,0
2,note_on,56,0,160
2,note_on,63,42,0
2,note_on,63,0,160
2,note_on,56,39,0
2,note_on,56,0,160
2,note_on,54,37,0
2,note_on,54,0,160
2,note_on,49,35,0
2,note_on,49,0,97
2,note_on,56,39,0
2,note_on,56,0,160
2,note_on,61,43,0
2,note_on,61,0,160
2,note_on,64,45,0
2,note_on,64,0,160
2,note_on,61,44,0
2,note_on,61,0,160
2,note_on,56,42,0
2,note_on,56,0,160
2,note_on,51,44,0
2,note_on,51,0,68
2,note_on,56,41,0
2,note_on,56,0,160
2,note_on,60,45,0
2,note_on,60,0,160
2,note_on,66,46,0
2,note_on,66,0,160
2,note_on,60,44,0
2,note_on,60,0,160
2,note_on,56,41,0
2,note_on,56,0,160
2,note_on,52,35,0
2,note_on,52,0,97
2,note_on,56,39,0
2,note_on,56,0,160
2,note_on,61,43,0
2,note_on,61,0,160
2,note_on,64,45,0
2,note_on,64,0,160
2,note_on,61,44,0
2,note_on,61,0,160
2,note_on,56,42,0
2,note_on,56,0,160
2,note_on,54,44,0
2,note_on,54,0,63
2,note_on,61,41,0
2,note_on,61,0,160
2,note_on,63,45,0
2,note_on,63,0,160
2,note_on,69,46,0
2,note_on,69,0,160
2,note_on,63,48,0
2,note_on,63,0,160
2,note_on,61,51,0
2,note_on,61,0,160
2,note_on,68,71,0
2,note_on,64,71,0
2,note_on,61,71,0
2,note_on,56,71,0
2,note_on,56,0,240
2,note_on,68,0,0
2,note_on,64,0,0
2,note_on,61,0,0
2,note_on,69,71,720
2,note_on,64,71,0
2,note_on,61,71,0
2,note_on,55,71,0
2,note_on,55,0,469
2,note_on,69,0,0
2,note_on,64,0,0
2,note_on,61,0,0
2,note_on,32,78,903
2,note_on,44,78,0
2,note_on,44,0,113
2,note_on,32,0,0
2,note_on,76,75,332
2,note_on,64,75,0
2,note_on,64,0,480
2,note_on,76,0,0
2,note_on,61,78,0
2,note_on,73,78,0
2,note_on,73,0,480
2,note_on,61,0,0
2,note_on,56,78,0
2,note_on,68,78,0
2,note_on,68,0,480
2,note_on,56,0,0
2,note_on,52,78,0
2,note_on,64,78,0
2,note_on,64,0,480
2,note_on,52,0,0
2,note_on,49,74,0
2,note_on,61,74,0
2,note_on,61,0,480
2,note_on,49,0,0
2,note_on,44,78,0
2,note_on,56,78,0
2,note_on,56,0,480
2,note_on,44,0,0
2,note_on,40,74,0
2,note_on,52,74,0
2,note_on,52,0,480
2,note_on,40,0,0
2,note_on,37,78,0
2,note_on,49,78,0
2,note_on,49,0,409
2,note_on,37,0,0
2,note_on,32,73,0
2,note_on,44,73,0
2,note_on,44,0,480
2,note_on,32,0,0
2,note_on,32,78,0
2,note_on,44,78,0
2,note_on,44,0,480
2,note_on,32,0,0
2,note_on,33,74,0
2,note_on,45,74,0
2,note_on,45,0,395
2,note_on,33,0,0
2,note_on,32,78,0
2,note_on,44,78,0
2,note_on,44,0,406
2,note_on,32,0,0
2,note_on,31,72,0
2,note_on,43,72,0
2,note_on,43,0,360
2,note_on,31,0,0
2,note_on,32,69,0
2,note_on,44,69,0
2,note_on,44,0,360
2,note_on,32,0,0
2,note_on,37,95,0
2,note_on,37,0,54
2,note_on,44,55,0
2,note_on,44,0,160
2,note_on,49,56,0
2,note_on,49,0,160
2,note_on,53,56,0
2,note_on,53,0,160
2,note_on,56,58,0
2,note_on,56,0,160
2,note_on,61,59,0
2,note_on,61,0,160
2,note_on,65,59,0
2,note_on,65,0,160
2,note_on,61,57,0
2,note_on,61,0,160
2,note_on,56,52,0
2,note_on,56,0,160
2,note_on,53,49,0
2,note_on,53,0,160
2,note_on,49,46,0
2,note_on,49,0,160
2,note_on,44,41,0
2,note_on,44,0,160
2,note_on,37,40,0
2,note_on,37,0,160
2,note_on,44,41,0
2,note_on,44,0,160
2,note_on,49,42,0
2,note_on,49,0,160
2,note_on,53,43,0
2,note_on,53,0,160
2,note_on,56,44,0
2,note_on,56,0,160
2,note_on,61,45,0
2,note_on,61,0,160
2,note_on,65,45,0
2,note_on,65,0,160
2,note_on,61,45,0
2,note_on,61,0,160
2,note_on,56,44,0
2,note_on,56,0,160
2,note_on,53,43,0
2,note_on,53,0,160
2,note_on,49,42,0
2,note_on,49,0,160
2,note_on,44,41,0
2,note_on,37,25,0
2,note_on,37,0,47
2,note_on,44,0,0
2,note_on,56,26,0
2,note_on,56,0,160
2,note_on,60,27,0
2,note_on,60,0,160
2,note_on,63,28,0
2,note_on,63,0,160
2,note_on,60,28,0
2,note_on,60,0,160
2,note_on,56,27,0
2,note_on,56,0,160
2,note_on,49,27,0
2,note_on,49,0,160
2,note_on,56,27,0
2,note_on,56,0,160
2,note_on,60,28,0
2,note_on,60,0,160
2,note_on,66,28,0
2,note_on,66,0,160
2,note_on,60,27,0
2,note_on,60,0,160
2,note_on,56,26,0
2,note_on,56,0,160
2,note_on,49,27,0
2,note_on,49,0,107
2,note_on,56,28,0
2,note_on,56,0,160
2,note_on,61,28,0
2,note_on,61,0,160
2,note_on,65,29,0
2,note_on,65,0,160
2,note_on,61,30,0
2,note_on,61,0,160
2,note_on,56,28,0
2,note_on,56,0,160
2,note_on,49,27,0
2,note_on,49,0,100
2,note_on,56,28,0
2,note_on,56,0,160
2,note_on,65,29,0
2,note_on,65,0,160
2,note_on,65,30,160
2,note_on,65,0,160
2,note_on,56,29,0
2,note_on,56,0,160
2,note_on,66,30,0
2,note_on,66,0,40
2,note_on,63,26,0
2,note_on,63,0,160
2,note_on,56,26,0
2,note_on,56,0,160
2,note_on,65,30,0
2,note_on,65,0,61
2,note_on,61,26,0
2,note_on,61,0,160
2,note_on,56,26,0
2,note_on,56,0,160
2,note_on,63,30,0
2,note_on,63,0,75
2,note_on,60,23,0
2,note_on,60,0,160
2,note_on,56,23,0
2,note_on,56,0,160
2,note_on,61,29,0
2,note_on,61,0,89
2,note_on,56,24,0
2,note_on,56,0,160
2,note_on,53,24,0
2,note_on,53,0,160
2,note_on,44,26,0
2,note_on,44,0,96
2,note_on,51,27,0
2,note_on,51,0,160
2,note_on,56,27,0
2,note_on,56,0,160
2,note_on,60,28,0
2,note_on,60,0,160
2,note_on,56,27,0
2,note_on,56,0,160
2,note_on,51,27,0
2,note_on,51,0,160
2,note_on,42,27,0
2,note_on,42,0,47
2,note_on,54,27,0
2,note_on,54,0,160
2,note_on,58,28,0
2,note_on,58,0,160
2,note_on,61,29,0
2,note_on,61,0,160
2,note_on,58,28,0
2,note_on,58,0,160
2,note_on,54,28,0
2,note_on,54,0,160
2,note_on,46,27,0
2,note_on,46,0,97
2,note_on,53,27,0
2,note_on,53,0,160
2,note_on,58,28,0
2,note_on,58,0,160
2,note_on,62,28,0
2,note_on,62,0,160
2,note_on,58,28,0
2,note_on,58,0,160
2,note_on,53,27,0
2,note_on,53,0,160
2,note_on,46,28,0
2,note_on,46,0,94
2,note_on,58,29,0
2,note_on,58,0,160
2,note_on,62,30,0
2,note_on,62,0,160
2,note_on,68,33,0
2,note_on,68,0,160
2,note_on,62,31,0
2,note_on,62,0,160
2,note_on,58,29,0
2,note_on,58,0,160
2,note_on,51,34,0
2,note_on,51,0,107
2,note_on,66,31,0
2,note_on,66,0,160
2,note_on,58,28,0
2,note_on,58,0,160
2,note_on,53,32,0
2,note_on,53,0,91
2,note_on,65,30,0
2,note_on,65,0,160
2,note_on,57,28,0
2,note_on,57,0,160
2,note_on,54,31,0
2,note_on,54,0,100
2,note_on,63,28,0
2,note_on,63,0,160
2,note_on,58,29,0
2,note_on,58,0,160
2,note_on,56,30,0
2,note_on,56,0,97
2,note_on,66,27,0
2,note_on,66,0,160
2,note_on,60,27,0
2,note_on,60,0,160
2,note_on,49,25,0
2,note_on,49,0,75
2,note_on,56,27,0
2,note_on,56,0,160
2,note_on,61,29,0
2,note_on,61,0,160
2,note_on,65,30,0
2,note_on,65,0,160
2,note_on,61,29,0
2,note_on,61,0,160
2,note_on,56,27,0
2,note_on,56,0,160
2,note_on,51,27,0
2,note_on,51,0,100
2,note_on,55,28,0
2,note_on,55,0,160
2,note_on,61,29,0
2,note_on,61,0,160
2,note_on,63,30,0
2,note_on,63,0,160
2,note_on,61,29,0
2,note_on,61,0,160
2,note_on,55,27,0
2,note_on,55,0,160
2,note_on,44,23,0
2,note_on,44,0,54
2,note_on,51,25,0
2,note_on,51,0,160
2,note_on,56,27,0
2,note_on,56,0,160
2,note_on,60,28,0
2,note_on,60,0,160
2,note_on,56,27,0
2,note_on,56,0,160
2,note_on,51,27,0
2,note_on,51,0,160
2,note_on,44,25,0
2,note_on,44,0,68
2,note_on,51,25,0
2,note_on,51,0,160
2,note_on,54,27,0
2,note_on,54,0,160
2,note_on,58,28,0
2,note_on,58,0,160
2,note_on,54,26,0
2,note_on,54,0,160
2,note_on,51,25,0
2,note_on,51,0,160
2,note_on,44,24,0
2,note_on,44,0,64
2,note_on,51,26,0
2,note_on,51,0,160
2,note_on,56,27,0
2,note_on,56,0,160
2,note_on,60,28,0
2,note_on,60,0,160
2,note_on,56,28,0
2,note_on,56,0,160
2,note_on,51,27,0
2,note_on,51,0,160
2,note_on,44,27,0
2,note_on,44,0,160
2,note_on,56,27,0
2,note_on,56,0,160
2,note_on,60,28,0
2,note_on,60,0,160
2,note_on,66,28,0
2,note_on,66,0,160
2,note_on,60,27,0
2,note_on,60,0,160
2,note_on,58,26,0
2,note_on,58,0,160
2,note_on,49,27,0
2,note_on,49,0,68
2,note_on,56,28,0
2,note_on,56,0,160
2,note_on,61,28,0
2,note_on,61,0,160
2,note_on,65,29,0
2,note_on,65,0,160
2,note_on,61,30,0
2,note_on,61,0,160
2,note_on,56,28,0
2,note_on,56,0,160
2,note_on,49,27,0
2,note_on,49,0,54
2,note_on,56,28,0
2,note_on,56,0,160
2,note_on,65,29,0
2,note_on,65,0,160
2,note_on,65,30,160
2,note_on,65,0,160
2,note_on,56,29,0
2,note_on,56,0,160
2,note_on,66,30,0
2,note_on,66,0,86
2,note_on,63,26,0
2,note_on,63,0,160
2,note_on,56,26,0
2,note_on,56,0,160
2,note_on,65,30,0
2,note_on,65,0,61
2,note_on,61,26,0
2,note_on,61,0,160
2,note_on,56,26,0
2,note_on,56,0,160
2,note_on,63,30,0
2,note_on,63,0,75
2,note_on,60,23,0
2,note_on,60,0,160
2,note_on,56,23,0
2,note_on,56,0,160
2,note_on,61,29,0
2,note_on,61,0,89
2,note_on,56,24,0
2,note_on,56,0,160
2,note_on,53,24,0
2,note_on,53,0,160
2,note_on,44,26,0
2,note_on,44,0,96
2,note_on,51,27,0
2,note_on,51,0,160
2,note_on,56,27,0
2,note_on,56,0,160
2,note_on,60,28,0
2,note_on,60,0,160
2,note_on,56,27,0
2,note_on,56,0,160
2,note_on,51,27,0
2,note_on,51,0,160
2,note_on,42,27,0
2,note_on,42,0,75
2,note_on,54,27,0
2,note_on,54,0,160
2,note_on,58,28,0
2,note_on,58,0,160
2,note_on,61,29,0
2,note_on,61,0,160
2,note_on,58,28,0
2,note_on,58,0,160
2,note_on,54,28,0
2,note_on,54,0,160
2,note_on,46,27,0
2,note_on,46,0,97
2,note_on,53,27,0
2,note_on,53,0,160
2,note_on,58,28,0
2,note_on,58,0,160
2,note_on,62,28,0
2,note_on,62,0,160
2,note_on,58,28,0
2,note_on,58,0,160
2,note_on,53,27,0
2,note_on,53,0,160
2,note_on,46,28,0
2,note_on,46,0,91
2,note_on,58,29,0
2,note_on,58,0,160
2,note_on,62,30,0
2,note_on,62,0,160
2,note_on,68,33,0
2,note_on,68,0,160
2,note_on,62,31,0
2,note_on,62,0,160
2,note_on,58,29,0
2,note_on,58,0,160
2,note_on,51,34,0
2,note_on,51,0,107
2,note_on,66,31,0
2,note_on,66,0,160
2,note_on,58,28,0
2,note_on,58,0,160
2,note_on,53,32,0
2,note_on,53,0,91
2,note_on,65,30,0
2,note_on,65,0,160
2,note_on,57,28,0
2,note_on,57,0,160
2,note_on,54,31,0
2,note_on,54,0,100
2,note_on,63,28,0
2,note_on,63,0,160
2,note_on,58,29,0
2,note_on,58,0,160
2,note_on,56,30,0
2,note_on,56,0,97
2,note_on,66,27,0
2,note_on,66,0,160
2,note_on,60,27,0
2,note_on,60,0,160
2,note_on,49,25,0
2,note_on,49,0,75
2,note_on,56,27,0
2,note_on,56,0,160
2,note_on,61,29,0
2,note_on,61,0,160
2,note_on,65,30,0
2,note_on,65,0,160
2,note_on,61,29,0
2,note_on,61,0,160
2,note_on,56,27,0
2,note_on,56,0,160
2,note_on,49,27,0
2,note_on,49,0,100
2,note_on,56,28,0
2,note_on,56,0,160
2,note_on,60,29,0
2,note_on,60,0,160
2,note_on,66,30,0
2,note_on,66,0,160
2,note_on,60,29,0
2,note_on,60,0,160
2,note_on,56,27,0
2,note_on,56,0,160
2,note_on,49,27,0
2,note_on,49,0,54
2,note_on,56,28,0
2,note_on,56,0,160
2,note_on,60,30,0
2,note_on,60,0,160
2,note_on,66,31,0
2,note_on,66,0,160
2,note_on,60,30,0
2,note_on,60,0,160
2,note_on,56,28,0
2,note_on,56,0,160
2,note_on,49,27,0
2,note_on,49,0,75
2,note_on,56,27,0
2,note_on,56,0,160
2,note_on,61,28,0
2,note_on,61,0,160
2,note_on,65,30,0
2,note_on,65,0,160
2,note_on,61,28,0
2,note_on,61,0,160
2,note_on,56,27,0
2,note_on,56,0,160
2,note_on,44,34,0
2,note_on,44,0,100
2,note_on,51,33,0
2,note_on,51,0,160
2,note_on,56,34,0
2,note_on,56,0,160
2,note_on,60,34,0
2,note_on,60,0,160
2,note_on,56,33,0
2,note_on,56,0,160
2,note_on,51,32,0
2,note_on,51,0,160
2,note_on,44,31,0
2,note_on,44,0,96
2,note_on,51,33,0
2,note_on,51,0,160
2,note_on,55,34,0
2,note_on,55,0,160
2,note_on,61,34,0
2,note_on,61,0,160
2,note_on,55,33,0
2,note_on,55,0,160
2,note_on,51,30,0
2,note_on,51,0,160
2,note_on,44,36,0
2,note_on,44,0,117
2,note_on,51,30,0
2,note_on,51,0,160
2,note_on,56,32,0
2,note_on,56,0,160
2,note_on,60,33,0
2,note_on,60,0,160
2,note_on,56,32,0
2,note_on,56,0,160
2,note_on,51,30,0
2,note_on,51,0,160
2,note_on,49,27,0
2,note_on,49,0,123
2,note_on,56,29,0
2,note_on,56,0,160
2,note_on,61,30,0
2,note_on,61,0,160
2,note_on,64,31,0
2,note_on,64,0,160
2,note_on,61,30,0
2,note_on,61,0,160
2,note_on,56,29,0
2,note_on,56,0,160
2,note_on,39,34,0
2,note_on,39,0,100
2,note_on,51,33,0
2,note_on,51,0,160
2,note_on,56,34,0
2,note_on,56,0,160
2,note_on,60,34,0
2,note_on,60,0,160
2,note_on,56,33,0
2,note_on,56,0,160
2,note_on,51,32,0
2,note_on,51,0,160
2,note_on,39,31,0
2,note_on,39,0,96
2,note_on,51,33,0
2,note_on,51,0,160
2,note_on,55,34,0
2,note_on,55,0,160
2,note_on,61,34,0
2,note_on,61,0,160
2,note_on,55,33,0
2,note_on,55,0,160
2,note_on,51,30,0
2,note_on,51,0,160
2,note_on,44,34,0
2,note_on,44,0,68
2,note_on,51,30,0
2,note_on,51,0,160
2,note_on,56,32,0
2,note_on,56,0,160
2,note_on,60,33,0
2,note_on,60,0,160
2,note_on,56,32,0
2,note_on,56,0,160
2,note_on,51,30,0
2,note_on,51,0,160
2,note_on,42,19,0
2,note_on,42,0,68
2,note_on,54,20,0
2,note_on,54,0,160
2,note_on,58,22,0
2,note_on,58,0,160
2,note_on,61,22,0
2,note_on,61,0,160
2,note_on,58,20,0
2,note_on,58,0,160
2,note_on,54,20,0
2,note_on,54,0,160
2,note_on,44,21,0
2,note_on,44,0,87
2,note_on,56,22,0
2,note_on,56,0,160
2,note_on,60,22,0
2,note_on,60,0,160
2,note_on,63,23,0
2,note_on,63,0,160
2,note_on,60,23,0
2,note_on,60,0,160
2,note_on,56,22,0
2,note_on,56,0,160
2,note_on,49,22,0
2,note_on,49,0,160
2,note_on,56,23,0
2,note_on,56,0,160
2,note_on,60,25,0
2,note_on,60,0,160
2,note_on,66,27,0
2,note_on,66,0,160
2,note_on,60,26,0
2,note_on,60,0,160
2,note_on,56,25,0
2,note_on,56,0,160
2,note_on,49,27,0
2,note_on,49,0,61
2,note_on,56,28,0
2,note_on,56,0,160
2,note_on,61,28,0
2,note_on,61,0,160
2,note_on,65,29,0
2,note_on,65,0,160
2,note_on,61,30,0
2,note_on,61,0,160
2,note_on,56,28,0
2,note_on,56,0,160
2,note_on,49,27,0
2,note_on,49,0,100
2,note_on,56,28,0
2,note_on,56,0,160
2,note_on,65,29,0
2,note_on,65,0,160
2,note_on,65,30,160
2,note_on,65,0,160
2,note_on,56,29,0
2,note_on,56,0,160
2,note_on,66,30,0
2,note_on,66,0,93
2,note_on,63,26,0
2,note_on,63,0,160
2,note_on,56,26,0
2,note_on,56,0,160
2,note_on,65,30,0
2,note_on,65,0,61
2,note_on,61,26,0
2,note_on,61,0,160
2,note_on,56,26,0
2,note_on,56,0,160
2,note_on,63,30,0
2,note_on,63,0,75
2,note_on,60,23,0
2,note_on,60,0,160
2,note_on,56,23,0
2,note_on,56,0,160
2,note_on,61,29,0
2,note_on,61,0,89
2,note_on,56,24,0
2,note_on,56,0,160
2,note_on,53,24,0
2,note_on,53,0,160
2,note_on,44,26,0
2,note_on,44,0,96
2,note_on,51,27,0
2,note_on,51,0,160
2,note_on,56,27,0
2,note_on,56,0,160
2,note_on,60,28,0
2,note_on,60,0,160
2,note_on,56,27,0
2,note_on,56,0,160
2,note_on,51,27,0
2,note_on,51,0,160
2,note_on,42,27,0
2,note_on,42,0,61
2,note_on,54,27,0
2,note_on,54,0,160
2,note_on,58,28,0
2,note_on,58,0,160
2,note_on,61,29,0
2,note_on,61,0,160
2,note_on,58,28,0
2,note_on,58,0,160
2,note_on,54,28,0
2,note_on,54,0,160
2,note_on,46,27,0
2,note_on,46,0,97
2,note_on,53,27,0
2,note_on,53,0,160
2,note_on,58,28,0
2,note_on,58,0,160
2,note_on,62,28,0
2,note_on,62,0,160
2,note_on,58,28,0
2,note_on,58,0,160
2,note_on,53,27,0
2,note_on,53,0,160
2,note_on,46,28,0
2,note_on,46,0,97
2,note_on,58,29,0
2,note_on,58,0,160
2,note_on,62,30,0
2,note_on,62,0,160
2,note_on,68,33,0
2,note_on,68,0,160
2,note_on,62,31,0
2,note_on,62,0,160
2,note_on,58,29,0
2,note_on,58,0,160
2,note_on,51,34,0
2,note_on,51,0,107
2,note_on,66,31,0
2,note_on,66,0,160
2,note_on,58,28,0
2,note_on,58,0,160
2,note_on,53,32,0
2,note_on,53,0,91
2,note_on,65,30,0
2,note_on,65,0,160
2,note_on,57,28,0
2,note_on,57,0,160
2,note_on,54,31,0
2,note_on,54,0,100
2,note_on,63,28,0
2,note_on,63,0,160
2,note_on,58,29,0
2,note_on,58,0,160
2,note_on,56,30,0
2,note_on,56,0,97
2,note_on,66,27,0
2,note_on,66,0,160
2,note_on,60,27,0
2,note_on,60,0,160
2,note_on,49,25,0
2,note_on,49,0,75
2,note_on,56,27,0
2,note_on,56,0,160
2,note_on,61,29,0
2,note_on,61,0,160
2,note_on,65,30,0
2,note_on,65,0,160
2,note_on,61,29,0
2,note_on,61,0,160
2,note_on,56,27,0
2,note_on,56,0,160
2,note_on,49,27,0
2,note_on,49,0,100
2,note_on,56,28,0
2,note_on,56,0,160
2,note_on,60,29,0
2,note_on,60,0,160
2,note_on,66,30,0
2,note_on,66,0,160
2,note_on,60,29,0
2,note_on,60,0,160
2,note_on,56,27,0
2,note_on,56,0,160
2,note_on,49,27,0
2,note_on,49,0,54
2,note_on,56,28,0
2,note_on,56,0,160
2,note_on,60,30,0
2,note_on,60,0,160
2,note_on,66,31,0
2,note_on,66,0,160
2,note_on,60,30,0
2,note_on,60,0,160
2,note_on,56,28,0
2,note_on,56,0,160
2,note_on,49,27,0
2,note_on,49,0,61
2,note_on,56,27,0
2,note_on,56,0,160
2,note_on,61,28,0
2,note_on,61,0,160
2,note_on,65,30,0
2,note_on,65,0,160
2,note_on,61,28,0
2,note_on,61,0,160
2,note_on,56,27,0
2,note_on,56,0,160
2,note_on,44,34,0
2,note_on,44,0,100
2,note_on,51,33,0
2,note_on,51,0,160
2,note_on,56,34,0
2,note_on,56,0,160
2,note_on,60,34,0
2,note_on,60,0,160
2,note_on,56,33,0
2,note_on,56,0,160
2,note_on,51,32,0
2,note_on,51,0,160
2,note_on,44,31,0
2,note_on,44,0,96
2,note_on,51,33,0
2,note_on,51,0,160
2,note_on,55,34,0
2,note_on,55,0,160
2,note_on,61,34,0
2,note_on,61,0,160
2,note_on,55,33,0
2,note_on,55,0,160
2,note_on,51,30,0
2,note_on,51,0,160
2,note_on,44,36,0
2,note_on,44,0,117
2,note_on,51,30,0
2,note_on,51,0,160
2,note_on,56,32,0
2,note_on,56,0,160
2,note_on,60,33,0
2,note_on,60,0,160
2,note_on,56,32,0
2,note_on,56,0,160
2,note_on,51,30,0
2,note_on,51,0,160
2,note_on,49,27,0
2,note_on,49,0,123
2,note_on,56,29,0
2,note_on,56,0,160
2,note_on,61,30,0
2,note_on,61,0,160
2,note_on,64,31,0
2,note_on,64,0,160
2,note_on,61,30,0
2,note_on,61,0,160
2,note_on,56,29,0
2,note_on,56,0,160
2,note_on,39,34,0
2,note_on,39,0,100
2,note_on,51,33,0
2,note_on,51,0,160
2,note_on,56,34,0
2,note_on,56,0,160
2,note_on,60,34,0
2,note_on,60,0,160
2,note_on,56,33,0
2,note_on,56,0,160
2,note_on,51,32,0
2,note_on,51,0,160
2,note_on,39,31,0
2,note_on,39,0,96
2,note_on,51,33,0
2,note_on,51,0,160
2,note_on,55,34,0
2,note_on,55,0,160
2,note_on,61,34,0
2,note_on,61,0,160
2,note_on,55,33,0
2,note_on,55,0,160
2,note_on,51,30,0
2,note_on,51,0,160
2,note_on,44,34,0
2,note_on,44,0,61
2,note_on,51,30,0
2,note_on,51,0,160
2,note_on,56,32,0
2,note_on,56,0,160
2,note_on,60,33,0
2,note_on,60,0,160
2,note_on,56,32,0
2,note_on,56,0,160
2,note_on,51,30,0
2,note_on,51,0,160
2,note_on,42,19,0
2,note_on,42,0,58
2,note_on,54,20,0
2,note_on,54,0,160
2,note_on,58,22,0
2,note_on,58,0,160
2,note_on,61,22,0
2,note_on,61,0,160
2,note_on,58,20,0
2,note_on,58,0,160
2,note_on,54,20,0
2,note_on,54,0,160
2,note_on,44,21,0
2,note_on,44,0,84
2,note_on,51,22,0
2,note_on,51,0,160
2,note_on,56,22,0
2,note_on,56,0,160
2,note_on,60,23,0
2,note_on,60,0,160
2,note_on,56,23,0
2,note_on,56,0,160
2,note_on,51,22,0
2,note_on,51,0,160
2,note_on,44,22,0
2,note_on,44,0,160
2,note_on,56,23,0
2,note_on,56,0,160
2,note_on,60,25,0
2,note_on,60,0,160
2,note_on,66,27,0
2,note_on,66,0,160
2,note_on,60,26,0
2,note_on,60,0,160
2,note_on,58,25,0
2,note_on,58,0,160
2,note_on,49,27,0
2,note_on,49,0,68
2,note_on,56,28,0
2,note_on,56,0,160
2,note_on,61,28,0
2,note_on,61,0,160
2,note_on,65,29,0
2,note_on,65,0,160
2,note_on,61,30,0
2,note_on,61,0,160
2,note_on,56,28,0
2,note_on,56,0,160
2,note_on,49,27,0
2,note_on,49,0,61
2,note_on,56,28,0
2,note_on,56,0,160
2,note_on,65,29,0
2,note_on,65,0,160
2,note_on,65,30,160
2,note_on,65,0,160
2,note_on,56,29,0
2,note_on,56,0,160
2,note_on,66,30,0
2,note_on,66,0,82
2,note_on,63,26,0
2,note_on,63,0,160
2,note_on,56,26,0
2,note_on,56,0,160
2,note_on,65,30,0
2,note_on,65,0,93
2,note_on,61,26,0
2,note_on,61,0,160
2,note_on,56,26,0
2,note_on,56,0,160
2,note_on,63,30,0
2,note_on,63,0,75
2,note_on,60,23,0
2,note_on,60,0,160
2,note_on,56,23,0
2,note_on,56,0,160
2,note_on,61,29,0
2,note_on,61,0,89
2,note_on,56,24,0
2,note_on,56,0,160
2,note_on,53,24,0
2,note_on,53,0,160
2,note_on,44,26,0
2,note_on,44,0,96
2,note_on,51,27,0
2,note_on,51,0,160
2,note_on,56,27,0
2,note_on,56,0,160
2,note_on,60,28,0
2,note_on,60,0,160
2,note_on,56,27,0
2,note_on,56,0,160
2,note_on,51,27,0
2,note_on,51,0,160
2,note_on,42,27,0
2,note_on,42,0,68
2,note_on,54,27,0
2,note_on,54,0,160
2,note_on,58,28,0
2,note_on,58,0,160
2,note_on,61,29,0
2,note_on,61,0,160
2,note_on,58,28,0
2,note_on,58,0,160
2,note_on,54,28,0
2,note_on,54,0,160
2,note_on,46,27,0
2,note_on,46,0,97
2,note_on,53,27,0
2,note_on,53,0,160
2,note_on,58,28,0
2,note_on,58,0,160
2,note_on,62,28,0
2,note_on,62,0,160
2,note_on,58,28,0
2,note_on,58,0,160
2,note_on,53,27,0
2,note_on,53,0,160
2,note_on,46,28,0
2,note_on,46,0,100
2,note_on,58,29,0
2,note_on,58,0,160
2,note_on,62,30,0
2,note_on,62,0,160
2,note_on,68,33,0
2,note_on,68,0,160
2,note_on,62,31,0
2,note_on,62,0,160
2,note_on,58,29,0
2,note_on,58,0,160
2,note_on,51,34,0
2,note_on,51,0,85
2,note_on,66,31,0
2,note_on,66,0,160
2,note_on,58,28,0
2,note_on,58,0,160
2,note_on,53,31,0
2,note_on,53,0,51
2,note_on,65,28,0
2,note_on,65,0,160
2,note_on,57,28,0
2,note_on,57,0,160
2,note_on,54,30,0
2,note_on,54,0,68
2,note_on,63,25,0
2,note_on,63,0,160
2,note_on,58,25,0
2,note_on,58,0,160
2,note_on,56,30,0
2,note_on,56,0,97
2,note_on,66,27,0
2,note_on,66,0,160
2,note_on,60,27,0
2,note_on,60,0,160
2,note_on,49,22,0
2,note_on,49,0,75
2,note_on,56,23,0
2,note_on,56,0,160
2,note_on,61,26,0
2,note_on,61,0,160
2,note_on,65,27,0
2,note_on,65,0,160
2,note_on,61,26,0
2,note_on,61,0,160
2,note_on,56,23,0
2,note_on,56,0,160
2,note_on,49,23,0
2,note_on,49,0,100
2,note_on,56,24,0
2,note_on,56,0,160
2,note_on,60,26,0
2,note_on,60,0,160
2,note_on,66,27,0
2,note_on,66,0,160
2,note_on,60,26,0
2,note_on,60,0,160
2,note_on,56,23,0
2,note_on,56,0,160
2,note_on,49,20,0
2,note_on,49,0,54
2,note_on,56,21,0
2,note_on,56,0,160
2,note_on,60,22,0
2,note_on,60,0,160
2,note_on,66,24,0
2,note_on,66,0,160
2,note_on,60,22,0
2,note_on,60,0,160
2,note_on,56,22,0
2,note_on,56,0,160
2,note_on,49,20,0
2,note_on,49,0,160
2,note_on,56,21,0
2,note_on,56,0,160
2,note_on,60,22,0
2,note_on,60,0,160
2,note_on,66,22,0
2,note_on,66,0,160
2,note_on,60,22,0
2,note_on,60,0,160
2,note_on,56,21,0
2,note_on,56,0,160
2,note_on,49,22,0
2,note_on,49,0,97
2,note_on,56,25,0
2,note_on,56,0,160
2,note_on,61,28,0
2,note_on,61,0,160
2,note_on,64,30,0
2,note_on,64,0,160
2,note_on,61,28,0
2,note_on,61,0,160
2,note_on,56,27,0
2,note_on,56,0,160
2,note_on,52,26,0
2,note_on,52,0,143
2,note_on,56,28,0
2,note_on,56,0,160
2,note_on,61,30,0
2,note_on,61,0,160
2,note_on,64,31,0
2,note_on,64,0,160
2,note_on,61,28,0
2,note_on,61,0,160
2,note_on,56,27,0
2,note_on,56,0,160
2,note_on,49,27,0
2,note_on,49,0,97
2,note_on,56,30,0
2,note_on,56,0,160
2,note_on,61,34,0
2,note_on,61,0,160
2,note_on,64,36,0
2,note_on,64,0,160
2,note_on,61,34,0
2,note_on,61,0,160
2,note_on,56,33,0
2,note_on,56,0,160
2,note_on,52,31,0
2,note_on,52,0,143
2,note_on,56,33,0
2,note_on,56,0,160
2,note_on,61,36,0
2,note_on,61,0,160
2,note_on,64,37,0
2,note_on,64,0,160
2,note_on,61,34,0
2,note_on,61,0,160
2,note_on,56,32,0
2,note_on,56,0,160
2,note_on,51,31,0
2,note_on,51,0,97
2,note_on,57,35,0
2,note_on,57,0,160
2,note_on,61,39,0
2,note_on,61,0,160
2,note_on,66,45,0
2,note_on,66,0,160
2,note_on,61,39,0
2,note_on,61,0,160
2,note_on,57,37,0
2,note_on,57,0,160
2,note_on,54,37,0
2,note_on,54,0,160
2,note_on,61,40,0
2,note_on,61,0,160
2,note_on,63,44,0
2,note_on,63,0,160
2,note_on,69,46,0
2,note_on,69,0,160
2,note_on,63,44,0
2,note_on,63,0,160
2,note_on,61,41,0
2,note_on,61,0,160
2,note_on,44,33,0
2,note_on,44,0,97
2,note_on,51,35,0
2,note_on,51,0,160
2,note_on,54,38,0
2,note_on,54,0,160
2,note_on,60,39,0
2,note_on,60,0,160
2,note_on,54,36,0
2,note_on,54,0,160
2,note_on,51,34,0
2,note_on,51,0,160
2,note_on,44,29,0
2,note_on,44,0,160
2,note_on,51,31,0
2,note_on,51,0,160
2,note_on,54,33,0
2,note_on,54,0,160
2,note_on,60,33,0
2,note_on,60,0,160
2,note_on,54,29,0
2,note_on,54,0,160
2,note_on,51,26,0
2,note_on,51,0,160
2,note_on,49,22,0
2,note_on,49,0,97
2,note_on,56,25,0
2,note_on,56,0,160
2,note_on,61,28,0
2,note_on,61,0,160
2,note_on,64,30,0
2,note_on,64,0,160
2,note_on,61,28,0
2,note_on,61,0,160
2,note_on,56,27,0
2,note_on,56,0,160
2,note_on,52,26,0
2,note_on,52,0,143
2,note_on,56,28,0
2,note_on,56,0,160
2,note_on,61,30,0
2,note_on,61,0,160
2,note_on,64,31,0
2,note_on,64,0,160
2,note_on,61,28,0
2,note_on,61,0,160
2,note_on,56,27,0
2,note_on,56,0,160
2,note_on,49,27,0
2,note_on,49,0,97
2,note_on,56,30,0
2,note_on,56,0,160
2,note_on,58,34,0
2,note_on,58,0,160
2,note_on,64,36,0
2,note_on,64,0,160
2,note_on,58,34,0
2,note_on,58,0,160
2,note_on,56,33,0
2,note_on,56,0,160
2,note_on,52,31,0
2,note_on,52,0,143
2,note_on,56,33,0
2,note_on,56,0,160
2,note_on,58,36,0
2,note_on,58,0,160
2,note_on,61,37,0
2,note_on,61,0,160
2,note_on,58,34,0
2,note_on,58,0,160
2,note_on,56,32,0
2,note_on,56,0,160
2,note_on,51,30,0
2,note_on,51,0,97
2,note_on,56,34,0
2,note_on,56,0,160
2,note_on,59,37,0
2,note_on,59,0,160
2,note_on,63,39,0
2,note_on,63,0,160
2,note_on,59,38,0
2,note_on,59,0,160
2,note_on,56,35,0
2,note_on,56,0,160
2,note_on,51,38,0
2,note_on,51,0,85
2,note_on,58,41,0
2,note_on,58,0,160
2,note_on,61,45,0
2,note_on,61,0,160
2,note_on,67,46,0
2,note_on,67,0,160
2,note_on,61,44,0
2,note_on,61,0,160
2,note_on,58,41,0
2,note_on,58,0,160
2,note_on,44,33,0
2,note_on,44,0,97
2,note_on,51,35,0
2,note_on,51,0,160
2,note_on,56,37,0
2,note_on,56,0,160
2,note_on,59,39,0
2,note_on,59,0,160
2,note_on,56,39,0
2,note_on,56,0,160
2,note_on,51,37,0
2,note_on,51,0,160
2,note_on,44,33,0
2,note_on,44,0,160
2,note_on,51,35,0
2,note_on,51,0,160
2,note_on,56,38,0
2,note_on,56,0,160
2,note_on,59,39,0
2,note_on,59,0,160
2,note_on,56,35,0
2,note_on,56,0,160
2,note_on,51,33,0
2,note_on,51,0,160
2,note_on,45,39,0
2,note_on,45,0,69
2,note_on,49,41,0
2,note_on,49,0,160
2,note_on,54,43,0
2,note_on,54,0,160
2,note_on,57,45,0
2,note_on,57,0,160
2,note_on,54,44,0
2,note_on,54,0,160
2,note_on,49,42,0
2,note_on,49,0,160
2,note_on,45,42,0
2,note_on,45,0,160
2,note_on,49,44,0
2,note_on,49,0,160
2,note_on,54,45,0
2,note_on,54,0,160
2,note_on,57,45,0
2,note_on,57,0,160
2,note_on,54,45,0
2,note_on,54,0,160
2,note_on,49,44,0
2,note_on,49,0,160
2,note_on,51,44,0
2,note_on,51,0,69
2,note_on,54,46,0
2,note_on,54,0,160
2,note_on,57,48,0
2,note_on,57,0,160
2,note_on,59,49,0
2,note_on,59,0,160
2,note_on,57,47,0
2,note_on,57,0,160
2,note_on,54,45,0
2,note_on,54,0,160
2,note_on,40,45,0
2,note_on,40,0,68
2,note_on,47,46,0
2,note_on,47,0,160
2,note_on,52,48,0
2,note_on,52,0,160
2,note_on,56,47,0
2,note_on,56,0,160
2,note_on,52,46,0
2,note_on,52,0,160
2,note_on,47,45,0
2,note_on,47,0,160
2,note_on,45,44,0
2,note_on,45,0,91
2,note_on,49,46,0
2,note_on,49,0,160
2,note_on,54,48,0
2,note_on,54,0,160
2,note_on,57,49,0
2,note_on,57,0,160
2,note_on,54,47,0
2,note_on,54,0,160
2,note_on,49,45,0
2,note_on,49,0,160
2,note_on,45,45,0
2,note_on,45,0,160
2,note_on,49,46,0
2,note_on,49,0,160
2,note_on,54,48,0
2,note_on,54,0,160
2,note_on,57,47,0
2,note_on,57,0,160
2,note_on,54,46,0
2,note_on,54,0,160
2,note_on,49,45,0
2,note_on,49,0,160
2,note_on,47,44,0
2,note_on,47,0,69
2,note_on,51,46,0
2,note_on,51,0,160
2,note_on,57,48,0
2,note_on,57,0,160
2,note_on,59,49,0
2,note_on,59,0,160
2,note_on,57,47,0
2,note_on,57,0,160
2,note_on,51,45,0
2,note_on,51,0,160
2,note_on,40,45,0
2,note_on,40,0,51
2,note_on,47,46,0
2,note_on,47,0,160
2,note_on,52,48,0
2,note_on,52,0,160
2,note_on,56,47,0
2,note_on,56,0,160
2,note_on,52,46,0
2,note_on,52,0,160
2,note_on,47,45,0
2,note_on,47,0,160
2,note_on,45,30,0
2,note_on,45,0,69
2,note_on,49,33,0
2,note_on,49,0,160
2,note_on,54,34,0
2,note_on,54,0,160
2,note_on,57,35,0
2,note_on,57,0,160
2,note_on,54,34,0
2,note_on,54,0,160
2,note_on,49,34,0
2,note_on,49,0,160
2,note_on,45,34,0
2,note_on,45,0,160
2,note_on,49,34,0
2,note_on,49,0,160
2,note_on,54,36,0
2,note_on,54,0,160
2,note_on,57,36,0
2,note_on,57,0,160
2,note_on,54,35,0
2,note_on,54,0,160
2,note_on,49,34,0
2,note_on,49,0,160
2,note_on,47,34,0
2,note_on,47,0,69
2,note_on,54,37,0
2,note_on,54,0,160
2,note_on,57,38,0
2,note_on,57,0,160
2,note_on,59,39,0
2,note_on,59,0,160
2,note_on,57,38,0
2,note_on,57,0,160
2,note_on,54,38,0
2,note_on,54,0,160
2,note_on,40,37,0
2,note_on,40,0,68
2,note_on,47,39,0
2,note_on,47,0,160
2,note_on,52,40,0
2,note_on,52,0,160
2,note_on,56,40,0
2,note_on,56,0,160
2,note_on,52,40,0
2,note_on,52,0,160
2,note_on,47,39,0
2,note_on,47,0,160
2,note_on,45,39,0
2,note_on,45,0,69
2,note_on,49,42,0
2,note_on,49,0,160
2,note_on,54,43,0
2,note_on,54,0,160
2,note_on,57,45,0
2,note_on,57,0,160
2,note_on,54,43,0
2,note_on,54,0,160
2,note_on,49,42,0
2,note_on,49,0,160
2,note_on,45,42,0
2,note_on,45,0,68
2,note_on,51,44,0
2,note_on,51,0,160
2,note_on,54,45,0
2,note_on,54,0,160
2,note_on,57,44,0
2,note_on,57,0,160
2,note_on,54,44,0
2,note_on,54,0,160
2,note_on,51,42,0
2,note_on,51,0,160
2,note_on,44,42,0
2,note_on,44,0,68
2,note_on,51,44,0
2,note_on,51,0,160
2,note_on,54,45,0
2,note_on,54,0,160
2,note_on,60,42,0
2,note_on,60,0,103
2,note_on,54,42,0
2,note_on,54,0,160
2,note_on,51,40,0
2,note_on,51,0,160
2,note_on,44,39,0
2,note_on,44,0,160
2,note_on,51,41,0
2,note_on,51,0,160
2,note_on,54,42,0
2,note_on,54,0,160
2,note_on,60,40,0
2,note_on,60,0,160
2,note_on,54,39,0
2,note_on,54,0,160
2,note_on,51,38,0
2,note_on,51,0,160
2,note_on,45,38,0
2,note_on,45,0,68
2,note_on,51,39,0
2,note_on,51,0,160
2,note_on,54,40,0
2,note_on,54,0,160
2,note_on,59,38,0
2,note_on,59,0,103
2,note_on,54,38,0
2,note_on,54,0,160
2,note_on,51,36,0
2,note_on,51,0,160
2,note_on,46,35,0
2,note_on,46,0,103
2,note_on,51,37,0
2,note_on,51,0,160
2,note_on,54,38,0
2,note_on,54,0,160
2,note_on,58,36,0
2,note_on,58,0,109
2,note_on,54,35,0
2,note_on,54,0,160
2,note_on,51,34,0
2,note_on,51,0,160
2,note_on,48,34,0
2,note_on,48,0,103
2,note_on,51,34,0
2,note_on,51,0,160
2,note_on,54,35,0
2,note_on,54,0,160
2,note_on,57,34,0
2,note_on,57,0,103
2,note_on,54,34,0
2,note_on,54,0,160
2,note_on,51,32,0
2,note_on,51,0,160
2,note_on,48,31,0
2,note_on,48,0,160
2,note_on,51,33,0
2,note_on,51,0,160
2,note_on,54,33,0
2,note_on,54,0,160
2,note_on,57,31,0
2,note_on,57,0,160
2,note_on,54,31,0
2,note_on,54,0,160
2,note_on,51,29,0
2,note_on,51,0,160
2,note_on,45,28,0
2,note_on,45,0,68
2,note_on,51,29,0
2,note_on,51,0,160
2,note_on,54,30,0
2,note_on,54,0,160
2,note_on,59,32,0
2,note_on,59,0,103
2,note_on,54,31,0
2,note_on,54,0,160
2,note_on,51,29,0
2,note_on,51,0,160
2,note_on,46,27,0
2,note_on,46,0,103
2,note_on,51,28,0
2,note_on,51,0,160
2,note_on,54,29,0
2,note_on,54,0,160
2,note_on,58,30,0
2,note_on,58,0,100
2,note_on,54,29,0
2,note_on,54,0,160
2,note_on,51,28,0
2,note_on,51,0,160
2,note_on,47,28,0
2,note_on,47,0,68
2,note_on,51,28,0
2,note_on,51,0,160
2,note_on,54,28,0
2,note_on,54,0,160
2,note_on,57,30,0
2,note_on,57,0,103
2,note_on,54,28,0
2,note_on,54,0,160
2,note_on,51,27,0
2,note_on,51,0,160
2,note_on,48,23,0
2,note_on,48,0,103
2,note_on,51,24,0
2,note_on,51,0,160
2,note_on,54,25,0
2,note_on,54,0,160
2,note_on,56,25,0
2,note_on,56,0,109
2,note_on,54,24,0
2,note_on,54,0,160
2,note_on,51,22,0
2,note_on,51,0,160
2,note_on,49,22,0
2,note_on,49,0,97
2,note_on,56,25,0
2,note_on,56,0,160
2,note_on,61,28,0
2,note_on,61,0,160
2,note_on,64,30,0
2,note_on,64,0,160
2,note_on,61,28,0
2,note_on,61,0,160
2,note_on,56,27,0
2,note_on,56,0,160
2,note_on,52,26,0
2,note_on,52,0,143
2,note_on,56,28,0
2,note_on,56,0,160
2,note_on,61,30,0
2,note_on,61,0,160
2,note_on,64,31,0
2,note_on,64,0,160
2,note_on,61,28,0
2,note_on,61,0,160
2,note_on,56,27,0
2,note_on,56,0,160
2,note_on,49,27,0
2,note_on,49,0,97
2,note_on,56,30,0
2,note_on,56,0,160
2,note_on,61,34,0
2,note_on,61,0,160
2,note_on,64,36,0
2,note_on,64,0,160
2,note_on,61,34,0
2,note_on,61,0,160
2,note_on,56,33,0
2,note_on,56,0,160
2,note_on,52,31,0
2,note_on,52,0,143
2,note_on,56,33,0
2,note_on,56,0,160
2,note_on,61,36,0
2,note_on,61,0,160
2,note_on,64,37,0
2,note_on,64,0,160
2,note_on,61,34,0
2,note_on,61,0,160
2,note_on,56,32,0
2,note_on,56,0,160
2,note_on,51,31,0
2,note_on,51,0,97
2,note_on,57,35,0
2,note_on,57,0,160
2,note_on,61,39,0
2,note_on,61,0,160
2,note_on,66,45,0
2,note_on,66,0,160
2,note_on,61,39,0
2,note_on,61,0,160
2,note_on,57,37,0
2,note_on,57,0,160
2,note_on,54,37,0
2,note_on,54,0,160
2,note_on,61,40,0
2,note_on,61,0,160
2,note_on,63,44,0
2,note_on,63,0,160
2,note_on,69,46,0
2,note_on,69,0,160
2,note_on,63,44,0
2,note_on,63,0,160
2,note_on,61,41,0
2,note_on,61,0,160
2,note_on,44,33,0
2,note_on,44,0,97
2,note_on,51,35,0
2,note_on,51,0,160
2,note_on,54,38,0
2,note_on,54,0,160
2,note_on,60,39,0
2,note_on,60,0,160
2,note_on,54,36,0
2,note_on,54,0,160
2,note_on,51,34,0
2,note_on,51,0,160
2,note_on,44,29,0
2,note_on,44,0,160
2,note_on,51,31,0
2,note_on,51,0,160
2,note_on,54,33,0
2,note_on,54,0,160
2,note_on,60,33,0
2,note_on,60,0,160
2,note_on,54,29,0
2,note_on,54,0,160
2,note_on,51,26,0
2,note_on,51,0,160
2,note_on,49,22,0
2,note_on,49,0,97
2,note_on,56,25,0
2,note_on,56,0,160
2,note_on,61,28,0
2,note_on,61,0,160
2,note_on,64,30,0
2,note_on,64,0,160
2,note_on,61,28,0
2,note_on,61,0,160
2,note_on,56,27,0
2,note_on,56,0,160
2,note_on,52,26,0
2,note_on,52,0,80
2,note_on,56,28,0
2,note_on,56,0,160
2,note_on,61,30,0
2,note_on,61,0,160
2,note_on,64,31,0
2,note_on,64,0,160
2,note_on,61,28,0
2,note_on,61,0,160
2,note_on,56,27,0
2,note_on,56,0,160
2,note_on,54,25,0
2,note_on,54,0,97
2,note_on,61,29,0
2,note_on,61,0,160
2,note_on,63,32,0
2,note_on,63,0,160
2,note_on,69,34,0
2,note_on,69,0,160
2,note_on,63,33,0
2,note_on,63,0,160
2,note_on,61,31,0
2,note_on,61,0,160
2,note_on,56,30,0
2,note_on,56,0,80
2,note_on,61,32,0
2,note_on,61,0,160
2,note_on,65,35,0
2,note_on,65,0,160
2,note_on,71,37,0
2,note_on,71,0,160
2,note_on,65,34,0
2,note_on,65,0,160
2,note_on,61,32,0
2,note_on,61,0,160
2,note_on,57,30,0
2,note_on,57,0,97
2,note_on,61,34,0
2,note_on,61,0,160
2,note_on,66,37,0
2,note_on,66,0,160
2,note_on,69,40,0
2,note_on,69,0,160
2,note_on,66,39,0
2,note_on,66,0,160
2,note_on,61,35,0
2,note_on,61,0,160
2,note_on,56,34,0
2,note_on,56,0,80
2,note_on,61,36,0
2,note_on,61,0,160
2,note_on,65,39,0
2,note_on,65,0,160
2,note_on,71,40,0
2,note_on,71,0,160
2,note_on,65,37,0
2,note_on,65,0,160
2,note_on,61,34,0
2,note_on,61,0,160
2,note_on,57,32,0
2,note_on,57,0,97
2,note_on,61,36,0
2,note_on,61,0,160
2,note_on,66,39,0
2,note_on,66,0,160
2,note_on,69,42,0
2,note_on,69,0,160
2,note_on,66,40,0
2,note_on,66,0,160
2,note_on,61,38,0
2,note_on,61,0,160
2,note_on,48,36,0
2,note_on,48,0,80
2,note_on,54,38,0
2,note_on,54,0,160
2,note_on,56,41,0
2,note_on,56,0,160
2,note_on,63,42,0
2,note_on,63,0,160
2,note_on,56,39,0
2,note_on,56,0,160
2,note_on,54,37,0
2,note_on,54,0,160
2,note_on,49,35,0
2,note_on,49,0,97
2,note_on,56,39,0
2,note_on,56,0,160
2,note_on,61,43,0
2,note_on,61,0,160
2,note_on,64,45,0
2,note_on,64,0,160
2,note_on,61,44,0
2,note_on,61,0,160
2,note_on,56,42,0
2,note_on,56,0,160
2,note_on,51,44,0
2,note_on,51,0,74
2,note_on,56,41,0
2,note_on,56,0,160
2,note_on,60,45,0
2,note_on,60,0,160
2,note_on,66,46,0
2,note_on,66,0,160
2,note_on,60,44,0
2,note_on,60,0,160
2,note_on,56,41,0
2,note_on,56,0,160
2,note_on,52,35,0
2,note_on,52,0,97
2,note_on,56,39,0
2,note_on,56,0,160
2,note_on,61,43,0
2,note_on,61,0,160
2,note_on,64,45,0
2,note_on,64,0,160
2,note_on,61,44,0
2,note_on,61,0,160
2,note_on,56,42,0
2,note_on,56,0,160
2,note_on,54,44,0
2,note_on,54,0,80
2,note_on,61,41,0
2,note_on,61,0,160
2,note_on,63,45,0
2,note_on,63,0,160
2,note_on,69,46,0
2,note_on,69,0,160
2,note_on,63,48,0
2,note_on,63,0,160
2,note_on,61,51,0
2,note_on,61,0,160
2,note_on,68,71,0
2,note_on,64,71,0
2,note_on,61,71,0
2,note_on,56,71,0
2,note_on,56,0,240
2,note_on,68,0,0
2,note_on,64,0,0
2,note_on,61,0,0
2,note_on,69,71,720
2,note_on,64,71,0
2,note_on,61,71,0
2,note_on,55,71,0
2,note_on,55,0,469
2,note_on,69,0,0
2,note_on,64,0,0
2,note_on,61,0,0
2,note_on,32,78,937
2,note_on,44,78,0
2,note_on,44,0,113
2,note_on,32,0,0
2,note_on,76,75,346
2,note_on,64,75,0
2,note_on,64,0,480
2,note_on,76,0,0
2,note_on,61,78,0
2,note_on,73,78,0
2,note_on,73,0,480
2,note_on,61,0,0
2,note_on,56,78,0
2,note_on,68,78,0
2,note_on,68,0,480
2,note_on,56,0,0
2,note_on,52,78,0
2,note_on,64,78,0
2,note_on,64,0,480
2,note_on,52,0,0
2,note_on,49,74,0
2,note_on,61,74,0
2,note_on,61,0,480
2,note_on,49,0,0
2,note_on,44,78,0
2,note_on,56,78,0
2,note_on,56,0,480
2,note_on,44,0,0
2,note_on,40,74,0
2,note_on,52,74,0
2,note_on,52,0,480
2,note_on,40,0,0
2,note_on,37,78,0
2,note_on,49,78,0
2,note_on,49,0,409
2,note_on,37,0,0
2,note_on,32,73,0
2,note_on,44,73,0
2,note_on,44,0,480
2,note_on,32,0,0
2,note_on,32,78,0
2,note_on,44,78,0
2,note_on,44,0,480
2,note_on,32,0,0
2,note_on,33,74,0
2,note_on,45,74,0
2,note_on,45,0,388
2,note_on,33,0,0
2,note_on,32,78,0
2,note_on,44,78,0
2,note_on,44,0,406
2,note_on,32,0,0
2,note_on,31,72,0
2,note_on,43,72,0
2,note_on,43,0,360
2,note_on,31,0,0
2,note_on,32,69,0
2,note_on,44,69,0
2,note_on,44,0,360
2,note_on,32,0,0
2,note_on,37,93,0
2,note_on,37,0,166
2,note_on,52,56,0
2,note_on,52,0,240
2,note_on,49,58,0
2,note_on,49,0,240
2,note_on,44,58,0
2,note_on,44,0,240
2,note_on,37,63,0
2,note_on,37,0,113
2,note_on,54,58,0
2,note_on,54,0,240
2,note_on,48,58,0
2,note_on,48,0,240
2,note_on,44,58,0
2,note_on,44,0,240
2,note_on,37,63,0
2,note_on,37,0,99
2,note_on,52,58,0
2,note_on,52,0,240
2,note_on,49,58,0
2,note_on,49,0,240
2,note_on,44,58,0
2,note_on,44,0,240
2,note_on,37,47,0
2,note_on,37,0,84
2,note_on,54,43,0
2,note_on,54,0,240
2,note_on,48,43,0
2,note_on,48,0,240
2,note_on,44,43,0
2,note_on,44,0,240
2,note_on,37,47,0
2,note_on,37,0,92
2,note_on,52,43,0
2,note_on,52,0,240
2,note_on,49,58,0
2,note_on,49,0,240
2,note_on,44,58,0
2,note_on,44,0,240
2,note_on,37,63,0
2,note_on,37,0,77
2,note_on,54,58,0
2,note_on,54,0,240
2,note_on,48,58,0
2,note_on,48,0,240
2,note_on,44,58,0
2,note_on,44,0,240
2,note_on,37,63,0
2,note_on,37,0,141
2,note_on,52,58,0
2,note_on,52,0,240
2,note_on,49,58,0
2,note_on,49,0,240
2,note_on,44,58,0
2,note_on,44,0,240
2,note_on,37,47,0
2,note_on,37,0,120
2,note_on,54,36,0
2,note_on,54,0,240
2,note_on,48,36,0
2,note_on,48,0,240
2,note_on,44,36,0
2,note_on,44,0,240
2,note_on,37,39,0
2,note_on,37,0,127
2,note_on,52,36,0
2,note_on,52,0,240
2,note_on,49,36,0
2,note_on,49,0,240
2,note_on,44,36,0
2,note_on,44,0,240
2,note_on,37,39,0
2,note_on,37,0,148
2,note_on,56,36,0
2,note_on,56,0,240
2,note_on,49,36,0
2,note_on,49,0,240
2,note_on,44,36,0
2,note_on,44,0,240
2,note_on,37,39,0
2,note_on,37,0,127
2,note_on,52,36,0
2,note_on,52,0,240
2,note_on,49,36,0
2,note_on,49,0,240
2,note_on,44,36,0
2,note_on,44,0,240
2,note_on,37,39,0
2,note_on,37,0,120
2,note_on,56,36,0
2,note_on,56,0,240
2,note_on,49,36,0
2,note_on,49,0,240
2,note_on,44,36,0
2,note_on,44,0,240
2,note_on,37,39,0
2,note_on,37,0,169
2,note_on,52,35,0
2,note_on,52,0,240
2,note_on,49,35,0
2,note_on,49,0,240
2,note_on,44,34,0
2,note_on,44,0,240
2,note_on,37,38,0
2,note_on,37,0,120
2,note_on,52,34,0
2,note_on,52,0,240
2,note_on,49,33,0
2,note_on,49,0,240
2,note_on,44,33,0
2,note_on,44,0,240
2,note_on,37,35,0
2,note_on,37,0,155
2,note_on,52,31,0
2,note_on,52,0,240
2,note_on,49,31,0
2,note_on,49,0,240
2,note_on,44,30,0
2,note_on,44,0,240
2,note_on,37,34,0
2,note_on,37,0,106
2,note_on,52,30,0
2,note_on,52,0,240
2,note_on,49,29,0
2,note_on,49,0,240
2,note_on,44,29,0
2,note_on,44,0,240
2,note_on,37,31,0
2,note_on,37,0,317
2,note_on,37,39,3360
2,note_on,44,48,0
2,note_on,44,0,1920
2,note_on,37,0,0
2,note_on,46,47,0
2,note_on,46,0,416
2,note_on,44,50,0
2,note_on,44,0,480
2,note_on,49,52,0
2,note_on,49,0,324
2,note_on,51,56,0
2,note_on,51,0,480
2,note_on,53,58,0
2,note_on,53,0,1856
2,note_on,56,60,0
2,note_on,56,0,1856
2,note_on,54,56,0
2,note_on,54,0,840
2,note_on,53,56,0
2,note_on,53,0,868
2,note_on,51,57,0
2,note_on,51,0,823
2,note_on,53,56,0
2,note_on,53,0,409
2,note_on,49,48,0
2,note_on,49,0,480
2,note_on,44,53,0
2,note_on,44,0,1834
2,note_on,32,50,0
2,note_on,44,50,0
2,note_on,44,0,1823
2,note_on,32,0,0
2,note_on,37,33,0
2,note_on,44,36,4
2,note_on,44,0,1860
2,note_on,37,0,0
2,note_on,37,31,0
2,note_on,44,37,0
2,note_on,44,0,1860
2,note_on,37,0,0
