Track,Message Type,Note,Velocity,Time
1,note_on,78,55,960
1,note_on,78,0,720
1,note_on,83,50,0
1,note_on,83,0,240
1,note_on,79,50,0
1,note_on,79,0,60
1,note_on,81,50,0
1,note_on,81,0,60
1,note_on,79,57,0
1,note_on,79,0,360
1,note_on,78,53,0
1,note_on,78,0,240
1,note_on,76,50,0
1,note_on,76,0,240
1,note_on,78,55,0
1,note_on,78,0,240
1,note_on,71,50,0
1,note_on,71,0,1200
1,note_on,73,58,0
1,note_on,73,0,240
1,note_on,76,50,0
1,note_on,76,0,240
1,note_on,74,50,0
1,note_on,74,0,60
1,note_on,76,50,0
1,note_on,76,0,60
1,note_on,74,57,0
1,note_on,74,0,360
1,note_on,73,53,0
1,note_on,73,0,480
1,note_on,74,55,0
1,note_on,74,0,240
1,note_on,71,50,0
1,note_on,71,0,1200
1,note_on,73,58,0
1,note_on,73,0,240
1,note_on,71,50,0
1,note_on,71,0,240
1,note_on,69,46,0
1,note_on,69,0,60
1,note_on,71,47,0
1,note_on,71,0,60
1,note_on,69,55,0
1,note_on,69,0,360
1,note_on,68,53,0
1,note_on,68,0,480
1,note_on,69,55,0
1,note_on,69,0,240
1,note_on,73,50,0
1,note_on,73,0,480
1,note_on,61,68,240
1,note_on,61,0,720
1,note_on,59,60,0
1,note_on,59,0,240
1,note_on,57,57,0
1,note_on,57,0,60
1,note_on,59,57,0
1,note_on,59,0,60
1,note_on,57,68,0
1,note_on,57,0,360
1,note_on,56,67,0
1,note_on,56,0,480
1,note_on,57,71,0
1,note_on,57,0,480
1,note_on,61,67,0
1,note_on,61,0,960
1,note_on,59,71,0
1,note_on,59,0,480
1,note_on,57,68,0
1,note_on,57,0,480
1,note_on,61,68,0
1,note_on,61,0,480
1,note_on,59,63,0
1,note_on,59,0,60
1,note_on,61,63,0
1,note_on,61,0,60
1,note_on,59,73,0
1,note_on,59,0,120
1,note_on,57,66,0
1,note_on,57,0,237
1,note_on,61,72,3
1,note_on,61,0,480
1,note_on,61,68,0
1,note_on,61,0,480
1,note_on,59,61,0
1,note_on,59,0,60
1,note_on,61,61,0
1,note_on,61,0,60
1,note_on,59,72,0
1,note_on,59,0,360
1,note_on,58,72,0
1,note_on,58,0,480
1,note_on,61,68,0
1,note_on,61,0,480
1,note_on,59,62,0
1,note_on,59,0,60
1,note_on,61,63,0
1,note_on,61,0,60
1,note_on,59,73,0
1,note_on,59,0,120
1,note_on,58,66,0
1,note_on,58,0,240
1,note_on,66,72,0
1,note_on,66,0,480
1,note_on,78,58,0
1,note_on,78,0,720
1,note_on,83,50,0
1,note_on,83,0,240
1,note_on,79,50,0
1,note_on,79,0,60
1,note_on,81,50,0
1,note_on,81,0,60
1,note_on,79,57,0
1,note_on,79,0,360
1,note_on,78,53,0
1,note_on,78,0,240
1,note_on,76,50,0
1,note_on,76,0,240
1,note_on,78,55,0
1,note_on,78,0,240
1,note_on,71,50,0
1,note_on,71,0,1200
1,note_on,73,58,0
1,note_on,73,0,240
1,note_on,76,50,0
1,note_on,76,0,240
1,note_on,74,50,0
1,note_on,74,0,60
1,note_on,76,50,0
1,note_on,76,0,60
1,note_on,74,57,0
1,note_on,74,0,360
1,note_on,73,53,0
1,note_on,73,0,480
1,note_on,74,55,0
1,note_on,74,0,240
1,note_on,71,50,0
1,note_on,71,0,720
1,note_on,50,66,0
1,note_on,50,0,720
1,note_on,55,58,0
1,note_on,55,0,240
1,note_on,52,65,0
1,note_on,52,0,160
1,note_on,53,57,0
1,note_on,53,0,160
1,note_on,52,55,0
1,note_on,52,0,160
1,note_on,50,63,0
1,note_on,50,0,240
1,note_on,48,57,0
1,note_on,48,0,240
1,note_on,50,64,0
1,note_on,50,0,360
1,note_on,43,55,0
1,note_on,43,0,120
1,note_on,50,64,0
1,note_on,50,0,480
1,note_on,48,59,0
1,note_on,48,0,480
1,note_on,50,66,0
1,note_on,50,0,240
1,note_on,55,58,0
1,note_on,55,0,240
1,note_on,52,65,0
1,note_on,52,0,160
1,note_on,53,57,0
1,note_on,53,0,160
1,note_on,52,55,0
1,note_on,52,0,160
1,note_on,50,63,0
1,note_on,50,0,240
1,note_on,48,57,0
1,note_on,48,0,240
1,note_on,50,64,0
1,note_on,50,0,360
1,note_on,43,54,0
1,note_on,43,0,120
1,note_on,50,62,0
1,note_on,50,0,480
1,note_on,48,56,0
1,note_on,48,0,480
1,note_on,50,60,0
1,note_on,50,0,360
1,note_on,43,51,0
1,note_on,43,0,120
1,note_on,48,58,0
1,note_on,48,0,480
1,note_on,50,57,0
1,note_on,50,0,360
1,note_on,43,48,0
1,note_on,43,0,120
1,note_on,48,56,0
1,note_on,48,0,480
1,note_on,50,55,0
1,note_on,50,0,360
1,note_on,43,46,0
1,note_on,43,0,120
1,note_on,48,53,0
1,note_on,48,0,480
1,note_on,43,52,0
1,note_on,43,0,1440
1,note_on,42,48,0
1,note_on,42,0,1440
1,note_on,78,55,0
1,note_on,78,0,240
1,note_on,83,50,0
1,note_on,83,0,240
1,note_on,79,50,0
1,note_on,79,0,60
1,note_on,81,50,0
1,note_on,81,0,60
1,note_on,79,57,0
1,note_on,79,0,360
1,note_on,78,53,0
1,note_on,78,0,240
1,note_on,76,50,0
1,note_on,76,0,240
1,note_on,78,55,0
1,note_on,78,0,240
1,note_on,71,50,0
1,note_on,71,0,1200
1,note_on,73,58,0
1,note_on,73,0,240
1,note_on,76,50,0
1,note_on,76,0,240
1,note_on,74,50,0
1,note_on,74,0,60
1,note_on,76,50,0
1,note_on,76,0,60
1,note_on,74,57,0
1,note_on,74,0,360
1,note_on,73,53,0
1,note_on,73,0,480
1,note_on,74,55,0
1,note_on,74,0,240
1,note_on,71,50,0
1,note_on,71,0,1200
1,note_on,73,58,0
1,note_on,73,0,240
1,note_on,71,50,0
1,note_on,71,0,240
1,note_on,69,46,0
1,note_on,69,0,60
1,note_on,71,47,0
1,note_on,71,0,60
1,note_on,69,55,0
1,note_on,69,0,360
1,note_on,68,53,0
1,note_on,68,0,480
1,note_on,69,55,0
1,note_on,69,0,240
1,note_on,73,50,0
1,note_on,73,0,480
1,note_on,61,68,240
1,note_on,61,0,720
1,note_on,59,60,0
1,note_on,59,0,240
1,note_on,57,57,0
1,note_on,57,0,60
1,note_on,59,57,0
1,note_on,59,0,60
1,note_on,57,68,0
1,note_on,57,0,360
1,note_on,56,67,0
1,note_on,56,0,480
1,note_on,57,71,0
1,note_on,57,0,480
1,note_on,61,67,0
1,note_on,61,0,960
1,note_on,59,71,0
1,note_on,59,0,480
1,note_on,57,68,0
1,note_on,57,0,480
1,note_on,61,68,0
1,note_on,61,0,480
1,note_on,59,63,0
1,note_on,59,0,60
1,note_on,61,63,0
1,note_on,61,0,60
1,note_on,59,73,0
1,note_on,59,0,120
1,note_on,57,66,0
1,note_on,57,0,236
1,note_on,61,72,4
1,note_on,61,0,480
1,note_on,61,68,0
1,note_on,61,0,480
1,note_on,59,61,0
1,note_on,59,0,60
1,note_on,61,61,0
1,note_on,61,0,60
1,note_on,59,72,0
1,note_on,59,0,360
1,note_on,58,72,0
1,note_on,58,0,480
1,note_on,61,68,0
1,note_on,61,0,480
1,note_on,59,62,0
1,note_on,59,0,60
1,note_on,61,63,0
1,note_on,61,0,60
1,note_on,59,73,0
1,note_on,59,0,120
1,note_on,58,66,0
1,note_on,58,0,240
1,note_on,66,72,0
1,note_on,66,0,480
1,note_on,78,58,0
1,note_on,78,0,720
1,note_on,83,50,0
1,note_on,83,0,240
1,note_on,79,50,0
1,note_on,79,0,60
1,note_on,81,50,0
1,note_on,81,0,60
1,note_on,79,57,0
1,note_on,79,0,360
1,note_on,78,53,0
1,note_on,78,0,240
1,note_on,76,50,0
1,note_on,76,0,240
1,note_on,78,55,0
1,note_on,78,0,240
1,note_on,71,50,0
1,note_on,71,0,1200
1,note_on,73,58,0
1,note_on,73,0,240
1,note_on,76,50,0
1,note_on,76,0,240
1,note_on,74,50,0
1,note_on,74,0,60
1,note_on,76,50,0
1,note_on,76,0,60
1,note_on,74,57,0
1,note_on,74,0,360
1,note_on,73,53,0
1,note_on,73,0,480
1,note_on,74,55,0
1,note_on,74,0,240
1,note_on,71,50,0
1,note_on,71,0,720
1,note_on,50,66,0
1,note_on,50,0,720
1,note_on,55,58,0
1,note_on,55,0,240
1,note_on,52,65,0
1,note_on,52,0,160
1,note_on,53,57,0
1,note_on,53,0,160
1,note_on,52,55,0
1,note_on,52,0,160
1,note_on,50,63,0
1,note_on,50,0,240
1,note_on,48,57,0
1,note_on,48,0,240
1,note_on,50,64,0
1,note_on,50,0,360
1,note_on,43,55,0
1,note_on,43,0,120
1,note_on,50,64,0
1,note_on,50,0,480
1,note_on,48,59,0
1,note_on,48,0,480
1,note_on,50,66,0
1,note_on,50,0,240
1,note_on,55,58,0
1,note_on,55,0,240
1,note_on,52,65,0
1,note_on,52,0,160
1,note_on,53,57,0
1,note_on,53,0,160
1,note_on,52,55,0
1,note_on,52,0,160
1,note_on,50,63,0
1,note_on,50,0,240
1,note_on,48,57,0
1,note_on,48,0,240
1,note_on,50,64,0
1,note_on,50,0,360
1,note_on,43,54,0
1,note_on,43,0,120
1,note_on,50,62,0
1,note_on,50,0,480
1,note_on,48,56,0
1,note_on,48,0,480
1,note_on,50,60,0
1,note_on,50,0,360
1,note_on,43,51,0
1,note_on,43,0,120
1,note_on,48,58,0
1,note_on,48,0,480
1,note_on,50,57,0
1,note_on,50,0,360
1,note_on,43,48,0
1,note_on,43,0,120
1,note_on,48,56,0
1,note_on,48,0,480
1,note_on,50,55,0
1,note_on,50,0,360
1,note_on,43,46,0
1,note_on,43,0,120
1,note_on,48,53,0
1,note_on,48,0,480
1,note_on,43,52,0
1,note_on,43,0,1440
1,note_on,42,60,0
1,note_on,42,0,960
1,note_on,41,66,0
1,note_on,41,0,480
1,note_on,65,68,480
1,note_on,70,68,0
1,note_on,74,80,0
1,note_on,74,0,480
1,note_on,70,0,0
1,note_on,65,0,0
1,note_on,66,68,0
1,note_on,70,68,0
1,note_on,75,80,0
1,note_on,75,0,480
1,note_on,70,0,0
1,note_on,66,0,0
1,note_on,78,86,0
1,note_on,78,0,120
1,note_on,77,80,240
1,note_on,74,61,0
1,note_on,74,0,120
1,note_on,72,61,0
1,note_on,72,0,360
1,note_on,77,0,0
1,note_on,74,61,0
1,note_on,77,80,0
1,note_on,74,0,120
1,note_on,70,80,0
1,note_on,77,0,360
1,note_on,70,0,120
1,note_on,82,85,0
1,note_on,82,0,240
1,note_on,65,68,240
1,note_on,70,68,0
1,note_on,74,80,0
1,note_on,74,0,480
1,note_on,70,0,0
1,note_on,65,0,0
1,note_on,66,68,0
1,note_on,70,68,0
1,note_on,75,80,0
1,note_on,75,0,480
1,note_on,70,0,0
1,note_on,66,0,0
1,note_on,78,86,0
1,note_on,78,0,120
1,note_on,77,80,240
1,note_on,74,61,0
1,note_on,74,0,120
1,note_on,72,61,0
1,note_on,72,0,360
1,note_on,77,0,0
1,note_on,74,61,0
1,note_on,77,80,0
1,note_on,74,0,120
1,note_on,70,80,0
1,note_on,77,0,360
1,note_on,70,0,120
1,note_on,65,68,480
1,note_on,70,68,0
1,note_on,74,80,0
1,note_on,74,0,480
1,note_on,70,0,0
1,note_on,65,0,0
1,note_on,66,68,0
1,note_on,70,68,0
1,note_on,75,80,0
1,note_on,75,0,480
1,note_on,70,0,0
1,note_on,66,0,0
1,note_on,78,86,0
1,note_on,78,0,120
1,note_on,77,80,240
1,note_on,74,61,0
1,note_on,74,0,120
1,note_on,72,61,0
1,note_on,72,0,360
1,note_on,77,0,0
1,note_on,74,61,0
1,note_on,77,80,0
1,note_on,74,0,120
1,note_on,70,80,0
1,note_on,77,0,360
1,note_on,70,0,120
1,note_on,94,85,0
1,note_on,82,80,0
1,note_on,82,0,240
1,note_on,94,0,0
1,note_on,65,68,240
1,note_on,70,68,0
1,note_on,74,80,0
1,note_on,74,0,480
1,note_on,70,0,0
1,note_on,65,0,0
1,note_on,66,68,0
1,note_on,70,68,0
1,note_on,75,80,0
1,note_on,75,0,480
1,note_on,70,0,0
1,note_on,66,0,0
1,note_on,78,86,0
1,note_on,78,0,120
1,note_on,77,80,240
1,note_on,74,61,0
1,note_on,74,0,120
1,note_on,72,61,0
1,note_on,72,0,360
1,note_on,77,0,0
1,note_on,74,61,0
1,note_on,77,80,0
1,note_on,74,0,120
1,note_on,70,80,0
1,note_on,77,0,360
1,note_on,70,0,120
1,note_on,70,68,480
1,note_on,75,68,0
1,note_on,79,80,0
1,note_on,79,0,480
1,note_on,75,0,0
1,note_on,70,0,0
1,note_on,71,68,0
1,note_on,75,68,0
1,note_on,80,80,0
1,note_on,80,0,480
1,note_on,75,0,0
1,note_on,71,0,0
1,note_on,83,88,0
1,note_on,83,0,120
1,note_on,82,88,240
1,note_on,79,61,0
1,note_on,79,0,120
1,note_on,77,61,0
1,note_on,77,0,360
1,note_on,82,0,0
1,note_on,79,61,0
1,note_on,82,88,0
1,note_on,79,0,120
1,note_on,75,80,0
1,note_on,82,0,360
1,note_on,75,0,120
1,note_on,99,93,0
1,note_on,87,88,0
1,note_on,87,0,240
1,note_on,99,0,0
1,note_on,70,68,240
1,note_on,75,68,0
1,note_on,79,80,0
1,note_on,79,0,480
1,note_on,75,0,0
1,note_on,70,0,0
1,note_on,71,68,0
1,note_on,75,68,0
1,note_on,80,80,0
1,note_on,80,0,480
1,note_on,75,0,0
1,note_on,71,0,0
1,note_on,83,87,0
1,note_on,83,0,120
1,note_on,82,88,240
1,note_on,79,61,0
1,note_on,79,0,120
1,note_on,77,61,0
1,note_on,77,0,360
1,note_on,82,0,0
1,note_on,79,61,0
1,note_on,82,88,0
1,note_on,79,0,120
1,note_on,76,80,0
1,note_on,82,0,360
1,note_on,70,68,600
1,note_on,79,80,0
1,note_on,79,0,480
1,note_on,70,0,0
1,note_on,71,65,0
1,note_on,80,77,0
1,note_on,80,0,480
1,note_on,71,0,0
1,note_on,76,0,0
1,note_on,70,65,0
1,note_on,75,65,0
1,note_on,79,77,0
1,note_on,79,0,480
1,note_on,75,0,0
1,note_on,73,62,0
1,note_on,78,74,0
1,note_on,78,0,480
1,note_on,77,71,0
1,note_on,77,0,480
1,note_on,76,69,0
1,note_on,73,0,960
1,note_on,76,0,480
1,note_on,70,0,0
1,note_on,78,55,1440
1,note_on,78,0,240
1,note_on,83,50,0
1,note_on,83,0,240
1,note_on,79,50,0
1,note_on,79,0,60
1,note_on,81,50,0
1,note_on,81,0,60
1,note_on,79,57,0
1,note_on,79,0,360
1,note_on,78,53,0
1,note_on,78,0,240
1,note_on,76,50,0
1,note_on,76,0,240
1,note_on,78,55,0
1,note_on,78,0,240
1,note_on,71,50,0
1,note_on,71,0,1200
1,note_on,73,58,0
1,note_on,73,0,240
1,note_on,76,50,0
1,note_on,76,0,240
1,note_on,74,50,0
1,note_on,74,0,60
1,note_on,76,50,0
1,note_on,76,0,60
1,note_on,74,57,0
1,note_on,74,0,360
1,note_on,73,53,0
1,note_on,73,0,480
1,note_on,74,55,0
1,note_on,74,0,240
1,note_on,71,50,0
1,note_on,71,0,1200
1,note_on,73,58,0
1,note_on,73,0,240
1,note_on,71,50,0
1,note_on,71,0,240
1,note_on,69,46,0
1,note_on,69,0,60
1,note_on,71,47,0
1,note_on,71,0,60
1,note_on,69,55,0
1,note_on,69,0,360
1,note_on,68,53,0
1,note_on,68,0,480
1,note_on,69,55,0
1,note_on,69,0,240
1,note_on,73,50,0
1,note_on,73,0,480
1,note_on,61,68,240
1,note_on,61,0,720
1,note_on,59,60,0
1,note_on,59,0,240
1,note_on,57,57,0
1,note_on,57,0,60
1,note_on,59,57,0
1,note_on,59,0,60
1,note_on,57,68,0
1,note_on,57,0,360
1,note_on,56,67,0
1,note_on,56,0,480
1,note_on,57,71,0
1,note_on,57,0,480
1,note_on,61,67,0
1,note_on,61,0,960
1,note_on,59,71,0
1,note_on,59,0,480
1,note_on,57,68,0
1,note_on,57,0,480
1,note_on,61,68,0
1,note_on,61,0,480
1,note_on,59,63,0
1,note_on,59,0,60
1,note_on,61,63,0
1,note_on,61,0,60
1,note_on,59,73,0
1,note_on,59,0,120
1,note_on,57,66,0
1,note_on,57,0,237
1,note_on,61,72,3
1,note_on,61,0,480
1,note_on,61,68,0
1,note_on,61,0,480
1,note_on,59,61,0
1,note_on,59,0,60
1,note_on,61,61,0
1,note_on,61,0,60
1,note_on,59,72,0
1,note_on,59,0,360
1,note_on,58,72,0
1,note_on,58,0,480
1,note_on,61,68,0
1,note_on,61,0,480
1,note_on,59,62,0
1,note_on,59,0,60
1,note_on,61,63,0
1,note_on,61,0,60
1,note_on,59,73,0
1,note_on,59,0,120
1,note_on,58,66,0
1,note_on,58,0,240
1,note_on,66,72,0
1,note_on,66,0,480
1,note_on,78,58,0
1,note_on,78,0,720
1,note_on,83,50,0
1,note_on,83,0,240
1,note_on,79,50,0
1,note_on,79,0,60
1,note_on,81,50,0
1,note_on,81,0,60
1,note_on,79,57,0
1,note_on,79,0,360
1,note_on,78,53,0
1,note_on,78,0,240
1,note_on,76,50,0
1,note_on,76,0,240
1,note_on,78,55,0
1,note_on,78,0,240
1,note_on,71,50,0
1,note_on,71,0,1200
1,note_on,73,58,0
1,note_on,73,0,240
1,note_on,76,50,0
1,note_on,76,0,240
1,note_on,74,50,0
1,note_on,74,0,60
1,note_on,76,50,0
1,note_on,76,0,60
1,note_on,74,57,0
1,note_on,74,0,360
1,note_on,73,53,0
1,note_on,73,0,480
1,note_on,74,55,0
1,note_on,74,0,240
1,note_on,71,50,0
1,note_on,71,0,720
1,note_on,50,66,0
1,note_on,50,0,720
1,note_on,55,58,0
1,note_on,55,0,240
1,note_on,52,65,0
1,note_on,52,0,160
1,note_on,53,57,0
1,note_on,53,0,160
1,note_on,52,55,0
1,note_on,52,0,160
1,note_on,50,63,0
1,note_on,50,0,240
1,note_on,48,57,0
1,note_on,48,0,240
1,note_on,50,64,0
1,note_on,50,0,360
1,note_on,43,55,0
1,note_on,43,0,120
1,note_on,50,64,0
1,note_on,50,0,480
1,note_on,48,59,0
1,note_on,48,0,480
1,note_on,50,66,0
1,note_on,50,0,240
1,note_on,55,58,0
1,note_on,55,0,240
1,note_on,52,65,0
1,note_on,52,0,160
1,note_on,53,57,0
1,note_on,53,0,160
1,note_on,52,55,0
1,note_on,52,0,160
1,note_on,50,63,0
1,note_on,50,0,240
1,note_on,48,57,0
1,note_on,48,0,240
1,note_on,50,64,0
1,note_on,50,0,360
1,note_on,43,54,0
1,note_on,43,0,120
1,note_on,50,62,0
1,note_on,50,0,480
1,note_on,48,56,0
1,note_on,48,0,480
1,note_on,50,60,0
1,note_on,50,0,360
1,note_on,43,51,0
1,note_on,43,0,120
1,note_on,48,58,0
1,note_on,48,0,480
1,note_on,50,57,0
1,note_on,50,0,360
1,note_on,43,48,0
1,note_on,43,0,120
1,note_on,48,56,0
1,note_on,48,0,480
1,note_on,50,55,0
1,note_on,50,0,360
1,note_on,43,46,0
1,note_on,43,0,120
1,note_on,48,53,0
1,note_on,48,0,480
1,note_on,43,52,0
1,note_on,43,0,1440
1,note_on,42,48,0
1,note_on,42,0,1440
1,note_on,78,55,0
1,note_on,78,0,240
1,note_on,83,50,0
1,note_on,83,0,240
1,note_on,79,50,0
1,note_on,79,0,60
1,note_on,81,50,0
1,note_on,81,0,60
1,note_on,79,57,0
1,note_on,79,0,360
1,note_on,78,53,0
1,note_on,78,0,240
1,note_on,76,50,0
1,note_on,76,0,240
1,note_on,78,55,0
1,note_on,78,0,240
1,note_on,71,50,0
1,note_on,71,0,1200
1,note_on,73,58,0
1,note_on,73,0,240
1,note_on,76,50,0
1,note_on,76,0,240
1,note_on,74,50,0
1,note_on,74,0,60
1,note_on,76,50,0
1,note_on,76,0,60
1,note_on,74,57,0
1,note_on,74,0,360
1,note_on,73,53,0
1,note_on,73,0,480
1,note_on,74,55,0
1,note_on,74,0,240
1,note_on,71,50,0
1,note_on,71,0,1200
1,note_on,73,58,0
1,note_on,73,0,240
1,note_on,71,50,0
1,note_on,71,0,240
1,note_on,69,46,0
1,note_on,69,0,60
1,note_on,71,47,0
1,note_on,71,0,60
1,note_on,69,55,0
1,note_on,69,0,360
1,note_on,68,53,0
1,note_on,68,0,480
1,note_on,69,55,0
1,note_on,69,0,240
1,note_on,73,50,0
1,note_on,73,0,480
1,note_on,61,68,240
1,note_on,61,0,720
1,note_on,59,60,0
1,note_on,59,0,240
1,note_on,57,57,0
1,note_on,57,0,60
1,note_on,59,57,0
1,note_on,59,0,60
1,note_on,57,68,0
1,note_on,57,0,360
1,note_on,56,67,0
1,note_on,56,0,480
1,note_on,57,71,0
1,note_on,57,0,480
1,note_on,61,67,0
1,note_on,61,0,960
1,note_on,59,71,0
1,note_on,59,0,480
1,note_on,57,68,0
1,note_on,57,0,480
1,note_on,61,68,0
1,note_on,61,0,480
1,note_on,59,63,0
1,note_on,59,0,60
1,note_on,61,63,0
1,note_on,61,0,60
1,note_on,59,73,0
1,note_on,59,0,120
1,note_on,57,66,0
1,note_on,57,0,240
1,note_on,61,72,0
1,note_on,61,0,480
1,note_on,61,68,0
1,note_on,61,0,480
1,note_on,59,61,0
1,note_on,59,0,60
1,note_on,61,61,0
1,note_on,61,0,60
1,note_on,59,72,0
1,note_on,59,0,360
1,note_on,58,72,0
1,note_on,58,0,474
1,note_on,61,68,6
1,note_on,61,0,480
1,note_on,59,62,0
1,note_on,59,0,60
1,note_on,61,63,0
1,note_on,61,0,60
1,note_on,59,73,0
1,note_on,59,0,120
1,note_on,58,66,0
1,note_on,58,0,240
1,note_on,66,72,0
1,note_on,66,0,480
1,note_on,78,58,0
1,note_on,78,0,720
1,note_on,83,50,0
1,note_on,83,0,240
1,note_on,79,50,0
1,note_on,79,0,60
1,note_on,81,50,0
1,note_on,81,0,60
1,note_on,79,57,0
1,note_on,79,0,360
1,note_on,78,53,0
1,note_on,78,0,240
1,note_on,76,50,0
1,note_on,76,0,240
1,note_on,78,55,0
1,note_on,78,0,240
1,note_on,71,50,0
1,note_on,71,0,1200
1,note_on,73,58,0
1,note_on,73,0,240
1,note_on,76,50,0
1,note_on,76,0,240
1,note_on,74,50,0
1,note_on,74,0,60
1,note_on,76,50,0
1,note_on,76,0,60
1,note_on,74,57,0
1,note_on,74,0,360
1,note_on,73,53,0
1,note_on,73,0,480
1,note_on,74,55,0
1,note_on,74,0,240
1,note_on,71,50,0
1,note_on,71,0,720
1,note_on,50,66,0
1,note_on,50,0,720
1,note_on,55,58,0
1,note_on,55,0,240
1,note_on,52,65,0
1,note_on,52,0,160
1,note_on,53,57,0
1,note_on,53,0,160
1,note_on,52,55,0
1,note_on,52,0,160
1,note_on,50,63,0
1,note_on,50,0,240
1,note_on,48,57,0
1,note_on,48,0,240
1,note_on,50,64,0
1,note_on,50,0,360
1,note_on,43,55,0
1,note_on,43,0,120
1,note_on,50,64,0
1,note_on,50,0,480
1,note_on,48,59,0
1,note_on,48,0,480
1,note_on,50,66,0
1,note_on,50,0,240
1,note_on,55,58,0
1,note_on,55,0,240
1,note_on,52,65,0
1,note_on,52,0,160
1,note_on,53,57,0
1,note_on,53,0,160
1,note_on,52,55,0
1,note_on,52,0,160
1,note_on,50,63,0
1,note_on,50,0,240
1,note_on,48,57,0
1,note_on,48,0,240
1,note_on,50,64,0
1,note_on,50,0,360
1,note_on,43,54,0
1,note_on,43,0,120
1,note_on,50,62,0
1,note_on,50,0,480
1,note_on,48,56,0
1,note_on,48,0,480
1,note_on,50,60,0
1,note_on,50,0,360
1,note_on,43,51,0
1,note_on,43,0,120
1,note_on,48,58,0
1,note_on,48,0,480
1,note_on,50,57,0
1,note_on,50,0,360
1,note_on,43,48,0
1,note_on,43,0,120
1,note_on,48,56,0
1,note_on,48,0,480
1,note_on,50,55,0
1,note_on,50,0,360
1,note_on,43,46,0
1,note_on,43,0,120
1,note_on,48,53,0
1,note_on,48,0,480
1,note_on,43,52,0
1,note_on,43,0,1440
1,note_on,42,60,0
1,note_on,42,0,960
1,note_on,41,66,0
1,note_on,41,0,480
1,note_on,65,68,480
1,note_on,70,68,0
1,note_on,74,80,0
1,note_on,74,0,480
1,note_on,70,0,0
1,note_on,65,0,0
1,note_on,66,68,0
1,note_on,70,68,0
1,note_on,75,80,0
1,note_on,75,0,480
1,note_on,70,0,0
1,note_on,66,0,0
1,note_on,78,86,0
1,note_on,78,0,120
1,note_on,77,80,240
1,note_on,74,61,0
1,note_on,74,0,120
1,note_on,72,61,0
1,note_on,72,0,360
1,note_on,77,0,0
1,note_on,74,61,0
1,note_on,77,80,0
1,note_on,74,0,120
1,note_on,70,80,0
1,note_on,77,0,360
1,note_on,70,0,120
1,note_on,82,85,0
1,note_on,82,0,240
1,note_on,65,68,240
1,note_on,70,68,0
1,note_on,74,80,0
1,note_on,74,0,480
1,note_on,70,0,0
1,note_on,65,0,0
1,note_on,66,68,0
1,note_on,70,68,0
1,note_on,75,80,0
1,note_on,75,0,480
1,note_on,70,0,0
1,note_on,66,0,0
1,note_on,78,86,0
1,note_on,78,0,120
1,note_on,77,80,240
1,note_on,74,61,0
1,note_on,74,0,120
1,note_on,72,61,0
1,note_on,72,0,360
1,note_on,77,0,0
1,note_on,74,61,0
1,note_on,77,80,0
1,note_on,74,0,120
1,note_on,70,80,0
1,note_on,77,0,360
1,note_on,70,0,120
1,note_on,65,68,480
1,note_on,70,68,0
1,note_on,74,80,0
1,note_on,74,0,480
1,note_on,70,0,0
1,note_on,65,0,0
1,note_on,66,68,0
1,note_on,70,68,0
1,note_on,75,80,0
1,note_on,75,0,480
1,note_on,70,0,0
1,note_on,66,0,0
1,note_on,78,86,0
1,note_on,78,0,120
1,note_on,77,80,240
1,note_on,74,61,0
1,note_on,74,0,120
1,note_on,72,61,0
1,note_on,72,0,360
1,note_on,77,0,0
1,note_on,74,61,0
1,note_on,77,80,0
1,note_on,74,0,120
1,note_on,70,80,0
1,note_on,77,0,360
1,note_on,70,0,120
1,note_on,94,85,0
1,note_on,82,80,0
1,note_on,82,0,240
1,note_on,94,0,0
1,note_on,65,68,240
1,note_on,70,68,0
1,note_on,74,80,0
1,note_on,74,0,480
1,note_on,70,0,0
1,note_on,65,0,0
1,note_on,66,68,0
1,note_on,70,68,0
1,note_on,75,80,0
1,note_on,75,0,480
1,note_on,70,0,0
1,note_on,66,0,0
1,note_on,78,86,0
1,note_on,78,0,120
1,note_on,77,80,240
1,note_on,74,61,0
1,note_on,74,0,120
1,note_on,72,61,0
1,note_on,72,0,360
1,note_on,77,0,0
1,note_on,74,61,0
1,note_on,77,80,0
1,note_on,74,0,120
1,note_on,70,80,0
1,note_on,77,0,360
1,note_on,70,0,120
1,note_on,70,68,480
1,note_on,75,68,0
1,note_on,79,80,0
1,note_on,79,0,480
1,note_on,75,0,0
1,note_on,70,0,0
1,note_on,71,68,0
1,note_on,75,68,0
1,note_on,80,80,0
1,note_on,80,0,480
1,note_on,75,0,0
1,note_on,71,0,0
1,note_on,83,88,0
1,note_on,83,0,120
1,note_on,82,88,240
1,note_on,79,61,0
1,note_on,79,0,120
1,note_on,77,61,0
1,note_on,77,0,360
1,note_on,82,0,0
1,note_on,79,61,0
1,note_on,82,88,0
1,note_on,79,0,120
1,note_on,75,80,0
1,note_on,82,0,360
1,note_on,75,0,120
1,note_on,99,93,0
1,note_on,87,88,0
1,note_on,87,0,240
1,note_on,99,0,0
1,note_on,70,68,240
1,note_on,75,68,0
1,note_on,79,80,0
1,note_on,79,0,480
1,note_on,75,0,0
1,note_on,70,0,0
1,note_on,71,68,0
1,note_on,75,68,0
1,note_on,80,80,0
1,note_on,80,0,480
1,note_on,75,0,0
1,note_on,71,0,0
1,note_on,83,87,0
1,note_on,83,0,120
1,note_on,82,88,240
1,note_on,79,61,0
1,note_on,79,0,120
1,note_on,77,61,0
1,note_on,77,0,360
1,note_on,82,0,0
1,note_on,79,61,0
1,note_on,82,88,0
1,note_on,79,0,120
1,note_on,76,80,0
1,note_on,82,0,360
1,note_on,70,68,600
1,note_on,79,80,0
1,note_on,79,0,480
1,note_on,70,0,0
1,note_on,71,65,0
1,note_on,80,77,0
1,note_on,80,0,480
1,note_on,71,0,0
1,note_on,76,0,0
1,note_on,70,65,0
1,note_on,75,65,0
1,note_on,79,77,0
1,note_on,79,0,480
1,note_on,75,0,0
1,note_on,73,62,0
1,note_on,78,74,0
1,note_on,78,0,480
1,note_on,77,71,0
1,note_on,77,0,480
1,note_on,76,69,0
1,note_on,76,0,1440
1,note_on,73,0,0
1,note_on,70,0,0
1,note_on,75,59,1440
1,note_on,75,0,240
1,note_on,76,61,0
1,note_on,76,0,240
1,note_on,77,63,0
1,note_on,77,0,480
1,note_on,78,70,0
1,note_on,78,0,480
1,note_on,79,77,0
1,note_on,79,0,360
1,note_on,80,64,0
1,note_on,80,0,120
1,note_on,76,76,0
1,note_on,76,0,720
1,note_on,75,67,0
1,note_on,75,0,240
1,note_on,75,71,0
1,note_on,75,0,240
1,note_on,73,59,0
1,note_on,73,0,60
1,note_on,75,60,0
1,note_on,75,0,60
1,note_on,73,69,0
1,note_on,73,0,120
1,note_on,72,67,0
1,note_on,72,0,480
1,note_on,73,70,0
1,note_on,73,0,480
1,note_on,76,74,0
1,note_on,76,0,960
1,note_on,75,64,0
1,note_on,75,0,480
1,note_on,71,58,0
1,note_on,71,0,240
1,note_on,73,60,0
1,note_on,73,0,240
1,note_on,74,63,0
1,note_on,74,0,480
1,note_on,75,68,0
1,note_on,75,0,480
1,note_on,78,72,0
1,note_on,78,0,240
1,note_on,76,64,0
1,note_on,76,0,240
1,note_on,73,70,0
1,note_on,73,0,480
1,note_on,68,56,0
1,note_on,68,0,60
1,note_on,70,56,0
1,note_on,70,0,60
1,note_on,68,64,0
1,note_on,68,0,360
1,note_on,67,64,0
1,note_on,67,0,360
1,note_on,68,61,0
1,note_on,68,0,120
1,note_on,71,64,0
1,note_on,71,0,480
1,note_on,70,64,0
1,note_on,70,0,480
1,note_on,67,69,0
1,note_on,67,0,960
1,note_on,66,64,0
1,note_on,66,0,480
1,note_on,75,59,0
1,note_on,75,0,240
1,note_on,76,61,0
1,note_on,76,0,240
1,note_on,78,63,0
1,note_on,78,0,480
1,note_on,87,69,0
1,note_on,87,0,480
1,note_on,85,69,0
1,note_on,85,0,240
1,note_on,83,64,0
1,note_on,83,0,240
1,note_on,80,69,0
1,note_on,80,0,480
1,note_on,76,67,0
1,note_on,76,0,480
1,note_on,75,71,0
1,note_on,75,0,240
1,note_on,73,59,0
1,note_on,73,0,60
1,note_on,75,60,0
1,note_on,75,0,60
1,note_on,73,69,0
1,note_on,73,0,120
1,note_on,72,67,0
1,note_on,72,0,480
1,note_on,73,70,0
1,note_on,73,0,480
1,note_on,76,71,0
1,note_on,76,0,960
1,note_on,75,64,0
1,note_on,75,0,480
1,note_on,75,77,0
1,note_on,75,0,720
1,note_on,75,64,0
1,note_on,75,0,60
1,note_on,77,64,0
1,note_on,77,0,60
1,note_on,75,72,0
1,note_on,75,0,120
1,note_on,73,74,0
1,note_on,73,0,240
1,note_on,71,71,0
1,note_on,71,0,240
1,note_on,70,79,0
1,note_on,70,0,240
1,note_on,75,73,0
1,note_on,75,0,240
1,note_on,78,80,0
1,note_on,78,0,480
1,note_on,83,79,0
1,note_on,83,0,480
1,note_on,82,81,0
1,note_on,82,0,240
1,note_on,77,70,0
1,note_on,77,0,240
1,note_on,80,80,0
1,note_on,80,0,720
1,note_on,78,77,0
1,note_on,78,0,240
1,note_on,75,81,0
1,note_on,75,0,480
1,note_on,66,80,0
1,note_on,66,0,240
1,note_on,78,79,0
1,note_on,78,0,240
1,note_on,77,78,0
1,note_on,77,0,240
1,note_on,76,70,0
1,note_on,76,0,240
1,note_on,75,67,0
1,note_on,75,0,240
1,note_on,76,70,0
1,note_on,76,0,240
1,note_on,77,72,0
1,note_on,77,0,480
1,note_on,78,75,0
1,note_on,78,0,480
1,note_on,79,75,0
1,note_on,79,0,360
1,note_on,80,64,0
1,note_on,80,0,120
1,note_on,76,69,0
1,note_on,76,0,720
1,note_on,75,67,0
1,note_on,75,0,240
1,note_on,75,71,0
1,note_on,75,0,240
1,note_on,73,59,0
1,note_on,73,0,60
1,note_on,75,60,0
1,note_on,75,0,60
1,note_on,73,69,0
1,note_on,73,0,120
1,note_on,72,67,0
1,note_on,72,0,480
1,note_on,73,70,0
1,note_on,73,0,480
1,note_on,76,73,0
1,note_on,76,0,960
1,note_on,75,64,0
1,note_on,75,0,480
1,note_on,71,58,0
1,note_on,71,0,240
1,note_on,73,60,0
1,note_on,73,0,240
1,note_on,74,63,0
1,note_on,74,0,480
1,note_on,75,67,0
1,note_on,75,0,480
1,note_on,78,69,0
1,note_on,78,0,240
1,note_on,76,64,0
1,note_on,76,0,240
1,note_on,73,70,0
1,note_on,73,0,480
1,note_on,68,56,0
1,note_on,68,0,60
1,note_on,70,56,0
1,note_on,70,0,60
1,note_on,68,64,0
1,note_on,68,0,360
1,note_on,67,64,0
1,note_on,67,0,360
1,note_on,68,61,0
1,note_on,68,0,120
1,note_on,71,64,0
1,note_on,71,0,480
1,note_on,70,64,0
1,note_on,70,0,480
1,note_on,67,69,0
1,note_on,67,0,960
1,note_on,66,64,0
1,note_on,66,0,480
1,note_on,75,59,0
1,note_on,75,0,240
1,note_on,76,61,0
1,note_on,76,0,240
1,note_on,78,63,0
1,note_on,78,0,480
1,note_on,87,69,0
1,note_on,87,0,480
1,note_on,85,69,0
1,note_on,85,0,240
1,note_on,83,64,0
1,note_on,83,0,240
1,note_on,80,69,0
1,note_on,80,0,480
1,note_on,76,67,0
1,note_on,76,0,480
1,note_on,75,71,0
1,note_on,75,0,240
1,note_on,73,59,0
1,note_on,73,0,60
1,note_on,75,60,0
1,note_on,75,0,60
1,note_on,73,69,0
1,note_on,73,0,120
1,note_on,72,67,0
1,note_on,72,0,480
1,note_on,73,70,0
1,note_on,73,0,480
1,note_on,76,71,0
1,note_on,76,0,960
1,note_on,75,64,0
1,note_on,75,0,480
1,note_on,75,67,0
1,note_on,75,0,720
1,note_on,75,56,0
1,note_on,75,0,60
1,note_on,77,56,0
1,note_on,77,0,60
1,note_on,75,63,0
1,note_on,75,0,120
1,note_on,73,65,0
1,note_on,73,0,240
1,note_on,71,62,0
1,note_on,71,0,240
1,note_on,70,69,0
1,note_on,70,0,240
1,note_on,75,64,0
1,note_on,75,0,240
1,note_on,78,70,0
1,note_on,78,0,480
1,note_on,83,69,0
1,note_on,83,0,480
1,note_on,82,71,0
1,note_on,82,0,240
1,note_on,77,61,0
1,note_on,77,0,240
1,note_on,80,70,0
1,note_on,80,0,720
1,note_on,78,67,0
1,note_on,78,0,240
1,note_on,75,71,0
1,note_on,75,0,960
1,note_on,78,75,0
1,note_on,78,0,480
1,note_on,92,82,0
1,note_on,80,69,0
1,note_on,80,0,360
1,note_on,92,0,0
1,note_on,90,77,0
1,note_on,78,65,0
1,note_on,78,0,120
1,note_on,90,0,0
1,note_on,88,76,0
1,note_on,76,64,0
1,note_on,76,0,360
1,note_on,88,0,0
1,note_on,64,63,120
1,note_on,70,75,0
1,note_on,70,0,480
1,note_on,64,0,0
1,note_on,63,64,0
1,note_on,71,76,0
1,note_on,71,0,240
1,note_on,63,0,0
1,note_on,66,62,120
1,note_on,73,73,0
1,note_on,73,0,120
1,note_on,66,0,0
1,note_on,71,68,0
1,note_on,75,81,0
1,note_on,75,0,480
1,note_on,71,0,0
1,note_on,78,65,0
1,note_on,90,77,0
1,note_on,90,0,480
1,note_on,78,0,0
1,note_on,92,82,0
1,note_on,80,69,0
1,note_on,80,0,360
1,note_on,92,0,0
1,note_on,90,77,0
1,note_on,78,65,0
1,note_on,78,0,120
1,note_on,90,0,0
1,note_on,88,76,0
1,note_on,76,64,0
1,note_on,76,0,360
1,note_on,88,0,0
1,note_on,64,63,120
1,note_on,70,75,0
1,note_on,70,0,480
1,note_on,64,0,0
1,note_on,63,64,0
1,note_on,71,76,0
1,note_on,71,0,240
1,note_on,63,0,0
1,note_on,66,62,120
1,note_on,73,73,0
1,note_on,73,0,120
1,note_on,66,0,0
1,note_on,71,68,0
1,note_on,75,81,0
1,note_on,75,0,480
1,note_on,71,0,0
1,note_on,75,65,0
1,note_on,78,77,0
1,note_on,78,0,480
1,note_on,75,0,0
1,note_on,85,69,0
1,note_on,88,81,0
1,note_on,88,0,120
1,note_on,85,0,0
1,note_on,78,62,240
1,note_on,82,73,0
1,note_on,82,0,120
1,note_on,78,0,0
1,note_on,76,66,0
1,note_on,80,73,0
1,note_on,80,0,360
1,note_on,76,0,0
1,note_on,78,62,0
1,note_on,82,73,0
1,note_on,82,0,120
1,note_on,78,0,0
1,note_on,76,65,0
1,note_on,80,77,0
1,note_on,80,0,480
1,note_on,76,0,0
1,note_on,83,69,0
1,note_on,87,81,0
1,note_on,87,0,120
1,note_on,83,0,0
1,note_on,76,62,240
1,note_on,80,73,0
1,note_on,80,0,120
1,note_on,76,0,0
1,note_on,75,66,0
1,note_on,78,73,0
1,note_on,78,0,360
1,note_on,75,0,0
1,note_on,76,62,0
1,note_on,80,73,0
1,note_on,80,0,120
1,note_on,76,0,0
1,note_on,75,65,0
1,note_on,78,77,0
1,note_on,78,0,480
1,note_on,75,0,0
1,note_on,82,69,0
1,note_on,85,81,0
1,note_on,85,0,120
1,note_on,82,0,0
1,note_on,75,62,240
1,note_on,78,73,0
1,note_on,78,0,120
1,note_on,75,0,0
1,note_on,73,66,0
1,note_on,76,73,0
1,note_on,76,0,360
1,note_on,73,0,0
1,note_on,75,62,0
1,note_on,78,73,0
1,note_on,78,0,120
1,note_on,75,0,0
1,note_on,73,65,0
1,note_on,76,77,0
1,note_on,76,0,480
1,note_on,73,0,0
1,note_on,71,58,0
1,note_on,75,69,0
1,note_on,75,0,120
1,note_on,71,0,0
1,note_on,73,52,240
1,note_on,76,62,0
1,note_on,76,0,120
1,note_on,73,0,0
1,note_on,74,56,0
1,note_on,80,67,0
1,note_on,80,0,480
1,note_on,74,0,0
1,note_on,75,50,0
1,note_on,78,59,0
1,note_on,78,0,480
1,note_on,75,0,0
1,note_on,92,82,0
1,note_on,80,69,0
1,note_on,80,0,360
1,note_on,92,0,0
1,note_on,90,77,0
1,note_on,78,65,0
1,note_on,78,0,120
1,note_on,90,0,0
1,note_on,88,76,0
1,note_on,76,64,0
1,note_on,76,0,360
1,note_on,88,0,0
1,note_on,64,63,120
1,note_on,70,75,0
1,note_on,70,0,480
1,note_on,64,0,0
1,note_on,63,64,0
1,note_on,71,76,0
1,note_on,71,0,240
1,note_on,63,0,0
1,note_on,66,62,120
1,note_on,73,73,0
1,note_on,73,0,120
1,note_on,66,0,0
1,note_on,71,68,0
1,note_on,75,81,0
1,note_on,75,0,480
1,note_on,71,0,0
1,note_on,78,65,0
1,note_on,90,77,0
1,note_on,90,0,480
1,note_on,78,0,0
1,note_on,92,82,0
1,note_on,80,69,0
1,note_on,80,0,360
1,note_on,92,0,0
1,note_on,90,77,0
1,note_on,78,65,0
1,note_on,78,0,120
1,note_on,90,0,0
1,note_on,88,76,0
1,note_on,76,64,0
1,note_on,76,0,360
1,note_on,88,0,0
1,note_on,64,63,120
1,note_on,70,75,0
1,note_on,70,0,480
1,note_on,64,0,0
1,note_on,63,64,0
1,note_on,71,76,0
1,note_on,71,0,240
1,note_on,63,0,0
1,note_on,66,62,120
1,note_on,73,73,0
1,note_on,73,0,120
1,note_on,66,0,0
1,note_on,71,68,0
1,note_on,75,81,0
1,note_on,75,0,480
1,note_on,71,0,0
1,note_on,75,65,0
1,note_on,78,77,0
1,note_on,78,0,480
1,note_on,75,0,0
1,note_on,85,69,0
1,note_on,88,81,0
1,note_on,88,0,120
1,note_on,85,0,0
1,note_on,78,62,240
1,note_on,82,73,0
1,note_on,82,0,120
1,note_on,78,0,0
1,note_on,76,66,0
1,note_on,80,73,0
1,note_on,80,0,360
1,note_on,76,0,0
1,note_on,78,62,0
1,note_on,82,73,0
1,note_on,82,0,120
1,note_on,78,0,0
1,note_on,76,65,0
1,note_on,80,77,0
1,note_on,80,0,480
1,note_on,76,0,0
1,note_on,83,69,0
1,note_on,87,81,0
1,note_on,87,0,120
1,note_on,83,0,0
1,note_on,76,62,240
1,note_on,80,73,0
1,note_on,80,0,120
1,note_on,76,0,0
1,note_on,75,66,0
1,note_on,78,73,0
1,note_on,78,0,360
1,note_on,75,0,0
1,note_on,76,62,0
1,note_on,80,73,0
1,note_on,80,0,120
1,note_on,76,0,0
1,note_on,75,65,0
1,note_on,78,77,0
1,note_on,78,0,480
1,note_on,75,0,0
1,note_on,82,69,0
1,note_on,85,81,0
1,note_on,85,0,120
1,note_on,82,0,0
1,note_on,75,62,240
1,note_on,78,73,0
1,note_on,78,0,120
1,note_on,75,0,0
1,note_on,73,66,0
1,note_on,76,73,0
1,note_on,76,0,360
1,note_on,73,0,0
1,note_on,75,62,0
1,note_on,78,73,0
1,note_on,78,0,120
1,note_on,75,0,0
1,note_on,73,65,0
1,note_on,76,77,0
1,note_on,76,0,480
1,note_on,73,0,0
1,note_on,78,46,24480
1,note_on,78,0,240
1,note_on,83,42,0
1,note_on,83,0,240
1,note_on,79,42,0
1,note_on,79,0,60
1,note_on,81,42,0
1,note_on,81,0,60
1,note_on,79,48,0
1,note_on,79,0,360
1,note_on,78,45,0
1,note_on,78,0,240
1,note_on,76,42,0
1,note_on,76,0,240
1,note_on,78,46,0
1,note_on,78,0,240
1,note_on,71,42,0
1,note_on,71,0,1200
1,note_on,73,49,0
1,note_on,73,0,240
1,note_on,76,42,0
1,note_on,76,0,240
1,note_on,74,42,0
1,note_on,74,0,60
1,note_on,76,42,0
1,note_on,76,0,60
1,note_on,74,48,0
1,note_on,74,0,360
1,note_on,73,45,0
1,note_on,73,0,480
1,note_on,74,46,0
1,note_on,74,0,240
1,note_on,71,42,0
1,note_on,71,0,1200
1,note_on,73,55,0
1,note_on,73,0,240
1,note_on,71,47,0
1,note_on,71,0,240
1,note_on,69,43,0
1,note_on,69,0,60
1,note_on,71,44,0
1,note_on,71,0,60
1,note_on,69,52,0
1,note_on,69,0,360
1,note_on,68,50,0
1,note_on,68,0,480
1,note_on,69,52,0
1,note_on,69,0,240
1,note_on,73,47,0
1,note_on,73,0,480
1,note_on,61,68,240
1,note_on,61,0,720
1,note_on,59,60,0
1,note_on,59,0,240
1,note_on,57,57,0
1,note_on,57,0,60
1,note_on,59,57,0
1,note_on,59,0,60
1,note_on,57,68,0
1,note_on,57,0,360
1,note_on,56,67,0
1,note_on,56,0,480
1,note_on,57,71,0
1,note_on,57,0,480
1,note_on,61,67,0
1,note_on,61,0,960
1,note_on,59,71,0
1,note_on,59,0,480
1,note_on,57,68,0
1,note_on,57,0,476
1,note_on,61,68,4
1,note_on,61,0,480
1,note_on,59,63,0
1,note_on,59,0,60
1,note_on,61,63,0
1,note_on,61,0,60
1,note_on,59,73,0
1,note_on,59,0,120
1,note_on,57,66,0
1,note_on,57,0,240
1,note_on,61,72,0
1,note_on,61,0,480
1,note_on,61,68,0
1,note_on,61,0,480
1,note_on,59,61,0
1,note_on,59,0,60
1,note_on,61,61,0
1,note_on,61,0,60
1,note_on,59,72,0
1,note_on,59,0,360
1,note_on,58,72,0
1,note_on,58,0,475
1,note_on,61,68,5
1,note_on,61,0,480
1,note_on,59,62,0
1,note_on,59,0,60
1,note_on,61,63,0
1,note_on,61,0,60
1,note_on,59,73,0
1,note_on,59,0,120
1,note_on,58,66,0
1,note_on,58,0,240
1,note_on,66,72,0
1,note_on,66,0,480
1,note_on,78,58,0
1,note_on,78,0,720
1,note_on,83,50,0
1,note_on,83,0,240
1,note_on,79,50,0
1,note_on,79,0,60
1,note_on,81,50,0
1,note_on,81,0,60
1,note_on,79,57,0
1,note_on,79,0,360
1,note_on,78,53,0
1,note_on,78,0,240
1,note_on,76,50,0
1,note_on,76,0,240
1,note_on,78,55,0
1,note_on,78,0,240
1,note_on,71,50,0
1,note_on,71,0,1200
1,note_on,73,58,0
1,note_on,73,0,240
1,note_on,76,50,0
1,note_on,76,0,240
1,note_on,74,50,0
1,note_on,74,0,60
1,note_on,76,50,0
1,note_on,76,0,60
1,note_on,74,57,0
1,note_on,74,0,360
1,note_on,73,53,0
1,note_on,73,0,480
1,note_on,74,55,0
1,note_on,74,0,240
1,note_on,71,50,0
1,note_on,71,0,720
1,note_on,50,66,0
1,note_on,50,0,720
1,note_on,55,58,0
1,note_on,55,0,240
1,note_on,52,65,0
1,note_on,52,0,160
1,note_on,53,57,0
1,note_on,53,0,160
1,note_on,52,55,0
1,note_on,52,0,160
1,note_on,50,63,0
1,note_on,50,0,240
1,note_on,48,57,0
1,note_on,48,0,240
1,note_on,50,64,0
1,note_on,50,0,360
1,note_on,43,55,0
1,note_on,43,0,120
1,note_on,50,64,0
1,note_on,50,0,480
1,note_on,48,59,0
1,note_on,48,0,480
1,note_on,50,66,0
1,note_on,50,0,240
1,note_on,55,58,0
1,note_on,55,0,240
1,note_on,52,65,0
1,note_on,52,0,160
1,note_on,53,57,0
1,note_on,53,0,160
1,note_on,52,55,0
1,note_on,52,0,160
1,note_on,50,63,0
1,note_on,50,0,240
1,note_on,48,57,0
1,note_on,48,0,240
1,note_on,50,64,0
1,note_on,50,0,360
1,note_on,43,54,0
1,note_on,43,0,120
1,note_on,50,62,0
1,note_on,50,0,480
1,note_on,48,56,0
1,note_on,48,0,480
1,note_on,50,60,0
1,note_on,50,0,360
1,note_on,43,51,0
1,note_on,43,0,120
1,note_on,48,58,0
1,note_on,48,0,480
1,note_on,50,57,0
1,note_on,50,0,360
1,note_on,43,48,0
1,note_on,43,0,120
1,note_on,48,56,0
1,note_on,48,0,480
1,note_on,50,55,0
1,note_on,50,0,360
1,note_on,43,46,0
1,note_on,43,0,120
1,note_on,48,53,0
1,note_on,48,0,480
1,note_on,50,54,0
1,note_on,50,0,360
1,note_on,43,45,0
1,note_on,43,0,120
1,note_on,50,51,0
1,note_on,50,0,480
1,note_on,48,45,0
1,note_on,48,0,480
1,note_on,50,50,0
1,note_on,50,0,360
1,note_on,43,41,0
1,note_on,43,0,120
1,note_on,50,46,0
1,note_on,50,0,480
1,note_on,48,41,0
1,note_on,48,0,480
1,note_on,67,54,8640
1,note_on,67,0,480
1,note_on,60,59,0
1,note_on,60,0,720
1,note_on,59,52,0
1,note_on,59,0,240
1,note_on,52,50,0
1,note_on,58,59,0
1,note_on,61,59,0
1,note_on,61,0,360
1,note_on,58,0,0
1,note_on,52,0,0
1,note_on,54,45,0
1,note_on,52,49,120
1,note_on,58,58,0
1,note_on,61,58,0
1,note_on,61,0,480
1,note_on,54,0,0
1,note_on,52,0,0
1,note_on,58,0,0
1,note_on,50,47,0
1,note_on,54,47,0
1,note_on,59,56,0
1,note_on,59,0,480
1,note_on,54,0,0
1,note_on,50,0,0
2,note_on,47,50,1440
2,note_on,47,0,427
2,note_on,64,40,0
2,note_on,59,34,0
2,note_on,55,34,0
2,note_on,55,0,480
2,note_on,59,0,0
2,note_on,64,0,0
2,note_on,64,39,0
2,note_on,59,33,0
2,note_on,55,33,0
2,note_on,55,0,480
2,note_on,59,0,0
2,note_on,64,0,0
2,note_on,47,50,0
2,note_on,47,0,282
2,note_on,62,31,0
2,note_on,59,26,0
2,note_on,54,26,0
2,note_on,54,0,480
2,note_on,59,0,0
2,note_on,62,0,0
2,note_on,62,31,0
2,note_on,59,26,0
2,note_on,54,26,0
2,note_on,54,0,480
2,note_on,59,0,0
2,note_on,62,0,0
2,note_on,47,50,0
2,note_on,47,0,434
2,note_on,64,40,0
2,note_on,58,34,0
2,note_on,54,34,0
2,note_on,54,0,480
2,note_on,58,0,0
2,note_on,64,0,0
2,note_on,64,39,0
2,note_on,58,33,0
2,note_on,54,33,0
2,note_on,54,0,468
2,note_on,58,0,0
2,note_on,64,0,0
2,note_on,47,50,0
2,note_on,47,0,282
2,note_on,62,31,0
2,note_on,59,26,0
2,note_on,54,26,0
2,note_on,54,0,480
2,note_on,59,0,0
2,note_on,62,0,0
2,note_on,62,31,0
2,note_on,59,26,0
2,note_on,54,26,0
2,note_on,54,0,480
2,note_on,59,0,0
2,note_on,62,0,0
2,note_on,37,50,0
2,note_on,37,0,434
2,note_on,59,40,0
2,note_on,53,34,0
2,note_on,49,34,0
2,note_on,49,0,360
2,note_on,53,0,0
2,note_on,59,0,0
2,note_on,59,39,0
2,note_on,53,33,0
2,note_on,49,33,0
2,note_on,49,0,473
2,note_on,53,0,0
2,note_on,59,0,0
2,note_on,42,50,0
2,note_on,42,0,282
2,note_on,57,37,0
2,note_on,49,31,0
2,note_on,49,0,480
2,note_on,57,0,0
2,note_on,49,47,3343
2,note_on,56,58,0
2,note_on,56,0,480
2,note_on,54,55,0
2,note_on,54,0,183
2,note_on,57,55,0
2,note_on,57,0,480
2,note_on,49,0,0
2,note_on,49,47,0
2,note_on,56,57,0
2,note_on,56,0,232
2,note_on,54,51,0
2,note_on,54,0,240
2,note_on,57,56,0
2,note_on,57,0,480
2,note_on,57,54,0
2,note_on,57,0,480
2,note_on,49,0,0
2,note_on,49,47,0
2,note_on,56,57,0
2,note_on,56,0,480
2,note_on,54,56,0
2,note_on,54,0,321
2,note_on,58,54,0
2,note_on,58,0,480
2,note_on,49,0,0
2,note_on,49,47,0
2,note_on,56,57,0
2,note_on,56,0,194
2,note_on,54,51,0
2,note_on,49,0,240
2,note_on,42,47,0
2,note_on,54,0,448
2,note_on,42,0,467
2,note_on,47,50,0
2,note_on,47,0,377
2,note_on,64,40,0
2,note_on,59,34,0
2,note_on,55,34,0
2,note_on,55,0,480
2,note_on,59,0,0
2,note_on,64,0,0
2,note_on,64,39,0
2,note_on,59,33,0
2,note_on,55,33,0
2,note_on,55,0,480
2,note_on,59,0,0
2,note_on,64,0,0
2,note_on,47,50,0
2,note_on,47,0,282
2,note_on,62,31,0
2,note_on,59,26,0
2,note_on,54,26,0
2,note_on,54,0,480
2,note_on,59,0,0
2,note_on,62,0,0
2,note_on,62,31,0
2,note_on,59,26,0
2,note_on,54,26,0
2,note_on,54,0,480
2,note_on,59,0,0
2,note_on,62,0,0
2,note_on,47,50,0
2,note_on,47,0,434
2,note_on,64,40,0
2,note_on,58,34,0
2,note_on,54,34,0
2,note_on,54,0,480
2,note_on,58,0,0
2,note_on,64,0,0
2,note_on,64,39,0
2,note_on,58,33,0
2,note_on,54,33,0
2,note_on,54,0,469
2,note_on,58,0,0
2,note_on,64,0,0
2,note_on,47,50,0
2,note_on,47,0,282
2,note_on,62,31,0
2,note_on,59,26,0
2,note_on,54,26,0
2,note_on,54,0,480
2,note_on,59,0,0
2,note_on,62,0,0
2,note_on,59,38,476
2,note_on,65,43,0
2,note_on,65,0,480
2,note_on,59,0,0
2,note_on,60,34,0
2,note_on,64,38,0
2,note_on,64,0,480
2,note_on,60,0,0
2,note_on,60,34,0
2,note_on,64,38,0
2,note_on,64,0,480
2,note_on,60,0,0
2,note_on,55,41,0
2,note_on,59,41,0
2,note_on,65,46,0
2,note_on,65,0,480
2,note_on,59,0,0
2,note_on,55,0,0
2,note_on,55,34,0
2,note_on,59,34,0
2,note_on,65,38,0
2,note_on,65,0,480
2,note_on,59,0,0
2,note_on,55,0,0
2,note_on,60,34,0
2,note_on,64,38,0
2,note_on,64,0,480
2,note_on,60,0,0
2,note_on,59,38,0
2,note_on,65,43,0
2,note_on,65,0,480
2,note_on,59,0,0
2,note_on,60,34,0
2,note_on,64,38,0
2,note_on,64,0,480
2,note_on,60,0,0
2,note_on,60,34,0
2,note_on,64,38,0
2,note_on,64,0,480
2,note_on,60,0,0
2,note_on,55,41,0
2,note_on,59,41,0
2,note_on,65,46,0
2,note_on,65,0,480
2,note_on,59,0,0
2,note_on,55,0,0
2,note_on,55,33,0
2,note_on,59,33,0
2,note_on,65,37,0
2,note_on,65,0,480
2,note_on,59,0,0
2,note_on,55,0,0
2,note_on,60,32,0
2,note_on,64,36,0
2,note_on,64,0,480
2,note_on,60,0,0
2,note_on,55,38,0
2,note_on,59,38,0
2,note_on,65,43,0
2,note_on,65,0,480
2,note_on,59,0,0
2,note_on,55,0,0
2,note_on,60,31,0
2,note_on,64,34,0
2,note_on,64,0,480
2,note_on,60,0,0
2,note_on,55,36,0
2,note_on,59,36,0
2,note_on,65,41,0
2,note_on,65,0,480
2,note_on,59,0,0
2,note_on,55,0,0
2,note_on,60,29,0
2,note_on,64,29,0
2,note_on,64,0,480
2,note_on,60,0,0
2,note_on,55,35,0
2,note_on,59,35,0
2,note_on,65,39,0
2,note_on,65,0,480
2,note_on,59,0,0
2,note_on,55,0,0
2,note_on,60,28,0
2,note_on,64,31,0
2,note_on,64,0,480
2,note_on,60,0,0
2,note_on,55,52,0
2,note_on,55,0,1440
2,note_on,54,48,0
2,note_on,54,0,1440
2,note_on,35,46,0
2,note_on,47,50,0
2,note_on,47,0,392
2,note_on,35,0,0
2,note_on,64,40,0
2,note_on,59,34,0
2,note_on,55,34,0
2,note_on,55,0,480
2,note_on,59,0,0
2,note_on,64,0,0
2,note_on,64,39,0
2,note_on,59,33,0
2,note_on,55,33,0
2,note_on,55,0,480
2,note_on,59,0,0
2,note_on,64,0,0
2,note_on,47,50,0
2,note_on,47,0,282
2,note_on,62,31,0
2,note_on,59,26,0
2,note_on,54,26,0
2,note_on,54,0,480
2,note_on,59,0,0
2,note_on,62,0,0
2,note_on,62,31,0
2,note_on,59,26,0
2,note_on,54,26,0
2,note_on,54,0,480
2,note_on,59,0,0
2,note_on,62,0,0
2,note_on,47,50,0
2,note_on,47,0,434
2,note_on,64,40,0
2,note_on,58,34,0
2,note_on,54,34,0
2,note_on,54,0,480
2,note_on,58,0,0
2,note_on,64,0,0
2,note_on,64,39,0
2,note_on,58,33,0
2,note_on,54,33,0
2,note_on,54,0,467
2,note_on,58,0,0
2,note_on,64,0,0
2,note_on,47,50,0
2,note_on,47,0,282
2,note_on,62,31,0
2,note_on,59,26,0
2,note_on,54,26,0
2,note_on,54,0,480
2,note_on,59,0,0
2,note_on,62,0,0
2,note_on,62,31,0
2,note_on,59,26,0
2,note_on,54,26,0
2,note_on,54,0,480
2,note_on,59,0,0
2,note_on,62,0,0
2,note_on,37,50,0
2,note_on,37,0,434
2,note_on,59,40,0
2,note_on,53,34,0
2,note_on,49,34,0
2,note_on,49,0,360
2,note_on,53,0,0
2,note_on,59,0,0
2,note_on,59,39,0
2,note_on,53,33,0
2,note_on,49,33,0
2,note_on,49,0,468
2,note_on,53,0,0
2,note_on,59,0,0
2,note_on,42,50,0
2,note_on,42,0,282
2,note_on,57,37,0
2,note_on,49,31,0
2,note_on,49,0,480
2,note_on,57,0,0
2,note_on,49,47,3343
2,note_on,56,58,0
2,note_on,56,0,480
2,note_on,54,55,0
2,note_on,54,0,480
2,note_on,57,55,0
2,note_on,57,0,480
2,note_on,49,0,0
2,note_on,49,47,0
2,note_on,56,57,0
2,note_on,56,0,240
2,note_on,54,51,0
2,note_on,54,0,240
2,note_on,57,56,0
2,note_on,57,0,480
2,note_on,57,54,0
2,note_on,57,0,480
2,note_on,49,0,0
2,note_on,49,47,0
2,note_on,56,57,0
2,note_on,56,0,480
2,note_on,54,56,0
2,note_on,54,0,399
2,note_on,58,54,0
2,note_on,58,0,480
2,note_on,49,0,0
2,note_on,49,47,0
2,note_on,56,57,0
2,note_on,56,0,233
2,note_on,54,51,0
2,note_on,49,0,240
2,note_on,42,47,0
2,note_on,54,0,448
2,note_on,42,0,469
2,note_on,47,50,0
2,note_on,47,0,406
2,note_on,64,40,0
2,note_on,59,34,0
2,note_on,55,34,0
2,note_on,55,0,480
2,note_on,59,0,0
2,note_on,64,0,0
2,note_on,64,39,0
2,note_on,59,33,0
2,note_on,55,33,0
2,note_on,55,0,480
2,note_on,59,0,0
2,note_on,64,0,0
2,note_on,47,50,0
2,note_on,47,0,282
2,note_on,62,31,0
2,note_on,59,26,0
2,note_on,54,26,0
2,note_on,54,0,480
2,note_on,59,0,0
2,note_on,62,0,0
2,note_on,62,31,0
2,note_on,59,26,0
2,note_on,54,26,0
2,note_on,54,0,480
2,note_on,59,0,0
2,note_on,62,0,0
2,note_on,47,50,0
2,note_on,47,0,395
2,note_on,64,40,0
2,note_on,58,34,0
2,note_on,54,34,0
2,note_on,54,0,480
2,note_on,58,0,0
2,note_on,64,0,0
2,note_on,64,39,0
2,note_on,58,33,0
2,note_on,54,33,0
2,note_on,54,0,466
2,note_on,58,0,0
2,note_on,64,0,0
2,note_on,47,50,0
2,note_on,47,0,282
2,note_on,62,31,0
2,note_on,59,26,0
2,note_on,54,26,0
2,note_on,54,0,56
2,note_on,59,0,0
2,note_on,62,0,0
2,note_on,59,38,480
2,note_on,65,43,0
2,note_on,65,0,480
2,note_on,59,0,0
2,note_on,60,34,0
2,note_on,64,38,0
2,note_on,64,0,480
2,note_on,60,0,0
2,note_on,60,34,0
2,note_on,64,38,0
2,note_on,64,0,480
2,note_on,60,0,0
2,note_on,55,41,0
2,note_on,59,41,0
2,note_on,65,46,0
2,note_on,65,0,480
2,note_on,59,0,0
2,note_on,55,0,0
2,note_on,55,34,0
2,note_on,59,34,0
2,note_on,65,38,0
2,note_on,65,0,480
2,note_on,59,0,0
2,note_on,55,0,0
2,note_on,60,34,0
2,note_on,64,38,0
2,note_on,64,0,480
2,note_on,60,0,0
2,note_on,59,38,0
2,note_on,65,43,0
2,note_on,65,0,480
2,note_on,59,0,0
2,note_on,60,34,0
2,note_on,64,38,0
2,note_on,64,0,480
2,note_on,60,0,0
2,note_on,60,34,0
2,note_on,64,38,0
2,note_on,64,0,480
2,note_on,60,0,0
2,note_on,55,41,0
2,note_on,59,41,0
2,note_on,65,46,0
2,note_on,65,0,480
2,note_on,59,0,0
2,note_on,55,0,0
2,note_on,55,33,0
2,note_on,59,33,0
2,note_on,65,37,0
2,note_on,65,0,480
2,note_on,59,0,0
2,note_on,55,0,0
2,note_on,60,32,0
2,note_on,64,36,0
2,note_on,64,0,480
2,note_on,60,0,0
2,note_on,55,38,0
2,note_on,59,38,0
2,note_on,65,43,0
2,note_on,65,0,480
2,note_on,59,0,0
2,note_on,55,0,0
2,note_on,60,31,0
2,note_on,64,34,0
2,note_on,64,0,480
2,note_on,60,0,0
2,note_on,55,36,0
2,note_on,59,36,0
2,note_on,65,41,0
2,note_on,65,0,480
2,note_on,59,0,0
2,note_on,55,0,0
2,note_on,60,29,0
2,note_on,64,29,0
2,note_on,64,0,480
2,note_on,60,0,0
2,note_on,55,35,0
2,note_on,59,35,0
2,note_on,65,39,0
2,note_on,65,0,480
2,note_on,59,0,0
2,note_on,55,0,0
2,note_on,60,28,0
2,note_on,64,31,0
2,note_on,64,0,480
2,note_on,60,0,0
2,note_on,55,52,0
2,note_on,55,0,1440
2,note_on,54,59,0
2,note_on,54,0,960
2,note_on,53,62,0
2,note_on,53,0,480
2,note_on,34,74,0
2,note_on,34,0,141
2,note_on,53,54,240
2,note_on,62,64,0
2,note_on,58,54,0
2,note_on,58,0,480
2,note_on,62,0,0
2,note_on,53,0,0
2,note_on,63,64,0
2,note_on,58,64,0
2,note_on,54,64,0
2,note_on,54,0,310
2,note_on,58,0,0
2,note_on,63,0,0
2,note_on,46,73,0
2,note_on,46,0,143
2,note_on,65,68,240
2,note_on,62,57,0
2,note_on,58,57,0
2,note_on,53,68,480
2,note_on,53,0,468
2,note_on,65,0,0
2,note_on,62,0,0
2,note_on,58,0,0
2,note_on,34,72,0
2,note_on,34,0,120
2,note_on,53,54,240
2,note_on,62,64,0
2,note_on,58,54,0
2,note_on,58,0,480
2,note_on,62,0,0
2,note_on,53,0,0
2,note_on,63,64,0
2,note_on,58,64,0
2,note_on,54,64,0
2,note_on,54,0,339
2,note_on,58,0,0
2,note_on,63,0,0
2,note_on,46,73,0
2,note_on,46,0,143
2,note_on,65,68,240
2,note_on,62,57,0
2,note_on,58,57,0
2,note_on,53,68,480
2,note_on,53,0,468
2,note_on,65,0,0
2,note_on,62,0,0
2,note_on,58,0,0
2,note_on,34,79,0
2,note_on,34,0,141
2,note_on,53,54,240
2,note_on,62,64,0
2,note_on,58,54,0
2,note_on,58,0,480
2,note_on,62,0,0
2,note_on,53,0,0
2,note_on,63,64,0
2,note_on,58,64,0
2,note_on,54,64,0
2,note_on,54,0,339
2,note_on,58,0,0
2,note_on,63,0,0
2,note_on,46,73,0
2,note_on,46,0,143
2,note_on,65,68,240
2,note_on,62,57,0
2,note_on,58,57,0
2,note_on,53,68,480
2,note_on,53,0,468
2,note_on,65,0,0
2,note_on,62,0,0
2,note_on,58,0,0
2,note_on,46,72,0
2,note_on,34,69,0
2,note_on,34,0,120
2,note_on,46,0,0
2,note_on,53,54,240
2,note_on,62,64,0
2,note_on,58,54,0
2,note_on,58,0,480
2,note_on,62,0,0
2,note_on,53,0,0
2,note_on,63,64,0
2,note_on,58,64,0
2,note_on,54,64,0
2,note_on,54,0,324
2,note_on,58,0,0
2,note_on,63,0,0
2,note_on,46,73,0
2,note_on,46,0,143
2,note_on,65,68,240
2,note_on,62,57,0
2,note_on,58,57,0
2,note_on,53,68,480
2,note_on,53,0,468
2,note_on,65,0,0
2,note_on,62,0,0
2,note_on,58,0,0
2,note_on,39,81,0
2,note_on,39,0,141
2,note_on,58,54,240
2,note_on,67,64,0
2,note_on,63,54,0
2,note_on,63,0,480
2,note_on,67,0,0
2,note_on,58,0,0
2,note_on,68,64,0
2,note_on,63,64,0
2,note_on,59,64,0
2,note_on,59,0,324
2,note_on,63,0,0
2,note_on,68,0,0
2,note_on,51,73,0
2,note_on,51,0,143
2,note_on,67,68,240
2,note_on,63,57,0
2,note_on,58,57,0
2,note_on,58,0,480
2,note_on,63,0,0
2,note_on,67,0,0
2,note_on,51,68,0
2,note_on,51,0,464
2,note_on,39,73,0
2,note_on,39,0,120
2,note_on,58,54,240
2,note_on,67,64,0
2,note_on,63,54,0
2,note_on,63,0,480
2,note_on,67,0,0
2,note_on,58,0,0
2,note_on,68,64,0
2,note_on,63,64,0
2,note_on,59,64,0
2,note_on,59,0,324
2,note_on,63,0,0
2,note_on,68,0,0
2,note_on,51,73,0
2,note_on,51,0,143
2,note_on,70,68,240
2,note_on,67,57,0
2,note_on,61,57,0
2,note_on,61,0,480
2,note_on,67,0,0
2,note_on,70,0,0
2,note_on,51,68,0
2,note_on,51,0,463
2,note_on,39,73,0
2,note_on,39,0,184
2,note_on,61,65,240
2,note_on,61,0,480
2,note_on,62,57,0
2,note_on,62,0,464
2,note_on,63,59,0
2,note_on,63,0,480
2,note_on,64,57,0
2,note_on,64,0,480
2,note_on,65,54,0
2,note_on,65,0,480
2,note_on,66,52,0
2,note_on,66,0,480
2,note_on,54,59,0
2,note_on,54,0,420
2,note_on,57,60,0
2,note_on,57,0,60
2,note_on,55,68,0
2,note_on,55,0,480
2,note_on,54,62,0
2,note_on,54,0,480
2,note_on,49,55,0
2,note_on,49,0,480
2,note_on,50,54,0
2,note_on,50,0,480
2,note_on,47,50,0
2,note_on,47,0,420
2,note_on,64,40,0
2,note_on,59,34,0
2,note_on,55,34,0
2,note_on,55,0,480
2,note_on,59,0,0
2,note_on,64,0,0
2,note_on,64,39,0
2,note_on,59,33,0
2,note_on,55,33,0
2,note_on,55,0,480
2,note_on,59,0,0
2,note_on,64,0,0
2,note_on,47,50,0
2,note_on,47,0,282
2,note_on,62,31,0
2,note_on,59,26,0
2,note_on,54,26,0
2,note_on,54,0,480
2,note_on,59,0,0
2,note_on,62,0,0
2,note_on,62,31,0
2,note_on,59,26,0
2,note_on,54,26,0
2,note_on,54,0,480
2,note_on,59,0,0
2,note_on,62,0,0
2,note_on,47,50,0
2,note_on,47,0,434
2,note_on,64,40,0
2,note_on,58,34,0
2,note_on,54,34,0
2,note_on,54,0,480
2,note_on,58,0,0
2,note_on,64,0,0
2,note_on,64,39,0
2,note_on,58,33,0
2,note_on,54,33,0
2,note_on,54,0,464
2,note_on,58,0,0
2,note_on,64,0,0
2,note_on,47,50,0
2,note_on,47,0,282
2,note_on,62,31,0
2,note_on,59,26,0
2,note_on,54,26,0
2,note_on,54,0,480
2,note_on,59,0,0
2,note_on,62,0,0
2,note_on,62,31,0
2,note_on,59,26,0
2,note_on,54,26,0
2,note_on,54,0,480
2,note_on,59,0,0
2,note_on,62,0,0
2,note_on,37,50,0
2,note_on,37,0,434
2,note_on,59,40,0
2,note_on,53,34,0
2,note_on,49,34,0
2,note_on,49,0,360
2,note_on,53,0,0
2,note_on,59,0,0
2,note_on,59,39,0
2,note_on,53,33,0
2,note_on,49,33,0
2,note_on,49,0,464
2,note_on,53,0,0
2,note_on,59,0,0
2,note_on,42,50,0
2,note_on,42,0,282
2,note_on,57,37,0
2,note_on,49,31,0
2,note_on,49,0,480
2,note_on,57,0,0
2,note_on,49,47,3344
2,note_on,56,58,0
2,note_on,56,0,480
2,note_on,54,55,0
2,note_on,54,0,160
2,note_on,57,55,0
2,note_on,57,0,480
2,note_on,49,0,0
2,note_on,49,47,0
2,note_on,56,57,0
2,note_on,56,0,225
2,note_on,54,51,0
2,note_on,54,0,240
2,note_on,57,56,0
2,note_on,57,0,480
2,note_on,57,54,0
2,note_on,57,0,480
2,note_on,49,0,0
2,note_on,49,47,0
2,note_on,56,57,0
2,note_on,56,0,480
2,note_on,54,56,0
2,note_on,54,0,430
2,note_on,58,54,0
2,note_on,58,0,480
2,note_on,49,0,0
2,note_on,49,47,0
2,note_on,56,57,0
2,note_on,56,0,233
2,note_on,54,51,0
2,note_on,49,0,240
2,note_on,42,47,0
2,note_on,54,0,448
2,note_on,42,0,467
2,note_on,47,50,0
2,note_on,47,0,402
2,note_on,64,40,0
2,note_on,59,34,0
2,note_on,55,34,0
2,note_on,55,0,480
2,note_on,59,0,0
2,note_on,64,0,0
2,note_on,64,39,0
2,note_on,59,33,0
2,note_on,55,33,0
2,note_on,55,0,480
2,note_on,59,0,0
2,note_on,64,0,0
2,note_on,47,50,0
2,note_on,47,0,282
2,note_on,62,31,0
2,note_on,59,26,0
2,note_on,54,26,0
2,note_on,54,0,480
2,note_on,59,0,0
2,note_on,62,0,0
2,note_on,62,31,0
2,note_on,59,26,0
2,note_on,54,26,0
2,note_on,54,0,480
2,note_on,59,0,0
2,note_on,62,0,0
2,note_on,47,50,0
2,note_on,47,0,402
2,note_on,64,40,0
2,note_on,58,34,0
2,note_on,54,34,0
2,note_on,54,0,480
2,note_on,58,0,0
2,note_on,64,0,0
2,note_on,64,39,0
2,note_on,58,33,0
2,note_on,54,33,0
2,note_on,54,0,466
2,note_on,58,0,0
2,note_on,64,0,0
2,note_on,47,50,0
2,note_on,47,0,282
2,note_on,62,31,0
2,note_on,59,26,0
2,note_on,54,26,0
2,note_on,54,0,480
2,note_on,59,0,0
2,note_on,62,0,0
2,note_on,59,38,476
2,note_on,65,43,0
2,note_on,65,0,480
2,note_on,59,0,0
2,note_on,60,34,0
2,note_on,64,38,0
2,note_on,64,0,480
2,note_on,60,0,0
2,note_on,60,34,0
2,note_on,64,38,0
2,note_on,64,0,480
2,note_on,60,0,0
2,note_on,55,41,0
2,note_on,59,41,0
2,note_on,65,46,0
2,note_on,65,0,480
2,note_on,59,0,0
2,note_on,55,0,0
2,note_on,55,34,0
2,note_on,59,34,0
2,note_on,65,38,0
2,note_on,65,0,480
2,note_on,59,0,0
2,note_on,55,0,0
2,note_on,60,34,0
2,note_on,64,38,0
2,note_on,64,0,480
2,note_on,60,0,0
2,note_on,59,38,0
2,note_on,65,43,0
2,note_on,65,0,480
2,note_on,59,0,0
2,note_on,60,34,0
2,note_on,64,38,0
2,note_on,64,0,480
2,note_on,60,0,0
2,note_on,60,34,0
2,note_on,64,38,0
2,note_on,64,0,480
2,note_on,60,0,0
2,note_on,55,41,0
2,note_on,59,41,0
2,note_on,65,46,0
2,note_on,65,0,480
2,note_on,59,0,0
2,note_on,55,0,0
2,note_on,55,33,0
2,note_on,59,33,0
2,note_on,65,37,0
2,note_on,65,0,480
2,note_on,59,0,0
2,note_on,55,0,0
2,note_on,60,32,0
2,note_on,64,36,0
2,note_on,64,0,480
2,note_on,60,0,0
2,note_on,55,38,0
2,note_on,59,38,0
2,note_on,65,43,0
2,note_on,65,0,480
2,note_on,59,0,0
2,note_on,55,0,0
2,note_on,60,31,0
2,note_on,64,34,0
2,note_on,64,0,480
2,note_on,60,0,0
2,note_on,55,36,0
2,note_on,59,36,0
2,note_on,65,41,0
2,note_on,65,0,480
2,note_on,59,0,0
2,note_on,55,0,0
2,note_on,60,29,0
2,note_on,64,29,0
2,note_on,64,0,480
2,note_on,60,0,0
2,note_on,55,35,0
2,note_on,59,35,0
2,note_on,65,39,0
2,note_on,65,0,480
2,note_on,59,0,0
2,note_on,55,0,0
2,note_on,60,28,0
2,note_on,64,31,0
2,note_on,64,0,480
2,note_on,60,0,0
2,note_on,55,52,0
2,note_on,55,0,1440
2,note_on,54,48,0
2,note_on,54,0,1440
2,note_on,35,46,0
2,note_on,47,50,0
2,note_on,47,0,392
2,note_on,35,0,0
2,note_on,64,40,0
2,note_on,59,34,0
2,note_on,55,34,0
2,note_on,55,0,480
2,note_on,59,0,0
2,note_on,64,0,0
2,note_on,64,39,0
2,note_on,59,33,0
2,note_on,55,33,0
2,note_on,55,0,480
2,note_on,59,0,0
2,note_on,64,0,0
2,note_on,47,50,0
2,note_on,47,0,282
2,note_on,62,31,0
2,note_on,59,26,0
2,note_on,54,26,0
2,note_on,54,0,480
2,note_on,59,0,0
2,note_on,62,0,0
2,note_on,62,31,0
2,note_on,59,26,0
2,note_on,54,26,0
2,note_on,54,0,480
2,note_on,59,0,0
2,note_on,62,0,0
2,note_on,47,50,0
2,note_on,47,0,434
2,note_on,64,40,0
2,note_on,58,34,0
2,note_on,54,34,0
2,note_on,54,0,480
2,note_on,58,0,0
2,note_on,64,0,0
2,note_on,64,39,0
2,note_on,58,33,0
2,note_on,54,33,0
2,note_on,54,0,466
2,note_on,58,0,0
2,note_on,64,0,0
2,note_on,47,50,0
2,note_on,47,0,282
2,note_on,62,31,0
2,note_on,59,26,0
2,note_on,54,26,0
2,note_on,54,0,480
2,note_on,59,0,0
2,note_on,62,0,0
2,note_on,62,31,0
2,note_on,59,26,0
2,note_on,54,26,0
2,note_on,54,0,480
2,note_on,59,0,0
2,note_on,62,0,0
2,note_on,37,50,0
2,note_on,37,0,434
2,note_on,59,40,0
2,note_on,53,34,0
2,note_on,49,34,0
2,note_on,49,0,360
2,note_on,53,0,0
2,note_on,59,0,0
2,note_on,59,39,0
2,note_on,53,33,0
2,note_on,49,33,0
2,note_on,49,0,467
2,note_on,53,0,0
2,note_on,59,0,0
2,note_on,42,50,0
2,note_on,42,0,282
2,note_on,57,37,0
2,note_on,49,31,0
2,note_on,49,0,480
2,note_on,57,0,0
2,note_on,49,47,3343
2,note_on,56,58,0
2,note_on,56,0,480
2,note_on,54,55,0
2,note_on,54,0,274
2,note_on,57,55,0
2,note_on,57,0,480
2,note_on,49,0,0
2,note_on,49,47,0
2,note_on,56,57,0
2,note_on,56,0,228
2,note_on,54,51,0
2,note_on,54,0,240
2,note_on,57,56,0
2,note_on,57,0,480
2,note_on,57,54,0
2,note_on,57,0,480
2,note_on,49,0,0
2,note_on,49,47,0
2,note_on,56,57,0
2,note_on,56,0,480
2,note_on,54,56,0
2,note_on,54,0,381
2,note_on,58,54,0
2,note_on,58,0,480
2,note_on,49,0,0
2,note_on,49,47,0
2,note_on,56,57,0
2,note_on,56,0,225
2,note_on,54,51,0
2,note_on,49,0,240
2,note_on,42,47,0
2,note_on,54,0,448
2,note_on,42,0,469
2,note_on,47,50,0
2,note_on,47,0,416
2,note_on,64,40,0
2,note_on,59,34,0
2,note_on,55,34,0
2,note_on,55,0,480
2,note_on,59,0,0
2,note_on,64,0,0
2,note_on,64,39,0
2,note_on,59,33,0
2,note_on,55,33,0
2,note_on,55,0,480
2,note_on,59,0,0
2,note_on,64,0,0
2,note_on,47,50,0
2,note_on,47,0,183
2,note_on,62,31,0
2,note_on,59,26,0
2,note_on,54,26,0
2,note_on,54,0,480
2,note_on,59,0,0
2,note_on,62,0,0
2,note_on,62,31,0
2,note_on,59,26,0
2,note_on,54,26,0
2,note_on,54,0,480
2,note_on,59,0,0
2,note_on,62,0,0
2,note_on,47,50,0
2,note_on,47,0,402
2,note_on,64,40,0
2,note_on,58,34,0
2,note_on,54,34,0
2,note_on,54,0,480
2,note_on,58,0,0
2,note_on,64,0,0
2,note_on,64,39,0
2,note_on,58,33,0
2,note_on,54,33,0
2,note_on,54,0,466
2,note_on,58,0,0
2,note_on,64,0,0
2,note_on,47,50,0
2,note_on,47,0,282
2,note_on,62,31,0
2,note_on,59,26,0
2,note_on,54,26,0
2,note_on,54,0,480
2,note_on,59,0,0
2,note_on,62,0,0
2,note_on,59,38,466
2,note_on,65,43,0
2,note_on,65,0,480
2,note_on,59,0,0
2,note_on,60,34,0
2,note_on,64,38,0
2,note_on,64,0,480
2,note_on,60,0,0
2,note_on,60,34,0
2,note_on,64,38,0
2,note_on,64,0,480
2,note_on,60,0,0
2,note_on,55,41,0
2,note_on,59,41,0
2,note_on,65,46,0
2,note_on,65,0,480
2,note_on,59,0,0
2,note_on,55,0,0
2,note_on,55,34,0
2,note_on,59,34,0
2,note_on,65,38,0
2,note_on,65,0,480
2,note_on,59,0,0
2,note_on,55,0,0
2,note_on,60,34,0
2,note_on,64,38,0
2,note_on,64,0,480
2,note_on,60,0,0
2,note_on,59,38,0
2,note_on,65,43,0
2,note_on,65,0,480
2,note_on,59,0,0
2,note_on,60,34,0
2,note_on,64,38,0
2,note_on,64,0,480
2,note_on,60,0,0
2,note_on,60,34,0
2,note_on,64,38,0
2,note_on,64,0,480
2,note_on,60,0,0
2,note_on,55,41,0
2,note_on,59,41,0
2,note_on,65,46,0
2,note_on,65,0,480
2,note_on,59,0,0
2,note_on,55,0,0
2,note_on,55,33,0
2,note_on,59,33,0
2,note_on,65,37,0
2,note_on,65,0,480
2,note_on,59,0,0
2,note_on,55,0,0
2,note_on,60,32,0
2,note_on,64,36,0
2,note_on,64,0,480
2,note_on,60,0,0
2,note_on,55,38,0
2,note_on,59,38,0
2,note_on,65,43,0
2,note_on,65,0,480
2,note_on,59,0,0
2,note_on,55,0,0
2,note_on,60,31,0
2,note_on,64,34,0
2,note_on,64,0,480
2,note_on,60,0,0
2,note_on,55,36,0
2,note_on,59,36,0
2,note_on,65,41,0
2,note_on,65,0,480
2,note_on,59,0,0
2,note_on,55,0,0
2,note_on,60,29,0
2,note_on,64,29,0
2,note_on,64,0,480
2,note_on,60,0,0
2,note_on,55,35,0
2,note_on,59,35,0
2,note_on,65,39,0
2,note_on,65,0,480
2,note_on,59,0,0
2,note_on,55,0,0
2,note_on,60,28,0
2,note_on,64,31,0
2,note_on,64,0,480
2,note_on,60,0,0
2,note_on,55,52,0
2,note_on,55,0,1440
2,note_on,54,59,0
2,note_on,54,0,960
2,note_on,53,62,0
2,note_on,53,0,480
2,note_on,34,74,0
2,note_on,34,0,141
2,note_on,53,54,240
2,note_on,62,64,0
2,note_on,58,54,0
2,note_on,58,0,480
2,note_on,62,0,0
2,note_on,53,0,0
2,note_on,63,64,0
2,note_on,58,64,0
2,note_on,54,64,0
2,note_on,54,0,310
2,note_on,58,0,0
2,note_on,63,0,0
2,note_on,46,73,0
2,note_on,46,0,143
2,note_on,65,68,240
2,note_on,62,57,0
2,note_on,58,57,0
2,note_on,53,68,480
2,note_on,53,0,463
2,note_on,65,0,0
2,note_on,62,0,0
2,note_on,58,0,0
2,note_on,34,72,0
2,note_on,34,0,120
2,note_on,53,54,240
2,note_on,62,64,0
2,note_on,58,54,0
2,note_on,58,0,480
2,note_on,62,0,0
2,note_on,53,0,0
2,note_on,63,64,0
2,note_on,58,64,0
2,note_on,54,64,0
2,note_on,54,0,310
2,note_on,58,0,0
2,note_on,63,0,0
2,note_on,46,73,0
2,note_on,46,0,143
2,note_on,65,68,240
2,note_on,62,57,0
2,note_on,58,57,0
2,note_on,53,68,480
2,note_on,53,0,473
2,note_on,65,0,0
2,note_on,62,0,0
2,note_on,58,0,0
2,note_on,34,79,0
2,note_on,34,0,141
2,note_on,53,54,240
2,note_on,62,64,0
2,note_on,58,54,0
2,note_on,58,0,480
2,note_on,62,0,0
2,note_on,53,0,0
2,note_on,63,64,0
2,note_on,58,64,0
2,note_on,54,64,0
2,note_on,54,0,282
2,note_on,58,0,0
2,note_on,63,0,0
2,note_on,46,73,0
2,note_on,46,0,143
2,note_on,65,68,240
2,note_on,62,57,0
2,note_on,58,57,0
2,note_on,53,68,480
2,note_on,53,0,470
2,note_on,65,0,0
2,note_on,62,0,0
2,note_on,58,0,0
2,note_on,46,72,0
2,note_on,34,69,0
2,note_on,34,0,120
2,note_on,46,0,0
2,note_on,53,54,240
2,note_on,62,64,0
2,note_on,58,54,0
2,note_on,58,0,480
2,note_on,62,0,0
2,note_on,53,0,0
2,note_on,63,64,0
2,note_on,58,64,0
2,note_on,54,64,0
2,note_on,54,0,324
2,note_on,58,0,0
2,note_on,63,0,0
2,note_on,46,73,0
2,note_on,46,0,143
2,note_on,65,68,240
2,note_on,62,57,0
2,note_on,58,57,0
2,note_on,53,68,480
2,note_on,53,0,466
2,note_on,65,0,0
2,note_on,62,0,0
2,note_on,58,0,0
2,note_on,39,81,0
2,note_on,39,0,141
2,note_on,58,54,240
2,note_on,67,64,0
2,note_on,63,54,0
2,note_on,63,0,480
2,note_on,67,0,0
2,note_on,58,0,0
2,note_on,68,64,0
2,note_on,63,64,0
2,note_on,59,64,0
2,note_on,59,0,339
2,note_on,63,0,0
2,note_on,68,0,0
2,note_on,51,73,0
2,note_on,51,0,143
2,note_on,67,68,240
2,note_on,63,57,0
2,note_on,58,57,0
2,note_on,58,0,480
2,note_on,63,0,0
2,note_on,67,0,0
2,note_on,51,68,0
2,note_on,51,0,463
2,note_on,39,73,0
2,note_on,39,0,120
2,note_on,58,54,240
2,note_on,67,64,0
2,note_on,63,54,0
2,note_on,63,0,480
2,note_on,67,0,0
2,note_on,58,0,0
2,note_on,68,64,0
2,note_on,63,64,0
2,note_on,59,64,0
2,note_on,59,0,324
2,note_on,63,0,0
2,note_on,68,0,0
2,note_on,51,73,0
2,note_on,51,0,143
2,note_on,70,68,240
2,note_on,67,57,0
2,note_on,61,57,0
2,note_on,61,0,480
2,note_on,67,0,0
2,note_on,70,0,0
2,note_on,51,68,0
2,note_on,51,0,468
2,note_on,39,73,0
2,note_on,39,0,56
2,note_on,61,65,240
2,note_on,61,0,480
2,note_on,62,57,0
2,note_on,62,0,464
2,note_on,63,59,0
2,note_on,63,0,480
2,note_on,64,57,0
2,note_on,64,0,480
2,note_on,65,54,0
2,note_on,65,0,480
2,note_on,66,52,0
2,note_on,66,0,480
2,note_on,54,59,0
2,note_on,54,0,420
2,note_on,58,60,0
2,note_on,58,0,60
2,note_on,56,68,0
2,note_on,56,0,480
2,note_on,54,63,0
2,note_on,54,0,480
2,note_on,49,56,0
2,note_on,49,0,480
2,note_on,54,53,0
2,note_on,54,0,480
2,note_on,47,50,0
2,note_on,47,0,311
2,note_on,63,43,0
2,note_on,59,36,0
2,note_on,54,36,0
2,note_on,54,0,480
2,note_on,59,0,0
2,note_on,63,0,0
2,note_on,63,36,0
2,note_on,71,43,0
2,note_on,71,0,468
2,note_on,63,0,0
2,note_on,40,53,0
2,note_on,40,0,367
2,note_on,61,37,0
2,note_on,59,37,0
2,note_on,64,37,0
2,note_on,68,44,0
2,note_on,68,0,282
2,note_on,61,0,0
2,note_on,59,0,0
2,note_on,64,0,0
2,note_on,42,50,0
2,note_on,42,0,395
2,note_on,64,43,0
2,note_on,58,36,0
2,note_on,54,36,0
2,note_on,54,0,480
2,note_on,58,0,0
2,note_on,64,0,0
2,note_on,54,38,0
2,note_on,58,38,0
2,note_on,64,45,0
2,note_on,64,0,467
2,note_on,58,0,0
2,note_on,54,0,0
2,note_on,43,54,0
2,note_on,43,0,251
2,note_on,63,47,0
2,note_on,58,39,0
2,note_on,51,39,0
2,note_on,51,0,480
2,note_on,58,0,0
2,note_on,63,0,0
2,note_on,51,37,0
2,note_on,58,37,0
2,note_on,63,44,0
2,note_on,63,0,480
2,note_on,58,0,0
2,note_on,51,0,0
2,note_on,44,50,0
2,note_on,44,0,325
2,note_on,59,43,0
2,note_on,56,36,0
2,note_on,51,36,0
2,note_on,51,0,480
2,note_on,56,0,0
2,note_on,59,0,0
2,note_on,51,36,0
2,note_on,56,36,0
2,note_on,59,43,0
2,note_on,59,0,466
2,note_on,56,0,0
2,note_on,51,0,0
2,note_on,37,53,0
2,note_on,37,0,438
2,note_on,64,45,0
2,note_on,61,38,0
2,note_on,56,38,0
2,note_on,56,0,480
2,note_on,61,0,0
2,note_on,64,0,0
2,note_on,50,50,350
2,note_on,50,0,388
2,note_on,65,44,0
2,note_on,59,37,0
2,note_on,56,37,0
2,note_on,56,0,480
2,note_on,59,0,0
2,note_on,65,0,0
2,note_on,56,37,0
2,note_on,58,37,0
2,note_on,65,44,0
2,note_on,65,0,461
2,note_on,58,0,0
2,note_on,56,0,0
2,note_on,51,55,0
2,note_on,51,0,297
2,note_on,63,47,0
2,note_on,58,39,0
2,note_on,55,39,0
2,note_on,55,0,480
2,note_on,58,0,0
2,note_on,63,0,0
2,note_on,49,39,0
2,note_on,54,39,0
2,note_on,58,39,0
2,note_on,64,47,0
2,note_on,64,0,463
2,note_on,49,0,0
2,note_on,54,0,0
2,note_on,58,0,0
2,note_on,47,50,0
2,note_on,47,0,311
2,note_on,63,43,0
2,note_on,59,36,0
2,note_on,54,36,0
2,note_on,54,0,480
2,note_on,59,0,0
2,note_on,63,0,0
2,note_on,40,51,480
2,note_on,40,0,296
2,note_on,61,37,0
2,note_on,59,37,0
2,note_on,64,37,0
2,note_on,68,44,0
2,note_on,68,0,480
2,note_on,61,0,0
2,note_on,59,0,0
2,note_on,64,0,0
2,note_on,42,50,480
2,note_on,42,0,395
2,note_on,64,43,0
2,note_on,58,36,0
2,note_on,54,36,0
2,note_on,54,0,480
2,note_on,58,0,0
2,note_on,64,0,0
2,note_on,54,38,0
2,note_on,58,38,0
2,note_on,64,45,0
2,note_on,64,0,462
2,note_on,58,0,0
2,note_on,54,0,0
2,note_on,43,54,0
2,note_on,43,0,251
2,note_on,63,47,0
2,note_on,58,39,0
2,note_on,51,39,0
2,note_on,51,0,480
2,note_on,58,0,0
2,note_on,63,0,0
2,note_on,51,37,0
2,note_on,58,37,0
2,note_on,63,44,0
2,note_on,63,0,480
2,note_on,58,0,0
2,note_on,51,0,0
2,note_on,44,55,0
2,note_on,44,0,325
2,note_on,53,36,0
2,note_on,63,43,0
2,note_on,59,36,0
2,note_on,56,36,0
2,note_on,56,0,480
2,note_on,53,0,0
2,note_on,63,0,0
2,note_on,59,0,0
2,note_on,46,53,465
2,note_on,46,0,438
2,note_on,63,45,0
2,note_on,58,38,0
2,note_on,54,38,0
2,note_on,54,0,480
2,note_on,58,0,0
2,note_on,63,0,0
2,note_on,54,38,0
2,note_on,58,38,0
2,note_on,63,45,0
2,note_on,63,0,467
2,note_on,58,0,0
2,note_on,54,0,0
2,note_on,46,50,0
2,note_on,46,0,388
2,note_on,62,44,0
2,note_on,58,37,0
2,note_on,56,37,0
2,note_on,56,0,480
2,note_on,58,0,0
2,note_on,62,0,0
2,note_on,56,37,0
2,note_on,58,37,0
2,note_on,65,44,0
2,note_on,65,0,480
2,note_on,58,0,0
2,note_on,56,0,0
2,note_on,51,55,0
2,note_on,51,0,297
2,note_on,63,39,0
2,note_on,58,33,0
2,note_on,54,29,0
2,note_on,54,0,480
2,note_on,58,0,0
2,note_on,63,0,0
2,note_on,49,23,0
2,note_on,54,28,0
2,note_on,58,30,0
2,note_on,64,35,0
2,note_on,64,0,320
2,note_on,49,0,0
2,note_on,54,0,0
2,note_on,58,0,0
2,note_on,47,50,0
2,note_on,47,0,311
2,note_on,63,43,0
2,note_on,59,36,0
2,note_on,57,36,0
2,note_on,57,0,480
2,note_on,59,0,0
2,note_on,63,0,0
2,note_on,59,36,0
2,note_on,63,36,0
2,note_on,69,43,0
2,note_on,69,0,467
2,note_on,63,0,0
2,note_on,59,0,0
2,note_on,40,53,0
2,note_on,40,0,367
2,note_on,61,37,0
2,note_on,59,37,0
2,note_on,64,37,0
2,note_on,68,44,0
2,note_on,68,0,364
2,note_on,61,0,0
2,note_on,59,0,0
2,note_on,64,0,0
2,note_on,42,50,0
2,note_on,42,0,395
2,note_on,64,43,0
2,note_on,58,36,0
2,note_on,54,36,0
2,note_on,54,0,480
2,note_on,58,0,0
2,note_on,64,0,0
2,note_on,54,38,0
2,note_on,58,38,0
2,note_on,64,45,0
2,note_on,64,0,466
2,note_on,58,0,0
2,note_on,54,0,0
2,note_on,43,54,0
2,note_on,43,0,251
2,note_on,63,47,0
2,note_on,58,39,0
2,note_on,51,39,0
2,note_on,51,0,480
2,note_on,58,0,0
2,note_on,63,0,0
2,note_on,51,37,0
2,note_on,58,37,0
2,note_on,63,44,0
2,note_on,63,0,480
2,note_on,58,0,0
2,note_on,51,0,0
2,note_on,44,50,0
2,note_on,44,0,325
2,note_on,59,43,0
2,note_on,56,36,0
2,note_on,51,36,0
2,note_on,51,0,480
2,note_on,56,0,0
2,note_on,59,0,0
2,note_on,51,36,0
2,note_on,56,36,0
2,note_on,59,43,0
2,note_on,59,0,466
2,note_on,56,0,0
2,note_on,51,0,0
2,note_on,37,53,0
2,note_on,37,0,438
2,note_on,64,45,0
2,note_on,61,38,0
2,note_on,56,38,0
2,note_on,56,0,480
2,note_on,61,0,0
2,note_on,64,0,0
2,note_on,50,50,330
2,note_on,50,0,388
2,note_on,65,44,0
2,note_on,59,37,0
2,note_on,56,37,0
2,note_on,56,0,464
2,note_on,59,0,0
2,note_on,65,0,0
2,note_on,56,37,0
2,note_on,58,37,0
2,note_on,65,44,0
2,note_on,65,0,480
2,note_on,58,0,0
2,note_on,56,0,0
2,note_on,51,55,0
2,note_on,51,0,297
2,note_on,63,47,0
2,note_on,58,39,0
2,note_on,55,39,0
2,note_on,55,0,480
2,note_on,58,0,0
2,note_on,63,0,0
2,note_on,49,34,0
2,note_on,54,35,0
2,note_on,58,39,0
2,note_on,64,47,0
2,note_on,64,0,464
2,note_on,49,0,0
2,note_on,54,0,0
2,note_on,58,0,0
2,note_on,47,50,0
2,note_on,47,0,311
2,note_on,63,43,0
2,note_on,59,36,0
2,note_on,54,36,0
2,note_on,54,0,480
2,note_on,59,0,0
2,note_on,63,0,0
2,note_on,40,51,480
2,note_on,40,0,282
2,note_on,61,37,0
2,note_on,59,37,0
2,note_on,64,37,0
2,note_on,68,44,0
2,note_on,68,0,480
2,note_on,61,0,0
2,note_on,59,0,0
2,note_on,64,0,0
2,note_on,42,50,480
2,note_on,42,0,395
2,note_on,64,43,0
2,note_on,58,36,0
2,note_on,54,36,0
2,note_on,54,0,480
2,note_on,58,0,0
2,note_on,64,0,0
2,note_on,54,38,0
2,note_on,58,38,0
2,note_on,64,45,0
2,note_on,64,0,469
2,note_on,58,0,0
2,note_on,54,0,0
2,note_on,43,54,0
2,note_on,43,0,251
2,note_on,63,47,0
2,note_on,58,39,0
2,note_on,51,39,0
2,note_on,51,0,480
2,note_on,58,0,0
2,note_on,63,0,0
2,note_on,51,37,0
2,note_on,58,37,0
2,note_on,63,44,0
2,note_on,63,0,480
2,note_on,58,0,0
2,note_on,51,0,0
2,note_on,44,55,0
2,note_on,44,0,325
2,note_on,53,36,0
2,note_on,63,43,0
2,note_on,59,36,0
2,note_on,56,36,0
2,note_on,56,0,480
2,note_on,53,0,0
2,note_on,63,0,0
2,note_on,59,0,0
2,note_on,46,53,468
2,note_on,46,0,367
2,note_on,63,45,0
2,note_on,58,38,0
2,note_on,54,38,0
2,note_on,54,0,480
2,note_on,58,0,0
2,note_on,63,0,0
2,note_on,54,38,0
2,note_on,58,38,0
2,note_on,63,45,0
2,note_on,63,0,480
2,note_on,58,0,0
2,note_on,54,0,0
2,note_on,46,50,0
2,note_on,46,0,263
2,note_on,62,44,0
2,note_on,58,37,0
2,note_on,56,37,0
2,note_on,56,0,480
2,note_on,58,0,0
2,note_on,62,0,0
2,note_on,56,37,0
2,note_on,58,37,0
2,note_on,65,44,0
2,note_on,65,0,480
2,note_on,58,0,0
2,note_on,56,0,0
2,note_on,51,55,0
2,note_on,51,0,160
2,note_on,63,39,0
2,note_on,58,33,0
2,note_on,54,29,0
2,note_on,54,0,480
2,note_on,58,0,0
2,note_on,63,0,0
2,note_on,54,36,0
2,note_on,58,42,0
2,note_on,66,50,0
2,note_on,66,0,480
2,note_on,58,0,0
2,note_on,54,0,0
2,note_on,70,54,0
2,note_on,76,64,0
2,note_on,76,0,120
2,note_on,70,0,0
2,note_on,66,60,226
2,note_on,66,0,120
2,note_on,54,58,0
2,note_on,54,0,480
2,note_on,42,60,0
2,note_on,42,0,468
2,note_on,47,68,0
2,note_on,47,0,155
2,note_on,54,59,120
2,note_on,54,0,120
2,note_on,63,66,0
2,note_on,59,56,0
2,note_on,59,0,480
2,note_on,63,0,0
2,note_on,71,51,0
2,note_on,75,60,0
2,note_on,75,0,465
2,note_on,71,0,0
2,note_on,70,54,0
2,note_on,76,64,0
2,note_on,76,0,64
2,note_on,70,0,0
2,note_on,66,60,240
2,note_on,66,0,120
2,note_on,54,58,0
2,note_on,54,0,480
2,note_on,42,60,0
2,note_on,42,0,467
2,note_on,47,68,0
2,note_on,47,0,155
2,note_on,54,59,120
2,note_on,54,0,120
2,note_on,63,66,0
2,note_on,59,56,0
2,note_on,59,0,480
2,note_on,63,0,0
2,note_on,52,68,465
2,note_on,52,0,35
2,note_on,73,62,240
2,note_on,73,0,120
2,note_on,64,56,0
2,note_on,68,66,0
2,note_on,68,0,360
2,note_on,64,0,0
2,note_on,73,62,0
2,note_on,73,0,120
2,note_on,64,55,0
2,note_on,68,65,0
2,note_on,68,0,465
2,note_on,64,0,0
2,note_on,42,68,0
2,note_on,42,0,35
2,note_on,71,62,240
2,note_on,71,0,120
2,note_on,63,56,0
2,note_on,66,66,0
2,note_on,66,0,360
2,note_on,63,0,0
2,note_on,71,62,0
2,note_on,71,0,120
2,note_on,63,55,0
2,note_on,66,65,0
2,note_on,66,0,465
2,note_on,63,0,0
2,note_on,42,68,0
2,note_on,42,0,35
2,note_on,70,62,240
2,note_on,70,0,120
2,note_on,61,56,0
2,note_on,64,66,0
2,note_on,64,0,360
2,note_on,61,0,0
2,note_on,70,62,0
2,note_on,70,0,120
2,note_on,61,55,0
2,note_on,64,65,0
2,note_on,64,0,465
2,note_on,61,0,0
2,note_on,47,61,0
2,note_on,47,0,155
2,note_on,59,46,240
2,note_on,65,55,0
2,note_on,65,0,468
2,note_on,66,50,0
2,note_on,66,0,480
2,note_on,59,0,0
2,note_on,70,54,0
2,note_on,76,64,0
2,note_on,76,0,28
2,note_on,70,0,0
2,note_on,66,60,240
2,note_on,66,0,120
2,note_on,54,58,0
2,note_on,54,0,480
2,note_on,42,60,0
2,note_on,42,0,463
2,note_on,47,68,0
2,note_on,47,0,155
2,note_on,54,59,120
2,note_on,54,0,120
2,note_on,63,66,0
2,note_on,59,56,0
2,note_on,59,0,480
2,note_on,63,0,0
2,note_on,71,51,0
2,note_on,75,60,0
2,note_on,75,0,465
2,note_on,71,0,0
2,note_on,70,54,0
2,note_on,76,64,0
2,note_on,76,0,64
2,note_on,70,0,0
2,note_on,66,60,240
2,note_on,66,0,120
2,note_on,54,58,0
2,note_on,54,0,480
2,note_on,42,60,0
2,note_on,42,0,464
2,note_on,47,68,0
2,note_on,47,0,155
2,note_on,54,59,120
2,note_on,54,0,120
2,note_on,63,66,0
2,note_on,59,56,0
2,note_on,59,0,480
2,note_on,63,0,0
2,note_on,52,68,465
2,note_on,52,0,35
2,note_on,73,62,240
2,note_on,73,0,120
2,note_on,64,56,0
2,note_on,68,66,0
2,note_on,68,0,360
2,note_on,64,0,0
2,note_on,73,62,0
2,note_on,73,0,120
2,note_on,64,55,0
2,note_on,68,65,0
2,note_on,68,0,465
2,note_on,64,0,0
2,note_on,42,68,0
2,note_on,42,0,35
2,note_on,71,62,240
2,note_on,71,0,120
2,note_on,63,56,0
2,note_on,66,66,0
2,note_on,66,0,360
2,note_on,63,0,0
2,note_on,71,62,0
2,note_on,71,0,120
2,note_on,63,55,0
2,note_on,66,65,0
2,note_on,66,0,465
2,note_on,63,0,0
2,note_on,42,68,0
2,note_on,42,0,35
2,note_on,70,62,240
2,note_on,70,0,120
2,note_on,61,56,0
2,note_on,64,66,0
2,note_on,64,0,360
2,note_on,61,0,0
2,note_on,70,62,0
2,note_on,70,0,120
2,note_on,61,55,0
2,note_on,64,65,0
2,note_on,64,0,465
2,note_on,61,0,0
2,note_on,56,41,360
2,note_on,56,0,120
2,note_on,54,47,0
2,note_on,54,0,360
2,note_on,56,41,0
2,note_on,56,0,120
2,note_on,54,46,0
2,note_on,54,0,480
2,note_on,56,44,0
2,note_on,56,0,360
2,note_on,54,37,0
2,note_on,54,0,120
2,note_on,52,44,0
2,note_on,52,0,480
2,note_on,42,38,0
2,note_on,42,0,480
2,note_on,47,44,0
2,note_on,47,0,360
2,note_on,49,41,0
2,note_on,49,0,120
2,note_on,51,45,0
2,note_on,51,0,480
2,note_on,54,44,0
2,note_on,54,0,480
2,note_on,56,46,0
2,note_on,56,0,360
2,note_on,54,42,0
2,note_on,54,0,120
2,note_on,52,45,0
2,note_on,52,0,480
2,note_on,42,39,0
2,note_on,42,0,480
2,note_on,47,44,0
2,note_on,47,0,360
2,note_on,49,41,0
2,note_on,49,0,120
2,note_on,51,45,0
2,note_on,51,0,480
2,note_on,54,44,0
2,note_on,54,0,480
2,note_on,64,49,0
2,note_on,58,41,360
2,note_on,58,0,120
2,note_on,56,44,0
2,note_on,56,0,360
2,note_on,58,41,0
2,note_on,58,0,120
2,note_on,56,45,0
2,note_on,56,0,480
2,note_on,64,0,0
2,note_on,63,49,0
2,note_on,56,41,360
2,note_on,56,0,120
2,note_on,54,44,0
2,note_on,54,0,360
2,note_on,56,41,0
2,note_on,56,0,120
2,note_on,54,45,0
2,note_on,54,0,480
2,note_on,63,0,0
2,note_on,61,49,0
2,note_on,54,41,360
2,note_on,54,0,120
2,note_on,52,44,0
2,note_on,52,0,360
2,note_on,54,41,0
2,note_on,54,0,120
2,note_on,52,45,0
2,note_on,52,0,480
2,note_on,61,0,0
2,note_on,51,44,0
2,note_on,51,0,360
2,note_on,52,41,0
2,note_on,52,0,120
2,note_on,56,45,0
2,note_on,56,0,480
2,note_on,54,44,0
2,note_on,54,0,480
2,note_on,56,46,0
2,note_on,56,0,360
2,note_on,54,42,0
2,note_on,54,0,120
2,note_on,52,45,0
2,note_on,52,0,480
2,note_on,42,39,0
2,note_on,42,0,480
2,note_on,47,44,0
2,note_on,47,0,360
2,note_on,49,41,0
2,note_on,49,0,120
2,note_on,51,45,0
2,note_on,51,0,480
2,note_on,54,44,0
2,note_on,54,0,480
2,note_on,55,43,0
2,note_on,55,0,360
2,note_on,54,39,0
2,note_on,54,0,120
2,note_on,52,42,0
2,note_on,52,0,480
2,note_on,42,36,0
2,note_on,42,0,480
2,note_on,47,41,0
2,note_on,47,0,360
2,note_on,49,38,0
2,note_on,49,0,120
2,note_on,50,41,0
2,note_on,50,0,480
2,note_on,54,40,0
2,note_on,54,0,480
2,note_on,55,42,0
2,note_on,55,0,240
2,note_on,54,38,0
2,note_on,54,0,240
2,note_on,52,41,0
2,note_on,52,0,480
2,note_on,43,35,0
2,note_on,43,0,480
2,note_on,55,41,0
2,note_on,55,0,240
2,note_on,54,37,0
2,note_on,54,0,240
2,note_on,52,40,0
2,note_on,52,0,480
2,note_on,44,34,0
2,note_on,44,0,480
2,note_on,55,40,0
2,note_on,55,0,360
2,note_on,54,36,0
2,note_on,54,0,120
2,note_on,52,39,0
2,note_on,52,0,480
2,note_on,45,34,0
2,note_on,45,0,480
2,note_on,55,40,0
2,note_on,55,0,360
2,note_on,54,36,0
2,note_on,54,0,120
2,note_on,52,39,0
2,note_on,52,0,480
2,note_on,46,33,0
2,note_on,46,0,480
2,note_on,47,42,0
2,note_on,47,0,392
2,note_on,64,34,0
2,note_on,59,28,0
2,note_on,55,28,0
2,note_on,55,0,480
2,note_on,59,0,0
2,note_on,64,0,0
2,note_on,64,33,0
2,note_on,59,28,0
2,note_on,55,28,0
2,note_on,55,0,480
2,note_on,59,0,0
2,note_on,64,0,0
2,note_on,47,42,0
2,note_on,47,0,282
2,note_on,62,26,0
2,note_on,59,22,0
2,note_on,54,22,0
2,note_on,54,0,480
2,note_on,59,0,0
2,note_on,62,0,0
2,note_on,62,26,0
2,note_on,59,22,0
2,note_on,54,22,0
2,note_on,54,0,480
2,note_on,59,0,0
2,note_on,62,0,0
2,note_on,47,42,0
2,note_on,47,0,399
2,note_on,64,34,0
2,note_on,58,28,0
2,note_on,54,28,0
2,note_on,54,0,480
2,note_on,58,0,0
2,note_on,64,0,0
2,note_on,64,33,0
2,note_on,58,28,0
2,note_on,54,28,0
2,note_on,54,0,465
2,note_on,58,0,0
2,note_on,64,0,0
2,note_on,47,42,0
2,note_on,47,0,282
2,note_on,62,26,0
2,note_on,59,22,0
2,note_on,54,22,0
2,note_on,54,0,480
2,note_on,59,0,0
2,note_on,62,0,0
2,note_on,62,26,0
2,note_on,59,22,0
2,note_on,54,22,0
2,note_on,54,0,480
2,note_on,59,0,0
2,note_on,62,0,0
2,note_on,37,47,0
2,note_on,37,0,434
2,note_on,59,38,0
2,note_on,53,32,0
2,note_on,49,32,0
2,note_on,49,0,360
2,note_on,53,0,0
2,note_on,59,0,0
2,note_on,59,37,0
2,note_on,53,31,0
2,note_on,49,31,0
2,note_on,49,0,466
2,note_on,53,0,0
2,note_on,59,0,0
2,note_on,42,47,0
2,note_on,42,0,282
2,note_on,57,35,0
2,note_on,49,29,0
2,note_on,49,0,480
2,note_on,57,0,0
2,note_on,49,47,3332
2,note_on,56,58,0
2,note_on,56,0,480
2,note_on,54,55,0
2,note_on,54,0,297
2,note_on,57,55,0
2,note_on,57,0,480
2,note_on,49,0,0
2,note_on,49,47,0
2,note_on,56,57,0
2,note_on,56,0,233
2,note_on,54,51,0
2,note_on,54,0,240
2,note_on,57,56,0
2,note_on,57,0,480
2,note_on,57,54,0
2,note_on,57,0,480
2,note_on,49,0,0
2,note_on,49,47,0
2,note_on,56,57,0
2,note_on,56,0,480
2,note_on,54,56,0
2,note_on,54,0,381
2,note_on,58,54,0
2,note_on,58,0,480
2,note_on,49,0,0
2,note_on,49,47,0
2,note_on,56,57,0
2,note_on,56,0,232
2,note_on,54,51,0
2,note_on,49,0,240
2,note_on,42,47,0
2,note_on,54,0,448
2,note_on,42,0,469
2,note_on,47,50,0
2,note_on,47,0,399
2,note_on,64,40,0
2,note_on,59,34,0
2,note_on,55,34,0
2,note_on,55,0,480
2,note_on,59,0,0
2,note_on,64,0,0
2,note_on,64,39,0
2,note_on,59,33,0
2,note_on,55,33,0
2,note_on,55,0,480
2,note_on,59,0,0
2,note_on,64,0,0
2,note_on,47,50,0
2,note_on,47,0,282
2,note_on,62,31,0
2,note_on,59,26,0
2,note_on,54,26,0
2,note_on,54,0,480
2,note_on,59,0,0
2,note_on,62,0,0
2,note_on,62,31,0
2,note_on,59,26,0
2,note_on,54,26,0
2,note_on,54,0,480
2,note_on,59,0,0
2,note_on,62,0,0
2,note_on,47,50,0
2,note_on,47,0,388
2,note_on,64,40,0
2,note_on,58,34,0
2,note_on,54,34,0
2,note_on,54,0,480
2,note_on,58,0,0
2,note_on,64,0,0
2,note_on,64,39,0
2,note_on,58,33,0
2,note_on,54,33,0
2,note_on,54,0,466
2,note_on,58,0,0
2,note_on,64,0,0
2,note_on,47,50,0
2,note_on,47,0,282
2,note_on,62,31,0
2,note_on,59,26,0
2,note_on,54,26,0
2,note_on,54,0,480
2,note_on,59,0,0
2,note_on,62,0,0
2,note_on,59,38,465
2,note_on,65,43,0
2,note_on,65,0,480
2,note_on,59,0,0
2,note_on,60,34,0
2,note_on,64,38,0
2,note_on,64,0,480
2,note_on,60,0,0
2,note_on,60,34,0
2,note_on,64,38,0
2,note_on,64,0,480
2,note_on,60,0,0
2,note_on,55,41,0
2,note_on,59,41,0
2,note_on,65,46,0
2,note_on,65,0,480
2,note_on,59,0,0
2,note_on,55,0,0
2,note_on,55,34,0
2,note_on,59,34,0
2,note_on,65,38,0
2,note_on,65,0,480
2,note_on,59,0,0
2,note_on,55,0,0
2,note_on,60,34,0
2,note_on,64,38,0
2,note_on,64,0,480
2,note_on,60,0,0
2,note_on,59,38,0
2,note_on,65,43,0
2,note_on,65,0,480
2,note_on,59,0,0
2,note_on,60,34,0
2,note_on,64,38,0
2,note_on,64,0,480
2,note_on,60,0,0
2,note_on,60,34,0
2,note_on,64,38,0
2,note_on,64,0,480
2,note_on,60,0,0
2,note_on,55,41,0
2,note_on,59,41,0
2,note_on,65,46,0
2,note_on,65,0,480
2,note_on,59,0,0
2,note_on,55,0,0
2,note_on,55,33,0
2,note_on,59,33,0
2,note_on,65,37,0
2,note_on,65,0,480
2,note_on,59,0,0
2,note_on,55,0,0
2,note_on,60,32,0
2,note_on,64,36,0
2,note_on,64,0,480
2,note_on,60,0,0
2,note_on,55,38,0
2,note_on,59,38,0
2,note_on,65,43,0
2,note_on,65,0,480
2,note_on,59,0,0
2,note_on,55,0,0
2,note_on,60,31,0
2,note_on,64,34,0
2,note_on,64,0,480
2,note_on,60,0,0
2,note_on,55,36,0
2,note_on,59,36,0
2,note_on,65,41,0
2,note_on,65,0,480
2,note_on,59,0,0
2,note_on,55,0,0
2,note_on,60,29,0
2,note_on,64,29,0
2,note_on,64,0,480
2,note_on,60,0,0
2,note_on,55,35,0
2,note_on,59,35,0
2,note_on,65,39,0
2,note_on,65,0,480
2,note_on,59,0,0
2,note_on,55,0,0
2,note_on,60,28,0
2,note_on,64,31,0
2,note_on,64,0,480
2,note_on,60,0,0
2,note_on,55,34,0
2,note_on,59,34,0
2,note_on,65,38,0
2,note_on,65,0,480
2,note_on,59,0,0
2,note_on,55,0,0
2,note_on,55,26,0
2,note_on,59,26,0
2,note_on,65,30,0
2,note_on,65,0,480
2,note_on,59,0,0
2,note_on,55,0,0
2,note_on,60,25,0
2,note_on,64,28,0
2,note_on,64,0,480
2,note_on,60,0,0
2,note_on,55,31,0
2,note_on,59,31,0
2,note_on,65,36,0
2,note_on,65,0,480
2,note_on,59,0,0
2,note_on,55,0,0
2,note_on,55,24,0
2,note_on,59,24,0
2,note_on,65,28,0
2,note_on,65,0,480
2,note_on,59,0,0
2,note_on,55,0,0
2,note_on,60,23,0
2,note_on,64,26,0
2,note_on,64,0,480
2,note_on,60,0,0
2,note_on,67,40,0
2,note_on,67,0,1333
2,note_on,60,45,0
2,note_on,60,0,1440
2,note_on,67,40,0
2,note_on,67,0,1440
2,note_on,60,45,0
2,note_on,60,0,1440
2,note_on,67,41,0
2,note_on,67,0,2875
2,note_on,42,44,1437
2,note_on,42,0,381
2,note_on,42,39,0
2,note_on,42,0,325
2,note_on,35,37,0
2,note_on,47,44,0
2,note_on,47,0,353
2,note_on,35,0,0
