Track,Message Type,Note,Velocity,Time
1,note_on,83,103,4
1,note_on,79,94,0
1,note_on,77,94,0
1,note_on,74,94,0
1,note_on,71,94,0
1,note_on,71,0,960
1,note_on,77,0,0
1,note_on,83,0,0
1,note_on,79,0,0
1,note_on,74,0,0
1,note_on,80,102,2396
1,note_on,75,93,0
1,note_on,77,93,0
1,note_on,68,93,0
1,note_on,68,0,360
1,note_on,80,0,0
1,note_on,75,0,0
1,note_on,77,0,0
1,note_on,67,87,0
1,note_on,79,95,0
1,note_on,79,0,120
1,note_on,67,0,0
1,note_on,86,106,0
1,note_on,77,96,0
1,note_on,79,96,0
1,note_on,74,96,0
1,note_on,74,0,960
1,note_on,86,0,0
1,note_on,77,0,0
1,note_on,79,0,0
1,note_on,80,101,2400
1,note_on,75,92,0
1,note_on,77,92,0
1,note_on,68,92,0
1,note_on,68,0,360
1,note_on,80,0,0
1,note_on,75,0,0
1,note_on,77,0,0
1,note_on,67,88,0
1,note_on,79,95,0
1,note_on,79,0,120
1,note_on,67,0,0
1,note_on,77,96,0
1,note_on,89,106,0
1,note_on,79,96,0
1,note_on,86,96,0
1,note_on,86,0,240
1,note_on,77,0,0
1,note_on,89,0,0
1,note_on,79,0,0
1,note_on,92,87,2
1,note_on,91,80,113
1,note_on,92,0,19
1,note_on,89,87,101
1,note_on,91,0,12
1,note_on,86,77,118
1,note_on,89,0,2
1,note_on,87,77,111
1,note_on,86,0,19
1,note_on,86,76,101
1,note_on,87,0,12
1,note_on,83,87,111
1,note_on,86,0,9
1,note_on,79,77,112
1,note_on,83,0,11
1,note_on,80,77,111
1,note_on,79,0,10
1,note_on,79,76,108
1,note_on,80,0,14
1,note_on,77,87,104
1,note_on,79,0,14
1,note_on,74,77,103
1,note_on,77,0,15
1,note_on,75,77,111
1,note_on,74,0,6
1,note_on,74,76,111
1,note_on,75,0,15
1,note_on,71,87,105
1,note_on,74,0,12
1,note_on,67,77,113
1,note_on,71,0,7
1,note_on,68,77,111
1,note_on,67,0,14
1,note_on,67,76,99
1,note_on,68,0,19
1,note_on,65,87,106
1,note_on,67,0,7
1,note_on,62,77,111
1,note_on,65,0,14
1,note_on,63,77,110
1,note_on,62,0,8
1,note_on,62,76,110
1,note_on,63,0,14
1,note_on,59,87,106
1,note_on,62,0,12
1,note_on,55,77,105
1,note_on,59,0,15
1,note_on,56,77,103
1,note_on,55,0,14
1,note_on,55,76,107
1,note_on,56,0,11
1,note_on,53,87,111
1,note_on,55,0,10
1,note_on,50,77,114
1,note_on,53,0,8
1,note_on,51,77,109
1,note_on,50,0,15
1,note_on,50,76,110
1,note_on,51,0,7
1,note_on,48,69,111
1,note_on,50,0,14
1,note_on,47,69,101
1,note_on,48,0,5
1,note_on,55,73,113
1,note_on,47,0,2
1,note_on,55,0,118
1,note_on,53,72,6
1,note_on,51,71,118
1,note_on,53,0,14
1,note_on,50,70,101
1,note_on,51,0,17
1,note_on,51,69,110
1,note_on,50,0,5
1,note_on,50,69,113
1,note_on,51,0,14
1,note_on,48,69,102
1,note_on,50,0,16
1,note_on,47,68,113
1,note_on,48,0,3
1,note_on,58,76,108
1,note_on,47,0,9
1,note_on,56,74,119
1,note_on,58,0,4
1,note_on,55,76,114
1,note_on,56,0,14
1,note_on,53,74,102
1,note_on,55,0,16
1,note_on,55,74,105
1,note_on,53,0,11
1,note_on,53,73,105
1,note_on,55,0,16
1,note_on,51,73,114
1,note_on,53,0,2
1,note_on,50,73,115
1,note_on,51,0,15
1,note_on,63,82,99
1,note_on,50,0,6
1,note_on,62,83,122
1,note_on,63,0,4
1,note_on,60,84,116
1,note_on,62,0,12
1,note_on,59,85,105
1,note_on,60,0,15
1,note_on,60,85,101
1,note_on,59,0,16
1,note_on,59,87,103
1,note_on,60,0,13
1,note_on,56,88,114
1,note_on,59,0,5
1,note_on,55,89,112
1,note_on,56,0,15
1,note_on,56,90,101
1,note_on,55,0,16
1,note_on,55,89,108
1,note_on,56,0,8
1,note_on,53,92,115
1,note_on,55,0,9
1,note_on,51,94,107
1,note_on,53,0,16
1,note_on,53,97,103
1,note_on,51,0,13
1,note_on,51,102,110
1,note_on,53,0,9
1,note_on,48,104,107
1,note_on,51,0,16
1,note_on,48,0,224
1,note_on,84,95,3003
1,note_on,72,87,0
1,note_on,74,93,120
1,note_on,86,102,0
1,note_on,72,0,10
1,note_on,84,0,0
1,note_on,75,97,350
1,note_on,87,107,0
1,note_on,74,0,10
1,note_on,86,0,0
1,note_on,75,0,110
1,note_on,87,0,0
1,note_on,75,104,0
1,note_on,87,114,0
1,note_on,87,0,960
1,note_on,75,0,0
1,note_on,72,47,360
1,note_on,67,47,0
1,note_on,75,47,0
1,note_on,79,47,0
1,note_on,79,0,120
1,note_on,72,0,0
1,note_on,67,0,0
1,note_on,75,0,0
1,note_on,67,47,0
1,note_on,72,47,0
1,note_on,75,47,0
1,note_on,79,47,0
1,note_on,79,0,360
1,note_on,67,0,0
1,note_on,72,0,0
1,note_on,75,0,0
1,note_on,67,54,0
1,note_on,72,54,0
1,note_on,75,54,0
1,note_on,79,54,0
1,note_on,79,0,120
1,note_on,67,0,0
1,note_on,72,0,0
1,note_on,75,0,0
1,note_on,80,55,0
1,note_on,72,55,0
1,note_on,75,55,0
1,note_on,68,55,0
1,note_on,68,0,960
1,note_on,80,0,0
1,note_on,72,0,0
1,note_on,75,0,0
1,note_on,67,47,0
1,note_on,72,47,0
1,note_on,75,47,0
1,note_on,79,47,0
1,note_on,79,0,240
1,note_on,67,0,0
1,note_on,72,0,0
1,note_on,75,0,0
1,note_on,84,95,120
1,note_on,72,87,0
1,note_on,74,92,120
1,note_on,86,101,0
1,note_on,72,0,10
1,note_on,84,0,0
1,note_on,75,97,350
1,note_on,87,107,0
1,note_on,74,0,10
1,note_on,86,0,0
1,note_on,75,0,110
1,note_on,87,0,0
1,note_on,75,103,0
1,note_on,87,113,0
1,note_on,87,0,960
1,note_on,75,0,0
1,note_on,67,69,360
1,note_on,72,69,0
1,note_on,75,69,0
1,note_on,79,76,0
1,note_on,79,0,120
1,note_on,67,0,0
1,note_on,72,0,0
1,note_on,75,0,0
1,note_on,67,69,0
1,note_on,72,69,0
1,note_on,75,69,0
1,note_on,79,76,0
1,note_on,79,0,360
1,note_on,67,0,0
1,note_on,72,0,0
1,note_on,75,0,0
1,note_on,79,82,0
1,note_on,72,75,0
1,note_on,75,75,0
1,note_on,67,75,0
1,note_on,67,0,120
1,note_on,79,0,0
1,note_on,72,0,0
1,note_on,75,0,0
1,note_on,69,84,0
1,note_on,72,84,0
1,note_on,75,84,0
1,note_on,81,92,0
1,note_on,81,0,1920
1,note_on,69,0,0
1,note_on,72,0,0
1,note_on,75,0,0
1,note_on,74,95,0
1,note_on,81,95,0
1,note_on,86,105,0
1,note_on,81,0,240
1,note_on,86,0,60
1,note_on,74,0,0
1,note_on,79,91,180
1,note_on,67,83,0
1,note_on,74,83,0
1,note_on,74,0,480
1,note_on,67,0,0
1,note_on,79,0,0
1,note_on,67,66,360
1,note_on,73,66,0
1,note_on,79,72,0
1,note_on,79,0,120
1,note_on,73,0,0
1,note_on,67,0,0
1,note_on,73,81,0
1,note_on,68,81,0
1,note_on,80,89,0
1,note_on,80,0,360
1,note_on,68,0,0
1,note_on,73,0,0
1,note_on,73,65,0
1,note_on,67,65,0
1,note_on,79,71,0
1,note_on,79,0,120
1,note_on,67,0,0
1,note_on,73,0,0
1,note_on,67,74,0
1,note_on,72,74,0
1,note_on,79,81,0
1,note_on,72,0,240
1,note_on,72,70,0
1,note_on,84,76,0
1,note_on,79,0,10
1,note_on,67,0,0
1,note_on,72,0,110
1,note_on,84,0,0
1,note_on,65,77,120
1,note_on,72,77,0
1,note_on,77,86,0
1,note_on,77,0,480
1,note_on,72,0,0
1,note_on,65,0,0
1,note_on,65,63,360
1,note_on,72,63,0
1,note_on,77,69,0
1,note_on,77,0,120
1,note_on,72,0,0
1,note_on,65,0,0
1,note_on,67,79,0
1,note_on,72,79,0
1,note_on,79,87,0
1,note_on,79,0,360
1,note_on,72,0,0
1,note_on,67,0,0
1,note_on,65,63,0
1,note_on,72,63,0
1,note_on,77,69,0
1,note_on,77,0,120
1,note_on,72,0,0
1,note_on,65,0,0
1,note_on,64,76,0
1,note_on,72,76,0
1,note_on,76,84,0
1,note_on,76,0,1800
1,note_on,72,0,0
1,note_on,64,0,0
1,note_on,63,70,0
1,note_on,75,70,0
1,note_on,75,0,120
1,note_on,63,0,0
1,note_on,71,75,0
1,note_on,63,75,0
1,note_on,75,75,0
1,note_on,75,0,480
1,note_on,63,0,0
1,note_on,62,63,0
1,note_on,74,63,0
1,note_on,74,0,480
1,note_on,62,0,0
1,note_on,71,0,0
1,note_on,72,61,4200
1,note_on,84,67,0
1,note_on,86,67,120
1,note_on,74,61,0
1,note_on,84,0,10
1,note_on,72,0,0
1,note_on,75,62,350
1,note_on,87,68,0
1,note_on,86,0,10
1,note_on,74,0,0
1,note_on,75,0,110
1,note_on,87,0,0
1,note_on,75,72,0
1,note_on,87,79,0
1,note_on,87,0,960
1,note_on,75,0,0
1,note_on,67,51,360
1,note_on,72,51,0
1,note_on,75,51,0
1,note_on,79,56,0
1,note_on,79,0,120
1,note_on,67,0,0
1,note_on,72,0,0
1,note_on,75,0,0
1,note_on,67,51,0
1,note_on,72,51,0
1,note_on,75,51,0
1,note_on,79,56,0
1,note_on,79,0,360
1,note_on,67,0,0
1,note_on,72,0,0
1,note_on,75,0,0
1,note_on,67,51,0
1,note_on,72,51,0
1,note_on,75,51,0
1,note_on,79,56,0
1,note_on,79,0,120
1,note_on,67,0,0
1,note_on,72,0,0
1,note_on,75,0,0
1,note_on,68,60,0
1,note_on,72,60,0
1,note_on,75,60,0
1,note_on,80,66,0
1,note_on,80,0,960
1,note_on,68,0,0
1,note_on,72,0,0
1,note_on,75,0,0
1,note_on,79,56,0
1,note_on,72,51,0
1,note_on,75,51,0
1,note_on,67,51,0
1,note_on,67,0,240
1,note_on,79,0,0
1,note_on,72,0,0
1,note_on,75,0,0
1,note_on,72,72,120
1,note_on,84,79,0
1,note_on,74,84,120
1,note_on,86,92,0
1,note_on,84,0,10
1,note_on,72,0,0
1,note_on,75,92,350
1,note_on,87,101,0
1,note_on,74,0,10
1,note_on,86,0,0
1,note_on,75,0,110
1,note_on,87,0,0
1,note_on,75,97,0
1,note_on,87,107,0
1,note_on,87,0,960
1,note_on,75,0,0
1,note_on,79,81,360
1,note_on,72,74,0
1,note_on,75,74,0
1,note_on,67,74,0
1,note_on,67,0,120
1,note_on,79,0,0
1,note_on,72,0,0
1,note_on,75,0,0
1,note_on,67,74,0
1,note_on,72,74,0
1,note_on,75,74,0
1,note_on,79,81,0
1,note_on,79,0,360
1,note_on,67,0,0
1,note_on,72,0,0
1,note_on,75,0,0
1,note_on,67,76,0
1,note_on,72,76,0
1,note_on,75,76,0
1,note_on,79,83,0
1,note_on,79,0,120
1,note_on,67,0,0
1,note_on,72,0,0
1,note_on,75,0,0
1,note_on,81,95,0
1,note_on,75,87,0
1,note_on,77,87,0
1,note_on,69,87,0
1,note_on,69,0,1920
1,note_on,81,0,0
1,note_on,75,0,0
1,note_on,77,0,0
1,note_on,70,71,0
1,note_on,77,71,0
1,note_on,82,77,0
1,note_on,82,0,720
1,note_on,77,0,0
1,note_on,70,0,0
1,note_on,70,73,0
1,note_on,77,73,0
1,note_on,82,80,0
1,note_on,82,0,480
1,note_on,77,0,0
1,note_on,70,0,0
1,note_on,70,76,0
1,note_on,79,76,0
1,note_on,82,84,0
1,note_on,82,0,480
1,note_on,79,0,0
1,note_on,70,0,0
1,note_on,79,79,0
1,note_on,71,79,0
1,note_on,83,87,0
1,note_on,83,0,480
1,note_on,71,0,0
1,note_on,79,0,0
1,note_on,79,82,0
1,note_on,72,82,0
1,note_on,82,82,0
1,note_on,84,90,0
1,note_on,84,0,480
1,note_on,79,0,0
1,note_on,72,0,0
1,note_on,82,0,0
1,note_on,73,85,0
1,note_on,85,93,0
1,note_on,82,85,0
1,note_on,82,0,480
1,note_on,85,0,0
1,note_on,73,0,0
1,note_on,74,89,0
1,note_on,82,89,0
1,note_on,86,97,0
1,note_on,82,0,240
1,note_on,75,90,0
1,note_on,82,90,0
1,note_on,87,99,0
1,note_on,86,0,10
1,note_on,74,0,0
1,note_on,82,0,230
1,note_on,76,92,0
1,note_on,82,92,0
1,note_on,88,101,0
1,note_on,75,0,10
1,note_on,87,0,0
1,note_on,82,0,230
1,note_on,82,97,0
1,note_on,89,107,0
1,note_on,86,97,0
1,note_on,77,97,0
1,note_on,76,0,10
1,note_on,88,0,0
1,note_on,86,0,950
1,note_on,89,0,0
1,note_on,77,0,0
1,note_on,82,0,0
1,note_on,82,90,0
1,note_on,74,90,0
1,note_on,77,90,0
1,note_on,86,99,0
1,note_on,77,0,480
1,note_on,82,0,0
1,note_on,74,0,0
1,note_on,75,84,0
1,note_on,77,84,0
1,note_on,81,84,0
1,note_on,86,0,360
1,note_on,84,85,0
1,note_on,84,0,120
1,note_on,81,0,0
1,note_on,77,0,0
1,note_on,75,0,0
1,note_on,74,76,0
1,note_on,82,83,0
1,note_on,82,0,240
1,note_on,74,0,0
1,note_on,71,83,1680
1,note_on,75,83,0
1,note_on,80,83,0
1,note_on,83,91,0
1,note_on,83,0,1440
1,note_on,71,0,0
1,note_on,75,0,0
1,note_on,80,0,0
1,note_on,75,72,0
1,note_on,68,66,0
1,note_on,71,66,0
1,note_on,63,66,0
1,note_on,63,0,360
1,note_on,75,0,0
1,note_on,68,0,0
1,note_on,71,0,0
1,note_on,65,74,0
1,note_on,77,81,0
1,note_on,77,0,120
1,note_on,65,0,0
1,note_on,78,91,0
1,note_on,70,83,0
1,note_on,75,83,0
1,note_on,66,83,0
1,note_on,66,0,1440
1,note_on,78,0,0
1,note_on,70,0,0
1,note_on,75,0,0
1,note_on,66,73,0
1,note_on,78,80,0
1,note_on,78,0,360
1,note_on,66,0,0
1,note_on,80,85,0
1,note_on,68,76,0
1,note_on,68,0,120
1,note_on,80,0,0
1,note_on,81,91,0
1,note_on,69,83,0
1,note_on,73,83,0
1,note_on,78,83,0
1,note_on,78,0,1440
1,note_on,81,0,0
1,note_on,69,0,0
1,note_on,73,0,0
1,note_on,73,76,0
1,note_on,66,70,0
1,note_on,69,70,0
1,note_on,61,70,0
1,note_on,61,0,360
1,note_on,73,0,0
1,note_on,66,0,0
1,note_on,69,0,0
1,note_on,63,77,0
1,note_on,75,86,0
1,note_on,75,0,120
1,note_on,63,0,0
1,note_on,76,91,0
1,note_on,68,83,0
1,note_on,73,83,0
1,note_on,64,83,0
1,note_on,64,0,1440
1,note_on,76,0,0
1,note_on,68,0,0
1,note_on,73,0,0
1,note_on,64,73,0
1,note_on,76,80,0
1,note_on,76,0,360
1,note_on,64,0,0
1,note_on,66,77,0
1,note_on,78,86,0
1,note_on,78,0,120
1,note_on,66,0,0
1,note_on,68,83,0
1,note_on,75,83,0
1,note_on,78,83,0
1,note_on,80,91,0
1,note_on,80,0,1440
1,note_on,68,0,0
1,note_on,75,0,0
1,note_on,78,0,0
1,note_on,80,88,0
1,note_on,75,80,0
1,note_on,78,80,0
1,note_on,68,80,0
1,note_on,68,0,360
1,note_on,80,0,0
1,note_on,75,0,0
1,note_on,78,0,0
1,note_on,70,84,0
1,note_on,82,92,0
1,note_on,82,0,120
1,note_on,70,0,0
1,note_on,83,99,0
1,note_on,77,91,0
1,note_on,80,91,0
1,note_on,71,91,0
1,note_on,71,0,480
1,note_on,83,0,0
1,note_on,77,0,0
1,note_on,80,0,0
1,note_on,70,91,0
1,note_on,77,91,0
1,note_on,80,91,0
1,note_on,82,99,0
1,note_on,82,0,960
1,note_on,70,0,0
1,note_on,77,0,0
1,note_on,80,0,0
1,note_on,70,93,0
1,note_on,77,93,0
1,note_on,80,93,0
1,note_on,82,102,0
1,note_on,82,0,360
1,note_on,70,0,0
1,note_on,77,0,0
1,note_on,80,0,0
1,note_on,72,93,0
1,note_on,84,102,0
1,note_on,84,0,120
1,note_on,72,0,0
1,note_on,73,95,0
1,note_on,79,95,0
1,note_on,82,95,0
1,note_on,85,106,0
1,note_on,85,0,480
1,note_on,73,0,0
1,note_on,79,0,0
1,note_on,82,0,0
1,note_on,82,90,0
1,note_on,72,90,0
1,note_on,79,90,0
1,note_on,84,97,0
1,note_on,84,0,480
1,note_on,82,0,0
1,note_on,72,0,0
1,note_on,79,0,0
1,note_on,92,104,2880
1,note_on,89,95,0
1,note_on,84,95,0
1,note_on,80,95,0
1,note_on,80,0,960
1,note_on,92,0,0
1,note_on,89,0,0
1,note_on,84,0,0
1,note_on,89,95,0
1,note_on,84,88,0
1,note_on,77,88,0
1,note_on,77,0,480
1,note_on,84,0,0
1,note_on,89,0,0
1,note_on,72,84,0
1,note_on,77,84,0
1,note_on,84,92,0
1,note_on,84,0,480
1,note_on,77,0,0
1,note_on,72,0,0
1,note_on,77,87,0
1,note_on,70,87,0
1,note_on,82,95,0
1,note_on,82,0,960
1,note_on,70,0,0
1,note_on,68,71,0
1,note_on,80,77,0
1,note_on,80,0,480
1,note_on,68,0,0
1,note_on,77,0,0
1,note_on,80,84,480
1,note_on,89,84,0
1,note_on,84,84,0
1,note_on,92,92,0
1,note_on,92,0,960
1,note_on,80,0,0
1,note_on,89,0,0
1,note_on,84,0,0
1,note_on,89,87,0
1,note_on,84,79,0
1,note_on,77,79,0
1,note_on,77,0,480
1,note_on,84,0,0
1,note_on,89,0,0
1,note_on,72,79,0
1,note_on,77,79,0
1,note_on,84,87,0
1,note_on,84,0,480
1,note_on,77,0,0
1,note_on,72,0,0
1,note_on,72,86,0
1,note_on,77,86,0
1,note_on,84,94,0
1,note_on,84,0,1440
1,note_on,77,0,0
1,note_on,72,0,0
1,note_on,71,75,0
1,note_on,77,75,0
1,note_on,83,82,0
1,note_on,83,0,360
1,note_on,77,0,0
1,note_on,71,0,0
1,note_on,72,85,0
1,note_on,84,93,0
1,note_on,84,0,120
1,note_on,72,0,0
1,note_on,74,93,0
1,note_on,83,93,0
1,note_on,77,93,0
1,note_on,86,102,0
1,note_on,86,0,960
1,note_on,74,0,0
1,note_on,83,0,0
1,note_on,77,0,0
1,note_on,68,94,2400
1,note_on,75,94,0
1,note_on,77,94,0
1,note_on,80,103,0
1,note_on,80,0,360
1,note_on,68,0,0
1,note_on,75,0,0
1,note_on,77,0,0
1,note_on,67,89,0
1,note_on,79,97,0
1,note_on,79,0,120
1,note_on,67,0,0
1,note_on,89,107,0
1,note_on,86,97,0
1,note_on,77,97,0
1,note_on,79,97,0
1,note_on,79,0,960
1,note_on,89,0,0
1,note_on,86,0,0
1,note_on,77,0,0
1,note_on,80,95,2400
1,note_on,75,88,0
1,note_on,77,88,0
1,note_on,68,88,0
1,note_on,68,0,360
1,note_on,80,0,0
1,note_on,75,0,0
1,note_on,77,0,0
1,note_on,67,84,0
1,note_on,79,92,0
1,note_on,79,0,120
1,note_on,67,0,0
1,note_on,77,98,0
1,note_on,86,98,0
1,note_on,79,98,0
1,note_on,91,108,0
1,note_on,91,0,240
1,note_on,77,0,0
1,note_on,86,0,0
1,note_on,79,0,0
1,note_on,92,87,2
1,note_on,91,80,121
1,note_on,92,0,11
1,note_on,89,87,110
1,note_on,91,0,11
1,note_on,86,77,108
1,note_on,89,0,13
1,note_on,87,77,108
1,note_on,86,0,11
1,note_on,86,76,109
1,note_on,87,0,12
1,note_on,83,87,109
1,note_on,86,0,11
1,note_on,79,77,104
1,note_on,83,0,17
1,note_on,80,77,102
1,note_on,79,0,13
1,note_on,79,76,104
1,note_on,80,0,15
1,note_on,77,87,107
1,note_on,79,0,10
1,note_on,74,77,116
1,note_on,77,0,6
1,note_on,75,77,109
1,note_on,74,0,17
1,note_on,74,76,100
1,note_on,75,0,15
1,note_on,71,87,104
1,note_on,74,0,13
1,note_on,67,77,114
1,note_on,71,0,5
1,note_on,68,77,116
1,note_on,67,0,11
1,note_on,67,76,101
1,note_on,68,0,20
1,note_on,65,87,100
1,note_on,67,0,12
1,note_on,62,77,112
1,note_on,65,0,8
1,note_on,63,77,115
1,note_on,62,0,9
1,note_on,62,76,112
1,note_on,63,0,11
1,note_on,59,87,102
1,note_on,62,0,19
1,note_on,55,77,101
1,note_on,59,0,12
1,note_on,56,77,107
1,note_on,55,0,13
1,note_on,55,76,110
1,note_on,56,0,9
1,note_on,53,87,108
1,note_on,55,0,15
1,note_on,50,77,115
1,note_on,53,0,2
1,note_on,51,76,115
1,note_on,50,0,15
1,note_on,50,76,98
1,note_on,51,0,19
1,note_on,48,76,111
1,note_on,50,0,2
1,note_on,47,76,115
1,note_on,48,0,15
1,note_on,55,77,102
1,note_on,47,0,3
1,note_on,53,76,113
1,note_on,55,0,16
1,note_on,51,74,106
1,note_on,53,0,10
1,note_on,50,73,112
1,note_on,51,0,10
1,note_on,51,72,113
1,note_on,50,0,9
1,note_on,50,71,112
1,note_on,51,0,11
1,note_on,48,69,101
1,note_on,50,0,20
1,note_on,47,69,109
1,note_on,48,0,3
1,note_on,58,74,109
1,note_on,47,0,8
1,note_on,56,73,117
1,note_on,58,0,7
1,note_on,55,73,113
1,note_on,56,0,12
1,note_on,53,72,112
1,note_on,55,0,8
1,note_on,55,72,107
1,note_on,53,0,17
1,note_on,53,71,100
1,note_on,55,0,15
1,note_on,51,70,106
1,note_on,53,0,11
1,note_on,50,69,114
1,note_on,51,0,7
1,note_on,63,76,108
1,note_on,50,0,5
1,note_on,62,77,117
1,note_on,63,0,10
1,note_on,60,80,111
1,note_on,62,0,11
1,note_on,59,81,104
1,note_on,60,0,30
1,note_on,60,82,99
1,note_on,59,0,16
1,note_on,59,84,102
1,note_on,60,0,27
1,note_on,56,87,86
1,note_on,59,0,32
1,note_on,55,88,92
1,note_on,56,0,21
1,note_on,56,90,101
1,note_on,55,0,23
1,note_on,55,92,100
1,note_on,56,0,22
1,note_on,53,94,96
1,note_on,55,0,27
1,note_on,51,95,92
1,note_on,53,0,26
1,note_on,53,99,93
1,note_on,51,0,26
1,note_on,51,101,98
1,note_on,53,0,21
1,note_on,48,103,98
1,note_on,51,0,13
1,note_on,48,0,107
1,note_on,84,97,3116
1,note_on,72,89,0
1,note_on,73,91,120
1,note_on,85,100,0
1,note_on,72,0,10
1,note_on,84,0,0
1,note_on,74,96,150
1,note_on,86,106,0
1,note_on,73,0,10
1,note_on,85,0,0
1,note_on,75,91,230
1,note_on,87,100,0
1,note_on,74,0,5
1,note_on,86,0,0
1,note_on,75,0,65
1,note_on,87,0,0
1,note_on,75,104,10
1,note_on,87,114,0
1,note_on,87,0,960
1,note_on,75,0,0
1,note_on,79,49,360
1,note_on,72,49,0
1,note_on,75,49,0
1,note_on,67,49,0
1,note_on,67,0,120
1,note_on,79,0,0
1,note_on,72,0,0
1,note_on,75,0,0
1,note_on,67,49,0
1,note_on,72,49,0
1,note_on,75,49,0
1,note_on,79,49,0
1,note_on,79,0,360
1,note_on,67,0,0
1,note_on,72,0,0
1,note_on,75,0,0
1,note_on,79,56,0
1,note_on,72,56,0
1,note_on,75,56,0
1,note_on,67,56,0
1,note_on,67,0,120
1,note_on,79,0,0
1,note_on,72,0,0
1,note_on,75,0,0
1,note_on,80,57,0
1,note_on,68,57,0
1,note_on,72,57,0
1,note_on,75,57,0
1,note_on,75,0,960
1,note_on,80,0,0
1,note_on,68,0,0
1,note_on,72,0,0
1,note_on,67,63,0
1,note_on,72,63,0
1,note_on,75,63,0
1,note_on,79,69,0
1,note_on,75,0,160
1,note_on,67,0,0
1,note_on,72,0,0
1,note_on,71,75,0
1,note_on,83,82,0
1,note_on,79,0,10
1,note_on,83,0,150
1,note_on,72,79,0
1,note_on,84,87,0
1,note_on,71,0,10
1,note_on,73,88,150
1,note_on,85,95,0
1,note_on,84,0,10
1,note_on,72,0,0
1,note_on,74,99,150
1,note_on,86,109,0
1,note_on,73,0,10
1,note_on,85,0,0
1,note_on,74,0,150
1,note_on,86,0,0
1,note_on,75,95,80
1,note_on,87,104,0
1,note_on,87,0,80
1,note_on,75,0,0
1,note_on,75,106,0
1,note_on,87,115,0
1,note_on,87,0,960
1,note_on,75,0,0
1,note_on,79,54,360
1,note_on,72,49,0
1,note_on,75,49,0
1,note_on,67,49,0
1,note_on,67,0,120
1,note_on,79,0,0
1,note_on,72,0,0
1,note_on,75,0,0
1,note_on,67,55,0
1,note_on,72,55,0
1,note_on,75,55,0
1,note_on,79,60,0
1,note_on,79,0,360
1,note_on,67,0,0
1,note_on,72,0,0
1,note_on,75,0,0
1,note_on,67,67,0
1,note_on,72,67,0
1,note_on,75,67,0
1,note_on,79,73,0
1,note_on,79,0,120
1,note_on,67,0,0
1,note_on,72,0,0
1,note_on,75,0,0
1,note_on,81,82,0
1,note_on,72,75,0
1,note_on,75,75,0
1,note_on,69,75,0
1,note_on,69,0,1560
1,note_on,81,0,0
1,note_on,72,0,0
1,note_on,75,0,0
1,note_on,69,85,180
1,note_on,74,85,60
1,note_on,81,87,60
1,note_on,86,95,60
1,note_on,86,0,180
1,note_on,69,0,0
1,note_on,74,0,0
1,note_on,81,0,0
1,note_on,67,95,300
1,note_on,74,95,0
1,note_on,79,104,0
1,note_on,79,0,480
1,note_on,74,0,0
1,note_on,67,0,0
1,note_on,73,69,160
1,note_on,67,69,0
1,note_on,79,76,0
1,note_on,79,0,160
1,note_on,67,0,0
1,note_on,73,0,0
1,note_on,73,67,0
1,note_on,67,67,0
1,note_on,79,73,0
1,note_on,79,0,160
1,note_on,67,0,0
1,note_on,73,0,0
1,note_on,79,76,0
1,note_on,73,69,0
1,note_on,67,69,0
1,note_on,67,0,160
1,note_on,73,0,0
1,note_on,79,0,0
1,note_on,80,73,0
1,note_on,73,67,0
1,note_on,68,67,0
1,note_on,68,0,160
1,note_on,73,0,0
1,note_on,80,0,0
1,note_on,67,69,80
1,note_on,73,69,0
1,note_on,79,76,0
1,note_on,79,0,80
1,note_on,73,0,0
1,note_on,67,0,0
1,note_on,67,72,0
1,note_on,72,72,0
1,note_on,79,82,0
1,note_on,72,0,120
1,note_on,72,69,0
1,note_on,84,76,0
1,note_on,79,0,10
1,note_on,67,0,0
1,note_on,72,0,110
1,note_on,84,0,0
1,note_on,65,83,240
1,note_on,72,83,0
1,note_on,77,91,0
1,note_on,77,0,480
1,note_on,72,0,0
1,note_on,65,0,0
1,note_on,65,68,160
1,note_on,72,68,0
1,note_on,77,74,0
1,note_on,77,0,160
1,note_on,72,0,0
1,note_on,65,0,0
1,note_on,65,66,0
1,note_on,72,66,0
1,note_on,77,72,0
1,note_on,77,0,160
1,note_on,72,0,0
1,note_on,65,0,0
1,note_on,64,68,0
1,note_on,72,68,0
1,note_on,76,74,0
1,note_on,72,0,120
1,note_on,65,71,0
1,note_on,72,71,0
1,note_on,77,77,0
1,note_on,76,0,10
1,note_on,64,0,0
1,note_on,72,0,110
1,note_on,67,74,0
1,note_on,72,74,0
1,note_on,79,81,0
1,note_on,65,0,10
1,note_on,77,0,0
1,note_on,72,0,80
1,note_on,67,0,0
1,note_on,79,0,0
1,note_on,65,72,90
1,note_on,72,72,0
1,note_on,77,79,0
1,note_on,77,0,50
1,note_on,72,0,0
1,note_on,65,0,0
1,note_on,64,79,10
1,note_on,72,79,0
1,note_on,76,87,0
1,note_on,76,0,240
1,note_on,72,0,0
1,note_on,64,0,0
1,note_on,72,69,240
1,note_on,63,69,0
1,note_on,75,76,0
1,note_on,75,0,1320
1,note_on,63,0,0
1,note_on,63,67,0
1,note_on,75,73,0
1,note_on,75,0,120
1,note_on,63,0,0
1,note_on,72,0,0
1,note_on,71,71,0
1,note_on,63,71,0
1,note_on,75,77,0
1,note_on,75,0,480
1,note_on,63,0,0
1,note_on,62,69,0
1,note_on,74,76,0
1,note_on,74,0,480
1,note_on,62,0,0
1,note_on,71,0,0
1,note_on,71,81,4000
1,note_on,83,89,0
1,note_on,84,92,160
1,note_on,72,84,0
1,note_on,83,0,10
1,note_on,71,0,0
1,note_on,73,87,150
1,note_on,85,95,0
1,note_on,84,0,10
1,note_on,72,0,0
1,note_on,74,95,150
1,note_on,86,105,0
1,note_on,73,0,10
1,note_on,85,0,0
1,note_on,74,0,150
1,note_on,86,0,0
1,note_on,75,94,80
1,note_on,87,103,0
1,note_on,87,0,80
1,note_on,75,0,0
1,note_on,75,107,0
1,note_on,87,116,0
1,note_on,87,0,960
1,note_on,75,0,0
1,note_on,67,49,360
1,note_on,72,49,0
1,note_on,75,49,0
1,note_on,79,54,0
1,note_on,79,0,120
1,note_on,67,0,0
1,note_on,72,0,0
1,note_on,75,0,0
1,note_on,79,54,0
1,note_on,67,49,0
1,note_on,75,49,0
1,note_on,72,49,0
1,note_on,72,0,360
1,note_on,79,0,0
1,note_on,67,0,0
1,note_on,75,0,0
1,note_on,79,54,0
1,note_on,72,49,0
1,note_on,75,49,0
1,note_on,67,49,0
1,note_on,67,0,120
1,note_on,79,0,0
1,note_on,72,0,0
1,note_on,75,0,0
1,note_on,68,57,0
1,note_on,72,57,0
1,note_on,75,57,0
1,note_on,80,62,0
1,note_on,80,0,960
1,note_on,68,0,0
1,note_on,72,0,0
1,note_on,75,0,0
1,note_on,79,77,0
1,note_on,72,71,0
1,note_on,75,71,0
1,note_on,67,71,0
1,note_on,67,0,160
1,note_on,79,0,0
1,note_on,72,0,0
1,note_on,75,0,0
1,note_on,71,71,0
1,note_on,83,77,0
1,note_on,84,79,160
1,note_on,72,72,0
1,note_on,83,0,10
1,note_on,71,0,0
1,note_on,73,81,150
1,note_on,85,89,0
1,note_on,84,0,10
1,note_on,72,0,0
1,note_on,74,84,110
1,note_on,86,92,0
1,note_on,73,0,10
1,note_on,85,0,0
1,note_on,74,0,110
1,note_on,77,94,0
1,note_on,89,103,0
1,note_on,86,0,10
1,note_on,89,0,80
1,note_on,77,0,0
1,note_on,87,88,90
1,note_on,75,80,0
1,note_on,75,0,50
1,note_on,87,0,0
1,note_on,75,100,10
1,note_on,87,110,0
1,note_on,87,0,960
1,note_on,75,0,0
1,note_on,79,59,360
1,note_on,72,54,0
1,note_on,75,54,0
1,note_on,67,54,0
1,note_on,67,0,120
1,note_on,79,0,0
1,note_on,72,0,0
1,note_on,75,0,0
1,note_on,79,61,0
1,note_on,67,56,0
1,note_on,72,56,0
1,note_on,75,56,0
1,note_on,75,0,360
1,note_on,79,0,0
1,note_on,67,0,0
1,note_on,72,0,0
1,note_on,67,64,0
1,note_on,72,64,0
1,note_on,75,64,0
1,note_on,79,70,0
1,note_on,79,0,120
1,note_on,67,0,0
1,note_on,72,0,0
1,note_on,75,0,0
1,note_on,69,75,0
1,note_on,75,75,0
1,note_on,81,82,0
1,note_on,81,0,1920
1,note_on,75,0,0
1,note_on,69,0,0
1,note_on,70,95,0
1,note_on,73,95,0
1,note_on,82,106,0
1,note_on,82,0,960
1,note_on,73,0,0
1,note_on,70,0,0
1,note_on,80,91,0
1,note_on,70,83,0
1,note_on,73,83,0
1,note_on,68,83,0
1,note_on,68,0,480
1,note_on,80,0,0
1,note_on,70,0,0
1,note_on,73,0,0
1,note_on,66,83,0
1,note_on,70,83,0
1,note_on,73,83,0
1,note_on,78,91,0
1,note_on,78,0,360
1,note_on,66,0,0
1,note_on,70,0,0
1,note_on,73,0,0
1,note_on,65,83,0
1,note_on,70,83,0
1,note_on,73,83,0
1,note_on,77,91,0
1,note_on,77,0,120
1,note_on,65,0,0
1,note_on,70,0,0
1,note_on,73,0,0
1,note_on,77,98,0
1,note_on,65,89,0
1,note_on,73,89,0
1,note_on,70,89,0
1,note_on,73,0,960
1,note_on,77,0,0
1,note_on,65,0,0
1,note_on,64,83,0
1,note_on,76,91,0
1,note_on,76,0,480
1,note_on,64,0,0
1,note_on,70,0,0
1,note_on,80,100,480
1,note_on,71,91,0
1,note_on,76,91,0
1,note_on,68,91,0
1,note_on,68,0,960
1,note_on,80,0,0
1,note_on,71,0,0
1,note_on,76,0,0
1,note_on,66,79,0
1,note_on,68,79,0
1,note_on,71,79,0
1,note_on,78,87,0
1,note_on,78,0,480
1,note_on,66,0,0
1,note_on,68,0,0
1,note_on,71,0,0
1,note_on,64,79,0
1,note_on,68,79,0
1,note_on,71,79,0
1,note_on,76,87,0
1,note_on,76,0,360
1,note_on,64,0,0
1,note_on,68,0,0
1,note_on,71,0,0
1,note_on,75,84,0
1,note_on,68,76,0
1,note_on,71,76,0
1,note_on,63,76,0
1,note_on,63,0,120
1,note_on,75,0,0
1,note_on,68,0,0
1,note_on,71,0,0
1,note_on,68,87,0
1,note_on,75,95,0
1,note_on,63,87,0
1,note_on,71,87,0
1,note_on,71,0,960
1,note_on,63,0,0
1,note_on,75,0,0
1,note_on,62,79,0
1,note_on,74,87,0
1,note_on,74,0,480
1,note_on,62,0,0
1,note_on,68,0,0
1,note_on,67,77,480
1,note_on,75,77,0
1,note_on,79,87,0
1,note_on,79,0,1920
1,note_on,75,0,0
1,note_on,67,0,0
1,note_on,79,65,0
1,note_on,67,53,0
1,note_on,74,53,0
1,note_on,67,0,960
1,note_on,67,60,0
1,note_on,79,0,720
1,note_on,77,67,0
1,note_on,77,0,240
1,note_on,67,0,0
1,note_on,74,0,0
1,note_on,77,74,0
1,note_on,67,61,0
1,note_on,72,61,0
1,note_on,77,0,960
1,note_on,75,70,0
1,note_on,75,0,960
1,note_on,72,0,0
1,note_on,67,0,0
1,note_on,65,48,0
1,note_on,68,48,60
1,note_on,75,57,60
1,note_on,75,0,120
1,note_on,77,59,0
1,note_on,77,0,120
1,note_on,75,62,0
1,note_on,75,0,120
1,note_on,73,66,0
1,note_on,73,0,360
1,note_on,75,70,0
1,note_on,75,0,120
1,note_on,77,75,0
1,note_on,77,0,480
1,note_on,68,66,0
1,note_on,68,0,480
1,note_on,68,0,0
1,note_on,65,0,0
1,note_on,63,63,0
1,note_on,72,68,0
1,note_on,72,0,3840
1,note_on,63,0,0
1,note_on,72,67,0
1,note_on,62,60,0
1,note_on,65,60,0
1,note_on,72,0,720
1,note_on,71,60,0
1,note_on,71,0,240
1,note_on,74,67,0
1,note_on,74,0,480
1,note_on,65,0,0
1,note_on,62,0,0
1,note_on,60,71,2400
1,note_on,72,71,0
1,note_on,60,0,120
1,note_on,65,49,1800
1,note_on,68,49,0
1,note_on,72,0,960
1,note_on,74,55,0
1,note_on,74,0,960
1,note_on,68,0,0
1,note_on,65,0,0
1,note_on,64,53,0
1,note_on,67,53,0
1,note_on,76,56,0
1,note_on,76,0,1920
1,note_on,67,0,0
1,note_on,64,0,0
1,note_on,60,41,0
1,note_on,67,41,0
1,note_on,72,50,0
1,note_on,68,41,0
1,note_on,67,0,960
1,note_on,65,46,0
1,note_on,72,0,480
1,note_on,71,51,0
1,note_on,74,55,0
1,note_on,74,0,480
1,note_on,68,0,0
1,note_on,65,0,0
1,note_on,60,0,0
1,note_on,71,0,0
1,note_on,64,54,0
1,note_on,76,64,0
1,note_on,67,54,0
1,note_on,72,54,0
1,note_on,92,89,239
1,note_on,72,0,1
1,note_on,67,0,0
1,note_on,64,0,0
1,note_on,76,0,0
1,note_on,92,0,119
1,note_on,91,88,4
1,note_on,88,85,114
1,note_on,91,0,18
1,note_on,84,84,109
1,note_on,88,0,5
1,note_on,85,91,110
1,note_on,84,0,17
1,note_on,84,87,107
1,note_on,85,0,8
1,note_on,82,89,106
1,note_on,84,0,18
1,note_on,79,87,100
1,note_on,82,0,14
1,note_on,80,89,112
1,note_on,79,0,6
1,note_on,79,88,111
1,note_on,80,0,15
1,note_on,76,88,105
1,note_on,79,0,12
1,note_on,72,87,112
1,note_on,76,0,8
1,note_on,73,91,115
1,note_on,72,0,9
1,note_on,72,88,103
1,note_on,73,0,20
1,note_on,70,89,107
1,note_on,72,0,5
1,note_on,67,88,109
1,note_on,70,0,18
1,note_on,68,95,109
1,note_on,67,0,5
1,note_on,67,92,112
1,note_on,68,0,15
1,note_on,64,90,100
1,note_on,67,0,17
1,note_on,60,89,104
1,note_on,64,0,11
1,note_on,61,93,109
1,note_on,60,0,12
1,note_on,60,92,110
1,note_on,61,0,10
1,note_on,58,91,108
1,note_on,60,0,14
1,note_on,55,90,105
1,note_on,58,0,13
1,note_on,56,94,106
1,note_on,55,0,13
1,note_on,55,92,107
1,note_on,56,0,12
1,note_on,52,91,114
1,note_on,55,0,6
1,note_on,48,90,116
1,note_on,52,0,10
1,note_on,49,94,108
1,note_on,48,0,14
1,note_on,48,103,108
1,note_on,49,0,10
1,note_on,60,110,106
1,note_on,53,100,0
1,note_on,57,110,0
1,note_on,48,100,0
1,note_on,48,0,4
1,note_on,57,0,936
1,note_on,60,0,0
1,note_on,53,0,0
1,note_on,48,0,0
1,note_on,60,108,20
1,note_on,53,97,0
1,note_on,56,108,0
1,note_on,48,97,0
1,note_on,48,0,900
1,note_on,60,0,0
1,note_on,53,0,0
1,note_on,56,0,0
1,note_on,60,109,60
1,note_on,48,99,0
1,note_on,53,99,0
1,note_on,55,109,0
1,note_on,55,0,240
1,note_on,60,0,0
1,note_on,48,0,0
1,note_on,53,0,0
1,note_on,60,102,240
1,note_on,52,93,0
1,note_on,55,102,0
1,note_on,48,93,0
1,note_on,48,0,240
1,note_on,60,0,0
1,note_on,52,0,0
1,note_on,55,0,0
2,note_on,68,73,235
2,note_on,67,73,121
2,note_on,68,0,6
2,note_on,65,79,110
2,note_on,67,0,16
2,note_on,62,72,110
2,note_on,65,0,6
2,note_on,63,72,112
2,note_on,62,0,14
2,note_on,62,71,105
2,note_on,63,0,13
2,note_on,59,79,55
2,note_on,62,0,6
2,note_on,55,72,112
2,note_on,59,0,6
2,note_on,56,72,114
2,note_on,55,0,12
2,note_on,55,70,107
2,note_on,56,0,13
2,note_on,53,79,100
2,note_on,55,0,19
2,note_on,50,71,109
2,note_on,53,0,4
2,note_on,51,71,114
2,note_on,50,0,14
2,note_on,50,68,104
2,note_on,51,0,14
2,note_on,47,79,32
2,note_on,50,0,14
2,note_on,43,71,103
2,note_on,47,0,15
2,note_on,44,71,106
2,note_on,43,0,11
2,note_on,43,69,112
2,note_on,44,0,9
2,note_on,41,79,108
2,note_on,43,0,15
2,note_on,38,71,99
2,note_on,41,0,12
2,note_on,39,71,117
2,note_on,38,0,3
2,note_on,38,68,111
2,note_on,39,0,18
2,note_on,36,76,99
2,note_on,38,0,15
2,note_on,31,69,104
2,note_on,36,0,39
2,note_on,36,70,81
2,note_on,31,0,38
2,note_on,31,68,86
2,note_on,36,0,34
2,note_on,36,74,0
2,note_on,31,0,37
2,note_on,31,71,84
2,note_on,36,0,37
2,note_on,36,75,83
2,note_on,31,0,38
2,note_on,31,74,82
2,note_on,36,0,38
2,note_on,35,79,77
2,note_on,31,0,17
2,note_on,35,0,25
2,note_on,68,71,126
2,note_on,67,70,73
2,note_on,68,0,15
2,note_on,65,79,104
2,note_on,67,0,13
2,note_on,62,72,104
2,note_on,65,0,15
2,note_on,63,72,111
2,note_on,62,0,6
2,note_on,62,70,116
2,note_on,63,0,10
2,note_on,59,79,37
2,note_on,62,0,12
2,note_on,55,71,103
2,note_on,59,0,15
2,note_on,56,71,103
2,note_on,55,0,14
2,note_on,55,68,112
2,note_on,56,0,6
2,note_on,53,79,112
2,note_on,55,0,14
2,note_on,50,72,109
2,note_on,53,0,9
2,note_on,51,72,111
2,note_on,50,0,12
2,note_on,50,70,103
2,note_on,51,0,17
2,note_on,47,79,72
2,note_on,50,0,16
2,note_on,43,71,108
2,note_on,47,0,8
2,note_on,44,71,109
2,note_on,43,0,15
2,note_on,43,70,112
2,note_on,44,0,5
2,note_on,41,79,108
2,note_on,43,0,19
2,note_on,38,71,106
2,note_on,41,0,6
2,note_on,39,71,115
2,note_on,38,0,11
2,note_on,38,69,110
2,note_on,39,0,11
2,note_on,36,79,109
2,note_on,38,0,12
2,note_on,31,72,104
2,note_on,36,0,42
2,note_on,36,73,76
2,note_on,31,0,40
2,note_on,31,73,78
2,note_on,36,0,14
2,note_on,36,76,81
2,note_on,31,0,35
2,note_on,31,76,89
2,note_on,36,0,32
2,note_on,36,79,79
2,note_on,31,0,47
2,note_on,31,76,77
2,note_on,36,0,34
2,note_on,35,79,83
2,note_on,31,0,15
2,note_on,35,0,59
2,note_on,80,79,126
2,note_on,79,71,121
2,note_on,80,0,11
2,note_on,77,79,108
2,note_on,79,0,13
2,note_on,74,71,105
2,note_on,77,0,14
2,note_on,75,71,102
2,note_on,74,0,16
2,note_on,74,70,107
2,note_on,75,0,9
2,note_on,71,79,116
2,note_on,74,0,7
2,note_on,67,70,104
2,note_on,71,0,21
2,note_on,68,70,104
2,note_on,67,0,7
2,note_on,67,69,115
2,note_on,68,0,10
2,note_on,65,79,107
2,note_on,67,0,15
2,note_on,62,71,102
2,note_on,65,0,15
2,note_on,63,71,114
2,note_on,62,0,3
2,note_on,62,69,117
2,note_on,63,0,12
2,note_on,59,79,104
2,note_on,62,0,16
2,note_on,55,71,101
2,note_on,59,0,15
2,note_on,56,71,107
2,note_on,55,0,10
2,note_on,55,69,109
2,note_on,56,0,13
2,note_on,53,79,112
2,note_on,55,0,7
2,note_on,50,71,107
2,note_on,53,0,18
2,note_on,51,71,104
2,note_on,50,0,10
2,note_on,50,69,107
2,note_on,51,0,15
2,note_on,47,79,113
2,note_on,50,0,4
2,note_on,43,71,109
2,note_on,47,0,19
2,note_on,44,71,106
2,note_on,43,0,7
2,note_on,43,69,111
2,note_on,44,0,14
2,note_on,41,79,102
2,note_on,43,0,16
2,note_on,38,71,110
2,note_on,41,0,6
2,note_on,39,71,115
2,note_on,38,0,11
2,note_on,38,70,104
2,note_on,39,0,17
2,note_on,36,62,104
2,note_on,38,0,11
2,note_on,36,0,109
2,note_on,35,62,4
2,note_on,43,67,111
2,note_on,35,0,9
2,note_on,43,0,111
2,note_on,41,66,10
2,note_on,39,65,116
2,note_on,41,0,16
2,note_on,38,65,98
2,note_on,39,0,18
2,note_on,39,64,107
2,note_on,38,0,7
2,note_on,38,63,110
2,note_on,39,0,15
2,note_on,36,63,112
2,note_on,38,0,5
2,note_on,35,62,112
2,note_on,36,0,15
2,note_on,35,0,105
2,note_on,46,70,1
2,note_on,44,68,115
2,note_on,46,0,17
2,note_on,43,69,110
2,note_on,44,0,5
2,note_on,41,69,107
2,note_on,43,0,20
2,note_on,43,68,100
2,note_on,41,0,12
2,note_on,41,68,115
2,note_on,43,0,5
2,note_on,39,67,110
2,note_on,41,0,17
2,note_on,38,67,110
2,note_on,39,0,5
2,note_on,51,76,108
2,note_on,38,0,7
2,note_on,50,73,113
2,note_on,51,0,12
2,note_on,48,74,106
2,note_on,50,0,14
2,note_on,47,75,113
2,note_on,48,0,5
2,note_on,48,76,116
2,note_on,47,0,11
2,note_on,47,77,107
2,note_on,48,0,14
2,note_on,44,79,105
2,note_on,47,0,13
2,note_on,43,80,106
2,note_on,44,0,10
2,note_on,44,81,104
2,note_on,43,0,18
2,note_on,43,83,101
2,note_on,44,0,13
2,note_on,41,83,106
2,note_on,43,0,13
2,note_on,39,85,107
2,note_on,41,0,12
2,note_on,41,88,116
2,note_on,39,0,4
2,note_on,39,90,117
2,note_on,41,0,11
2,note_on,36,92,42
2,note_on,39,0,20
2,note_on,36,0,67
2,note_on,43,49,5
2,note_on,48,50,114
2,note_on,43,0,18
2,note_on,50,52,103
2,note_on,48,0,11
2,note_on,51,54,84
2,note_on,50,0,8
2,note_on,55,55,115
2,note_on,51,0,8
2,note_on,60,57,111
2,note_on,55,0,13
2,note_on,62,59,105
2,note_on,60,0,14
2,note_on,63,60,44
2,note_on,62,0,12
2,note_on,62,59,107
2,note_on,63,0,8
2,note_on,60,57,110
2,note_on,62,0,14
2,note_on,55,57,111
2,note_on,60,0,7
2,note_on,51,57,33
2,note_on,55,0,16
2,note_on,50,56,91
2,note_on,51,0,11
2,note_on,48,55,107
2,note_on,50,0,14
2,note_on,43,54,110
2,note_on,48,0,8
2,note_on,36,56,0
2,note_on,43,0,13
2,note_on,43,59,108
2,note_on,36,0,11
2,note_on,48,62,104
2,note_on,43,0,17
2,note_on,50,63,107
2,note_on,48,0,8
2,note_on,51,68,26
2,note_on,50,0,7
2,note_on,50,66,94
2,note_on,51,0,15
2,note_on,48,63,108
2,note_on,50,0,9
2,note_on,43,59,103
2,note_on,48,0,20
2,note_on,43,0,32
2,note_on,36,56,1
2,note_on,43,59,74
2,note_on,36,0,14
2,note_on,48,63,115
2,note_on,43,0,3
2,note_on,50,65,112
2,note_on,48,0,17
2,note_on,51,67,108
2,note_on,50,0,7
2,note_on,50,65,104
2,note_on,51,0,21
2,note_on,48,63,104
2,note_on,50,0,7
2,note_on,43,61,108
2,note_on,48,0,17
2,note_on,43,0,81
2,note_on,36,59,3
2,note_on,43,46,125
2,note_on,36,0,6
2,note_on,48,47,104
2,note_on,43,0,22
2,note_on,50,49,107
2,note_on,48,0,3
2,note_on,51,51,111
2,note_on,50,0,18
2,note_on,55,52,101
2,note_on,51,0,13
2,note_on,60,54,113
2,note_on,55,0,6
2,note_on,62,55,41
2,note_on,60,0,16
2,note_on,63,57,102
2,note_on,62,0,11
2,note_on,62,55,110
2,note_on,63,0,8
2,note_on,60,54,112
2,note_on,62,0,12
2,note_on,55,52,106
2,note_on,60,0,14
2,note_on,51,50,107
2,note_on,55,0,11
2,note_on,50,49,110
2,note_on,51,0,11
2,note_on,48,47,109
2,note_on,50,0,12
2,note_on,43,43,111
2,note_on,48,0,9
2,note_on,43,0,4
2,note_on,36,33,0
2,note_on,43,36,117
2,note_on,36,0,15
2,note_on,48,39,106
2,note_on,43,0,11
2,note_on,50,40,108
2,note_on,48,0,13
2,note_on,51,45,105
2,note_on,50,0,14
2,note_on,50,46,104
2,note_on,51,0,14
2,note_on,48,45,112
2,note_on,50,0,6
2,note_on,43,43,8
2,note_on,48,0,14
2,note_on,43,0,106
2,note_on,36,40,3
2,note_on,43,45,75
2,note_on,36,0,19
2,note_on,48,50,101
2,note_on,43,0,12
2,note_on,50,54,112
2,note_on,48,0,8
2,note_on,51,59,113
2,note_on,50,0,11
2,note_on,50,57,108
2,note_on,51,0,13
2,note_on,48,57,104
2,note_on,50,0,15
2,note_on,43,55,107
2,note_on,48,0,10
2,note_on,36,53,59
2,note_on,43,0,5
2,note_on,43,51,123
2,note_on,36,0,4
2,note_on,48,53,114
2,note_on,43,0,14
2,note_on,50,54,106
2,note_on,48,0,12
2,note_on,51,56,109
2,note_on,50,0,11
2,note_on,55,57,110
2,note_on,51,0,11
2,note_on,60,60,102
2,note_on,55,0,19
2,note_on,62,62,106
2,note_on,60,0,7
2,note_on,63,64,4
2,note_on,62,0,9
2,note_on,62,61,112
2,note_on,63,0,11
2,note_on,60,59,105
2,note_on,62,0,16
2,note_on,55,57,106
2,note_on,60,0,10
2,note_on,51,55,102
2,note_on,55,0,20
2,note_on,50,52,107
2,note_on,51,0,5
2,note_on,48,50,118
2,note_on,50,0,9
2,note_on,43,48,104
2,note_on,48,0,3
2,note_on,43,0,101
2,note_on,36,77,1
2,note_on,42,53,117
2,note_on,36,0,15
2,note_on,48,56,103
2,note_on,42,0,14
2,note_on,50,54,106
2,note_on,48,0,12
2,note_on,51,56,33
2,note_on,50,0,4
2,note_on,50,57,113
2,note_on,51,0,12
2,note_on,48,57,107
2,note_on,50,0,13
2,note_on,42,59,100
2,note_on,48,0,19
2,note_on,42,0,53
2,note_on,36,77,2
2,note_on,42,56,115
2,note_on,36,0,15
2,note_on,48,59,105
2,note_on,42,0,12
2,note_on,50,57,115
2,note_on,48,0,5
2,note_on,51,57,33
2,note_on,50,0,10
2,note_on,50,60,103
2,note_on,51,0,16
2,note_on,48,62,103
2,note_on,50,0,13
2,note_on,42,60,107
2,note_on,48,0,12
2,note_on,35,70,61
2,note_on,42,0,1
2,note_on,47,54,120
2,note_on,35,0,10
2,note_on,50,57,110
2,note_on,47,0,12
2,note_on,55,61,104
2,note_on,50,0,16
2,note_on,62,61,12
2,note_on,55,0,10
2,note_on,55,60,115
2,note_on,62,0,7
2,note_on,50,59,108
2,note_on,55,0,17
2,note_on,47,61,109
2,note_on,50,0,6
2,note_on,47,0,8
2,note_on,34,57,1
2,note_on,46,59,119
2,note_on,34,0,13
2,note_on,49,62,105
2,note_on,46,0,14
2,note_on,55,64,102
2,note_on,49,0,16
2,note_on,61,67,5
2,note_on,55,0,5
2,note_on,55,65,106
2,note_on,61,0,21
2,note_on,49,66,98
2,note_on,55,0,13
2,note_on,46,65,115
2,note_on,49,0,4
2,note_on,33,60,0
2,note_on,46,0,3
2,note_on,45,62,118
2,note_on,33,0,11
2,note_on,48,63,113
2,note_on,45,0,8
2,note_on,53,65,102
2,note_on,48,0,22
2,note_on,60,67,4
2,note_on,53,0,3
2,note_on,53,60,115
2,note_on,60,0,14
2,note_on,48,62,102
2,note_on,53,0,16
2,note_on,45,60,102
2,note_on,48,0,14
2,note_on,45,0,59
2,note_on,32,57,0
2,note_on,44,59,117
2,note_on,32,0,15
2,note_on,48,59,106
2,note_on,44,0,11
2,note_on,53,56,116
2,note_on,48,0,5
2,note_on,60,61,111
2,note_on,53,0,16
2,note_on,53,57,105
2,note_on,60,0,11
2,note_on,48,55,103
2,note_on,53,0,18
2,note_on,44,51,106
2,note_on,48,0,8
2,note_on,31,47,62
2,note_on,44,0,1
2,note_on,43,47,120
2,note_on,31,0,11
2,note_on,48,48,112
2,note_on,43,0,9
2,note_on,47,47,108
2,note_on,48,0,15
2,note_on,49,51,104
2,note_on,47,0,13
2,note_on,48,53,110
2,note_on,49,0,9
2,note_on,50,55,109
2,note_on,48,0,14
2,note_on,49,54,107
2,note_on,50,0,11
2,note_on,51,56,107
2,note_on,49,0,14
2,note_on,50,55,102
2,note_on,51,0,16
2,note_on,52,57,111
2,note_on,50,0,5
2,note_on,51,57,109
2,note_on,52,0,18
2,note_on,53,59,107
2,note_on,51,0,7
2,note_on,52,60,116
2,note_on,53,0,9
2,note_on,54,57,107
2,note_on,52,0,16
2,note_on,53,57,107
2,note_on,54,0,9
2,note_on,55,54,108
2,note_on,53,0,15
2,note_on,54,54,104
2,note_on,55,0,13
2,note_on,56,54,111
2,note_on,54,0,8
2,note_on,55,54,110
2,note_on,56,0,14
2,note_on,58,54,103
2,note_on,55,0,15
2,note_on,56,54,112
2,note_on,58,0,5
2,note_on,55,54,111
2,note_on,56,0,16
2,note_on,53,54,99
2,note_on,55,0,17
2,note_on,51,54,106
2,note_on,53,0,9
2,note_on,50,54,108
2,note_on,51,0,15
2,note_on,48,52,112
2,note_on,50,0,5
2,note_on,47,51,117
2,note_on,48,0,10
2,note_on,44,47,106
2,note_on,47,0,16
2,note_on,43,44,98
2,note_on,44,0,18
2,note_on,41,40,105
2,note_on,43,0,9
2,note_on,38,37,108
2,note_on,41,0,15
2,note_on,38,0,105
2,note_on,36,31,7
2,note_on,43,32,74
2,note_on,36,0,18
2,note_on,48,35,110
2,note_on,43,0,4
2,note_on,50,36,116
2,note_on,48,0,12
2,note_on,51,39,1
2,note_on,50,0,15
2,note_on,55,40,106
2,note_on,51,0,11
2,note_on,60,43,111
2,note_on,55,0,10
2,note_on,62,44,101
2,note_on,60,0,21
2,note_on,63,47,3
2,note_on,62,0,11
2,note_on,62,44,80
2,note_on,63,0,6
2,note_on,60,43,113
2,note_on,62,0,13
2,note_on,55,41,103
2,note_on,60,0,16
2,note_on,51,39,30
2,note_on,55,0,14
2,note_on,50,37,88
2,note_on,51,0,11
2,note_on,48,35,114
2,note_on,50,0,7
2,note_on,43,33,110
2,note_on,48,0,15
2,note_on,43,0,40
2,note_on,36,31,0
2,note_on,43,35,91
2,note_on,36,0,11
2,note_on,48,39,112
2,note_on,43,0,9
2,note_on,50,43,112
2,note_on,48,0,11
2,note_on,51,45,24
2,note_on,50,0,12
2,note_on,50,42,71
2,note_on,51,0,15
2,note_on,48,39,106
2,note_on,50,0,11
2,note_on,43,35,111
2,note_on,48,0,10
2,note_on,43,0,52
2,note_on,36,32,1
2,note_on,43,34,81
2,note_on,36,0,20
2,note_on,48,37,105
2,note_on,43,0,7
2,note_on,50,40,111
2,note_on,48,0,14
2,note_on,51,44,104
2,note_on,50,0,14
2,note_on,50,44,105
2,note_on,51,0,13
2,note_on,48,42,115
2,note_on,50,0,4
2,note_on,43,38,107
2,note_on,48,0,21
2,note_on,43,0,87
2,note_on,36,31,4
2,note_on,43,33,121
2,note_on,36,0,10
2,note_on,48,35,107
2,note_on,43,0,15
2,note_on,50,36,108
2,note_on,48,0,9
2,note_on,51,39,107
2,note_on,50,0,16
2,note_on,55,40,105
2,note_on,51,0,11
2,note_on,60,42,107
2,note_on,55,0,14
2,note_on,62,43,113
2,note_on,60,0,5
2,note_on,63,47,81
2,note_on,62,0,15
2,note_on,62,46,103
2,note_on,63,0,10
2,note_on,60,44,115
2,note_on,62,0,7
2,note_on,55,43,114
2,note_on,60,0,11
2,note_on,51,41,108
2,note_on,55,0,13
2,note_on,50,39,107
2,note_on,51,0,12
2,note_on,48,38,106
2,note_on,50,0,14
2,note_on,43,36,103
2,note_on,48,0,15
2,note_on,43,0,104
2,note_on,36,38,4
2,note_on,43,41,113
2,note_on,36,0,19
2,note_on,48,43,108
2,note_on,43,0,5
2,note_on,50,47,108
2,note_on,48,0,19
2,note_on,51,50,53
2,note_on,50,0,12
2,note_on,50,47,99
2,note_on,51,0,9
2,note_on,48,45,116
2,note_on,50,0,7
2,note_on,43,43,103
2,note_on,48,0,22
2,note_on,43,0,23
2,note_on,36,41,0
2,note_on,43,43,125
2,note_on,36,0,7
2,note_on,48,44,112
2,note_on,43,0,13
2,note_on,50,49,104
2,note_on,48,0,15
2,note_on,51,51,53
2,note_on,50,0,8
2,note_on,50,51,116
2,note_on,51,0,5
2,note_on,48,49,108
2,note_on,50,0,19
2,note_on,43,47,100
2,note_on,48,0,13
2,note_on,43,0,67
2,note_on,36,47,0
2,note_on,43,47,90
2,note_on,36,0,3
2,note_on,48,48,107
2,note_on,43,0,22
2,note_on,50,50,98
2,note_on,48,0,12
2,note_on,51,51,108
2,note_on,50,0,12
2,note_on,55,51,111
2,note_on,51,0,9
2,note_on,60,54,118
2,note_on,55,0,5
2,note_on,62,55,109
2,note_on,60,0,18
2,note_on,63,57,34
2,note_on,62,0,12
2,note_on,62,55,90
2,note_on,63,0,6
2,note_on,60,55,113
2,note_on,62,0,13
2,note_on,55,53,103
2,note_on,60,0,16
2,note_on,51,51,108
2,note_on,55,0,8
2,note_on,50,50,110
2,note_on,51,0,14
2,note_on,48,48,103
2,note_on,50,0,15
2,note_on,43,47,103
2,note_on,48,0,14
2,note_on,36,57,80
2,note_on,43,0,2
2,note_on,43,48,56
2,note_on,36,0,7
2,note_on,48,50,118
2,note_on,43,0,7
2,note_on,50,51,107
2,note_on,48,0,18
2,note_on,51,54,53
2,note_on,50,0,14
2,note_on,50,52,107
2,note_on,51,0,8
2,note_on,48,51,108
2,note_on,50,0,16
2,note_on,41,49,107
2,note_on,48,0,9
2,note_on,41,0,14
2,note_on,36,57,5
2,note_on,43,49,84
2,note_on,36,0,18
2,note_on,48,51,107
2,note_on,43,0,7
2,note_on,50,53,104
2,note_on,48,0,21
2,note_on,51,55,40
2,note_on,50,0,2
2,note_on,50,54,107
2,note_on,51,0,16
2,note_on,48,53,106
2,note_on,50,0,10
2,note_on,41,51,107
2,note_on,48,0,15
2,note_on,38,73,60
2,note_on,41,0,4
2,note_on,46,42,117
2,note_on,38,0,11
2,note_on,47,42,111
2,note_on,46,0,10
2,note_on,46,41,106
2,note_on,47,0,16
2,note_on,46,0,104
2,note_on,58,57,4
2,note_on,46,44,116
2,note_on,58,0,16
2,note_on,47,44,53
2,note_on,46,0,5
2,note_on,46,43,107
2,note_on,47,0,10
2,note_on,39,72,101
2,note_on,46,0,9
2,note_on,46,46,119
2,note_on,39,0,4
2,note_on,47,47,115
2,note_on,46,0,4
2,note_on,46,47,62
2,note_on,47,0,12
2,note_on,46,0,108
2,note_on,58,63,1
2,note_on,46,49,117
2,note_on,58,0,15
2,note_on,47,49,8
2,note_on,46,0,10
2,note_on,46,49,56
2,note_on,47,0,18
2,note_on,46,0,102
2,note_on,40,77,6
2,note_on,46,52,121
2,note_on,40,0,11
2,note_on,48,52,109
2,note_on,46,0,4
2,note_on,46,51,55
2,note_on,48,0,20
2,note_on,46,0,100
2,note_on,58,63,9
2,note_on,46,54,13
2,note_on,58,0,14
2,note_on,48,54,106
2,note_on,46,0,12
2,note_on,46,56,101
2,note_on,48,0,19
2,note_on,46,0,101
2,note_on,41,84,6
2,note_on,46,57,124
2,note_on,41,0,8
2,note_on,58,57,102
2,note_on,46,0,22
2,note_on,46,57,101
2,note_on,58,0,9
2,note_on,42,73,109
2,note_on,46,0,2
2,note_on,46,60,127
2,note_on,42,0,3
2,note_on,58,60,113
2,note_on,46,0,16
2,note_on,46,59,101
2,note_on,58,0,15
2,note_on,46,0,105
2,note_on,41,79,7
2,note_on,46,63,94
2,note_on,41,0,18
2,note_on,50,65,105
2,note_on,46,0,9
2,note_on,53,68,106
2,note_on,50,0,17
2,note_on,58,71,3
2,note_on,53,0,13
2,note_on,62,73,108
2,note_on,58,0,11
2,note_on,62,0,109
2,note_on,67,74,3
2,note_on,67,0,180
2,note_on,65,76,0
2,note_on,65,0,7
2,note_on,65,79,0
2,note_on,62,76,85
2,note_on,65,0,8
2,note_on,58,76,107
2,note_on,62,0,17
2,note_on,55,73,99
2,note_on,58,0,16
2,note_on,53,71,21
2,note_on,55,0,4
2,note_on,51,67,102
2,note_on,53,0,19
2,note_on,48,65,110
2,note_on,51,0,3
2,note_on,41,61,115
2,note_on,48,0,14
2,note_on,34,61,29
2,note_on,41,0,11
2,note_on,49,63,102
2,note_on,34,0,7
2,note_on,48,62,116
2,note_on,49,0,9
2,note_on,47,59,106
2,note_on,48,0,17
2,note_on,46,57,111
2,note_on,47,0,4
2,note_on,48,63,109
2,note_on,46,0,19
2,note_on,47,61,104
2,note_on,48,0,9
2,note_on,46,59,110
2,note_on,47,0,13
2,note_on,45,56,114
2,note_on,46,0,5
2,note_on,47,64,105
2,note_on,45,0,22
2,note_on,46,61,100
2,note_on,47,0,10
2,note_on,45,59,110
2,note_on,46,0,12
2,note_on,44,64,108
2,note_on,45,0,12
2,note_on,46,55,107
2,note_on,44,0,13
2,note_on,45,61,112
2,note_on,46,0,7
2,note_on,44,66,116
2,note_on,45,0,9
2,note_on,44,0,111
2,note_on,32,71,1
2,note_on,32,0,120
2,note_on,43,50,112
2,note_on,44,52,123
2,note_on,43,0,6
2,note_on,47,53,113
2,note_on,44,0,13
2,note_on,51,56,107
2,note_on,47,0,12
2,note_on,46,52,111
2,note_on,51,0,9
2,note_on,47,53,106
2,note_on,46,0,17
2,note_on,51,56,108
2,note_on,47,0,7
2,note_on,56,57,110
2,note_on,51,0,15
2,note_on,50,54,99
2,note_on,56,0,18
2,note_on,51,56,12
2,note_on,50,0,7
2,note_on,56,59,113
2,note_on,51,0,12
2,note_on,59,62,106
2,note_on,56,0,14
2,note_on,55,61,112
2,note_on,59,0,6
2,note_on,56,65,109
2,note_on,55,0,17
2,note_on,56,0,103
2,note_on,39,71,1
2,note_on,39,0,60
2,note_on,63,55,6
2,note_on,53,56,117
2,note_on,63,0,15
2,note_on,54,55,107
2,note_on,53,0,10
2,note_on,58,59,1
2,note_on,54,0,13
2,note_on,63,61,104
2,note_on,58,0,15
2,note_on,50,51,113
2,note_on,63,0,4
2,note_on,51,54,110
2,note_on,50,0,18
2,note_on,54,59,1
2,note_on,51,0,14
2,note_on,58,61,110
2,note_on,54,0,8
2,note_on,45,54,114
2,note_on,58,0,10
2,note_on,46,56,104
2,note_on,45,0,18
2,note_on,51,57,20
2,note_on,46,0,10
2,note_on,54,61,109
2,note_on,51,0,13
2,note_on,41,63,113
2,note_on,54,0,6
2,note_on,42,69,111
2,note_on,41,0,15
2,note_on,42,0,105
2,note_on,30,74,2
2,note_on,30,0,120
2,note_on,41,49,8
2,note_on,42,50,117
2,note_on,41,0,15
2,note_on,45,52,13
2,note_on,42,0,9
2,note_on,49,55,90
2,note_on,45,0,15
2,note_on,44,51,110
2,note_on,49,0,7
2,note_on,45,52,110
2,note_on,44,0,15
2,note_on,49,54,8
2,note_on,45,0,16
2,note_on,54,56,112
2,note_on,49,0,4
2,note_on,48,54,115
2,note_on,54,0,13
2,note_on,49,56,102
2,note_on,48,0,17
2,note_on,54,57,34
2,note_on,49,0,6
2,note_on,57,61,106
2,note_on,54,0,20
2,note_on,53,65,107
2,note_on,57,0,5
2,note_on,54,67,112
2,note_on,53,0,15
2,note_on,37,70,103
2,note_on,54,0,2
2,note_on,37,0,58
2,note_on,61,60,62
2,note_on,51,53,119
2,note_on,61,0,11
2,note_on,52,56,102
2,note_on,51,0,19
2,note_on,56,59,21
2,note_on,52,0,7
2,note_on,61,61,110
2,note_on,56,0,13
2,note_on,48,54,109
2,note_on,61,0,10
2,note_on,49,55,115
2,note_on,48,0,7
2,note_on,52,59,19
2,note_on,49,0,10
2,note_on,56,62,107
2,note_on,52,0,11
2,note_on,43,53,110
2,note_on,56,0,11
2,note_on,44,56,104
2,note_on,43,0,17
2,note_on,49,57,19
2,note_on,44,0,12
2,note_on,52,61,113
2,note_on,49,0,7
2,note_on,39,62,107
2,note_on,52,0,18
2,note_on,40,65,103
2,note_on,39,0,11
2,note_on,40,0,109
2,note_on,36,70,2
2,note_on,36,0,60
2,note_on,63,60,1
2,note_on,55,57,125
2,note_on,63,0,7
2,note_on,56,59,113
2,note_on,55,0,12
2,note_on,57,60,14
2,note_on,56,0,6
2,note_on,56,61,108
2,note_on,57,0,12
2,note_on,54,63,101
2,note_on,56,0,19
2,note_on,52,64,102
2,note_on,54,0,11
2,note_on,51,66,11
2,note_on,52,0,12
2,note_on,49,65,113
2,note_on,51,0,7
2,note_on,48,68,116
2,note_on,49,0,9
2,note_on,45,70,105
2,note_on,48,0,18
2,note_on,43,71,17
2,note_on,45,0,11
2,note_on,44,71,105
2,note_on,43,0,16
2,note_on,39,74,112
2,note_on,44,0,4
2,note_on,44,75,109
2,note_on,39,0,19
2,note_on,44,0,101
2,note_on,38,77,3
2,note_on,38,0,60
2,note_on,65,73,34
2,note_on,57,73,115
2,note_on,65,0,15
2,note_on,58,71,108
2,note_on,57,0,9
2,note_on,59,72,12
2,note_on,58,0,10
2,note_on,58,69,101
2,note_on,59,0,12
2,note_on,56,71,108
2,note_on,58,0,12
2,note_on,54,69,108
2,note_on,56,0,12
2,note_on,53,68,26
2,note_on,54,0,9
2,note_on,51,67,107
2,note_on,53,0,12
2,note_on,50,67,112
2,note_on,51,0,8
2,note_on,47,66,106
2,note_on,50,0,18
2,note_on,45,64,10
2,note_on,47,0,9
2,note_on,46,63,107
2,note_on,45,0,16
2,note_on,41,63,111
2,note_on,46,0,5
2,note_on,46,62,115
2,note_on,41,0,12
2,note_on,40,60,103
2,note_on,46,0,5
2,note_on,40,0,55
2,note_on,67,57,22
2,note_on,59,57,119
2,note_on,67,0,13
2,note_on,60,56,108
2,note_on,59,0,11
2,note_on,61,59,6
2,note_on,60,0,14
2,note_on,60,59,102
2,note_on,61,0,16
2,note_on,58,59,108
2,note_on,60,0,8
2,note_on,56,57,107
2,note_on,58,0,17
2,note_on,55,57,113
2,note_on,56,0,2
2,note_on,53,57,113
2,note_on,55,0,17
2,note_on,52,57,108
2,note_on,53,0,7
2,note_on,55,55,37
2,note_on,52,0,11
2,note_on,53,56,103
2,note_on,55,0,15
2,note_on,52,56,107
2,note_on,53,0,10
2,note_on,49,55,110
2,note_on,52,0,12
2,note_on,48,52,105
2,note_on,49,0,15
2,note_on,47,55,30
2,note_on,48,0,12
2,note_on,48,55,104
2,note_on,47,0,16
2,note_on,49,57,112
2,note_on,48,0,4
2,note_on,48,55,109
2,note_on,49,0,19
2,note_on,46,57,100
2,note_on,48,0,13
2,note_on,44,59,110
2,note_on,46,0,9
2,note_on,43,60,116
2,note_on,44,0,7
2,note_on,41,62,107
2,note_on,43,0,18
2,note_on,40,63,103
2,note_on,41,0,9
2,note_on,37,63,111
2,note_on,40,0,23
2,note_on,36,67,92
2,note_on,37,0,30
2,note_on,35,67,94
2,note_on,36,0,21
2,note_on,36,71,100
2,note_on,35,0,24
2,note_on,34,70,97
2,note_on,36,0,24
2,note_on,32,74,98
2,note_on,34,0,23
2,note_on,31,73,28
2,note_on,32,0,29
2,note_on,29,76,90
2,note_on,31,0,1
2,note_on,36,63,82
2,note_on,29,0,6
2,note_on,41,63,115
2,note_on,36,0,11
2,note_on,43,63,105
2,note_on,41,0,16
2,note_on,44,63,54
2,note_on,43,0,6
2,note_on,48,64,102
2,note_on,44,0,22
2,note_on,53,68,104
2,note_on,48,0,6
2,note_on,55,68,117
2,note_on,53,0,9
2,note_on,56,72,34
2,note_on,55,0,17
2,note_on,60,75,69
2,note_on,56,0,13
2,note_on,65,76,107
2,note_on,60,0,12
2,note_on,67,77,105
2,note_on,65,0,15
2,note_on,68,79,29
2,note_on,67,0,6
2,note_on,67,77,77
2,note_on,68,0,14
2,note_on,65,71,102
2,note_on,67,0,16
2,note_on,60,67,104
2,note_on,65,0,12
2,note_on,60,0,66
2,note_on,61,64,5
2,note_on,65,63,90
2,note_on,61,0,8
2,note_on,61,62,113
2,note_on,65,0,11
2,note_on,56,61,103
2,note_on,61,0,18
2,note_on,53,59,106
2,note_on,56,0,8
2,note_on,49,57,110
2,note_on,53,0,14
2,note_on,44,57,108
2,note_on,49,0,10
2,note_on,41,56,111
2,note_on,44,0,11
2,note_on,37,55,92
2,note_on,41,0,3
2,note_on,32,54,87
2,note_on,37,0,38
2,note_on,37,55,76
2,note_on,32,0,44
2,note_on,41,52,84
2,note_on,37,0,30
2,note_on,37,55,87
2,note_on,41,0,27
2,note_on,32,54,94
2,note_on,37,0,37
2,note_on,37,55,83
2,note_on,32,0,38
2,note_on,41,53,7
2,note_on,37,0,38
2,note_on,41,0,82
2,note_on,29,55,2
2,note_on,36,53,94
2,note_on,29,0,13
2,note_on,41,55,103
2,note_on,36,0,16
2,note_on,43,53,101
2,note_on,41,0,15
2,note_on,44,56,53
2,note_on,43,0,7
2,note_on,48,57,111
2,note_on,44,0,11
2,note_on,53,57,108
2,note_on,48,0,13
2,note_on,55,57,113
2,note_on,53,0,6
2,note_on,56,59,63
2,note_on,55,0,15
2,note_on,60,57,109
2,note_on,56,0,7
2,note_on,65,59,105
2,note_on,60,0,20
2,note_on,67,57,106
2,note_on,65,0,6
2,note_on,68,60,29
2,note_on,67,0,13
2,note_on,67,63,96
2,note_on,68,0,9
2,note_on,65,60,104
2,note_on,67,0,19
2,note_on,60,57,104
2,note_on,65,0,9
2,note_on,60,0,56
2,note_on,62,59,4
2,note_on,65,57,115
2,note_on,62,0,13
2,note_on,62,59,109
2,note_on,65,0,10
2,note_on,60,57,102
2,note_on,62,0,20
2,note_on,56,59,107
2,note_on,60,0,5
2,note_on,53,59,114
2,note_on,56,0,13
2,note_on,50,59,109
2,note_on,53,0,10
2,note_on,48,57,109
2,note_on,50,0,13
2,note_on,44,57,4
2,note_on,48,0,12
2,note_on,41,57,57
2,note_on,44,0,15
2,note_on,38,57,101
2,note_on,41,0,16
2,note_on,36,55,108
2,note_on,38,0,8
2,note_on,32,57,108
2,note_on,36,0,16
2,note_on,36,61,104
2,note_on,32,0,12
2,note_on,38,65,114
2,note_on,36,0,6
2,note_on,44,68,114
2,note_on,38,0,12
2,note_on,31,79,101
2,note_on,43,79,6
2,note_on,44,0,1
2,note_on,31,0,53
2,note_on,68,73,4
2,note_on,43,0,2
2,note_on,67,72,69
2,note_on,68,0,17
2,note_on,65,79,111
2,note_on,67,0,4
2,note_on,62,72,117
2,note_on,65,0,11
2,note_on,63,72,101
2,note_on,62,0,20
2,note_on,62,69,102
2,note_on,63,0,10
2,note_on,59,79,12
2,note_on,62,0,9
2,note_on,55,72,91
2,note_on,59,0,13
2,note_on,56,72,110
2,note_on,55,0,9
2,note_on,55,70,105
2,note_on,56,0,18
2,note_on,53,79,108
2,note_on,55,0,6
2,note_on,50,71,116
2,note_on,53,0,10
2,note_on,51,71,100
2,note_on,50,0,22
2,note_on,50,70,105
2,note_on,51,0,5
2,note_on,47,79,42
2,note_on,50,0,12
2,note_on,43,70,102
2,note_on,47,0,18
2,note_on,44,71,101
2,note_on,43,0,13
2,note_on,43,69,110
2,note_on,44,0,9
2,note_on,41,79,115
2,note_on,43,0,8
2,note_on,38,70,101
2,note_on,41,0,10
2,note_on,39,71,107
2,note_on,38,0,15
2,note_on,38,68,103
2,note_on,39,0,14
2,note_on,38,0,106
2,note_on,36,79,4
2,note_on,31,69,114
2,note_on,36,0,44
2,note_on,36,72,81
2,note_on,31,0,33
2,note_on,31,71,82
2,note_on,36,0,11
2,note_on,36,75,77
2,note_on,31,0,35
2,note_on,31,76,90
2,note_on,36,0,30
2,note_on,36,77,83
2,note_on,31,0,45
2,note_on,31,76,72
2,note_on,36,0,41
2,note_on,31,0,79
2,note_on,35,79,8
2,note_on,35,0,9
2,note_on,68,71,113
2,note_on,67,71,115
2,note_on,68,0,13
2,note_on,65,79,107
2,note_on,67,0,12
2,note_on,62,72,111
2,note_on,65,0,9
2,note_on,63,72,115
2,note_on,62,0,8
2,note_on,62,71,108
2,note_on,63,0,16
2,note_on,59,79,33
2,note_on,62,0,11
2,note_on,55,71,68
2,note_on,59,0,12
2,note_on,56,71,104
2,note_on,55,0,16
2,note_on,55,69,109
2,note_on,56,0,7
2,note_on,53,79,115
2,note_on,55,0,10
2,note_on,50,72,106
2,note_on,53,0,16
2,note_on,51,72,108
2,note_on,50,0,8
2,note_on,50,71,114
2,note_on,51,0,10
2,note_on,47,79,46
2,note_on,50,0,16
2,note_on,43,71,105
2,note_on,47,0,11
2,note_on,44,71,103
2,note_on,43,0,18
2,note_on,43,70,107
2,note_on,44,0,7
2,note_on,41,79,110
2,note_on,43,0,15
2,note_on,38,71,102
2,note_on,41,0,10
2,note_on,39,71,115
2,note_on,38,0,7
2,note_on,38,70,109
2,note_on,39,0,16
2,note_on,36,79,99
2,note_on,38,0,17
2,note_on,31,71,109
2,note_on,36,0,6
2,note_on,36,73,115
2,note_on,31,0,11
2,note_on,31,74,110
2,note_on,36,0,11
2,note_on,36,76,4
2,note_on,31,0,11
2,note_on,31,76,109
2,note_on,36,0,12
2,note_on,36,79,102
2,note_on,31,0,18
2,note_on,31,79,108
2,note_on,36,0,6
2,note_on,35,79,110
2,note_on,31,0,4
2,note_on,35,0,116
2,note_on,80,79,111
2,note_on,79,71,116
2,note_on,80,0,16
2,note_on,77,79,107
2,note_on,79,0,9
2,note_on,74,71,108
2,note_on,77,0,15
2,note_on,75,71,108
2,note_on,74,0,9
2,note_on,74,70,112
2,note_on,75,0,11
2,note_on,71,79,104
2,note_on,74,0,17
2,note_on,67,70,107
2,note_on,71,0,8
2,note_on,68,70,111
2,note_on,67,0,13
2,note_on,67,69,112
2,note_on,68,0,7
2,note_on,65,79,110
2,note_on,67,0,15
2,note_on,62,71,106
2,note_on,65,0,11
2,note_on,63,71,107
2,note_on,62,0,14
2,note_on,62,69,104
2,note_on,63,0,14
2,note_on,59,79,110
2,note_on,62,0,8
2,note_on,55,71,112
2,note_on,59,0,12
2,note_on,56,71,110
2,note_on,55,0,10
2,note_on,55,69,102
2,note_on,56,0,20
2,note_on,53,79,104
2,note_on,55,0,8
2,note_on,50,71,116
2,note_on,53,0,8
2,note_on,51,71,108
2,note_on,50,0,16
2,note_on,50,69,108
2,note_on,51,0,8
2,note_on,47,79,107
2,note_on,50,0,17
2,note_on,43,71,103
2,note_on,47,0,12
2,note_on,44,71,107
2,note_on,43,0,13
2,note_on,43,69,112
2,note_on,44,0,7
2,note_on,41,79,114
2,note_on,43,0,11
2,note_on,38,71,101
2,note_on,41,0,20
2,note_on,39,71,100
2,note_on,38,0,12
2,note_on,38,69,108
2,note_on,39,0,12
2,note_on,36,69,114
2,note_on,38,0,6
2,note_on,35,65,116
2,note_on,36,0,10
2,note_on,43,69,106
2,note_on,35,0,4
2,note_on,41,68,110
2,note_on,43,0,18
2,note_on,39,67,109
2,note_on,41,0,5
2,note_on,38,66,108
2,note_on,39,0,19
2,note_on,39,65,107
2,note_on,38,0,6
2,note_on,38,64,113
2,note_on,39,0,13
2,note_on,36,63,106
2,note_on,38,0,13
2,note_on,35,62,103
2,note_on,36,0,16
2,note_on,46,68,114
2,note_on,35,0,2
2,note_on,44,67,109
2,note_on,46,0,21
2,note_on,43,67,104
2,note_on,44,0,7
2,note_on,41,65,107
2,note_on,43,0,18
2,note_on,43,64,103
2,note_on,41,0,11
2,note_on,41,63,115
2,note_on,43,0,6
2,note_on,39,62,110
2,note_on,41,0,16
2,note_on,38,61,104
2,note_on,39,0,12
2,note_on,51,70,112
2,note_on,38,0,8
2,note_on,50,71,109
2,note_on,51,0,15
2,note_on,48,72,105
2,note_on,50,0,12
2,note_on,47,73,106
2,note_on,48,0,27
2,note_on,48,75,98
2,note_on,47,0,20
2,note_on,47,76,94
2,note_on,48,0,31
2,note_on,44,76,93
2,note_on,47,0,21
2,note_on,43,77,99
2,note_on,44,0,25
2,note_on,44,80,98
2,note_on,43,0,22
2,note_on,43,82,94
2,note_on,44,0,29
2,note_on,41,84,87
2,note_on,43,0,29
2,note_on,39,86,94
2,note_on,41,0,22
2,note_on,41,88,99
2,note_on,39,0,24
2,note_on,39,90,93
2,note_on,41,0,28
2,note_on,36,93,3
2,note_on,39,0,5
2,note_on,43,51,116
2,note_on,36,0,11
2,note_on,48,52,107
2,note_on,43,0,14
2,note_on,50,53,106
2,note_on,48,0,12
2,note_on,51,54,0
2,note_on,50,0,14
2,note_on,55,56,109
2,note_on,51,0,9
2,note_on,60,57,111
2,note_on,55,0,12
2,note_on,62,57,110
2,note_on,60,0,10
2,note_on,63,60,7
2,note_on,62,0,17
2,note_on,62,60,101
2,note_on,63,0,14
2,note_on,60,59,104
2,note_on,62,0,14
2,note_on,55,57,114
2,note_on,60,0,4
2,note_on,51,57,25
2,note_on,55,0,12
2,note_on,50,57,92
2,note_on,51,0,16
2,note_on,48,56,100
2,note_on,50,0,16
2,note_on,43,55,112
2,note_on,48,0,4
2,note_on,36,53,3
2,note_on,43,0,1
2,note_on,43,55,111
2,note_on,36,0,20
2,note_on,48,57,104
2,note_on,43,0,8
2,note_on,50,59,118
2,note_on,48,0,6
2,note_on,51,61,104
2,note_on,50,0,22
2,note_on,50,61,99
2,note_on,51,0,11
2,note_on,48,60,110
2,note_on,50,0,11
2,note_on,43,59,108
2,note_on,48,0,13
2,note_on,43,0,17
2,note_on,36,63,5
2,note_on,43,59,98
2,note_on,36,0,17
2,note_on,48,63,108
2,note_on,43,0,7
2,note_on,50,66,113
2,note_on,48,0,12
2,note_on,51,68,109
2,note_on,50,0,11
2,note_on,50,64,110
2,note_on,51,0,11
2,note_on,48,60,111
2,note_on,50,0,10
2,note_on,43,56,107
2,note_on,48,0,15
2,note_on,36,52,83
2,note_on,43,0,2
2,note_on,43,46,121
2,note_on,36,0,7
2,note_on,48,47,109
2,note_on,43,0,16
2,note_on,50,48,110
2,note_on,48,0,6
2,note_on,51,49,112
2,note_on,50,0,14
2,note_on,55,50,100
2,note_on,51,0,18
2,note_on,60,51,101
2,note_on,55,0,13
2,note_on,62,52,110
2,note_on,60,0,9
2,note_on,63,53,81
2,note_on,62,0,11
2,note_on,62,52,110
2,note_on,63,0,7
2,note_on,60,51,109
2,note_on,62,0,16
2,note_on,55,49,112
2,note_on,60,0,4
2,note_on,51,48,108
2,note_on,55,0,20
2,note_on,50,47,102
2,note_on,51,0,10
2,note_on,48,45,109
2,note_on,50,0,13
2,note_on,43,44,105
2,note_on,48,0,14
2,note_on,43,0,95
2,note_on,36,43,1
2,note_on,43,45,90
2,note_on,36,0,14
2,note_on,48,47,114
2,note_on,43,0,4
2,note_on,50,50,116
2,note_on,48,0,12
2,note_on,51,50,109
2,note_on,50,0,11
2,note_on,50,50,100
2,note_on,51,0,21
2,note_on,48,50,103
2,note_on,50,0,8
2,note_on,43,49,112
2,note_on,48,0,12
2,note_on,43,0,38
2,note_on,36,47,4
2,note_on,43,49,88
2,note_on,36,0,15
2,note_on,48,51,105
2,note_on,43,0,12
2,note_on,50,53,111
2,note_on,48,0,9
2,note_on,51,55,105
2,note_on,50,0,18
2,note_on,50,55,106
2,note_on,51,0,8
2,note_on,48,55,107
2,note_on,50,0,17
2,note_on,43,53,112
2,note_on,48,0,3
2,note_on,36,54,4
2,note_on,43,0,1
2,note_on,43,54,119
2,note_on,36,0,12
2,note_on,48,55,99
2,note_on,43,0,21
2,note_on,50,57,104
2,note_on,48,0,7
2,note_on,51,59,114
2,note_on,50,0,11
2,note_on,55,61,111
2,note_on,51,0,10
2,note_on,60,63,110
2,note_on,55,0,12
2,note_on,62,65,102
2,note_on,60,0,18
2,note_on,63,67,5
2,note_on,62,0,4
2,note_on,62,63,114
2,note_on,63,0,14
2,note_on,60,61,100
2,note_on,62,0,18
2,note_on,55,59,106
2,note_on,60,0,8
2,note_on,51,56,106
2,note_on,55,0,18
2,note_on,50,53,107
2,note_on,51,0,7
2,note_on,48,51,116
2,note_on,50,0,9
2,note_on,43,49,110
2,note_on,48,0,1
2,note_on,36,51,100
2,note_on,43,0,7
2,note_on,42,52,63
2,note_on,36,0,4
2,note_on,48,55,114
2,note_on,42,0,14
2,note_on,50,56,110
2,note_on,48,0,8
2,note_on,51,57,21
2,note_on,50,0,8
2,note_on,50,54,106
2,note_on,51,0,13
2,note_on,48,55,102
2,note_on,50,0,17
2,note_on,42,54,104
2,note_on,48,0,11
2,note_on,42,0,30
2,note_on,36,53,0
2,note_on,42,54,115
2,note_on,36,0,17
2,note_on,48,55,110
2,note_on,42,0,5
2,note_on,50,57,108
2,note_on,48,0,19
2,note_on,51,59,17
2,note_on,50,0,4
2,note_on,50,57,109
2,note_on,51,0,12
2,note_on,48,57,102
2,note_on,50,0,18
2,note_on,42,56,101
2,note_on,48,0,13
2,note_on,35,55,49
2,note_on,42,0,1
2,note_on,47,55,104
2,note_on,35,0,5
2,note_on,50,56,108
2,note_on,47,0,19
2,note_on,55,55,104
2,note_on,50,0,9
2,note_on,62,57,2
2,note_on,55,0,8
2,note_on,55,55,113
2,note_on,62,0,11
2,note_on,50,55,105
2,note_on,55,0,16
2,note_on,47,54,110
2,note_on,50,0,6
2,note_on,34,55,1
2,note_on,47,0,4
2,note_on,46,54,113
2,note_on,34,0,15
2,note_on,49,55,107
2,note_on,46,0,10
2,note_on,55,55,114
2,note_on,49,0,8
2,note_on,61,56,20
2,note_on,55,0,9
2,note_on,55,53,100
2,note_on,61,0,11
2,note_on,49,55,109
2,note_on,55,0,12
2,note_on,46,50,108
2,note_on,49,0,12
2,note_on,46,0,28
2,note_on,33,55,9
2,note_on,45,55,107
2,note_on,33,0,19
2,note_on,48,56,102
2,note_on,45,0,11
2,note_on,53,55,113
2,note_on,48,0,8
2,note_on,60,57,16
2,note_on,53,0,4
2,note_on,53,54,108
2,note_on,60,0,4
2,note_on,48,56,110
2,note_on,53,0,18
2,note_on,45,55,109
2,note_on,48,0,5
2,note_on,32,55,32
2,note_on,45,0,7
2,note_on,44,55,103
2,note_on,32,0,12
2,note_on,48,56,108
2,note_on,44,0,12
2,note_on,53,57,108
2,note_on,48,0,12
2,note_on,60,54,115
2,note_on,53,0,5
2,note_on,53,51,115
2,note_on,60,0,12
2,note_on,48,50,108
2,note_on,53,0,12
2,note_on,44,48,108
2,note_on,48,0,12
2,note_on,31,46,57
2,note_on,44,0,3
2,note_on,43,47,111
2,note_on,31,0,18
2,note_on,48,48,103
2,note_on,43,0,11
2,note_on,47,49,110
2,note_on,48,0,11
2,note_on,49,51,110
2,note_on,47,0,11
2,note_on,48,53,110
2,note_on,49,0,11
2,note_on,50,55,107
2,note_on,48,0,14
2,note_on,49,55,113
2,note_on,50,0,5
2,note_on,51,56,112
2,note_on,49,0,15
2,note_on,50,55,105
2,note_on,51,0,12
2,note_on,52,57,112
2,note_on,50,0,8
2,note_on,51,55,107
2,note_on,52,0,17
2,note_on,53,59,106
2,note_on,51,0,9
2,note_on,52,57,113
2,note_on,53,0,10
2,note_on,54,61,110
2,note_on,52,0,12
2,note_on,53,57,107
2,note_on,54,0,13
2,note_on,55,64,107
2,note_on,53,0,12
2,note_on,54,60,100
2,note_on,55,0,20
2,note_on,56,62,103
2,note_on,54,0,9
2,note_on,55,60,110
2,note_on,56,0,13
2,note_on,58,63,105
2,note_on,55,0,14
2,note_on,56,61,115
2,note_on,58,0,3
2,note_on,55,63,115
2,note_on,56,0,14
2,note_on,53,60,105
2,note_on,55,0,13
2,note_on,51,63,100
2,note_on,53,0,19
2,note_on,50,59,108
2,note_on,51,0,5
2,note_on,48,60,116
2,note_on,50,0,11
2,note_on,47,59,109
2,note_on,48,0,12
2,note_on,44,57,109
2,note_on,47,0,11
2,note_on,43,53,93
2,note_on,44,0,20
2,note_on,41,51,106
2,note_on,43,0,6
2,note_on,38,47,111
2,note_on,41,0,15
2,note_on,38,0,105
2,note_on,36,41,3
2,note_on,43,42,90
2,note_on,36,0,9
2,note_on,48,43,110
2,note_on,43,0,13
2,note_on,50,44,98
2,note_on,48,0,21
2,note_on,51,45,52
2,note_on,50,0,4
2,note_on,55,46,105
2,note_on,51,0,16
2,note_on,60,47,100
2,note_on,55,0,16
2,note_on,62,48,106
2,note_on,60,0,10
2,note_on,63,50,13
2,note_on,62,0,10
2,note_on,62,49,74
2,note_on,63,0,15
2,note_on,60,48,114
2,note_on,62,0,3
2,note_on,55,47,112
2,note_on,60,0,17
2,note_on,51,47,53
2,note_on,55,0,5
2,note_on,50,46,111
2,note_on,51,0,6
2,note_on,48,45,115
2,note_on,50,0,11
2,note_on,43,44,102
2,note_on,48,0,19
2,note_on,36,45,59
2,note_on,43,0,2
2,note_on,43,48,98
2,note_on,36,0,4
2,note_on,48,51,110
2,note_on,43,0,18
2,note_on,50,53,106
2,note_on,48,0,8
2,note_on,51,56,45
2,note_on,50,0,9
2,note_on,50,53,111
2,note_on,51,0,11
2,note_on,48,51,103
2,note_on,50,0,18
2,note_on,43,49,104
2,note_on,48,0,10
2,note_on,43,0,46
2,note_on,36,47,5
2,note_on,43,47,119
2,note_on,36,0,13
2,note_on,48,51,105
2,note_on,43,0,14
2,note_on,50,53,101
2,note_on,48,0,17
2,note_on,51,56,109
2,note_on,50,0,6
2,note_on,50,54,110
2,note_on,51,0,16
2,note_on,48,51,104
2,note_on,50,0,12
2,note_on,43,48,104
2,note_on,48,0,16
2,note_on,43,0,62
2,note_on,36,47,1
2,note_on,43,43,118
2,note_on,36,0,14
2,note_on,48,44,103
2,note_on,43,0,15
2,note_on,50,46,107
2,note_on,48,0,10
2,note_on,51,47,116
2,note_on,50,0,6
2,note_on,55,48,107
2,note_on,51,0,19
2,note_on,60,49,109
2,note_on,55,0,4
2,note_on,62,50,107
2,note_on,60,0,17
2,note_on,63,52,4
2,note_on,62,0,4
2,note_on,62,51,116
2,note_on,63,0,12
2,note_on,60,51,103
2,note_on,62,0,17
2,note_on,55,50,101
2,note_on,60,0,14
2,note_on,51,49,110
2,note_on,55,0,8
2,note_on,50,48,112
2,note_on,51,0,12
2,note_on,48,47,108
2,note_on,50,0,12
2,note_on,43,46,106
2,note_on,48,0,14
2,note_on,36,44,66
2,note_on,43,0,4
2,note_on,43,46,99
2,note_on,36,0,3
2,note_on,48,47,109
2,note_on,43,0,20
2,note_on,50,49,101
2,note_on,48,0,11
2,note_on,51,51,110
2,note_on,50,0,11
2,note_on,50,50,113
2,note_on,51,0,8
2,note_on,48,49,111
2,note_on,50,0,13
2,note_on,43,48,111
2,note_on,48,0,8
2,note_on,36,47,12
2,note_on,43,0,4
2,note_on,43,49,95
2,note_on,36,0,10
2,note_on,48,51,106
2,note_on,43,0,16
2,note_on,50,54,109
2,note_on,48,0,7
2,note_on,51,57,112
2,note_on,50,0,13
2,note_on,50,54,100
2,note_on,51,0,19
2,note_on,48,53,105
2,note_on,50,0,8
2,note_on,43,51,107
2,note_on,48,0,17
2,note_on,43,0,87
2,note_on,36,45,0
2,note_on,43,47,123
2,note_on,36,0,4
2,note_on,48,48,111
2,note_on,43,0,17
2,note_on,50,49,109
2,note_on,48,0,6
2,note_on,51,52,110
2,note_on,50,0,16
2,note_on,55,54,107
2,note_on,51,0,9
2,note_on,60,55,103
2,note_on,55,0,20
2,note_on,62,57,106
2,note_on,60,0,6
2,note_on,63,60,37
2,note_on,62,0,18
2,note_on,62,56,73
2,note_on,63,0,5
2,note_on,60,57,118
2,note_on,62,0,9
2,note_on,55,55,106
2,note_on,60,0,17
2,note_on,51,54,105
2,note_on,55,0,10
2,note_on,50,51,105
2,note_on,51,0,17
2,note_on,48,51,110
2,note_on,50,0,5
2,note_on,43,49,2
2,note_on,48,0,14
2,note_on,36,60,105
2,note_on,43,0,1
2,note_on,42,47,88
2,note_on,36,0,16
2,note_on,48,50,111
2,note_on,42,0,5
2,note_on,50,52,111
2,note_on,48,0,16
2,note_on,51,53,32
2,note_on,50,0,1
2,note_on,50,52,106
2,note_on,51,0,17
2,note_on,48,51,100
2,note_on,50,0,15
2,note_on,42,49,110
2,note_on,48,0,7
2,note_on,42,0,63
2,note_on,36,64,1
2,note_on,42,55,118
2,note_on,36,0,14
2,note_on,48,57,106
2,note_on,42,0,12
2,note_on,50,63,104
2,note_on,48,0,16
2,note_on,51,64,32
2,note_on,50,0,9
2,note_on,50,62,92
2,note_on,51,0,9
2,note_on,48,61,114
2,note_on,50,0,9
2,note_on,42,59,106
2,note_on,48,0,17
2,note_on,42,0,45
2,note_on,37,63,5
2,note_on,49,64,114
2,note_on,37,0,18
2,note_on,54,69,103
2,note_on,49,0,11
2,note_on,56,71,104
2,note_on,54,0,17
2,note_on,58,77,113
2,note_on,56,0,2
2,note_on,56,74,117
2,note_on,58,0,13
2,note_on,54,73,102
2,note_on,56,0,17
2,note_on,49,67,106
2,note_on,54,0,9
2,note_on,37,62,95
2,note_on,49,0,2
2,note_on,49,65,119
2,note_on,37,0,9
2,note_on,54,69,110
2,note_on,49,0,13
2,note_on,56,74,108
2,note_on,54,0,11
2,note_on,58,76,103
2,note_on,56,0,18
2,note_on,56,72,106
2,note_on,58,0,8
2,note_on,54,71,110
2,note_on,56,0,14
2,note_on,49,65,114
2,note_on,54,0,3
2,note_on,37,60,4
2,note_on,49,0,1
2,note_on,49,63,120
2,note_on,37,0,11
2,note_on,55,66,105
2,note_on,49,0,16
2,note_on,58,68,104
2,note_on,55,0,12
2,note_on,61,70,102
2,note_on,58,0,18
2,note_on,60,70,106
2,note_on,61,0,8
2,note_on,58,69,111
2,note_on,60,0,13
2,note_on,56,68,109
2,note_on,58,0,10
2,note_on,55,68,35
2,note_on,56,0,5
2,note_on,53,68,124
2,note_on,55,0,3
2,note_on,52,69,111
2,note_on,53,0,18
2,note_on,49,67,107
2,note_on,52,0,7
2,note_on,48,66,115
2,note_on,49,0,10
2,note_on,46,64,92
2,note_on,48,0,16
2,note_on,44,63,100
2,note_on,46,0,16
2,note_on,43,62,105
2,note_on,44,0,11
2,note_on,43,0,61
2,note_on,35,62,1
2,note_on,47,65,123
2,note_on,35,0,9
2,note_on,52,67,104
2,note_on,47,0,19
2,note_on,54,69,102
2,note_on,52,0,11
2,note_on,56,72,13
2,note_on,54,0,8
2,note_on,54,73,114
2,note_on,56,0,10
2,note_on,52,71,103
2,note_on,54,0,19
2,note_on,47,67,101
2,note_on,52,0,12
2,note_on,47,0,54
2,note_on,35,62,2
2,note_on,47,67,124
2,note_on,35,0,7
2,note_on,52,72,110
2,note_on,47,0,15
2,note_on,54,71,99
2,note_on,52,0,18
2,note_on,56,76,28
2,note_on,54,0,2
2,note_on,54,73,81
2,note_on,56,0,22
2,note_on,52,74,104
2,note_on,54,0,6
2,note_on,47,70,110
2,note_on,52,0,16
2,note_on,35,64,42
2,note_on,47,0,1
2,note_on,47,65,116
2,note_on,35,0,12
2,note_on,53,67,109
2,note_on,47,0,11
2,note_on,56,71,112
2,note_on,53,0,9
2,note_on,59,73,22
2,note_on,56,0,7
2,note_on,58,73,103
2,note_on,59,0,22
2,note_on,56,72,98
2,note_on,58,0,12
2,note_on,54,71,111
2,note_on,56,0,9
2,note_on,53,71,67
2,note_on,54,0,10
2,note_on,51,71,110
2,note_on,53,0,10
2,note_on,50,72,110
2,note_on,51,0,12
2,note_on,47,71,107
2,note_on,50,0,13
2,note_on,46,70,28
2,note_on,47,0,6
2,note_on,44,67,87
2,note_on,46,0,16
2,note_on,42,64,101
2,note_on,44,0,15
2,note_on,41,62,107
2,note_on,42,0,10
2,note_on,34,59,62
2,note_on,41,0,1
2,note_on,46,54,125
2,note_on,34,0,6
2,note_on,51,45,110
2,note_on,46,0,16
2,note_on,53,48,107
2,note_on,51,0,9
2,note_on,55,50,10
2,note_on,53,0,13
2,note_on,53,47,107
2,note_on,55,0,12
2,note_on,51,45,106
2,note_on,53,0,14
2,note_on,46,43,109
2,note_on,51,0,9
2,note_on,34,38,76
2,note_on,46,0,4
2,note_on,46,41,121
2,note_on,34,0,5
2,note_on,51,44,107
2,note_on,46,0,20
2,note_on,53,46,108
2,note_on,51,0,4
2,note_on,55,49,30
2,note_on,53,0,15
2,note_on,53,48,81
2,note_on,55,0,18
2,note_on,51,45,109
2,note_on,53,0,5
2,note_on,46,44,112
2,note_on,51,0,15
2,note_on,35,31,52
2,note_on,46,0,4
2,note_on,47,33,115
2,note_on,35,0,13
2,note_on,50,34,107
2,note_on,47,0,12
2,note_on,55,35,113
2,note_on,50,0,7
2,note_on,62,36,4
2,note_on,55,0,8
2,note_on,55,35,104
2,note_on,62,0,20
2,note_on,50,34,99
2,note_on,55,0,13
2,note_on,47,32,109
2,note_on,50,0,10
2,note_on,47,0,71
2,note_on,35,31,4
2,note_on,47,31,119
2,note_on,35,0,13
2,note_on,50,33,107
2,note_on,47,0,12
2,note_on,55,34,107
2,note_on,50,0,13
2,note_on,62,35,38
2,note_on,55,0,8
2,note_on,55,34,109
2,note_on,62,0,7
2,note_on,50,34,115
2,note_on,55,0,10
2,note_on,47,33,109
2,note_on,50,0,13
2,note_on,36,32,54
2,note_on,47,0,4
2,note_on,43,29,116
2,note_on,36,0,9
2,note_on,48,30,106
2,note_on,43,0,17
2,note_on,50,31,103
2,note_on,48,0,12
2,note_on,51,32,108
2,note_on,50,0,12
2,note_on,55,33,111
2,note_on,51,0,9
2,note_on,60,34,115
2,note_on,55,0,8
2,note_on,62,35,20
2,note_on,60,0,15
2,note_on,63,35,56
2,note_on,62,0,15
2,note_on,62,35,107
2,note_on,63,0,10
2,note_on,60,35,109
2,note_on,62,0,13
2,note_on,55,34,113
2,note_on,60,0,6
2,note_on,51,34,107
2,note_on,55,0,19
2,note_on,50,33,100
2,note_on,51,0,13
2,note_on,48,32,112
2,note_on,50,0,7
2,note_on,43,32,111
2,note_on,48,0,14
2,note_on,43,0,58
2,note_on,29,35,3
2,note_on,37,35,113
2,note_on,29,0,19
2,note_on,41,36,109
2,note_on,37,0,4
2,note_on,43,38,108
2,note_on,41,0,20
2,note_on,44,39,2
2,note_on,43,0,13
2,note_on,49,40,108
2,note_on,44,0,11
2,note_on,53,42,116
2,note_on,49,0,5
2,note_on,55,43,109
2,note_on,53,0,18
2,note_on,56,44,36
2,note_on,55,0,8
2,note_on,55,44,107
2,note_on,56,0,15
2,note_on,53,43,107
2,note_on,55,0,10
2,note_on,49,42,112
2,note_on,53,0,10
2,note_on,44,41,112
2,note_on,49,0,10
2,note_on,41,40,111
2,note_on,44,0,11
2,note_on,37,40,109
2,note_on,41,0,12
2,note_on,32,39,99
2,note_on,37,0,21
2,note_on,32,0,56
2,note_on,31,38,0
2,note_on,31,0,120
2,note_on,40,42,125
2,note_on,39,43,122
2,note_on,40,0,10
2,note_on,41,43,111
2,note_on,39,0,11
2,note_on,40,44,100
2,note_on,41,0,21
2,note_on,42,44,108
2,note_on,40,0,3
2,note_on,41,45,117
2,note_on,42,0,12
2,note_on,43,45,103
2,note_on,41,0,17
2,note_on,42,45,105
2,note_on,43,0,10
2,note_on,44,46,111
2,note_on,42,0,11
2,note_on,43,45,106
2,note_on,44,0,15
2,note_on,45,47,104
2,note_on,43,0,13
2,note_on,44,48,114
2,note_on,45,0,5
2,note_on,46,49,115
2,note_on,44,0,12
2,note_on,45,48,106
2,note_on,46,0,14
2,note_on,47,49,104
2,note_on,45,0,14
2,note_on,46,50,102
2,note_on,47,0,16
2,note_on,48,50,103
2,note_on,46,0,13
2,note_on,47,49,108
2,note_on,48,0,11
2,note_on,49,52,113
2,note_on,47,0,8
2,note_on,48,53,111
2,note_on,49,0,13
2,note_on,50,53,105
2,note_on,48,0,14
2,note_on,49,52,105
2,note_on,50,0,13
2,note_on,51,53,110
2,note_on,49,0,9
2,note_on,50,51,113
2,note_on,51,0,10
2,note_on,52,54,113
2,note_on,50,0,9
2,note_on,51,55,108
2,note_on,52,0,15
2,note_on,53,56,108
2,note_on,51,0,9
2,note_on,52,54,103
2,note_on,53,0,20
2,note_on,54,56,103
2,note_on,52,0,9
2,note_on,53,55,108
2,note_on,54,0,15
2,note_on,55,57,112
2,note_on,53,0,5
2,note_on,54,55,111
2,note_on,55,0,16
2,note_on,56,57,102
2,note_on,54,0,14
2,note_on,55,56,108
2,note_on,56,0,10
2,note_on,58,57,111
2,note_on,55,0,11
2,note_on,56,54,106
2,note_on,58,0,15
2,note_on,55,53,105
2,note_on,56,0,12
2,note_on,53,50,106
2,note_on,55,0,14
2,note_on,51,53,108
2,note_on,53,0,10
2,note_on,50,48,109
2,note_on,51,0,13
2,note_on,53,51,115
2,note_on,50,0,4
2,note_on,51,47,114
2,note_on,53,0,14
2,note_on,55,52,106
2,note_on,51,0,12
2,note_on,53,49,107
2,note_on,55,0,13
2,note_on,51,51,107
2,note_on,53,0,12
2,note_on,50,47,103
2,note_on,51,0,17
2,note_on,48,51,109
2,note_on,50,0,6
2,note_on,47,48,106
2,note_on,48,0,20
2,note_on,50,53,107
2,note_on,47,0,5
2,note_on,48,49,117
2,note_on,50,0,10
2,note_on,46,51,104
2,note_on,48,0,18
2,note_on,44,50,99
2,note_on,46,0,15
2,note_on,43,50,110
2,note_on,44,0,7
2,note_on,42,49,108
2,note_on,43,0,17
2,note_on,43,49,112
2,note_on,42,0,3
2,note_on,44,47,114
2,note_on,43,0,15
2,note_on,41,48,104
2,note_on,44,0,13
2,note_on,43,46,108
2,note_on,41,0,11
2,note_on,39,46,109
2,note_on,43,0,12
2,note_on,41,44,110
2,note_on,39,0,10
2,note_on,38,44,109
2,note_on,41,0,13
2,note_on,39,43,107
2,note_on,38,0,12
2,note_on,36,43,106
2,note_on,39,0,2
2,note_on,36,0,118
2,note_on,61,49,123
2,note_on,60,48,121
2,note_on,61,0,11
2,note_on,58,47,101
2,note_on,60,0,20
2,note_on,55,46,103
2,note_on,58,0,9
2,note_on,56,45,115
2,note_on,55,0,8
2,note_on,55,44,104
2,note_on,56,0,20
2,note_on,52,44,104
2,note_on,55,0,8
2,note_on,48,43,108
2,note_on,52,0,16
2,note_on,49,42,109
2,note_on,48,0,7
2,note_on,48,41,110
2,note_on,49,0,15
2,note_on,46,40,103
2,note_on,48,0,14
2,note_on,43,39,108
2,note_on,46,0,10
2,note_on,44,38,118
2,note_on,43,0,4
2,note_on,43,37,111
2,note_on,44,0,17
2,note_on,41,35,104
2,note_on,43,0,11
2,note_on,36,32,59
2,note_on,41,0,18
2,note_on,41,35,106
2,note_on,36,0,8
2,note_on,36,28,118
2,note_on,41,0,6
2,note_on,41,35,113
2,note_on,36,0,13
2,note_on,36,31,101
2,note_on,41,0,18
2,note_on,41,35,101
2,note_on,36,0,13
2,note_on,36,28,108
2,note_on,41,0,11
2,note_on,41,35,106
2,note_on,36,0,15
2,note_on,36,32,115
2,note_on,41,0,2
2,note_on,41,35,109
2,note_on,36,0,21
2,note_on,36,30,98
2,note_on,41,0,13
2,note_on,41,35,109
2,note_on,36,0,10
2,note_on,36,32,111
2,note_on,41,0,11
2,note_on,41,35,114
2,note_on,36,0,7
2,note_on,36,28,16
2,note_on,41,0,13
2,note_on,48,35,105
2,note_on,36,0,14
2,note_on,48,0,106
2,note_on,61,47,115
2,note_on,60,46,122
2,note_on,61,0,10
2,note_on,58,45,109
2,note_on,60,0,13
2,note_on,55,44,108
2,note_on,58,0,11
2,note_on,56,44,113
2,note_on,55,0,8
2,note_on,55,44,107
2,note_on,56,0,17
2,note_on,52,43,108
2,note_on,55,0,7
2,note_on,48,42,108
2,note_on,52,0,17
2,note_on,49,41,106
2,note_on,48,0,9
2,note_on,48,40,115
2,note_on,49,0,8
2,note_on,46,39,107
2,note_on,48,0,17
2,note_on,43,38,100
2,note_on,46,0,15
2,note_on,44,37,108
2,note_on,43,0,9
2,note_on,43,36,115
2,note_on,44,0,8
2,note_on,41,35,114
2,note_on,43,0,10
2,note_on,36,33,100
2,note_on,41,0,15
2,note_on,41,35,108
2,note_on,36,0,9
2,note_on,36,30,102
2,note_on,41,0,21
2,note_on,41,35,107
2,note_on,36,0,4
2,note_on,36,34,118
2,note_on,41,0,10
2,note_on,41,35,106
2,note_on,36,0,16
2,note_on,36,29,104
2,note_on,41,0,12
2,note_on,41,35,108
2,note_on,36,0,12
2,note_on,36,33,108
2,note_on,41,0,12
2,note_on,41,35,104
2,note_on,36,0,16
2,note_on,36,31,112
2,note_on,41,0,4
2,note_on,41,35,108
2,note_on,36,0,20
2,note_on,36,33,98
2,note_on,41,0,14
2,note_on,41,35,108
2,note_on,36,0,10
2,note_on,36,32,110
2,note_on,41,0,9
2,note_on,36,0,108
2,note_on,48,35,3
2,note_on,48,0,120
2,note_on,80,81,115
2,note_on,80,0,120
2,note_on,79,80,5
2,note_on,76,77,121
2,note_on,79,0,11
2,note_on,72,76,113
2,note_on,76,0,8
2,note_on,73,81,105
2,note_on,72,0,19
2,note_on,72,77,104
2,note_on,73,0,9
2,note_on,70,79,113
2,note_on,72,0,10
2,note_on,67,77,111
2,note_on,70,0,11
2,note_on,68,84,110
2,note_on,67,0,11
2,note_on,67,81,108
2,note_on,68,0,13
2,note_on,64,81,104
2,note_on,67,0,15
2,note_on,60,79,102
2,note_on,64,0,15
2,note_on,61,84,110
2,note_on,60,0,7
2,note_on,60,80,106
2,note_on,61,0,19
2,note_on,58,80,105
2,note_on,60,0,8
2,note_on,55,80,114
2,note_on,58,0,10
2,note_on,56,85,107
2,note_on,55,0,15
2,note_on,55,82,111
2,note_on,56,0,6
2,note_on,52,83,105
2,note_on,55,0,21
2,note_on,48,81,102
2,note_on,52,0,9
2,note_on,49,84,107
2,note_on,48,0,16
2,note_on,48,84,111
2,note_on,49,0,5
2,note_on,46,83,110
2,note_on,48,0,17
2,note_on,43,83,102
2,note_on,46,0,13
2,note_on,44,88,108
2,note_on,43,0,11
2,note_on,43,84,109
2,note_on,44,0,12
2,note_on,40,83,115
2,note_on,43,0,5
2,note_on,36,83,114
2,note_on,40,0,13
2,note_on,37,84,99
2,note_on,36,0,20
2,note_on,36,93,105
2,note_on,37,0,7
2,note_on,36,0,113
2,note_on,29,102,0
2,note_on,41,102,0
2,note_on,41,0,940
2,note_on,29,0,0
2,note_on,29,97,20
2,note_on,41,97,0
2,note_on,41,0,900
2,note_on,29,0,0
2,note_on,24,99,60
2,note_on,36,99,0
2,note_on,36,0,240
2,note_on,24,0,0
2,note_on,24,95,240
2,note_on,36,95,0
2,note_on,36,0,240
2,note_on,24,0,0
