Track,Message Type,Note,Velocity,Time
1,note_on,77,49,0
1,note_on,77,0,360
1,note_on,73,44,0
1,note_on,73,0,120
1,note_on,68,47,0
1,note_on,68,0,960
1,note_on,70,50,0
1,note_on,70,0,480
1,note_on,72,49,0
1,note_on,72,0,1440
1,note_on,73,51,0
1,note_on,73,0,480
1,note_on,66,45,0
1,note_on,75,54,0
1,note_on,60,45,0
1,note_on,75,0,360
1,note_on,66,0,0
1,note_on,68,47,0
1,note_on,77,56,0
1,note_on,77,0,120
1,note_on,68,0,0
1,note_on,78,57,0
1,note_on,70,49,0
1,note_on,70,0,960
1,note_on,78,0,0
1,note_on,60,0,0
1,note_on,61,44,0
1,note_on,68,44,0
1,note_on,77,53,0
1,note_on,68,0,240
1,note_on,61,0,0
1,note_on,77,0,240
1,note_on,68,44,0
1,note_on,77,53,0
1,note_on,60,42,0
1,note_on,68,0,240
1,note_on,66,34,240
1,note_on,66,0,240
1,note_on,77,0,0
1,note_on,75,49,0
1,note_on,75,0,240
1,note_on,60,0,0
1,note_on,73,46,0
1,note_on,73,0,420
1,note_on,75,45,0
1,note_on,75,0,60
1,note_on,75,51,0
1,note_on,75,0,68
1,note_on,77,46,0
1,note_on,77,0,68
1,note_on,75,46,0
1,note_on,75,0,68
1,note_on,74,51,0
1,note_on,74,0,68
1,note_on,75,46,0
1,note_on,75,0,68
1,note_on,77,46,0
1,note_on,77,0,68
1,note_on,78,46,0
1,note_on,78,0,72
1,note_on,77,49,0
1,note_on,77,0,360
1,note_on,73,44,0
1,note_on,73,0,120
1,note_on,68,46,0
1,note_on,68,0,960
1,note_on,70,50,0
1,note_on,70,0,480
1,note_on,72,49,0
1,note_on,72,0,1440
1,note_on,73,51,0
1,note_on,73,0,480
1,note_on,66,45,0
1,note_on,75,54,0
1,note_on,60,45,0
1,note_on,75,0,360
1,note_on,66,0,0
1,note_on,68,47,0
1,note_on,77,56,0
1,note_on,77,0,120
1,note_on,68,0,0
1,note_on,78,57,0
1,note_on,70,49,0
1,note_on,70,0,960
1,note_on,78,0,0
1,note_on,60,0,0
1,note_on,61,40,0
1,note_on,68,44,0
1,note_on,77,53,0
1,note_on,68,0,240
1,note_on,61,0,0
1,note_on,77,0,240
1,note_on,68,44,0
1,note_on,77,53,0
1,note_on,60,44,0
1,note_on,68,0,240
1,note_on,66,34,240
1,note_on,66,0,240
1,note_on,77,0,0
1,note_on,75,49,0
1,note_on,75,0,240
1,note_on,60,0,0
1,note_on,73,46,0
1,note_on,73,0,480
1,note_on,72,51,0
1,note_on,72,0,240
1,note_on,73,49,0
1,note_on,73,0,240
1,note_on,75,54,0
1,note_on,75,0,480
1,note_on,75,54,0
1,note_on,75,0,960
1,note_on,77,54,0
1,note_on,77,0,480
1,note_on,78,57,0
1,note_on,78,0,240
1,note_on,77,53,0
1,note_on,77,0,240
1,note_on,75,53,0
1,note_on,75,0,240
1,note_on,73,53,0
1,note_on,73,0,240
1,note_on,77,55,0
1,note_on,77,0,960
1,note_on,75,57,0
1,note_on,75,0,240
1,note_on,71,51,0
1,note_on,71,0,240
1,note_on,70,54,0
1,note_on,70,0,240
1,note_on,68,54,0
1,note_on,68,0,240
1,note_on,70,59,0
1,note_on,71,51,360
1,note_on,71,0,40
1,note_on,70,51,0
1,note_on,70,0,20
1,note_on,70,0,20
1,note_on,68,51,0
1,note_on,68,0,40
1,note_on,70,54,0
1,note_on,70,0,360
1,note_on,71,47,0
1,note_on,71,0,120
1,note_on,68,51,0
1,note_on,68,0,480
1,note_on,75,62,0
1,note_on,75,0,480
1,note_on,73,65,0
1,note_on,73,0,480
1,note_on,76,59,0
1,note_on,76,0,480
1,note_on,75,63,0
1,note_on,75,0,480
1,note_on,75,56,0
1,note_on,75,0,960
1,note_on,77,57,0
1,note_on,77,0,480
1,note_on,78,63,0
1,note_on,78,0,240
1,note_on,77,54,0
1,note_on,77,0,240
1,note_on,75,54,0
1,note_on,75,0,240
1,note_on,73,54,0
1,note_on,73,0,240
1,note_on,77,51,0
1,note_on,77,0,1200
1,note_on,73,54,0
1,note_on,73,0,240
1,note_on,72,54,0
1,note_on,72,0,240
1,note_on,70,54,0
1,note_on,70,0,240
1,note_on,72,59,0
1,note_on,73,52,360
1,note_on,73,0,40
1,note_on,72,52,0
1,note_on,72,0,20
1,note_on,72,0,20
1,note_on,70,53,0
1,note_on,70,0,40
1,note_on,72,55,0
1,note_on,72,0,240
1,note_on,73,51,0
1,note_on,73,0,240
1,note_on,70,51,0
1,note_on,70,0,480
1,note_on,77,59,0
1,note_on,77,0,480
1,note_on,75,59,0
1,note_on,75,0,480
1,note_on,78,63,0
1,note_on,78,0,480
1,note_on,77,57,0
1,note_on,77,0,240
1,note_on,73,53,0
1,note_on,73,0,240
1,note_on,72,53,0
1,note_on,72,0,240
1,note_on,70,53,0
1,note_on,70,0,240
1,note_on,72,59,0
1,note_on,73,55,360
1,note_on,73,0,40
1,note_on,72,55,0
1,note_on,72,0,20
1,note_on,72,0,20
1,note_on,70,55,0
1,note_on,70,0,40
1,note_on,72,55,0
1,note_on,72,0,360
1,note_on,73,51,0
1,note_on,73,0,120
1,note_on,70,51,0
1,note_on,70,0,480
1,note_on,75,62,0
1,note_on,75,0,480
1,note_on,77,65,0
1,note_on,77,0,480
1,note_on,75,62,0
1,note_on,75,0,480
1,note_on,77,66,0
1,note_on,77,0,1440
1,note_on,75,51,0
1,note_on,75,0,480
1,note_on,77,49,0
1,note_on,77,0,360
1,note_on,73,45,0
1,note_on,73,0,120
1,note_on,68,49,0
1,note_on,68,0,960
1,note_on,70,49,0
1,note_on,70,0,480
1,note_on,72,49,0
1,note_on,72,0,1440
1,note_on,73,51,0
1,note_on,73,0,480
1,note_on,60,45,0
1,note_on,66,45,0
1,note_on,75,54,0
1,note_on,75,0,360
1,note_on,66,0,0
1,note_on,77,56,0
1,note_on,68,47,0
1,note_on,68,0,120
1,note_on,77,0,0
1,note_on,70,49,0
1,note_on,78,57,0
1,note_on,78,0,960
1,note_on,70,0,0
1,note_on,60,0,0
1,note_on,61,44,0
1,note_on,77,53,0
1,note_on,68,44,0
1,note_on,68,0,240
1,note_on,61,0,0
1,note_on,77,0,240
1,note_on,60,44,0
1,note_on,68,44,0
1,note_on,77,53,0
1,note_on,68,0,240
1,note_on,60,0,0
1,note_on,66,34,240
1,note_on,60,40,0
1,note_on,60,0,240
1,note_on,66,0,0
1,note_on,77,0,0
1,note_on,75,49,0
1,note_on,75,0,240
1,note_on,73,46,0
1,note_on,73,0,480
1,note_on,74,51,0
1,note_on,74,0,68
1,note_on,75,50,0
1,note_on,75,0,68
1,note_on,76,52,0
1,note_on,76,0,68
1,note_on,77,56,0
1,note_on,77,0,68
1,note_on,80,54,0
1,note_on,80,0,68
1,note_on,79,53,0
1,note_on,79,0,68
1,note_on,78,52,0
1,note_on,78,0,72
1,note_on,77,49,0
1,note_on,77,0,360
1,note_on,73,44,0
1,note_on,73,0,120
1,note_on,68,46,0
1,note_on,68,0,960
1,note_on,70,48,0
1,note_on,70,0,480
1,note_on,72,49,0
1,note_on,72,0,1440
1,note_on,73,51,0
1,note_on,73,0,480
1,note_on,60,45,0
1,note_on,66,45,0
1,note_on,75,54,0
1,note_on,75,0,360
1,note_on,66,0,0
1,note_on,77,56,0
1,note_on,68,47,0
1,note_on,68,0,120
1,note_on,77,0,0
1,note_on,70,49,0
1,note_on,78,57,0
1,note_on,78,0,960
1,note_on,70,0,0
1,note_on,60,0,0
1,note_on,63,39,0
1,note_on,72,46,0
1,note_on,63,0,240
1,note_on,72,0,240
1,note_on,75,46,0
1,note_on,66,39,0
1,note_on,66,0,960
1,note_on,75,0,0
1,note_on,56,31,960
1,note_on,56,0,228
1,note_on,56,30,12
1,note_on,56,0,228
1,note_on,56,31,12
1,note_on,56,0,228
1,note_on,56,32,12
1,note_on,56,0,228
1,note_on,56,35,12
1,note_on,56,0,228
1,note_on,56,33,12
1,note_on,56,0,228
1,note_on,56,31,12
1,note_on,56,0,228
1,note_on,56,31,12
1,note_on,56,0,228
1,note_on,56,39,12
1,note_on,56,0,228
1,note_on,56,36,12
1,note_on,56,0,228
1,note_on,56,37,12
1,note_on,56,0,228
1,note_on,56,37,12
1,note_on,56,0,228
1,note_on,56,45,12
1,note_on,56,0,228
1,note_on,56,38,12
1,note_on,56,0,228
1,note_on,56,35,12
1,note_on,56,0,228
1,note_on,56,36,12
1,note_on,56,0,228
1,note_on,56,49,12
1,note_on,56,0,228
1,note_on,56,42,12
1,note_on,56,0,228
1,note_on,56,42,12
1,note_on,56,0,228
1,note_on,56,42,12
1,note_on,56,0,228
1,note_on,56,49,12
1,note_on,56,0,228
1,note_on,56,40,12
1,note_on,56,0,228
1,note_on,56,39,12
1,note_on,56,0,228
1,note_on,56,39,12
1,note_on,56,0,228
1,note_on,56,49,12
1,note_on,56,0,228
1,note_on,56,40,12
1,note_on,56,0,228
1,note_on,56,42,12
1,note_on,56,0,228
1,note_on,56,41,12
1,note_on,56,0,228
1,note_on,56,42,12
1,note_on,56,0,228
1,note_on,56,41,12
1,note_on,56,0,228
1,note_on,56,40,12
1,note_on,56,0,228
1,note_on,56,40,12
1,note_on,56,0,228
1,note_on,56,44,12
1,note_on,56,0,228
1,note_on,56,39,12
1,note_on,56,0,228
1,note_on,56,39,12
1,note_on,56,0,228
1,note_on,56,37,12
1,note_on,56,0,228
1,note_on,56,41,12
1,note_on,56,0,228
1,note_on,56,37,12
1,note_on,56,0,228
1,note_on,56,35,12
1,note_on,56,0,228
1,note_on,56,35,12
1,note_on,56,0,228
1,note_on,56,40,12
1,note_on,56,0,228
1,note_on,56,35,12
1,note_on,56,0,228
1,note_on,56,35,12
1,note_on,56,0,228
1,note_on,56,31,12
1,note_on,56,0,228
1,note_on,56,38,12
1,note_on,56,0,228
1,note_on,56,35,12
1,note_on,56,0,228
1,note_on,56,35,12
1,note_on,56,0,228
1,note_on,56,33,12
1,note_on,56,0,228
1,note_on,56,38,12
1,note_on,56,0,228
1,note_on,56,40,12
1,note_on,56,0,228
1,note_on,56,41,12
1,note_on,56,0,228
1,note_on,56,44,12
1,note_on,56,0,228
1,note_on,56,46,12
1,note_on,56,0,228
1,note_on,56,48,12
1,note_on,56,0,228
1,note_on,56,49,12
1,note_on,56,0,228
1,note_on,56,51,12
1,note_on,56,0,228
1,note_on,56,53,12
1,note_on,56,0,228
1,note_on,68,53,12
1,note_on,56,45,0
1,note_on,56,0,228
1,note_on,68,0,0
1,note_on,68,55,12
1,note_on,56,46,0
1,note_on,56,0,228
1,note_on,68,0,0
1,note_on,68,56,12
1,note_on,56,47,0
1,note_on,56,0,228
1,note_on,68,0,0
1,note_on,68,57,12
1,note_on,56,48,0
1,note_on,56,0,228
1,note_on,68,0,0
1,note_on,68,59,12
1,note_on,56,49,0
1,note_on,56,0,228
1,note_on,68,0,0
1,note_on,68,60,12
1,note_on,56,50,0
1,note_on,56,0,228
1,note_on,68,0,0
1,note_on,68,61,12
1,note_on,56,51,0
1,note_on,56,0,228
1,note_on,68,0,0
1,note_on,68,61,12
1,note_on,56,51,0
1,note_on,56,0,228
1,note_on,68,0,0
1,note_on,68,59,12
1,note_on,56,49,0
1,note_on,56,0,228
1,note_on,68,0,0
1,note_on,68,59,12
1,note_on,56,49,0
1,note_on,56,0,228
1,note_on,68,0,0
1,note_on,68,59,12
1,note_on,56,49,0
1,note_on,56,0,228
1,note_on,68,0,0
1,note_on,61,67,12
1,note_on,68,61,0
1,note_on,56,52,0
1,note_on,56,0,228
1,note_on,68,0,0
1,note_on,68,60,12
1,note_on,56,50,0
1,note_on,56,0,228
1,note_on,68,0,0
1,note_on,61,0,12
1,note_on,60,59,0
1,note_on,68,58,0
1,note_on,56,48,0
1,note_on,56,0,228
1,note_on,68,0,0
1,note_on,68,58,12
1,note_on,56,48,0
1,note_on,56,0,228
1,note_on,68,0,0
1,note_on,60,0,12
1,note_on,68,64,0
1,note_on,56,55,0
1,note_on,56,0,228
1,note_on,68,0,0
1,note_on,68,61,12
1,note_on,56,51,0
1,note_on,56,0,228
1,note_on,68,0,0
1,note_on,68,61,12
1,note_on,56,51,0
1,note_on,56,0,228
1,note_on,68,0,0
1,note_on,68,61,12
1,note_on,56,51,0
1,note_on,56,0,228
1,note_on,68,0,0
1,note_on,63,71,12
1,note_on,68,66,0
1,note_on,56,56,0
1,note_on,56,0,228
1,note_on,68,0,0
1,note_on,68,61,12
1,note_on,56,51,0
1,note_on,56,0,228
1,note_on,68,0,0
1,note_on,63,0,12
1,note_on,61,68,0
1,note_on,68,61,0
1,note_on,56,51,0
1,note_on,56,0,228
1,note_on,68,0,0
1,note_on,68,61,12
1,note_on,56,51,0
1,note_on,56,0,228
1,note_on,68,0,0
1,note_on,68,74,12
1,note_on,56,62,0
1,note_on,56,0,228
1,note_on,68,0,0
1,note_on,68,68,12
1,note_on,56,57,0
1,note_on,56,0,228
1,note_on,68,0,0
1,note_on,61,0,12
1,note_on,63,73,0
1,note_on,68,68,0
1,note_on,56,57,0
1,note_on,56,0,228
1,note_on,68,0,0
1,note_on,68,68,12
1,note_on,56,57,0
1,note_on,56,0,228
1,note_on,68,0,0
1,note_on,63,0,12
1,note_on,64,78,0
1,note_on,68,69,0
1,note_on,56,58,0
1,note_on,56,0,228
1,note_on,68,0,0
1,note_on,68,68,12
1,note_on,56,57,0
1,note_on,56,0,228
1,note_on,68,0,0
1,note_on,64,0,12
1,note_on,63,73,0
1,note_on,68,68,0
1,note_on,56,57,0
1,note_on,56,0,228
1,note_on,68,0,0
1,note_on,68,68,12
1,note_on,56,57,0
1,note_on,56,0,228
1,note_on,68,0,0
1,note_on,63,0,12
1,note_on,63,74,0
1,note_on,68,79,0
1,note_on,56,67,0
1,note_on,56,0,228
1,note_on,68,0,0
1,note_on,68,74,12
1,note_on,56,62,0
1,note_on,56,0,228
1,note_on,68,0,0
1,note_on,68,77,12
1,note_on,56,63,0
1,note_on,56,0,228
1,note_on,68,0,0
1,note_on,68,78,12
1,note_on,56,64,0
1,note_on,56,0,228
1,note_on,68,0,0
1,note_on,68,79,12
1,note_on,56,66,0
1,note_on,56,0,228
1,note_on,68,0,0
1,note_on,68,78,12
1,note_on,56,66,0
1,note_on,56,0,228
1,note_on,68,0,0
1,note_on,68,79,12
1,note_on,56,67,0
1,note_on,56,0,228
1,note_on,68,0,0
1,note_on,68,80,12
1,note_on,56,68,0
1,note_on,56,0,228
1,note_on,68,0,0
1,note_on,63,0,12
1,note_on,64,88,0
1,note_on,68,92,0
1,note_on,59,74,0
1,note_on,71,88,0
1,note_on,71,0,228
1,note_on,59,0,0
1,note_on,59,70,12
1,note_on,71,83,0
1,note_on,71,0,228
1,note_on,59,0,0
1,note_on,59,70,12
1,note_on,71,83,0
1,note_on,71,0,228
1,note_on,59,0,0
1,note_on,59,66,12
1,note_on,71,79,0
1,note_on,71,0,228
1,note_on,59,0,0
1,note_on,68,0,12
1,note_on,64,0,0
1,note_on,63,88,0
1,note_on,68,92,0
1,note_on,59,74,0
1,note_on,71,88,0
1,note_on,71,0,228
1,note_on,59,0,0
1,note_on,59,70,12
1,note_on,71,83,0
1,note_on,71,0,228
1,note_on,59,0,0
1,note_on,59,70,12
1,note_on,71,83,0
1,note_on,71,0,228
1,note_on,59,0,0
1,note_on,59,66,12
1,note_on,71,79,0
1,note_on,71,0,228
1,note_on,59,0,0
1,note_on,68,0,12
1,note_on,63,0,0
1,note_on,64,88,0
1,note_on,68,92,0
1,note_on,59,74,0
1,note_on,71,88,0
1,note_on,71,0,228
1,note_on,59,0,0
1,note_on,59,70,12
1,note_on,71,83,0
1,note_on,71,0,228
1,note_on,59,0,0
1,note_on,59,70,12
1,note_on,71,83,0
1,note_on,71,0,228
1,note_on,59,0,0
1,note_on,59,66,12
1,note_on,71,79,0
1,note_on,71,0,228
1,note_on,59,0,0
1,note_on,68,0,12
1,note_on,64,0,0
1,note_on,63,88,0
1,note_on,68,92,0
1,note_on,59,74,0
1,note_on,71,88,0
1,note_on,71,0,228
1,note_on,59,0,0
1,note_on,59,70,12
1,note_on,71,83,0
1,note_on,71,0,228
1,note_on,59,0,0
1,note_on,59,70,12
1,note_on,71,83,0
1,note_on,71,0,228
1,note_on,59,0,0
1,note_on,59,70,12
1,note_on,71,83,0
1,note_on,71,0,228
1,note_on,59,0,0
1,note_on,68,0,12
1,note_on,63,0,0
1,note_on,63,88,0
1,note_on,68,92,0
1,note_on,59,74,0
1,note_on,71,88,0
1,note_on,71,0,228
1,note_on,59,0,0
1,note_on,59,70,12
1,note_on,71,83,0
1,note_on,71,0,228
1,note_on,59,0,0
1,note_on,59,70,12
1,note_on,71,83,0
1,note_on,71,0,228
1,note_on,59,0,0
1,note_on,59,66,12
1,note_on,71,79,0
1,note_on,71,0,228
1,note_on,59,0,0
1,note_on,68,0,12
1,note_on,63,0,0
1,note_on,63,88,0
1,note_on,67,92,0
1,note_on,59,74,0
1,note_on,71,88,0
1,note_on,71,0,228
1,note_on,59,0,0
1,note_on,59,70,12
1,note_on,71,83,0
1,note_on,71,0,228
1,note_on,59,0,0
1,note_on,59,70,12
1,note_on,71,83,0
1,note_on,71,0,228
1,note_on,59,0,0
1,note_on,59,66,12
1,note_on,71,79,0
1,note_on,71,0,228
1,note_on,59,0,0
1,note_on,67,0,12
1,note_on,63,0,0
1,note_on,63,74,0
1,note_on,68,74,0
1,note_on,59,62,0
1,note_on,71,88,0
1,note_on,71,0,240
1,note_on,63,0,0
1,note_on,68,0,0
1,note_on,59,0,0
1,note_on,56,63,0
1,note_on,56,0,228
1,note_on,56,57,12
1,note_on,56,0,228
1,note_on,56,49,12
1,note_on,56,0,228
1,note_on,56,46,12
1,note_on,56,0,228
1,note_on,56,42,12
1,note_on,56,0,228
1,note_on,56,39,12
1,note_on,56,0,228
1,note_on,56,36,12
1,note_on,56,0,228
1,note_on,56,35,12
1,note_on,56,0,228
1,note_on,56,33,12
1,note_on,56,0,228
1,note_on,56,33,12
1,note_on,56,0,228
1,note_on,56,33,12
1,note_on,56,0,228
1,note_on,56,35,12
1,note_on,56,0,228
1,note_on,56,33,12
1,note_on,56,0,228
1,note_on,56,31,12
1,note_on,56,0,228
1,note_on,56,31,12
1,note_on,56,0,228
1,note_on,56,39,12
1,note_on,56,0,228
1,note_on,56,36,12
1,note_on,56,0,228
1,note_on,56,37,12
1,note_on,56,0,228
1,note_on,56,37,12
1,note_on,56,0,228
1,note_on,56,45,12
1,note_on,56,0,228
1,note_on,56,38,12
1,note_on,56,0,228
1,note_on,56,35,12
1,note_on,56,0,228
1,note_on,56,36,12
1,note_on,56,0,228
1,note_on,56,49,12
1,note_on,56,0,228
1,note_on,56,42,12
1,note_on,56,0,228
1,note_on,56,42,12
1,note_on,56,0,228
1,note_on,56,42,12
1,note_on,56,0,228
1,note_on,56,49,12
1,note_on,56,0,228
1,note_on,56,40,12
1,note_on,56,0,228
1,note_on,56,39,12
1,note_on,56,0,228
1,note_on,56,39,12
1,note_on,56,0,228
1,note_on,56,49,12
1,note_on,56,0,228
1,note_on,56,40,12
1,note_on,56,0,228
1,note_on,56,42,12
1,note_on,56,0,228
1,note_on,56,41,12
1,note_on,56,0,228
1,note_on,56,42,12
1,note_on,56,0,228
1,note_on,56,41,12
1,note_on,56,0,228
1,note_on,56,40,12
1,note_on,56,0,228
1,note_on,56,40,12
1,note_on,56,0,228
1,note_on,56,44,12
1,note_on,56,0,228
1,note_on,56,39,12
1,note_on,56,0,228
1,note_on,56,39,12
1,note_on,56,0,228
1,note_on,56,37,12
1,note_on,56,0,228
1,note_on,56,41,12
1,note_on,56,0,228
1,note_on,56,37,12
1,note_on,56,0,228
1,note_on,56,35,12
1,note_on,56,0,228
1,note_on,56,35,12
1,note_on,56,0,228
1,note_on,56,40,12
1,note_on,56,0,228
1,note_on,56,35,12
1,note_on,56,0,228
1,note_on,56,35,12
1,note_on,56,0,228
1,note_on,56,31,12
1,note_on,56,0,228
1,note_on,56,38,12
1,note_on,56,0,228
1,note_on,56,35,12
1,note_on,56,0,228
1,note_on,56,35,12
1,note_on,56,0,228
1,note_on,56,33,12
1,note_on,56,0,228
1,note_on,56,38,12
1,note_on,56,0,228
1,note_on,56,40,12
1,note_on,56,0,228
1,note_on,56,41,12
1,note_on,56,0,228
1,note_on,56,44,12
1,note_on,56,0,228
1,note_on,56,46,12
1,note_on,56,0,228
1,note_on,56,48,12
1,note_on,56,0,228
1,note_on,56,49,12
1,note_on,56,0,228
1,note_on,56,51,12
1,note_on,56,0,228
1,note_on,56,53,12
1,note_on,56,0,228
1,note_on,68,53,12
1,note_on,56,45,0
1,note_on,56,0,228
1,note_on,68,0,0
1,note_on,68,55,12
1,note_on,56,46,0
1,note_on,56,0,228
1,note_on,68,0,0
1,note_on,68,56,12
1,note_on,56,47,0
1,note_on,56,0,228
1,note_on,68,0,0
1,note_on,68,57,12
1,note_on,56,48,0
1,note_on,56,0,228
1,note_on,68,0,0
1,note_on,68,59,12
1,note_on,56,49,0
1,note_on,56,0,228
1,note_on,68,0,0
1,note_on,68,60,12
1,note_on,56,50,0
1,note_on,56,0,228
1,note_on,68,0,0
1,note_on,68,61,12
1,note_on,56,51,0
1,note_on,56,0,228
1,note_on,68,0,0
1,note_on,68,61,12
1,note_on,56,51,0
1,note_on,56,0,228
1,note_on,68,0,0
1,note_on,68,59,12
1,note_on,56,49,0
1,note_on,56,0,228
1,note_on,68,0,0
1,note_on,68,59,12
1,note_on,56,49,0
1,note_on,56,0,228
1,note_on,68,0,0
1,note_on,68,59,12
1,note_on,56,49,0
1,note_on,56,0,228
1,note_on,68,0,0
1,note_on,61,67,12
1,note_on,68,61,0
1,note_on,56,52,0
1,note_on,56,0,228
1,note_on,68,0,0
1,note_on,68,60,12
1,note_on,56,50,0
1,note_on,56,0,228
1,note_on,68,0,0
1,note_on,61,0,12
1,note_on,60,59,0
1,note_on,68,58,0
1,note_on,56,48,0
1,note_on,56,0,228
1,note_on,68,0,0
1,note_on,68,58,12
1,note_on,56,48,0
1,note_on,56,0,228
1,note_on,68,0,0
1,note_on,60,0,12
1,note_on,68,64,0
1,note_on,56,55,0
1,note_on,56,0,228
1,note_on,68,0,0
1,note_on,68,61,12
1,note_on,56,51,0
1,note_on,56,0,228
1,note_on,68,0,0
1,note_on,68,61,12
1,note_on,56,51,0
1,note_on,56,0,228
1,note_on,68,0,0
1,note_on,68,61,12
1,note_on,56,51,0
1,note_on,56,0,228
1,note_on,68,0,0
1,note_on,63,71,12
1,note_on,68,66,0
1,note_on,56,56,0
1,note_on,56,0,228
1,note_on,68,0,0
1,note_on,68,61,12
1,note_on,56,51,0
1,note_on,56,0,228
1,note_on,68,0,0
1,note_on,63,0,12
1,note_on,61,68,0
1,note_on,68,61,0
1,note_on,56,51,0
1,note_on,56,0,228
1,note_on,68,0,0
1,note_on,68,61,12
1,note_on,56,51,0
1,note_on,56,0,228
1,note_on,68,0,0
1,note_on,68,74,12
1,note_on,56,62,0
1,note_on,56,0,228
1,note_on,68,0,0
1,note_on,68,68,12
1,note_on,56,57,0
1,note_on,56,0,228
1,note_on,68,0,0
1,note_on,61,0,12
1,note_on,63,73,0
1,note_on,68,68,0
1,note_on,56,57,0
1,note_on,56,0,228
1,note_on,68,0,0
1,note_on,68,68,12
1,note_on,56,57,0
1,note_on,56,0,228
1,note_on,68,0,0
1,note_on,63,0,12
1,note_on,64,78,0
1,note_on,68,69,0
1,note_on,56,58,0
1,note_on,56,0,228
1,note_on,68,0,0
1,note_on,68,68,12
1,note_on,56,57,0
1,note_on,56,0,228
1,note_on,68,0,0
1,note_on,64,0,12
1,note_on,63,73,0
1,note_on,68,68,0
1,note_on,56,57,0
1,note_on,56,0,228
1,note_on,68,0,0
1,note_on,68,68,12
1,note_on,56,57,0
1,note_on,56,0,228
1,note_on,68,0,0
1,note_on,63,0,12
1,note_on,63,74,0
1,note_on,68,79,0
1,note_on,56,67,0
1,note_on,56,0,228
1,note_on,68,0,0
1,note_on,68,74,12
1,note_on,56,62,0
1,note_on,56,0,228
1,note_on,68,0,0
1,note_on,68,77,12
1,note_on,56,63,0
1,note_on,56,0,228
1,note_on,68,0,0
1,note_on,68,78,12
1,note_on,56,64,0
1,note_on,56,0,228
1,note_on,68,0,0
1,note_on,68,79,12
1,note_on,56,66,0
1,note_on,56,0,228
1,note_on,68,0,0
1,note_on,68,78,12
1,note_on,56,66,0
1,note_on,56,0,228
1,note_on,68,0,0
1,note_on,68,79,12
1,note_on,56,67,0
1,note_on,56,0,228
1,note_on,68,0,0
1,note_on,68,80,12
1,note_on,56,68,0
1,note_on,56,0,228
1,note_on,68,0,0
1,note_on,63,0,12
1,note_on,64,88,0
1,note_on,68,92,0
1,note_on,59,74,0
1,note_on,71,88,0
1,note_on,71,0,228
1,note_on,59,0,0
1,note_on,59,70,12
1,note_on,71,83,0
1,note_on,71,0,228
1,note_on,59,0,0
1,note_on,59,70,12
1,note_on,71,83,0
1,note_on,71,0,228
1,note_on,59,0,0
1,note_on,59,66,12
1,note_on,71,79,0
1,note_on,71,0,228
1,note_on,59,0,0
1,note_on,68,0,12
1,note_on,64,0,0
1,note_on,63,88,0
1,note_on,68,92,0
1,note_on,59,74,0
1,note_on,71,88,0
1,note_on,71,0,228
1,note_on,59,0,0
1,note_on,59,70,12
1,note_on,71,83,0
1,note_on,71,0,228
1,note_on,59,0,0
1,note_on,59,70,12
1,note_on,71,83,0
1,note_on,71,0,228
1,note_on,59,0,0
1,note_on,59,66,12
1,note_on,71,79,0
1,note_on,71,0,228
1,note_on,59,0,0
1,note_on,68,0,12
1,note_on,63,0,0
1,note_on,64,88,0
1,note_on,68,92,0
1,note_on,59,74,0
1,note_on,71,88,0
1,note_on,71,0,228
1,note_on,59,0,0
1,note_on,59,70,12
1,note_on,71,83,0
1,note_on,71,0,228
1,note_on,59,0,0
1,note_on,59,70,12
1,note_on,71,83,0
1,note_on,71,0,228
1,note_on,59,0,0
1,note_on,59,66,12
1,note_on,71,79,0
1,note_on,71,0,228
1,note_on,59,0,0
1,note_on,68,0,12
1,note_on,64,0,0
1,note_on,63,88,0
1,note_on,68,92,0
1,note_on,59,74,0
1,note_on,71,88,0
1,note_on,71,0,228
1,note_on,59,0,0
1,note_on,59,70,12
1,note_on,71,83,0
1,note_on,71,0,228
1,note_on,59,0,0
1,note_on,59,70,12
1,note_on,71,83,0
1,note_on,71,0,228
1,note_on,59,0,0
1,note_on,59,70,12
1,note_on,71,83,0
1,note_on,71,0,228
1,note_on,59,0,0
1,note_on,68,0,12
1,note_on,63,0,0
1,note_on,63,88,0
1,note_on,68,92,0
1,note_on,59,74,0
1,note_on,71,88,0
1,note_on,71,0,228
1,note_on,59,0,0
1,note_on,59,70,12
1,note_on,71,83,0
1,note_on,71,0,228
1,note_on,59,0,0
1,note_on,59,70,12
1,note_on,71,83,0
1,note_on,71,0,228
1,note_on,59,0,0
1,note_on,59,66,12
1,note_on,71,79,0
1,note_on,71,0,228
1,note_on,59,0,0
1,note_on,68,0,12
1,note_on,63,0,0
1,note_on,63,88,0
1,note_on,67,92,0
1,note_on,59,74,0
1,note_on,71,88,0
1,note_on,71,0,228
1,note_on,59,0,0
1,note_on,59,70,12
1,note_on,71,83,0
1,note_on,71,0,228
1,note_on,59,0,0
1,note_on,59,70,12
1,note_on,71,83,0
1,note_on,71,0,228
1,note_on,59,0,0
1,note_on,59,66,12
1,note_on,71,79,0
1,note_on,71,0,228
1,note_on,59,0,0
1,note_on,67,0,12
1,note_on,63,0,0
1,note_on,63,74,0
1,note_on,68,74,0
1,note_on,59,62,0
1,note_on,71,88,0
1,note_on,71,0,240
1,note_on,63,0,0
1,note_on,68,0,0
1,note_on,59,0,0
1,note_on,68,63,0
1,note_on,68,0,228
1,note_on,68,57,12
1,note_on,68,0,228
1,note_on,68,55,12
1,note_on,68,0,228
1,note_on,68,52,12
1,note_on,68,0,228
1,note_on,68,50,12
1,note_on,68,0,228
1,note_on,68,48,12
1,note_on,68,0,228
1,note_on,68,48,12
1,note_on,68,0,228
1,note_on,68,44,12
1,note_on,60,47,0
1,note_on,72,56,0
1,note_on,68,0,228
1,note_on,68,44,12
1,note_on,68,0,228
1,note_on,68,44,12
1,note_on,68,0,228
1,note_on,68,44,12
1,note_on,68,0,228
1,note_on,72,0,12
1,note_on,60,0,0
1,note_on,68,46,0
1,note_on,61,50,0
1,note_on,73,59,0
1,note_on,68,0,228
1,note_on,68,46,12
1,note_on,68,0,228
1,note_on,68,46,12
1,note_on,68,0,228
1,note_on,68,46,12
1,note_on,68,0,228
1,note_on,73,0,12
1,note_on,61,0,0
1,note_on,68,46,0
1,note_on,63,51,0
1,note_on,73,61,0
1,note_on,75,61,0
1,note_on,68,0,228
1,note_on,68,46,12
1,note_on,68,0,228
1,note_on,68,46,12
1,note_on,68,0,228
1,note_on,68,46,12
1,note_on,68,0,228
1,note_on,68,46,12
1,note_on,68,0,228
1,note_on,68,47,12
1,note_on,68,0,228
1,note_on,75,0,12
1,note_on,73,0,0
1,note_on,63,0,0
1,note_on,68,47,0
1,note_on,63,51,0
1,note_on,72,60,0
1,note_on,75,60,0
1,note_on,68,0,228
1,note_on,68,48,12
1,note_on,68,0,228
1,note_on,75,0,12
1,note_on,72,0,0
1,note_on,63,0,0
1,note_on,68,48,0
1,note_on,64,53,0
1,note_on,75,63,0
1,note_on,76,63,0
1,note_on,68,0,228
1,note_on,68,48,12
1,note_on,68,0,228
1,note_on,76,0,12
1,note_on,75,0,0
1,note_on,64,0,0
1,note_on,68,48,0
1,note_on,64,49,0
1,note_on,73,59,0
1,note_on,76,59,0
1,note_on,68,0,228
1,note_on,68,48,12
1,note_on,68,0,228
1,note_on,76,0,12
1,note_on,73,0,0
1,note_on,64,0,0
1,note_on,68,46,0
1,note_on,63,51,0
1,note_on,73,61,0
1,note_on,75,61,0
1,note_on,68,0,228
1,note_on,68,46,12
1,note_on,68,0,228
1,note_on,75,0,12
1,note_on,73,0,0
1,note_on,63,0,0
1,note_on,68,46,0
1,note_on,63,46,0
1,note_on,72,55,0
1,note_on,75,55,0
1,note_on,68,0,228
1,note_on,68,46,12
1,note_on,68,0,228
1,note_on,75,0,12
1,note_on,72,0,0
1,note_on,63,0,0
1,note_on,68,46,0
1,note_on,61,51,0
1,note_on,73,59,0
1,note_on,68,0,228
1,note_on,68,46,12
1,note_on,68,0,228
1,note_on,66,45,12
1,note_on,66,0,228
1,note_on,66,41,12
1,note_on,66,0,228
1,note_on,68,45,12
1,note_on,68,0,228
1,note_on,68,41,12
1,note_on,68,0,228
1,note_on,69,44,12
1,note_on,69,0,228
1,note_on,69,40,12
1,note_on,69,0,228
1,note_on,73,0,12
1,note_on,61,0,0
1,note_on,56,39,0
1,note_on,60,47,0
1,note_on,63,56,0
1,note_on,68,47,0
1,note_on,56,0,228
1,note_on,56,39,12
1,note_on,56,0,228
1,note_on,56,39,12
1,note_on,56,0,228
1,note_on,56,39,12
1,note_on,56,0,228
1,note_on,68,0,12
1,note_on,63,0,0
1,note_on,60,0,0
1,note_on,56,38,0
1,note_on,61,46,0
1,note_on,64,55,0
1,note_on,68,46,0
1,note_on,56,0,228
1,note_on,56,38,12
1,note_on,56,0,228
1,note_on,68,0,12
1,note_on,64,0,0
1,note_on,61,0,0
1,note_on,56,38,0
1,note_on,58,46,0
1,note_on,61,55,0
1,note_on,68,46,0
1,note_on,56,0,228
1,note_on,56,38,12
1,note_on,56,0,228
1,note_on,68,0,12
1,note_on,61,0,0
1,note_on,58,0,0
1,note_on,56,39,0
1,note_on,60,47,0
1,note_on,63,56,0
1,note_on,68,47,0
1,note_on,56,0,228
1,note_on,56,39,12
1,note_on,56,0,228
1,note_on,68,0,12
1,note_on,63,0,0
1,note_on,60,0,0
1,note_on,56,38,0
1,note_on,61,46,0
1,note_on,64,55,0
1,note_on,68,46,0
1,note_on,56,0,228
1,note_on,56,38,12
1,note_on,56,0,228
1,note_on,68,0,12
1,note_on,64,0,0
1,note_on,61,0,0
1,note_on,56,38,0
1,note_on,58,46,0
1,note_on,61,55,0
1,note_on,68,46,0
1,note_on,56,0,228
1,note_on,56,38,12
1,note_on,56,0,228
1,note_on,68,0,12
1,note_on,61,0,0
1,note_on,58,0,0
1,note_on,56,38,0
1,note_on,61,46,0
1,note_on,64,55,0
1,note_on,68,46,0
1,note_on,56,0,228
1,note_on,56,38,12
1,note_on,56,0,228
1,note_on,68,0,12
1,note_on,64,0,0
1,note_on,61,0,0
1,note_on,56,42,0
1,note_on,61,50,0
1,note_on,64,60,0
1,note_on,68,50,0
1,note_on,56,0,228
1,note_on,56,42,12
1,note_on,56,0,228
1,note_on,68,0,12
1,note_on,64,0,0
1,note_on,61,0,0
1,note_on,56,39,0
1,note_on,60,47,0
1,note_on,63,56,0
1,note_on,68,47,0
1,note_on,56,0,228
1,note_on,56,39,12
1,note_on,56,0,228
1,note_on,68,0,12
1,note_on,63,0,0
1,note_on,60,0,0
1,note_on,56,41,0
1,note_on,63,49,0
1,note_on,66,58,0
1,note_on,68,49,0
1,note_on,56,0,228
1,note_on,56,41,12
1,note_on,56,0,228
1,note_on,68,0,12
1,note_on,66,0,0
1,note_on,63,0,0
1,note_on,56,39,0
1,note_on,61,47,0
1,note_on,64,56,0
1,note_on,68,47,0
1,note_on,56,0,228
1,note_on,56,39,12
1,note_on,56,0,228
1,note_on,68,0,12
1,note_on,64,0,0
1,note_on,61,0,0
1,note_on,56,39,0
1,note_on,60,47,0
1,note_on,63,56,0
1,note_on,68,47,0
1,note_on,56,0,228
1,note_on,56,39,12
1,note_on,56,0,228
1,note_on,56,39,12
1,note_on,56,0,228
1,note_on,56,39,12
1,note_on,56,0,228
1,note_on,56,39,12
1,note_on,56,0,228
1,note_on,56,39,12
1,note_on,56,0,228
1,note_on,56,39,12
1,note_on,56,0,228
1,note_on,56,39,12
1,note_on,56,0,228
1,note_on,68,0,12
1,note_on,63,0,0
1,note_on,60,0,0
1,note_on,63,51,0
1,note_on,68,48,0
1,note_on,60,51,0
1,note_on,72,61,0
1,note_on,68,0,228
1,note_on,68,53,12
1,note_on,68,0,228
1,note_on,68,57,12
1,note_on,68,0,228
1,note_on,68,57,12
1,note_on,68,0,228
1,note_on,72,0,12
1,note_on,60,0,0
1,note_on,63,0,0
1,note_on,68,53,0
1,note_on,61,58,0
1,note_on,73,69,0
1,note_on,68,0,228
1,note_on,68,58,12
1,note_on,68,0,228
1,note_on,68,59,12
1,note_on,68,0,228
1,note_on,68,61,12
1,note_on,68,0,228
1,note_on,73,0,12
1,note_on,61,0,0
1,note_on,68,57,0
1,note_on,63,63,0
1,note_on,73,77,0
1,note_on,75,77,0
1,note_on,68,0,228
1,note_on,68,66,12
1,note_on,68,0,228
1,note_on,68,68,12
1,note_on,68,0,228
1,note_on,68,69,12
1,note_on,68,0,228
1,note_on,68,71,12
1,note_on,68,0,228
1,note_on,68,73,12
1,note_on,68,0,228
1,note_on,75,0,12
1,note_on,73,0,0
1,note_on,63,0,0
1,note_on,68,63,0
1,note_on,63,69,0
1,note_on,72,81,0
1,note_on,75,81,0
1,note_on,68,0,228
1,note_on,68,73,12
1,note_on,68,0,228
1,note_on,75,0,12
1,note_on,72,0,0
1,note_on,63,0,0
1,note_on,68,67,0
1,note_on,64,74,0
1,note_on,75,89,0
1,note_on,76,89,0
1,note_on,68,0,228
1,note_on,68,67,12
1,note_on,68,0,228
1,note_on,76,0,12
1,note_on,75,0,0
1,note_on,64,0,0
1,note_on,68,67,0
1,note_on,64,69,0
1,note_on,73,82,0
1,note_on,76,82,0
1,note_on,68,0,228
1,note_on,68,67,12
1,note_on,68,0,228
1,note_on,76,0,12
1,note_on,73,0,0
1,note_on,64,0,0
1,note_on,68,63,0
1,note_on,63,71,0
1,note_on,73,85,0
1,note_on,75,85,0
1,note_on,68,0,228
1,note_on,68,63,12
1,note_on,68,0,228
1,note_on,75,0,12
1,note_on,73,0,0
1,note_on,63,0,0
1,note_on,68,63,0
1,note_on,63,63,0
1,note_on,72,77,0
1,note_on,75,77,0
1,note_on,68,0,228
1,note_on,68,63,12
1,note_on,68,0,228
1,note_on,75,0,12
1,note_on,72,0,0
1,note_on,63,0,0
1,note_on,71,67,0
1,note_on,68,67,0
1,note_on,61,59,0
1,note_on,73,77,0
1,note_on,61,0,228
1,note_on,61,59,12
1,note_on,61,0,228
1,note_on,61,58,12
1,note_on,61,0,228
1,note_on,61,58,12
1,note_on,61,0,228
1,note_on,73,0,12
1,note_on,68,0,0
1,note_on,71,0,0
1,note_on,68,62,0
1,note_on,69,62,0
1,note_on,73,72,0
1,note_on,61,55,0
1,note_on,61,0,228
1,note_on,61,53,12
1,note_on,61,0,228
1,note_on,73,0,12
1,note_on,69,0,0
1,note_on,68,0,0
1,note_on,66,62,0
1,note_on,69,62,0
1,note_on,73,72,0
1,note_on,61,53,0
1,note_on,61,0,228
1,note_on,61,53,12
1,note_on,61,0,228
1,note_on,73,0,12
1,note_on,69,0,0
1,note_on,66,0,0
1,note_on,56,47,0
1,note_on,63,56,0
1,note_on,66,56,0
1,note_on,68,67,0
1,note_on,56,0,228
1,note_on,56,47,12
1,note_on,56,0,228
1,note_on,56,47,12
1,note_on,56,0,228
1,note_on,56,48,12
1,note_on,56,0,228
1,note_on,68,0,12
1,note_on,66,0,0
1,note_on,63,0,0
1,note_on,56,47,0
1,note_on,61,48,0
1,note_on,66,57,0
1,note_on,68,68,0
1,note_on,56,0,228
1,note_on,56,48,12
1,note_on,56,0,228
1,note_on,68,0,12
1,note_on,66,0,0
1,note_on,61,0,0
1,note_on,56,48,0
1,note_on,61,49,0
1,note_on,64,58,0
1,note_on,70,69,0
1,note_on,56,0,228
1,note_on,56,48,12
1,note_on,56,0,228
1,note_on,70,0,12
1,note_on,64,0,0
1,note_on,61,0,0
1,note_on,56,50,0
1,note_on,61,51,0
1,note_on,64,60,0
1,note_on,70,69,0
1,note_on,56,0,228
1,note_on,56,50,12
1,note_on,56,0,228
1,note_on,56,48,12
1,note_on,56,0,228
1,note_on,56,48,12
1,note_on,56,0,228
1,note_on,70,0,12
1,note_on,64,0,0
1,note_on,61,0,0
1,note_on,56,47,0
1,note_on,60,50,0
1,note_on,63,57,0
1,note_on,68,68,0
1,note_on,56,0,228
1,note_on,56,47,12
1,note_on,56,0,228
1,note_on,68,0,12
1,note_on,63,0,0
1,note_on,60,0,0
1,note_on,56,47,0
1,note_on,61,47,0
1,note_on,64,56,0
1,note_on,70,67,0
1,note_on,56,0,228
1,note_on,56,46,12
1,note_on,56,0,228
1,note_on,70,0,12
1,note_on,64,0,0
1,note_on,61,0,0
1,note_on,56,47,0
1,note_on,61,47,0
1,note_on,64,56,0
1,note_on,70,67,0
1,note_on,56,0,228
1,note_on,56,46,12
1,note_on,56,0,228
1,note_on,56,44,12
1,note_on,56,0,228
1,note_on,56,42,12
1,note_on,56,0,228
1,note_on,70,0,12
1,note_on,64,0,0
1,note_on,61,0,0
1,note_on,56,41,0
1,note_on,60,44,0
1,note_on,63,50,0
1,note_on,68,60,0
1,note_on,56,0,228
1,note_on,56,40,12
1,note_on,56,0,228
1,note_on,68,0,12
1,note_on,63,0,0
1,note_on,60,0,0
1,note_on,56,39,0
1,note_on,61,48,0
1,note_on,64,48,0
1,note_on,70,57,0
1,note_on,56,0,228
1,note_on,56,39,12
1,note_on,56,0,228
1,note_on,70,0,12
1,note_on,64,0,0
1,note_on,61,0,0
1,note_on,56,38,0
1,note_on,61,46,0
1,note_on,64,46,0
1,note_on,70,55,0
1,note_on,56,0,228
1,note_on,56,38,12
1,note_on,56,0,228
1,note_on,70,0,12
1,note_on,64,0,0
1,note_on,61,0,0
1,note_on,56,34,0
1,note_on,60,40,0
1,note_on,63,40,0
1,note_on,68,49,0
1,note_on,56,0,228
1,note_on,56,34,12
1,note_on,56,0,228
1,note_on,68,0,12
1,note_on,63,0,0
1,note_on,60,0,0
1,note_on,56,37,0
1,note_on,56,0,228
1,note_on,56,37,12
1,note_on,56,0,228
1,note_on,56,40,12
1,note_on,56,0,228
1,note_on,56,37,12
1,note_on,56,0,228
1,note_on,77,53,12
1,note_on,77,0,360
1,note_on,73,45,0
1,note_on,73,0,120
1,note_on,68,51,0
1,note_on,68,0,960
1,note_on,70,50,0
1,note_on,70,0,480
1,note_on,72,51,0
1,note_on,72,0,1440
1,note_on,73,51,0
1,note_on,73,0,480
1,note_on,60,45,0
1,note_on,66,45,0
1,note_on,75,54,0
1,note_on,75,0,360
1,note_on,66,0,0
1,note_on,68,47,0
1,note_on,77,56,0
1,note_on,77,0,120
1,note_on,68,0,0
1,note_on,70,49,0
1,note_on,78,57,0
1,note_on,78,0,960
1,note_on,70,0,0
1,note_on,60,0,0
1,note_on,61,44,0
1,note_on,68,44,0
1,note_on,77,53,0
1,note_on,68,0,240
1,note_on,61,0,0
1,note_on,77,0,240
1,note_on,60,44,0
1,note_on,68,44,0
1,note_on,77,53,0
1,note_on,68,0,240
1,note_on,66,34,240
1,note_on,66,0,240
1,note_on,77,0,0
1,note_on,75,49,0
1,note_on,75,0,240
1,note_on,60,0,0
1,note_on,73,46,0
1,note_on,73,0,360
1,note_on,74,45,0
1,note_on,74,0,120
1,note_on,75,51,0
1,note_on,75,0,48
1,note_on,77,45,0
1,note_on,77,0,48
1,note_on,75,46,0
1,note_on,75,0,48
1,note_on,74,44,0
1,note_on,74,0,48
1,note_on,75,45,0
1,note_on,75,0,48
1,note_on,76,46,0
1,note_on,76,0,48
1,note_on,77,51,0
1,note_on,77,0,48
1,note_on,80,55,0
1,note_on,80,0,48
1,note_on,79,53,0
1,note_on,79,0,48
1,note_on,78,51,0
1,note_on,78,0,48
1,note_on,77,49,0
1,note_on,77,0,360
1,note_on,73,44,0
1,note_on,73,0,120
1,note_on,68,46,0
1,note_on,68,0,960
1,note_on,70,51,0
1,note_on,70,0,480
1,note_on,72,49,0
1,note_on,72,0,1440
1,note_on,82,63,0
1,note_on,82,0,960
1,note_on,80,55,0
1,note_on,80,0,480
1,note_on,78,54,0
1,note_on,78,0,480
1,note_on,72,47,0
1,note_on,72,0,480
1,note_on,77,53,0
1,note_on,77,0,480
1,note_on,75,50,0
1,note_on,75,0,480
1,note_on,73,46,0
1,note_on,73,0,480
1,note_on,70,44,0
1,note_on,70,0,480
1,note_on,58,37,0
1,note_on,63,37,0
1,note_on,66,37,0
1,note_on,58,0,960
1,note_on,60,37,0
1,note_on,60,0,960
1,note_on,66,0,0
1,note_on,63,0,0
1,note_on,61,37,0
1,note_on,65,37,0
1,note_on,61,0,1200
1,note_on,61,41,0
1,note_on,61,0,240
1,note_on,63,44,0
1,note_on,63,0,360
1,note_on,61,41,0
1,note_on,61,0,120
1,note_on,65,0,0
1,note_on,61,45,0
1,note_on,63,34,0
1,note_on,66,39,0
1,note_on,61,0,480
1,note_on,60,44,0
1,note_on,60,0,480
1,note_on,70,46,0
1,note_on,70,0,480
1,note_on,60,40,0
1,note_on,60,0,480
1,note_on,66,0,0
1,note_on,63,0,0
1,note_on,60,31,0
1,note_on,63,31,0
1,note_on,66,37,0
1,note_on,66,0,1920
1,note_on,63,0,0
1,note_on,60,0,0
1,note_on,61,27,0
1,note_on,65,34,0
1,note_on,65,0,1920
1,note_on,61,0,0
1,note_on,56,23,0
1,note_on,61,23,0
1,note_on,65,27,0
1,note_on,65,0,1920
1,note_on,61,0,0
1,note_on,56,0,0
2,note_on,49,35,0
2,note_on,49,0,169
2,note_on,56,24,0
2,note_on,56,0,240
2,note_on,65,22,0
2,note_on,61,17,0
2,note_on,56,21,162
2,note_on,56,0,228
2,note_on,56,23,12
2,note_on,56,0,228
2,note_on,56,19,12
2,note_on,56,0,228
2,note_on,61,0,12
2,note_on,65,0,0
2,note_on,65,27,0
2,note_on,61,21,0
2,note_on,61,0,127
2,note_on,65,0,0
2,note_on,56,24,0
2,note_on,56,0,240
2,note_on,66,35,0
2,note_on,63,35,0
2,note_on,56,26,84
2,note_on,56,0,228
2,note_on,56,28,12
2,note_on,56,0,228
2,note_on,56,32,12
2,note_on,56,0,228
2,note_on,58,35,12
2,note_on,58,0,231
2,note_on,56,32,0
2,note_on,56,0,240
2,note_on,63,0,0
2,note_on,66,0,0
2,note_on,65,35,0
2,note_on,61,35,0
2,note_on,61,0,126
2,note_on,65,0,0
2,note_on,56,31,0
2,note_on,56,0,240
2,note_on,56,32,134
2,note_on,56,0,92
2,note_on,56,35,0
2,note_on,56,0,228
2,note_on,56,32,12
2,note_on,56,0,228
2,note_on,56,32,12
2,note_on,56,0,127
2,note_on,56,29,0
2,note_on,56,0,240
2,note_on,56,26,71
2,note_on,56,0,240
2,note_on,56,27,148
2,note_on,56,0,240
2,note_on,65,31,0
2,note_on,61,26,0
2,note_on,61,0,169
2,note_on,65,0,0
2,note_on,56,27,0
2,note_on,56,0,236
2,note_on,66,32,0
2,note_on,60,27,0
2,note_on,60,0,240
2,note_on,66,0,0
2,note_on,56,31,0
2,note_on,56,0,240
2,note_on,49,35,0
2,note_on,49,0,141
2,note_on,56,30,0
2,note_on,56,0,240
2,note_on,65,22,0
2,note_on,61,18,0
2,note_on,56,21,106
2,note_on,56,0,228
2,note_on,56,24,12
2,note_on,56,0,228
2,note_on,56,21,12
2,note_on,56,0,228
2,note_on,56,32,12
2,note_on,56,0,115
2,note_on,56,28,12
2,note_on,56,0,228
2,note_on,61,0,12
2,note_on,65,0,0
2,note_on,66,35,0
2,note_on,63,35,0
2,note_on,56,31,42
2,note_on,56,0,228
2,note_on,56,29,12
2,note_on,56,0,228
2,note_on,56,32,12
2,note_on,56,0,228
2,note_on,58,35,12
2,note_on,58,0,231
2,note_on,56,32,0
2,note_on,56,0,240
2,note_on,63,0,0
2,note_on,66,0,0
2,note_on,65,35,0
2,note_on,61,35,0
2,note_on,61,0,126
2,note_on,65,0,0
2,note_on,56,31,0
2,note_on,56,0,240
2,note_on,56,32,134
2,note_on,56,0,92
2,note_on,56,35,0
2,note_on,56,0,228
2,note_on,56,32,12
2,note_on,56,0,228
2,note_on,56,32,12
2,note_on,56,0,106
2,note_on,56,29,0
2,note_on,56,0,240
2,note_on,56,31,71
2,note_on,56,0,240
2,note_on,56,31,42
2,note_on,56,0,240
2,note_on,65,35,0
2,note_on,61,29,0
2,note_on,61,0,99
2,note_on,65,0,0
2,note_on,56,24,0
2,note_on,56,0,240
2,note_on,65,33,0
2,note_on,61,27,0
2,note_on,61,0,235
2,note_on,65,0,0
2,note_on,56,30,0
2,note_on,56,0,240
2,note_on,44,39,0
2,note_on,44,0,171
2,note_on,56,32,0
2,note_on,56,0,240
2,note_on,63,30,0
2,note_on,60,30,0
2,note_on,60,0,240
2,note_on,63,0,0
2,note_on,56,25,0
2,note_on,56,0,240
2,note_on,59,30,0
2,note_on,63,30,0
2,note_on,63,0,91
2,note_on,59,0,0
2,note_on,56,32,0
2,note_on,56,0,240
2,note_on,49,31,0
2,note_on,59,36,0
2,note_on,65,36,0
2,note_on,65,0,91
2,note_on,59,0,0
2,note_on,49,0,0
2,note_on,61,33,0
2,note_on,61,0,240
2,note_on,54,33,0
2,note_on,58,39,0
2,note_on,58,0,70
2,note_on,54,0,0
2,note_on,61,33,0
2,note_on,61,0,240
2,note_on,58,26,0
2,note_on,66,31,0
2,note_on,66,0,113
2,note_on,58,0,0
2,note_on,61,25,0
2,note_on,61,0,240
2,note_on,49,36,0
2,note_on,49,0,70
2,note_on,56,32,0
2,note_on,56,0,240
2,note_on,65,34,0
2,note_on,61,27,0
2,note_on,61,0,240
2,note_on,65,0,0
2,note_on,56,27,0
2,note_on,56,0,240
2,note_on,51,39,0
2,note_on,51,0,141
2,note_on,56,30,0
2,note_on,56,0,240
2,note_on,63,31,0
2,note_on,59,31,0
2,note_on,59,0,184
2,note_on,63,0,0
2,note_on,56,31,0
2,note_on,56,0,240
2,note_on,51,39,0
2,note_on,51,0,176
2,note_on,55,34,0
2,note_on,55,0,240
2,note_on,63,34,0
2,note_on,61,27,0
2,note_on,61,0,167
2,note_on,63,0,0
2,note_on,55,29,0
2,note_on,55,0,240
2,note_on,44,39,0
2,note_on,44,0,126
2,note_on,56,30,0
2,note_on,56,0,240
2,note_on,63,37,0
2,note_on,59,32,0
2,note_on,59,0,240
2,note_on,63,0,0
2,note_on,56,31,0
2,note_on,56,0,240
2,note_on,61,36,0
2,note_on,58,30,0
2,note_on,58,0,91
2,note_on,61,0,0
2,note_on,56,29,0
2,note_on,56,0,240
2,note_on,64,36,0
2,note_on,61,30,0
2,note_on,61,0,91
2,note_on,64,0,0
2,note_on,56,34,0
2,note_on,56,0,240
2,note_on,44,43,0
2,note_on,44,0,69
2,note_on,56,37,0
2,note_on,56,0,240
2,note_on,63,37,0
2,note_on,59,32,0
2,note_on,56,39,240
2,note_on,56,0,228
2,note_on,56,43,12
2,note_on,56,0,228
2,note_on,56,40,12
2,note_on,56,0,228
2,note_on,59,0,12
2,note_on,63,0,0
2,note_on,65,46,0
2,note_on,59,39,0
2,note_on,59,0,28
2,note_on,65,0,0
2,note_on,56,44,0
2,note_on,56,0,240
2,note_on,51,50,0
2,note_on,51,0,113
2,note_on,54,36,0
2,note_on,54,0,240
2,note_on,66,43,0
2,note_on,58,36,0
2,note_on,58,0,113
2,note_on,66,0,0
2,note_on,54,32,0
2,note_on,54,0,240
2,note_on,46,47,0
2,note_on,46,0,28
2,note_on,53,36,0
2,note_on,53,0,240
2,note_on,65,36,0
2,note_on,61,30,0
2,note_on,58,30,0
2,note_on,58,0,240
2,note_on,61,0,0
2,note_on,65,0,0
2,note_on,53,31,0
2,note_on,53,0,240
2,note_on,41,43,0
2,note_on,41,0,182
2,note_on,53,35,0
2,note_on,53,0,240
2,note_on,65,36,0
2,note_on,61,30,0
2,note_on,58,30,0
2,note_on,58,0,141
2,note_on,61,0,0
2,note_on,65,0,0
2,note_on,53,29,0
2,note_on,53,0,240
2,note_on,41,43,0
2,note_on,41,0,166
2,note_on,53,33,0
2,note_on,53,0,240
2,note_on,65,37,0
2,note_on,63,29,0
2,note_on,57,27,0
2,note_on,57,0,174
2,note_on,63,0,0
2,note_on,65,0,0
2,note_on,53,30,0
2,note_on,53,0,240
2,note_on,46,43,0
2,note_on,46,0,84
2,note_on,53,37,0
2,note_on,53,0,240
2,note_on,65,44,0
2,note_on,61,36,0
2,note_on,61,0,85
2,note_on,65,0,0
2,note_on,53,39,0
2,note_on,53,0,240
2,note_on,63,43,0
2,note_on,60,36,0
2,note_on,60,0,85
2,note_on,63,0,0
2,note_on,53,37,0
2,note_on,53,0,240
2,note_on,66,43,0
2,note_on,63,36,0
2,note_on,63,0,127
2,note_on,66,0,0
2,note_on,53,36,0
2,note_on,53,0,240
2,note_on,65,43,0
2,note_on,61,36,0
2,note_on,61,0,196
2,note_on,65,0,0
2,note_on,53,34,0
2,note_on,53,0,240
2,note_on,65,36,0
2,note_on,61,25,0
2,note_on,58,25,0
2,note_on,58,0,169
2,note_on,61,0,0
2,note_on,65,0,0
2,note_on,53,31,0
2,note_on,53,0,240
2,note_on,63,43,0
2,note_on,57,36,0
2,note_on,57,0,141
2,note_on,63,0,0
2,note_on,53,37,0
2,note_on,53,0,240
2,note_on,63,30,0
2,note_on,65,37,0
2,note_on,65,0,127
2,note_on,63,0,0
2,note_on,53,39,0
2,note_on,53,0,240
2,note_on,46,43,0
2,note_on,46,0,84
2,note_on,53,37,0
2,note_on,53,0,240
2,note_on,63,45,0
2,note_on,60,37,0
2,note_on,60,0,99
2,note_on,63,0,0
2,note_on,53,39,0
2,note_on,53,0,240
2,note_on,65,50,0
2,note_on,61,41,0
2,note_on,61,0,113
2,note_on,65,0,0
2,note_on,53,43,0
2,note_on,53,0,240
2,note_on,63,51,0
2,note_on,60,43,0
2,note_on,60,0,113
2,note_on,63,0,0
2,note_on,53,43,0
2,note_on,53,0,240
2,note_on,65,53,0
2,note_on,61,44,0
2,note_on,53,39,127
2,note_on,53,0,240
2,note_on,53,39,0
2,note_on,53,0,240
2,note_on,53,39,0
2,note_on,53,0,240
2,note_on,61,0,0
2,note_on,65,0,0
2,note_on,65,43,0
2,note_on,61,35,0
2,note_on,61,0,141
2,note_on,65,0,0
2,note_on,54,36,0
2,note_on,63,37,240
2,note_on,60,32,0
2,note_on,60,0,127
2,note_on,63,0,0
2,note_on,54,0,0
2,note_on,56,27,0
2,note_on,56,0,240
2,note_on,49,35,0
2,note_on,49,0,134
2,note_on,56,30,0
2,note_on,56,0,240
2,note_on,65,27,0
2,note_on,61,17,0
2,note_on,56,23,162
2,note_on,56,0,240
2,note_on,56,23,0
2,note_on,56,0,240
2,note_on,56,19,0
2,note_on,56,0,240
2,note_on,61,0,0
2,note_on,65,0,0
2,note_on,65,30,0
2,note_on,61,19,0
2,note_on,61,0,127
2,note_on,65,0,0
2,note_on,56,28,0
2,note_on,56,0,240
2,note_on,66,35,0
2,note_on,63,35,0
2,note_on,56,26,28
2,note_on,56,0,240
2,note_on,56,28,0
2,note_on,56,0,240
2,note_on,56,32,0
2,note_on,56,0,240
2,note_on,58,35,0
2,note_on,58,0,231
2,note_on,56,32,0
2,note_on,56,0,240
2,note_on,63,0,0
2,note_on,66,0,0
2,note_on,65,35,0
2,note_on,61,35,0
2,note_on,61,0,126
2,note_on,65,0,0
2,note_on,56,29,0
2,note_on,56,0,240
2,note_on,56,32,134
2,note_on,56,0,127
2,note_on,56,35,0
2,note_on,56,0,228
2,note_on,56,32,12
2,note_on,56,0,228
2,note_on,56,32,12
2,note_on,56,0,99
2,note_on,56,29,0
2,note_on,56,0,240
2,note_on,56,31,120
2,note_on,56,0,240
2,note_on,56,27,148
2,note_on,56,0,240
2,note_on,65,35,0
2,note_on,61,29,0
2,note_on,61,0,191
2,note_on,65,0,0
2,note_on,56,27,0
2,note_on,56,0,234
2,note_on,66,32,0
2,note_on,60,27,0
2,note_on,60,0,240
2,note_on,66,0,0
2,note_on,56,31,0
2,note_on,56,0,240
2,note_on,49,35,0
2,note_on,49,0,141
2,note_on,56,30,0
2,note_on,56,0,240
2,note_on,65,26,0
2,note_on,61,18,0
2,note_on,56,23,106
2,note_on,56,0,228
2,note_on,56,24,12
2,note_on,56,0,228
2,note_on,56,21,12
2,note_on,56,0,228
2,note_on,56,30,12
2,note_on,56,0,115
2,note_on,56,28,12
2,note_on,56,0,228
2,note_on,61,0,12
2,note_on,65,0,0
2,note_on,66,35,0
2,note_on,63,35,0
2,note_on,56,31,84
2,note_on,56,0,228
2,note_on,56,29,12
2,note_on,56,0,228
2,note_on,56,32,12
2,note_on,56,0,228
2,note_on,58,35,12
2,note_on,58,0,232
2,note_on,56,32,0
2,note_on,56,0,240
2,note_on,63,0,0
2,note_on,66,0,0
2,note_on,65,35,0
2,note_on,61,35,0
2,note_on,61,0,126
2,note_on,65,0,0
2,note_on,56,31,0
2,note_on,56,0,240
2,note_on,56,32,134
2,note_on,56,0,92
2,note_on,56,35,0
2,note_on,56,0,240
2,note_on,56,32,0
2,note_on,56,0,240
2,note_on,56,32,0
2,note_on,56,0,169
2,note_on,56,29,0
2,note_on,56,0,240
2,note_on,56,26,71
2,note_on,56,0,228
2,note_on,56,29,12
2,note_on,56,0,228
2,note_on,56,27,12
2,note_on,56,0,228
2,note_on,56,30,12
2,note_on,56,0,214
2,note_on,56,27,12
2,note_on,56,0,228
2,note_on,56,30,12
2,note_on,56,0,228
2,note_on,56,26,12
2,note_on,56,0,228
2,note_on,37,26,12
2,note_on,44,31,0
2,note_on,44,0,395
2,note_on,37,0,0
2,note_on,39,24,0
2,note_on,44,29,0
2,note_on,44,0,311
2,note_on,39,0,0
2,note_on,40,29,0
2,note_on,49,35,0
2,note_on,49,0,282
2,note_on,40,0,0
2,note_on,39,27,0
2,note_on,48,33,0
2,note_on,48,0,311
2,note_on,39,0,0
2,note_on,39,33,0
2,note_on,44,39,0
2,note_on,44,0,367
2,note_on,39,0,0
2,note_on,40,29,0
2,note_on,44,35,0
2,note_on,44,0,325
2,note_on,40,0,0
2,note_on,42,35,0
2,note_on,51,41,0
2,note_on,51,0,311
2,note_on,42,0,0
2,note_on,40,31,0
2,note_on,49,38,0
2,note_on,49,0,325
2,note_on,40,0,0
2,note_on,40,38,0
2,note_on,49,46,0
2,note_on,49,0,367
2,note_on,40,0,0
2,note_on,44,38,0
2,note_on,51,46,0
2,note_on,51,0,353
2,note_on,44,0,0
2,note_on,49,41,0
2,note_on,52,49,0
2,note_on,52,0,325
2,note_on,49,0,0
2,note_on,44,38,0
2,note_on,51,46,0
2,note_on,51,0,311
2,note_on,44,0,0
2,note_on,44,39,0
2,note_on,51,47,0
2,note_on,51,0,2231
2,note_on,44,0,0
2,note_on,49,33,0
2,note_on,52,39,0
2,note_on,52,0,324
2,note_on,49,0,0
2,note_on,44,35,0
2,note_on,51,41,0
2,note_on,51,0,325
2,note_on,44,0,0
2,note_on,40,30,0
2,note_on,49,37,0
2,note_on,49,0,296
2,note_on,40,0,0
2,note_on,44,35,0
2,note_on,51,41,0
2,note_on,51,0,367
2,note_on,44,0,0
2,note_on,40,30,0
2,note_on,49,37,0
2,note_on,49,0,325
2,note_on,40,0,0
2,note_on,39,31,0
2,note_on,48,38,0
2,note_on,48,0,325
2,note_on,39,0,0
2,note_on,40,29,0
2,note_on,49,35,0
2,note_on,49,0,325
2,note_on,40,0,0
2,note_on,39,33,0
2,note_on,48,39,0
2,note_on,48,0,395
2,note_on,39,0,0
2,note_on,40,30,0
2,note_on,49,37,0
2,note_on,49,0,339
2,note_on,40,0,0
2,note_on,39,34,0
2,note_on,51,40,0
2,note_on,51,0,311
2,note_on,39,0,0
2,note_on,37,37,0
2,note_on,52,45,0
2,note_on,52,0,296
2,note_on,37,0,0
2,note_on,44,40,0
2,note_on,51,48,0
2,note_on,51,0,1765
2,note_on,44,0,0
2,note_on,37,52,0
2,note_on,44,62,0
2,note_on,44,0,353
2,note_on,37,0,0
2,note_on,39,51,0
2,note_on,44,61,0
2,note_on,44,0,325
2,note_on,39,0,0
2,note_on,40,56,0
2,note_on,49,67,0
2,note_on,49,0,310
2,note_on,40,0,0
2,note_on,39,52,0
2,note_on,48,62,0
2,note_on,48,0,339
2,note_on,39,0,0
2,note_on,39,57,0
2,note_on,44,67,0
2,note_on,44,0,324
2,note_on,39,0,0
2,note_on,40,56,0
2,note_on,44,66,0
2,note_on,44,0,339
2,note_on,40,0,0
2,note_on,42,60,0
2,note_on,51,71,0
2,note_on,51,0,324
2,note_on,42,0,0
2,note_on,40,57,0
2,note_on,49,68,0
2,note_on,49,0,339
2,note_on,40,0,0
2,note_on,40,59,0
2,note_on,49,70,0
2,note_on,49,0,395
2,note_on,40,0,0
2,note_on,44,61,0
2,note_on,51,73,0
2,note_on,51,0,367
2,note_on,44,0,0
2,note_on,49,66,0
2,note_on,52,78,0
2,note_on,52,0,409
2,note_on,49,0,0
2,note_on,44,61,0
2,note_on,51,73,0
2,note_on,51,0,275
2,note_on,44,0,0
2,note_on,32,82,0
2,note_on,32,0,111
2,note_on,44,62,0
2,note_on,51,74,0
2,note_on,51,0,1920
2,note_on,44,0,0
2,note_on,28,74,0
2,note_on,40,88,0
2,note_on,40,0,833
2,note_on,28,0,0
2,note_on,35,70,0
2,note_on,47,83,0
2,note_on,47,0,762
2,note_on,35,0,0
2,note_on,28,74,0
2,note_on,40,88,0
2,note_on,40,0,846
2,note_on,28,0,0
2,note_on,35,72,0
2,note_on,47,85,0
2,note_on,47,0,606
2,note_on,35,0,0
2,note_on,34,74,0
2,note_on,46,88,0
2,note_on,46,0,240
2,note_on,34,0,0
2,note_on,32,74,0
2,note_on,44,88,0
2,note_on,44,0,804
2,note_on,32,0,0
2,note_on,39,71,0
2,note_on,51,84,0
2,note_on,51,0,791
2,note_on,39,0,0
2,note_on,32,67,0
2,note_on,44,79,0
2,note_on,44,0,805
2,note_on,32,0,0
2,note_on,37,29,946
2,note_on,44,35,0
2,note_on,44,0,395
2,note_on,37,0,0
2,note_on,39,26,0
2,note_on,44,31,0
2,note_on,44,0,311
2,note_on,39,0,0
2,note_on,40,29,0
2,note_on,49,35,0
2,note_on,49,0,282
2,note_on,40,0,0
2,note_on,39,27,0
2,note_on,48,33,0
2,note_on,48,0,311
2,note_on,39,0,0
2,note_on,39,33,0
2,note_on,44,39,0
2,note_on,44,0,367
2,note_on,39,0,0
2,note_on,40,29,0
2,note_on,44,35,0
2,note_on,44,0,325
2,note_on,40,0,0
2,note_on,42,35,0
2,note_on,51,41,0
2,note_on,51,0,311
2,note_on,42,0,0
2,note_on,40,31,0
2,note_on,49,38,0
2,note_on,49,0,325
2,note_on,40,0,0
2,note_on,40,38,0
2,note_on,49,46,0
2,note_on,49,0,367
2,note_on,40,0,0
2,note_on,44,38,0
2,note_on,51,46,0
2,note_on,51,0,353
2,note_on,44,0,0
2,note_on,49,41,0
2,note_on,52,49,0
2,note_on,52,0,325
2,note_on,49,0,0
2,note_on,44,38,0
2,note_on,51,46,0
2,note_on,51,0,311
2,note_on,44,0,0
2,note_on,44,39,0
2,note_on,51,47,0
2,note_on,51,0,2231
2,note_on,44,0,0
2,note_on,49,33,0
2,note_on,52,39,0
2,note_on,52,0,339
2,note_on,49,0,0
2,note_on,44,35,0
2,note_on,51,41,0
2,note_on,51,0,325
2,note_on,44,0,0
2,note_on,40,30,0
2,note_on,49,37,0
2,note_on,49,0,296
2,note_on,40,0,0
2,note_on,44,35,0
2,note_on,51,41,0
2,note_on,51,0,367
2,note_on,44,0,0
2,note_on,40,30,0
2,note_on,49,37,0
2,note_on,49,0,325
2,note_on,40,0,0
2,note_on,39,31,0
2,note_on,48,38,0
2,note_on,48,0,325
2,note_on,39,0,0
2,note_on,40,29,0
2,note_on,49,35,0
2,note_on,49,0,325
2,note_on,40,0,0
2,note_on,39,33,0
2,note_on,48,39,0
2,note_on,48,0,395
2,note_on,39,0,0
2,note_on,40,30,0
2,note_on,49,37,0
2,note_on,49,0,339
2,note_on,40,0,0
2,note_on,39,34,0
2,note_on,51,40,0
2,note_on,51,0,311
2,note_on,39,0,0
2,note_on,37,37,0
2,note_on,52,45,0
2,note_on,52,0,296
2,note_on,37,0,0
2,note_on,44,40,0
2,note_on,51,48,0
2,note_on,51,0,1765
2,note_on,44,0,0
2,note_on,37,52,0
2,note_on,44,62,0
2,note_on,44,0,353
2,note_on,37,0,0
2,note_on,39,51,0
2,note_on,44,61,0
2,note_on,44,0,325
2,note_on,39,0,0
2,note_on,40,56,0
2,note_on,49,67,0
2,note_on,49,0,367
2,note_on,40,0,0
2,note_on,39,52,0
2,note_on,48,62,0
2,note_on,48,0,339
2,note_on,39,0,0
2,note_on,39,57,0
2,note_on,44,67,0
2,note_on,44,0,310
2,note_on,39,0,0
2,note_on,40,56,0
2,note_on,44,66,0
2,note_on,44,0,339
2,note_on,40,0,0
2,note_on,42,60,0
2,note_on,51,71,0
2,note_on,51,0,353
2,note_on,42,0,0
2,note_on,40,57,0
2,note_on,49,68,0
2,note_on,49,0,339
2,note_on,40,0,0
2,note_on,40,59,0
2,note_on,49,70,0
2,note_on,49,0,374
2,note_on,40,0,0
2,note_on,44,61,0
2,note_on,51,73,0
2,note_on,51,0,367
2,note_on,44,0,0
2,note_on,49,66,0
2,note_on,52,78,0
2,note_on,52,0,339
2,note_on,49,0,0
2,note_on,44,61,0
2,note_on,51,73,0
2,note_on,51,0,275
2,note_on,44,0,0
2,note_on,32,82,0
2,note_on,32,0,24
2,note_on,44,62,0
2,note_on,51,74,0
2,note_on,51,0,1920
2,note_on,44,0,0
2,note_on,28,74,0
2,note_on,40,88,0
2,note_on,40,0,847
2,note_on,28,0,0
2,note_on,35,70,0
2,note_on,47,83,0
2,note_on,47,0,762
2,note_on,35,0,0
2,note_on,28,74,0
2,note_on,40,88,0
2,note_on,40,0,846
2,note_on,28,0,0
2,note_on,35,72,0
2,note_on,47,85,0
2,note_on,47,0,491
2,note_on,35,0,0
2,note_on,34,74,0
2,note_on,46,88,0
2,note_on,46,0,240
2,note_on,34,0,0
2,note_on,32,74,0
2,note_on,44,88,0
2,note_on,44,0,748
2,note_on,32,0,0
2,note_on,39,71,0
2,note_on,51,84,0
2,note_on,51,0,776
2,note_on,39,0,0
2,note_on,32,67,0
2,note_on,44,79,0
2,note_on,44,0,805
2,note_on,32,0,0
2,note_on,44,37,945
2,note_on,42,37,0
2,note_on,54,44,0
2,note_on,54,0,875
2,note_on,42,0,0
2,note_on,44,0,0
2,note_on,40,33,0
2,note_on,52,39,0
2,note_on,44,33,0
2,note_on,52,0,282
2,note_on,40,0,0
2,note_on,37,31,0
2,note_on,49,38,0
2,note_on,49,0,367
2,note_on,37,0,0
2,note_on,44,0,0
2,note_on,32,37,0
2,note_on,44,44,0
2,note_on,44,0,1228
2,note_on,32,0,0
2,note_on,44,37,0
2,note_on,56,44,0
2,note_on,56,0,339
2,note_on,44,0,0
2,note_on,49,41,0
2,note_on,56,49,0
2,note_on,56,0,268
2,note_on,49,0,0
2,note_on,44,37,0
2,note_on,56,44,0
2,note_on,56,0,296
2,note_on,44,0,0
2,note_on,45,45,0
2,note_on,57,53,0
2,note_on,57,0,791
2,note_on,45,0,0
2,note_on,44,42,0
2,note_on,56,51,0
2,note_on,56,0,325
2,note_on,44,0,0
2,note_on,42,37,0
2,note_on,54,44,0
2,note_on,54,0,339
2,note_on,42,0,0
2,note_on,44,49,0
2,note_on,44,0,819
2,note_on,37,37,0
2,note_on,44,44,0
2,note_on,44,0,353
2,note_on,37,0,0
2,note_on,32,36,0
2,note_on,44,42,0
2,note_on,44,0,367
2,note_on,32,0,0
2,note_on,37,41,0
2,note_on,44,49,0
2,note_on,44,0,325
2,note_on,37,0,0
2,note_on,37,37,0
2,note_on,44,45,0
2,note_on,44,0,367
2,note_on,37,0,0
2,note_on,32,33,0
2,note_on,44,39,0
2,note_on,44,0,282
2,note_on,32,0,0
2,note_on,37,35,0
2,note_on,44,41,0
2,note_on,44,0,353
2,note_on,37,0,0
2,note_on,32,35,0
2,note_on,44,41,0
2,note_on,44,0,1764
2,note_on,32,0,0
2,note_on,44,40,0
2,note_on,42,40,0
2,note_on,54,48,0
2,note_on,44,0,87
2,note_on,44,40,12
2,note_on,44,0,228
2,note_on,44,40,12
2,note_on,44,0,228
2,note_on,44,40,12
2,note_on,44,0,228
2,note_on,54,0,12
2,note_on,42,0,0
2,note_on,40,41,0
2,note_on,52,50,0
2,note_on,44,41,0
2,note_on,52,0,353
2,note_on,40,0,0
2,note_on,37,41,0
2,note_on,49,50,0
2,note_on,49,0,339
2,note_on,37,0,0
2,note_on,44,0,0
2,note_on,32,50,0
2,note_on,44,60,0
2,note_on,44,0,310
2,note_on,32,0,0
2,note_on,37,58,0
2,note_on,44,69,0
2,note_on,44,0,381
2,note_on,37,0,0
2,note_on,44,51,0
2,note_on,56,61,0
2,note_on,56,0,296
2,note_on,44,0,0
2,note_on,41,58,0
2,note_on,53,69,0
2,note_on,53,0,791
2,note_on,41,0,0
2,note_on,42,51,0
2,note_on,54,62,0
2,note_on,54,0,339
2,note_on,42,0,0
2,note_on,36,52,0
2,note_on,48,59,0
2,note_on,48,0,819
2,note_on,36,0,0
2,note_on,37,44,0
2,note_on,49,52,0
2,note_on,49,0,353
2,note_on,37,0,0
2,note_on,32,42,0
2,note_on,44,55,0
2,note_on,44,0,325
2,note_on,32,0,0
2,note_on,37,46,0
2,note_on,44,60,0
2,note_on,44,0,325
2,note_on,37,0,0
2,note_on,32,42,0
2,note_on,44,50,0
2,note_on,44,0,325
2,note_on,32,0,0
2,note_on,37,42,0
2,note_on,44,51,0
2,note_on,44,0,325
2,note_on,37,0,0
2,note_on,32,41,0
2,note_on,44,49,0
2,note_on,44,0,325
2,note_on,44,44,0
2,note_on,44,0,325
2,note_on,53,33,240
2,note_on,53,0,137
2,note_on,32,0,0
2,note_on,54,37,0
2,note_on,54,0,148
2,note_on,51,34,0
2,note_on,51,0,125
2,note_on,49,35,0
2,note_on,49,0,169
2,note_on,56,30,0
2,note_on,56,0,240
2,note_on,65,26,0
2,note_on,61,17,0
2,note_on,56,19,162
2,note_on,56,0,228
2,note_on,56,23,12
2,note_on,56,0,228
2,note_on,56,19,12
2,note_on,56,0,228
2,note_on,56,27,12
2,note_on,56,0,115
2,note_on,56,28,12
2,note_on,56,0,228
2,note_on,61,0,12
2,note_on,65,0,0
2,note_on,66,35,0
2,note_on,63,35,0
2,note_on,56,26,84
2,note_on,56,0,228
2,note_on,56,28,12
2,note_on,56,0,228
2,note_on,56,32,12
2,note_on,56,0,228
2,note_on,58,35,12
2,note_on,58,0,230
2,note_on,56,32,0
2,note_on,56,0,240
2,note_on,63,0,0
2,note_on,66,0,0
2,note_on,65,35,0
2,note_on,61,35,0
2,note_on,61,0,126
2,note_on,65,0,0
2,note_on,56,31,0
2,note_on,56,0,240
2,note_on,56,32,134
2,note_on,56,0,92
2,note_on,56,35,0
2,note_on,56,0,228
2,note_on,56,32,12
2,note_on,56,0,228
2,note_on,56,32,12
2,note_on,56,0,70
2,note_on,56,29,0
2,note_on,56,0,240
2,note_on,56,31,105
2,note_on,56,0,240
2,note_on,56,31,191
2,note_on,56,0,240
2,note_on,65,35,0
2,note_on,61,29,0
2,note_on,61,0,177
2,note_on,65,0,0
2,note_on,56,31,0
2,note_on,56,0,232
2,note_on,66,32,0
2,note_on,60,27,0
2,note_on,60,0,240
2,note_on,66,0,0
2,note_on,56,31,0
2,note_on,56,0,240
2,note_on,49,35,0
2,note_on,49,0,141
2,note_on,56,30,0
2,note_on,56,0,240
2,note_on,65,26,0
2,note_on,61,18,0
2,note_on,56,20,106
2,note_on,56,0,228
2,note_on,56,24,12
2,note_on,56,0,228
2,note_on,56,21,12
2,note_on,56,0,228
2,note_on,56,30,12
2,note_on,56,0,115
2,note_on,56,28,12
2,note_on,56,0,228
2,note_on,61,0,12
2,note_on,65,0,0
2,note_on,66,35,0
2,note_on,63,35,0
2,note_on,63,0,56
2,note_on,66,0,0
2,note_on,56,31,0
2,note_on,56,0,228
2,note_on,56,29,12
2,note_on,56,0,228
2,note_on,56,33,12
2,note_on,56,0,228
2,note_on,58,38,12
2,note_on,58,0,232
2,note_on,56,35,0
2,note_on,56,0,240
2,note_on,44,36,468
2,note_on,56,29,70
2,note_on,56,0,228
2,note_on,56,29,12
2,note_on,56,0,228
2,note_on,56,29,12
2,note_on,56,0,228
2,note_on,56,29,12
2,note_on,56,0,59
2,note_on,56,29,12
2,note_on,56,0,228
2,note_on,56,29,12
2,note_on,56,0,228
2,note_on,56,29,12
2,note_on,56,0,228
2,note_on,44,0,12
2,note_on,56,36,0
2,note_on,49,36,0
2,note_on,56,0,122
2,note_on,56,29,12
2,note_on,56,0,228
2,note_on,56,29,12
2,note_on,56,0,228
2,note_on,56,29,12
2,note_on,56,0,228
2,note_on,56,29,12
2,note_on,56,0,228
2,note_on,56,29,12
2,note_on,56,0,228
2,note_on,56,29,12
2,note_on,56,0,214
2,note_on,56,29,12
2,note_on,56,0,228
2,note_on,49,0,12
2,note_on,56,36,0
2,note_on,44,36,0
2,note_on,56,0,109
2,note_on,56,29,12
2,note_on,56,0,228
2,note_on,56,29,12
2,note_on,56,0,228
2,note_on,56,29,12
2,note_on,56,0,228
2,note_on,56,27,12
2,note_on,56,0,228
2,note_on,56,27,12
2,note_on,56,0,228
2,note_on,56,26,12
2,note_on,56,0,228
2,note_on,56,26,12
2,note_on,56,0,228
2,note_on,44,0,12
2,note_on,56,26,0
2,note_on,44,29,0
2,note_on,56,0,87
2,note_on,56,26,12
2,note_on,56,0,228
2,note_on,56,26,12
2,note_on,56,0,228
2,note_on,56,26,12
2,note_on,56,0,228
2,note_on,56,26,12
2,note_on,56,0,228
2,note_on,56,26,12
2,note_on,56,0,228
2,note_on,56,26,12
2,note_on,56,0,228
2,note_on,56,26,12
2,note_on,56,0,228
2,note_on,44,0,12
2,note_on,56,26,0
2,note_on,49,30,0
2,note_on,56,0,87
2,note_on,56,26,12
2,note_on,56,0,228
2,note_on,56,26,12
2,note_on,56,0,228
2,note_on,56,26,12
2,note_on,56,0,228
2,note_on,49,0,12
2,note_on,56,26,0
2,note_on,44,26,0
2,note_on,56,0,228
2,note_on,56,26,12
2,note_on,56,0,228
2,note_on,56,26,12
2,note_on,56,0,228
2,note_on,56,26,12
2,note_on,56,0,226
2,note_on,44,0,14
2,note_on,37,24,0
2,note_on,37,0,1920
