Track,Message Type,Note,Velocity,Time
1,note_on,51,74,0
1,note_on,63,88,0
1,note_on,63,0,480
1,note_on,51,0,0
1,note_on,58,57,960
1,note_on,63,68,0
1,note_on,63,0,120
1,note_on,58,0,0
1,note_on,55,51,360
1,note_on,58,61,0
1,note_on,58,0,120
1,note_on,55,0,0
1,note_on,56,31,360
1,note_on,64,31,0
1,note_on,68,37,0
1,note_on,68,0,480
1,note_on,64,0,0
1,note_on,56,0,0
1,note_on,55,28,0
1,note_on,63,28,0
1,note_on,67,32,0
1,note_on,67,0,240
1,note_on,63,0,0
1,note_on,55,0,0
1,note_on,59,74,2640
1,note_on,56,74,0
1,note_on,52,74,0
1,note_on,64,88,0
1,note_on,64,0,480
1,note_on,59,0,0
1,note_on,56,0,0
1,note_on,52,0,0
1,note_on,59,57,960
1,note_on,64,68,0
1,note_on,64,0,120
1,note_on,59,0,0
1,note_on,52,45,360
1,note_on,56,45,0
1,note_on,59,54,0
1,note_on,59,0,120
1,note_on,56,0,0
1,note_on,52,0,0
1,note_on,61,31,360
1,note_on,70,31,0
1,note_on,73,37,0
1,note_on,73,0,480
1,note_on,70,0,0
1,note_on,61,0,0
1,note_on,68,28,0
1,note_on,71,32,0
1,note_on,71,0,240
1,note_on,68,0,0
1,note_on,60,74,2640
1,note_on,57,74,0
1,note_on,53,74,0
1,note_on,65,88,0
1,note_on,65,0,480
1,note_on,60,0,0
1,note_on,57,0,0
1,note_on,53,0,0
1,note_on,57,45,240
1,note_on,62,53,0
1,note_on,62,0,120
1,note_on,57,0,0
1,note_on,58,47,0
1,note_on,63,56,0
1,note_on,63,0,120
1,note_on,58,0,0
1,note_on,59,50,0
1,note_on,64,59,0
1,note_on,64,0,120
1,note_on,59,0,0
1,note_on,60,52,0
1,note_on,65,59,0
1,note_on,65,0,120
1,note_on,60,0,0
1,note_on,61,55,0
1,note_on,67,65,0
1,note_on,67,0,120
1,note_on,61,0,0
1,note_on,62,68,0
1,note_on,68,68,0
1,note_on,68,0,120
1,note_on,62,0,0
1,note_on,63,64,0
1,note_on,69,76,0
1,note_on,69,0,120
1,note_on,63,0,0
1,note_on,57,62,360
1,note_on,53,62,0
1,note_on,60,62,0
1,note_on,65,74,0
1,note_on,65,0,120
1,note_on,57,0,0
1,note_on,53,0,0
1,note_on,60,0,0
1,note_on,60,66,360
1,note_on,65,66,0
1,note_on,72,78,0
1,note_on,72,0,480
1,note_on,65,0,0
1,note_on,60,0,0
1,note_on,56,62,0
1,note_on,58,62,0
1,note_on,62,62,0
1,note_on,65,62,0
1,note_on,70,73,0
1,note_on,70,0,240
1,note_on,62,0,0
1,note_on,56,0,0
1,note_on,58,0,0
1,note_on,65,0,0
1,note_on,59,49,480
1,note_on,64,58,0
1,note_on,64,0,120
1,note_on,59,0,0
1,note_on,60,51,0
1,note_on,65,61,0
1,note_on,65,0,120
1,note_on,60,0,0
1,note_on,61,55,0
1,note_on,66,64,0
1,note_on,66,0,120
1,note_on,61,0,0
1,note_on,62,57,0
1,note_on,67,64,0
1,note_on,67,0,120
1,note_on,62,0,0
1,note_on,63,60,0
1,note_on,68,71,0
1,note_on,68,0,120
1,note_on,63,0,0
1,note_on,64,74,0
1,note_on,69,74,0
1,note_on,69,0,120
1,note_on,64,0,0
1,note_on,65,64,0
1,note_on,70,76,0
1,note_on,70,0,120
1,note_on,65,0,0
1,note_on,58,63,360
1,note_on,53,63,0
1,note_on,62,75,0
1,note_on,65,75,0
1,note_on,65,0,120
1,note_on,58,0,0
1,note_on,53,0,0
1,note_on,62,0,0
1,note_on,65,70,360
1,note_on,70,70,0
1,note_on,77,82,0
1,note_on,77,0,480
1,note_on,70,0,0
1,note_on,65,0,0
1,note_on,61,65,0
1,note_on,63,65,0
1,note_on,67,65,0
1,note_on,70,65,0
1,note_on,75,77,0
1,note_on,75,0,240
1,note_on,67,0,0
1,note_on,61,0,0
1,note_on,63,0,0
1,note_on,70,0,0
1,note_on,73,77,240
1,note_on,77,77,0
1,note_on,77,0,120
1,note_on,73,0,0
1,note_on,68,72,0
1,note_on,68,0,120
1,note_on,67,72,0
1,note_on,67,0,120
1,note_on,75,72,0
1,note_on,75,0,120
1,note_on,73,77,0
1,note_on,77,77,0
1,note_on,77,0,120
1,note_on,73,0,0
1,note_on,68,70,0
1,note_on,68,0,120
1,note_on,67,70,0
1,note_on,67,0,120
1,note_on,75,70,0
1,note_on,75,0,120
1,note_on,70,77,0
1,note_on,77,77,0
1,note_on,77,0,120
1,note_on,70,0,0
1,note_on,67,71,0
1,note_on,67,0,120
1,note_on,63,71,0
1,note_on,63,0,120
1,note_on,75,71,0
1,note_on,75,0,120
1,note_on,72,77,0
1,note_on,77,77,0
1,note_on,77,0,120
1,note_on,72,0,0
1,note_on,67,72,0
1,note_on,67,0,120
1,note_on,63,72,0
1,note_on,63,0,120
1,note_on,75,72,0
1,note_on,75,0,120
1,note_on,73,77,0
1,note_on,77,77,0
1,note_on,77,0,120
1,note_on,73,0,0
1,note_on,70,71,0
1,note_on,70,0,120
1,note_on,63,71,0
1,note_on,63,0,120
1,note_on,75,71,0
1,note_on,75,0,120
1,note_on,73,73,0
1,note_on,77,73,0
1,note_on,77,0,120
1,note_on,73,0,0
1,note_on,70,67,0
1,note_on,70,0,120
1,note_on,63,68,0
1,note_on,63,0,120
1,note_on,75,68,0
1,note_on,75,0,120
1,note_on,73,75,0
1,note_on,77,75,0
1,note_on,77,0,120
1,note_on,73,0,0
1,note_on,70,70,0
1,note_on,70,0,120
1,note_on,63,71,0
1,note_on,63,0,120
1,note_on,75,71,0
1,note_on,75,0,120
1,note_on,73,77,0
1,note_on,77,77,0
1,note_on,77,0,120
1,note_on,73,0,0
1,note_on,70,72,0
1,note_on,70,0,120
1,note_on,63,73,0
1,note_on,63,0,120
1,note_on,75,73,0
1,note_on,75,0,120
1,note_on,73,80,0
1,note_on,77,80,0
1,note_on,77,0,120
1,note_on,73,0,0
1,note_on,70,74,0
1,note_on,70,0,120
1,note_on,63,75,0
1,note_on,63,0,120
1,note_on,75,77,0
1,note_on,75,0,120
1,note_on,73,83,0
1,note_on,77,83,0
1,note_on,77,0,120
1,note_on,73,0,0
1,note_on,70,78,0
1,note_on,70,0,120
1,note_on,63,79,0
1,note_on,63,0,120
1,note_on,75,79,0
1,note_on,75,0,120
1,note_on,73,85,0
1,note_on,77,85,0
1,note_on,77,0,120
1,note_on,73,0,0
1,note_on,70,80,0
1,note_on,70,0,120
1,note_on,63,81,0
1,note_on,63,0,120
1,note_on,75,82,0
1,note_on,75,0,120
1,note_on,73,75,0
1,note_on,77,89,0
1,note_on,77,0,360
1,note_on,73,0,0
1,note_on,72,72,0
1,note_on,75,85,0
1,note_on,75,0,108
1,note_on,72,0,0
1,note_on,72,72,12
1,note_on,75,85,0
1,note_on,75,0,480
1,note_on,72,0,0
1,note_on,68,68,240
1,note_on,72,80,0
1,note_on,72,0,120
1,note_on,68,0,0
1,note_on,70,67,0
1,note_on,73,79,0
1,note_on,73,0,120
1,note_on,70,0,0
1,note_on,73,72,0
1,note_on,77,85,0
1,note_on,77,0,120
1,note_on,73,0,0
1,note_on,72,68,0
1,note_on,75,80,0
1,note_on,75,0,60
1,note_on,77,74,0
1,note_on,77,0,60
1,note_on,75,85,0
1,note_on,75,0,120
1,note_on,72,0,0
1,note_on,71,68,0
1,note_on,74,80,0
1,note_on,74,0,120
1,note_on,71,0,0
1,note_on,72,68,0
1,note_on,75,80,0
1,note_on,75,0,480
1,note_on,72,0,0
1,note_on,68,68,240
1,note_on,72,80,0
1,note_on,72,0,120
1,note_on,68,0,0
1,note_on,70,67,0
1,note_on,73,79,0
1,note_on,73,0,120
1,note_on,70,0,0
1,note_on,73,72,0
1,note_on,77,85,0
1,note_on,77,0,120
1,note_on,73,0,0
1,note_on,72,68,0
1,note_on,75,80,0
1,note_on,75,0,60
1,note_on,77,74,0
1,note_on,77,0,60
1,note_on,75,85,0
1,note_on,75,0,120
1,note_on,72,0,0
1,note_on,71,68,0
1,note_on,74,80,0
1,note_on,74,0,120
1,note_on,71,0,0
1,note_on,73,72,0
1,note_on,77,85,0
1,note_on,77,0,60
1,note_on,73,0,60
1,note_on,72,68,0
1,note_on,75,80,0
1,note_on,77,74,60
1,note_on,77,0,60
1,note_on,75,0,0
1,note_on,75,85,0
1,note_on,75,0,120
1,note_on,72,0,0
1,note_on,71,68,0
1,note_on,74,80,0
1,note_on,74,0,120
1,note_on,71,0,0
1,note_on,72,68,0
1,note_on,75,80,0
1,note_on,75,0,180
1,note_on,72,0,0
1,note_on,63,66,0
1,note_on,70,66,30
1,note_on,78,78,30
1,note_on,78,0,240
1,note_on,70,0,0
1,note_on,63,0,0
1,note_on,63,64,0
1,note_on,69,64,0
1,note_on,77,76,0
1,note_on,77,0,240
1,note_on,69,0,0
1,note_on,63,0,0
1,note_on,65,64,0
1,note_on,69,64,0
1,note_on,72,76,0
1,note_on,72,0,240
1,note_on,69,0,0
1,note_on,65,0,0
1,note_on,65,64,0
1,note_on,70,64,0
1,note_on,73,76,0
1,note_on,73,0,240
1,note_on,70,0,0
1,note_on,65,0,0
1,note_on,66,73,0
1,note_on,66,0,80
1,note_on,54,73,0
1,note_on,54,0,80
1,note_on,66,73,0
1,note_on,66,0,80
1,note_on,53,65,0
1,note_on,65,77,0
1,note_on,65,0,240
1,note_on,53,0,0
1,note_on,61,72,0
1,note_on,61,0,180
1,note_on,66,78,0
1,note_on,66,0,60
1,note_on,75,75,0
1,note_on,78,89,0
1,note_on,78,0,360
1,note_on,75,0,0
1,note_on,73,72,0
1,note_on,77,85,0
1,note_on,77,0,108
1,note_on,73,0,0
1,note_on,73,72,12
1,note_on,77,85,0
1,note_on,77,0,480
1,note_on,73,0,0
1,note_on,70,68,240
1,note_on,73,80,0
1,note_on,73,0,120
1,note_on,70,0,0
1,note_on,72,67,0
1,note_on,75,79,0
1,note_on,75,0,120
1,note_on,72,0,0
1,note_on,75,72,0
1,note_on,78,85,0
1,note_on,78,0,120
1,note_on,75,0,0
1,note_on,73,68,0
1,note_on,77,80,0
1,note_on,77,0,60
1,note_on,78,74,0
1,note_on,78,0,60
1,note_on,77,85,0
1,note_on,77,0,120
1,note_on,73,0,0
1,note_on,72,68,0
1,note_on,76,80,0
1,note_on,76,0,120
1,note_on,72,0,0
1,note_on,73,68,0
1,note_on,77,80,0
1,note_on,77,0,480
1,note_on,73,0,0
1,note_on,67,68,240
1,note_on,73,68,0
1,note_on,79,80,0
1,note_on,79,0,120
1,note_on,73,0,0
1,note_on,67,0,0
1,note_on,68,67,0
1,note_on,80,79,0
1,note_on,80,0,120
1,note_on,68,0,0
1,note_on,72,71,0
1,note_on,84,84,0
1,note_on,84,0,120
1,note_on,72,0,0
1,note_on,79,73,0
1,note_on,75,62,0
1,note_on,75,0,120
1,note_on,79,0,0
1,note_on,72,66,0
1,note_on,84,78,0
1,note_on,84,0,120
1,note_on,72,0,0
1,note_on,70,65,60
1,note_on,82,77,0
1,note_on,82,0,54
1,note_on,70,0,0
1,note_on,70,68,6
1,note_on,82,81,0
1,note_on,82,0,120
1,note_on,70,0,0
1,note_on,75,70,0
1,note_on,72,59,0
1,note_on,72,0,120
1,note_on,75,0,0
1,note_on,70,63,0
1,note_on,82,75,0
1,note_on,82,0,120
1,note_on,70,0,0
1,note_on,68,57,60
1,note_on,80,67,0
1,note_on,80,0,54
1,note_on,68,0,0
1,note_on,68,66,6
1,note_on,80,78,0
1,note_on,80,0,120
1,note_on,68,0,0
1,note_on,75,66,0
1,note_on,70,56,0
1,note_on,70,0,120
1,note_on,75,0,0
1,note_on,68,62,0
1,note_on,80,73,0
1,note_on,80,0,120
1,note_on,68,0,0
1,note_on,67,56,60
1,note_on,79,66,0
1,note_on,79,0,54
1,note_on,67,0,0
1,note_on,67,63,6
1,note_on,79,75,0
1,note_on,79,0,120
1,note_on,67,0,0
1,note_on,74,65,0
1,note_on,70,55,0
1,note_on,70,0,120
1,note_on,74,0,0
1,note_on,67,60,0
1,note_on,79,71,0
1,note_on,79,0,120
1,note_on,67,0,0
1,note_on,65,57,60
1,note_on,77,68,0
1,note_on,77,0,54
1,note_on,65,0,0
1,note_on,65,61,6
1,note_on,77,73,0
1,note_on,77,0,120
1,note_on,65,0,0
1,note_on,70,63,0
1,note_on,67,54,0
1,note_on,67,0,120
1,note_on,70,0,0
1,note_on,65,58,0
1,note_on,77,69,0
1,note_on,77,0,120
1,note_on,65,0,0
1,note_on,63,54,60
1,note_on,75,63,0
1,note_on,75,0,60
1,note_on,63,0,0
1,note_on,61,63,0
1,note_on,73,75,0
1,note_on,73,0,120
1,note_on,61,0,0
1,note_on,68,63,0
1,note_on,65,54,0
1,note_on,65,0,120
1,note_on,68,0,0
1,note_on,61,59,0
1,note_on,73,70,0
1,note_on,73,0,120
1,note_on,61,0,0
1,note_on,60,53,60
1,note_on,72,62,0
1,note_on,72,0,60
1,note_on,60,0,0
1,note_on,65,63,0
1,note_on,65,0,480
1,note_on,67,54,0
1,note_on,67,0,60
1,note_on,68,55,0
1,note_on,68,0,60
1,note_on,67,55,0
1,note_on,67,0,60
1,note_on,68,56,0
1,note_on,68,0,60
1,note_on,65,56,0
1,note_on,65,0,120
1,note_on,67,57,0
1,note_on,67,0,120
1,note_on,68,58,0
1,note_on,68,0,60
1,note_on,70,59,0
1,note_on,70,0,60
1,note_on,68,59,0
1,note_on,68,0,60
1,note_on,70,60,0
1,note_on,70,0,60
1,note_on,67,60,0
1,note_on,67,0,120
1,note_on,68,61,0
1,note_on,68,0,120
1,note_on,61,42,0
1,note_on,67,42,0
1,note_on,69,60,0
1,note_on,69,0,120
1,note_on,70,56,0
1,note_on,70,0,120
1,note_on,67,0,0
1,note_on,61,0,0
1,note_on,61,39,0
1,note_on,67,39,0
1,note_on,72,56,0
1,note_on,72,0,120
1,note_on,73,56,0
1,note_on,73,0,120
1,note_on,67,0,0
1,note_on,61,0,0
1,note_on,60,50,0
1,note_on,68,50,0
1,note_on,72,60,0
1,note_on,72,0,240
1,note_on,68,0,0
1,note_on,60,0,0
1,note_on,59,57,0
1,note_on,62,57,0
1,note_on,65,57,0
1,note_on,68,57,0
1,note_on,77,68,0
1,note_on,77,0,180
1,note_on,65,0,0
1,note_on,59,0,0
1,note_on,62,0,0
1,note_on,68,0,0
1,note_on,60,52,0
1,note_on,63,52,0
1,note_on,68,52,0
1,note_on,75,62,0
1,note_on,75,0,54
1,note_on,60,0,0
1,note_on,63,0,0
1,note_on,68,0,0
1,note_on,60,58,6
1,note_on,63,58,0
1,note_on,68,58,0
1,note_on,75,69,0
1,note_on,75,0,120
1,note_on,60,0,0
1,note_on,63,0,0
1,note_on,68,0,0
1,note_on,68,64,0
1,note_on,80,76,120
1,note_on,80,0,120
1,note_on,68,0,0
1,note_on,67,59,60
1,note_on,79,70,0
1,note_on,79,0,60
1,note_on,67,0,0
1,note_on,65,59,0
1,note_on,77,70,0
1,note_on,77,0,480
1,note_on,65,0,0
1,note_on,67,64,0
1,note_on,67,0,120
1,note_on,79,65,0
1,note_on,79,0,40
1,note_on,80,66,0
1,note_on,80,0,40
1,note_on,79,65,0
1,note_on,79,0,40
1,note_on,65,56,0
1,note_on,77,66,0
1,note_on,77,0,120
1,note_on,65,0,0
1,note_on,67,56,0
1,note_on,79,67,0
1,note_on,79,0,120
1,note_on,67,0,0
1,note_on,68,64,0
1,note_on,68,0,120
1,note_on,80,65,0
1,note_on,80,0,40
1,note_on,82,65,0
1,note_on,82,0,40
1,note_on,80,65,0
1,note_on,80,0,40
1,note_on,67,60,0
1,note_on,79,71,0
1,note_on,79,0,120
1,note_on,67,0,0
1,note_on,68,61,0
1,note_on,80,72,0
1,note_on,80,0,120
1,note_on,68,0,0
1,note_on,69,57,0
1,note_on,75,63,0
1,note_on,81,75,0
1,note_on,81,0,120
1,note_on,75,0,0
1,note_on,69,0,0
1,note_on,70,63,0
1,note_on,82,70,0
1,note_on,82,0,120
1,note_on,70,0,0
1,note_on,72,59,0
1,note_on,79,59,0
1,note_on,84,70,0
1,note_on,84,0,120
1,note_on,79,0,0
1,note_on,72,0,0
1,note_on,73,59,0
1,note_on,85,70,0
1,note_on,85,0,120
1,note_on,73,0,0
1,note_on,72,63,0
1,note_on,80,63,0
1,note_on,84,75,0
1,note_on,84,0,120
1,note_on,80,0,0
1,note_on,72,0,0
1,note_on,77,64,120
1,note_on,80,64,0
1,note_on,89,76,0
1,note_on,89,0,180
1,note_on,80,0,0
1,note_on,77,0,0
1,note_on,75,58,0
1,note_on,80,58,0
1,note_on,87,69,0
1,note_on,87,0,54
1,note_on,80,0,0
1,note_on,75,0,0
1,note_on,75,65,6
1,note_on,80,65,0
1,note_on,87,77,0
1,note_on,87,0,120
1,note_on,80,0,0
1,note_on,75,0,0
1,note_on,87,60,60
1,note_on,75,60,0
1,note_on,75,0,60
1,note_on,87,0,0
1,note_on,73,64,0
1,note_on,81,64,0
1,note_on,85,76,0
1,note_on,85,0,180
1,note_on,81,0,0
1,note_on,73,0,0
1,note_on,72,59,0
1,note_on,84,70,0
1,note_on,84,0,60
1,note_on,72,0,0
1,note_on,70,64,0
1,note_on,82,76,0
1,note_on,82,0,120
1,note_on,70,0,0
1,note_on,58,59,120
1,note_on,66,59,0
1,note_on,70,70,0
1,note_on,70,0,180
1,note_on,66,0,0
1,note_on,58,0,0
1,note_on,60,59,0
1,note_on,72,70,0
1,note_on,72,0,60
1,note_on,60,0,0
1,note_on,61,62,0
1,note_on,65,62,0
1,note_on,73,74,0
1,note_on,73,0,240
1,note_on,65,0,0
1,note_on,61,0,0
1,note_on,61,61,0
1,note_on,63,61,0
1,note_on,66,61,0
1,note_on,73,72,0
1,note_on,73,0,180
1,note_on,61,0,0
1,note_on,63,0,0
1,note_on,66,0,0
1,note_on,60,58,0
1,note_on,72,69,0
1,note_on,72,0,60
1,note_on,60,0,0
1,note_on,58,63,0
1,note_on,65,63,0
1,note_on,70,75,0
1,note_on,70,0,240
1,note_on,65,0,0
1,note_on,58,0,0
1,note_on,56,61,0
1,note_on,58,61,0
1,note_on,63,61,0
1,note_on,68,72,0
1,note_on,68,0,180
1,note_on,56,0,0
1,note_on,58,0,0
1,note_on,63,0,0
1,note_on,54,57,0
1,note_on,66,68,0
1,note_on,66,0,60
1,note_on,54,0,0
1,note_on,53,60,0
1,note_on,61,60,0
1,note_on,65,71,0
1,note_on,65,0,120
1,note_on,61,0,0
1,note_on,53,0,0
1,note_on,45,59,120
1,note_on,45,0,60
1,note_on,46,59,0
1,note_on,46,0,60
1,note_on,48,60,0
1,note_on,48,0,60
1,note_on,49,61,0
1,note_on,49,0,60
1,note_on,51,61,0
1,note_on,51,0,60
1,note_on,53,62,0
1,note_on,53,0,60
1,note_on,55,63,0
1,note_on,55,0,60
1,note_on,57,63,0
1,note_on,57,0,60
1,note_on,58,64,0
1,note_on,58,0,60
1,note_on,60,65,0
1,note_on,60,0,60
1,note_on,61,65,0
1,note_on,61,0,60
1,note_on,63,66,0
1,note_on,63,0,60
1,note_on,65,67,0
1,note_on,65,0,60
1,note_on,67,67,0
1,note_on,67,0,60
1,note_on,69,68,0
1,note_on,69,0,60
1,note_on,70,68,0
1,note_on,70,0,60
1,note_on,72,69,0
1,note_on,72,0,60
1,note_on,73,70,0
1,note_on,73,0,60
1,note_on,75,70,0
1,note_on,75,0,60
1,note_on,77,71,0
1,note_on,77,0,60
1,note_on,79,72,0
1,note_on,79,0,60
1,note_on,81,72,0
1,note_on,81,0,60
1,note_on,82,77,0
1,note_on,70,77,0
1,note_on,70,0,120
1,note_on,82,0,0
1,note_on,84,71,60
1,note_on,84,0,60
1,note_on,73,64,0
1,note_on,82,76,0
1,note_on,79,76,0
1,note_on,79,0,120
1,note_on,82,0,0
1,note_on,73,0,0
1,note_on,81,71,0
1,note_on,78,71,0
1,note_on,72,60,0
1,note_on,72,0,120
1,note_on,78,0,0
1,note_on,81,0,0
1,note_on,73,63,0
1,note_on,79,75,0
1,note_on,82,75,0
1,note_on,82,0,240
1,note_on,79,0,0
1,note_on,73,0,0
1,note_on,72,60,0
1,note_on,79,71,0
1,note_on,84,71,0
1,note_on,84,0,240
1,note_on,79,0,0
1,note_on,72,0,0
1,note_on,68,62,0
1,note_on,72,62,0
1,note_on,80,73,0
1,note_on,80,0,240
1,note_on,72,0,0
1,note_on,68,0,0
1,note_on,63,60,0
1,note_on,68,60,0
1,note_on,75,71,0
1,note_on,75,0,240
1,note_on,68,0,0
1,note_on,63,0,0
1,note_on,65,65,0
1,note_on,68,65,0
1,note_on,77,77,0
1,note_on,77,0,240
1,note_on,68,0,0
1,note_on,65,0,0
1,note_on,68,61,0
1,note_on,72,61,0
1,note_on,80,72,0
1,note_on,80,0,240
1,note_on,72,0,0
1,note_on,68,0,0
1,note_on,61,69,0
1,note_on,65,69,0
1,note_on,70,81,0
1,note_on,73,81,0
1,note_on,73,0,240
1,note_on,61,0,0
1,note_on,65,0,0
1,note_on,70,0,0
1,note_on,65,66,0
1,note_on,68,66,0
1,note_on,73,78,0
1,note_on,77,78,0
1,note_on,77,0,240
1,note_on,65,0,0
1,note_on,68,0,0
1,note_on,73,0,0
1,note_on,58,74,0
1,note_on,63,74,0
1,note_on,68,87,0
1,note_on,70,87,0
1,note_on,70,0,240
1,note_on,58,0,0
1,note_on,63,0,0
1,note_on,68,0,0
1,note_on,61,69,0
1,note_on,63,69,0
1,note_on,67,69,0
1,note_on,70,82,0
1,note_on,75,82,0
1,note_on,75,0,240
1,note_on,67,0,0
1,note_on,61,0,0
1,note_on,63,0,0
1,note_on,70,0,0
1,note_on,77,82,0
1,note_on,85,82,0
1,note_on,89,97,0
1,note_on,89,0,360
1,note_on,85,0,0
1,note_on,77,0,0
1,note_on,75,79,0
1,note_on,84,79,0
1,note_on,87,93,0
1,note_on,87,0,108
1,note_on,84,0,0
1,note_on,75,0,0
1,note_on,75,79,12
1,note_on,84,79,0
1,note_on,87,93,0
1,note_on,63,71,180
1,note_on,63,0,60
1,note_on,75,0,0
1,note_on,84,0,0
1,note_on,87,0,0
1,note_on,63,71,0
1,note_on,63,0,48
1,note_on,65,71,0
1,note_on,65,0,48
1,note_on,63,71,0
1,note_on,63,0,48
1,note_on,62,71,0
1,note_on,62,0,48
1,note_on,63,71,0
1,note_on,63,0,48
1,note_on,68,87,0
1,note_on,68,0,120
1,note_on,72,74,120
1,note_on,80,74,0
1,note_on,84,88,0
1,note_on,84,0,120
1,note_on,80,0,0
1,note_on,72,0,0
1,note_on,73,73,0
1,note_on,82,73,0
1,note_on,85,86,0
1,note_on,85,0,120
1,note_on,82,0,0
1,note_on,73,0,0
1,note_on,77,79,0
1,note_on,85,79,0
1,note_on,89,93,0
1,note_on,89,0,120
1,note_on,85,0,0
1,note_on,77,0,0
1,note_on,75,74,60
1,note_on,84,74,0
1,note_on,87,88,0
1,note_on,87,0,54
1,note_on,84,0,0
1,note_on,75,0,0
1,note_on,75,74,6
1,note_on,84,74,0
1,note_on,87,93,0
1,note_on,87,0,120
1,note_on,84,0,0
1,note_on,75,0,0
1,note_on,74,74,0
1,note_on,83,74,0
1,note_on,86,88,0
1,note_on,86,0,120
1,note_on,83,0,0
1,note_on,74,0,0
1,note_on,75,74,0
1,note_on,84,74,0
1,note_on,87,88,0
1,note_on,63,70,180
1,note_on,63,0,60
1,note_on,75,0,0
1,note_on,84,0,0
1,note_on,87,0,0
1,note_on,63,70,0
1,note_on,63,0,48
1,note_on,65,70,0
1,note_on,65,0,48
1,note_on,63,70,0
1,note_on,63,0,48
1,note_on,62,70,0
1,note_on,62,0,48
1,note_on,63,70,0
1,note_on,63,0,48
1,note_on,68,87,0
1,note_on,68,0,120
1,note_on,84,88,120
1,note_on,72,74,0
1,note_on,80,74,0
1,note_on,80,0,120
1,note_on,72,0,0
1,note_on,84,0,0
1,note_on,85,86,0
1,note_on,73,73,0
1,note_on,82,73,0
1,note_on,82,0,120
1,note_on,73,0,0
1,note_on,85,0,0
1,note_on,85,79,0
1,note_on,89,93,0
1,note_on,77,79,0
1,note_on,77,0,120
1,note_on,89,0,0
1,note_on,85,0,0
1,note_on,75,74,0
1,note_on,84,74,0
1,note_on,87,88,0
1,note_on,87,0,60
1,note_on,89,81,0
1,note_on,89,0,60
1,note_on,87,93,0
1,note_on,87,0,120
1,note_on,84,0,0
1,note_on,75,0,0
1,note_on,83,74,0
1,note_on,86,88,0
1,note_on,74,74,0
1,note_on,74,0,120
1,note_on,86,0,0
1,note_on,83,0,0
1,note_on,85,79,0
1,note_on,89,93,0
1,note_on,77,79,0
1,note_on,77,0,120
1,note_on,89,0,0
1,note_on,85,0,0
1,note_on,84,74,0
1,note_on,87,88,0
1,note_on,75,74,0
1,note_on,87,0,60
1,note_on,89,81,0
1,note_on,89,0,60
1,note_on,87,93,0
1,note_on,87,0,120
1,note_on,75,0,0
1,note_on,84,0,0
1,note_on,74,74,0
1,note_on,83,74,0
1,note_on,86,88,0
1,note_on,86,0,120
1,note_on,83,0,0
1,note_on,74,0,0
1,note_on,75,74,0
1,note_on,84,74,0
1,note_on,87,88,0
1,note_on,87,0,180
1,note_on,84,0,0
1,note_on,75,0,0
1,note_on,75,72,0
1,note_on,82,72,30
1,note_on,90,85,30
1,note_on,90,0,180
1,note_on,82,0,0
1,note_on,75,0,0
1,note_on,75,70,0
1,note_on,81,70,30
1,note_on,89,83,30
1,note_on,72,70,150
1,note_on,89,0,30
1,note_on,75,0,0
1,note_on,81,0,0
1,note_on,75,70,0
1,note_on,77,70,30
1,note_on,84,83,30
1,note_on,84,0,180
1,note_on,72,0,0
1,note_on,75,0,0
1,note_on,77,0,0
1,note_on,70,70,0
1,note_on,77,70,30
1,note_on,85,83,30
1,note_on,85,0,180
1,note_on,77,0,0
1,note_on,70,0,0
1,note_on,78,80,60
1,note_on,78,0,80
1,note_on,66,80,0
1,note_on,66,0,80
1,note_on,78,80,0
1,note_on,78,0,80
1,note_on,65,71,0
1,note_on,77,84,0
1,note_on,77,0,240
1,note_on,65,0,0
1,note_on,61,74,0
1,note_on,73,79,0
1,note_on,73,0,240
1,note_on,61,0,0
1,note_on,78,82,0
1,note_on,87,82,0
1,note_on,90,97,0
1,note_on,90,0,360
1,note_on,87,0,0
1,note_on,78,0,0
1,note_on,77,79,0
1,note_on,85,79,0
1,note_on,89,93,0
1,note_on,89,0,108
1,note_on,85,0,0
1,note_on,77,0,0
1,note_on,77,79,12
1,note_on,85,79,0
1,note_on,89,93,0
1,note_on,65,71,180
1,note_on,65,0,60
1,note_on,77,0,0
1,note_on,85,0,0
1,note_on,89,0,0
1,note_on,65,71,0
1,note_on,65,0,48
1,note_on,66,71,0
1,note_on,66,0,48
1,note_on,65,71,0
1,note_on,65,0,48
1,note_on,64,71,0
1,note_on,64,0,48
1,note_on,65,71,0
1,note_on,65,0,48
1,note_on,70,87,0
1,note_on,70,0,120
1,note_on,73,74,120
1,note_on,85,88,0
1,note_on,82,74,0
1,note_on,82,0,120
1,note_on,85,0,0
1,note_on,73,0,0
1,note_on,75,73,0
1,note_on,84,73,0
1,note_on,87,86,0
1,note_on,87,0,120
1,note_on,84,0,0
1,note_on,75,0,0
1,note_on,90,93,0
1,note_on,78,79,0
1,note_on,87,79,0
1,note_on,87,0,120
1,note_on,78,0,0
1,note_on,90,0,0
1,note_on,77,74,60
1,note_on,85,74,0
1,note_on,89,88,0
1,note_on,89,0,54
1,note_on,85,0,0
1,note_on,77,0,0
1,note_on,85,74,6
1,note_on,77,74,0
1,note_on,89,93,0
1,note_on,89,0,120
1,note_on,77,0,0
1,note_on,85,0,0
1,note_on,76,74,0
1,note_on,88,88,0
1,note_on,84,74,0
1,note_on,84,0,120
1,note_on,88,0,0
1,note_on,76,0,0
1,note_on,77,88,0
1,note_on,85,74,0
1,note_on,89,88,0
1,note_on,65,71,180
1,note_on,65,0,60
1,note_on,77,0,0
1,note_on,85,0,0
1,note_on,89,0,0
1,note_on,65,71,0
1,note_on,65,0,48
1,note_on,66,71,0
1,note_on,66,0,48
1,note_on,65,71,0
1,note_on,65,0,48
1,note_on,64,71,0
1,note_on,64,0,48
1,note_on,65,71,0
1,note_on,65,0,48
1,note_on,70,87,0
1,note_on,70,0,240
1,note_on,79,81,0
1,note_on,91,96,0
1,note_on,85,81,0
1,note_on,85,0,120
1,note_on,91,0,0
1,note_on,79,0,0
1,note_on,80,80,0
1,note_on,92,94,0
1,note_on,92,0,120
1,note_on,80,0,0
1,note_on,84,85,0
1,note_on,96,101,0
1,note_on,96,0,120
1,note_on,84,0,0
1,note_on,87,74,0
1,note_on,91,88,0
1,note_on,91,0,120
1,note_on,87,0,0
1,note_on,96,93,0
1,note_on,84,79,0
1,note_on,84,0,120
1,note_on,96,0,0
1,note_on,94,92,60
1,note_on,82,78,0
1,note_on,82,0,54
1,note_on,94,0,0
1,note_on,82,81,6
1,note_on,94,97,0
1,note_on,94,0,120
1,note_on,82,0,0
1,note_on,84,70,0
1,note_on,87,84,0
1,note_on,87,0,120
1,note_on,84,0,0
1,note_on,94,90,0
1,note_on,82,75,0
1,note_on,82,0,120
1,note_on,94,0,0
1,note_on,80,68,60
1,note_on,92,80,0
1,note_on,92,0,54
1,note_on,80,0,0
1,note_on,80,79,6
1,note_on,92,93,0
1,note_on,92,0,120
1,note_on,80,0,0
1,note_on,87,79,0
1,note_on,82,67,0
1,note_on,82,0,120
1,note_on,87,0,0
1,note_on,92,88,0
1,note_on,80,74,0
1,note_on,80,0,120
1,note_on,92,0,0
1,note_on,91,79,60
1,note_on,79,67,0
1,note_on,79,0,54
1,note_on,91,0,0
1,note_on,79,75,6
1,note_on,91,90,0
1,note_on,91,0,120
1,note_on,79,0,0
1,note_on,86,78,0
1,note_on,82,66,0
1,note_on,82,0,120
1,note_on,86,0,0
1,note_on,79,72,0
1,note_on,91,85,0
1,note_on,91,0,120
1,note_on,79,0,0
1,note_on,89,81,60
1,note_on,77,68,0
1,note_on,77,0,54
1,note_on,89,0,0
1,note_on,89,88,6
1,note_on,77,73,0
1,note_on,77,0,120
1,note_on,89,0,0
1,note_on,82,75,0
1,note_on,79,64,0
1,note_on,79,0,120
1,note_on,82,0,0
1,note_on,77,69,0
1,note_on,89,82,0
1,note_on,89,0,120
1,note_on,77,0,0
1,note_on,75,64,60
1,note_on,87,75,0
1,note_on,87,0,60
1,note_on,75,0,0
1,note_on,73,75,0
1,note_on,85,90,0
1,note_on,85,0,120
1,note_on,73,0,0
1,note_on,77,64,0
1,note_on,80,75,0
1,note_on,80,0,120
1,note_on,77,0,0
1,note_on,85,84,0
1,note_on,73,70,0
1,note_on,73,0,120
1,note_on,85,0,0
1,note_on,84,74,60
1,note_on,72,63,0
1,note_on,72,0,60
1,note_on,84,0,0
1,note_on,65,92,0
1,note_on,65,0,480
1,note_on,67,70,0
1,note_on,67,0,60
1,note_on,68,71,0
1,note_on,68,0,60
1,note_on,67,71,0
1,note_on,67,0,60
1,note_on,68,72,0
1,note_on,68,0,60
1,note_on,65,72,0
1,note_on,65,0,120
1,note_on,67,73,0
1,note_on,67,0,120
1,note_on,68,75,0
1,note_on,68,0,60
1,note_on,70,75,0
1,note_on,70,0,60
1,note_on,68,77,0
1,note_on,68,0,60
1,note_on,70,77,0
1,note_on,70,0,60
1,note_on,67,78,0
1,note_on,67,0,120
1,note_on,68,79,0
1,note_on,68,0,120
1,note_on,61,48,0
1,note_on,67,48,0
1,note_on,69,82,0
1,note_on,69,0,120
1,note_on,70,77,0
1,note_on,70,0,120
1,note_on,67,0,0
1,note_on,61,0,0
1,note_on,61,44,0
1,note_on,67,44,0
1,note_on,72,77,0
1,note_on,72,0,120
1,note_on,73,77,0
1,note_on,73,0,120
1,note_on,67,0,0
1,note_on,61,0,0
1,note_on,60,69,0
1,note_on,68,69,0
1,note_on,72,82,0
1,note_on,72,0,240
1,note_on,68,0,0
1,note_on,60,0,0
1,note_on,77,83,0
1,note_on,59,70,0
1,note_on,62,70,0
1,note_on,65,70,0
1,note_on,68,70,0
1,note_on,68,0,180
1,note_on,62,0,0
1,note_on,77,0,0
1,note_on,59,0,0
1,note_on,65,0,0
1,note_on,63,63,0
1,note_on,60,63,0
1,note_on,75,75,0
1,note_on,68,63,0
1,note_on,68,0,54
1,note_on,63,0,0
1,note_on,60,0,0
1,note_on,75,0,0
1,note_on,60,71,6
1,note_on,75,84,0
1,note_on,63,71,0
1,note_on,68,71,0
1,note_on,68,0,120
1,note_on,60,0,0
1,note_on,75,0,0
1,note_on,63,0,0
1,note_on,68,79,0
1,note_on,80,83,120
1,note_on,80,0,120
1,note_on,68,0,0
1,note_on,67,64,60
1,note_on,79,77,0
1,note_on,79,0,60
1,note_on,67,0,0
1,note_on,65,64,0
1,note_on,77,77,0
1,note_on,77,0,480
1,note_on,65,0,0
1,note_on,67,70,0
1,note_on,67,0,120
1,note_on,79,71,0
1,note_on,79,0,40
1,note_on,80,72,0
1,note_on,80,0,40
1,note_on,79,71,0
1,note_on,79,0,40
1,note_on,65,61,0
1,note_on,77,72,0
1,note_on,77,0,120
1,note_on,65,0,0
1,note_on,67,61,0
1,note_on,79,73,0
1,note_on,79,0,120
1,note_on,67,0,0
1,note_on,68,70,0
1,note_on,68,0,120
1,note_on,80,71,0
1,note_on,80,0,40
1,note_on,82,71,0
1,note_on,82,0,40
1,note_on,80,71,0
1,note_on,80,0,40
1,note_on,67,66,0
1,note_on,79,78,0
1,note_on,79,0,120
1,note_on,67,0,0
1,note_on,68,67,0
1,note_on,80,79,0
1,note_on,80,0,120
1,note_on,68,0,0
1,note_on,69,69,0
1,note_on,75,69,0
1,note_on,81,82,0
1,note_on,81,0,120
1,note_on,75,0,0
1,note_on,69,0,0
1,note_on,70,69,0
1,note_on,82,77,0
1,note_on,82,0,120
1,note_on,70,0,0
1,note_on,72,64,0
1,note_on,79,64,0
1,note_on,84,77,0
1,note_on,84,0,120
1,note_on,79,0,0
1,note_on,72,0,0
1,note_on,73,64,0
1,note_on,85,77,0
1,note_on,85,0,120
1,note_on,73,0,0
1,note_on,72,69,0
1,note_on,80,69,0
1,note_on,84,82,0
1,note_on,84,0,120
1,note_on,80,0,0
1,note_on,72,0,0
1,note_on,77,70,120
1,note_on,80,70,0
1,note_on,89,83,0
1,note_on,89,0,180
1,note_on,80,0,0
1,note_on,77,0,0
1,note_on,75,63,0
1,note_on,80,63,0
1,note_on,87,75,0
1,note_on,87,0,54
1,note_on,80,0,0
1,note_on,75,0,0
1,note_on,75,71,6
1,note_on,80,71,0
1,note_on,87,84,0
1,note_on,87,0,120
1,note_on,80,0,0
1,note_on,75,0,0
1,note_on,87,66,60
1,note_on,75,66,0
1,note_on,75,0,60
1,note_on,87,0,0
1,note_on,73,70,0
1,note_on,81,70,0
1,note_on,85,83,0
1,note_on,85,0,180
1,note_on,81,0,0
1,note_on,73,0,0
1,note_on,72,64,0
1,note_on,84,77,0
1,note_on,84,0,60
1,note_on,72,0,0
1,note_on,70,70,0
1,note_on,82,83,0
1,note_on,82,0,120
1,note_on,70,0,0
1,note_on,70,64,120
1,note_on,78,64,0
1,note_on,82,77,0
1,note_on,82,0,180
1,note_on,78,0,0
1,note_on,70,0,0
1,note_on,72,64,0
1,note_on,84,77,0
1,note_on,84,0,60
1,note_on,72,0,0
1,note_on,73,68,0
1,note_on,77,68,0
1,note_on,85,81,0
1,note_on,85,0,240
1,note_on,77,0,0
1,note_on,73,0,0
1,note_on,75,67,0
1,note_on,73,67,0
1,note_on,85,79,0
1,note_on,78,67,0
1,note_on,78,0,180
1,note_on,75,0,0
1,note_on,73,0,0
1,note_on,85,0,0
1,note_on,72,63,0
1,note_on,84,75,0
1,note_on,84,0,60
1,note_on,72,0,0
1,note_on,70,69,0
1,note_on,77,69,0
1,note_on,82,82,0
1,note_on,82,0,240
1,note_on,77,0,0
1,note_on,70,0,0
1,note_on,68,67,0
1,note_on,75,67,0
1,note_on,80,79,0
1,note_on,70,67,0
1,note_on,70,0,180
1,note_on,68,0,0
1,note_on,75,0,0
1,note_on,80,0,0
1,note_on,66,62,0
1,note_on,78,74,0
1,note_on,78,0,60
1,note_on,66,0,0
1,note_on,73,66,0
1,note_on,77,78,0
1,note_on,65,66,0
1,note_on,65,0,120
1,note_on,77,0,0
1,note_on,73,0,0
1,note_on,45,64,120
1,note_on,45,0,60
1,note_on,46,64,0
1,note_on,46,0,60
1,note_on,48,66,0
1,note_on,48,0,60
1,note_on,49,67,0
1,note_on,49,0,60
1,note_on,51,67,0
1,note_on,51,0,60
1,note_on,53,68,0
1,note_on,53,0,60
1,note_on,55,69,0
1,note_on,55,0,60
1,note_on,57,69,0
1,note_on,57,0,60
1,note_on,58,70,0
1,note_on,58,0,60
1,note_on,60,71,0
1,note_on,60,0,60
1,note_on,61,71,0
1,note_on,61,0,60
1,note_on,63,72,0
1,note_on,63,0,60
1,note_on,65,73,0
1,note_on,65,0,60
1,note_on,67,73,0
1,note_on,67,0,60
1,note_on,69,74,0
1,note_on,69,0,60
1,note_on,70,74,0
1,note_on,70,0,60
1,note_on,72,75,0
1,note_on,72,0,60
1,note_on,73,77,0
1,note_on,73,0,60
1,note_on,75,77,0
1,note_on,75,0,60
1,note_on,77,78,0
1,note_on,77,0,60
1,note_on,79,77,0
1,note_on,79,0,60
1,note_on,81,77,0
1,note_on,81,0,60
1,note_on,82,78,0
1,note_on,82,0,60
1,note_on,84,79,0
1,note_on,84,0,60
1,note_on,85,80,0
1,note_on,85,0,60
1,note_on,87,80,0
1,note_on,87,0,60
1,note_on,89,81,0
1,note_on,89,0,60
1,note_on,91,82,0
1,note_on,91,0,90
1,note_on,93,83,0
1,note_on,93,0,90
1,note_on,94,92,0
1,note_on,82,92,0
1,note_on,82,0,120
1,note_on,94,0,0
1,note_on,96,85,60
1,note_on,96,0,60
1,note_on,85,77,0
1,note_on,94,91,0
1,note_on,91,91,0
1,note_on,91,0,120
1,note_on,94,0,0
1,note_on,85,0,0
1,note_on,90,85,0
1,note_on,84,72,0
1,note_on,93,85,0
1,note_on,93,0,120
1,note_on,84,0,0
1,note_on,90,0,0
1,note_on,85,75,0
1,note_on,91,90,0
1,note_on,94,90,0
1,note_on,94,0,240
1,note_on,91,0,0
1,note_on,85,0,0
1,note_on,84,72,0
1,note_on,91,85,0
1,note_on,96,85,0
1,note_on,96,0,240
1,note_on,91,0,0
1,note_on,84,0,0
1,note_on,80,74,0
1,note_on,84,74,0
1,note_on,92,88,0
1,note_on,92,0,240
1,note_on,84,0,0
1,note_on,80,0,0
1,note_on,75,72,0
1,note_on,80,72,0
1,note_on,87,85,0
1,note_on,87,0,240
1,note_on,80,0,0
1,note_on,75,0,0
1,note_on,77,72,0
1,note_on,80,72,0
1,note_on,89,85,0
1,note_on,89,0,120
1,note_on,80,0,0
1,note_on,77,0,0
1,note_on,61,67,120
1,note_on,55,56,0
1,note_on,63,67,0
1,note_on,55,0,180
1,note_on,61,0,0
1,note_on,55,56,0
1,note_on,61,67,0
1,note_on,61,0,54
1,note_on,55,0,0
1,note_on,55,61,6
1,note_on,61,72,0
1,note_on,70,72,0
1,note_on,63,0,240
1,note_on,55,0,240
1,note_on,61,0,0
1,note_on,70,0,0
1,note_on,56,56,0
1,note_on,60,56,0
1,note_on,68,67,0
1,note_on,68,0,120
1,note_on,60,0,0
1,note_on,56,0,0
1,note_on,72,66,360
1,note_on,84,78,0
1,note_on,84,0,120
1,note_on,72,0,0
1,note_on,60,42,120
1,note_on,72,51,0
1,note_on,72,0,120
1,note_on,60,0,0
1,note_on,60,40,60
1,note_on,72,47,0
1,note_on,72,0,60
1,note_on,60,0,0
1,note_on,61,45,0
1,note_on,72,55,0
1,note_on,72,0,240
1,note_on,61,0,0
1,note_on,60,41,0
1,note_on,72,51,0
1,note_on,72,0,120
1,note_on,60,0,0
1,note_on,60,39,60
1,note_on,72,47,0
1,note_on,72,0,60
1,note_on,60,0,0
1,note_on,63,49,0
1,note_on,72,58,0
1,note_on,72,0,240
1,note_on,63,0,0
1,note_on,60,46,0
1,note_on,72,55,0
1,note_on,72,0,120
1,note_on,60,0,0
1,note_on,61,44,60
1,note_on,72,52,0
1,note_on,72,0,60
1,note_on,61,0,0
1,note_on,65,51,0
1,note_on,72,62,0
1,note_on,72,0,240
1,note_on,65,0,0
1,note_on,60,49,0
1,note_on,72,58,0
1,note_on,72,0,120
1,note_on,60,0,0
1,note_on,64,47,60
1,note_on,72,55,0
1,note_on,72,0,60
1,note_on,64,0,0
1,note_on,67,55,0
1,note_on,72,67,0
1,note_on,72,0,240
1,note_on,67,0,0
1,note_on,60,51,0
1,note_on,72,61,0
1,note_on,72,0,120
1,note_on,60,0,0
1,note_on,65,48,60
1,note_on,72,56,0
1,note_on,72,0,60
1,note_on,65,0,0
1,note_on,68,56,0
1,note_on,72,68,0
1,note_on,72,0,240
1,note_on,68,0,0
1,note_on,60,55,0
1,note_on,72,66,0
1,note_on,72,0,120
1,note_on,60,0,0
1,note_on,66,51,60
1,note_on,72,61,0
1,note_on,72,0,60
1,note_on,66,0,0
1,note_on,67,55,0
1,note_on,72,68,0
1,note_on,64,55,0
1,note_on,76,68,0
1,note_on,76,0,240
1,note_on,67,0,0
1,note_on,72,0,0
1,note_on,64,0,0
1,note_on,84,71,0
1,note_on,88,71,0
1,note_on,76,71,0
1,note_on,76,0,480
1,note_on,88,0,0
1,note_on,84,0,0
1,note_on,74,66,0
1,note_on,83,66,0
1,note_on,86,66,0
1,note_on,86,0,120
1,note_on,83,0,0
1,note_on,74,0,0
1,note_on,76,69,0
1,note_on,84,69,0
1,note_on,88,69,0
1,note_on,88,0,120
1,note_on,84,0,0
1,note_on,76,0,0
1,note_on,89,71,0
1,note_on,86,71,0
1,note_on,77,71,0
1,note_on,77,0,240
1,note_on,86,0,0
1,note_on,89,0,0
1,note_on,76,71,0
1,note_on,79,71,0
1,note_on,88,71,0
1,note_on,88,0,180
1,note_on,79,0,0
1,note_on,76,0,0
1,note_on,74,68,0
1,note_on,86,68,0
1,note_on,86,0,60
1,note_on,74,0,0
1,note_on,76,68,0
1,note_on,84,68,0
1,note_on,88,68,0
1,note_on,88,0,240
1,note_on,84,0,0
1,note_on,76,0,0
1,note_on,60,59,0
1,note_on,60,0,60
1,note_on,64,61,0
1,note_on,64,0,60
1,note_on,67,62,0
1,note_on,67,0,60
1,note_on,71,63,0
1,note_on,71,0,60
1,note_on,72,64,0
1,note_on,72,0,60
1,note_on,76,66,0
1,note_on,76,0,60
1,note_on,79,68,0
1,note_on,79,0,60
1,note_on,83,68,0
1,note_on,83,0,60
1,note_on,84,70,0
1,note_on,84,0,60
1,note_on,88,72,0
1,note_on,88,0,60
1,note_on,91,73,0
1,note_on,91,0,60
1,note_on,96,74,0
1,note_on,96,0,60
1,note_on,85,63,0
1,note_on,97,75,0
1,note_on,97,0,240
1,note_on,85,0,0
1,note_on,86,67,0
1,note_on,98,79,0
1,note_on,98,0,240
1,note_on,86,0,0
1,note_on,87,69,0
1,note_on,99,82,0
1,note_on,99,0,120
1,note_on,87,0,0
1,note_on,63,42,120
1,note_on,75,51,0
1,note_on,75,0,120
1,note_on,63,0,0
1,note_on,63,40,60
1,note_on,75,47,0
1,note_on,75,0,60
1,note_on,63,0,0
1,note_on,64,45,0
1,note_on,75,55,0
1,note_on,75,0,240
1,note_on,64,0,0
1,note_on,63,41,0
1,note_on,75,51,0
1,note_on,75,0,120
1,note_on,63,0,0
1,note_on,63,39,60
1,note_on,75,47,0
1,note_on,75,0,60
1,note_on,63,0,0
1,note_on,66,49,0
1,note_on,75,58,0
1,note_on,75,0,240
1,note_on,66,0,0
1,note_on,63,46,0
1,note_on,75,55,0
1,note_on,75,0,120
1,note_on,63,0,0
1,note_on,64,44,60
1,note_on,75,52,0
1,note_on,75,0,60
1,note_on,64,0,0
1,note_on,68,51,0
1,note_on,75,62,0
1,note_on,75,0,240
1,note_on,68,0,0
1,note_on,63,49,0
1,note_on,75,58,0
1,note_on,75,0,120
1,note_on,63,0,0
1,note_on,67,47,60
1,note_on,75,55,0
1,note_on,75,0,60
1,note_on,67,0,0
1,note_on,70,55,0
1,note_on,75,67,0
1,note_on,75,0,240
1,note_on,70,0,0
1,note_on,63,51,0
1,note_on,75,61,0
1,note_on,75,0,120
1,note_on,63,0,0
1,note_on,68,48,60
1,note_on,75,56,0
1,note_on,75,0,60
1,note_on,68,0,0
1,note_on,71,56,0
1,note_on,75,68,0
1,note_on,75,0,240
1,note_on,71,0,0
1,note_on,63,55,0
1,note_on,75,66,0
1,note_on,75,0,120
1,note_on,63,0,0
1,note_on,69,51,60
1,note_on,75,61,0
1,note_on,75,0,60
1,note_on,69,0,0
1,note_on,70,55,0
1,note_on,75,68,0
1,note_on,67,55,0
1,note_on,79,68,0
1,note_on,79,0,240
1,note_on,70,0,0
1,note_on,75,0,0
1,note_on,67,0,0
1,note_on,87,71,0
1,note_on,91,71,0
1,note_on,79,71,0
1,note_on,79,0,480
1,note_on,91,0,0
1,note_on,87,0,0
1,note_on,78,66,0
1,note_on,86,66,0
1,note_on,90,66,0
1,note_on,90,0,120
1,note_on,86,0,0
1,note_on,78,0,0
1,note_on,79,69,0
1,note_on,87,69,0
1,note_on,91,69,0
1,note_on,91,0,120
1,note_on,87,0,0
1,note_on,79,0,0
1,note_on,92,71,0
1,note_on,86,71,0
1,note_on,80,71,0
1,note_on,80,0,240
1,note_on,86,0,0
1,note_on,92,0,0
1,note_on,79,71,0
1,note_on,86,71,0
1,note_on,91,71,0
1,note_on,91,0,180
1,note_on,86,0,0
1,note_on,79,0,0
1,note_on,77,68,0
1,note_on,89,68,0
1,note_on,89,0,60
1,note_on,77,0,0
1,note_on,79,68,0
1,note_on,87,68,0
1,note_on,91,68,0
1,note_on,91,0,240
1,note_on,87,0,0
1,note_on,79,0,0
1,note_on,68,56,0
1,note_on,79,67,0
1,note_on,79,0,180
1,note_on,77,63,0
1,note_on,77,0,60
1,note_on,68,0,0
1,note_on,67,50,0
1,note_on,75,59,0
1,note_on,75,0,240
1,note_on,67,0,0
1,note_on,56,56,0
1,note_on,67,67,0
1,note_on,67,0,180
1,note_on,65,63,0
1,note_on,65,0,60
1,note_on,56,0,0
1,note_on,55,50,0
1,note_on,63,59,0
1,note_on,63,0,240
1,note_on,55,0,0
1,note_on,65,68,240
1,note_on,65,0,960
1,note_on,58,63,0
1,note_on,58,0,480
1,note_on,60,67,0
1,note_on,60,0,720
1,note_on,60,64,0
1,note_on,60,0,180
1,note_on,61,62,0
1,note_on,61,0,60
1,note_on,61,53,0
1,note_on,61,0,60
1,note_on,63,54,0
1,note_on,63,0,60
1,note_on,61,56,0
1,note_on,61,0,60
1,note_on,63,56,0
1,note_on,63,0,60
1,note_on,61,57,0
1,note_on,61,0,48
1,note_on,63,57,0
1,note_on,63,0,48
1,note_on,61,56,0
1,note_on,61,0,48
1,note_on,60,56,0
1,note_on,60,0,48
1,note_on,61,55,0
1,note_on,61,0,48
1,note_on,60,67,0
1,note_on,60,0,720
1,note_on,60,64,0
1,note_on,60,0,180
1,note_on,61,62,0
1,note_on,61,0,60
1,note_on,61,53,0
1,note_on,61,0,60
1,note_on,63,54,0
1,note_on,63,0,60
1,note_on,61,56,0
1,note_on,61,0,60
1,note_on,63,56,0
1,note_on,63,0,60
1,note_on,61,57,0
1,note_on,61,0,48
1,note_on,63,57,0
1,note_on,63,0,48
1,note_on,61,56,0
1,note_on,61,0,48
1,note_on,60,56,0
1,note_on,60,0,48
1,note_on,61,55,0
1,note_on,61,0,48
1,note_on,60,64,0
1,note_on,60,0,240
1,note_on,62,56,0
1,note_on,62,0,120
1,note_on,64,58,0
1,note_on,64,0,120
1,note_on,65,61,0
1,note_on,65,0,240
1,note_on,67,64,0
1,note_on,67,0,240
1,note_on,70,63,0
1,note_on,70,0,120
1,note_on,68,62,0
1,note_on,68,0,120
1,note_on,67,61,0
1,note_on,67,0,120
1,note_on,65,59,0
1,note_on,65,0,60
1,note_on,65,49,0
1,note_on,65,0,30
1,note_on,65,48,0
1,note_on,65,0,30
1,note_on,77,68,0
1,note_on,77,0,960
1,note_on,58,53,0
1,note_on,70,63,0
1,note_on,70,0,480
1,note_on,58,0,0
1,note_on,60,56,0
1,note_on,72,67,0
1,note_on,72,0,720
1,note_on,60,0,0
1,note_on,72,64,0
1,note_on,72,0,180
1,note_on,73,62,0
1,note_on,73,0,30
1,note_on,61,49,0
1,note_on,61,0,30
1,note_on,73,53,0
1,note_on,73,0,60
1,note_on,75,54,0
1,note_on,75,0,60
1,note_on,73,56,0
1,note_on,73,0,60
1,note_on,75,56,0
1,note_on,75,0,60
1,note_on,73,57,0
1,note_on,73,0,48
1,note_on,75,57,0
1,note_on,75,0,48
1,note_on,73,56,0
1,note_on,73,0,48
1,note_on,72,56,0
1,note_on,72,0,48
1,note_on,73,55,0
1,note_on,73,0,48
1,note_on,60,56,0
1,note_on,72,67,0
1,note_on,72,0,720
1,note_on,60,0,0
1,note_on,72,66,0
1,note_on,72,0,180
1,note_on,73,64,0
1,note_on,73,0,30
1,note_on,61,51,0
1,note_on,61,0,30
1,note_on,73,55,0
1,note_on,73,0,60
1,note_on,75,56,0
1,note_on,75,0,60
1,note_on,73,58,0
1,note_on,73,0,60
1,note_on,75,58,0
1,note_on,75,0,60
1,note_on,73,60,0
1,note_on,73,0,48
1,note_on,75,60,0
1,note_on,75,0,48
1,note_on,73,59,0
1,note_on,73,0,48
1,note_on,72,58,0
1,note_on,72,0,48
1,note_on,73,57,0
1,note_on,73,0,48
1,note_on,74,56,0
1,note_on,74,0,60
1,note_on,75,57,0
1,note_on,75,0,60
1,note_on,74,59,0
1,note_on,74,0,60
1,note_on,75,60,0
1,note_on,75,0,60
1,note_on,74,61,0
1,note_on,74,0,48
1,note_on,75,61,0
1,note_on,75,0,48
1,note_on,74,61,0
1,note_on,74,0,48
1,note_on,73,60,0
1,note_on,73,0,48
1,note_on,74,59,0
1,note_on,74,0,48
1,note_on,75,58,0
1,note_on,75,0,60
1,note_on,77,59,0
1,note_on,77,0,60
1,note_on,75,60,0
1,note_on,75,0,60
1,note_on,77,62,0
1,note_on,77,0,60
1,note_on,75,62,0
1,note_on,75,0,60
1,note_on,77,63,0
1,note_on,77,0,60
1,note_on,75,64,0
1,note_on,75,0,60
1,note_on,77,65,0
1,note_on,77,0,60
1,note_on,75,66,0
1,note_on,75,0,60
1,note_on,77,68,0
1,note_on,77,0,60
1,note_on,75,69,0
1,note_on,75,0,60
1,note_on,74,69,0
1,note_on,74,0,60
1,note_on,75,67,0
1,note_on,75,0,60
1,note_on,77,68,0
1,note_on,77,0,60
1,note_on,79,70,0
1,note_on,79,0,60
1,note_on,80,71,0
1,note_on,80,0,60
1,note_on,82,72,0
1,note_on,82,0,60
1,note_on,84,74,0
1,note_on,84,0,60
1,note_on,85,75,0
1,note_on,85,0,60
1,note_on,87,76,0
1,note_on,87,0,60
1,note_on,77,82,0
1,note_on,85,82,0
1,note_on,89,97,0
1,note_on,89,0,360
1,note_on,85,0,0
1,note_on,77,0,0
1,note_on,75,79,0
1,note_on,84,79,0
1,note_on,87,93,0
1,note_on,87,0,108
1,note_on,84,0,0
1,note_on,75,0,0
1,note_on,75,79,12
1,note_on,84,79,0
1,note_on,87,93,0
1,note_on,63,71,180
1,note_on,63,0,60
1,note_on,75,0,0
1,note_on,84,0,0
1,note_on,87,0,0
1,note_on,63,71,0
1,note_on,63,0,48
1,note_on,65,71,0
1,note_on,65,0,48
1,note_on,63,71,0
1,note_on,63,0,48
1,note_on,62,71,0
1,note_on,62,0,48
1,note_on,63,71,0
1,note_on,63,0,48
1,note_on,68,87,0
1,note_on,68,0,120
1,note_on,72,74,120
1,note_on,80,74,0
1,note_on,84,88,0
1,note_on,84,0,120
1,note_on,80,0,0
1,note_on,72,0,0
1,note_on,73,73,0
1,note_on,82,73,0
1,note_on,85,86,0
1,note_on,85,0,120
1,note_on,82,0,0
1,note_on,73,0,0
1,note_on,77,79,0
1,note_on,85,79,0
1,note_on,89,93,0
1,note_on,89,0,120
1,note_on,85,0,0
1,note_on,77,0,0
1,note_on,75,74,60
1,note_on,84,74,0
1,note_on,87,88,0
1,note_on,87,0,54
1,note_on,84,0,0
1,note_on,75,0,0
1,note_on,75,74,6
1,note_on,84,74,0
1,note_on,87,93,0
1,note_on,87,0,120
1,note_on,84,0,0
1,note_on,75,0,0
1,note_on,74,74,0
1,note_on,83,74,0
1,note_on,86,88,0
1,note_on,86,0,120
1,note_on,83,0,0
1,note_on,74,0,0
1,note_on,75,74,0
1,note_on,84,74,0
1,note_on,87,88,0
1,note_on,63,70,180
1,note_on,63,0,60
1,note_on,75,0,0
1,note_on,84,0,0
1,note_on,87,0,0
1,note_on,63,70,0
1,note_on,63,0,48
1,note_on,65,70,0
1,note_on,65,0,48
1,note_on,63,70,0
1,note_on,63,0,48
1,note_on,62,70,0
1,note_on,62,0,48
1,note_on,63,70,0
1,note_on,63,0,48
1,note_on,68,87,0
1,note_on,68,0,120
1,note_on,84,88,120
1,note_on,72,74,0
1,note_on,80,74,0
1,note_on,80,0,120
1,note_on,72,0,0
1,note_on,84,0,0
1,note_on,85,86,0
1,note_on,73,73,0
1,note_on,82,73,0
1,note_on,82,0,120
1,note_on,73,0,0
1,note_on,85,0,0
1,note_on,85,79,0
1,note_on,89,93,0
1,note_on,77,79,0
1,note_on,77,0,120
1,note_on,89,0,0
1,note_on,85,0,0
1,note_on,75,74,0
1,note_on,84,74,0
1,note_on,87,88,0
1,note_on,87,0,60
1,note_on,89,81,0
1,note_on,89,0,60
1,note_on,87,93,0
1,note_on,87,0,120
1,note_on,84,0,0
1,note_on,75,0,0
1,note_on,83,74,0
1,note_on,86,88,0
1,note_on,74,74,0
1,note_on,74,0,120
1,note_on,86,0,0
1,note_on,83,0,0
1,note_on,85,79,0
1,note_on,89,93,0
1,note_on,77,79,0
1,note_on,77,0,120
1,note_on,89,0,0
1,note_on,85,0,0
1,note_on,84,74,0
1,note_on,87,88,0
1,note_on,75,74,0
1,note_on,87,0,60
1,note_on,89,81,0
1,note_on,89,0,60
1,note_on,87,93,0
1,note_on,87,0,120
1,note_on,75,0,0
1,note_on,84,0,0
1,note_on,74,74,0
1,note_on,83,74,0
1,note_on,86,88,0
1,note_on,86,0,120
1,note_on,83,0,0
1,note_on,74,0,0
1,note_on,75,74,0
1,note_on,84,74,0
1,note_on,87,88,0
1,note_on,87,0,180
1,note_on,84,0,0
1,note_on,75,0,0
1,note_on,75,72,0
1,note_on,82,72,30
1,note_on,90,85,30
1,note_on,90,0,180
1,note_on,82,0,0
1,note_on,75,0,0
1,note_on,75,70,0
1,note_on,81,70,30
1,note_on,89,83,30
1,note_on,72,70,150
1,note_on,89,0,30
1,note_on,75,0,0
1,note_on,81,0,0
1,note_on,75,70,0
1,note_on,77,70,30
1,note_on,84,83,30
1,note_on,84,0,180
1,note_on,72,0,0
1,note_on,75,0,0
1,note_on,77,0,0
1,note_on,70,70,0
1,note_on,77,70,30
1,note_on,85,83,30
1,note_on,85,0,180
1,note_on,77,0,0
1,note_on,70,0,0
1,note_on,78,80,60
1,note_on,78,0,80
1,note_on,66,80,0
1,note_on,66,0,80
1,note_on,78,80,0
1,note_on,78,0,80
1,note_on,65,71,0
1,note_on,77,84,0
1,note_on,77,0,240
1,note_on,65,0,0
1,note_on,61,74,0
1,note_on,73,79,0
1,note_on,73,0,240
1,note_on,61,0,0
1,note_on,78,82,0
1,note_on,87,82,0
1,note_on,90,97,0
1,note_on,90,0,360
1,note_on,87,0,0
1,note_on,78,0,0
1,note_on,77,79,0
1,note_on,85,79,0
1,note_on,89,93,0
1,note_on,89,0,108
1,note_on,85,0,0
1,note_on,77,0,0
1,note_on,77,79,12
1,note_on,85,79,0
1,note_on,89,93,0
1,note_on,65,71,180
1,note_on,65,0,60
1,note_on,77,0,0
1,note_on,85,0,0
1,note_on,89,0,0
1,note_on,65,71,0
1,note_on,65,0,48
1,note_on,66,71,0
1,note_on,66,0,48
1,note_on,65,71,0
1,note_on,65,0,48
1,note_on,64,71,0
1,note_on,64,0,48
1,note_on,65,71,0
1,note_on,65,0,48
1,note_on,70,87,0
1,note_on,70,0,240
1,note_on,73,74,0
1,note_on,85,88,0
1,note_on,82,74,0
1,note_on,82,0,120
1,note_on,85,0,0
1,note_on,73,0,0
1,note_on,75,73,0
1,note_on,84,73,0
1,note_on,87,86,0
1,note_on,87,0,120
1,note_on,84,0,0
1,note_on,75,0,0
1,note_on,90,93,0
1,note_on,78,79,0
1,note_on,87,79,0
1,note_on,87,0,120
1,note_on,78,0,0
1,note_on,90,0,0
1,note_on,77,74,60
1,note_on,85,74,0
1,note_on,89,88,0
1,note_on,89,0,60
1,note_on,85,0,0
1,note_on,77,0,0
1,note_on,85,74,0
1,note_on,77,74,0
1,note_on,89,93,0
1,note_on,89,0,120
1,note_on,77,0,0
1,note_on,85,0,0
1,note_on,76,74,0
1,note_on,88,88,0
1,note_on,84,74,0
1,note_on,84,0,120
1,note_on,88,0,0
1,note_on,76,0,0
1,note_on,77,88,0
1,note_on,85,74,0
1,note_on,89,88,0
1,note_on,65,71,180
1,note_on,65,0,60
1,note_on,77,0,0
1,note_on,85,0,0
1,note_on,89,0,0
1,note_on,65,71,0
1,note_on,65,0,48
1,note_on,66,71,0
1,note_on,66,0,48
1,note_on,65,71,0
1,note_on,65,0,48
1,note_on,64,71,0
1,note_on,64,0,48
1,note_on,65,71,0
1,note_on,65,0,48
1,note_on,70,87,0
1,note_on,70,0,240
1,note_on,79,81,0
1,note_on,91,96,0
1,note_on,85,81,0
1,note_on,85,0,120
1,note_on,91,0,0
1,note_on,79,0,0
1,note_on,80,80,0
1,note_on,92,94,0
1,note_on,92,0,120
1,note_on,80,0,0
1,note_on,84,85,0
1,note_on,96,101,0
1,note_on,96,0,120
1,note_on,84,0,0
1,note_on,87,74,0
1,note_on,91,88,0
1,note_on,91,0,120
1,note_on,87,0,0
1,note_on,96,93,0
1,note_on,84,79,0
1,note_on,84,0,120
1,note_on,96,0,0
1,note_on,94,92,60
1,note_on,82,78,0
1,note_on,82,0,54
1,note_on,94,0,0
1,note_on,82,81,6
1,note_on,94,97,0
1,note_on,94,0,120
1,note_on,82,0,0
1,note_on,84,70,0
1,note_on,87,84,0
1,note_on,87,0,120
1,note_on,84,0,0
1,note_on,94,90,0
1,note_on,82,75,0
1,note_on,82,0,120
1,note_on,94,0,0
1,note_on,80,68,60
1,note_on,92,80,0
1,note_on,92,0,54
1,note_on,80,0,0
1,note_on,80,79,6
1,note_on,92,93,0
1,note_on,92,0,120
1,note_on,80,0,0
1,note_on,87,79,0
1,note_on,82,67,0
1,note_on,82,0,120
1,note_on,87,0,0
1,note_on,92,88,0
1,note_on,80,74,0
1,note_on,80,0,120
1,note_on,92,0,0
1,note_on,91,79,60
1,note_on,79,67,0
1,note_on,79,0,54
1,note_on,91,0,0
1,note_on,79,75,6
1,note_on,91,90,0
1,note_on,91,0,120
1,note_on,79,0,0
1,note_on,86,78,0
1,note_on,82,66,0
1,note_on,82,0,120
1,note_on,86,0,0
1,note_on,79,72,0
1,note_on,91,85,0
1,note_on,91,0,120
1,note_on,79,0,0
1,note_on,89,81,60
1,note_on,77,68,0
1,note_on,77,0,54
1,note_on,89,0,0
1,note_on,89,88,6
1,note_on,77,73,0
1,note_on,77,0,120
1,note_on,89,0,0
1,note_on,82,75,0
1,note_on,79,64,0
1,note_on,79,0,120
1,note_on,82,0,0
1,note_on,77,69,0
1,note_on,89,82,0
1,note_on,89,0,120
1,note_on,77,0,0
1,note_on,75,64,60
1,note_on,87,75,0
1,note_on,87,0,60
1,note_on,75,0,0
1,note_on,73,75,0
1,note_on,85,90,0
1,note_on,85,0,120
1,note_on,73,0,0
1,note_on,77,64,0
1,note_on,80,75,0
1,note_on,80,0,120
1,note_on,77,0,0
1,note_on,85,84,0
1,note_on,73,70,0
1,note_on,73,0,120
1,note_on,85,0,0
1,note_on,84,74,60
1,note_on,72,63,0
1,note_on,72,0,60
1,note_on,84,0,0
1,note_on,65,92,0
1,note_on,65,0,480
1,note_on,67,56,0
1,note_on,67,0,60
1,note_on,68,56,0
1,note_on,68,0,60
1,note_on,67,56,0
1,note_on,67,0,60
1,note_on,68,57,0
1,note_on,68,0,60
1,note_on,65,57,0
1,note_on,65,0,120
1,note_on,67,58,0
1,note_on,67,0,120
1,note_on,68,60,0
1,note_on,68,0,60
1,note_on,70,60,0
1,note_on,70,0,60
1,note_on,68,61,0
1,note_on,68,0,60
1,note_on,70,61,0
1,note_on,70,0,60
1,note_on,67,62,0
1,note_on,67,0,120
1,note_on,68,63,0
1,note_on,68,0,120
1,note_on,61,46,0
1,note_on,67,46,0
1,note_on,69,65,0
1,note_on,69,0,120
1,note_on,70,61,0
1,note_on,70,0,120
1,note_on,67,0,0
1,note_on,61,0,0
1,note_on,61,43,0
1,note_on,67,43,0
1,note_on,72,61,0
1,note_on,72,0,120
1,note_on,73,61,0
1,note_on,73,0,120
1,note_on,67,0,0
1,note_on,61,0,0
1,note_on,60,46,0
1,note_on,68,55,0
1,note_on,72,65,0
1,note_on,72,0,240
1,note_on,68,0,0
1,note_on,60,0,0
1,note_on,77,66,0
1,note_on,59,56,0
1,note_on,62,56,0
1,note_on,65,56,0
1,note_on,68,56,0
1,note_on,68,0,180
1,note_on,62,0,0
1,note_on,77,0,0
1,note_on,59,0,0
1,note_on,65,0,0
1,note_on,63,50,0
1,note_on,60,50,0
1,note_on,75,60,0
1,note_on,68,50,0
1,note_on,68,0,54
1,note_on,63,0,0
1,note_on,60,0,0
1,note_on,75,0,0
1,note_on,60,56,6
1,note_on,75,67,0
1,note_on,63,56,0
1,note_on,68,56,0
1,note_on,68,0,120
1,note_on,60,0,0
1,note_on,75,0,0
1,note_on,63,0,0
1,note_on,68,63,0
1,note_on,80,75,120
1,note_on,80,0,120
1,note_on,68,0,0
1,note_on,67,58,60
1,note_on,79,70,0
1,note_on,79,0,60
1,note_on,67,0,0
1,note_on,65,58,0
1,note_on,77,70,0
1,note_on,77,0,480
1,note_on,65,0,0
1,note_on,67,64,0
1,note_on,67,0,120
1,note_on,79,64,0
1,note_on,79,0,40
1,note_on,80,65,0
1,note_on,80,0,40
1,note_on,79,64,0
1,note_on,79,0,40
1,note_on,65,55,0
1,note_on,77,65,0
1,note_on,77,0,120
1,note_on,65,0,0
1,note_on,67,55,0
1,note_on,79,66,0
1,note_on,79,0,120
1,note_on,67,0,0
1,note_on,68,64,0
1,note_on,68,0,120
1,note_on,80,64,0
1,note_on,80,0,40
1,note_on,82,64,0
1,note_on,82,0,40
1,note_on,80,64,0
1,note_on,80,0,40
1,note_on,67,59,0
1,note_on,79,71,0
1,note_on,79,0,120
1,note_on,67,0,0
1,note_on,68,60,0
1,note_on,80,72,0
1,note_on,80,0,120
1,note_on,68,0,0
1,note_on,69,52,0
1,note_on,75,52,0
1,note_on,81,74,0
1,note_on,81,0,120
1,note_on,75,0,0
1,note_on,69,0,0
1,note_on,70,63,0
1,note_on,82,70,0
1,note_on,82,0,120
1,note_on,70,0,0
1,note_on,72,49,0
1,note_on,79,58,0
1,note_on,84,70,0
1,note_on,84,0,120
1,note_on,79,0,0
1,note_on,72,0,0
1,note_on,73,58,0
1,note_on,85,70,0
1,note_on,85,0,120
1,note_on,73,0,0
1,note_on,72,63,0
1,note_on,80,63,0
1,note_on,84,74,0
1,note_on,84,0,120
1,note_on,80,0,0
1,note_on,72,0,0
1,note_on,77,64,120
1,note_on,80,64,0
1,note_on,89,75,0
1,note_on,89,0,180
1,note_on,80,0,0
1,note_on,77,0,0
1,note_on,75,57,0
1,note_on,80,57,0
1,note_on,87,69,0
1,note_on,87,0,54
1,note_on,80,0,0
1,note_on,75,0,0
1,note_on,75,64,6
1,note_on,80,64,0
1,note_on,87,77,0
1,note_on,87,0,120
1,note_on,80,0,0
1,note_on,75,0,0
1,note_on,87,59,60
1,note_on,75,59,0
1,note_on,75,0,60
1,note_on,87,0,0
1,note_on,73,64,0
1,note_on,81,64,0
1,note_on,85,75,0
1,note_on,85,0,180
1,note_on,81,0,0
1,note_on,73,0,0
1,note_on,72,58,0
1,note_on,84,70,0
1,note_on,84,0,60
1,note_on,72,0,0
1,note_on,70,64,0
1,note_on,82,75,0
1,note_on,82,0,120
1,note_on,70,0,0
1,note_on,70,58,120
1,note_on,78,58,0
1,note_on,82,70,0
1,note_on,82,0,180
1,note_on,78,0,0
1,note_on,70,0,0
1,note_on,72,58,0
1,note_on,84,70,0
1,note_on,84,0,60
1,note_on,72,0,0
1,note_on,73,62,0
1,note_on,77,62,0
1,note_on,85,73,0
1,note_on,85,0,240
1,note_on,77,0,0
1,note_on,73,0,0
1,note_on,75,60,0
1,note_on,73,60,0
1,note_on,85,72,0
1,note_on,78,60,0
1,note_on,78,0,180
1,note_on,75,0,0
1,note_on,73,0,0
1,note_on,85,0,0
1,note_on,72,57,0
1,note_on,84,69,0
1,note_on,84,0,60
1,note_on,72,0,0
1,note_on,70,63,0
1,note_on,77,63,0
1,note_on,82,74,0
1,note_on,82,0,240
1,note_on,77,0,0
1,note_on,70,0,0
1,note_on,68,60,0
1,note_on,75,60,0
1,note_on,80,72,0
1,note_on,70,60,0
1,note_on,70,0,180
1,note_on,68,0,0
1,note_on,75,0,0
1,note_on,80,0,0
1,note_on,66,56,0
1,note_on,78,67,0
1,note_on,78,0,60
1,note_on,66,0,0
1,note_on,73,59,0
1,note_on,77,71,0
1,note_on,65,59,0
1,note_on,65,0,120
1,note_on,77,0,0
1,note_on,73,0,0
1,note_on,45,64,120
1,note_on,45,0,60
1,note_on,46,64,0
1,note_on,46,0,60
1,note_on,48,66,0
1,note_on,48,0,60
1,note_on,49,67,0
1,note_on,49,0,60
1,note_on,51,67,0
1,note_on,51,0,60
1,note_on,53,68,0
1,note_on,53,0,60
1,note_on,55,69,0
1,note_on,55,0,60
1,note_on,57,69,0
1,note_on,57,0,60
1,note_on,58,70,0
1,note_on,58,0,60
1,note_on,60,71,0
1,note_on,60,0,60
1,note_on,61,71,0
1,note_on,61,0,60
1,note_on,63,72,0
1,note_on,63,0,60
1,note_on,65,73,0
1,note_on,65,0,60
1,note_on,67,73,0
1,note_on,67,0,60
1,note_on,69,74,0
1,note_on,69,0,60
1,note_on,70,74,0
1,note_on,70,0,60
1,note_on,72,75,0
1,note_on,72,0,60
1,note_on,73,77,0
1,note_on,73,0,60
1,note_on,75,77,0
1,note_on,75,0,60
1,note_on,77,78,0
1,note_on,77,0,60
1,note_on,79,77,0
1,note_on,79,0,60
1,note_on,81,77,0
1,note_on,81,0,60
1,note_on,82,78,0
1,note_on,82,0,60
1,note_on,84,79,0
1,note_on,84,0,60
1,note_on,85,80,0
1,note_on,85,0,60
1,note_on,87,80,0
1,note_on,87,0,60
1,note_on,89,81,0
1,note_on,89,0,60
1,note_on,91,82,0
1,note_on,91,0,90
1,note_on,93,83,0
1,note_on,93,0,90
1,note_on,94,92,0
1,note_on,82,92,0
1,note_on,82,0,120
1,note_on,94,0,0
1,note_on,96,85,60
1,note_on,96,0,60
1,note_on,85,77,0
1,note_on,94,91,0
1,note_on,91,91,0
1,note_on,91,0,120
1,note_on,94,0,0
1,note_on,85,0,0
1,note_on,90,85,0
1,note_on,84,72,0
1,note_on,93,85,0
1,note_on,93,0,120
1,note_on,84,0,0
1,note_on,90,0,0
1,note_on,85,75,0
1,note_on,91,90,0
1,note_on,94,90,0
1,note_on,94,0,240
1,note_on,91,0,0
1,note_on,85,0,0
1,note_on,84,72,0
1,note_on,91,85,0
1,note_on,96,85,0
1,note_on,96,0,240
1,note_on,91,0,0
1,note_on,84,0,0
1,note_on,80,74,0
1,note_on,84,74,0
1,note_on,92,88,0
1,note_on,92,0,240
1,note_on,84,0,0
1,note_on,80,0,0
1,note_on,75,72,0
1,note_on,80,72,0
1,note_on,87,85,0
1,note_on,87,0,240
1,note_on,80,0,0
1,note_on,75,0,0
1,note_on,77,72,0
1,note_on,80,72,0
1,note_on,89,85,0
1,note_on,89,0,120
1,note_on,80,0,0
1,note_on,77,0,0
1,note_on,61,67,120
1,note_on,55,56,0
1,note_on,63,67,0
1,note_on,55,0,180
1,note_on,61,0,0
1,note_on,55,56,0
1,note_on,61,67,0
1,note_on,61,0,54
1,note_on,55,0,0
1,note_on,55,61,6
1,note_on,61,72,0
1,note_on,70,72,0
1,note_on,63,0,240
1,note_on,55,0,240
1,note_on,61,0,0
1,note_on,70,0,0
1,note_on,56,56,0
1,note_on,60,56,0
1,note_on,68,67,0
1,note_on,68,0,120
1,note_on,60,0,0
1,note_on,56,0,0
1,note_on,56,67,270
1,note_on,59,70,30
1,note_on,64,74,30
1,note_on,68,80,30
1,note_on,68,0,390
1,note_on,56,0,0
1,note_on,59,0,0
1,note_on,64,0,0
1,note_on,56,67,0
1,note_on,59,70,30
1,note_on,64,74,30
1,note_on,68,79,30
1,note_on,68,0,390
1,note_on,56,0,0
1,note_on,59,0,0
1,note_on,64,0,0
1,note_on,56,66,0
1,note_on,59,69,30
1,note_on,64,72,30
1,note_on,68,78,30
1,note_on,68,0,390
1,note_on,56,0,0
1,note_on,59,0,0
1,note_on,64,0,0
1,note_on,56,67,0
1,note_on,59,70,30
1,note_on,64,74,30
1,note_on,68,79,30
1,note_on,68,0,390
1,note_on,56,0,0
1,note_on,59,0,0
1,note_on,64,0,0
1,note_on,56,67,0
1,note_on,59,70,30
1,note_on,64,74,30
1,note_on,68,79,30
1,note_on,68,0,390
1,note_on,56,0,0
1,note_on,59,0,0
1,note_on,64,0,0
1,note_on,56,67,0
1,note_on,59,70,30
1,note_on,64,75,30
1,note_on,68,81,30
1,note_on,68,0,480
1,note_on,56,0,0
1,note_on,59,0,0
1,note_on,64,0,0
1,note_on,56,65,0
1,note_on,59,65,0
1,note_on,64,74,0
1,note_on,68,80,0
1,note_on,68,0,60
1,note_on,56,0,0
1,note_on,59,0,0
1,note_on,64,0,0
1,note_on,56,36,2820
1,note_on,59,44,0
1,note_on,59,0,960
1,note_on,56,0,0
1,note_on,57,34,0
1,note_on,59,41,0
1,note_on,59,0,360
1,note_on,57,0,0
1,note_on,57,36,0
1,note_on,59,43,0
1,note_on,59,0,120
1,note_on,57,0,0
1,note_on,56,36,0
1,note_on,59,43,0
1,note_on,59,0,360
1,note_on,56,0,0
1,note_on,56,35,0
1,note_on,64,41,0
1,note_on,64,0,120
1,note_on,56,0,0
1,note_on,56,39,0
1,note_on,59,39,0
1,note_on,68,46,0
1,note_on,68,0,480
1,note_on,59,0,0
1,note_on,56,0,0
1,note_on,57,33,0
1,note_on,59,33,0
1,note_on,66,40,0
1,note_on,66,0,480
1,note_on,59,0,0
1,note_on,57,0,0
1,note_on,56,35,0
1,note_on,59,42,0
1,note_on,59,0,360
1,note_on,56,0,0
1,note_on,56,34,0
1,note_on,64,41,0
1,note_on,64,0,120
1,note_on,56,0,0
1,note_on,56,36,0
1,note_on,59,36,0
1,note_on,68,44,0
1,note_on,68,0,240
1,note_on,59,0,0
1,note_on,56,0,0
1,note_on,57,34,120
1,note_on,63,40,0
1,note_on,63,0,120
1,note_on,57,0,0
1,note_on,56,34,0
1,note_on,64,41,0
1,note_on,64,0,240
1,note_on,56,0,0
1,note_on,56,35,0
1,note_on,64,35,0
1,note_on,68,41,0
1,note_on,68,0,240
1,note_on,64,0,0
1,note_on,56,0,0
1,note_on,59,39,0
1,note_on,68,39,0
1,note_on,71,46,0
1,note_on,71,0,240
1,note_on,68,0,0
1,note_on,59,0,0
1,note_on,61,39,0
1,note_on,68,39,0
1,note_on,73,47,0
1,note_on,73,0,60
1,note_on,68,0,0
1,note_on,61,0,0
1,note_on,63,40,60
1,note_on,68,40,0
1,note_on,75,48,0
1,note_on,75,0,60
1,note_on,68,0,0
1,note_on,63,0,0
1,note_on,64,42,60
1,note_on,68,42,0
1,note_on,76,50,0
1,note_on,76,0,120
1,note_on,68,0,0
1,note_on,64,0,0
1,note_on,59,38,120
1,note_on,68,38,0
1,note_on,71,45,0
1,note_on,71,0,120
1,note_on,68,0,0
1,note_on,59,0,0
1,note_on,68,45,120
1,note_on,71,45,0
1,note_on,80,53,0
1,note_on,80,0,480
1,note_on,71,0,0
1,note_on,68,0,0
1,note_on,59,40,0
1,note_on,66,40,0
1,note_on,69,40,0
1,note_on,71,48,0
1,note_on,71,0,720
1,note_on,59,0,0
1,note_on,66,0,0
1,note_on,69,0,0
1,note_on,59,41,0
1,note_on,69,41,0
1,note_on,71,49,0
1,note_on,71,0,60
1,note_on,69,0,0
1,note_on,59,0,0
1,note_on,59,41,60
1,note_on,69,41,0
1,note_on,71,49,0
1,note_on,71,0,60
1,note_on,69,0,0
1,note_on,59,0,0
1,note_on,59,43,60
1,note_on,69,43,0
1,note_on,71,51,0
1,note_on,71,0,120
1,note_on,69,0,0
1,note_on,59,0,0
1,note_on,59,40,120
1,note_on,69,40,0
1,note_on,71,48,0
1,note_on,71,0,120
1,note_on,69,0,0
1,note_on,59,0,0
1,note_on,59,44,120
1,note_on,68,44,0
1,note_on,71,52,0
1,note_on,71,0,360
1,note_on,68,0,0
1,note_on,59,0,0
1,note_on,64,41,0
1,note_on,68,41,0
1,note_on,76,50,0
1,note_on,76,0,108
1,note_on,68,0,0
1,note_on,64,0,0
1,note_on,64,44,12
1,note_on,68,44,0
1,note_on,76,52,0
1,note_on,76,0,480
1,note_on,68,0,0
1,note_on,64,0,0
1,note_on,59,40,0
1,note_on,64,40,0
1,note_on,68,48,0
1,note_on,68,0,480
1,note_on,64,0,0
1,note_on,59,0,0
1,note_on,57,45,0
1,note_on,59,45,0
1,note_on,66,53,0
1,note_on,59,0,240
1,note_on,57,0,0
1,note_on,57,43,0
1,note_on,59,51,0
1,note_on,59,0,60
1,note_on,57,0,0
1,note_on,59,51,60
1,note_on,57,43,0
1,note_on,57,0,60
1,note_on,59,0,0
1,note_on,57,45,60
1,note_on,59,54,0
1,note_on,59,0,120
1,note_on,57,0,0
1,note_on,66,0,120
1,note_on,57,44,0
1,note_on,59,44,0
1,note_on,66,52,0
1,note_on,66,0,240
1,note_on,59,0,0
1,note_on,57,0,0
1,note_on,57,44,0
1,note_on,59,44,0
1,note_on,68,52,0
1,note_on,68,0,60
1,note_on,59,0,0
1,note_on,57,0,0
1,note_on,57,43,60
1,note_on,59,43,0
1,note_on,66,51,0
1,note_on,66,0,60
1,note_on,59,0,0
1,note_on,57,0,0
1,note_on,57,42,60
1,note_on,59,42,0
1,note_on,64,50,0
1,note_on,64,0,60
1,note_on,59,0,0
1,note_on,57,0,0
1,note_on,63,40,60
1,note_on,57,40,0
1,note_on,59,40,0
1,note_on,66,48,0
1,note_on,66,0,60
1,note_on,63,0,0
1,note_on,57,0,0
1,note_on,59,0,0
1,note_on,56,52,60
1,note_on,64,44,0
1,note_on,68,52,0
1,note_on,56,0,360
1,note_on,61,50,0
1,note_on,61,0,120
1,note_on,59,52,0
1,note_on,68,0,360
1,note_on,64,0,0
1,note_on,68,42,0
1,note_on,71,51,0
1,note_on,71,0,108
1,note_on,68,0,0
1,note_on,68,42,12
1,note_on,71,51,0
1,note_on,71,0,480
1,note_on,68,0,0
1,note_on,59,0,0
1,note_on,56,45,0
1,note_on,59,53,0
1,note_on,59,0,720
1,note_on,56,0,0
1,note_on,55,45,0
1,note_on,59,54,0
1,note_on,59,0,60
1,note_on,55,0,0
1,note_on,56,46,60
1,note_on,59,54,0
1,note_on,59,0,60
1,note_on,56,0,0
1,note_on,57,48,60
1,note_on,59,57,0
1,note_on,59,0,120
1,note_on,57,0,0
1,note_on,57,47,120
1,note_on,61,55,0
1,note_on,61,0,60
1,note_on,57,0,0
1,note_on,57,48,60
1,note_on,63,57,0
1,note_on,63,0,60
1,note_on,57,0,0
1,note_on,56,51,60
1,note_on,64,61,0
1,note_on,64,0,360
1,note_on,56,0,0
1,note_on,56,49,0
1,note_on,59,49,0
1,note_on,59,0,108
1,note_on,56,0,0
1,note_on,56,51,12
1,note_on,59,51,0
1,note_on,68,61,0
1,note_on,68,0,480
1,note_on,59,0,0
1,note_on,56,0,0
1,note_on,57,53,0
1,note_on,59,53,0
1,note_on,66,63,0
1,note_on,66,0,480
1,note_on,59,0,0
1,note_on,57,0,0
1,note_on,56,57,0
1,note_on,59,67,0
1,note_on,59,0,360
1,note_on,56,0,0
1,note_on,56,60,0
1,note_on,64,71,0
1,note_on,64,0,108
1,note_on,56,0,0
1,note_on,56,61,12
1,note_on,59,61,0
1,note_on,68,72,0
1,note_on,68,0,240
1,note_on,59,0,0
1,note_on,56,0,0
1,note_on,57,59,120
1,note_on,63,71,0
1,note_on,63,0,120
1,note_on,57,0,0
1,note_on,56,61,0
1,note_on,64,73,0
1,note_on,64,0,240
1,note_on,56,0,0
1,note_on,56,63,0
1,note_on,64,63,0
1,note_on,68,76,0
1,note_on,68,0,240
1,note_on,64,0,0
1,note_on,56,0,0
1,note_on,59,66,0
1,note_on,68,66,0
1,note_on,71,78,0
1,note_on,71,0,480
1,note_on,68,0,0
1,note_on,59,0,0
1,note_on,61,61,0
1,note_on,68,61,0
1,note_on,73,72,0
1,note_on,73,0,120
1,note_on,68,0,0
1,note_on,61,0,0
1,note_on,63,64,0
1,note_on,68,64,0
1,note_on,75,75,0
1,note_on,75,0,120
1,note_on,68,0,0
1,note_on,63,0,0
1,note_on,64,64,0
1,note_on,68,64,0
1,note_on,76,77,0
1,note_on,76,0,120
1,note_on,68,0,0
1,note_on,64,0,0
1,note_on,66,68,0
1,note_on,71,68,0
1,note_on,78,82,0
1,note_on,78,0,120
1,note_on,71,0,0
1,note_on,66,0,0
1,note_on,71,85,0
1,note_on,68,71,0
1,note_on,76,71,0
1,note_on,80,85,0
1,note_on,71,0,360
1,note_on,70,81,0
1,note_on,68,0,120
1,note_on,80,0,0
1,note_on,76,0,0
1,note_on,67,74,0
1,note_on,75,74,0
1,note_on,79,88,0
1,note_on,79,0,720
1,note_on,70,0,0
1,note_on,67,0,0
1,note_on,75,0,0
1,note_on,58,72,0
1,note_on,67,72,0
1,note_on,70,86,0
1,note_on,67,0,240
1,note_on,58,0,0
1,note_on,63,76,0
1,note_on,67,76,0
1,note_on,75,90,0
1,note_on,67,0,240
1,note_on,70,0,0
1,note_on,63,0,0
1,note_on,67,81,0
1,note_on,70,81,0
1,note_on,79,96,0
1,note_on,79,0,240
1,note_on,75,0,0
1,note_on,67,0,0
1,note_on,70,0,0
1,note_on,70,85,0
1,note_on,79,85,0
1,note_on,82,101,0
1,note_on,82,0,360
1,note_on,79,0,0
1,note_on,70,0,0
1,note_on,75,83,0
1,note_on,79,83,0
1,note_on,87,99,0
1,note_on,79,0,120
1,note_on,75,0,0
1,note_on,75,84,0
1,note_on,79,100,0
1,note_on,79,0,360
1,note_on,75,0,0
1,note_on,75,81,0
1,note_on,67,81,0
1,note_on,79,96,0
1,note_on,67,0,120
1,note_on,75,0,0
1,note_on,67,81,0
1,note_on,75,81,0
1,note_on,75,0,240
1,note_on,79,0,0
1,note_on,87,0,0
1,note_on,67,0,0
1,note_on,72,78,0
1,note_on,84,92,0
1,note_on,79,78,0
1,note_on,79,0,120
1,note_on,84,0,0
1,note_on,72,0,0
1,note_on,70,85,120
1,note_on,79,85,0
1,note_on,82,102,0
1,note_on,82,0,480
1,note_on,79,0,0
1,note_on,70,0,0
1,note_on,58,83,240
1,note_on,70,98,0
1,note_on,70,0,60
1,note_on,58,0,0
1,note_on,58,83,60
1,note_on,70,98,0
1,note_on,70,0,60
1,note_on,58,0,0
1,note_on,58,89,60
1,note_on,70,106,0
1,note_on,68,89,0
1,note_on,68,0,120
1,note_on,70,0,0
1,note_on,58,0,0
1,note_on,65,86,120
1,note_on,68,86,0
1,note_on,70,86,0
1,note_on,77,101,0
1,note_on,77,0,120
1,note_on,65,0,0
1,note_on,68,0,0
1,note_on,70,0,0
1,note_on,63,94,120
1,note_on,67,94,0
1,note_on,75,111,0
1,note_on,75,0,120
1,note_on,67,0,0
1,note_on,63,0,0
1,note_on,51,70,30
1,note_on,57,72,30
1,note_on,59,74,30
1,note_on,63,77,30
1,note_on,63,0,150
1,note_on,51,0,0
1,note_on,57,0,0
1,note_on,59,0,0
1,note_on,51,72,0
1,note_on,57,75,30
1,note_on,59,78,30
1,note_on,63,81,30
1,note_on,63,0,150
1,note_on,51,0,0
1,note_on,57,0,0
1,note_on,59,0,0
1,note_on,51,74,0
1,note_on,57,78,30
1,note_on,59,80,30
1,note_on,63,83,30
1,note_on,63,0,150
1,note_on,51,0,0
1,note_on,57,0,0
1,note_on,59,0,0
1,note_on,51,77,0
1,note_on,57,80,30
1,note_on,59,82,30
1,note_on,63,86,30
1,note_on,63,0,150
1,note_on,51,0,0
1,note_on,57,0,0
1,note_on,59,0,0
1,note_on,51,80,0
1,note_on,57,83,30
1,note_on,59,85,30
1,note_on,63,89,30
1,note_on,63,0,240
1,note_on,51,0,0
1,note_on,57,0,0
1,note_on,59,0,0
1,note_on,52,84,0
1,note_on,56,84,0
1,note_on,64,99,0
1,note_on,64,0,120
1,note_on,56,0,0
1,note_on,52,0,0
1,note_on,56,79,270
1,note_on,59,80,30
1,note_on,64,80,30
1,note_on,68,80,30
1,note_on,68,0,390
1,note_on,56,0,0
1,note_on,59,0,0
1,note_on,64,0,0
1,note_on,56,78,0
1,note_on,59,78,30
1,note_on,64,77,30
1,note_on,68,77,30
1,note_on,68,0,390
1,note_on,56,0,0
1,note_on,59,0,0
1,note_on,64,0,0
1,note_on,56,75,0
1,note_on,59,75,30
1,note_on,64,75,30
1,note_on,68,74,30
1,note_on,68,0,390
1,note_on,56,0,0
1,note_on,59,0,0
1,note_on,64,0,0
1,note_on,56,72,0
1,note_on,59,72,30
1,note_on,64,72,30
1,note_on,68,72,30
1,note_on,68,0,390
1,note_on,56,0,0
1,note_on,59,0,0
1,note_on,64,0,0
1,note_on,56,69,0
1,note_on,59,69,30
1,note_on,64,69,30
1,note_on,68,69,30
1,note_on,68,0,480
1,note_on,56,0,0
1,note_on,59,0,0
1,note_on,64,0,0
1,note_on,56,66,0
1,note_on,59,66,0
1,note_on,64,66,0
1,note_on,68,66,0
1,note_on,68,0,60
1,note_on,56,0,0
1,note_on,59,0,0
1,note_on,64,0,0
1,note_on,56,37,2820
1,note_on,59,44,0
1,note_on,59,0,960
1,note_on,56,0,0
1,note_on,57,35,0
1,note_on,59,42,0
1,note_on,59,0,360
1,note_on,57,0,0
1,note_on,57,36,0
1,note_on,59,44,0
1,note_on,59,0,120
1,note_on,57,0,0
1,note_on,56,36,0
1,note_on,59,44,0
1,note_on,59,0,360
1,note_on,56,0,0
1,note_on,56,35,0
1,note_on,64,41,0
1,note_on,64,0,108
1,note_on,56,0,0
1,note_on,56,39,12
1,note_on,59,39,0
1,note_on,68,46,0
1,note_on,68,0,480
1,note_on,59,0,0
1,note_on,56,0,0
1,note_on,57,33,0
1,note_on,59,33,0
1,note_on,66,40,0
1,note_on,66,0,480
1,note_on,59,0,0
1,note_on,57,0,0
1,note_on,56,35,0
1,note_on,59,42,0
1,note_on,59,0,360
1,note_on,56,0,0
1,note_on,56,35,0
1,note_on,64,42,0
1,note_on,64,0,108
1,note_on,56,0,0
1,note_on,56,36,12
1,note_on,59,36,0
1,note_on,68,44,0
1,note_on,68,0,240
1,note_on,59,0,0
1,note_on,56,0,0
1,note_on,57,34,120
1,note_on,63,41,0
1,note_on,63,0,120
1,note_on,57,0,0
1,note_on,56,35,0
1,note_on,64,42,0
1,note_on,64,0,240
1,note_on,56,0,0
1,note_on,56,36,0
1,note_on,64,36,0
1,note_on,68,42,0
1,note_on,68,0,240
1,note_on,64,0,0
1,note_on,56,0,0
1,note_on,59,39,0
1,note_on,68,39,0
1,note_on,71,47,0
1,note_on,71,0,240
1,note_on,68,0,0
1,note_on,59,0,0
1,note_on,61,39,0
1,note_on,68,39,0
1,note_on,73,47,0
1,note_on,73,0,60
1,note_on,68,0,0
1,note_on,61,0,0
1,note_on,63,40,60
1,note_on,68,40,0
1,note_on,75,49,0
1,note_on,75,0,60
1,note_on,68,0,0
1,note_on,63,0,0
1,note_on,64,43,60
1,note_on,68,43,0
1,note_on,76,51,0
1,note_on,76,0,120
1,note_on,68,0,0
1,note_on,64,0,0
1,note_on,59,39,120
1,note_on,68,39,0
1,note_on,71,45,0
1,note_on,71,0,120
1,note_on,68,0,0
1,note_on,59,0,0
1,note_on,68,45,120
1,note_on,71,45,0
1,note_on,80,54,0
1,note_on,80,0,480
1,note_on,71,0,0
1,note_on,68,0,0
1,note_on,59,34,0
1,note_on,66,34,0
1,note_on,69,41,0
1,note_on,71,49,0
1,note_on,71,0,720
1,note_on,59,0,0
1,note_on,66,0,0
1,note_on,69,0,0
1,note_on,59,42,0
1,note_on,69,42,0
1,note_on,71,50,0
1,note_on,71,0,60
1,note_on,69,0,0
1,note_on,59,0,0
1,note_on,59,42,60
1,note_on,69,42,0
1,note_on,71,50,0
1,note_on,71,0,60
1,note_on,69,0,0
1,note_on,59,0,0
1,note_on,59,43,60
1,note_on,69,43,0
1,note_on,71,52,0
1,note_on,71,0,120
1,note_on,69,0,0
1,note_on,59,0,0
1,note_on,59,41,120
1,note_on,69,41,0
1,note_on,71,49,0
1,note_on,71,0,120
1,note_on,69,0,0
1,note_on,59,0,0
1,note_on,59,45,120
1,note_on,68,45,0
1,note_on,71,53,0
1,note_on,71,0,360
1,note_on,68,0,0
1,note_on,59,0,0
1,note_on,64,42,0
1,note_on,68,42,0
1,note_on,76,50,0
1,note_on,76,0,108
1,note_on,68,0,0
1,note_on,64,0,0
1,note_on,64,44,12
1,note_on,68,44,0
1,note_on,76,53,0
1,note_on,76,0,480
1,note_on,68,0,0
1,note_on,64,0,0
1,note_on,59,41,0
1,note_on,64,41,0
1,note_on,68,49,0
1,note_on,68,0,480
1,note_on,64,0,0
1,note_on,59,0,0
1,note_on,57,46,0
1,note_on,59,46,0
1,note_on,66,54,0
1,note_on,59,0,240
1,note_on,57,0,0
1,note_on,57,44,0
1,note_on,59,52,0
1,note_on,59,0,60
1,note_on,57,0,0
1,note_on,59,52,60
1,note_on,57,44,0
1,note_on,57,0,60
1,note_on,59,0,0
1,note_on,57,45,60
1,note_on,59,54,0
1,note_on,59,0,120
1,note_on,57,0,0
1,note_on,66,0,120
1,note_on,57,45,0
1,note_on,59,45,0
1,note_on,66,54,0
1,note_on,66,0,240
1,note_on,59,0,0
1,note_on,57,0,0
1,note_on,57,45,0
1,note_on,59,45,0
1,note_on,68,53,0
1,note_on,68,0,60
1,note_on,59,0,0
1,note_on,57,0,0
1,note_on,57,44,60
1,note_on,59,44,0
1,note_on,66,52,0
1,note_on,66,0,60
1,note_on,59,0,0
1,note_on,57,0,0
1,note_on,57,43,60
1,note_on,59,43,0
1,note_on,64,51,0
1,note_on,64,0,60
1,note_on,59,0,0
1,note_on,57,0,0
1,note_on,63,41,60
1,note_on,57,41,0
1,note_on,59,41,0
1,note_on,66,50,0
1,note_on,66,0,60
1,note_on,63,0,0
1,note_on,57,0,0
1,note_on,59,0,0
1,note_on,56,53,60
1,note_on,64,45,0
1,note_on,68,53,0
1,note_on,56,0,360
1,note_on,61,51,0
1,note_on,61,0,120
1,note_on,59,54,0
1,note_on,68,0,360
1,note_on,64,0,0
1,note_on,68,43,0
1,note_on,71,52,0
1,note_on,71,0,108
1,note_on,68,0,0
1,note_on,68,43,12
1,note_on,71,52,0
1,note_on,71,0,480
1,note_on,68,0,0
1,note_on,59,0,0
1,note_on,56,45,0
1,note_on,59,53,0
1,note_on,59,0,720
1,note_on,56,0,0
1,note_on,55,45,0
1,note_on,59,54,0
1,note_on,59,0,60
1,note_on,55,0,0
1,note_on,56,46,60
1,note_on,59,54,0
1,note_on,59,0,60
1,note_on,56,0,0
1,note_on,57,48,60
1,note_on,59,57,0
1,note_on,59,0,120
1,note_on,57,0,0
1,note_on,57,47,120
1,note_on,61,55,0
1,note_on,61,0,60
1,note_on,57,0,0
1,note_on,57,48,60
1,note_on,63,57,0
1,note_on,63,0,60
1,note_on,57,0,0
1,note_on,56,51,60
1,note_on,64,61,0
1,note_on,64,0,360
1,note_on,56,0,0
1,note_on,56,49,0
1,note_on,59,49,0
1,note_on,59,0,108
1,note_on,56,0,0
1,note_on,56,51,12
1,note_on,59,51,0
1,note_on,68,61,0
1,note_on,68,0,480
1,note_on,59,0,0
1,note_on,56,0,0
1,note_on,57,53,0
1,note_on,59,53,0
1,note_on,66,63,0
1,note_on,66,0,480
1,note_on,59,0,0
1,note_on,57,0,0
1,note_on,56,57,0
1,note_on,59,67,0
1,note_on,59,0,360
1,note_on,56,0,0
1,note_on,56,60,0
1,note_on,64,71,0
1,note_on,64,0,108
1,note_on,56,0,0
1,note_on,56,61,12
1,note_on,59,61,0
1,note_on,68,72,0
1,note_on,68,0,240
1,note_on,59,0,0
1,note_on,56,0,0
1,note_on,57,58,120
1,note_on,63,70,0
1,note_on,63,0,120
1,note_on,57,0,0
1,note_on,56,61,0
1,note_on,64,73,0
1,note_on,64,0,240
1,note_on,56,0,0
1,note_on,56,63,0
1,note_on,64,63,0
1,note_on,68,76,0
1,note_on,68,0,240
1,note_on,64,0,0
1,note_on,56,0,0
1,note_on,59,66,0
1,note_on,68,66,0
1,note_on,71,78,0
1,note_on,71,0,480
1,note_on,68,0,0
1,note_on,59,0,0
1,note_on,61,61,0
1,note_on,68,61,0
1,note_on,73,72,0
1,note_on,73,0,120
1,note_on,68,0,0
1,note_on,61,0,0
1,note_on,63,64,0
1,note_on,68,64,0
1,note_on,75,75,0
1,note_on,75,0,120
1,note_on,68,0,0
1,note_on,63,0,0
1,note_on,64,64,0
1,note_on,68,64,0
1,note_on,76,77,0
1,note_on,76,0,120
1,note_on,68,0,0
1,note_on,64,0,0
1,note_on,66,67,0
1,note_on,71,67,0
1,note_on,78,81,0
1,note_on,78,0,120
1,note_on,71,0,0
1,note_on,66,0,0
1,note_on,71,85,0
1,note_on,68,71,0
1,note_on,76,71,0
1,note_on,80,85,0
1,note_on,71,0,360
1,note_on,70,81,0
1,note_on,68,0,120
1,note_on,80,0,0
1,note_on,76,0,0
1,note_on,67,74,0
1,note_on,75,74,0
1,note_on,79,88,0
1,note_on,79,0,720
1,note_on,70,0,0
1,note_on,67,0,0
1,note_on,75,0,0
1,note_on,58,72,0
1,note_on,67,72,0
1,note_on,70,86,0
1,note_on,67,0,240
1,note_on,58,0,0
1,note_on,63,76,0
1,note_on,67,76,0
1,note_on,75,90,0
1,note_on,67,0,240
1,note_on,70,0,0
1,note_on,63,0,0
1,note_on,67,81,0
1,note_on,70,81,0
1,note_on,79,96,0
1,note_on,79,0,240
1,note_on,75,0,0
1,note_on,67,0,0
1,note_on,70,0,0
1,note_on,70,85,0
1,note_on,79,85,0
1,note_on,82,101,0
1,note_on,82,0,360
1,note_on,79,0,0
1,note_on,70,0,0
1,note_on,75,83,0
1,note_on,79,83,0
1,note_on,87,99,0
1,note_on,79,0,120
1,note_on,75,0,0
1,note_on,75,84,0
1,note_on,79,100,0
1,note_on,79,0,360
1,note_on,75,0,0
1,note_on,75,81,0
1,note_on,67,81,0
1,note_on,79,96,0
1,note_on,67,0,120
1,note_on,75,0,0
1,note_on,67,81,0
1,note_on,75,81,0
1,note_on,75,0,240
1,note_on,79,0,0
1,note_on,87,0,0
1,note_on,67,0,0
1,note_on,72,78,0
1,note_on,84,92,0
1,note_on,79,78,0
1,note_on,79,0,120
1,note_on,84,0,0
1,note_on,72,0,0
1,note_on,70,85,120
1,note_on,79,85,0
1,note_on,82,102,0
1,note_on,82,0,480
1,note_on,79,0,0
1,note_on,70,0,0
1,note_on,58,83,240
1,note_on,70,98,0
1,note_on,70,0,60
1,note_on,58,0,0
1,note_on,58,83,60
1,note_on,70,98,0
1,note_on,70,0,60
1,note_on,58,0,0
1,note_on,58,89,60
1,note_on,70,106,0
1,note_on,68,89,0
1,note_on,68,0,120
1,note_on,70,0,0
1,note_on,58,0,0
1,note_on,65,86,120
1,note_on,68,86,0
1,note_on,70,86,0
1,note_on,77,101,0
1,note_on,77,0,120
1,note_on,65,0,0
1,note_on,68,0,0
1,note_on,70,0,0
1,note_on,63,83,120
1,note_on,67,94,0
1,note_on,75,111,0
1,note_on,75,0,120
1,note_on,67,0,0
1,note_on,63,0,0
1,note_on,63,67,120
1,note_on,75,79,0
1,note_on,75,0,60
1,note_on,63,0,0
1,note_on,63,63,60
1,note_on,75,75,0
1,note_on,75,0,60
1,note_on,63,0,0
1,note_on,63,68,60
1,note_on,75,81,0
1,note_on,75,0,240
1,note_on,63,0,0
1,note_on,63,66,0
1,note_on,75,78,0
1,note_on,75,0,60
1,note_on,63,0,0
1,note_on,63,62,60
1,note_on,75,73,0
1,note_on,75,0,60
1,note_on,63,0,0
1,note_on,63,67,60
1,note_on,75,79,0
1,note_on,75,0,240
1,note_on,63,0,0
1,note_on,63,62,0
1,note_on,75,74,0
1,note_on,75,0,60
1,note_on,63,0,0
1,note_on,63,60,60
1,note_on,75,71,0
1,note_on,75,0,60
1,note_on,63,0,0
1,note_on,61,51,60
1,note_on,63,51,0
1,note_on,75,81,0
1,note_on,63,0,240
1,note_on,61,0,0
1,note_on,63,55,0
1,note_on,63,0,60
1,note_on,63,54,60
1,note_on,63,0,60
1,note_on,75,0,60
1,note_on,63,54,0
1,note_on,70,71,0
1,note_on,63,0,240
1,note_on,63,54,0
1,note_on,63,0,60
1,note_on,63,53,60
1,note_on,63,0,60
1,note_on,70,0,60
1,note_on,60,58,0
1,note_on,66,58,0
1,note_on,72,68,0
1,note_on,72,0,240
1,note_on,66,0,0
1,note_on,60,0,0
1,note_on,66,56,0
1,note_on,77,66,0
1,note_on,77,0,120
1,note_on,66,0,0
1,note_on,66,54,0
1,note_on,75,64,0
1,note_on,75,0,120
1,note_on,66,0,0
1,note_on,65,57,0
1,note_on,75,68,0
1,note_on,75,0,120
1,note_on,73,64,0
1,note_on,73,0,120
1,note_on,65,0,0
1,note_on,65,54,0
1,note_on,73,64,0
1,note_on,73,0,60
1,note_on,65,0,0
1,note_on,65,49,60
1,note_on,72,59,0
1,note_on,72,0,60
1,note_on,65,0,0
1,note_on,65,52,60
1,note_on,70,62,0
1,note_on,65,0,240
1,note_on,65,53,0
1,note_on,65,0,108
1,note_on,65,53,12
1,note_on,65,0,108
1,note_on,70,0,12
1,note_on,60,54,0
1,note_on,64,54,0
1,note_on,72,64,0
1,note_on,64,0,240
1,note_on,60,0,0
1,note_on,60,54,0
1,note_on,64,54,0
1,note_on,64,0,108
1,note_on,60,0,0
1,note_on,60,53,12
1,note_on,64,53,0
1,note_on,64,0,108
1,note_on,60,0,0
1,note_on,72,0,12
1,note_on,65,57,0
1,note_on,60,57,0
1,note_on,70,68,0
1,note_on,70,0,120
1,note_on,68,64,0
1,note_on,68,0,120
1,note_on,60,0,0
1,note_on,65,0,0
1,note_on,60,54,0
1,note_on,68,64,0
1,note_on,68,0,60
1,note_on,60,0,0
1,note_on,60,49,60
1,note_on,67,59,0
1,note_on,67,0,60
1,note_on,60,0,0
1,note_on,60,52,60
1,note_on,65,62,0
1,note_on,60,0,240
1,note_on,60,50,0
1,note_on,62,50,0
1,note_on,62,0,108
1,note_on,60,0,0
1,note_on,60,50,12
1,note_on,62,50,0
1,note_on,62,0,108
1,note_on,60,0,0
1,note_on,65,0,12
1,note_on,59,54,0
1,note_on,62,54,0
1,note_on,67,64,0
1,note_on,62,0,240
1,note_on,59,0,0
1,note_on,59,51,0
1,note_on,62,51,0
1,note_on,62,0,108
1,note_on,59,0,0
1,note_on,59,50,12
1,note_on,62,50,0
1,note_on,62,0,108
1,note_on,59,0,0
1,note_on,67,0,12
1,note_on,60,47,0
1,note_on,63,56,0
1,note_on,63,0,60
1,note_on,65,56,0
1,note_on,65,0,60
1,note_on,63,62,0
1,note_on,63,0,120
1,note_on,60,0,0
1,note_on,59,49,0
1,note_on,62,58,0
1,note_on,62,0,120
1,note_on,59,0,0
1,note_on,60,49,0
1,note_on,63,59,0
1,note_on,63,0,120
1,note_on,60,0,0
1,note_on,65,56,0
1,note_on,62,47,0
1,note_on,65,0,60
1,note_on,67,56,0
1,note_on,67,0,60
1,note_on,65,62,0
1,note_on,65,0,120
1,note_on,62,0,0
1,note_on,60,49,0
1,note_on,63,58,0
1,note_on,63,0,120
1,note_on,60,0,0
1,note_on,62,59,0
1,note_on,65,59,0
1,note_on,65,0,120
1,note_on,62,0,0
1,note_on,55,54,0
1,note_on,67,64,0
1,note_on,63,54,0
1,note_on,63,0,240
1,note_on,55,0,0
1,note_on,63,51,0
1,note_on,55,51,0
1,note_on,55,0,108
1,note_on,63,0,0
1,note_on,63,50,12
1,note_on,55,50,0
1,note_on,55,0,108
1,note_on,63,0,0
1,note_on,67,0,12
1,note_on,74,51,0
1,note_on,65,51,0
1,note_on,67,51,0
1,note_on,79,81,0
1,note_on,67,0,240
1,note_on,74,0,0
1,note_on,65,0,0
1,note_on,67,55,0
1,note_on,65,55,0
1,note_on,65,0,108
1,note_on,67,0,0
1,note_on,67,54,12
1,note_on,65,54,0
1,note_on,65,0,108
1,note_on,67,0,0
1,note_on,79,0,12
1,note_on,67,54,0
1,note_on,65,54,0
1,note_on,74,71,0
1,note_on,65,0,240
1,note_on,67,0,0
1,note_on,67,54,0
1,note_on,65,54,0
1,note_on,65,0,108
1,note_on,67,0,0
1,note_on,67,53,12
1,note_on,65,53,0
1,note_on,65,0,108
1,note_on,67,0,0
1,note_on,74,0,12
1,note_on,70,58,0
1,note_on,64,58,0
1,note_on,72,58,0
1,note_on,76,68,0
1,note_on,72,0,240
1,note_on,70,0,0
1,note_on,64,0,0
1,note_on,70,56,0
1,note_on,64,56,0
1,note_on,72,56,0
1,note_on,72,0,108
1,note_on,64,0,0
1,note_on,70,0,0
1,note_on,70,57,12
1,note_on,64,54,0
1,note_on,72,57,0
1,note_on,72,0,108
1,note_on,64,0,0
1,note_on,70,0,0
1,note_on,76,0,12
1,note_on,68,57,0
1,note_on,72,57,0
1,note_on,79,68,0
1,note_on,79,0,120
1,note_on,77,64,0
1,note_on,77,0,120
1,note_on,72,0,0
1,note_on,68,0,0
1,note_on,68,54,0
1,note_on,72,54,0
1,note_on,77,64,0
1,note_on,77,0,60
1,note_on,72,0,0
1,note_on,68,0,0
1,note_on,68,49,60
1,note_on,72,49,0
1,note_on,75,59,0
1,note_on,75,0,60
1,note_on,72,0,0
1,note_on,68,0,0
1,note_on,72,52,60
1,note_on,68,44,0
1,note_on,65,44,0
1,note_on,74,62,0
1,note_on,65,0,240
1,note_on,72,0,0
1,note_on,68,0,0
1,note_on,72,53,0
1,note_on,68,53,0
1,note_on,65,53,0
1,note_on,65,0,108
1,note_on,68,0,0
1,note_on,72,0,0
1,note_on,72,53,12
1,note_on,68,53,0
1,note_on,65,53,0
1,note_on,65,0,108
1,note_on,68,0,0
1,note_on,72,0,0
1,note_on,74,0,12
1,note_on,70,54,0
1,note_on,72,54,0
1,note_on,76,64,0
1,note_on,72,0,240
1,note_on,70,0,0
1,note_on,70,54,0
1,note_on,72,54,0
1,note_on,72,0,108
1,note_on,70,0,0
1,note_on,70,53,12
1,note_on,72,53,0
1,note_on,72,0,108
1,note_on,70,0,0
1,note_on,76,0,12
1,note_on,68,54,0
1,note_on,72,54,0
1,note_on,79,64,0
1,note_on,79,0,120
1,note_on,77,61,0
1,note_on,77,0,120
1,note_on,72,0,0
1,note_on,68,0,0
1,note_on,68,51,0
1,note_on,72,51,0
1,note_on,77,60,0
1,note_on,77,0,60
1,note_on,72,0,0
1,note_on,68,0,0
1,note_on,68,44,60
1,note_on,72,44,0
1,note_on,75,54,0
1,note_on,75,0,60
1,note_on,72,0,0
1,note_on,68,0,0
1,note_on,68,51,60
1,note_on,75,61,0
1,note_on,75,0,120
1,note_on,74,56,0
1,note_on,74,0,120
1,note_on,68,0,0
1,note_on,65,46,0
1,note_on,68,46,0
1,note_on,74,56,0
1,note_on,74,0,60
1,note_on,68,0,0
1,note_on,65,0,0
1,note_on,65,42,60
1,note_on,68,42,0
1,note_on,72,51,0
1,note_on,72,0,60
1,note_on,68,0,0
1,note_on,65,0,0
1,note_on,65,49,60
1,note_on,72,57,0
1,note_on,72,0,120
1,note_on,70,53,0
1,note_on,70,0,120
1,note_on,65,0,0
1,note_on,62,42,0
1,note_on,65,42,0
1,note_on,70,51,0
1,note_on,70,0,60
1,note_on,65,0,0
1,note_on,62,0,0
1,note_on,62,38,60
1,note_on,65,38,0
1,note_on,68,45,0
1,note_on,68,0,60
1,note_on,65,0,0
1,note_on,62,0,0
1,note_on,59,39,60
1,note_on,62,39,0
1,note_on,67,47,0
1,note_on,67,0,120
1,note_on,62,0,0
1,note_on,59,0,0
1,note_on,63,33,120
1,note_on,60,33,0
1,note_on,67,39,0
1,note_on,67,0,120
1,note_on,60,0,0
1,note_on,63,0,0
1,note_on,60,32,0
1,note_on,57,32,0
1,note_on,67,38,0
1,note_on,67,0,120
1,note_on,57,0,0
1,note_on,60,0,0
1,note_on,59,31,0
1,note_on,62,31,0
1,note_on,67,44,0
1,note_on,67,0,120
1,note_on,62,0,0
1,note_on,59,0,0
1,note_on,63,30,120
1,note_on,60,30,0
1,note_on,67,36,0
1,note_on,67,0,120
1,note_on,60,0,0
1,note_on,63,0,0
1,note_on,60,29,0
1,note_on,57,29,0
1,note_on,67,35,0
1,note_on,67,0,120
1,note_on,57,0,0
1,note_on,60,0,0
1,note_on,62,34,0
1,note_on,67,34,0
1,note_on,59,28,0
1,note_on,59,0,120
1,note_on,67,0,0
1,note_on,62,0,0
1,note_on,74,50,120
1,note_on,74,0,360
1,note_on,72,39,0
1,note_on,72,0,120
1,note_on,71,38,0
1,note_on,71,0,120
1,note_on,69,37,0
1,note_on,69,0,120
1,note_on,68,36,0
1,note_on,68,0,120
1,note_on,69,36,0
1,note_on,69,0,120
1,note_on,71,36,0
1,note_on,71,0,120
1,note_on,72,36,0
1,note_on,72,0,120
1,note_on,73,36,0
1,note_on,73,0,120
1,note_on,74,36,0
1,note_on,74,0,120
1,note_on,79,40,0
1,note_on,79,0,120
1,note_on,76,36,0
1,note_on,76,0,120
1,note_on,73,36,0
1,note_on,73,0,120
1,note_on,74,38,0
1,note_on,74,0,120
1,note_on,78,40,0
1,note_on,78,0,120
1,note_on,76,38,0
1,note_on,76,0,120
1,note_on,74,36,0
1,note_on,74,0,120
1,note_on,72,36,0
1,note_on,72,0,120
1,note_on,64,36,0
1,note_on,64,0,120
1,note_on,66,36,0
1,note_on,66,0,120
1,note_on,67,32,0
1,note_on,67,0,30
1,note_on,69,32,0
1,note_on,69,0,30
1,note_on,67,36,0
1,note_on,67,0,60
1,note_on,66,36,0
1,note_on,66,0,120
1,note_on,67,35,0
1,note_on,67,0,120
1,note_on,68,36,0
1,note_on,68,0,120
1,note_on,69,36,0
1,note_on,69,0,120
1,note_on,78,40,0
1,note_on,78,0,120
1,note_on,76,37,0
1,note_on,76,0,120
1,note_on,74,36,0
1,note_on,74,0,120
1,note_on,73,38,0
1,note_on,73,0,120
1,note_on,78,37,0
1,note_on,78,0,120
1,note_on,79,39,0
1,note_on,79,0,120
1,note_on,81,40,0
1,note_on,81,0,120
1,note_on,84,42,0
1,note_on,84,0,120
1,note_on,82,40,0
1,note_on,82,0,120
1,note_on,79,38,0
1,note_on,79,0,120
1,note_on,73,36,0
1,note_on,73,0,120
1,note_on,74,44,0
1,note_on,74,0,180
1,note_on,76,36,0
1,note_on,76,0,60
1,note_on,74,44,0
1,note_on,74,0,180
1,note_on,75,36,0
1,note_on,75,0,60
1,note_on,74,44,0
1,note_on,74,0,180
1,note_on,76,36,0
1,note_on,76,0,60
1,note_on,74,44,0
1,note_on,74,0,180
1,note_on,75,36,0
1,note_on,75,0,60
1,note_on,74,44,0
1,note_on,74,0,180
1,note_on,76,36,0
1,note_on,76,0,60
1,note_on,74,44,0
1,note_on,74,0,180
1,note_on,75,36,0
1,note_on,75,0,60
1,note_on,74,40,0
1,note_on,74,0,120
1,note_on,72,39,0
1,note_on,72,0,120
1,note_on,70,38,0
1,note_on,70,0,120
1,note_on,69,36,0
1,note_on,69,0,120
1,note_on,68,36,0
1,note_on,68,0,120
1,note_on,69,36,0
1,note_on,69,0,120
1,note_on,70,36,0
1,note_on,70,0,120
1,note_on,72,36,0
1,note_on,72,0,120
1,note_on,73,36,0
1,note_on,73,0,120
1,note_on,74,39,0
1,note_on,74,0,120
1,note_on,79,47,0
1,note_on,79,0,60
1,note_on,78,40,60
1,note_on,78,0,60
1,note_on,77,47,60
1,note_on,77,0,60
1,note_on,76,40,60
1,note_on,76,0,60
1,note_on,75,39,60
1,note_on,75,0,60
1,note_on,74,38,60
1,note_on,74,0,60
1,note_on,73,36,60
1,note_on,73,0,120
1,note_on,72,36,0
1,note_on,72,0,120
1,note_on,69,36,0
1,note_on,69,0,120
1,note_on,70,36,0
1,note_on,70,0,120
1,note_on,67,32,0
1,note_on,67,0,30
1,note_on,69,32,0
1,note_on,69,0,30
1,note_on,67,36,0
1,note_on,67,0,60
1,note_on,66,41,0
1,note_on,66,0,120
1,note_on,67,35,0
1,note_on,67,0,120
1,note_on,69,40,0
1,note_on,69,0,120
1,note_on,70,50,0
1,note_on,70,0,120
1,note_on,82,54,0
1,note_on,82,0,120
1,note_on,81,51,0
1,note_on,81,0,120
1,note_on,79,49,0
1,note_on,79,0,120
1,note_on,81,56,0
1,note_on,81,0,120
1,note_on,79,55,0
1,note_on,79,0,120
1,note_on,77,53,0
1,note_on,77,0,120
1,note_on,75,51,0
1,note_on,75,0,120
1,note_on,77,53,0
1,note_on,77,0,120
1,note_on,75,51,0
1,note_on,75,0,120
1,note_on,70,48,0
1,note_on,70,0,120
1,note_on,72,45,0
1,note_on,72,0,120
1,note_on,74,46,0
1,note_on,74,0,60
1,note_on,75,43,0
1,note_on,75,0,60
1,note_on,74,46,0
1,note_on,74,0,60
1,note_on,75,44,0
1,note_on,75,0,60
1,note_on,74,46,0
1,note_on,74,0,60
1,note_on,75,46,0
1,note_on,75,0,60
1,note_on,74,47,0
1,note_on,74,0,40
1,note_on,73,46,0
1,note_on,73,0,40
1,note_on,74,46,0
1,note_on,74,0,40
1,note_on,75,50,0
1,note_on,75,0,60
1,note_on,77,47,0
1,note_on,77,0,60
1,note_on,75,51,0
1,note_on,75,0,60
1,note_on,77,47,0
1,note_on,77,0,60
1,note_on,75,52,0
1,note_on,75,0,60
1,note_on,77,49,0
1,note_on,77,0,60
1,note_on,75,54,0
1,note_on,75,0,40
1,note_on,74,51,0
1,note_on,74,0,40
1,note_on,75,51,0
1,note_on,75,0,40
1,note_on,76,58,0
1,note_on,76,0,60
1,note_on,77,52,0
1,note_on,77,0,60
1,note_on,76,56,0
1,note_on,76,0,60
1,note_on,77,53,0
1,note_on,77,0,60
1,note_on,76,60,0
1,note_on,76,0,60
1,note_on,77,55,0
1,note_on,77,0,60
1,note_on,76,61,0
1,note_on,76,0,40
1,note_on,75,57,0
1,note_on,75,0,40
1,note_on,76,57,0
1,note_on,76,0,40
1,note_on,77,64,0
1,note_on,77,0,120
1,note_on,75,51,0
1,note_on,75,0,120
1,note_on,73,51,0
1,note_on,73,0,120
1,note_on,72,54,0
1,note_on,72,0,120
1,note_on,71,45,0
1,note_on,71,0,120
1,note_on,72,48,0
1,note_on,72,0,120
1,note_on,73,45,0
1,note_on,73,0,120
1,note_on,75,46,0
1,note_on,75,0,120
1,note_on,76,54,0
1,note_on,76,0,120
1,note_on,77,49,0
1,note_on,77,0,120
1,note_on,82,59,0
1,note_on,82,0,120
1,note_on,81,55,0
1,note_on,81,0,120
1,note_on,80,59,0
1,note_on,80,0,120
1,note_on,79,48,0
1,note_on,79,0,120
1,note_on,78,51,0
1,note_on,78,0,120
1,note_on,77,54,0
1,note_on,77,0,120
1,note_on,76,50,0
1,note_on,76,0,120
1,note_on,75,47,0
1,note_on,75,0,120
1,note_on,73,51,0
1,note_on,73,0,120
1,note_on,72,49,0
1,note_on,72,0,120
1,note_on,70,41,0
1,note_on,70,0,30
1,note_on,72,41,0
1,note_on,72,0,30
1,note_on,70,50,0
1,note_on,70,0,60
1,note_on,69,45,0
1,note_on,69,0,120
1,note_on,70,50,0
1,note_on,70,0,120
1,note_on,72,45,0
1,note_on,72,0,120
1,note_on,73,49,0
1,note_on,73,0,120
1,note_on,85,57,0
1,note_on,85,0,120
1,note_on,84,53,0
1,note_on,84,0,120
1,note_on,82,51,0
1,note_on,82,0,120
1,note_on,84,56,0
1,note_on,84,0,120
1,note_on,82,55,0
1,note_on,82,0,120
1,note_on,80,53,0
1,note_on,80,0,120
1,note_on,78,51,0
1,note_on,78,0,120
1,note_on,80,53,0
1,note_on,80,0,120
1,note_on,78,51,0
1,note_on,78,0,120
1,note_on,73,48,0
1,note_on,73,0,120
1,note_on,75,45,0
1,note_on,75,0,120
1,note_on,77,46,0
1,note_on,77,0,80
1,note_on,78,44,0
1,note_on,78,0,80
1,note_on,77,43,0
1,note_on,77,0,80
1,note_on,76,45,0
1,note_on,76,0,80
1,note_on,77,42,0
1,note_on,77,0,80
1,note_on,78,43,0
1,note_on,78,0,80
1,note_on,77,43,0
1,note_on,77,0,80
1,note_on,78,43,0
1,note_on,78,0,80
1,note_on,77,41,0
1,note_on,77,0,80
1,note_on,76,43,0
1,note_on,76,0,80
1,note_on,77,40,0
1,note_on,77,0,80
1,note_on,78,40,0
1,note_on,78,0,80
1,note_on,77,42,0
1,note_on,77,0,80
1,note_on,78,39,0
1,note_on,78,0,80
1,note_on,77,38,0
1,note_on,77,0,80
1,note_on,76,41,0
1,note_on,76,0,80
1,note_on,77,39,0
1,note_on,77,0,80
1,note_on,78,38,0
1,note_on,78,0,80
1,note_on,77,43,0
1,note_on,77,0,120
1,note_on,75,41,0
1,note_on,75,0,120
1,note_on,73,40,0
1,note_on,73,0,120
1,note_on,72,39,0
1,note_on,72,0,120
1,note_on,71,38,0
1,note_on,71,0,120
1,note_on,72,38,0
1,note_on,72,0,120
1,note_on,73,38,0
1,note_on,73,0,120
1,note_on,75,39,0
1,note_on,75,0,120
1,note_on,76,39,0
1,note_on,76,0,120
1,note_on,77,39,0
1,note_on,77,0,120
1,note_on,82,43,0
1,note_on,82,0,60
1,note_on,81,42,120
1,note_on,81,0,60
1,note_on,80,49,0
1,note_on,80,0,60
1,note_on,79,43,60
1,note_on,79,0,60
1,note_on,78,41,60
1,note_on,78,0,60
1,note_on,77,40,60
1,note_on,77,0,60
1,note_on,76,39,60
1,note_on,76,0,120
1,note_on,75,39,0
1,note_on,75,0,120
1,note_on,72,38,0
1,note_on,72,0,120
1,note_on,73,38,0
1,note_on,73,0,120
1,note_on,70,34,0
1,note_on,70,0,30
1,note_on,72,34,0
1,note_on,72,0,30
1,note_on,70,38,0
1,note_on,70,0,60
1,note_on,69,38,0
1,note_on,69,0,120
1,note_on,70,37,0
1,note_on,70,0,120
1,note_on,73,38,0
1,note_on,73,0,120
1,note_on,72,47,0
1,note_on,72,0,120
1,note_on,70,41,0
1,note_on,70,0,120
1,note_on,68,40,0
1,note_on,68,0,120
1,note_on,67,39,0
1,note_on,67,0,120
1,note_on,66,38,0
1,note_on,66,0,120
1,note_on,67,38,0
1,note_on,67,0,120
1,note_on,68,38,0
1,note_on,68,0,120
1,note_on,70,39,0
1,note_on,70,0,120
1,note_on,71,39,0
1,note_on,71,0,120
1,note_on,72,47,0
1,note_on,72,0,120
1,note_on,77,43,0
1,note_on,77,0,120
1,note_on,73,42,0
1,note_on,73,0,120
1,note_on,72,47,0
1,note_on,72,0,120
1,note_on,70,41,0
1,note_on,70,0,120
1,note_on,68,40,0
1,note_on,68,0,120
1,note_on,67,39,0
1,note_on,67,0,120
1,note_on,66,38,0
1,note_on,66,0,120
1,note_on,67,45,0
1,note_on,67,0,120
1,note_on,72,47,0
1,note_on,72,0,120
1,note_on,71,39,0
1,note_on,71,0,120
1,note_on,70,39,0
1,note_on,70,0,120
1,note_on,68,39,0
1,note_on,68,0,120
1,note_on,67,39,0
1,note_on,67,0,120
1,note_on,65,38,0
1,note_on,65,0,120
1,note_on,64,43,0
1,note_on,64,0,120
1,note_on,72,49,0
1,note_on,72,0,120
1,note_on,70,40,0
1,note_on,70,0,120
1,note_on,68,39,0
1,note_on,68,0,120
1,note_on,66,38,0
1,note_on,66,0,120
1,note_on,67,38,0
1,note_on,67,0,120
1,note_on,68,38,0
1,note_on,68,0,120
1,note_on,70,39,0
1,note_on,70,0,120
1,note_on,71,39,0
1,note_on,71,0,120
1,note_on,72,49,0
1,note_on,72,0,120
1,note_on,77,43,0
1,note_on,77,0,120
1,note_on,73,42,0
1,note_on,73,0,120
1,note_on,72,48,0
1,note_on,72,0,120
1,note_on,70,41,0
1,note_on,70,0,120
1,note_on,68,40,0
1,note_on,68,0,120
1,note_on,67,39,0
1,note_on,67,0,120
1,note_on,66,38,0
1,note_on,66,0,120
1,note_on,67,38,0
1,note_on,67,0,120
1,note_on,72,45,0
1,note_on,72,0,120
1,note_on,71,39,0
1,note_on,71,0,120
1,note_on,70,39,0
1,note_on,70,0,120
1,note_on,68,39,0
1,note_on,68,0,120
1,note_on,67,39,0
1,note_on,67,0,120
1,note_on,65,38,0
1,note_on,65,0,120
1,note_on,64,43,0
1,note_on,64,0,120
1,note_on,72,46,0
1,note_on,72,0,120
1,note_on,70,40,0
1,note_on,70,0,120
1,note_on,68,39,0
1,note_on,68,0,120
1,note_on,66,38,0
1,note_on,66,0,120
1,note_on,67,38,0
1,note_on,67,0,120
1,note_on,68,38,0
1,note_on,68,0,120
1,note_on,70,39,0
1,note_on,70,0,120
1,note_on,71,39,0
1,note_on,71,0,120
1,note_on,72,49,0
1,note_on,72,0,120
1,note_on,75,43,0
1,note_on,75,0,120
1,note_on,73,42,0
1,note_on,73,0,120
1,note_on,72,50,0
1,note_on,72,0,120
1,note_on,70,41,0
1,note_on,70,0,120
1,note_on,68,40,0
1,note_on,68,0,120
1,note_on,67,39,0
1,note_on,67,0,120
1,note_on,66,36,0
1,note_on,66,0,120
1,note_on,67,37,0
1,note_on,67,0,120
1,note_on,68,38,0
1,note_on,68,0,120
1,note_on,70,39,0
1,note_on,70,0,120
1,note_on,71,39,0
1,note_on,71,0,120
1,note_on,72,48,0
1,note_on,72,0,120
1,note_on,73,40,0
1,note_on,73,0,120
1,note_on,71,38,0
1,note_on,71,0,120
1,note_on,72,49,0
1,note_on,72,0,120
1,note_on,70,41,0
1,note_on,70,0,120
1,note_on,68,40,0
1,note_on,68,0,120
1,note_on,67,39,0
1,note_on,67,0,120
1,note_on,66,36,0
1,note_on,66,0,120
1,note_on,67,37,0
1,note_on,67,0,120
1,note_on,68,38,0
1,note_on,68,0,120
1,note_on,70,39,0
1,note_on,70,0,120
1,note_on,71,39,0
1,note_on,71,0,120
1,note_on,72,50,0
1,note_on,72,0,120
1,note_on,75,40,0
1,note_on,75,0,120
1,note_on,73,38,0
1,note_on,73,0,120
1,note_on,72,49,0
1,note_on,72,0,120
1,note_on,70,41,0
1,note_on,70,0,120
1,note_on,68,40,0
1,note_on,68,0,120
1,note_on,67,39,0
1,note_on,67,0,120
1,note_on,66,36,0
1,note_on,66,0,120
1,note_on,67,37,0
1,note_on,67,0,120
1,note_on,68,38,0
1,note_on,68,0,120
1,note_on,70,39,0
1,note_on,70,0,120
1,note_on,71,39,0
1,note_on,71,0,120
1,note_on,72,50,0
1,note_on,72,0,120
1,note_on,73,40,0
1,note_on,73,0,120
1,note_on,71,38,0
1,note_on,71,0,120
1,note_on,72,50,0
1,note_on,72,0,120
1,note_on,70,44,0
1,note_on,70,0,120
1,note_on,68,43,0
1,note_on,68,0,120
1,note_on,67,42,0
1,note_on,67,0,120
1,note_on,66,45,0
1,note_on,66,0,120
1,note_on,67,46,0
1,note_on,67,0,120
1,note_on,68,50,0
1,note_on,68,0,120
1,note_on,70,55,0
1,note_on,70,0,120
1,note_on,68,57,0
1,note_on,68,0,120
1,note_on,67,57,0
1,note_on,67,0,120
1,note_on,65,57,0
1,note_on,65,0,120
1,note_on,64,59,0
1,note_on,64,0,120
1,note_on,63,58,0
1,note_on,63,0,120
1,note_on,64,61,0
1,note_on,64,0,120
1,note_on,65,63,0
1,note_on,65,0,120
1,note_on,67,65,0
1,note_on,67,0,120
1,note_on,61,74,0
1,note_on,67,66,120
1,note_on,67,0,120
1,note_on,61,0,0
1,note_on,60,71,0
1,note_on,67,63,120
1,note_on,67,0,120
1,note_on,60,0,0
1,note_on,59,60,0
1,note_on,59,0,120
1,note_on,60,63,0
1,note_on,60,0,120
1,note_on,61,65,0
1,note_on,61,0,120
1,note_on,63,68,0
1,note_on,63,0,120
1,note_on,61,70,0
1,note_on,61,0,120
1,note_on,60,68,0
1,note_on,60,0,120
1,note_on,58,67,0
1,note_on,58,0,120
1,note_on,56,65,0
1,note_on,56,0,120
1,note_on,55,76,0
1,note_on,60,69,120
1,note_on,60,0,120
1,note_on,58,70,0
1,note_on,58,0,120
1,note_on,55,0,0
1,note_on,54,70,0
1,note_on,54,0,120
1,note_on,53,73,0
1,note_on,60,70,120
1,note_on,60,0,120
1,note_on,58,70,0
1,note_on,58,0,120
1,note_on,53,0,0
1,note_on,52,70,0
1,note_on,52,0,120
1,note_on,51,79,0
1,note_on,56,72,120
1,note_on,56,0,120
1,note_on,55,74,0
1,note_on,55,0,120
1,note_on,51,0,0
1,note_on,51,75,0
1,note_on,51,0,120
1,note_on,49,82,0
1,note_on,55,78,120
1,note_on,55,0,120
1,note_on,53,81,0
1,note_on,53,0,120
1,note_on,49,0,0
1,note_on,49,82,0
1,note_on,49,0,120
1,note_on,48,88,0
1,note_on,51,82,120
1,note_on,51,0,120
1,note_on,48,0,0
1,note_on,46,84,0
1,note_on,51,86,120
1,note_on,51,0,120
1,note_on,46,0,0
1,note_on,77,82,0
1,note_on,85,88,0
1,note_on,89,102,0
1,note_on,89,0,360
1,note_on,85,0,0
1,note_on,77,0,0
1,note_on,75,79,0
1,note_on,84,79,0
1,note_on,87,93,0
1,note_on,87,0,108
1,note_on,84,0,0
1,note_on,75,0,0
1,note_on,75,79,12
1,note_on,84,79,0
1,note_on,87,93,0
1,note_on,63,71,180
1,note_on,63,0,60
1,note_on,75,0,0
1,note_on,84,0,0
1,note_on,87,0,0
1,note_on,63,71,0
1,note_on,63,0,48
1,note_on,65,71,0
1,note_on,65,0,48
1,note_on,63,71,0
1,note_on,63,0,48
1,note_on,62,71,0
1,note_on,62,0,48
1,note_on,63,71,0
1,note_on,63,0,48
1,note_on,68,87,0
1,note_on,68,0,120
1,note_on,72,74,120
1,note_on,80,74,0
1,note_on,84,88,0
1,note_on,84,0,120
1,note_on,80,0,0
1,note_on,72,0,0
1,note_on,73,73,0
1,note_on,82,73,0
1,note_on,85,86,0
1,note_on,85,0,120
1,note_on,82,0,0
1,note_on,73,0,0
1,note_on,77,79,0
1,note_on,85,79,0
1,note_on,89,93,0
1,note_on,89,0,120
1,note_on,85,0,0
1,note_on,77,0,0
1,note_on,75,74,60
1,note_on,84,74,0
1,note_on,87,88,0
1,note_on,87,0,54
1,note_on,84,0,0
1,note_on,75,0,0
1,note_on,75,74,6
1,note_on,84,74,0
1,note_on,87,93,0
1,note_on,87,0,120
1,note_on,84,0,0
1,note_on,75,0,0
1,note_on,74,74,0
1,note_on,83,74,0
1,note_on,86,88,0
1,note_on,86,0,120
1,note_on,83,0,0
1,note_on,74,0,0
1,note_on,75,74,0
1,note_on,84,74,0
1,note_on,87,88,0
1,note_on,63,70,180
1,note_on,63,0,60
1,note_on,75,0,0
1,note_on,84,0,0
1,note_on,87,0,0
1,note_on,63,70,0
1,note_on,63,0,48
1,note_on,65,70,0
1,note_on,65,0,48
1,note_on,63,70,0
1,note_on,63,0,48
1,note_on,62,70,0
1,note_on,62,0,48
1,note_on,63,70,0
1,note_on,63,0,48
1,note_on,68,87,0
1,note_on,68,0,120
1,note_on,84,88,120
1,note_on,72,74,0
1,note_on,80,74,0
1,note_on,80,0,120
1,note_on,72,0,0
1,note_on,84,0,0
1,note_on,85,86,0
1,note_on,73,73,0
1,note_on,82,73,0
1,note_on,82,0,120
1,note_on,73,0,0
1,note_on,85,0,0
1,note_on,85,79,0
1,note_on,89,93,0
1,note_on,77,79,0
1,note_on,77,0,120
1,note_on,89,0,0
1,note_on,85,0,0
1,note_on,75,74,0
1,note_on,84,74,0
1,note_on,87,88,0
1,note_on,87,0,60
1,note_on,89,81,0
1,note_on,89,0,60
1,note_on,87,93,0
1,note_on,87,0,120
1,note_on,84,0,0
1,note_on,75,0,0
1,note_on,83,74,0
1,note_on,86,88,0
1,note_on,74,74,0
1,note_on,74,0,120
1,note_on,86,0,0
1,note_on,83,0,0
1,note_on,85,79,0
1,note_on,89,93,0
1,note_on,77,79,0
1,note_on,77,0,120
1,note_on,89,0,0
1,note_on,85,0,0
1,note_on,84,74,0
1,note_on,87,88,0
1,note_on,75,74,0
1,note_on,87,0,60
1,note_on,89,81,0
1,note_on,89,0,60
1,note_on,87,93,0
1,note_on,87,0,120
1,note_on,75,0,0
1,note_on,84,0,0
1,note_on,74,74,0
1,note_on,83,74,0
1,note_on,86,88,0
1,note_on,86,0,120
1,note_on,83,0,0
1,note_on,74,0,0
1,note_on,75,74,0
1,note_on,84,74,0
1,note_on,87,88,0
1,note_on,87,0,180
1,note_on,84,0,0
1,note_on,75,0,0
1,note_on,75,72,0
1,note_on,82,72,30
1,note_on,90,85,30
1,note_on,90,0,180
1,note_on,82,0,0
1,note_on,75,0,0
1,note_on,75,70,0
1,note_on,81,70,30
1,note_on,89,83,30
1,note_on,72,70,150
1,note_on,89,0,30
1,note_on,75,0,0
1,note_on,81,0,0
1,note_on,75,70,0
1,note_on,77,70,30
1,note_on,84,83,30
1,note_on,84,0,180
1,note_on,72,0,0
1,note_on,75,0,0
1,note_on,77,0,0
1,note_on,70,70,0
1,note_on,77,70,30
1,note_on,85,83,30
1,note_on,85,0,180
1,note_on,77,0,0
1,note_on,70,0,0
1,note_on,78,80,60
1,note_on,78,0,80
1,note_on,66,80,0
1,note_on,66,0,80
1,note_on,78,80,0
1,note_on,78,0,80
1,note_on,65,71,0
1,note_on,77,84,0
1,note_on,77,0,240
1,note_on,65,0,0
1,note_on,61,74,0
1,note_on,73,79,0
1,note_on,73,0,240
1,note_on,61,0,0
1,note_on,78,82,0
1,note_on,87,82,0
1,note_on,90,97,0
1,note_on,90,0,360
1,note_on,87,0,0
1,note_on,78,0,0
1,note_on,77,79,0
1,note_on,85,79,0
1,note_on,89,93,0
1,note_on,89,0,108
1,note_on,85,0,0
1,note_on,77,0,0
1,note_on,77,79,12
1,note_on,85,79,0
1,note_on,89,93,0
1,note_on,65,71,180
1,note_on,65,0,60
1,note_on,77,0,0
1,note_on,85,0,0
1,note_on,89,0,0
1,note_on,65,71,0
1,note_on,65,0,48
1,note_on,66,71,0
1,note_on,66,0,48
1,note_on,65,71,0
1,note_on,65,0,48
1,note_on,64,71,0
1,note_on,64,0,48
1,note_on,65,71,0
1,note_on,65,0,48
1,note_on,70,87,0
1,note_on,70,0,120
1,note_on,73,74,120
1,note_on,85,88,0
1,note_on,82,74,0
1,note_on,82,0,120
1,note_on,85,0,0
1,note_on,73,0,0
1,note_on,75,73,0
1,note_on,84,73,0
1,note_on,87,86,0
1,note_on,87,0,120
1,note_on,84,0,0
1,note_on,75,0,0
1,note_on,90,93,0
1,note_on,78,79,0
1,note_on,87,79,0
1,note_on,87,0,120
1,note_on,78,0,0
1,note_on,90,0,0
1,note_on,77,74,60
1,note_on,85,74,0
1,note_on,89,88,0
1,note_on,89,0,54
1,note_on,85,0,0
1,note_on,77,0,0
1,note_on,85,74,6
1,note_on,77,74,0
1,note_on,89,93,0
1,note_on,89,0,120
1,note_on,77,0,0
1,note_on,85,0,0
1,note_on,76,74,0
1,note_on,88,88,0
1,note_on,84,74,0
1,note_on,84,0,120
1,note_on,88,0,0
1,note_on,76,0,0
1,note_on,77,88,0
1,note_on,85,74,0
1,note_on,89,88,0
1,note_on,65,71,180
1,note_on,65,0,60
1,note_on,77,0,0
1,note_on,85,0,0
1,note_on,89,0,0
1,note_on,65,71,0
1,note_on,65,0,48
1,note_on,66,71,0
1,note_on,66,0,48
1,note_on,65,71,0
1,note_on,65,0,48
1,note_on,64,71,0
1,note_on,64,0,48
1,note_on,65,71,0
1,note_on,65,0,48
1,note_on,70,87,0
1,note_on,70,0,240
1,note_on,79,81,0
1,note_on,91,96,0
1,note_on,85,81,0
1,note_on,85,0,120
1,note_on,91,0,0
1,note_on,79,0,0
1,note_on,80,80,0
1,note_on,92,94,0
1,note_on,92,0,120
1,note_on,80,0,0
1,note_on,84,85,0
1,note_on,96,101,0
1,note_on,96,0,120
1,note_on,84,0,0
1,note_on,87,74,0
1,note_on,91,88,0
1,note_on,91,0,120
1,note_on,87,0,0
1,note_on,96,93,0
1,note_on,84,79,0
1,note_on,84,0,120
1,note_on,96,0,0
1,note_on,94,92,60
1,note_on,82,78,0
1,note_on,82,0,54
1,note_on,94,0,0
1,note_on,82,81,6
1,note_on,94,97,0
1,note_on,94,0,120
1,note_on,82,0,0
1,note_on,84,70,0
1,note_on,87,84,0
1,note_on,87,0,120
1,note_on,84,0,0
1,note_on,94,90,0
1,note_on,82,75,0
1,note_on,82,0,120
1,note_on,94,0,0
1,note_on,80,68,60
1,note_on,92,80,0
1,note_on,92,0,54
1,note_on,80,0,0
1,note_on,80,79,6
1,note_on,92,93,0
1,note_on,92,0,120
1,note_on,80,0,0
1,note_on,87,79,0
1,note_on,82,67,0
1,note_on,82,0,120
1,note_on,87,0,0
1,note_on,92,88,0
1,note_on,80,74,0
1,note_on,80,0,120
1,note_on,92,0,0
1,note_on,91,79,60
1,note_on,79,67,0
1,note_on,79,0,54
1,note_on,91,0,0
1,note_on,79,75,6
1,note_on,91,90,0
1,note_on,91,0,120
1,note_on,79,0,0
1,note_on,86,78,0
1,note_on,82,66,0
1,note_on,82,0,120
1,note_on,86,0,0
1,note_on,79,72,0
1,note_on,91,85,0
1,note_on,91,0,120
1,note_on,79,0,0
1,note_on,89,81,60
1,note_on,77,68,0
1,note_on,77,0,54
1,note_on,89,0,0
1,note_on,89,88,6
1,note_on,77,73,0
1,note_on,77,0,120
1,note_on,89,0,0
1,note_on,82,75,0
1,note_on,79,64,0
1,note_on,79,0,120
1,note_on,82,0,0
1,note_on,77,69,0
1,note_on,89,82,0
1,note_on,89,0,120
1,note_on,77,0,0
1,note_on,75,64,60
1,note_on,87,75,0
1,note_on,87,0,60
1,note_on,75,0,0
1,note_on,73,75,0
1,note_on,85,90,0
1,note_on,85,0,120
1,note_on,73,0,0
1,note_on,77,64,0
1,note_on,80,75,0
1,note_on,80,0,120
1,note_on,77,0,0
1,note_on,85,84,0
1,note_on,73,70,0
1,note_on,73,0,120
1,note_on,85,0,0
1,note_on,84,71,60
1,note_on,72,61,0
1,note_on,72,0,60
1,note_on,84,0,0
1,note_on,65,88,0
1,note_on,65,0,480
1,note_on,67,59,0
1,note_on,67,0,60
1,note_on,68,60,0
1,note_on,68,0,60
1,note_on,67,61,0
1,note_on,67,0,60
1,note_on,68,61,0
1,note_on,68,0,60
1,note_on,65,62,0
1,note_on,65,0,120
1,note_on,67,64,0
1,note_on,67,0,120
1,note_on,68,66,0
1,note_on,68,0,60
1,note_on,70,67,0
1,note_on,70,0,60
1,note_on,68,69,0
1,note_on,68,0,60
1,note_on,70,70,0
1,note_on,70,0,60
1,note_on,67,71,0
1,note_on,67,0,120
1,note_on,68,73,0
1,note_on,68,0,120
1,note_on,61,45,0
1,note_on,67,54,0
1,note_on,69,77,0
1,note_on,69,0,120
1,note_on,70,73,0
1,note_on,70,0,120
1,note_on,67,0,0
1,note_on,61,0,0
1,note_on,61,43,0
1,note_on,67,51,0
1,note_on,72,73,0
1,note_on,72,0,120
1,note_on,73,74,0
1,note_on,73,0,120
1,note_on,67,0,0
1,note_on,61,0,0
1,note_on,60,57,0
1,note_on,68,68,0
1,note_on,72,81,0
1,note_on,72,0,240
1,note_on,68,0,0
1,note_on,60,0,0
1,note_on,77,83,0
1,note_on,59,70,0
1,note_on,62,70,0
1,note_on,65,70,0
1,note_on,68,70,0
1,note_on,68,0,180
1,note_on,62,0,0
1,note_on,77,0,0
1,note_on,59,0,0
1,note_on,65,0,0
1,note_on,63,63,0
1,note_on,60,63,0
1,note_on,75,75,0
1,note_on,68,63,0
1,note_on,68,0,54
1,note_on,63,0,0
1,note_on,60,0,0
1,note_on,75,0,0
1,note_on,60,71,6
1,note_on,75,84,0
1,note_on,63,71,0
1,note_on,68,71,0
1,note_on,68,0,120
1,note_on,60,0,0
1,note_on,75,0,0
1,note_on,63,0,0
1,note_on,68,79,0
1,note_on,80,83,120
1,note_on,80,0,120
1,note_on,68,0,0
1,note_on,67,64,60
1,note_on,79,77,0
1,note_on,79,0,60
1,note_on,67,0,0
1,note_on,65,64,0
1,note_on,77,77,0
1,note_on,77,0,480
1,note_on,65,0,0
1,note_on,67,70,0
1,note_on,67,0,120
1,note_on,79,71,0
1,note_on,79,0,40
1,note_on,80,72,0
1,note_on,80,0,40
1,note_on,79,71,0
1,note_on,79,0,40
1,note_on,65,61,0
1,note_on,77,72,0
1,note_on,77,0,120
1,note_on,65,0,0
1,note_on,67,61,0
1,note_on,79,73,0
1,note_on,79,0,120
1,note_on,67,0,0
1,note_on,68,70,0
1,note_on,68,0,120
1,note_on,80,71,0
1,note_on,80,0,40
1,note_on,82,71,0
1,note_on,82,0,40
1,note_on,80,71,0
1,note_on,80,0,40
1,note_on,67,66,0
1,note_on,79,78,0
1,note_on,79,0,120
1,note_on,67,0,0
1,note_on,68,67,0
1,note_on,80,79,0
1,note_on,80,0,120
1,note_on,68,0,0
1,note_on,69,49,0
1,note_on,75,69,0
1,note_on,81,82,0
1,note_on,81,0,120
1,note_on,75,0,0
1,note_on,69,0,0
1,note_on,70,69,0
1,note_on,82,77,0
1,note_on,82,0,120
1,note_on,70,0,0
1,note_on,72,45,0
1,note_on,79,64,0
1,note_on,84,77,0
1,note_on,84,0,120
1,note_on,79,0,0
1,note_on,72,0,0
1,note_on,73,64,0
1,note_on,85,77,0
1,note_on,85,0,120
1,note_on,73,0,0
1,note_on,72,69,0
1,note_on,80,69,0
1,note_on,84,82,0
1,note_on,84,0,120
1,note_on,80,0,0
1,note_on,72,0,0
1,note_on,77,70,120
1,note_on,80,70,0
1,note_on,89,83,0
1,note_on,89,0,180
1,note_on,80,0,0
1,note_on,77,0,0
1,note_on,75,63,0
1,note_on,80,63,0
1,note_on,87,75,0
1,note_on,87,0,54
1,note_on,80,0,0
1,note_on,75,0,0
1,note_on,75,71,6
1,note_on,80,71,0
1,note_on,87,84,0
1,note_on,87,0,120
1,note_on,80,0,0
1,note_on,75,0,0
1,note_on,87,66,60
1,note_on,75,66,0
1,note_on,75,0,60
1,note_on,87,0,0
1,note_on,73,70,0
1,note_on,81,70,0
1,note_on,85,83,0
1,note_on,85,0,180
1,note_on,81,0,0
1,note_on,73,0,0
1,note_on,72,64,0
1,note_on,84,77,0
1,note_on,84,0,60
1,note_on,72,0,0
1,note_on,70,70,0
1,note_on,82,83,0
1,note_on,82,0,120
1,note_on,70,0,0
1,note_on,70,64,120
1,note_on,78,64,0
1,note_on,82,77,0
1,note_on,82,0,180
1,note_on,78,0,0
1,note_on,70,0,0
1,note_on,72,64,0
1,note_on,84,77,0
1,note_on,84,0,60
1,note_on,72,0,0
1,note_on,73,68,0
1,note_on,77,68,0
1,note_on,85,81,0
1,note_on,85,0,240
1,note_on,77,0,0
1,note_on,73,0,0
1,note_on,75,67,0
1,note_on,73,67,0
1,note_on,85,79,0
1,note_on,78,67,0
1,note_on,78,0,180
1,note_on,75,0,0
1,note_on,73,0,0
1,note_on,85,0,0
1,note_on,72,63,0
1,note_on,84,75,0
1,note_on,84,0,60
1,note_on,72,0,0
1,note_on,70,69,0
1,note_on,77,69,0
1,note_on,82,82,0
1,note_on,82,0,240
1,note_on,77,0,0
1,note_on,70,0,0
1,note_on,68,67,0
1,note_on,75,67,0
1,note_on,80,79,0
1,note_on,70,67,0
1,note_on,70,0,180
1,note_on,68,0,0
1,note_on,75,0,0
1,note_on,80,0,0
1,note_on,66,62,0
1,note_on,78,74,0
1,note_on,78,0,60
1,note_on,66,0,0
1,note_on,73,66,0
1,note_on,77,78,0
1,note_on,65,66,0
1,note_on,65,0,120
1,note_on,77,0,0
1,note_on,73,0,0
1,note_on,45,64,120
1,note_on,45,0,60
1,note_on,46,64,0
1,note_on,46,0,60
1,note_on,48,66,0
1,note_on,48,0,60
1,note_on,49,67,0
1,note_on,49,0,60
1,note_on,51,67,0
1,note_on,51,0,60
1,note_on,53,68,0
1,note_on,53,0,60
1,note_on,55,69,0
1,note_on,55,0,60
1,note_on,57,69,0
1,note_on,57,0,60
1,note_on,58,70,0
1,note_on,58,0,60
1,note_on,60,71,0
1,note_on,60,0,60
1,note_on,61,71,0
1,note_on,61,0,60
1,note_on,63,72,0
1,note_on,63,0,60
1,note_on,65,73,0
1,note_on,65,0,60
1,note_on,67,73,0
1,note_on,67,0,60
1,note_on,69,74,0
1,note_on,69,0,60
1,note_on,70,74,0
1,note_on,70,0,60
1,note_on,72,75,0
1,note_on,72,0,60
1,note_on,73,77,0
1,note_on,73,0,60
1,note_on,75,77,0
1,note_on,75,0,60
1,note_on,77,78,0
1,note_on,77,0,60
1,note_on,79,77,0
1,note_on,79,0,60
1,note_on,81,77,0
1,note_on,81,0,60
1,note_on,82,78,0
1,note_on,82,0,60
1,note_on,84,79,0
1,note_on,84,0,60
1,note_on,85,80,0
1,note_on,85,0,60
1,note_on,87,80,0
1,note_on,87,0,60
1,note_on,89,81,0
1,note_on,89,0,60
1,note_on,91,82,0
1,note_on,91,0,90
1,note_on,93,83,0
1,note_on,93,0,90
1,note_on,94,92,0
1,note_on,82,92,0
1,note_on,82,0,120
1,note_on,94,0,0
1,note_on,96,85,60
1,note_on,96,0,60
1,note_on,85,77,0
1,note_on,94,91,0
1,note_on,91,91,0
1,note_on,91,0,120
1,note_on,94,0,0
1,note_on,85,0,0
1,note_on,90,85,0
1,note_on,84,72,0
1,note_on,93,85,0
1,note_on,93,0,120
1,note_on,84,0,0
1,note_on,90,0,0
1,note_on,85,75,0
1,note_on,91,90,0
1,note_on,94,90,0
1,note_on,94,0,240
1,note_on,91,0,0
1,note_on,85,0,0
1,note_on,84,72,0
1,note_on,91,85,0
1,note_on,96,85,0
1,note_on,96,0,240
1,note_on,91,0,0
1,note_on,84,0,0
1,note_on,80,74,0
1,note_on,84,74,0
1,note_on,92,88,0
1,note_on,92,0,240
1,note_on,84,0,0
1,note_on,80,0,0
1,note_on,75,72,0
1,note_on,80,72,0
1,note_on,87,85,0
1,note_on,87,0,240
1,note_on,80,0,0
1,note_on,75,0,0
1,note_on,77,74,0
1,note_on,80,74,0
1,note_on,89,88,0
1,note_on,89,0,240
1,note_on,80,0,0
1,note_on,77,0,0
1,note_on,75,72,0
1,note_on,80,72,0
1,note_on,87,85,0
1,note_on,87,0,240
1,note_on,80,0,0
1,note_on,75,0,0
1,note_on,72,70,0
1,note_on,75,70,0
1,note_on,84,83,0
1,note_on,84,0,240
1,note_on,75,0,0
1,note_on,72,0,0
1,note_on,68,68,0
1,note_on,72,68,0
1,note_on,80,80,0
1,note_on,80,0,240
1,note_on,72,0,0
1,note_on,68,0,0
1,note_on,65,70,0
1,note_on,68,70,0
1,note_on,77,83,0
1,note_on,77,0,240
1,note_on,68,0,0
1,note_on,65,0,0
1,note_on,63,68,0
1,note_on,67,68,0
1,note_on,75,80,0
1,note_on,75,0,240
1,note_on,67,0,0
1,note_on,63,0,0
1,note_on,60,68,0
1,note_on,68,68,0
1,note_on,72,80,0
1,note_on,72,0,120
1,note_on,68,0,0
1,note_on,60,0,0
1,note_on,63,66,120
1,note_on,63,0,60
1,note_on,65,61,0
1,note_on,65,0,60
1,note_on,63,65,0
1,note_on,63,0,60
1,note_on,65,61,0
1,note_on,65,0,60
1,note_on,62,81,0
1,note_on,62,0,240
1,note_on,65,71,0
1,note_on,65,0,80
1,note_on,68,73,0
1,note_on,68,0,80
1,note_on,71,75,0
1,note_on,71,0,80
1,note_on,74,77,0
1,note_on,74,0,80
1,note_on,77,79,0
1,note_on,77,0,80
1,note_on,80,81,0
1,note_on,80,0,80
1,note_on,83,83,0
1,note_on,83,0,80
1,note_on,86,85,0
1,note_on,86,0,80
1,note_on,98,87,0
1,note_on,98,0,80
1,note_on,87,89,0
1,note_on,99,89,0
1,note_on,99,0,120
1,note_on,87,0,0
1,note_on,70,75,120
1,note_on,82,89,0
1,note_on,75,75,0
1,note_on,75,0,60
1,note_on,82,0,0
1,note_on,70,0,0
1,note_on,70,70,60
1,note_on,82,83,0
1,note_on,75,70,0
1,note_on,75,0,60
1,note_on,82,0,0
1,note_on,70,0,0
1,note_on,70,75,60
1,note_on,75,75,0
1,note_on,82,89,0
1,note_on,82,0,120
1,note_on,75,0,0
1,note_on,70,0,0
1,note_on,69,70,120
1,note_on,75,70,0
1,note_on,81,83,0
1,note_on,81,0,120
1,note_on,75,0,0
1,note_on,69,0,0
1,note_on,70,73,0
1,note_on,75,73,0
1,note_on,82,87,0
1,note_on,82,0,120
1,note_on,75,0,0
1,note_on,70,0,0
1,note_on,72,77,0
1,note_on,75,77,0
1,note_on,84,91,0
1,note_on,84,0,240
1,note_on,75,0,0
1,note_on,72,0,0
1,note_on,67,75,0
1,note_on,73,75,0
1,note_on,75,75,0
1,note_on,79,89,0
1,note_on,79,0,240
1,note_on,67,0,0
1,note_on,73,0,0
1,note_on,75,0,0
1,note_on,68,74,0
1,note_on,72,74,0
1,note_on,80,88,0
1,note_on,80,0,120
1,note_on,72,0,0
1,note_on,68,0,0
1,note_on,63,66,120
1,note_on,63,0,60
1,note_on,65,61,0
1,note_on,65,0,60
1,note_on,63,65,0
1,note_on,63,0,60
1,note_on,65,61,0
1,note_on,65,0,60
1,note_on,62,81,0
1,note_on,62,0,240
1,note_on,65,71,0
1,note_on,65,0,80
1,note_on,68,73,0
1,note_on,68,0,80
1,note_on,71,75,0
1,note_on,71,0,80
1,note_on,74,77,0
1,note_on,74,0,80
1,note_on,77,79,0
1,note_on,77,0,80
1,note_on,80,81,0
1,note_on,80,0,80
1,note_on,83,83,0
1,note_on,83,0,80
1,note_on,86,85,0
1,note_on,86,0,80
1,note_on,98,87,0
1,note_on,98,0,80
1,note_on,87,89,0
1,note_on,99,89,0
1,note_on,99,0,120
1,note_on,87,0,0
1,note_on,70,75,120
1,note_on,82,89,0
1,note_on,75,75,0
1,note_on,75,0,60
1,note_on,82,0,0
1,note_on,70,0,0
1,note_on,70,70,60
1,note_on,82,83,0
1,note_on,75,70,0
1,note_on,75,0,60
1,note_on,82,0,0
1,note_on,70,0,0
1,note_on,70,75,60
1,note_on,75,75,0
1,note_on,82,89,0
1,note_on,82,0,120
1,note_on,75,0,0
1,note_on,70,0,0
1,note_on,72,63,0
1,note_on,75,63,0
1,note_on,84,75,0
1,note_on,84,0,120
1,note_on,75,0,0
1,note_on,72,0,0
1,note_on,69,70,0
1,note_on,75,70,0
1,note_on,81,83,0
1,note_on,81,0,120
1,note_on,75,0,0
1,note_on,69,0,0
1,note_on,70,73,0
1,note_on,75,73,0
1,note_on,82,87,0
1,note_on,82,0,120
1,note_on,75,0,0
1,note_on,70,0,0
1,note_on,72,77,0
1,note_on,75,77,0
1,note_on,84,91,0
1,note_on,84,0,240
1,note_on,75,0,0
1,note_on,72,0,0
1,note_on,67,75,0
1,note_on,73,75,0
1,note_on,75,75,0
1,note_on,79,89,0
1,note_on,79,0,240
1,note_on,67,0,0
1,note_on,73,0,0
1,note_on,75,0,0
1,note_on,77,85,0
1,note_on,68,78,0
1,note_on,72,84,0
1,note_on,80,102,0
1,note_on,80,0,360
1,note_on,77,0,0
1,note_on,68,0,0
1,note_on,72,0,0
1,note_on,75,93,0
1,note_on,75,0,108
1,note_on,63,79,12
1,note_on,72,79,0
1,note_on,75,93,0
1,note_on,75,0,480
1,note_on,72,0,0
1,note_on,63,0,0
1,note_on,72,74,240
1,note_on,80,74,0
1,note_on,84,88,0
1,note_on,84,0,120
1,note_on,80,0,0
1,note_on,72,0,0
1,note_on,73,73,0
1,note_on,82,73,0
1,note_on,85,86,0
1,note_on,85,0,120
1,note_on,82,0,0
1,note_on,73,0,0
1,note_on,77,82,0
1,note_on,85,88,0
1,note_on,89,102,0
1,note_on,89,0,360
1,note_on,85,0,0
1,note_on,77,0,0
1,note_on,75,79,0
1,note_on,84,79,0
1,note_on,87,93,0
1,note_on,87,0,108
1,note_on,84,0,0
1,note_on,75,0,0
1,note_on,75,79,12
1,note_on,84,79,0
1,note_on,87,93,0
1,note_on,87,0,480
1,note_on,84,0,0
1,note_on,75,0,0
1,note_on,72,74,240
1,note_on,80,74,0
1,note_on,84,88,0
1,note_on,84,0,120
1,note_on,80,0,0
1,note_on,72,0,0
1,note_on,73,73,0
1,note_on,82,73,0
1,note_on,85,86,0
1,note_on,85,0,120
1,note_on,82,0,0
1,note_on,73,0,0
1,note_on,77,82,0
1,note_on,85,88,0
1,note_on,89,102,0
1,note_on,89,0,360
1,note_on,85,0,0
1,note_on,77,0,0
1,note_on,75,79,0
1,note_on,84,79,0
1,note_on,87,93,0
1,note_on,87,0,120
1,note_on,84,0,0
1,note_on,75,0,0
1,note_on,77,82,0
1,note_on,85,88,0
1,note_on,89,102,0
1,note_on,89,0,360
1,note_on,85,0,0
1,note_on,77,0,0
1,note_on,75,79,0
1,note_on,84,79,0
1,note_on,87,93,0
1,note_on,87,0,120
1,note_on,84,0,0
1,note_on,75,0,0
1,note_on,77,82,0
1,note_on,85,88,0
1,note_on,89,102,0
1,note_on,89,0,360
1,note_on,85,0,0
1,note_on,77,0,0
1,note_on,75,79,0
1,note_on,84,79,0
1,note_on,87,93,0
1,note_on,87,0,120
1,note_on,84,0,0
1,note_on,75,0,0
1,note_on,77,82,0
1,note_on,85,88,0
1,note_on,89,102,0
1,note_on,89,0,360
1,note_on,85,0,0
1,note_on,77,0,0
1,note_on,75,79,0
1,note_on,84,79,0
1,note_on,87,93,0
1,note_on,87,0,108
1,note_on,84,0,0
1,note_on,75,0,0
1,note_on,75,79,12
1,note_on,84,79,0
1,note_on,87,93,0
1,note_on,87,0,480
1,note_on,84,0,0
1,note_on,75,0,0
1,note_on,89,93,0
1,note_on,84,79,0
1,note_on,77,79,0
1,note_on,77,0,60
1,note_on,84,0,0
1,note_on,89,0,0
1,note_on,79,81,60
1,note_on,84,81,0
1,note_on,91,96,0
1,note_on,91,0,120
1,note_on,84,0,0
1,note_on,79,0,0
1,note_on,80,85,0
1,note_on,84,85,0
1,note_on,92,100,0
1,note_on,92,0,120
1,note_on,84,0,0
1,note_on,80,0,0
1,note_on,82,89,0
1,note_on,87,89,0
1,note_on,94,105,0
1,note_on,94,0,120
1,note_on,82,0,0
1,note_on,96,110,0
1,note_on,92,110,0
1,note_on,84,93,0
1,note_on,87,0,120
1,note_on,96,0,120
1,note_on,92,0,0
1,note_on,84,0,0
1,note_on,52,79,480
1,note_on,55,79,0
1,note_on,60,93,0
1,note_on,64,93,0
1,note_on,64,0,60
1,note_on,52,0,0
1,note_on,55,0,0
1,note_on,60,0,0
1,note_on,52,75,60
1,note_on,55,75,0
1,note_on,60,89,0
1,note_on,64,89,0
1,note_on,64,0,60
1,note_on,52,0,0
1,note_on,55,0,0
1,note_on,60,0,0
1,note_on,52,79,60
1,note_on,55,79,0
1,note_on,60,93,0
1,note_on,64,93,0
1,note_on,64,0,120
1,note_on,52,0,0
1,note_on,55,0,0
1,note_on,60,0,0
1,note_on,52,74,120
1,note_on,55,74,0
1,note_on,60,88,0
1,note_on,64,88,0
1,note_on,64,0,120
1,note_on,52,0,0
1,note_on,55,0,0
1,note_on,60,0,0
1,note_on,52,78,30
1,note_on,55,78,30
1,note_on,60,92,30
1,note_on,64,92,30
1,note_on,64,0,240
1,note_on,52,0,0
1,note_on,55,0,0
1,note_on,60,0,0
1,note_on,52,79,150
1,note_on,55,79,30
1,note_on,60,93,30
1,note_on,64,93,30
1,note_on,64,0,240
1,note_on,52,0,0
1,note_on,55,0,0
1,note_on,60,0,0
1,note_on,51,79,150
1,note_on,55,79,30
1,note_on,61,93,30
1,note_on,63,93,30
1,note_on,63,0,240
1,note_on,51,0,0
1,note_on,55,0,0
1,note_on,61,0,0
1,note_on,56,86,240
1,note_on,60,86,0
1,note_on,68,102,0
1,note_on,68,0,240
1,note_on,60,0,0
1,note_on,56,0,0
2,note_on,27,63,0
2,note_on,39,75,0
2,note_on,39,0,394
2,note_on,27,0,0
2,note_on,49,40,240
2,note_on,52,40,0
2,note_on,57,47,0
2,note_on,57,0,116
2,note_on,52,0,0
2,note_on,49,0,0
2,note_on,50,42,0
2,note_on,53,42,0
2,note_on,58,50,0
2,note_on,58,0,120
2,note_on,53,0,0
2,note_on,50,0,0
2,note_on,51,45,0
2,note_on,54,45,0
2,note_on,59,53,0
2,note_on,59,0,120
2,note_on,54,0,0
2,note_on,51,0,0
2,note_on,52,46,0
2,note_on,55,46,0
2,note_on,60,55,0
2,note_on,60,0,120
2,note_on,55,0,0
2,note_on,52,0,0
2,note_on,53,49,0
2,note_on,56,49,0
2,note_on,61,58,0
2,note_on,61,0,120
2,note_on,56,0,0
2,note_on,53,0,0
2,note_on,53,51,0
2,note_on,57,61,0
2,note_on,62,61,0
2,note_on,62,0,120
2,note_on,57,0,0
2,note_on,53,0,0
2,note_on,55,63,0
2,note_on,55,0,120
2,note_on,39,42,360
2,note_on,46,50,0
2,note_on,46,0,120
2,note_on,39,0,0
2,note_on,50,28,360
2,note_on,59,32,0
2,note_on,59,0,480
2,note_on,50,0,0
2,note_on,51,23,0
2,note_on,58,28,0
2,note_on,58,0,240
2,note_on,51,0,0
2,note_on,44,36,240
2,note_on,59,42,0
2,note_on,43,33,120
2,note_on,58,39,0
2,note_on,59,0,10
2,note_on,44,0,0
2,note_on,38,33,110
2,note_on,52,40,0
2,note_on,43,0,10
2,note_on,58,0,0
2,note_on,39,35,110
2,note_on,51,42,0
2,note_on,38,0,10
2,note_on,52,0,0
2,note_on,44,39,110
2,note_on,59,47,0
2,note_on,39,0,10
2,note_on,51,0,0
2,note_on,43,38,110
2,note_on,58,45,0
2,note_on,44,0,10
2,note_on,59,0,0
2,note_on,38,39,110
2,note_on,52,47,0
2,note_on,43,0,10
2,note_on,58,0,0
2,note_on,39,40,110
2,note_on,51,47,0
2,note_on,38,0,10
2,note_on,52,0,0
2,note_on,44,44,110
2,note_on,59,53,0
2,note_on,39,0,10
2,note_on,51,0,0
2,note_on,43,43,110
2,note_on,58,50,0
2,note_on,44,0,10
2,note_on,59,0,0
2,note_on,38,44,110
2,note_on,52,53,0
2,note_on,43,0,10
2,note_on,58,0,0
2,note_on,39,46,110
2,note_on,51,55,0
2,note_on,38,0,10
2,note_on,52,0,0
2,note_on,44,52,110
2,note_on,59,61,0
2,note_on,39,0,10
2,note_on,51,0,0
2,note_on,43,49,110
2,note_on,58,58,0
2,note_on,44,0,10
2,note_on,59,0,0
2,note_on,38,49,110
2,note_on,52,59,0
2,note_on,43,0,10
2,note_on,58,0,0
2,note_on,39,52,110
2,note_on,51,61,0
2,note_on,38,0,10
2,note_on,52,0,0
2,note_on,44,58,110
2,note_on,59,70,0
2,note_on,39,0,10
2,note_on,51,0,0
2,note_on,43,55,110
2,note_on,58,64,0
2,note_on,44,0,10
2,note_on,59,0,0
2,note_on,38,55,110
2,note_on,52,66,0
2,note_on,43,0,10
2,note_on,58,0,0
2,note_on,39,57,110
2,note_on,51,68,0
2,note_on,38,0,10
2,note_on,52,0,0
2,note_on,39,0,110
2,note_on,51,0,0
2,note_on,44,63,0
2,note_on,39,63,0
2,note_on,51,75,0
2,note_on,51,0,365
2,note_on,39,0,0
2,note_on,44,0,0
2,note_on,50,40,240
2,note_on,53,40,0
2,note_on,58,47,0
2,note_on,58,0,115
2,note_on,53,0,0
2,note_on,50,0,0
2,note_on,51,42,0
2,note_on,54,42,0
2,note_on,59,50,0
2,note_on,59,0,120
2,note_on,54,0,0
2,note_on,51,0,0
2,note_on,52,45,0
2,note_on,55,45,0
2,note_on,60,53,0
2,note_on,60,0,120
2,note_on,55,0,0
2,note_on,52,0,0
2,note_on,53,46,0
2,note_on,56,46,0
2,note_on,61,55,0
2,note_on,61,0,120
2,note_on,56,0,0
2,note_on,53,0,0
2,note_on,54,49,0
2,note_on,57,49,0
2,note_on,62,58,0
2,note_on,62,0,120
2,note_on,57,0,0
2,note_on,54,0,0
2,note_on,54,51,0
2,note_on,58,61,0
2,note_on,63,61,0
2,note_on,63,0,120
2,note_on,58,0,0
2,note_on,54,0,0
2,note_on,56,63,0
2,note_on,56,0,120
2,note_on,39,37,360
2,note_on,47,45,0
2,note_on,47,0,120
2,note_on,39,0,0
2,note_on,58,28,360
2,note_on,55,28,0
2,note_on,64,32,0
2,note_on,64,0,480
2,note_on,55,0,0
2,note_on,58,0,0
2,note_on,56,23,0
2,note_on,59,23,0
2,note_on,64,28,0
2,note_on,64,0,240
2,note_on,59,0,0
2,note_on,56,0,0
2,note_on,46,36,240
2,note_on,61,42,0
2,note_on,44,33,120
2,note_on,59,39,0
2,note_on,61,0,10
2,note_on,46,0,0
2,note_on,39,33,110
2,note_on,54,40,0
2,note_on,44,0,10
2,note_on,59,0,0
2,note_on,44,35,110
2,note_on,52,42,0
2,note_on,39,0,10
2,note_on,54,0,0
2,note_on,46,39,110
2,note_on,61,47,0
2,note_on,44,0,10
2,note_on,52,0,0
2,note_on,44,38,110
2,note_on,59,45,0
2,note_on,46,0,10
2,note_on,61,0,0
2,note_on,39,39,110
2,note_on,54,47,0
2,note_on,44,0,10
2,note_on,59,0,0
2,note_on,44,40,110
2,note_on,52,47,0
2,note_on,39,0,10
2,note_on,54,0,0
2,note_on,46,44,110
2,note_on,61,53,0
2,note_on,44,0,10
2,note_on,52,0,0
2,note_on,44,43,110
2,note_on,59,50,0
2,note_on,46,0,10
2,note_on,61,0,0
2,note_on,39,44,110
2,note_on,54,53,0
2,note_on,44,0,10
2,note_on,59,0,0
2,note_on,44,46,110
2,note_on,52,55,0
2,note_on,39,0,10
2,note_on,54,0,0
2,note_on,46,52,110
2,note_on,61,61,0
2,note_on,44,0,10
2,note_on,52,0,0
2,note_on,44,49,110
2,note_on,59,58,0
2,note_on,46,0,10
2,note_on,61,0,0
2,note_on,39,49,110
2,note_on,54,59,0
2,note_on,44,0,10
2,note_on,59,0,0
2,note_on,44,52,110
2,note_on,52,61,0
2,note_on,39,0,10
2,note_on,54,0,0
2,note_on,46,58,110
2,note_on,61,70,0
2,note_on,44,0,10
2,note_on,52,0,0
2,note_on,44,55,110
2,note_on,59,64,0
2,note_on,46,0,10
2,note_on,61,0,0
2,note_on,39,55,110
2,note_on,54,66,0
2,note_on,44,0,10
2,note_on,59,0,0
2,note_on,44,57,110
2,note_on,52,68,0
2,note_on,39,0,10
2,note_on,54,0,0
2,note_on,44,0,110
2,note_on,52,0,0
2,note_on,45,63,0
2,note_on,39,63,0
2,note_on,51,75,0
2,note_on,51,0,394
2,note_on,39,0,0
2,note_on,45,0,0
2,note_on,54,45,240
2,note_on,54,0,120
2,note_on,55,47,0
2,note_on,55,0,120
2,note_on,56,50,0
2,note_on,56,0,120
2,note_on,57,52,0
2,note_on,57,0,120
2,note_on,58,55,0
2,note_on,58,0,120
2,note_on,59,57,0
2,note_on,59,0,120
2,note_on,60,71,0
2,note_on,60,0,120
2,note_on,39,54,360
2,note_on,51,64,0
2,note_on,51,0,28
2,note_on,39,0,0
2,note_on,57,67,360
2,note_on,51,56,0
2,note_on,63,67,0
2,note_on,63,0,480
2,note_on,51,0,0
2,note_on,57,0,0
2,note_on,27,52,0
2,note_on,39,62,0
2,note_on,39,0,160
2,note_on,27,0,0
2,note_on,56,49,251
2,note_on,56,0,120
2,note_on,57,51,0
2,note_on,57,0,120
2,note_on,58,55,0
2,note_on,58,0,120
2,note_on,59,57,0
2,note_on,59,0,120
2,note_on,60,60,0
2,note_on,60,0,120
2,note_on,61,62,0
2,note_on,61,0,120
2,note_on,62,71,0
2,note_on,62,0,120
2,note_on,39,54,360
2,note_on,51,64,0
2,note_on,51,0,34
2,note_on,39,0,0
2,note_on,58,58,360
2,note_on,62,70,0
2,note_on,56,58,0
2,note_on,68,70,0
2,note_on,68,0,480
2,note_on,58,0,0
2,note_on,62,0,0
2,note_on,56,0,0
2,note_on,27,54,0
2,note_on,39,65,0
2,note_on,39,0,18
2,note_on,27,0,0
2,note_on,34,54,240
2,note_on,46,64,0
2,note_on,46,0,120
2,note_on,34,0,0
2,note_on,39,46,120
2,note_on,51,55,0
2,note_on,51,0,60
2,note_on,39,0,0
2,note_on,41,49,60
2,note_on,53,58,0
2,note_on,53,0,60
2,note_on,41,0,0
2,note_on,43,51,60
2,note_on,55,60,0
2,note_on,55,0,60
2,note_on,43,0,0
2,note_on,44,52,60
2,note_on,56,62,0
2,note_on,56,0,60
2,note_on,44,0,0
2,note_on,46,55,60
2,note_on,58,65,0
2,note_on,58,0,60
2,note_on,46,0,0
2,note_on,48,56,60
2,note_on,60,67,0
2,note_on,60,0,60
2,note_on,48,0,0
2,note_on,49,59,60
2,note_on,61,70,0
2,note_on,61,0,60
2,note_on,49,0,0
2,note_on,39,54,420
2,note_on,51,64,0
2,note_on,51,0,60
2,note_on,39,0,0
2,note_on,55,59,420
2,note_on,67,70,0
2,note_on,55,0,420
2,note_on,67,0,120
2,note_on,61,53,0
2,note_on,61,0,120
2,note_on,58,53,0
2,note_on,58,0,120
2,note_on,51,54,0
2,note_on,51,0,120
2,note_on,67,63,0
2,note_on,67,0,120
2,note_on,61,58,0
2,note_on,61,0,120
2,note_on,58,58,0
2,note_on,58,0,120
2,note_on,51,58,0
2,note_on,51,0,120
2,note_on,67,63,0
2,note_on,67,0,120
2,note_on,61,58,0
2,note_on,61,0,120
2,note_on,58,58,0
2,note_on,58,0,120
2,note_on,51,59,0
2,note_on,51,0,120
2,note_on,67,68,0
2,note_on,67,0,120
2,note_on,61,60,0
2,note_on,61,0,120
2,note_on,58,61,0
2,note_on,58,0,120
2,note_on,51,62,0
2,note_on,51,0,120
2,note_on,61,70,0
2,note_on,61,0,120
2,note_on,55,63,0
2,note_on,55,0,120
2,note_on,51,63,0
2,note_on,51,0,120
2,note_on,46,63,0
2,note_on,46,0,120
2,note_on,55,72,0
2,note_on,55,0,120
2,note_on,49,66,0
2,note_on,49,0,120
2,note_on,46,65,0
2,note_on,46,0,120
2,note_on,39,66,0
2,note_on,39,0,120
2,note_on,32,61,0
2,note_on,44,72,0
2,note_on,44,0,42
2,note_on,32,0,0
2,note_on,51,61,120
2,note_on,63,72,0
2,note_on,63,0,240
2,note_on,51,0,0
2,note_on,68,70,0
2,note_on,60,70,0
2,note_on,56,59,0
2,note_on,56,0,240
2,note_on,60,0,0
2,note_on,68,0,0
2,note_on,39,66,0
2,note_on,51,78,0
2,note_on,51,0,53
2,note_on,39,0,0
2,note_on,44,67,180
2,note_on,56,79,0
2,note_on,56,0,120
2,note_on,44,0,0
2,note_on,27,56,120
2,note_on,39,67,0
2,note_on,39,0,240
2,note_on,27,0,0
2,note_on,32,61,0
2,note_on,44,72,0
2,note_on,44,0,208
2,note_on,32,0,0
2,note_on,63,67,0
2,note_on,51,56,0
2,note_on,51,0,240
2,note_on,63,0,0
2,note_on,68,69,0
2,note_on,60,69,0
2,note_on,56,58,0
2,note_on,56,0,232
2,note_on,60,0,0
2,note_on,68,0,0
2,note_on,39,61,0
2,note_on,51,73,0
2,note_on,51,0,60
2,note_on,39,0,0
2,note_on,44,67,180
2,note_on,56,79,0
2,note_on,56,0,120
2,note_on,44,0,0
2,note_on,27,56,120
2,note_on,39,67,0
2,note_on,39,0,240
2,note_on,27,0,0
2,note_on,32,61,0
2,note_on,44,72,0
2,note_on,44,0,159
2,note_on,32,0,0
2,note_on,63,67,0
2,note_on,51,56,0
2,note_on,51,0,240
2,note_on,63,0,0
2,note_on,68,69,0
2,note_on,60,69,0
2,note_on,56,58,0
2,note_on,56,0,240
2,note_on,60,0,0
2,note_on,68,0,0
2,note_on,39,56,0
2,note_on,51,67,0
2,note_on,51,0,120
2,note_on,39,0,0
2,note_on,44,59,120
2,note_on,56,70,0
2,note_on,56,0,106
2,note_on,44,0,0
2,note_on,39,57,60
2,note_on,46,57,30
2,note_on,54,68,30
2,note_on,54,0,125
2,note_on,46,0,0
2,note_on,39,0,0
2,note_on,41,57,0
2,note_on,48,57,30
2,note_on,51,68,30
2,note_on,57,68,0
2,note_on,57,0,96
2,note_on,51,0,0
2,note_on,41,0,0
2,note_on,48,56,0
2,note_on,53,56,30
2,note_on,57,67,30
2,note_on,48,0,30
2,note_on,63,67,0
2,note_on,63,0,150
2,note_on,57,0,0
2,note_on,53,0,0
2,note_on,48,0,0
2,note_on,46,58,0
2,note_on,53,58,11
2,note_on,58,69,30
2,note_on,61,69,30
2,note_on,61,0,197
2,note_on,46,0,0
2,note_on,53,0,0
2,note_on,58,0,0
2,note_on,30,55,0
2,note_on,42,65,0
2,note_on,42,0,234
2,note_on,30,0,0
2,note_on,29,55,0
2,note_on,41,65,0
2,note_on,41,0,240
2,note_on,29,0,0
2,note_on,37,53,0
2,note_on,49,63,0
2,note_on,49,0,240
2,note_on,37,0,0
2,note_on,34,61,0
2,note_on,46,72,0
2,note_on,46,0,42
2,note_on,34,0,0
2,note_on,53,61,120
2,note_on,65,72,0
2,note_on,65,0,240
2,note_on,53,0,0
2,note_on,70,70,0
2,note_on,61,70,0
2,note_on,58,59,0
2,note_on,58,0,240
2,note_on,61,0,0
2,note_on,70,0,0
2,note_on,41,66,0
2,note_on,53,78,0
2,note_on,53,0,52
2,note_on,41,0,0
2,note_on,46,67,180
2,note_on,58,79,0
2,note_on,58,0,120
2,note_on,46,0,0
2,note_on,29,56,120
2,note_on,41,67,0
2,note_on,41,0,240
2,note_on,29,0,0
2,note_on,34,61,0
2,note_on,46,72,0
2,note_on,46,0,208
2,note_on,34,0,0
2,note_on,65,67,0
2,note_on,53,56,0
2,note_on,53,0,240
2,note_on,65,0,0
2,note_on,70,69,0
2,note_on,61,69,0
2,note_on,58,58,0
2,note_on,58,0,229
2,note_on,61,0,0
2,note_on,70,0,0
2,note_on,41,61,0
2,note_on,53,73,0
2,note_on,53,0,60
2,note_on,41,0,0
2,note_on,46,67,180
2,note_on,58,79,0
2,note_on,58,0,120
2,note_on,46,0,0
2,note_on,34,56,120
2,note_on,46,67,0
2,note_on,46,0,240
2,note_on,34,0,0
2,note_on,27,61,0
2,note_on,39,72,0
2,note_on,39,0,88
2,note_on,27,0,0
2,note_on,61,55,120
2,note_on,67,66,0
2,note_on,63,55,0
2,note_on,63,0,116
2,note_on,67,0,0
2,note_on,61,0,0
2,note_on,39,59,120
2,note_on,51,69,0
2,note_on,51,0,88
2,note_on,39,0,0
2,note_on,60,53,120
2,note_on,63,63,0
2,note_on,63,0,116
2,note_on,60,0,0
2,note_on,39,57,120
2,note_on,51,67,0
2,note_on,51,0,88
2,note_on,39,0,0
2,note_on,58,51,120
2,note_on,63,61,0
2,note_on,63,0,117
2,note_on,58,0,0
2,note_on,34,54,120
2,note_on,46,64,0
2,note_on,46,0,88
2,note_on,34,0,0
2,note_on,56,50,120
2,note_on,62,60,0
2,note_on,58,50,0
2,note_on,58,0,113
2,note_on,62,0,0
2,note_on,56,0,0
2,note_on,39,56,120
2,note_on,51,66,0
2,note_on,51,0,88
2,note_on,39,0,0
2,note_on,55,52,120
2,note_on,58,62,0
2,note_on,58,0,117
2,note_on,55,0,0
2,note_on,41,57,120
2,note_on,53,68,0
2,note_on,41,0,208
2,note_on,56,62,0
2,note_on,56,0,233
2,note_on,53,0,0
2,note_on,37,51,0
2,note_on,49,61,0
2,note_on,49,0,159
2,note_on,37,0,0
2,note_on,53,45,0
2,note_on,58,53,0
2,note_on,58,0,240
2,note_on,53,0,0
2,note_on,36,45,0
2,note_on,48,54,0
2,note_on,48,0,162
2,note_on,36,0,0
2,note_on,52,40,0
2,note_on,60,48,0
2,note_on,58,40,0
2,note_on,58,0,233
2,note_on,60,0,0
2,note_on,52,0,0
2,note_on,29,49,0
2,note_on,41,58,0
2,note_on,41,0,173
2,note_on,29,0,0
2,note_on,53,46,0
2,note_on,56,46,0
2,note_on,60,55,0
2,note_on,60,0,227
2,note_on,56,0,0
2,note_on,53,0,0
2,note_on,39,47,0
2,note_on,51,56,0
2,note_on,51,0,74
2,note_on,39,0,0
2,note_on,51,44,120
2,note_on,58,52,0
2,note_on,58,0,226
2,note_on,51,0,0
2,note_on,44,44,0
2,note_on,51,44,0
2,note_on,56,52,0
2,note_on,56,0,240
2,note_on,51,0,0
2,note_on,44,0,0
2,note_on,44,56,480
2,note_on,56,66,0
2,note_on,56,0,240
2,note_on,44,0,0
2,note_on,37,57,0
2,note_on,49,68,0
2,note_on,49,0,159
2,note_on,37,0,0
2,note_on,53,50,0
2,note_on,58,59,0
2,note_on,58,0,240
2,note_on,53,0,0
2,note_on,36,58,0
2,note_on,48,69,0
2,note_on,48,0,162
2,note_on,36,0,0
2,note_on,58,52,0
2,note_on,64,62,0
2,note_on,60,52,0
2,note_on,60,0,227
2,note_on,64,0,0
2,note_on,58,0,0
2,note_on,29,60,0
2,note_on,41,71,0
2,note_on,41,0,173
2,note_on,29,0,0
2,note_on,56,67,0
2,note_on,60,67,0
2,note_on,65,67,0
2,note_on,65,0,222
2,note_on,60,0,0
2,note_on,56,0,0
2,note_on,39,59,0
2,note_on,51,70,0
2,note_on,51,0,74
2,note_on,39,0,0
2,note_on,58,55,120
2,note_on,61,55,0
2,note_on,63,55,0
2,note_on,67,65,0
2,note_on,67,0,226
2,note_on,58,0,0
2,note_on,61,0,0
2,note_on,63,0,0
2,note_on,56,55,0
2,note_on,63,55,0
2,note_on,68,65,0
2,note_on,68,0,120
2,note_on,63,0,0
2,note_on,56,0,0
2,note_on,68,64,120
2,note_on,59,64,0
2,note_on,62,64,0
2,note_on,71,64,0
2,note_on,71,0,180
2,note_on,68,0,0
2,note_on,59,0,0
2,note_on,62,0,0
2,note_on,68,58,0
2,note_on,60,58,0
2,note_on,72,58,0
2,note_on,63,58,0
2,note_on,63,0,54
2,note_on,68,0,0
2,note_on,60,0,0
2,note_on,72,0,0
2,note_on,68,65,6
2,note_on,72,65,0
2,note_on,60,65,0
2,note_on,63,65,0
2,note_on,63,0,120
2,note_on,68,0,0
2,note_on,72,0,0
2,note_on,60,0,0
2,note_on,53,56,0
2,note_on,63,56,30
2,note_on,69,66,30
2,note_on,69,0,180
2,note_on,63,0,0
2,note_on,53,0,0
2,note_on,46,60,0
2,note_on,53,60,30
2,note_on,61,71,25
2,note_on,61,0,140
2,note_on,53,0,0
2,note_on,46,0,0
2,note_on,39,56,0
2,note_on,46,56,1
2,note_on,54,66,30
2,note_on,54,0,137
2,note_on,46,0,0
2,note_on,39,0,0
2,note_on,34,52,0
2,note_on,41,52,19
2,note_on,49,62,30
2,note_on,49,0,140
2,note_on,34,0,0
2,note_on,41,0,30
2,note_on,27,52,5
2,note_on,39,62,0
2,note_on,39,0,146
2,note_on,27,0,0
2,note_on,34,52,0
2,note_on,41,52,24
2,note_on,49,62,30
2,note_on,49,0,149
2,note_on,41,0,0
2,note_on,34,0,0
2,note_on,39,51,0
2,note_on,46,51,30
2,note_on,51,61,30
2,note_on,51,0,83
2,note_on,46,0,0
2,note_on,39,0,0
2,note_on,34,56,0
2,note_on,41,56,30
2,note_on,49,66,30
2,note_on,49,0,123
2,note_on,41,0,0
2,note_on,34,0,0
2,note_on,33,50,60
2,note_on,33,0,5
2,note_on,34,50,0
2,note_on,34,0,60
2,note_on,36,51,0
2,note_on,36,0,60
2,note_on,37,51,0
2,note_on,37,0,60
2,note_on,39,51,0
2,note_on,39,0,60
2,note_on,41,52,0
2,note_on,41,0,60
2,note_on,43,53,0
2,note_on,43,0,60
2,note_on,45,53,0
2,note_on,45,0,60
2,note_on,46,54,0
2,note_on,46,0,60
2,note_on,48,55,0
2,note_on,48,0,60
2,note_on,49,55,0
2,note_on,49,0,60
2,note_on,51,56,0
2,note_on,51,0,60
2,note_on,53,56,0
2,note_on,53,0,60
2,note_on,55,56,0
2,note_on,55,0,60
2,note_on,57,57,0
2,note_on,57,0,60
2,note_on,58,57,0
2,note_on,58,0,60
2,note_on,60,58,0
2,note_on,60,0,60
2,note_on,61,59,0
2,note_on,61,0,60
2,note_on,63,59,0
2,note_on,63,0,60
2,note_on,65,60,0
2,note_on,65,0,60
2,note_on,67,61,0
2,note_on,67,0,60
2,note_on,69,61,0
2,note_on,69,0,60
2,note_on,27,62,226
2,note_on,39,73,0
2,note_on,39,0,109
2,note_on,27,0,0
2,note_on,39,56,120
2,note_on,51,66,0
2,note_on,51,0,120
2,note_on,39,0,0
2,note_on,51,61,120
2,note_on,63,72,0
2,note_on,63,0,225
2,note_on,51,0,0
2,note_on,65,70,0
2,note_on,60,59,0
2,note_on,53,59,0
2,note_on,53,0,240
2,note_on,60,0,0
2,note_on,65,0,0
2,note_on,48,56,0
2,note_on,56,56,0
2,note_on,60,66,0
2,note_on,60,0,240
2,note_on,56,0,0
2,note_on,48,0,0
2,note_on,49,61,0
2,note_on,56,72,0
2,note_on,61,72,0
2,note_on,61,0,240
2,note_on,56,0,0
2,note_on,49,0,0
2,note_on,41,56,0
2,note_on,53,66,0
2,note_on,53,0,240
2,note_on,41,0,0
2,note_on,46,60,0
2,note_on,53,72,0
2,note_on,58,72,0
2,note_on,58,0,113
2,note_on,53,0,0
2,note_on,46,0,0
2,note_on,34,58,0
2,note_on,46,69,0
2,note_on,46,0,240
2,note_on,34,0,0
2,note_on,39,65,0
2,note_on,51,77,0
2,note_on,51,0,88
2,note_on,39,0,0
2,note_on,27,60,0
2,note_on,39,71,0
2,note_on,39,0,240
2,note_on,27,0,0
2,note_on,32,67,0
2,note_on,44,79,0
2,note_on,44,0,42
2,note_on,32,0,0
2,note_on,60,67,120
2,note_on,51,67,0
2,note_on,63,79,0
2,note_on,63,0,240
2,note_on,51,0,0
2,note_on,60,0,0
2,note_on,68,77,0
2,note_on,60,77,0
2,note_on,56,64,0
2,note_on,56,0,235
2,note_on,60,0,0
2,note_on,68,0,0
2,note_on,39,72,0
2,note_on,51,85,0
2,note_on,51,0,60
2,note_on,39,0,0
2,note_on,44,73,180
2,note_on,56,86,0
2,note_on,56,0,114
2,note_on,44,0,0
2,note_on,27,61,120
2,note_on,39,73,0
2,note_on,39,0,240
2,note_on,27,0,0
2,note_on,32,67,0
2,note_on,44,79,0
2,note_on,44,0,208
2,note_on,32,0,0
2,note_on,60,61,0
2,note_on,63,73,0
2,note_on,51,61,0
2,note_on,51,0,240
2,note_on,63,0,0
2,note_on,60,0,0
2,note_on,68,75,0
2,note_on,60,75,0
2,note_on,56,63,0
2,note_on,56,0,234
2,note_on,60,0,0
2,note_on,68,0,0
2,note_on,39,67,0
2,note_on,51,80,0
2,note_on,51,0,49
2,note_on,39,0,0
2,note_on,44,73,180
2,note_on,56,86,0
2,note_on,56,0,111
2,note_on,44,0,0
2,note_on,27,61,120
2,note_on,39,73,0
2,note_on,39,0,240
2,note_on,27,0,0
2,note_on,32,67,0
2,note_on,44,79,0
2,note_on,44,0,208
2,note_on,32,0,0
2,note_on,60,61,0
2,note_on,63,73,0
2,note_on,51,61,0
2,note_on,51,0,240
2,note_on,63,0,0
2,note_on,60,0,0
2,note_on,68,75,0
2,note_on,60,75,0
2,note_on,56,63,0
2,note_on,56,0,190
2,note_on,60,0,0
2,note_on,68,0,0
2,note_on,39,61,0
2,note_on,51,73,0
2,note_on,51,0,120
2,note_on,39,0,0
2,note_on,44,64,120
2,note_on,56,77,0
2,note_on,56,0,99
2,note_on,44,0,0
2,note_on,39,62,60
2,note_on,46,62,30
2,note_on,54,74,30
2,note_on,54,0,125
2,note_on,46,0,0
2,note_on,39,0,0
2,note_on,41,62,0
2,note_on,48,62,30
2,note_on,51,74,30
2,note_on,57,74,0
2,note_on,57,0,96
2,note_on,51,0,0
2,note_on,41,0,0
2,note_on,53,61,0
2,note_on,60,61,30
2,note_on,63,73,30
2,note_on,48,0,30
2,note_on,69,73,0
2,note_on,69,0,107
2,note_on,63,0,0
2,note_on,60,0,0
2,note_on,53,0,0
2,note_on,46,63,30
2,note_on,53,75,30
2,note_on,61,75,30
2,note_on,61,0,229
2,note_on,53,0,0
2,note_on,46,0,0
2,note_on,42,60,0
2,note_on,54,71,0
2,note_on,54,0,240
2,note_on,42,0,0
2,note_on,41,60,0
2,note_on,53,71,0
2,note_on,53,0,240
2,note_on,41,0,0
2,note_on,37,58,0
2,note_on,49,69,0
2,note_on,49,0,240
2,note_on,37,0,0
2,note_on,34,67,0
2,note_on,46,79,0
2,note_on,46,0,42
2,note_on,34,0,0
2,note_on,61,79,120
2,note_on,53,67,0
2,note_on,65,79,0
2,note_on,65,0,240
2,note_on,53,0,0
2,note_on,61,0,0
2,note_on,70,77,0
2,note_on,61,77,0
2,note_on,58,64,0
2,note_on,58,0,14
2,note_on,61,0,0
2,note_on,70,0,0
2,note_on,41,72,0
2,note_on,53,85,0
2,note_on,53,0,60
2,note_on,41,0,0
2,note_on,46,73,180
2,note_on,58,86,0
2,note_on,58,0,116
2,note_on,46,0,0
2,note_on,29,61,120
2,note_on,41,73,0
2,note_on,41,0,240
2,note_on,29,0,0
2,note_on,34,67,0
2,note_on,46,79,0
2,note_on,46,0,208
2,note_on,34,0,0
2,note_on,61,61,0
2,note_on,65,73,0
2,note_on,53,61,0
2,note_on,53,0,240
2,note_on,65,0,0
2,note_on,61,0,0
2,note_on,70,75,0
2,note_on,61,75,0
2,note_on,58,63,0
2,note_on,58,0,225
2,note_on,61,0,0
2,note_on,70,0,0
2,note_on,41,67,0
2,note_on,53,80,0
2,note_on,53,0,51
2,note_on,41,0,0
2,note_on,46,73,180
2,note_on,58,86,0
2,note_on,58,0,116
2,note_on,46,0,0
2,note_on,34,61,120
2,note_on,46,73,0
2,note_on,46,0,240
2,note_on,34,0,0
2,note_on,27,67,0
2,note_on,39,79,0
2,note_on,39,0,88
2,note_on,27,0,0
2,note_on,67,60,120
2,note_on,61,60,0
2,note_on,72,72,0
2,note_on,63,60,0
2,note_on,72,0,120
2,note_on,70,70,0
2,note_on,70,0,59
2,note_on,63,0,0
2,note_on,61,0,0
2,note_on,67,0,0
2,note_on,51,75,0
2,note_on,51,0,53
2,note_on,70,72,120
2,note_on,60,58,0
2,note_on,63,69,0
2,note_on,70,0,120
2,note_on,68,70,0
2,note_on,68,0,48
2,note_on,63,0,0
2,note_on,60,0,0
2,note_on,51,73,0
2,note_on,51,0,53
2,note_on,68,72,120
2,note_on,58,56,0
2,note_on,63,67,0
2,note_on,68,0,120
2,note_on,67,70,0
2,note_on,67,0,50
2,note_on,63,0,0
2,note_on,58,0,0
2,note_on,46,70,0
2,note_on,46,0,70
2,note_on,67,72,120
2,note_on,56,55,0
2,note_on,62,66,0
2,note_on,58,55,0
2,note_on,67,0,120
2,note_on,65,70,0
2,note_on,65,0,47
2,note_on,58,0,0
2,note_on,62,0,0
2,note_on,56,0,0
2,note_on,51,72,0
2,note_on,51,0,46
2,note_on,65,72,120
2,note_on,55,57,0
2,note_on,58,68,0
2,note_on,65,0,120
2,note_on,63,70,0
2,note_on,63,0,56
2,note_on,58,0,0
2,note_on,55,0,0
2,note_on,41,62,0
2,note_on,53,74,0
2,note_on,41,0,169
2,note_on,61,72,0
2,note_on,56,68,0
2,note_on,61,0,120
2,note_on,60,70,0
2,note_on,60,0,50
2,note_on,56,0,0
2,note_on,53,0,0
2,note_on,37,62,0
2,note_on,49,74,0
2,note_on,49,0,159
2,note_on,37,0,0
2,note_on,53,55,0
2,note_on,58,64,0
2,note_on,58,0,240
2,note_on,53,0,0
2,note_on,36,63,0
2,note_on,48,75,0
2,note_on,48,0,162
2,note_on,36,0,0
2,note_on,52,57,0
2,note_on,60,68,0
2,note_on,58,57,0
2,note_on,58,0,230
2,note_on,60,0,0
2,note_on,52,0,0
2,note_on,29,66,0
2,note_on,41,78,0
2,note_on,41,0,173
2,note_on,29,0,0
2,note_on,53,73,0
2,note_on,56,73,0
2,note_on,60,73,0
2,note_on,60,0,237
2,note_on,56,0,0
2,note_on,53,0,0
2,note_on,39,57,0
2,note_on,51,69,0
2,note_on,51,0,42
2,note_on,39,0,0
2,note_on,51,54,120
2,note_on,58,63,0
2,note_on,58,0,240
2,note_on,51,0,0
2,note_on,44,60,0
2,note_on,51,60,0
2,note_on,56,71,0
2,note_on,56,0,230
2,note_on,51,0,0
2,note_on,44,0,0
2,note_on,44,61,480
2,note_on,56,72,0
2,note_on,56,0,240
2,note_on,44,0,0
2,note_on,37,62,0
2,note_on,49,74,0
2,note_on,49,0,159
2,note_on,37,0,0
2,note_on,53,55,0
2,note_on,58,64,0
2,note_on,58,0,240
2,note_on,53,0,0
2,note_on,36,63,0
2,note_on,48,75,0
2,note_on,48,0,162
2,note_on,36,0,0
2,note_on,58,57,0
2,note_on,64,68,0
2,note_on,60,57,0
2,note_on,60,0,231
2,note_on,64,0,0
2,note_on,58,0,0
2,note_on,29,66,0
2,note_on,41,78,0
2,note_on,41,0,173
2,note_on,29,0,0
2,note_on,56,73,0
2,note_on,60,73,0
2,note_on,65,73,0
2,note_on,65,0,229
2,note_on,60,0,0
2,note_on,56,0,0
2,note_on,39,64,0
2,note_on,51,77,0
2,note_on,51,0,74
2,note_on,39,0,0
2,note_on,58,60,120
2,note_on,61,60,0
2,note_on,63,60,0
2,note_on,67,71,0
2,note_on,67,0,212
2,note_on,58,0,0
2,note_on,61,0,0
2,note_on,63,0,0
2,note_on,56,60,0
2,note_on,63,60,0
2,note_on,68,71,0
2,note_on,68,0,120
2,note_on,63,0,0
2,note_on,56,0,0
2,note_on,68,70,120
2,note_on,59,70,0
2,note_on,62,70,0
2,note_on,71,70,0
2,note_on,71,0,180
2,note_on,68,0,0
2,note_on,59,0,0
2,note_on,62,0,0
2,note_on,68,63,0
2,note_on,60,63,0
2,note_on,72,63,0
2,note_on,63,63,0
2,note_on,63,0,54
2,note_on,68,0,0
2,note_on,60,0,0
2,note_on,72,0,0
2,note_on,68,71,6
2,note_on,72,71,0
2,note_on,60,71,0
2,note_on,63,71,0
2,note_on,63,0,120
2,note_on,68,0,0
2,note_on,72,0,0
2,note_on,60,0,0
2,note_on,53,61,30
2,note_on,60,61,30
2,note_on,63,61,30
2,note_on,69,72,30
2,note_on,69,0,173
2,note_on,53,0,0
2,note_on,60,0,0
2,note_on,63,0,0
2,note_on,46,66,0
2,note_on,53,66,25
2,note_on,61,78,30
2,note_on,61,0,140
2,note_on,53,0,0
2,note_on,46,0,0
2,note_on,51,61,0
2,note_on,58,61,1
2,note_on,66,72,30
2,note_on,66,0,137
2,note_on,58,0,0
2,note_on,51,0,0
2,note_on,46,57,0
2,note_on,53,57,19
2,note_on,61,68,30
2,note_on,61,0,140
2,note_on,53,0,0
2,note_on,46,0,0
2,note_on,39,57,0
2,note_on,46,57,24
2,note_on,54,68,30
2,note_on,54,0,146
2,note_on,46,0,0
2,note_on,39,0,0
2,note_on,34,57,0
2,note_on,41,57,25
2,note_on,49,68,30
2,note_on,49,0,149
2,note_on,41,0,0
2,note_on,34,0,0
2,note_on,39,56,0
2,note_on,46,56,30
2,note_on,54,67,30
2,note_on,54,0,83
2,note_on,46,0,0
2,note_on,39,0,0
2,note_on,46,61,0
2,note_on,53,61,30
2,note_on,61,72,30
2,note_on,61,0,123
2,note_on,53,0,0
2,note_on,46,0,0
2,note_on,33,55,60
2,note_on,33,0,14
2,note_on,34,55,0
2,note_on,34,0,60
2,note_on,36,56,0
2,note_on,36,0,60
2,note_on,37,56,0
2,note_on,37,0,60
2,note_on,39,56,0
2,note_on,39,0,60
2,note_on,41,57,0
2,note_on,41,0,60
2,note_on,43,58,0
2,note_on,43,0,60
2,note_on,45,58,0
2,note_on,45,0,60
2,note_on,46,59,0
2,note_on,46,0,60
2,note_on,48,60,0
2,note_on,48,0,60
2,note_on,49,60,0
2,note_on,49,0,60
2,note_on,51,61,0
2,note_on,51,0,60
2,note_on,53,61,0
2,note_on,53,0,60
2,note_on,55,61,0
2,note_on,55,0,60
2,note_on,57,62,0
2,note_on,57,0,60
2,note_on,58,62,0
2,note_on,58,0,60
2,note_on,60,63,0
2,note_on,60,0,60
2,note_on,61,64,0
2,note_on,61,0,60
2,note_on,63,64,0
2,note_on,63,0,60
2,note_on,65,66,0
2,note_on,65,0,60
2,note_on,67,67,0
2,note_on,67,0,60
2,note_on,69,65,0
2,note_on,69,0,60
2,note_on,70,66,0
2,note_on,70,0,60
2,note_on,72,67,0
2,note_on,72,0,60
2,note_on,73,68,0
2,note_on,73,0,60
2,note_on,75,69,0
2,note_on,75,0,60
2,note_on,77,70,0
2,note_on,77,0,60
2,note_on,79,71,0
2,note_on,79,0,90
2,note_on,81,72,0
2,note_on,81,0,60
2,note_on,27,68,225
2,note_on,39,80,0
2,note_on,39,0,109
2,note_on,27,0,0
2,note_on,51,61,120
2,note_on,63,72,0
2,note_on,63,0,120
2,note_on,51,0,0
2,note_on,72,67,120
2,note_on,67,67,0
2,note_on,63,67,0
2,note_on,75,79,0
2,note_on,75,0,229
2,note_on,72,0,0
2,note_on,67,0,0
2,note_on,63,0,0
2,note_on,77,77,0
2,note_on,72,64,0
2,note_on,65,64,0
2,note_on,65,0,240
2,note_on,72,0,0
2,note_on,77,0,0
2,note_on,60,61,0
2,note_on,68,61,0
2,note_on,72,72,0
2,note_on,72,0,240
2,note_on,68,0,0
2,note_on,60,0,0
2,note_on,61,61,0
2,note_on,68,61,0
2,note_on,73,72,0
2,note_on,73,0,120
2,note_on,68,0,0
2,note_on,61,0,0
2,note_on,39,58,120
2,note_on,51,69,0
2,note_on,51,0,459
2,note_on,39,0,0
2,note_on,27,51,0
2,note_on,39,61,0
2,note_on,39,0,115
2,note_on,27,0,0
2,note_on,32,51,120
2,note_on,44,61,0
2,note_on,44,0,120
2,note_on,32,0,0
2,note_on,24,47,360
2,note_on,36,55,0
2,note_on,36,0,81
2,note_on,24,0,0
2,note_on,36,34,120
2,note_on,48,41,0
2,note_on,48,0,120
2,note_on,36,0,0
2,note_on,36,33,60
2,note_on,48,39,0
2,note_on,48,0,50
2,note_on,36,0,0
2,note_on,40,44,0
2,note_on,49,44,0
2,note_on,49,0,166
2,note_on,40,0,0
2,note_on,28,35,0
2,note_on,40,42,0
2,note_on,40,0,120
2,note_on,28,0,0
2,note_on,40,36,60
2,note_on,48,44,0
2,note_on,48,0,48
2,note_on,40,0,0
2,note_on,41,40,0
2,note_on,51,49,0
2,note_on,51,0,180
2,note_on,41,0,0
2,note_on,29,39,0
2,note_on,41,47,0
2,note_on,41,0,120
2,note_on,29,0,0
2,note_on,41,37,60
2,note_on,49,45,0
2,note_on,49,0,50
2,note_on,41,0,0
2,note_on,43,44,0
2,note_on,53,51,0
2,note_on,53,0,203
2,note_on,43,0,0
2,note_on,31,39,0
2,note_on,43,48,0
2,note_on,43,0,120
2,note_on,31,0,0
2,note_on,43,39,60
2,note_on,52,45,0
2,note_on,52,0,48
2,note_on,43,0,0
2,note_on,44,51,0
2,note_on,55,51,0
2,note_on,55,0,189
2,note_on,44,0,0
2,note_on,32,42,0
2,note_on,44,51,0
2,note_on,44,0,120
2,note_on,32,0,0
2,note_on,44,43,60
2,note_on,53,51,0
2,note_on,53,0,49
2,note_on,44,0,0
2,note_on,44,48,0
2,note_on,56,56,0
2,note_on,56,0,180
2,note_on,44,0,0
2,note_on,32,47,0
2,note_on,44,56,0
2,note_on,44,0,120
2,note_on,32,0,0
2,note_on,44,45,60
2,note_on,54,52,0
2,note_on,54,0,49
2,note_on,44,0,0
2,note_on,43,46,0
2,note_on,55,55,0
2,note_on,55,0,159
2,note_on,43,0,0
2,note_on,55,52,0
2,note_on,67,52,0
2,note_on,67,0,60
2,note_on,55,0,0
2,note_on,55,54,60
2,note_on,67,54,0
2,note_on,67,0,60
2,note_on,55,0,0
2,note_on,57,60,60
2,note_on,69,60,0
2,note_on,69,0,106
2,note_on,57,0,0
2,note_on,55,56,0
2,note_on,67,56,0
2,note_on,67,0,120
2,note_on,55,0,0
2,note_on,55,56,0
2,note_on,67,56,0
2,note_on,67,0,35
2,note_on,55,0,0
2,note_on,55,56,60
2,note_on,67,56,0
2,note_on,67,0,60
2,note_on,55,0,0
2,note_on,55,65,60
2,note_on,67,65,0
2,note_on,67,0,120
2,note_on,55,0,0
2,note_on,62,53,120
2,note_on,65,53,0
2,note_on,67,53,0
2,note_on,71,53,0
2,note_on,71,0,152
2,note_on,62,0,0
2,note_on,65,0,0
2,note_on,67,0,0
2,note_on,60,49,0
2,note_on,67,49,0
2,note_on,72,49,0
2,note_on,72,0,166
2,note_on,67,0,0
2,note_on,60,0,0
2,note_on,48,50,0
2,note_on,48,0,60
2,note_on,52,51,0
2,note_on,52,0,60
2,note_on,55,52,0
2,note_on,55,0,60
2,note_on,59,53,0
2,note_on,59,0,60
2,note_on,60,54,0
2,note_on,60,0,60
2,note_on,64,56,0
2,note_on,64,0,60
2,note_on,67,57,0
2,note_on,67,0,60
2,note_on,71,57,0
2,note_on,71,0,60
2,note_on,72,62,0
2,note_on,72,0,120
2,note_on,60,56,0
2,note_on,60,0,120
2,note_on,61,49,0
2,note_on,73,58,0
2,note_on,73,0,166
2,note_on,61,0,0
2,note_on,62,52,0
2,note_on,74,62,0
2,note_on,74,0,191
2,note_on,62,0,0
2,note_on,63,55,0
2,note_on,75,65,0
2,note_on,75,0,53
2,note_on,63,0,0
2,note_on,39,34,120
2,note_on,51,41,0
2,note_on,51,0,120
2,note_on,39,0,0
2,note_on,39,33,60
2,note_on,51,39,0
2,note_on,51,0,49
2,note_on,39,0,0
2,note_on,43,44,0
2,note_on,52,44,0
2,note_on,52,0,173
2,note_on,43,0,0
2,note_on,31,35,0
2,note_on,43,42,0
2,note_on,43,0,120
2,note_on,31,0,0
2,note_on,43,36,60
2,note_on,51,44,0
2,note_on,51,0,47
2,note_on,43,0,0
2,note_on,44,40,0
2,note_on,54,49,0
2,note_on,54,0,180
2,note_on,44,0,0
2,note_on,32,39,0
2,note_on,44,47,0
2,note_on,44,0,120
2,note_on,32,0,0
2,note_on,44,37,60
2,note_on,52,45,0
2,note_on,52,0,49
2,note_on,44,0,0
2,note_on,46,44,0
2,note_on,56,51,0
2,note_on,56,0,203
2,note_on,46,0,0
2,note_on,34,39,0
2,note_on,46,48,0
2,note_on,46,0,120
2,note_on,34,0,0
2,note_on,46,38,60
2,note_on,55,45,0
2,note_on,55,0,50
2,note_on,46,0,0
2,note_on,47,51,0
2,note_on,58,51,0
2,note_on,58,0,177
2,note_on,47,0,0
2,note_on,35,42,0
2,note_on,47,51,0
2,note_on,47,0,120
2,note_on,35,0,0
2,note_on,47,43,60
2,note_on,56,51,0
2,note_on,56,0,46
2,note_on,47,0,0
2,note_on,47,48,0
2,note_on,59,56,0
2,note_on,59,0,180
2,note_on,47,0,0
2,note_on,35,47,0
2,note_on,47,56,0
2,note_on,47,0,120
2,note_on,35,0,0
2,note_on,47,45,60
2,note_on,57,52,0
2,note_on,57,0,53
2,note_on,47,0,0
2,note_on,46,46,0
2,note_on,58,55,0
2,note_on,58,0,159
2,note_on,46,0,0
2,note_on,58,52,0
2,note_on,70,52,0
2,note_on,70,0,60
2,note_on,58,0,0
2,note_on,58,54,60
2,note_on,70,54,0
2,note_on,70,0,60
2,note_on,58,0,0
2,note_on,60,60,60
2,note_on,72,60,0
2,note_on,72,0,115
2,note_on,60,0,0
2,note_on,58,56,0
2,note_on,70,56,0
2,note_on,70,0,120
2,note_on,58,0,0
2,note_on,58,56,0
2,note_on,70,56,0
2,note_on,70,0,14
2,note_on,58,0,0
2,note_on,58,56,60
2,note_on,70,56,0
2,note_on,70,0,60
2,note_on,58,0,0
2,note_on,58,65,60
2,note_on,70,65,0
2,note_on,70,0,120
2,note_on,58,0,0
2,note_on,58,53,30
2,note_on,65,53,30
2,note_on,68,53,27
2,note_on,74,53,30
2,note_on,74,0,205
2,note_on,58,0,0
2,note_on,65,0,0
2,note_on,68,0,0
2,note_on,63,49,0
2,note_on,67,49,0
2,note_on,75,49,0
2,note_on,75,0,233
2,note_on,67,0,0
2,note_on,63,0,0
2,note_on,51,40,0
2,note_on,59,40,0
2,note_on,63,48,0
2,note_on,63,0,187
2,note_on,59,0,0
2,note_on,51,0,0
2,note_on,51,38,0
2,note_on,58,38,0
2,note_on,63,45,0
2,note_on,63,0,144
2,note_on,58,0,0
2,note_on,51,0,0
2,note_on,39,40,0
2,note_on,47,40,0
2,note_on,51,48,0
2,note_on,51,0,180
2,note_on,47,0,0
2,note_on,39,0,0
2,note_on,39,38,0
2,note_on,46,38,0
2,note_on,51,45,0
2,note_on,51,0,152
2,note_on,46,0,0
2,note_on,39,0,0
2,note_on,27,45,0
2,note_on,39,45,0
2,note_on,39,0,120
2,note_on,27,0,0
2,note_on,25,49,67
2,note_on,37,58,0
2,note_on,37,0,44
2,note_on,25,0,0
2,note_on,53,38,120
2,note_on,55,45,0
2,note_on,55,0,90
2,note_on,53,0,0
2,note_on,53,39,30
2,note_on,55,47,0
2,note_on,55,0,90
2,note_on,53,0,0
2,note_on,53,41,30
2,note_on,55,49,0
2,note_on,55,0,180
2,note_on,53,0,0
2,note_on,53,38,60
2,note_on,55,45,0
2,note_on,55,0,180
2,note_on,53,0,0
2,note_on,53,38,60
2,note_on,55,45,0
2,note_on,55,0,180
2,note_on,53,0,0
2,note_on,53,38,60
2,note_on,55,45,0
2,note_on,55,0,180
2,note_on,53,0,0
2,note_on,36,45,60
2,note_on,48,53,0
2,note_on,36,0,202
2,note_on,52,39,0
2,note_on,55,47,0
2,note_on,55,0,90
2,note_on,52,0,0
2,note_on,52,39,30
2,note_on,55,47,0
2,note_on,55,0,90
2,note_on,52,0,0
2,note_on,52,42,30
2,note_on,55,50,0
2,note_on,55,0,180
2,note_on,52,0,0
2,note_on,52,38,60
2,note_on,55,45,0
2,note_on,55,0,167
2,note_on,52,0,0
2,note_on,48,0,60
2,note_on,34,46,0
2,note_on,46,55,0
2,note_on,46,0,205
2,note_on,34,0,0
2,note_on,55,45,0
2,note_on,53,38,0
2,note_on,53,0,240
2,note_on,55,0,0
2,note_on,36,45,0
2,note_on,48,53,0
2,note_on,36,0,120
2,note_on,52,39,0
2,note_on,55,47,0
2,note_on,55,0,90
2,note_on,52,0,0
2,note_on,52,39,30
2,note_on,55,47,0
2,note_on,55,0,90
2,note_on,52,0,0
2,note_on,55,50,30
2,note_on,52,42,0
2,note_on,52,0,180
2,note_on,55,0,0
2,note_on,52,38,60
2,note_on,55,45,0
2,note_on,55,0,155
2,note_on,52,0,0
2,note_on,48,0,60
2,note_on,34,46,0
2,note_on,46,55,0
2,note_on,46,0,205
2,note_on,34,0,0
2,note_on,53,38,0
2,note_on,55,45,0
2,note_on,55,0,240
2,note_on,53,0,0
2,note_on,48,53,0
2,note_on,36,45,0
2,note_on,36,0,137
2,note_on,48,0,0
2,note_on,60,47,0
2,note_on,55,39,0
2,note_on,58,39,0
2,note_on,58,0,90
2,note_on,55,0,0
2,note_on,60,0,0
2,note_on,55,39,30
2,note_on,58,39,0
2,note_on,60,47,0
2,note_on,60,0,90
2,note_on,58,0,0
2,note_on,55,0,0
2,note_on,55,42,30
2,note_on,58,42,0
2,note_on,60,50,0
2,note_on,60,0,180
2,note_on,58,0,0
2,note_on,55,0,0
2,note_on,58,38,60
2,note_on,55,38,0
2,note_on,60,45,0
2,note_on,60,0,180
2,note_on,55,0,0
2,note_on,58,0,0
2,note_on,41,46,60
2,note_on,53,55,0
2,note_on,41,0,166
2,note_on,56,38,0
2,note_on,60,45,0
2,note_on,60,0,240
2,note_on,56,0,0
2,note_on,53,0,0
2,note_on,37,49,0
2,note_on,49,58,0
2,note_on,49,0,139
2,note_on,37,0,0
2,note_on,58,38,0
2,note_on,55,38,0
2,note_on,65,45,0
2,note_on,65,0,90
2,note_on,55,0,0
2,note_on,58,0,0
2,note_on,55,39,30
2,note_on,65,47,0
2,note_on,58,39,0
2,note_on,58,0,90
2,note_on,65,0,0
2,note_on,55,0,0
2,note_on,58,41,30
2,note_on,55,41,0
2,note_on,65,49,0
2,note_on,65,0,180
2,note_on,55,0,0
2,note_on,58,0,0
2,note_on,55,38,60
2,note_on,58,38,0
2,note_on,65,45,0
2,note_on,65,0,180
2,note_on,58,0,0
2,note_on,55,0,0
2,note_on,55,38,60
2,note_on,65,45,0
2,note_on,65,0,180
2,note_on,55,0,0
2,note_on,65,45,60
2,note_on,55,38,0
2,note_on,55,0,180
2,note_on,65,0,0
2,note_on,36,45,60
2,note_on,48,53,0
2,note_on,48,0,117
2,note_on,36,0,0
2,note_on,64,47,0
2,note_on,55,39,0
2,note_on,55,0,90
2,note_on,64,0,0
2,note_on,64,47,30
2,note_on,55,39,0
2,note_on,55,0,90
2,note_on,64,0,0
2,note_on,64,50,30
2,note_on,55,42,0
2,note_on,55,0,180
2,note_on,64,0,0
2,note_on,55,38,60
2,note_on,64,45,0
2,note_on,64,0,25
2,note_on,55,0,0
2,note_on,34,46,60
2,note_on,46,55,0
2,note_on,46,0,205
2,note_on,34,0,0
2,note_on,56,38,0
2,note_on,53,38,0
2,note_on,65,45,0
2,note_on,65,0,240
2,note_on,53,0,0
2,note_on,56,0,0
2,note_on,36,45,0
2,note_on,48,53,0
2,note_on,48,0,117
2,note_on,36,0,0
2,note_on,64,47,0
2,note_on,55,39,0
2,note_on,55,0,90
2,note_on,64,0,0
2,note_on,64,48,30
2,note_on,55,40,0
2,note_on,55,0,90
2,note_on,64,0,0
2,note_on,64,50,30
2,note_on,55,43,0
2,note_on,55,0,180
2,note_on,64,0,0
2,note_on,55,39,60
2,note_on,64,46,0
2,note_on,64,0,180
2,note_on,55,0,0
2,note_on,34,48,57
2,note_on,46,57,0
2,note_on,46,0,205
2,note_on,34,0,0
2,note_on,56,40,0
2,note_on,65,48,0
2,note_on,53,40,0
2,note_on,53,0,240
2,note_on,65,0,0
2,note_on,56,0,0
2,note_on,34,49,0
2,note_on,46,58,0
2,note_on,46,0,205
2,note_on,34,0,0
2,note_on,56,41,0
2,note_on,62,41,0
2,note_on,68,50,0
2,note_on,58,41,0
2,note_on,58,0,240
2,note_on,56,0,0
2,note_on,62,0,0
2,note_on,68,0,0
2,note_on,39,62,0
2,note_on,27,53,0
2,note_on,27,0,185
2,note_on,39,0,0
2,note_on,61,46,0
2,note_on,58,46,0
2,note_on,63,54,0
2,note_on,55,46,0
2,note_on,55,0,240
2,note_on,61,0,0
2,note_on,58,0,0
2,note_on,63,0,0
2,note_on,58,57,0
2,note_on,61,57,0
2,note_on,63,57,0
2,note_on,67,68,0
2,note_on,67,0,199
2,note_on,58,0,0
2,note_on,61,0,0
2,note_on,63,0,0
2,note_on,61,49,0
2,note_on,63,49,0
2,note_on,67,49,0
2,note_on,73,59,0
2,note_on,73,0,480
2,note_on,61,0,0
2,note_on,63,0,0
2,note_on,67,0,0
2,note_on,32,67,0
2,note_on,44,79,0
2,note_on,44,0,120
2,note_on,32,0,0
2,note_on,60,67,120
2,note_on,51,67,0
2,note_on,63,79,0
2,note_on,63,0,240
2,note_on,51,0,0
2,note_on,60,0,0
2,note_on,68,77,0
2,note_on,60,77,0
2,note_on,56,64,0
2,note_on,56,0,218
2,note_on,60,0,0
2,note_on,68,0,0
2,note_on,39,72,0
2,note_on,51,85,0
2,note_on,51,0,56
2,note_on,39,0,0
2,note_on,44,73,180
2,note_on,56,86,0
2,note_on,56,0,110
2,note_on,44,0,0
2,note_on,27,61,120
2,note_on,39,73,0
2,note_on,39,0,240
2,note_on,27,0,0
2,note_on,32,67,0
2,note_on,44,79,0
2,note_on,44,0,208
2,note_on,32,0,0
2,note_on,60,61,0
2,note_on,63,73,0
2,note_on,51,61,0
2,note_on,51,0,240
2,note_on,63,0,0
2,note_on,60,0,0
2,note_on,68,75,0
2,note_on,60,75,0
2,note_on,56,63,0
2,note_on,56,0,220
2,note_on,60,0,0
2,note_on,68,0,0
2,note_on,39,67,0
2,note_on,51,80,0
2,note_on,51,0,49
2,note_on,39,0,0
2,note_on,44,73,180
2,note_on,56,86,0
2,note_on,56,0,104
2,note_on,44,0,0
2,note_on,27,61,120
2,note_on,39,73,0
2,note_on,39,0,240
2,note_on,27,0,0
2,note_on,32,67,0
2,note_on,44,79,0
2,note_on,44,0,208
2,note_on,32,0,0
2,note_on,60,61,0
2,note_on,63,73,0
2,note_on,51,61,0
2,note_on,51,0,240
2,note_on,63,0,0
2,note_on,60,0,0
2,note_on,68,75,0
2,note_on,60,75,0
2,note_on,56,63,0
2,note_on,56,0,180
2,note_on,60,0,0
2,note_on,68,0,0
2,note_on,39,61,0
2,note_on,51,73,0
2,note_on,51,0,120
2,note_on,39,0,0
2,note_on,44,64,120
2,note_on,56,77,0
2,note_on,56,0,105
2,note_on,44,0,0
2,note_on,39,62,60
2,note_on,46,62,30
2,note_on,54,74,30
2,note_on,54,0,125
2,note_on,46,0,0
2,note_on,39,0,0
2,note_on,41,62,0
2,note_on,48,62,30
2,note_on,51,74,30
2,note_on,57,74,0
2,note_on,57,0,50
2,note_on,51,0,0
2,note_on,41,0,0
2,note_on,53,61,0
2,note_on,60,61,30
2,note_on,63,73,30
2,note_on,48,0,30
2,note_on,69,73,0
2,note_on,69,0,150
2,note_on,63,0,0
2,note_on,60,0,0
2,note_on,53,0,0
2,note_on,46,63,11
2,note_on,53,75,30
2,note_on,61,75,30
2,note_on,61,0,240
2,note_on,53,0,0
2,note_on,46,0,0
2,note_on,42,60,0
2,note_on,54,71,0
2,note_on,54,0,240
2,note_on,42,0,0
2,note_on,41,60,0
2,note_on,53,71,0
2,note_on,53,0,240
2,note_on,41,0,0
2,note_on,37,58,0
2,note_on,49,69,0
2,note_on,49,0,240
2,note_on,37,0,0
2,note_on,34,67,0
2,note_on,46,79,0
2,note_on,46,0,42
2,note_on,34,0,0
2,note_on,61,79,120
2,note_on,53,67,0
2,note_on,65,79,0
2,note_on,65,0,240
2,note_on,53,0,0
2,note_on,61,0,0
2,note_on,70,77,0
2,note_on,61,77,0
2,note_on,58,64,0
2,note_on,58,0,14
2,note_on,61,0,0
2,note_on,70,0,0
2,note_on,41,72,0
2,note_on,53,85,0
2,note_on,53,0,60
2,note_on,41,0,0
2,note_on,46,73,0
2,note_on,58,86,0
2,note_on,58,0,120
2,note_on,46,0,0
2,note_on,29,61,120
2,note_on,41,73,0
2,note_on,41,0,240
2,note_on,29,0,0
2,note_on,34,67,0
2,note_on,46,79,0
2,note_on,46,0,208
2,note_on,34,0,0
2,note_on,61,61,0
2,note_on,65,73,0
2,note_on,53,61,0
2,note_on,53,0,240
2,note_on,65,0,0
2,note_on,61,0,0
2,note_on,70,75,0
2,note_on,61,75,0
2,note_on,58,63,0
2,note_on,58,0,227
2,note_on,61,0,0
2,note_on,70,0,0
2,note_on,41,67,0
2,note_on,53,80,0
2,note_on,53,0,51
2,note_on,41,0,0
2,note_on,46,73,180
2,note_on,58,86,0
2,note_on,58,0,109
2,note_on,46,0,0
2,note_on,34,61,120
2,note_on,46,73,0
2,note_on,46,0,240
2,note_on,34,0,0
2,note_on,27,67,0
2,note_on,39,79,0
2,note_on,39,0,88
2,note_on,27,0,0
2,note_on,67,60,120
2,note_on,61,60,0
2,note_on,72,72,0
2,note_on,63,60,0
2,note_on,72,0,120
2,note_on,70,70,0
2,note_on,70,0,53
2,note_on,63,0,0
2,note_on,61,0,0
2,note_on,67,0,0
2,note_on,51,75,0
2,note_on,51,0,88
2,note_on,70,72,120
2,note_on,60,58,0
2,note_on,63,69,0
2,note_on,70,0,120
2,note_on,68,70,0
2,note_on,68,0,50
2,note_on,63,0,0
2,note_on,60,0,0
2,note_on,51,73,0
2,note_on,51,0,88
2,note_on,68,72,120
2,note_on,58,56,0
2,note_on,63,67,0
2,note_on,68,0,120
2,note_on,67,70,0
2,note_on,67,0,50
2,note_on,63,0,0
2,note_on,58,0,0
2,note_on,46,70,0
2,note_on,46,0,88
2,note_on,67,72,120
2,note_on,56,55,0
2,note_on,62,66,0
2,note_on,58,55,0
2,note_on,67,0,120
2,note_on,65,70,0
2,note_on,65,0,50
2,note_on,58,0,0
2,note_on,62,0,0
2,note_on,56,0,0
2,note_on,51,72,0
2,note_on,51,0,88
2,note_on,65,72,120
2,note_on,55,57,0
2,note_on,58,68,0
2,note_on,65,0,120
2,note_on,63,70,0
2,note_on,63,0,50
2,note_on,58,0,0
2,note_on,55,0,0
2,note_on,41,62,0
2,note_on,53,74,0
2,note_on,41,0,208
2,note_on,61,72,0
2,note_on,56,68,0
2,note_on,61,0,120
2,note_on,60,70,0
2,note_on,60,0,53
2,note_on,56,0,0
2,note_on,53,0,0
2,note_on,37,62,0
2,note_on,49,74,0
2,note_on,49,0,159
2,note_on,37,0,0
2,note_on,53,55,0
2,note_on,58,64,0
2,note_on,58,0,240
2,note_on,53,0,0
2,note_on,36,50,0
2,note_on,48,60,0
2,note_on,48,0,162
2,note_on,36,0,0
2,note_on,52,45,0
2,note_on,60,54,0
2,note_on,58,45,0
2,note_on,58,0,231
2,note_on,60,0,0
2,note_on,52,0,0
2,note_on,29,52,0
2,note_on,41,62,0
2,note_on,41,0,173
2,note_on,29,0,0
2,note_on,53,58,0
2,note_on,56,58,0
2,note_on,60,58,0
2,note_on,60,0,227
2,note_on,56,0,0
2,note_on,53,0,0
2,note_on,39,43,0
2,note_on,51,51,0
2,note_on,51,0,74
2,note_on,39,0,0
2,note_on,51,40,120
2,note_on,58,47,0
2,note_on,58,0,240
2,note_on,51,0,0
2,note_on,44,40,0
2,note_on,51,48,0
2,note_on,56,56,0
2,note_on,56,0,221
2,note_on,51,0,0
2,note_on,44,0,0
2,note_on,44,55,480
2,note_on,56,65,0
2,note_on,56,0,240
2,note_on,44,0,0
2,note_on,37,56,0
2,note_on,49,67,0
2,note_on,49,0,159
2,note_on,37,0,0
2,note_on,53,50,0
2,note_on,58,58,0
2,note_on,58,0,240
2,note_on,53,0,0
2,note_on,36,57,0
2,note_on,48,69,0
2,note_on,48,0,162
2,note_on,36,0,0
2,note_on,58,51,0
2,note_on,64,62,0
2,note_on,60,51,0
2,note_on,60,0,230
2,note_on,64,0,0
2,note_on,58,0,0
2,note_on,29,59,0
2,note_on,41,71,0
2,note_on,41,0,173
2,note_on,29,0,0
2,note_on,56,66,0
2,note_on,60,66,0
2,note_on,65,66,0
2,note_on,65,0,226
2,note_on,60,0,0
2,note_on,56,0,0
2,note_on,39,58,0
2,note_on,51,70,0
2,note_on,51,0,74
2,note_on,39,0,0
2,note_on,58,46,120
2,note_on,61,46,0
2,note_on,63,55,0
2,note_on,67,64,0
2,note_on,67,0,225
2,note_on,58,0,0
2,note_on,61,0,0
2,note_on,63,0,0
2,note_on,56,55,0
2,note_on,63,55,0
2,note_on,68,64,0
2,note_on,68,0,120
2,note_on,63,0,0
2,note_on,56,0,0
2,note_on,68,64,120
2,note_on,59,64,0
2,note_on,62,64,0
2,note_on,71,64,0
2,note_on,71,0,180
2,note_on,68,0,0
2,note_on,59,0,0
2,note_on,62,0,0
2,note_on,68,57,0
2,note_on,60,57,0
2,note_on,72,57,0
2,note_on,63,57,0
2,note_on,63,0,54
2,note_on,68,0,0
2,note_on,60,0,0
2,note_on,72,0,0
2,note_on,68,64,6
2,note_on,72,64,0
2,note_on,60,64,0
2,note_on,63,64,0
2,note_on,63,0,120
2,note_on,68,0,0
2,note_on,72,0,0
2,note_on,60,0,0
2,note_on,53,55,30
2,note_on,60,55,30
2,note_on,63,55,30
2,note_on,69,65,30
2,note_on,69,0,180
2,note_on,53,0,0
2,note_on,60,0,0
2,note_on,63,0,0
2,note_on,46,59,0
2,note_on,53,59,30
2,note_on,61,71,25
2,note_on,61,0,140
2,note_on,53,0,0
2,note_on,46,0,0
2,note_on,51,55,0
2,note_on,58,55,1
2,note_on,66,65,30
2,note_on,66,0,137
2,note_on,58,0,0
2,note_on,51,0,0
2,note_on,46,51,0
2,note_on,53,51,19
2,note_on,61,62,30
2,note_on,61,0,140
2,note_on,53,0,0
2,note_on,46,0,0
2,note_on,39,51,0
2,note_on,46,51,24
2,note_on,54,62,30
2,note_on,54,0,146
2,note_on,46,0,0
2,note_on,39,0,0
2,note_on,34,51,0
2,note_on,41,51,1
2,note_on,49,62,30
2,note_on,49,0,149
2,note_on,41,0,0
2,note_on,34,0,0
2,note_on,39,50,0
2,note_on,46,50,30
2,note_on,54,60,30
2,note_on,54,0,83
2,note_on,46,0,0
2,note_on,39,0,0
2,note_on,46,55,0
2,note_on,53,55,30
2,note_on,61,65,30
2,note_on,61,0,123
2,note_on,53,0,0
2,note_on,46,0,0
2,note_on,33,55,60
2,note_on,33,0,11
2,note_on,34,55,0
2,note_on,34,0,60
2,note_on,36,56,0
2,note_on,36,0,60
2,note_on,37,56,0
2,note_on,37,0,60
2,note_on,39,56,0
2,note_on,39,0,60
2,note_on,41,57,0
2,note_on,41,0,60
2,note_on,43,58,0
2,note_on,43,0,60
2,note_on,45,58,0
2,note_on,45,0,60
2,note_on,46,59,0
2,note_on,46,0,60
2,note_on,48,60,0
2,note_on,48,0,60
2,note_on,49,60,0
2,note_on,49,0,60
2,note_on,51,61,0
2,note_on,51,0,60
2,note_on,53,61,0
2,note_on,53,0,60
2,note_on,55,61,0
2,note_on,55,0,60
2,note_on,57,62,0
2,note_on,57,0,60
2,note_on,58,62,0
2,note_on,58,0,60
2,note_on,60,63,0
2,note_on,60,0,60
2,note_on,61,64,0
2,note_on,61,0,60
2,note_on,63,64,0
2,note_on,63,0,60
2,note_on,65,66,0
2,note_on,65,0,60
2,note_on,67,67,0
2,note_on,67,0,60
2,note_on,69,65,0
2,note_on,69,0,60
2,note_on,70,66,0
2,note_on,70,0,60
2,note_on,72,67,0
2,note_on,72,0,60
2,note_on,73,68,0
2,note_on,73,0,60
2,note_on,75,69,0
2,note_on,75,0,60
2,note_on,77,70,0
2,note_on,77,0,60
2,note_on,79,71,0
2,note_on,79,0,90
2,note_on,81,72,0
2,note_on,81,0,60
2,note_on,27,68,218
2,note_on,39,80,0
2,note_on,39,0,109
2,note_on,27,0,0
2,note_on,51,61,120
2,note_on,63,72,0
2,note_on,63,0,120
2,note_on,51,0,0
2,note_on,72,67,120
2,note_on,67,67,0
2,note_on,63,67,0
2,note_on,75,79,0
2,note_on,75,0,229
2,note_on,72,0,0
2,note_on,67,0,0
2,note_on,63,0,0
2,note_on,77,77,0
2,note_on,72,64,0
2,note_on,65,64,0
2,note_on,65,0,240
2,note_on,72,0,0
2,note_on,77,0,0
2,note_on,60,61,0
2,note_on,68,61,0
2,note_on,72,72,0
2,note_on,72,0,240
2,note_on,68,0,0
2,note_on,60,0,0
2,note_on,61,61,0
2,note_on,68,61,0
2,note_on,73,72,0
2,note_on,73,0,120
2,note_on,68,0,0
2,note_on,61,0,0
2,note_on,39,58,120
2,note_on,51,69,0
2,note_on,51,0,423
2,note_on,39,0,0
2,note_on,27,51,0
2,note_on,39,61,0
2,note_on,39,0,113
2,note_on,27,0,0
2,note_on,32,51,120
2,note_on,44,61,0
2,note_on,44,0,120
2,note_on,32,0,0
2,note_on,40,53,300
2,note_on,47,56,24
2,note_on,52,60,30
2,note_on,52,0,390
2,note_on,47,0,0
2,note_on,40,0,0
2,note_on,40,53,30
2,note_on,47,56,30
2,note_on,52,60,30
2,note_on,52,0,390
2,note_on,47,0,0
2,note_on,40,0,0
2,note_on,40,53,30
2,note_on,47,56,30
2,note_on,52,60,30
2,note_on,52,0,390
2,note_on,47,0,0
2,note_on,40,0,0
2,note_on,40,53,30
2,note_on,47,56,30
2,note_on,52,60,30
2,note_on,52,0,390
2,note_on,47,0,0
2,note_on,40,0,0
2,note_on,40,53,30
2,note_on,47,56,30
2,note_on,52,60,30
2,note_on,52,0,390
2,note_on,47,0,0
2,note_on,40,0,0
2,note_on,40,53,30
2,note_on,47,56,30
2,note_on,52,60,30
2,note_on,52,0,480
2,note_on,47,0,0
2,note_on,40,0,0
2,note_on,40,53,0
2,note_on,47,53,0
2,note_on,52,63,0
2,note_on,52,0,60
2,note_on,47,0,0
2,note_on,40,0,0
2,note_on,39,24,11
2,note_on,51,28,0
2,note_on,51,0,60
2,note_on,39,0,0
2,note_on,37,24,60
2,note_on,49,28,0
2,note_on,49,0,60
2,note_on,37,0,0
2,note_on,35,24,60
2,note_on,47,28,0
2,note_on,47,0,60
2,note_on,35,0,0
2,note_on,40,28,60
2,note_on,52,35,0
2,note_on,52,0,60
2,note_on,40,0,0
2,note_on,39,27,60
2,note_on,51,32,0
2,note_on,51,0,60
2,note_on,39,0,0
2,note_on,37,24,60
2,note_on,49,28,0
2,note_on,49,0,60
2,note_on,37,0,0
2,note_on,35,24,60
2,note_on,47,28,0
2,note_on,47,0,60
2,note_on,35,0,0
2,note_on,40,28,60
2,note_on,52,35,0
2,note_on,52,0,60
2,note_on,40,0,0
2,note_on,39,24,60
2,note_on,51,28,0
2,note_on,51,0,60
2,note_on,39,0,0
2,note_on,37,24,60
2,note_on,49,28,0
2,note_on,49,0,60
2,note_on,37,0,0
2,note_on,35,24,60
2,note_on,47,28,0
2,note_on,47,0,60
2,note_on,35,0,0
2,note_on,40,29,60
2,note_on,52,34,0
2,note_on,52,0,60
2,note_on,40,0,0
2,note_on,39,24,60
2,note_on,51,28,0
2,note_on,51,0,60
2,note_on,39,0,0
2,note_on,37,24,60
2,note_on,49,28,0
2,note_on,49,0,60
2,note_on,37,0,0
2,note_on,35,24,60
2,note_on,47,28,0
2,note_on,47,0,60
2,note_on,35,0,0
2,note_on,40,29,60
2,note_on,52,34,0
2,note_on,52,0,60
2,note_on,40,0,0
2,note_on,39,26,60
2,note_on,51,32,0
2,note_on,51,0,60
2,note_on,39,0,0
2,note_on,37,24,60
2,note_on,49,29,0
2,note_on,49,0,60
2,note_on,37,0,0
2,note_on,35,24,60
2,note_on,47,29,0
2,note_on,47,0,60
2,note_on,35,0,0
2,note_on,40,29,60
2,note_on,52,35,0
2,note_on,52,0,60
2,note_on,40,0,0
2,note_on,39,23,60
2,note_on,51,28,0
2,note_on,51,0,60
2,note_on,39,0,0
2,note_on,37,23,60
2,note_on,49,28,0
2,note_on,49,0,60
2,note_on,37,0,0
2,note_on,35,23,60
2,note_on,47,28,0
2,note_on,47,0,60
2,note_on,35,0,0
2,note_on,40,30,60
2,note_on,52,36,0
2,note_on,52,0,60
2,note_on,40,0,0
2,note_on,39,24,60
2,note_on,51,29,0
2,note_on,51,0,60
2,note_on,39,0,0
2,note_on,37,25,60
2,note_on,49,29,0
2,note_on,49,0,60
2,note_on,37,0,0
2,note_on,35,25,60
2,note_on,47,29,0
2,note_on,47,0,60
2,note_on,35,0,0
2,note_on,40,30,60
2,note_on,52,36,0
2,note_on,52,0,60
2,note_on,40,0,0
2,note_on,39,28,60
2,note_on,51,34,0
2,note_on,51,0,60
2,note_on,39,0,0
2,note_on,37,25,60
2,note_on,49,30,0
2,note_on,49,0,60
2,note_on,37,0,0
2,note_on,35,25,60
2,note_on,47,30,0
2,note_on,47,0,60
2,note_on,35,0,0
2,note_on,40,30,60
2,note_on,52,36,0
2,note_on,52,0,60
2,note_on,40,0,0
2,note_on,39,25,60
2,note_on,51,29,0
2,note_on,51,0,60
2,note_on,39,0,0
2,note_on,37,25,60
2,note_on,49,29,0
2,note_on,49,0,60
2,note_on,37,0,0
2,note_on,35,26,60
2,note_on,47,30,0
2,note_on,47,0,60
2,note_on,35,0,0
2,note_on,40,31,60
2,note_on,52,36,0
2,note_on,52,0,60
2,note_on,40,0,0
2,note_on,39,26,60
2,note_on,51,30,0
2,note_on,51,0,60
2,note_on,39,0,0
2,note_on,37,26,60
2,note_on,49,30,0
2,note_on,49,0,60
2,note_on,37,0,0
2,note_on,35,26,60
2,note_on,47,30,0
2,note_on,47,0,60
2,note_on,35,0,0
2,note_on,40,31,60
2,note_on,52,36,0
2,note_on,52,0,60
2,note_on,40,0,0
2,note_on,39,28,60
2,note_on,51,33,0
2,note_on,51,0,60
2,note_on,39,0,0
2,note_on,37,25,60
2,note_on,49,30,0
2,note_on,49,0,60
2,note_on,37,0,0
2,note_on,35,25,60
2,note_on,47,30,0
2,note_on,47,0,60
2,note_on,35,0,0
2,note_on,40,30,60
2,note_on,52,37,0
2,note_on,52,0,60
2,note_on,40,0,0
2,note_on,39,25,60
2,note_on,51,30,0
2,note_on,51,0,60
2,note_on,39,0,0
2,note_on,37,25,60
2,note_on,49,30,0
2,note_on,49,0,60
2,note_on,37,0,0
2,note_on,35,25,60
2,note_on,47,30,0
2,note_on,47,0,60
2,note_on,35,0,0
2,note_on,40,30,60
2,note_on,52,37,0
2,note_on,52,0,60
2,note_on,40,0,0
2,note_on,39,25,60
2,note_on,51,30,0
2,note_on,51,0,60
2,note_on,39,0,0
2,note_on,37,25,60
2,note_on,49,30,0
2,note_on,49,0,60
2,note_on,37,0,0
2,note_on,35,25,60
2,note_on,47,30,0
2,note_on,47,0,60
2,note_on,35,0,0
2,note_on,40,31,60
2,note_on,52,38,0
2,note_on,52,0,60
2,note_on,40,0,0
2,note_on,39,30,60
2,note_on,51,35,0
2,note_on,51,0,60
2,note_on,39,0,0
2,note_on,37,26,60
2,note_on,49,33,0
2,note_on,49,0,60
2,note_on,37,0,0
2,note_on,35,26,60
2,note_on,47,33,0
2,note_on,47,0,60
2,note_on,35,0,0
2,note_on,40,33,60
2,note_on,52,39,0
2,note_on,52,0,60
2,note_on,40,0,0
2,note_on,39,27,60
2,note_on,51,32,0
2,note_on,51,0,60
2,note_on,39,0,0
2,note_on,37,27,60
2,note_on,49,33,0
2,note_on,49,0,60
2,note_on,37,0,0
2,note_on,35,28,60
2,note_on,47,33,0
2,note_on,47,0,60
2,note_on,35,0,0
2,note_on,40,34,60
2,note_on,52,41,0
2,note_on,52,0,60
2,note_on,40,0,0
2,note_on,39,27,60
2,note_on,51,33,0
2,note_on,51,0,60
2,note_on,39,0,0
2,note_on,37,27,60
2,note_on,49,33,0
2,note_on,49,0,60
2,note_on,37,0,0
2,note_on,35,28,60
2,note_on,47,33,0
2,note_on,47,0,60
2,note_on,35,0,0
2,note_on,40,35,60
2,note_on,52,41,0
2,note_on,52,0,60
2,note_on,40,0,0
2,note_on,39,31,60
2,note_on,51,38,0
2,note_on,51,0,60
2,note_on,39,0,0
2,note_on,37,28,60
2,note_on,49,35,0
2,note_on,49,0,60
2,note_on,37,0,0
2,note_on,35,28,60
2,note_on,47,35,0
2,note_on,47,0,60
2,note_on,35,0,0
2,note_on,40,36,60
2,note_on,52,42,0
2,note_on,52,0,60
2,note_on,40,0,0
2,note_on,39,29,60
2,note_on,51,34,0
2,note_on,51,0,60
2,note_on,39,0,0
2,note_on,37,29,60
2,note_on,49,34,0
2,note_on,49,0,60
2,note_on,37,0,0
2,note_on,35,29,60
2,note_on,47,34,0
2,note_on,47,0,60
2,note_on,35,0,0
2,note_on,40,35,60
2,note_on,52,41,0
2,note_on,52,0,60
2,note_on,40,0,0
2,note_on,39,29,60
2,note_on,51,34,0
2,note_on,51,0,60
2,note_on,39,0,0
2,note_on,37,29,60
2,note_on,49,34,0
2,note_on,49,0,60
2,note_on,37,0,0
2,note_on,35,29,60
2,note_on,47,34,0
2,note_on,47,0,60
2,note_on,35,0,0
2,note_on,40,35,60
2,note_on,52,42,0
2,note_on,52,0,60
2,note_on,40,0,0
2,note_on,39,33,60
2,note_on,51,39,0
2,note_on,51,0,60
2,note_on,39,0,0
2,note_on,37,29,60
2,note_on,49,35,0
2,note_on,49,0,60
2,note_on,37,0,0
2,note_on,35,29,60
2,note_on,47,35,0
2,note_on,47,0,60
2,note_on,35,0,0
2,note_on,40,35,60
2,note_on,52,42,0
2,note_on,52,0,60
2,note_on,40,0,0
2,note_on,39,28,60
2,note_on,51,34,0
2,note_on,51,0,60
2,note_on,39,0,0
2,note_on,37,29,60
2,note_on,49,34,0
2,note_on,49,0,60
2,note_on,37,0,0
2,note_on,35,29,60
2,note_on,47,34,0
2,note_on,47,0,60
2,note_on,35,0,0
2,note_on,40,35,60
2,note_on,52,41,0
2,note_on,52,0,60
2,note_on,40,0,0
2,note_on,39,29,60
2,note_on,51,35,0
2,note_on,51,0,60
2,note_on,39,0,0
2,note_on,37,29,60
2,note_on,49,35,0
2,note_on,49,0,60
2,note_on,37,0,0
2,note_on,35,29,60
2,note_on,47,35,0
2,note_on,47,0,60
2,note_on,35,0,0
2,note_on,40,36,60
2,note_on,52,42,0
2,note_on,52,0,60
2,note_on,40,0,0
2,note_on,39,32,60
2,note_on,51,39,0
2,note_on,51,0,60
2,note_on,39,0,0
2,note_on,37,29,60
2,note_on,49,36,0
2,note_on,49,0,60
2,note_on,37,0,0
2,note_on,35,29,60
2,note_on,47,35,0
2,note_on,47,0,60
2,note_on,35,0,0
2,note_on,40,36,60
2,note_on,52,42,0
2,note_on,52,0,60
2,note_on,40,0,0
2,note_on,39,29,60
2,note_on,51,35,0
2,note_on,51,0,60
2,note_on,39,0,0
2,note_on,37,29,60
2,note_on,49,35,0
2,note_on,49,0,60
2,note_on,37,0,0
2,note_on,35,29,60
2,note_on,47,35,0
2,note_on,47,0,60
2,note_on,35,0,0
2,note_on,40,36,60
2,note_on,52,42,0
2,note_on,52,0,60
2,note_on,40,0,0
2,note_on,39,29,60
2,note_on,51,35,0
2,note_on,51,0,60
2,note_on,39,0,0
2,note_on,37,29,60
2,note_on,49,35,0
2,note_on,49,0,60
2,note_on,37,0,0
2,note_on,35,29,60
2,note_on,47,35,0
2,note_on,47,0,60
2,note_on,35,0,0
2,note_on,40,36,60
2,note_on,52,42,0
2,note_on,52,0,60
2,note_on,40,0,0
2,note_on,39,32,60
2,note_on,51,39,0
2,note_on,51,0,60
2,note_on,39,0,0
2,note_on,37,29,60
2,note_on,49,36,0
2,note_on,49,0,60
2,note_on,37,0,0
2,note_on,35,29,60
2,note_on,47,36,0
2,note_on,47,0,60
2,note_on,35,0,0
2,note_on,40,36,60
2,note_on,52,43,0
2,note_on,52,0,60
2,note_on,40,0,0
2,note_on,39,29,60
2,note_on,51,36,0
2,note_on,51,0,60
2,note_on,39,0,0
2,note_on,37,29,60
2,note_on,49,36,0
2,note_on,49,0,60
2,note_on,37,0,0
2,note_on,35,29,60
2,note_on,47,36,0
2,note_on,47,0,60
2,note_on,35,0,0
2,note_on,40,36,60
2,note_on,52,43,0
2,note_on,52,0,60
2,note_on,40,0,0
2,note_on,39,29,60
2,note_on,51,36,0
2,note_on,51,0,60
2,note_on,39,0,0
2,note_on,37,30,60
2,note_on,49,36,0
2,note_on,49,0,60
2,note_on,37,0,0
2,note_on,35,30,60
2,note_on,47,35,0
2,note_on,47,0,60
2,note_on,35,0,0
2,note_on,40,37,60
2,note_on,52,43,0
2,note_on,52,0,60
2,note_on,40,0,0
2,note_on,39,33,60
2,note_on,51,40,0
2,note_on,51,0,60
2,note_on,39,0,0
2,note_on,37,30,60
2,note_on,49,37,0
2,note_on,49,0,60
2,note_on,37,0,0
2,note_on,35,30,60
2,note_on,47,37,0
2,note_on,47,0,60
2,note_on,35,0,0
2,note_on,40,37,60
2,note_on,52,43,0
2,note_on,52,0,60
2,note_on,40,0,0
2,note_on,39,30,60
2,note_on,51,36,0
2,note_on,51,0,60
2,note_on,39,0,0
2,note_on,37,30,60
2,note_on,49,37,0
2,note_on,49,0,60
2,note_on,37,0,0
2,note_on,35,30,60
2,note_on,47,37,0
2,note_on,47,0,60
2,note_on,35,0,0
2,note_on,40,37,60
2,note_on,52,44,0
2,note_on,52,0,60
2,note_on,40,0,0
2,note_on,39,31,60
2,note_on,51,37,0
2,note_on,51,0,60
2,note_on,39,0,0
2,note_on,37,31,60
2,note_on,49,37,0
2,note_on,49,0,60
2,note_on,37,0,0
2,note_on,35,31,60
2,note_on,47,38,0
2,note_on,47,0,60
2,note_on,35,0,0
2,note_on,40,38,60
2,note_on,52,45,0
2,note_on,52,0,60
2,note_on,40,0,0
2,note_on,39,36,60
2,note_on,51,42,0
2,note_on,51,0,60
2,note_on,39,0,0
2,note_on,37,31,60
2,note_on,49,38,0
2,note_on,49,0,60
2,note_on,37,0,0
2,note_on,35,31,60
2,note_on,47,39,0
2,note_on,47,0,60
2,note_on,35,0,0
2,note_on,40,40,60
2,note_on,52,48,0
2,note_on,52,0,60
2,note_on,40,0,0
2,note_on,39,33,60
2,note_on,51,40,0
2,note_on,51,0,60
2,note_on,39,0,0
2,note_on,37,33,60
2,note_on,49,41,0
2,note_on,49,0,60
2,note_on,37,0,0
2,note_on,35,34,60
2,note_on,47,42,0
2,note_on,47,0,60
2,note_on,35,0,0
2,note_on,40,43,60
2,note_on,52,51,0
2,note_on,52,0,60
2,note_on,40,0,0
2,note_on,39,34,60
2,note_on,51,43,0
2,note_on,51,0,60
2,note_on,39,0,0
2,note_on,37,35,60
2,note_on,49,43,0
2,note_on,49,0,60
2,note_on,37,0,0
2,note_on,35,37,60
2,note_on,47,43,0
2,note_on,47,0,60
2,note_on,35,0,0
2,note_on,40,44,60
2,note_on,52,53,0
2,note_on,52,0,60
2,note_on,40,0,0
2,note_on,39,41,60
2,note_on,51,49,0
2,note_on,51,0,60
2,note_on,39,0,0
2,note_on,37,38,60
2,note_on,49,46,0
2,note_on,49,0,60
2,note_on,37,0,0
2,note_on,35,38,60
2,note_on,47,46,0
2,note_on,47,0,60
2,note_on,35,0,0
2,note_on,40,47,60
2,note_on,52,57,0
2,note_on,52,0,60
2,note_on,40,0,0
2,note_on,39,38,60
2,note_on,51,46,0
2,note_on,51,0,60
2,note_on,39,0,0
2,note_on,37,40,60
2,note_on,49,47,0
2,note_on,49,0,60
2,note_on,37,0,0
2,note_on,35,40,60
2,note_on,47,48,0
2,note_on,47,0,60
2,note_on,35,0,0
2,note_on,40,51,60
2,note_on,52,59,0
2,note_on,52,0,60
2,note_on,40,0,0
2,note_on,39,41,60
2,note_on,51,50,0
2,note_on,51,0,60
2,note_on,39,0,0
2,note_on,37,41,60
2,note_on,49,50,0
2,note_on,49,0,60
2,note_on,37,0,0
2,note_on,35,42,60
2,note_on,47,51,0
2,note_on,47,0,60
2,note_on,35,0,0
2,note_on,40,52,60
2,note_on,52,61,0
2,note_on,52,0,60
2,note_on,40,0,0
2,note_on,39,48,60
2,note_on,51,58,0
2,note_on,51,0,60
2,note_on,39,0,0
2,note_on,37,44,60
2,note_on,49,55,0
2,note_on,49,0,60
2,note_on,37,0,0
2,note_on,35,45,60
2,note_on,47,56,0
2,note_on,47,0,60
2,note_on,35,0,0
2,note_on,40,56,60
2,note_on,52,66,0
2,note_on,52,0,60
2,note_on,40,0,0
2,note_on,39,45,60
2,note_on,51,53,0
2,note_on,51,0,60
2,note_on,39,0,0
2,note_on,37,46,60
2,note_on,49,54,0
2,note_on,49,0,60
2,note_on,37,0,0
2,note_on,35,47,60
2,note_on,47,57,0
2,note_on,47,0,60
2,note_on,35,0,0
2,note_on,40,58,60
2,note_on,52,69,0
2,note_on,52,0,60
2,note_on,40,0,0
2,note_on,39,47,60
2,note_on,51,57,0
2,note_on,51,0,60
2,note_on,39,0,0
2,note_on,37,47,60
2,note_on,49,57,0
2,note_on,49,0,60
2,note_on,37,0,0
2,note_on,35,48,60
2,note_on,47,58,0
2,note_on,47,0,60
2,note_on,35,0,0
2,note_on,40,62,60
2,note_on,52,73,0
2,note_on,52,0,60
2,note_on,40,0,0
2,note_on,39,56,60
2,note_on,51,67,0
2,note_on,51,0,60
2,note_on,39,0,0
2,note_on,37,52,60
2,note_on,49,63,0
2,note_on,49,0,60
2,note_on,37,0,0
2,note_on,35,52,60
2,note_on,47,63,0
2,note_on,47,0,60
2,note_on,35,0,0
2,note_on,40,64,60
2,note_on,52,77,0
2,note_on,52,0,60
2,note_on,40,0,0
2,note_on,39,53,60
2,note_on,51,63,0
2,note_on,51,0,60
2,note_on,39,0,0
2,note_on,40,54,60
2,note_on,52,64,0
2,note_on,52,0,60
2,note_on,40,0,0
2,note_on,38,55,60
2,note_on,50,65,0
2,note_on,50,0,60
2,note_on,38,0,0
2,note_on,39,66,60
2,note_on,51,77,0
2,note_on,51,0,60
2,note_on,39,0,0
2,note_on,38,54,60
2,note_on,50,65,0
2,note_on,50,0,60
2,note_on,38,0,0
2,note_on,36,54,60
2,note_on,48,65,0
2,note_on,48,0,60
2,note_on,36,0,0
2,note_on,34,54,60
2,note_on,46,65,0
2,note_on,46,0,60
2,note_on,34,0,0
2,note_on,39,67,60
2,note_on,51,79,0
2,note_on,51,0,60
2,note_on,39,0,0
2,note_on,38,62,60
2,note_on,50,75,0
2,note_on,50,0,60
2,note_on,38,0,0
2,note_on,36,58,60
2,note_on,48,69,0
2,note_on,48,0,60
2,note_on,36,0,0
2,note_on,34,58,60
2,note_on,46,69,0
2,note_on,46,0,60
2,note_on,34,0,0
2,note_on,39,69,60
2,note_on,51,84,0
2,note_on,51,0,60
2,note_on,39,0,0
2,note_on,38,58,60
2,note_on,50,68,0
2,note_on,50,0,60
2,note_on,38,0,0
2,note_on,36,59,60
2,note_on,48,70,0
2,note_on,48,0,60
2,note_on,36,0,0
2,note_on,34,61,60
2,note_on,46,71,0
2,note_on,46,0,60
2,note_on,34,0,0
2,note_on,39,71,60
2,note_on,51,82,0
2,note_on,51,0,60
2,note_on,39,0,0
2,note_on,38,57,60
2,note_on,50,68,0
2,note_on,50,0,60
2,note_on,38,0,0
2,note_on,36,58,60
2,note_on,48,69,0
2,note_on,48,0,60
2,note_on,36,0,0
2,note_on,34,58,60
2,note_on,46,69,0
2,note_on,46,0,60
2,note_on,34,0,0
2,note_on,39,72,60
2,note_on,51,85,0
2,note_on,51,0,60
2,note_on,39,0,0
2,note_on,38,64,60
2,note_on,50,78,0
2,note_on,50,0,60
2,note_on,38,0,0
2,note_on,36,60,60
2,note_on,48,73,0
2,note_on,48,0,60
2,note_on,36,0,0
2,note_on,34,60,60
2,note_on,46,73,0
2,note_on,46,0,60
2,note_on,34,0,0
2,note_on,39,73,60
2,note_on,51,87,0
2,note_on,51,0,60
2,note_on,39,0,0
2,note_on,38,60,60
2,note_on,50,72,0
2,note_on,50,0,60
2,note_on,38,0,0
2,note_on,36,60,60
2,note_on,48,72,0
2,note_on,48,0,60
2,note_on,36,0,0
2,note_on,34,62,60
2,note_on,46,74,0
2,note_on,46,0,60
2,note_on,34,0,0
2,note_on,39,73,60
2,note_on,51,84,0
2,note_on,51,0,60
2,note_on,39,0,0
2,note_on,38,59,60
2,note_on,50,70,0
2,note_on,50,0,60
2,note_on,38,0,0
2,note_on,36,59,60
2,note_on,48,70,0
2,note_on,48,0,60
2,note_on,36,0,0
2,note_on,34,59,60
2,note_on,46,71,0
2,note_on,46,0,60
2,note_on,34,0,0
2,note_on,39,74,60
2,note_on,51,87,0
2,note_on,51,0,60
2,note_on,39,0,0
2,note_on,38,66,60
2,note_on,50,80,0
2,note_on,50,0,60
2,note_on,38,0,0
2,note_on,36,62,60
2,note_on,48,74,0
2,note_on,48,0,60
2,note_on,36,0,0
2,note_on,34,62,60
2,note_on,46,74,0
2,note_on,46,0,60
2,note_on,34,0,0
2,note_on,39,75,60
2,note_on,51,89,0
2,note_on,51,0,60
2,note_on,39,0,0
2,note_on,38,62,60
2,note_on,50,74,0
2,note_on,50,0,60
2,note_on,38,0,0
2,note_on,36,62,60
2,note_on,48,74,0
2,note_on,48,0,60
2,note_on,36,0,0
2,note_on,34,63,60
2,note_on,46,75,0
2,note_on,46,0,60
2,note_on,34,0,0
2,note_on,39,76,60
2,note_on,51,90,0
2,note_on,51,0,60
2,note_on,39,0,0
2,note_on,35,58,120
2,note_on,42,61,30
2,note_on,47,63,0
2,note_on,47,0,180
2,note_on,42,0,0
2,note_on,35,0,0
2,note_on,35,60,0
2,note_on,42,63,30
2,note_on,47,66,30
2,note_on,47,0,180
2,note_on,42,0,0
2,note_on,35,0,0
2,note_on,35,63,0
2,note_on,42,65,30
2,note_on,47,69,30
2,note_on,47,0,180
2,note_on,42,0,0
2,note_on,35,0,0
2,note_on,35,64,0
2,note_on,42,68,30
2,note_on,47,71,30
2,note_on,47,0,180
2,note_on,42,0,0
2,note_on,35,0,0
2,note_on,35,66,0
2,note_on,42,70,30
2,note_on,47,73,30
2,note_on,47,0,240
2,note_on,42,0,0
2,note_on,35,0,0
2,note_on,28,59,0
2,note_on,40,70,0
2,note_on,40,0,117
2,note_on,28,0,0
2,note_on,40,80,7
2,note_on,47,80,30
2,note_on,52,80,30
2,note_on,52,0,390
2,note_on,47,0,0
2,note_on,40,0,0
2,note_on,40,78,30
2,note_on,47,77,30
2,note_on,52,77,30
2,note_on,52,0,390
2,note_on,47,0,0
2,note_on,40,0,0
2,note_on,40,75,30
2,note_on,47,75,30
2,note_on,52,74,30
2,note_on,52,0,390
2,note_on,47,0,0
2,note_on,40,0,0
2,note_on,40,72,30
2,note_on,47,72,30
2,note_on,52,72,30
2,note_on,52,0,390
2,note_on,47,0,0
2,note_on,40,0,0
2,note_on,40,69,30
2,note_on,47,69,30
2,note_on,52,69,30
2,note_on,52,0,480
2,note_on,47,0,0
2,note_on,40,0,0
2,note_on,40,66,0
2,note_on,47,66,0
2,note_on,52,66,0
2,note_on,52,0,60
2,note_on,47,0,0
2,note_on,40,0,0
2,note_on,39,24,11
2,note_on,51,28,0
2,note_on,51,0,60
2,note_on,39,0,0
2,note_on,37,24,60
2,note_on,49,28,0
2,note_on,49,0,60
2,note_on,37,0,0
2,note_on,35,24,60
2,note_on,47,28,0
2,note_on,47,0,60
2,note_on,35,0,0
2,note_on,40,28,60
2,note_on,52,35,0
2,note_on,52,0,60
2,note_on,40,0,0
2,note_on,39,27,60
2,note_on,51,32,0
2,note_on,51,0,60
2,note_on,39,0,0
2,note_on,37,24,60
2,note_on,49,28,0
2,note_on,49,0,60
2,note_on,37,0,0
2,note_on,35,24,60
2,note_on,47,28,0
2,note_on,47,0,60
2,note_on,35,0,0
2,note_on,40,28,60
2,note_on,52,35,0
2,note_on,52,0,60
2,note_on,40,0,0
2,note_on,39,24,60
2,note_on,51,28,0
2,note_on,51,0,60
2,note_on,39,0,0
2,note_on,37,24,60
2,note_on,49,28,0
2,note_on,49,0,60
2,note_on,37,0,0
2,note_on,35,24,60
2,note_on,47,28,0
2,note_on,47,0,60
2,note_on,35,0,0
2,note_on,40,29,60
2,note_on,52,35,0
2,note_on,52,0,60
2,note_on,40,0,0
2,note_on,39,24,60
2,note_on,51,28,0
2,note_on,51,0,60
2,note_on,39,0,0
2,note_on,37,24,60
2,note_on,49,28,0
2,note_on,49,0,60
2,note_on,37,0,0
2,note_on,35,24,60
2,note_on,47,28,0
2,note_on,47,0,60
2,note_on,35,0,0
2,note_on,40,29,60
2,note_on,52,34,0
2,note_on,52,0,60
2,note_on,40,0,0
2,note_on,39,26,60
2,note_on,51,32,0
2,note_on,51,0,60
2,note_on,39,0,0
2,note_on,37,24,60
2,note_on,49,29,0
2,note_on,49,0,60
2,note_on,37,0,0
2,note_on,35,24,60
2,note_on,47,29,0
2,note_on,47,0,60
2,note_on,35,0,0
2,note_on,40,29,60
2,note_on,52,35,0
2,note_on,52,0,60
2,note_on,40,0,0
2,note_on,39,24,60
2,note_on,51,28,0
2,note_on,51,0,60
2,note_on,39,0,0
2,note_on,37,24,60
2,note_on,49,28,0
2,note_on,49,0,60
2,note_on,37,0,0
2,note_on,35,24,60
2,note_on,47,28,0
2,note_on,47,0,60
2,note_on,35,0,0
2,note_on,40,31,60
2,note_on,52,36,0
2,note_on,52,0,60
2,note_on,40,0,0
2,note_on,39,24,60
2,note_on,51,29,0
2,note_on,51,0,60
2,note_on,39,0,0
2,note_on,37,25,60
2,note_on,49,29,0
2,note_on,49,0,60
2,note_on,37,0,0
2,note_on,35,25,60
2,note_on,47,29,0
2,note_on,47,0,60
2,note_on,35,0,0
2,note_on,40,30,60
2,note_on,52,36,0
2,note_on,52,0,60
2,note_on,40,0,0
2,note_on,39,28,60
2,note_on,51,34,0
2,note_on,51,0,60
2,note_on,39,0,0
2,note_on,37,25,60
2,note_on,49,30,0
2,note_on,49,0,60
2,note_on,37,0,0
2,note_on,35,25,60
2,note_on,47,30,0
2,note_on,47,0,60
2,note_on,35,0,0
2,note_on,40,30,60
2,note_on,52,36,0
2,note_on,52,0,60
2,note_on,40,0,0
2,note_on,39,25,60
2,note_on,51,29,0
2,note_on,51,0,60
2,note_on,39,0,0
2,note_on,37,25,60
2,note_on,49,29,0
2,note_on,49,0,60
2,note_on,37,0,0
2,note_on,35,26,60
2,note_on,47,30,0
2,note_on,47,0,60
2,note_on,35,0,0
2,note_on,40,31,60
2,note_on,52,36,0
2,note_on,52,0,60
2,note_on,40,0,0
2,note_on,39,26,60
2,note_on,51,30,0
2,note_on,51,0,60
2,note_on,39,0,0
2,note_on,37,26,60
2,note_on,49,30,0
2,note_on,49,0,60
2,note_on,37,0,0
2,note_on,35,26,60
2,note_on,47,30,0
2,note_on,47,0,60
2,note_on,35,0,0
2,note_on,40,31,60
2,note_on,52,36,0
2,note_on,52,0,60
2,note_on,40,0,0
2,note_on,39,28,60
2,note_on,51,33,0
2,note_on,51,0,60
2,note_on,39,0,0
2,note_on,37,26,60
2,note_on,49,31,0
2,note_on,49,0,60
2,note_on,37,0,0
2,note_on,35,26,60
2,note_on,47,31,0
2,note_on,47,0,60
2,note_on,35,0,0
2,note_on,40,31,60
2,note_on,52,38,0
2,note_on,52,0,60
2,note_on,40,0,0
2,note_on,39,26,60
2,note_on,51,30,0
2,note_on,51,0,60
2,note_on,39,0,0
2,note_on,37,26,60
2,note_on,49,30,0
2,note_on,49,0,60
2,note_on,37,0,0
2,note_on,35,26,60
2,note_on,47,30,0
2,note_on,47,0,60
2,note_on,35,0,0
2,note_on,40,31,60
2,note_on,52,38,0
2,note_on,52,0,60
2,note_on,40,0,0
2,note_on,39,25,60
2,note_on,51,30,0
2,note_on,51,0,60
2,note_on,39,0,0
2,note_on,37,25,60
2,note_on,49,30,0
2,note_on,49,0,60
2,note_on,37,0,0
2,note_on,35,25,60
2,note_on,47,30,0
2,note_on,47,0,60
2,note_on,35,0,0
2,note_on,40,31,60
2,note_on,52,38,0
2,note_on,52,0,60
2,note_on,40,0,0
2,note_on,39,30,60
2,note_on,51,36,0
2,note_on,51,0,60
2,note_on,39,0,0
2,note_on,37,26,60
2,note_on,49,33,0
2,note_on,49,0,60
2,note_on,37,0,0
2,note_on,35,26,60
2,note_on,47,33,0
2,note_on,47,0,60
2,note_on,35,0,0
2,note_on,40,33,60
2,note_on,52,40,0
2,note_on,52,0,60
2,note_on,40,0,0
2,note_on,39,27,60
2,note_on,51,32,0
2,note_on,51,0,60
2,note_on,39,0,0
2,note_on,37,27,60
2,note_on,49,33,0
2,note_on,49,0,60
2,note_on,37,0,0
2,note_on,35,28,60
2,note_on,47,33,0
2,note_on,47,0,60
2,note_on,35,0,0
2,note_on,40,35,60
2,note_on,52,42,0
2,note_on,52,0,60
2,note_on,40,0,0
2,note_on,39,28,60
2,note_on,51,34,0
2,note_on,51,0,60
2,note_on,39,0,0
2,note_on,37,28,60
2,note_on,49,34,0
2,note_on,49,0,60
2,note_on,37,0,0
2,note_on,35,28,60
2,note_on,47,34,0
2,note_on,47,0,60
2,note_on,35,0,0
2,note_on,40,35,60
2,note_on,52,41,0
2,note_on,52,0,60
2,note_on,40,0,0
2,note_on,39,32,60
2,note_on,51,39,0
2,note_on,51,0,60
2,note_on,39,0,0
2,note_on,37,28,60
2,note_on,49,35,0
2,note_on,49,0,60
2,note_on,37,0,0
2,note_on,35,28,60
2,note_on,47,35,0
2,note_on,47,0,60
2,note_on,35,0,0
2,note_on,40,36,60
2,note_on,52,42,0
2,note_on,52,0,60
2,note_on,40,0,0
2,note_on,39,29,60
2,note_on,51,34,0
2,note_on,51,0,60
2,note_on,39,0,0
2,note_on,37,29,60
2,note_on,49,34,0
2,note_on,49,0,60
2,note_on,37,0,0
2,note_on,35,29,60
2,note_on,47,34,0
2,note_on,47,0,60
2,note_on,35,0,0
2,note_on,40,36,60
2,note_on,52,42,0
2,note_on,52,0,60
2,note_on,40,0,0
2,note_on,39,29,60
2,note_on,51,35,0
2,note_on,51,0,60
2,note_on,39,0,0
2,note_on,37,29,60
2,note_on,49,35,0
2,note_on,49,0,60
2,note_on,37,0,0
2,note_on,35,29,60
2,note_on,47,35,0
2,note_on,47,0,60
2,note_on,35,0,0
2,note_on,40,36,60
2,note_on,52,42,0
2,note_on,52,0,60
2,note_on,40,0,0
2,note_on,39,33,60
2,note_on,51,39,0
2,note_on,51,0,60
2,note_on,39,0,0
2,note_on,37,29,60
2,note_on,49,36,0
2,note_on,49,0,60
2,note_on,37,0,0
2,note_on,35,29,60
2,note_on,47,36,0
2,note_on,47,0,60
2,note_on,35,0,0
2,note_on,40,36,60
2,note_on,52,42,0
2,note_on,52,0,60
2,note_on,40,0,0
2,note_on,39,29,60
2,note_on,51,35,0
2,note_on,51,0,60
2,note_on,39,0,0
2,note_on,37,30,60
2,note_on,49,35,0
2,note_on,49,0,60
2,note_on,37,0,0
2,note_on,35,30,60
2,note_on,47,35,0
2,note_on,47,0,60
2,note_on,35,0,0
2,note_on,40,36,60
2,note_on,52,42,0
2,note_on,52,0,60
2,note_on,40,0,0
2,note_on,39,29,60
2,note_on,51,35,0
2,note_on,51,0,60
2,note_on,39,0,0
2,note_on,37,29,60
2,note_on,49,35,0
2,note_on,49,0,60
2,note_on,37,0,0
2,note_on,35,29,60
2,note_on,47,35,0
2,note_on,47,0,60
2,note_on,35,0,0
2,note_on,40,36,60
2,note_on,52,43,0
2,note_on,52,0,60
2,note_on,40,0,0
2,note_on,39,33,60
2,note_on,51,39,0
2,note_on,51,0,60
2,note_on,39,0,0
2,note_on,37,29,60
2,note_on,49,36,0
2,note_on,49,0,60
2,note_on,37,0,0
2,note_on,35,29,60
2,note_on,47,36,0
2,note_on,47,0,60
2,note_on,35,0,0
2,note_on,40,37,60
2,note_on,52,43,0
2,note_on,52,0,60
2,note_on,40,0,0
2,note_on,39,30,60
2,note_on,51,36,0
2,note_on,51,0,60
2,note_on,39,0,0
2,note_on,37,30,60
2,note_on,49,36,0
2,note_on,49,0,60
2,note_on,37,0,0
2,note_on,35,30,60
2,note_on,47,36,0
2,note_on,47,0,60
2,note_on,35,0,0
2,note_on,40,37,60
2,note_on,52,43,0
2,note_on,52,0,60
2,note_on,40,0,0
2,note_on,39,30,60
2,note_on,51,36,0
2,note_on,51,0,60
2,note_on,39,0,0
2,note_on,37,30,60
2,note_on,49,36,0
2,note_on,49,0,60
2,note_on,37,0,0
2,note_on,35,30,60
2,note_on,47,36,0
2,note_on,47,0,60
2,note_on,35,0,0
2,note_on,40,36,60
2,note_on,52,43,0
2,note_on,52,0,60
2,note_on,40,0,0
2,note_on,39,32,60
2,note_on,51,40,0
2,note_on,51,0,60
2,note_on,39,0,0
2,note_on,37,30,60
2,note_on,49,37,0
2,note_on,49,0,60
2,note_on,37,0,0
2,note_on,35,30,60
2,note_on,47,37,0
2,note_on,47,0,60
2,note_on,35,0,0
2,note_on,40,37,60
2,note_on,52,44,0
2,note_on,52,0,60
2,note_on,40,0,0
2,note_on,39,30,60
2,note_on,51,36,0
2,note_on,51,0,60
2,note_on,39,0,0
2,note_on,37,30,60
2,note_on,49,36,0
2,note_on,49,0,60
2,note_on,37,0,0
2,note_on,35,30,60
2,note_on,47,36,0
2,note_on,47,0,60
2,note_on,35,0,0
2,note_on,40,37,60
2,note_on,52,44,0
2,note_on,52,0,60
2,note_on,40,0,0
2,note_on,39,29,60
2,note_on,51,36,0
2,note_on,51,0,60
2,note_on,39,0,0
2,note_on,37,30,60
2,note_on,49,36,0
2,note_on,49,0,60
2,note_on,37,0,0
2,note_on,35,30,60
2,note_on,47,36,0
2,note_on,47,0,60
2,note_on,35,0,0
2,note_on,40,38,60
2,note_on,52,44,0
2,note_on,52,0,60
2,note_on,40,0,0
2,note_on,39,34,60
2,note_on,51,41,0
2,note_on,51,0,60
2,note_on,39,0,0
2,note_on,37,31,60
2,note_on,49,38,0
2,note_on,49,0,60
2,note_on,37,0,0
2,note_on,35,31,60
2,note_on,47,38,0
2,note_on,47,0,60
2,note_on,35,0,0
2,note_on,40,38,60
2,note_on,52,44,0
2,note_on,52,0,60
2,note_on,40,0,0
2,note_on,39,31,60
2,note_on,51,37,0
2,note_on,51,0,60
2,note_on,39,0,0
2,note_on,37,31,60
2,note_on,49,38,0
2,note_on,49,0,60
2,note_on,37,0,0
2,note_on,35,31,60
2,note_on,47,38,0
2,note_on,47,0,60
2,note_on,35,0,0
2,note_on,40,37,60
2,note_on,52,44,0
2,note_on,52,0,60
2,note_on,40,0,0
2,note_on,39,31,60
2,note_on,51,37,0
2,note_on,51,0,60
2,note_on,39,0,0
2,note_on,37,31,60
2,note_on,49,37,0
2,note_on,49,0,60
2,note_on,37,0,0
2,note_on,35,31,60
2,note_on,47,38,0
2,note_on,47,0,60
2,note_on,35,0,0
2,note_on,40,38,60
2,note_on,52,45,0
2,note_on,52,0,60
2,note_on,40,0,0
2,note_on,39,36,60
2,note_on,51,42,0
2,note_on,51,0,60
2,note_on,39,0,0
2,note_on,37,31,60
2,note_on,49,38,0
2,note_on,49,0,60
2,note_on,37,0,0
2,note_on,35,31,60
2,note_on,47,39,0
2,note_on,47,0,60
2,note_on,35,0,0
2,note_on,40,40,60
2,note_on,52,48,0
2,note_on,52,0,60
2,note_on,40,0,0
2,note_on,39,33,60
2,note_on,51,40,0
2,note_on,51,0,60
2,note_on,39,0,0
2,note_on,37,33,60
2,note_on,49,41,0
2,note_on,49,0,60
2,note_on,37,0,0
2,note_on,35,34,60
2,note_on,47,42,0
2,note_on,47,0,60
2,note_on,35,0,0
2,note_on,40,43,60
2,note_on,52,51,0
2,note_on,52,0,60
2,note_on,40,0,0
2,note_on,39,34,60
2,note_on,51,43,0
2,note_on,51,0,60
2,note_on,39,0,0
2,note_on,37,35,60
2,note_on,49,43,0
2,note_on,49,0,60
2,note_on,37,0,0
2,note_on,35,37,60
2,note_on,47,43,0
2,note_on,47,0,60
2,note_on,35,0,0
2,note_on,40,44,60
2,note_on,52,53,0
2,note_on,52,0,60
2,note_on,40,0,0
2,note_on,39,41,60
2,note_on,51,49,0
2,note_on,51,0,60
2,note_on,39,0,0
2,note_on,37,38,60
2,note_on,49,46,0
2,note_on,49,0,60
2,note_on,37,0,0
2,note_on,35,38,60
2,note_on,47,46,0
2,note_on,47,0,60
2,note_on,35,0,0
2,note_on,40,47,60
2,note_on,52,57,0
2,note_on,52,0,60
2,note_on,40,0,0
2,note_on,39,38,60
2,note_on,51,46,0
2,note_on,51,0,60
2,note_on,39,0,0
2,note_on,37,40,60
2,note_on,49,47,0
2,note_on,49,0,60
2,note_on,37,0,0
2,note_on,35,40,60
2,note_on,47,48,0
2,note_on,47,0,60
2,note_on,35,0,0
2,note_on,40,51,60
2,note_on,52,59,0
2,note_on,52,0,60
2,note_on,40,0,0
2,note_on,39,41,60
2,note_on,51,50,0
2,note_on,51,0,60
2,note_on,39,0,0
2,note_on,37,41,60
2,note_on,49,50,0
2,note_on,49,0,60
2,note_on,37,0,0
2,note_on,35,42,60
2,note_on,47,51,0
2,note_on,47,0,60
2,note_on,35,0,0
2,note_on,40,52,60
2,note_on,52,61,0
2,note_on,52,0,60
2,note_on,40,0,0
2,note_on,39,48,60
2,note_on,51,58,0
2,note_on,51,0,60
2,note_on,39,0,0
2,note_on,37,44,60
2,note_on,49,55,0
2,note_on,49,0,60
2,note_on,37,0,0
2,note_on,35,45,60
2,note_on,47,56,0
2,note_on,47,0,60
2,note_on,35,0,0
2,note_on,40,56,60
2,note_on,52,66,0
2,note_on,52,0,60
2,note_on,40,0,0
2,note_on,39,45,60
2,note_on,51,53,0
2,note_on,51,0,60
2,note_on,39,0,0
2,note_on,37,46,60
2,note_on,49,54,0
2,note_on,49,0,60
2,note_on,37,0,0
2,note_on,35,47,60
2,note_on,47,57,0
2,note_on,47,0,60
2,note_on,35,0,0
2,note_on,40,58,60
2,note_on,52,69,0
2,note_on,52,0,60
2,note_on,40,0,0
2,note_on,39,47,60
2,note_on,51,57,0
2,note_on,51,0,60
2,note_on,39,0,0
2,note_on,37,47,60
2,note_on,49,57,0
2,note_on,49,0,60
2,note_on,37,0,0
2,note_on,35,48,60
2,note_on,47,58,0
2,note_on,47,0,60
2,note_on,35,0,0
2,note_on,40,62,60
2,note_on,52,73,0
2,note_on,52,0,34
2,note_on,40,0,0
2,note_on,39,56,60
2,note_on,51,67,0
2,note_on,51,0,60
2,note_on,39,0,0
2,note_on,37,52,60
2,note_on,49,63,0
2,note_on,49,0,60
2,note_on,37,0,0
2,note_on,35,52,60
2,note_on,47,63,0
2,note_on,47,0,60
2,note_on,35,0,0
2,note_on,40,64,60
2,note_on,52,77,0
2,note_on,52,0,49
2,note_on,40,0,0
2,note_on,39,53,60
2,note_on,51,63,0
2,note_on,51,0,60
2,note_on,39,0,0
2,note_on,40,54,60
2,note_on,52,64,0
2,note_on,52,0,60
2,note_on,40,0,0
2,note_on,38,55,60
2,note_on,50,65,0
2,note_on,50,0,60
2,note_on,38,0,0
2,note_on,39,66,60
2,note_on,51,77,0
2,note_on,51,0,60
2,note_on,39,0,0
2,note_on,38,54,60
2,note_on,50,65,0
2,note_on,50,0,60
2,note_on,38,0,0
2,note_on,36,54,60
2,note_on,48,65,0
2,note_on,48,0,60
2,note_on,36,0,0
2,note_on,34,54,60
2,note_on,46,65,0
2,note_on,46,0,60
2,note_on,34,0,0
2,note_on,39,67,60
2,note_on,51,79,0
2,note_on,51,0,60
2,note_on,39,0,0
2,note_on,38,62,60
2,note_on,50,75,0
2,note_on,50,0,60
2,note_on,38,0,0
2,note_on,36,58,60
2,note_on,48,69,0
2,note_on,48,0,60
2,note_on,36,0,0
2,note_on,34,58,60
2,note_on,46,69,0
2,note_on,46,0,60
2,note_on,34,0,0
2,note_on,39,69,60
2,note_on,51,84,0
2,note_on,51,0,31
2,note_on,39,0,0
2,note_on,38,58,60
2,note_on,50,68,0
2,note_on,50,0,31
2,note_on,38,0,0
2,note_on,36,59,60
2,note_on,48,70,0
2,note_on,48,0,26
2,note_on,36,0,0
2,note_on,34,61,60
2,note_on,46,71,0
2,note_on,46,0,31
2,note_on,34,0,0
2,note_on,39,71,60
2,note_on,51,82,0
2,note_on,51,0,60
2,note_on,39,0,0
2,note_on,38,57,60
2,note_on,50,68,0
2,note_on,50,0,60
2,note_on,38,0,0
2,note_on,36,58,60
2,note_on,48,69,0
2,note_on,48,0,60
2,note_on,36,0,0
2,note_on,34,58,60
2,note_on,46,69,0
2,note_on,46,0,60
2,note_on,34,0,0
2,note_on,39,72,60
2,note_on,51,85,0
2,note_on,51,0,60
2,note_on,39,0,0
2,note_on,38,64,60
2,note_on,50,78,0
2,note_on,50,0,60
2,note_on,38,0,0
2,note_on,36,60,60
2,note_on,48,73,0
2,note_on,48,0,60
2,note_on,36,0,0
2,note_on,34,60,60
2,note_on,46,73,0
2,note_on,46,0,60
2,note_on,34,0,0
2,note_on,39,73,60
2,note_on,51,87,0
2,note_on,51,0,34
2,note_on,39,0,0
2,note_on,38,60,60
2,note_on,50,72,0
2,note_on,50,0,43
2,note_on,38,0,0
2,note_on,36,60,60
2,note_on,48,72,0
2,note_on,48,0,60
2,note_on,36,0,0
2,note_on,34,62,60
2,note_on,46,74,0
2,note_on,46,0,17
2,note_on,34,0,0
2,note_on,39,73,60
2,note_on,51,84,0
2,note_on,51,0,60
2,note_on,39,0,0
2,note_on,38,59,60
2,note_on,50,70,0
2,note_on,50,0,60
2,note_on,38,0,0
2,note_on,36,59,60
2,note_on,48,70,0
2,note_on,48,0,60
2,note_on,36,0,0
2,note_on,34,59,60
2,note_on,46,71,0
2,note_on,46,0,60
2,note_on,34,0,0
2,note_on,39,74,60
2,note_on,51,87,0
2,note_on,51,0,60
2,note_on,39,0,0
2,note_on,38,66,60
2,note_on,50,80,0
2,note_on,50,0,60
2,note_on,38,0,0
2,note_on,36,62,60
2,note_on,48,74,0
2,note_on,48,0,20
2,note_on,36,0,0
2,note_on,34,62,60
2,note_on,46,74,0
2,note_on,46,0,60
2,note_on,34,0,0
2,note_on,39,75,60
2,note_on,51,89,0
2,note_on,51,0,60
2,note_on,39,0,0
2,note_on,38,62,60
2,note_on,50,74,0
2,note_on,50,0,60
2,note_on,38,0,0
2,note_on,36,62,60
2,note_on,48,74,0
2,note_on,48,0,49
2,note_on,36,0,0
2,note_on,34,63,57
2,note_on,46,75,0
2,note_on,46,0,60
2,note_on,34,0,0
2,note_on,39,64,60
2,note_on,51,71,0
2,note_on,51,0,9
2,note_on,39,0,0
2,note_on,39,54,180
2,note_on,51,64,0
2,note_on,51,0,60
2,note_on,39,0,0
2,note_on,39,49,60
2,note_on,51,58,0
2,note_on,51,0,60
2,note_on,39,0,0
2,note_on,40,53,60
2,note_on,52,63,0
2,note_on,52,0,186
2,note_on,40,0,0
2,note_on,40,51,0
2,note_on,52,61,0
2,note_on,52,0,60
2,note_on,40,0,0
2,note_on,40,50,60
2,note_on,52,59,0
2,note_on,52,0,60
2,note_on,40,0,0
2,note_on,41,55,60
2,note_on,53,65,0
2,note_on,53,0,180
2,note_on,41,0,0
2,note_on,41,52,0
2,note_on,53,62,0
2,note_on,53,0,60
2,note_on,41,0,0
2,note_on,41,51,60
2,note_on,53,60,0
2,note_on,53,0,60
2,note_on,41,0,0
2,note_on,42,43,60
2,note_on,54,51,0
2,note_on,54,0,198
2,note_on,42,0,0
2,note_on,61,51,0
2,note_on,54,43,0
2,note_on,54,0,60
2,note_on,61,0,0
2,note_on,61,51,60
2,note_on,54,43,0
2,note_on,54,0,60
2,note_on,61,0,0
2,note_on,61,51,60
2,note_on,54,43,0
2,note_on,54,0,240
2,note_on,61,0,0
2,note_on,54,43,0
2,note_on,61,51,0
2,note_on,61,0,60
2,note_on,54,0,0
2,note_on,54,43,60
2,note_on,61,51,0
2,note_on,61,0,60
2,note_on,54,0,0
2,note_on,44,40,60
2,note_on,51,40,0
2,note_on,56,48,0
2,note_on,56,0,198
2,note_on,51,0,0
2,note_on,44,0,0
2,note_on,51,40,0
2,note_on,56,40,0
2,note_on,60,48,0
2,note_on,60,0,60
2,note_on,56,0,0
2,note_on,51,0,0
2,note_on,51,40,60
2,note_on,56,40,0
2,note_on,60,48,0
2,note_on,60,0,60
2,note_on,56,0,0
2,note_on,51,0,0
2,note_on,49,45,60
2,note_on,56,45,0
2,note_on,60,52,0
2,note_on,60,0,237
2,note_on,56,0,0
2,note_on,49,0,0
2,note_on,49,40,0
2,note_on,56,40,0
2,note_on,61,48,0
2,note_on,61,0,60
2,note_on,56,0,0
2,note_on,49,0,0
2,note_on,49,40,60
2,note_on,56,40,0
2,note_on,61,48,0
2,note_on,61,0,60
2,note_on,56,0,0
2,note_on,49,0,0
2,note_on,49,45,60
2,note_on,55,45,0
2,note_on,61,54,0
2,note_on,61,0,180
2,note_on,55,0,0
2,note_on,49,0,0
2,note_on,49,43,0
2,note_on,55,43,0
2,note_on,61,51,0
2,note_on,61,0,108
2,note_on,55,0,0
2,note_on,49,0,0
2,note_on,49,43,12
2,note_on,55,43,0
2,note_on,61,51,0
2,note_on,61,0,108
2,note_on,55,0,0
2,note_on,49,0,0
2,note_on,48,45,12
2,note_on,55,45,0
2,note_on,58,54,0
2,note_on,58,0,127
2,note_on,55,0,0
2,note_on,48,0,0
2,note_on,48,43,0
2,note_on,55,43,0
2,note_on,58,51,0
2,note_on,58,0,108
2,note_on,55,0,0
2,note_on,48,0,0
2,note_on,48,43,12
2,note_on,55,43,0
2,note_on,58,51,0
2,note_on,58,0,108
2,note_on,55,0,0
2,note_on,48,0,0
2,note_on,53,45,12
2,note_on,56,52,0
2,note_on,56,0,233
2,note_on,53,0,0
2,note_on,53,40,0
2,note_on,56,48,0
2,note_on,56,0,60
2,note_on,53,0,0
2,note_on,51,40,60
2,note_on,56,48,0
2,note_on,56,0,60
2,note_on,51,0,0
2,note_on,50,45,60
2,note_on,56,54,0
2,note_on,56,0,180
2,note_on,50,0,0
2,note_on,50,40,0
2,note_on,56,48,0
2,note_on,56,0,108
2,note_on,50,0,0
2,note_on,50,40,12
2,note_on,56,48,0
2,note_on,56,0,108
2,note_on,50,0,0
2,note_on,43,45,12
2,note_on,50,45,0
2,note_on,55,54,0
2,note_on,55,0,127
2,note_on,50,0,0
2,note_on,43,0,0
2,note_on,43,40,0
2,note_on,50,40,0
2,note_on,55,48,0
2,note_on,55,0,108
2,note_on,50,0,0
2,note_on,43,0,0
2,note_on,43,40,12
2,note_on,50,40,0
2,note_on,55,48,0
2,note_on,55,0,108
2,note_on,50,0,0
2,note_on,43,0,0
2,note_on,48,42,0
2,note_on,55,49,0
2,note_on,55,0,183
2,note_on,48,0,0
2,note_on,48,38,0
2,note_on,55,45,0
2,note_on,55,0,108
2,note_on,48,0,0
2,note_on,48,38,12
2,note_on,55,45,0
2,note_on,55,0,108
2,note_on,48,0,0
2,note_on,56,49,12
2,note_on,46,42,0
2,note_on,46,0,183
2,note_on,56,0,0
2,note_on,56,45,0
2,note_on,46,38,0
2,note_on,46,0,108
2,note_on,56,0,0
2,note_on,46,38,12
2,note_on,56,45,0
2,note_on,56,0,108
2,note_on,46,0,0
2,note_on,39,45,12
2,note_on,46,45,0
2,note_on,51,54,0
2,note_on,51,0,127
2,note_on,46,0,0
2,note_on,39,0,0
2,note_on,46,40,0
2,note_on,51,48,0
2,note_on,39,40,0
2,note_on,39,0,108
2,note_on,51,0,0
2,note_on,46,0,0
2,note_on,46,40,12
2,note_on,51,48,0
2,note_on,39,40,0
2,note_on,39,0,108
2,note_on,51,0,0
2,note_on,46,0,0
2,note_on,35,43,12
2,note_on,47,51,0
2,note_on,47,0,91
2,note_on,35,0,0
2,note_on,47,43,0
2,note_on,59,51,0
2,note_on,55,43,0
2,note_on,55,0,108
2,note_on,59,0,0
2,note_on,47,0,0
2,note_on,47,43,12
2,note_on,59,51,0
2,note_on,55,43,0
2,note_on,55,0,108
2,note_on,59,0,0
2,note_on,47,0,0
2,note_on,47,43,12
2,note_on,59,51,0
2,note_on,55,43,0
2,note_on,55,0,240
2,note_on,59,0,0
2,note_on,47,0,0
2,note_on,47,43,0
2,note_on,55,43,0
2,note_on,59,51,0
2,note_on,59,0,108
2,note_on,55,0,0
2,note_on,47,0,0
2,note_on,47,43,12
2,note_on,55,43,0
2,note_on,59,51,0
2,note_on,59,0,108
2,note_on,55,0,0
2,note_on,47,0,0
2,note_on,48,40,12
2,note_on,55,40,0
2,note_on,60,48,0
2,note_on,60,0,108
2,note_on,55,0,0
2,note_on,48,0,0
2,note_on,48,40,0
2,note_on,55,40,0
2,note_on,60,48,0
2,note_on,60,0,108
2,note_on,55,0,0
2,note_on,48,0,0
2,note_on,48,40,12
2,note_on,55,40,0
2,note_on,60,48,0
2,note_on,60,0,108
2,note_on,55,0,0
2,note_on,48,0,0
2,note_on,53,45,0
2,note_on,60,45,0
2,note_on,64,52,0
2,note_on,64,0,240
2,note_on,60,0,0
2,note_on,53,0,0
2,note_on,53,40,0
2,note_on,60,40,0
2,note_on,65,48,0
2,note_on,65,0,60
2,note_on,60,0,0
2,note_on,53,0,0
2,note_on,53,40,60
2,note_on,60,40,0
2,note_on,65,48,0
2,note_on,65,0,60
2,note_on,60,0,0
2,note_on,53,0,0
2,note_on,53,45,60
2,note_on,60,45,0
2,note_on,62,54,0
2,note_on,62,0,180
2,note_on,60,0,0
2,note_on,53,0,0
2,note_on,53,43,0
2,note_on,60,43,0
2,note_on,62,51,0
2,note_on,62,0,108
2,note_on,60,0,0
2,note_on,53,0,0
2,note_on,53,43,12
2,note_on,60,43,0
2,note_on,62,51,0
2,note_on,62,0,108
2,note_on,60,0,0
2,note_on,53,0,0
2,note_on,55,45,12
2,note_on,60,45,0
2,note_on,64,54,0
2,note_on,64,0,127
2,note_on,60,0,0
2,note_on,55,0,0
2,note_on,55,43,0
2,note_on,60,43,0
2,note_on,64,51,0
2,note_on,64,0,108
2,note_on,60,0,0
2,note_on,55,0,0
2,note_on,55,43,12
2,note_on,60,43,0
2,note_on,64,51,0
2,note_on,64,0,108
2,note_on,60,0,0
2,note_on,55,0,0
2,note_on,56,42,0
2,note_on,60,42,0
2,note_on,64,49,0
2,note_on,64,0,240
2,note_on,60,0,0
2,note_on,56,0,0
2,note_on,56,38,0
2,note_on,60,38,0
2,note_on,65,45,0
2,note_on,65,0,60
2,note_on,60,0,0
2,note_on,56,0,0
2,note_on,56,36,60
2,note_on,60,36,0
2,note_on,65,44,0
2,note_on,65,0,60
2,note_on,60,0,0
2,note_on,56,0,0
2,note_on,53,39,60
2,note_on,60,39,0
2,note_on,65,47,0
2,note_on,65,0,223
2,note_on,60,0,0
2,note_on,53,0,0
2,note_on,53,35,0
2,note_on,60,41,0
2,note_on,60,0,60
2,note_on,53,0,0
2,note_on,53,35,60
2,note_on,60,41,0
2,note_on,60,0,60
2,note_on,53,0,0
2,note_on,50,38,60
2,note_on,56,38,0
2,note_on,60,45,0
2,note_on,60,0,177
2,note_on,56,0,0
2,note_on,50,0,0
2,note_on,50,31,0
2,note_on,55,31,0
2,note_on,60,38,0
2,note_on,60,0,60
2,note_on,55,0,0
2,note_on,50,0,0
2,note_on,50,31,60
2,note_on,53,31,0
2,note_on,60,38,0
2,note_on,60,0,60
2,note_on,53,0,0
2,note_on,50,0,0
2,note_on,43,34,0
2,note_on,50,34,0
2,note_on,55,39,0
2,note_on,55,0,29
2,note_on,50,0,0
2,note_on,43,0,0
2,note_on,43,30,6
2,note_on,48,30,0
2,note_on,55,36,0
2,note_on,55,0,120
2,note_on,48,0,0
2,note_on,43,0,0
2,note_on,43,30,0
2,note_on,51,30,0
2,note_on,55,36,0
2,note_on,55,0,120
2,note_on,51,0,0
2,note_on,43,0,0
2,note_on,43,31,0
2,note_on,50,31,0
2,note_on,55,37,0
2,note_on,55,0,120
2,note_on,50,0,0
2,note_on,43,0,0
2,note_on,43,28,120
2,note_on,48,28,0
2,note_on,55,34,0
2,note_on,55,0,120
2,note_on,48,0,0
2,note_on,43,0,0
2,note_on,43,28,0
2,note_on,51,28,0
2,note_on,55,34,0
2,note_on,55,0,120
2,note_on,51,0,0
2,note_on,43,0,0
2,note_on,43,27,0
2,note_on,50,27,0
2,note_on,55,33,0
2,note_on,55,0,120
2,note_on,50,0,0
2,note_on,43,0,0
2,note_on,62,38,0
2,note_on,62,0,480
2,note_on,62,32,0
2,note_on,54,27,240
2,note_on,60,32,0
2,note_on,60,0,240
2,note_on,54,0,0
2,note_on,62,0,0
2,note_on,50,24,0
2,note_on,62,29,0
2,note_on,62,0,240
2,note_on,50,0,0
2,note_on,55,27,0
2,note_on,59,32,0
2,note_on,59,0,234
2,note_on,55,0,0
2,note_on,50,24,0
2,note_on,62,28,0
2,note_on,62,0,240
2,note_on,50,0,0
2,note_on,38,47,0
2,note_on,38,0,85
2,note_on,50,24,120
2,note_on,62,28,0
2,note_on,62,0,240
2,note_on,50,0,0
2,note_on,57,27,0
2,note_on,60,32,0
2,note_on,60,0,240
2,note_on,57,0,0
2,note_on,50,24,0
2,note_on,62,28,0
2,note_on,62,0,240
2,note_on,50,0,0
2,note_on,55,27,0
2,note_on,59,32,0
2,note_on,59,0,238
2,note_on,55,0,0
2,note_on,50,24,0
2,note_on,62,29,0
2,note_on,62,0,240
2,note_on,50,0,0
2,note_on,54,27,0
2,note_on,57,32,0
2,note_on,57,0,240
2,note_on,54,0,0
2,note_on,50,24,0
2,note_on,62,28,0
2,note_on,62,0,240
2,note_on,50,0,0
2,note_on,55,27,0
2,note_on,58,32,0
2,note_on,58,0,200
2,note_on,55,0,0
2,note_on,50,27,0
2,note_on,62,32,0
2,note_on,62,0,480
2,note_on,50,0,0
2,note_on,50,26,0
2,note_on,62,31,0
2,note_on,62,0,240
2,note_on,50,0,0
2,note_on,54,27,0
2,note_on,57,32,0
2,note_on,57,0,232
2,note_on,54,0,0
2,note_on,50,24,0
2,note_on,62,28,0
2,note_on,62,0,240
2,note_on,50,0,0
2,note_on,55,27,0
2,note_on,58,32,0
2,note_on,58,0,240
2,note_on,55,0,0
2,note_on,50,24,0
2,note_on,62,28,0
2,note_on,62,0,240
2,note_on,50,0,0
2,note_on,56,27,0
2,note_on,59,32,0
2,note_on,59,0,240
2,note_on,56,0,0
2,note_on,50,24,0
2,note_on,62,28,0
2,note_on,62,0,240
2,note_on,50,0,0
2,note_on,57,27,0
2,note_on,60,29,0
2,note_on,60,0,209
2,note_on,57,0,0
2,note_on,50,24,0
2,note_on,62,32,0
2,note_on,62,0,480
2,note_on,50,0,0
2,note_on,50,24,0
2,note_on,62,29,0
2,note_on,62,0,240
2,note_on,50,0,0
2,note_on,55,27,0
2,note_on,58,32,0
2,note_on,58,0,229
2,note_on,55,0,0
2,note_on,50,24,0
2,note_on,62,28,0
2,note_on,62,0,240
2,note_on,50,0,0
2,note_on,38,47,0
2,note_on,38,0,80
2,note_on,50,24,120
2,note_on,62,28,0
2,note_on,62,0,240
2,note_on,50,0,0
2,note_on,54,27,0
2,note_on,60,32,0
2,note_on,60,0,240
2,note_on,54,0,0
2,note_on,50,24,0
2,note_on,62,28,0
2,note_on,62,0,240
2,note_on,50,0,0
2,note_on,55,27,0
2,note_on,58,32,0
2,note_on,58,0,238
2,note_on,55,0,0
2,note_on,50,24,0
2,note_on,62,29,0
2,note_on,62,0,240
2,note_on,50,0,0
2,note_on,55,34,0
2,note_on,58,40,0
2,note_on,58,0,143
2,note_on,55,0,0
2,note_on,50,30,0
2,note_on,63,36,0
2,note_on,63,0,480
2,note_on,50,0,0
2,note_on,50,34,0
2,note_on,63,40,0
2,note_on,63,0,240
2,note_on,50,0,0
2,note_on,55,33,0
2,note_on,58,39,0
2,note_on,58,0,240
2,note_on,55,0,0
2,note_on,50,33,0
2,note_on,63,39,0
2,note_on,63,0,240
2,note_on,50,0,0
2,note_on,54,29,0
2,note_on,57,29,0
2,note_on,62,35,0
2,note_on,62,0,203
2,note_on,57,0,0
2,note_on,54,0,0
2,note_on,50,36,0
2,note_on,50,0,240
2,note_on,55,32,0
2,note_on,58,32,0
2,note_on,63,38,0
2,note_on,63,0,203
2,note_on,58,0,0
2,note_on,55,0,0
2,note_on,49,40,0
2,note_on,49,0,240
2,note_on,55,36,0
2,note_on,58,36,0
2,note_on,64,42,0
2,note_on,64,0,216
2,note_on,58,0,0
2,note_on,55,0,0
2,note_on,48,43,0
2,note_on,48,0,240
2,note_on,41,52,0
2,note_on,41,0,66
2,note_on,53,34,120
2,note_on,65,44,0
2,note_on,65,0,480
2,note_on,53,0,0
2,note_on,53,34,0
2,note_on,65,40,0
2,note_on,65,0,240
2,note_on,53,0,0
2,note_on,58,37,0
2,note_on,61,44,0
2,note_on,61,0,232
2,note_on,58,0,0
2,note_on,53,33,0
2,note_on,65,39,0
2,note_on,65,0,240
2,note_on,53,0,0
2,note_on,29,56,0
2,note_on,29,0,79
2,note_on,53,33,120
2,note_on,65,39,0
2,note_on,65,0,240
2,note_on,53,0,0
2,note_on,57,37,0
2,note_on,63,44,0
2,note_on,63,0,240
2,note_on,57,0,0
2,note_on,53,33,0
2,note_on,65,39,0
2,note_on,65,0,240
2,note_on,53,0,0
2,note_on,58,37,0
2,note_on,61,44,0
2,note_on,61,0,238
2,note_on,58,0,0
2,note_on,53,34,0
2,note_on,65,40,0
2,note_on,65,0,240
2,note_on,53,0,0
2,note_on,58,37,0
2,note_on,61,44,0
2,note_on,61,0,143
2,note_on,58,0,0
2,note_on,53,33,0
2,note_on,66,39,0
2,note_on,66,0,480
2,note_on,53,0,0
2,note_on,53,37,0
2,note_on,66,44,0
2,note_on,66,0,240
2,note_on,53,0,0
2,note_on,58,36,0
2,note_on,61,42,0
2,note_on,61,0,240
2,note_on,58,0,0
2,note_on,53,36,0
2,note_on,66,42,0
2,note_on,66,0,240
2,note_on,53,0,0
2,note_on,57,31,0
2,note_on,60,38,0
2,note_on,60,0,203
2,note_on,57,0,0
2,note_on,53,33,0
2,note_on,65,38,0
2,note_on,65,0,240
2,note_on,53,0,0
2,note_on,58,32,0
2,note_on,61,38,0
2,note_on,61,0,203
2,note_on,58,0,0
2,note_on,53,31,0
2,note_on,65,38,0
2,note_on,65,0,240
2,note_on,53,0,0
2,note_on,59,32,0
2,note_on,62,37,0
2,note_on,62,0,197
2,note_on,59,0,0
2,note_on,53,29,0
2,note_on,65,36,0
2,note_on,65,0,240
2,note_on,53,0,0
2,note_on,60,28,0
2,note_on,63,31,0
2,note_on,63,0,186
2,note_on,60,0,0
2,note_on,53,26,0
2,note_on,65,34,0
2,note_on,65,0,480
2,note_on,53,0,0
2,note_on,53,26,0
2,note_on,65,31,0
2,note_on,65,0,240
2,note_on,53,0,0
2,note_on,58,28,0
2,note_on,61,34,0
2,note_on,61,0,234
2,note_on,58,0,0
2,note_on,53,25,0
2,note_on,65,30,0
2,note_on,65,0,240
2,note_on,53,0,0
2,note_on,29,43,0
2,note_on,29,0,85
2,note_on,53,25,120
2,note_on,65,30,0
2,note_on,65,0,240
2,note_on,53,0,0
2,note_on,57,28,0
2,note_on,63,34,0
2,note_on,63,0,240
2,note_on,57,0,0
2,note_on,53,25,0
2,note_on,65,30,0
2,note_on,65,0,240
2,note_on,53,0,0
2,note_on,58,28,0
2,note_on,61,34,0
2,note_on,61,0,238
2,note_on,58,0,0
2,note_on,53,26,0
2,note_on,65,31,0
2,note_on,65,0,240
2,note_on,53,0,0
2,note_on,41,51,0
2,note_on,41,0,66
2,note_on,48,26,120
2,note_on,60,34,0
2,note_on,60,0,480
2,note_on,48,0,0
2,note_on,48,26,0
2,note_on,60,31,0
2,note_on,60,0,240
2,note_on,48,0,0
2,note_on,53,28,0
2,note_on,56,34,0
2,note_on,56,0,234
2,note_on,53,0,0
2,note_on,48,25,0
2,note_on,60,30,0
2,note_on,60,0,240
2,note_on,48,0,0
2,note_on,39,47,0
2,note_on,39,0,66
2,note_on,48,26,120
2,note_on,60,34,0
2,note_on,60,0,480
2,note_on,48,0,0
2,note_on,48,26,0
2,note_on,60,31,0
2,note_on,60,0,240
2,note_on,48,0,0
2,note_on,37,48,0
2,note_on,37,0,23
2,note_on,49,25,120
2,note_on,60,30,0
2,note_on,60,0,240
2,note_on,49,0,0
2,note_on,36,49,0
2,note_on,36,0,28
2,note_on,48,26,120
2,note_on,60,34,0
2,note_on,60,0,480
2,note_on,48,0,0
2,note_on,48,26,0
2,note_on,60,31,0
2,note_on,60,0,240
2,note_on,48,0,0
2,note_on,53,28,0
2,note_on,56,34,0
2,note_on,56,0,234
2,note_on,53,0,0
2,note_on,48,25,0
2,note_on,60,30,0
2,note_on,60,0,240
2,note_on,48,0,0
2,note_on,39,50,0
2,note_on,39,0,23
2,note_on,48,26,120
2,note_on,60,34,0
2,note_on,60,0,480
2,note_on,48,0,0
2,note_on,48,26,0
2,note_on,60,31,0
2,note_on,60,0,240
2,note_on,48,0,0
2,note_on,37,51,0
2,note_on,37,0,28
2,note_on,49,25,120
2,note_on,60,30,0
2,note_on,60,0,240
2,note_on,49,0,0
2,note_on,36,49,0
2,note_on,36,0,17
2,note_on,48,26,120
2,note_on,60,34,0
2,note_on,60,0,480
2,note_on,48,0,0
2,note_on,48,26,0
2,note_on,60,31,0
2,note_on,60,0,240
2,note_on,48,0,0
2,note_on,53,28,0
2,note_on,56,34,0
2,note_on,56,0,232
2,note_on,53,0,0
2,note_on,48,25,0
2,note_on,60,30,0
2,note_on,60,0,240
2,note_on,48,0,0
2,note_on,51,28,0
2,note_on,55,39,0
2,note_on,55,0,186
2,note_on,51,0,0
2,note_on,48,26,0
2,note_on,60,34,0
2,note_on,60,0,480
2,note_on,48,0,0
2,note_on,48,26,0
2,note_on,60,31,0
2,note_on,60,0,240
2,note_on,48,0,0
2,note_on,49,28,0
2,note_on,53,34,0
2,note_on,53,0,160
2,note_on,49,0,0
2,note_on,48,25,0
2,note_on,60,30,0
2,note_on,60,0,240
2,note_on,48,0,0
2,note_on,52,39,0
2,note_on,52,0,143
2,note_on,48,26,0
2,note_on,60,34,0
2,note_on,60,0,480
2,note_on,48,0,0
2,note_on,48,26,0
2,note_on,60,31,0
2,note_on,60,0,240
2,note_on,48,0,0
2,note_on,53,28,0
2,note_on,56,34,0
2,note_on,56,0,160
2,note_on,53,0,0
2,note_on,48,25,0
2,note_on,60,30,0
2,note_on,60,0,240
2,note_on,48,0,0
2,note_on,51,28,0
2,note_on,55,39,0
2,note_on,55,0,186
2,note_on,51,0,0
2,note_on,48,26,0
2,note_on,60,34,0
2,note_on,60,0,480
2,note_on,48,0,0
2,note_on,48,26,0
2,note_on,60,31,0
2,note_on,60,0,240
2,note_on,48,0,0
2,note_on,49,28,0
2,note_on,53,34,0
2,note_on,53,0,154
2,note_on,49,0,0
2,note_on,48,25,0
2,note_on,60,30,0
2,note_on,52,34,240
2,note_on,52,0,143
2,note_on,60,0,0
2,note_on,48,0,0
2,note_on,54,37,234
2,note_on,54,0,120
2,note_on,55,39,0
2,note_on,55,0,120
2,note_on,56,43,0
2,note_on,56,0,120
2,note_on,58,46,0
2,note_on,58,0,120
2,note_on,56,48,0
2,note_on,56,0,120
2,note_on,55,48,0
2,note_on,55,0,120
2,note_on,53,48,0
2,note_on,53,0,120
2,note_on,52,49,0
2,note_on,52,0,120
2,note_on,51,48,0
2,note_on,51,0,120
2,note_on,52,51,0
2,note_on,52,0,120
2,note_on,53,53,0
2,note_on,53,0,120
2,note_on,55,55,0
2,note_on,55,0,120
2,note_on,49,62,0
2,note_on,55,56,103
2,note_on,55,0,120
2,note_on,49,0,0
2,note_on,48,60,0
2,note_on,55,53,120
2,note_on,55,0,110
2,note_on,48,0,0
2,note_on,47,51,0
2,note_on,47,0,120
2,note_on,48,53,0
2,note_on,48,0,120
2,note_on,49,54,0
2,note_on,49,0,120
2,note_on,51,57,0
2,note_on,51,0,120
2,note_on,49,60,0
2,note_on,49,0,120
2,note_on,48,58,0
2,note_on,48,0,120
2,note_on,46,56,0
2,note_on,46,0,120
2,note_on,44,55,0
2,note_on,44,0,120
2,note_on,43,64,0
2,note_on,48,58,120
2,note_on,48,0,120
2,note_on,46,58,0
2,note_on,46,0,120
2,note_on,43,0,0
2,note_on,42,59,0
2,note_on,42,0,120
2,note_on,41,62,0
2,note_on,48,58,120
2,note_on,48,0,120
2,note_on,46,58,0
2,note_on,46,0,120
2,note_on,41,0,0
2,note_on,40,59,0
2,note_on,40,0,120
2,note_on,39,66,0
2,note_on,44,60,120
2,note_on,44,0,120
2,note_on,43,61,0
2,note_on,43,0,120
2,note_on,39,0,0
2,note_on,39,63,0
2,note_on,39,0,120
2,note_on,37,69,0
2,note_on,43,65,120
2,note_on,43,0,120
2,note_on,41,68,0
2,note_on,41,0,120
2,note_on,37,0,0
2,note_on,37,68,0
2,note_on,37,0,120
2,note_on,36,74,0
2,note_on,39,70,120
2,note_on,39,0,120
2,note_on,36,0,0
2,note_on,34,71,0
2,note_on,39,73,120
2,note_on,39,0,120
2,note_on,34,0,0
2,note_on,32,70,0
2,note_on,44,84,0
2,note_on,44,0,42
2,note_on,32,0,0
2,note_on,60,67,120
2,note_on,51,67,0
2,note_on,63,79,0
2,note_on,63,0,240
2,note_on,51,0,0
2,note_on,60,0,0
2,note_on,68,77,0
2,note_on,60,77,0
2,note_on,56,64,0
2,note_on,56,0,229
2,note_on,60,0,0
2,note_on,68,0,0
2,note_on,39,72,0
2,note_on,51,85,0
2,note_on,51,0,60
2,note_on,39,0,0
2,note_on,44,73,180
2,note_on,56,86,0
2,note_on,56,0,115
2,note_on,44,0,0
2,note_on,27,61,120
2,note_on,39,73,0
2,note_on,39,0,240
2,note_on,27,0,0
2,note_on,32,67,0
2,note_on,44,79,0
2,note_on,44,0,208
2,note_on,32,0,0
2,note_on,60,61,0
2,note_on,63,73,0
2,note_on,51,61,0
2,note_on,51,0,240
2,note_on,63,0,0
2,note_on,60,0,0
2,note_on,68,75,0
2,note_on,60,75,0
2,note_on,56,63,0
2,note_on,56,0,223
2,note_on,60,0,0
2,note_on,68,0,0
2,note_on,39,67,0
2,note_on,51,80,0
2,note_on,51,0,49
2,note_on,39,0,0
2,note_on,44,73,180
2,note_on,56,86,0
2,note_on,56,0,106
2,note_on,44,0,0
2,note_on,27,61,120
2,note_on,39,73,0
2,note_on,39,0,240
2,note_on,27,0,0
2,note_on,32,67,0
2,note_on,44,79,0
2,note_on,44,0,208
2,note_on,32,0,0
2,note_on,60,61,0
2,note_on,63,73,0
2,note_on,51,61,0
2,note_on,51,0,240
2,note_on,63,0,0
2,note_on,60,0,0
2,note_on,68,75,0
2,note_on,60,75,0
2,note_on,56,63,0
2,note_on,56,0,183
2,note_on,60,0,0
2,note_on,68,0,0
2,note_on,39,61,0
2,note_on,51,73,0
2,note_on,51,0,120
2,note_on,39,0,0
2,note_on,44,64,120
2,note_on,56,77,0
2,note_on,56,0,110
2,note_on,44,0,0
2,note_on,39,62,60
2,note_on,46,62,30
2,note_on,54,74,30
2,note_on,54,0,125
2,note_on,46,0,0
2,note_on,39,0,0
2,note_on,41,62,0
2,note_on,48,62,30
2,note_on,51,74,30
2,note_on,57,74,0
2,note_on,57,0,87
2,note_on,51,0,0
2,note_on,41,0,0
2,note_on,53,61,0
2,note_on,60,61,30
2,note_on,63,73,30
2,note_on,48,0,30
2,note_on,69,73,0
2,note_on,69,0,150
2,note_on,63,0,0
2,note_on,60,0,0
2,note_on,53,0,0
2,note_on,46,63,30
2,note_on,53,75,23
2,note_on,61,75,30
2,note_on,61,0,240
2,note_on,53,0,0
2,note_on,46,0,0
2,note_on,42,60,0
2,note_on,54,71,0
2,note_on,54,0,240
2,note_on,42,0,0
2,note_on,41,60,0
2,note_on,53,71,0
2,note_on,53,0,240
2,note_on,41,0,0
2,note_on,37,58,0
2,note_on,49,69,0
2,note_on,49,0,240
2,note_on,37,0,0
2,note_on,34,67,0
2,note_on,46,79,0
2,note_on,46,0,42
2,note_on,34,0,0
2,note_on,61,79,120
2,note_on,53,67,0
2,note_on,65,79,0
2,note_on,65,0,240
2,note_on,53,0,0
2,note_on,61,0,0
2,note_on,70,77,0
2,note_on,61,77,0
2,note_on,58,64,0
2,note_on,58,0,14
2,note_on,61,0,0
2,note_on,70,0,0
2,note_on,41,72,0
2,note_on,53,85,0
2,note_on,53,0,60
2,note_on,41,0,0
2,note_on,46,73,180
2,note_on,58,86,0
2,note_on,58,0,116
2,note_on,46,0,0
2,note_on,29,61,120
2,note_on,41,73,0
2,note_on,41,0,240
2,note_on,29,0,0
2,note_on,34,67,0
2,note_on,46,79,0
2,note_on,46,0,208
2,note_on,34,0,0
2,note_on,61,61,0
2,note_on,65,73,0
2,note_on,53,61,0
2,note_on,53,0,240
2,note_on,65,0,0
2,note_on,61,0,0
2,note_on,70,75,0
2,note_on,61,75,0
2,note_on,58,63,0
2,note_on,58,0,225
2,note_on,61,0,0
2,note_on,70,0,0
2,note_on,41,67,0
2,note_on,53,80,0
2,note_on,53,0,51
2,note_on,41,0,0
2,note_on,46,73,180
2,note_on,58,86,0
2,note_on,58,0,118
2,note_on,46,0,0
2,note_on,34,61,120
2,note_on,46,73,0
2,note_on,46,0,240
2,note_on,34,0,0
2,note_on,27,67,0
2,note_on,39,79,0
2,note_on,39,0,88
2,note_on,27,0,0
2,note_on,67,60,120
2,note_on,61,60,0
2,note_on,72,72,0
2,note_on,63,60,0
2,note_on,72,0,120
2,note_on,70,70,0
2,note_on,70,0,50
2,note_on,63,0,0
2,note_on,61,0,0
2,note_on,67,0,0
2,note_on,51,75,0
2,note_on,51,0,88
2,note_on,70,72,120
2,note_on,60,58,0
2,note_on,63,69,0
2,note_on,70,0,120
2,note_on,68,70,0
2,note_on,68,0,49
2,note_on,63,0,0
2,note_on,60,0,0
2,note_on,51,73,0
2,note_on,51,0,88
2,note_on,68,72,120
2,note_on,58,56,0
2,note_on,63,67,0
2,note_on,68,0,120
2,note_on,67,70,0
2,note_on,67,0,48
2,note_on,63,0,0
2,note_on,58,0,0
2,note_on,46,70,0
2,note_on,46,0,88
2,note_on,67,72,120
2,note_on,56,55,0
2,note_on,62,66,0
2,note_on,58,55,0
2,note_on,67,0,120
2,note_on,65,70,0
2,note_on,65,0,50
2,note_on,58,0,0
2,note_on,62,0,0
2,note_on,56,0,0
2,note_on,51,72,0
2,note_on,51,0,88
2,note_on,65,72,120
2,note_on,55,57,0
2,note_on,58,68,0
2,note_on,65,0,120
2,note_on,63,70,0
2,note_on,63,0,50
2,note_on,58,0,0
2,note_on,55,0,0
2,note_on,41,62,0
2,note_on,53,74,0
2,note_on,41,0,208
2,note_on,61,72,0
2,note_on,56,68,0
2,note_on,61,0,120
2,note_on,60,68,0
2,note_on,60,0,50
2,note_on,56,0,0
2,note_on,53,0,0
2,note_on,37,59,0
2,note_on,49,71,0
2,note_on,49,0,159
2,note_on,37,0,0
2,note_on,53,51,0
2,note_on,58,59,0
2,note_on,58,0,240
2,note_on,53,0,0
2,note_on,36,53,0
2,note_on,48,63,0
2,note_on,48,0,162
2,note_on,36,0,0
2,note_on,52,49,0
2,note_on,60,59,0
2,note_on,58,49,0
2,note_on,58,0,226
2,note_on,60,0,0
2,note_on,52,0,0
2,note_on,29,58,0
2,note_on,41,69,0
2,note_on,41,0,173
2,note_on,29,0,0
2,note_on,53,67,0
2,note_on,56,67,0
2,note_on,60,67,0
2,note_on,60,0,228
2,note_on,56,0,0
2,note_on,53,0,0
2,note_on,39,51,0
2,note_on,51,72,0
2,note_on,51,0,74
2,note_on,39,0,0
2,note_on,51,48,120
2,note_on,58,68,0
2,note_on,58,0,225
2,note_on,51,0,0
2,note_on,44,50,0
2,note_on,51,50,0
2,note_on,56,70,0
2,note_on,56,0,240
2,note_on,51,0,0
2,note_on,44,0,0
2,note_on,44,61,480
2,note_on,56,72,0
2,note_on,56,0,240
2,note_on,44,0,0
2,note_on,37,62,0
2,note_on,49,74,0
2,note_on,49,0,159
2,note_on,37,0,0
2,note_on,53,55,0
2,note_on,58,64,0
2,note_on,58,0,240
2,note_on,53,0,0
2,note_on,36,63,0
2,note_on,48,75,0
2,note_on,48,0,162
2,note_on,36,0,0
2,note_on,58,57,0
2,note_on,64,68,0
2,note_on,60,57,0
2,note_on,60,0,231
2,note_on,64,0,0
2,note_on,58,0,0
2,note_on,29,66,0
2,note_on,41,78,0
2,note_on,41,0,173
2,note_on,29,0,0
2,note_on,53,68,0
2,note_on,56,70,0
2,note_on,60,73,0
2,note_on,65,73,0
2,note_on,65,0,227
2,note_on,53,0,0
2,note_on,56,0,0
2,note_on,60,0,0
2,note_on,39,64,0
2,note_on,51,77,0
2,note_on,51,0,74
2,note_on,39,0,0
2,note_on,58,43,120
2,note_on,61,43,0
2,note_on,63,60,0
2,note_on,67,71,0
2,note_on,67,0,225
2,note_on,58,0,0
2,note_on,61,0,0
2,note_on,63,0,0
2,note_on,56,60,0
2,note_on,63,60,0
2,note_on,68,71,0
2,note_on,68,0,120
2,note_on,63,0,0
2,note_on,56,0,0
2,note_on,68,70,120
2,note_on,59,70,0
2,note_on,62,70,0
2,note_on,71,70,0
2,note_on,71,0,180
2,note_on,68,0,0
2,note_on,59,0,0
2,note_on,62,0,0
2,note_on,68,63,0
2,note_on,60,63,0
2,note_on,72,63,0
2,note_on,63,63,0
2,note_on,63,0,54
2,note_on,68,0,0
2,note_on,60,0,0
2,note_on,72,0,0
2,note_on,68,71,6
2,note_on,72,71,0
2,note_on,60,71,0
2,note_on,63,71,0
2,note_on,63,0,120
2,note_on,68,0,0
2,note_on,72,0,0
2,note_on,60,0,0
2,note_on,53,61,30
2,note_on,60,61,30
2,note_on,63,61,30
2,note_on,69,72,30
2,note_on,69,0,180
2,note_on,53,0,0
2,note_on,60,0,0
2,note_on,63,0,0
2,note_on,46,66,0
2,note_on,53,66,30
2,note_on,61,78,25
2,note_on,61,0,140
2,note_on,53,0,0
2,note_on,46,0,0
2,note_on,51,61,0
2,note_on,58,61,1
2,note_on,66,72,30
2,note_on,66,0,137
2,note_on,58,0,0
2,note_on,51,0,0
2,note_on,46,57,0
2,note_on,53,57,19
2,note_on,61,68,30
2,note_on,61,0,140
2,note_on,53,0,0
2,note_on,46,0,0
2,note_on,39,57,0
2,note_on,46,57,24
2,note_on,54,68,30
2,note_on,54,0,146
2,note_on,46,0,0
2,note_on,39,0,0
2,note_on,34,57,0
2,note_on,41,57,1
2,note_on,49,68,30
2,note_on,49,0,149
2,note_on,41,0,0
2,note_on,34,0,0
2,note_on,39,56,0
2,note_on,46,56,30
2,note_on,54,67,30
2,note_on,54,0,83
2,note_on,46,0,0
2,note_on,39,0,0
2,note_on,46,61,0
2,note_on,53,61,30
2,note_on,61,72,30
2,note_on,61,0,123
2,note_on,53,0,0
2,note_on,46,0,0
2,note_on,33,55,60
2,note_on,33,0,20
2,note_on,34,55,0
2,note_on,34,0,60
2,note_on,36,56,0
2,note_on,36,0,60
2,note_on,37,56,0
2,note_on,37,0,60
2,note_on,39,56,0
2,note_on,39,0,60
2,note_on,41,57,0
2,note_on,41,0,60
2,note_on,43,58,0
2,note_on,43,0,60
2,note_on,45,58,0
2,note_on,45,0,60
2,note_on,46,59,0
2,note_on,46,0,60
2,note_on,48,60,0
2,note_on,48,0,60
2,note_on,49,60,0
2,note_on,49,0,60
2,note_on,51,61,0
2,note_on,51,0,60
2,note_on,53,61,0
2,note_on,53,0,60
2,note_on,55,61,0
2,note_on,55,0,60
2,note_on,57,62,0
2,note_on,57,0,60
2,note_on,58,62,0
2,note_on,58,0,60
2,note_on,60,63,0
2,note_on,60,0,60
2,note_on,61,64,0
2,note_on,61,0,60
2,note_on,63,64,0
2,note_on,63,0,60
2,note_on,65,66,0
2,note_on,65,0,60
2,note_on,67,67,0
2,note_on,67,0,60
2,note_on,69,65,0
2,note_on,69,0,60
2,note_on,70,66,0
2,note_on,70,0,60
2,note_on,72,67,0
2,note_on,72,0,60
2,note_on,73,68,0
2,note_on,73,0,60
2,note_on,75,69,0
2,note_on,75,0,60
2,note_on,77,70,0
2,note_on,77,0,60
2,note_on,79,71,0
2,note_on,79,0,90
2,note_on,81,72,0
2,note_on,81,0,60
2,note_on,27,68,227
2,note_on,39,80,0
2,note_on,39,0,109
2,note_on,27,0,0
2,note_on,51,61,120
2,note_on,63,72,0
2,note_on,63,0,120
2,note_on,51,0,0
2,note_on,72,67,120
2,note_on,67,67,0
2,note_on,63,67,0
2,note_on,75,79,0
2,note_on,75,0,229
2,note_on,72,0,0
2,note_on,67,0,0
2,note_on,63,0,0
2,note_on,77,77,0
2,note_on,72,64,0
2,note_on,65,64,0
2,note_on,65,0,240
2,note_on,72,0,0
2,note_on,77,0,0
2,note_on,60,61,0
2,note_on,68,61,0
2,note_on,72,72,0
2,note_on,72,0,240
2,note_on,68,0,0
2,note_on,60,0,0
2,note_on,73,77,0
2,note_on,68,64,0
2,note_on,61,64,0
2,note_on,61,0,240
2,note_on,68,0,0
2,note_on,73,0,0
2,note_on,60,61,0
2,note_on,68,61,0
2,note_on,72,72,0
2,note_on,72,0,240
2,note_on,68,0,0
2,note_on,60,0,0
2,note_on,68,73,0
2,note_on,63,60,0
2,note_on,56,60,0
2,note_on,56,0,240
2,note_on,63,0,0
2,note_on,68,0,0
2,note_on,53,57,0
2,note_on,65,68,0
2,note_on,65,0,240
2,note_on,53,0,0
2,note_on,61,73,0
2,note_on,56,60,0
2,note_on,49,60,0
2,note_on,49,0,240
2,note_on,56,0,0
2,note_on,61,0,0
2,note_on,51,57,0
2,note_on,58,57,0
2,note_on,61,68,0
2,note_on,61,0,240
2,note_on,58,0,0
2,note_on,51,0,0
2,note_on,32,57,0
2,note_on,44,68,0
2,note_on,44,0,68
2,note_on,32,0,0
2,note_on,51,57,80
2,note_on,56,57,0
2,note_on,60,68,0
2,note_on,60,0,205
2,note_on,56,0,0
2,note_on,51,0,0
2,note_on,53,62,0
2,note_on,56,62,0
2,note_on,59,73,0
2,note_on,59,0,188
2,note_on,56,0,0
2,note_on,53,0,0
2,note_on,41,57,0
2,note_on,53,68,0
2,note_on,53,0,120
2,note_on,41,0,0
2,note_on,29,62,120
2,note_on,41,73,0
2,note_on,41,0,120
2,note_on,29,0,0
2,note_on,28,63,120
2,note_on,40,75,0
2,note_on,40,0,166
2,note_on,28,0,0
2,note_on,27,64,0
2,note_on,39,76,0
2,note_on,39,0,54
2,note_on,27,0,0
2,note_on,58,60,120
2,note_on,61,60,0
2,note_on,63,60,0
2,note_on,67,71,0
2,note_on,67,0,60
2,note_on,58,0,0
2,note_on,61,0,0
2,note_on,63,0,0
2,note_on,58,56,60
2,note_on,61,56,0
2,note_on,63,56,0
2,note_on,67,67,0
2,note_on,67,0,60
2,note_on,58,0,0
2,note_on,61,0,0
2,note_on,63,0,0
2,note_on,58,60,60
2,note_on,61,60,0
2,note_on,63,60,0
2,note_on,67,71,0
2,note_on,67,0,120
2,note_on,58,0,0
2,note_on,61,0,0
2,note_on,63,0,0
2,note_on,58,55,35
2,note_on,61,55,0
2,note_on,63,55,0
2,note_on,66,65,0
2,note_on,66,0,98
2,note_on,58,0,0
2,note_on,61,0,0
2,note_on,63,0,0
2,note_on,58,58,0
2,note_on,61,58,0
2,note_on,63,58,0
2,note_on,67,69,0
2,note_on,67,0,120
2,note_on,58,0,0
2,note_on,61,0,0
2,note_on,63,0,0
2,note_on,58,61,0
2,note_on,61,61,0
2,note_on,63,61,0
2,note_on,68,72,0
2,note_on,68,0,171
2,note_on,58,0,0
2,note_on,61,0,0
2,note_on,63,0,0
2,note_on,58,59,0
2,note_on,61,59,0
2,note_on,63,59,0
2,note_on,70,70,0
2,note_on,70,0,240
2,note_on,58,0,0
2,note_on,61,0,0
2,note_on,63,0,0
2,note_on,44,62,0
2,note_on,56,74,0
2,note_on,56,0,65
2,note_on,44,0,0
2,note_on,51,57,80
2,note_on,56,57,0
2,note_on,60,68,0
2,note_on,60,0,240
2,note_on,56,0,0
2,note_on,51,0,0
2,note_on,53,62,0
2,note_on,56,62,0
2,note_on,59,73,0
2,note_on,59,0,220
2,note_on,56,0,0
2,note_on,53,0,0
2,note_on,41,57,0
2,note_on,53,68,0
2,note_on,53,0,120
2,note_on,41,0,0
2,note_on,29,62,120
2,note_on,41,73,0
2,note_on,41,0,120
2,note_on,29,0,0
2,note_on,28,63,120
2,note_on,40,75,0
2,note_on,40,0,166
2,note_on,28,0,0
2,note_on,27,64,0
2,note_on,39,76,0
2,note_on,39,0,54
2,note_on,27,0,0
2,note_on,58,60,120
2,note_on,61,60,0
2,note_on,63,60,0
2,note_on,67,71,0
2,note_on,67,0,60
2,note_on,58,0,0
2,note_on,61,0,0
2,note_on,63,0,0
2,note_on,58,56,60
2,note_on,61,56,0
2,note_on,63,56,0
2,note_on,67,67,0
2,note_on,67,0,60
2,note_on,58,0,0
2,note_on,61,0,0
2,note_on,63,0,0
2,note_on,58,60,60
2,note_on,61,60,0
2,note_on,63,60,0
2,note_on,67,71,0
2,note_on,67,0,120
2,note_on,58,0,0
2,note_on,61,0,0
2,note_on,63,0,0
2,note_on,58,51,0
2,note_on,61,51,0
2,note_on,63,51,0
2,note_on,68,60,0
2,note_on,68,0,120
2,note_on,58,0,0
2,note_on,61,0,0
2,note_on,63,0,0
2,note_on,58,55,0
2,note_on,61,55,0
2,note_on,63,55,0
2,note_on,66,65,0
2,note_on,66,0,53
2,note_on,58,0,0
2,note_on,61,0,0
2,note_on,63,0,0
2,note_on,58,58,0
2,note_on,61,58,0
2,note_on,63,58,0
2,note_on,67,69,0
2,note_on,67,0,120
2,note_on,58,0,0
2,note_on,61,0,0
2,note_on,63,0,0
2,note_on,58,61,0
2,note_on,61,61,0
2,note_on,63,61,0
2,note_on,68,72,0
2,note_on,68,0,171
2,note_on,58,0,0
2,note_on,61,0,0
2,note_on,63,0,0
2,note_on,58,59,0
2,note_on,61,59,0
2,note_on,63,59,0
2,note_on,70,70,0
2,note_on,70,0,240
2,note_on,58,0,0
2,note_on,61,0,0
2,note_on,63,0,0
2,note_on,32,70,0
2,note_on,44,84,0
2,note_on,44,0,42
2,note_on,32,0,0
2,note_on,39,67,120
2,note_on,51,79,0
2,note_on,51,0,120
2,note_on,39,0,0
2,note_on,56,77,120
2,note_on,44,64,0
2,note_on,44,0,120
2,note_on,56,0,0
2,note_on,51,72,120
2,note_on,63,85,0
2,note_on,63,0,60
2,note_on,51,0,0
2,note_on,56,73,180
2,note_on,68,86,0
2,note_on,68,0,120
2,note_on,56,0,0
2,note_on,63,61,120
2,note_on,75,73,0
2,note_on,75,0,120
2,note_on,63,0,0
2,note_on,32,70,120
2,note_on,44,84,0
2,note_on,44,0,42
2,note_on,32,0,0
2,note_on,39,67,120
2,note_on,51,79,0
2,note_on,51,0,120
2,note_on,39,0,0
2,note_on,56,77,120
2,note_on,44,64,0
2,note_on,44,0,120
2,note_on,56,0,0
2,note_on,51,72,120
2,note_on,63,85,0
2,note_on,63,0,60
2,note_on,51,0,0
2,note_on,56,73,180
2,note_on,68,86,0
2,note_on,68,0,120
2,note_on,56,0,0
2,note_on,63,61,120
2,note_on,75,73,0
2,note_on,75,0,120
2,note_on,63,0,0
2,note_on,32,70,0
2,note_on,44,84,0
2,note_on,44,0,42
2,note_on,32,0,0
2,note_on,39,67,120
2,note_on,51,79,0
2,note_on,51,0,120
2,note_on,39,0,0
2,note_on,56,77,120
2,note_on,44,64,0
2,note_on,44,0,120
2,note_on,56,0,0
2,note_on,51,72,120
2,note_on,63,85,0
2,note_on,63,0,60
2,note_on,51,0,0
2,note_on,56,73,180
2,note_on,68,86,0
2,note_on,68,0,120
2,note_on,56,0,0
2,note_on,51,61,120
2,note_on,63,73,0
2,note_on,63,0,120
2,note_on,51,0,0
2,note_on,44,70,0
2,note_on,56,84,0
2,note_on,56,0,42
2,note_on,44,0,0
2,note_on,39,67,120
2,note_on,51,79,0
2,note_on,51,0,120
2,note_on,39,0,0
2,note_on,32,71,21
2,note_on,44,84,0
2,note_on,44,0,60
2,note_on,32,0,0
2,note_on,31,68,60
2,note_on,43,80,0
2,note_on,43,0,60
2,note_on,31,0,0
2,note_on,29,68,60
2,note_on,41,81,0
2,note_on,41,0,60
2,note_on,29,0,0
2,note_on,27,68,60
2,note_on,39,81,0
2,note_on,39,0,60
2,note_on,27,0,0
2,note_on,32,64,60
2,note_on,44,77,0
2,note_on,44,0,60
2,note_on,32,0,0
2,note_on,31,68,60
2,note_on,43,80,0
2,note_on,43,0,60
2,note_on,31,0,0
2,note_on,29,70,60
2,note_on,41,83,0
2,note_on,41,0,60
2,note_on,29,0,0
2,note_on,27,73,60
2,note_on,39,86,0
2,note_on,39,0,60
2,note_on,27,0,0
2,note_on,32,74,60
2,note_on,44,89,0
2,note_on,44,0,240
2,note_on,32,0,0
2,note_on,36,65,480
2,note_on,43,65,0
2,note_on,48,77,0
2,note_on,48,0,49
2,note_on,43,0,0
2,note_on,36,0,0
2,note_on,36,61,60
2,note_on,43,61,0
2,note_on,48,72,0
2,note_on,48,0,60
2,note_on,43,0,0
2,note_on,36,0,0
2,note_on,36,65,60
2,note_on,43,65,0
2,note_on,48,77,0
2,note_on,48,0,120
2,note_on,43,0,0
2,note_on,36,0,0
2,note_on,36,60,120
2,note_on,43,60,0
2,note_on,48,71,0
2,note_on,48,0,120
2,note_on,43,0,0
2,note_on,36,0,0
2,note_on,36,60,60
2,note_on,43,60,30
2,note_on,48,71,30
2,note_on,48,0,240
2,note_on,43,0,0
2,note_on,36,0,0
2,note_on,36,60,169
2,note_on,43,60,30
2,note_on,48,71,17
2,note_on,48,0,240
2,note_on,43,0,0
2,note_on,36,0,0
2,note_on,39,60,97
2,note_on,46,71,34
2,note_on,46,0,240
2,note_on,39,0,0
2,note_on,32,67,199
2,note_on,44,79,0
2,note_on,44,0,155
2,note_on,32,0,0
