Track,Message Type,Note,Velocity,Time
1,note_on,70,49,960
1,note_on,70,0,480
1,note_on,70,48,0
1,note_on,70,0,160
1,note_on,58,37,0
1,note_on,58,0,160
1,note_on,67,37,0
1,note_on,67,0,160
1,note_on,75,52,0
1,note_on,75,0,160
1,note_on,63,39,0
1,note_on,63,0,160
1,note_on,70,40,0
1,note_on,70,0,160
1,note_on,79,56,0
1,note_on,79,0,160
1,note_on,67,41,0
1,note_on,67,0,160
1,note_on,75,44,0
1,note_on,75,0,160
1,note_on,82,63,0
1,note_on,82,0,160
1,note_on,70,49,0
1,note_on,70,0,160
1,note_on,79,50,0
1,note_on,79,0,160
1,note_on,87,68,0
1,note_on,87,0,160
1,note_on,75,52,0
1,note_on,75,0,160
1,note_on,82,55,0
1,note_on,82,0,160
1,note_on,91,71,0
1,note_on,91,0,160
1,note_on,79,54,0
1,note_on,79,0,160
1,note_on,82,57,0
1,note_on,82,0,160
1,note_on,89,75,0
1,note_on,89,0,160
1,note_on,74,58,0
1,note_on,74,0,160
1,note_on,80,56,0
1,note_on,80,0,160
1,note_on,87,72,0
1,note_on,87,0,160
1,note_on,75,56,0
1,note_on,75,0,160
1,note_on,80,55,0
1,note_on,80,0,160
1,note_on,84,68,0
1,note_on,84,0,160
1,note_on,72,51,0
1,note_on,72,0,160
1,note_on,80,49,0
1,note_on,80,0,160
1,note_on,84,70,0
1,note_on,84,0,160
1,note_on,72,51,0
1,note_on,72,0,160
1,note_on,79,46,0
1,note_on,79,0,160
1,note_on,82,62,0
1,note_on,82,0,160
1,note_on,70,43,0
1,note_on,70,0,160
1,note_on,75,43,0
1,note_on,75,0,160
1,note_on,79,60,0
1,note_on,79,0,160
1,note_on,67,43,0
1,note_on,67,0,160
1,note_on,70,41,0
1,note_on,70,0,160
1,note_on,75,53,0
1,note_on,75,0,160
1,note_on,63,38,0
1,note_on,63,0,160
1,note_on,69,38,0
1,note_on,69,0,160
1,note_on,74,54,0
1,note_on,74,0,160
1,note_on,62,44,0
1,note_on,62,0,160
1,note_on,69,48,0
1,note_on,69,0,160
1,note_on,75,64,0
1,note_on,75,0,160
1,note_on,63,51,0
1,note_on,63,0,160
1,note_on,69,55,0
1,note_on,69,0,160
1,note_on,79,70,0
1,note_on,79,0,160
1,note_on,67,55,0
1,note_on,67,0,160
1,note_on,70,53,0
1,note_on,70,0,160
1,note_on,77,65,0
1,note_on,77,0,160
1,note_on,65,49,0
1,note_on,65,0,160
1,note_on,70,47,0
1,note_on,70,0,160
1,note_on,74,63,0
1,note_on,74,0,160
1,note_on,62,42,0
1,note_on,62,0,160
1,note_on,65,41,0
1,note_on,65,0,160
1,note_on,75,53,0
1,note_on,75,0,160
1,note_on,63,38,0
1,note_on,63,0,160
1,note_on,69,38,0
1,note_on,69,0,160
1,note_on,74,54,0
1,note_on,74,0,160
1,note_on,62,44,0
1,note_on,62,0,160
1,note_on,69,47,0
1,note_on,69,0,160
1,note_on,75,59,0
1,note_on,75,0,160
1,note_on,63,50,0
1,note_on,63,0,160
1,note_on,69,54,0
1,note_on,69,0,160
1,note_on,79,67,0
1,note_on,79,0,160
1,note_on,67,49,0
1,note_on,67,0,160
1,note_on,72,48,0
1,note_on,72,0,160
1,note_on,77,60,0
1,note_on,77,0,160
1,note_on,65,43,0
1,note_on,65,0,160
1,note_on,68,42,0
1,note_on,68,0,160
1,note_on,72,58,0
1,note_on,72,0,160
1,note_on,60,42,0
1,note_on,60,0,160
1,note_on,65,41,0
1,note_on,65,0,160
1,note_on,70,53,0
1,note_on,70,0,160
1,note_on,58,38,0
1,note_on,58,0,160
1,note_on,67,37,0
1,note_on,67,0,160
1,note_on,75,52,0
1,note_on,75,0,160
1,note_on,63,39,0
1,note_on,63,0,160
1,note_on,70,40,0
1,note_on,70,0,160
1,note_on,79,56,0
1,note_on,79,0,160
1,note_on,67,41,0
1,note_on,67,0,160
1,note_on,75,44,0
1,note_on,75,0,160
1,note_on,82,69,0
1,note_on,82,0,160
1,note_on,70,49,0
1,note_on,70,0,160
1,note_on,79,50,0
1,note_on,79,0,160
1,note_on,87,74,0
1,note_on,87,0,160
1,note_on,75,52,0
1,note_on,75,0,160
1,note_on,82,55,0
1,note_on,82,0,160
1,note_on,91,77,0
1,note_on,91,0,160
1,note_on,79,63,0
1,note_on,79,0,160
1,note_on,82,68,0
1,note_on,82,0,160
1,note_on,89,81,0
1,note_on,89,0,160
1,note_on,74,64,0
1,note_on,74,0,160
1,note_on,80,61,0
1,note_on,80,0,160
1,note_on,87,75,0
1,note_on,87,0,160
1,note_on,75,56,0
1,note_on,75,0,160
1,note_on,80,55,0
1,note_on,80,0,160
1,note_on,84,67,0
1,note_on,84,0,160
1,note_on,72,51,0
1,note_on,72,0,160
1,note_on,80,49,0
1,note_on,80,0,160
1,note_on,84,70,0
1,note_on,84,0,160
1,note_on,72,42,0
1,note_on,72,0,160
1,note_on,79,43,0
1,note_on,79,0,160
1,note_on,82,62,0
1,note_on,82,0,160
1,note_on,70,43,0
1,note_on,70,0,160
1,note_on,75,43,0
1,note_on,75,0,160
1,note_on,79,60,0
1,note_on,79,0,160
1,note_on,67,43,0
1,note_on,67,0,160
1,note_on,75,41,0
1,note_on,75,0,160
1,note_on,78,57,0
1,note_on,78,0,160
1,note_on,66,38,0
1,note_on,66,0,160
1,note_on,75,37,0
1,note_on,75,0,160
1,note_on,77,53,0
1,note_on,77,0,160
1,note_on,65,39,0
1,note_on,65,0,160
1,note_on,75,40,0
1,note_on,75,0,160
1,note_on,78,59,0
1,note_on,78,0,160
1,note_on,66,41,0
1,note_on,66,0,160
1,note_on,75,44,0
1,note_on,75,0,160
1,note_on,79,63,0
1,note_on,79,0,160
1,note_on,67,42,0
1,note_on,67,0,160
1,note_on,74,42,0
1,note_on,74,0,160
1,note_on,81,67,0
1,note_on,81,0,160
1,note_on,69,47,0
1,note_on,69,0,160
1,note_on,74,52,0
1,note_on,74,0,160
1,note_on,82,70,0
1,note_on,82,0,160
1,note_on,70,51,0
1,note_on,70,0,160
1,note_on,74,55,0
1,note_on,74,0,160
1,note_on,84,75,0
1,note_on,84,0,160
1,note_on,72,55,0
1,note_on,72,0,160
1,note_on,77,55,0
1,note_on,77,0,160
1,note_on,86,72,0
1,note_on,86,0,160
1,note_on,74,54,0
1,note_on,74,0,160
1,note_on,77,48,0
1,note_on,77,0,160
1,note_on,81,67,0
1,note_on,81,0,160
1,note_on,69,48,0
1,note_on,69,0,160
1,note_on,77,50,0
1,note_on,77,0,160
1,note_on,84,68,0
1,note_on,84,0,160
1,note_on,72,52,0
1,note_on,72,0,160
1,note_on,77,48,0
1,note_on,77,0,160
1,note_on,82,67,0
1,note_on,82,0,160
1,note_on,70,43,0
1,note_on,70,0,160
1,note_on,77,42,0
1,note_on,77,0,160
1,note_on,77,65,0
1,note_on,77,0,160
1,note_on,65,42,0
1,note_on,65,0,160
1,note_on,70,41,0
1,note_on,70,0,160
1,note_on,77,59,0
1,note_on,77,0,160
1,note_on,65,47,0
1,note_on,65,0,160
1,note_on,71,41,0
1,note_on,71,0,160
1,note_on,75,54,0
1,note_on,75,0,160
1,note_on,63,41,0
1,note_on,63,0,160
1,note_on,70,43,0
1,note_on,70,0,160
1,note_on,77,64,0
1,note_on,77,0,160
1,note_on,61,44,0
1,note_on,61,0,160
1,note_on,68,47,0
1,note_on,68,0,160
1,note_on,80,70,0
1,note_on,80,0,160
1,note_on,61,53,0
1,note_on,61,0,160
1,note_on,70,52,0
1,note_on,70,0,160
1,note_on,78,67,0
1,note_on,78,0,160
1,note_on,61,43,0
1,note_on,61,0,160
1,note_on,70,42,0
1,note_on,70,0,160
1,note_on,73,62,0
1,note_on,73,0,160
1,note_on,61,42,0
1,note_on,61,0,160
1,note_on,70,41,0
1,note_on,70,0,160
1,note_on,77,53,0
1,note_on,77,0,160
1,note_on,61,38,0
1,note_on,61,0,160
1,note_on,71,38,0
1,note_on,71,0,160
1,note_on,75,54,0
1,note_on,75,0,160
1,note_on,61,41,0
1,note_on,61,0,160
1,note_on,70,43,0
1,note_on,70,0,160
1,note_on,77,59,0
1,note_on,77,0,160
1,note_on,61,49,0
1,note_on,61,0,160
1,note_on,68,47,0
1,note_on,68,0,160
1,note_on,80,69,0
1,note_on,80,0,160
1,note_on,61,51,0
1,note_on,61,0,160
1,note_on,70,50,0
1,note_on,70,0,160
1,note_on,78,67,0
1,note_on,78,0,160
1,note_on,61,43,0
1,note_on,61,0,160
1,note_on,70,42,0
1,note_on,70,0,160
1,note_on,73,62,0
1,note_on,73,0,160
1,note_on,61,42,0
1,note_on,61,0,160
1,note_on,70,41,0
1,note_on,70,0,160
1,note_on,76,58,0
1,note_on,76,0,160
1,note_on,64,38,0
1,note_on,64,0,160
1,note_on,70,38,0
1,note_on,70,0,160
1,note_on,82,63,0
1,note_on,82,0,160
1,note_on,64,44,0
1,note_on,64,0,160
1,note_on,73,45,0
1,note_on,73,0,160
1,note_on,85,68,0
1,note_on,85,0,160
1,note_on,70,48,0
1,note_on,70,0,160
1,note_on,76,51,0
1,note_on,76,0,160
1,note_on,86,76,0
1,note_on,86,0,160
1,note_on,70,53,0
1,note_on,70,0,160
1,note_on,77,52,0
1,note_on,77,0,160
1,note_on,87,72,0
1,note_on,87,0,160
1,note_on,70,43,0
1,note_on,70,0,160
1,note_on,79,43,0
1,note_on,79,0,160
1,note_on,83,66,0
1,note_on,83,0,160
1,note_on,68,53,0
1,note_on,68,0,160
1,note_on,74,54,0
1,note_on,74,0,160
1,note_on,84,71,0
1,note_on,84,0,160
1,note_on,69,55,0
1,note_on,69,0,160
1,note_on,75,52,0
1,note_on,75,0,160
1,note_on,86,70,0
1,note_on,86,0,160
1,note_on,69,51,0
1,note_on,69,0,160
1,note_on,77,47,0
1,note_on,77,0,160
1,note_on,81,62,0
1,note_on,81,0,160
1,note_on,69,42,0
1,note_on,69,0,160
1,note_on,72,43,0
1,note_on,72,0,160
1,note_on,84,70,0
1,note_on,84,0,160
1,note_on,65,48,0
1,note_on,65,0,160
1,note_on,75,47,0
1,note_on,75,0,160
1,note_on,82,65,0
1,note_on,82,0,160
1,note_on,65,43,0
1,note_on,65,0,160
1,note_on,74,42,0
1,note_on,74,0,160
1,note_on,77,59,0
1,note_on,77,0,160
1,note_on,65,42,0
1,note_on,65,0,160
1,note_on,70,41,0
1,note_on,70,0,160
1,note_on,77,57,0
1,note_on,77,0,160
1,note_on,65,38,0
1,note_on,65,0,160
1,note_on,71,38,0
1,note_on,71,0,160
1,note_on,75,59,0
1,note_on,75,0,160
1,note_on,63,45,0
1,note_on,63,0,160
1,note_on,70,47,0
1,note_on,70,0,160
1,note_on,77,66,0
1,note_on,77,0,160
1,note_on,61,53,0
1,note_on,61,0,160
1,note_on,68,56,0
1,note_on,68,0,160
1,note_on,80,71,0
1,note_on,80,0,160
1,note_on,61,53,0
1,note_on,61,0,160
1,note_on,70,52,0
1,note_on,70,0,160
1,note_on,78,66,0
1,note_on,78,0,160
1,note_on,61,49,0
1,note_on,61,0,160
1,note_on,70,46,0
1,note_on,70,0,160
1,note_on,73,59,0
1,note_on,73,0,160
1,note_on,61,42,0
1,note_on,61,0,160
1,note_on,70,41,0
1,note_on,70,0,160
1,note_on,77,56,0
1,note_on,77,0,160
1,note_on,61,38,0
1,note_on,61,0,160
1,note_on,71,38,0
1,note_on,71,0,160
1,note_on,75,56,0
1,note_on,75,0,160
1,note_on,61,43,0
1,note_on,61,0,160
1,note_on,70,47,0
1,note_on,70,0,160
1,note_on,77,66,0
1,note_on,77,0,160
1,note_on,61,49,0
1,note_on,61,0,160
1,note_on,68,54,0
1,note_on,68,0,160
1,note_on,80,72,0
1,note_on,80,0,160
1,note_on,61,53,0
1,note_on,61,0,160
1,note_on,70,52,0
1,note_on,70,0,160
1,note_on,78,68,0
1,note_on,78,0,160
1,note_on,61,43,0
1,note_on,61,0,160
1,note_on,70,42,0
1,note_on,70,0,160
1,note_on,77,63,0
1,note_on,77,0,160
1,note_on,61,42,0
1,note_on,61,0,160
1,note_on,70,41,0
1,note_on,70,0,160
1,note_on,76,60,0
1,note_on,76,0,160
1,note_on,61,43,0
1,note_on,61,0,160
1,note_on,70,43,0
1,note_on,70,0,160
1,note_on,79,67,0
1,note_on,79,0,160
1,note_on,64,44,0
1,note_on,64,0,160
1,note_on,73,46,0
1,note_on,73,0,160
1,note_on,78,63,0
1,note_on,78,0,160
1,note_on,63,46,0
1,note_on,63,0,160
1,note_on,72,49,0
1,note_on,72,0,160
1,note_on,81,72,0
1,note_on,81,0,160
1,note_on,66,47,0
1,note_on,66,0,160
1,note_on,75,46,0
1,note_on,75,0,160
1,note_on,80,71,0
1,note_on,80,0,160
1,note_on,65,48,0
1,note_on,65,0,160
1,note_on,74,49,0
1,note_on,74,0,160
1,note_on,83,77,0
1,note_on,83,0,160
1,note_on,68,51,0
1,note_on,68,0,160
1,note_on,77,53,0
1,note_on,77,0,160
1,note_on,82,74,0
1,note_on,82,0,160
1,note_on,67,58,0
1,note_on,67,0,160
1,note_on,76,63,0
1,note_on,76,0,160
1,note_on,85,88,0
1,note_on,85,0,160
1,note_on,70,66,0
1,note_on,70,0,160
1,note_on,79,68,0
1,note_on,79,0,160
1,note_on,84,84,0
1,note_on,84,0,160
1,note_on,69,68,0
1,note_on,69,0,160
1,note_on,78,66,0
1,note_on,78,0,160
1,note_on,87,94,0
1,note_on,87,0,160
1,note_on,72,69,0
1,note_on,72,0,160
1,note_on,81,70,0
1,note_on,81,0,160
1,note_on,86,88,0
1,note_on,86,0,160
1,note_on,71,63,0
1,note_on,71,0,160
1,note_on,80,64,0
1,note_on,80,0,160
1,note_on,89,85,0
1,note_on,89,0,240
1,note_on,70,48,240
1,note_on,70,0,160
1,note_on,58,37,0
1,note_on,58,0,160
1,note_on,67,37,0
1,note_on,67,0,160
1,note_on,75,52,0
1,note_on,75,0,160
1,note_on,63,42,0
1,note_on,63,0,160
1,note_on,70,44,0
1,note_on,70,0,160
1,note_on,79,61,0
1,note_on,79,0,160
1,note_on,67,51,0
1,note_on,67,0,160
1,note_on,75,54,0
1,note_on,75,0,160
1,note_on,82,66,0
1,note_on,82,0,160
1,note_on,70,57,0
1,note_on,70,0,160
1,note_on,79,57,0
1,note_on,79,0,160
1,note_on,87,74,0
1,note_on,87,0,160
1,note_on,75,59,0
1,note_on,75,0,160
1,note_on,82,62,0
1,note_on,82,0,160
1,note_on,91,73,0
1,note_on,91,0,160
1,note_on,79,60,0
1,note_on,79,0,160
1,note_on,82,65,0
1,note_on,82,0,160
1,note_on,89,79,0
1,note_on,89,0,160
1,note_on,74,58,0
1,note_on,74,0,160
1,note_on,80,52,0
1,note_on,80,0,160
1,note_on,87,76,0
1,note_on,87,0,160
1,note_on,75,56,0
1,note_on,75,0,160
1,note_on,80,51,0
1,note_on,80,0,160
1,note_on,84,70,0
1,note_on,84,0,160
1,note_on,72,51,0
1,note_on,72,0,160
1,note_on,80,49,0
1,note_on,80,0,160
1,note_on,84,70,0
1,note_on,84,0,160
1,note_on,72,42,0
1,note_on,72,0,160
1,note_on,79,43,0
1,note_on,79,0,160
1,note_on,82,62,0
1,note_on,82,0,160
1,note_on,70,43,0
1,note_on,70,0,160
1,note_on,75,43,0
1,note_on,75,0,160
1,note_on,79,60,0
1,note_on,79,0,160
1,note_on,67,43,0
1,note_on,67,0,160
1,note_on,70,41,0
1,note_on,70,0,160
1,note_on,75,53,0
1,note_on,75,0,160
1,note_on,63,38,0
1,note_on,63,0,160
1,note_on,69,38,0
1,note_on,69,0,160
1,note_on,74,54,0
1,note_on,74,0,160
1,note_on,62,41,0
1,note_on,62,0,160
1,note_on,69,43,0
1,note_on,69,0,160
1,note_on,75,64,0
1,note_on,75,0,160
1,note_on,63,51,0
1,note_on,63,0,160
1,note_on,69,57,0
1,note_on,69,0,160
1,note_on,79,71,0
1,note_on,79,0,160
1,note_on,67,51,0
1,note_on,67,0,160
1,note_on,70,51,0
1,note_on,70,0,160
1,note_on,77,67,0
1,note_on,77,0,160
1,note_on,65,43,0
1,note_on,65,0,160
1,note_on,70,42,0
1,note_on,70,0,160
1,note_on,74,63,0
1,note_on,74,0,160
1,note_on,62,42,0
1,note_on,62,0,160
1,note_on,65,41,0
1,note_on,65,0,160
1,note_on,75,53,0
1,note_on,75,0,160
1,note_on,63,38,0
1,note_on,63,0,160
1,note_on,69,38,0
1,note_on,69,0,160
1,note_on,74,54,0
1,note_on,74,0,160
1,note_on,62,41,0
1,note_on,62,0,160
1,note_on,69,43,0
1,note_on,69,0,160
1,note_on,75,65,0
1,note_on,75,0,160
1,note_on,63,51,0
1,note_on,63,0,160
1,note_on,69,58,0
1,note_on,69,0,160
1,note_on,79,71,0
1,note_on,79,0,160
1,note_on,67,54,0
1,note_on,67,0,160
1,note_on,72,51,0
1,note_on,72,0,160
1,note_on,77,60,0
1,note_on,77,0,160
1,note_on,65,43,0
1,note_on,65,0,160
1,note_on,68,42,0
1,note_on,68,0,160
1,note_on,72,58,0
1,note_on,72,0,160
1,note_on,60,42,0
1,note_on,60,0,160
1,note_on,65,41,0
1,note_on,65,0,160
1,note_on,70,53,0
1,note_on,70,0,160
1,note_on,58,38,0
1,note_on,58,0,160
1,note_on,67,37,0
1,note_on,67,0,160
1,note_on,75,51,0
1,note_on,75,0,160
1,note_on,63,38,0
1,note_on,63,0,160
1,note_on,70,40,0
1,note_on,70,0,160
1,note_on,79,54,0
1,note_on,79,0,160
1,note_on,67,40,0
1,note_on,67,0,160
1,note_on,75,43,0
1,note_on,75,0,160
1,note_on,82,65,0
1,note_on,82,0,160
1,note_on,70,47,0
1,note_on,70,0,160
1,note_on,79,47,0
1,note_on,79,0,160
1,note_on,87,70,0
1,note_on,87,0,160
1,note_on,75,49,0
1,note_on,75,0,160
1,note_on,82,51,0
1,note_on,82,0,160
1,note_on,91,73,0
1,note_on,91,0,160
1,note_on,79,51,0
1,note_on,79,0,160
1,note_on,82,53,0
1,note_on,82,0,160
1,note_on,90,81,0
1,note_on,90,0,160
1,note_on,75,57,0
1,note_on,75,0,160
1,note_on,81,59,0
1,note_on,81,0,160
1,note_on,89,77,0
1,note_on,89,0,160
1,note_on,74,57,0
1,note_on,74,0,160
1,note_on,80,58,0
1,note_on,80,0,160
1,note_on,88,76,0
1,note_on,88,0,160
1,note_on,73,52,0
1,note_on,73,0,160
1,note_on,79,51,0
1,note_on,79,0,160
1,note_on,87,84,0
1,note_on,87,0,160
1,note_on,72,53,0
1,note_on,72,0,160
1,note_on,78,53,0
1,note_on,78,0,160
1,note_on,86,75,0
1,note_on,86,0,160
1,note_on,71,52,0
1,note_on,71,0,160
1,note_on,77,48,0
1,note_on,77,0,160
1,note_on,85,70,0
1,note_on,85,0,160
1,note_on,73,52,0
1,note_on,73,0,160
1,note_on,79,51,0
1,note_on,79,0,160
1,note_on,84,74,0
1,note_on,84,0,160
1,note_on,72,50,0
1,note_on,72,0,160
1,note_on,77,49,0
1,note_on,77,0,160
1,note_on,86,79,0
1,note_on,86,0,160
1,note_on,72,56,0
1,note_on,72,0,160
1,note_on,77,58,0
1,note_on,77,0,160
1,note_on,87,86,0
1,note_on,87,0,160
1,note_on,72,61,0
1,note_on,72,0,160
1,note_on,77,65,0
1,note_on,77,0,160
1,note_on,89,89,0
1,note_on,89,0,160
1,note_on,77,62,0
1,note_on,77,0,160
1,note_on,84,63,0
1,note_on,84,0,160
1,note_on,91,80,0
1,note_on,91,0,160
1,note_on,79,50,0
1,note_on,79,0,160
1,note_on,84,51,0
1,note_on,84,0,160
1,note_on,89,75,0
1,note_on,89,0,160
1,note_on,77,47,0
1,note_on,77,0,160
1,note_on,80,48,0
1,note_on,80,0,160
1,note_on,84,70,0
1,note_on,84,0,160
1,note_on,72,51,0
1,note_on,72,0,160
1,note_on,77,50,0
1,note_on,77,0,160
1,note_on,86,68,0
1,note_on,86,0,160
1,note_on,74,53,0
1,note_on,74,0,160
1,note_on,77,49,0
1,note_on,77,0,160
1,note_on,84,61,0
1,note_on,84,0,160
1,note_on,72,44,0
1,note_on,72,0,160
1,note_on,77,46,0
1,note_on,77,0,160
1,note_on,77,57,0
1,note_on,77,0,160
1,note_on,65,42,0
1,note_on,65,0,160
1,note_on,72,41,0
1,note_on,72,0,160
1,note_on,79,55,0
1,note_on,79,0,160
1,note_on,65,44,0
1,note_on,65,0,160
1,note_on,72,44,0
1,note_on,72,0,160
1,note_on,74,50,0
1,note_on,74,0,160
1,note_on,62,36,0
1,note_on,62,0,160
1,note_on,70,37,0
1,note_on,70,0,160
1,note_on,75,52,0
1,note_on,75,0,160
1,note_on,63,40,0
1,note_on,63,0,160
1,note_on,70,41,0
1,note_on,70,0,160
1,note_on,82,61,0
1,note_on,82,0,160
1,note_on,67,44,0
1,note_on,67,0,160
1,note_on,75,47,0
1,note_on,75,0,160
1,note_on,83,68,0
1,note_on,83,0,160
1,note_on,67,48,0
1,note_on,67,0,160
1,note_on,75,51,0
1,note_on,75,0,160
1,note_on,82,68,0
1,note_on,82,0,160
1,note_on,68,51,0
1,note_on,68,0,160
1,note_on,74,49,0
1,note_on,74,0,160
1,note_on,81,69,0
1,note_on,81,0,160
1,note_on,68,49,0
1,note_on,68,0,160
1,note_on,74,46,0
1,note_on,74,0,160
1,note_on,80,63,0
1,note_on,80,0,160
1,note_on,68,45,0
1,note_on,68,0,160
1,note_on,74,40,0
1,note_on,74,0,160
1,note_on,79,52,0
1,note_on,79,0,160
1,note_on,67,40,0
1,note_on,67,0,160
1,note_on,75,41,0
1,note_on,75,0,160
1,note_on,82,61,0
1,note_on,82,0,160
1,note_on,67,44,0
1,note_on,67,0,160
1,note_on,75,47,0
1,note_on,75,0,160
1,note_on,84,67,0
1,note_on,84,0,160
1,note_on,67,48,0
1,note_on,67,0,160
1,note_on,75,51,0
1,note_on,75,0,160
1,note_on,82,69,0
1,note_on,82,0,160
1,note_on,68,51,0
1,note_on,68,0,160
1,note_on,74,49,0
1,note_on,74,0,160
1,note_on,81,62,0
1,note_on,81,0,160
1,note_on,68,49,0
1,note_on,68,0,160
1,note_on,74,46,0
1,note_on,74,0,160
1,note_on,80,55,0
1,note_on,80,0,160
1,note_on,68,45,0
1,note_on,68,0,160
1,note_on,74,40,0
1,note_on,74,0,160
1,note_on,79,52,0
1,note_on,79,0,160
1,note_on,67,40,0
1,note_on,67,0,160
1,note_on,75,42,0
1,note_on,75,0,160
1,note_on,82,65,0
1,note_on,82,0,160
1,note_on,67,48,0
1,note_on,67,0,160
1,note_on,79,50,0
1,note_on,79,0,160
1,note_on,87,75,0
1,note_on,87,0,160
1,note_on,75,54,0
1,note_on,75,0,160
1,note_on,82,58,0
1,note_on,82,0,160
1,note_on,91,82,0
1,note_on,91,0,160
1,note_on,74,59,0
1,note_on,74,0,160
1,note_on,83,56,0
1,note_on,83,0,160
1,note_on,89,74,0
1,note_on,89,0,160
1,note_on,74,55,0
1,note_on,74,0,160
1,note_on,79,53,0
1,note_on,79,0,160
1,note_on,87,71,0
1,note_on,87,0,160
1,note_on,72,52,0
1,note_on,72,0,160
1,note_on,79,51,0
1,note_on,79,0,160
1,note_on,87,75,0
1,note_on,87,0,160
1,note_on,72,57,0
1,note_on,72,0,160
1,note_on,78,51,0
1,note_on,78,0,160
1,note_on,86,70,0
1,note_on,86,0,160
1,note_on,71,51,0
1,note_on,71,0,160
1,note_on,78,50,0
1,note_on,78,0,160
1,note_on,84,65,0
1,note_on,84,0,160
1,note_on,72,45,0
1,note_on,72,0,160
1,note_on,78,44,0
1,note_on,78,0,160
1,note_on,84,61,0
1,note_on,84,0,160
1,note_on,68,46,0
1,note_on,68,0,160
1,note_on,77,45,0
1,note_on,77,0,160
1,note_on,82,58,0
1,note_on,82,0,160
1,note_on,67,44,0
1,note_on,67,0,160
1,note_on,72,43,0
1,note_on,72,0,160
1,note_on,80,55,0
1,note_on,80,0,160
1,note_on,65,43,0
1,note_on,65,0,160
1,note_on,74,39,0
1,note_on,74,0,160
1,note_on,79,52,0
1,note_on,79,0,160
1,note_on,63,40,0
1,note_on,63,0,160
1,note_on,75,41,0
1,note_on,75,0,160
1,note_on,82,61,0
1,note_on,82,0,160
1,note_on,67,49,0
1,note_on,67,0,160
1,note_on,75,51,0
1,note_on,75,0,160
1,note_on,83,69,0
1,note_on,83,0,160
1,note_on,67,55,0
1,note_on,67,0,160
1,note_on,75,52,0
1,note_on,75,0,160
1,note_on,82,68,0
1,note_on,82,0,160
1,note_on,68,51,0
1,note_on,68,0,160
1,note_on,74,49,0
1,note_on,74,0,160
1,note_on,81,65,0
1,note_on,81,0,160
1,note_on,68,49,0
1,note_on,68,0,160
1,note_on,74,46,0
1,note_on,74,0,160
1,note_on,80,63,0
1,note_on,80,0,160
1,note_on,68,45,0
1,note_on,68,0,160
1,note_on,74,40,0
1,note_on,74,0,160
1,note_on,79,52,0
1,note_on,79,0,160
1,note_on,67,40,0
1,note_on,67,0,160
1,note_on,75,41,0
1,note_on,75,0,160
1,note_on,82,61,0
1,note_on,82,0,160
1,note_on,67,44,0
1,note_on,67,0,160
1,note_on,75,47,0
1,note_on,75,0,160
1,note_on,84,67,0
1,note_on,84,0,160
1,note_on,67,48,0
1,note_on,67,0,160
1,note_on,75,51,0
1,note_on,75,0,160
1,note_on,82,66,0
1,note_on,82,0,160
1,note_on,68,51,0
1,note_on,68,0,160
1,note_on,74,49,0
1,note_on,74,0,160
1,note_on,81,62,0
1,note_on,81,0,160
1,note_on,68,49,0
1,note_on,68,0,160
1,note_on,74,46,0
1,note_on,74,0,160
1,note_on,80,55,0
1,note_on,80,0,160
1,note_on,68,45,0
1,note_on,68,0,160
1,note_on,74,40,0
1,note_on,74,0,160
1,note_on,79,52,0
1,note_on,79,0,160
1,note_on,67,40,0
1,note_on,67,0,160
1,note_on,75,42,0
1,note_on,75,0,160
1,note_on,82,65,0
1,note_on,82,0,160
1,note_on,70,48,0
1,note_on,70,0,160
1,note_on,79,50,0
1,note_on,79,0,160
1,note_on,87,75,0
1,note_on,87,0,160
1,note_on,75,54,0
1,note_on,75,0,160
1,note_on,82,58,0
1,note_on,82,0,160
1,note_on,91,69,0
1,note_on,91,0,160
1,note_on,74,54,0
1,note_on,74,0,160
1,note_on,83,53,0
1,note_on,83,0,160
1,note_on,89,68,0
1,note_on,89,0,160
1,note_on,74,55,0
1,note_on,74,0,160
1,note_on,83,56,0
1,note_on,83,0,160
1,note_on,88,73,0
1,note_on,88,0,160
1,note_on,74,59,0
1,note_on,74,0,160
1,note_on,83,58,0
1,note_on,83,0,160
1,note_on,88,76,0
1,note_on,88,0,160
1,note_on,73,54,0
1,note_on,73,0,160
1,note_on,81,51,0
1,note_on,81,0,160
1,note_on,87,70,0
1,note_on,87,0,160
1,note_on,72,53,0
1,note_on,72,0,160
1,note_on,81,53,0
1,note_on,81,0,160
1,note_on,84,66,0
1,note_on,84,0,160
1,note_on,69,47,0
1,note_on,69,0,160
1,note_on,75,47,0
1,note_on,75,0,160
1,note_on,84,65,0
1,note_on,84,0,160
1,note_on,69,48,0
1,note_on,69,0,160
1,note_on,75,47,0
1,note_on,75,0,160
1,note_on,82,60,0
1,note_on,82,0,160
1,note_on,70,45,0
1,note_on,70,0,160
1,note_on,75,43,0
1,note_on,75,0,160
1,note_on,74,55,0
1,note_on,74,0,160
1,note_on,62,43,0
1,note_on,62,0,160
1,note_on,70,39,0
1,note_on,70,0,160
1,note_on,75,52,0
1,note_on,75,0,160
1,note_on,63,40,0
1,note_on,63,0,160
1,note_on,70,40,0
1,note_on,70,0,160
1,note_on,82,66,0
1,note_on,82,0,160
1,note_on,63,45,0
1,note_on,63,0,160
1,note_on,70,45,0
1,note_on,70,0,160
1,note_on,75,62,0
1,note_on,75,0,160
1,note_on,63,44,0
1,note_on,63,0,160
1,note_on,70,46,0
1,note_on,70,0,160
1,note_on,81,71,0
1,note_on,81,0,160
1,note_on,63,52,0
1,note_on,63,0,160
1,note_on,70,52,0
1,note_on,70,0,160
1,note_on,75,67,0
1,note_on,75,0,160
1,note_on,63,49,0
1,note_on,63,0,160
1,note_on,70,48,0
1,note_on,70,0,160
1,note_on,80,75,0
1,note_on,80,0,160
1,note_on,63,55,0
1,note_on,63,0,160
1,note_on,70,52,0
1,note_on,70,0,160
1,note_on,75,69,0
1,note_on,75,0,160
1,note_on,63,49,0
1,note_on,63,0,160
1,note_on,70,49,0
1,note_on,70,0,160
1,note_on,79,76,0
1,note_on,79,0,160
1,note_on,63,52,0
1,note_on,63,0,160
1,note_on,70,52,0
1,note_on,70,0,160
1,note_on,75,65,0
1,note_on,75,0,160
1,note_on,63,49,0
1,note_on,63,0,160
1,note_on,70,52,0
1,note_on,70,0,160
1,note_on,78,71,0
1,note_on,78,0,160
1,note_on,63,53,0
1,note_on,63,0,160
1,note_on,70,52,0
1,note_on,70,0,160
1,note_on,75,64,0
1,note_on,75,0,160
1,note_on,63,45,0
1,note_on,63,0,160
1,note_on,70,43,0
1,note_on,70,0,160
1,note_on,79,63,0
1,note_on,79,0,160
1,note_on,63,46,0
1,note_on,63,0,160
1,note_on,70,41,0
1,note_on,70,0,160
1,note_on,75,54,0
1,note_on,75,0,480
1,note_on,94,87,960
1,note_on,99,102,0
1,note_on,87,87,0
1,note_on,87,0,480
1,note_on,99,0,0
1,note_on,94,0,0
1,note_on,67,98,960
1,note_on,55,81,0
1,note_on,58,81,0
1,note_on,63,98,0
1,note_on,63,0,1440
1,note_on,67,0,0
1,note_on,55,0,0
1,note_on,58,0,0
2,note_on,39,36,1440
2,note_on,39,0,96
2,note_on,55,28,0
2,note_on,55,0,160
2,note_on,46,28,0
2,note_on,46,0,160
2,note_on,39,33,0
2,note_on,39,0,160
2,note_on,55,29,0
2,note_on,55,0,160
2,note_on,46,30,0
2,note_on,46,0,160
2,note_on,39,36,0
2,note_on,39,0,160
2,note_on,58,32,0
2,note_on,58,0,160
2,note_on,46,32,0
2,note_on,46,0,160
2,note_on,39,41,0
2,note_on,39,0,160
2,note_on,63,33,0
2,note_on,63,0,160
2,note_on,55,34,0
2,note_on,55,0,160
2,note_on,46,42,0
2,note_on,46,0,160
2,note_on,67,35,0
2,note_on,67,0,160
2,note_on,58,37,0
2,note_on,58,0,160
2,note_on,51,47,0
2,note_on,51,0,160
2,note_on,70,39,0
2,note_on,70,0,160
2,note_on,58,45,0
2,note_on,58,0,160
2,note_on,51,55,0
2,note_on,51,0,103
2,note_on,71,39,0
2,note_on,71,0,160
2,note_on,59,38,0
2,note_on,59,0,160
2,note_on,51,49,0
2,note_on,51,0,114
2,note_on,72,38,0
2,note_on,72,0,160
2,note_on,60,36,0
2,note_on,60,0,160
2,note_on,51,41,0
2,note_on,51,0,80
2,note_on,68,33,0
2,note_on,68,0,160
2,note_on,62,32,0
2,note_on,62,0,160
2,note_on,51,46,0
2,note_on,51,0,89
2,note_on,67,36,0
2,note_on,67,0,160
2,note_on,63,32,0
2,note_on,63,0,160
2,note_on,58,39,0
2,note_on,58,0,61
2,note_on,67,30,0
2,note_on,67,0,160
2,note_on,63,30,0
2,note_on,63,0,160
2,note_on,51,35,0
2,note_on,51,0,160
2,note_on,63,29,0
2,note_on,63,0,160
2,note_on,55,29,0
2,note_on,55,0,160
2,note_on,41,36,0
2,note_on,41,0,103
2,note_on,60,28,0
2,note_on,60,0,160
2,note_on,53,29,0
2,note_on,53,0,160
2,note_on,48,34,0
2,note_on,48,0,114
2,note_on,60,30,0
2,note_on,60,0,160
2,note_on,53,32,0
2,note_on,53,0,160
2,note_on,41,41,0
2,note_on,41,0,103
2,note_on,60,37,0
2,note_on,60,0,160
2,note_on,53,42,0
2,note_on,53,0,160
2,note_on,46,50,0
2,note_on,46,0,104
2,note_on,63,35,0
2,note_on,63,0,160
2,note_on,53,35,0
2,note_on,53,0,160
2,note_on,50,43,0
2,note_on,50,0,75
2,note_on,62,36,0
2,note_on,62,0,160
2,note_on,53,34,0
2,note_on,53,0,160
2,note_on,46,39,0
2,note_on,46,0,160
2,note_on,58,34,0
2,note_on,58,0,160
2,note_on,53,33,0
2,note_on,53,0,160
2,note_on,41,36,0
2,note_on,41,0,103
2,note_on,60,28,0
2,note_on,60,0,160
2,note_on,53,29,0
2,note_on,53,0,160
2,note_on,48,34,0
2,note_on,48,0,114
2,note_on,59,30,0
2,note_on,59,0,160
2,note_on,53,32,0
2,note_on,53,0,160
2,note_on,41,38,0
2,note_on,41,0,103
2,note_on,60,34,0
2,note_on,60,0,160
2,note_on,53,35,0
2,note_on,53,0,160
2,note_on,46,49,0
2,note_on,46,0,104
2,note_on,63,35,0
2,note_on,63,0,160
2,note_on,56,35,0
2,note_on,56,0,160
2,note_on,53,43,0
2,note_on,53,0,160
2,note_on,62,35,0
2,note_on,62,0,160
2,note_on,53,34,0
2,note_on,53,0,160
2,note_on,46,39,0
2,note_on,46,0,26
2,note_on,56,33,0
2,note_on,56,0,160
2,note_on,50,32,0
2,note_on,50,0,160
2,note_on,39,36,0
2,note_on,39,0,40
2,note_on,55,28,0
2,note_on,55,0,160
2,note_on,46,28,0
2,note_on,46,0,160
2,note_on,39,33,0
2,note_on,39,0,160
2,note_on,55,29,0
2,note_on,55,0,160
2,note_on,46,30,0
2,note_on,46,0,160
2,note_on,39,36,0
2,note_on,39,0,160
2,note_on,58,32,0
2,note_on,58,0,160
2,note_on,46,32,0
2,note_on,46,0,160
2,note_on,39,40,0
2,note_on,39,0,160
2,note_on,63,33,0
2,note_on,63,0,160
2,note_on,55,34,0
2,note_on,55,0,160
2,note_on,46,42,0
2,note_on,46,0,160
2,note_on,67,35,0
2,note_on,67,0,160
2,note_on,58,37,0
2,note_on,58,0,160
2,note_on,51,50,0
2,note_on,51,0,160
2,note_on,70,39,0
2,note_on,70,0,160
2,note_on,58,44,0
2,note_on,58,0,160
2,note_on,51,54,0
2,note_on,51,0,103
2,note_on,71,39,0
2,note_on,71,0,160
2,note_on,59,38,0
2,note_on,59,0,160
2,note_on,51,49,0
2,note_on,51,0,80
2,note_on,72,38,0
2,note_on,72,0,160
2,note_on,60,36,0
2,note_on,60,0,160
2,note_on,51,41,0
2,note_on,51,0,80
2,note_on,68,33,0
2,note_on,68,0,160
2,note_on,62,32,0
2,note_on,62,0,160
2,note_on,51,46,0
2,note_on,51,0,89
2,note_on,67,30,0
2,note_on,67,0,160
2,note_on,63,31,0
2,note_on,63,0,160
2,note_on,58,39,0
2,note_on,58,0,61
2,note_on,67,30,0
2,note_on,67,0,160
2,note_on,63,30,0
2,note_on,63,0,160
2,note_on,51,35,0
2,note_on,51,0,160
2,note_on,63,29,0
2,note_on,63,0,160
2,note_on,55,29,0
2,note_on,55,0,160
2,note_on,47,36,0
2,note_on,47,0,103
2,note_on,63,28,0
2,note_on,63,0,160
2,note_on,57,28,0
2,note_on,57,0,160
2,note_on,51,33,0
2,note_on,51,0,97
2,note_on,63,29,0
2,note_on,63,0,160
2,note_on,57,30,0
2,note_on,57,0,160
2,note_on,47,36,0
2,note_on,47,0,103
2,note_on,63,32,0
2,note_on,63,0,160
2,note_on,57,32,0
2,note_on,57,0,160
2,note_on,46,40,0
2,note_on,46,0,103
2,note_on,62,31,0
2,note_on,62,0,160
2,note_on,55,32,0
2,note_on,55,0,160
2,note_on,45,38,0
2,note_on,45,0,85
2,note_on,62,32,0
2,note_on,62,0,160
2,note_on,54,34,0
2,note_on,54,0,160
2,note_on,43,45,0
2,note_on,43,0,103
2,note_on,62,36,0
2,note_on,62,0,160
2,note_on,55,40,0
2,note_on,55,0,160
2,note_on,41,54,0
2,note_on,41,0,103
2,note_on,70,42,0
2,note_on,70,0,160
2,note_on,63,45,0
2,note_on,63,0,160
2,note_on,53,52,0
2,note_on,53,0,160
2,note_on,70,42,0
2,note_on,70,0,160
2,note_on,63,35,0
2,note_on,63,0,160
2,note_on,60,42,0
2,note_on,60,0,103
2,note_on,65,37,0
2,note_on,65,0,160
2,note_on,63,37,0
2,note_on,63,0,160
2,note_on,46,50,0
2,note_on,46,0,104
2,note_on,63,36,0
2,note_on,63,0,160
2,note_on,53,37,0
2,note_on,53,0,160
2,note_on,46,43,0
2,note_on,46,0,75
2,note_on,62,36,0
2,note_on,62,0,160
2,note_on,53,34,0
2,note_on,53,0,160
2,note_on,46,39,0
2,note_on,46,0,26
2,note_on,61,34,0
2,note_on,61,0,160
2,note_on,53,33,0
2,note_on,53,0,160
2,note_on,44,36,0
2,note_on,44,0,103
2,note_on,59,28,0
2,note_on,59,0,160
2,note_on,53,29,0
2,note_on,53,0,160
2,note_on,49,34,0
2,note_on,49,0,160
2,note_on,59,30,0
2,note_on,59,0,160
2,note_on,53,32,0
2,note_on,53,0,160
2,note_on,37,38,0
2,note_on,37,0,103
2,note_on,59,34,0
2,note_on,59,0,160
2,note_on,53,35,0
2,note_on,53,0,160
2,note_on,42,49,0
2,note_on,42,0,104
2,note_on,58,35,0
2,note_on,58,0,160
2,note_on,54,35,0
2,note_on,54,0,160
2,note_on,49,43,0
2,note_on,49,0,160
2,note_on,58,36,0
2,note_on,58,0,160
2,note_on,54,34,0
2,note_on,54,0,160
2,note_on,42,39,0
2,note_on,42,0,69
2,note_on,58,34,0
2,note_on,58,0,160
2,note_on,49,33,0
2,note_on,49,0,160
2,note_on,37,36,0
2,note_on,37,0,89
2,note_on,59,28,0
2,note_on,59,0,160
2,note_on,53,29,0
2,note_on,53,0,160
2,note_on,44,34,0
2,note_on,44,0,160
2,note_on,59,30,0
2,note_on,59,0,160
2,note_on,53,32,0
2,note_on,53,0,160
2,note_on,37,38,0
2,note_on,37,0,160
2,note_on,59,34,0
2,note_on,59,0,160
2,note_on,53,35,0
2,note_on,53,0,160
2,note_on,42,50,0
2,note_on,42,0,104
2,note_on,58,35,0
2,note_on,58,0,160
2,note_on,54,35,0
2,note_on,54,0,160
2,note_on,49,43,0
2,note_on,49,0,160
2,note_on,58,36,0
2,note_on,58,0,160
2,note_on,54,34,0
2,note_on,54,0,160
2,note_on,42,39,0
2,note_on,42,0,160
2,note_on,58,34,0
2,note_on,58,0,160
2,note_on,49,33,0
2,note_on,49,0,160
2,note_on,42,36,0
2,note_on,42,0,103
2,note_on,58,28,0
2,note_on,58,0,160
2,note_on,49,29,0
2,note_on,49,0,160
2,note_on,42,38,0
2,note_on,42,0,160
2,note_on,61,30,0
2,note_on,61,0,160
2,note_on,54,32,0
2,note_on,54,0,160
2,note_on,42,42,0
2,note_on,42,0,160
2,note_on,64,34,0
2,note_on,64,0,160
2,note_on,58,36,0
2,note_on,58,0,160
2,note_on,41,49,0
2,note_on,41,0,103
2,note_on,65,36,0
2,note_on,65,0,160
2,note_on,58,35,0
2,note_on,58,0,160
2,note_on,53,38,0
2,note_on,53,0,80
2,note_on,67,32,0
2,note_on,67,0,160
2,note_on,58,32,0
2,note_on,58,0,160
2,note_on,53,39,0
2,note_on,53,0,103
2,note_on,65,33,0
2,note_on,65,0,160
2,note_on,59,33,0
2,note_on,59,0,160
2,note_on,53,48,0
2,note_on,53,0,103
2,note_on,65,35,0
2,note_on,65,0,160
2,note_on,60,37,0
2,note_on,60,0,160
2,note_on,53,45,0
2,note_on,53,0,80
2,note_on,65,38,0
2,note_on,65,0,160
2,note_on,63,30,0
2,note_on,63,0,160
2,note_on,53,37,0
2,note_on,53,0,103
2,note_on,63,32,0
2,note_on,63,0,160
2,note_on,57,31,0
2,note_on,57,0,160
2,note_on,46,50,0
2,note_on,46,0,104
2,note_on,63,36,0
2,note_on,63,0,160
2,note_on,53,37,0
2,note_on,53,0,160
2,note_on,46,43,0
2,note_on,46,0,68
2,note_on,62,36,0
2,note_on,62,0,160
2,note_on,53,34,0
2,note_on,53,0,160
2,note_on,46,39,0
2,note_on,46,0,80
2,note_on,61,34,0
2,note_on,61,0,160
2,note_on,53,33,0
2,note_on,53,0,160
2,note_on,44,43,0
2,note_on,44,0,103
2,note_on,59,28,0
2,note_on,59,0,160
2,note_on,53,29,0
2,note_on,53,0,160
2,note_on,49,40,0
2,note_on,49,0,160
2,note_on,59,30,0
2,note_on,59,0,160
2,note_on,53,32,0
2,note_on,53,0,160
2,note_on,37,42,0
2,note_on,37,0,103
2,note_on,59,34,0
2,note_on,59,0,160
2,note_on,53,35,0
2,note_on,53,0,160
2,note_on,42,47,0
2,note_on,42,0,104
2,note_on,58,35,0
2,note_on,58,0,160
2,note_on,54,35,0
2,note_on,54,0,160
2,note_on,49,43,0
2,note_on,49,0,160
2,note_on,58,36,0
2,note_on,58,0,160
2,note_on,54,31,0
2,note_on,54,0,160
2,note_on,42,39,0
2,note_on,42,0,91
2,note_on,58,34,0
2,note_on,58,0,160
2,note_on,49,33,0
2,note_on,49,0,160
2,note_on,37,36,0
2,note_on,37,0,88
2,note_on,59,28,0
2,note_on,59,0,160
2,note_on,53,29,0
2,note_on,53,0,160
2,note_on,44,34,0
2,note_on,44,0,160
2,note_on,59,30,0
2,note_on,59,0,160
2,note_on,53,32,0
2,note_on,53,0,160
2,note_on,37,38,0
2,note_on,37,0,103
2,note_on,59,35,0
2,note_on,59,0,160
2,note_on,53,38,0
2,note_on,53,0,160
2,note_on,42,47,0
2,note_on,42,0,96
2,note_on,58,35,0
2,note_on,58,0,160
2,note_on,54,35,0
2,note_on,54,0,160
2,note_on,49,43,0
2,note_on,49,0,160
2,note_on,58,36,0
2,note_on,58,0,160
2,note_on,54,34,0
2,note_on,54,0,160
2,note_on,42,39,0
2,note_on,42,0,74
2,note_on,58,34,0
2,note_on,58,0,160
2,note_on,49,33,0
2,note_on,49,0,160
2,note_on,43,40,0
2,note_on,43,0,103
2,note_on,58,31,0
2,note_on,58,0,160
2,note_on,52,32,0
2,note_on,52,0,160
2,note_on,46,43,0
2,note_on,46,0,160
2,note_on,61,35,0
2,note_on,61,0,160
2,note_on,52,34,0
2,note_on,52,0,160
2,note_on,45,39,0
2,note_on,45,0,103
2,note_on,60,35,0
2,note_on,60,0,160
2,note_on,51,36,0
2,note_on,51,0,160
2,note_on,48,48,0
2,note_on,48,0,160
2,note_on,63,39,0
2,note_on,63,0,160
2,note_on,54,40,0
2,note_on,54,0,160
2,note_on,47,44,0
2,note_on,47,0,80
2,note_on,62,36,0
2,note_on,62,0,160
2,note_on,53,40,0
2,note_on,53,0,160
2,note_on,50,55,0
2,note_on,50,0,160
2,note_on,65,43,0
2,note_on,65,0,160
2,note_on,56,43,0
2,note_on,56,0,160
2,note_on,49,54,0
2,note_on,49,0,103
2,note_on,64,41,0
2,note_on,64,0,160
2,note_on,55,46,0
2,note_on,55,0,160
2,note_on,52,60,0
2,note_on,52,0,160
2,note_on,67,48,0
2,note_on,67,0,160
2,note_on,58,48,0
2,note_on,58,0,160
2,note_on,51,58,0
2,note_on,51,0,103
2,note_on,66,44,0
2,note_on,66,0,160
2,note_on,57,49,0
2,note_on,57,0,160
2,note_on,54,69,0
2,note_on,54,0,160
2,note_on,69,49,0
2,note_on,69,0,160
2,note_on,60,50,0
2,note_on,60,0,160
2,note_on,53,62,0
2,note_on,53,0,75
2,note_on,68,51,0
2,note_on,68,0,160
2,note_on,59,51,0
2,note_on,59,0,160
2,note_on,58,67,0
2,note_on,58,0,106
2,note_on,39,36,224
2,note_on,39,0,96
2,note_on,55,28,0
2,note_on,55,0,160
2,note_on,46,31,0
2,note_on,46,0,160
2,note_on,39,39,0
2,note_on,39,0,160
2,note_on,55,33,0
2,note_on,55,0,160
2,note_on,46,36,0
2,note_on,46,0,160
2,note_on,39,36,0
2,note_on,39,0,160
2,note_on,58,32,0
2,note_on,58,0,160
2,note_on,46,32,0
2,note_on,46,0,160
2,note_on,39,42,0
2,note_on,39,0,160
2,note_on,63,33,0
2,note_on,63,0,160
2,note_on,55,34,0
2,note_on,55,0,160
2,note_on,46,42,0
2,note_on,46,0,160
2,note_on,67,35,0
2,note_on,67,0,160
2,note_on,58,37,0
2,note_on,58,0,160
2,note_on,51,47,0
2,note_on,51,0,160
2,note_on,70,39,0
2,note_on,70,0,160
2,note_on,58,41,0
2,note_on,58,0,160
2,note_on,51,54,0
2,note_on,51,0,103
2,note_on,71,39,0
2,note_on,71,0,160
2,note_on,59,36,0
2,note_on,59,0,160
2,note_on,51,49,0
2,note_on,51,0,114
2,note_on,72,38,0
2,note_on,72,0,160
2,note_on,60,33,0
2,note_on,60,0,160
2,note_on,51,41,0
2,note_on,51,0,80
2,note_on,68,33,0
2,note_on,68,0,160
2,note_on,62,32,0
2,note_on,62,0,160
2,note_on,51,46,0
2,note_on,51,0,89
2,note_on,67,30,0
2,note_on,67,0,160
2,note_on,63,31,0
2,note_on,63,0,160
2,note_on,58,39,0
2,note_on,58,0,61
2,note_on,67,30,0
2,note_on,67,0,160
2,note_on,63,30,0
2,note_on,63,0,160
2,note_on,51,35,0
2,note_on,51,0,160
2,note_on,63,29,0
2,note_on,63,0,160
2,note_on,55,29,0
2,note_on,55,0,160
2,note_on,41,36,0
2,note_on,41,0,103
2,note_on,60,28,0
2,note_on,60,0,160
2,note_on,53,29,0
2,note_on,53,0,160
2,note_on,48,34,0
2,note_on,48,0,74
2,note_on,60,30,0
2,note_on,60,0,160
2,note_on,53,32,0
2,note_on,53,0,160
2,note_on,41,45,0
2,note_on,41,0,103
2,note_on,60,34,0
2,note_on,60,0,160
2,note_on,53,40,0
2,note_on,53,0,160
2,note_on,46,50,0
2,note_on,46,0,104
2,note_on,63,35,0
2,note_on,63,0,160
2,note_on,53,35,0
2,note_on,53,0,160
2,note_on,50,43,0
2,note_on,50,0,75
2,note_on,62,36,0
2,note_on,62,0,160
2,note_on,53,34,0
2,note_on,53,0,160
2,note_on,46,39,0
2,note_on,46,0,160
2,note_on,58,34,0
2,note_on,58,0,160
2,note_on,53,33,0
2,note_on,53,0,160
2,note_on,41,36,0
2,note_on,41,0,103
2,note_on,60,28,0
2,note_on,60,0,160
2,note_on,53,29,0
2,note_on,53,0,160
2,note_on,48,34,0
2,note_on,48,0,97
2,note_on,59,30,0
2,note_on,59,0,160
2,note_on,53,32,0
2,note_on,53,0,160
2,note_on,41,38,0
2,note_on,41,0,103
2,note_on,60,36,0
2,note_on,60,0,160
2,note_on,53,35,0
2,note_on,53,0,160
2,note_on,46,51,0
2,note_on,46,0,82
2,note_on,63,35,0
2,note_on,63,0,160
2,note_on,56,35,0
2,note_on,56,0,160
2,note_on,53,43,0
2,note_on,53,0,75
2,note_on,62,35,0
2,note_on,62,0,160
2,note_on,53,34,0
2,note_on,53,0,160
2,note_on,46,39,0
2,note_on,46,0,160
2,note_on,56,33,0
2,note_on,56,0,160
2,note_on,50,32,0
2,note_on,50,0,160
2,note_on,39,36,0
2,note_on,39,0,68
2,note_on,55,28,0
2,note_on,55,0,160
2,note_on,46,28,0
2,note_on,46,0,160
2,note_on,39,33,0
2,note_on,39,0,160
2,note_on,55,28,0
2,note_on,55,0,160
2,note_on,46,29,0
2,note_on,46,0,160
2,note_on,39,35,0
2,note_on,39,0,160
2,note_on,58,31,0
2,note_on,58,0,160
2,note_on,46,31,0
2,note_on,46,0,160
2,note_on,39,39,0
2,note_on,39,0,160
2,note_on,63,31,0
2,note_on,63,0,160
2,note_on,55,32,0
2,note_on,55,0,160
2,note_on,46,40,0
2,note_on,46,0,160
2,note_on,67,33,0
2,note_on,67,0,160
2,note_on,58,35,0
2,note_on,58,0,160
2,note_on,51,44,0
2,note_on,51,0,160
2,note_on,70,37,0
2,note_on,70,0,160
2,note_on,58,38,0
2,note_on,58,0,160
2,note_on,45,55,0
2,note_on,45,0,103
2,note_on,60,36,0
2,note_on,60,0,160
2,note_on,54,36,0
2,note_on,54,0,160
2,note_on,47,49,0
2,note_on,47,0,114
2,note_on,62,37,0
2,note_on,62,0,160
2,note_on,56,36,0
2,note_on,56,0,160
2,note_on,49,47,0
2,note_on,49,0,80
2,note_on,64,34,0
2,note_on,64,0,160
2,note_on,58,33,0
2,note_on,58,0,160
2,note_on,51,54,0
2,note_on,51,0,120
2,note_on,66,38,0
2,note_on,66,0,160
2,note_on,60,35,0
2,note_on,60,0,160
2,note_on,53,46,0
2,note_on,53,0,61
2,note_on,68,34,0
2,note_on,68,0,160
2,note_on,62,34,0
2,note_on,62,0,160
2,note_on,55,42,0
2,note_on,55,0,85
2,note_on,70,35,0
2,note_on,70,0,160
2,note_on,64,35,0
2,note_on,64,0,160
2,note_on,56,47,0
2,note_on,56,0,93
2,note_on,68,36,0
2,note_on,68,0,160
2,note_on,65,43,0
2,note_on,65,0,160
2,note_on,60,54,0
2,note_on,60,0,160
2,note_on,68,42,0
2,note_on,68,0,160
2,note_on,65,42,0
2,note_on,65,0,160
2,note_on,56,60,0
2,note_on,56,0,160
2,note_on,68,46,0
2,note_on,68,0,160
2,note_on,65,49,0
2,note_on,65,0,160
2,note_on,53,62,0
2,note_on,53,0,103
2,note_on,75,46,0
2,note_on,75,0,160
2,note_on,68,46,0
2,note_on,68,0,160
2,note_on,63,50,0
2,note_on,63,0,160
2,note_on,75,37,0
2,note_on,75,0,160
2,note_on,68,38,0
2,note_on,68,0,160
2,note_on,56,46,0
2,note_on,56,0,160
2,note_on,75,37,0
2,note_on,75,0,160
2,note_on,68,35,0
2,note_on,68,0,160
2,note_on,44,46,0
2,note_on,44,0,160
2,note_on,68,35,0
2,note_on,68,0,160
2,note_on,65,38,0
2,note_on,65,0,160
2,note_on,60,47,0
2,note_on,60,0,160
2,note_on,68,38,0
2,note_on,68,0,160
2,note_on,65,32,0
2,note_on,65,0,160
2,note_on,53,38,0
2,note_on,53,0,160
2,note_on,68,34,0
2,note_on,68,0,160
2,note_on,63,34,0
2,note_on,63,0,160
2,note_on,46,37,0
2,note_on,46,0,89
2,note_on,63,28,0
2,note_on,63,0,160
2,note_on,56,31,0
2,note_on,56,0,160
2,note_on,53,38,0
2,note_on,53,0,75
2,note_on,62,31,0
2,note_on,62,0,160
2,note_on,56,32,0
2,note_on,56,0,160
2,note_on,46,31,0
2,note_on,46,0,68
2,note_on,58,27,0
2,note_on,58,0,160
2,note_on,56,27,0
2,note_on,56,0,160
2,note_on,39,32,0
2,note_on,39,0,91
2,note_on,55,27,0
2,note_on,55,0,160
2,note_on,46,28,0
2,note_on,46,0,160
2,note_on,39,36,0
2,note_on,39,0,160
2,note_on,58,29,0
2,note_on,58,0,160
2,note_on,46,32,0
2,note_on,46,0,160
2,note_on,39,40,0
2,note_on,39,0,160
2,note_on,58,34,0
2,note_on,58,0,160
2,note_on,46,36,0
2,note_on,46,0,160
2,note_on,39,46,0
2,note_on,39,0,103
2,note_on,56,54,0
2,note_on,56,0,160
2,note_on,46,33,0
2,note_on,46,0,160
2,note_on,39,42,0
2,note_on,39,0,160
2,note_on,58,32,0
2,note_on,58,0,160
2,note_on,46,30,0
2,note_on,46,0,160
2,note_on,39,34,0
2,note_on,39,0,160
2,note_on,58,28,0
2,note_on,58,0,160
2,note_on,46,26,0
2,note_on,46,0,160
2,note_on,39,32,0
2,note_on,39,0,89
2,note_on,58,27,0
2,note_on,58,0,160
2,note_on,46,28,0
2,note_on,46,0,160
2,note_on,39,36,0
2,note_on,39,0,160
2,note_on,58,29,0
2,note_on,58,0,160
2,note_on,46,32,0
2,note_on,46,0,160
2,note_on,39,40,0
2,note_on,39,0,160
2,note_on,58,34,0
2,note_on,58,0,160
2,note_on,46,36,0
2,note_on,46,0,160
2,note_on,39,40,0
2,note_on,39,0,103
2,note_on,56,42,0
2,note_on,56,0,160
2,note_on,46,33,0
2,note_on,46,0,160
2,note_on,39,42,0
2,note_on,39,0,160
2,note_on,58,32,0
2,note_on,58,0,160
2,note_on,46,30,0
2,note_on,46,0,160
2,note_on,39,34,0
2,note_on,39,0,160
2,note_on,58,28,0
2,note_on,58,0,160
2,note_on,46,26,0
2,note_on,46,0,160
2,note_on,39,32,0
2,note_on,39,0,96
2,note_on,58,27,0
2,note_on,58,0,160
2,note_on,46,28,0
2,note_on,46,0,160
2,note_on,39,39,0
2,note_on,39,0,160
2,note_on,58,29,0
2,note_on,58,0,160
2,note_on,46,32,0
2,note_on,46,0,160
2,note_on,43,45,0
2,note_on,43,0,160
2,note_on,58,35,0
2,note_on,58,0,160
2,note_on,51,37,0
2,note_on,51,0,160
2,note_on,43,53,0
2,note_on,43,0,103
2,note_on,65,35,0
2,note_on,65,0,160
2,note_on,59,35,0
2,note_on,59,0,160
2,note_on,50,47,0
2,note_on,50,0,160
2,note_on,65,34,0
2,note_on,65,0,160
2,note_on,59,33,0
2,note_on,59,0,160
2,note_on,48,45,0
2,note_on,48,0,80
2,note_on,63,31,0
2,note_on,63,0,160
2,note_on,55,29,0
2,note_on,55,0,160
2,note_on,45,44,0
2,note_on,45,0,103
2,note_on,63,33,0
2,note_on,63,0,160
2,note_on,54,33,0
2,note_on,54,0,160
2,note_on,51,40,0
2,note_on,51,0,114
2,note_on,63,31,0
2,note_on,63,0,160
2,note_on,54,29,0
2,note_on,54,0,160
2,note_on,44,33,0
2,note_on,44,0,114
2,note_on,63,27,0
2,note_on,63,0,160
2,note_on,54,26,0
2,note_on,54,0,160
2,note_on,46,35,0
2,note_on,46,0,75
2,note_on,62,29,0
2,note_on,62,0,160
2,note_on,56,29,0
2,note_on,56,0,160
2,note_on,53,33,0
2,note_on,53,0,160
2,note_on,62,28,0
2,note_on,62,0,160
2,note_on,56,28,0
2,note_on,56,0,160
2,note_on,46,32,0
2,note_on,46,0,80
2,note_on,58,27,0
2,note_on,58,0,160
2,note_on,56,26,0
2,note_on,56,0,160
2,note_on,39,32,0
2,note_on,39,0,74
2,note_on,55,27,0
2,note_on,55,0,160
2,note_on,46,28,0
2,note_on,46,0,160
2,note_on,39,36,0
2,note_on,39,0,160
2,note_on,58,29,0
2,note_on,58,0,160
2,note_on,46,32,0
2,note_on,46,0,160
2,note_on,39,40,0
2,note_on,39,0,160
2,note_on,58,34,0
2,note_on,58,0,160
2,note_on,46,33,0
2,note_on,46,0,160
2,note_on,39,46,0
2,note_on,39,0,103
2,note_on,56,34,0
2,note_on,56,0,160
2,note_on,46,33,0
2,note_on,46,0,160
2,note_on,39,42,0
2,note_on,39,0,160
2,note_on,58,32,0
2,note_on,58,0,160
2,note_on,46,30,0
2,note_on,46,0,160
2,note_on,39,34,0
2,note_on,39,0,160
2,note_on,58,28,0
2,note_on,58,0,160
2,note_on,46,26,0
2,note_on,46,0,160
2,note_on,39,32,0
2,note_on,39,0,82
2,note_on,58,27,0
2,note_on,58,0,160
2,note_on,46,28,0
2,note_on,46,0,160
2,note_on,39,36,0
2,note_on,39,0,160
2,note_on,58,29,0
2,note_on,58,0,160
2,note_on,46,32,0
2,note_on,46,0,160
2,note_on,39,40,0
2,note_on,39,0,160
2,note_on,58,34,0
2,note_on,58,0,160
2,note_on,46,36,0
2,note_on,46,0,160
2,note_on,39,40,0
2,note_on,39,0,103
2,note_on,56,40,0
2,note_on,56,0,160
2,note_on,46,33,0
2,note_on,46,0,160
2,note_on,39,42,0
2,note_on,39,0,160
2,note_on,58,32,0
2,note_on,58,0,160
2,note_on,46,30,0
2,note_on,46,0,160
2,note_on,39,34,0
2,note_on,39,0,160
2,note_on,58,28,0
2,note_on,58,0,160
2,note_on,46,26,0
2,note_on,46,0,160
2,note_on,39,32,0
2,note_on,39,0,82
2,note_on,58,27,0
2,note_on,58,0,160
2,note_on,46,28,0
2,note_on,46,0,160
2,note_on,39,39,0
2,note_on,39,0,160
2,note_on,58,29,0
2,note_on,58,0,160
2,note_on,46,32,0
2,note_on,46,0,160
2,note_on,39,45,0
2,note_on,39,0,160
2,note_on,58,35,0
2,note_on,58,0,160
2,note_on,51,37,0
2,note_on,51,0,160
2,note_on,31,43,0
2,note_on,31,0,103
2,note_on,59,30,0
2,note_on,59,0,160
2,note_on,53,30,0
2,note_on,53,0,160
2,note_on,43,45,0
2,note_on,43,0,160
2,note_on,59,35,0
2,note_on,59,0,160
2,note_on,53,33,0
2,note_on,53,0,160
2,note_on,44,45,0
2,note_on,44,0,80
2,note_on,59,31,0
2,note_on,59,0,160
2,note_on,52,30,0
2,note_on,45,45,160
2,note_on,45,0,103
2,note_on,61,34,0
2,note_on,52,0,153
2,note_on,61,0,7
2,note_on,52,34,0
2,note_on,45,41,160
2,note_on,45,0,93
2,note_on,60,32,0
2,note_on,60,0,160
2,note_on,52,0,0
2,note_on,53,31,0
2,note_on,45,35,160
2,note_on,45,0,160
2,note_on,63,29,0
2,note_on,63,0,160
2,note_on,53,0,0
2,note_on,54,28,0
2,note_on,46,37,160
2,note_on,46,0,103
2,note_on,63,30,0
2,note_on,63,0,160
2,note_on,54,0,0
2,note_on,54,30,0
2,note_on,54,0,160
2,note_on,46,34,0
2,note_on,46,0,160
2,note_on,63,28,0
2,note_on,63,0,160
2,note_on,55,28,0
2,note_on,55,0,160
2,note_on,34,32,0
2,note_on,34,0,80
2,note_on,56,27,0
2,note_on,56,0,160
2,note_on,46,26,0
2,note_on,46,0,160
2,note_on,39,32,0
2,note_on,39,0,89
2,note_on,55,27,0
2,note_on,55,0,160
2,note_on,46,27,0
2,note_on,46,0,160
2,note_on,39,45,0
2,note_on,39,0,160
2,note_on,58,27,0
2,note_on,58,0,160
2,note_on,46,29,0
2,note_on,46,0,160
2,note_on,39,39,0
2,note_on,39,0,160
2,note_on,55,28,0
2,note_on,55,0,160
2,note_on,46,28,0
2,note_on,46,0,160
2,note_on,39,48,0
2,note_on,39,0,103
2,note_on,58,31,0
2,note_on,58,0,160
2,note_on,46,31,0
2,note_on,46,0,160
2,note_on,39,43,0
2,note_on,39,0,160
2,note_on,55,31,0
2,note_on,55,0,160
2,note_on,46,30,0
2,note_on,46,0,160
2,note_on,39,52,0
2,note_on,39,0,80
2,note_on,58,31,0
2,note_on,58,0,160
2,note_on,46,30,0
2,note_on,46,0,160
2,note_on,39,44,0
2,note_on,39,0,160
2,note_on,55,32,0
2,note_on,55,0,160
2,note_on,46,32,0
2,note_on,46,0,160
2,note_on,39,48,0
2,note_on,39,0,82
2,note_on,58,31,0
2,note_on,58,0,160
2,note_on,46,33,0
2,note_on,46,0,160
2,note_on,39,44,0
2,note_on,39,0,160
2,note_on,55,31,0
2,note_on,55,0,160
2,note_on,46,36,0
2,note_on,46,0,160
2,note_on,39,52,0
2,note_on,39,0,103
2,note_on,58,34,0
2,note_on,58,0,160
2,note_on,46,33,0
2,note_on,46,0,160
2,note_on,39,42,0
2,note_on,39,0,160
2,note_on,55,29,0
2,note_on,55,0,160
2,note_on,46,29,0
2,note_on,46,0,160
2,note_on,39,38,0
2,note_on,39,0,80
2,note_on,58,29,0
2,note_on,58,0,160
2,note_on,46,27,0
2,note_on,46,0,160
2,note_on,39,33,0
2,note_on,39,0,480
2,note_on,67,69,960
2,note_on,70,73,0
2,note_on,75,73,0
2,note_on,79,88,0
2,note_on,79,0,480
2,note_on,67,0,0
2,note_on,70,0,0
2,note_on,75,0,0
2,note_on,39,67,960
2,note_on,46,67,0
2,note_on,51,79,0
2,note_on,51,0,1440
2,note_on,46,0,0
2,note_on,39,0,0
