Track,Message Type,Note,Velocity,Time
1,note_on,69,77,960
1,note_on,66,68,480
1,note_on,69,0,240
1,note_on,73,70,0
1,note_on,73,0,240
1,note_on,66,0,0
1,note_on,74,71,0
1,note_on,66,60,0
1,note_on,74,0,240
1,note_on,76,71,0
1,note_on,76,0,240
1,note_on,66,0,0
1,note_on,78,72,0
1,note_on,66,61,0
1,note_on,78,0,240
1,note_on,79,73,0
1,note_on,79,0,120
1,note_on,78,70,0
1,note_on,78,0,60
1,note_on,79,68,0
1,note_on,79,0,60
1,note_on,66,0,0
1,note_on,78,76,0
1,note_on,78,0,480
1,note_on,67,62,0
1,note_on,76,74,0
1,note_on,76,0,240
1,note_on,74,74,0
1,note_on,74,0,240
1,note_on,67,0,0
1,note_on,67,62,0
1,note_on,73,73,0
1,note_on,73,0,240
1,note_on,71,72,0
1,note_on,71,0,240
1,note_on,67,0,0
1,note_on,69,74,0
1,note_on,69,0,240
1,note_on,74,70,0
1,note_on,74,0,240
1,note_on,66,62,0
1,note_on,74,74,0
1,note_on,74,0,160
1,note_on,76,70,0
1,note_on,76,0,160
1,note_on,74,70,0
1,note_on,74,0,160
1,note_on,66,0,0
1,note_on,66,59,0
1,note_on,73,70,0
1,note_on,73,0,240
1,note_on,71,70,0
1,note_on,71,0,240
1,note_on,66,0,0
1,note_on,73,73,0
1,note_on,64,44,480
1,note_on,69,53,0
1,note_on,69,0,480
1,note_on,64,0,0
1,note_on,67,57,0
1,note_on,69,68,0
1,note_on,69,0,480
1,note_on,67,0,0
1,note_on,73,0,0
1,note_on,69,74,0
1,note_on,69,0,240
1,note_on,73,70,0
1,note_on,73,0,240
1,note_on,74,71,0
1,note_on,66,60,0
1,note_on,74,0,240
1,note_on,76,71,0
1,note_on,76,0,240
1,note_on,66,0,0
1,note_on,78,72,0
1,note_on,66,61,0
1,note_on,78,0,240
1,note_on,79,73,0
1,note_on,79,0,120
1,note_on,78,70,0
1,note_on,78,0,60
1,note_on,79,68,0
1,note_on,79,0,60
1,note_on,66,0,0
1,note_on,78,76,0
1,note_on,78,0,480
1,note_on,67,62,0
1,note_on,76,74,0
1,note_on,76,0,240
1,note_on,74,74,0
1,note_on,74,0,240
1,note_on,67,0,0
1,note_on,67,62,0
1,note_on,73,73,0
1,note_on,73,0,240
1,note_on,71,72,0
1,note_on,71,0,240
1,note_on,67,0,0
1,note_on,69,74,0
1,note_on,69,0,240
1,note_on,73,70,0
1,note_on,73,0,240
1,note_on,67,62,0
1,note_on,73,74,0
1,note_on,73,0,160
1,note_on,74,70,0
1,note_on,74,0,160
1,note_on,73,70,0
1,note_on,73,0,160
1,note_on,67,0,0
1,note_on,67,59,0
1,note_on,71,70,0
1,note_on,71,0,240
1,note_on,69,70,0
1,note_on,69,0,240
1,note_on,67,0,0
1,note_on,74,73,0
1,note_on,66,53,480
1,note_on,66,0,480
1,note_on,66,47,0
1,note_on,74,0,480
1,note_on,69,40,0
1,note_on,69,0,240
1,note_on,73,39,0
1,note_on,73,0,240
1,note_on,66,0,0
1,note_on,74,39,0
1,note_on,66,33,0
1,note_on,74,0,240
1,note_on,76,39,0
1,note_on,76,0,240
1,note_on,66,0,0
1,note_on,78,40,0
1,note_on,66,33,0
1,note_on,78,0,240
1,note_on,79,40,0
1,note_on,79,0,120
1,note_on,78,39,0
1,note_on,78,0,60
1,note_on,79,37,0
1,note_on,79,0,60
1,note_on,66,0,0
1,note_on,78,42,0
1,note_on,78,0,480
1,note_on,67,34,0
1,note_on,76,40,0
1,note_on,76,0,240
1,note_on,74,40,0
1,note_on,74,0,240
1,note_on,67,0,0
1,note_on,67,34,0
1,note_on,73,40,0
1,note_on,73,0,240
1,note_on,71,40,0
1,note_on,71,0,240
1,note_on,67,0,0
1,note_on,69,40,0
1,note_on,69,0,240
1,note_on,74,39,0
1,note_on,74,0,240
1,note_on,66,34,0
1,note_on,74,40,0
1,note_on,74,0,160
1,note_on,76,39,0
1,note_on,76,0,160
1,note_on,74,39,0
1,note_on,74,0,160
1,note_on,66,0,0
1,note_on,66,32,0
1,note_on,73,39,0
1,note_on,73,0,240
1,note_on,71,39,0
1,note_on,71,0,240
1,note_on,66,0,0
1,note_on,73,40,0
1,note_on,64,24,480
1,note_on,69,29,0
1,note_on,69,0,480
1,note_on,64,0,0
1,note_on,67,31,0
1,note_on,69,37,0
1,note_on,69,0,480
1,note_on,67,0,0
1,note_on,73,0,0
1,note_on,69,40,0
1,note_on,69,0,240
1,note_on,73,39,0
1,note_on,73,0,240
1,note_on,74,39,0
1,note_on,66,33,0
1,note_on,74,0,240
1,note_on,76,39,0
1,note_on,76,0,240
1,note_on,66,0,0
1,note_on,78,40,0
1,note_on,66,33,0
1,note_on,78,0,240
1,note_on,79,40,0
1,note_on,79,0,120
1,note_on,78,39,0
1,note_on,78,0,60
1,note_on,79,37,0
1,note_on,79,0,60
1,note_on,66,0,0
1,note_on,78,42,0
1,note_on,78,0,480
1,note_on,67,34,0
1,note_on,76,40,0
1,note_on,76,0,240
1,note_on,74,40,0
1,note_on,74,0,240
1,note_on,67,0,0
1,note_on,67,34,0
1,note_on,73,40,0
1,note_on,73,0,240
1,note_on,71,40,0
1,note_on,71,0,240
1,note_on,67,0,0
1,note_on,69,40,0
1,note_on,69,0,240
1,note_on,73,39,0
1,note_on,73,0,240
1,note_on,67,34,0
1,note_on,73,40,0
1,note_on,73,0,160
1,note_on,74,39,0
1,note_on,74,0,160
1,note_on,73,39,0
1,note_on,73,0,160
1,note_on,67,0,0
1,note_on,67,32,0
1,note_on,71,39,0
1,note_on,71,0,240
1,note_on,69,39,0
1,note_on,69,0,240
1,note_on,67,0,0
1,note_on,74,40,0
1,note_on,66,29,480
1,note_on,66,0,480
1,note_on,66,37,0
1,note_on,66,0,480
1,note_on,74,0,0
1,note_on,64,73,0
1,note_on,64,0,240
1,note_on,68,70,0
1,note_on,68,0,240
1,note_on,69,71,0
1,note_on,61,60,0
1,note_on,69,0,240
1,note_on,71,71,0
1,note_on,71,0,240
1,note_on,61,0,0
1,note_on,73,72,0
1,note_on,61,61,0
1,note_on,73,0,240
1,note_on,74,73,0
1,note_on,74,0,120
1,note_on,73,70,0
1,note_on,73,0,60
1,note_on,74,68,0
1,note_on,74,0,60
1,note_on,61,0,0
1,note_on,73,76,0
1,note_on,73,0,480
1,note_on,62,62,0
1,note_on,71,74,0
1,note_on,71,0,240
1,note_on,69,74,0
1,note_on,69,0,240
1,note_on,62,0,0
1,note_on,62,62,0
1,note_on,68,73,0
1,note_on,68,0,240
1,note_on,66,72,0
1,note_on,66,0,240
1,note_on,62,0,0
1,note_on,64,74,0
1,note_on,64,0,240
1,note_on,69,70,0
1,note_on,69,0,240
1,note_on,61,62,0
1,note_on,69,74,0
1,note_on,69,0,160
1,note_on,71,70,0
1,note_on,71,0,160
1,note_on,69,70,0
1,note_on,69,0,160
1,note_on,61,0,0
1,note_on,61,59,0
1,note_on,68,70,0
1,note_on,68,0,240
1,note_on,66,70,0
1,note_on,66,0,240
1,note_on,61,0,0
1,note_on,68,73,0
1,note_on,59,44,480
1,note_on,64,53,0
1,note_on,64,0,480
1,note_on,59,0,0
1,note_on,62,57,0
1,note_on,64,68,0
1,note_on,64,0,480
1,note_on,62,0,0
1,note_on,68,0,0
1,note_on,64,74,0
1,note_on,64,0,240
1,note_on,68,70,0
1,note_on,68,0,240
1,note_on,69,71,0
1,note_on,61,60,0
1,note_on,69,0,240
1,note_on,71,71,0
1,note_on,71,0,240
1,note_on,61,0,0
1,note_on,73,72,0
1,note_on,61,61,0
1,note_on,73,0,240
1,note_on,74,73,0
1,note_on,74,0,120
1,note_on,73,70,0
1,note_on,73,0,60
1,note_on,74,68,0
1,note_on,74,0,60
1,note_on,61,0,0
1,note_on,73,76,0
1,note_on,73,0,480
1,note_on,62,62,0
1,note_on,71,74,0
1,note_on,71,0,240
1,note_on,69,74,0
1,note_on,69,0,240
1,note_on,62,0,0
1,note_on,62,62,0
1,note_on,68,73,0
1,note_on,68,0,240
1,note_on,66,72,0
1,note_on,66,0,240
1,note_on,62,0,0
1,note_on,64,74,0
1,note_on,64,0,240
1,note_on,68,70,0
1,note_on,68,0,240
1,note_on,62,62,0
1,note_on,68,74,0
1,note_on,68,0,160
1,note_on,69,70,0
1,note_on,69,0,160
1,note_on,68,70,0
1,note_on,68,0,160
1,note_on,62,0,0
1,note_on,62,59,0
1,note_on,66,70,0
1,note_on,66,0,240
1,note_on,64,70,0
1,note_on,64,0,240
1,note_on,62,0,0
1,note_on,69,73,0
1,note_on,61,53,480
1,note_on,61,0,480
1,note_on,61,47,0
1,note_on,69,0,480
1,note_on,64,40,0
1,note_on,64,0,240
1,note_on,68,39,0
1,note_on,68,0,240
1,note_on,61,0,0
1,note_on,69,39,0
1,note_on,61,33,0
1,note_on,69,0,240
1,note_on,71,39,0
1,note_on,71,0,240
1,note_on,61,0,0
1,note_on,73,40,0
1,note_on,61,33,0
1,note_on,73,0,240
1,note_on,74,40,0
1,note_on,74,0,120
1,note_on,73,39,0
1,note_on,73,0,60
1,note_on,74,37,0
1,note_on,74,0,60
1,note_on,61,0,0
1,note_on,73,42,0
1,note_on,73,0,480
1,note_on,62,34,0
1,note_on,71,40,0
1,note_on,71,0,240
1,note_on,69,40,0
1,note_on,69,0,240
1,note_on,62,0,0
1,note_on,62,34,0
1,note_on,68,40,0
1,note_on,68,0,240
1,note_on,66,40,0
1,note_on,66,0,240
1,note_on,62,0,0
1,note_on,64,40,0
1,note_on,64,0,240
1,note_on,69,39,0
1,note_on,69,0,240
1,note_on,61,34,0
1,note_on,69,40,0
1,note_on,69,0,160
1,note_on,71,39,0
1,note_on,71,0,160
1,note_on,69,39,0
1,note_on,69,0,160
1,note_on,61,0,0
1,note_on,61,32,0
1,note_on,68,39,0
1,note_on,68,0,240
1,note_on,66,39,0
1,note_on,66,0,240
1,note_on,61,0,0
1,note_on,68,40,0
1,note_on,59,24,480
1,note_on,64,29,0
1,note_on,64,0,480
1,note_on,59,0,0
1,note_on,62,31,0
1,note_on,64,37,0
1,note_on,64,0,480
1,note_on,62,0,0
1,note_on,68,0,0
1,note_on,64,40,0
1,note_on,64,0,240
1,note_on,68,39,0
1,note_on,68,0,240
1,note_on,69,39,0
1,note_on,61,33,0
1,note_on,69,0,240
1,note_on,71,39,0
1,note_on,71,0,240
1,note_on,61,0,0
1,note_on,73,40,0
1,note_on,61,33,0
1,note_on,73,0,240
1,note_on,74,40,0
1,note_on,74,0,120
1,note_on,73,39,0
1,note_on,73,0,60
1,note_on,74,37,0
1,note_on,74,0,60
1,note_on,61,0,0
1,note_on,73,42,0
1,note_on,73,0,480
1,note_on,62,34,0
1,note_on,71,40,0
1,note_on,71,0,240
1,note_on,69,40,0
1,note_on,69,0,240
1,note_on,62,0,0
1,note_on,62,34,0
1,note_on,68,40,0
1,note_on,68,0,240
1,note_on,66,40,0
1,note_on,66,0,240
1,note_on,62,0,0
1,note_on,64,40,0
1,note_on,64,0,240
1,note_on,68,39,0
1,note_on,68,0,240
1,note_on,62,34,0
1,note_on,68,40,0
1,note_on,68,0,160
1,note_on,69,39,0
1,note_on,69,0,160
1,note_on,68,39,0
1,note_on,68,0,160
1,note_on,62,0,0
1,note_on,62,32,0
1,note_on,66,39,0
1,note_on,66,0,240
1,note_on,64,39,0
1,note_on,64,0,240
1,note_on,62,0,0
1,note_on,69,40,0
1,note_on,61,37,480
1,note_on,61,0,480
1,note_on,67,73,0
1,note_on,61,73,0
1,note_on,61,0,480
1,note_on,67,0,0
1,note_on,66,78,0
1,note_on,69,0,240
1,note_on,73,80,0
1,note_on,73,0,240
1,note_on,66,0,0
1,note_on,74,81,0
1,note_on,66,69,0
1,note_on,74,0,240
1,note_on,76,81,0
1,note_on,76,0,240
1,note_on,66,0,0
1,note_on,78,82,0
1,note_on,66,70,0
1,note_on,78,0,240
1,note_on,79,83,0
1,note_on,79,0,120
1,note_on,78,80,0
1,note_on,78,0,60
1,note_on,79,78,0
1,note_on,79,0,60
1,note_on,66,0,0
1,note_on,78,87,0
1,note_on,78,0,480
1,note_on,67,71,0
1,note_on,76,85,0
1,note_on,76,0,240
1,note_on,74,85,0
1,note_on,74,0,240
1,note_on,67,0,0
1,note_on,67,71,0
1,note_on,73,83,0
1,note_on,73,0,240
1,note_on,71,82,0
1,note_on,71,0,240
1,note_on,67,0,0
1,note_on,69,85,0
1,note_on,69,0,240
1,note_on,74,80,0
1,note_on,74,0,240
1,note_on,66,71,0
1,note_on,74,85,0
1,note_on,74,0,160
1,note_on,76,80,0
1,note_on,76,0,160
1,note_on,74,80,0
1,note_on,74,0,160
1,note_on,66,0,0
1,note_on,66,67,0
1,note_on,73,80,0
1,note_on,73,0,240
1,note_on,71,80,0
1,note_on,71,0,240
1,note_on,66,0,0
1,note_on,73,83,0
1,note_on,64,50,480
1,note_on,69,60,0
1,note_on,69,0,480
1,note_on,64,0,0
1,note_on,67,65,0
1,note_on,69,78,0
1,note_on,69,0,480
1,note_on,67,0,0
1,note_on,73,0,0
1,note_on,69,85,0
1,note_on,69,0,240
1,note_on,73,80,0
1,note_on,73,0,240
1,note_on,74,81,0
1,note_on,66,69,0
1,note_on,74,0,240
1,note_on,76,81,0
1,note_on,76,0,240
1,note_on,66,0,0
1,note_on,78,82,0
1,note_on,66,70,0
1,note_on,78,0,240
1,note_on,79,83,0
1,note_on,79,0,120
1,note_on,78,80,0
1,note_on,78,0,60
1,note_on,79,78,0
1,note_on,79,0,60
1,note_on,66,0,0
1,note_on,78,87,0
1,note_on,78,0,480
1,note_on,67,71,0
1,note_on,76,85,0
1,note_on,76,0,240
1,note_on,74,85,0
1,note_on,74,0,240
1,note_on,67,0,0
1,note_on,67,71,0
1,note_on,73,83,0
1,note_on,73,0,240
1,note_on,71,82,0
1,note_on,71,0,240
1,note_on,67,0,0
1,note_on,69,85,0
1,note_on,69,0,240
1,note_on,73,80,0
1,note_on,73,0,240
1,note_on,67,71,0
1,note_on,73,85,0
1,note_on,73,0,160
1,note_on,74,80,0
1,note_on,74,0,160
1,note_on,73,80,0
1,note_on,73,0,160
1,note_on,67,0,0
1,note_on,67,67,0
1,note_on,71,80,0
1,note_on,71,0,240
1,note_on,69,80,0
1,note_on,69,0,240
1,note_on,67,0,0
1,note_on,74,83,0
1,note_on,66,60,480
1,note_on,66,0,480
1,note_on,66,54,0
1,note_on,74,0,480
1,note_on,69,40,0
1,note_on,69,0,240
1,note_on,73,39,0
1,note_on,73,0,240
1,note_on,66,0,0
1,note_on,74,39,0
1,note_on,66,33,0
1,note_on,74,0,240
1,note_on,76,39,0
1,note_on,76,0,240
1,note_on,66,0,0
1,note_on,78,40,0
1,note_on,66,33,0
1,note_on,78,0,240
1,note_on,79,40,0
1,note_on,79,0,120
1,note_on,78,39,0
1,note_on,78,0,60
1,note_on,79,37,0
1,note_on,79,0,60
1,note_on,66,0,0
1,note_on,78,42,0
1,note_on,78,0,480
1,note_on,67,34,0
1,note_on,76,40,0
1,note_on,76,0,240
1,note_on,74,40,0
1,note_on,74,0,240
1,note_on,67,0,0
1,note_on,67,34,0
1,note_on,73,40,0
1,note_on,73,0,240
1,note_on,71,40,0
1,note_on,71,0,240
1,note_on,67,0,0
1,note_on,69,40,0
1,note_on,69,0,240
1,note_on,74,39,0
1,note_on,74,0,240
1,note_on,66,34,0
1,note_on,74,40,0
1,note_on,74,0,160
1,note_on,76,39,0
1,note_on,76,0,160
1,note_on,74,39,0
1,note_on,74,0,160
1,note_on,66,0,0
1,note_on,66,32,0
1,note_on,73,39,0
1,note_on,73,0,240
1,note_on,71,39,0
1,note_on,71,0,240
1,note_on,66,0,0
1,note_on,73,40,0
1,note_on,64,24,480
1,note_on,69,29,0
1,note_on,69,0,480
1,note_on,64,0,0
1,note_on,67,31,0
1,note_on,69,37,0
1,note_on,69,0,480
1,note_on,67,0,0
1,note_on,73,0,0
1,note_on,69,40,0
1,note_on,69,0,240
1,note_on,73,39,0
1,note_on,73,0,240
1,note_on,74,39,0
1,note_on,66,33,0
1,note_on,74,0,240
1,note_on,76,39,0
1,note_on,76,0,240
1,note_on,66,0,0
1,note_on,78,40,0
1,note_on,66,33,0
1,note_on,78,0,240
1,note_on,79,40,0
1,note_on,79,0,120
1,note_on,78,39,0
1,note_on,78,0,60
1,note_on,79,37,0
1,note_on,79,0,60
1,note_on,66,0,0
1,note_on,78,42,0
1,note_on,78,0,480
1,note_on,67,34,0
1,note_on,76,40,0
1,note_on,76,0,240
1,note_on,74,40,0
1,note_on,74,0,240
1,note_on,67,0,0
1,note_on,67,34,0
1,note_on,73,40,0
1,note_on,73,0,240
1,note_on,71,40,0
1,note_on,71,0,240
1,note_on,67,0,0
1,note_on,69,40,0
1,note_on,69,0,240
1,note_on,73,39,0
1,note_on,73,0,240
1,note_on,67,34,0
1,note_on,73,40,0
1,note_on,73,0,160
1,note_on,74,39,0
1,note_on,74,0,160
1,note_on,73,39,0
1,note_on,73,0,160
1,note_on,67,0,0
1,note_on,67,32,0
1,note_on,71,39,0
1,note_on,71,0,240
1,note_on,69,39,0
1,note_on,69,0,240
1,note_on,67,0,0
1,note_on,74,40,0
1,note_on,66,29,480
1,note_on,66,0,480
1,note_on,66,37,0
1,note_on,66,0,480
1,note_on,65,54,0
1,note_on,74,0,360
1,note_on,74,58,0
1,note_on,74,0,120
1,note_on,75,62,0
1,note_on,75,0,480
1,note_on,65,0,0
1,note_on,70,42,0
1,note_on,76,55,0
1,note_on,76,0,480
1,note_on,79,64,0
1,note_on,79,0,360
1,note_on,77,60,0
1,note_on,77,0,120
1,note_on,70,0,0
1,note_on,69,49,0
1,note_on,72,64,0
1,note_on,69,0,240
1,note_on,67,47,0
1,note_on,67,0,240
1,note_on,72,0,0
1,note_on,65,48,0
1,note_on,72,57,0
1,note_on,72,0,480
1,note_on,74,64,0
1,note_on,74,0,360
1,note_on,74,64,0
1,note_on,74,0,120
1,note_on,65,0,0
1,note_on,65,50,0
1,note_on,70,50,0
1,note_on,75,69,0
1,note_on,75,0,480
1,note_on,70,0,0
1,note_on,65,0,0
1,note_on,65,51,0
1,note_on,70,51,0
1,note_on,76,61,0
1,note_on,76,0,480
1,note_on,70,0,0
1,note_on,72,52,0
1,note_on,79,71,0
1,note_on,79,0,360
1,note_on,77,66,0
1,note_on,77,0,120
1,note_on,72,0,0
1,note_on,65,0,0
1,note_on,65,59,0
1,note_on,72,71,0
1,note_on,65,0,480
1,note_on,69,67,0
1,note_on,77,81,0
1,note_on,77,0,480
1,note_on,69,0,0
1,note_on,72,0,0
1,note_on,76,73,0
1,note_on,70,69,0
1,note_on,82,86,0
1,note_on,82,0,240
1,note_on,70,0,0
1,note_on,76,0,0
1,note_on,70,66,120
1,note_on,76,69,0
1,note_on,82,82,0
1,note_on,82,0,120
1,note_on,76,0,0
1,note_on,70,0,0
1,note_on,70,70,0
1,note_on,76,72,0
1,note_on,82,85,0
1,note_on,82,0,480
1,note_on,76,0,0
1,note_on,70,0,0
1,note_on,70,70,0
1,note_on,76,70,0
1,note_on,82,83,0
1,note_on,82,0,480
1,note_on,76,0,0
1,note_on,70,0,0
1,note_on,77,73,0
1,note_on,70,73,0
1,note_on,82,86,0
1,note_on,82,0,240
1,note_on,70,0,0
1,note_on,77,0,0
1,note_on,70,69,120
1,note_on,77,69,0
1,note_on,82,82,0
1,note_on,82,0,120
1,note_on,77,0,0
1,note_on,70,0,0
1,note_on,70,72,0
1,note_on,77,72,0
1,note_on,82,85,0
1,note_on,82,0,480
1,note_on,77,0,0
1,note_on,70,0,0
1,note_on,69,67,0
1,note_on,77,70,0
1,note_on,81,83,0
1,note_on,81,0,480
1,note_on,77,0,0
1,note_on,69,0,0
1,note_on,76,64,0
1,note_on,70,64,0
1,note_on,81,78,0
1,note_on,81,0,240
1,note_on,70,0,0
1,note_on,76,0,0
1,note_on,70,61,120
1,note_on,76,61,0
1,note_on,81,73,0
1,note_on,81,0,120
1,note_on,76,0,0
1,note_on,70,0,0
1,note_on,70,63,0
1,note_on,76,63,0
1,note_on,81,76,0
1,note_on,81,0,480
1,note_on,76,0,0
1,note_on,70,0,0
1,note_on,70,60,0
1,note_on,76,60,0
1,note_on,79,72,0
1,note_on,79,0,480
1,note_on,76,0,0
1,note_on,70,0,0
1,note_on,75,58,0
1,note_on,69,58,0
1,note_on,79,70,0
1,note_on,79,0,240
1,note_on,69,0,0
1,note_on,75,0,0
1,note_on,69,52,120
1,note_on,75,52,0
1,note_on,79,62,0
1,note_on,79,0,120
1,note_on,75,0,0
1,note_on,69,0,0
1,note_on,69,54,0
1,note_on,75,54,0
1,note_on,79,64,0
1,note_on,79,0,480
1,note_on,75,0,0
1,note_on,69,0,0
1,note_on,69,46,0
1,note_on,75,46,0
1,note_on,77,56,0
1,note_on,77,0,480
1,note_on,75,0,0
1,note_on,69,0,0
1,note_on,74,61,0
1,note_on,74,0,360
1,note_on,74,58,0
1,note_on,74,0,120
1,note_on,65,45,0
1,note_on,70,45,0
1,note_on,75,62,0
1,note_on,75,0,480
1,note_on,70,0,0
1,note_on,65,0,0
1,note_on,65,46,0
1,note_on,70,46,0
1,note_on,76,55,0
1,note_on,76,0,480
1,note_on,70,0,0
1,note_on,65,0,0
1,note_on,78,64,0
1,note_on,78,0,360
1,note_on,77,60,0
1,note_on,77,0,120
1,note_on,65,53,0
1,note_on,72,64,0
1,note_on,65,0,360
1,note_on,66,47,0
1,note_on,66,0,120
1,note_on,72,0,0
1,note_on,65,48,0
1,note_on,72,57,0
1,note_on,72,0,480
1,note_on,65,0,0
1,note_on,73,68,0
1,note_on,73,0,360
1,note_on,73,64,0
1,note_on,73,0,120
1,note_on,65,50,0
1,note_on,70,50,0
1,note_on,75,69,0
1,note_on,75,0,480
1,note_on,70,0,0
1,note_on,65,0,0
1,note_on,65,50,0
1,note_on,70,50,0
1,note_on,76,60,0
1,note_on,76,0,480
1,note_on,70,0,0
1,note_on,65,0,0
1,note_on,78,74,0
1,note_on,78,0,360
1,note_on,77,72,0
1,note_on,77,0,120
1,note_on,73,62,0
1,note_on,68,62,0
1,note_on,80,75,0
1,note_on,80,0,480
1,note_on,68,0,0
1,note_on,73,0,0
1,note_on,73,73,0
1,note_on,85,89,0
1,note_on,85,0,480
1,note_on,73,0,0
1,note_on,72,80,0
1,note_on,66,80,0
1,note_on,78,94,0
1,note_on,78,0,240
1,note_on,66,0,0
1,note_on,72,0,0
1,note_on,66,75,120
1,note_on,72,75,0
1,note_on,78,90,0
1,note_on,78,0,120
1,note_on,72,0,0
1,note_on,66,0,0
1,note_on,66,79,0
1,note_on,72,79,0
1,note_on,78,93,0
1,note_on,78,0,480
1,note_on,72,0,0
1,note_on,66,0,0
1,note_on,66,75,0
1,note_on,72,75,0
1,note_on,78,90,0
1,note_on,78,0,480
1,note_on,72,0,0
1,note_on,66,0,0
1,note_on,73,79,0
1,note_on,66,79,0
1,note_on,78,93,0
1,note_on,78,0,240
1,note_on,66,0,0
1,note_on,73,0,0
1,note_on,66,73,120
1,note_on,73,73,0
1,note_on,78,88,0
1,note_on,78,0,120
1,note_on,73,0,0
1,note_on,66,0,0
1,note_on,66,77,0
1,note_on,73,77,0
1,note_on,78,91,0
1,note_on,78,0,480
1,note_on,73,0,0
1,note_on,66,0,0
1,note_on,65,73,0
1,note_on,73,73,0
1,note_on,77,88,0
1,note_on,77,0,480
1,note_on,73,0,0
1,note_on,65,0,0
1,note_on,72,67,0
1,note_on,66,67,0
1,note_on,77,81,0
1,note_on,77,0,240
1,note_on,66,0,0
1,note_on,72,0,0
1,note_on,66,63,120
1,note_on,72,63,0
1,note_on,77,76,0
1,note_on,77,0,120
1,note_on,72,0,0
1,note_on,66,0,0
1,note_on,66,59,0
1,note_on,72,65,0
1,note_on,77,77,0
1,note_on,77,0,480
1,note_on,72,0,0
1,note_on,66,0,0
1,note_on,66,63,0
1,note_on,72,63,0
1,note_on,75,74,0
1,note_on,75,0,480
1,note_on,72,0,0
1,note_on,66,0,0
1,note_on,66,59,0
1,note_on,75,72,0
1,note_on,75,0,240
1,note_on,66,0,0
1,note_on,66,53,120
1,note_on,68,53,0
1,note_on,75,63,0
1,note_on,75,0,120
1,note_on,68,0,0
1,note_on,66,0,0
1,note_on,66,55,0
1,note_on,68,55,0
1,note_on,75,65,0
1,note_on,75,0,480
1,note_on,66,0,0
1,note_on,65,46,0
1,note_on,73,56,0
1,note_on,73,0,480
1,note_on,65,0,0
1,note_on,68,0,0
1,note_on,68,52,0
1,note_on,74,62,0
1,note_on,74,0,160
1,note_on,68,0,0
1,note_on,62,56,0
1,note_on,62,0,160
1,note_on,68,47,0
1,note_on,74,56,0
1,note_on,62,66,160
1,note_on,62,0,480
1,note_on,74,0,0
1,note_on,62,58,0
1,note_on,74,63,0
1,note_on,74,0,480
1,note_on,62,0,0
1,note_on,68,0,0
1,note_on,69,56,0
1,note_on,74,66,0
1,note_on,74,0,160
1,note_on,69,0,0
1,note_on,62,59,0
1,note_on,62,0,160
1,note_on,69,50,0
1,note_on,74,60,0
1,note_on,62,70,160
1,note_on,62,0,720
1,note_on,74,0,0
1,note_on,61,60,0
1,note_on,73,64,0
1,note_on,73,0,240
1,note_on,61,0,0
1,note_on,69,0,0
1,note_on,68,59,0
1,note_on,74,70,0
1,note_on,74,0,160
1,note_on,68,0,0
1,note_on,62,63,0
1,note_on,62,0,160
1,note_on,68,53,0
1,note_on,74,63,0
1,note_on,62,74,160
1,note_on,62,0,480
1,note_on,74,0,0
1,note_on,62,65,0
1,note_on,74,70,0
1,note_on,74,0,480
1,note_on,62,0,0
1,note_on,68,0,0
1,note_on,69,62,0
1,note_on,74,74,0
1,note_on,74,0,160
1,note_on,69,0,0
1,note_on,62,66,0
1,note_on,62,0,160
1,note_on,69,56,0
1,note_on,74,67,0
1,note_on,62,78,160
1,note_on,62,0,720
1,note_on,74,0,0
1,note_on,61,67,0
1,note_on,73,72,0
1,note_on,73,0,240
1,note_on,61,0,0
1,note_on,69,0,0
1,note_on,68,66,0
1,note_on,74,78,0
1,note_on,74,0,160
1,note_on,68,0,0
1,note_on,62,70,0
1,note_on,62,0,160
1,note_on,68,59,0
1,note_on,74,70,0
1,note_on,62,82,160
1,note_on,62,0,480
1,note_on,74,0,0
1,note_on,62,70,0
1,note_on,74,76,0
1,note_on,74,0,480
1,note_on,62,0,0
1,note_on,68,0,0
1,note_on,69,66,0
1,note_on,74,78,0
1,note_on,74,0,160
1,note_on,69,0,0
1,note_on,62,70,0
1,note_on,62,0,160
1,note_on,69,59,0
1,note_on,74,70,0
1,note_on,62,82,160
1,note_on,62,0,720
1,note_on,74,0,0
1,note_on,61,68,0
1,note_on,73,73,0
1,note_on,73,0,240
1,note_on,61,0,0
1,note_on,69,0,0
1,note_on,68,66,0
1,note_on,74,78,0
1,note_on,74,0,160
1,note_on,68,0,0
1,note_on,62,70,0
1,note_on,62,0,160
1,note_on,68,59,0
1,note_on,74,70,0
1,note_on,62,82,160
1,note_on,62,0,480
1,note_on,74,0,0
1,note_on,62,70,0
1,note_on,74,76,0
1,note_on,74,0,480
1,note_on,62,0,0
1,note_on,68,0,0
1,note_on,69,66,0
1,note_on,74,78,0
1,note_on,74,0,160
1,note_on,69,0,0
1,note_on,62,70,0
1,note_on,62,0,160
1,note_on,69,59,0
1,note_on,74,70,0
1,note_on,62,82,160
1,note_on,62,0,720
1,note_on,74,0,0
1,note_on,61,68,0
1,note_on,73,73,0
1,note_on,73,0,240
1,note_on,61,0,0
1,note_on,69,0,0
1,note_on,68,52,0
1,note_on,74,62,0
1,note_on,74,0,160
1,note_on,68,0,0
1,note_on,62,56,0
1,note_on,62,0,160
1,note_on,68,47,0
1,note_on,74,56,0
1,note_on,62,65,160
1,note_on,62,0,480
1,note_on,74,0,0
1,note_on,62,56,0
1,note_on,74,61,0
1,note_on,74,0,480
1,note_on,62,0,0
1,note_on,68,0,0
1,note_on,69,54,0
1,note_on,74,63,0
1,note_on,74,0,160
1,note_on,69,0,0
1,note_on,62,57,0
1,note_on,62,0,160
1,note_on,69,48,0
1,note_on,74,58,0
1,note_on,62,68,160
1,note_on,62,0,720
1,note_on,74,0,0
1,note_on,61,57,0
1,note_on,73,61,0
1,note_on,73,0,240
1,note_on,61,0,0
1,note_on,69,0,0
1,note_on,68,56,0
1,note_on,74,66,0
1,note_on,74,0,160
1,note_on,68,0,0
1,note_on,62,59,0
1,note_on,62,0,160
1,note_on,68,50,0
1,note_on,74,59,0
1,note_on,62,69,160
1,note_on,62,0,480
1,note_on,74,0,0
1,note_on,62,60,0
1,note_on,74,65,0
1,note_on,74,0,480
1,note_on,62,0,0
1,note_on,68,0,0
1,note_on,69,57,0
1,note_on,74,67,0
1,note_on,74,0,160
1,note_on,69,0,0
1,note_on,62,60,0
1,note_on,62,0,160
1,note_on,69,51,0
1,note_on,74,61,0
1,note_on,62,72,160
1,note_on,62,0,720
1,note_on,74,0,0
1,note_on,61,60,0
1,note_on,73,64,0
1,note_on,73,0,240
1,note_on,61,0,0
1,note_on,69,0,0
1,note_on,68,59,0
1,note_on,74,70,0
1,note_on,74,0,160
1,note_on,68,0,0
1,note_on,62,63,0
1,note_on,62,0,160
1,note_on,68,53,0
1,note_on,74,63,0
1,note_on,62,73,160
1,note_on,62,0,480
1,note_on,74,0,0
1,note_on,62,63,0
1,note_on,74,68,0
1,note_on,74,0,480
1,note_on,62,0,0
1,note_on,68,0,0
1,note_on,69,59,0
1,note_on,74,70,0
1,note_on,74,0,160
1,note_on,69,0,0
1,note_on,62,63,0
1,note_on,62,0,160
1,note_on,69,53,0
1,note_on,74,63,0
1,note_on,62,73,160
1,note_on,62,0,720
1,note_on,74,0,0
1,note_on,61,61,0
1,note_on,73,65,0
1,note_on,73,0,240
1,note_on,61,0,0
1,note_on,69,0,0
1,note_on,68,59,0
1,note_on,74,70,0
1,note_on,74,0,160
1,note_on,68,0,0
1,note_on,62,63,0
1,note_on,62,0,160
1,note_on,68,52,0
1,note_on,74,62,0
1,note_on,62,72,160
1,note_on,62,0,480
1,note_on,74,0,0
1,note_on,62,59,0
1,note_on,74,64,0
1,note_on,74,0,480
1,note_on,62,0,0
1,note_on,68,0,0
1,note_on,67,54,0
1,note_on,74,64,0
1,note_on,74,0,160
1,note_on,67,0,0
1,note_on,62,57,0
1,note_on,62,0,160
1,note_on,67,47,0
1,note_on,74,56,0
1,note_on,62,65,160
1,note_on,62,0,480
1,note_on,61,53,0
1,note_on,74,0,240
1,note_on,73,56,0
1,note_on,73,0,240
1,note_on,61,0,0
1,note_on,67,0,0
1,note_on,69,68,0
1,note_on,69,0,240
1,note_on,73,70,0
1,note_on,73,0,240
1,note_on,74,71,0
1,note_on,66,60,0
1,note_on,74,0,240
1,note_on,76,71,0
1,note_on,76,0,240
1,note_on,66,0,0
1,note_on,78,72,0
1,note_on,66,61,0
1,note_on,78,0,240
1,note_on,79,73,0
1,note_on,79,0,120
1,note_on,78,70,0
1,note_on,78,0,60
1,note_on,79,68,0
1,note_on,79,0,60
1,note_on,66,0,0
1,note_on,78,76,0
1,note_on,78,0,480
1,note_on,67,62,0
1,note_on,76,74,0
1,note_on,76,0,240
1,note_on,74,74,0
1,note_on,74,0,240
1,note_on,67,0,0
1,note_on,67,62,0
1,note_on,73,73,0
1,note_on,73,0,240
1,note_on,71,72,0
1,note_on,71,0,240
1,note_on,67,0,0
1,note_on,69,74,0
1,note_on,69,0,240
1,note_on,74,70,0
1,note_on,74,0,240
1,note_on,66,62,0
1,note_on,74,74,0
1,note_on,74,0,160
1,note_on,76,70,0
1,note_on,76,0,160
1,note_on,74,70,0
1,note_on,74,0,160
1,note_on,66,0,0
1,note_on,66,59,0
1,note_on,73,70,0
1,note_on,73,0,240
1,note_on,71,70,0
1,note_on,71,0,240
1,note_on,66,0,0
1,note_on,73,73,0
1,note_on,64,44,480
1,note_on,69,53,0
1,note_on,69,0,480
1,note_on,64,0,0
1,note_on,67,57,0
1,note_on,69,68,0
1,note_on,69,0,480
1,note_on,67,0,0
1,note_on,73,0,0
1,note_on,69,74,0
1,note_on,69,0,240
1,note_on,73,70,0
1,note_on,73,0,240
1,note_on,74,71,0
1,note_on,66,60,0
1,note_on,74,0,240
1,note_on,76,71,0
1,note_on,76,0,240
1,note_on,66,0,0
1,note_on,78,72,0
1,note_on,66,61,0
1,note_on,78,0,240
1,note_on,79,73,0
1,note_on,79,0,120
1,note_on,78,70,0
1,note_on,78,0,60
1,note_on,79,68,0
1,note_on,79,0,60
1,note_on,66,0,0
1,note_on,78,76,0
1,note_on,78,0,480
1,note_on,67,62,0
1,note_on,76,74,0
1,note_on,76,0,240
1,note_on,74,74,0
1,note_on,74,0,240
1,note_on,67,0,0
1,note_on,67,62,0
1,note_on,73,73,0
1,note_on,73,0,240
1,note_on,71,72,0
1,note_on,71,0,240
1,note_on,67,0,0
1,note_on,69,74,0
1,note_on,69,0,240
1,note_on,73,70,0
1,note_on,73,0,240
1,note_on,67,62,0
1,note_on,73,74,0
1,note_on,73,0,160
1,note_on,74,70,0
1,note_on,74,0,160
1,note_on,73,70,0
1,note_on,73,0,160
1,note_on,67,0,0
1,note_on,67,59,0
1,note_on,71,70,0
1,note_on,71,0,240
1,note_on,69,70,0
1,note_on,69,0,240
1,note_on,67,0,0
1,note_on,74,73,0
1,note_on,66,53,480
1,note_on,66,0,480
1,note_on,66,47,0
1,note_on,74,0,480
1,note_on,69,40,0
1,note_on,69,0,240
1,note_on,73,39,0
1,note_on,73,0,240
1,note_on,66,0,0
1,note_on,74,39,0
1,note_on,66,33,0
1,note_on,74,0,240
1,note_on,76,39,0
1,note_on,76,0,240
1,note_on,66,0,0
1,note_on,78,40,0
1,note_on,66,33,0
1,note_on,78,0,240
1,note_on,79,40,0
1,note_on,79,0,120
1,note_on,78,39,0
1,note_on,78,0,60
1,note_on,79,37,0
1,note_on,79,0,60
1,note_on,66,0,0
1,note_on,78,42,0
1,note_on,78,0,480
1,note_on,67,34,0
1,note_on,76,40,0
1,note_on,76,0,240
1,note_on,74,40,0
1,note_on,74,0,240
1,note_on,67,0,0
1,note_on,67,34,0
1,note_on,73,40,0
1,note_on,73,0,240
1,note_on,71,40,0
1,note_on,71,0,240
1,note_on,67,0,0
1,note_on,69,40,0
1,note_on,69,0,240
1,note_on,74,39,0
1,note_on,74,0,240
1,note_on,66,34,0
1,note_on,74,40,0
1,note_on,74,0,160
1,note_on,76,39,0
1,note_on,76,0,160
1,note_on,74,39,0
1,note_on,74,0,160
1,note_on,66,0,0
1,note_on,66,32,0
1,note_on,73,39,0
1,note_on,73,0,240
1,note_on,71,39,0
1,note_on,71,0,240
1,note_on,66,0,0
1,note_on,73,40,0
1,note_on,64,24,480
1,note_on,69,29,0
1,note_on,69,0,480
1,note_on,64,0,0
1,note_on,67,31,0
1,note_on,69,37,0
1,note_on,69,0,480
1,note_on,67,0,0
1,note_on,73,0,0
1,note_on,69,40,0
1,note_on,69,0,240
1,note_on,73,39,0
1,note_on,73,0,240
1,note_on,74,39,0
1,note_on,66,33,0
1,note_on,74,0,240
1,note_on,76,39,0
1,note_on,76,0,240
1,note_on,66,0,0
1,note_on,78,40,0
1,note_on,66,33,0
1,note_on,78,0,240
1,note_on,79,40,0
1,note_on,79,0,120
1,note_on,78,39,0
1,note_on,78,0,60
1,note_on,79,37,0
1,note_on,79,0,60
1,note_on,66,0,0
1,note_on,78,42,0
1,note_on,78,0,480
1,note_on,67,34,0
1,note_on,76,40,0
1,note_on,76,0,240
1,note_on,74,40,0
1,note_on,74,0,240
1,note_on,67,0,0
1,note_on,67,34,0
1,note_on,73,40,0
1,note_on,73,0,240
1,note_on,71,40,0
1,note_on,71,0,240
1,note_on,67,0,0
1,note_on,69,40,0
1,note_on,69,0,240
1,note_on,73,39,0
1,note_on,73,0,240
1,note_on,67,34,0
1,note_on,73,40,0
1,note_on,73,0,160
1,note_on,74,39,0
1,note_on,74,0,160
1,note_on,73,39,0
1,note_on,73,0,160
1,note_on,67,0,0
1,note_on,67,32,0
1,note_on,71,39,0
1,note_on,71,0,240
1,note_on,69,39,0
1,note_on,69,0,240
1,note_on,67,0,0
1,note_on,74,40,0
1,note_on,66,29,480
1,note_on,66,0,480
1,note_on,66,37,0
1,note_on,66,0,480
1,note_on,74,0,0
1,note_on,64,73,0
1,note_on,64,0,240
1,note_on,68,70,0
1,note_on,68,0,240
1,note_on,69,71,0
1,note_on,61,60,0
1,note_on,69,0,240
1,note_on,71,71,0
1,note_on,71,0,240
1,note_on,61,0,0
1,note_on,73,72,0
1,note_on,61,61,0
1,note_on,73,0,240
1,note_on,74,73,0
1,note_on,74,0,120
1,note_on,73,70,0
1,note_on,73,0,60
1,note_on,74,68,0
1,note_on,74,0,60
1,note_on,61,0,0
1,note_on,73,76,0
1,note_on,73,0,480
1,note_on,62,62,0
1,note_on,71,74,0
1,note_on,71,0,240
1,note_on,69,74,0
1,note_on,69,0,240
1,note_on,62,0,0
1,note_on,62,62,0
1,note_on,68,73,0
1,note_on,68,0,240
1,note_on,66,72,0
1,note_on,66,0,240
1,note_on,62,0,0
1,note_on,64,74,0
1,note_on,64,0,240
1,note_on,69,70,0
1,note_on,69,0,240
1,note_on,61,62,0
1,note_on,69,74,0
1,note_on,69,0,160
1,note_on,71,70,0
1,note_on,71,0,160
1,note_on,69,70,0
1,note_on,69,0,160
1,note_on,61,0,0
1,note_on,61,59,0
1,note_on,68,70,0
1,note_on,68,0,240
1,note_on,66,70,0
1,note_on,66,0,240
1,note_on,61,0,0
1,note_on,68,73,0
1,note_on,59,44,480
1,note_on,64,53,0
1,note_on,64,0,480
1,note_on,59,0,0
1,note_on,62,57,0
1,note_on,64,68,0
1,note_on,64,0,480
1,note_on,62,0,0
1,note_on,68,0,0
1,note_on,64,74,0
1,note_on,64,0,240
1,note_on,68,70,0
1,note_on,68,0,240
1,note_on,69,71,0
1,note_on,61,60,0
1,note_on,69,0,240
1,note_on,71,71,0
1,note_on,71,0,240
1,note_on,61,0,0
1,note_on,73,72,0
1,note_on,61,61,0
1,note_on,73,0,240
1,note_on,74,73,0
1,note_on,74,0,120
1,note_on,73,70,0
1,note_on,73,0,60
1,note_on,74,68,0
1,note_on,74,0,60
1,note_on,61,0,0
1,note_on,73,76,0
1,note_on,73,0,480
1,note_on,62,62,0
1,note_on,71,74,0
1,note_on,71,0,240
1,note_on,69,74,0
1,note_on,69,0,240
1,note_on,62,0,0
1,note_on,62,62,0
1,note_on,68,73,0
1,note_on,68,0,240
1,note_on,66,72,0
1,note_on,66,0,240
1,note_on,62,0,0
1,note_on,64,74,0
1,note_on,64,0,240
1,note_on,68,70,0
1,note_on,68,0,240
1,note_on,62,62,0
1,note_on,68,74,0
1,note_on,68,0,160
1,note_on,69,70,0
1,note_on,69,0,160
1,note_on,68,70,0
1,note_on,68,0,160
1,note_on,62,0,0
1,note_on,62,59,0
1,note_on,66,70,0
1,note_on,66,0,240
1,note_on,64,70,0
1,note_on,64,0,240
1,note_on,62,0,0
1,note_on,69,73,0
1,note_on,61,53,480
1,note_on,61,0,480
1,note_on,61,47,0
1,note_on,69,0,480
1,note_on,64,40,0
1,note_on,64,0,240
1,note_on,68,39,0
1,note_on,68,0,240
1,note_on,61,0,0
1,note_on,69,39,0
1,note_on,61,33,0
1,note_on,69,0,240
1,note_on,71,39,0
1,note_on,71,0,240
1,note_on,61,0,0
1,note_on,73,40,0
1,note_on,61,33,0
1,note_on,73,0,240
1,note_on,74,40,0
1,note_on,74,0,120
1,note_on,73,39,0
1,note_on,73,0,60
1,note_on,74,37,0
1,note_on,74,0,60
1,note_on,61,0,0
1,note_on,73,42,0
1,note_on,73,0,480
1,note_on,62,34,0
1,note_on,71,40,0
1,note_on,71,0,240
1,note_on,69,40,0
1,note_on,69,0,240
1,note_on,62,0,0
1,note_on,62,34,0
1,note_on,68,40,0
1,note_on,68,0,240
1,note_on,66,40,0
1,note_on,66,0,240
1,note_on,62,0,0
1,note_on,64,40,0
1,note_on,64,0,240
1,note_on,69,39,0
1,note_on,69,0,240
1,note_on,61,34,0
1,note_on,69,40,0
1,note_on,69,0,160
1,note_on,71,39,0
1,note_on,71,0,160
1,note_on,69,39,0
1,note_on,69,0,160
1,note_on,61,0,0
1,note_on,61,32,0
1,note_on,68,39,0
1,note_on,68,0,240
1,note_on,66,39,0
1,note_on,66,0,240
1,note_on,61,0,0
1,note_on,68,40,0
1,note_on,59,24,480
1,note_on,64,29,0
1,note_on,64,0,480
1,note_on,59,0,0
1,note_on,62,31,0
1,note_on,64,37,0
1,note_on,64,0,480
1,note_on,62,0,0
1,note_on,68,0,0
1,note_on,64,40,0
1,note_on,64,0,240
1,note_on,68,39,0
1,note_on,68,0,240
1,note_on,69,39,0
1,note_on,61,33,0
1,note_on,69,0,240
1,note_on,71,39,0
1,note_on,71,0,240
1,note_on,61,0,0
1,note_on,73,40,0
1,note_on,61,33,0
1,note_on,73,0,240
1,note_on,74,40,0
1,note_on,74,0,120
1,note_on,73,39,0
1,note_on,73,0,60
1,note_on,74,37,0
1,note_on,74,0,60
1,note_on,61,0,0
1,note_on,73,42,0
1,note_on,73,0,480
1,note_on,62,34,0
1,note_on,71,40,0
1,note_on,71,0,240
1,note_on,69,40,0
1,note_on,69,0,240
1,note_on,62,0,0
1,note_on,62,34,0
1,note_on,68,40,0
1,note_on,68,0,240
1,note_on,66,40,0
1,note_on,66,0,240
1,note_on,62,0,0
1,note_on,64,40,0
1,note_on,64,0,240
1,note_on,68,39,0
1,note_on,68,0,240
1,note_on,62,34,0
1,note_on,68,40,0
1,note_on,68,0,160
1,note_on,69,39,0
1,note_on,69,0,160
1,note_on,68,39,0
1,note_on,68,0,160
1,note_on,62,0,0
1,note_on,62,32,0
1,note_on,66,39,0
1,note_on,66,0,240
1,note_on,64,39,0
1,note_on,64,0,240
1,note_on,62,0,0
1,note_on,69,40,0
1,note_on,61,37,480
1,note_on,61,0,480
1,note_on,67,73,0
1,note_on,61,73,0
1,note_on,61,0,480
1,note_on,67,0,0
1,note_on,66,78,0
1,note_on,69,0,240
1,note_on,73,80,0
1,note_on,73,0,240
1,note_on,66,0,0
1,note_on,74,81,0
1,note_on,66,69,0
1,note_on,74,0,240
1,note_on,76,81,0
1,note_on,76,0,240
1,note_on,66,0,0
1,note_on,78,82,0
1,note_on,66,70,0
1,note_on,78,0,240
1,note_on,79,83,0
1,note_on,79,0,120
1,note_on,78,80,0
1,note_on,78,0,60
1,note_on,79,78,0
1,note_on,79,0,60
1,note_on,66,0,0
1,note_on,78,87,0
1,note_on,78,0,480
1,note_on,67,71,0
1,note_on,76,85,0
1,note_on,76,0,240
1,note_on,74,85,0
1,note_on,74,0,240
1,note_on,67,0,0
1,note_on,67,71,0
1,note_on,73,83,0
1,note_on,73,0,240
1,note_on,71,82,0
1,note_on,71,0,240
1,note_on,67,0,0
1,note_on,69,85,0
1,note_on,69,0,240
1,note_on,74,80,0
1,note_on,74,0,240
1,note_on,66,71,0
1,note_on,74,85,0
1,note_on,74,0,160
1,note_on,76,80,0
1,note_on,76,0,160
1,note_on,74,80,0
1,note_on,74,0,160
1,note_on,66,0,0
1,note_on,66,67,0
1,note_on,73,80,0
1,note_on,73,0,240
1,note_on,71,80,0
1,note_on,71,0,240
1,note_on,66,0,0
1,note_on,73,83,0
1,note_on,64,50,480
1,note_on,69,60,0
1,note_on,69,0,480
1,note_on,64,0,0
1,note_on,67,65,0
1,note_on,69,78,0
1,note_on,69,0,480
1,note_on,67,0,0
1,note_on,73,0,0
1,note_on,69,85,0
1,note_on,69,0,240
1,note_on,73,80,0
1,note_on,73,0,240
1,note_on,74,81,0
1,note_on,66,69,0
1,note_on,74,0,240
1,note_on,76,81,0
1,note_on,76,0,240
1,note_on,66,0,0
1,note_on,78,82,0
1,note_on,66,70,0
1,note_on,78,0,240
1,note_on,79,83,0
1,note_on,79,0,120
1,note_on,78,80,0
1,note_on,78,0,60
1,note_on,79,78,0
1,note_on,79,0,60
1,note_on,66,0,0
1,note_on,78,87,0
1,note_on,78,0,480
1,note_on,67,71,0
1,note_on,76,85,0
1,note_on,76,0,240
1,note_on,74,85,0
1,note_on,74,0,240
1,note_on,67,0,0
1,note_on,67,71,0
1,note_on,73,83,0
1,note_on,73,0,240
1,note_on,71,82,0
1,note_on,71,0,240
1,note_on,67,0,0
1,note_on,69,85,0
1,note_on,69,0,240
1,note_on,73,80,0
1,note_on,73,0,240
1,note_on,67,71,0
1,note_on,73,85,0
1,note_on,73,0,160
1,note_on,74,80,0
1,note_on,74,0,160
1,note_on,73,80,0
1,note_on,73,0,160
1,note_on,67,0,0
1,note_on,67,67,0
1,note_on,71,80,0
1,note_on,71,0,240
1,note_on,69,80,0
1,note_on,69,0,240
1,note_on,67,0,0
1,note_on,74,83,0
1,note_on,66,60,480
1,note_on,66,0,480
1,note_on,66,54,0
1,note_on,74,0,480
1,note_on,69,40,0
1,note_on,69,0,240
1,note_on,73,39,0
1,note_on,73,0,240
1,note_on,66,0,0
1,note_on,74,39,0
1,note_on,66,33,0
1,note_on,74,0,240
1,note_on,76,39,0
1,note_on,76,0,240
1,note_on,66,0,0
1,note_on,78,40,0
1,note_on,66,33,0
1,note_on,78,0,240
1,note_on,79,40,0
1,note_on,79,0,120
1,note_on,78,39,0
1,note_on,78,0,60
1,note_on,79,37,0
1,note_on,79,0,60
1,note_on,66,0,0
1,note_on,78,42,0
1,note_on,78,0,480
1,note_on,67,34,0
1,note_on,76,40,0
1,note_on,76,0,240
1,note_on,74,40,0
1,note_on,74,0,240
1,note_on,67,0,0
1,note_on,67,34,0
1,note_on,73,40,0
1,note_on,73,0,240
1,note_on,71,40,0
1,note_on,71,0,240
1,note_on,67,0,0
1,note_on,69,40,0
1,note_on,69,0,240
1,note_on,74,39,0
1,note_on,74,0,240
1,note_on,66,34,0
1,note_on,74,40,0
1,note_on,74,0,160
1,note_on,76,39,0
1,note_on,76,0,160
1,note_on,74,39,0
1,note_on,74,0,160
1,note_on,66,0,0
1,note_on,66,32,0
1,note_on,73,39,0
1,note_on,73,0,240
1,note_on,71,39,0
1,note_on,71,0,240
1,note_on,66,0,0
1,note_on,73,40,0
1,note_on,64,24,480
1,note_on,69,29,0
1,note_on,69,0,480
1,note_on,64,0,0
1,note_on,67,31,0
1,note_on,69,37,0
1,note_on,69,0,480
1,note_on,67,0,0
1,note_on,73,0,0
1,note_on,69,40,0
1,note_on,69,0,240
1,note_on,73,39,0
1,note_on,73,0,240
1,note_on,74,39,0
1,note_on,66,33,0
1,note_on,74,0,240
1,note_on,76,39,0
1,note_on,76,0,240
1,note_on,66,0,0
1,note_on,78,40,0
1,note_on,66,33,0
1,note_on,78,0,240
1,note_on,79,40,0
1,note_on,79,0,120
1,note_on,78,39,0
1,note_on,78,0,60
1,note_on,79,37,0
1,note_on,79,0,60
1,note_on,66,0,0
1,note_on,78,42,0
1,note_on,78,0,480
1,note_on,67,34,0
1,note_on,76,40,0
1,note_on,76,0,240
1,note_on,74,40,0
1,note_on,74,0,240
1,note_on,67,0,0
1,note_on,67,34,0
1,note_on,73,40,0
1,note_on,73,0,240
1,note_on,71,40,0
1,note_on,71,0,240
1,note_on,67,0,0
1,note_on,69,40,0
1,note_on,69,0,240
1,note_on,73,39,0
1,note_on,73,0,240
1,note_on,67,34,0
1,note_on,73,40,0
1,note_on,73,0,160
1,note_on,74,39,0
1,note_on,74,0,160
1,note_on,73,39,0
1,note_on,73,0,160
1,note_on,67,0,0
1,note_on,67,32,0
1,note_on,71,39,0
1,note_on,71,0,240
1,note_on,69,39,0
1,note_on,69,0,240
1,note_on,67,0,0
1,note_on,74,40,0
1,note_on,66,29,480
1,note_on,66,0,480
1,note_on,66,37,0
1,note_on,66,0,480
1,note_on,74,0,0
1,note_on,74,43,0
1,note_on,66,47,0
1,note_on,66,0,240
1,note_on,69,45,0
1,note_on,69,0,240
1,note_on,69,49,0
1,note_on,69,0,180
1,note_on,71,41,0
1,note_on,71,0,60
1,note_on,69,46,0
1,note_on,69,0,240
1,note_on,68,46,0
1,note_on,68,0,240
1,note_on,64,45,0
1,note_on,64,0,240
1,note_on,74,0,0
1,note_on,74,44,0
1,note_on,64,50,0
1,note_on,64,0,240
1,note_on,67,47,0
1,note_on,67,0,240
1,note_on,67,51,0
1,note_on,67,0,180
1,note_on,69,43,0
1,note_on,69,0,60
1,note_on,67,48,0
1,note_on,67,0,240
1,note_on,66,48,0
1,note_on,66,0,240
1,note_on,62,43,0
1,note_on,62,0,240
1,note_on,74,0,0
1,note_on,74,45,0
1,note_on,66,50,0
1,note_on,66,0,240
1,note_on,69,48,0
1,note_on,69,0,240
1,note_on,69,52,0
1,note_on,69,0,180
1,note_on,71,44,0
1,note_on,71,0,60
1,note_on,69,48,0
1,note_on,69,0,240
1,note_on,68,48,0
1,note_on,68,0,240
1,note_on,64,44,0
1,note_on,64,0,240
1,note_on,74,0,0
1,note_on,74,46,0
1,note_on,64,53,0
1,note_on,64,0,240
1,note_on,67,50,0
1,note_on,67,0,240
1,note_on,67,53,0
1,note_on,67,0,180
1,note_on,69,46,0
1,note_on,69,0,60
1,note_on,67,50,0
1,note_on,67,0,240
1,note_on,66,51,0
1,note_on,66,0,240
1,note_on,62,44,0
1,note_on,62,0,240
1,note_on,74,0,0
1,note_on,69,48,0
1,note_on,62,53,0
1,note_on,62,0,240
1,note_on,66,51,0
1,note_on,66,0,240
1,note_on,66,55,0
1,note_on,66,0,180
1,note_on,67,46,0
1,note_on,67,0,60
1,note_on,66,51,0
1,note_on,66,0,240
1,note_on,64,51,0
1,note_on,64,0,240
1,note_on,59,46,0
1,note_on,59,0,240
1,note_on,69,0,0
1,note_on,69,48,0
1,note_on,61,55,0
1,note_on,61,0,240
1,note_on,64,52,0
1,note_on,64,0,240
1,note_on,64,55,0
1,note_on,64,0,180
1,note_on,66,47,0
1,note_on,66,0,60
1,note_on,64,52,0
1,note_on,64,0,240
1,note_on,62,52,0
1,note_on,62,0,240
1,note_on,57,46,0
1,note_on,57,0,240
1,note_on,69,0,0
1,note_on,69,48,0
1,note_on,62,53,0
1,note_on,62,0,240
1,note_on,66,51,0
1,note_on,66,0,240
1,note_on,66,54,0
1,note_on,66,0,180
1,note_on,67,45,0
1,note_on,67,0,60
1,note_on,66,50,0
1,note_on,66,0,240
1,note_on,64,49,0
1,note_on,64,0,240
1,note_on,59,45,0
1,note_on,59,0,240
1,note_on,69,0,0
1,note_on,69,46,0
1,note_on,61,53,0
1,note_on,61,0,240
1,note_on,64,50,0
1,note_on,64,0,240
1,note_on,64,52,0
1,note_on,64,0,180
1,note_on,66,45,0
1,note_on,66,0,60
1,note_on,64,49,0
1,note_on,64,0,240
1,note_on,62,49,0
1,note_on,62,0,240
1,note_on,57,41,0
1,note_on,57,0,240
1,note_on,69,0,0
1,note_on,62,40,0
1,note_on,54,44,0
1,note_on,54,0,240
1,note_on,57,42,0
1,note_on,57,0,240
1,note_on,57,45,0
1,note_on,57,0,180
1,note_on,59,38,0
1,note_on,59,0,60
1,note_on,57,41,0
1,note_on,57,0,240
1,note_on,56,41,0
1,note_on,56,0,240
1,note_on,52,35,0
1,note_on,52,0,240
1,note_on,62,0,0
1,note_on,62,39,0
1,note_on,52,44,0
1,note_on,52,0,240
1,note_on,55,41,0
1,note_on,55,0,240
1,note_on,55,44,0
1,note_on,55,0,180
1,note_on,57,37,0
1,note_on,57,0,60
1,note_on,55,41,0
1,note_on,55,0,240
1,note_on,54,40,0
1,note_on,54,0,240
1,note_on,50,34,0
1,note_on,50,0,240
1,note_on,62,0,0
1,note_on,62,33,0
1,note_on,54,36,0
1,note_on,54,0,240
1,note_on,57,35,0
1,note_on,57,0,240
1,note_on,57,38,0
1,note_on,57,0,180
1,note_on,59,31,0
1,note_on,59,0,60
1,note_on,57,34,0
1,note_on,57,0,240
1,note_on,56,34,0
1,note_on,56,0,240
1,note_on,52,30,0
1,note_on,52,0,240
1,note_on,62,0,0
1,note_on,62,32,0
1,note_on,52,37,0
1,note_on,52,0,240
1,note_on,55,34,0
1,note_on,55,0,240
1,note_on,55,37,0
1,note_on,55,0,180
1,note_on,57,31,0
1,note_on,57,0,60
1,note_on,55,34,0
1,note_on,55,0,240
1,note_on,54,34,0
1,note_on,54,0,240
1,note_on,50,30,0
1,note_on,50,0,240
1,note_on,62,0,0
1,note_on,50,39,0
1,note_on,57,46,0
1,note_on,57,0,480
1,note_on,50,0,0
1,note_on,62,41,0
1,note_on,69,49,0
1,note_on,69,0,480
1,note_on,62,0,0
1,note_on,74,48,0
1,note_on,74,0,240
1,note_on,81,49,0
1,note_on,81,0,240
1,note_on,86,51,0
1,note_on,86,0,120
1,note_on,90,53,120
1,note_on,90,0,120
1,note_on,92,55,120
1,note_on,92,0,120
1,note_on,93,57,120
1,note_on,93,0,120
1,note_on,95,59,120
1,note_on,95,0,120
1,note_on,97,62,120
1,note_on,97,0,120
1,note_on,98,64,120
1,note_on,98,0,1440
2,note_on,50,59,1440
2,note_on,50,0,190
2,note_on,50,52,240
2,note_on,57,52,0
2,note_on,62,52,0
2,note_on,62,0,480
2,note_on,57,0,0
2,note_on,50,0,0
2,note_on,50,52,0
2,note_on,57,52,0
2,note_on,62,52,0
2,note_on,62,0,480
2,note_on,57,0,0
2,note_on,50,0,0
2,note_on,45,59,0
2,note_on,45,0,85
2,note_on,52,54,240
2,note_on,57,54,0
2,note_on,61,54,0
2,note_on,61,0,480
2,note_on,57,0,0
2,note_on,52,0,0
2,note_on,52,54,0
2,note_on,57,54,0
2,note_on,61,54,0
2,note_on,61,0,466
2,note_on,57,0,0
2,note_on,52,0,0
2,note_on,38,59,0
2,note_on,38,0,113
2,note_on,50,54,240
2,note_on,57,54,0
2,note_on,62,54,0
2,note_on,62,0,480
2,note_on,57,0,0
2,note_on,50,0,0
2,note_on,50,54,0
2,note_on,57,54,0
2,note_on,62,54,0
2,note_on,62,0,466
2,note_on,57,0,0
2,note_on,50,0,0
2,note_on,45,59,0
2,note_on,45,0,42
2,note_on,57,43,240
2,note_on,57,0,480
2,note_on,57,56,0
2,note_on,64,56,0
2,note_on,64,0,480
2,note_on,57,0,0
2,note_on,50,59,0
2,note_on,50,0,194
2,note_on,57,52,240
2,note_on,62,52,0
2,note_on,62,0,480
2,note_on,57,0,0
2,note_on,50,52,0
2,note_on,57,52,0
2,note_on,62,52,0
2,note_on,62,0,480
2,note_on,57,0,0
2,note_on,50,0,0
2,note_on,43,59,0
2,note_on,43,0,42
2,note_on,59,54,240
2,note_on,64,54,0
2,note_on,64,0,480
2,note_on,59,0,0
2,note_on,52,54,0
2,note_on,59,54,0
2,note_on,64,54,0
2,note_on,64,0,470
2,note_on,59,0,0
2,note_on,52,0,0
2,note_on,45,59,0
2,note_on,45,0,106
2,note_on,57,54,240
2,note_on,64,54,0
2,note_on,64,0,480
2,note_on,57,0,0
2,note_on,57,54,0
2,note_on,64,54,0
2,note_on,64,0,466
2,note_on,57,0,0
2,note_on,38,59,0
2,note_on,38,0,71
2,note_on,50,36,240
2,note_on,57,36,0
2,note_on,62,43,0
2,note_on,62,0,480
2,note_on,57,0,0
2,note_on,50,0,0
2,note_on,50,39,0
2,note_on,57,39,0
2,note_on,62,39,0
2,note_on,62,0,378
2,note_on,57,0,0
2,note_on,50,0,0
2,note_on,50,23,0
2,note_on,57,23,0
2,note_on,62,23,0
2,note_on,62,0,480
2,note_on,57,0,0
2,note_on,50,0,0
2,note_on,50,23,0
2,note_on,57,23,0
2,note_on,62,23,0
2,note_on,62,0,480
2,note_on,57,0,0
2,note_on,50,0,0
2,note_on,45,27,0
2,note_on,45,0,14
2,note_on,52,24,240
2,note_on,57,24,0
2,note_on,61,24,0
2,note_on,61,0,480
2,note_on,57,0,0
2,note_on,52,0,0
2,note_on,52,24,0
2,note_on,57,24,0
2,note_on,61,24,0
2,note_on,61,0,466
2,note_on,57,0,0
2,note_on,52,0,0
2,note_on,38,27,0
2,note_on,38,0,134
2,note_on,50,24,240
2,note_on,57,24,0
2,note_on,62,24,0
2,note_on,62,0,480
2,note_on,57,0,0
2,note_on,50,0,0
2,note_on,50,24,0
2,note_on,57,24,0
2,note_on,62,24,0
2,note_on,62,0,470
2,note_on,57,0,0
2,note_on,50,0,0
2,note_on,45,27,0
2,note_on,45,0,28
2,note_on,61,20,240
2,note_on,57,20,0
2,note_on,57,0,480
2,note_on,61,0,0
2,note_on,57,26,0
2,note_on,64,26,0
2,note_on,64,0,480
2,note_on,50,27,0
2,note_on,50,0,388
2,note_on,57,0,0
2,note_on,57,23,0
2,note_on,62,23,0
2,note_on,62,0,480
2,note_on,57,0,0
2,note_on,50,23,0
2,note_on,57,23,0
2,note_on,62,23,0
2,note_on,62,0,480
2,note_on,57,0,0
2,note_on,50,0,0
2,note_on,43,27,0
2,note_on,43,0,14
2,note_on,59,24,240
2,note_on,64,24,0
2,note_on,64,0,480
2,note_on,59,0,0
2,note_on,52,24,0
2,note_on,59,24,0
2,note_on,64,24,0
2,note_on,64,0,471
2,note_on,59,0,0
2,note_on,52,0,0
2,note_on,45,27,0
2,note_on,45,0,99
2,note_on,57,24,240
2,note_on,64,24,0
2,note_on,64,0,480
2,note_on,57,0,0
2,note_on,57,24,0
2,note_on,64,24,0
2,note_on,64,0,468
2,note_on,57,0,0
2,note_on,38,27,0
2,note_on,38,0,13
2,note_on,50,17,240
2,note_on,57,17,0
2,note_on,62,20,0
2,note_on,62,0,480
2,note_on,57,0,0
2,note_on,50,0,0
2,note_on,50,26,0
2,note_on,57,26,0
2,note_on,62,26,0
2,note_on,62,0,480
2,note_on,57,0,0
2,note_on,50,0,0
2,note_on,45,59,0
2,note_on,45,0,173
2,note_on,45,52,240
2,note_on,52,52,0
2,note_on,57,52,0
2,note_on,57,0,480
2,note_on,52,0,0
2,note_on,45,0,0
2,note_on,45,52,0
2,note_on,52,52,0
2,note_on,57,52,0
2,note_on,57,0,480
2,note_on,52,0,0
2,note_on,45,0,0
2,note_on,40,59,0
2,note_on,40,0,34
2,note_on,52,54,240
2,note_on,59,54,0
2,note_on,59,0,480
2,note_on,52,0,0
2,note_on,52,54,0
2,note_on,59,54,0
2,note_on,59,0,468
2,note_on,52,0,0
2,note_on,33,59,0
2,note_on,33,0,120
2,note_on,45,54,240
2,note_on,52,54,0
2,note_on,57,54,0
2,note_on,57,0,480
2,note_on,52,0,0
2,note_on,45,0,0
2,note_on,45,54,0
2,note_on,52,54,0
2,note_on,57,54,0
2,note_on,57,0,466
2,note_on,52,0,0
2,note_on,45,0,0
2,note_on,40,59,0
2,note_on,40,0,240
2,note_on,52,43,226
2,note_on,52,0,480
2,note_on,52,56,0
2,note_on,59,56,0
2,note_on,59,0,480
2,note_on,52,0,0
2,note_on,45,59,0
2,note_on,45,0,141
2,note_on,52,52,240
2,note_on,57,52,0
2,note_on,57,0,480
2,note_on,52,0,0
2,note_on,45,52,0
2,note_on,52,52,0
2,note_on,57,52,0
2,note_on,57,0,480
2,note_on,52,0,0
2,note_on,45,0,0
2,note_on,38,59,0
2,note_on,38,0,45
2,note_on,54,54,240
2,note_on,59,54,0
2,note_on,59,0,480
2,note_on,54,0,0
2,note_on,47,54,0
2,note_on,54,54,0
2,note_on,59,54,0
2,note_on,59,0,468
2,note_on,54,0,0
2,note_on,47,0,0
2,note_on,40,59,0
2,note_on,40,0,120
2,note_on,52,54,240
2,note_on,59,54,0
2,note_on,59,0,480
2,note_on,52,0,0
2,note_on,52,54,0
2,note_on,59,54,0
2,note_on,59,0,466
2,note_on,52,0,0
2,note_on,33,59,0
2,note_on,33,0,28
2,note_on,45,36,240
2,note_on,52,36,0
2,note_on,57,43,0
2,note_on,57,0,480
2,note_on,52,0,0
2,note_on,45,0,0
2,note_on,45,39,0
2,note_on,52,39,0
2,note_on,57,39,0
2,note_on,57,0,378
2,note_on,52,0,0
2,note_on,45,0,0
2,note_on,45,23,0
2,note_on,52,23,0
2,note_on,57,23,0
2,note_on,57,0,480
2,note_on,52,0,0
2,note_on,45,0,0
2,note_on,45,23,0
2,note_on,52,23,0
2,note_on,57,23,0
2,note_on,57,0,480
2,note_on,52,0,0
2,note_on,45,0,0
2,note_on,40,27,0
2,note_on,40,0,85
2,note_on,52,24,240
2,note_on,59,24,0
2,note_on,59,0,480
2,note_on,52,0,0
2,note_on,52,24,0
2,note_on,59,24,0
2,note_on,59,0,466
2,note_on,52,0,0
2,note_on,33,27,0
2,note_on,33,0,99
2,note_on,45,24,240
2,note_on,52,24,0
2,note_on,57,24,0
2,note_on,57,0,480
2,note_on,52,0,0
2,note_on,45,0,0
2,note_on,45,24,0
2,note_on,52,24,0
2,note_on,57,24,0
2,note_on,57,0,470
2,note_on,52,0,0
2,note_on,45,0,0
2,note_on,40,27,0
2,note_on,40,0,11
2,note_on,52,20,240
2,note_on,52,0,480
2,note_on,52,26,0
2,note_on,59,26,0
2,note_on,59,0,480
2,note_on,45,27,0
2,note_on,45,0,388
2,note_on,52,0,0
2,note_on,52,23,0
2,note_on,57,23,0
2,note_on,57,0,480
2,note_on,52,0,0
2,note_on,45,23,0
2,note_on,52,23,0
2,note_on,57,23,0
2,note_on,57,0,480
2,note_on,52,0,0
2,note_on,45,0,0
2,note_on,38,27,0
2,note_on,38,0,23
2,note_on,54,24,240
2,note_on,59,24,0
2,note_on,59,0,480
2,note_on,54,0,0
2,note_on,47,24,0
2,note_on,54,24,0
2,note_on,59,24,0
2,note_on,59,0,467
2,note_on,54,0,0
2,note_on,47,0,0
2,note_on,40,27,0
2,note_on,40,0,99
2,note_on,52,24,240
2,note_on,59,24,0
2,note_on,59,0,480
2,note_on,52,0,0
2,note_on,52,24,0
2,note_on,59,24,0
2,note_on,59,0,466
2,note_on,52,0,0
2,note_on,33,32,0
2,note_on,33,0,240
2,note_on,57,25,226
2,note_on,64,30,0
2,note_on,64,0,480
2,note_on,57,0,0
2,note_on,57,60,0
2,note_on,64,60,0
2,note_on,64,0,480
2,note_on,57,0,0
2,note_on,50,67,0
2,note_on,50,0,173
2,note_on,50,59,240
2,note_on,57,59,0
2,note_on,62,59,0
2,note_on,62,0,480
2,note_on,57,0,0
2,note_on,50,0,0
2,note_on,50,59,0
2,note_on,57,59,0
2,note_on,62,59,0
2,note_on,62,0,480
2,note_on,57,0,0
2,note_on,50,0,0
2,note_on,45,67,0
2,note_on,45,0,28
2,note_on,52,62,240
2,note_on,57,62,0
2,note_on,61,62,0
2,note_on,61,0,480
2,note_on,57,0,0
2,note_on,52,0,0
2,note_on,52,62,0
2,note_on,57,62,0
2,note_on,61,62,0
2,note_on,61,0,466
2,note_on,57,0,0
2,note_on,52,0,0
2,note_on,38,67,0
2,note_on,38,0,127
2,note_on,50,62,240
2,note_on,57,62,0
2,note_on,62,62,0
2,note_on,62,0,480
2,note_on,57,0,0
2,note_on,50,0,0
2,note_on,50,62,0
2,note_on,57,62,0
2,note_on,62,62,0
2,note_on,62,0,467
2,note_on,57,0,0
2,note_on,50,0,0
2,note_on,45,67,0
2,note_on,45,0,71
2,note_on,57,49,240
2,note_on,57,0,480
2,note_on,57,64,0
2,note_on,64,64,0
2,note_on,64,0,480
2,note_on,57,0,0
2,note_on,50,67,0
2,note_on,50,0,159
2,note_on,57,59,240
2,note_on,62,59,0
2,note_on,62,0,480
2,note_on,57,0,0
2,note_on,50,59,0
2,note_on,57,59,0
2,note_on,62,59,0
2,note_on,62,0,480
2,note_on,57,0,0
2,note_on,50,0,0
2,note_on,43,67,0
2,note_on,43,0,13
2,note_on,59,62,240
2,note_on,64,62,0
2,note_on,64,0,480
2,note_on,59,0,0
2,note_on,52,62,0
2,note_on,59,62,0
2,note_on,64,62,0
2,note_on,64,0,474
2,note_on,59,0,0
2,note_on,52,0,0
2,note_on,45,67,0
2,note_on,45,0,127
2,note_on,57,62,240
2,note_on,64,62,0
2,note_on,64,0,480
2,note_on,57,0,0
2,note_on,57,62,0
2,note_on,64,62,0
2,note_on,64,0,468
2,note_on,57,0,0
2,note_on,38,67,0
2,note_on,38,0,71
2,note_on,50,41,240
2,note_on,57,41,0
2,note_on,62,49,0
2,note_on,62,0,480
2,note_on,57,0,0
2,note_on,50,0,0
2,note_on,50,44,0
2,note_on,57,44,0
2,note_on,62,44,0
2,note_on,62,0,416
2,note_on,57,0,0
2,note_on,50,0,0
2,note_on,50,23,0
2,note_on,57,23,0
2,note_on,62,23,0
2,note_on,62,0,480
2,note_on,57,0,0
2,note_on,50,0,0
2,note_on,50,23,0
2,note_on,57,23,0
2,note_on,62,23,0
2,note_on,62,0,480
2,note_on,57,0,0
2,note_on,50,0,0
2,note_on,45,27,0
2,note_on,45,0,85
2,note_on,52,24,240
2,note_on,57,24,0
2,note_on,61,24,0
2,note_on,61,0,480
2,note_on,57,0,0
2,note_on,52,0,0
2,note_on,52,24,0
2,note_on,57,24,0
2,note_on,61,24,0
2,note_on,61,0,466
2,note_on,57,0,0
2,note_on,52,0,0
2,note_on,38,27,0
2,note_on,38,0,113
2,note_on,50,24,240
2,note_on,57,24,0
2,note_on,62,24,0
2,note_on,62,0,480
2,note_on,57,0,0
2,note_on,50,0,0
2,note_on,50,24,0
2,note_on,57,24,0
2,note_on,62,24,0
2,note_on,62,0,465
2,note_on,57,0,0
2,note_on,50,0,0
2,note_on,45,27,0
2,note_on,45,0,17
2,note_on,61,20,240
2,note_on,57,20,0
2,note_on,57,0,480
2,note_on,61,0,0
2,note_on,57,26,0
2,note_on,64,26,0
2,note_on,64,0,480
2,note_on,50,27,0
2,note_on,50,0,392
2,note_on,57,0,0
2,note_on,57,23,0
2,note_on,62,23,0
2,note_on,62,0,480
2,note_on,57,0,0
2,note_on,50,23,0
2,note_on,57,23,0
2,note_on,62,23,0
2,note_on,62,0,480
2,note_on,57,0,0
2,note_on,50,0,0
2,note_on,43,27,0
2,note_on,43,0,28
2,note_on,59,24,240
2,note_on,64,24,0
2,note_on,64,0,480
2,note_on,59,0,0
2,note_on,52,24,0
2,note_on,59,24,0
2,note_on,64,24,0
2,note_on,64,0,465
2,note_on,59,0,0
2,note_on,52,0,0
2,note_on,45,27,0
2,note_on,45,0,113
2,note_on,57,24,240
2,note_on,64,24,0
2,note_on,64,0,480
2,note_on,57,0,0
2,note_on,57,24,0
2,note_on,64,24,0
2,note_on,64,0,466
2,note_on,57,0,0
2,note_on,38,27,0
2,note_on,38,0,160
2,note_on,50,17,0
2,note_on,57,17,0
2,note_on,62,20,0
2,note_on,62,0,480
2,note_on,57,0,0
2,note_on,50,0,0
2,note_on,50,26,0
2,note_on,57,26,0
2,note_on,62,26,0
2,note_on,62,0,480
2,note_on,57,0,0
2,note_on,50,0,0
2,note_on,46,44,0
2,note_on,46,0,353
2,note_on,62,40,0
2,note_on,58,33,0
2,note_on,53,33,0
2,note_on,53,0,480
2,note_on,58,0,0
2,note_on,62,0,0
2,note_on,53,34,0
2,note_on,62,41,0
2,note_on,58,34,0
2,note_on,58,0,480
2,note_on,62,0,0
2,note_on,53,0,0
2,note_on,41,46,0
2,note_on,41,0,332
2,note_on,63,43,0
2,note_on,60,35,0
2,note_on,53,35,0
2,note_on,53,0,480
2,note_on,60,0,0
2,note_on,63,0,0
2,note_on,63,44,0
2,note_on,60,36,0
2,note_on,53,36,0
2,note_on,53,0,480
2,note_on,60,0,0
2,note_on,63,0,0
2,note_on,46,49,0
2,note_on,46,0,353
2,note_on,62,45,0
2,note_on,58,37,0
2,note_on,53,37,0
2,note_on,53,0,480
2,note_on,58,0,0
2,note_on,62,0,0
2,note_on,53,38,0
2,note_on,62,46,0
2,note_on,58,38,0
2,note_on,58,0,466
2,note_on,62,0,0
2,note_on,53,0,0
2,note_on,45,51,0
2,note_on,60,47,310
2,note_on,60,0,360
2,note_on,45,0,0
2,note_on,43,48,0
2,note_on,43,0,120
2,note_on,41,62,0
2,note_on,41,0,480
2,note_on,36,55,0
2,note_on,48,64,0
2,note_on,48,0,339
2,note_on,36,0,0
2,note_on,67,64,0
2,note_on,60,55,0
2,note_on,60,0,480
2,note_on,67,0,0
2,note_on,41,64,480
2,note_on,41,0,106
2,note_on,59,65,120
2,note_on,59,0,120
2,note_on,60,72,0
2,note_on,60,0,360
2,note_on,61,68,0
2,note_on,61,0,120
2,note_on,60,72,0
2,note_on,60,0,468
2,note_on,48,58,0
2,note_on,48,0,106
2,note_on,59,58,120
2,note_on,59,0,120
2,note_on,60,63,0
2,note_on,60,0,360
2,note_on,62,58,0
2,note_on,62,0,120
2,note_on,60,62,0
2,note_on,60,0,468
2,note_on,53,52,0
2,note_on,53,0,106
2,note_on,59,46,120
2,note_on,59,0,120
2,note_on,60,54,0
2,note_on,60,0,360
2,note_on,64,45,0
2,note_on,64,0,120
2,note_on,65,47,0
2,note_on,65,0,467
2,note_on,46,44,0
2,note_on,46,0,353
2,note_on,62,40,0
2,note_on,58,33,0
2,note_on,53,33,0
2,note_on,53,0,480
2,note_on,58,0,0
2,note_on,62,0,0
2,note_on,53,34,0
2,note_on,62,41,0
2,note_on,58,34,0
2,note_on,58,0,459
2,note_on,62,0,0
2,note_on,53,0,0
2,note_on,45,46,0
2,note_on,45,0,354
2,note_on,63,43,0
2,note_on,60,35,0
2,note_on,53,35,0
2,note_on,53,0,480
2,note_on,60,0,0
2,note_on,63,0,0
2,note_on,63,44,0
2,note_on,60,36,0
2,note_on,53,36,0
2,note_on,53,0,480
2,note_on,60,0,0
2,note_on,63,0,0
2,note_on,46,49,0
2,note_on,46,0,353
2,note_on,61,45,0
2,note_on,58,37,0
2,note_on,53,37,0
2,note_on,53,0,480
2,note_on,58,0,0
2,note_on,61,0,0
2,note_on,53,37,0
2,note_on,61,45,0
2,note_on,58,37,0
2,note_on,58,0,466
2,note_on,61,0,0
2,note_on,53,0,0
2,note_on,44,53,0
2,note_on,44,0,332
2,note_on,53,46,0
2,note_on,56,46,0
2,note_on,65,54,0
2,note_on,61,46,0
2,note_on,61,0,360
2,note_on,53,0,0
2,note_on,56,0,0
2,note_on,65,0,0
2,note_on,46,54,0
2,note_on,46,0,120
2,note_on,44,67,0
2,note_on,44,0,480
2,note_on,32,70,0
2,note_on,32,0,346
2,note_on,63,70,0
2,note_on,56,60,0
2,note_on,56,0,480
2,note_on,63,0,0
2,note_on,37,69,480
2,note_on,37,0,106
2,note_on,55,73,120
2,note_on,55,0,120
2,note_on,56,77,0
2,note_on,56,0,360
2,note_on,58,72,0
2,note_on,58,0,120
2,note_on,56,75,0
2,note_on,56,0,469
2,note_on,44,60,0
2,note_on,44,0,106
2,note_on,55,60,120
2,note_on,55,0,120
2,note_on,56,65,0
2,note_on,56,0,360
2,note_on,57,63,0
2,note_on,57,0,120
2,note_on,56,64,0
2,note_on,56,0,463
2,note_on,49,53,0
2,note_on,49,0,106
2,note_on,55,46,120
2,note_on,55,0,120
2,note_on,56,55,0
2,note_on,56,0,360
2,note_on,60,45,0
2,note_on,60,0,120
2,note_on,61,47,0
2,note_on,61,0,464
2,note_on,41,40,0
2,note_on,41,0,106
2,note_on,59,35,240
2,note_on,53,29,0
2,note_on,53,0,480
2,note_on,59,0,0
2,note_on,53,30,0
2,note_on,59,36,0
2,note_on,59,0,480
2,note_on,53,0,0
2,note_on,42,43,0
2,note_on,42,0,127
2,note_on,57,37,240
2,note_on,54,31,0
2,note_on,54,0,480
2,note_on,57,0,0
2,note_on,54,32,0
2,note_on,57,38,0
2,note_on,57,0,227
2,note_on,54,0,0
2,note_on,41,45,0
2,note_on,41,0,169
2,note_on,59,40,240
2,note_on,53,33,0
2,note_on,53,0,480
2,note_on,59,0,0
2,note_on,53,34,0
2,note_on,59,40,0
2,note_on,59,0,480
2,note_on,53,0,0
2,note_on,42,48,0
2,note_on,42,0,113
2,note_on,57,42,240
2,note_on,54,35,0
2,note_on,54,0,480
2,note_on,57,0,0
2,note_on,54,36,0
2,note_on,57,43,0
2,note_on,57,0,233
2,note_on,54,0,0
2,note_on,40,51,0
2,note_on,40,0,169
2,note_on,59,44,240
2,note_on,52,37,0
2,note_on,52,0,480
2,note_on,59,0,0
2,note_on,52,37,0
2,note_on,59,44,0
2,note_on,59,0,480
2,note_on,52,0,0
2,note_on,45,51,0
2,note_on,45,0,127
2,note_on,57,44,240
2,note_on,52,37,0
2,note_on,52,0,480
2,note_on,57,0,0
2,note_on,52,37,0
2,note_on,57,44,0
2,note_on,57,0,233
2,note_on,52,0,0
2,note_on,40,51,0
2,note_on,40,0,169
2,note_on,59,44,240
2,note_on,52,37,0
2,note_on,52,0,480
2,note_on,59,0,0
2,note_on,52,37,0
2,note_on,59,44,0
2,note_on,59,0,480
2,note_on,52,0,0
2,note_on,45,51,0
2,note_on,45,0,120
2,note_on,57,44,240
2,note_on,52,37,0
2,note_on,52,0,480
2,note_on,57,0,0
2,note_on,52,37,0
2,note_on,57,44,0
2,note_on,57,0,231
2,note_on,52,0,0
2,note_on,41,40,0
2,note_on,41,0,169
2,note_on,59,35,240
2,note_on,53,29,0
2,note_on,53,0,480
2,note_on,59,0,0
2,note_on,53,29,0
2,note_on,59,35,0
2,note_on,59,0,480
2,note_on,53,0,0
2,note_on,42,41,0
2,note_on,42,0,120
2,note_on,57,36,240
2,note_on,54,30,0
2,note_on,54,0,480
2,note_on,57,0,0
2,note_on,54,31,0
2,note_on,57,36,0
2,note_on,57,0,222
2,note_on,54,0,0
2,note_on,41,43,0
2,note_on,41,0,169
2,note_on,59,37,240
2,note_on,53,31,0
2,note_on,53,0,480
2,note_on,59,0,0
2,note_on,53,31,0
2,note_on,59,37,0
2,note_on,59,0,480
2,note_on,53,0,0
2,note_on,42,44,0
2,note_on,42,0,127
2,note_on,57,38,240
2,note_on,54,32,0
2,note_on,54,0,480
2,note_on,57,0,0
2,note_on,54,32,0
2,note_on,57,39,0
2,note_on,57,0,229
2,note_on,54,0,0
2,note_on,40,45,0
2,note_on,40,0,169
2,note_on,59,39,240
2,note_on,52,33,0
2,note_on,52,0,480
2,note_on,59,0,0
2,note_on,52,33,0
2,note_on,59,39,0
2,note_on,59,0,480
2,note_on,52,0,0
2,note_on,45,45,0
2,note_on,45,0,99
2,note_on,57,39,240
2,note_on,52,33,0
2,note_on,52,0,480
2,note_on,57,0,0
2,note_on,52,33,0
2,note_on,57,39,0
2,note_on,57,0,230
2,note_on,52,0,0
2,note_on,40,45,0
2,note_on,40,0,169
2,note_on,59,38,240
2,note_on,52,32,0
2,note_on,52,0,480
2,note_on,59,0,0
2,note_on,52,31,0
2,note_on,59,36,0
2,note_on,59,0,480
2,note_on,52,0,0
2,note_on,45,42,0
2,note_on,45,0,77
2,note_on,64,35,240
2,note_on,57,29,0
2,note_on,57,0,480
2,note_on,64,0,0
2,note_on,57,28,0
2,note_on,64,34,0
2,note_on,64,0,225
2,note_on,57,0,0
2,note_on,50,59,0
2,note_on,50,0,148
2,note_on,50,52,240
2,note_on,57,52,0
2,note_on,62,52,0
2,note_on,62,0,480
2,note_on,57,0,0
2,note_on,50,0,0
2,note_on,50,52,0
2,note_on,57,52,0
2,note_on,62,52,0
2,note_on,62,0,480
2,note_on,57,0,0
2,note_on,50,0,0
2,note_on,45,59,0
2,note_on,45,0,85
2,note_on,52,54,240
2,note_on,57,54,0
2,note_on,61,54,0
2,note_on,61,0,480
2,note_on,57,0,0
2,note_on,52,0,0
2,note_on,52,54,0
2,note_on,57,54,0
2,note_on,61,54,0
2,note_on,61,0,468
2,note_on,57,0,0
2,note_on,52,0,0
2,note_on,38,59,0
2,note_on,38,0,148
2,note_on,50,54,240
2,note_on,57,54,0
2,note_on,62,54,0
2,note_on,62,0,480
2,note_on,57,0,0
2,note_on,50,0,0
2,note_on,50,54,0
2,note_on,57,54,0
2,note_on,62,54,0
2,note_on,62,0,463
2,note_on,57,0,0
2,note_on,50,0,0
2,note_on,45,59,0
2,note_on,45,0,14
2,note_on,57,43,240
2,note_on,57,0,480
2,note_on,57,56,0
2,note_on,64,56,0
2,note_on,64,0,480
2,note_on,57,0,0
2,note_on,50,59,0
2,note_on,50,0,123
2,note_on,57,52,240
2,note_on,62,52,0
2,note_on,62,0,480
2,note_on,57,0,0
2,note_on,50,52,0
2,note_on,57,52,0
2,note_on,62,52,0
2,note_on,62,0,480
2,note_on,57,0,0
2,note_on,50,0,0
2,note_on,43,59,0
2,note_on,43,0,42
2,note_on,59,54,240
2,note_on,64,54,0
2,note_on,64,0,480
2,note_on,59,0,0
2,note_on,52,54,0
2,note_on,59,54,0
2,note_on,64,54,0
2,note_on,64,0,470
2,note_on,59,0,0
2,note_on,52,0,0
2,note_on,45,59,0
2,note_on,45,0,120
2,note_on,57,54,240
2,note_on,64,54,0
2,note_on,64,0,480
2,note_on,57,0,0
2,note_on,57,54,0
2,note_on,64,54,0
2,note_on,64,0,466
2,note_on,57,0,0
2,note_on,38,59,0
2,note_on,38,0,240
2,note_on,50,36,240
2,note_on,57,36,0
2,note_on,62,43,0
2,note_on,62,0,480
2,note_on,57,0,0
2,note_on,50,0,0
2,note_on,50,39,0
2,note_on,57,39,0
2,note_on,62,39,0
2,note_on,62,0,378
2,note_on,57,0,0
2,note_on,50,0,0
2,note_on,50,23,0
2,note_on,57,23,0
2,note_on,62,23,0
2,note_on,62,0,480
2,note_on,57,0,0
2,note_on,50,0,0
2,note_on,50,23,0
2,note_on,57,23,0
2,note_on,62,23,0
2,note_on,62,0,480
2,note_on,57,0,0
2,note_on,50,0,0
2,note_on,45,27,0
2,note_on,45,0,28
2,note_on,52,24,240
2,note_on,57,24,0
2,note_on,61,24,0
2,note_on,61,0,480
2,note_on,57,0,0
2,note_on,52,0,0
2,note_on,52,24,0
2,note_on,57,24,0
2,note_on,61,24,0
2,note_on,61,0,464
2,note_on,57,0,0
2,note_on,52,0,0
2,note_on,38,27,0
2,note_on,38,0,134
2,note_on,50,24,240
2,note_on,57,24,0
2,note_on,62,24,0
2,note_on,62,0,480
2,note_on,57,0,0
2,note_on,50,0,0
2,note_on,50,24,0
2,note_on,57,24,0
2,note_on,62,24,0
2,note_on,62,0,462
2,note_on,57,0,0
2,note_on,50,0,0
2,note_on,45,27,0
2,note_on,45,0,71
2,note_on,61,20,240
2,note_on,57,20,0
2,note_on,57,0,480
2,note_on,61,0,0
2,note_on,57,26,0
2,note_on,64,26,0
2,note_on,64,0,480
2,note_on,50,27,0
2,note_on,50,0,381
2,note_on,57,0,0
2,note_on,57,23,0
2,note_on,62,23,0
2,note_on,62,0,480
2,note_on,57,0,0
2,note_on,50,23,0
2,note_on,57,23,0
2,note_on,62,23,0
2,note_on,62,0,480
2,note_on,57,0,0
2,note_on,50,0,0
2,note_on,43,27,0
2,note_on,43,0,85
2,note_on,59,24,240
2,note_on,64,24,0
2,note_on,64,0,480
2,note_on,59,0,0
2,note_on,52,24,0
2,note_on,59,24,0
2,note_on,64,24,0
2,note_on,64,0,465
2,note_on,59,0,0
2,note_on,52,0,0
2,note_on,45,27,0
2,note_on,45,0,106
2,note_on,57,24,240
2,note_on,64,24,0
2,note_on,64,0,480
2,note_on,57,0,0
2,note_on,57,24,0
2,note_on,64,24,0
2,note_on,64,0,465
2,note_on,57,0,0
2,note_on,38,27,0
2,note_on,38,0,71
2,note_on,50,17,240
2,note_on,57,17,0
2,note_on,62,20,0
2,note_on,62,0,480
2,note_on,57,0,0
2,note_on,50,0,0
2,note_on,50,26,0
2,note_on,57,26,0
2,note_on,62,26,0
2,note_on,62,0,480
2,note_on,57,0,0
2,note_on,50,0,0
2,note_on,45,59,0
2,note_on,45,0,159
2,note_on,45,52,240
2,note_on,52,52,0
2,note_on,57,52,0
2,note_on,57,0,480
2,note_on,52,0,0
2,note_on,45,0,0
2,note_on,45,52,0
2,note_on,52,52,0
2,note_on,57,52,0
2,note_on,57,0,480
2,note_on,52,0,0
2,note_on,45,0,0
2,note_on,40,59,0
2,note_on,40,0,85
2,note_on,52,54,240
2,note_on,59,54,0
2,note_on,59,0,480
2,note_on,52,0,0
2,note_on,52,54,0
2,note_on,59,54,0
2,note_on,59,0,461
2,note_on,52,0,0
2,note_on,33,59,0
2,note_on,33,0,106
2,note_on,45,54,240
2,note_on,52,54,0
2,note_on,57,54,0
2,note_on,57,0,480
2,note_on,52,0,0
2,note_on,45,0,0
2,note_on,45,54,0
2,note_on,52,54,0
2,note_on,57,54,0
2,note_on,57,0,465
2,note_on,52,0,0
2,note_on,45,0,0
2,note_on,40,59,0
2,note_on,40,0,27
2,note_on,52,43,240
2,note_on,52,0,480
2,note_on,52,56,0
2,note_on,59,56,0
2,note_on,59,0,480
2,note_on,52,0,0
2,note_on,45,59,0
2,note_on,45,0,144
2,note_on,52,52,240
2,note_on,57,52,0
2,note_on,57,0,480
2,note_on,52,0,0
2,note_on,45,52,0
2,note_on,52,52,0
2,note_on,57,52,0
2,note_on,57,0,480
2,note_on,52,0,0
2,note_on,45,0,0
2,note_on,38,59,0
2,note_on,38,0,34
2,note_on,54,54,240
2,note_on,59,54,0
2,note_on,59,0,480
2,note_on,54,0,0
2,note_on,47,54,0
2,note_on,54,54,0
2,note_on,59,54,0
2,note_on,59,0,465
2,note_on,54,0,0
2,note_on,47,0,0
2,note_on,40,59,0
2,note_on,40,0,120
2,note_on,52,54,240
2,note_on,59,54,0
2,note_on,59,0,480
2,note_on,52,0,0
2,note_on,52,54,0
2,note_on,59,54,0
2,note_on,59,0,466
2,note_on,52,0,0
2,note_on,33,59,0
2,note_on,33,0,28
2,note_on,45,36,240
2,note_on,52,36,0
2,note_on,57,43,0
2,note_on,57,0,480
2,note_on,52,0,0
2,note_on,45,0,0
2,note_on,45,39,0
2,note_on,52,39,0
2,note_on,57,39,0
2,note_on,57,0,378
2,note_on,52,0,0
2,note_on,45,0,0
2,note_on,45,23,0
2,note_on,52,23,0
2,note_on,57,23,0
2,note_on,57,0,480
2,note_on,52,0,0
2,note_on,45,0,0
2,note_on,45,23,0
2,note_on,52,23,0
2,note_on,57,23,0
2,note_on,57,0,480
2,note_on,52,0,0
2,note_on,45,0,0
2,note_on,40,27,0
2,note_on,40,0,85
2,note_on,52,24,240
2,note_on,59,24,0
2,note_on,59,0,480
2,note_on,52,0,0
2,note_on,52,24,0
2,note_on,59,24,0
2,note_on,59,0,463
2,note_on,52,0,0
2,note_on,33,27,0
2,note_on,33,0,84
2,note_on,45,24,240
2,note_on,52,24,0
2,note_on,57,24,0
2,note_on,57,0,480
2,note_on,52,0,0
2,note_on,45,0,0
2,note_on,45,24,0
2,note_on,52,24,0
2,note_on,57,24,0
2,note_on,57,0,464
2,note_on,52,0,0
2,note_on,45,0,0
2,note_on,40,27,0
2,note_on,40,0,20
2,note_on,52,20,240
2,note_on,52,0,480
2,note_on,52,26,0
2,note_on,59,26,0
2,note_on,59,0,480
2,note_on,45,27,0
2,note_on,45,0,402
2,note_on,52,0,0
2,note_on,52,23,0
2,note_on,57,23,0
2,note_on,57,0,480
2,note_on,52,0,0
2,note_on,45,23,0
2,note_on,52,23,0
2,note_on,57,23,0
2,note_on,57,0,480
2,note_on,52,0,0
2,note_on,45,0,0
2,note_on,38,27,0
2,note_on,38,0,85
2,note_on,54,24,240
2,note_on,59,24,0
2,note_on,59,0,480
2,note_on,54,0,0
2,note_on,47,24,0
2,note_on,54,24,0
2,note_on,59,24,0
2,note_on,59,0,471
2,note_on,54,0,0
2,note_on,47,0,0
2,note_on,40,27,0
2,note_on,40,0,127
2,note_on,52,24,240
2,note_on,59,24,0
2,note_on,59,0,480
2,note_on,52,0,0
2,note_on,52,24,0
2,note_on,59,24,0
2,note_on,59,0,461
2,note_on,52,0,0
2,note_on,33,27,0
2,note_on,33,0,71
2,note_on,57,21,240
2,note_on,64,25,0
2,note_on,64,0,480
2,note_on,57,0,0
2,note_on,57,60,0
2,note_on,64,60,0
2,note_on,64,0,480
2,note_on,57,0,0
2,note_on,50,67,0
2,note_on,50,0,162
2,note_on,50,59,240
2,note_on,57,59,0
2,note_on,62,59,0
2,note_on,62,0,480
2,note_on,57,0,0
2,note_on,50,0,0
2,note_on,50,59,0
2,note_on,57,59,0
2,note_on,62,59,0
2,note_on,62,0,480
2,note_on,57,0,0
2,note_on,50,0,0
2,note_on,45,67,0
2,note_on,45,0,28
2,note_on,52,62,240
2,note_on,57,62,0
2,note_on,61,62,0
2,note_on,61,0,480
2,note_on,57,0,0
2,note_on,52,0,0
2,note_on,52,62,0
2,note_on,57,62,0
2,note_on,61,62,0
2,note_on,61,0,463
2,note_on,57,0,0
2,note_on,52,0,0
2,note_on,38,67,0
2,note_on,38,0,99
2,note_on,50,62,240
2,note_on,57,62,0
2,note_on,62,62,0
2,note_on,62,0,480
2,note_on,57,0,0
2,note_on,50,0,0
2,note_on,50,62,0
2,note_on,57,62,0
2,note_on,62,62,0
2,note_on,62,0,468
2,note_on,57,0,0
2,note_on,50,0,0
2,note_on,45,67,0
2,note_on,45,0,28
2,note_on,57,49,240
2,note_on,57,0,480
2,note_on,57,64,0
2,note_on,64,64,0
2,note_on,64,0,480
2,note_on,57,0,0
2,note_on,50,67,0
2,note_on,50,0,141
2,note_on,57,59,240
2,note_on,62,59,0
2,note_on,62,0,480
2,note_on,57,0,0
2,note_on,50,59,0
2,note_on,57,59,0
2,note_on,62,59,0
2,note_on,62,0,480
2,note_on,57,0,0
2,note_on,50,0,0
2,note_on,43,67,0
2,note_on,43,0,28
2,note_on,59,62,240
2,note_on,64,62,0
2,note_on,64,0,480
2,note_on,59,0,0
2,note_on,52,62,0
2,note_on,59,62,0
2,note_on,64,62,0
2,note_on,64,0,466
2,note_on,59,0,0
2,note_on,52,0,0
2,note_on,45,67,0
2,note_on,45,0,120
2,note_on,57,62,240
2,note_on,64,62,0
2,note_on,64,0,480
2,note_on,57,0,0
2,note_on,57,62,0
2,note_on,64,62,0
2,note_on,64,0,473
2,note_on,57,0,0
2,note_on,38,67,0
2,note_on,38,0,71
2,note_on,50,41,240
2,note_on,57,41,0
2,note_on,62,49,0
2,note_on,62,0,480
2,note_on,57,0,0
2,note_on,50,0,0
2,note_on,50,44,0
2,note_on,57,44,0
2,note_on,62,44,0
2,note_on,62,0,378
2,note_on,57,0,0
2,note_on,50,0,0
2,note_on,50,23,0
2,note_on,57,23,0
2,note_on,62,23,0
2,note_on,62,0,480
2,note_on,57,0,0
2,note_on,50,0,0
2,note_on,50,23,0
2,note_on,57,23,0
2,note_on,62,23,0
2,note_on,62,0,480
2,note_on,57,0,0
2,note_on,50,0,0
2,note_on,45,27,0
2,note_on,45,0,85
2,note_on,52,24,240
2,note_on,57,24,0
2,note_on,61,24,0
2,note_on,61,0,480
2,note_on,57,0,0
2,note_on,52,0,0
2,note_on,52,24,0
2,note_on,57,24,0
2,note_on,61,24,0
2,note_on,61,0,469
2,note_on,57,0,0
2,note_on,52,0,0
2,note_on,38,27,0
2,note_on,38,0,99
2,note_on,50,24,240
2,note_on,57,24,0
2,note_on,62,24,0
2,note_on,62,0,480
2,note_on,57,0,0
2,note_on,50,0,0
2,note_on,50,24,0
2,note_on,57,24,0
2,note_on,62,24,0
2,note_on,62,0,466
2,note_on,57,0,0
2,note_on,50,0,0
2,note_on,45,27,0
2,note_on,45,0,71
2,note_on,61,20,240
2,note_on,57,20,0
2,note_on,57,0,480
2,note_on,61,0,0
2,note_on,57,26,0
2,note_on,64,26,0
2,note_on,64,0,480
2,note_on,50,27,0
2,note_on,50,0,356
2,note_on,57,0,0
2,note_on,57,23,0
2,note_on,62,23,0
2,note_on,62,0,480
2,note_on,57,0,0
2,note_on,50,23,0
2,note_on,57,23,0
2,note_on,62,23,0
2,note_on,62,0,480
2,note_on,57,0,0
2,note_on,50,0,0
2,note_on,43,27,0
2,note_on,43,0,85
2,note_on,59,24,240
2,note_on,64,24,0
2,note_on,64,0,480
2,note_on,59,0,0
2,note_on,52,24,0
2,note_on,59,24,0
2,note_on,64,24,0
2,note_on,64,0,466
2,note_on,59,0,0
2,note_on,52,0,0
2,note_on,45,27,0
2,note_on,45,0,113
2,note_on,57,24,240
2,note_on,64,24,0
2,note_on,64,0,480
2,note_on,57,0,0
2,note_on,57,24,0
2,note_on,64,24,0
2,note_on,64,0,464
2,note_on,57,0,0
2,note_on,38,27,0
2,note_on,38,0,14
2,note_on,50,17,240
2,note_on,57,17,0
2,note_on,62,20,0
2,note_on,62,0,480
2,note_on,57,0,0
2,note_on,50,0,0
2,note_on,50,26,0
2,note_on,57,26,0
2,note_on,62,26,0
2,note_on,62,0,480
2,note_on,57,0,0
2,note_on,50,0,0
2,note_on,50,26,0
2,note_on,57,31,0
2,note_on,57,0,441
2,note_on,50,0,0
2,note_on,60,27,0
2,note_on,50,23,0
2,note_on,50,0,402
2,note_on,60,0,0
2,note_on,50,23,0
2,note_on,59,28,0
2,note_on,59,0,472
2,note_on,50,0,0
2,note_on,50,26,0
2,note_on,55,32,0
2,note_on,55,0,406
2,note_on,50,0,0
2,note_on,58,28,0
2,note_on,50,24,0
2,note_on,50,0,388
2,note_on,58,0,0
2,note_on,50,24,0
2,note_on,57,29,0
2,note_on,57,0,466
2,note_on,50,0,0
2,note_on,50,27,0
2,note_on,57,33,0
2,note_on,57,0,416
2,note_on,50,0,0
2,note_on,60,29,0
2,note_on,50,24,0
2,note_on,50,0,416
2,note_on,60,0,0
2,note_on,50,24,0
2,note_on,59,29,0
2,note_on,59,0,463
2,note_on,50,0,0
2,note_on,50,28,0
2,note_on,55,33,0
2,note_on,55,0,416
2,note_on,50,0,0
2,note_on,58,30,0
2,note_on,50,25,0
2,note_on,50,0,406
2,note_on,58,0,0
2,note_on,50,25,0
2,note_on,57,30,0
2,note_on,57,0,476
2,note_on,50,0,0
2,note_on,50,29,0
2,note_on,54,35,0
2,note_on,54,0,434
2,note_on,50,0,0
2,note_on,57,31,0
2,note_on,50,26,0
2,note_on,50,0,402
2,note_on,57,0,0
2,note_on,50,26,0
2,note_on,56,31,0
2,note_on,56,0,469
2,note_on,50,0,0
2,note_on,50,29,0
2,note_on,52,35,0
2,note_on,52,0,416
2,note_on,50,0,0
2,note_on,55,31,0
2,note_on,50,26,0
2,note_on,50,0,413
2,note_on,55,0,0
2,note_on,50,26,0
2,note_on,54,31,0
2,note_on,54,0,466
2,note_on,50,0,0
2,note_on,50,29,0
2,note_on,54,35,0
2,note_on,54,0,423
2,note_on,50,0,0
2,note_on,57,30,0
2,note_on,50,25,0
2,note_on,50,0,430
2,note_on,57,0,0
2,note_on,50,25,0
2,note_on,56,30,0
2,note_on,56,0,469
2,note_on,50,0,0
2,note_on,50,28,0
2,note_on,52,33,0
2,note_on,52,0,430
2,note_on,50,0,0
2,note_on,55,29,0
2,note_on,50,24,0
2,note_on,50,0,416
2,note_on,55,0,0
2,note_on,50,24,0
2,note_on,54,29,0
2,note_on,54,0,465
2,note_on,50,0,0
2,note_on,38,24,0
2,note_on,45,29,0
2,note_on,45,0,427
2,note_on,38,0,0
2,note_on,48,25,0
2,note_on,38,21,0
2,note_on,38,0,465
2,note_on,48,0,0
2,note_on,38,21,0
2,note_on,47,24,0
2,note_on,47,0,480
2,note_on,38,0,0
2,note_on,38,23,0
2,note_on,43,28,0
2,note_on,43,0,409
2,note_on,38,0,0
2,note_on,46,24,0
2,note_on,38,20,0
2,note_on,38,0,461
2,note_on,46,0,0
2,note_on,38,20,0
2,note_on,45,24,0
2,note_on,45,0,480
2,note_on,38,0,0
2,note_on,38,20,0
2,note_on,45,23,0
2,note_on,45,0,413
2,note_on,38,0,0
2,note_on,48,20,0
2,note_on,38,17,0
2,note_on,38,0,465
2,note_on,48,0,0
2,note_on,38,17,0
2,note_on,47,20,0
2,note_on,47,0,480
2,note_on,38,0,0
2,note_on,38,19,0
2,note_on,43,22,0
2,note_on,43,0,434
2,note_on,38,0,0
2,note_on,46,20,0
2,note_on,38,17,0
2,note_on,38,0,466
2,note_on,46,0,0
2,note_on,38,17,0
2,note_on,45,20,0
2,note_on,45,0,480
2,note_on,38,0,0
2,note_on,38,26,0
2,note_on,45,31,0
2,note_on,45,0,424
2,note_on,38,0,0
2,note_on,50,28,0
2,note_on,57,34,0
2,note_on,57,0,480
2,note_on,50,0,0
2,note_on,62,28,0
2,note_on,69,34,0
2,note_on,69,0,3360
2,note_on,62,0,0
