Track,Message Type,Note,Velocity,Time
1,note_on,77,55,1440
1,note_on,77,0,720
1,note_on,75,55,0
1,note_on,75,0,240
1,note_on,73,55,0
1,note_on,73,0,360
1,note_on,65,50,0
1,note_on,65,0,120
1,note_on,68,55,0
1,note_on,68,0,960
1,note_on,73,58,0
1,note_on,73,0,240
1,note_on,77,61,0
1,note_on,77,0,240
1,note_on,82,68,0
1,note_on,82,0,840
1,note_on,80,50,0
1,note_on,80,0,120
1,note_on,76,56,0
1,note_on,76,0,120
1,note_on,77,50,0
1,note_on,77,0,120
1,note_on,72,55,0
1,note_on,72,0,120
1,note_on,73,50,0
1,note_on,73,0,120
1,note_on,69,63,0
1,note_on,69,0,1440
1,note_on,70,58,0
1,note_on,70,0,720
1,note_on,84,56,120
1,note_on,84,0,120
1,note_on,82,58,0
1,note_on,82,0,120
1,note_on,77,52,0
1,note_on,77,0,120
1,note_on,80,56,0
1,note_on,80,0,120
1,note_on,78,51,0
1,note_on,78,0,120
1,note_on,77,57,0
1,note_on,77,0,480
1,note_on,75,58,0
1,note_on,75,0,360
1,note_on,77,52,0
1,note_on,77,0,30
1,note_on,75,52,0
1,note_on,75,0,30
1,note_on,74,52,0
1,note_on,74,0,30
1,note_on,75,52,0
1,note_on,75,0,30
1,note_on,77,61,0
1,note_on,77,0,240
1,note_on,78,69,0
1,note_on,78,0,180
1,note_on,78,57,0
1,note_on,78,0,60
1,note_on,90,79,0
1,note_on,87,56,420
1,note_on,87,0,60
1,note_on,90,0,0
1,note_on,85,55,0
1,note_on,85,0,60
1,note_on,81,54,0
1,note_on,81,0,60
1,note_on,78,52,0
1,note_on,78,0,60
1,note_on,75,49,0
1,note_on,75,0,60
1,note_on,72,53,0
1,note_on,72,0,60
1,note_on,73,54,60
1,note_on,73,0,60
1,note_on,74,55,60
1,note_on,74,0,60
1,note_on,75,56,60
1,note_on,75,0,60
1,note_on,77,57,60
1,note_on,77,0,60
1,note_on,78,58,60
1,note_on,78,0,60
1,note_on,79,69,60
1,note_on,79,0,540
1,note_on,80,54,0
1,note_on,80,0,60
1,note_on,82,59,0
1,note_on,82,0,60
1,note_on,80,50,0
1,note_on,80,0,60
1,note_on,77,56,0
1,note_on,73,53,720
1,note_on,73,0,240
1,note_on,77,0,0
1,note_on,75,55,0
1,note_on,78,65,0
1,note_on,78,0,360
1,note_on,75,0,0
1,note_on,70,51,0
1,note_on,73,60,0
1,note_on,73,0,120
1,note_on,70,0,0
1,note_on,72,55,0
1,note_on,75,65,0
1,note_on,75,0,240
1,note_on,72,0,0
1,note_on,73,53,0
1,note_on,77,62,0
1,note_on,77,0,240
1,note_on,73,0,0
1,note_on,69,52,0
1,note_on,72,61,0
1,note_on,72,0,240
1,note_on,69,0,0
1,note_on,72,55,0
1,note_on,75,65,0
1,note_on,75,0,240
1,note_on,72,0,0
1,note_on,70,50,0
1,note_on,73,59,0
1,note_on,73,0,120
1,note_on,70,0,0
1,note_on,82,64,60
1,note_on,73,54,0
1,note_on,73,0,60
1,note_on,82,0,0
1,note_on,73,56,0
1,note_on,82,66,0
1,note_on,82,0,80
1,note_on,73,0,0
1,note_on,72,55,0
1,note_on,80,65,0
1,note_on,80,0,80
1,note_on,72,0,0
1,note_on,70,54,0
1,note_on,78,64,0
1,note_on,78,0,80
1,note_on,70,0,0
1,note_on,70,53,0
1,note_on,77,63,0
1,note_on,70,0,240
1,note_on,69,52,0
1,note_on,69,0,80
1,note_on,70,54,0
1,note_on,70,0,80
1,note_on,71,56,0
1,note_on,71,0,80
1,note_on,77,0,0
1,note_on,77,58,0
1,note_on,72,49,0
1,note_on,72,0,40
1,note_on,77,0,0
1,note_on,77,60,40
1,note_on,73,51,0
1,note_on,73,0,40
1,note_on,77,0,0
1,note_on,77,62,40
1,note_on,75,52,0
1,note_on,75,0,40
1,note_on,77,0,0
1,note_on,73,53,40
1,note_on,77,63,0
1,note_on,77,0,240
1,note_on,73,0,0
1,note_on,75,55,0
1,note_on,78,65,0
1,note_on,78,0,360
1,note_on,75,0,0
1,note_on,70,51,0
1,note_on,73,60,0
1,note_on,73,0,120
1,note_on,70,0,0
1,note_on,70,49,0
1,note_on,73,58,0
1,note_on,73,0,45
1,note_on,70,0,0
1,note_on,73,55,0
1,note_on,77,65,0
1,note_on,77,0,135
1,note_on,73,0,0
1,note_on,72,58,0
1,note_on,75,58,0
1,note_on,75,0,30
1,note_on,77,53,0
1,note_on,77,0,30
1,note_on,75,62,0
1,note_on,75,0,80
1,note_on,72,0,0
1,note_on,70,47,0
1,note_on,73,55,0
1,note_on,73,0,80
1,note_on,70,0,0
1,note_on,72,47,0
1,note_on,75,55,0
1,note_on,75,0,80
1,note_on,72,0,0
1,note_on,73,52,0
1,note_on,77,61,0
1,note_on,77,0,60
1,note_on,73,0,0
1,note_on,69,52,120
1,note_on,72,61,0
1,note_on,72,0,60
1,note_on,69,0,0
1,note_on,72,55,0
1,note_on,75,65,0
1,note_on,75,0,240
1,note_on,72,0,0
1,note_on,70,50,0
1,note_on,73,59,0
1,note_on,73,0,120
1,note_on,70,0,0
1,note_on,73,47,120
1,note_on,82,66,0
1,note_on,73,0,240
1,note_on,74,66,0
1,note_on,74,0,120
1,note_on,82,0,0
1,note_on,80,53,0
1,note_on,83,62,0
1,note_on,83,0,120
1,note_on,80,0,0
1,note_on,73,53,0
1,note_on,82,62,0
1,note_on,82,0,80
1,note_on,73,0,0
1,note_on,80,54,0
1,note_on,81,58,0
1,note_on,81,0,80
1,note_on,80,0,0
1,note_on,73,57,0
1,note_on,82,67,0
1,note_on,82,0,80
1,note_on,73,0,0
1,note_on,89,70,0
1,note_on,80,58,0
1,note_on,80,0,60
1,note_on,89,0,0
1,note_on,80,57,120
1,note_on,82,67,0
1,note_on,82,0,60
1,note_on,82,68,0
1,note_on,78,57,0
1,note_on,80,0,20
1,note_on,78,0,220
1,note_on,82,0,0
1,note_on,80,56,0
1,note_on,83,66,0
1,note_on,83,0,240
1,note_on,80,0,0
1,note_on,75,54,0
1,note_on,78,64,0
1,note_on,78,0,240
1,note_on,75,0,0
1,note_on,78,54,0
1,note_on,82,64,0
1,note_on,82,0,80
1,note_on,78,0,0
1,note_on,77,52,0
1,note_on,80,61,0
1,note_on,80,0,80
1,note_on,77,0,0
1,note_on,78,52,0
1,note_on,82,61,0
1,note_on,82,0,80
1,note_on,78,0,0
1,note_on,77,55,0
1,note_on,80,65,0
1,note_on,80,0,80
1,note_on,77,0,0
1,note_on,75,52,0
1,note_on,78,61,0
1,note_on,78,0,80
1,note_on,75,0,0
1,note_on,77,52,0
1,note_on,80,61,0
1,note_on,80,0,80
1,note_on,77,0,0
1,note_on,78,55,0
1,note_on,82,65,0
1,note_on,82,0,60
1,note_on,78,0,0
1,note_on,77,60,120
1,note_on,74,51,0
1,note_on,74,0,60
1,note_on,77,0,0
1,note_on,77,56,0
1,note_on,80,66,0
1,note_on,80,0,240
1,note_on,77,0,0
1,note_on,75,51,0
1,note_on,78,60,0
1,note_on,78,0,120
1,note_on,75,0,0
1,note_on,87,63,60
1,note_on,78,53,0
1,note_on,78,0,60
1,note_on,87,0,0
1,note_on,78,57,0
1,note_on,87,68,0
1,note_on,87,0,80
1,note_on,78,0,0
1,note_on,77,57,0
1,note_on,85,67,0
1,note_on,85,0,80
1,note_on,77,0,0
1,note_on,75,55,0
1,note_on,83,65,0
1,note_on,83,0,80
1,note_on,75,0,0
1,note_on,74,50,0
1,note_on,82,59,0
1,note_on,82,0,80
1,note_on,74,0,0
1,note_on,70,50,0
1,note_on,82,59,0
1,note_on,82,0,40
1,note_on,70,0,0
1,note_on,71,50,40
1,note_on,82,59,0
1,note_on,82,0,40
1,note_on,71,0,0
1,note_on,72,51,40
1,note_on,82,60,0
1,note_on,82,0,40
1,note_on,72,0,0
1,note_on,73,52,40
1,note_on,82,61,0
1,note_on,82,0,40
1,note_on,73,0,0
1,note_on,74,53,40
1,note_on,82,62,0
1,note_on,82,0,40
1,note_on,74,0,0
1,note_on,82,64,40
1,note_on,75,54,0
1,note_on,75,0,40
1,note_on,82,0,0
1,note_on,82,65,40
1,note_on,76,55,0
1,note_on,76,0,40
1,note_on,82,0,0
1,note_on,82,66,40
1,note_on,77,56,0
1,note_on,77,0,40
1,note_on,82,0,0
1,note_on,78,45,40
1,note_on,82,54,0
1,note_on,82,0,96
1,note_on,78,0,0
1,note_on,80,47,0
1,note_on,83,57,0
1,note_on,83,0,96
1,note_on,80,0,0
1,note_on,82,60,0
1,note_on,78,50,0
1,note_on,78,0,96
1,note_on,82,0,0
1,note_on,77,53,0
1,note_on,80,63,0
1,note_on,80,0,96
1,note_on,77,0,0
1,note_on,78,54,0
1,note_on,82,65,0
1,note_on,82,0,96
1,note_on,78,0,0
1,note_on,80,58,0
1,note_on,83,69,0
1,note_on,83,0,60
1,note_on,80,0,0
1,note_on,78,66,120
1,note_on,75,56,0
1,note_on,75,0,50
1,note_on,78,0,0
1,note_on,75,53,10
1,note_on,78,63,0
1,note_on,78,0,60
1,note_on,75,0,0
1,note_on,78,59,0
1,note_on,82,70,0
1,note_on,82,0,60
1,note_on,78,0,0
1,note_on,80,64,60
1,note_on,77,54,0
1,note_on,77,0,60
1,note_on,80,0,0
1,note_on,77,62,0
1,note_on,80,62,0
1,note_on,80,0,20
1,note_on,77,0,0
1,note_on,82,55,0
1,note_on,78,55,0
1,note_on,78,0,20
1,note_on,82,0,0
1,note_on,80,61,0
1,note_on,77,61,0
1,note_on,77,0,40
1,note_on,80,0,0
1,note_on,75,53,0
1,note_on,78,63,0
1,note_on,78,0,80
1,note_on,75,0,0
1,note_on,77,54,40
1,note_on,80,64,0
1,note_on,80,0,30
1,note_on,77,0,0
1,note_on,77,55,10
1,note_on,80,65,0
1,note_on,80,0,80
1,note_on,77,0,0
1,note_on,78,57,0
1,note_on,82,67,0
1,note_on,82,0,40
1,note_on,78,0,0
1,note_on,74,55,80
1,note_on,77,65,0
1,note_on,77,0,30
1,note_on,74,0,0
1,note_on,74,59,10
1,note_on,77,59,0
1,note_on,77,0,60
1,note_on,74,0,0
1,note_on,77,53,0
1,note_on,80,62,0
1,note_on,80,0,120
1,note_on,77,0,0
1,note_on,75,61,300
1,note_on,78,73,0
1,note_on,78,0,480
1,note_on,75,0,0
1,note_on,74,61,0
1,note_on,78,73,0
1,note_on,78,0,120
1,note_on,74,0,0
1,note_on,78,76,120
1,note_on,73,64,0
1,note_on,73,0,120
1,note_on,78,0,0
1,note_on,72,64,120
1,note_on,78,78,0
1,note_on,78,0,360
1,note_on,72,0,0
1,note_on,69,62,0
1,note_on,81,74,0
1,note_on,81,0,120
1,note_on,69,0,0
1,note_on,68,64,0
1,note_on,80,76,0
1,note_on,80,0,480
1,note_on,68,0,0
1,note_on,66,60,0
1,note_on,78,72,0
1,note_on,78,0,240
1,note_on,66,0,0
1,note_on,61,58,0
1,note_on,73,70,0
1,note_on,73,0,240
1,note_on,61,0,0
1,note_on,60,56,0
1,note_on,72,66,0
1,note_on,72,0,480
1,note_on,60,0,0
1,note_on,68,52,0
1,note_on,68,0,240
1,note_on,69,57,0
1,note_on,69,0,80
1,note_on,71,50,0
1,note_on,71,0,80
1,note_on,69,52,0
1,note_on,69,0,80
1,note_on,68,51,0
1,note_on,68,0,120
1,note_on,69,51,0
1,note_on,69,0,120
1,note_on,76,57,0
1,note_on,76,0,180
1,note_on,75,53,0
1,note_on,75,0,60
1,note_on,75,57,0
1,note_on,75,0,240
1,note_on,69,61,120
1,note_on,81,73,0
1,note_on,81,0,120
1,note_on,69,0,0
1,note_on,68,58,0
1,note_on,80,70,0
1,note_on,80,0,480
1,note_on,68,0,0
1,note_on,68,55,0
1,note_on,80,65,0
1,note_on,80,0,60
1,note_on,68,0,0
1,note_on,66,54,0
1,note_on,78,64,0
1,note_on,78,0,60
1,note_on,66,0,0
1,note_on,68,53,0
1,note_on,80,63,0
1,note_on,80,0,60
1,note_on,68,0,0
1,note_on,66,53,0
1,note_on,78,62,0
1,note_on,78,0,60
1,note_on,66,0,0
1,note_on,64,53,0
1,note_on,76,62,0
1,note_on,76,0,60
1,note_on,64,0,0
1,note_on,63,52,0
1,note_on,75,61,0
1,note_on,75,0,60
1,note_on,63,0,0
1,note_on,64,51,0
1,note_on,76,60,0
1,note_on,76,0,60
1,note_on,64,0,0
1,note_on,63,50,0
1,note_on,75,59,0
1,note_on,75,0,60
1,note_on,63,0,0
1,note_on,60,56,0
1,note_on,72,66,0
1,note_on,72,0,120
1,note_on,60,0,0
1,note_on,68,46,480
1,note_on,68,0,120
1,note_on,69,51,0
1,note_on,69,0,80
1,note_on,71,45,0
1,note_on,71,0,80
1,note_on,69,46,0
1,note_on,69,0,80
1,note_on,68,45,0
1,note_on,68,0,120
1,note_on,69,45,0
1,note_on,69,0,60
1,note_on,69,46,0
1,note_on,69,0,60
1,note_on,76,52,0
1,note_on,76,0,120
1,note_on,75,49,60
1,note_on,75,0,60
1,note_on,75,54,0
1,note_on,75,0,240
1,note_on,75,51,480
1,note_on,75,0,1440
1,note_on,74,51,0
1,note_on,74,0,720
1,note_on,73,54,0
1,note_on,73,0,480
1,note_on,73,51,240
1,note_on,73,0,960
1,note_on,72,49,0
1,note_on,72,0,240
1,note_on,70,48,0
1,note_on,70,0,360
1,note_on,68,42,0
1,note_on,68,0,120
1,note_on,70,44,0
1,note_on,70,0,120
1,note_on,72,45,0
1,note_on,72,0,120
1,note_on,73,47,0
1,note_on,73,0,120
1,note_on,75,48,0
1,note_on,75,0,120
1,note_on,77,49,0
1,note_on,77,0,720
1,note_on,75,49,0
1,note_on,75,0,240
1,note_on,73,49,0
1,note_on,73,0,360
1,note_on,65,45,0
1,note_on,65,0,120
1,note_on,68,49,0
1,note_on,68,0,960
1,note_on,73,52,0
1,note_on,73,0,240
1,note_on,77,54,0
1,note_on,77,0,240
1,note_on,82,61,0
1,note_on,82,0,840
1,note_on,80,45,0
1,note_on,80,0,120
1,note_on,76,50,0
1,note_on,76,0,120
1,note_on,77,45,0
1,note_on,77,0,120
1,note_on,72,49,0
1,note_on,72,0,120
1,note_on,73,45,0
1,note_on,73,0,120
1,note_on,69,56,0
1,note_on,69,0,1440
1,note_on,70,52,0
1,note_on,70,0,720
1,note_on,84,50,120
1,note_on,84,0,120
1,note_on,82,52,0
1,note_on,82,0,120
1,note_on,77,46,0
1,note_on,77,0,120
1,note_on,80,50,0
1,note_on,80,0,120
1,note_on,78,45,0
1,note_on,78,0,120
1,note_on,77,51,0
1,note_on,77,0,480
1,note_on,75,52,0
1,note_on,74,57,360
1,note_on,75,0,60
1,note_on,74,0,60
1,note_on,75,57,0
1,note_on,75,0,120
1,note_on,76,57,0
1,note_on,76,0,120
1,note_on,77,62,0
1,note_on,77,0,180
1,note_on,78,51,0
1,note_on,78,0,30
1,note_on,78,51,0
1,note_on,78,0,30
1,note_on,90,71,0
1,note_on,90,0,320
1,note_on,87,65,0
1,note_on,87,0,80
1,note_on,85,62,0
1,note_on,85,0,80
1,note_on,81,60,0
1,note_on,81,0,80
1,note_on,78,58,0
1,note_on,78,0,80
1,note_on,75,55,0
1,note_on,75,0,80
1,note_on,72,47,0
1,note_on,72,0,120
1,note_on,68,49,60
1,note_on,68,0,60
1,note_on,75,50,0
1,note_on,75,0,40
1,note_on,84,50,0
1,note_on,84,0,40
1,note_on,69,48,0
1,note_on,69,0,40
1,note_on,76,52,0
1,note_on,76,0,40
1,note_on,85,53,0
1,note_on,85,0,40
1,note_on,70,50,0
1,note_on,70,0,40
1,note_on,77,54,0
1,note_on,77,0,40
1,note_on,86,55,0
1,note_on,86,0,40
1,note_on,71,53,0
1,note_on,71,0,40
1,note_on,78,56,0
1,note_on,78,0,40
1,note_on,87,57,0
1,note_on,87,0,40
1,note_on,72,54,0
1,note_on,72,0,40
1,note_on,88,64,0
1,note_on,79,54,0
1,note_on,79,0,360
1,note_on,88,0,0
1,note_on,89,58,0
1,note_on,80,49,0
1,note_on,80,0,120
1,note_on,89,0,0
1,note_on,89,57,0
1,note_on,80,48,0
1,note_on,80,0,80
1,note_on,89,0,0
1,note_on,90,61,0
1,note_on,82,51,0
1,note_on,82,0,40
1,note_on,90,0,0
1,note_on,80,45,80
1,note_on,89,54,0
1,note_on,89,0,40
1,note_on,80,0,0
1,note_on,89,58,0
1,note_on,80,49,0
1,note_on,80,0,60
1,note_on,89,0,0
1,note_on,85,54,0
1,note_on,77,45,0
1,note_on,77,0,660
1,note_on,85,0,0
1,note_on,85,60,0
1,note_on,76,51,0
1,note_on,76,0,240
1,note_on,85,0,0
1,note_on,86,57,0
1,note_on,78,48,0
1,note_on,78,0,240
1,note_on,86,0,0
1,note_on,81,54,0
1,note_on,73,45,0
1,note_on,73,0,240
1,note_on,81,0,0
1,note_on,85,61,0
1,note_on,76,61,0
1,note_on,76,0,120
1,note_on,85,0,0
1,note_on,74,43,0
1,note_on,83,51,0
1,note_on,83,0,30
1,note_on,74,0,0
1,note_on,76,51,0
1,note_on,85,51,0
1,note_on,85,0,30
1,note_on,76,0,0
1,note_on,74,45,0
1,note_on,83,54,0
1,note_on,83,0,60
1,note_on,74,0,0
1,note_on,82,54,0
1,note_on,73,45,0
1,note_on,73,0,120
1,note_on,82,0,0
1,note_on,74,48,0
1,note_on,83,57,0
1,note_on,83,0,120
1,note_on,74,0,0
1,note_on,85,60,0
1,note_on,76,51,0
1,note_on,76,0,60
1,note_on,85,0,0
1,note_on,71,45,120
1,note_on,80,54,0
1,note_on,80,0,60
1,note_on,71,0,0
1,note_on,74,54,0
1,note_on,83,64,0
1,note_on,83,0,120
1,note_on,74,0,0
1,note_on,81,61,240
1,note_on,73,51,0
1,note_on,73,0,120
1,note_on,81,0,0
1,note_on,73,51,0
1,note_on,81,61,0
1,note_on,81,0,40
1,note_on,73,0,0
1,note_on,73,50,40
1,note_on,80,59,0
1,note_on,80,0,40
1,note_on,73,0,0
1,note_on,73,50,40
1,note_on,78,59,0
1,note_on,78,0,40
1,note_on,73,0,0
1,note_on,74,51,40
1,note_on,76,61,0
1,note_on,76,0,360
1,note_on,74,0,0
1,note_on,70,49,0
1,note_on,76,58,0
1,note_on,76,0,60
1,note_on,70,0,0
1,note_on,71,52,60
1,note_on,76,61,0
1,note_on,76,0,60
1,note_on,71,0,0
1,note_on,72,55,60
1,note_on,76,66,0
1,note_on,76,0,60
1,note_on,72,0,0
1,note_on,73,59,60
1,note_on,76,67,0
1,note_on,76,0,480
1,note_on,73,0,0
1,note_on,74,55,0
1,note_on,78,61,0
1,note_on,78,0,120
1,note_on,74,0,0
1,note_on,69,55,0
1,note_on,73,65,0
1,note_on,73,0,120
1,note_on,69,0,0
1,note_on,68,50,0
1,note_on,73,59,0
1,note_on,73,0,60
1,note_on,68,0,0
1,note_on,73,56,0
1,note_on,76,66,0
1,note_on,76,0,120
1,note_on,73,0,0
1,note_on,74,60,0
1,note_on,71,51,0
1,note_on,71,0,60
1,note_on,74,0,0
1,note_on,74,58,0
1,note_on,71,58,0
1,note_on,71,0,20
1,note_on,74,0,0
1,note_on,76,52,0
1,note_on,73,52,0
1,note_on,73,0,20
1,note_on,76,0,0
1,note_on,74,57,0
1,note_on,71,57,0
1,note_on,71,0,40
1,note_on,74,0,0
1,note_on,70,50,0
1,note_on,73,59,0
1,note_on,73,0,80
1,note_on,70,0,0
1,note_on,71,51,0
1,note_on,74,60,0
1,note_on,74,0,80
1,note_on,71,0,0
1,note_on,71,52,0
1,note_on,74,61,0
1,note_on,74,0,80
1,note_on,71,0,0
1,note_on,73,54,0
1,note_on,76,63,0
1,note_on,73,0,40
1,note_on,76,0,40
1,note_on,68,55,40
1,note_on,71,65,0
1,note_on,71,0,40
1,note_on,68,0,0
1,note_on,74,62,0
1,note_on,71,53,0
1,note_on,71,0,240
1,note_on,74,0,0
1,note_on,73,62,0
1,note_on,69,53,0
1,note_on,69,0,240
1,note_on,73,0,0
1,note_on,73,59,0
1,note_on,81,70,0
1,note_on,81,0,480
1,note_on,73,0,0
1,note_on,73,59,0
1,note_on,81,70,0
1,note_on,81,0,240
1,note_on,73,0,0
1,note_on,81,76,0
1,note_on,73,64,0
1,note_on,73,0,240
1,note_on,81,0,0
1,note_on,73,63,0
1,note_on,80,75,0
1,note_on,80,0,240
1,note_on,81,74,0
1,note_on,81,0,360
1,note_on,80,75,0
1,note_on,80,0,120
1,note_on,78,73,0
1,note_on,73,0,80
1,note_on,75,72,0
1,note_on,75,0,80
1,note_on,73,70,0
1,note_on,73,0,80
1,note_on,72,70,0
1,note_on,78,0,80
1,note_on,76,70,0
1,note_on,76,0,80
1,note_on,78,75,0
1,note_on,78,0,80
1,note_on,80,75,0
1,note_on,80,0,60
1,note_on,72,0,60
1,note_on,72,61,60
1,note_on,75,72,0
1,note_on,75,0,60
1,note_on,72,0,0
1,note_on,75,64,0
1,note_on,78,76,0
1,note_on,78,0,320
1,note_on,75,0,0
1,note_on,73,62,0
1,note_on,76,73,0
1,note_on,76,0,40
1,note_on,73,0,0
1,note_on,76,62,80
1,note_on,85,73,0
1,note_on,85,0,40
1,note_on,76,0,0
1,note_on,76,63,0
1,note_on,85,75,0
1,note_on,85,0,80
1,note_on,76,0,0
1,note_on,80,62,0
1,note_on,83,73,0
1,note_on,83,0,80
1,note_on,80,0,0
1,note_on,78,59,40
1,note_on,81,70,0
1,note_on,81,0,40
1,note_on,78,0,0
1,note_on,76,64,0
1,note_on,80,76,0
1,note_on,80,0,40
1,note_on,76,0,0
1,note_on,68,57,40
1,note_on,80,68,0
1,note_on,80,0,40
1,note_on,68,0,0
1,note_on,69,58,40
1,note_on,80,69,0
1,note_on,80,0,40
1,note_on,69,0,0
1,note_on,70,58,40
1,note_on,80,70,0
1,note_on,80,0,40
1,note_on,70,0,0
1,note_on,71,59,40
1,note_on,80,71,0
1,note_on,80,0,40
1,note_on,71,0,0
1,note_on,72,60,40
1,note_on,80,72,0
1,note_on,80,0,40
1,note_on,72,0,0
1,note_on,73,61,40
1,note_on,80,73,0
1,note_on,80,0,40
1,note_on,73,0,0
1,note_on,74,61,8
1,note_on,80,73,0
1,note_on,80,0,40
1,note_on,74,0,0
1,note_on,75,63,8
1,note_on,80,74,0
1,note_on,80,0,40
1,note_on,75,0,0
1,note_on,76,63,8
1,note_on,80,74,0
1,note_on,80,0,40
1,note_on,76,0,0
1,note_on,77,64,8
1,note_on,80,75,0
1,note_on,80,0,40
1,note_on,77,0,0
1,note_on,80,79,8
1,note_on,78,67,0
1,note_on,78,0,180
1,note_on,80,0,0
1,note_on,83,63,0
1,note_on,83,0,60
1,note_on,81,78,0
1,note_on,78,66,0
1,note_on,78,0,240
1,note_on,81,0,0
1,note_on,80,79,0
1,note_on,78,67,0
1,note_on,78,0,240
1,note_on,80,0,0
1,note_on,87,88,0
1,note_on,78,74,0
1,note_on,78,0,60
1,note_on,87,0,0
1,note_on,76,69,180
1,note_on,80,81,0
1,note_on,80,0,240
1,note_on,76,0,0
1,note_on,75,72,0
1,note_on,80,85,0
1,note_on,80,0,240
1,note_on,75,0,0
1,note_on,75,75,0
1,note_on,80,89,0
1,note_on,80,0,480
1,note_on,78,80,0
1,note_on,78,0,240
1,note_on,75,0,0
1,note_on,72,64,240
1,note_on,75,64,0
1,note_on,78,76,0
1,note_on,78,0,240
1,note_on,75,0,0
1,note_on,72,0,0
1,note_on,71,68,0
1,note_on,75,68,0
1,note_on,78,80,0
1,note_on,78,0,240
1,note_on,75,0,0
1,note_on,71,0,0
1,note_on,70,71,0
1,note_on,75,71,0
1,note_on,78,84,0
1,note_on,78,0,120
1,note_on,75,0,0
1,note_on,70,0,0
1,note_on,78,78,60
1,note_on,78,0,60
1,note_on,90,97,0
1,note_on,90,0,600
1,note_on,86,86,0
1,note_on,86,0,120
1,note_on,87,79,0
1,note_on,87,0,80
1,note_on,81,77,0
1,note_on,81,0,80
1,note_on,82,77,0
1,note_on,82,0,80
1,note_on,77,76,0
1,note_on,77,0,80
1,note_on,78,75,0
1,note_on,78,0,80
1,note_on,74,75,0
1,note_on,74,0,80
1,note_on,69,71,0
1,note_on,75,71,0
1,note_on,78,84,0
1,note_on,78,0,120
1,note_on,75,0,0
1,note_on,69,0,0
1,note_on,78,78,60
1,note_on,78,0,60
1,note_on,90,97,0
1,note_on,90,0,600
1,note_on,86,86,0
1,note_on,86,0,120
1,note_on,87,79,0
1,note_on,87,0,80
1,note_on,80,77,0
1,note_on,80,0,80
1,note_on,81,77,0
1,note_on,81,0,80
1,note_on,77,76,0
1,note_on,77,0,80
1,note_on,78,75,0
1,note_on,78,0,80
1,note_on,74,75,0
1,note_on,74,0,80
1,note_on,69,71,0
1,note_on,75,71,0
1,note_on,78,84,0
1,note_on,78,0,120
1,note_on,75,0,0
1,note_on,69,0,0
1,note_on,78,78,60
1,note_on,78,0,60
1,note_on,90,97,0
1,note_on,90,0,480
1,note_on,69,71,0
1,note_on,73,71,0
1,note_on,78,84,0
1,note_on,78,0,120
1,note_on,73,0,0
1,note_on,69,0,0
1,note_on,78,78,60
1,note_on,78,0,60
1,note_on,90,97,0
1,note_on,90,0,240
1,note_on,69,71,0
1,note_on,72,71,0
1,note_on,78,84,0
1,note_on,78,0,120
1,note_on,72,0,0
1,note_on,69,0,0
1,note_on,78,78,60
1,note_on,78,0,60
1,note_on,90,97,0
1,note_on,90,0,320
1,note_on,89,86,0
1,note_on,89,0,80
1,note_on,88,84,0
1,note_on,88,0,80
1,note_on,78,89,0
1,note_on,78,0,80
1,note_on,87,82,0
1,note_on,87,0,80
1,note_on,86,82,0
1,note_on,86,0,80
1,note_on,85,87,0
1,note_on,85,0,80
1,note_on,75,79,0
1,note_on,75,0,80
1,note_on,84,79,0
1,note_on,84,0,80
1,note_on,82,83,0
1,note_on,82,0,80
1,note_on,81,77,0
1,note_on,81,0,80
1,note_on,72,74,0
1,note_on,72,0,80
1,note_on,80,81,0
1,note_on,80,0,80
1,note_on,79,75,0
1,note_on,79,0,80
1,note_on,78,73,0
1,note_on,78,0,80
1,note_on,77,79,0
1,note_on,77,0,720
1,note_on,75,82,0
1,note_on,75,0,240
1,note_on,73,77,0
1,note_on,73,0,360
1,note_on,65,74,0
1,note_on,65,0,120
1,note_on,68,81,0
1,note_on,68,0,960
1,note_on,73,81,0
1,note_on,73,0,240
1,note_on,77,85,0
1,note_on,77,0,240
1,note_on,82,95,0
1,note_on,82,0,840
1,note_on,80,69,0
1,note_on,80,0,120
1,note_on,76,76,0
1,note_on,76,0,120
1,note_on,77,70,0
1,note_on,77,0,120
1,note_on,72,75,0
1,note_on,72,0,120
1,note_on,73,69,0
1,note_on,73,0,120
1,note_on,71,79,0
1,note_on,71,0,1440
1,note_on,83,61,0
1,note_on,83,0,800
1,note_on,79,50,0
1,note_on,79,0,80
1,note_on,80,50,0
1,note_on,80,0,80
1,note_on,79,53,0
1,note_on,79,0,80
1,note_on,78,50,0
1,note_on,78,0,80
1,note_on,79,50,0
1,note_on,79,0,80
1,note_on,82,56,0
1,note_on,82,0,80
1,note_on,80,52,0
1,note_on,80,0,80
1,note_on,77,50,0
1,note_on,77,0,80
1,note_on,75,51,0
1,note_on,75,0,720
1,note_on,73,47,0
1,note_on,75,43,25
1,note_on,73,0,5
1,note_on,73,47,20
1,note_on,75,0,5
1,note_on,75,43,20
1,note_on,73,0,5
1,note_on,73,47,20
1,note_on,75,0,5
1,note_on,75,43,15
1,note_on,73,0,10
1,note_on,73,47,10
1,note_on,75,0,10
1,note_on,75,43,10
1,note_on,73,0,10
1,note_on,73,47,10
1,note_on,75,0,10
1,note_on,75,43,10
1,note_on,73,0,10
1,note_on,73,47,10
1,note_on,75,0,10
1,note_on,72,47,10
1,note_on,73,0,10
1,note_on,72,0,30
1,note_on,73,46,0
1,note_on,73,0,40
1,note_on,75,47,0
1,note_on,75,0,40
1,note_on,77,48,0
1,note_on,77,0,40
1,note_on,78,49,0
1,note_on,78,0,40
1,note_on,80,50,0
1,note_on,80,0,40
1,note_on,82,51,0
1,note_on,82,0,40
1,note_on,83,52,0
1,note_on,83,0,40
1,note_on,85,53,0
1,note_on,85,0,40
1,note_on,87,54,0
1,note_on,87,0,40
1,note_on,89,55,0
1,note_on,89,0,40
1,note_on,90,55,0
1,note_on,90,0,40
1,note_on,94,57,0
1,note_on,94,0,60
1,note_on,92,55,0
1,note_on,92,0,60
1,note_on,95,52,0
1,note_on,95,0,60
1,note_on,91,52,0
1,note_on,91,0,60
1,note_on,92,52,0
1,note_on,92,0,60
1,note_on,91,52,0
1,note_on,91,0,60
1,note_on,95,52,0
1,note_on,95,0,60
1,note_on,90,52,0
1,note_on,90,0,60
1,note_on,91,49,0
1,note_on,91,0,60
1,note_on,90,49,0
1,note_on,90,0,60
1,note_on,95,50,0
1,note_on,95,0,60
1,note_on,89,50,0
1,note_on,89,0,60
1,note_on,90,51,0
1,note_on,90,0,60
1,note_on,89,52,0
1,note_on,89,0,60
1,note_on,95,52,0
1,note_on,95,0,60
1,note_on,88,53,0
1,note_on,88,0,60
1,note_on,89,53,0
1,note_on,89,0,60
1,note_on,88,54,0
1,note_on,88,0,60
1,note_on,95,55,0
1,note_on,95,0,60
1,note_on,87,55,0
1,note_on,87,0,60
1,note_on,88,56,0
1,note_on,88,0,60
1,note_on,87,57,0
1,note_on,87,0,60
1,note_on,95,57,0
1,note_on,95,0,60
1,note_on,86,57,0
1,note_on,86,0,60
1,note_on,85,57,0
1,note_on,85,0,60
1,note_on,87,58,0
1,note_on,87,0,60
1,note_on,85,59,0
1,note_on,85,0,60
1,note_on,84,59,0
1,note_on,84,0,60
1,note_on,85,60,0
1,note_on,85,0,60
1,note_on,87,61,0
1,note_on,87,0,60
1,note_on,89,61,0
1,note_on,89,0,60
1,note_on,90,62,0
1,note_on,90,0,60
1,note_on,92,62,0
1,note_on,92,0,60
1,note_on,94,62,0
1,note_on,94,0,60
1,note_on,95,64,0
1,note_on,95,0,60
1,note_on,97,66,0
1,note_on,97,0,60
1,note_on,101,65,0
1,note_on,101,0,60
1,note_on,99,64,0
1,note_on,99,0,60
1,note_on,97,62,0
1,note_on,97,0,60
1,note_on,95,61,0
1,note_on,95,0,60
1,note_on,92,59,0
1,note_on,92,0,60
1,note_on,89,58,0
1,note_on,89,0,60
1,note_on,85,57,0
1,note_on,85,0,60
1,note_on,83,56,0
1,note_on,83,0,60
1,note_on,80,54,0
1,note_on,80,0,60
1,note_on,77,53,0
1,note_on,77,0,60
1,note_on,73,51,0
1,note_on,73,0,60
1,note_on,71,50,0
1,note_on,71,0,60
1,note_on,70,53,0
1,note_on,70,0,360
1,note_on,69,48,0
1,note_on,69,0,60
1,note_on,70,50,0
1,note_on,70,0,60
1,note_on,71,53,0
1,note_on,71,0,60
1,note_on,70,50,0
1,note_on,70,0,60
1,note_on,73,52,0
1,note_on,73,0,40
1,note_on,71,50,0
1,note_on,71,0,40
1,note_on,70,48,0
1,note_on,70,0,40
1,note_on,70,50,0
1,note_on,70,0,480
1,note_on,82,54,0
1,note_on,78,59,240
1,note_on,78,0,240
1,note_on,82,0,0
1,note_on,83,61,0
1,note_on,80,55,0
1,note_on,80,0,240
1,note_on,83,0,0
1,note_on,75,51,0
1,note_on,78,61,0
1,note_on,78,0,180
1,note_on,75,0,0
1,note_on,75,50,0
1,note_on,78,59,0
1,note_on,78,0,60
1,note_on,75,0,0
1,note_on,78,56,0
1,note_on,82,66,0
1,note_on,82,0,120
1,note_on,78,0,0
1,note_on,80,60,60
1,note_on,77,51,0
1,note_on,77,0,60
1,note_on,80,0,0
1,note_on,80,58,0
1,note_on,77,58,0
1,note_on,77,0,20
1,note_on,80,0,0
1,note_on,82,52,0
1,note_on,78,52,0
1,note_on,78,0,20
1,note_on,82,0,0
1,note_on,80,57,0
1,note_on,77,57,0
1,note_on,77,0,40
1,note_on,80,0,0
1,note_on,75,50,0
1,note_on,78,59,0
1,note_on,78,0,80
1,note_on,75,0,0
1,note_on,77,51,0
1,note_on,80,60,0
1,note_on,80,0,80
1,note_on,77,0,0
1,note_on,82,63,0
1,note_on,78,54,0
1,note_on,78,0,40
1,note_on,82,0,40
1,note_on,74,55,120
1,note_on,77,65,0
1,note_on,77,0,40
1,note_on,74,0,0
1,note_on,80,62,0
1,note_on,77,53,0
1,note_on,77,0,240
1,note_on,80,0,0
1,note_on,78,57,0
1,note_on,75,57,0
1,note_on,75,0,120
1,note_on,78,0,0
1,note_on,78,56,60
1,note_on,87,66,0
1,note_on,87,0,60
1,note_on,78,0,0
1,note_on,78,55,0
1,note_on,87,65,0
1,note_on,87,0,80
1,note_on,78,0,0
1,note_on,77,52,0
1,note_on,85,61,0
1,note_on,85,0,80
1,note_on,77,0,0
1,note_on,75,52,0
1,note_on,83,61,0
1,note_on,83,0,80
1,note_on,75,0,0
1,note_on,74,57,0
1,note_on,82,68,0
1,note_on,82,0,80
1,note_on,74,0,0
1,note_on,70,49,0
1,note_on,82,58,0
1,note_on,82,0,40
1,note_on,70,0,0
1,note_on,71,50,40
1,note_on,82,60,0
1,note_on,82,0,40
1,note_on,71,0,0
1,note_on,72,52,40
1,note_on,82,62,0
1,note_on,82,0,40
1,note_on,72,0,0
1,note_on,73,53,40
1,note_on,82,63,0
1,note_on,82,0,40
1,note_on,73,0,0
1,note_on,74,56,40
1,note_on,82,66,0
1,note_on,82,0,40
1,note_on,74,0,0
1,note_on,75,57,40
1,note_on,82,68,0
1,note_on,82,0,40
1,note_on,75,0,0
1,note_on,76,59,40
1,note_on,82,70,0
1,note_on,82,0,40
1,note_on,76,0,0
1,note_on,77,60,40
1,note_on,82,71,0
1,note_on,82,0,40
1,note_on,77,0,0
1,note_on,78,59,40
1,note_on,82,67,0
1,note_on,82,0,240
1,note_on,78,0,0
1,note_on,83,61,0
1,note_on,80,55,0
1,note_on,80,0,360
1,note_on,83,0,0
1,note_on,75,55,0
1,note_on,78,65,0
1,note_on,78,0,60
1,note_on,75,0,0
1,note_on,75,50,0
1,note_on,78,59,0
1,note_on,78,0,60
1,note_on,75,0,0
1,note_on,78,56,0
1,note_on,82,66,0
1,note_on,82,0,120
1,note_on,78,0,0
1,note_on,80,60,60
1,note_on,77,51,0
1,note_on,77,0,60
1,note_on,80,0,0
1,note_on,80,58,0
1,note_on,77,58,0
1,note_on,77,0,20
1,note_on,80,0,0
1,note_on,82,52,0
1,note_on,78,52,0
1,note_on,78,0,20
1,note_on,82,0,0
1,note_on,80,57,0
1,note_on,77,57,0
1,note_on,77,0,40
1,note_on,80,0,0
1,note_on,75,50,0
1,note_on,78,59,0
1,note_on,78,0,80
1,note_on,75,0,0
1,note_on,77,51,0
1,note_on,80,60,0
1,note_on,80,0,80
1,note_on,77,0,0
1,note_on,77,52,0
1,note_on,80,61,0
1,note_on,80,0,80
1,note_on,77,0,0
1,note_on,78,54,0
1,note_on,82,63,0
1,note_on,78,0,40
1,note_on,82,0,40
1,note_on,74,55,40
1,note_on,77,65,0
1,note_on,77,0,40
1,note_on,74,0,0
1,note_on,80,62,0
1,note_on,77,53,0
1,note_on,77,0,240
1,note_on,80,0,0
1,note_on,78,57,0
1,note_on,75,57,0
1,note_on,75,0,120
1,note_on,78,0,0
1,note_on,90,71,120
1,note_on,82,60,0
1,note_on,82,0,360
1,note_on,90,0,0
1,note_on,89,73,0
1,note_on,80,62,0
1,note_on,80,0,60
1,note_on,89,0,0
1,note_on,78,56,60
1,note_on,87,67,0
1,note_on,87,0,40
1,note_on,78,0,0
1,note_on,77,57,40
1,note_on,85,68,0
1,note_on,85,0,40
1,note_on,77,0,0
1,note_on,75,59,40
1,note_on,84,70,0
1,note_on,84,0,40
1,note_on,75,0,0
1,note_on,73,60,40
1,note_on,82,71,0
1,note_on,82,0,40
1,note_on,73,0,0
1,note_on,72,61,40
1,note_on,80,72,0
1,note_on,80,0,40
1,note_on,72,0,0
1,note_on,70,62,40
1,note_on,78,73,0
1,note_on,78,0,40
1,note_on,70,0,0
1,note_on,68,61,40
1,note_on,77,72,0
1,note_on,77,0,240
1,note_on,68,0,0
1,note_on,70,64,0
1,note_on,78,76,0
1,note_on,78,0,240
1,note_on,70,0,0
1,note_on,68,62,0
1,note_on,77,74,0
1,note_on,77,0,240
1,note_on,68,0,0
1,note_on,66,62,0
1,note_on,75,73,0
1,note_on,75,0,240
1,note_on,66,0,0
1,note_on,65,60,0
1,note_on,73,71,0
1,note_on,73,0,240
1,note_on,65,0,0
1,note_on,61,60,0
1,note_on,65,71,0
1,note_on,65,0,240
1,note_on,61,0,0
1,note_on,61,65,0
1,note_on,68,77,0
1,note_on,68,0,720
1,note_on,61,0,0
1,note_on,63,66,0
1,note_on,61,66,0
1,note_on,70,78,0
1,note_on,70,0,720
1,note_on,61,0,0
1,note_on,63,0,0
1,note_on,56,66,0
1,note_on,61,66,0
1,note_on,63,78,0
1,note_on,63,0,400
1,note_on,68,61,0
1,note_on,68,0,40
1,note_on,73,63,0
1,note_on,73,0,40
1,note_on,75,65,0
1,note_on,75,0,40
1,note_on,80,67,0
1,note_on,80,0,40
1,note_on,85,68,0
1,note_on,85,0,40
1,note_on,87,70,0
1,note_on,87,0,40
1,note_on,92,72,0
1,note_on,92,0,40
1,note_on,97,73,0
1,note_on,97,0,40
1,note_on,61,0,0
1,note_on,56,0,0
1,note_on,99,92,0
1,note_on,99,0,400
1,note_on,97,78,0
1,note_on,97,0,40
1,note_on,92,76,0
1,note_on,92,0,40
1,note_on,87,74,0
1,note_on,87,0,40
1,note_on,85,72,0
1,note_on,85,0,40
1,note_on,80,69,0
1,note_on,80,0,40
1,note_on,75,67,0
1,note_on,75,0,40
1,note_on,73,65,0
1,note_on,73,0,40
1,note_on,68,63,0
1,note_on,68,0,40
1,note_on,63,78,0
1,note_on,63,0,720
1,note_on,65,66,0
1,note_on,56,66,0
1,note_on,68,78,0
1,note_on,65,0,360
1,note_on,63,72,0
1,note_on,63,0,120
1,note_on,65,78,0
1,note_on,65,0,80
1,note_on,63,75,0
1,note_on,63,0,80
1,note_on,61,75,0
1,note_on,61,0,80
1,note_on,68,0,0
1,note_on,56,0,0
1,note_on,61,78,0
1,note_on,61,0,480
1,note_on,85,62,240
1,note_on,85,0,240
1,note_on,79,55,0
1,note_on,79,0,480
1,note_on,84,62,0
1,note_on,84,0,240
1,note_on,78,55,0
1,note_on,78,0,480
1,note_on,83,62,0
1,note_on,83,0,240
1,note_on,77,54,0
1,note_on,77,0,480
1,note_on,82,60,0
1,note_on,82,0,240
1,note_on,76,52,0
1,note_on,76,0,480
1,note_on,81,58,0
1,note_on,81,0,240
1,note_on,75,51,0
1,note_on,75,0,480
1,note_on,80,60,0
1,note_on,68,43,480
1,note_on,68,0,90
1,note_on,70,44,30
1,note_on,70,0,90
1,note_on,72,45,30
1,note_on,72,0,90
1,note_on,73,46,30
1,note_on,73,0,90
1,note_on,74,47,30
1,note_on,74,0,90
1,note_on,75,48,30
1,note_on,75,0,90
1,note_on,77,50,30
1,note_on,77,0,90
1,note_on,78,51,30
1,note_on,78,0,90
1,note_on,77,54,30
1,note_on,77,0,480
1,note_on,80,0,0
1,note_on,85,55,240
1,note_on,94,41,180
1,note_on,94,0,60
1,note_on,85,0,0
1,note_on,79,49,0
1,note_on,79,0,480
1,note_on,84,55,0
1,note_on,93,41,180
1,note_on,93,0,60
1,note_on,84,0,0
1,note_on,78,49,0
1,note_on,78,0,480
1,note_on,83,55,0
1,note_on,92,41,180
1,note_on,92,0,60
1,note_on,83,0,0
1,note_on,77,49,0
1,note_on,77,0,480
1,note_on,82,55,0
1,note_on,91,41,180
1,note_on,91,0,60
1,note_on,82,0,0
1,note_on,76,49,0
1,note_on,76,0,480
1,note_on,81,55,0
1,note_on,90,41,180
1,note_on,90,0,60
1,note_on,81,0,0
1,note_on,75,49,0
1,note_on,75,0,480
1,note_on,80,55,0
1,note_on,79,47,840
1,note_on,79,0,90
1,note_on,78,46,30
1,note_on,78,0,90
1,note_on,77,45,30
1,note_on,77,0,90
1,note_on,75,45,30
1,note_on,75,0,90
1,note_on,77,43,30
1,note_on,77,0,90
1,note_on,73,52,30
1,note_on,80,0,720
1,note_on,77,46,0
1,note_on,77,0,120
1,note_on,78,45,0
1,note_on,78,0,120
1,note_on,79,46,0
1,note_on,79,0,120
1,note_on,80,48,0
1,note_on,80,0,120
1,note_on,84,48,0
1,note_on,84,0,120
1,note_on,82,47,0
1,note_on,82,0,120
1,note_on,73,0,0
1,note_on,72,45,0
1,note_on,80,53,0
1,note_on,72,0,120
1,note_on,73,45,0
1,note_on,73,0,120
1,note_on,74,45,0
1,note_on,74,0,120
1,note_on,75,45,0
1,note_on,75,0,120
1,note_on,78,44,0
1,note_on,78,0,120
1,note_on,77,44,0
1,note_on,77,0,120
1,note_on,75,44,0
1,note_on,80,0,120
1,note_on,79,44,0
1,note_on,79,0,120
1,note_on,78,43,0
1,note_on,78,0,120
1,note_on,77,42,0
1,note_on,77,0,120
1,note_on,75,0,0
1,note_on,68,40,0
1,note_on,75,42,0
1,note_on,75,0,120
1,note_on,77,39,0
1,note_on,77,0,120
1,note_on,68,0,0
1,note_on,69,43,0
1,note_on,73,48,0
1,note_on,69,0,120
1,note_on,68,43,0
1,note_on,68,0,120
1,note_on,67,43,0
1,note_on,67,0,120
1,note_on,68,43,0
1,note_on,72,37,60
1,note_on,72,0,60
1,note_on,68,0,0
1,note_on,70,43,0
1,note_on,70,0,120
1,note_on,68,42,0
1,note_on,68,0,120
1,note_on,73,0,0
1,note_on,68,42,0
1,note_on,77,42,0
1,note_on,77,0,120
1,note_on,78,41,0
1,note_on,78,0,120
1,note_on,79,42,0
1,note_on,79,0,120
1,note_on,80,44,0
1,note_on,80,0,120
1,note_on,68,0,0
1,note_on,84,45,0
1,note_on,84,0,120
1,note_on,82,44,0
1,note_on,82,0,120
1,note_on,72,41,0
1,note_on,80,48,0
1,note_on,72,0,120
1,note_on,73,41,0
1,note_on,73,0,120
1,note_on,74,41,0
1,note_on,74,0,120
1,note_on,75,41,0
1,note_on,75,0,120
1,note_on,78,41,0
1,note_on,78,0,120
1,note_on,77,41,0
1,note_on,77,0,120
1,note_on,75,40,0
1,note_on,80,0,120
1,note_on,79,40,0
1,note_on,79,0,120
1,note_on,78,40,0
1,note_on,78,0,120
1,note_on,77,38,0
1,note_on,77,0,120
1,note_on,75,0,0
1,note_on,68,36,0
1,note_on,75,38,0
1,note_on,75,0,120
1,note_on,77,36,0
1,note_on,77,0,120
1,note_on,68,0,0
1,note_on,65,34,0
1,note_on,73,39,0
1,note_on,73,0,1440
1,note_on,65,0,0
1,note_on,68,31,0
1,note_on,77,37,0
1,note_on,77,0,90
1,note_on,68,0,0
1,note_on,70,31,12
1,note_on,78,37,0
1,note_on,78,0,90
1,note_on,70,0,0
1,note_on,72,31,12
1,note_on,80,37,0
1,note_on,80,0,90
1,note_on,72,0,0
1,note_on,73,30,12
1,note_on,82,36,0
1,note_on,82,0,90
1,note_on,73,0,0
1,note_on,75,30,12
1,note_on,84,36,0
1,note_on,84,0,90
1,note_on,75,0,0
1,note_on,77,29,12
1,note_on,85,35,0
1,note_on,85,0,90
1,note_on,77,0,0
1,note_on,78,29,12
1,note_on,87,35,0
1,note_on,87,0,90
1,note_on,78,0,0
1,note_on,80,28,18
1,note_on,89,34,0
1,note_on,89,0,90
1,note_on,80,0,0
1,note_on,82,28,12
1,note_on,90,34,0
1,note_on,90,0,90
1,note_on,82,0,0
1,note_on,84,28,12
1,note_on,92,33,0
1,note_on,92,0,90
1,note_on,84,0,0
1,note_on,85,28,12
1,note_on,94,33,0
1,note_on,94,0,90
1,note_on,85,0,0
1,note_on,87,27,12
1,note_on,96,32,0
1,note_on,96,0,90
1,note_on,87,0,0
1,note_on,89,27,12
1,note_on,97,32,0
1,note_on,97,0,90
1,note_on,89,0,0
1,note_on,90,27,12
1,note_on,99,32,0
1,note_on,99,0,90
1,note_on,90,0,0
1,note_on,101,36,18
1,note_on,92,30,0
1,note_on,92,0,480
1,note_on,101,0,0
1,note_on,68,30,240
1,note_on,77,36,0
1,note_on,77,0,720
1,note_on,68,0,0
1,note_on,65,28,0
1,note_on,73,33,0
1,note_on,73,0,1440
1,note_on,65,0,0
2,note_on,37,30,0
2,note_on,37,0,120
2,note_on,65,26,0
2,note_on,65,0,120
2,note_on,56,26,0
2,note_on,56,0,120
2,note_on,65,26,0
2,note_on,65,0,120
2,note_on,61,26,0
2,note_on,61,0,120
2,note_on,53,26,0
2,note_on,53,0,120
2,note_on,49,30,0
2,note_on,49,0,120
2,note_on,65,26,0
2,note_on,65,0,120
2,note_on,56,26,0
2,note_on,56,0,120
2,note_on,65,25,0
2,note_on,65,0,120
2,note_on,61,28,0
2,note_on,61,0,120
2,note_on,53,25,0
2,note_on,53,0,120
2,note_on,49,30,0
2,note_on,49,0,120
2,note_on,65,26,0
2,note_on,65,0,120
2,note_on,56,26,0
2,note_on,56,0,120
2,note_on,65,26,0
2,note_on,65,0,120
2,note_on,61,26,0
2,note_on,61,0,120
2,note_on,53,26,0
2,note_on,53,0,120
2,note_on,49,30,0
2,note_on,49,0,120
2,note_on,65,26,0
2,note_on,65,0,120
2,note_on,56,26,0
2,note_on,56,0,120
2,note_on,65,26,0
2,note_on,65,0,120
2,note_on,61,26,0
2,note_on,61,0,120
2,note_on,53,26,0
2,note_on,53,0,120
2,note_on,49,30,0
2,note_on,49,0,120
2,note_on,65,28,0
2,note_on,65,0,120
2,note_on,56,28,0
2,note_on,56,0,120
2,note_on,65,27,0
2,note_on,65,0,120
2,note_on,61,27,0
2,note_on,61,0,120
2,note_on,53,27,0
2,note_on,53,0,120
2,note_on,49,31,0
2,note_on,49,0,120
2,note_on,65,27,0
2,note_on,65,0,120
2,note_on,56,27,0
2,note_on,56,0,120
2,note_on,65,28,0
2,note_on,65,0,120
2,note_on,61,28,0
2,note_on,61,0,120
2,note_on,53,30,0
2,note_on,53,0,120
2,note_on,49,34,0
2,note_on,49,0,120
2,note_on,65,29,0
2,note_on,65,0,120
2,note_on,56,28,0
2,note_on,56,0,120
2,note_on,65,28,0
2,note_on,65,0,120
2,note_on,61,28,0
2,note_on,61,0,120
2,note_on,53,27,0
2,note_on,53,0,120
2,note_on,49,30,0
2,note_on,49,0,120
2,note_on,65,26,0
2,note_on,65,0,120
2,note_on,56,26,0
2,note_on,56,0,120
2,note_on,65,25,0
2,note_on,65,0,120
2,note_on,61,25,0
2,note_on,61,0,120
2,note_on,53,24,0
2,note_on,53,0,120
2,note_on,37,30,0
2,note_on,37,0,51
2,note_on,66,26,0
2,note_on,66,0,120
2,note_on,57,26,0
2,note_on,57,0,120
2,note_on,66,26,0
2,note_on,66,0,120
2,note_on,63,26,0
2,note_on,63,0,120
2,note_on,54,26,0
2,note_on,54,0,120
2,note_on,49,30,0
2,note_on,49,0,120
2,note_on,66,26,0
2,note_on,66,0,120
2,note_on,57,26,0
2,note_on,57,0,120
2,note_on,66,25,0
2,note_on,66,0,120
2,note_on,63,28,0
2,note_on,63,0,120
2,note_on,57,25,0
2,note_on,57,0,120
2,note_on,49,30,0
2,note_on,49,0,51
2,note_on,66,26,0
2,note_on,66,0,120
2,note_on,58,26,0
2,note_on,58,0,120
2,note_on,66,26,0
2,note_on,66,0,120
2,note_on,63,26,0
2,note_on,63,0,120
2,note_on,54,26,0
2,note_on,54,0,120
2,note_on,49,30,0
2,note_on,49,0,120
2,note_on,66,26,0
2,note_on,66,0,120
2,note_on,58,26,0
2,note_on,58,0,120
2,note_on,66,25,0
2,note_on,66,0,120
2,note_on,63,28,0
2,note_on,63,0,120
2,note_on,54,25,0
2,note_on,54,0,120
2,note_on,48,30,0
2,note_on,48,0,46
2,note_on,66,26,0
2,note_on,66,0,120
2,note_on,57,25,0
2,note_on,57,0,120
2,note_on,66,24,0
2,note_on,66,0,120
2,note_on,63,23,0
2,note_on,63,0,120
2,note_on,54,23,0
2,note_on,54,0,120
2,note_on,46,31,0
2,note_on,46,0,40
2,note_on,66,27,0
2,note_on,66,0,120
2,note_on,58,28,0
2,note_on,58,0,120
2,note_on,66,30,0
2,note_on,66,0,120
2,note_on,63,31,0
2,note_on,63,0,120
2,note_on,54,34,0
2,note_on,54,0,120
2,note_on,45,38,0
2,note_on,45,0,65
2,note_on,66,28,0
2,note_on,66,0,120
2,note_on,57,27,0
2,note_on,57,0,120
2,note_on,66,25,0
2,note_on,66,0,120
2,note_on,61,24,0
2,note_on,61,0,120
2,note_on,51,23,0
2,note_on,51,0,120
2,note_on,44,30,0
2,note_on,44,0,55
2,note_on,66,24,0
2,note_on,66,0,120
2,note_on,56,26,0
2,note_on,56,0,120
2,note_on,66,28,0
2,note_on,66,0,120
2,note_on,60,29,0
2,note_on,60,0,120
2,note_on,51,30,0
2,note_on,51,0,120
2,note_on,37,38,0
2,note_on,37,0,65
2,note_on,64,29,0
2,note_on,64,0,60
2,note_on,55,28,60
2,note_on,55,0,120
2,note_on,64,28,0
2,note_on,64,0,60
2,note_on,58,28,60
2,note_on,58,0,120
2,note_on,53,27,0
2,note_on,53,0,120
2,note_on,37,28,0
2,note_on,37,0,55
2,note_on,65,23,0
2,note_on,65,0,120
2,note_on,56,23,0
2,note_on,56,0,120
2,note_on,65,23,0
2,note_on,65,0,120
2,note_on,61,24,0
2,note_on,61,0,120
2,note_on,53,25,0
2,note_on,53,0,120
2,note_on,46,38,0
2,note_on,46,0,65
2,note_on,65,28,0
2,note_on,65,0,120
2,note_on,58,28,0
2,note_on,58,0,120
2,note_on,65,27,0
2,note_on,65,0,120
2,note_on,61,26,0
2,note_on,61,0,120
2,note_on,53,26,0
2,note_on,53,0,120
2,note_on,46,33,0
2,note_on,46,0,55
2,note_on,65,28,0
2,note_on,65,0,120
2,note_on,57,28,0
2,note_on,57,0,120
2,note_on,65,28,0
2,note_on,65,0,120
2,note_on,63,28,0
2,note_on,63,0,120
2,note_on,53,27,0
2,note_on,53,0,120
2,note_on,46,38,0
2,note_on,46,0,65
2,note_on,65,28,0
2,note_on,65,0,120
2,note_on,58,28,0
2,note_on,58,0,120
2,note_on,65,27,0
2,note_on,65,0,120
2,note_on,61,26,0
2,note_on,61,0,120
2,note_on,53,26,0
2,note_on,53,0,120
2,note_on,41,33,0
2,note_on,41,0,55
2,note_on,65,28,0
2,note_on,65,0,120
2,note_on,60,28,0
2,note_on,60,0,120
2,note_on,65,26,0
2,note_on,65,0,120
2,note_on,63,28,0
2,note_on,63,0,120
2,note_on,57,30,0
2,note_on,57,0,120
2,note_on,46,38,0
2,note_on,46,0,65
2,note_on,65,28,0
2,note_on,65,0,120
2,note_on,58,28,0
2,note_on,58,0,120
2,note_on,65,27,0
2,note_on,65,0,120
2,note_on,61,26,0
2,note_on,61,0,120
2,note_on,53,26,0
2,note_on,53,0,120
2,note_on,46,33,0
2,note_on,46,0,55
2,note_on,65,28,0
2,note_on,65,0,120
2,note_on,57,28,0
2,note_on,57,0,120
2,note_on,65,28,0
2,note_on,65,0,120
2,note_on,63,28,0
2,note_on,63,0,120
2,note_on,53,27,0
2,note_on,53,0,120
2,note_on,46,38,0
2,note_on,46,0,65
2,note_on,65,28,0
2,note_on,65,0,120
2,note_on,58,28,0
2,note_on,58,0,120
2,note_on,65,27,0
2,note_on,65,0,120
2,note_on,61,26,0
2,note_on,61,0,120
2,note_on,53,26,0
2,note_on,53,0,120
2,note_on,46,34,0
2,note_on,46,0,55
2,note_on,68,28,0
2,note_on,68,0,120
2,note_on,58,26,0
2,note_on,58,0,120
2,note_on,68,28,0
2,note_on,68,0,120
2,note_on,62,30,0
2,note_on,62,0,120
2,note_on,53,32,0
2,note_on,53,0,120
2,note_on,39,38,0
2,note_on,39,0,65
2,note_on,66,31,0
2,note_on,66,0,120
2,note_on,58,29,0
2,note_on,58,0,120
2,note_on,66,29,0
2,note_on,66,0,120
2,note_on,63,29,0
2,note_on,63,0,120
2,note_on,54,29,0
2,note_on,54,0,120
2,note_on,51,39,0
2,note_on,51,0,55
2,note_on,68,30,0
2,note_on,68,0,120
2,note_on,58,30,0
2,note_on,58,0,120
2,note_on,68,30,0
2,note_on,68,0,120
2,note_on,62,30,0
2,note_on,62,0,120
2,note_on,53,30,0
2,note_on,53,0,120
2,note_on,51,39,0
2,note_on,51,0,65
2,note_on,66,31,0
2,note_on,66,0,120
2,note_on,58,31,0
2,note_on,58,0,120
2,note_on,66,31,0
2,note_on,66,0,120
2,note_on,63,29,0
2,note_on,63,0,120
2,note_on,54,29,0
2,note_on,54,0,120
2,note_on,46,40,0
2,note_on,46,0,55
2,note_on,68,30,0
2,note_on,68,0,120
2,note_on,58,32,0
2,note_on,58,0,120
2,note_on,68,34,0
2,note_on,68,0,120
2,note_on,62,35,0
2,note_on,62,0,120
2,note_on,53,37,0
2,note_on,53,0,120
2,note_on,39,38,0
2,note_on,39,0,65
2,note_on,66,28,0
2,note_on,66,0,120
2,note_on,58,28,0
2,note_on,58,0,120
2,note_on,66,27,0
2,note_on,66,0,120
2,note_on,63,26,0
2,note_on,63,0,120
2,note_on,54,26,0
2,note_on,54,0,47
2,note_on,51,33,0
2,note_on,51,0,55
2,note_on,68,28,0
2,note_on,68,0,120
2,note_on,58,28,0
2,note_on,58,0,120
2,note_on,68,28,0
2,note_on,68,0,120
2,note_on,62,28,0
2,note_on,62,0,120
2,note_on,53,27,0
2,note_on,53,0,120
2,note_on,51,44,0
2,note_on,51,0,65
2,note_on,66,34,0
2,note_on,66,0,120
2,note_on,58,34,0
2,note_on,58,0,120
2,note_on,66,34,0
2,note_on,66,0,120
2,note_on,63,34,0
2,note_on,63,0,120
2,note_on,54,34,0
2,note_on,54,0,120
2,note_on,45,64,0
2,note_on,61,40,55
2,note_on,61,0,120
2,note_on,51,42,0
2,note_on,51,0,120
2,note_on,61,44,0
2,note_on,61,0,120
2,note_on,54,46,0
2,note_on,54,0,120
2,note_on,45,48,0
2,note_on,45,0,120
2,note_on,45,0,0
2,note_on,44,54,0
2,note_on,44,0,60
2,note_on,60,47,0
2,note_on,60,0,120
2,note_on,51,47,0
2,note_on,51,0,120
2,note_on,60,47,0
2,note_on,60,0,120
2,note_on,54,46,0
2,note_on,54,0,120
2,note_on,51,46,0
2,note_on,51,0,120
2,note_on,45,67,0
2,note_on,57,51,50
2,note_on,57,0,120
2,note_on,51,51,0
2,note_on,51,0,120
2,note_on,57,51,0
2,note_on,57,0,120
2,note_on,54,51,0
2,note_on,54,0,120
2,note_on,51,51,0
2,note_on,51,0,120
2,note_on,45,0,0
2,note_on,44,44,0
2,note_on,44,0,57
2,note_on,56,32,0
2,note_on,56,0,120
2,note_on,51,30,0
2,note_on,51,0,120
2,note_on,56,28,0
2,note_on,56,0,120
2,note_on,54,27,0
2,note_on,54,0,120
2,note_on,51,25,0
2,note_on,51,0,120
2,note_on,49,31,0
2,note_on,49,0,74
2,note_on,64,27,0
2,note_on,64,0,120
2,note_on,54,27,0
2,note_on,54,0,120
2,note_on,64,27,0
2,note_on,64,0,120
2,note_on,57,27,0
2,note_on,57,0,120
2,note_on,49,28,0
2,note_on,49,0,120
2,note_on,48,44,0
2,note_on,48,0,57
2,note_on,63,30,0
2,note_on,63,0,120
2,note_on,54,32,0
2,note_on,54,0,120
2,note_on,63,39,0
2,note_on,63,0,120
2,note_on,56,42,0
2,note_on,56,0,120
2,note_on,54,43,0
2,note_on,54,0,120
2,note_on,45,49,0
2,note_on,45,0,57
2,note_on,61,40,0
2,note_on,61,0,120
2,note_on,51,38,0
2,note_on,51,0,120
2,note_on,61,35,0
2,note_on,61,0,120
2,note_on,54,35,0
2,note_on,54,0,120
2,note_on,51,33,0
2,note_on,51,0,120
2,note_on,44,44,0
2,note_on,44,0,57
2,note_on,56,32,0
2,note_on,56,0,120
2,note_on,51,30,0
2,note_on,51,0,120
2,note_on,56,28,0
2,note_on,56,0,120
2,note_on,54,23,0
2,note_on,54,0,120
2,note_on,44,22,0
2,note_on,44,0,120
2,note_on,49,28,0
2,note_on,49,0,81
2,note_on,64,23,0
2,note_on,64,0,120
2,note_on,54,23,0
2,note_on,54,0,120
2,note_on,64,23,0
2,note_on,64,0,120
2,note_on,57,23,0
2,note_on,57,0,120
2,note_on,49,24,0
2,note_on,49,0,120
2,note_on,48,31,0
2,note_on,48,0,57
2,note_on,63,24,0
2,note_on,63,0,120
2,note_on,54,24,0
2,note_on,54,0,120
2,note_on,63,24,0
2,note_on,63,0,120
2,note_on,57,24,0
2,note_on,57,0,120
2,note_on,54,24,0
2,note_on,54,0,120
2,note_on,47,28,0
2,note_on,47,0,48
2,note_on,63,24,0
2,note_on,63,0,120
2,note_on,54,24,0
2,note_on,54,0,120
2,note_on,63,24,0
2,note_on,63,0,120
2,note_on,57,24,0
2,note_on,57,0,120
2,note_on,54,24,0
2,note_on,54,0,120
2,note_on,47,31,0
2,note_on,47,0,57
2,note_on,63,24,0
2,note_on,63,0,120
2,note_on,53,24,0
2,note_on,53,0,120
2,note_on,63,24,0
2,note_on,63,0,120
2,note_on,56,24,0
2,note_on,56,0,120
2,note_on,53,24,0
2,note_on,47,28,120
2,note_on,47,0,28
2,note_on,53,0,0
2,note_on,62,24,0
2,note_on,62,0,120
2,note_on,52,24,0
2,note_on,62,24,120
2,note_on,62,0,120
2,note_on,52,0,0
2,note_on,56,24,0
2,note_on,56,0,120
2,note_on,52,24,0
2,note_on,52,0,120
2,note_on,45,31,0
2,note_on,45,0,57
2,note_on,61,24,0
2,note_on,61,0,120
2,note_on,52,24,0
2,note_on,52,0,120
2,note_on,61,24,0
2,note_on,61,0,120
2,note_on,57,24,0
2,note_on,57,0,120
2,note_on,52,24,0
2,note_on,52,0,120
2,note_on,45,28,0
2,note_on,45,0,67
2,note_on,61,24,0
2,note_on,61,0,120
2,note_on,51,24,0
2,note_on,51,0,120
2,note_on,61,24,0
2,note_on,61,0,120
2,note_on,54,24,0
2,note_on,54,0,120
2,note_on,51,24,0
2,note_on,51,0,120
2,note_on,44,31,0
2,note_on,44,0,57
2,note_on,60,24,0
2,note_on,60,0,120
2,note_on,51,24,0
2,note_on,51,0,120
2,note_on,60,24,0
2,note_on,60,0,120
2,note_on,54,24,0
2,note_on,54,0,120
2,note_on,49,24,0
2,note_on,49,0,120
2,note_on,44,28,0
2,note_on,44,0,56
2,note_on,56,24,0
2,note_on,56,0,120
2,note_on,48,24,0
2,note_on,48,0,120
2,note_on,56,24,0
2,note_on,56,0,120
2,note_on,54,24,0
2,note_on,54,0,120
2,note_on,51,24,0
2,note_on,51,0,120
2,note_on,37,27,0
2,note_on,37,0,42
2,note_on,65,22,0
2,note_on,65,0,120
2,note_on,56,22,0
2,note_on,56,0,120
2,note_on,65,22,0
2,note_on,65,0,120
2,note_on,61,22,0
2,note_on,61,0,120
2,note_on,53,22,0
2,note_on,53,0,120
2,note_on,49,27,0
2,note_on,49,0,120
2,note_on,65,22,0
2,note_on,65,0,120
2,note_on,56,22,0
2,note_on,56,0,120
2,note_on,65,22,0
2,note_on,65,0,120
2,note_on,61,22,0
2,note_on,61,0,120
2,note_on,53,22,0
2,note_on,53,0,120
2,note_on,49,27,0
2,note_on,49,0,120
2,note_on,65,24,0
2,note_on,65,0,120
2,note_on,56,24,0
2,note_on,56,0,120
2,note_on,65,23,0
2,note_on,65,0,120
2,note_on,61,23,0
2,note_on,61,0,120
2,note_on,53,23,0
2,note_on,53,0,120
2,note_on,49,28,0
2,note_on,49,0,120
2,note_on,65,23,0
2,note_on,65,0,120
2,note_on,56,23,0
2,note_on,56,0,120
2,note_on,65,24,0
2,note_on,65,0,120
2,note_on,61,25,0
2,note_on,61,0,120
2,note_on,53,27,0
2,note_on,53,0,120
2,note_on,49,30,0
2,note_on,49,0,120
2,note_on,65,26,0
2,note_on,65,0,120
2,note_on,56,25,0
2,note_on,56,0,120
2,note_on,65,24,0
2,note_on,65,0,120
2,note_on,61,24,0
2,note_on,61,0,120
2,note_on,53,23,0
2,note_on,53,0,120
2,note_on,49,27,0
2,note_on,49,0,120
2,note_on,65,22,0
2,note_on,65,0,120
2,note_on,56,22,0
2,note_on,56,0,120
2,note_on,65,22,0
2,note_on,65,0,120
2,note_on,61,22,0
2,note_on,61,0,120
2,note_on,53,22,0
2,note_on,53,0,120
2,note_on,37,28,0
2,note_on,66,22,51
2,note_on,66,0,120
2,note_on,37,0,0
2,note_on,57,22,0
2,note_on,57,0,120
2,note_on,66,22,0
2,note_on,66,0,120
2,note_on,61,22,0
2,note_on,61,0,120
2,note_on,54,22,0
2,note_on,54,0,120
2,note_on,49,27,0
2,note_on,49,0,120
2,note_on,66,22,0
2,note_on,66,0,120
2,note_on,57,22,0
2,note_on,57,0,120
2,note_on,66,22,0
2,note_on,66,0,120
2,note_on,62,26,0
2,note_on,62,0,120
2,note_on,54,22,0
2,note_on,54,0,120
2,note_on,49,28,0
2,note_on,66,22,51
2,note_on,66,0,120
2,note_on,49,0,0
2,note_on,58,22,0
2,note_on,58,0,120
2,note_on,66,22,0
2,note_on,66,0,120
2,note_on,63,22,0
2,note_on,63,0,120
2,note_on,54,22,0
2,note_on,54,0,120
2,note_on,49,27,0
2,note_on,49,0,120
2,note_on,66,22,0
2,note_on,66,0,120
2,note_on,58,22,0
2,note_on,58,0,120
2,note_on,66,22,0
2,note_on,66,0,120
2,note_on,63,24,0
2,note_on,63,0,120
2,note_on,54,22,0
2,note_on,54,0,120
2,note_on,48,27,0
2,note_on,48,0,85
2,note_on,66,22,0
2,note_on,66,0,120
2,note_on,57,22,0
2,note_on,57,0,120
2,note_on,66,22,0
2,note_on,66,0,120
2,note_on,63,21,0
2,note_on,63,0,120
2,note_on,54,21,0
2,note_on,54,0,120
2,note_on,46,28,0
2,note_on,46,0,40
2,note_on,66,23,0
2,note_on,66,0,120
2,note_on,58,25,0
2,note_on,58,0,120
2,note_on,66,27,0
2,note_on,66,0,120
2,note_on,63,28,0
2,note_on,63,0,120
2,note_on,54,30,0
2,note_on,54,0,120
2,note_on,45,34,0
2,note_on,45,0,65
2,note_on,66,24,0
2,note_on,66,0,120
2,note_on,57,23,0
2,note_on,57,0,120
2,note_on,66,22,0
2,note_on,66,0,120
2,note_on,61,22,0
2,note_on,61,0,120
2,note_on,51,21,0
2,note_on,51,0,120
2,note_on,44,27,0
2,note_on,44,0,55
2,note_on,66,22,0
2,note_on,66,0,120
2,note_on,56,22,0
2,note_on,56,0,120
2,note_on,66,24,0
2,note_on,66,0,120
2,note_on,60,26,0
2,note_on,60,0,120
2,note_on,51,27,0
2,note_on,51,0,120
2,note_on,37,28,0
2,note_on,37,0,74
2,note_on,68,24,0
2,note_on,68,0,120
2,note_on,56,24,0
2,note_on,56,0,120
2,note_on,68,24,0
2,note_on,68,0,120
2,note_on,61,24,0
2,note_on,61,0,120
2,note_on,53,24,0
2,note_on,53,0,120
2,note_on,49,28,0
2,note_on,49,0,49
2,note_on,65,24,0
2,note_on,65,0,120
2,note_on,56,24,0
2,note_on,56,0,120
2,note_on,65,25,0
2,note_on,65,0,120
2,note_on,61,25,0
2,note_on,61,0,120
2,note_on,56,25,0
2,note_on,56,0,120
2,note_on,49,29,0
2,note_on,49,0,78
2,note_on,64,27,0
2,note_on,64,0,120
2,note_on,52,26,0
2,note_on,52,0,120
2,note_on,64,26,0
2,note_on,64,0,120
2,note_on,57,26,0
2,note_on,57,0,120
2,note_on,52,26,0
2,note_on,52,0,120
2,note_on,50,23,0
2,note_on,50,0,65
2,note_on,64,24,0
2,note_on,64,0,120
2,note_on,52,25,0
2,note_on,52,0,120
2,note_on,64,26,0
2,note_on,64,0,120
2,note_on,56,27,0
2,note_on,56,0,120
2,note_on,52,28,0
2,note_on,52,0,120
2,note_on,49,31,0
2,note_on,49,0,65
2,note_on,64,29,0
2,note_on,64,0,120
2,note_on,52,29,0
2,note_on,52,0,120
2,note_on,64,29,0
2,note_on,64,0,120
2,note_on,57,29,0
2,note_on,57,0,120
2,note_on,52,29,0
2,note_on,52,0,120
2,note_on,44,34,0
2,note_on,44,0,80
2,note_on,64,26,0
2,note_on,64,0,120
2,note_on,52,28,0
2,note_on,52,0,120
2,note_on,64,30,0
2,note_on,64,0,120
2,note_on,62,32,0
2,note_on,62,0,120
2,note_on,52,34,0
2,note_on,52,0,120
2,note_on,45,40,0
2,note_on,45,0,65
2,note_on,64,32,0
2,note_on,64,0,120
2,note_on,52,32,0
2,note_on,52,0,120
2,note_on,64,32,0
2,note_on,64,0,120
2,note_on,61,32,0
2,note_on,61,0,120
2,note_on,52,32,0
2,note_on,52,0,120
2,note_on,40,40,0
2,note_on,40,0,55
2,note_on,64,34,0
2,note_on,64,0,120
2,note_on,56,35,0
2,note_on,56,0,120
2,note_on,64,35,0
2,note_on,64,0,120
2,note_on,62,35,0
2,note_on,62,0,120
2,note_on,52,35,0
2,note_on,52,0,120
2,note_on,45,50,0
2,note_on,45,0,65
2,note_on,64,39,0
2,note_on,64,0,120
2,note_on,57,39,0
2,note_on,57,0,120
2,note_on,64,39,0
2,note_on,64,0,120
2,note_on,61,39,0
2,note_on,61,0,120
2,note_on,52,39,0
2,note_on,52,0,120
2,note_on,39,65,0
2,note_on,39,0,55
2,note_on,66,40,0
2,note_on,66,0,120
2,note_on,57,42,0
2,note_on,57,0,120
2,note_on,66,44,0
2,note_on,66,0,120
2,note_on,61,46,0
2,note_on,61,0,120
2,note_on,51,48,0
2,note_on,51,0,120
2,note_on,44,50,0
2,note_on,44,0,65
2,note_on,66,39,0
2,note_on,66,0,120
2,note_on,56,39,0
2,note_on,56,0,120
2,note_on,66,39,0
2,note_on,66,0,120
2,note_on,61,39,0
2,note_on,61,0,120
2,note_on,51,39,0
2,note_on,51,0,120
2,note_on,44,63,0
2,note_on,44,0,55
2,note_on,66,40,0
2,note_on,66,0,120
2,note_on,56,42,0
2,note_on,56,0,120
2,note_on,66,44,0
2,note_on,66,0,120
2,note_on,60,46,0
2,note_on,60,0,120
2,note_on,51,48,0
2,note_on,51,0,120
2,note_on,44,50,0
2,note_on,44,0,65
2,note_on,64,39,0
2,note_on,64,0,120
2,note_on,56,39,0
2,note_on,56,0,120
2,note_on,64,39,0
2,note_on,64,0,120
2,note_on,61,39,0
2,note_on,61,0,120
2,note_on,52,39,0
2,note_on,52,0,120
2,note_on,32,58,0
2,note_on,32,0,55
2,note_on,64,40,0
2,note_on,64,0,120
2,note_on,56,42,0
2,note_on,56,0,120
2,note_on,64,44,0
2,note_on,64,0,120
2,note_on,61,46,0
2,note_on,61,0,120
2,note_on,52,48,0
2,note_on,52,0,120
2,note_on,44,65,0
2,note_on,44,0,65
2,note_on,63,51,0
2,note_on,63,0,120
2,note_on,54,51,0
2,note_on,54,0,120
2,note_on,63,51,0
2,note_on,63,0,120
2,note_on,60,51,0
2,note_on,60,0,120
2,note_on,51,51,0
2,note_on,51,0,120
2,note_on,32,64,0
2,note_on,32,0,55
2,note_on,63,48,0
2,note_on,63,0,120
2,note_on,54,51,0
2,note_on,54,0,120
2,note_on,63,54,0
2,note_on,63,0,120
2,note_on,60,57,0
2,note_on,60,0,120
2,note_on,51,59,0
2,note_on,51,0,120
2,note_on,45,76,0
2,note_on,45,0,65
2,note_on,63,55,0
2,note_on,63,0,120
2,note_on,54,56,0
2,note_on,54,0,120
2,note_on,63,57,0
2,note_on,63,0,120
2,note_on,60,57,0
2,note_on,60,0,120
2,note_on,51,57,0
2,note_on,51,0,120
2,note_on,33,82,0
2,note_on,33,0,11
2,note_on,63,57,0
2,note_on,63,0,120
2,note_on,54,58,0
2,note_on,54,0,120
2,note_on,63,59,0
2,note_on,63,0,120
2,note_on,59,62,0
2,note_on,59,0,120
2,note_on,51,63,0
2,note_on,51,0,120
2,note_on,46,84,0
2,note_on,46,0,65
2,note_on,63,52,0
2,note_on,63,0,120
2,note_on,54,52,0
2,note_on,54,0,120
2,note_on,63,54,0
2,note_on,63,0,120
2,note_on,58,54,0
2,note_on,58,0,120
2,note_on,51,52,0
2,note_on,51,0,120
2,note_on,34,80,0
2,note_on,34,0,55
2,note_on,63,56,0
2,note_on,63,0,120
2,note_on,54,56,0
2,note_on,54,0,120
2,note_on,63,56,0
2,note_on,63,0,120
2,note_on,58,56,0
2,note_on,58,0,120
2,note_on,51,56,0
2,note_on,51,0,120
2,note_on,47,71,0
2,note_on,47,0,65
2,note_on,63,52,0
2,note_on,63,0,120
2,note_on,54,52,0
2,note_on,54,0,120
2,note_on,63,54,0
2,note_on,63,0,120
2,note_on,57,54,0
2,note_on,57,0,120
2,note_on,51,52,0
2,note_on,51,0,120
2,note_on,35,79,0
2,note_on,35,0,55
2,note_on,63,56,0
2,note_on,63,0,120
2,note_on,54,56,0
2,note_on,54,0,120
2,note_on,63,56,0
2,note_on,63,0,120
2,note_on,57,56,0
2,note_on,57,0,120
2,note_on,51,56,0
2,note_on,51,0,120
2,note_on,48,70,0
2,note_on,63,52,65
2,note_on,63,0,120
2,note_on,54,52,0
2,note_on,54,0,120
2,note_on,63,54,0
2,note_on,63,0,120
2,note_on,48,0,0
2,note_on,57,54,0
2,note_on,57,0,120
2,note_on,51,52,0
2,note_on,51,0,120
2,note_on,49,66,0
2,note_on,61,52,65
2,note_on,61,0,120
2,note_on,54,52,0
2,note_on,54,0,120
2,note_on,57,54,0
2,note_on,57,0,120
2,note_on,49,0,0
2,note_on,50,66,0
2,note_on,60,52,65
2,note_on,60,0,120
2,note_on,54,52,0
2,note_on,54,0,120
2,note_on,57,54,0
2,note_on,57,0,120
2,note_on,50,0,0
2,note_on,51,66,0
2,note_on,63,52,86
2,note_on,63,0,120
2,note_on,54,52,0
2,note_on,54,0,120
2,note_on,56,55,0
2,note_on,56,0,120
2,note_on,51,0,0
2,note_on,44,66,0
2,note_on,44,0,120
2,note_on,66,52,0
2,note_on,66,0,120
2,note_on,56,51,0
2,note_on,56,0,120
2,note_on,66,50,0
2,note_on,66,0,120
2,note_on,60,49,0
2,note_on,60,0,120
2,note_on,54,47,0
2,note_on,54,0,120
2,note_on,37,76,0
2,note_on,37,0,105
2,note_on,65,44,0
2,note_on,65,0,106
2,note_on,56,48,0
2,note_on,56,0,120
2,note_on,65,48,0
2,note_on,65,0,120
2,note_on,61,48,0
2,note_on,61,0,120
2,note_on,53,47,0
2,note_on,53,0,120
2,note_on,49,56,0
2,note_on,49,0,120
2,note_on,65,44,0
2,note_on,65,0,120
2,note_on,56,44,0
2,note_on,56,0,120
2,note_on,65,44,0
2,note_on,65,0,120
2,note_on,61,44,0
2,note_on,61,0,120
2,note_on,53,44,0
2,note_on,53,0,120
2,note_on,49,52,0
2,note_on,49,0,120
2,note_on,65,48,0
2,note_on,65,0,120
2,note_on,56,48,0
2,note_on,56,0,120
2,note_on,65,46,0
2,note_on,65,0,120
2,note_on,61,46,0
2,note_on,61,0,120
2,note_on,53,46,0
2,note_on,53,0,120
2,note_on,49,54,0
2,note_on,49,0,120
2,note_on,65,46,0
2,note_on,65,0,120
2,note_on,56,46,0
2,note_on,56,0,120
2,note_on,65,48,0
2,note_on,65,0,120
2,note_on,61,49,0
2,note_on,61,0,120
2,note_on,53,52,0
2,note_on,53,0,120
2,note_on,49,59,0
2,note_on,49,0,120
2,note_on,65,51,0
2,note_on,65,0,120
2,note_on,56,49,0
2,note_on,56,0,120
2,note_on,65,48,0
2,note_on,65,0,120
2,note_on,61,48,0
2,note_on,61,0,120
2,note_on,53,46,0
2,note_on,53,0,120
2,note_on,49,52,0
2,note_on,49,0,120
2,note_on,65,44,0
2,note_on,65,0,120
2,note_on,56,44,0
2,note_on,56,0,120
2,note_on,65,44,0
2,note_on,65,0,120
2,note_on,61,44,0
2,note_on,61,0,120
2,note_on,53,42,0
2,note_on,53,0,120
2,note_on,37,52,0
2,note_on,37,0,51
2,note_on,65,44,0
2,note_on,65,0,120
2,note_on,56,44,0
2,note_on,56,0,120
2,note_on,65,44,0
2,note_on,65,0,120
2,note_on,61,44,0
2,note_on,61,0,120
2,note_on,53,44,0
2,note_on,53,0,120
2,note_on,49,52,0
2,note_on,49,0,120
2,note_on,65,44,0
2,note_on,65,0,120
2,note_on,56,44,0
2,note_on,56,0,120
2,note_on,65,37,0
2,note_on,65,0,120
2,note_on,61,42,0
2,note_on,61,0,120
2,note_on,53,32,0
2,note_on,53,0,120
2,note_on,49,28,0
2,note_on,49,0,74
2,note_on,65,22,0
2,note_on,65,0,120
2,note_on,56,22,0
2,note_on,56,0,120
2,note_on,65,22,0
2,note_on,65,0,120
2,note_on,61,22,0
2,note_on,61,0,120
2,note_on,53,22,0
2,note_on,53,0,120
2,note_on,49,27,0
2,note_on,49,0,120
2,note_on,65,22,0
2,note_on,65,0,120
2,note_on,56,22,0
2,note_on,56,0,120
2,note_on,65,22,0
2,note_on,65,0,120
2,note_on,61,24,0
2,note_on,61,0,120
2,note_on,53,22,0
2,note_on,53,0,120
2,note_on,37,27,0
2,note_on,37,0,46
2,note_on,65,22,0
2,note_on,65,0,120
2,note_on,56,22,0
2,note_on,56,0,120
2,note_on,65,22,0
2,note_on,65,0,120
2,note_on,59,21,0
2,note_on,59,0,120
2,note_on,53,21,0
2,note_on,53,0,120
2,note_on,49,28,0
2,note_on,49,0,40
2,note_on,65,23,0
2,note_on,65,0,120
2,note_on,56,25,0
2,note_on,56,0,120
2,note_on,65,27,0
2,note_on,65,0,120
2,note_on,59,28,0
2,note_on,59,0,120
2,note_on,53,30,0
2,note_on,53,0,120
2,note_on,49,33,0
2,note_on,49,0,190
2,note_on,65,28,0
2,note_on,65,0,240
2,note_on,56,28,0
2,note_on,56,0,240
2,note_on,65,28,0
2,note_on,65,0,240
2,note_on,59,28,0
2,note_on,59,0,240
2,note_on,53,28,0
2,note_on,53,0,240
2,note_on,49,28,0
2,note_on,49,0,200
2,note_on,65,29,0
2,note_on,65,0,240
2,note_on,56,30,0
2,note_on,56,0,240
2,note_on,65,30,0
2,note_on,65,0,240
2,note_on,59,29,0
2,note_on,59,0,240
2,note_on,53,28,0
2,note_on,53,0,240
2,note_on,50,29,0
2,note_on,50,0,46
2,note_on,65,22,0
2,note_on,65,0,120
2,note_on,56,22,0
2,note_on,56,0,120
2,note_on,65,22,0
2,note_on,65,0,120
2,note_on,58,21,0
2,note_on,58,0,120
2,note_on,53,21,0
2,note_on,53,0,120
2,note_on,50,28,0
2,note_on,50,0,40
2,note_on,65,23,0
2,note_on,65,0,120
2,note_on,56,25,0
2,note_on,56,0,120
2,note_on,65,27,0
2,note_on,65,0,120
2,note_on,58,28,0
2,note_on,58,0,120
2,note_on,53,30,0
2,note_on,53,0,120
2,note_on,51,35,0
2,note_on,51,0,65
2,note_on,66,28,0
2,note_on,66,0,120
2,note_on,58,28,0
2,note_on,58,0,120
2,note_on,66,28,0
2,note_on,66,0,120
2,note_on,63,28,0
2,note_on,63,0,120
2,note_on,54,28,0
2,note_on,54,0,120
2,note_on,51,35,0
2,note_on,51,0,55
2,note_on,68,30,0
2,note_on,68,0,120
2,note_on,58,31,0
2,note_on,58,0,120
2,note_on,68,31,0
2,note_on,68,0,120
2,note_on,62,31,0
2,note_on,62,0,120
2,note_on,53,31,0
2,note_on,53,0,120
2,note_on,51,44,0
2,note_on,51,0,65
2,note_on,66,34,0
2,note_on,66,0,120
2,note_on,58,34,0
2,note_on,58,0,120
2,note_on,66,34,0
2,note_on,66,0,120
2,note_on,63,34,0
2,note_on,63,0,120
2,note_on,54,34,0
2,note_on,54,0,120
2,note_on,46,45,0
2,note_on,46,0,55
2,note_on,65,35,0
2,note_on,65,0,120
2,note_on,58,37,0
2,note_on,58,0,120
2,note_on,65,39,0
2,note_on,65,0,120
2,note_on,62,40,0
2,note_on,62,0,120
2,note_on,53,42,0
2,note_on,53,0,120
2,note_on,39,35,0
2,note_on,39,0,65
2,note_on,66,28,0
2,note_on,66,0,120
2,note_on,58,28,0
2,note_on,58,0,120
2,note_on,66,28,0
2,note_on,66,0,120
2,note_on,63,28,0
2,note_on,63,0,120
2,note_on,54,28,0
2,note_on,54,0,120
2,note_on,51,35,0
2,note_on,51,0,55
2,note_on,68,30,0
2,note_on,68,0,120
2,note_on,58,31,0
2,note_on,58,0,120
2,note_on,68,31,0
2,note_on,68,0,120
2,note_on,62,31,0
2,note_on,62,0,120
2,note_on,53,31,0
2,note_on,53,0,120
2,note_on,51,44,0
2,note_on,51,0,65
2,note_on,66,34,0
2,note_on,66,0,120
2,note_on,58,34,0
2,note_on,58,0,120
2,note_on,66,34,0
2,note_on,66,0,120
2,note_on,63,34,0
2,note_on,63,0,120
2,note_on,54,34,0
2,note_on,54,0,120
2,note_on,42,65,0
2,note_on,42,0,55
2,note_on,63,40,0
2,note_on,63,0,120
2,note_on,54,42,0
2,note_on,54,0,120
2,note_on,63,44,0
2,note_on,63,0,120
2,note_on,58,46,0
2,note_on,58,0,120
2,note_on,51,48,0
2,note_on,51,0,120
2,note_on,44,52,0
2,note_on,44,0,65
2,note_on,61,44,0
2,note_on,61,0,120
2,note_on,53,44,0
2,note_on,53,0,120
2,note_on,61,44,0
2,note_on,61,0,120
2,note_on,56,44,0
2,note_on,56,0,120
2,note_on,44,44,0
2,note_on,44,0,120
2,note_on,46,57,0
2,note_on,46,0,55
2,note_on,61,48,0
2,note_on,61,0,120
2,note_on,53,48,0
2,note_on,53,0,120
2,note_on,61,48,0
2,note_on,61,0,120
2,note_on,58,48,0
2,note_on,58,0,120
2,note_on,46,49,0
2,note_on,46,0,120
2,note_on,41,58,0
2,note_on,41,0,65
2,note_on,56,51,0
2,note_on,56,0,120
2,note_on,49,51,0
2,note_on,49,0,120
2,note_on,56,51,0
2,note_on,56,0,120
2,note_on,49,51,0
2,note_on,49,0,120
2,note_on,41,52,0
2,note_on,41,0,120
2,note_on,42,64,0
2,note_on,42,0,55
2,note_on,58,51,0
2,note_on,58,0,120
2,note_on,49,52,0
2,note_on,49,0,120
2,note_on,58,54,0
2,note_on,58,0,120
2,note_on,51,55,0
2,note_on,51,0,120
2,note_on,42,56,0
2,note_on,42,0,120
2,note_on,32,58,0
2,note_on,32,0,65
2,note_on,61,51,0
2,note_on,61,0,120
2,note_on,51,51,0
2,note_on,51,0,120
2,note_on,61,51,0
2,note_on,61,0,120
2,note_on,56,51,0
2,note_on,56,0,120
2,note_on,51,52,0
2,note_on,51,0,120
2,note_on,44,64,0
2,note_on,44,0,120
2,note_on,61,51,0
2,note_on,61,0,120
2,note_on,51,52,0
2,note_on,51,0,120
2,note_on,61,54,0
2,note_on,61,0,120
2,note_on,56,55,0
2,note_on,56,0,120
2,note_on,51,56,0
2,note_on,51,0,120
2,note_on,32,58,0
2,note_on,32,0,120
2,note_on,61,51,0
2,note_on,61,0,120
2,note_on,51,51,0
2,note_on,51,0,120
2,note_on,61,51,0
2,note_on,61,0,120
2,note_on,54,51,0
2,note_on,54,0,120
2,note_on,51,52,0
2,note_on,51,0,120
2,note_on,44,64,0
2,note_on,44,0,55
2,note_on,60,51,0
2,note_on,60,0,120
2,note_on,51,52,0
2,note_on,51,0,120
2,note_on,60,54,0
2,note_on,60,0,120
2,note_on,54,55,0
2,note_on,54,0,120
2,note_on,44,56,0
2,note_on,44,0,120
2,note_on,37,64,0
2,note_on,37,0,69
2,note_on,65,26,0
2,note_on,65,0,120
2,note_on,56,26,0
2,note_on,56,0,120
2,note_on,65,26,0
2,note_on,65,0,120
2,note_on,61,26,0
2,note_on,61,0,120
2,note_on,53,26,0
2,note_on,53,0,120
2,note_on,49,30,0
2,note_on,49,0,40
2,note_on,64,26,0
2,note_on,64,0,120
2,note_on,58,26,0
2,note_on,58,0,120
2,note_on,64,26,0
2,note_on,64,0,120
2,note_on,61,26,0
2,note_on,61,0,120
2,note_on,55,26,0
2,note_on,55,0,120
2,note_on,49,30,0
2,note_on,49,0,40
2,note_on,63,26,0
2,note_on,63,0,120
2,note_on,57,26,0
2,note_on,57,0,120
2,note_on,63,26,0
2,note_on,63,0,120
2,note_on,60,26,0
2,note_on,60,0,120
2,note_on,54,26,0
2,note_on,54,0,120
2,note_on,49,30,0
2,note_on,62,26,40
2,note_on,62,0,120
2,note_on,56,25,0
2,note_on,56,0,120
2,note_on,62,25,0
2,note_on,62,0,120
2,note_on,59,25,0
2,note_on,59,0,120
2,note_on,53,25,0
2,note_on,53,0,120
2,note_on,49,0,0
2,note_on,49,28,0
2,note_on,61,25,75
2,note_on,61,0,120
2,note_on,55,24,0
2,note_on,55,0,120
2,note_on,61,24,0
2,note_on,61,0,120
2,note_on,58,24,0
2,note_on,58,0,120
2,note_on,52,24,0
2,note_on,52,0,120
2,note_on,49,0,0
2,note_on,49,28,0
2,note_on,61,23,40
2,note_on,61,0,120
2,note_on,54,23,0
2,note_on,54,0,120
2,note_on,61,23,0
2,note_on,61,0,120
2,note_on,57,23,0
2,note_on,57,0,120
2,note_on,51,23,0
2,note_on,51,0,120
2,note_on,49,0,0
2,note_on,49,27,0
2,note_on,49,0,75
2,note_on,60,22,0
2,note_on,60,0,120
2,note_on,54,22,0
2,note_on,54,0,120
2,note_on,60,22,0
2,note_on,60,0,120
2,note_on,56,22,0
2,note_on,56,0,120
2,note_on,51,22,0
2,note_on,51,0,120
2,note_on,49,27,0
2,note_on,49,0,66
2,note_on,60,22,0
2,note_on,60,0,120
2,note_on,54,22,0
2,note_on,54,0,120
2,note_on,60,22,0
2,note_on,60,0,120
2,note_on,56,22,0
2,note_on,56,0,120
2,note_on,51,22,0
2,note_on,51,0,120
2,note_on,37,27,0
2,note_on,37,0,69
2,note_on,65,22,0
2,note_on,65,0,120
2,note_on,56,22,0
2,note_on,56,0,120
2,note_on,65,22,0
2,note_on,65,0,120
2,note_on,61,22,0
2,note_on,61,0,120
2,note_on,53,22,0
2,note_on,53,0,120
2,note_on,49,27,0
2,note_on,49,0,63
2,note_on,64,22,0
2,note_on,64,0,60
2,note_on,58,22,60
2,note_on,58,0,120
2,note_on,64,22,0
2,note_on,64,0,60
2,note_on,61,22,60
2,note_on,61,0,120
2,note_on,55,22,0
2,note_on,55,0,120
2,note_on,49,27,0
2,note_on,49,0,40
2,note_on,63,22,0
2,note_on,63,0,120
2,note_on,57,22,0
2,note_on,57,0,120
2,note_on,63,22,0
2,note_on,63,0,120
2,note_on,60,22,0
2,note_on,60,0,120
2,note_on,54,22,0
2,note_on,54,0,120
2,note_on,49,27,0
2,note_on,49,0,40
2,note_on,62,22,0
2,note_on,62,0,120
2,note_on,56,22,0
2,note_on,56,0,120
2,note_on,62,22,0
2,note_on,62,0,120
2,note_on,59,22,0
2,note_on,59,0,120
2,note_on,53,22,0
2,note_on,53,0,120
2,note_on,49,27,0
2,note_on,61,22,75
2,note_on,61,0,120
2,note_on,55,22,0
2,note_on,55,0,120
2,note_on,61,22,0
2,note_on,61,0,120
2,note_on,58,22,0
2,note_on,58,0,120
2,note_on,52,22,0
2,note_on,52,0,120
2,note_on,49,0,0
2,note_on,49,27,0
2,note_on,61,22,40
2,note_on,61,0,120
2,note_on,54,22,0
2,note_on,54,0,120
2,note_on,61,22,0
2,note_on,61,0,120
2,note_on,57,22,0
2,note_on,57,0,120
2,note_on,51,22,0
2,note_on,51,0,120
2,note_on,49,0,0
2,note_on,49,27,0
2,note_on,49,0,75
2,note_on,60,22,0
2,note_on,60,0,120
2,note_on,54,22,0
2,note_on,54,0,120
2,note_on,60,22,0
2,note_on,60,0,120
2,note_on,56,22,0
2,note_on,56,0,120
2,note_on,51,22,0
2,note_on,51,0,120
2,note_on,49,27,0
2,note_on,49,0,40
2,note_on,60,22,0
2,note_on,60,0,120
2,note_on,54,22,0
2,note_on,54,0,120
2,note_on,60,22,0
2,note_on,60,0,120
2,note_on,56,22,0
2,note_on,56,0,120
2,note_on,51,22,0
2,note_on,51,0,120
2,note_on,37,27,0
2,note_on,37,0,75
2,note_on,61,22,0
2,note_on,61,0,120
2,note_on,49,22,0
2,note_on,49,0,120
2,note_on,61,22,0
2,note_on,61,0,120
2,note_on,53,22,0
2,note_on,53,0,120
2,note_on,44,22,0
2,note_on,44,0,120
2,note_on,37,26,0
2,note_on,37,0,40
2,note_on,61,22,0
2,note_on,61,0,120
2,note_on,49,22,0
2,note_on,49,0,120
2,note_on,61,22,0
2,note_on,61,0,120
2,note_on,53,22,0
2,note_on,53,0,120
2,note_on,44,22,0
2,note_on,44,0,120
2,note_on,37,26,0
2,note_on,37,0,75
2,note_on,60,21,0
2,note_on,60,0,120
2,note_on,51,21,0
2,note_on,51,0,120
2,note_on,60,21,0
2,note_on,60,0,120
2,note_on,54,21,0
2,note_on,54,0,120
2,note_on,44,21,0
2,note_on,44,0,120
2,note_on,37,25,0
2,note_on,37,0,40
2,note_on,60,21,0
2,note_on,60,0,120
2,note_on,51,21,0
2,note_on,51,0,120
2,note_on,60,21,0
2,note_on,60,0,120
2,note_on,54,21,0
2,note_on,54,0,120
2,note_on,44,21,0
2,note_on,44,0,120
2,note_on,37,24,0
2,note_on,37,0,75
2,note_on,61,21,0
2,note_on,61,0,120
2,note_on,49,20,0
2,note_on,49,0,120
2,note_on,61,20,0
2,note_on,61,0,120
2,note_on,53,20,0
2,note_on,53,0,120
2,note_on,44,20,0
2,note_on,44,0,120
2,note_on,37,24,0
2,note_on,37,0,40
2,note_on,61,20,0
2,note_on,61,0,120
2,note_on,49,20,0
2,note_on,49,0,120
2,note_on,61,20,0
2,note_on,61,0,120
2,note_on,53,20,0
2,note_on,53,0,120
2,note_on,44,20,0
2,note_on,44,0,120
2,note_on,37,23,0
2,note_on,37,0,75
2,note_on,60,20,0
2,note_on,60,0,120
2,note_on,51,20,0
2,note_on,51,0,120
2,note_on,60,19,0
2,note_on,60,0,120
2,note_on,54,19,0
2,note_on,54,0,120
2,note_on,44,19,0
2,note_on,44,0,120
2,note_on,37,22,0
2,note_on,37,0,40
2,note_on,60,19,0
2,note_on,60,0,120
2,note_on,51,19,0
2,note_on,51,0,120
2,note_on,60,19,0
2,note_on,60,0,120
2,note_on,54,19,0
2,note_on,54,0,120
2,note_on,44,19,0
2,note_on,44,0,120
2,note_on,37,22,0
2,note_on,37,0,75
2,note_on,61,18,0
2,note_on,61,0,120
2,note_on,49,18,0
2,note_on,49,0,120
2,note_on,61,18,0
2,note_on,61,0,120
2,note_on,53,18,0
2,note_on,53,0,120
2,note_on,44,18,0
2,note_on,44,0,120
2,note_on,37,22,0
2,note_on,37,0,120
2,note_on,61,18,0
2,note_on,61,0,120
2,note_on,49,18,0
2,note_on,49,0,120
2,note_on,61,18,0
2,note_on,61,0,120
2,note_on,53,18,0
2,note_on,53,0,120
2,note_on,44,18,0
2,note_on,44,0,120
2,note_on,37,22,0
2,note_on,37,0,120
2,note_on,61,18,0
2,note_on,61,0,120
2,note_on,49,18,0
2,note_on,49,0,120
2,note_on,61,18,0
2,note_on,61,0,120
2,note_on,53,18,0
2,note_on,53,0,120
2,note_on,44,18,0
2,note_on,44,0,120
2,note_on,37,22,0
2,note_on,37,0,120
2,note_on,61,18,0
2,note_on,61,0,120
2,note_on,49,18,0
2,note_on,49,0,120
2,note_on,61,18,0
2,note_on,61,0,120
2,note_on,53,18,0
2,note_on,53,0,120
2,note_on,44,18,0
2,note_on,44,0,120
2,note_on,37,17,0
2,note_on,37,0,267
2,note_on,44,16,240
2,note_on,56,20,0
2,note_on,56,0,720
2,note_on,44,0,0
2,note_on,49,16,0
2,note_on,56,20,0
2,note_on,56,0,1440
2,note_on,49,0,0
