Track,Message Type,Note,Velocity,Time
1,note_on,53,35,0
1,note_on,55,29,160
1,note_on,53,0,40
1,note_on,58,30,120
1,note_on,55,0,40
1,note_on,61,30,120
1,note_on,58,0,40
1,note_on,52,33,120
1,note_on,61,0,40
1,note_on,55,31,120
1,note_on,52,0,40
1,note_on,55,0,120
1,note_on,53,37,0
1,note_on,55,30,160
1,note_on,53,0,40
1,note_on,58,31,120
1,note_on,55,0,40
1,note_on,61,32,120
1,note_on,58,0,40
1,note_on,52,34,120
1,note_on,61,0,40
1,note_on,55,33,120
1,note_on,52,0,40
1,note_on,55,0,104
1,note_on,55,40,16
1,note_on,57,33,160
1,note_on,55,0,40
1,note_on,60,35,120
1,note_on,57,0,40
1,note_on,63,36,120
1,note_on,60,0,40
1,note_on,54,34,120
1,note_on,63,0,40
1,note_on,57,36,120
1,note_on,54,0,40
1,note_on,57,0,120
1,note_on,55,40,0
1,note_on,57,34,160
1,note_on,55,0,40
1,note_on,60,34,120
1,note_on,57,0,40
1,note_on,63,35,120
1,note_on,60,0,40
1,note_on,54,34,120
1,note_on,63,0,40
1,note_on,57,36,120
1,note_on,54,0,40
1,note_on,57,0,120
1,note_on,58,45,0
1,note_on,60,35,160
1,note_on,58,0,40
1,note_on,63,38,120
1,note_on,60,0,40
1,note_on,66,43,120
1,note_on,63,0,40
1,note_on,57,39,120
1,note_on,66,0,40
1,note_on,60,38,120
1,note_on,57,0,40
1,note_on,60,0,120
1,note_on,61,41,0
1,note_on,63,39,160
1,note_on,61,0,40
1,note_on,66,39,120
1,note_on,63,0,40
1,note_on,69,43,120
1,note_on,66,0,40
1,note_on,60,39,120
1,note_on,69,0,40
1,note_on,63,39,120
1,note_on,60,0,40
1,note_on,63,0,120
1,note_on,61,49,0
1,note_on,63,42,160
1,note_on,61,0,40
1,note_on,66,39,120
1,note_on,63,0,40
1,note_on,66,0,120
1,note_on,69,40,0
1,note_on,60,42,160
1,note_on,69,0,40
1,note_on,63,43,120
1,note_on,60,0,40
1,note_on,63,0,120
1,note_on,66,50,0
1,note_on,70,40,160
1,note_on,66,0,40
1,note_on,72,41,120
1,note_on,70,0,40
1,note_on,75,44,120
1,note_on,72,0,40
1,note_on,65,44,120
1,note_on,75,0,40
1,note_on,69,44,120
1,note_on,65,0,40
1,note_on,69,0,120
1,note_on,70,56,0
1,note_on,73,45,160
1,note_on,70,0,40
1,note_on,78,49,120
1,note_on,73,0,40
1,note_on,77,46,120
1,note_on,78,0,40
1,note_on,72,45,120
1,note_on,77,0,40
1,note_on,73,45,120
1,note_on,72,0,40
1,note_on,73,0,120
1,note_on,76,50,0
1,note_on,72,46,160
1,note_on,72,0,160
1,note_on,76,0,0
1,note_on,73,45,0
1,note_on,69,43,160
1,note_on,73,0,40
1,note_on,69,0,120
1,note_on,70,47,0
1,note_on,66,44,160
1,note_on,70,0,40
1,note_on,66,0,120
1,note_on,64,48,0
1,note_on,65,44,160
1,note_on,64,0,40
1,note_on,70,44,120
1,note_on,65,0,40
1,note_on,70,0,120
1,note_on,68,45,0
1,note_on,69,45,160
1,note_on,68,0,40
1,note_on,73,45,120
1,note_on,69,0,40
1,note_on,73,0,120
1,note_on,69,47,0
1,note_on,70,44,160
1,note_on,69,0,40
1,note_on,73,45,120
1,note_on,70,0,40
1,note_on,73,0,120
1,note_on,71,46,0
1,note_on,72,45,160
1,note_on,71,0,40
1,note_on,77,45,120
1,note_on,72,0,40
1,note_on,77,0,120
1,note_on,68,48,0
1,note_on,71,43,160
1,note_on,68,0,40
1,note_on,76,45,120
1,note_on,71,0,40
1,note_on,75,44,120
1,note_on,76,0,40
1,note_on,70,40,120
1,note_on,75,0,40
1,note_on,71,38,120
1,note_on,70,0,40
1,note_on,71,0,120
1,note_on,74,51,0
1,note_on,70,43,160
1,note_on,74,0,160
1,note_on,71,42,0
1,note_on,70,0,40
1,note_on,67,43,120
1,note_on,71,0,40
1,note_on,68,45,120
1,note_on,67,0,160
1,note_on,64,43,0
1,note_on,68,0,40
1,note_on,64,0,120
1,note_on,62,47,0
1,note_on,63,41,160
1,note_on,62,0,160
1,note_on,68,41,0
1,note_on,63,0,40
1,note_on,68,0,120
1,note_on,64,44,0
1,note_on,65,42,160
1,note_on,64,0,160
1,note_on,71,42,0
1,note_on,65,0,40
1,note_on,71,0,120
1,note_on,65,47,0
1,note_on,66,45,160
1,note_on,65,0,160
1,note_on,71,43,0
1,note_on,66,0,40
1,note_on,71,0,120
1,note_on,69,45,0
1,note_on,70,44,160
1,note_on,69,0,160
1,note_on,75,44,0
1,note_on,70,0,40
1,note_on,75,0,120
1,note_on,73,51,0
1,note_on,65,45,160
1,note_on,73,0,160
1,note_on,70,41,0
1,note_on,65,0,40
1,note_on,61,45,120
1,note_on,70,0,40
1,note_on,64,43,120
1,note_on,61,0,160
1,note_on,69,43,0
1,note_on,64,0,40
1,note_on,69,0,120
1,note_on,72,45,0
1,note_on,63,41,160
1,note_on,72,0,160
1,note_on,68,42,0
1,note_on,63,0,40
1,note_on,59,42,120
1,note_on,68,0,40
1,note_on,62,41,120
1,note_on,59,0,160
1,note_on,67,42,0
1,note_on,62,0,40
1,note_on,67,0,120
1,note_on,71,53,0
1,note_on,62,45,160
1,note_on,71,0,40
1,note_on,66,45,120
1,note_on,62,0,40
1,note_on,58,42,120
1,note_on,66,0,40
1,note_on,61,42,120
1,note_on,58,0,40
1,note_on,66,43,120
1,note_on,61,0,40
1,note_on,66,0,120
1,note_on,70,50,0
1,note_on,66,45,160
1,note_on,70,0,40
1,note_on,71,42,120
1,note_on,66,0,40
1,note_on,72,46,120
1,note_on,71,0,40
1,note_on,73,51,120
1,note_on,72,0,40
1,note_on,75,54,120
1,note_on,73,0,40
1,note_on,75,0,120
1,note_on,76,57,0
1,note_on,67,45,160
1,note_on,76,0,40
1,note_on,72,45,120
1,note_on,67,0,40
1,note_on,63,43,120
1,note_on,72,0,40
1,note_on,66,44,120
1,note_on,63,0,160
1,note_on,71,44,0
1,note_on,66,0,40
1,note_on,71,0,120
1,note_on,74,48,0
1,note_on,65,42,160
1,note_on,74,0,160
1,note_on,70,43,0
1,note_on,65,0,40
1,note_on,61,43,120
1,note_on,70,0,40
1,note_on,64,45,120
1,note_on,61,0,160
1,note_on,69,45,0
1,note_on,64,0,40
1,note_on,69,0,120
1,note_on,72,49,0
1,note_on,64,45,160
1,note_on,72,0,40
1,note_on,68,45,120
1,note_on,64,0,40
1,note_on,59,45,120
1,note_on,68,0,40
1,note_on,62,43,120
1,note_on,59,0,40
1,note_on,67,43,120
1,note_on,62,0,40
1,note_on,67,0,120
1,note_on,71,50,0
1,note_on,66,45,160
1,note_on,71,0,40
1,note_on,73,45,120
1,note_on,66,0,40
1,note_on,74,50,120
1,note_on,73,0,40
1,note_on,75,52,120
1,note_on,74,0,40
1,note_on,76,54,120
1,note_on,75,0,40
1,note_on,76,0,120
1,note_on,77,56,0
1,note_on,69,45,160
1,note_on,77,0,40
1,note_on,75,45,120
1,note_on,69,0,40
1,note_on,76,54,120
1,note_on,75,0,40
1,note_on,77,53,120
1,note_on,76,0,40
1,note_on,78,56,120
1,note_on,77,0,40
1,note_on,78,0,120
1,note_on,77,61,0
1,note_on,70,46,160
1,note_on,77,0,40
1,note_on,73,50,120
1,note_on,70,0,40
1,note_on,76,55,120
1,note_on,73,0,40
1,note_on,77,57,120
1,note_on,76,0,40
1,note_on,78,59,120
1,note_on,77,0,40
1,note_on,78,0,120
1,note_on,79,64,0
1,note_on,71,47,160
1,note_on,79,0,40
1,note_on,77,54,120
1,note_on,71,0,40
1,note_on,78,60,120
1,note_on,77,0,40
1,note_on,79,60,120
1,note_on,78,0,40
1,note_on,80,65,120
1,note_on,79,0,40
1,note_on,80,0,120
1,note_on,79,68,0
1,note_on,72,51,160
1,note_on,79,0,40
1,note_on,75,60,120
1,note_on,72,0,40
1,note_on,78,64,120
1,note_on,75,0,40
1,note_on,79,67,120
1,note_on,78,0,40
1,note_on,80,68,120
1,note_on,79,0,40
1,note_on,80,0,120
1,note_on,75,68,0
1,note_on,72,58,160
1,note_on,75,0,160
1,note_on,77,51,0
1,note_on,72,0,40
1,note_on,75,53,120
1,note_on,77,0,40
1,note_on,68,49,120
1,note_on,75,0,160
1,note_on,73,52,0
1,note_on,68,0,40
1,note_on,73,0,120
1,note_on,72,57,0
1,note_on,63,45,160
1,note_on,72,0,160
1,note_on,70,47,0
1,note_on,63,0,40
1,note_on,68,50,120
1,note_on,70,0,40
1,note_on,60,47,120
1,note_on,68,0,160
1,note_on,65,47,0
1,note_on,60,0,40
1,note_on,65,0,120
1,note_on,63,56,0
1,note_on,56,45,160
1,note_on,63,0,40
1,note_on,61,45,120
1,note_on,56,0,40
1,note_on,60,45,120
1,note_on,61,0,40
1,note_on,55,42,120
1,note_on,60,0,40
1,note_on,56,43,120
1,note_on,55,0,40
1,note_on,56,0,120
1,note_on,60,47,0
1,note_on,54,39,160
1,note_on,60,0,40
1,note_on,62,38,120
1,note_on,54,0,40
1,note_on,60,40,120
1,note_on,62,0,40
1,note_on,53,39,120
1,note_on,60,0,40
1,note_on,54,37,120
1,note_on,53,0,40
1,note_on,54,0,120
1,note_on,55,42,0
1,note_on,57,38,160
1,note_on,55,0,40
1,note_on,59,35,120
1,note_on,57,0,40
1,note_on,60,36,120
1,note_on,59,0,40
1,note_on,62,38,120
1,note_on,60,0,40
1,note_on,63,42,120
1,note_on,62,0,40
1,note_on,63,0,120
1,note_on,56,45,0
1,note_on,58,36,160
1,note_on,56,0,40
1,note_on,59,34,120
1,note_on,58,0,40
1,note_on,60,38,120
1,note_on,59,0,40
1,note_on,61,37,120
1,note_on,60,0,40
1,note_on,63,37,120
1,note_on,61,0,40
1,note_on,63,0,120
1,note_on,57,48,0
1,note_on,58,41,160
1,note_on,57,0,40
1,note_on,60,38,120
1,note_on,58,0,40
1,note_on,61,43,120
1,note_on,60,0,40
1,note_on,63,41,120
1,note_on,61,0,40
1,note_on,65,42,120
1,note_on,63,0,40
1,note_on,65,0,120
1,note_on,58,48,0
1,note_on,59,38,160
1,note_on,58,0,40
1,note_on,60,39,120
1,note_on,59,0,40
1,note_on,61,43,120
1,note_on,60,0,40
1,note_on,63,39,120
1,note_on,61,0,40
1,note_on,65,43,120
1,note_on,63,0,40
1,note_on,65,0,120
1,note_on,60,51,0
1,note_on,61,43,160
1,note_on,60,0,40
1,note_on,62,39,120
1,note_on,61,0,40
1,note_on,63,44,120
1,note_on,62,0,40
1,note_on,65,43,120
1,note_on,63,0,40
1,note_on,66,45,120
1,note_on,65,0,40
1,note_on,66,0,120
1,note_on,57,51,0
1,note_on,61,43,160
1,note_on,57,0,40
1,note_on,62,43,120
1,note_on,61,0,40
1,note_on,63,47,120
1,note_on,62,0,40
1,note_on,65,45,120
1,note_on,63,0,40
1,note_on,66,48,120
1,note_on,65,0,40
1,note_on,66,0,120
1,note_on,69,59,0
1,note_on,66,48,160
1,note_on,69,0,40
1,note_on,64,48,120
1,note_on,66,0,40
1,note_on,62,49,120
1,note_on,64,0,40
1,note_on,64,45,120
1,note_on,62,0,40
1,note_on,66,46,120
1,note_on,64,0,40
1,note_on,66,0,120
1,note_on,57,51,0
1,note_on,61,43,160
1,note_on,57,0,40
1,note_on,62,41,120
1,note_on,61,0,40
1,note_on,64,45,120
1,note_on,62,0,40
1,note_on,65,40,120
1,note_on,64,0,40
1,note_on,66,45,120
1,note_on,65,0,40
1,note_on,66,0,120
1,note_on,69,51,0
1,note_on,68,44,160
1,note_on,69,0,40
1,note_on,67,40,120
1,note_on,68,0,40
1,note_on,66,46,120
1,note_on,67,0,40
1,note_on,63,43,120
1,note_on,66,0,40
1,note_on,60,44,120
1,note_on,63,0,40
1,note_on,60,0,120
1,note_on,66,49,0
1,note_on,63,43,160
1,note_on,66,0,40
1,note_on,60,43,120
1,note_on,63,0,40
1,note_on,58,45,120
1,note_on,60,0,40
1,note_on,57,44,120
1,note_on,58,0,40
1,note_on,56,43,120
1,note_on,57,0,40
1,note_on,56,0,120
1,note_on,55,46,0
1,note_on,56,39,160
1,note_on,55,0,40
1,note_on,57,39,120
1,note_on,56,0,40
1,note_on,53,39,120
1,note_on,57,0,40
1,note_on,54,39,120
1,note_on,53,0,40
1,note_on,56,39,120
1,note_on,54,0,40
1,note_on,56,0,120
1,note_on,52,44,0
1,note_on,53,38,160
1,note_on,52,0,40
1,note_on,54,37,120
1,note_on,53,0,40
1,note_on,50,38,120
1,note_on,54,0,40
1,note_on,51,36,120
1,note_on,50,0,40
1,note_on,53,36,120
1,note_on,51,0,40
1,note_on,53,0,120
1,note_on,43,38,0
1,note_on,44,34,160
1,note_on,43,0,40
1,note_on,46,34,120
1,note_on,44,0,40
1,note_on,48,36,120
1,note_on,46,0,40
1,note_on,49,38,120
1,note_on,48,0,40
1,note_on,51,39,120
1,note_on,49,0,40
1,note_on,51,0,120
1,note_on,53,41,0
1,note_on,54,40,160
1,note_on,53,0,40
1,note_on,55,41,120
1,note_on,54,0,40
1,note_on,56,42,120
1,note_on,55,0,40
1,note_on,53,41,120
1,note_on,56,0,40
1,note_on,58,41,120
1,note_on,53,0,40
1,note_on,58,0,120
1,note_on,56,46,0
1,note_on,65,49,160
1,note_on,56,0,40
1,note_on,63,47,120
1,note_on,65,0,40
1,note_on,61,49,120
1,note_on,63,0,40
1,note_on,60,46,120
1,note_on,61,0,40
1,note_on,58,46,120
1,note_on,60,0,40
1,note_on,58,0,120
1,note_on,56,45,0
1,note_on,53,43,160
1,note_on,56,0,40
1,note_on,54,43,120
1,note_on,53,0,40
1,note_on,56,43,120
1,note_on,54,0,40
1,note_on,53,46,120
1,note_on,56,0,40
1,note_on,58,45,120
1,note_on,53,0,40
1,note_on,58,0,120
1,note_on,56,51,0
1,note_on,51,44,160
1,note_on,56,0,40
1,note_on,53,44,120
1,note_on,51,0,40
1,note_on,54,45,120
1,note_on,53,0,40
1,note_on,51,43,120
1,note_on,54,0,40
1,note_on,58,53,120
1,note_on,51,0,40
1,note_on,58,0,120
1,note_on,56,51,0
1,note_on,49,46,160
1,note_on,56,0,40
1,note_on,51,47,120
1,note_on,49,0,40
1,note_on,53,51,120
1,note_on,51,0,40
1,note_on,49,47,120
1,note_on,53,0,40
1,note_on,58,53,120
1,note_on,49,0,40
1,note_on,58,0,120
1,note_on,56,51,0
1,note_on,48,44,160
1,note_on,56,0,40
1,note_on,49,44,120
1,note_on,48,0,40
1,note_on,51,46,120
1,note_on,49,0,40
1,note_on,48,43,120
1,note_on,51,0,40
1,note_on,53,50,120
1,note_on,48,0,40
1,note_on,53,0,120
1,note_on,51,48,0
1,note_on,46,46,160
1,note_on,51,0,40
1,note_on,53,47,120
1,note_on,46,0,40
1,note_on,51,51,120
1,note_on,53,0,40
1,note_on,44,47,120
1,note_on,51,0,40
1,note_on,46,47,120
1,note_on,44,0,40
1,note_on,46,0,120
1,note_on,44,51,0
1,note_on,49,40,160
1,note_on,44,0,40
1,note_on,51,42,120
1,note_on,49,0,40
1,note_on,53,43,120
1,note_on,51,0,40
1,note_on,54,45,120
1,note_on,53,0,40
1,note_on,56,46,120
1,note_on,54,0,40
1,note_on,56,0,120
1,note_on,58,48,0
1,note_on,60,51,160
1,note_on,58,0,40
1,note_on,61,48,120
1,note_on,60,0,40
1,note_on,63,53,120
1,note_on,61,0,40
1,note_on,65,50,120
1,note_on,63,0,40
1,note_on,66,56,120
1,note_on,65,0,40
1,note_on,66,0,120
1,note_on,68,59,0
1,note_on,77,60,160
1,note_on,68,0,40
1,note_on,75,57,120
1,note_on,77,0,40
1,note_on,73,56,120
1,note_on,75,0,40
1,note_on,72,54,120
1,note_on,73,0,40
1,note_on,70,54,120
1,note_on,72,0,40
1,note_on,70,0,120
1,note_on,68,56,0
1,note_on,65,51,160
1,note_on,68,0,40
1,note_on,66,51,120
1,note_on,65,0,40
1,note_on,68,52,120
1,note_on,66,0,40
1,note_on,65,51,120
1,note_on,68,0,40
1,note_on,70,51,120
1,note_on,65,0,40
1,note_on,70,0,120
1,note_on,68,56,0
1,note_on,63,48,160
1,note_on,68,0,40
1,note_on,65,48,120
1,note_on,63,0,40
1,note_on,66,53,120
1,note_on,65,0,40
1,note_on,63,51,120
1,note_on,66,0,40
1,note_on,70,51,120
1,note_on,63,0,40
1,note_on,70,0,120
1,note_on,68,52,0
1,note_on,61,46,160
1,note_on,68,0,40
1,note_on,63,46,120
1,note_on,61,0,40
1,note_on,65,51,120
1,note_on,63,0,40
1,note_on,61,49,120
1,note_on,65,0,40
1,note_on,70,56,120
1,note_on,61,0,40
1,note_on,70,0,120
1,note_on,68,52,0
1,note_on,60,48,160
1,note_on,68,0,40
1,note_on,61,40,120
1,note_on,60,0,40
1,note_on,63,48,120
1,note_on,61,0,40
1,note_on,60,47,120
1,note_on,63,0,40
1,note_on,65,43,120
1,note_on,60,0,40
1,note_on,65,0,120
1,note_on,63,51,0
1,note_on,58,46,160
1,note_on,63,0,40
1,note_on,65,47,120
1,note_on,58,0,40
1,note_on,63,49,120
1,note_on,65,0,40
1,note_on,56,48,120
1,note_on,63,0,40
1,note_on,65,49,120
1,note_on,56,0,40
1,note_on,65,0,120
1,note_on,66,53,0
1,note_on,65,49,160
1,note_on,66,0,40
1,note_on,63,51,120
1,note_on,65,0,40
1,note_on,61,49,120
1,note_on,63,0,40
1,note_on,60,48,120
1,note_on,61,0,40
1,note_on,58,44,120
1,note_on,60,0,40
1,note_on,58,0,120
1,note_on,57,54,0
1,note_on,65,47,160
1,note_on,57,0,160
1,note_on,60,46,0
1,note_on,65,0,40
1,note_on,63,49,120
1,note_on,60,0,40
1,note_on,61,47,120
1,note_on,63,0,40
1,note_on,58,47,120
1,note_on,61,0,40
1,note_on,58,0,120
1,note_on,57,54,0
1,note_on,65,47,160
1,note_on,57,0,160
1,note_on,60,46,0
1,note_on,65,0,40
1,note_on,63,47,120
1,note_on,60,0,40
1,note_on,61,45,120
1,note_on,63,0,40
1,note_on,58,45,120
1,note_on,61,0,40
1,note_on,58,0,120
1,note_on,57,54,0
1,note_on,65,47,160
1,note_on,57,0,160
1,note_on,60,46,0
1,note_on,65,0,40
1,note_on,63,49,120
1,note_on,60,0,40
1,note_on,61,47,120
1,note_on,63,0,40
1,note_on,58,45,120
1,note_on,61,0,40
1,note_on,58,0,120
1,note_on,68,53,0
1,note_on,67,47,160
1,note_on,68,0,40
1,note_on,65,45,120
1,note_on,67,0,40
1,note_on,63,49,120
1,note_on,65,0,40
1,note_on,62,45,120
1,note_on,63,0,40
1,note_on,60,47,120
1,note_on,62,0,40
1,note_on,60,0,120
1,note_on,59,49,0
1,note_on,67,47,160
1,note_on,59,0,160
1,note_on,62,43,0
1,note_on,67,0,40
1,note_on,65,47,120
1,note_on,62,0,40
1,note_on,63,47,120
1,note_on,65,0,40
1,note_on,60,47,120
1,note_on,63,0,40
1,note_on,60,0,120
1,note_on,59,49,0
1,note_on,67,47,160
1,note_on,59,0,160
1,note_on,62,44,0
1,note_on,67,0,40
1,note_on,65,51,120
1,note_on,62,0,40
1,note_on,63,47,120
1,note_on,65,0,40
1,note_on,60,47,120
1,note_on,63,0,40
1,note_on,60,0,120
1,note_on,59,54,0
1,note_on,67,47,160
1,note_on,59,0,160
1,note_on,62,43,0
1,note_on,67,0,40
1,note_on,65,51,120
1,note_on,62,0,40
1,note_on,63,47,120
1,note_on,65,0,40
1,note_on,60,47,120
1,note_on,63,0,40
1,note_on,60,0,120
1,note_on,73,67,0
1,note_on,72,58,160
1,note_on,73,0,40
1,note_on,70,56,120
1,note_on,72,0,40
1,note_on,68,56,120
1,note_on,70,0,40
1,note_on,67,55,120
1,note_on,68,0,40
1,note_on,65,55,120
1,note_on,67,0,40
1,note_on,65,0,120
1,note_on,70,61,0
1,note_on,64,55,160
1,note_on,70,0,40
1,note_on,67,54,120
1,note_on,64,0,40
1,note_on,61,56,120
1,note_on,67,0,40
1,note_on,64,55,120
1,note_on,61,0,40
1,note_on,60,52,120
1,note_on,64,0,40
1,note_on,60,0,120
1,note_on,73,67,0
1,note_on,72,56,160
1,note_on,73,0,40
1,note_on,70,59,120
1,note_on,72,0,40
1,note_on,68,58,120
1,note_on,70,0,40
1,note_on,67,56,120
1,note_on,68,0,40
1,note_on,65,56,120
1,note_on,67,0,40
1,note_on,65,0,120
1,note_on,70,62,0
1,note_on,64,55,160
1,note_on,70,0,40
1,note_on,67,56,120
1,note_on,64,0,40
1,note_on,67,0,120
1,note_on,61,54,0
1,note_on,64,55,160
1,note_on,61,0,40
1,note_on,60,57,120
1,note_on,64,0,40
1,note_on,60,0,120
1,note_on,70,59,0
1,note_on,64,53,160
1,note_on,70,0,40
1,note_on,67,53,120
1,note_on,64,0,40
1,note_on,61,51,120
1,note_on,67,0,40
1,note_on,64,48,120
1,note_on,61,0,40
1,note_on,60,48,120
1,note_on,64,0,40
1,note_on,60,0,120
1,note_on,67,57,0
1,note_on,61,51,160
1,note_on,67,0,40
1,note_on,64,49,120
1,note_on,61,0,40
1,note_on,60,50,120
1,note_on,64,0,40
1,note_on,64,48,120
1,note_on,60,0,40
1,note_on,58,48,120
1,note_on,64,0,40
1,note_on,58,0,120
1,note_on,64,59,0
1,note_on,58,50,160
1,note_on,64,0,40
1,note_on,61,48,120
1,note_on,58,0,40
1,note_on,57,51,120
1,note_on,61,0,40
1,note_on,58,49,120
1,note_on,57,0,40
1,note_on,56,50,120
1,note_on,58,0,40
1,note_on,56,0,120
1,note_on,61,51,0
1,note_on,56,48,160
1,note_on,61,0,40
1,note_on,58,48,120
1,note_on,56,0,40
1,note_on,55,50,120
1,note_on,58,0,40
1,note_on,58,48,120
1,note_on,55,0,40
1,note_on,54,41,120
1,note_on,58,0,40
1,note_on,54,0,120
1,note_on,53,51,0
1,note_on,55,46,160
1,note_on,53,0,40
1,note_on,58,45,120
1,note_on,55,0,40
1,note_on,61,45,120
1,note_on,58,0,40
1,note_on,52,45,120
1,note_on,61,0,40
1,note_on,55,46,120
1,note_on,52,0,40
1,note_on,55,0,120
1,note_on,53,51,0
1,note_on,55,46,160
1,note_on,53,0,40
1,note_on,58,45,120
1,note_on,55,0,40
1,note_on,61,45,120
1,note_on,58,0,40
1,note_on,52,45,120
1,note_on,61,0,40
1,note_on,55,46,120
1,note_on,52,0,40
1,note_on,55,0,104
1,note_on,55,53,16
1,note_on,57,45,160
1,note_on,55,0,40
1,note_on,60,46,120
1,note_on,57,0,40
1,note_on,63,47,120
1,note_on,60,0,40
1,note_on,54,45,120
1,note_on,63,0,40
1,note_on,57,48,120
1,note_on,54,0,40
1,note_on,57,0,120
1,note_on,55,53,0
1,note_on,57,47,160
1,note_on,55,0,40
1,note_on,60,46,120
1,note_on,57,0,40
1,note_on,63,49,120
1,note_on,60,0,40
1,note_on,54,48,120
1,note_on,63,0,40
1,note_on,57,46,120
1,note_on,54,0,40
1,note_on,57,0,120
1,note_on,58,55,0
1,note_on,60,47,160
1,note_on,58,0,40
1,note_on,63,48,120
1,note_on,60,0,40
1,note_on,66,49,120
1,note_on,63,0,40
1,note_on,57,48,120
1,note_on,66,0,40
1,note_on,60,45,120
1,note_on,57,0,40
1,note_on,60,0,120
1,note_on,61,50,0
1,note_on,63,49,160
1,note_on,61,0,40
1,note_on,66,48,120
1,note_on,63,0,40
1,note_on,69,49,120
1,note_on,66,0,40
1,note_on,60,49,120
1,note_on,69,0,40
1,note_on,63,50,120
1,note_on,60,0,40
1,note_on,63,0,120
1,note_on,61,55,0
1,note_on,63,49,160
1,note_on,61,0,40
1,note_on,66,48,120
1,note_on,63,0,40
1,note_on,69,50,120
1,note_on,66,0,40
1,note_on,60,49,120
1,note_on,69,0,40
1,note_on,63,50,120
1,note_on,60,0,40
1,note_on,63,0,120
1,note_on,66,57,0
1,note_on,70,51,160
1,note_on,66,0,40
1,note_on,72,52,120
1,note_on,70,0,40
1,note_on,75,54,120
1,note_on,72,0,40
1,note_on,65,54,120
1,note_on,75,0,40
1,note_on,69,55,120
1,note_on,65,0,40
1,note_on,69,0,120
1,note_on,70,65,0
1,note_on,73,56,160
1,note_on,70,0,40
1,note_on,78,55,120
1,note_on,73,0,40
1,note_on,77,55,120
1,note_on,78,0,40
1,note_on,72,54,120
1,note_on,77,0,40
1,note_on,73,55,120
1,note_on,72,0,40
1,note_on,73,0,120
1,note_on,76,62,0
1,note_on,72,57,160
1,note_on,76,0,160
1,note_on,73,55,0
1,note_on,72,0,40
1,note_on,69,56,120
1,note_on,73,0,40
1,note_on,70,55,120
1,note_on,69,0,160
1,note_on,66,51,0
1,note_on,70,0,40
1,note_on,66,0,120
1,note_on,64,56,0
1,note_on,65,51,160
1,note_on,64,0,160
1,note_on,70,51,0
1,note_on,65,0,40
1,note_on,70,0,120
1,note_on,68,56,0
1,note_on,69,51,160
1,note_on,68,0,160
1,note_on,73,51,0
1,note_on,69,0,40
1,note_on,73,0,120
1,note_on,69,58,0
1,note_on,70,55,160
1,note_on,69,0,160
1,note_on,73,56,0
1,note_on,70,0,40
1,note_on,73,0,120
1,note_on,71,59,0
1,note_on,72,56,160
1,note_on,71,0,160
1,note_on,77,53,0
1,note_on,72,0,40
1,note_on,77,0,120
1,note_on,68,65,0
1,note_on,71,59,160
1,note_on,68,0,40
1,note_on,76,56,120
1,note_on,71,0,40
1,note_on,75,62,120
1,note_on,76,0,40
1,note_on,70,58,120
1,note_on,75,0,40
1,note_on,71,54,120
1,note_on,70,0,40
1,note_on,71,0,120
1,note_on,74,62,0
1,note_on,70,56,160
1,note_on,74,0,160
1,note_on,71,53,0
1,note_on,70,0,40
1,note_on,67,58,120
1,note_on,71,0,40
1,note_on,68,51,120
1,note_on,67,0,160
1,note_on,64,51,0
1,note_on,68,0,40
1,note_on,64,0,120
1,note_on,62,56,0
1,note_on,63,51,160
1,note_on,62,0,160
1,note_on,68,51,0
1,note_on,63,0,40
1,note_on,68,0,120
1,note_on,64,56,0
1,note_on,65,53,160
1,note_on,64,0,160
1,note_on,71,54,0
1,note_on,65,0,40
1,note_on,71,0,120
1,note_on,65,61,0
1,note_on,66,55,160
1,note_on,65,0,160
1,note_on,71,56,0
1,note_on,66,0,40
1,note_on,71,0,120
1,note_on,69,64,0
1,note_on,70,56,160
1,note_on,69,0,160
1,note_on,75,58,0
1,note_on,70,0,40
1,note_on,75,0,120
1,note_on,73,64,0
1,note_on,72,53,160
1,note_on,73,0,40
1,note_on,71,47,120
1,note_on,72,0,40
1,note_on,70,56,120
1,note_on,71,0,40
1,note_on,69,52,120
1,note_on,70,0,40
1,note_on,77,56,120
1,note_on,69,0,40
1,note_on,77,0,120
1,note_on,75,64,0
1,note_on,74,55,160
1,note_on,75,0,40
1,note_on,73,55,120
1,note_on,74,0,40
1,note_on,72,57,120
1,note_on,73,0,40
1,note_on,70,54,120
1,note_on,72,0,40
1,note_on,78,58,120
1,note_on,70,0,40
1,note_on,78,0,120
1,note_on,77,67,0
1,note_on,75,59,160
1,note_on,77,0,40
1,note_on,74,56,120
1,note_on,75,0,40
1,note_on,73,60,120
1,note_on,74,0,40
1,note_on,72,58,120
1,note_on,73,0,40
1,note_on,81,63,120
1,note_on,72,0,40
1,note_on,81,0,120
1,note_on,72,68,0
1,note_on,73,62,160
1,note_on,72,0,160
1,note_on,82,62,0
1,note_on,73,0,40
1,note_on,82,0,120
1,note_on,74,71,0
1,note_on,75,62,160
1,note_on,74,0,160
1,note_on,82,67,0
1,note_on,75,0,40
1,note_on,82,0,120
1,note_on,84,72,0
1,note_on,82,60,160
1,note_on,84,0,40
1,note_on,80,56,120
1,note_on,82,0,40
1,note_on,78,62,120
1,note_on,80,0,40
1,note_on,77,60,120
1,note_on,78,0,40
1,note_on,76,60,120
1,note_on,77,0,40
1,note_on,76,0,120
1,note_on,84,72,0
1,note_on,82,62,160
1,note_on,84,0,40
1,note_on,80,59,120
1,note_on,82,0,40
1,note_on,78,63,120
1,note_on,80,0,40
1,note_on,77,59,120
1,note_on,78,0,40
1,note_on,76,58,120
1,note_on,77,0,40
1,note_on,76,0,120
1,note_on,78,67,0
1,note_on,77,58,160
1,note_on,78,0,40
1,note_on,76,56,120
1,note_on,77,0,40
1,note_on,75,60,120
1,note_on,76,0,40
1,note_on,74,56,120
1,note_on,75,0,40
1,note_on,73,55,120
1,note_on,74,0,40
1,note_on,73,0,120
1,note_on,75,58,0
1,note_on,71,54,160
1,note_on,75,0,40
1,note_on,72,50,120
1,note_on,71,0,40
1,note_on,73,51,120
1,note_on,72,0,40
1,note_on,69,47,120
1,note_on,73,0,40
1,note_on,70,50,120
1,note_on,69,0,40
1,note_on,70,0,120
1,note_on,72,53,0
1,note_on,67,45,160
1,note_on,72,0,160
1,note_on,68,45,0
1,note_on,67,0,40
1,note_on,71,46,120
1,note_on,68,0,40
1,note_on,66,42,120
1,note_on,71,0,160
1,note_on,75,39,0
1,note_on,66,0,40
1,note_on,75,0,120
1,note_on,70,46,0
1,note_on,65,42,160
1,note_on,70,0,160
1,note_on,66,45,0
1,note_on,65,0,40
1,note_on,69,43,120
1,note_on,66,0,40
1,note_on,64,41,120
1,note_on,69,0,160
1,note_on,73,39,0
1,note_on,64,0,40
1,note_on,73,0,120
1,note_on,68,51,0
1,note_on,63,44,160
1,note_on,68,0,160
1,note_on,64,44,0
1,note_on,63,0,40
1,note_on,67,43,120
1,note_on,64,0,40
1,note_on,62,41,120
1,note_on,67,0,160
1,note_on,71,41,0
1,note_on,62,0,40
1,note_on,71,0,120
1,note_on,66,47,0
1,note_on,61,40,160
1,note_on,66,0,160
1,note_on,62,40,0
1,note_on,61,0,40
1,note_on,65,44,120
1,note_on,62,0,40
1,note_on,60,38,120
1,note_on,65,0,160
1,note_on,69,40,0
1,note_on,60,0,40
1,note_on,69,0,120
1,note_on,74,49,0
1,note_on,69,42,160
1,note_on,74,0,160
1,note_on,70,45,0
1,note_on,69,0,40
1,note_on,73,48,120
1,note_on,70,0,40
1,note_on,68,42,120
1,note_on,73,0,160
1,note_on,77,39,0
1,note_on,68,0,40
1,note_on,77,0,120
1,note_on,72,47,0
1,note_on,67,42,160
1,note_on,72,0,160
1,note_on,68,42,0
1,note_on,67,0,40
1,note_on,71,44,120
1,note_on,68,0,40
1,note_on,66,43,120
1,note_on,71,0,160
1,note_on,75,39,0
1,note_on,66,0,40
1,note_on,75,0,120
1,note_on,70,47,0
1,note_on,65,39,160
1,note_on,70,0,160
1,note_on,66,41,0
1,note_on,65,0,40
1,note_on,69,41,120
1,note_on,66,0,40
1,note_on,64,39,120
1,note_on,69,0,160
1,note_on,73,39,0
1,note_on,64,0,40
1,note_on,73,0,120
1,note_on,68,44,0
1,note_on,63,39,160
1,note_on,68,0,160
1,note_on,64,41,0
1,note_on,63,0,40
1,note_on,67,42,120
1,note_on,64,0,40
1,note_on,62,39,120
1,note_on,67,0,160
1,note_on,71,43,0
1,note_on,62,0,40
1,note_on,71,0,120
1,note_on,76,53,0
1,note_on,71,39,160
1,note_on,76,0,160
1,note_on,72,45,0
1,note_on,71,0,40
1,note_on,75,45,120
1,note_on,72,0,40
1,note_on,70,39,120
1,note_on,75,0,160
1,note_on,79,42,0
1,note_on,70,0,40
1,note_on,79,0,120
1,note_on,74,51,0
1,note_on,69,38,160
1,note_on,74,0,160
1,note_on,70,42,0
1,note_on,69,0,40
1,note_on,73,43,120
1,note_on,70,0,40
1,note_on,68,38,120
1,note_on,73,0,160
1,note_on,77,39,0
1,note_on,68,0,40
1,note_on,77,0,120
1,note_on,72,49,0
1,note_on,67,38,160
1,note_on,72,0,160
1,note_on,68,39,0
1,note_on,67,0,40
1,note_on,71,39,120
1,note_on,68,0,40
1,note_on,66,36,120
1,note_on,71,0,160
1,note_on,75,37,0
1,note_on,66,0,40
1,note_on,75,0,120
1,note_on,70,47,0
1,note_on,65,36,160
1,note_on,70,0,160
1,note_on,75,39,0
1,note_on,65,0,40
1,note_on,70,41,120
1,note_on,75,0,40
1,note_on,65,34,120
1,note_on,70,0,160
1,note_on,73,39,0
1,note_on,65,0,40
1,note_on,73,0,120
1,note_on,66,49,0
1,note_on,65,42,160
1,note_on,66,0,40
1,note_on,64,39,120
1,note_on,65,0,40
1,note_on,63,43,120
1,note_on,64,0,40
1,note_on,61,43,120
1,note_on,63,0,40
1,note_on,60,42,120
1,note_on,61,0,40
1,note_on,60,0,120
1,note_on,66,49,0
1,note_on,65,42,160
1,note_on,66,0,40
1,note_on,63,42,120
1,note_on,65,0,40
1,note_on,61,45,120
1,note_on,63,0,40
1,note_on,60,44,120
1,note_on,61,0,40
1,note_on,58,42,120
1,note_on,60,0,40
1,note_on,58,0,120
1,note_on,66,49,0
1,note_on,65,45,160
1,note_on,66,0,40
1,note_on,63,42,120
1,note_on,65,0,40
1,note_on,61,45,120
1,note_on,63,0,40
1,note_on,60,44,120
1,note_on,61,0,40
1,note_on,59,42,120
1,note_on,60,0,40
1,note_on,59,0,120
1,note_on,66,49,0
1,note_on,65,45,160
1,note_on,66,0,40
1,note_on,63,42,120
1,note_on,65,0,40
1,note_on,61,45,120
1,note_on,63,0,40
1,note_on,59,44,120
1,note_on,61,0,40
1,note_on,58,42,120
1,note_on,59,0,40
1,note_on,58,0,120
1,note_on,57,45,0
1,note_on,58,43,160
1,note_on,57,0,40
1,note_on,60,43,120
1,note_on,58,0,40
1,note_on,63,44,120
1,note_on,60,0,40
1,note_on,61,41,120
1,note_on,63,0,40
1,note_on,57,40,120
1,note_on,61,0,40
1,note_on,57,0,120
1,note_on,60,45,0
1,note_on,58,40,160
1,note_on,60,0,40
1,note_on,53,40,120
1,note_on,58,0,40
1,note_on,56,41,120
1,note_on,53,0,40
1,note_on,54,40,120
1,note_on,56,0,40
1,note_on,53,40,120
1,note_on,54,0,40
1,note_on,53,0,120
1,note_on,51,45,0
1,note_on,53,43,160
1,note_on,51,0,40
1,note_on,54,43,120
1,note_on,53,0,40
1,note_on,58,44,120
1,note_on,54,0,40
1,note_on,56,41,120
1,note_on,58,0,40
1,note_on,54,40,120
1,note_on,56,0,40
1,note_on,54,0,120
1,note_on,53,44,0
1,note_on,49,40,160
1,note_on,53,0,40
1,note_on,51,40,120
1,note_on,49,0,40
1,note_on,53,43,120
1,note_on,51,0,40
1,note_on,52,40,120
1,note_on,53,0,40
1,note_on,53,40,120
1,note_on,52,0,40
1,note_on,53,0,120
1,note_on,54,44,0
1,note_on,53,39,160
1,note_on,54,0,40
1,note_on,52,39,120
1,note_on,53,0,40
1,note_on,51,39,120
1,note_on,52,0,40
1,note_on,49,36,120
1,note_on,51,0,40
1,note_on,48,37,120
1,note_on,49,0,40
1,note_on,48,0,120
1,note_on,54,44,0
1,note_on,53,39,160
1,note_on,54,0,40
1,note_on,51,39,120
1,note_on,53,0,40
1,note_on,49,39,120
1,note_on,51,0,40
1,note_on,48,36,120
1,note_on,49,0,40
1,note_on,46,37,120
1,note_on,48,0,40
1,note_on,46,0,120
1,note_on,54,44,0
1,note_on,53,39,160
1,note_on,54,0,40
1,note_on,51,39,120
1,note_on,53,0,40
1,note_on,49,39,120
1,note_on,51,0,40
1,note_on,48,36,120
1,note_on,49,0,40
1,note_on,47,37,120
1,note_on,48,0,40
1,note_on,47,0,120
1,note_on,54,44,0
1,note_on,53,39,160
1,note_on,54,0,40
1,note_on,51,39,120
1,note_on,53,0,40
1,note_on,49,39,120
1,note_on,51,0,40
1,note_on,47,36,120
1,note_on,49,0,40
1,note_on,46,37,120
1,note_on,47,0,40
1,note_on,46,0,120
1,note_on,45,41,0
1,note_on,46,36,160
1,note_on,45,0,40
1,note_on,47,37,120
1,note_on,46,0,40
1,note_on,49,45,120
1,note_on,47,0,40
1,note_on,51,39,120
1,note_on,49,0,40
1,note_on,53,40,120
1,note_on,51,0,40
1,note_on,53,0,120
1,note_on,54,49,0
1,note_on,56,45,160
1,note_on,54,0,40
1,note_on,58,46,120
1,note_on,56,0,40
1,note_on,59,54,120
1,note_on,58,0,40
1,note_on,61,51,120
1,note_on,59,0,40
1,note_on,63,51,120
1,note_on,61,0,40
1,note_on,63,0,120
1,note_on,65,58,0
1,note_on,64,53,160
1,note_on,65,0,40
1,note_on,61,46,120
1,note_on,64,0,40
1,note_on,60,50,120
1,note_on,61,0,40
1,note_on,58,49,120
1,note_on,60,0,40
1,note_on,54,44,120
1,note_on,58,0,40
1,note_on,54,0,120
1,note_on,53,49,0
1,note_on,52,43,160
1,note_on,53,0,40
1,note_on,49,39,120
1,note_on,52,0,40
1,note_on,48,43,120
1,note_on,49,0,40
1,note_on,46,36,120
1,note_on,48,0,40
1,note_on,42,34,120
1,note_on,46,0,40
1,note_on,42,0,120
1,note_on,41,39,0
1,note_on,46,33,160
1,note_on,41,0,160
1,note_on,44,33,0
1,note_on,46,0,40
1,note_on,45,36,120
1,note_on,44,0,40
1,note_on,49,34,120
1,note_on,45,0,160
1,note_on,45,34,0
1,note_on,49,0,40
1,note_on,45,0,120
1,note_on,46,41,0
1,note_on,51,37,160
1,note_on,46,0,160
1,note_on,47,37,0
1,note_on,51,0,40
1,note_on,48,39,120
1,note_on,47,0,40
1,note_on,53,39,120
1,note_on,48,0,160
1,note_on,48,39,0
1,note_on,53,0,40
1,note_on,48,0,120
1,note_on,49,43,0
1,note_on,54,39,160
1,note_on,49,0,160
1,note_on,50,39,0
1,note_on,54,0,40
1,note_on,51,41,120
1,note_on,50,0,40
1,note_on,57,39,120
1,note_on,51,0,160
1,note_on,53,39,0
1,note_on,57,0,40
1,note_on,53,0,120
1,note_on,54,46,0
1,note_on,61,40,160
1,note_on,54,0,160
1,note_on,57,39,0
1,note_on,61,0,40
1,note_on,60,40,120
1,note_on,57,0,40
1,note_on,66,42,120
1,note_on,60,0,160
1,note_on,65,40,0
1,note_on,66,0,40
1,note_on,65,0,120
1,note_on,57,45,0
1,note_on,61,39,160
1,note_on,57,0,160
1,note_on,57,41,0
1,note_on,61,0,40
1,note_on,60,42,120
1,note_on,57,0,40
1,note_on,66,43,120
1,note_on,60,0,160
1,note_on,65,43,0
1,note_on,66,0,40
1,note_on,65,0,120
1,note_on,57,45,0
1,note_on,61,39,160
1,note_on,57,0,160
1,note_on,57,41,0
1,note_on,61,0,40
1,note_on,60,43,120
1,note_on,57,0,40
1,note_on,66,43,120
1,note_on,60,0,160
1,note_on,65,43,0
1,note_on,66,0,40
1,note_on,65,0,120
1,note_on,60,47,0
1,note_on,66,43,160
1,note_on,60,0,160
1,note_on,65,40,0
1,note_on,66,0,40
1,note_on,60,41,120
1,note_on,65,0,40
1,note_on,66,43,120
1,note_on,60,0,160
1,note_on,65,40,0
1,note_on,66,0,40
1,note_on,65,0,120
1,note_on,60,45,0
1,note_on,66,43,160
1,note_on,60,0,160
1,note_on,65,40,0
1,note_on,66,0,40
1,note_on,58,44,120
1,note_on,65,0,40
1,note_on,66,43,120
1,note_on,58,0,160
1,note_on,65,43,0
1,note_on,66,0,40
1,note_on,65,0,120
1,note_on,61,45,0
1,note_on,53,36,160
1,note_on,61,0,160
1,note_on,63,39,0
1,note_on,53,0,40
1,note_on,65,39,120
1,note_on,63,0,40
1,note_on,63,40,120
1,note_on,65,0,40
1,note_on,61,40,120
1,note_on,63,0,40
1,note_on,61,0,120
1,note_on,58,44,0
1,note_on,53,39,160
1,note_on,58,0,40
1,note_on,60,39,120
1,note_on,53,0,40
1,note_on,61,40,120
1,note_on,60,0,40
1,note_on,60,39,120
1,note_on,61,0,40
1,note_on,58,40,120
1,note_on,60,0,40
1,note_on,58,0,120
1,note_on,61,45,0
1,note_on,53,39,160
1,note_on,61,0,40
1,note_on,63,39,120
1,note_on,53,0,40
1,note_on,65,41,120
1,note_on,63,0,40
1,note_on,63,40,120
1,note_on,65,0,40
1,note_on,61,40,120
1,note_on,63,0,40
1,note_on,61,0,120
1,note_on,58,44,0
1,note_on,53,39,160
1,note_on,58,0,40
1,note_on,60,39,120
1,note_on,53,0,40
1,note_on,61,40,120
1,note_on,60,0,40
1,note_on,60,40,120
1,note_on,61,0,40
1,note_on,58,40,120
1,note_on,60,0,40
1,note_on,58,0,120
1,note_on,51,44,0
1,note_on,53,39,160
1,note_on,51,0,40
1,note_on,58,34,120
1,note_on,53,0,40
1,note_on,61,37,120
1,note_on,58,0,40
1,note_on,49,35,120
1,note_on,61,0,40
1,note_on,53,35,120
1,note_on,49,0,40
1,note_on,53,0,120
1,note_on,51,44,0
1,note_on,53,39,160
1,note_on,51,0,40
1,note_on,58,34,120
1,note_on,53,0,40
1,note_on,61,36,120
1,note_on,58,0,40
1,note_on,49,35,120
1,note_on,61,0,40
1,note_on,53,35,120
1,note_on,49,0,40
1,note_on,53,0,120
1,note_on,48,44,0
1,note_on,49,39,160
1,note_on,48,0,40
1,note_on,53,34,120
1,note_on,49,0,40
1,note_on,58,36,120
1,note_on,53,0,40
1,note_on,46,35,120
1,note_on,58,0,40
1,note_on,49,35,120
1,note_on,46,0,40
1,note_on,49,0,120
1,note_on,48,44,0
1,note_on,49,39,160
1,note_on,48,0,40
1,note_on,53,34,120
1,note_on,49,0,40
1,note_on,58,36,120
1,note_on,53,0,40
1,note_on,46,35,120
1,note_on,58,0,40
1,note_on,49,35,120
1,note_on,46,0,40
1,note_on,49,0,120
1,note_on,48,44,960
1,note_on,49,39,160
1,note_on,48,0,40
1,note_on,53,34,120
1,note_on,49,0,40
1,note_on,58,35,120
1,note_on,53,0,40
1,note_on,46,35,120
1,note_on,58,0,40
1,note_on,49,35,120
1,note_on,46,0,40
1,note_on,49,0,120
1,note_on,48,57,960
1,note_on,49,51,160
1,note_on,48,0,40
1,note_on,53,46,120
1,note_on,49,0,40
1,note_on,58,47,120
1,note_on,53,0,40
1,note_on,46,48,120
1,note_on,58,0,40
1,note_on,49,49,120
1,note_on,46,0,40
1,note_on,49,0,120
1,note_on,46,100,0
1,note_on,46,0,480
1,note_on,94,99,480
1,note_on,82,83,0
1,note_on,82,0,960
1,note_on,94,0,0
2,note_on,41,30,0
2,note_on,43,24,160
2,note_on,41,0,40
2,note_on,46,25,120
2,note_on,43,0,40
2,note_on,49,25,120
2,note_on,46,0,40
2,note_on,40,28,120
2,note_on,49,0,40
2,note_on,43,26,120
2,note_on,40,0,40
2,note_on,43,0,120
2,note_on,41,30,0
2,note_on,43,26,160
2,note_on,41,0,40
2,note_on,46,26,120
2,note_on,43,0,40
2,note_on,49,27,120
2,note_on,46,0,40
2,note_on,40,28,120
2,note_on,49,0,40
2,note_on,43,27,120
2,note_on,40,0,40
2,note_on,43,0,104
2,note_on,43,34,16
2,note_on,45,28,160
2,note_on,43,0,40
2,note_on,48,29,120
2,note_on,45,0,40
2,note_on,51,28,120
2,note_on,48,0,40
2,note_on,42,28,120
2,note_on,51,0,40
2,note_on,45,30,120
2,note_on,42,0,40
2,note_on,45,0,120
2,note_on,43,34,0
2,note_on,45,28,160
2,note_on,43,0,40
2,note_on,48,28,120
2,note_on,45,0,40
2,note_on,51,30,120
2,note_on,48,0,40
2,note_on,42,28,120
2,note_on,51,0,40
2,note_on,45,30,120
2,note_on,42,0,40
2,note_on,45,0,120
2,note_on,46,38,0
2,note_on,48,29,160
2,note_on,46,0,40
2,note_on,51,32,120
2,note_on,48,0,40
2,note_on,54,36,120
2,note_on,51,0,40
2,note_on,45,33,120
2,note_on,54,0,40
2,note_on,48,31,120
2,note_on,45,0,40
2,note_on,48,0,120
2,note_on,49,34,0
2,note_on,51,32,160
2,note_on,49,0,40
2,note_on,54,33,120
2,note_on,51,0,40
2,note_on,57,35,120
2,note_on,54,0,40
2,note_on,48,33,120
2,note_on,57,0,40
2,note_on,51,34,120
2,note_on,48,0,40
2,note_on,51,0,120
2,note_on,49,41,0
2,note_on,51,35,160
2,note_on,49,0,40
2,note_on,54,32,120
2,note_on,51,0,40
2,note_on,54,0,120
2,note_on,57,37,0
2,note_on,48,36,160
2,note_on,57,0,40
2,note_on,51,36,120
2,note_on,48,0,40
2,note_on,51,0,120
2,note_on,54,41,0
2,note_on,58,34,160
2,note_on,54,0,40
2,note_on,60,34,120
2,note_on,58,0,40
2,note_on,63,38,120
2,note_on,60,0,40
2,note_on,53,37,120
2,note_on,63,0,40
2,note_on,57,37,120
2,note_on,53,0,40
2,note_on,57,0,120
2,note_on,58,47,0
2,note_on,61,38,160
2,note_on,58,0,40
2,note_on,66,40,120
2,note_on,61,0,40
2,note_on,65,37,120
2,note_on,66,0,40
2,note_on,60,38,120
2,note_on,65,0,40
2,note_on,61,38,120
2,note_on,60,0,40
2,note_on,61,0,120
2,note_on,64,42,0
2,note_on,60,39,160
2,note_on,60,0,160
2,note_on,64,0,0
2,note_on,61,40,0
2,note_on,57,36,160
2,note_on,61,0,40
2,note_on,57,0,120
2,note_on,58,39,0
2,note_on,54,36,160
2,note_on,58,0,40
2,note_on,54,0,120
2,note_on,52,40,0
2,note_on,53,37,160
2,note_on,52,0,40
2,note_on,58,37,120
2,note_on,53,0,40
2,note_on,58,0,120
2,note_on,56,39,0
2,note_on,57,38,160
2,note_on,56,0,40
2,note_on,61,38,120
2,note_on,57,0,40
2,note_on,61,0,120
2,note_on,57,41,0
2,note_on,58,37,160
2,note_on,57,0,40
2,note_on,61,38,120
2,note_on,58,0,40
2,note_on,61,0,120
2,note_on,59,39,0
2,note_on,60,38,160
2,note_on,59,0,40
2,note_on,65,38,120
2,note_on,60,0,40
2,note_on,65,0,120
2,note_on,56,40,0
2,note_on,59,36,160
2,note_on,56,0,40
2,note_on,64,38,120
2,note_on,59,0,40
2,note_on,63,37,120
2,note_on,64,0,40
2,note_on,58,34,120
2,note_on,63,0,40
2,note_on,59,31,120
2,note_on,58,0,40
2,note_on,59,0,120
2,note_on,62,43,0
2,note_on,58,36,160
2,note_on,62,0,160
2,note_on,59,35,0
2,note_on,58,0,40
2,note_on,55,36,120
2,note_on,59,0,40
2,note_on,56,38,120
2,note_on,55,0,160
2,note_on,52,36,0
2,note_on,56,0,40
2,note_on,52,0,120
2,note_on,50,39,0
2,note_on,51,34,160
2,note_on,50,0,160
2,note_on,56,34,0
2,note_on,51,0,40
2,note_on,56,0,120
2,note_on,52,36,0
2,note_on,53,35,160
2,note_on,52,0,160
2,note_on,59,35,0
2,note_on,53,0,40
2,note_on,59,0,120
2,note_on,53,39,0
2,note_on,54,38,160
2,note_on,53,0,160
2,note_on,59,36,0
2,note_on,54,0,40
2,note_on,59,0,120
2,note_on,57,37,0
2,note_on,58,37,160
2,note_on,57,0,160
2,note_on,63,37,0
2,note_on,58,0,40
2,note_on,63,0,120
2,note_on,61,43,0
2,note_on,53,38,160
2,note_on,61,0,160
2,note_on,58,34,0
2,note_on,53,0,40
2,note_on,49,34,120
2,note_on,58,0,40
2,note_on,52,36,120
2,note_on,49,0,160
2,note_on,57,36,0
2,note_on,52,0,40
2,note_on,57,0,120
2,note_on,60,38,0
2,note_on,51,34,160
2,note_on,60,0,160
2,note_on,56,35,0
2,note_on,51,0,40
2,note_on,47,34,120
2,note_on,56,0,40
2,note_on,50,34,120
2,note_on,47,0,160
2,note_on,55,35,0
2,note_on,50,0,40
2,note_on,55,0,120
2,note_on,59,45,0
2,note_on,50,38,160
2,note_on,59,0,40
2,note_on,54,38,120
2,note_on,50,0,40
2,note_on,46,36,120
2,note_on,54,0,40
2,note_on,49,35,120
2,note_on,46,0,40
2,note_on,54,36,120
2,note_on,49,0,40
2,note_on,54,0,120
2,note_on,58,42,0
2,note_on,54,38,160
2,note_on,58,0,40
2,note_on,59,35,120
2,note_on,54,0,40
2,note_on,60,39,120
2,note_on,59,0,40
2,note_on,61,43,120
2,note_on,60,0,40
2,note_on,63,45,120
2,note_on,61,0,40
2,note_on,63,0,120
2,note_on,64,48,0
2,note_on,55,38,151
2,note_on,64,0,40
2,note_on,60,38,120
2,note_on,55,0,40
2,note_on,51,34,120
2,note_on,60,0,40
2,note_on,54,34,120
2,note_on,51,0,160
2,note_on,59,34,0
2,note_on,54,0,40
2,note_on,59,0,120
2,note_on,62,40,0
2,note_on,53,35,160
2,note_on,62,0,160
2,note_on,58,36,0
2,note_on,53,0,40
2,note_on,49,36,120
2,note_on,58,0,40
2,note_on,52,38,120
2,note_on,49,0,160
2,note_on,57,38,0
2,note_on,52,0,40
2,note_on,57,0,120
2,note_on,60,41,0
2,note_on,52,38,160
2,note_on,60,0,40
2,note_on,56,38,120
2,note_on,52,0,40
2,note_on,47,39,120
2,note_on,56,0,40
2,note_on,50,36,120
2,note_on,47,0,40
2,note_on,55,36,120
2,note_on,50,0,40
2,note_on,55,0,120
2,note_on,59,42,0
2,note_on,54,38,160
2,note_on,59,0,40
2,note_on,61,38,120
2,note_on,54,0,40
2,note_on,62,42,120
2,note_on,61,0,5
2,note_on,63,44,120
2,note_on,62,0,40
2,note_on,64,45,120
2,note_on,63,0,40
2,note_on,64,0,120
2,note_on,65,47,0
2,note_on,57,38,147
2,note_on,65,0,40
2,note_on,63,38,120
2,note_on,57,0,40
2,note_on,64,45,120
2,note_on,63,0,40
2,note_on,65,45,97
2,note_on,64,0,40
2,note_on,66,47,120
2,note_on,65,0,40
2,note_on,66,0,120
2,note_on,65,51,0
2,note_on,58,39,144
2,note_on,65,0,40
2,note_on,61,42,120
2,note_on,58,0,40
2,note_on,64,46,120
2,note_on,61,0,40
2,note_on,65,48,117
2,note_on,64,0,40
2,note_on,66,50,120
2,note_on,65,0,40
2,note_on,66,0,120
2,note_on,67,54,0
2,note_on,59,39,153
2,note_on,67,0,40
2,note_on,65,45,120
2,note_on,59,0,40
2,note_on,66,51,120
2,note_on,65,0,17
2,note_on,67,51,120
2,note_on,66,0,40
2,note_on,68,55,120
2,note_on,67,0,40
2,note_on,68,0,120
2,note_on,67,57,0
2,note_on,60,43,150
2,note_on,67,0,40
2,note_on,63,51,120
2,note_on,60,0,40
2,note_on,66,54,17
2,note_on,63,0,40
2,note_on,67,56,120
2,note_on,66,0,40
2,note_on,68,57,120
2,note_on,67,0,40
2,note_on,68,0,120
2,note_on,63,57,0
2,note_on,60,49,147
2,note_on,63,0,160
2,note_on,65,43,0
2,note_on,60,0,40
2,note_on,63,43,120
2,note_on,65,0,40
2,note_on,56,41,120
2,note_on,63,0,160
2,note_on,61,44,0
2,note_on,56,0,40
2,note_on,61,0,120
2,note_on,60,48,0
2,note_on,51,38,160
2,note_on,60,0,160
2,note_on,58,39,0
2,note_on,51,0,40
2,note_on,56,41,120
2,note_on,58,0,40
2,note_on,48,39,120
2,note_on,56,0,160
2,note_on,53,39,0
2,note_on,48,0,40
2,note_on,53,0,120
2,note_on,51,47,0
2,note_on,44,38,160
2,note_on,51,0,40
2,note_on,49,38,120
2,note_on,44,0,40
2,note_on,48,36,120
2,note_on,49,0,40
2,note_on,43,35,120
2,note_on,48,0,40
2,note_on,44,36,120
2,note_on,43,0,40
2,note_on,44,0,120
2,note_on,48,39,0
2,note_on,42,33,160
2,note_on,48,0,40
2,note_on,50,32,120
2,note_on,42,0,40
2,note_on,48,34,120
2,note_on,50,0,40
2,note_on,41,33,120
2,note_on,48,0,40
2,note_on,42,29,120
2,note_on,41,0,40
2,note_on,42,0,120
2,note_on,43,35,0
2,note_on,45,32,160
2,note_on,43,0,40
2,note_on,47,29,120
2,note_on,45,0,40
2,note_on,48,33,120
2,note_on,47,0,40
2,note_on,50,32,120
2,note_on,48,0,40
2,note_on,51,35,120
2,note_on,50,0,40
2,note_on,51,0,120
2,note_on,44,38,0
2,note_on,46,30,160
2,note_on,44,0,40
2,note_on,47,28,120
2,note_on,46,0,40
2,note_on,48,32,120
2,note_on,47,0,40
2,note_on,49,32,120
2,note_on,48,0,40
2,note_on,51,31,120
2,note_on,49,0,40
2,note_on,51,0,120
2,note_on,45,40,0
2,note_on,46,34,160
2,note_on,45,0,40
2,note_on,48,32,120
2,note_on,46,0,40
2,note_on,49,36,120
2,note_on,48,0,40
2,note_on,51,34,120
2,note_on,49,0,40
2,note_on,53,35,120
2,note_on,51,0,40
2,note_on,53,0,120
2,note_on,46,40,0
2,note_on,47,32,160
2,note_on,46,0,40
2,note_on,48,33,120
2,note_on,47,0,40
2,note_on,49,36,120
2,note_on,48,0,40
2,note_on,51,33,120
2,note_on,49,0,40
2,note_on,53,36,120
2,note_on,51,0,40
2,note_on,53,0,120
2,note_on,48,43,0
2,note_on,49,36,160
2,note_on,48,0,40
2,note_on,50,33,120
2,note_on,49,0,40
2,note_on,51,37,120
2,note_on,50,0,40
2,note_on,53,36,120
2,note_on,51,0,40
2,note_on,54,38,120
2,note_on,53,0,40
2,note_on,54,0,120
2,note_on,45,43,0
2,note_on,49,36,160
2,note_on,45,0,40
2,note_on,50,36,120
2,note_on,49,0,40
2,note_on,51,39,120
2,note_on,50,0,40
2,note_on,53,38,120
2,note_on,51,0,40
2,note_on,54,40,120
2,note_on,53,0,40
2,note_on,54,0,120
2,note_on,57,50,0
2,note_on,54,40,160
2,note_on,57,0,40
2,note_on,52,40,120
2,note_on,54,0,40
2,note_on,50,41,120
2,note_on,52,0,40
2,note_on,52,38,120
2,note_on,50,0,40
2,note_on,54,39,120
2,note_on,52,0,40
2,note_on,54,0,120
2,note_on,45,43,0
2,note_on,49,36,160
2,note_on,45,0,40
2,note_on,50,34,120
2,note_on,49,0,40
2,note_on,52,38,120
2,note_on,50,0,40
2,note_on,53,34,120
2,note_on,52,0,40
2,note_on,54,38,120
2,note_on,53,0,40
2,note_on,54,0,120
2,note_on,57,43,0
2,note_on,56,37,160
2,note_on,57,0,40
2,note_on,55,34,120
2,note_on,56,0,40
2,note_on,54,39,120
2,note_on,55,0,40
2,note_on,51,36,120
2,note_on,54,0,40
2,note_on,48,37,120
2,note_on,51,0,40
2,note_on,48,0,120
2,note_on,54,41,0
2,note_on,51,36,160
2,note_on,54,0,40
2,note_on,48,36,120
2,note_on,51,0,40
2,note_on,46,38,120
2,note_on,48,0,40
2,note_on,45,37,120
2,note_on,46,0,40
2,note_on,44,36,120
2,note_on,45,0,40
2,note_on,44,0,120
2,note_on,43,39,0
2,note_on,44,33,160
2,note_on,43,0,40
2,note_on,45,33,120
2,note_on,44,0,40
2,note_on,41,35,120
2,note_on,45,0,40
2,note_on,42,33,120
2,note_on,41,0,40
2,note_on,44,33,120
2,note_on,42,0,40
2,note_on,44,0,120
2,note_on,40,37,0
2,note_on,41,32,160
2,note_on,40,0,40
2,note_on,42,31,120
2,note_on,41,0,40
2,note_on,38,30,120
2,note_on,42,0,40
2,note_on,39,30,120
2,note_on,38,0,40
2,note_on,41,30,120
2,note_on,39,0,40
2,note_on,41,0,120
2,note_on,31,32,0
2,note_on,32,28,160
2,note_on,31,0,40
2,note_on,34,28,120
2,note_on,32,0,40
2,note_on,36,30,120
2,note_on,34,0,40
2,note_on,37,32,120
2,note_on,36,0,40
2,note_on,39,32,120
2,note_on,37,0,40
2,note_on,39,0,120
2,note_on,41,34,0
2,note_on,42,34,160
2,note_on,41,0,40
2,note_on,43,34,120
2,note_on,42,0,40
2,note_on,44,37,120
2,note_on,43,0,40
2,note_on,41,34,120
2,note_on,44,0,40
2,note_on,46,34,120
2,note_on,41,0,40
2,note_on,46,0,120
2,note_on,44,39,0
2,note_on,53,41,160
2,note_on,44,0,40
2,note_on,51,39,120
2,note_on,53,0,40
2,note_on,49,41,120
2,note_on,51,0,40
2,note_on,48,38,120
2,note_on,49,0,40
2,note_on,46,39,120
2,note_on,48,0,40
2,note_on,46,0,120
2,note_on,44,38,0
2,note_on,41,36,160
2,note_on,44,0,40
2,note_on,42,36,120
2,note_on,41,0,40
2,note_on,44,39,120
2,note_on,42,0,40
2,note_on,41,38,120
2,note_on,44,0,40
2,note_on,46,38,120
2,note_on,41,0,40
2,note_on,46,0,120
2,note_on,44,43,0
2,note_on,39,37,160
2,note_on,44,0,40
2,note_on,41,37,120
2,note_on,39,0,40
2,note_on,42,38,120
2,note_on,41,0,40
2,note_on,39,36,120
2,note_on,42,0,40
2,note_on,46,45,120
2,note_on,39,0,40
2,note_on,46,0,120
2,note_on,44,43,0
2,note_on,37,39,160
2,note_on,44,0,40
2,note_on,39,39,120
2,note_on,37,0,40
2,note_on,41,43,120
2,note_on,39,0,40
2,note_on,37,39,120
2,note_on,41,0,40
2,note_on,46,45,120
2,note_on,37,0,40
2,note_on,46,0,120
2,note_on,44,43,0
2,note_on,36,37,160
2,note_on,44,0,40
2,note_on,37,37,120
2,note_on,36,0,40
2,note_on,39,39,120
2,note_on,37,0,40
2,note_on,36,36,120
2,note_on,39,0,40
2,note_on,41,42,120
2,note_on,36,0,40
2,note_on,41,0,120
2,note_on,39,40,0
2,note_on,34,39,160
2,note_on,39,0,40
2,note_on,41,39,120
2,note_on,34,0,40
2,note_on,39,43,120
2,note_on,41,0,40
2,note_on,32,39,120
2,note_on,39,0,40
2,note_on,34,39,120
2,note_on,32,0,40
2,note_on,34,0,120
2,note_on,32,43,0
2,note_on,37,34,160
2,note_on,32,0,40
2,note_on,39,35,120
2,note_on,37,0,40
2,note_on,41,36,120
2,note_on,39,0,40
2,note_on,42,38,120
2,note_on,41,0,40
2,note_on,44,39,120
2,note_on,42,0,40
2,note_on,44,0,120
2,note_on,46,40,0
2,note_on,48,43,160
2,note_on,46,0,40
2,note_on,49,40,120
2,note_on,48,0,40
2,note_on,51,45,120
2,note_on,49,0,40
2,note_on,53,42,120
2,note_on,51,0,40
2,note_on,54,47,120
2,note_on,53,0,40
2,note_on,54,0,120
2,note_on,56,50,0
2,note_on,65,51,160
2,note_on,56,0,40
2,note_on,63,48,120
2,note_on,65,0,40
2,note_on,61,47,120
2,note_on,63,0,40
2,note_on,60,45,120
2,note_on,61,0,40
2,note_on,58,45,120
2,note_on,60,0,40
2,note_on,58,0,120
2,note_on,56,47,0
2,note_on,53,43,160
2,note_on,56,0,40
2,note_on,54,43,120
2,note_on,53,0,40
2,note_on,56,44,120
2,note_on,54,0,40
2,note_on,53,43,120
2,note_on,56,0,40
2,note_on,58,43,120
2,note_on,53,0,40
2,note_on,58,0,120
2,note_on,56,47,0
2,note_on,51,40,160
2,note_on,56,0,40
2,note_on,53,40,120
2,note_on,51,0,40
2,note_on,54,45,120
2,note_on,53,0,40
2,note_on,51,43,120
2,note_on,54,0,40
2,note_on,58,43,120
2,note_on,51,0,40
2,note_on,58,0,120
2,note_on,56,44,0
2,note_on,49,39,160
2,note_on,56,0,40
2,note_on,51,39,120
2,note_on,49,0,40
2,note_on,53,43,120
2,note_on,51,0,40
2,note_on,49,41,120
2,note_on,53,0,40
2,note_on,58,47,120
2,note_on,49,0,40
2,note_on,58,0,120
2,note_on,56,44,0
2,note_on,48,40,160
2,note_on,56,0,40
2,note_on,49,34,120
2,note_on,48,0,40
2,note_on,51,40,120
2,note_on,49,0,40
2,note_on,48,39,120
2,note_on,51,0,40
2,note_on,53,36,120
2,note_on,48,0,40
2,note_on,53,0,120
2,note_on,51,43,0
2,note_on,46,39,160
2,note_on,51,0,40
2,note_on,53,39,120
2,note_on,46,0,40
2,note_on,51,41,120
2,note_on,53,0,40
2,note_on,44,40,120
2,note_on,51,0,40
2,note_on,53,41,120
2,note_on,44,0,40
2,note_on,53,0,120
2,note_on,54,45,0
2,note_on,53,41,160
2,note_on,54,0,40
2,note_on,51,43,120
2,note_on,53,0,40
2,note_on,49,41,120
2,note_on,51,0,40
2,note_on,48,40,120
2,note_on,49,0,40
2,note_on,46,37,120
2,note_on,48,0,40
2,note_on,46,0,120
2,note_on,45,45,0
2,note_on,53,39,160
2,note_on,45,0,160
2,note_on,48,39,0
2,note_on,53,0,40
2,note_on,51,41,120
2,note_on,48,0,40
2,note_on,49,39,120
2,note_on,51,0,40
2,note_on,46,39,120
2,note_on,49,0,40
2,note_on,46,0,120
2,note_on,45,45,0
2,note_on,53,39,160
2,note_on,45,0,160
2,note_on,48,39,0
2,note_on,53,0,40
2,note_on,51,39,120
2,note_on,48,0,40
2,note_on,49,36,120
2,note_on,51,0,40
2,note_on,46,37,120
2,note_on,49,0,40
2,note_on,46,0,120
2,note_on,45,45,0
2,note_on,53,39,160
2,note_on,45,0,160
2,note_on,48,39,0
2,note_on,53,0,40
2,note_on,51,41,120
2,note_on,48,0,40
2,note_on,49,39,120
2,note_on,51,0,40
2,note_on,46,38,120
2,note_on,49,0,40
2,note_on,46,0,120
2,note_on,56,45,0
2,note_on,55,39,160
2,note_on,56,0,40
2,note_on,53,37,120
2,note_on,55,0,40
2,note_on,51,41,120
2,note_on,53,0,40
2,note_on,50,38,120
2,note_on,51,0,40
2,note_on,48,39,120
2,note_on,50,0,40
2,note_on,48,0,120
2,note_on,47,42,0
2,note_on,55,39,160
2,note_on,47,0,160
2,note_on,50,36,0
2,note_on,55,0,40
2,note_on,53,39,120
2,note_on,50,0,40
2,note_on,51,39,120
2,note_on,53,0,40
2,note_on,48,39,120
2,note_on,51,0,40
2,note_on,48,0,120
2,note_on,47,43,0
2,note_on,55,39,160
2,note_on,47,0,160
2,note_on,50,37,0
2,note_on,55,0,40
2,note_on,53,43,120
2,note_on,50,0,40
2,note_on,51,39,120
2,note_on,53,0,40
2,note_on,48,39,120
2,note_on,51,0,40
2,note_on,48,0,120
2,note_on,47,45,0
2,note_on,55,39,160
2,note_on,47,0,160
2,note_on,50,36,0
2,note_on,55,0,40
2,note_on,53,43,120
2,note_on,50,0,40
2,note_on,51,39,120
2,note_on,53,0,40
2,note_on,48,39,120
2,note_on,51,0,40
2,note_on,48,0,120
2,note_on,61,56,0
2,note_on,60,49,103
2,note_on,61,0,40
2,note_on,58,47,120
2,note_on,60,0,40
2,note_on,56,47,120
2,note_on,58,0,40
2,note_on,55,46,120
2,note_on,56,0,40
2,note_on,53,46,120
2,note_on,55,0,40
2,note_on,53,0,120
2,note_on,58,51,0
2,note_on,52,46,91
2,note_on,58,0,40
2,note_on,55,45,51
2,note_on,52,0,40
2,note_on,49,47,120
2,note_on,55,0,40
2,note_on,52,46,80
2,note_on,49,0,40
2,note_on,48,44,120
2,note_on,52,0,40
2,note_on,48,0,120
2,note_on,61,56,0
2,note_on,60,47,63
2,note_on,61,0,40
2,note_on,58,50,120
2,note_on,60,0,40
2,note_on,56,49,120
2,note_on,58,0,40
2,note_on,55,47,120
2,note_on,56,0,40
2,note_on,53,47,120
2,note_on,55,0,40
2,note_on,53,0,120
2,note_on,58,52,0
2,note_on,52,46,82
2,note_on,58,0,40
2,note_on,55,47,120
2,note_on,52,0,40
2,note_on,55,0,120
2,note_on,49,46,0
2,note_on,52,46,103
2,note_on,49,0,40
2,note_on,48,45,120
2,note_on,52,0,40
2,note_on,48,0,120
2,note_on,58,49,0
2,note_on,52,45,153
2,note_on,58,0,40
2,note_on,55,45,120
2,note_on,52,0,40
2,note_on,49,43,120
2,note_on,55,0,40
2,note_on,52,40,120
2,note_on,49,0,40
2,note_on,48,40,120
2,note_on,52,0,40
2,note_on,48,0,120
2,note_on,55,48,0
2,note_on,49,43,160
2,note_on,55,0,40
2,note_on,52,42,120
2,note_on,49,0,40
2,note_on,48,41,120
2,note_on,52,0,40
2,note_on,52,40,120
2,note_on,48,0,40
2,note_on,46,40,120
2,note_on,52,0,40
2,note_on,46,0,120
2,note_on,52,50,0
2,note_on,46,42,160
2,note_on,52,0,40
2,note_on,49,41,120
2,note_on,46,0,40
2,note_on,45,44,120
2,note_on,49,0,40
2,note_on,46,41,120
2,note_on,45,0,40
2,note_on,44,42,120
2,note_on,46,0,40
2,note_on,44,0,120
2,note_on,49,43,0
2,note_on,44,40,160
2,note_on,49,0,40
2,note_on,46,40,120
2,note_on,44,0,40
2,note_on,43,42,120
2,note_on,46,0,40
2,note_on,46,40,120
2,note_on,43,0,40
2,note_on,42,34,120
2,note_on,46,0,40
2,note_on,42,0,120
2,note_on,41,43,0
2,note_on,43,39,160
2,note_on,41,0,40
2,note_on,46,38,120
2,note_on,43,0,40
2,note_on,49,39,120
2,note_on,46,0,40
2,note_on,40,38,120
2,note_on,49,0,40
2,note_on,43,39,120
2,note_on,40,0,40
2,note_on,43,0,120
2,note_on,41,43,0
2,note_on,43,39,160
2,note_on,41,0,40
2,note_on,46,38,120
2,note_on,43,0,40
2,note_on,49,39,120
2,note_on,46,0,40
2,note_on,40,38,120
2,note_on,49,0,40
2,note_on,43,39,120
2,note_on,40,0,40
2,note_on,43,0,104
2,note_on,43,45,16
2,note_on,45,38,160
2,note_on,43,0,40
2,note_on,48,39,120
2,note_on,45,0,40
2,note_on,51,39,120
2,note_on,48,0,40
2,note_on,42,38,120
2,note_on,51,0,40
2,note_on,45,40,120
2,note_on,42,0,40
2,note_on,45,0,120
2,note_on,43,45,0
2,note_on,45,39,160
2,note_on,43,0,40
2,note_on,48,39,120
2,note_on,45,0,40
2,note_on,51,41,120
2,note_on,48,0,40
2,note_on,42,42,120
2,note_on,51,0,40
2,note_on,45,39,120
2,note_on,42,0,40
2,note_on,45,0,120
2,note_on,46,46,0
2,note_on,48,39,160
2,note_on,46,0,40
2,note_on,51,40,120
2,note_on,48,0,40
2,note_on,54,41,120
2,note_on,51,0,40
2,note_on,45,40,120
2,note_on,54,0,40
2,note_on,48,38,120
2,note_on,45,0,40
2,note_on,48,0,120
2,note_on,49,42,0
2,note_on,51,41,160
2,note_on,49,0,40
2,note_on,54,40,120
2,note_on,51,0,40
2,note_on,57,42,120
2,note_on,54,0,40
2,note_on,48,41,120
2,note_on,57,0,40
2,note_on,51,42,120
2,note_on,48,0,40
2,note_on,51,0,120
2,note_on,49,46,0
2,note_on,51,41,160
2,note_on,49,0,40
2,note_on,54,40,120
2,note_on,51,0,40
2,note_on,57,40,120
2,note_on,54,0,40
2,note_on,48,41,120
2,note_on,57,0,40
2,note_on,51,42,120
2,note_on,48,0,40
2,note_on,51,0,120
2,note_on,54,47,0
2,note_on,58,43,160
2,note_on,54,0,40
2,note_on,60,44,120
2,note_on,58,0,40
2,note_on,63,45,120
2,note_on,60,0,40
2,note_on,53,45,120
2,note_on,63,0,40
2,note_on,57,46,120
2,note_on,53,0,40
2,note_on,57,0,120
2,note_on,58,55,0
2,note_on,61,46,160
2,note_on,58,0,40
2,note_on,66,46,120
2,note_on,61,0,40
2,note_on,65,48,120
2,note_on,66,0,40
2,note_on,60,45,120
2,note_on,65,0,40
2,note_on,61,46,120
2,note_on,60,0,40
2,note_on,61,0,120
2,note_on,64,52,0
2,note_on,60,48,160
2,note_on,64,0,160
2,note_on,61,46,0
2,note_on,60,0,40
2,note_on,57,47,120
2,note_on,61,0,40
2,note_on,58,46,120
2,note_on,57,0,160
2,note_on,54,43,0
2,note_on,58,0,40
2,note_on,54,0,120
2,note_on,52,47,0
2,note_on,53,43,160
2,note_on,52,0,160
2,note_on,58,43,0
2,note_on,53,0,40
2,note_on,58,0,120
2,note_on,56,45,0
2,note_on,57,43,160
2,note_on,56,0,160
2,note_on,61,43,0
2,note_on,57,0,40
2,note_on,61,0,120
2,note_on,57,48,0
2,note_on,58,46,160
2,note_on,57,0,160
2,note_on,61,47,0
2,note_on,58,0,40
2,note_on,61,0,120
2,note_on,59,50,0
2,note_on,60,47,160
2,note_on,59,0,160
2,note_on,65,44,0
2,note_on,60,0,40
2,note_on,65,0,120
2,note_on,56,55,0
2,note_on,59,50,160
2,note_on,56,0,40
2,note_on,64,47,120
2,note_on,59,0,40
2,note_on,63,52,120
2,note_on,64,0,40
2,note_on,58,49,120
2,note_on,63,0,40
2,note_on,59,43,120
2,note_on,58,0,40
2,note_on,59,0,120
2,note_on,62,52,0
2,note_on,58,47,160
2,note_on,62,0,160
2,note_on,59,45,0
2,note_on,58,0,40
2,note_on,55,49,120
2,note_on,59,0,40
2,note_on,56,43,120
2,note_on,55,0,160
2,note_on,52,43,0
2,note_on,56,0,40
2,note_on,52,0,120
2,note_on,50,47,0
2,note_on,51,43,160
2,note_on,50,0,160
2,note_on,56,43,0
2,note_on,51,0,40
2,note_on,56,0,120
2,note_on,52,48,0
2,note_on,53,45,160
2,note_on,52,0,160
2,note_on,59,45,0
2,note_on,53,0,40
2,note_on,59,0,120
2,note_on,53,50,0
2,note_on,54,46,160
2,note_on,53,0,160
2,note_on,59,47,0
2,note_on,54,0,40
2,note_on,59,0,120
2,note_on,57,51,0
2,note_on,58,47,160
2,note_on,57,0,160
2,note_on,63,49,0
2,note_on,58,0,40
2,note_on,63,0,120
2,note_on,61,54,0
2,note_on,60,45,160
2,note_on,61,0,40
2,note_on,59,39,120
2,note_on,60,0,40
2,note_on,58,47,120
2,note_on,59,0,40
2,note_on,57,44,120
2,note_on,58,0,40
2,note_on,65,45,120
2,note_on,57,0,40
2,note_on,65,0,120
2,note_on,63,54,0
2,note_on,62,45,160
2,note_on,63,0,40
2,note_on,61,45,120
2,note_on,62,0,40
2,note_on,60,48,120
2,note_on,61,0,40
2,note_on,58,45,120
2,note_on,60,0,40
2,note_on,66,48,120
2,note_on,58,0,40
2,note_on,66,0,120
2,note_on,65,56,0
2,note_on,63,50,160
2,note_on,65,0,40
2,note_on,62,47,120
2,note_on,63,0,40
2,note_on,61,51,120
2,note_on,62,0,40
2,note_on,60,49,120
2,note_on,61,0,40
2,note_on,69,53,120
2,note_on,60,0,40
2,note_on,69,0,120
2,note_on,60,57,0
2,note_on,61,52,160
2,note_on,60,0,160
2,note_on,70,52,0
2,note_on,61,0,40
2,note_on,70,0,120
2,note_on,62,60,0
2,note_on,63,52,160
2,note_on,62,0,160
2,note_on,70,56,0
2,note_on,63,0,40
2,note_on,70,0,120
2,note_on,72,61,0
2,note_on,70,51,160
2,note_on,72,0,40
2,note_on,68,47,120
2,note_on,70,0,40
2,note_on,66,52,120
2,note_on,68,0,40
2,note_on,65,49,120
2,note_on,66,0,40
2,note_on,64,49,120
2,note_on,65,0,40
2,note_on,64,0,120
2,note_on,72,61,0
2,note_on,70,52,160
2,note_on,72,0,40
2,note_on,68,47,120
2,note_on,70,0,40
2,note_on,66,53,120
2,note_on,68,0,40
2,note_on,65,48,120
2,note_on,66,0,40
2,note_on,64,49,120
2,note_on,65,0,40
2,note_on,64,0,120
2,note_on,66,56,0
2,note_on,65,48,160
2,note_on,66,0,40
2,note_on,64,47,120
2,note_on,65,0,40
2,note_on,63,51,120
2,note_on,64,0,40
2,note_on,62,47,120
2,note_on,63,0,40
2,note_on,61,46,120
2,note_on,62,0,40
2,note_on,61,0,120
2,note_on,63,49,0
2,note_on,59,45,160
2,note_on,63,0,40
2,note_on,60,42,120
2,note_on,59,0,40
2,note_on,61,43,120
2,note_on,60,0,40
2,note_on,57,40,120
2,note_on,61,0,40
2,note_on,58,42,120
2,note_on,57,0,40
2,note_on,58,0,120
2,note_on,60,45,0
2,note_on,55,37,160
2,note_on,60,0,160
2,note_on,56,38,0
2,note_on,55,0,40
2,note_on,59,39,120
2,note_on,56,0,40
2,note_on,54,35,120
2,note_on,59,0,160
2,note_on,63,31,0
2,note_on,54,0,40
2,note_on,63,0,120
2,note_on,58,39,0
2,note_on,53,35,160
2,note_on,58,0,160
2,note_on,54,37,0
2,note_on,53,0,40
2,note_on,57,39,120
2,note_on,54,0,40
2,note_on,52,34,120
2,note_on,57,0,160
2,note_on,61,32,0
2,note_on,52,0,40
2,note_on,61,0,120
2,note_on,56,43,0
2,note_on,51,36,160
2,note_on,56,0,160
2,note_on,52,36,0
2,note_on,51,0,40
2,note_on,55,37,120
2,note_on,52,0,40
2,note_on,50,34,120
2,note_on,55,0,160
2,note_on,59,31,0
2,note_on,50,0,40
2,note_on,59,0,120
2,note_on,54,39,0
2,note_on,49,34,160
2,note_on,54,0,160
2,note_on,50,34,0
2,note_on,49,0,40
2,note_on,53,36,120
2,note_on,50,0,40
2,note_on,48,32,120
2,note_on,53,0,160
2,note_on,57,32,0
2,note_on,48,0,40
2,note_on,57,0,120
2,note_on,62,41,0
2,note_on,57,35,160
2,note_on,62,0,160
2,note_on,58,38,0
2,note_on,57,0,40
2,note_on,61,41,120
2,note_on,58,0,40
2,note_on,56,35,120
2,note_on,61,0,160
2,note_on,65,30,0
2,note_on,56,0,40
2,note_on,65,0,120
2,note_on,60,40,0
2,note_on,55,35,160
2,note_on,60,0,160
2,note_on,56,35,0
2,note_on,55,0,40
2,note_on,59,36,120
2,note_on,56,0,40
2,note_on,54,35,120
2,note_on,59,0,160
2,note_on,63,32,0
2,note_on,54,0,40
2,note_on,63,0,120
2,note_on,58,39,0
2,note_on,53,33,160
2,note_on,58,0,160
2,note_on,54,34,0
2,note_on,53,0,40
2,note_on,57,35,120
2,note_on,54,0,40
2,note_on,52,32,120
2,note_on,57,0,160
2,note_on,61,32,0
2,note_on,52,0,40
2,note_on,61,0,120
2,note_on,56,37,0
2,note_on,51,33,160
2,note_on,56,0,160
2,note_on,52,34,0
2,note_on,51,0,40
2,note_on,55,36,120
2,note_on,52,0,40
2,note_on,50,33,120
2,note_on,55,0,160
2,note_on,59,35,0
2,note_on,50,0,40
2,note_on,59,0,120
2,note_on,64,45,0
2,note_on,59,33,160
2,note_on,64,0,160
2,note_on,60,38,0
2,note_on,59,0,40
2,note_on,63,38,120
2,note_on,60,0,40
2,note_on,58,32,120
2,note_on,63,0,160
2,note_on,67,36,0
2,note_on,58,0,40
2,note_on,67,0,120
2,note_on,62,40,0
2,note_on,57,32,160
2,note_on,62,0,160
2,note_on,58,35,0
2,note_on,57,0,40
2,note_on,61,35,120
2,note_on,58,0,40
2,note_on,56,32,120
2,note_on,61,0,160
2,note_on,65,32,0
2,note_on,56,0,40
2,note_on,65,0,120
2,note_on,60,41,0
2,note_on,55,32,160
2,note_on,60,0,160
2,note_on,56,33,0
2,note_on,55,0,40
2,note_on,59,34,120
2,note_on,56,0,40
2,note_on,54,31,120
2,note_on,59,0,160
2,note_on,63,31,0
2,note_on,54,0,40
2,note_on,63,0,120
2,note_on,58,39,0
2,note_on,53,31,160
2,note_on,58,0,160
2,note_on,63,33,0
2,note_on,53,0,40
2,note_on,58,34,120
2,note_on,63,0,40
2,note_on,53,29,120
2,note_on,58,0,160
2,note_on,61,32,0
2,note_on,53,0,40
2,note_on,61,0,120
2,note_on,54,41,0
2,note_on,53,35,160
2,note_on,54,0,40
2,note_on,52,33,120
2,note_on,53,0,40
2,note_on,51,36,120
2,note_on,52,0,40
2,note_on,49,35,120
2,note_on,51,0,40
2,note_on,48,35,120
2,note_on,49,0,40
2,note_on,48,0,120
2,note_on,54,41,0
2,note_on,53,35,160
2,note_on,54,0,40
2,note_on,51,35,120
2,note_on,53,0,40
2,note_on,49,38,120
2,note_on,51,0,40
2,note_on,48,37,120
2,note_on,49,0,40
2,note_on,46,35,120
2,note_on,48,0,40
2,note_on,46,0,120
2,note_on,54,41,0
2,note_on,53,38,160
2,note_on,54,0,40
2,note_on,51,35,120
2,note_on,53,0,40
2,note_on,49,38,120
2,note_on,51,0,40
2,note_on,48,37,120
2,note_on,49,0,40
2,note_on,47,35,120
2,note_on,48,0,40
2,note_on,47,0,120
2,note_on,54,41,0
2,note_on,53,38,160
2,note_on,54,0,40
2,note_on,51,35,120
2,note_on,53,0,40
2,note_on,49,38,120
2,note_on,51,0,40
2,note_on,47,37,120
2,note_on,49,0,40
2,note_on,46,35,120
2,note_on,47,0,40
2,note_on,46,0,120
2,note_on,45,38,0
2,note_on,46,36,160
2,note_on,45,0,40
2,note_on,48,36,120
2,note_on,46,0,40
2,note_on,51,35,120
2,note_on,48,0,40
2,note_on,49,34,120
2,note_on,51,0,40
2,note_on,45,34,120
2,note_on,49,0,40
2,note_on,45,0,120
2,note_on,48,38,0
2,note_on,46,34,160
2,note_on,48,0,40
2,note_on,41,34,120
2,note_on,46,0,40
2,note_on,44,34,120
2,note_on,41,0,40
2,note_on,42,34,120
2,note_on,44,0,40
2,note_on,41,34,120
2,note_on,42,0,40
2,note_on,41,0,120
2,note_on,39,38,0
2,note_on,41,36,160
2,note_on,39,0,40
2,note_on,42,36,120
2,note_on,41,0,40
2,note_on,46,36,120
2,note_on,42,0,40
2,note_on,44,34,120
2,note_on,46,0,40
2,note_on,42,34,120
2,note_on,44,0,40
2,note_on,42,0,120
2,note_on,41,37,0
2,note_on,37,34,160
2,note_on,41,0,40
2,note_on,39,34,120
2,note_on,37,0,40
2,note_on,41,36,120
2,note_on,39,0,40
2,note_on,40,34,120
2,note_on,41,0,40
2,note_on,41,34,120
2,note_on,40,0,40
2,note_on,41,0,120
2,note_on,42,37,0
2,note_on,41,33,160
2,note_on,42,0,40
2,note_on,40,33,120
2,note_on,41,0,40
2,note_on,39,33,120
2,note_on,40,0,40
2,note_on,37,30,120
2,note_on,39,0,40
2,note_on,36,31,120
2,note_on,37,0,40
2,note_on,36,0,120
2,note_on,42,37,0
2,note_on,41,33,160
2,note_on,42,0,40
2,note_on,39,33,120
2,note_on,41,0,40
2,note_on,37,33,120
2,note_on,39,0,40
2,note_on,36,30,120
2,note_on,37,0,40
2,note_on,34,31,120
2,note_on,36,0,40
2,note_on,34,0,120
2,note_on,42,37,0
2,note_on,41,33,160
2,note_on,42,0,40
2,note_on,39,33,120
2,note_on,41,0,40
2,note_on,37,33,120
2,note_on,39,0,40
2,note_on,36,30,120
2,note_on,37,0,40
2,note_on,35,31,120
2,note_on,36,0,40
2,note_on,35,0,120
2,note_on,42,37,0
2,note_on,41,33,160
2,note_on,42,0,40
2,note_on,39,33,120
2,note_on,41,0,40
2,note_on,37,33,120
2,note_on,39,0,40
2,note_on,35,30,120
2,note_on,37,0,40
2,note_on,34,31,120
2,note_on,35,0,40
2,note_on,34,0,120
2,note_on,33,34,0
2,note_on,34,30,160
2,note_on,33,0,40
2,note_on,35,31,120
2,note_on,34,0,40
2,note_on,37,38,120
2,note_on,35,0,40
2,note_on,39,33,120
2,note_on,37,0,40
2,note_on,41,34,120
2,note_on,39,0,40
2,note_on,41,0,120
2,note_on,42,41,0
2,note_on,44,38,109
2,note_on,42,0,40
2,note_on,46,39,120
2,note_on,44,0,40
2,note_on,47,45,120
2,note_on,46,0,40
2,note_on,49,43,120
2,note_on,47,0,40
2,note_on,51,43,120
2,note_on,49,0,40
2,note_on,51,0,120
2,note_on,53,49,0
2,note_on,52,45,142
2,note_on,53,0,40
2,note_on,49,39,120
2,note_on,52,0,40
2,note_on,48,40,120
2,note_on,49,0,40
2,note_on,46,41,120
2,note_on,48,0,40
2,note_on,42,37,120
2,note_on,46,0,40
2,note_on,42,0,120
2,note_on,41,41,0
2,note_on,40,36,160
2,note_on,41,0,40
2,note_on,37,33,120
2,note_on,40,0,40
2,note_on,36,36,120
2,note_on,37,0,40
2,note_on,34,30,120
2,note_on,36,0,40
2,note_on,30,30,120
2,note_on,34,0,40
2,note_on,30,0,120
2,note_on,29,33,0
2,note_on,34,28,160
2,note_on,29,0,160
2,note_on,32,28,0
2,note_on,34,0,40
2,note_on,33,29,120
2,note_on,32,0,40
2,note_on,37,28,120
2,note_on,33,0,160
2,note_on,33,28,0
2,note_on,37,0,40
2,note_on,33,0,120
2,note_on,34,34,0
2,note_on,39,31,160
2,note_on,34,0,160
2,note_on,35,31,0
2,note_on,39,0,40
2,note_on,36,36,120
2,note_on,35,0,40
2,note_on,41,33,120
2,note_on,36,0,160
2,note_on,36,33,0
2,note_on,41,0,40
2,note_on,36,0,120
2,note_on,37,36,0
2,note_on,42,33,160
2,note_on,37,0,160
2,note_on,38,33,0
2,note_on,42,0,40
2,note_on,39,34,120
2,note_on,38,0,40
2,note_on,45,33,120
2,note_on,39,0,160
2,note_on,41,33,0
2,note_on,45,0,40
2,note_on,41,0,120
2,note_on,42,34,0
2,note_on,49,34,160
2,note_on,42,0,160
2,note_on,45,33,0
2,note_on,49,0,40
2,note_on,48,34,120
2,note_on,45,0,40
2,note_on,54,35,120
2,note_on,48,0,160
2,note_on,53,34,0
2,note_on,54,0,40
2,note_on,53,0,120
2,note_on,45,38,0
2,note_on,49,33,160
2,note_on,45,0,160
2,note_on,45,34,0
2,note_on,49,0,40
2,note_on,48,36,120
2,note_on,45,0,40
2,note_on,54,36,120
2,note_on,48,0,160
2,note_on,53,36,0
2,note_on,54,0,40
2,note_on,53,0,120
2,note_on,45,38,0
2,note_on,49,33,160
2,note_on,45,0,160
2,note_on,45,34,0
2,note_on,49,0,40
2,note_on,48,34,120
2,note_on,45,0,40
2,note_on,54,36,120
2,note_on,48,0,160
2,note_on,53,36,0
2,note_on,54,0,40
2,note_on,53,0,120
2,note_on,48,39,0
2,note_on,54,36,160
2,note_on,48,0,160
2,note_on,53,34,0
2,note_on,54,0,40
2,note_on,48,34,120
2,note_on,53,0,40
2,note_on,54,36,120
2,note_on,48,0,160
2,note_on,53,34,0
2,note_on,54,0,40
2,note_on,53,0,120
2,note_on,48,38,0
2,note_on,54,36,160
2,note_on,48,0,160
2,note_on,53,34,0
2,note_on,54,0,40
2,note_on,46,37,120
2,note_on,53,0,40
2,note_on,54,36,120
2,note_on,46,0,160
2,note_on,53,36,0
2,note_on,54,0,40
2,note_on,53,0,120
2,note_on,49,38,0
2,note_on,41,30,160
2,note_on,49,0,160
2,note_on,51,33,0
2,note_on,41,0,40
2,note_on,53,34,120
2,note_on,51,0,40
2,note_on,51,34,120
2,note_on,53,0,40
2,note_on,49,34,120
2,note_on,51,0,40
2,note_on,49,0,120
2,note_on,46,37,0
2,note_on,41,33,160
2,note_on,46,0,40
2,note_on,48,33,120
2,note_on,41,0,40
2,note_on,49,34,120
2,note_on,48,0,40
2,note_on,48,33,120
2,note_on,49,0,40
2,note_on,46,34,120
2,note_on,48,0,40
2,note_on,46,0,120
2,note_on,49,38,0
2,note_on,41,33,160
2,note_on,49,0,40
2,note_on,51,33,120
2,note_on,41,0,40
2,note_on,53,34,120
2,note_on,51,0,40
2,note_on,51,34,120
2,note_on,53,0,40
2,note_on,49,34,120
2,note_on,51,0,40
2,note_on,49,0,120
2,note_on,46,37,0
2,note_on,41,33,160
2,note_on,46,0,40
2,note_on,48,33,120
2,note_on,41,0,40
2,note_on,49,37,120
2,note_on,48,0,40
2,note_on,48,34,120
2,note_on,49,0,40
2,note_on,46,34,120
2,note_on,48,0,40
2,note_on,46,0,120
2,note_on,39,37,0
2,note_on,41,33,160
2,note_on,39,0,40
2,note_on,46,28,120
2,note_on,41,0,40
2,note_on,49,29,120
2,note_on,46,0,40
2,note_on,49,0,114
2,note_on,37,29,6
2,note_on,41,29,160
2,note_on,37,0,40
2,note_on,41,0,120
2,note_on,39,37,0
2,note_on,41,33,160
2,note_on,39,0,40
2,note_on,46,28,120
2,note_on,41,0,40
2,note_on,49,30,120
2,note_on,46,0,40
2,note_on,49,0,116
2,note_on,37,29,4
2,note_on,41,29,160
2,note_on,37,0,40
2,note_on,41,0,120
2,note_on,36,37,0
2,note_on,37,33,160
2,note_on,36,0,40
2,note_on,41,28,120
2,note_on,37,0,40
2,note_on,46,30,120
2,note_on,41,0,40
2,note_on,46,0,120
2,note_on,34,29,0
2,note_on,37,29,160
2,note_on,34,0,40
2,note_on,37,0,120
2,note_on,36,37,0
2,note_on,37,33,160
2,note_on,36,0,40
2,note_on,41,28,120
2,note_on,37,0,40
2,note_on,46,30,120
2,note_on,41,0,40
2,note_on,46,0,120
2,note_on,34,29,0
2,note_on,37,29,160
2,note_on,34,0,40
2,note_on,37,0,120
2,note_on,36,37,960
2,note_on,37,33,160
2,note_on,36,0,40
2,note_on,41,28,120
2,note_on,37,0,40
2,note_on,46,29,120
2,note_on,41,0,40
2,note_on,46,0,114
2,note_on,34,29,6
2,note_on,37,29,160
2,note_on,34,0,40
2,note_on,37,0,120
2,note_on,36,48,960
2,note_on,37,43,160
2,note_on,36,0,40
2,note_on,41,39,120
2,note_on,37,0,40
2,note_on,46,40,120
2,note_on,41,0,40
2,note_on,46,0,115
2,note_on,34,40,5
2,note_on,37,41,160
2,note_on,34,0,40
2,note_on,37,0,120
2,note_on,34,78,0
2,note_on,34,0,213
2,note_on,53,66,480
2,note_on,65,79,0
2,note_on,61,66,0
2,note_on,58,66,0
2,note_on,58,0,960
2,note_on,53,0,0
2,note_on,65,0,0
2,note_on,61,0,0
