Track,Message Type,Note,Velocity,Time
1,note_on,53,34,0
1,note_on,58,40,0
1,note_on,58,0,480
1,note_on,53,0,0
1,note_on,54,34,0
1,note_on,58,40,0
1,note_on,58,0,360
1,note_on,58,36,0
1,note_on,58,0,120
1,note_on,54,0,0
1,note_on,53,34,0
1,note_on,58,40,0
1,note_on,53,0,480
1,note_on,54,28,0
1,note_on,54,0,480
1,note_on,58,0,0
1,note_on,53,34,0
1,note_on,58,40,0
1,note_on,58,0,480
1,note_on,53,0,0
1,note_on,54,34,0
1,note_on,58,40,0
1,note_on,58,0,360
1,note_on,58,36,0
1,note_on,58,0,120
1,note_on,54,0,0
1,note_on,53,34,0
1,note_on,58,40,0
1,note_on,53,0,480
1,note_on,54,28,0
1,note_on,54,0,480
1,note_on,58,0,0
1,note_on,53,34,0
1,note_on,58,40,0
1,note_on,58,0,480
1,note_on,53,0,0
1,note_on,54,34,0
1,note_on,58,40,0
1,note_on,58,0,360
1,note_on,58,36,0
1,note_on,58,0,108
1,note_on,54,0,12
1,note_on,53,34,0
1,note_on,58,40,0
1,note_on,58,0,480
1,note_on,53,0,0
1,note_on,61,49,0
1,note_on,54,39,0
1,note_on,61,0,360
1,note_on,60,45,0
1,note_on,60,0,108
1,note_on,54,0,12
1,note_on,60,48,0
1,note_on,53,39,0
1,note_on,60,0,360
1,note_on,58,42,0
1,note_on,58,0,108
1,note_on,53,0,12
1,note_on,54,37,0
1,note_on,58,44,0
1,note_on,58,0,360
1,note_on,58,36,0
1,note_on,58,0,108
1,note_on,54,0,12
1,note_on,53,34,0
1,note_on,58,40,0
1,note_on,53,0,480
1,note_on,54,28,0
1,note_on,54,0,480
1,note_on,58,0,0
1,note_on,58,42,0
1,note_on,53,42,0
1,note_on,61,50,0
1,note_on,61,0,480
1,note_on,53,0,0
1,note_on,58,0,0
1,note_on,58,42,0
1,note_on,54,42,0
1,note_on,61,50,0
1,note_on,61,0,360
1,note_on,61,45,0
1,note_on,61,0,108
1,note_on,54,0,12
1,note_on,58,0,0
1,note_on,58,42,0
1,note_on,53,42,0
1,note_on,61,50,0
1,note_on,61,0,480
1,note_on,53,0,0
1,note_on,58,0,0
1,note_on,65,59,0
1,note_on,61,52,0
1,note_on,54,48,0
1,note_on,61,0,360
1,note_on,65,0,0
1,note_on,63,53,0
1,note_on,60,47,0
1,note_on,60,0,60
1,note_on,63,0,0
1,note_on,65,48,0
1,note_on,65,0,60
1,note_on,54,0,0
1,note_on,63,57,0
1,note_on,60,51,0
1,note_on,53,48,0
1,note_on,60,0,360
1,note_on,63,0,0
1,note_on,61,50,0
1,note_on,58,45,0
1,note_on,58,0,108
1,note_on,61,0,0
1,note_on,53,0,12
1,note_on,61,55,0
1,note_on,54,46,0
1,note_on,58,48,0
1,note_on,58,0,360
1,note_on,61,0,0
1,note_on,61,45,0
1,note_on,58,39,0
1,note_on,58,0,108
1,note_on,61,0,0
1,note_on,54,0,12
1,note_on,61,50,0
1,note_on,53,42,0
1,note_on,58,45,0
1,note_on,53,0,480
1,note_on,54,35,0
1,note_on,54,0,480
1,note_on,58,0,0
1,note_on,61,0,0
1,note_on,61,58,0
1,note_on,70,73,0
1,note_on,58,58,0
1,note_on,70,0,240
1,note_on,68,66,0
1,note_on,68,0,180
1,note_on,58,0,0
1,note_on,61,0,0
1,note_on,68,58,0
1,note_on,68,0,60
1,note_on,61,55,0
1,note_on,66,61,0
1,note_on,58,55,0
1,note_on,66,0,360
1,note_on,65,53,0
1,note_on,65,0,108
1,note_on,58,0,12
1,note_on,61,0,0
1,note_on,58,50,0
1,note_on,65,59,0
1,note_on,61,50,0
1,note_on,61,0,480
1,note_on,65,0,0
1,note_on,58,0,0
1,note_on,58,42,0
1,note_on,61,51,0
1,note_on,61,0,480
1,note_on,58,0,0
1,note_on,61,58,0
1,note_on,70,73,0
1,note_on,58,58,0
1,note_on,70,0,240
1,note_on,68,65,0
1,note_on,68,0,180
1,note_on,58,0,0
1,note_on,61,0,0
1,note_on,68,58,0
1,note_on,68,0,60
1,note_on,61,55,0
1,note_on,66,61,0
1,note_on,58,55,0
1,note_on,66,0,360
1,note_on,65,54,0
1,note_on,65,0,108
1,note_on,58,0,12
1,note_on,61,0,0
1,note_on,58,50,0
1,note_on,65,59,0
1,note_on,61,50,0
1,note_on,61,0,480
1,note_on,65,0,0
1,note_on,58,0,0
1,note_on,58,42,0
1,note_on,61,51,0
1,note_on,61,0,480
1,note_on,58,0,0
1,note_on,53,39,0
1,note_on,58,46,0
1,note_on,58,0,480
1,note_on,53,0,0
1,note_on,54,39,0
1,note_on,58,46,0
1,note_on,58,0,360
1,note_on,58,41,0
1,note_on,58,0,108
1,note_on,54,0,12
1,note_on,58,46,0
1,note_on,53,39,0
1,note_on,53,0,480
1,note_on,58,0,0
1,note_on,61,54,0
1,note_on,54,44,0
1,note_on,61,0,360
1,note_on,60,49,0
1,note_on,60,0,60
1,note_on,61,45,0
1,note_on,61,0,60
1,note_on,54,0,0
1,note_on,60,52,0
1,note_on,53,44,0
1,note_on,60,0,360
1,note_on,58,46,0
1,note_on,58,0,108
1,note_on,53,0,12
1,note_on,54,42,0
1,note_on,58,50,0
1,note_on,58,0,360
1,note_on,58,41,0
1,note_on,58,0,108
1,note_on,54,0,12
1,note_on,53,39,0
1,note_on,58,46,0
1,note_on,53,0,480
1,note_on,54,32,0
1,note_on,54,0,480
1,note_on,58,0,0
1,note_on,73,68,0
1,note_on,82,83,0
1,note_on,70,68,0
1,note_on,70,0,240
1,note_on,82,0,0
1,note_on,68,56,0
1,note_on,80,73,0
1,note_on,80,0,180
1,note_on,68,0,0
1,note_on,68,64,0
1,note_on,68,0,20
1,note_on,73,57,0
1,note_on,73,0,20
1,note_on,80,59,0
1,note_on,80,0,20
1,note_on,73,74,0
1,note_on,78,73,0
1,note_on,66,61,0
1,note_on,78,0,360
1,note_on,65,52,0
1,note_on,77,61,0
1,note_on,77,0,108
1,note_on,65,0,0
1,note_on,66,0,12
1,note_on,73,0,0
1,note_on,73,0,0
1,note_on,65,58,0
1,note_on,77,69,0
1,note_on,73,69,0
1,note_on,73,0,480
1,note_on,77,0,0
1,note_on,65,0,0
1,note_on,73,68,0
1,note_on,61,57,0
1,note_on,70,68,0
1,note_on,70,0,480
1,note_on,61,0,0
1,note_on,73,0,0
1,note_on,73,68,0
1,note_on,82,83,0
1,note_on,70,68,0
1,note_on,70,0,240
1,note_on,82,0,0
1,note_on,68,56,0
1,note_on,80,73,0
1,note_on,80,0,180
1,note_on,68,0,0
1,note_on,68,66,0
1,note_on,68,0,20
1,note_on,73,58,0
1,note_on,73,0,20
1,note_on,80,58,0
1,note_on,80,0,20
1,note_on,73,76,0
1,note_on,78,73,0
1,note_on,66,63,0
1,note_on,78,0,360
1,note_on,65,52,0
1,note_on,77,61,0
1,note_on,77,0,108
1,note_on,65,0,0
1,note_on,66,0,12
1,note_on,73,0,0
1,note_on,73,0,0
1,note_on,65,58,0
1,note_on,77,69,0
1,note_on,73,69,0
1,note_on,73,0,480
1,note_on,77,0,0
1,note_on,65,0,0
1,note_on,73,68,0
1,note_on,61,57,0
1,note_on,70,68,0
1,note_on,70,0,480
1,note_on,61,0,0
1,note_on,73,0,0
1,note_on,58,52,0
1,note_on,65,52,0
1,note_on,70,61,0
1,note_on,70,0,480
1,note_on,65,0,0
1,note_on,58,0,0
1,note_on,58,53,0
1,note_on,66,53,0
1,note_on,70,63,0
1,note_on,70,0,360
1,note_on,58,0,0
1,note_on,58,48,0
1,note_on,70,57,0
1,note_on,70,0,108
1,note_on,58,0,0
1,note_on,66,0,12
1,note_on,58,54,0
1,note_on,65,54,0
1,note_on,70,65,0
1,note_on,70,0,480
1,note_on,65,0,0
1,note_on,58,0,0
1,note_on,61,68,0
1,note_on,73,82,0
1,note_on,66,66,0
1,note_on,73,0,360
1,note_on,61,0,0
1,note_on,60,59,0
1,note_on,72,71,0
1,note_on,72,0,120
1,note_on,60,0,0
1,note_on,66,0,0
1,note_on,60,68,0
1,note_on,72,79,0
1,note_on,65,68,0
1,note_on,72,0,360
1,note_on,60,0,0
1,note_on,58,59,0
1,note_on,70,71,0
1,note_on,70,0,108
1,note_on,58,0,0
1,note_on,65,0,12
1,note_on,58,64,0
1,note_on,66,64,0
1,note_on,70,77,0
1,note_on,70,0,360
1,note_on,58,0,0
1,note_on,58,60,0
1,note_on,70,72,0
1,note_on,70,0,108
1,note_on,58,0,0
1,note_on,66,0,12
1,note_on,58,63,0
1,note_on,65,64,0
1,note_on,70,76,0
1,note_on,70,0,480
1,note_on,65,0,0
1,note_on,58,0,0
1,note_on,68,75,0
1,note_on,60,75,0
1,note_on,72,95,0
1,note_on,66,75,0
1,note_on,66,0,480
1,note_on,68,0,0
1,note_on,60,0,0
1,note_on,72,0,0
1,note_on,61,78,0
1,note_on,65,78,0
1,note_on,73,100,0
1,note_on,73,0,480
1,note_on,65,0,0
1,note_on,61,0,0
1,note_on,65,74,0
1,note_on,73,74,0
1,note_on,77,89,0
1,note_on,77,0,360
1,note_on,73,0,0
1,note_on,65,0,0
1,note_on,66,74,0
1,note_on,78,89,0
1,note_on,78,0,120
1,note_on,66,0,0
1,note_on,68,78,0
1,note_on,80,93,0
1,note_on,73,78,0
1,note_on,73,0,360
1,note_on,80,0,0
1,note_on,68,0,0
1,note_on,70,78,0
1,note_on,82,93,0
1,note_on,82,0,120
1,note_on,70,0,0
1,note_on,72,84,0
1,note_on,80,84,0
1,note_on,84,99,0
1,note_on,84,0,360
1,note_on,80,0,0
1,note_on,72,0,0
1,note_on,73,88,0
1,note_on,85,102,0
1,note_on,85,0,120
1,note_on,73,0,0
1,note_on,89,103,0
1,note_on,80,88,0
1,note_on,77,88,0
1,note_on,84,88,0
1,note_on,77,0,960
1,note_on,89,0,0
1,note_on,75,79,0
1,note_on,87,95,0
1,note_on,87,0,720
1,note_on,84,0,0
1,note_on,80,0,0
1,note_on,75,0,0
1,note_on,78,89,120
1,note_on,72,75,0
1,note_on,75,75,0
1,note_on,66,75,0
1,note_on,66,0,120
1,note_on,78,0,0
1,note_on,72,0,0
1,note_on,75,0,0
1,note_on,75,80,0
1,note_on,65,80,0
1,note_on,72,80,0
1,note_on,77,102,0
1,note_on,77,0,480
1,note_on,75,0,0
1,note_on,65,0,0
1,note_on,72,0,0
1,note_on,70,74,0
1,note_on,65,74,0
1,note_on,73,74,0
1,note_on,77,89,0
1,note_on,77,0,360
1,note_on,70,0,0
1,note_on,65,0,0
1,note_on,73,0,0
1,note_on,67,74,0
1,note_on,79,89,0
1,note_on,79,0,120
1,note_on,67,0,0
1,note_on,77,78,0
1,note_on,69,78,0
1,note_on,73,78,0
1,note_on,81,93,0
1,note_on,81,0,360
1,note_on,77,0,0
1,note_on,69,0,0
1,note_on,73,0,0
1,note_on,70,78,0
1,note_on,82,93,0
1,note_on,82,0,120
1,note_on,70,0,0
1,note_on,72,84,0
1,note_on,77,84,0
1,note_on,84,99,0
1,note_on,84,0,360
1,note_on,77,0,0
1,note_on,72,0,0
1,note_on,73,88,0
1,note_on,85,102,0
1,note_on,85,0,60
1,note_on,73,0,0
1,note_on,70,88,0
1,note_on,76,88,20
1,note_on,79,88,20
1,note_on,85,103,20
1,note_on,85,0,960
1,note_on,70,0,0
1,note_on,76,0,0
1,note_on,79,0,0
1,note_on,72,76,0
1,note_on,77,76,0
1,note_on,84,90,0
1,note_on,84,0,480
1,note_on,77,0,0
1,note_on,72,0,0
1,note_on,56,68,480
1,note_on,54,68,0
1,note_on,60,68,0
1,note_on,65,68,0
1,note_on,68,80,0
1,note_on,68,0,480
1,note_on,60,0,0
1,note_on,56,0,0
1,note_on,54,0,0
1,note_on,65,0,0
1,note_on,63,68,0
1,note_on,56,68,0
1,note_on,60,68,0
1,note_on,54,68,0
1,note_on,68,80,0
1,note_on,68,0,480
1,note_on,60,0,0
1,note_on,63,0,0
1,note_on,56,0,0
1,note_on,54,0,0
1,note_on,53,68,0
1,note_on,61,68,0
1,note_on,68,80,0
1,note_on,68,0,480
1,note_on,61,0,0
1,note_on,53,0,0
1,note_on,57,68,480
1,note_on,51,68,0
1,note_on,61,68,0
1,note_on,65,80,0
1,note_on,65,0,480
1,note_on,57,0,0
1,note_on,51,0,0
1,note_on,61,0,0
1,note_on,65,80,0
1,note_on,57,68,0
1,note_on,60,68,0
1,note_on,51,68,0
1,note_on,51,0,480
1,note_on,65,0,0
1,note_on,57,0,0
1,note_on,60,0,0
1,note_on,49,68,0
1,note_on,58,80,0
1,note_on,58,0,960
1,note_on,49,0,0
1,note_on,46,39,0
1,note_on,53,39,0
1,note_on,58,46,0
1,note_on,58,0,480
1,note_on,53,0,0
1,note_on,46,0,0
1,note_on,54,39,0
1,note_on,58,46,0
1,note_on,58,0,360
1,note_on,58,41,0
1,note_on,58,0,120
1,note_on,54,0,0
1,note_on,53,39,0
1,note_on,58,46,0
1,note_on,58,0,480
1,note_on,53,0,0
1,note_on,61,54,0
1,note_on,54,44,0
1,note_on,61,0,360
1,note_on,60,49,0
1,note_on,60,0,60
1,note_on,61,45,0
1,note_on,61,0,60
1,note_on,54,0,0
1,note_on,60,52,0
1,note_on,53,44,0
1,note_on,60,0,360
1,note_on,58,46,0
1,note_on,58,0,120
1,note_on,53,0,0
1,note_on,54,42,0
1,note_on,58,50,0
1,note_on,58,0,360
1,note_on,58,41,0
1,note_on,58,0,120
1,note_on,54,0,0
1,note_on,53,39,0
1,note_on,58,46,0
1,note_on,58,0,480
1,note_on,53,0,0
1,note_on,55,76,0
1,note_on,61,97,0
1,note_on,52,76,0
1,note_on,52,0,360
1,note_on,61,0,0
1,note_on,55,0,0
1,note_on,54,76,0
1,note_on,60,76,0
1,note_on,63,97,0
1,note_on,63,0,120
1,note_on,60,0,0
1,note_on,54,0,0
1,note_on,53,79,0
1,note_on,61,79,0
1,note_on,65,101,0
1,note_on,65,0,480
1,note_on,61,0,0
1,note_on,53,0,0
1,note_on,77,93,0
1,note_on,65,77,0
1,note_on,73,77,0
1,note_on,73,0,360
1,note_on,65,0,0
1,note_on,77,0,0
1,note_on,66,77,0
1,note_on,78,93,0
1,note_on,78,0,120
1,note_on,66,0,0
1,note_on,68,82,0
1,note_on,73,82,0
1,note_on,80,97,0
1,note_on,80,0,360
1,note_on,73,0,0
1,note_on,68,0,0
1,note_on,70,82,0
1,note_on,82,97,0
1,note_on,82,0,120
1,note_on,70,0,0
1,note_on,72,88,0
1,note_on,80,88,0
1,note_on,84,105,0
1,note_on,84,0,360
1,note_on,80,0,0
1,note_on,72,0,0
1,note_on,73,92,0
1,note_on,85,108,0
1,note_on,85,0,120
1,note_on,73,0,0
1,note_on,84,92,0
1,note_on,80,92,0
1,note_on,77,92,0
1,note_on,89,109,0
1,note_on,89,0,960
1,note_on,77,0,0
1,note_on,75,82,0
1,note_on,87,99,0
1,note_on,87,0,720
1,note_on,84,0,0
1,note_on,80,0,0
1,note_on,75,0,0
1,note_on,66,75,120
1,note_on,72,75,0
1,note_on,75,75,0
1,note_on,78,89,0
1,note_on,78,0,120
1,note_on,66,0,0
1,note_on,72,0,0
1,note_on,75,0,0
1,note_on,77,102,0
1,note_on,65,80,0
1,note_on,72,80,0
1,note_on,75,80,0
1,note_on,75,0,480
1,note_on,77,0,0
1,note_on,65,0,0
1,note_on,72,0,0
1,note_on,70,74,0
1,note_on,65,74,0
1,note_on,73,74,0
1,note_on,77,89,0
1,note_on,77,0,360
1,note_on,70,0,0
1,note_on,65,0,0
1,note_on,73,0,0
1,note_on,67,74,0
1,note_on,79,89,0
1,note_on,79,0,120
1,note_on,67,0,0
1,note_on,77,78,0
1,note_on,69,78,0
1,note_on,73,78,0
1,note_on,81,93,0
1,note_on,81,0,360
1,note_on,77,0,0
1,note_on,69,0,0
1,note_on,73,0,0
1,note_on,70,78,0
1,note_on,82,93,0
1,note_on,82,0,120
1,note_on,70,0,0
1,note_on,72,84,0
1,note_on,77,84,0
1,note_on,84,99,0
1,note_on,84,0,360
1,note_on,77,0,0
1,note_on,72,0,0
1,note_on,73,88,0
1,note_on,85,102,0
1,note_on,85,0,60
1,note_on,73,0,0
1,note_on,70,88,0
1,note_on,76,88,20
1,note_on,79,88,20
1,note_on,85,103,20
1,note_on,85,0,960
1,note_on,70,0,0
1,note_on,76,0,0
1,note_on,79,0,0
1,note_on,72,76,0
1,note_on,77,76,0
1,note_on,84,90,0
1,note_on,84,0,480
1,note_on,77,0,0
1,note_on,72,0,0
1,note_on,56,68,480
1,note_on,68,80,0
1,note_on,60,68,0
1,note_on,65,68,0
1,note_on,54,68,0
1,note_on,54,0,480
1,note_on,60,0,0
1,note_on,56,0,0
1,note_on,68,0,0
1,note_on,65,0,0
1,note_on,54,68,0
1,note_on,56,68,0
1,note_on,60,68,0
1,note_on,63,68,0
1,note_on,68,80,0
1,note_on,68,0,480
1,note_on,60,0,0
1,note_on,54,0,0
1,note_on,56,0,0
1,note_on,63,0,0
1,note_on,53,68,0
1,note_on,61,68,0
1,note_on,68,80,0
1,note_on,68,0,480
1,note_on,61,0,0
1,note_on,53,0,0
1,note_on,65,80,480
1,note_on,51,68,0
1,note_on,61,68,0
1,note_on,57,68,0
1,note_on,57,0,480
1,note_on,65,0,0
1,note_on,51,0,0
1,note_on,61,0,0
1,note_on,51,68,0
1,note_on,57,68,0
1,note_on,60,68,0
1,note_on,65,80,0
1,note_on,65,0,480
1,note_on,51,0,0
1,note_on,57,0,0
1,note_on,60,0,0
1,note_on,49,68,0
1,note_on,58,80,0
1,note_on,58,0,960
1,note_on,49,0,0
1,note_on,46,39,0
1,note_on,53,39,0
1,note_on,58,46,0
1,note_on,58,0,480
1,note_on,53,0,0
1,note_on,46,0,0
1,note_on,54,39,0
1,note_on,58,46,0
1,note_on,58,0,360
1,note_on,58,41,0
1,note_on,58,0,120
1,note_on,54,0,0
1,note_on,53,39,0
1,note_on,58,46,0
1,note_on,58,0,480
1,note_on,53,0,0
1,note_on,61,54,0
1,note_on,54,44,0
1,note_on,61,0,360
1,note_on,60,49,0
1,note_on,60,0,60
1,note_on,61,45,0
1,note_on,61,0,60
1,note_on,54,0,0
1,note_on,60,52,0
1,note_on,53,44,0
1,note_on,60,0,360
1,note_on,58,46,0
1,note_on,58,0,120
1,note_on,53,0,0
1,note_on,54,42,0
1,note_on,58,50,0
1,note_on,58,0,360
1,note_on,58,41,0
1,note_on,58,0,120
1,note_on,54,0,0
1,note_on,53,39,0
1,note_on,58,46,0
1,note_on,58,0,480
1,note_on,53,0,0
1,note_on,77,54,480
1,note_on,77,0,960
1,note_on,78,50,0
1,note_on,78,0,240
1,note_on,77,46,0
1,note_on,77,0,240
1,note_on,75,50,0
1,note_on,75,0,240
1,note_on,73,46,0
1,note_on,73,0,240
1,note_on,72,50,0
1,note_on,72,0,480
1,note_on,82,54,0
1,note_on,82,0,480
1,note_on,80,52,0
1,note_on,80,0,960
1,note_on,78,51,0
1,note_on,78,0,960
1,note_on,80,50,0
1,note_on,80,0,240
1,note_on,78,46,0
1,note_on,78,0,240
1,note_on,77,50,0
1,note_on,77,0,240
1,note_on,75,46,0
1,note_on,75,0,240
1,note_on,73,50,0
1,note_on,73,0,480
1,note_on,85,53,0
1,note_on,85,0,480
1,note_on,80,49,0
1,note_on,80,0,960
1,note_on,77,52,0
1,note_on,77,0,960
1,note_on,78,51,0
1,note_on,78,0,240
1,note_on,77,46,0
1,note_on,77,0,240
1,note_on,75,50,0
1,note_on,75,0,240
1,note_on,74,46,0
1,note_on,74,0,120
1,note_on,75,46,0
1,note_on,75,0,60
1,note_on,77,42,0
1,note_on,77,0,60
1,note_on,75,53,0
1,note_on,75,0,240
1,note_on,74,51,0
1,note_on,74,0,240
1,note_on,75,54,0
1,note_on,75,0,240
1,note_on,77,55,0
1,note_on,77,0,240
1,note_on,78,57,0
1,note_on,78,0,240
1,note_on,70,52,0
1,note_on,70,0,240
1,note_on,77,57,0
1,note_on,77,0,240
1,note_on,75,50,0
1,note_on,75,0,120
1,note_on,72,39,0
1,note_on,72,0,60
1,note_on,73,39,0
1,note_on,73,0,58
1,note_on,73,39,2
1,note_on,73,0,45
1,note_on,75,36,0
1,note_on,75,0,45
1,note_on,73,40,0
1,note_on,73,0,45
1,note_on,75,37,0
1,note_on,75,0,45
1,note_on,73,42,0
1,note_on,73,0,45
1,note_on,75,38,0
1,note_on,75,0,45
1,note_on,73,44,0
1,note_on,73,0,45
1,note_on,75,39,0
1,note_on,75,0,45
1,note_on,73,46,0
1,note_on,73,0,45
1,note_on,75,42,0
1,note_on,75,0,45
1,note_on,73,48,0
1,note_on,73,0,45
1,note_on,75,42,0
1,note_on,75,0,45
1,note_on,73,47,0
1,note_on,73,0,45
1,note_on,75,40,1
1,note_on,73,44,44
1,note_on,75,0,1
1,note_on,73,0,44
1,note_on,75,38,0
1,note_on,73,42,45
1,note_on,75,0,1
1,note_on,73,0,59
1,note_on,75,37,0
1,note_on,75,0,60
1,note_on,72,40,0
1,note_on,72,0,60
1,note_on,73,35,0
1,note_on,73,0,60
1,note_on,82,54,0
1,note_on,82,0,240
1,note_on,80,50,0
1,note_on,80,0,240
1,note_on,78,52,0
1,note_on,78,0,240
1,note_on,68,50,0
1,note_on,68,0,240
1,note_on,75,54,0
1,note_on,75,0,960
1,note_on,73,50,0
1,note_on,73,0,480
1,note_on,77,54,480
1,note_on,77,0,960
1,note_on,78,50,0
1,note_on,78,0,240
1,note_on,77,46,0
1,note_on,77,0,240
1,note_on,75,50,0
1,note_on,75,0,240
1,note_on,73,46,0
1,note_on,73,0,240
1,note_on,72,50,0
1,note_on,72,0,480
1,note_on,82,54,0
1,note_on,82,0,480
1,note_on,80,52,0
1,note_on,80,0,960
1,note_on,78,51,0
1,note_on,78,0,960
1,note_on,80,50,0
1,note_on,80,0,240
1,note_on,78,46,0
1,note_on,78,0,240
1,note_on,77,50,0
1,note_on,77,0,240
1,note_on,75,46,0
1,note_on,75,0,240
1,note_on,73,50,0
1,note_on,73,0,480
1,note_on,85,53,0
1,note_on,85,0,480
1,note_on,80,49,0
1,note_on,80,0,960
1,note_on,77,52,0
1,note_on,77,0,960
1,note_on,78,51,0
1,note_on,78,0,240
1,note_on,77,46,0
1,note_on,77,0,240
1,note_on,75,50,0
1,note_on,75,0,240
1,note_on,74,46,0
1,note_on,74,0,120
1,note_on,75,46,0
1,note_on,75,0,60
1,note_on,77,42,0
1,note_on,77,0,60
1,note_on,75,53,0
1,note_on,75,0,240
1,note_on,74,51,0
1,note_on,74,0,240
1,note_on,75,54,0
1,note_on,75,0,240
1,note_on,77,55,0
1,note_on,77,0,240
1,note_on,78,57,0
1,note_on,78,0,240
1,note_on,70,52,0
1,note_on,70,0,240
1,note_on,77,57,0
1,note_on,77,0,240
1,note_on,75,50,0
1,note_on,75,0,120
1,note_on,72,39,0
1,note_on,72,0,60
1,note_on,73,39,0
1,note_on,73,0,60
1,note_on,73,39,0
1,note_on,73,0,45
1,note_on,75,36,0
1,note_on,75,0,45
1,note_on,73,40,0
1,note_on,73,0,45
1,note_on,75,37,0
1,note_on,75,0,45
1,note_on,73,42,0
1,note_on,73,0,45
1,note_on,75,38,0
1,note_on,75,0,45
1,note_on,73,44,0
1,note_on,73,0,45
1,note_on,75,39,0
1,note_on,75,0,45
1,note_on,73,46,0
1,note_on,73,0,45
1,note_on,75,42,0
1,note_on,75,0,45
1,note_on,73,48,0
1,note_on,73,0,45
1,note_on,75,42,0
1,note_on,75,0,45
1,note_on,73,47,0
1,note_on,73,0,45
1,note_on,75,40,1
1,note_on,73,44,44
1,note_on,75,0,1
1,note_on,73,0,44
1,note_on,75,38,0
1,note_on,73,42,45
1,note_on,75,0,1
1,note_on,73,0,59
1,note_on,75,37,0
1,note_on,75,0,60
1,note_on,72,40,0
1,note_on,72,0,60
1,note_on,73,35,0
1,note_on,73,0,60
1,note_on,82,54,0
1,note_on,82,0,240
1,note_on,80,50,0
1,note_on,80,0,240
1,note_on,78,52,0
1,note_on,78,0,240
1,note_on,68,50,0
1,note_on,68,0,240
1,note_on,75,54,0
1,note_on,75,0,960
1,note_on,73,50,0
1,note_on,73,0,480
1,note_on,72,56,480
1,note_on,72,0,960
1,note_on,73,52,0
1,note_on,73,0,240
1,note_on,72,48,0
1,note_on,72,0,240
1,note_on,70,52,0
1,note_on,70,0,240
1,note_on,68,48,0
1,note_on,68,0,240
1,note_on,67,52,0
1,note_on,67,0,480
1,note_on,77,56,0
1,note_on,77,0,480
1,note_on,75,54,0
1,note_on,75,0,960
1,note_on,73,55,0
1,note_on,73,0,960
1,note_on,75,55,0
1,note_on,75,0,240
1,note_on,73,50,0
1,note_on,73,0,240
1,note_on,72,55,0
1,note_on,72,0,240
1,note_on,70,51,0
1,note_on,70,0,240
1,note_on,69,55,0
1,note_on,69,0,480
1,note_on,78,59,0
1,note_on,78,0,480
1,note_on,77,55,0
1,note_on,77,0,960
1,note_on,77,59,0
1,note_on,77,0,960
1,note_on,78,58,0
1,note_on,78,0,240
1,note_on,77,52,0
1,note_on,77,0,240
1,note_on,75,57,0
1,note_on,75,0,240
1,note_on,73,52,0
1,note_on,73,0,235
1,note_on,73,59,5
1,note_on,73,0,480
1,note_on,72,57,0
1,note_on,72,0,480
1,note_on,72,56,240
1,note_on,72,0,210
1,note_on,75,55,0
1,note_on,75,0,30
1,note_on,73,59,0
1,note_on,73,0,360
1,note_on,72,58,0
1,note_on,72,0,115
1,note_on,72,59,5
1,note_on,72,0,480
1,note_on,70,56,0
1,note_on,70,0,480
1,note_on,72,56,240
1,note_on,72,0,210
1,note_on,75,59,0
1,note_on,75,0,30
1,note_on,73,59,0
1,note_on,73,0,360
1,note_on,72,56,0
1,note_on,72,0,120
1,note_on,72,50,0
1,note_on,72,0,480
1,note_on,77,55,0
1,note_on,77,0,480
1,note_on,78,54,0
1,note_on,78,0,480
1,note_on,68,46,0
1,note_on,68,0,480
1,note_on,77,54,0
1,note_on,77,0,960
1,note_on,78,50,0
1,note_on,78,0,240
1,note_on,77,46,0
1,note_on,77,0,240
1,note_on,75,50,0
1,note_on,75,0,240
1,note_on,73,46,0
1,note_on,73,0,240
1,note_on,72,50,0
1,note_on,72,0,480
1,note_on,82,54,0
1,note_on,82,0,480
1,note_on,80,52,0
1,note_on,80,0,960
1,note_on,78,51,0
1,note_on,78,0,960
1,note_on,80,50,0
1,note_on,80,0,240
1,note_on,78,46,0
1,note_on,78,0,240
1,note_on,77,50,0
1,note_on,77,0,240
1,note_on,75,46,0
1,note_on,75,0,240
1,note_on,73,50,0
1,note_on,73,0,480
1,note_on,85,53,0
1,note_on,85,0,480
1,note_on,80,49,0
1,note_on,80,0,960
1,note_on,77,52,0
1,note_on,77,0,960
1,note_on,78,51,0
1,note_on,78,0,240
1,note_on,77,46,0
1,note_on,77,0,240
1,note_on,75,50,0
1,note_on,75,0,240
1,note_on,74,46,0
1,note_on,74,0,120
1,note_on,75,46,0
1,note_on,75,0,60
1,note_on,77,42,0
1,note_on,77,0,60
1,note_on,75,53,0
1,note_on,75,0,240
1,note_on,74,51,0
1,note_on,74,0,240
1,note_on,75,54,0
1,note_on,75,0,240
1,note_on,77,55,0
1,note_on,77,0,240
1,note_on,78,57,0
1,note_on,78,0,240
1,note_on,70,52,0
1,note_on,70,0,240
1,note_on,77,57,0
1,note_on,77,0,240
1,note_on,75,50,0
1,note_on,75,0,120
1,note_on,72,39,0
1,note_on,72,0,60
1,note_on,73,39,0
1,note_on,73,0,60
1,note_on,73,39,0
1,note_on,73,0,45
1,note_on,75,36,0
1,note_on,75,0,45
1,note_on,73,40,0
1,note_on,73,0,45
1,note_on,75,37,0
1,note_on,75,0,45
1,note_on,73,42,0
1,note_on,73,0,45
1,note_on,75,38,0
1,note_on,75,0,45
1,note_on,73,44,0
1,note_on,73,0,45
1,note_on,75,39,0
1,note_on,75,0,45
1,note_on,73,46,0
1,note_on,73,0,45
1,note_on,75,42,0
1,note_on,75,0,45
1,note_on,73,48,0
1,note_on,73,0,45
1,note_on,75,42,0
1,note_on,75,0,45
1,note_on,73,47,0
1,note_on,73,0,45
1,note_on,75,40,1
1,note_on,73,44,44
1,note_on,75,0,1
1,note_on,73,0,44
1,note_on,75,38,0
1,note_on,73,42,45
1,note_on,75,0,1
1,note_on,73,0,59
1,note_on,75,37,0
1,note_on,75,0,60
1,note_on,72,40,0
1,note_on,72,0,60
1,note_on,73,35,0
1,note_on,73,0,60
1,note_on,82,54,0
1,note_on,82,0,240
1,note_on,80,50,0
1,note_on,80,0,240
1,note_on,78,52,0
1,note_on,78,0,240
1,note_on,68,50,0
1,note_on,68,0,240
1,note_on,75,54,0
1,note_on,75,0,960
1,note_on,73,45,0
1,note_on,73,0,480
1,note_on,72,56,480
1,note_on,72,0,960
1,note_on,73,52,0
1,note_on,73,0,240
1,note_on,72,48,0
1,note_on,72,0,240
1,note_on,70,52,0
1,note_on,70,0,240
1,note_on,68,48,0
1,note_on,68,0,240
1,note_on,67,52,0
1,note_on,67,0,480
1,note_on,77,56,0
1,note_on,77,0,480
1,note_on,75,54,0
1,note_on,75,0,960
1,note_on,73,55,0
1,note_on,73,0,960
1,note_on,75,55,0
1,note_on,75,0,240
1,note_on,73,50,0
1,note_on,73,0,240
1,note_on,72,55,0
1,note_on,72,0,240
1,note_on,70,51,0
1,note_on,70,0,240
1,note_on,69,55,0
1,note_on,69,0,480
1,note_on,78,59,0
1,note_on,78,0,480
1,note_on,77,55,0
1,note_on,77,0,960
1,note_on,77,59,0
1,note_on,77,0,960
1,note_on,78,58,0
1,note_on,78,0,240
1,note_on,77,52,0
1,note_on,77,0,240
1,note_on,75,57,0
1,note_on,75,0,240
1,note_on,73,52,0
1,note_on,73,0,235
1,note_on,73,59,5
1,note_on,73,0,480
1,note_on,72,57,0
1,note_on,72,0,480
1,note_on,72,56,240
1,note_on,72,0,210
1,note_on,75,55,0
1,note_on,75,0,30
1,note_on,73,59,0
1,note_on,73,0,360
1,note_on,72,58,0
1,note_on,72,0,113
1,note_on,72,59,7
1,note_on,72,0,480
1,note_on,70,56,0
1,note_on,70,0,480
1,note_on,72,56,240
1,note_on,72,0,210
1,note_on,75,59,0
1,note_on,75,0,30
1,note_on,73,59,0
1,note_on,73,0,360
1,note_on,72,56,0
1,note_on,72,0,113
1,note_on,72,50,7
1,note_on,72,0,480
1,note_on,77,55,0
1,note_on,77,0,480
1,note_on,78,54,0
1,note_on,78,0,480
1,note_on,68,45,0
1,note_on,68,0,480
1,note_on,77,54,0
1,note_on,77,0,960
1,note_on,78,50,0
1,note_on,78,0,240
1,note_on,77,46,0
1,note_on,77,0,240
1,note_on,75,50,0
1,note_on,75,0,240
1,note_on,73,46,0
1,note_on,73,0,240
1,note_on,72,50,0
1,note_on,72,0,480
1,note_on,82,54,0
1,note_on,82,0,480
1,note_on,80,52,0
1,note_on,80,0,960
1,note_on,78,51,0
1,note_on,78,0,960
1,note_on,80,50,0
1,note_on,80,0,240
1,note_on,78,46,0
1,note_on,78,0,240
1,note_on,77,50,0
1,note_on,77,0,240
1,note_on,75,46,0
1,note_on,75,0,240
1,note_on,73,50,0
1,note_on,73,0,480
1,note_on,85,53,0
1,note_on,85,0,480
1,note_on,80,49,0
1,note_on,80,0,960
1,note_on,77,52,0
1,note_on,77,0,960
1,note_on,78,51,0
1,note_on,78,0,240
1,note_on,77,46,0
1,note_on,77,0,240
1,note_on,75,50,0
1,note_on,75,0,240
1,note_on,74,46,0
1,note_on,74,0,120
1,note_on,75,46,0
1,note_on,75,0,60
1,note_on,77,42,0
1,note_on,77,0,60
1,note_on,75,53,0
1,note_on,75,0,240
1,note_on,74,51,0
1,note_on,74,0,240
1,note_on,75,54,0
1,note_on,75,0,240
1,note_on,77,55,0
1,note_on,77,0,240
1,note_on,78,57,0
1,note_on,78,0,240
1,note_on,70,52,0
1,note_on,70,0,240
1,note_on,77,57,0
1,note_on,77,0,240
1,note_on,75,50,0
1,note_on,75,0,120
1,note_on,72,39,0
1,note_on,72,0,60
1,note_on,73,39,0
1,note_on,73,0,60
1,note_on,73,39,0
1,note_on,73,0,45
1,note_on,75,36,0
1,note_on,75,0,45
1,note_on,73,40,0
1,note_on,73,0,45
1,note_on,75,37,0
1,note_on,75,0,45
1,note_on,73,42,0
1,note_on,73,0,45
1,note_on,75,38,0
1,note_on,75,0,45
1,note_on,73,44,0
1,note_on,73,0,45
1,note_on,75,39,0
1,note_on,75,0,45
1,note_on,73,46,0
1,note_on,73,0,45
1,note_on,75,42,0
1,note_on,75,0,45
1,note_on,73,48,0
1,note_on,73,0,45
1,note_on,75,42,0
1,note_on,75,0,45
1,note_on,73,47,0
1,note_on,73,0,45
1,note_on,75,40,1
1,note_on,73,44,44
1,note_on,75,0,1
1,note_on,73,0,44
1,note_on,75,38,0
1,note_on,73,42,45
1,note_on,75,0,1
1,note_on,73,0,59
1,note_on,75,37,0
1,note_on,75,0,60
1,note_on,72,40,0
1,note_on,72,0,60
1,note_on,73,35,0
1,note_on,73,0,60
1,note_on,82,54,0
1,note_on,82,0,240
1,note_on,80,50,0
1,note_on,80,0,240
1,note_on,78,52,0
1,note_on,78,0,240
1,note_on,68,50,0
1,note_on,68,0,240
1,note_on,75,54,0
1,note_on,75,0,960
1,note_on,73,45,0
1,note_on,73,0,480
1,note_on,53,34,480
1,note_on,58,40,0
1,note_on,58,0,480
1,note_on,53,0,0
1,note_on,54,34,0
1,note_on,58,40,0
1,note_on,58,0,360
1,note_on,58,36,0
1,note_on,58,0,108
1,note_on,54,0,12
1,note_on,53,34,0
1,note_on,58,40,0
1,note_on,53,0,480
1,note_on,54,28,0
1,note_on,54,0,480
1,note_on,58,0,0
1,note_on,53,34,0
1,note_on,58,40,0
1,note_on,58,0,480
1,note_on,53,0,0
1,note_on,54,34,0
1,note_on,58,40,0
1,note_on,58,0,360
1,note_on,58,36,0
1,note_on,58,0,108
1,note_on,54,0,12
1,note_on,53,34,0
1,note_on,58,40,0
1,note_on,53,0,480
1,note_on,54,28,0
1,note_on,54,0,480
1,note_on,58,0,0
1,note_on,53,34,0
1,note_on,58,40,0
1,note_on,58,0,480
1,note_on,53,0,0
1,note_on,54,34,0
1,note_on,58,40,0
1,note_on,58,0,360
1,note_on,58,36,0
1,note_on,58,0,108
1,note_on,54,0,12
1,note_on,53,34,0
1,note_on,58,40,0
1,note_on,58,0,480
1,note_on,53,0,0
1,note_on,61,49,0
1,note_on,54,39,0
1,note_on,61,0,360
1,note_on,60,45,0
1,note_on,60,0,108
1,note_on,54,0,12
1,note_on,60,48,0
1,note_on,53,39,0
1,note_on,60,0,360
1,note_on,58,42,0
1,note_on,58,0,108
1,note_on,53,0,12
1,note_on,54,37,0
1,note_on,58,44,0
1,note_on,58,0,360
1,note_on,58,36,0
1,note_on,58,0,108
1,note_on,54,0,12
1,note_on,53,34,0
1,note_on,58,40,0
1,note_on,53,0,480
1,note_on,54,28,0
1,note_on,54,0,480
1,note_on,58,0,0
1,note_on,58,42,0
1,note_on,53,42,0
1,note_on,61,50,0
1,note_on,61,0,480
1,note_on,53,0,0
1,note_on,58,0,0
1,note_on,58,42,0
1,note_on,54,42,0
1,note_on,61,50,0
1,note_on,61,0,360
1,note_on,61,45,0
1,note_on,61,0,108
1,note_on,54,0,12
1,note_on,58,0,0
1,note_on,58,42,0
1,note_on,53,42,0
1,note_on,61,50,0
1,note_on,61,0,480
1,note_on,53,0,0
1,note_on,58,0,0
1,note_on,65,59,0
1,note_on,61,52,0
1,note_on,54,48,0
1,note_on,61,0,360
1,note_on,65,0,0
1,note_on,63,53,0
1,note_on,60,47,0
1,note_on,60,0,60
1,note_on,63,0,0
1,note_on,65,48,0
1,note_on,65,0,60
1,note_on,54,0,0
1,note_on,63,57,0
1,note_on,60,51,0
1,note_on,53,48,0
1,note_on,60,0,360
1,note_on,63,0,0
1,note_on,61,50,0
1,note_on,58,45,0
1,note_on,58,0,108
1,note_on,61,0,0
1,note_on,53,0,12
1,note_on,61,55,0
1,note_on,54,46,0
1,note_on,58,48,0
1,note_on,58,0,360
1,note_on,61,0,0
1,note_on,61,45,0
1,note_on,58,39,0
1,note_on,58,0,108
1,note_on,61,0,0
1,note_on,54,0,12
1,note_on,61,50,0
1,note_on,53,42,0
1,note_on,58,45,0
1,note_on,53,0,480
1,note_on,54,35,0
1,note_on,54,0,480
1,note_on,58,0,0
1,note_on,61,0,0
1,note_on,61,58,0
1,note_on,70,73,0
1,note_on,58,58,0
1,note_on,70,0,240
1,note_on,68,67,0
1,note_on,68,0,180
1,note_on,58,0,0
1,note_on,61,0,0
1,note_on,68,58,0
1,note_on,68,0,60
1,note_on,61,55,0
1,note_on,66,61,0
1,note_on,58,55,0
1,note_on,66,0,360
1,note_on,65,53,0
1,note_on,65,0,108
1,note_on,58,0,12
1,note_on,61,0,0
1,note_on,58,50,0
1,note_on,65,59,0
1,note_on,61,50,0
1,note_on,61,0,480
1,note_on,65,0,0
1,note_on,58,0,0
1,note_on,58,42,0
1,note_on,61,51,0
1,note_on,61,0,480
1,note_on,58,0,0
1,note_on,61,58,0
1,note_on,70,73,0
1,note_on,58,58,0
1,note_on,70,0,240
1,note_on,68,67,0
1,note_on,68,0,180
1,note_on,58,0,0
1,note_on,61,0,0
1,note_on,68,58,0
1,note_on,68,0,60
1,note_on,61,55,0
1,note_on,66,61,0
1,note_on,58,55,0
1,note_on,66,0,360
1,note_on,65,54,0
1,note_on,65,0,108
1,note_on,58,0,12
1,note_on,61,0,0
1,note_on,58,50,0
1,note_on,65,59,0
1,note_on,61,50,0
1,note_on,61,0,480
1,note_on,65,0,0
1,note_on,58,0,0
1,note_on,58,42,0
1,note_on,61,51,0
1,note_on,61,0,480
1,note_on,58,0,0
1,note_on,53,39,0
1,note_on,58,46,0
1,note_on,58,0,480
1,note_on,53,0,0
1,note_on,54,39,0
1,note_on,58,46,0
1,note_on,58,0,360
1,note_on,58,41,0
1,note_on,58,0,108
1,note_on,54,0,12
1,note_on,53,39,0
1,note_on,58,46,0
1,note_on,58,0,480
1,note_on,53,0,0
1,note_on,61,54,0
1,note_on,54,44,0
1,note_on,61,0,360
1,note_on,60,49,0
1,note_on,60,0,60
1,note_on,61,45,0
1,note_on,61,0,60
1,note_on,54,0,0
1,note_on,60,52,0
1,note_on,53,44,0
1,note_on,60,0,360
1,note_on,58,46,0
1,note_on,58,0,108
1,note_on,53,0,12
1,note_on,54,42,0
1,note_on,58,50,0
1,note_on,58,0,360
1,note_on,58,41,0
1,note_on,58,0,108
1,note_on,54,0,12
1,note_on,53,39,0
1,note_on,58,46,0
1,note_on,53,0,480
1,note_on,54,32,0
1,note_on,54,0,480
1,note_on,58,0,0
1,note_on,73,68,0
1,note_on,82,83,0
1,note_on,70,68,0
1,note_on,70,0,240
1,note_on,82,0,0
1,note_on,68,56,0
1,note_on,80,73,0
1,note_on,80,0,180
1,note_on,68,0,0
1,note_on,68,64,0
1,note_on,68,0,20
1,note_on,73,57,0
1,note_on,73,0,20
1,note_on,80,59,0
1,note_on,80,0,20
1,note_on,73,74,0
1,note_on,78,73,0
1,note_on,66,61,0
1,note_on,78,0,360
1,note_on,65,52,0
1,note_on,77,61,0
1,note_on,77,0,108
1,note_on,65,0,0
1,note_on,66,0,12
1,note_on,73,0,0
1,note_on,73,0,0
1,note_on,65,58,0
1,note_on,77,69,0
1,note_on,73,69,0
1,note_on,73,0,480
1,note_on,77,0,0
1,note_on,65,0,0
1,note_on,73,68,0
1,note_on,61,57,0
1,note_on,70,68,0
1,note_on,70,0,480
1,note_on,61,0,0
1,note_on,73,0,0
1,note_on,73,68,0
1,note_on,82,83,0
1,note_on,70,68,0
1,note_on,70,0,240
1,note_on,82,0,0
1,note_on,68,56,0
1,note_on,80,73,0
1,note_on,80,0,180
1,note_on,68,0,0
1,note_on,68,66,0
1,note_on,68,0,20
1,note_on,73,58,0
1,note_on,73,0,20
1,note_on,80,58,0
1,note_on,80,0,20
1,note_on,73,76,0
1,note_on,78,73,0
1,note_on,66,63,0
1,note_on,78,0,360
1,note_on,65,52,0
1,note_on,77,61,0
1,note_on,77,0,108
1,note_on,65,0,0
1,note_on,66,0,12
1,note_on,73,0,0
1,note_on,73,0,0
1,note_on,65,58,0
1,note_on,77,69,0
1,note_on,73,69,0
1,note_on,73,0,480
1,note_on,77,0,0
1,note_on,65,0,0
1,note_on,73,68,0
1,note_on,61,57,0
1,note_on,70,68,0
1,note_on,70,0,480
1,note_on,61,0,0
1,note_on,73,0,0
1,note_on,58,52,0
1,note_on,65,52,0
1,note_on,70,61,0
1,note_on,70,0,480
1,note_on,65,0,0
1,note_on,58,0,0
1,note_on,58,53,0
1,note_on,66,53,0
1,note_on,70,63,0
1,note_on,70,0,360
1,note_on,58,0,0
1,note_on,58,48,0
1,note_on,70,57,0
1,note_on,70,0,108
1,note_on,58,0,0
1,note_on,66,0,12
1,note_on,58,54,0
1,note_on,65,54,0
1,note_on,70,65,0
1,note_on,70,0,480
1,note_on,65,0,0
1,note_on,58,0,0
1,note_on,61,68,0
1,note_on,73,82,0
1,note_on,66,66,0
1,note_on,73,0,360
1,note_on,61,0,0
1,note_on,60,59,0
1,note_on,72,71,0
1,note_on,72,0,108
1,note_on,60,0,0
1,note_on,66,0,12
1,note_on,60,68,0
1,note_on,72,79,0
1,note_on,65,68,0
1,note_on,72,0,360
1,note_on,60,0,0
1,note_on,58,59,0
1,note_on,70,71,0
1,note_on,70,0,108
1,note_on,58,0,0
1,note_on,65,0,12
1,note_on,58,64,0
1,note_on,66,64,0
1,note_on,70,77,0
1,note_on,70,0,360
1,note_on,58,0,0
1,note_on,58,60,0
1,note_on,70,72,0
1,note_on,70,0,108
1,note_on,58,0,0
1,note_on,66,0,12
1,note_on,58,63,0
1,note_on,65,64,0
1,note_on,70,76,0
1,note_on,70,0,480
1,note_on,65,0,0
1,note_on,58,0,0
1,note_on,68,75,0
1,note_on,60,75,0
1,note_on,72,95,0
1,note_on,66,75,0
1,note_on,66,0,480
1,note_on,68,0,0
1,note_on,60,0,0
1,note_on,72,0,0
1,note_on,61,78,0
1,note_on,65,78,0
1,note_on,73,100,0
1,note_on,73,0,480
1,note_on,65,0,0
1,note_on,61,0,0
1,note_on,65,74,0
1,note_on,73,74,0
1,note_on,77,89,0
1,note_on,77,0,360
1,note_on,73,0,0
1,note_on,65,0,0
1,note_on,66,74,0
1,note_on,78,89,0
1,note_on,78,0,120
1,note_on,66,0,0
1,note_on,68,78,0
1,note_on,73,78,0
1,note_on,80,93,0
1,note_on,80,0,360
1,note_on,73,0,0
1,note_on,68,0,0
1,note_on,70,78,0
1,note_on,82,93,0
1,note_on,82,0,120
1,note_on,70,0,0
1,note_on,72,84,0
1,note_on,80,84,0
1,note_on,84,99,0
1,note_on,84,0,360
1,note_on,80,0,0
1,note_on,72,0,0
1,note_on,73,88,0
1,note_on,85,102,0
1,note_on,85,0,120
1,note_on,73,0,0
1,note_on,84,88,0
1,note_on,80,88,0
1,note_on,77,88,0
1,note_on,89,103,0
1,note_on,89,0,960
1,note_on,77,0,0
1,note_on,75,79,0
1,note_on,87,95,0
1,note_on,87,0,720
1,note_on,84,0,0
1,note_on,80,0,0
1,note_on,75,0,0
1,note_on,66,75,120
1,note_on,72,75,0
1,note_on,75,75,0
1,note_on,78,89,0
1,note_on,78,0,120
1,note_on,66,0,0
1,note_on,72,0,0
1,note_on,75,0,0
1,note_on,75,80,0
1,note_on,65,80,0
1,note_on,72,80,0
1,note_on,77,102,0
1,note_on,77,0,480
1,note_on,75,0,0
1,note_on,65,0,0
1,note_on,72,0,0
1,note_on,70,74,0
1,note_on,65,74,0
1,note_on,73,74,0
1,note_on,77,89,0
1,note_on,77,0,360
1,note_on,70,0,0
1,note_on,65,0,0
1,note_on,73,0,0
1,note_on,67,74,0
1,note_on,79,89,0
1,note_on,79,0,120
1,note_on,67,0,0
1,note_on,77,78,0
1,note_on,69,78,0
1,note_on,73,78,0
1,note_on,81,93,0
1,note_on,81,0,360
1,note_on,77,0,0
1,note_on,69,0,0
1,note_on,73,0,0
1,note_on,70,78,0
1,note_on,82,93,0
1,note_on,82,0,120
1,note_on,70,0,0
1,note_on,72,84,0
1,note_on,77,84,0
1,note_on,84,99,0
1,note_on,84,0,360
1,note_on,77,0,0
1,note_on,72,0,0
1,note_on,73,88,0
1,note_on,85,102,0
1,note_on,85,0,60
1,note_on,73,0,0
1,note_on,70,88,0
1,note_on,76,88,20
1,note_on,79,88,20
1,note_on,85,103,20
1,note_on,85,0,960
1,note_on,70,0,0
1,note_on,76,0,0
1,note_on,79,0,0
1,note_on,72,76,0
1,note_on,77,76,0
1,note_on,84,90,0
1,note_on,84,0,480
1,note_on,77,0,0
1,note_on,72,0,0
1,note_on,56,68,480
1,note_on,54,68,0
1,note_on,60,68,0
1,note_on,65,68,0
1,note_on,68,80,0
1,note_on,68,0,480
1,note_on,60,0,0
1,note_on,56,0,0
1,note_on,54,0,0
1,note_on,65,0,0
1,note_on,54,68,0
1,note_on,56,68,0
1,note_on,60,68,0
1,note_on,63,68,0
1,note_on,68,80,0
1,note_on,68,0,480
1,note_on,60,0,0
1,note_on,54,0,0
1,note_on,56,0,0
1,note_on,63,0,0
1,note_on,53,68,0
1,note_on,61,68,0
1,note_on,68,80,0
1,note_on,68,0,480
1,note_on,61,0,0
1,note_on,53,0,0
1,note_on,57,68,480
1,note_on,51,68,0
1,note_on,61,68,0
1,note_on,65,80,0
1,note_on,65,0,480
1,note_on,57,0,0
1,note_on,51,0,0
1,note_on,61,0,0
1,note_on,51,68,0
1,note_on,57,68,0
1,note_on,60,68,0
1,note_on,65,80,0
1,note_on,65,0,480
1,note_on,51,0,0
1,note_on,57,0,0
1,note_on,60,0,0
1,note_on,49,68,0
1,note_on,58,80,0
1,note_on,58,0,960
1,note_on,49,0,0
1,note_on,46,39,0
1,note_on,53,39,0
1,note_on,58,46,0
1,note_on,58,0,480
1,note_on,53,0,0
1,note_on,46,0,0
1,note_on,54,39,0
1,note_on,58,46,0
1,note_on,58,0,360
1,note_on,58,41,0
1,note_on,58,0,108
1,note_on,54,0,12
1,note_on,53,39,0
1,note_on,58,46,0
1,note_on,58,0,480
1,note_on,53,0,0
1,note_on,61,54,0
1,note_on,54,44,0
1,note_on,61,0,360
1,note_on,60,49,0
1,note_on,60,0,60
1,note_on,61,45,0
1,note_on,61,0,60
1,note_on,54,0,0
1,note_on,60,52,0
1,note_on,53,44,0
1,note_on,60,0,360
1,note_on,58,46,0
1,note_on,58,0,120
1,note_on,53,0,0
1,note_on,54,42,0
1,note_on,58,50,0
1,note_on,58,0,360
1,note_on,58,41,0
1,note_on,58,0,108
1,note_on,54,0,12
1,note_on,53,39,0
1,note_on,58,46,0
1,note_on,58,0,480
1,note_on,53,0,0
1,note_on,55,76,0
1,note_on,61,97,0
1,note_on,52,76,0
1,note_on,52,0,360
1,note_on,61,0,0
1,note_on,55,0,0
1,note_on,54,76,0
1,note_on,60,76,0
1,note_on,63,97,0
1,note_on,63,0,120
1,note_on,60,0,0
1,note_on,54,0,0
1,note_on,53,79,0
1,note_on,61,79,0
1,note_on,65,101,0
1,note_on,65,0,480
1,note_on,61,0,0
1,note_on,53,0,0
1,note_on,65,74,0
1,note_on,73,74,0
1,note_on,77,89,0
1,note_on,77,0,360
1,note_on,73,0,0
1,note_on,65,0,0
1,note_on,66,74,0
1,note_on,78,89,0
1,note_on,78,0,120
1,note_on,66,0,0
1,note_on,68,79,0
1,note_on,73,79,0
1,note_on,80,93,0
1,note_on,80,0,360
1,note_on,73,0,0
1,note_on,68,0,0
1,note_on,70,79,0
1,note_on,82,93,0
1,note_on,82,0,120
1,note_on,70,0,0
1,note_on,72,84,0
1,note_on,80,84,0
1,note_on,84,100,0
1,note_on,84,0,360
1,note_on,80,0,0
1,note_on,72,0,0
1,note_on,73,88,0
1,note_on,85,103,0
1,note_on,85,0,120
1,note_on,73,0,0
1,note_on,84,88,0
1,note_on,80,88,0
1,note_on,77,88,0
1,note_on,89,104,0
1,note_on,89,0,960
1,note_on,77,0,0
1,note_on,75,79,0
1,note_on,87,95,0
1,note_on,87,0,720
1,note_on,84,0,0
1,note_on,80,0,0
1,note_on,75,0,0
1,note_on,66,72,120
1,note_on,72,72,0
1,note_on,75,72,0
1,note_on,78,85,0
1,note_on,78,0,120
1,note_on,66,0,0
1,note_on,72,0,0
1,note_on,75,0,0
1,note_on,75,77,0
1,note_on,65,77,0
1,note_on,72,77,0
1,note_on,77,98,0
1,note_on,77,0,480
1,note_on,75,0,0
1,note_on,65,0,0
1,note_on,72,0,0
1,note_on,70,74,0
1,note_on,65,74,0
1,note_on,73,74,0
1,note_on,77,89,0
1,note_on,77,0,360
1,note_on,70,0,0
1,note_on,65,0,0
1,note_on,73,0,0
1,note_on,67,74,0
1,note_on,79,89,0
1,note_on,79,0,120
1,note_on,67,0,0
1,note_on,77,78,0
1,note_on,69,78,0
1,note_on,73,78,0
1,note_on,81,93,0
1,note_on,81,0,360
1,note_on,77,0,0
1,note_on,69,0,0
1,note_on,73,0,0
1,note_on,70,78,0
1,note_on,82,93,0
1,note_on,82,0,120
1,note_on,70,0,0
1,note_on,72,84,0
1,note_on,77,84,0
1,note_on,84,99,0
1,note_on,84,0,360
1,note_on,77,0,0
1,note_on,72,0,0
1,note_on,73,88,0
1,note_on,85,102,0
1,note_on,85,0,60
1,note_on,73,0,0
1,note_on,70,88,0
1,note_on,76,88,20
1,note_on,79,88,20
1,note_on,85,103,20
1,note_on,85,0,960
1,note_on,70,0,0
1,note_on,76,0,0
1,note_on,79,0,0
1,note_on,72,76,0
1,note_on,77,76,0
1,note_on,84,90,0
1,note_on,84,0,480
1,note_on,77,0,0
1,note_on,72,0,0
1,note_on,56,68,480
1,note_on,54,68,0
1,note_on,60,68,0
1,note_on,65,68,0
1,note_on,68,80,0
1,note_on,68,0,480
1,note_on,60,0,0
1,note_on,56,0,0
1,note_on,54,0,0
1,note_on,65,0,0
1,note_on,54,68,0
1,note_on,56,68,0
1,note_on,60,68,0
1,note_on,63,68,0
1,note_on,68,80,0
1,note_on,68,0,480
1,note_on,60,0,0
1,note_on,54,0,0
1,note_on,56,0,0
1,note_on,63,0,0
1,note_on,53,68,0
1,note_on,61,68,0
1,note_on,68,80,0
1,note_on,68,0,480
1,note_on,61,0,0
1,note_on,53,0,0
1,note_on,57,68,480
1,note_on,51,68,0
1,note_on,61,68,0
1,note_on,65,80,0
1,note_on,65,0,480
1,note_on,57,0,0
1,note_on,51,0,0
1,note_on,61,0,0
1,note_on,51,68,0
1,note_on,57,68,0
1,note_on,60,68,0
1,note_on,65,80,0
1,note_on,65,0,480
1,note_on,51,0,0
1,note_on,57,0,0
1,note_on,60,0,0
1,note_on,49,68,0
1,note_on,58,80,0
1,note_on,58,0,960
1,note_on,49,0,0
1,note_on,46,39,0
1,note_on,53,39,0
1,note_on,58,46,0
1,note_on,58,0,480
1,note_on,53,0,0
1,note_on,46,0,0
1,note_on,54,39,0
1,note_on,58,46,0
1,note_on,58,0,360
1,note_on,58,41,0
1,note_on,58,0,108
1,note_on,54,0,12
1,note_on,53,39,0
1,note_on,58,46,0
1,note_on,58,0,480
1,note_on,53,0,0
1,note_on,61,45,0
1,note_on,54,37,0
1,note_on,61,0,360
1,note_on,60,40,0
1,note_on,60,0,60
1,note_on,61,37,0
1,note_on,61,0,60
1,note_on,54,0,0
1,note_on,60,42,0
1,note_on,53,36,0
1,note_on,60,0,360
1,note_on,58,36,0
1,note_on,58,0,108
1,note_on,53,0,12
1,note_on,54,33,0
1,note_on,58,40,0
1,note_on,58,0,360
1,note_on,58,28,0
1,note_on,58,0,108
1,note_on,54,0,12
1,note_on,49,26,0
1,note_on,53,26,0
1,note_on,58,31,0
1,note_on,58,0,960
1,note_on,53,0,0
1,note_on,49,0,0
2,note_on,34,28,0
2,note_on,41,28,0
2,note_on,46,34,0
2,note_on,46,0,445
2,note_on,41,0,0
2,note_on,34,0,0
2,note_on,37,25,0
2,note_on,42,25,0
2,note_on,49,30,0
2,note_on,49,0,332
2,note_on,42,0,0
2,note_on,37,0,0
2,note_on,34,28,0
2,note_on,41,28,0
2,note_on,46,34,0
2,note_on,46,0,311
2,note_on,41,0,0
2,note_on,34,0,0
2,note_on,37,23,0
2,note_on,42,23,0
2,note_on,49,28,0
2,note_on,49,0,311
2,note_on,42,0,0
2,note_on,37,0,0
2,note_on,34,28,0
2,note_on,41,28,0
2,note_on,46,34,0
2,note_on,46,0,353
2,note_on,41,0,0
2,note_on,34,0,0
2,note_on,37,25,0
2,note_on,42,25,0
2,note_on,49,30,0
2,note_on,49,0,268
2,note_on,42,0,0
2,note_on,37,0,0
2,note_on,34,28,0
2,note_on,41,28,0
2,note_on,46,34,0
2,note_on,46,0,289
2,note_on,41,0,0
2,note_on,34,0,0
2,note_on,37,22,0
2,note_on,42,22,0
2,note_on,49,27,0
2,note_on,49,0,282
2,note_on,42,0,0
2,note_on,37,0,0
2,note_on,34,28,0
2,note_on,41,28,0
2,note_on,46,34,0
2,note_on,46,0,360
2,note_on,41,0,0
2,note_on,34,0,0
2,note_on,37,25,0
2,note_on,42,30,0
2,note_on,49,30,0
2,note_on,49,0,296
2,note_on,42,0,0
2,note_on,37,0,0
2,note_on,34,28,0
2,note_on,41,28,0
2,note_on,46,34,0
2,note_on,46,0,254
2,note_on,41,0,0
2,note_on,34,0,0
2,note_on,37,22,0
2,note_on,42,27,0
2,note_on,49,27,0
2,note_on,49,0,360
2,note_on,42,0,0
2,note_on,37,0,0
2,note_on,34,28,0
2,note_on,41,28,0
2,note_on,46,34,0
2,note_on,46,0,402
2,note_on,41,0,0
2,note_on,34,0,0
2,note_on,37,25,0
2,note_on,42,25,0
2,note_on,49,30,0
2,note_on,49,0,332
2,note_on,42,0,0
2,note_on,37,0,0
2,note_on,34,28,0
2,note_on,41,28,0
2,note_on,46,34,0
2,note_on,46,0,367
2,note_on,41,0,0
2,note_on,34,0,0
2,note_on,37,22,0
2,note_on,42,22,0
2,note_on,49,27,0
2,note_on,49,0,339
2,note_on,42,0,0
2,note_on,37,0,0
2,note_on,34,35,0
2,note_on,41,35,0
2,note_on,46,42,0
2,note_on,46,0,409
2,note_on,41,0,0
2,note_on,34,0,0
2,note_on,37,30,0
2,note_on,42,37,0
2,note_on,49,37,0
2,note_on,49,0,321
2,note_on,42,0,0
2,note_on,37,0,0
2,note_on,34,35,0
2,note_on,41,35,0
2,note_on,46,42,0
2,note_on,46,0,367
2,note_on,41,0,0
2,note_on,34,0,0
2,note_on,37,27,0
2,note_on,42,34,0
2,note_on,49,34,0
2,note_on,49,0,402
2,note_on,42,0,0
2,note_on,37,0,0
2,note_on,34,35,0
2,note_on,41,35,0
2,note_on,46,42,0
2,note_on,46,0,402
2,note_on,41,0,0
2,note_on,34,0,0
2,note_on,37,30,0
2,note_on,42,30,0
2,note_on,49,37,0
2,note_on,49,0,374
2,note_on,42,0,0
2,note_on,37,0,0
2,note_on,34,35,0
2,note_on,41,35,0
2,note_on,46,42,0
2,note_on,46,0,339
2,note_on,41,0,0
2,note_on,34,0,0
2,note_on,37,27,0
2,note_on,42,27,0
2,note_on,49,34,0
2,note_on,49,0,388
2,note_on,42,0,0
2,note_on,37,0,0
2,note_on,34,42,0
2,note_on,41,42,0
2,note_on,46,52,0
2,note_on,46,0,399
2,note_on,41,0,0
2,note_on,34,0,0
2,note_on,37,36,0
2,note_on,42,36,0
2,note_on,49,44,0
2,note_on,49,0,402
2,note_on,42,0,0
2,note_on,37,0,0
2,note_on,34,38,0
2,note_on,41,38,0
2,note_on,46,46,0
2,note_on,46,0,399
2,note_on,41,0,0
2,note_on,34,0,0
2,note_on,37,27,0
2,note_on,42,27,0
2,note_on,49,35,0
2,note_on,49,0,416
2,note_on,42,0,0
2,note_on,37,0,0
2,note_on,34,42,0
2,note_on,41,42,0
2,note_on,46,52,0
2,note_on,46,0,445
2,note_on,41,0,0
2,note_on,34,0,0
2,note_on,37,36,0
2,note_on,42,36,0
2,note_on,49,44,0
2,note_on,49,0,399
2,note_on,42,0,0
2,note_on,37,0,0
2,note_on,34,38,0
2,note_on,41,38,0
2,note_on,46,46,0
2,note_on,46,0,420
2,note_on,41,0,0
2,note_on,34,0,0
2,note_on,37,27,0
2,note_on,42,27,0
2,note_on,49,35,0
2,note_on,49,0,427
2,note_on,42,0,0
2,note_on,37,0,0
2,note_on,34,32,0
2,note_on,41,32,0
2,note_on,46,39,0
2,note_on,46,0,416
2,note_on,41,0,0
2,note_on,34,0,0
2,note_on,37,28,0
2,note_on,42,34,0
2,note_on,49,34,0
2,note_on,49,0,339
2,note_on,42,0,0
2,note_on,37,0,0
2,note_on,34,32,0
2,note_on,41,32,0
2,note_on,46,39,0
2,note_on,46,0,346
2,note_on,41,0,0
2,note_on,34,0,0
2,note_on,37,25,0
2,note_on,42,31,0
2,note_on,49,31,0
2,note_on,49,0,395
2,note_on,42,0,0
2,note_on,37,0,0
2,note_on,34,32,0
2,note_on,41,32,0
2,note_on,46,39,0
2,note_on,46,0,367
2,note_on,41,0,0
2,note_on,34,0,0
2,note_on,37,28,0
2,note_on,42,28,0
2,note_on,49,34,0
2,note_on,49,0,296
2,note_on,42,0,0
2,note_on,37,0,0
2,note_on,34,32,0
2,note_on,41,32,0
2,note_on,46,39,0
2,note_on,46,0,304
2,note_on,41,0,0
2,note_on,34,0,0
2,note_on,37,25,0
2,note_on,42,25,0
2,note_on,49,31,0
2,note_on,49,0,339
2,note_on,42,0,0
2,note_on,37,0,0
2,note_on,34,47,0
2,note_on,41,47,0
2,note_on,46,57,0
2,note_on,46,0,416
2,note_on,41,0,0
2,note_on,34,0,0
2,note_on,37,37,0
2,note_on,42,37,0
2,note_on,49,46,0
2,note_on,49,0,399
2,note_on,42,0,0
2,note_on,37,0,0
2,note_on,34,39,0
2,note_on,41,39,0
2,note_on,46,48,0
2,note_on,46,0,413
2,note_on,41,0,0
2,note_on,34,0,0
2,note_on,37,30,0
2,note_on,42,30,0
2,note_on,49,38,0
2,note_on,49,0,392
2,note_on,42,0,0
2,note_on,37,0,0
2,note_on,34,47,0
2,note_on,41,47,0
2,note_on,46,57,0
2,note_on,46,0,413
2,note_on,41,0,0
2,note_on,34,0,0
2,note_on,37,37,0
2,note_on,42,37,0
2,note_on,49,46,0
2,note_on,49,0,420
2,note_on,42,0,0
2,note_on,37,0,0
2,note_on,34,39,0
2,note_on,41,39,0
2,note_on,46,48,0
2,note_on,46,0,346
2,note_on,41,0,0
2,note_on,34,0,0
2,note_on,37,30,0
2,note_on,42,30,0
2,note_on,49,38,0
2,note_on,49,0,328
2,note_on,42,0,0
2,note_on,37,0,0
2,note_on,34,43,0
2,note_on,41,43,0
2,note_on,46,52,0
2,note_on,46,0,332
2,note_on,41,0,0
2,note_on,34,0,0
2,note_on,37,37,0
2,note_on,42,46,0
2,note_on,49,46,0
2,note_on,49,0,289
2,note_on,42,0,0
2,note_on,37,0,0
2,note_on,34,45,0
2,note_on,41,45,0
2,note_on,46,54,0
2,note_on,46,0,339
2,note_on,41,0,0
2,note_on,34,0,0
2,note_on,37,36,0
2,note_on,42,46,0
2,note_on,49,46,0
2,note_on,49,0,325
2,note_on,42,0,0
2,note_on,37,0,0
2,note_on,34,49,0
2,note_on,41,49,0
2,note_on,46,58,0
2,note_on,46,0,325
2,note_on,41,0,0
2,note_on,34,0,0
2,note_on,37,42,0
2,note_on,42,42,0
2,note_on,49,51,0
2,note_on,49,0,339
2,note_on,42,0,0
2,note_on,37,0,0
2,note_on,34,53,0
2,note_on,41,53,0
2,note_on,46,64,0
2,note_on,46,0,360
2,note_on,41,0,0
2,note_on,34,0,0
2,note_on,32,56,0
2,note_on,44,71,0
2,note_on,44,0,367
2,note_on,32,0,0
2,note_on,25,59,0
2,note_on,37,74,0
2,note_on,37,0,360
2,note_on,25,0,0
2,note_on,49,64,0
2,note_on,56,64,0
2,note_on,61,76,0
2,note_on,61,0,247
2,note_on,56,0,0
2,note_on,49,0,0
2,note_on,63,76,0
2,note_on,63,0,120
2,note_on,49,68,0
2,note_on,56,68,0
2,note_on,65,80,0
2,note_on,65,0,261
2,note_on,56,0,0
2,note_on,49,0,0
2,note_on,66,80,0
2,note_on,66,0,120
2,note_on,63,73,0
2,note_on,56,73,0
2,note_on,68,86,0
2,note_on,68,0,247
2,note_on,56,0,0
2,note_on,63,0,0
2,note_on,65,85,0
2,note_on,65,0,120
2,note_on,32,77,0
2,note_on,44,92,0
2,note_on,44,0,371
2,note_on,32,0,0
2,note_on,63,69,0
2,note_on,66,69,0
2,note_on,72,81,0
2,note_on,72,0,360
2,note_on,66,0,0
2,note_on,63,0,0
2,note_on,61,65,0
2,note_on,66,65,0
2,note_on,70,76,0
2,note_on,70,0,108
2,note_on,66,0,0
2,note_on,61,0,0
2,note_on,61,63,12
2,note_on,66,63,0
2,note_on,70,75,0
2,note_on,70,0,211
2,note_on,66,0,0
2,note_on,61,0,0
2,note_on,60,59,0
2,note_on,66,59,0
2,note_on,68,71,0
2,note_on,68,0,108
2,note_on,66,0,0
2,note_on,60,0,0
2,note_on,60,57,12
2,note_on,66,57,0
2,note_on,68,68,0
2,note_on,68,0,263
2,note_on,66,0,0
2,note_on,60,0,0
2,note_on,57,66,0
2,note_on,60,66,0
2,note_on,63,77,0
2,note_on,63,0,120
2,note_on,60,0,0
2,note_on,57,0,0
2,note_on,34,66,0
2,note_on,46,78,0
2,note_on,46,0,394
2,note_on,34,0,0
2,note_on,53,63,0
2,note_on,58,63,0
2,note_on,61,75,0
2,note_on,61,0,389
2,note_on,58,0,0
2,note_on,53,0,0
2,note_on,37,68,0
2,note_on,49,80,0
2,note_on,49,0,349
2,note_on,37,0,0
2,note_on,65,76,0
2,note_on,61,64,0
2,note_on,58,64,0
2,note_on,53,64,0
2,note_on,53,0,400
2,note_on,65,0,0
2,note_on,61,0,0
2,note_on,58,0,0
2,note_on,29,77,0
2,note_on,41,92,0
2,note_on,41,0,353
2,note_on,29,0,0
2,note_on,53,69,0
2,note_on,58,69,0
2,note_on,61,69,0
2,note_on,67,81,0
2,note_on,67,0,480
2,note_on,53,0,0
2,note_on,58,0,0
2,note_on,61,0,0
2,note_on,53,64,0
2,note_on,57,64,0
2,note_on,60,64,0
2,note_on,69,75,0
2,note_on,69,0,360
2,note_on,53,0,0
2,note_on,57,0,0
2,note_on,60,0,0
2,note_on,53,81,0
2,note_on,53,0,228
2,note_on,43,61,0
2,note_on,43,0,60
2,note_on,44,61,0
2,note_on,44,0,80
2,note_on,46,61,0
2,note_on,46,0,80
2,note_on,44,61,0
2,note_on,44,0,5
2,note_on,46,56,0
2,note_on,46,0,45
2,note_on,44,64,0
2,note_on,44,0,45
2,note_on,46,57,0
2,note_on,46,0,45
2,note_on,44,66,0
2,note_on,44,0,45
2,note_on,46,59,0
2,note_on,46,0,45
2,note_on,44,68,0
2,note_on,44,0,45
2,note_on,46,61,0
2,note_on,46,0,45
2,note_on,44,70,0
2,note_on,44,0,45
2,note_on,46,65,0
2,note_on,46,0,45
2,note_on,44,73,0
2,note_on,44,0,45
2,note_on,46,66,0
2,note_on,46,0,43
2,note_on,44,72,0
2,note_on,44,0,45
2,note_on,46,63,1
2,note_on,44,69,44
2,note_on,46,0,1
2,note_on,44,0,44
2,note_on,46,60,0
2,note_on,44,66,45
2,note_on,46,0,1
2,note_on,44,0,59
2,note_on,46,58,0
2,note_on,46,0,60
2,note_on,43,64,0
2,note_on,43,0,60
2,note_on,44,55,0
2,note_on,44,0,60
2,note_on,49,68,0
2,note_on,49,0,371
2,note_on,49,79,0
2,note_on,49,0,234
2,note_on,40,61,0
2,note_on,40,0,51
2,note_on,41,61,0
2,note_on,41,0,80
2,note_on,42,61,0
2,note_on,42,0,80
2,note_on,41,61,0
2,note_on,41,0,28
2,note_on,42,56,0
2,note_on,42,0,41
2,note_on,41,64,0
2,note_on,41,0,45
2,note_on,42,57,0
2,note_on,42,0,45
2,note_on,41,66,0
2,note_on,41,0,45
2,note_on,42,59,0
2,note_on,42,0,45
2,note_on,41,68,0
2,note_on,41,0,45
2,note_on,42,61,0
2,note_on,42,0,45
2,note_on,41,70,0
2,note_on,41,0,45
2,note_on,42,65,0
2,note_on,42,0,45
2,note_on,41,73,0
2,note_on,41,0,45
2,note_on,42,66,0
2,note_on,42,0,14
2,note_on,41,72,0
2,note_on,41,0,45
2,note_on,42,63,1
2,note_on,41,69,44
2,note_on,42,0,1
2,note_on,41,0,44
2,note_on,42,60,0
2,note_on,41,66,45
2,note_on,42,0,1
2,note_on,41,0,59
2,note_on,42,58,0
2,note_on,42,0,60
2,note_on,40,64,0
2,note_on,40,0,60
2,note_on,41,55,0
2,note_on,41,0,60
2,note_on,42,64,0
2,note_on,42,0,377
2,note_on,41,49,0
2,note_on,41,0,240
2,note_on,37,40,0
2,note_on,37,0,240
2,note_on,34,32,0
2,note_on,41,32,0
2,note_on,46,39,0
2,note_on,46,0,416
2,note_on,41,0,0
2,note_on,34,0,0
2,note_on,37,28,0
2,note_on,42,34,0
2,note_on,49,34,0
2,note_on,49,0,339
2,note_on,42,0,0
2,note_on,37,0,0
2,note_on,34,32,0
2,note_on,41,32,0
2,note_on,46,39,0
2,note_on,46,0,346
2,note_on,41,0,0
2,note_on,34,0,0
2,note_on,37,25,0
2,note_on,42,31,0
2,note_on,49,31,0
2,note_on,49,0,395
2,note_on,42,0,0
2,note_on,37,0,0
2,note_on,34,32,0
2,note_on,41,32,0
2,note_on,46,39,0
2,note_on,46,0,367
2,note_on,41,0,0
2,note_on,34,0,0
2,note_on,37,28,0
2,note_on,42,28,0
2,note_on,49,34,0
2,note_on,49,0,296
2,note_on,42,0,0
2,note_on,37,0,0
2,note_on,34,32,0
2,note_on,41,32,0
2,note_on,46,39,0
2,note_on,46,0,304
2,note_on,41,0,0
2,note_on,34,0,0
2,note_on,33,57,0
2,note_on,45,73,0
2,note_on,45,0,247
2,note_on,33,0,0
2,note_on,32,57,0
2,note_on,44,73,0
2,note_on,44,0,120
2,note_on,32,0,0
2,note_on,25,60,0
2,note_on,37,76,0
2,note_on,37,0,402
2,note_on,25,0,0
2,note_on,49,67,0
2,note_on,56,67,0
2,note_on,61,80,0
2,note_on,61,0,247
2,note_on,56,0,0
2,note_on,49,0,0
2,note_on,63,80,0
2,note_on,63,0,120
2,note_on,49,71,0
2,note_on,56,71,0
2,note_on,65,85,0
2,note_on,65,0,261
2,note_on,56,0,0
2,note_on,49,0,0
2,note_on,66,85,0
2,note_on,66,0,120
2,note_on,63,76,0
2,note_on,56,76,0
2,note_on,68,90,0
2,note_on,68,0,247
2,note_on,56,0,0
2,note_on,63,0,0
2,note_on,65,89,0
2,note_on,65,0,120
2,note_on,32,81,0
2,note_on,44,96,0
2,note_on,44,0,371
2,note_on,32,0,0
2,note_on,63,72,0
2,note_on,66,72,0
2,note_on,72,85,0
2,note_on,72,0,360
2,note_on,66,0,0
2,note_on,63,0,0
2,note_on,61,67,0
2,note_on,66,67,0
2,note_on,70,79,0
2,note_on,70,0,120
2,note_on,66,0,0
2,note_on,61,0,0
2,note_on,61,66,0
2,note_on,66,66,0
2,note_on,70,78,0
2,note_on,70,0,211
2,note_on,66,0,0
2,note_on,61,0,0
2,note_on,60,61,0
2,note_on,66,61,0
2,note_on,68,73,0
2,note_on,68,0,120
2,note_on,66,0,0
2,note_on,60,0,0
2,note_on,60,60,0
2,note_on,66,60,0
2,note_on,68,71,0
2,note_on,68,0,263
2,note_on,66,0,0
2,note_on,60,0,0
2,note_on,57,66,0
2,note_on,60,66,0
2,note_on,63,77,0
2,note_on,63,0,120
2,note_on,60,0,0
2,note_on,57,0,0
2,note_on,34,66,0
2,note_on,46,78,0
2,note_on,46,0,394
2,note_on,34,0,0
2,note_on,53,63,0
2,note_on,58,63,0
2,note_on,61,75,0
2,note_on,61,0,389
2,note_on,58,0,0
2,note_on,53,0,0
2,note_on,37,68,0
2,note_on,49,80,0
2,note_on,49,0,349
2,note_on,37,0,0
2,note_on,65,76,0
2,note_on,61,64,0
2,note_on,58,64,0
2,note_on,53,64,0
2,note_on,53,0,400
2,note_on,65,0,0
2,note_on,61,0,0
2,note_on,58,0,0
2,note_on,29,77,0
2,note_on,41,92,0
2,note_on,41,0,353
2,note_on,29,0,0
2,note_on,53,69,0
2,note_on,58,69,0
2,note_on,61,69,0
2,note_on,67,81,0
2,note_on,67,0,480
2,note_on,53,0,0
2,note_on,58,0,0
2,note_on,61,0,0
2,note_on,53,64,0
2,note_on,57,64,0
2,note_on,60,64,0
2,note_on,69,75,0
2,note_on,69,0,296
2,note_on,53,0,0
2,note_on,57,0,0
2,note_on,60,0,0
2,note_on,53,81,0
2,note_on,53,0,63
2,note_on,43,61,0
2,note_on,43,0,60
2,note_on,44,61,0
2,note_on,44,0,80
2,note_on,46,61,0
2,note_on,46,0,80
2,note_on,44,61,0
2,note_on,44,0,5
2,note_on,46,56,0
2,note_on,46,0,45
2,note_on,44,64,0
2,note_on,44,0,45
2,note_on,46,57,0
2,note_on,46,0,45
2,note_on,44,66,0
2,note_on,44,0,45
2,note_on,46,59,0
2,note_on,46,0,45
2,note_on,44,68,0
2,note_on,44,0,45
2,note_on,46,61,0
2,note_on,46,0,45
2,note_on,44,70,0
2,note_on,44,0,45
2,note_on,46,65,0
2,note_on,46,0,45
2,note_on,44,73,0
2,note_on,44,0,3
2,note_on,46,66,0
2,note_on,46,0,17
2,note_on,44,72,0
2,note_on,44,0,45
2,note_on,46,63,1
2,note_on,44,69,44
2,note_on,46,0,1
2,note_on,44,0,44
2,note_on,46,60,0
2,note_on,44,66,45
2,note_on,46,0,1
2,note_on,44,0,59
2,note_on,46,58,0
2,note_on,46,0,60
2,note_on,43,64,0
2,note_on,43,0,60
2,note_on,44,55,0
2,note_on,44,0,60
2,note_on,49,68,0
2,note_on,49,0,371
2,note_on,49,68,0
2,note_on,49,0,68
2,note_on,40,61,0
2,note_on,40,0,51
2,note_on,41,61,0
2,note_on,41,0,80
2,note_on,42,61,0
2,note_on,42,0,80
2,note_on,41,61,0
2,note_on,41,0,27
2,note_on,42,56,0
2,note_on,42,0,44
2,note_on,41,64,0
2,note_on,41,0,45
2,note_on,42,57,0
2,note_on,42,0,45
2,note_on,41,66,0
2,note_on,41,0,45
2,note_on,42,59,0
2,note_on,42,0,45
2,note_on,41,68,0
2,note_on,41,0,45
2,note_on,42,61,0
2,note_on,42,0,45
2,note_on,41,70,0
2,note_on,41,0,45
2,note_on,42,65,0
2,note_on,42,0,45
2,note_on,41,73,0
2,note_on,41,0,45
2,note_on,42,66,0
2,note_on,42,0,14
2,note_on,41,72,0
2,note_on,41,0,45
2,note_on,42,63,1
2,note_on,41,69,44
2,note_on,42,0,1
2,note_on,41,0,44
2,note_on,42,60,0
2,note_on,41,66,45
2,note_on,42,0,1
2,note_on,41,0,59
2,note_on,42,58,0
2,note_on,42,0,60
2,note_on,40,64,0
2,note_on,40,0,60
2,note_on,41,55,0
2,note_on,41,0,60
2,note_on,42,64,0
2,note_on,42,0,377
2,note_on,41,51,0
2,note_on,41,0,240
2,note_on,37,39,0
2,note_on,37,0,240
2,note_on,34,32,0
2,note_on,41,32,0
2,note_on,46,39,0
2,note_on,46,0,416
2,note_on,41,0,0
2,note_on,34,0,0
2,note_on,37,28,0
2,note_on,42,34,0
2,note_on,49,34,0
2,note_on,49,0,339
2,note_on,42,0,0
2,note_on,37,0,0
2,note_on,34,32,0
2,note_on,41,32,0
2,note_on,46,39,0
2,note_on,46,0,346
2,note_on,41,0,0
2,note_on,34,0,0
2,note_on,37,25,0
2,note_on,42,31,0
2,note_on,49,31,0
2,note_on,49,0,395
2,note_on,42,0,0
2,note_on,37,0,0
2,note_on,34,32,0
2,note_on,41,32,0
2,note_on,46,39,0
2,note_on,46,0,367
2,note_on,41,0,0
2,note_on,34,0,0
2,note_on,37,28,0
2,note_on,42,28,0
2,note_on,49,34,0
2,note_on,49,0,296
2,note_on,42,0,0
2,note_on,37,0,0
2,note_on,34,32,0
2,note_on,41,32,0
2,note_on,46,39,0
2,note_on,46,0,304
2,note_on,41,0,0
2,note_on,34,0,0
2,note_on,32,32,0
2,note_on,44,39,0
2,note_on,44,0,460
2,note_on,32,0,0
2,note_on,37,33,0
2,note_on,37,0,155
2,note_on,44,27,0
2,note_on,44,0,240
2,note_on,53,27,0
2,note_on,53,0,240
2,note_on,61,28,0
2,note_on,61,0,240
2,note_on,37,33,0
2,note_on,37,0,240
2,note_on,44,27,0
2,note_on,44,0,240
2,note_on,53,27,0
2,note_on,53,0,240
2,note_on,61,28,0
2,note_on,61,0,240
2,note_on,39,33,0
2,note_on,39,0,113
2,note_on,44,27,0
2,note_on,44,0,240
2,note_on,54,24,0
2,note_on,54,0,240
2,note_on,60,24,0
2,note_on,60,0,240
2,note_on,39,31,0
2,note_on,39,0,240
2,note_on,44,24,0
2,note_on,44,0,240
2,note_on,54,27,0
2,note_on,54,0,240
2,note_on,60,25,0
2,note_on,60,0,240
2,note_on,32,33,0
2,note_on,32,0,56
2,note_on,44,29,0
2,note_on,44,0,240
2,note_on,54,29,0
2,note_on,54,0,240
2,note_on,60,30,0
2,note_on,60,0,240
2,note_on,32,36,0
2,note_on,32,0,240
2,note_on,44,30,0
2,note_on,44,0,240
2,note_on,54,30,0
2,note_on,54,0,240
2,note_on,60,31,0
2,note_on,60,0,240
2,note_on,37,36,0
2,note_on,37,0,99
2,note_on,44,30,0
2,note_on,44,0,240
2,note_on,53,28,0
2,note_on,53,0,240
2,note_on,61,25,0
2,note_on,61,0,240
2,note_on,37,33,0
2,note_on,37,0,240
2,note_on,44,27,0
2,note_on,44,0,240
2,note_on,53,29,0
2,note_on,53,0,240
2,note_on,61,27,0
2,note_on,61,0,240
2,note_on,37,33,0
2,note_on,37,0,103
2,note_on,44,27,0
2,note_on,44,0,240
2,note_on,53,30,0
2,note_on,53,0,240
2,note_on,61,28,0
2,note_on,61,0,240
2,note_on,34,33,0
2,note_on,34,0,106
2,note_on,46,29,0
2,note_on,46,0,240
2,note_on,56,29,0
2,note_on,56,0,240
2,note_on,62,30,0
2,note_on,62,0,240
2,note_on,39,33,0
2,note_on,39,0,148
2,note_on,46,30,0
2,note_on,46,0,240
2,note_on,54,30,0
2,note_on,54,0,240
2,note_on,63,27,0
2,note_on,63,0,240
2,note_on,42,33,0
2,note_on,42,0,143
2,note_on,51,29,0
2,note_on,51,0,240
2,note_on,58,30,0
2,note_on,58,0,240
2,note_on,63,27,0
2,note_on,63,0,120
2,note_on,43,33,43
2,note_on,43,0,240
2,note_on,52,28,0
2,note_on,52,0,240
2,note_on,61,28,0
2,note_on,61,0,240
2,note_on,70,29,0
2,note_on,70,0,240
2,note_on,44,33,0
2,note_on,44,0,180
2,note_on,51,28,0
2,note_on,51,0,240
2,note_on,60,30,0
2,note_on,60,0,240
2,note_on,66,30,0
2,note_on,66,0,240
2,note_on,32,33,0
2,note_on,32,0,42
2,note_on,44,27,0
2,note_on,44,0,240
2,note_on,54,27,0
2,note_on,54,0,240
2,note_on,60,26,0
2,note_on,60,0,240
2,note_on,37,31,0
2,note_on,37,0,42
2,note_on,44,28,0
2,note_on,44,0,240
2,note_on,53,28,0
2,note_on,53,0,240
2,note_on,61,28,0
2,note_on,61,0,240
2,note_on,37,33,0
2,note_on,37,0,113
2,note_on,44,27,0
2,note_on,44,0,240
2,note_on,53,27,0
2,note_on,53,0,240
2,note_on,61,28,0
2,note_on,61,0,240
2,note_on,37,33,0
2,note_on,37,0,240
2,note_on,44,27,0
2,note_on,44,0,240
2,note_on,53,27,0
2,note_on,53,0,240
2,note_on,61,28,0
2,note_on,61,0,240
2,note_on,39,33,0
2,note_on,39,0,113
2,note_on,44,27,0
2,note_on,44,0,240
2,note_on,54,24,0
2,note_on,54,0,240
2,note_on,60,24,0
2,note_on,60,0,240
2,note_on,39,31,0
2,note_on,39,0,240
2,note_on,44,24,0
2,note_on,44,0,240
2,note_on,54,27,0
2,note_on,54,0,240
2,note_on,60,25,0
2,note_on,60,0,240
2,note_on,32,33,0
2,note_on,32,0,56
2,note_on,44,29,0
2,note_on,44,0,240
2,note_on,54,29,0
2,note_on,54,0,240
2,note_on,60,30,0
2,note_on,60,0,240
2,note_on,32,36,0
2,note_on,32,0,240
2,note_on,44,30,0
2,note_on,44,0,240
2,note_on,54,30,0
2,note_on,54,0,240
2,note_on,60,31,0
2,note_on,60,0,240
2,note_on,37,36,0
2,note_on,37,0,99
2,note_on,44,30,0
2,note_on,44,0,240
2,note_on,53,28,0
2,note_on,53,0,240
2,note_on,61,25,0
2,note_on,61,0,240
2,note_on,37,33,0
2,note_on,37,0,240
2,note_on,44,27,0
2,note_on,44,0,240
2,note_on,53,29,0
2,note_on,53,0,240
2,note_on,61,27,0
2,note_on,61,0,240
2,note_on,37,33,0
2,note_on,37,0,103
2,note_on,44,27,0
2,note_on,44,0,240
2,note_on,53,30,0
2,note_on,53,0,240
2,note_on,61,28,0
2,note_on,61,0,240
2,note_on,34,33,0
2,note_on,34,0,46
2,note_on,46,29,0
2,note_on,46,0,240
2,note_on,56,29,0
2,note_on,56,0,240
2,note_on,62,30,0
2,note_on,62,0,240
2,note_on,39,33,0
2,note_on,39,0,140
2,note_on,46,30,0
2,note_on,46,0,240
2,note_on,54,30,0
2,note_on,54,0,240
2,note_on,63,27,0
2,note_on,63,0,240
2,note_on,42,33,0
2,note_on,42,0,157
2,note_on,51,29,0
2,note_on,51,0,240
2,note_on,58,30,0
2,note_on,58,0,240
2,note_on,63,27,0
2,note_on,63,0,120
2,note_on,43,33,57
2,note_on,43,0,240
2,note_on,52,28,0
2,note_on,52,0,240
2,note_on,61,28,0
2,note_on,61,0,240
2,note_on,70,29,0
2,note_on,70,0,240
2,note_on,44,33,0
2,note_on,44,0,180
2,note_on,51,28,0
2,note_on,51,0,240
2,note_on,60,30,0
2,note_on,60,0,240
2,note_on,66,30,0
2,note_on,66,0,240
2,note_on,32,33,0
2,note_on,32,0,42
2,note_on,44,27,0
2,note_on,44,0,240
2,note_on,54,27,0
2,note_on,54,0,240
2,note_on,60,26,0
2,note_on,60,0,240
2,note_on,37,31,0
2,note_on,37,0,42
2,note_on,44,28,0
2,note_on,44,0,240
2,note_on,53,28,0
2,note_on,53,0,240
2,note_on,61,28,0
2,note_on,61,0,240
2,note_on,32,34,0
2,note_on,32,0,71
2,note_on,44,28,0
2,note_on,44,0,240
2,note_on,51,28,0
2,note_on,51,0,240
2,note_on,60,29,0
2,note_on,60,0,240
2,note_on,32,34,0
2,note_on,32,0,240
2,note_on,44,28,0
2,note_on,44,0,240
2,note_on,51,28,0
2,note_on,51,0,240
2,note_on,60,29,0
2,note_on,60,0,240
2,note_on,34,34,0
2,note_on,34,0,70
2,note_on,46,28,0
2,note_on,46,0,240
2,note_on,51,25,0
2,note_on,51,0,240
2,note_on,61,25,0
2,note_on,61,0,240
2,note_on,34,32,0
2,note_on,34,0,240
2,note_on,46,25,0
2,note_on,46,0,240
2,note_on,51,28,0
2,note_on,51,0,240
2,note_on,61,26,0
2,note_on,61,0,240
2,note_on,34,36,0
2,note_on,34,0,56
2,note_on,46,31,0
2,note_on,46,0,240
2,note_on,52,31,0
2,note_on,52,0,240
2,note_on,61,33,0
2,note_on,61,0,240
2,note_on,34,39,0
2,note_on,34,0,240
2,note_on,46,33,0
2,note_on,46,0,240
2,note_on,52,33,0
2,note_on,52,0,240
2,note_on,61,34,0
2,note_on,61,0,240
2,note_on,36,40,0
2,note_on,36,0,99
2,note_on,48,33,0
2,note_on,48,0,240
2,note_on,54,31,0
2,note_on,54,0,240
2,note_on,63,28,0
2,note_on,63,0,240
2,note_on,36,37,0
2,note_on,36,0,28
2,note_on,48,30,0
2,note_on,48,0,240
2,note_on,51,33,0
2,note_on,51,0,240
2,note_on,63,30,0
2,note_on,63,0,240
2,note_on,37,37,0
2,note_on,37,0,103
2,note_on,49,31,0
2,note_on,49,0,240
2,note_on,58,34,0
2,note_on,58,0,240
2,note_on,65,32,0
2,note_on,65,0,240
2,note_on,37,37,0
2,note_on,37,0,46
2,note_on,49,33,0
2,note_on,49,0,240
2,note_on,58,33,0
2,note_on,58,0,240
2,note_on,65,34,0
2,note_on,65,0,240
2,note_on,39,40,0
2,note_on,39,0,184
2,note_on,51,35,0
2,note_on,51,0,240
2,note_on,58,37,0
2,note_on,58,0,240
2,note_on,66,33,0
2,note_on,66,0,240
2,note_on,41,41,0
2,note_on,41,0,152
2,note_on,53,35,0
2,note_on,53,0,240
2,note_on,58,37,0
2,note_on,58,0,240
2,note_on,65,35,0
2,note_on,65,0,240
2,note_on,42,40,0
2,note_on,42,0,184
2,note_on,51,34,0
2,note_on,51,0,240
2,note_on,58,37,0
2,note_on,58,0,240
2,note_on,63,33,0
2,note_on,63,0,240
2,note_on,42,38,0
2,note_on,42,0,152
2,note_on,54,34,0
2,note_on,54,0,240
2,note_on,58,37,0
2,note_on,58,0,240
2,note_on,64,34,0
2,note_on,64,0,240
2,note_on,41,36,0
2,note_on,41,0,137
2,note_on,48,32,0
2,note_on,48,0,240
2,note_on,57,32,0
2,note_on,57,0,240
2,note_on,65,31,0
2,note_on,65,0,240
2,note_on,39,35,0
2,note_on,39,0,149
2,note_on,51,33,0
2,note_on,51,0,240
2,note_on,56,27,0
2,note_on,56,0,240
2,note_on,66,26,0
2,note_on,60,23,0
2,note_on,60,0,240
2,note_on,66,0,0
2,note_on,37,33,0
2,note_on,37,0,127
2,note_on,44,27,0
2,note_on,44,0,240
2,note_on,53,27,0
2,note_on,53,0,240
2,note_on,61,28,0
2,note_on,61,0,240
2,note_on,37,33,0
2,note_on,37,0,240
2,note_on,44,27,0
2,note_on,44,0,240
2,note_on,53,27,0
2,note_on,53,0,240
2,note_on,61,28,0
2,note_on,61,0,240
2,note_on,39,33,0
2,note_on,39,0,113
2,note_on,44,27,0
2,note_on,44,0,240
2,note_on,54,24,0
2,note_on,54,0,240
2,note_on,60,24,0
2,note_on,60,0,240
2,note_on,39,31,0
2,note_on,39,0,240
2,note_on,44,24,0
2,note_on,44,0,240
2,note_on,54,27,0
2,note_on,54,0,240
2,note_on,60,25,0
2,note_on,60,0,240
2,note_on,32,33,0
2,note_on,32,0,56
2,note_on,44,29,0
2,note_on,44,0,240
2,note_on,54,29,0
2,note_on,54,0,240
2,note_on,60,30,0
2,note_on,60,0,240
2,note_on,32,36,0
2,note_on,32,0,240
2,note_on,44,30,0
2,note_on,44,0,240
2,note_on,54,30,0
2,note_on,54,0,240
2,note_on,60,31,0
2,note_on,60,0,240
2,note_on,37,36,0
2,note_on,37,0,99
2,note_on,44,30,0
2,note_on,44,0,240
2,note_on,53,28,0
2,note_on,53,0,240
2,note_on,61,25,0
2,note_on,61,0,240
2,note_on,37,33,0
2,note_on,37,0,240
2,note_on,44,27,0
2,note_on,44,0,240
2,note_on,53,29,0
2,note_on,53,0,240
2,note_on,61,27,0
2,note_on,61,0,240
2,note_on,37,33,0
2,note_on,37,0,103
2,note_on,44,27,0
2,note_on,44,0,240
2,note_on,53,30,0
2,note_on,53,0,240
2,note_on,61,28,0
2,note_on,61,0,240
2,note_on,34,33,0
2,note_on,34,0,46
2,note_on,46,29,0
2,note_on,46,0,240
2,note_on,56,29,0
2,note_on,56,0,240
2,note_on,62,30,0
2,note_on,62,0,240
2,note_on,39,33,0
2,note_on,39,0,137
2,note_on,46,30,0
2,note_on,46,0,240
2,note_on,54,30,0
2,note_on,54,0,240
2,note_on,63,27,0
2,note_on,63,0,240
2,note_on,42,33,0
2,note_on,42,0,154
2,note_on,51,29,0
2,note_on,51,0,240
2,note_on,58,30,0
2,note_on,58,0,240
2,note_on,63,27,0
2,note_on,63,0,120
2,note_on,43,33,74
2,note_on,43,0,240
2,note_on,52,28,0
2,note_on,52,0,240
2,note_on,61,28,0
2,note_on,61,0,240
2,note_on,70,29,0
2,note_on,70,0,240
2,note_on,44,33,0
2,note_on,44,0,180
2,note_on,51,28,0
2,note_on,51,0,240
2,note_on,60,30,0
2,note_on,60,0,240
2,note_on,66,30,0
2,note_on,66,0,240
2,note_on,32,33,0
2,note_on,32,0,42
2,note_on,44,27,0
2,note_on,44,0,240
2,note_on,54,27,0
2,note_on,54,0,240
2,note_on,60,26,0
2,note_on,60,0,240
2,note_on,37,27,0
2,note_on,37,0,42
2,note_on,44,25,0
2,note_on,44,0,240
2,note_on,53,25,0
2,note_on,53,0,240
2,note_on,61,25,0
2,note_on,61,0,240
2,note_on,32,34,0
2,note_on,32,0,56
2,note_on,44,28,0
2,note_on,44,0,240
2,note_on,51,28,0
2,note_on,51,0,240
2,note_on,60,29,0
2,note_on,60,0,240
2,note_on,32,34,0
2,note_on,32,0,240
2,note_on,44,28,0
2,note_on,44,0,240
2,note_on,51,28,0
2,note_on,51,0,240
2,note_on,60,29,0
2,note_on,60,0,240
2,note_on,34,34,0
2,note_on,34,0,113
2,note_on,46,28,0
2,note_on,46,0,240
2,note_on,51,25,0
2,note_on,51,0,240
2,note_on,61,25,0
2,note_on,61,0,240
2,note_on,34,32,0
2,note_on,34,0,240
2,note_on,46,25,0
2,note_on,46,0,240
2,note_on,51,28,0
2,note_on,51,0,240
2,note_on,61,26,0
2,note_on,61,0,240
2,note_on,34,36,0
2,note_on,34,0,56
2,note_on,46,31,0
2,note_on,46,0,240
2,note_on,52,31,0
2,note_on,52,0,240
2,note_on,61,33,0
2,note_on,61,0,240
2,note_on,34,39,0
2,note_on,34,0,240
2,note_on,46,33,0
2,note_on,46,0,240
2,note_on,52,33,0
2,note_on,52,0,240
2,note_on,61,34,0
2,note_on,61,0,240
2,note_on,36,40,0
2,note_on,36,0,99
2,note_on,48,33,0
2,note_on,48,0,240
2,note_on,54,31,0
2,note_on,54,0,240
2,note_on,63,28,0
2,note_on,63,0,240
2,note_on,36,37,0
2,note_on,36,0,28
2,note_on,48,30,0
2,note_on,48,0,240
2,note_on,51,33,0
2,note_on,51,0,240
2,note_on,63,30,0
2,note_on,63,0,240
2,note_on,37,37,0
2,note_on,37,0,103
2,note_on,49,31,0
2,note_on,49,0,240
2,note_on,58,34,0
2,note_on,58,0,240
2,note_on,65,32,0
2,note_on,65,0,240
2,note_on,37,37,0
2,note_on,37,0,46
2,note_on,49,33,0
2,note_on,49,0,240
2,note_on,58,33,0
2,note_on,58,0,240
2,note_on,65,34,0
2,note_on,65,0,240
2,note_on,39,40,0
2,note_on,39,0,184
2,note_on,51,35,0
2,note_on,51,0,240
2,note_on,58,37,0
2,note_on,58,0,240
2,note_on,66,33,0
2,note_on,66,0,240
2,note_on,41,41,0
2,note_on,41,0,152
2,note_on,53,35,0
2,note_on,53,0,240
2,note_on,58,37,0
2,note_on,58,0,240
2,note_on,65,35,0
2,note_on,65,0,240
2,note_on,42,40,0
2,note_on,42,0,184
2,note_on,51,34,0
2,note_on,51,0,240
2,note_on,58,37,0
2,note_on,58,0,240
2,note_on,63,33,0
2,note_on,63,0,240
2,note_on,42,38,0
2,note_on,42,0,152
2,note_on,54,34,0
2,note_on,54,0,240
2,note_on,58,37,0
2,note_on,58,0,240
2,note_on,64,34,0
2,note_on,64,0,240
2,note_on,41,36,0
2,note_on,41,0,137
2,note_on,48,32,0
2,note_on,48,0,240
2,note_on,57,32,0
2,note_on,57,0,240
2,note_on,65,31,0
2,note_on,65,0,240
2,note_on,39,35,0
2,note_on,39,0,149
2,note_on,51,33,0
2,note_on,51,0,240
2,note_on,56,27,0
2,note_on,56,0,240
2,note_on,66,26,0
2,note_on,60,22,0
2,note_on,60,0,240
2,note_on,66,0,0
2,note_on,37,33,0
2,note_on,37,0,127
2,note_on,44,27,0
2,note_on,44,0,240
2,note_on,53,27,0
2,note_on,53,0,240
2,note_on,61,28,0
2,note_on,61,0,240
2,note_on,37,33,0
2,note_on,37,0,240
2,note_on,44,27,0
2,note_on,44,0,240
2,note_on,53,27,0
2,note_on,53,0,240
2,note_on,61,28,0
2,note_on,61,0,240
2,note_on,39,33,0
2,note_on,39,0,113
2,note_on,44,27,0
2,note_on,44,0,240
2,note_on,54,24,0
2,note_on,54,0,240
2,note_on,60,24,0
2,note_on,60,0,240
2,note_on,39,31,0
2,note_on,39,0,240
2,note_on,44,24,0
2,note_on,44,0,240
2,note_on,54,27,0
2,note_on,54,0,240
2,note_on,60,25,0
2,note_on,60,0,240
2,note_on,32,33,0
2,note_on,32,0,56
2,note_on,44,29,0
2,note_on,44,0,240
2,note_on,54,29,0
2,note_on,54,0,240
2,note_on,60,30,0
2,note_on,60,0,240
2,note_on,32,36,0
2,note_on,32,0,240
2,note_on,44,30,0
2,note_on,44,0,240
2,note_on,54,30,0
2,note_on,54,0,240
2,note_on,60,31,0
2,note_on,60,0,240
2,note_on,37,36,0
2,note_on,37,0,99
2,note_on,44,30,0
2,note_on,44,0,240
2,note_on,53,28,0
2,note_on,53,0,240
2,note_on,61,25,0
2,note_on,61,0,240
2,note_on,37,33,0
2,note_on,37,0,240
2,note_on,44,27,0
2,note_on,44,0,240
2,note_on,53,29,0
2,note_on,53,0,240
2,note_on,61,27,0
2,note_on,61,0,240
2,note_on,37,33,0
2,note_on,37,0,103
2,note_on,44,27,0
2,note_on,44,0,240
2,note_on,53,30,0
2,note_on,53,0,240
2,note_on,61,28,0
2,note_on,61,0,240
2,note_on,34,33,0
2,note_on,34,0,46
2,note_on,46,29,0
2,note_on,46,0,240
2,note_on,56,29,0
2,note_on,56,0,240
2,note_on,62,30,0
2,note_on,62,0,240
2,note_on,39,33,0
2,note_on,39,0,157
2,note_on,46,30,0
2,note_on,46,0,240
2,note_on,54,30,0
2,note_on,54,0,240
2,note_on,63,27,0
2,note_on,63,0,240
2,note_on,42,33,0
2,note_on,42,0,163
2,note_on,51,29,0
2,note_on,51,0,240
2,note_on,58,30,0
2,note_on,58,0,240
2,note_on,63,27,0
2,note_on,63,0,120
2,note_on,43,33,74
2,note_on,43,0,240
2,note_on,52,28,0
2,note_on,52,0,240
2,note_on,61,28,0
2,note_on,61,0,240
2,note_on,70,29,0
2,note_on,70,0,240
2,note_on,44,33,0
2,note_on,44,0,180
2,note_on,51,28,0
2,note_on,51,0,240
2,note_on,60,30,0
2,note_on,60,0,240
2,note_on,66,30,0
2,note_on,66,0,240
2,note_on,32,33,0
2,note_on,32,0,42
2,note_on,44,27,0
2,note_on,44,0,240
2,note_on,54,27,0
2,note_on,54,0,240
2,note_on,60,23,0
2,note_on,60,0,240
2,note_on,49,23,0
2,note_on,53,23,0
2,note_on,61,27,0
2,note_on,61,0,465
2,note_on,53,0,0
2,note_on,49,0,0
2,note_on,34,28,480
2,note_on,41,28,0
2,note_on,46,34,0
2,note_on,46,0,445
2,note_on,41,0,0
2,note_on,34,0,0
2,note_on,37,25,0
2,note_on,42,25,0
2,note_on,49,30,0
2,note_on,49,0,332
2,note_on,42,0,0
2,note_on,37,0,0
2,note_on,34,28,0
2,note_on,41,28,0
2,note_on,46,34,0
2,note_on,46,0,311
2,note_on,41,0,0
2,note_on,34,0,0
2,note_on,37,23,0
2,note_on,42,23,0
2,note_on,49,28,0
2,note_on,49,0,311
2,note_on,42,0,0
2,note_on,37,0,0
2,note_on,34,28,0
2,note_on,41,28,0
2,note_on,46,34,0
2,note_on,46,0,353
2,note_on,41,0,0
2,note_on,34,0,0
2,note_on,37,25,0
2,note_on,42,25,0
2,note_on,49,30,0
2,note_on,49,0,268
2,note_on,42,0,0
2,note_on,37,0,0
2,note_on,34,28,0
2,note_on,41,28,0
2,note_on,46,34,0
2,note_on,46,0,289
2,note_on,41,0,0
2,note_on,34,0,0
2,note_on,37,22,0
2,note_on,42,22,0
2,note_on,49,27,0
2,note_on,49,0,282
2,note_on,42,0,0
2,note_on,37,0,0
2,note_on,34,28,0
2,note_on,41,28,0
2,note_on,46,34,0
2,note_on,46,0,360
2,note_on,41,0,0
2,note_on,34,0,0
2,note_on,37,25,0
2,note_on,42,30,0
2,note_on,49,30,0
2,note_on,49,0,296
2,note_on,42,0,0
2,note_on,37,0,0
2,note_on,34,28,0
2,note_on,41,28,0
2,note_on,46,34,0
2,note_on,46,0,254
2,note_on,41,0,0
2,note_on,34,0,0
2,note_on,37,22,0
2,note_on,42,27,0
2,note_on,49,27,0
2,note_on,49,0,339
2,note_on,42,0,0
2,note_on,37,0,0
2,note_on,34,28,0
2,note_on,41,28,0
2,note_on,46,34,0
2,note_on,46,0,402
2,note_on,41,0,0
2,note_on,34,0,0
2,note_on,37,25,0
2,note_on,42,25,0
2,note_on,49,30,0
2,note_on,49,0,332
2,note_on,42,0,0
2,note_on,37,0,0
2,note_on,34,28,0
2,note_on,41,28,0
2,note_on,46,34,0
2,note_on,46,0,367
2,note_on,41,0,0
2,note_on,34,0,0
2,note_on,37,22,0
2,note_on,42,22,0
2,note_on,49,27,0
2,note_on,49,0,339
2,note_on,42,0,0
2,note_on,37,0,0
2,note_on,34,35,0
2,note_on,41,35,0
2,note_on,46,42,0
2,note_on,46,0,409
2,note_on,41,0,0
2,note_on,34,0,0
2,note_on,37,30,0
2,note_on,42,37,0
2,note_on,49,37,0
2,note_on,49,0,321
2,note_on,42,0,0
2,note_on,37,0,0
2,note_on,34,35,0
2,note_on,41,35,0
2,note_on,46,42,0
2,note_on,46,0,367
2,note_on,41,0,0
2,note_on,34,0,0
2,note_on,37,27,0
2,note_on,42,34,0
2,note_on,49,34,0
2,note_on,49,0,402
2,note_on,42,0,0
2,note_on,37,0,0
2,note_on,34,35,0
2,note_on,41,35,0
2,note_on,46,42,0
2,note_on,46,0,402
2,note_on,41,0,0
2,note_on,34,0,0
2,note_on,37,30,0
2,note_on,42,30,0
2,note_on,49,37,0
2,note_on,49,0,374
2,note_on,42,0,0
2,note_on,37,0,0
2,note_on,34,35,0
2,note_on,41,35,0
2,note_on,46,42,0
2,note_on,46,0,339
2,note_on,41,0,0
2,note_on,34,0,0
2,note_on,37,27,0
2,note_on,42,27,0
2,note_on,49,34,0
2,note_on,49,0,332
2,note_on,42,0,0
2,note_on,37,0,0
2,note_on,34,42,0
2,note_on,41,42,0
2,note_on,46,52,0
2,note_on,46,0,399
2,note_on,41,0,0
2,note_on,34,0,0
2,note_on,37,36,0
2,note_on,42,36,0
2,note_on,49,44,0
2,note_on,49,0,402
2,note_on,42,0,0
2,note_on,37,0,0
2,note_on,34,38,0
2,note_on,41,38,0
2,note_on,46,46,0
2,note_on,46,0,399
2,note_on,41,0,0
2,note_on,34,0,0
2,note_on,37,27,0
2,note_on,42,27,0
2,note_on,49,35,0
2,note_on,49,0,416
2,note_on,42,0,0
2,note_on,37,0,0
2,note_on,34,42,0
2,note_on,41,42,0
2,note_on,46,52,0
2,note_on,46,0,399
2,note_on,41,0,0
2,note_on,34,0,0
2,note_on,37,36,0
2,note_on,42,36,0
2,note_on,49,44,0
2,note_on,49,0,399
2,note_on,42,0,0
2,note_on,37,0,0
2,note_on,34,38,0
2,note_on,41,38,0
2,note_on,46,46,0
2,note_on,46,0,420
2,note_on,41,0,0
2,note_on,34,0,0
2,note_on,37,27,0
2,note_on,42,27,0
2,note_on,49,35,0
2,note_on,49,0,381
2,note_on,42,0,0
2,note_on,37,0,0
2,note_on,34,32,0
2,note_on,41,32,0
2,note_on,46,39,0
2,note_on,46,0,416
2,note_on,41,0,0
2,note_on,34,0,0
2,note_on,37,28,0
2,note_on,42,34,0
2,note_on,49,34,0
2,note_on,49,0,339
2,note_on,42,0,0
2,note_on,37,0,0
2,note_on,34,32,0
2,note_on,41,32,0
2,note_on,46,39,0
2,note_on,46,0,346
2,note_on,41,0,0
2,note_on,34,0,0
2,note_on,37,25,0
2,note_on,42,31,0
2,note_on,49,31,0
2,note_on,49,0,395
2,note_on,42,0,0
2,note_on,37,0,0
2,note_on,34,32,0
2,note_on,41,32,0
2,note_on,46,39,0
2,note_on,46,0,367
2,note_on,41,0,0
2,note_on,34,0,0
2,note_on,37,28,0
2,note_on,42,28,0
2,note_on,49,34,0
2,note_on,49,0,296
2,note_on,42,0,0
2,note_on,37,0,0
2,note_on,34,32,0
2,note_on,41,32,0
2,note_on,46,39,0
2,note_on,46,0,304
2,note_on,41,0,0
2,note_on,34,0,0
2,note_on,37,25,0
2,note_on,42,25,0
2,note_on,49,31,0
2,note_on,49,0,339
2,note_on,42,0,0
2,note_on,37,0,0
2,note_on,34,47,0
2,note_on,41,47,0
2,note_on,46,57,0
2,note_on,46,0,416
2,note_on,41,0,0
2,note_on,34,0,0
2,note_on,37,37,0
2,note_on,42,37,0
2,note_on,49,46,0
2,note_on,49,0,399
2,note_on,42,0,0
2,note_on,37,0,0
2,note_on,34,39,0
2,note_on,41,39,0
2,note_on,46,48,0
2,note_on,46,0,413
2,note_on,41,0,0
2,note_on,34,0,0
2,note_on,37,30,0
2,note_on,42,30,0
2,note_on,49,38,0
2,note_on,49,0,392
2,note_on,42,0,0
2,note_on,37,0,0
2,note_on,34,47,0
2,note_on,41,47,0
2,note_on,46,57,0
2,note_on,46,0,413
2,note_on,41,0,0
2,note_on,34,0,0
2,note_on,37,37,0
2,note_on,42,37,0
2,note_on,49,46,0
2,note_on,49,0,420
2,note_on,42,0,0
2,note_on,37,0,0
2,note_on,34,39,0
2,note_on,41,39,0
2,note_on,46,48,0
2,note_on,46,0,346
2,note_on,41,0,0
2,note_on,34,0,0
2,note_on,37,30,0
2,note_on,42,30,0
2,note_on,49,38,0
2,note_on,49,0,328
2,note_on,42,0,0
2,note_on,37,0,0
2,note_on,34,43,0
2,note_on,41,43,0
2,note_on,46,52,0
2,note_on,46,0,332
2,note_on,41,0,0
2,note_on,34,0,0
2,note_on,37,37,0
2,note_on,42,46,0
2,note_on,49,46,0
2,note_on,49,0,289
2,note_on,42,0,0
2,note_on,37,0,0
2,note_on,34,45,0
2,note_on,41,45,0
2,note_on,46,54,0
2,note_on,46,0,339
2,note_on,41,0,0
2,note_on,34,0,0
2,note_on,37,36,0
2,note_on,42,46,0
2,note_on,49,46,0
2,note_on,49,0,325
2,note_on,42,0,0
2,note_on,37,0,0
2,note_on,34,49,0
2,note_on,41,49,0
2,note_on,46,58,0
2,note_on,46,0,325
2,note_on,41,0,0
2,note_on,34,0,0
2,note_on,37,42,0
2,note_on,42,42,0
2,note_on,49,51,0
2,note_on,49,0,339
2,note_on,42,0,0
2,note_on,37,0,0
2,note_on,34,53,0
2,note_on,41,53,0
2,note_on,46,64,0
2,note_on,46,0,360
2,note_on,41,0,0
2,note_on,34,0,0
2,note_on,32,56,0
2,note_on,44,71,0
2,note_on,44,0,367
2,note_on,32,0,0
2,note_on,25,59,0
2,note_on,37,74,0
2,note_on,37,0,213
2,note_on,25,0,0
2,note_on,49,64,0
2,note_on,56,64,0
2,note_on,61,76,0
2,note_on,61,0,247
2,note_on,56,0,0
2,note_on,49,0,0
2,note_on,63,76,0
2,note_on,63,0,120
2,note_on,49,68,0
2,note_on,56,68,0
2,note_on,65,80,0
2,note_on,65,0,261
2,note_on,56,0,0
2,note_on,49,0,0
2,note_on,66,80,0
2,note_on,66,0,120
2,note_on,63,73,0
2,note_on,56,73,0
2,note_on,68,86,0
2,note_on,68,0,247
2,note_on,56,0,0
2,note_on,63,0,0
2,note_on,65,85,0
2,note_on,65,0,120
2,note_on,32,77,0
2,note_on,44,92,0
2,note_on,44,0,371
2,note_on,32,0,0
2,note_on,63,69,0
2,note_on,66,69,0
2,note_on,72,81,0
2,note_on,72,0,360
2,note_on,66,0,0
2,note_on,63,0,0
2,note_on,61,65,0
2,note_on,66,65,0
2,note_on,70,76,0
2,note_on,70,0,108
2,note_on,66,0,0
2,note_on,61,0,0
2,note_on,61,63,12
2,note_on,66,63,0
2,note_on,70,75,0
2,note_on,70,0,211
2,note_on,66,0,0
2,note_on,61,0,0
2,note_on,60,59,0
2,note_on,66,59,0
2,note_on,68,71,0
2,note_on,68,0,108
2,note_on,66,0,0
2,note_on,60,0,0
2,note_on,60,57,12
2,note_on,66,57,0
2,note_on,68,68,0
2,note_on,68,0,263
2,note_on,66,0,0
2,note_on,60,0,0
2,note_on,57,66,0
2,note_on,60,66,0
2,note_on,63,77,0
2,note_on,63,0,120
2,note_on,60,0,0
2,note_on,57,0,0
2,note_on,34,66,0
2,note_on,46,78,0
2,note_on,46,0,394
2,note_on,34,0,0
2,note_on,53,63,0
2,note_on,58,63,0
2,note_on,61,75,0
2,note_on,61,0,389
2,note_on,58,0,0
2,note_on,53,0,0
2,note_on,37,68,0
2,note_on,49,80,0
2,note_on,49,0,349
2,note_on,37,0,0
2,note_on,65,76,0
2,note_on,61,64,0
2,note_on,58,64,0
2,note_on,53,64,0
2,note_on,53,0,400
2,note_on,65,0,0
2,note_on,61,0,0
2,note_on,58,0,0
2,note_on,29,77,0
2,note_on,41,92,0
2,note_on,41,0,353
2,note_on,29,0,0
2,note_on,53,69,0
2,note_on,58,69,0
2,note_on,61,69,0
2,note_on,67,81,0
2,note_on,67,0,480
2,note_on,53,0,0
2,note_on,58,0,0
2,note_on,61,0,0
2,note_on,53,64,0
2,note_on,57,64,0
2,note_on,60,64,0
2,note_on,69,75,0
2,note_on,69,0,296
2,note_on,53,0,0
2,note_on,57,0,0
2,note_on,60,0,0
2,note_on,53,87,0
2,note_on,53,0,105
2,note_on,43,61,0
2,note_on,43,0,60
2,note_on,44,61,0
2,note_on,44,0,80
2,note_on,46,61,0
2,note_on,46,0,80
2,note_on,44,61,0
2,note_on,44,0,5
2,note_on,46,56,0
2,note_on,46,0,45
2,note_on,44,64,0
2,note_on,44,0,45
2,note_on,46,57,0
2,note_on,46,0,45
2,note_on,44,66,0
2,note_on,44,0,45
2,note_on,46,59,0
2,note_on,46,0,45
2,note_on,44,68,0
2,note_on,44,0,45
2,note_on,46,61,0
2,note_on,46,0,45
2,note_on,44,70,0
2,note_on,44,0,45
2,note_on,46,65,0
2,note_on,46,0,45
2,note_on,44,73,0
2,note_on,44,0,2
2,note_on,46,66,0
2,note_on,46,0,11
2,note_on,44,72,0
2,note_on,44,0,45
2,note_on,46,63,1
2,note_on,44,69,44
2,note_on,46,0,1
2,note_on,44,0,44
2,note_on,46,60,0
2,note_on,44,66,45
2,note_on,46,0,1
2,note_on,44,0,59
2,note_on,46,58,0
2,note_on,46,0,60
2,note_on,43,64,0
2,note_on,43,0,60
2,note_on,44,55,0
2,note_on,44,0,60
2,note_on,49,68,0
2,note_on,49,0,371
2,note_on,49,82,0
2,note_on,49,0,128
2,note_on,40,61,0
2,note_on,40,0,51
2,note_on,41,61,0
2,note_on,41,0,80
2,note_on,42,61,0
2,note_on,42,0,80
2,note_on,41,61,0
2,note_on,41,0,27
2,note_on,42,56,0
2,note_on,42,0,44
2,note_on,41,64,0
2,note_on,41,0,45
2,note_on,42,57,0
2,note_on,42,0,45
2,note_on,41,66,0
2,note_on,41,0,45
2,note_on,42,59,0
2,note_on,42,0,45
2,note_on,41,68,0
2,note_on,41,0,45
2,note_on,42,61,0
2,note_on,42,0,45
2,note_on,41,70,0
2,note_on,41,0,45
2,note_on,42,65,0
2,note_on,42,0,45
2,note_on,41,73,0
2,note_on,41,0,45
2,note_on,42,66,0
2,note_on,42,0,14
2,note_on,41,72,0
2,note_on,41,0,45
2,note_on,42,63,1
2,note_on,41,69,44
2,note_on,42,0,1
2,note_on,41,0,44
2,note_on,42,60,0
2,note_on,41,66,45
2,note_on,42,0,1
2,note_on,41,0,59
2,note_on,42,58,0
2,note_on,42,0,60
2,note_on,40,64,0
2,note_on,40,0,60
2,note_on,41,55,0
2,note_on,41,0,60
2,note_on,42,64,0
2,note_on,42,0,377
2,note_on,41,49,0
2,note_on,41,0,240
2,note_on,37,39,0
2,note_on,37,0,240
2,note_on,34,32,0
2,note_on,41,32,0
2,note_on,46,39,0
2,note_on,46,0,342
2,note_on,41,0,0
2,note_on,34,0,0
2,note_on,37,28,0
2,note_on,42,34,0
2,note_on,49,34,0
2,note_on,49,0,339
2,note_on,42,0,0
2,note_on,37,0,0
2,note_on,34,32,0
2,note_on,41,32,0
2,note_on,46,39,0
2,note_on,46,0,346
2,note_on,41,0,0
2,note_on,34,0,0
2,note_on,37,25,0
2,note_on,42,31,0
2,note_on,49,31,0
2,note_on,49,0,395
2,note_on,42,0,0
2,note_on,37,0,0
2,note_on,34,32,0
2,note_on,41,32,0
2,note_on,46,39,0
2,note_on,46,0,367
2,note_on,41,0,0
2,note_on,34,0,0
2,note_on,37,28,0
2,note_on,42,28,0
2,note_on,49,34,0
2,note_on,49,0,296
2,note_on,42,0,0
2,note_on,37,0,0
2,note_on,34,32,0
2,note_on,41,32,0
2,note_on,46,39,0
2,note_on,46,0,304
2,note_on,41,0,0
2,note_on,34,0,0
2,note_on,33,57,0
2,note_on,45,73,0
2,note_on,45,0,247
2,note_on,33,0,0
2,note_on,32,57,0
2,note_on,44,73,0
2,note_on,44,0,120
2,note_on,32,0,0
2,note_on,25,60,0
2,note_on,37,76,0
2,note_on,37,0,310
2,note_on,25,0,0
2,note_on,49,64,0
2,note_on,56,64,0
2,note_on,61,77,0
2,note_on,61,0,247
2,note_on,56,0,0
2,note_on,49,0,0
2,note_on,63,77,0
2,note_on,63,0,120
2,note_on,49,68,0
2,note_on,56,68,0
2,note_on,65,81,0
2,note_on,65,0,261
2,note_on,56,0,0
2,note_on,49,0,0
2,note_on,66,81,0
2,note_on,66,0,120
2,note_on,63,73,0
2,note_on,56,73,0
2,note_on,68,86,0
2,note_on,68,0,247
2,note_on,56,0,0
2,note_on,63,0,0
2,note_on,65,85,0
2,note_on,65,0,120
2,note_on,32,78,0
2,note_on,44,92,0
2,note_on,44,0,371
2,note_on,32,0,0
2,note_on,63,69,0
2,note_on,66,69,0
2,note_on,72,81,0
2,note_on,72,0,360
2,note_on,66,0,0
2,note_on,63,0,0
2,note_on,61,64,0
2,note_on,66,64,0
2,note_on,70,76,0
2,note_on,70,0,108
2,note_on,66,0,0
2,note_on,61,0,0
2,note_on,61,63,12
2,note_on,66,63,0
2,note_on,70,75,0
2,note_on,70,0,211
2,note_on,66,0,0
2,note_on,61,0,0
2,note_on,60,59,0
2,note_on,66,59,0
2,note_on,68,70,0
2,note_on,68,0,108
2,note_on,66,0,0
2,note_on,60,0,0
2,note_on,60,58,12
2,note_on,66,58,0
2,note_on,68,68,0
2,note_on,68,0,263
2,note_on,66,0,0
2,note_on,60,0,0
2,note_on,57,63,0
2,note_on,60,63,0
2,note_on,63,74,0
2,note_on,63,0,120
2,note_on,60,0,0
2,note_on,57,0,0
2,note_on,34,63,0
2,note_on,46,75,0
2,note_on,46,0,394
2,note_on,34,0,0
2,note_on,53,63,0
2,note_on,58,63,0
2,note_on,61,75,0
2,note_on,61,0,389
2,note_on,58,0,0
2,note_on,53,0,0
2,note_on,37,68,0
2,note_on,49,80,0
2,note_on,49,0,349
2,note_on,37,0,0
2,note_on,65,76,0
2,note_on,61,64,0
2,note_on,58,64,0
2,note_on,53,64,0
2,note_on,53,0,400
2,note_on,65,0,0
2,note_on,61,0,0
2,note_on,58,0,0
2,note_on,29,77,0
2,note_on,41,92,0
2,note_on,41,0,353
2,note_on,29,0,0
2,note_on,53,69,0
2,note_on,58,69,0
2,note_on,61,69,0
2,note_on,67,81,0
2,note_on,67,0,480
2,note_on,53,0,0
2,note_on,58,0,0
2,note_on,61,0,0
2,note_on,53,64,0
2,note_on,57,64,0
2,note_on,60,64,0
2,note_on,69,75,0
2,note_on,69,0,296
2,note_on,53,0,0
2,note_on,57,0,0
2,note_on,60,0,0
2,note_on,53,81,0
2,note_on,53,0,117
2,note_on,43,61,0
2,note_on,43,0,60
2,note_on,44,61,0
2,note_on,44,0,80
2,note_on,46,61,0
2,note_on,46,0,80
2,note_on,44,61,0
2,note_on,44,0,5
2,note_on,46,56,0
2,note_on,46,0,45
2,note_on,44,64,0
2,note_on,44,0,45
2,note_on,46,57,0
2,note_on,46,0,45
2,note_on,44,66,0
2,note_on,44,0,45
2,note_on,46,59,0
2,note_on,46,0,45
2,note_on,44,68,0
2,note_on,44,0,45
2,note_on,46,61,0
2,note_on,46,0,45
2,note_on,44,70,0
2,note_on,44,0,45
2,note_on,46,65,0
2,note_on,46,0,45
2,note_on,44,73,0
2,note_on,44,0,45
2,note_on,46,66,0
2,note_on,46,0,20
2,note_on,44,72,0
2,note_on,44,0,45
2,note_on,46,63,1
2,note_on,44,69,44
2,note_on,46,0,1
2,note_on,44,0,44
2,note_on,46,60,0
2,note_on,44,66,45
2,note_on,46,0,1
2,note_on,44,0,59
2,note_on,46,58,0
2,note_on,46,0,60
2,note_on,43,64,0
2,note_on,43,0,60
2,note_on,44,55,0
2,note_on,44,0,60
2,note_on,49,68,0
2,note_on,49,0,371
2,note_on,49,68,0
2,note_on,49,0,123
2,note_on,40,61,0
2,note_on,40,0,51
2,note_on,41,61,0
2,note_on,41,0,80
2,note_on,42,61,0
2,note_on,42,0,80
2,note_on,41,61,0
2,note_on,41,0,2
2,note_on,42,56,0
2,note_on,42,0,45
2,note_on,41,64,0
2,note_on,41,0,45
2,note_on,42,57,0
2,note_on,42,0,45
2,note_on,41,66,0
2,note_on,41,0,45
2,note_on,42,59,0
2,note_on,42,0,45
2,note_on,41,68,0
2,note_on,41,0,45
2,note_on,42,61,0
2,note_on,42,0,45
2,note_on,41,70,0
2,note_on,41,0,45
2,note_on,42,65,0
2,note_on,42,0,45
2,note_on,41,73,0
2,note_on,41,0,45
2,note_on,42,66,0
2,note_on,42,0,14
2,note_on,41,72,0
2,note_on,41,0,45
2,note_on,42,63,1
2,note_on,41,69,44
2,note_on,42,0,1
2,note_on,41,0,44
2,note_on,42,60,0
2,note_on,41,66,45
2,note_on,42,0,1
2,note_on,41,0,59
2,note_on,42,58,0
2,note_on,42,0,60
2,note_on,40,64,0
2,note_on,40,0,60
2,note_on,41,55,0
2,note_on,41,0,60
2,note_on,42,64,0
2,note_on,42,0,377
2,note_on,41,47,0
2,note_on,41,0,240
2,note_on,37,39,0
2,note_on,37,0,240
2,note_on,34,32,0
2,note_on,41,32,0
2,note_on,46,39,0
2,note_on,46,0,416
2,note_on,41,0,0
2,note_on,34,0,0
2,note_on,37,28,0
2,note_on,42,34,0
2,note_on,49,34,0
2,note_on,49,0,339
2,note_on,42,0,0
2,note_on,37,0,0
2,note_on,34,32,0
2,note_on,41,32,0
2,note_on,46,39,0
2,note_on,46,0,346
2,note_on,41,0,0
2,note_on,34,0,0
2,note_on,37,21,0
2,note_on,42,26,0
2,note_on,49,26,0
2,note_on,49,0,395
2,note_on,42,0,0
2,note_on,37,0,0
2,note_on,34,26,0
2,note_on,41,26,0
2,note_on,46,31,0
2,note_on,46,0,317
2,note_on,41,0,0
2,note_on,34,0,0
2,note_on,37,22,0
2,note_on,42,22,0
2,note_on,49,27,0
2,note_on,49,0,291
2,note_on,42,0,5
2,note_on,37,0,0
2,note_on,34,20,0
2,note_on,41,24,0
2,note_on,41,0,720
2,note_on,34,0,0
