Track,Message Type,Note,Velocity,Time
1,note_on,90,99,1
1,note_on,94,76,79
1,note_on,90,0,1
1,note_on,94,0,79
1,note_on,85,69,0
1,note_on,85,0,80
1,note_on,90,93,0
1,note_on,90,0,80
1,note_on,87,79,0
1,note_on,87,0,80
1,note_on,90,73,0
1,note_on,90,0,80
1,note_on,85,92,0
1,note_on,85,0,80
1,note_on,90,78,0
1,note_on,90,0,80
1,note_on,82,71,0
1,note_on,82,0,80
1,note_on,85,84,0
1,note_on,85,0,80
1,note_on,78,72,0
1,note_on,78,0,80
1,note_on,82,68,0
1,note_on,82,0,80
1,note_on,78,74,0
1,note_on,78,0,80
1,note_on,82,64,0
1,note_on,82,0,80
1,note_on,73,58,0
1,note_on,73,0,80
1,note_on,78,71,0
1,note_on,78,0,80
1,note_on,75,63,0
1,note_on,75,0,80
1,note_on,78,57,0
1,note_on,78,0,80
1,note_on,73,69,0
1,note_on,73,0,80
1,note_on,78,56,0
1,note_on,78,0,80
1,note_on,70,56,0
1,note_on,70,0,80
1,note_on,73,67,0
1,note_on,73,0,80
1,note_on,66,55,0
1,note_on,66,0,80
1,note_on,70,53,0
1,note_on,70,0,80
1,note_on,61,74,0
1,note_on,61,0,80
1,note_on,73,69,0
1,note_on,73,0,80
1,note_on,68,63,0
1,note_on,68,0,80
1,note_on,73,75,0
1,note_on,73,0,80
1,note_on,68,67,0
1,note_on,68,0,80
1,note_on,80,61,0
1,note_on,80,0,80
1,note_on,68,75,0
1,note_on,68,0,80
1,note_on,80,68,0
1,note_on,80,0,80
1,note_on,75,61,0
1,note_on,75,0,80
1,note_on,80,81,0
1,note_on,80,0,80
1,note_on,75,74,0
1,note_on,75,0,80
1,note_on,87,70,0
1,note_on,87,0,80
1,note_on,75,82,0
1,note_on,75,0,80
1,note_on,87,73,0
1,note_on,87,0,80
1,note_on,80,68,0
1,note_on,80,0,80
1,note_on,87,86,0
1,note_on,87,0,80
1,note_on,80,69,0
1,note_on,80,0,80
1,note_on,92,67,0
1,note_on,92,0,80
1,note_on,80,89,0
1,note_on,80,0,80
1,note_on,92,77,0
1,note_on,92,0,80
1,note_on,85,75,0
1,note_on,85,0,80
1,note_on,92,92,0
1,note_on,92,0,80
1,note_on,85,83,0
1,note_on,85,0,80
1,note_on,97,78,0
1,note_on,97,0,80
1,note_on,90,96,0
1,note_on,90,0,80
1,note_on,94,78,0
1,note_on,94,0,80
1,note_on,85,75,0
1,note_on,85,0,80
1,note_on,90,95,0
1,note_on,90,0,80
1,note_on,87,77,0
1,note_on,87,0,80
1,note_on,90,74,0
1,note_on,90,0,80
1,note_on,85,95,0
1,note_on,85,0,80
1,note_on,90,76,0
1,note_on,90,0,80
1,note_on,82,74,0
1,note_on,82,0,80
1,note_on,85,85,0
1,note_on,85,0,80
1,note_on,78,75,0
1,note_on,78,0,80
1,note_on,82,70,0
1,note_on,82,0,80
1,note_on,78,74,0
1,note_on,78,0,80
1,note_on,82,69,0
1,note_on,82,0,80
1,note_on,73,65,0
1,note_on,73,0,80
1,note_on,78,74,0
1,note_on,78,0,80
1,note_on,75,69,0
1,note_on,75,0,80
1,note_on,78,66,0
1,note_on,78,0,80
1,note_on,73,74,0
1,note_on,73,0,80
1,note_on,78,67,0
1,note_on,78,0,80
1,note_on,70,70,0
1,note_on,70,0,80
1,note_on,73,74,0
1,note_on,73,0,80
1,note_on,66,65,0
1,note_on,66,0,80
1,note_on,70,68,0
1,note_on,70,0,80
1,note_on,63,77,0
1,note_on,63,0,80
1,note_on,75,69,0
1,note_on,75,0,80
1,note_on,68,66,0
1,note_on,68,0,80
1,note_on,75,77,0
1,note_on,75,0,80
1,note_on,68,67,0
1,note_on,68,0,80
1,note_on,80,71,0
1,note_on,80,0,80
1,note_on,75,77,0
1,note_on,75,0,80
1,note_on,80,74,0
1,note_on,80,0,80
1,note_on,75,70,0
1,note_on,75,0,80
1,note_on,75,82,0
1,note_on,75,0,80
1,note_on,80,73,0
1,note_on,80,0,80
1,note_on,92,75,0
1,note_on,92,0,80
1,note_on,82,88,0
1,note_on,82,0,80
1,note_on,94,78,0
1,note_on,94,0,80
1,note_on,82,70,0
1,note_on,82,0,80
1,note_on,94,81,0
1,note_on,94,0,80
1,note_on,82,75,0
1,note_on,82,0,80
1,note_on,94,70,0
1,note_on,94,0,80
1,note_on,82,68,0
1,note_on,82,0,80
1,note_on,94,62,0
1,note_on,94,0,80
1,note_on,82,53,0
1,note_on,82,0,80
1,note_on,94,59,0
1,note_on,94,0,80
1,note_on,82,53,0
1,note_on,82,0,80
1,note_on,94,45,0
1,note_on,94,0,80
1,note_on,90,96,1
1,note_on,94,73,79
1,note_on,90,0,1
1,note_on,94,0,79
1,note_on,85,67,0
1,note_on,85,0,80
1,note_on,90,90,0
1,note_on,90,0,80
1,note_on,87,67,0
1,note_on,87,0,80
1,note_on,90,59,0
1,note_on,90,0,80
1,note_on,85,93,0
1,note_on,85,0,80
1,note_on,90,68,0
1,note_on,90,0,80
1,note_on,82,66,0
1,note_on,82,0,80
1,note_on,85,84,0
1,note_on,85,0,80
1,note_on,78,66,0
1,note_on,78,0,80
1,note_on,82,63,0
1,note_on,82,0,80
1,note_on,78,74,0
1,note_on,78,0,80
1,note_on,82,66,0
1,note_on,82,0,80
1,note_on,73,63,0
1,note_on,73,0,80
1,note_on,78,68,0
1,note_on,78,0,80
1,note_on,75,65,0
1,note_on,75,0,80
1,note_on,78,62,0
1,note_on,78,0,80
1,note_on,73,74,0
1,note_on,73,0,80
1,note_on,78,65,0
1,note_on,78,0,80
1,note_on,70,61,0
1,note_on,70,0,80
1,note_on,73,74,0
1,note_on,73,0,80
1,note_on,66,67,0
1,note_on,66,0,80
1,note_on,70,65,0
1,note_on,70,0,80
1,note_on,61,74,0
1,note_on,61,0,80
1,note_on,73,71,0
1,note_on,73,0,80
1,note_on,68,67,0
1,note_on,68,0,80
1,note_on,73,75,0
1,note_on,73,0,80
1,note_on,68,70,0
1,note_on,68,0,80
1,note_on,80,65,0
1,note_on,80,0,80
1,note_on,68,72,0
1,note_on,68,0,80
1,note_on,80,70,0
1,note_on,80,0,80
1,note_on,75,67,0
1,note_on,75,0,80
1,note_on,80,78,0
1,note_on,80,0,80
1,note_on,75,74,0
1,note_on,75,0,80
1,note_on,87,72,0
1,note_on,87,0,80
1,note_on,75,82,0
1,note_on,75,0,80
1,note_on,87,78,0
1,note_on,87,0,80
1,note_on,80,78,0
1,note_on,80,0,80
1,note_on,87,80,0
1,note_on,87,0,80
1,note_on,80,77,0
1,note_on,80,0,80
1,note_on,92,73,0
1,note_on,92,0,80
1,note_on,80,88,0
1,note_on,80,0,80
1,note_on,92,81,0
1,note_on,92,0,80
1,note_on,85,73,0
1,note_on,85,0,80
1,note_on,92,92,0
1,note_on,92,0,80
1,note_on,85,83,0
1,note_on,85,0,80
1,note_on,97,83,0
1,note_on,97,0,80
1,note_on,90,98,0
1,note_on,90,0,80
1,note_on,94,74,0
1,note_on,94,0,80
1,note_on,85,70,0
1,note_on,85,0,80
1,note_on,90,93,0
1,note_on,90,0,80
1,note_on,87,72,0
1,note_on,87,0,80
1,note_on,90,73,0
1,note_on,90,0,80
1,note_on,85,96,0
1,note_on,85,0,80
1,note_on,90,75,0
1,note_on,90,0,80
1,note_on,82,68,0
1,note_on,82,0,80
1,note_on,85,84,0
1,note_on,85,0,80
1,note_on,78,69,0
1,note_on,78,0,80
1,note_on,82,64,0
1,note_on,82,0,80
1,note_on,78,74,0
1,note_on,78,0,80
1,note_on,82,68,0
1,note_on,82,0,80
1,note_on,73,62,0
1,note_on,73,0,80
1,note_on,78,71,0
1,note_on,78,0,80
1,note_on,75,65,0
1,note_on,75,0,80
1,note_on,78,67,0
1,note_on,78,0,80
1,note_on,73,74,0
1,note_on,73,0,80
1,note_on,78,65,0
1,note_on,78,0,80
1,note_on,70,59,0
1,note_on,70,0,80
1,note_on,73,74,0
1,note_on,73,0,80
1,note_on,66,65,0
1,note_on,66,0,80
1,note_on,70,59,0
1,note_on,70,0,80
1,note_on,63,77,0
1,note_on,63,0,80
1,note_on,75,74,0
1,note_on,75,0,80
1,note_on,68,67,0
1,note_on,68,0,80
1,note_on,75,77,0
1,note_on,75,0,80
1,note_on,68,67,0
1,note_on,68,0,80
1,note_on,80,70,0
1,note_on,80,0,80
1,note_on,75,75,0
1,note_on,75,0,80
1,note_on,80,71,0
1,note_on,80,0,80
1,note_on,75,67,0
1,note_on,75,0,80
1,note_on,87,82,0
1,note_on,87,0,80
1,note_on,80,79,0
1,note_on,80,0,80
1,note_on,92,74,0
1,note_on,92,0,80
1,note_on,75,85,0
1,note_on,75,0,80
1,note_on,87,74,0
1,note_on,87,0,80
1,note_on,80,71,0
1,note_on,80,0,80
1,note_on,87,88,0
1,note_on,87,0,80
1,note_on,73,76,0
1,note_on,73,0,80
1,note_on,85,72,0
1,note_on,85,0,80
1,note_on,80,81,0
1,note_on,80,0,80
1,note_on,85,73,0
1,note_on,85,0,80
1,note_on,80,67,0
1,note_on,80,0,80
1,note_on,92,70,0
1,note_on,92,0,80
1,note_on,85,66,0
1,note_on,85,0,80
1,note_on,97,64,0
1,note_on,97,0,80
1,note_on,92,72,0
1,note_on,92,0,80
1,note_on,94,67,0
1,note_on,94,0,80
1,note_on,92,61,0
1,note_on,92,0,80
1,note_on,87,72,0
1,note_on,87,0,80
1,note_on,99,67,0
1,note_on,99,0,80
1,note_on,87,58,0
1,note_on,87,0,80
1,note_on,85,78,0
1,note_on,85,0,80
1,note_on,87,74,0
1,note_on,87,0,80
1,note_on,85,68,0
1,note_on,85,0,80
1,note_on,80,75,0
1,note_on,80,0,80
1,note_on,92,71,0
1,note_on,92,0,80
1,note_on,80,66,0
1,note_on,80,0,80
1,note_on,80,72,0
1,note_on,80,0,80
1,note_on,82,67,0
1,note_on,82,0,80
1,note_on,80,65,0
1,note_on,80,0,80
1,note_on,75,72,0
1,note_on,75,0,80
1,note_on,87,67,0
1,note_on,87,0,80
1,note_on,75,67,0
1,note_on,75,0,80
1,note_on,73,75,0
1,note_on,73,0,80
1,note_on,75,68,0
1,note_on,75,0,80
1,note_on,73,67,0
1,note_on,73,0,80
1,note_on,68,72,0
1,note_on,68,0,320
1,note_on,75,70,0
1,note_on,75,0,80
1,note_on,80,67,0
1,note_on,80,0,80
1,note_on,82,74,0
1,note_on,82,0,80
1,note_on,80,70,0
1,note_on,80,0,80
1,note_on,75,67,0
1,note_on,75,0,80
1,note_on,73,71,0
1,note_on,73,0,80
1,note_on,80,73,0
1,note_on,80,0,80
1,note_on,85,72,0
1,note_on,85,0,80
1,note_on,87,74,0
1,note_on,87,0,80
1,note_on,85,69,0
1,note_on,85,0,80
1,note_on,82,67,0
1,note_on,82,0,80
1,note_on,80,72,0
1,note_on,80,0,80
1,note_on,87,69,0
1,note_on,87,0,80
1,note_on,92,67,0
1,note_on,92,0,80
1,note_on,94,72,0
1,note_on,94,0,80
1,note_on,92,64,0
1,note_on,92,0,80
1,note_on,87,59,0
1,note_on,87,0,80
1,note_on,85,77,0
1,note_on,85,0,80
1,note_on,92,73,0
1,note_on,92,0,80
1,note_on,97,68,0
1,note_on,97,0,80
1,note_on,99,72,0
1,note_on,99,0,80
1,note_on,97,68,0
1,note_on,97,0,80
1,note_on,94,68,0
1,note_on,94,0,80
1,note_on,92,72,0
1,note_on,92,0,80
1,note_on,94,69,0
1,note_on,94,0,80
1,note_on,92,63,0
1,note_on,92,0,80
1,note_on,87,72,0
1,note_on,87,0,80
1,note_on,99,67,0
1,note_on,99,0,80
1,note_on,87,72,0
1,note_on,87,0,80
1,note_on,85,81,0
1,note_on,85,0,80
1,note_on,87,73,0
1,note_on,87,0,80
1,note_on,85,67,0
1,note_on,85,0,80
1,note_on,80,77,0
1,note_on,80,0,80
1,note_on,92,75,0
1,note_on,92,0,80
1,note_on,80,67,0
1,note_on,80,0,80
1,note_on,80,79,0
1,note_on,80,0,80
1,note_on,82,70,0
1,note_on,82,0,80
1,note_on,80,65,0
1,note_on,80,0,80
1,note_on,75,73,0
1,note_on,75,0,80
1,note_on,87,68,0
1,note_on,87,0,80
1,note_on,75,65,0
1,note_on,75,0,80
1,note_on,73,75,0
1,note_on,73,0,80
1,note_on,75,69,0
1,note_on,75,0,80
1,note_on,73,63,0
1,note_on,73,0,80
1,note_on,68,75,0
1,note_on,68,0,320
1,note_on,80,67,0
1,note_on,80,0,80
1,note_on,78,64,0
1,note_on,78,0,80
1,note_on,80,75,0
1,note_on,80,0,80
1,note_on,78,68,0
1,note_on,78,0,80
1,note_on,80,65,0
1,note_on,80,0,80
1,note_on,90,82,0
1,note_on,90,0,80
1,note_on,80,71,0
1,note_on,80,0,80
1,note_on,78,65,0
1,note_on,78,0,80
1,note_on,80,74,0
1,note_on,80,0,80
1,note_on,78,67,0
1,note_on,78,0,80
1,note_on,80,64,0
1,note_on,80,0,80
1,note_on,68,64,0
1,note_on,68,0,80
1,note_on,80,68,0
1,note_on,80,0,80
1,note_on,78,63,0
1,note_on,78,0,80
1,note_on,80,71,0
1,note_on,80,0,80
1,note_on,78,65,0
1,note_on,78,0,80
1,note_on,80,62,0
1,note_on,80,0,80
1,note_on,90,81,0
1,note_on,90,0,80
1,note_on,80,67,0
1,note_on,80,0,80
1,note_on,78,63,0
1,note_on,78,0,80
1,note_on,80,69,0
1,note_on,80,0,80
1,note_on,78,67,0
1,note_on,78,0,80
1,note_on,80,64,0
1,note_on,80,0,80
1,note_on,70,70,0
1,note_on,70,0,80
1,note_on,82,74,0
1,note_on,82,0,80
1,note_on,78,66,0
1,note_on,78,0,80
1,note_on,82,74,0
1,note_on,82,0,80
1,note_on,78,70,0
1,note_on,78,0,80
1,note_on,82,66,0
1,note_on,82,0,80
1,note_on,90,83,0
1,note_on,90,0,80
1,note_on,82,71,0
1,note_on,82,0,80
1,note_on,78,68,0
1,note_on,78,0,80
1,note_on,82,77,0
1,note_on,82,0,80
1,note_on,78,72,0
1,note_on,78,0,80
1,note_on,82,67,0
1,note_on,82,0,80
1,note_on,70,73,0
1,note_on,70,0,80
1,note_on,82,75,0
1,note_on,82,0,80
1,note_on,78,72,0
1,note_on,78,0,80
1,note_on,82,78,0
1,note_on,82,0,80
1,note_on,78,72,0
1,note_on,78,0,80
1,note_on,82,67,0
1,note_on,82,0,80
1,note_on,90,85,0
1,note_on,90,0,80
1,note_on,82,74,0
1,note_on,82,0,80
1,note_on,78,71,0
1,note_on,78,0,80
1,note_on,82,80,0
1,note_on,82,0,80
1,note_on,78,77,0
1,note_on,78,0,80
1,note_on,82,74,0
1,note_on,82,0,80
1,note_on,78,80,0
1,note_on,78,0,80
1,note_on,82,77,0
1,note_on,82,0,80
1,note_on,78,78,0
1,note_on,78,0,80
1,note_on,94,87,0
1,note_on,94,0,80
1,note_on,82,76,0
1,note_on,82,0,80
1,note_on,78,70,0
1,note_on,78,0,80
1,note_on,92,89,0
1,note_on,92,0,80
1,note_on,82,70,0
1,note_on,82,0,80
1,note_on,78,73,0
1,note_on,78,0,80
1,note_on,90,89,0
1,note_on,90,0,80
1,note_on,82,78,0
1,note_on,82,0,80
1,note_on,78,73,0
1,note_on,78,0,80
1,note_on,85,80,0
1,note_on,85,0,80
1,note_on,82,73,0
1,note_on,82,0,80
1,note_on,78,76,0
1,note_on,78,0,80
1,note_on,94,90,0
1,note_on,94,0,80
1,note_on,82,76,0
1,note_on,82,0,80
1,note_on,78,79,0
1,note_on,78,0,80
1,note_on,92,94,0
1,note_on,92,0,80
1,note_on,82,77,0
1,note_on,82,0,80
1,note_on,78,76,0
1,note_on,78,0,80
1,note_on,90,95,0
1,note_on,90,0,80
1,note_on,82,76,0
1,note_on,82,0,80
1,note_on,78,79,0
1,note_on,78,0,80
1,note_on,73,87,0
1,note_on,73,0,80
1,note_on,85,78,0
1,note_on,85,0,80
1,note_on,82,75,0
1,note_on,82,0,80
1,note_on,85,88,0
1,note_on,85,0,80
1,note_on,85,75,0
1,note_on,85,0,80
1,note_on,97,80,0
1,note_on,97,0,80
1,note_on,94,94,0
1,note_on,94,0,80
1,note_on,97,77,0
1,note_on,97,0,80
1,note_on,85,76,0
1,note_on,85,0,80
1,note_on,85,89,0
1,note_on,85,0,80
1,note_on,82,77,0
1,note_on,82,0,80
1,note_on,85,82,0
1,note_on,85,0,80
1,note_on,73,89,0
1,note_on,73,0,80
1,note_on,85,85,0
1,note_on,85,0,80
1,note_on,82,81,0
1,note_on,82,0,80
1,note_on,85,90,0
1,note_on,85,0,80
1,note_on,85,85,0
1,note_on,85,0,80
1,note_on,97,85,0
1,note_on,97,0,80
1,note_on,94,101,0
1,note_on,94,0,80
1,note_on,97,86,0
1,note_on,97,0,80
1,note_on,85,84,0
1,note_on,85,0,80
1,note_on,85,93,0
1,note_on,85,0,80
1,note_on,82,85,0
1,note_on,82,0,80
1,note_on,85,80,0
1,note_on,85,0,80
1,note_on,73,94,0
1,note_on,73,0,80
1,note_on,85,85,0
1,note_on,85,0,80
1,note_on,82,81,0
1,note_on,82,0,80
1,note_on,85,94,0
1,note_on,85,0,80
1,note_on,85,84,0
1,note_on,85,0,80
1,note_on,97,80,0
1,note_on,97,0,80
1,note_on,92,95,0
1,note_on,92,0,80
1,note_on,97,85,0
1,note_on,97,0,80
1,note_on,85,83,0
1,note_on,85,0,80
1,note_on,85,95,0
1,note_on,85,0,80
1,note_on,80,90,0
1,note_on,80,0,80
1,note_on,85,86,0
1,note_on,85,0,80
1,note_on,73,97,0
1,note_on,73,0,80
1,note_on,85,90,0
1,note_on,85,0,80
1,note_on,78,85,0
1,note_on,78,0,80
1,note_on,85,93,0
1,note_on,85,0,80
1,note_on,73,87,0
1,note_on,73,0,80
1,note_on,73,84,0
1,note_on,73,0,80
1,note_on,66,95,0
1,note_on,66,0,80
1,note_on,73,90,0
1,note_on,73,0,80
1,note_on,61,85,0
1,note_on,61,0,80
1,note_on,61,100,0
1,note_on,61,0,80
1,note_on,54,89,0
1,note_on,54,0,80
1,note_on,61,85,0
1,note_on,61,0,80
1,note_on,51,74,0
1,note_on,51,0,80
1,note_on,54,71,0
1,note_on,54,0,80
1,note_on,61,72,0
1,note_on,61,0,80
1,note_on,63,77,0
1,note_on,63,0,80
1,note_on,54,70,0
1,note_on,54,0,80
1,note_on,61,72,0
1,note_on,61,0,80
1,note_on,63,81,0
1,note_on,63,0,80
1,note_on,66,78,0
1,note_on,66,0,80
1,note_on,61,75,0
1,note_on,61,0,80
1,note_on,63,83,0
1,note_on,63,0,80
1,note_on,66,77,0
1,note_on,66,0,80
1,note_on,73,73,0
1,note_on,73,0,80
1,note_on,63,87,0
1,note_on,63,0,80
1,note_on,66,80,0
1,note_on,66,0,80
1,note_on,73,77,0
1,note_on,73,0,80
1,note_on,75,89,0
1,note_on,75,0,80
1,note_on,66,78,0
1,note_on,66,0,80
1,note_on,73,75,0
1,note_on,73,0,80
1,note_on,75,89,0
1,note_on,75,0,80
1,note_on,78,78,0
1,note_on,78,0,80
1,note_on,73,76,0
1,note_on,73,0,80
1,note_on,75,89,0
1,note_on,75,0,80
1,note_on,85,78,0
1,note_on,85,0,80
1,note_on,78,75,0
1,note_on,78,0,80
1,note_on,75,89,0
1,note_on,75,0,80
1,note_on,78,81,0
1,note_on,78,0,80
1,note_on,87,86,0
1,note_on,87,0,80
1,note_on,85,85,0
1,note_on,85,0,80
1,note_on,78,78,0
1,note_on,78,0,80
1,note_on,75,84,0
1,note_on,75,0,80
1,note_on,85,81,0
1,note_on,85,0,80
1,note_on,78,76,0
1,note_on,78,0,80
1,note_on,75,71,0
1,note_on,75,0,80
1,note_on,73,78,0
1,note_on,73,0,80
1,note_on,78,71,0
1,note_on,78,0,80
1,note_on,75,75,0
1,note_on,75,0,80
1,note_on,73,74,0
1,note_on,73,0,80
1,note_on,66,69,0
1,note_on,66,0,80
1,note_on,75,72,0
1,note_on,75,0,80
1,note_on,73,71,0
1,note_on,73,0,80
1,note_on,66,66,0
1,note_on,66,0,80
1,note_on,63,69,0
1,note_on,63,0,80
1,note_on,73,67,0
1,note_on,73,0,80
1,note_on,66,61,0
1,note_on,66,0,80
1,note_on,63,65,0
1,note_on,63,0,80
1,note_on,61,64,0
1,note_on,61,0,80
1,note_on,66,59,0
1,note_on,66,0,80
1,note_on,63,62,0
1,note_on,63,0,80
1,note_on,56,52,0
1,note_on,56,0,80
1,note_on,63,54,0
1,note_on,63,0,80
1,note_on,66,54,0
1,note_on,66,0,80
1,note_on,68,56,0
1,note_on,68,0,80
1,note_on,63,56,0
1,note_on,63,0,80
1,note_on,66,54,0
1,note_on,66,0,80
1,note_on,68,58,0
1,note_on,68,0,80
1,note_on,75,58,0
1,note_on,75,0,80
1,note_on,66,56,0
1,note_on,66,0,80
1,note_on,68,60,0
1,note_on,68,0,80
1,note_on,75,60,0
1,note_on,75,0,80
1,note_on,78,58,0
1,note_on,78,0,80
1,note_on,68,62,0
1,note_on,68,0,80
1,note_on,75,58,0
1,note_on,75,0,80
1,note_on,78,62,0
1,note_on,78,0,80
1,note_on,80,62,0
1,note_on,80,0,80
1,note_on,75,54,0
1,note_on,75,0,80
1,note_on,78,58,0
1,note_on,78,0,80
1,note_on,80,62,0
1,note_on,80,0,80
1,note_on,87,65,0
1,note_on,87,0,80
1,note_on,78,60,0
1,note_on,78,0,80
1,note_on,80,62,0
1,note_on,80,0,80
1,note_on,90,58,0
1,note_on,90,0,80
1,note_on,87,59,0
1,note_on,87,0,80
1,note_on,80,59,0
1,note_on,80,0,80
1,note_on,78,59,0
1,note_on,78,0,80
1,note_on,87,58,0
1,note_on,87,0,80
1,note_on,80,58,0
1,note_on,80,0,80
1,note_on,78,57,0
1,note_on,78,0,80
1,note_on,75,56,0
1,note_on,75,0,80
1,note_on,80,56,0
1,note_on,80,0,80
1,note_on,78,56,0
1,note_on,78,0,80
1,note_on,75,54,0
1,note_on,75,0,80
1,note_on,68,54,0
1,note_on,68,0,80
1,note_on,78,52,0
1,note_on,78,0,80
1,note_on,75,52,0
1,note_on,75,0,80
1,note_on,68,52,0
1,note_on,68,0,80
1,note_on,66,51,0
1,note_on,66,0,80
1,note_on,75,51,0
1,note_on,75,0,80
1,note_on,68,50,0
1,note_on,68,0,80
1,note_on,66,49,0
1,note_on,66,0,80
1,note_on,63,49,0
1,note_on,63,0,80
1,note_on,68,48,0
1,note_on,68,0,80
1,note_on,66,48,0
1,note_on,66,0,80
1,note_on,63,48,0
1,note_on,63,0,80
1,note_on,56,46,0
1,note_on,56,0,80
1,note_on,66,46,0
1,note_on,66,0,80
1,note_on,63,44,0
1,note_on,63,0,80
1,note_on,61,65,0
1,note_on,61,0,80
1,note_on,73,59,0
1,note_on,73,0,80
1,note_on,68,55,0
1,note_on,68,0,80
1,note_on,73,65,0
1,note_on,73,0,80
1,note_on,65,59,0
1,note_on,65,0,80
1,note_on,80,58,0
1,note_on,80,0,80
1,note_on,73,70,0
1,note_on,73,0,80
1,note_on,80,66,0
1,note_on,80,0,80
1,note_on,68,66,0
1,note_on,68,0,80
1,note_on,73,70,0
1,note_on,73,0,80
1,note_on,68,66,0
1,note_on,68,0,80
1,note_on,73,62,0
1,note_on,73,0,80
1,note_on,61,65,0
1,note_on,61,0,80
1,note_on,73,63,0
1,note_on,73,0,80
1,note_on,68,58,0
1,note_on,68,0,80
1,note_on,73,65,0
1,note_on,73,0,80
1,note_on,68,63,0
1,note_on,68,0,80
1,note_on,80,57,0
1,note_on,80,0,80
1,note_on,73,65,0
1,note_on,73,0,80
1,note_on,80,59,0
1,note_on,80,0,80
1,note_on,68,55,0
1,note_on,68,0,80
1,note_on,73,65,0
1,note_on,73,0,80
1,note_on,68,63,0
1,note_on,68,0,80
1,note_on,73,58,0
1,note_on,73,0,80
1,note_on,61,65,0
1,note_on,61,0,80
1,note_on,73,58,0
1,note_on,73,0,80
1,note_on,68,56,0
1,note_on,68,0,80
1,note_on,73,65,0
1,note_on,73,0,80
1,note_on,73,58,0
1,note_on,73,0,80
1,note_on,85,55,0
1,note_on,85,0,80
1,note_on,80,71,0
1,note_on,80,0,80
1,note_on,85,64,0
1,note_on,85,0,80
1,note_on,73,62,0
1,note_on,73,0,80
1,note_on,73,71,0
1,note_on,73,0,80
1,note_on,68,67,0
1,note_on,68,0,80
1,note_on,73,62,0
1,note_on,73,0,80
1,note_on,68,65,0
1,note_on,68,0,80
1,note_on,80,59,0
1,note_on,80,0,80
1,note_on,73,54,0
1,note_on,73,0,80
1,note_on,80,65,0
1,note_on,80,0,80
1,note_on,80,58,0
1,note_on,80,0,80
1,note_on,92,59,0
1,note_on,92,0,80
1,note_on,85,65,0
1,note_on,85,0,80
1,note_on,92,57,0
1,note_on,92,0,80
1,note_on,80,60,0
1,note_on,80,0,80
1,note_on,80,65,0
1,note_on,80,0,80
1,note_on,73,63,0
1,note_on,73,0,80
1,note_on,80,56,0
1,note_on,80,0,80
1,note_on,73,65,0
1,note_on,73,0,80
1,note_on,75,62,0
1,note_on,75,0,80
1,note_on,73,57,0
1,note_on,73,0,80
1,note_on,87,64,0
1,note_on,87,0,80
1,note_on,85,61,0
1,note_on,85,0,80
1,note_on,99,61,0
1,note_on,99,0,80
1,note_on,97,73,0
1,note_on,97,0,80
1,note_on,99,65,0
1,note_on,99,0,80
1,note_on,97,66,0
1,note_on,97,0,80
1,note_on,85,80,0
1,note_on,85,0,80
1,note_on,87,75,0
1,note_on,87,0,80
1,note_on,85,70,0
1,note_on,85,0,80
1,note_on,73,81,0
1,note_on,73,0,80
1,note_on,75,77,0
1,note_on,75,0,80
1,note_on,73,73,0
1,note_on,73,0,80
1,note_on,87,78,0
1,note_on,87,0,80
1,note_on,85,70,0
1,note_on,85,0,80
1,note_on,99,74,0
1,note_on,99,0,80
1,note_on,97,73,0
1,note_on,97,0,80
1,note_on,99,70,0
1,note_on,99,0,80
1,note_on,97,66,0
1,note_on,97,0,80
1,note_on,85,70,0
1,note_on,85,0,80
1,note_on,87,67,0
1,note_on,87,0,80
1,note_on,85,66,0
1,note_on,85,0,80
1,note_on,97,65,0
1,note_on,97,0,80
1,note_on,99,65,0
1,note_on,99,0,80
1,note_on,97,62,0
1,note_on,97,0,80
1,note_on,85,66,0
1,note_on,85,0,80
1,note_on,87,69,0
1,note_on,87,0,80
1,note_on,85,65,0
1,note_on,85,0,80
1,note_on,97,71,0
1,note_on,97,0,80
1,note_on,99,68,0
1,note_on,99,0,80
1,note_on,97,72,0
1,note_on,97,0,80
1,note_on,85,75,0
1,note_on,85,0,80
1,note_on,87,72,0
1,note_on,87,0,80
1,note_on,85,68,0
1,note_on,85,0,80
1,note_on,97,79,0
1,note_on,97,0,80
1,note_on,99,75,0
1,note_on,99,0,80
1,note_on,97,70,0
1,note_on,97,0,80
1,note_on,85,74,0
1,note_on,85,0,80
1,note_on,87,69,0
1,note_on,87,0,80
1,note_on,85,68,0
1,note_on,85,0,80
1,note_on,97,71,0
1,note_on,97,0,80
1,note_on,99,67,0
1,note_on,99,0,80
1,note_on,97,64,0
1,note_on,97,0,80
1,note_on,85,67,0
1,note_on,85,0,80
1,note_on,87,66,0
1,note_on,87,0,80
1,note_on,85,65,0
1,note_on,85,0,80
1,note_on,90,96,1
1,note_on,94,70,79
1,note_on,90,0,1
1,note_on,94,0,79
1,note_on,85,70,0
1,note_on,85,0,80
1,note_on,90,92,0
1,note_on,90,0,80
1,note_on,87,74,0
1,note_on,87,0,80
1,note_on,90,70,0
1,note_on,90,0,80
1,note_on,85,97,0
1,note_on,85,0,80
1,note_on,90,74,0
1,note_on,90,0,80
1,note_on,82,71,0
1,note_on,82,0,80
1,note_on,85,84,0
1,note_on,85,0,80
1,note_on,78,73,0
1,note_on,78,0,80
1,note_on,82,70,0
1,note_on,82,0,80
1,note_on,78,74,0
1,note_on,78,0,80
1,note_on,82,69,0
1,note_on,82,0,80
1,note_on,73,66,0
1,note_on,73,0,80
1,note_on,78,69,0
1,note_on,78,0,80
1,note_on,75,66,0
1,note_on,75,0,80
1,note_on,78,63,0
1,note_on,78,0,80
1,note_on,73,74,0
1,note_on,73,0,80
1,note_on,78,68,0
1,note_on,78,0,80
1,note_on,70,63,0
1,note_on,70,0,80
1,note_on,73,74,0
1,note_on,73,0,80
1,note_on,66,64,0
1,note_on,66,0,80
1,note_on,70,61,0
1,note_on,70,0,80
1,note_on,61,74,0
1,note_on,61,0,80
1,note_on,73,72,0
1,note_on,73,0,80
1,note_on,68,67,0
1,note_on,68,0,80
1,note_on,73,75,0
1,note_on,73,0,80
1,note_on,68,66,0
1,note_on,68,0,80
1,note_on,80,67,0
1,note_on,80,0,80
1,note_on,68,72,0
1,note_on,68,0,80
1,note_on,80,73,0
1,note_on,80,0,80
1,note_on,75,71,0
1,note_on,75,0,80
1,note_on,80,78,0
1,note_on,80,0,80
1,note_on,75,76,0
1,note_on,75,0,80
1,note_on,87,72,0
1,note_on,87,0,80
1,note_on,75,82,0
1,note_on,75,0,80
1,note_on,87,77,0
1,note_on,87,0,80
1,note_on,80,72,0
1,note_on,80,0,80
1,note_on,87,86,0
1,note_on,87,0,80
1,note_on,80,74,0
1,note_on,80,0,80
1,note_on,92,75,0
1,note_on,92,0,80
1,note_on,80,88,0
1,note_on,80,0,80
1,note_on,92,81,0
1,note_on,92,0,80
1,note_on,85,77,0
1,note_on,85,0,80
1,note_on,92,89,0
1,note_on,92,0,80
1,note_on,85,85,0
1,note_on,85,0,80
1,note_on,97,83,0
1,note_on,97,0,80
1,note_on,90,97,0
1,note_on,90,0,80
1,note_on,94,74,0
1,note_on,94,0,80
1,note_on,85,71,0
1,note_on,85,0,80
1,note_on,90,94,0
1,note_on,90,0,80
1,note_on,87,75,0
1,note_on,87,0,80
1,note_on,90,73,0
1,note_on,90,0,80
1,note_on,85,95,0
1,note_on,85,0,80
1,note_on,90,76,0
1,note_on,90,0,80
1,note_on,82,73,0
1,note_on,82,0,80
1,note_on,85,86,0
1,note_on,85,0,80
1,note_on,78,77,0
1,note_on,78,0,80
1,note_on,82,73,0
1,note_on,82,0,80
1,note_on,78,74,0
1,note_on,78,0,80
1,note_on,82,66,0
1,note_on,82,0,80
1,note_on,73,64,0
1,note_on,73,0,80
1,note_on,78,70,0
1,note_on,78,0,80
1,note_on,75,67,0
1,note_on,75,0,80
1,note_on,78,67,0
1,note_on,78,0,80
1,note_on,73,74,0
1,note_on,73,0,80
1,note_on,78,62,0
1,note_on,78,0,80
1,note_on,70,55,0
1,note_on,70,0,80
1,note_on,73,74,0
1,note_on,73,0,80
1,note_on,66,64,0
1,note_on,66,0,80
1,note_on,70,60,0
1,note_on,70,0,80
1,note_on,63,74,0
1,note_on,63,0,80
1,note_on,75,71,0
1,note_on,75,0,80
1,note_on,68,67,0
1,note_on,68,0,80
1,note_on,75,74,0
1,note_on,75,0,80
1,note_on,68,72,0
1,note_on,68,0,80
1,note_on,80,67,0
1,note_on,80,0,80
1,note_on,70,74,0
1,note_on,70,0,80
1,note_on,82,85,0
1,note_on,82,0,80
1,note_on,70,72,0
1,note_on,70,0,80
1,note_on,82,74,0
1,note_on,82,0,80
1,note_on,70,70,0
1,note_on,70,0,80
1,note_on,82,66,0
1,note_on,82,0,80
1,note_on,75,74,0
1,note_on,75,0,80
1,note_on,87,70,0
1,note_on,87,0,80
1,note_on,80,70,0
1,note_on,80,0,80
1,note_on,87,71,0
1,note_on,87,0,80
1,note_on,80,69,0
1,note_on,80,0,80
1,note_on,92,69,0
1,note_on,92,0,80
1,note_on,82,72,0
1,note_on,82,0,80
1,note_on,94,79,0
1,note_on,94,0,80
1,note_on,82,69,0
1,note_on,82,0,80
1,note_on,94,72,0
1,note_on,94,0,80
1,note_on,82,72,0
1,note_on,82,0,80
1,note_on,94,70,0
1,note_on,94,0,80
1,note_on,82,74,0
1,note_on,82,0,80
1,note_on,94,72,0
1,note_on,94,0,80
1,note_on,87,72,0
1,note_on,87,0,80
1,note_on,94,74,0
1,note_on,94,0,80
1,note_on,80,69,0
1,note_on,80,0,80
1,note_on,92,67,0
1,note_on,92,0,80
1,note_on,80,75,0
1,note_on,80,0,80
1,note_on,92,73,0
1,note_on,92,0,80
1,note_on,85,70,0
1,note_on,85,0,80
1,note_on,92,77,0
1,note_on,92,0,80
1,note_on,78,69,0
1,note_on,78,0,80
1,note_on,90,70,0
1,note_on,90,0,80
1,note_on,73,77,0
1,note_on,73,0,80
1,note_on,85,72,0
1,note_on,85,0,80
1,note_on,80,69,0
1,note_on,80,0,80
1,note_on,85,78,0
1,note_on,85,0,80
1,note_on,80,72,0
1,note_on,80,0,80
1,note_on,92,75,0
1,note_on,92,0,80
1,note_on,78,78,0
1,note_on,78,0,80
1,note_on,90,74,0
1,note_on,90,0,80
1,note_on,85,72,0
1,note_on,85,0,80
1,note_on,90,80,0
1,note_on,90,0,80
1,note_on,85,74,0
1,note_on,85,0,80
1,note_on,97,78,0
1,note_on,97,0,80
1,note_on,82,80,0
1,note_on,82,0,80
1,note_on,94,74,0
1,note_on,94,0,80
1,note_on,87,71,0
1,note_on,87,0,80
1,note_on,94,81,0
1,note_on,94,0,80
1,note_on,80,79,0
1,note_on,80,0,80
1,note_on,92,76,0
1,note_on,92,0,80
1,note_on,80,82,0
1,note_on,80,0,80
1,note_on,92,76,0
1,note_on,92,0,80
1,note_on,85,73,0
1,note_on,85,0,80
1,note_on,92,82,0
1,note_on,92,0,80
1,note_on,78,74,0
1,note_on,78,0,80
1,note_on,90,70,0
1,note_on,90,0,80
1,note_on,73,83,0
1,note_on,73,0,80
1,note_on,85,74,0
1,note_on,85,0,80
1,note_on,80,71,0
1,note_on,80,0,80
1,note_on,85,83,0
1,note_on,85,0,80
1,note_on,80,76,0
1,note_on,80,0,80
1,note_on,92,82,0
1,note_on,92,0,80
1,note_on,78,86,0
1,note_on,78,0,80
1,note_on,90,76,0
1,note_on,90,0,80
1,note_on,85,73,0
1,note_on,85,0,80
1,note_on,90,87,0
1,note_on,90,0,80
1,note_on,85,79,0
1,note_on,85,0,80
1,note_on,97,75,0
1,note_on,97,0,80
1,note_on,82,83,0
1,note_on,82,0,80
1,note_on,94,74,0
1,note_on,94,0,80
1,note_on,87,75,0
1,note_on,87,0,80
1,note_on,94,86,0
1,note_on,94,0,80
1,note_on,80,77,0
1,note_on,80,0,80
1,note_on,92,74,0
1,note_on,92,0,80
1,note_on,82,87,0
1,note_on,82,0,80
1,note_on,94,80,0
1,note_on,94,0,80
1,note_on,87,74,0
1,note_on,87,0,80
1,note_on,94,84,0
1,note_on,94,0,80
1,note_on,80,78,0
1,note_on,80,0,80
1,note_on,92,74,0
1,note_on,92,0,80
1,note_on,82,92,0
1,note_on,82,0,80
1,note_on,94,85,0
1,note_on,94,0,80
1,note_on,87,81,0
1,note_on,87,0,80
1,note_on,94,93,0
1,note_on,94,0,80
1,note_on,80,85,0
1,note_on,80,0,80
1,note_on,92,90,0
1,note_on,92,0,80
1,note_on,82,94,0
1,note_on,82,0,80
1,note_on,94,86,0
1,note_on,94,0,80
1,note_on,87,83,0
1,note_on,87,0,80
1,note_on,94,97,0
1,note_on,94,0,80
1,note_on,80,80,0
1,note_on,80,0,80
1,note_on,92,88,0
1,note_on,92,0,80
1,note_on,85,98,0
1,note_on,85,0,80
1,note_on,94,90,0
1,note_on,94,0,80
1,note_on,80,87,0
1,note_on,80,0,80
1,note_on,92,100,0
1,note_on,92,0,80
1,note_on,85,90,0
1,note_on,85,0,80
1,note_on,94,92,0
1,note_on,94,0,80
1,note_on,80,103,0
1,note_on,80,0,80
1,note_on,92,93,0
1,note_on,92,0,80
1,note_on,85,86,0
1,note_on,85,0,80
1,note_on,94,94,0
1,note_on,94,0,80
1,note_on,80,90,0
1,note_on,80,0,80
1,note_on,92,86,0
1,note_on,92,0,80
1,note_on,85,96,0
1,note_on,85,0,80
1,note_on,94,91,0
1,note_on,94,0,80
1,note_on,80,85,0
1,note_on,80,0,80
1,note_on,92,89,0
1,note_on,92,0,80
1,note_on,85,82,0
1,note_on,85,0,80
1,note_on,94,75,0
1,note_on,94,0,80
1,note_on,80,85,0
1,note_on,80,0,80
1,note_on,92,77,0
1,note_on,92,0,80
1,note_on,85,71,0
1,note_on,85,0,80
1,note_on,94,75,0
1,note_on,94,0,80
1,note_on,80,68,0
1,note_on,80,0,80
1,note_on,92,64,0
1,note_on,92,0,80
1,note_on,99,57,0
1,note_on,99,0,80
1,note_on,97,57,40
1,note_on,97,0,40
1,note_on,94,52,0
1,note_on,94,0,80
1,note_on,92,57,0
1,note_on,92,0,80
1,note_on,90,57,0
1,note_on,90,0,80
1,note_on,87,54,0
1,note_on,87,0,80
1,note_on,85,57,0
1,note_on,85,0,80
1,note_on,82,57,0
1,note_on,82,0,80
1,note_on,80,53,0
1,note_on,80,0,80
1,note_on,78,57,0
1,note_on,78,0,80
1,note_on,75,57,0
1,note_on,75,0,80
1,note_on,73,54,0
1,note_on,73,0,80
1,note_on,68,65,0
1,note_on,68,0,480
1,note_on,70,69,0
1,note_on,70,0,360
1,note_on,68,64,0
1,note_on,68,0,120
1,note_on,66,71,0
1,note_on,66,0,480
1,note_on,92,63,0
1,note_on,92,0,80
1,note_on,94,53,0
1,note_on,94,0,80
1,note_on,92,57,0
1,note_on,92,0,80
1,note_on,85,59,0
1,note_on,85,0,80
1,note_on,97,59,0
1,note_on,97,0,80
1,note_on,85,54,0
1,note_on,85,0,80
1,note_on,85,63,0
1,note_on,85,0,80
1,note_on,87,63,0
1,note_on,87,0,80
1,note_on,85,63,0
1,note_on,85,0,80
1,note_on,78,58,0
1,note_on,78,0,80
1,note_on,90,55,0
1,note_on,90,0,80
1,note_on,78,58,0
1,note_on,78,0,80
1,note_on,80,63,0
1,note_on,80,0,80
1,note_on,82,54,0
1,note_on,82,0,80
1,note_on,80,56,0
1,note_on,80,0,80
1,note_on,73,78,0
1,note_on,73,0,320
1,note_on,78,62,0
1,note_on,78,0,80
1,note_on,80,57,0
1,note_on,80,0,80
1,note_on,82,66,0
1,note_on,82,0,80
1,note_on,80,64,0
1,note_on,80,0,80
1,note_on,78,57,0
1,note_on,78,0,80
1,note_on,73,62,0
1,note_on,73,0,80
1,note_on,80,64,0
1,note_on,80,0,80
1,note_on,85,61,0
1,note_on,85,0,80
1,note_on,87,67,0
1,note_on,87,0,80
1,note_on,85,65,0
1,note_on,85,0,80
1,note_on,80,59,0
1,note_on,80,0,80
1,note_on,78,66,0
1,note_on,78,0,80
1,note_on,85,63,0
1,note_on,85,0,80
1,note_on,90,59,0
1,note_on,90,0,80
1,note_on,92,64,0
1,note_on,92,0,80
1,note_on,90,64,0
1,note_on,90,0,80
1,note_on,87,57,0
1,note_on,87,0,80
1,note_on,85,70,0
1,note_on,85,0,80
1,note_on,92,67,0
1,note_on,92,0,80
1,note_on,97,65,0
1,note_on,97,0,80
1,note_on,99,74,0
1,note_on,99,0,80
1,note_on,97,67,0
1,note_on,97,0,80
1,note_on,92,62,0
1,note_on,92,0,80
1,note_on,90,62,0
1,note_on,90,0,80
1,note_on,92,57,0
1,note_on,92,0,80
1,note_on,90,56,0
1,note_on,90,0,80
1,note_on,85,63,0
1,note_on,85,0,80
1,note_on,97,59,0
1,note_on,97,0,80
1,note_on,85,59,0
1,note_on,85,0,80
1,note_on,85,63,0
1,note_on,85,0,80
1,note_on,87,60,0
1,note_on,87,0,80
1,note_on,85,57,0
1,note_on,85,0,80
1,note_on,80,59,0
1,note_on,80,0,80
1,note_on,92,59,0
1,note_on,92,0,80
1,note_on,80,59,0
1,note_on,80,0,80
1,note_on,80,63,0
1,note_on,80,0,80
1,note_on,82,59,0
1,note_on,82,0,80
1,note_on,80,55,0
1,note_on,80,0,80
1,note_on,78,58,0
1,note_on,78,0,80
1,note_on,90,58,0
1,note_on,90,0,80
1,note_on,78,55,0
1,note_on,78,0,80
1,note_on,73,63,0
1,note_on,73,0,560
1,note_on,78,64,0
1,note_on,78,0,80
1,note_on,80,62,0
1,note_on,80,0,80
1,note_on,82,70,0
1,note_on,82,0,80
1,note_on,80,64,0
1,note_on,80,0,80
1,note_on,78,61,0
1,note_on,78,0,80
1,note_on,73,69,0
1,note_on,73,0,80
1,note_on,80,66,0
1,note_on,80,0,80
1,note_on,85,64,0
1,note_on,85,0,80
1,note_on,87,73,0
1,note_on,87,0,80
1,note_on,85,67,0
1,note_on,85,0,80
1,note_on,80,65,0
1,note_on,80,0,80
1,note_on,78,74,0
1,note_on,78,0,80
1,note_on,85,71,0
1,note_on,85,0,80
1,note_on,90,70,0
1,note_on,90,0,80
1,note_on,92,76,0
1,note_on,92,0,80
1,note_on,90,70,0
1,note_on,90,0,80
1,note_on,85,70,0
1,note_on,85,0,80
1,note_on,80,79,0
1,note_on,80,0,80
1,note_on,85,81,0
1,note_on,85,0,80
1,note_on,92,78,0
1,note_on,92,0,80
1,note_on,94,86,0
1,note_on,94,0,80
1,note_on,92,78,0
1,note_on,92,0,80
1,note_on,85,74,0
1,note_on,85,0,80
1,note_on,94,87,0
1,note_on,94,0,80
1,note_on,85,77,0
1,note_on,85,0,80
1,note_on,92,71,0
1,note_on,92,0,80
1,note_on,82,83,0
1,note_on,82,0,80
1,note_on,92,78,0
1,note_on,92,0,80
1,note_on,85,70,0
1,note_on,85,0,80
1,note_on,90,83,0
1,note_on,90,0,80
1,note_on,82,76,0
1,note_on,82,0,80
1,note_on,87,72,0
1,note_on,87,0,80
1,note_on,80,83,0
1,note_on,80,0,80
1,note_on,85,76,0
1,note_on,85,0,80
1,note_on,73,72,0
1,note_on,73,0,80
1,note_on,82,83,0
1,note_on,82,0,80
1,note_on,73,78,0
1,note_on,73,0,80
1,note_on,80,74,0
1,note_on,80,0,80
1,note_on,70,83,0
1,note_on,70,0,80
1,note_on,80,72,0
1,note_on,80,0,80
1,note_on,73,72,0
1,note_on,73,0,80
1,note_on,78,83,0
1,note_on,78,0,80
1,note_on,70,78,0
1,note_on,70,0,80
1,note_on,75,74,0
1,note_on,75,0,80
1,note_on,68,83,0
1,note_on,68,0,80
1,note_on,73,77,0
1,note_on,73,0,80
1,note_on,61,76,0
1,note_on,61,0,80
1,note_on,70,87,0
1,note_on,70,0,80
1,note_on,61,82,0
1,note_on,61,0,80
1,note_on,68,77,0
1,note_on,68,0,80
1,note_on,58,88,0
1,note_on,58,0,80
1,note_on,68,77,0
1,note_on,68,0,80
1,note_on,61,81,0
1,note_on,61,0,80
1,note_on,66,93,0
1,note_on,66,0,80
1,note_on,58,87,0
1,note_on,58,0,80
1,note_on,63,86,0
1,note_on,63,0,80
1,note_on,56,97,0
1,note_on,56,0,80
1,note_on,61,91,0
1,note_on,61,0,80
1,note_on,49,88,0
1,note_on,49,0,80
1,note_on,58,101,0
1,note_on,58,0,80
1,note_on,54,92,0
1,note_on,54,0,80
1,note_on,63,87,0
1,note_on,63,0,80
1,note_on,49,101,0
1,note_on,49,0,80
1,note_on,61,92,0
1,note_on,61,0,80
1,note_on,56,86,0
1,note_on,56,0,80
1,note_on,58,101,0
1,note_on,58,0,80
1,note_on,54,93,0
1,note_on,54,0,80
1,note_on,63,89,0
1,note_on,63,0,80
1,note_on,49,101,0
1,note_on,49,0,80
1,note_on,61,93,0
1,note_on,61,0,80
1,note_on,56,89,0
1,note_on,56,0,80
1,note_on,58,101,0
1,note_on,58,0,240
1,note_on,54,48,0
1,note_on,58,60,0
1,note_on,58,0,80
1,note_on,54,0,0
1,note_on,56,59,0
1,note_on,56,0,80
1,note_on,54,54,0
1,note_on,54,0,80
1,note_on,66,63,0
1,note_on,63,50,0
1,note_on,63,0,80
1,note_on,66,0,0
1,note_on,61,60,0
1,note_on,61,0,80
1,note_on,58,56,0
1,note_on,58,0,80
1,note_on,70,64,0
1,note_on,66,50,0
1,note_on,66,0,80
1,note_on,70,0,0
1,note_on,63,62,0
1,note_on,63,0,80
1,note_on,61,58,0
1,note_on,61,0,80
1,note_on,70,52,0
1,note_on,73,66,0
1,note_on,73,0,80
1,note_on,70,0,0
1,note_on,68,64,0
1,note_on,68,0,80
1,note_on,66,58,0
1,note_on,66,0,80
1,note_on,78,69,0
1,note_on,75,55,0
1,note_on,75,0,80
1,note_on,78,0,0
1,note_on,73,59,0
1,note_on,73,0,80
1,note_on,70,59,0
1,note_on,70,0,80
1,note_on,82,70,0
1,note_on,78,55,0
1,note_on,78,0,80
1,note_on,82,0,0
1,note_on,75,65,0
1,note_on,75,0,80
1,note_on,73,64,0
1,note_on,73,0,80
1,note_on,85,71,0
1,note_on,82,56,0
1,note_on,82,0,80
1,note_on,85,0,0
1,note_on,80,67,0
1,note_on,80,0,80
1,note_on,78,67,0
1,note_on,78,0,80
1,note_on,90,73,0
1,note_on,87,58,0
1,note_on,87,0,80
1,note_on,90,0,0
1,note_on,85,67,0
1,note_on,85,0,80
1,note_on,82,65,0
1,note_on,82,0,80
1,note_on,94,75,0
1,note_on,90,59,0
1,note_on,90,0,80
1,note_on,94,0,0
1,note_on,87,69,0
1,note_on,87,0,80
1,note_on,85,66,0
1,note_on,85,0,80
1,note_on,90,78,0
1,note_on,87,62,0
1,note_on,87,0,80
1,note_on,90,0,0
1,note_on,85,70,0
1,note_on,85,0,80
1,note_on,82,69,0
1,note_on,82,0,80
1,note_on,94,78,0
1,note_on,90,62,0
1,note_on,90,0,80
1,note_on,94,0,0
1,note_on,87,71,0
1,note_on,87,0,80
1,note_on,85,70,0
1,note_on,85,0,80
1,note_on,90,81,0
1,note_on,87,64,0
1,note_on,87,0,80
1,note_on,90,0,0
1,note_on,85,74,0
1,note_on,85,0,80
1,note_on,82,73,0
1,note_on,82,0,80
1,note_on,94,81,0
1,note_on,90,64,0
1,note_on,90,0,80
1,note_on,94,0,0
1,note_on,87,75,0
1,note_on,87,0,80
1,note_on,85,74,0
1,note_on,85,0,80
1,note_on,90,82,0
1,note_on,87,65,0
1,note_on,87,0,80
1,note_on,90,0,0
1,note_on,85,75,0
1,note_on,85,0,80
1,note_on,82,75,0
1,note_on,82,0,80
1,note_on,94,85,0
1,note_on,90,67,0
1,note_on,90,0,80
1,note_on,94,0,0
1,note_on,87,77,0
1,note_on,87,0,80
1,note_on,85,75,0
1,note_on,85,0,80
1,note_on,82,89,0
1,note_on,90,89,0
1,note_on,90,0,80
1,note_on,82,0,0
1,note_on,78,94,80
1,note_on,90,94,0
1,note_on,90,0,80
1,note_on,78,0,0
1,note_on,87,94,0
1,note_on,75,94,0
1,note_on,75,0,80
1,note_on,87,0,0
1,note_on,85,95,0
1,note_on,73,95,0
1,note_on,73,0,80
1,note_on,85,0,0
1,note_on,82,96,0
1,note_on,70,96,0
1,note_on,70,0,80
1,note_on,82,0,0
1,note_on,80,97,0
1,note_on,68,97,0
1,note_on,68,0,80
1,note_on,80,0,0
1,note_on,78,98,0
1,note_on,66,98,0
1,note_on,66,0,80
1,note_on,78,0,0
1,note_on,75,98,0
1,note_on,63,98,0
1,note_on,63,0,80
1,note_on,75,0,0
1,note_on,73,100,0
1,note_on,61,100,0
1,note_on,61,0,80
1,note_on,73,0,0
1,note_on,70,101,0
1,note_on,58,101,0
1,note_on,58,0,80
1,note_on,70,0,0
1,note_on,68,103,0
1,note_on,56,103,0
1,note_on,56,0,80
1,note_on,68,0,0
1,note_on,54,111,0
1,note_on,66,111,0
1,note_on,66,0,120
1,note_on,54,0,0
1,note_on,94,118,360
1,note_on,90,108,0
1,note_on,85,108,0
1,note_on,82,108,0
1,note_on,82,0,480
1,note_on,94,0,0
1,note_on,90,0,0
1,note_on,85,0,0
1,note_on,54,112,0
1,note_on,54,0,960
2,note_on,54,75,1
2,note_on,61,75,0
2,note_on,58,75,0
2,note_on,66,89,0
2,note_on,66,0,90
2,note_on,54,0,0
2,note_on,61,0,0
2,note_on,58,0,0
2,note_on,54,71,149
2,note_on,63,71,0
2,note_on,59,71,0
2,note_on,66,84,0
2,note_on,66,0,90
2,note_on,54,0,0
2,note_on,63,0,0
2,note_on,59,0,0
2,note_on,54,75,150
2,note_on,61,75,0
2,note_on,58,75,0
2,note_on,66,89,0
2,note_on,66,0,90
2,note_on,54,0,0
2,note_on,61,0,0
2,note_on,58,0,0
2,note_on,42,48,390
2,note_on,54,57,0
2,note_on,54,0,69
2,note_on,42,0,0
2,note_on,66,55,150
2,note_on,63,46,0
2,note_on,59,46,0
2,note_on,59,0,90
2,note_on,63,0,0
2,note_on,66,0,0
2,note_on,66,57,150
2,note_on,61,48,0
2,note_on,58,48,0
2,note_on,58,0,79
2,note_on,61,0,0
2,note_on,66,0,0
2,note_on,37,47,390
2,note_on,49,56,0
2,note_on,49,0,76
2,note_on,37,0,0
2,note_on,65,60,21
2,note_on,61,50,0
2,note_on,56,50,0
2,note_on,56,0,90
2,note_on,61,0,0
2,note_on,65,0,0
2,note_on,63,63,150
2,note_on,59,53,0
2,note_on,56,53,0
2,note_on,56,0,86
2,note_on,59,0,0
2,note_on,63,0,0
2,note_on,44,68,150
2,note_on,44,0,90
2,note_on,49,70,32
2,note_on,63,73,229
2,note_on,59,62,0
2,note_on,56,62,0
2,note_on,56,0,236
2,note_on,59,0,0
2,note_on,63,0,0
2,note_on,61,78,0
2,note_on,59,64,0
2,note_on,56,64,0
2,note_on,56,0,205
2,note_on,49,0,0
2,note_on,61,0,0
2,note_on,59,0,0
2,note_on,58,73,42
2,note_on,66,87,0
2,note_on,61,73,0
2,note_on,54,73,0
2,note_on,54,0,90
2,note_on,58,0,0
2,note_on,66,0,0
2,note_on,61,0,0
2,note_on,66,82,150
2,note_on,63,69,0
2,note_on,59,69,0
2,note_on,54,69,0
2,note_on,54,0,90
2,note_on,66,0,0
2,note_on,63,0,0
2,note_on,59,0,0
2,note_on,66,87,150
2,note_on,61,73,0
2,note_on,58,73,0
2,note_on,54,73,0
2,note_on,54,0,90
2,note_on,66,0,0
2,note_on,61,0,0
2,note_on,58,0,0
2,note_on,42,47,390
2,note_on,54,56,0
2,note_on,54,0,65
2,note_on,42,0,0
2,note_on,66,48,150
2,note_on,63,40,0
2,note_on,59,40,0
2,note_on,59,0,90
2,note_on,63,0,0
2,note_on,66,0,0
2,note_on,66,57,18
2,note_on,61,48,0
2,note_on,58,48,0
2,note_on,58,0,90
2,note_on,61,0,0
2,note_on,66,0,0
2,note_on,47,66,390
2,note_on,47,0,240
2,note_on,63,71,0
2,note_on,56,60,0
2,note_on,56,0,480
2,note_on,63,0,0
2,note_on,47,64,0
2,note_on,47,0,210
2,note_on,46,57,0
2,note_on,53,59,15
2,note_on,62,77,10
2,note_on,62,0,210
2,note_on,53,0,0
2,note_on,46,0,0
2,note_on,58,56,0
2,note_on,65,56,15
2,note_on,74,71,15
2,note_on,74,0,32
2,note_on,65,0,0
2,note_on,58,0,0
2,note_on,66,86,1
2,note_on,61,72,0
2,note_on,58,72,0
2,note_on,54,72,0
2,note_on,54,0,90
2,note_on,66,0,0
2,note_on,61,0,0
2,note_on,58,0,0
2,note_on,66,77,149
2,note_on,63,64,0
2,note_on,59,64,0
2,note_on,54,64,0
2,note_on,54,0,90
2,note_on,66,0,0
2,note_on,63,0,0
2,note_on,59,0,0
2,note_on,66,86,150
2,note_on,61,72,0
2,note_on,58,72,0
2,note_on,54,72,0
2,note_on,54,0,90
2,note_on,66,0,0
2,note_on,61,0,0
2,note_on,58,0,0
2,note_on,54,56,390
2,note_on,42,56,0
2,note_on,42,0,72
2,note_on,54,0,0
2,note_on,66,48,150
2,note_on,63,40,0
2,note_on,59,40,0
2,note_on,59,0,90
2,note_on,63,0,0
2,note_on,66,0,0
2,note_on,66,56,7
2,note_on,61,47,0
2,note_on,58,47,0
2,note_on,58,0,90
2,note_on,61,0,0
2,note_on,66,0,0
2,note_on,37,51,390
2,note_on,49,61,0
2,note_on,49,0,58
2,note_on,37,0,0
2,note_on,65,61,21
2,note_on,61,51,0
2,note_on,56,51,0
2,note_on,56,0,90
2,note_on,61,0,0
2,note_on,65,0,0
2,note_on,63,62,150
2,note_on,59,52,0
2,note_on,56,52,0
2,note_on,56,0,58
2,note_on,59,0,0
2,note_on,63,0,0
2,note_on,44,66,150
2,note_on,44,0,90
2,note_on,49,70,60
2,note_on,63,73,18
2,note_on,59,62,0
2,note_on,56,62,0
2,note_on,56,0,240
2,note_on,59,0,0
2,note_on,63,0,0
2,note_on,61,78,0
2,note_on,59,64,0
2,note_on,56,64,0
2,note_on,56,0,201
2,note_on,49,0,0
2,note_on,61,0,0
2,note_on,59,0,0
2,note_on,66,87,67
2,note_on,58,73,0
2,note_on,61,73,0
2,note_on,54,73,0
2,note_on,54,0,90
2,note_on,66,0,0
2,note_on,58,0,0
2,note_on,61,0,0
2,note_on,54,69,150
2,note_on,63,69,0
2,note_on,59,69,0
2,note_on,66,81,0
2,note_on,66,0,90
2,note_on,54,0,0
2,note_on,63,0,0
2,note_on,59,0,0
2,note_on,54,73,150
2,note_on,61,73,0
2,note_on,58,73,0
2,note_on,66,87,0
2,note_on,66,0,90
2,note_on,54,0,0
2,note_on,61,0,0
2,note_on,58,0,0
2,note_on,42,47,390
2,note_on,54,56,0
2,note_on,54,0,76
2,note_on,42,0,0
2,note_on,59,42,150
2,note_on,66,50,0
2,note_on,63,42,0
2,note_on,63,0,90
2,note_on,66,0,0
2,note_on,59,0,0
2,note_on,66,56,14
2,note_on,61,47,0
2,note_on,58,47,0
2,note_on,58,0,90
2,note_on,61,0,0
2,note_on,66,0,0
2,note_on,48,62,390
2,note_on,48,0,102
2,note_on,63,68,120
2,note_on,56,56,0
2,note_on,56,0,480
2,note_on,63,0,0
2,note_on,44,64,0
2,note_on,44,0,120
2,note_on,49,78,78
2,note_on,49,0,102
2,note_on,65,71,120
2,note_on,56,60,0
2,note_on,56,0,120
2,note_on,65,0,0
2,note_on,60,52,53
2,note_on,68,62,0
2,note_on,66,52,0
2,note_on,66,0,240
2,note_on,68,0,0
2,note_on,60,0,0
2,note_on,56,50,0
2,note_on,68,60,0
2,note_on,66,50,0
2,note_on,66,0,240
2,note_on,68,0,0
2,note_on,56,0,0
2,note_on,61,56,0
2,note_on,65,56,0
2,note_on,70,68,0
2,note_on,70,0,240
2,note_on,65,0,0
2,note_on,61,0,0
2,note_on,56,48,0
2,note_on,65,48,0
2,note_on,68,59,0
2,note_on,68,0,240
2,note_on,65,0,0
2,note_on,56,0,0
2,note_on,60,52,0
2,note_on,66,52,0
2,note_on,70,62,0
2,note_on,70,0,240
2,note_on,66,0,0
2,note_on,60,0,0
2,note_on,56,48,0
2,note_on,68,59,0
2,note_on,66,59,0
2,note_on,66,0,240
2,note_on,68,0,0
2,note_on,56,0,0
2,note_on,61,56,0
2,note_on,65,68,0
2,note_on,65,0,240
2,note_on,61,0,0
2,note_on,56,60,0
2,note_on,56,0,240
2,note_on,48,62,0
2,note_on,48,0,81
2,note_on,66,68,18
2,note_on,63,56,0
2,note_on,56,56,0
2,note_on,56,0,120
2,note_on,63,0,0
2,note_on,66,0,0
2,note_on,65,63,120
2,note_on,61,53,0
2,note_on,56,53,0
2,note_on,56,0,102
2,note_on,61,0,0
2,note_on,65,0,0
2,note_on,49,62,120
2,note_on,49,0,120
2,note_on,44,62,56
2,note_on,44,0,92
2,note_on,66,57,120
2,note_on,60,48,0
2,note_on,56,48,0
2,note_on,56,0,85
2,note_on,60,0,0
2,note_on,66,0,0
2,note_on,37,62,120
2,note_on,37,0,102
2,note_on,65,60,120
2,note_on,61,50,0
2,note_on,56,50,0
2,note_on,56,0,120
2,note_on,61,0,0
2,note_on,65,0,0
2,note_on,44,62,56
2,note_on,44,0,222
2,note_on,60,50,0
2,note_on,68,60,0
2,note_on,66,50,0
2,note_on,66,0,14
2,note_on,68,0,0
2,note_on,60,0,0
2,note_on,61,56,0
2,note_on,65,56,0
2,note_on,70,68,0
2,note_on,70,0,240
2,note_on,65,0,0
2,note_on,61,0,0
2,note_on,56,50,0
2,note_on,65,50,0
2,note_on,68,60,0
2,note_on,68,0,240
2,note_on,65,0,0
2,note_on,56,0,0
2,note_on,60,56,0
2,note_on,66,56,0
2,note_on,70,68,0
2,note_on,70,0,240
2,note_on,66,0,0
2,note_on,60,0,0
2,note_on,56,52,0
2,note_on,68,62,0
2,note_on,66,52,0
2,note_on,66,0,240
2,note_on,68,0,0
2,note_on,56,0,0
2,note_on,61,55,0
2,note_on,65,64,0
2,note_on,65,0,240
2,note_on,61,0,0
2,note_on,56,62,0
2,note_on,56,0,240
2,note_on,48,68,0
2,note_on,48,0,92
2,note_on,66,62,120
2,note_on,63,52,0
2,note_on,56,52,6
2,note_on,63,0,114
2,note_on,66,0,0
2,note_on,56,0,6
2,note_on,36,70,354
2,note_on,36,0,240
2,note_on,48,72,0
2,note_on,48,0,120
2,note_on,63,57,120
2,note_on,56,57,0
2,note_on,66,69,0
2,note_on,66,0,120
2,note_on,56,0,0
2,note_on,63,0,0
2,note_on,36,59,360
2,note_on,48,70,0
2,note_on,48,0,109
2,note_on,36,0,0
2,note_on,37,63,0
2,note_on,49,77,0
2,note_on,49,0,85
2,note_on,37,0,0
2,note_on,66,73,120
2,note_on,61,62,0
2,note_on,58,62,0
2,note_on,58,0,35
2,note_on,61,0,0
2,note_on,66,0,0
2,note_on,36,62,0
2,note_on,48,73,0
2,note_on,48,0,240
2,note_on,36,0,0
2,note_on,37,61,0
2,note_on,49,72,0
2,note_on,49,0,240
2,note_on,37,0,0
2,note_on,38,69,0
2,note_on,50,81,0
2,note_on,50,0,226
2,note_on,38,0,0
2,note_on,66,77,0
2,note_on,58,63,0
2,note_on,58,0,18
2,note_on,66,0,0
2,note_on,37,64,0
2,note_on,49,78,0
2,note_on,49,0,240
2,note_on,37,0,0
2,note_on,38,63,0
2,note_on,50,75,0
2,note_on,50,0,240
2,note_on,38,0,0
2,note_on,39,70,0
2,note_on,51,82,0
2,note_on,51,0,222
2,note_on,39,0,0
2,note_on,66,80,0
2,note_on,58,68,0
2,note_on,58,0,480
2,note_on,66,0,0
2,note_on,39,69,0
2,note_on,51,81,0
2,note_on,51,0,46
2,note_on,39,0,0
2,note_on,40,73,0
2,note_on,52,88,0
2,note_on,52,0,219
2,note_on,40,0,0
2,note_on,66,84,0
2,note_on,58,70,0
2,note_on,58,0,480
2,note_on,66,0,0
2,note_on,40,71,0
2,note_on,52,85,0
2,note_on,52,0,81
2,note_on,40,0,0
2,note_on,41,78,0
2,note_on,53,91,0
2,note_on,53,0,74
2,note_on,41,0,0
2,note_on,65,88,120
2,note_on,61,73,0
2,note_on,58,73,0
2,note_on,58,0,7
2,note_on,61,0,0
2,note_on,65,0,0
2,note_on,40,77,0
2,note_on,52,90,0
2,note_on,52,0,240
2,note_on,40,0,0
2,note_on,41,77,0
2,note_on,53,90,0
2,note_on,53,0,240
2,note_on,41,0,0
2,note_on,42,82,0
2,note_on,54,97,0
2,note_on,54,0,85
2,note_on,42,0,0
2,note_on,61,79,120
2,note_on,64,94,0
2,note_on,58,79,0
2,note_on,58,0,120
2,note_on,64,0,0
2,note_on,61,0,0
2,note_on,41,80,46
2,note_on,53,95,0
2,note_on,53,0,240
2,note_on,41,0,0
2,note_on,42,78,0
2,note_on,54,91,0
2,note_on,54,0,240
2,note_on,42,0,0
2,note_on,43,89,0
2,note_on,55,105,0
2,note_on,55,0,229
2,note_on,43,0,0
2,note_on,64,96,0
2,note_on,61,81,0
2,note_on,55,81,0
2,note_on,55,0,49
2,note_on,61,0,0
2,note_on,64,0,0
2,note_on,44,81,0
2,note_on,56,96,0
2,note_on,56,0,222
2,note_on,44,0,0
2,note_on,65,96,0
2,note_on,61,81,0
2,note_on,56,81,0
2,note_on,56,0,74
2,note_on,61,0,0
2,note_on,65,0,0
2,note_on,45,86,0
2,note_on,57,103,0
2,note_on,57,0,226
2,note_on,45,0,0
2,note_on,66,94,0
2,note_on,63,79,0
2,note_on,57,79,0
2,note_on,57,0,240
2,note_on,63,0,0
2,note_on,66,0,0
2,note_on,33,89,240
2,note_on,45,106,0
2,note_on,45,0,49
2,note_on,33,0,0
2,note_on,32,89,0
2,note_on,44,106,0
2,note_on,44,0,32
2,note_on,32,0,0
2,note_on,66,100,480
2,note_on,61,83,0
2,note_on,56,83,0
2,note_on,56,0,360
2,note_on,61,0,0
2,note_on,66,0,0
2,note_on,66,92,0
2,note_on,61,77,0
2,note_on,56,77,0
2,note_on,56,0,49
2,note_on,61,0,0
2,note_on,66,0,0
2,note_on,56,83,0
2,note_on,66,100,0
2,note_on,61,83,0
2,note_on,61,0,42
2,note_on,66,0,0
2,note_on,56,0,0
2,note_on,32,52,46
2,note_on,44,62,0
2,note_on,44,0,32
2,note_on,32,0,0
2,note_on,56,52,480
2,note_on,66,52,0
2,note_on,60,52,0
2,note_on,68,62,0
2,note_on,68,0,360
2,note_on,56,0,0
2,note_on,66,0,0
2,note_on,60,0,0
2,note_on,68,57,0
2,note_on,66,48,0
2,note_on,60,48,0
2,note_on,56,48,0
2,note_on,56,0,49
2,note_on,68,0,0
2,note_on,66,0,0
2,note_on,60,0,0
2,note_on,68,62,0
2,note_on,66,52,0
2,note_on,60,52,0
2,note_on,56,52,0
2,note_on,56,0,42
2,note_on,68,0,0
2,note_on,66,0,0
2,note_on,60,0,0
2,note_on,37,63,46
2,note_on,37,0,95
2,note_on,65,70,0
2,note_on,56,59,0
2,note_on,56,0,53
2,note_on,65,0,0
2,note_on,64,63,0
2,note_on,55,53,0
2,note_on,55,0,360
2,note_on,64,0,0
2,note_on,65,63,0
2,note_on,56,53,0
2,note_on,56,0,120
2,note_on,65,0,0
2,note_on,49,63,0
2,note_on,49,0,120
2,note_on,65,72,4
2,note_on,56,61,0
2,note_on,56,0,56
2,note_on,65,0,0
2,note_on,64,75,0
2,note_on,55,63,0
2,note_on,55,0,349
2,note_on,64,0,0
2,note_on,56,57,0
2,note_on,65,69,0
2,note_on,65,0,120
2,note_on,56,0,0
2,note_on,53,77,0
2,note_on,53,0,120
2,note_on,65,63,67
2,note_on,56,53,0
2,note_on,61,53,0
2,note_on,61,0,233
2,note_on,56,0,0
2,note_on,65,0,0
2,note_on,57,59,0
2,note_on,61,59,0
2,note_on,66,70,0
2,note_on,66,0,240
2,note_on,61,0,0
2,note_on,57,0,0
2,note_on,58,62,0
2,note_on,61,62,0
2,note_on,67,75,0
2,note_on,67,0,35
2,note_on,61,0,0
2,note_on,58,0,0
2,note_on,59,70,0
2,note_on,61,70,0
2,note_on,68,84,0
2,note_on,68,0,32
2,note_on,61,0,0
2,note_on,59,0,0
2,note_on,58,64,0
2,note_on,61,64,0
2,note_on,67,77,0
2,note_on,67,0,219
2,note_on,61,0,0
2,note_on,58,0,0
2,note_on,57,61,0
2,note_on,61,61,0
2,note_on,66,72,0
2,note_on,66,0,240
2,note_on,61,0,0
2,note_on,57,0,0
2,note_on,56,57,0
2,note_on,61,57,0
2,note_on,65,69,0
2,note_on,65,0,120
2,note_on,61,0,0
2,note_on,56,0,0
2,note_on,49,63,120
2,note_on,49,0,120
2,note_on,59,56,53
2,note_on,61,56,0
2,note_on,65,56,0
2,note_on,68,66,0
2,note_on,68,0,222
2,note_on,70,71,0
2,note_on,70,0,240
2,note_on,65,0,0
2,note_on,61,0,0
2,note_on,59,0,0
2,note_on,59,64,0
2,note_on,61,64,0
2,note_on,65,64,0
2,note_on,71,77,0
2,note_on,71,0,32
2,note_on,70,72,0
2,note_on,70,0,219
2,note_on,68,71,0
2,note_on,68,0,53
2,note_on,59,0,0
2,note_on,61,0,0
2,note_on,65,0,0
2,note_on,54,73,1
2,note_on,66,87,0
2,note_on,61,73,0
2,note_on,58,73,0
2,note_on,58,0,90
2,note_on,54,0,0
2,note_on,66,0,0
2,note_on,61,0,0
2,note_on,63,70,149
2,note_on,59,70,0
2,note_on,54,70,0
2,note_on,66,83,0
2,note_on,66,0,90
2,note_on,63,0,0
2,note_on,59,0,0
2,note_on,54,0,0
2,note_on,61,73,150
2,note_on,66,87,0
2,note_on,58,73,0
2,note_on,54,73,0
2,note_on,54,0,90
2,note_on,61,0,0
2,note_on,66,0,0
2,note_on,58,0,0
2,note_on,42,47,390
2,note_on,54,56,0
2,note_on,54,0,69
2,note_on,42,0,0
2,note_on,66,51,150
2,note_on,63,42,0
2,note_on,59,42,0
2,note_on,59,0,90
2,note_on,63,0,0
2,note_on,66,0,0
2,note_on,66,56,150
2,note_on,61,47,0
2,note_on,58,47,0
2,note_on,58,0,79
2,note_on,61,0,0
2,note_on,66,0,0
2,note_on,37,48,390
2,note_on,49,59,0
2,note_on,49,0,76
2,note_on,37,0,0
2,note_on,61,48,21
2,note_on,65,59,0
2,note_on,56,48,0
2,note_on,56,0,90
2,note_on,65,0,0
2,note_on,61,0,0
2,note_on,59,50,150
2,note_on,63,60,0
2,note_on,56,50,0
2,note_on,56,0,86
2,note_on,63,0,0
2,note_on,59,0,0
2,note_on,44,62,150
2,note_on,44,0,90
2,note_on,49,66,32
2,note_on,63,70,229
2,note_on,59,59,0
2,note_on,56,59,0
2,note_on,56,0,236
2,note_on,59,0,0
2,note_on,63,0,0
2,note_on,61,73,0
2,note_on,59,62,0
2,note_on,56,62,0
2,note_on,56,0,205
2,note_on,49,0,0
2,note_on,61,0,0
2,note_on,59,0,0
2,note_on,54,73,42
2,note_on,58,73,0
2,note_on,61,73,0
2,note_on,66,87,0
2,note_on,66,0,90
2,note_on,54,0,0
2,note_on,58,0,0
2,note_on,61,0,0
2,note_on,66,82,150
2,note_on,63,69,0
2,note_on,59,69,0
2,note_on,54,69,0
2,note_on,54,0,90
2,note_on,66,0,0
2,note_on,63,0,0
2,note_on,59,0,0
2,note_on,61,73,150
2,note_on,66,87,0
2,note_on,58,73,0
2,note_on,54,73,0
2,note_on,54,0,90
2,note_on,61,0,0
2,note_on,66,0,0
2,note_on,58,0,0
2,note_on,42,48,390
2,note_on,54,59,0
2,note_on,54,0,65
2,note_on,42,0,0
2,note_on,66,55,150
2,note_on,63,46,0
2,note_on,59,46,0
2,note_on,59,0,90
2,note_on,63,0,0
2,note_on,66,0,0
2,note_on,66,59,18
2,note_on,61,48,0
2,note_on,58,48,0
2,note_on,58,0,90
2,note_on,61,0,0
2,note_on,66,0,0
2,note_on,47,66,390
2,note_on,47,0,95
2,note_on,63,66,120
2,note_on,56,56,0
2,note_on,56,0,35
2,note_on,63,0,0
2,note_on,53,59,0
2,note_on,58,59,0
2,note_on,62,70,0
2,note_on,62,0,233
2,note_on,58,0,0
2,note_on,53,0,0
2,note_on,46,66,0
2,note_on,46,0,53
2,note_on,47,66,0
2,note_on,47,0,113
2,note_on,63,66,120
2,note_on,56,56,0
2,note_on,56,0,21
2,note_on,63,0,0
2,note_on,53,62,0
2,note_on,58,62,0
2,note_on,62,73,0
2,note_on,62,0,219
2,note_on,58,0,0
2,note_on,53,0,0
2,note_on,46,69,0
2,note_on,46,0,120
2,note_on,47,80,49
2,note_on,47,0,106
2,note_on,68,69,120
2,note_on,59,57,0
2,note_on,63,57,0
2,note_on,63,0,120
2,note_on,59,0,0
2,note_on,68,0,0
2,note_on,49,82,35
2,note_on,49,0,113
2,note_on,66,66,120
2,note_on,61,56,0
2,note_on,58,56,0
2,note_on,58,0,120
2,note_on,61,0,0
2,note_on,66,0,0
2,note_on,47,84,35
2,note_on,47,0,99
2,note_on,59,60,120
2,note_on,65,60,0
2,note_on,61,60,0
2,note_on,68,71,0
2,note_on,68,0,120
2,note_on,59,0,0
2,note_on,65,0,0
2,note_on,61,0,0
2,note_on,46,86,14
2,note_on,46,0,88
2,note_on,61,60,120
2,note_on,70,71,0
2,note_on,58,60,0
2,note_on,66,60,0
2,note_on,66,0,120
2,note_on,61,0,0
2,note_on,70,0,0
2,note_on,58,0,0
2,note_on,47,88,64
2,note_on,47,0,102
2,note_on,68,73,120
2,note_on,63,62,0
2,note_on,59,62,0
2,note_on,59,0,120
2,note_on,63,0,0
2,note_on,68,0,0
2,note_on,49,89,25
2,note_on,49,0,74
2,note_on,66,73,120
2,note_on,61,62,0
2,note_on,58,62,0
2,note_on,58,0,120
2,note_on,61,0,0
2,note_on,66,0,0
2,note_on,47,91,39
2,note_on,47,0,116
2,note_on,59,63,120
2,note_on,65,63,0
2,note_on,61,63,0
2,note_on,68,75,0
2,note_on,68,0,120
2,note_on,59,0,0
2,note_on,65,0,0
2,note_on,61,0,0
2,note_on,46,94,11
2,note_on,46,0,92
2,note_on,58,63,120
2,note_on,66,63,0
2,note_on,61,63,0
2,note_on,70,75,0
2,note_on,70,0,120
2,note_on,58,0,0
2,note_on,66,0,0
2,note_on,61,0,0
2,note_on,47,94,49
2,note_on,47,0,226
2,note_on,63,70,0
2,note_on,56,70,0
2,note_on,68,82,0
2,note_on,68,0,480
2,note_on,56,0,0
2,note_on,63,0,0
2,note_on,47,94,0
2,note_on,47,0,49
2,note_on,48,104,0
2,note_on,48,0,212
2,note_on,68,85,0
2,note_on,63,71,0
2,note_on,66,71,0
2,note_on,56,71,0
2,note_on,56,0,480
2,note_on,68,0,0
2,note_on,63,0,0
2,note_on,66,0,0
2,note_on,48,100,0
2,note_on,48,0,39
2,note_on,49,106,0
2,note_on,49,0,215
2,note_on,61,77,240
2,note_on,66,77,0
2,note_on,56,77,0
2,note_on,68,92,0
2,note_on,68,0,35
2,note_on,61,0,0
2,note_on,66,0,0
2,note_on,56,0,0
2,note_on,73,94,0
2,note_on,66,79,0
2,note_on,68,79,0
2,note_on,68,0,480
2,note_on,66,0,0
2,note_on,73,0,0
2,note_on,37,47,9
2,note_on,37,0,10
2,note_on,49,47,0
2,note_on,56,47,10
2,note_on,61,47,10
2,note_on,66,56,10
2,note_on,66,0,960
2,note_on,49,0,0
2,note_on,56,0,0
2,note_on,61,0,0
2,note_on,49,30,0
2,note_on,59,30,0
2,note_on,66,56,0
2,note_on,49,56,0
2,note_on,63,47,0
2,note_on,56,30,0
2,note_on,63,0,480
2,note_on,66,0,0
2,note_on,65,56,0
2,note_on,61,47,0
2,note_on,61,0,480
2,note_on,56,0,0
2,note_on,59,0,0
2,note_on,49,0,0
2,note_on,65,0,0
2,note_on,49,0,0
2,note_on,54,48,0
2,note_on,58,48,0
2,note_on,66,59,0
2,note_on,66,0,240
2,note_on,58,0,0
2,note_on,61,44,0
2,note_on,61,0,240
2,note_on,59,50,0
2,note_on,68,60,0
2,note_on,68,0,240
2,note_on,59,0,0
2,note_on,56,44,0
2,note_on,65,52,0
2,note_on,65,0,240
2,note_on,56,0,0
2,note_on,54,0,0
2,note_on,66,60,0
2,note_on,58,50,0
2,note_on,54,50,0
2,note_on,58,0,240
2,note_on,66,0,0
2,note_on,61,42,0
2,note_on,61,0,240
2,note_on,59,50,0
2,note_on,68,60,0
2,note_on,68,0,240
2,note_on,59,0,0
2,note_on,65,51,0
2,note_on,56,42,0
2,note_on,56,0,240
2,note_on,65,0,0
2,note_on,54,0,0
2,note_on,54,53,0
2,note_on,66,63,0
2,note_on,58,53,0
2,note_on,58,0,240
2,note_on,66,0,0
2,note_on,54,0,0
2,note_on,63,63,240
2,note_on,53,53,0
2,note_on,59,53,0
2,note_on,59,0,240
2,note_on,53,0,0
2,note_on,63,0,0
2,note_on,49,48,0
2,note_on,61,57,0
2,note_on,61,0,240
2,note_on,49,0,0
2,note_on,63,66,0
2,note_on,58,56,0
2,note_on,54,56,0
2,note_on,54,0,240
2,note_on,58,0,0
2,note_on,63,0,0
2,note_on,49,48,0
2,note_on,61,59,0
2,note_on,61,0,240
2,note_on,49,0,0
2,note_on,59,56,0
2,note_on,53,56,0
2,note_on,63,68,0
2,note_on,63,0,240
2,note_on,53,0,0
2,note_on,59,0,0
2,note_on,61,62,0
2,note_on,49,52,0
2,note_on,49,0,240
2,note_on,61,0,0
2,note_on,66,59,0
2,note_on,54,48,0
2,note_on,58,48,0
2,note_on,58,0,240
2,note_on,66,0,0
2,note_on,61,45,0
2,note_on,61,0,240
2,note_on,68,60,0
2,note_on,59,50,0
2,note_on,59,0,240
2,note_on,68,0,0
2,note_on,56,46,0
2,note_on,65,55,0
2,note_on,65,0,240
2,note_on,56,0,0
2,note_on,54,0,0
2,note_on,58,51,0
2,note_on,66,61,0
2,note_on,54,51,0
2,note_on,66,0,240
2,note_on,58,0,0
2,note_on,61,46,0
2,note_on,61,0,240
2,note_on,59,51,0
2,note_on,68,61,0
2,note_on,68,0,240
2,note_on,59,0,0
2,note_on,56,47,0
2,note_on,65,56,0
2,note_on,65,0,240
2,note_on,56,0,0
2,note_on,54,0,0
2,note_on,58,55,0
2,note_on,66,64,0
2,note_on,54,55,0
2,note_on,54,0,240
2,note_on,66,0,0
2,note_on,58,0,0
2,note_on,61,59,0
2,note_on,61,0,240
2,note_on,63,70,0
2,note_on,59,59,0
2,note_on,53,59,0
2,note_on,53,0,240
2,note_on,59,0,0
2,note_on,63,0,0
2,note_on,49,53,0
2,note_on,61,63,0
2,note_on,61,0,240
2,note_on,49,0,0
2,note_on,54,66,0
2,note_on,63,79,0
2,note_on,58,66,0
2,note_on,58,0,240
2,note_on,63,0,0
2,note_on,54,0,0
2,note_on,61,72,0
2,note_on,49,61,0
2,note_on,49,0,240
2,note_on,61,0,0
2,note_on,53,70,0
2,note_on,59,70,0
2,note_on,63,84,0
2,note_on,63,0,240
2,note_on,59,0,0
2,note_on,53,0,0
2,note_on,61,81,0
2,note_on,49,69,0
2,note_on,49,0,210
2,note_on,61,0,0
2,note_on,54,68,0
2,note_on,61,70,15
2,note_on,70,90,15
2,note_on,70,0,480
2,note_on,61,0,0
2,note_on,54,0,0
2,note_on,49,79,240
2,note_on,59,79,0
2,note_on,56,79,0
2,note_on,65,94,0
2,note_on,65,0,240
2,note_on,49,0,0
2,note_on,59,0,0
2,note_on,56,0,0
2,note_on,54,77,0
2,note_on,58,77,0
2,note_on,66,90,0
2,note_on,66,0,480
2,note_on,58,0,0
2,note_on,54,0,0
2,note_on,37,78,240
2,note_on,47,78,0
2,note_on,53,93,0
2,note_on,53,0,240
2,note_on,47,0,0
2,note_on,37,0,0
2,note_on,42,75,0
2,note_on,46,75,0
2,note_on,54,89,0
2,note_on,54,0,480
2,note_on,46,0,0
2,note_on,42,0,0
2,note_on,37,80,240
2,note_on,37,0,240
2,note_on,30,71,0
2,note_on,42,85,0
2,note_on,42,0,240
2,note_on,30,0,0
2,note_on,25,68,0
2,note_on,37,80,0
2,note_on,37,0,240
2,note_on,25,0,0
2,note_on,30,71,0
2,note_on,42,85,0
2,note_on,42,0,240
2,note_on,30,0,0
2,note_on,25,68,0
2,note_on,37,80,0
2,note_on,37,0,240
2,note_on,25,0,0
2,note_on,30,71,0
2,note_on,42,85,0
2,note_on,42,0,240
2,note_on,30,0,0
2,note_on,42,53,480
2,note_on,42,0,80
2,note_on,49,48,0
2,note_on,49,0,80
2,note_on,58,46,0
2,note_on,58,0,80
2,note_on,42,56,0
2,note_on,42,0,80
2,note_on,49,51,0
2,note_on,49,0,80
2,note_on,58,49,0
2,note_on,58,0,80
2,note_on,46,57,0
2,note_on,46,0,80
2,note_on,54,52,0
2,note_on,54,0,80
2,note_on,61,49,0
2,note_on,61,0,80
2,note_on,49,59,0
2,note_on,49,0,80
2,note_on,58,52,0
2,note_on,58,0,80
2,note_on,66,51,0
2,note_on,66,0,80
2,note_on,54,61,0
2,note_on,54,0,80
2,note_on,61,54,0
2,note_on,61,0,80
2,note_on,70,51,0
2,note_on,70,0,80
2,note_on,58,61,0
2,note_on,58,0,80
2,note_on,66,56,0
2,note_on,66,0,80
2,note_on,73,54,0
2,note_on,73,0,80
2,note_on,61,65,0
2,note_on,61,0,80
2,note_on,70,58,0
2,note_on,70,0,80
2,note_on,78,56,0
2,note_on,78,0,80
2,note_on,66,67,0
2,note_on,66,0,80
2,note_on,70,59,0
2,note_on,70,0,80
2,note_on,78,58,0
2,note_on,78,0,80
2,note_on,61,68,0
2,note_on,61,0,80
2,note_on,73,60,0
2,note_on,73,0,80
2,note_on,78,59,0
2,note_on,78,0,80
2,note_on,66,72,0
2,note_on,66,0,80
2,note_on,70,61,0
2,note_on,70,0,80
2,note_on,78,59,0
2,note_on,78,0,80
2,note_on,61,72,0
2,note_on,61,0,80
2,note_on,70,65,0
2,note_on,70,0,80
2,note_on,78,63,0
2,note_on,78,0,80
2,note_on,66,73,0
2,note_on,66,0,80
2,note_on,70,67,0
2,note_on,70,0,80
2,note_on,78,66,0
2,note_on,78,0,80
2,note_on,61,75,0
2,note_on,61,0,80
2,note_on,70,69,0
2,note_on,70,0,80
2,note_on,78,69,0
2,note_on,78,0,80
2,note_on,66,81,0
2,note_on,66,0,80
2,note_on,54,87,80
2,note_on,66,87,0
2,note_on,66,0,80
2,note_on,54,0,0
2,note_on,63,83,0
2,note_on,51,83,0
2,note_on,51,0,80
2,note_on,63,0,0
2,note_on,61,85,0
2,note_on,49,85,0
2,note_on,49,0,80
2,note_on,61,0,0
2,note_on,58,86,0
2,note_on,46,86,0
2,note_on,46,0,80
2,note_on,58,0,0
2,note_on,56,86,0
2,note_on,44,86,0
2,note_on,44,0,80
2,note_on,56,0,0
2,note_on,54,87,0
2,note_on,42,87,0
2,note_on,42,0,80
2,note_on,54,0,0
2,note_on,51,88,0
2,note_on,39,88,0
2,note_on,39,0,80
2,note_on,51,0,0
2,note_on,37,89,0
2,note_on,49,89,0
2,note_on,49,0,80
2,note_on,37,0,0
2,note_on,34,89,0
2,note_on,46,89,0
2,note_on,46,0,80
2,note_on,34,0,0
2,note_on,32,92,0
2,note_on,44,92,0
2,note_on,44,0,80
2,note_on,32,0,0
2,note_on,30,99,0
2,note_on,42,99,0
2,note_on,42,0,120
2,note_on,30,0,0
2,note_on,54,93,330
2,note_on,61,98,15
2,note_on,70,108,15
2,note_on,70,0,480
2,note_on,61,0,0
2,note_on,54,0,0
2,note_on,30,102,0
2,note_on,42,102,0
2,note_on,42,0,960
2,note_on,30,0,0
