Track,Message Type,Note,Velocity,Time
1,note_on,76,52,3840
1,note_on,76,0,960
1,note_on,77,51,0
1,note_on,77,0,480
1,note_on,77,54,0
1,note_on,77,0,480
1,note_on,77,56,0
1,note_on,77,0,960
1,note_on,78,55,0
1,note_on,78,0,1440
1,note_on,76,55,0
1,note_on,76,0,360
1,note_on,74,51,0
1,note_on,74,0,120
1,note_on,73,51,0
1,note_on,73,0,480
1,note_on,72,51,0
1,note_on,72,0,480
1,note_on,73,53,0
1,note_on,73,0,480
1,note_on,80,56,0
1,note_on,80,0,960
1,note_on,80,54,0
1,note_on,80,0,160
1,note_on,78,51,0
1,note_on,78,0,240
1,note_on,76,49,0
1,note_on,76,0,80
1,note_on,76,53,0
1,note_on,76,0,960
1,note_on,76,52,0
1,note_on,76,0,480
1,note_on,76,56,0
1,note_on,76,0,480
1,note_on,77,63,0
1,note_on,77,0,960
1,note_on,78,63,0
1,note_on,78,0,1440
1,note_on,76,48,0
1,note_on,76,0,360
1,note_on,74,45,0
1,note_on,74,0,120
1,note_on,73,43,0
1,note_on,73,0,480
1,note_on,72,42,0
1,note_on,72,0,480
1,note_on,73,57,1920
1,note_on,85,57,0
1,note_on,85,0,480
1,note_on,73,0,0
1,note_on,80,60,0
1,note_on,80,0,480
1,note_on,78,59,0
1,note_on,78,0,160
1,note_on,80,52,0
1,note_on,80,0,160
1,note_on,78,52,0
1,note_on,78,0,160
1,note_on,76,56,0
1,note_on,76,0,360
1,note_on,75,54,0
1,note_on,75,0,120
1,note_on,73,62,0
1,note_on,73,0,960
1,note_on,75,57,0
1,note_on,75,0,960
1,note_on,76,62,0
1,note_on,76,0,360
1,note_on,78,63,0
1,note_on,78,0,120
1,note_on,80,65,0
1,note_on,80,0,480
1,note_on,78,58,0
1,note_on,78,0,480
1,note_on,74,56,0
1,note_on,74,0,480
1,note_on,73,59,0
1,note_on,73,0,960
1,note_on,68,51,0
1,note_on,68,0,480
1,note_on,80,59,0
1,note_on,80,0,480
1,note_on,85,60,0
1,note_on,85,0,480
1,note_on,80,59,0
1,note_on,80,0,480
1,note_on,78,58,0
1,note_on,78,0,160
1,note_on,80,52,0
1,note_on,80,0,160
1,note_on,78,52,0
1,note_on,78,0,160
1,note_on,76,56,0
1,note_on,76,0,360
1,note_on,75,54,0
1,note_on,75,0,120
1,note_on,73,62,0
1,note_on,73,0,960
1,note_on,75,57,0
1,note_on,75,0,960
1,note_on,76,62,0
1,note_on,76,0,360
1,note_on,78,63,0
1,note_on,78,0,120
1,note_on,80,65,0
1,note_on,80,0,480
1,note_on,78,58,0
1,note_on,78,0,480
1,note_on,74,56,0
1,note_on,74,0,480
1,note_on,73,62,0
1,note_on,73,0,1920
1,note_on,76,54,0
1,note_on,76,0,960
1,note_on,76,51,0
1,note_on,76,0,480
1,note_on,76,54,0
1,note_on,76,0,480
1,note_on,71,48,0
1,note_on,77,56,0
1,note_on,71,0,480
1,note_on,73,53,0
1,note_on,73,0,360
1,note_on,71,49,0
1,note_on,71,0,120
1,note_on,77,0,0
1,note_on,71,50,0
1,note_on,78,55,0
1,note_on,71,0,480
1,note_on,69,51,0
1,note_on,69,0,360
1,note_on,68,48,0
1,note_on,68,0,120
1,note_on,66,50,0
1,note_on,78,0,480
1,note_on,76,56,0
1,note_on,76,0,360
1,note_on,74,55,0
1,note_on,74,0,120
1,note_on,73,54,0
1,note_on,73,0,480
1,note_on,72,51,0
1,note_on,72,0,480
1,note_on,66,0,0
1,note_on,64,45,0
1,note_on,73,54,0
1,note_on,73,0,480
1,note_on,64,0,0
1,note_on,80,60,0
1,note_on,69,41,480
1,note_on,69,0,80
1,note_on,71,39,16
1,note_on,71,0,80
1,note_on,69,39,16
1,note_on,69,0,80
1,note_on,68,41,16
1,note_on,68,0,80
1,note_on,69,39,16
1,note_on,69,0,80
1,note_on,80,0,16
1,note_on,78,54,0
1,note_on,71,42,0
1,note_on,71,0,360
1,note_on,66,40,0
1,note_on,66,0,120
1,note_on,78,0,0
1,note_on,68,46,0
1,note_on,76,54,0
1,note_on,76,0,960
1,note_on,76,54,0
1,note_on,76,0,480
1,note_on,76,58,0
1,note_on,76,0,480
1,note_on,68,0,0
1,note_on,71,55,0
1,note_on,77,62,0
1,note_on,71,0,480
1,note_on,73,56,0
1,note_on,73,0,360
1,note_on,71,51,0
1,note_on,71,0,120
1,note_on,77,0,0
1,note_on,71,54,0
1,note_on,78,60,0
1,note_on,71,0,480
1,note_on,69,57,0
1,note_on,69,0,360
1,note_on,68,52,0
1,note_on,68,0,120
1,note_on,66,53,0
1,note_on,78,0,480
1,note_on,76,56,0
1,note_on,76,0,360
1,note_on,74,55,0
1,note_on,74,0,120
1,note_on,73,54,0
1,note_on,73,0,480
1,note_on,72,52,0
1,note_on,66,0,480
1,note_on,66,41,0
1,note_on,66,0,480
1,note_on,64,45,0
1,note_on,64,0,360
1,note_on,62,34,0
1,note_on,62,0,120
1,note_on,72,0,0
1,note_on,61,40,0
1,note_on,61,0,480
1,note_on,60,36,0
1,note_on,60,0,480
1,note_on,56,32,3840
1,note_on,63,32,0
1,note_on,66,32,0
1,note_on,68,38,0
1,note_on,68,0,720
1,note_on,56,0,0
1,note_on,56,33,0
1,note_on,68,38,0
1,note_on,68,0,240
1,note_on,56,0,0
1,note_on,56,34,0
1,note_on,68,41,0
1,note_on,68,0,480
1,note_on,63,0,0
1,note_on,66,0,0
1,note_on,56,0,0
1,note_on,56,34,0
1,note_on,61,41,0
1,note_on,68,41,0
1,note_on,61,0,720
1,note_on,64,38,0
1,note_on,64,0,240
1,note_on,61,39,0
1,note_on,61,0,480
1,note_on,68,0,0
1,note_on,56,0,0
1,note_on,56,39,0
1,note_on,60,39,0
1,note_on,68,47,0
1,note_on,68,0,720
1,note_on,56,0,0
1,note_on,56,38,0
1,note_on,68,45,0
1,note_on,68,0,240
1,note_on,56,0,0
1,note_on,56,40,0
1,note_on,68,48,0
1,note_on,68,0,480
1,note_on,56,0,0
1,note_on,60,0,0
1,note_on,56,40,0
1,note_on,61,48,0
1,note_on,68,48,0
1,note_on,61,0,720
1,note_on,64,45,0
1,note_on,64,0,240
1,note_on,61,45,0
1,note_on,61,0,480
1,note_on,68,0,0
1,note_on,56,0,0
1,note_on,61,45,0
1,note_on,68,45,0
1,note_on,71,45,0
1,note_on,73,55,0
1,note_on,73,0,720
1,note_on,61,0,0
1,note_on,61,45,0
1,note_on,73,53,0
1,note_on,73,0,240
1,note_on,61,0,0
1,note_on,61,46,0
1,note_on,73,55,0
1,note_on,73,0,480
1,note_on,68,0,0
1,note_on,71,0,0
1,note_on,61,0,0
1,note_on,61,46,0
1,note_on,66,57,0
1,note_on,73,57,0
1,note_on,66,0,720
1,note_on,69,56,0
1,note_on,69,0,240
1,note_on,66,57,0
1,note_on,66,0,480
1,note_on,73,0,0
1,note_on,61,0,0
1,note_on,61,56,0
1,note_on,65,56,0
1,note_on,73,66,0
1,note_on,73,0,720
1,note_on,61,0,0
1,note_on,61,54,0
1,note_on,73,65,0
1,note_on,73,0,240
1,note_on,61,0,0
1,note_on,61,57,0
1,note_on,73,67,0
1,note_on,73,0,480
1,note_on,61,0,0
1,note_on,65,0,0
1,note_on,61,58,0
1,note_on,66,69,0
1,note_on,73,69,0
1,note_on,66,0,720
1,note_on,69,71,0
1,note_on,69,0,240
1,note_on,66,73,0
1,note_on,66,0,480
1,note_on,73,0,0
1,note_on,61,0,0
1,note_on,68,66,0
1,note_on,75,66,0
1,note_on,78,66,0
1,note_on,80,78,0
1,note_on,80,0,840
1,note_on,68,0,0
1,note_on,68,61,0
1,note_on,80,74,0
1,note_on,80,0,120
1,note_on,68,0,0
1,note_on,68,66,0
1,note_on,80,78,0
1,note_on,80,0,480
1,note_on,75,0,0
1,note_on,78,0,0
1,note_on,68,0,0
1,note_on,68,66,0
1,note_on,73,66,0
1,note_on,80,78,0
1,note_on,73,0,840
1,note_on,76,79,0
1,note_on,76,0,120
1,note_on,73,79,0
1,note_on,73,0,480
1,note_on,80,0,0
1,note_on,68,0,0
1,note_on,68,66,0
1,note_on,72,66,0
1,note_on,80,78,0
1,note_on,80,0,840
1,note_on,68,0,0
1,note_on,68,61,0
1,note_on,80,74,0
1,note_on,80,0,120
1,note_on,68,0,0
1,note_on,68,66,0
1,note_on,80,78,0
1,note_on,80,0,480
1,note_on,68,0,0
1,note_on,72,0,0
1,note_on,68,66,0
1,note_on,73,78,0
1,note_on,80,78,0
1,note_on,73,0,840
1,note_on,76,79,0
1,note_on,76,0,120
1,note_on,73,79,0
1,note_on,73,0,480
1,note_on,80,0,0
1,note_on,68,0,0
1,note_on,73,69,0
1,note_on,80,69,0
1,note_on,83,69,0
1,note_on,85,80,0
1,note_on,85,0,840
1,note_on,73,0,0
1,note_on,73,53,0
1,note_on,85,78,0
1,note_on,85,0,120
1,note_on,73,0,0
1,note_on,73,59,0
1,note_on,85,71,0
1,note_on,85,0,140
1,note_on,73,0,0
1,note_on,73,62,20
1,note_on,85,73,0
1,note_on,85,0,140
1,note_on,73,0,0
1,note_on,73,68,20
1,note_on,85,80,0
1,note_on,85,0,140
1,note_on,73,0,0
1,note_on,83,0,20
1,note_on,80,0,0
1,note_on,73,71,0
1,note_on,78,75,0
1,note_on,85,82,0
1,note_on,78,0,840
1,note_on,81,84,0
1,note_on,81,0,120
1,note_on,78,84,0
1,note_on,78,0,480
1,note_on,85,0,0
1,note_on,73,0,0
1,note_on,73,79,0
1,note_on,77,79,0
1,note_on,85,93,0
1,note_on,85,0,640
1,note_on,73,0,0
1,note_on,73,59,0
1,note_on,85,71,0
1,note_on,85,0,80
1,note_on,73,0,0
1,note_on,73,61,80
1,note_on,85,71,0
1,note_on,85,0,80
1,note_on,73,0,0
1,note_on,73,63,80
1,note_on,85,73,0
1,note_on,85,0,80
1,note_on,73,0,0
1,note_on,73,63,80
1,note_on,85,75,0
1,note_on,85,0,80
1,note_on,73,0,0
1,note_on,73,64,80
1,note_on,85,78,0
1,note_on,85,0,80
1,note_on,73,0,0
1,note_on,77,0,80
1,note_on,73,79,0
1,note_on,78,93,0
1,note_on,85,93,0
1,note_on,78,0,840
1,note_on,81,90,0
1,note_on,81,0,120
1,note_on,78,90,0
1,note_on,78,0,480
1,note_on,85,0,0
1,note_on,73,0,0
1,note_on,79,88,0
1,note_on,76,88,0
1,note_on,85,88,0
1,note_on,88,103,0
1,note_on,88,0,840
1,note_on,79,0,0
1,note_on,76,0,0
1,note_on,85,0,0
1,note_on,76,81,0
1,note_on,79,81,0
1,note_on,85,84,0
1,note_on,88,99,0
1,note_on,88,0,120
1,note_on,76,0,0
1,note_on,79,0,0
1,note_on,85,0,0
1,note_on,76,87,0
1,note_on,79,87,0
1,note_on,85,87,0
1,note_on,88,102,0
1,note_on,88,0,480
1,note_on,76,0,0
1,note_on,79,0,0
1,note_on,85,0,0
1,note_on,76,80,0
1,note_on,80,95,0
1,note_on,88,95,0
1,note_on,88,0,480
1,note_on,80,0,0
1,note_on,76,0,0
1,note_on,83,91,0
1,note_on,80,91,0
1,note_on,76,76,0
1,note_on,76,0,480
1,note_on,80,0,0
1,note_on,83,0,0
1,note_on,71,73,0
1,note_on,76,86,0
1,note_on,80,86,0
1,note_on,80,0,420
1,note_on,76,0,0
1,note_on,71,0,0
1,note_on,80,79,0
1,note_on,80,0,60
1,note_on,69,74,0
1,note_on,71,74,0
1,note_on,75,87,0
1,note_on,78,87,0
1,note_on,78,0,480
1,note_on,69,0,0
1,note_on,71,0,0
1,note_on,75,0,0
1,note_on,71,75,0
1,note_on,69,75,0
1,note_on,73,75,0
1,note_on,76,88,0
1,note_on,76,0,480
1,note_on,71,0,0
1,note_on,69,0,0
1,note_on,73,0,0
1,note_on,69,75,0
1,note_on,71,75,0
1,note_on,75,89,0
1,note_on,78,89,0
1,note_on,78,0,480
1,note_on,69,0,0
1,note_on,71,0,0
1,note_on,75,0,0
1,note_on,76,90,0
1,note_on,68,75,0
1,note_on,80,90,0
1,note_on,76,0,720
1,note_on,75,91,0
1,note_on,75,0,240
1,note_on,74,94,0
1,note_on,74,0,480
1,note_on,80,0,0
1,note_on,68,0,0
1,note_on,72,88,0
1,note_on,68,88,0
1,note_on,75,88,0
1,note_on,80,103,0
1,note_on,80,0,840
1,note_on,72,0,0
1,note_on,68,0,0
1,note_on,75,0,0
1,note_on,68,81,0
1,note_on,72,81,0
1,note_on,75,84,0
1,note_on,80,99,0
1,note_on,80,0,120
1,note_on,68,0,0
1,note_on,72,0,0
1,note_on,75,0,0
1,note_on,68,87,0
1,note_on,72,87,0
1,note_on,75,87,0
1,note_on,80,102,0
1,note_on,80,0,480
1,note_on,68,0,0
1,note_on,72,0,0
1,note_on,75,0,0
1,note_on,72,85,0
1,note_on,75,85,0
1,note_on,80,100,0
1,note_on,80,0,720
1,note_on,75,0,0
1,note_on,72,0,0
1,note_on,68,72,0
1,note_on,72,86,0
1,note_on,75,86,0
1,note_on,75,0,240
1,note_on,72,0,0
1,note_on,68,0,0
1,note_on,63,69,0
1,note_on,68,81,0
1,note_on,72,81,0
1,note_on,72,0,480
1,note_on,68,0,0
1,note_on,63,0,0
1,note_on,72,85,0
1,note_on,61,72,0
1,note_on,63,72,0
1,note_on,67,85,0
1,note_on,75,85,0
1,note_on,72,0,720
1,note_on,70,76,0
1,note_on,70,0,240
1,note_on,75,0,0
1,note_on,61,0,0
1,note_on,63,0,0
1,note_on,67,0,0
1,note_on,67,63,0
1,note_on,61,63,0
1,note_on,73,75,0
1,note_on,73,0,360
1,note_on,72,71,0
1,note_on,72,0,120
1,note_on,61,0,0
1,note_on,67,0,0
1,note_on,68,59,0
1,note_on,60,50,0
1,note_on,60,0,1440
1,note_on,68,0,0
1,note_on,61,44,0
1,note_on,69,54,0
1,note_on,69,0,720
1,note_on,69,53,0
1,note_on,69,0,240
1,note_on,69,53,0
1,note_on,69,0,480
1,note_on,61,0,0
1,note_on,60,45,0
1,note_on,69,56,0
1,note_on,69,0,720
1,note_on,68,55,0
1,note_on,68,0,240
1,note_on,63,56,0
1,note_on,63,0,480
1,note_on,60,0,0
1,note_on,62,48,0
1,note_on,71,59,0
1,note_on,71,0,720
1,note_on,71,58,0
1,note_on,71,0,240
1,note_on,71,58,0
1,note_on,71,0,480
1,note_on,62,0,0
1,note_on,63,50,0
1,note_on,71,61,0
1,note_on,71,0,720
1,note_on,70,60,0
1,note_on,70,0,240
1,note_on,75,61,0
1,note_on,75,0,480
1,note_on,63,0,0
1,note_on,62,52,0
1,note_on,71,65,0
1,note_on,71,0,720
1,note_on,71,63,0
1,note_on,71,0,240
1,note_on,71,63,0
1,note_on,71,0,480
1,note_on,62,0,0
1,note_on,63,56,0
1,note_on,71,69,0
1,note_on,71,0,720
1,note_on,70,67,0
1,note_on,70,0,240
1,note_on,63,0,0
1,note_on,63,67,0
1,note_on,63,0,480
1,note_on,64,57,0
1,note_on,73,71,0
1,note_on,73,0,720
1,note_on,73,69,0
1,note_on,73,0,240
1,note_on,73,70,0
1,note_on,73,0,480
1,note_on,64,0,0
1,note_on,65,60,0
1,note_on,73,74,0
1,note_on,73,0,720
1,note_on,72,73,0
1,note_on,72,0,240
1,note_on,77,73,0
1,note_on,77,0,480
1,note_on,65,0,0
1,note_on,64,62,0
1,note_on,73,77,0
1,note_on,73,0,720
1,note_on,73,75,0
1,note_on,73,0,240
1,note_on,73,76,0
1,note_on,73,0,480
1,note_on,64,0,0
1,note_on,65,64,0
1,note_on,73,80,0
1,note_on,73,0,720
1,note_on,72,78,0
1,note_on,72,0,240
1,note_on,65,0,0
1,note_on,65,79,0
1,note_on,65,0,480
1,note_on,66,67,0
1,note_on,72,67,0
1,note_on,75,80,0
1,note_on,75,0,480
1,note_on,72,0,0
1,note_on,66,0,0
1,note_on,66,67,0
1,note_on,72,67,0
1,note_on,75,80,0
1,note_on,75,0,480
1,note_on,72,0,0
1,note_on,66,0,0
1,note_on,66,68,0
1,note_on,72,68,0
1,note_on,75,82,0
1,note_on,75,0,480
1,note_on,72,0,0
1,note_on,66,0,0
1,note_on,66,70,0
1,note_on,72,70,0
1,note_on,75,83,0
1,note_on,75,0,475
1,note_on,72,0,0
1,note_on,66,0,0
1,note_on,66,73,5
1,note_on,72,73,0
1,note_on,75,86,0
1,note_on,75,0,475
1,note_on,72,0,0
1,note_on,66,0,0
1,note_on,66,76,5
1,note_on,72,76,0
1,note_on,76,91,0
1,note_on,76,0,480
1,note_on,72,0,0
1,note_on,66,0,0
1,note_on,68,73,0
1,note_on,73,78,0
1,note_on,77,92,0
1,note_on,77,0,475
1,note_on,73,0,0
1,note_on,68,0,0
1,note_on,65,71,5
1,note_on,73,85,0
1,note_on,73,0,475
1,note_on,65,0,0
1,note_on,65,68,5
1,note_on,68,80,0
1,note_on,68,0,475
1,note_on,65,0,0
1,note_on,66,71,5
1,note_on,70,85,0
1,note_on,70,0,1440
1,note_on,66,0,0
1,note_on,65,59,0
1,note_on,68,66,0
1,note_on,68,0,60
1,note_on,70,66,0
1,note_on,70,0,60
1,note_on,68,65,0
1,note_on,68,0,120
1,note_on,67,69,0
1,note_on,67,0,240
1,note_on,65,0,0
1,note_on,65,58,0
1,note_on,68,70,0
1,note_on,68,0,120
1,note_on,65,0,0
1,note_on,65,60,120
1,note_on,70,73,0
1,note_on,70,0,120
1,note_on,65,0,0
1,note_on,65,62,120
1,note_on,72,74,0
1,note_on,72,0,120
1,note_on,65,0,0
1,note_on,65,64,120
1,note_on,73,76,0
1,note_on,73,0,120
1,note_on,65,0,0
1,note_on,66,67,120
1,note_on,74,80,0
1,note_on,74,0,480
1,note_on,66,0,0
1,note_on,66,70,0
1,note_on,75,83,0
1,note_on,75,0,480
1,note_on,66,0,0
1,note_on,66,73,0
1,note_on,76,87,0
1,note_on,76,0,480
1,note_on,66,0,0
1,note_on,68,76,0
1,note_on,73,76,0
1,note_on,77,89,0
1,note_on,77,0,475
1,note_on,73,0,0
1,note_on,68,0,0
1,note_on,65,71,5
1,note_on,73,85,0
1,note_on,73,0,475
1,note_on,65,0,0
1,note_on,65,68,5
1,note_on,68,80,0
1,note_on,68,0,475
1,note_on,65,0,0
1,note_on,66,71,5
1,note_on,70,85,0
1,note_on,70,0,1440
1,note_on,66,0,0
1,note_on,65,59,0
1,note_on,68,66,0
1,note_on,68,0,60
1,note_on,70,66,0
1,note_on,70,0,60
1,note_on,68,65,0
1,note_on,68,0,120
1,note_on,67,61,0
1,note_on,67,0,240
1,note_on,65,0,0
1,note_on,65,58,0
1,note_on,68,70,0
1,note_on,68,0,120
1,note_on,65,0,0
1,note_on,65,60,120
1,note_on,70,73,0
1,note_on,70,0,120
1,note_on,65,0,0
1,note_on,65,62,120
1,note_on,72,74,0
1,note_on,72,0,120
1,note_on,65,0,0
1,note_on,65,64,120
1,note_on,73,76,0
1,note_on,73,0,120
1,note_on,65,0,0
1,note_on,65,55,120
1,note_on,71,67,0
1,note_on,71,0,480
1,note_on,65,0,0
1,note_on,64,58,0
1,note_on,72,69,0
1,note_on,72,0,480
1,note_on,64,0,0
1,note_on,65,53,0
1,note_on,74,63,0
1,note_on,74,0,480
1,note_on,65,0,0
1,note_on,64,35,0
1,note_on,76,42,0
1,note_on,76,0,475
1,note_on,64,0,0
1,note_on,64,33,5
1,note_on,72,39,0
1,note_on,72,0,475
1,note_on,64,0,0
1,note_on,64,31,5
1,note_on,67,37,0
1,note_on,67,0,475
1,note_on,64,0,0
1,note_on,65,33,5
1,note_on,69,39,0
1,note_on,69,0,1440
1,note_on,65,0,0
1,note_on,64,35,0
1,note_on,67,39,0
1,note_on,67,0,60
1,note_on,69,39,0
1,note_on,69,0,60
1,note_on,67,38,0
1,note_on,67,0,120
1,note_on,66,37,0
1,note_on,66,0,240
1,note_on,64,0,0
1,note_on,64,35,0
1,note_on,67,42,0
1,note_on,67,0,120
1,note_on,64,0,0
1,note_on,64,36,120
1,note_on,69,44,0
1,note_on,69,0,120
1,note_on,64,0,0
1,note_on,64,37,120
1,note_on,71,44,0
1,note_on,71,0,120
1,note_on,64,0,0
1,note_on,64,39,120
1,note_on,72,46,0
1,note_on,72,0,120
1,note_on,64,0,0
1,note_on,65,39,120
1,note_on,73,47,0
1,note_on,73,0,480
1,note_on,65,0,0
1,note_on,65,42,0
1,note_on,74,50,0
1,note_on,74,0,480
1,note_on,65,0,0
1,note_on,65,45,0
1,note_on,75,54,0
1,note_on,75,0,480
1,note_on,65,0,0
1,note_on,64,48,0
1,note_on,76,57,0
1,note_on,76,0,475
1,note_on,64,0,0
1,note_on,64,46,5
1,note_on,72,55,0
1,note_on,72,0,475
1,note_on,64,0,0
1,note_on,64,42,5
1,note_on,67,51,0
1,note_on,67,0,475
1,note_on,64,0,0
1,note_on,65,48,5
1,note_on,74,59,0
1,note_on,74,0,480
1,note_on,65,0,0
1,note_on,66,52,0
1,note_on,75,63,0
1,note_on,75,0,480
1,note_on,66,0,0
1,note_on,68,57,0
1,note_on,77,68,0
1,note_on,77,0,480
1,note_on,68,0,0
1,note_on,69,61,0
1,note_on,78,72,0
1,note_on,78,0,475
1,note_on,69,0,0
1,note_on,69,59,5
1,note_on,75,72,0
1,note_on,75,0,475
1,note_on,69,0,0
1,note_on,69,77,5
1,note_on,69,0,475
1,note_on,68,66,5
1,note_on,77,78,0
1,note_on,77,0,480
1,note_on,68,0,0
1,note_on,69,69,0
1,note_on,78,82,0
1,note_on,78,0,480
1,note_on,69,0,0
1,note_on,71,73,0
1,note_on,80,86,0
1,note_on,80,0,480
1,note_on,71,0,0
1,note_on,72,74,0
1,note_on,81,87,0
1,note_on,81,0,475
1,note_on,72,0,0
1,note_on,69,75,5
1,note_on,72,75,0
1,note_on,81,89,0
1,note_on,81,0,475
1,note_on,72,0,0
1,note_on,69,0,0
1,note_on,69,76,5
1,note_on,72,76,0
1,note_on,81,91,0
1,note_on,81,0,475
1,note_on,72,0,0
1,note_on,69,0,0
1,note_on,69,78,5
1,note_on,72,78,0
1,note_on,81,93,0
1,note_on,81,0,475
1,note_on,72,0,0
1,note_on,69,0,0
1,note_on,69,80,5
1,note_on,72,80,0
1,note_on,81,95,0
1,note_on,81,0,475
1,note_on,72,0,0
1,note_on,69,0,0
1,note_on,69,81,5
1,note_on,73,81,0
1,note_on,81,96,0
1,note_on,81,0,475
1,note_on,73,0,0
1,note_on,69,0,0
1,note_on,76,84,5
1,note_on,69,84,0
1,note_on,81,99,0
1,note_on,76,0,480
1,note_on,75,89,0
1,note_on,81,0,480
1,note_on,69,0,0
1,note_on,68,59,0
1,note_on,78,85,0
1,note_on,80,85,0
1,note_on,80,0,480
1,note_on,75,0,0
1,note_on,68,0,0
1,note_on,78,0,0
1,note_on,76,52,3840
1,note_on,76,0,960
1,note_on,77,51,0
1,note_on,77,0,480
1,note_on,77,54,0
1,note_on,77,0,480
1,note_on,77,56,0
1,note_on,77,0,960
1,note_on,78,55,0
1,note_on,78,0,1440
1,note_on,76,55,0
1,note_on,76,0,360
1,note_on,74,51,0
1,note_on,74,0,120
1,note_on,73,51,0
1,note_on,73,0,480
1,note_on,72,51,0
1,note_on,72,0,480
1,note_on,73,54,0
1,note_on,73,0,480
1,note_on,80,60,0
1,note_on,69,36,360
1,note_on,69,0,120
1,note_on,69,41,0
1,note_on,69,0,80
1,note_on,71,39,16
1,note_on,71,0,80
1,note_on,69,39,16
1,note_on,69,0,80
1,note_on,68,41,16
1,note_on,68,0,80
1,note_on,69,39,16
1,note_on,69,0,80
1,note_on,80,0,16
1,note_on,78,54,0
1,note_on,71,40,0
1,note_on,71,0,360
1,note_on,66,40,0
1,note_on,66,0,120
1,note_on,78,0,0
1,note_on,68,46,0
1,note_on,76,54,0
1,note_on,76,0,960
1,note_on,76,54,0
1,note_on,76,0,480
1,note_on,76,58,0
1,note_on,76,0,480
1,note_on,68,0,0
1,note_on,71,55,0
1,note_on,77,62,0
1,note_on,71,0,480
1,note_on,73,56,0
1,note_on,73,0,360
1,note_on,71,51,0
1,note_on,71,0,120
1,note_on,77,0,0
1,note_on,71,55,0
1,note_on,78,60,0
1,note_on,71,0,480
1,note_on,69,57,0
1,note_on,69,0,360
1,note_on,68,52,0
1,note_on,68,0,120
1,note_on,66,53,0
1,note_on,78,0,480
1,note_on,76,56,0
1,note_on,76,0,360
1,note_on,74,55,0
1,note_on,74,0,120
1,note_on,73,54,0
1,note_on,73,0,480
1,note_on,72,52,0
1,note_on,66,0,480
1,note_on,66,60,0
1,note_on,66,0,480
1,note_on,64,58,0
1,note_on,64,0,360
1,note_on,62,47,0
1,note_on,62,0,120
1,note_on,72,0,0
1,note_on,61,57,0
1,note_on,61,0,480
1,note_on,60,56,0
1,note_on,60,0,480
1,note_on,61,61,0
1,note_on,61,0,480
1,note_on,73,45,0
1,note_on,77,54,0
1,note_on,77,0,480
1,note_on,73,0,0
1,note_on,66,40,0
1,note_on,70,48,0
1,note_on,70,0,480
1,note_on,66,0,0
1,note_on,72,54,0
1,note_on,75,54,0
1,note_on,72,0,360
1,note_on,70,47,0
1,note_on,70,0,120
1,note_on,75,0,0
1,note_on,65,42,0
1,note_on,68,50,0
1,note_on,68,0,480
1,note_on,65,0,0
1,note_on,70,43,0
1,note_on,73,51,0
1,note_on,73,0,480
1,note_on,70,0,0
1,note_on,63,40,0
1,note_on,66,48,0
1,note_on,66,0,480
1,note_on,63,0,0
1,note_on,68,42,0
1,note_on,72,50,0
1,note_on,72,0,360
1,note_on,68,0,0
1,note_on,66,35,0
1,note_on,70,42,0
1,note_on,70,0,120
1,note_on,66,0,0
1,note_on,65,40,0
1,note_on,68,47,0
1,note_on,73,40,480
1,note_on,77,47,0
1,note_on,68,0,480
1,note_on,65,0,0
1,note_on,66,36,0
1,note_on,70,44,0
1,note_on,73,0,480
1,note_on,77,0,0
1,note_on,72,38,0
1,note_on,75,45,0
1,note_on,66,0,480
1,note_on,70,0,0
1,note_on,65,36,0
1,note_on,68,43,0
1,note_on,72,0,480
1,note_on,75,0,0
1,note_on,70,37,0
1,note_on,73,45,0
1,note_on,65,0,480
1,note_on,68,0,0
1,note_on,66,42,0
1,note_on,63,35,0
1,note_on,66,0,480
1,note_on,73,0,0
1,note_on,70,0,0
1,note_on,68,36,0
1,note_on,72,43,0
1,note_on,72,0,360
1,note_on,68,0,0
1,note_on,66,34,0
1,note_on,70,40,0
1,note_on,70,0,120
1,note_on,66,0,0
1,note_on,63,0,0
1,note_on,65,35,0
1,note_on,68,42,0
1,note_on,68,0,1920
1,note_on,65,0,0
1,note_on,61,50,0
1,note_on,68,50,0
1,note_on,70,59,0
1,note_on,70,0,960
1,note_on,68,0,0
1,note_on,61,0,0
1,note_on,61,56,0
1,note_on,66,56,0
1,note_on,70,66,0
1,note_on,70,0,960
1,note_on,66,0,0
1,note_on,61,0,0
1,note_on,66,56,0
1,note_on,68,56,0
1,note_on,73,66,0
1,note_on,66,0,960
1,note_on,65,58,0
1,note_on,65,0,480
1,note_on,73,0,0
1,note_on,68,0,0
1,note_on,65,33,480
1,note_on,61,27,0
1,note_on,61,0,1920
1,note_on,65,0,0
2,note_on,37,20,0
2,note_on,37,0,160
2,note_on,44,21,0
2,note_on,44,0,160
2,note_on,56,22,0
2,note_on,56,0,160
2,note_on,49,23,0
2,note_on,49,0,160
2,note_on,44,24,0
2,note_on,44,0,160
2,note_on,37,26,0
2,note_on,37,0,160
2,note_on,44,27,0
2,note_on,44,0,160
2,note_on,49,28,0
2,note_on,49,0,160
2,note_on,56,29,0
2,note_on,56,0,160
2,note_on,49,31,0
2,note_on,49,0,160
2,note_on,44,32,0
2,note_on,44,0,160
2,note_on,37,33,0
2,note_on,37,0,160
2,note_on,44,34,0
2,note_on,44,0,160
2,note_on,49,34,0
2,note_on,49,0,160
2,note_on,56,33,0
2,note_on,56,0,160
2,note_on,49,32,0
2,note_on,49,0,160
2,note_on,44,31,0
2,note_on,44,0,160
2,note_on,37,30,0
2,note_on,37,0,160
2,note_on,44,30,0
2,note_on,44,0,160
2,note_on,49,29,0
2,note_on,49,0,160
2,note_on,56,28,0
2,note_on,56,0,160
2,note_on,49,27,0
2,note_on,49,0,160
2,note_on,44,26,0
2,note_on,44,0,160
2,note_on,37,25,0
2,note_on,37,0,160
2,note_on,44,26,0
2,note_on,44,0,68
2,note_on,49,25,0
2,note_on,49,0,160
2,note_on,56,26,0
2,note_on,56,0,160
2,note_on,49,27,0
2,note_on,49,0,160
2,note_on,44,28,0
2,note_on,44,0,160
2,note_on,37,29,0
2,note_on,37,0,160
2,note_on,44,28,0
2,note_on,44,0,82
2,note_on,49,29,0
2,note_on,49,0,160
2,note_on,59,30,0
2,note_on,59,0,160
2,note_on,49,30,0
2,note_on,49,0,160
2,note_on,44,31,0
2,note_on,44,0,160
2,note_on,37,32,0
2,note_on,37,0,160
2,note_on,44,33,0
2,note_on,44,0,96
2,note_on,49,31,0
2,note_on,49,0,160
2,note_on,59,30,0
2,note_on,59,0,160
2,note_on,49,30,0
2,note_on,49,0,160
2,note_on,44,29,0
2,note_on,44,0,160
2,note_on,37,28,0
2,note_on,37,0,160
2,note_on,45,28,0
2,note_on,45,0,68
2,note_on,49,28,0
2,note_on,49,0,160
2,note_on,57,28,0
2,note_on,57,0,160
2,note_on,49,28,0
2,note_on,49,0,160
2,note_on,45,28,0
2,note_on,45,0,160
2,note_on,37,28,0
2,note_on,37,0,160
2,note_on,45,32,0
2,note_on,45,0,103
2,note_on,50,29,0
2,note_on,50,0,160
2,note_on,57,29,0
2,note_on,57,0,160
2,note_on,50,28,0
2,note_on,50,0,160
2,note_on,45,27,0
2,note_on,45,0,160
2,note_on,37,26,0
2,note_on,37,0,160
2,note_on,45,25,0
2,note_on,45,0,80
2,note_on,50,24,0
2,note_on,50,0,160
2,note_on,57,24,0
2,note_on,57,0,160
2,note_on,50,24,0
2,note_on,50,0,160
2,note_on,45,24,0
2,note_on,45,0,160
2,note_on,37,24,0
2,note_on,37,0,160
2,note_on,44,26,0
2,note_on,44,0,93
2,note_on,52,24,0
2,note_on,52,0,160
2,note_on,61,23,0
2,note_on,61,0,160
2,note_on,52,23,0
2,note_on,52,0,160
2,note_on,44,23,0
2,note_on,44,0,160
2,note_on,37,23,0
2,note_on,37,0,160
2,note_on,35,26,0
2,note_on,35,0,79
2,note_on,47,24,0
2,note_on,47,0,160
2,note_on,63,24,0
2,note_on,63,0,160
2,note_on,57,24,0
2,note_on,57,0,160
2,note_on,47,24,0
2,note_on,47,0,160
2,note_on,35,24,0
2,note_on,35,0,160
2,note_on,40,26,0
2,note_on,40,0,54
2,note_on,47,27,0
2,note_on,47,0,160
2,note_on,64,28,0
2,note_on,64,0,160
2,note_on,56,28,0
2,note_on,56,0,160
2,note_on,47,29,0
2,note_on,47,0,160
2,note_on,39,30,0
2,note_on,39,0,160
2,note_on,37,31,0
2,note_on,37,0,82
2,note_on,44,32,0
2,note_on,44,0,160
2,note_on,56,33,0
2,note_on,56,0,160
2,note_on,49,34,0
2,note_on,49,0,160
2,note_on,44,35,0
2,note_on,44,0,160
2,note_on,37,36,0
2,note_on,37,0,160
2,note_on,44,39,0
2,note_on,44,0,96
2,note_on,49,39,0
2,note_on,49,0,160
2,note_on,59,38,0
2,note_on,59,0,160
2,note_on,49,38,0
2,note_on,49,0,160
2,note_on,44,37,0
2,note_on,44,0,160
2,note_on,37,37,0
2,note_on,37,0,160
2,note_on,45,36,0
2,note_on,45,0,68
2,note_on,49,36,0
2,note_on,49,0,160
2,note_on,57,35,0
2,note_on,57,0,160
2,note_on,49,34,0
2,note_on,49,0,160
2,note_on,45,34,0
2,note_on,45,0,160
2,note_on,37,33,0
2,note_on,37,0,160
2,note_on,45,30,0
2,note_on,45,0,103
2,note_on,50,28,0
2,note_on,50,0,160
2,note_on,57,26,0
2,note_on,57,0,160
2,note_on,50,27,0
2,note_on,50,0,160
2,note_on,45,25,0
2,note_on,45,0,160
2,note_on,37,25,0
2,note_on,37,0,160
2,note_on,45,25,0
2,note_on,45,0,85
2,note_on,50,24,0
2,note_on,50,0,160
2,note_on,57,24,0
2,note_on,57,0,160
2,note_on,50,24,0
2,note_on,50,0,160
2,note_on,45,24,0
2,note_on,45,0,160
2,note_on,37,24,0
2,note_on,37,0,160
2,note_on,45,26,0
2,note_on,45,0,160
2,note_on,50,24,0
2,note_on,50,0,160
2,note_on,57,23,0
2,note_on,57,0,160
2,note_on,50,23,0
2,note_on,50,0,160
2,note_on,45,23,0
2,note_on,45,0,160
2,note_on,37,23,0
2,note_on,37,0,160
2,note_on,45,26,0
2,note_on,45,0,160
2,note_on,50,24,0
2,note_on,50,0,160
2,note_on,57,24,0
2,note_on,57,0,160
2,note_on,50,24,0
2,note_on,50,0,160
2,note_on,45,24,0
2,note_on,45,0,160
2,note_on,37,24,0
2,note_on,37,0,160
2,note_on,44,34,0
2,note_on,44,0,97
2,note_on,56,28,0
2,note_on,56,0,160
2,note_on,61,28,0
2,note_on,61,0,160
2,note_on,52,28,0
2,note_on,52,0,160
2,note_on,44,29,0
2,note_on,44,0,160
2,note_on,37,29,0
2,note_on,37,0,160
2,note_on,37,31,0
2,note_on,37,0,82
2,note_on,44,24,0
2,note_on,44,0,160
2,note_on,60,24,0
2,note_on,60,0,160
2,note_on,54,24,0
2,note_on,54,0,160
2,note_on,44,24,0
2,note_on,44,0,160
2,note_on,37,24,0
2,note_on,37,0,160
2,note_on,37,27,0
2,note_on,37,0,54
2,note_on,44,27,0
2,note_on,44,0,160
2,note_on,61,28,0
2,note_on,61,0,160
2,note_on,52,29,0
2,note_on,52,0,160
2,note_on,44,29,0
2,note_on,44,0,160
2,note_on,37,30,0
2,note_on,37,0,160
2,note_on,37,30,0
2,note_on,37,0,82
2,note_on,44,31,0
2,note_on,44,0,160
2,note_on,60,32,0
2,note_on,60,0,160
2,note_on,54,32,0
2,note_on,54,0,160
2,note_on,44,33,0
2,note_on,44,0,160
2,note_on,37,33,0
2,note_on,37,0,160
2,note_on,37,34,0
2,note_on,37,0,54
2,note_on,44,29,0
2,note_on,44,0,160
2,note_on,61,30,0
2,note_on,61,0,160
2,note_on,52,30,0
2,note_on,52,0,160
2,note_on,44,30,0
2,note_on,44,0,160
2,note_on,37,30,0
2,note_on,37,0,160
2,note_on,32,26,0
2,note_on,32,0,82
2,note_on,44,24,0
2,note_on,44,0,160
2,note_on,60,24,0
2,note_on,60,0,160
2,note_on,54,24,0
2,note_on,54,0,160
2,note_on,44,24,0
2,note_on,44,0,160
2,note_on,32,24,0
2,note_on,32,0,160
2,note_on,37,26,0
2,note_on,37,0,54
2,note_on,44,23,0
2,note_on,44,0,160
2,note_on,61,24,0
2,note_on,61,0,160
2,note_on,52,24,0
2,note_on,52,0,160
2,note_on,44,24,0
2,note_on,44,0,160
2,note_on,37,24,0
2,note_on,37,0,160
2,note_on,37,26,0
2,note_on,37,0,82
2,note_on,44,24,0
2,note_on,44,0,160
2,note_on,60,24,0
2,note_on,60,0,160
2,note_on,54,24,0
2,note_on,54,0,160
2,note_on,44,24,0
2,note_on,44,0,160
2,note_on,37,24,0
2,note_on,37,0,160
2,note_on,37,34,0
2,note_on,37,0,54
2,note_on,44,32,0
2,note_on,44,0,160
2,note_on,61,32,0
2,note_on,61,0,160
2,note_on,52,32,0
2,note_on,52,0,160
2,note_on,44,31,0
2,note_on,44,0,160
2,note_on,37,31,0
2,note_on,37,0,160
2,note_on,37,26,0
2,note_on,37,0,82
2,note_on,44,24,0
2,note_on,44,0,160
2,note_on,60,24,0
2,note_on,60,0,160
2,note_on,54,24,0
2,note_on,54,0,160
2,note_on,44,24,0
2,note_on,44,0,160
2,note_on,37,24,0
2,note_on,37,0,160
2,note_on,37,26,0
2,note_on,37,0,54
2,note_on,44,26,0
2,note_on,44,0,160
2,note_on,61,27,0
2,note_on,61,0,160
2,note_on,52,27,0
2,note_on,52,0,160
2,note_on,44,28,0
2,note_on,44,0,160
2,note_on,37,29,0
2,note_on,37,0,160
2,note_on,32,29,0
2,note_on,32,0,82
2,note_on,44,30,0
2,note_on,44,0,160
2,note_on,60,30,0
2,note_on,60,0,160
2,note_on,54,31,0
2,note_on,54,0,160
2,note_on,44,32,0
2,note_on,44,0,160
2,note_on,32,32,0
2,note_on,32,0,160
2,note_on,37,35,0
2,note_on,37,0,91
2,note_on,44,34,0
2,note_on,44,0,160
2,note_on,61,33,0
2,note_on,61,0,160
2,note_on,52,32,0
2,note_on,52,0,160
2,note_on,44,31,0
2,note_on,44,0,160
2,note_on,37,29,0
2,note_on,37,0,160
2,note_on,42,26,0
2,note_on,42,0,82
2,note_on,50,24,0
2,note_on,50,0,160
2,note_on,57,24,0
2,note_on,57,0,160
2,note_on,44,24,0
2,note_on,44,0,160
2,note_on,54,24,0
2,note_on,54,0,160
2,note_on,60,24,0
2,note_on,60,0,160
2,note_on,37,26,0
2,note_on,37,0,54
2,note_on,44,23,0
2,note_on,44,0,160
2,note_on,61,24,0
2,note_on,61,0,160
2,note_on,52,24,0
2,note_on,52,0,160
2,note_on,44,24,0
2,note_on,44,0,160
2,note_on,37,24,0
2,note_on,37,0,157
2,note_on,37,26,3
2,note_on,37,0,61
2,note_on,44,24,0
2,note_on,44,0,160
2,note_on,56,24,0
2,note_on,56,0,160
2,note_on,49,24,0
2,note_on,49,0,160
2,note_on,44,24,0
2,note_on,44,0,160
2,note_on,37,24,0
2,note_on,37,0,160
2,note_on,44,26,0
2,note_on,44,0,12
2,note_on,49,26,0
2,note_on,49,0,160
2,note_on,56,26,0
2,note_on,56,0,160
2,note_on,49,27,0
2,note_on,49,0,160
2,note_on,44,28,0
2,note_on,44,0,160
2,note_on,37,28,0
2,note_on,37,0,160
2,note_on,44,29,0
2,note_on,44,0,82
2,note_on,49,29,0
2,note_on,49,0,160
2,note_on,56,30,0
2,note_on,56,0,160
2,note_on,49,30,0
2,note_on,49,0,160
2,note_on,44,31,0
2,note_on,44,0,160
2,note_on,37,32,0
2,note_on,37,0,160
2,note_on,44,32,0
2,note_on,44,0,54
2,note_on,49,32,0
2,note_on,49,0,160
2,note_on,56,31,0
2,note_on,56,0,160
2,note_on,49,30,0
2,note_on,49,0,160
2,note_on,44,30,0
2,note_on,44,0,160
2,note_on,37,29,0
2,note_on,37,0,160
2,note_on,42,28,0
2,note_on,42,0,68
2,note_on,49,27,0
2,note_on,49,0,160
2,note_on,61,27,0
2,note_on,61,0,160
2,note_on,54,26,0
2,note_on,54,0,160
2,note_on,49,25,0
2,note_on,49,0,160
2,note_on,42,23,0
2,note_on,42,0,160
2,note_on,30,26,0
2,note_on,30,0,63
2,note_on,42,24,0
2,note_on,42,0,160
2,note_on,57,24,0
2,note_on,57,0,160
2,note_on,50,24,0
2,note_on,50,0,160
2,note_on,42,24,0
2,note_on,42,0,160
2,note_on,30,24,0
2,note_on,30,0,160
2,note_on,32,26,0
2,note_on,32,0,97
2,note_on,44,24,0
2,note_on,44,0,160
2,note_on,56,24,0
2,note_on,56,0,160
2,note_on,51,24,0
2,note_on,51,0,160
2,note_on,44,24,0
2,note_on,44,0,160
2,note_on,32,24,0
2,note_on,32,0,160
2,note_on,37,26,4
2,note_on,44,24,95
2,note_on,37,0,2
2,note_on,61,23,156
2,note_on,44,0,2
2,note_on,61,0,158
2,note_on,52,23,0
2,note_on,52,0,160
2,note_on,44,23,0
2,note_on,44,0,160
2,note_on,37,23,0
2,note_on,37,0,160
2,note_on,35,26,0
2,note_on,35,0,111
2,note_on,47,24,0
2,note_on,47,0,160
2,note_on,63,24,0
2,note_on,63,0,160
2,note_on,57,24,0
2,note_on,57,0,160
2,note_on,47,24,0
2,note_on,47,0,160
2,note_on,35,24,0
2,note_on,35,0,160
2,note_on,40,30,0
2,note_on,40,0,54
2,note_on,47,31,0
2,note_on,47,0,160
2,note_on,64,31,0
2,note_on,64,0,160
2,note_on,56,32,0
2,note_on,56,0,160
2,note_on,47,32,0
2,note_on,47,0,160
2,note_on,39,33,0
2,note_on,39,0,160
2,note_on,37,34,0
2,note_on,37,0,82
2,note_on,44,34,0
2,note_on,44,0,160
2,note_on,56,35,0
2,note_on,56,0,160
2,note_on,49,35,0
2,note_on,49,0,160
2,note_on,44,36,0
2,note_on,44,0,160
2,note_on,37,36,0
2,note_on,37,0,160
2,note_on,37,37,0
2,note_on,37,0,96
2,note_on,44,37,0
2,note_on,44,0,160
2,note_on,61,36,0
2,note_on,61,0,160
2,note_on,53,35,0
2,note_on,53,0,160
2,note_on,44,34,0
2,note_on,44,0,160
2,note_on,37,33,0
2,note_on,37,0,160
2,note_on,37,32,0
2,note_on,37,0,63
2,note_on,45,31,0
2,note_on,45,0,160
2,note_on,61,30,0
2,note_on,61,0,160
2,note_on,54,29,0
2,note_on,54,0,160
2,note_on,45,29,0
2,note_on,45,0,160
2,note_on,37,28,0
2,note_on,37,0,160
2,note_on,37,26,0
2,note_on,37,0,103
2,note_on,45,24,0
2,note_on,45,0,160
2,note_on,57,24,0
2,note_on,57,0,160
2,note_on,50,24,0
2,note_on,50,0,160
2,note_on,45,24,0
2,note_on,45,0,160
2,note_on,37,24,0
2,note_on,37,0,160
2,note_on,37,26,0
2,note_on,37,0,85
2,note_on,45,24,0
2,note_on,45,0,160
2,note_on,57,24,0
2,note_on,57,0,160
2,note_on,50,24,0
2,note_on,50,0,160
2,note_on,45,24,0
2,note_on,45,0,160
2,note_on,37,24,0
2,note_on,37,0,160
2,note_on,37,26,0
2,note_on,37,0,80
2,note_on,45,22,0
2,note_on,45,0,160
2,note_on,57,24,0
2,note_on,57,0,160
2,note_on,50,27,0
2,note_on,50,0,160
2,note_on,45,23,0
2,note_on,45,0,160
2,note_on,37,23,0
2,note_on,37,0,160
2,note_on,37,26,0
2,note_on,37,0,69
2,note_on,45,24,0
2,note_on,45,0,160
2,note_on,57,24,0
2,note_on,57,0,160
2,note_on,50,24,0
2,note_on,50,0,160
2,note_on,45,24,0
2,note_on,45,0,160
2,note_on,37,24,0
2,note_on,37,0,160
2,note_on,45,26,0
2,note_on,45,0,85
2,note_on,50,22,0
2,note_on,50,0,160
2,note_on,57,24,0
2,note_on,57,0,160
2,note_on,62,27,0
2,note_on,62,0,160
2,note_on,57,23,0
2,note_on,57,0,160
2,note_on,50,23,0
2,note_on,50,0,160
2,note_on,45,26,0
2,note_on,45,0,160
2,note_on,50,24,0
2,note_on,50,0,160
2,note_on,57,25,0
2,note_on,57,0,160
2,note_on,50,24,0
2,note_on,50,0,160
2,note_on,45,24,0
2,note_on,45,0,160
2,note_on,37,24,0
2,note_on,37,0,160
2,note_on,50,26,0
2,note_on,50,0,160
2,note_on,57,23,0
2,note_on,57,0,160
2,note_on,62,25,0
2,note_on,62,0,160
2,note_on,66,27,0
2,note_on,66,0,160
2,note_on,62,23,0
2,note_on,62,0,160
2,note_on,57,23,0
2,note_on,57,0,160
2,note_on,45,26,0
2,note_on,45,0,160
2,note_on,50,24,0
2,note_on,50,0,160
2,note_on,57,24,0
2,note_on,57,0,160
2,note_on,50,26,0
2,note_on,50,0,160
2,note_on,45,24,0
2,note_on,45,0,160
2,note_on,37,24,0
2,note_on,37,0,160
2,note_on,36,31,0
2,note_on,43,26,157
2,note_on,44,26,160
2,note_on,43,0,10
2,note_on,45,26,150
2,note_on,44,0,10
2,note_on,44,26,150
2,note_on,45,0,10
2,note_on,45,26,150
2,note_on,44,0,10
2,note_on,44,26,150
2,note_on,45,0,10
2,note_on,45,26,150
2,note_on,44,0,10
2,note_on,44,26,150
2,note_on,45,0,10
2,note_on,44,0,150
2,note_on,36,0,0
2,note_on,37,30,0
2,note_on,43,26,160
2,note_on,44,27,160
2,note_on,43,0,10
2,note_on,45,27,150
2,note_on,44,0,10
2,note_on,44,27,150
2,note_on,45,0,10
2,note_on,45,27,150
2,note_on,44,0,10
2,note_on,44,27,150
2,note_on,45,0,10
2,note_on,45,27,150
2,note_on,44,0,10
2,note_on,44,27,150
2,note_on,45,0,10
2,note_on,44,0,150
2,note_on,37,0,0
2,note_on,39,33,0
2,note_on,43,33,160
2,note_on,44,29,160
2,note_on,43,0,10
2,note_on,45,29,150
2,note_on,44,0,10
2,note_on,44,29,150
2,note_on,45,0,10
2,note_on,45,29,150
2,note_on,44,0,10
2,note_on,44,30,150
2,note_on,45,0,10
2,note_on,45,30,150
2,note_on,44,0,10
2,note_on,44,29,150
2,note_on,45,0,10
2,note_on,44,0,150
2,note_on,39,0,0
2,note_on,40,34,0
2,note_on,43,30,160
2,note_on,44,30,160
2,note_on,43,0,10
2,note_on,45,30,150
2,note_on,44,0,10
2,note_on,44,30,150
2,note_on,45,0,10
2,note_on,45,30,150
2,note_on,44,0,10
2,note_on,44,30,150
2,note_on,45,0,10
2,note_on,45,30,150
2,note_on,44,0,10
2,note_on,44,30,150
2,note_on,45,0,10
2,note_on,44,0,150
2,note_on,40,0,0
2,note_on,41,45,0
2,note_on,48,45,160
2,note_on,49,40,160
2,note_on,48,0,10
2,note_on,50,41,150
2,note_on,49,0,10
2,note_on,49,41,150
2,note_on,50,0,10
2,note_on,50,41,150
2,note_on,49,0,10
2,note_on,49,41,150
2,note_on,50,0,10
2,note_on,50,41,150
2,note_on,49,0,10
2,note_on,49,40,150
2,note_on,50,0,10
2,note_on,49,0,150
2,note_on,41,0,0
2,note_on,42,46,0
2,note_on,48,41,160
2,note_on,49,43,160
2,note_on,48,0,10
2,note_on,50,44,150
2,note_on,49,0,10
2,note_on,49,44,150
2,note_on,50,0,10
2,note_on,50,44,150
2,note_on,49,0,10
2,note_on,49,44,150
2,note_on,50,0,10
2,note_on,50,44,150
2,note_on,49,0,10
2,note_on,49,44,150
2,note_on,50,0,10
2,note_on,49,0,150
2,note_on,42,0,0
2,note_on,44,55,0
2,note_on,48,55,160
2,note_on,49,49,160
2,note_on,48,0,10
2,note_on,50,49,150
2,note_on,49,0,10
2,note_on,49,50,150
2,note_on,50,0,10
2,note_on,50,50,150
2,note_on,49,0,10
2,note_on,49,50,150
2,note_on,50,0,10
2,note_on,50,50,150
2,note_on,49,0,10
2,note_on,49,50,150
2,note_on,50,0,10
2,note_on,49,0,150
2,note_on,44,0,0
2,note_on,45,58,0
2,note_on,48,51,160
2,note_on,49,52,160
2,note_on,48,0,10
2,note_on,50,52,150
2,note_on,49,0,10
2,note_on,49,52,150
2,note_on,50,0,10
2,note_on,50,53,150
2,note_on,49,0,10
2,note_on,49,54,150
2,note_on,50,0,10
2,note_on,50,54,150
2,note_on,49,0,10
2,note_on,49,54,150
2,note_on,50,0,10
2,note_on,49,0,150
2,note_on,45,0,0
2,note_on,36,65,0
2,note_on,48,65,0
2,note_on,48,0,109
2,note_on,36,0,0
2,note_on,55,65,0
2,note_on,55,0,160
2,note_on,56,58,0
2,note_on,56,0,160
2,note_on,57,58,0
2,note_on,57,0,160
2,note_on,56,58,0
2,note_on,56,0,160
2,note_on,57,58,0
2,note_on,57,0,160
2,note_on,56,58,0
2,note_on,56,0,160
2,note_on,63,58,0
2,note_on,63,0,160
2,note_on,56,56,0
2,note_on,56,0,160
2,note_on,37,66,0
2,note_on,49,66,0
2,note_on,49,0,69
2,note_on,37,0,0
2,note_on,55,58,0
2,note_on,55,0,160
2,note_on,56,59,0
2,note_on,56,0,160
2,note_on,57,59,0
2,note_on,57,0,160
2,note_on,56,59,0
2,note_on,56,0,160
2,note_on,57,59,0
2,note_on,57,0,160
2,note_on,56,59,0
2,note_on,56,0,160
2,note_on,64,59,0
2,note_on,64,0,160
2,note_on,56,59,0
2,note_on,56,0,160
2,note_on,39,65,0
2,note_on,51,65,0
2,note_on,51,0,74
2,note_on,39,0,0
2,note_on,55,65,0
2,note_on,55,0,160
2,note_on,56,58,0
2,note_on,56,0,160
2,note_on,57,58,0
2,note_on,57,0,160
2,note_on,56,58,0
2,note_on,56,0,160
2,note_on,57,58,0
2,note_on,57,0,160
2,note_on,56,58,0
2,note_on,56,0,160
2,note_on,66,58,0
2,note_on,66,0,160
2,note_on,56,56,0
2,note_on,56,0,160
2,note_on,40,66,0
2,note_on,52,66,0
2,note_on,52,0,97
2,note_on,40,0,0
2,note_on,55,58,0
2,note_on,55,0,160
2,note_on,56,59,0
2,note_on,56,0,160
2,note_on,57,59,0
2,note_on,57,0,160
2,note_on,56,59,0
2,note_on,56,0,160
2,note_on,57,59,0
2,note_on,57,0,160
2,note_on,56,59,0
2,note_on,56,0,160
2,note_on,68,59,0
2,note_on,68,0,160
2,note_on,56,59,0
2,note_on,56,0,160
2,note_on,41,68,0
2,note_on,53,68,0
2,note_on,53,0,109
2,note_on,41,0,0
2,note_on,60,68,0
2,note_on,60,0,160
2,note_on,61,59,0
2,note_on,61,0,160
2,note_on,62,59,0
2,note_on,62,0,160
2,note_on,61,60,0
2,note_on,61,0,160
2,note_on,62,60,0
2,note_on,62,0,160
2,note_on,61,60,0
2,note_on,61,0,160
2,note_on,71,60,0
2,note_on,71,0,160
2,note_on,61,59,0
2,note_on,61,0,160
2,note_on,42,72,0
2,note_on,54,72,0
2,note_on,54,0,69
2,note_on,42,0,0
2,note_on,60,61,0
2,note_on,60,0,160
2,note_on,61,65,0
2,note_on,61,0,160
2,note_on,62,65,0
2,note_on,62,0,160
2,note_on,61,65,0
2,note_on,61,0,160
2,note_on,62,65,0
2,note_on,62,0,160
2,note_on,61,66,0
2,note_on,61,0,160
2,note_on,69,66,0
2,note_on,69,0,160
2,note_on,61,66,0
2,note_on,61,0,160
2,note_on,44,74,0
2,note_on,56,74,0
2,note_on,56,0,121
2,note_on,44,0,0
2,note_on,60,74,0
2,note_on,60,0,160
2,note_on,61,66,0
2,note_on,61,0,160
2,note_on,62,66,0
2,note_on,62,0,160
2,note_on,61,68,0
2,note_on,61,0,160
2,note_on,62,68,0
2,note_on,62,0,160
2,note_on,61,69,0
2,note_on,61,0,160
2,note_on,68,69,0
2,note_on,68,0,160
2,note_on,61,66,0
2,note_on,61,0,160
2,note_on,45,79,0
2,note_on,57,79,0
2,note_on,57,0,40
2,note_on,45,0,0
2,note_on,60,70,0
2,note_on,60,0,160
2,note_on,61,71,0
2,note_on,61,0,160
2,note_on,62,71,0
2,note_on,62,0,160
2,note_on,61,72,0
2,note_on,61,0,160
2,note_on,62,72,0
2,note_on,62,0,160
2,note_on,61,72,0
2,note_on,61,0,160
2,note_on,73,72,0
2,note_on,73,0,160
2,note_on,61,73,0
2,note_on,61,0,160
2,note_on,34,79,0
2,note_on,34,0,71
2,note_on,49,69,78
2,note_on,49,0,80
2,note_on,37,69,80
2,note_on,37,0,80
2,note_on,52,69,80
2,note_on,52,0,80
2,note_on,40,69,100
2,note_on,40,0,80
2,note_on,55,69,60
2,note_on,55,0,80
2,note_on,43,70,80
2,note_on,43,0,80
2,note_on,58,69,80
2,note_on,58,0,80
2,note_on,46,69,80
2,note_on,46,0,80
2,note_on,47,72,80
2,note_on,47,0,9
2,note_on,59,70,80
2,note_on,59,0,160
2,note_on,56,69,0
2,note_on,56,0,160
2,note_on,64,68,0
2,note_on,64,0,160
2,note_on,59,66,0
2,note_on,59,0,160
2,note_on,68,65,0
2,note_on,68,0,160
2,note_on,64,63,0
2,note_on,64,0,160
2,note_on,59,60,0
2,note_on,59,0,160
2,note_on,56,59,0
2,note_on,56,0,160
2,note_on,35,60,0
2,note_on,35,0,24
2,note_on,47,61,80
2,note_on,47,0,160
2,note_on,54,63,0
2,note_on,54,0,160
2,note_on,59,65,0
2,note_on,59,0,160
2,note_on,54,66,0
2,note_on,54,0,160
2,note_on,63,67,0
2,note_on,63,0,160
2,note_on,59,68,0
2,note_on,59,0,160
2,note_on,54,69,0
2,note_on,54,0,160
2,note_on,47,70,0
2,note_on,47,0,160
2,note_on,40,71,0
2,note_on,40,0,75
2,note_on,52,66,0
2,note_on,52,0,160
2,note_on,47,66,0
2,note_on,47,0,160
2,note_on,40,74,0
2,note_on,40,0,160
2,note_on,56,68,0
2,note_on,56,0,160
2,note_on,47,70,0
2,note_on,47,0,160
2,note_on,40,78,0
2,note_on,40,0,142
2,note_on,59,71,0
2,note_on,59,0,108
2,note_on,47,73,0
2,note_on,47,0,160
2,note_on,39,79,0
2,note_on,39,0,80
2,note_on,51,69,78
2,note_on,51,0,80
2,note_on,39,69,80
2,note_on,39,0,80
2,note_on,56,69,80
2,note_on,56,0,80
2,note_on,39,69,80
2,note_on,39,0,80
2,note_on,60,69,80
2,note_on,60,0,80
2,note_on,39,70,80
2,note_on,39,0,80
2,note_on,63,69,80
2,note_on,63,0,80
2,note_on,39,69,80
2,note_on,39,0,80
2,note_on,68,72,80
2,note_on,68,0,80
2,note_on,63,70,80
2,note_on,63,0,80
2,note_on,72,69,80
2,note_on,72,0,80
2,note_on,68,68,80
2,note_on,68,0,80
2,note_on,63,66,80
2,note_on,63,0,80
2,note_on,60,65,80
2,note_on,60,0,80
2,note_on,56,63,80
2,note_on,56,0,80
2,note_on,51,60,80
2,note_on,51,0,80
2,note_on,39,59,80
2,note_on,39,0,160
2,note_on,27,57,0
2,note_on,27,0,8
2,note_on,39,56,0
2,note_on,39,0,160
2,note_on,46,56,0
2,note_on,46,0,160
2,note_on,55,56,0
2,note_on,55,0,160
2,note_on,51,56,0
2,note_on,51,0,160
2,note_on,46,55,0
2,note_on,46,0,160
2,note_on,39,54,0
2,note_on,39,0,160
2,note_on,51,54,0
2,note_on,51,0,160
2,note_on,63,53,0
2,note_on,63,0,160
2,note_on,32,52,0
2,note_on,32,0,47
2,note_on,51,47,0
2,note_on,51,0,160
2,note_on,44,46,0
2,note_on,44,0,160
2,note_on,51,45,0
2,note_on,51,0,160
2,note_on,44,44,0
2,note_on,44,0,160
2,note_on,51,42,0
2,note_on,51,0,160
2,note_on,44,46,0
2,note_on,44,0,160
2,note_on,51,40,0
2,note_on,51,0,160
2,note_on,44,39,0
2,note_on,44,0,160
2,note_on,52,52,0
2,note_on,52,0,80
2,note_on,44,35,0
2,note_on,44,0,160
2,note_on,52,35,0
2,note_on,52,0,160
2,note_on,44,35,0
2,note_on,44,0,160
2,note_on,52,35,0
2,note_on,52,0,160
2,note_on,44,35,0
2,note_on,44,0,160
2,note_on,52,36,0
2,note_on,52,0,160
2,note_on,44,36,0
2,note_on,44,0,160
2,note_on,52,36,0
2,note_on,52,0,160
2,note_on,44,44,0
2,note_on,44,0,61
2,note_on,51,48,0
2,note_on,51,0,160
2,note_on,44,37,0
2,note_on,44,0,160
2,note_on,51,37,0
2,note_on,51,0,160
2,note_on,44,37,0
2,note_on,44,0,160
2,note_on,51,37,0
2,note_on,51,0,160
2,note_on,44,37,0
2,note_on,44,0,160
2,note_on,51,37,0
2,note_on,51,0,160
2,note_on,44,38,0
2,note_on,44,0,160
2,note_on,53,56,0
2,note_on,53,0,68
2,note_on,44,38,0
2,note_on,44,0,160
2,note_on,53,38,0
2,note_on,53,0,160
2,note_on,44,38,0
2,note_on,44,0,160
2,note_on,53,39,0
2,note_on,53,0,160
2,note_on,44,39,0
2,note_on,44,0,160
2,note_on,53,39,0
2,note_on,53,0,160
2,note_on,44,39,0
2,note_on,44,0,160
2,note_on,53,39,0
2,note_on,53,0,160
2,note_on,44,48,0
2,note_on,44,0,85
2,note_on,54,50,0
2,note_on,54,0,160
2,note_on,44,40,0
2,note_on,44,0,160
2,note_on,54,40,0
2,note_on,54,0,160
2,note_on,44,40,0
2,note_on,44,0,160
2,note_on,54,40,0
2,note_on,54,0,160
2,note_on,44,41,0
2,note_on,44,0,160
2,note_on,54,41,0
2,note_on,54,0,160
2,note_on,44,41,0
2,note_on,44,0,160
2,note_on,53,55,0
2,note_on,53,0,75
2,note_on,44,42,0
2,note_on,44,0,160
2,note_on,53,42,0
2,note_on,53,0,160
2,note_on,44,42,0
2,note_on,44,0,160
2,note_on,53,42,0
2,note_on,53,0,160
2,note_on,44,42,0
2,note_on,44,0,160
2,note_on,53,43,0
2,note_on,53,0,160
2,note_on,44,43,0
2,note_on,44,0,160
2,note_on,53,43,0
2,note_on,53,0,160
2,note_on,44,46,0
2,note_on,44,0,103
2,note_on,54,55,0
2,note_on,54,0,160
2,note_on,44,44,0
2,note_on,44,0,160
2,note_on,54,44,0
2,note_on,54,0,160
2,note_on,44,44,0
2,note_on,44,0,160
2,note_on,54,44,0
2,note_on,54,0,160
2,note_on,44,44,0
2,note_on,44,0,160
2,note_on,54,44,0
2,note_on,54,0,160
2,note_on,44,45,0
2,note_on,44,0,160
2,note_on,55,59,0
2,note_on,55,0,82
2,note_on,44,45,0
2,note_on,44,0,160
2,note_on,55,45,0
2,note_on,55,0,160
2,note_on,44,45,0
2,note_on,44,0,160
2,note_on,55,46,0
2,note_on,55,0,160
2,note_on,44,46,0
2,note_on,44,0,160
2,note_on,55,46,0
2,note_on,55,0,160
2,note_on,44,46,0
2,note_on,44,0,160
2,note_on,55,46,0
2,note_on,55,0,160
2,note_on,44,51,0
2,note_on,44,0,89
2,note_on,56,62,0
2,note_on,56,0,160
2,note_on,44,49,0
2,note_on,44,0,160
2,note_on,56,48,0
2,note_on,56,0,160
2,note_on,44,48,0
2,note_on,44,0,160
2,note_on,56,48,0
2,note_on,56,0,160
2,note_on,44,49,0
2,note_on,44,0,160
2,note_on,56,49,0
2,note_on,56,0,160
2,note_on,44,49,0
2,note_on,44,0,160
2,note_on,55,67,0
2,note_on,55,0,89
2,note_on,44,50,0
2,note_on,44,0,160
2,note_on,55,50,0
2,note_on,55,0,160
2,note_on,44,50,0
2,note_on,44,0,160
2,note_on,55,50,0
2,note_on,55,0,160
2,note_on,44,50,0
2,note_on,44,0,160
2,note_on,55,51,0
2,note_on,55,0,160
2,note_on,44,51,0
2,note_on,44,0,160
2,note_on,55,51,0
2,note_on,55,0,160
2,note_on,44,58,0
2,note_on,44,0,89
2,note_on,56,69,0
2,note_on,56,0,160
2,note_on,44,52,0
2,note_on,44,0,160
2,note_on,56,52,0
2,note_on,56,0,160
2,note_on,44,52,0
2,note_on,44,0,160
2,note_on,56,52,0
2,note_on,56,0,160
2,note_on,44,53,0
2,note_on,44,0,160
2,note_on,56,53,0
2,note_on,56,0,160
2,note_on,44,54,0
2,note_on,44,0,160
2,note_on,57,64,0
2,note_on,57,0,90
2,note_on,44,60,0
2,note_on,44,0,160
2,note_on,57,60,0
2,note_on,57,0,160
2,note_on,44,60,0
2,note_on,44,0,160
2,note_on,57,61,0
2,note_on,57,0,160
2,note_on,44,61,0
2,note_on,44,0,160
2,note_on,57,61,0
2,note_on,57,0,160
2,note_on,44,61,0
2,note_on,44,0,160
2,note_on,57,62,0
2,note_on,57,0,160
2,note_on,44,56,0
2,note_on,57,67,0
2,note_on,57,0,475
2,note_on,44,0,0
2,note_on,44,58,5
2,note_on,57,68,0
2,note_on,57,0,475
2,note_on,44,0,0
2,note_on,44,60,5
2,note_on,56,71,0
2,note_on,56,0,480
2,note_on,44,0,0
2,note_on,49,59,0
2,note_on,56,59,0
2,note_on,61,72,0
2,note_on,61,0,155
2,note_on,56,0,0
2,note_on,49,0,0
2,note_on,49,47,5
2,note_on,56,47,0
2,note_on,61,57,0
2,note_on,61,0,475
2,note_on,56,0,0
2,note_on,49,0,0
2,note_on,49,47,5
2,note_on,56,47,0
2,note_on,61,57,0
2,note_on,61,0,475
2,note_on,56,0,0
2,note_on,49,0,0
2,note_on,54,54,5
2,note_on,61,64,0
2,note_on,42,62,286
2,note_on,42,0,240
2,note_on,30,62,240
2,note_on,30,0,240
2,note_on,61,0,57
2,note_on,54,0,0
2,note_on,37,62,0
2,note_on,37,0,183
2,note_on,49,46,240
2,note_on,56,46,0
2,note_on,61,55,0
2,note_on,61,0,120
2,note_on,56,0,0
2,note_on,49,0,0
2,note_on,49,46,120
2,note_on,56,46,0
2,note_on,61,55,0
2,note_on,61,0,120
2,note_on,56,0,0
2,note_on,49,0,0
2,note_on,49,46,120
2,note_on,56,46,0
2,note_on,61,56,0
2,note_on,61,0,120
2,note_on,56,0,0
2,note_on,49,0,0
2,note_on,49,47,120
2,note_on,56,47,0
2,note_on,61,57,0
2,note_on,61,0,120
2,note_on,56,0,0
2,note_on,49,0,0
2,note_on,49,49,67
2,note_on,57,49,0
2,note_on,60,59,0
2,note_on,60,0,480
2,note_on,57,0,0
2,note_on,49,0,0
2,note_on,49,51,0
2,note_on,57,51,0
2,note_on,60,61,0
2,note_on,60,0,480
2,note_on,57,0,0
2,note_on,49,0,0
2,note_on,49,52,0
2,note_on,56,52,0
2,note_on,60,62,0
2,note_on,60,0,480
2,note_on,56,0,0
2,note_on,49,0,0
2,note_on,49,57,0
2,note_on,56,57,0
2,note_on,61,69,0
2,note_on,61,0,155
2,note_on,56,0,0
2,note_on,49,0,0
2,note_on,49,47,5
2,note_on,56,47,0
2,note_on,61,57,0
2,note_on,61,0,475
2,note_on,56,0,0
2,note_on,49,0,0
2,note_on,49,47,5
2,note_on,56,47,0
2,note_on,61,57,0
2,note_on,61,0,475
2,note_on,56,0,0
2,note_on,49,0,0
2,note_on,54,54,5
2,note_on,61,64,0
2,note_on,42,62,286
2,note_on,42,0,240
2,note_on,30,62,240
2,note_on,30,0,240
2,note_on,61,0,57
2,note_on,54,0,0
2,note_on,37,62,0
2,note_on,37,0,190
2,note_on,49,46,240
2,note_on,56,46,0
2,note_on,61,55,0
2,note_on,61,0,120
2,note_on,56,0,0
2,note_on,49,0,0
2,note_on,49,46,120
2,note_on,56,46,0
2,note_on,61,55,0
2,note_on,61,0,120
2,note_on,56,0,0
2,note_on,49,0,0
2,note_on,49,46,120
2,note_on,56,46,0
2,note_on,61,56,0
2,note_on,61,0,120
2,note_on,56,0,0
2,note_on,49,0,0
2,note_on,49,47,120
2,note_on,56,47,0
2,note_on,61,57,0
2,note_on,61,0,120
2,note_on,56,0,0
2,note_on,49,0,0
2,note_on,49,39,67
2,note_on,55,49,0
2,note_on,55,0,480
2,note_on,49,0,0
2,note_on,48,41,0
2,note_on,55,50,0
2,note_on,55,0,480
2,note_on,48,0,0
2,note_on,48,37,0
2,note_on,55,37,0
2,note_on,59,45,0
2,note_on,59,0,480
2,note_on,55,0,0
2,note_on,48,0,0
2,note_on,48,26,0
2,note_on,55,26,0
2,note_on,60,32,0
2,note_on,60,0,155
2,note_on,55,0,0
2,note_on,48,0,0
2,note_on,48,22,5
2,note_on,55,22,0
2,note_on,60,26,0
2,note_on,60,0,475
2,note_on,55,0,0
2,note_on,48,0,0
2,note_on,48,22,5
2,note_on,55,22,0
2,note_on,60,26,0
2,note_on,60,0,475
2,note_on,55,0,0
2,note_on,48,0,0
2,note_on,53,25,5
2,note_on,60,30,0
2,note_on,41,28,286
2,note_on,41,0,240
2,note_on,29,28,240
2,note_on,29,0,240
2,note_on,60,0,57
2,note_on,53,0,0
2,note_on,36,37,0
2,note_on,36,0,197
2,note_on,48,27,240
2,note_on,55,27,0
2,note_on,60,32,0
2,note_on,60,0,120
2,note_on,55,0,0
2,note_on,48,0,0
2,note_on,48,28,120
2,note_on,55,28,0
2,note_on,60,33,0
2,note_on,60,0,120
2,note_on,55,0,0
2,note_on,48,0,0
2,note_on,48,28,120
2,note_on,55,28,0
2,note_on,60,33,0
2,note_on,60,0,120
2,note_on,55,0,0
2,note_on,48,0,0
2,note_on,48,29,120
2,note_on,55,29,0
2,note_on,60,34,0
2,note_on,60,0,120
2,note_on,55,0,0
2,note_on,48,0,0
2,note_on,48,28,67
2,note_on,56,28,0
2,note_on,59,35,0
2,note_on,59,0,480
2,note_on,56,0,0
2,note_on,48,0,0
2,note_on,48,30,0
2,note_on,56,30,0
2,note_on,59,37,0
2,note_on,59,0,480
2,note_on,56,0,0
2,note_on,48,0,0
2,note_on,48,31,0
2,note_on,55,31,0
2,note_on,59,39,0
2,note_on,59,0,480
2,note_on,55,0,0
2,note_on,48,0,0
2,note_on,48,36,0
2,note_on,55,36,0
2,note_on,60,44,0
2,note_on,60,0,475
2,note_on,55,0,0
2,note_on,48,0,0
2,note_on,48,30,5
2,note_on,55,30,0
2,note_on,60,36,0
2,note_on,60,0,475
2,note_on,55,0,0
2,note_on,48,0,0
2,note_on,48,30,5
2,note_on,55,30,0
2,note_on,60,36,0
2,note_on,60,0,475
2,note_on,55,0,0
2,note_on,48,0,0
2,note_on,56,36,5
2,note_on,59,44,0
2,note_on,59,0,480
2,note_on,56,0,0
2,note_on,57,38,0
2,note_on,60,46,0
2,note_on,60,0,480
2,note_on,57,0,0
2,note_on,59,40,0
2,note_on,62,49,0
2,note_on,62,0,480
2,note_on,59,0,0
2,note_on,60,45,0
2,note_on,63,55,0
2,note_on,63,0,475
2,note_on,60,0,0
2,note_on,60,39,5
2,note_on,63,47,0
2,note_on,63,0,475
2,note_on,60,0,0
2,note_on,60,41,5
2,note_on,63,49,0
2,note_on,63,0,475
2,note_on,60,0,0
2,note_on,59,46,5
2,note_on,62,55,0
2,note_on,62,0,480
2,note_on,59,0,0
2,note_on,60,48,0
2,note_on,63,57,0
2,note_on,63,0,480
2,note_on,60,0,0
2,note_on,62,51,0
2,note_on,65,60,0
2,note_on,65,0,480
2,note_on,62,0,0
2,note_on,63,48,0
2,note_on,66,57,0
2,note_on,66,0,475
2,note_on,63,0,0
2,note_on,63,51,5
2,note_on,66,60,0
2,note_on,66,0,475
2,note_on,63,0,0
2,note_on,63,53,5
2,note_on,66,63,0
2,note_on,66,0,475
2,note_on,63,0,0
2,note_on,63,56,5
2,note_on,66,66,0
2,note_on,66,0,475
2,note_on,63,0,0
2,note_on,63,58,5
2,note_on,66,69,0
2,note_on,66,0,475
2,note_on,63,0,0
2,note_on,61,61,5
2,note_on,66,73,0
2,note_on,66,0,475
2,note_on,61,0,0
2,note_on,60,64,5
2,note_on,66,76,0
2,note_on,66,0,1440
2,note_on,60,0,0
2,note_on,48,73,0
2,note_on,60,86,0
2,note_on,60,0,440
2,note_on,48,0,0
2,note_on,49,77,0
2,note_on,61,91,0
2,note_on,61,0,480
2,note_on,49,0,0
2,note_on,50,81,0
2,note_on,62,96,0
2,note_on,62,0,480
2,note_on,50,0,0
2,note_on,52,84,0
2,note_on,64,99,0
2,note_on,64,0,700
2,note_on,52,0,0
2,note_on,51,79,0
2,note_on,63,94,0
2,note_on,63,0,240
2,note_on,51,0,0
2,note_on,49,79,0
2,note_on,61,93,0
2,note_on,61,0,240
2,note_on,49,0,0
2,note_on,48,78,0
2,note_on,60,92,0
2,note_on,60,0,240
2,note_on,48,0,0
2,note_on,45,77,0
2,note_on,57,91,0
2,note_on,57,0,206
2,note_on,45,0,0
2,note_on,44,77,0
2,note_on,56,91,0
2,note_on,56,0,240
2,note_on,44,0,0
2,note_on,43,76,0
2,note_on,55,90,0
2,note_on,55,0,240
2,note_on,43,0,0
2,note_on,44,71,0
2,note_on,56,84,0
2,note_on,56,0,240
2,note_on,44,0,0
2,note_on,47,74,0
2,note_on,59,88,0
2,note_on,59,0,86
2,note_on,47,0,0
2,note_on,45,74,120
2,note_on,57,88,0
2,note_on,57,0,120
2,note_on,45,0,0
2,note_on,44,74,120
2,note_on,56,88,0
2,note_on,56,0,120
2,note_on,44,0,0
2,note_on,42,73,120
2,note_on,54,87,0
2,note_on,54,0,120
2,note_on,42,0,0
2,note_on,40,73,120
2,note_on,52,87,0
2,note_on,52,0,120
2,note_on,40,0,0
2,note_on,39,73,120
2,note_on,51,87,0
2,note_on,51,0,120
2,note_on,39,0,0
2,note_on,37,73,120
2,note_on,49,86,0
2,note_on,49,0,120
2,note_on,37,0,0
2,note_on,36,73,120
2,note_on,48,86,0
2,note_on,48,0,120
2,note_on,36,0,0
2,note_on,39,73,120
2,note_on,51,86,0
2,note_on,51,0,120
2,note_on,39,0,0
2,note_on,33,86,120
2,note_on,45,102,0
2,note_on,45,0,960
2,note_on,33,0,0
2,note_on,32,78,0
2,note_on,44,92,0
2,note_on,44,0,480
2,note_on,32,0,0
2,note_on,31,82,0
2,note_on,43,97,0
2,note_on,43,0,480
2,note_on,31,0,0
2,note_on,32,82,0
2,note_on,44,97,0
2,note_on,44,0,480
2,note_on,32,0,0
2,note_on,27,83,0
2,note_on,39,98,0
2,note_on,39,0,480
2,note_on,27,0,0
2,note_on,30,79,0
2,note_on,42,94,0
2,note_on,42,0,720
2,note_on,30,0,0
2,note_on,28,76,0
2,note_on,40,90,0
2,note_on,40,0,240
2,note_on,28,0,0
2,note_on,37,102,0
2,note_on,37,0,75
2,note_on,44,38,0
2,note_on,44,0,160
2,note_on,56,39,0
2,note_on,56,0,160
2,note_on,49,41,0
2,note_on,49,0,160
2,note_on,44,43,0
2,note_on,44,0,160
2,note_on,37,45,0
2,note_on,37,0,160
2,note_on,44,47,0
2,note_on,44,0,160
2,note_on,49,46,0
2,note_on,49,0,160
2,note_on,56,44,0
2,note_on,56,0,160
2,note_on,49,43,0
2,note_on,49,0,160
2,note_on,44,42,0
2,note_on,44,0,160
2,note_on,37,40,0
2,note_on,37,0,160
2,note_on,44,42,0
2,note_on,44,0,160
2,note_on,49,40,0
2,note_on,49,0,160
2,note_on,56,38,0
2,note_on,56,0,160
2,note_on,49,36,0
2,note_on,49,0,160
2,note_on,44,34,0
2,note_on,44,0,160
2,note_on,37,31,0
2,note_on,37,0,160
2,note_on,44,30,0
2,note_on,44,0,160
2,note_on,49,29,0
2,note_on,49,0,160
2,note_on,56,28,0
2,note_on,56,0,160
2,note_on,49,27,0
2,note_on,49,0,160
2,note_on,44,26,0
2,note_on,44,0,160
2,note_on,37,25,0
2,note_on,37,0,160
2,note_on,44,26,0
2,note_on,44,0,54
2,note_on,49,25,0
2,note_on,49,0,160
2,note_on,56,26,0
2,note_on,56,0,160
2,note_on,49,27,0
2,note_on,49,0,160
2,note_on,44,28,0
2,note_on,44,0,160
2,note_on,37,29,0
2,note_on,37,0,160
2,note_on,44,28,0
2,note_on,44,0,82
2,note_on,49,29,0
2,note_on,49,0,160
2,note_on,59,30,0
2,note_on,59,0,160
2,note_on,49,30,0
2,note_on,49,0,160
2,note_on,44,31,0
2,note_on,44,0,160
2,note_on,37,32,0
2,note_on,37,0,160
2,note_on,44,33,0
2,note_on,44,0,96
2,note_on,49,31,0
2,note_on,49,0,160
2,note_on,59,30,0
2,note_on,59,0,160
2,note_on,49,30,0
2,note_on,49,0,160
2,note_on,44,29,0
2,note_on,44,0,160
2,note_on,37,28,0
2,note_on,37,0,160
2,note_on,45,28,0
2,note_on,45,0,75
2,note_on,49,28,0
2,note_on,49,0,160
2,note_on,57,28,0
2,note_on,57,0,160
2,note_on,49,28,0
2,note_on,49,0,160
2,note_on,45,28,0
2,note_on,45,0,160
2,note_on,37,28,0
2,note_on,37,0,160
2,note_on,45,32,0
2,note_on,45,0,103
2,note_on,50,29,0
2,note_on,50,0,160
2,note_on,57,29,0
2,note_on,57,0,160
2,note_on,50,28,0
2,note_on,50,0,160
2,note_on,45,27,0
2,note_on,45,0,160
2,note_on,37,26,0
2,note_on,37,0,160
2,note_on,45,25,0
2,note_on,45,0,103
2,note_on,50,24,0
2,note_on,50,0,160
2,note_on,57,24,0
2,note_on,57,0,160
2,note_on,50,24,0
2,note_on,50,0,160
2,note_on,45,24,0
2,note_on,45,0,160
2,note_on,37,24,0
2,note_on,37,0,160
2,note_on,44,26,0
2,note_on,44,0,93
2,note_on,52,24,0
2,note_on,52,0,160
2,note_on,61,23,0
2,note_on,61,0,160
2,note_on,52,23,0
2,note_on,52,0,160
2,note_on,44,23,0
2,note_on,44,0,160
2,note_on,37,23,0
2,note_on,37,0,160
2,note_on,35,26,0
2,note_on,35,0,111
2,note_on,47,24,0
2,note_on,47,0,160
2,note_on,63,24,0
2,note_on,63,0,160
2,note_on,57,24,0
2,note_on,57,0,160
2,note_on,47,24,0
2,note_on,47,0,160
2,note_on,35,24,0
2,note_on,35,0,160
2,note_on,40,30,0
2,note_on,40,0,54
2,note_on,47,31,0
2,note_on,47,0,160
2,note_on,64,31,0
2,note_on,64,0,160
2,note_on,56,32,0
2,note_on,56,0,160
2,note_on,47,32,0
2,note_on,47,0,160
2,note_on,39,33,0
2,note_on,39,0,160
2,note_on,37,34,0
2,note_on,37,0,82
2,note_on,44,34,0
2,note_on,44,0,160
2,note_on,56,35,0
2,note_on,56,0,160
2,note_on,49,35,0
2,note_on,49,0,160
2,note_on,44,36,0
2,note_on,44,0,160
2,note_on,37,36,0
2,note_on,37,0,160
2,note_on,37,37,0
2,note_on,37,0,96
2,note_on,44,37,0
2,note_on,44,0,160
2,note_on,61,36,0
2,note_on,61,0,160
2,note_on,53,35,0
2,note_on,53,0,160
2,note_on,44,34,0
2,note_on,44,0,160
2,note_on,37,33,0
2,note_on,37,0,160
2,note_on,37,32,0
2,note_on,37,0,57
2,note_on,45,31,0
2,note_on,45,0,160
2,note_on,61,30,0
2,note_on,61,0,160
2,note_on,54,29,0
2,note_on,54,0,160
2,note_on,45,29,0
2,note_on,45,0,160
2,note_on,37,28,0
2,note_on,37,0,160
2,note_on,37,26,0
2,note_on,37,0,103
2,note_on,45,24,0
2,note_on,45,0,160
2,note_on,57,24,0
2,note_on,57,0,160
2,note_on,50,24,0
2,note_on,50,0,160
2,note_on,45,24,0
2,note_on,45,0,160
2,note_on,37,24,0
2,note_on,37,0,160
2,note_on,37,26,0
2,note_on,37,0,97
2,note_on,45,24,0
2,note_on,45,0,160
2,note_on,57,24,0
2,note_on,57,0,160
2,note_on,50,24,0
2,note_on,50,0,160
2,note_on,45,24,0
2,note_on,45,0,160
2,note_on,37,24,0
2,note_on,37,0,160
2,note_on,37,31,0
2,note_on,37,0,63
2,note_on,45,26,0
2,note_on,45,0,160
2,note_on,57,28,0
2,note_on,57,0,160
2,note_on,50,32,0
2,note_on,50,0,160
2,note_on,45,27,0
2,note_on,45,0,160
2,note_on,37,27,0
2,note_on,37,0,160
2,note_on,37,31,0
2,note_on,37,0,69
2,note_on,45,28,0
2,note_on,45,0,160
2,note_on,57,28,0
2,note_on,57,0,160
2,note_on,50,28,0
2,note_on,50,0,160
2,note_on,45,28,0
2,note_on,45,0,160
2,note_on,37,28,0
2,note_on,37,0,160
2,note_on,37,35,0
2,note_on,37,0,104
2,note_on,44,25,0
2,note_on,44,0,160
2,note_on,61,30,0
2,note_on,61,0,160
2,note_on,53,27,0
2,note_on,53,0,160
2,note_on,44,27,0
2,note_on,44,0,160
2,note_on,37,27,0
2,note_on,37,0,160
2,note_on,37,31,0
2,note_on,37,0,96
2,note_on,44,28,0
2,note_on,44,0,160
2,note_on,60,32,0
2,note_on,60,0,160
2,note_on,51,28,0
2,note_on,51,0,160
2,note_on,44,27,0
2,note_on,44,0,160
2,note_on,37,27,0
2,note_on,37,0,160
2,note_on,37,37,0
2,note_on,37,0,104
2,note_on,44,26,0
2,note_on,44,0,160
2,note_on,58,34,0
2,note_on,58,0,160
2,note_on,49,26,0
2,note_on,49,0,160
2,note_on,44,26,0
2,note_on,44,0,160
2,note_on,37,26,0
2,note_on,37,0,160
2,note_on,37,29,0
2,note_on,37,0,84
2,note_on,44,26,0
2,note_on,44,0,160
2,note_on,56,33,0
2,note_on,56,0,160
2,note_on,48,26,0
2,note_on,48,0,160
2,note_on,44,26,0
2,note_on,44,0,160
2,note_on,37,26,0
2,note_on,37,0,160
2,note_on,37,35,0
2,note_on,37,0,104
2,note_on,44,25,0
2,note_on,44,0,160
2,note_on,61,30,0
2,note_on,61,0,160
2,note_on,53,25,0
2,note_on,53,0,160
2,note_on,44,25,0
2,note_on,44,0,160
2,note_on,37,25,0
2,note_on,37,0,160
2,note_on,37,28,0
2,note_on,37,0,63
2,note_on,44,25,0
2,note_on,44,0,160
2,note_on,60,31,0
2,note_on,60,0,160
2,note_on,51,25,0
2,note_on,51,0,160
2,note_on,44,25,0
2,note_on,44,0,160
2,note_on,37,25,0
2,note_on,37,0,160
2,note_on,37,33,0
2,note_on,37,0,57
2,note_on,44,24,0
2,note_on,44,0,160
2,note_on,58,29,0
2,note_on,58,0,160
2,note_on,49,23,0
2,note_on,49,0,160
2,note_on,44,23,0
2,note_on,44,0,160
2,note_on,37,23,0
2,note_on,37,0,160
2,note_on,37,26,0
2,note_on,37,0,87
2,note_on,44,24,0
2,note_on,44,0,160
2,note_on,56,28,0
2,note_on,56,0,160
2,note_on,48,23,0
2,note_on,48,0,160
2,note_on,44,23,0
2,note_on,44,0,160
2,note_on,37,23,0
2,note_on,37,0,160
2,note_on,37,31,0
2,note_on,37,0,68
2,note_on,44,22,0
2,note_on,44,0,160
2,note_on,56,27,0
2,note_on,56,0,160
2,note_on,49,22,0
2,note_on,49,0,160
2,note_on,44,22,0
2,note_on,44,0,160
2,note_on,37,22,0
2,note_on,37,0,160
2,note_on,44,31,0
2,note_on,44,0,160
2,note_on,49,26,0
2,note_on,49,0,160
2,note_on,56,28,0
2,note_on,56,0,160
2,note_on,49,30,0
2,note_on,49,0,160
2,note_on,44,32,0
2,note_on,44,0,160
2,note_on,37,35,0
2,note_on,37,0,160
2,note_on,42,42,0
2,note_on,42,0,54
2,note_on,49,30,0
2,note_on,49,0,160
2,note_on,61,31,0
2,note_on,61,0,160
2,note_on,54,33,0
2,note_on,54,0,160
2,note_on,49,35,0
2,note_on,49,0,160
2,note_on,42,36,0
2,note_on,42,0,160
2,note_on,30,44,0
2,note_on,30,0,47
2,note_on,49,37,0
2,note_on,49,0,160
2,note_on,61,37,0
2,note_on,61,0,160
2,note_on,54,37,0
2,note_on,54,0,160
2,note_on,49,37,0
2,note_on,49,0,160
2,note_on,42,37,0
2,note_on,42,0,160
2,note_on,25,55,0
2,note_on,25,0,34
2,note_on,37,44,80
2,note_on,37,0,80
2,note_on,44,46,80
2,note_on,44,0,80
2,note_on,49,48,80
2,note_on,49,0,80
2,note_on,56,50,80
2,note_on,56,0,80
2,note_on,61,51,80
2,note_on,61,0,80
2,note_on,44,22,560
2,note_on,49,22,0
2,note_on,53,22,0
2,note_on,56,27,0
2,note_on,37,25,480
2,note_on,37,0,1920
2,note_on,53,0,0
2,note_on,44,0,0
2,note_on,49,0,0
2,note_on,56,0,0
