Track,Message Type,Note,Velocity,Time
1,note_on,48,90,1
1,note_on,48,0,1199
1,note_on,51,79,0
1,note_on,51,0,240
1,note_on,56,83,0
1,note_on,56,0,240
1,note_on,58,76,0
1,note_on,58,0,240
1,note_on,60,83,0
1,note_on,60,0,240
1,note_on,56,75,0
1,note_on,56,0,240
1,note_on,63,76,0
1,note_on,63,0,240
1,note_on,70,72,0
1,note_on,70,0,240
1,note_on,72,73,0
1,note_on,72,0,240
1,note_on,68,68,0
1,note_on,68,0,240
1,note_on,75,76,0
1,note_on,75,0,240
1,note_on,82,68,0
1,note_on,82,0,240
1,note_on,84,69,0
1,note_on,84,0,240
1,note_on,79,58,0
1,note_on,79,0,240
1,note_on,82,59,0
1,note_on,82,0,240
1,note_on,80,53,0
1,note_on,80,0,240
1,note_on,79,49,0
1,note_on,79,0,480
1,note_on,78,44,0
1,note_on,78,0,240
1,note_on,78,40,480
1,note_on,78,0,240
1,note_on,79,44,0
1,note_on,79,0,240
1,note_on,78,41,0
1,note_on,78,0,240
1,note_on,77,44,0
1,note_on,77,0,240
1,note_on,78,41,0
1,note_on,78,0,240
1,note_on,81,45,0
1,note_on,81,0,160
1,note_on,79,41,0
1,note_on,79,0,160
1,note_on,75,44,0
1,note_on,75,0,160
1,note_on,75,43,0
1,note_on,75,0,360
1,note_on,74,39,0
1,note_on,74,0,120
1,note_on,77,40,0
1,note_on,77,0,160
1,note_on,75,39,0
1,note_on,75,0,160
1,note_on,74,33,0
1,note_on,74,0,144
1,note_on,74,31,16
1,note_on,74,0,480
1,note_on,72,43,1440
1,note_on,72,0,720
1,note_on,67,46,0
1,note_on,67,0,240
1,note_on,70,62,240
1,note_on,60,48,3360
1,note_on,62,44,240
1,note_on,70,0,240
1,note_on,66,44,0
1,note_on,66,0,240
1,note_on,70,49,0
1,note_on,70,0,240
1,note_on,69,47,0
1,note_on,69,0,240
1,note_on,62,0,0
1,note_on,60,0,0
1,note_on,67,44,0
1,note_on,58,28,480
1,note_on,62,33,0
1,note_on,62,0,475
1,note_on,58,0,0
1,note_on,58,28,5
1,note_on,62,33,0
1,note_on,62,0,475
1,note_on,58,0,0
1,note_on,67,0,5
1,note_on,74,47,0
1,note_on,62,28,480
1,note_on,67,33,0
1,note_on,67,0,475
1,note_on,62,0,0
1,note_on,62,28,5
1,note_on,67,33,0
1,note_on,67,0,475
1,note_on,62,0,0
1,note_on,74,0,5
1,note_on,72,47,0
1,note_on,60,22,480
1,note_on,63,23,0
1,note_on,67,28,0
1,note_on,67,0,475
1,note_on,63,0,0
1,note_on,60,0,0
1,note_on,60,22,5
1,note_on,63,23,0
1,note_on,67,28,0
1,note_on,67,0,475
1,note_on,63,0,0
1,note_on,60,0,0
1,note_on,72,0,5
1,note_on,60,48,240
1,note_on,62,44,240
1,note_on,66,44,240
1,note_on,66,0,240
1,note_on,70,49,0
1,note_on,70,0,240
1,note_on,69,47,0
1,note_on,69,0,240
1,note_on,62,0,0
1,note_on,60,0,0
1,note_on,67,44,0
1,note_on,58,28,480
1,note_on,62,33,0
1,note_on,62,0,475
1,note_on,58,0,0
1,note_on,58,28,5
1,note_on,62,33,0
1,note_on,62,0,475
1,note_on,58,0,0
1,note_on,67,0,5
1,note_on,64,44,0
1,note_on,57,28,480
1,note_on,55,28,0
1,note_on,61,33,0
1,note_on,61,0,475
1,note_on,55,0,0
1,note_on,57,0,0
1,note_on,57,28,5
1,note_on,55,28,0
1,note_on,61,33,0
1,note_on,61,0,475
1,note_on,55,0,0
1,note_on,57,0,0
1,note_on,64,0,5
1,note_on,66,44,0
1,note_on,54,20,480
1,note_on,57,23,0
1,note_on,62,28,0
1,note_on,62,0,475
1,note_on,57,0,0
1,note_on,54,0,0
1,note_on,54,20,5
1,note_on,57,23,0
1,note_on,62,28,0
1,note_on,62,0,475
1,note_on,57,0,0
1,note_on,54,0,0
1,note_on,66,0,5
1,note_on,60,48,240
1,note_on,62,44,240
1,note_on,66,44,240
1,note_on,66,0,240
1,note_on,70,49,0
1,note_on,70,0,240
1,note_on,69,47,0
1,note_on,69,0,240
1,note_on,62,0,0
1,note_on,60,0,0
1,note_on,67,44,0
1,note_on,58,28,480
1,note_on,62,33,0
1,note_on,62,0,475
1,note_on,58,0,0
1,note_on,58,28,5
1,note_on,62,33,0
1,note_on,62,0,475
1,note_on,58,0,0
1,note_on,67,0,5
1,note_on,79,53,0
1,note_on,70,28,480
1,note_on,67,28,0
1,note_on,73,33,0
1,note_on,73,0,475
1,note_on,67,0,0
1,note_on,70,0,0
1,note_on,70,28,5
1,note_on,67,28,0
1,note_on,73,33,0
1,note_on,73,0,475
1,note_on,67,0,0
1,note_on,70,0,0
1,note_on,79,0,5
1,note_on,77,50,0
1,note_on,70,29,480
1,note_on,72,34,0
1,note_on,72,0,475
1,note_on,70,0,0
1,note_on,70,29,5
1,note_on,72,35,0
1,note_on,72,0,475
1,note_on,70,0,0
1,note_on,77,0,5
1,note_on,63,48,0
1,note_on,65,48,240
1,note_on,65,0,240
1,note_on,69,44,0
1,note_on,75,46,240
1,note_on,75,0,240
1,note_on,74,51,0
1,note_on,74,0,240
1,note_on,73,49,120
1,note_on,73,0,110
1,note_on,69,0,10
1,note_on,63,0,0
1,note_on,73,46,0
1,note_on,63,20,480
1,note_on,65,23,0
1,note_on,69,28,0
1,note_on,69,0,475
1,note_on,65,0,0
1,note_on,63,0,0
1,note_on,63,20,5
1,note_on,65,23,0
1,note_on,69,28,0
1,note_on,69,0,475
1,note_on,65,0,0
1,note_on,63,0,0
1,note_on,73,0,5
1,note_on,74,46,0
1,note_on,65,23,480
1,note_on,62,19,0
1,note_on,70,28,0
1,note_on,70,0,475
1,note_on,62,0,0
1,note_on,65,0,0
1,note_on,65,23,5
1,note_on,62,18,0
1,note_on,70,28,0
1,note_on,70,0,475
1,note_on,62,0,0
1,note_on,65,0,0
1,note_on,74,0,5
1,note_on,72,47,0
1,note_on,63,28,480
1,note_on,67,33,0
1,note_on,67,0,475
1,note_on,63,0,0
1,note_on,63,28,5
1,note_on,67,34,0
1,note_on,67,0,475
1,note_on,63,0,0
1,note_on,72,0,5
1,note_on,60,48,240
1,note_on,62,44,240
1,note_on,66,44,240
1,note_on,66,0,240
1,note_on,70,49,0
1,note_on,70,0,240
1,note_on,69,47,0
1,note_on,69,0,240
1,note_on,62,0,0
1,note_on,60,0,0
1,note_on,67,44,0
1,note_on,58,28,480
1,note_on,62,33,0
1,note_on,62,0,475
1,note_on,58,0,0
1,note_on,58,28,5
1,note_on,62,33,0
1,note_on,62,0,475
1,note_on,58,0,0
1,note_on,67,0,5
1,note_on,74,47,0
1,note_on,62,28,480
1,note_on,67,33,0
1,note_on,67,0,475
1,note_on,62,0,0
1,note_on,62,28,5
1,note_on,67,33,0
1,note_on,67,0,475
1,note_on,62,0,0
1,note_on,74,0,5
1,note_on,72,47,0
1,note_on,60,23,480
1,note_on,63,23,0
1,note_on,67,28,0
1,note_on,67,0,475
1,note_on,63,0,0
1,note_on,60,0,0
1,note_on,60,23,5
1,note_on,63,23,0
1,note_on,67,28,0
1,note_on,67,0,475
1,note_on,63,0,0
1,note_on,60,0,0
1,note_on,72,0,5
1,note_on,60,48,240
1,note_on,62,44,240
1,note_on,66,44,240
1,note_on,66,0,240
1,note_on,70,49,0
1,note_on,70,0,240
1,note_on,69,47,0
1,note_on,69,0,240
1,note_on,62,0,0
1,note_on,60,0,0
1,note_on,67,44,0
1,note_on,58,28,480
1,note_on,62,33,0
1,note_on,62,0,475
1,note_on,58,0,0
1,note_on,58,28,5
1,note_on,62,33,0
1,note_on,62,0,475
1,note_on,58,0,0
1,note_on,67,0,5
1,note_on,64,44,0
1,note_on,57,23,480
1,note_on,55,23,0
1,note_on,61,28,0
1,note_on,61,0,475
1,note_on,55,0,0
1,note_on,57,0,0
1,note_on,57,23,5
1,note_on,55,23,0
1,note_on,61,28,0
1,note_on,61,0,475
1,note_on,55,0,0
1,note_on,57,0,0
1,note_on,64,0,5
1,note_on,66,44,0
1,note_on,54,17,480
1,note_on,57,19,0
1,note_on,62,23,0
1,note_on,62,0,475
1,note_on,57,0,0
1,note_on,54,0,0
1,note_on,54,17,5
1,note_on,57,19,0
1,note_on,62,23,0
1,note_on,62,0,475
1,note_on,57,0,0
1,note_on,54,0,0
1,note_on,66,0,5
1,note_on,60,48,240
1,note_on,62,44,240
1,note_on,66,44,240
1,note_on,66,0,240
1,note_on,70,49,0
1,note_on,70,0,240
1,note_on,69,47,0
1,note_on,69,0,240
1,note_on,62,0,0
1,note_on,60,0,0
1,note_on,67,44,0
1,note_on,62,28,480
1,note_on,59,28,0
1,note_on,65,33,0
1,note_on,65,0,475
1,note_on,59,0,0
1,note_on,62,0,0
1,note_on,62,28,5
1,note_on,59,28,0
1,note_on,65,33,0
1,note_on,65,0,475
1,note_on,59,0,0
1,note_on,62,0,0
1,note_on,67,0,5
1,note_on,79,58,0
1,note_on,65,28,480
1,note_on,71,31,0
1,note_on,67,31,0
1,note_on,74,36,0
1,note_on,74,0,475
1,note_on,71,0,0
1,note_on,67,0,0
1,note_on,65,0,0
1,note_on,65,32,5
1,note_on,71,32,0
1,note_on,67,28,0
1,note_on,74,37,0
1,note_on,74,0,475
1,note_on,71,0,0
1,note_on,67,0,0
1,note_on,65,0,0
1,note_on,79,0,5
1,note_on,79,62,0
1,note_on,67,33,480
1,note_on,72,33,0
1,note_on,75,39,0
1,note_on,75,0,475
1,note_on,72,0,0
1,note_on,67,0,0
1,note_on,67,34,5
1,note_on,72,34,0
1,note_on,75,40,0
1,note_on,75,0,475
1,note_on,72,0,0
1,note_on,67,0,0
1,note_on,79,0,5
1,note_on,74,66,0
1,note_on,62,35,480
1,note_on,67,41,0
1,note_on,67,0,475
1,note_on,62,0,0
1,note_on,62,36,5
1,note_on,67,42,0
1,note_on,67,0,475
1,note_on,62,0,0
1,note_on,74,0,5
1,note_on,72,58,0
1,note_on,60,35,480
1,note_on,67,41,0
1,note_on,67,0,475
1,note_on,60,0,0
1,note_on,60,34,5
1,note_on,67,40,0
1,note_on,67,0,475
1,note_on,60,0,0
1,note_on,72,0,5
1,note_on,67,62,0
1,note_on,58,31,480
1,note_on,62,37,0
1,note_on,62,0,475
1,note_on,58,0,0
1,note_on,58,30,5
1,note_on,62,36,0
1,note_on,62,0,475
1,note_on,58,0,0
1,note_on,67,0,5
1,note_on,79,62,0
1,note_on,67,33,480
1,note_on,72,33,0
1,note_on,75,39,0
1,note_on,75,0,475
1,note_on,72,0,0
1,note_on,67,0,0
1,note_on,67,34,5
1,note_on,72,34,0
1,note_on,75,40,0
1,note_on,75,0,475
1,note_on,72,0,0
1,note_on,67,0,0
1,note_on,79,0,5
1,note_on,74,59,0
1,note_on,62,35,480
1,note_on,67,41,0
1,note_on,67,0,475
1,note_on,62,0,0
1,note_on,62,36,5
1,note_on,67,42,0
1,note_on,67,0,475
1,note_on,62,0,0
1,note_on,74,0,5
1,note_on,72,64,0
1,note_on,60,35,480
1,note_on,67,41,0
1,note_on,67,0,475
1,note_on,60,0,0
1,note_on,60,34,5
1,note_on,67,40,0
1,note_on,67,0,475
1,note_on,60,0,0
1,note_on,72,0,5
1,note_on,67,62,0
1,note_on,58,31,480
1,note_on,61,37,0
1,note_on,61,0,475
1,note_on,58,0,0
1,note_on,58,30,5
1,note_on,61,36,0
1,note_on,61,0,475
1,note_on,58,0,0
1,note_on,67,0,5
1,note_on,65,57,0
1,note_on,58,35,480
1,note_on,62,42,0
1,note_on,62,0,475
1,note_on,58,0,0
1,note_on,58,35,5
1,note_on,62,42,0
1,note_on,62,0,475
1,note_on,58,0,0
1,note_on,65,0,5
1,note_on,74,60,0
1,note_on,65,38,480
1,note_on,62,38,0
1,note_on,70,45,0
1,note_on,70,0,475
1,note_on,62,0,0
1,note_on,65,0,0
1,note_on,65,38,5
1,note_on,62,38,0
1,note_on,70,45,0
1,note_on,70,0,475
1,note_on,62,0,0
1,note_on,65,0,0
1,note_on,63,51,5
1,note_on,69,51,0
1,note_on,74,0,420
1,note_on,74,55,0
1,note_on,74,0,60
1,note_on,69,0,0
1,note_on,63,0,0
1,note_on,63,48,0
1,note_on,69,48,0
1,note_on,72,62,0
1,note_on,72,0,480
1,note_on,69,0,0
1,note_on,63,0,0
1,note_on,63,45,0
1,note_on,69,45,0
1,note_on,71,58,0
1,note_on,71,0,480
1,note_on,69,0,0
1,note_on,63,0,0
1,note_on,63,50,0
1,note_on,69,50,0
1,note_on,72,65,0
1,note_on,72,0,480
1,note_on,69,0,0
1,note_on,63,0,0
1,note_on,63,49,0
1,note_on,69,49,0
1,note_on,74,64,0
1,note_on,74,0,480
1,note_on,69,0,0
1,note_on,63,0,0
1,note_on,63,51,0
1,note_on,69,51,0
1,note_on,75,66,0
1,note_on,75,0,480
1,note_on,69,0,0
1,note_on,63,0,0
1,note_on,75,71,0
1,note_on,63,49,480
1,note_on,70,49,0
1,note_on,70,0,480
1,note_on,63,0,0
1,note_on,63,49,0
1,note_on,70,49,0
1,note_on,70,0,480
1,note_on,63,0,0
1,note_on,75,0,0
1,note_on,62,43,0
1,note_on,70,43,0
1,note_on,74,56,0
1,note_on,70,0,480
1,note_on,62,0,0
1,note_on,62,43,0
1,note_on,70,43,0
1,note_on,70,0,480
1,note_on,62,0,0
1,note_on,62,43,0
1,note_on,70,43,0
1,note_on,70,0,480
1,note_on,62,0,0
1,note_on,74,0,0
1,note_on,60,51,0
1,note_on,66,51,0
1,note_on,70,50,420
1,note_on,70,0,60
1,note_on,66,0,0
1,note_on,60,0,0
1,note_on,60,48,0
1,note_on,66,48,0
1,note_on,69,57,0
1,note_on,69,0,480
1,note_on,66,0,0
1,note_on,60,0,0
1,note_on,60,43,0
1,note_on,66,43,0
1,note_on,68,54,0
1,note_on,68,0,480
1,note_on,66,0,0
1,note_on,60,0,0
1,note_on,60,48,0
1,note_on,66,48,0
1,note_on,69,57,0
1,note_on,69,0,480
1,note_on,66,0,0
1,note_on,60,0,0
1,note_on,60,47,0
1,note_on,66,47,0
1,note_on,70,56,0
1,note_on,70,0,480
1,note_on,66,0,0
1,note_on,60,0,0
1,note_on,60,49,0
1,note_on,66,49,0
1,note_on,72,58,0
1,note_on,72,0,480
1,note_on,66,0,0
1,note_on,60,0,0
1,note_on,72,67,0
1,note_on,60,49,480
1,note_on,67,49,0
1,note_on,67,0,480
1,note_on,60,0,0
1,note_on,60,49,0
1,note_on,67,49,0
1,note_on,67,0,480
1,note_on,60,0,0
1,note_on,72,0,0
1,note_on,58,43,0
1,note_on,67,43,0
1,note_on,70,51,0
1,note_on,67,0,480
1,note_on,58,0,0
1,note_on,58,43,0
1,note_on,67,43,0
1,note_on,67,0,480
1,note_on,58,0,0
1,note_on,58,43,0
1,note_on,67,43,0
1,note_on,67,0,480
1,note_on,58,0,0
1,note_on,70,0,0
1,note_on,63,50,0
1,note_on,67,50,0
1,note_on,69,56,0
1,note_on,67,0,480
1,note_on,63,0,0
1,note_on,63,50,0
1,note_on,67,50,0
1,note_on,67,0,480
1,note_on,63,0,0
1,note_on,63,50,0
1,note_on,67,50,0
1,note_on,67,0,480
1,note_on,63,0,0
1,note_on,69,0,0
1,note_on,62,42,0
1,note_on,66,42,0
1,note_on,69,51,0
1,note_on,66,0,480
1,note_on,62,0,0
1,note_on,62,42,0
1,note_on,66,42,0
1,note_on,66,0,480
1,note_on,62,0,0
1,note_on,62,42,0
1,note_on,66,42,0
1,note_on,69,0,240
1,note_on,69,51,0
1,note_on,69,0,120
1,note_on,57,51,0
1,note_on,64,51,60
1,note_on,66,0,60
1,note_on,62,0,0
1,note_on,69,51,0
1,note_on,57,0,480
1,note_on,64,0,0
1,note_on,69,0,1920
1,note_on,69,66,0
1,note_on,69,0,600
1,note_on,70,56,0
1,note_on,70,0,120
1,note_on,69,56,0
1,note_on,69,0,120
1,note_on,68,57,0
1,note_on,68,0,120
1,note_on,69,58,0
1,note_on,69,0,120
1,note_on,79,60,0
1,note_on,79,0,120
1,note_on,76,61,0
1,note_on,76,0,120
1,note_on,77,62,0
1,note_on,77,0,120
1,note_on,77,63,0
1,note_on,77,0,120
1,note_on,91,64,0
1,note_on,91,0,120
1,note_on,89,66,0
1,note_on,89,0,120
1,note_on,88,66,0
1,note_on,88,0,120
1,note_on,87,67,0
1,note_on,87,0,80
1,note_on,84,58,0
1,note_on,84,0,80
1,note_on,81,58,0
1,note_on,81,0,80
1,note_on,82,62,0
1,note_on,82,0,80
1,note_on,86,58,0
1,note_on,86,0,80
1,note_on,84,58,0
1,note_on,84,0,80
1,note_on,82,66,0
1,note_on,82,0,80
1,note_on,79,58,0
1,note_on,79,0,80
1,note_on,77,58,0
1,note_on,77,0,80
1,note_on,74,62,0
1,note_on,74,0,80
1,note_on,75,58,0
1,note_on,75,0,80
1,note_on,76,58,0
1,note_on,76,0,80
1,note_on,77,63,0
1,note_on,77,0,80
1,note_on,78,58,0
1,note_on,78,0,80
1,note_on,81,58,0
1,note_on,81,0,80
1,note_on,79,58,0
1,note_on,79,0,80
1,note_on,77,56,0
1,note_on,77,0,80
1,note_on,75,56,0
1,note_on,75,0,80
1,note_on,73,64,0
1,note_on,73,0,240
1,note_on,74,66,240
1,note_on,74,0,1440
1,note_on,72,56,0
1,note_on,72,0,480
1,note_on,67,57,0
1,note_on,67,0,480
1,note_on,70,62,0
1,note_on,70,0,1440
1,note_on,66,53,0
1,note_on,66,0,1440
1,note_on,67,47,0
1,note_on,67,0,480
1,note_on,70,28,0
1,note_on,82,50,0
1,note_on,82,0,240
1,note_on,70,0,0
1,note_on,74,45,0
1,note_on,74,0,240
1,note_on,77,48,0
1,note_on,77,0,240
1,note_on,75,45,0
1,note_on,75,0,720
1,note_on,69,31,0
1,note_on,81,50,0
1,note_on,81,0,240
1,note_on,69,0,0
1,note_on,73,44,0
1,note_on,73,0,240
1,note_on,75,49,0
1,note_on,75,0,240
1,note_on,74,45,0
1,note_on,74,0,720
1,note_on,70,30,0
1,note_on,82,50,0
1,note_on,82,0,240
1,note_on,70,0,0
1,note_on,74,48,0
1,note_on,74,0,240
1,note_on,77,50,0
1,note_on,77,0,240
1,note_on,75,47,0
1,note_on,75,0,720
1,note_on,68,32,0
1,note_on,80,51,0
1,note_on,80,0,240
1,note_on,68,0,0
1,note_on,73,47,0
1,note_on,73,0,240
1,note_on,75,52,0
1,note_on,75,0,240
1,note_on,74,47,0
1,note_on,74,0,720
1,note_on,67,32,0
1,note_on,79,53,0
1,note_on,79,0,240
1,note_on,67,0,0
1,note_on,71,50,0
1,note_on,71,0,240
1,note_on,74,53,0
1,note_on,74,0,240
1,note_on,72,49,0
1,note_on,72,0,720
1,note_on,60,41,0
1,note_on,72,54,0
1,note_on,72,0,240
1,note_on,60,0,0
1,note_on,68,49,0
1,note_on,68,0,240
1,note_on,70,55,0
1,note_on,70,0,240
1,note_on,69,49,0
1,note_on,69,0,720
1,note_on,63,43,0
1,note_on,75,55,0
1,note_on,75,0,240
1,note_on,63,0,0
1,note_on,71,53,0
1,note_on,71,0,240
1,note_on,74,56,0
1,note_on,74,0,240
1,note_on,72,52,0
1,note_on,72,0,720
1,note_on,63,48,0
1,note_on,67,57,0
1,note_on,63,0,240
1,note_on,62,51,0
1,note_on,62,0,240
1,note_on,67,0,0
1,note_on,61,52,0
1,note_on,66,47,0
1,note_on,69,57,0
1,note_on,61,0,240
1,note_on,60,52,0
1,note_on,60,0,240
1,note_on,69,0,0
1,note_on,66,0,0
1,note_on,58,60,0
1,note_on,67,60,0
1,note_on,70,71,0
1,note_on,70,0,480
1,note_on,67,0,0
1,note_on,58,0,0
1,note_on,70,52,0
1,note_on,82,71,0
1,note_on,74,67,240
1,note_on,74,0,240
1,note_on,77,71,0
1,note_on,77,0,240
1,note_on,75,66,0
1,note_on,82,0,240
1,note_on,70,0,0
1,note_on,75,0,480
1,note_on,69,57,0
1,note_on,81,71,0
1,note_on,73,65,240
1,note_on,73,0,240
1,note_on,75,72,0
1,note_on,75,0,240
1,note_on,74,66,0
1,note_on,81,0,240
1,note_on,69,0,0
1,note_on,74,0,480
1,note_on,70,56,0
1,note_on,82,72,0
1,note_on,74,69,240
1,note_on,74,0,240
1,note_on,77,73,0
1,note_on,77,0,240
1,note_on,75,67,0
1,note_on,75,0,240
1,note_on,82,0,0
1,note_on,70,0,0
1,note_on,68,57,480
1,note_on,80,74,0
1,note_on,73,67,240
1,note_on,73,0,240
1,note_on,75,74,0
1,note_on,75,0,240
1,note_on,74,67,0
1,note_on,74,0,240
1,note_on,80,0,0
1,note_on,68,0,0
1,note_on,67,57,480
1,note_on,79,75,0
1,note_on,71,71,240
1,note_on,71,0,240
1,note_on,74,75,0
1,note_on,74,0,240
1,note_on,72,70,0
1,note_on,72,0,240
1,note_on,79,0,0
1,note_on,67,0,0
1,note_on,60,57,480
1,note_on,72,75,0
1,note_on,68,69,240
1,note_on,68,0,240
1,note_on,70,76,0
1,note_on,70,0,240
1,note_on,69,69,0
1,note_on,69,0,240
1,note_on,72,0,0
1,note_on,60,0,0
1,note_on,63,59,480
1,note_on,75,76,0
1,note_on,71,73,240
1,note_on,71,0,240
1,note_on,74,77,0
1,note_on,74,0,240
1,note_on,72,71,0
1,note_on,72,0,240
1,note_on,75,0,0
1,note_on,63,0,0
1,note_on,54,78,480
1,note_on,66,78,0
1,note_on,61,71,240
1,note_on,61,0,240
1,note_on,63,71,0
1,note_on,63,0,240
1,note_on,62,71,0
1,note_on,62,0,240
1,note_on,66,0,0
1,note_on,54,0,0
1,note_on,67,79,0
1,note_on,58,67,0
1,note_on,58,0,240
1,note_on,67,0,0
1,note_on,60,78,0
1,note_on,55,53,0
1,note_on,55,0,120
1,note_on,60,0,0
1,note_on,58,65,0
1,note_on,58,0,120
1,note_on,57,64,0
1,note_on,57,0,120
1,note_on,55,65,0
1,note_on,55,0,120
1,note_on,58,77,0
1,note_on,67,77,0
1,note_on,67,0,240
1,note_on,58,0,0
1,note_on,60,77,0
1,note_on,55,52,0
1,note_on,55,0,120
1,note_on,60,0,0
1,note_on,58,64,0
1,note_on,58,0,120
1,note_on,57,64,0
1,note_on,57,0,120
1,note_on,55,63,0
1,note_on,55,0,120
1,note_on,65,69,0
1,note_on,65,0,120
1,note_on,60,52,0
1,note_on,60,0,120
1,note_on,63,54,0
1,note_on,63,0,120
1,note_on,54,55,0
1,note_on,54,0,120
1,note_on,60,57,0
1,note_on,60,0,120
1,note_on,63,58,0
1,note_on,63,0,120
1,note_on,66,60,0
1,note_on,66,0,120
1,note_on,72,62,0
1,note_on,72,0,120
1,note_on,77,63,0
1,note_on,77,0,120
1,note_on,75,65,0
1,note_on,75,0,120
1,note_on,74,67,0
1,note_on,74,0,120
1,note_on,72,68,0
1,note_on,72,0,120
1,note_on,79,79,0
1,note_on,70,67,0
1,note_on,70,0,120
1,note_on,79,0,0
1,note_on,67,53,120
1,note_on,72,78,0
1,note_on,72,0,120
1,note_on,67,0,0
1,note_on,70,65,0
1,note_on,70,0,120
1,note_on,69,64,0
1,note_on,69,0,120
1,note_on,67,65,0
1,note_on,67,0,120
1,note_on,70,69,0
1,note_on,79,77,0
1,note_on,79,0,240
1,note_on,70,0,0
1,note_on,72,77,0
1,note_on,67,52,0
1,note_on,67,0,120
1,note_on,72,0,0
1,note_on,70,64,0
1,note_on,70,0,120
1,note_on,69,64,0
1,note_on,69,0,120
1,note_on,67,63,0
1,note_on,67,0,120
1,note_on,77,69,0
1,note_on,77,0,120
1,note_on,72,52,0
1,note_on,72,0,120
1,note_on,75,54,0
1,note_on,75,0,120
1,note_on,66,55,0
1,note_on,66,0,120
1,note_on,72,57,0
1,note_on,72,0,120
1,note_on,75,58,0
1,note_on,75,0,120
1,note_on,78,60,0
1,note_on,78,0,120
1,note_on,84,62,0
1,note_on,84,0,120
1,note_on,89,63,0
1,note_on,89,0,120
1,note_on,87,65,0
1,note_on,87,0,120
1,note_on,86,67,0
1,note_on,86,0,120
1,note_on,84,68,0
1,note_on,84,0,120
1,note_on,91,76,0
1,note_on,82,64,0
1,note_on,82,0,120
1,note_on,91,0,0
1,note_on,91,63,240
1,note_on,96,75,0
1,note_on,96,0,120
1,note_on,91,0,0
1,note_on,94,68,0
1,note_on,94,0,120
1,note_on,86,68,0
1,note_on,86,0,120
1,note_on,94,73,0
1,note_on,90,62,0
1,note_on,90,0,120
1,note_on,94,0,0
1,note_on,93,67,0
1,note_on,93,0,120
1,note_on,86,66,0
1,note_on,86,0,120
1,note_on,78,60,0
1,note_on,82,71,0
1,note_on,82,0,120
1,note_on,78,0,0
1,note_on,81,64,0
1,note_on,81,0,120
1,note_on,74,64,0
1,note_on,74,0,120
1,note_on,84,66,0
1,note_on,79,56,0
1,note_on,79,0,120
1,note_on,84,0,0
1,note_on,82,60,0
1,note_on,82,0,120
1,note_on,86,60,0
1,note_on,86,0,120
1,note_on,91,62,0
1,note_on,96,74,0
1,note_on,96,0,120
1,note_on,91,0,0
1,note_on,94,68,0
1,note_on,94,0,120
1,note_on,86,69,0
1,note_on,86,0,120
1,note_on,94,71,0
1,note_on,90,60,0
1,note_on,90,0,120
1,note_on,94,0,0
1,note_on,93,64,0
1,note_on,93,0,120
1,note_on,86,63,0
1,note_on,86,0,120
1,note_on,78,56,0
1,note_on,82,66,0
1,note_on,82,0,120
1,note_on,78,0,0
1,note_on,81,60,0
1,note_on,81,0,120
1,note_on,74,60,0
1,note_on,74,0,120
1,note_on,79,56,0
1,note_on,84,66,0
1,note_on,84,0,120
1,note_on,79,0,0
1,note_on,82,60,0
1,note_on,82,0,120
1,note_on,86,60,0
1,note_on,86,0,120
1,note_on,91,62,0
1,note_on,96,74,0
1,note_on,96,0,120
1,note_on,91,0,0
1,note_on,94,68,0
1,note_on,94,0,120
1,note_on,86,69,0
1,note_on,86,0,120
1,note_on,94,71,0
1,note_on,90,60,0
1,note_on,90,0,120
1,note_on,94,0,0
1,note_on,93,64,0
1,note_on,93,0,120
1,note_on,86,63,0
1,note_on,86,0,120
1,note_on,78,56,0
1,note_on,82,66,0
1,note_on,82,0,120
1,note_on,78,0,0
1,note_on,81,60,0
1,note_on,81,0,120
1,note_on,74,60,0
1,note_on,74,0,120
1,note_on,72,59,0
1,note_on,67,50,0
1,note_on,67,0,120
1,note_on,72,0,0
1,note_on,70,54,0
1,note_on,70,0,120
1,note_on,74,54,0
1,note_on,74,0,120
1,note_on,84,66,0
1,note_on,79,55,0
1,note_on,79,0,120
1,note_on,84,0,0
1,note_on,82,61,0
1,note_on,82,0,120
1,note_on,74,62,0
1,note_on,74,0,120
1,note_on,82,63,0
1,note_on,78,54,0
1,note_on,78,0,120
1,note_on,82,0,0
1,note_on,81,57,0
1,note_on,81,0,120
1,note_on,74,56,0
1,note_on,74,0,120
1,note_on,70,59,0
1,note_on,66,50,0
1,note_on,66,0,120
1,note_on,70,0,0
1,note_on,69,54,0
1,note_on,69,0,120
1,note_on,62,54,0
1,note_on,62,0,120
1,note_on,72,59,0
1,note_on,67,50,0
1,note_on,67,0,120
1,note_on,72,0,0
1,note_on,70,54,0
1,note_on,70,0,120
1,note_on,74,54,0
1,note_on,74,0,120
1,note_on,84,59,0
1,note_on,79,49,0
1,note_on,79,0,120
1,note_on,84,0,0
1,note_on,82,54,0
1,note_on,82,0,120
1,note_on,74,55,0
1,note_on,74,0,120
1,note_on,81,56,0
1,note_on,74,48,0
1,note_on,74,0,120
1,note_on,81,0,0
1,note_on,79,51,0
1,note_on,79,0,120
1,note_on,70,50,0
1,note_on,70,0,120
1,note_on,75,53,0
1,note_on,70,45,0
1,note_on,70,0,120
1,note_on,75,0,0
1,note_on,74,48,0
1,note_on,74,0,120
1,note_on,67,48,0
1,note_on,67,0,120
1,note_on,72,45,0
1,note_on,67,38,0
1,note_on,67,0,120
1,note_on,72,0,0
1,note_on,70,40,0
1,note_on,70,0,120
1,note_on,62,40,0
1,note_on,62,0,120
1,note_on,62,41,0
1,note_on,69,50,0
1,note_on,69,0,120
1,note_on,62,0,0
1,note_on,67,45,0
1,note_on,67,0,120
1,note_on,58,46,0
1,note_on,58,0,120
1,note_on,63,47,0
1,note_on,58,40,0
1,note_on,58,0,120
1,note_on,63,0,0
1,note_on,62,43,0
1,note_on,62,0,120
1,note_on,55,42,0
1,note_on,55,0,120
1,note_on,55,38,0
1,note_on,60,45,0
1,note_on,60,0,120
1,note_on,55,0,0
1,note_on,58,40,0
1,note_on,58,0,120
1,note_on,50,40,0
1,note_on,50,0,120
1,note_on,55,45,0
1,note_on,60,53,0
1,note_on,60,0,120
1,note_on,55,0,0
1,note_on,58,48,0
1,note_on,58,0,120
1,note_on,50,48,0
1,note_on,50,0,120
1,note_on,55,46,0
1,note_on,62,55,0
1,note_on,62,0,120
1,note_on,55,0,0
1,note_on,60,50,0
1,note_on,60,0,120
1,note_on,51,51,0
1,note_on,51,0,120
1,note_on,55,45,0
1,note_on,60,54,0
1,note_on,60,0,120
1,note_on,55,0,0
1,note_on,58,50,0
1,note_on,58,0,120
1,note_on,50,50,0
1,note_on,50,0,120
1,note_on,55,45,0
1,note_on,62,53,0
1,note_on,62,0,120
1,note_on,55,0,0
1,note_on,60,48,0
1,note_on,60,0,120
1,note_on,51,48,0
1,note_on,51,0,120
1,note_on,55,45,0
1,note_on,60,53,0
1,note_on,60,0,120
1,note_on,55,0,0
1,note_on,58,48,0
1,note_on,58,0,120
1,note_on,50,48,0
1,note_on,50,0,120
1,note_on,62,55,0
1,note_on,55,46,0
1,note_on,55,0,120
1,note_on,62,0,0
1,note_on,60,50,0
1,note_on,60,0,120
1,note_on,51,51,0
1,note_on,51,0,120
1,note_on,55,45,0
1,note_on,60,54,0
1,note_on,60,0,120
1,note_on,55,0,0
1,note_on,58,50,0
1,note_on,58,0,120
1,note_on,50,50,0
1,note_on,50,0,120
1,note_on,62,53,0
1,note_on,55,45,0
1,note_on,55,0,120
1,note_on,62,0,0
1,note_on,60,48,0
1,note_on,60,0,120
1,note_on,51,48,0
1,note_on,51,0,120
1,note_on,55,50,0
1,note_on,55,0,120
1,note_on,62,51,0
1,note_on,62,0,120
1,note_on,58,52,0
1,note_on,58,0,120
1,note_on,62,53,0
1,note_on,62,0,120
1,note_on,67,55,0
1,note_on,67,0,120
1,note_on,70,56,0
1,note_on,70,0,120
1,note_on,74,57,0
1,note_on,74,0,120
1,note_on,79,58,0
1,note_on,79,0,120
1,note_on,82,59,0
1,note_on,82,0,120
1,note_on,86,61,0
1,note_on,86,0,120
1,note_on,91,62,0
1,note_on,91,0,120
1,note_on,98,63,0
1,note_on,98,0,120
1,note_on,94,63,0
1,note_on,94,0,120
1,note_on,98,60,0
1,note_on,98,0,120
1,note_on,91,59,0
1,note_on,91,0,120
1,note_on,86,58,0
1,note_on,86,0,120
1,note_on,82,58,0
1,note_on,82,0,120
1,note_on,79,57,0
1,note_on,79,0,120
1,note_on,74,56,0
1,note_on,74,0,120
1,note_on,70,56,0
1,note_on,70,0,120
1,note_on,67,55,0
1,note_on,67,0,120
1,note_on,62,54,0
1,note_on,62,0,120
1,note_on,58,53,0
1,note_on,58,0,120
1,note_on,50,53,0
1,note_on,50,0,120
1,note_on,55,49,0
1,note_on,55,0,120
1,note_on,62,50,0
1,note_on,62,0,120
1,note_on,58,52,0
1,note_on,58,0,120
1,note_on,62,54,0
1,note_on,62,0,120
1,note_on,67,55,0
1,note_on,67,0,120
1,note_on,74,57,0
1,note_on,74,0,120
1,note_on,70,57,0
1,note_on,70,0,120
1,note_on,74,56,0
1,note_on,74,0,120
1,note_on,67,54,0
1,note_on,67,0,120
1,note_on,62,53,0
1,note_on,62,0,120
1,note_on,58,51,0
1,note_on,58,0,120
1,note_on,50,49,0
1,note_on,50,0,120
1,note_on,54,49,0
1,note_on,54,0,120
1,note_on,62,50,0
1,note_on,62,0,120
1,note_on,58,52,0
1,note_on,58,0,120
1,note_on,62,54,0
1,note_on,62,0,120
1,note_on,66,55,0
1,note_on,66,0,120
1,note_on,74,57,0
1,note_on,74,0,120
1,note_on,70,57,0
1,note_on,70,0,120
1,note_on,74,56,0
1,note_on,74,0,120
1,note_on,66,54,0
1,note_on,66,0,120
1,note_on,62,53,0
1,note_on,62,0,120
1,note_on,58,51,0
1,note_on,58,0,120
1,note_on,50,49,0
1,note_on,50,0,120
1,note_on,55,50,0
1,note_on,55,0,120
1,note_on,62,51,0
1,note_on,62,0,120
1,note_on,58,52,0
1,note_on,58,0,120
1,note_on,62,53,0
1,note_on,62,0,120
1,note_on,67,55,0
1,note_on,67,0,120
1,note_on,70,56,0
1,note_on,70,0,120
1,note_on,74,57,0
1,note_on,74,0,120
1,note_on,79,58,0
1,note_on,79,0,120
1,note_on,82,59,0
1,note_on,82,0,120
1,note_on,86,61,0
1,note_on,86,0,120
1,note_on,91,62,0
1,note_on,91,0,120
1,note_on,98,63,0
1,note_on,98,0,120
1,note_on,94,63,0
1,note_on,94,0,120
1,note_on,98,60,0
1,note_on,98,0,120
1,note_on,91,59,0
1,note_on,91,0,120
1,note_on,86,58,0
1,note_on,86,0,120
1,note_on,82,58,0
1,note_on,82,0,120
1,note_on,79,57,0
1,note_on,79,0,120
1,note_on,74,56,0
1,note_on,74,0,120
1,note_on,70,56,0
1,note_on,70,0,120
1,note_on,67,55,0
1,note_on,67,0,120
1,note_on,62,54,0
1,note_on,62,0,120
1,note_on,58,53,0
1,note_on,58,0,120
1,note_on,50,53,0
1,note_on,50,0,120
1,note_on,54,49,0
1,note_on,54,0,120
1,note_on,62,50,0
1,note_on,62,0,120
1,note_on,58,52,0
1,note_on,58,0,120
1,note_on,62,54,0
1,note_on,62,0,120
1,note_on,66,55,0
1,note_on,66,0,120
1,note_on,74,57,0
1,note_on,74,0,120
1,note_on,70,57,0
1,note_on,70,0,120
1,note_on,74,56,0
1,note_on,74,0,120
1,note_on,66,54,0
1,note_on,66,0,120
1,note_on,62,53,0
1,note_on,62,0,120
1,note_on,58,51,0
1,note_on,58,0,120
1,note_on,50,49,0
1,note_on,50,0,120
1,note_on,53,49,0
1,note_on,53,0,120
1,note_on,62,50,0
1,note_on,62,0,120
1,note_on,58,52,0
1,note_on,58,0,120
1,note_on,62,54,0
1,note_on,62,0,120
1,note_on,65,55,0
1,note_on,65,0,120
1,note_on,74,57,0
1,note_on,74,0,120
1,note_on,70,57,0
1,note_on,70,0,120
1,note_on,74,56,0
1,note_on,74,0,120
1,note_on,65,54,0
1,note_on,65,0,120
1,note_on,62,53,0
1,note_on,62,0,120
1,note_on,58,51,0
1,note_on,58,0,120
1,note_on,50,49,0
1,note_on,50,0,120
1,note_on,53,50,0
1,note_on,53,0,120
1,note_on,60,51,0
1,note_on,60,0,120
1,note_on,57,52,0
1,note_on,57,0,120
1,note_on,60,53,0
1,note_on,60,0,120
1,note_on,65,55,0
1,note_on,65,0,120
1,note_on,69,56,0
1,note_on,69,0,120
1,note_on,72,57,0
1,note_on,72,0,120
1,note_on,77,58,0
1,note_on,77,0,120
1,note_on,81,59,0
1,note_on,81,0,120
1,note_on,84,61,0
1,note_on,84,0,120
1,note_on,89,62,0
1,note_on,89,0,120
1,note_on,93,63,0
1,note_on,93,0,120
1,note_on,101,63,0
1,note_on,101,0,240
1,note_on,60,30,3840
1,note_on,65,36,0
1,note_on,65,0,1680
1,note_on,60,0,0
1,note_on,62,34,0
1,note_on,67,42,0
1,note_on,67,0,960
1,note_on,67,37,0
1,note_on,67,0,480
1,note_on,62,0,0
1,note_on,63,42,0
1,note_on,63,0,1920
1,note_on,75,50,0
1,note_on,75,0,720
1,note_on,74,40,0
1,note_on,74,0,240
1,note_on,67,33,0
1,note_on,72,49,0
1,note_on,72,0,1440
1,note_on,67,0,0
1,note_on,74,48,0
1,note_on,69,37,0
1,note_on,74,0,960
1,note_on,74,37,0
1,note_on,74,0,480
1,note_on,69,0,0
1,note_on,70,40,0
1,note_on,70,0,1440
1,note_on,82,60,0
1,note_on,82,0,960
1,note_on,82,56,0
1,note_on,82,0,480
1,note_on,82,59,0
1,note_on,82,0,960
1,note_on,80,55,0
1,note_on,80,0,454
1,note_on,80,59,26
1,note_on,80,0,480
1,note_on,79,56,0
1,note_on,79,0,480
1,note_on,78,55,0
1,note_on,78,0,460
1,note_on,78,58,20
1,note_on,78,0,960
1,note_on,79,56,0
1,note_on,79,0,960
1,note_on,80,62,0
1,note_on,80,0,720
1,note_on,75,56,0
1,note_on,75,0,240
1,note_on,79,59,0
1,note_on,79,0,960
1,note_on,77,50,0
1,note_on,77,0,960
1,note_on,79,59,0
1,note_on,79,0,720
1,note_on,74,53,0
1,note_on,74,0,240
1,note_on,77,59,0
1,note_on,77,0,480
1,note_on,75,55,0
1,note_on,75,0,480
1,note_on,74,55,0
1,note_on,74,0,480
1,note_on,72,55,0
1,note_on,72,0,160
1,note_on,74,50,0
1,note_on,74,0,160
1,note_on,72,50,0
1,note_on,72,0,160
1,note_on,71,53,0
1,note_on,71,0,240
1,note_on,72,50,0
1,note_on,72,0,240
1,note_on,74,50,0
1,note_on,74,0,240
1,note_on,75,50,0
1,note_on,75,0,180
1,note_on,60,30,0
1,note_on,65,36,60
1,note_on,65,0,1440
1,note_on,60,0,0
1,note_on,62,34,0
1,note_on,67,42,0
1,note_on,67,0,960
1,note_on,67,37,0
1,note_on,67,0,480
1,note_on,62,0,0
1,note_on,63,42,0
1,note_on,63,0,1920
1,note_on,75,55,0
1,note_on,75,0,720
1,note_on,74,44,0
1,note_on,74,0,240
1,note_on,67,34,0
1,note_on,72,53,0
1,note_on,72,0,1440
1,note_on,67,0,0
1,note_on,69,40,0
1,note_on,74,52,0
1,note_on,74,0,950
1,note_on,74,47,10
1,note_on,74,0,480
1,note_on,69,0,0
1,note_on,70,49,0
1,note_on,70,0,1440
1,note_on,82,66,0
1,note_on,82,0,950
1,note_on,82,60,10
1,note_on,82,0,460
1,note_on,82,68,20
1,note_on,82,0,1440
1,note_on,72,61,0
1,note_on,72,0,960
1,note_on,74,55,0
1,note_on,74,0,480
1,note_on,75,60,0
1,note_on,75,0,160
1,note_on,77,53,0
1,note_on,77,0,160
1,note_on,75,53,0
1,note_on,75,0,160
1,note_on,74,52,0
1,note_on,74,0,480
1,note_on,75,55,0
1,note_on,75,0,480
1,note_on,79,56,0
1,note_on,79,0,474
1,note_on,79,61,6
1,note_on,79,0,640
1,note_on,77,48,0
1,note_on,77,0,160
1,note_on,75,48,0
1,note_on,75,0,140
1,note_on,75,50,20
1,note_on,75,0,1440
1,note_on,67,36,480
1,note_on,67,0,240
1,note_on,68,34,0
1,note_on,68,0,240
1,note_on,70,37,0
1,note_on,70,0,160
1,note_on,74,34,0
1,note_on,74,0,160
1,note_on,72,34,0
1,note_on,72,0,160
1,note_on,70,42,0
1,note_on,70,0,1440
1,note_on,67,36,480
1,note_on,67,0,240
1,note_on,68,34,0
1,note_on,68,0,240
1,note_on,70,37,0
1,note_on,70,0,160
1,note_on,74,34,0
1,note_on,74,0,160
1,note_on,72,34,0
1,note_on,72,0,160
1,note_on,70,42,0
1,note_on,70,0,1440
1,note_on,65,36,480
1,note_on,65,0,240
1,note_on,68,34,0
1,note_on,68,0,240
1,note_on,70,37,0
1,note_on,70,0,160
1,note_on,74,34,0
1,note_on,74,0,160
1,note_on,72,34,0
1,note_on,72,0,160
1,note_on,70,42,0
1,note_on,70,0,640
1,note_on,61,34,0
1,note_on,63,34,160
1,note_on,63,0,160
1,note_on,67,39,0
1,note_on,67,0,160
1,note_on,61,0,0
1,note_on,72,34,0
1,note_on,72,0,160
1,note_on,70,35,0
1,note_on,70,0,160
1,note_on,68,38,0
1,note_on,68,0,720
1,note_on,59,37,0
1,note_on,63,38,240
1,note_on,63,0,240
1,note_on,59,0,0
1,note_on,65,35,0
1,note_on,65,0,240
1,note_on,67,46,0
1,note_on,67,0,1440
1,note_on,67,36,480
1,note_on,67,0,240
1,note_on,68,34,0
1,note_on,68,0,240
1,note_on,70,37,0
1,note_on,70,0,160
1,note_on,74,34,0
1,note_on,74,0,160
1,note_on,72,34,0
1,note_on,72,0,160
1,note_on,70,42,0
1,note_on,70,0,480
1,note_on,82,51,0
1,note_on,82,0,1440
1,note_on,67,36,160
1,note_on,67,0,160
1,note_on,68,34,0
1,note_on,68,0,160
1,note_on,70,37,0
1,note_on,70,0,160
1,note_on,74,34,0
1,note_on,74,0,160
1,note_on,72,34,0
1,note_on,72,0,160
1,note_on,70,42,0
1,note_on,70,0,480
1,note_on,82,50,0
1,note_on,82,0,1440
1,note_on,65,36,160
1,note_on,65,0,160
1,note_on,68,34,0
1,note_on,68,0,160
1,note_on,70,37,0
1,note_on,70,0,160
1,note_on,74,34,0
1,note_on,74,0,160
1,note_on,72,34,0
1,note_on,72,0,160
1,note_on,70,42,0
1,note_on,70,0,640
1,note_on,61,34,0
1,note_on,63,34,160
1,note_on,63,0,160
1,note_on,67,39,0
1,note_on,67,0,160
1,note_on,61,0,0
1,note_on,72,34,0
1,note_on,72,0,160
1,note_on,70,35,0
1,note_on,70,0,160
1,note_on,68,38,0
1,note_on,68,0,720
1,note_on,59,37,0
1,note_on,63,38,240
1,note_on,63,0,240
1,note_on,59,0,0
1,note_on,65,35,0
1,note_on,65,0,240
1,note_on,67,46,0
1,note_on,67,0,1680
1,note_on,67,34,0
1,note_on,67,0,240
1,note_on,70,36,0
1,note_on,70,0,240
1,note_on,79,37,0
1,note_on,79,0,240
1,note_on,77,40,0
1,note_on,77,0,240
1,note_on,75,37,0
1,note_on,75,0,240
1,note_on,74,46,0
1,note_on,74,0,1680
1,note_on,70,34,0
1,note_on,70,0,240
1,note_on,74,36,0
1,note_on,74,0,240
1,note_on,82,37,0
1,note_on,82,0,240
1,note_on,74,40,0
1,note_on,74,0,240
1,note_on,75,37,0
1,note_on,75,0,240
1,note_on,76,46,0
1,note_on,76,0,480
1,note_on,77,46,0
1,note_on,77,0,1200
1,note_on,74,39,0
1,note_on,74,0,240
1,note_on,77,43,0
1,note_on,77,0,240
1,note_on,86,50,0
1,note_on,86,0,240
1,note_on,84,46,0
1,note_on,84,0,240
1,note_on,82,41,0
1,note_on,82,0,240
1,note_on,80,45,0
1,note_on,80,0,240
1,note_on,81,40,0
1,note_on,81,0,240
1,note_on,89,51,0
1,note_on,89,0,240
1,note_on,88,46,0
1,note_on,88,0,240
1,note_on,86,45,0
1,note_on,86,0,240
1,note_on,81,40,0
1,note_on,81,0,240
1,note_on,74,40,0
1,note_on,74,0,240
1,note_on,69,36,0
1,note_on,69,0,240
1,note_on,65,39,0
1,note_on,65,0,240
1,note_on,62,34,0
1,note_on,62,0,240
1,note_on,64,39,0
1,note_on,64,0,180
1,note_on,67,31,0
1,note_on,67,0,60
1,note_on,65,36,0
1,note_on,65,0,240
1,note_on,62,38,1680
1,note_on,64,37,240
1,note_on,68,37,240
1,note_on,68,0,240
1,note_on,72,41,0
1,note_on,72,0,240
1,note_on,71,39,0
1,note_on,71,0,240
1,note_on,64,0,0
1,note_on,62,0,0
1,note_on,69,37,0
1,note_on,60,23,480
1,note_on,64,28,0
1,note_on,64,0,475
1,note_on,60,0,0
1,note_on,60,23,5
1,note_on,64,28,0
1,note_on,64,0,475
1,note_on,60,0,0
1,note_on,69,0,5
1,note_on,76,41,0
1,note_on,69,28,480
1,note_on,69,0,475
1,note_on,69,28,5
1,note_on,69,0,475
1,note_on,76,0,5
1,note_on,74,39,0
1,note_on,69,28,480
1,note_on,65,23,0
1,note_on,65,0,475
1,note_on,69,0,0
1,note_on,65,23,5
1,note_on,69,28,0
1,note_on,69,0,475
1,note_on,65,0,0
1,note_on,74,0,5
1,note_on,62,40,240
1,note_on,64,37,240
1,note_on,68,37,240
1,note_on,68,0,240
1,note_on,72,41,0
1,note_on,72,0,240
1,note_on,71,39,0
1,note_on,71,0,240
1,note_on,64,0,0
1,note_on,62,0,0
1,note_on,69,37,0
1,note_on,60,23,480
1,note_on,64,28,0
1,note_on,64,0,475
1,note_on,60,0,0
1,note_on,60,23,5
1,note_on,64,28,0
1,note_on,64,0,475
1,note_on,60,0,0
1,note_on,69,0,5
1,note_on,66,37,0
1,note_on,64,28,480
1,note_on,57,23,0
1,note_on,60,23,0
1,note_on,60,0,475
1,note_on,57,0,0
1,note_on,64,0,0
1,note_on,64,28,5
1,note_on,57,23,0
1,note_on,60,23,0
1,note_on,60,0,475
1,note_on,57,0,0
1,note_on,64,0,0
1,note_on,66,0,5
1,note_on,68,37,0
1,note_on,59,19,480
1,note_on,64,23,0
1,note_on,64,0,475
1,note_on,59,0,0
1,note_on,59,19,5
1,note_on,64,23,0
1,note_on,64,0,475
1,note_on,59,0,0
1,note_on,68,0,5
1,note_on,62,40,240
1,note_on,64,37,240
1,note_on,68,37,240
1,note_on,68,0,240
1,note_on,72,41,0
1,note_on,72,0,240
1,note_on,71,39,0
1,note_on,71,0,240
1,note_on,64,0,0
1,note_on,62,0,0
1,note_on,69,37,0
1,note_on,60,23,480
1,note_on,64,28,0
1,note_on,64,0,475
1,note_on,60,0,0
1,note_on,60,23,5
1,note_on,64,28,0
1,note_on,64,0,475
1,note_on,60,0,0
1,note_on,69,0,5
1,note_on,76,53,0
1,note_on,72,32,480
1,note_on,69,26,0
1,note_on,69,0,475
1,note_on,72,0,0
1,note_on,69,26,5
1,note_on,72,32,0
1,note_on,72,0,475
1,note_on,69,0,0
1,note_on,76,0,5
1,note_on,78,53,0
1,note_on,64,26,480
1,note_on,69,26,0
1,note_on,72,32,0
1,note_on,72,0,475
1,note_on,69,0,0
1,note_on,64,0,0
1,note_on,69,26,5
1,note_on,72,32,0
1,note_on,64,26,0
1,note_on,64,0,475
1,note_on,72,0,0
1,note_on,69,0,0
1,note_on,78,0,5
1,note_on,60,40,240
1,note_on,64,37,240
1,note_on,68,37,240
1,note_on,68,0,240
1,note_on,71,41,0
1,note_on,71,0,240
1,note_on,69,39,0
1,note_on,69,0,240
1,note_on,64,0,0
1,note_on,60,0,0
1,note_on,69,37,0
1,note_on,64,28,480
1,note_on,60,23,0
1,note_on,60,0,475
1,note_on,64,0,0
1,note_on,60,23,5
1,note_on,64,28,0
1,note_on,64,0,475
1,note_on,60,0,0
1,note_on,69,0,5
1,note_on,78,55,0
1,note_on,64,28,480
1,note_on,69,28,0
1,note_on,72,34,0
1,note_on,72,0,475
1,note_on,69,0,0
1,note_on,64,0,0
1,note_on,64,28,5
1,note_on,69,28,0
1,note_on,72,36,0
1,note_on,72,0,475
1,note_on,69,0,0
1,note_on,64,0,0
1,note_on,78,0,5
1,note_on,80,58,0
1,note_on,69,30,480
1,note_on,72,30,0
1,note_on,75,36,0
1,note_on,75,0,475
1,note_on,72,0,0
1,note_on,69,0,0
1,note_on,75,37,5
1,note_on,72,30,0
1,note_on,69,30,0
1,note_on,69,0,475
1,note_on,72,0,0
1,note_on,75,0,0
1,note_on,80,0,5
1,note_on,78,62,0
1,note_on,69,31,480
1,note_on,75,39,0
1,note_on,72,31,0
1,note_on,72,0,480
1,note_on,78,0,0
1,note_on,69,0,0
1,note_on,75,0,0
1,note_on,80,65,240
1,note_on,80,0,220
1,note_on,80,66,20
1,note_on,75,45,480
1,note_on,72,35,0
1,note_on,69,35,0
1,note_on,69,0,475
1,note_on,72,0,0
1,note_on,75,0,0
1,note_on,75,45,5
1,note_on,72,35,0
1,note_on,69,35,0
1,note_on,69,0,475
1,note_on,72,0,0
1,note_on,75,0,0
1,note_on,80,0,5
1,note_on,78,69,0
1,note_on,69,38,480
1,note_on,72,38,0
1,note_on,75,47,0
1,note_on,75,0,480
1,note_on,78,0,0
1,note_on,69,0,0
1,note_on,72,0,0
1,note_on,80,71,240
1,note_on,80,0,220
1,note_on,80,74,20
1,note_on,75,50,480
1,note_on,72,39,0
1,note_on,69,39,0
1,note_on,69,0,475
1,note_on,72,0,0
1,note_on,75,0,0
1,note_on,75,50,5
1,note_on,72,40,0
1,note_on,69,40,0
1,note_on,69,0,475
1,note_on,72,0,0
1,note_on,75,0,0
1,note_on,80,0,5
1,note_on,78,81,0
1,note_on,75,53,480
1,note_on,69,42,0
1,note_on,72,42,0
1,note_on,72,0,480
1,note_on,78,0,0
1,note_on,75,0,0
1,note_on,69,0,0
1,note_on,80,77,240
1,note_on,80,0,240
1,note_on,81,78,0
1,note_on,78,57,480
1,note_on,72,47,0
1,note_on,75,47,0
1,note_on,75,0,475
1,note_on,72,0,0
1,note_on,78,0,0
1,note_on,78,59,5
1,note_on,75,48,0
1,note_on,72,48,0
1,note_on,72,0,475
1,note_on,75,0,0
1,note_on,78,0,0
1,note_on,81,0,5
1,note_on,80,94,0
1,note_on,78,63,480
1,note_on,75,50,0
1,note_on,72,50,0
1,note_on,72,0,475
1,note_on,75,0,0
1,note_on,78,0,0
1,note_on,80,0,5
1,note_on,75,50,0
1,note_on,72,50,0
1,note_on,78,61,0
1,note_on,81,100,0
1,note_on,81,0,475
1,note_on,75,0,0
1,note_on,72,0,0
1,note_on,78,0,0
1,note_on,71,82,5
1,note_on,74,82,0
1,note_on,83,99,0
1,note_on,80,82,0
1,note_on,76,82,0
1,note_on,76,0,1440
1,note_on,83,0,0
1,note_on,71,0,0
1,note_on,74,0,0
1,note_on,80,0,0
1,note_on,76,81,0
1,note_on,74,81,0
1,note_on,80,81,0
1,note_on,85,96,0
1,note_on,85,0,960
1,note_on,76,0,0
1,note_on,74,0,0
1,note_on,80,0,0
1,note_on,74,77,0
1,note_on,76,77,0
1,note_on,80,77,0
1,note_on,85,91,0
1,note_on,85,0,480
1,note_on,74,0,0
1,note_on,76,0,0
1,note_on,80,0,0
1,note_on,81,96,0
1,note_on,73,81,0
1,note_on,69,81,0
1,note_on,69,0,1440
1,note_on,73,0,0
1,note_on,81,0,0
1,note_on,81,89,0
1,note_on,85,89,0
1,note_on,93,105,0
1,note_on,93,0,960
1,note_on,85,0,0
1,note_on,81,0,0
1,note_on,80,85,0
1,note_on,85,85,0
1,note_on,92,101,0
1,note_on,92,0,480
1,note_on,85,0,0
1,note_on,80,0,0
1,note_on,78,85,0
1,note_on,85,89,0
1,note_on,90,103,0
1,note_on,90,0,1440
1,note_on,85,0,0
1,note_on,78,0,0
1,note_on,83,86,0
1,note_on,87,86,0
1,note_on,92,102,0
1,note_on,92,0,960
1,note_on,87,0,0
1,note_on,83,0,0
1,note_on,92,93,0
1,note_on,87,79,0
1,note_on,81,79,0
1,note_on,81,0,480
1,note_on,87,0,0
1,note_on,92,0,0
1,note_on,88,103,0
1,note_on,80,88,0
1,note_on,76,88,0
1,note_on,76,0,1440
1,note_on,80,0,0
1,note_on,88,0,0
1,note_on,88,113,0
1,note_on,76,96,0
1,note_on,76,0,960
1,note_on,88,0,0
1,note_on,76,96,0
1,note_on,88,113,0
1,note_on,88,0,480
1,note_on,76,0,0
1,note_on,81,86,0
1,note_on,76,94,0
1,note_on,88,113,0
1,note_on,88,0,960
1,note_on,76,0,0
1,note_on,74,82,0
1,note_on,86,97,0
1,note_on,86,0,480
1,note_on,74,0,0
1,note_on,81,0,0
1,note_on,86,95,0
1,note_on,74,81,0
1,note_on,74,0,160
1,note_on,86,0,0
1,note_on,76,79,0
1,note_on,88,93,0
1,note_on,88,0,160
1,note_on,76,0,0
1,note_on,74,75,0
1,note_on,86,90,0
1,note_on,86,0,160
1,note_on,74,0,0
1,note_on,73,82,0
1,note_on,85,97,0
1,note_on,85,0,240
1,note_on,73,0,0
1,note_on,86,93,0
1,note_on,74,79,0
1,note_on,74,0,240
1,note_on,86,0,0
1,note_on,90,97,0
1,note_on,78,82,0
1,note_on,78,0,240
1,note_on,90,0,0
1,note_on,88,92,0
1,note_on,76,78,0
1,note_on,76,0,240
1,note_on,88,0,0
1,note_on,74,94,0
1,note_on,80,86,0
1,note_on,86,113,0
1,note_on,86,0,960
1,note_on,74,0,0
1,note_on,73,82,0
1,note_on,85,97,0
1,note_on,85,0,480
1,note_on,73,0,0
1,note_on,80,0,0
1,note_on,85,95,0
1,note_on,73,81,0
1,note_on,73,0,160
1,note_on,85,0,0
1,note_on,74,79,0
1,note_on,86,93,0
1,note_on,86,0,160
1,note_on,74,0,0
1,note_on,73,75,0
1,note_on,85,90,0
1,note_on,85,0,160
1,note_on,73,0,0
1,note_on,72,82,0
1,note_on,84,97,0
1,note_on,84,0,240
1,note_on,72,0,0
1,note_on,85,93,0
1,note_on,73,79,0
1,note_on,73,0,240
1,note_on,85,0,0
1,note_on,76,82,0
1,note_on,88,97,0
1,note_on,88,0,240
1,note_on,76,0,0
1,note_on,74,78,0
1,note_on,86,92,0
1,note_on,86,0,240
1,note_on,74,0,0
1,note_on,78,86,0
1,note_on,73,94,0
1,note_on,85,110,0
1,note_on,85,0,480
1,note_on,73,0,0
1,note_on,71,82,0
1,note_on,83,97,0
1,note_on,83,0,720
1,note_on,71,0,0
1,note_on,70,82,0
1,note_on,82,97,0
1,note_on,82,0,240
1,note_on,70,0,0
1,note_on,78,0,0
1,note_on,83,97,0
1,note_on,71,82,0
1,note_on,77,86,0
1,note_on,71,0,360
1,note_on,83,0,0
1,note_on,72,79,0
1,note_on,84,93,0
1,note_on,84,0,360
1,note_on,72,0,0
1,note_on,85,97,0
1,note_on,73,82,0
1,note_on,73,0,360
1,note_on,85,0,0
1,note_on,68,78,0
1,note_on,80,92,0
1,note_on,80,0,360
1,note_on,68,0,0
1,note_on,77,0,0
1,note_on,73,77,0
1,note_on,78,81,0
1,note_on,71,94,0
1,note_on,83,113,0
1,note_on,83,0,480
1,note_on,71,0,0
1,note_on,81,97,0
1,note_on,69,82,0
1,note_on,78,0,480
1,note_on,73,0,0
1,note_on,81,0,240
1,note_on,80,97,0
1,note_on,80,0,120
1,note_on,78,80,0
1,note_on,78,0,60
1,note_on,80,79,0
1,note_on,80,0,60
1,note_on,69,0,0
1,note_on,69,82,0
1,note_on,78,97,0
1,note_on,75,82,0
1,note_on,71,82,0
1,note_on,71,0,480
1,note_on,69,0,0
1,note_on,78,0,0
1,note_on,75,0,0
1,note_on,69,71,0
1,note_on,77,84,0
1,note_on,75,71,0
1,note_on,71,71,0
1,note_on,71,0,220
1,note_on,69,0,0
1,note_on,77,0,0
1,note_on,75,0,0
1,note_on,71,74,20
1,note_on,69,74,0
1,note_on,75,74,0
1,note_on,78,88,0
1,note_on,78,0,220
1,note_on,71,0,0
1,note_on,69,0,0
1,note_on,75,0,0
1,note_on,69,77,20
1,note_on,71,77,0
1,note_on,75,77,0
1,note_on,80,91,0
1,note_on,80,0,220
1,note_on,69,0,0
1,note_on,71,0,0
1,note_on,75,0,0
1,note_on,71,80,20
1,note_on,75,80,0
1,note_on,69,80,0
1,note_on,81,94,0
1,note_on,81,0,220
1,note_on,71,0,0
1,note_on,75,0,0
1,note_on,69,0,0
1,note_on,68,82,20
1,note_on,64,82,0
1,note_on,62,82,0
1,note_on,71,99,0
1,note_on,71,0,1440
1,note_on,68,0,0
1,note_on,64,0,0
1,note_on,62,0,0
1,note_on,73,81,0
1,note_on,76,96,0
1,note_on,64,81,0
1,note_on,68,81,0
1,note_on,68,0,960
1,note_on,73,0,0
1,note_on,76,0,0
1,note_on,64,0,0
1,note_on,62,77,0
1,note_on,76,91,0
1,note_on,64,77,0
1,note_on,68,77,0
1,note_on,73,77,0
1,note_on,73,0,480
1,note_on,64,0,0
1,note_on,62,0,0
1,note_on,76,0,0
1,note_on,68,0,0
1,note_on,61,81,0
1,note_on,57,81,0
1,note_on,69,96,0
1,note_on,69,0,480
1,note_on,57,0,0
1,note_on,61,0,0
1,note_on,73,81,480
1,note_on,69,81,0
1,note_on,81,96,0
1,note_on,81,0,480
1,note_on,69,0,0
1,note_on,73,0,0
1,note_on,93,105,0
1,note_on,81,89,0
1,note_on,85,89,0
1,note_on,85,0,960
1,note_on,81,0,0
1,note_on,93,0,0
1,note_on,92,101,0
1,note_on,85,85,0
1,note_on,80,85,0
1,note_on,80,0,480
1,note_on,85,0,0
1,note_on,92,0,0
1,note_on,85,89,0
1,note_on,78,87,0
1,note_on,90,103,0
1,note_on,90,0,1440
1,note_on,78,0,0
1,note_on,85,0,0
1,note_on,92,102,0
1,note_on,87,86,0
1,note_on,83,86,0
1,note_on,83,0,960
1,note_on,87,0,0
1,note_on,92,0,0
1,note_on,92,93,0
1,note_on,87,79,0
1,note_on,81,79,0
1,note_on,81,0,480
1,note_on,87,0,0
1,note_on,92,0,0
1,note_on,80,88,0
1,note_on,76,88,0
1,note_on,88,103,0
1,note_on,88,0,1440
1,note_on,76,0,0
1,note_on,80,0,0
1,note_on,88,89,0
1,note_on,100,104,0
1,note_on,100,0,1320
1,note_on,88,0,0
1,note_on,88,89,0
1,note_on,100,104,0
1,note_on,100,0,120
1,note_on,88,0,0
1,note_on,88,87,0
1,note_on,100,104,0
1,note_on,100,0,240
1,note_on,88,0,0
1,note_on,66,80,1200
1,note_on,78,94,0
1,note_on,78,0,1920
1,note_on,66,0,0
1,note_on,78,79,0
1,note_on,66,67,0
1,note_on,66,0,120
1,note_on,78,0,0
1,note_on,68,67,0
1,note_on,80,79,0
1,note_on,80,0,120
1,note_on,68,0,0
1,note_on,66,70,0
1,note_on,78,83,0
1,note_on,78,0,240
1,note_on,66,0,0
1,note_on,65,64,0
1,note_on,77,77,0
1,note_on,77,0,240
1,note_on,65,0,0
1,note_on,66,67,0
1,note_on,78,79,0
1,note_on,78,0,240
1,note_on,66,0,0
1,note_on,68,68,0
1,note_on,80,81,0
1,note_on,80,0,240
1,note_on,68,0,0
1,note_on,70,71,0
1,note_on,82,84,0
1,note_on,82,0,240
1,note_on,70,0,0
1,note_on,71,73,0
1,note_on,83,86,0
1,note_on,83,0,240
1,note_on,71,0,0
1,note_on,73,74,0
1,note_on,85,89,0
1,note_on,85,0,240
1,note_on,73,0,0
1,note_on,86,91,0
1,note_on,74,77,0
1,note_on,74,0,240
1,note_on,86,0,0
1,note_on,76,80,0
1,note_on,88,94,0
1,note_on,88,0,240
1,note_on,76,0,0
1,note_on,78,94,0
1,note_on,90,113,0
1,note_on,90,0,240
1,note_on,78,0,0
1,note_on,68,80,1200
1,note_on,80,94,0
1,note_on,80,0,960
1,note_on,68,0,0
1,note_on,80,94,0
1,note_on,68,80,0
1,note_on,68,0,480
1,note_on,80,0,0
1,note_on,68,79,0
1,note_on,80,74,240
1,note_on,80,0,240
1,note_on,81,79,0
1,note_on,81,0,240
1,note_on,80,74,0
1,note_on,80,0,240
1,note_on,68,0,0
1,note_on,67,64,0
1,note_on,79,77,0
1,note_on,79,0,240
1,note_on,67,0,0
1,note_on,68,67,0
1,note_on,80,79,0
1,note_on,80,0,240
1,note_on,68,0,0
1,note_on,70,68,0
1,note_on,82,81,0
1,note_on,82,0,240
1,note_on,70,0,0
1,note_on,72,71,0
1,note_on,84,84,0
1,note_on,84,0,240
1,note_on,72,0,0
1,note_on,73,73,0
1,note_on,85,86,0
1,note_on,85,0,240
1,note_on,73,0,0
1,note_on,75,74,0
1,note_on,87,89,0
1,note_on,87,0,240
1,note_on,75,0,0
1,note_on,76,77,0
1,note_on,88,91,0
1,note_on,88,0,240
1,note_on,76,0,0
1,note_on,90,94,0
1,note_on,78,80,0
1,note_on,78,0,240
1,note_on,90,0,0
1,note_on,80,94,0
1,note_on,92,113,0
1,note_on,92,0,240
1,note_on,80,0,0
1,note_on,68,80,1200
1,note_on,80,94,0
1,note_on,80,0,960
1,note_on,68,0,0
1,note_on,68,80,0
1,note_on,80,94,0
1,note_on,80,0,480
1,note_on,68,0,0
1,note_on,80,80,0
1,note_on,68,68,0
1,note_on,68,0,120
1,note_on,80,0,0
1,note_on,70,62,0
1,note_on,82,74,0
1,note_on,82,0,120
1,note_on,70,0,0
1,note_on,68,62,0
1,note_on,80,74,0
1,note_on,80,0,240
1,note_on,68,0,0
1,note_on,67,64,0
1,note_on,79,77,0
1,note_on,79,0,240
1,note_on,67,0,0
1,note_on,68,67,0
1,note_on,80,79,0
1,note_on,80,0,240
1,note_on,68,0,0
1,note_on,82,82,0
1,note_on,70,69,0
1,note_on,70,0,240
1,note_on,82,0,0
1,note_on,71,72,0
1,note_on,83,86,0
1,note_on,83,0,240
1,note_on,71,0,0
1,note_on,73,75,0
1,note_on,85,90,0
1,note_on,85,0,240
1,note_on,73,0,0
1,note_on,75,78,0
1,note_on,87,93,0
1,note_on,87,0,240
1,note_on,75,0,0
1,note_on,89,95,0
1,note_on,77,81,0
1,note_on,77,0,240
1,note_on,89,0,0
1,note_on,79,85,0
1,note_on,91,101,0
1,note_on,91,0,240
1,note_on,79,0,0
1,note_on,80,85,0
1,note_on,92,101,0
1,note_on,92,0,240
1,note_on,80,0,0
1,note_on,82,86,0
1,note_on,94,102,0
1,note_on,94,0,240
1,note_on,82,0,0
1,note_on,83,94,0
1,note_on,95,112,0
1,note_on,95,0,120
1,note_on,83,0,0
1,note_on,92,85,120
1,note_on,95,85,0
1,note_on,95,0,120
1,note_on,92,0,0
1,note_on,89,79,0
1,note_on,89,0,120
1,note_on,87,78,0
1,note_on,87,0,120
1,note_on,83,77,0
1,note_on,83,0,120
1,note_on,80,80,0
1,note_on,83,80,0
1,note_on,83,0,120
1,note_on,80,0,0
1,note_on,77,78,0
1,note_on,77,0,120
1,note_on,75,73,0
1,note_on,75,0,120
1,note_on,71,73,0
1,note_on,71,0,120
1,note_on,71,74,0
1,note_on,68,74,0
1,note_on,68,0,120
1,note_on,71,0,0
1,note_on,65,64,0
1,note_on,65,0,120
1,note_on,63,64,0
1,note_on,63,0,120
1,note_on,59,63,0
1,note_on,59,0,120
1,note_on,56,69,0
1,note_on,59,69,0
1,note_on,59,0,120
1,note_on,56,0,0
1,note_on,53,61,0
1,note_on,53,0,120
1,note_on,51,60,0
1,note_on,51,0,120
1,note_on,47,60,0
1,note_on,47,0,120
1,note_on,59,60,0
1,note_on,56,60,0
1,note_on,56,0,120
1,note_on,59,0,0
1,note_on,53,62,0
1,note_on,53,0,120
1,note_on,51,52,0
1,note_on,51,0,120
1,note_on,47,52,0
1,note_on,47,0,120
1,note_on,56,52,0
1,note_on,59,52,0
1,note_on,56,0,120
1,note_on,53,51,0
1,note_on,53,0,120
1,note_on,59,0,0
1,note_on,58,52,0
1,note_on,56,48,120
1,note_on,58,0,10
1,note_on,59,52,110
1,note_on,56,0,10
1,note_on,53,47,110
1,note_on,59,0,10
1,note_on,58,47,110
1,note_on,53,0,10
1,note_on,56,47,110
1,note_on,58,0,10
1,note_on,59,52,110
1,note_on,56,0,10
1,note_on,53,47,110
1,note_on,59,0,10
1,note_on,58,52,110
1,note_on,53,0,10
1,note_on,56,47,110
1,note_on,58,0,10
1,note_on,59,47,110
1,note_on,56,0,10
1,note_on,53,47,110
1,note_on,59,0,10
1,note_on,58,52,110
1,note_on,53,0,10
1,note_on,56,48,110
1,note_on,58,0,10
1,note_on,59,52,110
1,note_on,56,0,10
1,note_on,53,47,110
1,note_on,59,0,10
1,note_on,58,47,110
1,note_on,53,0,10
1,note_on,56,47,110
1,note_on,58,0,10
1,note_on,59,52,110
1,note_on,56,0,10
1,note_on,53,47,110
1,note_on,59,0,10
1,note_on,58,52,110
1,note_on,53,0,10
1,note_on,56,47,110
1,note_on,58,0,10
1,note_on,59,47,110
1,note_on,56,0,10
1,note_on,53,47,110
1,note_on,59,0,10
1,note_on,58,52,110
1,note_on,53,0,10
1,note_on,56,48,110
1,note_on,58,0,10
1,note_on,59,53,110
1,note_on,56,0,10
1,note_on,53,48,110
1,note_on,59,0,10
1,note_on,58,48,110
1,note_on,53,0,10
1,note_on,56,49,110
1,note_on,58,0,10
1,note_on,59,55,110
1,note_on,56,0,10
1,note_on,53,50,110
1,note_on,59,0,10
1,note_on,58,56,110
1,note_on,53,0,10
1,note_on,56,51,110
1,note_on,58,0,10
1,note_on,59,51,110
1,note_on,56,0,10
1,note_on,53,52,110
1,note_on,59,0,10
1,note_on,58,58,110
1,note_on,53,0,10
1,note_on,56,54,110
1,note_on,58,0,10
1,note_on,59,59,110
1,note_on,56,0,10
1,note_on,53,54,110
1,note_on,59,0,10
1,note_on,58,54,110
1,note_on,53,0,10
1,note_on,56,54,110
1,note_on,58,0,10
1,note_on,59,61,110
1,note_on,56,0,10
1,note_on,53,55,110
1,note_on,59,0,10
1,note_on,58,62,110
1,note_on,53,0,10
1,note_on,56,56,110
1,note_on,58,0,10
1,note_on,59,57,110
1,note_on,56,0,10
1,note_on,53,57,110
1,note_on,59,0,10
1,note_on,58,65,110
1,note_on,53,0,10
1,note_on,58,0,230
1,note_on,58,65,0
1,note_on,62,56,120
1,note_on,58,0,10
1,note_on,59,65,110
1,note_on,62,0,10
1,note_on,62,58,110
1,note_on,59,0,10
1,note_on,61,65,110
1,note_on,62,0,10
1,note_on,65,58,110
1,note_on,61,0,10
1,note_on,62,65,110
1,note_on,65,0,10
1,note_on,68,58,110
1,note_on,62,0,10
1,note_on,64,65,110
1,note_on,68,0,10
1,note_on,68,58,110
1,note_on,64,0,10
1,note_on,65,65,110
1,note_on,68,0,10
1,note_on,71,58,110
1,note_on,65,0,10
1,note_on,67,65,110
1,note_on,71,0,10
1,note_on,71,58,110
1,note_on,67,0,10
1,note_on,68,64,110
1,note_on,71,0,10
1,note_on,74,57,110
1,note_on,68,0,10
1,note_on,70,63,110
1,note_on,74,0,10
1,note_on,74,56,110
1,note_on,70,0,10
1,note_on,71,63,110
1,note_on,74,0,10
1,note_on,74,57,110
1,note_on,71,0,10
1,note_on,73,62,110
1,note_on,74,0,10
1,note_on,77,56,110
1,note_on,73,0,10
1,note_on,74,62,110
1,note_on,77,0,10
1,note_on,80,56,110
1,note_on,74,0,10
1,note_on,76,62,110
1,note_on,80,0,10
1,note_on,80,55,110
1,note_on,76,0,10
1,note_on,77,61,110
1,note_on,80,0,10
1,note_on,83,55,110
1,note_on,77,0,10
1,note_on,79,61,110
1,note_on,83,0,10
1,note_on,83,54,110
1,note_on,79,0,10
1,note_on,80,60,110
1,note_on,83,0,10
1,note_on,86,54,110
1,note_on,80,0,10
1,note_on,82,60,110
1,note_on,86,0,10
1,note_on,86,54,110
1,note_on,82,0,10
1,note_on,83,59,110
1,note_on,86,0,10
1,note_on,86,52,110
1,note_on,83,0,10
1,note_on,85,59,110
1,note_on,86,0,10
1,note_on,89,53,110
1,note_on,85,0,10
1,note_on,86,59,110
1,note_on,89,0,10
1,note_on,92,54,110
1,note_on,86,0,10
1,note_on,88,58,110
1,note_on,92,0,10
1,note_on,92,54,110
1,note_on,88,0,10
1,note_on,89,58,110
1,note_on,92,0,10
1,note_on,95,53,110
1,note_on,89,0,10
1,note_on,91,57,110
1,note_on,95,0,10
1,note_on,95,54,110
1,note_on,91,0,10
1,note_on,94,57,110
1,note_on,95,0,10
1,note_on,92,51,110
1,note_on,94,0,10
1,note_on,95,57,110
1,note_on,92,0,10
1,note_on,89,51,110
1,note_on,95,0,10
1,note_on,94,57,110
1,note_on,89,0,10
1,note_on,92,51,110
1,note_on,94,0,10
1,note_on,96,57,110
1,note_on,92,0,10
1,note_on,89,50,110
1,note_on,96,0,10
1,note_on,94,57,110
1,note_on,89,0,10
1,note_on,92,52,110
1,note_on,94,0,10
1,note_on,97,60,110
1,note_on,92,0,10
1,note_on,89,51,110
1,note_on,97,0,10
1,note_on,94,61,110
1,note_on,89,0,10
1,note_on,92,51,110
1,note_on,94,0,10
1,note_on,98,63,110
1,note_on,92,0,10
1,note_on,89,51,110
1,note_on,98,0,10
1,note_on,94,57,110
1,note_on,89,0,10
1,note_on,92,52,110
1,note_on,94,0,10
1,note_on,99,63,110
1,note_on,92,0,10
1,note_on,89,52,110
1,note_on,99,0,10
1,note_on,94,61,110
1,note_on,89,0,10
1,note_on,92,52,110
1,note_on,94,0,10
1,note_on,100,59,110
1,note_on,92,0,10
1,note_on,89,51,110
1,note_on,100,0,10
1,note_on,101,63,110
1,note_on,89,0,10
1,note_on,98,51,110
1,note_on,101,0,10
1,note_on,97,52,110
1,note_on,98,0,10
1,note_on,100,52,110
1,note_on,97,0,10
1,note_on,99,57,110
1,note_on,100,0,10
1,note_on,96,53,110
1,note_on,99,0,10
1,note_on,95,57,110
1,note_on,96,0,10
1,note_on,98,52,110
1,note_on,95,0,10
1,note_on,97,52,110
1,note_on,98,0,10
1,note_on,94,52,110
1,note_on,97,0,10
1,note_on,93,57,110
1,note_on,94,0,10
1,note_on,96,52,110
1,note_on,93,0,10
1,note_on,95,57,110
1,note_on,96,0,10
1,note_on,92,52,110
1,note_on,95,0,10
1,note_on,91,52,110
1,note_on,92,0,10
1,note_on,94,53,110
1,note_on,91,0,10
1,note_on,92,57,110
1,note_on,94,0,10
1,note_on,89,55,110
1,note_on,92,0,10
1,note_on,86,57,110
1,note_on,89,0,10
1,note_on,82,52,110
1,note_on,86,0,10
1,note_on,81,52,110
1,note_on,82,0,10
1,note_on,82,52,110
1,note_on,81,0,10
1,note_on,80,57,110
1,note_on,82,0,10
1,note_on,82,52,110
1,note_on,80,0,10
1,note_on,78,56,110
1,note_on,82,0,10
1,note_on,79,48,110
1,note_on,78,0,10
1,note_on,91,47,110
1,note_on,79,0,10
1,note_on,86,47,110
1,note_on,91,0,10
1,note_on,87,51,110
1,note_on,86,0,10
1,note_on,83,44,110
1,note_on,87,0,10
1,note_on,84,49,110
1,note_on,83,0,10
1,note_on,79,46,110
1,note_on,84,0,10
1,note_on,82,50,110
1,note_on,79,0,10
1,note_on,80,48,110
1,note_on,82,0,10
1,note_on,79,47,110
1,note_on,80,0,10
1,note_on,77,48,110
1,note_on,79,0,10
1,note_on,77,0,110
1,note_on,78,52,0
1,note_on,79,45,120
1,note_on,78,0,10
1,note_on,91,47,110
1,note_on,79,0,10
1,note_on,86,45,110
1,note_on,91,0,10
1,note_on,87,50,110
1,note_on,86,0,10
1,note_on,83,45,110
1,note_on,87,0,10
1,note_on,84,49,110
1,note_on,83,0,10
1,note_on,79,46,110
1,note_on,84,0,10
1,note_on,82,48,110
1,note_on,79,0,10
1,note_on,80,48,110
1,note_on,82,0,10
1,note_on,79,47,110
1,note_on,80,0,10
1,note_on,77,48,110
1,note_on,79,0,10
1,note_on,77,0,110
1,note_on,78,52,0
1,note_on,79,45,120
1,note_on,78,0,10
1,note_on,91,47,110
1,note_on,79,0,10
1,note_on,86,46,110
1,note_on,91,0,10
1,note_on,87,52,110
1,note_on,86,0,10
1,note_on,83,47,110
1,note_on,87,0,10
1,note_on,84,52,110
1,note_on,83,0,10
1,note_on,79,49,110
1,note_on,84,0,10
1,note_on,82,52,110
1,note_on,79,0,10
1,note_on,80,53,110
1,note_on,82,0,10
1,note_on,79,52,110
1,note_on,80,0,10
1,note_on,77,54,110
1,note_on,79,0,10
1,note_on,77,0,110
1,note_on,75,64,0
1,note_on,81,49,120
1,note_on,81,0,120
1,note_on,75,0,0
1,note_on,77,48,0
1,note_on,77,0,120
1,note_on,74,58,0
1,note_on,81,48,120
1,note_on,81,0,120
1,note_on,74,0,0
1,note_on,77,48,0
1,note_on,77,0,120
1,note_on,72,56,0
1,note_on,81,48,120
1,note_on,81,0,120
1,note_on,72,0,0
1,note_on,77,48,0
1,note_on,77,0,120
1,note_on,70,54,0
1,note_on,81,47,120
1,note_on,81,0,120
1,note_on,70,0,0
1,note_on,77,47,0
1,note_on,77,0,120
1,note_on,78,56,0
1,note_on,79,48,120
1,note_on,78,0,10
1,note_on,91,47,110
1,note_on,79,0,10
1,note_on,86,47,110
1,note_on,91,0,10
1,note_on,87,51,110
1,note_on,86,0,10
1,note_on,83,44,110
1,note_on,87,0,10
1,note_on,84,51,110
1,note_on,83,0,10
1,note_on,79,46,110
1,note_on,84,0,10
1,note_on,82,50,110
1,note_on,79,0,10
1,note_on,80,48,110
1,note_on,82,0,10
1,note_on,79,47,110
1,note_on,80,0,10
1,note_on,77,48,110
1,note_on,79,0,10
1,note_on,77,0,110
1,note_on,78,52,0
1,note_on,79,45,120
1,note_on,78,0,10
1,note_on,91,47,110
1,note_on,79,0,10
1,note_on,86,45,110
1,note_on,91,0,10
1,note_on,87,50,110
1,note_on,86,0,10
1,note_on,83,45,110
1,note_on,87,0,10
1,note_on,84,49,110
1,note_on,83,0,10
1,note_on,79,46,110
1,note_on,84,0,10
1,note_on,82,48,110
1,note_on,79,0,10
1,note_on,80,48,110
1,note_on,82,0,10
1,note_on,79,47,110
1,note_on,80,0,10
1,note_on,77,48,110
1,note_on,79,0,10
1,note_on,77,0,110
1,note_on,78,52,0
1,note_on,79,45,120
1,note_on,78,0,10
1,note_on,91,47,110
1,note_on,79,0,10
1,note_on,86,46,110
1,note_on,91,0,10
1,note_on,87,52,110
1,note_on,86,0,10
1,note_on,83,47,110
1,note_on,87,0,10
1,note_on,84,52,110
1,note_on,83,0,10
1,note_on,79,49,110
1,note_on,84,0,10
1,note_on,82,52,110
1,note_on,79,0,10
1,note_on,80,53,110
1,note_on,82,0,10
1,note_on,79,52,110
1,note_on,80,0,10
1,note_on,77,54,110
1,note_on,79,0,10
1,note_on,77,0,110
1,note_on,76,56,0
1,note_on,76,0,120
1,note_on,75,56,0
1,note_on,75,0,120
1,note_on,74,55,0
1,note_on,74,0,120
1,note_on,73,54,0
1,note_on,73,0,120
1,note_on,72,52,0
1,note_on,72,0,120
1,note_on,71,51,0
1,note_on,71,0,120
1,note_on,70,50,0
1,note_on,70,0,120
1,note_on,69,49,0
1,note_on,69,0,120
1,note_on,72,50,0
1,note_on,72,0,120
1,note_on,70,50,0
1,note_on,70,0,120
1,note_on,69,48,0
1,note_on,69,0,120
1,note_on,68,48,0
1,note_on,68,0,120
1,note_on,67,49,0
1,note_on,68,49,120
1,note_on,67,0,10
1,note_on,69,50,110
1,note_on,68,0,10
1,note_on,70,52,110
1,note_on,69,0,10
1,note_on,72,52,110
1,note_on,70,0,10
1,note_on,70,53,110
1,note_on,72,0,10
1,note_on,68,52,110
1,note_on,70,0,10
1,note_on,70,53,110
1,note_on,68,0,10
1,note_on,71,56,110
1,note_on,70,0,10
1,note_on,72,58,110
1,note_on,71,0,10
1,note_on,73,59,110
1,note_on,72,0,10
1,note_on,72,57,110
1,note_on,73,0,10
1,note_on,72,0,110
1,note_on,69,49,0
1,note_on,70,49,120
1,note_on,69,0,10
1,note_on,71,50,110
1,note_on,70,0,10
1,note_on,72,52,110
1,note_on,71,0,10
1,note_on,74,52,110
1,note_on,72,0,10
1,note_on,72,53,110
1,note_on,74,0,10
1,note_on,70,52,110
1,note_on,72,0,10
1,note_on,72,53,110
1,note_on,70,0,10
1,note_on,73,56,110
1,note_on,72,0,10
1,note_on,74,58,110
1,note_on,73,0,10
1,note_on,75,59,110
1,note_on,74,0,10
1,note_on,74,57,110
1,note_on,75,0,10
1,note_on,71,49,110
1,note_on,74,0,10
1,note_on,72,49,110
1,note_on,71,0,10
1,note_on,73,50,110
1,note_on,72,0,10
1,note_on,74,52,110
1,note_on,73,0,10
1,note_on,75,52,110
1,note_on,74,0,10
1,note_on,74,53,110
1,note_on,75,0,10
1,note_on,72,52,110
1,note_on,74,0,10
1,note_on,73,53,110
1,note_on,72,0,10
1,note_on,74,56,110
1,note_on,73,0,10
1,note_on,75,58,110
1,note_on,74,0,10
1,note_on,76,59,110
1,note_on,75,0,10
1,note_on,77,57,110
1,note_on,76,0,10
1,note_on,79,65,110
1,note_on,77,0,10
1,note_on,77,64,110
1,note_on,79,0,10
1,note_on,76,62,110
1,note_on,77,0,10
1,note_on,75,61,110
1,note_on,76,0,10
1,note_on,74,58,110
1,note_on,75,0,10
1,note_on,73,56,110
1,note_on,74,0,10
1,note_on,72,55,110
1,note_on,73,0,10
1,note_on,71,53,110
1,note_on,72,0,10
1,note_on,70,54,110
1,note_on,71,0,10
1,note_on,69,54,110
1,note_on,70,0,10
1,note_on,70,51,110
1,note_on,69,0,10
1,note_on,68,50,110
1,note_on,70,0,10
1,note_on,67,53,110
1,note_on,68,0,10
1,note_on,67,0,230
1,note_on,58,53,0
1,note_on,58,0,120
1,note_on,70,49,0
1,note_on,70,0,120
1,note_on,62,54,0
1,note_on,62,0,120
1,note_on,71,50,0
1,note_on,71,0,120
1,note_on,58,55,0
1,note_on,58,0,120
1,note_on,70,51,0
1,note_on,70,0,120
1,note_on,63,60,0
1,note_on,67,54,120
1,note_on,67,0,120
1,note_on,63,0,0
1,note_on,64,63,0
1,note_on,73,53,120
1,note_on,73,0,120
1,note_on,64,0,0
1,note_on,60,59,0
1,note_on,60,0,120
1,note_on,72,52,0
1,note_on,72,0,120
1,note_on,65,66,0
1,note_on,69,52,120
1,note_on,69,0,120
1,note_on,65,0,0
1,note_on,64,61,0
1,note_on,64,0,120
1,note_on,73,55,0
1,note_on,73,0,120
1,note_on,60,63,0
1,note_on,60,0,120
1,note_on,72,56,0
1,note_on,72,0,120
1,note_on,65,70,0
1,note_on,69,61,120
1,note_on,69,0,120
1,note_on,65,0,0
1,note_on,66,68,0
1,note_on,75,61,120
1,note_on,75,0,120
1,note_on,66,0,0
1,note_on,62,70,0
1,note_on,62,0,120
1,note_on,74,61,0
1,note_on,74,0,120
1,note_on,67,75,0
1,note_on,71,67,120
1,note_on,71,0,120
1,note_on,67,0,0
1,note_on,66,76,0
1,note_on,75,68,120
1,note_on,75,0,120
1,note_on,66,0,0
1,note_on,62,75,0
1,note_on,62,0,120
1,note_on,74,68,0
1,note_on,74,0,120
1,note_on,67,80,0
1,note_on,70,69,120
1,note_on,70,0,120
1,note_on,67,0,0
1,note_on,68,80,0
1,note_on,77,71,120
1,note_on,77,0,120
1,note_on,68,0,0
1,note_on,64,80,0
1,note_on,64,0,120
1,note_on,76,75,0
1,note_on,76,0,120
1,note_on,69,86,0
1,note_on,73,73,120
1,note_on,73,0,120
1,note_on,69,0,0
1,note_on,70,89,0
1,note_on,79,76,120
1,note_on,79,0,120
1,note_on,70,0,0
1,note_on,66,89,0
1,note_on,66,0,120
1,note_on,78,79,0
1,note_on,78,0,120
1,note_on,71,91,0
1,note_on,75,82,120
1,note_on,75,0,120
1,note_on,71,0,0
1,note_on,72,93,0
1,note_on,81,85,120
1,note_on,72,0,120
1,note_on,73,82,0
1,note_on,85,98,0
1,note_on,78,82,0
1,note_on,78,0,240
1,note_on,81,0,0
1,note_on,73,0,0
1,note_on,85,0,0
1,note_on,72,64,0
1,note_on,72,0,120
1,note_on,73,64,0
1,note_on,73,0,120
1,note_on,75,65,0
1,note_on,75,0,120
1,note_on,77,66,0
1,note_on,77,0,120
1,note_on,78,67,0
1,note_on,78,0,120
1,note_on,80,67,0
1,note_on,80,0,120
1,note_on,81,68,0
1,note_on,81,0,120
1,note_on,83,69,0
1,note_on,83,0,120
1,note_on,85,70,0
1,note_on,85,0,120
1,note_on,87,71,0
1,note_on,87,0,120
1,note_on,89,71,0
1,note_on,89,0,120
1,note_on,90,72,0
1,note_on,90,0,120
1,note_on,92,73,0
1,note_on,92,0,120
1,note_on,93,74,0
1,note_on,93,0,120
1,note_on,90,75,0
1,note_on,90,0,120
1,note_on,85,75,0
1,note_on,85,0,120
1,note_on,81,76,0
1,note_on,81,0,120
1,note_on,78,76,0
1,note_on,78,0,120
1,note_on,73,74,0
1,note_on,73,0,120
1,note_on,69,72,0
1,note_on,69,0,120
1,note_on,66,71,0
1,note_on,66,0,120
1,note_on,61,69,0
1,note_on,61,0,120
1,note_on,57,66,0
1,note_on,57,0,120
1,note_on,66,67,0
1,note_on,66,0,120
1,note_on,63,68,0
1,note_on,63,0,120
1,note_on,69,69,0
1,note_on,69,0,110
1,note_on,69,70,10
1,note_on,69,0,120
1,note_on,78,72,0
1,note_on,78,0,120
1,note_on,75,73,0
1,note_on,75,0,120
1,note_on,81,74,0
1,note_on,81,0,110
1,note_on,81,75,10
1,note_on,81,0,120
1,note_on,90,76,0
1,note_on,90,0,120
1,note_on,87,77,0
1,note_on,87,0,120
1,note_on,93,79,0
1,note_on,93,0,120
1,note_on,90,80,0
1,note_on,90,0,120
1,note_on,93,78,0
1,note_on,93,0,120
1,note_on,87,77,0
1,note_on,87,0,120
1,note_on,81,76,0
1,note_on,81,0,120
1,note_on,78,75,0
1,note_on,78,0,120
1,note_on,81,75,0
1,note_on,81,0,120
1,note_on,75,74,0
1,note_on,75,0,120
1,note_on,69,73,0
1,note_on,69,0,120
1,note_on,66,72,0
1,note_on,66,0,120
1,note_on,69,72,0
1,note_on,69,0,120
1,note_on,63,71,0
1,note_on,63,0,120
1,note_on,57,70,0
1,note_on,57,0,120
1,note_on,70,71,0
1,note_on,58,71,0
1,note_on,67,71,0
1,note_on,63,71,0
1,note_on,63,0,240
1,note_on,70,0,0
1,note_on,58,0,0
1,note_on,67,0,0
1,note_on,57,46,0
1,note_on,58,46,120
1,note_on,57,0,10
1,note_on,60,47,110
1,note_on,58,0,10
1,note_on,62,47,110
1,note_on,60,0,10
1,note_on,63,48,110
1,note_on,62,0,10
1,note_on,64,49,110
1,note_on,63,0,10
1,note_on,67,49,110
1,note_on,64,0,10
1,note_on,65,50,110
1,note_on,67,0,10
1,note_on,67,50,110
1,note_on,65,0,10
1,note_on,65,51,110
1,note_on,67,0,10
1,note_on,72,52,110
1,note_on,65,0,10
1,note_on,70,52,110
1,note_on,72,0,10
1,note_on,69,53,110
1,note_on,70,0,10
1,note_on,70,53,110
1,note_on,69,0,10
1,note_on,72,54,110
1,note_on,70,0,10
1,note_on,74,54,110
1,note_on,72,0,10
1,note_on,75,55,110
1,note_on,74,0,10
1,note_on,76,56,110
1,note_on,75,0,10
1,note_on,79,56,110
1,note_on,76,0,10
1,note_on,77,57,110
1,note_on,79,0,10
1,note_on,79,57,110
1,note_on,77,0,10
1,note_on,77,58,110
1,note_on,79,0,10
1,note_on,84,59,110
1,note_on,77,0,10
1,note_on,82,59,110
1,note_on,84,0,10
1,note_on,81,60,110
1,note_on,82,0,10
1,note_on,82,60,110
1,note_on,81,0,10
1,note_on,84,61,110
1,note_on,82,0,10
1,note_on,86,61,110
1,note_on,84,0,10
1,note_on,87,62,110
1,note_on,86,0,10
1,note_on,88,63,110
1,note_on,87,0,10
1,note_on,91,63,110
1,note_on,88,0,10
1,note_on,89,64,110
1,note_on,91,0,10
1,note_on,91,64,110
1,note_on,89,0,10
1,note_on,89,65,110
1,note_on,91,0,10
1,note_on,94,66,110
1,note_on,89,0,10
1,note_on,94,0,230
1,note_on,81,64,0
1,note_on,82,65,120
1,note_on,81,0,10
1,note_on,84,65,110
1,note_on,82,0,10
1,note_on,86,66,110
1,note_on,84,0,10
1,note_on,87,67,110
1,note_on,86,0,10
1,note_on,88,68,110
1,note_on,87,0,10
1,note_on,91,71,110
1,note_on,88,0,10
1,note_on,89,68,110
1,note_on,91,0,10
1,note_on,91,71,110
1,note_on,89,0,10
1,note_on,89,68,110
1,note_on,91,0,10
1,note_on,94,68,110
1,note_on,89,0,10
1,note_on,94,0,110
1,note_on,89,77,540
1,note_on,89,0,60
1,note_on,101,89,0
1,note_on,101,0,120
1,note_on,100,84,0
1,note_on,100,0,120
1,note_on,99,83,0
1,note_on,99,0,120
1,note_on,98,82,0
1,note_on,98,0,120
1,note_on,96,81,0
1,note_on,96,0,120
1,note_on,94,79,0
1,note_on,94,0,120
1,note_on,93,78,0
1,note_on,93,0,120
1,note_on,91,77,0
1,note_on,91,0,120
1,note_on,89,76,0
1,note_on,89,0,120
1,note_on,88,75,0
1,note_on,88,0,120
1,note_on,87,74,0
1,note_on,87,0,120
1,note_on,86,73,0
1,note_on,86,0,120
1,note_on,84,72,0
1,note_on,84,0,120
1,note_on,82,71,0
1,note_on,82,0,120
1,note_on,81,70,0
1,note_on,81,0,120
1,note_on,79,69,0
1,note_on,79,0,120
1,note_on,77,68,0
1,note_on,77,0,120
1,note_on,76,67,0
1,note_on,76,0,120
1,note_on,75,66,0
1,note_on,75,0,120
1,note_on,73,65,0
1,note_on,73,0,120
1,note_on,71,64,0
1,note_on,71,0,120
1,note_on,70,63,0
1,note_on,70,0,120
1,note_on,68,62,0
1,note_on,68,0,120
1,note_on,66,61,0
1,note_on,66,0,120
1,note_on,65,60,0
1,note_on,65,0,120
1,note_on,63,59,0
1,note_on,63,0,120
1,note_on,61,58,0
1,note_on,61,0,120
1,note_on,59,57,0
1,note_on,59,0,120
1,note_on,58,56,0
1,note_on,58,0,120
1,note_on,56,55,0
1,note_on,56,0,120
1,note_on,54,57,0
1,note_on,54,0,120
1,note_on,53,59,0
1,note_on,53,0,120
1,note_on,51,62,0
1,note_on,51,0,120
1,note_on,49,64,0
1,note_on,49,0,120
1,note_on,47,66,0
1,note_on,47,0,120
1,note_on,46,68,0
1,note_on,46,0,120
1,note_on,44,70,0
1,note_on,44,0,120
1,note_on,42,72,0
1,note_on,42,0,120
1,note_on,41,75,0
1,note_on,41,0,120
1,note_on,39,77,0
1,note_on,39,0,120
1,note_on,37,79,0
1,note_on,37,0,120
1,note_on,35,81,0
1,note_on,35,0,120
1,note_on,67,78,1440
1,note_on,62,66,0
1,note_on,58,66,0
1,note_on,58,0,960
1,note_on,62,0,0
1,note_on,67,0,0
1,note_on,62,61,0
1,note_on,56,61,0
1,note_on,67,73,0
1,note_on,67,0,480
1,note_on,56,0,0
1,note_on,62,0,0
1,note_on,55,65,0
1,note_on,63,76,0
1,note_on,63,0,480
1,note_on,55,0,0
1,note_on,63,66,480
1,note_on,67,66,0
1,note_on,75,78,0
1,note_on,75,0,1440
1,note_on,67,0,0
1,note_on,63,0,0
1,note_on,74,73,0
1,note_on,70,61,0
1,note_on,63,61,0
1,note_on,63,0,480
1,note_on,70,0,0
1,note_on,74,0,0
1,note_on,63,65,0
1,note_on,70,65,0
1,note_on,72,77,0
1,note_on,72,0,1440
1,note_on,70,0,0
1,note_on,63,0,0
1,note_on,65,67,0
1,note_on,74,79,0
1,note_on,69,67,0
1,note_on,69,0,960
1,note_on,74,0,0
1,note_on,65,0,0
1,note_on,63,63,0
1,note_on,69,63,0
1,note_on,74,74,0
1,note_on,74,0,480
1,note_on,69,0,0
1,note_on,63,0,0
1,note_on,62,59,0
1,note_on,70,71,0
1,note_on,70,0,480
1,note_on,62,0,0
1,note_on,70,64,960
1,note_on,82,75,0
1,note_on,82,0,960
1,note_on,70,0,0
1,note_on,71,65,0
1,note_on,83,77,0
1,note_on,83,0,480
1,note_on,71,0,0
1,note_on,72,65,0
1,note_on,84,77,0
1,note_on,84,0,180
1,note_on,72,0,0
1,note_on,85,72,108
1,note_on,82,60,0
1,note_on,82,0,180
1,note_on,85,0,0
1,note_on,76,61,108
1,note_on,84,73,0
1,note_on,84,0,180
1,note_on,76,0,0
1,note_on,82,63,108
1,note_on,83,74,0
1,note_on,83,0,180
1,note_on,82,0,0
1,note_on,76,67,108
1,note_on,84,79,0
1,note_on,84,0,168
1,note_on,76,0,0
1,note_on,80,57,0
1,note_on,84,69,0
1,note_on,84,0,120
1,note_on,80,0,0
1,note_on,80,73,0
1,note_on,92,87,0
1,note_on,92,0,240
1,note_on,80,0,0
1,note_on,84,81,960
1,note_on,75,69,0
1,note_on,75,0,240
1,note_on,84,0,0
1,note_on,74,65,0
1,note_on,82,77,0
1,note_on,82,0,180
1,note_on,74,0,0
1,note_on,80,60,108
1,note_on,84,72,0
1,note_on,84,0,180
1,note_on,80,0,0
1,note_on,82,73,108
1,note_on,74,61,0
1,note_on,74,0,180
1,note_on,82,0,0
1,note_on,81,74,108
1,note_on,80,63,0
1,note_on,80,0,180
1,note_on,81,0,0
1,note_on,82,79,108
1,note_on,74,67,0
1,note_on,74,0,168
1,note_on,82,0,0
1,note_on,82,69,0
1,note_on,79,57,0
1,note_on,79,0,120
1,note_on,82,0,0
1,note_on,79,73,0
1,note_on,91,87,0
1,note_on,91,0,240
1,note_on,79,0,0
1,note_on,74,69,960
1,note_on,82,81,0
1,note_on,82,0,240
1,note_on,74,0,0
1,note_on,72,65,0
1,note_on,80,77,0
1,note_on,80,0,180
1,note_on,72,0,0
1,note_on,75,60,108
1,note_on,82,72,0
1,note_on,82,0,180
1,note_on,75,0,0
1,note_on,72,61,108
1,note_on,80,73,0
1,note_on,80,0,180
1,note_on,72,0,0
1,note_on,75,63,108
1,note_on,79,74,0
1,note_on,79,0,180
1,note_on,75,0,0
1,note_on,80,79,108
1,note_on,72,67,0
1,note_on,72,0,168
1,note_on,80,0,0
1,note_on,77,57,0
1,note_on,80,69,0
1,note_on,80,0,120
1,note_on,77,0,0
1,note_on,89,87,0
1,note_on,77,73,0
1,note_on,77,0,240
1,note_on,89,0,0
1,note_on,80,78,720
1,note_on,77,78,0
1,note_on,77,0,480
1,note_on,80,0,0
1,note_on,79,78,0
1,note_on,77,66,0
1,note_on,77,0,360
1,note_on,79,0,0
1,note_on,82,71,0
1,note_on,82,0,120
1,note_on,77,69,0
1,note_on,80,81,0
1,note_on,80,0,720
1,note_on,77,0,0
1,note_on,79,75,0
1,note_on,77,64,0
1,note_on,77,0,240
1,note_on,79,0,0
1,note_on,75,63,0
1,note_on,79,74,0
1,note_on,79,0,460
1,note_on,75,0,0
1,note_on,75,67,20
1,note_on,80,79,0
1,note_on,80,0,460
1,note_on,75,0,0
1,note_on,81,84,20
1,note_on,75,71,0
1,note_on,75,0,460
1,note_on,81,0,0
1,note_on,68,71,20
1,note_on,70,71,0
1,note_on,77,71,0
1,note_on,82,84,0
1,note_on,82,0,1440
1,note_on,68,0,0
1,note_on,70,0,0
1,note_on,77,0,0
1,note_on,68,66,0
1,note_on,70,66,0
1,note_on,74,66,0
1,note_on,79,66,0
1,note_on,82,78,0
1,note_on,82,0,960
1,note_on,74,0,0
1,note_on,68,0,0
1,note_on,70,0,0
1,note_on,79,0,0
1,note_on,68,61,0
1,note_on,79,61,0
1,note_on,82,73,0
1,note_on,70,61,0
1,note_on,74,61,0
1,note_on,74,0,480
1,note_on,82,0,0
1,note_on,68,0,0
1,note_on,79,0,0
1,note_on,70,0,0
1,note_on,67,65,0
1,note_on,75,76,0
1,note_on,75,0,480
1,note_on,67,0,0
1,note_on,79,72,960
1,note_on,87,86,0
1,note_on,75,72,0
1,note_on,75,0,960
1,note_on,87,0,0
1,note_on,79,0,0
1,note_on,86,80,0
1,note_on,82,67,0
1,note_on,75,67,0
1,note_on,75,0,480
1,note_on,82,0,0
1,note_on,86,0,0
1,note_on,82,71,0
1,note_on,75,71,0
1,note_on,84,85,0
1,note_on,84,0,1440
1,note_on,75,0,0
1,note_on,82,0,0
1,note_on,86,87,0
1,note_on,81,73,0
1,note_on,77,73,0
1,note_on,77,0,960
1,note_on,81,0,0
1,note_on,86,0,0
1,note_on,86,81,0
1,note_on,81,69,0
1,note_on,75,69,0
1,note_on,75,0,480
1,note_on,81,0,0
1,note_on,86,0,0
1,note_on,74,65,0
1,note_on,82,77,0
1,note_on,82,0,480
1,note_on,74,0,0
1,note_on,82,78,960
1,note_on,94,94,0
1,note_on,94,0,960
1,note_on,82,0,0
1,note_on,82,74,240
1,note_on,94,88,0
1,note_on,94,0,230
1,note_on,82,0,0
1,note_on,82,78,10
1,note_on,94,94,0
1,note_on,94,0,960
1,note_on,82,0,0
1,note_on,60,65,480
1,note_on,72,77,0
1,note_on,60,0,480
1,note_on,72,0,480
1,note_on,62,61,0
1,note_on,74,73,0
1,note_on,74,0,480
1,note_on,62,0,0
1,note_on,63,57,0
1,note_on,75,69,0
1,note_on,75,0,90
1,note_on,77,69,0
1,note_on,77,0,90
1,note_on,75,69,0
1,note_on,75,0,180
1,note_on,63,0,0
1,note_on,62,53,0
1,note_on,74,64,0
1,note_on,74,0,360
1,note_on,62,0,0
1,note_on,63,53,0
1,note_on,75,64,0
1,note_on,75,0,360
1,note_on,63,0,0
1,note_on,79,64,0
1,note_on,67,53,0
1,note_on,74,53,0
1,note_on,74,0,360
1,note_on,67,0,0
1,note_on,79,0,0
1,note_on,74,60,0
1,note_on,68,66,0
1,note_on,79,72,0
1,note_on,68,0,480
1,note_on,70,66,0
1,note_on,70,0,480
1,note_on,74,0,0
1,note_on,68,61,0
1,note_on,79,0,160
1,note_on,77,61,0
1,note_on,77,0,160
1,note_on,75,61,0
1,note_on,75,0,140
1,note_on,68,0,20
1,note_on,67,68,0
1,note_on,75,68,0
1,note_on,75,0,1440
1,note_on,67,0,0
1,note_on,67,61,640
1,note_on,67,0,160
1,note_on,68,57,0
1,note_on,68,0,160
1,note_on,70,63,0
1,note_on,70,0,160
1,note_on,74,68,0
1,note_on,74,0,160
1,note_on,72,63,0
1,note_on,72,0,160
1,note_on,70,70,0
1,note_on,70,0,1440
1,note_on,67,57,640
1,note_on,67,0,160
1,note_on,68,60,0
1,note_on,68,0,160
1,note_on,70,65,0
1,note_on,70,0,160
1,note_on,74,68,0
1,note_on,74,0,160
1,note_on,72,61,0
1,note_on,72,0,160
1,note_on,70,70,0
1,note_on,70,0,1440
1,note_on,65,54,640
1,note_on,65,0,160
1,note_on,68,59,0
1,note_on,68,0,160
1,note_on,70,64,0
1,note_on,70,0,160
1,note_on,74,68,0
1,note_on,74,0,160
1,note_on,72,63,0
1,note_on,72,0,160
1,note_on,70,70,0
1,note_on,70,0,480
1,note_on,61,57,160
1,note_on,63,56,160
1,note_on,63,0,160
1,note_on,67,60,0
1,note_on,67,0,160
1,note_on,61,0,0
1,note_on,72,65,0
1,note_on,72,0,160
1,note_on,70,59,0
1,note_on,70,0,160
1,note_on,68,65,0
1,note_on,68,0,720
1,note_on,59,60,0
1,note_on,63,62,240
1,note_on,63,0,240
1,note_on,59,0,0
1,note_on,65,57,0
1,note_on,65,0,240
1,note_on,67,70,0
1,note_on,67,0,480
1,note_on,67,61,1600
1,note_on,67,0,160
1,note_on,68,58,0
1,note_on,68,0,160
1,note_on,70,64,0
1,note_on,70,0,160
1,note_on,74,68,0
1,note_on,74,0,160
1,note_on,72,58,0
1,note_on,72,0,160
1,note_on,70,72,0
1,note_on,70,0,120
1,note_on,82,72,120
1,note_on,82,0,120
1,note_on,94,87,120
1,note_on,94,0,240
1,note_on,67,38,1360
1,note_on,67,0,160
1,note_on,68,42,0
1,note_on,68,0,160
1,note_on,70,46,0
1,note_on,70,0,160
1,note_on,74,50,0
1,note_on,74,0,160
1,note_on,72,45,0
1,note_on,72,0,160
1,note_on,70,56,0
1,note_on,70,0,120
1,note_on,82,56,120
1,note_on,82,0,120
1,note_on,94,67,120
1,note_on,94,0,240
1,note_on,65,39,1360
1,note_on,65,0,160
1,note_on,68,42,0
1,note_on,68,0,160
1,note_on,70,45,0
1,note_on,70,0,160
1,note_on,74,48,0
1,note_on,74,0,160
1,note_on,72,45,0
1,note_on,72,0,160
1,note_on,70,56,0
1,note_on,70,0,640
1,note_on,61,39,0
1,note_on,63,43,160
1,note_on,63,0,160
1,note_on,67,46,0
1,note_on,67,0,160
1,note_on,61,0,0
1,note_on,72,50,0
1,note_on,72,0,160
1,note_on,70,46,0
1,note_on,70,0,160
1,note_on,68,51,0
1,note_on,68,0,720
1,note_on,59,49,0
1,note_on,63,51,240
1,note_on,63,0,240
1,note_on,59,0,0
1,note_on,65,46,0
1,note_on,65,0,240
1,note_on,67,62,0
1,note_on,67,0,1680
1,note_on,67,51,0
1,note_on,67,0,240
1,note_on,70,54,0
1,note_on,70,0,240
1,note_on,79,55,0
1,note_on,79,0,240
1,note_on,77,60,0
1,note_on,77,0,240
1,note_on,75,55,0
1,note_on,75,0,240
1,note_on,70,66,0
1,note_on,70,0,1680
1,note_on,67,51,0
1,note_on,67,0,240
1,note_on,70,54,0
1,note_on,70,0,240
1,note_on,79,55,0
1,note_on,79,0,240
1,note_on,77,60,0
1,note_on,77,0,240
1,note_on,75,55,0
1,note_on,75,0,240
1,note_on,74,66,0
1,note_on,74,0,1680
1,note_on,70,51,0
1,note_on,70,0,240
1,note_on,74,54,0
1,note_on,74,0,240
1,note_on,82,55,0
1,note_on,82,0,240
1,note_on,81,60,0
1,note_on,81,0,240
1,note_on,79,55,0
1,note_on,79,0,240
1,note_on,74,69,0
1,note_on,74,0,1680
1,note_on,70,51,0
1,note_on,70,0,240
1,note_on,74,54,0
1,note_on,74,0,240
1,note_on,82,55,0
1,note_on,82,0,240
1,note_on,81,60,0
1,note_on,81,0,240
1,note_on,79,55,0
1,note_on,79,0,240
1,note_on,74,59,0
1,note_on,74,0,240
1,note_on,70,55,0
1,note_on,70,0,240
1,note_on,74,54,0
1,note_on,74,0,240
1,note_on,82,53,0
1,note_on,82,0,240
1,note_on,81,56,0
1,note_on,81,0,240
1,note_on,79,51,0
1,note_on,79,0,240
1,note_on,74,56,0
1,note_on,74,0,240
1,note_on,70,51,0
1,note_on,70,0,240
1,note_on,74,51,0
1,note_on,74,0,240
1,note_on,82,54,0
1,note_on,82,0,240
1,note_on,81,50,0
1,note_on,81,0,240
1,note_on,79,49,0
1,note_on,79,0,240
1,note_on,74,48,0
1,note_on,74,0,240
1,note_on,81,45,0
1,note_on,81,0,240
1,note_on,84,52,0
1,note_on,84,0,240
1,note_on,82,47,0
1,note_on,82,0,240
1,note_on,79,50,0
1,note_on,79,0,240
1,note_on,75,46,0
1,note_on,75,0,240
1,note_on,70,45,0
1,note_on,70,0,240
1,note_on,67,45,0
1,note_on,67,0,240
1,note_on,60,43,0
1,note_on,60,0,240
1,note_on,62,42,0
1,note_on,62,0,240
1,note_on,65,41,0
1,note_on,65,0,240
1,note_on,63,39,0
1,note_on,63,0,240
1,note_on,60,38,1680
1,note_on,62,37,240
1,note_on,66,37,240
1,note_on,66,0,240
1,note_on,70,41,0
1,note_on,70,0,240
1,note_on,69,39,0
1,note_on,69,0,240
1,note_on,62,0,0
1,note_on,60,0,0
1,note_on,67,37,0
1,note_on,62,28,480
1,note_on,58,23,0
1,note_on,58,0,475
1,note_on,62,0,0
1,note_on,58,23,5
1,note_on,62,28,0
1,note_on,62,0,475
1,note_on,58,0,0
1,note_on,67,0,5
1,note_on,74,41,0
1,note_on,67,28,480
1,note_on,67,0,475
1,note_on,67,28,5
1,note_on,67,0,475
1,note_on,74,0,5
1,note_on,72,39,0
1,note_on,67,28,480
1,note_on,63,23,0
1,note_on,63,0,475
1,note_on,67,0,0
1,note_on,67,28,5
1,note_on,63,23,0
1,note_on,63,0,475
1,note_on,67,0,0
1,note_on,72,0,5
1,note_on,60,40,240
1,note_on,62,37,240
1,note_on,66,37,240
1,note_on,66,0,240
1,note_on,70,41,0
1,note_on,70,0,240
1,note_on,69,39,0
1,note_on,69,0,240
1,note_on,62,0,0
1,note_on,60,0,0
1,note_on,67,37,0
1,note_on,62,28,480
1,note_on,58,23,0
1,note_on,58,0,475
1,note_on,62,0,0
1,note_on,58,23,5
1,note_on,62,28,0
1,note_on,62,0,475
1,note_on,58,0,0
1,note_on,67,0,5
1,note_on,64,37,0
1,note_on,57,23,480
1,note_on,55,23,0
1,note_on,61,28,0
1,note_on,61,0,475
1,note_on,55,0,0
1,note_on,57,0,0
1,note_on,57,23,5
1,note_on,61,28,0
1,note_on,55,23,0
1,note_on,55,0,475
1,note_on,61,0,0
1,note_on,57,0,0
1,note_on,64,0,5
1,note_on,66,37,0
1,note_on,62,23,480
1,note_on,57,19,0
1,note_on,54,19,0
1,note_on,54,0,475
1,note_on,57,0,0
1,note_on,62,0,0
1,note_on,54,19,5
1,note_on,57,19,0
1,note_on,62,23,0
1,note_on,62,0,475
1,note_on,57,0,0
1,note_on,54,0,0
1,note_on,66,0,5
1,note_on,60,40,240
1,note_on,62,37,240
1,note_on,66,37,240
1,note_on,66,0,240
1,note_on,70,41,0
1,note_on,70,0,240
1,note_on,69,39,0
1,note_on,69,0,240
1,note_on,62,0,0
1,note_on,60,0,0
1,note_on,67,37,0
1,note_on,58,23,480
1,note_on,62,28,0
1,note_on,62,0,475
1,note_on,58,0,0
1,note_on,58,23,5
1,note_on,62,28,0
1,note_on,62,0,475
1,note_on,58,0,0
1,note_on,67,0,5
1,note_on,74,58,0
1,note_on,67,29,480
1,note_on,70,36,0
1,note_on,70,0,475
1,note_on,67,0,0
1,note_on,67,29,5
1,note_on,70,36,0
1,note_on,70,0,475
1,note_on,67,0,0
1,note_on,74,0,5
1,note_on,76,59,0
1,note_on,67,29,480
1,note_on,70,36,0
1,note_on,70,0,475
1,note_on,67,0,0
1,note_on,67,29,5
1,note_on,70,36,0
1,note_on,70,0,475
1,note_on,67,0,0
1,note_on,76,0,5
1,note_on,58,40,240
1,note_on,61,37,240
1,note_on,64,37,240
1,note_on,64,0,240
1,note_on,69,41,0
1,note_on,69,0,240
1,note_on,67,39,0
1,note_on,67,0,240
1,note_on,61,0,0
1,note_on,58,0,0
1,note_on,67,37,0
1,note_on,61,27,480
1,note_on,58,27,0
1,note_on,64,33,0
1,note_on,64,0,475
1,note_on,58,0,0
1,note_on,61,0,0
1,note_on,58,27,5
1,note_on,64,33,0
1,note_on,61,27,0
1,note_on,61,0,475
1,note_on,64,0,0
1,note_on,58,0,0
1,note_on,67,0,5
1,note_on,76,62,0
1,note_on,73,39,480
1,note_on,70,32,0
1,note_on,67,32,0
1,note_on,67,0,475
1,note_on,70,0,0
1,note_on,73,0,0
1,note_on,73,41,5
1,note_on,70,32,0
1,note_on,67,32,0
1,note_on,67,0,475
1,note_on,70,0,0
1,note_on,73,0,0
1,note_on,76,0,5
1,note_on,78,64,0
1,note_on,67,35,480
1,note_on,70,35,0
1,note_on,73,41,0
1,note_on,73,0,475
1,note_on,70,0,0
1,note_on,67,0,0
1,note_on,67,35,5
1,note_on,70,35,0
1,note_on,73,43,0
1,note_on,73,0,475
1,note_on,70,0,0
1,note_on,67,0,0
1,note_on,78,0,5
1,note_on,76,63,0
1,note_on,73,44,480
1,note_on,70,36,0
1,note_on,67,36,0
1,note_on,67,0,475
1,note_on,70,0,0
1,note_on,73,0,0
1,note_on,76,0,5
1,note_on,78,67,240
1,note_on,78,0,220
1,note_on,78,67,20
1,note_on,73,47,480
1,note_on,67,37,0
1,note_on,70,37,0
1,note_on,70,0,475
1,note_on,67,0,0
1,note_on,73,0,0
1,note_on,70,37,5
1,note_on,67,37,0
1,note_on,73,47,0
1,note_on,73,0,475
1,note_on,67,0,0
1,note_on,70,0,0
1,note_on,78,0,5
1,note_on,76,73,0
1,note_on,67,40,480
1,note_on,70,40,0
1,note_on,73,50,0
1,note_on,73,0,480
1,note_on,76,0,0
1,note_on,67,0,0
1,note_on,70,0,0
1,note_on,78,73,240
1,note_on,78,0,220
1,note_on,78,73,20
1,note_on,73,52,480
1,note_on,70,41,0
1,note_on,67,41,0
1,note_on,67,0,475
1,note_on,70,0,0
1,note_on,73,0,0
1,note_on,70,43,5
1,note_on,67,43,0
1,note_on,73,52,0
1,note_on,73,0,475
1,note_on,67,0,0
1,note_on,70,0,0
1,note_on,78,0,5
1,note_on,76,75,0
1,note_on,67,47,480
1,note_on,70,47,0
1,note_on,73,59,0
1,note_on,73,0,480
1,note_on,76,0,0
1,note_on,67,0,0
1,note_on,70,0,0
1,note_on,78,77,240
1,note_on,78,0,240
1,note_on,81,80,0
1,note_on,73,58,480
1,note_on,70,58,0
1,note_on,76,72,0
1,note_on,76,0,475
1,note_on,70,0,0
1,note_on,73,0,0
1,note_on,76,73,5
1,note_on,73,58,0
1,note_on,70,58,0
1,note_on,70,0,475
1,note_on,73,0,0
1,note_on,76,0,0
1,note_on,81,0,5
1,note_on,79,85,0
1,note_on,70,62,480
1,note_on,76,79,0
1,note_on,73,62,0
1,note_on,73,0,480
1,note_on,79,0,0
1,note_on,70,0,0
1,note_on,76,0,0
1,note_on,81,93,0
1,note_on,81,0,480
1,note_on,74,86,0
1,note_on,70,86,0
1,note_on,82,101,0
1,note_on,82,0,480
1,note_on,70,0,0
1,note_on,74,0,0
1,note_on,86,80,240
1,note_on,94,95,0
1,note_on,94,0,220
1,note_on,86,0,0
1,note_on,96,101,20
1,note_on,87,86,0
1,note_on,87,0,220
1,note_on,96,0,0
1,note_on,86,80,20
1,note_on,94,95,0
1,note_on,94,0,220
1,note_on,86,0,0
1,note_on,93,97,20
1,note_on,84,82,0
1,note_on,84,0,220
1,note_on,93,0,0
1,note_on,82,80,20
1,note_on,91,95,0
1,note_on,91,0,220
1,note_on,82,0,0
1,note_on,81,80,20
1,note_on,90,94,0
1,note_on,90,0,220
1,note_on,81,0,0
1,note_on,82,79,20
1,note_on,91,93,0
1,note_on,91,0,220
1,note_on,82,0,0
1,note_on,89,93,20
1,note_on,81,79,0
1,note_on,81,0,220
1,note_on,89,0,0
1,note_on,87,92,140
1,note_on,79,78,0
1,note_on,79,0,90
1,note_on,87,0,0
1,note_on,87,91,30
1,note_on,79,77,0
1,note_on,79,0,220
1,note_on,87,0,0
1,note_on,86,90,20
1,note_on,78,75,0
1,note_on,78,0,220
1,note_on,86,0,0
1,note_on,84,89,20
1,note_on,75,74,0
1,note_on,75,0,220
1,note_on,84,0,0
1,note_on,74,73,20
1,note_on,82,86,0
1,note_on,82,0,220
1,note_on,74,0,0
1,note_on,81,85,20
1,note_on,72,72,0
1,note_on,72,0,220
1,note_on,81,0,0
1,note_on,79,83,20
1,note_on,70,70,0
1,note_on,70,0,220
1,note_on,79,0,0
1,note_on,69,72,20
1,note_on,78,85,0
1,note_on,78,0,140
1,note_on,69,0,0
1,note_on,75,85,20
1,note_on,72,72,0
1,note_on,72,0,140
1,note_on,75,0,0
1,note_on,74,86,20
1,note_on,72,73,0
1,note_on,72,0,140
1,note_on,74,0,0
1,note_on,74,88,20
1,note_on,71,74,0
1,note_on,71,0,90
1,note_on,74,0,0
1,note_on,74,88,6
1,note_on,70,74,0
1,note_on,70,0,90
1,note_on,74,0,0
1,note_on,74,88,6
1,note_on,69,74,0
1,note_on,69,0,90
1,note_on,74,0,0
1,note_on,74,89,6
1,note_on,68,74,0
1,note_on,68,0,90
1,note_on,74,0,0
1,note_on,69,74,6
1,note_on,74,89,0
1,note_on,74,0,90
1,note_on,69,0,0
1,note_on,70,75,6
1,note_on,74,90,0
1,note_on,74,0,100
1,note_on,70,0,0
1,note_on,69,75,20
1,note_on,74,90,0
1,note_on,74,0,100
1,note_on,69,0,0
1,note_on,72,77,20
1,note_on,74,91,0
1,note_on,74,0,100
1,note_on,72,0,0
1,note_on,74,91,20
1,note_on,70,77,0
1,note_on,70,0,100
1,note_on,74,0,0
1,note_on,67,85,20
1,note_on,74,91,0
1,note_on,74,0,100
1,note_on,67,0,0
1,note_on,86,73,140
1,note_on,91,73,0
1,note_on,94,87,0
1,note_on,94,0,100
1,note_on,91,0,0
1,note_on,86,0,0
1,note_on,81,76,20
1,note_on,81,0,100
1,note_on,86,67,140
1,note_on,91,79,0
1,note_on,82,67,0
1,note_on,82,0,100
1,note_on,91,0,0
1,note_on,86,0,0
1,note_on,91,87,20
1,note_on,86,73,0
1,note_on,82,73,0
1,note_on,82,0,100
1,note_on,86,0,0
1,note_on,91,0,0
1,note_on,78,75,20
1,note_on,78,0,100
1,note_on,79,67,140
1,note_on,82,67,0
1,note_on,86,79,0
1,note_on,86,0,100
1,note_on,82,0,0
1,note_on,79,0,0
1,note_on,82,73,20
1,note_on,79,73,0
1,note_on,86,87,0
1,note_on,86,0,100
1,note_on,79,0,0
1,note_on,82,0,0
1,note_on,73,78,20
1,note_on,73,0,100
1,note_on,82,78,140
1,note_on,79,66,0
1,note_on,74,66,0
1,note_on,74,0,100
1,note_on,79,0,0
1,note_on,82,0,0
1,note_on,74,73,20
1,note_on,79,73,0
1,note_on,82,87,0
1,note_on,82,0,100
1,note_on,79,0,0
1,note_on,74,0,0
1,note_on,70,75,20
1,note_on,70,0,100
1,note_on,84,78,140
1,note_on,79,66,0
1,note_on,75,66,0
1,note_on,75,0,100
1,note_on,79,0,0
1,note_on,84,0,0
1,note_on,84,87,20
1,note_on,79,73,0
1,note_on,75,73,0
1,note_on,75,0,100
1,note_on,79,0,0
1,note_on,84,0,0
1,note_on,74,75,20
1,note_on,74,0,100
1,note_on,73,75,20
1,note_on,73,0,100
1,note_on,72,75,20
1,note_on,72,0,100
1,note_on,79,73,20
1,note_on,84,87,0
1,note_on,75,73,0
1,note_on,75,0,100
1,note_on,84,0,0
1,note_on,79,0,0
1,note_on,74,74,20
1,note_on,74,0,100
1,note_on,73,76,20
1,note_on,73,0,100
1,note_on,72,76,20
1,note_on,72,0,100
1,note_on,75,73,20
1,note_on,78,73,0
1,note_on,84,87,0
1,note_on,84,0,100
1,note_on,78,0,0
1,note_on,75,0,0
1,note_on,74,76,20
1,note_on,74,0,100
1,note_on,73,76,20
1,note_on,73,0,100
1,note_on,72,76,20
1,note_on,72,0,100
1,note_on,74,73,20
1,note_on,78,73,0
1,note_on,81,87,0
1,note_on,81,0,100
1,note_on,78,0,0
1,note_on,74,0,0
1,note_on,72,76,20
1,note_on,72,0,100
1,note_on,79,73,20
1,note_on,82,87,0
1,note_on,70,73,0
1,note_on,74,73,0
1,note_on,74,0,240
1,note_on,79,0,0
1,note_on,82,0,0
1,note_on,70,0,0
1,note_on,86,73,0
1,note_on,94,87,0
1,note_on,91,73,0
1,note_on,91,0,100
1,note_on,94,0,0
1,note_on,86,0,0
1,note_on,81,76,20
1,note_on,81,0,100
1,note_on,82,67,140
1,note_on,91,79,0
1,note_on,86,67,0
1,note_on,86,0,100
1,note_on,91,0,0
1,note_on,82,0,0
1,note_on,91,87,20
1,note_on,82,73,0
1,note_on,86,73,0
1,note_on,86,0,100
1,note_on,82,0,0
1,note_on,91,0,0
1,note_on,78,75,20
1,note_on,78,0,100
1,note_on,79,67,140
1,note_on,82,67,0
1,note_on,86,79,0
1,note_on,86,0,100
1,note_on,82,0,0
1,note_on,79,0,0
1,note_on,79,73,20
1,note_on,82,73,0
1,note_on,86,87,0
1,note_on,86,0,100
1,note_on,82,0,0
1,note_on,79,0,0
1,note_on,73,78,20
1,note_on,73,0,100
1,note_on,82,78,140
1,note_on,79,66,0
1,note_on,74,66,0
1,note_on,74,0,100
1,note_on,79,0,0
1,note_on,82,0,0
1,note_on,74,73,20
1,note_on,79,73,0
1,note_on,82,87,0
1,note_on,82,0,100
1,note_on,79,0,0
1,note_on,74,0,0
1,note_on,70,75,20
1,note_on,70,0,100
1,note_on,79,66,140
1,note_on,75,66,0
1,note_on,84,78,0
1,note_on,84,0,100
1,note_on,75,0,0
1,note_on,79,0,0
1,note_on,84,87,20
1,note_on,79,73,0
1,note_on,75,73,0
1,note_on,75,0,100
1,note_on,79,0,0
1,note_on,84,0,0
1,note_on,74,75,20
1,note_on,74,0,100
1,note_on,73,75,20
1,note_on,73,0,100
1,note_on,72,75,20
1,note_on,72,0,100
1,note_on,75,73,20
1,note_on,79,73,0
1,note_on,84,87,0
1,note_on,84,0,100
1,note_on,79,0,0
1,note_on,75,0,0
1,note_on,74,74,20
1,note_on,74,0,100
1,note_on,73,76,20
1,note_on,73,0,100
1,note_on,72,76,20
1,note_on,72,0,100
1,note_on,84,87,20
1,note_on,78,73,0
1,note_on,75,73,0
1,note_on,75,0,100
1,note_on,78,0,0
1,note_on,84,0,0
1,note_on,74,76,20
1,note_on,74,0,100
1,note_on,73,76,20
1,note_on,73,0,100
1,note_on,72,76,20
1,note_on,72,0,100
1,note_on,81,87,20
1,note_on,78,73,0
1,note_on,74,73,0
1,note_on,74,0,100
1,note_on,78,0,0
1,note_on,81,0,0
1,note_on,72,76,20
1,note_on,72,0,100
1,note_on,74,73,20
1,note_on,70,73,0
1,note_on,79,73,0
1,note_on,82,87,0
1,note_on,82,0,240
1,note_on,74,0,0
1,note_on,70,0,0
1,note_on,79,0,0
1,note_on,80,70,0
1,note_on,80,0,120
1,note_on,92,72,0
1,note_on,87,60,0
1,note_on,87,0,120
1,note_on,92,0,0
1,note_on,80,72,0
1,note_on,80,0,120
1,note_on,75,63,0
1,note_on,80,75,0
1,note_on,80,0,120
1,note_on,75,0,0
1,note_on,67,77,0
1,note_on,79,77,120
1,note_on,75,65,0
1,note_on,75,0,120
1,note_on,79,0,0
1,note_on,67,0,0
1,note_on,66,87,0
1,note_on,69,65,120
1,note_on,78,77,0
1,note_on,78,0,120
1,note_on,69,0,0
1,note_on,66,0,0
1,note_on,78,77,0
1,note_on,78,0,120
1,note_on,90,77,0
1,note_on,81,65,0
1,note_on,81,0,120
1,note_on,90,0,0
1,note_on,79,87,0
1,note_on,91,75,120
1,note_on,82,64,0
1,note_on,82,0,120
1,note_on,91,0,0
1,note_on,79,0,0
1,note_on,79,75,0
1,note_on,79,0,120
1,note_on,70,64,0
1,note_on,79,75,0
1,note_on,79,0,120
1,note_on,70,0,0
1,note_on,68,77,0
1,note_on,80,72,120
1,note_on,75,60,0
1,note_on,75,0,120
1,note_on,80,0,0
1,note_on,68,0,0
1,note_on,80,74,0
1,note_on,87,65,120
1,note_on,92,76,0
1,note_on,92,0,120
1,note_on,87,0,0
1,note_on,80,0,0
1,note_on,80,76,0
1,note_on,80,0,120
1,note_on,80,78,0
1,note_on,75,65,0
1,note_on,75,0,120
1,note_on,80,0,0
1,note_on,67,77,0
1,note_on,79,77,120
1,note_on,75,65,0
1,note_on,75,0,120
1,note_on,79,0,0
1,note_on,67,0,0
1,note_on,66,87,0
1,note_on,78,77,120
1,note_on,69,65,0
1,note_on,69,0,120
1,note_on,78,0,0
1,note_on,66,0,0
1,note_on,78,77,0
1,note_on,78,0,120
1,note_on,81,65,0
1,note_on,90,77,0
1,note_on,90,0,120
1,note_on,81,0,0
1,note_on,79,87,0
1,note_on,91,75,120
1,note_on,82,64,0
1,note_on,82,0,120
1,note_on,91,0,0
1,note_on,79,0,0
1,note_on,79,75,0
1,note_on,79,0,120
1,note_on,70,64,0
1,note_on,79,75,0
1,note_on,79,0,120
1,note_on,70,0,0
1,note_on,65,77,0
1,note_on,77,71,120
1,note_on,68,59,0
1,note_on,68,0,120
1,note_on,77,0,0
1,note_on,65,0,0
1,note_on,77,70,0
1,note_on,77,0,120
1,note_on,80,59,0
1,note_on,89,71,0
1,note_on,89,0,120
1,note_on,80,0,0
1,note_on,77,68,0
1,note_on,77,0,120
1,note_on,68,66,0
1,note_on,75,77,0
1,note_on,75,0,120
1,note_on,68,0,0
1,note_on,63,69,0
1,note_on,68,57,120
1,note_on,75,69,0
1,note_on,75,0,120
1,note_on,68,0,0
1,note_on,63,0,0
1,note_on,62,77,0
1,note_on,68,57,120
1,note_on,74,69,0
1,note_on,74,0,120
1,note_on,68,0,0
1,note_on,62,0,0
1,note_on,74,69,0
1,note_on,74,0,120
1,note_on,86,69,0
1,note_on,80,57,0
1,note_on,80,0,120
1,note_on,86,0,0
1,note_on,74,77,0
1,note_on,74,0,120
1,note_on,72,67,0
1,note_on,68,56,0
1,note_on,68,0,120
1,note_on,72,0,0
1,note_on,60,67,0
1,note_on,60,0,120
1,note_on,68,56,0
1,note_on,72,67,0
1,note_on,72,0,120
1,note_on,68,0,0
1,note_on,60,77,0
1,note_on,72,69,120
1,note_on,63,57,0
1,note_on,63,0,120
1,note_on,72,0,0
1,note_on,60,0,0
1,note_on,72,69,0
1,note_on,84,69,120
1,note_on,75,57,0
1,note_on,75,0,120
1,note_on,84,0,0
1,note_on,72,0,0
1,note_on,72,77,0
1,note_on,75,56,120
1,note_on,84,67,0
1,note_on,84,0,120
1,note_on,75,0,0
1,note_on,72,0,0
1,note_on,70,67,0
1,note_on,74,56,120
1,note_on,82,67,0
1,note_on,82,0,120
1,note_on,74,0,0
1,note_on,70,0,0
1,note_on,70,77,0
1,note_on,82,69,120
1,note_on,74,57,0
1,note_on,74,0,120
1,note_on,82,0,0
1,note_on,70,0,0
1,note_on,69,69,0
1,note_on,72,57,120
1,note_on,81,69,0
1,note_on,81,0,120
1,note_on,72,0,0
1,note_on,69,0,0
1,note_on,67,77,0
1,note_on,79,67,120
1,note_on,70,56,0
1,note_on,70,0,120
1,note_on,79,0,0
1,note_on,67,0,0
1,note_on,66,67,0
1,note_on,69,56,120
1,note_on,78,67,0
1,note_on,78,0,120
1,note_on,69,0,0
1,note_on,66,0,0
1,note_on,79,87,0
1,note_on,67,73,0
1,note_on,70,73,0
1,note_on,70,0,120
1,note_on,67,0,0
1,note_on,79,0,0
1,note_on,80,70,120
1,note_on,92,72,120
1,note_on,87,60,0
1,note_on,87,0,120
1,note_on,92,0,0
1,note_on,80,0,0
1,note_on,80,72,0
1,note_on,80,0,120
1,note_on,75,63,0
1,note_on,80,75,0
1,note_on,80,0,120
1,note_on,75,0,0
1,note_on,67,77,0
1,note_on,75,65,120
1,note_on,79,77,0
1,note_on,79,0,120
1,note_on,75,0,0
1,note_on,67,0,0
1,note_on,66,87,0
1,note_on,78,77,120
1,note_on,69,65,0
1,note_on,69,0,120
1,note_on,78,0,0
1,note_on,66,0,0
1,note_on,78,77,0
1,note_on,78,0,120
1,note_on,90,77,0
1,note_on,81,65,0
1,note_on,81,0,120
1,note_on,90,0,0
1,note_on,79,87,0
1,note_on,82,64,120
1,note_on,91,75,0
1,note_on,91,0,120
1,note_on,82,0,0
1,note_on,79,0,0
1,note_on,79,75,0
1,note_on,79,0,120
1,note_on,70,64,0
1,note_on,79,75,0
1,note_on,79,0,120
1,note_on,70,0,0
1,note_on,68,77,0
1,note_on,75,60,120
1,note_on,80,72,0
1,note_on,80,0,120
1,note_on,75,0,0
1,note_on,68,0,0
1,note_on,80,74,0
1,note_on,92,76,120
1,note_on,87,65,0
1,note_on,87,0,120
1,note_on,92,0,0
1,note_on,80,0,0
1,note_on,80,76,0
1,note_on,80,0,120
1,note_on,75,65,0
1,note_on,80,78,0
1,note_on,80,0,120
1,note_on,75,0,0
1,note_on,67,77,0
1,note_on,79,77,120
1,note_on,72,65,0
1,note_on,72,0,120
1,note_on,79,0,0
1,note_on,67,0,0
1,note_on,66,87,0
1,note_on,69,65,120
1,note_on,78,77,0
1,note_on,78,0,120
1,note_on,69,0,0
1,note_on,66,0,0
1,note_on,78,77,0
1,note_on,78,0,120
1,note_on,81,65,0
1,note_on,90,77,0
1,note_on,90,0,120
1,note_on,81,0,0
1,note_on,79,87,0
1,note_on,91,75,120
1,note_on,82,64,0
1,note_on,82,0,120
1,note_on,91,0,0
1,note_on,79,0,0
1,note_on,79,75,0
1,note_on,79,0,120
1,note_on,70,64,0
1,note_on,79,75,0
1,note_on,79,0,120
1,note_on,70,0,0
1,note_on,65,77,0
1,note_on,68,59,120
1,note_on,77,71,0
1,note_on,77,0,120
1,note_on,68,0,0
1,note_on,65,0,0
1,note_on,77,70,0
1,note_on,77,0,120
1,note_on,80,59,0
1,note_on,89,71,0
1,note_on,89,0,120
1,note_on,80,0,0
1,note_on,77,68,0
1,note_on,77,0,120
1,note_on,67,66,0
1,note_on,75,77,0
1,note_on,75,0,120
1,note_on,67,0,0
1,note_on,63,69,0
1,note_on,67,57,120
1,note_on,75,69,0
1,note_on,75,0,120
1,note_on,67,0,0
1,note_on,63,0,0
1,note_on,62,77,0
1,note_on,66,59,120
1,note_on,74,71,0
1,note_on,74,0,120
1,note_on,66,0,0
1,note_on,62,0,0
1,note_on,74,70,0
1,note_on,74,0,120
1,note_on,78,59,0
1,note_on,86,71,0
1,note_on,86,0,120
1,note_on,78,0,0
1,note_on,74,68,0
1,note_on,74,0,120
1,note_on,73,77,0
1,note_on,64,66,0
1,note_on,64,0,120
1,note_on,73,0,0
1,note_on,61,69,0
1,note_on,73,69,120
1,note_on,64,57,0
1,note_on,64,0,120
1,note_on,73,0,0
1,note_on,61,0,0
1,note_on,60,77,0
1,note_on,63,59,120
1,note_on,72,71,0
1,note_on,72,0,120
1,note_on,63,0,0
1,note_on,60,0,0
1,note_on,72,70,0
1,note_on,75,59,120
1,note_on,84,71,0
1,note_on,84,0,120
1,note_on,75,0,0
1,note_on,72,0,0
1,note_on,71,68,0
1,note_on,83,73,120
1,note_on,75,64,0
1,note_on,75,0,120
1,note_on,83,0,0
1,note_on,71,0,0
1,note_on,72,70,0
1,note_on,84,70,120
1,note_on,75,58,0
1,note_on,75,0,120
1,note_on,84,0,0
1,note_on,72,0,0
1,note_on,72,79,0
1,note_on,84,73,120
1,note_on,75,61,0
1,note_on,75,0,120
1,note_on,84,0,0
1,note_on,72,0,0
1,note_on,75,72,0
1,note_on,78,61,120
1,note_on,87,74,0
1,note_on,87,0,120
1,note_on,78,0,0
1,note_on,75,0,0
1,note_on,74,71,0
1,note_on,78,69,120
1,note_on,86,81,0
1,note_on,86,0,120
1,note_on,78,0,0
1,note_on,74,0,0
1,note_on,75,72,0
1,note_on,78,60,120
1,note_on,87,73,0
1,note_on,87,0,120
1,note_on,78,0,0
1,note_on,75,0,0
1,note_on,75,82,0
1,note_on,78,63,120
1,note_on,87,75,0
1,note_on,87,0,120
1,note_on,78,0,0
1,note_on,75,0,0
1,note_on,78,75,0
1,note_on,82,64,120
1,note_on,90,76,0
1,note_on,90,0,120
1,note_on,82,0,0
1,note_on,78,0,0
1,note_on,77,73,0
1,note_on,89,84,120
1,note_on,80,71,0
1,note_on,80,0,120
1,note_on,89,0,0
1,note_on,77,0,0
1,note_on,78,75,0
1,note_on,90,75,120
1,note_on,81,63,0
1,note_on,81,0,120
1,note_on,90,0,0
1,note_on,78,0,0
1,note_on,78,86,0
1,note_on,81,66,120
1,note_on,90,78,0
1,note_on,90,0,120
1,note_on,81,0,0
1,note_on,78,0,0
1,note_on,81,78,0
1,note_on,93,79,120
1,note_on,84,66,0
1,note_on,84,0,120
1,note_on,93,0,0
1,note_on,81,0,0
1,note_on,82,76,0
1,note_on,94,87,120
1,note_on,86,74,0
1,note_on,86,0,120
1,note_on,94,0,0
1,note_on,82,0,0
1,note_on,84,78,0
1,note_on,96,78,120
1,note_on,87,65,0
1,note_on,87,0,120
1,note_on,96,0,0
1,note_on,84,0,0
1,note_on,84,89,0
1,note_on,87,68,120
1,note_on,96,81,0
1,note_on,96,0,120
1,note_on,87,0,0
1,note_on,84,0,0
1,note_on,82,80,0
1,note_on,86,68,120
1,note_on,94,81,0
1,note_on,94,0,120
1,note_on,86,0,0
1,note_on,82,0,0
1,note_on,82,77,0
1,note_on,86,75,120
1,note_on,94,89,0
1,note_on,94,0,120
1,note_on,86,0,0
1,note_on,82,0,0
1,note_on,81,78,0
1,note_on,93,78,120
1,note_on,84,66,0
1,note_on,84,0,120
1,note_on,93,0,0
1,note_on,81,0,0
1,note_on,81,89,0
1,note_on,93,81,120
1,note_on,84,68,0
1,note_on,84,0,120
1,note_on,93,0,0
1,note_on,81,0,0
1,note_on,79,80,0
1,note_on,82,68,120
1,note_on,91,81,0
1,note_on,91,0,120
1,note_on,82,0,0
1,note_on,79,0,0
1,note_on,79,77,0
1,note_on,82,75,120
1,note_on,91,89,0
1,note_on,91,0,120
1,note_on,82,0,0
1,note_on,79,0,0
1,note_on,74,78,0
1,note_on,78,66,120
1,note_on,86,78,0
1,note_on,86,0,120
1,note_on,78,0,0
1,note_on,74,0,0
1,note_on,82,77,120
1,note_on,82,0,120
1,note_on,86,71,0
1,note_on,94,84,0
1,note_on,94,0,120
1,note_on,86,0,0
1,note_on,82,80,0
1,note_on,82,0,120
1,note_on,94,82,0
1,note_on,85,70,0
1,note_on,85,0,120
1,note_on,94,0,0
1,note_on,82,79,0
1,note_on,82,0,120
1,note_on,93,85,0
1,note_on,84,72,0
1,note_on,84,0,120
1,note_on,93,0,0
1,note_on,81,81,0
1,note_on,81,0,120
1,note_on,93,88,0
1,note_on,84,74,0
1,note_on,84,0,120
1,note_on,93,0,0
1,note_on,81,79,0
1,note_on,81,0,120
1,note_on,82,74,0
1,note_on,91,87,0
1,note_on,91,0,120
1,note_on,82,0,0
1,note_on,79,80,0
1,note_on,79,0,120
1,note_on,82,75,0
1,note_on,91,89,0
1,note_on,91,0,120
1,note_on,82,0,0
1,note_on,79,79,0
1,note_on,79,0,120
1,note_on,86,89,0
1,note_on,78,75,0
1,note_on,78,0,120
1,note_on,86,0,0
1,note_on,74,81,0
1,note_on,74,0,120
1,note_on,86,87,120
1,note_on,86,0,120
1,note_on,91,80,0
1,note_on,94,80,0
1,note_on,98,95,0
1,note_on,98,0,120
1,note_on,94,0,0
1,note_on,91,0,0
1,note_on,86,86,0
1,note_on,86,0,120
1,note_on,86,88,240
1,note_on,82,74,0
1,note_on,79,74,0
1,note_on,79,0,120
1,note_on,82,0,0
1,note_on,86,0,0
1,note_on,74,78,0
1,note_on,74,0,120
1,note_on,67,70,240
1,note_on,70,70,0
1,note_on,74,82,0
1,note_on,74,0,120
1,note_on,70,0,0
1,note_on,67,0,0
1,note_on,62,76,0
1,note_on,62,0,120
1,note_on,58,70,240
1,note_on,62,82,0
1,note_on,55,70,0
1,note_on,55,0,120
1,note_on,62,0,0
1,note_on,58,0,0
1,note_on,50,64,0
1,note_on,50,0,120
1,note_on,64,90,240
1,note_on,58,75,0
1,note_on,55,75,0
1,note_on,55,0,120
1,note_on,58,0,0
1,note_on,64,0,0
1,note_on,50,77,0
1,note_on,50,0,120
1,note_on,55,75,240
1,note_on,58,75,0
1,note_on,64,90,0
1,note_on,64,0,120
1,note_on,58,0,0
1,note_on,55,0,0
1,note_on,50,81,0
1,note_on,50,0,120
1,note_on,58,75,240
1,note_on,55,75,0
1,note_on,64,90,0
1,note_on,64,0,120
1,note_on,55,0,0
1,note_on,58,0,0
1,note_on,50,77,0
1,note_on,50,0,120
1,note_on,58,75,240
1,note_on,55,75,0
1,note_on,64,90,0
1,note_on,64,0,120
1,note_on,55,0,0
1,note_on,58,0,0
1,note_on,50,81,0
1,note_on,50,0,120
1,note_on,55,54,480
1,note_on,55,0,80
1,note_on,56,54,0
1,note_on,56,0,80
1,note_on,57,55,0
1,note_on,57,0,80
1,note_on,58,55,0
1,note_on,58,0,80
1,note_on,59,56,0
1,note_on,59,0,80
1,note_on,60,56,0
1,note_on,60,0,80
1,note_on,61,56,0
1,note_on,61,0,80
1,note_on,62,57,0
1,note_on,62,0,80
1,note_on,63,57,0
1,note_on,63,0,80
1,note_on,64,58,0
1,note_on,64,0,80
1,note_on,65,58,0
1,note_on,65,0,80
1,note_on,66,58,0
1,note_on,66,0,80
1,note_on,67,59,0
1,note_on,67,0,80
1,note_on,68,59,0
1,note_on,68,0,80
1,note_on,69,60,0
1,note_on,69,0,80
1,note_on,70,60,0
1,note_on,70,0,80
1,note_on,71,60,0
1,note_on,71,0,80
1,note_on,72,61,0
1,note_on,72,0,80
1,note_on,73,61,0
1,note_on,73,0,80
1,note_on,74,63,0
1,note_on,74,0,80
1,note_on,75,63,0
1,note_on,75,0,80
1,note_on,76,64,0
1,note_on,76,0,80
1,note_on,77,64,0
1,note_on,77,0,80
1,note_on,78,64,0
1,note_on,78,0,80
1,note_on,79,65,0
1,note_on,79,0,80
1,note_on,80,65,0
1,note_on,80,0,80
1,note_on,81,66,0
1,note_on,81,0,80
1,note_on,82,66,0
1,note_on,82,0,80
1,note_on,83,66,0
1,note_on,83,0,80
1,note_on,84,67,0
1,note_on,84,0,80
1,note_on,85,67,0
1,note_on,85,0,80
1,note_on,86,68,0
1,note_on,86,0,80
1,note_on,87,68,0
1,note_on,87,0,80
1,note_on,88,68,0
1,note_on,88,0,80
1,note_on,89,69,0
1,note_on,89,0,80
1,note_on,90,69,0
1,note_on,90,0,80
1,note_on,91,70,0
1,note_on,91,0,80
1,note_on,92,70,0
1,note_on,92,0,80
1,note_on,93,70,0
1,note_on,93,0,80
1,note_on,94,71,0
1,note_on,94,0,80
1,note_on,95,71,0
1,note_on,95,0,80
1,note_on,97,72,0
1,note_on,97,0,80
1,note_on,99,88,0
1,note_on,99,0,120
1,note_on,98,80,0
1,note_on,98,0,120
1,note_on,101,80,0
1,note_on,101,0,120
1,note_on,99,81,0
1,note_on,99,0,120
1,note_on,98,79,0
1,note_on,98,0,120
1,note_on,96,79,0
1,note_on,96,0,120
1,note_on,95,79,0
1,note_on,95,0,120
1,note_on,98,79,0
1,note_on,98,0,120
1,note_on,96,79,0
1,note_on,96,0,120
1,note_on,94,79,0
1,note_on,94,0,120
1,note_on,93,79,0
1,note_on,93,0,120
1,note_on,91,79,0
1,note_on,91,0,120
1,note_on,90,79,0
1,note_on,90,0,120
1,note_on,93,79,0
1,note_on,93,0,120
1,note_on,91,79,0
1,note_on,91,0,120
1,note_on,90,84,0
1,note_on,90,0,120
1,note_on,87,80,0
1,note_on,87,0,120
1,note_on,86,80,0
1,note_on,86,0,120
1,note_on,87,80,0
1,note_on,87,0,120
1,note_on,86,79,0
1,note_on,86,0,120
1,note_on,89,79,0
1,note_on,89,0,120
1,note_on,87,79,0
1,note_on,87,0,120
1,note_on,86,78,0
1,note_on,86,0,120
1,note_on,84,77,0
1,note_on,84,0,120
1,note_on,83,77,0
1,note_on,83,0,120
1,note_on,86,76,0
1,note_on,86,0,120
1,note_on,84,76,0
1,note_on,84,0,120
1,note_on,82,75,0
1,note_on,82,0,120
1,note_on,81,75,0
1,note_on,81,0,120
1,note_on,79,75,0
1,note_on,79,0,120
1,note_on,78,75,0
1,note_on,78,0,120
1,note_on,81,75,0
1,note_on,81,0,120
1,note_on,79,75,0
1,note_on,79,0,120
1,note_on,78,75,0
1,note_on,78,0,120
1,note_on,75,75,0
1,note_on,75,0,120
1,note_on,74,75,0
1,note_on,74,0,120
1,note_on,75,74,0
1,note_on,75,0,120
1,note_on,74,74,0
1,note_on,74,0,120
1,note_on,77,74,0
1,note_on,77,0,120
1,note_on,75,74,0
1,note_on,75,0,120
1,note_on,74,74,0
1,note_on,74,0,120
1,note_on,72,74,0
1,note_on,72,0,120
1,note_on,71,74,0
1,note_on,71,0,120
1,note_on,74,73,0
1,note_on,74,0,120
1,note_on,72,73,0
1,note_on,72,0,120
1,note_on,70,73,0
1,note_on,70,0,120
1,note_on,69,73,0
1,note_on,69,0,120
1,note_on,67,73,0
1,note_on,67,0,120
1,note_on,66,74,0
1,note_on,66,0,120
1,note_on,63,75,0
1,note_on,63,0,120
1,note_on,62,76,0
1,note_on,62,0,120
1,note_on,60,76,0
1,note_on,60,0,120
1,note_on,58,76,0
1,note_on,58,0,120
1,note_on,57,79,0
1,note_on,57,0,120
1,note_on,55,81,0
1,note_on,55,0,120
1,note_on,54,83,0
1,note_on,54,0,120
1,note_on,51,84,0
1,note_on,51,0,120
1,note_on,50,84,0
1,note_on,50,0,120
1,note_on,48,85,0
1,note_on,48,0,120
1,note_on,46,86,0
1,note_on,46,0,120
1,note_on,45,88,0
1,note_on,45,0,120
1,note_on,43,89,0
1,note_on,43,0,120
1,note_on,42,91,0
1,note_on,42,0,120
1,note_on,39,93,0
1,note_on,39,0,120
1,note_on,38,94,0
1,note_on,38,0,120
1,note_on,36,94,0
1,note_on,36,0,120
1,note_on,34,95,0
1,note_on,34,0,120
1,note_on,33,97,0
1,note_on,33,0,120
1,note_on,45,75,1080
1,note_on,45,0,120
1,note_on,46,75,0
1,note_on,46,0,120
1,note_on,48,76,0
1,note_on,48,0,120
1,note_on,50,77,0
1,note_on,50,0,120
1,note_on,52,77,0
1,note_on,52,0,120
1,note_on,54,78,0
1,note_on,54,0,120
1,note_on,55,78,0
1,note_on,55,0,120
1,note_on,57,79,0
1,note_on,57,0,120
1,note_on,58,80,0
1,note_on,58,0,120
1,note_on,60,80,0
1,note_on,60,0,120
1,note_on,62,81,0
1,note_on,62,0,120
1,note_on,64,81,0
1,note_on,64,0,120
1,note_on,66,82,0
1,note_on,66,0,120
1,note_on,67,83,0
1,note_on,67,0,120
1,note_on,69,83,0
1,note_on,69,0,120
1,note_on,70,84,0
1,note_on,70,0,120
1,note_on,72,84,0
1,note_on,72,0,120
1,note_on,74,85,0
1,note_on,74,0,120
1,note_on,76,86,0
1,note_on,76,0,120
1,note_on,78,86,0
1,note_on,78,0,120
1,note_on,79,89,0
1,note_on,79,0,120
1,note_on,46,85,2280
1,note_on,46,0,600
1,note_on,48,71,0
1,note_on,48,0,120
1,note_on,50,71,0
1,note_on,50,0,120
1,note_on,52,71,0
1,note_on,52,0,120
1,note_on,54,72,0
1,note_on,54,0,120
1,note_on,55,72,0
1,note_on,55,0,120
1,note_on,57,72,0
1,note_on,57,0,120
1,note_on,58,73,0
1,note_on,58,0,120
1,note_on,60,73,0
1,note_on,60,0,120
1,note_on,62,73,0
1,note_on,62,0,120
1,note_on,64,74,0
1,note_on,64,0,120
1,note_on,66,74,0
1,note_on,66,0,120
1,note_on,67,74,0
1,note_on,67,0,120
1,note_on,69,75,0
1,note_on,69,0,120
1,note_on,70,75,0
1,note_on,70,0,120
1,note_on,72,75,0
1,note_on,72,0,120
1,note_on,74,76,0
1,note_on,74,0,120
1,note_on,76,76,0
1,note_on,76,0,120
1,note_on,78,76,0
1,note_on,78,0,120
1,note_on,79,77,0
1,note_on,79,0,120
1,note_on,81,77,0
1,note_on,81,0,120
1,note_on,82,77,0
1,note_on,82,0,120
1,note_on,84,78,0
1,note_on,84,0,120
1,note_on,86,78,0
1,note_on,86,0,120
1,note_on,88,78,0
1,note_on,88,0,120
1,note_on,90,79,0
1,note_on,90,0,120
1,note_on,91,79,0
1,note_on,91,0,120
1,note_on,93,79,0
1,note_on,93,0,120
1,note_on,94,87,0
1,note_on,94,0,120
1,note_on,50,37,360
1,note_on,62,45,0
1,note_on,58,37,0
1,note_on,55,37,0
1,note_on,55,0,360
1,note_on,50,0,0
1,note_on,62,0,0
1,note_on,58,0,0
1,note_on,50,37,0
1,note_on,62,45,0
1,note_on,58,37,0
1,note_on,55,37,0
1,note_on,55,0,120
1,note_on,50,0,0
1,note_on,62,0,0
1,note_on,58,0,0
1,note_on,55,37,0
1,note_on,50,37,0
1,note_on,58,37,0
1,note_on,62,45,0
1,note_on,62,0,480
1,note_on,55,0,0
1,note_on,50,0,0
1,note_on,58,0,0
1,note_on,62,94,80
1,note_on,62,0,80
1,note_on,67,94,0
1,note_on,67,0,80
1,note_on,70,99,0
1,note_on,70,0,80
1,note_on,75,100,0
1,note_on,75,0,80
1,note_on,74,94,0
1,note_on,74,0,70
1,note_on,74,94,10
1,note_on,74,0,120
1,note_on,100,104,330
1,note_on,88,109,30
1,note_on,88,0,100
1,note_on,100,0,0
1,note_on,99,106,30
1,note_on,87,108,30
1,note_on,87,0,100
1,note_on,99,0,0
1,note_on,98,104,30
1,note_on,86,107,30
1,note_on,86,0,100
1,note_on,98,0,0
1,note_on,97,100,30
1,note_on,85,106,30
1,note_on,85,0,100
1,note_on,97,0,0
1,note_on,96,102,30
1,note_on,84,103,30
1,note_on,84,0,100
1,note_on,96,0,0
1,note_on,95,103,30
1,note_on,83,102,30
1,note_on,83,0,100
1,note_on,95,0,0
1,note_on,94,102,30
1,note_on,82,101,30
1,note_on,82,0,100
1,note_on,94,0,0
1,note_on,93,101,30
1,note_on,81,100,30
1,note_on,81,0,100
1,note_on,93,0,0
1,note_on,92,99,30
1,note_on,80,99,30
1,note_on,80,0,100
1,note_on,92,0,0
1,note_on,79,88,60
1,note_on,91,98,0
1,note_on,91,0,120
1,note_on,79,0,0
1,note_on,90,97,40
1,note_on,78,87,0
1,note_on,78,0,120
1,note_on,90,0,0
1,note_on,89,97,40
1,note_on,77,87,0
1,note_on,77,0,120
1,note_on,89,0,0
1,note_on,76,86,40
1,note_on,88,96,0
1,note_on,88,0,120
1,note_on,76,0,0
1,note_on,87,95,40
1,note_on,75,85,0
1,note_on,75,0,120
1,note_on,87,0,0
1,note_on,74,84,40
1,note_on,86,94,0
1,note_on,86,0,120
1,note_on,74,0,0
1,note_on,85,93,40
1,note_on,73,83,0
1,note_on,73,0,120
1,note_on,85,0,0
1,note_on,84,91,40
1,note_on,72,81,0
1,note_on,72,0,120
1,note_on,84,0,0
1,note_on,83,95,40
1,note_on,71,85,0
1,note_on,71,0,120
1,note_on,83,0,0
1,note_on,70,89,40
1,note_on,82,99,0
1,note_on,82,0,120
1,note_on,70,0,0
1,note_on,81,103,40
1,note_on,69,92,0
1,note_on,69,0,120
1,note_on,81,0,0
1,note_on,68,97,40
1,note_on,80,108,0
1,note_on,80,0,120
1,note_on,68,0,0
1,note_on,67,96,40
1,note_on,79,113,0
1,note_on,79,0,480
1,note_on,67,0,0
1,note_on,86,92,480
1,note_on,82,92,0
1,note_on,91,108,0
1,note_on,94,108,0
1,note_on,94,0,960
1,note_on,86,0,0
1,note_on,82,0,0
1,note_on,91,0,0
1,note_on,55,117,0
1,note_on,55,0,960
2,note_on,36,74,1
2,note_on,36,0,1199
2,note_on,39,66,0
2,note_on,39,0,240
2,note_on,44,70,0
2,note_on,44,0,240
2,note_on,46,64,0
2,note_on,46,0,240
2,note_on,48,70,0
2,note_on,48,0,240
2,note_on,44,63,0
2,note_on,44,0,240
2,note_on,51,63,0
2,note_on,51,0,240
2,note_on,58,55,0
2,note_on,58,0,240
2,note_on,60,58,0
2,note_on,60,0,240
2,note_on,56,54,0
2,note_on,56,0,240
2,note_on,63,62,0
2,note_on,63,0,240
2,note_on,70,54,0
2,note_on,70,0,240
2,note_on,72,57,0
2,note_on,72,0,240
2,note_on,67,48,0
2,note_on,67,0,240
2,note_on,70,53,0
2,note_on,70,0,240
2,note_on,68,35,0
2,note_on,68,0,240
2,note_on,67,32,0
2,note_on,67,0,480
2,note_on,66,27,0
2,note_on,66,0,240
2,note_on,66,34,480
2,note_on,66,0,240
2,note_on,67,37,0
2,note_on,67,0,240
2,note_on,66,34,0
2,note_on,66,0,240
2,note_on,65,37,0
2,note_on,65,0,240
2,note_on,66,34,0
2,note_on,66,0,240
2,note_on,69,38,0
2,note_on,69,0,160
2,note_on,67,34,0
2,note_on,67,0,160
2,note_on,63,37,0
2,note_on,63,0,160
2,note_on,63,36,0
2,note_on,63,0,360
2,note_on,62,33,0
2,note_on,62,0,120
2,note_on,65,34,0
2,note_on,65,0,160
2,note_on,63,33,0
2,note_on,63,0,160
2,note_on,62,26,0
2,note_on,62,0,144
2,note_on,62,24,16
2,note_on,62,0,480
2,note_on,55,42,1440
2,note_on,51,42,0
2,note_on,60,42,0
2,note_on,60,0,960
2,note_on,51,0,0
2,note_on,55,0,0
2,note_on,50,44,0
2,note_on,55,48,120
2,note_on,63,56,120
2,note_on,63,0,1680
2,note_on,55,0,0
2,note_on,50,0,0
2,note_on,38,46,23
2,note_on,38,0,240
2,note_on,43,27,473
2,note_on,43,0,475
2,note_on,43,27,5
2,note_on,43,0,475
2,note_on,58,25,485
2,note_on,58,0,475
2,note_on,58,25,5
2,note_on,58,0,475
2,note_on,57,22,485
2,note_on,57,0,475
2,note_on,57,22,5
2,note_on,57,0,475
2,note_on,38,46,194
2,note_on,38,0,240
2,note_on,38,46,240
2,note_on,38,0,240
2,note_on,43,27,472
2,note_on,43,0,475
2,note_on,43,27,5
2,note_on,43,0,475
2,note_on,45,25,485
2,note_on,45,0,475
2,note_on,45,25,5
2,note_on,45,0,475
2,note_on,38,19,485
2,note_on,38,0,475
2,note_on,38,19,5
2,note_on,38,0,475
2,note_on,50,46,120
2,note_on,50,0,475
2,note_on,50,46,5
2,note_on,50,0,475
2,note_on,43,27,475
2,note_on,43,0,475
2,note_on,43,27,5
2,note_on,43,0,475
2,note_on,64,25,485
2,note_on,64,0,475
2,note_on,64,25,5
2,note_on,64,0,475
2,note_on,65,28,485
2,note_on,65,0,475
2,note_on,65,28,5
2,note_on,65,0,475
2,note_on,41,46,300
2,note_on,41,0,475
2,note_on,41,46,5
2,note_on,41,0,110
2,note_on,46,19,485
2,note_on,46,0,475
2,note_on,46,19,5
2,note_on,46,0,475
2,note_on,58,21,485
2,note_on,58,0,475
2,note_on,58,21,5
2,note_on,58,0,475
2,note_on,57,27,485
2,note_on,57,0,475
2,note_on,57,27,5
2,note_on,57,0,475
2,note_on,38,46,160
2,note_on,38,0,475
2,note_on,38,46,5
2,note_on,38,0,475
2,note_on,43,27,472
2,note_on,43,0,475
2,note_on,43,27,5
2,note_on,43,0,475
2,note_on,58,25,485
2,note_on,58,0,475
2,note_on,58,25,5
2,note_on,58,0,475
2,note_on,57,22,485
2,note_on,57,0,475
2,note_on,57,22,5
2,note_on,57,0,475
2,note_on,38,46,194
2,note_on,38,0,475
2,note_on,38,46,5
2,note_on,38,0,475
2,note_on,43,27,475
2,note_on,43,0,475
2,note_on,43,27,5
2,note_on,43,0,475
2,note_on,45,21,485
2,note_on,45,0,475
2,note_on,45,21,5
2,note_on,45,0,475
2,note_on,38,17,485
2,note_on,38,0,475
2,note_on,38,17,5
2,note_on,38,0,475
2,note_on,50,46,42
2,note_on,50,0,475
2,note_on,50,46,5
2,note_on,50,0,475
2,note_on,55,27,215
2,note_on,55,0,475
2,note_on,55,27,5
2,note_on,55,0,475
2,note_on,43,28,465
2,note_on,43,0,342
2,note_on,43,28,5
2,note_on,43,0,475
2,note_on,48,32,80
2,note_on,36,35,0
2,note_on,36,0,475
2,note_on,55,43,5
2,note_on,55,0,475
2,note_on,48,0,5
2,note_on,50,31,187
2,note_on,38,34,0
2,note_on,38,0,475
2,note_on,55,44,5
2,note_on,55,0,475
2,note_on,50,0,5
2,note_on,51,33,466
2,note_on,39,36,0
2,note_on,39,0,342
2,note_on,55,43,5
2,note_on,55,0,475
2,note_on,51,0,5
2,note_on,50,28,187
2,note_on,38,31,0
2,note_on,38,0,475
2,note_on,55,36,5
2,note_on,55,0,475
2,note_on,50,0,5
2,note_on,47,52,0
2,note_on,47,0,240
2,note_on,48,42,0
2,note_on,48,0,240
2,note_on,50,42,0
2,note_on,50,0,148
2,note_on,48,42,0
2,note_on,48,0,240
2,note_on,55,51,0
2,note_on,55,0,469
2,note_on,49,53,0
2,note_on,49,0,240
2,note_on,50,43,0
2,note_on,50,0,240
2,note_on,51,47,0
2,note_on,51,0,155
2,note_on,50,42,0
2,note_on,50,0,240
2,note_on,55,52,0
2,note_on,55,0,469
2,note_on,50,57,0
2,note_on,50,0,240
2,note_on,51,48,0
2,note_on,51,0,240
2,note_on,53,48,0
2,note_on,53,0,240
2,note_on,51,48,0
2,note_on,51,0,240
2,note_on,55,54,0
2,note_on,55,0,360
2,note_on,51,36,0
2,note_on,51,0,4
2,note_on,52,36,36
2,note_on,52,0,40
2,note_on,53,35,0
2,note_on,53,0,40
2,note_on,52,35,0
2,note_on,52,0,45
2,note_on,53,36,0
2,note_on,53,0,60
2,note_on,52,36,0
2,note_on,52,0,60
2,note_on,53,37,0
2,note_on,53,0,60
2,note_on,52,37,0
2,note_on,52,0,60
2,note_on,53,38,0
2,note_on,53,0,60
2,note_on,52,38,0
2,note_on,52,0,60
2,note_on,53,39,0
2,note_on,53,0,60
2,note_on,52,39,0
2,note_on,52,0,60
2,note_on,53,39,0
2,note_on,53,0,60
2,note_on,52,40,0
2,note_on,52,0,60
2,note_on,53,40,0
2,note_on,53,0,60
2,note_on,52,42,0
2,note_on,52,0,60
2,note_on,53,42,0
2,note_on,53,0,60
2,note_on,52,43,0
2,note_on,52,0,60
2,note_on,53,43,0
2,note_on,53,0,60
2,note_on,52,44,0
2,note_on,52,0,60
2,note_on,53,44,0
2,note_on,53,0,60
2,note_on,52,46,0
2,note_on,52,0,60
2,note_on,53,46,0
2,note_on,53,0,60
2,note_on,52,47,0
2,note_on,52,0,60
2,note_on,51,47,0
2,note_on,51,0,90
2,note_on,52,48,0
2,note_on,52,0,90
2,note_on,53,55,0
2,note_on,53,0,475
2,note_on,40,37,0
2,note_on,52,46,0
2,note_on,52,0,480
2,note_on,40,0,0
2,note_on,41,37,0
2,note_on,53,46,0
2,note_on,53,0,480
2,note_on,41,0,0
2,note_on,42,42,0
2,note_on,54,51,0
2,note_on,54,0,1920
2,note_on,42,0,0
2,note_on,41,34,0
2,note_on,53,40,0
2,note_on,53,0,480
2,note_on,41,0,0
2,note_on,42,37,0
2,note_on,54,44,0
2,note_on,54,0,480
2,note_on,42,0,0
2,note_on,43,40,0
2,note_on,55,48,0
2,note_on,55,0,1013
2,note_on,43,0,0
2,note_on,38,32,0
2,note_on,50,38,0
2,note_on,50,0,2880
2,note_on,38,0,0
2,note_on,39,33,0
2,note_on,51,39,0
2,note_on,51,0,1066
2,note_on,39,0,0
2,note_on,36,39,0
2,note_on,48,39,0
2,note_on,48,0,1394
2,note_on,36,0,0
2,note_on,38,33,0
2,note_on,50,39,0
2,note_on,50,0,65
2,note_on,38,0,0
2,note_on,37,33,0
2,note_on,49,39,0
2,note_on,49,0,480
2,note_on,37,0,0
2,note_on,52,30,0
2,note_on,57,30,0
2,note_on,64,36,0
2,note_on,64,0,475
2,note_on,57,0,0
2,note_on,52,0,0
2,note_on,52,28,5
2,note_on,57,28,0
2,note_on,64,34,0
2,note_on,64,0,475
2,note_on,57,0,0
2,note_on,52,0,0
2,note_on,52,28,5
2,note_on,57,28,0
2,note_on,64,34,0
2,note_on,64,0,475
2,note_on,57,0,0
2,note_on,52,0,0
2,note_on,52,28,5
2,note_on,57,28,0
2,note_on,64,34,0
2,note_on,64,0,475
2,note_on,57,0,0
2,note_on,52,0,0
2,note_on,52,29,5
2,note_on,57,29,0
2,note_on,64,35,0
2,note_on,64,0,475
2,note_on,57,0,0
2,note_on,52,0,0
2,note_on,36,36,5
2,note_on,48,42,0
2,note_on,48,0,428
2,note_on,36,0,0
2,note_on,53,33,0
2,note_on,57,33,0
2,note_on,63,33,0
2,note_on,65,39,0
2,note_on,65,0,475
2,note_on,53,0,0
2,note_on,57,0,0
2,note_on,63,0,0
2,note_on,53,33,5
2,note_on,57,33,0
2,note_on,63,33,0
2,note_on,65,39,0
2,note_on,65,0,475
2,note_on,53,0,0
2,note_on,57,0,0
2,note_on,63,0,0
2,note_on,53,33,5
2,note_on,57,33,0
2,note_on,63,33,0
2,note_on,65,39,0
2,note_on,65,0,475
2,note_on,53,0,0
2,note_on,57,0,0
2,note_on,63,0,0
2,note_on,53,33,5
2,note_on,57,33,0
2,note_on,63,33,0
2,note_on,65,39,0
2,note_on,65,0,475
2,note_on,53,0,0
2,note_on,57,0,0
2,note_on,63,0,0
2,note_on,53,33,5
2,note_on,57,33,0
2,note_on,63,33,0
2,note_on,65,39,0
2,note_on,65,0,464
2,note_on,53,0,0
2,note_on,57,0,0
2,note_on,63,0,0
2,note_on,34,38,5
2,note_on,46,45,0
2,note_on,46,0,400
2,note_on,34,0,0
2,note_on,50,31,0
2,note_on,53,31,0
2,note_on,58,39,0
2,note_on,58,0,480
2,note_on,53,0,0
2,note_on,50,0,0
2,note_on,53,33,0
2,note_on,58,33,0
2,note_on,62,39,0
2,note_on,62,0,480
2,note_on,58,0,0
2,note_on,53,0,0
2,note_on,39,40,0
2,note_on,39,0,240
2,note_on,51,31,0
2,note_on,55,31,0
2,note_on,60,37,0
2,note_on,60,0,480
2,note_on,55,0,0
2,note_on,51,0,0
2,note_on,55,31,0
2,note_on,60,31,0
2,note_on,63,37,0
2,note_on,63,0,480
2,note_on,60,0,0
2,note_on,55,0,0
2,note_on,38,42,0
2,note_on,38,0,298
2,note_on,55,29,0
2,note_on,58,29,0
2,note_on,63,35,0
2,note_on,63,0,480
2,note_on,58,0,0
2,note_on,55,0,0
2,note_on,62,35,0
2,note_on,58,29,0
2,note_on,55,29,0
2,note_on,55,0,480
2,note_on,50,39,0
2,note_on,58,0,465
2,note_on,62,0,0
2,note_on,61,35,0
2,note_on,58,29,0
2,note_on,58,0,480
2,note_on,61,0,0
2,note_on,57,30,0
2,note_on,60,36,0
2,note_on,60,0,480
2,note_on,57,0,0
2,note_on,50,0,0
2,note_on,43,36,0
2,note_on,43,0,68
2,note_on,65,28,240
2,note_on,58,19,0
2,note_on,55,19,0
2,note_on,65,0,480
2,note_on,63,29,0
2,note_on,63,0,464
2,note_on,55,0,0
2,note_on,58,0,0
2,note_on,42,38,0
2,note_on,42,0,126
2,note_on,63,28,240
2,note_on,54,19,0
2,note_on,57,19,0
2,note_on,63,0,480
2,note_on,62,29,0
2,note_on,62,0,465
2,note_on,57,0,0
2,note_on,54,0,0
2,note_on,43,38,0
2,note_on,43,0,194
2,note_on,65,30,240
2,note_on,58,20,0
2,note_on,55,20,0
2,note_on,65,0,480
2,note_on,63,30,0
2,note_on,63,0,464
2,note_on,55,0,0
2,note_on,58,0,0
2,note_on,41,40,0
2,note_on,41,0,126
2,note_on,59,20,240
2,note_on,63,30,0
2,note_on,53,20,0
2,note_on,56,20,0
2,note_on,63,0,480
2,note_on,62,30,0
2,note_on,62,0,464
2,note_on,56,0,0
2,note_on,53,0,0
2,note_on,59,0,0
2,note_on,39,41,0
2,note_on,39,0,148
2,note_on,62,32,240
2,note_on,55,21,0
2,note_on,51,21,0
2,note_on,62,0,480
2,note_on,60,32,0
2,note_on,60,0,464
2,note_on,51,0,0
2,note_on,55,0,0
2,note_on,36,42,0
2,note_on,36,0,126
2,note_on,58,31,240
2,note_on,51,26,0
2,note_on,58,0,480
2,note_on,57,32,0
2,note_on,57,0,464
2,note_on,51,0,0
2,note_on,38,43,0
2,note_on,38,0,103
2,note_on,55,33,240
2,note_on,60,28,0
2,note_on,50,28,0
2,note_on,55,0,480
2,note_on,54,33,0
2,note_on,54,0,464
2,note_on,50,0,0
2,note_on,60,0,0
2,note_on,38,44,0
2,note_on,38,0,126
2,note_on,57,37,240
2,note_on,57,0,480
2,note_on,50,38,0
2,note_on,50,0,464
2,note_on,55,59,0
2,note_on,43,59,0
2,note_on,43,0,149
2,note_on,55,0,0
2,note_on,65,43,240
2,note_on,55,36,0
2,note_on,65,0,480
2,note_on,58,36,0
2,note_on,63,43,0
2,note_on,63,0,464
2,note_on,58,0,0
2,note_on,55,0,0
2,note_on,54,62,0
2,note_on,42,62,0
2,note_on,42,0,126
2,note_on,54,0,0
2,note_on,63,41,240
2,note_on,54,35,0
2,note_on,63,0,480
2,note_on,57,35,0
2,note_on,62,42,0
2,note_on,62,0,465
2,note_on,57,0,0
2,note_on,54,0,0
2,note_on,55,61,0
2,note_on,43,61,0
2,note_on,43,0,46
2,note_on,55,0,0
2,note_on,65,44,240
2,note_on,55,36,0
2,note_on,65,0,480
2,note_on,58,37,0
2,note_on,63,44,0
2,note_on,63,0,464
2,note_on,58,0,0
2,note_on,55,0,0
2,note_on,53,63,0
2,note_on,41,63,0
2,note_on,41,0,126
2,note_on,53,0,0
2,note_on,63,43,240
2,note_on,53,36,0
2,note_on,63,0,480
2,note_on,56,36,0
2,note_on,59,36,0
2,note_on,62,43,0
2,note_on,62,0,465
2,note_on,53,0,0
2,note_on,56,0,0
2,note_on,59,0,0
2,note_on,51,62,0
2,note_on,39,62,0
2,note_on,39,0,149
2,note_on,51,0,0
2,note_on,62,45,240
2,note_on,51,38,0
2,note_on,62,0,480
2,note_on,55,38,0
2,note_on,60,45,0
2,note_on,60,0,464
2,note_on,55,0,0
2,note_on,51,0,0
2,note_on,48,66,0
2,note_on,36,66,0
2,note_on,36,0,80
2,note_on,48,0,0
2,note_on,58,44,240
2,note_on,48,37,0
2,note_on,58,0,480
2,note_on,51,37,0
2,note_on,57,44,0
2,note_on,57,0,465
2,note_on,51,0,0
2,note_on,48,0,0
2,note_on,38,64,0
2,note_on,38,0,91
2,note_on,45,46,240
2,note_on,55,46,0
2,note_on,55,0,480
2,note_on,45,0,0
2,note_on,48,39,0
2,note_on,54,47,0
2,note_on,54,0,464
2,note_on,48,0,0
2,note_on,38,67,0
2,note_on,38,0,126
2,note_on,45,51,240
2,note_on,51,51,0
2,note_on,51,0,480
2,note_on,45,0,0
2,note_on,48,51,0
2,note_on,50,51,0
2,note_on,48,0,465
2,note_on,43,51,0
2,note_on,43,0,240
2,note_on,50,0,0
2,note_on,31,32,0
2,note_on,43,38,0
2,note_on,43,0,240
2,note_on,31,0,0
2,note_on,50,51,240
2,note_on,43,38,0
2,note_on,43,0,240
2,note_on,50,0,0
2,note_on,43,32,0
2,note_on,51,43,0
2,note_on,51,0,120
2,note_on,50,45,0
2,note_on,50,0,120
2,note_on,43,0,240
2,note_on,48,43,0
2,note_on,43,43,0
2,note_on,51,51,0
2,note_on,57,49,194
2,note_on,57,0,720
2,note_on,48,0,0
2,note_on,43,0,0
2,note_on,51,0,0
2,note_on,43,43,0
2,note_on,55,51,0
2,note_on,55,0,229
2,note_on,43,0,0
2,note_on,63,55,0
2,note_on,51,46,0
2,note_on,51,0,240
2,note_on,63,0,0
2,note_on,50,46,0
2,note_on,62,51,0
2,note_on,62,0,120
2,note_on,50,0,0
2,note_on,43,32,120
2,note_on,55,38,0
2,note_on,55,0,480
2,note_on,43,0,0
2,note_on,62,45,0
2,note_on,55,38,0
2,note_on,55,0,240
2,note_on,62,0,0
2,note_on,55,32,0
2,note_on,63,43,0
2,note_on,63,0,120
2,note_on,62,45,0
2,note_on,62,0,120
2,note_on,55,0,240
2,note_on,60,43,0
2,note_on,55,43,0
2,note_on,63,51,0
2,note_on,69,49,177
2,note_on,69,0,720
2,note_on,60,0,0
2,note_on,55,0,0
2,note_on,63,0,0
2,note_on,55,43,0
2,note_on,67,51,0
2,note_on,67,0,230
2,note_on,55,0,0
2,note_on,75,55,0
2,note_on,63,46,0
2,note_on,63,0,240
2,note_on,75,0,0
2,note_on,67,55,0
2,note_on,74,55,0
2,note_on,74,0,120
2,note_on,67,0,0
2,note_on,75,66,600
2,note_on,63,38,0
2,note_on,66,38,0
2,note_on,69,48,0
2,note_on,69,0,137
2,note_on,75,0,0
2,note_on,63,0,0
2,note_on,66,0,0
2,note_on,74,52,0
2,note_on,74,0,240
2,note_on,62,52,0
2,note_on,62,0,240
2,note_on,55,55,0
2,note_on,55,0,28
2,note_on,62,51,120
2,note_on,74,51,240
2,note_on,74,0,240
2,note_on,62,0,0
2,note_on,66,38,0
2,note_on,63,38,0
2,note_on,75,66,0
2,note_on,69,48,0
2,note_on,69,0,120
2,note_on,66,0,0
2,note_on,63,0,0
2,note_on,75,0,0
2,note_on,74,50,0
2,note_on,74,0,240
2,note_on,62,53,0
2,note_on,62,0,240
2,note_on,55,55,0
2,note_on,55,0,143
2,note_on,50,51,240
2,note_on,50,0,240
2,note_on,54,38,0
2,note_on,63,66,0
2,note_on,57,48,0
2,note_on,51,38,0
2,note_on,51,0,120
2,note_on,54,0,0
2,note_on,63,0,0
2,note_on,57,0,0
2,note_on,62,50,0
2,note_on,62,0,240
2,note_on,50,53,0
2,note_on,50,0,240
2,note_on,43,49,0
2,note_on,43,0,11
2,note_on,50,45,120
2,note_on,62,45,240
2,note_on,62,0,240
2,note_on,50,0,0
2,note_on,63,57,0
2,note_on,51,34,0
2,note_on,54,34,0
2,note_on,57,42,0
2,note_on,57,0,154
2,note_on,63,0,0
2,note_on,51,0,0
2,note_on,54,0,0
2,note_on,62,45,0
2,note_on,62,0,240
2,note_on,50,47,0
2,note_on,50,0,240
2,note_on,43,58,0
2,note_on,43,0,134
2,note_on,58,45,0
2,note_on,50,45,0
2,note_on,50,0,240
2,note_on,58,0,0
2,note_on,37,46,240
2,note_on,49,58,0
2,note_on,49,0,225
2,note_on,37,0,0
2,note_on,38,39,0
2,note_on,50,45,0
2,note_on,50,0,240
2,note_on,38,0,0
2,note_on,43,49,240
2,note_on,31,49,0
2,note_on,31,0,106
2,note_on,43,0,0
2,note_on,46,38,0
2,note_on,46,0,240
2,note_on,37,49,240
2,note_on,37,0,225
2,note_on,38,38,0
2,note_on,38,0,240
2,note_on,43,49,240
2,note_on,31,49,0
2,note_on,31,0,200
2,note_on,43,0,0
2,note_on,36,45,240
2,note_on,36,0,229
2,note_on,31,49,0
2,note_on,43,49,0
2,note_on,43,0,169
2,note_on,31,0,0
2,note_on,36,45,240
2,note_on,36,0,225
2,note_on,31,49,0
2,note_on,43,49,0
2,note_on,43,0,200
2,note_on,31,0,0
2,note_on,36,45,240
2,note_on,36,0,226
2,note_on,43,49,0
2,note_on,31,49,0
2,note_on,31,0,169
2,note_on,43,0,0
2,note_on,36,45,240
2,note_on,36,0,229
2,note_on,31,41,0
2,note_on,43,49,0
2,note_on,43,0,607
2,note_on,31,0,0
2,note_on,62,48,240
2,note_on,67,57,0
2,note_on,67,0,220
2,note_on,62,0,0
2,note_on,62,53,20
2,note_on,55,45,0
2,note_on,55,0,220
2,note_on,62,0,0
2,note_on,62,48,20
2,note_on,67,57,0
2,note_on,67,0,480
2,note_on,62,0,0
2,note_on,38,49,720
2,note_on,38,0,120
2,note_on,31,44,0
2,note_on,43,52,0
2,note_on,43,0,1129
2,note_on,31,0,0
2,note_on,38,47,0
2,note_on,38,0,141
2,note_on,30,44,0
2,note_on,42,52,0
2,note_on,42,0,1108
2,note_on,30,0,0
2,note_on,38,47,0
2,note_on,38,0,160
2,note_on,43,49,0
2,note_on,31,41,0
2,note_on,31,0,614
2,note_on,43,0,0
2,note_on,55,57,240
2,note_on,50,48,0
2,note_on,50,0,220
2,note_on,55,0,0
2,note_on,43,45,20
2,note_on,50,53,0
2,note_on,50,0,220
2,note_on,43,0,0
2,note_on,50,48,20
2,note_on,55,57,0
2,note_on,55,0,480
2,note_on,50,0,0
2,note_on,38,49,720
2,note_on,38,0,106
2,note_on,42,52,0
2,note_on,30,44,0
2,note_on,30,0,1097
2,note_on,42,0,0
2,note_on,38,47,0
2,note_on,38,0,148
2,note_on,41,52,0
2,note_on,29,44,0
2,note_on,41,0,1066
2,note_on,43,47,0
2,note_on,43,0,120
2,note_on,45,49,0
2,note_on,45,0,367
2,note_on,29,0,0
2,note_on,60,44,480
2,note_on,65,52,0
2,note_on,65,0,220
2,note_on,60,0,0
2,note_on,60,44,20
2,note_on,53,36,0
2,note_on,53,0,220
2,note_on,60,0,0
2,note_on,65,52,20
2,note_on,60,44,0
2,note_on,60,0,1200
2,note_on,65,0,0
2,note_on,53,35,0
2,note_on,60,41,0
2,note_on,60,0,240
2,note_on,53,0,0
2,note_on,65,46,0
2,note_on,60,39,0
2,note_on,60,0,1200
2,note_on,65,0,0
2,note_on,53,31,0
2,note_on,60,36,0
2,note_on,60,0,240
2,note_on,53,0,0
2,note_on,60,34,0
2,note_on,65,40,0
2,note_on,65,0,480
2,note_on,60,0,0
2,note_on,53,28,0
2,note_on,60,34,0
2,note_on,60,0,240
2,note_on,53,0,0
2,note_on,65,37,0
2,note_on,60,31,0
2,note_on,60,0,240
2,note_on,65,0,0
2,note_on,53,30,0
2,note_on,60,36,0
2,note_on,60,0,230
2,note_on,53,0,0
2,note_on,34,36,225
2,note_on,34,0,366
2,note_on,46,29,0
2,note_on,46,0,480
2,note_on,56,29,0
2,note_on,56,0,480
2,note_on,53,31,0
2,note_on,53,0,114
2,note_on,60,31,0
2,note_on,60,0,480
2,note_on,58,31,0
2,note_on,58,0,480
2,note_on,39,36,0
2,note_on,39,0,197
2,note_on,46,27,0
2,note_on,46,0,480
2,note_on,51,26,0
2,note_on,51,0,480
2,note_on,55,32,0
2,note_on,55,0,480
2,note_on,58,31,0
2,note_on,58,0,480
2,note_on,63,31,0
2,note_on,63,0,480
2,note_on,60,33,0
2,note_on,60,0,133
2,note_on,63,30,0
2,note_on,63,0,480
2,note_on,53,25,0
2,note_on,53,0,480
2,note_on,63,33,0
2,note_on,63,0,133
2,note_on,67,30,0
2,note_on,67,0,480
2,note_on,65,30,0
2,note_on,65,0,480
2,note_on,46,36,0
2,note_on,46,0,213
2,note_on,53,29,0
2,note_on,53,0,480
2,note_on,58,29,0
2,note_on,58,0,480
2,note_on,62,32,0
2,note_on,62,0,480
2,note_on,65,32,0
2,note_on,65,0,480
2,note_on,70,32,0
2,note_on,70,0,480
2,note_on,60,36,0
2,note_on,60,0,274
2,note_on,63,30,0
2,note_on,63,0,480
2,note_on,53,30,0
2,note_on,53,0,467
2,note_on,58,33,0
2,note_on,58,0,251
2,note_on,62,26,0
2,note_on,62,0,480
2,note_on,68,28,0
2,note_on,68,0,480
2,note_on,58,36,0
2,note_on,58,0,183
2,note_on,62,29,0
2,note_on,62,0,480
2,note_on,51,29,0
2,note_on,51,0,480
2,note_on,56,28,0
2,note_on,56,0,296
2,note_on,60,29,0
2,note_on,60,0,480
2,note_on,67,29,0
2,note_on,67,0,480
2,note_on,56,36,0
2,note_on,56,0,296
2,note_on,60,31,0
2,note_on,60,0,480
2,note_on,50,32,0
2,note_on,50,0,480
2,note_on,55,30,0
2,note_on,55,0,226
2,note_on,59,36,0
2,note_on,59,0,480
2,note_on,65,30,0
2,note_on,65,0,480
2,note_on,55,36,0
2,note_on,55,0,402
2,note_on,60,31,0
2,note_on,60,0,480
2,note_on,48,31,0
2,note_on,48,0,480
2,note_on,53,33,0
2,note_on,53,0,402
2,note_on,57,33,0
2,note_on,57,0,480
2,note_on,63,33,0
2,note_on,63,0,480
2,note_on,53,36,0
2,note_on,53,0,114
2,note_on,56,29,0
2,note_on,56,0,480
2,note_on,46,29,0
2,note_on,46,0,480
2,note_on,56,31,0
2,note_on,56,0,160
2,note_on,60,31,0
2,note_on,60,0,480
2,note_on,58,31,0
2,note_on,58,0,480
2,note_on,39,36,0
2,note_on,39,0,240
2,note_on,46,30,0
2,note_on,46,0,480
2,note_on,51,27,0
2,note_on,51,0,480
2,note_on,55,31,0
2,note_on,55,0,480
2,note_on,58,31,0
2,note_on,58,0,480
2,note_on,63,28,0
2,note_on,63,0,480
2,note_on,60,30,0
2,note_on,60,0,133
2,note_on,63,30,0
2,note_on,63,0,480
2,note_on,53,25,0
2,note_on,53,0,480
2,note_on,63,33,0
2,note_on,63,0,133
2,note_on,67,30,0
2,note_on,67,0,480
2,note_on,65,30,0
2,note_on,65,0,480
2,note_on,46,36,0
2,note_on,46,0,53
2,note_on,53,32,0
2,note_on,53,0,480
2,note_on,58,32,0
2,note_on,58,0,480
2,note_on,62,34,0
2,note_on,62,0,480
2,note_on,65,37,0
2,note_on,65,0,480
2,note_on,70,42,0
2,note_on,70,0,480
2,note_on,36,44,0
2,note_on,36,0,205
2,note_on,64,30,0
2,note_on,64,0,480
2,note_on,58,26,0
2,note_on,58,0,480
2,note_on,55,30,0
2,note_on,64,27,160
2,note_on,64,0,480
2,note_on,58,27,0
2,note_on,58,0,480
2,note_on,55,0,0
2,note_on,53,36,0
2,note_on,63,31,388
2,note_on,63,0,480
2,note_on,57,31,0
2,note_on,57,0,480
2,note_on,53,0,0
2,note_on,46,36,0
2,note_on,46,0,303
2,note_on,62,31,0
2,note_on,62,0,480
2,note_on,56,31,0
2,note_on,56,0,113
2,note_on,39,38,0
2,note_on,39,0,92
2,note_on,46,26,0
2,note_on,46,0,240
2,note_on,55,31,0
2,note_on,55,0,240
2,note_on,51,27,0
2,note_on,51,0,240
2,note_on,58,31,0
2,note_on,58,0,240
2,note_on,55,27,0
2,note_on,55,0,240
2,note_on,63,32,0
2,note_on,63,0,480
2,note_on,39,32,388
2,note_on,39,0,70
2,note_on,46,22,0
2,note_on,46,0,240
2,note_on,55,26,0
2,note_on,55,0,240
2,note_on,51,22,0
2,note_on,51,0,240
2,note_on,58,26,0
2,note_on,58,0,240
2,note_on,55,22,0
2,note_on,55,0,240
2,note_on,63,27,0
2,note_on,63,0,480
2,note_on,39,32,317
2,note_on,39,0,56
2,note_on,46,22,0
2,note_on,46,0,240
2,note_on,56,26,0
2,note_on,56,0,240
2,note_on,53,22,0
2,note_on,53,0,240
2,note_on,58,26,0
2,note_on,58,0,240
2,note_on,56,22,0
2,note_on,56,0,240
2,note_on,62,27,0
2,note_on,62,0,480
2,note_on,39,32,381
2,note_on,39,0,89
2,note_on,46,25,0
2,note_on,46,0,240
2,note_on,55,28,0
2,note_on,55,0,480
2,note_on,39,32,431
2,note_on,39,0,151
2,note_on,51,25,0
2,note_on,51,0,240
2,note_on,56,29,0
2,note_on,56,0,480
2,note_on,39,32,385
2,note_on,39,0,160
2,note_on,46,22,0
2,note_on,46,0,160
2,note_on,55,26,0
2,note_on,55,0,240
2,note_on,51,22,0
2,note_on,51,0,240
2,note_on,58,26,0
2,note_on,58,0,240
2,note_on,55,22,0
2,note_on,55,0,240
2,note_on,63,27,0
2,note_on,63,0,480
2,note_on,39,32,374
2,note_on,39,0,56
2,note_on,46,22,0
2,note_on,46,0,240
2,note_on,55,26,0
2,note_on,55,0,240
2,note_on,51,22,0
2,note_on,51,0,240
2,note_on,58,26,0
2,note_on,58,0,240
2,note_on,55,22,0
2,note_on,55,0,240
2,note_on,63,27,0
2,note_on,63,0,480
2,note_on,39,32,381
2,note_on,39,0,64
2,note_on,46,22,0
2,note_on,46,0,240
2,note_on,56,26,0
2,note_on,56,0,240
2,note_on,53,22,0
2,note_on,53,0,240
2,note_on,58,26,0
2,note_on,58,0,240
2,note_on,56,22,0
2,note_on,56,0,240
2,note_on,62,27,0
2,note_on,62,0,480
2,note_on,39,32,381
2,note_on,39,0,83
2,note_on,46,25,0
2,note_on,46,0,240
2,note_on,55,28,0
2,note_on,55,0,480
2,note_on,39,32,417
2,note_on,39,0,191
2,note_on,51,25,0
2,note_on,51,0,240
2,note_on,56,29,0
2,note_on,56,0,480
2,note_on,39,32,0
2,note_on,39,0,127
2,note_on,46,22,0
2,note_on,46,0,240
2,note_on,55,26,0
2,note_on,55,0,240
2,note_on,51,22,0
2,note_on,51,0,240
2,note_on,58,26,0
2,note_on,58,0,240
2,note_on,55,22,0
2,note_on,55,0,240
2,note_on,63,27,0
2,note_on,63,0,480
2,note_on,43,32,960
2,note_on,43,0,56
2,note_on,50,22,0
2,note_on,50,0,240
2,note_on,58,26,0
2,note_on,58,0,240
2,note_on,55,22,0
2,note_on,55,0,240
2,note_on,62,26,0
2,note_on,62,0,240
2,note_on,58,22,0
2,note_on,58,0,240
2,note_on,67,27,0
2,note_on,67,0,480
2,note_on,46,32,960
2,note_on,46,0,56
2,note_on,53,22,0
2,note_on,53,0,240
2,note_on,62,26,0
2,note_on,62,0,240
2,note_on,58,22,0
2,note_on,58,0,240
2,note_on,65,26,0
2,note_on,65,0,240
2,note_on,62,22,0
2,note_on,62,0,240
2,note_on,70,27,0
2,note_on,70,0,480
2,note_on,50,31,960
2,note_on,50,0,205
2,note_on,57,26,0
2,note_on,57,0,240
2,note_on,65,31,0
2,note_on,65,0,240
2,note_on,62,26,0
2,note_on,62,0,240
2,note_on,69,31,0
2,note_on,69,0,240
2,note_on,65,26,0
2,note_on,65,0,240
2,note_on,52,28,466
2,note_on,40,25,133
2,note_on,40,0,480
2,note_on,40,25,0
2,note_on,40,0,480
2,note_on,52,0,0
2,note_on,40,39,480
2,note_on,40,0,240
2,note_on,40,39,240
2,note_on,40,0,240
2,note_on,40,22,205
2,note_on,40,0,475
2,note_on,40,22,5
2,note_on,40,0,475
2,note_on,64,34,5
2,note_on,52,21,480
2,note_on,57,21,0
2,note_on,57,0,475
2,note_on,52,0,0
2,note_on,57,21,5
2,note_on,52,21,0
2,note_on,52,0,475
2,note_on,57,0,0
2,note_on,64,0,5
2,note_on,62,34,0
2,note_on,57,22,251
2,note_on,52,22,0
2,note_on,52,0,475
2,note_on,57,0,0
2,note_on,52,22,5
2,note_on,57,22,0
2,note_on,57,0,475
2,note_on,52,0,0
2,note_on,62,0,5
2,note_on,40,39,194
2,note_on,40,0,240
2,note_on,40,39,240
2,note_on,40,0,240
2,note_on,40,22,137
2,note_on,40,0,475
2,note_on,40,22,5
2,note_on,40,0,475
2,note_on,54,31,5
2,note_on,40,21,251
2,note_on,40,0,475
2,note_on,40,21,5
2,note_on,40,0,475
2,note_on,54,0,5
2,note_on,56,31,0
2,note_on,40,16,320
2,note_on,40,0,475
2,note_on,40,16,5
2,note_on,40,0,475
2,note_on,56,0,5
2,note_on,40,39,194
2,note_on,40,0,475
2,note_on,40,39,5
2,note_on,40,0,475
2,note_on,40,22,472
2,note_on,40,0,361
2,note_on,40,22,5
2,note_on,40,0,475
2,note_on,64,41,5
2,note_on,60,24,480
2,note_on,52,19,0
2,note_on,57,19,0
2,note_on,57,0,475
2,note_on,52,0,0
2,note_on,60,0,0
2,note_on,52,19,5
2,note_on,60,24,0
2,note_on,57,19,0
2,note_on,57,0,475
2,note_on,60,0,0
2,note_on,52,0,0
2,note_on,64,0,5
2,note_on,66,41,0
2,note_on,52,19,480
2,note_on,60,24,0
2,note_on,57,19,0
2,note_on,57,0,475
2,note_on,60,0,0
2,note_on,52,0,0
2,note_on,60,24,5
2,note_on,52,19,0
2,note_on,57,19,0
2,note_on,57,0,475
2,note_on,52,0,0
2,note_on,60,0,0
2,note_on,66,0,5
2,note_on,40,39,194
2,note_on,40,0,475
2,note_on,40,39,5
2,note_on,40,0,475
2,note_on,40,22,474
2,note_on,40,0,361
2,note_on,40,22,5
2,note_on,40,0,475
2,note_on,66,45,5
2,note_on,52,21,480
2,note_on,60,26,0
2,note_on,57,21,0
2,note_on,57,0,475
2,note_on,60,0,0
2,note_on,52,0,0
2,note_on,57,21,5
2,note_on,52,21,0
2,note_on,60,26,0
2,note_on,60,0,475
2,note_on,52,0,0
2,note_on,57,0,0
2,note_on,66,0,5
2,note_on,68,47,0
2,note_on,52,21,268
2,note_on,60,28,0
2,note_on,57,21,0
2,note_on,57,0,475
2,note_on,60,0,0
2,note_on,52,0,0
2,note_on,57,21,5
2,note_on,52,21,0
2,note_on,60,28,0
2,note_on,60,0,475
2,note_on,52,0,0
2,note_on,57,0,0
2,note_on,68,0,5
2,note_on,66,50,0
2,note_on,57,23,198
2,note_on,52,23,0
2,note_on,60,28,0
2,note_on,60,0,480
2,note_on,66,0,0
2,note_on,57,0,0
2,note_on,52,0,0
2,note_on,68,53,240
2,note_on,68,0,213
2,note_on,68,53,20
2,note_on,52,25,331
2,note_on,60,32,0
2,note_on,57,25,0
2,note_on,57,0,475
2,note_on,60,0,0
2,note_on,52,0,0
2,note_on,52,26,5
2,note_on,60,33,0
2,note_on,57,26,0
2,note_on,57,0,475
2,note_on,60,0,0
2,note_on,52,0,0
2,note_on,68,0,5
2,note_on,66,57,0
2,note_on,60,34,198
2,note_on,52,27,0
2,note_on,57,27,0
2,note_on,57,0,480
2,note_on,66,0,0
2,note_on,60,0,0
2,note_on,52,0,0
2,note_on,68,59,240
2,note_on,68,0,214
2,note_on,68,59,20
2,note_on,52,29,331
2,note_on,57,29,0
2,note_on,60,36,0
2,note_on,60,0,475
2,note_on,57,0,0
2,note_on,52,0,0
2,note_on,52,29,5
2,note_on,60,37,0
2,note_on,57,29,0
2,note_on,57,0,475
2,note_on,60,0,0
2,note_on,52,0,0
2,note_on,68,0,5
2,note_on,66,65,0
2,note_on,57,31,198
2,note_on,52,31,0
2,note_on,60,39,0
2,note_on,60,0,480
2,note_on,66,0,0
2,note_on,57,0,0
2,note_on,52,0,0
2,note_on,68,61,240
2,note_on,68,0,240
2,note_on,69,63,0
2,note_on,57,34,331
2,note_on,52,34,0
2,note_on,60,41,0
2,note_on,60,0,475
2,note_on,52,0,0
2,note_on,57,0,0
2,note_on,60,46,5
2,note_on,52,34,0
2,note_on,57,34,0
2,note_on,57,0,475
2,note_on,52,0,0
2,note_on,60,0,0
2,note_on,69,0,5
2,note_on,68,74,0
2,note_on,57,35,198
2,note_on,52,35,0
2,note_on,60,46,0
2,note_on,60,0,300
2,note_on,68,0,0
2,note_on,57,0,0
2,note_on,52,0,0
2,note_on,52,35,0
2,note_on,57,36,60
2,note_on,60,46,60
2,note_on,69,80,60
2,note_on,69,0,480
2,note_on,52,0,0
2,note_on,57,0,0
2,note_on,60,0,0
2,note_on,28,70,0
2,note_on,40,84,0
2,note_on,40,0,149
2,note_on,28,0,0
2,note_on,52,61,0
2,note_on,62,72,0
2,note_on,56,61,0
2,note_on,56,0,480
2,note_on,62,0,0
2,note_on,52,0,0
2,note_on,62,61,0
2,note_on,64,73,0
2,note_on,56,61,0
2,note_on,56,0,480
2,note_on,64,0,0
2,note_on,62,0,0
2,note_on,68,84,0
2,note_on,59,70,0
2,note_on,62,70,0
2,note_on,62,0,480
2,note_on,59,0,0
2,note_on,68,0,0
2,note_on,64,72,0
2,note_on,56,61,0
2,note_on,62,61,0
2,note_on,62,0,480
2,note_on,56,0,0
2,note_on,64,0,0
2,note_on,62,73,0
2,note_on,52,61,0
2,note_on,56,61,0
2,note_on,56,0,480
2,note_on,52,0,0
2,note_on,62,0,0
2,note_on,45,84,0
2,note_on,33,70,0
2,note_on,33,0,160
2,note_on,45,0,0
2,note_on,52,61,0
2,note_on,61,73,0
2,note_on,61,0,480
2,note_on,52,0,0
2,note_on,57,62,0
2,note_on,64,74,0
2,note_on,64,0,480
2,note_on,57,0,0
2,note_on,61,70,0
2,note_on,69,84,0
2,note_on,69,0,480
2,note_on,61,0,0
2,note_on,64,73,0
2,note_on,57,61,0
2,note_on,57,0,480
2,note_on,64,0,0
2,note_on,61,73,0
2,note_on,52,61,0
2,note_on,52,0,480
2,note_on,61,0,0
2,note_on,47,84,0
2,note_on,35,70,0
2,note_on,35,0,205
2,note_on,47,0,0
2,note_on,59,73,0
2,note_on,54,61,0
2,note_on,54,0,480
2,note_on,59,0,0
2,note_on,63,73,0
2,note_on,57,61,0
2,note_on,57,0,480
2,note_on,63,0,0
2,note_on,66,84,0
2,note_on,59,70,0
2,note_on,59,0,480
2,note_on,66,0,0
2,note_on,57,61,0
2,note_on,63,72,0
2,note_on,63,0,480
2,note_on,57,0,0
2,note_on,59,72,0
2,note_on,54,61,0
2,note_on,54,0,480
2,note_on,59,0,0
2,note_on,52,84,0
2,note_on,40,70,0
2,note_on,40,0,183
2,note_on,52,0,0
2,note_on,52,62,0
2,note_on,59,74,0
2,note_on,59,0,480
2,note_on,52,0,0
2,note_on,56,62,0
2,note_on,64,74,0
2,note_on,64,0,480
2,note_on,56,0,0
2,note_on,68,84,0
2,note_on,59,70,0
2,note_on,59,0,480
2,note_on,68,0,0
2,note_on,56,62,0
2,note_on,64,74,0
2,note_on,64,0,480
2,note_on,56,0,0
2,note_on,59,74,0
2,note_on,52,62,0
2,note_on,52,0,480
2,note_on,59,0,0
2,note_on,42,70,0
2,note_on,54,84,0
2,note_on,54,0,183
2,note_on,42,0,0
2,note_on,54,62,0
2,note_on,62,74,0
2,note_on,62,0,480
2,note_on,54,0,0
2,note_on,69,74,0
2,note_on,57,62,0
2,note_on,57,0,480
2,note_on,69,0,0
2,note_on,35,70,0
2,note_on,47,84,0
2,note_on,47,0,353
2,note_on,35,0,0
2,note_on,54,62,0
2,note_on,62,74,0
2,note_on,54,0,480
2,note_on,69,74,0
2,note_on,59,62,0
2,note_on,59,0,480
2,note_on,69,0,0
2,note_on,62,0,0
2,note_on,52,84,0
2,note_on,40,70,0
2,note_on,40,0,183
2,note_on,52,0,0
2,note_on,52,62,0
2,note_on,61,74,0
2,note_on,61,0,480
2,note_on,52,0,0
2,note_on,56,62,0
2,note_on,68,74,0
2,note_on,68,0,480
2,note_on,56,0,0
2,note_on,45,84,0
2,note_on,33,70,0
2,note_on,33,0,353
2,note_on,45,0,0
2,note_on,61,74,0
2,note_on,52,62,0
2,note_on,52,0,480
2,note_on,68,74,0
2,note_on,57,62,0
2,note_on,57,0,480
2,note_on,68,0,0
2,note_on,61,0,0
2,note_on,38,70,0
2,note_on,50,84,0
2,note_on,50,0,183
2,note_on,38,0,0
2,note_on,50,62,0
2,note_on,59,74,0
2,note_on,59,0,480
2,note_on,50,0,0
2,note_on,54,62,0
2,note_on,66,74,0
2,note_on,66,0,480
2,note_on,54,0,0
2,note_on,37,70,0
2,note_on,49,84,0
2,note_on,49,0,353
2,note_on,37,0,0
2,note_on,61,74,0
2,note_on,56,62,0
2,note_on,56,0,480
2,note_on,61,0,0
2,note_on,65,74,0
2,note_on,59,62,0
2,note_on,59,0,480
2,note_on,65,0,0
2,note_on,42,84,0
2,note_on,30,70,0
2,note_on,30,0,183
2,note_on,42,0,0
2,note_on,54,62,0
2,note_on,61,74,0
2,note_on,61,0,480
2,note_on,57,62,0
2,note_on,66,74,0
2,note_on,66,0,480
2,note_on,57,0,0
2,note_on,54,0,0
2,note_on,35,70,0
2,note_on,47,84,0
2,note_on,47,0,353
2,note_on,35,0,0
2,note_on,59,74,0
2,note_on,53,62,0
2,note_on,59,0,480
2,note_on,63,74,0
2,note_on,57,62,0
2,note_on,57,0,480
2,note_on,63,0,0
2,note_on,53,0,0
2,note_on,40,84,0
2,note_on,28,70,0
2,note_on,28,0,183
2,note_on,40,0,0
2,note_on,56,72,0
2,note_on,47,61,0
2,note_on,47,0,480
2,note_on,56,0,0
2,note_on,59,73,0
2,note_on,52,61,0
2,note_on,52,0,480
2,note_on,59,0,0
2,note_on,56,70,0
2,note_on,62,84,0
2,note_on,62,0,480
2,note_on,56,0,0
2,note_on,59,72,0
2,note_on,52,61,0
2,note_on,52,0,480
2,note_on,59,0,0
2,note_on,47,61,0
2,note_on,56,73,0
2,note_on,56,0,480
2,note_on,47,0,0
2,note_on,33,70,0
2,note_on,45,84,0
2,note_on,45,0,160
2,note_on,33,0,0
2,note_on,52,61,0
2,note_on,61,73,0
2,note_on,61,0,480
2,note_on,52,0,0
2,note_on,57,62,0
2,note_on,64,74,0
2,note_on,64,0,480
2,note_on,57,0,0
2,note_on,61,70,0
2,note_on,69,84,0
2,note_on,69,0,480
2,note_on,61,0,0
2,note_on,64,73,0
2,note_on,57,61,0
2,note_on,57,0,480
2,note_on,64,0,0
2,note_on,61,73,0
2,note_on,52,61,0
2,note_on,52,0,480
2,note_on,61,0,0
2,note_on,35,70,0
2,note_on,47,84,0
2,note_on,47,0,251
2,note_on,35,0,0
2,note_on,59,73,0
2,note_on,54,61,0
2,note_on,54,0,480
2,note_on,59,0,0
2,note_on,63,73,0
2,note_on,57,61,0
2,note_on,57,0,480
2,note_on,63,0,0
2,note_on,59,70,0
2,note_on,66,84,0
2,note_on,66,0,480
2,note_on,59,0,0
2,note_on,57,61,0
2,note_on,63,72,0
2,note_on,63,0,480
2,note_on,57,0,0
2,note_on,59,72,0
2,note_on,54,61,0
2,note_on,54,0,480
2,note_on,59,0,0
2,note_on,52,84,0
2,note_on,40,70,0
2,note_on,40,0,183
2,note_on,52,0,0
2,note_on,52,62,0
2,note_on,59,74,0
2,note_on,59,0,480
2,note_on,52,0,0
2,note_on,56,62,0
2,note_on,64,74,0
2,note_on,64,0,480
2,note_on,56,0,0
2,note_on,59,70,0
2,note_on,68,84,0
2,note_on,68,0,480
2,note_on,59,0,0
2,note_on,56,62,0
2,note_on,64,74,0
2,note_on,64,0,480
2,note_on,56,0,0
2,note_on,59,74,0
2,note_on,52,62,0
2,note_on,52,0,480
2,note_on,59,0,0
2,note_on,52,84,0
2,note_on,40,70,0
2,note_on,40,0,183
2,note_on,52,0,0
2,note_on,58,74,0
2,note_on,52,62,0
2,note_on,52,0,480
2,note_on,58,0,0
2,note_on,61,74,0
2,note_on,54,62,0
2,note_on,54,0,480
2,note_on,61,0,0
2,note_on,58,70,0
2,note_on,64,84,0
2,note_on,64,0,480
2,note_on,58,0,0
2,note_on,54,62,0
2,note_on,61,74,0
2,note_on,61,0,480
2,note_on,54,0,0
2,note_on,52,62,0
2,note_on,58,74,0
2,note_on,58,0,480
2,note_on,52,0,0
2,note_on,28,70,0
2,note_on,40,84,0
2,note_on,40,0,183
2,note_on,28,0,0
2,note_on,52,62,0
2,note_on,58,74,0
2,note_on,58,0,480
2,note_on,52,0,0
2,note_on,54,62,0
2,note_on,61,74,0
2,note_on,61,0,480
2,note_on,54,0,0
2,note_on,64,84,0
2,note_on,58,70,0
2,note_on,58,0,353
2,note_on,64,0,0
2,note_on,61,74,0
2,note_on,54,62,0
2,note_on,54,0,480
2,note_on,61,0,0
2,note_on,52,62,0
2,note_on,58,74,0
2,note_on,58,0,480
2,note_on,52,0,0
2,note_on,40,70,0
2,note_on,52,84,0
2,note_on,52,0,331
2,note_on,40,0,0
2,note_on,52,62,0
2,note_on,60,74,0
2,note_on,60,0,480
2,note_on,52,0,0
2,note_on,56,62,0
2,note_on,63,74,0
2,note_on,63,0,480
2,note_on,56,0,0
2,note_on,66,84,0
2,note_on,60,70,0
2,note_on,60,0,480
2,note_on,66,0,0
2,note_on,56,62,0
2,note_on,63,74,0
2,note_on,63,0,480
2,note_on,56,0,0
2,note_on,52,62,0
2,note_on,60,74,0
2,note_on,60,0,480
2,note_on,52,0,0
2,note_on,40,84,0
2,note_on,28,70,0
2,note_on,28,0,366
2,note_on,40,0,0
2,note_on,52,62,0
2,note_on,59,74,0
2,note_on,59,0,480
2,note_on,52,0,0
2,note_on,56,62,0
2,note_on,63,74,0
2,note_on,63,0,480
2,note_on,56,0,0
2,note_on,60,70,0
2,note_on,66,84,0
2,note_on,66,0,274
2,note_on,60,0,0
2,note_on,63,74,0
2,note_on,56,62,0
2,note_on,56,0,480
2,note_on,63,0,0
2,note_on,60,74,0
2,note_on,52,62,0
2,note_on,52,0,480
2,note_on,60,0,0
2,note_on,40,70,0
2,note_on,52,84,0
2,note_on,52,0,183
2,note_on,40,0,0
2,note_on,52,74,0
2,note_on,61,62,0
2,note_on,61,0,480
2,note_on,52,0,0
2,note_on,56,62,0
2,note_on,64,74,0
2,note_on,64,0,480
2,note_on,56,0,0
2,note_on,39,70,0
2,note_on,51,84,0
2,note_on,51,0,228
2,note_on,39,0,0
2,note_on,51,62,0
2,note_on,59,74,0
2,note_on,59,0,480
2,note_on,51,0,0
2,note_on,63,74,0
2,note_on,56,62,0
2,note_on,56,0,480
2,note_on,63,0,0
2,note_on,37,70,0
2,note_on,49,84,0
2,note_on,49,0,200
2,note_on,37,0,0
2,note_on,56,74,0
2,note_on,49,62,0
2,note_on,49,0,480
2,note_on,56,0,0
2,note_on,61,75,0
2,note_on,52,63,0
2,note_on,52,0,480
2,note_on,61,0,0
2,note_on,32,72,0
2,note_on,44,88,0
2,note_on,44,0,353
2,note_on,32,0,0
2,note_on,47,66,0
2,note_on,56,79,0
2,note_on,56,0,480
2,note_on,47,0,0
2,note_on,51,67,0
2,note_on,59,80,0
2,note_on,59,0,480
2,note_on,51,0,0
2,note_on,41,88,0
2,note_on,29,72,0
2,note_on,29,0,91
2,note_on,41,0,0
2,note_on,53,52,390
2,note_on,59,54,30
2,note_on,63,56,30
2,note_on,68,59,30
2,note_on,68,0,480
2,note_on,53,0,0
2,note_on,59,0,0
2,note_on,63,0,0
2,note_on,34,44,232
2,note_on,34,0,240
2,note_on,50,34,0
2,note_on,50,0,240
2,note_on,34,44,240
2,note_on,34,0,240
2,note_on,50,34,0
2,note_on,50,0,240
2,note_on,34,46,240
2,note_on,34,0,240
2,note_on,50,34,0
2,note_on,50,0,240
2,note_on,34,48,240
2,note_on,34,0,240
2,note_on,50,34,0
2,note_on,50,0,240
2,note_on,50,49,240
2,note_on,50,0,240
2,note_on,65,34,0
2,note_on,65,0,240
2,note_on,50,52,240
2,note_on,50,0,240
2,note_on,65,36,0
2,note_on,65,0,240
2,note_on,50,53,240
2,note_on,50,0,240
2,note_on,65,38,0
2,note_on,65,0,240
2,note_on,50,55,240
2,note_on,50,0,240
2,note_on,65,40,0
2,note_on,65,0,240
2,note_on,34,50,240
2,note_on,34,0,171
2,note_on,56,45,229
2,note_on,53,37,0
2,note_on,46,37,0
2,note_on,46,0,240
2,note_on,53,0,0
2,note_on,56,0,0
2,note_on,53,37,480
2,note_on,62,45,0
2,note_on,56,37,0
2,note_on,56,0,240
2,note_on,62,0,0
2,note_on,53,0,0
2,note_on,62,36,480
2,note_on,56,36,0
2,note_on,65,44,0
2,note_on,65,0,240
2,note_on,56,0,0
2,note_on,62,0,0
2,note_on,68,43,480
2,note_on,58,36,0
2,note_on,65,36,0
2,note_on,65,0,240
2,note_on,58,0,0
2,note_on,68,0,0
2,note_on,65,35,480
2,note_on,68,35,0
2,note_on,74,42,0
2,note_on,74,0,240
2,note_on,68,0,0
2,note_on,65,0,0
2,note_on,68,39,480
2,note_on,74,39,0
2,note_on,77,46,0
2,note_on,77,0,240
2,note_on,74,0,0
2,note_on,68,0,0
2,note_on,80,45,480
2,note_on,77,38,0
2,note_on,70,38,0
2,note_on,70,0,240
2,note_on,77,0,0
2,note_on,80,0,0
2,note_on,77,37,480
2,note_on,80,37,0
2,note_on,86,44,0
2,note_on,86,0,2160
2,note_on,80,0,0
2,note_on,77,0,0
2,note_on,84,44,0
2,note_on,75,37,0
2,note_on,80,37,0
2,note_on,80,0,720
2,note_on,75,0,0
2,note_on,84,0,0
2,note_on,75,37,0
2,note_on,84,44,0
2,note_on,80,37,0
2,note_on,84,0,720
2,note_on,75,0,0
2,note_on,74,37,0
2,note_on,82,44,0
2,note_on,82,0,240
2,note_on,74,0,0
2,note_on,80,0,0
2,note_on,51,42,1920
2,note_on,51,0,120
2,note_on,63,28,11
2,note_on,67,28,0
2,note_on,72,48,0
2,note_on,72,0,240
2,note_on,70,35,0
2,note_on,70,0,225
2,note_on,67,0,0
2,note_on,63,0,0
2,note_on,46,41,0
2,note_on,46,0,120
2,note_on,62,23,120
2,note_on,68,27,0
2,note_on,57,33,0
2,note_on,57,0,223
2,note_on,58,33,0
2,note_on,58,0,232
2,note_on,68,0,0
2,note_on,62,0,0
2,note_on,51,42,0
2,note_on,51,0,120
2,note_on,67,28,120
2,note_on,63,28,0
2,note_on,72,48,0
2,note_on,72,0,228
2,note_on,70,35,0
2,note_on,70,0,230
2,note_on,63,0,0
2,note_on,67,0,0
2,note_on,46,41,0
2,note_on,46,0,120
2,note_on,62,23,120
2,note_on,57,33,0
2,note_on,68,27,0
2,note_on,57,0,211
2,note_on,58,33,0
2,note_on,58,0,234
2,note_on,68,0,0
2,note_on,62,0,0
2,note_on,51,42,0
2,note_on,51,0,120
2,note_on,58,28,120
2,note_on,63,28,0
2,note_on,68,48,0
2,note_on,68,0,225
2,note_on,67,36,0
2,note_on,67,0,226
2,note_on,63,0,0
2,note_on,58,0,0
2,note_on,44,43,0
2,note_on,44,0,120
2,note_on,60,29,120
2,note_on,67,50,0
2,note_on,56,29,0
2,note_on,67,0,225
2,note_on,65,37,0
2,note_on,65,0,229
2,note_on,56,0,0
2,note_on,60,0,0
2,note_on,46,45,0
2,note_on,46,0,80
2,note_on,63,50,120
2,note_on,53,29,0
2,note_on,56,29,0
2,note_on,63,0,240
2,note_on,62,36,0
2,note_on,62,0,240
2,note_on,56,0,0
2,note_on,53,0,0
2,note_on,46,41,0
2,note_on,46,0,105
2,note_on,53,27,120
2,note_on,56,27,0
2,note_on,60,46,0
2,note_on,60,0,240
2,note_on,58,34,0
2,note_on,58,0,240
2,note_on,56,0,0
2,note_on,53,0,0
2,note_on,51,42,0
2,note_on,51,0,107
2,note_on,63,28,120
2,note_on,67,28,0
2,note_on,72,48,0
2,note_on,72,0,188
2,note_on,70,35,0
2,note_on,70,0,230
2,note_on,67,0,0
2,note_on,63,0,0
2,note_on,46,41,0
2,note_on,46,0,120
2,note_on,57,33,120
2,note_on,68,27,0
2,note_on,62,23,0
2,note_on,57,0,177
2,note_on,58,33,0
2,note_on,58,0,230
2,note_on,62,0,0
2,note_on,68,0,0
2,note_on,51,42,0
2,note_on,51,0,120
2,note_on,72,48,120
2,note_on,63,28,0
2,note_on,67,28,0
2,note_on,72,0,171
2,note_on,70,35,0
2,note_on,70,0,229
2,note_on,67,0,0
2,note_on,63,0,0
2,note_on,46,41,0
2,note_on,46,0,120
2,note_on,62,23,120
2,note_on,68,27,0
2,note_on,57,33,0
2,note_on,57,0,165
2,note_on,58,33,0
2,note_on,58,0,233
2,note_on,68,0,0
2,note_on,62,0,0
2,note_on,51,42,0
2,note_on,51,0,120
2,note_on,67,28,120
2,note_on,77,48,0
2,note_on,70,28,0
2,note_on,77,0,171
2,note_on,75,36,0
2,note_on,75,0,229
2,note_on,70,0,0
2,note_on,67,0,0
2,note_on,44,43,0
2,note_on,44,0,120
2,note_on,67,50,120
2,note_on,60,29,0
2,note_on,56,29,0
2,note_on,67,0,171
2,note_on,65,37,0
2,note_on,65,0,226
2,note_on,56,0,0
2,note_on,60,0,0
2,note_on,46,48,0
2,note_on,46,0,200
2,note_on,62,38,240
2,note_on,56,38,0
2,note_on,53,38,0
2,note_on,53,0,240
2,note_on,56,0,0
2,note_on,62,0,0
2,note_on,56,38,0
2,note_on,53,38,0
2,note_on,62,38,0
2,note_on,62,0,120
2,note_on,53,0,0
2,note_on,56,0,0
2,note_on,53,38,0
2,note_on,56,38,0
2,note_on,62,38,0
2,note_on,62,0,240
2,note_on,56,0,0
2,note_on,53,0,0
2,note_on,56,38,0
2,note_on,62,38,0
2,note_on,53,38,0
2,note_on,53,0,240
2,note_on,62,0,0
2,note_on,56,0,0
2,note_on,58,49,0
2,note_on,61,58,0
2,note_on,51,49,0
2,note_on,51,0,234
2,note_on,61,0,0
2,note_on,58,0,0
2,note_on,51,49,120
2,note_on,39,41,0
2,note_on,39,0,120
2,note_on,51,0,0
2,note_on,51,50,0
2,note_on,39,41,0
2,note_on,39,0,120
2,note_on,51,0,0
2,note_on,56,42,120
2,note_on,60,51,0
2,note_on,60,0,120
2,note_on,56,0,0
2,note_on,43,42,120
2,note_on,55,51,0
2,note_on,55,0,120
2,note_on,43,0,0
2,note_on,42,44,120
2,note_on,54,52,0
2,note_on,54,0,120
2,note_on,42,0,0
2,note_on,57,49,120
2,note_on,63,58,0
2,note_on,63,0,240
2,note_on,57,0,0
2,note_on,53,49,120
2,note_on,41,41,0
2,note_on,41,0,120
2,note_on,53,0,0
2,note_on,41,41,0
2,note_on,53,50,0
2,note_on,53,0,120
2,note_on,41,0,0
2,note_on,62,51,120
2,note_on,58,42,0
2,note_on,58,0,120
2,note_on,62,0,0
2,note_on,45,42,120
2,note_on,57,51,0
2,note_on,57,0,120
2,note_on,45,0,0
2,note_on,44,44,120
2,note_on,56,52,0
2,note_on,56,0,120
2,note_on,44,0,0
2,note_on,59,49,120
2,note_on,65,58,0
2,note_on,65,0,240
2,note_on,59,0,0
2,note_on,43,41,120
2,note_on,55,49,0
2,note_on,55,0,120
2,note_on,43,0,0
2,note_on,43,41,0
2,note_on,55,50,0
2,note_on,55,0,120
2,note_on,43,0,0
2,note_on,63,51,120
2,note_on,60,42,0
2,note_on,60,0,120
2,note_on,63,0,0
2,note_on,48,51,120
2,note_on,36,42,0
2,note_on,36,0,240
2,note_on,48,0,0
2,note_on,56,46,240
2,note_on,63,53,0
2,note_on,63,0,240
2,note_on,56,0,0
2,note_on,47,62,0
2,note_on,47,0,240
2,note_on,56,42,240
2,note_on,62,51,0
2,note_on,62,0,240
2,note_on,56,0,0
2,note_on,46,60,0
2,note_on,46,0,240
2,note_on,51,37,240
2,note_on,39,31,0
2,note_on,39,0,183
2,note_on,51,0,0
2,note_on,43,31,0
2,note_on,55,37,0
2,note_on,55,0,240
2,note_on,43,0,0
2,note_on,56,38,0
2,note_on,44,32,0
2,note_on,44,0,143
2,note_on,56,0,0
2,note_on,55,46,0
2,note_on,43,38,0
2,note_on,43,0,240
2,note_on,55,0,0
2,note_on,39,33,0
2,note_on,51,39,0
2,note_on,51,0,160
2,note_on,39,0,0
2,note_on,46,34,0
2,note_on,58,41,0
2,note_on,58,0,240
2,note_on,46,0,0
2,note_on,45,39,0
2,note_on,57,49,0
2,note_on,57,0,171
2,note_on,45,0,0
2,note_on,41,36,0
2,note_on,53,44,0
2,note_on,53,0,240
2,note_on,41,0,0
2,note_on,46,45,0
2,note_on,58,45,0
2,note_on,58,0,160
2,note_on,46,0,0
2,note_on,45,44,0
2,note_on,57,53,0
2,note_on,57,0,240
2,note_on,45,0,0
2,note_on,41,38,0
2,note_on,53,47,0
2,note_on,53,0,131
2,note_on,41,0,0
2,note_on,60,49,0
2,note_on,48,39,0
2,note_on,48,0,240
2,note_on,60,0,0
2,note_on,59,59,0
2,note_on,47,52,0
2,note_on,47,0,183
2,note_on,59,0,0
2,note_on,43,43,0
2,note_on,55,52,0
2,note_on,55,0,240
2,note_on,43,0,0
2,note_on,60,53,0
2,note_on,48,43,0
2,note_on,48,0,148
2,note_on,60,0,0
2,note_on,59,63,0
2,note_on,47,54,0
2,note_on,47,0,240
2,note_on,59,0,0
2,note_on,55,55,0
2,note_on,43,46,0
2,note_on,43,0,177
2,note_on,55,0,0
2,note_on,62,55,0
2,note_on,50,47,0
2,note_on,50,0,240
2,note_on,62,0,0
2,note_on,49,56,0
2,note_on,61,68,0
2,note_on,61,0,194
2,note_on,49,0,0
2,note_on,45,48,0
2,note_on,57,57,0
2,note_on,57,0,240
2,note_on,45,0,0
2,note_on,52,62,0
2,note_on,64,75,0
2,note_on,64,0,183
2,note_on,52,0,0
2,note_on,51,50,0
2,note_on,63,59,0
2,note_on,63,0,240
2,note_on,51,0,0
2,note_on,47,60,0
2,note_on,59,74,0
2,note_on,59,0,166
2,note_on,47,0,0
2,note_on,50,53,0
2,note_on,62,62,0
2,note_on,62,0,240
2,note_on,50,0,0
2,note_on,37,61,0
2,note_on,49,73,0
2,note_on,49,0,240
2,note_on,37,0,0
2,note_on,61,44,120
2,note_on,57,44,0
2,note_on,69,53,0
2,note_on,66,53,0
2,note_on,66,0,120
2,note_on,61,0,0
2,note_on,57,0,0
2,note_on,69,0,0
2,note_on,69,55,0
2,note_on,66,55,0
2,note_on,61,46,0
2,note_on,57,46,0
2,note_on,57,0,240
2,note_on,69,0,0
2,note_on,66,0,0
2,note_on,61,0,0
2,note_on,66,56,0
2,note_on,69,56,0
2,note_on,57,47,0
2,note_on,61,47,0
2,note_on,61,0,240
2,note_on,66,0,0
2,note_on,69,0,0
2,note_on,57,0,0
2,note_on,69,58,0
2,note_on,61,49,0
2,note_on,57,49,0
2,note_on,66,58,0
2,note_on,66,0,240
2,note_on,69,0,0
2,note_on,61,0,0
2,note_on,57,0,0
2,note_on,57,50,0
2,note_on,66,59,0
2,note_on,69,59,0
2,note_on,61,50,0
2,note_on,61,0,240
2,note_on,57,0,0
2,note_on,66,0,0
2,note_on,69,0,0
2,note_on,57,60,0
2,note_on,69,72,0
2,note_on,61,60,0
2,note_on,66,72,0
2,note_on,66,0,720
2,note_on,57,0,0
2,note_on,69,0,0
2,note_on,61,0,0
2,note_on,37,58,480
2,note_on,49,69,0
2,note_on,49,0,240
2,note_on,37,0,0
2,note_on,48,86,0
2,note_on,36,73,0
2,note_on,36,0,177
2,note_on,48,0,0
2,note_on,54,45,120
2,note_on,63,53,0
2,note_on,57,45,0
2,note_on,57,0,120
2,note_on,63,0,0
2,note_on,54,0,0
2,note_on,63,55,0
2,note_on,54,47,0
2,note_on,57,47,0
2,note_on,57,0,240
2,note_on,54,0,0
2,note_on,63,0,0
2,note_on,54,54,0
2,note_on,57,54,0
2,note_on,63,65,0
2,note_on,63,0,240
2,note_on,57,0,0
2,note_on,54,0,0
2,note_on,36,60,240
2,note_on,48,72,0
2,note_on,48,0,240
2,note_on,36,0,0
2,note_on,35,74,0
2,note_on,47,88,0
2,note_on,47,0,185
2,note_on,35,0,0
2,note_on,63,59,120
2,note_on,54,50,0
2,note_on,57,50,0
2,note_on,57,0,120
2,note_on,54,0,0
2,note_on,63,0,0
2,note_on,63,58,0
2,note_on,54,49,0
2,note_on,57,49,0
2,note_on,57,0,240
2,note_on,54,0,0
2,note_on,63,0,0
2,note_on,57,48,0
2,note_on,54,48,0
2,note_on,63,57,0
2,note_on,63,0,240
2,note_on,54,0,0
2,note_on,57,0,0
2,note_on,47,72,240
2,note_on,35,60,0
2,note_on,35,0,240
2,note_on,47,0,0
2,note_on,46,88,0
2,note_on,34,74,0
2,note_on,34,0,17
2,note_on,46,0,0
2,note_on,63,44,720
2,note_on,57,44,0
2,note_on,60,44,0
2,note_on,60,0,240
2,note_on,57,0,0
2,note_on,63,0,0
2,note_on,58,43,0
2,note_on,62,43,0
2,note_on,56,43,0
2,note_on,56,0,240
2,note_on,62,0,0
2,note_on,58,0,0
2,note_on,58,47,0
2,note_on,55,47,0
2,note_on,63,47,0
2,note_on,63,0,240
2,note_on,55,0,0
2,note_on,58,0,0
2,note_on,69,46,720
2,note_on,72,46,0
2,note_on,75,46,0
2,note_on,75,0,240
2,note_on,72,0,0
2,note_on,69,0,0
2,note_on,70,46,0
2,note_on,74,46,0
2,note_on,68,46,0
2,note_on,68,0,240
2,note_on,74,0,0
2,note_on,70,0,0
2,note_on,67,46,0
2,note_on,75,46,0
2,note_on,70,46,0
2,note_on,70,0,240
2,note_on,75,0,0
2,note_on,67,0,0
2,note_on,87,56,720
2,note_on,81,56,0
2,note_on,84,56,0
2,note_on,84,0,240
2,note_on,81,0,0
2,note_on,87,0,0
2,note_on,82,56,0
2,note_on,80,56,0
2,note_on,86,56,0
2,note_on,86,0,240
2,note_on,80,0,0
2,note_on,82,0,0
2,note_on,82,57,0
2,note_on,79,57,0
2,note_on,87,57,0
2,note_on,87,0,240
2,note_on,79,0,0
2,note_on,82,0,0
2,note_on,81,58,720
2,note_on,84,58,0
2,note_on,87,58,0
2,note_on,87,0,240
2,note_on,84,0,0
2,note_on,81,0,0
2,note_on,82,58,0
2,note_on,80,58,0
2,note_on,86,58,0
2,note_on,86,0,240
2,note_on,80,0,0
2,note_on,82,0,0
2,note_on,82,59,0
2,note_on,87,59,0
2,note_on,79,59,0
2,note_on,79,0,240
2,note_on,87,0,0
2,note_on,82,0,0
2,note_on,69,72,480
2,note_on,60,72,0
2,note_on,63,72,0
2,note_on,65,72,0
2,note_on,65,0,198
2,note_on,69,0,0
2,note_on,60,0,0
2,note_on,63,0,0
2,note_on,47,69,567
2,note_on,51,73,30
2,note_on,56,77,30
2,note_on,63,80,30
2,note_on,63,0,155
2,note_on,47,0,0
2,note_on,51,0,0
2,note_on,56,0,0
2,note_on,35,91,667
2,note_on,35,0,154
2,note_on,34,80,1200
2,note_on,34,0,42
2,note_on,41,55,0
2,note_on,41,0,240
2,note_on,46,55,0
2,note_on,46,0,240
2,note_on,50,55,0
2,note_on,50,0,240
2,note_on,46,55,0
2,note_on,46,0,240
2,note_on,41,55,0
2,note_on,41,0,240
2,note_on,34,66,0
2,note_on,34,0,240
2,note_on,41,55,0
2,note_on,41,0,240
2,note_on,46,55,0
2,note_on,46,0,240
2,note_on,53,55,0
2,note_on,53,0,240
2,note_on,46,55,0
2,note_on,46,0,240
2,note_on,41,55,0
2,note_on,41,0,240
2,note_on,39,60,0
2,note_on,39,0,99
2,note_on,46,54,0
2,note_on,46,0,240
2,note_on,51,54,0
2,note_on,51,0,240
2,note_on,55,54,0
2,note_on,55,0,240
2,note_on,51,54,0
2,note_on,51,0,240
2,note_on,46,53,0
2,note_on,46,0,240
2,note_on,39,60,0
2,note_on,39,0,240
2,note_on,48,53,0
2,note_on,48,0,240
2,note_on,51,53,0
2,note_on,51,0,240
2,note_on,58,53,0
2,note_on,58,0,240
2,note_on,51,53,0
2,note_on,51,0,240
2,note_on,48,53,0
2,note_on,48,0,240
2,note_on,41,60,0
2,note_on,41,0,85
2,note_on,48,52,0
2,note_on,48,0,240
2,note_on,51,52,0
2,note_on,51,0,240
2,note_on,58,53,0
2,note_on,58,0,240
2,note_on,51,53,0
2,note_on,51,0,240
2,note_on,48,53,0
2,note_on,48,0,240
2,note_on,41,60,0
2,note_on,41,0,42
2,note_on,48,53,0
2,note_on,48,0,240
2,note_on,51,53,0
2,note_on,51,0,240
2,note_on,57,54,0
2,note_on,57,0,240
2,note_on,51,54,0
2,note_on,51,0,240
2,note_on,48,54,0
2,note_on,48,0,240
2,note_on,46,59,0
2,note_on,46,0,225
2,note_on,53,51,0
2,note_on,53,0,184
2,note_on,58,51,0
2,note_on,58,0,240
2,note_on,62,51,0
2,note_on,62,0,240
2,note_on,58,51,0
2,note_on,58,0,240
2,note_on,53,51,0
2,note_on,53,0,240
2,note_on,46,54,0
2,note_on,46,0,240
2,note_on,53,51,0
2,note_on,53,0,240
2,note_on,58,51,0
2,note_on,58,0,240
2,note_on,65,51,0
2,note_on,65,0,240
2,note_on,58,51,0
2,note_on,58,0,240
2,note_on,53,51,0
2,note_on,53,0,240
2,note_on,46,58,0
2,note_on,46,0,188
2,note_on,55,47,0
2,note_on,55,0,240
2,note_on,60,48,0
2,note_on,60,0,240
2,note_on,64,50,0
2,note_on,64,0,240
2,note_on,60,51,0
2,note_on,60,0,240
2,note_on,55,53,0
2,note_on,55,0,240
2,note_on,46,54,0
2,note_on,46,0,198
2,note_on,56,51,0
2,note_on,56,0,240
2,note_on,60,51,0
2,note_on,60,0,240
2,note_on,65,51,0
2,note_on,65,0,240
2,note_on,60,51,0
2,note_on,60,0,240
2,note_on,56,51,0
2,note_on,56,0,240
2,note_on,46,58,0
2,note_on,46,0,188
2,note_on,53,47,0
2,note_on,53,0,240
2,note_on,56,48,0
2,note_on,56,0,240
2,note_on,62,50,0
2,note_on,62,0,240
2,note_on,56,51,0
2,note_on,56,0,240
2,note_on,53,53,0
2,note_on,53,0,240
2,note_on,46,54,0
2,note_on,46,0,198
2,note_on,51,51,0
2,note_on,51,0,240
2,note_on,55,51,0
2,note_on,55,0,240
2,note_on,63,51,0
2,note_on,63,0,240
2,note_on,55,51,0
2,note_on,55,0,240
2,note_on,51,51,0
2,note_on,51,0,240
2,note_on,46,58,0
2,note_on,46,0,188
2,note_on,51,47,0
2,note_on,51,0,240
2,note_on,56,48,0
2,note_on,56,0,240
2,note_on,60,50,0
2,note_on,60,0,240
2,note_on,56,51,0
2,note_on,56,0,240
2,note_on,51,53,0
2,note_on,51,0,240
2,note_on,46,54,0
2,note_on,46,0,198
2,note_on,53,51,0
2,note_on,53,0,240
2,note_on,56,51,0
2,note_on,56,0,240
2,note_on,62,51,0
2,note_on,62,0,240
2,note_on,56,51,0
2,note_on,56,0,240
2,note_on,53,51,0
2,note_on,53,0,240
2,note_on,47,54,0
2,note_on,47,0,137
2,note_on,53,48,0
2,note_on,53,0,240
2,note_on,55,48,0
2,note_on,55,0,240
2,note_on,62,48,0
2,note_on,62,0,240
2,note_on,55,48,0
2,note_on,55,0,240
2,note_on,53,48,0
2,note_on,53,0,240
2,note_on,48,54,0
2,note_on,48,0,171
2,note_on,51,46,0
2,note_on,51,0,240
2,note_on,55,48,0
2,note_on,55,0,240
2,note_on,63,51,0
2,note_on,63,0,240
2,note_on,54,53,0
2,note_on,54,0,240
2,note_on,51,49,0
2,note_on,51,0,240
2,note_on,50,80,0
2,note_on,50,0,85
2,note_on,56,55,0
2,note_on,56,0,240
2,note_on,58,55,0
2,note_on,58,0,240
2,note_on,65,55,0
2,note_on,65,0,240
2,note_on,58,55,0
2,note_on,58,0,240
2,note_on,56,55,0
2,note_on,56,0,240
2,note_on,46,66,0
2,note_on,46,0,126
2,note_on,53,55,0
2,note_on,53,0,240
2,note_on,58,55,0
2,note_on,58,0,240
2,note_on,62,55,0
2,note_on,62,0,240
2,note_on,58,55,0
2,note_on,58,0,240
2,note_on,53,55,0
2,note_on,53,0,240
2,note_on,39,60,0
2,note_on,39,0,70
2,note_on,46,54,0
2,note_on,46,0,240
2,note_on,51,54,0
2,note_on,51,0,240
2,note_on,55,54,0
2,note_on,55,0,240
2,note_on,58,54,0
2,note_on,58,0,240
2,note_on,63,53,0
2,note_on,63,0,240
2,note_on,67,60,0
2,note_on,67,0,240
2,note_on,63,53,0
2,note_on,63,0,240
2,note_on,58,53,0
2,note_on,58,0,240
2,note_on,55,53,0
2,note_on,55,0,240
2,note_on,51,53,0
2,note_on,51,0,240
2,note_on,46,53,0
2,note_on,46,0,240
2,note_on,41,60,0
2,note_on,41,0,85
2,note_on,48,52,0
2,note_on,48,0,240
2,note_on,51,52,0
2,note_on,51,0,240
2,note_on,58,53,0
2,note_on,58,0,240
2,note_on,51,53,0
2,note_on,51,0,240
2,note_on,48,53,0
2,note_on,48,0,240
2,note_on,41,60,0
2,note_on,41,0,42
2,note_on,48,53,0
2,note_on,48,0,240
2,note_on,51,53,0
2,note_on,51,0,240
2,note_on,57,54,0
2,note_on,57,0,240
2,note_on,51,54,0
2,note_on,51,0,240
2,note_on,48,54,0
2,note_on,48,0,240
2,note_on,34,59,0
2,note_on,34,0,99
2,note_on,46,53,0
2,note_on,46,0,240
2,note_on,53,55,0
2,note_on,53,0,240
2,note_on,58,57,0
2,note_on,58,0,240
2,note_on,62,58,0
2,note_on,62,0,240
2,note_on,65,60,0
2,note_on,65,0,240
2,note_on,74,61,0
2,note_on,74,0,240
2,note_on,70,59,0
2,note_on,70,0,240
2,note_on,65,57,0
2,note_on,65,0,240
2,note_on,62,55,0
2,note_on,62,0,240
2,note_on,58,53,0
2,note_on,58,0,240
2,note_on,53,51,0
2,note_on,53,0,238
2,note_on,46,57,0
2,note_on,46,0,103
2,note_on,52,49,0
2,note_on,52,0,240
2,note_on,55,49,0
2,note_on,55,0,240
2,note_on,60,49,0
2,note_on,60,0,240
2,note_on,55,49,0
2,note_on,55,0,240
2,note_on,52,49,0
2,note_on,52,0,240
2,note_on,46,47,0
2,note_on,46,0,240
2,note_on,52,47,0
2,note_on,52,0,240
2,note_on,55,53,0
2,note_on,55,0,240
2,note_on,60,47,0
2,note_on,60,0,240
2,note_on,55,47,0
2,note_on,55,0,240
2,note_on,52,47,0
2,note_on,52,0,240
2,note_on,46,55,0
2,note_on,46,0,155
2,note_on,53,46,0
2,note_on,53,0,240
2,note_on,57,46,0
2,note_on,57,0,240
2,note_on,60,46,0
2,note_on,60,0,240
2,note_on,57,47,0
2,note_on,57,0,240
2,note_on,53,47,0
2,note_on,53,0,240
2,note_on,46,52,0
2,note_on,46,0,148
2,note_on,53,47,0
2,note_on,53,0,240
2,note_on,56,47,0
2,note_on,56,0,240
2,note_on,62,47,0
2,note_on,62,0,240
2,note_on,56,47,0
2,note_on,56,0,240
2,note_on,53,47,0
2,note_on,53,0,240
2,note_on,39,57,0
2,note_on,39,0,106
2,note_on,46,40,0
2,note_on,46,0,240
2,note_on,51,48,0
2,note_on,51,0,240
2,note_on,55,42,0
2,note_on,55,0,240
2,note_on,51,54,0
2,note_on,51,0,240
2,note_on,46,50,0
2,note_on,46,0,240
2,note_on,39,55,0
2,note_on,39,0,240
2,note_on,46,45,0
2,note_on,46,0,240
2,note_on,51,45,0
2,note_on,51,0,240
2,note_on,58,45,0
2,note_on,58,0,240
2,note_on,51,45,0
2,note_on,51,0,113
2,note_on,46,45,0
2,note_on,46,0,240
2,note_on,39,50,0
2,note_on,39,0,56
2,note_on,46,37,0
2,note_on,46,0,240
2,note_on,51,51,0
2,note_on,51,0,240
2,note_on,55,46,0
2,note_on,55,0,240
2,note_on,51,55,0
2,note_on,51,0,240
2,note_on,46,49,0
2,note_on,46,0,240
2,note_on,39,50,0
2,note_on,39,0,240
2,note_on,46,40,0
2,note_on,46,0,240
2,note_on,51,40,0
2,note_on,51,0,240
2,note_on,58,40,0
2,note_on,58,0,240
2,note_on,51,40,0
2,note_on,51,0,141
2,note_on,46,40,0
2,note_on,46,0,240
2,note_on,39,54,0
2,note_on,39,0,71
2,note_on,46,37,0
2,note_on,46,0,240
2,note_on,50,47,0
2,note_on,50,0,240
2,note_on,56,37,0
2,note_on,56,0,240
2,note_on,50,50,0
2,note_on,50,0,240
2,note_on,46,46,0
2,note_on,46,0,240
2,note_on,39,47,0
2,note_on,39,0,240
2,note_on,46,40,0
2,note_on,46,0,240
2,note_on,50,40,0
2,note_on,50,0,240
2,note_on,58,40,0
2,note_on,58,0,240
2,note_on,50,40,0
2,note_on,50,0,141
2,note_on,46,40,0
2,note_on,46,0,240
2,note_on,39,54,0
2,note_on,39,0,131
2,note_on,46,42,0
2,note_on,46,0,240
2,note_on,51,49,0
2,note_on,51,0,240
2,note_on,55,42,0
2,note_on,55,0,240
2,note_on,51,42,0
2,note_on,51,0,240
2,note_on,46,42,0
2,note_on,46,0,240
2,note_on,39,46,0
2,note_on,39,0,131
2,note_on,47,42,0
2,note_on,47,0,240
2,note_on,51,42,0
2,note_on,51,0,240
2,note_on,56,42,0
2,note_on,56,0,240
2,note_on,51,42,0
2,note_on,51,0,240
2,note_on,47,42,0
2,note_on,47,0,240
2,note_on,39,54,0
2,note_on,39,0,85
2,note_on,46,37,0
2,note_on,46,0,240
2,note_on,51,44,0
2,note_on,51,0,240
2,note_on,55,37,0
2,note_on,55,0,240
2,note_on,51,44,0
2,note_on,51,0,240
2,note_on,46,37,0
2,note_on,46,0,240
2,note_on,39,47,0
2,note_on,39,0,240
2,note_on,46,37,0
2,note_on,46,0,240
2,note_on,51,37,0
2,note_on,51,0,240
2,note_on,58,37,0
2,note_on,58,0,240
2,note_on,51,37,0
2,note_on,51,0,134
2,note_on,46,37,0
2,note_on,46,0,240
2,note_on,39,54,0
2,note_on,39,0,106
2,note_on,46,37,0
2,note_on,46,0,240
2,note_on,51,44,0
2,note_on,51,0,240
2,note_on,55,37,0
2,note_on,55,0,240
2,note_on,51,44,0
2,note_on,51,0,240
2,note_on,46,37,0
2,note_on,46,0,240
2,note_on,39,41,0
2,note_on,39,0,240
2,note_on,46,29,0
2,note_on,46,0,240
2,note_on,51,29,0
2,note_on,51,0,240
2,note_on,58,29,0
2,note_on,58,0,240
2,note_on,51,29,0
2,note_on,51,0,141
2,note_on,46,29,0
2,note_on,46,0,240
2,note_on,39,43,0
2,note_on,39,0,106
2,note_on,46,29,0
2,note_on,46,0,240
2,note_on,50,35,0
2,note_on,50,0,240
2,note_on,56,29,0
2,note_on,56,0,240
2,note_on,50,35,0
2,note_on,50,0,240
2,note_on,46,29,0
2,note_on,46,0,240
2,note_on,39,37,0
2,note_on,39,0,240
2,note_on,46,29,0
2,note_on,46,0,240
2,note_on,50,29,0
2,note_on,50,0,240
2,note_on,58,29,0
2,note_on,58,0,240
2,note_on,50,29,0
2,note_on,50,0,141
2,note_on,46,29,0
2,note_on,46,0,240
2,note_on,39,43,0
2,note_on,39,0,120
2,note_on,46,33,0
2,note_on,46,0,240
2,note_on,51,33,0
2,note_on,51,0,240
2,note_on,55,33,0
2,note_on,55,0,240
2,note_on,51,33,0
2,note_on,51,0,240
2,note_on,46,33,0
2,note_on,46,0,240
2,note_on,39,38,0
2,note_on,39,0,191
2,note_on,47,33,0
2,note_on,47,0,240
2,note_on,51,33,0
2,note_on,51,0,240
2,note_on,56,33,0
2,note_on,56,0,240
2,note_on,51,33,0
2,note_on,51,0,240
2,note_on,47,33,0
2,note_on,47,0,240
2,note_on,39,43,0
2,note_on,39,0,56
2,note_on,46,29,0
2,note_on,46,0,240
2,note_on,51,35,0
2,note_on,51,0,240
2,note_on,55,29,0
2,note_on,55,0,240
2,note_on,51,35,0
2,note_on,51,0,240
2,note_on,46,29,0
2,note_on,46,0,240
2,note_on,39,41,0
2,note_on,39,0,240
2,note_on,46,33,0
2,note_on,46,0,240
2,note_on,51,33,0
2,note_on,51,0,240
2,note_on,58,33,0
2,note_on,58,0,240
2,note_on,51,33,0
2,note_on,51,0,240
2,note_on,46,33,0
2,note_on,46,0,240
2,note_on,39,45,0
2,note_on,39,0,127
2,note_on,46,33,0
2,note_on,46,0,240
2,note_on,51,35,0
2,note_on,51,0,240
2,note_on,55,35,0
2,note_on,55,0,240
2,note_on,51,35,0
2,note_on,51,0,240
2,note_on,46,33,0
2,note_on,46,0,240
2,note_on,39,41,0
2,note_on,39,0,240
2,note_on,46,33,0
2,note_on,46,0,240
2,note_on,51,33,0
2,note_on,51,0,240
2,note_on,58,33,0
2,note_on,58,0,240
2,note_on,51,26,0
2,note_on,51,0,240
2,note_on,46,25,0
2,note_on,46,0,240
2,note_on,43,48,0
2,note_on,43,0,84
2,note_on,50,33,0
2,note_on,50,0,240
2,note_on,55,31,0
2,note_on,55,0,240
2,note_on,58,34,0
2,note_on,58,0,240
2,note_on,62,37,0
2,note_on,62,0,240
2,note_on,58,40,0
2,note_on,58,0,240
2,note_on,67,45,0
2,note_on,67,0,240
2,note_on,62,40,0
2,note_on,62,0,240
2,note_on,58,39,0
2,note_on,58,0,240
2,note_on,55,38,0
2,note_on,55,0,240
2,note_on,50,37,0
2,note_on,50,0,240
2,note_on,43,35,0
2,note_on,43,0,240
2,note_on,31,42,0
2,note_on,31,0,56
2,note_on,43,32,0
2,note_on,43,0,240
2,note_on,50,34,0
2,note_on,50,0,240
2,note_on,55,37,0
2,note_on,55,0,240
2,note_on,58,39,0
2,note_on,58,0,240
2,note_on,62,41,0
2,note_on,62,0,240
2,note_on,70,42,0
2,note_on,70,0,240
2,note_on,67,41,0
2,note_on,67,0,240
2,note_on,62,39,0
2,note_on,62,0,240
2,note_on,58,38,0
2,note_on,58,0,240
2,note_on,55,36,0
2,note_on,55,0,240
2,note_on,50,35,0
2,note_on,50,0,240
2,note_on,43,37,0
2,note_on,43,0,85
2,note_on,50,33,0
2,note_on,50,0,240
2,note_on,62,33,0
2,note_on,62,0,480
2,note_on,50,28,4305
2,note_on,38,25,133
2,note_on,38,0,475
2,note_on,38,25,5
2,note_on,38,0,475
2,note_on,50,0,5
2,note_on,38,39,480
2,note_on,38,0,475
2,note_on,38,39,5
2,note_on,38,0,475
2,note_on,38,22,251
2,note_on,38,0,475
2,note_on,38,22,5
2,note_on,38,0,475
2,note_on,62,34,5
2,note_on,50,21,480
2,note_on,55,21,0
2,note_on,55,0,475
2,note_on,50,0,0
2,note_on,55,21,5
2,note_on,50,21,0
2,note_on,50,0,475
2,note_on,55,0,0
2,note_on,62,0,5
2,note_on,60,34,0
2,note_on,55,22,228
2,note_on,50,22,0
2,note_on,50,0,475
2,note_on,55,0,0
2,note_on,50,22,5
2,note_on,55,22,0
2,note_on,55,0,475
2,note_on,50,0,0
2,note_on,60,0,5
2,note_on,38,39,194
2,note_on,38,0,475
2,note_on,38,39,5
2,note_on,38,0,475
2,note_on,38,22,137
2,note_on,38,0,475
2,note_on,38,22,5
2,note_on,38,0,475
2,note_on,38,21,251
2,note_on,38,0,475
2,note_on,38,21,5
2,note_on,38,0,475
2,note_on,38,16,320
2,note_on,38,0,475
2,note_on,38,16,5
2,note_on,38,0,475
2,note_on,38,39,194
2,note_on,38,0,475
2,note_on,38,39,5
2,note_on,38,0,475
2,note_on,38,22,107
2,note_on,38,0,475
2,note_on,38,22,5
2,note_on,38,0,475
2,note_on,62,43,5
2,note_on,55,21,480
2,note_on,58,27,0
2,note_on,50,21,0
2,note_on,50,0,475
2,note_on,58,0,0
2,note_on,55,0,0
2,note_on,58,27,5
2,note_on,55,21,0
2,note_on,50,21,0
2,note_on,50,0,475
2,note_on,55,0,0
2,note_on,58,0,0
2,note_on,62,0,5
2,note_on,64,45,0
2,note_on,58,27,354
2,note_on,50,21,0
2,note_on,55,21,0
2,note_on,55,0,475
2,note_on,50,0,0
2,note_on,58,0,0
2,note_on,55,21,5
2,note_on,50,21,0
2,note_on,58,27,0
2,note_on,58,0,6
2,note_on,50,0,0
2,note_on,55,0,0
2,note_on,64,0,5
2,note_on,38,39,194
2,note_on,38,0,475
2,note_on,38,39,5
2,note_on,38,0,475
2,note_on,38,26,468
2,note_on,38,0,361
2,note_on,38,26,5
2,note_on,38,0,475
2,note_on,64,48,5
2,note_on,58,29,480
2,note_on,55,24,0
2,note_on,50,24,0
2,note_on,50,0,475
2,note_on,55,0,0
2,note_on,58,0,0
2,note_on,55,24,5
2,note_on,50,24,0
2,note_on,58,29,0
2,note_on,58,0,475
2,note_on,50,0,0
2,note_on,55,0,0
2,note_on,64,0,5
2,note_on,66,52,0
2,note_on,58,32,331
2,note_on,50,24,0
2,note_on,55,24,0
2,note_on,55,0,475
2,note_on,50,0,0
2,note_on,58,0,0
2,note_on,55,24,5
2,note_on,58,32,0
2,note_on,50,24,0
2,note_on,50,0,475
2,note_on,58,0,0
2,note_on,55,0,0
2,note_on,66,0,5
2,note_on,64,51,0
2,note_on,55,26,198
2,note_on,58,32,0
2,note_on,50,26,0
2,note_on,50,0,475
2,note_on,58,0,0
2,note_on,55,0,0
2,note_on,64,0,5
2,note_on,66,53,240
2,note_on,66,0,206
2,note_on,66,53,20
2,note_on,50,26,331
2,note_on,55,26,0
2,note_on,58,35,0
2,note_on,58,0,475
2,note_on,55,0,0
2,note_on,50,0,0
2,note_on,55,27,5
2,note_on,58,36,0
2,note_on,50,27,0
2,note_on,50,0,475
2,note_on,58,0,0
2,note_on,55,0,0
2,note_on,66,0,5
2,note_on,64,56,0
2,note_on,50,27,198
2,note_on,58,36,0
2,note_on,55,27,0
2,note_on,55,0,480
2,note_on,64,0,0
2,note_on,50,0,0
2,note_on,58,0,0
2,note_on,66,56,240
2,note_on,66,0,210
2,note_on,66,56,20
2,note_on,58,37,331
2,note_on,55,29,0
2,note_on,50,29,0
2,note_on,50,0,475
2,note_on,55,0,0
2,note_on,58,0,0
2,note_on,50,29,5
2,note_on,55,29,0
2,note_on,58,39,0
2,note_on,58,0,475
2,note_on,55,0,0
2,note_on,50,0,0
2,note_on,66,0,5
2,note_on,64,60,0
2,note_on,55,35,198
2,note_on,58,44,0
2,note_on,50,35,0
2,note_on,50,0,480
2,note_on,64,0,0
2,note_on,55,0,0
2,note_on,58,0,0
2,note_on,66,66,240
2,note_on,66,0,240
2,note_on,69,69,0
2,note_on,64,52,265
2,note_on,58,42,0
2,note_on,61,42,0
2,note_on,61,0,475
2,note_on,58,0,0
2,note_on,64,0,0
2,note_on,58,42,5
2,note_on,64,55,0
2,note_on,61,42,0
2,note_on,61,0,475
2,note_on,64,0,0
2,note_on,58,0,0
2,note_on,69,0,5
2,note_on,67,68,0
2,note_on,64,57,198
2,note_on,58,45,0
2,note_on,61,45,0
2,note_on,61,0,480
2,note_on,67,0,0
2,note_on,64,0,0
2,note_on,58,0,0
2,note_on,69,75,0
2,note_on,69,0,480
2,note_on,26,70,0
2,note_on,38,82,0
2,note_on,38,0,374
2,note_on,26,0,0
2,note_on,50,56,0
2,note_on,58,66,0
2,note_on,58,0,480
2,note_on,50,0,0
2,note_on,62,66,0
2,note_on,55,56,0
2,note_on,55,0,480
2,note_on,62,0,0
2,note_on,58,56,0
2,note_on,67,66,0
2,note_on,67,0,480
2,note_on,58,0,0
2,note_on,55,56,0
2,note_on,62,66,0
2,note_on,62,0,480
2,note_on,55,0,0
2,note_on,58,79,0
2,note_on,50,67,0
2,note_on,50,0,473
2,note_on,58,0,0
2,note_on,26,56,0
2,note_on,38,66,0
2,note_on,38,0,429
2,note_on,26,0,0
2,note_on,50,56,0
2,note_on,60,66,0
2,note_on,54,56,0
2,note_on,54,0,480
2,note_on,60,0,0
2,note_on,50,0,0
2,note_on,62,59,0
2,note_on,54,49,0
2,note_on,60,49,0
2,note_on,60,0,480
2,note_on,54,0,0
2,note_on,62,0,0
2,note_on,60,55,0
2,note_on,66,64,0
2,note_on,66,0,466
2,note_on,60,0,0
2,note_on,60,58,0
2,note_on,54,58,0
2,note_on,62,69,0
2,note_on,62,0,480
2,note_on,54,0,0
2,note_on,60,0,0
2,note_on,50,61,0
2,note_on,54,61,0
2,note_on,60,73,0
2,note_on,60,0,480
2,note_on,54,0,0
2,note_on,50,0,0
2,note_on,43,73,0
2,note_on,31,73,0
2,note_on,31,0,183
2,note_on,43,0,0
2,note_on,62,55,240
2,note_on,67,66,0
2,note_on,58,55,0
2,note_on,58,0,240
2,note_on,67,0,0
2,note_on,62,0,0
2,note_on,46,53,0
2,note_on,46,0,120
2,note_on,67,64,110
2,note_on,58,53,0
2,note_on,62,53,0
2,note_on,62,0,234
2,note_on,58,0,0
2,note_on,67,0,0
2,note_on,50,57,0
2,note_on,50,0,120
2,note_on,67,64,110
2,note_on,62,53,0
2,note_on,58,53,0
2,note_on,58,0,194
2,note_on,62,0,0
2,note_on,67,0,0
2,note_on,55,54,0
2,note_on,55,0,120
2,note_on,63,53,110
2,note_on,60,53,0
2,note_on,57,53,0
2,note_on,67,64,0
2,note_on,67,0,223
2,note_on,63,0,0
2,note_on,60,0,0
2,note_on,57,0,0
2,note_on,45,55,0
2,note_on,45,0,120
2,note_on,60,53,113
2,note_on,67,64,0
2,note_on,63,53,0
2,note_on,63,0,217
2,note_on,67,0,0
2,note_on,60,0,0
2,note_on,57,55,0
2,note_on,57,0,120
2,note_on,66,64,110
2,note_on,62,53,0
2,note_on,60,53,0
2,note_on,60,0,223
2,note_on,62,0,0
2,note_on,66,0,0
2,note_on,50,56,0
2,note_on,50,0,120
2,note_on,60,53,116
2,note_on,66,63,0
2,note_on,62,53,0
2,note_on,62,0,219
2,note_on,66,0,0
2,note_on,60,0,0
2,note_on,57,56,0
2,note_on,57,0,120
2,note_on,55,55,108
2,note_on,62,55,0
2,note_on,67,66,0
2,note_on,67,0,183
2,note_on,62,0,0
2,note_on,55,0,0
2,note_on,43,53,0
2,note_on,43,0,120
2,note_on,62,55,120
2,note_on,67,66,0
2,note_on,58,55,0
2,note_on,58,0,240
2,note_on,67,0,0
2,note_on,62,0,0
2,note_on,46,53,0
2,note_on,46,0,120
2,note_on,58,53,110
2,note_on,67,64,0
2,note_on,62,53,0
2,note_on,62,0,206
2,note_on,67,0,0
2,note_on,58,0,0
2,note_on,50,57,0
2,note_on,50,0,120
2,note_on,67,64,112
2,note_on,62,53,0
2,note_on,58,53,0
2,note_on,58,0,194
2,note_on,62,0,0
2,note_on,67,0,0
2,note_on,55,54,0
2,note_on,55,0,120
2,note_on,63,53,115
2,note_on,60,53,0
2,note_on,57,53,0
2,note_on,67,64,0
2,note_on,67,0,223
2,note_on,63,0,0
2,note_on,60,0,0
2,note_on,57,0,0
2,note_on,45,55,0
2,note_on,45,0,120
2,note_on,67,64,113
2,note_on,63,53,0
2,note_on,60,53,0
2,note_on,60,0,217
2,note_on,63,0,0
2,note_on,67,0,0
2,note_on,57,55,0
2,note_on,57,0,120
2,note_on,62,53,108
2,note_on,66,64,0
2,note_on,60,53,0
2,note_on,60,0,223
2,note_on,66,0,0
2,note_on,62,0,0
2,note_on,50,56,0
2,note_on,50,0,120
2,note_on,62,53,115
2,note_on,60,53,0
2,note_on,66,63,0
2,note_on,66,0,219
2,note_on,60,0,0
2,note_on,62,0,0
2,note_on,57,56,0
2,note_on,57,0,120
2,note_on,62,53,115
2,note_on,55,53,0
2,note_on,67,63,0
2,note_on,67,0,240
2,note_on,55,0,0
2,note_on,62,0,0
2,note_on,48,65,0
2,note_on,56,47,480
2,note_on,63,56,0
2,note_on,63,0,228
2,note_on,56,0,0
2,note_on,48,0,0
2,note_on,50,63,0
2,note_on,50,0,63
2,note_on,57,48,120
2,note_on,62,57,0
2,note_on,60,48,0
2,note_on,60,0,240
2,note_on,62,0,0
2,note_on,57,0,0
2,note_on,43,63,0
2,note_on,43,0,40
2,note_on,58,47,120
2,note_on,55,47,0
2,note_on,62,55,0
2,note_on,62,0,240
2,note_on,55,0,0
2,note_on,58,0,0
2,note_on,48,65,0
2,note_on,63,53,183
2,note_on,56,44,0
2,note_on,56,0,480
2,note_on,63,0,0
2,note_on,56,47,0
2,note_on,63,56,0
2,note_on,63,0,226
2,note_on,56,0,0
2,note_on,48,0,0
2,note_on,50,63,0
2,note_on,50,0,69
2,note_on,62,57,120
2,note_on,60,48,0
2,note_on,57,48,0
2,note_on,57,0,240
2,note_on,60,0,0
2,note_on,62,0,0
2,note_on,43,63,0
2,note_on,43,0,11
2,note_on,58,47,120
2,note_on,55,47,0
2,note_on,62,55,0
2,note_on,62,0,240
2,note_on,55,0,0
2,note_on,58,0,0
2,note_on,47,65,0
2,note_on,47,0,63
2,note_on,56,43,120
2,note_on,53,43,0
2,note_on,62,51,0
2,note_on,62,0,240
2,note_on,53,0,0
2,note_on,56,0,0
2,note_on,48,60,0
2,note_on,56,42,177
2,note_on,51,42,0
2,note_on,60,50,0
2,note_on,60,0,240
2,note_on,48,0,0
2,note_on,56,0,0
2,note_on,51,0,0
2,note_on,50,56,0
2,note_on,56,43,137
2,note_on,53,43,0
2,note_on,59,51,0
2,note_on,59,0,240
2,note_on,50,0,0
2,note_on,56,0,0
2,note_on,53,0,0
2,note_on,51,56,0
2,note_on,56,49,103
2,note_on,56,0,240
2,note_on,51,0,0
2,note_on,42,56,0
2,note_on,42,0,69
2,note_on,60,43,120
2,note_on,54,43,0
2,note_on,63,51,0
2,note_on,63,0,240
2,note_on,54,0,0
2,note_on,60,0,0
2,note_on,55,43,0
2,note_on,62,53,0
2,note_on,58,43,0
2,note_on,58,0,225
2,note_on,62,0,0
2,note_on,55,0,0
2,note_on,43,56,0
2,note_on,43,0,120
2,note_on,48,56,120
2,note_on,48,0,69
2,note_on,67,51,120
2,note_on,57,43,0
2,note_on,63,43,0
2,note_on,67,0,238
2,note_on,63,0,2
2,note_on,57,0,0
2,note_on,50,56,0
2,note_on,57,43,211
2,note_on,60,43,0
2,note_on,62,51,0
2,note_on,62,0,240
2,note_on,50,0,0
2,note_on,57,0,0
2,note_on,60,0,0
2,note_on,55,53,0
2,note_on,62,63,0
2,note_on,58,53,6
2,note_on,62,0,69
2,note_on,55,0,0
2,note_on,58,0,6
2,note_on,48,65,114
2,note_on,56,47,480
2,note_on,63,56,0
2,note_on,63,0,229
2,note_on,56,0,0
2,note_on,48,0,0
2,note_on,50,63,0
2,note_on,50,0,74
2,note_on,62,57,120
2,note_on,57,48,0
2,note_on,60,48,0
2,note_on,60,0,240
2,note_on,57,0,0
2,note_on,62,0,0
2,note_on,43,63,0
2,note_on,43,0,104
2,note_on,58,47,114
2,note_on,55,47,0
2,note_on,62,55,0
2,note_on,62,0,240
2,note_on,55,0,0
2,note_on,58,0,0
2,note_on,48,65,0
2,note_on,56,44,148
2,note_on,63,53,0
2,note_on,50,72,5
2,note_on,50,0,240
2,note_on,51,72,0
2,note_on,51,0,240
2,note_on,63,0,0
2,note_on,56,0,0
2,note_on,48,0,0
2,note_on,50,63,0
2,note_on,50,0,28
2,note_on,62,57,120
2,note_on,57,48,0
2,note_on,60,48,0
2,note_on,60,0,240
2,note_on,57,0,0
2,note_on,62,0,0
2,note_on,43,63,0
2,note_on,43,0,5
2,note_on,62,55,120
2,note_on,55,47,0
2,note_on,58,47,0
2,note_on,58,0,240
2,note_on,55,0,0
2,note_on,62,0,0
2,note_on,47,65,0
2,note_on,35,54,0
2,note_on,35,0,63
2,note_on,47,0,0
2,note_on,53,43,120
2,note_on,62,51,0
2,note_on,56,43,0
2,note_on,56,0,240
2,note_on,62,0,0
2,note_on,53,0,0
2,note_on,48,60,0
2,note_on,36,51,0
2,note_on,36,0,45
2,note_on,48,0,0
2,note_on,60,50,120
2,note_on,51,42,0
2,note_on,55,42,0
2,note_on,55,0,240
2,note_on,51,0,0
2,note_on,60,0,0
2,note_on,38,54,0
2,note_on,50,65,0
2,note_on,50,0,23
2,note_on,38,0,0
2,note_on,54,43,120
2,note_on,57,51,0
2,note_on,57,0,240
2,note_on,54,0,0
2,note_on,40,51,0
2,note_on,52,60,0
2,note_on,52,0,45
2,note_on,40,0,0
2,note_on,58,50,120
2,note_on,55,42,0
2,note_on,55,0,240
2,note_on,58,0,0
2,note_on,54,65,0
2,note_on,42,54,0
2,note_on,42,0,63
2,note_on,54,0,0
2,note_on,60,43,120
2,note_on,63,51,0
2,note_on,54,43,0
2,note_on,54,0,240
2,note_on,63,0,0
2,note_on,60,0,0
2,note_on,55,43,0
2,note_on,60,43,0
2,note_on,63,51,0
2,note_on,63,0,225
2,note_on,60,0,0
2,note_on,55,0,0
2,note_on,43,48,0
2,note_on,55,58,0
2,note_on,55,0,120
2,note_on,43,0,0
2,note_on,44,55,120
2,note_on,56,66,0
2,note_on,56,0,63
2,note_on,44,0,0
2,note_on,63,44,120
2,note_on,67,52,0
2,note_on,56,44,0
2,note_on,56,0,240
2,note_on,67,0,0
2,note_on,63,0,0
2,note_on,57,45,0
2,note_on,67,53,0
2,note_on,63,45,0
2,note_on,63,0,224
2,note_on,67,0,0
2,note_on,57,0,0
2,note_on,45,50,0
2,note_on,57,60,0
2,note_on,57,0,120
2,note_on,45,0,0
2,note_on,58,69,120
2,note_on,46,57,0
2,note_on,46,0,63
2,note_on,58,0,0
2,note_on,63,46,120
2,note_on,58,46,0
2,note_on,66,54,0
2,note_on,66,0,240
2,note_on,58,0,0
2,note_on,63,0,0
2,note_on,69,55,0
2,note_on,59,46,0
2,note_on,63,46,0
2,note_on,63,0,153
2,note_on,59,0,0
2,note_on,69,0,0
2,note_on,47,52,0
2,note_on,59,63,0
2,note_on,59,0,120
2,note_on,47,0,0
2,note_on,48,59,120
2,note_on,60,71,0
2,note_on,60,0,63
2,note_on,48,0,0
2,note_on,66,47,120
2,note_on,62,47,0
2,note_on,60,47,0
2,note_on,69,56,0
2,note_on,69,0,137
2,note_on,66,0,0
2,note_on,62,0,0
2,note_on,60,0,0
2,note_on,60,57,0
2,note_on,66,48,0
2,note_on,62,57,0
2,note_on,69,57,0
2,note_on,69,0,240
2,note_on,60,0,0
2,note_on,66,0,0
2,note_on,62,0,0
2,note_on,58,74,0
2,note_on,46,61,0
2,note_on,46,0,21
2,note_on,58,0,0
2,note_on,55,49,120
2,note_on,62,49,0
2,note_on,67,58,0
2,note_on,67,0,240
2,note_on,62,0,0
2,note_on,55,0,0
2,note_on,48,54,0
2,note_on,60,66,0
2,note_on,60,0,7
2,note_on,48,0,0
2,note_on,57,54,120
2,note_on,67,66,0
2,note_on,63,54,0
2,note_on,63,0,240
2,note_on,67,0,0
2,note_on,57,0,0
2,note_on,62,74,0
2,note_on,50,61,0
2,note_on,50,0,63
2,note_on,62,0,0
2,note_on,70,58,120
2,note_on,67,49,0
2,note_on,62,49,0
2,note_on,62,0,240
2,note_on,67,0,0
2,note_on,70,0,0
2,note_on,48,54,0
2,note_on,60,66,0
2,note_on,60,0,23
2,note_on,48,0,0
2,note_on,66,54,120
2,note_on,69,66,0
2,note_on,62,54,0
2,note_on,60,54,0
2,note_on,60,0,240
2,note_on,66,0,0
2,note_on,69,0,0
2,note_on,62,0,0
2,note_on,46,52,0
2,note_on,58,61,0
2,note_on,58,0,63
2,note_on,46,0,0
2,note_on,62,46,120
2,note_on,55,46,0
2,note_on,67,54,0
2,note_on,67,0,240
2,note_on,55,0,0
2,note_on,62,0,0
2,note_on,60,58,0
2,note_on,48,48,0
2,note_on,48,0,28
2,note_on,60,0,0
2,note_on,57,48,120
2,note_on,63,48,0
2,note_on,67,57,0
2,note_on,67,0,240
2,note_on,63,0,0
2,note_on,57,0,0
2,note_on,50,56,0
2,note_on,62,68,0
2,note_on,62,0,63
2,note_on,50,0,0
2,note_on,67,49,120
2,note_on,70,58,0
2,note_on,62,49,0
2,note_on,62,0,240
2,note_on,70,0,0
2,note_on,67,0,0
2,note_on,48,51,0
2,note_on,60,60,0
2,note_on,60,0,23
2,note_on,48,0,0
2,note_on,62,49,120
2,note_on,69,49,0
2,note_on,66,49,0
2,note_on,60,49,0
2,note_on,60,0,240
2,note_on,62,0,0
2,note_on,69,0,0
2,note_on,66,0,0
2,note_on,58,87,0
2,note_on,46,73,0
2,note_on,46,0,109
2,note_on,58,0,0
2,note_on,82,73,360
2,note_on,86,86,0
2,note_on,79,73,0
2,note_on,79,0,120
2,note_on,86,0,0
2,note_on,82,0,0
2,note_on,74,78,0
2,note_on,74,0,120
2,note_on,70,69,240
2,note_on,74,81,0
2,note_on,67,69,0
2,note_on,67,0,120
2,note_on,74,0,0
2,note_on,70,0,0
2,note_on,62,77,0
2,note_on,62,0,120
2,note_on,62,82,240
2,note_on,58,70,0
2,note_on,55,70,0
2,note_on,55,0,120
2,note_on,58,0,0
2,note_on,62,0,0
2,note_on,50,74,0
2,note_on,50,0,120
2,note_on,42,93,240
2,note_on,30,78,0
2,note_on,30,0,120
2,note_on,42,0,0
2,note_on,43,81,0
2,note_on,31,69,0
2,note_on,31,0,120
2,note_on,43,0,0
2,note_on,37,78,240
2,note_on,49,93,0
2,note_on,49,0,120
2,note_on,37,0,0
2,note_on,38,72,0
2,note_on,50,85,0
2,note_on,50,0,120
2,note_on,38,0,0
2,note_on,42,93,0
2,note_on,30,78,0
2,note_on,30,0,120
2,note_on,42,0,0
2,note_on,43,81,0
2,note_on,31,69,0
2,note_on,31,0,120
2,note_on,43,0,0
2,note_on,49,93,240
2,note_on,37,78,0
2,note_on,37,0,120
2,note_on,49,0,0
2,note_on,50,85,0
2,note_on,38,72,0
2,note_on,38,0,120
2,note_on,50,0,0
2,note_on,38,97,240
2,note_on,26,81,0
2,note_on,26,0,480
2,note_on,38,0,0
2,note_on,64,69,943
2,note_on,61,69,0
2,note_on,58,69,0
2,note_on,55,69,0
2,note_on,55,0,360
2,note_on,64,0,0
2,note_on,61,0,0
2,note_on,58,0,0
2,note_on,58,62,0
2,note_on,55,62,0
2,note_on,64,62,0
2,note_on,61,62,0
2,note_on,61,0,120
2,note_on,58,0,0
2,note_on,55,0,0
2,note_on,64,0,0
2,note_on,66,69,0
2,note_on,58,69,0
2,note_on,55,69,0
2,note_on,61,69,0
2,note_on,61,0,446
2,note_on,66,0,0
2,note_on,58,0,0
2,note_on,55,0,0
2,note_on,61,69,0
2,note_on,55,69,0
2,note_on,58,69,0
2,note_on,64,69,0
2,note_on,64,0,311
2,note_on,61,0,0
2,note_on,55,0,0
2,note_on,58,0,0
2,note_on,64,62,0
2,note_on,61,62,0
2,note_on,55,62,0
2,note_on,58,62,0
2,note_on,58,0,120
2,note_on,64,0,0
2,note_on,61,0,0
2,note_on,55,0,0
2,note_on,58,69,0
2,note_on,61,69,0
2,note_on,55,69,0
2,note_on,66,69,0
2,note_on,66,0,437
2,note_on,58,0,0
2,note_on,61,0,0
2,note_on,55,0,0
2,note_on,61,69,0
2,note_on,55,69,0
2,note_on,58,69,0
2,note_on,64,69,0
2,note_on,64,0,257
2,note_on,61,0,0
2,note_on,55,0,0
2,note_on,58,0,0
2,note_on,50,67,0
2,note_on,57,68,60
2,note_on,60,70,60
2,note_on,67,78,60
2,note_on,67,0,1611
2,note_on,66,80,0
2,note_on,66,0,1238
2,note_on,60,0,2
2,note_on,57,0,0
2,note_on,50,0,0
2,note_on,31,115,2400
2,note_on,31,0,1080
2,note_on,33,65,0
2,note_on,33,0,120
2,note_on,34,65,0
2,note_on,34,0,120
2,note_on,36,66,0
2,note_on,36,0,120
2,note_on,38,67,0
2,note_on,38,0,120
2,note_on,40,67,0
2,note_on,40,0,120
2,note_on,42,68,0
2,note_on,42,0,120
2,note_on,43,68,0
2,note_on,43,0,120
2,note_on,45,69,0
2,note_on,45,0,120
2,note_on,46,69,0
2,note_on,46,0,57
2,note_on,48,70,0
2,note_on,48,0,120
2,note_on,50,70,0
2,note_on,50,0,120
2,note_on,52,71,0
2,note_on,52,0,120
2,note_on,54,72,0
2,note_on,54,0,120
2,note_on,55,72,0
2,note_on,55,0,120
2,note_on,57,73,0
2,note_on,57,0,120
2,note_on,58,73,0
2,note_on,58,0,120
2,note_on,60,74,0
2,note_on,60,0,120
2,note_on,62,74,0
2,note_on,62,0,120
2,note_on,64,75,0
2,note_on,64,0,120
2,note_on,66,76,0
2,note_on,66,0,120
2,note_on,67,83,0
2,note_on,67,0,120
2,note_on,50,31,360
2,note_on,43,26,0
2,note_on,31,26,0
2,note_on,55,31,0
2,note_on,58,38,0
2,note_on,58,0,296
2,note_on,31,0,0
2,note_on,50,0,0
2,note_on,43,0,0
2,note_on,55,0,0
2,note_on,31,26,0
2,note_on,55,31,0
2,note_on,58,38,0
2,note_on,43,26,0
2,note_on,50,31,0
2,note_on,50,0,120
2,note_on,58,0,0
2,note_on,31,0,0
2,note_on,55,0,0
2,note_on,43,0,0
2,note_on,31,26,0
2,note_on,43,26,0
2,note_on,55,31,0
2,note_on,58,38,0
2,note_on,50,31,0
2,note_on,50,0,42
2,note_on,55,0,0
2,note_on,31,0,0
2,note_on,43,0,0
2,note_on,58,0,0
2,note_on,50,84,80
2,note_on,38,75,0
2,note_on,38,0,80
2,note_on,50,0,0
2,note_on,43,71,0
2,note_on,55,80,0
2,note_on,55,0,80
2,note_on,43,0,0
2,note_on,45,77,0
2,note_on,57,85,0
2,note_on,57,0,80
2,note_on,45,0,0
2,note_on,48,79,0
2,note_on,60,89,0
2,note_on,60,0,80
2,note_on,48,0,0
2,note_on,46,74,0
2,note_on,58,83,0
2,note_on,58,0,70
2,note_on,46,0,0
2,note_on,46,82,10
2,note_on,58,92,0
2,note_on,58,0,120
2,note_on,46,0,0
2,note_on,31,79,360
2,note_on,31,0,600
2,note_on,33,52,0
2,note_on,33,0,120
2,note_on,34,52,0
2,note_on,34,0,120
2,note_on,36,53,0
2,note_on,36,0,120
2,note_on,38,53,0
2,note_on,38,0,120
2,note_on,40,54,0
2,note_on,40,0,63
2,note_on,42,54,0
2,note_on,42,0,120
2,note_on,43,55,0
2,note_on,43,0,120
2,note_on,45,55,0
2,note_on,45,0,120
2,note_on,46,56,0
2,note_on,46,0,120
2,note_on,48,56,0
2,note_on,48,0,120
2,note_on,50,57,0
2,note_on,50,0,120
2,note_on,52,57,0
2,note_on,52,0,120
2,note_on,54,58,0
2,note_on,54,0,120
2,note_on,55,58,0
2,note_on,55,0,120
2,note_on,57,59,0
2,note_on,57,0,120
2,note_on,58,60,0
2,note_on,58,0,120
2,note_on,60,60,0
2,note_on,60,0,120
2,note_on,62,61,0
2,note_on,62,0,120
2,note_on,64,61,0
2,note_on,64,0,120
2,note_on,66,62,0
2,note_on,66,0,120
2,note_on,67,62,0
2,note_on,67,0,120
2,note_on,69,63,0
2,note_on,69,0,120
2,note_on,70,63,0
2,note_on,70,0,120
2,note_on,72,64,0
2,note_on,72,0,120
2,note_on,74,64,0
2,note_on,74,0,120
2,note_on,76,65,0
2,note_on,76,0,120
2,note_on,78,65,0
2,note_on,78,0,29
2,note_on,79,70,0
2,note_on,79,0,120
2,note_on,43,26,360
2,note_on,31,26,0
2,note_on,31,0,353
2,note_on,43,0,0
2,note_on,31,26,0
2,note_on,43,26,0
2,note_on,43,0,120
2,note_on,31,0,0
2,note_on,31,26,0
2,note_on,43,26,0
2,note_on,43,0,49
2,note_on,31,0,0
2,note_on,50,86,80
2,note_on,50,0,80
2,note_on,55,86,0
2,note_on,55,0,80
2,note_on,58,89,0
2,note_on,58,0,80
2,note_on,63,90,0
2,note_on,63,0,80
2,note_on,62,86,0
2,note_on,62,0,70
2,note_on,62,86,10
2,note_on,62,0,120
2,note_on,34,74,330
2,note_on,46,77,30
2,note_on,46,0,94
2,note_on,35,76,30
2,note_on,34,0,1
2,note_on,47,76,29
2,note_on,47,0,100
2,note_on,35,0,0
2,note_on,36,75,30
2,note_on,48,75,30
2,note_on,48,0,100
2,note_on,36,0,0
2,note_on,37,74,30
2,note_on,49,74,30
2,note_on,49,0,66
2,note_on,37,0,0
2,note_on,38,73,30
2,note_on,50,73,30
2,note_on,50,0,100
2,note_on,38,0,0
2,note_on,39,75,30
2,note_on,51,72,30
2,note_on,51,0,100
2,note_on,39,0,0
2,note_on,40,74,30
2,note_on,52,73,30
2,note_on,52,0,49
2,note_on,40,0,0
2,note_on,41,72,30
2,note_on,53,72,30
2,note_on,53,0,100
2,note_on,41,0,0
2,note_on,42,72,30
2,note_on,54,72,30
2,note_on,54,0,100
2,note_on,42,0,0
2,note_on,55,72,60
2,note_on,43,66,0
2,note_on,43,0,46
2,note_on,55,0,0
2,note_on,42,66,40
2,note_on,54,72,0
2,note_on,54,0,120
2,note_on,42,0,0
2,note_on,41,65,40
2,note_on,53,71,0
2,note_on,53,0,120
2,note_on,41,0,0
2,note_on,52,70,40
2,note_on,40,64,0
2,note_on,40,0,89
2,note_on,52,0,0
2,note_on,51,69,40
2,note_on,39,63,0
2,note_on,39,0,120
2,note_on,51,0,0
2,note_on,50,67,40
2,note_on,38,61,0
2,note_on,38,0,120
2,note_on,50,0,0
2,note_on,49,66,40
2,note_on,37,60,0
2,note_on,37,0,74
2,note_on,49,0,0
2,note_on,48,66,40
2,note_on,36,60,0
2,note_on,36,0,120
2,note_on,48,0,0
2,note_on,35,60,40
2,note_on,47,66,0
2,note_on,47,0,120
2,note_on,35,0,0
2,note_on,34,67,40
2,note_on,46,73,0
2,note_on,46,0,63
2,note_on,34,0,0
2,note_on,33,72,40
2,note_on,45,79,0
2,note_on,45,0,120
2,note_on,33,0,0
2,note_on,32,77,40
2,note_on,44,84,0
2,note_on,44,0,120
2,note_on,32,0,0
2,note_on,31,71,40
2,note_on,43,83,0
2,note_on,43,0,213
2,note_on,31,0,0
2,note_on,67,95,480
2,note_on,55,80,0
2,note_on,62,80,0
2,note_on,62,0,960
2,note_on,55,0,0
2,note_on,67,0,0
2,note_on,43,95,0
2,note_on,31,80,0
2,note_on,31,0,960
2,note_on,43,0,0
