Track,Message Type,Note,Velocity,Time
1,note_on,64,48,2160
1,note_on,69,48,0
1,note_on,76,55,0
1,note_on,76,0,120
1,note_on,69,0,0
1,note_on,64,0,0
1,note_on,69,48,360
1,note_on,76,48,0
1,note_on,81,55,0
1,note_on,81,0,120
1,note_on,76,0,0
1,note_on,69,0,0
1,note_on,69,48,360
1,note_on,74,48,0
1,note_on,81,55,0
1,note_on,81,0,120
1,note_on,74,0,0
1,note_on,69,0,0
1,note_on,68,48,360
1,note_on,76,48,0
1,note_on,80,55,0
1,note_on,80,0,120
1,note_on,76,0,0
1,note_on,68,0,0
1,note_on,69,48,360
1,note_on,76,55,0
1,note_on,76,0,120
1,note_on,69,0,0
1,note_on,72,48,360
1,note_on,76,48,0
1,note_on,84,55,0
1,note_on,84,0,120
1,note_on,76,0,0
1,note_on,72,0,0
1,note_on,84,56,360
1,note_on,77,49,0
1,note_on,72,49,0
1,note_on,72,0,120
1,note_on,77,0,0
1,note_on,84,0,0
1,note_on,71,51,360
1,note_on,77,51,0
1,note_on,83,58,0
1,note_on,83,0,120
1,note_on,77,0,0
1,note_on,71,0,0
1,note_on,81,61,360
1,note_on,77,53,0
1,note_on,69,53,0
1,note_on,69,0,120
1,note_on,77,0,0
1,note_on,81,0,0
1,note_on,88,62,360
1,note_on,81,55,0
1,note_on,76,55,0
1,note_on,76,0,120
1,note_on,81,0,0
1,note_on,88,0,0
1,note_on,74,57,360
1,note_on,81,57,0
1,note_on,86,64,0
1,note_on,86,0,120
1,note_on,81,0,0
1,note_on,74,0,0
1,note_on,88,66,360
1,note_on,80,58,0
1,note_on,76,58,0
1,note_on,76,0,120
1,note_on,80,0,0
1,note_on,88,0,0
1,note_on,84,66,360
1,note_on,76,58,0
1,note_on,72,58,0
1,note_on,72,0,120
1,note_on,76,0,0
1,note_on,84,0,0
1,note_on,80,63,360
1,note_on,76,56,0
1,note_on,68,56,0
1,note_on,68,0,120
1,note_on,76,0,0
1,note_on,80,0,0
1,note_on,81,58,360
1,note_on,76,51,0
1,note_on,69,51,0
1,note_on,69,0,120
1,note_on,76,0,0
1,note_on,81,0,0
1,note_on,84,55,360
1,note_on,76,48,0
1,note_on,72,48,0
1,note_on,72,0,120
1,note_on,76,0,0
1,note_on,84,0,0
1,note_on,71,48,360
1,note_on,76,48,0
1,note_on,83,55,0
1,note_on,83,0,120
1,note_on,76,0,0
1,note_on,71,0,0
1,note_on,69,48,360
1,note_on,76,48,0
1,note_on,81,55,0
1,note_on,81,0,120
1,note_on,76,0,0
1,note_on,69,0,0
1,note_on,64,48,360
1,note_on,71,48,0
1,note_on,76,55,0
1,note_on,76,0,120
1,note_on,71,0,0
1,note_on,64,0,0
1,note_on,69,48,360
1,note_on,76,48,0
1,note_on,81,55,0
1,note_on,81,0,120
1,note_on,76,0,0
1,note_on,69,0,0
1,note_on,76,48,360
1,note_on,71,48,0
1,note_on,83,55,0
1,note_on,83,0,120
1,note_on,71,0,0
1,note_on,76,0,0
1,note_on,69,48,360
1,note_on,76,48,0
1,note_on,81,55,0
1,note_on,81,0,120
1,note_on,76,0,0
1,note_on,69,0,0
1,note_on,76,57,360
1,note_on,71,50,0
1,note_on,64,50,0
1,note_on,64,0,120
1,note_on,71,0,0
1,note_on,76,0,0
1,note_on,69,53,360
1,note_on,76,53,0
1,note_on,81,61,0
1,note_on,81,0,120
1,note_on,76,0,0
1,note_on,69,0,0
1,note_on,83,66,360
1,note_on,76,58,0
1,note_on,71,58,0
1,note_on,71,0,120
1,note_on,76,0,0
1,note_on,83,0,0
1,note_on,84,72,360
1,note_on,76,62,0
1,note_on,72,62,0
1,note_on,72,0,120
1,note_on,76,0,0
1,note_on,84,0,0
1,note_on,67,56,360
1,note_on,71,56,0
1,note_on,79,63,0
1,note_on,79,0,120
1,note_on,71,0,0
1,note_on,67,0,0
1,note_on,78,62,360
1,note_on,71,55,0
1,note_on,69,55,0
1,note_on,69,0,120
1,note_on,71,0,0
1,note_on,78,0,0
1,note_on,76,62,360
1,note_on,71,55,0
1,note_on,68,55,0
1,note_on,68,0,120
1,note_on,71,0,0
1,note_on,76,0,0
1,note_on,78,61,360
1,note_on,72,53,0
1,note_on,69,53,0
1,note_on,69,0,120
1,note_on,72,0,0
1,note_on,78,0,0
1,note_on,71,51,360
1,note_on,79,58,0
1,note_on,77,51,0
1,note_on,67,51,0
1,note_on,67,0,120
1,note_on,71,0,0
1,note_on,79,0,0
1,note_on,77,0,0
1,note_on,74,48,360
1,note_on,80,55,0
1,note_on,76,48,0
1,note_on,68,48,0
1,note_on,68,0,120
1,note_on,74,0,0
1,note_on,80,0,0
1,note_on,76,0,0
1,note_on,69,47,360
1,note_on,72,47,0
1,note_on,76,47,0
1,note_on,81,56,0
1,note_on,81,0,120
1,note_on,69,0,0
1,note_on,72,0,0
1,note_on,76,0,0
1,note_on,69,51,360
1,note_on,76,51,0
1,note_on,81,71,0
1,note_on,76,0,120
1,note_on,69,0,0
1,note_on,69,48,360
1,note_on,74,57,0
1,note_on,74,0,120
1,note_on,69,0,0
1,note_on,81,0,360
1,note_on,68,44,0
1,note_on,76,44,0
1,note_on,80,53,0
1,note_on,80,0,120
1,note_on,76,0,0
1,note_on,68,0,0
1,note_on,69,47,360
1,note_on,76,56,0
1,note_on,76,0,120
1,note_on,69,0,0
1,note_on,72,52,360
1,note_on,76,52,0
1,note_on,84,71,0
1,note_on,76,0,120
1,note_on,72,0,0
1,note_on,77,56,360
1,note_on,72,47,0
1,note_on,72,0,120
1,note_on,77,0,0
1,note_on,84,0,360
1,note_on,71,47,0
1,note_on,77,47,0
1,note_on,83,56,0
1,note_on,77,0,120
1,note_on,71,0,0
1,note_on,83,0,360
1,note_on,81,58,0
1,note_on,77,49,0
1,note_on,69,49,0
1,note_on,69,0,120
1,note_on,77,0,0
1,note_on,81,0,120
1,note_on,88,75,240
1,note_on,81,51,0
1,note_on,76,51,0
1,note_on,76,0,120
1,note_on,81,0,0
1,note_on,88,0,360
1,note_on,74,55,0
1,note_on,81,55,0
1,note_on,86,77,0
1,note_on,81,0,120
1,note_on,74,0,0
1,note_on,86,0,360
1,note_on,88,82,0
1,note_on,80,58,0
1,note_on,76,58,0
1,note_on,76,0,120
1,note_on,80,0,0
1,note_on,88,0,360
1,note_on,84,77,0
1,note_on,76,55,0
1,note_on,72,55,0
1,note_on,72,0,120
1,note_on,76,0,0
1,note_on,84,0,120
1,note_on,83,66,240
1,note_on,76,51,0
1,note_on,71,51,0
1,note_on,71,0,120
1,note_on,76,0,0
1,note_on,83,0,360
1,note_on,81,61,0
1,note_on,76,47,0
1,note_on,69,47,0
1,note_on,69,0,120
1,note_on,76,0,0
1,note_on,76,52,360
1,note_on,72,44,0
1,note_on,72,0,120
1,note_on,76,0,0
1,note_on,81,0,120
1,note_on,71,53,240
1,note_on,76,53,0
1,note_on,83,71,0
1,note_on,76,0,240
1,note_on,71,0,0
1,note_on,83,0,240
1,note_on,69,51,0
1,note_on,76,51,0
1,note_on,81,66,0
1,note_on,76,0,240
1,note_on,69,0,0
1,note_on,81,0,240
1,note_on,64,50,0
1,note_on,71,50,0
1,note_on,76,64,0
1,note_on,71,0,240
1,note_on,64,0,0
1,note_on,76,0,240
1,note_on,69,46,0
1,note_on,76,46,0
1,note_on,81,60,0
1,note_on,81,0,240
1,note_on,76,0,0
1,note_on,69,0,0
1,note_on,76,50,240
1,note_on,71,50,0
1,note_on,83,67,0
1,note_on,76,0,120
1,note_on,71,0,120
1,note_on,83,0,240
1,note_on,69,53,0
1,note_on,76,53,0
1,note_on,81,69,0
1,note_on,76,0,120
1,note_on,69,0,120
1,note_on,81,0,240
1,note_on,76,75,0
1,note_on,71,58,0
1,note_on,64,58,0
1,note_on,64,0,240
1,note_on,71,0,0
1,note_on,76,0,240
1,note_on,69,57,0
1,note_on,76,57,0
1,note_on,81,67,0
1,note_on,81,0,240
1,note_on,76,0,0
1,note_on,69,0,0
1,note_on,83,75,240
1,note_on,76,61,0
1,note_on,71,61,0
1,note_on,71,0,240
1,note_on,76,0,0
1,note_on,83,0,240
1,note_on,84,77,0
1,note_on,76,63,0
1,note_on,72,63,0
1,note_on,72,0,240
1,note_on,76,0,0
1,note_on,84,0,240
1,note_on,67,59,0
1,note_on,71,59,0
1,note_on,79,73,0
1,note_on,71,0,240
1,note_on,67,0,0
1,note_on,79,0,240
1,note_on,78,68,0
1,note_on,71,56,0
1,note_on,69,56,0
1,note_on,69,0,240
1,note_on,71,0,0
1,note_on,78,0,240
1,note_on,76,64,0
1,note_on,71,53,0
1,note_on,67,53,0
1,note_on,67,0,240
1,note_on,71,0,0
1,note_on,72,53,240
1,note_on,69,44,0
1,note_on,69,0,240
1,note_on,72,0,0
1,note_on,71,51,240
1,note_on,67,42,0
1,note_on,67,0,240
1,note_on,71,0,0
1,note_on,72,48,240
1,note_on,69,39,0
1,note_on,69,0,240
1,note_on,72,0,0
1,note_on,76,0,0
1,note_on,83,61,240
1,note_on,76,51,0
1,note_on,71,51,0
1,note_on,71,0,240
1,note_on,76,0,0
1,note_on,83,0,240
1,note_on,84,64,0
1,note_on,76,53,0
1,note_on,72,53,0
1,note_on,72,0,240
1,note_on,76,0,0
1,note_on,84,0,240
1,note_on,67,49,0
1,note_on,71,49,0
1,note_on,79,60,0
1,note_on,71,0,240
1,note_on,67,0,0
1,note_on,79,0,240
1,note_on,78,56,0
1,note_on,71,47,0
1,note_on,69,47,0
1,note_on,69,0,240
1,note_on,71,0,0
1,note_on,78,0,0
1,note_on,76,63,240
1,note_on,71,53,0
1,note_on,67,53,0
1,note_on,67,0,240
1,note_on,71,0,0
1,note_on,71,60,240
1,note_on,67,50,0
1,note_on,67,0,240
1,note_on,71,0,0
1,note_on,76,0,240
1,note_on,77,80,0
1,note_on,71,63,0
1,note_on,68,53,0
1,note_on,68,0,240
1,note_on,71,0,0
1,note_on,71,64,240
1,note_on,68,52,0
1,note_on,68,0,240
1,note_on,71,0,0
1,note_on,77,0,0
1,note_on,69,74,240
1,note_on,72,74,0
1,note_on,81,89,0
1,note_on,81,0,480
1,note_on,72,0,0
1,note_on,69,0,0
1,note_on,68,71,0
1,note_on,71,71,0
1,note_on,80,84,0
1,note_on,80,0,480
1,note_on,71,0,0
1,note_on,68,0,0
1,note_on,67,70,0
1,note_on,70,70,0
1,note_on,79,82,0
1,note_on,79,0,120
1,note_on,70,0,0
1,note_on,67,0,0
1,note_on,64,63,360
1,note_on,70,63,0
1,note_on,72,77,0
1,note_on,72,0,120
1,note_on,70,0,0
1,note_on,64,0,0
1,note_on,67,70,360
1,note_on,70,70,0
1,note_on,79,82,0
1,note_on,79,0,120
1,note_on,70,0,0
1,note_on,67,0,0
1,note_on,64,63,360
1,note_on,70,63,0
1,note_on,72,77,0
1,note_on,72,0,120
1,note_on,70,0,0
1,note_on,64,0,0
1,note_on,67,70,360
1,note_on,70,70,0
1,note_on,79,82,0
1,note_on,79,0,120
1,note_on,70,0,0
1,note_on,67,0,0
1,note_on,69,63,360
1,note_on,77,77,0
1,note_on,77,0,120
1,note_on,69,0,0
1,note_on,65,59,360
1,note_on,68,59,0
1,note_on,77,70,0
1,note_on,77,0,480
1,note_on,68,0,0
1,note_on,65,0,0
1,note_on,64,57,0
1,note_on,67,57,0
1,note_on,76,67,0
1,note_on,76,0,480
1,note_on,67,0,0
1,note_on,64,0,0
1,note_on,63,56,0
1,note_on,66,56,0
1,note_on,75,66,0
1,note_on,75,0,120
1,note_on,66,0,0
1,note_on,63,0,0
1,note_on,60,50,360
1,note_on,66,50,0
1,note_on,68,61,0
1,note_on,68,0,120
1,note_on,66,0,0
1,note_on,60,0,0
1,note_on,66,56,360
1,note_on,68,56,0
1,note_on,75,66,0
1,note_on,75,0,120
1,note_on,68,0,0
1,note_on,66,0,0
1,note_on,60,50,360
1,note_on,66,50,0
1,note_on,68,61,0
1,note_on,68,0,120
1,note_on,66,0,0
1,note_on,60,0,0
1,note_on,66,56,360
1,note_on,68,56,0
1,note_on,75,66,0
1,note_on,75,0,120
1,note_on,68,0,0
1,note_on,66,0,0
1,note_on,68,50,360
1,note_on,65,50,0
1,note_on,73,61,0
1,note_on,65,0,240
1,note_on,68,0,0
1,note_on,73,0,240
1,note_on,63,56,0
1,note_on,68,56,0
1,note_on,72,66,0
1,note_on,68,0,240
1,note_on,63,0,0
1,note_on,72,0,240
1,note_on,61,50,0
1,note_on,68,50,0
1,note_on,70,62,0
1,note_on,68,0,240
1,note_on,61,0,0
1,note_on,70,0,240
1,note_on,60,57,0
1,note_on,68,67,0
1,note_on,60,0,240
1,note_on,68,0,240
1,note_on,68,52,0
1,note_on,66,52,0
1,note_on,75,63,0
1,note_on,66,0,240
1,note_on,68,0,0
1,note_on,75,0,240
1,note_on,65,59,0
1,note_on,68,59,0
1,note_on,73,70,0
1,note_on,68,0,240
1,note_on,65,0,0
1,note_on,73,0,240
1,note_on,61,53,0
1,note_on,68,53,0
1,note_on,70,66,0
1,note_on,68,0,240
1,note_on,61,0,0
1,note_on,70,0,240
1,note_on,68,61,0
1,note_on,65,61,0
1,note_on,73,72,0
1,note_on,65,0,240
1,note_on,68,0,0
1,note_on,73,0,240
1,note_on,68,56,0
1,note_on,63,56,0
1,note_on,72,68,0
1,note_on,63,0,240
1,note_on,68,0,0
1,note_on,72,0,240
1,note_on,66,62,0
1,note_on,68,62,0
1,note_on,75,73,0
1,note_on,68,0,240
1,note_on,66,0,0
1,note_on,75,0,240
1,note_on,65,57,0
1,note_on,68,57,0
1,note_on,73,69,0
1,note_on,68,0,240
1,note_on,65,0,0
1,note_on,73,0,240
1,note_on,68,64,0
1,note_on,63,64,0
1,note_on,72,75,0
1,note_on,63,0,240
1,note_on,68,0,0
1,note_on,72,0,240
1,note_on,72,58,0
1,note_on,66,58,0
1,note_on,77,71,0
1,note_on,66,0,240
1,note_on,72,0,0
1,note_on,77,0,240
1,note_on,66,66,0
1,note_on,72,66,0
1,note_on,75,78,0
1,note_on,72,0,240
1,note_on,66,0,0
1,note_on,75,0,240
1,note_on,63,60,0
1,note_on,66,60,0
1,note_on,72,73,0
1,note_on,66,0,240
1,note_on,63,0,0
1,note_on,72,0,240
1,note_on,70,68,0
1,note_on,66,68,0
1,note_on,75,80,0
1,note_on,66,0,240
1,note_on,70,0,0
1,note_on,75,0,240
1,note_on,70,62,0
1,note_on,65,62,0
1,note_on,74,75,0
1,note_on,65,0,240
1,note_on,70,0,0
1,note_on,74,0,240
1,note_on,68,71,0
1,note_on,74,71,0
1,note_on,80,84,0
1,note_on,74,0,240
1,note_on,68,0,0
1,note_on,80,0,240
1,note_on,67,71,0
1,note_on,74,71,0
1,note_on,79,84,0
1,note_on,74,0,240
1,note_on,67,0,0
1,note_on,79,0,240
1,note_on,64,70,0
1,note_on,70,70,0
1,note_on,72,82,0
1,note_on,72,0,240
1,note_on,70,0,240
1,note_on,64,0,0
1,note_on,65,63,0
1,note_on,68,63,0
1,note_on,77,77,0
1,note_on,77,0,240
1,note_on,68,0,0
1,note_on,65,0,0
1,note_on,68,70,240
1,note_on,74,70,0
1,note_on,80,83,0
1,note_on,80,0,240
1,note_on,74,0,0
1,note_on,68,0,0
1,note_on,67,71,240
1,note_on,74,71,0
1,note_on,79,84,0
1,note_on,79,0,240
1,note_on,74,0,0
1,note_on,67,0,0
1,note_on,64,70,240
1,note_on,70,70,0
1,note_on,72,82,0
1,note_on,72,0,240
1,note_on,70,0,0
1,note_on,64,0,0
1,note_on,65,63,240
1,note_on,68,63,0
1,note_on,77,77,0
1,note_on,77,0,240
1,note_on,68,0,0
1,note_on,65,0,0
1,note_on,67,62,240
1,note_on,72,62,0
1,note_on,79,74,0
1,note_on,79,0,120
1,note_on,72,0,0
1,note_on,67,0,0
1,note_on,68,63,360
1,note_on,72,63,0
1,note_on,80,75,0
1,note_on,80,0,120
1,note_on,72,0,0
1,note_on,68,0,0
1,note_on,63,62,360
1,note_on,67,62,0
1,note_on,75,73,0
1,note_on,75,0,120
1,note_on,67,0,0
1,note_on,63,0,0
1,note_on,65,57,360
1,note_on,67,57,0
1,note_on,74,69,0
1,note_on,74,0,120
1,note_on,67,0,0
1,note_on,65,0,0
1,note_on,63,56,360
1,note_on,67,56,0
1,note_on,72,67,0
1,note_on,67,0,240
1,note_on,63,0,0
1,note_on,65,57,240
1,note_on,68,57,0
1,note_on,68,0,240
1,note_on,65,0,0
1,note_on,63,56,240
1,note_on,67,56,0
1,note_on,67,0,240
1,note_on,63,0,0
1,note_on,65,50,240
1,note_on,68,50,0
1,note_on,68,0,240
1,note_on,65,0,0
1,note_on,72,0,0
1,note_on,67,44,240
1,note_on,72,44,0
1,note_on,79,52,0
1,note_on,79,0,480
1,note_on,72,0,0
1,note_on,67,0,0
1,note_on,68,45,0
1,note_on,72,45,0
1,note_on,80,53,0
1,note_on,80,0,480
1,note_on,72,0,0
1,note_on,68,0,0
1,note_on,63,44,0
1,note_on,67,44,0
1,note_on,75,51,0
1,note_on,75,0,480
1,note_on,67,0,0
1,note_on,63,0,0
1,note_on,65,39,0
1,note_on,67,39,0
1,note_on,74,49,0
1,note_on,67,0,240
1,note_on,65,0,0
1,note_on,74,0,240
1,note_on,63,39,0
1,note_on,67,39,0
1,note_on,72,47,0
1,note_on,67,0,240
1,note_on,63,0,0
1,note_on,65,45,240
1,note_on,68,45,0
1,note_on,68,0,240
1,note_on,65,0,0
1,note_on,63,44,240
1,note_on,67,44,0
1,note_on,67,0,240
1,note_on,63,0,0
1,note_on,65,39,240
1,note_on,68,39,0
1,note_on,68,0,240
1,note_on,65,0,0
1,note_on,72,0,0
1,note_on,67,57,240
1,note_on,72,57,0
1,note_on,79,68,0
1,note_on,79,0,480
1,note_on,72,0,0
1,note_on,67,0,0
1,note_on,68,60,0
1,note_on,72,60,0
1,note_on,80,72,0
1,note_on,80,0,480
1,note_on,72,0,0
1,note_on,68,0,0
1,note_on,72,59,0
1,note_on,77,59,0
1,note_on,84,73,0
1,note_on,84,0,480
1,note_on,77,0,0
1,note_on,72,0,0
1,note_on,74,53,0
1,note_on,79,53,0
1,note_on,83,72,0
1,note_on,83,0,240
1,note_on,79,0,0
1,note_on,74,0,0
1,note_on,82,63,240
1,note_on,70,52,0
1,note_on,76,52,0
1,note_on,76,0,480
1,note_on,70,0,0
1,note_on,82,0,0
1,note_on,68,53,0
1,note_on,72,53,0
1,note_on,80,64,0
1,note_on,80,0,480
1,note_on,72,0,0
1,note_on,68,0,0
1,note_on,67,50,0
1,note_on,75,50,0
1,note_on,79,59,0
1,note_on,79,0,480
1,note_on,75,0,0
1,note_on,67,0,0
1,note_on,65,39,0
1,note_on,67,39,0
1,note_on,71,50,0
1,note_on,67,0,240
1,note_on,65,0,0
1,note_on,71,0,240
1,note_on,64,44,0
1,note_on,67,44,0
1,note_on,72,52,0
1,note_on,67,0,240
1,note_on,64,0,0
1,note_on,72,0,240
1,note_on,65,39,0
1,note_on,68,39,0
1,note_on,73,49,0
1,note_on,68,0,240
1,note_on,65,0,0
1,note_on,73,0,240
1,note_on,67,45,0
1,note_on,64,45,0
1,note_on,72,52,0
1,note_on,64,0,240
1,note_on,67,0,0
1,note_on,72,0,240
1,note_on,68,41,0
1,note_on,65,41,0
1,note_on,74,50,0
1,note_on,65,0,240
1,note_on,68,0,0
1,note_on,74,0,240
1,note_on,64,47,0
1,note_on,67,47,0
1,note_on,72,56,0
1,note_on,67,0,240
1,note_on,64,0,0
1,note_on,72,0,240
1,note_on,65,42,0
1,note_on,68,42,0
1,note_on,73,52,0
1,note_on,68,0,240
1,note_on,65,0,0
1,note_on,73,0,240
1,note_on,67,49,0
1,note_on,64,49,0
1,note_on,72,58,0
1,note_on,64,0,240
1,note_on,67,0,0
1,note_on,72,0,240
1,note_on,68,44,0
1,note_on,65,44,0
1,note_on,74,53,0
1,note_on,65,0,240
1,note_on,68,0,0
1,note_on,74,0,240
1,note_on,64,49,0
1,note_on,67,49,0
1,note_on,72,58,0
1,note_on,67,0,240
1,note_on,64,0,0
1,note_on,72,0,240
1,note_on,65,42,0
1,note_on,68,42,0
1,note_on,74,52,0
1,note_on,68,0,240
1,note_on,65,0,0
1,note_on,74,0,240
1,note_on,67,48,0
1,note_on,64,48,0
1,note_on,72,57,0
1,note_on,64,0,240
1,note_on,67,0,0
1,note_on,72,0,240
1,note_on,68,41,0
1,note_on,65,41,0
1,note_on,73,51,0
1,note_on,65,0,240
1,note_on,68,0,0
1,note_on,73,0,240
1,note_on,64,47,0
1,note_on,67,47,0
1,note_on,72,55,0
1,note_on,67,0,240
1,note_on,64,0,0
1,note_on,72,0,240
1,note_on,65,40,0
1,note_on,68,40,0
1,note_on,74,50,0
1,note_on,68,0,240
1,note_on,65,0,0
1,note_on,74,0,240
1,note_on,69,45,0
1,note_on,66,45,0
1,note_on,75,52,0
1,note_on,66,0,240
1,note_on,69,0,0
1,note_on,75,0,240
1,note_on,68,39,0
1,note_on,64,39,0
1,note_on,76,49,0
1,note_on,64,0,240
1,note_on,68,0,0
1,note_on,76,0,240
1,note_on,64,50,0
1,note_on,69,50,0
1,note_on,76,50,0
1,note_on,69,0,240
1,note_on,64,0,0
1,note_on,76,0,240
1,note_on,81,70,0
1,note_on,69,60,0
1,note_on,76,60,0
1,note_on,76,0,240
1,note_on,69,0,0
1,note_on,74,60,240
1,note_on,69,59,0
1,note_on,69,0,240
1,note_on,74,0,0
1,note_on,81,0,240
1,note_on,68,53,0
1,note_on,76,53,0
1,note_on,80,64,0
1,note_on,80,0,240
1,note_on,76,0,0
1,note_on,68,0,0
1,note_on,64,50,240
1,note_on,69,50,0
1,note_on,76,50,0
1,note_on,76,0,240
1,note_on,69,0,0
1,note_on,64,0,0
1,note_on,84,70,240
1,note_on,69,60,0
1,note_on,76,60,0
1,note_on,76,0,240
1,note_on,69,0,0
1,note_on,77,60,240
1,note_on,72,59,0
1,note_on,72,0,240
1,note_on,77,0,0
1,note_on,84,0,240
1,note_on,71,53,0
1,note_on,83,64,0
1,note_on,77,53,0
1,note_on,77,0,240
1,note_on,71,0,0
1,note_on,83,0,240
1,note_on,81,64,0
1,note_on,69,48,0
1,note_on,77,55,0
1,note_on,77,0,120
1,note_on,69,0,0
1,note_on,81,0,120
1,note_on,88,68,240
1,note_on,81,55,0
1,note_on,76,55,0
1,note_on,76,0,120
1,note_on,81,0,0
1,note_on,88,0,0
1,note_on,74,57,360
1,note_on,81,57,0
1,note_on,86,70,0
1,note_on,86,0,120
1,note_on,81,0,0
1,note_on,74,0,0
1,note_on,88,72,360
1,note_on,80,58,0
1,note_on,76,58,0
1,note_on,76,0,120
1,note_on,80,0,0
1,note_on,88,0,0
1,note_on,84,72,360
1,note_on,76,58,0
1,note_on,72,58,0
1,note_on,72,0,120
1,note_on,76,0,0
1,note_on,84,0,0
1,note_on,80,63,360
1,note_on,76,56,0
1,note_on,68,56,0
1,note_on,68,0,120
1,note_on,76,0,0
1,note_on,80,0,0
1,note_on,81,58,360
1,note_on,76,51,0
1,note_on,69,51,0
1,note_on,69,0,120
1,note_on,76,0,0
1,note_on,81,0,0
1,note_on,84,55,360
1,note_on,76,48,0
1,note_on,72,48,0
1,note_on,72,0,120
1,note_on,76,0,0
1,note_on,84,0,0
1,note_on,71,48,360
1,note_on,76,48,0
1,note_on,83,55,0
1,note_on,83,0,120
1,note_on,76,0,0
1,note_on,71,0,0
1,note_on,69,48,360
1,note_on,76,48,0
1,note_on,81,55,0
1,note_on,81,0,120
1,note_on,76,0,0
1,note_on,69,0,0
1,note_on,64,48,360
1,note_on,71,48,0
1,note_on,76,55,0
1,note_on,76,0,120
1,note_on,71,0,0
1,note_on,64,0,0
1,note_on,69,48,360
1,note_on,76,48,0
1,note_on,81,55,0
1,note_on,81,0,120
1,note_on,76,0,0
1,note_on,69,0,0
1,note_on,76,48,360
1,note_on,71,48,0
1,note_on,83,55,0
1,note_on,83,0,120
1,note_on,71,0,0
1,note_on,76,0,0
1,note_on,69,48,360
1,note_on,76,48,0
1,note_on,81,55,0
1,note_on,81,0,120
1,note_on,76,0,0
1,note_on,69,0,0
1,note_on,76,57,360
1,note_on,71,50,0
1,note_on,64,50,0
1,note_on,64,0,120
1,note_on,71,0,0
1,note_on,76,0,0
1,note_on,69,53,360
1,note_on,76,53,0
1,note_on,81,61,0
1,note_on,81,0,120
1,note_on,76,0,0
1,note_on,69,0,0
1,note_on,83,66,360
1,note_on,76,58,0
1,note_on,71,58,0
1,note_on,71,0,120
1,note_on,76,0,0
1,note_on,83,0,0
1,note_on,84,72,360
1,note_on,76,62,0
1,note_on,72,62,0
1,note_on,72,0,120
1,note_on,76,0,0
1,note_on,84,0,0
1,note_on,67,56,360
1,note_on,71,56,0
1,note_on,79,63,0
1,note_on,79,0,120
1,note_on,71,0,0
1,note_on,67,0,0
1,note_on,78,62,360
1,note_on,71,55,0
1,note_on,69,55,0
1,note_on,69,0,120
1,note_on,71,0,0
1,note_on,78,0,0
1,note_on,76,62,360
1,note_on,71,55,0
1,note_on,68,55,0
1,note_on,68,0,120
1,note_on,71,0,0
1,note_on,76,0,0
1,note_on,78,61,360
1,note_on,72,53,0
1,note_on,69,53,0
1,note_on,69,0,120
1,note_on,72,0,0
1,note_on,78,0,0
1,note_on,71,51,360
1,note_on,79,58,0
1,note_on,77,51,0
1,note_on,67,51,0
1,note_on,67,0,120
1,note_on,71,0,0
1,note_on,79,0,0
1,note_on,77,0,0
1,note_on,74,48,360
1,note_on,80,55,0
1,note_on,76,48,0
1,note_on,68,48,0
1,note_on,68,0,120
1,note_on,74,0,0
1,note_on,80,0,0
1,note_on,76,0,0
1,note_on,69,47,360
1,note_on,72,47,0
1,note_on,76,47,0
1,note_on,81,56,0
1,note_on,81,0,120
1,note_on,69,0,0
1,note_on,72,0,0
1,note_on,76,0,0
1,note_on,69,51,360
1,note_on,76,51,0
1,note_on,81,71,0
1,note_on,76,0,120
1,note_on,69,0,0
1,note_on,69,48,360
1,note_on,74,57,0
1,note_on,74,0,120
1,note_on,69,0,0
1,note_on,81,0,360
1,note_on,68,44,0
1,note_on,76,44,0
1,note_on,80,53,0
1,note_on,76,0,120
1,note_on,68,0,0
1,note_on,80,0,360
1,note_on,81,58,0
1,note_on,69,47,0
1,note_on,76,56,0
1,note_on,76,0,120
1,note_on,69,0,0
1,note_on,81,0,360
1,note_on,72,52,0
1,note_on,76,52,0
1,note_on,84,71,0
1,note_on,76,0,120
1,note_on,72,0,0
1,note_on,77,56,360
1,note_on,72,47,0
1,note_on,72,0,120
1,note_on,77,0,0
1,note_on,84,0,360
1,note_on,71,47,0
1,note_on,77,47,0
1,note_on,83,56,0
1,note_on,77,0,120
1,note_on,71,0,0
1,note_on,83,0,360
1,note_on,81,58,0
1,note_on,77,49,0
1,note_on,69,49,0
1,note_on,69,0,120
1,note_on,77,0,0
1,note_on,81,0,360
1,note_on,88,73,0
1,note_on,81,51,0
1,note_on,76,51,0
1,note_on,76,0,120
1,note_on,81,0,0
1,note_on,88,0,360
1,note_on,74,55,0
1,note_on,81,55,0
1,note_on,86,70,0
1,note_on,81,0,120
1,note_on,74,0,0
1,note_on,86,0,360
1,note_on,88,82,0
1,note_on,80,58,0
1,note_on,76,58,0
1,note_on,76,0,120
1,note_on,80,0,0
1,note_on,88,0,360
1,note_on,84,70,0
1,note_on,76,55,0
1,note_on,72,55,0
1,note_on,72,0,240
1,note_on,76,0,0
1,note_on,84,0,0
1,note_on,83,66,240
1,note_on,76,51,0
1,note_on,71,51,0
1,note_on,71,0,240
1,note_on,76,0,0
1,note_on,83,0,240
1,note_on,81,61,0
1,note_on,76,47,0
1,note_on,69,47,0
1,note_on,69,0,240
1,note_on,76,0,0
1,note_on,76,52,240
1,note_on,72,44,0
1,note_on,72,0,240
1,note_on,76,0,0
1,note_on,81,0,0
1,note_on,71,53,240
1,note_on,76,53,0
1,note_on,83,69,0
1,note_on,76,0,240
1,note_on,71,0,0
1,note_on,83,0,240
1,note_on,69,51,0
1,note_on,76,51,0
1,note_on,81,66,0
1,note_on,76,0,240
1,note_on,69,0,0
1,note_on,81,0,240
1,note_on,64,50,0
1,note_on,71,50,0
1,note_on,76,64,0
1,note_on,71,0,240
1,note_on,64,0,0
1,note_on,76,0,240
1,note_on,69,46,0
1,note_on,76,46,0
1,note_on,81,60,0
1,note_on,76,0,240
1,note_on,69,0,0
1,note_on,81,0,240
1,note_on,76,50,0
1,note_on,71,50,0
1,note_on,83,64,0
1,note_on,71,0,240
1,note_on,76,0,0
1,note_on,83,0,240
1,note_on,69,53,0
1,note_on,76,53,0
1,note_on,81,69,0
1,note_on,76,0,240
1,note_on,69,0,0
1,note_on,81,0,240
1,note_on,76,75,0
1,note_on,71,58,0
1,note_on,64,58,0
1,note_on,64,0,240
1,note_on,71,0,0
1,note_on,76,0,240
1,note_on,67,57,0
1,note_on,70,57,0
1,note_on,79,67,0
1,note_on,79,0,240
1,note_on,70,0,0
1,note_on,67,0,0
1,note_on,78,75,240
1,note_on,70,61,0
1,note_on,66,61,0
1,note_on,66,0,240
1,note_on,70,0,0
1,note_on,78,0,0
1,note_on,77,77,240
1,note_on,70,63,0
1,note_on,65,63,0
1,note_on,65,0,240
1,note_on,70,0,0
1,note_on,77,0,0
1,note_on,65,59,240
1,note_on,70,59,0
1,note_on,74,73,0
1,note_on,74,0,240
1,note_on,70,0,0
1,note_on,65,0,0
1,note_on,71,63,240
1,note_on,68,52,0
1,note_on,62,52,0
1,note_on,62,0,240
1,note_on,68,0,0
1,note_on,71,0,0
1,note_on,69,61,240
1,note_on,60,50,0
1,note_on,60,0,240
1,note_on,65,50,240
1,note_on,62,41,0
1,note_on,62,0,240
1,note_on,65,0,0
1,note_on,64,48,240
1,note_on,60,40,0
1,note_on,60,0,240
1,note_on,64,0,0
1,note_on,65,45,240
1,note_on,62,37,0
1,note_on,62,0,240
1,note_on,65,0,0
1,note_on,69,0,0
1,note_on,64,38,240
1,note_on,60,38,0
1,note_on,60,0,480
1,note_on,64,0,0
1,note_on,76,51,0
1,note_on,69,42,0
1,note_on,64,42,0
1,note_on,64,0,480
1,note_on,69,0,0
1,note_on,76,0,0
1,note_on,65,39,0
1,note_on,70,39,0
1,note_on,74,50,0
1,note_on,70,0,240
1,note_on,65,0,0
1,note_on,74,0,240
1,note_on,71,44,0
1,note_on,68,37,0
1,note_on,62,37,0
1,note_on,62,0,480
1,note_on,68,0,0
1,note_on,71,0,0
1,note_on,69,50,0
1,note_on,60,42,0
1,note_on,60,0,240
1,note_on,65,45,240
1,note_on,62,37,0
1,note_on,62,0,240
1,note_on,65,0,0
1,note_on,64,47,240
1,note_on,60,40,0
1,note_on,60,0,240
1,note_on,64,0,0
1,note_on,65,48,240
1,note_on,62,39,0
1,note_on,62,0,240
1,note_on,65,0,0
1,note_on,60,41,240
1,note_on,64,50,0
1,note_on,64,0,240
1,note_on,60,0,0
1,note_on,69,0,240
1,note_on,64,63,0
1,note_on,69,63,0
1,note_on,76,75,0
1,note_on,69,0,240
1,note_on,64,0,0
1,note_on,76,0,240
1,note_on,69,62,0
1,note_on,75,62,0
1,note_on,81,73,0
1,note_on,75,0,240
1,note_on,69,0,0
1,note_on,81,0,240
1,note_on,68,57,0
1,note_on,76,57,0
1,note_on,80,69,0
1,note_on,76,0,240
1,note_on,68,0,0
1,note_on,80,0,240
1,note_on,67,62,0
1,note_on,73,62,0
1,note_on,79,73,0
1,note_on,73,0,240
1,note_on,67,0,0
1,note_on,79,0,240
1,note_on,66,57,0
1,note_on,74,57,0
1,note_on,78,69,0
1,note_on,74,0,240
1,note_on,66,0,0
1,note_on,78,0,240
1,note_on,65,52,0
1,note_on,70,52,0
1,note_on,77,62,0
1,note_on,70,0,240
1,note_on,65,0,0
1,note_on,77,0,240
1,note_on,71,44,0
1,note_on,68,37,0
1,note_on,62,37,0
1,note_on,62,0,480
1,note_on,68,0,0
1,note_on,71,0,0
1,note_on,64,42,0
1,note_on,69,50,0
1,note_on,60,42,0
1,note_on,60,0,240
1,note_on,64,0,0
1,note_on,65,48,240
1,note_on,62,39,0
1,note_on,62,0,240
1,note_on,69,0,0
1,note_on,74,47,240
1,note_on,70,40,0
1,note_on,65,0,240
1,note_on,70,0,240
1,note_on,74,0,0
1,note_on,62,35,0
1,note_on,71,42,0
1,note_on,68,35,0
1,note_on,68,0,480
1,note_on,71,0,0
1,note_on,62,0,0
1,note_on,60,37,0
1,note_on,69,45,0
1,note_on,69,0,480
1,note_on,60,0,0
1,note_on,64,50,0
1,note_on,69,50,0
1,note_on,76,60,0
1,note_on,76,0,480
1,note_on,69,0,0
1,note_on,64,0,0
1,note_on,65,49,0
1,note_on,70,49,0
1,note_on,74,58,0
1,note_on,74,0,480
1,note_on,70,0,0
1,note_on,65,0,0
1,note_on,62,45,0
1,note_on,68,55,0
1,note_on,68,0,480
1,note_on,62,0,0
1,note_on,69,47,0
1,note_on,60,40,0
1,note_on,60,0,240
1,note_on,65,45,240
1,note_on,62,37,0
1,note_on,62,0,240
1,note_on,65,0,0
1,note_on,69,0,240
1,note_on,72,46,0
1,note_on,64,46,0
1,note_on,60,39,0
1,note_on,60,0,240
1,note_on,64,0,0
1,note_on,72,0,240
1,note_on,70,42,0
1,note_on,65,38,0
1,note_on,62,37,0
1,note_on,62,0,240
1,note_on,65,0,0
1,note_on,70,0,240
1,note_on,64,37,0
1,note_on,69,42,0
1,note_on,60,37,0
1,note_on,60,0,240
1,note_on,64,0,0
1,note_on,65,40,240
1,note_on,62,33,0
1,note_on,62,0,240
1,note_on,65,0,0
1,note_on,69,0,240
1,note_on,72,41,0
1,note_on,64,41,0
1,note_on,60,35,0
1,note_on,60,0,240
1,note_on,64,0,0
1,note_on,72,0,240
1,note_on,70,38,0
1,note_on,65,35,0
1,note_on,62,34,0
1,note_on,62,0,240
1,note_on,65,0,0
1,note_on,70,0,0
1,note_on,62,35,480
1,note_on,65,40,120
1,note_on,70,49,120
1,note_on,70,0,2160
1,note_on,74,41,0
1,note_on,74,0,480
1,note_on,73,41,0
1,note_on,73,0,480
1,note_on,65,0,0
1,note_on,62,0,0
1,note_on,61,35,360
1,note_on,64,35,120
1,note_on,69,41,120
1,note_on,69,0,1320
1,note_on,64,0,0
1,note_on,61,0,0
2,note_on,52,55,1440
2,note_on,52,0,480
2,note_on,45,55,0
2,note_on,45,0,120
2,note_on,60,38,120
2,note_on,52,31,0
2,note_on,52,0,120
2,note_on,60,0,0
2,note_on,48,55,120
2,note_on,48,0,120
2,note_on,64,38,120
2,note_on,57,31,0
2,note_on,57,0,120
2,note_on,64,0,0
2,note_on,47,55,120
2,note_on,47,0,120
2,note_on,62,38,120
2,note_on,53,31,0
2,note_on,53,0,120
2,note_on,62,0,0
2,note_on,52,55,120
2,note_on,52,0,120
2,note_on,64,38,120
2,note_on,59,31,0
2,note_on,59,0,120
2,note_on,64,0,0
2,note_on,48,55,120
2,note_on,48,0,120
2,note_on,64,38,120
2,note_on,57,31,0
2,note_on,57,0,120
2,note_on,64,0,0
2,note_on,45,55,120
2,note_on,45,0,120
2,note_on,64,38,120
2,note_on,57,31,0
2,note_on,57,0,120
2,note_on,64,0,0
2,note_on,50,56,120
2,note_on,50,0,120
2,note_on,65,39,120
2,note_on,57,33,0
2,note_on,57,0,120
2,note_on,65,0,0
2,note_on,50,58,120
2,note_on,50,0,120
2,note_on,65,41,120
2,note_on,56,35,0
2,note_on,56,0,120
2,note_on,65,0,0
2,note_on,48,60,120
2,note_on,48,0,120
2,note_on,65,41,120
2,note_on,57,35,0
2,note_on,57,0,120
2,note_on,65,0,0
2,note_on,48,61,120
2,note_on,48,0,120
2,note_on,64,44,120
2,note_on,57,37,0
2,note_on,57,0,120
2,note_on,64,0,0
2,note_on,47,63,120
2,note_on,47,0,120
2,note_on,62,45,120
2,note_on,53,37,0
2,note_on,53,0,120
2,note_on,62,0,0
2,note_on,40,66,120
2,note_on,40,0,120
2,note_on,62,46,120
2,note_on,59,38,0
2,note_on,52,38,0
2,note_on,52,0,120
2,note_on,59,0,0
2,note_on,62,0,0
2,note_on,45,68,120
2,note_on,45,0,120
2,note_on,60,46,120
2,note_on,52,38,0
2,note_on,52,0,120
2,note_on,60,0,0
2,note_on,47,66,120
2,note_on,47,0,120
2,note_on,62,44,120
2,note_on,52,37,0
2,note_on,52,0,120
2,note_on,62,0,0
2,note_on,48,61,120
2,note_on,48,0,120
2,note_on,64,41,120
2,note_on,52,35,0
2,note_on,52,0,120
2,note_on,64,0,0
2,note_on,45,58,120
2,note_on,45,0,120
2,note_on,60,38,120
2,note_on,52,31,0
2,note_on,52,0,120
2,note_on,60,0,0
2,note_on,40,55,120
2,note_on,40,0,120
2,note_on,62,38,120
2,note_on,52,31,0
2,note_on,52,0,120
2,note_on,62,0,0
2,note_on,45,55,120
2,note_on,45,0,120
2,note_on,60,38,120
2,note_on,52,31,0
2,note_on,52,0,120
2,note_on,60,0,0
2,note_on,47,55,120
2,note_on,47,0,120
2,note_on,52,31,120
2,note_on,62,38,0
2,note_on,56,31,0
2,note_on,56,0,120
2,note_on,62,0,0
2,note_on,52,0,0
2,note_on,45,55,120
2,note_on,45,0,120
2,note_on,52,31,120
2,note_on,60,38,0
2,note_on,57,31,0
2,note_on,57,0,120
2,note_on,60,0,0
2,note_on,52,0,0
2,note_on,40,55,120
2,note_on,40,0,120
2,note_on,52,31,120
2,note_on,62,38,0
2,note_on,56,31,0
2,note_on,56,0,120
2,note_on,62,0,0
2,note_on,52,0,0
2,note_on,45,55,120
2,note_on,45,0,120
2,note_on,52,31,120
2,note_on,60,38,0
2,note_on,57,31,0
2,note_on,57,0,120
2,note_on,60,0,0
2,note_on,52,0,0
2,note_on,47,56,120
2,note_on,47,0,120
2,note_on,52,35,120
2,note_on,62,41,0
2,note_on,56,35,0
2,note_on,56,0,120
2,note_on,62,0,0
2,note_on,52,0,0
2,note_on,45,60,120
2,note_on,45,0,120
2,note_on,57,38,120
2,note_on,60,46,0
2,note_on,52,38,0
2,note_on,52,0,120
2,note_on,60,0,0
2,note_on,57,0,0
2,note_on,43,64,120
2,note_on,43,0,120
2,note_on,64,46,120
2,note_on,55,38,0
2,note_on,55,0,120
2,note_on,64,0,0
2,note_on,45,68,120
2,note_on,45,0,120
2,note_on,64,44,120
2,note_on,57,37,0
2,note_on,57,0,120
2,note_on,64,0,0
2,note_on,47,63,120
2,note_on,47,0,120
2,note_on,64,45,120
2,note_on,59,37,0
2,note_on,59,0,120
2,note_on,64,0,0
2,note_on,47,62,120
2,note_on,47,0,120
2,note_on,63,44,120
2,note_on,59,37,0
2,note_on,59,0,120
2,note_on,63,0,0
2,note_on,52,61,120
2,note_on,52,0,120
2,note_on,64,44,120
2,note_on,59,37,0
2,note_on,59,0,120
2,note_on,64,0,0
2,note_on,51,60,120
2,note_on,51,0,120
2,note_on,66,44,120
2,note_on,60,37,0
2,note_on,60,0,120
2,note_on,66,0,0
2,note_on,50,61,120
2,note_on,50,0,120
2,note_on,65,41,120
2,note_on,59,35,0
2,note_on,59,0,120
2,note_on,65,0,0
2,note_on,40,58,120
2,note_on,40,0,120
2,note_on,64,38,120
2,note_on,59,31,0
2,note_on,59,0,120
2,note_on,64,0,0
2,note_on,45,55,120
2,note_on,45,0,120
2,note_on,64,38,120
2,note_on,57,31,0
2,note_on,57,0,120
2,note_on,64,0,0
2,note_on,48,55,120
2,note_on,48,0,120
2,note_on,64,38,120
2,note_on,57,31,0
2,note_on,57,0,120
2,note_on,64,0,0
2,note_on,47,55,120
2,note_on,47,0,120
2,note_on,62,38,120
2,note_on,53,31,0
2,note_on,53,0,120
2,note_on,62,0,0
2,note_on,52,55,120
2,note_on,52,0,120
2,note_on,64,38,120
2,note_on,59,31,0
2,note_on,59,0,120
2,note_on,64,0,0
2,note_on,48,55,120
2,note_on,48,0,120
2,note_on,64,38,120
2,note_on,57,31,0
2,note_on,57,0,120
2,note_on,64,0,0
2,note_on,45,55,120
2,note_on,45,0,120
2,note_on,64,38,120
2,note_on,57,31,0
2,note_on,57,0,120
2,note_on,64,0,0
2,note_on,50,56,120
2,note_on,50,0,120
2,note_on,65,39,120
2,note_on,57,33,0
2,note_on,57,0,120
2,note_on,65,0,0
2,note_on,50,58,120
2,note_on,50,0,120
2,note_on,65,41,120
2,note_on,56,35,0
2,note_on,56,0,120
2,note_on,65,0,0
2,note_on,48,60,120
2,note_on,48,0,120
2,note_on,65,41,120
2,note_on,57,35,0
2,note_on,57,0,120
2,note_on,65,0,0
2,note_on,48,61,120
2,note_on,48,0,120
2,note_on,64,44,120
2,note_on,57,37,0
2,note_on,57,0,120
2,note_on,64,0,0
2,note_on,47,63,120
2,note_on,47,0,120
2,note_on,62,45,120
2,note_on,53,37,0
2,note_on,53,0,120
2,note_on,62,0,0
2,note_on,40,66,120
2,note_on,40,0,120
2,note_on,62,46,120
2,note_on,59,38,0
2,note_on,52,38,0
2,note_on,52,0,120
2,note_on,59,0,0
2,note_on,62,0,0
2,note_on,45,68,120
2,note_on,45,0,120
2,note_on,60,46,120
2,note_on,52,38,0
2,note_on,52,0,120
2,note_on,60,0,0
2,note_on,47,66,120
2,note_on,47,0,120
2,note_on,56,37,120
2,note_on,62,44,0
2,note_on,52,37,0
2,note_on,52,0,120
2,note_on,62,0,0
2,note_on,56,0,0
2,note_on,48,61,120
2,note_on,48,0,120
2,note_on,57,35,120
2,note_on,64,41,0
2,note_on,52,35,0
2,note_on,52,0,120
2,note_on,64,0,0
2,note_on,57,0,0
2,note_on,45,58,120
2,note_on,45,0,120
2,note_on,60,38,120
2,note_on,52,31,0
2,note_on,52,0,120
2,note_on,60,0,0
2,note_on,40,55,120
2,note_on,40,0,120
2,note_on,62,38,120
2,note_on,52,31,0
2,note_on,52,0,120
2,note_on,62,0,0
2,note_on,45,55,120
2,note_on,45,0,120
2,note_on,60,38,120
2,note_on,52,31,0
2,note_on,52,0,120
2,note_on,60,0,0
2,note_on,47,55,120
2,note_on,47,0,120
2,note_on,52,31,120
2,note_on,62,38,0
2,note_on,56,31,0
2,note_on,56,0,120
2,note_on,62,0,0
2,note_on,52,0,0
2,note_on,45,55,120
2,note_on,45,0,120
2,note_on,52,31,120
2,note_on,60,38,0
2,note_on,57,31,0
2,note_on,57,0,120
2,note_on,60,0,0
2,note_on,52,0,0
2,note_on,40,55,120
2,note_on,40,0,120
2,note_on,52,31,120
2,note_on,62,38,0
2,note_on,56,31,0
2,note_on,56,0,120
2,note_on,62,0,0
2,note_on,52,0,0
2,note_on,45,55,120
2,note_on,45,0,120
2,note_on,52,31,120
2,note_on,60,38,0
2,note_on,57,31,0
2,note_on,57,0,120
2,note_on,60,0,0
2,note_on,52,0,0
2,note_on,47,56,120
2,note_on,47,0,120
2,note_on,52,35,120
2,note_on,62,41,0
2,note_on,56,35,0
2,note_on,56,0,120
2,note_on,62,0,0
2,note_on,52,0,0
2,note_on,45,60,120
2,note_on,45,0,120
2,note_on,57,38,120
2,note_on,60,46,0
2,note_on,52,38,0
2,note_on,52,0,120
2,note_on,60,0,0
2,note_on,57,0,0
2,note_on,43,64,120
2,note_on,43,0,120
2,note_on,64,46,120
2,note_on,55,38,0
2,note_on,55,0,120
2,note_on,64,0,0
2,note_on,45,68,120
2,note_on,45,0,120
2,note_on,64,44,120
2,note_on,57,37,0
2,note_on,57,0,120
2,note_on,64,0,0
2,note_on,47,63,120
2,note_on,47,0,120
2,note_on,64,45,120
2,note_on,59,37,0
2,note_on,59,0,120
2,note_on,64,0,0
2,note_on,47,62,120
2,note_on,47,0,120
2,note_on,63,44,120
2,note_on,59,37,0
2,note_on,59,0,120
2,note_on,63,0,0
2,note_on,52,61,120
2,note_on,52,0,120
2,note_on,64,44,120
2,note_on,59,37,0
2,note_on,59,0,120
2,note_on,64,0,0
2,note_on,45,60,120
2,note_on,45,0,120
2,note_on,64,44,120
2,note_on,57,37,0
2,note_on,57,0,120
2,note_on,64,0,0
2,note_on,52,61,120
2,note_on,52,0,120
2,note_on,64,41,120
2,note_on,59,35,0
2,note_on,59,0,120
2,note_on,64,0,0
2,note_on,45,58,120
2,note_on,45,0,120
2,note_on,64,38,120
2,note_on,57,31,0
2,note_on,57,0,120
2,note_on,64,0,0
2,note_on,43,55,120
2,note_on,43,0,120
2,note_on,64,38,120
2,note_on,55,31,0
2,note_on,55,0,120
2,note_on,64,0,0
2,note_on,45,57,120
2,note_on,45,0,120
2,note_on,64,37,120
2,note_on,57,30,0
2,note_on,57,0,120
2,note_on,64,0,0
2,note_on,47,53,120
2,note_on,47,0,120
2,note_on,64,37,120
2,note_on,59,30,0
2,note_on,59,0,120
2,note_on,64,0,0
2,note_on,47,52,120
2,note_on,47,0,120
2,note_on,63,37,120
2,note_on,59,30,0
2,note_on,59,0,120
2,note_on,63,0,0
2,note_on,52,59,120
2,note_on,52,0,120
2,note_on,55,36,120
2,note_on,64,45,0
2,note_on,59,36,0
2,note_on,59,0,120
2,note_on,64,0,0
2,note_on,55,0,0
2,note_on,51,63,120
2,note_on,51,0,120
2,note_on,59,40,120
2,note_on,64,50,0
2,note_on,55,40,0
2,note_on,55,0,120
2,note_on,64,0,0
2,note_on,59,0,0
2,note_on,50,72,120
2,note_on,50,0,120
2,note_on,56,44,120
2,note_on,65,51,0
2,note_on,59,44,0
2,note_on,59,0,120
2,note_on,65,0,0
2,note_on,56,0,0
2,note_on,49,77,120
2,note_on,49,0,120
2,note_on,56,42,120
2,note_on,65,51,0
2,note_on,59,42,0
2,note_on,59,0,120
2,note_on,65,0,0
2,note_on,56,0,0
2,note_on,48,77,120
2,note_on,48,0,74
2,note_on,65,53,120
2,note_on,57,44,0
2,note_on,57,0,120
2,note_on,65,0,0
2,note_on,48,77,120
2,note_on,48,0,120
2,note_on,65,53,120
2,note_on,56,44,0
2,note_on,56,0,40
2,note_on,65,0,0
2,note_on,48,77,120
2,note_on,48,0,120
2,note_on,55,44,120
2,note_on,64,53,0
2,note_on,64,0,105
2,note_on,55,0,0
2,note_on,48,77,120
2,note_on,48,0,120
2,note_on,55,44,120
2,note_on,60,53,0
2,note_on,60,0,120
2,note_on,55,0,0
2,note_on,48,77,120
2,note_on,48,0,120
2,note_on,55,44,120
2,note_on,64,53,0
2,note_on,64,0,120
2,note_on,55,0,0
2,note_on,48,77,120
2,note_on,48,0,120
2,note_on,55,44,120
2,note_on,60,53,0
2,note_on,60,0,120
2,note_on,55,0,0
2,note_on,48,77,120
2,note_on,48,0,120
2,note_on,55,44,120
2,note_on,64,53,0
2,note_on,64,0,120
2,note_on,55,0,0
2,note_on,53,77,120
2,note_on,53,0,120
2,note_on,57,44,120
2,note_on,65,53,0
2,note_on,65,0,120
2,note_on,57,0,0
2,note_on,44,61,0
2,note_on,44,0,120
2,note_on,61,42,120
2,note_on,53,35,0
2,note_on,53,0,120
2,note_on,61,0,0
2,note_on,44,61,120
2,note_on,44,0,120
2,note_on,61,42,120
2,note_on,52,35,0
2,note_on,52,0,40
2,note_on,61,0,0
2,note_on,44,61,120
2,note_on,44,0,120
2,note_on,51,35,120
2,note_on,60,42,0
2,note_on,60,0,112
2,note_on,51,0,0
2,note_on,44,61,120
2,note_on,44,0,120
2,note_on,51,35,120
2,note_on,56,42,0
2,note_on,56,0,120
2,note_on,51,0,0
2,note_on,44,61,120
2,note_on,44,0,120
2,note_on,51,35,120
2,note_on,60,42,0
2,note_on,60,0,120
2,note_on,51,0,0
2,note_on,44,61,120
2,note_on,44,0,120
2,note_on,51,35,120
2,note_on,56,42,0
2,note_on,56,0,120
2,note_on,51,0,0
2,note_on,44,61,120
2,note_on,44,0,120
2,note_on,51,35,120
2,note_on,60,42,0
2,note_on,60,0,120
2,note_on,51,0,0
2,note_on,44,61,120
2,note_on,44,0,120
2,note_on,53,35,120
2,note_on,61,42,0
2,note_on,61,0,120
2,note_on,53,0,0
2,note_on,44,61,120
2,note_on,44,0,120
2,note_on,51,35,120
2,note_on,60,42,0
2,note_on,60,0,120
2,note_on,51,0,0
2,note_on,44,61,120
2,note_on,44,0,120
2,note_on,49,35,120
2,note_on,58,42,0
2,note_on,58,0,120
2,note_on,49,0,0
2,note_on,44,62,120
2,note_on,44,0,120
2,note_on,48,35,120
2,note_on,56,44,0
2,note_on,56,0,120
2,note_on,48,0,0
2,note_on,44,63,120
2,note_on,44,0,120
2,note_on,54,36,120
2,note_on,63,44,0
2,note_on,63,0,120
2,note_on,54,0,0
2,note_on,44,64,120
2,note_on,44,0,120
2,note_on,53,37,120
2,note_on,61,45,0
2,note_on,61,0,120
2,note_on,53,0,0
2,note_on,44,64,120
2,note_on,44,0,120
2,note_on,49,37,120
2,note_on,58,46,0
2,note_on,58,0,120
2,note_on,49,0,0
2,note_on,44,67,120
2,note_on,44,0,120
2,note_on,53,38,120
2,note_on,61,46,0
2,note_on,61,0,120
2,note_on,53,0,0
2,note_on,44,67,120
2,note_on,44,0,120
2,note_on,51,38,120
2,note_on,60,47,0
2,note_on,60,0,120
2,note_on,51,0,0
2,note_on,44,68,120
2,note_on,44,0,120
2,note_on,54,39,120
2,note_on,63,48,0
2,note_on,63,0,120
2,note_on,54,0,0
2,note_on,44,69,120
2,note_on,44,0,120
2,note_on,53,39,120
2,note_on,61,48,0
2,note_on,61,0,120
2,note_on,53,0,0
2,note_on,44,70,120
2,note_on,44,0,120
2,note_on,51,40,120
2,note_on,60,49,0
2,note_on,60,0,120
2,note_on,51,0,0
2,note_on,45,71,120
2,note_on,45,0,63
2,note_on,54,40,120
2,note_on,65,49,0
2,note_on,65,0,120
2,note_on,54,0,0
2,note_on,44,72,120
2,note_on,44,0,120
2,note_on,54,41,120
2,note_on,63,50,0
2,note_on,63,0,109
2,note_on,54,0,0
2,note_on,44,73,120
2,note_on,44,0,120
2,note_on,54,41,120
2,note_on,60,51,0
2,note_on,60,0,120
2,note_on,54,0,0
2,note_on,46,73,120
2,note_on,46,0,120
2,note_on,54,42,120
2,note_on,63,51,0
2,note_on,63,0,120
2,note_on,54,0,0
2,note_on,46,74,120
2,note_on,46,0,120
2,note_on,53,42,120
2,note_on,62,52,0
2,note_on,62,0,120
2,note_on,53,0,0
2,note_on,47,77,120
2,note_on,47,0,120
2,note_on,65,53,120
2,note_on,56,44,0
2,note_on,56,0,120
2,note_on,65,0,0
2,note_on,47,77,120
2,note_on,47,0,120
2,note_on,65,53,120
2,note_on,55,44,0
2,note_on,55,0,120
2,note_on,65,0,0
2,note_on,48,77,120
2,note_on,48,0,120
2,note_on,55,44,120
2,note_on,60,53,0
2,note_on,60,0,120
2,note_on,55,0,0
2,note_on,41,77,120
2,note_on,41,0,120
2,note_on,53,44,120
2,note_on,60,53,0
2,note_on,60,0,120
2,note_on,53,0,0
2,note_on,47,77,120
2,note_on,47,0,120
2,note_on,65,53,120
2,note_on,56,44,0
2,note_on,56,0,120
2,note_on,65,0,0
2,note_on,47,77,120
2,note_on,47,0,120
2,note_on,65,53,120
2,note_on,55,44,0
2,note_on,55,0,120
2,note_on,65,0,0
2,note_on,48,77,120
2,note_on,48,0,120
2,note_on,55,44,120
2,note_on,60,53,0
2,note_on,60,0,120
2,note_on,55,0,0
2,note_on,41,77,120
2,note_on,41,0,120
2,note_on,53,44,120
2,note_on,60,53,0
2,note_on,60,0,120
2,note_on,53,0,0
2,note_on,39,69,120
2,note_on,39,0,120
2,note_on,60,48,120
2,note_on,51,39,0
2,note_on,51,0,120
2,note_on,60,0,0
2,note_on,41,69,120
2,note_on,41,0,120
2,note_on,60,48,120
2,note_on,53,39,0
2,note_on,53,0,120
2,note_on,60,0,0
2,note_on,43,69,120
2,note_on,43,0,120
2,note_on,55,39,120
2,note_on,60,48,0
2,note_on,60,0,120
2,note_on,55,0,0
2,note_on,43,69,120
2,note_on,43,0,120
2,note_on,55,39,120
2,note_on,59,48,0
2,note_on,59,0,120
2,note_on,55,0,0
2,note_on,48,61,120
2,note_on,48,0,120
2,note_on,60,42,120
2,note_on,55,35,0
2,note_on,55,0,120
2,note_on,60,0,0
2,note_on,41,61,120
2,note_on,41,0,120
2,note_on,60,42,120
2,note_on,53,35,0
2,note_on,53,0,120
2,note_on,60,0,0
2,note_on,48,61,120
2,note_on,48,0,120
2,note_on,55,35,120
2,note_on,60,42,0
2,note_on,60,0,120
2,note_on,55,0,0
2,note_on,41,61,120
2,note_on,41,0,120
2,note_on,53,35,120
2,note_on,60,42,0
2,note_on,60,0,120
2,note_on,53,0,0
2,note_on,39,55,120
2,note_on,39,0,120
2,note_on,60,34,0
2,note_on,51,27,0
2,note_on,51,0,120
2,note_on,60,0,0
2,note_on,41,49,120
2,note_on,41,0,120
2,note_on,53,27,120
2,note_on,60,34,0
2,note_on,60,0,46
2,note_on,53,0,0
2,note_on,43,49,120
2,note_on,43,0,120
2,note_on,60,34,120
2,note_on,55,27,0
2,note_on,55,0,11
2,note_on,60,0,0
2,note_on,43,49,120
2,note_on,43,0,120
2,note_on,59,34,120
2,note_on,55,27,0
2,note_on,55,0,106
2,note_on,59,0,0
2,note_on,48,42,97
2,note_on,48,0,120
2,note_on,60,29,0
2,note_on,55,24,0
2,note_on,55,0,49
2,note_on,60,0,0
2,note_on,41,39,120
2,note_on,41,0,120
2,note_on,60,34,0
2,note_on,53,27,0
2,note_on,53,0,120
2,note_on,60,0,0
2,note_on,48,41,120
2,note_on,48,0,120
2,note_on,55,27,120
2,note_on,60,34,0
2,note_on,60,0,120
2,note_on,55,0,0
2,note_on,41,42,120
2,note_on,41,0,120
2,note_on,53,27,120
2,note_on,60,34,0
2,note_on,60,0,120
2,note_on,53,0,0
2,note_on,39,58,120
2,note_on,39,0,69
2,note_on,60,44,120
2,note_on,51,35,0
2,note_on,51,0,29
2,note_on,60,0,0
2,note_on,41,64,120
2,note_on,41,0,120
2,note_on,60,46,120
2,note_on,53,36,0
2,note_on,53,0,11
2,note_on,60,0,0
2,note_on,44,68,120
2,note_on,44,0,120
2,note_on,60,37,120
2,note_on,56,37,0
2,note_on,65,47,0
2,note_on,65,0,11
2,note_on,56,0,0
2,note_on,60,0,0
2,note_on,43,70,120
2,note_on,43,0,120
2,note_on,62,39,120
2,note_on,55,39,0
2,note_on,67,49,0
2,note_on,67,0,23
2,note_on,55,0,0
2,note_on,62,0,0
2,note_on,48,71,0
2,note_on,48,0,28
2,note_on,67,42,120
2,note_on,60,34,0
2,note_on,60,0,120
2,note_on,67,0,0
2,note_on,53,60,120
2,note_on,53,0,120
2,note_on,65,40,120
2,note_on,60,33,0
2,note_on,60,0,40
2,note_on,65,0,0
2,note_on,55,57,120
2,note_on,55,0,120
2,note_on,60,30,120
2,note_on,63,38,0
2,note_on,63,0,23
2,note_on,60,0,0
2,note_on,43,55,120
2,note_on,43,0,120
2,note_on,55,27,120
2,note_on,62,35,0
2,note_on,62,0,108
2,note_on,55,0,0
2,note_on,48,49,120
2,note_on,48,0,120
2,note_on,55,27,120
2,note_on,60,34,0
2,note_on,60,0,120
2,note_on,55,0,0
2,note_on,47,49,120
2,note_on,47,0,120
2,note_on,56,27,120
2,note_on,61,34,0
2,note_on,61,0,120
2,note_on,56,0,0
2,note_on,48,49,120
2,note_on,48,0,120
2,note_on,55,27,120
2,note_on,60,35,0
2,note_on,60,0,120
2,note_on,55,0,0
2,note_on,47,50,120
2,note_on,47,0,120
2,note_on,56,28,120
2,note_on,62,35,0
2,note_on,62,0,120
2,note_on,56,0,0
2,note_on,48,51,120
2,note_on,48,0,120
2,note_on,55,29,120
2,note_on,60,35,0
2,note_on,60,0,120
2,note_on,55,0,0
2,note_on,47,51,120
2,note_on,47,0,120
2,note_on,56,29,120
2,note_on,61,36,0
2,note_on,61,0,120
2,note_on,56,0,0
2,note_on,48,52,120
2,note_on,48,0,120
2,note_on,55,29,120
2,note_on,60,36,0
2,note_on,60,0,120
2,note_on,55,0,0
2,note_on,47,52,120
2,note_on,47,0,120
2,note_on,56,29,120
2,note_on,62,37,0
2,note_on,62,0,120
2,note_on,56,0,0
2,note_on,48,53,120
2,note_on,48,0,120
2,note_on,55,29,120
2,note_on,60,37,0
2,note_on,60,0,120
2,note_on,55,0,0
2,note_on,47,52,120
2,note_on,47,0,120
2,note_on,56,29,120
2,note_on,62,36,0
2,note_on,62,0,120
2,note_on,56,0,0
2,note_on,48,52,120
2,note_on,48,0,120
2,note_on,55,29,120
2,note_on,60,36,0
2,note_on,60,0,120
2,note_on,55,0,0
2,note_on,47,51,120
2,note_on,47,0,120
2,note_on,56,29,120
2,note_on,61,35,0
2,note_on,61,0,120
2,note_on,56,0,0
2,note_on,48,51,120
2,note_on,48,0,120
2,note_on,55,29,120
2,note_on,60,35,0
2,note_on,60,0,120
2,note_on,55,0,0
2,note_on,47,50,120
2,note_on,47,0,120
2,note_on,56,28,120
2,note_on,62,35,0
2,note_on,62,0,120
2,note_on,56,0,0
2,note_on,47,49,120
2,note_on,47,0,120
2,note_on,57,28,120
2,note_on,63,34,0
2,note_on,63,0,120
2,note_on,57,0,0
2,note_on,40,49,120
2,note_on,40,0,103
2,note_on,59,27,120
2,note_on,52,27,0
2,note_on,62,34,0
2,note_on,62,0,120
2,note_on,52,0,0
2,note_on,59,0,0
2,note_on,45,55,0
2,note_on,45,0,120
2,note_on,60,38,120
2,note_on,52,30,0
2,note_on,52,0,120
2,note_on,60,0,0
2,note_on,48,64,120
2,note_on,48,0,120
2,note_on,64,45,120
2,note_on,57,37,0
2,note_on,57,0,120
2,note_on,64,0,0
2,note_on,47,64,120
2,note_on,47,0,120
2,note_on,53,37,120
2,note_on,62,45,0
2,note_on,62,0,120
2,note_on,53,0,0
2,note_on,52,64,120
2,note_on,52,0,120
2,note_on,59,37,120
2,note_on,64,45,0
2,note_on,64,0,120
2,note_on,59,0,0
2,note_on,48,55,120
2,note_on,48,0,120
2,note_on,64,38,120
2,note_on,57,30,0
2,note_on,57,0,120
2,note_on,64,0,0
2,note_on,45,64,120
2,note_on,45,0,120
2,note_on,57,37,120
2,note_on,64,45,0
2,note_on,64,0,120
2,note_on,57,0,0
2,note_on,50,64,120
2,note_on,50,0,120
2,note_on,57,37,120
2,note_on,65,45,0
2,note_on,65,0,120
2,note_on,57,0,0
2,note_on,50,64,120
2,note_on,50,0,120
2,note_on,65,45,120
2,note_on,56,37,0
2,note_on,56,0,120
2,note_on,65,0,0
2,note_on,48,55,120
2,note_on,48,0,120
2,note_on,65,38,120
2,note_on,57,31,0
2,note_on,57,0,120
2,note_on,65,0,0
2,note_on,48,61,120
2,note_on,48,0,120
2,note_on,64,44,120
2,note_on,57,37,0
2,note_on,57,0,120
2,note_on,64,0,0
2,note_on,47,63,120
2,note_on,47,0,120
2,note_on,62,45,120
2,note_on,53,37,0
2,note_on,53,0,120
2,note_on,62,0,0
2,note_on,40,66,120
2,note_on,40,0,120
2,note_on,62,46,120
2,note_on,59,38,0
2,note_on,52,38,0
2,note_on,52,0,120
2,note_on,59,0,0
2,note_on,62,0,0
2,note_on,45,68,120
2,note_on,45,0,120
2,note_on,60,46,120
2,note_on,52,38,0
2,note_on,52,0,120
2,note_on,60,0,0
2,note_on,47,66,120
2,note_on,47,0,120
2,note_on,62,44,120
2,note_on,52,37,0
2,note_on,52,0,120
2,note_on,62,0,0
2,note_on,48,61,120
2,note_on,48,0,120
2,note_on,64,41,120
2,note_on,52,35,0
2,note_on,52,0,120
2,note_on,64,0,0
2,note_on,45,58,120
2,note_on,45,0,120
2,note_on,60,38,120
2,note_on,52,31,0
2,note_on,52,0,120
2,note_on,60,0,0
2,note_on,40,55,120
2,note_on,40,0,120
2,note_on,62,38,120
2,note_on,52,31,0
2,note_on,52,0,120
2,note_on,62,0,0
2,note_on,45,55,120
2,note_on,45,0,120
2,note_on,60,38,120
2,note_on,52,31,0
2,note_on,52,0,120
2,note_on,60,0,0
2,note_on,47,55,120
2,note_on,47,0,120
2,note_on,52,31,120
2,note_on,62,38,0
2,note_on,56,31,0
2,note_on,56,0,120
2,note_on,62,0,0
2,note_on,52,0,0
2,note_on,45,55,120
2,note_on,45,0,120
2,note_on,52,31,120
2,note_on,60,38,0
2,note_on,57,31,0
2,note_on,57,0,120
2,note_on,60,0,0
2,note_on,52,0,0
2,note_on,40,55,120
2,note_on,40,0,120
2,note_on,52,31,120
2,note_on,62,38,0
2,note_on,56,31,0
2,note_on,56,0,120
2,note_on,62,0,0
2,note_on,52,0,0
2,note_on,45,55,120
2,note_on,45,0,120
2,note_on,52,31,120
2,note_on,60,38,0
2,note_on,57,31,0
2,note_on,57,0,120
2,note_on,60,0,0
2,note_on,52,0,0
2,note_on,47,56,120
2,note_on,47,0,120
2,note_on,52,35,120
2,note_on,62,41,0
2,note_on,56,35,0
2,note_on,56,0,120
2,note_on,62,0,0
2,note_on,52,0,0
2,note_on,45,60,120
2,note_on,45,0,120
2,note_on,57,38,120
2,note_on,60,46,0
2,note_on,52,38,0
2,note_on,52,0,120
2,note_on,60,0,0
2,note_on,57,0,0
2,note_on,43,64,120
2,note_on,43,0,120
2,note_on,64,46,120
2,note_on,55,38,0
2,note_on,55,0,120
2,note_on,64,0,0
2,note_on,45,68,120
2,note_on,45,0,120
2,note_on,64,44,120
2,note_on,57,37,0
2,note_on,57,0,120
2,note_on,64,0,0
2,note_on,47,63,120
2,note_on,47,0,120
2,note_on,64,45,120
2,note_on,59,37,0
2,note_on,59,0,120
2,note_on,64,0,0
2,note_on,47,62,120
2,note_on,47,0,120
2,note_on,63,44,120
2,note_on,59,37,0
2,note_on,59,0,120
2,note_on,63,0,0
2,note_on,52,61,120
2,note_on,52,0,120
2,note_on,64,44,120
2,note_on,59,37,0
2,note_on,59,0,120
2,note_on,64,0,0
2,note_on,51,60,120
2,note_on,51,0,120
2,note_on,66,44,120
2,note_on,60,37,0
2,note_on,60,0,120
2,note_on,66,0,0
2,note_on,50,61,120
2,note_on,50,0,120
2,note_on,65,41,120
2,note_on,59,35,0
2,note_on,59,0,120
2,note_on,65,0,0
2,note_on,40,58,120
2,note_on,40,0,91
2,note_on,64,38,120
2,note_on,59,31,0
2,note_on,59,0,120
2,note_on,64,0,0
2,note_on,45,55,120
2,note_on,45,0,80
2,note_on,64,38,120
2,note_on,57,31,0
2,note_on,57,0,120
2,note_on,64,0,0
2,note_on,48,55,120
2,note_on,48,0,120
2,note_on,64,38,120
2,note_on,57,31,0
2,note_on,57,0,120
2,note_on,64,0,0
2,note_on,47,55,120
2,note_on,47,0,120
2,note_on,62,38,120
2,note_on,53,31,0
2,note_on,53,0,120
2,note_on,62,0,0
2,note_on,52,55,120
2,note_on,52,0,120
2,note_on,64,38,120
2,note_on,59,31,0
2,note_on,59,0,120
2,note_on,64,0,0
2,note_on,48,55,120
2,note_on,48,0,120
2,note_on,64,38,120
2,note_on,57,31,0
2,note_on,57,0,120
2,note_on,64,0,0
2,note_on,45,55,120
2,note_on,45,0,120
2,note_on,64,38,120
2,note_on,57,31,0
2,note_on,57,0,120
2,note_on,64,0,0
2,note_on,50,56,120
2,note_on,50,0,120
2,note_on,65,39,120
2,note_on,57,33,0
2,note_on,57,0,120
2,note_on,65,0,0
2,note_on,50,58,120
2,note_on,50,0,120
2,note_on,65,41,120
2,note_on,56,35,0
2,note_on,56,0,120
2,note_on,65,0,0
2,note_on,48,60,120
2,note_on,48,0,120
2,note_on,65,41,120
2,note_on,57,35,0
2,note_on,57,0,120
2,note_on,65,0,0
2,note_on,48,61,120
2,note_on,48,0,120
2,note_on,64,44,120
2,note_on,57,37,0
2,note_on,57,0,120
2,note_on,64,0,0
2,note_on,47,63,120
2,note_on,47,0,120
2,note_on,62,45,120
2,note_on,53,37,0
2,note_on,53,0,120
2,note_on,62,0,0
2,note_on,40,66,120
2,note_on,40,0,120
2,note_on,62,46,120
2,note_on,59,38,0
2,note_on,52,38,0
2,note_on,52,0,120
2,note_on,59,0,0
2,note_on,62,0,0
2,note_on,45,68,120
2,note_on,45,0,120
2,note_on,57,38,120
2,note_on,60,46,0
2,note_on,52,38,0
2,note_on,52,0,120
2,note_on,60,0,0
2,note_on,57,0,0
2,note_on,47,66,120
2,note_on,47,0,120
2,note_on,56,37,120
2,note_on,62,44,0
2,note_on,52,37,0
2,note_on,52,0,120
2,note_on,62,0,0
2,note_on,56,0,0
2,note_on,48,61,120
2,note_on,48,0,120
2,note_on,57,35,120
2,note_on,64,41,0
2,note_on,52,35,0
2,note_on,52,0,120
2,note_on,64,0,0
2,note_on,57,0,0
2,note_on,45,58,120
2,note_on,45,0,120
2,note_on,57,31,120
2,note_on,60,38,0
2,note_on,52,31,0
2,note_on,52,0,120
2,note_on,60,0,0
2,note_on,57,0,0
2,note_on,40,55,120
2,note_on,40,0,120
2,note_on,62,38,120
2,note_on,52,31,0
2,note_on,52,0,120
2,note_on,62,0,0
2,note_on,45,55,120
2,note_on,45,0,120
2,note_on,60,38,120
2,note_on,52,31,0
2,note_on,52,0,120
2,note_on,60,0,0
2,note_on,47,55,120
2,note_on,47,0,120
2,note_on,52,31,120
2,note_on,62,38,0
2,note_on,56,31,0
2,note_on,56,0,120
2,note_on,62,0,0
2,note_on,52,0,0
2,note_on,45,55,120
2,note_on,45,0,120
2,note_on,52,31,120
2,note_on,60,38,0
2,note_on,57,31,0
2,note_on,57,0,120
2,note_on,60,0,0
2,note_on,52,0,0
2,note_on,40,55,120
2,note_on,40,0,120
2,note_on,52,31,120
2,note_on,62,38,0
2,note_on,62,0,120
2,note_on,52,0,0
2,note_on,45,55,120
2,note_on,45,0,120
2,note_on,52,31,120
2,note_on,60,38,0
2,note_on,60,0,120
2,note_on,52,0,0
2,note_on,47,56,120
2,note_on,47,0,120
2,note_on,52,35,120
2,note_on,62,41,0
2,note_on,62,0,120
2,note_on,52,0,0
2,note_on,49,60,120
2,note_on,49,0,91
2,note_on,58,38,120
2,note_on,64,46,0
2,note_on,64,0,120
2,note_on,58,0,0
2,note_on,50,64,120
2,note_on,62,46,233
2,note_on,58,38,0
2,note_on,58,0,120
2,note_on,62,0,0
2,note_on,53,68,120
2,note_on,53,0,120
2,note_on,62,44,120
2,note_on,58,37,0
2,note_on,58,0,120
2,note_on,62,0,0
2,note_on,50,0,120
2,note_on,38,63,0
2,note_on,38,0,74
2,note_on,58,45,120
2,note_on,53,37,0
2,note_on,53,0,120
2,note_on,58,0,0
2,note_on,40,62,120
2,note_on,40,0,10
2,note_on,59,41,120
2,note_on,52,35,0
2,note_on,52,0,120
2,note_on,59,0,0
2,note_on,45,58,120
2,note_on,45,0,114
2,note_on,57,41,120
2,note_on,52,35,0
2,note_on,52,0,120
2,note_on,57,0,0
2,note_on,50,57,120
2,note_on,50,0,120
2,note_on,57,41,120
2,note_on,53,35,0
2,note_on,53,0,120
2,note_on,57,0,0
2,note_on,45,58,120
2,note_on,45,0,120
2,note_on,57,39,120
2,note_on,52,33,0
2,note_on,52,0,120
2,note_on,57,0,0
2,note_on,50,55,120
2,note_on,50,0,120
2,note_on,57,36,120
2,note_on,53,29,0
2,note_on,53,0,120
2,note_on,57,0,0
2,note_on,45,51,120
2,note_on,45,0,120
2,note_on,57,28,120
2,note_on,52,23,0
2,note_on,52,0,120
2,note_on,57,0,0
2,note_on,36,45,120
2,note_on,36,0,120
2,note_on,57,29,120
2,note_on,52,24,0
2,note_on,52,0,120
2,note_on,57,0,0
2,note_on,38,42,120
2,note_on,38,0,120
2,note_on,58,29,120
2,note_on,53,24,0
2,note_on,53,0,120
2,note_on,58,0,0
2,note_on,40,41,120
2,note_on,40,0,120
2,note_on,59,29,120
2,note_on,52,24,0
2,note_on,52,0,120
2,note_on,59,0,0
2,note_on,45,44,120
2,note_on,45,0,120
2,note_on,52,25,120
2,note_on,57,30,0
2,note_on,57,0,120
2,note_on,52,0,0
2,note_on,50,41,120
2,note_on,50,0,120
2,note_on,57,28,120
2,note_on,53,23,0
2,note_on,53,0,120
2,note_on,57,0,0
2,note_on,45,39,120
2,note_on,45,0,120
2,note_on,52,25,120
2,note_on,57,30,0
2,note_on,57,0,120
2,note_on,52,0,0
2,note_on,50,38,120
2,note_on,50,0,120
2,note_on,53,27,120
2,note_on,57,33,0
2,note_on,57,0,120
2,note_on,53,0,0
2,note_on,45,40,120
2,note_on,45,0,120
2,note_on,57,34,120
2,note_on,52,28,0
2,note_on,52,0,120
2,note_on,57,0,0
2,note_on,48,64,120
2,note_on,48,0,120
2,note_on,60,48,120
2,note_on,52,39,0
2,note_on,52,0,120
2,note_on,60,0,0
2,note_on,47,62,120
2,note_on,47,0,120
2,note_on,59,39,0
2,note_on,65,48,0
2,note_on,65,0,120
2,note_on,59,0,0
2,note_on,52,62,120
2,note_on,52,0,120
2,note_on,59,39,120
2,note_on,64,48,0
2,note_on,64,0,113
2,note_on,59,0,0
2,note_on,45,69,120
2,note_on,45,0,120
2,note_on,57,39,120
2,note_on,64,48,0
2,note_on,64,0,34
2,note_on,57,0,0
2,note_on,50,59,120
2,note_on,50,0,120
2,note_on,57,39,120
2,note_on,62,48,0
2,note_on,62,0,69
2,note_on,57,0,0
2,note_on,38,59,120
2,note_on,38,0,120
2,note_on,53,33,120
2,note_on,58,40,0
2,note_on,58,0,103
2,note_on,53,0,0
2,note_on,40,41,120
2,note_on,40,0,120
2,note_on,59,29,120
2,note_on,52,24,0
2,note_on,52,0,28
2,note_on,59,0,0
2,note_on,45,44,0
2,note_on,45,0,120
2,note_on,52,25,120
2,note_on,57,30,0
2,note_on,57,0,120
2,note_on,52,0,0
2,note_on,50,41,120
2,note_on,50,0,120
2,note_on,57,30,120
2,note_on,53,25,0
2,note_on,53,0,120
2,note_on,57,0,0
2,note_on,38,39,120
2,note_on,38,0,120
2,note_on,53,25,120
2,note_on,58,30,0
2,note_on,58,0,120
2,note_on,53,0,0
2,note_on,40,38,120
2,note_on,40,0,120
2,note_on,52,24,120
2,note_on,59,28,0
2,note_on,59,0,63
2,note_on,52,0,0
2,note_on,41,36,120
2,note_on,41,0,120
2,note_on,57,29,120
2,note_on,53,25,0
2,note_on,53,0,23
2,note_on,57,0,0
2,note_on,36,55,120
2,note_on,36,0,120
2,note_on,57,38,120
2,note_on,48,30,0
2,note_on,48,0,34
2,note_on,57,0,0
2,note_on,38,55,120
2,note_on,38,0,120
2,note_on,50,30,120
2,note_on,58,38,0
2,note_on,58,0,40
2,note_on,50,0,0
2,note_on,40,55,120
2,note_on,40,0,120
2,note_on,52,30,120
2,note_on,59,38,0
2,note_on,59,0,120
2,note_on,52,0,0
2,note_on,45,41,120
2,note_on,45,0,120
2,note_on,52,23,120
2,note_on,57,28,0
2,note_on,57,0,120
2,note_on,52,0,0
2,note_on,50,39,120
2,note_on,50,0,120
2,note_on,57,28,120
2,note_on,53,23,0
2,note_on,53,0,120
2,note_on,57,0,0
2,note_on,45,38,120
2,note_on,45,0,120
2,note_on,52,24,120
2,note_on,57,29,0
2,note_on,57,0,120
2,note_on,52,0,0
2,note_on,50,36,120
2,note_on,50,0,120
2,note_on,53,26,120
2,note_on,57,30,0
2,note_on,57,0,120
2,note_on,53,0,0
2,note_on,45,39,120
2,note_on,45,0,120
2,note_on,52,20,120
2,note_on,57,26,0
2,note_on,57,0,120
2,note_on,52,0,0
2,note_on,50,36,120
2,note_on,50,0,120
2,note_on,57,25,120
2,note_on,53,20,0
2,note_on,53,0,120
2,note_on,57,0,0
2,note_on,45,35,120
2,note_on,45,0,120
2,note_on,52,22,120
2,note_on,57,26,0
2,note_on,57,0,120
2,note_on,52,0,0
2,note_on,45,33,120
2,note_on,45,0,190
2,note_on,50,23,0
2,note_on,58,28,0
2,note_on,58,0,240
2,note_on,50,0,0
2,note_on,45,27,0
2,note_on,50,27,120
2,note_on,53,33,120
2,note_on,58,33,120
2,note_on,58,0,1560
2,note_on,50,0,0
2,note_on,53,0,1920
2,note_on,45,0,0
2,note_on,45,27,0
2,note_on,52,27,120
2,note_on,57,33,91
2,note_on,57,0,1680
2,note_on,52,0,0
2,note_on,45,0,0
