Track,Message Type,Note,Velocity,Time
1,note_on,51,83,0
1,note_on,51,0,119
1,note_on,55,52,1
1,note_on,55,0,119
1,note_on,63,52,1
1,note_on,63,0,119
1,note_on,63,53,1
1,note_on,63,0,119
1,note_on,67,62,1
1,note_on,67,0,119
1,note_on,75,55,1
1,note_on,75,0,119
1,note_on,75,53,1
1,note_on,75,0,119
1,note_on,79,53,1
1,note_on,79,0,119
1,note_on,87,71,1
1,note_on,87,0,119
1,note_on,79,57,1
1,note_on,79,0,119
1,note_on,75,57,1
1,note_on,75,0,119
1,note_on,75,57,1
1,note_on,75,0,119
1,note_on,67,64,1
1,note_on,67,0,119
1,note_on,63,55,1
1,note_on,63,0,119
1,note_on,63,56,1
1,note_on,63,0,119
1,note_on,55,56,1
1,note_on,55,0,119
1,note_on,50,84,1
1,note_on,50,0,119
1,note_on,56,52,1
1,note_on,56,0,119
1,note_on,62,52,1
1,note_on,62,0,119
1,note_on,62,52,1
1,note_on,62,0,119
1,note_on,68,67,1
1,note_on,68,0,119
1,note_on,74,55,1
1,note_on,74,0,119
1,note_on,74,53,1
1,note_on,74,0,119
1,note_on,80,53,1
1,note_on,80,0,119
1,note_on,86,77,1
1,note_on,86,0,119
1,note_on,80,58,1
1,note_on,80,0,119
1,note_on,74,58,1
1,note_on,74,0,119
1,note_on,74,58,1
1,note_on,74,0,119
1,note_on,68,66,1
1,note_on,68,0,119
1,note_on,62,58,1
1,note_on,62,0,119
1,note_on,62,58,1
1,note_on,62,0,119
1,note_on,56,57,1
1,note_on,56,0,119
1,note_on,53,90,1
1,note_on,53,0,119
1,note_on,60,59,1
1,note_on,60,0,119
1,note_on,65,60,1
1,note_on,65,0,119
1,note_on,65,60,1
1,note_on,65,0,119
1,note_on,72,70,1
1,note_on,72,0,119
1,note_on,77,61,1
1,note_on,77,0,119
1,note_on,77,61,1
1,note_on,77,0,119
1,note_on,84,61,1
1,note_on,84,0,119
1,note_on,89,78,1
1,note_on,89,0,119
1,note_on,84,63,1
1,note_on,84,0,119
1,note_on,77,63,1
1,note_on,77,0,119
1,note_on,77,63,1
1,note_on,77,0,119
1,note_on,72,72,1
1,note_on,72,0,119
1,note_on,65,63,1
1,note_on,65,0,119
1,note_on,65,63,1
1,note_on,65,0,119
1,note_on,60,63,1
1,note_on,60,0,119
1,note_on,51,96,1
1,note_on,51,0,119
1,note_on,55,62,1
1,note_on,55,0,119
1,note_on,63,62,1
1,note_on,63,0,119
1,note_on,63,63,1
1,note_on,63,0,119
1,note_on,67,74,1
1,note_on,67,0,119
1,note_on,75,64,1
1,note_on,75,0,119
1,note_on,75,63,1
1,note_on,75,0,119
1,note_on,79,63,1
1,note_on,79,0,119
1,note_on,87,86,1
1,note_on,87,0,119
1,note_on,79,67,1
1,note_on,79,0,119
1,note_on,75,67,1
1,note_on,75,0,119
1,note_on,75,67,1
1,note_on,75,0,119
1,note_on,67,74,1
1,note_on,67,0,119
1,note_on,63,63,1
1,note_on,63,0,119
1,note_on,63,63,1
1,note_on,63,0,119
1,note_on,55,63,1
1,note_on,55,0,119
1,note_on,50,97,1
1,note_on,50,0,119
1,note_on,56,59,1
1,note_on,56,0,119
1,note_on,62,59,1
1,note_on,62,0,119
1,note_on,62,59,1
1,note_on,62,0,119
1,note_on,68,72,1
1,note_on,68,0,119
1,note_on,74,59,1
1,note_on,74,0,119
1,note_on,74,58,1
1,note_on,74,0,119
1,note_on,80,58,1
1,note_on,80,0,119
1,note_on,86,86,1
1,note_on,86,0,119
1,note_on,80,61,1
1,note_on,80,0,119
1,note_on,74,60,1
1,note_on,74,0,119
1,note_on,74,60,1
1,note_on,74,0,119
1,note_on,68,67,1
1,note_on,68,0,119
1,note_on,62,59,1
1,note_on,62,0,119
1,note_on,62,58,1
1,note_on,62,0,119
1,note_on,56,57,1
1,note_on,56,0,119
1,note_on,51,93,1
1,note_on,51,0,119
1,note_on,56,59,1
1,note_on,56,0,119
1,note_on,63,59,1
1,note_on,63,0,119
1,note_on,63,58,1
1,note_on,63,0,119
1,note_on,68,68,1
1,note_on,68,0,119
1,note_on,75,58,1
1,note_on,75,0,119
1,note_on,75,58,1
1,note_on,75,0,119
1,note_on,80,58,1
1,note_on,80,0,119
1,note_on,87,75,1
1,note_on,87,0,119
1,note_on,80,59,1
1,note_on,80,0,119
1,note_on,75,58,1
1,note_on,75,0,119
1,note_on,75,58,1
1,note_on,75,0,119
1,note_on,68,64,1
1,note_on,68,0,119
1,note_on,63,57,1
1,note_on,63,0,119
1,note_on,63,57,1
1,note_on,63,0,119
1,note_on,56,56,1
1,note_on,56,0,119
1,note_on,48,88,1
1,note_on,48,0,119
1,note_on,51,55,1
1,note_on,51,0,119
1,note_on,60,55,1
1,note_on,60,0,119
1,note_on,60,55,1
1,note_on,60,0,119
1,note_on,63,59,1
1,note_on,63,0,119
1,note_on,72,66,1
1,note_on,63,50,120
1,note_on,63,0,119
1,note_on,60,49,1
1,note_on,60,0,119
1,note_on,63,56,1
1,note_on,63,0,119
1,note_on,72,0,1
1,note_on,70,61,0
1,note_on,63,49,120
1,note_on,63,0,119
1,note_on,60,48,1
1,note_on,60,0,119
1,note_on,63,53,1
1,note_on,63,0,119
1,note_on,70,0,1
1,note_on,68,57,0
1,note_on,63,46,120
1,note_on,63,0,119
1,note_on,60,46,1
1,note_on,60,0,119
1,note_on,62,50,1
1,note_on,62,0,119
1,note_on,68,0,1
1,note_on,67,56,0
1,note_on,62,42,120
1,note_on,62,0,119
1,note_on,59,42,1
1,note_on,59,0,119
1,note_on,61,48,1
1,note_on,61,0,119
1,note_on,67,0,1
1,note_on,67,52,0
1,note_on,61,42,120
1,note_on,61,0,119
1,note_on,58,40,1
1,note_on,58,0,119
1,note_on,60,46,1
1,note_on,60,0,119
1,note_on,67,0,1
1,note_on,65,49,0
1,note_on,60,39,120
1,note_on,60,0,119
1,note_on,57,38,1
1,note_on,57,0,119
1,note_on,59,42,1
1,note_on,59,0,119
1,note_on,65,0,1
1,note_on,65,47,0
1,note_on,59,37,120
1,note_on,59,0,119
1,note_on,56,35,1
1,note_on,56,0,119
1,note_on,65,0,1
1,note_on,51,85,0
1,note_on,51,0,119
1,note_on,55,56,1
1,note_on,55,0,119
1,note_on,63,56,1
1,note_on,63,0,119
1,note_on,63,56,1
1,note_on,63,0,119
1,note_on,67,64,1
1,note_on,67,0,119
1,note_on,75,57,1
1,note_on,75,0,119
1,note_on,75,56,1
1,note_on,75,0,119
1,note_on,79,56,1
1,note_on,79,0,119
1,note_on,87,79,1
1,note_on,87,0,119
1,note_on,79,58,1
1,note_on,79,0,119
1,note_on,75,58,1
1,note_on,75,0,119
1,note_on,75,58,1
1,note_on,75,0,119
1,note_on,67,66,1
1,note_on,67,0,119
1,note_on,63,56,1
1,note_on,63,0,119
1,note_on,63,57,1
1,note_on,63,0,119
1,note_on,55,57,1
1,note_on,55,0,119
1,note_on,50,91,1
1,note_on,50,0,119
1,note_on,56,53,1
1,note_on,56,0,119
1,note_on,62,53,1
1,note_on,62,0,119
1,note_on,62,53,1
1,note_on,62,0,119
1,note_on,68,67,1
1,note_on,68,0,119
1,note_on,74,55,1
1,note_on,74,0,119
1,note_on,74,53,1
1,note_on,74,0,119
1,note_on,80,53,1
1,note_on,80,0,119
1,note_on,86,75,1
1,note_on,86,0,119
1,note_on,80,58,1
1,note_on,80,0,119
1,note_on,74,57,1
1,note_on,74,0,119
1,note_on,74,57,1
1,note_on,74,0,119
1,note_on,68,64,1
1,note_on,68,0,119
1,note_on,62,57,1
1,note_on,62,0,119
1,note_on,62,57,1
1,note_on,62,0,119
1,note_on,56,56,1
1,note_on,56,0,119
1,note_on,53,92,1
1,note_on,53,0,119
1,note_on,60,58,1
1,note_on,60,0,119
1,note_on,65,58,1
1,note_on,65,0,119
1,note_on,65,59,1
1,note_on,65,0,119
1,note_on,72,69,1
1,note_on,72,0,119
1,note_on,77,60,1
1,note_on,77,0,119
1,note_on,77,60,1
1,note_on,77,0,119
1,note_on,84,60,1
1,note_on,84,0,119
1,note_on,89,80,1
1,note_on,89,0,119
1,note_on,84,61,1
1,note_on,84,0,119
1,note_on,77,61,1
1,note_on,77,0,119
1,note_on,77,61,1
1,note_on,77,0,119
1,note_on,72,69,1
1,note_on,72,0,119
1,note_on,65,60,1
1,note_on,65,0,119
1,note_on,65,60,1
1,note_on,65,0,119
1,note_on,60,60,1
1,note_on,60,0,119
1,note_on,52,93,1
1,note_on,52,0,119
1,note_on,60,60,1
1,note_on,60,0,119
1,note_on,64,60,1
1,note_on,64,0,119
1,note_on,64,60,1
1,note_on,64,0,119
1,note_on,72,70,1
1,note_on,72,0,119
1,note_on,76,61,1
1,note_on,76,0,119
1,note_on,76,60,1
1,note_on,76,0,119
1,note_on,84,60,1
1,note_on,84,0,119
1,note_on,88,81,1
1,note_on,88,0,119
1,note_on,84,62,1
1,note_on,84,0,119
1,note_on,76,62,1
1,note_on,76,0,119
1,note_on,76,62,1
1,note_on,76,0,119
1,note_on,72,70,1
1,note_on,72,0,119
1,note_on,64,60,1
1,note_on,64,0,119
1,note_on,64,60,1
1,note_on,64,0,119
1,note_on,60,61,1
1,note_on,60,0,119
1,note_on,56,96,1
1,note_on,56,0,119
1,note_on,61,63,1
1,note_on,61,0,119
1,note_on,68,63,1
1,note_on,68,0,119
1,note_on,68,63,1
1,note_on,68,0,119
1,note_on,73,79,1
1,note_on,73,0,119
1,note_on,80,64,1
1,note_on,80,0,119
1,note_on,80,63,1
1,note_on,80,0,119
1,note_on,85,63,1
1,note_on,85,0,119
1,note_on,92,83,1
1,note_on,92,0,119
1,note_on,85,69,1
1,note_on,85,0,119
1,note_on,80,67,1
1,note_on,80,0,119
1,note_on,80,67,1
1,note_on,80,0,119
1,note_on,73,77,1
1,note_on,73,0,119
1,note_on,68,67,1
1,note_on,68,0,119
1,note_on,68,67,1
1,note_on,68,0,119
1,note_on,61,66,1
1,note_on,61,0,119
1,note_on,55,102,1
1,note_on,55,0,119
1,note_on,59,70,1
1,note_on,59,0,119
1,note_on,67,70,1
1,note_on,67,0,119
1,note_on,67,70,1
1,note_on,67,0,119
1,note_on,71,84,1
1,note_on,71,0,119
1,note_on,79,73,1
1,note_on,79,0,119
1,note_on,79,73,1
1,note_on,79,0,119
1,note_on,83,73,1
1,note_on,83,0,119
1,note_on,91,84,1
1,note_on,91,0,119
1,note_on,83,74,1
1,note_on,83,0,119
1,note_on,79,74,1
1,note_on,79,0,119
1,note_on,79,75,1
1,note_on,79,0,119
1,note_on,71,84,1
1,note_on,71,0,119
1,note_on,67,74,1
1,note_on,67,0,119
1,note_on,67,74,1
1,note_on,67,0,119
1,note_on,59,74,1
1,note_on,59,0,119
1,note_on,52,107,1
1,note_on,52,0,119
1,note_on,55,71,1
1,note_on,55,0,119
1,note_on,64,72,1
1,note_on,64,0,119
1,note_on,64,72,1
1,note_on,64,0,119
1,note_on,67,85,1
1,note_on,67,0,119
1,note_on,76,74,1
1,note_on,76,0,119
1,note_on,76,74,1
1,note_on,76,0,119
1,note_on,79,74,1
1,note_on,79,0,119
1,note_on,88,88,1
1,note_on,88,0,119
1,note_on,88,77,1
1,note_on,88,0,119
1,note_on,91,77,1
1,note_on,91,0,119
1,note_on,100,77,1
1,note_on,100,0,119
1,note_on,91,86,1
1,note_on,91,0,119
1,note_on,88,75,1
1,note_on,88,0,119
1,note_on,88,75,1
1,note_on,88,0,119
1,note_on,79,75,1
1,note_on,79,0,119
1,note_on,76,75,1
1,note_on,76,0,119
1,note_on,76,63,1
1,note_on,76,0,119
1,note_on,67,63,1
1,note_on,67,0,119
1,note_on,64,63,1
1,note_on,64,0,119
1,note_on,64,95,1
1,note_on,55,64,120
1,note_on,55,0,119
1,note_on,52,64,1
1,note_on,52,0,119
1,note_on,55,64,1
1,note_on,55,0,119
1,note_on,64,0,1
1,note_on,50,95,0
1,note_on,50,0,119
1,note_on,55,67,1
1,note_on,55,0,119
1,note_on,62,84,1
1,note_on,62,0,119
1,note_on,55,68,1
1,note_on,55,0,119
1,note_on,53,94,1
1,note_on,53,0,119
1,note_on,55,70,1
1,note_on,55,0,119
1,note_on,67,83,1
1,note_on,67,0,119
1,note_on,55,64,1
1,note_on,55,0,119
1,note_on,52,106,1
1,note_on,52,0,119
1,note_on,55,69,1
1,note_on,55,0,119
1,note_on,64,69,1
1,note_on,64,0,119
1,note_on,64,69,1
1,note_on,67,80,120
1,note_on,67,0,119
1,note_on,64,0,1
1,note_on,76,70,0
1,note_on,76,0,119
1,note_on,76,70,1
1,note_on,76,0,119
1,note_on,79,70,1
1,note_on,79,0,119
1,note_on,88,87,1
1,note_on,88,0,119
1,note_on,88,71,1
1,note_on,88,0,119
1,note_on,91,71,1
1,note_on,91,0,119
1,note_on,100,71,1
1,note_on,100,0,119
1,note_on,91,80,1
1,note_on,91,0,119
1,note_on,88,69,1
1,note_on,88,0,119
1,note_on,88,69,1
1,note_on,88,0,119
1,note_on,79,69,1
1,note_on,79,0,119
1,note_on,76,72,1
1,note_on,76,0,119
1,note_on,76,62,1
1,note_on,76,0,119
1,note_on,67,62,1
1,note_on,67,0,119
1,note_on,64,62,1
1,note_on,64,0,119
1,note_on,64,92,1
1,note_on,55,62,120
1,note_on,55,0,119
1,note_on,52,62,1
1,note_on,52,0,119
1,note_on,55,62,1
1,note_on,55,0,119
1,note_on,64,0,1
1,note_on,50,89,0
1,note_on,50,0,119
1,note_on,55,63,1
1,note_on,55,0,119
1,note_on,62,69,1
1,note_on,55,66,120
1,note_on,55,0,119
1,note_on,48,86,1
1,note_on,48,0,119
1,note_on,55,67,1
1,note_on,55,0,119
1,note_on,62,0,1
1,note_on,60,68,0
1,note_on,55,62,120
1,note_on,55,0,119
1,note_on,60,0,1
1,note_on,50,95,0
1,note_on,50,0,119
1,note_on,55,67,1
1,note_on,55,0,119
1,note_on,62,67,1
1,note_on,62,0,119
1,note_on,62,67,1
1,note_on,67,78,120
1,note_on,67,0,119
1,note_on,62,0,1
1,note_on,74,68,0
1,note_on,74,0,119
1,note_on,74,67,1
1,note_on,74,0,119
1,note_on,79,67,1
1,note_on,79,0,119
1,note_on,86,80,1
1,note_on,86,0,119
1,note_on,86,68,1
1,note_on,86,0,119
1,note_on,91,68,1
1,note_on,91,0,119
1,note_on,98,68,1
1,note_on,98,0,119
1,note_on,91,78,1
1,note_on,91,0,119
1,note_on,86,67,1
1,note_on,86,0,119
1,note_on,86,67,1
1,note_on,86,0,119
1,note_on,79,67,1
1,note_on,79,0,119
1,note_on,74,70,1
1,note_on,74,0,119
1,note_on,74,60,1
1,note_on,74,0,119
1,note_on,67,60,1
1,note_on,67,0,119
1,note_on,62,60,1
1,note_on,62,0,119
1,note_on,62,83,1
1,note_on,55,53,120
1,note_on,55,0,119
1,note_on,50,53,1
1,note_on,50,0,119
1,note_on,55,53,1
1,note_on,55,0,119
1,note_on,62,0,1
1,note_on,48,80,0
1,note_on,48,0,119
1,note_on,53,55,1
1,note_on,53,0,119
1,note_on,60,59,1
1,note_on,53,57,120
1,note_on,53,0,119
1,note_on,48,75,1
1,note_on,48,0,119
1,note_on,53,58,1
1,note_on,53,0,119
1,note_on,60,0,1
1,note_on,57,59,0
1,note_on,53,53,120
1,note_on,53,0,119
1,note_on,57,0,1
1,note_on,48,77,0
1,note_on,48,0,119
1,note_on,53,52,1
1,note_on,53,0,119
1,note_on,60,52,1
1,note_on,60,0,119
1,note_on,60,52,1
1,note_on,60,0,119
1,note_on,65,61,1
1,note_on,65,0,119
1,note_on,72,53,1
1,note_on,72,0,119
1,note_on,72,53,1
1,note_on,72,0,119
1,note_on,77,53,1
1,note_on,77,0,119
1,note_on,84,69,1
1,note_on,84,0,119
1,note_on,77,55,1
1,note_on,77,0,119
1,note_on,72,55,1
1,note_on,72,0,119
1,note_on,72,55,1
1,note_on,72,0,119
1,note_on,65,61,1
1,note_on,65,0,119
1,note_on,60,53,1
1,note_on,60,0,119
1,note_on,60,53,1
1,note_on,60,0,119
1,note_on,53,53,1
1,note_on,53,0,119
1,note_on,48,77,1
1,note_on,48,0,119
1,note_on,52,52,1
1,note_on,52,0,119
1,note_on,60,52,1
1,note_on,60,0,119
1,note_on,60,52,1
1,note_on,60,0,119
1,note_on,64,61,1
1,note_on,64,0,119
1,note_on,72,53,1
1,note_on,72,0,119
1,note_on,72,53,1
1,note_on,72,0,119
1,note_on,76,53,1
1,note_on,76,0,119
1,note_on,84,69,1
1,note_on,84,0,119
1,note_on,76,55,1
1,note_on,76,0,119
1,note_on,72,55,1
1,note_on,72,0,119
1,note_on,72,55,1
1,note_on,72,0,119
1,note_on,64,61,1
1,note_on,64,0,119
1,note_on,60,53,1
1,note_on,60,0,119
1,note_on,60,53,1
1,note_on,60,0,119
1,note_on,52,53,1
1,note_on,52,0,119
1,note_on,48,75,1
1,note_on,48,0,119
1,note_on,51,48,1
1,note_on,51,0,119
1,note_on,60,48,1
1,note_on,60,0,119
1,note_on,60,48,1
1,note_on,60,0,119
1,note_on,63,56,1
1,note_on,63,0,119
1,note_on,72,49,1
1,note_on,72,0,119
1,note_on,72,49,1
1,note_on,72,0,119
1,note_on,75,49,1
1,note_on,75,0,119
1,note_on,84,63,1
1,note_on,84,0,119
1,note_on,84,49,1
1,note_on,84,0,119
1,note_on,87,49,1
1,note_on,87,0,119
1,note_on,96,49,1
1,note_on,96,0,119
1,note_on,87,56,1
1,note_on,87,0,119
1,note_on,84,49,1
1,note_on,84,0,119
1,note_on,84,49,1
1,note_on,84,0,119
1,note_on,75,49,1
1,note_on,75,0,119
1,note_on,72,60,1
1,note_on,72,0,119
1,note_on,72,48,1
1,note_on,72,0,119
1,note_on,63,48,1
1,note_on,63,0,119
1,note_on,60,48,1
1,note_on,60,0,119
1,note_on,60,69,1
1,note_on,51,49,120
1,note_on,51,0,119
1,note_on,48,49,1
1,note_on,48,0,119
1,note_on,51,49,1
1,note_on,51,0,119
1,note_on,60,0,1
1,note_on,46,69,0
1,note_on,46,0,119
1,note_on,51,49,1
1,note_on,51,0,119
1,note_on,58,64,1
1,note_on,58,0,119
1,note_on,51,51,1
1,note_on,51,0,119
1,note_on,49,68,1
1,note_on,49,0,119
1,note_on,51,49,1
1,note_on,51,0,119
1,note_on,63,60,1
1,note_on,63,0,119
1,note_on,51,49,1
1,note_on,51,0,119
1,note_on,48,75,1
1,note_on,48,0,119
1,note_on,51,48,1
1,note_on,51,0,119
1,note_on,60,48,1
1,note_on,60,0,119
1,note_on,60,48,1
1,note_on,63,56,120
1,note_on,63,0,119
1,note_on,60,0,1
1,note_on,72,49,0
1,note_on,72,0,119
1,note_on,72,49,1
1,note_on,72,0,119
1,note_on,75,49,1
1,note_on,75,0,119
1,note_on,84,63,1
1,note_on,84,0,119
1,note_on,84,49,1
1,note_on,84,0,119
1,note_on,87,49,1
1,note_on,87,0,119
1,note_on,96,49,1
1,note_on,96,0,119
1,note_on,87,56,1
1,note_on,87,0,119
1,note_on,84,49,1
1,note_on,84,0,119
1,note_on,84,49,1
1,note_on,84,0,119
1,note_on,75,49,1
1,note_on,75,0,119
1,note_on,72,60,1
1,note_on,72,0,119
1,note_on,72,48,1
1,note_on,72,0,119
1,note_on,63,48,1
1,note_on,63,0,119
1,note_on,60,48,1
1,note_on,60,0,119
1,note_on,60,69,1
1,note_on,51,49,120
1,note_on,51,0,119
1,note_on,48,49,1
1,note_on,48,0,119
1,note_on,51,49,1
1,note_on,51,0,119
1,note_on,60,0,1
1,note_on,46,69,0
1,note_on,46,0,119
1,note_on,51,49,1
1,note_on,51,0,119
1,note_on,58,64,1
1,note_on,58,0,119
1,note_on,51,51,1
1,note_on,51,0,119
1,note_on,44,68,1
1,note_on,44,0,119
1,note_on,51,49,1
1,note_on,51,0,119
1,note_on,56,60,1
1,note_on,56,0,119
1,note_on,51,49,1
1,note_on,51,0,119
1,note_on,46,75,1
1,note_on,46,0,119
1,note_on,51,48,1
1,note_on,51,0,119
1,note_on,58,48,1
1,note_on,58,0,119
1,note_on,58,48,1
1,note_on,63,56,120
1,note_on,63,0,119
1,note_on,58,0,1
1,note_on,70,49,0
1,note_on,70,0,119
1,note_on,70,49,1
1,note_on,70,0,119
1,note_on,75,49,1
1,note_on,75,0,119
1,note_on,82,63,1
1,note_on,82,0,119
1,note_on,82,49,1
1,note_on,82,0,119
1,note_on,87,49,1
1,note_on,87,0,119
1,note_on,94,49,1
1,note_on,94,0,119
1,note_on,87,56,1
1,note_on,87,0,119
1,note_on,82,49,1
1,note_on,82,0,119
1,note_on,82,49,1
1,note_on,82,0,119
1,note_on,75,49,1
1,note_on,75,0,119
1,note_on,70,60,1
1,note_on,70,0,119
1,note_on,70,48,1
1,note_on,70,0,119
1,note_on,63,48,1
1,note_on,63,0,119
1,note_on,58,48,1
1,note_on,58,0,119
1,note_on,58,66,1
1,note_on,51,46,120
1,note_on,51,0,119
1,note_on,46,46,1
1,note_on,46,0,119
1,note_on,51,46,1
1,note_on,51,0,119
1,note_on,58,0,1
1,note_on,44,66,0
1,note_on,44,0,119
1,note_on,49,47,1
1,note_on,49,0,119
1,note_on,56,61,1
1,note_on,49,49,120
1,note_on,49,0,119
1,note_on,44,63,1
1,note_on,44,0,119
1,note_on,49,46,1
1,note_on,49,0,119
1,note_on,56,0,1
1,note_on,53,56,0
1,note_on,49,46,120
1,note_on,49,0,119
1,note_on,53,0,1
1,note_on,44,72,0
1,note_on,44,0,119
1,note_on,49,45,1
1,note_on,49,0,119
1,note_on,56,45,1
1,note_on,56,0,119
1,note_on,56,45,1
1,note_on,56,0,119
1,note_on,61,52,1
1,note_on,61,0,119
1,note_on,68,45,1
1,note_on,68,0,119
1,note_on,68,45,1
1,note_on,68,0,119
1,note_on,73,44,1
1,note_on,73,0,119
1,note_on,80,62,1
1,note_on,80,0,119
1,note_on,73,45,1
1,note_on,73,0,119
1,note_on,68,45,1
1,note_on,68,0,119
1,note_on,68,44,1
1,note_on,68,0,119
1,note_on,61,50,1
1,note_on,61,0,119
1,note_on,56,42,1
1,note_on,56,0,119
1,note_on,56,42,1
1,note_on,56,0,119
1,note_on,49,42,1
1,note_on,49,0,119
1,note_on,44,64,1
1,note_on,44,0,119
1,note_on,48,42,1
1,note_on,48,0,119
1,note_on,56,41,1
1,note_on,56,0,119
1,note_on,56,41,1
1,note_on,56,0,119
1,note_on,60,50,1
1,note_on,60,0,119
1,note_on,68,39,1
1,note_on,68,0,119
1,note_on,60,38,1
1,note_on,60,0,119
1,note_on,56,38,1
1,note_on,56,0,119
1,note_on,42,61,1
1,note_on,42,0,119
1,note_on,48,39,1
1,note_on,48,0,119
1,note_on,54,46,1
1,note_on,54,0,119
1,note_on,54,40,1
1,note_on,54,0,119
1,note_on,60,48,1
1,note_on,60,0,119
1,note_on,66,37,1
1,note_on,66,0,119
1,note_on,60,44,1
1,note_on,60,0,120
1,note_on,54,36,0
1,note_on,54,0,119
1,note_on,43,61,1
1,note_on,43,0,119
1,note_on,47,38,1
1,note_on,47,0,119
1,note_on,55,38,1
1,note_on,55,0,119
1,note_on,55,38,1
1,note_on,55,0,119
1,note_on,59,46,1
1,note_on,59,0,119
1,note_on,67,39,1
1,note_on,67,0,119
1,note_on,67,39,1
1,note_on,67,0,119
1,note_on,71,40,1
1,note_on,71,0,119
1,note_on,79,56,1
1,note_on,79,0,119
1,note_on,71,41,1
1,note_on,71,0,119
1,note_on,67,41,1
1,note_on,67,0,119
1,note_on,67,41,1
1,note_on,67,0,119
1,note_on,59,47,1
1,note_on,59,0,119
1,note_on,55,41,1
1,note_on,55,0,119
1,note_on,55,41,1
1,note_on,55,0,119
1,note_on,47,41,1
1,note_on,47,0,119
1,note_on,44,66,1
1,note_on,44,0,119
1,note_on,48,41,1
1,note_on,48,0,119
1,note_on,56,41,1
1,note_on,56,0,119
1,note_on,56,41,1
1,note_on,56,0,119
1,note_on,60,49,1
1,note_on,60,0,119
1,note_on,68,44,1
1,note_on,68,0,119
1,note_on,68,44,1
1,note_on,68,0,119
1,note_on,72,44,1
1,note_on,72,0,119
1,note_on,80,60,1
1,note_on,80,0,119
1,note_on,72,45,1
1,note_on,72,0,119
1,note_on,68,45,1
1,note_on,68,0,119
1,note_on,68,45,1
1,note_on,68,0,119
1,note_on,60,51,1
1,note_on,60,0,119
1,note_on,56,45,1
1,note_on,56,0,119
1,note_on,56,45,1
1,note_on,56,0,119
1,note_on,48,45,1
1,note_on,48,0,119
1,note_on,48,72,1
1,note_on,48,0,119
1,note_on,53,45,1
1,note_on,53,0,119
1,note_on,60,45,1
1,note_on,60,0,119
1,note_on,60,45,1
1,note_on,60,0,119
1,note_on,65,52,1
1,note_on,65,0,119
1,note_on,72,46,1
1,note_on,72,0,119
1,note_on,72,46,1
1,note_on,72,0,119
1,note_on,77,45,1
1,note_on,77,0,119
1,note_on,84,64,1
1,note_on,84,0,119
1,note_on,77,46,1
1,note_on,77,0,119
1,note_on,72,46,1
1,note_on,72,0,119
1,note_on,72,46,1
1,note_on,72,0,119
1,note_on,65,51,1
1,note_on,65,0,119
1,note_on,60,45,1
1,note_on,60,0,119
1,note_on,60,45,1
1,note_on,60,0,119
1,note_on,53,45,1
1,note_on,53,0,119
1,note_on,47,69,1
1,note_on,47,0,119
1,note_on,53,44,1
1,note_on,53,0,119
1,note_on,59,44,1
1,note_on,59,0,119
1,note_on,59,44,1
1,note_on,59,0,119
1,note_on,65,51,1
1,note_on,65,0,119
1,note_on,71,44,1
1,note_on,71,0,119
1,note_on,71,44,1
1,note_on,71,0,119
1,note_on,77,44,1
1,note_on,77,0,119
1,note_on,83,62,1
1,note_on,83,0,119
1,note_on,77,45,1
1,note_on,77,0,119
1,note_on,71,45,1
1,note_on,71,0,119
1,note_on,71,45,1
1,note_on,71,0,119
1,note_on,65,50,1
1,note_on,65,0,119
1,note_on,59,44,1
1,note_on,59,0,119
1,note_on,59,44,1
1,note_on,59,0,119
1,note_on,53,44,1
1,note_on,53,0,119
1,note_on,47,68,1
1,note_on,47,0,119
1,note_on,53,42,1
1,note_on,53,0,119
1,note_on,59,42,1
1,note_on,59,0,119
1,note_on,59,42,1
1,note_on,59,0,119
1,note_on,65,50,1
1,note_on,65,0,119
1,note_on,71,42,1
1,note_on,71,0,119
1,note_on,71,42,1
1,note_on,71,0,119
1,note_on,77,45,1
1,note_on,77,0,119
1,note_on,83,62,1
1,note_on,83,0,119
1,note_on,77,46,1
1,note_on,77,0,119
1,note_on,71,46,1
1,note_on,71,0,119
1,note_on,71,46,1
1,note_on,71,0,119
1,note_on,65,51,1
1,note_on,65,0,119
1,note_on,59,45,1
1,note_on,59,0,119
1,note_on,59,45,1
1,note_on,59,0,119
1,note_on,53,45,1
1,note_on,53,0,119
1,note_on,48,73,1
1,note_on,48,0,119
1,note_on,53,47,1
1,note_on,53,0,119
1,note_on,60,47,1
1,note_on,60,0,119
1,note_on,60,47,1
1,note_on,60,0,119
1,note_on,65,56,1
1,note_on,65,0,119
1,note_on,72,48,1
1,note_on,72,0,119
1,note_on,72,48,1
1,note_on,72,0,119
1,note_on,77,48,1
1,note_on,77,0,119
1,note_on,84,69,1
1,note_on,84,0,119
1,note_on,77,49,1
1,note_on,77,0,119
1,note_on,72,50,1
1,note_on,72,0,119
1,note_on,72,50,1
1,note_on,72,0,119
1,note_on,65,57,1
1,note_on,65,0,119
1,note_on,60,49,1
1,note_on,60,0,119
1,note_on,60,49,1
1,note_on,60,0,119
1,note_on,53,49,1
1,note_on,53,0,119
1,note_on,51,79,1
1,note_on,51,0,119
1,note_on,54,49,1
1,note_on,54,0,119
1,note_on,63,49,1
1,note_on,63,0,119
1,note_on,63,49,1
1,note_on,63,0,119
1,note_on,66,59,1
1,note_on,66,0,119
1,note_on,75,50,1
1,note_on,75,0,119
1,note_on,75,50,1
1,note_on,75,0,119
1,note_on,78,51,1
1,note_on,78,0,119
1,note_on,87,69,1
1,note_on,87,0,119
1,note_on,78,52,1
1,note_on,78,0,119
1,note_on,75,52,1
1,note_on,75,0,119
1,note_on,75,52,1
1,note_on,75,0,119
1,note_on,66,60,1
1,note_on,66,0,119
1,note_on,63,52,1
1,note_on,63,0,119
1,note_on,63,52,1
1,note_on,63,0,119
1,note_on,54,52,1
1,note_on,54,0,119
1,note_on,50,84,1
1,note_on,50,0,119
1,note_on,55,51,1
1,note_on,55,0,119
1,note_on,62,51,1
1,note_on,62,0,119
1,note_on,62,51,1
1,note_on,62,0,119
1,note_on,67,63,1
1,note_on,67,0,119
1,note_on,74,53,1
1,note_on,74,0,119
1,note_on,74,53,1
1,note_on,74,0,119
1,note_on,79,53,1
1,note_on,79,0,119
1,note_on,86,77,1
1,note_on,86,0,119
1,note_on,79,56,1
1,note_on,79,0,119
1,note_on,74,57,1
1,note_on,74,0,119
1,note_on,74,57,1
1,note_on,74,0,119
1,note_on,67,66,1
1,note_on,67,0,119
1,note_on,62,56,1
1,note_on,62,0,119
1,note_on,62,56,1
1,note_on,62,0,119
1,note_on,55,56,1
1,note_on,55,0,119
1,note_on,50,91,1
1,note_on,50,0,119
1,note_on,56,57,1
1,note_on,56,0,119
1,note_on,62,57,1
1,note_on,62,0,119
1,note_on,62,57,1
1,note_on,62,0,119
1,note_on,68,68,1
1,note_on,68,0,119
1,note_on,74,58,1
1,note_on,74,0,119
1,note_on,74,58,1
1,note_on,74,0,119
1,note_on,80,58,1
1,note_on,80,0,119
1,note_on,86,77,1
1,note_on,86,0,119
1,note_on,80,59,1
1,note_on,80,0,119
1,note_on,74,59,1
1,note_on,74,0,119
1,note_on,74,59,1
1,note_on,74,0,119
1,note_on,68,69,1
1,note_on,68,0,119
1,note_on,62,60,1
1,note_on,62,0,119
1,note_on,62,60,1
1,note_on,62,0,119
1,note_on,56,60,1
1,note_on,56,0,119
1,note_on,51,94,1
1,note_on,51,0,119
1,note_on,56,59,1
1,note_on,56,0,119
1,note_on,63,59,1
1,note_on,63,0,119
1,note_on,63,59,1
1,note_on,63,0,119
1,note_on,68,71,1
1,note_on,68,0,119
1,note_on,75,61,1
1,note_on,75,0,119
1,note_on,75,61,1
1,note_on,75,0,119
1,note_on,80,61,1
1,note_on,80,0,119
1,note_on,87,84,1
1,note_on,87,0,119
1,note_on,80,62,1
1,note_on,80,0,119
1,note_on,75,64,1
1,note_on,75,0,119
1,note_on,75,64,1
1,note_on,75,0,119
1,note_on,68,73,1
1,note_on,68,0,119
1,note_on,63,63,1
1,note_on,63,0,119
1,note_on,63,63,1
1,note_on,63,0,119
1,note_on,56,63,1
1,note_on,56,0,119
1,note_on,55,97,1
1,note_on,55,0,119
1,note_on,60,63,1
1,note_on,60,0,119
1,note_on,67,63,1
1,note_on,67,0,119
1,note_on,67,63,1
1,note_on,67,0,119
1,note_on,72,74,1
1,note_on,72,0,119
1,note_on,79,64,1
1,note_on,79,0,119
1,note_on,79,64,1
1,note_on,79,0,119
1,note_on,84,66,1
1,note_on,84,0,119
1,note_on,91,88,1
1,note_on,91,0,119
1,note_on,84,67,1
1,note_on,84,0,119
1,note_on,79,67,1
1,note_on,79,0,119
1,note_on,79,67,1
1,note_on,79,0,119
1,note_on,72,77,1
1,note_on,72,0,119
1,note_on,67,67,1
1,note_on,67,0,119
1,note_on,67,67,1
1,note_on,67,0,119
1,note_on,60,67,1
1,note_on,60,0,119
1,note_on,53,101,1
1,note_on,53,0,119
1,note_on,60,66,1
1,note_on,60,0,119
1,note_on,65,66,1
1,note_on,65,0,119
1,note_on,65,66,1
1,note_on,65,0,119
1,note_on,72,80,1
1,note_on,72,0,119
1,note_on,77,68,1
1,note_on,77,0,119
1,note_on,77,68,1
1,note_on,77,0,119
1,note_on,84,68,1
1,note_on,84,0,119
1,note_on,89,88,1
1,note_on,89,0,119
1,note_on,83,71,1
1,note_on,83,0,119
1,note_on,77,72,1
1,note_on,77,0,119
1,note_on,77,72,1
1,note_on,77,0,119
1,note_on,71,81,1
1,note_on,71,0,119
1,note_on,65,69,1
1,note_on,65,0,119
1,note_on,65,69,1
1,note_on,65,0,119
1,note_on,59,69,1
1,note_on,59,0,119
1,note_on,56,108,1
1,note_on,56,0,119
1,note_on,59,67,1
1,note_on,59,0,119
1,note_on,68,67,1
1,note_on,68,0,119
1,note_on,68,67,1
1,note_on,68,0,119
1,note_on,71,81,1
1,note_on,71,0,119
1,note_on,80,70,1
1,note_on,80,0,119
1,note_on,80,70,1
1,note_on,80,0,119
1,note_on,83,70,1
1,note_on,83,0,119
1,note_on,92,92,1
1,note_on,92,0,119
1,note_on,83,67,1
1,note_on,83,0,119
1,note_on,80,69,1
1,note_on,80,0,119
1,note_on,80,69,1
1,note_on,80,0,119
1,note_on,71,82,1
1,note_on,71,0,119
1,note_on,68,67,1
1,note_on,68,0,119
1,note_on,68,67,1
1,note_on,68,0,119
1,note_on,59,67,1
1,note_on,59,0,119
1,note_on,55,106,1
1,note_on,55,0,119
1,note_on,59,67,1
1,note_on,59,0,119
1,note_on,67,67,1
1,note_on,67,0,119
1,note_on,67,67,1
1,note_on,67,0,119
1,note_on,71,81,1
1,note_on,71,0,119
1,note_on,79,70,1
1,note_on,79,0,119
1,note_on,79,70,1
1,note_on,79,0,119
1,note_on,83,70,1
1,note_on,83,0,119
1,note_on,91,90,1
1,note_on,91,0,119
1,note_on,83,67,1
1,note_on,83,0,119
1,note_on,79,69,1
1,note_on,79,0,119
1,note_on,79,69,1
1,note_on,79,0,119
1,note_on,71,82,1
1,note_on,71,0,119
1,note_on,67,67,1
1,note_on,67,0,119
1,note_on,67,67,1
1,note_on,67,0,119
1,note_on,59,67,1
1,note_on,59,0,119
1,note_on,43,100,1
1,note_on,43,0,119
1,note_on,47,61,1
1,note_on,47,0,119
1,note_on,55,62,1
1,note_on,55,0,119
1,note_on,55,64,1
1,note_on,55,0,119
1,note_on,59,75,1
1,note_on,59,0,119
1,note_on,67,66,1
1,note_on,67,0,119
1,note_on,59,67,1
1,note_on,59,0,119
1,note_on,55,68,1
1,note_on,55,0,119
1,note_on,43,105,1
1,note_on,43,0,119
1,note_on,48,68,1
1,note_on,48,0,119
1,note_on,55,68,1
1,note_on,55,0,119
1,note_on,55,69,1
1,note_on,55,0,119
1,note_on,60,80,1
1,note_on,60,0,119
1,note_on,67,70,1
1,note_on,67,0,119
1,note_on,60,71,1
1,note_on,60,0,119
1,note_on,55,72,1
1,note_on,55,0,119
1,note_on,43,106,1
1,note_on,43,0,119
1,note_on,49,69,1
1,note_on,49,0,119
1,note_on,55,70,1
1,note_on,55,0,119
1,note_on,55,71,1
1,note_on,55,0,119
1,note_on,61,81,1
1,note_on,61,0,119
1,note_on,67,72,1
1,note_on,67,0,119
1,note_on,61,74,1
1,note_on,61,0,119
1,note_on,55,76,1
1,note_on,55,0,119
1,note_on,43,109,1
1,note_on,43,0,119
1,note_on,49,73,1
1,note_on,49,0,119
1,note_on,55,75,1
1,note_on,55,0,119
1,note_on,49,75,1
1,note_on,49,0,119
1,note_on,43,96,1
1,note_on,43,0,119
1,note_on,50,73,1
1,note_on,50,0,119
1,note_on,55,72,1
1,note_on,55,0,119
1,note_on,50,72,1
1,note_on,50,0,119
1,note_on,51,108,1
1,note_on,51,0,119
1,note_on,55,70,1
1,note_on,55,0,119
1,note_on,63,70,1
1,note_on,63,0,119
1,note_on,63,70,1
1,note_on,63,0,119
1,note_on,67,82,1
1,note_on,67,0,119
1,note_on,75,72,1
1,note_on,75,0,119
1,note_on,75,70,1
1,note_on,75,0,119
1,note_on,79,70,1
1,note_on,79,0,119
1,note_on,87,90,1
1,note_on,87,0,119
1,note_on,79,74,1
1,note_on,79,0,119
1,note_on,75,74,1
1,note_on,75,0,119
1,note_on,75,74,1
1,note_on,75,0,119
1,note_on,67,82,1
1,note_on,67,0,119
1,note_on,63,70,1
1,note_on,63,0,119
1,note_on,63,70,1
1,note_on,63,0,119
1,note_on,55,70,1
1,note_on,55,0,119
1,note_on,50,107,1
1,note_on,50,0,119
1,note_on,56,66,1
1,note_on,56,0,119
1,note_on,62,66,1
1,note_on,62,0,119
1,note_on,62,66,1
1,note_on,62,0,119
1,note_on,68,82,1
1,note_on,68,0,119
1,note_on,74,67,1
1,note_on,74,0,119
1,note_on,74,66,1
1,note_on,74,0,119
1,note_on,80,66,1
1,note_on,80,0,119
1,note_on,86,92,1
1,note_on,86,0,119
1,note_on,80,72,1
1,note_on,80,0,119
1,note_on,74,70,1
1,note_on,74,0,119
1,note_on,74,70,1
1,note_on,74,0,119
1,note_on,68,79,1
1,note_on,68,0,119
1,note_on,62,69,1
1,note_on,62,0,119
1,note_on,62,69,1
1,note_on,62,0,119
1,note_on,56,67,1
1,note_on,56,0,119
1,note_on,53,107,1
1,note_on,53,0,119
1,note_on,60,70,1
1,note_on,60,0,119
1,note_on,65,70,1
1,note_on,65,0,119
1,note_on,65,70,1
1,note_on,65,0,119
1,note_on,72,82,1
1,note_on,72,0,119
1,note_on,77,72,1
1,note_on,77,0,119
1,note_on,77,72,1
1,note_on,77,0,119
1,note_on,84,72,1
1,note_on,84,0,119
1,note_on,89,88,1
1,note_on,89,0,119
1,note_on,84,74,1
1,note_on,84,0,119
1,note_on,77,74,1
1,note_on,77,0,119
1,note_on,77,74,1
1,note_on,77,0,119
1,note_on,72,82,1
1,note_on,72,0,119
1,note_on,65,72,1
1,note_on,65,0,119
1,note_on,65,72,1
1,note_on,65,0,119
1,note_on,60,72,1
1,note_on,60,0,119
1,note_on,51,109,1
1,note_on,51,0,119
1,note_on,55,70,1
1,note_on,55,0,119
1,note_on,63,70,1
1,note_on,63,0,119
1,note_on,63,70,1
1,note_on,63,0,119
1,note_on,67,82,1
1,note_on,67,0,119
1,note_on,75,72,1
1,note_on,75,0,119
1,note_on,75,70,1
1,note_on,75,0,119
1,note_on,79,70,1
1,note_on,79,0,119
1,note_on,87,91,1
1,note_on,87,0,119
1,note_on,79,74,1
1,note_on,79,0,119
1,note_on,75,74,1
1,note_on,75,0,119
1,note_on,75,74,1
1,note_on,75,0,119
1,note_on,67,82,1
1,note_on,67,0,119
1,note_on,63,70,1
1,note_on,63,0,119
1,note_on,63,70,1
1,note_on,63,0,119
1,note_on,55,70,1
1,note_on,55,0,119
1,note_on,50,110,1
1,note_on,50,0,119
1,note_on,56,66,1
1,note_on,56,0,119
1,note_on,62,66,1
1,note_on,62,0,119
1,note_on,62,66,1
1,note_on,62,0,119
1,note_on,68,82,1
1,note_on,68,0,119
1,note_on,74,67,1
1,note_on,74,0,119
1,note_on,74,66,1
1,note_on,74,0,119
1,note_on,80,66,1
1,note_on,80,0,119
1,note_on,86,95,1
1,note_on,86,0,119
1,note_on,80,72,1
1,note_on,80,0,119
1,note_on,74,70,1
1,note_on,74,0,119
1,note_on,74,70,1
1,note_on,74,0,119
1,note_on,68,79,1
1,note_on,68,0,119
1,note_on,62,69,1
1,note_on,62,0,119
1,note_on,62,69,1
1,note_on,62,0,119
1,note_on,56,67,1
1,note_on,56,0,119
1,note_on,51,109,1
1,note_on,51,0,119
1,note_on,56,70,1
1,note_on,56,0,119
1,note_on,63,70,1
1,note_on,63,0,119
1,note_on,63,70,1
1,note_on,63,0,119
1,note_on,68,82,1
1,note_on,68,0,119
1,note_on,75,72,1
1,note_on,75,0,119
1,note_on,75,72,1
1,note_on,75,0,119
1,note_on,80,72,1
1,note_on,80,0,119
1,note_on,87,94,1
1,note_on,87,0,119
1,note_on,80,74,1
1,note_on,80,0,119
1,note_on,75,74,1
1,note_on,75,0,119
1,note_on,75,74,1
1,note_on,75,0,119
1,note_on,68,82,1
1,note_on,68,0,119
1,note_on,63,72,1
1,note_on,63,0,119
1,note_on,63,72,1
1,note_on,63,0,119
1,note_on,56,72,1
1,note_on,56,0,119
1,note_on,48,106,1
1,note_on,48,0,119
1,note_on,51,70,1
1,note_on,51,0,119
1,note_on,60,70,1
1,note_on,60,0,119
1,note_on,60,70,1
1,note_on,60,0,119
1,note_on,63,78,1
1,note_on,63,0,119
1,note_on,72,85,1
1,note_on,63,66,120
1,note_on,63,0,119
1,note_on,60,64,1
1,note_on,60,0,119
1,note_on,63,74,1
1,note_on,63,0,119
1,note_on,72,0,1
1,note_on,70,81,0
1,note_on,63,64,120
1,note_on,63,0,119
1,note_on,60,64,1
1,note_on,60,0,119
1,note_on,63,73,1
1,note_on,63,0,119
1,note_on,70,0,1
1,note_on,68,77,0
1,note_on,63,60,120
1,note_on,63,0,119
1,note_on,60,60,1
1,note_on,60,0,119
1,note_on,62,69,1
1,note_on,62,0,119
1,note_on,68,0,1
1,note_on,67,75,0
1,note_on,62,58,120
1,note_on,62,0,119
1,note_on,59,58,1
1,note_on,59,0,119
1,note_on,61,66,1
1,note_on,61,0,119
1,note_on,67,0,1
1,note_on,67,73,0
1,note_on,61,58,120
1,note_on,61,0,119
1,note_on,58,56,1
1,note_on,58,0,119
1,note_on,60,63,1
1,note_on,60,0,119
1,note_on,67,0,1
1,note_on,65,70,0
1,note_on,60,55,120
1,note_on,60,0,119
1,note_on,57,53,1
1,note_on,57,0,119
1,note_on,59,59,1
1,note_on,59,0,119
1,note_on,65,0,1
1,note_on,65,66,0
1,note_on,59,52,120
1,note_on,59,0,119
1,note_on,56,50,1
1,note_on,56,0,119
1,note_on,65,0,1
1,note_on,51,84,0
1,note_on,51,0,119
1,note_on,55,52,1
1,note_on,55,0,119
1,note_on,63,52,1
1,note_on,63,0,119
1,note_on,63,53,1
1,note_on,63,0,119
1,note_on,67,63,1
1,note_on,67,0,119
1,note_on,75,56,1
1,note_on,75,0,119
1,note_on,75,55,1
1,note_on,75,0,119
1,note_on,79,55,1
1,note_on,79,0,119
1,note_on,87,79,1
1,note_on,87,0,119
1,note_on,79,58,1
1,note_on,79,0,119
1,note_on,75,59,1
1,note_on,75,0,119
1,note_on,75,59,1
1,note_on,75,0,119
1,note_on,67,67,1
1,note_on,67,0,119
1,note_on,63,56,1
1,note_on,63,0,119
1,note_on,63,56,1
1,note_on,63,0,119
1,note_on,55,57,1
1,note_on,55,0,119
1,note_on,50,92,1
1,note_on,50,0,119
1,note_on,56,55,1
1,note_on,56,0,119
1,note_on,62,55,1
1,note_on,62,0,119
1,note_on,62,55,1
1,note_on,62,0,119
1,note_on,68,69,1
1,note_on,68,0,119
1,note_on,74,56,1
1,note_on,74,0,119
1,note_on,74,56,1
1,note_on,74,0,119
1,note_on,80,56,1
1,note_on,80,0,119
1,note_on,86,79,1
1,note_on,86,0,119
1,note_on,80,61,1
1,note_on,80,0,119
1,note_on,74,59,1
1,note_on,74,0,119
1,note_on,74,60,1
1,note_on,74,0,119
1,note_on,68,68,1
1,note_on,68,0,119
1,note_on,62,60,1
1,note_on,62,0,119
1,note_on,62,60,1
1,note_on,62,0,119
1,note_on,56,59,1
1,note_on,56,0,119
1,note_on,52,100,1
1,note_on,52,0,119
1,note_on,58,58,1
1,note_on,58,0,119
1,note_on,64,59,1
1,note_on,64,0,119
1,note_on,64,59,1
1,note_on,64,0,119
1,note_on,70,74,1
1,note_on,70,0,119
1,note_on,76,61,1
1,note_on,76,0,119
1,note_on,76,60,1
1,note_on,76,0,119
1,note_on,82,60,1
1,note_on,82,0,119
1,note_on,88,84,1
1,note_on,88,0,119
1,note_on,82,67,1
1,note_on,82,0,119
1,note_on,76,64,1
1,note_on,76,0,119
1,note_on,76,64,1
1,note_on,76,0,119
1,note_on,70,73,1
1,note_on,70,0,119
1,note_on,64,63,1
1,note_on,64,0,119
1,note_on,64,64,1
1,note_on,64,0,119
1,note_on,59,63,1
1,note_on,53,102,120
1,note_on,53,0,119
1,note_on,59,0,1
1,note_on,56,60,0
1,note_on,56,0,119
1,note_on,65,60,1
1,note_on,65,0,119
1,note_on,65,60,1
1,note_on,65,0,119
1,note_on,68,74,1
1,note_on,68,0,119
1,note_on,77,61,1
1,note_on,77,0,119
1,note_on,77,60,1
1,note_on,77,0,119
1,note_on,80,60,1
1,note_on,80,0,119
1,note_on,89,83,1
1,note_on,89,0,119
1,note_on,80,64,1
1,note_on,80,0,119
1,note_on,77,62,1
1,note_on,77,0,119
1,note_on,77,62,1
1,note_on,77,0,119
1,note_on,68,71,1
1,note_on,68,0,119
1,note_on,65,62,1
1,note_on,65,0,119
1,note_on,65,62,1
1,note_on,65,0,119
1,note_on,56,61,1
1,note_on,56,0,119
1,note_on,53,97,1
1,note_on,53,0,119
1,note_on,56,58,1
1,note_on,56,0,119
1,note_on,65,58,1
1,note_on,65,0,119
1,note_on,65,58,1
1,note_on,65,0,119
1,note_on,68,71,1
1,note_on,68,0,119
1,note_on,77,59,1
1,note_on,77,0,119
1,note_on,77,58,1
1,note_on,77,0,119
1,note_on,80,58,1
1,note_on,80,0,119
1,note_on,89,81,1
1,note_on,89,0,119
1,note_on,80,63,1
1,note_on,80,0,119
1,note_on,77,62,1
1,note_on,77,0,119
1,note_on,77,62,1
1,note_on,77,0,119
1,note_on,68,69,1
1,note_on,68,0,119
1,note_on,65,60,1
1,note_on,65,0,119
1,note_on,65,60,1
1,note_on,65,0,119
1,note_on,56,59,1
1,note_on,56,0,119
1,note_on,52,101,1
1,note_on,52,0,119
1,note_on,58,59,1
1,note_on,58,0,119
1,note_on,64,59,1
1,note_on,64,0,119
1,note_on,64,59,1
1,note_on,64,0,119
1,note_on,70,74,1
1,note_on,70,0,119
1,note_on,76,60,1
1,note_on,76,0,119
1,note_on,76,59,1
1,note_on,76,0,119
1,note_on,82,59,1
1,note_on,82,0,119
1,note_on,88,85,1
1,note_on,88,0,119
1,note_on,82,64,1
1,note_on,82,0,119
1,note_on,76,63,1
1,note_on,76,0,119
1,note_on,76,63,1
1,note_on,76,0,119
1,note_on,70,71,1
1,note_on,70,0,119
1,note_on,64,61,1
1,note_on,64,0,119
1,note_on,64,61,1
1,note_on,64,0,119
1,note_on,58,60,1
1,note_on,58,0,119
1,note_on,53,103,1
1,note_on,53,0,119
1,note_on,59,61,1
1,note_on,59,0,119
1,note_on,65,61,1
1,note_on,65,0,119
1,note_on,65,61,1
1,note_on,65,0,119
1,note_on,71,75,1
1,note_on,71,0,119
1,note_on,77,62,1
1,note_on,77,0,119
1,note_on,77,61,1
1,note_on,77,0,119
1,note_on,83,61,1
1,note_on,83,0,119
1,note_on,89,86,1
1,note_on,89,0,119
1,note_on,83,67,1
1,note_on,83,0,119
1,note_on,77,66,1
1,note_on,77,0,119
1,note_on,77,66,1
1,note_on,77,0,119
1,note_on,71,73,1
1,note_on,71,0,119
1,note_on,65,64,1
1,note_on,65,0,119
1,note_on,65,64,1
1,note_on,65,0,119
1,note_on,59,62,1
1,note_on,59,0,119
1,note_on,55,105,1
1,note_on,55,0,119
1,note_on,59,61,1
1,note_on,59,0,119
1,note_on,67,62,1
1,note_on,67,0,119
1,note_on,67,63,1
1,note_on,67,0,119
1,note_on,71,79,1
1,note_on,71,0,119
1,note_on,79,62,1
1,note_on,79,0,119
1,note_on,71,64,1
1,note_on,71,0,119
1,note_on,67,66,1
1,note_on,67,0,119
1,note_on,56,106,1
1,note_on,56,0,119
1,note_on,59,70,1
1,note_on,59,0,119
1,note_on,68,68,1
1,note_on,68,0,119
1,note_on,68,68,1
1,note_on,68,0,119
1,note_on,71,75,1
1,note_on,71,0,119
1,note_on,80,67,1
1,note_on,80,0,119
1,note_on,71,67,1
1,note_on,71,0,119
1,note_on,68,64,1
1,note_on,68,0,119
1,note_on,55,108,1
1,note_on,55,0,119
1,note_on,60,64,1
1,note_on,60,0,119
1,note_on,67,64,1
1,note_on,67,0,119
1,note_on,67,64,1
1,note_on,67,0,119
1,note_on,72,81,1
1,note_on,72,0,119
1,note_on,79,67,1
1,note_on,79,0,119
1,note_on,79,64,1
1,note_on,79,0,119
1,note_on,84,64,1
1,note_on,84,0,119
1,note_on,91,93,1
1,note_on,91,0,119
1,note_on,84,71,1
1,note_on,84,0,119
1,note_on,79,70,1
1,note_on,79,0,119
1,note_on,79,70,1
1,note_on,79,0,119
1,note_on,72,78,1
1,note_on,72,0,119
1,note_on,67,69,1
1,note_on,67,0,119
1,note_on,67,69,1
1,note_on,67,0,119
1,note_on,60,68,1
1,note_on,60,0,118
1,note_on,60,107,2
1,note_on,60,0,119
1,note_on,67,67,1
1,note_on,67,0,119
1,note_on,72,67,1
1,note_on,72,0,119
1,note_on,72,67,1
1,note_on,72,0,119
1,note_on,79,83,1
1,note_on,79,0,119
1,note_on,84,69,1
1,note_on,84,0,119
1,note_on,84,67,1
1,note_on,84,0,119
1,note_on,91,67,1
1,note_on,91,0,119
1,note_on,96,95,1
1,note_on,96,0,119
1,note_on,91,73,1
1,note_on,91,0,119
1,note_on,84,72,1
1,note_on,84,0,119
1,note_on,84,72,1
1,note_on,84,0,119
1,note_on,79,80,1
1,note_on,79,0,119
1,note_on,72,71,1
1,note_on,72,0,119
1,note_on,72,71,1
1,note_on,72,0,119
1,note_on,67,69,1
1,note_on,67,0,119
1,note_on,58,105,1
1,note_on,58,0,119
1,note_on,60,64,1
1,note_on,60,0,119
1,note_on,70,64,1
1,note_on,70,0,119
1,note_on,70,64,1
1,note_on,70,0,119
1,note_on,72,80,1
1,note_on,72,0,119
1,note_on,82,64,1
1,note_on,82,0,119
1,note_on,72,64,1
1,note_on,72,0,119
1,note_on,70,64,1
1,note_on,70,0,119
1,note_on,56,103,1
1,note_on,56,0,119
1,note_on,60,69,1
1,note_on,60,0,119
1,note_on,68,67,1
1,note_on,68,0,119
1,note_on,68,67,1
1,note_on,68,0,119
1,note_on,72,77,1
1,note_on,72,0,119
1,note_on,80,66,1
1,note_on,80,0,119
1,note_on,72,66,1
1,note_on,72,0,119
1,note_on,68,64,1
1,note_on,68,0,119
1,note_on,53,103,1
1,note_on,53,0,119
1,note_on,56,64,1
1,note_on,56,0,119
1,note_on,65,64,1
1,note_on,65,0,119
1,note_on,65,64,1
1,note_on,65,0,119
1,note_on,68,81,1
1,note_on,68,0,119
1,note_on,77,66,1
1,note_on,77,0,119
1,note_on,68,64,1
1,note_on,68,0,119
1,note_on,65,64,1
1,note_on,65,0,119
1,note_on,50,103,1
1,note_on,50,0,119
1,note_on,56,70,1
1,note_on,56,0,119
1,note_on,62,69,1
1,note_on,62,0,119
1,note_on,62,69,1
1,note_on,62,0,119
1,note_on,68,77,1
1,note_on,68,0,119
1,note_on,74,67,1
1,note_on,74,0,119
1,note_on,68,67,1
1,note_on,68,0,119
1,note_on,62,66,1
1,note_on,62,0,119
1,note_on,55,110,1
1,note_on,55,0,119
1,note_on,60,70,1
1,note_on,60,0,119
1,note_on,67,70,1
1,note_on,67,0,119
1,note_on,67,70,1
1,note_on,67,0,119
1,note_on,72,85,1
1,note_on,72,0,119
1,note_on,79,71,1
1,note_on,79,0,119
1,note_on,79,70,1
1,note_on,79,0,119
1,note_on,84,70,1
1,note_on,84,0,119
1,note_on,91,97,1
1,note_on,91,0,119
1,note_on,84,75,1
1,note_on,84,0,119
1,note_on,79,73,1
1,note_on,79,0,119
1,note_on,79,73,1
1,note_on,79,0,119
1,note_on,72,82,1
1,note_on,72,0,119
1,note_on,67,72,1
1,note_on,67,0,119
1,note_on,67,72,1
1,note_on,67,0,119
1,note_on,60,71,1
1,note_on,60,0,119
1,note_on,56,108,1
1,note_on,56,0,119
1,note_on,60,70,1
1,note_on,60,0,119
1,note_on,68,70,1
1,note_on,68,0,119
1,note_on,68,70,1
1,note_on,68,0,119
1,note_on,72,85,1
1,note_on,72,0,119
1,note_on,80,71,1
1,note_on,80,0,119
1,note_on,80,70,1
1,note_on,80,0,119
1,note_on,84,70,1
1,note_on,84,0,119
1,note_on,92,97,1
1,note_on,92,0,119
1,note_on,84,75,1
1,note_on,84,0,119
1,note_on,80,73,1
1,note_on,80,0,119
1,note_on,80,73,1
1,note_on,80,0,119
1,note_on,72,82,1
1,note_on,72,0,119
1,note_on,68,72,1
1,note_on,68,0,119
1,note_on,68,72,1
1,note_on,68,0,119
1,note_on,60,71,1
1,note_on,60,0,119
1,note_on,56,110,1
1,note_on,56,0,119
1,note_on,59,70,1
1,note_on,59,0,119
1,note_on,68,70,1
1,note_on,68,0,119
1,note_on,68,70,1
1,note_on,68,0,119
1,note_on,71,85,1
1,note_on,71,0,119
1,note_on,80,71,1
1,note_on,80,0,119
1,note_on,80,70,1
1,note_on,80,0,119
1,note_on,83,70,1
1,note_on,83,0,119
1,note_on,92,97,1
1,note_on,92,0,119
1,note_on,83,75,1
1,note_on,83,0,119
1,note_on,80,73,1
1,note_on,80,0,119
1,note_on,80,73,1
1,note_on,80,0,119
1,note_on,71,82,1
1,note_on,71,0,119
1,note_on,68,72,1
1,note_on,68,0,119
1,note_on,68,72,1
1,note_on,68,0,119
1,note_on,59,71,1
1,note_on,59,0,119
1,note_on,55,108,1
1,note_on,55,0,119
1,note_on,59,70,1
1,note_on,59,0,119
1,note_on,67,70,1
1,note_on,67,0,119
1,note_on,67,70,1
1,note_on,67,0,119
1,note_on,71,85,1
1,note_on,71,0,119
1,note_on,79,71,1
1,note_on,79,0,119
1,note_on,79,70,1
1,note_on,79,0,119
1,note_on,83,70,1
1,note_on,83,0,119
1,note_on,91,97,1
1,note_on,91,0,119
1,note_on,83,75,1
1,note_on,83,0,119
1,note_on,79,73,1
1,note_on,79,0,119
1,note_on,79,73,1
1,note_on,79,0,119
1,note_on,71,82,1
1,note_on,71,0,119
1,note_on,67,72,1
1,note_on,67,0,119
1,note_on,67,72,1
1,note_on,67,0,119
1,note_on,59,71,1
1,note_on,59,0,119
1,note_on,52,108,1
1,note_on,52,0,119
1,note_on,55,70,1
1,note_on,55,0,119
1,note_on,64,70,1
1,note_on,64,0,119
1,note_on,64,70,1
1,note_on,64,0,119
1,note_on,67,85,1
1,note_on,67,0,119
1,note_on,76,71,1
1,note_on,76,0,119
1,note_on,76,70,1
1,note_on,76,0,119
1,note_on,79,70,1
1,note_on,79,0,119
1,note_on,88,93,1
1,note_on,88,0,119
1,note_on,88,75,1
1,note_on,88,0,119
1,note_on,91,73,1
1,note_on,91,0,119
1,note_on,100,73,1
1,note_on,100,0,119
1,note_on,91,82,1
1,note_on,91,0,119
1,note_on,88,72,1
1,note_on,88,0,119
1,note_on,88,72,1
1,note_on,88,0,119
1,note_on,79,71,1
1,note_on,79,0,119
1,note_on,76,81,1
1,note_on,76,0,119
1,note_on,76,69,1
1,note_on,76,0,119
1,note_on,67,69,1
1,note_on,67,0,119
1,note_on,64,69,1
1,note_on,64,0,119
1,note_on,64,101,1
1,note_on,55,70,120
1,note_on,55,0,119
1,note_on,52,70,1
1,note_on,52,0,119
1,note_on,55,70,1
1,note_on,55,0,119
1,note_on,64,0,1
1,note_on,50,106,0
1,note_on,50,0,119
1,note_on,55,63,1
1,note_on,55,0,119
1,note_on,62,82,1
1,note_on,62,0,119
1,note_on,55,66,1
1,note_on,55,0,119
1,note_on,53,102,1
1,note_on,53,0,119
1,note_on,55,62,1
1,note_on,55,0,119
1,note_on,67,75,1
1,note_on,55,62,120
1,note_on,55,0,119
1,note_on,67,0,1
1,note_on,52,108,0
1,note_on,52,0,119
1,note_on,55,70,1
1,note_on,55,0,119
1,note_on,64,70,1
1,note_on,64,0,119
1,note_on,64,70,1
1,note_on,64,0,119
1,note_on,67,85,1
1,note_on,67,0,119
1,note_on,76,71,1
1,note_on,76,0,119
1,note_on,76,70,1
1,note_on,76,0,119
1,note_on,79,70,1
1,note_on,79,0,119
1,note_on,88,83,1
1,note_on,88,0,119
1,note_on,88,75,1
1,note_on,88,0,119
1,note_on,91,73,1
1,note_on,91,0,119
1,note_on,100,73,1
1,note_on,100,0,119
1,note_on,91,82,1
1,note_on,91,0,119
1,note_on,88,72,1
1,note_on,88,0,119
1,note_on,88,72,1
1,note_on,88,0,119
1,note_on,79,71,1
1,note_on,79,0,119
1,note_on,76,81,1
1,note_on,76,0,119
1,note_on,76,69,1
1,note_on,76,0,119
1,note_on,67,69,1
1,note_on,67,0,119
1,note_on,64,69,1
1,note_on,64,0,119
1,note_on,64,105,1
1,note_on,55,70,120
1,note_on,55,0,119
1,note_on,52,70,1
1,note_on,52,0,119
1,note_on,55,70,1
1,note_on,55,0,119
1,note_on,64,0,1
1,note_on,50,104,0
1,note_on,50,0,119
1,note_on,55,63,1
1,note_on,55,0,119
1,note_on,62,82,1
1,note_on,55,66,120
1,note_on,55,0,119
1,note_on,48,103,1
1,note_on,48,0,119
1,note_on,55,62,1
1,note_on,55,0,119
1,note_on,62,0,1
1,note_on,60,75,0
1,note_on,55,62,120
1,note_on,55,0,119
1,note_on,60,0,1
1,note_on,50,109,0
1,note_on,50,0,119
1,note_on,55,70,1
1,note_on,55,0,119
1,note_on,62,70,1
1,note_on,62,0,119
1,note_on,62,70,1
1,note_on,67,85,120
1,note_on,67,0,119
1,note_on,62,0,1
1,note_on,74,71,0
1,note_on,74,0,119
1,note_on,74,70,1
1,note_on,74,0,119
1,note_on,79,70,1
1,note_on,79,0,119
1,note_on,86,87,1
1,note_on,86,0,119
1,note_on,86,75,1
1,note_on,86,0,119
1,note_on,91,73,1
1,note_on,91,0,119
1,note_on,98,73,1
1,note_on,98,0,119
1,note_on,91,82,1
1,note_on,91,0,119
1,note_on,86,72,1
1,note_on,86,0,119
1,note_on,86,72,1
1,note_on,86,0,119
1,note_on,79,71,1
1,note_on,79,0,119
1,note_on,74,81,1
1,note_on,74,0,119
1,note_on,74,69,1
1,note_on,74,0,119
1,note_on,67,69,1
1,note_on,67,0,119
1,note_on,62,69,1
1,note_on,62,0,119
1,note_on,62,101,1
1,note_on,55,70,120
1,note_on,55,0,119
1,note_on,50,70,1
1,note_on,50,0,119
1,note_on,55,70,1
1,note_on,55,0,119
1,note_on,62,0,1
1,note_on,48,100,0
1,note_on,48,0,119
1,note_on,53,63,1
1,note_on,53,0,119
1,note_on,60,82,1
1,note_on,53,66,120
1,note_on,53,0,119
1,note_on,48,99,1
1,note_on,48,0,119
1,note_on,53,62,1
1,note_on,53,0,119
1,note_on,60,0,1
1,note_on,57,75,0
1,note_on,53,62,120
1,note_on,53,0,119
1,note_on,57,0,1
1,note_on,48,100,0
1,note_on,48,0,119
1,note_on,53,70,1
1,note_on,53,0,119
1,note_on,60,70,1
1,note_on,60,0,119
1,note_on,60,70,1
1,note_on,60,0,119
1,note_on,65,85,1
1,note_on,65,0,119
1,note_on,72,71,1
1,note_on,72,0,119
1,note_on,72,70,1
1,note_on,72,0,119
1,note_on,77,70,1
1,note_on,77,0,119
1,note_on,84,91,1
1,note_on,84,0,119
1,note_on,84,73,1
1,note_on,84,0,119
1,note_on,89,73,1
1,note_on,89,0,119
1,note_on,96,73,1
1,note_on,96,0,119
1,note_on,89,82,1
1,note_on,89,0,119
1,note_on,84,72,1
1,note_on,84,0,119
1,note_on,84,72,1
1,note_on,84,0,119
1,note_on,77,71,1
1,note_on,77,0,119
1,note_on,72,81,1
1,note_on,72,0,119
1,note_on,72,69,1
1,note_on,72,0,119
1,note_on,65,69,1
1,note_on,65,0,119
1,note_on,60,69,1
1,note_on,60,0,119
1,note_on,60,104,1
1,note_on,53,73,120
1,note_on,53,0,119
1,note_on,48,73,1
1,note_on,48,0,119
1,note_on,53,73,1
1,note_on,53,0,119
1,note_on,60,0,1
1,note_on,48,103,0
1,note_on,48,0,119
1,note_on,53,68,1
1,note_on,53,0,119
1,note_on,60,82,1
1,note_on,53,66,120
1,note_on,53,0,119
1,note_on,48,100,1
1,note_on,48,0,119
1,note_on,53,62,1
1,note_on,53,0,119
1,note_on,60,0,1
1,note_on,62,75,0
1,note_on,53,62,120
1,note_on,53,0,119
1,note_on,62,0,1
1,note_on,48,107,0
1,note_on,48,0,119
1,note_on,53,73,1
1,note_on,53,0,119
1,note_on,60,73,1
1,note_on,60,0,119
1,note_on,60,73,1
1,note_on,60,0,119
1,note_on,65,85,1
1,note_on,65,0,119
1,note_on,72,71,1
1,note_on,72,0,119
1,note_on,72,70,1
1,note_on,72,0,119
1,note_on,77,70,1
1,note_on,77,0,119
1,note_on,84,89,1
1,note_on,84,0,119
1,note_on,84,75,1
1,note_on,84,0,119
1,note_on,89,73,1
1,note_on,89,0,119
1,note_on,96,73,1
1,note_on,96,0,119
1,note_on,89,82,1
1,note_on,89,0,119
1,note_on,84,72,1
1,note_on,84,0,119
1,note_on,84,72,1
1,note_on,84,0,119
1,note_on,77,71,1
1,note_on,77,0,119
1,note_on,72,81,1
1,note_on,72,0,119
1,note_on,72,69,1
1,note_on,72,0,119
1,note_on,65,69,1
1,note_on,65,0,119
1,note_on,60,69,1
1,note_on,60,0,119
1,note_on,60,106,1
1,note_on,53,70,120
1,note_on,53,0,119
1,note_on,48,70,1
1,note_on,48,0,119
1,note_on,53,70,1
1,note_on,53,0,119
1,note_on,60,0,1
1,note_on,48,105,0
1,note_on,48,0,119
1,note_on,53,63,1
1,note_on,53,0,119
1,note_on,60,82,1
1,note_on,53,66,120
1,note_on,53,0,119
1,note_on,48,104,1
1,note_on,48,0,119
1,note_on,53,62,1
1,note_on,53,0,119
1,note_on,60,0,1
1,note_on,62,75,0
1,note_on,53,62,120
1,note_on,53,0,119
1,note_on,62,0,1
1,note_on,52,83,0
1,note_on,52,0,119
1,note_on,55,69,1
1,note_on,55,0,119
1,note_on,64,69,1
1,note_on,64,0,119
1,note_on,55,70,1
1,note_on,55,0,119
1,note_on,52,84,1
1,note_on,52,0,119
1,note_on,55,72,1
1,note_on,55,0,119
1,note_on,64,73,1
1,note_on,64,0,119
1,note_on,55,73,1
1,note_on,55,0,119
1,note_on,52,88,1
1,note_on,52,0,119
1,note_on,55,72,1
1,note_on,55,0,119
1,note_on,64,73,1
1,note_on,64,0,119
1,note_on,55,73,1
1,note_on,55,0,119
1,note_on,52,86,1
1,note_on,52,0,119
1,note_on,55,72,1
1,note_on,55,0,119
1,note_on,64,73,1
1,note_on,64,0,119
1,note_on,55,73,1
1,note_on,55,0,119
1,note_on,52,95,1
1,note_on,52,0,119
1,note_on,55,79,1
1,note_on,55,0,119
1,note_on,64,79,1
1,note_on,64,0,119
1,note_on,55,79,1
1,note_on,55,0,119
1,note_on,52,94,1
1,note_on,52,0,119
1,note_on,55,80,1
1,note_on,55,0,119
1,note_on,64,80,1
1,note_on,64,0,119
1,note_on,55,80,1
1,note_on,55,0,119
1,note_on,52,94,1
1,note_on,52,0,119
1,note_on,55,77,1
1,note_on,55,0,119
1,note_on,64,77,1
1,note_on,64,0,119
1,note_on,55,77,1
1,note_on,55,0,119
1,note_on,52,90,1
1,note_on,52,0,119
1,note_on,55,74,1
1,note_on,55,0,119
1,note_on,64,74,1
1,note_on,64,0,119
1,note_on,55,74,1
1,note_on,55,0,119
1,note_on,52,111,1
1,note_on,52,0,480
1,note_on,72,105,480
1,note_on,64,94,0
1,note_on,67,94,0
1,note_on,76,111,0
1,note_on,76,0,960
1,note_on,72,0,0
1,note_on,64,0,0
1,note_on,67,0,0
2,note_on,36,61,0
2,note_on,36,0,119
2,note_on,43,41,1
2,note_on,43,0,119
2,note_on,48,41,1
2,note_on,48,0,119
2,note_on,48,42,1
2,note_on,48,0,119
2,note_on,55,53,1
2,note_on,55,0,119
2,note_on,60,44,1
2,note_on,60,0,119
2,note_on,60,42,1
2,note_on,60,0,119
2,note_on,67,42,1
2,note_on,67,0,119
2,note_on,72,51,1
2,note_on,72,0,119
2,note_on,67,42,1
2,note_on,67,0,119
2,note_on,60,42,1
2,note_on,60,0,119
2,note_on,60,42,1
2,note_on,60,0,119
2,note_on,55,50,1
2,note_on,55,0,119
2,note_on,48,42,1
2,note_on,48,0,119
2,note_on,48,42,1
2,note_on,48,0,119
2,note_on,43,42,1
2,note_on,43,0,119
2,note_on,36,59,1
2,note_on,36,0,34
2,note_on,41,46,1
2,note_on,41,0,119
2,note_on,48,40,1
2,note_on,48,0,119
2,note_on,48,40,1
2,note_on,48,0,119
2,note_on,53,57,1
2,note_on,53,0,119
2,note_on,60,40,1
2,note_on,60,0,119
2,note_on,60,40,1
2,note_on,60,0,119
2,note_on,65,41,1
2,note_on,65,0,119
2,note_on,72,56,1
2,note_on,72,0,119
2,note_on,65,46,1
2,note_on,65,0,119
2,note_on,60,46,1
2,note_on,60,0,119
2,note_on,60,46,1
2,note_on,60,0,119
2,note_on,53,53,1
2,note_on,53,0,119
2,note_on,48,42,1
2,note_on,48,0,119
2,note_on,48,42,1
2,note_on,48,0,119
2,note_on,41,42,1
2,note_on,41,0,119
2,note_on,36,64,1
2,note_on,36,0,20
2,note_on,44,48,1
2,note_on,44,0,119
2,note_on,48,48,1
2,note_on,48,0,119
2,note_on,48,48,1
2,note_on,48,0,119
2,note_on,56,60,1
2,note_on,56,0,119
2,note_on,60,48,1
2,note_on,60,0,119
2,note_on,60,48,1
2,note_on,60,0,119
2,note_on,68,48,1
2,note_on,68,0,119
2,note_on,72,59,1
2,note_on,72,0,119
2,note_on,68,48,1
2,note_on,68,0,119
2,note_on,60,49,1
2,note_on,60,0,119
2,note_on,60,49,1
2,note_on,60,0,119
2,note_on,56,56,1
2,note_on,56,0,119
2,note_on,48,44,1
2,note_on,48,0,119
2,note_on,48,44,1
2,note_on,48,0,119
2,note_on,44,44,1
2,note_on,44,0,119
2,note_on,36,73,1
2,note_on,36,0,41
2,note_on,43,50,1
2,note_on,43,0,119
2,note_on,48,50,1
2,note_on,48,0,119
2,note_on,48,50,1
2,note_on,48,0,119
2,note_on,55,63,1
2,note_on,55,0,119
2,note_on,60,51,1
2,note_on,60,0,119
2,note_on,60,50,1
2,note_on,60,0,119
2,note_on,67,50,1
2,note_on,67,0,119
2,note_on,72,62,1
2,note_on,72,0,119
2,note_on,67,51,1
2,note_on,67,0,119
2,note_on,60,51,1
2,note_on,60,0,119
2,note_on,60,50,1
2,note_on,60,0,119
2,note_on,55,58,1
2,note_on,55,0,119
2,note_on,48,49,1
2,note_on,48,0,119
2,note_on,48,49,1
2,note_on,48,0,119
2,note_on,43,49,1
2,note_on,43,0,119
2,note_on,36,66,1
2,note_on,36,0,63
2,note_on,41,51,1
2,note_on,41,0,119
2,note_on,48,45,1
2,note_on,48,0,119
2,note_on,48,45,1
2,note_on,48,0,119
2,note_on,53,61,1
2,note_on,53,0,119
2,note_on,60,44,1
2,note_on,60,0,119
2,note_on,60,44,1
2,note_on,60,0,119
2,note_on,65,44,1
2,note_on,65,0,119
2,note_on,72,60,1
2,note_on,72,0,119
2,note_on,65,48,1
2,note_on,65,0,119
2,note_on,60,48,1
2,note_on,60,0,119
2,note_on,60,48,1
2,note_on,60,0,119
2,note_on,53,53,1
2,note_on,53,0,119
2,note_on,48,42,1
2,note_on,48,0,119
2,note_on,48,42,1
2,note_on,48,0,119
2,note_on,41,42,1
2,note_on,41,0,119
2,note_on,36,64,1
2,note_on,36,0,62
2,note_on,41,48,1
2,note_on,41,0,119
2,note_on,47,48,1
2,note_on,47,0,119
2,note_on,48,47,1
2,note_on,48,0,119
2,note_on,56,58,1
2,note_on,56,0,119
2,note_on,59,46,1
2,note_on,59,0,119
2,note_on,60,46,1
2,note_on,60,0,119
2,note_on,65,46,1
2,note_on,65,0,119
2,note_on,71,55,1
2,note_on,71,0,119
2,note_on,65,45,1
2,note_on,65,0,119
2,note_on,60,45,1
2,note_on,60,0,119
2,note_on,59,45,1
2,note_on,59,0,119
2,note_on,53,50,1
2,note_on,53,0,119
2,note_on,48,39,1
2,note_on,48,0,119
2,note_on,47,39,1
2,note_on,47,0,119
2,note_on,41,38,1
2,note_on,41,0,119
2,note_on,36,60,1
2,note_on,36,0,47
2,note_on,43,44,1
2,note_on,43,0,119
2,note_on,48,44,1
2,note_on,48,0,119
2,note_on,48,44,1
2,note_on,48,0,119
2,note_on,55,50,1
2,note_on,55,0,119
2,note_on,60,38,1
2,note_on,60,0,119
2,note_on,55,38,1
2,note_on,55,0,119
2,note_on,48,38,1
2,note_on,48,0,119
2,note_on,55,47,1
2,note_on,55,0,48
2,note_on,60,37,1
2,note_on,60,0,119
2,note_on,55,37,1
2,note_on,55,0,119
2,note_on,48,35,1
2,note_on,48,0,119
2,note_on,55,41,1
2,note_on,55,0,77
2,note_on,60,31,1
2,note_on,60,0,119
2,note_on,55,31,1
2,note_on,55,0,119
2,note_on,48,31,1
2,note_on,48,0,119
2,note_on,55,44,1
2,note_on,55,0,62
2,note_on,59,34,1
2,note_on,59,0,119
2,note_on,55,33,1
2,note_on,55,0,119
2,note_on,48,33,1
2,note_on,48,0,119
2,note_on,55,39,1
2,note_on,55,0,68
2,note_on,58,31,1
2,note_on,58,0,119
2,note_on,55,31,1
2,note_on,55,0,119
2,note_on,48,30,1
2,note_on,48,0,119
2,note_on,53,35,1
2,note_on,53,0,70
2,note_on,57,26,1
2,note_on,57,0,119
2,note_on,53,26,1
2,note_on,53,0,119
2,note_on,48,26,1
2,note_on,48,0,119
2,note_on,53,34,1
2,note_on,53,0,70
2,note_on,56,25,1
2,note_on,56,0,119
2,note_on,53,25,1
2,note_on,53,0,119
2,note_on,48,24,1
2,note_on,48,0,119
2,note_on,36,64,1
2,note_on,36,0,27
2,note_on,43,44,1
2,note_on,43,0,119
2,note_on,48,44,1
2,note_on,48,0,119
2,note_on,48,44,1
2,note_on,48,0,119
2,note_on,55,56,1
2,note_on,55,0,119
2,note_on,60,45,1
2,note_on,60,0,119
2,note_on,60,44,1
2,note_on,60,0,119
2,note_on,67,45,1
2,note_on,67,0,119
2,note_on,72,53,1
2,note_on,72,0,119
2,note_on,67,45,1
2,note_on,67,0,119
2,note_on,60,45,1
2,note_on,60,0,119
2,note_on,60,45,1
2,note_on,60,0,119
2,note_on,55,51,1
2,note_on,55,0,119
2,note_on,48,44,1
2,note_on,48,0,119
2,note_on,48,44,1
2,note_on,48,0,119
2,note_on,43,44,1
2,note_on,43,0,119
2,note_on,36,60,1
2,note_on,36,0,34
2,note_on,41,46,1
2,note_on,41,0,119
2,note_on,48,40,1
2,note_on,48,0,119
2,note_on,48,40,1
2,note_on,48,0,119
2,note_on,53,57,1
2,note_on,53,0,119
2,note_on,60,41,1
2,note_on,60,0,119
2,note_on,60,41,1
2,note_on,60,0,119
2,note_on,65,41,1
2,note_on,65,0,119
2,note_on,72,56,1
2,note_on,72,0,119
2,note_on,65,46,1
2,note_on,65,0,119
2,note_on,60,46,1
2,note_on,60,0,119
2,note_on,60,46,1
2,note_on,60,0,119
2,note_on,53,52,1
2,note_on,53,0,119
2,note_on,48,41,1
2,note_on,48,0,119
2,note_on,48,41,1
2,note_on,48,0,119
2,note_on,41,41,1
2,note_on,41,0,119
2,note_on,36,63,1
2,note_on,36,0,48
2,note_on,44,47,1
2,note_on,44,0,119
2,note_on,48,47,1
2,note_on,48,0,119
2,note_on,48,48,1
2,note_on,48,0,119
2,note_on,56,59,1
2,note_on,56,0,119
2,note_on,60,47,1
2,note_on,60,0,119
2,note_on,60,47,1
2,note_on,60,0,119
2,note_on,68,47,1
2,note_on,68,0,119
2,note_on,72,57,1
2,note_on,72,0,119
2,note_on,68,47,1
2,note_on,68,0,119
2,note_on,60,47,1
2,note_on,60,0,119
2,note_on,60,47,1
2,note_on,60,0,119
2,note_on,56,53,1
2,note_on,56,0,119
2,note_on,48,41,1
2,note_on,48,0,119
2,note_on,48,41,1
2,note_on,48,0,119
2,note_on,44,41,1
2,note_on,44,0,119
2,note_on,36,69,1
2,note_on,36,0,62
2,note_on,43,47,1
2,note_on,43,0,119
2,note_on,48,47,1
2,note_on,48,0,119
2,note_on,48,47,1
2,note_on,48,0,119
2,note_on,55,60,1
2,note_on,55,0,119
2,note_on,60,48,1
2,note_on,60,0,119
2,note_on,60,47,1
2,note_on,60,0,119
2,note_on,67,47,1
2,note_on,67,0,119
2,note_on,72,58,1
2,note_on,72,0,119
2,note_on,67,48,1
2,note_on,67,0,119
2,note_on,60,48,1
2,note_on,60,0,119
2,note_on,60,48,1
2,note_on,60,0,119
2,note_on,55,55,1
2,note_on,55,0,119
2,note_on,48,47,1
2,note_on,48,0,119
2,note_on,48,47,1
2,note_on,48,0,119
2,note_on,43,47,1
2,note_on,43,0,119
2,note_on,41,71,1
2,note_on,41,0,51
2,note_on,49,53,1
2,note_on,49,0,119
2,note_on,53,47,1
2,note_on,53,0,119
2,note_on,53,47,1
2,note_on,53,0,119
2,note_on,61,67,1
2,note_on,61,0,119
2,note_on,65,47,1
2,note_on,65,0,119
2,note_on,65,48,1
2,note_on,65,0,119
2,note_on,73,48,1
2,note_on,73,0,119
2,note_on,77,66,1
2,note_on,77,0,119
2,note_on,73,53,1
2,note_on,73,0,119
2,note_on,65,53,1
2,note_on,65,0,119
2,note_on,65,53,1
2,note_on,65,0,119
2,note_on,61,60,1
2,note_on,61,0,119
2,note_on,53,48,1
2,note_on,53,0,119
2,note_on,53,48,1
2,note_on,53,0,119
2,note_on,49,48,1
2,note_on,49,0,119
2,note_on,43,76,1
2,note_on,43,0,51
2,note_on,50,57,1
2,note_on,50,0,119
2,note_on,53,57,1
2,note_on,53,0,119
2,note_on,55,57,1
2,note_on,55,0,119
2,note_on,62,71,1
2,note_on,62,0,119
2,note_on,65,55,1
2,note_on,65,0,119
2,note_on,67,55,1
2,note_on,67,0,119
2,note_on,71,55,1
2,note_on,71,0,119
2,note_on,77,69,1
2,note_on,77,0,119
2,note_on,71,54,1
2,note_on,71,0,119
2,note_on,67,54,1
2,note_on,67,0,119
2,note_on,65,54,1
2,note_on,65,0,119
2,note_on,62,64,1
2,note_on,62,0,119
2,note_on,55,51,1
2,note_on,55,0,119
2,note_on,50,51,1
2,note_on,50,0,119
2,note_on,43,51,1
2,note_on,43,0,119
2,note_on,36,80,1
2,note_on,36,0,56
2,note_on,43,59,1
2,note_on,43,0,119
2,note_on,48,59,1
2,note_on,48,0,119
2,note_on,48,59,1
2,note_on,48,0,119
2,note_on,55,72,1
2,note_on,55,0,119
2,note_on,60,58,1
2,note_on,60,0,119
2,note_on,60,58,1
2,note_on,60,0,119
2,note_on,67,58,1
2,note_on,67,0,119
2,note_on,72,70,1
2,note_on,72,0,119
2,note_on,72,58,1
2,note_on,72,0,119
2,note_on,79,58,1
2,note_on,79,0,119
2,note_on,84,58,1
2,note_on,84,0,119
2,note_on,79,66,1
2,note_on,79,0,119
2,note_on,72,52,1
2,note_on,72,0,119
2,note_on,72,52,1
2,note_on,72,0,119
2,note_on,67,52,1
2,note_on,67,0,119
2,note_on,60,70,1
2,note_on,60,0,78
2,note_on,60,51,1
2,note_on,60,0,119
2,note_on,55,51,1
2,note_on,55,0,119
2,note_on,48,51,1
2,note_on,48,0,119
2,note_on,48,63,1
2,note_on,48,0,119
2,note_on,43,50,1
2,note_on,43,0,119
2,note_on,36,50,1
2,note_on,36,0,119
2,note_on,43,50,1
2,note_on,43,0,119
2,note_on,47,78,1
2,note_on,47,0,33
2,note_on,43,50,1
2,note_on,43,0,119
2,note_on,36,50,1
2,note_on,36,0,119
2,note_on,43,50,1
2,note_on,43,0,119
2,note_on,50,79,1
2,note_on,50,0,45
2,note_on,43,45,1
2,note_on,43,0,119
2,note_on,36,45,1
2,note_on,36,0,119
2,note_on,43,45,1
2,note_on,43,0,119
2,note_on,36,77,1
2,note_on,36,0,56
2,note_on,43,56,1
2,note_on,43,0,119
2,note_on,48,56,1
2,note_on,48,0,119
2,note_on,48,56,1
2,note_on,48,0,119
2,note_on,55,69,1
2,note_on,55,0,119
2,note_on,60,55,1
2,note_on,60,0,119
2,note_on,60,55,1
2,note_on,60,0,119
2,note_on,67,55,1
2,note_on,67,0,119
2,note_on,72,66,1
2,note_on,72,0,119
2,note_on,72,55,1
2,note_on,72,0,119
2,note_on,79,55,1
2,note_on,79,0,119
2,note_on,84,55,1
2,note_on,84,0,119
2,note_on,79,61,1
2,note_on,79,0,119
2,note_on,72,48,1
2,note_on,72,0,119
2,note_on,72,48,1
2,note_on,72,0,119
2,note_on,67,48,1
2,note_on,67,0,119
2,note_on,60,68,0
2,note_on,60,0,78
2,note_on,60,50,1
2,note_on,60,0,119
2,note_on,55,50,1
2,note_on,55,0,119
2,note_on,48,50,1
2,note_on,48,0,119
2,note_on,48,61,1
2,note_on,48,0,119
2,note_on,43,49,1
2,note_on,43,0,119
2,note_on,36,49,1
2,note_on,36,0,119
2,note_on,43,49,1
2,note_on,43,0,119
2,note_on,47,64,1
2,note_on,47,0,33
2,note_on,43,49,1
2,note_on,43,0,119
2,note_on,36,49,1
2,note_on,36,0,119
2,note_on,43,49,1
2,note_on,43,0,119
2,note_on,45,62,1
2,note_on,45,0,45
2,note_on,43,42,1
2,note_on,43,0,119
2,note_on,36,42,1
2,note_on,36,0,119
2,note_on,43,42,1
2,note_on,43,0,119
2,note_on,36,73,1
2,note_on,36,0,28
2,note_on,43,53,1
2,note_on,43,0,119
2,note_on,47,53,1
2,note_on,47,0,119
2,note_on,47,53,1
2,note_on,47,0,119
2,note_on,55,67,1
2,note_on,55,0,119
2,note_on,59,52,1
2,note_on,59,0,119
2,note_on,60,52,1
2,note_on,60,0,119
2,note_on,67,52,1
2,note_on,67,0,119
2,note_on,71,63,1
2,note_on,71,0,119
2,note_on,72,52,1
2,note_on,72,0,119
2,note_on,79,52,1
2,note_on,79,0,119
2,note_on,83,52,1
2,note_on,83,0,119
2,note_on,79,59,1
2,note_on,79,0,119
2,note_on,72,47,1
2,note_on,72,0,119
2,note_on,71,47,1
2,note_on,71,0,119
2,note_on,67,46,1
2,note_on,67,0,119
2,note_on,60,66,1
2,note_on,60,0,78
2,note_on,59,48,1
2,note_on,59,0,119
2,note_on,55,48,1
2,note_on,55,0,119
2,note_on,48,48,1
2,note_on,48,0,119
2,note_on,47,52,1
2,note_on,47,0,119
2,note_on,43,40,1
2,note_on,43,0,119
2,note_on,36,40,1
2,note_on,36,0,119
2,note_on,43,40,1
2,note_on,43,0,119
2,note_on,45,56,1
2,note_on,45,0,33
2,note_on,41,40,1
2,note_on,41,0,119
2,note_on,36,40,1
2,note_on,36,0,119
2,note_on,41,40,1
2,note_on,41,0,119
2,note_on,45,53,1
2,note_on,45,0,45
2,note_on,41,37,1
2,note_on,41,0,119
2,note_on,36,37,1
2,note_on,36,0,119
2,note_on,41,37,1
2,note_on,41,0,119
2,note_on,36,58,1
2,note_on,36,0,57
2,note_on,44,41,1
2,note_on,44,0,119
2,note_on,48,41,1
2,note_on,48,0,119
2,note_on,48,41,1
2,note_on,48,0,119
2,note_on,56,52,1
2,note_on,56,0,119
2,note_on,60,40,1
2,note_on,60,0,119
2,note_on,60,40,1
2,note_on,60,0,119
2,note_on,68,40,1
2,note_on,68,0,119
2,note_on,72,51,1
2,note_on,72,0,119
2,note_on,68,40,1
2,note_on,68,0,119
2,note_on,60,40,1
2,note_on,60,0,119
2,note_on,60,40,1
2,note_on,60,0,119
2,note_on,56,48,1
2,note_on,56,0,119
2,note_on,48,37,1
2,note_on,48,0,119
2,note_on,48,37,1
2,note_on,48,0,119
2,note_on,44,37,1
2,note_on,44,0,119
2,note_on,36,58,1
2,note_on,36,0,51
2,note_on,43,41,1
2,note_on,43,0,119
2,note_on,48,41,1
2,note_on,48,0,119
2,note_on,48,41,1
2,note_on,48,0,119
2,note_on,55,52,1
2,note_on,55,0,119
2,note_on,60,40,1
2,note_on,60,0,119
2,note_on,60,40,1
2,note_on,60,0,119
2,note_on,67,40,1
2,note_on,67,0,119
2,note_on,72,51,1
2,note_on,72,0,119
2,note_on,67,40,1
2,note_on,67,0,119
2,note_on,60,40,1
2,note_on,60,0,119
2,note_on,60,40,1
2,note_on,60,0,119
2,note_on,55,48,1
2,note_on,55,0,119
2,note_on,48,37,1
2,note_on,48,0,119
2,note_on,48,37,1
2,note_on,48,0,119
2,note_on,43,37,1
2,note_on,43,0,119
2,note_on,32,53,1
2,note_on,32,0,55
2,note_on,39,38,1
2,note_on,39,0,119
2,note_on,44,38,1
2,note_on,44,0,119
2,note_on,44,38,1
2,note_on,44,0,119
2,note_on,51,48,1
2,note_on,51,0,119
2,note_on,56,37,1
2,note_on,56,0,119
2,note_on,56,37,1
2,note_on,56,0,119
2,note_on,63,37,1
2,note_on,63,0,119
2,note_on,68,47,1
2,note_on,68,0,119
2,note_on,68,37,1
2,note_on,68,0,119
2,note_on,75,37,1
2,note_on,75,0,119
2,note_on,80,37,1
2,note_on,80,0,119
2,note_on,75,44,1
2,note_on,75,0,119
2,note_on,68,34,1
2,note_on,68,0,119
2,note_on,68,34,1
2,note_on,68,0,119
2,note_on,63,34,1
2,note_on,63,0,119
2,note_on,56,50,1
2,note_on,56,0,61
2,note_on,56,38,1
2,note_on,56,0,119
2,note_on,51,38,1
2,note_on,51,0,119
2,note_on,44,38,1
2,note_on,44,0,119
2,note_on,44,48,1
2,note_on,44,0,119
2,note_on,39,37,1
2,note_on,39,0,119
2,note_on,32,37,1
2,note_on,32,0,119
2,note_on,39,37,1
2,note_on,39,0,119
2,note_on,43,47,1
2,note_on,43,0,28
2,note_on,39,37,1
2,note_on,39,0,119
2,note_on,32,37,1
2,note_on,32,0,119
2,note_on,39,37,1
2,note_on,39,0,119
2,note_on,46,44,1
2,note_on,46,0,62
2,note_on,39,34,1
2,note_on,39,0,119
2,note_on,32,34,1
2,note_on,32,0,119
2,note_on,39,34,1
2,note_on,39,0,119
2,note_on,32,53,0
2,note_on,32,0,53
2,note_on,39,38,1
2,note_on,39,0,119
2,note_on,44,38,1
2,note_on,44,0,119
2,note_on,44,38,1
2,note_on,44,0,119
2,note_on,51,48,1
2,note_on,51,0,119
2,note_on,56,37,1
2,note_on,56,0,119
2,note_on,56,37,1
2,note_on,56,0,119
2,note_on,63,37,1
2,note_on,63,0,119
2,note_on,68,47,1
2,note_on,68,0,119
2,note_on,68,37,1
2,note_on,68,0,119
2,note_on,75,37,1
2,note_on,75,0,119
2,note_on,80,37,1
2,note_on,80,0,119
2,note_on,75,44,1
2,note_on,75,0,119
2,note_on,68,34,1
2,note_on,68,0,119
2,note_on,68,34,1
2,note_on,68,0,119
2,note_on,63,34,1
2,note_on,63,0,119
2,note_on,56,50,1
2,note_on,56,0,100
2,note_on,56,38,0
2,note_on,56,0,119
2,note_on,51,38,1
2,note_on,51,0,119
2,note_on,44,38,1
2,note_on,44,0,119
2,note_on,44,48,1
2,note_on,44,0,119
2,note_on,39,37,1
2,note_on,39,0,119
2,note_on,32,37,1
2,note_on,32,0,119
2,note_on,39,37,1
2,note_on,39,0,119
2,note_on,43,47,1
2,note_on,43,0,28
2,note_on,39,37,1
2,note_on,39,0,119
2,note_on,32,37,1
2,note_on,32,0,119
2,note_on,39,37,1
2,note_on,39,0,119
2,note_on,41,44,1
2,note_on,41,0,62
2,note_on,39,34,1
2,note_on,39,0,119
2,note_on,32,34,1
2,note_on,32,0,119
2,note_on,39,34,1
2,note_on,39,0,119
2,note_on,32,53,1
2,note_on,32,0,56
2,note_on,39,38,1
2,note_on,39,0,119
2,note_on,43,38,1
2,note_on,43,0,119
2,note_on,44,38,1
2,note_on,44,0,119
2,note_on,51,48,1
2,note_on,51,0,119
2,note_on,55,37,1
2,note_on,55,0,119
2,note_on,56,37,1
2,note_on,56,0,119
2,note_on,63,37,1
2,note_on,63,0,119
2,note_on,67,47,1
2,note_on,67,0,119
2,note_on,68,37,1
2,note_on,68,0,119
2,note_on,75,37,1
2,note_on,75,0,119
2,note_on,79,37,1
2,note_on,79,0,119
2,note_on,75,44,1
2,note_on,75,0,119
2,note_on,68,34,1
2,note_on,68,0,119
2,note_on,67,34,1
2,note_on,67,0,119
2,note_on,63,34,1
2,note_on,63,0,119
2,note_on,56,50,1
2,note_on,56,0,56
2,note_on,55,38,1
2,note_on,55,0,119
2,note_on,51,38,1
2,note_on,51,0,119
2,note_on,44,38,1
2,note_on,44,0,119
2,note_on,43,45,1
2,note_on,43,0,119
2,note_on,39,35,1
2,note_on,39,0,119
2,note_on,32,35,1
2,note_on,32,0,119
2,note_on,39,35,1
2,note_on,39,0,119
2,note_on,41,44,1
2,note_on,41,0,28
2,note_on,37,35,1
2,note_on,37,0,119
2,note_on,32,35,1
2,note_on,32,0,119
2,note_on,37,35,1
2,note_on,37,0,119
2,note_on,41,41,1
2,note_on,41,0,62
2,note_on,37,31,1
2,note_on,37,0,119
2,note_on,32,31,1
2,note_on,32,0,119
2,note_on,37,31,1
2,note_on,37,0,119
2,note_on,32,50,1
2,note_on,32,0,68
2,note_on,40,36,1
2,note_on,40,0,119
2,note_on,44,36,1
2,note_on,44,0,119
2,note_on,44,35,1
2,note_on,44,0,119
2,note_on,52,45,1
2,note_on,52,0,119
2,note_on,56,34,1
2,note_on,56,0,119
2,note_on,56,34,1
2,note_on,56,0,119
2,note_on,64,33,1
2,note_on,64,0,119
2,note_on,68,42,1
2,note_on,68,0,119
2,note_on,64,33,1
2,note_on,64,0,119
2,note_on,56,33,1
2,note_on,56,0,119
2,note_on,56,33,1
2,note_on,56,0,119
2,note_on,52,39,1
2,note_on,52,0,119
2,note_on,44,30,1
2,note_on,44,0,119
2,note_on,44,30,1
2,note_on,44,0,119
2,note_on,40,29,1
2,note_on,40,0,119
2,note_on,32,44,1
2,note_on,32,0,56
2,note_on,39,33,1
2,note_on,39,0,119
2,note_on,44,31,1
2,note_on,44,0,119
2,note_on,44,31,1
2,note_on,44,0,119
2,note_on,51,38,1
2,note_on,51,0,119
2,note_on,56,29,1
2,note_on,56,0,119
2,note_on,51,29,1
2,note_on,51,0,119
2,note_on,44,29,1
2,note_on,44,0,119
2,note_on,32,42,1
2,note_on,32,0,28
2,note_on,38,29,1
2,note_on,38,0,119
2,note_on,44,28,1
2,note_on,44,0,119
2,note_on,44,28,1
2,note_on,44,0,119
2,note_on,50,33,1
2,note_on,50,0,119
2,note_on,56,25,1
2,note_on,56,0,119
2,note_on,50,25,1
2,note_on,50,0,119
2,note_on,44,25,1
2,note_on,44,0,119
2,note_on,31,42,1
2,note_on,31,0,50
2,note_on,38,30,1
2,note_on,38,0,119
2,note_on,43,30,1
2,note_on,43,0,119
2,note_on,43,30,1
2,note_on,43,0,119
2,note_on,50,36,1
2,note_on,50,0,119
2,note_on,55,29,1
2,note_on,55,0,119
2,note_on,55,29,1
2,note_on,55,0,119
2,note_on,62,29,1
2,note_on,62,0,119
2,note_on,67,41,1
2,note_on,67,0,119
2,note_on,62,29,1
2,note_on,62,0,119
2,note_on,55,30,1
2,note_on,55,0,119
2,note_on,55,30,1
2,note_on,55,0,119
2,note_on,50,36,1
2,note_on,50,0,119
2,note_on,43,28,1
2,note_on,43,0,119
2,note_on,43,28,1
2,note_on,43,0,119
2,note_on,38,28,1
2,note_on,38,0,119
2,note_on,31,46,1
2,note_on,31,0,41
2,note_on,39,31,1
2,note_on,39,0,119
2,note_on,43,31,1
2,note_on,43,0,119
2,note_on,43,31,1
2,note_on,43,0,119
2,note_on,51,39,1
2,note_on,51,0,119
2,note_on,55,33,1
2,note_on,55,0,119
2,note_on,55,33,1
2,note_on,55,0,119
2,note_on,63,33,1
2,note_on,63,0,119
2,note_on,67,45,1
2,note_on,67,0,119
2,note_on,63,33,1
2,note_on,63,0,119
2,note_on,55,33,1
2,note_on,55,0,119
2,note_on,55,33,1
2,note_on,55,0,119
2,note_on,51,39,1
2,note_on,51,0,119
2,note_on,43,31,1
2,note_on,43,0,119
2,note_on,43,31,1
2,note_on,43,0,119
2,note_on,39,31,1
2,note_on,39,0,119
2,note_on,31,50,1
2,note_on,31,0,50
2,note_on,38,36,1
2,note_on,38,0,119
2,note_on,44,36,1
2,note_on,44,0,119
2,note_on,44,36,1
2,note_on,44,0,119
2,note_on,50,42,1
2,note_on,50,0,119
2,note_on,56,34,1
2,note_on,56,0,119
2,note_on,56,34,1
2,note_on,56,0,119
2,note_on,62,34,1
2,note_on,62,0,119
2,note_on,68,46,1
2,note_on,68,0,119
2,note_on,62,34,1
2,note_on,62,0,119
2,note_on,56,34,1
2,note_on,56,0,119
2,note_on,56,34,1
2,note_on,56,0,119
2,note_on,50,39,1
2,note_on,50,0,119
2,note_on,44,31,1
2,note_on,44,0,119
2,note_on,44,31,1
2,note_on,44,0,119
2,note_on,38,31,1
2,note_on,38,0,119
2,note_on,31,49,1
2,note_on,31,0,56
2,note_on,38,34,1
2,note_on,38,0,119
2,note_on,43,34,1
2,note_on,43,0,119
2,note_on,43,34,1
2,note_on,43,0,119
2,note_on,50,42,1
2,note_on,50,0,119
2,note_on,55,34,1
2,note_on,55,0,119
2,note_on,55,34,1
2,note_on,55,0,119
2,note_on,62,33,1
2,note_on,62,0,119
2,note_on,67,45,1
2,note_on,67,0,119
2,note_on,62,33,1
2,note_on,62,0,119
2,note_on,55,33,1
2,note_on,55,0,119
2,note_on,55,33,1
2,note_on,55,0,119
2,note_on,50,39,1
2,note_on,50,0,119
2,note_on,43,30,1
2,note_on,43,0,119
2,note_on,43,30,1
2,note_on,43,0,119
2,note_on,38,30,1
2,note_on,38,0,119
2,note_on,31,48,1
2,note_on,31,0,68
2,note_on,38,34,1
2,note_on,38,0,119
2,note_on,43,34,1
2,note_on,43,0,119
2,note_on,43,34,1
2,note_on,43,0,119
2,note_on,50,41,1
2,note_on,50,0,119
2,note_on,55,33,1
2,note_on,55,0,119
2,note_on,55,33,1
2,note_on,55,0,119
2,note_on,62,33,1
2,note_on,62,0,119
2,note_on,67,46,1
2,note_on,67,0,119
2,note_on,62,33,1
2,note_on,62,0,119
2,note_on,55,33,1
2,note_on,55,0,119
2,note_on,55,33,1
2,note_on,55,0,119
2,note_on,50,39,1
2,note_on,50,0,119
2,note_on,43,31,1
2,note_on,43,0,119
2,note_on,43,31,1
2,note_on,43,0,119
2,note_on,38,31,1
2,note_on,38,0,119
2,note_on,32,51,1
2,note_on,32,0,55
2,note_on,41,36,1
2,note_on,41,0,119
2,note_on,44,36,1
2,note_on,44,0,119
2,note_on,44,36,1
2,note_on,44,0,119
2,note_on,53,46,1
2,note_on,53,0,119
2,note_on,56,36,1
2,note_on,56,0,119
2,note_on,56,36,1
2,note_on,56,0,119
2,note_on,65,36,1
2,note_on,65,0,119
2,note_on,68,49,1
2,note_on,68,0,119
2,note_on,65,36,1
2,note_on,65,0,119
2,note_on,56,36,1
2,note_on,56,0,119
2,note_on,56,36,1
2,note_on,56,0,119
2,note_on,53,45,1
2,note_on,53,0,119
2,note_on,44,34,1
2,note_on,44,0,119
2,note_on,44,34,1
2,note_on,44,0,119
2,note_on,41,34,1
2,note_on,41,0,119
2,note_on,33,56,1
2,note_on,33,0,39
2,note_on,42,39,1
2,note_on,42,0,119
2,note_on,45,39,1
2,note_on,45,0,119
2,note_on,45,39,1
2,note_on,45,0,119
2,note_on,54,48,1
2,note_on,54,0,119
2,note_on,57,38,1
2,note_on,57,0,119
2,note_on,57,38,1
2,note_on,57,0,119
2,note_on,66,39,1
2,note_on,66,0,119
2,note_on,69,52,1
2,note_on,69,0,119
2,note_on,66,39,1
2,note_on,66,0,119
2,note_on,57,39,1
2,note_on,57,0,119
2,note_on,57,39,1
2,note_on,57,0,119
2,note_on,54,47,1
2,note_on,54,0,119
2,note_on,45,37,1
2,note_on,45,0,119
2,note_on,45,37,1
2,note_on,45,0,119
2,note_on,42,37,1
2,note_on,42,0,119
2,note_on,34,59,1
2,note_on,34,0,55
2,note_on,43,41,1
2,note_on,43,0,119
2,note_on,46,41,1
2,note_on,46,0,119
2,note_on,46,41,1
2,note_on,46,0,119
2,note_on,55,51,1
2,note_on,55,0,119
2,note_on,58,42,1
2,note_on,58,0,119
2,note_on,58,42,1
2,note_on,58,0,119
2,note_on,67,42,1
2,note_on,67,0,119
2,note_on,70,56,1
2,note_on,70,0,119
2,note_on,67,42,1
2,note_on,67,0,119
2,note_on,58,42,1
2,note_on,58,0,119
2,note_on,58,42,1
2,note_on,58,0,119
2,note_on,55,50,1
2,note_on,55,0,119
2,note_on,46,38,1
2,note_on,46,0,119
2,note_on,46,38,1
2,note_on,46,0,119
2,note_on,43,38,1
2,note_on,43,0,119
2,note_on,35,62,1
2,note_on,35,0,56
2,note_on,41,45,1
2,note_on,41,0,119
2,note_on,47,45,1
2,note_on,47,0,119
2,note_on,47,45,1
2,note_on,47,0,119
2,note_on,53,55,1
2,note_on,53,0,119
2,note_on,59,44,1
2,note_on,59,0,119
2,note_on,59,44,1
2,note_on,59,0,119
2,note_on,65,45,1
2,note_on,65,0,119
2,note_on,71,59,1
2,note_on,71,0,119
2,note_on,65,45,1
2,note_on,65,0,119
2,note_on,59,45,1
2,note_on,59,0,119
2,note_on,59,45,1
2,note_on,59,0,119
2,note_on,53,52,1
2,note_on,53,0,119
2,note_on,47,40,1
2,note_on,47,0,119
2,note_on,47,40,1
2,note_on,47,0,119
2,note_on,41,40,1
2,note_on,41,0,119
2,note_on,36,67,1
2,note_on,36,0,63
2,note_on,41,46,1
2,note_on,41,0,119
2,note_on,48,46,1
2,note_on,48,0,119
2,note_on,48,46,1
2,note_on,48,0,119
2,note_on,53,57,1
2,note_on,53,0,119
2,note_on,60,48,1
2,note_on,60,0,119
2,note_on,60,48,1
2,note_on,60,0,119
2,note_on,65,48,1
2,note_on,65,0,119
2,note_on,72,62,1
2,note_on,72,0,119
2,note_on,65,48,1
2,note_on,65,0,119
2,note_on,60,48,1
2,note_on,60,0,119
2,note_on,60,48,1
2,note_on,60,0,119
2,note_on,53,56,1
2,note_on,53,0,119
2,note_on,48,42,1
2,note_on,48,0,119
2,note_on,48,42,1
2,note_on,48,0,119
2,note_on,41,42,1
2,note_on,41,0,119
2,note_on,39,71,1
2,note_on,39,0,55
2,note_on,44,51,1
2,note_on,44,0,119
2,note_on,51,51,1
2,note_on,51,0,119
2,note_on,51,51,1
2,note_on,51,0,119
2,note_on,56,61,1
2,note_on,56,0,119
2,note_on,63,49,1
2,note_on,63,0,119
2,note_on,63,49,1
2,note_on,63,0,119
2,note_on,68,50,1
2,note_on,68,0,119
2,note_on,75,67,1
2,note_on,75,0,119
2,note_on,68,50,1
2,note_on,68,0,119
2,note_on,63,50,1
2,note_on,63,0,119
2,note_on,63,50,1
2,note_on,63,0,119
2,note_on,56,59,1
2,note_on,56,0,119
2,note_on,51,47,1
2,note_on,51,0,119
2,note_on,51,47,1
2,note_on,51,0,119
2,note_on,44,47,1
2,note_on,44,0,119
2,note_on,38,71,1
2,note_on,38,0,50
2,note_on,44,51,1
2,note_on,44,0,119
2,note_on,50,51,1
2,note_on,50,0,119
2,note_on,50,51,1
2,note_on,50,0,119
2,note_on,56,63,1
2,note_on,56,0,119
2,note_on,62,52,1
2,note_on,62,0,119
2,note_on,62,52,1
2,note_on,62,0,119
2,note_on,68,52,1
2,note_on,68,0,119
2,note_on,74,71,1
2,note_on,74,0,119
2,note_on,68,52,1
2,note_on,68,0,119
2,note_on,62,52,1
2,note_on,62,0,119
2,note_on,62,52,1
2,note_on,62,0,119
2,note_on,56,63,1
2,note_on,56,0,119
2,note_on,50,49,1
2,note_on,50,0,119
2,note_on,50,49,1
2,note_on,50,0,119
2,note_on,44,49,1
2,note_on,44,0,119
2,note_on,43,77,1
2,note_on,43,0,68
2,note_on,50,53,1
2,note_on,50,0,119
2,note_on,53,53,1
2,note_on,53,0,119
2,note_on,55,53,1
2,note_on,55,0,119
2,note_on,62,64,1
2,note_on,62,0,119
2,note_on,65,50,1
2,note_on,65,0,119
2,note_on,67,51,1
2,note_on,67,0,119
2,note_on,74,51,1
2,note_on,74,0,119
2,note_on,77,73,1
2,note_on,77,0,119
2,note_on,74,53,1
2,note_on,74,0,119
2,note_on,67,53,1
2,note_on,67,0,119
2,note_on,65,53,1
2,note_on,65,0,119
2,note_on,62,63,1
2,note_on,62,0,119
2,note_on,55,50,1
2,note_on,55,0,119
2,note_on,53,50,1
2,note_on,53,0,119
2,note_on,50,50,1
2,note_on,50,0,119
2,note_on,43,77,1
2,note_on,43,0,62
2,note_on,50,53,1
2,note_on,50,0,119
2,note_on,53,53,1
2,note_on,53,0,119
2,note_on,55,53,1
2,note_on,55,0,119
2,note_on,62,64,1
2,note_on,62,0,119
2,note_on,65,50,1
2,note_on,65,0,119
2,note_on,67,51,1
2,note_on,67,0,119
2,note_on,74,51,1
2,note_on,74,0,119
2,note_on,77,73,1
2,note_on,77,0,119
2,note_on,74,53,1
2,note_on,74,0,119
2,note_on,67,53,1
2,note_on,67,0,119
2,note_on,65,53,1
2,note_on,65,0,119
2,note_on,62,63,1
2,note_on,62,0,119
2,note_on,55,50,1
2,note_on,55,0,119
2,note_on,53,50,1
2,note_on,53,0,119
2,note_on,50,50,1
2,note_on,50,0,119
2,note_on,31,74,1
2,note_on,31,0,39
2,note_on,38,44,1
2,note_on,38,0,119
2,note_on,43,44,1
2,note_on,43,0,119
2,note_on,43,44,1
2,note_on,43,0,119
2,note_on,50,58,1
2,note_on,50,0,119
2,note_on,55,40,1
2,note_on,55,0,119
2,note_on,50,40,1
2,note_on,50,0,119
2,note_on,43,41,1
2,note_on,43,0,119
2,note_on,32,63,1
2,note_on,32,0,50
2,note_on,36,44,1
2,note_on,36,0,119
2,note_on,44,44,1
2,note_on,44,0,119
2,note_on,44,44,1
2,note_on,44,0,119
2,note_on,48,58,1
2,note_on,48,0,119
2,note_on,56,41,1
2,note_on,56,0,119
2,note_on,48,41,1
2,note_on,48,0,119
2,note_on,44,41,1
2,note_on,44,0,119
2,note_on,33,71,1
2,note_on,33,0,70
2,note_on,37,43,1
2,note_on,37,0,119
2,note_on,45,44,1
2,note_on,45,0,119
2,note_on,45,45,1
2,note_on,45,0,119
2,note_on,49,61,1
2,note_on,49,0,119
2,note_on,57,46,1
2,note_on,57,0,119
2,note_on,49,47,1
2,note_on,49,0,119
2,note_on,45,48,1
2,note_on,45,0,119
2,note_on,34,70,1
2,note_on,34,0,50
2,note_on,37,50,1
2,note_on,37,0,119
2,note_on,46,51,1
2,note_on,46,0,119
2,note_on,37,50,1
2,note_on,37,0,119
2,note_on,35,69,1
2,note_on,35,0,68
2,note_on,38,50,1
2,note_on,38,0,119
2,note_on,47,50,1
2,note_on,47,0,119
2,note_on,38,51,1
2,note_on,38,0,119
2,note_on,36,82,1
2,note_on,36,0,41
2,note_on,43,56,1
2,note_on,43,0,119
2,note_on,48,56,1
2,note_on,48,0,119
2,note_on,48,56,1
2,note_on,48,0,119
2,note_on,55,70,1
2,note_on,55,0,119
2,note_on,60,57,1
2,note_on,60,0,119
2,note_on,60,56,1
2,note_on,60,0,119
2,note_on,67,56,1
2,note_on,67,0,119
2,note_on,72,67,1
2,note_on,72,0,119
2,note_on,67,56,1
2,note_on,67,0,119
2,note_on,60,56,1
2,note_on,60,0,119
2,note_on,60,56,1
2,note_on,60,0,119
2,note_on,55,63,1
2,note_on,55,0,119
2,note_on,48,55,1
2,note_on,48,0,119
2,note_on,48,55,1
2,note_on,48,0,119
2,note_on,43,55,1
2,note_on,43,0,119
2,note_on,36,75,1
2,note_on,36,0,70
2,note_on,41,57,1
2,note_on,41,0,119
2,note_on,48,51,1
2,note_on,48,0,119
2,note_on,48,51,1
2,note_on,48,0,119
2,note_on,53,70,1
2,note_on,53,0,119
2,note_on,60,51,1
2,note_on,60,0,119
2,note_on,60,51,1
2,note_on,60,0,119
2,note_on,65,51,1
2,note_on,65,0,119
2,note_on,72,69,1
2,note_on,72,0,119
2,note_on,65,56,1
2,note_on,65,0,119
2,note_on,60,56,1
2,note_on,60,0,119
2,note_on,60,56,1
2,note_on,60,0,119
2,note_on,53,63,1
2,note_on,53,0,119
2,note_on,48,51,1
2,note_on,48,0,119
2,note_on,48,51,1
2,note_on,48,0,119
2,note_on,41,51,1
2,note_on,41,0,119
2,note_on,36,78,1
2,note_on,36,0,53
2,note_on,44,57,1
2,note_on,44,0,119
2,note_on,48,57,1
2,note_on,48,0,119
2,note_on,48,57,1
2,note_on,48,0,119
2,note_on,56,70,1
2,note_on,56,0,119
2,note_on,60,56,1
2,note_on,60,0,119
2,note_on,60,56,1
2,note_on,60,0,119
2,note_on,68,56,1
2,note_on,68,0,119
2,note_on,72,67,1
2,note_on,72,0,119
2,note_on,68,56,1
2,note_on,68,0,119
2,note_on,60,56,1
2,note_on,60,0,119
2,note_on,60,56,1
2,note_on,60,0,119
2,note_on,56,63,1
2,note_on,56,0,119
2,note_on,48,50,1
2,note_on,48,0,119
2,note_on,48,50,1
2,note_on,48,0,119
2,note_on,44,50,1
2,note_on,44,0,119
2,note_on,36,82,1
2,note_on,36,0,55
2,note_on,43,56,1
2,note_on,43,0,119
2,note_on,48,56,1
2,note_on,48,0,119
2,note_on,48,56,1
2,note_on,48,0,119
2,note_on,55,70,1
2,note_on,55,0,119
2,note_on,60,57,1
2,note_on,60,0,119
2,note_on,60,56,1
2,note_on,60,0,119
2,note_on,67,56,1
2,note_on,67,0,119
2,note_on,72,67,1
2,note_on,72,0,119
2,note_on,67,56,1
2,note_on,67,0,119
2,note_on,60,56,1
2,note_on,60,0,119
2,note_on,60,56,1
2,note_on,60,0,119
2,note_on,55,63,1
2,note_on,55,0,119
2,note_on,48,55,1
2,note_on,48,0,119
2,note_on,48,55,1
2,note_on,48,0,119
2,note_on,43,55,1
2,note_on,43,0,119
2,note_on,36,75,1
2,note_on,36,0,50
2,note_on,41,57,1
2,note_on,41,0,119
2,note_on,48,51,1
2,note_on,48,0,119
2,note_on,48,51,1
2,note_on,48,0,119
2,note_on,53,70,1
2,note_on,53,0,119
2,note_on,60,51,1
2,note_on,60,0,119
2,note_on,60,51,1
2,note_on,60,0,119
2,note_on,65,51,1
2,note_on,65,0,119
2,note_on,72,69,1
2,note_on,72,0,119
2,note_on,65,56,1
2,note_on,65,0,119
2,note_on,60,56,1
2,note_on,60,0,119
2,note_on,60,56,1
2,note_on,60,0,119
2,note_on,53,63,1
2,note_on,53,0,119
2,note_on,48,51,1
2,note_on,48,0,119
2,note_on,48,51,1
2,note_on,48,0,119
2,note_on,41,51,1
2,note_on,41,0,119
2,note_on,36,78,1
2,note_on,36,0,68
2,note_on,41,57,1
2,note_on,41,0,119
2,note_on,47,57,1
2,note_on,47,0,119
2,note_on,48,57,1
2,note_on,48,0,119
2,note_on,56,70,1
2,note_on,56,0,119
2,note_on,59,56,1
2,note_on,59,0,119
2,note_on,60,56,1
2,note_on,60,0,119
2,note_on,65,56,1
2,note_on,65,0,119
2,note_on,71,67,1
2,note_on,71,0,119
2,note_on,65,56,1
2,note_on,65,0,119
2,note_on,60,56,1
2,note_on,60,0,119
2,note_on,59,56,1
2,note_on,59,0,119
2,note_on,53,63,1
2,note_on,53,0,119
2,note_on,48,50,1
2,note_on,48,0,119
2,note_on,47,50,1
2,note_on,47,0,119
2,note_on,41,50,1
2,note_on,41,0,119
2,note_on,36,78,1
2,note_on,36,0,55
2,note_on,43,57,1
2,note_on,43,0,119
2,note_on,48,57,1
2,note_on,48,0,119
2,note_on,48,57,1
2,note_on,48,0,119
2,note_on,55,66,1
2,note_on,55,0,119
2,note_on,60,51,1
2,note_on,60,0,119
2,note_on,55,51,1
2,note_on,55,0,119
2,note_on,48,50,1
2,note_on,48,0,119
2,note_on,55,61,1
2,note_on,55,0,48
2,note_on,60,49,1
2,note_on,60,0,119
2,note_on,55,49,1
2,note_on,55,0,119
2,note_on,48,48,1
2,note_on,48,0,119
2,note_on,55,55,1
2,note_on,55,0,77
2,note_on,60,41,1
2,note_on,60,0,119
2,note_on,55,41,1
2,note_on,55,0,119
2,note_on,48,41,1
2,note_on,48,0,119
2,note_on,55,58,1
2,note_on,55,0,62
2,note_on,59,47,1
2,note_on,59,0,119
2,note_on,55,46,1
2,note_on,55,0,119
2,note_on,48,46,1
2,note_on,48,0,119
2,note_on,55,53,1
2,note_on,55,0,68
2,note_on,58,44,1
2,note_on,58,0,119
2,note_on,55,44,1
2,note_on,55,0,119
2,note_on,48,41,1
2,note_on,48,0,119
2,note_on,53,49,1
2,note_on,53,0,63
2,note_on,57,37,1
2,note_on,57,0,119
2,note_on,53,37,1
2,note_on,53,0,119
2,note_on,48,37,1
2,note_on,48,0,119
2,note_on,53,48,1
2,note_on,53,0,63
2,note_on,56,36,1
2,note_on,56,0,119
2,note_on,53,36,1
2,note_on,53,0,119
2,note_on,48,35,1
2,note_on,48,0,119
2,note_on,36,62,1
2,note_on,36,0,52
2,note_on,43,42,1
2,note_on,43,0,119
2,note_on,48,42,1
2,note_on,48,0,119
2,note_on,48,42,1
2,note_on,48,0,119
2,note_on,55,53,1
2,note_on,55,0,119
2,note_on,60,45,1
2,note_on,60,0,119
2,note_on,60,44,1
2,note_on,60,0,119
2,note_on,67,44,1
2,note_on,67,0,119
2,note_on,72,52,1
2,note_on,72,0,119
2,note_on,67,44,1
2,note_on,67,0,119
2,note_on,60,45,1
2,note_on,60,0,119
2,note_on,60,45,1
2,note_on,60,0,119
2,note_on,55,51,1
2,note_on,55,0,119
2,note_on,48,44,1
2,note_on,48,0,119
2,note_on,48,44,1
2,note_on,48,0,119
2,note_on,43,45,1
2,note_on,43,0,119
2,note_on,36,61,1
2,note_on,36,0,53
2,note_on,41,47,1
2,note_on,41,0,119
2,note_on,48,42,1
2,note_on,48,0,119
2,note_on,48,42,1
2,note_on,48,0,119
2,note_on,53,58,1
2,note_on,53,0,119
2,note_on,60,42,1
2,note_on,60,0,119
2,note_on,60,44,1
2,note_on,60,0,119
2,note_on,65,44,1
2,note_on,65,0,119
2,note_on,72,59,1
2,note_on,72,0,119
2,note_on,65,48,1
2,note_on,65,0,119
2,note_on,60,48,1
2,note_on,60,0,119
2,note_on,60,48,1
2,note_on,60,0,119
2,note_on,53,55,1
2,note_on,53,0,119
2,note_on,48,45,1
2,note_on,48,0,119
2,note_on,48,45,1
2,note_on,48,0,119
2,note_on,41,45,1
2,note_on,41,0,119
2,note_on,36,67,1
2,note_on,36,0,62
2,note_on,43,50,1
2,note_on,43,0,119
2,note_on,48,46,1
2,note_on,48,0,119
2,note_on,48,46,1
2,note_on,48,0,119
2,note_on,55,62,1
2,note_on,55,0,119
2,note_on,60,46,1
2,note_on,60,0,119
2,note_on,60,46,1
2,note_on,60,0,119
2,note_on,67,47,1
2,note_on,67,0,119
2,note_on,72,62,1
2,note_on,72,0,119
2,note_on,67,49,1
2,note_on,67,0,119
2,note_on,60,49,1
2,note_on,60,0,119
2,note_on,60,49,1
2,note_on,60,0,119
2,note_on,55,59,1
2,note_on,55,0,119
2,note_on,48,48,1
2,note_on,48,0,119
2,note_on,48,48,1
2,note_on,48,0,119
2,note_on,43,48,1
2,note_on,37,68,120
2,note_on,37,0,73
2,note_on,43,0,1
2,note_on,44,51,0
2,note_on,44,0,119
2,note_on,49,46,1
2,note_on,49,0,119
2,note_on,49,46,1
2,note_on,49,0,119
2,note_on,56,62,1
2,note_on,56,0,119
2,note_on,61,46,1
2,note_on,61,0,119
2,note_on,61,46,1
2,note_on,61,0,119
2,note_on,68,46,1
2,note_on,68,0,119
2,note_on,73,62,1
2,note_on,73,0,119
2,note_on,68,48,1
2,note_on,68,0,119
2,note_on,61,48,1
2,note_on,61,0,119
2,note_on,61,48,1
2,note_on,61,0,119
2,note_on,56,58,1
2,note_on,56,0,119
2,note_on,49,46,1
2,note_on,49,0,119
2,note_on,49,46,1
2,note_on,49,0,119
2,note_on,44,46,1
2,note_on,44,0,119
2,note_on,37,66,1
2,note_on,37,0,50
2,note_on,44,49,1
2,note_on,44,0,119
2,note_on,49,44,1
2,note_on,49,0,119
2,note_on,49,44,1
2,note_on,49,0,119
2,note_on,56,61,1
2,note_on,56,0,119
2,note_on,61,44,1
2,note_on,61,0,119
2,note_on,61,44,1
2,note_on,61,0,119
2,note_on,68,44,1
2,note_on,68,0,119
2,note_on,73,60,1
2,note_on,73,0,119
2,note_on,68,44,1
2,note_on,68,0,119
2,note_on,61,44,1
2,note_on,61,0,119
2,note_on,61,44,1
2,note_on,61,0,119
2,note_on,56,56,1
2,note_on,56,0,119
2,note_on,49,44,1
2,note_on,49,0,119
2,note_on,49,44,1
2,note_on,49,0,119
2,note_on,44,44,1
2,note_on,44,0,119
2,note_on,37,67,1
2,note_on,37,0,68
2,note_on,43,50,1
2,note_on,43,0,119
2,note_on,49,46,1
2,note_on,49,0,119
2,note_on,49,46,1
2,note_on,49,0,119
2,note_on,55,62,1
2,note_on,55,0,119
2,note_on,61,46,1
2,note_on,61,0,119
2,note_on,61,46,1
2,note_on,61,0,119
2,note_on,67,46,1
2,note_on,67,0,119
2,note_on,73,61,1
2,note_on,73,0,119
2,note_on,67,48,1
2,note_on,67,0,119
2,note_on,61,48,1
2,note_on,61,0,119
2,note_on,61,47,1
2,note_on,61,0,119
2,note_on,55,58,1
2,note_on,55,0,119
2,note_on,49,46,1
2,note_on,49,0,119
2,note_on,49,46,1
2,note_on,49,0,119
2,note_on,43,46,1
2,note_on,43,0,119
2,note_on,37,69,1
2,note_on,37,0,53
2,note_on,44,51,1
2,note_on,44,0,119
2,note_on,49,47,1
2,note_on,49,0,119
2,note_on,49,47,1
2,note_on,49,0,119
2,note_on,56,66,1
2,note_on,56,0,119
2,note_on,61,47,1
2,note_on,61,0,119
2,note_on,61,47,1
2,note_on,61,0,119
2,note_on,68,47,1
2,note_on,68,0,119
2,note_on,73,64,1
2,note_on,73,0,119
2,note_on,68,47,1
2,note_on,68,0,119
2,note_on,61,47,1
2,note_on,61,0,119
2,note_on,61,47,1
2,note_on,61,0,119
2,note_on,56,60,1
2,note_on,56,0,119
2,note_on,49,47,1
2,note_on,49,0,119
2,note_on,49,47,1
2,note_on,49,0,119
2,note_on,44,47,1
2,note_on,38,72,120
2,note_on,38,0,49
2,note_on,44,0,1
2,note_on,43,51,0
2,note_on,43,0,119
2,note_on,50,49,1
2,note_on,50,0,119
2,note_on,50,49,1
2,note_on,50,0,119
2,note_on,55,67,1
2,note_on,55,0,119
2,note_on,62,49,1
2,note_on,62,0,119
2,note_on,55,49,1
2,note_on,55,0,119
2,note_on,50,49,1
2,note_on,50,0,119
2,note_on,38,67,1
2,note_on,38,0,119
2,note_on,41,50,1
2,note_on,41,0,119
2,note_on,50,50,1
2,note_on,50,0,119
2,note_on,50,50,1
2,note_on,50,0,119
2,note_on,53,61,1
2,note_on,53,0,119
2,note_on,62,49,1
2,note_on,62,0,119
2,note_on,53,49,1
2,note_on,53,0,119
2,note_on,50,49,1
2,note_on,50,0,119
2,note_on,39,73,1
2,note_on,39,0,55
2,note_on,48,55,1
2,note_on,48,0,119
2,note_on,51,50,1
2,note_on,51,0,119
2,note_on,51,50,1
2,note_on,51,0,119
2,note_on,60,69,1
2,note_on,60,0,119
2,note_on,63,50,1
2,note_on,63,0,119
2,note_on,63,50,1
2,note_on,63,0,119
2,note_on,72,50,1
2,note_on,72,0,119
2,note_on,75,69,1
2,note_on,75,0,119
2,note_on,72,50,1
2,note_on,72,0,119
2,note_on,63,50,1
2,note_on,63,0,119
2,note_on,63,50,1
2,note_on,63,0,119
2,note_on,60,63,1
2,note_on,60,0,119
2,note_on,51,50,1
2,note_on,51,0,119
2,note_on,51,50,1
2,note_on,51,0,119
2,note_on,48,50,1
2,note_on,48,0,119
2,note_on,40,77,1
2,note_on,40,0,73
2,note_on,48,58,1
2,note_on,48,0,119
2,note_on,52,52,1
2,note_on,52,0,119
2,note_on,52,52,1
2,note_on,52,0,119
2,note_on,60,72,1
2,note_on,60,0,119
2,note_on,64,52,1
2,note_on,64,0,119
2,note_on,64,52,1
2,note_on,64,0,119
2,note_on,72,52,1
2,note_on,72,0,119
2,note_on,76,71,1
2,note_on,76,0,119
2,note_on,72,52,1
2,note_on,72,0,119
2,note_on,64,52,1
2,note_on,64,0,119
2,note_on,64,52,1
2,note_on,64,0,119
2,note_on,60,64,1
2,note_on,60,0,119
2,note_on,52,52,1
2,note_on,52,0,119
2,note_on,52,52,1
2,note_on,52,0,119
2,note_on,48,52,1
2,note_on,48,0,119
2,note_on,41,72,1
2,note_on,41,0,41
2,note_on,48,51,1
2,note_on,48,0,119
2,note_on,53,49,1
2,note_on,53,0,119
2,note_on,53,49,1
2,note_on,53,0,119
2,note_on,60,67,1
2,note_on,60,0,119
2,note_on,65,49,1
2,note_on,65,0,119
2,note_on,60,49,1
2,note_on,60,0,119
2,note_on,53,49,1
2,note_on,53,0,119
2,note_on,41,66,1
2,note_on,41,0,119
2,note_on,48,50,1
2,note_on,48,0,119
2,note_on,53,50,1
2,note_on,53,0,119
2,note_on,53,50,1
2,note_on,53,0,119
2,note_on,60,62,1
2,note_on,60,0,119
2,note_on,65,49,1
2,note_on,65,0,119
2,note_on,60,49,1
2,note_on,60,0,119
2,note_on,53,49,1
2,note_on,53,0,118
2,note_on,41,73,2
2,note_on,41,0,34
2,note_on,48,52,1
2,note_on,48,0,119
2,note_on,53,49,1
2,note_on,53,0,119
2,note_on,53,49,1
2,note_on,53,0,119
2,note_on,60,69,1
2,note_on,60,0,119
2,note_on,65,49,1
2,note_on,65,0,119
2,note_on,60,49,1
2,note_on,60,0,119
2,note_on,53,49,1
2,note_on,53,0,119
2,note_on,41,67,1
2,note_on,41,0,119
2,note_on,48,50,1
2,note_on,48,0,119
2,note_on,53,50,1
2,note_on,53,0,119
2,note_on,53,50,1
2,note_on,53,0,119
2,note_on,60,62,1
2,note_on,60,0,119
2,note_on,65,49,1
2,note_on,65,0,119
2,note_on,60,49,1
2,note_on,60,0,119
2,note_on,53,49,1
2,note_on,53,0,119
2,note_on,43,74,1
2,note_on,43,0,34
2,note_on,51,56,1
2,note_on,51,0,119
2,note_on,55,56,1
2,note_on,55,0,119
2,note_on,55,53,1
2,note_on,55,0,119
2,note_on,63,66,1
2,note_on,63,0,119
2,note_on,67,53,1
2,note_on,67,0,119
2,note_on,67,53,1
2,note_on,67,0,119
2,note_on,75,53,1
2,note_on,75,0,119
2,note_on,79,72,1
2,note_on,79,0,119
2,note_on,75,53,1
2,note_on,75,0,119
2,note_on,67,53,1
2,note_on,67,0,119
2,note_on,67,53,1
2,note_on,67,0,119
2,note_on,63,67,1
2,note_on,63,0,119
2,note_on,55,53,1
2,note_on,55,0,119
2,note_on,55,53,1
2,note_on,55,0,119
2,note_on,51,53,1
2,note_on,51,0,119
2,note_on,43,74,1
2,note_on,43,0,63
2,note_on,51,56,1
2,note_on,51,0,119
2,note_on,55,56,1
2,note_on,55,0,119
2,note_on,55,53,1
2,note_on,55,0,119
2,note_on,63,66,1
2,note_on,63,0,119
2,note_on,67,53,1
2,note_on,67,0,119
2,note_on,67,53,1
2,note_on,67,0,119
2,note_on,75,53,1
2,note_on,75,0,119
2,note_on,79,72,1
2,note_on,79,0,119
2,note_on,75,53,1
2,note_on,75,0,119
2,note_on,67,53,1
2,note_on,67,0,119
2,note_on,67,53,1
2,note_on,67,0,119
2,note_on,63,67,1
2,note_on,63,0,119
2,note_on,55,53,1
2,note_on,55,0,119
2,note_on,55,53,1
2,note_on,55,0,119
2,note_on,51,53,1
2,note_on,51,0,119
2,note_on,43,74,1
2,note_on,43,0,50
2,note_on,50,56,1
2,note_on,50,0,119
2,note_on,53,56,1
2,note_on,53,0,119
2,note_on,55,53,1
2,note_on,55,0,119
2,note_on,62,66,1
2,note_on,62,0,119
2,note_on,65,53,1
2,note_on,65,0,119
2,note_on,67,53,1
2,note_on,67,0,119
2,note_on,74,53,1
2,note_on,74,0,119
2,note_on,77,72,1
2,note_on,77,0,119
2,note_on,74,53,1
2,note_on,74,0,119
2,note_on,67,53,1
2,note_on,67,0,119
2,note_on,65,53,1
2,note_on,65,0,119
2,note_on,62,67,1
2,note_on,62,0,119
2,note_on,55,53,1
2,note_on,55,0,119
2,note_on,53,53,1
2,note_on,53,0,119
2,note_on,50,53,1
2,note_on,50,0,119
2,note_on,43,74,1
2,note_on,43,0,50
2,note_on,50,56,1
2,note_on,50,0,119
2,note_on,53,56,1
2,note_on,53,0,119
2,note_on,55,53,1
2,note_on,55,0,119
2,note_on,62,66,1
2,note_on,62,0,119
2,note_on,65,53,1
2,note_on,65,0,119
2,note_on,67,53,1
2,note_on,67,0,119
2,note_on,74,53,1
2,note_on,74,0,119
2,note_on,77,72,1
2,note_on,77,0,119
2,note_on,74,53,1
2,note_on,74,0,119
2,note_on,67,53,1
2,note_on,67,0,119
2,note_on,65,53,1
2,note_on,65,0,119
2,note_on,62,67,1
2,note_on,62,0,119
2,note_on,55,53,1
2,note_on,55,0,119
2,note_on,50,53,1
2,note_on,50,0,119
2,note_on,43,53,1
2,note_on,43,0,119
2,note_on,36,74,1
2,note_on,36,0,53
2,note_on,43,56,1
2,note_on,43,0,119
2,note_on,48,56,1
2,note_on,48,0,119
2,note_on,48,53,1
2,note_on,48,0,119
2,note_on,55,66,1
2,note_on,55,0,119
2,note_on,60,53,1
2,note_on,60,0,119
2,note_on,60,53,1
2,note_on,60,0,119
2,note_on,67,53,1
2,note_on,67,0,119
2,note_on,72,72,1
2,note_on,72,0,119
2,note_on,72,53,1
2,note_on,72,0,119
2,note_on,79,53,1
2,note_on,79,0,119
2,note_on,84,53,1
2,note_on,84,0,119
2,note_on,79,67,1
2,note_on,79,0,119
2,note_on,72,53,1
2,note_on,72,0,119
2,note_on,72,53,1
2,note_on,72,0,119
2,note_on,67,53,1
2,note_on,67,0,119
2,note_on,60,69,1
2,note_on,60,0,119
2,note_on,60,52,1
2,note_on,60,0,119
2,note_on,55,52,1
2,note_on,55,0,119
2,note_on,48,52,1
2,note_on,48,0,119
2,note_on,48,61,1
2,note_on,48,0,119
2,note_on,43,50,1
2,note_on,43,0,119
2,note_on,36,50,1
2,note_on,36,0,119
2,note_on,43,50,1
2,note_on,43,0,119
2,note_on,47,59,1
2,note_on,47,0,28
2,note_on,43,50,1
2,note_on,43,0,119
2,note_on,36,50,1
2,note_on,36,0,119
2,note_on,43,50,1
2,note_on,43,0,119
2,note_on,50,56,1
2,note_on,50,0,62
2,note_on,43,49,1
2,note_on,43,0,119
2,note_on,36,49,1
2,note_on,36,0,119
2,note_on,43,49,1
2,note_on,43,0,119
2,note_on,36,74,1
2,note_on,36,0,79
2,note_on,43,56,1
2,note_on,43,0,119
2,note_on,48,56,1
2,note_on,48,0,119
2,note_on,48,53,1
2,note_on,48,0,119
2,note_on,55,66,1
2,note_on,55,0,119
2,note_on,60,53,1
2,note_on,60,0,119
2,note_on,60,53,1
2,note_on,60,0,119
2,note_on,67,53,1
2,note_on,67,0,119
2,note_on,72,72,1
2,note_on,72,0,119
2,note_on,72,53,1
2,note_on,72,0,119
2,note_on,79,53,1
2,note_on,79,0,119
2,note_on,84,53,1
2,note_on,84,0,119
2,note_on,79,67,1
2,note_on,79,0,119
2,note_on,72,53,1
2,note_on,72,0,119
2,note_on,72,53,1
2,note_on,72,0,119
2,note_on,67,53,1
2,note_on,67,0,119
2,note_on,60,69,1
2,note_on,60,0,119
2,note_on,60,52,1
2,note_on,60,0,119
2,note_on,55,52,1
2,note_on,55,0,119
2,note_on,48,52,1
2,note_on,48,0,119
2,note_on,48,61,1
2,note_on,48,0,119
2,note_on,43,50,1
2,note_on,43,0,119
2,note_on,36,50,1
2,note_on,36,0,119
2,note_on,43,50,1
2,note_on,43,0,119
2,note_on,47,59,1
2,note_on,47,0,28
2,note_on,43,50,1
2,note_on,43,0,119
2,note_on,36,50,1
2,note_on,36,0,119
2,note_on,43,50,1
2,note_on,43,0,119
2,note_on,45,56,1
2,note_on,45,0,62
2,note_on,43,49,1
2,note_on,43,0,119
2,note_on,36,49,1
2,note_on,36,0,119
2,note_on,43,49,1
2,note_on,43,0,119
2,note_on,36,74,1
2,note_on,36,0,73
2,note_on,43,56,1
2,note_on,43,0,119
2,note_on,47,56,1
2,note_on,47,0,119
2,note_on,48,53,1
2,note_on,48,0,119
2,note_on,55,66,1
2,note_on,55,0,119
2,note_on,59,53,1
2,note_on,59,0,119
2,note_on,60,53,1
2,note_on,60,0,119
2,note_on,67,53,1
2,note_on,67,0,119
2,note_on,71,72,1
2,note_on,71,0,119
2,note_on,72,53,1
2,note_on,72,0,119
2,note_on,79,53,1
2,note_on,79,0,119
2,note_on,83,53,1
2,note_on,83,0,119
2,note_on,79,67,1
2,note_on,79,0,119
2,note_on,72,53,1
2,note_on,72,0,119
2,note_on,71,53,1
2,note_on,71,0,119
2,note_on,67,53,1
2,note_on,67,0,119
2,note_on,60,69,1
2,note_on,60,0,119
2,note_on,59,52,1
2,note_on,59,0,119
2,note_on,55,52,1
2,note_on,55,0,119
2,note_on,48,52,1
2,note_on,48,0,119
2,note_on,47,61,1
2,note_on,47,0,119
2,note_on,43,50,1
2,note_on,43,0,119
2,note_on,36,50,1
2,note_on,36,0,119
2,note_on,43,50,1
2,note_on,43,0,119
2,note_on,45,59,1
2,note_on,45,0,62
2,note_on,41,50,1
2,note_on,41,0,119
2,note_on,36,50,1
2,note_on,36,0,119
2,note_on,41,50,1
2,note_on,41,0,119
2,note_on,45,56,1
2,note_on,45,0,62
2,note_on,41,49,1
2,note_on,41,0,119
2,note_on,36,49,1
2,note_on,36,0,119
2,note_on,41,49,1
2,note_on,41,0,119
2,note_on,36,69,1
2,note_on,36,0,34
2,note_on,44,55,1
2,note_on,44,0,119
2,note_on,48,55,1
2,note_on,48,0,119
2,note_on,48,55,1
2,note_on,48,0,119
2,note_on,56,63,1
2,note_on,56,0,119
2,note_on,60,53,1
2,note_on,60,0,119
2,note_on,60,53,1
2,note_on,60,0,119
2,note_on,68,53,1
2,note_on,68,0,119
2,note_on,72,67,1
2,note_on,72,0,119
2,note_on,72,53,1
2,note_on,72,0,119
2,note_on,80,53,1
2,note_on,80,0,119
2,note_on,84,53,1
2,note_on,84,0,119
2,note_on,80,67,1
2,note_on,80,0,119
2,note_on,72,53,1
2,note_on,72,0,119
2,note_on,72,53,1
2,note_on,72,0,119
2,note_on,68,53,1
2,note_on,68,0,119
2,note_on,60,69,1
2,note_on,60,0,119
2,note_on,60,52,1
2,note_on,60,0,119
2,note_on,56,52,1
2,note_on,56,0,119
2,note_on,48,52,1
2,note_on,48,0,119
2,note_on,48,61,1
2,note_on,48,0,119
2,note_on,44,50,1
2,note_on,44,0,119
2,note_on,36,50,1
2,note_on,36,0,119
2,note_on,44,50,1
2,note_on,44,0,119
2,note_on,36,59,1
2,note_on,36,0,27
2,note_on,44,50,1
2,note_on,44,0,119
2,note_on,48,50,1
2,note_on,48,0,119
2,note_on,44,50,1
2,note_on,44,0,119
2,note_on,36,56,1
2,note_on,36,0,62
2,note_on,44,49,1
2,note_on,44,0,119
2,note_on,48,49,1
2,note_on,48,0,119
2,note_on,44,49,1
2,note_on,44,0,119
2,note_on,36,74,1
2,note_on,36,0,70
2,note_on,44,56,1
2,note_on,44,0,119
2,note_on,48,56,1
2,note_on,48,0,119
2,note_on,48,53,1
2,note_on,48,0,119
2,note_on,56,66,1
2,note_on,56,0,119
2,note_on,60,53,1
2,note_on,60,0,119
2,note_on,60,53,1
2,note_on,60,0,119
2,note_on,68,53,1
2,note_on,68,0,119
2,note_on,72,72,1
2,note_on,72,0,119
2,note_on,72,53,1
2,note_on,72,0,119
2,note_on,80,53,1
2,note_on,80,0,119
2,note_on,84,53,1
2,note_on,84,0,119
2,note_on,80,67,1
2,note_on,80,0,119
2,note_on,72,53,1
2,note_on,72,0,119
2,note_on,72,53,1
2,note_on,72,0,119
2,note_on,68,53,1
2,note_on,68,0,119
2,note_on,60,69,1
2,note_on,60,0,119
2,note_on,60,52,1
2,note_on,60,0,119
2,note_on,56,52,1
2,note_on,56,0,119
2,note_on,48,52,1
2,note_on,48,0,119
2,note_on,48,72,1
2,note_on,48,0,119
2,note_on,44,50,1
2,note_on,44,0,119
2,note_on,36,50,1
2,note_on,36,0,119
2,note_on,44,50,1
2,note_on,44,0,119
2,note_on,36,69,1
2,note_on,36,0,63
2,note_on,44,50,1
2,note_on,44,0,119
2,note_on,48,50,1
2,note_on,48,0,119
2,note_on,44,50,1
2,note_on,44,0,119
2,note_on,36,71,1
2,note_on,36,0,62
2,note_on,44,49,1
2,note_on,44,0,119
2,note_on,48,49,1
2,note_on,48,0,119
2,note_on,44,49,1
2,note_on,44,0,119
2,note_on,36,101,1
2,note_on,36,0,33
2,note_on,43,57,1
2,note_on,43,0,119
2,note_on,48,57,1
2,note_on,48,0,119
2,note_on,43,57,1
2,note_on,43,0,119
2,note_on,31,96,1
2,note_on,31,0,119
2,note_on,43,55,1
2,note_on,43,0,119
2,note_on,48,55,1
2,note_on,48,0,119
2,note_on,43,55,1
2,note_on,43,0,119
2,note_on,36,104,1
2,note_on,36,0,119
2,note_on,43,54,1
2,note_on,43,0,119
2,note_on,48,57,1
2,note_on,48,0,119
2,note_on,43,60,1
2,note_on,43,0,119
2,note_on,31,97,1
2,note_on,31,0,119
2,note_on,43,59,1
2,note_on,43,0,119
2,note_on,48,59,1
2,note_on,48,0,119
2,note_on,43,59,1
2,note_on,43,0,119
2,note_on,36,107,1
2,note_on,36,0,119
2,note_on,43,65,1
2,note_on,43,0,119
2,note_on,48,65,1
2,note_on,48,0,119
2,note_on,43,64,1
2,note_on,43,0,119
2,note_on,31,104,1
2,note_on,31,0,119
2,note_on,43,58,1
2,note_on,43,0,119
2,note_on,48,58,1
2,note_on,48,0,119
2,note_on,43,58,1
2,note_on,43,0,119
2,note_on,36,113,1
2,note_on,36,0,119
2,note_on,43,57,1
2,note_on,43,0,119
2,note_on,48,57,1
2,note_on,48,0,119
2,note_on,43,57,1
2,note_on,43,0,119
2,note_on,31,108,1
2,note_on,31,0,119
2,note_on,43,57,1
2,note_on,43,0,119
2,note_on,48,57,1
2,note_on,48,0,119
2,note_on,43,57,1
2,note_on,43,0,119
2,note_on,24,97,1
2,note_on,36,111,0
2,note_on,36,0,23
2,note_on,24,0,0
2,note_on,48,70,480
2,note_on,55,77,0
2,note_on,60,82,0
2,note_on,60,0,960
2,note_on,55,0,0
2,note_on,48,0,0
