Track,Message Type,Note,Velocity,Time
1,note_on,59,45,120
1,note_on,65,45,0
1,note_on,65,0,30
1,note_on,59,0,0
1,note_on,69,45,210
1,note_on,62,45,0
1,note_on,62,0,30
1,note_on,69,0,0
1,note_on,59,48,90
1,note_on,59,0,100
1,note_on,59,44,20
1,note_on,59,0,60
1,note_on,60,44,0
1,note_on,60,0,60
1,note_on,69,45,0
1,note_on,65,45,0
1,note_on,59,45,0
1,note_on,59,0,120
1,note_on,65,0,0
1,note_on,69,0,0
1,note_on,57,45,0
1,note_on,57,0,90
1,note_on,59,48,30
1,note_on,59,0,45
1,note_on,65,43,195
1,note_on,69,43,0
1,note_on,60,43,0
1,note_on,60,0,90
1,note_on,69,0,0
1,note_on,65,0,0
1,note_on,59,48,150
1,note_on,59,0,120
1,note_on,60,45,0
1,note_on,60,0,120
1,note_on,72,48,0
1,note_on,69,48,0
1,note_on,62,48,0
1,note_on,62,0,60
1,note_on,64,45,60
1,note_on,64,0,60
1,note_on,69,0,60
1,note_on,72,0,0
1,note_on,66,48,0
1,note_on,66,0,60
1,note_on,66,45,60
1,note_on,66,0,40
1,note_on,67,44,0
1,note_on,67,0,40
1,note_on,66,44,0
1,note_on,66,0,40
1,note_on,64,48,0
1,note_on,72,42,0
1,note_on,69,42,0
1,note_on,64,0,120
1,note_on,62,45,0
1,note_on,62,0,120
1,note_on,69,0,0
1,note_on,72,0,0
1,note_on,60,48,0
1,note_on,60,0,100
1,note_on,62,44,20
1,note_on,62,0,100
1,note_on,72,44,20
1,note_on,69,44,0
1,note_on,64,44,0
1,note_on,64,0,220
1,note_on,69,0,0
1,note_on,72,0,0
1,note_on,64,48,20
1,note_on,64,0,120
1,note_on,66,45,0
1,note_on,66,0,120
1,note_on,68,45,0
1,note_on,59,48,0
1,note_on,68,0,60
1,note_on,69,45,60
1,note_on,69,0,60
1,note_on,59,0,60
1,note_on,66,48,0
1,note_on,66,0,100
1,note_on,66,49,20
1,note_on,66,0,60
1,note_on,68,51,0
1,note_on,68,0,60
1,note_on,66,55,0
1,note_on,62,48,0
1,note_on,62,0,120
1,note_on,66,0,0
1,note_on,60,43,0
1,note_on,64,50,0
1,note_on,64,0,90
1,note_on,60,0,0
1,note_on,66,55,30
1,note_on,62,48,0
1,note_on,62,0,120
1,note_on,66,0,0
1,note_on,62,57,120
1,note_on,66,57,0
1,note_on,69,57,0
1,note_on,69,0,120
1,note_on,66,0,0
1,note_on,62,0,0
1,note_on,68,49,120
1,note_on,64,49,0
1,note_on,64,0,120
1,note_on,68,0,0
1,note_on,66,46,0
1,note_on,69,46,0
1,note_on,69,0,120
1,note_on,66,0,0
1,note_on,64,49,0
1,note_on,68,49,0
1,note_on,68,0,340
1,note_on,64,0,0
1,note_on,66,48,20
1,note_on,69,48,0
1,note_on,69,0,120
1,note_on,66,0,0
1,note_on,68,51,0
1,note_on,71,51,0
1,note_on,71,0,340
1,note_on,68,0,0
1,note_on,69,50,20
1,note_on,72,50,0
1,note_on,72,0,120
1,note_on,69,0,0
1,note_on,64,45,0
1,note_on,68,45,0
1,note_on,68,0,240
1,note_on,64,0,0
1,note_on,76,45,0
1,note_on,79,45,0
1,note_on,79,0,120
1,note_on,76,0,0
1,note_on,74,43,0
1,note_on,77,43,0
1,note_on,77,0,60
1,note_on,74,0,0
1,note_on,76,43,0
1,note_on,79,43,0
1,note_on,79,0,60
1,note_on,76,0,0
1,note_on,74,45,0
1,note_on,77,45,0
1,note_on,77,0,120
1,note_on,74,0,0
1,note_on,72,42,0
1,note_on,76,42,0
1,note_on,76,0,120
1,note_on,72,0,0
1,note_on,74,45,0
1,note_on,70,45,0
1,note_on,70,0,120
1,note_on,74,0,0
1,note_on,69,43,0
1,note_on,72,43,0
1,note_on,72,0,120
1,note_on,69,0,0
1,note_on,70,44,0
1,note_on,74,44,0
1,note_on,74,0,360
1,note_on,70,0,0
1,note_on,69,42,0
1,note_on,72,42,0
1,note_on,72,0,60
1,note_on,69,0,0
1,note_on,70,42,0
1,note_on,74,42,0
1,note_on,74,0,60
1,note_on,70,0,0
1,note_on,72,44,0
1,note_on,69,44,0
1,note_on,69,0,120
1,note_on,72,0,0
1,note_on,70,42,0
1,note_on,67,42,0
1,note_on,67,0,120
1,note_on,70,0,0
1,note_on,65,44,0
1,note_on,69,44,0
1,note_on,69,0,120
1,note_on,65,0,0
1,note_on,64,43,0
1,note_on,67,43,0
1,note_on,67,0,120
1,note_on,64,0,0
1,note_on,65,43,0
1,note_on,69,43,0
1,note_on,69,0,220
1,note_on,65,0,0
1,note_on,69,48,20
1,note_on,76,51,0
1,note_on,79,51,0
1,note_on,79,0,120
1,note_on,76,0,0
1,note_on,74,49,0
1,note_on,77,49,0
1,note_on,77,0,60
1,note_on,74,0,0
1,note_on,76,49,0
1,note_on,79,49,0
1,note_on,79,0,60
1,note_on,76,0,0
1,note_on,74,51,0
1,note_on,77,51,0
1,note_on,77,0,120
1,note_on,74,0,0
1,note_on,72,48,0
1,note_on,76,48,0
1,note_on,76,0,120
1,note_on,72,0,0
1,note_on,69,0,0
1,note_on,65,39,0
1,note_on,70,51,0
1,note_on,74,51,0
1,note_on,74,0,120
1,note_on,70,0,0
1,note_on,69,49,0
1,note_on,72,49,0
1,note_on,72,0,120
1,note_on,69,0,0
1,note_on,70,50,0
1,note_on,74,50,0
1,note_on,65,0,240
1,note_on,64,43,0
1,note_on,74,0,120
1,note_on,70,0,0
1,note_on,69,46,0
1,note_on,72,46,0
1,note_on,72,0,60
1,note_on,69,0,0
1,note_on,70,46,0
1,note_on,74,46,0
1,note_on,74,0,60
1,note_on,70,0,0
1,note_on,72,49,0
1,note_on,69,49,0
1,note_on,69,0,120
1,note_on,72,0,0
1,note_on,70,45,0
1,note_on,67,45,0
1,note_on,67,0,120
1,note_on,70,0,0
1,note_on,64,0,0
1,note_on,65,46,0
1,note_on,69,46,0
1,note_on,69,0,120
1,note_on,65,0,0
1,note_on,64,45,0
1,note_on,67,45,0
1,note_on,67,0,120
1,note_on,64,0,0
1,note_on,65,49,0
1,note_on,69,49,0
1,note_on,69,0,360
1,note_on,67,48,0
1,note_on,67,0,120
1,note_on,69,49,0
1,note_on,65,0,120
1,note_on,64,46,0
1,note_on,64,0,120
1,note_on,62,46,0
1,note_on,69,0,120
1,note_on,67,46,0
1,note_on,67,0,120
1,note_on,69,49,0
1,note_on,69,0,360
1,note_on,71,52,0
1,note_on,71,0,120
1,note_on,74,56,0
1,note_on,74,0,120
1,note_on,71,52,0
1,note_on,71,0,120
1,note_on,69,50,0
1,note_on,69,0,120
1,note_on,71,49,0
1,note_on,71,0,120
1,note_on,64,50,0
1,note_on,64,0,120
1,note_on,67,49,0
1,note_on,67,0,120
1,note_on,62,0,0
1,note_on,62,52,0
1,note_on,69,52,0
1,note_on,69,0,120
1,note_on,67,49,0
1,note_on,67,0,120
1,note_on,69,52,0
1,note_on,69,0,360
1,note_on,71,54,0
1,note_on,71,0,120
1,note_on,74,56,0
1,note_on,74,0,120
1,note_on,71,52,0
1,note_on,71,0,120
1,note_on,69,55,0
1,note_on,69,0,120
1,note_on,71,50,0
1,note_on,71,0,120
1,note_on,69,49,0
1,note_on,69,0,120
1,note_on,65,48,0
1,note_on,65,0,120
1,note_on,62,0,0
1,note_on,64,39,0
1,note_on,60,39,0
1,note_on,57,44,600
1,note_on,57,0,45
1,note_on,59,44,75
1,note_on,59,0,45
1,note_on,60,44,75
1,note_on,60,0,45
1,note_on,62,46,75
1,note_on,62,0,45
1,note_on,64,42,75
1,note_on,64,0,45
1,note_on,66,42,75
1,note_on,66,0,45
1,note_on,68,42,75
1,note_on,68,0,45
1,note_on,60,0,75
1,note_on,64,0,0
1,note_on,62,40,0
1,note_on,64,40,0
1,note_on,57,40,600
1,note_on,57,0,45
1,note_on,59,40,75
1,note_on,59,0,45
1,note_on,60,40,75
1,note_on,60,0,45
1,note_on,62,44,75
1,note_on,62,0,45
1,note_on,64,38,75
1,note_on,64,0,45
1,note_on,66,37,75
1,note_on,66,0,45
1,note_on,68,34,75
1,note_on,68,0,45
1,note_on,64,0,75
1,note_on,62,0,0
1,note_on,57,44,0
1,note_on,57,0,30
1,note_on,59,42,90
1,note_on,59,0,30
1,note_on,65,39,90
1,note_on,69,39,0
1,note_on,60,44,0
1,note_on,60,0,30
1,note_on,69,0,0
1,note_on,65,0,0
1,note_on,62,42,90
1,note_on,62,0,30
1,note_on,59,44,90
1,note_on,59,0,100
1,note_on,59,40,20
1,note_on,59,0,60
1,note_on,60,40,0
1,note_on,60,0,60
1,note_on,69,39,0
1,note_on,65,39,0
1,note_on,59,42,0
1,note_on,59,0,120
1,note_on,65,0,0
1,note_on,69,0,0
1,note_on,57,42,0
1,note_on,57,0,90
1,note_on,59,44,30
1,note_on,59,0,45
1,note_on,65,39,195
1,note_on,69,39,0
1,note_on,60,39,0
1,note_on,60,0,30
1,note_on,69,0,0
1,note_on,65,0,0
1,note_on,59,44,210
1,note_on,59,0,120
1,note_on,60,42,0
1,note_on,60,0,120
1,note_on,72,39,0
1,note_on,69,39,0
1,note_on,62,44,0
1,note_on,62,0,60
1,note_on,64,42,60
1,note_on,64,0,60
1,note_on,69,0,60
1,note_on,72,0,0
1,note_on,66,44,0
1,note_on,66,0,60
1,note_on,66,42,60
1,note_on,66,0,40
1,note_on,67,40,0
1,note_on,67,0,40
1,note_on,66,40,0
1,note_on,66,0,40
1,note_on,72,38,0
1,note_on,69,38,0
1,note_on,64,44,0
1,note_on,64,0,120
1,note_on,62,42,0
1,note_on,62,0,120
1,note_on,69,0,0
1,note_on,72,0,0
1,note_on,60,44,0
1,note_on,60,0,100
1,note_on,62,40,20
1,note_on,62,0,100
1,note_on,64,40,20
1,note_on,72,40,0
1,note_on,69,40,0
1,note_on,69,0,240
1,note_on,72,0,0
1,note_on,64,0,0
1,note_on,69,44,0
1,note_on,69,0,30
1,note_on,71,42,90
1,note_on,71,0,30
1,note_on,65,39,90
1,note_on,62,39,0
1,note_on,72,44,0
1,note_on,72,0,30
1,note_on,62,0,0
1,note_on,65,0,0
1,note_on,74,43,90
1,note_on,74,0,30
1,note_on,71,45,90
1,note_on,71,0,100
1,note_on,71,43,20
1,note_on,71,0,60
1,note_on,72,43,0
1,note_on,72,0,60
1,note_on,62,42,0
1,note_on,65,42,0
1,note_on,71,44,0
1,note_on,71,0,120
1,note_on,65,0,0
1,note_on,62,0,0
1,note_on,69,44,0
1,note_on,69,0,90
1,note_on,71,48,30
1,note_on,71,0,45
1,note_on,65,43,195
1,note_on,62,43,0
1,note_on,72,43,0
1,note_on,72,0,30
1,note_on,62,0,0
1,note_on,65,0,0
1,note_on,71,50,210
1,note_on,71,0,120
1,note_on,72,48,0
1,note_on,72,0,120
1,note_on,72,44,0
1,note_on,69,44,0
1,note_on,74,52,0
1,note_on,74,0,60
1,note_on,76,50,60
1,note_on,76,0,60
1,note_on,69,0,60
1,note_on,72,0,0
1,note_on,78,52,0
1,note_on,78,0,60
1,note_on,78,48,60
1,note_on,78,0,40
1,note_on,79,48,0
1,note_on,79,0,40
1,note_on,78,48,0
1,note_on,78,0,40
1,note_on,76,52,0
1,note_on,76,0,120
1,note_on,74,50,0
1,note_on,74,0,120
1,note_on,72,52,0
1,note_on,72,0,120
1,note_on,74,48,0
1,note_on,74,0,120
1,note_on,76,48,0
1,note_on,69,45,240
1,note_on,72,50,0
1,note_on,72,0,120
1,note_on,69,0,0
1,note_on,74,48,0
1,note_on,74,0,120
1,note_on,76,0,0
1,note_on,67,40,0
1,note_on,71,40,0
1,note_on,76,48,0
1,note_on,76,0,220
1,note_on,71,0,0
1,note_on,67,0,0
1,note_on,66,40,20
1,note_on,69,46,0
1,note_on,69,0,120
1,note_on,71,45,0
1,note_on,71,0,120
1,note_on,66,0,0
1,note_on,65,39,0
1,note_on,68,39,0
1,note_on,72,46,0
1,note_on,68,0,240
1,note_on,65,0,0
1,note_on,64,38,0
1,note_on,67,38,0
1,note_on,72,0,220
1,note_on,67,0,20
1,note_on,64,0,0
1,note_on,68,37,0
1,note_on,63,34,0
1,note_on,66,34,0
1,note_on,66,0,240
1,note_on,63,0,0
1,note_on,65,31,0
1,note_on,62,31,0
1,note_on,62,0,240
1,note_on,65,0,0
1,note_on,68,0,0
1,note_on,64,32,0
1,note_on,61,32,0
1,note_on,61,0,240
1,note_on,60,32,0
1,note_on,60,0,90
1,note_on,59,31,150
1,note_on,59,0,90
1,note_on,62,31,150
1,note_on,58,31,0
1,note_on,58,0,90
1,note_on,62,0,0
1,note_on,64,0,390
1,note_on,60,38,240
1,note_on,64,38,0
1,note_on,69,45,0
1,note_on,69,0,45
1,note_on,64,0,0
1,note_on,60,0,0
1,note_on,59,33,75
1,note_on,62,33,0
1,note_on,64,39,0
1,note_on,64,0,45
1,note_on,62,0,0
1,note_on,59,0,0
1,note_on,59,33,75
1,note_on,62,33,0
1,note_on,64,39,0
1,note_on,64,0,34
1,note_on,62,0,0
1,note_on,59,0,0
1,note_on,60,33,86
1,note_on,64,33,0
1,note_on,69,39,0
1,note_on,69,0,45
1,note_on,64,0,0
1,note_on,60,0,0
1,note_on,60,37,75
1,note_on,64,37,0
1,note_on,69,44,0
1,note_on,69,0,45
1,note_on,64,0,0
1,note_on,60,0,0
1,note_on,64,44,75
1,note_on,59,37,0
1,note_on,62,37,0
1,note_on,62,0,45
1,note_on,59,0,0
1,note_on,64,0,0
1,note_on,59,34,75
1,note_on,64,40,0
1,note_on,62,34,0
1,note_on,62,0,34
1,note_on,64,0,0
1,note_on,59,0,0
1,note_on,60,36,86
1,note_on,64,36,0
1,note_on,69,43,0
1,note_on,69,0,45
1,note_on,64,0,0
1,note_on,60,0,0
1,note_on,62,41,75
1,note_on,67,41,0
1,note_on,71,49,0
1,note_on,71,0,34
1,note_on,67,0,0
1,note_on,62,0,0
1,note_on,81,78,206
1,note_on,69,68,0
1,note_on,69,0,230
1,note_on,81,0,0
1,note_on,60,38,10
1,note_on,64,38,0
1,note_on,69,45,0
1,note_on,69,0,45
1,note_on,64,0,0
1,note_on,60,0,0
1,note_on,59,33,75
1,note_on,62,33,0
1,note_on,64,39,0
1,note_on,64,0,45
1,note_on,62,0,0
1,note_on,59,0,0
1,note_on,59,33,75
1,note_on,62,33,0
1,note_on,64,39,0
1,note_on,64,0,34
1,note_on,62,0,0
1,note_on,59,0,0
1,note_on,60,33,86
1,note_on,64,33,0
1,note_on,69,39,0
1,note_on,69,0,45
1,note_on,64,0,0
1,note_on,60,0,0
1,note_on,64,37,75
1,note_on,69,44,0
1,note_on,60,37,0
1,note_on,60,0,45
1,note_on,69,0,0
1,note_on,64,0,0
1,note_on,62,37,75
1,note_on,59,37,0
1,note_on,64,44,0
1,note_on,64,0,45
1,note_on,59,0,0
1,note_on,62,0,0
1,note_on,59,34,75
1,note_on,64,40,0
1,note_on,62,34,0
1,note_on,62,0,34
1,note_on,64,0,0
1,note_on,59,0,0
1,note_on,60,39,86
1,note_on,64,39,0
1,note_on,69,46,0
1,note_on,69,0,45
1,note_on,64,0,0
1,note_on,60,0,0
1,note_on,62,43,75
1,note_on,67,43,0
1,note_on,71,51,0
1,note_on,71,0,34
1,note_on,67,0,0
1,note_on,62,0,0
1,note_on,84,79,206
1,note_on,72,69,0
1,note_on,72,0,230
1,note_on,84,0,0
1,note_on,64,42,10
1,note_on,67,42,0
1,note_on,72,50,0
1,note_on,72,0,45
1,note_on,67,0,0
1,note_on,64,0,0
1,note_on,62,36,75
1,note_on,65,36,0
1,note_on,67,43,0
1,note_on,67,0,45
1,note_on,65,0,0
1,note_on,62,0,0
1,note_on,62,36,75
1,note_on,65,36,0
1,note_on,67,43,0
1,note_on,67,0,34
1,note_on,65,0,0
1,note_on,62,0,0
1,note_on,72,43,86
1,note_on,64,36,0
1,note_on,67,36,0
1,note_on,67,0,45
1,note_on,64,0,0
1,note_on,72,0,0
1,note_on,64,41,75
1,note_on,67,41,0
1,note_on,72,49,0
1,note_on,72,0,45
1,note_on,67,0,0
1,note_on,64,0,0
1,note_on,62,41,75
1,note_on,65,41,0
1,note_on,67,49,0
1,note_on,67,0,45
1,note_on,65,0,0
1,note_on,62,0,0
1,note_on,62,37,75
1,note_on,67,44,0
1,note_on,65,37,0
1,note_on,65,0,34
1,note_on,67,0,0
1,note_on,62,0,0
1,note_on,64,43,86
1,note_on,67,43,0
1,note_on,72,51,0
1,note_on,72,0,45
1,note_on,67,0,0
1,note_on,64,0,0
1,note_on,65,47,75
1,note_on,70,47,0
1,note_on,74,56,0
1,note_on,74,0,34
1,note_on,70,0,0
1,note_on,65,0,0
1,note_on,84,88,206
1,note_on,72,75,0
1,note_on,72,0,230
1,note_on,84,0,0
1,note_on,64,48,10
1,note_on,67,48,0
1,note_on,72,57,0
1,note_on,72,0,45
1,note_on,67,0,0
1,note_on,64,0,0
1,note_on,62,41,75
1,note_on,65,41,0
1,note_on,67,49,0
1,note_on,67,0,45
1,note_on,65,0,0
1,note_on,62,0,0
1,note_on,67,49,75
1,note_on,65,41,0
1,note_on,62,41,0
1,note_on,62,0,34
1,note_on,65,0,0
1,note_on,67,0,0
1,note_on,64,41,86
1,note_on,67,41,0
1,note_on,72,49,0
1,note_on,72,0,45
1,note_on,67,0,0
1,note_on,64,0,0
1,note_on,64,47,75
1,note_on,67,47,0
1,note_on,72,56,0
1,note_on,72,0,45
1,note_on,67,0,0
1,note_on,64,0,0
1,note_on,62,47,75
1,note_on,65,47,0
1,note_on,67,56,0
1,note_on,67,0,45
1,note_on,65,0,0
1,note_on,62,0,0
1,note_on,62,42,75
1,note_on,67,50,0
1,note_on,65,42,0
1,note_on,65,0,34
1,note_on,67,0,0
1,note_on,62,0,0
1,note_on,64,49,86
1,note_on,67,49,0
1,note_on,72,58,0
1,note_on,72,0,45
1,note_on,67,0,0
1,note_on,64,0,0
1,note_on,65,55,75
1,note_on,70,55,0
1,note_on,74,65,0
1,note_on,74,0,240
1,note_on,70,0,0
1,note_on,65,0,0
1,note_on,75,62,0
1,note_on,70,57,0
1,note_on,75,0,120
1,note_on,74,60,0
1,note_on,74,0,120
1,note_on,75,63,0
1,note_on,75,0,360
1,note_on,74,60,0
1,note_on,74,0,120
1,note_on,75,63,0
1,note_on,75,0,360
1,note_on,74,61,0
1,note_on,74,0,120
1,note_on,75,64,0
1,note_on,70,0,240
1,note_on,75,0,120
1,note_on,74,60,0
1,note_on,74,0,120
1,note_on,75,60,0
1,note_on,75,0,120
1,note_on,79,62,0
1,note_on,79,0,120
1,note_on,67,48,0
1,note_on,74,62,0
1,note_on,67,0,120
1,note_on,69,52,0
1,note_on,69,0,120
1,note_on,67,51,0
1,note_on,67,0,120
1,note_on,64,46,0
1,note_on,64,0,120
1,note_on,67,48,0
1,note_on,67,0,120
1,note_on,69,45,0
1,note_on,69,0,120
1,note_on,67,44,0
1,note_on,67,0,120
1,note_on,64,38,0
1,note_on,64,0,100
1,note_on,74,0,0
1,note_on,74,55,20
1,note_on,69,50,0
1,note_on,74,0,120
1,note_on,72,54,0
1,note_on,72,0,120
1,note_on,74,56,0
1,note_on,74,0,360
1,note_on,72,54,0
1,note_on,72,0,120
1,note_on,74,56,0
1,note_on,74,0,360
1,note_on,72,54,0
1,note_on,72,0,120
1,note_on,74,57,0
1,note_on,69,0,240
1,note_on,70,51,0
1,note_on,74,0,120
1,note_on,72,55,0
1,note_on,72,0,120
1,note_on,74,55,0
1,note_on,74,0,120
1,note_on,77,57,0
1,note_on,77,0,120
1,note_on,70,0,0
1,note_on,65,43,0
1,note_on,70,55,0
1,note_on,65,0,120
1,note_on,63,46,0
1,note_on,63,0,120
1,note_on,62,45,0
1,note_on,62,0,120
1,note_on,63,44,0
1,note_on,63,0,120
1,note_on,65,43,0
1,note_on,65,0,120
1,note_on,63,40,0
1,note_on,63,0,120
1,note_on,62,39,0
1,note_on,62,0,120
1,note_on,63,38,0
1,note_on,63,0,240
1,note_on,62,46,0
1,note_on,62,0,120
1,note_on,60,46,0
1,note_on,60,0,120
1,note_on,63,46,0
1,note_on,70,0,120
1,note_on,69,55,0
1,note_on,63,0,120
1,note_on,62,34,0
1,note_on,62,0,120
1,note_on,60,34,0
1,note_on,60,0,120
1,note_on,63,34,0
1,note_on,63,0,120
1,note_on,60,38,0
1,note_on,67,54,0
1,note_on,69,0,20
1,note_on,60,0,100
1,note_on,58,36,0
1,note_on,58,0,120
1,note_on,57,36,0
1,note_on,57,0,120
1,note_on,60,36,0
1,note_on,65,54,120
1,note_on,67,0,20
1,note_on,60,0,100
1,note_on,58,34,0
1,note_on,58,0,120
1,note_on,57,34,0
1,note_on,57,0,120
1,note_on,60,34,0
1,note_on,60,0,120
1,note_on,58,34,0
1,note_on,58,0,120
1,note_on,62,34,0
1,note_on,62,0,120
1,note_on,65,0,0
1,note_on,65,38,0
1,note_on,67,52,0
1,note_on,65,0,120
1,note_on,62,36,0
1,note_on,62,0,120
1,note_on,67,39,0
1,note_on,70,57,0
1,note_on,67,0,20
1,note_on,67,0,100
1,note_on,65,36,0
1,note_on,65,0,120
1,note_on,70,40,0
1,note_on,74,55,0
1,note_on,70,0,20
1,note_on,70,0,100
1,note_on,67,37,0
1,note_on,67,0,120
1,note_on,74,0,0
1,note_on,63,30,0
1,note_on,70,55,0
1,note_on,63,0,120
1,note_on,62,37,0
1,note_on,62,0,120
1,note_on,60,37,0
1,note_on,60,0,120
1,note_on,63,37,0
1,note_on,69,55,120
1,note_on,70,0,20
1,note_on,63,0,100
1,note_on,62,34,0
1,note_on,62,0,120
1,note_on,60,34,0
1,note_on,60,0,120
1,note_on,63,34,0
1,note_on,63,0,120
1,note_on,60,38,0
1,note_on,67,54,0
1,note_on,69,0,20
1,note_on,60,0,100
1,note_on,58,36,0
1,note_on,58,0,120
1,note_on,57,36,0
1,note_on,57,0,120
1,note_on,60,36,0
1,note_on,65,54,120
1,note_on,67,0,20
1,note_on,60,0,100
1,note_on,58,34,0
1,note_on,58,0,120
1,note_on,57,34,0
1,note_on,57,0,120
1,note_on,60,34,0
1,note_on,60,0,120
1,note_on,58,34,0
1,note_on,58,0,120
1,note_on,62,34,0
1,note_on,62,0,120
1,note_on,65,0,0
1,note_on,65,38,0
1,note_on,67,54,0
1,note_on,65,0,120
1,note_on,62,36,0
1,note_on,62,0,120
1,note_on,67,39,0
1,note_on,70,57,0
1,note_on,67,0,20
1,note_on,67,0,100
1,note_on,65,36,0
1,note_on,65,0,120
1,note_on,74,55,0
1,note_on,70,40,0
1,note_on,70,0,20
1,note_on,70,0,100
1,note_on,67,37,0
1,note_on,67,0,120
1,note_on,70,42,0
1,note_on,76,58,0
1,note_on,74,0,20
1,note_on,70,0,100
1,note_on,67,37,0
1,note_on,67,0,120
1,note_on,72,39,0
1,note_on,77,54,0
1,note_on,76,0,20
1,note_on,72,0,100
1,note_on,69,37,0
1,note_on,69,0,120
1,note_on,77,0,0
1,note_on,70,39,0
1,note_on,74,55,0
1,note_on,70,0,120
1,note_on,67,37,0
1,note_on,67,0,120
1,note_on,70,39,0
1,note_on,70,0,120
1,note_on,67,37,0
1,note_on,67,0,120
1,note_on,74,0,0
1,note_on,70,42,0
1,note_on,72,55,0
1,note_on,70,0,120
1,note_on,67,37,0
1,note_on,67,0,120
1,note_on,70,42,0
1,note_on,74,55,0
1,note_on,72,0,20
1,note_on,70,0,100
1,note_on,67,37,0
1,note_on,67,0,120
1,note_on,79,63,0
1,note_on,74,45,0
1,note_on,74,0,20
1,note_on,74,0,100
1,note_on,70,40,0
1,note_on,70,0,120
1,note_on,79,0,0
1,note_on,76,44,0
1,note_on,81,57,0
1,note_on,76,0,120
1,note_on,72,40,0
1,note_on,72,0,120
1,note_on,81,0,0
1,note_on,76,46,0
1,note_on,81,63,0
1,note_on,76,0,120
1,note_on,72,40,0
1,note_on,72,0,120
1,note_on,81,0,0
1,note_on,72,44,0
1,note_on,76,57,0
1,note_on,72,0,120
1,note_on,69,38,0
1,note_on,69,0,120
1,note_on,76,0,0
1,note_on,72,44,0
1,note_on,76,57,0
1,note_on,72,0,120
1,note_on,69,36,0
1,note_on,69,0,120
1,note_on,72,44,0
1,note_on,72,0,120
1,note_on,69,36,0
1,note_on,69,0,120
1,note_on,76,0,0
1,note_on,70,44,0
1,note_on,76,61,0
1,note_on,70,0,120
1,note_on,67,38,0
1,note_on,67,0,120
1,note_on,72,40,0
1,note_on,77,56,0
1,note_on,76,0,20
1,note_on,72,0,100
1,note_on,69,38,0
1,note_on,69,0,120
1,note_on,77,0,0
1,note_on,70,40,0
1,note_on,74,57,0
1,note_on,70,0,120
1,note_on,67,38,0
1,note_on,67,0,120
1,note_on,70,40,0
1,note_on,70,0,120
1,note_on,67,38,0
1,note_on,67,0,120
1,note_on,74,0,0
1,note_on,70,44,0
1,note_on,72,57,0
1,note_on,70,0,120
1,note_on,67,38,0
1,note_on,67,0,120
1,note_on,70,44,0
1,note_on,74,57,0
1,note_on,72,0,20
1,note_on,70,0,100
1,note_on,67,38,0
1,note_on,67,0,120
1,note_on,74,48,0
1,note_on,79,67,0
1,note_on,74,0,20
1,note_on,74,0,100
1,note_on,70,43,0
1,note_on,70,0,120
1,note_on,79,0,0
1,note_on,76,46,0
1,note_on,81,60,0
1,note_on,76,0,120
1,note_on,72,43,0
1,note_on,72,0,120
1,note_on,81,0,0
1,note_on,76,49,0
1,note_on,81,67,0
1,note_on,76,0,120
1,note_on,72,43,0
1,note_on,72,0,120
1,note_on,81,0,0
1,note_on,72,46,0
1,note_on,76,60,0
1,note_on,72,0,120
1,note_on,69,39,0
1,note_on,69,0,120
1,note_on,76,0,0
1,note_on,72,46,0
1,note_on,76,60,0
1,note_on,72,0,120
1,note_on,69,37,0
1,note_on,69,0,120
1,note_on,76,0,0
1,note_on,82,70,0
1,note_on,77,52,0
1,note_on,77,0,120
1,note_on,74,44,0
1,note_on,74,0,120
1,note_on,82,0,0
1,note_on,77,58,0
1,note_on,82,76,0
1,note_on,77,0,120
1,note_on,74,40,0
1,note_on,74,0,120
1,note_on,82,0,0
1,note_on,79,58,0
1,note_on,84,70,0
1,note_on,79,0,120
1,note_on,76,40,0
1,note_on,76,0,120
1,note_on,84,0,0
1,note_on,79,58,0
1,note_on,84,78,0
1,note_on,79,0,120
1,note_on,76,40,0
1,note_on,76,0,120
1,note_on,84,0,0
1,note_on,76,58,0
1,note_on,81,70,0
1,note_on,76,0,120
1,note_on,72,40,0
1,note_on,72,0,120
1,note_on,81,0,0
1,note_on,76,58,0
1,note_on,81,76,0
1,note_on,76,0,120
1,note_on,72,40,0
1,note_on,72,0,120
1,note_on,81,0,0
1,note_on,81,58,0
1,note_on,84,79,0
1,note_on,81,0,120
1,note_on,76,40,0
1,note_on,76,0,120
1,note_on,84,0,0
1,note_on,82,78,0
1,note_on,86,78,0
1,note_on,82,0,120
1,note_on,76,44,0
1,note_on,76,0,120
1,note_on,86,0,0
1,note_on,82,76,0
1,note_on,86,76,0
1,note_on,82,0,120
1,note_on,77,44,0
1,note_on,77,0,120
1,note_on,86,0,0
1,note_on,82,66,0
1,note_on,86,66,0
1,note_on,86,0,120
1,note_on,82,0,0
1,note_on,74,51,0
1,note_on,74,0,120
1,note_on,82,65,0
1,note_on,86,65,0
1,note_on,86,0,120
1,note_on,82,0,0
1,note_on,74,51,0
1,note_on,74,0,120
1,note_on,82,63,0
1,note_on,86,63,0
1,note_on,86,0,120
1,note_on,82,0,0
1,note_on,72,50,0
1,note_on,72,0,120
1,note_on,82,60,0
1,note_on,86,60,0
1,note_on,86,0,120
1,note_on,82,0,0
1,note_on,74,52,0
1,note_on,74,0,120
1,note_on,82,60,0
1,note_on,86,60,0
1,note_on,86,0,120
1,note_on,82,0,0
1,note_on,79,53,0
1,note_on,79,0,120
1,note_on,82,60,0
1,note_on,86,60,0
1,note_on,86,0,120
1,note_on,82,0,0
1,note_on,81,52,0
1,note_on,81,0,120
1,note_on,82,59,0
1,note_on,86,59,0
1,note_on,86,0,120
1,note_on,82,0,0
1,note_on,81,45,0
1,note_on,81,0,120
1,note_on,82,57,0
1,note_on,86,57,0
1,note_on,86,0,120
1,note_on,82,0,0
1,note_on,76,43,0
1,note_on,76,0,120
1,note_on,82,49,0
1,note_on,86,49,0
1,note_on,86,0,120
1,note_on,82,0,0
1,note_on,76,39,0
1,note_on,76,0,120
1,note_on,82,47,0
1,note_on,86,47,0
1,note_on,86,0,120
1,note_on,82,0,0
1,note_on,76,38,0
1,note_on,76,0,120
1,note_on,82,50,0
1,note_on,86,69,0
1,note_on,82,0,120
1,note_on,76,34,0
1,note_on,76,0,120
1,note_on,86,0,0
1,note_on,82,49,0
1,note_on,86,67,0
1,note_on,82,0,120
1,note_on,77,34,0
1,note_on,77,0,120
1,note_on,86,0,0
1,note_on,82,58,0
1,note_on,86,58,0
1,note_on,86,0,120
1,note_on,82,0,0
1,note_on,74,37,0
1,note_on,74,0,120
1,note_on,82,57,0
1,note_on,86,57,0
1,note_on,86,0,120
1,note_on,82,0,0
1,note_on,74,37,0
1,note_on,74,0,120
1,note_on,82,51,0
1,note_on,86,51,0
1,note_on,86,0,120
1,note_on,82,0,0
1,note_on,72,35,0
1,note_on,72,0,120
1,note_on,82,48,0
1,note_on,86,48,0
1,note_on,86,0,120
1,note_on,82,0,0
1,note_on,74,33,0
1,note_on,74,0,100
1,note_on,83,44,20
1,note_on,88,44,0
1,note_on,88,0,120
1,note_on,83,0,0
1,note_on,76,38,0
1,note_on,76,0,120
1,note_on,71,38,0
1,note_on,76,38,0
1,note_on,76,0,120
1,note_on,71,0,0
1,note_on,64,38,0
1,note_on,64,0,120
1,note_on,76,45,0
1,note_on,69,45,0
1,note_on,69,0,120
1,note_on,76,0,0
1,note_on,64,42,0
1,note_on,64,0,120
1,note_on,57,45,0
1,note_on,64,45,0
1,note_on,64,0,120
1,note_on,57,0,0
1,note_on,52,42,0
1,note_on,52,0,120
1,note_on,59,47,0
1,note_on,64,47,0
1,note_on,64,0,120
1,note_on,59,0,0
1,note_on,52,45,0
1,note_on,52,0,120
1,note_on,59,48,0
1,note_on,64,48,0
1,note_on,64,0,120
1,note_on,59,0,0
1,note_on,52,46,0
1,note_on,52,0,120
1,note_on,60,50,0
1,note_on,64,50,0
1,note_on,64,0,120
1,note_on,60,0,0
1,note_on,52,47,0
1,note_on,52,0,120
1,note_on,60,50,0
1,note_on,64,50,0
1,note_on,64,0,120
1,note_on,60,0,0
1,note_on,52,48,0
1,note_on,52,0,120
1,note_on,64,49,0
1,note_on,62,49,0
1,note_on,62,0,120
1,note_on,64,0,0
1,note_on,52,47,0
1,note_on,52,0,120
1,note_on,60,49,0
1,note_on,64,49,0
1,note_on,64,0,120
1,note_on,60,0,0
1,note_on,52,47,0
1,note_on,52,0,120
1,note_on,59,41,0
1,note_on,62,41,0
1,note_on,65,41,0
1,note_on,65,0,240
1,note_on,69,39,0
1,note_on,69,0,240
1,note_on,62,0,0
1,note_on,59,0,0
1,note_on,83,44,0
1,note_on,88,44,0
1,note_on,88,0,120
1,note_on,83,0,0
1,note_on,76,38,0
1,note_on,76,0,120
1,note_on,71,38,0
1,note_on,76,38,0
1,note_on,76,0,120
1,note_on,71,0,0
1,note_on,64,38,0
1,note_on,64,0,120
1,note_on,69,45,0
1,note_on,76,45,0
1,note_on,76,0,120
1,note_on,69,0,0
1,note_on,64,42,0
1,note_on,64,0,120
1,note_on,64,45,0
1,note_on,57,45,0
1,note_on,57,0,120
1,note_on,64,0,0
1,note_on,52,42,0
1,note_on,52,0,120
1,note_on,59,46,0
1,note_on,64,46,0
1,note_on,64,0,120
1,note_on,59,0,0
1,note_on,52,43,0
1,note_on,52,0,120
1,note_on,59,46,0
1,note_on,64,46,0
1,note_on,64,0,120
1,note_on,59,0,0
1,note_on,52,43,0
1,note_on,52,0,120
1,note_on,60,45,0
1,note_on,64,45,0
1,note_on,64,0,120
1,note_on,60,0,0
1,note_on,52,41,0
1,note_on,52,0,120
1,note_on,60,44,0
1,note_on,64,44,0
1,note_on,64,0,120
1,note_on,60,0,0
1,note_on,52,41,0
1,note_on,52,0,120
1,note_on,62,41,0
1,note_on,64,41,0
1,note_on,64,0,120
1,note_on,62,0,0
1,note_on,52,39,0
1,note_on,52,0,120
1,note_on,64,40,0
1,note_on,62,40,0
1,note_on,62,0,120
1,note_on,64,0,0
1,note_on,52,38,0
1,note_on,52,0,120
1,note_on,64,39,0
1,note_on,64,0,120
1,note_on,52,34,0
1,note_on,52,0,120
1,note_on,64,36,0
1,note_on,64,0,120
1,note_on,52,32,0
1,note_on,52,0,120
1,note_on,69,44,0
1,note_on,60,37,4
1,note_on,64,37,0
1,note_on,69,0,26
1,note_on,64,0,4
1,note_on,60,0,0
1,note_on,71,42,86
1,note_on,71,0,30
1,note_on,72,44,90
1,note_on,72,0,30
1,note_on,74,43,90
1,note_on,74,0,30
1,note_on,71,44,90
1,note_on,71,0,100
1,note_on,71,39,20
1,note_on,71,0,60
1,note_on,72,39,0
1,note_on,72,0,60
1,note_on,71,44,0
1,note_on,71,0,120
1,note_on,69,44,0
1,note_on,69,0,90
1,note_on,60,34,30
1,note_on,64,34,0
1,note_on,71,48,0
1,note_on,71,0,45
1,note_on,64,0,45
1,note_on,60,0,0
1,note_on,72,43,150
1,note_on,72,0,90
1,note_on,71,45,150
1,note_on,64,37,0
1,note_on,60,37,0
1,note_on,71,0,120
1,note_on,72,43,0
1,note_on,72,0,120
1,note_on,60,0,0
1,note_on,64,0,0
1,note_on,74,45,0
1,note_on,74,0,60
1,note_on,76,43,60
1,note_on,76,0,60
1,note_on,78,45,60
1,note_on,78,0,60
1,note_on,78,43,60
1,note_on,78,0,40
1,note_on,79,41,0
1,note_on,79,0,40
1,note_on,78,41,0
1,note_on,78,0,40
1,note_on,76,45,0
1,note_on,76,0,120
1,note_on,74,43,0
1,note_on,74,0,120
1,note_on,72,45,0
1,note_on,72,0,120
1,note_on,74,41,0
1,note_on,74,0,120
1,note_on,76,41,0
1,note_on,76,0,240
1,note_on,74,37,0
1,note_on,81,44,0
1,note_on,81,0,30
1,note_on,83,42,90
1,note_on,83,0,30
1,note_on,84,44,90
1,note_on,84,0,30
1,note_on,86,43,90
1,note_on,86,0,30
1,note_on,83,44,90
1,note_on,83,0,100
1,note_on,83,39,20
1,note_on,83,0,60
1,note_on,84,39,0
1,note_on,84,0,60
1,note_on,83,44,0
1,note_on,83,0,120
1,note_on,81,44,0
1,note_on,81,0,90
1,note_on,83,48,30
1,note_on,83,0,45
1,note_on,84,43,195
1,note_on,84,0,90
1,note_on,74,0,150
1,note_on,74,37,0
1,note_on,83,45,0
1,note_on,83,0,120
1,note_on,84,43,0
1,note_on,84,0,120
1,note_on,86,45,0
1,note_on,86,0,60
1,note_on,88,43,60
1,note_on,88,0,60
1,note_on,90,45,60
1,note_on,90,0,60
1,note_on,90,43,60
1,note_on,90,0,40
1,note_on,91,41,0
1,note_on,91,0,40
1,note_on,90,41,0
1,note_on,90,0,40
1,note_on,88,45,0
1,note_on,88,0,120
1,note_on,86,43,0
1,note_on,86,0,120
1,note_on,84,45,0
1,note_on,84,0,120
1,note_on,86,41,0
1,note_on,86,0,120
1,note_on,88,41,0
1,note_on,74,0,240
1,note_on,74,30,0
1,note_on,79,30,0
1,note_on,83,30,0
1,note_on,88,0,120
1,note_on,86,42,0
1,note_on,86,0,60
1,note_on,83,41,60
1,note_on,83,0,60
1,note_on,81,41,60
1,note_on,81,0,60
1,note_on,83,0,60
1,note_on,79,0,0
1,note_on,74,0,0
1,note_on,83,44,0
1,note_on,83,0,60
1,note_on,79,41,60
1,note_on,79,0,60
1,note_on,76,41,60
1,note_on,76,0,60
1,note_on,74,41,60
1,note_on,74,0,60
1,note_on,72,46,60
1,note_on,67,31,0
1,note_on,76,31,0
1,note_on,72,0,240
1,note_on,69,38,0
1,note_on,69,0,240
1,note_on,67,0,0
1,note_on,71,30,0
1,note_on,67,30,0
1,note_on,62,30,0
1,note_on,76,0,120
1,note_on,74,42,0
1,note_on,74,0,60
1,note_on,71,41,60
1,note_on,71,0,60
1,note_on,69,41,60
1,note_on,69,0,60
1,note_on,62,0,60
1,note_on,67,0,0
1,note_on,71,0,0
1,note_on,71,44,0
1,note_on,71,0,60
1,note_on,67,41,60
1,note_on,67,0,60
1,note_on,64,41,60
1,note_on,64,0,60
1,note_on,62,41,60
1,note_on,62,0,60
1,note_on,64,30,60
1,note_on,60,44,0
1,note_on,60,0,240
1,note_on,57,38,0
1,note_on,57,0,240
1,note_on,55,35,0
1,note_on,64,0,120
1,note_on,66,40,0
1,note_on,66,0,120
1,note_on,67,40,0
1,note_on,67,0,60
1,note_on,69,40,60
1,note_on,69,0,60
1,note_on,64,43,60
1,note_on,64,0,100
1,note_on,64,39,20
1,note_on,64,0,60
1,note_on,66,39,0
1,note_on,66,0,60
1,note_on,64,43,0
1,note_on,64,0,120
1,note_on,62,39,0
1,note_on,62,0,90
1,note_on,64,44,30
1,note_on,64,0,75
1,note_on,67,44,165
1,note_on,67,0,75
1,note_on,55,0,165
1,note_on,71,44,0
1,note_on,62,44,0
1,note_on,67,44,0
1,note_on,67,0,75
1,note_on,62,0,0
1,note_on,71,0,0
1,note_on,60,41,165
1,note_on,64,41,0
1,note_on,69,41,0
1,note_on,69,0,75
1,note_on,64,0,0
1,note_on,60,0,0
1,note_on,69,77,1125
1,note_on,81,77,0
1,note_on,81,0,120
1,note_on,79,70,0
1,note_on,79,0,60
1,note_on,77,70,0
1,note_on,77,0,60
1,note_on,76,70,0
1,note_on,76,0,60
1,note_on,74,70,0
1,note_on,74,0,60
1,note_on,72,70,0
1,note_on,72,0,60
1,note_on,71,70,0
1,note_on,71,0,60
1,note_on,69,0,0
1,note_on,69,77,0
1,note_on,72,65,600
1,note_on,69,0,10
1,note_on,72,0,90
1,note_on,71,68,20
1,note_on,74,65,120
1,note_on,71,0,10
1,note_on,74,0,90
1,note_on,65,58,20
1,note_on,72,68,0
1,note_on,76,65,120
1,note_on,72,0,10
1,note_on,76,0,90
1,note_on,74,67,20
1,note_on,77,68,120
1,note_on,74,0,10
1,note_on,77,0,90
1,note_on,76,71,20
1,note_on,72,61,120
1,note_on,76,0,10
1,note_on,71,59,110
1,note_on,72,0,10
1,note_on,67,55,110
1,note_on,71,0,10
1,note_on,67,0,110
1,note_on,65,0,0
1,note_on,65,55,0
1,note_on,62,55,0
1,note_on,62,0,240
1,note_on,65,0,0
1,note_on,64,55,0
1,note_on,67,55,0
1,note_on,67,0,210
1,note_on,64,0,0
1,note_on,69,77,30
1,note_on,81,77,0
1,note_on,81,0,120
1,note_on,79,70,0
1,note_on,79,0,60
1,note_on,77,70,0
1,note_on,77,0,60
1,note_on,76,70,0
1,note_on,76,0,60
1,note_on,74,70,0
1,note_on,74,0,60
1,note_on,72,70,0
1,note_on,72,0,60
1,note_on,71,70,0
1,note_on,71,0,60
1,note_on,69,0,0
1,note_on,69,77,0
1,note_on,72,65,600
1,note_on,69,0,10
1,note_on,72,0,90
1,note_on,71,68,20
1,note_on,74,65,120
1,note_on,71,0,10
1,note_on,74,0,90
1,note_on,65,58,20
1,note_on,72,68,0
1,note_on,76,65,120
1,note_on,72,0,10
1,note_on,76,0,90
1,note_on,74,67,20
1,note_on,77,68,120
1,note_on,74,0,10
1,note_on,77,0,90
1,note_on,76,71,20
1,note_on,72,59,120
1,note_on,76,0,10
1,note_on,71,59,110
1,note_on,72,0,10
1,note_on,67,57,110
1,note_on,71,0,10
1,note_on,67,0,110
1,note_on,65,0,0
1,note_on,65,55,0
1,note_on,62,55,0
1,note_on,62,0,240
1,note_on,65,0,0
1,note_on,69,55,0
1,note_on,65,55,0
1,note_on,65,0,210
1,note_on,69,0,0
1,note_on,67,77,30
1,note_on,79,79,0
1,note_on,79,0,120
1,note_on,77,70,0
1,note_on,77,0,60
1,note_on,75,70,0
1,note_on,75,0,60
1,note_on,74,70,0
1,note_on,74,0,60
1,note_on,72,70,0
1,note_on,72,0,60
1,note_on,70,70,0
1,note_on,70,0,60
1,note_on,69,70,0
1,note_on,69,0,60
1,note_on,67,0,0
1,note_on,67,77,0
1,note_on,70,65,600
1,note_on,67,0,10
1,note_on,70,0,90
1,note_on,69,68,20
1,note_on,72,65,120
1,note_on,69,0,10
1,note_on,72,0,90
1,note_on,63,58,20
1,note_on,70,68,0
1,note_on,74,65,120
1,note_on,70,0,10
1,note_on,74,0,90
1,note_on,72,67,20
1,note_on,75,68,120
1,note_on,72,0,10
1,note_on,75,0,90
1,note_on,74,71,20
1,note_on,70,58,120
1,note_on,74,0,10
1,note_on,69,59,110
1,note_on,70,0,10
1,note_on,65,55,110
1,note_on,69,0,10
1,note_on,65,0,110
1,note_on,63,0,0
1,note_on,60,55,0
1,note_on,63,55,0
1,note_on,63,0,240
1,note_on,60,0,0
1,note_on,65,55,0
1,note_on,62,55,0
1,note_on,62,0,210
1,note_on,65,0,0
1,note_on,67,77,30
1,note_on,79,79,0
1,note_on,79,0,120
1,note_on,77,70,0
1,note_on,77,0,60
1,note_on,75,70,0
1,note_on,75,0,60
1,note_on,74,70,0
1,note_on,74,0,60
1,note_on,72,70,0
1,note_on,72,0,60
1,note_on,70,70,0
1,note_on,70,0,60
1,note_on,69,70,0
1,note_on,69,0,60
1,note_on,67,0,0
1,note_on,67,77,0
1,note_on,70,65,600
1,note_on,67,0,10
1,note_on,70,0,90
1,note_on,69,68,20
1,note_on,72,65,120
1,note_on,69,0,10
1,note_on,72,0,90
1,note_on,63,58,20
1,note_on,70,68,0
1,note_on,74,65,120
1,note_on,70,0,10
1,note_on,74,0,90
1,note_on,72,67,20
1,note_on,75,68,120
1,note_on,72,0,10
1,note_on,75,0,90
1,note_on,74,71,20
1,note_on,70,58,120
1,note_on,74,0,10
1,note_on,69,63,110
1,note_on,70,0,10
1,note_on,65,54,110
1,note_on,69,0,10
1,note_on,65,0,110
1,note_on,63,0,0
1,note_on,60,55,0
1,note_on,63,55,0
1,note_on,63,0,240
1,note_on,60,0,0
1,note_on,67,55,0
1,note_on,63,40,0
1,note_on,63,0,180
1,note_on,67,0,0
1,note_on,66,48,60
1,note_on,62,48,0
1,note_on,62,0,360
1,note_on,66,0,0
1,note_on,60,34,0
1,note_on,63,34,0
1,note_on,67,42,0
1,note_on,67,0,90
1,note_on,63,0,0
1,note_on,60,0,0
1,note_on,66,48,30
1,note_on,62,48,0
1,note_on,62,0,360
1,note_on,66,0,0
1,note_on,60,34,0
1,note_on,63,34,0
1,note_on,67,42,0
1,note_on,67,0,90
1,note_on,63,0,0
1,note_on,60,0,0
1,note_on,62,47,30
1,note_on,66,47,0
1,note_on,66,0,240
1,note_on,62,0,0
1,note_on,60,38,0
1,note_on,63,38,0
1,note_on,69,50,0
1,note_on,69,0,240
1,note_on,63,0,0
1,note_on,60,0,0
1,note_on,58,45,0
1,note_on,62,45,0
1,note_on,67,55,0
1,note_on,67,0,240
1,note_on,62,0,0
1,note_on,58,0,0
1,note_on,57,43,0
1,note_on,62,43,0
1,note_on,66,43,0
1,note_on,66,0,120
1,note_on,62,0,0
1,note_on,57,0,0
1,note_on,67,46,0
1,note_on,67,0,120
1,note_on,64,45,0
1,note_on,55,45,0
1,note_on,62,45,0
1,note_on,64,0,480
1,note_on,62,0,120
1,note_on,61,44,0
1,note_on,61,0,120
1,note_on,59,44,0
1,note_on,59,0,120
1,note_on,61,44,0
1,note_on,61,0,120
1,note_on,55,0,0
1,note_on,66,44,0
1,note_on,57,44,0
1,note_on,62,44,0
1,note_on,62,0,240
1,note_on,57,0,0
1,note_on,66,0,0
1,note_on,60,51,0
1,note_on,69,51,0
1,note_on,69,0,240
1,note_on,60,0,0
1,note_on,64,48,0
1,note_on,66,48,0
1,note_on,72,48,0
1,note_on,72,0,480
1,note_on,66,0,0
1,note_on,64,0,0
1,note_on,62,46,0
1,note_on,67,46,0
1,note_on,71,46,0
1,note_on,71,0,240
1,note_on,67,0,0
1,note_on,62,0,0
1,note_on,66,49,0
1,note_on,71,49,0
1,note_on,74,49,0
1,note_on,74,0,240
1,note_on,71,0,0
1,note_on,66,0,0
1,note_on,71,52,0
1,note_on,69,52,0
1,note_on,78,52,0
1,note_on,78,0,480
1,note_on,69,0,0
1,note_on,71,0,0
1,note_on,67,49,0
1,note_on,76,49,0
1,note_on,71,42,0
1,note_on,76,0,240
1,note_on,67,0,0
1,note_on,74,49,0
1,note_on,66,49,0
1,note_on,66,0,240
1,note_on,74,0,0
1,note_on,71,0,0
1,note_on,64,46,0
1,note_on,67,46,0
1,note_on,71,46,0
1,note_on,64,0,120
1,note_on,62,45,0
1,note_on,62,0,120
1,note_on,71,0,0
1,note_on,67,0,0
1,note_on,61,43,0
1,note_on,64,43,0
1,note_on,67,43,0
1,note_on,61,0,120
1,note_on,59,42,0
1,note_on,59,0,120
1,note_on,67,0,0
1,note_on,64,0,0
1,note_on,66,48,0
1,note_on,62,48,0
1,note_on,62,0,360
1,note_on,66,0,0
1,note_on,60,34,0
1,note_on,63,34,0
1,note_on,67,42,0
1,note_on,67,0,90
1,note_on,63,0,0
1,note_on,60,0,0
1,note_on,66,48,30
1,note_on,62,48,0
1,note_on,62,0,360
1,note_on,66,0,0
1,note_on,60,34,0
1,note_on,63,34,0
1,note_on,67,42,0
1,note_on,67,0,90
1,note_on,63,0,0
1,note_on,60,0,0
1,note_on,62,47,30
1,note_on,66,47,0
1,note_on,66,0,240
1,note_on,62,0,0
1,note_on,60,38,0
1,note_on,63,38,0
1,note_on,69,50,0
1,note_on,69,0,240
1,note_on,63,0,0
1,note_on,60,0,0
1,note_on,62,45,0
1,note_on,67,55,0
1,note_on,59,45,0
1,note_on,59,0,240
1,note_on,67,0,0
1,note_on,62,0,0
1,note_on,62,43,0
1,note_on,57,43,0
1,note_on,66,43,0
1,note_on,66,0,120
1,note_on,57,0,0
1,note_on,62,0,0
1,note_on,67,46,0
1,note_on,67,0,120
1,note_on,62,45,0
1,note_on,55,45,0
1,note_on,64,45,0
1,note_on,64,0,210
1,note_on,55,0,0
1,note_on,62,0,0
1,note_on,64,46,30
1,note_on,67,46,0
1,note_on,71,46,0
1,note_on,71,0,240
1,note_on,67,0,0
1,note_on,64,0,0
1,note_on,61,50,0
1,note_on,66,50,0
1,note_on,69,50,0
1,note_on,69,0,240
1,note_on,66,0,0
1,note_on,61,0,0
1,note_on,59,52,0
1,note_on,64,52,0
1,note_on,67,52,0
1,note_on,67,0,240
1,note_on,64,0,0
1,note_on,59,0,0
1,note_on,61,52,0
1,note_on,58,52,0
1,note_on,66,52,0
1,note_on,66,0,210
1,note_on,58,0,0
1,note_on,61,0,0
1,note_on,66,52,30
1,note_on,71,52,0
1,note_on,74,52,0
1,note_on,74,0,240
1,note_on,71,0,0
1,note_on,66,0,0
1,note_on,64,54,0
1,note_on,67,54,0
1,note_on,73,54,0
1,note_on,73,0,240
1,note_on,67,0,0
1,note_on,64,0,0
1,note_on,66,56,0
1,note_on,62,56,0
1,note_on,71,56,0
1,note_on,71,0,240
1,note_on,62,0,0
1,note_on,66,0,0
1,note_on,64,60,0
1,note_on,67,60,0
1,note_on,69,60,0
1,note_on,69,0,240
1,note_on,81,66,0
1,note_on,81,0,180
1,note_on,67,0,60
1,note_on,64,0,0
1,note_on,74,48,0
1,note_on,78,48,0
1,note_on,81,48,0
1,note_on,78,0,360
1,note_on,74,0,0
1,note_on,75,34,0
1,note_on,79,42,0
1,note_on,79,0,60
1,note_on,75,0,0
1,note_on,78,48,60
1,note_on,74,48,0
1,note_on,74,0,360
1,note_on,78,0,0
1,note_on,75,34,0
1,note_on,79,42,0
1,note_on,79,0,60
1,note_on,75,0,0
1,note_on,74,47,60
1,note_on,78,47,0
1,note_on,78,0,210
1,note_on,74,0,0
1,note_on,81,0,0
1,note_on,72,49,30
1,note_on,75,49,0
1,note_on,81,49,0
1,note_on,81,0,240
1,note_on,75,0,0
1,note_on,72,0,0
1,note_on,70,49,0
1,note_on,74,49,0
1,note_on,79,49,0
1,note_on,79,0,240
1,note_on,74,0,0
1,note_on,70,0,0
1,note_on,78,40,0
1,note_on,74,40,0
1,note_on,69,40,0
1,note_on,69,0,120
1,note_on,74,0,0
1,note_on,78,0,0
1,note_on,79,43,0
1,note_on,79,0,120
1,note_on,74,38,0
1,note_on,67,38,0
1,note_on,76,38,0
1,note_on,76,0,480
1,note_on,67,0,0
1,note_on,74,0,0
1,note_on,79,42,0
1,note_on,76,42,0
1,note_on,70,42,0
1,note_on,70,0,480
1,note_on,76,0,0
1,note_on,79,0,0
1,note_on,78,44,0
1,note_on,69,44,0
1,note_on,74,44,0
1,note_on,74,0,240
1,note_on,78,0,0
1,note_on,81,54,0
1,note_on,81,0,240
1,note_on,69,0,0
1,note_on,72,47,0
1,note_on,78,47,0
1,note_on,84,47,0
1,note_on,84,0,480
1,note_on,78,0,0
1,note_on,72,0,0
1,note_on,67,52,0
1,note_on,71,52,0
1,note_on,71,0,240
1,note_on,74,50,0
1,note_on,74,0,240
1,note_on,78,55,0
1,note_on,78,0,480
1,note_on,76,49,0
1,note_on,76,0,240
1,note_on,74,46,0
1,note_on,74,0,240
1,note_on,67,0,0
1,note_on,67,43,0
1,note_on,71,43,0
1,note_on,71,0,240
1,note_on,67,0,0
1,note_on,64,38,0
1,note_on,67,38,0
1,note_on,67,0,240
1,note_on,64,0,0
1,note_on,62,36,0
1,note_on,59,36,0
1,note_on,66,36,0
1,note_on,66,0,480
1,note_on,59,0,0
1,note_on,62,0,0
1,note_on,56,38,0
1,note_on,61,38,0
1,note_on,64,38,0
1,note_on,64,0,240
1,note_on,61,0,0
1,note_on,56,0,0
1,note_on,54,36,0
1,note_on,59,36,0
1,note_on,62,36,0
1,note_on,62,0,240
1,note_on,59,0,0
1,note_on,54,0,0
1,note_on,53,38,0
1,note_on,59,38,0
1,note_on,61,38,0
1,note_on,61,0,240
1,note_on,59,0,0
1,note_on,53,0,0
1,note_on,59,36,0
1,note_on,61,36,0
1,note_on,68,36,0
1,note_on,61,0,240
1,note_on,62,36,0
1,note_on,68,0,240
1,note_on,66,33,0
1,note_on,66,0,80
1,note_on,68,37,0
1,note_on,68,0,80
1,note_on,69,41,0
1,note_on,69,0,80
1,note_on,66,43,0
1,note_on,66,0,240
1,note_on,64,40,0
1,note_on,64,0,480
1,note_on,66,45,0
1,note_on,66,0,220
1,note_on,62,0,20
1,note_on,59,0,0
1,note_on,68,39,0
1,note_on,78,39,0
1,note_on,74,39,0
1,note_on,74,0,480
1,note_on,78,0,0
1,note_on,73,38,0
1,note_on,76,38,0
1,note_on,76,0,240
1,note_on,73,0,0
1,note_on,74,36,0
1,note_on,71,36,0
1,note_on,71,0,240
1,note_on,74,0,0
1,note_on,68,0,0
1,note_on,68,38,0
1,note_on,71,38,0
1,note_on,73,38,0
1,note_on,73,0,240
1,note_on,71,0,0
1,note_on,68,0,0
1,note_on,71,44,0
1,note_on,73,44,0
1,note_on,80,44,0
1,note_on,73,0,240
1,note_on,74,43,0
1,note_on,80,0,240
1,note_on,78,38,0
1,note_on,78,0,240
1,note_on,80,39,0
1,note_on,80,0,240
1,note_on,81,36,0
1,note_on,81,0,240
1,note_on,78,38,0
1,note_on,78,0,240
1,note_on,80,35,0
1,note_on,80,0,240
1,note_on,74,0,0
1,note_on,71,0,0
1,note_on,51,35,0
1,note_on,58,35,0
1,note_on,55,35,0
1,note_on,55,0,388
1,note_on,58,0,0
1,note_on,51,0,0
1,note_on,70,32,2
1,note_on,75,34,30
1,note_on,79,35,30
1,note_on,82,41,30
1,note_on,82,0,480
1,note_on,70,0,0
1,note_on,75,0,0
1,note_on,79,0,0
1,note_on,51,38,0
1,note_on,55,38,0
1,note_on,58,38,0
1,note_on,58,0,868
1,note_on,55,0,0
1,note_on,51,0,0
1,note_on,70,32,2
1,note_on,75,33,30
1,note_on,79,35,30
1,note_on,82,40,30
1,note_on,82,0,480
1,note_on,70,0,0
1,note_on,75,0,0
1,note_on,79,0,0
1,note_on,51,40,0
1,note_on,55,40,0
1,note_on,58,40,0
1,note_on,58,0,120
1,note_on,60,42,0
1,note_on,60,0,120
1,note_on,55,0,0
1,note_on,51,0,0
1,note_on,62,44,0
1,note_on,62,0,120
1,note_on,63,43,0
1,note_on,63,0,120
1,note_on,60,44,0
1,note_on,60,0,100
1,note_on,60,39,20
1,note_on,60,0,60
1,note_on,62,39,0
1,note_on,62,0,60
1,note_on,60,44,0
1,note_on,60,0,90
1,note_on,58,44,30
1,note_on,58,0,90
1,note_on,60,43,30
1,note_on,60,0,30
1,note_on,63,39,210
1,note_on,63,0,30
1,note_on,62,42,210
1,note_on,62,0,120
1,note_on,63,42,0
1,note_on,63,0,120
1,note_on,65,44,0
1,note_on,65,0,120
1,note_on,67,43,0
1,note_on,67,0,120
1,note_on,62,44,0
1,note_on,62,0,100
1,note_on,62,39,20
1,note_on,62,0,60
1,note_on,63,39,0
1,note_on,63,0,60
1,note_on,62,44,0
1,note_on,62,0,90
1,note_on,60,42,30
1,note_on,60,0,90
1,note_on,58,39,30
1,note_on,58,0,120
1,note_on,60,39,0
1,note_on,60,0,120
1,note_on,62,39,0
1,note_on,62,0,240
1,note_on,61,36,0
1,note_on,63,42,0
1,note_on,63,0,120
1,note_on,65,42,0
1,note_on,65,0,120
1,note_on,67,44,0
1,note_on,67,0,120
1,note_on,68,43,0
1,note_on,68,0,120
1,note_on,61,0,0
1,note_on,65,44,0
1,note_on,65,0,100
1,note_on,65,39,20
1,note_on,65,0,60
1,note_on,67,39,0
1,note_on,67,0,60
1,note_on,65,44,0
1,note_on,65,0,90
1,note_on,63,44,30
1,note_on,63,0,90
1,note_on,65,46,30
1,note_on,65,0,30
1,note_on,68,44,210
1,note_on,68,0,30
1,note_on,61,39,210
1,note_on,67,46,0
1,note_on,67,0,120
1,note_on,68,46,0
1,note_on,68,0,120
1,note_on,70,48,0
1,note_on,70,0,120
1,note_on,72,47,0
1,note_on,72,0,120
1,note_on,67,48,0
1,note_on,67,0,100
1,note_on,65,42,20
1,note_on,67,42,40
1,note_on,65,0,20
1,note_on,67,0,20
1,note_on,65,42,0
1,note_on,65,0,40
1,note_on,61,0,0
1,note_on,63,48,0
1,note_on,63,0,90
1,note_on,61,46,30
1,note_on,61,0,90
1,note_on,63,42,30
1,note_on,63,0,120
1,note_on,65,42,0
1,note_on,65,0,120
1,note_on,67,42,0
1,note_on,67,0,240
1,note_on,61,42,0
1,note_on,67,50,0
1,note_on,67,0,120
1,note_on,68,50,0
1,note_on,68,0,120
1,note_on,70,52,0
1,note_on,70,0,120
1,note_on,72,51,0
1,note_on,72,0,120
1,note_on,67,52,0
1,note_on,67,0,100
1,note_on,65,46,20
1,note_on,67,46,40
1,note_on,65,0,20
1,note_on,67,0,20
1,note_on,65,46,0
1,note_on,65,0,40
1,note_on,61,0,0
1,note_on,63,53,0
1,note_on,63,0,90
1,note_on,61,50,30
1,note_on,61,0,90
1,note_on,63,54,30
1,note_on,63,0,120
1,note_on,65,51,0
1,note_on,65,0,120
1,note_on,67,51,0
1,note_on,67,0,240
1,note_on,61,55,0
1,note_on,68,55,0
1,note_on,68,0,120
1,note_on,69,56,0
1,note_on,69,0,120
1,note_on,71,58,0
1,note_on,71,0,120
1,note_on,73,57,0
1,note_on,73,0,120
1,note_on,68,58,0
1,note_on,68,0,100
1,note_on,66,51,20
1,note_on,68,51,40
1,note_on,66,0,20
1,note_on,68,0,20
1,note_on,66,51,0
1,note_on,66,0,40
1,note_on,61,0,0
1,note_on,64,59,0
1,note_on,64,0,90
1,note_on,63,56,30
1,note_on,63,0,90
1,note_on,64,60,30
1,note_on,64,0,120
1,note_on,66,57,0
1,note_on,66,0,120
1,note_on,68,57,0
1,note_on,62,60,240
1,note_on,68,0,120
1,note_on,69,55,0
1,note_on,69,0,120
1,note_on,71,57,0
1,note_on,71,0,120
1,note_on,73,60,0
1,note_on,73,0,120
1,note_on,68,65,0
1,note_on,68,0,120
1,note_on,69,59,0
1,note_on,69,0,120
1,note_on,62,0,0
1,note_on,71,63,0
1,note_on,71,0,120
1,note_on,73,66,0
1,note_on,73,0,120
1,note_on,74,70,0
1,note_on,74,0,120
1,note_on,76,64,0
1,note_on,76,0,120
1,note_on,78,67,0
1,note_on,78,0,120
1,note_on,80,69,0
1,note_on,80,0,120
1,note_on,81,76,0
1,note_on,73,58,120
1,note_on,73,0,120
1,note_on,74,58,0
1,note_on,74,0,120
1,note_on,81,0,0
1,note_on,81,58,0
1,note_on,81,0,120
1,note_on,80,75,0
1,note_on,71,56,120
1,note_on,71,0,120
1,note_on,74,56,0
1,note_on,74,0,120
1,note_on,80,0,0
1,note_on,80,56,0
1,note_on,80,0,120
1,note_on,78,72,0
1,note_on,71,55,120
1,note_on,71,0,120
1,note_on,74,55,0
1,note_on,74,0,120
1,note_on,78,0,0
1,note_on,78,55,0
1,note_on,78,0,120
1,note_on,76,71,0
1,note_on,69,52,120
1,note_on,69,0,120
1,note_on,73,52,0
1,note_on,73,0,120
1,note_on,76,0,0
1,note_on,76,52,0
1,note_on,73,52,120
1,note_on,73,0,120
1,note_on,69,52,0
1,note_on,69,0,120
1,note_on,76,0,0
1,note_on,78,67,0
1,note_on,73,55,0
1,note_on,73,0,120
1,note_on,69,55,0
1,note_on,69,0,120
1,note_on,78,0,0
1,note_on,78,55,0
1,note_on,81,66,0
1,note_on,78,0,120
1,note_on,73,55,0
1,note_on,73,0,120
1,note_on,81,0,0
1,note_on,81,55,0
1,note_on,85,67,0
1,note_on,81,0,120
1,note_on,78,55,0
1,note_on,78,0,120
1,note_on,85,0,0
1,note_on,81,76,0
1,note_on,73,58,120
1,note_on,73,0,120
1,note_on,74,58,0
1,note_on,74,0,120
1,note_on,81,0,0
1,note_on,81,58,0
1,note_on,81,0,120
1,note_on,80,75,0
1,note_on,71,56,120
1,note_on,71,0,120
1,note_on,74,56,0
1,note_on,74,0,120
1,note_on,80,0,0
1,note_on,80,56,0
1,note_on,80,0,120
1,note_on,78,72,0
1,note_on,71,55,120
1,note_on,71,0,120
1,note_on,74,55,0
1,note_on,74,0,120
1,note_on,78,0,0
1,note_on,78,55,0
1,note_on,78,0,120
1,note_on,76,71,0
1,note_on,69,52,120
1,note_on,69,0,120
1,note_on,73,52,0
1,note_on,73,0,120
1,note_on,76,0,0
1,note_on,76,52,0
1,note_on,73,52,120
1,note_on,73,0,120
1,note_on,69,52,0
1,note_on,69,0,120
1,note_on,76,0,0
1,note_on,73,61,0
1,note_on,78,61,0
1,note_on,73,0,120
1,note_on,69,53,0
1,note_on,69,0,120
1,note_on,78,0,0
1,note_on,78,62,0
1,note_on,81,62,0
1,note_on,78,0,120
1,note_on,73,54,0
1,note_on,73,0,120
1,note_on,81,0,0
1,note_on,81,64,0
1,note_on,85,64,0
1,note_on,81,0,120
1,note_on,78,54,0
1,note_on,78,0,100
1,note_on,85,0,0
1,note_on,64,44,20
1,note_on,73,53,0
1,note_on,76,53,0
1,note_on,64,0,120
1,note_on,66,44,0
1,note_on,66,0,120
1,note_on,76,0,0
1,note_on,73,0,0
1,note_on,69,44,0
1,note_on,73,52,0
1,note_on,69,0,120
1,note_on,66,44,0
1,note_on,73,0,100
1,note_on,66,0,10
1,note_on,69,44,10
1,note_on,73,52,0
1,note_on,69,0,120
1,note_on,66,44,0
1,note_on,66,0,120
1,note_on,69,46,0
1,note_on,69,0,120
1,note_on,66,44,0
1,note_on,73,0,100
1,note_on,66,0,10
1,note_on,66,44,10
1,note_on,69,53,0
1,note_on,66,0,120
1,note_on,62,44,0
1,note_on,62,0,120
1,note_on,69,0,0
1,note_on,69,44,0
1,note_on,73,53,0
1,note_on,69,0,120
1,note_on,62,44,0
1,note_on,62,0,120
1,note_on,73,0,0
1,note_on,68,44,0
1,note_on,71,56,0
1,note_on,68,0,120
1,note_on,62,44,0
1,note_on,62,0,120
1,note_on,71,0,0
1,note_on,68,44,0
1,note_on,71,51,0
1,note_on,71,0,120
1,note_on,68,0,0
1,note_on,65,39,0
1,note_on,69,48,0
1,note_on,69,0,120
1,note_on,65,0,0
1,note_on,68,44,0
1,note_on,71,51,0
1,note_on,68,0,120
1,note_on,62,44,0
1,note_on,62,0,120
1,note_on,68,44,0
1,note_on,68,0,120
1,note_on,62,44,0
1,note_on,62,0,120
1,note_on,71,0,0
1,note_on,68,52,0
1,note_on,62,44,120
1,note_on,62,0,120
1,note_on,68,0,0
1,note_on,71,52,0
1,note_on,68,48,0
1,note_on,68,0,120
1,note_on,62,44,0
1,note_on,62,0,120
1,note_on,71,0,0
1,note_on,64,45,0
1,note_on,73,54,0
1,note_on,76,54,0
1,note_on,64,0,120
1,note_on,66,45,0
1,note_on,66,0,120
1,note_on,76,0,0
1,note_on,73,0,0
1,note_on,69,44,0
1,note_on,73,52,0
1,note_on,69,0,120
1,note_on,66,44,0
1,note_on,73,0,100
1,note_on,66,0,10
1,note_on,69,44,10
1,note_on,73,52,0
1,note_on,69,0,120
1,note_on,66,44,0
1,note_on,66,0,120
1,note_on,69,46,0
1,note_on,69,0,120
1,note_on,66,44,0
1,note_on,73,0,100
1,note_on,66,0,10
1,note_on,69,53,10
1,note_on,66,44,0
1,note_on,66,0,120
1,note_on,62,44,0
1,note_on,62,0,120
1,note_on,69,0,0
1,note_on,69,44,0
1,note_on,73,53,0
1,note_on,69,0,120
1,note_on,62,44,0
1,note_on,62,0,120
1,note_on,73,0,0
1,note_on,71,44,0
1,note_on,74,56,0
1,note_on,71,0,120
1,note_on,66,44,0
1,note_on,66,0,120
1,note_on,71,47,0
1,note_on,71,0,120
1,note_on,66,43,0
1,note_on,66,0,120
1,note_on,71,46,0
1,note_on,71,0,120
1,note_on,66,43,0
1,note_on,66,0,120
1,note_on,71,46,0
1,note_on,71,0,120
1,note_on,66,43,0
1,note_on,66,0,120
1,note_on,74,0,0
1,note_on,66,56,0
1,note_on,71,56,0
1,note_on,66,0,120
1,note_on,62,47,0
1,note_on,62,0,120
1,note_on,71,0,0
1,note_on,71,59,0
1,note_on,74,59,0
1,note_on,71,0,120
1,note_on,66,51,0
1,note_on,66,0,100
1,note_on,74,0,0
1,note_on,74,48,20
1,note_on,78,60,0
1,note_on,74,0,120
1,note_on,71,47,0
1,note_on,71,0,120
1,note_on,78,0,0
1,note_on,66,45,0
1,note_on,74,56,0
1,note_on,66,0,120
1,note_on,71,47,0
1,note_on,74,0,100
1,note_on,71,0,10
1,note_on,74,56,10
1,note_on,71,47,120
1,note_on,71,0,120
1,note_on,66,50,0
1,note_on,66,0,120
1,note_on,71,47,0
1,note_on,74,0,100
1,note_on,71,0,10
1,note_on,73,56,10
1,note_on,76,56,0
1,note_on,73,0,120
1,note_on,71,47,0
1,note_on,71,0,120
1,note_on,76,0,0
1,note_on,74,57,0
1,note_on,78,57,0
1,note_on,74,0,120
1,note_on,71,47,0
1,note_on,71,0,120
1,note_on,78,0,0
1,note_on,77,61,0
1,note_on,80,61,0
1,note_on,77,0,120
1,note_on,71,57,0
1,note_on,80,0,120
1,note_on,77,57,0
1,note_on,80,57,0
1,note_on,80,0,120
1,note_on,77,0,0
1,note_on,75,57,0
1,note_on,78,57,0
1,note_on,78,0,120
1,note_on,75,0,0
1,note_on,71,0,0
1,note_on,77,55,0
1,note_on,80,60,0
1,note_on,77,0,120
1,note_on,71,50,0
1,note_on,71,0,100
1,note_on,80,0,0
1,note_on,73,55,20
1,note_on,77,61,0
1,note_on,73,0,120
1,note_on,71,50,0
1,note_on,71,0,120
1,note_on,77,0,0
1,note_on,75,58,0
1,note_on,78,65,0
1,note_on,75,0,120
1,note_on,71,50,0
1,note_on,71,0,120
1,note_on,78,0,0
1,note_on,77,58,0
1,note_on,80,69,0
1,note_on,77,0,120
1,note_on,71,50,0
1,note_on,71,0,120
1,note_on,80,0,0
1,note_on,78,59,0
1,note_on,81,74,0
1,note_on,78,0,120
1,note_on,73,51,0
1,note_on,73,0,120
1,note_on,81,0,0
1,note_on,73,50,0
1,note_on,78,73,0
1,note_on,73,0,120
1,note_on,69,51,0
1,note_on,78,0,100
1,note_on,69,0,10
1,note_on,73,56,10
1,note_on,78,73,0
1,note_on,73,0,120
1,note_on,69,51,0
1,note_on,69,0,120
1,note_on,73,56,0
1,note_on,73,0,120
1,note_on,69,51,0
1,note_on,78,0,100
1,note_on,69,0,10
1,note_on,78,78,10
1,note_on,81,78,0
1,note_on,78,0,120
1,note_on,73,65,0
1,note_on,73,0,120
1,note_on,81,0,0
1,note_on,81,79,0
1,note_on,85,79,0
1,note_on,81,0,120
1,note_on,78,65,0
1,note_on,78,0,120
1,note_on,85,0,0
1,note_on,86,89,0
1,note_on,78,63,0
1,note_on,81,63,0
1,note_on,81,0,120
1,note_on,78,0,0
1,note_on,74,45,0
1,note_on,74,0,120
1,note_on,78,45,0
1,note_on,81,45,0
1,note_on,81,0,120
1,note_on,78,0,0
1,note_on,74,46,0
1,note_on,74,0,120
1,note_on,78,47,0
1,note_on,81,47,0
1,note_on,81,0,120
1,note_on,78,0,0
1,note_on,74,48,0
1,note_on,74,0,120
1,note_on,81,48,0
1,note_on,78,48,0
1,note_on,78,0,120
1,note_on,81,0,0
1,note_on,74,48,0
1,note_on,74,0,120
1,note_on,81,49,0
1,note_on,78,49,0
1,note_on,78,0,120
1,note_on,81,0,0
1,note_on,74,50,0
1,note_on,74,0,120
1,note_on,78,50,0
1,note_on,81,50,0
1,note_on,81,0,120
1,note_on,78,0,0
1,note_on,74,51,0
1,note_on,74,0,120
1,note_on,78,46,0
1,note_on,81,46,0
1,note_on,81,0,120
1,note_on,78,0,0
1,note_on,74,43,0
1,note_on,74,0,120
1,note_on,78,48,0
1,note_on,81,48,0
1,note_on,81,0,120
1,note_on,78,0,0
1,note_on,74,43,0
1,note_on,74,0,120
1,note_on,86,0,0
1,note_on,81,41,0
1,note_on,86,41,0
1,note_on,88,59,0
1,note_on,86,0,120
1,note_on,81,0,0
1,note_on,76,37,0
1,note_on,76,0,120
1,note_on,81,43,0
1,note_on,86,43,0
1,note_on,86,0,120
1,note_on,81,0,0
1,note_on,76,40,0
1,note_on,76,0,120
1,note_on,88,0,0
1,note_on,81,45,0
1,note_on,86,45,0
1,note_on,90,67,0
1,note_on,86,0,120
1,note_on,81,0,0
1,note_on,78,42,0
1,note_on,78,0,120
1,note_on,86,48,0
1,note_on,81,48,0
1,note_on,81,0,120
1,note_on,86,0,0
1,note_on,78,44,0
1,note_on,78,0,120
1,note_on,90,0,0
1,note_on,81,42,0
1,note_on,86,42,0
1,note_on,90,69,0
1,note_on,86,0,120
1,note_on,81,0,0
1,note_on,78,38,0
1,note_on,78,0,120
1,note_on,81,42,0
1,note_on,86,42,0
1,note_on,86,0,120
1,note_on,81,0,0
1,note_on,78,37,0
1,note_on,78,0,120
1,note_on,81,39,0
1,note_on,86,39,0
1,note_on,86,0,120
1,note_on,81,0,0
1,note_on,78,36,0
1,note_on,78,0,120
1,note_on,81,38,0
1,note_on,86,38,0
1,note_on,86,0,120
1,note_on,81,0,0
1,note_on,78,34,0
1,note_on,78,0,120
1,note_on,81,36,0
1,note_on,86,36,0
1,note_on,86,0,120
1,note_on,81,0,0
1,note_on,78,32,0
1,note_on,78,0,120
1,note_on,81,34,0
1,note_on,86,34,0
1,note_on,86,0,120
1,note_on,81,0,0
1,note_on,78,31,0
1,note_on,78,0,120
1,note_on,86,35,0
1,note_on,81,35,0
1,note_on,81,0,120
1,note_on,86,0,0
1,note_on,78,34,0
1,note_on,78,0,120
1,note_on,86,33,0
1,note_on,81,33,0
1,note_on,81,0,120
1,note_on,86,0,0
1,note_on,78,34,0
1,note_on,78,0,120
1,note_on,90,0,0
1,note_on,86,49,0
1,note_on,78,33,0
1,note_on,81,33,0
1,note_on,81,0,120
1,note_on,78,0,0
1,note_on,74,30,0
1,note_on,74,0,120
1,note_on,78,28,0
1,note_on,81,28,0
1,note_on,81,0,120
1,note_on,78,0,0
1,note_on,74,30,0
1,note_on,74,0,120
1,note_on,86,0,0
1,note_on,90,52,0
1,note_on,83,33,0
1,note_on,86,33,0
1,note_on,86,0,120
1,note_on,83,0,0
1,note_on,78,30,0
1,note_on,78,0,120
1,note_on,83,28,0
1,note_on,86,28,0
1,note_on,86,0,120
1,note_on,83,0,0
1,note_on,78,30,0
1,note_on,78,0,120
1,note_on,90,0,0
1,note_on,93,41,0
1,note_on,88,41,0
1,note_on,81,41,0
1,note_on,81,0,90
1,note_on,88,0,0
1,note_on,93,0,0
1,note_on,64,33,150
1,note_on,69,33,0
1,note_on,69,0,120
1,note_on,64,0,0
1,note_on,62,33,0
1,note_on,62,0,120
1,note_on,69,37,0
1,note_on,64,37,0
1,note_on,64,0,30
1,note_on,69,0,0
1,note_on,64,33,210
1,note_on,69,33,0
1,note_on,69,0,60
1,note_on,64,0,0
1,note_on,83,34,420
1,note_on,79,34,0
1,note_on,71,34,0
1,note_on,71,0,60
1,note_on,79,0,0
1,note_on,83,0,0
1,note_on,84,41,180
1,note_on,79,41,0
1,note_on,72,41,0
1,note_on,72,0,60
1,note_on,79,0,0
1,note_on,84,0,0
1,note_on,67,33,180
1,note_on,72,33,0
1,note_on,72,0,120
1,note_on,67,0,0
1,note_on,65,33,0
1,note_on,65,0,120
1,note_on,67,36,0
1,note_on,72,36,0
1,note_on,72,0,30
1,note_on,67,0,0
1,note_on,67,33,210
1,note_on,72,33,0
1,note_on,72,0,60
1,note_on,67,0,0
1,note_on,83,34,420
1,note_on,79,34,0
1,note_on,71,34,0
1,note_on,71,0,60
1,note_on,79,0,0
1,note_on,83,0,0
1,note_on,81,40,180
1,note_on,76,40,0
1,note_on,69,40,0
1,note_on,69,0,60
1,note_on,76,0,0
1,note_on,81,0,0
1,note_on,64,33,180
1,note_on,69,33,0
1,note_on,69,0,120
1,note_on,64,0,0
1,note_on,64,33,0
1,note_on,64,0,120
1,note_on,64,36,0
1,note_on,69,36,0
1,note_on,69,0,30
1,note_on,64,0,0
1,note_on,64,32,210
1,note_on,69,32,0
1,note_on,69,0,60
1,note_on,64,0,0
1,note_on,83,37,420
1,note_on,79,37,0
1,note_on,71,37,0
1,note_on,71,0,60
1,note_on,79,0,0
1,note_on,83,0,0
1,note_on,84,41,180
1,note_on,79,41,0
1,note_on,72,41,0
1,note_on,72,0,60
1,note_on,79,0,0
1,note_on,84,0,0
1,note_on,67,32,180
1,note_on,72,32,0
1,note_on,72,0,120
1,note_on,67,0,0
1,note_on,65,32,0
1,note_on,65,0,120
1,note_on,67,35,0
1,note_on,72,35,0
1,note_on,72,0,30
1,note_on,67,0,0
1,note_on,67,32,210
1,note_on,72,32,0
1,note_on,72,0,60
1,note_on,67,0,0
1,note_on,83,33,420
1,note_on,79,33,0
1,note_on,71,33,0
1,note_on,71,0,60
1,note_on,79,0,0
1,note_on,83,0,0
1,note_on,71,35,180
1,note_on,79,35,0
1,note_on,83,35,0
1,note_on,83,0,60
1,note_on,79,0,0
1,note_on,71,0,0
1,note_on,64,51,1380
1,note_on,64,0,520
1,note_on,65,33,0
1,note_on,65,0,40
1,note_on,67,33,0
1,note_on,67,0,40
1,note_on,69,33,0
1,note_on,69,0,40
1,note_on,71,33,0
1,note_on,71,0,40
1,note_on,72,33,0
1,note_on,72,0,40
1,note_on,74,33,0
1,note_on,74,0,40
1,note_on,76,33,0
1,note_on,76,0,40
1,note_on,77,33,0
1,note_on,77,0,40
1,note_on,79,33,0
1,note_on,79,0,40
1,note_on,81,33,0
1,note_on,81,0,40
1,note_on,83,33,0
1,note_on,83,0,40
1,note_on,84,33,0
1,note_on,84,0,40
1,note_on,86,33,0
1,note_on,86,0,40
1,note_on,88,33,0
1,note_on,88,0,40
1,note_on,89,33,0
1,note_on,89,0,40
1,note_on,91,33,0
1,note_on,91,0,40
1,note_on,93,33,0
1,note_on,93,0,40
1,note_on,95,33,0
1,note_on,95,0,40
1,note_on,96,33,0
1,note_on,96,0,40
1,note_on,98,33,0
1,note_on,98,0,40
1,note_on,100,33,0
1,note_on,100,0,40
1,note_on,101,33,0
1,note_on,101,0,40
1,note_on,103,33,0
1,note_on,103,0,40
1,note_on,105,38,0
1,note_on,105,0,240
1,note_on,57,27,1200
1,note_on,57,0,120
2,note_on,50,48,0
2,note_on,57,48,0
2,note_on,57,0,30
2,note_on,50,0,0
2,note_on,60,48,210
2,note_on,53,48,0
2,note_on,53,0,30
2,note_on,60,0,0
2,note_on,50,48,210
2,note_on,50,0,120
2,note_on,50,48,360
2,note_on,50,0,45
2,note_on,45,48,435
2,note_on,45,0,240
2,note_on,38,45,240
2,note_on,38,0,240
2,note_on,45,48,240
2,note_on,45,0,240
2,note_on,40,48,0
2,note_on,40,0,240
2,note_on,52,48,240
2,note_on,52,0,240
2,note_on,57,51,0
2,note_on,57,0,240
2,note_on,40,48,0
2,note_on,40,0,120
2,note_on,59,54,360
2,note_on,52,54,0
2,note_on,59,0,360
2,note_on,60,54,0
2,note_on,60,0,120
2,note_on,59,51,0
2,note_on,59,0,360
2,note_on,60,48,0
2,note_on,60,0,120
2,note_on,62,51,0
2,note_on,62,0,360
2,note_on,64,48,0
2,note_on,64,0,120
2,note_on,52,0,0
2,note_on,69,42,0
2,note_on,60,42,0
2,note_on,53,42,0
2,note_on,53,0,480
2,note_on,60,0,0
2,note_on,69,0,0
2,note_on,65,34,0
2,note_on,62,34,0
2,note_on,55,34,0
2,note_on,55,0,480
2,note_on,62,0,0
2,note_on,65,0,0
2,note_on,48,38,0
2,note_on,55,38,0
2,note_on,64,38,0
2,note_on,64,0,480
2,note_on,55,0,0
2,note_on,48,0,0
2,note_on,53,36,0
2,note_on,57,36,0
2,note_on,60,36,0
2,note_on,60,0,240
2,note_on,57,0,0
2,note_on,53,0,0
2,note_on,50,34,0
2,note_on,57,34,0
2,note_on,62,34,0
2,note_on,62,0,220
2,note_on,57,0,0
2,note_on,50,0,0
2,note_on,41,48,20
2,note_on,57,48,0
2,note_on,48,48,0
2,note_on,48,0,480
2,note_on,57,0,0
2,note_on,41,0,0
2,note_on,43,39,0
2,note_on,58,39,0
2,note_on,50,39,0
2,note_on,50,0,480
2,note_on,58,0,0
2,note_on,43,0,0
2,note_on,48,43,0
2,note_on,55,43,0
2,note_on,60,43,0
2,note_on,60,0,480
2,note_on,55,0,0
2,note_on,48,0,0
2,note_on,53,38,0
2,note_on,60,38,0
2,note_on,60,0,360
2,note_on,53,0,0
2,note_on,52,43,0
2,note_on,52,0,120
2,note_on,50,45,0
2,note_on,53,45,0
2,note_on,50,0,360
2,note_on,48,45,0
2,note_on,48,0,120
2,note_on,53,0,0
2,note_on,53,48,0
2,note_on,47,48,0
2,note_on,47,0,360
2,note_on,45,50,0
2,note_on,45,0,120
2,note_on,43,54,0
2,note_on,43,0,360
2,note_on,45,57,0
2,note_on,45,0,120
2,note_on,47,62,0
2,note_on,53,0,240
2,note_on,55,48,0
2,note_on,55,0,120
2,note_on,52,48,0
2,note_on,52,0,120
2,note_on,47,0,0
2,note_on,47,52,0
2,note_on,53,52,0
2,note_on,47,0,360
2,note_on,45,49,0
2,note_on,45,0,120
2,note_on,43,54,0
2,note_on,43,0,360
2,note_on,45,55,0
2,note_on,45,0,120
2,note_on,47,61,0
2,note_on,53,0,360
2,note_on,55,52,0
2,note_on,55,0,120
2,note_on,47,0,0
2,note_on,56,45,0
2,note_on,48,45,0
2,note_on,56,0,120
2,note_on,54,43,0
2,note_on,54,0,120
2,note_on,52,43,0
2,note_on,52,0,120
2,note_on,54,43,0
2,note_on,54,0,120
2,note_on,56,46,0
2,note_on,56,0,120
2,note_on,48,0,840
2,note_on,47,44,0
2,note_on,56,44,0
2,note_on,56,0,120
2,note_on,54,40,0
2,note_on,54,0,120
2,note_on,52,40,0
2,note_on,52,0,120
2,note_on,54,40,0
2,note_on,54,0,120
2,note_on,56,44,0
2,note_on,56,0,120
2,note_on,47,0,840
2,note_on,38,44,0
2,note_on,38,0,30
2,note_on,45,39,210
2,note_on,53,39,0
2,note_on,53,0,30
2,note_on,45,0,0
2,note_on,38,44,210
2,note_on,38,0,120
2,note_on,53,39,120
2,note_on,45,39,0
2,note_on,45,0,30
2,note_on,53,0,0
2,note_on,38,44,210
2,note_on,38,0,45
2,note_on,53,44,195
2,note_on,45,44,0
2,note_on,45,0,30
2,note_on,53,0,0
2,note_on,38,44,210
2,note_on,38,0,30
2,note_on,54,39,210
2,note_on,45,39,0
2,note_on,45,0,30
2,note_on,54,0,0
2,note_on,38,44,210
2,note_on,38,0,120
2,note_on,54,39,120
2,note_on,45,39,0
2,note_on,45,0,30
2,note_on,54,0,0
2,note_on,38,44,210
2,note_on,38,0,120
2,note_on,54,39,120
2,note_on,45,39,0
2,note_on,45,0,30
2,note_on,54,0,0
2,note_on,38,44,0
2,note_on,38,0,30
2,note_on,45,39,210
2,note_on,53,39,0
2,note_on,53,0,30
2,note_on,45,0,0
2,note_on,38,45,210
2,note_on,38,0,120
2,note_on,53,42,120
2,note_on,45,42,0
2,note_on,45,0,30
2,note_on,53,0,0
2,note_on,38,48,210
2,note_on,38,0,45
2,note_on,53,49,195
2,note_on,45,49,0
2,note_on,45,0,30
2,note_on,53,0,0
2,note_on,38,50,210
2,note_on,38,0,30
2,note_on,62,50,210
2,note_on,62,0,60
2,note_on,64,48,60
2,note_on,64,0,60
2,note_on,66,50,60
2,note_on,66,0,60
2,note_on,66,48,60
2,note_on,66,0,40
2,note_on,67,46,0
2,note_on,67,0,40
2,note_on,66,46,0
2,note_on,66,0,40
2,note_on,64,50,0
2,note_on,64,0,120
2,note_on,62,48,0
2,note_on,62,0,120
2,note_on,60,50,0
2,note_on,60,0,120
2,note_on,62,46,0
2,note_on,62,0,120
2,note_on,64,46,0
2,note_on,57,45,240
2,note_on,60,50,0
2,note_on,60,0,120
2,note_on,57,0,0
2,note_on,62,46,0
2,note_on,62,0,120
2,note_on,64,0,0
2,note_on,55,40,0
2,note_on,59,40,0
2,note_on,64,46,0
2,note_on,64,0,220
2,note_on,59,0,0
2,note_on,55,0,0
2,note_on,54,40,20
2,note_on,57,44,0
2,note_on,57,0,120
2,note_on,59,43,0
2,note_on,59,0,120
2,note_on,54,0,0
2,note_on,53,39,0
2,note_on,56,39,0
2,note_on,60,44,0
2,note_on,56,0,240
2,note_on,53,0,0
2,note_on,52,39,0
2,note_on,55,39,0
2,note_on,60,0,220
2,note_on,55,0,20
2,note_on,52,0,0
2,note_on,51,34,0
2,note_on,54,34,0
2,note_on,56,38,0
2,note_on,54,0,240
2,note_on,51,0,0
2,note_on,50,33,0
2,note_on,53,33,0
2,note_on,53,0,240
2,note_on,50,0,0
2,note_on,56,0,0
2,note_on,52,33,0
2,note_on,49,33,0
2,note_on,49,0,240
2,note_on,48,33,0
2,note_on,48,0,90
2,note_on,47,32,150
2,note_on,47,0,90
2,note_on,46,31,150
2,note_on,50,31,0
2,note_on,50,0,90
2,note_on,46,0,0
2,note_on,40,37,150
2,note_on,40,0,90
2,note_on,52,0,150
2,note_on,33,34,0
2,note_on,33,0,220
2,note_on,57,44,20
2,note_on,57,0,45
2,note_on,52,38,75
2,note_on,52,0,45
2,note_on,52,38,75
2,note_on,52,0,34
2,note_on,57,38,86
2,note_on,57,0,45
2,note_on,57,44,75
2,note_on,57,0,45
2,note_on,52,44,75
2,note_on,52,0,45
2,note_on,52,39,75
2,note_on,52,0,34
2,note_on,45,42,86
2,note_on,45,0,45
2,note_on,40,49,75
2,note_on,40,0,34
2,note_on,33,68,206
2,note_on,33,0,230
2,note_on,57,44,10
2,note_on,57,0,45
2,note_on,52,38,75
2,note_on,52,0,45
2,note_on,52,38,75
2,note_on,52,0,34
2,note_on,57,38,86
2,note_on,57,0,45
2,note_on,57,44,75
2,note_on,57,0,45
2,note_on,52,44,75
2,note_on,52,0,45
2,note_on,52,39,75
2,note_on,52,0,34
2,note_on,45,46,86
2,note_on,45,0,45
2,note_on,43,51,75
2,note_on,43,0,34
2,note_on,36,69,206
2,note_on,36,0,230
2,note_on,60,49,10
2,note_on,60,0,45
2,note_on,55,42,75
2,note_on,55,0,45
2,note_on,55,42,75
2,note_on,55,0,34
2,note_on,60,42,86
2,note_on,60,0,45
2,note_on,60,49,75
2,note_on,60,0,45
2,note_on,55,49,75
2,note_on,55,0,45
2,note_on,55,43,75
2,note_on,55,0,34
2,note_on,48,51,86
2,note_on,48,0,45
2,note_on,43,56,75
2,note_on,43,0,34
2,note_on,36,75,206
2,note_on,36,0,230
2,note_on,60,56,10
2,note_on,60,0,45
2,note_on,55,48,75
2,note_on,55,0,45
2,note_on,55,48,75
2,note_on,55,0,34
2,note_on,60,48,86
2,note_on,60,0,45
2,note_on,60,56,75
2,note_on,60,0,45
2,note_on,55,56,75
2,note_on,55,0,45
2,note_on,55,49,75
2,note_on,55,0,34
2,note_on,60,58,86
2,note_on,60,0,45
2,note_on,58,65,75
2,note_on,58,0,240
2,note_on,67,57,0
2,note_on,63,57,0
2,note_on,63,0,360
2,note_on,67,0,0
2,note_on,58,52,0
2,note_on,65,52,0
2,note_on,65,0,120
2,note_on,58,0,0
2,note_on,63,57,0
2,note_on,67,57,0
2,note_on,67,0,360
2,note_on,63,0,0
2,note_on,65,52,0
2,note_on,69,52,0
2,note_on,69,0,120
2,note_on,65,0,0
2,note_on,63,58,0
2,note_on,67,58,0
2,note_on,67,0,360
2,note_on,63,0,0
2,note_on,65,54,0
2,note_on,58,54,0
2,note_on,58,0,120
2,note_on,65,0,0
2,note_on,57,57,0
2,note_on,67,57,0
2,note_on,67,0,480
2,note_on,57,0,0
2,note_on,50,52,0
2,note_on,57,52,0
2,note_on,57,0,940
2,note_on,50,0,0
2,note_on,65,51,20
2,note_on,62,51,0
2,note_on,62,0,360
2,note_on,65,0,0
2,note_on,57,46,0
2,note_on,64,46,0
2,note_on,64,0,120
2,note_on,57,0,0
2,note_on,62,51,0
2,note_on,65,51,0
2,note_on,65,0,360
2,note_on,62,0,0
2,note_on,64,46,0
2,note_on,67,46,0
2,note_on,67,0,120
2,note_on,64,0,0
2,note_on,62,52,0
2,note_on,65,52,0
2,note_on,65,0,360
2,note_on,62,0,0
2,note_on,64,48,0
2,note_on,57,48,0
2,note_on,57,0,120
2,note_on,64,0,0
2,note_on,55,51,0
2,note_on,65,51,0
2,note_on,65,0,480
2,note_on,55,0,0
2,note_on,48,46,0
2,note_on,55,46,0
2,note_on,48,0,960
2,note_on,41,46,0
2,note_on,55,0,480
2,note_on,53,38,0
2,note_on,51,38,480
2,note_on,53,0,20
2,note_on,50,38,460
2,note_on,51,0,20
2,note_on,50,0,700
2,note_on,53,39,0
2,note_on,55,40,240
2,note_on,53,0,20
2,note_on,58,38,220
2,note_on,55,0,20
2,note_on,58,0,220
2,note_on,41,0,0
2,note_on,41,46,0
2,note_on,53,38,480
2,note_on,51,38,480
2,note_on,53,0,20
2,note_on,50,38,460
2,note_on,51,0,20
2,note_on,50,0,700
2,note_on,53,39,0
2,note_on,55,40,240
2,note_on,53,0,20
2,note_on,58,39,220
2,note_on,55,0,20
2,note_on,58,0,220
2,note_on,41,0,0
2,note_on,43,50,0
2,note_on,57,39,240
2,note_on,60,39,0
2,note_on,65,39,0
2,note_on,65,0,240
2,note_on,60,0,0
2,note_on,57,0,0
2,note_on,58,39,0
2,note_on,62,39,0
2,note_on,55,39,0
2,note_on,43,0,240
2,note_on,41,48,0
2,note_on,41,0,240
2,note_on,55,0,0
2,note_on,62,0,0
2,note_on,58,0,0
2,note_on,40,50,0
2,note_on,40,0,240
2,note_on,38,52,0
2,note_on,38,0,240
2,note_on,36,57,0
2,note_on,69,40,240
2,note_on,64,40,0
2,note_on,60,40,0
2,note_on,60,0,240
2,note_on,64,0,0
2,note_on,69,0,0
2,note_on,60,44,0
2,note_on,64,44,0
2,note_on,69,44,0
2,note_on,69,0,240
2,note_on,64,0,0
2,note_on,60,0,0
2,note_on,64,40,0
2,note_on,57,40,0
2,note_on,60,40,0
2,note_on,60,0,240
2,note_on,57,0,0
2,note_on,64,0,0
2,note_on,57,40,0
2,note_on,60,40,0
2,note_on,64,40,0
2,note_on,64,0,480
2,note_on,36,0,0
2,note_on,57,0,0
2,note_on,60,0,0
2,note_on,43,52,0
2,note_on,57,40,240
2,note_on,60,40,0
2,note_on,65,40,0
2,note_on,65,0,240
2,note_on,60,0,0
2,note_on,57,0,0
2,note_on,58,40,0
2,note_on,62,40,0
2,note_on,55,40,0
2,note_on,43,0,240
2,note_on,41,50,0
2,note_on,41,0,240
2,note_on,55,0,0
2,note_on,62,0,0
2,note_on,58,0,0
2,note_on,40,52,0
2,note_on,40,0,240
2,note_on,38,55,0
2,note_on,38,0,240
2,note_on,36,60,0
2,note_on,69,43,240
2,note_on,64,43,0
2,note_on,60,43,0
2,note_on,60,0,240
2,note_on,64,0,0
2,note_on,69,0,0
2,note_on,60,46,0
2,note_on,64,46,0
2,note_on,69,46,0
2,note_on,69,0,240
2,note_on,64,0,0
2,note_on,60,0,0
2,note_on,64,43,0
2,note_on,57,43,0
2,note_on,60,43,0
2,note_on,60,0,240
2,note_on,57,0,0
2,note_on,64,0,0
2,note_on,57,45,0
2,note_on,60,45,0
2,note_on,64,45,0
2,note_on,64,0,240
2,note_on,60,0,0
2,note_on,57,0,0
2,note_on,70,48,0
2,note_on,62,48,0
2,note_on,65,48,0
2,note_on,65,0,240
2,note_on,62,0,0
2,note_on,70,0,0
2,note_on,62,52,0
2,note_on,65,52,0
2,note_on,70,52,0
2,note_on,70,0,240
2,note_on,65,0,0
2,note_on,62,0,0
2,note_on,64,48,0
2,note_on,67,48,0
2,note_on,72,48,0
2,note_on,72,0,240
2,note_on,67,0,0
2,note_on,64,0,0
2,note_on,64,52,0
2,note_on,67,52,0
2,note_on,72,52,0
2,note_on,72,0,240
2,note_on,67,0,0
2,note_on,64,0,0
2,note_on,60,48,0
2,note_on,64,48,0
2,note_on,69,48,0
2,note_on,69,0,240
2,note_on,64,0,0
2,note_on,60,0,0
2,note_on,60,52,0
2,note_on,64,52,0
2,note_on,69,52,0
2,note_on,69,0,240
2,note_on,64,0,0
2,note_on,60,0,0
2,note_on,64,56,0
2,note_on,69,56,0
2,note_on,72,56,0
2,note_on,72,0,240
2,note_on,36,0,0
2,note_on,64,0,0
2,note_on,69,0,0
2,note_on,34,66,0
2,note_on,41,66,0
2,note_on,65,71,240
2,note_on,65,0,240
2,note_on,55,44,0
2,note_on,58,44,0
2,note_on,62,74,0
2,note_on,62,0,480
2,note_on,60,68,0
2,note_on,60,0,240
2,note_on,62,63,0
2,note_on,62,0,240
2,note_on,55,0,0
2,note_on,34,0,0
2,note_on,41,0,0
2,note_on,58,0,0
2,note_on,58,44,0
2,note_on,62,44,0
2,note_on,67,67,0
2,note_on,67,0,240
2,note_on,69,58,0
2,note_on,69,0,240
2,note_on,69,60,0
2,note_on,69,0,240
2,note_on,64,58,0
2,note_on,64,0,240
2,note_on,64,57,0
2,note_on,64,0,480
2,note_on,62,0,0
2,note_on,58,0,0
2,note_on,34,52,0
2,note_on,41,52,0
2,note_on,65,49,240
2,note_on,65,0,240
2,note_on,53,29,0
2,note_on,58,29,0
2,note_on,62,49,0
2,note_on,62,0,480
2,note_on,60,47,0
2,note_on,60,0,240
2,note_on,62,44,0
2,note_on,62,0,220
2,note_on,53,0,20
2,note_on,34,0,0
2,note_on,41,0,0
2,note_on,58,0,0
2,note_on,28,40,0
2,note_on,40,40,0
2,note_on,40,0,480
2,note_on,28,0,0
2,note_on,29,42,0
2,note_on,41,42,0
2,note_on,41,0,480
2,note_on,29,0,0
2,note_on,31,45,0
2,note_on,43,45,0
2,note_on,43,0,480
2,note_on,31,0,0
2,note_on,33,47,0
2,note_on,45,47,0
2,note_on,45,0,480
2,note_on,33,0,0
2,note_on,35,42,0
2,note_on,47,42,0
2,note_on,47,0,240
2,note_on,35,0,0
2,note_on,33,42,0
2,note_on,45,42,0
2,note_on,45,0,240
2,note_on,33,0,0
2,note_on,31,40,0
2,note_on,43,40,0
2,note_on,43,0,240
2,note_on,31,0,0
2,note_on,29,39,0
2,note_on,41,39,0
2,note_on,41,0,240
2,note_on,29,0,0
2,note_on,28,40,0
2,note_on,40,40,0
2,note_on,40,0,480
2,note_on,28,0,0
2,note_on,29,42,0
2,note_on,41,42,0
2,note_on,41,0,480
2,note_on,29,0,0
2,note_on,31,42,0
2,note_on,43,42,0
2,note_on,43,0,480
2,note_on,31,0,0
2,note_on,33,36,0
2,note_on,45,36,0
2,note_on,45,0,480
2,note_on,33,0,0
2,note_on,47,32,0
2,note_on,35,32,0
2,note_on,35,0,480
2,note_on,47,0,0
2,note_on,36,29,0
2,note_on,48,29,0
2,note_on,38,29,420
2,note_on,45,33,30
2,note_on,48,0,30
2,note_on,36,0,0
2,note_on,54,37,0
2,note_on,54,0,30
2,note_on,38,0,0
2,note_on,45,0,0
2,note_on,38,27,870
2,note_on,45,32,30
2,note_on,54,35,30
2,note_on,54,0,120
2,note_on,45,0,0
2,note_on,38,0,0
2,note_on,38,37,300
2,note_on,45,37,30
2,note_on,54,37,30
2,note_on,54,0,30
2,note_on,45,0,0
2,note_on,38,0,0
2,note_on,69,39,450
2,note_on,69,0,30
2,note_on,62,39,450
2,note_on,62,0,30
2,note_on,60,33,450
2,note_on,62,33,0
2,note_on,65,37,0
2,note_on,65,0,1440
2,note_on,66,37,0
2,note_on,66,0,480
2,note_on,69,37,0
2,note_on,69,0,480
2,note_on,62,0,0
2,note_on,60,0,0
2,note_on,50,37,0
2,note_on,50,0,120
2,note_on,55,31,300
2,note_on,62,35,30
2,note_on,71,37,30
2,note_on,62,0,210
2,note_on,71,0,30
2,note_on,55,0,0
2,note_on,48,32,720
2,note_on,64,32,0
2,note_on,55,32,0
2,note_on,43,37,420
2,note_on,50,37,30
2,note_on,55,0,30
2,note_on,48,0,0
2,note_on,64,0,0
2,note_on,59,37,0
2,note_on,59,0,240
2,note_on,43,0,0
2,note_on,50,0,0
2,note_on,45,32,720
2,note_on,48,32,0
2,note_on,45,0,240
2,note_on,42,32,0
2,note_on,42,0,240
2,note_on,40,32,0
2,note_on,48,0,960
2,note_on,47,32,0
2,note_on,47,0,480
2,note_on,40,0,0
2,note_on,33,39,0
2,note_on,45,39,0
2,note_on,45,0,240
2,note_on,33,0,0
2,note_on,57,44,240
2,note_on,57,0,75
2,note_on,52,41,165
2,note_on,52,0,75
2,note_on,45,51,165
2,note_on,45,0,90
2,note_on,43,50,150
2,note_on,43,0,90
2,note_on,29,77,150
2,note_on,41,77,0
2,note_on,67,69,600
2,note_on,67,0,60
2,note_on,65,69,0
2,note_on,65,0,60
2,note_on,64,69,0
2,note_on,64,0,60
2,note_on,62,69,0
2,note_on,62,0,60
2,note_on,60,69,0
2,note_on,60,0,60
2,note_on,59,69,0
2,note_on,59,0,60
2,note_on,57,77,0
2,note_on,57,0,240
2,note_on,55,68,0
2,note_on,55,0,240
2,note_on,41,0,0
2,note_on,29,0,0
2,note_on,57,71,0
2,note_on,57,0,240
2,note_on,59,66,0
2,note_on,59,0,240
2,note_on,60,63,0
2,note_on,60,0,240
2,note_on,62,62,0
2,note_on,62,0,240
2,note_on,59,55,0
2,note_on,59,0,240
2,note_on,57,53,0
2,note_on,57,0,120
2,note_on,55,50,0
2,note_on,55,0,120
2,note_on,29,77,0
2,note_on,41,77,0
2,note_on,67,69,600
2,note_on,67,0,60
2,note_on,65,69,0
2,note_on,65,0,60
2,note_on,64,69,0
2,note_on,64,0,60
2,note_on,62,69,0
2,note_on,62,0,60
2,note_on,60,69,0
2,note_on,60,0,60
2,note_on,59,69,0
2,note_on,59,0,60
2,note_on,57,77,0
2,note_on,57,0,240
2,note_on,55,68,0
2,note_on,55,0,240
2,note_on,41,0,0
2,note_on,29,0,0
2,note_on,57,71,0
2,note_on,57,0,240
2,note_on,59,66,0
2,note_on,59,0,240
2,note_on,60,63,0
2,note_on,60,0,240
2,note_on,62,62,0
2,note_on,62,0,240
2,note_on,57,55,0
2,note_on,57,0,240
2,note_on,55,53,0
2,note_on,55,0,120
2,note_on,53,50,0
2,note_on,53,0,120
2,note_on,27,81,0
2,note_on,39,81,0
2,note_on,65,69,600
2,note_on,65,0,60
2,note_on,63,69,0
2,note_on,63,0,60
2,note_on,62,69,0
2,note_on,62,0,60
2,note_on,60,69,0
2,note_on,60,0,60
2,note_on,58,69,0
2,note_on,58,0,60
2,note_on,57,69,0
2,note_on,57,0,60
2,note_on,55,77,0
2,note_on,55,0,240
2,note_on,53,68,0
2,note_on,53,0,240
2,note_on,39,0,0
2,note_on,27,0,0
2,note_on,55,71,0
2,note_on,55,0,240
2,note_on,57,66,0
2,note_on,57,0,240
2,note_on,58,63,0
2,note_on,58,0,240
2,note_on,60,62,0
2,note_on,60,0,240
2,note_on,57,55,0
2,note_on,57,0,240
2,note_on,55,53,0
2,note_on,55,0,120
2,note_on,53,50,0
2,note_on,53,0,120
2,note_on,27,81,0
2,note_on,39,81,0
2,note_on,65,69,600
2,note_on,65,0,60
2,note_on,63,69,0
2,note_on,63,0,60
2,note_on,62,69,0
2,note_on,62,0,60
2,note_on,60,69,0
2,note_on,60,0,60
2,note_on,58,69,0
2,note_on,58,0,60
2,note_on,57,69,0
2,note_on,57,0,60
2,note_on,55,77,0
2,note_on,55,0,240
2,note_on,53,68,0
2,note_on,53,0,240
2,note_on,39,0,0
2,note_on,27,0,0
2,note_on,55,71,0
2,note_on,55,0,240
2,note_on,57,66,0
2,note_on,57,0,240
2,note_on,58,63,0
2,note_on,58,0,240
2,note_on,60,62,0
2,note_on,60,0,240
2,note_on,57,55,0
2,note_on,57,0,240
2,note_on,58,53,0
2,note_on,58,0,120
2,note_on,60,50,0
2,note_on,60,0,120
2,note_on,50,46,0
2,note_on,57,46,0
2,note_on,57,0,360
2,note_on,50,0,0
2,note_on,45,41,0
2,note_on,45,0,90
2,note_on,50,46,30
2,note_on,57,46,0
2,note_on,57,0,360
2,note_on,50,0,0
2,note_on,45,42,0
2,note_on,45,0,120
2,note_on,50,45,0
2,note_on,57,45,0
2,note_on,57,0,240
2,note_on,50,0,0
2,note_on,42,49,0
2,note_on,42,0,240
2,note_on,43,52,0
2,note_on,43,0,240
2,note_on,45,45,0
2,note_on,45,0,240
2,note_on,46,42,0
2,note_on,46,0,480
2,note_on,45,43,0
2,note_on,45,0,480
2,note_on,50,45,0
2,note_on,50,0,900
2,note_on,43,36,0
2,note_on,50,39,30
2,note_on,59,44,30
2,note_on,59,0,420
2,note_on,50,0,0
2,note_on,43,0,0
2,note_on,40,40,0
2,note_on,55,44,30
2,note_on,47,48,30
2,note_on,47,0,960
2,note_on,55,0,0
2,note_on,40,0,0
2,note_on,45,40,0
2,note_on,45,0,480
2,note_on,50,46,0
2,note_on,57,46,0
2,note_on,57,0,360
2,note_on,50,0,0
2,note_on,45,41,0
2,note_on,45,0,90
2,note_on,50,46,30
2,note_on,57,46,0
2,note_on,57,0,360
2,note_on,50,0,0
2,note_on,45,42,0
2,note_on,45,0,120
2,note_on,50,45,0
2,note_on,57,45,0
2,note_on,57,0,240
2,note_on,50,0,0
2,note_on,42,49,0
2,note_on,42,0,240
2,note_on,43,52,0
2,note_on,43,0,240
2,note_on,45,45,0
2,note_on,45,0,240
2,note_on,47,45,0
2,note_on,47,0,210
2,note_on,49,48,30
2,note_on,49,0,240
2,note_on,50,51,0
2,note_on,50,0,240
2,note_on,52,51,0
2,note_on,52,0,240
2,note_on,54,51,0
2,note_on,54,0,210
2,note_on,55,50,30
2,note_on,55,0,240
2,note_on,57,52,0
2,note_on,57,0,240
2,note_on,59,54,0
2,note_on,59,0,240
2,note_on,61,57,0
2,note_on,61,0,480
2,note_on,62,43,0
2,note_on,69,43,0
2,note_on,69,0,60
2,note_on,62,0,0
2,note_on,57,35,180
2,note_on,57,0,60
2,note_on,50,42,180
2,note_on,50,0,60
2,note_on,57,37,180
2,note_on,57,0,60
2,note_on,62,43,180
2,note_on,62,0,60
2,note_on,69,36,180
2,note_on,63,36,0
2,note_on,60,36,0
2,note_on,54,36,0
2,note_on,54,0,240
2,note_on,69,0,0
2,note_on,63,0,0
2,note_on,60,0,0
2,note_on,67,36,0
2,note_on,62,36,0
2,note_on,58,36,0
2,note_on,55,36,0
2,note_on,55,0,240
2,note_on,67,0,0
2,note_on,62,0,0
2,note_on,58,0,0
2,note_on,66,35,0
2,note_on,62,35,0
2,note_on,57,35,0
2,note_on,57,0,240
2,note_on,62,0,0
2,note_on,66,0,0
2,note_on,64,34,0
2,note_on,62,34,0
2,note_on,58,34,0
2,note_on,58,0,480
2,note_on,62,0,0
2,note_on,64,0,0
2,note_on,67,36,0
2,note_on,64,36,0
2,note_on,61,36,0
2,note_on,61,0,480
2,note_on,64,0,0
2,note_on,67,0,0
2,note_on,66,42,0
2,note_on,62,42,0
2,note_on,57,38,480
2,note_on,57,0,480
2,note_on,62,0,0
2,note_on,66,0,0
2,note_on,55,36,0
2,note_on,59,36,0
2,note_on,55,0,480
2,note_on,52,37,0
2,note_on,45,37,0
2,note_on,59,0,960
2,note_on,61,38,0
2,note_on,61,0,480
2,note_on,45,0,0
2,note_on,52,0,0
2,note_on,44,38,0
2,note_on,44,0,480
2,note_on,45,39,0
2,note_on,45,0,240
2,note_on,47,38,0
2,note_on,47,0,240
2,note_on,49,39,0
2,note_on,49,0,240
2,note_on,51,37,0
2,note_on,51,0,120
2,note_on,53,40,0
2,note_on,53,0,120
2,note_on,54,45,0
2,note_on,54,0,480
2,note_on,56,36,0
2,note_on,56,0,480
2,note_on,57,38,0
2,note_on,57,0,460
2,note_on,59,38,20
2,note_on,59,0,480
2,note_on,61,39,0
2,note_on,61,0,240
2,note_on,62,38,0
2,note_on,62,0,240
2,note_on,64,39,0
2,note_on,64,0,240
2,note_on,65,39,0
2,note_on,65,0,240
2,note_on,66,39,0
2,note_on,66,0,1440
2,note_on,34,35,0
2,note_on,46,35,0
2,note_on,46,0,390
2,note_on,34,0,0
2,note_on,55,31,0
2,note_on,58,33,30
2,note_on,63,35,30
2,note_on,67,40,30
2,note_on,67,0,473
2,note_on,63,0,3
2,note_on,58,0,2
2,note_on,55,0,0
2,note_on,46,38,2
2,note_on,34,44,480
2,note_on,34,0,390
2,note_on,46,0,0
2,note_on,55,31,0
2,note_on,58,33,30
2,note_on,63,35,30
2,note_on,67,41,30
2,note_on,67,0,477
2,note_on,63,0,0
2,note_on,58,0,1
2,note_on,55,0,0
2,note_on,46,41,2
2,note_on,34,41,480
2,note_on,34,0,240
2,note_on,46,0,0
2,note_on,51,36,240
2,note_on,55,36,0
2,note_on,55,0,240
2,note_on,51,0,0
2,note_on,67,33,240
2,note_on,72,33,0
2,note_on,75,33,0
2,note_on,75,0,60
2,note_on,72,0,0
2,note_on,67,0,0
2,note_on,46,41,420
2,note_on,34,41,0
2,note_on,34,0,240
2,note_on,46,0,0
2,note_on,58,36,240
2,note_on,50,36,0
2,note_on,55,36,0
2,note_on,55,0,240
2,note_on,50,0,0
2,note_on,58,0,0
2,note_on,67,33,240
2,note_on,70,33,0
2,note_on,74,33,0
2,note_on,74,0,60
2,note_on,70,0,0
2,note_on,67,0,0
2,note_on,55,36,420
2,note_on,46,41,0
2,note_on,55,0,480
2,note_on,56,38,0
2,note_on,56,0,480
2,note_on,68,36,0
2,note_on,77,36,0
2,note_on,73,36,0
2,note_on,73,0,30
2,note_on,77,0,0
2,note_on,68,0,0
2,note_on,46,0,450
2,note_on,46,41,0
2,note_on,51,41,0
2,note_on,51,0,480
2,note_on,46,0,0
2,note_on,75,36,0
2,note_on,73,36,0
2,note_on,73,0,240
2,note_on,75,0,0
2,note_on,51,41,240
2,note_on,46,45,480
2,note_on,46,0,480
2,note_on,51,0,0
2,note_on,75,40,0
2,note_on,73,40,0
2,note_on,73,0,240
2,note_on,75,0,0
2,note_on,51,47,240
2,note_on,51,0,480
2,note_on,52,52,0
2,note_on,42,52,0
2,note_on,42,0,480
2,note_on,52,0,0
2,note_on,76,45,0
2,note_on,73,45,0
2,note_on,73,0,240
2,note_on,76,0,0
2,note_on,52,52,240
2,note_on,40,60,480
2,note_on,40,0,240
2,note_on,52,0,0
2,note_on,74,46,240
2,note_on,76,46,0
2,note_on,76,0,240
2,note_on,74,0,0
2,note_on,52,54,240
2,note_on,40,65,360
2,note_on,40,0,120
2,note_on,52,0,0
2,note_on,62,56,0
2,note_on,61,56,0
2,note_on,69,56,0
2,note_on,69,0,480
2,note_on,61,0,0
2,note_on,62,0,0
2,note_on,68,53,0
2,note_on,62,53,0
2,note_on,59,53,0
2,note_on,59,0,480
2,note_on,62,0,0
2,note_on,68,0,0
2,note_on,66,48,0
2,note_on,62,48,0
2,note_on,56,48,0
2,note_on,56,0,480
2,note_on,62,0,0
2,note_on,66,0,0
2,note_on,64,47,0
2,note_on,61,47,0
2,note_on,57,47,0
2,note_on,40,64,480
2,note_on,57,0,240
2,note_on,64,0,0
2,note_on,61,0,0
2,note_on,57,54,0
2,note_on,61,54,0
2,note_on,66,54,0
2,note_on,66,0,240
2,note_on,61,0,0
2,note_on,57,0,0
2,note_on,61,54,0
2,note_on,66,54,0
2,note_on,69,54,0
2,note_on,69,0,240
2,note_on,66,0,0
2,note_on,61,0,0
2,note_on,66,54,0
2,note_on,69,54,0
2,note_on,73,54,0
2,note_on,73,0,240
2,note_on,40,0,0
2,note_on,66,0,0
2,note_on,69,0,0
2,note_on,62,56,0
2,note_on,61,56,0
2,note_on,69,56,0
2,note_on,69,0,480
2,note_on,61,0,0
2,note_on,62,0,0
2,note_on,68,53,0
2,note_on,62,53,0
2,note_on,59,53,0
2,note_on,59,0,480
2,note_on,62,0,0
2,note_on,68,0,0
2,note_on,66,48,0
2,note_on,62,48,0
2,note_on,56,48,0
2,note_on,56,0,480
2,note_on,62,0,0
2,note_on,66,0,0
2,note_on,64,47,0
2,note_on,61,47,0
2,note_on,57,47,0
2,note_on,40,64,480
2,note_on,57,0,240
2,note_on,64,0,0
2,note_on,61,0,0
2,note_on,54,49,0
2,note_on,54,0,240
2,note_on,57,52,0
2,note_on,57,0,240
2,note_on,61,54,0
2,note_on,61,0,220
2,note_on,40,0,0
2,note_on,38,56,20
2,note_on,45,56,0
2,note_on,61,56,240
2,note_on,61,0,240
2,note_on,54,48,0
2,note_on,57,48,0
2,note_on,61,48,0
2,note_on,61,0,480
2,note_on,54,0,0
2,note_on,57,0,0
2,note_on,45,52,0
2,note_on,45,0,480
2,note_on,45,0,0
2,note_on,38,0,0
2,note_on,32,53,0
2,note_on,44,53,0
2,note_on,56,43,240
2,note_on,59,43,0
2,note_on,59,0,120
2,note_on,56,0,0
2,note_on,53,36,0
2,note_on,57,40,0
2,note_on,57,0,120
2,note_on,32,0,0
2,note_on,44,0,0
2,note_on,53,0,0
2,note_on,50,43,0
2,note_on,56,43,0
2,note_on,59,43,0
2,note_on,59,0,480
2,note_on,56,0,0
2,note_on,50,0,0
2,note_on,44,45,0
2,note_on,44,0,480
2,note_on,38,57,0
2,note_on,45,57,0
2,note_on,61,56,240
2,note_on,61,0,240
2,note_on,45,0,0
2,note_on,38,0,0
2,note_on,54,48,0
2,note_on,57,48,0
2,note_on,61,48,0
2,note_on,61,0,480
2,note_on,57,0,0
2,note_on,54,0,0
2,note_on,45,52,0
2,note_on,45,0,480
2,note_on,35,53,0
2,note_on,47,53,0
2,note_on,47,0,480
2,note_on,35,0,0
2,note_on,54,47,0
2,note_on,59,47,0
2,note_on,62,47,0
2,note_on,62,0,480
2,note_on,59,0,0
2,note_on,54,0,0
2,note_on,45,45,0
2,note_on,33,45,0
2,note_on,33,0,480
2,note_on,45,0,0
2,note_on,32,57,0
2,note_on,44,57,0
2,note_on,62,56,240
2,note_on,62,0,240
2,note_on,44,0,0
2,note_on,32,0,0
2,note_on,56,48,0
2,note_on,59,48,0
2,note_on,62,48,0
2,note_on,62,0,480
2,note_on,64,47,0
2,note_on,61,47,0
2,note_on,61,0,240
2,note_on,64,0,0
2,note_on,62,47,0
2,note_on,66,47,0
2,note_on,66,0,240
2,note_on,56,0,0
2,note_on,59,0,0
2,note_on,62,0,0
2,note_on,37,53,0
2,note_on,49,53,0
2,note_on,65,51,240
2,note_on,68,51,0
2,note_on,68,0,120
2,note_on,65,0,0
2,note_on,63,51,0
2,note_on,66,51,0
2,note_on,66,0,120
2,note_on,37,0,0
2,note_on,49,0,0
2,note_on,63,0,0
2,note_on,59,53,0
2,note_on,65,54,0
2,note_on,68,54,0
2,note_on,68,0,220
2,note_on,65,0,0
2,note_on,61,54,20
2,note_on,65,54,0
2,note_on,65,0,240
2,note_on,61,0,0
2,note_on,63,58,0
2,note_on,66,58,0
2,note_on,66,0,240
2,note_on,63,0,0
2,note_on,65,62,0
2,note_on,68,62,0
2,note_on,68,0,240
2,note_on,65,0,0
2,note_on,59,0,0
2,note_on,42,74,0
2,note_on,49,74,0
2,note_on,66,73,240
2,note_on,66,0,240
2,note_on,49,0,0
2,note_on,42,0,0
2,note_on,57,71,0
2,note_on,61,71,0
2,note_on,66,71,0
2,note_on,66,0,480
2,note_on,61,0,0
2,note_on,57,0,0
2,note_on,54,66,0
2,note_on,57,66,0
2,note_on,61,66,0
2,note_on,61,0,480
2,note_on,57,0,0
2,note_on,54,0,0
2,note_on,38,74,0
2,note_on,45,74,0
2,note_on,50,57,240
2,note_on,54,57,0
2,note_on,57,57,0
2,note_on,57,0,240
2,note_on,50,0,0
2,note_on,54,0,0
2,note_on,54,57,0
2,note_on,57,57,0
2,note_on,62,57,0
2,note_on,62,0,480
2,note_on,54,0,0
2,note_on,57,0,0
2,note_on,66,60,0
2,note_on,62,60,0
2,note_on,57,60,0
2,note_on,57,0,240
2,note_on,66,0,0
2,note_on,62,0,0
2,note_on,69,59,0
2,note_on,66,59,0
2,note_on,62,59,0
2,note_on,62,0,240
2,note_on,69,0,0
2,note_on,38,0,0
2,note_on,45,0,0
2,note_on,66,0,0
2,note_on,62,64,0
2,note_on,66,64,0
2,note_on,69,64,0
2,note_on,69,0,1440
2,note_on,66,0,0
2,note_on,62,0,0
2,note_on,35,52,0
2,note_on,47,52,0
2,note_on,50,45,240
2,note_on,57,45,0
2,note_on,54,45,0
2,note_on,54,0,240
2,note_on,50,0,0
2,note_on,57,0,0
2,note_on,54,44,0
2,note_on,57,44,0
2,note_on,62,44,0
2,note_on,62,0,480
2,note_on,54,0,0
2,note_on,57,0,0
2,note_on,66,44,0
2,note_on,62,44,0
2,note_on,57,44,0
2,note_on,57,0,240
2,note_on,66,0,0
2,note_on,62,0,0
2,note_on,69,41,0
2,note_on,66,41,0
2,note_on,62,41,0
2,note_on,62,0,240
2,note_on,69,0,0
2,note_on,35,0,0
2,note_on,47,0,0
2,note_on,66,0,0
2,note_on,69,41,0
2,note_on,66,41,0
2,note_on,62,41,0
2,note_on,62,0,480
2,note_on,66,0,0
2,note_on,69,0,0
2,note_on,71,35,480
2,note_on,66,35,0
2,note_on,62,35,0
2,note_on,59,35,0
2,note_on,59,0,120
2,note_on,71,0,0
2,note_on,66,0,0
2,note_on,62,0,0
2,note_on,33,38,360
2,note_on,40,38,0
2,note_on,45,38,0
2,note_on,45,0,90
2,note_on,40,0,0
2,note_on,33,0,0
2,note_on,60,34,150
2,note_on,57,34,0
2,note_on,57,0,120
2,note_on,60,0,0
2,note_on,52,34,0
2,note_on,59,34,0
2,note_on,59,0,120
2,note_on,52,0,0
2,note_on,60,37,0
2,note_on,57,37,0
2,note_on,57,0,30
2,note_on,60,0,0
2,note_on,60,33,210
2,note_on,57,33,0
2,note_on,57,0,60
2,note_on,60,0,0
2,note_on,43,33,420
2,note_on,50,33,0
2,note_on,55,33,0
2,note_on,55,0,60
2,note_on,50,0,0
2,note_on,43,0,0
2,note_on,36,36,180
2,note_on,43,36,0
2,note_on,48,36,0
2,note_on,48,0,60
2,note_on,43,0,0
2,note_on,36,0,0
2,note_on,64,34,180
2,note_on,60,34,0
2,note_on,60,0,120
2,note_on,64,0,0
2,note_on,55,34,0
2,note_on,62,34,0
2,note_on,62,0,120
2,note_on,55,0,0
2,note_on,60,36,0
2,note_on,64,36,0
2,note_on,64,0,30
2,note_on,60,0,0
2,note_on,60,33,210
2,note_on,64,33,0
2,note_on,64,0,60
2,note_on,60,0,0
2,note_on,43,33,420
2,note_on,50,33,0
2,note_on,55,33,0
2,note_on,55,0,60
2,note_on,50,0,0
2,note_on,43,0,0
2,note_on,45,35,180
2,note_on,52,35,0
2,note_on,57,35,0
2,note_on,57,0,60
2,note_on,52,0,0
2,note_on,45,0,0
2,note_on,57,34,180
2,note_on,60,34,0
2,note_on,60,0,120
2,note_on,57,0,0
2,note_on,52,34,0
2,note_on,59,34,0
2,note_on,59,0,120
2,note_on,52,0,0
2,note_on,60,36,0
2,note_on,57,36,0
2,note_on,57,0,30
2,note_on,60,0,0
2,note_on,60,32,210
2,note_on,57,32,0
2,note_on,57,0,60
2,note_on,60,0,0
2,note_on,43,32,420
2,note_on,50,32,0
2,note_on,55,32,0
2,note_on,55,0,60
2,note_on,50,0,0
2,note_on,43,0,0
2,note_on,36,37,180
2,note_on,43,37,0
2,note_on,48,37,0
2,note_on,48,0,60
2,note_on,43,0,0
2,note_on,36,0,0
2,note_on,64,33,180
2,note_on,60,33,0
2,note_on,60,0,120
2,note_on,64,0,0
2,note_on,55,33,0
2,note_on,62,33,0
2,note_on,62,0,120
2,note_on,55,0,0
2,note_on,60,35,0
2,note_on,64,35,0
2,note_on,64,0,30
2,note_on,60,0,0
2,note_on,60,32,210
2,note_on,64,32,0
2,note_on,64,0,60
2,note_on,60,0,0
2,note_on,64,32,420
2,note_on,59,32,0
2,note_on,52,32,0
2,note_on,52,0,60
2,note_on,59,0,0
2,note_on,64,0,0
2,note_on,52,34,180
2,note_on,59,34,0
2,note_on,64,34,0
2,note_on,64,0,60
2,note_on,59,0,0
2,note_on,52,0,0
2,note_on,40,40,420
2,note_on,40,0,240
2,note_on,52,44,240
2,note_on,52,0,240
2,note_on,36,38,720
2,note_on,36,0,240
2,note_on,35,36,240
2,note_on,35,0,240
2,note_on,33,36,240
2,note_on,33,0,240
2,note_on,33,24,1200
2,note_on,45,24,0
2,note_on,45,0,120
2,note_on,33,0,0
