Track,Message Type,Note,Velocity,Time
1,note_on,76,36,480
1,note_on,76,0,120
1,note_on,75,33,0
1,note_on,75,0,120
1,note_on,76,39,0
1,note_on,76,0,120
1,note_on,75,36,0
1,note_on,75,0,120
1,note_on,76,45,0
1,note_on,76,0,120
1,note_on,71,40,0
1,note_on,71,0,120
1,note_on,74,47,0
1,note_on,74,0,120
1,note_on,72,39,0
1,note_on,72,0,120
1,note_on,69,51,0
1,note_on,69,0,240
1,note_on,60,34,120
1,note_on,60,0,120
1,note_on,64,38,0
1,note_on,64,0,120
1,note_on,69,42,0
1,note_on,69,0,120
1,note_on,71,46,0
1,note_on,71,0,240
1,note_on,64,36,120
1,note_on,64,0,120
1,note_on,68,39,0
1,note_on,68,0,120
1,note_on,71,42,0
1,note_on,71,0,120
1,note_on,72,45,0
1,note_on,72,0,240
1,note_on,64,35,120
1,note_on,64,0,120
1,note_on,76,38,0
1,note_on,76,0,120
1,note_on,75,34,0
1,note_on,75,0,120
1,note_on,76,41,0
1,note_on,76,0,120
1,note_on,75,37,0
1,note_on,75,0,120
1,note_on,76,46,0
1,note_on,76,0,120
1,note_on,71,39,0
1,note_on,71,0,120
1,note_on,74,48,0
1,note_on,74,0,120
1,note_on,72,39,0
1,note_on,72,0,120
1,note_on,69,48,0
1,note_on,69,0,240
1,note_on,60,34,120
1,note_on,60,0,120
1,note_on,64,37,0
1,note_on,64,0,120
1,note_on,69,41,0
1,note_on,69,0,120
1,note_on,71,45,0
1,note_on,71,0,240
1,note_on,64,37,120
1,note_on,64,0,120
1,note_on,72,40,0
1,note_on,72,0,120
1,note_on,71,38,0
1,note_on,71,0,120
1,note_on,69,40,0
1,note_on,69,0,240
1,note_on,76,36,240
1,note_on,76,0,120
1,note_on,75,33,0
1,note_on,75,0,120
1,note_on,76,39,0
1,note_on,76,0,120
1,note_on,75,36,0
1,note_on,75,0,120
1,note_on,76,45,0
1,note_on,76,0,120
1,note_on,71,40,0
1,note_on,71,0,120
1,note_on,74,47,0
1,note_on,74,0,120
1,note_on,72,39,0
1,note_on,72,0,120
1,note_on,69,51,0
1,note_on,69,0,240
1,note_on,60,34,120
1,note_on,60,0,120
1,note_on,64,38,0
1,note_on,64,0,120
1,note_on,69,42,0
1,note_on,69,0,120
1,note_on,71,46,0
1,note_on,71,0,240
1,note_on,64,36,120
1,note_on,64,0,120
1,note_on,68,39,0
1,note_on,68,0,120
1,note_on,71,42,0
1,note_on,71,0,120
1,note_on,72,45,0
1,note_on,72,0,240
1,note_on,64,35,120
1,note_on,64,0,120
1,note_on,76,38,0
1,note_on,76,0,120
1,note_on,75,34,0
1,note_on,75,0,120
1,note_on,76,41,0
1,note_on,76,0,120
1,note_on,75,37,0
1,note_on,75,0,120
1,note_on,76,46,0
1,note_on,76,0,120
1,note_on,71,39,0
1,note_on,71,0,120
1,note_on,74,48,0
1,note_on,74,0,120
1,note_on,72,39,0
1,note_on,72,0,120
1,note_on,69,48,0
1,note_on,69,0,240
1,note_on,60,34,120
1,note_on,60,0,120
1,note_on,64,37,0
1,note_on,64,0,120
1,note_on,69,41,0
1,note_on,69,0,120
1,note_on,71,45,0
1,note_on,71,0,240
1,note_on,64,37,120
1,note_on,64,0,120
1,note_on,72,40,0
1,note_on,72,0,120
1,note_on,71,38,0
1,note_on,71,0,120
1,note_on,69,40,0
1,note_on,69,0,240
1,note_on,71,42,120
1,note_on,71,0,120
1,note_on,72,45,0
1,note_on,72,0,120
1,note_on,74,48,0
1,note_on,74,0,120
1,note_on,76,51,0
1,note_on,76,0,360
1,note_on,67,40,0
1,note_on,67,0,120
1,note_on,77,46,0
1,note_on,77,0,120
1,note_on,76,43,0
1,note_on,76,0,120
1,note_on,74,50,0
1,note_on,74,0,360
1,note_on,65,40,0
1,note_on,65,0,120
1,note_on,76,46,0
1,note_on,76,0,120
1,note_on,74,43,0
1,note_on,74,0,120
1,note_on,72,50,0
1,note_on,72,0,360
1,note_on,64,40,0
1,note_on,64,0,120
1,note_on,74,46,0
1,note_on,74,0,120
1,note_on,72,43,0
1,note_on,72,0,120
1,note_on,71,50,0
1,note_on,71,0,240
1,note_on,64,39,120
1,note_on,64,0,120
1,note_on,76,45,0
1,note_on,76,0,90
1,note_on,76,43,270
1,note_on,76,0,120
1,note_on,88,48,0
1,note_on,88,0,90
1,note_on,75,42,270
1,note_on,75,0,120
1,note_on,76,48,0
1,note_on,76,0,90
1,note_on,75,35,270
1,note_on,75,0,120
1,note_on,76,37,0
1,note_on,76,0,120
1,note_on,75,34,0
1,note_on,75,0,120
1,note_on,76,40,0
1,note_on,76,0,120
1,note_on,75,36,0
1,note_on,75,0,120
1,note_on,76,40,0
1,note_on,76,0,120
1,note_on,71,35,0
1,note_on,71,0,120
1,note_on,74,42,0
1,note_on,74,0,120
1,note_on,72,37,0
1,note_on,72,0,120
1,note_on,69,45,0
1,note_on,69,0,240
1,note_on,60,34,120
1,note_on,60,0,120
1,note_on,64,38,0
1,note_on,64,0,120
1,note_on,69,42,0
1,note_on,69,0,120
1,note_on,71,46,0
1,note_on,71,0,240
1,note_on,64,36,120
1,note_on,64,0,120
1,note_on,68,39,0
1,note_on,68,0,120
1,note_on,71,42,0
1,note_on,71,0,120
1,note_on,72,45,0
1,note_on,72,0,240
1,note_on,64,35,120
1,note_on,64,0,120
1,note_on,76,38,0
1,note_on,76,0,120
1,note_on,75,34,0
1,note_on,75,0,120
1,note_on,76,41,0
1,note_on,76,0,120
1,note_on,75,37,0
1,note_on,75,0,120
1,note_on,76,46,0
1,note_on,76,0,120
1,note_on,71,39,0
1,note_on,71,0,120
1,note_on,74,48,0
1,note_on,74,0,120
1,note_on,72,39,0
1,note_on,72,0,120
1,note_on,69,46,0
1,note_on,69,0,240
1,note_on,60,34,120
1,note_on,60,0,120
1,note_on,64,37,0
1,note_on,64,0,120
1,note_on,69,41,0
1,note_on,69,0,120
1,note_on,71,45,0
1,note_on,71,0,240
1,note_on,64,37,120
1,note_on,64,0,120
1,note_on,72,40,0
1,note_on,72,0,120
1,note_on,71,38,0
1,note_on,71,0,120
1,note_on,69,40,0
1,note_on,69,0,240
1,note_on,71,43,120
1,note_on,71,0,120
1,note_on,72,45,0
1,note_on,72,0,120
1,note_on,74,47,0
1,note_on,74,0,120
1,note_on,76,50,0
1,note_on,76,0,360
1,note_on,67,40,0
1,note_on,67,0,120
1,note_on,77,46,0
1,note_on,77,0,120
1,note_on,76,43,0
1,note_on,76,0,120
1,note_on,74,50,0
1,note_on,74,0,360
1,note_on,65,40,0
1,note_on,65,0,120
1,note_on,76,46,0
1,note_on,76,0,120
1,note_on,74,43,0
1,note_on,74,0,120
1,note_on,72,50,0
1,note_on,72,0,360
1,note_on,64,40,0
1,note_on,64,0,120
1,note_on,74,46,0
1,note_on,74,0,120
1,note_on,72,43,0
1,note_on,72,0,120
1,note_on,71,50,0
1,note_on,71,0,240
1,note_on,64,39,120
1,note_on,64,0,120
1,note_on,76,45,0
1,note_on,76,0,90
1,note_on,76,43,270
1,note_on,76,0,120
1,note_on,88,48,0
1,note_on,88,0,90
1,note_on,75,42,270
1,note_on,75,0,120
1,note_on,76,48,0
1,note_on,76,0,90
1,note_on,75,35,270
1,note_on,75,0,120
1,note_on,76,37,0
1,note_on,76,0,120
1,note_on,75,34,0
1,note_on,75,0,120
1,note_on,76,39,0
1,note_on,76,0,120
1,note_on,75,36,0
1,note_on,75,0,120
1,note_on,76,39,0
1,note_on,76,0,120
1,note_on,71,35,0
1,note_on,71,0,120
1,note_on,74,40,0
1,note_on,74,0,120
1,note_on,72,33,0
1,note_on,72,0,120
1,note_on,69,46,0
1,note_on,69,0,240
1,note_on,60,34,120
1,note_on,60,0,120
1,note_on,64,38,0
1,note_on,64,0,120
1,note_on,69,42,0
1,note_on,69,0,120
1,note_on,71,46,0
1,note_on,71,0,240
1,note_on,64,36,120
1,note_on,64,0,120
1,note_on,68,39,0
1,note_on,68,0,120
1,note_on,71,42,0
1,note_on,71,0,120
1,note_on,72,45,0
1,note_on,72,0,240
1,note_on,64,35,120
1,note_on,64,0,120
1,note_on,76,38,0
1,note_on,76,0,120
1,note_on,75,34,0
1,note_on,75,0,120
1,note_on,76,41,0
1,note_on,76,0,120
1,note_on,75,37,0
1,note_on,75,0,120
1,note_on,76,46,0
1,note_on,76,0,120
1,note_on,71,39,0
1,note_on,71,0,120
1,note_on,74,48,0
1,note_on,74,0,120
1,note_on,72,39,0
1,note_on,72,0,120
1,note_on,69,48,0
1,note_on,69,0,240
1,note_on,60,34,120
1,note_on,60,0,120
1,note_on,64,37,0
1,note_on,64,0,120
1,note_on,69,41,0
1,note_on,69,0,120
1,note_on,71,45,0
1,note_on,71,0,240
1,note_on,64,37,120
1,note_on,64,0,120
1,note_on,72,40,0
1,note_on,72,0,120
1,note_on,71,38,0
1,note_on,71,0,120
1,note_on,69,40,0
1,note_on,69,0,240
1,note_on,64,40,120
1,note_on,72,46,0
1,note_on,72,0,90
1,note_on,64,0,0
1,note_on,65,41,30
1,note_on,72,47,0
1,note_on,72,0,90
1,note_on,65,0,0
1,note_on,64,43,30
1,note_on,67,43,0
1,note_on,72,49,0
1,note_on,72,0,60
1,note_on,67,0,0
1,note_on,64,0,0
1,note_on,65,43,0
1,note_on,65,0,30
1,note_on,69,41,0
1,note_on,69,0,30
1,note_on,72,55,0
1,note_on,72,0,480
1,note_on,77,57,0
1,note_on,77,0,180
1,note_on,76,52,0
1,note_on,76,0,58
1,note_on,76,57,2
1,note_on,76,0,240
1,note_on,74,51,0
1,note_on,74,0,240
1,note_on,82,62,0
1,note_on,82,0,180
1,note_on,81,56,0
1,note_on,81,0,58
1,note_on,81,56,2
1,note_on,81,0,120
1,note_on,79,56,0
1,note_on,79,0,120
1,note_on,77,55,0
1,note_on,77,0,120
1,note_on,76,55,0
1,note_on,76,0,120
1,note_on,74,55,0
1,note_on,74,0,120
1,note_on,72,54,0
1,note_on,72,0,120
1,note_on,70,54,0
1,note_on,70,0,240
1,note_on,69,51,0
1,note_on,69,0,210
1,note_on,70,44,0
1,note_on,70,0,30
1,note_on,69,49,0
1,note_on,69,0,60
1,note_on,67,50,0
1,note_on,67,0,60
1,note_on,69,51,0
1,note_on,69,0,60
1,note_on,70,52,0
1,note_on,70,0,60
1,note_on,72,54,0
1,note_on,72,0,480
1,note_on,74,55,0
1,note_on,74,0,120
1,note_on,75,57,0
1,note_on,75,0,120
1,note_on,76,59,0
1,note_on,76,0,360
1,note_on,76,58,0
1,note_on,76,0,120
1,note_on,77,63,0
1,note_on,77,0,120
1,note_on,69,58,0
1,note_on,69,0,120
1,note_on,72,64,0
1,note_on,72,0,480
1,note_on,74,64,0
1,note_on,74,0,180
1,note_on,71,57,0
1,note_on,71,0,60
1,note_on,72,64,0
1,note_on,72,0,60
1,note_on,79,57,0
1,note_on,79,0,60
1,note_on,67,64,0
1,note_on,67,0,60
1,note_on,79,57,0
1,note_on,79,0,60
1,note_on,69,64,0
1,note_on,69,0,60
1,note_on,79,63,0
1,note_on,79,0,60
1,note_on,71,66,0
1,note_on,71,0,60
1,note_on,79,63,0
1,note_on,79,0,60
1,note_on,72,68,0
1,note_on,72,0,60
1,note_on,79,66,0
1,note_on,79,0,60
1,note_on,74,70,0
1,note_on,74,0,60
1,note_on,79,65,0
1,note_on,79,0,60
1,note_on,76,72,0
1,note_on,76,0,60
1,note_on,79,63,0
1,note_on,79,0,60
1,note_on,84,67,0
1,note_on,84,0,60
1,note_on,83,62,0
1,note_on,83,0,60
1,note_on,81,67,0
1,note_on,81,0,60
1,note_on,79,62,0
1,note_on,79,0,60
1,note_on,77,67,0
1,note_on,77,0,60
1,note_on,76,61,0
1,note_on,76,0,60
1,note_on,74,69,0
1,note_on,74,0,60
1,note_on,79,63,0
1,note_on,79,0,60
1,note_on,77,69,0
1,note_on,77,0,60
1,note_on,74,64,0
1,note_on,74,0,60
1,note_on,72,64,0
1,note_on,72,0,60
1,note_on,79,57,0
1,note_on,79,0,60
1,note_on,67,64,0
1,note_on,67,0,60
1,note_on,79,57,0
1,note_on,79,0,60
1,note_on,69,64,0
1,note_on,69,0,60
1,note_on,79,63,0
1,note_on,79,0,60
1,note_on,71,66,0
1,note_on,71,0,60
1,note_on,79,63,0
1,note_on,79,0,60
1,note_on,72,68,0
1,note_on,72,0,60
1,note_on,79,66,0
1,note_on,79,0,60
1,note_on,74,70,0
1,note_on,74,0,60
1,note_on,79,65,0
1,note_on,79,0,60
1,note_on,76,72,0
1,note_on,76,0,60
1,note_on,79,65,0
1,note_on,79,0,60
1,note_on,84,69,0
1,note_on,84,0,60
1,note_on,83,64,0
1,note_on,83,0,60
1,note_on,81,70,0
1,note_on,81,0,60
1,note_on,79,60,0
1,note_on,79,0,60
1,note_on,77,64,0
1,note_on,77,0,60
1,note_on,76,55,0
1,note_on,76,0,60
1,note_on,74,65,0
1,note_on,74,0,60
1,note_on,79,57,0
1,note_on,79,0,60
1,note_on,77,63,0
1,note_on,77,0,60
1,note_on,74,53,0
1,note_on,74,0,60
1,note_on,76,57,0
1,note_on,76,0,60
1,note_on,77,50,0
1,note_on,77,0,60
1,note_on,76,50,0
1,note_on,76,0,60
1,note_on,75,50,0
1,note_on,75,0,60
1,note_on,76,57,0
1,note_on,76,0,60
1,note_on,71,49,0
1,note_on,71,0,60
1,note_on,76,54,0
1,note_on,76,0,60
1,note_on,75,52,0
1,note_on,75,0,60
1,note_on,76,57,0
1,note_on,76,0,60
1,note_on,71,51,0
1,note_on,71,0,60
1,note_on,76,54,0
1,note_on,76,0,60
1,note_on,75,49,0
1,note_on,75,0,60
1,note_on,76,57,0
1,note_on,76,0,360
1,note_on,71,52,0
1,note_on,71,0,120
1,note_on,76,57,0
1,note_on,76,0,120
1,note_on,75,49,0
1,note_on,75,0,120
1,note_on,76,56,0
1,note_on,76,0,360
1,note_on,71,42,0
1,note_on,71,0,120
1,note_on,76,50,0
1,note_on,76,0,90
1,note_on,75,39,270
1,note_on,75,0,120
1,note_on,76,41,0
1,note_on,76,0,90
1,note_on,75,34,270
1,note_on,75,0,120
1,note_on,76,40,0
1,note_on,76,0,120
1,note_on,75,36,0
1,note_on,75,0,120
1,note_on,76,40,0
1,note_on,76,0,120
1,note_on,71,36,0
1,note_on,71,0,120
1,note_on,74,43,0
1,note_on,74,0,120
1,note_on,72,35,0
1,note_on,72,0,120
1,note_on,69,45,0
1,note_on,69,0,240
1,note_on,60,34,120
1,note_on,60,0,120
1,note_on,64,38,0
1,note_on,64,0,120
1,note_on,69,42,0
1,note_on,69,0,120
1,note_on,71,46,0
1,note_on,71,0,240
1,note_on,64,36,120
1,note_on,64,0,120
1,note_on,68,39,0
1,note_on,68,0,120
1,note_on,71,42,0
1,note_on,71,0,120
1,note_on,72,45,0
1,note_on,72,0,240
1,note_on,64,35,120
1,note_on,64,0,120
1,note_on,76,38,0
1,note_on,76,0,120
1,note_on,75,34,0
1,note_on,75,0,120
1,note_on,76,41,0
1,note_on,76,0,120
1,note_on,75,37,0
1,note_on,75,0,120
1,note_on,76,46,0
1,note_on,76,0,120
1,note_on,71,39,0
1,note_on,71,0,120
1,note_on,74,48,0
1,note_on,74,0,120
1,note_on,72,39,0
1,note_on,72,0,120
1,note_on,69,48,0
1,note_on,69,0,240
1,note_on,60,34,120
1,note_on,60,0,120
1,note_on,64,37,0
1,note_on,64,0,120
1,note_on,69,41,0
1,note_on,69,0,120
1,note_on,71,45,0
1,note_on,71,0,240
1,note_on,64,37,120
1,note_on,64,0,120
1,note_on,72,40,0
1,note_on,72,0,120
1,note_on,71,38,0
1,note_on,71,0,120
1,note_on,69,40,0
1,note_on,69,0,240
1,note_on,71,44,120
1,note_on,71,0,120
1,note_on,72,46,0
1,note_on,72,0,120
1,note_on,74,48,0
1,note_on,74,0,120
1,note_on,76,52,0
1,note_on,76,0,360
1,note_on,67,40,0
1,note_on,67,0,120
1,note_on,77,46,0
1,note_on,77,0,120
1,note_on,76,43,0
1,note_on,76,0,120
1,note_on,74,50,0
1,note_on,74,0,360
1,note_on,65,40,0
1,note_on,65,0,120
1,note_on,76,46,0
1,note_on,76,0,120
1,note_on,74,43,0
1,note_on,74,0,120
1,note_on,72,50,0
1,note_on,72,0,360
1,note_on,64,40,0
1,note_on,64,0,120
1,note_on,74,46,0
1,note_on,74,0,120
1,note_on,72,43,0
1,note_on,72,0,120
1,note_on,71,50,0
1,note_on,71,0,240
1,note_on,64,39,120
1,note_on,64,0,120
1,note_on,76,45,0
1,note_on,76,0,90
1,note_on,76,43,270
1,note_on,76,0,120
1,note_on,88,48,0
1,note_on,88,0,90
1,note_on,75,42,270
1,note_on,75,0,120
1,note_on,76,48,0
1,note_on,76,0,90
1,note_on,75,35,270
1,note_on,75,0,120
1,note_on,76,37,0
1,note_on,76,0,120
1,note_on,75,34,0
1,note_on,75,0,120
1,note_on,76,40,0
1,note_on,76,0,120
1,note_on,75,36,0
1,note_on,75,0,120
1,note_on,76,43,0
1,note_on,76,0,120
1,note_on,71,38,0
1,note_on,71,0,120
1,note_on,74,44,0
1,note_on,74,0,120
1,note_on,72,38,0
1,note_on,72,0,120
1,note_on,69,47,0
1,note_on,69,0,240
1,note_on,60,34,120
1,note_on,60,0,120
1,note_on,64,38,0
1,note_on,64,0,120
1,note_on,69,42,0
1,note_on,69,0,120
1,note_on,71,46,0
1,note_on,71,0,240
1,note_on,64,36,120
1,note_on,64,0,120
1,note_on,68,39,0
1,note_on,68,0,120
1,note_on,71,42,0
1,note_on,71,0,120
1,note_on,72,45,0
1,note_on,72,0,240
1,note_on,64,35,120
1,note_on,64,0,120
1,note_on,76,38,0
1,note_on,76,0,120
1,note_on,75,34,0
1,note_on,75,0,120
1,note_on,76,41,0
1,note_on,76,0,120
1,note_on,75,37,0
1,note_on,75,0,120
1,note_on,76,41,0
1,note_on,76,0,120
1,note_on,71,34,0
1,note_on,71,0,120
1,note_on,74,45,0
1,note_on,74,0,120
1,note_on,72,36,0
1,note_on,72,0,120
1,note_on,69,46,0
1,note_on,69,0,240
1,note_on,60,34,120
1,note_on,60,0,120
1,note_on,64,37,0
1,note_on,64,0,120
1,note_on,69,41,0
1,note_on,69,0,120
1,note_on,71,45,0
1,note_on,71,0,240
1,note_on,64,37,120
1,note_on,64,0,120
1,note_on,72,40,0
1,note_on,72,0,120
1,note_on,71,38,0
1,note_on,71,0,120
1,note_on,69,40,0
1,note_on,69,0,240
1,note_on,64,45,480
1,note_on,67,45,0
1,note_on,70,45,0
1,note_on,73,53,0
1,note_on,73,0,720
1,note_on,64,0,0
1,note_on,67,0,0
1,note_on,70,0,0
1,note_on,65,49,0
1,note_on,69,49,0
1,note_on,74,59,0
1,note_on,74,0,480
1,note_on,69,0,0
1,note_on,65,0,0
1,note_on,73,54,0
1,note_on,76,64,0
1,note_on,76,0,90
1,note_on,73,0,0
1,note_on,74,59,30
1,note_on,77,70,0
1,note_on,77,0,90
1,note_on,74,0,0
1,note_on,68,65,30
1,note_on,74,65,0
1,note_on,77,77,0
1,note_on,77,0,480
1,note_on,74,0,0
1,note_on,68,0,0
1,note_on,68,63,0
1,note_on,74,63,0
1,note_on,77,75,0
1,note_on,77,0,240
1,note_on,74,0,0
1,note_on,68,0,0
1,note_on,69,60,0
1,note_on,72,60,0
1,note_on,76,72,0
1,note_on,76,0,720
1,note_on,72,0,0
1,note_on,69,0,0
1,note_on,65,69,0
1,note_on,74,82,0
1,note_on,74,0,480
1,note_on,65,0,0
1,note_on,64,61,0
1,note_on,72,73,0
1,note_on,72,0,90
1,note_on,64,0,0
1,note_on,62,61,30
1,note_on,71,73,0
1,note_on,71,0,90
1,note_on,62,0,0
1,note_on,60,67,30
1,note_on,66,67,0
1,note_on,69,79,0
1,note_on,69,0,480
1,note_on,66,0,0
1,note_on,60,0,0
1,note_on,60,66,0
1,note_on,69,78,0
1,note_on,69,0,240
1,note_on,60,0,0
1,note_on,60,68,0
1,note_on,69,80,0
1,note_on,69,0,240
1,note_on,60,0,0
1,note_on,64,66,0
1,note_on,72,78,0
1,note_on,72,0,240
1,note_on,64,0,0
1,note_on,62,61,0
1,note_on,71,73,0
1,note_on,71,0,240
1,note_on,62,0,0
1,note_on,60,56,0
1,note_on,69,67,0
1,note_on,69,0,720
1,note_on,60,0,0
1,note_on,64,45,0
1,note_on,67,45,0
1,note_on,70,45,0
1,note_on,73,53,0
1,note_on,73,0,720
1,note_on,64,0,0
1,note_on,67,0,0
1,note_on,70,0,0
1,note_on,65,49,0
1,note_on,69,49,0
1,note_on,74,59,0
1,note_on,74,0,480
1,note_on,69,0,0
1,note_on,65,0,0
1,note_on,73,54,0
1,note_on,76,64,0
1,note_on,76,0,90
1,note_on,73,0,0
1,note_on,74,59,30
1,note_on,77,70,0
1,note_on,77,0,90
1,note_on,74,0,0
1,note_on,74,65,30
1,note_on,77,77,0
1,note_on,77,0,480
1,note_on,74,0,0
1,note_on,74,63,0
1,note_on,77,75,0
1,note_on,77,0,240
1,note_on,74,0,0
1,note_on,74,60,0
1,note_on,77,72,0
1,note_on,77,0,720
1,note_on,74,0,0
1,note_on,67,69,0
1,note_on,75,82,0
1,note_on,75,0,480
1,note_on,67,0,0
1,note_on,65,61,0
1,note_on,74,73,0
1,note_on,74,0,90
1,note_on,65,0,0
1,note_on,63,61,30
1,note_on,72,73,0
1,note_on,72,0,90
1,note_on,63,0,0
1,note_on,62,67,30
1,note_on,65,67,0
1,note_on,70,79,0
1,note_on,70,0,480
1,note_on,65,0,0
1,note_on,62,0,0
1,note_on,65,66,0
1,note_on,62,66,0
1,note_on,69,78,0
1,note_on,69,0,240
1,note_on,62,0,0
1,note_on,65,0,0
1,note_on,65,68,0
1,note_on,62,68,0
1,note_on,68,80,0
1,note_on,68,0,480
1,note_on,62,0,0
1,note_on,65,0,0
1,note_on,65,61,0
1,note_on,62,61,0
1,note_on,68,73,0
1,note_on,68,0,240
1,note_on,62,0,0
1,note_on,65,0,0
1,note_on,64,61,0
1,note_on,60,61,0
1,note_on,69,73,0
1,note_on,69,0,480
1,note_on,60,0,0
1,note_on,64,0,0
1,note_on,64,49,240
1,note_on,71,58,0
1,note_on,71,0,240
1,note_on,64,0,0
1,note_on,57,42,480
1,note_on,57,0,80
1,note_on,60,44,0
1,note_on,60,0,80
1,note_on,64,45,0
1,note_on,64,0,80
1,note_on,69,47,0
1,note_on,69,0,80
1,note_on,72,43,0
1,note_on,72,0,80
1,note_on,76,43,0
1,note_on,76,0,80
1,note_on,74,47,0
1,note_on,74,0,80
1,note_on,72,43,0
1,note_on,72,0,80
1,note_on,71,43,0
1,note_on,71,0,80
1,note_on,69,45,0
1,note_on,69,0,80
1,note_on,72,47,0
1,note_on,72,0,80
1,note_on,76,48,0
1,note_on,76,0,80
1,note_on,81,50,0
1,note_on,81,0,80
1,note_on,84,47,0
1,note_on,84,0,80
1,note_on,88,47,0
1,note_on,88,0,80
1,note_on,86,52,0
1,note_on,86,0,80
1,note_on,84,47,0
1,note_on,84,0,80
1,note_on,83,47,0
1,note_on,83,0,80
1,note_on,81,49,0
1,note_on,81,0,80
1,note_on,84,51,0
1,note_on,84,0,80
1,note_on,88,53,0
1,note_on,88,0,80
1,note_on,93,53,0
1,note_on,93,0,80
1,note_on,96,50,0
1,note_on,96,0,80
1,note_on,100,50,0
1,note_on,100,0,80
1,note_on,98,54,0
1,note_on,98,0,80
1,note_on,96,49,0
1,note_on,96,0,80
1,note_on,95,50,0
1,note_on,95,0,80
1,note_on,94,54,0
1,note_on,94,0,80
1,note_on,93,50,0
1,note_on,93,0,80
1,note_on,92,49,0
1,note_on,92,0,80
1,note_on,91,51,0
1,note_on,91,0,80
1,note_on,90,49,0
1,note_on,90,0,80
1,note_on,89,48,0
1,note_on,89,0,80
1,note_on,88,51,0
1,note_on,88,0,80
1,note_on,87,49,0
1,note_on,87,0,80
1,note_on,86,50,0
1,note_on,86,0,80
1,note_on,85,50,0
1,note_on,85,0,80
1,note_on,84,49,0
1,note_on,84,0,80
1,note_on,83,49,0
1,note_on,83,0,80
1,note_on,82,48,0
1,note_on,82,0,80
1,note_on,81,48,0
1,note_on,81,0,80
1,note_on,80,47,0
1,note_on,80,0,80
1,note_on,79,47,0
1,note_on,79,0,80
1,note_on,78,46,0
1,note_on,78,0,80
1,note_on,77,46,0
1,note_on,77,0,80
1,note_on,76,39,0
1,note_on,76,0,120
1,note_on,75,36,0
1,note_on,75,0,120
1,note_on,76,41,0
1,note_on,76,0,120
1,note_on,71,35,0
1,note_on,71,0,120
1,note_on,74,43,0
1,note_on,74,0,120
1,note_on,72,39,0
1,note_on,72,0,120
1,note_on,69,46,0
1,note_on,69,0,240
1,note_on,60,34,120
1,note_on,60,0,120
1,note_on,64,38,0
1,note_on,64,0,120
1,note_on,69,42,0
1,note_on,69,0,120
1,note_on,71,46,0
1,note_on,71,0,240
1,note_on,64,36,120
1,note_on,64,0,120
1,note_on,68,39,0
1,note_on,68,0,120
1,note_on,71,42,0
1,note_on,71,0,120
1,note_on,72,45,0
1,note_on,72,0,240
1,note_on,64,35,120
1,note_on,64,0,120
1,note_on,76,38,0
1,note_on,76,0,120
1,note_on,75,34,0
1,note_on,75,0,120
1,note_on,76,41,0
1,note_on,76,0,120
1,note_on,75,37,0
1,note_on,75,0,120
1,note_on,76,46,0
1,note_on,76,0,120
1,note_on,71,39,0
1,note_on,71,0,120
1,note_on,74,48,0
1,note_on,74,0,120
1,note_on,72,39,0
1,note_on,72,0,120
1,note_on,69,48,0
1,note_on,69,0,240
1,note_on,60,34,120
1,note_on,60,0,120
1,note_on,64,37,0
1,note_on,64,0,120
1,note_on,69,41,0
1,note_on,69,0,120
1,note_on,71,45,0
1,note_on,71,0,240
1,note_on,64,37,120
1,note_on,64,0,120
1,note_on,72,40,0
1,note_on,72,0,120
1,note_on,71,38,0
1,note_on,71,0,120
1,note_on,69,40,0
1,note_on,69,0,240
1,note_on,71,38,120
1,note_on,71,0,120
1,note_on,72,42,0
1,note_on,72,0,120
1,note_on,74,46,0
1,note_on,74,0,120
1,note_on,76,50,0
1,note_on,76,0,360
1,note_on,67,40,0
1,note_on,67,0,120
1,note_on,77,46,0
1,note_on,77,0,120
1,note_on,76,43,0
1,note_on,76,0,120
1,note_on,74,50,0
1,note_on,74,0,360
1,note_on,65,40,0
1,note_on,65,0,120
1,note_on,76,46,0
1,note_on,76,0,120
1,note_on,74,43,0
1,note_on,74,0,120
1,note_on,72,50,0
1,note_on,72,0,360
1,note_on,64,40,0
1,note_on,64,0,120
1,note_on,74,46,0
1,note_on,74,0,120
1,note_on,72,43,0
1,note_on,72,0,120
1,note_on,71,50,0
1,note_on,71,0,240
1,note_on,64,39,120
1,note_on,64,0,120
1,note_on,76,45,0
1,note_on,76,0,90
1,note_on,76,43,270
1,note_on,76,0,120
1,note_on,88,48,0
1,note_on,88,0,90
1,note_on,75,42,270
1,note_on,75,0,120
1,note_on,76,48,0
1,note_on,76,0,90
1,note_on,75,35,270
1,note_on,75,0,120
1,note_on,76,37,0
1,note_on,76,0,120
1,note_on,75,34,0
1,note_on,75,0,120
1,note_on,76,40,0
1,note_on,76,0,120
1,note_on,75,36,0
1,note_on,75,0,120
1,note_on,76,42,0
1,note_on,76,0,120
1,note_on,71,36,0
1,note_on,71,0,120
1,note_on,74,43,0
1,note_on,74,0,120
1,note_on,72,35,0
1,note_on,72,0,120
1,note_on,69,48,0
1,note_on,69,0,240
1,note_on,60,34,120
1,note_on,60,0,120
1,note_on,64,38,0
1,note_on,64,0,120
1,note_on,69,42,0
1,note_on,69,0,120
1,note_on,71,46,0
1,note_on,71,0,240
1,note_on,64,36,120
1,note_on,64,0,120
1,note_on,68,39,0
1,note_on,68,0,120
1,note_on,71,42,0
1,note_on,71,0,120
1,note_on,72,45,0
1,note_on,72,0,240
1,note_on,64,35,120
1,note_on,64,0,120
1,note_on,76,38,0
1,note_on,76,0,120
1,note_on,75,34,0
1,note_on,75,0,120
1,note_on,76,41,0
1,note_on,76,0,120
1,note_on,75,37,0
1,note_on,75,0,120
1,note_on,76,46,0
1,note_on,76,0,120
1,note_on,71,39,0
1,note_on,71,0,120
1,note_on,74,48,0
1,note_on,74,0,120
1,note_on,72,39,0
1,note_on,72,0,120
1,note_on,69,48,0
1,note_on,69,0,240
1,note_on,60,34,120
1,note_on,60,0,120
1,note_on,64,37,0
1,note_on,64,0,120
1,note_on,69,41,0
1,note_on,69,0,120
1,note_on,71,45,0
1,note_on,71,0,240
1,note_on,64,37,120
1,note_on,64,0,120
1,note_on,72,40,0
1,note_on,72,0,120
1,note_on,71,38,0
1,note_on,71,0,120
1,note_on,69,36,0
1,note_on,69,0,240
2,note_on,45,37,1440
2,note_on,45,0,84
2,note_on,52,33,0
2,note_on,52,0,120
2,note_on,57,33,0
2,note_on,57,0,120
2,note_on,40,40,360
2,note_on,40,0,63
2,note_on,52,33,0
2,note_on,52,0,120
2,note_on,56,34,0
2,note_on,56,0,120
2,note_on,45,38,360
2,note_on,45,0,69
2,note_on,52,35,0
2,note_on,52,0,120
2,note_on,57,35,0
2,note_on,57,0,120
2,note_on,45,36,1046
2,note_on,45,0,70
2,note_on,52,35,0
2,note_on,52,0,120
2,note_on,57,34,0
2,note_on,57,0,120
2,note_on,40,38,360
2,note_on,40,0,51
2,note_on,52,35,0
2,note_on,52,0,120
2,note_on,56,36,0
2,note_on,56,0,120
2,note_on,45,38,360
2,note_on,45,0,64
2,note_on,52,32,0
2,note_on,52,0,120
2,note_on,57,32,0
2,note_on,57,0,120
2,note_on,45,37,1057
2,note_on,45,0,77
2,note_on,52,33,0
2,note_on,52,0,120
2,note_on,57,33,0
2,note_on,57,0,120
2,note_on,40,40,360
2,note_on,40,0,63
2,note_on,52,33,0
2,note_on,52,0,120
2,note_on,56,34,0
2,note_on,56,0,120
2,note_on,45,38,360
2,note_on,45,0,69
2,note_on,52,35,0
2,note_on,52,0,120
2,note_on,57,35,0
2,note_on,57,0,120
2,note_on,45,38,1046
2,note_on,45,0,56
2,note_on,52,35,0
2,note_on,52,0,120
2,note_on,57,34,0
2,note_on,57,0,120
2,note_on,40,38,360
2,note_on,40,0,51
2,note_on,52,37,0
2,note_on,52,0,120
2,note_on,56,37,0
2,note_on,56,0,120
2,note_on,45,38,360
2,note_on,45,0,64
2,note_on,52,32,0
2,note_on,52,0,120
2,note_on,57,32,0
2,note_on,57,0,78
2,note_on,48,44,360
2,note_on,48,0,51
2,note_on,55,38,0
2,note_on,55,0,120
2,note_on,60,39,0
2,note_on,60,0,120
2,note_on,43,44,360
2,note_on,43,0,51
2,note_on,55,38,0
2,note_on,55,0,120
2,note_on,59,39,0
2,note_on,59,0,120
2,note_on,45,44,360
2,note_on,45,0,51
2,note_on,52,38,0
2,note_on,52,0,120
2,note_on,57,39,0
2,note_on,57,0,120
2,note_on,40,44,360
2,note_on,40,0,51
2,note_on,52,38,0
2,note_on,52,0,120
2,note_on,64,39,0
2,note_on,64,0,90
2,note_on,64,39,270
2,note_on,64,0,120
2,note_on,76,44,0
2,note_on,76,0,90
2,note_on,75,42,42
2,note_on,75,0,120
2,note_on,76,50,0
2,note_on,76,0,90
2,note_on,75,39,270
2,note_on,75,0,120
2,note_on,76,41,0
2,note_on,76,0,90
2,note_on,45,36,1110
2,note_on,45,0,70
2,note_on,52,33,0
2,note_on,52,0,120
2,note_on,57,33,0
2,note_on,57,0,120
2,note_on,40,40,360
2,note_on,40,0,63
2,note_on,52,33,0
2,note_on,52,0,120
2,note_on,56,34,0
2,note_on,56,0,120
2,note_on,45,38,360
2,note_on,45,0,69
2,note_on,52,35,0
2,note_on,52,0,120
2,note_on,57,35,0
2,note_on,57,0,120
2,note_on,45,38,1046
2,note_on,45,0,63
2,note_on,52,35,0
2,note_on,52,0,120
2,note_on,57,34,0
2,note_on,57,0,120
2,note_on,40,38,360
2,note_on,40,0,51
2,note_on,52,37,0
2,note_on,52,0,120
2,note_on,56,37,0
2,note_on,56,0,120
2,note_on,45,38,360
2,note_on,45,0,64
2,note_on,52,32,0
2,note_on,52,0,120
2,note_on,57,32,0
2,note_on,57,0,120
2,note_on,48,44,337
2,note_on,48,0,51
2,note_on,55,38,0
2,note_on,55,0,120
2,note_on,60,39,0
2,note_on,60,0,120
2,note_on,43,44,360
2,note_on,43,0,51
2,note_on,55,38,0
2,note_on,55,0,120
2,note_on,59,39,0
2,note_on,59,0,120
2,note_on,45,44,360
2,note_on,45,0,51
2,note_on,52,38,0
2,note_on,52,0,120
2,note_on,57,39,0
2,note_on,57,0,120
2,note_on,40,44,360
2,note_on,40,0,51
2,note_on,52,38,0
2,note_on,52,0,120
2,note_on,64,39,0
2,note_on,64,0,90
2,note_on,64,39,270
2,note_on,64,0,120
2,note_on,76,44,0
2,note_on,76,0,90
2,note_on,75,42,42
2,note_on,75,0,120
2,note_on,76,50,0
2,note_on,76,0,90
2,note_on,75,39,270
2,note_on,75,0,120
2,note_on,76,41,0
2,note_on,76,0,90
2,note_on,45,34,1110
2,note_on,45,0,70
2,note_on,52,32,0
2,note_on,52,0,120
2,note_on,57,32,0
2,note_on,57,0,120
2,note_on,40,38,360
2,note_on,40,0,63
2,note_on,52,33,0
2,note_on,52,0,120
2,note_on,56,34,0
2,note_on,56,0,120
2,note_on,45,38,360
2,note_on,45,0,69
2,note_on,52,35,0
2,note_on,52,0,120
2,note_on,57,35,0
2,note_on,57,0,120
2,note_on,45,38,1046
2,note_on,45,0,63
2,note_on,52,35,0
2,note_on,52,0,120
2,note_on,57,34,0
2,note_on,57,0,120
2,note_on,40,38,360
2,note_on,40,0,51
2,note_on,52,37,0
2,note_on,52,0,120
2,note_on,56,37,0
2,note_on,56,0,120
2,note_on,45,38,360
2,note_on,45,0,64
2,note_on,52,32,0
2,note_on,52,0,120
2,note_on,57,32,0
2,note_on,57,0,120
2,note_on,58,34,0
2,note_on,60,34,0
2,note_on,60,0,90
2,note_on,58,0,0
2,note_on,57,34,30
2,note_on,60,34,0
2,note_on,60,0,90
2,note_on,57,0,0
2,note_on,55,34,30
2,note_on,58,34,0
2,note_on,60,34,0
2,note_on,60,0,60
2,note_on,58,0,0
2,note_on,55,0,0
2,note_on,53,44,22
2,note_on,53,0,120
2,note_on,57,38,0
2,note_on,57,0,120
2,note_on,60,36,0
2,note_on,60,0,120
2,note_on,57,37,0
2,note_on,57,0,120
2,note_on,60,37,0
2,note_on,60,0,120
2,note_on,57,37,0
2,note_on,57,0,120
2,note_on,53,44,0
2,note_on,53,0,42
2,note_on,58,38,0
2,note_on,58,0,120
2,note_on,62,37,0
2,note_on,62,0,120
2,note_on,58,37,0
2,note_on,58,0,120
2,note_on,62,37,0
2,note_on,62,0,120
2,note_on,58,38,0
2,note_on,58,0,120
2,note_on,53,44,0
2,note_on,53,0,70
2,note_on,64,37,0
2,note_on,64,0,120
2,note_on,53,36,0
2,note_on,58,36,0
2,note_on,55,36,0
2,note_on,55,0,120
2,note_on,58,0,0
2,note_on,53,0,0
2,note_on,64,36,0
2,note_on,64,0,120
2,note_on,53,36,0
2,note_on,55,36,0
2,note_on,58,36,0
2,note_on,58,0,120
2,note_on,55,0,0
2,note_on,53,0,0
2,note_on,64,36,0
2,note_on,64,0,120
2,note_on,53,44,0
2,note_on,53,0,49
2,note_on,57,36,0
2,note_on,57,0,120
2,note_on,60,36,0
2,note_on,60,0,120
2,note_on,57,36,0
2,note_on,57,0,120
2,note_on,60,36,0
2,note_on,60,0,120
2,note_on,57,36,0
2,note_on,57,0,120
2,note_on,53,42,0
2,note_on,53,0,46
2,note_on,57,34,0
2,note_on,57,0,120
2,note_on,60,35,0
2,note_on,60,0,120
2,note_on,57,36,0
2,note_on,57,0,120
2,note_on,60,38,0
2,note_on,60,0,120
2,note_on,57,39,0
2,note_on,57,0,120
2,note_on,52,49,0
2,note_on,52,0,42
2,note_on,57,38,0
2,note_on,57,0,120
2,note_on,60,38,0
2,note_on,60,0,120
2,note_on,57,38,0
2,note_on,57,0,120
2,note_on,50,38,0
2,note_on,62,38,0
2,note_on,62,0,49
2,note_on,50,0,0
2,note_on,53,38,0
2,note_on,53,0,120
2,note_on,55,47,0
2,note_on,55,0,42
2,note_on,64,38,0
2,note_on,64,0,120
2,note_on,55,40,0
2,note_on,55,0,120
2,note_on,64,38,0
2,note_on,64,0,120
2,note_on,55,41,0
2,note_on,55,0,71
2,note_on,65,38,0
2,note_on,65,0,120
2,note_on,60,45,0
2,note_on,64,45,0
2,note_on,64,0,208
2,note_on,60,0,0
2,note_on,65,40,11
2,note_on,67,40,0
2,note_on,67,0,90
2,note_on,65,0,0
2,note_on,64,43,30
2,note_on,67,43,0
2,note_on,67,0,90
2,note_on,64,0,0
2,note_on,62,46,30
2,note_on,65,46,0
2,note_on,67,46,0
2,note_on,67,0,90
2,note_on,65,0,0
2,note_on,62,0,0
2,note_on,60,49,30
2,note_on,64,49,0
2,note_on,67,49,0
2,note_on,67,0,240
2,note_on,64,0,0
2,note_on,60,0,0
2,note_on,53,42,0
2,note_on,57,42,0
2,note_on,57,0,240
2,note_on,53,0,0
2,note_on,55,42,0
2,note_on,59,42,0
2,note_on,59,0,240
2,note_on,55,0,0
2,note_on,60,45,0
2,note_on,60,0,208
2,note_on,65,40,11
2,note_on,67,40,0
2,note_on,67,0,90
2,note_on,65,0,0
2,note_on,64,43,30
2,note_on,67,43,0
2,note_on,67,0,90
2,note_on,64,0,0
2,note_on,62,46,30
2,note_on,65,46,0
2,note_on,67,46,0
2,note_on,67,0,90
2,note_on,65,0,0
2,note_on,62,0,0
2,note_on,60,49,30
2,note_on,64,49,0
2,note_on,67,49,0
2,note_on,67,0,240
2,note_on,64,0,0
2,note_on,60,0,0
2,note_on,53,42,0
2,note_on,57,42,0
2,note_on,57,0,240
2,note_on,53,0,0
2,note_on,55,42,0
2,note_on,59,42,0
2,note_on,59,0,240
2,note_on,55,0,0
2,note_on,59,42,0
2,note_on,56,42,0
2,note_on,56,0,240
2,note_on,59,0,0
2,note_on,75,42,1800
2,note_on,75,0,120
2,note_on,76,48,0
2,note_on,76,0,90
2,note_on,75,35,270
2,note_on,75,0,120
2,note_on,76,37,0
2,note_on,76,0,90
2,note_on,45,35,870
2,note_on,45,0,56
2,note_on,52,31,0
2,note_on,52,0,120
2,note_on,57,31,0
2,note_on,57,0,120
2,note_on,40,40,360
2,note_on,40,0,63
2,note_on,52,33,0
2,note_on,52,0,120
2,note_on,56,34,0
2,note_on,56,0,120
2,note_on,45,38,360
2,note_on,45,0,69
2,note_on,52,35,0
2,note_on,52,0,120
2,note_on,57,35,0
2,note_on,57,0,120
2,note_on,45,38,1046
2,note_on,45,0,63
2,note_on,52,35,0
2,note_on,52,0,120
2,note_on,57,34,0
2,note_on,57,0,120
2,note_on,40,38,360
2,note_on,40,0,51
2,note_on,52,37,0
2,note_on,52,0,120
2,note_on,56,37,0
2,note_on,56,0,120
2,note_on,45,38,360
2,note_on,45,0,64
2,note_on,52,32,0
2,note_on,52,0,120
2,note_on,57,32,0
2,note_on,57,0,78
2,note_on,48,44,360
2,note_on,48,0,51
2,note_on,55,38,0
2,note_on,55,0,120
2,note_on,60,39,0
2,note_on,60,0,120
2,note_on,43,44,360
2,note_on,43,0,51
2,note_on,55,38,0
2,note_on,55,0,120
2,note_on,59,39,0
2,note_on,59,0,120
2,note_on,45,44,360
2,note_on,45,0,51
2,note_on,52,38,0
2,note_on,52,0,120
2,note_on,57,39,0
2,note_on,57,0,120
2,note_on,40,44,360
2,note_on,40,0,51
2,note_on,52,38,0
2,note_on,52,0,120
2,note_on,64,39,0
2,note_on,64,0,90
2,note_on,64,39,270
2,note_on,64,0,120
2,note_on,76,44,0
2,note_on,76,0,90
2,note_on,75,42,42
2,note_on,75,0,120
2,note_on,76,50,0
2,note_on,76,0,90
2,note_on,75,39,270
2,note_on,75,0,120
2,note_on,76,41,0
2,note_on,76,0,90
2,note_on,45,35,1110
2,note_on,45,0,56
2,note_on,52,33,0
2,note_on,52,0,120
2,note_on,57,33,0
2,note_on,57,0,120
2,note_on,40,37,360
2,note_on,40,0,63
2,note_on,52,33,0
2,note_on,52,0,120
2,note_on,56,34,0
2,note_on,56,0,120
2,note_on,45,38,360
2,note_on,45,0,69
2,note_on,52,33,0
2,note_on,52,0,120
2,note_on,57,33,0
2,note_on,57,0,120
2,note_on,45,36,1046
2,note_on,45,0,63
2,note_on,52,35,0
2,note_on,52,0,120
2,note_on,57,34,0
2,note_on,57,0,120
2,note_on,40,38,360
2,note_on,40,0,51
2,note_on,52,37,0
2,note_on,52,0,120
2,note_on,56,37,0
2,note_on,56,0,120
2,note_on,45,38,360
2,note_on,45,0,72
2,note_on,45,35,30
2,note_on,45,0,90
2,note_on,45,38,30
2,note_on,45,0,90
2,note_on,45,34,30
2,note_on,45,0,90
2,note_on,45,38,30
2,note_on,45,0,90
2,note_on,45,35,30
2,note_on,45,0,90
2,note_on,45,44,30
2,note_on,45,0,90
2,note_on,45,38,30
2,note_on,45,0,90
2,note_on,45,45,30
2,note_on,45,0,90
2,note_on,45,39,30
2,note_on,45,0,90
2,note_on,45,46,30
2,note_on,45,0,90
2,note_on,45,40,30
2,note_on,45,0,90
2,note_on,45,47,30
2,note_on,45,0,90
2,note_on,45,42,30
2,note_on,45,0,90
2,note_on,45,48,30
2,note_on,45,0,90
2,note_on,45,43,30
2,note_on,45,0,90
2,note_on,45,50,30
2,note_on,45,0,90
2,note_on,45,47,30
2,note_on,45,0,90
2,note_on,45,53,30
2,note_on,45,0,90
2,note_on,45,48,30
2,note_on,45,0,90
2,note_on,45,53,30
2,note_on,45,0,90
2,note_on,45,50,30
2,note_on,45,0,90
2,note_on,45,54,30
2,note_on,45,0,90
2,note_on,45,50,30
2,note_on,45,0,90
2,note_on,45,55,30
2,note_on,45,0,90
2,note_on,45,49,30
2,note_on,45,0,90
2,note_on,45,55,30
2,note_on,45,0,90
2,note_on,45,51,30
2,note_on,45,0,90
2,note_on,45,55,30
2,note_on,45,0,90
2,note_on,45,52,30
2,note_on,45,0,90
2,note_on,38,50,30
2,note_on,45,60,0
2,note_on,45,0,90
2,note_on,38,0,0
2,note_on,38,46,30
2,note_on,45,55,0
2,note_on,45,0,90
2,note_on,38,0,0
2,note_on,38,49,30
2,note_on,45,58,0
2,note_on,45,0,90
2,note_on,38,0,0
2,note_on,38,46,30
2,note_on,45,55,0
2,note_on,45,0,90
2,note_on,38,0,0
2,note_on,38,48,30
2,note_on,45,57,0
2,note_on,45,0,90
2,note_on,38,0,0
2,note_on,38,44,30
2,note_on,45,52,0
2,note_on,45,0,90
2,note_on,38,0,0
2,note_on,39,46,30
2,note_on,45,55,0
2,note_on,45,0,90
2,note_on,39,0,0
2,note_on,39,42,30
2,note_on,45,50,0
2,note_on,45,0,90
2,note_on,39,0,0
2,note_on,39,45,30
2,note_on,45,53,0
2,note_on,45,0,90
2,note_on,39,0,0
2,note_on,39,41,30
2,note_on,45,49,0
2,note_on,45,0,90
2,note_on,39,0,0
2,note_on,39,42,30
2,note_on,45,51,0
2,note_on,45,0,90
2,note_on,39,0,0
2,note_on,39,42,30
2,note_on,45,50,0
2,note_on,45,0,90
2,note_on,39,0,0
2,note_on,40,47,30
2,note_on,45,56,0
2,note_on,45,0,90
2,note_on,40,0,0
2,note_on,40,41,30
2,note_on,45,49,0
2,note_on,45,0,90
2,note_on,40,0,0
2,note_on,40,44,30
2,note_on,45,52,0
2,note_on,45,0,90
2,note_on,40,0,0
2,note_on,40,41,30
2,note_on,45,49,0
2,note_on,45,0,90
2,note_on,40,0,0
2,note_on,44,50,30
2,note_on,40,42,0
2,note_on,40,0,90
2,note_on,44,0,0
2,note_on,44,50,30
2,note_on,40,42,0
2,note_on,40,0,90
2,note_on,44,0,0
2,note_on,33,42,30
2,note_on,45,50,0
2,note_on,45,0,90
2,note_on,33,0,0
2,note_on,45,42,30
2,note_on,45,0,90
2,note_on,45,45,30
2,note_on,45,0,90
2,note_on,45,42,30
2,note_on,45,0,90
2,note_on,45,44,30
2,note_on,45,0,90
2,note_on,45,42,30
2,note_on,45,0,90
2,note_on,45,44,30
2,note_on,45,0,90
2,note_on,45,38,30
2,note_on,45,0,90
2,note_on,45,45,30
2,note_on,45,0,90
2,note_on,45,39,30
2,note_on,45,0,90
2,note_on,45,46,30
2,note_on,45,0,90
2,note_on,45,40,30
2,note_on,45,0,90
2,note_on,45,47,30
2,note_on,45,0,90
2,note_on,45,42,30
2,note_on,45,0,90
2,note_on,45,48,30
2,note_on,45,0,90
2,note_on,45,43,30
2,note_on,45,0,90
2,note_on,45,50,30
2,note_on,45,0,90
2,note_on,45,47,30
2,note_on,45,0,90
2,note_on,45,53,30
2,note_on,45,0,90
2,note_on,45,48,30
2,note_on,45,0,90
2,note_on,45,53,30
2,note_on,45,0,90
2,note_on,45,50,30
2,note_on,45,0,90
2,note_on,45,54,30
2,note_on,45,0,90
2,note_on,45,50,30
2,note_on,45,0,90
2,note_on,46,55,30
2,note_on,46,0,90
2,note_on,46,49,30
2,note_on,46,0,90
2,note_on,46,55,30
2,note_on,46,0,90
2,note_on,46,51,30
2,note_on,46,0,90
2,note_on,46,55,30
2,note_on,46,0,90
2,note_on,46,52,30
2,note_on,46,0,90
2,note_on,46,60,30
2,note_on,46,0,90
2,note_on,46,55,30
2,note_on,46,0,90
2,note_on,46,58,30
2,note_on,46,0,90
2,note_on,46,55,30
2,note_on,46,0,90
2,note_on,46,57,30
2,note_on,46,0,90
2,note_on,46,52,30
2,note_on,46,0,90
2,note_on,46,55,30
2,note_on,46,0,90
2,note_on,46,50,30
2,note_on,46,0,90
2,note_on,46,53,30
2,note_on,46,0,90
2,note_on,46,49,30
2,note_on,46,0,90
2,note_on,46,51,30
2,note_on,46,0,90
2,note_on,46,50,30
2,note_on,46,0,90
2,note_on,47,56,30
2,note_on,47,0,90
2,note_on,47,49,30
2,note_on,47,0,90
2,note_on,47,52,30
2,note_on,47,0,90
2,note_on,47,49,30
2,note_on,47,0,90
2,note_on,47,50,30
2,note_on,47,0,90
2,note_on,47,50,30
2,note_on,47,0,90
2,note_on,48,55,30
2,note_on,48,0,480
2,note_on,52,39,240
2,note_on,56,44,0
2,note_on,56,0,240
2,note_on,52,0,0
2,note_on,33,35,480
2,note_on,33,0,208
2,note_on,64,32,240
2,note_on,60,27,0
2,note_on,57,27,0
2,note_on,57,0,240
2,note_on,60,0,0
2,note_on,64,0,0
2,note_on,64,33,0
2,note_on,60,28,0
2,note_on,57,28,0
2,note_on,57,0,240
2,note_on,60,0,0
2,note_on,64,0,0
2,note_on,64,32,240
2,note_on,60,27,0
2,note_on,57,27,0
2,note_on,57,0,240
2,note_on,60,0,0
2,note_on,64,0,0
2,note_on,64,34,0
2,note_on,60,28,0
2,note_on,57,28,0
2,note_on,57,0,240
2,note_on,60,0,0
2,note_on,64,0,0
2,note_on,64,32,240
2,note_on,60,27,0
2,note_on,57,27,0
2,note_on,57,0,240
2,note_on,60,0,0
2,note_on,64,0,0
2,note_on,64,33,0
2,note_on,60,28,0
2,note_on,57,28,0
2,note_on,57,0,240
2,note_on,60,0,0
2,note_on,64,0,0
2,note_on,45,37,720
2,note_on,45,0,77
2,note_on,52,33,0
2,note_on,52,0,120
2,note_on,57,33,0
2,note_on,57,0,120
2,note_on,40,40,360
2,note_on,40,0,63
2,note_on,52,33,0
2,note_on,52,0,120
2,note_on,56,34,0
2,note_on,56,0,120
2,note_on,45,38,360
2,note_on,45,0,69
2,note_on,52,35,0
2,note_on,52,0,120
2,note_on,57,35,0
2,note_on,57,0,120
2,note_on,45,38,1046
2,note_on,45,0,63
2,note_on,52,35,0
2,note_on,52,0,120
2,note_on,57,34,0
2,note_on,57,0,120
2,note_on,40,38,360
2,note_on,40,0,51
2,note_on,52,37,0
2,note_on,52,0,120
2,note_on,56,37,0
2,note_on,56,0,120
2,note_on,45,38,360
2,note_on,45,0,64
2,note_on,52,32,0
2,note_on,52,0,120
2,note_on,57,32,0
2,note_on,57,0,78
2,note_on,48,44,360
2,note_on,48,0,51
2,note_on,55,38,0
2,note_on,55,0,120
2,note_on,60,39,0
2,note_on,60,0,120
2,note_on,43,44,360
2,note_on,43,0,51
2,note_on,55,38,0
2,note_on,55,0,120
2,note_on,59,39,0
2,note_on,59,0,120
2,note_on,45,44,360
2,note_on,45,0,51
2,note_on,52,38,0
2,note_on,52,0,120
2,note_on,57,39,0
2,note_on,57,0,120
2,note_on,40,44,360
2,note_on,40,0,51
2,note_on,52,38,0
2,note_on,52,0,120
2,note_on,64,39,0
2,note_on,64,0,90
2,note_on,64,39,270
2,note_on,64,0,120
2,note_on,76,44,0
2,note_on,76,0,90
2,note_on,75,42,42
2,note_on,75,0,120
2,note_on,76,50,0
2,note_on,76,0,90
2,note_on,75,39,270
2,note_on,75,0,120
2,note_on,76,41,0
2,note_on,76,0,90
2,note_on,45,36,1110
2,note_on,45,0,49
2,note_on,52,33,0
2,note_on,52,0,120
2,note_on,57,33,0
2,note_on,57,0,120
2,note_on,40,40,360
2,note_on,40,0,63
2,note_on,52,33,0
2,note_on,52,0,120
2,note_on,56,34,0
2,note_on,56,0,120
2,note_on,45,38,360
2,note_on,45,0,69
2,note_on,52,35,0
2,note_on,52,0,120
2,note_on,57,35,0
2,note_on,57,0,120
2,note_on,45,38,1046
2,note_on,45,0,70
2,note_on,52,35,0
2,note_on,52,0,120
2,note_on,57,34,0
2,note_on,57,0,120
2,note_on,40,38,360
2,note_on,40,0,51
2,note_on,52,37,0
2,note_on,52,0,120
2,note_on,56,37,0
2,note_on,56,0,120
2,note_on,33,17,360
2,note_on,45,25,0
2,note_on,45,0,147
2,note_on,33,0,0
