Track,Message Type,Note,Velocity,Time
1,note_on,62,82,0
1,note_on,62,0,480
1,note_on,64,78,0
1,note_on,64,0,120
1,note_on,62,75,120
1,note_on,62,0,120
1,note_on,61,79,120
1,note_on,61,0,120
1,note_on,62,73,120
1,note_on,62,0,120
1,note_on,64,81,120
1,note_on,64,0,120
1,note_on,67,75,360
1,note_on,67,0,120
1,note_on,66,73,360
1,note_on,66,0,120
1,note_on,62,82,360
1,note_on,62,0,420
1,note_on,66,71,0
1,note_on,66,0,60
1,note_on,64,75,0
1,note_on,64,0,120
1,note_on,62,73,120
1,note_on,62,0,120
1,note_on,61,77,120
1,note_on,61,0,120
1,note_on,62,71,120
1,note_on,62,0,120
1,note_on,64,80,120
1,note_on,64,0,120
1,note_on,67,74,360
1,note_on,67,0,120
1,note_on,66,73,360
1,note_on,66,0,120
1,note_on,62,80,360
1,note_on,62,0,480
1,note_on,64,73,0
1,note_on,64,0,240
1,note_on,66,74,0
1,note_on,66,0,240
1,note_on,69,77,0
1,note_on,69,0,240
1,note_on,72,78,0
1,note_on,72,0,240
1,note_on,76,79,0
1,note_on,76,0,480
1,note_on,79,78,0
1,note_on,79,0,480
1,note_on,78,78,0
1,note_on,78,0,480
1,note_on,62,60,0
1,note_on,66,60,0
1,note_on,78,79,0
1,note_on,78,0,480
1,note_on,66,0,0
1,note_on,62,0,0
1,note_on,79,72,0
1,note_on,67,57,0
1,note_on,67,0,240
1,note_on,79,0,0
1,note_on,66,57,0
1,note_on,78,72,0
1,note_on,78,0,240
1,note_on,66,0,0
1,note_on,76,71,0
1,note_on,64,56,0
1,note_on,64,0,240
1,note_on,76,0,0
1,note_on,62,56,0
1,note_on,74,71,0
1,note_on,74,0,240
1,note_on,62,0,0
1,note_on,67,70,0
1,note_on,73,77,0
1,note_on,73,0,420
1,note_on,67,0,0
1,note_on,74,64,0
1,note_on,74,0,60
1,note_on,73,73,0
1,note_on,73,0,240
1,note_on,69,67,0
1,note_on,69,0,240
1,note_on,71,72,0
1,note_on,71,0,240
1,note_on,73,69,0
1,note_on,73,0,240
1,note_on,66,74,0
1,note_on,74,74,0
1,note_on,74,0,480
1,note_on,66,0,0
1,note_on,64,78,0
1,note_on,64,0,120
1,note_on,62,75,120
1,note_on,62,0,120
1,note_on,61,79,120
1,note_on,61,0,120
1,note_on,62,73,120
1,note_on,62,0,120
1,note_on,64,81,120
1,note_on,64,0,120
1,note_on,67,74,360
1,note_on,67,0,120
1,note_on,66,73,360
1,note_on,66,0,120
1,note_on,62,82,360
1,note_on,62,0,420
1,note_on,66,71,0
1,note_on,66,0,60
1,note_on,64,75,0
1,note_on,64,0,120
1,note_on,62,73,120
1,note_on,62,0,120
1,note_on,61,77,120
1,note_on,61,0,120
1,note_on,62,71,120
1,note_on,62,0,120
1,note_on,64,80,120
1,note_on,64,0,120
1,note_on,67,74,360
1,note_on,67,0,120
1,note_on,66,73,360
1,note_on,66,0,120
1,note_on,62,80,360
1,note_on,62,0,480
1,note_on,64,73,0
1,note_on,64,0,240
1,note_on,66,74,0
1,note_on,66,0,240
1,note_on,69,77,0
1,note_on,69,0,240
1,note_on,72,78,0
1,note_on,72,0,240
1,note_on,76,79,0
1,note_on,76,0,480
1,note_on,79,78,0
1,note_on,79,0,480
1,note_on,78,78,0
1,note_on,78,0,480
1,note_on,62,60,0
1,note_on,78,79,0
1,note_on,66,60,0
1,note_on,66,0,480
1,note_on,78,0,0
1,note_on,62,0,0
1,note_on,67,57,0
1,note_on,79,72,0
1,note_on,79,0,240
1,note_on,67,0,0
1,note_on,66,57,0
1,note_on,78,72,0
1,note_on,78,0,240
1,note_on,66,0,0
1,note_on,76,71,0
1,note_on,64,56,0
1,note_on,64,0,240
1,note_on,76,0,0
1,note_on,62,56,0
1,note_on,74,71,0
1,note_on,74,0,240
1,note_on,62,0,0
1,note_on,73,77,0
1,note_on,67,70,0
1,note_on,67,0,420
1,note_on,73,0,0
1,note_on,74,64,0
1,note_on,74,0,60
1,note_on,73,73,0
1,note_on,73,0,240
1,note_on,69,67,0
1,note_on,69,0,240
1,note_on,71,72,0
1,note_on,71,0,240
1,note_on,73,69,0
1,note_on,73,0,240
1,note_on,66,74,0
1,note_on,74,74,0
1,note_on,74,0,420
1,note_on,66,0,0
1,note_on,64,73,0
1,note_on,64,0,60
1,note_on,62,78,0
1,note_on,62,0,120
1,note_on,61,75,120
1,note_on,61,0,120
1,note_on,62,79,120
1,note_on,62,0,120
1,note_on,62,74,360
1,note_on,62,0,120
1,note_on,69,78,360
1,note_on,69,0,120
1,note_on,66,75,120
1,note_on,66,0,120
1,note_on,62,79,120
1,note_on,62,0,120
1,note_on,76,64,300
1,note_on,76,0,60
1,note_on,86,64,0
1,note_on,74,55,0
1,note_on,74,0,120
1,note_on,86,0,0
1,note_on,73,50,120
1,note_on,85,60,0
1,note_on,85,0,120
1,note_on,73,0,0
1,note_on,86,63,120
1,note_on,74,53,0
1,note_on,74,0,120
1,note_on,86,0,0
1,note_on,74,52,360
1,note_on,86,62,0
1,note_on,86,0,120
1,note_on,74,0,0
1,note_on,73,49,120
1,note_on,85,59,0
1,note_on,85,0,120
1,note_on,73,0,0
1,note_on,74,52,120
1,note_on,86,62,0
1,note_on,86,0,120
1,note_on,74,0,0
1,note_on,83,59,360
1,note_on,83,0,240
1,note_on,79,56,0
1,note_on,79,0,240
1,note_on,74,59,0
1,note_on,74,0,360
1,note_on,74,59,120
1,note_on,74,0,240
1,note_on,76,59,0
1,note_on,76,0,240
1,note_on,77,63,0
1,note_on,77,0,360
1,note_on,76,52,0
1,note_on,76,0,60
1,note_on,77,49,0
1,note_on,77,0,60
1,note_on,76,59,0
1,note_on,76,0,240
1,note_on,74,59,0
1,note_on,74,0,240
1,note_on,72,58,0
1,note_on,72,0,120
1,note_on,81,63,360
1,note_on,81,0,240
1,note_on,78,57,0
1,note_on,78,0,240
1,note_on,72,59,0
1,note_on,72,0,120
1,note_on,70,59,360
1,note_on,70,0,120
1,note_on,79,63,360
1,note_on,79,0,240
1,note_on,74,57,0
1,note_on,74,0,240
1,note_on,70,59,0
1,note_on,70,0,120
1,note_on,69,59,360
1,note_on,69,0,1440
1,note_on,66,74,0
1,note_on,74,74,0
1,note_on,74,0,420
1,note_on,66,0,0
1,note_on,64,73,0
1,note_on,64,0,60
1,note_on,62,78,0
1,note_on,62,0,120
1,note_on,61,75,120
1,note_on,61,0,120
1,note_on,62,79,120
1,note_on,62,0,120
1,note_on,62,74,360
1,note_on,62,0,120
1,note_on,69,78,360
1,note_on,69,0,120
1,note_on,66,75,120
1,note_on,66,0,120
1,note_on,62,79,120
1,note_on,62,0,120
1,note_on,76,64,300
1,note_on,76,0,60
1,note_on,86,64,0
1,note_on,74,55,0
1,note_on,74,0,120
1,note_on,86,0,0
1,note_on,73,50,120
1,note_on,85,60,0
1,note_on,85,0,120
1,note_on,73,0,0
1,note_on,74,53,120
1,note_on,86,63,0
1,note_on,86,0,120
1,note_on,74,0,0
1,note_on,86,62,360
1,note_on,74,52,0
1,note_on,74,0,120
1,note_on,86,0,0
1,note_on,73,49,120
1,note_on,85,59,0
1,note_on,85,0,120
1,note_on,73,0,0
1,note_on,86,62,120
1,note_on,74,52,0
1,note_on,74,0,120
1,note_on,86,0,0
1,note_on,83,59,360
1,note_on,83,0,240
1,note_on,79,56,0
1,note_on,79,0,240
1,note_on,74,59,0
1,note_on,74,0,360
1,note_on,74,59,120
1,note_on,74,0,240
1,note_on,76,59,0
1,note_on,76,0,240
1,note_on,77,63,0
1,note_on,77,0,360
1,note_on,76,52,0
1,note_on,76,0,60
1,note_on,77,49,0
1,note_on,77,0,60
1,note_on,76,59,0
1,note_on,76,0,240
1,note_on,74,59,0
1,note_on,74,0,240
1,note_on,72,58,0
1,note_on,72,0,120
1,note_on,81,63,360
1,note_on,81,0,240
1,note_on,78,57,0
1,note_on,78,0,240
1,note_on,72,59,0
1,note_on,72,0,120
1,note_on,70,59,360
1,note_on,70,0,120
1,note_on,79,63,360
1,note_on,79,0,240
1,note_on,74,57,0
1,note_on,74,0,240
1,note_on,70,59,0
1,note_on,70,0,120
1,note_on,69,59,360
1,note_on,69,0,1440
1,note_on,62,59,5760
1,note_on,62,0,240
1,note_on,66,49,180
1,note_on,66,0,60
1,note_on,64,55,0
1,note_on,64,0,240
1,note_on,62,53,0
1,note_on,62,0,240
1,note_on,61,56,0
1,note_on,61,0,240
1,note_on,62,51,0
1,note_on,62,0,240
1,note_on,64,58,0
1,note_on,64,0,120
1,note_on,55,49,360
1,note_on,59,49,0
1,note_on,64,49,0
1,note_on,67,53,0
1,note_on,67,0,120
1,note_on,55,0,0
1,note_on,59,0,0
1,note_on,64,0,0
1,note_on,54,42,360
1,note_on,61,42,0
1,note_on,64,42,0
1,note_on,66,51,0
1,note_on,66,0,120
1,note_on,54,0,0
1,note_on,61,0,0
1,note_on,64,0,0
1,note_on,62,58,360
1,note_on,62,0,120
1,note_on,54,46,360
1,note_on,59,46,0
1,note_on,62,46,0
1,note_on,66,55,0
1,note_on,66,0,120
1,note_on,54,0,0
1,note_on,59,0,0
1,note_on,62,0,0
1,note_on,59,42,360
1,note_on,62,42,0
1,note_on,64,51,0
1,note_on,64,0,120
1,note_on,62,0,0
1,note_on,59,0,0
1,note_on,61,59,360
1,note_on,61,0,240
1,note_on,62,49,180
1,note_on,62,0,60
1,note_on,61,55,0
1,note_on,61,0,240
1,note_on,59,53,0
1,note_on,59,0,240
1,note_on,61,56,0
1,note_on,61,0,240
1,note_on,62,59,224
1,note_on,62,0,240
1,note_on,66,49,180
1,note_on,66,0,60
1,note_on,64,55,0
1,note_on,64,0,240
1,note_on,62,53,0
1,note_on,62,0,240
1,note_on,61,56,0
1,note_on,61,0,240
1,note_on,62,51,0
1,note_on,62,0,240
1,note_on,64,58,0
1,note_on,64,0,120
1,note_on,55,49,360
1,note_on,59,49,0
1,note_on,64,49,0
1,note_on,67,53,0
1,note_on,67,0,120
1,note_on,55,0,0
1,note_on,59,0,0
1,note_on,64,0,0
1,note_on,54,42,360
1,note_on,61,42,0
1,note_on,64,42,0
1,note_on,66,51,0
1,note_on,66,0,120
1,note_on,54,0,0
1,note_on,61,0,0
1,note_on,64,0,0
1,note_on,62,58,376
1,note_on,59,58,0
1,note_on,59,0,120
1,note_on,62,0,0
1,note_on,62,55,360
1,note_on,59,46,0
1,note_on,59,0,120
1,note_on,62,0,0
1,note_on,64,50,120
1,note_on,64,0,120
1,note_on,61,59,120
1,note_on,57,59,0
1,note_on,57,0,120
1,note_on,55,52,120
1,note_on,55,0,120
1,note_on,61,0,120
1,note_on,62,64,0
1,note_on,62,0,240
1,note_on,74,77,240
1,note_on,66,64,0
1,note_on,66,0,240
1,note_on,74,0,0
1,note_on,62,59,720
1,note_on,62,0,240
1,note_on,66,49,180
1,note_on,66,0,60
1,note_on,64,55,0
1,note_on,64,0,240
1,note_on,62,53,0
1,note_on,62,0,240
1,note_on,61,56,0
1,note_on,61,0,240
1,note_on,62,51,0
1,note_on,62,0,240
1,note_on,64,58,0
1,note_on,64,0,120
1,note_on,55,49,360
1,note_on,59,49,0
1,note_on,64,49,0
1,note_on,67,53,0
1,note_on,67,0,120
1,note_on,55,0,0
1,note_on,59,0,0
1,note_on,64,0,0
1,note_on,54,42,360
1,note_on,61,42,0
1,note_on,64,42,0
1,note_on,66,51,0
1,note_on,66,0,120
1,note_on,54,0,0
1,note_on,61,0,0
1,note_on,64,0,0
1,note_on,62,58,360
1,note_on,62,0,120
1,note_on,54,46,360
1,note_on,59,46,0
1,note_on,62,46,0
1,note_on,66,55,0
1,note_on,66,0,120
1,note_on,54,0,0
1,note_on,59,0,0
1,note_on,62,0,0
1,note_on,59,42,360
1,note_on,62,42,0
1,note_on,64,51,0
1,note_on,64,0,120
1,note_on,62,0,0
1,note_on,59,0,0
1,note_on,61,59,360
1,note_on,61,0,240
1,note_on,62,49,180
1,note_on,62,0,60
1,note_on,61,55,0
1,note_on,61,0,240
1,note_on,59,53,0
1,note_on,59,0,240
1,note_on,61,56,0
1,note_on,61,0,240
1,note_on,62,59,224
1,note_on,62,0,240
1,note_on,66,49,180
1,note_on,66,0,60
1,note_on,64,55,0
1,note_on,64,0,240
1,note_on,62,53,0
1,note_on,62,0,240
1,note_on,61,56,0
1,note_on,61,0,240
1,note_on,62,51,0
1,note_on,62,0,240
1,note_on,64,58,0
1,note_on,64,0,120
1,note_on,55,49,360
1,note_on,59,49,0
1,note_on,64,49,0
1,note_on,67,53,0
1,note_on,67,0,120
1,note_on,55,0,0
1,note_on,59,0,0
1,note_on,64,0,0
1,note_on,54,42,360
1,note_on,61,42,0
1,note_on,64,42,0
1,note_on,66,51,0
1,note_on,66,0,120
1,note_on,54,0,0
1,note_on,61,0,0
1,note_on,64,0,0
1,note_on,62,58,376
1,note_on,59,58,0
1,note_on,59,0,120
1,note_on,62,0,0
1,note_on,62,55,360
1,note_on,59,46,0
1,note_on,59,0,120
1,note_on,62,0,0
1,note_on,64,50,120
1,note_on,64,0,120
1,note_on,61,59,120
1,note_on,57,59,0
1,note_on,57,0,120
1,note_on,55,52,120
1,note_on,55,0,120
1,note_on,61,0,120
1,note_on,62,64,0
1,note_on,62,0,240
1,note_on,74,77,240
1,note_on,66,64,0
1,note_on,66,0,240
1,note_on,74,0,0
1,note_on,74,57,720
1,note_on,81,67,0
1,note_on,81,0,480
1,note_on,83,59,0
1,note_on,83,0,240
1,note_on,81,55,0
1,note_on,81,0,240
1,note_on,79,57,0
1,note_on,79,0,240
1,note_on,81,53,0
1,note_on,81,0,240
1,note_on,83,60,0
1,note_on,83,0,480
1,note_on,83,59,0
1,note_on,83,0,240
1,note_on,86,55,0
1,note_on,86,0,240
1,note_on,83,58,0
1,note_on,83,0,480
1,note_on,74,0,0
1,note_on,74,57,0
1,note_on,81,67,0
1,note_on,81,0,480
1,note_on,83,59,0
1,note_on,83,0,240
1,note_on,81,55,0
1,note_on,81,0,240
1,note_on,79,57,0
1,note_on,79,0,240
1,note_on,78,53,0
1,note_on,78,0,240
1,note_on,74,0,0
1,note_on,73,48,0
1,note_on,76,60,0
1,note_on,76,0,480
1,note_on,73,0,0
1,note_on,73,45,0
1,note_on,76,57,0
1,note_on,76,0,240
1,note_on,73,0,0
1,note_on,71,44,0
1,note_on,74,55,0
1,note_on,74,0,240
1,note_on,71,0,0
1,note_on,73,46,0
1,note_on,76,58,0
1,note_on,76,0,480
1,note_on,73,0,0
1,note_on,74,57,0
1,note_on,81,67,0
1,note_on,81,0,480
1,note_on,83,59,0
1,note_on,83,0,240
1,note_on,81,55,0
1,note_on,81,0,240
1,note_on,79,57,0
1,note_on,79,0,240
1,note_on,81,53,0
1,note_on,81,0,240
1,note_on,83,60,0
1,note_on,83,0,480
1,note_on,83,59,0
1,note_on,83,0,240
1,note_on,86,55,0
1,note_on,86,0,240
1,note_on,83,58,0
1,note_on,83,0,480
1,note_on,74,0,0
1,note_on,74,57,0
1,note_on,81,67,0
1,note_on,81,0,480
1,note_on,83,59,0
1,note_on,83,0,240
1,note_on,81,55,0
1,note_on,81,0,240
1,note_on,79,57,0
1,note_on,79,0,240
1,note_on,78,53,0
1,note_on,78,0,240
1,note_on,74,0,0
1,note_on,69,48,0
1,note_on,73,48,0
1,note_on,76,60,0
1,note_on,76,0,1440
1,note_on,73,0,0
1,note_on,69,0,0
1,note_on,62,59,0
1,note_on,62,0,240
1,note_on,66,49,180
1,note_on,66,0,60
1,note_on,64,55,0
1,note_on,64,0,240
1,note_on,62,53,0
1,note_on,62,0,240
1,note_on,61,56,0
1,note_on,61,0,240
1,note_on,62,51,0
1,note_on,62,0,240
1,note_on,64,58,0
1,note_on,64,0,120
1,note_on,55,49,360
1,note_on,59,49,0
1,note_on,64,49,0
1,note_on,67,53,0
1,note_on,67,0,120
1,note_on,55,0,0
1,note_on,59,0,0
1,note_on,64,0,0
1,note_on,54,42,360
1,note_on,61,42,0
1,note_on,64,42,0
1,note_on,66,51,0
1,note_on,66,0,120
1,note_on,54,0,0
1,note_on,61,0,0
1,note_on,64,0,0
1,note_on,62,58,360
1,note_on,62,0,120
1,note_on,54,46,360
1,note_on,59,46,0
1,note_on,62,46,0
1,note_on,66,55,0
1,note_on,66,0,120
1,note_on,54,0,0
1,note_on,59,0,0
1,note_on,62,0,0
1,note_on,59,42,360
1,note_on,62,42,0
1,note_on,64,51,0
1,note_on,64,0,120
1,note_on,62,0,0
1,note_on,59,0,0
1,note_on,61,59,360
1,note_on,61,0,240
1,note_on,62,49,180
1,note_on,62,0,60
1,note_on,61,55,0
1,note_on,61,0,240
1,note_on,59,53,0
1,note_on,59,0,240
1,note_on,61,56,0
1,note_on,61,0,240
1,note_on,62,59,224
1,note_on,62,0,240
1,note_on,66,49,180
1,note_on,66,0,60
1,note_on,64,55,0
1,note_on,64,0,240
1,note_on,62,53,0
1,note_on,62,0,240
1,note_on,61,56,0
1,note_on,61,0,240
1,note_on,62,51,0
1,note_on,62,0,240
1,note_on,64,58,0
1,note_on,64,0,120
1,note_on,55,49,360
1,note_on,59,49,0
1,note_on,64,49,0
1,note_on,67,53,0
1,note_on,67,0,120
1,note_on,55,0,0
1,note_on,59,0,0
1,note_on,64,0,0
1,note_on,54,42,360
1,note_on,61,42,0
1,note_on,64,42,0
1,note_on,66,51,0
1,note_on,66,0,120
1,note_on,54,0,0
1,note_on,61,0,0
1,note_on,64,0,0
1,note_on,62,58,376
1,note_on,59,58,0
1,note_on,59,0,120
1,note_on,62,0,0
1,note_on,62,55,360
1,note_on,59,46,0
1,note_on,59,0,120
1,note_on,62,0,0
1,note_on,64,50,120
1,note_on,64,0,120
1,note_on,61,59,120
1,note_on,57,59,0
1,note_on,57,0,120
1,note_on,55,52,120
1,note_on,55,0,120
1,note_on,61,0,120
1,note_on,62,64,0
1,note_on,62,0,240
1,note_on,74,77,240
1,note_on,66,64,0
1,note_on,66,0,240
1,note_on,74,0,0
1,note_on,78,59,720
1,note_on,71,39,240
1,note_on,78,0,240
1,note_on,79,52,0
1,note_on,79,0,240
1,note_on,71,0,0
1,note_on,71,35,0
1,note_on,78,47,0
1,note_on,78,0,240
1,note_on,76,50,0
1,note_on,76,0,240
1,note_on,71,0,0
1,note_on,71,35,0
1,note_on,78,48,0
1,note_on,78,0,240
1,note_on,71,0,0
1,note_on,79,53,0
1,note_on,71,37,240
1,note_on,79,0,240
1,note_on,83,52,0
1,note_on,71,0,240
1,note_on,71,36,0
1,note_on,83,0,240
1,note_on,76,51,0
1,note_on,71,0,240
1,note_on,71,28,0
1,note_on,71,0,240
1,note_on,76,0,0
1,note_on,78,59,0
1,note_on,71,39,240
1,note_on,78,0,240
1,note_on,79,52,0
1,note_on,79,0,240
1,note_on,71,0,0
1,note_on,71,35,0
1,note_on,78,47,0
1,note_on,78,0,240
1,note_on,76,50,0
1,note_on,76,0,240
1,note_on,71,0,0
1,note_on,71,35,0
1,note_on,78,48,0
1,note_on,78,0,240
1,note_on,71,0,0
1,note_on,79,53,0
1,note_on,67,37,240
1,note_on,67,0,240
1,note_on,79,0,0
1,note_on,76,52,0
1,note_on,67,36,240
1,note_on,76,0,240
1,note_on,73,51,0
1,note_on,67,0,240
1,note_on,64,28,0
1,note_on,64,0,240
1,note_on,73,0,0
1,note_on,62,40,0
1,note_on,71,48,0
1,note_on,71,0,1440
1,note_on,62,0,0
1,note_on,74,52,0
1,note_on,67,52,0
1,note_on,74,0,120
1,note_on,73,48,0
1,note_on,73,0,120
1,note_on,74,53,0
1,note_on,74,0,120
1,note_on,73,49,0
1,note_on,73,0,120
1,note_on,74,56,0
1,note_on,74,0,120
1,note_on,73,50,0
1,note_on,73,0,120
1,note_on,74,57,0
1,note_on,74,0,120
1,note_on,73,51,0
1,note_on,73,0,120
1,note_on,74,57,0
1,note_on,74,0,120
1,note_on,73,52,0
1,note_on,73,0,120
1,note_on,71,58,0
1,note_on,71,0,120
1,note_on,73,51,0
1,note_on,73,0,120
1,note_on,67,0,0
1,note_on,66,57,0
1,note_on,74,57,0
1,note_on,74,0,480
1,note_on,66,0,0
1,note_on,74,55,0
1,note_on,74,0,240
1,note_on,76,49,0
1,note_on,76,0,240
1,note_on,64,52,0
1,note_on,73,52,0
1,note_on,73,0,480
1,note_on,64,0,0
1,note_on,62,46,0
1,note_on,71,46,0
1,note_on,71,0,1440
1,note_on,62,0,0
1,note_on,74,52,0
1,note_on,67,52,0
1,note_on,74,0,120
1,note_on,73,48,0
1,note_on,73,0,120
1,note_on,74,53,0
1,note_on,74,0,120
1,note_on,73,49,0
1,note_on,73,0,120
1,note_on,74,56,0
1,note_on,74,0,120
1,note_on,73,50,0
1,note_on,73,0,120
1,note_on,74,57,0
1,note_on,74,0,120
1,note_on,73,51,0
1,note_on,73,0,120
1,note_on,74,57,0
1,note_on,74,0,120
1,note_on,73,52,0
1,note_on,73,0,120
1,note_on,71,58,0
1,note_on,71,0,120
1,note_on,73,51,0
1,note_on,73,0,120
1,note_on,67,0,0
1,note_on,74,57,0
1,note_on,66,57,240
1,note_on,66,0,240
1,note_on,74,0,0
1,note_on,74,55,0
1,note_on,74,0,240
1,note_on,66,57,0
1,note_on,76,49,0
1,note_on,76,0,240
1,note_on,73,52,0
1,note_on,66,0,240
1,note_on,64,45,0
1,note_on,64,0,240
1,note_on,73,0,0
1,note_on,71,46,0
1,note_on,62,29,480
1,note_on,66,29,0
1,note_on,66,0,480
1,note_on,62,0,0
1,note_on,62,27,0
1,note_on,66,27,0
1,note_on,66,0,480
1,note_on,62,0,0
1,note_on,71,0,0
1,note_on,62,26,0
1,note_on,66,26,0
1,note_on,66,0,480
1,note_on,62,0,0
1,note_on,62,25,0
1,note_on,66,25,0
1,note_on,66,0,480
1,note_on,62,0,0
1,note_on,62,23,0
1,note_on,66,23,0
1,note_on,66,0,480
1,note_on,62,0,0
1,note_on,78,59,0
1,note_on,71,39,240
1,note_on,78,0,240
1,note_on,79,52,0
1,note_on,79,0,240
1,note_on,71,0,0
1,note_on,71,35,0
1,note_on,78,47,0
1,note_on,78,0,240
1,note_on,76,50,0
1,note_on,76,0,240
1,note_on,71,0,0
1,note_on,71,35,0
1,note_on,78,48,0
1,note_on,78,0,240
1,note_on,71,0,0
1,note_on,79,53,0
1,note_on,71,37,240
1,note_on,79,0,240
1,note_on,83,52,0
1,note_on,71,0,240
1,note_on,71,36,0
1,note_on,83,0,240
1,note_on,76,51,0
1,note_on,71,0,240
1,note_on,71,28,0
1,note_on,71,0,240
1,note_on,76,0,0
1,note_on,78,59,0
1,note_on,71,39,240
1,note_on,71,0,240
1,note_on,78,0,0
1,note_on,79,52,0
1,note_on,79,0,240
1,note_on,71,35,0
1,note_on,78,47,0
1,note_on,78,0,240
1,note_on,76,50,0
1,note_on,76,0,240
1,note_on,71,0,0
1,note_on,71,35,0
1,note_on,78,48,0
1,note_on,78,0,240
1,note_on,71,0,0
1,note_on,79,53,0
1,note_on,67,37,240
1,note_on,79,0,240
1,note_on,76,52,0
1,note_on,67,0,240
1,note_on,67,36,0
1,note_on,76,0,240
1,note_on,73,51,0
1,note_on,67,0,240
1,note_on,64,28,0
1,note_on,64,0,240
1,note_on,73,0,0
1,note_on,62,40,0
1,note_on,71,48,0
1,note_on,71,0,1440
1,note_on,62,0,0
1,note_on,74,52,0
1,note_on,67,52,0
1,note_on,74,0,120
1,note_on,73,48,0
1,note_on,73,0,120
1,note_on,74,53,0
1,note_on,74,0,120
1,note_on,73,49,0
1,note_on,73,0,120
1,note_on,74,56,0
1,note_on,74,0,120
1,note_on,73,50,0
1,note_on,73,0,120
1,note_on,74,57,0
1,note_on,74,0,120
1,note_on,73,51,0
1,note_on,73,0,120
1,note_on,74,57,0
1,note_on,74,0,120
1,note_on,73,52,0
1,note_on,73,0,120
1,note_on,71,58,0
1,note_on,71,0,120
1,note_on,73,51,0
1,note_on,73,0,120
1,note_on,67,0,0
1,note_on,66,57,0
1,note_on,74,57,0
1,note_on,74,0,480
1,note_on,66,0,0
1,note_on,74,55,0
1,note_on,74,0,240
1,note_on,76,49,0
1,note_on,76,0,240
1,note_on,64,52,0
1,note_on,73,52,0
1,note_on,73,0,480
1,note_on,64,0,0
1,note_on,62,46,0
1,note_on,71,46,0
1,note_on,71,0,1440
1,note_on,62,0,0
1,note_on,74,52,0
1,note_on,67,52,0
1,note_on,74,0,120
1,note_on,73,48,0
1,note_on,73,0,120
1,note_on,74,53,0
1,note_on,74,0,120
1,note_on,73,49,0
1,note_on,73,0,120
1,note_on,74,56,0
1,note_on,74,0,120
1,note_on,73,50,0
1,note_on,73,0,120
1,note_on,74,57,0
1,note_on,74,0,120
1,note_on,73,51,0
1,note_on,73,0,120
1,note_on,74,57,0
1,note_on,74,0,120
1,note_on,73,52,0
1,note_on,73,0,120
1,note_on,71,58,0
1,note_on,71,0,120
1,note_on,73,51,0
1,note_on,73,0,120
1,note_on,67,0,0
1,note_on,74,57,0
1,note_on,66,57,240
1,note_on,66,0,240
1,note_on,74,0,0
1,note_on,74,55,0
1,note_on,74,0,240
1,note_on,66,57,0
1,note_on,76,49,0
1,note_on,76,0,240
1,note_on,73,52,0
1,note_on,66,0,240
1,note_on,64,45,0
1,note_on,64,0,240
1,note_on,73,0,0
1,note_on,71,46,0
1,note_on,62,29,480
1,note_on,66,29,0
1,note_on,66,0,480
1,note_on,62,0,0
1,note_on,62,27,0
1,note_on,66,27,0
1,note_on,66,0,480
1,note_on,62,0,0
1,note_on,71,0,0
1,note_on,62,26,0
1,note_on,66,26,0
1,note_on,66,0,480
1,note_on,62,0,0
1,note_on,62,25,0
1,note_on,66,25,0
1,note_on,66,0,480
1,note_on,62,0,0
1,note_on,62,23,0
1,note_on,66,23,0
1,note_on,66,0,480
1,note_on,62,0,0
1,note_on,62,82,0
1,note_on,62,0,480
1,note_on,64,78,0
1,note_on,64,0,120
1,note_on,62,75,120
1,note_on,62,0,120
1,note_on,61,79,120
1,note_on,61,0,120
1,note_on,62,73,120
1,note_on,62,0,120
1,note_on,64,81,120
1,note_on,64,0,120
1,note_on,67,75,360
1,note_on,67,0,120
1,note_on,66,73,360
1,note_on,66,0,120
1,note_on,62,82,360
1,note_on,62,0,420
1,note_on,66,71,0
1,note_on,66,0,60
1,note_on,64,75,0
1,note_on,64,0,120
1,note_on,62,73,120
1,note_on,62,0,120
1,note_on,61,77,120
1,note_on,61,0,120
1,note_on,62,71,120
1,note_on,62,0,120
1,note_on,64,80,120
1,note_on,64,0,120
1,note_on,67,74,360
1,note_on,67,0,120
1,note_on,66,73,360
1,note_on,66,0,120
1,note_on,62,80,360
1,note_on,62,0,480
1,note_on,64,73,0
1,note_on,64,0,240
1,note_on,66,74,0
1,note_on,66,0,240
1,note_on,69,77,0
1,note_on,69,0,240
1,note_on,72,78,0
1,note_on,72,0,240
1,note_on,76,79,0
1,note_on,76,0,480
1,note_on,79,78,0
1,note_on,79,0,480
1,note_on,78,78,0
1,note_on,78,0,480
1,note_on,62,60,0
1,note_on,66,60,0
1,note_on,78,79,0
1,note_on,78,0,480
1,note_on,66,0,0
1,note_on,62,0,0
1,note_on,67,57,0
1,note_on,79,72,0
1,note_on,79,0,240
1,note_on,67,0,0
1,note_on,66,57,0
1,note_on,78,72,0
1,note_on,78,0,240
1,note_on,66,0,0
1,note_on,64,56,0
1,note_on,76,71,0
1,note_on,76,0,240
1,note_on,64,0,0
1,note_on,62,56,0
1,note_on,74,71,0
1,note_on,74,0,240
1,note_on,62,0,0
1,note_on,67,70,0
1,note_on,73,77,0
1,note_on,73,0,420
1,note_on,67,0,0
1,note_on,74,64,0
1,note_on,74,0,60
1,note_on,73,73,0
1,note_on,73,0,240
1,note_on,69,67,0
1,note_on,69,0,240
1,note_on,71,72,0
1,note_on,71,0,240
1,note_on,73,69,0
1,note_on,73,0,240
1,note_on,66,74,0
1,note_on,74,74,0
1,note_on,74,0,480
1,note_on,66,0,0
1,note_on,64,78,0
1,note_on,64,0,120
1,note_on,62,75,120
1,note_on,62,0,120
1,note_on,61,79,120
1,note_on,61,0,120
1,note_on,62,73,120
1,note_on,62,0,120
1,note_on,64,81,120
1,note_on,64,0,120
1,note_on,67,74,360
1,note_on,67,0,120
1,note_on,66,73,360
1,note_on,66,0,120
1,note_on,62,82,360
1,note_on,62,0,420
1,note_on,66,71,0
1,note_on,66,0,60
1,note_on,64,75,0
1,note_on,64,0,120
1,note_on,62,73,120
1,note_on,62,0,120
1,note_on,61,77,120
1,note_on,61,0,120
1,note_on,62,71,120
1,note_on,62,0,120
1,note_on,64,80,120
1,note_on,64,0,120
1,note_on,67,74,360
1,note_on,67,0,120
1,note_on,66,73,360
1,note_on,66,0,120
1,note_on,62,80,360
1,note_on,62,0,480
1,note_on,64,73,0
1,note_on,64,0,240
1,note_on,66,74,0
1,note_on,66,0,240
1,note_on,69,77,0
1,note_on,69,0,240
1,note_on,72,78,0
1,note_on,72,0,240
1,note_on,76,79,0
1,note_on,76,0,480
1,note_on,79,78,0
1,note_on,79,0,480
1,note_on,78,78,0
1,note_on,78,0,480
1,note_on,62,60,0
1,note_on,66,60,0
1,note_on,78,79,0
1,note_on,78,0,480
1,note_on,66,0,0
1,note_on,62,0,0
1,note_on,67,57,0
1,note_on,79,72,0
1,note_on,79,0,240
1,note_on,67,0,0
1,note_on,66,57,0
1,note_on,78,72,0
1,note_on,78,0,240
1,note_on,66,0,0
1,note_on,64,56,0
1,note_on,76,71,0
1,note_on,76,0,240
1,note_on,64,0,0
1,note_on,62,56,0
1,note_on,74,71,0
1,note_on,74,0,240
1,note_on,62,0,0
1,note_on,67,68,0
1,note_on,73,77,0
1,note_on,73,0,420
1,note_on,67,0,0
1,note_on,74,64,0
1,note_on,74,0,60
1,note_on,73,73,0
1,note_on,73,0,240
1,note_on,69,67,0
1,note_on,69,0,240
1,note_on,71,72,0
1,note_on,71,0,240
1,note_on,73,69,0
1,note_on,73,0,240
1,note_on,66,74,0
1,note_on,74,74,0
1,note_on,74,0,420
1,note_on,66,0,0
1,note_on,64,73,0
1,note_on,64,0,60
1,note_on,62,78,0
1,note_on,62,0,120
1,note_on,61,75,120
1,note_on,61,0,120
1,note_on,62,79,120
1,note_on,62,0,120
1,note_on,62,74,360
1,note_on,62,0,120
1,note_on,69,78,360
1,note_on,69,0,120
1,note_on,66,75,120
1,note_on,66,0,120
1,note_on,62,79,120
1,note_on,62,0,120
1,note_on,76,64,300
1,note_on,76,0,60
1,note_on,74,55,0
1,note_on,86,64,0
1,note_on,86,0,120
1,note_on,74,0,0
1,note_on,73,50,120
1,note_on,85,60,0
1,note_on,85,0,120
1,note_on,73,0,0
1,note_on,74,53,120
1,note_on,86,63,0
1,note_on,86,0,120
1,note_on,74,0,0
1,note_on,74,52,360
1,note_on,86,62,0
1,note_on,86,0,120
1,note_on,74,0,0
1,note_on,73,49,120
1,note_on,85,59,0
1,note_on,85,0,120
1,note_on,73,0,0
1,note_on,74,52,120
1,note_on,86,62,0
1,note_on,86,0,120
1,note_on,74,0,0
1,note_on,83,59,360
1,note_on,83,0,240
1,note_on,79,56,0
1,note_on,79,0,240
1,note_on,74,59,0
1,note_on,74,0,360
1,note_on,74,59,120
1,note_on,74,0,240
1,note_on,76,59,0
1,note_on,76,0,240
1,note_on,77,63,0
1,note_on,77,0,360
1,note_on,76,52,0
1,note_on,76,0,60
1,note_on,77,49,0
1,note_on,77,0,60
1,note_on,76,59,0
1,note_on,76,0,240
1,note_on,74,59,0
1,note_on,74,0,240
1,note_on,72,58,0
1,note_on,72,0,120
1,note_on,81,63,360
1,note_on,81,0,240
1,note_on,78,57,0
1,note_on,78,0,240
1,note_on,72,59,0
1,note_on,72,0,120
1,note_on,70,59,360
1,note_on,70,0,120
1,note_on,79,63,360
1,note_on,79,0,240
1,note_on,74,57,0
1,note_on,74,0,240
1,note_on,70,59,0
1,note_on,70,0,120
1,note_on,69,59,360
1,note_on,69,0,1440
1,note_on,66,74,0
1,note_on,74,74,0
1,note_on,74,0,420
1,note_on,66,0,0
1,note_on,64,73,0
1,note_on,64,0,60
1,note_on,62,78,0
1,note_on,62,0,120
1,note_on,61,75,120
1,note_on,61,0,120
1,note_on,62,79,120
1,note_on,62,0,120
1,note_on,62,74,360
1,note_on,62,0,120
1,note_on,69,78,360
1,note_on,69,0,120
1,note_on,66,75,120
1,note_on,66,0,120
1,note_on,62,79,120
1,note_on,62,0,120
1,note_on,76,64,300
1,note_on,76,0,60
1,note_on,74,55,0
1,note_on,86,64,0
1,note_on,86,0,120
1,note_on,74,0,0
1,note_on,73,50,120
1,note_on,85,60,0
1,note_on,85,0,120
1,note_on,73,0,0
1,note_on,74,53,120
1,note_on,86,63,0
1,note_on,86,0,120
1,note_on,74,0,0
1,note_on,74,52,360
1,note_on,86,62,0
1,note_on,86,0,120
1,note_on,74,0,0
1,note_on,73,49,120
1,note_on,85,59,0
1,note_on,85,0,120
1,note_on,73,0,0
1,note_on,74,52,120
1,note_on,86,62,0
1,note_on,86,0,120
1,note_on,74,0,0
1,note_on,83,59,360
1,note_on,83,0,240
1,note_on,79,56,0
1,note_on,79,0,240
1,note_on,74,59,0
1,note_on,74,0,360
1,note_on,74,59,120
1,note_on,74,0,240
1,note_on,76,59,0
1,note_on,76,0,240
1,note_on,77,63,0
1,note_on,77,0,360
1,note_on,76,52,0
1,note_on,76,0,60
1,note_on,77,49,0
1,note_on,77,0,60
1,note_on,76,59,0
1,note_on,76,0,240
1,note_on,74,59,0
1,note_on,74,0,240
1,note_on,72,58,0
1,note_on,72,0,120
1,note_on,81,63,360
1,note_on,81,0,240
1,note_on,78,57,0
1,note_on,78,0,240
1,note_on,72,59,0
1,note_on,72,0,120
1,note_on,70,59,360
1,note_on,70,0,120
1,note_on,79,63,360
1,note_on,79,0,240
1,note_on,74,57,0
1,note_on,74,0,240
1,note_on,70,59,0
1,note_on,70,0,120
1,note_on,69,59,360
1,note_on,69,0,1440
1,note_on,62,59,5760
1,note_on,62,0,240
1,note_on,66,49,180
1,note_on,66,0,60
1,note_on,64,55,0
1,note_on,64,0,240
1,note_on,62,53,0
1,note_on,62,0,240
1,note_on,61,56,0
1,note_on,61,0,240
1,note_on,62,51,0
1,note_on,62,0,240
1,note_on,64,58,0
1,note_on,64,0,120
1,note_on,55,49,360
1,note_on,59,49,0
1,note_on,64,49,0
1,note_on,67,53,0
1,note_on,67,0,120
1,note_on,55,0,0
1,note_on,59,0,0
1,note_on,64,0,0
1,note_on,54,42,360
1,note_on,61,42,0
1,note_on,64,42,0
1,note_on,66,51,0
1,note_on,66,0,120
1,note_on,54,0,0
1,note_on,61,0,0
1,note_on,64,0,0
1,note_on,62,58,360
1,note_on,62,0,120
1,note_on,54,46,360
1,note_on,59,46,0
1,note_on,62,46,0
1,note_on,66,55,0
1,note_on,66,0,120
1,note_on,54,0,0
1,note_on,59,0,0
1,note_on,62,0,0
1,note_on,59,42,360
1,note_on,62,42,0
1,note_on,64,51,0
1,note_on,64,0,120
1,note_on,62,0,0
1,note_on,59,0,0
1,note_on,61,59,360
1,note_on,61,0,240
1,note_on,62,49,180
1,note_on,62,0,60
1,note_on,61,55,0
1,note_on,61,0,240
1,note_on,59,53,0
1,note_on,59,0,240
1,note_on,61,56,0
1,note_on,61,0,240
1,note_on,62,59,224
1,note_on,62,0,240
1,note_on,66,49,180
1,note_on,66,0,60
1,note_on,64,55,0
1,note_on,64,0,240
1,note_on,62,53,0
1,note_on,62,0,240
1,note_on,61,56,0
1,note_on,61,0,240
1,note_on,62,51,0
1,note_on,62,0,240
1,note_on,64,58,0
1,note_on,64,0,120
1,note_on,55,49,360
1,note_on,59,49,0
1,note_on,64,49,0
1,note_on,67,53,0
1,note_on,67,0,120
1,note_on,55,0,0
1,note_on,59,0,0
1,note_on,64,0,0
1,note_on,54,42,360
1,note_on,61,42,0
1,note_on,64,42,0
1,note_on,66,51,0
1,note_on,66,0,120
1,note_on,54,0,0
1,note_on,61,0,0
1,note_on,64,0,0
1,note_on,62,58,376
1,note_on,59,58,0
1,note_on,59,0,120
1,note_on,62,0,0
1,note_on,62,55,360
1,note_on,59,46,0
1,note_on,59,0,120
1,note_on,62,0,0
1,note_on,64,50,120
1,note_on,64,0,120
1,note_on,61,59,120
1,note_on,57,59,0
1,note_on,57,0,240
1,note_on,55,52,0
1,note_on,55,0,240
1,note_on,61,0,0
1,note_on,62,64,0
1,note_on,62,0,240
1,note_on,74,77,240
1,note_on,66,64,0
1,note_on,66,0,240
1,note_on,74,0,0
1,note_on,62,59,720
1,note_on,62,0,240
1,note_on,66,49,180
1,note_on,66,0,60
1,note_on,64,55,0
1,note_on,64,0,240
1,note_on,62,53,0
1,note_on,62,0,240
1,note_on,61,56,0
1,note_on,61,0,240
1,note_on,62,51,0
1,note_on,62,0,240
1,note_on,64,58,0
1,note_on,64,0,120
1,note_on,55,49,360
1,note_on,59,49,0
1,note_on,64,49,0
1,note_on,67,53,0
1,note_on,67,0,120
1,note_on,55,0,0
1,note_on,59,0,0
1,note_on,64,0,0
1,note_on,54,42,360
1,note_on,61,42,0
1,note_on,64,42,0
1,note_on,66,51,0
1,note_on,66,0,120
1,note_on,54,0,0
1,note_on,61,0,0
1,note_on,64,0,0
1,note_on,62,58,360
1,note_on,62,0,120
1,note_on,54,46,360
1,note_on,59,46,0
1,note_on,62,46,0
1,note_on,66,55,0
1,note_on,66,0,120
1,note_on,54,0,0
1,note_on,59,0,0
1,note_on,62,0,0
1,note_on,59,42,360
1,note_on,62,42,0
1,note_on,64,51,0
1,note_on,64,0,120
1,note_on,62,0,0
1,note_on,59,0,0
1,note_on,61,59,360
1,note_on,61,0,240
1,note_on,62,49,180
1,note_on,62,0,60
1,note_on,61,55,0
1,note_on,61,0,240
1,note_on,59,53,0
1,note_on,59,0,240
1,note_on,61,56,0
1,note_on,61,0,240
1,note_on,62,59,224
1,note_on,62,0,240
1,note_on,66,49,180
1,note_on,66,0,60
1,note_on,64,55,0
1,note_on,64,0,240
1,note_on,62,53,0
1,note_on,62,0,240
1,note_on,61,56,0
1,note_on,61,0,240
1,note_on,62,51,0
1,note_on,62,0,240
1,note_on,64,58,0
1,note_on,64,0,120
1,note_on,55,49,360
1,note_on,59,49,0
1,note_on,64,49,0
1,note_on,67,53,0
1,note_on,67,0,120
1,note_on,55,0,0
1,note_on,59,0,0
1,note_on,64,0,0
1,note_on,54,42,360
1,note_on,61,42,0
1,note_on,64,42,0
1,note_on,66,51,0
1,note_on,66,0,120
1,note_on,54,0,0
1,note_on,61,0,0
1,note_on,64,0,0
1,note_on,62,58,376
1,note_on,59,58,0
1,note_on,59,0,120
1,note_on,62,0,0
1,note_on,62,55,360
1,note_on,59,46,0
1,note_on,59,0,120
1,note_on,62,0,0
1,note_on,64,50,120
1,note_on,64,0,120
1,note_on,61,59,120
1,note_on,57,59,0
1,note_on,57,0,240
1,note_on,55,52,0
1,note_on,55,0,240
1,note_on,61,0,0
1,note_on,62,64,0
1,note_on,62,0,240
1,note_on,74,77,240
1,note_on,66,64,0
1,note_on,66,0,240
1,note_on,74,0,0
1,note_on,74,57,720
1,note_on,81,67,0
1,note_on,81,0,480
1,note_on,83,59,0
1,note_on,83,0,240
1,note_on,81,55,0
1,note_on,81,0,240
1,note_on,79,57,0
1,note_on,79,0,240
1,note_on,81,53,0
1,note_on,81,0,240
1,note_on,83,60,0
1,note_on,83,0,480
1,note_on,83,59,0
1,note_on,83,0,240
1,note_on,86,55,0
1,note_on,86,0,240
1,note_on,83,58,0
1,note_on,83,0,480
1,note_on,74,0,0
1,note_on,74,57,0
1,note_on,81,67,0
1,note_on,81,0,480
1,note_on,83,59,0
1,note_on,83,0,240
1,note_on,81,55,0
1,note_on,81,0,240
1,note_on,79,57,0
1,note_on,79,0,240
1,note_on,78,53,0
1,note_on,78,0,240
1,note_on,74,0,0
1,note_on,73,48,0
1,note_on,76,60,0
1,note_on,76,0,480
1,note_on,73,0,0
1,note_on,73,45,0
1,note_on,76,57,0
1,note_on,76,0,240
1,note_on,73,0,0
1,note_on,71,44,0
1,note_on,74,55,0
1,note_on,74,0,240
1,note_on,71,0,0
1,note_on,73,46,0
1,note_on,76,58,0
1,note_on,76,0,480
1,note_on,73,0,0
1,note_on,74,57,0
1,note_on,81,67,0
1,note_on,81,0,480
1,note_on,83,59,0
1,note_on,83,0,240
1,note_on,81,55,0
1,note_on,81,0,240
1,note_on,79,57,0
1,note_on,79,0,240
1,note_on,81,53,0
1,note_on,81,0,240
1,note_on,83,60,0
1,note_on,83,0,480
1,note_on,83,59,0
1,note_on,83,0,240
1,note_on,86,55,0
1,note_on,86,0,240
1,note_on,83,58,0
1,note_on,83,0,480
1,note_on,74,0,0
1,note_on,74,57,0
1,note_on,81,67,0
1,note_on,81,0,480
1,note_on,83,59,0
1,note_on,83,0,240
1,note_on,81,55,0
1,note_on,81,0,240
1,note_on,79,57,0
1,note_on,79,0,240
1,note_on,78,53,0
1,note_on,78,0,240
1,note_on,74,0,0
1,note_on,69,48,0
1,note_on,73,48,0
1,note_on,76,60,0
1,note_on,76,0,1440
1,note_on,73,0,0
1,note_on,69,0,0
1,note_on,62,59,0
1,note_on,62,0,240
1,note_on,66,49,180
1,note_on,66,0,60
1,note_on,64,55,0
1,note_on,64,0,240
1,note_on,62,53,0
1,note_on,62,0,240
1,note_on,61,56,0
1,note_on,61,0,240
1,note_on,62,51,0
1,note_on,62,0,240
1,note_on,64,58,0
1,note_on,64,0,120
1,note_on,55,49,360
1,note_on,59,49,0
1,note_on,64,49,0
1,note_on,67,53,0
1,note_on,67,0,120
1,note_on,55,0,0
1,note_on,59,0,0
1,note_on,64,0,0
1,note_on,54,42,360
1,note_on,61,42,0
1,note_on,64,42,0
1,note_on,66,51,0
1,note_on,66,0,120
1,note_on,54,0,0
1,note_on,61,0,0
1,note_on,64,0,0
1,note_on,62,58,360
1,note_on,62,0,120
1,note_on,54,46,360
1,note_on,59,46,0
1,note_on,62,46,0
1,note_on,66,55,0
1,note_on,66,0,120
1,note_on,54,0,0
1,note_on,59,0,0
1,note_on,62,0,0
1,note_on,59,42,360
1,note_on,62,42,0
1,note_on,64,51,0
1,note_on,64,0,120
1,note_on,62,0,0
1,note_on,59,0,0
1,note_on,61,59,360
1,note_on,61,0,240
1,note_on,62,49,180
1,note_on,62,0,60
1,note_on,61,55,0
1,note_on,61,0,240
1,note_on,59,53,0
1,note_on,59,0,240
1,note_on,61,56,0
1,note_on,61,0,240
1,note_on,62,59,240
1,note_on,62,0,240
1,note_on,66,49,164
1,note_on,66,0,60
1,note_on,64,55,16
1,note_on,64,0,240
1,note_on,62,53,0
1,note_on,62,0,240
1,note_on,61,56,0
1,note_on,61,0,240
1,note_on,62,51,40
1,note_on,64,58,200
1,note_on,62,0,40
1,note_on,64,0,80
1,note_on,55,49,360
1,note_on,59,49,0
1,note_on,64,49,0
1,note_on,67,53,0
1,note_on,67,0,120
1,note_on,55,0,0
1,note_on,59,0,0
1,note_on,64,0,0
1,note_on,54,42,360
1,note_on,61,42,0
1,note_on,64,42,0
1,note_on,66,51,0
1,note_on,66,0,120
1,note_on,54,0,0
1,note_on,61,0,0
1,note_on,64,0,0
1,note_on,62,58,360
1,note_on,59,58,0
1,note_on,59,0,120
1,note_on,62,0,0
1,note_on,62,55,360
1,note_on,59,46,0
1,note_on,59,0,120
1,note_on,62,0,0
1,note_on,64,50,120
1,note_on,64,0,120
1,note_on,61,59,120
1,note_on,57,59,0
1,note_on,57,0,240
1,note_on,55,52,0
1,note_on,55,0,240
1,note_on,61,0,0
1,note_on,62,64,0
1,note_on,62,0,240
1,note_on,74,77,240
1,note_on,66,64,0
1,note_on,66,0,240
1,note_on,74,0,0
1,note_on,78,59,720
1,note_on,71,39,240
1,note_on,78,0,240
1,note_on,79,52,0
1,note_on,79,0,240
1,note_on,71,0,0
1,note_on,71,35,0
1,note_on,78,47,0
1,note_on,78,0,240
1,note_on,76,50,0
1,note_on,76,0,240
1,note_on,71,0,0
1,note_on,71,35,0
1,note_on,78,48,0
1,note_on,78,0,240
1,note_on,71,0,0
1,note_on,79,53,0
1,note_on,71,37,240
1,note_on,79,0,240
1,note_on,83,52,0
1,note_on,71,0,240
1,note_on,71,36,0
1,note_on,83,0,240
1,note_on,76,51,0
1,note_on,71,0,240
1,note_on,71,28,0
1,note_on,71,0,240
1,note_on,76,0,0
1,note_on,78,59,0
1,note_on,71,39,240
1,note_on,71,0,240
1,note_on,78,0,0
1,note_on,79,52,0
1,note_on,79,0,240
1,note_on,71,35,0
1,note_on,78,47,0
1,note_on,78,0,240
1,note_on,71,0,0
1,note_on,76,50,0
1,note_on,76,0,240
1,note_on,71,35,0
1,note_on,78,48,0
1,note_on,78,0,240
1,note_on,71,0,0
1,note_on,79,53,0
1,note_on,67,37,240
1,note_on,67,0,240
1,note_on,79,0,0
1,note_on,76,52,0
1,note_on,67,36,240
1,note_on,67,0,240
1,note_on,76,0,0
1,note_on,73,51,0
1,note_on,64,28,240
1,note_on,64,0,240
1,note_on,73,0,0
1,note_on,62,40,0
1,note_on,71,48,0
1,note_on,71,0,1440
1,note_on,62,0,0
1,note_on,74,52,0
1,note_on,67,52,0
1,note_on,74,0,120
1,note_on,73,48,0
1,note_on,73,0,120
1,note_on,74,53,0
1,note_on,74,0,120
1,note_on,73,49,0
1,note_on,73,0,120
1,note_on,74,56,0
1,note_on,74,0,120
1,note_on,73,50,0
1,note_on,73,0,120
1,note_on,74,57,0
1,note_on,74,0,120
1,note_on,73,51,0
1,note_on,73,0,120
1,note_on,74,57,0
1,note_on,74,0,120
1,note_on,73,52,0
1,note_on,73,0,120
1,note_on,71,58,0
1,note_on,71,0,120
1,note_on,73,51,0
1,note_on,73,0,120
1,note_on,67,0,0
1,note_on,66,57,0
1,note_on,74,57,0
1,note_on,74,0,480
1,note_on,66,0,0
1,note_on,74,55,0
1,note_on,74,0,240
1,note_on,76,49,0
1,note_on,76,0,240
1,note_on,64,52,0
1,note_on,73,52,0
1,note_on,73,0,480
1,note_on,64,0,0
1,note_on,62,46,0
1,note_on,71,46,0
1,note_on,71,0,1440
1,note_on,62,0,0
1,note_on,74,52,0
1,note_on,67,52,0
1,note_on,74,0,120
1,note_on,73,48,0
1,note_on,73,0,120
1,note_on,74,53,0
1,note_on,74,0,120
1,note_on,73,49,0
1,note_on,73,0,120
1,note_on,74,56,0
1,note_on,74,0,120
1,note_on,73,50,0
1,note_on,73,0,120
1,note_on,74,57,0
1,note_on,74,0,120
1,note_on,73,51,0
1,note_on,73,0,120
1,note_on,74,57,0
1,note_on,74,0,120
1,note_on,73,52,0
1,note_on,73,0,120
1,note_on,71,58,0
1,note_on,71,0,120
1,note_on,73,51,0
1,note_on,73,0,120
1,note_on,67,0,0
1,note_on,74,57,0
1,note_on,66,57,240
1,note_on,66,0,240
1,note_on,74,0,0
1,note_on,74,55,0
1,note_on,74,0,240
1,note_on,66,57,0
1,note_on,76,49,0
1,note_on,76,0,240
1,note_on,73,52,0
1,note_on,66,0,240
1,note_on,64,45,0
1,note_on,64,0,240
1,note_on,73,0,0
1,note_on,71,46,0
1,note_on,62,29,480
1,note_on,66,29,0
1,note_on,66,0,480
1,note_on,62,0,0
1,note_on,62,27,0
1,note_on,66,27,0
1,note_on,66,0,480
1,note_on,62,0,0
1,note_on,71,0,0
1,note_on,62,26,0
1,note_on,66,26,0
1,note_on,66,0,480
1,note_on,62,0,0
1,note_on,62,25,0
1,note_on,66,25,0
1,note_on,66,0,480
1,note_on,62,0,0
1,note_on,62,23,0
1,note_on,66,23,0
1,note_on,66,0,480
1,note_on,62,0,0
1,note_on,78,59,0
1,note_on,71,39,240
1,note_on,78,0,240
1,note_on,79,52,0
1,note_on,79,0,240
1,note_on,71,0,0
1,note_on,71,35,0
1,note_on,78,47,0
1,note_on,78,0,240
1,note_on,76,50,0
1,note_on,76,0,240
1,note_on,71,0,0
1,note_on,71,35,0
1,note_on,78,48,0
1,note_on,78,0,240
1,note_on,71,0,0
1,note_on,79,53,0
1,note_on,71,37,240
1,note_on,79,0,240
1,note_on,83,52,0
1,note_on,71,0,240
1,note_on,71,36,0
1,note_on,83,0,240
1,note_on,76,51,0
1,note_on,71,0,240
1,note_on,71,28,0
1,note_on,71,0,240
1,note_on,76,0,0
1,note_on,78,59,0
1,note_on,71,39,240
1,note_on,71,0,240
1,note_on,78,0,0
1,note_on,79,52,0
1,note_on,79,0,240
1,note_on,71,35,0
1,note_on,78,47,0
1,note_on,78,0,240
1,note_on,71,0,0
1,note_on,76,50,0
1,note_on,76,0,240
1,note_on,71,35,0
1,note_on,78,48,0
1,note_on,78,0,240
1,note_on,71,0,0
1,note_on,79,53,0
1,note_on,67,37,240
1,note_on,67,0,240
1,note_on,79,0,0
1,note_on,76,52,0
1,note_on,67,36,240
1,note_on,67,0,240
1,note_on,76,0,0
1,note_on,73,51,0
1,note_on,64,28,240
1,note_on,64,0,240
1,note_on,73,0,0
1,note_on,62,40,0
1,note_on,71,48,0
1,note_on,71,0,1440
1,note_on,62,0,0
1,note_on,74,52,0
1,note_on,67,52,0
1,note_on,74,0,120
1,note_on,73,48,0
1,note_on,73,0,120
1,note_on,74,53,0
1,note_on,74,0,120
1,note_on,73,49,0
1,note_on,73,0,120
1,note_on,74,56,0
1,note_on,74,0,120
1,note_on,73,50,0
1,note_on,73,0,120
1,note_on,74,57,0
1,note_on,74,0,120
1,note_on,73,51,0
1,note_on,73,0,120
1,note_on,74,57,0
1,note_on,74,0,120
1,note_on,73,52,0
1,note_on,73,0,120
1,note_on,71,58,0
1,note_on,71,0,120
1,note_on,73,51,0
1,note_on,73,0,120
1,note_on,67,0,0
1,note_on,66,57,0
1,note_on,74,57,0
1,note_on,74,0,480
1,note_on,66,0,0
1,note_on,74,55,0
1,note_on,74,0,240
1,note_on,76,49,0
1,note_on,76,0,240
1,note_on,64,52,0
1,note_on,73,52,0
1,note_on,73,0,480
1,note_on,64,0,0
1,note_on,62,46,0
1,note_on,71,46,0
1,note_on,71,0,1440
1,note_on,62,0,0
1,note_on,74,52,0
1,note_on,67,52,0
1,note_on,74,0,120
1,note_on,73,48,0
1,note_on,73,0,120
1,note_on,74,53,0
1,note_on,74,0,120
1,note_on,73,49,0
1,note_on,73,0,120
1,note_on,74,56,0
1,note_on,74,0,120
1,note_on,73,50,0
1,note_on,73,0,120
1,note_on,74,57,0
1,note_on,74,0,120
1,note_on,73,51,0
1,note_on,73,0,120
1,note_on,74,57,0
1,note_on,74,0,120
1,note_on,73,52,0
1,note_on,73,0,120
1,note_on,71,58,0
1,note_on,71,0,120
1,note_on,73,51,0
1,note_on,73,0,120
1,note_on,67,0,0
1,note_on,74,57,0
1,note_on,66,57,240
1,note_on,66,0,240
1,note_on,74,0,0
1,note_on,74,55,0
1,note_on,74,0,240
1,note_on,66,57,0
1,note_on,76,49,0
1,note_on,76,0,240
1,note_on,73,52,0
1,note_on,66,0,240
1,note_on,64,45,0
1,note_on,64,0,240
1,note_on,73,0,0
1,note_on,71,46,0
1,note_on,62,29,480
1,note_on,66,29,0
1,note_on,66,0,480
1,note_on,62,0,0
1,note_on,62,27,0
1,note_on,66,27,0
1,note_on,66,0,480
1,note_on,62,0,0
1,note_on,71,0,0
1,note_on,62,26,0
1,note_on,66,26,0
1,note_on,66,0,480
1,note_on,62,0,0
1,note_on,62,25,0
1,note_on,66,25,0
1,note_on,66,0,480
1,note_on,62,0,0
1,note_on,62,23,0
1,note_on,66,23,0
1,note_on,66,0,480
1,note_on,62,0,0
1,note_on,86,98,0
1,note_on,74,82,0
1,note_on,74,0,480
1,note_on,86,0,0
1,note_on,88,93,0
1,note_on,76,78,0
1,note_on,76,0,240
1,note_on,88,0,0
1,note_on,86,89,0
1,note_on,74,75,0
1,note_on,74,0,240
1,note_on,86,0,0
1,note_on,85,88,0
1,note_on,73,74,0
1,note_on,73,0,240
1,note_on,85,0,0
1,note_on,86,87,0
1,note_on,74,74,0
1,note_on,74,0,240
1,note_on,86,0,0
1,note_on,88,97,0
1,note_on,76,81,0
1,note_on,76,0,480
1,note_on,88,0,0
1,note_on,91,89,0
1,note_on,79,75,0
1,note_on,79,0,480
1,note_on,91,0,0
1,note_on,90,87,0
1,note_on,78,74,0
1,note_on,78,0,480
1,note_on,90,0,0
1,note_on,86,98,0
1,note_on,74,82,0
1,note_on,74,0,480
1,note_on,86,0,0
1,note_on,88,89,0
1,note_on,76,75,0
1,note_on,76,0,240
1,note_on,88,0,0
1,note_on,86,87,0
1,note_on,74,74,0
1,note_on,74,0,240
1,note_on,86,0,0
1,note_on,85,86,0
1,note_on,73,72,0
1,note_on,73,0,240
1,note_on,85,0,0
1,note_on,86,85,0
1,note_on,74,72,0
1,note_on,74,0,240
1,note_on,86,0,0
1,note_on,88,96,0
1,note_on,76,81,0
1,note_on,76,0,480
1,note_on,88,0,0
1,note_on,91,88,0
1,note_on,79,74,0
1,note_on,79,0,480
1,note_on,91,0,0
1,note_on,90,87,0
1,note_on,78,74,0
1,note_on,78,0,480
1,note_on,90,0,0
1,note_on,86,96,0
1,note_on,74,81,0
1,note_on,74,0,480
1,note_on,86,0,0
1,note_on,76,74,0
1,note_on,88,87,0
1,note_on,88,0,240
1,note_on,76,0,0
1,note_on,78,74,0
1,note_on,90,88,0
1,note_on,90,0,240
1,note_on,78,0,0
1,note_on,81,77,0
1,note_on,93,92,0
1,note_on,93,0,240
1,note_on,81,0,0
1,note_on,84,78,0
1,note_on,96,93,0
1,note_on,96,0,240
1,note_on,84,0,0
1,note_on,88,80,0
1,note_on,100,94,0
1,note_on,100,0,480
1,note_on,88,0,0
1,note_on,91,78,0
1,note_on,103,93,0
1,note_on,103,0,480
1,note_on,91,0,0
1,note_on,90,78,0
1,note_on,102,93,0
1,note_on,102,0,480
1,note_on,90,0,0
1,note_on,90,60,0
1,note_on,102,94,0
1,note_on,102,0,480
1,note_on,90,0,0
1,note_on,91,57,0
1,note_on,103,86,0
1,note_on,103,0,240
1,note_on,91,0,0
1,note_on,90,57,0
1,note_on,102,86,0
1,note_on,102,0,240
1,note_on,90,0,0
1,note_on,88,55,0
1,note_on,100,85,0
1,note_on,100,0,240
1,note_on,88,0,0
1,note_on,86,55,0
1,note_on,98,85,0
1,note_on,98,0,240
1,note_on,86,0,0
1,note_on,85,77,0
1,note_on,97,92,0
1,note_on,97,0,420
1,note_on,85,0,0
1,note_on,98,76,0
1,note_on,98,0,60
1,note_on,85,74,0
1,note_on,97,87,0
1,note_on,97,0,240
1,note_on,85,0,0
1,note_on,81,66,0
1,note_on,93,80,0
1,note_on,93,0,240
1,note_on,81,0,0
1,note_on,83,73,0
1,note_on,95,86,0
1,note_on,95,0,240
1,note_on,83,0,0
1,note_on,85,69,0
1,note_on,97,82,0
1,note_on,97,0,240
1,note_on,85,0,0
1,note_on,86,74,0
1,note_on,98,88,0
1,note_on,98,0,420
1,note_on,86,0,0
1,note_on,64,64,0
1,note_on,64,0,60
1,note_on,62,69,0
1,note_on,62,0,120
1,note_on,61,66,120
1,note_on,61,0,120
1,note_on,62,70,120
1,note_on,62,0,120
1,note_on,62,65,360
1,note_on,62,0,120
1,note_on,69,69,360
1,note_on,69,0,120
1,note_on,66,66,120
1,note_on,66,0,120
1,note_on,62,70,120
1,note_on,62,0,120
1,note_on,62,69,360
1,note_on,62,0,120
1,note_on,61,66,120
1,note_on,61,0,120
1,note_on,62,70,120
1,note_on,62,0,120
1,note_on,62,69,360
1,note_on,62,0,120
1,note_on,61,66,120
1,note_on,61,0,120
1,note_on,62,70,120
1,note_on,62,0,120
1,note_on,69,72,360
1,note_on,69,0,120
1,note_on,66,69,120
1,note_on,66,0,120
1,note_on,62,73,120
1,note_on,62,0,120
1,note_on,69,75,360
1,note_on,69,0,120
1,note_on,66,72,120
1,note_on,66,0,120
1,note_on,62,76,120
1,note_on,62,0,120
1,note_on,69,78,360
1,note_on,69,0,120
1,note_on,66,75,120
1,note_on,66,0,120
1,note_on,62,71,120
1,note_on,62,0,120
1,note_on,69,66,120
1,note_on,69,0,120
1,note_on,66,72,120
1,note_on,66,0,120
1,note_on,62,69,120
1,note_on,62,0,120
1,note_on,69,72,120
1,note_on,69,0,120
1,note_on,66,70,120
1,note_on,66,0,120
1,note_on,62,71,120
1,note_on,74,84,0
1,note_on,74,0,120
1,note_on,62,0,0
1,note_on,69,64,120
1,note_on,81,76,0
1,note_on,81,0,120
1,note_on,69,0,0
1,note_on,78,88,120
1,note_on,66,73,0
1,note_on,66,0,120
1,note_on,78,0,0
1,note_on,62,72,120
1,note_on,74,85,0
1,note_on,74,0,120
1,note_on,62,0,0
1,note_on,81,87,120
1,note_on,69,72,0
1,note_on,69,0,120
1,note_on,81,0,0
1,note_on,78,88,120
1,note_on,66,74,0
1,note_on,66,0,120
1,note_on,78,0,0
1,note_on,62,81,120
1,note_on,74,96,0
1,note_on,66,81,0
1,note_on,66,0,480
1,note_on,74,0,0
1,note_on,62,0,0
1,note_on,66,81,0
1,note_on,74,96,0
1,note_on,62,81,0
1,note_on,62,0,480
1,note_on,74,0,0
1,note_on,66,0,0
1,note_on,74,93,480
1,note_on,86,110,0
1,note_on,78,93,0
1,note_on,78,0,480
1,note_on,86,0,0
1,note_on,74,0,0
1,note_on,78,93,0
1,note_on,86,110,0
1,note_on,74,93,0
1,note_on,74,0,480
1,note_on,86,0,0
1,note_on,78,0,0
1,note_on,86,101,480
1,note_on,98,120,0
1,note_on,90,101,0
1,note_on,90,0,480
1,note_on,98,0,0
1,note_on,86,0,0
2,note_on,38,46,0
2,note_on,50,64,0
2,note_on,50,0,480
2,note_on,38,0,0
2,note_on,52,61,0
2,note_on,40,44,0
2,note_on,40,0,71
2,note_on,52,0,0
2,note_on,50,59,120
2,note_on,38,41,0
2,note_on,38,0,120
2,note_on,50,0,0
2,note_on,37,45,120
2,note_on,49,62,0
2,note_on,49,0,120
2,note_on,37,0,0
2,note_on,38,40,120
2,note_on,50,58,0
2,note_on,50,0,120
2,note_on,38,0,0
2,note_on,52,63,120
2,note_on,40,45,0
2,note_on,40,0,49
2,note_on,52,0,0
2,note_on,55,52,360
2,note_on,43,37,0
2,note_on,43,0,120
2,note_on,55,0,0
2,note_on,42,40,360
2,note_on,54,58,0
2,note_on,54,0,120
2,note_on,42,0,0
2,note_on,38,46,360
2,note_on,50,64,0
2,note_on,50,0,420
2,note_on,38,0,0
2,note_on,54,56,0
2,note_on,42,39,0
2,note_on,42,0,56
2,note_on,54,0,0
2,note_on,52,59,0
2,note_on,40,42,0
2,note_on,40,0,120
2,note_on,52,0,0
2,note_on,38,40,120
2,note_on,50,57,0
2,note_on,50,0,120
2,note_on,38,0,0
2,note_on,37,44,120
2,note_on,49,60,0
2,note_on,49,0,120
2,note_on,37,0,0
2,note_on,50,56,120
2,note_on,38,39,0
2,note_on,38,0,120
2,note_on,50,0,0
2,note_on,40,45,120
2,note_on,52,63,0
2,note_on,52,0,78
2,note_on,40,0,0
2,note_on,43,37,360
2,note_on,55,52,0
2,note_on,55,0,120
2,note_on,43,0,0
2,note_on,42,40,360
2,note_on,54,58,0
2,note_on,54,0,120
2,note_on,42,0,0
2,note_on,50,63,0
2,note_on,38,59,0
2,note_on,38,0,480
2,note_on,50,0,0
2,note_on,52,58,0
2,note_on,52,0,137
2,note_on,54,59,0
2,note_on,54,0,240
2,note_on,57,60,0
2,note_on,57,0,240
2,note_on,60,61,0
2,note_on,60,0,240
2,note_on,64,62,0
2,note_on,64,0,373
2,note_on,67,61,0
2,note_on,67,0,480
2,note_on,66,60,0
2,note_on,66,0,347
2,note_on,59,57,0
2,note_on,55,55,0
2,note_on,55,0,748
2,note_on,59,0,0
2,note_on,55,58,0
2,note_on,61,60,0
2,note_on,57,58,0
2,note_on,57,0,287
2,note_on,61,0,0
2,note_on,55,0,0
2,note_on,61,58,60
2,note_on,61,0,161
2,note_on,57,53,0
2,note_on,57,0,240
2,note_on,59,57,0
2,note_on,59,0,240
2,note_on,61,55,0
2,note_on,61,0,240
2,note_on,54,59,0
2,note_on,57,59,0
2,note_on,62,59,0
2,note_on,62,0,21
2,note_on,57,0,0
2,note_on,54,0,0
2,note_on,40,44,0
2,note_on,52,61,0
2,note_on,52,0,71
2,note_on,40,0,0
2,note_on,50,59,120
2,note_on,38,41,0
2,note_on,38,0,120
2,note_on,50,0,0
2,note_on,37,45,120
2,note_on,49,62,0
2,note_on,49,0,120
2,note_on,37,0,0
2,note_on,38,40,120
2,note_on,50,58,0
2,note_on,50,0,120
2,note_on,38,0,0
2,note_on,52,63,120
2,note_on,40,45,0
2,note_on,40,0,92
2,note_on,52,0,0
2,note_on,55,52,360
2,note_on,43,37,0
2,note_on,43,0,120
2,note_on,55,0,0
2,note_on,42,40,360
2,note_on,54,58,0
2,note_on,54,0,120
2,note_on,42,0,0
2,note_on,38,46,360
2,note_on,50,64,0
2,note_on,50,0,420
2,note_on,38,0,0
2,note_on,54,56,0
2,note_on,42,39,0
2,note_on,42,0,56
2,note_on,54,0,0
2,note_on,52,59,0
2,note_on,40,42,0
2,note_on,40,0,120
2,note_on,52,0,0
2,note_on,38,40,120
2,note_on,50,57,0
2,note_on,50,0,120
2,note_on,38,0,0
2,note_on,37,44,120
2,note_on,49,60,0
2,note_on,49,0,120
2,note_on,37,0,0
2,note_on,50,56,120
2,note_on,38,39,0
2,note_on,38,0,120
2,note_on,50,0,0
2,note_on,40,45,120
2,note_on,52,63,0
2,note_on,52,0,92
2,note_on,40,0,0
2,note_on,43,37,360
2,note_on,55,52,0
2,note_on,55,0,120
2,note_on,43,0,0
2,note_on,42,40,360
2,note_on,54,58,0
2,note_on,54,0,120
2,note_on,42,0,0
2,note_on,50,63,0
2,note_on,38,58,0
2,note_on,38,0,480
2,note_on,50,0,0
2,note_on,52,58,0
2,note_on,52,0,137
2,note_on,54,59,0
2,note_on,54,0,240
2,note_on,57,60,0
2,note_on,57,0,240
2,note_on,60,61,0
2,note_on,60,0,240
2,note_on,64,62,0
2,note_on,64,0,373
2,note_on,67,61,0
2,note_on,67,0,480
2,note_on,66,60,0
2,note_on,66,0,347
2,note_on,59,57,0
2,note_on,55,55,0
2,note_on,55,0,748
2,note_on,59,0,0
2,note_on,55,58,0
2,note_on,61,60,0
2,note_on,57,58,0
2,note_on,57,0,287
2,note_on,61,0,0
2,note_on,55,0,0
2,note_on,61,58,60
2,note_on,61,0,161
2,note_on,57,53,0
2,note_on,57,0,240
2,note_on,59,57,0
2,note_on,59,0,240
2,note_on,61,55,0
2,note_on,61,0,240
2,note_on,54,59,0
2,note_on,57,59,0
2,note_on,62,59,0
2,note_on,62,0,85
2,note_on,57,0,0
2,note_on,54,0,0
2,note_on,38,44,0
2,note_on,50,61,0
2,note_on,50,0,71
2,note_on,38,0,0
2,note_on,49,59,120
2,note_on,37,41,0
2,note_on,37,0,120
2,note_on,49,0,0
2,note_on,38,45,120
2,note_on,50,62,0
2,note_on,50,0,120
2,note_on,38,0,0
2,note_on,38,52,311
2,note_on,50,59,0
2,note_on,50,0,120
2,note_on,38,0,0
2,note_on,45,44,60
2,note_on,57,61,0
2,note_on,57,0,71
2,note_on,45,0,0
2,note_on,54,59,120
2,note_on,42,41,0
2,note_on,42,0,120
2,note_on,54,0,0
2,note_on,38,45,120
2,note_on,50,62,0
2,note_on,50,0,120
2,note_on,38,0,0
2,note_on,60,46,240
2,note_on,66,46,0
2,note_on,69,46,0
2,note_on,62,46,0
2,note_on,62,0,120
2,note_on,60,0,0
2,note_on,66,0,0
2,note_on,69,0,0
2,note_on,62,42,120
2,note_on,66,42,0
2,note_on,60,42,0
2,note_on,69,42,0
2,note_on,69,0,120
2,note_on,62,0,0
2,note_on,66,0,0
2,note_on,60,0,0
2,note_on,60,45,120
2,note_on,62,45,0
2,note_on,69,45,0
2,note_on,66,45,0
2,note_on,66,0,120
2,note_on,60,0,0
2,note_on,62,0,0
2,note_on,69,0,0
2,note_on,60,44,360
2,note_on,66,44,0
2,note_on,69,44,0
2,note_on,62,44,0
2,note_on,62,0,120
2,note_on,60,0,0
2,note_on,66,0,0
2,note_on,69,0,0
2,note_on,62,41,120
2,note_on,66,41,0
2,note_on,60,41,0
2,note_on,69,41,0
2,note_on,69,0,120
2,note_on,62,0,0
2,note_on,66,0,0
2,note_on,60,0,0
2,note_on,59,44,120
2,note_on,62,44,0
2,note_on,71,44,0
2,note_on,67,44,0
2,note_on,67,0,120
2,note_on,59,0,0
2,note_on,62,0,0
2,note_on,71,0,0
2,note_on,59,41,360
2,note_on,67,49,0
2,note_on,71,49,0
2,note_on,62,41,0
2,note_on,62,0,219
2,note_on,59,0,0
2,note_on,67,0,0
2,note_on,71,0,0
2,note_on,59,39,0
2,note_on,62,39,0
2,note_on,71,47,0
2,note_on,67,47,0
2,note_on,67,0,240
2,note_on,59,0,0
2,note_on,62,0,0
2,note_on,71,0,0
2,note_on,59,41,0
2,note_on,67,49,0
2,note_on,71,49,0
2,note_on,62,41,0
2,note_on,62,0,106
2,note_on,59,0,0
2,note_on,67,0,0
2,note_on,71,0,0
2,note_on,58,53,120
2,note_on,67,53,0
2,note_on,62,53,367
2,note_on,64,48,67
2,note_on,64,0,187
2,note_on,65,49,0
2,note_on,65,0,60
2,note_on,62,0,0
2,note_on,67,0,0
2,note_on,58,0,0
2,note_on,62,56,0
2,note_on,66,56,0
2,note_on,57,56,0
2,note_on,57,0,120
2,note_on,66,0,0
2,note_on,62,0,0
2,note_on,50,59,360
2,note_on,50,0,34
2,note_on,57,52,360
2,note_on,66,52,0
2,note_on,62,52,0
2,note_on,62,0,11
2,note_on,66,0,0
2,note_on,57,0,0
2,note_on,62,55,360
2,note_on,67,55,0
2,note_on,58,55,0
2,note_on,58,0,120
2,note_on,67,0,0
2,note_on,62,0,0
2,note_on,50,59,360
2,note_on,50,0,74
2,note_on,58,51,360
2,note_on,67,51,0
2,note_on,62,51,0
2,note_on,62,0,17
2,note_on,67,0,0
2,note_on,58,0,0
2,note_on,66,55,360
2,note_on,62,55,0
2,note_on,62,0,64
2,note_on,66,0,0
2,note_on,42,61,184
2,note_on,54,61,0
2,note_on,54,0,56
2,note_on,42,0,0
2,note_on,40,57,120
2,note_on,52,57,0
2,note_on,52,0,120
2,note_on,40,0,0
2,note_on,50,62,120
2,note_on,38,62,0
2,note_on,38,0,120
2,note_on,50,0,0
2,note_on,57,59,254
2,note_on,62,59,0
2,note_on,54,59,0
2,note_on,54,0,85
2,note_on,62,0,0
2,note_on,57,0,0
2,note_on,50,61,0
2,note_on,38,44,0
2,note_on,38,0,71
2,note_on,50,0,0
2,note_on,37,41,120
2,note_on,49,59,0
2,note_on,49,0,120
2,note_on,37,0,0
2,note_on,38,45,120
2,note_on,50,62,0
2,note_on,50,0,120
2,note_on,38,0,0
2,note_on,38,52,261
2,note_on,50,59,0
2,note_on,50,0,120
2,note_on,38,0,0
2,note_on,57,61,60
2,note_on,45,44,0
2,note_on,45,0,71
2,note_on,57,0,0
2,note_on,42,41,120
2,note_on,54,59,0
2,note_on,54,0,120
2,note_on,42,0,0
2,note_on,38,45,120
2,note_on,50,62,0
2,note_on,50,0,120
2,note_on,38,0,0
2,note_on,60,46,258
2,note_on,62,46,0
2,note_on,69,46,0
2,note_on,66,46,0
2,note_on,66,0,120
2,note_on,60,0,0
2,note_on,62,0,0
2,note_on,69,0,0
2,note_on,60,42,120
2,note_on,66,42,0
2,note_on,69,42,0
2,note_on,62,42,0
2,note_on,62,0,120
2,note_on,60,0,0
2,note_on,66,0,0
2,note_on,69,0,0
2,note_on,62,45,120
2,note_on,66,45,0
2,note_on,60,45,0
2,note_on,69,45,0
2,note_on,69,0,120
2,note_on,62,0,0
2,note_on,66,0,0
2,note_on,60,0,0
2,note_on,60,44,360
2,note_on,62,44,0
2,note_on,69,44,0
2,note_on,66,44,0
2,note_on,66,0,120
2,note_on,60,0,0
2,note_on,62,0,0
2,note_on,69,0,0
2,note_on,60,41,120
2,note_on,66,41,0
2,note_on,69,41,0
2,note_on,62,41,0
2,note_on,62,0,120
2,note_on,60,0,0
2,note_on,66,0,0
2,note_on,69,0,0
2,note_on,62,44,120
2,note_on,67,44,0
2,note_on,59,44,0
2,note_on,71,44,0
2,note_on,71,0,120
2,note_on,62,0,0
2,note_on,67,0,0
2,note_on,59,0,0
2,note_on,59,41,360
2,note_on,62,41,0
2,note_on,71,49,0
2,note_on,67,49,0
2,note_on,67,0,219
2,note_on,59,0,0
2,note_on,62,0,0
2,note_on,71,0,0
2,note_on,62,39,0
2,note_on,67,47,0
2,note_on,71,47,0
2,note_on,59,39,0
2,note_on,59,0,240
2,note_on,62,0,0
2,note_on,67,0,0
2,note_on,71,0,0
2,note_on,59,41,0
2,note_on,62,41,0
2,note_on,71,49,0
2,note_on,67,49,0
2,note_on,67,0,134
2,note_on,59,0,0
2,note_on,62,0,0
2,note_on,71,0,0
2,note_on,67,53,120
2,note_on,58,53,0
2,note_on,62,53,367
2,note_on,64,48,67
2,note_on,64,0,187
2,note_on,65,49,0
2,note_on,65,0,240
2,note_on,62,0,0
2,note_on,58,0,0
2,note_on,67,0,0
2,note_on,57,56,0
2,note_on,62,56,0
2,note_on,66,56,0
2,note_on,66,0,57
2,note_on,62,0,0
2,note_on,57,0,0
2,note_on,50,59,360
2,note_on,50,0,34
2,note_on,57,52,360
2,note_on,62,52,0
2,note_on,66,52,0
2,note_on,66,0,11
2,note_on,62,0,0
2,note_on,57,0,0
2,note_on,58,55,360
2,note_on,67,55,0
2,note_on,62,55,0
2,note_on,62,0,120
2,note_on,67,0,0
2,note_on,58,0,0
2,note_on,50,59,360
2,note_on,50,0,74
2,note_on,58,51,360
2,note_on,62,51,0
2,note_on,67,51,0
2,note_on,67,0,17
2,note_on,62,0,0
2,note_on,58,0,0
2,note_on,62,55,360
2,note_on,66,55,0
2,note_on,66,0,64
2,note_on,62,0,0
2,note_on,54,59,184
2,note_on,42,59,0
2,note_on,42,0,56
2,note_on,54,0,0
2,note_on,52,55,120
2,note_on,40,55,0
2,note_on,40,0,120
2,note_on,52,0,0
2,note_on,38,60,120
2,note_on,50,60,0
2,note_on,50,0,120
2,note_on,38,0,0
2,note_on,54,52,254
2,note_on,57,52,0
2,note_on,42,52,184
2,note_on,42,0,120
2,note_on,40,49,120
2,note_on,40,0,120
2,note_on,38,53,120
2,note_on,38,0,120
2,note_on,57,0,360
2,note_on,54,0,0
2,note_on,54,49,0
2,note_on,57,49,0
2,note_on,42,49,184
2,note_on,42,0,120
2,note_on,40,46,120
2,note_on,40,0,120
2,note_on,38,50,120
2,note_on,38,0,120
2,note_on,57,0,360
2,note_on,54,0,0
2,note_on,42,49,0
2,note_on,54,49,0
2,note_on,54,0,120
2,note_on,42,0,0
2,note_on,52,45,120
2,note_on,40,45,0
2,note_on,40,0,120
2,note_on,52,0,0
2,note_on,38,48,120
2,note_on,50,48,0
2,note_on,50,0,120
2,note_on,38,0,0
2,note_on,42,45,360
2,note_on,54,45,0
2,note_on,54,0,120
2,note_on,42,0,0
2,note_on,40,41,120
2,note_on,52,41,0
2,note_on,52,0,120
2,note_on,40,0,0
2,note_on,38,44,120
2,note_on,50,44,0
2,note_on,50,0,120
2,note_on,38,0,0
2,note_on,45,41,360
2,note_on,45,0,120
2,note_on,38,40,360
2,note_on,38,0,120
2,note_on,38,55,360
2,note_on,54,46,215
2,note_on,54,0,911
2,note_on,38,0,0
2,note_on,37,55,0
2,note_on,37,0,120
2,note_on,49,55,120
2,note_on,49,0,120
2,note_on,46,55,600
2,note_on,34,46,0
2,note_on,34,0,480
2,note_on,46,0,0
2,note_on,35,55,0
2,note_on,35,0,120
2,note_on,47,55,120
2,note_on,47,0,120
2,note_on,32,46,600
2,note_on,44,55,0
2,note_on,52,42,0
2,note_on,52,0,120
2,note_on,44,0,360
2,note_on,32,0,0
2,note_on,33,55,0
2,note_on,45,55,0
2,note_on,52,55,212
2,note_on,45,0,240
2,note_on,33,0,0
2,note_on,57,56,431
2,note_on,45,55,0
2,note_on,57,0,240
2,note_on,55,51,0
2,note_on,38,55,224
2,note_on,55,0,16
2,note_on,52,0,0
2,note_on,45,0,0
2,note_on,54,46,164
2,note_on,54,0,911
2,note_on,38,0,0
2,note_on,37,55,0
2,note_on,37,0,85
2,note_on,49,48,120
2,note_on,49,0,120
2,note_on,46,55,600
2,note_on,34,46,0
2,note_on,34,0,480
2,note_on,46,0,0
2,note_on,47,55,16
2,note_on,35,46,0
2,note_on,54,47,191
2,note_on,54,0,120
2,note_on,35,0,120
2,note_on,47,0,0
2,note_on,43,55,0
2,note_on,31,46,0
2,note_on,31,0,134
2,note_on,43,0,0
2,note_on,52,51,56
2,note_on,45,51,0
2,note_on,33,42,0
2,note_on,52,0,64
2,note_on,33,0,120
2,note_on,45,0,0
2,note_on,38,49,240
2,note_on,54,58,0
2,note_on,54,0,71
2,note_on,38,0,0
2,note_on,57,70,240
2,note_on,50,60,0
2,note_on,50,0,240
2,note_on,57,0,0
2,note_on,38,55,720
2,note_on,54,46,215
2,note_on,54,0,911
2,note_on,38,0,0
2,note_on,37,55,0
2,note_on,37,0,120
2,note_on,49,55,120
2,note_on,49,0,120
2,note_on,46,55,600
2,note_on,34,46,0
2,note_on,34,0,480
2,note_on,46,0,0
2,note_on,35,55,0
2,note_on,35,0,120
2,note_on,47,55,120
2,note_on,47,0,120
2,note_on,32,46,600
2,note_on,44,55,0
2,note_on,52,42,0
2,note_on,52,0,120
2,note_on,44,0,360
2,note_on,32,0,0
2,note_on,33,55,0
2,note_on,45,55,0
2,note_on,52,55,212
2,note_on,45,0,240
2,note_on,33,0,0
2,note_on,57,56,431
2,note_on,45,55,0
2,note_on,57,0,240
2,note_on,55,51,0
2,note_on,38,55,224
2,note_on,55,0,16
2,note_on,52,0,0
2,note_on,45,0,0
2,note_on,54,46,160
2,note_on,54,0,911
2,note_on,38,0,0
2,note_on,37,55,0
2,note_on,37,0,85
2,note_on,49,48,120
2,note_on,49,0,120
2,note_on,46,55,600
2,note_on,34,46,0
2,note_on,34,0,480
2,note_on,46,0,0
2,note_on,47,55,16
2,note_on,35,46,0
2,note_on,54,47,191
2,note_on,54,0,120
2,note_on,35,0,120
2,note_on,47,0,0
2,note_on,43,55,0
2,note_on,31,46,0
2,note_on,31,0,134
2,note_on,43,0,0
2,note_on,52,51,56
2,note_on,45,51,0
2,note_on,33,42,0
2,note_on,52,0,64
2,note_on,33,0,120
2,note_on,45,0,0
2,note_on,38,49,240
2,note_on,54,58,0
2,note_on,54,0,71
2,note_on,38,0,0
2,note_on,57,70,240
2,note_on,50,60,0
2,note_on,50,0,240
2,note_on,57,0,0
2,note_on,62,42,720
2,note_on,66,52,0
2,note_on,66,0,438
2,note_on,67,47,0
2,note_on,67,0,240
2,note_on,66,44,0
2,note_on,66,0,240
2,note_on,64,45,0
2,note_on,64,0,240
2,note_on,66,42,0
2,note_on,66,0,240
2,note_on,67,48,0
2,note_on,67,0,311
2,note_on,67,47,0
2,note_on,67,0,240
2,note_on,71,44,0
2,note_on,71,0,240
2,note_on,67,46,0
2,note_on,67,0,480
2,note_on,62,0,0
2,note_on,62,42,0
2,note_on,66,52,0
2,note_on,66,0,325
2,note_on,67,47,0
2,note_on,67,0,240
2,note_on,66,44,0
2,note_on,66,0,240
2,note_on,64,45,0
2,note_on,64,0,240
2,note_on,62,0,0
2,note_on,62,42,0
2,note_on,62,0,240
2,note_on,57,38,0
2,note_on,64,48,0
2,note_on,64,0,296
2,note_on,57,0,0
2,note_on,67,47,0
2,note_on,67,0,240
2,note_on,66,41,0
2,note_on,66,0,240
2,note_on,57,36,0
2,note_on,67,46,0
2,note_on,67,0,198
2,note_on,57,0,0
2,note_on,62,42,0
2,note_on,66,52,0
2,note_on,66,0,438
2,note_on,67,47,0
2,note_on,67,0,240
2,note_on,66,44,0
2,note_on,66,0,240
2,note_on,64,45,0
2,note_on,64,0,240
2,note_on,66,42,0
2,note_on,66,0,240
2,note_on,67,48,0
2,note_on,67,0,367
2,note_on,67,47,0
2,note_on,67,0,240
2,note_on,71,44,0
2,note_on,71,0,240
2,note_on,67,46,0
2,note_on,67,0,480
2,note_on,62,0,0
2,note_on,62,42,0
2,note_on,66,52,0
2,note_on,66,0,296
2,note_on,67,47,0
2,note_on,67,0,240
2,note_on,66,44,0
2,note_on,66,0,240
2,note_on,64,45,0
2,note_on,64,0,240
2,note_on,62,0,0
2,note_on,62,42,0
2,note_on,62,0,240
2,note_on,57,38,0
2,note_on,64,48,0
2,note_on,64,0,198
2,note_on,57,0,0
2,note_on,38,55,0
2,note_on,54,46,215
2,note_on,45,55,240
2,note_on,45,0,911
2,note_on,54,0,0
2,note_on,38,0,0
2,note_on,37,55,0
2,note_on,37,0,120
2,note_on,49,55,120
2,note_on,49,0,120
2,note_on,46,55,600
2,note_on,34,46,0
2,note_on,34,0,480
2,note_on,46,0,0
2,note_on,35,55,0
2,note_on,35,0,120
2,note_on,47,55,120
2,note_on,47,0,120
2,note_on,32,46,600
2,note_on,44,55,0
2,note_on,52,42,0
2,note_on,52,0,120
2,note_on,44,0,360
2,note_on,32,0,0
2,note_on,33,55,0
2,note_on,45,55,0
2,note_on,52,55,212
2,note_on,45,0,240
2,note_on,33,0,0
2,note_on,57,56,431
2,note_on,45,55,0
2,note_on,57,0,240
2,note_on,55,51,0
2,note_on,38,55,224
2,note_on,55,0,16
2,note_on,52,0,0
2,note_on,45,0,0
2,note_on,54,46,157
2,note_on,45,55,12
2,note_on,54,0,56
2,note_on,38,0,0
2,note_on,37,55,0
2,note_on,45,0,16
2,note_on,37,0,104
2,note_on,49,48,120
2,note_on,49,0,120
2,note_on,46,55,600
2,note_on,34,46,0
2,note_on,34,0,480
2,note_on,46,0,0
2,note_on,47,55,16
2,note_on,35,46,0
2,note_on,54,47,191
2,note_on,54,0,120
2,note_on,35,0,120
2,note_on,47,0,0
2,note_on,43,55,0
2,note_on,31,46,0
2,note_on,31,0,134
2,note_on,43,0,0
2,note_on,52,51,56
2,note_on,45,51,0
2,note_on,33,42,0
2,note_on,52,0,64
2,note_on,33,0,120
2,note_on,45,0,0
2,note_on,45,51,240
2,note_on,38,49,0
2,note_on,54,58,0
2,note_on,54,0,71
2,note_on,38,0,0
2,note_on,45,0,0
2,note_on,57,70,240
2,note_on,50,60,0
2,note_on,50,0,240
2,note_on,57,0,0
2,note_on,47,38,720
2,note_on,62,47,0
2,note_on,62,0,438
2,note_on,64,41,0
2,note_on,64,0,240
2,note_on,62,39,0
2,note_on,62,0,240
2,note_on,61,39,0
2,note_on,61,0,240
2,note_on,62,38,0
2,note_on,62,0,240
2,note_on,64,42,0
2,note_on,64,0,367
2,note_on,61,41,0
2,note_on,61,0,480
2,note_on,64,40,0
2,note_on,64,0,198
2,note_on,47,0,0
2,note_on,47,38,0
2,note_on,62,47,0
2,note_on,62,0,438
2,note_on,64,41,0
2,note_on,64,0,240
2,note_on,62,39,0
2,note_on,62,0,240
2,note_on,61,39,0
2,note_on,61,0,240
2,note_on,62,38,0
2,note_on,62,0,240
2,note_on,47,0,0
2,note_on,52,38,0
2,note_on,64,42,0
2,note_on,64,0,367
2,note_on,61,41,0
2,note_on,61,0,480
2,note_on,52,0,0
2,note_on,54,40,0
2,note_on,58,40,0
2,note_on,58,0,480
2,note_on,54,0,0
2,note_on,47,31,0
2,note_on,59,38,0
2,note_on,59,0,113
2,note_on,47,0,0
2,note_on,54,38,0
2,note_on,54,0,480
2,note_on,54,33,0
2,note_on,54,0,480
2,note_on,54,33,0
2,note_on,54,0,240
2,note_on,45,38,0
2,note_on,52,38,0
2,note_on,52,0,402
2,note_on,52,39,0
2,note_on,52,0,480
2,note_on,52,41,0
2,note_on,52,0,480
2,note_on,45,0,0
2,note_on,54,42,0
2,note_on,50,42,0
2,note_on,50,0,339
2,note_on,54,0,0
2,note_on,54,38,0
2,note_on,54,0,480
2,note_on,54,31,0
2,note_on,58,31,0
2,note_on,58,0,226
2,note_on,54,0,0
2,note_on,47,38,0
2,note_on,55,38,0
2,note_on,59,38,0
2,note_on,59,0,194
2,note_on,55,0,0
2,note_on,47,0,0
2,note_on,47,47,0
2,note_on,47,0,240
2,note_on,46,41,0
2,note_on,46,0,240
2,note_on,47,38,0
2,note_on,47,0,206
2,note_on,45,38,0
2,note_on,52,38,0
2,note_on,52,0,162
2,note_on,52,45,0
2,note_on,52,0,480
2,note_on,52,38,0
2,note_on,52,0,480
2,note_on,52,38,0
2,note_on,52,0,240
2,note_on,45,0,0
2,note_on,54,42,0
2,note_on,50,42,0
2,note_on,50,0,339
2,note_on,54,0,0
2,note_on,54,38,0
2,note_on,54,0,480
2,note_on,54,31,0
2,note_on,58,31,0
2,note_on,58,0,226
2,note_on,54,0,0
2,note_on,47,38,0
2,note_on,47,0,71
2,note_on,54,28,0
2,note_on,54,0,480
2,note_on,54,26,0
2,note_on,54,0,480
2,note_on,54,25,0
2,note_on,54,0,240
2,note_on,47,23,0
2,note_on,54,23,240
2,note_on,54,0,480
2,note_on,54,20,0
2,note_on,54,0,480
2,note_on,54,19,0
2,note_on,54,0,184
2,note_on,47,0,0
2,note_on,47,38,0
2,note_on,62,47,0
2,note_on,62,0,438
2,note_on,64,41,0
2,note_on,64,0,240
2,note_on,62,39,0
2,note_on,62,0,240
2,note_on,61,39,0
2,note_on,61,0,240
2,note_on,62,38,0
2,note_on,62,0,240
2,note_on,64,42,0
2,note_on,64,0,367
2,note_on,61,41,0
2,note_on,61,0,480
2,note_on,64,40,0
2,note_on,64,0,198
2,note_on,47,0,0
2,note_on,47,38,0
2,note_on,62,47,0
2,note_on,62,0,438
2,note_on,64,41,0
2,note_on,64,0,240
2,note_on,62,39,0
2,note_on,62,0,240
2,note_on,61,39,0
2,note_on,61,0,240
2,note_on,62,38,0
2,note_on,62,0,240
2,note_on,47,0,0
2,note_on,52,38,0
2,note_on,64,42,0
2,note_on,64,0,367
2,note_on,61,41,0
2,note_on,61,0,480
2,note_on,52,0,0
2,note_on,54,40,0
2,note_on,58,40,0
2,note_on,58,0,480
2,note_on,54,0,0
2,note_on,47,31,0
2,note_on,59,38,0
2,note_on,59,0,113
2,note_on,47,0,0
2,note_on,54,38,0
2,note_on,54,0,480
2,note_on,54,33,0
2,note_on,54,0,480
2,note_on,54,33,0
2,note_on,54,0,240
2,note_on,45,38,0
2,note_on,52,38,0
2,note_on,52,0,402
2,note_on,52,39,0
2,note_on,52,0,480
2,note_on,52,41,0
2,note_on,52,0,480
2,note_on,45,0,0
2,note_on,54,42,0
2,note_on,50,42,0
2,note_on,50,0,339
2,note_on,54,0,0
2,note_on,54,38,0
2,note_on,54,0,480
2,note_on,54,31,0
2,note_on,58,31,0
2,note_on,58,0,226
2,note_on,54,0,0
2,note_on,47,38,0
2,note_on,55,38,0
2,note_on,59,38,0
2,note_on,59,0,194
2,note_on,55,0,0
2,note_on,47,0,0
2,note_on,47,49,0
2,note_on,47,0,240
2,note_on,46,40,0
2,note_on,46,0,240
2,note_on,47,38,0
2,note_on,47,0,480
2,note_on,45,38,0
2,note_on,52,38,0
2,note_on,52,0,162
2,note_on,52,46,0
2,note_on,52,0,480
2,note_on,52,38,0
2,note_on,52,0,480
2,note_on,52,38,0
2,note_on,52,0,240
2,note_on,45,0,0
2,note_on,54,42,0
2,note_on,50,42,0
2,note_on,50,0,339
2,note_on,54,0,0
2,note_on,54,38,0
2,note_on,54,0,480
2,note_on,54,31,0
2,note_on,58,31,0
2,note_on,58,0,226
2,note_on,54,0,0
2,note_on,47,38,0
2,note_on,47,0,71
2,note_on,54,28,0
2,note_on,54,0,480
2,note_on,54,26,0
2,note_on,54,0,480
2,note_on,54,25,0
2,note_on,54,0,240
2,note_on,47,23,0
2,note_on,54,23,240
2,note_on,54,0,480
2,note_on,54,20,0
2,note_on,54,0,480
2,note_on,54,19,0
2,note_on,54,0,184
2,note_on,47,0,0
2,note_on,38,46,0
2,note_on,50,64,0
2,note_on,50,0,480
2,note_on,38,0,0
2,note_on,40,44,0
2,note_on,52,61,0
2,note_on,52,0,71
2,note_on,40,0,0
2,note_on,38,41,120
2,note_on,50,59,0
2,note_on,50,0,120
2,note_on,38,0,0
2,note_on,37,45,120
2,note_on,49,62,0
2,note_on,49,0,120
2,note_on,37,0,0
2,note_on,38,40,120
2,note_on,50,58,0
2,note_on,50,0,120
2,note_on,38,0,0
2,note_on,40,45,120
2,note_on,52,63,0
2,note_on,52,0,64
2,note_on,40,0,0
2,note_on,43,37,360
2,note_on,55,52,0
2,note_on,55,0,120
2,note_on,43,0,0
2,note_on,42,40,360
2,note_on,54,58,0
2,note_on,54,0,120
2,note_on,42,0,0
2,note_on,38,46,360
2,note_on,50,64,0
2,note_on,50,0,420
2,note_on,38,0,0
2,note_on,42,39,0
2,note_on,54,56,0
2,note_on,54,0,56
2,note_on,42,0,0
2,note_on,40,42,0
2,note_on,52,59,0
2,note_on,52,0,120
2,note_on,40,0,0
2,note_on,38,40,120
2,note_on,50,57,0
2,note_on,50,0,120
2,note_on,38,0,0
2,note_on,37,44,120
2,note_on,49,60,0
2,note_on,49,0,120
2,note_on,37,0,0
2,note_on,38,39,120
2,note_on,50,56,0
2,note_on,50,0,120
2,note_on,38,0,0
2,note_on,40,45,0
2,note_on,52,63,0
2,note_on,52,0,120
2,note_on,40,0,0
2,note_on,43,37,360
2,note_on,55,52,0
2,note_on,55,0,120
2,note_on,43,0,0
2,note_on,42,40,360
2,note_on,54,58,0
2,note_on,54,0,120
2,note_on,42,0,0
2,note_on,38,59,360
2,note_on,50,63,0
2,note_on,50,0,480
2,note_on,38,0,0
2,note_on,52,58,0
2,note_on,52,0,137
2,note_on,54,59,0
2,note_on,54,0,240
2,note_on,57,60,0
2,note_on,57,0,240
2,note_on,60,61,0
2,note_on,60,0,240
2,note_on,64,62,0
2,note_on,64,0,373
2,note_on,67,61,0
2,note_on,67,0,480
2,note_on,66,60,0
2,note_on,66,0,347
2,note_on,59,57,0
2,note_on,55,55,0
2,note_on,55,0,748
2,note_on,59,0,0
2,note_on,55,58,0
2,note_on,57,58,0
2,note_on,61,60,0
2,note_on,61,0,287
2,note_on,57,0,0
2,note_on,55,0,0
2,note_on,61,58,60
2,note_on,61,0,161
2,note_on,57,53,0
2,note_on,57,0,240
2,note_on,59,57,0
2,note_on,59,0,240
2,note_on,61,55,0
2,note_on,61,0,240
2,note_on,54,59,0
2,note_on,57,59,0
2,note_on,62,59,0
2,note_on,62,0,21
2,note_on,57,0,0
2,note_on,54,0,0
2,note_on,52,61,0
2,note_on,40,44,0
2,note_on,40,0,71
2,note_on,52,0,0
2,note_on,38,41,120
2,note_on,50,59,0
2,note_on,50,0,120
2,note_on,38,0,0
2,note_on,37,45,120
2,note_on,49,62,0
2,note_on,49,0,120
2,note_on,37,0,0
2,note_on,38,40,120
2,note_on,50,58,0
2,note_on,50,0,120
2,note_on,38,0,0
2,note_on,40,45,120
2,note_on,52,63,0
2,note_on,52,0,71
2,note_on,40,0,0
2,note_on,43,37,360
2,note_on,55,52,0
2,note_on,55,0,120
2,note_on,43,0,0
2,note_on,42,40,360
2,note_on,54,58,0
2,note_on,54,0,120
2,note_on,42,0,0
2,note_on,38,46,360
2,note_on,50,64,0
2,note_on,50,0,420
2,note_on,38,0,0
2,note_on,42,39,0
2,note_on,54,56,0
2,note_on,54,0,56
2,note_on,42,0,0
2,note_on,40,42,0
2,note_on,52,59,0
2,note_on,52,0,120
2,note_on,40,0,0
2,note_on,38,40,120
2,note_on,50,57,0
2,note_on,50,0,120
2,note_on,38,0,0
2,note_on,37,44,120
2,note_on,49,60,0
2,note_on,49,0,120
2,note_on,37,0,0
2,note_on,38,39,120
2,note_on,50,56,0
2,note_on,50,0,120
2,note_on,38,0,0
2,note_on,40,45,120
2,note_on,52,63,0
2,note_on,52,0,42
2,note_on,40,0,0
2,note_on,43,37,360
2,note_on,55,52,0
2,note_on,55,0,120
2,note_on,43,0,0
2,note_on,42,40,360
2,note_on,54,58,0
2,note_on,54,0,120
2,note_on,42,0,0
2,note_on,38,59,360
2,note_on,50,63,0
2,note_on,50,0,480
2,note_on,38,0,0
2,note_on,52,58,0
2,note_on,52,0,137
2,note_on,54,59,0
2,note_on,54,0,240
2,note_on,57,60,0
2,note_on,57,0,240
2,note_on,60,61,0
2,note_on,60,0,240
2,note_on,64,62,0
2,note_on,64,0,373
2,note_on,67,61,0
2,note_on,67,0,480
2,note_on,66,60,0
2,note_on,66,0,347
2,note_on,59,57,0
2,note_on,55,55,0
2,note_on,55,0,748
2,note_on,59,0,0
2,note_on,55,58,0
2,note_on,57,58,0
2,note_on,61,60,0
2,note_on,61,0,287
2,note_on,57,0,0
2,note_on,55,0,0
2,note_on,61,58,60
2,note_on,61,0,161
2,note_on,57,53,0
2,note_on,57,0,240
2,note_on,59,57,0
2,note_on,59,0,240
2,note_on,61,55,0
2,note_on,61,0,240
2,note_on,54,59,0
2,note_on,57,59,0
2,note_on,62,59,0
2,note_on,62,0,85
2,note_on,57,0,0
2,note_on,54,0,0
2,note_on,50,61,0
2,note_on,38,44,0
2,note_on,38,0,71
2,note_on,50,0,0
2,note_on,37,41,120
2,note_on,49,59,0
2,note_on,49,0,120
2,note_on,37,0,0
2,note_on,38,45,120
2,note_on,50,62,0
2,note_on,50,0,120
2,note_on,38,0,0
2,note_on,38,52,261
2,note_on,50,59,0
2,note_on,50,0,120
2,note_on,38,0,0
2,note_on,57,61,60
2,note_on,45,44,0
2,note_on,45,0,71
2,note_on,57,0,0
2,note_on,42,41,120
2,note_on,54,59,0
2,note_on,54,0,120
2,note_on,42,0,0
2,note_on,38,45,120
2,note_on,50,62,0
2,note_on,50,0,120
2,note_on,38,0,0
2,note_on,60,46,120
2,note_on,62,46,0
2,note_on,66,46,0
2,note_on,69,46,0
2,note_on,69,0,120
2,note_on,60,0,0
2,note_on,62,0,0
2,note_on,66,0,0
2,note_on,60,42,120
2,note_on,62,42,0
2,note_on,66,42,0
2,note_on,69,42,0
2,note_on,69,0,120
2,note_on,60,0,0
2,note_on,62,0,0
2,note_on,66,0,0
2,note_on,60,45,120
2,note_on,62,45,0
2,note_on,66,45,0
2,note_on,69,45,0
2,note_on,69,0,120
2,note_on,60,0,0
2,note_on,62,0,0
2,note_on,66,0,0
2,note_on,60,44,360
2,note_on,62,44,0
2,note_on,66,44,0
2,note_on,69,44,0
2,note_on,69,0,120
2,note_on,60,0,0
2,note_on,62,0,0
2,note_on,66,0,0
2,note_on,60,41,120
2,note_on,62,41,0
2,note_on,66,41,0
2,note_on,69,41,0
2,note_on,69,0,120
2,note_on,60,0,0
2,note_on,62,0,0
2,note_on,66,0,0
2,note_on,59,44,120
2,note_on,62,44,0
2,note_on,67,44,0
2,note_on,71,44,0
2,note_on,71,0,120
2,note_on,59,0,0
2,note_on,62,0,0
2,note_on,67,0,0
2,note_on,59,41,360
2,note_on,62,41,0
2,note_on,67,49,0
2,note_on,71,49,0
2,note_on,71,0,219
2,note_on,59,0,0
2,note_on,62,0,0
2,note_on,67,0,0
2,note_on,59,39,0
2,note_on,62,39,0
2,note_on,67,47,0
2,note_on,71,47,0
2,note_on,71,0,240
2,note_on,59,0,0
2,note_on,62,0,0
2,note_on,67,0,0
2,note_on,59,41,0
2,note_on,62,41,0
2,note_on,67,49,0
2,note_on,71,49,0
2,note_on,71,0,106
2,note_on,59,0,0
2,note_on,62,0,0
2,note_on,67,0,0
2,note_on,58,53,120
2,note_on,67,53,0
2,note_on,62,53,367
2,note_on,64,48,67
2,note_on,64,0,187
2,note_on,65,49,0
2,note_on,65,0,60
2,note_on,62,0,0
2,note_on,67,0,0
2,note_on,58,0,0
2,note_on,57,56,0
2,note_on,62,56,0
2,note_on,66,56,0
2,note_on,66,0,120
2,note_on,62,0,0
2,note_on,57,0,0
2,note_on,50,59,360
2,note_on,50,0,34
2,note_on,57,52,360
2,note_on,62,52,0
2,note_on,66,52,0
2,note_on,66,0,11
2,note_on,62,0,0
2,note_on,57,0,0
2,note_on,58,55,360
2,note_on,62,55,0
2,note_on,67,55,0
2,note_on,67,0,120
2,note_on,62,0,0
2,note_on,58,0,0
2,note_on,50,59,360
2,note_on,50,0,74
2,note_on,58,51,360
2,note_on,62,51,0
2,note_on,67,51,0
2,note_on,67,0,17
2,note_on,62,0,0
2,note_on,58,0,0
2,note_on,62,55,360
2,note_on,66,55,0
2,note_on,66,0,64
2,note_on,62,0,0
2,note_on,42,61,184
2,note_on,54,61,0
2,note_on,54,0,56
2,note_on,42,0,0
2,note_on,40,57,120
2,note_on,52,57,0
2,note_on,52,0,120
2,note_on,40,0,0
2,note_on,38,62,120
2,note_on,50,62,0
2,note_on,50,0,120
2,note_on,38,0,0
2,note_on,54,59,254
2,note_on,57,59,0
2,note_on,62,59,0
2,note_on,62,0,85
2,note_on,57,0,0
2,note_on,54,0,0
2,note_on,50,61,0
2,note_on,38,44,0
2,note_on,38,0,71
2,note_on,50,0,0
2,note_on,37,41,120
2,note_on,49,59,0
2,note_on,49,0,120
2,note_on,37,0,0
2,note_on,38,45,120
2,note_on,50,62,0
2,note_on,50,0,120
2,note_on,38,0,0
2,note_on,38,52,261
2,note_on,50,59,0
2,note_on,50,0,120
2,note_on,38,0,0
2,note_on,57,61,60
2,note_on,45,44,0
2,note_on,45,0,71
2,note_on,57,0,0
2,note_on,42,41,120
2,note_on,54,59,0
2,note_on,54,0,120
2,note_on,42,0,0
2,note_on,38,45,120
2,note_on,50,62,0
2,note_on,50,0,120
2,note_on,38,0,0
2,note_on,60,46,148
2,note_on,62,46,0
2,note_on,66,46,0
2,note_on,69,46,0
2,note_on,69,0,120
2,note_on,60,0,0
2,note_on,62,0,0
2,note_on,66,0,0
2,note_on,60,42,120
2,note_on,62,42,0
2,note_on,66,42,0
2,note_on,69,42,0
2,note_on,69,0,120
2,note_on,60,0,0
2,note_on,62,0,0
2,note_on,66,0,0
2,note_on,60,45,120
2,note_on,62,45,0
2,note_on,66,45,0
2,note_on,69,45,0
2,note_on,69,0,120
2,note_on,60,0,0
2,note_on,62,0,0
2,note_on,66,0,0
2,note_on,60,44,360
2,note_on,62,44,0
2,note_on,66,44,0
2,note_on,69,44,0
2,note_on,69,0,120
2,note_on,60,0,0
2,note_on,62,0,0
2,note_on,66,0,0
2,note_on,60,41,120
2,note_on,62,41,0
2,note_on,66,41,0
2,note_on,69,41,0
2,note_on,69,0,120
2,note_on,60,0,0
2,note_on,62,0,0
2,note_on,66,0,0
2,note_on,59,44,120
2,note_on,62,44,0
2,note_on,67,44,0
2,note_on,71,44,0
2,note_on,71,0,120
2,note_on,59,0,0
2,note_on,62,0,0
2,note_on,67,0,0
2,note_on,59,41,360
2,note_on,62,41,0
2,note_on,67,49,0
2,note_on,71,49,0
2,note_on,71,0,219
2,note_on,59,0,0
2,note_on,62,0,0
2,note_on,67,0,0
2,note_on,59,39,0
2,note_on,62,39,0
2,note_on,67,47,0
2,note_on,71,47,0
2,note_on,71,0,240
2,note_on,59,0,0
2,note_on,62,0,0
2,note_on,67,0,0
2,note_on,59,41,0
2,note_on,62,41,0
2,note_on,67,49,0
2,note_on,71,49,0
2,note_on,71,0,134
2,note_on,59,0,0
2,note_on,62,0,0
2,note_on,67,0,0
2,note_on,58,53,120
2,note_on,67,53,0
2,note_on,62,53,367
2,note_on,64,48,67
2,note_on,64,0,187
2,note_on,65,49,0
2,note_on,65,0,60
2,note_on,62,0,0
2,note_on,67,0,0
2,note_on,58,0,0
2,note_on,57,56,0
2,note_on,62,56,0
2,note_on,66,56,0
2,note_on,66,0,120
2,note_on,62,0,0
2,note_on,57,0,0
2,note_on,50,59,360
2,note_on,50,0,34
2,note_on,57,52,360
2,note_on,62,52,0
2,note_on,66,52,0
2,note_on,66,0,11
2,note_on,62,0,0
2,note_on,57,0,0
2,note_on,58,55,360
2,note_on,62,55,0
2,note_on,67,55,0
2,note_on,67,0,120
2,note_on,62,0,0
2,note_on,58,0,0
2,note_on,50,59,360
2,note_on,50,0,74
2,note_on,58,51,360
2,note_on,62,51,0
2,note_on,67,51,0
2,note_on,67,0,17
2,note_on,62,0,0
2,note_on,58,0,0
2,note_on,62,55,360
2,note_on,66,55,0
2,note_on,66,0,64
2,note_on,62,0,0
2,note_on,42,59,184
2,note_on,54,59,0
2,note_on,54,0,56
2,note_on,42,0,0
2,note_on,40,55,120
2,note_on,52,55,0
2,note_on,52,0,120
2,note_on,40,0,0
2,note_on,38,60,120
2,note_on,50,60,0
2,note_on,50,0,120
2,note_on,38,0,0
2,note_on,54,52,254
2,note_on,57,52,0
2,note_on,42,52,184
2,note_on,42,0,120
2,note_on,40,49,120
2,note_on,40,0,120
2,note_on,38,53,120
2,note_on,38,0,120
2,note_on,57,0,360
2,note_on,54,0,0
2,note_on,57,49,0
2,note_on,54,49,0
2,note_on,42,49,184
2,note_on,42,0,120
2,note_on,40,46,120
2,note_on,40,0,120
2,note_on,38,50,120
2,note_on,38,0,120
2,note_on,54,0,360
2,note_on,57,0,0
2,note_on,42,49,0
2,note_on,54,49,0
2,note_on,54,0,120
2,note_on,42,0,0
2,note_on,40,45,120
2,note_on,52,45,0
2,note_on,52,0,120
2,note_on,40,0,0
2,note_on,38,48,120
2,note_on,50,48,0
2,note_on,50,0,120
2,note_on,38,0,0
2,note_on,42,45,360
2,note_on,54,45,0
2,note_on,54,0,120
2,note_on,42,0,0
2,note_on,52,41,120
2,note_on,40,41,0
2,note_on,40,0,120
2,note_on,52,0,0
2,note_on,38,44,120
2,note_on,50,44,0
2,note_on,50,0,120
2,note_on,38,0,0
2,note_on,45,41,360
2,note_on,45,0,120
2,note_on,38,40,360
2,note_on,38,0,120
2,note_on,38,55,360
2,note_on,54,46,215
2,note_on,54,0,911
2,note_on,38,0,0
2,note_on,37,55,0
2,note_on,37,0,76
2,note_on,49,55,120
2,note_on,49,0,120
2,note_on,46,55,600
2,note_on,34,46,0
2,note_on,34,0,480
2,note_on,46,0,0
2,note_on,35,55,0
2,note_on,35,0,120
2,note_on,47,55,120
2,note_on,47,0,120
2,note_on,32,46,600
2,note_on,44,55,0
2,note_on,52,42,0
2,note_on,52,0,120
2,note_on,44,0,360
2,note_on,32,0,0
2,note_on,33,55,0
2,note_on,45,55,0
2,note_on,52,55,212
2,note_on,45,0,240
2,note_on,33,0,0
2,note_on,57,56,431
2,note_on,45,55,0
2,note_on,57,0,240
2,note_on,55,51,0
2,note_on,38,55,224
2,note_on,55,0,16
2,note_on,52,0,0
2,note_on,45,0,0
2,note_on,54,46,153
2,note_on,54,0,911
2,note_on,38,0,0
2,note_on,37,55,0
2,note_on,37,0,60
2,note_on,49,48,120
2,note_on,49,0,120
2,note_on,46,55,600
2,note_on,34,46,0
2,note_on,34,0,480
2,note_on,46,0,0
2,note_on,47,55,16
2,note_on,35,46,0
2,note_on,54,47,191
2,note_on,54,0,120
2,note_on,35,0,120
2,note_on,47,0,0
2,note_on,43,55,0
2,note_on,31,46,0
2,note_on,31,0,134
2,note_on,43,0,0
2,note_on,52,51,240
2,note_on,45,51,0
2,note_on,33,42,0
2,note_on,52,0,14
2,note_on,33,0,120
2,note_on,38,49,240
2,note_on,54,58,0
2,note_on,54,0,71
2,note_on,38,0,0
2,note_on,45,0,240
2,note_on,57,70,0
2,note_on,50,60,0
2,note_on,50,0,240
2,note_on,57,0,0
2,note_on,38,55,720
2,note_on,54,46,215
2,note_on,54,0,911
2,note_on,38,0,0
2,note_on,37,55,0
2,note_on,37,0,76
2,note_on,49,55,120
2,note_on,49,0,120
2,note_on,46,55,600
2,note_on,34,46,0
2,note_on,34,0,480
2,note_on,46,0,0
2,note_on,35,55,0
2,note_on,35,0,120
2,note_on,47,55,120
2,note_on,47,0,120
2,note_on,32,46,600
2,note_on,44,55,0
2,note_on,52,42,0
2,note_on,52,0,120
2,note_on,44,0,360
2,note_on,32,0,0
2,note_on,33,55,0
2,note_on,45,55,0
2,note_on,52,55,212
2,note_on,45,0,240
2,note_on,33,0,0
2,note_on,57,56,431
2,note_on,45,55,0
2,note_on,57,0,240
2,note_on,55,51,0
2,note_on,38,55,224
2,note_on,55,0,16
2,note_on,52,0,0
2,note_on,45,0,0
2,note_on,54,46,182
2,note_on,54,0,911
2,note_on,38,0,0
2,note_on,37,55,0
2,note_on,37,0,98
2,note_on,49,48,120
2,note_on,49,0,120
2,note_on,46,55,600
2,note_on,34,46,0
2,note_on,34,0,480
2,note_on,46,0,0
2,note_on,47,55,16
2,note_on,35,46,0
2,note_on,54,47,191
2,note_on,54,0,120
2,note_on,35,0,120
2,note_on,47,0,0
2,note_on,43,55,0
2,note_on,31,46,0
2,note_on,31,0,134
2,note_on,43,0,0
2,note_on,52,51,56
2,note_on,45,51,0
2,note_on,33,42,0
2,note_on,52,0,64
2,note_on,33,0,120
2,note_on,38,49,240
2,note_on,54,58,0
2,note_on,54,0,71
2,note_on,38,0,0
2,note_on,45,0,240
2,note_on,57,70,0
2,note_on,50,60,0
2,note_on,50,0,240
2,note_on,57,0,0
2,note_on,62,42,720
2,note_on,66,52,0
2,note_on,66,0,438
2,note_on,67,47,0
2,note_on,67,0,240
2,note_on,66,44,0
2,note_on,66,0,240
2,note_on,64,45,0
2,note_on,64,0,240
2,note_on,66,42,0
2,note_on,66,0,240
2,note_on,67,48,0
2,note_on,67,0,367
2,note_on,67,47,0
2,note_on,67,0,240
2,note_on,71,44,0
2,note_on,71,0,240
2,note_on,67,46,0
2,note_on,67,0,480
2,note_on,62,0,0
2,note_on,62,42,0
2,note_on,66,52,0
2,note_on,66,0,296
2,note_on,67,47,0
2,note_on,67,0,240
2,note_on,66,44,0
2,note_on,66,0,240
2,note_on,64,45,0
2,note_on,64,0,240
2,note_on,62,0,0
2,note_on,62,42,0
2,note_on,62,0,240
2,note_on,57,38,0
2,note_on,64,48,0
2,note_on,64,0,367
2,note_on,57,0,0
2,note_on,67,47,0
2,note_on,67,0,240
2,note_on,66,41,0
2,note_on,66,0,240
2,note_on,57,36,0
2,note_on,67,46,0
2,note_on,67,0,198
2,note_on,57,0,0
2,note_on,62,42,0
2,note_on,66,52,0
2,note_on,66,0,282
2,note_on,67,47,0
2,note_on,67,0,240
2,note_on,66,44,0
2,note_on,66,0,240
2,note_on,64,45,0
2,note_on,64,0,240
2,note_on,66,42,0
2,note_on,66,0,240
2,note_on,67,48,0
2,note_on,67,0,367
2,note_on,67,47,0
2,note_on,67,0,240
2,note_on,71,44,0
2,note_on,71,0,240
2,note_on,67,46,0
2,note_on,67,0,480
2,note_on,62,0,0
2,note_on,62,42,0
2,note_on,66,52,0
2,note_on,66,0,226
2,note_on,67,47,0
2,note_on,67,0,240
2,note_on,66,44,0
2,note_on,66,0,240
2,note_on,64,45,0
2,note_on,64,0,240
2,note_on,62,0,0
2,note_on,62,42,0
2,note_on,62,0,240
2,note_on,57,38,0
2,note_on,64,48,0
2,note_on,64,0,198
2,note_on,57,0,0
2,note_on,38,55,0
2,note_on,54,46,215
2,note_on,45,55,240
2,note_on,45,0,911
2,note_on,54,0,0
2,note_on,38,0,0
2,note_on,37,55,0
2,note_on,37,0,82
2,note_on,49,55,120
2,note_on,49,0,120
2,note_on,46,55,600
2,note_on,34,46,0
2,note_on,34,0,480
2,note_on,46,0,0
2,note_on,35,55,0
2,note_on,35,0,120
2,note_on,47,55,120
2,note_on,47,0,120
2,note_on,32,46,600
2,note_on,44,55,0
2,note_on,52,42,0
2,note_on,52,0,120
2,note_on,44,0,360
2,note_on,32,0,0
2,note_on,33,55,0
2,note_on,45,55,0
2,note_on,52,55,212
2,note_on,45,0,240
2,note_on,33,0,0
2,note_on,57,56,431
2,note_on,45,55,0
2,note_on,57,0,240
2,note_on,55,51,0
2,note_on,55,0,240
2,note_on,45,0,0
2,note_on,52,0,0
2,note_on,38,55,0
2,note_on,54,46,171
2,note_on,45,55,12
2,note_on,54,0,911
2,note_on,45,0,16
2,note_on,38,0,0
2,note_on,37,55,0
2,note_on,37,0,109
2,note_on,49,48,120
2,note_on,49,0,120
2,note_on,34,46,600
2,note_on,46,55,0
2,note_on,46,0,480
2,note_on,34,0,0
2,note_on,47,55,0
2,note_on,35,46,0
2,note_on,54,47,191
2,note_on,54,0,120
2,note_on,35,0,120
2,note_on,47,0,0
2,note_on,43,55,0
2,note_on,31,46,0
2,note_on,31,0,134
2,note_on,43,0,0
2,note_on,52,51,240
2,note_on,45,51,0
2,note_on,33,42,0
2,note_on,52,0,28
2,note_on,33,0,120
2,note_on,38,49,240
2,note_on,54,58,0
2,note_on,54,0,71
2,note_on,38,0,0
2,note_on,45,0,240
2,note_on,57,70,0
2,note_on,50,60,0
2,note_on,50,0,240
2,note_on,57,0,0
2,note_on,47,38,720
2,note_on,62,47,0
2,note_on,62,0,438
2,note_on,64,41,0
2,note_on,64,0,240
2,note_on,62,39,0
2,note_on,62,0,240
2,note_on,61,39,0
2,note_on,61,0,240
2,note_on,62,38,0
2,note_on,62,0,240
2,note_on,64,42,0
2,note_on,64,0,367
2,note_on,61,41,0
2,note_on,61,0,480
2,note_on,64,40,0
2,note_on,64,0,198
2,note_on,47,0,0
2,note_on,47,38,0
2,note_on,62,47,0
2,note_on,62,0,438
2,note_on,64,41,0
2,note_on,64,0,240
2,note_on,62,39,0
2,note_on,62,0,240
2,note_on,61,39,0
2,note_on,61,0,240
2,note_on,62,38,0
2,note_on,62,0,240
2,note_on,47,0,0
2,note_on,52,38,0
2,note_on,64,42,0
2,note_on,64,0,367
2,note_on,61,41,0
2,note_on,61,0,480
2,note_on,52,0,0
2,note_on,54,40,0
2,note_on,58,40,0
2,note_on,58,0,480
2,note_on,54,0,0
2,note_on,47,31,0
2,note_on,59,38,0
2,note_on,59,0,113
2,note_on,47,0,0
2,note_on,54,38,0
2,note_on,54,0,480
2,note_on,54,33,0
2,note_on,54,0,480
2,note_on,54,33,0
2,note_on,54,0,240
2,note_on,45,38,0
2,note_on,52,38,0
2,note_on,52,0,402
2,note_on,52,39,0
2,note_on,52,0,480
2,note_on,52,41,0
2,note_on,52,0,480
2,note_on,45,0,0
2,note_on,54,42,0
2,note_on,50,42,0
2,note_on,50,0,339
2,note_on,54,0,0
2,note_on,54,38,0
2,note_on,54,0,480
2,note_on,54,31,0
2,note_on,58,31,0
2,note_on,58,0,226
2,note_on,54,0,0
2,note_on,47,38,0
2,note_on,55,38,0
2,note_on,59,38,0
2,note_on,59,0,194
2,note_on,55,0,0
2,note_on,47,0,0
2,note_on,47,48,0
2,note_on,47,0,240
2,note_on,46,41,0
2,note_on,46,0,240
2,note_on,47,38,0
2,note_on,47,0,480
2,note_on,45,38,0
2,note_on,52,38,0
2,note_on,52,0,162
2,note_on,52,45,0
2,note_on,52,0,480
2,note_on,52,38,0
2,note_on,52,0,480
2,note_on,52,38,0
2,note_on,52,0,240
2,note_on,45,0,0
2,note_on,54,42,0
2,note_on,50,42,0
2,note_on,50,0,339
2,note_on,54,0,0
2,note_on,54,38,0
2,note_on,54,0,480
2,note_on,54,31,0
2,note_on,58,31,0
2,note_on,58,0,226
2,note_on,54,0,0
2,note_on,47,38,0
2,note_on,47,0,71
2,note_on,54,28,0
2,note_on,54,0,480
2,note_on,54,26,0
2,note_on,54,0,480
2,note_on,54,25,0
2,note_on,54,0,240
2,note_on,47,23,0
2,note_on,54,23,240
2,note_on,54,0,480
2,note_on,54,20,0
2,note_on,54,0,480
2,note_on,54,19,0
2,note_on,54,0,240
2,note_on,47,0,0
2,note_on,47,38,0
2,note_on,62,47,0
2,note_on,62,0,339
2,note_on,64,41,0
2,note_on,64,0,240
2,note_on,62,39,0
2,note_on,62,0,240
2,note_on,61,39,0
2,note_on,61,0,240
2,note_on,62,38,0
2,note_on,62,0,240
2,note_on,64,42,0
2,note_on,64,0,367
2,note_on,61,41,0
2,note_on,61,0,480
2,note_on,64,40,0
2,note_on,64,0,198
2,note_on,47,0,0
2,note_on,47,38,0
2,note_on,62,47,0
2,note_on,62,0,438
2,note_on,64,41,0
2,note_on,64,0,240
2,note_on,62,39,0
2,note_on,62,0,240
2,note_on,61,39,0
2,note_on,61,0,240
2,note_on,62,38,0
2,note_on,62,0,240
2,note_on,47,0,0
2,note_on,52,38,0
2,note_on,64,42,0
2,note_on,64,0,367
2,note_on,61,41,0
2,note_on,61,0,480
2,note_on,52,0,0
2,note_on,54,40,0
2,note_on,58,40,0
2,note_on,58,0,480
2,note_on,54,0,0
2,note_on,47,31,0
2,note_on,59,38,0
2,note_on,59,0,113
2,note_on,47,0,0
2,note_on,54,38,0
2,note_on,54,0,480
2,note_on,54,33,0
2,note_on,54,0,480
2,note_on,54,33,0
2,note_on,54,0,240
2,note_on,45,38,0
2,note_on,52,38,0
2,note_on,52,0,402
2,note_on,52,39,0
2,note_on,52,0,480
2,note_on,52,41,0
2,note_on,52,0,480
2,note_on,45,0,0
2,note_on,54,42,0
2,note_on,50,42,0
2,note_on,50,0,339
2,note_on,54,0,0
2,note_on,54,38,0
2,note_on,54,0,480
2,note_on,54,31,0
2,note_on,58,31,0
2,note_on,58,0,226
2,note_on,54,0,0
2,note_on,47,38,0
2,note_on,55,38,0
2,note_on,59,38,0
2,note_on,59,0,194
2,note_on,55,0,0
2,note_on,47,0,0
2,note_on,47,47,0
2,note_on,47,0,240
2,note_on,46,41,0
2,note_on,46,0,240
2,note_on,47,38,0
2,note_on,47,0,480
2,note_on,45,38,0
2,note_on,52,38,0
2,note_on,52,0,162
2,note_on,52,47,0
2,note_on,52,0,480
2,note_on,52,38,0
2,note_on,52,0,480
2,note_on,52,38,0
2,note_on,52,0,240
2,note_on,45,0,0
2,note_on,54,42,0
2,note_on,50,42,0
2,note_on,50,0,339
2,note_on,54,0,0
2,note_on,54,38,0
2,note_on,54,0,480
2,note_on,54,31,0
2,note_on,58,31,0
2,note_on,58,0,226
2,note_on,54,0,0
2,note_on,47,38,0
2,note_on,47,0,71
2,note_on,54,28,0
2,note_on,54,0,480
2,note_on,54,26,0
2,note_on,54,0,480
2,note_on,54,25,0
2,note_on,54,0,240
2,note_on,47,23,0
2,note_on,54,23,240
2,note_on,54,0,480
2,note_on,54,20,0
2,note_on,54,0,480
2,note_on,54,19,0
2,note_on,54,0,184
2,note_on,47,0,0
2,note_on,38,61,0
2,note_on,45,73,0
2,note_on,50,69,339
2,note_on,54,69,0
2,note_on,57,81,0
2,note_on,57,0,692
2,note_on,50,0,0
2,note_on,38,0,0
2,note_on,45,0,0
2,note_on,54,0,0
2,note_on,38,61,0
2,note_on,45,73,0
2,note_on,49,67,240
2,note_on,57,80,0
2,note_on,55,67,0
2,note_on,55,0,533
2,note_on,49,0,0
2,note_on,38,0,0
2,note_on,45,0,0
2,note_on,57,0,0
2,note_on,38,61,0
2,note_on,45,73,0
2,note_on,50,66,325
2,note_on,54,66,0
2,note_on,57,78,0
2,note_on,57,0,720
2,note_on,50,0,0
2,note_on,38,0,0
2,note_on,45,0,0
2,note_on,54,0,0
2,note_on,38,61,0
2,note_on,45,73,0
2,note_on,49,65,240
2,note_on,55,65,0
2,note_on,57,77,0
2,note_on,57,0,507
2,note_on,49,0,0
2,note_on,38,0,0
2,note_on,45,0,0
2,note_on,55,0,0
2,note_on,38,61,0
2,note_on,45,73,0
2,note_on,50,77,320
2,note_on,54,77,0
2,note_on,57,77,0
2,note_on,57,0,686
2,note_on,50,0,0
2,note_on,38,0,0
2,note_on,45,0,0
2,note_on,54,0,0
2,note_on,38,61,0
2,note_on,45,73,0
2,note_on,64,81,91
2,note_on,60,69,0
2,note_on,55,69,0
2,note_on,55,0,480
2,note_on,64,0,0
2,note_on,60,0,0
2,note_on,62,73,0
2,note_on,60,61,0
2,note_on,54,61,0
2,note_on,54,0,480
2,note_on,62,0,0
2,note_on,38,0,0
2,note_on,45,0,0
2,note_on,60,0,0
2,note_on,38,61,0
2,note_on,45,73,0
2,note_on,62,80,367
2,note_on,59,67,0
2,note_on,55,67,0
2,note_on,55,0,734
2,note_on,62,0,0
2,note_on,38,0,0
2,note_on,45,0,0
2,note_on,59,0,0
2,note_on,38,61,0
2,note_on,45,73,0
2,note_on,64,82,448
2,note_on,57,70,0
2,note_on,55,70,0
2,note_on,55,0,861
2,note_on,64,0,0
2,note_on,38,0,0
2,note_on,45,0,0
2,note_on,57,0,0
2,note_on,38,61,0
2,note_on,45,61,0
2,note_on,54,73,0
2,note_on,54,0,18
2,note_on,45,0,0
2,note_on,38,0,0
2,note_on,38,38,60
2,note_on,50,53,0
2,note_on,50,0,71
2,note_on,38,0,0
2,note_on,37,36,120
2,note_on,49,51,0
2,note_on,49,0,120
2,note_on,37,0,0
2,note_on,38,38,120
2,note_on,50,54,0
2,note_on,50,0,120
2,note_on,38,0,0
2,note_on,38,46,307
2,note_on,50,51,0
2,note_on,50,0,120
2,note_on,38,0,0
2,note_on,57,53,360
2,note_on,45,38,0
2,note_on,45,0,120
2,note_on,57,0,0
2,note_on,42,36,120
2,note_on,54,51,0
2,note_on,54,0,120
2,note_on,42,0,0
2,note_on,38,38,120
2,note_on,50,54,0
2,note_on,50,0,120
2,note_on,38,0,0
2,note_on,38,38,289
2,note_on,50,53,0
2,note_on,50,0,71
2,note_on,38,0,0
2,note_on,37,36,120
2,note_on,49,51,0
2,note_on,49,0,120
2,note_on,37,0,0
2,note_on,38,38,120
2,note_on,50,54,0
2,note_on,50,0,120
2,note_on,38,0,0
2,note_on,38,38,346
2,note_on,50,53,0
2,note_on,50,0,71
2,note_on,38,0,0
2,note_on,37,36,120
2,note_on,49,51,0
2,note_on,49,0,120
2,note_on,37,0,0
2,note_on,38,38,120
2,note_on,50,54,0
2,note_on,50,0,21
2,note_on,38,0,0
2,note_on,57,55,360
2,note_on,45,39,0
2,note_on,45,0,71
2,note_on,57,0,0
2,note_on,42,37,120
2,note_on,54,53,0
2,note_on,54,0,120
2,note_on,42,0,0
2,note_on,38,39,120
2,note_on,50,57,0
2,note_on,50,0,120
2,note_on,38,0,0
2,note_on,57,58,226
2,note_on,45,42,0
2,note_on,45,0,71
2,note_on,57,0,0
2,note_on,42,39,120
2,note_on,54,55,0
2,note_on,54,0,120
2,note_on,42,0,0
2,note_on,38,42,120
2,note_on,50,59,0
2,note_on,50,0,120
2,note_on,38,0,0
2,note_on,57,61,261
2,note_on,45,44,0
2,note_on,45,0,71
2,note_on,57,0,0
2,note_on,42,40,120
2,note_on,54,58,0
2,note_on,54,0,120
2,note_on,42,0,0
2,note_on,50,65,120
2,note_on,50,0,120
2,note_on,57,63,120
2,note_on,57,0,120
2,note_on,54,67,120
2,note_on,54,0,120
2,note_on,50,61,120
2,note_on,50,0,120
2,note_on,57,65,120
2,note_on,57,0,120
2,note_on,54,61,120
2,note_on,54,0,120
2,note_on,50,65,120
2,note_on,38,54,0
2,note_on,38,0,78
2,note_on,50,0,0
2,note_on,57,60,113
2,note_on,45,50,0
2,note_on,45,0,120
2,note_on,57,0,0
2,note_on,42,58,120
2,note_on,54,69,0
2,note_on,54,0,120
2,note_on,42,0,0
2,note_on,38,53,120
2,note_on,50,64,0
2,note_on,50,0,120
2,note_on,38,0,0
2,note_on,45,54,120
2,note_on,57,66,0
2,note_on,57,0,120
2,note_on,45,0,0
2,note_on,54,66,120
2,note_on,42,54,0
2,note_on,42,0,120
2,note_on,54,0,0
2,note_on,50,72,0
2,note_on,38,60,0
2,note_on,38,0,107
2,note_on,50,0,0
2,note_on,50,72,0
2,note_on,38,60,0
2,note_on,38,0,160
2,note_on,50,0,0
2,note_on,57,70,480
2,note_on,62,82,0
2,note_on,50,70,0
2,note_on,50,0,107
2,note_on,62,0,0
2,note_on,57,0,0
2,note_on,57,70,0
2,note_on,62,82,0
2,note_on,50,70,0
2,note_on,50,0,160
2,note_on,62,0,0
2,note_on,57,0,0
2,note_on,57,70,480
2,note_on,62,82,0
2,note_on,50,70,0
2,note_on,50,0,267
2,note_on,62,0,0
2,note_on,57,0,0
