Track,Message Type,Note,Velocity,Time
1,note_on,78,54,0
1,note_on,78,0,360
1,note_on,68,48,0
1,note_on,68,0,120
1,note_on,69,51,0
1,note_on,69,0,120
1,note_on,70,52,0
1,note_on,70,0,120
1,note_on,71,53,0
1,note_on,71,0,120
1,note_on,72,55,0
1,note_on,72,0,120
1,note_on,73,56,0
1,note_on,73,0,120
1,note_on,74,57,0
1,note_on,74,0,120
1,note_on,75,58,0
1,note_on,75,0,120
1,note_on,76,59,0
1,note_on,76,0,120
1,note_on,81,69,0
1,note_on,81,0,120
1,note_on,76,60,0
1,note_on,76,0,120
1,note_on,73,62,0
1,note_on,73,0,120
1,note_on,69,60,0
1,note_on,69,0,120
1,note_on,67,68,0
1,note_on,67,0,360
1,note_on,76,49,0
1,note_on,76,0,120
1,note_on,68,69,0
1,note_on,68,0,360
1,note_on,76,49,0
1,note_on,76,0,120
1,note_on,67,70,0
1,note_on,67,0,360
1,note_on,76,47,0
1,note_on,76,0,120
1,note_on,68,69,0
1,note_on,68,0,360
1,note_on,77,49,0
1,note_on,77,0,120
1,note_on,78,67,0
1,note_on,78,0,360
1,note_on,68,54,0
1,note_on,68,0,120
1,note_on,69,53,0
1,note_on,69,0,120
1,note_on,70,54,0
1,note_on,70,0,120
1,note_on,71,55,0
1,note_on,71,0,120
1,note_on,72,57,0
1,note_on,72,0,120
1,note_on,73,58,0
1,note_on,73,0,120
1,note_on,74,60,0
1,note_on,74,0,120
1,note_on,75,61,0
1,note_on,75,0,120
1,note_on,76,63,0
1,note_on,76,0,120
1,note_on,81,69,0
1,note_on,81,0,120
1,note_on,76,60,0
1,note_on,76,0,120
1,note_on,73,62,0
1,note_on,73,0,120
1,note_on,69,60,0
1,note_on,69,0,120
1,note_on,85,76,0
1,note_on,85,0,360
1,note_on,75,60,0
1,note_on,75,0,120
1,note_on,76,59,0
1,note_on,76,0,120
1,note_on,77,61,0
1,note_on,77,0,120
1,note_on,78,63,0
1,note_on,78,0,120
1,note_on,79,66,0
1,note_on,79,0,120
1,note_on,80,67,0
1,note_on,80,0,120
1,note_on,81,70,0
1,note_on,81,0,120
1,note_on,82,72,0
1,note_on,82,0,120
1,note_on,83,75,0
1,note_on,83,0,120
1,note_on,88,83,0
1,note_on,88,0,120
1,note_on,83,73,0
1,note_on,83,0,120
1,note_on,80,76,0
1,note_on,80,0,120
1,note_on,76,74,0
1,note_on,76,0,120
1,note_on,71,78,0
1,note_on,71,0,360
1,note_on,80,55,0
1,note_on,80,0,120
1,note_on,68,77,0
1,note_on,68,0,360
1,note_on,76,50,0
1,note_on,76,0,120
1,note_on,64,68,0
1,note_on,64,0,360
1,note_on,73,43,0
1,note_on,73,0,120
1,note_on,61,61,0
1,note_on,61,0,360
1,note_on,70,39,0
1,note_on,70,0,120
1,note_on,60,53,0
1,note_on,60,0,360
1,note_on,69,36,0
1,note_on,69,0,120
1,note_on,57,50,0
1,note_on,57,0,360
1,note_on,66,32,0
1,note_on,66,0,120
1,note_on,56,47,0
1,note_on,56,0,360
1,note_on,64,37,0
1,note_on,64,0,120
1,note_on,78,53,480
1,note_on,78,0,360
1,note_on,68,48,0
1,note_on,68,0,120
1,note_on,69,52,0
1,note_on,69,0,120
1,note_on,70,53,0
1,note_on,70,0,120
1,note_on,71,54,0
1,note_on,71,0,120
1,note_on,72,55,0
1,note_on,72,0,120
1,note_on,73,56,0
1,note_on,73,0,120
1,note_on,74,58,0
1,note_on,74,0,120
1,note_on,75,59,0
1,note_on,75,0,120
1,note_on,76,60,0
1,note_on,76,0,120
1,note_on,81,69,0
1,note_on,81,0,120
1,note_on,76,60,0
1,note_on,76,0,120
1,note_on,73,62,0
1,note_on,73,0,120
1,note_on,69,60,0
1,note_on,69,0,120
1,note_on,67,68,0
1,note_on,67,0,360
1,note_on,76,49,0
1,note_on,76,0,120
1,note_on,68,69,0
1,note_on,68,0,360
1,note_on,76,50,0
1,note_on,76,0,120
1,note_on,67,70,0
1,note_on,67,0,360
1,note_on,76,49,0
1,note_on,76,0,120
1,note_on,68,69,0
1,note_on,68,0,360
1,note_on,77,45,0
1,note_on,77,0,120
1,note_on,78,67,0
1,note_on,78,0,360
1,note_on,68,54,0
1,note_on,68,0,120
1,note_on,69,53,0
1,note_on,69,0,120
1,note_on,70,54,0
1,note_on,70,0,120
1,note_on,71,55,0
1,note_on,71,0,120
1,note_on,72,57,0
1,note_on,72,0,120
1,note_on,73,58,0
1,note_on,73,0,120
1,note_on,74,60,0
1,note_on,74,0,120
1,note_on,75,61,0
1,note_on,75,0,120
1,note_on,76,63,0
1,note_on,76,0,120
1,note_on,81,69,0
1,note_on,81,0,120
1,note_on,76,60,0
1,note_on,76,0,120
1,note_on,73,62,0
1,note_on,73,0,120
1,note_on,69,60,0
1,note_on,69,0,120
1,note_on,85,76,0
1,note_on,85,0,360
1,note_on,75,60,0
1,note_on,75,0,120
1,note_on,76,59,0
1,note_on,76,0,120
1,note_on,77,61,0
1,note_on,77,0,120
1,note_on,78,63,0
1,note_on,78,0,120
1,note_on,79,66,0
1,note_on,79,0,120
1,note_on,80,67,0
1,note_on,80,0,120
1,note_on,81,70,0
1,note_on,81,0,120
1,note_on,82,72,0
1,note_on,82,0,120
1,note_on,83,75,0
1,note_on,83,0,120
1,note_on,88,83,0
1,note_on,88,0,120
1,note_on,83,73,0
1,note_on,83,0,120
1,note_on,80,76,0
1,note_on,80,0,120
1,note_on,76,74,0
1,note_on,76,0,120
1,note_on,71,78,0
1,note_on,71,0,360
1,note_on,80,55,0
1,note_on,80,0,120
1,note_on,68,77,0
1,note_on,68,0,360
1,note_on,76,49,0
1,note_on,76,0,120
1,note_on,64,68,0
1,note_on,64,0,360
1,note_on,73,42,0
1,note_on,73,0,120
1,note_on,61,60,0
1,note_on,61,0,360
1,note_on,70,37,0
1,note_on,70,0,120
1,note_on,60,53,0
1,note_on,60,0,360
1,note_on,69,34,0
1,note_on,69,0,120
1,note_on,57,49,0
1,note_on,57,0,360
1,note_on,66,30,0
1,note_on,66,0,120
1,note_on,56,46,0
1,note_on,56,0,360
1,note_on,64,36,0
1,note_on,64,0,120
1,note_on,67,60,480
1,note_on,67,0,360
1,note_on,71,54,0
1,note_on,71,0,120
1,note_on,74,58,0
1,note_on,74,0,120
1,note_on,79,54,0
1,note_on,79,0,120
1,note_on,73,60,0
1,note_on,73,0,120
1,note_on,74,57,0
1,note_on,79,57,0
1,note_on,79,0,120
1,note_on,74,0,0
1,note_on,71,63,0
1,note_on,71,0,120
1,note_on,74,60,0
1,note_on,79,60,0
1,note_on,79,0,120
1,note_on,74,0,0
1,note_on,69,65,0
1,note_on,69,0,120
1,note_on,71,63,0
1,note_on,74,63,0
1,note_on,74,0,120
1,note_on,71,0,0
1,note_on,67,69,0
1,note_on,67,0,120
1,note_on,71,60,0
1,note_on,74,60,0
1,note_on,74,0,120
1,note_on,71,0,0
1,note_on,66,69,0
1,note_on,66,0,120
1,note_on,71,60,0
1,note_on,74,60,0
1,note_on,74,0,120
1,note_on,71,0,0
1,note_on,65,73,0
1,note_on,65,0,360
1,note_on,68,45,0
1,note_on,73,54,0
1,note_on,73,0,120
1,note_on,68,0,0
1,note_on,66,69,0
1,note_on,66,0,360
1,note_on,69,45,0
1,note_on,73,53,0
1,note_on,73,0,120
1,note_on,69,0,0
1,note_on,63,70,0
1,note_on,63,0,360
1,note_on,66,42,0
1,note_on,73,50,0
1,note_on,73,0,120
1,note_on,66,0,0
1,note_on,65,69,0
1,note_on,65,0,360
1,note_on,68,41,0
1,note_on,73,49,0
1,note_on,73,0,120
1,note_on,68,0,0
1,note_on,61,66,0
1,note_on,61,0,360
1,note_on,66,26,0
1,note_on,69,26,0
1,note_on,73,42,0
1,note_on,73,0,120
1,note_on,69,0,0
1,note_on,66,0,0
1,note_on,62,61,0
1,note_on,62,0,120
1,note_on,66,26,0
1,note_on,69,26,0
1,note_on,73,42,0
1,note_on,73,0,120
1,note_on,69,0,0
1,note_on,66,0,0
1,note_on,64,62,0
1,note_on,64,0,120
1,note_on,66,27,0
1,note_on,69,27,0
1,note_on,73,43,0
1,note_on,73,0,120
1,note_on,69,0,0
1,note_on,66,0,0
1,note_on,61,63,0
1,note_on,61,0,360
1,note_on,69,23,0
1,note_on,65,23,0
1,note_on,73,38,0
1,note_on,73,0,120
1,note_on,65,0,0
1,note_on,69,0,0
1,note_on,61,62,0
1,note_on,61,0,360
1,note_on,65,26,0
1,note_on,69,26,0
1,note_on,73,42,0
1,note_on,73,0,120
1,note_on,69,0,0
1,note_on,65,0,0
1,note_on,61,62,0
1,note_on,66,43,480
1,note_on,66,0,120
1,note_on,68,45,0
1,note_on,68,0,120
1,note_on,69,46,0
1,note_on,69,0,120
1,note_on,73,48,0
1,note_on,73,0,120
1,note_on,61,0,117
1,note_on,78,46,363
1,note_on,78,0,120
1,note_on,80,48,0
1,note_on,80,0,120
1,note_on,81,50,0
1,note_on,81,0,120
1,note_on,85,52,0
1,note_on,85,0,120
1,note_on,72,60,0
1,note_on,72,0,360
1,note_on,76,54,0
1,note_on,76,0,120
1,note_on,79,58,0
1,note_on,79,0,120
1,note_on,84,54,0
1,note_on,84,0,120
1,note_on,78,60,0
1,note_on,78,0,120
1,note_on,79,57,0
1,note_on,84,57,0
1,note_on,84,0,120
1,note_on,79,0,0
1,note_on,76,63,0
1,note_on,76,0,120
1,note_on,79,60,0
1,note_on,84,60,0
1,note_on,84,0,120
1,note_on,79,0,0
1,note_on,74,65,0
1,note_on,74,0,120
1,note_on,76,63,0
1,note_on,79,63,0
1,note_on,79,0,120
1,note_on,76,0,0
1,note_on,72,69,0
1,note_on,72,0,120
1,note_on,76,60,0
1,note_on,79,60,0
1,note_on,79,0,120
1,note_on,76,0,0
1,note_on,71,69,0
1,note_on,71,0,120
1,note_on,76,60,0
1,note_on,79,60,0
1,note_on,79,0,120
1,note_on,76,0,0
1,note_on,70,73,0
1,note_on,70,0,360
1,note_on,73,45,0
1,note_on,78,54,0
1,note_on,78,0,120
1,note_on,73,0,0
1,note_on,71,69,0
1,note_on,71,0,360
1,note_on,74,42,0
1,note_on,78,50,0
1,note_on,78,0,120
1,note_on,74,0,0
1,note_on,68,70,0
1,note_on,68,0,360
1,note_on,71,41,0
1,note_on,78,49,0
1,note_on,78,0,120
1,note_on,71,0,0
1,note_on,70,69,0
1,note_on,70,0,360
1,note_on,73,39,0
1,note_on,78,47,0
1,note_on,78,0,120
1,note_on,73,0,0
1,note_on,66,66,0
1,note_on,66,0,360
1,note_on,71,25,0
1,note_on,74,25,0
1,note_on,78,41,0
1,note_on,78,0,120
1,note_on,74,0,0
1,note_on,71,0,0
1,note_on,67,59,0
1,note_on,67,0,120
1,note_on,71,24,0
1,note_on,74,24,0
1,note_on,78,40,0
1,note_on,78,0,120
1,note_on,74,0,0
1,note_on,71,0,0
1,note_on,69,58,0
1,note_on,69,0,120
1,note_on,71,25,0
1,note_on,74,25,0
1,note_on,78,39,0
1,note_on,78,0,120
1,note_on,74,0,0
1,note_on,71,0,0
1,note_on,66,58,0
1,note_on,66,0,360
1,note_on,74,21,0
1,note_on,70,21,0
1,note_on,78,34,0
1,note_on,78,0,120
1,note_on,70,0,0
1,note_on,74,0,0
1,note_on,66,55,0
1,note_on,66,0,360
1,note_on,70,22,0
1,note_on,74,22,0
1,note_on,78,36,0
1,note_on,78,0,120
1,note_on,74,0,0
1,note_on,70,0,0
1,note_on,66,44,0
1,note_on,66,0,360
1,note_on,71,20,0
1,note_on,75,20,0
1,note_on,78,33,0
1,note_on,78,0,120
1,note_on,75,0,0
1,note_on,71,0,0
1,note_on,68,39,0
1,note_on,68,0,120
1,note_on,71,19,0
1,note_on,75,19,0
1,note_on,78,32,0
1,note_on,78,0,120
1,note_on,75,0,0
1,note_on,71,0,0
1,note_on,70,39,0
1,note_on,70,0,120
1,note_on,71,20,0
1,note_on,75,20,0
1,note_on,78,32,0
1,note_on,78,0,120
1,note_on,75,0,0
1,note_on,71,0,0
1,note_on,66,39,0
1,note_on,66,0,360
1,note_on,75,17,0
1,note_on,70,17,0
1,note_on,78,28,0
1,note_on,78,0,120
1,note_on,70,0,0
1,note_on,75,0,0
1,note_on,66,38,0
1,note_on,66,0,360
1,note_on,70,17,0
1,note_on,75,17,0
1,note_on,78,29,0
1,note_on,78,0,120
1,note_on,75,0,0
1,note_on,70,0,0
1,note_on,66,44,0
1,note_on,71,30,480
1,note_on,71,0,120
1,note_on,73,32,0
1,note_on,73,0,120
1,note_on,75,33,0
1,note_on,75,0,120
1,note_on,78,34,0
1,note_on,78,0,120
1,note_on,66,0,0
1,note_on,66,44,0
1,note_on,71,37,480
1,note_on,71,0,120
1,note_on,73,39,0
1,note_on,73,0,120
1,note_on,75,41,0
1,note_on,75,0,120
1,note_on,78,44,0
1,note_on,78,0,120
1,note_on,66,0,0
1,note_on,78,49,0
1,note_on,74,43,480
1,note_on,74,0,120
1,note_on,73,41,0
1,note_on,73,0,120
1,note_on,71,40,0
1,note_on,71,0,120
1,note_on,66,39,0
1,note_on,66,0,120
1,note_on,78,0,0
1,note_on,78,49,0
1,note_on,74,43,480
1,note_on,74,0,120
1,note_on,73,41,0
1,note_on,73,0,120
1,note_on,71,40,0
1,note_on,71,0,120
1,note_on,67,39,0
1,note_on,67,0,120
1,note_on,78,0,0
1,note_on,78,52,0
1,note_on,78,0,360
1,note_on,68,44,0
1,note_on,68,0,120
1,note_on,69,46,0
1,note_on,69,0,120
1,note_on,70,48,0
1,note_on,70,0,120
1,note_on,71,49,0
1,note_on,71,0,120
1,note_on,72,51,0
1,note_on,72,0,120
1,note_on,73,53,0
1,note_on,73,0,120
1,note_on,74,55,0
1,note_on,74,0,120
1,note_on,75,57,0
1,note_on,75,0,120
1,note_on,76,59,0
1,note_on,76,0,120
1,note_on,81,65,0
1,note_on,81,0,120
1,note_on,76,58,0
1,note_on,76,0,120
1,note_on,73,62,0
1,note_on,73,0,120
1,note_on,69,58,0
1,note_on,69,0,120
1,note_on,67,68,0
1,note_on,67,0,360
1,note_on,76,53,0
1,note_on,76,0,120
1,note_on,68,69,0
1,note_on,68,0,360
1,note_on,76,52,0
1,note_on,76,0,120
1,note_on,67,70,0
1,note_on,67,0,360
1,note_on,76,50,0
1,note_on,76,0,120
1,note_on,68,69,0
1,note_on,68,0,360
1,note_on,77,46,0
1,note_on,77,0,120
1,note_on,78,67,0
1,note_on,78,0,360
1,note_on,68,54,0
1,note_on,68,0,120
1,note_on,69,53,0
1,note_on,69,0,120
1,note_on,70,54,0
1,note_on,70,0,120
1,note_on,71,55,0
1,note_on,71,0,120
1,note_on,72,57,0
1,note_on,72,0,120
1,note_on,73,58,0
1,note_on,73,0,120
1,note_on,74,60,0
1,note_on,74,0,120
1,note_on,75,61,0
1,note_on,75,0,120
1,note_on,76,63,0
1,note_on,76,0,120
1,note_on,81,69,0
1,note_on,81,0,120
1,note_on,76,60,0
1,note_on,76,0,120
1,note_on,73,62,0
1,note_on,73,0,120
1,note_on,69,60,0
1,note_on,69,0,120
1,note_on,85,76,0
1,note_on,85,0,360
1,note_on,75,60,0
1,note_on,75,0,120
1,note_on,76,58,0
1,note_on,76,0,120
1,note_on,77,59,0
1,note_on,77,0,120
1,note_on,78,61,0
1,note_on,78,0,120
1,note_on,79,62,0
1,note_on,79,0,120
1,note_on,80,64,0
1,note_on,80,0,120
1,note_on,81,66,0
1,note_on,81,0,120
1,note_on,82,67,0
1,note_on,82,0,120
1,note_on,83,69,0
1,note_on,83,0,120
1,note_on,88,78,0
1,note_on,88,0,120
1,note_on,83,67,0
1,note_on,83,0,120
1,note_on,80,72,0
1,note_on,80,0,120
1,note_on,76,65,0
1,note_on,76,0,120
1,note_on,90,90,0
1,note_on,90,0,360
1,note_on,80,66,0
1,note_on,80,0,120
1,note_on,81,66,0
1,note_on,81,0,120
1,note_on,82,67,0
1,note_on,82,0,120
1,note_on,83,69,0
1,note_on,83,0,120
1,note_on,84,70,0
1,note_on,84,0,120
1,note_on,85,72,0
1,note_on,85,0,120
1,note_on,86,74,0
1,note_on,86,0,120
1,note_on,87,75,0
1,note_on,87,0,120
1,note_on,88,77,0
1,note_on,88,0,120
1,note_on,93,87,0
1,note_on,93,0,120
1,note_on,88,73,0
1,note_on,88,0,120
1,note_on,85,76,0
1,note_on,85,0,120
1,note_on,81,74,0
1,note_on,81,0,120
1,note_on,76,83,0
1,note_on,76,0,360
1,note_on,85,56,0
1,note_on,85,0,120
1,note_on,73,75,0
1,note_on,73,0,360
1,note_on,81,50,0
1,note_on,81,0,120
1,note_on,69,67,0
1,note_on,69,0,360
1,note_on,78,45,0
1,note_on,78,0,120
1,note_on,66,60,0
1,note_on,66,0,360
1,note_on,75,38,0
1,note_on,75,0,120
1,note_on,65,52,0
1,note_on,65,0,360
1,note_on,74,38,0
1,note_on,74,0,120
1,note_on,62,49,0
1,note_on,62,0,360
1,note_on,71,34,0
1,note_on,71,0,120
1,note_on,61,46,0
1,note_on,61,0,360
1,note_on,69,36,0
1,note_on,69,0,120
1,note_on,67,60,480
1,note_on,67,0,360
1,note_on,71,54,0
1,note_on,71,0,120
1,note_on,74,58,0
1,note_on,74,0,120
1,note_on,79,54,0
1,note_on,79,0,120
1,note_on,73,60,0
1,note_on,73,0,120
1,note_on,74,57,0
1,note_on,79,57,0
1,note_on,79,0,120
1,note_on,74,0,0
1,note_on,71,63,0
1,note_on,71,0,120
1,note_on,74,60,0
1,note_on,79,60,0
1,note_on,79,0,120
1,note_on,74,0,0
1,note_on,69,65,0
1,note_on,69,0,120
1,note_on,71,63,0
1,note_on,74,63,0
1,note_on,74,0,120
1,note_on,71,0,0
1,note_on,67,69,0
1,note_on,67,0,120
1,note_on,71,60,0
1,note_on,74,60,0
1,note_on,74,0,120
1,note_on,71,0,0
1,note_on,66,69,0
1,note_on,66,0,120
1,note_on,71,60,0
1,note_on,74,60,0
1,note_on,74,0,120
1,note_on,71,0,0
1,note_on,65,73,0
1,note_on,65,0,360
1,note_on,68,49,0
1,note_on,73,58,0
1,note_on,73,0,120
1,note_on,68,0,0
1,note_on,66,69,0
1,note_on,66,0,360
1,note_on,69,48,0
1,note_on,73,57,0
1,note_on,73,0,120
1,note_on,69,0,0
1,note_on,63,70,0
1,note_on,63,0,360
1,note_on,66,47,0
1,note_on,73,56,0
1,note_on,73,0,120
1,note_on,66,0,0
1,note_on,65,69,0
1,note_on,65,0,360
1,note_on,68,44,0
1,note_on,73,52,0
1,note_on,73,0,120
1,note_on,68,0,0
1,note_on,61,66,0
1,note_on,61,0,360
1,note_on,66,26,0
1,note_on,69,26,0
1,note_on,73,42,0
1,note_on,73,0,120
1,note_on,69,0,0
1,note_on,66,0,0
1,note_on,62,51,0
1,note_on,62,0,120
1,note_on,66,26,0
1,note_on,69,26,0
1,note_on,73,42,0
1,note_on,73,0,120
1,note_on,69,0,0
1,note_on,66,0,0
1,note_on,64,62,0
1,note_on,64,0,120
1,note_on,66,27,0
1,note_on,69,27,0
1,note_on,73,43,0
1,note_on,73,0,120
1,note_on,69,0,0
1,note_on,66,0,0
1,note_on,61,63,0
1,note_on,61,0,360
1,note_on,69,23,0
1,note_on,65,23,0
1,note_on,73,38,0
1,note_on,73,0,120
1,note_on,65,0,0
1,note_on,69,0,0
1,note_on,61,62,0
1,note_on,61,0,360
1,note_on,65,26,0
1,note_on,69,26,0
1,note_on,73,42,0
1,note_on,73,0,120
1,note_on,69,0,0
1,note_on,65,0,0
1,note_on,61,62,0
1,note_on,66,43,480
1,note_on,66,0,120
1,note_on,68,45,0
1,note_on,68,0,120
1,note_on,69,46,0
1,note_on,69,0,120
1,note_on,73,48,0
1,note_on,73,0,120
1,note_on,61,0,117
1,note_on,78,46,363
1,note_on,78,0,120
1,note_on,80,48,0
1,note_on,80,0,120
1,note_on,81,50,0
1,note_on,81,0,120
1,note_on,85,52,0
1,note_on,85,0,120
1,note_on,72,60,0
1,note_on,72,0,360
1,note_on,76,54,0
1,note_on,76,0,120
1,note_on,79,58,0
1,note_on,79,0,120
1,note_on,84,54,0
1,note_on,84,0,120
1,note_on,78,60,0
1,note_on,78,0,120
1,note_on,79,57,0
1,note_on,84,57,0
1,note_on,84,0,120
1,note_on,79,0,0
1,note_on,76,63,0
1,note_on,76,0,120
1,note_on,79,60,0
1,note_on,84,60,0
1,note_on,84,0,120
1,note_on,79,0,0
1,note_on,74,65,0
1,note_on,74,0,120
1,note_on,76,63,0
1,note_on,79,63,0
1,note_on,79,0,120
1,note_on,76,0,0
1,note_on,72,69,0
1,note_on,72,0,120
1,note_on,76,60,0
1,note_on,79,60,0
1,note_on,79,0,120
1,note_on,76,0,0
1,note_on,71,69,0
1,note_on,71,0,120
1,note_on,76,60,0
1,note_on,79,60,0
1,note_on,79,0,120
1,note_on,76,0,0
1,note_on,70,73,0
1,note_on,70,0,360
1,note_on,73,46,0
1,note_on,78,55,0
1,note_on,78,0,120
1,note_on,73,0,0
1,note_on,71,69,0
1,note_on,71,0,360
1,note_on,74,43,0
1,note_on,78,51,0
1,note_on,78,0,120
1,note_on,74,0,0
1,note_on,68,70,0
1,note_on,68,0,360
1,note_on,71,43,0
1,note_on,78,51,0
1,note_on,78,0,120
1,note_on,71,0,0
1,note_on,70,69,0
1,note_on,70,0,360
1,note_on,73,41,0
1,note_on,78,49,0
1,note_on,78,0,120
1,note_on,73,0,0
1,note_on,66,66,0
1,note_on,66,0,360
1,note_on,71,26,0
1,note_on,74,26,0
1,note_on,78,42,0
1,note_on,78,0,120
1,note_on,74,0,0
1,note_on,71,0,0
1,note_on,67,60,0
1,note_on,67,0,120
1,note_on,71,25,0
1,note_on,74,25,0
1,note_on,78,41,0
1,note_on,78,0,120
1,note_on,74,0,0
1,note_on,71,0,0
1,note_on,69,60,0
1,note_on,69,0,120
1,note_on,71,25,0
1,note_on,74,25,0
1,note_on,78,40,0
1,note_on,78,0,120
1,note_on,74,0,0
1,note_on,71,0,0
1,note_on,66,59,0
1,note_on,66,0,360
1,note_on,74,21,0
1,note_on,70,21,0
1,note_on,78,34,0
1,note_on,78,0,120
1,note_on,70,0,0
1,note_on,74,0,0
1,note_on,66,55,0
1,note_on,66,0,360
1,note_on,70,22,0
1,note_on,74,22,0
1,note_on,78,36,0
1,note_on,78,0,120
1,note_on,74,0,0
1,note_on,70,0,0
1,note_on,66,44,0
1,note_on,66,0,360
1,note_on,71,20,0
1,note_on,75,20,0
1,note_on,78,33,0
1,note_on,78,0,120
1,note_on,75,0,0
1,note_on,71,0,0
1,note_on,68,39,0
1,note_on,68,0,120
1,note_on,71,19,0
1,note_on,75,19,0
1,note_on,78,32,0
1,note_on,78,0,120
1,note_on,75,0,0
1,note_on,71,0,0
1,note_on,70,39,0
1,note_on,70,0,120
1,note_on,71,20,0
1,note_on,75,20,0
1,note_on,78,32,0
1,note_on,78,0,120
1,note_on,75,0,0
1,note_on,71,0,0
1,note_on,66,39,0
1,note_on,66,0,360
1,note_on,75,17,0
1,note_on,70,17,0
1,note_on,78,28,0
1,note_on,78,0,120
1,note_on,70,0,0
1,note_on,75,0,0
1,note_on,66,38,0
1,note_on,66,0,360
1,note_on,70,17,0
1,note_on,75,17,0
1,note_on,78,29,0
1,note_on,78,0,120
1,note_on,75,0,0
1,note_on,70,0,0
1,note_on,66,44,0
1,note_on,71,30,480
1,note_on,71,0,120
1,note_on,73,32,0
1,note_on,73,0,120
1,note_on,75,33,0
1,note_on,75,0,120
1,note_on,78,34,0
1,note_on,78,0,120
1,note_on,66,0,0
1,note_on,66,44,0
1,note_on,71,37,480
1,note_on,71,0,120
1,note_on,73,39,0
1,note_on,73,0,120
1,note_on,75,41,0
1,note_on,75,0,120
1,note_on,78,44,0
1,note_on,78,0,110
1,note_on,66,0,10
1,note_on,78,49,0
1,note_on,74,43,480
1,note_on,74,0,120
1,note_on,73,41,0
1,note_on,73,0,120
1,note_on,71,40,0
1,note_on,71,0,120
1,note_on,66,39,0
1,note_on,66,0,120
1,note_on,78,0,0
1,note_on,78,49,0
1,note_on,74,43,480
1,note_on,74,0,120
1,note_on,73,41,0
1,note_on,73,0,120
1,note_on,71,40,0
1,note_on,71,0,120
1,note_on,67,39,0
1,note_on,67,0,120
1,note_on,78,0,0
1,note_on,78,49,0
1,note_on,78,0,360
1,note_on,68,42,0
1,note_on,68,0,120
1,note_on,69,43,0
1,note_on,69,0,120
1,note_on,70,45,0
1,note_on,70,0,120
1,note_on,71,47,0
1,note_on,71,0,120
1,note_on,72,49,0
1,note_on,72,0,120
1,note_on,73,50,0
1,note_on,73,0,120
1,note_on,74,52,0
1,note_on,74,0,120
1,note_on,75,54,0
1,note_on,75,0,120
1,note_on,76,56,0
1,note_on,76,0,120
1,note_on,81,62,0
1,note_on,81,0,120
1,note_on,76,55,0
1,note_on,76,0,120
1,note_on,73,62,0
1,note_on,73,0,120
1,note_on,69,58,0
1,note_on,69,0,120
1,note_on,67,68,0
1,note_on,67,0,360
1,note_on,76,54,0
1,note_on,76,0,120
1,note_on,68,69,0
1,note_on,68,0,360
1,note_on,76,53,0
1,note_on,76,0,120
1,note_on,67,70,0
1,note_on,67,0,360
1,note_on,76,53,0
1,note_on,76,0,120
1,note_on,68,69,0
1,note_on,68,0,360
1,note_on,77,50,0
1,note_on,77,0,120
1,note_on,78,67,0
1,note_on,78,0,360
1,note_on,68,54,0
1,note_on,68,0,120
1,note_on,69,53,0
1,note_on,69,0,120
1,note_on,70,54,0
1,note_on,70,0,120
1,note_on,71,55,0
1,note_on,71,0,120
1,note_on,72,57,0
1,note_on,72,0,120
1,note_on,73,58,0
1,note_on,73,0,120
1,note_on,74,60,0
1,note_on,74,0,120
1,note_on,75,61,0
1,note_on,75,0,120
1,note_on,76,63,0
1,note_on,76,0,120
1,note_on,81,69,0
1,note_on,81,0,120
1,note_on,76,60,0
1,note_on,76,0,120
1,note_on,73,62,0
1,note_on,73,0,120
1,note_on,69,60,0
1,note_on,69,0,120
1,note_on,85,76,0
1,note_on,85,0,360
1,note_on,75,60,0
1,note_on,75,0,120
1,note_on,76,58,0
1,note_on,76,0,120
1,note_on,77,59,0
1,note_on,77,0,120
1,note_on,78,61,0
1,note_on,78,0,120
1,note_on,79,62,0
1,note_on,79,0,120
1,note_on,80,64,0
1,note_on,80,0,120
1,note_on,81,66,0
1,note_on,81,0,120
1,note_on,82,67,0
1,note_on,82,0,120
1,note_on,83,69,0
1,note_on,83,0,120
1,note_on,88,78,0
1,note_on,88,0,120
1,note_on,83,67,0
1,note_on,83,0,120
1,note_on,80,74,0
1,note_on,80,0,120
1,note_on,76,65,0
1,note_on,76,0,120
1,note_on,90,90,0
1,note_on,90,0,360
1,note_on,80,70,0
1,note_on,80,0,120
1,note_on,81,70,0
1,note_on,81,0,120
1,note_on,82,71,0
1,note_on,82,0,120
1,note_on,83,72,0
1,note_on,83,0,120
1,note_on,84,74,0
1,note_on,84,0,120
1,note_on,85,75,0
1,note_on,85,0,120
1,note_on,86,77,0
1,note_on,86,0,120
1,note_on,87,77,0
1,note_on,87,0,120
1,note_on,88,77,0
1,note_on,88,0,120
1,note_on,93,90,0
1,note_on,93,0,120
1,note_on,88,80,0
1,note_on,88,0,120
1,note_on,85,83,0
1,note_on,85,0,120
1,note_on,81,79,0
1,note_on,81,0,120
1,note_on,76,90,0
1,note_on,76,0,360
1,note_on,85,66,0
1,note_on,85,0,120
1,note_on,73,84,0
1,note_on,73,0,360
1,note_on,81,61,0
1,note_on,81,0,120
1,note_on,69,70,0
1,note_on,69,0,360
1,note_on,78,51,0
1,note_on,78,0,120
1,note_on,66,64,0
1,note_on,66,0,360
1,note_on,75,42,0
1,note_on,75,0,120
1,note_on,65,57,0
1,note_on,65,0,360
1,note_on,74,43,0
1,note_on,74,0,120
1,note_on,62,55,0
1,note_on,62,0,360
1,note_on,71,39,0
1,note_on,71,0,120
1,note_on,64,60,960
1,note_on,64,0,360
1,note_on,73,38,0
1,note_on,73,0,120
1,note_on,61,53,0
1,note_on,61,0,360
1,note_on,69,35,0
1,note_on,69,0,120
1,note_on,57,50,0
1,note_on,57,0,360
1,note_on,66,36,0
1,note_on,66,0,120
1,note_on,54,46,0
1,note_on,54,0,360
1,note_on,63,29,0
1,note_on,63,0,120
1,note_on,53,42,0
1,note_on,53,0,360
1,note_on,62,29,0
1,note_on,62,0,120
1,note_on,50,40,0
1,note_on,50,0,360
1,note_on,59,27,0
1,note_on,59,0,120
1,note_on,49,36,0
1,note_on,49,0,360
1,note_on,57,28,0
1,note_on,57,0,120
2,note_on,50,36,120
2,note_on,50,0,120
2,note_on,56,36,0
2,note_on,56,0,120
2,note_on,59,36,0
2,note_on,59,0,120
2,note_on,66,45,0
2,note_on,66,0,120
2,note_on,49,40,960
2,note_on,49,0,120
2,note_on,57,44,0
2,note_on,57,0,120
2,note_on,64,40,0
2,note_on,64,0,120
2,note_on,46,40,120
2,note_on,46,0,120
2,note_on,52,43,0
2,note_on,52,0,120
2,note_on,61,40,0
2,note_on,61,0,120
2,note_on,47,40,120
2,note_on,47,0,120
2,note_on,52,43,0
2,note_on,52,0,120
2,note_on,62,40,0
2,note_on,62,0,120
2,note_on,46,38,120
2,note_on,46,0,120
2,note_on,52,46,0
2,note_on,52,0,120
2,note_on,61,38,0
2,note_on,61,0,120
2,note_on,47,38,120
2,note_on,47,0,120
2,note_on,52,44,0
2,note_on,52,0,120
2,note_on,62,38,0
2,note_on,62,0,120
2,note_on,50,36,120
2,note_on,50,0,120
2,note_on,56,36,0
2,note_on,56,0,120
2,note_on,59,36,0
2,note_on,59,0,120
2,note_on,66,45,0
2,note_on,66,0,120
2,note_on,49,40,960
2,note_on,49,0,120
2,note_on,57,44,0
2,note_on,57,0,120
2,note_on,64,40,0
2,note_on,64,0,120
2,note_on,57,39,120
2,note_on,57,0,120
2,note_on,63,39,0
2,note_on,63,0,120
2,note_on,66,40,0
2,note_on,66,0,120
2,note_on,73,50,0
2,note_on,73,0,120
2,note_on,56,48,960
2,note_on,56,0,120
2,note_on,64,54,0
2,note_on,64,0,120
2,note_on,71,49,0
2,note_on,71,0,118
2,note_on,47,45,122
2,note_on,47,0,120
2,note_on,56,48,0
2,note_on,56,0,120
2,note_on,64,44,0
2,note_on,64,0,120
2,note_on,47,36,600
2,note_on,47,0,120
2,note_on,55,42,0
2,note_on,55,0,120
2,note_on,64,34,0
2,note_on,64,0,120
2,note_on,47,31,600
2,note_on,47,0,120
2,note_on,54,32,0
2,note_on,54,0,120
2,note_on,63,29,0
2,note_on,63,0,120
2,note_on,40,24,600
2,note_on,40,0,120
2,note_on,47,30,0
2,note_on,47,0,120
2,note_on,28,38,120
2,note_on,28,0,120
2,note_on,50,36,480
2,note_on,50,0,120
2,note_on,56,36,0
2,note_on,56,0,120
2,note_on,59,36,0
2,note_on,59,0,120
2,note_on,66,45,0
2,note_on,66,0,120
2,note_on,49,40,960
2,note_on,49,0,120
2,note_on,57,44,0
2,note_on,57,0,120
2,note_on,64,40,0
2,note_on,64,0,120
2,note_on,46,40,120
2,note_on,46,0,120
2,note_on,52,43,0
2,note_on,52,0,120
2,note_on,61,40,0
2,note_on,61,0,120
2,note_on,47,40,120
2,note_on,47,0,120
2,note_on,52,43,0
2,note_on,52,0,120
2,note_on,62,40,0
2,note_on,62,0,120
2,note_on,46,38,120
2,note_on,46,0,120
2,note_on,52,46,0
2,note_on,52,0,120
2,note_on,61,38,0
2,note_on,61,0,120
2,note_on,47,38,120
2,note_on,47,0,120
2,note_on,52,44,0
2,note_on,52,0,120
2,note_on,62,38,0
2,note_on,62,0,120
2,note_on,50,36,120
2,note_on,50,0,120
2,note_on,56,36,0
2,note_on,56,0,120
2,note_on,59,36,0
2,note_on,59,0,120
2,note_on,66,45,0
2,note_on,66,0,120
2,note_on,49,40,960
2,note_on,49,0,120
2,note_on,57,44,0
2,note_on,57,0,120
2,note_on,64,40,0
2,note_on,64,0,120
2,note_on,57,39,120
2,note_on,57,0,120
2,note_on,63,39,0
2,note_on,63,0,120
2,note_on,66,40,0
2,note_on,66,0,120
2,note_on,73,50,0
2,note_on,73,0,120
2,note_on,56,48,960
2,note_on,56,0,120
2,note_on,64,54,0
2,note_on,64,0,120
2,note_on,71,49,0
2,note_on,71,0,118
2,note_on,47,45,122
2,note_on,47,0,120
2,note_on,56,48,0
2,note_on,56,0,120
2,note_on,64,44,0
2,note_on,64,0,120
2,note_on,47,35,600
2,note_on,47,0,120
2,note_on,55,42,0
2,note_on,55,0,120
2,note_on,64,34,0
2,note_on,64,0,120
2,note_on,47,30,600
2,note_on,47,0,120
2,note_on,54,32,0
2,note_on,54,0,120
2,note_on,63,29,0
2,note_on,63,0,120
2,note_on,40,24,595
2,note_on,40,0,120
2,note_on,47,29,5
2,note_on,47,0,120
2,note_on,28,37,120
2,note_on,28,0,120
2,note_on,47,36,480
2,note_on,47,0,120
2,note_on,55,36,0
2,note_on,55,0,120
2,note_on,62,36,0
2,note_on,62,0,120
2,note_on,49,40,1560
2,note_on,49,0,120
2,note_on,59,43,0
2,note_on,59,0,120
2,note_on,49,40,240
2,note_on,49,0,120
2,note_on,61,43,0
2,note_on,61,0,120
2,note_on,49,38,240
2,note_on,49,0,120
2,note_on,57,46,0
2,note_on,57,0,120
2,note_on,49,38,240
2,note_on,49,0,120
2,note_on,59,44,0
2,note_on,59,0,120
2,note_on,42,40,240
2,note_on,42,0,120
2,note_on,49,43,0
2,note_on,49,0,120
2,note_on,57,43,0
2,note_on,57,0,120
2,note_on,42,38,600
2,note_on,42,0,120
2,note_on,49,46,0
2,note_on,49,0,120
2,note_on,59,46,0
2,note_on,59,0,120
2,note_on,42,38,120
2,note_on,42,0,120
2,note_on,49,44,0
2,note_on,49,0,120
2,note_on,59,44,0
2,note_on,59,0,120
2,note_on,42,38,120
2,note_on,42,0,120
2,note_on,49,44,0
2,note_on,49,0,120
2,note_on,57,44,0
2,note_on,57,0,120
2,note_on,54,38,600
2,note_on,54,0,120
2,note_on,61,44,0
2,note_on,69,44,120
2,note_on,69,0,120
2,note_on,61,0,480
2,note_on,52,36,120
2,note_on,52,0,120
2,note_on,60,36,0
2,note_on,60,0,120
2,note_on,67,36,0
2,note_on,67,0,120
2,note_on,54,40,1560
2,note_on,54,0,120
2,note_on,64,43,0
2,note_on,64,0,120
2,note_on,54,40,240
2,note_on,54,0,120
2,note_on,66,43,0
2,note_on,66,0,120
2,note_on,54,38,240
2,note_on,54,0,120
2,note_on,62,46,0
2,note_on,62,0,120
2,note_on,54,38,240
2,note_on,54,0,120
2,note_on,64,44,0
2,note_on,64,0,120
2,note_on,47,40,240
2,note_on,47,0,120
2,note_on,54,42,0
2,note_on,54,0,120
2,note_on,62,42,0
2,note_on,62,0,120
2,note_on,47,34,600
2,note_on,47,0,120
2,note_on,54,41,0
2,note_on,54,0,120
2,note_on,64,41,0
2,note_on,64,0,120
2,note_on,47,33,120
2,note_on,47,0,120
2,note_on,54,38,0
2,note_on,54,0,120
2,note_on,64,37,0
2,note_on,64,0,120
2,note_on,47,27,120
2,note_on,47,0,120
2,note_on,54,28,0
2,note_on,54,0,120
2,note_on,63,28,0
2,note_on,63,0,120
2,note_on,47,23,600
2,note_on,47,0,120
2,note_on,54,28,0
2,note_on,54,0,120
2,note_on,64,28,0
2,note_on,64,0,120
2,note_on,47,22,120
2,note_on,47,0,120
2,note_on,54,26,0
2,note_on,54,0,120
2,note_on,64,26,0
2,note_on,64,0,120
2,note_on,47,27,120
2,note_on,47,0,120
2,note_on,54,31,0
2,note_on,54,0,120
2,note_on,63,31,0
2,note_on,63,0,120
2,note_on,47,27,600
2,note_on,47,0,120
2,note_on,54,31,0
2,note_on,54,0,120
2,note_on,63,31,0
2,note_on,63,0,120
2,note_on,47,32,600
2,note_on,47,0,120
2,note_on,54,34,0
2,note_on,54,0,120
2,note_on,62,37,0
2,note_on,62,0,120
2,note_on,47,32,600
2,note_on,47,0,120
2,note_on,55,34,0
2,note_on,55,0,120
2,note_on,62,37,0
2,note_on,62,0,120
2,note_on,38,31,480
2,note_on,50,36,0
2,note_on,50,0,120
2,note_on,38,0,0
2,note_on,56,36,0
2,note_on,56,0,120
2,note_on,59,36,0
2,note_on,59,0,120
2,note_on,66,45,0
2,note_on,66,0,120
2,note_on,49,40,1080
2,note_on,49,0,120
2,note_on,57,44,0
2,note_on,57,0,120
2,note_on,64,40,0
2,note_on,64,0,120
2,note_on,46,40,120
2,note_on,46,0,120
2,note_on,52,43,0
2,note_on,52,0,120
2,note_on,61,40,0
2,note_on,61,0,120
2,note_on,47,40,120
2,note_on,47,0,120
2,note_on,52,43,0
2,note_on,52,0,120
2,note_on,62,40,0
2,note_on,62,0,120
2,note_on,46,38,120
2,note_on,46,0,120
2,note_on,52,46,0
2,note_on,52,0,120
2,note_on,61,38,0
2,note_on,61,0,120
2,note_on,47,38,120
2,note_on,47,0,120
2,note_on,52,44,0
2,note_on,52,0,120
2,note_on,62,38,0
2,note_on,62,0,120
2,note_on,50,36,120
2,note_on,50,0,120
2,note_on,56,36,0
2,note_on,56,0,120
2,note_on,59,36,0
2,note_on,59,0,120
2,note_on,66,45,0
2,note_on,66,0,120
2,note_on,49,40,960
2,note_on,49,0,120
2,note_on,57,44,0
2,note_on,57,0,120
2,note_on,64,40,0
2,note_on,64,0,120
2,note_on,57,39,120
2,note_on,57,0,120
2,note_on,63,39,0
2,note_on,63,0,120
2,note_on,66,40,0
2,note_on,66,0,120
2,note_on,73,50,0
2,note_on,73,0,120
2,note_on,56,46,960
2,note_on,56,0,120
2,note_on,64,54,0
2,note_on,64,0,120
2,note_on,71,49,0
2,note_on,71,0,120
2,note_on,62,44,120
2,note_on,62,0,120
2,note_on,68,48,0
2,note_on,68,0,120
2,note_on,71,51,0
2,note_on,71,0,120
2,note_on,78,55,0
2,note_on,78,0,120
2,note_on,61,48,960
2,note_on,61,0,120
2,note_on,69,54,0
2,note_on,69,0,120
2,note_on,76,49,0
2,note_on,76,0,118
2,note_on,52,45,122
2,note_on,52,0,120
2,note_on,61,47,0
2,note_on,61,0,120
2,note_on,69,43,0
2,note_on,69,0,120
2,note_on,52,35,600
2,note_on,52,0,120
2,note_on,60,41,0
2,note_on,60,0,120
2,note_on,69,34,0
2,note_on,69,0,120
2,note_on,52,30,600
2,note_on,52,0,120
2,note_on,59,31,0
2,note_on,59,0,120
2,note_on,68,28,0
2,note_on,68,0,120
2,note_on,45,24,600
2,note_on,45,0,120
2,note_on,52,29,0
2,note_on,52,0,120
2,note_on,33,34,120
2,note_on,33,0,120
2,note_on,47,36,480
2,note_on,47,0,120
2,note_on,55,36,0
2,note_on,55,0,120
2,note_on,62,36,0
2,note_on,62,0,120
2,note_on,49,40,1560
2,note_on,49,0,120
2,note_on,59,43,0
2,note_on,59,0,120
2,note_on,49,40,240
2,note_on,49,0,120
2,note_on,61,43,0
2,note_on,61,0,120
2,note_on,49,38,240
2,note_on,49,0,120
2,note_on,57,46,0
2,note_on,57,0,120
2,note_on,49,38,240
2,note_on,49,0,120
2,note_on,59,44,0
2,note_on,59,0,120
2,note_on,42,40,240
2,note_on,42,0,120
2,note_on,49,43,0
2,note_on,49,0,120
2,note_on,57,43,0
2,note_on,57,0,120
2,note_on,42,38,600
2,note_on,42,0,120
2,note_on,49,46,0
2,note_on,49,0,120
2,note_on,59,46,0
2,note_on,59,0,120
2,note_on,42,38,120
2,note_on,42,0,120
2,note_on,49,44,0
2,note_on,49,0,120
2,note_on,59,44,0
2,note_on,59,0,120
2,note_on,42,38,120
2,note_on,42,0,120
2,note_on,49,44,0
2,note_on,49,0,120
2,note_on,57,44,0
2,note_on,57,0,120
2,note_on,54,38,600
2,note_on,54,0,120
2,note_on,61,44,0
2,note_on,69,44,120
2,note_on,69,0,120
2,note_on,61,0,480
2,note_on,52,36,120
2,note_on,52,0,120
2,note_on,60,36,0
2,note_on,60,0,120
2,note_on,67,36,0
2,note_on,67,0,120
2,note_on,54,40,1560
2,note_on,54,0,120
2,note_on,64,43,0
2,note_on,64,0,120
2,note_on,54,40,240
2,note_on,54,0,120
2,note_on,66,43,0
2,note_on,66,0,120
2,note_on,54,38,240
2,note_on,54,0,120
2,note_on,62,46,0
2,note_on,62,0,120
2,note_on,54,38,240
2,note_on,54,0,120
2,note_on,64,44,0
2,note_on,64,0,120
2,note_on,47,40,240
2,note_on,47,0,120
2,note_on,54,43,0
2,note_on,54,0,120
2,note_on,62,43,0
2,note_on,62,0,120
2,note_on,47,35,600
2,note_on,47,0,120
2,note_on,54,42,0
2,note_on,54,0,120
2,note_on,64,41,0
2,note_on,64,0,120
2,note_on,47,33,120
2,note_on,47,0,120
2,note_on,54,38,0
2,note_on,54,0,120
2,note_on,64,38,0
2,note_on,64,0,120
2,note_on,47,27,120
2,note_on,47,0,120
2,note_on,54,28,0
2,note_on,54,0,120
2,note_on,63,28,0
2,note_on,63,0,120
2,note_on,47,23,600
2,note_on,47,0,120
2,note_on,54,28,0
2,note_on,54,0,120
2,note_on,64,28,0
2,note_on,64,0,120
2,note_on,47,22,120
2,note_on,47,0,120
2,note_on,54,26,0
2,note_on,54,0,120
2,note_on,64,26,0
2,note_on,64,0,120
2,note_on,47,27,120
2,note_on,47,0,120
2,note_on,54,31,0
2,note_on,54,0,120
2,note_on,63,31,0
2,note_on,63,0,120
2,note_on,47,27,600
2,note_on,47,0,120
2,note_on,54,31,0
2,note_on,54,0,120
2,note_on,63,31,0
2,note_on,63,0,120
2,note_on,47,32,600
2,note_on,47,0,120
2,note_on,54,34,0
2,note_on,54,0,120
2,note_on,62,37,0
2,note_on,62,0,120
2,note_on,47,32,600
2,note_on,47,0,120
2,note_on,55,34,0
2,note_on,55,0,120
2,note_on,62,37,0
2,note_on,62,0,120
2,note_on,38,31,480
2,note_on,50,36,0
2,note_on,50,0,120
2,note_on,38,0,0
2,note_on,56,36,0
2,note_on,56,0,120
2,note_on,59,36,0
2,note_on,59,0,120
2,note_on,66,45,0
2,note_on,66,0,120
2,note_on,49,40,1080
2,note_on,49,0,120
2,note_on,57,44,0
2,note_on,57,0,120
2,note_on,64,40,0
2,note_on,64,0,120
2,note_on,46,40,120
2,note_on,46,0,120
2,note_on,52,43,0
2,note_on,52,0,120
2,note_on,61,40,0
2,note_on,61,0,120
2,note_on,47,40,120
2,note_on,47,0,120
2,note_on,52,43,0
2,note_on,52,0,120
2,note_on,62,40,0
2,note_on,62,0,120
2,note_on,46,38,120
2,note_on,46,0,120
2,note_on,52,46,0
2,note_on,52,0,120
2,note_on,61,38,0
2,note_on,61,0,120
2,note_on,47,38,120
2,note_on,47,0,120
2,note_on,52,44,0
2,note_on,52,0,120
2,note_on,62,38,0
2,note_on,62,0,120
2,note_on,50,36,120
2,note_on,50,0,120
2,note_on,56,36,0
2,note_on,56,0,120
2,note_on,59,36,0
2,note_on,59,0,120
2,note_on,66,45,0
2,note_on,66,0,120
2,note_on,49,40,960
2,note_on,49,0,120
2,note_on,57,44,0
2,note_on,57,0,120
2,note_on,64,40,0
2,note_on,64,0,120
2,note_on,57,39,120
2,note_on,57,0,120
2,note_on,63,39,0
2,note_on,63,0,120
2,note_on,66,40,0
2,note_on,66,0,120
2,note_on,73,50,0
2,note_on,73,0,120
2,note_on,56,46,960
2,note_on,56,0,120
2,note_on,64,54,0
2,note_on,64,0,120
2,note_on,71,49,0
2,note_on,71,0,120
2,note_on,62,49,120
2,note_on,62,0,120
2,note_on,68,52,0
2,note_on,68,0,120
2,note_on,71,56,0
2,note_on,71,0,120
2,note_on,78,59,0
2,note_on,78,0,120
2,note_on,61,52,960
2,note_on,61,0,120
2,note_on,69,60,0
2,note_on,69,0,120
2,note_on,76,53,0
2,note_on,76,0,118
2,note_on,52,45,122
2,note_on,52,0,120
2,note_on,61,48,0
2,note_on,61,0,120
2,note_on,69,44,0
2,note_on,69,0,120
2,note_on,52,37,600
2,note_on,52,0,120
2,note_on,60,44,0
2,note_on,60,0,120
2,note_on,69,36,0
2,note_on,69,0,120
2,note_on,52,33,600
2,note_on,52,0,120
2,note_on,59,35,0
2,note_on,59,0,120
2,note_on,68,32,0
2,note_on,68,0,120
2,note_on,40,29,1560
2,note_on,40,0,120
2,note_on,49,33,0
2,note_on,49,0,120
2,note_on,57,30,0
2,note_on,57,0,120
2,note_on,40,28,600
2,note_on,40,0,120
2,note_on,48,31,0
2,note_on,48,0,120
2,note_on,57,30,0
2,note_on,57,0,120
2,note_on,40,27,600
2,note_on,40,0,120
2,note_on,47,30,0
2,note_on,47,0,120
2,note_on,56,24,0
2,note_on,56,0,120
2,note_on,33,28,600
2,note_on,33,0,120
2,note_on,40,34,0
2,note_on,40,0,120
2,note_on,21,47,120
2,note_on,21,0,240
