Track,Message Type,Note,Velocity,Time
1,note_on,62,36,1680
1,note_on,62,0,60
1,note_on,64,36,0
1,note_on,64,0,60
1,note_on,65,36,0
1,note_on,65,0,60
1,note_on,67,36,0
1,note_on,67,0,60
1,note_on,69,38,0
1,note_on,69,0,120
1,note_on,74,34,120
1,note_on,62,34,0
1,note_on,65,34,0
1,note_on,65,0,120
1,note_on,62,0,0
1,note_on,74,0,0
1,note_on,62,34,120
1,note_on,74,34,0
1,note_on,65,34,0
1,note_on,65,0,120
1,note_on,74,0,0
1,note_on,62,0,0
1,note_on,73,34,120
1,note_on,62,34,0
1,note_on,65,34,0
1,note_on,65,0,120
1,note_on,62,0,0
1,note_on,73,0,0
1,note_on,73,36,120
1,note_on,62,36,0
1,note_on,65,36,0
1,note_on,65,0,120
1,note_on,62,0,0
1,note_on,73,0,0
1,note_on,65,34,120
1,note_on,62,34,0
1,note_on,72,34,0
1,note_on,72,0,120
1,note_on,62,0,0
1,note_on,65,0,0
1,note_on,72,34,120
1,note_on,62,34,0
1,note_on,65,34,0
1,note_on,65,0,120
1,note_on,62,0,0
1,note_on,72,0,0
1,note_on,62,34,120
1,note_on,71,34,0
1,note_on,65,34,0
1,note_on,65,0,120
1,note_on,71,0,0
1,note_on,62,0,0
1,note_on,71,36,120
1,note_on,62,36,0
1,note_on,65,36,0
1,note_on,65,0,120
1,note_on,62,0,0
1,note_on,71,0,0
1,note_on,70,33,120
1,note_on,62,33,0
1,note_on,65,33,0
1,note_on,65,0,120
1,note_on,62,0,0
1,note_on,70,0,0
1,note_on,65,33,120
1,note_on,62,33,0
1,note_on,70,33,0
1,note_on,70,0,120
1,note_on,62,0,0
1,note_on,65,0,0
1,note_on,69,32,120
1,note_on,62,32,0
1,note_on,65,32,0
1,note_on,65,0,120
1,note_on,62,0,0
1,note_on,69,0,0
1,note_on,59,43,120
1,note_on,68,43,0
1,note_on,64,43,0
1,note_on,64,0,120
1,note_on,68,0,0
1,note_on,59,0,0
1,note_on,64,43,120
1,note_on,68,43,0
1,note_on,59,43,0
1,note_on,59,0,480
1,note_on,68,0,0
1,note_on,64,0,0
1,note_on,67,36,0
1,note_on,67,0,60
1,note_on,69,36,0
1,note_on,69,0,60
1,note_on,70,36,0
1,note_on,70,0,60
1,note_on,72,36,0
1,note_on,72,0,60
1,note_on,74,38,0
1,note_on,74,0,120
1,note_on,67,34,120
1,note_on,70,34,0
1,note_on,79,34,0
1,note_on,79,0,120
1,note_on,70,0,0
1,note_on,67,0,0
1,note_on,70,34,120
1,note_on,79,34,0
1,note_on,67,34,0
1,note_on,67,0,120
1,note_on,79,0,0
1,note_on,70,0,0
1,note_on,78,34,120
1,note_on,67,34,0
1,note_on,70,34,0
1,note_on,70,0,120
1,note_on,67,0,0
1,note_on,78,0,0
1,note_on,70,36,120
1,note_on,78,36,0
1,note_on,67,36,0
1,note_on,67,0,120
1,note_on,78,0,0
1,note_on,70,0,0
1,note_on,77,34,120
1,note_on,70,34,0
1,note_on,67,34,0
1,note_on,67,0,120
1,note_on,70,0,0
1,note_on,77,0,0
1,note_on,70,34,120
1,note_on,77,34,0
1,note_on,67,34,0
1,note_on,67,0,120
1,note_on,77,0,0
1,note_on,70,0,0
1,note_on,70,34,120
1,note_on,67,34,0
1,note_on,76,34,0
1,note_on,76,0,120
1,note_on,67,0,0
1,note_on,70,0,0
1,note_on,76,36,120
1,note_on,70,36,0
1,note_on,67,36,0
1,note_on,67,0,120
1,note_on,70,0,0
1,note_on,76,0,0
1,note_on,75,32,120
1,note_on,67,32,0
1,note_on,70,32,0
1,note_on,70,0,120
1,note_on,67,0,0
1,note_on,75,0,0
1,note_on,75,32,120
1,note_on,67,32,0
1,note_on,70,32,0
1,note_on,70,0,120
1,note_on,67,0,0
1,note_on,75,0,0
1,note_on,74,32,120
1,note_on,67,32,0
1,note_on,70,32,0
1,note_on,70,0,120
1,note_on,67,0,0
1,note_on,74,0,0
1,note_on,64,44,120
1,note_on,73,44,0
1,note_on,69,44,0
1,note_on,69,0,120
1,note_on,73,0,0
1,note_on,64,0,0
1,note_on,64,44,120
1,note_on,73,44,0
1,note_on,69,44,0
1,note_on,69,0,480
1,note_on,73,0,0
1,note_on,64,0,0
1,note_on,74,46,240
1,note_on,74,0,60
1,note_on,76,35,0
1,note_on,76,0,60
1,note_on,77,35,0
1,note_on,77,0,60
1,note_on,79,35,0
1,note_on,79,0,60
1,note_on,81,40,0
1,note_on,81,0,120
1,note_on,79,46,120
1,note_on,79,0,60
1,note_on,77,36,0
1,note_on,77,0,60
1,note_on,76,36,0
1,note_on,76,0,60
1,note_on,74,36,0
1,note_on,74,0,60
1,note_on,72,40,0
1,note_on,72,0,120
1,note_on,70,45,120
1,note_on,70,0,60
1,note_on,72,36,0
1,note_on,72,0,60
1,note_on,74,36,0
1,note_on,74,0,60
1,note_on,76,36,0
1,note_on,76,0,60
1,note_on,77,41,0
1,note_on,77,0,120
1,note_on,76,46,120
1,note_on,76,0,60
1,note_on,74,37,0
1,note_on,74,0,60
1,note_on,72,37,0
1,note_on,72,0,60
1,note_on,70,37,0
1,note_on,70,0,60
1,note_on,69,43,0
1,note_on,69,0,120
1,note_on,67,46,120
1,note_on,67,0,60
1,note_on,69,37,0
1,note_on,69,0,60
1,note_on,70,37,0
1,note_on,70,0,60
1,note_on,72,37,0
1,note_on,72,0,60
1,note_on,74,44,0
1,note_on,74,0,120
1,note_on,72,47,120
1,note_on,72,0,60
1,note_on,70,37,0
1,note_on,70,0,60
1,note_on,69,37,0
1,note_on,69,0,60
1,note_on,67,37,0
1,note_on,67,0,60
1,note_on,65,43,0
1,note_on,65,0,120
1,note_on,64,45,360
1,note_on,57,45,0
1,note_on,57,0,720
1,note_on,64,0,0
1,note_on,86,47,0
1,note_on,86,0,60
1,note_on,84,37,0
1,note_on,84,0,60
1,note_on,82,37,0
1,note_on,82,0,60
1,note_on,81,37,0
1,note_on,81,0,60
1,note_on,79,40,0
1,note_on,79,0,120
1,note_on,74,48,120
1,note_on,74,0,60
1,note_on,72,37,0
1,note_on,72,0,60
1,note_on,70,37,0
1,note_on,70,0,60
1,note_on,69,37,0
1,note_on,69,0,60
1,note_on,67,40,0
1,note_on,67,0,120
1,note_on,64,45,360
1,note_on,57,45,0
1,note_on,57,0,720
1,note_on,64,0,0
1,note_on,86,47,0
1,note_on,86,0,60
1,note_on,84,37,0
1,note_on,84,0,60
1,note_on,82,37,0
1,note_on,82,0,60
1,note_on,81,37,0
1,note_on,81,0,60
1,note_on,79,40,0
1,note_on,79,0,120
1,note_on,74,48,120
1,note_on,74,0,60
1,note_on,72,37,0
1,note_on,72,0,60
1,note_on,70,37,0
1,note_on,70,0,60
1,note_on,69,37,0
1,note_on,69,0,60
1,note_on,67,40,0
1,note_on,67,0,120
1,note_on,57,45,360
1,note_on,64,45,0
1,note_on,64,0,240
1,note_on,57,0,0
1,note_on,74,40,0
1,note_on,74,0,60
1,note_on,72,36,0
1,note_on,72,0,60
1,note_on,70,36,0
1,note_on,70,0,60
1,note_on,69,36,0
1,note_on,69,0,60
1,note_on,67,40,0
1,note_on,67,0,120
1,note_on,64,38,360
1,note_on,57,38,0
1,note_on,57,0,240
1,note_on,64,0,0
1,note_on,74,34,0
1,note_on,74,0,60
1,note_on,72,34,0
1,note_on,72,0,60
1,note_on,70,34,0
1,note_on,70,0,60
1,note_on,69,34,0
1,note_on,69,0,60
1,note_on,67,32,0
1,note_on,67,0,120
1,note_on,64,37,360
1,note_on,57,37,0
1,note_on,57,0,240
1,note_on,64,0,0
1,note_on,74,32,0
1,note_on,74,0,60
1,note_on,72,32,0
1,note_on,72,0,60
1,note_on,70,32,0
1,note_on,70,0,60
1,note_on,69,32,0
1,note_on,69,0,60
1,note_on,67,29,0
1,note_on,67,0,120
1,note_on,64,35,360
1,note_on,57,35,0
1,note_on,57,0,240
1,note_on,64,0,0
1,note_on,74,32,0
1,note_on,74,0,60
1,note_on,72,32,0
1,note_on,72,0,60
1,note_on,70,32,0
1,note_on,70,0,60
1,note_on,69,32,0
1,note_on,69,0,60
1,note_on,67,29,0
1,note_on,67,0,120
1,note_on,57,37,360
1,note_on,64,37,0
1,note_on,61,37,0
1,note_on,61,0,120
1,note_on,64,0,0
1,note_on,57,0,0
1,note_on,64,37,360
1,note_on,58,37,0
1,note_on,61,37,0
1,note_on,61,0,120
1,note_on,58,0,0
1,note_on,64,0,0
1,note_on,64,34,360
1,note_on,56,34,0
1,note_on,61,34,0
1,note_on,61,0,120
1,note_on,56,0,0
1,note_on,64,0,0
1,note_on,61,35,360
1,note_on,57,35,0
1,note_on,64,35,0
1,note_on,64,0,120
1,note_on,57,0,0
1,note_on,61,0,0
1,note_on,64,36,360
1,note_on,58,36,0
1,note_on,61,36,0
1,note_on,61,0,120
1,note_on,58,0,0
1,note_on,64,0,0
1,note_on,59,40,360
1,note_on,64,40,0
1,note_on,61,40,0
1,note_on,61,0,120
1,note_on,64,0,0
1,note_on,59,0,0
1,note_on,64,41,360
1,note_on,60,41,0
1,note_on,61,41,0
1,note_on,61,0,120
1,note_on,60,0,0
1,note_on,64,0,0
1,note_on,64,43,360
1,note_on,59,43,0
1,note_on,61,43,0
1,note_on,61,0,120
1,note_on,59,0,0
1,note_on,64,0,0
1,note_on,61,45,360
1,note_on,58,45,0
1,note_on,64,45,0
1,note_on,64,0,120
1,note_on,58,0,0
1,note_on,61,0,0
1,note_on,64,48,360
1,note_on,57,48,0
1,note_on,61,48,0
1,note_on,61,0,120
1,note_on,57,0,0
1,note_on,64,0,0
1,note_on,56,49,360
1,note_on,64,49,0
1,note_on,61,49,0
1,note_on,61,0,120
1,note_on,64,0,0
1,note_on,56,0,0
1,note_on,61,51,360
1,note_on,55,51,0
1,note_on,58,51,0
1,note_on,58,0,120
1,note_on,55,0,0
1,note_on,61,0,0
1,note_on,61,53,360
1,note_on,58,53,0
1,note_on,54,53,0
1,note_on,54,0,120
1,note_on,58,0,0
1,note_on,61,0,0
1,note_on,61,55,360
1,note_on,58,55,0
1,note_on,53,55,0
1,note_on,53,0,120
1,note_on,58,0,0
1,note_on,61,0,0
1,note_on,61,58,360
1,note_on,52,58,0
1,note_on,57,58,0
1,note_on,57,0,120
1,note_on,52,0,0
1,note_on,61,0,0
1,note_on,55,59,360
1,note_on,61,59,0
1,note_on,51,59,0
1,note_on,57,59,0
1,note_on,57,0,120
1,note_on,55,0,0
1,note_on,61,0,0
1,note_on,51,0,0
1,note_on,74,86,1800
1,note_on,74,0,60
1,note_on,76,86,0
1,note_on,76,0,60
1,note_on,77,86,0
1,note_on,77,0,60
1,note_on,79,86,0
1,note_on,79,0,60
1,note_on,81,90,0
1,note_on,81,0,120
1,note_on,86,81,120
1,note_on,74,68,0
1,note_on,77,68,0
1,note_on,77,0,120
1,note_on,74,0,0
1,note_on,86,0,0
1,note_on,86,81,120
1,note_on,74,68,0
1,note_on,77,68,0
1,note_on,77,0,120
1,note_on,74,0,0
1,note_on,86,0,0
1,note_on,77,68,120
1,note_on,74,68,0
1,note_on,85,81,0
1,note_on,85,0,120
1,note_on,74,0,0
1,note_on,77,0,0
1,note_on,85,86,120
1,note_on,74,73,0
1,note_on,77,73,0
1,note_on,77,0,120
1,note_on,74,0,0
1,note_on,85,0,0
1,note_on,74,68,120
1,note_on,84,81,0
1,note_on,77,68,0
1,note_on,77,0,120
1,note_on,84,0,0
1,note_on,74,0,0
1,note_on,84,81,120
1,note_on,74,68,0
1,note_on,77,68,0
1,note_on,77,0,120
1,note_on,74,0,0
1,note_on,84,0,0
1,note_on,83,81,120
1,note_on,74,68,0
1,note_on,77,68,0
1,note_on,77,0,120
1,note_on,74,0,0
1,note_on,83,0,0
1,note_on,77,73,120
1,note_on,74,73,0
1,note_on,83,86,0
1,note_on,83,0,120
1,note_on,74,0,0
1,note_on,77,0,0
1,note_on,77,69,120
1,note_on,74,69,0
1,note_on,82,82,0
1,note_on,82,0,120
1,note_on,74,0,0
1,note_on,77,0,0
1,note_on,82,82,120
1,note_on,77,69,0
1,note_on,74,69,0
1,note_on,74,0,120
1,note_on,77,0,0
1,note_on,82,0,0
1,note_on,81,82,120
1,note_on,74,69,0
1,note_on,77,82,0
1,note_on,77,0,120
1,note_on,74,0,0
1,note_on,81,0,0
1,note_on,76,79,120
1,note_on,71,79,0
1,note_on,80,93,0
1,note_on,80,0,120
1,note_on,71,0,0
1,note_on,76,0,0
1,note_on,80,97,120
1,note_on,71,82,0
1,note_on,76,82,0
1,note_on,76,0,480
1,note_on,71,0,0
1,note_on,80,0,0
1,note_on,79,86,0
1,note_on,79,0,60
1,note_on,81,86,0
1,note_on,81,0,60
1,note_on,82,86,0
1,note_on,82,0,60
1,note_on,84,86,0
1,note_on,84,0,60
1,note_on,86,90,0
1,note_on,86,0,120
1,note_on,79,68,120
1,note_on,82,68,0
1,note_on,91,81,0
1,note_on,91,0,120
1,note_on,82,0,0
1,note_on,79,0,0
1,note_on,82,68,120
1,note_on,91,81,0
1,note_on,79,68,0
1,note_on,79,0,120
1,note_on,91,0,0
1,note_on,82,0,0
1,note_on,90,81,120
1,note_on,79,68,0
1,note_on,82,68,0
1,note_on,82,0,120
1,note_on,79,0,0
1,note_on,90,0,0
1,note_on,82,73,120
1,note_on,90,86,0
1,note_on,79,73,0
1,note_on,79,0,120
1,note_on,90,0,0
1,note_on,82,0,0
1,note_on,89,81,120
1,note_on,82,68,0
1,note_on,79,68,0
1,note_on,79,0,120
1,note_on,82,0,0
1,note_on,89,0,0
1,note_on,82,68,120
1,note_on,89,81,0
1,note_on,79,68,0
1,note_on,79,0,120
1,note_on,89,0,0
1,note_on,82,0,0
1,note_on,82,68,120
1,note_on,79,68,0
1,note_on,88,81,0
1,note_on,88,0,120
1,note_on,79,0,0
1,note_on,82,0,0
1,note_on,88,86,120
1,note_on,79,73,0
1,note_on,82,73,0
1,note_on,82,0,120
1,note_on,79,0,0
1,note_on,88,0,0
1,note_on,82,69,120
1,note_on,87,82,0
1,note_on,79,69,0
1,note_on,79,0,120
1,note_on,87,0,0
1,note_on,82,0,0
1,note_on,87,82,120
1,note_on,79,69,0
1,note_on,82,69,0
1,note_on,82,0,120
1,note_on,79,0,0
1,note_on,87,0,0
1,note_on,82,69,120
1,note_on,86,82,0
1,note_on,79,69,0
1,note_on,79,0,120
1,note_on,86,0,0
1,note_on,82,0,0
1,note_on,81,79,120
1,note_on,76,79,0
1,note_on,85,93,0
1,note_on,85,0,120
1,note_on,76,0,0
1,note_on,81,0,0
1,note_on,85,97,120
1,note_on,81,82,0
1,note_on,76,82,0
1,note_on,76,0,480
1,note_on,81,0,0
1,note_on,85,0,0
1,note_on,86,106,240
1,note_on,86,0,60
1,note_on,88,83,0
1,note_on,88,0,60
1,note_on,89,83,0
1,note_on,89,0,60
1,note_on,91,83,0
1,note_on,91,0,60
1,note_on,93,83,0
1,note_on,93,0,120
1,note_on,91,104,120
1,note_on,91,0,60
1,note_on,89,84,0
1,note_on,89,0,60
1,note_on,88,84,0
1,note_on,88,0,60
1,note_on,86,84,0
1,note_on,86,0,60
1,note_on,84,85,0
1,note_on,84,0,120
1,note_on,82,104,120
1,note_on,82,0,60
1,note_on,84,84,0
1,note_on,84,0,60
1,note_on,86,84,0
1,note_on,86,0,60
1,note_on,88,84,0
1,note_on,88,0,60
1,note_on,89,84,0
1,note_on,89,0,120
1,note_on,88,104,120
1,note_on,88,0,60
1,note_on,86,84,0
1,note_on,86,0,60
1,note_on,84,84,0
1,note_on,84,0,60
1,note_on,82,84,0
1,note_on,82,0,60
1,note_on,81,84,0
1,note_on,81,0,120
1,note_on,79,104,120
1,note_on,79,0,60
1,note_on,81,86,0
1,note_on,81,0,60
1,note_on,82,86,0
1,note_on,82,0,60
1,note_on,84,86,0
1,note_on,84,0,60
1,note_on,86,86,0
1,note_on,86,0,120
1,note_on,84,104,120
1,note_on,84,0,60
1,note_on,82,86,0
1,note_on,82,0,60
1,note_on,81,85,0
1,note_on,81,0,60
1,note_on,79,85,0
1,note_on,79,0,60
1,note_on,77,85,0
1,note_on,77,0,120
1,note_on,76,94,120
1,note_on,81,94,0
1,note_on,88,94,0
1,note_on,88,0,120
1,note_on,81,0,0
1,note_on,76,0,0
1,note_on,76,94,120
1,note_on,88,94,0
1,note_on,81,94,0
1,note_on,81,0,480
1,note_on,88,0,0
1,note_on,76,0,0
1,note_on,82,92,240
1,note_on,82,0,60
1,note_on,84,83,0
1,note_on,84,0,60
1,note_on,86,83,0
1,note_on,86,0,60
1,note_on,88,83,0
1,note_on,88,0,60
1,note_on,89,83,0
1,note_on,89,0,120
1,note_on,88,92,120
1,note_on,88,0,60
1,note_on,86,84,0
1,note_on,86,0,60
1,note_on,84,84,0
1,note_on,84,0,60
1,note_on,82,84,0
1,note_on,82,0,60
1,note_on,81,85,0
1,note_on,81,0,120
1,note_on,79,92,120
1,note_on,79,0,60
1,note_on,81,84,0
1,note_on,81,0,60
1,note_on,82,84,0
1,note_on,82,0,60
1,note_on,84,84,0
1,note_on,84,0,60
1,note_on,86,84,0
1,note_on,86,0,120
1,note_on,84,92,120
1,note_on,84,0,60
1,note_on,82,84,0
1,note_on,82,0,60
1,note_on,81,84,0
1,note_on,81,0,60
1,note_on,79,84,0
1,note_on,79,0,60
1,note_on,77,84,0
1,note_on,77,0,120
1,note_on,75,94,120
1,note_on,75,0,60
1,note_on,77,83,0
1,note_on,77,0,60
1,note_on,79,83,0
1,note_on,79,0,60
1,note_on,81,83,0
1,note_on,81,0,60
1,note_on,82,83,0
1,note_on,82,0,120
1,note_on,81,92,120
1,note_on,81,0,60
1,note_on,79,83,0
1,note_on,79,0,60
1,note_on,77,83,0
1,note_on,77,0,60
1,note_on,75,83,0
1,note_on,75,0,60
1,note_on,74,83,0
1,note_on,74,0,120
1,note_on,69,86,120
1,note_on,81,86,0
1,note_on,76,86,0
1,note_on,76,0,120
1,note_on,81,0,0
1,note_on,69,0,0
1,note_on,76,86,120
1,note_on,81,86,0
1,note_on,69,86,0
1,note_on,69,0,480
1,note_on,81,0,0
1,note_on,76,0,0
1,note_on,74,75,240
1,note_on,74,0,60
1,note_on,76,66,0
1,note_on,76,0,60
1,note_on,77,66,0
1,note_on,77,0,60
1,note_on,79,66,0
1,note_on,79,0,60
1,note_on,81,66,0
1,note_on,81,0,120
1,note_on,79,77,120
1,note_on,79,0,60
1,note_on,77,65,0
1,note_on,77,0,60
1,note_on,76,65,0
1,note_on,76,0,60
1,note_on,74,65,0
1,note_on,74,0,60
1,note_on,72,65,0
1,note_on,72,0,120
1,note_on,70,73,120
1,note_on,70,0,60
1,note_on,72,65,0
1,note_on,72,0,60
1,note_on,74,64,0
1,note_on,74,0,60
1,note_on,76,64,0
1,note_on,76,0,60
1,note_on,77,64,0
1,note_on,77,0,120
1,note_on,76,72,120
1,note_on,76,0,60
1,note_on,74,64,0
1,note_on,74,0,60
1,note_on,72,63,0
1,note_on,72,0,60
1,note_on,70,63,0
1,note_on,70,0,60
1,note_on,69,63,0
1,note_on,69,0,120
1,note_on,67,71,120
1,note_on,67,0,60
1,note_on,69,63,0
1,note_on,69,0,60
1,note_on,70,63,0
1,note_on,70,0,60
1,note_on,72,62,0
1,note_on,72,0,60
1,note_on,74,62,0
1,note_on,74,0,120
1,note_on,72,71,120
1,note_on,72,0,60
1,note_on,70,62,0
1,note_on,70,0,60
1,note_on,69,62,0
1,note_on,69,0,60
1,note_on,67,60,0
1,note_on,67,0,60
1,note_on,65,60,0
1,note_on,65,0,120
1,note_on,64,60,120
1,note_on,76,71,0
1,note_on,69,60,0
1,note_on,69,0,120
1,note_on,76,0,0
1,note_on,64,0,0
1,note_on,69,61,120
1,note_on,64,61,0
1,note_on,76,72,0
1,note_on,76,0,480
1,note_on,64,0,0
1,note_on,69,0,0
1,note_on,70,58,240
1,note_on,70,0,60
1,note_on,72,54,0
1,note_on,72,0,60
1,note_on,74,54,0
1,note_on,74,0,60
1,note_on,76,54,0
1,note_on,76,0,60
1,note_on,77,54,0
1,note_on,77,0,120
1,note_on,76,60,120
1,note_on,76,0,60
1,note_on,74,54,0
1,note_on,74,0,60
1,note_on,72,54,0
1,note_on,72,0,60
1,note_on,70,54,0
1,note_on,70,0,60
1,note_on,69,55,0
1,note_on,69,0,120
1,note_on,67,59,120
1,note_on,67,0,60
1,note_on,69,54,0
1,note_on,69,0,60
1,note_on,70,54,0
1,note_on,70,0,60
1,note_on,72,54,0
1,note_on,72,0,60
1,note_on,74,52,0
1,note_on,74,0,120
1,note_on,72,56,120
1,note_on,72,0,60
1,note_on,70,52,0
1,note_on,70,0,60
1,note_on,69,52,0
1,note_on,69,0,60
1,note_on,67,52,0
1,note_on,67,0,60
1,note_on,65,52,0
1,note_on,65,0,120
1,note_on,63,56,120
1,note_on,63,0,60
1,note_on,65,51,0
1,note_on,65,0,60
1,note_on,67,51,0
1,note_on,67,0,60
1,note_on,69,51,0
1,note_on,69,0,60
1,note_on,70,51,0
1,note_on,70,0,120
1,note_on,69,55,120
1,note_on,69,0,60
1,note_on,67,50,0
1,note_on,67,0,60
1,note_on,65,50,0
1,note_on,65,0,60
1,note_on,63,50,0
1,note_on,63,0,60
1,note_on,62,50,0
1,note_on,62,0,120
1,note_on,57,43,120
1,note_on,64,43,0
1,note_on,69,51,0
1,note_on,69,0,120
1,note_on,64,0,0
1,note_on,57,0,0
1,note_on,57,44,120
1,note_on,69,52,0
1,note_on,64,44,0
1,note_on,64,0,480
1,note_on,69,0,0
1,note_on,57,0,0
1,note_on,86,59,240
1,note_on,86,0,60
1,note_on,84,47,0
1,note_on,84,0,60
1,note_on,82,47,0
1,note_on,82,0,60
1,note_on,81,47,0
1,note_on,81,0,60
1,note_on,79,51,0
1,note_on,79,0,120
1,note_on,74,60,120
1,note_on,74,0,60
1,note_on,72,47,0
1,note_on,72,0,60
1,note_on,70,47,0
1,note_on,70,0,60
1,note_on,69,47,0
1,note_on,69,0,60
1,note_on,67,51,0
1,note_on,67,0,120
1,note_on,69,51,360
1,note_on,57,43,0
1,note_on,64,43,0
1,note_on,64,0,720
1,note_on,57,0,0
1,note_on,69,0,0
1,note_on,86,59,0
1,note_on,86,0,60
1,note_on,84,47,0
1,note_on,84,0,60
1,note_on,82,47,0
1,note_on,82,0,60
1,note_on,81,47,0
1,note_on,81,0,60
1,note_on,79,51,0
1,note_on,79,0,120
1,note_on,74,60,120
1,note_on,74,0,60
1,note_on,72,47,0
1,note_on,72,0,60
1,note_on,70,47,0
1,note_on,70,0,60
1,note_on,69,47,0
1,note_on,69,0,60
1,note_on,67,51,0
1,note_on,67,0,120
1,note_on,69,43,360
1,note_on,64,36,0
1,note_on,57,36,0
1,note_on,57,0,120
1,note_on,64,0,0
1,note_on,69,0,0
1,note_on,74,51,120
1,note_on,74,0,60
1,note_on,72,46,0
1,note_on,72,0,60
1,note_on,70,46,0
1,note_on,70,0,60
1,note_on,69,46,0
1,note_on,69,0,60
1,note_on,67,50,0
1,note_on,67,0,120
1,note_on,69,43,360
1,note_on,64,36,0
1,note_on,57,36,0
1,note_on,57,0,120
1,note_on,64,0,0
1,note_on,69,0,0
1,note_on,74,42,120
1,note_on,74,0,60
1,note_on,72,42,0
1,note_on,72,0,60
1,note_on,70,42,0
1,note_on,70,0,60
1,note_on,69,42,0
1,note_on,69,0,60
1,note_on,67,40,0
1,note_on,67,0,120
1,note_on,57,34,360
1,note_on,69,40,0
1,note_on,64,34,0
1,note_on,64,0,120
1,note_on,69,0,0
1,note_on,57,0,0
1,note_on,74,40,120
1,note_on,74,0,60
1,note_on,72,40,0
1,note_on,72,0,60
1,note_on,70,40,0
1,note_on,70,0,60
1,note_on,69,39,0
1,note_on,69,0,60
1,note_on,67,36,0
1,note_on,67,0,120
1,note_on,57,30,360
1,note_on,64,30,0
1,note_on,69,36,0
1,note_on,69,0,120
1,note_on,64,0,0
1,note_on,57,0,0
1,note_on,74,37,120
1,note_on,74,0,60
1,note_on,72,37,0
1,note_on,72,0,60
1,note_on,70,37,0
1,note_on,70,0,60
1,note_on,69,37,0
1,note_on,69,0,60
1,note_on,67,35,0
1,note_on,67,0,120
1,note_on,50,46,840
1,note_on,50,0,60
1,note_on,52,46,0
1,note_on,52,0,60
1,note_on,53,46,0
1,note_on,53,0,60
1,note_on,55,46,0
1,note_on,55,0,60
1,note_on,57,50,0
1,note_on,57,0,120
1,note_on,53,36,120
1,note_on,50,36,0
1,note_on,62,43,0
1,note_on,62,0,120
1,note_on,50,0,0
1,note_on,53,0,0
1,note_on,50,36,120
1,note_on,53,36,0
1,note_on,62,43,0
1,note_on,62,0,120
1,note_on,53,0,0
1,note_on,50,0,0
1,note_on,50,36,120
1,note_on,61,43,0
1,note_on,53,36,0
1,note_on,53,0,120
1,note_on,61,0,0
1,note_on,50,0,0
1,note_on,50,39,120
1,note_on,61,46,0
1,note_on,53,39,0
1,note_on,53,0,120
1,note_on,61,0,0
1,note_on,50,0,0
1,note_on,53,36,120
1,note_on,50,36,0
1,note_on,60,43,0
1,note_on,60,0,120
1,note_on,50,0,0
1,note_on,53,0,0
1,note_on,53,36,120
1,note_on,50,36,0
1,note_on,60,43,0
1,note_on,60,0,120
1,note_on,50,0,0
1,note_on,53,0,0
1,note_on,50,36,120
1,note_on,53,36,0
1,note_on,59,43,0
1,note_on,59,0,120
1,note_on,53,0,0
1,note_on,50,0,0
1,note_on,50,39,120
1,note_on,59,46,0
1,note_on,53,39,0
1,note_on,53,0,120
1,note_on,59,0,0
1,note_on,50,0,0
1,note_on,50,35,120
1,note_on,58,42,0
1,note_on,53,35,0
1,note_on,53,0,120
1,note_on,58,0,0
1,note_on,50,0,0
1,note_on,53,35,120
1,note_on,50,35,0
1,note_on,58,42,0
1,note_on,58,0,120
1,note_on,50,0,0
1,note_on,53,0,0
1,note_on,53,34,120
1,note_on,57,41,0
1,note_on,50,34,0
1,note_on,50,0,1200
1,note_on,57,0,0
1,note_on,53,0,0
1,note_on,62,40,960
1,note_on,62,0,120
1,note_on,69,39,120
1,note_on,69,0,120
1,note_on,74,36,120
1,note_on,74,0,120
1,note_on,81,42,120
1,note_on,74,27,0
1,note_on,78,27,0
1,note_on,81,0,480
1,note_on,83,48,0
1,note_on,83,0,240
1,note_on,85,48,0
1,note_on,85,0,240
1,note_on,78,0,0
1,note_on,74,0,0
1,note_on,74,27,0
1,note_on,86,52,0
1,note_on,86,0,480
1,note_on,85,48,0
1,note_on,85,0,240
1,note_on,83,48,0
1,note_on,83,0,240
1,note_on,74,0,0
1,note_on,74,26,0
1,note_on,78,26,0
1,note_on,85,50,0
1,note_on,85,0,240
1,note_on,81,48,0
1,note_on,81,0,480
1,note_on,85,46,0
1,note_on,85,0,180
1,note_on,85,39,0
1,note_on,85,0,60
1,note_on,78,0,0
1,note_on,74,0,0
1,note_on,74,23,0
1,note_on,78,42,0
1,note_on,78,0,960
1,note_on,74,0,0
1,note_on,81,48,0
1,note_on,74,27,0
1,note_on,78,27,0
1,note_on,81,0,480
1,note_on,83,48,0
1,note_on,83,0,240
1,note_on,85,48,0
1,note_on,85,0,240
1,note_on,78,0,0
1,note_on,74,0,0
1,note_on,74,27,0
1,note_on,86,52,0
1,note_on,86,0,480
1,note_on,85,48,0
1,note_on,85,0,240
1,note_on,83,48,0
1,note_on,83,0,240
1,note_on,74,0,0
1,note_on,74,26,0
1,note_on,85,50,0
1,note_on,85,0,240
1,note_on,78,48,0
1,note_on,78,0,480
1,note_on,85,46,0
1,note_on,85,0,180
1,note_on,85,39,0
1,note_on,85,0,60
1,note_on,74,0,0
1,note_on,73,23,0
1,note_on,81,42,0
1,note_on,81,0,960
1,note_on,73,0,0
1,note_on,69,42,0
1,note_on,62,27,240
1,note_on,66,27,0
1,note_on,69,0,240
1,note_on,71,42,0
1,note_on,71,0,240
1,note_on,73,42,0
1,note_on,73,0,240
1,note_on,66,0,0
1,note_on,62,0,0
1,note_on,74,47,0
1,note_on,62,27,240
1,note_on,74,0,240
1,note_on,73,42,0
1,note_on,73,0,240
1,note_on,71,42,0
1,note_on,71,0,240
1,note_on,62,0,0
1,note_on,73,44,0
1,note_on,73,0,240
1,note_on,66,26,0
1,note_on,62,26,0
1,note_on,69,42,240
1,note_on,69,0,240
1,note_on,73,41,0
1,note_on,73,0,180
1,note_on,73,34,0
1,note_on,73,0,60
1,note_on,62,0,0
1,note_on,66,0,0
1,note_on,66,37,0
1,note_on,62,23,240
1,note_on,62,0,720
1,note_on,66,0,0
1,note_on,69,42,0
1,note_on,62,27,240
1,note_on,66,27,0
1,note_on,69,0,240
1,note_on,71,42,0
1,note_on,71,0,240
1,note_on,73,42,0
1,note_on,73,0,240
1,note_on,66,0,0
1,note_on,62,0,0
1,note_on,74,47,0
1,note_on,62,27,240
1,note_on,74,0,240
1,note_on,73,44,0
1,note_on,73,0,240
1,note_on,71,46,0
1,note_on,71,0,240
1,note_on,62,0,0
1,note_on,73,51,0
1,note_on,62,35,240
1,note_on,73,0,240
1,note_on,66,42,0
1,note_on,66,0,240
1,note_on,73,41,0
1,note_on,73,0,180
1,note_on,73,34,0
1,note_on,73,0,60
1,note_on,62,0,0
1,note_on,69,37,0
1,note_on,61,23,240
1,note_on,61,0,720
1,note_on,69,0,0
1,note_on,76,35,240
1,note_on,76,0,80
1,note_on,79,35,0
1,note_on,79,0,80
1,note_on,88,35,0
1,note_on,88,0,80
1,note_on,83,41,0
1,note_on,83,0,480
1,note_on,76,35,240
1,note_on,76,0,80
1,note_on,79,35,0
1,note_on,79,0,80
1,note_on,88,35,0
1,note_on,88,0,80
1,note_on,83,41,0
1,note_on,83,0,480
1,note_on,67,40,240
1,note_on,67,0,120
1,note_on,73,36,0
1,note_on,73,0,120
1,note_on,71,40,0
1,note_on,71,0,120
1,note_on,76,36,0
1,note_on,76,0,120
1,note_on,74,40,0
1,note_on,74,0,120
1,note_on,79,36,0
1,note_on,79,0,120
1,note_on,76,39,0
1,note_on,76,0,120
1,note_on,81,36,0
1,note_on,81,0,120
1,note_on,79,39,0
1,note_on,79,0,120
1,note_on,85,35,0
1,note_on,85,0,120
1,note_on,83,39,0
1,note_on,83,0,120
1,note_on,88,36,0
1,note_on,88,0,120
1,note_on,72,35,480
1,note_on,75,35,77
1,note_on,72,0,3
1,note_on,75,0,77
1,note_on,84,35,3
1,note_on,84,0,80
1,note_on,79,40,0
1,note_on,79,0,480
1,note_on,72,35,240
1,note_on,72,0,80
1,note_on,75,35,0
1,note_on,75,0,80
1,note_on,84,35,0
1,note_on,84,0,80
1,note_on,79,40,0
1,note_on,79,0,480
1,note_on,63,40,240
1,note_on,63,0,120
1,note_on,69,36,0
1,note_on,69,0,120
1,note_on,67,40,0
1,note_on,67,0,120
1,note_on,72,36,0
1,note_on,72,0,120
1,note_on,70,40,0
1,note_on,70,0,120
1,note_on,75,36,0
1,note_on,75,0,120
1,note_on,72,39,0
1,note_on,72,0,120
1,note_on,77,36,0
1,note_on,77,0,120
1,note_on,75,39,0
1,note_on,75,0,120
1,note_on,81,35,0
1,note_on,81,0,120
1,note_on,79,39,0
1,note_on,79,0,120
1,note_on,84,36,0
1,note_on,84,0,120
1,note_on,60,33,480
1,note_on,60,0,120
1,note_on,66,31,0
1,note_on,66,0,120
1,note_on,64,33,0
1,note_on,64,0,120
1,note_on,69,31,0
1,note_on,69,0,120
1,note_on,67,33,0
1,note_on,67,0,120
1,note_on,72,31,0
1,note_on,72,0,120
1,note_on,69,32,0
1,note_on,69,0,120
1,note_on,74,29,0
1,note_on,74,0,120
1,note_on,72,31,0
1,note_on,72,0,120
1,note_on,78,27,0
1,note_on,78,0,120
1,note_on,76,29,0
1,note_on,76,0,120
1,note_on,81,25,0
1,note_on,81,0,120
1,note_on,79,24,0
1,note_on,83,24,0
1,note_on,86,44,0
1,note_on,86,0,480
1,note_on,88,42,0
1,note_on,88,0,240
1,note_on,90,42,0
1,note_on,90,0,240
1,note_on,83,0,0
1,note_on,79,0,0
1,note_on,79,24,0
1,note_on,91,47,0
1,note_on,91,0,480
1,note_on,90,42,0
1,note_on,90,0,240
1,note_on,88,42,0
1,note_on,88,0,240
1,note_on,79,0,0
1,note_on,79,23,0
1,note_on,83,23,0
1,note_on,90,44,0
1,note_on,90,0,240
1,note_on,86,42,0
1,note_on,86,0,480
1,note_on,90,41,0
1,note_on,90,0,180
1,note_on,90,34,0
1,note_on,90,0,60
1,note_on,83,0,0
1,note_on,79,0,0
1,note_on,79,20,0
1,note_on,83,37,0
1,note_on,83,0,960
1,note_on,79,0,0
1,note_on,86,42,0
1,note_on,79,24,0
1,note_on,83,24,0
1,note_on,86,0,480
1,note_on,88,42,0
1,note_on,88,0,240
1,note_on,90,42,0
1,note_on,90,0,240
1,note_on,83,0,0
1,note_on,79,0,0
1,note_on,79,24,0
1,note_on,91,47,0
1,note_on,91,0,480
1,note_on,90,42,0
1,note_on,90,0,240
1,note_on,88,42,0
1,note_on,88,0,240
1,note_on,79,0,0
1,note_on,79,23,0
1,note_on,90,44,0
1,note_on,90,0,240
1,note_on,83,42,0
1,note_on,83,0,480
1,note_on,90,41,0
1,note_on,90,0,180
1,note_on,90,34,0
1,note_on,90,0,60
1,note_on,79,0,0
1,note_on,78,20,0
1,note_on,86,37,0
1,note_on,86,0,960
1,note_on,78,0,0
1,note_on,74,41,0
1,note_on,71,26,240
1,note_on,67,26,0
1,note_on,74,0,240
1,note_on,76,41,0
1,note_on,76,0,240
1,note_on,78,41,0
1,note_on,78,0,240
1,note_on,67,0,0
1,note_on,71,0,0
1,note_on,79,44,0
1,note_on,67,26,240
1,note_on,79,0,240
1,note_on,78,41,0
1,note_on,78,0,240
1,note_on,76,41,0
1,note_on,76,0,240
1,note_on,67,0,0
1,note_on,78,43,0
1,note_on,78,0,240
1,note_on,67,25,0
1,note_on,71,25,0
1,note_on,74,41,240
1,note_on,74,0,240
1,note_on,78,40,0
1,note_on,78,0,180
1,note_on,78,33,0
1,note_on,78,0,60
1,note_on,71,0,0
1,note_on,67,0,0
1,note_on,71,35,0
1,note_on,67,21,240
1,note_on,67,0,720
1,note_on,71,0,0
1,note_on,74,43,0
1,note_on,67,26,240
1,note_on,71,26,0
1,note_on,74,0,240
1,note_on,76,43,0
1,note_on,76,0,240
1,note_on,78,43,0
1,note_on,78,0,240
1,note_on,71,0,0
1,note_on,67,0,0
1,note_on,79,47,0
1,note_on,67,26,240
1,note_on,79,0,240
1,note_on,78,42,0
1,note_on,78,0,240
1,note_on,76,44,0
1,note_on,76,0,240
1,note_on,67,0,0
1,note_on,78,50,0
1,note_on,67,33,240
1,note_on,78,0,240
1,note_on,71,41,0
1,note_on,71,0,240
1,note_on,78,40,0
1,note_on,78,0,180
1,note_on,78,33,0
1,note_on,78,0,60
1,note_on,67,0,0
1,note_on,74,35,0
1,note_on,66,21,240
1,note_on,66,0,720
1,note_on,74,0,0
1,note_on,81,35,240
1,note_on,81,0,80
1,note_on,84,35,0
1,note_on,84,0,80
1,note_on,93,35,0
1,note_on,93,0,80
1,note_on,88,41,0
1,note_on,88,0,480
1,note_on,79,40,240
1,note_on,79,0,120
1,note_on,86,36,0
1,note_on,86,0,120
1,note_on,83,40,0
1,note_on,83,0,120
1,note_on,91,36,0
1,note_on,91,0,120
1,note_on,86,40,0
1,note_on,86,0,120
1,note_on,95,36,0
1,note_on,95,0,120
1,note_on,76,35,240
1,note_on,76,0,80
1,note_on,79,35,0
1,note_on,79,0,80
1,note_on,88,35,0
1,note_on,88,0,80
1,note_on,83,41,0
1,note_on,83,0,480
1,note_on,78,40,240
1,note_on,78,0,120
1,note_on,86,36,0
1,note_on,86,0,120
1,note_on,81,40,0
1,note_on,81,0,120
1,note_on,90,36,0
1,note_on,90,0,120
1,note_on,86,40,0
1,note_on,86,0,120
1,note_on,93,36,0
1,note_on,93,0,120
1,note_on,69,35,240
1,note_on,69,0,80
1,note_on,72,35,0
1,note_on,72,0,80
1,note_on,81,34,0
1,note_on,81,0,80
1,note_on,76,40,0
1,note_on,76,0,480
1,note_on,71,37,240
1,note_on,71,0,120
1,note_on,74,35,0
1,note_on,74,0,120
1,note_on,71,37,0
1,note_on,71,0,120
1,note_on,79,34,0
1,note_on,79,0,120
1,note_on,74,37,0
1,note_on,74,0,120
1,note_on,83,34,0
1,note_on,83,0,120
1,note_on,64,33,240
1,note_on,64,0,80
1,note_on,67,33,0
1,note_on,67,0,80
1,note_on,76,33,0
1,note_on,76,0,80
1,note_on,71,39,0
1,note_on,71,0,480
1,note_on,66,37,240
1,note_on,66,0,120
1,note_on,74,35,0
1,note_on,74,0,120
1,note_on,69,39,0
1,note_on,69,0,120
1,note_on,78,35,0
1,note_on,78,0,120
1,note_on,74,39,0
1,note_on,74,0,120
1,note_on,81,35,0
1,note_on,81,0,120
1,note_on,62,36,1680
1,note_on,62,0,60
1,note_on,64,36,0
1,note_on,64,0,60
1,note_on,65,36,0
1,note_on,65,0,60
1,note_on,67,36,0
1,note_on,67,0,60
1,note_on,69,38,0
1,note_on,69,0,120
1,note_on,62,34,120
1,note_on,65,34,0
1,note_on,74,34,0
1,note_on,74,0,120
1,note_on,65,0,0
1,note_on,62,0,0
1,note_on,62,34,120
1,note_on,74,34,0
1,note_on,65,34,0
1,note_on,65,0,120
1,note_on,74,0,0
1,note_on,62,0,0
1,note_on,62,34,120
1,note_on,73,34,0
1,note_on,65,34,0
1,note_on,65,0,120
1,note_on,73,0,0
1,note_on,62,0,0
1,note_on,65,36,120
1,note_on,73,36,0
1,note_on,62,36,0
1,note_on,62,0,120
1,note_on,73,0,0
1,note_on,65,0,0
1,note_on,62,34,120
1,note_on,72,34,0
1,note_on,65,34,0
1,note_on,65,0,120
1,note_on,72,0,0
1,note_on,62,0,0
1,note_on,65,34,120
1,note_on,62,34,0
1,note_on,72,34,0
1,note_on,72,0,120
1,note_on,62,0,0
1,note_on,65,0,0
1,note_on,65,34,120
1,note_on,62,34,0
1,note_on,71,34,0
1,note_on,71,0,120
1,note_on,62,0,0
1,note_on,65,0,0
1,note_on,62,36,120
1,note_on,65,36,0
1,note_on,71,36,0
1,note_on,71,0,120
1,note_on,65,0,0
1,note_on,62,0,0
1,note_on,62,33,120
1,note_on,70,33,0
1,note_on,65,33,0
1,note_on,65,0,120
1,note_on,70,0,0
1,note_on,62,0,0
1,note_on,62,33,120
1,note_on,70,33,0
1,note_on,65,33,0
1,note_on,65,0,120
1,note_on,70,0,0
1,note_on,62,0,0
1,note_on,65,32,120
1,note_on,62,32,0
1,note_on,69,32,0
1,note_on,69,0,120
1,note_on,62,0,0
1,note_on,65,0,0
1,note_on,64,43,120
1,note_on,59,43,0
1,note_on,68,43,0
1,note_on,68,0,120
1,note_on,59,0,0
1,note_on,64,0,0
1,note_on,59,43,120
1,note_on,64,43,0
1,note_on,68,43,0
1,note_on,68,0,480
1,note_on,64,0,0
1,note_on,59,0,0
1,note_on,67,36,0
1,note_on,67,0,60
1,note_on,69,36,0
1,note_on,69,0,60
1,note_on,70,36,0
1,note_on,70,0,60
1,note_on,72,36,0
1,note_on,72,0,60
1,note_on,74,38,0
1,note_on,74,0,120
1,note_on,67,34,120
1,note_on,70,34,0
1,note_on,79,34,0
1,note_on,79,0,120
1,note_on,70,0,0
1,note_on,67,0,0
1,note_on,79,34,120
1,note_on,70,34,0
1,note_on,67,34,0
1,note_on,67,0,120
1,note_on,70,0,0
1,note_on,79,0,0
1,note_on,70,34,120
1,note_on,78,34,0
1,note_on,67,34,0
1,note_on,67,0,120
1,note_on,78,0,0
1,note_on,70,0,0
1,note_on,70,36,120
1,note_on,78,36,0
1,note_on,67,36,0
1,note_on,67,0,120
1,note_on,78,0,0
1,note_on,70,0,0
1,note_on,67,34,120
1,note_on,70,34,0
1,note_on,77,34,0
1,note_on,77,0,120
1,note_on,70,0,0
1,note_on,67,0,0
1,note_on,70,34,120
1,note_on,67,34,0
1,note_on,77,34,0
1,note_on,77,0,120
1,note_on,67,0,0
1,note_on,70,0,0
1,note_on,67,34,120
1,note_on,70,34,0
1,note_on,76,34,0
1,note_on,76,0,120
1,note_on,70,0,0
1,note_on,67,0,0
1,note_on,70,36,120
1,note_on,76,36,0
1,note_on,67,36,0
1,note_on,67,0,120
1,note_on,76,0,0
1,note_on,70,0,0
1,note_on,75,32,120
1,note_on,67,32,0
1,note_on,70,32,0
1,note_on,70,0,120
1,note_on,67,0,0
1,note_on,75,0,0
1,note_on,70,32,120
1,note_on,67,32,0
1,note_on,75,32,0
1,note_on,75,0,120
1,note_on,67,0,0
1,note_on,70,0,0
1,note_on,74,32,120
1,note_on,70,32,0
1,note_on,67,32,0
1,note_on,67,0,120
1,note_on,70,0,0
1,note_on,74,0,0
1,note_on,64,44,120
1,note_on,69,44,0
1,note_on,73,44,0
1,note_on,73,0,120
1,note_on,69,0,0
1,note_on,64,0,0
1,note_on,73,44,120
1,note_on,69,44,0
1,note_on,64,44,0
1,note_on,64,0,480
1,note_on,69,0,0
1,note_on,73,0,0
1,note_on,74,46,240
1,note_on,74,0,60
1,note_on,76,35,0
1,note_on,76,0,60
1,note_on,77,35,0
1,note_on,77,0,60
1,note_on,79,35,0
1,note_on,79,0,60
1,note_on,81,40,0
1,note_on,81,0,120
1,note_on,79,46,120
1,note_on,79,0,60
1,note_on,77,36,0
1,note_on,77,0,60
1,note_on,76,36,0
1,note_on,76,0,60
1,note_on,74,36,0
1,note_on,74,0,60
1,note_on,72,40,0
1,note_on,72,0,120
1,note_on,70,45,120
1,note_on,70,0,60
1,note_on,72,36,0
1,note_on,72,0,60
1,note_on,74,36,0
1,note_on,74,0,60
1,note_on,76,36,0
1,note_on,76,0,60
1,note_on,77,41,0
1,note_on,77,0,120
1,note_on,76,46,120
1,note_on,76,0,60
1,note_on,74,37,0
1,note_on,74,0,60
1,note_on,72,37,0
1,note_on,72,0,60
1,note_on,70,37,0
1,note_on,70,0,60
1,note_on,69,43,0
1,note_on,69,0,120
1,note_on,67,46,120
1,note_on,67,0,60
1,note_on,69,37,0
1,note_on,69,0,60
1,note_on,70,37,0
1,note_on,70,0,60
1,note_on,72,37,0
1,note_on,72,0,60
1,note_on,74,44,0
1,note_on,74,0,120
1,note_on,72,47,120
1,note_on,72,0,60
1,note_on,70,37,0
1,note_on,70,0,60
1,note_on,69,37,0
1,note_on,69,0,60
1,note_on,67,37,0
1,note_on,67,0,60
1,note_on,65,43,0
1,note_on,65,0,120
1,note_on,57,45,360
1,note_on,64,45,0
1,note_on,64,0,720
1,note_on,57,0,0
1,note_on,86,47,0
1,note_on,86,0,60
1,note_on,84,37,0
1,note_on,84,0,60
1,note_on,82,37,0
1,note_on,82,0,60
1,note_on,81,37,0
1,note_on,81,0,60
1,note_on,79,40,0
1,note_on,79,0,120
1,note_on,74,48,120
1,note_on,74,0,60
1,note_on,72,37,0
1,note_on,72,0,60
1,note_on,70,37,0
1,note_on,70,0,60
1,note_on,69,37,0
1,note_on,69,0,60
1,note_on,67,40,0
1,note_on,67,0,120
1,note_on,57,45,360
1,note_on,64,45,0
1,note_on,64,0,720
1,note_on,57,0,0
1,note_on,86,47,0
1,note_on,86,0,60
1,note_on,84,37,0
1,note_on,84,0,60
1,note_on,82,37,0
1,note_on,82,0,60
1,note_on,81,37,0
1,note_on,81,0,60
1,note_on,79,40,0
1,note_on,79,0,120
1,note_on,74,48,120
1,note_on,74,0,60
1,note_on,72,37,0
1,note_on,72,0,60
1,note_on,70,37,0
1,note_on,70,0,60
1,note_on,69,37,0
1,note_on,69,0,60
1,note_on,67,40,0
1,note_on,67,0,120
1,note_on,57,45,360
1,note_on,64,45,0
1,note_on,64,0,240
1,note_on,57,0,0
1,note_on,74,40,0
1,note_on,74,0,60
1,note_on,72,36,0
1,note_on,72,0,60
1,note_on,70,36,0
1,note_on,70,0,60
1,note_on,69,36,0
1,note_on,69,0,60
1,note_on,67,40,0
1,note_on,67,0,120
1,note_on,64,38,360
1,note_on,57,38,0
1,note_on,57,0,240
1,note_on,64,0,0
1,note_on,74,34,0
1,note_on,74,0,60
1,note_on,72,34,0
1,note_on,72,0,60
1,note_on,70,34,0
1,note_on,70,0,60
1,note_on,69,34,0
1,note_on,69,0,60
1,note_on,67,32,0
1,note_on,67,0,120
1,note_on,64,37,360
1,note_on,57,37,0
1,note_on,57,0,240
1,note_on,64,0,0
1,note_on,74,32,0
1,note_on,74,0,60
1,note_on,72,32,0
1,note_on,72,0,60
1,note_on,70,32,0
1,note_on,70,0,60
1,note_on,69,32,0
1,note_on,69,0,60
1,note_on,67,29,0
1,note_on,67,0,120
1,note_on,57,35,360
1,note_on,64,35,0
1,note_on,64,0,240
1,note_on,57,0,0
1,note_on,74,32,0
1,note_on,74,0,60
1,note_on,72,32,0
1,note_on,72,0,60
1,note_on,70,32,0
1,note_on,70,0,60
1,note_on,69,32,0
1,note_on,69,0,60
1,note_on,67,29,0
1,note_on,67,0,120
1,note_on,57,37,360
1,note_on,64,37,0
1,note_on,61,37,0
1,note_on,61,0,120
1,note_on,64,0,0
1,note_on,57,0,0
1,note_on,58,37,360
1,note_on,64,37,0
1,note_on,61,37,0
1,note_on,61,0,120
1,note_on,64,0,0
1,note_on,58,0,0
1,note_on,61,34,360
1,note_on,56,34,0
1,note_on,64,34,0
1,note_on,64,0,120
1,note_on,56,0,0
1,note_on,61,0,0
1,note_on,61,35,360
1,note_on,64,35,0
1,note_on,57,35,0
1,note_on,57,0,120
1,note_on,64,0,0
1,note_on,61,0,0
1,note_on,61,36,360
1,note_on,58,36,0
1,note_on,64,36,0
1,note_on,64,0,120
1,note_on,58,0,0
1,note_on,61,0,0
1,note_on,61,40,360
1,note_on,59,40,0
1,note_on,64,40,0
1,note_on,64,0,120
1,note_on,59,0,0
1,note_on,61,0,0
1,note_on,60,41,360
1,note_on,61,41,0
1,note_on,64,41,0
1,note_on,64,0,120
1,note_on,61,0,0
1,note_on,60,0,0
1,note_on,59,43,360
1,note_on,64,43,0
1,note_on,61,43,0
1,note_on,61,0,120
1,note_on,64,0,0
1,note_on,59,0,0
1,note_on,58,45,360
1,note_on,64,45,0
1,note_on,61,45,0
1,note_on,61,0,120
1,note_on,64,0,0
1,note_on,58,0,0
1,note_on,61,48,360
1,note_on,57,48,0
1,note_on,64,48,0
1,note_on,64,0,120
1,note_on,57,0,0
1,note_on,61,0,0
1,note_on,61,49,360
1,note_on,56,49,0
1,note_on,64,49,0
1,note_on,64,0,120
1,note_on,56,0,0
1,note_on,61,0,0
1,note_on,55,51,360
1,note_on,58,51,0
1,note_on,61,51,0
1,note_on,61,0,120
1,note_on,58,0,0
1,note_on,55,0,0
1,note_on,54,53,360
1,note_on,61,53,0
1,note_on,58,53,0
1,note_on,58,0,120
1,note_on,61,0,0
1,note_on,54,0,0
1,note_on,53,55,360
1,note_on,61,55,0
1,note_on,58,55,0
1,note_on,58,0,120
1,note_on,61,0,0
1,note_on,53,0,0
1,note_on,57,58,360
1,note_on,52,58,0
1,note_on,61,58,0
1,note_on,61,0,120
1,note_on,52,0,0
1,note_on,57,0,0
1,note_on,55,59,360
1,note_on,57,59,0
1,note_on,61,59,0
1,note_on,51,59,0
1,note_on,51,0,120
1,note_on,55,0,0
1,note_on,57,0,0
1,note_on,61,0,0
1,note_on,74,86,1800
1,note_on,74,0,60
1,note_on,76,86,0
1,note_on,76,0,60
1,note_on,77,86,0
1,note_on,77,0,60
1,note_on,79,86,0
1,note_on,79,0,60
1,note_on,81,90,0
1,note_on,81,0,120
1,note_on,74,68,120
1,note_on,77,68,0
1,note_on,86,81,0
1,note_on,86,0,120
1,note_on,77,0,0
1,note_on,74,0,0
1,note_on,74,68,120
1,note_on,77,68,0
1,note_on,86,81,0
1,note_on,86,0,120
1,note_on,77,0,0
1,note_on,74,0,0
1,note_on,74,68,120
1,note_on,77,68,0
1,note_on,85,81,0
1,note_on,85,0,120
1,note_on,77,0,0
1,note_on,74,0,0
1,note_on,74,73,120
1,note_on,77,73,0
1,note_on,85,86,0
1,note_on,85,0,120
1,note_on,77,0,0
1,note_on,74,0,0
1,note_on,74,68,120
1,note_on,77,68,0
1,note_on,84,81,0
1,note_on,84,0,120
1,note_on,77,0,0
1,note_on,74,0,0
1,note_on,77,68,120
1,note_on,84,81,0
1,note_on,74,68,0
1,note_on,74,0,120
1,note_on,84,0,0
1,note_on,77,0,0
1,note_on,74,68,120
1,note_on,77,68,0
1,note_on,83,81,0
1,note_on,83,0,120
1,note_on,77,0,0
1,note_on,74,0,0
1,note_on,74,73,120
1,note_on,77,73,0
1,note_on,83,86,0
1,note_on,83,0,120
1,note_on,77,0,0
1,note_on,74,0,0
1,note_on,74,69,120
1,note_on,77,69,0
1,note_on,82,82,0
1,note_on,82,0,120
1,note_on,77,0,0
1,note_on,74,0,0
1,note_on,74,69,120
1,note_on,77,69,0
1,note_on,82,82,0
1,note_on,82,0,120
1,note_on,77,0,0
1,note_on,74,0,0
1,note_on,77,69,120
1,note_on,81,82,0
1,note_on,74,69,0
1,note_on,74,0,120
1,note_on,81,0,0
1,note_on,77,0,0
1,note_on,71,79,120
1,note_on,76,79,0
1,note_on,80,93,0
1,note_on,80,0,120
1,note_on,76,0,0
1,note_on,71,0,0
1,note_on,71,82,120
1,note_on,76,82,0
1,note_on,80,97,0
1,note_on,80,0,480
1,note_on,76,0,0
1,note_on,71,0,0
1,note_on,79,86,0
1,note_on,79,0,60
1,note_on,81,86,0
1,note_on,81,0,60
1,note_on,82,86,0
1,note_on,82,0,60
1,note_on,84,86,0
1,note_on,84,0,60
1,note_on,86,90,0
1,note_on,86,0,120
1,note_on,79,68,120
1,note_on,91,81,0
1,note_on,82,68,0
1,note_on,82,0,120
1,note_on,91,0,0
1,note_on,79,0,0
1,note_on,91,81,120
1,note_on,79,68,0
1,note_on,82,68,0
1,note_on,82,0,120
1,note_on,79,0,0
1,note_on,91,0,0
1,note_on,79,68,120
1,note_on,82,68,0
1,note_on,90,81,0
1,note_on,90,0,120
1,note_on,82,0,0
1,note_on,79,0,0
1,note_on,90,86,120
1,note_on,82,73,0
1,note_on,79,73,0
1,note_on,79,0,120
1,note_on,82,0,0
1,note_on,90,0,0
1,note_on,79,68,120
1,note_on,89,81,0
1,note_on,82,68,0
1,note_on,82,0,120
1,note_on,89,0,0
1,note_on,79,0,0
1,note_on,82,68,120
1,note_on,79,68,0
1,note_on,89,81,0
1,note_on,89,0,120
1,note_on,79,0,0
1,note_on,82,0,0
1,note_on,79,68,120
1,note_on,88,81,0
1,note_on,82,68,0
1,note_on,82,0,120
1,note_on,88,0,0
1,note_on,79,0,0
1,note_on,82,73,120
1,note_on,79,73,0
1,note_on,88,86,0
1,note_on,88,0,120
1,note_on,79,0,0
1,note_on,82,0,0
1,note_on,79,69,120
1,note_on,87,82,0
1,note_on,82,69,0
1,note_on,82,0,120
1,note_on,87,0,0
1,note_on,79,0,0
1,note_on,82,69,120
1,note_on,87,82,0
1,note_on,79,69,0
1,note_on,79,0,120
1,note_on,87,0,0
1,note_on,82,0,0
1,note_on,86,82,120
1,note_on,82,69,0
1,note_on,79,69,0
1,note_on,79,0,120
1,note_on,82,0,0
1,note_on,86,0,0
1,note_on,76,79,120
1,note_on,85,93,0
1,note_on,81,79,0
1,note_on,81,0,120
1,note_on,85,0,0
1,note_on,76,0,0
1,note_on,85,97,120
1,note_on,76,82,0
1,note_on,81,82,0
1,note_on,81,0,480
1,note_on,76,0,0
1,note_on,85,0,0
1,note_on,86,106,240
1,note_on,86,0,60
1,note_on,88,83,0
1,note_on,88,0,60
1,note_on,89,83,0
1,note_on,89,0,60
1,note_on,91,83,0
1,note_on,91,0,60
1,note_on,93,83,0
1,note_on,93,0,120
1,note_on,91,104,120
1,note_on,91,0,60
1,note_on,89,84,0
1,note_on,89,0,60
1,note_on,88,84,0
1,note_on,88,0,60
1,note_on,86,84,0
1,note_on,86,0,60
1,note_on,84,85,0
1,note_on,84,0,120
1,note_on,82,104,120
1,note_on,82,0,60
1,note_on,84,84,0
1,note_on,84,0,60
1,note_on,86,84,0
1,note_on,86,0,60
1,note_on,88,84,0
1,note_on,88,0,60
1,note_on,89,84,0
1,note_on,89,0,120
1,note_on,88,104,120
1,note_on,88,0,60
1,note_on,86,84,0
1,note_on,86,0,60
1,note_on,84,84,0
1,note_on,84,0,60
1,note_on,82,84,0
1,note_on,82,0,60
1,note_on,81,84,0
1,note_on,81,0,120
1,note_on,79,104,120
1,note_on,79,0,60
1,note_on,81,86,0
1,note_on,81,0,60
1,note_on,82,86,0
1,note_on,82,0,60
1,note_on,84,86,0
1,note_on,84,0,60
1,note_on,86,86,0
1,note_on,86,0,120
1,note_on,84,104,120
1,note_on,84,0,60
1,note_on,82,86,0
1,note_on,82,0,60
1,note_on,81,85,0
1,note_on,81,0,60
1,note_on,79,85,0
1,note_on,79,0,60
1,note_on,77,85,0
1,note_on,77,0,120
1,note_on,81,94,120
1,note_on,88,94,0
1,note_on,76,94,0
1,note_on,76,0,120
1,note_on,88,0,0
1,note_on,81,0,0
1,note_on,76,94,120
1,note_on,81,94,0
1,note_on,88,94,0
1,note_on,88,0,480
1,note_on,81,0,0
1,note_on,76,0,0
1,note_on,82,92,240
1,note_on,82,0,60
1,note_on,84,83,0
1,note_on,84,0,60
1,note_on,86,83,0
1,note_on,86,0,60
1,note_on,88,83,0
1,note_on,88,0,60
1,note_on,89,83,0
1,note_on,89,0,120
1,note_on,88,92,120
1,note_on,88,0,60
1,note_on,86,84,0
1,note_on,86,0,60
1,note_on,84,84,0
1,note_on,84,0,60
1,note_on,82,84,0
1,note_on,82,0,60
1,note_on,81,85,0
1,note_on,81,0,120
1,note_on,79,92,120
1,note_on,79,0,60
1,note_on,81,84,0
1,note_on,81,0,60
1,note_on,82,84,0
1,note_on,82,0,60
1,note_on,84,84,0
1,note_on,84,0,60
1,note_on,86,84,0
1,note_on,86,0,120
1,note_on,84,92,120
1,note_on,84,0,60
1,note_on,82,84,0
1,note_on,82,0,60
1,note_on,81,84,0
1,note_on,81,0,60
1,note_on,79,84,0
1,note_on,79,0,60
1,note_on,77,84,0
1,note_on,77,0,120
1,note_on,75,94,120
1,note_on,75,0,60
1,note_on,77,83,0
1,note_on,77,0,60
1,note_on,79,83,0
1,note_on,79,0,60
1,note_on,81,83,0
1,note_on,81,0,60
1,note_on,82,83,0
1,note_on,82,0,120
1,note_on,81,92,120
1,note_on,81,0,60
1,note_on,79,83,0
1,note_on,79,0,60
1,note_on,77,83,0
1,note_on,77,0,60
1,note_on,75,83,0
1,note_on,75,0,60
1,note_on,74,83,0
1,note_on,74,0,120
1,note_on,76,86,120
1,note_on,81,86,0
1,note_on,69,86,0
1,note_on,69,0,120
1,note_on,81,0,0
1,note_on,76,0,0
1,note_on,69,86,120
1,note_on,76,86,0
1,note_on,81,86,0
1,note_on,81,0,480
1,note_on,76,0,0
1,note_on,69,0,0
1,note_on,74,75,240
1,note_on,74,0,60
1,note_on,76,66,0
1,note_on,76,0,60
1,note_on,77,66,0
1,note_on,77,0,60
1,note_on,79,66,0
1,note_on,79,0,60
1,note_on,81,66,0
1,note_on,81,0,120
1,note_on,79,77,120
1,note_on,79,0,60
1,note_on,77,65,0
1,note_on,77,0,60
1,note_on,76,65,0
1,note_on,76,0,60
1,note_on,74,65,0
1,note_on,74,0,60
1,note_on,72,65,0
1,note_on,72,0,120
1,note_on,70,73,120
1,note_on,70,0,60
1,note_on,72,65,0
1,note_on,72,0,60
1,note_on,74,64,0
1,note_on,74,0,60
1,note_on,76,64,0
1,note_on,76,0,60
1,note_on,77,64,0
1,note_on,77,0,120
1,note_on,76,72,120
1,note_on,76,0,60
1,note_on,74,64,0
1,note_on,74,0,60
1,note_on,72,63,0
1,note_on,72,0,60
1,note_on,70,63,0
1,note_on,70,0,60
1,note_on,69,63,0
1,note_on,69,0,120
1,note_on,67,71,120
1,note_on,67,0,60
1,note_on,69,63,0
1,note_on,69,0,60
1,note_on,70,63,0
1,note_on,70,0,60
1,note_on,72,62,0
1,note_on,72,0,60
1,note_on,74,62,0
1,note_on,74,0,120
1,note_on,72,71,120
1,note_on,72,0,60
1,note_on,70,62,0
1,note_on,70,0,60
1,note_on,69,62,0
1,note_on,69,0,60
1,note_on,67,60,0
1,note_on,67,0,60
1,note_on,65,60,0
1,note_on,65,0,120
1,note_on,64,71,120
1,note_on,69,71,0
1,note_on,76,71,0
1,note_on,76,0,120
1,note_on,69,0,0
1,note_on,64,0,0
1,note_on,64,72,120
1,note_on,69,72,0
1,note_on,76,72,0
1,note_on,76,0,480
1,note_on,69,0,0
1,note_on,64,0,0
1,note_on,70,58,240
1,note_on,70,0,60
1,note_on,72,54,0
1,note_on,72,0,60
1,note_on,74,54,0
1,note_on,74,0,60
1,note_on,76,54,0
1,note_on,76,0,60
1,note_on,77,54,0
1,note_on,77,0,120
1,note_on,76,60,120
1,note_on,76,0,60
1,note_on,74,54,0
1,note_on,74,0,60
1,note_on,72,54,0
1,note_on,72,0,60
1,note_on,70,54,0
1,note_on,70,0,60
1,note_on,69,55,0
1,note_on,69,0,120
1,note_on,67,59,120
1,note_on,67,0,60
1,note_on,69,54,0
1,note_on,69,0,60
1,note_on,70,54,0
1,note_on,70,0,60
1,note_on,72,54,0
1,note_on,72,0,60
1,note_on,74,52,0
1,note_on,74,0,120
1,note_on,72,56,120
1,note_on,72,0,60
1,note_on,70,52,0
1,note_on,70,0,60
1,note_on,69,52,0
1,note_on,69,0,60
1,note_on,67,52,0
1,note_on,67,0,60
1,note_on,65,52,0
1,note_on,65,0,120
1,note_on,63,56,120
1,note_on,63,0,60
1,note_on,65,51,0
1,note_on,65,0,60
1,note_on,67,51,0
1,note_on,67,0,60
1,note_on,69,51,0
1,note_on,69,0,60
1,note_on,70,51,0
1,note_on,70,0,120
1,note_on,69,55,120
1,note_on,69,0,60
1,note_on,67,50,0
1,note_on,67,0,60
1,note_on,65,50,0
1,note_on,65,0,60
1,note_on,63,50,0
1,note_on,63,0,60
1,note_on,62,50,0
1,note_on,62,0,120
1,note_on,57,43,120
1,note_on,64,43,0
1,note_on,69,51,0
1,note_on,69,0,120
1,note_on,64,0,0
1,note_on,57,0,0
1,note_on,57,44,120
1,note_on,64,44,0
1,note_on,69,52,0
1,note_on,69,0,480
1,note_on,64,0,0
1,note_on,57,0,0
1,note_on,86,59,240
1,note_on,86,0,60
1,note_on,84,47,0
1,note_on,84,0,60
1,note_on,82,47,0
1,note_on,82,0,60
1,note_on,81,47,0
1,note_on,81,0,60
1,note_on,79,51,0
1,note_on,79,0,120
1,note_on,74,60,120
1,note_on,74,0,60
1,note_on,72,47,0
1,note_on,72,0,60
1,note_on,70,47,0
1,note_on,70,0,60
1,note_on,69,47,0
1,note_on,69,0,60
1,note_on,67,51,0
1,note_on,67,0,120
1,note_on,69,51,360
1,note_on,57,43,0
1,note_on,64,43,0
1,note_on,64,0,720
1,note_on,57,0,0
1,note_on,69,0,0
1,note_on,86,59,0
1,note_on,86,0,60
1,note_on,84,47,0
1,note_on,84,0,60
1,note_on,82,47,0
1,note_on,82,0,60
1,note_on,81,47,0
1,note_on,81,0,60
1,note_on,79,51,0
1,note_on,79,0,120
1,note_on,74,60,120
1,note_on,74,0,60
1,note_on,72,47,0
1,note_on,72,0,60
1,note_on,70,47,0
1,note_on,70,0,60
1,note_on,69,47,0
1,note_on,69,0,60
1,note_on,67,51,0
1,note_on,67,0,120
1,note_on,69,43,360
1,note_on,57,36,0
1,note_on,64,36,0
1,note_on,64,0,120
1,note_on,57,0,0
1,note_on,69,0,0
1,note_on,74,51,120
1,note_on,74,0,60
1,note_on,72,46,0
1,note_on,72,0,60
1,note_on,70,46,0
1,note_on,70,0,60
1,note_on,69,46,0
1,note_on,69,0,60
1,note_on,67,50,0
1,note_on,67,0,120
1,note_on,69,43,360
1,note_on,57,36,0
1,note_on,64,36,0
1,note_on,64,0,120
1,note_on,57,0,0
1,note_on,69,0,0
1,note_on,74,42,120
1,note_on,74,0,60
1,note_on,72,42,0
1,note_on,72,0,60
1,note_on,70,42,0
1,note_on,70,0,60
1,note_on,69,42,0
1,note_on,69,0,60
1,note_on,67,40,0
1,note_on,67,0,120
1,note_on,69,40,360
1,note_on,57,34,0
1,note_on,64,34,0
1,note_on,64,0,120
1,note_on,57,0,0
1,note_on,69,0,0
1,note_on,74,40,120
1,note_on,74,0,60
1,note_on,72,40,0
1,note_on,72,0,60
1,note_on,70,40,0
1,note_on,70,0,60
1,note_on,69,39,0
1,note_on,69,0,60
1,note_on,67,36,0
1,note_on,67,0,120
1,note_on,69,36,360
1,note_on,57,36,0
1,note_on,64,36,0
1,note_on,64,0,120
1,note_on,57,0,0
1,note_on,69,0,0
1,note_on,74,37,120
1,note_on,74,0,60
1,note_on,72,37,0
1,note_on,72,0,60
1,note_on,70,37,0
1,note_on,70,0,60
1,note_on,69,37,0
1,note_on,69,0,60
1,note_on,67,35,0
1,note_on,67,0,120
1,note_on,50,46,840
1,note_on,50,0,60
1,note_on,52,46,0
1,note_on,52,0,60
1,note_on,53,46,0
1,note_on,53,0,60
1,note_on,55,46,0
1,note_on,55,0,60
1,note_on,57,50,0
1,note_on,57,0,120
1,note_on,50,36,120
1,note_on,53,36,0
1,note_on,62,43,0
1,note_on,62,0,120
1,note_on,53,0,0
1,note_on,50,0,0
1,note_on,50,36,120
1,note_on,53,36,0
1,note_on,62,43,0
1,note_on,62,0,120
1,note_on,53,0,0
1,note_on,50,0,0
1,note_on,50,36,120
1,note_on,53,36,0
1,note_on,61,43,0
1,note_on,61,0,120
1,note_on,53,0,0
1,note_on,50,0,0
1,note_on,53,39,120
1,note_on,61,46,0
1,note_on,50,39,0
1,note_on,50,0,120
1,note_on,61,0,0
1,note_on,53,0,0
1,note_on,50,36,120
1,note_on,53,36,0
1,note_on,60,43,0
1,note_on,60,0,120
1,note_on,53,0,0
1,note_on,50,0,0
1,note_on,50,36,120
1,note_on,53,36,0
1,note_on,60,43,0
1,note_on,60,0,120
1,note_on,53,0,0
1,note_on,50,0,0
1,note_on,50,36,120
1,note_on,53,36,0
1,note_on,59,43,0
1,note_on,59,0,120
1,note_on,53,0,0
1,note_on,50,0,0
1,note_on,50,39,120
1,note_on,53,39,0
1,note_on,59,46,0
1,note_on,59,0,120
1,note_on,53,0,0
1,note_on,50,0,0
1,note_on,53,35,120
1,note_on,58,42,0
1,note_on,50,35,0
1,note_on,50,0,120
1,note_on,58,0,0
1,note_on,53,0,0
1,note_on,50,35,120
1,note_on,53,35,0
1,note_on,58,42,0
1,note_on,58,0,120
1,note_on,53,0,0
1,note_on,50,0,0
1,note_on,50,34,120
1,note_on,53,34,0
1,note_on,57,41,0
1,note_on,57,0,1200
1,note_on,53,0,0
1,note_on,50,0,0
1,note_on,62,40,960
1,note_on,62,0,120
1,note_on,69,39,120
1,note_on,69,0,120
1,note_on,74,36,120
1,note_on,74,0,120
1,note_on,81,42,120
1,note_on,81,0,1200
1,note_on,86,113,0
1,note_on,81,95,0
1,note_on,74,95,0
1,note_on,74,0,120
1,note_on,81,0,0
1,note_on,86,0,0
1,note_on,74,86,0
1,note_on,81,86,0
1,note_on,86,102,0
1,note_on,86,0,120
1,note_on,81,0,0
1,note_on,74,0,0
2,note_on,38,32,1
2,note_on,38,0,120
2,note_on,45,31,119
2,note_on,45,0,120
2,note_on,38,32,120
2,note_on,38,0,120
2,note_on,45,31,120
2,note_on,45,0,120
2,note_on,38,32,120
2,note_on,38,0,120
2,note_on,45,31,120
2,note_on,45,0,120
2,note_on,38,32,120
2,note_on,38,0,120
2,note_on,45,31,120
2,note_on,45,0,120
2,note_on,38,32,120
2,note_on,38,0,120
2,note_on,45,31,120
2,note_on,45,0,120
2,note_on,38,32,120
2,note_on,38,0,120
2,note_on,45,31,120
2,note_on,45,0,120
2,note_on,38,32,120
2,note_on,38,0,120
2,note_on,45,31,120
2,note_on,45,0,120
2,note_on,38,32,120
2,note_on,38,0,120
2,note_on,45,31,120
2,note_on,45,0,120
2,note_on,38,32,120
2,note_on,38,0,120
2,note_on,45,29,120
2,note_on,45,0,120
2,note_on,38,32,120
2,note_on,38,0,120
2,note_on,45,29,120
2,note_on,45,0,120
2,note_on,38,32,120
2,note_on,38,0,120
2,note_on,45,31,120
2,note_on,45,0,120
2,note_on,38,32,120
2,note_on,38,0,120
2,note_on,45,31,120
2,note_on,45,0,120
2,note_on,38,32,120
2,note_on,38,0,120
2,note_on,45,31,120
2,note_on,45,0,120
2,note_on,38,32,120
2,note_on,38,0,120
2,note_on,45,31,120
2,note_on,45,0,120
2,note_on,38,32,120
2,note_on,38,0,120
2,note_on,45,31,120
2,note_on,45,0,120
2,note_on,38,32,120
2,note_on,38,0,120
2,note_on,45,31,120
2,note_on,45,0,120
2,note_on,38,32,120
2,note_on,38,0,120
2,note_on,45,29,120
2,note_on,45,0,120
2,note_on,38,32,120
2,note_on,38,0,120
2,note_on,45,29,120
2,note_on,45,0,120
2,note_on,38,32,120
2,note_on,38,0,120
2,note_on,45,31,120
2,note_on,45,0,120
2,note_on,38,32,120
2,note_on,38,0,120
2,note_on,45,31,120
2,note_on,45,0,120
2,note_on,58,32,360
2,note_on,65,32,0
2,note_on,65,0,120
2,note_on,58,0,0
2,note_on,53,32,360
2,note_on,60,32,0
2,note_on,60,0,120
2,note_on,53,0,0
2,note_on,62,32,360
2,note_on,55,32,0
2,note_on,55,0,120
2,note_on,62,0,0
2,note_on,50,32,360
2,note_on,57,32,0
2,note_on,57,0,120
2,note_on,50,0,0
2,note_on,58,32,360
2,note_on,51,32,0
2,note_on,51,0,120
2,note_on,58,0,0
2,note_on,53,32,360
2,note_on,46,32,0
2,note_on,46,0,120
2,note_on,53,0,0
2,note_on,45,37,120
2,note_on,45,0,120
2,note_on,52,32,120
2,note_on,52,0,120
2,note_on,45,38,120
2,note_on,45,0,120
2,note_on,52,32,120
2,note_on,52,0,120
2,note_on,39,37,120
2,note_on,39,0,120
2,note_on,46,32,120
2,note_on,46,0,120
2,note_on,39,37,120
2,note_on,39,0,120
2,note_on,46,32,120
2,note_on,46,0,120
2,note_on,45,37,120
2,note_on,45,0,120
2,note_on,52,32,120
2,note_on,52,0,120
2,note_on,45,38,120
2,note_on,45,0,120
2,note_on,52,32,120
2,note_on,52,0,120
2,note_on,39,37,120
2,note_on,39,0,120
2,note_on,46,32,120
2,note_on,46,0,120
2,note_on,39,37,120
2,note_on,39,0,120
2,note_on,46,32,120
2,note_on,46,0,120
2,note_on,45,37,120
2,note_on,45,0,120
2,note_on,52,32,120
2,note_on,52,0,120
2,note_on,39,38,120
2,note_on,39,0,120
2,note_on,46,31,120
2,note_on,46,0,120
2,note_on,45,34,120
2,note_on,45,0,120
2,note_on,52,32,120
2,note_on,52,0,120
2,note_on,39,34,120
2,note_on,39,0,120
2,note_on,46,29,120
2,note_on,46,0,120
2,note_on,45,35,120
2,note_on,45,0,120
2,note_on,52,32,120
2,note_on,52,0,120
2,note_on,39,34,120
2,note_on,39,0,120
2,note_on,46,28,120
2,note_on,46,0,120
2,note_on,45,32,120
2,note_on,45,0,120
2,note_on,52,29,120
2,note_on,52,0,120
2,note_on,39,32,120
2,note_on,39,0,120
2,note_on,46,27,120
2,note_on,46,0,120
2,note_on,45,46,120
2,note_on,45,0,120
2,note_on,52,41,120
2,note_on,52,0,120
2,note_on,46,46,120
2,note_on,46,0,120
2,note_on,52,41,120
2,note_on,52,0,120
2,note_on,44,44,120
2,note_on,44,0,120
2,note_on,52,42,120
2,note_on,52,0,120
2,note_on,45,46,120
2,note_on,45,0,120
2,note_on,52,43,120
2,note_on,52,0,120
2,note_on,46,48,120
2,note_on,46,0,120
2,note_on,52,43,120
2,note_on,52,0,120
2,note_on,47,51,120
2,note_on,47,0,120
2,note_on,52,45,120
2,note_on,52,0,120
2,note_on,48,53,120
2,note_on,48,0,120
2,note_on,52,49,120
2,note_on,52,0,120
2,note_on,47,57,120
2,note_on,47,0,120
2,note_on,52,50,120
2,note_on,52,0,120
2,note_on,46,58,120
2,note_on,46,0,120
2,note_on,52,53,120
2,note_on,52,0,120
2,note_on,45,60,120
2,note_on,45,0,120
2,note_on,52,54,120
2,note_on,52,0,120
2,note_on,44,63,120
2,note_on,44,0,120
2,note_on,52,58,120
2,note_on,52,0,120
2,note_on,43,66,120
2,note_on,43,0,120
2,note_on,49,60,120
2,note_on,49,0,120
2,note_on,42,69,120
2,note_on,42,0,120
2,note_on,49,64,120
2,note_on,49,0,120
2,note_on,41,77,120
2,note_on,41,0,120
2,note_on,49,69,120
2,note_on,49,0,120
2,note_on,40,83,120
2,note_on,40,0,120
2,note_on,49,76,120
2,note_on,49,0,120
2,note_on,39,86,120
2,note_on,39,0,120
2,note_on,49,79,120
2,note_on,49,0,120
2,note_on,50,94,120
2,note_on,38,80,0
2,note_on,38,0,120
2,note_on,50,0,0
2,note_on,45,80,120
2,note_on,33,68,0
2,note_on,33,0,120
2,note_on,45,0,0
2,note_on,50,94,120
2,note_on,38,80,0
2,note_on,38,0,120
2,note_on,50,0,0
2,note_on,33,68,120
2,note_on,45,80,0
2,note_on,45,0,120
2,note_on,33,0,0
2,note_on,38,80,120
2,note_on,50,94,0
2,note_on,50,0,120
2,note_on,38,0,0
2,note_on,33,68,120
2,note_on,45,80,0
2,note_on,45,0,120
2,note_on,33,0,0
2,note_on,50,94,120
2,note_on,38,80,0
2,note_on,38,0,120
2,note_on,50,0,0
2,note_on,33,68,120
2,note_on,45,80,0
2,note_on,45,0,120
2,note_on,33,0,0
2,note_on,38,71,120
2,note_on,50,84,0
2,note_on,50,0,120
2,note_on,38,0,0
2,note_on,33,60,120
2,note_on,45,71,0
2,note_on,45,0,120
2,note_on,33,0,0
2,note_on,38,71,120
2,note_on,50,84,0
2,note_on,50,0,120
2,note_on,38,0,0
2,note_on,33,60,120
2,note_on,45,71,0
2,note_on,45,0,120
2,note_on,33,0,0
2,note_on,50,84,120
2,note_on,38,71,0
2,note_on,38,0,120
2,note_on,50,0,0
2,note_on,33,60,120
2,note_on,45,71,0
2,note_on,45,0,120
2,note_on,33,0,0
2,note_on,38,71,120
2,note_on,50,84,0
2,note_on,50,0,120
2,note_on,38,0,0
2,note_on,33,60,120
2,note_on,45,71,0
2,note_on,45,0,120
2,note_on,33,0,0
2,note_on,50,84,120
2,note_on,38,71,0
2,note_on,38,0,120
2,note_on,50,0,0
2,note_on,45,71,120
2,note_on,33,60,0
2,note_on,33,0,120
2,note_on,45,0,0
2,note_on,50,84,120
2,note_on,38,71,0
2,note_on,38,0,120
2,note_on,50,0,0
2,note_on,45,71,120
2,note_on,33,60,0
2,note_on,33,0,120
2,note_on,45,0,0
2,note_on,38,71,120
2,note_on,50,84,0
2,note_on,50,0,120
2,note_on,38,0,0
2,note_on,33,60,120
2,note_on,45,71,0
2,note_on,45,0,120
2,note_on,33,0,0
2,note_on,38,71,120
2,note_on,50,84,0
2,note_on,50,0,120
2,note_on,38,0,0
2,note_on,33,60,120
2,note_on,45,71,0
2,note_on,45,0,120
2,note_on,33,0,0
2,note_on,50,84,120
2,note_on,38,71,0
2,note_on,38,0,120
2,note_on,50,0,0
2,note_on,45,71,120
2,note_on,33,60,0
2,note_on,33,0,120
2,note_on,45,0,0
2,note_on,50,84,120
2,note_on,38,71,0
2,note_on,38,0,120
2,note_on,50,0,0
2,note_on,45,71,120
2,note_on,33,60,0
2,note_on,33,0,120
2,note_on,45,0,0
2,note_on,38,71,120
2,note_on,50,84,0
2,note_on,50,0,120
2,note_on,38,0,0
2,note_on,45,71,120
2,note_on,33,60,0
2,note_on,33,0,120
2,note_on,45,0,0
2,note_on,50,84,120
2,note_on,38,71,0
2,note_on,38,0,120
2,note_on,50,0,0
2,note_on,45,71,120
2,note_on,33,60,0
2,note_on,33,0,120
2,note_on,45,0,0
2,note_on,38,71,120
2,note_on,50,84,0
2,note_on,50,0,120
2,note_on,38,0,0
2,note_on,33,60,120
2,note_on,45,71,0
2,note_on,45,0,120
2,note_on,33,0,0
2,note_on,50,84,120
2,note_on,38,71,0
2,note_on,38,0,120
2,note_on,50,0,0
2,note_on,33,60,120
2,note_on,45,71,0
2,note_on,45,0,120
2,note_on,33,0,0
2,note_on,38,71,120
2,note_on,50,84,0
2,note_on,50,0,120
2,note_on,38,0,0
2,note_on,33,60,120
2,note_on,45,71,0
2,note_on,45,0,120
2,note_on,33,0,0
2,note_on,38,71,120
2,note_on,50,84,0
2,note_on,50,0,120
2,note_on,38,0,0
2,note_on,33,60,120
2,note_on,45,71,0
2,note_on,45,0,120
2,note_on,33,0,0
2,note_on,53,71,120
2,note_on,65,84,0
2,note_on,65,0,120
2,note_on,53,0,0
2,note_on,50,71,120
2,note_on,38,50,0
2,note_on,38,0,120
2,note_on,50,0,0
2,note_on,64,84,120
2,note_on,52,71,0
2,note_on,52,0,120
2,note_on,64,0,0
2,note_on,38,50,120
2,note_on,50,71,0
2,note_on,50,0,120
2,note_on,38,0,0
2,note_on,62,84,120
2,note_on,50,71,0
2,note_on,50,0,120
2,note_on,62,0,0
2,note_on,50,71,120
2,note_on,38,50,0
2,note_on,38,0,120
2,note_on,50,0,0
2,note_on,60,84,120
2,note_on,48,71,0
2,note_on,48,0,120
2,note_on,60,0,0
2,note_on,38,50,120
2,note_on,50,71,0
2,note_on,50,0,120
2,note_on,38,0,0
2,note_on,46,60,120
2,note_on,58,84,0
2,note_on,58,0,120
2,note_on,46,0,0
2,note_on,38,50,120
2,note_on,50,71,0
2,note_on,50,0,120
2,note_on,38,0,0
2,note_on,57,84,120
2,note_on,45,60,0
2,note_on,45,0,120
2,note_on,57,0,0
2,note_on,50,71,120
2,note_on,38,50,0
2,note_on,38,0,120
2,note_on,50,0,0
2,note_on,43,60,120
2,note_on,55,84,0
2,note_on,55,0,120
2,note_on,43,0,0
2,note_on,50,71,120
2,note_on,38,50,0
2,note_on,38,0,120
2,note_on,50,0,0
2,note_on,55,84,120
2,note_on,43,60,0
2,note_on,43,0,120
2,note_on,55,0,0
2,note_on,38,50,120
2,note_on,50,71,0
2,note_on,50,0,120
2,note_on,38,0,0
2,note_on,62,84,120
2,note_on,50,71,0
2,note_on,50,0,120
2,note_on,62,0,0
2,note_on,38,60,120
2,note_on,50,71,0
2,note_on,50,0,120
2,note_on,38,0,0
2,note_on,60,84,120
2,note_on,48,71,0
2,note_on,48,0,120
2,note_on,60,0,0
2,note_on,50,71,120
2,note_on,38,60,0
2,note_on,38,0,120
2,note_on,50,0,0
2,note_on,58,84,120
2,note_on,46,71,0
2,note_on,46,0,120
2,note_on,58,0,0
2,note_on,38,60,120
2,note_on,50,71,0
2,note_on,50,0,120
2,note_on,38,0,0
2,note_on,57,84,120
2,note_on,45,71,0
2,note_on,45,0,120
2,note_on,57,0,0
2,note_on,50,71,120
2,note_on,38,60,0
2,note_on,38,0,120
2,note_on,50,0,0
2,note_on,55,84,120
2,note_on,43,71,0
2,note_on,43,0,120
2,note_on,55,0,0
2,note_on,50,71,120
2,note_on,38,60,0
2,note_on,38,0,120
2,note_on,50,0,0
2,note_on,41,71,120
2,note_on,53,84,0
2,note_on,53,0,120
2,note_on,41,0,0
2,note_on,38,60,120
2,note_on,50,71,0
2,note_on,50,0,120
2,note_on,38,0,0
2,note_on,40,71,120
2,note_on,52,84,0
2,note_on,52,0,120
2,note_on,40,0,0
2,note_on,50,71,120
2,note_on,38,60,0
2,note_on,38,0,120
2,note_on,50,0,0
2,note_on,52,84,120
2,note_on,40,71,0
2,note_on,40,0,120
2,note_on,52,0,0
2,note_on,38,60,120
2,note_on,50,71,0
2,note_on,50,0,120
2,note_on,38,0,0
2,note_on,53,62,120
2,note_on,53,0,120
2,note_on,38,52,120
2,note_on,38,0,120
2,note_on,52,60,120
2,note_on,52,0,120
2,note_on,38,51,120
2,note_on,38,0,120
2,note_on,50,59,120
2,note_on,50,0,120
2,note_on,38,50,120
2,note_on,38,0,120
2,note_on,48,58,120
2,note_on,48,0,120
2,note_on,38,49,120
2,note_on,38,0,120
2,note_on,46,57,120
2,note_on,46,0,120
2,note_on,38,48,120
2,note_on,38,0,120
2,note_on,45,56,120
2,note_on,45,0,120
2,note_on,38,48,120
2,note_on,38,0,120
2,note_on,43,55,120
2,note_on,43,0,120
2,note_on,38,47,120
2,note_on,38,0,120
2,note_on,43,54,120
2,note_on,43,0,120
2,note_on,38,46,120
2,note_on,38,0,120
2,note_on,50,49,120
2,note_on,50,0,120
2,note_on,38,41,120
2,note_on,38,0,120
2,note_on,48,48,120
2,note_on,48,0,120
2,note_on,38,41,120
2,note_on,38,0,120
2,note_on,46,48,120
2,note_on,46,0,120
2,note_on,38,40,120
2,note_on,38,0,120
2,note_on,45,47,120
2,note_on,45,0,120
2,note_on,38,40,120
2,note_on,38,0,120
2,note_on,43,47,120
2,note_on,43,0,120
2,note_on,38,40,120
2,note_on,38,0,120
2,note_on,41,46,120
2,note_on,41,0,120
2,note_on,38,39,120
2,note_on,38,0,120
2,note_on,40,46,120
2,note_on,40,0,120
2,note_on,38,37,120
2,note_on,38,0,120
2,note_on,40,44,120
2,note_on,40,0,120
2,note_on,38,37,120
2,note_on,38,0,120
2,note_on,39,47,120
2,note_on,39,0,120
2,note_on,45,41,120
2,note_on,45,0,120
2,note_on,39,47,120
2,note_on,39,0,120
2,note_on,45,41,120
2,note_on,45,0,120
2,note_on,38,47,120
2,note_on,38,0,120
2,note_on,45,41,120
2,note_on,45,0,120
2,note_on,38,48,120
2,note_on,38,0,120
2,note_on,45,41,120
2,note_on,45,0,120
2,note_on,39,47,120
2,note_on,39,0,120
2,note_on,45,41,120
2,note_on,45,0,120
2,note_on,39,47,120
2,note_on,39,0,120
2,note_on,45,41,120
2,note_on,45,0,120
2,note_on,38,47,120
2,note_on,38,0,120
2,note_on,45,41,120
2,note_on,45,0,120
2,note_on,39,48,120
2,note_on,39,0,120
2,note_on,45,39,120
2,note_on,45,0,120
2,note_on,38,43,120
2,note_on,38,0,120
2,note_on,45,41,120
2,note_on,45,0,120
2,note_on,39,43,120
2,note_on,39,0,120
2,note_on,45,36,120
2,note_on,45,0,120
2,note_on,38,43,120
2,note_on,38,0,120
2,note_on,45,39,120
2,note_on,45,0,120
2,note_on,39,42,120
2,note_on,39,0,120
2,note_on,45,34,120
2,note_on,45,0,120
2,note_on,38,39,120
2,note_on,38,0,120
2,note_on,45,36,120
2,note_on,45,0,120
2,note_on,39,37,120
2,note_on,39,0,120
2,note_on,45,32,120
2,note_on,45,0,120
2,note_on,38,41,120
2,note_on,38,0,120
2,note_on,45,39,120
2,note_on,45,0,120
2,note_on,38,41,120
2,note_on,38,0,120
2,note_on,45,39,120
2,note_on,45,0,120
2,note_on,38,41,120
2,note_on,38,0,120
2,note_on,45,39,120
2,note_on,45,0,120
2,note_on,38,41,120
2,note_on,38,0,120
2,note_on,45,39,120
2,note_on,45,0,120
2,note_on,38,41,120
2,note_on,38,0,120
2,note_on,45,39,120
2,note_on,45,0,120
2,note_on,38,41,120
2,note_on,38,0,120
2,note_on,45,39,120
2,note_on,45,0,120
2,note_on,38,41,120
2,note_on,38,0,120
2,note_on,45,37,120
2,note_on,45,0,120
2,note_on,38,41,120
2,note_on,38,0,120
2,note_on,45,37,120
2,note_on,45,0,120
2,note_on,38,43,120
2,note_on,38,0,120
2,note_on,45,40,120
2,note_on,45,0,120
2,note_on,38,43,120
2,note_on,38,0,120
2,note_on,45,41,120
2,note_on,45,0,120
2,note_on,38,42,120
2,note_on,38,0,120
2,note_on,45,40,120
2,note_on,45,0,120
2,note_on,50,42,120
2,note_on,50,0,120
2,note_on,57,40,120
2,note_on,57,0,120
2,note_on,62,27,0
2,note_on,69,27,0
2,note_on,69,0,212
2,note_on,62,0,0
2,note_on,66,27,0
2,note_on,71,27,0
2,note_on,59,27,0
2,note_on,59,0,776
2,note_on,71,0,0
2,note_on,66,0,0
2,note_on,62,27,0
2,note_on,69,27,0
2,note_on,69,0,875
2,note_on,62,0,0
2,note_on,71,23,0
2,note_on,59,23,0
2,note_on,66,23,0
2,note_on,66,0,666
2,note_on,59,0,0
2,note_on,71,0,0
2,note_on,62,36,0
2,note_on,69,27,0
2,note_on,62,0,353
2,note_on,61,36,0
2,note_on,61,0,339
2,note_on,69,0,0
2,note_on,71,27,0
2,note_on,66,37,0
2,note_on,59,27,0
2,note_on,66,0,339
2,note_on,65,35,0
2,note_on,65,0,240
2,note_on,59,0,0
2,note_on,71,0,0
2,note_on,69,40,0
2,note_on,64,27,0
2,note_on,69,0,416
2,note_on,68,37,0
2,note_on,68,0,346
2,note_on,64,0,0
2,note_on,64,35,0
2,note_on,69,23,0
2,note_on,57,23,0
2,note_on,64,0,287
2,note_on,65,33,0
2,note_on,69,0,181
2,note_on,65,0,2
2,note_on,57,0,0
2,note_on,57,27,70
2,note_on,50,21,0
2,note_on,50,0,310
2,note_on,57,0,0
2,note_on,47,21,155
2,note_on,59,27,0
2,note_on,54,21,0
2,note_on,54,0,296
2,note_on,59,0,0
2,note_on,47,0,0
2,note_on,57,27,173
2,note_on,50,21,0
2,note_on,50,0,720
2,note_on,57,0,0
2,note_on,59,23,236
2,note_on,47,18,0
2,note_on,54,18,0
2,note_on,54,0,677
2,note_on,47,0,0
2,note_on,59,0,0
2,note_on,57,27,99
2,note_on,50,35,0
2,note_on,50,0,56
2,note_on,49,34,0
2,note_on,49,0,240
2,note_on,57,0,0
2,note_on,47,31,91
2,note_on,59,31,0
2,note_on,54,39,0
2,note_on,54,0,91
2,note_on,53,35,0
2,note_on,53,0,240
2,note_on,59,0,0
2,note_on,47,0,0
2,note_on,40,27,92
2,note_on,57,35,60
2,note_on,57,0,480
2,note_on,56,34,0
2,note_on,56,0,240
2,note_on,40,0,0
2,note_on,52,18,238
2,note_on,57,23,0
2,note_on,45,18,0
2,note_on,45,0,692
2,note_on,57,0,0
2,note_on,52,0,0
2,note_on,57,35,0
2,note_on,57,0,41
2,note_on,67,35,0
2,note_on,67,0,80
2,note_on,73,35,0
2,note_on,73,0,80
2,note_on,79,40,240
2,note_on,79,0,480
2,note_on,57,35,0
2,note_on,57,0,80
2,note_on,67,35,0
2,note_on,67,0,80
2,note_on,73,35,0
2,note_on,73,0,80
2,note_on,79,40,240
2,note_on,79,0,480
2,note_on,57,40,0
2,note_on,57,0,120
2,note_on,64,40,120
2,note_on,64,0,120
2,note_on,67,39,120
2,note_on,67,0,120
2,note_on,71,39,120
2,note_on,71,0,120
2,note_on,73,37,120
2,note_on,73,0,120
2,note_on,76,36,120
2,note_on,76,0,120
2,note_on,79,36,120
2,note_on,79,0,120
2,note_on,53,35,0
2,note_on,53,0,80
2,note_on,63,35,0
2,note_on,63,0,80
2,note_on,69,35,0
2,note_on,69,0,80
2,note_on,75,39,240
2,note_on,75,0,480
2,note_on,53,35,0
2,note_on,53,0,80
2,note_on,63,35,0
2,note_on,63,0,80
2,note_on,69,35,0
2,note_on,69,0,80
2,note_on,75,41,240
2,note_on,75,0,480
2,note_on,53,40,0
2,note_on,53,0,120
2,note_on,60,40,120
2,note_on,60,0,120
2,note_on,63,39,120
2,note_on,63,0,120
2,note_on,67,39,120
2,note_on,67,0,120
2,note_on,69,37,120
2,note_on,69,0,120
2,note_on,72,36,120
2,note_on,72,0,120
2,note_on,75,36,120
2,note_on,75,0,120
2,note_on,50,33,148
2,note_on,50,0,120
2,note_on,57,33,120
2,note_on,57,0,120
2,note_on,60,32,120
2,note_on,60,0,120
2,note_on,64,32,120
2,note_on,64,0,120
2,note_on,66,31,120
2,note_on,66,0,120
2,note_on,69,29,120
2,note_on,69,0,120
2,note_on,72,28,120
2,note_on,72,0,120
2,note_on,74,24,0
2,note_on,67,24,0
2,note_on,67,0,875
2,note_on,74,0,0
2,note_on,76,24,0
2,note_on,71,24,0
2,note_on,64,24,0
2,note_on,64,0,790
2,note_on,71,0,0
2,note_on,76,0,0
2,note_on,67,24,0
2,note_on,74,24,0
2,note_on,74,0,868
2,note_on,67,0,0
2,note_on,64,20,0
2,note_on,71,20,0
2,note_on,76,20,0
2,note_on,76,0,640
2,note_on,71,0,0
2,note_on,64,0,0
2,note_on,67,32,0
2,note_on,74,24,0
2,note_on,67,0,367
2,note_on,66,32,0
2,note_on,66,0,480
2,note_on,74,0,0
2,note_on,76,24,0
2,note_on,64,24,0
2,note_on,71,33,0
2,note_on,71,0,353
2,note_on,70,31,0
2,note_on,70,0,480
2,note_on,64,0,0
2,note_on,76,0,0
2,note_on,69,24,0
2,note_on,74,35,0
2,note_on,74,0,427
2,note_on,73,33,0
2,note_on,73,0,480
2,note_on,69,0,0
2,note_on,62,20,0
2,note_on,69,31,0
2,note_on,74,20,0
2,note_on,69,0,388
2,note_on,70,27,0
2,note_on,74,0,203
2,note_on,70,0,2
2,note_on,62,0,0
2,note_on,55,26,84
2,note_on,62,26,0
2,note_on,62,0,296
2,note_on,55,0,0
2,note_on,52,26,113
2,note_on,59,26,0
2,note_on,64,26,0
2,note_on,64,0,268
2,note_on,59,0,0
2,note_on,52,0,0
2,note_on,55,26,155
2,note_on,62,26,0
2,note_on,62,0,720
2,note_on,55,0,0
2,note_on,64,21,28
2,note_on,52,21,0
2,note_on,59,21,0
2,note_on,59,0,720
2,note_on,52,0,0
2,note_on,64,0,0
2,note_on,55,33,56
2,note_on,62,26,0
2,note_on,55,0,70
2,note_on,54,33,0
2,note_on,54,0,240
2,note_on,62,0,0
2,note_on,52,29,114
2,note_on,59,37,0
2,note_on,64,29,0
2,note_on,59,0,91
2,note_on,58,33,0
2,note_on,58,0,240
2,note_on,64,0,0
2,note_on,52,0,0
2,note_on,45,26,102
2,note_on,62,33,60
2,note_on,62,0,480
2,note_on,61,33,0
2,note_on,61,0,240
2,note_on,45,0,0
2,note_on,62,21,234
2,note_on,50,21,0
2,note_on,57,21,0
2,note_on,57,0,663
2,note_on,50,0,0
2,note_on,62,0,0
2,note_on,62,35,0
2,note_on,62,0,34
2,note_on,72,35,0
2,note_on,72,0,80
2,note_on,78,35,0
2,note_on,78,0,80
2,note_on,84,40,240
2,note_on,84,0,480
2,note_on,62,40,0
2,note_on,62,0,7
2,note_on,71,40,120
2,note_on,71,0,120
2,note_on,74,39,120
2,note_on,74,0,120
2,note_on,79,39,120
2,note_on,79,0,120
2,note_on,62,35,120
2,note_on,62,0,23
2,note_on,69,35,0
2,note_on,69,0,80
2,note_on,73,35,0
2,note_on,73,0,80
2,note_on,79,40,240
2,note_on,79,0,480
2,note_on,62,40,0
2,note_on,62,0,49
2,note_on,69,40,120
2,note_on,69,0,120
2,note_on,74,39,120
2,note_on,74,0,120
2,note_on,78,39,120
2,note_on,78,0,120
2,note_on,50,35,120
2,note_on,50,0,31
2,note_on,60,35,1
2,note_on,66,35,79
2,note_on,60,0,1
2,note_on,66,0,79
2,note_on,72,39,240
2,note_on,72,0,480
2,note_on,50,39,0
2,note_on,50,0,14
2,note_on,59,37,120
2,note_on,59,0,120
2,note_on,62,36,120
2,note_on,62,0,120
2,note_on,67,36,120
2,note_on,67,0,120
2,note_on,50,33,0
2,note_on,50,0,30
2,note_on,57,33,0
2,note_on,57,0,80
2,note_on,61,33,0
2,note_on,61,0,80
2,note_on,67,37,240
2,note_on,67,0,480
2,note_on,50,35,0
2,note_on,50,0,7
2,note_on,57,37,120
2,note_on,57,0,120
2,note_on,62,40,120
2,note_on,62,0,120
2,note_on,69,42,120
2,note_on,69,0,120
2,note_on,74,46,0
2,note_on,74,0,120
2,note_on,69,43,120
2,note_on,69,0,120
2,note_on,62,43,120
2,note_on,62,0,120
2,note_on,69,43,120
2,note_on,69,0,120
2,note_on,62,43,120
2,note_on,62,0,120
2,note_on,57,43,120
2,note_on,57,0,120
2,note_on,62,42,120
2,note_on,62,0,120
2,note_on,57,41,120
2,note_on,57,0,120
2,note_on,50,42,120
2,note_on,50,0,120
2,note_on,57,40,120
2,note_on,57,0,120
2,note_on,50,42,120
2,note_on,50,0,120
2,note_on,45,41,120
2,note_on,45,0,120
2,note_on,38,41,0
2,note_on,38,0,120
2,note_on,45,31,120
2,note_on,45,0,120
2,note_on,38,32,120
2,note_on,38,0,120
2,note_on,45,31,120
2,note_on,45,0,120
2,note_on,38,32,120
2,note_on,38,0,120
2,note_on,45,31,120
2,note_on,45,0,120
2,note_on,38,32,120
2,note_on,38,0,120
2,note_on,45,31,120
2,note_on,45,0,120
2,note_on,38,32,120
2,note_on,38,0,120
2,note_on,45,31,120
2,note_on,45,0,120
2,note_on,38,32,120
2,note_on,38,0,120
2,note_on,45,31,120
2,note_on,45,0,120
2,note_on,38,32,120
2,note_on,38,0,120
2,note_on,45,31,120
2,note_on,45,0,120
2,note_on,38,32,120
2,note_on,38,0,120
2,note_on,45,31,120
2,note_on,45,0,120
2,note_on,38,32,120
2,note_on,38,0,120
2,note_on,45,29,120
2,note_on,45,0,120
2,note_on,38,32,120
2,note_on,38,0,120
2,note_on,45,29,120
2,note_on,45,0,120
2,note_on,38,32,120
2,note_on,38,0,120
2,note_on,45,31,120
2,note_on,45,0,120
2,note_on,38,32,120
2,note_on,38,0,120
2,note_on,45,31,120
2,note_on,45,0,120
2,note_on,38,32,120
2,note_on,38,0,120
2,note_on,45,31,120
2,note_on,45,0,120
2,note_on,38,32,120
2,note_on,38,0,120
2,note_on,45,31,120
2,note_on,45,0,120
2,note_on,38,32,120
2,note_on,38,0,120
2,note_on,45,31,120
2,note_on,45,0,120
2,note_on,38,32,120
2,note_on,38,0,120
2,note_on,45,31,120
2,note_on,45,0,120
2,note_on,38,32,120
2,note_on,38,0,120
2,note_on,45,29,120
2,note_on,45,0,120
2,note_on,38,32,120
2,note_on,38,0,120
2,note_on,45,29,120
2,note_on,45,0,120
2,note_on,38,32,120
2,note_on,38,0,120
2,note_on,45,31,120
2,note_on,45,0,120
2,note_on,38,32,120
2,note_on,38,0,120
2,note_on,45,31,120
2,note_on,45,0,120
2,note_on,65,32,360
2,note_on,58,32,0
2,note_on,58,0,120
2,note_on,65,0,0
2,note_on,60,32,360
2,note_on,53,32,0
2,note_on,53,0,120
2,note_on,60,0,0
2,note_on,62,32,360
2,note_on,55,32,0
2,note_on,55,0,120
2,note_on,62,0,0
2,note_on,50,32,360
2,note_on,57,32,0
2,note_on,57,0,120
2,note_on,50,0,0
2,note_on,51,32,360
2,note_on,58,32,0
2,note_on,58,0,120
2,note_on,51,0,0
2,note_on,46,32,360
2,note_on,53,32,0
2,note_on,53,0,120
2,note_on,46,0,0
2,note_on,45,37,120
2,note_on,45,0,120
2,note_on,52,32,120
2,note_on,52,0,120
2,note_on,45,38,120
2,note_on,45,0,120
2,note_on,52,32,120
2,note_on,52,0,120
2,note_on,39,37,120
2,note_on,39,0,120
2,note_on,46,32,120
2,note_on,46,0,120
2,note_on,39,37,120
2,note_on,39,0,120
2,note_on,46,32,120
2,note_on,46,0,120
2,note_on,45,37,120
2,note_on,45,0,120
2,note_on,52,32,120
2,note_on,52,0,120
2,note_on,45,38,120
2,note_on,45,0,120
2,note_on,52,32,120
2,note_on,52,0,120
2,note_on,39,37,120
2,note_on,39,0,120
2,note_on,46,32,120
2,note_on,46,0,120
2,note_on,39,37,120
2,note_on,39,0,120
2,note_on,46,32,120
2,note_on,46,0,120
2,note_on,45,37,120
2,note_on,45,0,120
2,note_on,52,32,120
2,note_on,52,0,120
2,note_on,39,38,120
2,note_on,39,0,120
2,note_on,46,31,120
2,note_on,46,0,120
2,note_on,45,34,120
2,note_on,45,0,120
2,note_on,52,32,120
2,note_on,52,0,120
2,note_on,39,34,120
2,note_on,39,0,120
2,note_on,46,29,120
2,note_on,46,0,120
2,note_on,45,35,120
2,note_on,45,0,120
2,note_on,52,32,120
2,note_on,52,0,120
2,note_on,39,34,120
2,note_on,39,0,120
2,note_on,46,28,120
2,note_on,46,0,120
2,note_on,45,32,120
2,note_on,45,0,120
2,note_on,52,29,120
2,note_on,52,0,120
2,note_on,39,32,120
2,note_on,39,0,120
2,note_on,46,27,120
2,note_on,46,0,120
2,note_on,45,46,120
2,note_on,45,0,120
2,note_on,52,41,120
2,note_on,52,0,120
2,note_on,46,46,120
2,note_on,46,0,120
2,note_on,52,41,120
2,note_on,52,0,120
2,note_on,44,44,120
2,note_on,44,0,120
2,note_on,52,42,120
2,note_on,52,0,120
2,note_on,45,46,120
2,note_on,45,0,120
2,note_on,52,43,120
2,note_on,52,0,120
2,note_on,46,48,120
2,note_on,46,0,120
2,note_on,52,43,120
2,note_on,52,0,120
2,note_on,47,51,120
2,note_on,47,0,120
2,note_on,52,45,120
2,note_on,52,0,120
2,note_on,48,53,120
2,note_on,48,0,120
2,note_on,52,49,120
2,note_on,52,0,120
2,note_on,47,57,120
2,note_on,47,0,120
2,note_on,52,50,120
2,note_on,52,0,120
2,note_on,46,58,120
2,note_on,46,0,120
2,note_on,52,53,120
2,note_on,52,0,120
2,note_on,45,60,120
2,note_on,45,0,120
2,note_on,52,54,120
2,note_on,52,0,120
2,note_on,44,63,120
2,note_on,44,0,120
2,note_on,52,58,120
2,note_on,52,0,120
2,note_on,43,66,120
2,note_on,43,0,120
2,note_on,49,60,120
2,note_on,49,0,120
2,note_on,42,69,120
2,note_on,42,0,120
2,note_on,49,64,120
2,note_on,49,0,120
2,note_on,41,77,120
2,note_on,41,0,120
2,note_on,49,69,120
2,note_on,49,0,120
2,note_on,40,83,120
2,note_on,40,0,120
2,note_on,49,76,120
2,note_on,49,0,120
2,note_on,39,86,120
2,note_on,39,0,120
2,note_on,49,79,120
2,note_on,49,0,120
2,note_on,38,87,120
2,note_on,50,102,0
2,note_on,50,0,120
2,note_on,38,0,0
2,note_on,33,68,120
2,note_on,45,80,0
2,note_on,45,0,120
2,note_on,33,0,0
2,note_on,38,80,120
2,note_on,50,94,0
2,note_on,50,0,120
2,note_on,38,0,0
2,note_on,33,68,120
2,note_on,45,80,0
2,note_on,45,0,120
2,note_on,33,0,0
2,note_on,38,80,120
2,note_on,50,94,0
2,note_on,50,0,120
2,note_on,38,0,0
2,note_on,33,68,120
2,note_on,45,80,0
2,note_on,45,0,120
2,note_on,33,0,0
2,note_on,38,80,120
2,note_on,50,94,0
2,note_on,50,0,120
2,note_on,38,0,0
2,note_on,45,80,120
2,note_on,33,68,0
2,note_on,33,0,120
2,note_on,45,0,0
2,note_on,38,71,120
2,note_on,50,84,0
2,note_on,50,0,120
2,note_on,38,0,0
2,note_on,33,60,120
2,note_on,45,71,0
2,note_on,45,0,120
2,note_on,33,0,0
2,note_on,38,71,120
2,note_on,50,84,0
2,note_on,50,0,120
2,note_on,38,0,0
2,note_on,45,71,120
2,note_on,33,60,0
2,note_on,33,0,120
2,note_on,45,0,0
2,note_on,38,71,120
2,note_on,50,84,0
2,note_on,50,0,120
2,note_on,38,0,0
2,note_on,33,60,120
2,note_on,45,71,0
2,note_on,45,0,120
2,note_on,33,0,0
2,note_on,38,71,120
2,note_on,50,84,0
2,note_on,50,0,120
2,note_on,38,0,0
2,note_on,45,71,120
2,note_on,33,60,0
2,note_on,33,0,120
2,note_on,45,0,0
2,note_on,38,71,120
2,note_on,50,84,0
2,note_on,50,0,120
2,note_on,38,0,0
2,note_on,33,60,120
2,note_on,45,71,0
2,note_on,45,0,120
2,note_on,33,0,0
2,note_on,38,71,120
2,note_on,50,84,0
2,note_on,50,0,120
2,note_on,38,0,0
2,note_on,45,71,120
2,note_on,33,60,0
2,note_on,33,0,120
2,note_on,45,0,0
2,note_on,38,71,120
2,note_on,50,84,0
2,note_on,50,0,120
2,note_on,38,0,0
2,note_on,33,60,120
2,note_on,45,71,0
2,note_on,45,0,120
2,note_on,33,0,0
2,note_on,38,71,120
2,note_on,50,84,0
2,note_on,50,0,120
2,note_on,38,0,0
2,note_on,45,71,120
2,note_on,33,60,0
2,note_on,33,0,120
2,note_on,45,0,0
2,note_on,38,71,120
2,note_on,50,84,0
2,note_on,50,0,120
2,note_on,38,0,0
2,note_on,33,60,120
2,note_on,45,71,0
2,note_on,45,0,120
2,note_on,33,0,0
2,note_on,38,71,120
2,note_on,50,84,0
2,note_on,50,0,120
2,note_on,38,0,0
2,note_on,45,71,120
2,note_on,33,60,0
2,note_on,33,0,120
2,note_on,45,0,0
2,note_on,38,71,120
2,note_on,50,84,0
2,note_on,50,0,120
2,note_on,38,0,0
2,note_on,33,60,120
2,note_on,45,71,0
2,note_on,45,0,120
2,note_on,33,0,0
2,note_on,38,71,120
2,note_on,50,84,0
2,note_on,50,0,120
2,note_on,38,0,0
2,note_on,45,71,120
2,note_on,33,60,0
2,note_on,33,0,120
2,note_on,45,0,0
2,note_on,38,71,120
2,note_on,50,84,0
2,note_on,50,0,120
2,note_on,38,0,0
2,note_on,33,60,120
2,note_on,45,71,0
2,note_on,45,0,120
2,note_on,33,0,0
2,note_on,38,71,120
2,note_on,50,84,0
2,note_on,50,0,120
2,note_on,38,0,0
2,note_on,45,71,120
2,note_on,33,60,0
2,note_on,33,0,120
2,note_on,45,0,0
2,note_on,38,71,120
2,note_on,50,84,0
2,note_on,50,0,120
2,note_on,38,0,0
2,note_on,33,60,120
2,note_on,45,71,0
2,note_on,45,0,120
2,note_on,33,0,0
2,note_on,38,71,120
2,note_on,50,84,0
2,note_on,50,0,120
2,note_on,38,0,0
2,note_on,45,71,120
2,note_on,33,60,0
2,note_on,33,0,120
2,note_on,45,0,0
2,note_on,65,84,120
2,note_on,53,71,0
2,note_on,53,0,120
2,note_on,65,0,0
2,note_on,38,60,120
2,note_on,50,71,0
2,note_on,50,0,120
2,note_on,38,0,0
2,note_on,52,71,120
2,note_on,64,84,0
2,note_on,64,0,120
2,note_on,52,0,0
2,note_on,38,60,120
2,note_on,50,71,0
2,note_on,50,0,120
2,note_on,38,0,0
2,note_on,62,84,120
2,note_on,50,71,0
2,note_on,50,0,120
2,note_on,62,0,0
2,note_on,38,60,120
2,note_on,50,71,0
2,note_on,50,0,120
2,note_on,38,0,0
2,note_on,48,71,120
2,note_on,60,84,0
2,note_on,60,0,120
2,note_on,48,0,0
2,note_on,38,60,120
2,note_on,50,71,0
2,note_on,50,0,120
2,note_on,38,0,0
2,note_on,46,71,120
2,note_on,58,84,0
2,note_on,58,0,120
2,note_on,46,0,0
2,note_on,38,60,120
2,note_on,50,71,0
2,note_on,50,0,120
2,note_on,38,0,0
2,note_on,45,71,120
2,note_on,57,84,0
2,note_on,57,0,120
2,note_on,45,0,0
2,note_on,38,60,120
2,note_on,50,71,0
2,note_on,50,0,120
2,note_on,38,0,0
2,note_on,43,71,120
2,note_on,55,84,0
2,note_on,55,0,120
2,note_on,43,0,0
2,note_on,38,60,120
2,note_on,50,71,0
2,note_on,50,0,120
2,note_on,38,0,0
2,note_on,43,71,120
2,note_on,55,84,0
2,note_on,55,0,120
2,note_on,43,0,0
2,note_on,38,60,120
2,note_on,50,71,0
2,note_on,50,0,120
2,note_on,38,0,0
2,note_on,62,84,120
2,note_on,50,71,0
2,note_on,50,0,120
2,note_on,62,0,0
2,note_on,38,60,120
2,note_on,50,71,0
2,note_on,50,0,120
2,note_on,38,0,0
2,note_on,48,71,120
2,note_on,60,84,0
2,note_on,60,0,120
2,note_on,48,0,0
2,note_on,38,60,120
2,note_on,50,71,0
2,note_on,50,0,120
2,note_on,38,0,0
2,note_on,58,84,120
2,note_on,46,71,0
2,note_on,46,0,120
2,note_on,58,0,0
2,note_on,38,60,120
2,note_on,50,71,0
2,note_on,50,0,120
2,note_on,38,0,0
2,note_on,45,71,120
2,note_on,57,84,0
2,note_on,57,0,120
2,note_on,45,0,0
2,note_on,38,60,120
2,note_on,50,71,0
2,note_on,50,0,120
2,note_on,38,0,0
2,note_on,43,71,120
2,note_on,55,84,0
2,note_on,55,0,120
2,note_on,43,0,0
2,note_on,38,60,120
2,note_on,50,71,0
2,note_on,50,0,120
2,note_on,38,0,0
2,note_on,41,71,120
2,note_on,53,84,0
2,note_on,53,0,120
2,note_on,41,0,0
2,note_on,38,60,120
2,note_on,50,71,0
2,note_on,50,0,120
2,note_on,38,0,0
2,note_on,40,71,120
2,note_on,52,84,0
2,note_on,52,0,120
2,note_on,40,0,0
2,note_on,38,60,120
2,note_on,50,71,0
2,note_on,50,0,120
2,note_on,38,0,0
2,note_on,40,71,120
2,note_on,52,84,0
2,note_on,52,0,120
2,note_on,40,0,0
2,note_on,38,60,120
2,note_on,50,71,0
2,note_on,50,0,120
2,note_on,38,0,0
2,note_on,53,62,120
2,note_on,53,0,120
2,note_on,38,52,120
2,note_on,38,0,120
2,note_on,52,60,120
2,note_on,52,0,120
2,note_on,38,51,120
2,note_on,38,0,120
2,note_on,50,59,120
2,note_on,50,0,120
2,note_on,38,50,120
2,note_on,38,0,120
2,note_on,48,58,120
2,note_on,48,0,120
2,note_on,38,49,120
2,note_on,38,0,120
2,note_on,46,57,120
2,note_on,46,0,120
2,note_on,38,48,120
2,note_on,38,0,120
2,note_on,45,56,120
2,note_on,45,0,120
2,note_on,38,48,120
2,note_on,38,0,120
2,note_on,43,55,120
2,note_on,43,0,120
2,note_on,38,47,120
2,note_on,38,0,120
2,note_on,43,54,120
2,note_on,43,0,120
2,note_on,38,46,120
2,note_on,38,0,120
2,note_on,50,49,120
2,note_on,50,0,120
2,note_on,38,41,120
2,note_on,38,0,120
2,note_on,48,48,120
2,note_on,48,0,120
2,note_on,38,41,120
2,note_on,38,0,120
2,note_on,46,48,120
2,note_on,46,0,120
2,note_on,38,40,120
2,note_on,38,0,120
2,note_on,45,47,120
2,note_on,45,0,120
2,note_on,38,40,120
2,note_on,38,0,120
2,note_on,43,47,120
2,note_on,43,0,120
2,note_on,38,40,120
2,note_on,38,0,120
2,note_on,41,46,120
2,note_on,41,0,120
2,note_on,38,39,120
2,note_on,38,0,120
2,note_on,40,46,120
2,note_on,40,0,120
2,note_on,38,37,120
2,note_on,38,0,120
2,note_on,40,44,120
2,note_on,40,0,120
2,note_on,38,37,120
2,note_on,38,0,120
2,note_on,39,47,120
2,note_on,39,0,120
2,note_on,45,41,120
2,note_on,45,0,120
2,note_on,39,47,120
2,note_on,39,0,120
2,note_on,45,41,120
2,note_on,45,0,120
2,note_on,38,47,120
2,note_on,38,0,120
2,note_on,45,41,120
2,note_on,45,0,120
2,note_on,38,48,120
2,note_on,38,0,120
2,note_on,45,41,120
2,note_on,45,0,120
2,note_on,39,47,120
2,note_on,39,0,120
2,note_on,45,41,120
2,note_on,45,0,120
2,note_on,39,47,120
2,note_on,39,0,120
2,note_on,45,41,120
2,note_on,45,0,120
2,note_on,38,47,120
2,note_on,38,0,120
2,note_on,45,41,120
2,note_on,45,0,120
2,note_on,39,48,120
2,note_on,39,0,120
2,note_on,45,39,120
2,note_on,45,0,120
2,note_on,38,43,120
2,note_on,38,0,120
2,note_on,45,41,120
2,note_on,45,0,120
2,note_on,39,43,120
2,note_on,39,0,120
2,note_on,45,36,120
2,note_on,45,0,120
2,note_on,38,43,120
2,note_on,38,0,120
2,note_on,45,39,120
2,note_on,45,0,120
2,note_on,39,42,120
2,note_on,39,0,120
2,note_on,45,34,120
2,note_on,45,0,120
2,note_on,38,39,120
2,note_on,38,0,120
2,note_on,45,36,120
2,note_on,45,0,120
2,note_on,39,37,120
2,note_on,39,0,120
2,note_on,45,32,120
2,note_on,45,0,120
2,note_on,38,41,120
2,note_on,38,0,120
2,note_on,45,39,120
2,note_on,45,0,120
2,note_on,38,41,120
2,note_on,38,0,120
2,note_on,45,39,120
2,note_on,45,0,120
2,note_on,38,41,120
2,note_on,38,0,120
2,note_on,45,39,120
2,note_on,45,0,120
2,note_on,38,41,120
2,note_on,38,0,120
2,note_on,45,39,120
2,note_on,45,0,120
2,note_on,38,41,120
2,note_on,38,0,120
2,note_on,45,39,120
2,note_on,45,0,120
2,note_on,38,41,120
2,note_on,38,0,120
2,note_on,45,39,120
2,note_on,45,0,120
2,note_on,38,41,120
2,note_on,38,0,120
2,note_on,45,37,120
2,note_on,45,0,120
2,note_on,38,41,120
2,note_on,38,0,120
2,note_on,45,37,120
2,note_on,45,0,120
2,note_on,38,43,120
2,note_on,38,0,120
2,note_on,45,40,120
2,note_on,45,0,120
2,note_on,38,43,120
2,note_on,38,0,120
2,note_on,45,41,120
2,note_on,45,0,120
2,note_on,38,42,120
2,note_on,38,0,120
2,note_on,45,40,120
2,note_on,45,0,120
2,note_on,50,42,120
2,note_on,50,0,120
2,note_on,57,40,120
2,note_on,57,0,120
2,note_on,50,90,1179
2,note_on,38,75,0
2,note_on,45,75,0
2,note_on,45,0,120
2,note_on,38,0,0
2,note_on,50,0,0
2,note_on,38,68,0
2,note_on,50,81,0
2,note_on,45,68,0
2,note_on,45,0,120
2,note_on,50,0,0
2,note_on,38,0,0
