Track,Message Type,Note,Velocity,Time
1,note_on,87,70,900
1,note_on,87,0,60
1,note_on,86,77,0
1,note_on,86,0,240
1,note_on,86,70,0
1,note_on,82,58,0
1,note_on,82,0,120
1,note_on,79,70,0
1,note_on,79,0,120
1,note_on,86,0,0
1,note_on,79,63,0
1,note_on,81,75,0
1,note_on,81,0,240
1,note_on,79,0,0
1,note_on,81,68,0
1,note_on,78,57,0
1,note_on,78,0,120
1,note_on,74,68,0
1,note_on,74,0,60
1,note_on,81,0,0
1,note_on,87,70,0
1,note_on,87,0,60
1,note_on,86,77,0
1,note_on,86,0,240
1,note_on,86,71,0
1,note_on,82,59,0
1,note_on,82,0,120
1,note_on,79,72,0
1,note_on,79,0,120
1,note_on,86,0,0
1,note_on,79,66,0
1,note_on,81,78,0
1,note_on,81,0,240
1,note_on,79,0,0
1,note_on,81,72,0
1,note_on,78,60,0
1,note_on,78,0,120
1,note_on,74,73,0
1,note_on,74,0,120
1,note_on,81,0,0
1,note_on,91,69,0
1,note_on,93,82,0
1,note_on,91,0,120
1,note_on,90,66,0
1,note_on,90,0,120
1,note_on,93,0,0
1,note_on,86,70,0
1,note_on,86,0,120
1,note_on,79,61,120
1,note_on,81,73,0
1,note_on,79,0,120
1,note_on,78,58,0
1,note_on,78,0,120
1,note_on,81,0,0
1,note_on,74,62,0
1,note_on,74,0,120
1,note_on,67,53,120
1,note_on,69,63,0
1,note_on,67,0,120
1,note_on,66,54,0
1,note_on,66,0,120
1,note_on,69,0,0
1,note_on,62,57,0
1,note_on,66,50,120
1,note_on,66,0,120
1,note_on,62,0,0
1,note_on,67,57,0
1,note_on,67,0,420
1,note_on,75,63,0
1,note_on,75,0,60
1,note_on,74,69,0
1,note_on,74,0,240
1,note_on,74,66,0
1,note_on,70,55,0
1,note_on,70,0,120
1,note_on,67,63,0
1,note_on,67,0,120
1,note_on,74,0,0
1,note_on,67,56,0
1,note_on,69,67,0
1,note_on,69,0,240
1,note_on,67,0,0
1,note_on,69,61,0
1,note_on,66,51,0
1,note_on,66,0,120
1,note_on,62,61,0
1,note_on,62,0,60
1,note_on,69,0,0
1,note_on,75,63,0
1,note_on,75,0,60
1,note_on,74,69,0
1,note_on,74,0,240
1,note_on,74,67,0
1,note_on,70,56,0
1,note_on,70,0,120
1,note_on,67,64,0
1,note_on,67,0,120
1,note_on,74,0,0
1,note_on,67,59,0
1,note_on,69,70,0
1,note_on,69,0,240
1,note_on,67,0,0
1,note_on,66,54,0
1,note_on,69,64,0
1,note_on,66,0,120
1,note_on,62,65,0
1,note_on,62,0,120
1,note_on,69,0,0
1,note_on,79,62,0
1,note_on,81,73,0
1,note_on,79,0,120
1,note_on,78,64,0
1,note_on,78,0,120
1,note_on,81,0,0
1,note_on,74,63,0
1,note_on,74,0,120
1,note_on,67,54,120
1,note_on,69,65,0
1,note_on,67,0,120
1,note_on,66,55,0
1,note_on,66,0,120
1,note_on,69,0,0
1,note_on,62,55,0
1,note_on,62,0,120
1,note_on,55,47,120
1,note_on,57,56,0
1,note_on,55,0,120
1,note_on,54,43,0
1,note_on,54,0,120
1,note_on,57,0,0
1,note_on,50,51,0
1,note_on,54,45,120
1,note_on,54,0,120
1,note_on,50,0,0
1,note_on,55,51,0
1,note_on,55,0,420
1,note_on,79,50,0
1,note_on,79,0,60
1,note_on,77,55,0
1,note_on,77,0,120
1,note_on,77,52,120
1,note_on,74,50,120
1,note_on,74,0,120
1,note_on,77,0,0
1,note_on,75,55,0
1,note_on,75,0,240
1,note_on,75,52,0
1,note_on,77,45,0
1,note_on,75,0,120
1,note_on,72,50,0
1,note_on,72,0,120
1,note_on,74,52,0
1,note_on,74,0,240
1,note_on,77,0,0
1,note_on,74,52,0
1,note_on,77,45,0
1,note_on,74,0,120
1,note_on,70,50,0
1,note_on,70,0,120
1,note_on,72,52,0
1,note_on,72,0,240
1,note_on,77,0,0
1,note_on,77,42,0
1,note_on,72,52,0
1,note_on,72,0,120
1,note_on,69,50,0
1,note_on,69,0,120
1,note_on,70,52,0
1,note_on,70,0,240
1,note_on,77,0,0
1,note_on,77,45,0
1,note_on,77,0,120
1,note_on,82,40,0
1,note_on,82,0,120
1,note_on,70,42,0
1,note_on,70,0,120
1,note_on,77,45,120
1,note_on,77,0,120
1,note_on,82,41,0
1,note_on,82,0,120
1,note_on,70,41,0
1,note_on,70,0,120
1,note_on,77,45,120
1,note_on,77,0,120
1,note_on,82,41,0
1,note_on,82,0,120
1,note_on,70,41,0
1,note_on,70,0,120
1,note_on,67,47,300
1,note_on,67,0,60
1,note_on,65,52,0
1,note_on,65,0,120
1,note_on,65,49,120
1,note_on,62,47,120
1,note_on,62,0,120
1,note_on,65,0,0
1,note_on,63,52,0
1,note_on,63,0,240
1,note_on,63,49,0
1,note_on,65,42,0
1,note_on,63,0,120
1,note_on,60,47,0
1,note_on,60,0,120
1,note_on,62,49,0
1,note_on,62,0,240
1,note_on,65,0,0
1,note_on,62,49,0
1,note_on,65,42,0
1,note_on,62,0,120
1,note_on,58,47,0
1,note_on,58,0,120
1,note_on,60,49,0
1,note_on,60,0,240
1,note_on,65,0,0
1,note_on,65,39,0
1,note_on,60,49,0
1,note_on,60,0,120
1,note_on,57,47,0
1,note_on,57,0,120
1,note_on,58,49,0
1,note_on,58,0,240
1,note_on,65,0,0
1,note_on,69,42,0
1,note_on,69,0,120
1,note_on,74,38,0
1,note_on,74,0,120
1,note_on,62,39,0
1,note_on,62,0,120
1,note_on,69,42,120
1,note_on,69,0,120
1,note_on,74,38,0
1,note_on,74,0,120
1,note_on,62,38,0
1,note_on,62,0,120
1,note_on,69,42,120
1,note_on,69,0,120
1,note_on,74,38,0
1,note_on,74,0,120
1,note_on,62,38,0
1,note_on,62,0,120
1,note_on,63,50,300
1,note_on,63,0,60
1,note_on,62,61,0
1,note_on,62,0,420
1,note_on,75,54,480
1,note_on,75,0,60
1,note_on,74,65,0
1,note_on,74,0,420
1,note_on,87,70,480
1,note_on,87,0,60
1,note_on,86,77,0
1,note_on,86,0,240
1,note_on,86,70,0
1,note_on,82,58,0
1,note_on,82,0,120
1,note_on,79,70,0
1,note_on,79,0,120
1,note_on,86,0,0
1,note_on,79,63,0
1,note_on,81,75,0
1,note_on,81,0,240
1,note_on,79,0,0
1,note_on,81,68,0
1,note_on,78,57,0
1,note_on,78,0,120
1,note_on,74,68,0
1,note_on,74,0,60
1,note_on,81,0,0
1,note_on,87,70,0
1,note_on,87,0,60
1,note_on,86,77,0
1,note_on,86,0,240
1,note_on,86,71,0
1,note_on,82,59,0
1,note_on,82,0,120
1,note_on,79,72,0
1,note_on,79,0,120
1,note_on,86,0,0
1,note_on,79,66,0
1,note_on,81,78,0
1,note_on,81,0,240
1,note_on,79,0,0
1,note_on,81,72,0
1,note_on,78,60,0
1,note_on,78,0,120
1,note_on,74,73,0
1,note_on,74,0,120
1,note_on,81,0,0
1,note_on,79,69,0
1,note_on,81,82,0
1,note_on,79,0,120
1,note_on,78,66,0
1,note_on,78,0,120
1,note_on,81,0,0
1,note_on,74,70,0
1,note_on,74,0,120
1,note_on,69,73,120
1,note_on,67,61,0
1,note_on,67,0,120
1,note_on,66,59,0
1,note_on,66,0,120
1,note_on,69,0,0
1,note_on,62,62,0
1,note_on,62,0,120
1,note_on,55,53,120
1,note_on,57,63,0
1,note_on,55,0,120
1,note_on,54,48,0
1,note_on,54,0,120
1,note_on,57,0,0
1,note_on,50,57,0
1,note_on,54,50,120
1,note_on,54,0,120
1,note_on,50,0,0
1,note_on,55,57,0
1,note_on,55,0,420
1,note_on,79,50,0
1,note_on,79,0,60
1,note_on,77,55,0
1,note_on,77,0,120
1,note_on,77,52,120
1,note_on,74,50,120
1,note_on,74,0,120
1,note_on,77,0,0
1,note_on,75,55,0
1,note_on,75,0,240
1,note_on,75,52,0
1,note_on,77,45,0
1,note_on,75,0,120
1,note_on,72,50,0
1,note_on,72,0,120
1,note_on,74,52,0
1,note_on,74,0,240
1,note_on,77,0,0
1,note_on,74,52,0
1,note_on,77,45,0
1,note_on,74,0,120
1,note_on,70,50,0
1,note_on,70,0,120
1,note_on,72,52,0
1,note_on,72,0,240
1,note_on,77,0,0
1,note_on,77,42,0
1,note_on,72,52,0
1,note_on,72,0,120
1,note_on,69,50,0
1,note_on,69,0,120
1,note_on,70,52,0
1,note_on,70,0,240
1,note_on,77,0,0
1,note_on,77,45,0
1,note_on,77,0,120
1,note_on,82,40,0
1,note_on,82,0,120
1,note_on,70,42,0
1,note_on,70,0,120
1,note_on,77,45,120
1,note_on,77,0,120
1,note_on,82,41,0
1,note_on,82,0,120
1,note_on,70,41,0
1,note_on,70,0,120
1,note_on,77,45,120
1,note_on,77,0,120
1,note_on,82,41,0
1,note_on,82,0,120
1,note_on,70,41,0
1,note_on,70,0,120
1,note_on,67,47,300
1,note_on,67,0,60
1,note_on,65,52,0
1,note_on,65,0,120
1,note_on,65,49,120
1,note_on,62,47,120
1,note_on,62,0,120
1,note_on,65,0,0
1,note_on,63,52,0
1,note_on,63,0,240
1,note_on,63,49,0
1,note_on,65,42,0
1,note_on,63,0,120
1,note_on,60,47,0
1,note_on,60,0,120
1,note_on,62,49,0
1,note_on,62,0,240
1,note_on,65,0,0
1,note_on,62,49,0
1,note_on,65,42,0
1,note_on,62,0,120
1,note_on,58,47,0
1,note_on,58,0,120
1,note_on,60,49,0
1,note_on,60,0,240
1,note_on,65,0,0
1,note_on,65,39,0
1,note_on,60,49,0
1,note_on,60,0,120
1,note_on,57,47,0
1,note_on,57,0,120
1,note_on,58,49,0
1,note_on,58,0,240
1,note_on,65,0,0
1,note_on,69,42,0
1,note_on,69,0,120
1,note_on,74,38,0
1,note_on,74,0,120
1,note_on,62,39,0
1,note_on,62,0,120
1,note_on,69,42,120
1,note_on,69,0,120
1,note_on,74,38,0
1,note_on,74,0,120
1,note_on,62,38,0
1,note_on,62,0,120
1,note_on,69,42,120
1,note_on,69,0,120
1,note_on,74,38,0
1,note_on,74,0,120
1,note_on,62,38,0
1,note_on,62,0,120
1,note_on,63,50,300
1,note_on,63,0,60
1,note_on,62,61,0
1,note_on,62,0,420
1,note_on,75,54,480
1,note_on,75,0,60
1,note_on,74,65,0
1,note_on,74,0,420
1,note_on,87,69,480
1,note_on,87,0,60
1,note_on,86,75,0
1,note_on,86,0,240
1,note_on,86,68,0
1,note_on,82,57,0
1,note_on,82,0,120
1,note_on,79,69,0
1,note_on,79,0,120
1,note_on,86,0,0
1,note_on,79,61,0
1,note_on,81,73,0
1,note_on,81,0,240
1,note_on,79,0,0
1,note_on,81,67,0
1,note_on,78,56,0
1,note_on,78,0,120
1,note_on,74,61,0
1,note_on,74,0,60
1,note_on,81,0,0
1,note_on,75,63,0
1,note_on,75,0,60
1,note_on,74,69,0
1,note_on,74,0,240
1,note_on,74,67,0
1,note_on,70,56,0
1,note_on,70,0,120
1,note_on,67,64,0
1,note_on,67,0,120
1,note_on,74,0,0
1,note_on,67,59,0
1,note_on,69,70,0
1,note_on,69,0,240
1,note_on,67,0,0
1,note_on,66,54,0
1,note_on,69,64,0
1,note_on,66,0,120
1,note_on,62,65,0
1,note_on,62,0,120
1,note_on,69,0,0
1,note_on,79,62,0
1,note_on,81,73,0
1,note_on,79,0,120
1,note_on,78,58,0
1,note_on,78,0,120
1,note_on,81,0,0
1,note_on,74,59,0
1,note_on,74,0,120
1,note_on,67,48,120
1,note_on,69,58,0
1,note_on,67,0,120
1,note_on,66,47,0
1,note_on,66,0,120
1,note_on,69,0,0
1,note_on,62,46,0
1,note_on,62,0,120
1,note_on,55,37,120
1,note_on,57,44,0
1,note_on,55,0,120
1,note_on,54,33,0
1,note_on,54,0,120
1,note_on,57,0,0
1,note_on,50,38,0
1,note_on,54,32,120
1,note_on,54,0,120
1,note_on,50,0,0
1,note_on,55,35,0
1,note_on,55,0,480
2,note_on,67,41,1200
2,note_on,74,49,0
2,note_on,72,54,240
2,note_on,72,0,240
2,note_on,69,49,0
2,note_on,69,0,180
2,note_on,74,0,60
2,note_on,67,0,0
2,note_on,67,41,240
2,note_on,74,49,0
2,note_on,72,56,240
2,note_on,72,0,240
2,note_on,69,52,0
2,note_on,69,0,240
2,note_on,74,0,0
2,note_on,67,0,0
2,note_on,81,78,240
2,note_on,79,65,0
2,note_on,79,0,120
2,note_on,78,63,0
2,note_on,81,0,118
2,note_on,78,0,2
2,note_on,74,66,0
2,note_on,74,0,120
2,note_on,67,57,120
2,note_on,69,69,0
2,note_on,67,0,120
2,note_on,66,56,0
2,note_on,69,0,118
2,note_on,66,0,2
2,note_on,62,57,0
2,note_on,62,0,120
2,note_on,50,46,120
2,note_on,50,0,120
2,note_on,43,43,120
2,note_on,55,51,0
2,note_on,55,0,420
2,note_on,43,0,0
2,note_on,55,36,300
2,note_on,62,44,0
2,note_on,60,48,240
2,note_on,60,0,240
2,note_on,57,44,0
2,note_on,57,0,240
2,note_on,62,0,0
2,note_on,55,0,0
2,note_on,55,36,240
2,note_on,62,44,0
2,note_on,60,50,240
2,note_on,60,0,240
2,note_on,57,46,0
2,note_on,57,0,240
2,note_on,62,0,0
2,note_on,55,0,0
2,note_on,67,58,240
2,note_on,69,70,0
2,note_on,67,0,120
2,note_on,66,62,0
2,note_on,69,0,118
2,note_on,66,0,2
2,note_on,62,59,0
2,note_on,62,0,120
2,note_on,55,51,120
2,note_on,57,62,0
2,note_on,55,0,120
2,note_on,54,54,0
2,note_on,57,0,118
2,note_on,54,0,2
2,note_on,50,51,0
2,note_on,50,0,120
2,note_on,38,41,120
2,note_on,38,0,120
2,note_on,31,38,120
2,note_on,43,45,0
2,note_on,43,0,420
2,note_on,31,0,0
2,note_on,58,28,300
2,note_on,65,35,0
2,note_on,67,34,240
2,note_on,67,0,240
2,note_on,69,34,0
2,note_on,69,0,240
2,note_on,65,0,0
2,note_on,58,0,0
2,note_on,58,28,240
2,note_on,65,35,0
2,note_on,63,32,240
2,note_on,63,0,240
2,note_on,60,32,0
2,note_on,60,0,240
2,note_on,62,40,0
2,note_on,62,0,240
2,note_on,65,0,0
2,note_on,58,0,0
2,note_on,53,38,0
2,note_on,53,0,120
2,note_on,46,33,0
2,note_on,46,0,120
2,note_on,62,33,0
2,note_on,62,0,120
2,note_on,53,38,120
2,note_on,53,0,120
2,note_on,46,33,0
2,note_on,46,0,120
2,note_on,62,33,0
2,note_on,62,0,120
2,note_on,53,38,120
2,note_on,53,0,120
2,note_on,46,33,0
2,note_on,46,0,120
2,note_on,62,34,0
2,note_on,62,0,120
2,note_on,46,26,600
2,note_on,53,33,0
2,note_on,55,32,240
2,note_on,55,0,240
2,note_on,57,32,0
2,note_on,57,0,240
2,note_on,53,0,0
2,note_on,46,0,0
2,note_on,46,26,240
2,note_on,53,33,0
2,note_on,51,30,240
2,note_on,51,0,240
2,note_on,48,30,0
2,note_on,48,0,240
2,note_on,50,38,0
2,note_on,50,0,240
2,note_on,53,0,0
2,note_on,46,0,0
2,note_on,45,36,0
2,note_on,45,0,120
2,note_on,38,31,0
2,note_on,38,0,120
2,note_on,54,31,0
2,note_on,54,0,120
2,note_on,45,36,120
2,note_on,45,0,120
2,note_on,38,31,0
2,note_on,38,0,120
2,note_on,54,31,0
2,note_on,54,0,120
2,note_on,45,36,120
2,note_on,45,0,120
2,note_on,38,31,0
2,note_on,38,0,120
2,note_on,54,32,0
2,note_on,54,0,120
2,note_on,70,52,780
2,note_on,70,0,60
2,note_on,69,61,0
2,note_on,69,0,420
2,note_on,82,61,480
2,note_on,82,0,60
2,note_on,81,72,0
2,note_on,81,0,420
2,note_on,67,41,300
2,note_on,74,49,0
2,note_on,72,54,240
2,note_on,72,0,240
2,note_on,69,49,0
2,note_on,69,0,180
2,note_on,74,0,60
2,note_on,67,0,0
2,note_on,67,41,240
2,note_on,74,49,0
2,note_on,72,56,240
2,note_on,72,0,240
2,note_on,69,52,0
2,note_on,69,0,240
2,note_on,74,0,0
2,note_on,67,0,0
2,note_on,69,78,240
2,note_on,67,65,0
2,note_on,67,0,120
2,note_on,66,63,0
2,note_on,69,0,118
2,note_on,66,0,2
2,note_on,62,66,0
2,note_on,62,0,120
2,note_on,57,69,120
2,note_on,55,57,0
2,note_on,55,0,120
2,note_on,54,56,0
2,note_on,57,0,118
2,note_on,54,0,2
2,note_on,50,57,0
2,note_on,50,0,120
2,note_on,38,46,120
2,note_on,38,0,120
2,note_on,31,43,120
2,note_on,43,51,0
2,note_on,43,0,420
2,note_on,31,0,0
2,note_on,58,28,300
2,note_on,65,35,0
2,note_on,67,34,240
2,note_on,67,0,240
2,note_on,69,34,0
2,note_on,69,0,240
2,note_on,65,0,0
2,note_on,58,0,0
2,note_on,58,28,240
2,note_on,65,35,0
2,note_on,63,32,240
2,note_on,63,0,240
2,note_on,60,32,0
2,note_on,60,0,240
2,note_on,62,40,0
2,note_on,62,0,240
2,note_on,65,0,0
2,note_on,58,0,0
2,note_on,53,38,0
2,note_on,53,0,120
2,note_on,46,33,0
2,note_on,46,0,120
2,note_on,62,33,0
2,note_on,62,0,120
2,note_on,53,38,120
2,note_on,53,0,120
2,note_on,46,33,0
2,note_on,46,0,120
2,note_on,62,33,0
2,note_on,62,0,120
2,note_on,53,38,120
2,note_on,53,0,120
2,note_on,46,33,0
2,note_on,46,0,120
2,note_on,62,34,0
2,note_on,62,0,120
2,note_on,46,26,600
2,note_on,53,33,0
2,note_on,55,32,240
2,note_on,55,0,240
2,note_on,57,32,0
2,note_on,57,0,240
2,note_on,53,0,0
2,note_on,46,0,0
2,note_on,46,26,240
2,note_on,53,33,0
2,note_on,51,30,240
2,note_on,51,0,240
2,note_on,48,30,0
2,note_on,48,0,240
2,note_on,50,38,0
2,note_on,50,0,240
2,note_on,53,0,0
2,note_on,46,0,0
2,note_on,45,36,0
2,note_on,45,0,120
2,note_on,38,31,0
2,note_on,38,0,120
2,note_on,54,31,0
2,note_on,54,0,120
2,note_on,45,36,120
2,note_on,45,0,120
2,note_on,38,31,0
2,note_on,38,0,120
2,note_on,54,31,0
2,note_on,54,0,120
2,note_on,45,36,120
2,note_on,45,0,120
2,note_on,38,31,0
2,note_on,38,0,120
2,note_on,54,32,0
2,note_on,54,0,120
2,note_on,70,52,780
2,note_on,70,0,60
2,note_on,69,61,0
2,note_on,69,0,420
2,note_on,82,61,480
2,note_on,82,0,60
2,note_on,81,72,0
2,note_on,81,0,420
2,note_on,67,39,300
2,note_on,74,48,0
2,note_on,72,52,240
2,note_on,72,0,240
2,note_on,69,48,0
2,note_on,74,0,238
2,note_on,69,0,2
2,note_on,67,0,0
2,note_on,55,36,240
2,note_on,62,44,0
2,note_on,60,50,240
2,note_on,60,0,240
2,note_on,57,46,0
2,note_on,57,0,240
2,note_on,62,0,0
2,note_on,55,0,0
2,note_on,67,55,240
2,note_on,69,66,0
2,note_on,67,0,120
2,note_on,66,51,0
2,note_on,69,0,118
2,note_on,66,0,2
2,note_on,62,53,0
2,note_on,62,0,120
2,note_on,55,43,120
2,note_on,57,52,0
2,note_on,55,0,120
2,note_on,54,37,0
2,note_on,57,0,118
2,note_on,54,0,2
2,note_on,50,40,0
2,note_on,50,0,120
2,note_on,38,30,120
2,note_on,38,0,120
2,note_on,31,26,120
2,note_on,43,31,0
2,note_on,43,0,480
2,note_on,31,0,0
