Track,Message Type,Note,Velocity,Time
1,note_on,57,31,480
1,note_on,50,31,0
1,note_on,50,0,240
1,note_on,57,0,0
1,note_on,50,31,0
1,note_on,57,31,0
1,note_on,57,0,240
1,note_on,50,0,0
1,note_on,50,36,0
1,note_on,57,36,0
1,note_on,57,0,240
1,note_on,50,0,0
1,note_on,50,31,1200
1,note_on,57,31,0
1,note_on,57,0,240
1,note_on,50,0,0
1,note_on,50,31,0
1,note_on,57,31,0
1,note_on,57,0,240
1,note_on,50,0,0
1,note_on,50,35,0
1,note_on,57,35,0
1,note_on,57,0,240
1,note_on,50,0,0
1,note_on,69,39,480
1,note_on,69,0,80
1,note_on,71,39,0
1,note_on,71,0,80
1,note_on,69,41,0
1,note_on,69,0,80
1,note_on,66,44,0
1,note_on,69,44,240
1,note_on,69,0,240
1,note_on,66,0,0
1,note_on,66,42,0
1,note_on,74,45,0
1,note_on,74,0,60
1,note_on,66,0,0
1,note_on,78,42,180
1,note_on,66,45,0
1,note_on,66,0,60
1,note_on,78,0,0
1,note_on,76,45,180
1,note_on,66,37,0
1,note_on,76,0,240
1,note_on,74,42,0
1,note_on,74,0,240
1,note_on,66,0,0
1,note_on,66,42,0
1,note_on,66,0,60
1,note_on,69,41,180
1,note_on,66,41,0
1,note_on,66,0,60
1,note_on,69,0,0
1,note_on,71,45,180
1,note_on,69,45,0
1,note_on,66,45,0
1,note_on,66,0,240
1,note_on,69,0,0
1,note_on,71,0,0
1,note_on,66,41,240
1,note_on,69,41,0
1,note_on,71,41,0
1,note_on,71,0,240
1,note_on,69,0,0
1,note_on,66,0,0
1,note_on,66,41,120
1,note_on,71,41,0
1,note_on,69,41,0
1,note_on,69,0,120
1,note_on,71,0,0
1,note_on,66,0,0
1,note_on,71,41,0
1,note_on,69,41,0
1,note_on,66,41,0
1,note_on,66,0,480
1,note_on,69,0,0
1,note_on,71,0,0
1,note_on,62,42,0
1,note_on,66,42,0
1,note_on,66,0,60
1,note_on,62,0,0
1,note_on,62,42,180
1,note_on,68,42,0
1,note_on,66,42,0
1,note_on,66,0,60
1,note_on,68,0,0
1,note_on,62,0,0
1,note_on,62,45,180
1,note_on,66,45,0
1,note_on,69,45,0
1,note_on,69,0,240
1,note_on,71,42,0
1,note_on,71,0,240
1,note_on,66,0,0
1,note_on,62,0,0
1,note_on,66,44,0
1,note_on,62,44,0
1,note_on,62,0,60
1,note_on,66,0,0
1,note_on,62,44,180
1,note_on,68,44,0
1,note_on,66,44,0
1,note_on,66,0,60
1,note_on,68,0,0
1,note_on,62,0,0
1,note_on,69,45,180
1,note_on,62,45,0
1,note_on,66,45,0
1,note_on,69,0,240
1,note_on,71,42,0
1,note_on,71,0,240
1,note_on,66,0,0
1,note_on,62,0,0
1,note_on,62,44,0
1,note_on,66,44,0
1,note_on,66,0,120
1,note_on,62,0,0
1,note_on,66,44,120
1,note_on,62,44,0
1,note_on,68,44,0
1,note_on,68,0,60
1,note_on,62,0,0
1,note_on,66,0,0
1,note_on,62,47,180
1,note_on,64,47,0
1,note_on,69,47,0
1,note_on,69,0,240
1,note_on,64,0,0
1,note_on,62,0,0
1,note_on,61,42,240
1,note_on,69,42,0
1,note_on,69,0,240
1,note_on,61,0,0
1,note_on,69,42,120
1,note_on,61,42,0
1,note_on,61,0,120
1,note_on,69,0,0
1,note_on,69,42,0
1,note_on,61,42,0
1,note_on,61,0,240
1,note_on,69,0,0
1,note_on,73,44,480
1,note_on,73,0,80
1,note_on,74,44,0
1,note_on,74,0,80
1,note_on,73,44,0
1,note_on,73,0,80
1,note_on,71,47,0
1,note_on,74,47,240
1,note_on,74,0,240
1,note_on,71,0,0
1,note_on,79,49,0
1,note_on,71,49,0
1,note_on,71,0,60
1,note_on,79,0,0
1,note_on,83,45,180
1,note_on,71,45,0
1,note_on,71,0,60
1,note_on,83,0,0
1,note_on,81,48,180
1,note_on,71,41,0
1,note_on,81,0,240
1,note_on,79,42,0
1,note_on,79,0,240
1,note_on,71,0,0
1,note_on,71,42,0
1,note_on,67,42,0
1,note_on,67,0,60
1,note_on,71,0,0
1,note_on,67,42,180
1,note_on,71,42,0
1,note_on,74,42,0
1,note_on,74,0,60
1,note_on,71,0,0
1,note_on,67,0,0
1,note_on,78,46,180
1,note_on,74,46,0
1,note_on,71,46,0
1,note_on,67,46,0
1,note_on,67,0,240
1,note_on,78,0,0
1,note_on,74,0,0
1,note_on,71,0,0
1,note_on,78,42,240
1,note_on,74,42,0
1,note_on,71,42,0
1,note_on,67,42,0
1,note_on,67,0,240
1,note_on,78,0,0
1,note_on,74,0,0
1,note_on,71,0,0
1,note_on,78,42,120
1,note_on,74,42,0
1,note_on,71,42,0
1,note_on,67,42,0
1,note_on,67,0,120
1,note_on,78,0,0
1,note_on,74,0,0
1,note_on,71,0,0
1,note_on,78,42,0
1,note_on,74,42,0
1,note_on,67,42,0
1,note_on,71,42,0
1,note_on,71,0,480
1,note_on,78,0,0
1,note_on,74,0,0
1,note_on,67,0,0
1,note_on,71,42,0
1,note_on,67,42,0
1,note_on,67,0,60
1,note_on,71,0,0
1,note_on,73,42,180
1,note_on,71,42,0
1,note_on,67,42,0
1,note_on,67,0,60
1,note_on,71,0,0
1,note_on,73,0,0
1,note_on,74,46,180
1,note_on,67,46,0
1,note_on,71,46,0
1,note_on,74,0,240
1,note_on,76,42,0
1,note_on,76,0,240
1,note_on,71,0,0
1,note_on,67,0,0
1,note_on,71,45,0
1,note_on,67,45,0
1,note_on,67,0,60
1,note_on,71,0,0
1,note_on,67,45,180
1,note_on,71,45,0
1,note_on,73,45,0
1,note_on,73,0,60
1,note_on,71,0,0
1,note_on,67,0,0
1,note_on,74,47,180
1,note_on,67,47,0
1,note_on,71,47,0
1,note_on,74,0,240
1,note_on,76,44,0
1,note_on,76,0,240
1,note_on,71,0,0
1,note_on,67,0,0
1,note_on,71,45,0
1,note_on,67,45,0
1,note_on,67,0,60
1,note_on,71,0,0
1,note_on,67,45,180
1,note_on,71,45,0
1,note_on,73,45,0
1,note_on,73,0,60
1,note_on,71,0,0
1,note_on,67,0,0
1,note_on,74,49,180
1,note_on,69,49,0
1,note_on,67,49,0
1,note_on,67,0,240
1,note_on,69,0,0
1,note_on,74,0,0
1,note_on,74,45,240
1,note_on,66,45,0
1,note_on,66,0,240
1,note_on,74,0,0
1,note_on,74,45,120
1,note_on,66,45,0
1,note_on,66,0,120
1,note_on,74,0,0
1,note_on,74,45,0
1,note_on,66,45,0
1,note_on,66,0,240
1,note_on,74,0,0
1,note_on,62,27,480
1,note_on,69,27,0
1,note_on,69,0,240
1,note_on,62,0,0
1,note_on,62,27,0
1,note_on,69,27,0
1,note_on,69,0,240
1,note_on,62,0,0
1,note_on,62,33,0
1,note_on,69,33,0
1,note_on,69,0,240
1,note_on,62,0,0
1,note_on,62,27,1200
1,note_on,69,27,0
1,note_on,69,0,240
1,note_on,62,0,0
1,note_on,62,27,0
1,note_on,69,27,0
1,note_on,69,0,240
1,note_on,62,0,0
1,note_on,62,31,0
1,note_on,69,31,0
1,note_on,69,0,240
1,note_on,62,0,0
1,note_on,81,35,480
1,note_on,81,0,80
1,note_on,83,35,0
1,note_on,83,0,80
1,note_on,81,36,0
1,note_on,81,0,80
1,note_on,78,39,0
1,note_on,81,39,240
1,note_on,81,0,240
1,note_on,78,0,0
1,note_on,78,39,0
1,note_on,86,39,0
1,note_on,86,0,60
1,note_on,78,0,0
1,note_on,90,37,180
1,note_on,78,37,0
1,note_on,78,0,60
1,note_on,90,0,0
1,note_on,88,41,180
1,note_on,78,33,0
1,note_on,88,0,240
1,note_on,86,37,0
1,note_on,86,0,240
1,note_on,78,0,0
1,note_on,78,37,0
1,note_on,78,0,60
1,note_on,81,36,180
1,note_on,78,36,0
1,note_on,78,0,60
1,note_on,81,0,0
1,note_on,78,39,180
1,note_on,81,39,0
1,note_on,83,39,0
1,note_on,83,0,240
1,note_on,81,0,0
1,note_on,78,0,0
1,note_on,78,37,240
1,note_on,81,37,0
1,note_on,83,37,0
1,note_on,83,0,240
1,note_on,81,0,0
1,note_on,78,0,0
1,note_on,83,37,120
1,note_on,78,37,0
1,note_on,81,37,0
1,note_on,81,0,120
1,note_on,78,0,0
1,note_on,83,0,0
1,note_on,78,37,0
1,note_on,81,37,0
1,note_on,83,37,0
1,note_on,83,0,480
1,note_on,81,0,0
1,note_on,78,0,0
1,note_on,74,38,0
1,note_on,78,38,0
1,note_on,78,0,60
1,note_on,74,0,0
1,note_on,74,38,180
1,note_on,80,38,0
1,note_on,78,38,0
1,note_on,78,0,60
1,note_on,80,0,0
1,note_on,74,0,0
1,note_on,81,41,180
1,note_on,78,41,0
1,note_on,74,41,0
1,note_on,81,0,240
1,note_on,83,37,0
1,note_on,83,0,240
1,note_on,74,0,0
1,note_on,78,0,0
1,note_on,78,39,0
1,note_on,74,39,0
1,note_on,74,0,60
1,note_on,78,0,0
1,note_on,80,38,180
1,note_on,74,38,0
1,note_on,78,38,0
1,note_on,78,0,60
1,note_on,74,0,0
1,note_on,80,0,0
1,note_on,78,41,180
1,note_on,74,41,0
1,note_on,81,41,0
1,note_on,81,0,240
1,note_on,83,37,0
1,note_on,83,0,240
1,note_on,74,0,0
1,note_on,78,0,0
1,note_on,74,39,0
1,note_on,78,39,0
1,note_on,78,0,60
1,note_on,74,0,0
1,note_on,80,39,180
1,note_on,74,39,0
1,note_on,78,39,0
1,note_on,78,0,60
1,note_on,74,0,0
1,note_on,80,0,0
1,note_on,74,41,180
1,note_on,76,41,0
1,note_on,81,41,0
1,note_on,81,0,240
1,note_on,76,0,0
1,note_on,74,0,0
1,note_on,73,38,240
1,note_on,81,38,0
1,note_on,81,0,240
1,note_on,73,0,0
1,note_on,73,38,120
1,note_on,81,38,0
1,note_on,81,0,120
1,note_on,73,0,0
1,note_on,73,38,0
1,note_on,81,38,0
1,note_on,81,0,240
1,note_on,73,0,0
1,note_on,85,39,480
1,note_on,85,0,80
1,note_on,86,39,0
1,note_on,86,0,80
1,note_on,85,39,0
1,note_on,85,0,80
1,note_on,83,42,0
1,note_on,86,42,240
1,note_on,86,0,240
1,note_on,83,0,0
1,note_on,91,44,0
1,note_on,83,44,0
1,note_on,83,0,60
1,note_on,91,0,0
1,note_on,95,39,180
1,note_on,83,39,0
1,note_on,83,0,60
1,note_on,95,0,0
1,note_on,93,42,180
1,note_on,83,37,0
1,note_on,93,0,240
1,note_on,91,38,0
1,note_on,91,0,240
1,note_on,83,0,0
1,note_on,83,38,0
1,note_on,79,38,0
1,note_on,79,0,60
1,note_on,83,0,0
1,note_on,83,38,180
1,note_on,79,38,0
1,note_on,86,38,0
1,note_on,86,0,60
1,note_on,79,0,0
1,note_on,83,0,0
1,note_on,83,42,180
1,note_on,86,42,0
1,note_on,90,42,0
1,note_on,79,42,0
1,note_on,79,0,240
1,note_on,83,0,0
1,note_on,86,0,0
1,note_on,90,0,0
1,note_on,83,37,240
1,note_on,86,37,0
1,note_on,90,37,0
1,note_on,79,37,0
1,note_on,79,0,240
1,note_on,83,0,0
1,note_on,86,0,0
1,note_on,90,0,0
1,note_on,83,37,120
1,note_on,86,37,0
1,note_on,90,37,0
1,note_on,79,37,0
1,note_on,79,0,120
1,note_on,83,0,0
1,note_on,86,0,0
1,note_on,90,0,0
1,note_on,83,37,0
1,note_on,86,37,0
1,note_on,90,37,0
1,note_on,79,37,0
1,note_on,79,0,480
1,note_on,83,0,0
1,note_on,86,0,0
1,note_on,90,0,0
1,note_on,79,38,0
1,note_on,83,38,0
1,note_on,83,0,60
1,note_on,79,0,0
1,note_on,85,38,180
1,note_on,83,38,0
1,note_on,79,38,0
1,note_on,79,0,60
1,note_on,83,0,0
1,note_on,85,0,0
1,note_on,83,42,180
1,note_on,79,42,0
1,note_on,86,42,0
1,note_on,86,0,240
1,note_on,88,38,0
1,note_on,88,0,240
1,note_on,79,0,0
1,note_on,83,0,0
1,note_on,83,39,0
1,note_on,79,39,0
1,note_on,79,0,60
1,note_on,83,0,0
1,note_on,85,39,180
1,note_on,83,39,0
1,note_on,79,39,0
1,note_on,79,0,60
1,note_on,83,0,0
1,note_on,85,0,0
1,note_on,86,42,180
1,note_on,83,42,0
1,note_on,79,42,0
1,note_on,86,0,240
1,note_on,88,39,0
1,note_on,88,0,240
1,note_on,79,0,0
1,note_on,83,0,0
1,note_on,83,39,0
1,note_on,79,39,0
1,note_on,79,0,60
1,note_on,83,0,0
1,note_on,85,39,180
1,note_on,83,39,0
1,note_on,79,39,0
1,note_on,79,0,60
1,note_on,83,0,0
1,note_on,85,0,0
1,note_on,86,44,180
1,note_on,81,44,0
1,note_on,79,44,0
1,note_on,79,0,240
1,note_on,81,0,0
1,note_on,86,0,0
1,note_on,86,39,240
1,note_on,78,39,0
1,note_on,78,0,240
1,note_on,86,0,0
1,note_on,86,39,120
1,note_on,78,39,0
1,note_on,78,0,120
1,note_on,86,0,0
1,note_on,86,39,0
1,note_on,78,39,0
1,note_on,78,0,240
1,note_on,86,0,0
1,note_on,61,75,1920
1,note_on,64,75,0
1,note_on,61,0,120
1,note_on,59,68,0
1,note_on,59,0,120
1,note_on,61,68,0
1,note_on,61,0,120
1,note_on,57,68,0
1,note_on,57,0,60
1,note_on,64,0,60
1,note_on,62,68,0
1,note_on,66,71,0
1,note_on,62,0,120
1,note_on,59,68,120
1,note_on,59,0,120
1,note_on,66,0,120
1,note_on,61,75,0
1,note_on,64,75,0
1,note_on,61,0,120
1,note_on,59,69,0
1,note_on,59,0,120
1,note_on,61,69,0
1,note_on,61,0,120
1,note_on,57,69,0
1,note_on,57,0,60
1,note_on,64,0,60
1,note_on,62,68,0
1,note_on,66,71,0
1,note_on,62,0,120
1,note_on,59,68,120
1,note_on,59,0,120
1,note_on,66,0,120
1,note_on,74,56,240
1,note_on,78,56,0
1,note_on,68,56,0
1,note_on,78,0,80
1,note_on,80,56,0
1,note_on,80,0,80
1,note_on,78,56,0
1,note_on,78,0,80
1,note_on,68,0,0
1,note_on,74,0,0
1,note_on,76,60,0
1,note_on,73,60,0
1,note_on,69,60,0
1,note_on,69,0,120
1,note_on,73,0,0
1,note_on,76,0,0
1,note_on,73,59,120
1,note_on,76,59,0
1,note_on,69,59,0
1,note_on,69,0,120
1,note_on,76,0,0
1,note_on,73,0,0
1,note_on,76,59,120
1,note_on,73,59,0
1,note_on,69,59,0
1,note_on,69,0,960
1,note_on,73,0,0
1,note_on,76,0,0
1,note_on,60,52,0
1,note_on,64,52,0
1,note_on,64,0,480
1,note_on,60,0,0
1,note_on,68,48,0
1,note_on,72,48,0
1,note_on,76,48,0
1,note_on,76,0,240
1,note_on,72,0,0
1,note_on,68,0,0
1,note_on,68,47,0
1,note_on,72,47,0
1,note_on,76,47,0
1,note_on,76,0,240
1,note_on,72,0,0
1,note_on,68,0,0
1,note_on,68,46,0
1,note_on,72,46,0
1,note_on,76,46,0
1,note_on,76,0,480
1,note_on,72,0,0
1,note_on,68,0,0
1,note_on,72,34,0
1,note_on,76,34,0
1,note_on,76,0,60
1,note_on,72,0,0
1,note_on,76,34,180
1,note_on,72,34,0
1,note_on,77,34,0
1,note_on,77,0,60
1,note_on,72,0,0
1,note_on,76,0,0
1,note_on,72,37,180
1,note_on,76,37,0
1,note_on,79,37,0
1,note_on,79,0,240
1,note_on,81,34,0
1,note_on,81,0,240
1,note_on,76,0,0
1,note_on,72,0,0
1,note_on,72,34,0
1,note_on,76,34,0
1,note_on,76,0,60
1,note_on,72,0,0
1,note_on,72,34,180
1,note_on,76,34,0
1,note_on,77,34,0
1,note_on,77,0,60
1,note_on,76,0,0
1,note_on,72,0,0
1,note_on,71,38,180
1,note_on,77,38,0
1,note_on,79,38,0
1,note_on,79,0,240
1,note_on,81,34,0
1,note_on,81,0,240
1,note_on,77,0,0
1,note_on,71,0,0
1,note_on,67,34,0
1,note_on,71,34,0
1,note_on,76,34,0
1,note_on,76,0,120
1,note_on,71,0,0
1,note_on,67,0,0
1,note_on,67,34,120
1,note_on,71,34,0
1,note_on,74,34,0
1,note_on,74,0,120
1,note_on,71,0,0
1,note_on,67,0,0
1,note_on,74,35,0
1,note_on,74,0,60
1,note_on,76,35,0
1,note_on,76,0,60
1,note_on,64,39,0
1,note_on,74,39,0
1,note_on,74,0,240
1,note_on,72,34,0
1,note_on,72,0,240
1,note_on,64,0,0
1,note_on,64,34,0
1,note_on,72,34,0
1,note_on,72,0,120
1,note_on,64,0,0
1,note_on,64,34,120
1,note_on,72,34,0
1,note_on,72,0,120
1,note_on,64,0,0
1,note_on,64,39,120
1,note_on,72,39,0
1,note_on,72,0,360
1,note_on,64,0,0
1,note_on,64,75,600
1,note_on,67,75,0
1,note_on,64,0,120
1,note_on,62,68,0
1,note_on,62,0,120
1,note_on,64,68,0
1,note_on,64,0,120
1,note_on,60,68,0
1,note_on,60,0,60
1,note_on,67,0,60
1,note_on,65,68,0
1,note_on,69,71,0
1,note_on,65,0,120
1,note_on,62,68,120
1,note_on,62,0,120
1,note_on,69,0,120
1,note_on,64,75,0
1,note_on,67,75,0
1,note_on,64,0,120
1,note_on,62,69,0
1,note_on,62,0,120
1,note_on,64,69,0
1,note_on,64,0,120
1,note_on,60,69,0
1,note_on,60,0,60
1,note_on,67,0,60
1,note_on,65,68,0
1,note_on,69,71,0
1,note_on,65,0,120
1,note_on,62,68,120
1,note_on,62,0,120
1,note_on,69,0,120
1,note_on,77,56,240
1,note_on,81,56,0
1,note_on,71,56,0
1,note_on,81,0,80
1,note_on,83,56,0
1,note_on,83,0,80
1,note_on,81,56,0
1,note_on,81,0,80
1,note_on,71,0,0
1,note_on,77,0,0
1,note_on,79,60,0
1,note_on,76,60,0
1,note_on,72,60,0
1,note_on,72,0,120
1,note_on,76,0,0
1,note_on,79,0,0
1,note_on,76,59,120
1,note_on,79,59,0
1,note_on,72,59,0
1,note_on,72,0,120
1,note_on,79,0,0
1,note_on,76,0,0
1,note_on,79,59,120
1,note_on,76,59,0
1,note_on,72,59,0
1,note_on,72,0,960
1,note_on,76,0,0
1,note_on,79,0,0
1,note_on,63,52,0
1,note_on,67,52,0
1,note_on,67,0,480
1,note_on,63,0,0
1,note_on,71,48,0
1,note_on,75,48,0
1,note_on,79,48,0
1,note_on,79,0,240
1,note_on,75,0,0
1,note_on,71,0,0
1,note_on,71,47,0
1,note_on,75,47,0
1,note_on,79,47,0
1,note_on,79,0,240
1,note_on,75,0,0
1,note_on,71,0,0
1,note_on,71,46,0
1,note_on,75,46,0
1,note_on,79,46,0
1,note_on,79,0,480
1,note_on,75,0,0
1,note_on,71,0,0
1,note_on,75,34,0
1,note_on,79,34,0
1,note_on,79,0,60
1,note_on,75,0,0
1,note_on,79,34,180
1,note_on,75,34,0
1,note_on,80,34,0
1,note_on,80,0,120
1,note_on,75,0,0
1,note_on,79,0,0
1,note_on,75,37,120
1,note_on,79,37,0
1,note_on,82,37,0
1,note_on,82,0,240
1,note_on,84,34,0
1,note_on,84,0,240
1,note_on,79,0,0
1,note_on,75,0,0
1,note_on,75,34,0
1,note_on,79,34,0
1,note_on,79,0,60
1,note_on,75,0,0
1,note_on,75,34,180
1,note_on,79,34,0
1,note_on,80,34,0
1,note_on,80,0,60
1,note_on,79,0,0
1,note_on,75,0,0
1,note_on,74,38,180
1,note_on,80,38,0
1,note_on,82,38,0
1,note_on,82,0,240
1,note_on,84,34,0
1,note_on,84,0,240
1,note_on,80,0,0
1,note_on,74,0,0
1,note_on,70,34,0
1,note_on,74,34,0
1,note_on,79,34,0
1,note_on,79,0,120
1,note_on,74,0,0
1,note_on,70,0,0
1,note_on,70,34,120
1,note_on,74,34,0
1,note_on,77,34,0
1,note_on,77,0,120
1,note_on,74,0,0
1,note_on,70,0,0
1,note_on,77,35,0
1,note_on,77,0,60
1,note_on,79,35,0
1,note_on,79,0,60
1,note_on,67,39,0
1,note_on,77,39,0
1,note_on,77,0,240
1,note_on,75,34,0
1,note_on,75,0,240
1,note_on,67,0,0
1,note_on,67,34,0
1,note_on,75,34,0
1,note_on,75,0,120
1,note_on,67,0,0
1,note_on,67,34,120
1,note_on,75,34,0
1,note_on,75,0,120
1,note_on,67,0,0
1,note_on,67,39,120
1,note_on,75,39,0
1,note_on,75,0,480
1,note_on,67,0,0
1,note_on,55,25,120
1,note_on,61,28,0
1,note_on,61,0,120
1,note_on,55,0,0
1,note_on,63,29,120
1,note_on,61,25,0
1,note_on,55,25,0
1,note_on,55,0,120
1,note_on,61,0,0
1,note_on,63,0,0
1,note_on,55,25,120
1,note_on,61,25,0
1,note_on,65,34,0
1,note_on,65,0,120
1,note_on,61,0,0
1,note_on,55,0,0
1,note_on,55,26,120
1,note_on,61,26,0
1,note_on,67,33,0
1,note_on,67,0,120
1,note_on,61,0,0
1,note_on,55,0,0
1,note_on,55,27,120
1,note_on,61,31,0
1,note_on,61,0,120
1,note_on,55,0,0
1,note_on,63,31,120
1,note_on,55,27,0
1,note_on,61,27,0
1,note_on,61,0,120
1,note_on,55,0,0
1,note_on,63,0,0
1,note_on,55,28,120
1,note_on,61,28,0
1,note_on,65,36,0
1,note_on,65,0,120
1,note_on,61,0,0
1,note_on,55,0,0
1,note_on,55,28,120
1,note_on,61,28,0
1,note_on,67,33,0
1,note_on,67,0,120
1,note_on,61,0,0
1,note_on,55,0,0
1,note_on,55,29,120
1,note_on,61,34,0
1,note_on,61,0,120
1,note_on,55,0,0
1,note_on,63,34,120
1,note_on,55,30,0
1,note_on,61,30,0
1,note_on,61,0,120
1,note_on,55,0,0
1,note_on,63,0,0
1,note_on,55,29,120
1,note_on,61,29,0
1,note_on,65,39,0
1,note_on,65,0,120
1,note_on,61,0,0
1,note_on,55,0,0
1,note_on,68,42,120
1,note_on,68,0,120
1,note_on,55,31,120
1,note_on,61,31,0
1,note_on,67,38,0
1,note_on,67,0,120
1,note_on,61,0,0
1,note_on,55,0,0
1,note_on,63,38,120
1,note_on,55,31,0
1,note_on,61,31,0
1,note_on,61,0,120
1,note_on,55,0,0
1,note_on,63,0,0
1,note_on,55,31,120
1,note_on,61,31,0
1,note_on,65,39,0
1,note_on,65,0,120
1,note_on,61,0,0
1,note_on,55,0,0
1,note_on,55,32,120
1,note_on,61,38,0
1,note_on,61,0,120
1,note_on,55,0,0
1,note_on,56,36,120
1,note_on,63,36,0
1,note_on,63,0,120
1,note_on,56,0,0
1,note_on,63,35,120
1,note_on,65,35,0
1,note_on,56,35,0
1,note_on,56,0,120
1,note_on,65,0,0
1,note_on,63,0,0
1,note_on,56,30,120
1,note_on,63,30,0
1,note_on,67,40,0
1,note_on,67,0,120
1,note_on,63,0,0
1,note_on,56,0,0
1,note_on,56,31,120
1,note_on,63,31,0
1,note_on,68,39,0
1,note_on,68,0,120
1,note_on,63,0,0
1,note_on,56,0,0
1,note_on,56,31,120
1,note_on,63,36,0
1,note_on,63,0,120
1,note_on,56,0,0
1,note_on,63,36,120
1,note_on,56,31,0
1,note_on,65,31,0
1,note_on,65,0,120
1,note_on,56,0,0
1,note_on,63,0,0
1,note_on,56,32,120
1,note_on,63,32,0
1,note_on,67,41,0
1,note_on,67,0,120
1,note_on,63,0,0
1,note_on,56,0,0
1,note_on,56,32,120
1,note_on,63,32,0
1,note_on,68,39,0
1,note_on,68,0,120
1,note_on,63,0,0
1,note_on,56,0,0
1,note_on,56,34,120
1,note_on,63,39,0
1,note_on,63,0,120
1,note_on,56,0,0
1,note_on,63,39,120
1,note_on,56,34,0
1,note_on,65,34,0
1,note_on,65,0,120
1,note_on,56,0,0
1,note_on,63,0,0
1,note_on,56,34,120
1,note_on,63,34,0
1,note_on,67,44,0
1,note_on,67,0,120
1,note_on,63,0,0
1,note_on,56,0,0
1,note_on,70,48,120
1,note_on,70,0,120
1,note_on,56,36,120
1,note_on,63,36,0
1,note_on,68,44,0
1,note_on,68,0,120
1,note_on,63,0,0
1,note_on,56,0,0
1,note_on,63,44,120
1,note_on,56,36,0
1,note_on,65,36,0
1,note_on,65,0,120
1,note_on,56,0,0
1,note_on,63,0,0
1,note_on,56,36,120
1,note_on,63,36,0
1,note_on,67,45,0
1,note_on,67,0,120
1,note_on,63,0,0
1,note_on,56,0,0
1,note_on,56,36,120
1,note_on,63,43,0
1,note_on,63,0,120
1,note_on,56,0,0
1,note_on,60,48,120
1,note_on,66,48,0
1,note_on,66,0,120
1,note_on,60,0,0
1,note_on,66,44,120
1,note_on,68,44,0
1,note_on,60,44,0
1,note_on,60,0,120
1,note_on,68,0,0
1,note_on,66,0,0
1,note_on,60,47,120
1,note_on,66,47,0
1,note_on,70,47,0
1,note_on,70,0,120
1,note_on,66,0,0
1,note_on,60,0,0
1,note_on,60,37,120
1,note_on,66,37,0
1,note_on,72,46,0
1,note_on,72,0,120
1,note_on,66,0,0
1,note_on,60,0,0
1,note_on,60,48,120
1,note_on,66,48,0
1,note_on,66,0,120
1,note_on,60,0,0
1,note_on,66,44,120
1,note_on,60,37,0
1,note_on,68,37,0
1,note_on,68,0,120
1,note_on,60,0,0
1,note_on,66,0,0
1,note_on,60,47,120
1,note_on,66,47,0
1,note_on,70,47,0
1,note_on,70,0,120
1,note_on,66,0,0
1,note_on,60,0,0
1,note_on,60,37,120
1,note_on,66,37,0
1,note_on,72,45,0
1,note_on,72,0,120
1,note_on,66,0,0
1,note_on,60,0,0
1,note_on,60,47,120
1,note_on,66,47,0
1,note_on,66,0,120
1,note_on,60,0,0
1,note_on,66,46,120
1,note_on,60,46,0
1,note_on,68,46,0
1,note_on,68,0,120
1,note_on,60,0,0
1,note_on,66,0,0
1,note_on,60,56,120
1,note_on,66,56,0
1,note_on,70,56,0
1,note_on,70,0,120
1,note_on,66,0,0
1,note_on,60,0,0
1,note_on,73,50,120
1,note_on,73,0,120
1,note_on,60,55,120
1,note_on,66,55,0
1,note_on,72,55,0
1,note_on,72,0,120
1,note_on,66,0,0
1,note_on,60,0,0
1,note_on,68,48,120
1,note_on,60,40,0
1,note_on,66,40,0
1,note_on,66,0,120
1,note_on,60,0,0
1,note_on,68,0,0
1,note_on,60,40,120
1,note_on,66,40,0
1,note_on,70,50,0
1,note_on,70,0,120
1,note_on,66,0,0
1,note_on,60,0,0
1,note_on,60,40,120
1,note_on,66,47,0
1,note_on,66,0,120
1,note_on,60,0,0
1,note_on,61,59,120
1,note_on,68,59,0
1,note_on,68,0,120
1,note_on,61,0,0
1,note_on,68,52,120
1,note_on,70,52,0
1,note_on,61,52,0
1,note_on,61,0,120
1,note_on,70,0,0
1,note_on,68,0,0
1,note_on,61,57,120
1,note_on,68,57,0
1,note_on,72,57,0
1,note_on,72,0,120
1,note_on,68,0,0
1,note_on,61,0,0
1,note_on,61,55,120
1,note_on,68,55,0
1,note_on,73,55,0
1,note_on,73,0,120
1,note_on,68,0,0
1,note_on,61,0,0
1,note_on,61,59,120
1,note_on,68,59,0
1,note_on,68,0,120
1,note_on,61,0,0
1,note_on,68,53,120
1,note_on,61,53,0
1,note_on,70,53,0
1,note_on,70,0,120
1,note_on,61,0,0
1,note_on,68,0,0
1,note_on,61,59,120
1,note_on,68,59,0
1,note_on,72,59,0
1,note_on,72,0,120
1,note_on,68,0,0
1,note_on,61,0,0
1,note_on,61,55,120
1,note_on,68,55,0
1,note_on,73,55,0
1,note_on,73,0,120
1,note_on,68,0,0
1,note_on,61,0,0
1,note_on,61,59,120
1,note_on,68,59,0
1,note_on,68,0,120
1,note_on,61,0,0
1,note_on,68,57,120
1,note_on,61,57,0
1,note_on,70,57,0
1,note_on,70,0,120
1,note_on,61,0,0
1,note_on,68,0,0
1,note_on,61,64,120
1,note_on,68,64,0
1,note_on,72,64,0
1,note_on,72,0,120
1,note_on,68,0,0
1,note_on,61,0,0
1,note_on,75,64,120
1,note_on,75,0,120
1,note_on,61,62,120
1,note_on,68,62,0
1,note_on,73,62,0
1,note_on,73,0,120
1,note_on,68,0,0
1,note_on,61,0,0
1,note_on,70,59,120
1,note_on,61,48,0
1,note_on,68,48,0
1,note_on,68,0,120
1,note_on,61,0,0
1,note_on,70,0,0
1,note_on,61,48,120
1,note_on,68,48,0
1,note_on,72,61,0
1,note_on,72,0,120
1,note_on,68,0,0
1,note_on,61,0,0
1,note_on,61,48,120
1,note_on,68,57,0
1,note_on,68,0,120
1,note_on,61,0,0
1,note_on,62,71,120
1,note_on,68,71,0
1,note_on,68,0,120
1,note_on,62,0,0
1,note_on,68,63,120
1,note_on,62,63,0
1,note_on,70,63,0
1,note_on,70,0,120
1,note_on,62,0,0
1,note_on,68,0,0
1,note_on,62,70,120
1,note_on,68,70,0
1,note_on,72,70,0
1,note_on,72,0,120
1,note_on,68,0,0
1,note_on,62,0,0
1,note_on,75,75,120
1,note_on,75,0,120
1,note_on,62,69,120
1,note_on,68,69,0
1,note_on,74,69,0
1,note_on,74,0,120
1,note_on,68,0,0
1,note_on,62,0,0
1,note_on,70,63,120
1,note_on,62,52,0
1,note_on,68,52,0
1,note_on,68,0,120
1,note_on,62,0,0
1,note_on,70,0,0
1,note_on,62,52,120
1,note_on,68,52,0
1,note_on,72,66,0
1,note_on,72,0,120
1,note_on,68,0,0
1,note_on,62,0,0
1,note_on,68,62,120
1,note_on,68,0,120
1,note_on,74,70,120
1,note_on,72,70,0
1,note_on,68,70,0
1,note_on,68,0,120
1,note_on,72,0,0
1,note_on,74,0,0
1,note_on,68,66,120
1,note_on,75,66,0
1,note_on,72,66,0
1,note_on,72,0,120
1,note_on,75,0,0
1,note_on,68,0,0
1,note_on,77,72,120
1,note_on,68,72,0
1,note_on,72,72,0
1,note_on,72,0,120
1,note_on,68,0,0
1,note_on,77,0,0
1,note_on,80,81,120
1,note_on,80,0,120
1,note_on,79,80,120
1,note_on,68,80,0
1,note_on,72,80,0
1,note_on,72,0,120
1,note_on,68,0,0
1,note_on,79,0,0
1,note_on,72,72,120
1,note_on,75,72,0
1,note_on,68,72,0
1,note_on,68,0,120
1,note_on,75,0,0
1,note_on,72,0,0
1,note_on,77,80,120
1,note_on,68,80,0
1,note_on,72,80,0
1,note_on,72,0,120
1,note_on,68,0,0
1,note_on,77,0,0
1,note_on,74,66,120
1,note_on,74,0,120
1,note_on,77,75,120
1,note_on,77,0,120
1,note_on,79,75,120
1,note_on,79,0,120
1,note_on,80,81,120
1,note_on,80,0,120
1,note_on,84,75,120
1,note_on,84,0,120
1,note_on,80,75,120
1,note_on,80,0,120
1,note_on,77,75,120
1,note_on,77,0,120
1,note_on,80,81,120
1,note_on,80,0,120
1,note_on,77,75,120
1,note_on,77,0,120
1,note_on,74,75,120
1,note_on,74,0,120
1,note_on,77,75,120
1,note_on,77,0,120
1,note_on,74,81,120
1,note_on,74,0,120
1,note_on,70,75,120
1,note_on,70,0,120
1,note_on,74,75,120
1,note_on,74,0,120
1,note_on,70,75,120
1,note_on,70,0,120
1,note_on,67,81,120
1,note_on,67,0,120
1,note_on,70,75,120
1,note_on,70,0,120
1,note_on,67,75,120
1,note_on,67,0,120
1,note_on,63,75,120
1,note_on,63,0,120
1,note_on,67,85,120
1,note_on,67,0,120
1,note_on,63,80,120
1,note_on,63,0,120
1,note_on,60,80,120
1,note_on,60,0,120
1,note_on,63,80,120
1,note_on,63,0,120
1,note_on,60,93,120
1,note_on,60,0,120
1,note_on,56,86,120
1,note_on,56,0,120
1,note_on,60,89,120
1,note_on,60,0,120
1,note_on,56,103,120
1,note_on,56,0,120
1,note_on,55,108,0
1,note_on,68,93,480
1,note_on,56,83,0
1,note_on,60,83,0
1,note_on,63,83,0
1,note_on,63,0,480
1,note_on,56,0,0
1,note_on,60,0,0
1,note_on,68,0,0
1,note_on,80,93,0
1,note_on,75,83,0
1,note_on,68,83,0
1,note_on,72,83,0
1,note_on,72,0,480
1,note_on,75,0,0
1,note_on,68,0,0
1,note_on,80,0,0
1,note_on,92,91,0
1,note_on,87,81,0
1,note_on,84,81,0
1,note_on,80,81,0
1,note_on,80,0,480
1,note_on,87,0,0
1,note_on,55,0,0
1,note_on,92,0,0
1,note_on,84,0,0
1,note_on,54,108,0
1,note_on,68,93,480
1,note_on,56,83,0
1,note_on,60,83,0
1,note_on,63,83,0
1,note_on,63,0,480
1,note_on,56,0,0
1,note_on,60,0,0
1,note_on,68,0,0
1,note_on,80,93,0
1,note_on,75,83,0
1,note_on,68,83,0
1,note_on,72,83,0
1,note_on,72,0,480
1,note_on,75,0,0
1,note_on,68,0,0
1,note_on,80,0,0
1,note_on,92,91,0
1,note_on,87,81,0
1,note_on,84,81,0
1,note_on,80,81,0
1,note_on,80,0,480
1,note_on,87,0,0
1,note_on,54,0,0
1,note_on,92,0,0
1,note_on,84,0,0
1,note_on,53,111,0
1,note_on,68,93,480
1,note_on,56,83,0
1,note_on,59,83,0
1,note_on,63,83,0
1,note_on,63,0,480
1,note_on,56,0,0
1,note_on,59,0,0
1,note_on,68,0,0
1,note_on,80,93,0
1,note_on,75,83,0
1,note_on,68,83,0
1,note_on,71,83,0
1,note_on,71,0,480
1,note_on,75,0,0
1,note_on,68,0,0
1,note_on,80,0,0
1,note_on,92,91,0
1,note_on,87,81,0
1,note_on,83,81,0
1,note_on,80,81,0
1,note_on,80,0,480
1,note_on,87,0,0
1,note_on,53,0,0
1,note_on,92,0,0
1,note_on,83,0,0
1,note_on,52,111,0
1,note_on,57,83,480
1,note_on,69,93,0
1,note_on,55,83,0
1,note_on,61,83,0
1,note_on,67,93,0
1,note_on,67,0,480
1,note_on,57,0,0
1,note_on,69,0,0
1,note_on,55,0,0
1,note_on,61,0,0
1,note_on,67,83,0
1,note_on,81,93,0
1,note_on,79,93,0
1,note_on,69,83,0
1,note_on,73,83,0
1,note_on,73,0,480
1,note_on,67,0,0
1,note_on,81,0,0
1,note_on,79,0,0
1,note_on,69,0,0
1,note_on,81,78,0
1,note_on,93,86,0
1,note_on,91,86,0
1,note_on,85,78,0
1,note_on,79,78,0
1,note_on,79,0,240
1,note_on,81,0,0
1,note_on,93,0,0
1,note_on,91,0,0
1,note_on,85,0,0
1,note_on,81,88,0
1,note_on,81,0,80
1,note_on,83,88,0
1,note_on,83,0,80
1,note_on,81,88,0
1,note_on,81,0,80
1,note_on,52,0,0
1,note_on,78,97,0
1,note_on,81,97,240
1,note_on,81,0,240
1,note_on,78,0,0
1,note_on,81,90,0
1,note_on,86,101,0
1,note_on,78,90,0
1,note_on,78,0,120
1,note_on,86,0,0
1,note_on,81,0,0
1,note_on,81,83,120
1,note_on,90,93,0
1,note_on,78,83,0
1,note_on,78,0,120
1,note_on,90,0,0
1,note_on,81,0,0
1,note_on,81,75,120
1,note_on,88,102,0
1,note_on,78,75,0
1,note_on,88,0,240
1,note_on,86,93,0
1,note_on,86,0,240
1,note_on,78,0,0
1,note_on,81,0,0
1,note_on,74,89,0
1,note_on,78,93,0
1,note_on,78,0,120
1,note_on,74,0,0
1,note_on,74,81,120
1,note_on,81,90,0
1,note_on,78,81,0
1,note_on,78,0,120
1,note_on,81,0,0
1,note_on,74,0,0
1,note_on,74,85,120
1,note_on,83,95,0
1,note_on,81,85,0
1,note_on,78,85,0
1,note_on,78,0,240
1,note_on,74,0,0
1,note_on,83,0,0
1,note_on,81,0,0
1,note_on,74,77,240
1,note_on,83,86,0
1,note_on,81,77,0
1,note_on,78,77,0
1,note_on,78,0,240
1,note_on,74,0,0
1,note_on,83,0,0
1,note_on,81,0,0
1,note_on,74,77,120
1,note_on,83,86,0
1,note_on,81,77,0
1,note_on,78,77,0
1,note_on,78,0,120
1,note_on,74,0,0
1,note_on,83,0,0
1,note_on,81,0,0
1,note_on,74,77,0
1,note_on,83,86,0
1,note_on,81,86,0
1,note_on,78,77,0
1,note_on,78,0,480
1,note_on,74,0,0
1,note_on,83,0,0
1,note_on,81,0,0
1,note_on,74,90,0
1,note_on,78,90,0
1,note_on,78,0,120
1,note_on,74,0,0
1,note_on,74,90,120
1,note_on,80,90,0
1,note_on,78,90,0
1,note_on,78,0,120
1,note_on,80,0,0
1,note_on,74,0,0
1,note_on,74,87,120
1,note_on,78,87,0
1,note_on,81,97,0
1,note_on,81,0,240
1,note_on,83,89,0
1,note_on,83,0,240
1,note_on,78,0,0
1,note_on,74,0,0
1,note_on,78,93,0
1,note_on,74,93,0
1,note_on,74,0,120
1,note_on,78,0,0
1,note_on,80,90,120
1,note_on,78,90,0
1,note_on,74,90,0
1,note_on,74,0,120
1,note_on,78,0,0
1,note_on,80,0,0
1,note_on,81,97,120
1,note_on,74,87,0
1,note_on,78,87,0
1,note_on,81,0,240
1,note_on,83,89,0
1,note_on,83,0,240
1,note_on,78,0,0
1,note_on,74,0,0
1,note_on,74,93,0
1,note_on,78,93,0
1,note_on,78,0,120
1,note_on,74,0,0
1,note_on,80,93,120
1,note_on,74,93,0
1,note_on,78,93,0
1,note_on,78,0,120
1,note_on,74,0,0
1,note_on,80,0,0
1,note_on,69,87,120
1,note_on,74,87,0
1,note_on,76,87,0
1,note_on,81,97,0
1,note_on,81,0,240
1,note_on,69,0,0
1,note_on,74,0,0
1,note_on,76,0,0
1,note_on,76,75,240
1,note_on,69,75,0
1,note_on,73,75,0
1,note_on,81,84,0
1,note_on,81,0,240
1,note_on,76,0,0
1,note_on,69,0,0
1,note_on,73,0,0
1,note_on,69,75,120
1,note_on,76,75,0
1,note_on,73,75,0
1,note_on,81,84,0
1,note_on,81,0,120
1,note_on,69,0,0
1,note_on,76,0,0
1,note_on,73,0,0
1,note_on,69,75,0
1,note_on,76,75,0
1,note_on,73,75,0
1,note_on,81,84,0
1,note_on,81,0,480
1,note_on,69,0,0
1,note_on,76,0,0
1,note_on,73,0,0
1,note_on,85,89,240
1,note_on,85,0,80
1,note_on,86,89,0
1,note_on,86,0,80
1,note_on,85,89,0
1,note_on,85,0,80
1,note_on,83,96,0
1,note_on,86,96,240
1,note_on,86,0,240
1,note_on,83,0,0
1,note_on,86,89,0
1,note_on,91,99,0
1,note_on,83,89,0
1,note_on,83,0,120
1,note_on,91,0,0
1,note_on,86,0,0
1,note_on,86,81,120
1,note_on,95,91,0
1,note_on,83,81,0
1,note_on,83,0,120
1,note_on,95,0,0
1,note_on,86,0,0
1,note_on,93,97,120
1,note_on,83,76,0
1,note_on,93,0,240
1,note_on,91,86,0
1,note_on,91,0,240
1,note_on,83,0,0
1,note_on,83,86,0
1,note_on,79,76,0
1,note_on,79,0,120
1,note_on,83,0,0
1,note_on,83,76,120
1,note_on,86,86,0
1,note_on,79,76,0
1,note_on,79,0,120
1,note_on,86,0,0
1,note_on,83,0,0
1,note_on,90,90,120
1,note_on,86,80,0
1,note_on,83,80,0
1,note_on,79,80,0
1,note_on,79,0,240
1,note_on,90,0,0
1,note_on,86,0,0
1,note_on,83,0,0
1,note_on,90,80,240
1,note_on,86,72,0
1,note_on,83,72,0
1,note_on,79,72,0
1,note_on,79,0,240
1,note_on,90,0,0
1,note_on,86,0,0
1,note_on,83,0,0
1,note_on,90,80,120
1,note_on,86,72,0
1,note_on,83,72,0
1,note_on,79,72,0
1,note_on,79,0,120
1,note_on,90,0,0
1,note_on,86,0,0
1,note_on,83,0,0
1,note_on,90,80,0
1,note_on,86,72,0
1,note_on,83,72,0
1,note_on,79,72,0
1,note_on,79,0,480
1,note_on,90,0,0
1,note_on,86,0,0
1,note_on,83,0,0
1,note_on,83,86,0
1,note_on,79,86,0
1,note_on,79,0,120
1,note_on,83,0,0
1,note_on,85,86,120
1,note_on,83,86,0
1,note_on,79,86,0
1,note_on,79,0,120
1,note_on,83,0,0
1,note_on,85,0,0
1,note_on,86,96,120
1,note_on,79,86,0
1,note_on,83,86,0
1,note_on,86,0,240
1,note_on,88,86,0
1,note_on,88,0,240
1,note_on,83,0,0
1,note_on,79,0,0
1,note_on,83,91,0
1,note_on,79,91,0
1,note_on,79,0,120
1,note_on,83,0,0
1,note_on,85,89,120
1,note_on,83,89,0
1,note_on,79,89,0
1,note_on,79,0,120
1,note_on,83,0,0
1,note_on,85,0,0
1,note_on,86,96,120
1,note_on,83,86,0
1,note_on,79,86,0
1,note_on,86,0,240
1,note_on,88,89,0
1,note_on,88,0,240
1,note_on,79,0,0
1,note_on,83,0,0
1,note_on,83,91,0
1,note_on,79,91,0
1,note_on,79,0,120
1,note_on,83,0,0
1,note_on,85,91,120
1,note_on,83,91,0
1,note_on,79,91,0
1,note_on,79,0,120
1,note_on,83,0,0
1,note_on,85,0,0
1,note_on,74,84,120
1,note_on,86,94,0
1,note_on,81,84,0
1,note_on,79,84,0
1,note_on,79,0,240
1,note_on,74,0,0
1,note_on,86,0,0
1,note_on,81,0,0
1,note_on,81,73,240
1,note_on,74,73,0
1,note_on,86,81,0
1,note_on,78,73,0
1,note_on,78,0,240
1,note_on,81,0,0
1,note_on,74,0,0
1,note_on,86,0,0
1,note_on,81,73,120
1,note_on,74,73,0
1,note_on,86,81,0
1,note_on,78,73,0
1,note_on,78,0,120
1,note_on,81,0,0
1,note_on,74,0,0
1,note_on,86,0,0
1,note_on,81,73,0
1,note_on,74,73,0
1,note_on,86,81,0
1,note_on,78,73,0
1,note_on,78,0,240
1,note_on,81,0,0
1,note_on,74,0,0
1,note_on,86,0,0
1,note_on,71,44,1920
1,note_on,59,30,0
1,note_on,62,30,0
1,note_on,71,0,240
1,note_on,69,46,0
1,note_on,69,0,480
1,note_on,67,42,0
1,note_on,67,0,240
1,note_on,62,0,0
1,note_on,59,0,0
1,note_on,59,30,0
1,note_on,62,30,0
1,note_on,66,44,0
1,note_on,66,0,960
1,note_on,62,0,0
1,note_on,59,0,0
1,note_on,69,44,0
1,note_on,57,30,0
1,note_on,60,30,0
1,note_on,69,0,240
1,note_on,67,46,0
1,note_on,67,0,480
1,note_on,66,40,0
1,note_on,66,0,240
1,note_on,60,0,0
1,note_on,57,0,0
1,note_on,57,30,0
1,note_on,60,30,0
1,note_on,64,44,0
1,note_on,64,0,960
1,note_on,60,0,0
1,note_on,57,0,0
1,note_on,67,45,0
1,note_on,55,31,0
1,note_on,59,31,0
1,note_on,67,0,240
1,note_on,66,46,0
1,note_on,66,0,480
1,note_on,64,40,0
1,note_on,64,0,240
1,note_on,59,0,0
1,note_on,55,0,0
1,note_on,55,34,0
1,note_on,62,31,0
1,note_on,67,46,0
1,note_on,67,0,960
1,note_on,62,0,0
1,note_on,55,0,0
1,note_on,66,45,0
1,note_on,55,44,0
1,note_on,61,44,0
1,note_on,66,0,240
1,note_on,64,46,0
1,note_on,64,0,480
1,note_on,66,42,0
1,note_on,66,0,240
1,note_on,61,0,0
1,note_on,55,0,0
1,note_on,54,44,0
1,note_on,62,44,0
1,note_on,62,0,960
1,note_on,54,0,0
1,note_on,64,40,0
1,note_on,71,40,0
1,note_on,76,56,0
1,note_on,76,0,240
1,note_on,74,55,0
1,note_on,74,0,480
1,note_on,72,44,0
1,note_on,72,0,240
1,note_on,71,0,0
1,note_on,64,0,0
1,note_on,64,40,0
1,note_on,67,40,0
1,note_on,71,45,0
1,note_on,71,0,960
1,note_on,67,0,0
1,note_on,64,0,0
1,note_on,62,36,0
1,note_on,69,36,0
1,note_on,74,51,0
1,note_on,74,0,240
1,note_on,72,55,0
1,note_on,72,0,480
1,note_on,71,44,0
1,note_on,71,0,240
1,note_on,69,0,0
1,note_on,62,0,0
1,note_on,62,38,0
1,note_on,66,38,0
1,note_on,69,45,0
1,note_on,69,0,960
1,note_on,66,0,0
1,note_on,62,0,0
1,note_on,60,36,0
1,note_on,67,36,0
1,note_on,72,52,0
1,note_on,72,0,240
1,note_on,71,55,0
1,note_on,71,0,480
1,note_on,69,47,0
1,note_on,69,0,240
1,note_on,67,0,0
1,note_on,60,0,0
1,note_on,78,61,0
1,note_on,67,35,0
1,note_on,72,35,0
1,note_on,78,0,600
1,note_on,81,55,0
1,note_on,81,0,120
1,note_on,79,44,0
1,note_on,79,0,80
1,note_on,76,44,0
1,note_on,76,0,80
1,note_on,72,44,0
1,note_on,72,0,80
1,note_on,72,0,0
1,note_on,67,0,0
1,note_on,60,37,0
1,note_on,66,37,0
1,note_on,71,46,0
1,note_on,71,0,240
1,note_on,69,48,0
1,note_on,69,0,480
1,note_on,71,39,0
1,note_on,71,0,240
1,note_on,66,0,0
1,note_on,60,0,0
1,note_on,60,40,0
1,note_on,67,30,0
1,note_on,60,0,240
1,note_on,59,37,0
1,note_on,59,0,420
1,note_on,71,27,180
1,note_on,75,27,60
1,note_on,67,0,60
1,note_on,83,42,0
1,note_on,83,0,240
1,note_on,82,45,0
1,note_on,82,0,480
1,note_on,80,40,0
1,note_on,80,0,120
1,note_on,71,27,0
1,note_on,75,27,60
1,note_on,75,0,60
1,note_on,71,0,0
1,note_on,82,44,0
1,note_on,82,0,840
1,note_on,71,27,0
1,note_on,75,27,60
1,note_on,71,0,60
1,note_on,75,0,0
1,note_on,82,42,0
1,note_on,82,0,240
1,note_on,80,45,0
1,note_on,80,0,480
1,note_on,78,40,0
1,note_on,78,0,120
1,note_on,71,27,0
1,note_on,75,27,60
1,note_on,71,0,60
1,note_on,75,0,0
1,note_on,80,42,0
1,note_on,80,0,960
1,note_on,71,0,0
1,note_on,75,0,0
1,note_on,72,29,0
1,note_on,80,42,0
1,note_on,80,0,240
1,note_on,79,47,0
1,note_on,79,0,480
1,note_on,78,42,0
1,note_on,78,0,240
1,note_on,72,0,0
1,note_on,73,37,0
1,note_on,77,50,0
1,note_on,73,0,240
1,note_on,72,39,0
1,note_on,77,0,240
1,note_on,76,44,0
1,note_on,72,0,240
1,note_on,71,35,0
1,note_on,71,0,240
1,note_on,76,0,0
1,note_on,70,31,0
1,note_on,75,38,0
1,note_on,75,0,240
1,note_on,73,42,0
1,note_on,73,0,480
1,note_on,75,42,0
1,note_on,75,0,240
1,note_on,70,0,0
1,note_on,66,30,0
1,note_on,71,30,0
1,note_on,71,0,660
1,note_on,66,0,0
1,note_on,67,23,180
1,note_on,71,23,60
1,note_on,79,37,0
1,note_on,79,0,240
1,note_on,78,39,0
1,note_on,78,0,480
1,note_on,76,36,0
1,note_on,76,0,120
1,note_on,67,23,0
1,note_on,71,23,60
1,note_on,71,0,60
1,note_on,67,0,0
1,note_on,78,38,0
1,note_on,78,0,840
1,note_on,67,23,0
1,note_on,71,23,60
1,note_on,67,0,60
1,note_on,71,0,0
1,note_on,78,37,0
1,note_on,78,0,240
1,note_on,76,39,0
1,note_on,76,0,480
1,note_on,74,36,0
1,note_on,74,0,120
1,note_on,67,23,0
1,note_on,71,23,60
1,note_on,67,0,60
1,note_on,71,0,0
1,note_on,76,38,0
1,note_on,76,0,960
1,note_on,67,0,0
1,note_on,71,0,0
1,note_on,68,27,0
1,note_on,76,39,0
1,note_on,76,0,240
1,note_on,75,45,0
1,note_on,75,0,480
1,note_on,74,39,0
1,note_on,74,0,240
1,note_on,68,0,0
1,note_on,69,35,0
1,note_on,73,47,0
1,note_on,69,0,240
1,note_on,68,37,0
1,note_on,73,0,240
1,note_on,72,40,0
1,note_on,68,0,240
1,note_on,67,31,0
1,note_on,67,0,240
1,note_on,72,0,0
1,note_on,66,29,0
1,note_on,71,36,0
1,note_on,71,0,240
1,note_on,69,39,0
1,note_on,69,0,480
1,note_on,66,39,0
1,note_on,66,0,240
1,note_on,66,0,0
1,note_on,62,28,0
1,note_on,62,0,960
1,note_on,71,35,0
1,note_on,59,26,0
1,note_on,62,26,0
1,note_on,71,0,240
1,note_on,69,36,0
1,note_on,69,0,480
1,note_on,67,34,0
1,note_on,67,0,240
1,note_on,62,0,0
1,note_on,59,0,0
1,note_on,59,26,0
1,note_on,62,26,0
1,note_on,66,36,0
1,note_on,66,0,960
1,note_on,62,0,0
1,note_on,59,0,0
1,note_on,69,36,0
1,note_on,57,26,0
1,note_on,60,26,0
1,note_on,69,0,240
1,note_on,67,38,0
1,note_on,67,0,480
1,note_on,66,35,0
1,note_on,66,0,240
1,note_on,60,0,0
1,note_on,57,0,0
1,note_on,57,26,0
1,note_on,60,26,0
1,note_on,64,36,0
1,note_on,64,0,960
1,note_on,60,0,0
1,note_on,57,0,0
1,note_on,67,37,0
1,note_on,55,27,0
1,note_on,59,27,0
1,note_on,67,0,240
1,note_on,66,38,0
1,note_on,66,0,480
1,note_on,64,35,0
1,note_on,64,0,240
1,note_on,59,0,0
1,note_on,55,0,0
1,note_on,55,27,0
1,note_on,62,27,0
1,note_on,67,27,0
1,note_on,67,0,960
1,note_on,62,0,0
1,note_on,55,0,0
1,note_on,66,37,0
1,note_on,55,36,0
1,note_on,61,36,0
1,note_on,66,0,240
1,note_on,64,38,0
1,note_on,64,0,480
1,note_on,66,35,0
1,note_on,66,0,240
1,note_on,61,0,0
1,note_on,55,0,0
1,note_on,54,36,0
1,note_on,62,36,0
1,note_on,62,0,960
1,note_on,54,0,0
1,note_on,64,35,0
1,note_on,71,35,0
1,note_on,76,47,0
1,note_on,76,0,240
1,note_on,74,46,0
1,note_on,74,0,480
1,note_on,72,36,0
1,note_on,72,0,240
1,note_on,71,0,0
1,note_on,64,0,0
1,note_on,64,35,0
1,note_on,67,35,0
1,note_on,71,38,0
1,note_on,71,0,960
1,note_on,67,0,0
1,note_on,64,0,0
1,note_on,62,29,0
1,note_on,69,29,0
1,note_on,74,42,0
1,note_on,74,0,240
1,note_on,72,46,0
1,note_on,72,0,480
1,note_on,71,36,0
1,note_on,71,0,240
1,note_on,69,0,0
1,note_on,62,0,0
1,note_on,62,31,0
1,note_on,66,31,0
1,note_on,69,38,0
1,note_on,69,0,960
1,note_on,66,0,0
1,note_on,62,0,0
1,note_on,60,29,0
1,note_on,67,29,0
1,note_on,72,44,0
1,note_on,72,0,240
1,note_on,71,46,0
1,note_on,71,0,480
1,note_on,69,39,0
1,note_on,69,0,240
1,note_on,67,0,0
1,note_on,60,0,0
1,note_on,78,51,0
1,note_on,67,28,0
1,note_on,72,28,0
1,note_on,78,0,600
1,note_on,81,46,0
1,note_on,81,0,120
1,note_on,79,36,0
1,note_on,79,0,80
1,note_on,76,36,0
1,note_on,76,0,80
1,note_on,72,36,0
1,note_on,72,0,80
1,note_on,72,0,0
1,note_on,67,0,0
1,note_on,60,30,0
1,note_on,66,30,0
1,note_on,71,38,0
1,note_on,71,0,240
1,note_on,69,40,0
1,note_on,69,0,480
1,note_on,71,34,0
1,note_on,71,0,240
1,note_on,66,0,0
1,note_on,60,0,0
1,note_on,60,35,0
1,note_on,67,26,0
1,note_on,60,0,240
1,note_on,59,30,0
1,note_on,59,0,480
1,note_on,71,27,120
1,note_on,75,27,60
1,note_on,67,0,60
1,note_on,83,42,0
1,note_on,83,0,240
1,note_on,82,45,0
1,note_on,82,0,480
1,note_on,80,40,0
1,note_on,80,0,120
1,note_on,71,27,0
1,note_on,75,27,60
1,note_on,75,0,60
1,note_on,71,0,0
1,note_on,82,42,0
1,note_on,82,0,840
1,note_on,71,27,0
1,note_on,75,27,60
1,note_on,71,0,60
1,note_on,75,0,0
1,note_on,82,42,0
1,note_on,82,0,240
1,note_on,80,45,0
1,note_on,80,0,480
1,note_on,78,40,0
1,note_on,78,0,120
1,note_on,71,27,0
1,note_on,75,27,60
1,note_on,71,0,60
1,note_on,75,0,0
1,note_on,80,42,0
1,note_on,80,0,960
1,note_on,71,0,0
1,note_on,75,0,0
1,note_on,72,29,0
1,note_on,80,42,0
1,note_on,80,0,240
1,note_on,79,47,0
1,note_on,79,0,480
1,note_on,78,42,0
1,note_on,78,0,240
1,note_on,72,0,0
1,note_on,73,37,0
1,note_on,77,50,0
1,note_on,73,0,240
1,note_on,72,39,0
1,note_on,77,0,240
1,note_on,76,44,0
1,note_on,72,0,240
1,note_on,71,35,0
1,note_on,71,0,240
1,note_on,76,0,0
1,note_on,70,31,0
1,note_on,75,38,0
1,note_on,75,0,240
1,note_on,73,42,0
1,note_on,73,0,480
1,note_on,75,42,0
1,note_on,75,0,240
1,note_on,70,0,0
1,note_on,66,30,0
1,note_on,71,30,0
1,note_on,71,0,660
1,note_on,66,0,0
1,note_on,67,23,180
1,note_on,71,23,60
1,note_on,79,37,0
1,note_on,79,0,240
1,note_on,78,39,0
1,note_on,78,0,480
1,note_on,76,36,0
1,note_on,76,0,120
1,note_on,67,23,0
1,note_on,71,23,60
1,note_on,71,0,60
1,note_on,67,0,0
1,note_on,78,38,0
1,note_on,78,0,840
1,note_on,67,23,0
1,note_on,71,23,60
1,note_on,67,0,60
1,note_on,71,0,0
1,note_on,78,37,0
1,note_on,78,0,240
1,note_on,76,39,0
1,note_on,76,0,480
1,note_on,74,36,0
1,note_on,74,0,120
1,note_on,67,23,0
1,note_on,71,23,60
1,note_on,67,0,60
1,note_on,71,0,0
1,note_on,76,38,0
1,note_on,76,0,960
1,note_on,67,0,0
1,note_on,71,0,0
1,note_on,68,27,0
1,note_on,76,39,0
1,note_on,76,0,240
1,note_on,75,45,0
1,note_on,75,0,480
1,note_on,74,39,0
1,note_on,74,0,240
1,note_on,68,0,0
1,note_on,69,35,0
1,note_on,73,47,0
1,note_on,69,0,240
1,note_on,68,37,0
1,note_on,73,0,240
1,note_on,72,40,0
1,note_on,68,0,240
1,note_on,67,31,0
1,note_on,67,0,240
1,note_on,72,0,0
1,note_on,66,29,0
1,note_on,71,36,0
1,note_on,71,0,240
1,note_on,69,39,0
1,note_on,69,0,480
1,note_on,66,39,0
1,note_on,66,0,240
1,note_on,66,0,0
1,note_on,62,28,0
1,note_on,62,0,960
1,note_on,71,35,0
1,note_on,59,26,0
1,note_on,62,26,0
1,note_on,71,0,240
1,note_on,69,36,0
1,note_on,69,0,480
1,note_on,67,34,0
1,note_on,67,0,240
1,note_on,62,0,0
1,note_on,59,0,0
1,note_on,59,26,0
1,note_on,62,26,0
1,note_on,66,36,0
1,note_on,66,0,960
1,note_on,62,0,0
1,note_on,59,0,0
1,note_on,69,36,0
1,note_on,57,26,0
1,note_on,60,26,0
1,note_on,69,0,240
1,note_on,67,38,0
1,note_on,67,0,480
1,note_on,66,35,0
1,note_on,66,0,240
1,note_on,60,0,0
1,note_on,57,0,0
1,note_on,57,26,0
1,note_on,60,26,0
1,note_on,64,37,0
1,note_on,64,0,960
1,note_on,60,0,0
1,note_on,57,0,0
1,note_on,67,37,0
1,note_on,55,27,0
1,note_on,59,27,0
1,note_on,67,0,240
1,note_on,66,38,0
1,note_on,66,0,480
1,note_on,64,35,0
1,note_on,64,0,240
1,note_on,59,0,0
1,note_on,55,0,0
1,note_on,55,27,0
1,note_on,62,27,0
1,note_on,67,27,0
1,note_on,67,0,960
1,note_on,62,0,0
1,note_on,55,0,0
1,note_on,66,37,0
1,note_on,55,36,0
1,note_on,61,36,0
1,note_on,66,0,240
1,note_on,64,38,0
1,note_on,64,0,480
1,note_on,66,35,0
1,note_on,66,0,240
1,note_on,61,0,0
1,note_on,55,0,0
1,note_on,54,36,0
1,note_on,62,36,0
1,note_on,62,0,960
1,note_on,54,0,0
1,note_on,64,35,0
1,note_on,71,35,0
1,note_on,76,47,0
1,note_on,76,0,240
1,note_on,74,46,0
1,note_on,74,0,480
1,note_on,72,36,0
1,note_on,72,0,240
1,note_on,71,0,0
1,note_on,64,0,0
1,note_on,64,35,0
1,note_on,67,35,0
1,note_on,71,38,0
1,note_on,71,0,960
1,note_on,67,0,0
1,note_on,64,0,0
1,note_on,62,29,0
1,note_on,69,29,0
1,note_on,74,42,0
1,note_on,74,0,240
1,note_on,72,46,0
1,note_on,72,0,480
1,note_on,71,36,0
1,note_on,71,0,240
1,note_on,69,0,0
1,note_on,62,0,0
1,note_on,62,31,0
1,note_on,66,31,0
1,note_on,69,38,0
1,note_on,69,0,960
1,note_on,66,0,0
1,note_on,62,0,0
1,note_on,60,29,0
1,note_on,67,29,0
1,note_on,72,44,0
1,note_on,72,0,240
1,note_on,71,46,0
1,note_on,71,0,480
1,note_on,69,39,0
1,note_on,69,0,240
1,note_on,67,0,0
1,note_on,60,0,0
1,note_on,78,51,0
1,note_on,67,28,0
1,note_on,72,28,0
1,note_on,78,0,600
1,note_on,81,46,0
1,note_on,81,0,120
1,note_on,79,36,0
1,note_on,79,0,80
1,note_on,76,36,0
1,note_on,76,0,80
1,note_on,72,36,0
1,note_on,72,0,80
1,note_on,72,0,0
1,note_on,67,0,0
1,note_on,60,30,0
1,note_on,66,30,0
1,note_on,71,38,0
1,note_on,71,0,240
1,note_on,69,40,0
1,note_on,69,0,480
1,note_on,71,34,0
1,note_on,71,0,240
1,note_on,66,0,0
1,note_on,60,0,0
1,note_on,60,35,0
1,note_on,67,26,0
1,note_on,60,0,240
1,note_on,59,30,0
1,note_on,59,0,480
1,note_on,67,0,240
1,note_on,50,31,480
1,note_on,57,31,0
1,note_on,57,0,240
1,note_on,50,0,0
1,note_on,50,31,0
1,note_on,57,31,0
1,note_on,57,0,240
1,note_on,50,0,0
1,note_on,50,36,0
1,note_on,57,36,0
1,note_on,57,0,240
1,note_on,50,0,0
1,note_on,50,31,1200
1,note_on,57,31,0
1,note_on,57,0,240
1,note_on,50,0,0
1,note_on,50,31,0
1,note_on,57,31,0
1,note_on,57,0,240
1,note_on,50,0,0
1,note_on,50,35,0
1,note_on,57,35,0
1,note_on,57,0,240
1,note_on,50,0,0
1,note_on,69,39,480
1,note_on,69,0,80
1,note_on,71,39,0
1,note_on,71,0,80
1,note_on,69,41,0
1,note_on,69,0,80
1,note_on,66,44,0
1,note_on,69,44,240
1,note_on,69,0,240
1,note_on,66,0,0
1,note_on,74,45,0
1,note_on,66,42,0
1,note_on,66,0,60
1,note_on,74,0,0
1,note_on,78,42,180
1,note_on,66,45,0
1,note_on,66,0,60
1,note_on,78,0,0
1,note_on,76,45,180
1,note_on,66,37,0
1,note_on,76,0,240
1,note_on,74,42,0
1,note_on,74,0,240
1,note_on,66,0,0
1,note_on,66,42,0
1,note_on,66,0,60
1,note_on,69,41,180
1,note_on,66,41,0
1,note_on,66,0,60
1,note_on,69,0,0
1,note_on,71,45,180
1,note_on,69,45,0
1,note_on,66,45,0
1,note_on,66,0,240
1,note_on,69,0,0
1,note_on,71,0,0
1,note_on,71,41,240
1,note_on,69,41,0
1,note_on,66,41,0
1,note_on,66,0,240
1,note_on,69,0,0
1,note_on,71,0,0
1,note_on,71,41,120
1,note_on,69,41,0
1,note_on,66,41,0
1,note_on,66,0,120
1,note_on,69,0,0
1,note_on,71,0,0
1,note_on,71,41,0
1,note_on,69,41,0
1,note_on,66,41,0
1,note_on,66,0,480
1,note_on,69,0,0
1,note_on,71,0,0
1,note_on,62,42,0
1,note_on,66,42,0
1,note_on,66,0,60
1,note_on,62,0,0
1,note_on,62,42,180
1,note_on,68,42,0
1,note_on,66,42,0
1,note_on,66,0,60
1,note_on,68,0,0
1,note_on,62,0,0
1,note_on,62,45,180
1,note_on,66,45,0
1,note_on,69,45,0
1,note_on,69,0,240
1,note_on,71,42,0
1,note_on,71,0,240
1,note_on,66,0,0
1,note_on,62,0,0
1,note_on,66,44,0
1,note_on,62,44,0
1,note_on,62,0,60
1,note_on,66,0,0
1,note_on,68,44,180
1,note_on,66,44,0
1,note_on,62,44,0
1,note_on,62,0,60
1,note_on,66,0,0
1,note_on,68,0,0
1,note_on,69,45,180
1,note_on,62,45,0
1,note_on,66,45,0
1,note_on,69,0,240
1,note_on,71,42,0
1,note_on,71,0,240
1,note_on,66,0,0
1,note_on,62,0,0
1,note_on,62,44,0
1,note_on,66,44,0
1,note_on,66,0,60
1,note_on,62,0,0
1,note_on,68,44,180
1,note_on,62,44,0
1,note_on,66,44,0
1,note_on,66,0,60
1,note_on,62,0,0
1,note_on,68,0,0
1,note_on,62,47,180
1,note_on,64,47,0
1,note_on,69,47,0
1,note_on,69,0,240
1,note_on,64,0,0
1,note_on,62,0,0
1,note_on,61,42,240
1,note_on,69,42,0
1,note_on,69,0,240
1,note_on,61,0,0
1,note_on,61,42,120
1,note_on,69,42,0
1,note_on,69,0,120
1,note_on,61,0,0
1,note_on,61,42,0
1,note_on,69,42,0
1,note_on,69,0,240
1,note_on,61,0,0
1,note_on,73,44,480
1,note_on,73,0,80
1,note_on,74,44,0
1,note_on,74,0,80
1,note_on,73,44,0
1,note_on,73,0,80
1,note_on,71,47,0
1,note_on,74,47,240
1,note_on,74,0,240
1,note_on,71,0,0
1,note_on,79,49,0
1,note_on,71,49,0
1,note_on,71,0,60
1,note_on,79,0,0
1,note_on,83,45,180
1,note_on,71,45,0
1,note_on,71,0,60
1,note_on,83,0,0
1,note_on,81,48,180
1,note_on,71,41,0
1,note_on,81,0,240
1,note_on,79,42,0
1,note_on,79,0,240
1,note_on,71,0,0
1,note_on,71,42,0
1,note_on,67,42,0
1,note_on,67,0,60
1,note_on,71,0,0
1,note_on,71,42,180
1,note_on,74,42,0
1,note_on,67,42,0
1,note_on,67,0,60
1,note_on,74,0,0
1,note_on,71,0,0
1,note_on,78,46,180
1,note_on,74,46,0
1,note_on,71,46,0
1,note_on,67,46,0
1,note_on,67,0,240
1,note_on,78,0,0
1,note_on,74,0,0
1,note_on,71,0,0
1,note_on,78,42,240
1,note_on,74,42,0
1,note_on,71,42,0
1,note_on,67,42,0
1,note_on,67,0,240
1,note_on,78,0,0
1,note_on,74,0,0
1,note_on,71,0,0
1,note_on,78,42,120
1,note_on,74,42,0
1,note_on,71,42,0
1,note_on,67,42,0
1,note_on,67,0,120
1,note_on,78,0,0
1,note_on,74,0,0
1,note_on,71,0,0
1,note_on,78,42,0
1,note_on,74,42,0
1,note_on,71,42,0
1,note_on,67,42,0
1,note_on,67,0,480
1,note_on,78,0,0
1,note_on,74,0,0
1,note_on,71,0,0
1,note_on,71,42,0
1,note_on,67,42,0
1,note_on,67,0,60
1,note_on,71,0,0
1,note_on,73,42,180
1,note_on,71,42,0
1,note_on,67,42,0
1,note_on,67,0,60
1,note_on,71,0,0
1,note_on,73,0,0
1,note_on,74,46,180
1,note_on,67,46,0
1,note_on,71,46,0
1,note_on,74,0,240
1,note_on,76,42,0
1,note_on,76,0,240
1,note_on,71,0,0
1,note_on,67,0,0
1,note_on,71,45,0
1,note_on,67,45,0
1,note_on,67,0,60
1,note_on,71,0,0
1,note_on,73,45,180
1,note_on,71,45,0
1,note_on,67,45,0
1,note_on,67,0,60
1,note_on,71,0,0
1,note_on,73,0,0
1,note_on,74,47,180
1,note_on,71,47,0
1,note_on,67,47,0
1,note_on,74,0,240
1,note_on,76,44,0
1,note_on,76,0,240
1,note_on,67,0,0
1,note_on,71,0,0
1,note_on,71,45,0
1,note_on,67,45,0
1,note_on,67,0,60
1,note_on,71,0,0
1,note_on,73,45,180
1,note_on,71,45,0
1,note_on,67,45,0
1,note_on,67,0,60
1,note_on,71,0,0
1,note_on,73,0,0
1,note_on,74,49,180
1,note_on,69,49,0
1,note_on,67,49,0
1,note_on,67,0,240
1,note_on,69,0,0
1,note_on,74,0,0
1,note_on,74,45,240
1,note_on,66,45,0
1,note_on,66,0,240
1,note_on,74,0,0
1,note_on,74,45,120
1,note_on,66,45,0
1,note_on,66,0,120
1,note_on,74,0,0
1,note_on,74,45,0
1,note_on,66,45,0
1,note_on,66,0,240
1,note_on,74,0,0
1,note_on,62,27,480
1,note_on,69,27,0
1,note_on,69,0,240
1,note_on,62,0,0
1,note_on,62,27,0
1,note_on,69,27,0
1,note_on,69,0,240
1,note_on,62,0,0
1,note_on,62,33,0
1,note_on,69,33,0
1,note_on,69,0,240
1,note_on,62,0,0
1,note_on,62,27,1200
1,note_on,69,27,0
1,note_on,69,0,240
1,note_on,62,0,0
1,note_on,62,27,0
1,note_on,69,27,0
1,note_on,69,0,240
1,note_on,62,0,0
1,note_on,62,31,0
1,note_on,69,31,0
1,note_on,69,0,240
1,note_on,62,0,0
1,note_on,81,35,480
1,note_on,81,0,80
1,note_on,83,35,0
1,note_on,83,0,80
1,note_on,81,36,0
1,note_on,81,0,80
1,note_on,78,39,0
1,note_on,81,39,240
1,note_on,81,0,240
1,note_on,78,0,0
1,note_on,86,39,0
1,note_on,78,39,0
1,note_on,78,0,60
1,note_on,86,0,0
1,note_on,90,37,180
1,note_on,78,37,0
1,note_on,78,0,60
1,note_on,90,0,0
1,note_on,88,41,180
1,note_on,78,33,0
1,note_on,88,0,240
1,note_on,86,37,0
1,note_on,86,0,240
1,note_on,78,0,0
1,note_on,78,37,0
1,note_on,78,0,60
1,note_on,81,36,180
1,note_on,78,36,0
1,note_on,78,0,60
1,note_on,81,0,0
1,note_on,83,39,180
1,note_on,81,39,0
1,note_on,78,39,0
1,note_on,78,0,240
1,note_on,81,0,0
1,note_on,83,0,0
1,note_on,83,37,240
1,note_on,81,37,0
1,note_on,78,37,0
1,note_on,78,0,240
1,note_on,81,0,0
1,note_on,83,0,0
1,note_on,83,37,120
1,note_on,81,37,0
1,note_on,78,37,0
1,note_on,78,0,120
1,note_on,81,0,0
1,note_on,83,0,0
1,note_on,83,37,0
1,note_on,81,37,0
1,note_on,78,37,0
1,note_on,78,0,480
1,note_on,81,0,0
1,note_on,83,0,0
1,note_on,74,38,0
1,note_on,78,38,0
1,note_on,78,0,60
1,note_on,74,0,0
1,note_on,74,38,180
1,note_on,80,38,0
1,note_on,78,38,0
1,note_on,78,0,60
1,note_on,80,0,0
1,note_on,74,0,0
1,note_on,74,41,180
1,note_on,78,41,0
1,note_on,81,41,0
1,note_on,81,0,240
1,note_on,83,37,0
1,note_on,83,0,240
1,note_on,78,0,0
1,note_on,74,0,0
1,note_on,78,39,0
1,note_on,74,39,0
1,note_on,74,0,60
1,note_on,78,0,0
1,note_on,80,38,180
1,note_on,78,38,0
1,note_on,74,38,0
1,note_on,74,0,60
1,note_on,78,0,0
1,note_on,80,0,0
1,note_on,81,41,180
1,note_on,74,41,0
1,note_on,78,41,0
1,note_on,81,0,240
1,note_on,83,37,0
1,note_on,83,0,240
1,note_on,78,0,0
1,note_on,74,0,0
1,note_on,74,39,0
1,note_on,78,39,0
1,note_on,78,0,60
1,note_on,74,0,0
1,note_on,80,39,180
1,note_on,74,39,0
1,note_on,78,39,0
1,note_on,78,0,60
1,note_on,74,0,0
1,note_on,80,0,0
1,note_on,74,41,180
1,note_on,76,41,0
1,note_on,81,41,0
1,note_on,81,0,240
1,note_on,76,0,0
1,note_on,74,0,0
1,note_on,73,38,240
1,note_on,81,38,0
1,note_on,81,0,240
1,note_on,73,0,0
1,note_on,73,38,120
1,note_on,81,38,0
1,note_on,81,0,120
1,note_on,73,0,0
1,note_on,73,38,0
1,note_on,81,38,0
1,note_on,81,0,240
1,note_on,73,0,0
1,note_on,85,39,480
1,note_on,85,0,80
1,note_on,86,39,0
1,note_on,86,0,80
1,note_on,85,39,0
1,note_on,85,0,80
1,note_on,83,42,0
1,note_on,86,42,240
1,note_on,86,0,240
1,note_on,83,0,0
1,note_on,91,44,0
1,note_on,83,44,0
1,note_on,83,0,60
1,note_on,91,0,0
1,note_on,95,39,180
1,note_on,83,39,0
1,note_on,83,0,60
1,note_on,95,0,0
1,note_on,93,42,180
1,note_on,83,37,0
1,note_on,93,0,240
1,note_on,91,38,0
1,note_on,91,0,240
1,note_on,83,0,0
1,note_on,83,38,0
1,note_on,79,38,0
1,note_on,79,0,60
1,note_on,83,0,0
1,note_on,83,38,180
1,note_on,86,38,0
1,note_on,79,38,0
1,note_on,79,0,60
1,note_on,86,0,0
1,note_on,83,0,0
1,note_on,90,42,180
1,note_on,86,42,0
1,note_on,83,42,0
1,note_on,79,42,0
1,note_on,79,0,240
1,note_on,90,0,0
1,note_on,86,0,0
1,note_on,83,0,0
1,note_on,90,37,240
1,note_on,86,37,0
1,note_on,83,37,0
1,note_on,79,37,0
1,note_on,79,0,240
1,note_on,90,0,0
1,note_on,86,0,0
1,note_on,83,0,0
1,note_on,90,37,120
1,note_on,86,37,0
1,note_on,83,37,0
1,note_on,79,37,0
1,note_on,79,0,120
1,note_on,90,0,0
1,note_on,86,0,0
1,note_on,83,0,0
1,note_on,90,37,0
1,note_on,86,37,0
1,note_on,83,37,0
1,note_on,79,37,0
1,note_on,79,0,480
1,note_on,90,0,0
1,note_on,86,0,0
1,note_on,83,0,0
1,note_on,83,38,0
1,note_on,79,38,0
1,note_on,79,0,60
1,note_on,83,0,0
1,note_on,85,38,180
1,note_on,83,38,0
1,note_on,79,38,0
1,note_on,79,0,60
1,note_on,83,0,0
1,note_on,85,0,0
1,note_on,86,42,180
1,note_on,79,42,0
1,note_on,83,42,0
1,note_on,86,0,240
1,note_on,88,38,0
1,note_on,88,0,240
1,note_on,83,0,0
1,note_on,79,0,0
1,note_on,83,39,0
1,note_on,79,39,0
1,note_on,79,0,60
1,note_on,83,0,0
1,note_on,85,39,180
1,note_on,83,39,0
1,note_on,79,39,0
1,note_on,79,0,60
1,note_on,83,0,0
1,note_on,85,0,0
1,note_on,86,42,180
1,note_on,83,42,0
1,note_on,79,42,0
1,note_on,86,0,240
1,note_on,88,39,0
1,note_on,88,0,240
1,note_on,79,0,0
1,note_on,83,0,0
1,note_on,83,39,0
1,note_on,79,39,0
1,note_on,79,0,60
1,note_on,83,0,0
1,note_on,85,39,180
1,note_on,83,39,0
1,note_on,79,39,0
1,note_on,79,0,60
1,note_on,83,0,0
1,note_on,85,0,0
1,note_on,86,44,180
1,note_on,81,44,0
1,note_on,79,44,0
1,note_on,79,0,240
1,note_on,81,0,0
1,note_on,86,0,0
1,note_on,86,39,240
1,note_on,78,39,0
1,note_on,78,0,240
1,note_on,86,0,0
1,note_on,86,39,120
1,note_on,78,39,0
1,note_on,78,0,120
1,note_on,86,0,0
1,note_on,86,39,0
1,note_on,78,39,0
1,note_on,78,0,240
1,note_on,86,0,0
1,note_on,61,75,1920
1,note_on,64,75,0
1,note_on,61,0,120
1,note_on,59,68,0
1,note_on,59,0,120
1,note_on,61,68,0
1,note_on,61,0,120
1,note_on,57,68,0
1,note_on,57,0,60
1,note_on,64,0,60
1,note_on,62,68,0
1,note_on,66,71,0
1,note_on,62,0,120
1,note_on,59,68,120
1,note_on,59,0,120
1,note_on,66,0,120
1,note_on,61,75,0
1,note_on,64,75,0
1,note_on,61,0,120
1,note_on,59,69,0
1,note_on,59,0,120
1,note_on,61,69,0
1,note_on,61,0,120
1,note_on,57,69,0
1,note_on,57,0,60
1,note_on,64,0,60
1,note_on,62,68,0
1,note_on,66,71,0
1,note_on,62,0,120
1,note_on,59,68,120
1,note_on,59,0,120
1,note_on,66,0,120
1,note_on,74,56,240
1,note_on,78,56,0
1,note_on,68,56,0
1,note_on,78,0,80
1,note_on,80,56,0
1,note_on,80,0,80
1,note_on,78,56,0
1,note_on,78,0,80
1,note_on,68,0,0
1,note_on,74,0,0
1,note_on,76,60,0
1,note_on,73,60,0
1,note_on,69,60,0
1,note_on,69,0,120
1,note_on,73,0,0
1,note_on,76,0,0
1,note_on,73,59,120
1,note_on,76,59,0
1,note_on,69,59,0
1,note_on,69,0,120
1,note_on,76,0,0
1,note_on,73,0,0
1,note_on,76,59,120
1,note_on,73,59,0
1,note_on,69,59,0
1,note_on,69,0,960
1,note_on,73,0,0
1,note_on,76,0,0
1,note_on,60,52,0
1,note_on,64,52,0
1,note_on,64,0,480
1,note_on,60,0,0
1,note_on,68,48,0
1,note_on,72,48,0
1,note_on,76,48,0
1,note_on,76,0,240
1,note_on,72,0,0
1,note_on,68,0,0
1,note_on,68,47,0
1,note_on,72,47,0
1,note_on,76,47,0
1,note_on,76,0,240
1,note_on,72,0,0
1,note_on,68,0,0
1,note_on,68,46,0
1,note_on,72,46,0
1,note_on,76,46,0
1,note_on,76,0,480
1,note_on,72,0,0
1,note_on,68,0,0
1,note_on,72,34,0
1,note_on,76,34,0
1,note_on,76,0,120
1,note_on,72,0,0
1,note_on,76,34,120
1,note_on,72,34,0
1,note_on,77,34,0
1,note_on,77,0,120
1,note_on,72,0,0
1,note_on,76,0,0
1,note_on,72,37,120
1,note_on,76,37,0
1,note_on,79,37,0
1,note_on,79,0,240
1,note_on,81,34,0
1,note_on,81,0,240
1,note_on,76,0,0
1,note_on,72,0,0
1,note_on,72,34,0
1,note_on,76,34,0
1,note_on,76,0,120
1,note_on,72,0,0
1,note_on,72,34,120
1,note_on,76,34,0
1,note_on,77,34,0
1,note_on,77,0,120
1,note_on,76,0,0
1,note_on,72,0,0
1,note_on,71,38,120
1,note_on,77,38,0
1,note_on,79,38,0
1,note_on,79,0,240
1,note_on,81,34,0
1,note_on,81,0,240
1,note_on,77,0,0
1,note_on,71,0,0
1,note_on,67,34,0
1,note_on,71,34,0
1,note_on,76,34,0
1,note_on,76,0,120
1,note_on,71,0,0
1,note_on,67,0,0
1,note_on,67,34,120
1,note_on,71,34,0
1,note_on,74,34,0
1,note_on,74,0,120
1,note_on,71,0,0
1,note_on,67,0,0
1,note_on,74,35,0
1,note_on,74,0,60
1,note_on,76,35,0
1,note_on,76,0,60
1,note_on,64,39,0
1,note_on,74,39,0
1,note_on,74,0,240
1,note_on,72,34,0
1,note_on,72,0,240
1,note_on,64,0,0
1,note_on,64,34,0
1,note_on,72,34,0
1,note_on,72,0,120
1,note_on,64,0,0
1,note_on,64,34,120
1,note_on,72,34,0
1,note_on,72,0,120
1,note_on,64,0,0
1,note_on,64,39,120
1,note_on,72,39,0
1,note_on,72,0,360
1,note_on,64,0,0
1,note_on,64,75,600
1,note_on,67,75,0
1,note_on,64,0,120
1,note_on,62,68,0
1,note_on,62,0,120
1,note_on,64,68,0
1,note_on,64,0,120
1,note_on,60,68,0
1,note_on,60,0,60
1,note_on,67,0,60
1,note_on,65,68,0
1,note_on,69,71,0
1,note_on,65,0,120
1,note_on,62,68,120
1,note_on,62,0,120
1,note_on,69,0,120
1,note_on,64,75,0
1,note_on,67,75,0
1,note_on,64,0,120
1,note_on,62,69,0
1,note_on,62,0,120
1,note_on,64,69,0
1,note_on,64,0,120
1,note_on,60,69,0
1,note_on,60,0,60
1,note_on,67,0,60
1,note_on,65,68,0
1,note_on,69,71,0
1,note_on,65,0,120
1,note_on,62,68,120
1,note_on,62,0,120
1,note_on,69,0,120
1,note_on,77,56,240
1,note_on,81,56,0
1,note_on,71,56,0
1,note_on,81,0,80
1,note_on,83,56,0
1,note_on,83,0,80
1,note_on,81,56,0
1,note_on,81,0,80
1,note_on,71,0,0
1,note_on,77,0,0
1,note_on,79,60,0
1,note_on,76,60,0
1,note_on,72,60,0
1,note_on,72,0,120
1,note_on,76,0,0
1,note_on,79,0,0
1,note_on,76,59,120
1,note_on,79,59,0
1,note_on,72,59,0
1,note_on,72,0,120
1,note_on,79,0,0
1,note_on,76,0,0
1,note_on,79,59,120
1,note_on,76,59,0
1,note_on,72,59,0
1,note_on,72,0,960
1,note_on,76,0,0
1,note_on,79,0,0
1,note_on,63,52,0
1,note_on,67,52,0
1,note_on,67,0,480
1,note_on,63,0,0
1,note_on,71,48,0
1,note_on,75,48,0
1,note_on,79,48,0
1,note_on,79,0,240
1,note_on,75,0,0
1,note_on,71,0,0
1,note_on,71,47,0
1,note_on,75,47,0
1,note_on,79,47,0
1,note_on,79,0,240
1,note_on,75,0,0
1,note_on,71,0,0
1,note_on,71,46,0
1,note_on,75,46,0
1,note_on,79,46,0
1,note_on,79,0,480
1,note_on,75,0,0
1,note_on,71,0,0
1,note_on,75,34,0
1,note_on,79,34,0
1,note_on,79,0,60
1,note_on,75,0,0
1,note_on,79,34,180
1,note_on,75,34,0
1,note_on,80,34,0
1,note_on,80,0,60
1,note_on,75,0,0
1,note_on,79,0,0
1,note_on,75,37,180
1,note_on,79,37,0
1,note_on,82,37,0
1,note_on,82,0,240
1,note_on,84,34,0
1,note_on,84,0,240
1,note_on,79,0,0
1,note_on,75,0,0
1,note_on,75,34,0
1,note_on,79,34,0
1,note_on,79,0,60
1,note_on,75,0,0
1,note_on,75,34,180
1,note_on,79,34,0
1,note_on,80,34,0
1,note_on,80,0,60
1,note_on,79,0,0
1,note_on,75,0,0
1,note_on,74,38,180
1,note_on,80,38,0
1,note_on,82,38,0
1,note_on,82,0,240
1,note_on,84,34,0
1,note_on,84,0,240
1,note_on,80,0,0
1,note_on,74,0,0
1,note_on,70,34,0
1,note_on,74,34,0
1,note_on,79,34,0
1,note_on,79,0,120
1,note_on,74,0,0
1,note_on,70,0,0
1,note_on,70,34,120
1,note_on,74,34,0
1,note_on,77,34,0
1,note_on,77,0,120
1,note_on,74,0,0
1,note_on,70,0,0
1,note_on,77,35,0
1,note_on,77,0,60
1,note_on,79,35,0
1,note_on,79,0,60
1,note_on,67,39,0
1,note_on,77,39,0
1,note_on,77,0,240
1,note_on,75,34,0
1,note_on,75,0,240
1,note_on,67,0,0
1,note_on,67,34,0
1,note_on,75,34,0
1,note_on,75,0,120
1,note_on,67,0,0
1,note_on,67,34,120
1,note_on,75,34,0
1,note_on,75,0,120
1,note_on,67,0,0
1,note_on,67,39,120
1,note_on,75,39,0
1,note_on,75,0,480
1,note_on,67,0,0
1,note_on,55,25,120
1,note_on,61,28,0
1,note_on,61,0,120
1,note_on,55,0,0
1,note_on,63,29,120
1,note_on,61,25,0
1,note_on,55,25,0
1,note_on,55,0,120
1,note_on,61,0,0
1,note_on,63,0,0
1,note_on,55,25,120
1,note_on,58,25,0
1,note_on,65,34,0
1,note_on,65,0,120
1,note_on,58,0,0
1,note_on,55,0,0
1,note_on,55,26,120
1,note_on,61,26,0
1,note_on,67,33,0
1,note_on,67,0,120
1,note_on,61,0,0
1,note_on,55,0,0
1,note_on,55,27,120
1,note_on,61,31,0
1,note_on,61,0,120
1,note_on,55,0,0
1,note_on,63,31,120
1,note_on,55,27,0
1,note_on,61,27,0
1,note_on,61,0,120
1,note_on,55,0,0
1,note_on,63,0,0
1,note_on,55,28,120
1,note_on,61,28,0
1,note_on,65,36,0
1,note_on,65,0,120
1,note_on,61,0,0
1,note_on,55,0,0
1,note_on,55,28,120
1,note_on,61,28,0
1,note_on,67,33,0
1,note_on,67,0,120
1,note_on,61,0,0
1,note_on,55,0,0
1,note_on,55,29,120
1,note_on,61,34,0
1,note_on,61,0,120
1,note_on,55,0,0
1,note_on,63,34,120
1,note_on,55,30,0
1,note_on,61,30,0
1,note_on,61,0,120
1,note_on,55,0,0
1,note_on,63,0,0
1,note_on,55,29,120
1,note_on,61,29,0
1,note_on,65,39,0
1,note_on,65,0,120
1,note_on,61,0,0
1,note_on,55,0,0
1,note_on,68,42,120
1,note_on,68,0,120
1,note_on,55,31,120
1,note_on,61,31,0
1,note_on,67,38,0
1,note_on,67,0,120
1,note_on,61,0,0
1,note_on,55,0,0
1,note_on,63,38,120
1,note_on,55,31,0
1,note_on,61,31,0
1,note_on,61,0,120
1,note_on,55,0,0
1,note_on,63,0,0
1,note_on,55,31,120
1,note_on,61,31,0
1,note_on,65,39,0
1,note_on,65,0,120
1,note_on,61,0,0
1,note_on,55,0,0
1,note_on,55,32,120
1,note_on,61,38,0
1,note_on,61,0,120
1,note_on,55,0,0
1,note_on,56,36,120
1,note_on,63,36,0
1,note_on,63,0,120
1,note_on,56,0,0
1,note_on,63,35,120
1,note_on,65,35,0
1,note_on,56,35,0
1,note_on,56,0,120
1,note_on,65,0,0
1,note_on,63,0,0
1,note_on,56,30,120
1,note_on,63,30,0
1,note_on,67,40,0
1,note_on,67,0,120
1,note_on,63,0,0
1,note_on,56,0,0
1,note_on,56,31,120
1,note_on,63,31,0
1,note_on,68,39,0
1,note_on,68,0,120
1,note_on,63,0,0
1,note_on,56,0,0
1,note_on,56,31,120
1,note_on,63,36,0
1,note_on,63,0,120
1,note_on,56,0,0
1,note_on,63,36,120
1,note_on,56,31,0
1,note_on,65,31,0
1,note_on,65,0,120
1,note_on,56,0,0
1,note_on,63,0,0
1,note_on,56,32,120
1,note_on,63,32,0
1,note_on,67,41,0
1,note_on,67,0,120
1,note_on,63,0,0
1,note_on,56,0,0
1,note_on,56,32,120
1,note_on,63,32,0
1,note_on,68,39,0
1,note_on,68,0,120
1,note_on,63,0,0
1,note_on,56,0,0
1,note_on,56,34,120
1,note_on,63,39,0
1,note_on,63,0,120
1,note_on,56,0,0
1,note_on,63,39,120
1,note_on,56,35,0
1,note_on,65,35,0
1,note_on,65,0,120
1,note_on,56,0,0
1,note_on,63,0,0
1,note_on,56,34,120
1,note_on,63,34,0
1,note_on,67,44,0
1,note_on,67,0,120
1,note_on,63,0,0
1,note_on,56,0,0
1,note_on,70,48,120
1,note_on,70,0,120
1,note_on,56,36,120
1,note_on,63,36,0
1,note_on,68,44,0
1,note_on,68,0,120
1,note_on,63,0,0
1,note_on,56,0,0
1,note_on,63,44,120
1,note_on,56,36,0
1,note_on,65,36,0
1,note_on,65,0,120
1,note_on,56,0,0
1,note_on,63,0,0
1,note_on,56,36,120
1,note_on,63,36,0
1,note_on,67,45,0
1,note_on,67,0,120
1,note_on,63,0,0
1,note_on,56,0,0
1,note_on,56,36,120
1,note_on,63,43,0
1,note_on,63,0,120
1,note_on,56,0,0
1,note_on,60,48,120
1,note_on,66,48,0
1,note_on,66,0,120
1,note_on,60,0,0
1,note_on,66,44,120
1,note_on,68,44,0
1,note_on,60,44,0
1,note_on,60,0,120
1,note_on,68,0,0
1,note_on,66,0,0
1,note_on,60,47,120
1,note_on,66,47,0
1,note_on,70,47,0
1,note_on,70,0,120
1,note_on,66,0,0
1,note_on,60,0,0
1,note_on,60,37,120
1,note_on,66,37,0
1,note_on,72,46,0
1,note_on,72,0,120
1,note_on,66,0,0
1,note_on,60,0,0
1,note_on,60,48,120
1,note_on,66,48,0
1,note_on,66,0,120
1,note_on,60,0,0
1,note_on,66,44,120
1,note_on,60,37,0
1,note_on,68,37,0
1,note_on,68,0,120
1,note_on,60,0,0
1,note_on,66,0,0
1,note_on,60,47,120
1,note_on,66,47,0
1,note_on,70,47,0
1,note_on,70,0,120
1,note_on,66,0,0
1,note_on,60,0,0
1,note_on,60,37,120
1,note_on,66,37,0
1,note_on,72,45,0
1,note_on,72,0,120
1,note_on,66,0,0
1,note_on,60,0,0
1,note_on,60,47,120
1,note_on,66,47,0
1,note_on,66,0,120
1,note_on,60,0,0
1,note_on,66,46,120
1,note_on,60,46,0
1,note_on,68,46,0
1,note_on,68,0,120
1,note_on,60,0,0
1,note_on,66,0,0
1,note_on,60,56,120
1,note_on,66,56,0
1,note_on,70,56,0
1,note_on,70,0,120
1,note_on,66,0,0
1,note_on,60,0,0
1,note_on,73,50,120
1,note_on,73,0,120
1,note_on,60,55,120
1,note_on,66,55,0
1,note_on,72,55,0
1,note_on,72,0,120
1,note_on,66,0,0
1,note_on,60,0,0
1,note_on,68,48,120
1,note_on,60,40,0
1,note_on,66,40,0
1,note_on,66,0,120
1,note_on,60,0,0
1,note_on,68,0,0
1,note_on,60,40,120
1,note_on,66,40,0
1,note_on,70,50,0
1,note_on,70,0,120
1,note_on,66,0,0
1,note_on,60,0,0
1,note_on,60,40,120
1,note_on,66,47,0
1,note_on,66,0,120
1,note_on,60,0,0
1,note_on,61,59,120
1,note_on,68,59,0
1,note_on,68,0,120
1,note_on,61,0,0
1,note_on,68,52,120
1,note_on,70,52,0
1,note_on,61,52,0
1,note_on,61,0,120
1,note_on,70,0,0
1,note_on,68,0,0
1,note_on,61,57,120
1,note_on,68,57,0
1,note_on,72,57,0
1,note_on,72,0,120
1,note_on,68,0,0
1,note_on,61,0,0
1,note_on,61,55,120
1,note_on,68,55,0
1,note_on,73,55,0
1,note_on,73,0,120
1,note_on,68,0,0
1,note_on,61,0,0
1,note_on,61,59,120
1,note_on,68,59,0
1,note_on,68,0,120
1,note_on,61,0,0
1,note_on,68,53,120
1,note_on,61,53,0
1,note_on,70,53,0
1,note_on,70,0,120
1,note_on,61,0,0
1,note_on,68,0,0
1,note_on,61,59,120
1,note_on,68,59,0
1,note_on,72,59,0
1,note_on,72,0,120
1,note_on,68,0,0
1,note_on,61,0,0
1,note_on,61,55,120
1,note_on,68,55,0
1,note_on,73,55,0
1,note_on,73,0,120
1,note_on,68,0,0
1,note_on,61,0,0
1,note_on,61,59,120
1,note_on,68,59,0
1,note_on,68,0,120
1,note_on,61,0,0
1,note_on,68,57,120
1,note_on,61,57,0
1,note_on,70,57,0
1,note_on,70,0,120
1,note_on,61,0,0
1,note_on,68,0,0
1,note_on,61,64,120
1,note_on,68,64,0
1,note_on,72,64,0
1,note_on,72,0,120
1,note_on,68,0,0
1,note_on,61,0,0
1,note_on,75,64,120
1,note_on,75,0,120
1,note_on,61,62,120
1,note_on,68,62,0
1,note_on,73,62,0
1,note_on,73,0,120
1,note_on,68,0,0
1,note_on,61,0,0
1,note_on,70,59,120
1,note_on,61,48,0
1,note_on,68,48,0
1,note_on,68,0,120
1,note_on,61,0,0
1,note_on,70,0,0
1,note_on,61,48,120
1,note_on,68,48,0
1,note_on,72,61,0
1,note_on,72,0,120
1,note_on,68,0,0
1,note_on,61,0,0
1,note_on,61,48,120
1,note_on,68,57,0
1,note_on,68,0,120
1,note_on,61,0,0
1,note_on,62,71,120
1,note_on,68,71,0
1,note_on,68,0,120
1,note_on,62,0,0
1,note_on,68,63,120
1,note_on,62,63,0
1,note_on,70,63,0
1,note_on,70,0,120
1,note_on,62,0,0
1,note_on,68,0,0
1,note_on,62,70,120
1,note_on,68,70,0
1,note_on,72,70,0
1,note_on,72,0,120
1,note_on,68,0,0
1,note_on,62,0,0
1,note_on,75,75,120
1,note_on,75,0,120
1,note_on,62,69,120
1,note_on,68,69,0
1,note_on,74,69,0
1,note_on,74,0,120
1,note_on,68,0,0
1,note_on,62,0,0
1,note_on,70,63,120
1,note_on,62,52,0
1,note_on,68,52,0
1,note_on,68,0,120
1,note_on,62,0,0
1,note_on,70,0,0
1,note_on,62,52,120
1,note_on,68,52,0
1,note_on,72,66,0
1,note_on,72,0,120
1,note_on,68,0,0
1,note_on,62,0,0
1,note_on,68,62,120
1,note_on,68,0,120
1,note_on,74,70,120
1,note_on,72,70,0
1,note_on,68,70,0
1,note_on,68,0,120
1,note_on,72,0,0
1,note_on,74,0,0
1,note_on,68,66,120
1,note_on,75,66,0
1,note_on,72,66,0
1,note_on,72,0,120
1,note_on,75,0,0
1,note_on,68,0,0
1,note_on,77,72,120
1,note_on,68,72,0
1,note_on,72,72,0
1,note_on,72,0,120
1,note_on,68,0,0
1,note_on,77,0,0
1,note_on,80,81,120
1,note_on,80,0,120
1,note_on,79,80,120
1,note_on,68,80,0
1,note_on,72,80,0
1,note_on,72,0,120
1,note_on,68,0,0
1,note_on,79,0,0
1,note_on,72,72,120
1,note_on,75,72,0
1,note_on,68,72,0
1,note_on,68,0,120
1,note_on,75,0,0
1,note_on,72,0,0
1,note_on,77,80,120
1,note_on,68,80,0
1,note_on,72,80,0
1,note_on,72,0,120
1,note_on,68,0,0
1,note_on,77,0,0
1,note_on,74,66,120
1,note_on,74,0,120
1,note_on,77,75,120
1,note_on,77,0,120
1,note_on,79,75,120
1,note_on,79,0,120
1,note_on,80,81,120
1,note_on,80,0,120
1,note_on,84,75,120
1,note_on,84,0,120
1,note_on,80,75,120
1,note_on,80,0,120
1,note_on,77,75,120
1,note_on,77,0,120
1,note_on,80,81,120
1,note_on,80,0,120
1,note_on,77,75,120
1,note_on,77,0,120
1,note_on,74,75,120
1,note_on,74,0,120
1,note_on,77,75,120
1,note_on,77,0,120
1,note_on,74,81,120
1,note_on,74,0,120
1,note_on,70,75,120
1,note_on,70,0,120
1,note_on,74,75,120
1,note_on,74,0,120
1,note_on,70,75,120
1,note_on,70,0,120
1,note_on,67,81,120
1,note_on,67,0,120
1,note_on,70,75,120
1,note_on,70,0,120
1,note_on,67,75,120
1,note_on,67,0,120
1,note_on,63,75,120
1,note_on,63,0,120
1,note_on,67,85,120
1,note_on,67,0,120
1,note_on,63,80,120
1,note_on,63,0,120
1,note_on,60,80,120
1,note_on,60,0,120
1,note_on,63,80,120
1,note_on,63,0,120
1,note_on,60,93,120
1,note_on,60,0,120
1,note_on,56,86,120
1,note_on,56,0,120
1,note_on,60,89,120
1,note_on,60,0,120
1,note_on,56,103,120
1,note_on,56,0,120
1,note_on,55,108,0
1,note_on,68,93,480
1,note_on,56,83,0
1,note_on,60,83,0
1,note_on,63,83,0
1,note_on,63,0,480
1,note_on,56,0,0
1,note_on,60,0,0
1,note_on,68,0,0
1,note_on,80,93,0
1,note_on,75,83,0
1,note_on,68,83,0
1,note_on,72,83,0
1,note_on,72,0,480
1,note_on,75,0,0
1,note_on,68,0,0
1,note_on,80,0,0
1,note_on,92,91,0
1,note_on,87,81,0
1,note_on,84,81,0
1,note_on,80,81,0
1,note_on,80,0,480
1,note_on,87,0,0
1,note_on,55,0,0
1,note_on,92,0,0
1,note_on,84,0,0
1,note_on,54,108,0
1,note_on,68,93,480
1,note_on,56,83,0
1,note_on,60,83,0
1,note_on,63,83,0
1,note_on,63,0,480
1,note_on,56,0,0
1,note_on,60,0,0
1,note_on,68,0,0
1,note_on,80,93,0
1,note_on,75,83,0
1,note_on,68,83,0
1,note_on,72,83,0
1,note_on,72,0,480
1,note_on,75,0,0
1,note_on,68,0,0
1,note_on,80,0,0
1,note_on,92,91,0
1,note_on,87,81,0
1,note_on,84,81,0
1,note_on,80,81,0
1,note_on,80,0,480
1,note_on,87,0,0
1,note_on,54,0,0
1,note_on,92,0,0
1,note_on,84,0,0
1,note_on,53,111,0
1,note_on,68,93,480
1,note_on,56,83,0
1,note_on,59,83,0
1,note_on,63,83,0
1,note_on,63,0,480
1,note_on,56,0,0
1,note_on,59,0,0
1,note_on,68,0,0
1,note_on,80,93,0
1,note_on,75,83,0
1,note_on,68,83,0
1,note_on,71,83,0
1,note_on,71,0,480
1,note_on,75,0,0
1,note_on,68,0,0
1,note_on,80,0,0
1,note_on,92,91,0
1,note_on,87,81,0
1,note_on,83,81,0
1,note_on,80,81,0
1,note_on,80,0,480
1,note_on,87,0,0
1,note_on,53,0,0
1,note_on,92,0,0
1,note_on,83,0,0
1,note_on,52,111,0
1,note_on,57,83,480
1,note_on,69,93,0
1,note_on,55,83,0
1,note_on,61,83,0
1,note_on,67,93,0
1,note_on,67,0,480
1,note_on,57,0,0
1,note_on,69,0,0
1,note_on,55,0,0
1,note_on,61,0,0
1,note_on,67,83,0
1,note_on,81,93,0
1,note_on,79,93,0
1,note_on,69,83,0
1,note_on,73,83,0
1,note_on,73,0,480
1,note_on,67,0,0
1,note_on,81,0,0
1,note_on,79,0,0
1,note_on,69,0,0
1,note_on,81,78,0
1,note_on,93,86,0
1,note_on,91,86,0
1,note_on,85,78,0
1,note_on,79,78,0
1,note_on,79,0,240
1,note_on,81,0,0
1,note_on,93,0,0
1,note_on,91,0,0
1,note_on,85,0,0
1,note_on,81,88,0
1,note_on,81,0,80
1,note_on,83,88,0
1,note_on,83,0,80
1,note_on,81,88,0
1,note_on,81,0,80
1,note_on,52,0,0
1,note_on,78,97,0
1,note_on,81,97,240
1,note_on,81,0,240
1,note_on,78,0,0
1,note_on,81,90,0
1,note_on,86,101,0
1,note_on,78,90,0
1,note_on,78,0,120
1,note_on,86,0,0
1,note_on,81,0,0
1,note_on,81,83,120
1,note_on,90,93,0
1,note_on,78,83,0
1,note_on,78,0,120
1,note_on,90,0,0
1,note_on,81,0,0
1,note_on,81,75,120
1,note_on,88,102,0
1,note_on,78,75,0
1,note_on,88,0,240
1,note_on,86,93,0
1,note_on,86,0,240
1,note_on,78,0,0
1,note_on,81,0,0
1,note_on,74,90,0
1,note_on,78,93,0
1,note_on,78,0,120
1,note_on,74,0,0
1,note_on,74,81,120
1,note_on,81,90,0
1,note_on,78,81,0
1,note_on,78,0,120
1,note_on,81,0,0
1,note_on,74,0,0
1,note_on,74,85,120
1,note_on,83,95,0
1,note_on,81,95,0
1,note_on,78,85,0
1,note_on,78,0,240
1,note_on,74,0,0
1,note_on,83,0,0
1,note_on,81,0,0
1,note_on,74,77,240
1,note_on,83,86,0
1,note_on,81,86,0
1,note_on,78,77,0
1,note_on,78,0,240
1,note_on,74,0,0
1,note_on,83,0,0
1,note_on,81,0,0
1,note_on,74,77,120
1,note_on,83,86,0
1,note_on,81,86,0
1,note_on,78,77,0
1,note_on,78,0,120
1,note_on,74,0,0
1,note_on,83,0,0
1,note_on,81,0,0
1,note_on,74,77,0
1,note_on,83,86,0
1,note_on,81,86,0
1,note_on,78,77,0
1,note_on,78,0,480
1,note_on,74,0,0
1,note_on,83,0,0
1,note_on,81,0,0
1,note_on,74,90,0
1,note_on,78,90,0
1,note_on,78,0,120
1,note_on,74,0,0
1,note_on,74,90,120
1,note_on,80,90,0
1,note_on,78,90,0
1,note_on,78,0,120
1,note_on,80,0,0
1,note_on,74,0,0
1,note_on,74,87,120
1,note_on,78,87,0
1,note_on,81,97,0
1,note_on,81,0,240
1,note_on,83,89,0
1,note_on,83,0,240
1,note_on,78,0,0
1,note_on,74,0,0
1,note_on,78,93,0
1,note_on,74,93,0
1,note_on,74,0,120
1,note_on,78,0,0
1,note_on,80,90,120
1,note_on,78,90,0
1,note_on,74,90,0
1,note_on,74,0,120
1,note_on,78,0,0
1,note_on,80,0,0
1,note_on,81,97,120
1,note_on,74,87,0
1,note_on,78,87,0
1,note_on,81,0,240
1,note_on,83,89,0
1,note_on,83,0,240
1,note_on,78,0,0
1,note_on,74,0,0
1,note_on,74,93,0
1,note_on,78,93,0
1,note_on,78,0,120
1,note_on,74,0,0
1,note_on,80,93,120
1,note_on,74,93,0
1,note_on,78,93,0
1,note_on,78,0,120
1,note_on,74,0,0
1,note_on,80,0,0
1,note_on,69,87,120
1,note_on,74,87,0
1,note_on,76,87,0
1,note_on,81,97,0
1,note_on,81,0,240
1,note_on,69,0,0
1,note_on,74,0,0
1,note_on,76,0,0
1,note_on,76,75,240
1,note_on,69,75,0
1,note_on,73,75,0
1,note_on,81,84,0
1,note_on,81,0,240
1,note_on,76,0,0
1,note_on,69,0,0
1,note_on,73,0,0
1,note_on,69,75,120
1,note_on,76,75,0
1,note_on,73,75,0
1,note_on,81,84,0
1,note_on,81,0,120
1,note_on,69,0,0
1,note_on,76,0,0
1,note_on,73,0,0
1,note_on,69,75,0
1,note_on,76,75,0
1,note_on,73,75,0
1,note_on,81,84,0
1,note_on,81,0,480
1,note_on,69,0,0
1,note_on,76,0,0
1,note_on,73,0,0
1,note_on,85,89,240
1,note_on,85,0,80
1,note_on,86,89,0
1,note_on,86,0,80
1,note_on,85,89,0
1,note_on,85,0,80
1,note_on,83,96,0
1,note_on,86,96,240
1,note_on,86,0,240
1,note_on,83,0,0
1,note_on,86,89,0
1,note_on,91,99,0
1,note_on,83,89,0
1,note_on,83,0,120
1,note_on,91,0,0
1,note_on,86,0,0
1,note_on,86,81,120
1,note_on,95,91,0
1,note_on,83,81,0
1,note_on,83,0,120
1,note_on,95,0,0
1,note_on,86,0,0
1,note_on,93,97,120
1,note_on,83,76,0
1,note_on,93,0,240
1,note_on,91,86,0
1,note_on,91,0,240
1,note_on,83,0,0
1,note_on,83,86,0
1,note_on,79,86,0
1,note_on,79,0,120
1,note_on,83,0,0
1,note_on,83,86,120
1,note_on,86,86,0
1,note_on,79,76,0
1,note_on,79,0,120
1,note_on,86,0,0
1,note_on,83,0,0
1,note_on,90,90,120
1,note_on,86,80,0
1,note_on,83,80,0
1,note_on,79,80,0
1,note_on,79,0,240
1,note_on,90,0,0
1,note_on,86,0,0
1,note_on,83,0,0
1,note_on,90,80,240
1,note_on,86,72,0
1,note_on,83,72,0
1,note_on,79,72,0
1,note_on,79,0,240
1,note_on,90,0,0
1,note_on,86,0,0
1,note_on,83,0,0
1,note_on,90,80,120
1,note_on,86,72,0
1,note_on,83,72,0
1,note_on,79,72,0
1,note_on,79,0,120
1,note_on,90,0,0
1,note_on,86,0,0
1,note_on,83,0,0
1,note_on,90,80,0
1,note_on,86,72,0
1,note_on,83,72,0
1,note_on,79,72,0
1,note_on,79,0,480
1,note_on,90,0,0
1,note_on,86,0,0
1,note_on,83,0,0
1,note_on,83,86,0
1,note_on,79,86,0
1,note_on,79,0,120
1,note_on,83,0,0
1,note_on,85,86,120
1,note_on,83,86,0
1,note_on,79,86,0
1,note_on,79,0,120
1,note_on,83,0,0
1,note_on,85,0,0
1,note_on,86,96,120
1,note_on,79,86,0
1,note_on,83,86,0
1,note_on,86,0,240
1,note_on,88,86,0
1,note_on,88,0,240
1,note_on,83,0,0
1,note_on,79,0,0
1,note_on,83,91,0
1,note_on,79,91,0
1,note_on,79,0,120
1,note_on,83,0,0
1,note_on,85,89,120
1,note_on,83,89,0
1,note_on,79,89,0
1,note_on,79,0,120
1,note_on,83,0,0
1,note_on,85,0,0
1,note_on,86,96,120
1,note_on,83,86,0
1,note_on,79,86,0
1,note_on,86,0,240
1,note_on,88,89,0
1,note_on,88,0,240
1,note_on,79,0,0
1,note_on,83,0,0
1,note_on,83,91,0
1,note_on,79,91,0
1,note_on,79,0,120
1,note_on,83,0,0
1,note_on,85,91,120
1,note_on,83,91,0
1,note_on,79,91,0
1,note_on,79,0,120
1,note_on,83,0,0
1,note_on,85,0,0
1,note_on,74,84,120
1,note_on,86,94,0
1,note_on,81,84,0
1,note_on,79,84,0
1,note_on,79,0,240
1,note_on,74,0,0
1,note_on,86,0,0
1,note_on,81,0,0
1,note_on,81,73,240
1,note_on,74,73,0
1,note_on,86,81,0
1,note_on,78,73,0
1,note_on,78,0,240
1,note_on,81,0,0
1,note_on,74,0,0
1,note_on,86,0,0
1,note_on,81,73,120
1,note_on,74,73,0
1,note_on,86,81,0
1,note_on,78,73,0
1,note_on,78,0,120
1,note_on,81,0,0
1,note_on,74,0,0
1,note_on,86,0,0
1,note_on,81,73,0
1,note_on,74,73,0
1,note_on,86,81,0
1,note_on,78,73,0
1,note_on,78,0,240
1,note_on,81,0,0
1,note_on,74,0,0
1,note_on,86,0,0
1,note_on,86,71,240
1,note_on,86,0,80
1,note_on,88,71,0
1,note_on,88,0,80
1,note_on,86,71,0
1,note_on,86,0,80
1,note_on,84,72,120
1,note_on,78,72,0
1,note_on,78,0,120
1,note_on,84,0,0
1,note_on,88,72,120
1,note_on,84,72,0
1,note_on,78,72,0
1,note_on,78,0,120
1,note_on,84,0,0
1,note_on,88,0,0
1,note_on,86,72,120
1,note_on,84,72,0
1,note_on,78,72,0
1,note_on,78,0,120
1,note_on,84,0,0
1,note_on,86,0,0
1,note_on,90,72,120
1,note_on,84,72,0
1,note_on,78,72,0
1,note_on,78,0,120
1,note_on,84,0,0
1,note_on,90,0,0
1,note_on,84,72,120
1,note_on,78,72,0
1,note_on,78,0,120
1,note_on,84,0,0
1,note_on,88,72,120
1,note_on,84,72,0
1,note_on,78,72,0
1,note_on,78,0,120
1,note_on,84,0,0
1,note_on,88,0,0
1,note_on,86,72,120
1,note_on,84,72,0
1,note_on,78,72,0
1,note_on,78,0,120
1,note_on,84,0,0
1,note_on,86,0,0
1,note_on,90,72,120
1,note_on,84,72,0
1,note_on,78,72,0
1,note_on,78,0,120
1,note_on,84,0,0
1,note_on,90,0,0
1,note_on,83,84,0
1,note_on,81,84,0
1,note_on,86,84,0
1,note_on,86,0,240
1,note_on,81,0,0
1,note_on,83,0,0
1,note_on,83,72,240
1,note_on,79,72,0
1,note_on,86,72,0
1,note_on,86,0,240
1,note_on,79,0,0
1,note_on,83,0,0
1,note_on,83,72,120
1,note_on,86,72,0
1,note_on,79,72,0
1,note_on,79,0,120
1,note_on,86,0,0
1,note_on,83,0,0
1,note_on,83,72,0
1,note_on,86,72,0
1,note_on,79,72,0
1,note_on,79,0,480
1,note_on,86,0,0
1,note_on,83,0,0
1,note_on,81,63,233
1,note_on,81,0,80
1,note_on,83,63,1
1,note_on,81,63,78
1,note_on,83,0,2
1,note_on,81,0,78
1,note_on,79,64,121
1,note_on,73,64,0
1,note_on,73,0,120
1,note_on,79,0,0
1,note_on,83,64,120
1,note_on,79,64,0
1,note_on,73,64,0
1,note_on,73,0,120
1,note_on,79,0,0
1,note_on,83,0,0
1,note_on,79,64,120
1,note_on,81,64,0
1,note_on,73,64,0
1,note_on,73,0,120
1,note_on,81,0,0
1,note_on,79,0,0
1,note_on,85,64,120
1,note_on,79,64,0
1,note_on,73,64,0
1,note_on,73,0,120
1,note_on,79,0,0
1,note_on,85,0,0
1,note_on,73,63,120
1,note_on,79,63,0
1,note_on,79,0,120
1,note_on,73,0,0
1,note_on,83,63,120
1,note_on,79,63,0
1,note_on,73,63,0
1,note_on,73,0,120
1,note_on,79,0,0
1,note_on,83,0,0
1,note_on,73,63,120
1,note_on,79,63,0
1,note_on,81,63,0
1,note_on,81,0,120
1,note_on,79,0,0
1,note_on,73,0,0
1,note_on,79,63,120
1,note_on,85,63,0
1,note_on,73,63,0
1,note_on,73,0,120
1,note_on,85,0,0
1,note_on,79,0,0
1,note_on,81,70,0
1,note_on,78,70,0
1,note_on,76,70,0
1,note_on,76,0,240
1,note_on,78,0,0
1,note_on,81,0,0
1,note_on,81,64,240
1,note_on,78,64,0
1,note_on,74,64,0
1,note_on,74,0,240
1,note_on,78,0,0
1,note_on,81,0,0
1,note_on,81,64,120
1,note_on,78,64,0
1,note_on,74,64,0
1,note_on,74,0,120
1,note_on,78,0,0
1,note_on,81,0,0
1,note_on,81,64,0
1,note_on,78,64,0
1,note_on,74,64,0
1,note_on,74,0,480
1,note_on,78,0,0
1,note_on,81,0,0
1,note_on,74,50,233
1,note_on,74,0,80
1,note_on,76,50,0
1,note_on,76,0,80
1,note_on,74,50,0
1,note_on,74,0,80
1,note_on,72,51,120
1,note_on,66,51,0
1,note_on,66,0,120
1,note_on,72,0,0
1,note_on,76,51,120
1,note_on,72,51,0
1,note_on,66,51,0
1,note_on,66,0,120
1,note_on,72,0,0
1,note_on,76,0,0
1,note_on,72,51,120
1,note_on,74,51,0
1,note_on,66,51,0
1,note_on,66,0,120
1,note_on,74,0,0
1,note_on,72,0,0
1,note_on,78,51,120
1,note_on,72,51,0
1,note_on,66,51,0
1,note_on,66,0,120
1,note_on,72,0,0
1,note_on,78,0,0
1,note_on,66,50,120
1,note_on,72,50,0
1,note_on,72,0,120
1,note_on,66,0,0
1,note_on,76,50,120
1,note_on,72,50,0
1,note_on,66,50,0
1,note_on,66,0,120
1,note_on,72,0,0
1,note_on,76,0,0
1,note_on,66,50,120
1,note_on,72,50,0
1,note_on,74,50,0
1,note_on,74,0,120
1,note_on,72,0,0
1,note_on,66,0,0
1,note_on,72,50,120
1,note_on,78,50,0
1,note_on,66,50,0
1,note_on,66,0,120
1,note_on,78,0,0
1,note_on,72,0,0
1,note_on,74,60,0
1,note_on,71,60,0
1,note_on,69,60,0
1,note_on,69,0,240
1,note_on,71,0,0
1,note_on,74,0,0
1,note_on,74,51,240
1,note_on,71,51,0
1,note_on,67,51,0
1,note_on,67,0,240
1,note_on,71,0,0
1,note_on,74,0,0
1,note_on,74,51,120
1,note_on,71,51,0
1,note_on,67,51,0
1,note_on,67,0,120
1,note_on,71,0,0
1,note_on,74,0,0
1,note_on,74,51,0
1,note_on,71,51,0
1,note_on,67,51,0
1,note_on,67,0,480
1,note_on,71,0,0
1,note_on,74,0,0
1,note_on,69,47,233
1,note_on,69,0,80
1,note_on,71,47,1
1,note_on,69,47,78
1,note_on,71,0,2
1,note_on,69,0,78
1,note_on,67,47,121
1,note_on,61,47,0
1,note_on,61,0,120
1,note_on,67,0,0
1,note_on,71,47,120
1,note_on,67,47,0
1,note_on,61,47,0
1,note_on,61,0,120
1,note_on,67,0,0
1,note_on,71,0,0
1,note_on,67,47,120
1,note_on,69,47,0
1,note_on,61,47,0
1,note_on,61,0,120
1,note_on,69,0,0
1,note_on,67,0,0
1,note_on,73,47,120
1,note_on,67,47,0
1,note_on,61,47,0
1,note_on,61,0,120
1,note_on,67,0,0
1,note_on,73,0,0
1,note_on,61,47,120
1,note_on,67,47,0
1,note_on,67,0,120
1,note_on,61,0,0
1,note_on,71,47,120
1,note_on,67,47,0
1,note_on,61,47,0
1,note_on,61,0,120
1,note_on,67,0,0
1,note_on,71,0,0
1,note_on,61,47,120
1,note_on,67,47,0
1,note_on,69,47,0
1,note_on,69,0,120
1,note_on,67,0,0
1,note_on,61,0,0
1,note_on,67,47,120
1,note_on,73,47,0
1,note_on,61,47,0
1,note_on,61,0,120
1,note_on,73,0,0
1,note_on,67,0,0
1,note_on,69,55,0
1,note_on,66,55,0
1,note_on,64,55,0
1,note_on,64,0,240
1,note_on,66,0,0
1,note_on,69,0,0
1,note_on,69,47,240
1,note_on,66,47,0
1,note_on,62,47,0
1,note_on,62,0,240
1,note_on,66,0,0
1,note_on,69,0,0
1,note_on,69,47,120
1,note_on,66,47,0
1,note_on,62,47,0
1,note_on,62,0,120
1,note_on,66,0,0
1,note_on,69,0,0
1,note_on,69,47,0
1,note_on,66,47,0
1,note_on,62,47,0
1,note_on,62,0,480
1,note_on,66,0,0
1,note_on,69,0,0
1,note_on,62,45,480
1,note_on,59,45,0
1,note_on,57,45,0
1,note_on,57,0,240
1,note_on,59,0,0
1,note_on,62,0,0
1,note_on,62,42,240
1,note_on,59,42,0
1,note_on,55,42,0
1,note_on,55,0,240
1,note_on,59,0,0
1,note_on,62,0,0
1,note_on,62,42,120
1,note_on,59,42,0
1,note_on,55,42,0
1,note_on,55,0,120
1,note_on,59,0,0
1,note_on,62,0,0
1,note_on,62,42,0
1,note_on,59,42,0
1,note_on,55,42,0
1,note_on,55,0,480
1,note_on,59,0,0
1,note_on,62,0,0
1,note_on,52,35,480
1,note_on,57,35,0
1,note_on,54,35,0
1,note_on,54,0,120
1,note_on,57,0,0
1,note_on,52,0,0
1,note_on,50,35,840
1,note_on,57,35,0
1,note_on,54,35,0
1,note_on,54,0,120
1,note_on,57,0,0
1,note_on,50,0,0
1,note_on,45,35,840
1,note_on,47,35,0
1,note_on,50,35,0
1,note_on,50,0,120
1,note_on,47,0,0
1,note_on,45,0,0
1,note_on,43,35,840
1,note_on,47,35,0
1,note_on,50,35,0
1,note_on,50,0,120
1,note_on,47,0,0
1,note_on,43,0,0
1,note_on,50,35,840
1,note_on,43,35,0
1,note_on,43,0,240
1,note_on,50,0,0
1,note_on,62,35,720
1,note_on,55,35,0
1,note_on,55,0,240
1,note_on,62,0,0
1,note_on,74,37,720
1,note_on,67,37,0
1,note_on,67,0,240
1,note_on,74,0,0
1,note_on,86,39,720
1,note_on,79,39,0
1,note_on,79,0,240
1,note_on,86,0,0
1,note_on,86,39,720
1,note_on,79,39,0
1,note_on,79,0,240
1,note_on,86,0,0
1,note_on,67,37,720
1,note_on,74,37,0
1,note_on,74,0,240
1,note_on,67,0,0
1,note_on,55,35,720
1,note_on,62,35,0
1,note_on,62,0,240
1,note_on,55,0,0
1,note_on,43,34,720
1,note_on,50,34,0
1,note_on,50,0,240
1,note_on,43,0,0
1,note_on,31,30,1200
1,note_on,38,30,0
1,note_on,38,0,240
1,note_on,31,0,0
1,note_on,86,126,720
1,note_on,81,94,0
1,note_on,78,93,0
1,note_on,74,93,0
1,note_on,74,0,360
1,note_on,86,0,0
1,note_on,81,0,0
1,note_on,78,0,0
2,note_on,38,36,0
2,note_on,45,36,0
2,note_on,45,0,240
2,note_on,38,0,0
2,note_on,38,31,1200
2,note_on,45,31,0
2,note_on,45,0,240
2,note_on,38,0,0
2,note_on,45,31,0
2,note_on,38,31,0
2,note_on,38,0,240
2,note_on,45,0,0
2,note_on,38,36,0
2,note_on,45,36,0
2,note_on,45,0,240
2,note_on,38,0,0
2,note_on,38,31,1200
2,note_on,45,31,0
2,note_on,45,0,240
2,note_on,38,0,0
2,note_on,45,31,0
2,note_on,38,31,0
2,note_on,38,0,240
2,note_on,45,0,0
2,note_on,45,35,0
2,note_on,38,35,0
2,note_on,38,0,240
2,note_on,45,0,0
2,note_on,50,31,240
2,note_on,57,31,0
2,note_on,57,0,60
2,note_on,50,0,0
2,note_on,50,31,180
2,note_on,57,31,0
2,note_on,57,0,60
2,note_on,50,0,0
2,note_on,50,35,180
2,note_on,57,35,0
2,note_on,57,0,240
2,note_on,50,0,0
2,note_on,38,31,240
2,note_on,45,31,0
2,note_on,45,0,60
2,note_on,38,0,0
2,note_on,38,31,180
2,note_on,45,31,0
2,note_on,45,0,60
2,note_on,38,0,0
2,note_on,45,35,180
2,note_on,38,35,0
2,note_on,38,0,480
2,note_on,45,0,0
2,note_on,50,33,0
2,note_on,57,33,0
2,note_on,57,0,240
2,note_on,50,0,0
2,note_on,50,33,120
2,note_on,57,33,0
2,note_on,57,0,120
2,note_on,50,0,0
2,note_on,57,33,0
2,note_on,50,33,0
2,note_on,50,0,480
2,note_on,57,0,0
2,note_on,35,34,480
2,note_on,42,34,0
2,note_on,42,0,480
2,note_on,35,0,0
2,note_on,54,31,0
2,note_on,47,31,0
2,note_on,47,0,60
2,note_on,54,0,0
2,note_on,47,31,180
2,note_on,54,31,0
2,note_on,54,0,60
2,note_on,47,0,0
2,note_on,40,34,180
2,note_on,47,34,0
2,note_on,47,0,480
2,note_on,40,0,0
2,note_on,52,31,0
2,note_on,59,31,0
2,note_on,59,0,120
2,note_on,52,0,0
2,note_on,52,31,120
2,note_on,59,31,0
2,note_on,59,0,60
2,note_on,52,0,0
2,note_on,33,35,180
2,note_on,40,35,0
2,note_on,40,0,480
2,note_on,33,0,0
2,note_on,57,33,0
2,note_on,64,33,0
2,note_on,64,0,240
2,note_on,57,0,0
2,note_on,64,33,120
2,note_on,57,33,0
2,note_on,57,0,120
2,note_on,64,0,0
2,note_on,64,33,0
2,note_on,57,33,0
2,note_on,57,0,240
2,note_on,64,0,0
2,note_on,43,39,720
2,note_on,50,39,0
2,note_on,50,0,480
2,note_on,43,0,0
2,note_on,62,38,0
2,note_on,55,38,0
2,note_on,55,0,60
2,note_on,62,0,0
2,note_on,55,38,180
2,note_on,62,38,0
2,note_on,62,0,60
2,note_on,55,0,0
2,note_on,55,41,180
2,note_on,62,41,0
2,note_on,62,0,480
2,note_on,55,0,0
2,note_on,40,36,480
2,note_on,47,36,0
2,note_on,47,0,480
2,note_on,40,0,0
2,note_on,59,34,0
2,note_on,52,34,0
2,note_on,52,0,240
2,note_on,59,0,0
2,note_on,52,34,120
2,note_on,59,34,0
2,note_on,59,0,120
2,note_on,52,0,0
2,note_on,52,36,0
2,note_on,59,36,0
2,note_on,59,0,480
2,note_on,52,0,0
2,note_on,45,39,480
2,note_on,52,39,0
2,note_on,52,0,480
2,note_on,45,0,0
2,note_on,64,36,0
2,note_on,57,36,0
2,note_on,57,0,60
2,note_on,64,0,0
2,note_on,57,36,180
2,note_on,64,36,0
2,note_on,64,0,60
2,note_on,57,0,0
2,note_on,57,39,180
2,note_on,64,39,0
2,note_on,64,0,480
2,note_on,57,0,0
2,note_on,45,39,480
2,note_on,38,39,0
2,note_on,38,0,480
2,note_on,45,0,0
2,note_on,69,36,0
2,note_on,62,36,0
2,note_on,62,0,240
2,note_on,69,0,0
2,note_on,69,36,120
2,note_on,62,36,0
2,note_on,62,0,120
2,note_on,69,0,0
2,note_on,62,36,0
2,note_on,69,36,0
2,note_on,69,0,480
2,note_on,62,0,0
2,note_on,50,27,0
2,note_on,57,27,0
2,note_on,57,0,240
2,note_on,50,0,0
2,note_on,50,27,0
2,note_on,57,27,0
2,note_on,57,0,240
2,note_on,50,0,0
2,note_on,50,31,0
2,note_on,57,31,0
2,note_on,57,0,240
2,note_on,50,0,0
2,note_on,50,27,1200
2,note_on,57,27,0
2,note_on,57,0,240
2,note_on,50,0,0
2,note_on,50,27,0
2,note_on,57,27,0
2,note_on,57,0,240
2,note_on,50,0,0
2,note_on,57,30,0
2,note_on,50,30,0
2,note_on,50,0,240
2,note_on,57,0,0
2,note_on,50,27,1200
2,note_on,57,27,0
2,note_on,57,0,240
2,note_on,50,0,0
2,note_on,50,27,0
2,note_on,57,27,0
2,note_on,57,0,240
2,note_on,50,0,0
2,note_on,50,31,0
2,note_on,57,31,0
2,note_on,57,0,240
2,note_on,50,0,0
2,note_on,62,27,240
2,note_on,69,27,0
2,note_on,69,0,60
2,note_on,62,0,0
2,note_on,69,27,180
2,note_on,62,27,0
2,note_on,62,0,60
2,note_on,69,0,0
2,note_on,62,31,180
2,note_on,69,31,0
2,note_on,69,0,240
2,note_on,62,0,0
2,note_on,57,27,240
2,note_on,50,27,0
2,note_on,50,0,60
2,note_on,57,0,0
2,note_on,57,27,180
2,note_on,50,27,0
2,note_on,50,0,60
2,note_on,57,0,0
2,note_on,50,31,180
2,note_on,57,31,0
2,note_on,57,0,480
2,note_on,50,0,0
2,note_on,62,30,0
2,note_on,69,30,0
2,note_on,69,0,240
2,note_on,62,0,0
2,note_on,62,30,120
2,note_on,69,30,0
2,note_on,69,0,120
2,note_on,62,0,0
2,note_on,69,30,0
2,note_on,62,30,0
2,note_on,62,0,480
2,note_on,69,0,0
2,note_on,47,30,480
2,note_on,54,30,0
2,note_on,54,0,480
2,note_on,47,0,0
2,note_on,66,27,0
2,note_on,59,27,0
2,note_on,59,0,60
2,note_on,66,0,0
2,note_on,59,27,180
2,note_on,66,27,0
2,note_on,66,0,60
2,note_on,59,0,0
2,note_on,52,30,180
2,note_on,59,30,0
2,note_on,59,0,480
2,note_on,52,0,0
2,note_on,64,27,0
2,note_on,71,27,0
2,note_on,71,0,60
2,note_on,64,0,0
2,note_on,71,27,180
2,note_on,64,27,0
2,note_on,64,0,60
2,note_on,71,0,0
2,note_on,57,30,180
2,note_on,64,30,0
2,note_on,64,0,480
2,note_on,57,0,0
2,note_on,69,28,0
2,note_on,76,28,0
2,note_on,76,0,240
2,note_on,69,0,0
2,note_on,76,28,120
2,note_on,69,28,0
2,note_on,69,0,120
2,note_on,76,0,0
2,note_on,76,28,0
2,note_on,69,28,0
2,note_on,69,0,240
2,note_on,76,0,0
2,note_on,55,35,720
2,note_on,62,35,0
2,note_on,62,0,480
2,note_on,55,0,0
2,note_on,67,33,0
2,note_on,74,33,0
2,note_on,74,0,60
2,note_on,67,0,0
2,note_on,74,33,180
2,note_on,67,33,0
2,note_on,67,0,60
2,note_on,74,0,0
2,note_on,67,36,180
2,note_on,74,36,0
2,note_on,74,0,480
2,note_on,67,0,0
2,note_on,52,33,480
2,note_on,59,33,0
2,note_on,59,0,480
2,note_on,52,0,0
2,note_on,71,29,0
2,note_on,64,29,0
2,note_on,64,0,240
2,note_on,71,0,0
2,note_on,64,29,120
2,note_on,71,29,0
2,note_on,71,0,120
2,note_on,64,0,0
2,note_on,71,33,0
2,note_on,64,33,0
2,note_on,64,0,480
2,note_on,71,0,0
2,note_on,57,34,480
2,note_on,64,34,0
2,note_on,64,0,480
2,note_on,57,0,0
2,note_on,76,33,0
2,note_on,69,33,0
2,note_on,69,0,60
2,note_on,76,0,0
2,note_on,69,33,180
2,note_on,76,33,0
2,note_on,76,0,60
2,note_on,69,0,0
2,note_on,69,35,180
2,note_on,76,35,0
2,note_on,76,0,480
2,note_on,69,0,0
2,note_on,69,34,480
2,note_on,62,34,0
2,note_on,62,0,480
2,note_on,69,0,0
2,note_on,81,33,0
2,note_on,74,33,0
2,note_on,74,0,240
2,note_on,81,0,0
2,note_on,81,33,120
2,note_on,74,33,0
2,note_on,74,0,120
2,note_on,81,0,0
2,note_on,74,33,0
2,note_on,81,33,0
2,note_on,81,0,480
2,note_on,74,0,0
2,note_on,45,80,0
2,note_on,52,80,0
2,note_on,52,0,480
2,note_on,45,0,0
2,note_on,45,72,0
2,note_on,52,72,0
2,note_on,52,0,120
2,note_on,45,0,0
2,note_on,52,72,120
2,note_on,45,72,0
2,note_on,45,0,120
2,note_on,52,0,0
2,note_on,45,80,120
2,note_on,52,80,0
2,note_on,52,0,480
2,note_on,45,0,0
2,note_on,45,72,0
2,note_on,52,72,0
2,note_on,52,0,120
2,note_on,45,0,0
2,note_on,45,72,120
2,note_on,52,72,0
2,note_on,52,0,120
2,note_on,45,0,0
2,note_on,45,71,120
2,note_on,52,71,0
2,note_on,52,0,480
2,note_on,45,0,0
2,note_on,45,64,0
2,note_on,52,64,0
2,note_on,52,0,240
2,note_on,45,0,0
2,note_on,45,64,0
2,note_on,52,64,0
2,note_on,52,0,120
2,note_on,45,0,0
2,note_on,45,71,120
2,note_on,52,71,0
2,note_on,52,0,480
2,note_on,45,0,0
2,note_on,45,64,0
2,note_on,52,64,0
2,note_on,52,0,240
2,note_on,45,0,0
2,note_on,45,64,0
2,note_on,52,64,0
2,note_on,52,0,120
2,note_on,45,0,0
2,note_on,56,59,2040
2,note_on,56,0,480
2,note_on,43,33,1440
2,note_on,52,33,0
2,note_on,52,0,120
2,note_on,43,0,0
2,note_on,55,33,0
2,note_on,55,0,120
2,note_on,60,33,0
2,note_on,60,0,120
2,note_on,64,33,0
2,note_on,64,0,120
2,note_on,43,33,480
2,note_on,50,33,0
2,note_on,50,0,120
2,note_on,43,0,0
2,note_on,55,33,0
2,note_on,55,0,120
2,note_on,59,33,0
2,note_on,59,0,120
2,note_on,65,33,0
2,note_on,65,0,120
2,note_on,36,33,480
2,note_on,43,33,0
2,note_on,43,0,480
2,note_on,36,0,0
2,note_on,48,30,0
2,note_on,55,30,0
2,note_on,55,0,120
2,note_on,48,0,0
2,note_on,48,30,120
2,note_on,55,30,0
2,note_on,55,0,120
2,note_on,48,0,0
2,note_on,48,33,120
2,note_on,55,33,0
2,note_on,55,0,360
2,note_on,48,0,0
2,note_on,55,72,120
2,note_on,48,72,0
2,note_on,48,0,120
2,note_on,55,0,0
2,note_on,48,72,120
2,note_on,55,72,0
2,note_on,55,0,120
2,note_on,48,0,0
2,note_on,48,71,120
2,note_on,55,71,0
2,note_on,55,0,480
2,note_on,48,0,0
2,note_on,55,64,0
2,note_on,48,64,0
2,note_on,48,0,240
2,note_on,55,0,0
2,note_on,48,64,0
2,note_on,55,64,0
2,note_on,55,0,120
2,note_on,48,0,0
2,note_on,55,71,120
2,note_on,48,71,0
2,note_on,48,0,480
2,note_on,55,0,0
2,note_on,55,64,0
2,note_on,48,64,0
2,note_on,48,0,240
2,note_on,55,0,0
2,note_on,55,64,0
2,note_on,48,64,0
2,note_on,48,0,120
2,note_on,55,0,0
2,note_on,59,59,2040
2,note_on,59,0,480
2,note_on,46,33,1440
2,note_on,55,33,0
2,note_on,55,0,120
2,note_on,46,0,0
2,note_on,58,33,0
2,note_on,58,0,120
2,note_on,63,33,0
2,note_on,63,0,120
2,note_on,67,33,0
2,note_on,67,0,120
2,note_on,53,33,480
2,note_on,46,33,0
2,note_on,46,0,120
2,note_on,53,0,0
2,note_on,58,33,0
2,note_on,58,0,120
2,note_on,62,33,0
2,note_on,62,0,120
2,note_on,68,33,0
2,note_on,68,0,120
2,note_on,46,33,480
2,note_on,39,33,0
2,note_on,39,0,480
2,note_on,46,0,0
2,note_on,58,30,0
2,note_on,51,30,0
2,note_on,51,0,120
2,note_on,58,0,0
2,note_on,58,30,120
2,note_on,51,30,0
2,note_on,51,0,120
2,note_on,58,0,0
2,note_on,58,33,120
2,note_on,51,33,0
2,note_on,51,0,480
2,note_on,58,0,0
2,note_on,46,27,0
2,note_on,51,27,0
2,note_on,51,0,120
2,note_on,46,0,0
2,note_on,39,23,120
2,note_on,39,0,120
2,note_on,46,23,120
2,note_on,51,23,0
2,note_on,51,0,120
2,note_on,46,0,0
2,note_on,39,26,120
2,note_on,39,0,120
2,note_on,46,29,120
2,note_on,51,29,0
2,note_on,51,0,120
2,note_on,46,0,0
2,note_on,39,27,120
2,note_on,39,0,120
2,note_on,46,27,120
2,note_on,51,27,0
2,note_on,51,0,120
2,note_on,46,0,0
2,note_on,39,28,120
2,note_on,39,0,120
2,note_on,46,35,120
2,note_on,51,35,0
2,note_on,51,0,120
2,note_on,46,0,0
2,note_on,39,30,120
2,note_on,39,0,120
2,note_on,46,30,120
2,note_on,51,30,0
2,note_on,51,0,120
2,note_on,46,0,0
2,note_on,39,30,120
2,note_on,39,0,120
2,note_on,46,36,120
2,note_on,51,36,0
2,note_on,51,0,120
2,note_on,46,0,0
2,note_on,39,33,120
2,note_on,39,0,120
2,note_on,46,33,120
2,note_on,51,33,0
2,note_on,51,0,120
2,note_on,46,0,0
2,note_on,39,33,120
2,note_on,39,0,120
2,note_on,48,33,0
2,note_on,51,33,0
2,note_on,51,0,120
2,note_on,48,0,0
2,note_on,39,30,120
2,note_on,39,0,120
2,note_on,48,31,120
2,note_on,51,31,0
2,note_on,51,0,120
2,note_on,48,0,0
2,note_on,39,30,120
2,note_on,39,0,120
2,note_on,48,34,120
2,note_on,51,34,0
2,note_on,51,0,120
2,note_on,48,0,0
2,note_on,39,31,120
2,note_on,39,0,120
2,note_on,48,32,120
2,note_on,51,32,0
2,note_on,51,0,120
2,note_on,48,0,0
2,note_on,39,32,120
2,note_on,39,0,120
2,note_on,48,40,120
2,note_on,51,40,0
2,note_on,51,0,120
2,note_on,48,0,0
2,note_on,39,34,120
2,note_on,39,0,120
2,note_on,48,35,120
2,note_on,51,35,0
2,note_on,51,0,120
2,note_on,48,0,0
2,note_on,39,35,120
2,note_on,39,0,120
2,note_on,48,42,120
2,note_on,51,42,0
2,note_on,51,0,120
2,note_on,48,0,0
2,note_on,39,37,120
2,note_on,39,0,120
2,note_on,48,38,120
2,note_on,51,38,0
2,note_on,51,0,120
2,note_on,48,0,0
2,note_on,39,38,120
2,note_on,39,0,120
2,note_on,44,44,0
2,note_on,54,44,0
2,note_on,54,0,120
2,note_on,44,0,0
2,note_on,39,42,120
2,note_on,39,0,120
2,note_on,44,44,120
2,note_on,54,44,0
2,note_on,54,0,120
2,note_on,44,0,0
2,note_on,39,39,120
2,note_on,39,0,120
2,note_on,44,45,120
2,note_on,54,45,0
2,note_on,54,0,120
2,note_on,44,0,0
2,note_on,39,42,120
2,note_on,39,0,120
2,note_on,44,42,120
2,note_on,54,42,0
2,note_on,54,0,120
2,note_on,44,0,0
2,note_on,39,44,120
2,note_on,39,0,120
2,note_on,44,48,120
2,note_on,54,48,0
2,note_on,54,0,120
2,note_on,44,0,0
2,note_on,39,42,120
2,note_on,39,0,120
2,note_on,44,47,120
2,note_on,54,47,0
2,note_on,54,0,120
2,note_on,44,0,0
2,note_on,39,44,120
2,note_on,39,0,120
2,note_on,44,50,120
2,note_on,54,50,0
2,note_on,54,0,120
2,note_on,44,0,0
2,note_on,39,46,120
2,note_on,39,0,120
2,note_on,44,46,120
2,note_on,54,46,0
2,note_on,54,0,120
2,note_on,44,0,0
2,note_on,39,46,120
2,note_on,39,0,120
2,note_on,44,50,0
2,note_on,53,50,0
2,note_on,53,0,120
2,note_on,44,0,0
2,note_on,39,46,120
2,note_on,39,0,120
2,note_on,44,48,120
2,note_on,53,48,0
2,note_on,53,0,120
2,note_on,44,0,0
2,note_on,39,46,120
2,note_on,39,0,120
2,note_on,44,51,120
2,note_on,53,51,0
2,note_on,53,0,120
2,note_on,44,0,0
2,note_on,39,47,120
2,note_on,39,0,120
2,note_on,44,50,120
2,note_on,53,50,0
2,note_on,53,0,120
2,note_on,44,0,0
2,note_on,39,47,120
2,note_on,39,0,120
2,note_on,44,60,120
2,note_on,53,60,0
2,note_on,53,0,120
2,note_on,44,0,0
2,note_on,39,50,120
2,note_on,39,0,120
2,note_on,44,56,120
2,note_on,53,56,0
2,note_on,53,0,120
2,note_on,44,0,0
2,note_on,39,51,120
2,note_on,39,0,120
2,note_on,44,59,120
2,note_on,53,59,0
2,note_on,53,0,120
2,note_on,44,0,0
2,note_on,39,53,120
2,note_on,39,0,120
2,note_on,44,57,120
2,note_on,53,57,0
2,note_on,53,0,120
2,note_on,44,0,0
2,note_on,39,53,120
2,note_on,39,0,120
2,note_on,39,60,120
2,note_on,46,60,0
2,note_on,53,60,0
2,note_on,53,0,240
2,note_on,46,0,0
2,note_on,39,0,0
2,note_on,39,55,0
2,note_on,46,55,0
2,note_on,53,55,0
2,note_on,53,0,240
2,note_on,46,0,0
2,note_on,39,0,0
2,note_on,39,57,0
2,note_on,46,57,0
2,note_on,53,57,0
2,note_on,53,0,480
2,note_on,46,0,0
2,note_on,39,0,0
2,note_on,51,53,0
2,note_on,58,53,0
2,note_on,65,53,0
2,note_on,65,0,240
2,note_on,58,0,0
2,note_on,51,0,0
2,note_on,51,53,0
2,note_on,58,53,0
2,note_on,65,53,0
2,note_on,65,0,240
2,note_on,58,0,0
2,note_on,51,0,0
2,note_on,51,61,0
2,note_on,58,61,0
2,note_on,65,61,0
2,note_on,65,0,480
2,note_on,58,0,0
2,note_on,51,0,0
2,note_on,39,59,0
2,note_on,46,59,0
2,note_on,53,59,0
2,note_on,53,0,240
2,note_on,46,0,0
2,note_on,39,0,0
2,note_on,39,55,0
2,note_on,46,55,0
2,note_on,53,55,0
2,note_on,53,0,240
2,note_on,46,0,0
2,note_on,39,0,0
2,note_on,39,59,0
2,note_on,46,59,0
2,note_on,53,59,0
2,note_on,53,0,480
2,note_on,46,0,0
2,note_on,39,0,0
2,note_on,51,61,0
2,note_on,58,61,0
2,note_on,65,61,0
2,note_on,65,0,240
2,note_on,58,0,0
2,note_on,51,0,0
2,note_on,51,56,0
2,note_on,58,56,0
2,note_on,65,56,0
2,note_on,65,0,240
2,note_on,58,0,0
2,note_on,51,0,0
2,note_on,51,64,0
2,note_on,58,64,0
2,note_on,65,64,0
2,note_on,65,0,480
2,note_on,58,0,0
2,note_on,51,0,0
2,note_on,65,75,0
2,note_on,53,75,0
2,note_on,53,0,120
2,note_on,65,0,0
2,note_on,55,75,120
2,note_on,67,75,0
2,note_on,67,0,120
2,note_on,55,0,0
2,note_on,68,82,120
2,note_on,56,82,0
2,note_on,56,0,120
2,note_on,68,0,0
2,note_on,72,75,120
2,note_on,60,75,0
2,note_on,60,0,120
2,note_on,72,0,0
2,note_on,68,75,120
2,note_on,56,75,0
2,note_on,56,0,120
2,note_on,68,0,0
2,note_on,65,75,120
2,note_on,53,75,0
2,note_on,53,0,120
2,note_on,65,0,0
2,note_on,68,82,120
2,note_on,56,82,0
2,note_on,56,0,240
2,note_on,68,0,0
2,note_on,65,75,0
2,note_on,53,75,0
2,note_on,53,0,240
2,note_on,65,0,0
2,note_on,62,75,0
2,note_on,50,75,0
2,note_on,50,0,240
2,note_on,62,0,0
2,note_on,53,75,0
2,note_on,65,75,0
2,note_on,65,0,240
2,note_on,53,0,0
2,note_on,50,82,0
2,note_on,62,82,0
2,note_on,62,0,240
2,note_on,50,0,0
2,note_on,46,75,0
2,note_on,58,75,0
2,note_on,58,0,240
2,note_on,46,0,0
2,note_on,62,75,0
2,note_on,50,75,0
2,note_on,50,0,240
2,note_on,62,0,0
2,note_on,46,75,0
2,note_on,58,75,0
2,note_on,58,0,240
2,note_on,46,0,0
2,note_on,43,82,0
2,note_on,55,82,0
2,note_on,55,0,240
2,note_on,43,0,0
2,note_on,46,75,0
2,note_on,58,75,0
2,note_on,58,0,240
2,note_on,46,0,0
2,note_on,43,75,0
2,note_on,55,75,0
2,note_on,55,0,240
2,note_on,43,0,0
2,note_on,39,75,0
2,note_on,51,75,0
2,note_on,51,0,240
2,note_on,39,0,0
2,note_on,43,85,0
2,note_on,55,85,0
2,note_on,55,0,240
2,note_on,43,0,0
2,note_on,39,79,0
2,note_on,51,79,0
2,note_on,51,0,240
2,note_on,39,0,0
2,note_on,36,79,0
2,note_on,48,79,0
2,note_on,48,0,240
2,note_on,36,0,0
2,note_on,39,79,0
2,note_on,51,79,0
2,note_on,51,0,240
2,note_on,39,0,0
2,note_on,36,85,0
2,note_on,48,85,0
2,note_on,48,0,240
2,note_on,36,0,0
2,note_on,32,81,0
2,note_on,44,81,0
2,note_on,44,0,240
2,note_on,32,0,0
2,note_on,36,86,0
2,note_on,48,86,0
2,note_on,48,0,240
2,note_on,36,0,0
2,note_on,32,95,0
2,note_on,44,95,0
2,note_on,44,0,240
2,note_on,32,0,0
2,note_on,31,90,0
2,note_on,43,107,0
2,note_on,51,88,480
2,note_on,48,74,0
2,note_on,44,74,0
2,note_on,44,0,480
2,note_on,51,0,0
2,note_on,48,0,0
2,note_on,63,88,0
2,note_on,60,74,0
2,note_on,56,74,0
2,note_on,56,0,480
2,note_on,63,0,0
2,note_on,60,0,0
2,note_on,75,88,0
2,note_on,72,74,0
2,note_on,68,74,0
2,note_on,68,0,480
2,note_on,75,0,0
2,note_on,31,0,0
2,note_on,43,0,0
2,note_on,72,0,0
2,note_on,30,90,0
2,note_on,42,107,0
2,note_on,51,88,480
2,note_on,48,74,0
2,note_on,44,74,0
2,note_on,44,0,480
2,note_on,51,0,0
2,note_on,48,0,0
2,note_on,63,88,0
2,note_on,60,74,0
2,note_on,56,74,0
2,note_on,56,0,480
2,note_on,63,0,0
2,note_on,60,0,0
2,note_on,75,88,0
2,note_on,72,74,0
2,note_on,68,74,0
2,note_on,68,0,480
2,note_on,75,0,0
2,note_on,30,0,0
2,note_on,42,0,0
2,note_on,72,0,0
2,note_on,29,93,0
2,note_on,41,110,0
2,note_on,51,88,480
2,note_on,47,74,0
2,note_on,44,74,0
2,note_on,44,0,480
2,note_on,51,0,0
2,note_on,47,0,0
2,note_on,63,88,0
2,note_on,59,74,0
2,note_on,56,74,0
2,note_on,56,0,480
2,note_on,63,0,0
2,note_on,59,0,0
2,note_on,75,88,0
2,note_on,71,74,0
2,note_on,68,74,0
2,note_on,68,0,480
2,note_on,75,0,0
2,note_on,29,0,0
2,note_on,41,0,0
2,note_on,71,0,0
2,note_on,28,93,0
2,note_on,40,110,0
2,note_on,49,88,480
2,note_on,45,74,0
2,note_on,40,74,0
2,note_on,40,0,480
2,note_on,49,0,0
2,note_on,45,0,0
2,note_on,57,74,0
2,note_on,61,88,0
2,note_on,52,74,0
2,note_on,52,0,480
2,note_on,57,0,0
2,note_on,61,0,0
2,note_on,73,88,0
2,note_on,69,74,0
2,note_on,64,74,0
2,note_on,64,0,240
2,note_on,73,0,0
2,note_on,69,0,0
2,note_on,40,0,240
2,note_on,28,0,0
2,note_on,38,79,0
2,note_on,45,79,0
2,note_on,45,0,120
2,note_on,38,0,0
2,note_on,50,68,0
2,note_on,50,0,120
2,note_on,54,68,0
2,note_on,54,0,120
2,note_on,57,68,0
2,note_on,57,0,120
2,note_on,62,70,0
2,note_on,62,0,96
2,note_on,57,70,0
2,note_on,57,0,96
2,note_on,54,69,0
2,note_on,54,0,96
2,note_on,50,68,0
2,note_on,50,0,96
2,note_on,45,68,0
2,note_on,45,0,96
2,note_on,38,64,0
2,note_on,38,0,96
2,note_on,45,69,0
2,note_on,45,0,96
2,note_on,50,70,0
2,note_on,50,0,96
2,note_on,54,71,0
2,note_on,54,0,96
2,note_on,57,73,0
2,note_on,57,0,96
2,note_on,62,75,0
2,note_on,62,0,240
2,note_on,38,77,240
2,note_on,45,77,0
2,note_on,50,77,0
2,note_on,50,0,240
2,note_on,45,0,0
2,note_on,38,0,0
2,note_on,62,68,0
2,note_on,57,68,0
2,note_on,54,68,0
2,note_on,54,0,480
2,note_on,57,0,0
2,note_on,62,0,0
2,note_on,66,68,0
2,note_on,62,68,0
2,note_on,57,68,0
2,note_on,57,0,480
2,note_on,62,0,0
2,note_on,66,0,0
2,note_on,69,68,0
2,note_on,66,68,0
2,note_on,62,68,0
2,note_on,62,0,240
2,note_on,66,0,0
2,note_on,69,0,0
2,note_on,35,66,480
2,note_on,35,0,80
2,note_on,42,59,0
2,note_on,42,0,80
2,note_on,47,59,0
2,note_on,47,0,80
2,note_on,50,59,0
2,note_on,50,0,80
2,note_on,54,59,0
2,note_on,54,0,80
2,note_on,59,59,0
2,note_on,59,0,80
2,note_on,62,59,0
2,note_on,62,0,240
2,note_on,40,66,240
2,note_on,40,0,96
2,note_on,47,59,0
2,note_on,47,0,96
2,note_on,52,59,0
2,note_on,52,0,96
2,note_on,56,59,0
2,note_on,56,0,96
2,note_on,62,59,0
2,note_on,62,0,96
2,note_on,66,59,0
2,note_on,66,0,240
2,note_on,33,75,240
2,note_on,40,75,0
2,note_on,45,75,0
2,note_on,45,0,240
2,note_on,40,0,0
2,note_on,33,0,0
2,note_on,61,64,0
2,note_on,57,64,0
2,note_on,52,64,0
2,note_on,52,0,480
2,note_on,57,0,0
2,note_on,61,0,0
2,note_on,64,64,0
2,note_on,61,64,0
2,note_on,57,64,0
2,note_on,57,0,480
2,note_on,61,0,0
2,note_on,64,0,0
2,note_on,69,64,0
2,note_on,64,64,0
2,note_on,61,64,0
2,note_on,61,0,240
2,note_on,64,0,0
2,note_on,69,0,0
2,note_on,43,65,480
2,note_on,50,65,0
2,note_on,50,0,120
2,note_on,43,0,0
2,note_on,55,57,0
2,note_on,55,0,120
2,note_on,59,57,0
2,note_on,59,0,120
2,note_on,62,57,0
2,note_on,62,0,120
2,note_on,67,65,0
2,note_on,67,0,96
2,note_on,62,59,0
2,note_on,62,0,96
2,note_on,59,58,0
2,note_on,59,0,96
2,note_on,55,58,0
2,note_on,55,0,96
2,note_on,50,57,0
2,note_on,50,0,96
2,note_on,43,56,0
2,note_on,43,0,96
2,note_on,47,56,0
2,note_on,47,0,96
2,note_on,55,57,0
2,note_on,55,0,96
2,note_on,59,57,0
2,note_on,59,0,96
2,note_on,62,57,0
2,note_on,62,0,96
2,note_on,67,57,0
2,note_on,67,0,240
2,note_on,40,73,240
2,note_on,47,73,0
2,note_on,52,73,0
2,note_on,52,0,240
2,note_on,47,0,0
2,note_on,40,0,0
2,note_on,66,62,0
2,note_on,62,62,0
2,note_on,59,62,0
2,note_on,55,62,0
2,note_on,55,0,480
2,note_on,66,0,0
2,note_on,62,0,0
2,note_on,59,0,0
2,note_on,67,62,0
2,note_on,66,62,0
2,note_on,62,62,0
2,note_on,59,62,0
2,note_on,59,0,480
2,note_on,67,0,0
2,note_on,66,0,0
2,note_on,62,0,0
2,note_on,71,62,0
2,note_on,67,62,0
2,note_on,66,62,0
2,note_on,62,62,0
2,note_on,62,0,240
2,note_on,71,0,0
2,note_on,67,0,0
2,note_on,66,0,0
2,note_on,45,69,480
2,note_on,45,0,96
2,note_on,52,60,0
2,note_on,52,0,96
2,note_on,57,60,0
2,note_on,57,0,96
2,note_on,62,60,0
2,note_on,62,0,96
2,note_on,67,60,0
2,note_on,67,0,96
2,note_on,71,60,0
2,note_on,71,0,240
2,note_on,45,69,240
2,note_on,45,0,96
2,note_on,52,60,0
2,note_on,52,0,96
2,note_on,57,60,0
2,note_on,57,0,96
2,note_on,62,60,0
2,note_on,62,0,96
2,note_on,67,60,0
2,note_on,67,0,96
2,note_on,71,60,0
2,note_on,71,0,240
2,note_on,38,75,240
2,note_on,45,75,0
2,note_on,50,75,0
2,note_on,50,0,240
2,note_on,45,0,0
2,note_on,38,0,0
2,note_on,66,64,0
2,note_on,62,64,0
2,note_on,57,64,0
2,note_on,57,0,480
2,note_on,62,0,0
2,note_on,66,0,0
2,note_on,69,64,0
2,note_on,66,64,0
2,note_on,62,64,0
2,note_on,62,0,480
2,note_on,66,0,0
2,note_on,69,0,0
2,note_on,66,62,0
2,note_on,69,62,0
2,note_on,74,62,0
2,note_on,74,0,240
2,note_on,69,0,0
2,note_on,66,0,0
2,note_on,43,44,0
2,note_on,50,44,0
2,note_on,50,0,960
2,note_on,43,0,0
2,note_on,43,44,0
2,note_on,50,44,0
2,note_on,50,0,960
2,note_on,43,0,0
2,note_on,43,30,0
2,note_on,50,30,0
2,note_on,50,0,960
2,note_on,43,0,0
2,note_on,59,44,0
2,note_on,43,30,0
2,note_on,50,30,0
2,note_on,59,0,240
2,note_on,57,45,0
2,note_on,57,0,480
2,note_on,55,40,0
2,note_on,55,0,240
2,note_on,50,0,0
2,note_on,43,0,0
2,note_on,43,27,0
2,note_on,50,27,0
2,note_on,54,42,0
2,note_on,54,0,960
2,note_on,50,0,0
2,note_on,43,0,0
2,note_on,57,44,0
2,note_on,43,30,0
2,note_on,50,30,0
2,note_on,57,0,240
2,note_on,55,46,0
2,note_on,55,0,480
2,note_on,54,40,0
2,note_on,54,0,240
2,note_on,50,0,0
2,note_on,43,0,0
2,note_on,52,42,0
2,note_on,43,27,0
2,note_on,50,27,0
2,note_on,50,0,960
2,note_on,43,0,0
2,note_on,52,0,0
2,note_on,55,44,0
2,note_on,40,37,0
2,note_on,55,0,240
2,note_on,54,46,0
2,note_on,54,0,480
2,note_on,52,42,0
2,note_on,52,0,240
2,note_on,40,0,0
2,note_on,33,44,0
2,note_on,45,44,0
2,note_on,45,0,960
2,note_on,33,0,0
2,note_on,38,50,0
2,note_on,45,50,0
2,note_on,45,0,240
2,note_on,38,0,0
2,note_on,62,55,0
2,note_on,50,55,0
2,note_on,50,0,480
2,note_on,62,0,0
2,note_on,49,55,0
2,note_on,61,55,0
2,note_on,61,0,240
2,note_on,49,0,0
2,note_on,48,40,0
2,note_on,55,40,0
2,note_on,60,40,0
2,note_on,60,0,960
2,note_on,55,0,0
2,note_on,48,0,0
2,note_on,55,34,0
2,note_on,52,31,0
2,note_on,64,31,0
2,note_on,64,0,240
2,note_on,52,0,0
2,note_on,50,36,0
2,note_on,62,36,0
2,note_on,62,0,480
2,note_on,50,0,0
2,note_on,48,28,0
2,note_on,60,28,0
2,note_on,60,0,240
2,note_on,48,0,0
2,note_on,55,0,0
2,note_on,47,31,0
2,note_on,54,31,0
2,note_on,59,31,0
2,note_on,59,0,960
2,note_on,54,0,0
2,note_on,47,0,0
2,note_on,54,36,0
2,note_on,50,31,0
2,note_on,62,31,0
2,note_on,62,0,240
2,note_on,50,0,0
2,note_on,48,36,0
2,note_on,60,36,0
2,note_on,60,0,480
2,note_on,48,0,0
2,note_on,47,29,0
2,note_on,59,29,0
2,note_on,59,0,240
2,note_on,47,0,0
2,note_on,54,0,0
2,note_on,45,30,0
2,note_on,52,30,0
2,note_on,57,30,0
2,note_on,57,0,960
2,note_on,52,0,0
2,note_on,45,0,0
2,note_on,33,55,0
2,note_on,60,57,0
2,note_on,60,0,240
2,note_on,59,51,0
2,note_on,59,0,480
2,note_on,57,45,0
2,note_on,57,0,240
2,note_on,33,0,0
2,note_on,38,40,0
2,note_on,50,40,0
2,note_on,50,0,960
2,note_on,38,0,0
2,note_on,43,30,0
2,note_on,50,30,0
2,note_on,50,0,660
2,note_on,43,0,0
2,note_on,54,27,0
2,note_on,63,27,60
2,note_on,66,27,60
2,note_on,71,29,960
2,note_on,71,0,240
2,note_on,70,29,0
2,note_on,70,0,480
2,note_on,68,27,0
2,note_on,68,0,240
2,note_on,70,27,0
2,note_on,70,0,960
2,note_on,70,29,0
2,note_on,70,0,240
2,note_on,68,29,0
2,note_on,68,0,480
2,note_on,66,27,0
2,note_on,66,0,240
2,note_on,54,0,0
2,note_on,63,0,0
2,note_on,66,0,0
2,note_on,63,29,0
2,note_on,66,29,0
2,note_on,66,0,960
2,note_on,63,0,0
2,note_on,61,34,0
2,note_on,68,34,0
2,note_on,68,0,960
2,note_on,61,0,0
2,note_on,64,31,0
2,note_on,54,31,0
2,note_on,54,0,960
2,note_on,64,0,0
2,note_on,64,31,0
2,note_on,59,25,0
2,note_on,64,0,240
2,note_on,63,31,0
2,note_on,63,0,420
2,note_on,50,23,0
2,note_on,59,23,60
2,note_on,62,23,60
2,note_on,59,0,180
2,note_on,67,29,960
2,note_on,67,0,240
2,note_on,66,29,0
2,note_on,66,0,480
2,note_on,64,27,0
2,note_on,64,0,240
2,note_on,66,27,0
2,note_on,66,0,960
2,note_on,66,29,0
2,note_on,66,0,240
2,note_on,64,29,0
2,note_on,64,0,480
2,note_on,62,27,0
2,note_on,62,0,240
2,note_on,62,0,0
2,note_on,59,0,0
2,note_on,50,0,0
2,note_on,59,27,0
2,note_on,62,27,0
2,note_on,62,0,960
2,note_on,59,0,0
2,note_on,57,30,0
2,note_on,64,30,0
2,note_on,64,0,960
2,note_on,57,0,0
2,note_on,60,29,0
2,note_on,50,29,0
2,note_on,50,0,960
2,note_on,60,0,0
2,note_on,59,29,0
2,note_on,59,0,240
2,note_on,57,29,0
2,note_on,57,0,480
2,note_on,54,29,0
2,note_on,54,0,240
2,note_on,43,23,0
2,note_on,50,23,0
2,note_on,50,0,480
2,note_on,43,0,0
2,note_on,74,34,0
2,note_on,74,0,480
2,note_on,59,29,0
2,note_on,43,26,0
2,note_on,50,26,0
2,note_on,59,0,240
2,note_on,57,35,0
2,note_on,57,0,480
2,note_on,55,31,0
2,note_on,55,0,240
2,note_on,50,0,0
2,note_on,43,0,0
2,note_on,43,22,0
2,note_on,50,22,0
2,note_on,54,22,0
2,note_on,54,0,480
2,note_on,50,0,0
2,note_on,43,0,0
2,note_on,74,35,0
2,note_on,74,0,480
2,note_on,57,29,0
2,note_on,43,26,0
2,note_on,50,26,0
2,note_on,57,0,240
2,note_on,55,36,0
2,note_on,55,0,480
2,note_on,54,31,0
2,note_on,54,0,240
2,note_on,50,0,0
2,note_on,43,0,0
2,note_on,52,22,0
2,note_on,43,22,0
2,note_on,50,22,0
2,note_on,50,0,480
2,note_on,43,0,0
2,note_on,52,0,0
2,note_on,74,34,0
2,note_on,74,0,360
2,note_on,40,30,0
2,note_on,55,34,120
2,note_on,55,0,240
2,note_on,54,36,0
2,note_on,54,0,480
2,note_on,52,31,0
2,note_on,52,0,240
2,note_on,40,0,0
2,note_on,33,36,0
2,note_on,45,36,0
2,note_on,45,0,480
2,note_on,33,0,0
2,note_on,69,36,0
2,note_on,69,0,480
2,note_on,38,42,0
2,note_on,45,42,0
2,note_on,45,0,240
2,note_on,38,0,0
2,note_on,62,46,0
2,note_on,50,46,0
2,note_on,50,0,480
2,note_on,62,0,0
2,note_on,49,46,0
2,note_on,61,46,0
2,note_on,61,0,240
2,note_on,49,0,0
2,note_on,48,35,0
2,note_on,55,35,0
2,note_on,60,35,0
2,note_on,60,0,480
2,note_on,55,0,0
2,note_on,48,0,0
2,note_on,79,46,0
2,note_on,79,0,480
2,note_on,55,22,0
2,note_on,52,23,0
2,note_on,64,23,0
2,note_on,64,0,240
2,note_on,52,0,0
2,note_on,50,31,0
2,note_on,62,31,0
2,note_on,62,0,480
2,note_on,50,0,0
2,note_on,48,25,0
2,note_on,60,25,0
2,note_on,60,0,240
2,note_on,48,0,0
2,note_on,55,0,0
2,note_on,47,27,0
2,note_on,54,27,0
2,note_on,59,27,0
2,note_on,59,0,480
2,note_on,54,0,0
2,note_on,47,0,0
2,note_on,78,46,0
2,note_on,78,0,480
2,note_on,54,22,0
2,note_on,50,23,0
2,note_on,62,23,0
2,note_on,62,0,240
2,note_on,50,0,0
2,note_on,48,31,0
2,note_on,60,31,0
2,note_on,60,0,480
2,note_on,48,0,0
2,note_on,47,25,0
2,note_on,59,25,0
2,note_on,59,0,240
2,note_on,47,0,0
2,note_on,54,0,0
2,note_on,45,26,0
2,note_on,52,26,0
2,note_on,57,26,0
2,note_on,57,0,480
2,note_on,52,0,0
2,note_on,45,0,0
2,note_on,76,44,0
2,note_on,76,0,360
2,note_on,33,56,0
2,note_on,60,55,120
2,note_on,60,0,240
2,note_on,59,42,0
2,note_on,59,0,480
2,note_on,57,37,0
2,note_on,57,0,240
2,note_on,33,0,0
2,note_on,38,35,0
2,note_on,50,35,0
2,note_on,50,0,480
2,note_on,38,0,0
2,note_on,74,38,0
2,note_on,74,0,480
2,note_on,43,26,0
2,note_on,50,26,0
2,note_on,54,27,660
2,note_on,50,0,60
2,note_on,43,0,0
2,note_on,63,27,0
2,note_on,66,27,60
2,note_on,71,29,960
2,note_on,71,0,240
2,note_on,70,29,0
2,note_on,70,0,480
2,note_on,68,27,0
2,note_on,68,0,240
2,note_on,70,27,0
2,note_on,70,0,960
2,note_on,70,29,0
2,note_on,70,0,240
2,note_on,68,29,0
2,note_on,68,0,480
2,note_on,66,27,0
2,note_on,66,0,240
2,note_on,54,0,0
2,note_on,63,0,0
2,note_on,66,0,0
2,note_on,63,29,0
2,note_on,66,29,0
2,note_on,66,0,960
2,note_on,63,0,0
2,note_on,61,34,0
2,note_on,68,34,0
2,note_on,68,0,960
2,note_on,61,0,0
2,note_on,64,31,0
2,note_on,54,31,0
2,note_on,54,0,960
2,note_on,64,0,0
2,note_on,64,31,0
2,note_on,59,25,0
2,note_on,64,0,240
2,note_on,63,31,0
2,note_on,63,0,420
2,note_on,50,23,0
2,note_on,59,23,60
2,note_on,62,23,60
2,note_on,59,0,180
2,note_on,67,29,960
2,note_on,67,0,240
2,note_on,66,29,0
2,note_on,66,0,480
2,note_on,64,27,0
2,note_on,64,0,240
2,note_on,66,27,0
2,note_on,66,0,960
2,note_on,66,29,0
2,note_on,66,0,240
2,note_on,64,29,0
2,note_on,64,0,480
2,note_on,62,27,0
2,note_on,62,0,240
2,note_on,62,0,0
2,note_on,59,0,0
2,note_on,50,0,0
2,note_on,59,27,0
2,note_on,62,27,0
2,note_on,62,0,960
2,note_on,59,0,0
2,note_on,57,30,0
2,note_on,64,30,0
2,note_on,64,0,960
2,note_on,57,0,0
2,note_on,60,29,0
2,note_on,50,29,0
2,note_on,50,0,960
2,note_on,60,0,0
2,note_on,59,29,0
2,note_on,59,0,240
2,note_on,57,29,0
2,note_on,57,0,480
2,note_on,54,29,0
2,note_on,54,0,240
2,note_on,43,23,0
2,note_on,50,23,0
2,note_on,50,0,480
2,note_on,43,0,0
2,note_on,74,34,0
2,note_on,74,0,480
2,note_on,59,29,0
2,note_on,43,26,0
2,note_on,50,26,0
2,note_on,59,0,240
2,note_on,57,35,0
2,note_on,57,0,480
2,note_on,55,31,0
2,note_on,55,0,240
2,note_on,50,0,0
2,note_on,43,0,0
2,note_on,43,22,0
2,note_on,50,22,0
2,note_on,54,22,0
2,note_on,54,0,480
2,note_on,50,0,0
2,note_on,43,0,0
2,note_on,74,35,0
2,note_on,74,0,480
2,note_on,57,29,0
2,note_on,43,26,0
2,note_on,50,26,0
2,note_on,57,0,240
2,note_on,55,36,0
2,note_on,55,0,480
2,note_on,54,31,0
2,note_on,54,0,240
2,note_on,50,0,0
2,note_on,43,0,0
2,note_on,52,22,0
2,note_on,43,22,0
2,note_on,50,22,0
2,note_on,50,0,480
2,note_on,43,0,0
2,note_on,52,0,0
2,note_on,74,35,0
2,note_on,74,0,360
2,note_on,40,30,0
2,note_on,55,34,120
2,note_on,55,0,240
2,note_on,54,36,0
2,note_on,54,0,480
2,note_on,52,31,0
2,note_on,52,0,240
2,note_on,40,0,0
2,note_on,33,36,0
2,note_on,45,36,0
2,note_on,45,0,480
2,note_on,33,0,0
2,note_on,69,36,0
2,note_on,69,0,480
2,note_on,38,42,0
2,note_on,45,42,0
2,note_on,45,0,240
2,note_on,38,0,0
2,note_on,62,46,0
2,note_on,50,46,0
2,note_on,50,0,480
2,note_on,62,0,0
2,note_on,49,46,0
2,note_on,61,46,0
2,note_on,61,0,240
2,note_on,49,0,0
2,note_on,48,35,0
2,note_on,55,35,0
2,note_on,60,35,0
2,note_on,60,0,480
2,note_on,55,0,0
2,note_on,48,0,0
2,note_on,79,47,0
2,note_on,79,0,480
2,note_on,55,22,0
2,note_on,52,23,0
2,note_on,64,23,0
2,note_on,64,0,240
2,note_on,52,0,0
2,note_on,50,31,0
2,note_on,62,31,0
2,note_on,62,0,480
2,note_on,50,0,0
2,note_on,48,25,0
2,note_on,60,25,0
2,note_on,60,0,240
2,note_on,48,0,0
2,note_on,55,0,0
2,note_on,47,27,0
2,note_on,54,27,0
2,note_on,59,27,0
2,note_on,59,0,480
2,note_on,54,0,0
2,note_on,47,0,0
2,note_on,78,46,0
2,note_on,78,0,480
2,note_on,54,22,0
2,note_on,50,23,0
2,note_on,62,23,0
2,note_on,62,0,240
2,note_on,50,0,0
2,note_on,48,31,0
2,note_on,60,31,0
2,note_on,60,0,480
2,note_on,48,0,0
2,note_on,47,25,0
2,note_on,59,25,0
2,note_on,59,0,240
2,note_on,47,0,0
2,note_on,54,0,0
2,note_on,45,26,0
2,note_on,52,26,0
2,note_on,57,26,0
2,note_on,57,0,480
2,note_on,52,0,0
2,note_on,45,0,0
2,note_on,76,42,0
2,note_on,76,0,360
2,note_on,33,56,0
2,note_on,60,55,120
2,note_on,60,0,240
2,note_on,59,42,0
2,note_on,59,0,480
2,note_on,57,37,0
2,note_on,57,0,240
2,note_on,33,0,0
2,note_on,38,35,0
2,note_on,50,35,0
2,note_on,50,0,480
2,note_on,38,0,0
2,note_on,74,35,0
2,note_on,74,0,480
2,note_on,43,26,0
2,note_on,50,26,0
2,note_on,50,0,720
2,note_on,43,0,0
2,note_on,38,36,0
2,note_on,45,36,0
2,note_on,45,0,240
2,note_on,38,0,0
2,note_on,38,31,1200
2,note_on,45,31,0
2,note_on,45,0,240
2,note_on,38,0,0
2,note_on,38,31,0
2,note_on,45,31,0
2,note_on,45,0,240
2,note_on,38,0,0
2,note_on,38,36,0
2,note_on,45,36,0
2,note_on,45,0,240
2,note_on,38,0,0
2,note_on,38,31,1200
2,note_on,45,31,0
2,note_on,45,0,240
2,note_on,38,0,0
2,note_on,38,31,0
2,note_on,45,31,0
2,note_on,45,0,240
2,note_on,38,0,0
2,note_on,38,35,0
2,note_on,45,35,0
2,note_on,45,0,240
2,note_on,38,0,0
2,note_on,50,31,240
2,note_on,57,31,0
2,note_on,57,0,60
2,note_on,50,0,0
2,note_on,50,31,180
2,note_on,57,31,0
2,note_on,57,0,60
2,note_on,50,0,0
2,note_on,57,35,180
2,note_on,50,35,0
2,note_on,50,0,240
2,note_on,57,0,0
2,note_on,38,31,240
2,note_on,45,31,0
2,note_on,45,0,60
2,note_on,38,0,0
2,note_on,38,31,180
2,note_on,45,31,0
2,note_on,45,0,60
2,note_on,38,0,0
2,note_on,38,35,180
2,note_on,45,35,0
2,note_on,45,0,480
2,note_on,38,0,0
2,note_on,50,33,0
2,note_on,57,33,0
2,note_on,57,0,240
2,note_on,50,0,0
2,note_on,50,33,120
2,note_on,57,33,0
2,note_on,57,0,120
2,note_on,50,0,0
2,note_on,50,33,0
2,note_on,57,33,0
2,note_on,57,0,480
2,note_on,50,0,0
2,note_on,35,34,480
2,note_on,42,34,0
2,note_on,42,0,480
2,note_on,35,0,0
2,note_on,47,31,0
2,note_on,54,31,0
2,note_on,54,0,60
2,note_on,47,0,0
2,note_on,47,31,180
2,note_on,54,31,0
2,note_on,54,0,60
2,note_on,47,0,0
2,note_on,40,34,180
2,note_on,47,34,0
2,note_on,47,0,480
2,note_on,40,0,0
2,note_on,52,31,0
2,note_on,59,31,0
2,note_on,59,0,60
2,note_on,52,0,0
2,note_on,52,31,180
2,note_on,59,31,0
2,note_on,59,0,60
2,note_on,52,0,0
2,note_on,33,35,180
2,note_on,40,35,0
2,note_on,40,0,480
2,note_on,33,0,0
2,note_on,64,33,0
2,note_on,57,33,0
2,note_on,57,0,240
2,note_on,64,0,0
2,note_on,64,33,120
2,note_on,57,33,0
2,note_on,57,0,120
2,note_on,64,0,0
2,note_on,64,33,0
2,note_on,57,33,0
2,note_on,57,0,240
2,note_on,64,0,0
2,note_on,43,39,720
2,note_on,50,39,0
2,note_on,50,0,480
2,note_on,43,0,0
2,note_on,62,38,0
2,note_on,55,38,0
2,note_on,55,0,60
2,note_on,62,0,0
2,note_on,62,38,180
2,note_on,55,38,0
2,note_on,55,0,60
2,note_on,62,0,0
2,note_on,55,41,180
2,note_on,62,41,0
2,note_on,62,0,480
2,note_on,55,0,0
2,note_on,40,36,480
2,note_on,47,36,0
2,note_on,47,0,480
2,note_on,40,0,0
2,note_on,59,34,0
2,note_on,52,34,0
2,note_on,52,0,240
2,note_on,59,0,0
2,note_on,59,34,120
2,note_on,52,34,0
2,note_on,52,0,120
2,note_on,59,0,0
2,note_on,52,36,0
2,note_on,59,36,0
2,note_on,59,0,480
2,note_on,52,0,0
2,note_on,45,39,480
2,note_on,52,39,0
2,note_on,52,0,480
2,note_on,45,0,0
2,note_on,64,36,0
2,note_on,57,36,0
2,note_on,57,0,60
2,note_on,64,0,0
2,note_on,64,36,180
2,note_on,57,36,0
2,note_on,57,0,60
2,note_on,64,0,0
2,note_on,57,39,180
2,note_on,64,39,0
2,note_on,64,0,480
2,note_on,57,0,0
2,note_on,38,39,480
2,note_on,45,39,0
2,note_on,45,0,480
2,note_on,38,0,0
2,note_on,69,36,0
2,note_on,62,36,0
2,note_on,62,0,240
2,note_on,69,0,0
2,note_on,69,36,120
2,note_on,62,36,0
2,note_on,62,0,120
2,note_on,69,0,0
2,note_on,69,36,0
2,note_on,62,36,0
2,note_on,62,0,480
2,note_on,69,0,0
2,note_on,50,27,0
2,note_on,57,27,0
2,note_on,57,0,240
2,note_on,50,0,0
2,note_on,50,27,0
2,note_on,57,27,0
2,note_on,57,0,240
2,note_on,50,0,0
2,note_on,50,31,0
2,note_on,57,31,0
2,note_on,57,0,240
2,note_on,50,0,0
2,note_on,50,27,1200
2,note_on,57,27,0
2,note_on,57,0,240
2,note_on,50,0,0
2,note_on,50,27,0
2,note_on,57,27,0
2,note_on,57,0,240
2,note_on,50,0,0
2,note_on,50,30,0
2,note_on,57,30,0
2,note_on,57,0,240
2,note_on,50,0,0
2,note_on,50,27,1200
2,note_on,57,27,0
2,note_on,57,0,240
2,note_on,50,0,0
2,note_on,50,27,0
2,note_on,57,27,0
2,note_on,57,0,240
2,note_on,50,0,0
2,note_on,50,31,0
2,note_on,57,31,0
2,note_on,57,0,240
2,note_on,50,0,0
2,note_on,62,27,240
2,note_on,69,27,0
2,note_on,69,0,60
2,note_on,62,0,0
2,note_on,62,27,180
2,note_on,69,27,0
2,note_on,69,0,60
2,note_on,62,0,0
2,note_on,69,31,180
2,note_on,62,31,0
2,note_on,62,0,240
2,note_on,69,0,0
2,note_on,50,27,240
2,note_on,57,27,0
2,note_on,57,0,60
2,note_on,50,0,0
2,note_on,50,27,180
2,note_on,57,27,0
2,note_on,57,0,60
2,note_on,50,0,0
2,note_on,50,31,180
2,note_on,57,31,0
2,note_on,57,0,480
2,note_on,50,0,0
2,note_on,62,30,0
2,note_on,69,30,0
2,note_on,69,0,240
2,note_on,62,0,0
2,note_on,62,30,120
2,note_on,69,30,0
2,note_on,69,0,120
2,note_on,62,0,0
2,note_on,62,30,0
2,note_on,69,30,0
2,note_on,69,0,480
2,note_on,62,0,0
2,note_on,47,30,480
2,note_on,54,30,0
2,note_on,54,0,480
2,note_on,47,0,0
2,note_on,59,27,0
2,note_on,66,27,0
2,note_on,66,0,60
2,note_on,59,0,0
2,note_on,59,27,180
2,note_on,66,27,0
2,note_on,66,0,60
2,note_on,59,0,0
2,note_on,52,30,180
2,note_on,59,30,0
2,note_on,59,0,480
2,note_on,52,0,0
2,note_on,64,27,0
2,note_on,71,27,0
2,note_on,71,0,60
2,note_on,64,0,0
2,note_on,64,27,180
2,note_on,71,27,0
2,note_on,71,0,60
2,note_on,64,0,0
2,note_on,57,30,180
2,note_on,64,30,0
2,note_on,64,0,480
2,note_on,57,0,0
2,note_on,76,28,0
2,note_on,69,28,0
2,note_on,69,0,240
2,note_on,76,0,0
2,note_on,76,28,120
2,note_on,69,28,0
2,note_on,69,0,120
2,note_on,76,0,0
2,note_on,76,28,0
2,note_on,69,28,0
2,note_on,69,0,240
2,note_on,76,0,0
2,note_on,55,35,720
2,note_on,62,35,0
2,note_on,62,0,480
2,note_on,55,0,0
2,note_on,74,33,0
2,note_on,67,33,0
2,note_on,67,0,60
2,note_on,74,0,0
2,note_on,74,33,180
2,note_on,67,33,0
2,note_on,67,0,60
2,note_on,74,0,0
2,note_on,67,36,180
2,note_on,74,36,0
2,note_on,74,0,480
2,note_on,67,0,0
2,note_on,52,33,480
2,note_on,59,33,0
2,note_on,59,0,480
2,note_on,52,0,0
2,note_on,71,29,0
2,note_on,64,29,0
2,note_on,64,0,240
2,note_on,71,0,0
2,note_on,71,29,120
2,note_on,64,29,0
2,note_on,64,0,120
2,note_on,71,0,0
2,note_on,64,33,0
2,note_on,71,33,0
2,note_on,71,0,480
2,note_on,64,0,0
2,note_on,57,34,480
2,note_on,64,34,0
2,note_on,64,0,480
2,note_on,57,0,0
2,note_on,76,33,0
2,note_on,69,33,0
2,note_on,69,0,60
2,note_on,76,0,0
2,note_on,76,33,180
2,note_on,69,33,0
2,note_on,69,0,60
2,note_on,76,0,0
2,note_on,69,35,180
2,note_on,76,35,0
2,note_on,76,0,480
2,note_on,69,0,0
2,note_on,62,34,480
2,note_on,69,34,0
2,note_on,69,0,480
2,note_on,62,0,0
2,note_on,81,33,0
2,note_on,74,33,0
2,note_on,74,0,240
2,note_on,81,0,0
2,note_on,81,33,120
2,note_on,74,33,0
2,note_on,74,0,120
2,note_on,81,0,0
2,note_on,81,33,0
2,note_on,74,33,0
2,note_on,74,0,480
2,note_on,81,0,0
2,note_on,45,80,0
2,note_on,52,80,0
2,note_on,52,0,480
2,note_on,45,0,0
2,note_on,45,72,0
2,note_on,52,72,0
2,note_on,52,0,120
2,note_on,45,0,0
2,note_on,52,72,120
2,note_on,45,72,0
2,note_on,45,0,120
2,note_on,52,0,0
2,note_on,45,80,120
2,note_on,52,80,0
2,note_on,52,0,480
2,note_on,45,0,0
2,note_on,45,72,0
2,note_on,52,72,0
2,note_on,52,0,120
2,note_on,45,0,0
2,note_on,45,72,120
2,note_on,52,72,0
2,note_on,52,0,120
2,note_on,45,0,0
2,note_on,45,71,120
2,note_on,52,71,0
2,note_on,52,0,480
2,note_on,45,0,0
2,note_on,45,64,0
2,note_on,52,64,0
2,note_on,52,0,240
2,note_on,45,0,0
2,note_on,45,64,0
2,note_on,52,64,0
2,note_on,52,0,120
2,note_on,45,0,0
2,note_on,45,71,120
2,note_on,52,71,0
2,note_on,52,0,480
2,note_on,45,0,0
2,note_on,45,64,0
2,note_on,52,64,0
2,note_on,52,0,240
2,note_on,45,0,0
2,note_on,45,64,0
2,note_on,52,64,0
2,note_on,52,0,120
2,note_on,45,0,0
2,note_on,56,59,2040
2,note_on,56,0,480
2,note_on,43,33,1440
2,note_on,52,33,0
2,note_on,52,0,120
2,note_on,43,0,0
2,note_on,55,33,0
2,note_on,55,0,120
2,note_on,60,33,0
2,note_on,60,0,120
2,note_on,64,33,0
2,note_on,64,0,120
2,note_on,43,33,480
2,note_on,50,33,0
2,note_on,50,0,120
2,note_on,43,0,0
2,note_on,55,33,0
2,note_on,55,0,120
2,note_on,59,33,0
2,note_on,59,0,120
2,note_on,65,33,0
2,note_on,65,0,120
2,note_on,36,33,480
2,note_on,43,33,0
2,note_on,43,0,480
2,note_on,36,0,0
2,note_on,48,30,0
2,note_on,55,30,0
2,note_on,55,0,120
2,note_on,48,0,0
2,note_on,48,30,120
2,note_on,55,30,0
2,note_on,55,0,120
2,note_on,48,0,0
2,note_on,48,33,120
2,note_on,55,33,0
2,note_on,55,0,360
2,note_on,48,0,0
2,note_on,55,72,120
2,note_on,48,72,0
2,note_on,48,0,120
2,note_on,55,0,0
2,note_on,48,72,120
2,note_on,55,72,0
2,note_on,55,0,120
2,note_on,48,0,0
2,note_on,48,71,120
2,note_on,55,71,0
2,note_on,55,0,480
2,note_on,48,0,0
2,note_on,55,64,0
2,note_on,48,64,0
2,note_on,48,0,240
2,note_on,55,0,0
2,note_on,48,64,0
2,note_on,55,64,0
2,note_on,55,0,120
2,note_on,48,0,0
2,note_on,55,71,120
2,note_on,48,71,0
2,note_on,48,0,480
2,note_on,55,0,0
2,note_on,55,64,0
2,note_on,48,64,0
2,note_on,48,0,240
2,note_on,55,0,0
2,note_on,55,64,0
2,note_on,48,64,0
2,note_on,48,0,120
2,note_on,55,0,0
2,note_on,59,59,2040
2,note_on,59,0,480
2,note_on,46,33,1440
2,note_on,55,33,0
2,note_on,55,0,120
2,note_on,46,0,0
2,note_on,58,33,0
2,note_on,58,0,120
2,note_on,63,33,0
2,note_on,63,0,120
2,note_on,67,33,0
2,note_on,67,0,120
2,note_on,53,33,480
2,note_on,46,33,0
2,note_on,46,0,120
2,note_on,53,0,0
2,note_on,58,33,0
2,note_on,58,0,120
2,note_on,62,33,0
2,note_on,62,0,120
2,note_on,68,33,0
2,note_on,68,0,120
2,note_on,46,33,480
2,note_on,39,33,0
2,note_on,39,0,480
2,note_on,46,0,0
2,note_on,58,30,0
2,note_on,51,30,0
2,note_on,51,0,120
2,note_on,58,0,0
2,note_on,58,30,120
2,note_on,51,30,0
2,note_on,51,0,120
2,note_on,58,0,0
2,note_on,58,33,120
2,note_on,51,33,0
2,note_on,51,0,480
2,note_on,58,0,0
2,note_on,46,27,0
2,note_on,51,27,0
2,note_on,51,0,120
2,note_on,46,0,0
2,note_on,39,23,120
2,note_on,39,0,120
2,note_on,46,23,120
2,note_on,51,23,0
2,note_on,51,0,120
2,note_on,46,0,0
2,note_on,39,26,120
2,note_on,39,0,120
2,note_on,46,29,120
2,note_on,51,29,0
2,note_on,51,0,120
2,note_on,46,0,0
2,note_on,39,27,120
2,note_on,39,0,120
2,note_on,46,27,120
2,note_on,51,27,0
2,note_on,51,0,120
2,note_on,46,0,0
2,note_on,39,28,120
2,note_on,39,0,120
2,note_on,46,35,120
2,note_on,51,35,0
2,note_on,51,0,120
2,note_on,46,0,0
2,note_on,39,30,120
2,note_on,39,0,120
2,note_on,46,30,120
2,note_on,51,30,0
2,note_on,51,0,120
2,note_on,46,0,0
2,note_on,39,30,120
2,note_on,39,0,120
2,note_on,46,36,120
2,note_on,51,36,0
2,note_on,51,0,120
2,note_on,46,0,0
2,note_on,39,33,120
2,note_on,39,0,120
2,note_on,46,33,120
2,note_on,51,33,0
2,note_on,51,0,120
2,note_on,46,0,0
2,note_on,39,33,120
2,note_on,39,0,120
2,note_on,48,33,0
2,note_on,51,33,0
2,note_on,51,0,120
2,note_on,48,0,0
2,note_on,39,30,120
2,note_on,39,0,120
2,note_on,48,31,120
2,note_on,51,31,0
2,note_on,51,0,120
2,note_on,48,0,0
2,note_on,39,30,120
2,note_on,39,0,120
2,note_on,48,34,120
2,note_on,51,34,0
2,note_on,51,0,120
2,note_on,48,0,0
2,note_on,39,31,120
2,note_on,39,0,120
2,note_on,48,32,120
2,note_on,51,32,0
2,note_on,51,0,120
2,note_on,48,0,0
2,note_on,39,32,120
2,note_on,39,0,120
2,note_on,48,40,120
2,note_on,51,40,0
2,note_on,51,0,120
2,note_on,48,0,0
2,note_on,39,34,120
2,note_on,39,0,120
2,note_on,48,35,120
2,note_on,51,35,0
2,note_on,51,0,120
2,note_on,48,0,0
2,note_on,39,35,120
2,note_on,39,0,120
2,note_on,48,42,120
2,note_on,51,42,0
2,note_on,51,0,120
2,note_on,48,0,0
2,note_on,39,37,120
2,note_on,39,0,120
2,note_on,48,38,120
2,note_on,51,38,0
2,note_on,51,0,120
2,note_on,48,0,0
2,note_on,39,38,120
2,note_on,39,0,120
2,note_on,44,44,0
2,note_on,54,44,0
2,note_on,54,0,120
2,note_on,44,0,0
2,note_on,39,42,120
2,note_on,39,0,120
2,note_on,44,44,120
2,note_on,54,44,0
2,note_on,54,0,120
2,note_on,44,0,0
2,note_on,39,39,120
2,note_on,39,0,120
2,note_on,44,45,120
2,note_on,54,45,0
2,note_on,54,0,120
2,note_on,44,0,0
2,note_on,39,42,120
2,note_on,39,0,120
2,note_on,44,42,120
2,note_on,54,42,0
2,note_on,54,0,120
2,note_on,44,0,0
2,note_on,39,44,120
2,note_on,39,0,120
2,note_on,44,48,120
2,note_on,54,48,0
2,note_on,54,0,120
2,note_on,44,0,0
2,note_on,39,42,120
2,note_on,39,0,120
2,note_on,44,47,120
2,note_on,54,47,0
2,note_on,54,0,120
2,note_on,44,0,0
2,note_on,39,44,120
2,note_on,39,0,120
2,note_on,44,50,120
2,note_on,54,50,0
2,note_on,54,0,120
2,note_on,44,0,0
2,note_on,39,46,120
2,note_on,39,0,120
2,note_on,44,46,120
2,note_on,54,46,0
2,note_on,54,0,120
2,note_on,44,0,0
2,note_on,39,46,120
2,note_on,39,0,120
2,note_on,44,50,0
2,note_on,53,50,0
2,note_on,53,0,120
2,note_on,44,0,0
2,note_on,39,46,120
2,note_on,39,0,120
2,note_on,44,48,120
2,note_on,53,48,0
2,note_on,53,0,120
2,note_on,44,0,0
2,note_on,39,46,120
2,note_on,39,0,120
2,note_on,44,51,120
2,note_on,53,51,0
2,note_on,53,0,120
2,note_on,44,0,0
2,note_on,39,47,120
2,note_on,39,0,120
2,note_on,44,50,120
2,note_on,53,50,0
2,note_on,53,0,120
2,note_on,44,0,0
2,note_on,39,47,120
2,note_on,39,0,120
2,note_on,44,60,120
2,note_on,53,60,0
2,note_on,53,0,120
2,note_on,44,0,0
2,note_on,39,50,120
2,note_on,39,0,120
2,note_on,44,56,120
2,note_on,53,56,0
2,note_on,53,0,120
2,note_on,44,0,0
2,note_on,39,51,120
2,note_on,39,0,120
2,note_on,44,59,120
2,note_on,53,59,0
2,note_on,53,0,120
2,note_on,44,0,0
2,note_on,39,53,120
2,note_on,39,0,120
2,note_on,44,57,120
2,note_on,53,57,0
2,note_on,53,0,120
2,note_on,44,0,0
2,note_on,39,53,120
2,note_on,39,0,120
2,note_on,39,60,120
2,note_on,46,60,0
2,note_on,53,60,0
2,note_on,53,0,240
2,note_on,46,0,0
2,note_on,39,0,0
2,note_on,39,55,0
2,note_on,46,55,0
2,note_on,53,55,0
2,note_on,53,0,240
2,note_on,46,0,0
2,note_on,39,0,0
2,note_on,39,57,0
2,note_on,46,57,0
2,note_on,53,57,0
2,note_on,53,0,480
2,note_on,46,0,0
2,note_on,39,0,0
2,note_on,51,53,0
2,note_on,58,53,0
2,note_on,65,53,0
2,note_on,65,0,240
2,note_on,58,0,0
2,note_on,51,0,0
2,note_on,51,53,0
2,note_on,58,53,0
2,note_on,65,53,0
2,note_on,65,0,240
2,note_on,58,0,0
2,note_on,51,0,0
2,note_on,51,61,0
2,note_on,58,61,0
2,note_on,65,61,0
2,note_on,65,0,480
2,note_on,58,0,0
2,note_on,51,0,0
2,note_on,39,59,0
2,note_on,46,59,0
2,note_on,53,59,0
2,note_on,53,0,240
2,note_on,46,0,0
2,note_on,39,0,0
2,note_on,39,55,0
2,note_on,46,55,0
2,note_on,53,55,0
2,note_on,53,0,240
2,note_on,46,0,0
2,note_on,39,0,0
2,note_on,39,59,0
2,note_on,46,59,0
2,note_on,53,59,0
2,note_on,53,0,480
2,note_on,46,0,0
2,note_on,39,0,0
2,note_on,51,61,0
2,note_on,58,61,0
2,note_on,65,61,0
2,note_on,65,0,240
2,note_on,58,0,0
2,note_on,51,0,0
2,note_on,51,56,0
2,note_on,58,56,0
2,note_on,65,56,0
2,note_on,65,0,240
2,note_on,58,0,0
2,note_on,51,0,0
2,note_on,51,64,0
2,note_on,58,64,0
2,note_on,65,64,0
2,note_on,65,0,480
2,note_on,58,0,0
2,note_on,51,0,0
2,note_on,65,75,0
2,note_on,53,75,0
2,note_on,53,0,120
2,note_on,65,0,0
2,note_on,55,75,120
2,note_on,67,75,0
2,note_on,67,0,120
2,note_on,55,0,0
2,note_on,68,82,120
2,note_on,56,82,0
2,note_on,56,0,120
2,note_on,68,0,0
2,note_on,72,75,120
2,note_on,60,75,0
2,note_on,60,0,120
2,note_on,72,0,0
2,note_on,68,75,120
2,note_on,56,75,0
2,note_on,56,0,120
2,note_on,68,0,0
2,note_on,65,75,120
2,note_on,53,75,0
2,note_on,53,0,120
2,note_on,65,0,0
2,note_on,68,82,120
2,note_on,56,82,0
2,note_on,56,0,240
2,note_on,68,0,0
2,note_on,65,75,0
2,note_on,53,75,0
2,note_on,53,0,240
2,note_on,65,0,0
2,note_on,62,75,0
2,note_on,50,75,0
2,note_on,50,0,240
2,note_on,62,0,0
2,note_on,53,75,0
2,note_on,65,75,0
2,note_on,65,0,240
2,note_on,53,0,0
2,note_on,50,82,0
2,note_on,62,82,0
2,note_on,62,0,240
2,note_on,50,0,0
2,note_on,46,75,0
2,note_on,58,75,0
2,note_on,58,0,240
2,note_on,46,0,0
2,note_on,62,75,0
2,note_on,50,75,0
2,note_on,50,0,240
2,note_on,62,0,0
2,note_on,46,75,0
2,note_on,58,75,0
2,note_on,58,0,240
2,note_on,46,0,0
2,note_on,43,82,0
2,note_on,55,82,0
2,note_on,55,0,240
2,note_on,43,0,0
2,note_on,46,75,0
2,note_on,58,75,0
2,note_on,58,0,240
2,note_on,46,0,0
2,note_on,43,75,0
2,note_on,55,75,0
2,note_on,55,0,240
2,note_on,43,0,0
2,note_on,39,75,0
2,note_on,51,75,0
2,note_on,51,0,240
2,note_on,39,0,0
2,note_on,43,85,0
2,note_on,55,85,0
2,note_on,55,0,240
2,note_on,43,0,0
2,note_on,39,79,0
2,note_on,51,79,0
2,note_on,51,0,240
2,note_on,39,0,0
2,note_on,36,79,0
2,note_on,48,79,0
2,note_on,48,0,240
2,note_on,36,0,0
2,note_on,39,79,0
2,note_on,51,79,0
2,note_on,51,0,240
2,note_on,39,0,0
2,note_on,36,85,0
2,note_on,48,85,0
2,note_on,48,0,240
2,note_on,36,0,0
2,note_on,32,81,0
2,note_on,44,81,0
2,note_on,44,0,240
2,note_on,32,0,0
2,note_on,36,86,0
2,note_on,48,86,0
2,note_on,48,0,240
2,note_on,36,0,0
2,note_on,32,95,0
2,note_on,44,95,0
2,note_on,44,0,240
2,note_on,32,0,0
2,note_on,31,90,0
2,note_on,43,107,0
2,note_on,51,88,480
2,note_on,48,74,0
2,note_on,44,74,0
2,note_on,44,0,480
2,note_on,51,0,0
2,note_on,48,0,0
2,note_on,63,88,0
2,note_on,60,74,0
2,note_on,56,74,0
2,note_on,56,0,480
2,note_on,63,0,0
2,note_on,60,0,0
2,note_on,75,88,0
2,note_on,72,74,0
2,note_on,68,74,0
2,note_on,68,0,480
2,note_on,75,0,0
2,note_on,31,0,0
2,note_on,43,0,0
2,note_on,72,0,0
2,note_on,30,90,0
2,note_on,42,107,0
2,note_on,51,88,480
2,note_on,48,74,0
2,note_on,44,74,0
2,note_on,44,0,480
2,note_on,51,0,0
2,note_on,48,0,0
2,note_on,63,88,0
2,note_on,60,74,0
2,note_on,56,74,0
2,note_on,56,0,480
2,note_on,63,0,0
2,note_on,60,0,0
2,note_on,75,88,0
2,note_on,72,74,0
2,note_on,68,74,0
2,note_on,68,0,480
2,note_on,75,0,0
2,note_on,30,0,0
2,note_on,42,0,0
2,note_on,72,0,0
2,note_on,29,93,0
2,note_on,41,110,0
2,note_on,51,88,480
2,note_on,47,74,0
2,note_on,44,74,0
2,note_on,44,0,480
2,note_on,51,0,0
2,note_on,47,0,0
2,note_on,63,88,0
2,note_on,59,74,0
2,note_on,56,74,0
2,note_on,56,0,480
2,note_on,63,0,0
2,note_on,59,0,0
2,note_on,75,88,0
2,note_on,71,74,0
2,note_on,68,74,0
2,note_on,68,0,480
2,note_on,75,0,0
2,note_on,29,0,0
2,note_on,41,0,0
2,note_on,71,0,0
2,note_on,28,93,0
2,note_on,40,110,0
2,note_on,49,88,480
2,note_on,45,74,0
2,note_on,40,74,0
2,note_on,40,0,480
2,note_on,49,0,0
2,note_on,45,0,0
2,note_on,57,74,0
2,note_on,61,88,0
2,note_on,52,74,0
2,note_on,52,0,480
2,note_on,57,0,0
2,note_on,61,0,0
2,note_on,73,88,0
2,note_on,69,74,0
2,note_on,64,74,0
2,note_on,64,0,240
2,note_on,73,0,0
2,note_on,69,0,0
2,note_on,40,0,240
2,note_on,28,0,0
2,note_on,38,79,0
2,note_on,45,79,0
2,note_on,45,0,120
2,note_on,38,0,0
2,note_on,50,68,0
2,note_on,50,0,120
2,note_on,54,68,0
2,note_on,54,0,120
2,note_on,57,68,0
2,note_on,57,0,120
2,note_on,62,70,0
2,note_on,62,0,96
2,note_on,57,70,0
2,note_on,57,0,96
2,note_on,54,69,0
2,note_on,54,0,96
2,note_on,50,68,0
2,note_on,50,0,96
2,note_on,45,68,0
2,note_on,45,0,96
2,note_on,38,64,0
2,note_on,38,0,96
2,note_on,45,69,0
2,note_on,45,0,96
2,note_on,50,70,0
2,note_on,50,0,96
2,note_on,54,71,0
2,note_on,54,0,96
2,note_on,57,73,0
2,note_on,57,0,96
2,note_on,62,75,0
2,note_on,62,0,240
2,note_on,38,77,240
2,note_on,45,77,0
2,note_on,50,77,0
2,note_on,50,0,240
2,note_on,45,0,0
2,note_on,38,0,0
2,note_on,62,68,0
2,note_on,57,68,0
2,note_on,54,68,0
2,note_on,54,0,480
2,note_on,57,0,0
2,note_on,62,0,0
2,note_on,66,68,0
2,note_on,62,68,0
2,note_on,57,68,0
2,note_on,57,0,480
2,note_on,62,0,0
2,note_on,66,0,0
2,note_on,69,68,0
2,note_on,66,68,0
2,note_on,62,68,0
2,note_on,62,0,240
2,note_on,66,0,0
2,note_on,69,0,0
2,note_on,35,66,480
2,note_on,35,0,80
2,note_on,42,59,0
2,note_on,42,0,80
2,note_on,47,59,0
2,note_on,47,0,80
2,note_on,50,59,0
2,note_on,50,0,80
2,note_on,54,59,0
2,note_on,54,0,80
2,note_on,59,59,0
2,note_on,59,0,80
2,note_on,62,59,0
2,note_on,62,0,240
2,note_on,40,66,240
2,note_on,40,0,96
2,note_on,47,59,0
2,note_on,47,0,96
2,note_on,52,59,0
2,note_on,52,0,96
2,note_on,56,59,0
2,note_on,56,0,96
2,note_on,62,59,0
2,note_on,62,0,96
2,note_on,66,59,0
2,note_on,66,0,240
2,note_on,33,75,240
2,note_on,40,75,0
2,note_on,45,75,0
2,note_on,45,0,240
2,note_on,40,0,0
2,note_on,33,0,0
2,note_on,61,64,0
2,note_on,57,64,0
2,note_on,52,64,0
2,note_on,52,0,480
2,note_on,57,0,0
2,note_on,61,0,0
2,note_on,64,64,0
2,note_on,61,64,0
2,note_on,57,64,0
2,note_on,57,0,480
2,note_on,61,0,0
2,note_on,64,0,0
2,note_on,69,64,0
2,note_on,64,64,0
2,note_on,61,64,0
2,note_on,61,0,240
2,note_on,64,0,0
2,note_on,69,0,0
2,note_on,43,65,480
2,note_on,50,65,0
2,note_on,50,0,120
2,note_on,43,0,0
2,note_on,55,57,0
2,note_on,55,0,120
2,note_on,59,57,0
2,note_on,59,0,120
2,note_on,62,57,0
2,note_on,62,0,120
2,note_on,67,65,0
2,note_on,67,0,96
2,note_on,62,59,0
2,note_on,62,0,96
2,note_on,59,58,0
2,note_on,59,0,96
2,note_on,55,58,0
2,note_on,55,0,96
2,note_on,50,57,0
2,note_on,50,0,96
2,note_on,43,56,0
2,note_on,43,0,96
2,note_on,47,56,0
2,note_on,47,0,96
2,note_on,55,57,0
2,note_on,55,0,96
2,note_on,59,57,0
2,note_on,59,0,96
2,note_on,62,57,0
2,note_on,62,0,96
2,note_on,67,57,0
2,note_on,67,0,240
2,note_on,40,73,240
2,note_on,47,73,0
2,note_on,52,73,0
2,note_on,52,0,240
2,note_on,47,0,0
2,note_on,40,0,0
2,note_on,66,62,0
2,note_on,62,62,0
2,note_on,59,62,0
2,note_on,55,62,0
2,note_on,55,0,480
2,note_on,66,0,0
2,note_on,62,0,0
2,note_on,59,0,0
2,note_on,67,62,0
2,note_on,66,62,0
2,note_on,62,62,0
2,note_on,59,62,0
2,note_on,59,0,480
2,note_on,67,0,0
2,note_on,66,0,0
2,note_on,62,0,0
2,note_on,71,62,0
2,note_on,67,62,0
2,note_on,66,62,0
2,note_on,62,62,0
2,note_on,62,0,240
2,note_on,71,0,0
2,note_on,67,0,0
2,note_on,66,0,0
2,note_on,45,69,480
2,note_on,45,0,96
2,note_on,52,60,0
2,note_on,52,0,96
2,note_on,57,60,0
2,note_on,57,0,96
2,note_on,62,60,0
2,note_on,62,0,96
2,note_on,67,60,0
2,note_on,67,0,96
2,note_on,71,60,0
2,note_on,71,0,240
2,note_on,45,69,240
2,note_on,45,0,96
2,note_on,52,60,0
2,note_on,52,0,96
2,note_on,57,60,0
2,note_on,57,0,96
2,note_on,62,60,0
2,note_on,62,0,96
2,note_on,67,60,0
2,note_on,67,0,96
2,note_on,71,60,0
2,note_on,71,0,240
2,note_on,38,75,240
2,note_on,45,75,0
2,note_on,50,75,0
2,note_on,50,0,240
2,note_on,45,0,0
2,note_on,38,0,0
2,note_on,66,64,0
2,note_on,62,64,0
2,note_on,57,64,0
2,note_on,57,0,480
2,note_on,62,0,0
2,note_on,66,0,0
2,note_on,69,64,0
2,note_on,66,64,0
2,note_on,62,64,0
2,note_on,62,0,480
2,note_on,66,0,0
2,note_on,69,0,0
2,note_on,66,62,0
2,note_on,69,62,0
2,note_on,74,62,0
2,note_on,74,0,240
2,note_on,69,0,0
2,note_on,66,0,0
2,note_on,38,55,0
2,note_on,45,55,0
2,note_on,45,0,180
2,note_on,38,0,0
2,note_on,33,48,60
2,note_on,45,48,0
2,note_on,45,0,180
2,note_on,33,0,0
2,note_on,38,55,60
2,note_on,45,55,0
2,note_on,45,0,180
2,note_on,38,0,0
2,note_on,33,48,60
2,note_on,45,48,0
2,note_on,45,0,180
2,note_on,33,0,0
2,note_on,38,52,60
2,note_on,45,52,0
2,note_on,45,0,180
2,note_on,38,0,0
2,note_on,33,48,60
2,note_on,45,48,0
2,note_on,45,0,180
2,note_on,33,0,0
2,note_on,38,55,60
2,note_on,45,55,0
2,note_on,45,0,180
2,note_on,38,0,0
2,note_on,33,46,60
2,note_on,45,46,0
2,note_on,45,0,180
2,note_on,33,0,0
2,note_on,38,51,60
2,note_on,45,51,0
2,note_on,45,0,180
2,note_on,38,0,0
2,note_on,33,52,60
2,note_on,33,0,180
2,note_on,38,51,60
2,note_on,45,51,0
2,note_on,45,0,180
2,note_on,38,0,0
2,note_on,33,52,60
2,note_on,33,0,180
2,note_on,38,51,60
2,note_on,45,51,0
2,note_on,45,0,180
2,note_on,38,0,0
2,note_on,33,51,60
2,note_on,33,0,180
2,note_on,38,51,60
2,note_on,45,51,0
2,note_on,45,0,180
2,note_on,38,0,0
2,note_on,33,52,60
2,note_on,33,0,180
2,note_on,38,55,60
2,note_on,45,55,0
2,note_on,45,0,173
2,note_on,38,0,0
2,note_on,33,48,60
2,note_on,45,48,0
2,note_on,45,0,180
2,note_on,33,0,0
2,note_on,38,55,60
2,note_on,45,55,0
2,note_on,45,0,180
2,note_on,38,0,0
2,note_on,33,48,60
2,note_on,45,48,0
2,note_on,45,0,180
2,note_on,33,0,0
2,note_on,38,53,60
2,note_on,45,53,0
2,note_on,45,0,180
2,note_on,38,0,0
2,note_on,33,48,60
2,note_on,45,48,0
2,note_on,45,0,180
2,note_on,33,0,0
2,note_on,38,53,60
2,note_on,45,53,0
2,note_on,45,0,180
2,note_on,38,0,0
2,note_on,33,46,60
2,note_on,45,46,0
2,note_on,45,0,180
2,note_on,33,0,0
2,note_on,38,51,60
2,note_on,45,51,0
2,note_on,45,0,180
2,note_on,38,0,0
2,note_on,33,52,60
2,note_on,33,0,180
2,note_on,38,51,60
2,note_on,45,51,0
2,note_on,45,0,180
2,note_on,38,0,0
2,note_on,33,52,60
2,note_on,33,0,180
2,note_on,38,51,60
2,note_on,45,51,0
2,note_on,45,0,180
2,note_on,38,0,0
2,note_on,33,51,60
2,note_on,33,0,180
2,note_on,38,51,60
2,note_on,45,51,0
2,note_on,45,0,180
2,note_on,38,0,0
2,note_on,33,40,60
2,note_on,33,0,180
2,note_on,38,44,60
2,note_on,45,44,0
2,note_on,45,0,173
2,note_on,38,0,0
2,note_on,33,38,60
2,note_on,45,38,0
2,note_on,45,0,180
2,note_on,33,0,0
2,note_on,38,44,60
2,note_on,45,44,0
2,note_on,45,0,180
2,note_on,38,0,0
2,note_on,33,38,60
2,note_on,45,38,0
2,note_on,45,0,180
2,note_on,33,0,0
2,note_on,38,42,60
2,note_on,45,42,0
2,note_on,45,0,180
2,note_on,38,0,0
2,note_on,33,38,60
2,note_on,45,38,0
2,note_on,45,0,180
2,note_on,33,0,0
2,note_on,38,42,60
2,note_on,45,42,0
2,note_on,45,0,180
2,note_on,38,0,0
2,note_on,33,36,60
2,note_on,33,0,180
2,note_on,38,39,60
2,note_on,45,39,0
2,note_on,45,0,180
2,note_on,38,0,0
2,note_on,33,40,60
2,note_on,33,0,180
2,note_on,38,39,60
2,note_on,45,39,0
2,note_on,45,0,180
2,note_on,38,0,0
2,note_on,33,40,60
2,note_on,33,0,180
2,note_on,38,39,60
2,note_on,45,39,0
2,note_on,45,0,180
2,note_on,38,0,0
2,note_on,33,39,60
2,note_on,33,0,180
2,note_on,38,39,60
2,note_on,45,39,0
2,note_on,45,0,180
2,note_on,38,0,0
2,note_on,33,39,60
2,note_on,33,0,180
2,note_on,38,44,60
2,note_on,45,44,0
2,note_on,45,0,173
2,note_on,38,0,0
2,note_on,33,38,60
2,note_on,33,0,180
2,note_on,38,44,60
2,note_on,45,44,0
2,note_on,45,0,180
2,note_on,38,0,0
2,note_on,33,38,60
2,note_on,33,0,180
2,note_on,38,42,60
2,note_on,45,42,0
2,note_on,45,0,180
2,note_on,38,0,0
2,note_on,33,38,60
2,note_on,33,0,180
2,note_on,38,42,60
2,note_on,45,42,0
2,note_on,45,0,180
2,note_on,38,0,0
2,note_on,33,36,60
2,note_on,33,0,180
2,note_on,38,39,60
2,note_on,45,39,0
2,note_on,45,0,180
2,note_on,38,0,0
2,note_on,33,40,60
2,note_on,33,0,180
2,note_on,38,39,60
2,note_on,45,39,0
2,note_on,45,0,180
2,note_on,38,0,0
2,note_on,33,40,60
2,note_on,33,0,180
2,note_on,38,39,60
2,note_on,45,39,0
2,note_on,45,0,180
2,note_on,38,0,0
2,note_on,33,39,60
2,note_on,33,0,180
2,note_on,38,39,60
2,note_on,45,39,0
2,note_on,45,0,180
2,note_on,38,0,0
2,note_on,33,39,60
2,note_on,33,0,180
2,note_on,38,35,60
2,note_on,45,35,0
2,note_on,45,0,180
2,note_on,38,0,0
2,note_on,33,36,60
2,note_on,33,0,180
2,note_on,38,35,60
2,note_on,45,35,0
2,note_on,45,0,180
2,note_on,38,0,0
2,note_on,33,36,60
2,note_on,33,0,180
2,note_on,38,35,60
2,note_on,45,35,0
2,note_on,45,0,180
2,note_on,38,0,0
2,note_on,33,35,60
2,note_on,33,0,180
2,note_on,38,35,60
2,note_on,45,35,0
2,note_on,45,0,180
2,note_on,38,0,0
2,note_on,33,35,60
2,note_on,33,0,180
2,note_on,38,35,0
2,note_on,45,35,0
2,note_on,45,0,120
2,note_on,38,0,0
2,note_on,33,36,360
2,note_on,33,0,120
2,note_on,38,35,360
2,note_on,45,35,0
2,note_on,45,0,120
2,note_on,38,0,0
2,note_on,33,35,360
2,note_on,33,0,120
2,note_on,38,35,360
2,note_on,45,35,0
2,note_on,45,0,120
2,note_on,38,0,0
2,note_on,33,34,360
2,note_on,33,0,120
2,note_on,38,35,360
2,note_on,45,35,0
2,note_on,45,0,120
2,note_on,38,0,0
2,note_on,33,35,360
2,note_on,33,0,120
2,note_on,38,35,360
2,note_on,45,35,0
2,note_on,45,0,240
2,note_on,38,0,0
2,note_on,57,35,720
2,note_on,50,35,0
2,note_on,50,0,240
2,note_on,57,0,0
2,note_on,62,35,720
2,note_on,69,35,0
2,note_on,69,0,240
2,note_on,62,0,0
2,note_on,81,38,720
2,note_on,74,38,0
2,note_on,74,0,240
2,note_on,81,0,0
2,note_on,93,42,720
2,note_on,86,42,0
2,note_on,86,0,240
2,note_on,93,0,0
2,note_on,81,39,720
2,note_on,74,39,0
2,note_on,74,0,240
2,note_on,81,0,0
2,note_on,62,35,720
2,note_on,69,35,0
2,note_on,69,0,240
2,note_on,62,0,0
2,note_on,50,31,720
2,note_on,57,31,0
2,note_on,57,0,240
2,note_on,50,0,0
2,note_on,38,31,720
2,note_on,45,31,0
2,note_on,45,0,240
2,note_on,38,0,0
2,note_on,26,77,1680
2,note_on,33,77,0
2,note_on,38,91,0
2,note_on,38,0,360
2,note_on,33,0,0
2,note_on,26,0,0
