Track,Message Type,Note,Velocity,Time
1,note_on,67,60,1
1,note_on,71,48,359
1,note_on,67,0,1
1,note_on,71,0,59
1,note_on,69,48,0
1,note_on,69,0,60
1,note_on,67,56,0
1,note_on,67,0,240
1,note_on,62,53,480
1,note_on,62,0,240
1,note_on,67,53,0
1,note_on,67,0,240
1,note_on,71,53,0
1,note_on,71,0,240
1,note_on,71,57,0
1,note_on,71,0,120
1,note_on,69,54,0
1,note_on,69,0,120
1,note_on,67,54,0
1,note_on,67,0,120
1,note_on,69,54,0
1,note_on,69,0,120
1,note_on,67,57,0
1,note_on,67,0,240
1,note_on,74,54,0
1,note_on,74,0,240
1,note_on,74,54,0
1,note_on,74,0,120
1,note_on,74,54,120
1,note_on,74,0,120
1,note_on,74,54,120
1,note_on,74,0,120
1,note_on,74,54,120
1,note_on,74,0,120
1,note_on,74,57,120
1,note_on,74,0,360
1,note_on,76,47,0
1,note_on,76,0,60
1,note_on,74,47,0
1,note_on,74,0,60
1,note_on,72,52,0
1,note_on,72,0,240
1,note_on,71,50,0
1,note_on,71,0,240
1,note_on,69,52,0
1,note_on,69,0,240
1,note_on,81,68,0
1,note_on,81,0,480
1,note_on,79,65,0
1,note_on,79,0,240
1,note_on,79,63,0
1,note_on,79,0,120
1,note_on,78,54,0
1,note_on,78,0,120
1,note_on,76,54,0
1,note_on,76,0,120
1,note_on,74,54,0
1,note_on,74,0,120
1,note_on,74,54,0
1,note_on,74,0,240
1,note_on,74,56,0
1,note_on,74,0,240
1,note_on,74,54,0
1,note_on,74,0,120
1,note_on,76,52,0
1,note_on,76,0,120
1,note_on,72,54,0
1,note_on,72,0,120
1,note_on,74,52,0
1,note_on,74,0,120
1,note_on,71,54,0
1,note_on,71,0,120
1,note_on,72,51,0
1,note_on,72,0,120
1,note_on,69,54,0
1,note_on,69,0,120
1,note_on,71,52,0
1,note_on,71,0,120
1,note_on,67,60,1
1,note_on,71,46,359
1,note_on,67,0,1
1,note_on,71,0,59
1,note_on,69,47,0
1,note_on,69,0,60
1,note_on,67,56,0
1,note_on,67,0,240
1,note_on,62,53,480
1,note_on,62,0,240
1,note_on,67,53,0
1,note_on,67,0,240
1,note_on,71,53,0
1,note_on,71,0,240
1,note_on,71,57,0
1,note_on,71,0,120
1,note_on,69,54,0
1,note_on,69,0,120
1,note_on,67,54,0
1,note_on,67,0,120
1,note_on,69,54,0
1,note_on,69,0,120
1,note_on,67,57,0
1,note_on,67,0,240
1,note_on,76,54,0
1,note_on,76,0,240
1,note_on,76,54,0
1,note_on,76,0,120
1,note_on,76,54,120
1,note_on,76,0,120
1,note_on,76,54,120
1,note_on,76,0,120
1,note_on,76,54,120
1,note_on,76,0,120
1,note_on,76,57,120
1,note_on,76,0,360
1,note_on,79,50,0
1,note_on,79,0,60
1,note_on,81,52,0
1,note_on,81,0,60
1,note_on,83,60,0
1,note_on,83,0,360
1,note_on,79,49,0
1,note_on,79,0,60
1,note_on,76,49,0
1,note_on,76,0,60
1,note_on,74,60,0
1,note_on,74,0,480
1,note_on,73,52,0
1,note_on,73,0,80
1,note_on,74,43,0
1,note_on,74,0,80
1,note_on,73,48,0
1,note_on,73,0,80
1,note_on,74,43,0
1,note_on,74,0,60
1,note_on,73,48,0
1,note_on,73,0,60
1,note_on,74,42,0
1,note_on,74,0,60
1,note_on,73,47,0
1,note_on,73,0,60
1,note_on,74,52,0
1,note_on,74,0,120
1,note_on,76,49,0
1,note_on,76,0,120
1,note_on,78,50,0
1,note_on,78,0,120
1,note_on,79,51,0
1,note_on,79,0,120
1,note_on,81,51,0
1,note_on,81,0,120
1,note_on,78,51,0
1,note_on,78,0,120
1,note_on,76,50,0
1,note_on,76,0,120
1,note_on,74,50,0
1,note_on,74,0,120
1,note_on,73,53,0
1,note_on,73,0,120
1,note_on,74,48,0
1,note_on,74,0,120
1,note_on,76,49,0
1,note_on,76,0,120
1,note_on,78,49,0
1,note_on,78,0,120
1,note_on,79,49,0
1,note_on,79,0,120
1,note_on,76,49,0
1,note_on,76,0,120
1,note_on,74,48,0
1,note_on,74,0,120
1,note_on,73,48,0
1,note_on,73,0,120
1,note_on,74,52,0
1,note_on,74,0,120
1,note_on,76,47,0
1,note_on,76,0,120
1,note_on,78,48,0
1,note_on,78,0,120
1,note_on,79,49,0
1,note_on,79,0,120
1,note_on,81,50,0
1,note_on,81,0,120
1,note_on,78,49,0
1,note_on,78,0,120
1,note_on,76,48,0
1,note_on,76,0,120
1,note_on,74,47,0
1,note_on,74,0,120
1,note_on,73,53,0
1,note_on,73,0,120
1,note_on,74,47,0
1,note_on,74,0,120
1,note_on,76,47,0
1,note_on,76,0,120
1,note_on,78,48,0
1,note_on,78,0,120
1,note_on,79,49,0
1,note_on,79,0,120
1,note_on,76,49,0
1,note_on,76,0,120
1,note_on,74,48,0
1,note_on,74,0,120
1,note_on,73,48,0
1,note_on,73,0,120
1,note_on,74,58,0
1,note_on,74,0,420
1,note_on,85,77,0
1,note_on,85,0,60
1,note_on,86,87,0
1,note_on,86,0,480
1,note_on,67,60,1
1,note_on,71,48,359
1,note_on,67,0,1
1,note_on,71,0,59
1,note_on,69,48,0
1,note_on,69,0,60
1,note_on,67,56,0
1,note_on,67,0,240
1,note_on,62,53,480
1,note_on,62,0,240
1,note_on,67,53,0
1,note_on,67,0,240
1,note_on,71,53,0
1,note_on,71,0,240
1,note_on,71,57,0
1,note_on,71,0,120
1,note_on,69,54,0
1,note_on,69,0,120
1,note_on,67,54,0
1,note_on,67,0,120
1,note_on,69,54,0
1,note_on,69,0,120
1,note_on,67,57,0
1,note_on,67,0,240
1,note_on,74,54,0
1,note_on,74,0,240
1,note_on,74,54,0
1,note_on,74,0,120
1,note_on,74,54,120
1,note_on,74,0,120
1,note_on,74,54,120
1,note_on,74,0,120
1,note_on,74,54,120
1,note_on,74,0,120
1,note_on,74,57,120
1,note_on,74,0,360
1,note_on,76,47,0
1,note_on,76,0,60
1,note_on,74,47,0
1,note_on,74,0,60
1,note_on,72,52,0
1,note_on,72,0,240
1,note_on,71,50,0
1,note_on,71,0,240
1,note_on,69,52,0
1,note_on,69,0,240
1,note_on,81,68,0
1,note_on,81,0,480
1,note_on,79,65,0
1,note_on,79,0,240
1,note_on,79,63,0
1,note_on,79,0,120
1,note_on,78,54,0
1,note_on,78,0,120
1,note_on,76,54,0
1,note_on,76,0,120
1,note_on,74,54,0
1,note_on,74,0,120
1,note_on,74,54,0
1,note_on,74,0,240
1,note_on,74,56,0
1,note_on,74,0,240
1,note_on,74,54,0
1,note_on,74,0,120
1,note_on,76,52,0
1,note_on,76,0,120
1,note_on,72,54,0
1,note_on,72,0,120
1,note_on,74,52,0
1,note_on,74,0,120
1,note_on,71,54,0
1,note_on,71,0,120
1,note_on,72,51,0
1,note_on,72,0,120
1,note_on,69,54,0
1,note_on,69,0,120
1,note_on,71,52,0
1,note_on,71,0,120
1,note_on,67,60,1
1,note_on,71,46,359
1,note_on,67,0,1
1,note_on,71,0,59
1,note_on,69,47,0
1,note_on,69,0,60
1,note_on,67,56,0
1,note_on,67,0,240
1,note_on,62,53,480
1,note_on,62,0,240
1,note_on,67,53,0
1,note_on,67,0,240
1,note_on,71,53,0
1,note_on,71,0,240
1,note_on,71,57,0
1,note_on,71,0,120
1,note_on,69,54,0
1,note_on,69,0,120
1,note_on,67,54,0
1,note_on,67,0,120
1,note_on,69,54,0
1,note_on,69,0,120
1,note_on,67,57,0
1,note_on,67,0,240
1,note_on,76,54,0
1,note_on,76,0,240
1,note_on,76,54,0
1,note_on,76,0,120
1,note_on,76,54,120
1,note_on,76,0,120
1,note_on,76,54,120
1,note_on,76,0,120
1,note_on,76,54,120
1,note_on,76,0,120
1,note_on,76,57,120
1,note_on,76,0,360
1,note_on,79,50,0
1,note_on,79,0,60
1,note_on,81,52,0
1,note_on,81,0,60
1,note_on,83,60,0
1,note_on,83,0,360
1,note_on,79,49,0
1,note_on,79,0,60
1,note_on,76,49,0
1,note_on,76,0,60
1,note_on,74,60,0
1,note_on,74,0,480
1,note_on,73,52,0
1,note_on,73,0,80
1,note_on,74,43,0
1,note_on,74,0,80
1,note_on,73,48,0
1,note_on,73,0,80
1,note_on,74,43,0
1,note_on,74,0,60
1,note_on,73,48,0
1,note_on,73,0,60
1,note_on,74,42,0
1,note_on,74,0,60
1,note_on,73,47,0
1,note_on,73,0,60
1,note_on,74,54,0
1,note_on,74,0,120
1,note_on,76,49,0
1,note_on,76,0,120
1,note_on,78,50,0
1,note_on,78,0,120
1,note_on,79,51,0
1,note_on,79,0,120
1,note_on,81,51,0
1,note_on,81,0,120
1,note_on,78,51,0
1,note_on,78,0,120
1,note_on,76,50,0
1,note_on,76,0,120
1,note_on,74,50,0
1,note_on,74,0,120
1,note_on,73,53,0
1,note_on,73,0,120
1,note_on,74,48,0
1,note_on,74,0,120
1,note_on,76,49,0
1,note_on,76,0,120
1,note_on,78,49,0
1,note_on,78,0,120
1,note_on,79,49,0
1,note_on,79,0,120
1,note_on,76,49,0
1,note_on,76,0,120
1,note_on,74,48,0
1,note_on,74,0,120
1,note_on,73,48,0
1,note_on,73,0,120
1,note_on,74,52,0
1,note_on,74,0,120
1,note_on,76,47,0
1,note_on,76,0,120
1,note_on,78,48,0
1,note_on,78,0,120
1,note_on,79,49,0
1,note_on,79,0,120
1,note_on,81,50,0
1,note_on,81,0,120
1,note_on,78,49,0
1,note_on,78,0,120
1,note_on,76,48,0
1,note_on,76,0,120
1,note_on,74,47,0
1,note_on,74,0,120
1,note_on,73,53,0
1,note_on,73,0,120
1,note_on,74,47,0
1,note_on,74,0,120
1,note_on,76,47,0
1,note_on,76,0,120
1,note_on,78,48,0
1,note_on,78,0,120
1,note_on,79,49,0
1,note_on,79,0,120
1,note_on,76,49,0
1,note_on,76,0,120
1,note_on,74,48,0
1,note_on,74,0,120
1,note_on,73,48,0
1,note_on,73,0,120
1,note_on,74,58,0
1,note_on,74,0,420
1,note_on,85,77,0
1,note_on,85,0,60
1,note_on,86,87,0
1,note_on,86,0,480
1,note_on,77,53,960
1,note_on,77,0,360
1,note_on,74,45,0
1,note_on,74,0,60
1,note_on,75,45,0
1,note_on,75,0,60
1,note_on,77,54,0
1,note_on,77,0,240
1,note_on,69,50,480
1,note_on,69,0,240
1,note_on,69,50,0
1,note_on,69,0,240
1,note_on,69,50,0
1,note_on,69,0,240
1,note_on,70,53,0
1,note_on,70,0,360
1,note_on,70,45,0
1,note_on,70,0,60
1,note_on,72,45,0
1,note_on,72,0,60
1,note_on,74,54,0
1,note_on,74,0,240
1,note_on,66,50,480
1,note_on,66,0,240
1,note_on,66,50,0
1,note_on,66,0,240
1,note_on,66,50,0
1,note_on,66,0,240
1,note_on,67,57,0
1,note_on,67,0,360
1,note_on,67,45,0
1,note_on,67,0,60
1,note_on,69,45,0
1,note_on,69,0,60
1,note_on,70,57,0
1,note_on,70,0,240
1,note_on,61,55,480
1,note_on,61,0,240
1,note_on,61,57,0
1,note_on,61,0,240
1,note_on,61,60,0
1,note_on,61,0,240
1,note_on,62,68,0
1,note_on,62,0,360
1,note_on,54,51,0
1,note_on,54,0,60
1,note_on,55,51,0
1,note_on,55,0,60
1,note_on,57,75,0
1,note_on,57,0,240
1,note_on,54,68,0
1,note_on,54,0,240
1,note_on,50,68,0
1,note_on,50,0,480
1,note_on,67,60,1
1,note_on,71,46,359
1,note_on,67,0,1
1,note_on,71,0,59
1,note_on,69,47,0
1,note_on,69,0,60
1,note_on,67,56,0
1,note_on,67,0,240
1,note_on,62,53,480
1,note_on,62,0,240
1,note_on,67,53,0
1,note_on,67,0,240
1,note_on,71,53,0
1,note_on,71,0,240
1,note_on,71,57,0
1,note_on,71,0,120
1,note_on,69,54,0
1,note_on,69,0,120
1,note_on,67,54,0
1,note_on,67,0,120
1,note_on,69,54,0
1,note_on,69,0,120
1,note_on,67,57,0
1,note_on,67,0,240
1,note_on,76,54,0
1,note_on,76,0,240
1,note_on,76,54,0
1,note_on,76,0,120
1,note_on,76,54,120
1,note_on,76,0,120
1,note_on,76,54,120
1,note_on,76,0,120
1,note_on,76,54,120
1,note_on,76,0,120
1,note_on,76,57,120
1,note_on,76,0,360
1,note_on,81,52,0
1,note_on,81,0,60
1,note_on,83,52,0
1,note_on,83,0,60
1,note_on,84,50,0
1,note_on,84,0,240
1,note_on,76,54,0
1,note_on,76,0,240
1,note_on,74,54,0
1,note_on,74,0,120
1,note_on,74,54,120
1,note_on,74,0,120
1,note_on,74,54,120
1,note_on,74,0,120
1,note_on,74,54,120
1,note_on,74,0,120
1,note_on,74,57,120
1,note_on,74,0,360
1,note_on,79,49,0
1,note_on,79,0,60
1,note_on,81,48,0
1,note_on,81,0,60
1,note_on,83,45,0
1,note_on,83,0,240
1,note_on,83,39,2040
1,note_on,83,0,60
1,note_on,81,39,0
1,note_on,81,0,60
1,note_on,79,47,0
1,note_on,79,0,120
1,note_on,79,39,240
1,note_on,79,0,60
1,note_on,78,39,0
1,note_on,78,0,60
1,note_on,76,50,0
1,note_on,76,0,120
1,note_on,76,38,240
1,note_on,76,0,60
1,note_on,74,38,0
1,note_on,74,0,60
1,note_on,72,50,0
1,note_on,72,0,240
1,note_on,75,51,600
1,note_on,75,0,60
1,note_on,74,51,0
1,note_on,74,0,60
1,note_on,72,59,0
1,note_on,72,0,240
1,note_on,72,55,0
1,note_on,72,0,240
1,note_on,72,55,0
1,note_on,72,0,240
1,note_on,72,55,0
1,note_on,72,0,240
1,note_on,72,58,0
1,note_on,72,0,360
1,note_on,74,46,0
1,note_on,74,0,60
1,note_on,72,46,0
1,note_on,72,0,60
1,note_on,71,56,0
1,note_on,71,0,240
1,note_on,71,57,0
1,note_on,71,0,240
1,note_on,69,60,0
1,note_on,69,0,240
1,note_on,76,56,0
1,note_on,76,0,240
1,note_on,74,56,0
1,note_on,74,0,240
1,note_on,66,56,0
1,note_on,66,0,240
1,note_on,67,54,0
1,note_on,67,0,120
1,note_on,69,49,0
1,note_on,69,0,120
1,note_on,71,50,0
1,note_on,71,0,120
1,note_on,72,51,0
1,note_on,72,0,120
1,note_on,74,51,0
1,note_on,74,0,120
1,note_on,71,51,0
1,note_on,71,0,120
1,note_on,69,50,0
1,note_on,69,0,120
1,note_on,67,50,0
1,note_on,67,0,120
1,note_on,66,53,0
1,note_on,66,0,120
1,note_on,67,48,0
1,note_on,67,0,120
1,note_on,69,49,0
1,note_on,69,0,120
1,note_on,71,49,0
1,note_on,71,0,120
1,note_on,72,49,0
1,note_on,72,0,120
1,note_on,69,49,0
1,note_on,69,0,120
1,note_on,67,48,0
1,note_on,67,0,120
1,note_on,66,48,0
1,note_on,66,0,120
1,note_on,67,52,0
1,note_on,67,0,120
1,note_on,69,47,0
1,note_on,69,0,120
1,note_on,71,48,0
1,note_on,71,0,120
1,note_on,72,49,0
1,note_on,72,0,120
1,note_on,74,50,0
1,note_on,74,0,120
1,note_on,71,49,0
1,note_on,71,0,120
1,note_on,69,48,0
1,note_on,69,0,120
1,note_on,67,47,0
1,note_on,67,0,120
1,note_on,66,53,0
1,note_on,66,0,120
1,note_on,67,47,0
1,note_on,67,0,120
1,note_on,69,47,0
1,note_on,69,0,120
1,note_on,71,48,0
1,note_on,71,0,120
1,note_on,72,49,0
1,note_on,72,0,120
1,note_on,69,49,0
1,note_on,69,0,120
1,note_on,67,48,0
1,note_on,67,0,120
1,note_on,66,48,0
1,note_on,66,0,120
1,note_on,67,58,0
1,note_on,67,0,420
1,note_on,78,65,0
1,note_on,78,0,60
1,note_on,79,76,0
1,note_on,79,0,480
1,note_on,77,53,960
1,note_on,77,0,360
1,note_on,74,45,0
1,note_on,74,0,60
1,note_on,75,45,0
1,note_on,75,0,60
1,note_on,77,54,0
1,note_on,77,0,240
1,note_on,69,50,480
1,note_on,69,0,240
1,note_on,69,50,0
1,note_on,69,0,240
1,note_on,69,50,0
1,note_on,69,0,240
1,note_on,70,53,0
1,note_on,70,0,360
1,note_on,70,45,0
1,note_on,70,0,60
1,note_on,72,45,0
1,note_on,72,0,60
1,note_on,74,54,0
1,note_on,74,0,240
1,note_on,66,50,480
1,note_on,66,0,240
1,note_on,66,50,0
1,note_on,66,0,240
1,note_on,66,50,0
1,note_on,66,0,240
1,note_on,67,57,0
1,note_on,67,0,360
1,note_on,67,45,0
1,note_on,67,0,60
1,note_on,69,45,0
1,note_on,69,0,60
1,note_on,70,57,0
1,note_on,70,0,240
1,note_on,61,54,480
1,note_on,61,0,240
1,note_on,61,57,0
1,note_on,61,0,240
1,note_on,61,60,0
1,note_on,61,0,240
1,note_on,62,68,0
1,note_on,62,0,360
1,note_on,54,51,0
1,note_on,54,0,60
1,note_on,55,51,0
1,note_on,55,0,60
1,note_on,57,75,0
1,note_on,57,0,240
1,note_on,54,68,0
1,note_on,54,0,240
1,note_on,50,68,0
1,note_on,50,0,480
1,note_on,67,60,1
1,note_on,71,46,359
1,note_on,67,0,1
1,note_on,71,0,59
1,note_on,69,47,0
1,note_on,69,0,60
1,note_on,67,56,0
1,note_on,67,0,240
1,note_on,62,53,480
1,note_on,62,0,240
1,note_on,67,53,0
1,note_on,67,0,240
1,note_on,71,53,0
1,note_on,71,0,240
1,note_on,71,57,0
1,note_on,71,0,120
1,note_on,69,54,0
1,note_on,69,0,120
1,note_on,67,54,0
1,note_on,67,0,120
1,note_on,69,54,0
1,note_on,69,0,120
1,note_on,67,57,0
1,note_on,67,0,240
1,note_on,76,54,0
1,note_on,76,0,240
1,note_on,76,54,0
1,note_on,76,0,120
1,note_on,76,54,120
1,note_on,76,0,120
1,note_on,76,54,120
1,note_on,76,0,120
1,note_on,76,54,120
1,note_on,76,0,120
1,note_on,76,57,120
1,note_on,76,0,360
1,note_on,81,52,0
1,note_on,81,0,60
1,note_on,83,52,0
1,note_on,83,0,60
1,note_on,84,50,0
1,note_on,84,0,240
1,note_on,76,54,0
1,note_on,76,0,240
1,note_on,74,54,0
1,note_on,74,0,120
1,note_on,74,54,120
1,note_on,74,0,120
1,note_on,74,54,120
1,note_on,74,0,120
1,note_on,74,54,120
1,note_on,74,0,120
1,note_on,74,57,120
1,note_on,74,0,360
1,note_on,79,49,0
1,note_on,79,0,60
1,note_on,81,48,0
1,note_on,81,0,60
1,note_on,83,45,0
1,note_on,83,0,240
1,note_on,83,39,2040
1,note_on,83,0,60
1,note_on,81,39,0
1,note_on,81,0,60
1,note_on,79,47,0
1,note_on,79,0,120
1,note_on,79,39,240
1,note_on,79,0,60
1,note_on,78,39,0
1,note_on,78,0,60
1,note_on,76,50,0
1,note_on,76,0,120
1,note_on,76,38,240
1,note_on,76,0,60
1,note_on,74,38,0
1,note_on,74,0,60
1,note_on,72,50,0
1,note_on,72,0,240
1,note_on,75,51,600
1,note_on,75,0,60
1,note_on,74,51,0
1,note_on,74,0,60
1,note_on,72,59,0
1,note_on,72,0,240
1,note_on,72,55,0
1,note_on,72,0,240
1,note_on,72,55,0
1,note_on,72,0,240
1,note_on,72,55,0
1,note_on,72,0,240
1,note_on,72,60,0
1,note_on,72,0,360
1,note_on,74,46,0
1,note_on,74,0,60
1,note_on,72,46,0
1,note_on,72,0,60
1,note_on,71,56,0
1,note_on,71,0,240
1,note_on,71,57,0
1,note_on,71,0,240
1,note_on,69,60,0
1,note_on,69,0,240
1,note_on,76,56,0
1,note_on,76,0,240
1,note_on,74,56,0
1,note_on,74,0,240
1,note_on,66,56,0
1,note_on,66,0,240
1,note_on,67,54,0
1,note_on,67,0,120
1,note_on,69,49,0
1,note_on,69,0,120
1,note_on,71,50,0
1,note_on,71,0,120
1,note_on,72,51,0
1,note_on,72,0,120
1,note_on,74,51,0
1,note_on,74,0,120
1,note_on,71,51,0
1,note_on,71,0,120
1,note_on,69,50,0
1,note_on,69,0,120
1,note_on,67,50,0
1,note_on,67,0,120
1,note_on,66,53,0
1,note_on,66,0,120
1,note_on,67,48,0
1,note_on,67,0,120
1,note_on,69,49,0
1,note_on,69,0,120
1,note_on,71,49,0
1,note_on,71,0,120
1,note_on,72,49,0
1,note_on,72,0,120
1,note_on,69,49,0
1,note_on,69,0,120
1,note_on,67,48,0
1,note_on,67,0,120
1,note_on,66,48,0
1,note_on,66,0,120
1,note_on,67,52,0
1,note_on,67,0,120
1,note_on,69,47,0
1,note_on,69,0,120
1,note_on,71,48,0
1,note_on,71,0,120
1,note_on,72,49,0
1,note_on,72,0,120
1,note_on,74,50,0
1,note_on,74,0,120
1,note_on,71,49,0
1,note_on,71,0,120
1,note_on,69,48,0
1,note_on,69,0,120
1,note_on,67,47,0
1,note_on,67,0,120
1,note_on,66,53,0
1,note_on,66,0,120
1,note_on,67,47,0
1,note_on,67,0,120
1,note_on,69,47,0
1,note_on,69,0,120
1,note_on,71,48,0
1,note_on,71,0,120
1,note_on,72,49,0
1,note_on,72,0,120
1,note_on,69,49,0
1,note_on,69,0,120
1,note_on,67,48,0
1,note_on,67,0,120
1,note_on,66,48,0
1,note_on,66,0,120
1,note_on,67,58,0
1,note_on,67,0,420
1,note_on,78,65,0
1,note_on,78,0,60
1,note_on,79,76,0
1,note_on,79,0,480
1,note_on,64,57,1200
1,note_on,64,0,240
1,note_on,76,65,0
1,note_on,76,0,720
1,note_on,75,56,0
1,note_on,75,0,240
1,note_on,78,70,0
1,note_on,78,0,720
1,note_on,76,55,0
1,note_on,76,0,240
1,note_on,79,72,0
1,note_on,79,0,720
1,note_on,78,63,0
1,note_on,78,0,240
1,note_on,83,78,0
1,note_on,83,0,720
1,note_on,82,66,0
1,note_on,82,0,240
1,note_on,88,72,0
1,note_on,85,72,0
1,note_on,85,0,720
1,note_on,88,0,0
1,note_on,83,60,0
1,note_on,86,60,0
1,note_on,86,0,480
1,note_on,83,0,0
1,note_on,85,56,0
1,note_on,76,56,0
1,note_on,76,0,480
1,note_on,85,0,0
1,note_on,74,57,0
1,note_on,83,57,0
1,note_on,83,0,480
1,note_on,74,0,0
1,note_on,73,57,0
1,note_on,82,57,0
1,note_on,82,0,240
1,note_on,73,0,0
1,note_on,71,56,240
1,note_on,71,0,240
1,note_on,83,66,0
1,note_on,83,0,240
1,note_on,64,57,480
1,note_on,64,0,240
1,note_on,76,65,0
1,note_on,76,0,720
1,note_on,75,56,0
1,note_on,75,0,240
1,note_on,78,70,0
1,note_on,78,0,720
1,note_on,76,55,0
1,note_on,76,0,240
1,note_on,79,72,0
1,note_on,79,0,720
1,note_on,78,63,0
1,note_on,78,0,240
1,note_on,83,76,0
1,note_on,83,0,720
1,note_on,82,66,0
1,note_on,82,0,240
1,note_on,88,72,0
1,note_on,85,72,0
1,note_on,85,0,720
1,note_on,88,0,0
1,note_on,83,60,0
1,note_on,86,60,0
1,note_on,86,0,480
1,note_on,83,0,0
1,note_on,85,56,0
1,note_on,76,56,0
1,note_on,76,0,480
1,note_on,85,0,0
1,note_on,74,57,0
1,note_on,83,57,0
1,note_on,83,0,480
1,note_on,74,0,0
1,note_on,73,57,0
1,note_on,82,57,0
1,note_on,82,0,240
1,note_on,73,0,0
1,note_on,71,56,240
1,note_on,71,0,240
1,note_on,83,66,0
1,note_on,83,0,240
1,note_on,69,57,480
1,note_on,69,0,240
1,note_on,81,68,0
1,note_on,81,0,720
1,note_on,80,56,0
1,note_on,80,0,240
1,note_on,86,70,0
1,note_on,86,0,720
1,note_on,84,61,0
1,note_on,84,0,480
1,note_on,83,59,0
1,note_on,83,0,480
1,note_on,81,57,0
1,note_on,81,0,240
1,note_on,78,43,240
1,note_on,78,0,240
1,note_on,79,49,0
1,note_on,79,0,720
1,note_on,78,45,0
1,note_on,78,0,240
1,note_on,84,49,0
1,note_on,81,49,0
1,note_on,81,0,720
1,note_on,84,0,0
1,note_on,79,45,0
1,note_on,83,45,0
1,note_on,83,0,480
1,note_on,79,0,0
1,note_on,78,43,0
1,note_on,81,43,0
1,note_on,81,0,480
1,note_on,78,0,0
1,note_on,76,42,0
1,note_on,79,42,0
1,note_on,79,0,480
1,note_on,76,0,0
1,note_on,75,44,0
1,note_on,78,44,0
1,note_on,78,0,240
1,note_on,75,0,0
1,note_on,83,58,0
1,note_on,83,0,120
1,note_on,81,58,0
1,note_on,81,0,120
1,note_on,79,58,0
1,note_on,79,0,120
1,note_on,78,58,0
1,note_on,78,0,120
1,note_on,76,66,0
1,note_on,76,0,480
1,note_on,67,55,240
1,note_on,76,55,0
1,note_on,76,0,240
1,note_on,67,0,0
1,note_on,69,60,0
1,note_on,78,60,0
1,note_on,78,0,720
1,note_on,69,0,0
1,note_on,69,55,0
1,note_on,78,55,0
1,note_on,78,0,240
1,note_on,69,0,0
1,note_on,71,60,0
1,note_on,79,60,0
1,note_on,79,0,720
1,note_on,71,0,0
1,note_on,71,58,0
1,note_on,79,58,0
1,note_on,79,0,240
1,note_on,71,0,0
1,note_on,72,66,0
1,note_on,81,66,0
1,note_on,81,0,720
1,note_on,72,0,0
1,note_on,78,55,0
1,note_on,78,0,240
1,note_on,75,60,0
1,note_on,75,0,720
1,note_on,72,56,0
1,note_on,72,0,240
1,note_on,69,60,0
1,note_on,69,0,720
1,note_on,66,56,0
1,note_on,66,0,240
1,note_on,63,61,0
1,note_on,63,0,720
1,note_on,63,49,0
1,note_on,63,0,120
1,note_on,60,49,0
1,note_on,60,0,120
1,note_on,57,58,0
1,note_on,57,0,120
1,note_on,60,49,120
1,note_on,60,0,120
1,note_on,57,49,0
1,note_on,57,0,120
1,note_on,54,58,0
1,note_on,54,0,120
1,note_on,57,54,120
1,note_on,57,0,120
1,note_on,54,54,0
1,note_on,54,0,120
1,note_on,51,75,0
1,note_on,51,0,240
1,note_on,84,40,480
1,note_on,84,0,120
1,note_on,81,40,0
1,note_on,81,0,120
1,note_on,78,44,0
1,note_on,78,0,120
1,note_on,81,40,120
1,note_on,81,0,120
1,note_on,78,40,0
1,note_on,78,0,120
1,note_on,75,44,0
1,note_on,75,0,120
1,note_on,78,36,120
1,note_on,78,0,120
1,note_on,75,36,0
1,note_on,75,0,120
1,note_on,72,43,0
1,note_on,72,0,240
1,note_on,60,57,960
1,note_on,60,0,240
1,note_on,59,60,0
1,note_on,59,0,240
1,note_on,69,58,0
1,note_on,69,0,240
1,note_on,59,56,240
1,note_on,67,56,0
1,note_on,67,0,240
1,note_on,59,0,0
1,note_on,57,55,240
1,note_on,66,55,0
1,note_on,66,0,240
1,note_on,57,0,0
1,note_on,55,55,240
1,note_on,64,55,0
1,note_on,64,0,240
1,note_on,55,0,0
1,note_on,54,55,240
1,note_on,63,55,0
1,note_on,63,0,240
1,note_on,54,0,0
1,note_on,55,66,0
1,note_on,64,66,0
1,note_on,64,0,480
1,note_on,55,0,0
1,note_on,87,50,240
1,note_on,87,0,240
1,note_on,88,55,0
1,note_on,88,0,480
1,note_on,64,50,240
1,note_on,64,0,240
1,note_on,62,54,0
1,note_on,65,54,0
1,note_on,65,0,480
1,note_on,62,0,0
1,note_on,62,46,240
1,note_on,65,46,0
1,note_on,65,0,240
1,note_on,62,0,0
1,note_on,59,52,0
1,note_on,68,52,0
1,note_on,68,0,480
1,note_on,59,0,0
1,note_on,59,50,240
1,note_on,68,50,0
1,note_on,68,0,240
1,note_on,59,0,0
1,note_on,60,54,0
1,note_on,69,54,0
1,note_on,69,0,480
1,note_on,60,0,0
1,note_on,60,51,240
1,note_on,69,51,0
1,note_on,69,0,240
1,note_on,60,0,0
1,note_on,61,54,0
1,note_on,67,54,0
1,note_on,67,0,480
1,note_on,61,0,0
1,note_on,61,52,240
1,note_on,67,52,0
1,note_on,67,0,240
1,note_on,61,0,0
1,note_on,62,56,0
1,note_on,66,56,0
1,note_on,66,0,480
1,note_on,62,0,0
1,note_on,85,53,240
1,note_on,85,0,240
1,note_on,86,59,0
1,note_on,86,0,480
1,note_on,62,43,240
1,note_on,62,0,240
1,note_on,61,46,0
1,note_on,64,46,0
1,note_on,64,0,480
1,note_on,61,0,0
1,note_on,61,38,240
1,note_on,64,38,0
1,note_on,64,0,240
1,note_on,61,0,0
1,note_on,60,43,0
1,note_on,66,43,0
1,note_on,66,0,480
1,note_on,60,0,0
1,note_on,62,51,240
1,note_on,62,0,240
1,note_on,67,60,1
1,note_on,71,48,359
1,note_on,67,0,1
1,note_on,71,0,59
1,note_on,69,48,0
1,note_on,69,0,60
1,note_on,67,56,0
1,note_on,67,0,240
1,note_on,62,53,480
1,note_on,62,0,240
1,note_on,67,53,0
1,note_on,67,0,240
1,note_on,71,53,0
1,note_on,71,0,240
1,note_on,71,57,0
1,note_on,71,0,120
1,note_on,69,54,0
1,note_on,69,0,120
1,note_on,67,54,0
1,note_on,67,0,120
1,note_on,69,54,0
1,note_on,69,0,120
1,note_on,67,57,0
1,note_on,67,0,240
1,note_on,74,54,0
1,note_on,74,0,240
1,note_on,74,54,0
1,note_on,74,0,120
1,note_on,74,54,120
1,note_on,74,0,120
1,note_on,74,54,120
1,note_on,74,0,120
1,note_on,74,54,120
1,note_on,74,0,120
1,note_on,74,57,120
1,note_on,74,0,360
1,note_on,76,47,0
1,note_on,76,0,60
1,note_on,74,47,0
1,note_on,74,0,60
1,note_on,72,52,0
1,note_on,72,0,240
1,note_on,71,50,0
1,note_on,71,0,240
1,note_on,69,52,0
1,note_on,69,0,240
1,note_on,81,69,0
1,note_on,81,0,480
1,note_on,79,65,0
1,note_on,79,0,240
1,note_on,79,63,0
1,note_on,79,0,120
1,note_on,78,54,0
1,note_on,78,0,120
1,note_on,76,54,0
1,note_on,76,0,120
1,note_on,74,54,0
1,note_on,74,0,120
1,note_on,74,54,0
1,note_on,74,0,240
1,note_on,74,56,0
1,note_on,74,0,240
1,note_on,74,54,0
1,note_on,74,0,120
1,note_on,76,52,0
1,note_on,76,0,120
1,note_on,72,54,0
1,note_on,72,0,120
1,note_on,74,52,0
1,note_on,74,0,120
1,note_on,71,54,0
1,note_on,71,0,120
1,note_on,72,51,0
1,note_on,72,0,120
1,note_on,69,54,0
1,note_on,69,0,120
1,note_on,71,52,0
1,note_on,71,0,120
1,note_on,67,60,1
1,note_on,71,46,359
1,note_on,67,0,1
1,note_on,71,0,59
1,note_on,69,47,0
1,note_on,69,0,60
1,note_on,67,56,0
1,note_on,67,0,120
1,note_on,62,48,0
1,note_on,62,0,120
1,note_on,71,48,0
1,note_on,71,0,120
1,note_on,69,48,0
1,note_on,69,0,120
1,note_on,67,56,0
1,note_on,67,0,120
1,note_on,62,48,0
1,note_on,62,0,120
1,note_on,67,48,0
1,note_on,67,0,120
1,note_on,71,48,0
1,note_on,71,0,120
1,note_on,74,56,0
1,note_on,74,0,120
1,note_on,71,52,0
1,note_on,71,0,120
1,note_on,69,52,0
1,note_on,69,0,120
1,note_on,67,52,0
1,note_on,67,0,120
1,note_on,71,59,0
1,note_on,71,0,120
1,note_on,69,52,0
1,note_on,69,0,120
1,note_on,67,52,0
1,note_on,67,0,120
1,note_on,69,52,0
1,note_on,69,0,120
1,note_on,67,54,0
1,note_on,67,0,240
1,note_on,76,54,0
1,note_on,76,0,240
1,note_on,75,51,0
1,note_on,75,0,120
1,note_on,76,52,0
1,note_on,76,0,120
1,note_on,77,53,0
1,note_on,77,0,120
1,note_on,78,54,0
1,note_on,78,0,120
1,note_on,79,56,0
1,note_on,79,0,120
1,note_on,80,57,0
1,note_on,80,0,120
1,note_on,81,58,0
1,note_on,81,0,120
1,note_on,82,59,0
1,note_on,82,0,120
1,note_on,83,68,0
1,note_on,83,0,480
1,note_on,81,60,0
1,note_on,81,0,120
1,note_on,79,56,0
1,note_on,79,0,120
1,note_on,78,56,0
1,note_on,78,0,120
1,note_on,76,56,0
1,note_on,76,0,120
1,note_on,74,60,0
1,note_on,74,0,480
1,note_on,73,52,0
1,note_on,73,0,80
1,note_on,74,43,0
1,note_on,74,0,80
1,note_on,73,48,0
1,note_on,73,0,80
1,note_on,74,43,0
1,note_on,74,0,60
1,note_on,73,48,0
1,note_on,73,0,60
1,note_on,74,42,0
1,note_on,74,0,60
1,note_on,73,47,0
1,note_on,73,0,60
1,note_on,74,54,0
1,note_on,74,0,120
1,note_on,76,50,0
1,note_on,76,0,120
1,note_on,78,51,0
1,note_on,78,0,120
1,note_on,79,52,0
1,note_on,79,0,120
1,note_on,81,53,0
1,note_on,81,0,120
1,note_on,83,54,0
1,note_on,83,0,120
1,note_on,85,55,0
1,note_on,85,0,120
1,note_on,86,56,0
1,note_on,86,0,120
1,note_on,85,59,0
1,note_on,85,0,120
1,note_on,88,55,0
1,note_on,88,0,120
1,note_on,85,55,0
1,note_on,85,0,120
1,note_on,81,55,0
1,note_on,81,0,120
1,note_on,79,58,0
1,note_on,79,0,120
1,note_on,83,55,0
1,note_on,83,0,120
1,note_on,79,55,0
1,note_on,79,0,120
1,note_on,76,55,0
1,note_on,76,0,120
1,note_on,78,57,0
1,note_on,78,0,120
1,note_on,81,53,0
1,note_on,81,0,120
1,note_on,79,53,0
1,note_on,79,0,120
1,note_on,78,53,0
1,note_on,78,0,120
1,note_on,76,55,0
1,note_on,76,0,120
1,note_on,74,53,0
1,note_on,74,0,120
1,note_on,73,53,0
1,note_on,73,0,120
1,note_on,71,53,0
1,note_on,71,0,120
1,note_on,69,56,0
1,note_on,69,0,120
1,note_on,71,52,0
1,note_on,71,0,120
1,note_on,73,52,0
1,note_on,73,0,120
1,note_on,74,52,0
1,note_on,74,0,120
1,note_on,76,55,0
1,note_on,76,0,120
1,note_on,78,51,0
1,note_on,78,0,120
1,note_on,79,53,0
1,note_on,79,0,120
1,note_on,76,54,0
1,note_on,76,0,120
1,note_on,74,56,0
1,note_on,74,0,120
1,note_on,76,56,0
1,note_on,76,0,120
1,note_on,78,59,0
1,note_on,78,0,120
1,note_on,79,61,0
1,note_on,79,0,120
1,note_on,81,61,0
1,note_on,81,0,120
1,note_on,83,64,0
1,note_on,83,0,120
1,note_on,85,66,0
1,note_on,85,0,120
1,note_on,86,66,0
1,note_on,86,0,60
1,note_on,74,64,60
1,note_on,74,0,480
1,note_on,67,60,1
1,note_on,71,46,359
1,note_on,67,0,1
1,note_on,71,0,59
1,note_on,69,47,0
1,note_on,69,0,60
1,note_on,67,56,0
1,note_on,67,0,120
1,note_on,62,48,0
1,note_on,62,0,120
1,note_on,71,48,0
1,note_on,71,0,120
1,note_on,69,48,0
1,note_on,69,0,120
1,note_on,67,56,0
1,note_on,67,0,120
1,note_on,62,48,0
1,note_on,62,0,120
1,note_on,67,48,0
1,note_on,67,0,120
1,note_on,71,48,0
1,note_on,71,0,120
1,note_on,74,56,0
1,note_on,74,0,120
1,note_on,71,52,0
1,note_on,71,0,120
1,note_on,69,52,0
1,note_on,69,0,120
1,note_on,67,52,0
1,note_on,67,0,120
1,note_on,71,59,0
1,note_on,71,0,120
1,note_on,69,52,0
1,note_on,69,0,120
1,note_on,67,52,0
1,note_on,67,0,120
1,note_on,69,52,0
1,note_on,69,0,120
1,note_on,67,54,0
1,note_on,67,0,240
1,note_on,74,52,0
1,note_on,74,0,240
1,note_on,74,54,0
1,note_on,74,0,240
1,note_on,74,52,0
1,note_on,74,0,240
1,note_on,74,52,0
1,note_on,74,0,240
1,note_on,74,52,0
1,note_on,74,0,240
1,note_on,74,57,0
1,note_on,74,0,120
1,note_on,79,54,0
1,note_on,79,0,120
1,note_on,76,54,0
1,note_on,76,0,120
1,note_on,74,54,0
1,note_on,74,0,120
1,note_on,72,57,0
1,note_on,72,0,120
1,note_on,76,54,0
1,note_on,76,0,120
1,note_on,72,54,0
1,note_on,72,0,120
1,note_on,71,54,0
1,note_on,71,0,120
1,note_on,69,57,0
1,note_on,69,0,120
1,note_on,88,57,0
1,note_on,88,0,120
1,note_on,84,57,0
1,note_on,84,0,120
1,note_on,83,57,0
1,note_on,83,0,120
1,note_on,81,57,0
1,note_on,81,0,120
1,note_on,84,54,0
1,note_on,84,0,120
1,note_on,81,54,0
1,note_on,81,0,120
1,note_on,79,54,0
1,note_on,79,0,120
1,note_on,78,57,0
1,note_on,78,0,120
1,note_on,79,54,0
1,note_on,79,0,120
1,note_on,81,54,0
1,note_on,81,0,120
1,note_on,79,54,0
1,note_on,79,0,120
1,note_on,78,56,0
1,note_on,78,0,120
1,note_on,76,54,0
1,note_on,76,0,120
1,note_on,74,54,0
1,note_on,74,0,120
1,note_on,73,54,0
1,note_on,73,0,120
1,note_on,74,58,0
1,note_on,74,0,120
1,note_on,86,54,0
1,note_on,86,0,120
1,note_on,72,58,0
1,note_on,72,0,120
1,note_on,84,53,0
1,note_on,84,0,120
1,note_on,71,61,0
1,note_on,71,0,120
1,note_on,83,56,0
1,note_on,83,0,120
1,note_on,69,61,0
1,note_on,69,0,120
1,note_on,81,56,0
1,note_on,81,0,120
1,note_on,67,66,1
1,note_on,71,46,359
1,note_on,67,0,1
1,note_on,71,0,59
1,note_on,69,47,0
1,note_on,69,0,60
1,note_on,67,56,0
1,note_on,67,0,120
1,note_on,62,48,0
1,note_on,62,0,120
1,note_on,71,48,0
1,note_on,71,0,120
1,note_on,69,48,0
1,note_on,69,0,120
1,note_on,67,56,0
1,note_on,67,0,120
1,note_on,62,48,0
1,note_on,62,0,120
1,note_on,67,48,0
1,note_on,67,0,120
1,note_on,71,48,0
1,note_on,71,0,120
1,note_on,74,56,0
1,note_on,74,0,120
1,note_on,71,52,0
1,note_on,71,0,120
1,note_on,69,52,0
1,note_on,69,0,120
1,note_on,67,52,0
1,note_on,67,0,120
1,note_on,71,59,0
1,note_on,71,0,120
1,note_on,69,52,0
1,note_on,69,0,120
1,note_on,67,52,0
1,note_on,67,0,120
1,note_on,69,52,0
1,note_on,69,0,120
1,note_on,67,54,0
1,note_on,67,0,240
1,note_on,76,54,0
1,note_on,76,0,240
1,note_on,75,51,0
1,note_on,75,0,120
1,note_on,76,52,0
1,note_on,76,0,120
1,note_on,77,53,0
1,note_on,77,0,120
1,note_on,78,54,0
1,note_on,78,0,120
1,note_on,79,56,0
1,note_on,79,0,120
1,note_on,80,57,0
1,note_on,80,0,120
1,note_on,81,58,0
1,note_on,81,0,120
1,note_on,82,59,0
1,note_on,82,0,120
1,note_on,83,68,0
1,note_on,83,0,480
1,note_on,81,60,0
1,note_on,81,0,120
1,note_on,79,56,0
1,note_on,79,0,120
1,note_on,78,56,0
1,note_on,78,0,120
1,note_on,76,56,0
1,note_on,76,0,120
1,note_on,74,60,0
1,note_on,74,0,480
1,note_on,73,52,0
1,note_on,73,0,80
1,note_on,74,43,0
1,note_on,74,0,80
1,note_on,73,48,0
1,note_on,73,0,80
1,note_on,74,43,0
1,note_on,74,0,60
1,note_on,73,48,0
1,note_on,73,0,60
1,note_on,74,42,0
1,note_on,74,0,60
1,note_on,73,47,0
1,note_on,73,0,60
1,note_on,74,54,0
1,note_on,74,0,120
1,note_on,76,50,0
1,note_on,76,0,120
1,note_on,78,51,0
1,note_on,78,0,120
1,note_on,79,52,0
1,note_on,79,0,120
1,note_on,81,53,0
1,note_on,81,0,120
1,note_on,83,54,0
1,note_on,83,0,120
1,note_on,85,55,0
1,note_on,85,0,120
1,note_on,86,56,0
1,note_on,86,0,120
1,note_on,85,59,0
1,note_on,85,0,120
1,note_on,88,55,0
1,note_on,88,0,120
1,note_on,85,55,0
1,note_on,85,0,120
1,note_on,81,55,0
1,note_on,81,0,120
1,note_on,79,58,0
1,note_on,79,0,120
1,note_on,83,55,0
1,note_on,83,0,120
1,note_on,79,55,0
1,note_on,79,0,120
1,note_on,76,55,0
1,note_on,76,0,120
1,note_on,78,57,0
1,note_on,78,0,120
1,note_on,81,53,0
1,note_on,81,0,120
1,note_on,79,53,0
1,note_on,79,0,120
1,note_on,78,53,0
1,note_on,78,0,120
1,note_on,76,55,0
1,note_on,76,0,120
1,note_on,74,53,0
1,note_on,74,0,120
1,note_on,73,53,0
1,note_on,73,0,120
1,note_on,71,53,0
1,note_on,71,0,120
1,note_on,69,56,0
1,note_on,69,0,120
1,note_on,71,52,0
1,note_on,71,0,120
1,note_on,73,52,0
1,note_on,73,0,120
1,note_on,74,52,0
1,note_on,74,0,120
1,note_on,76,55,0
1,note_on,76,0,120
1,note_on,78,51,0
1,note_on,78,0,120
1,note_on,79,53,0
1,note_on,79,0,120
1,note_on,76,54,0
1,note_on,76,0,120
1,note_on,74,56,0
1,note_on,74,0,120
1,note_on,76,56,0
1,note_on,76,0,120
1,note_on,78,59,0
1,note_on,78,0,120
1,note_on,79,61,0
1,note_on,79,0,120
1,note_on,81,61,0
1,note_on,81,0,120
1,note_on,83,63,0
1,note_on,83,0,120
1,note_on,85,66,0
1,note_on,85,0,120
1,note_on,86,69,0
1,note_on,86,0,60
1,note_on,74,66,60
1,note_on,74,0,480
1,note_on,77,54,480
1,note_on,77,0,360
1,note_on,74,47,0
1,note_on,74,0,60
1,note_on,75,47,0
1,note_on,75,0,60
1,note_on,77,55,0
1,note_on,77,0,240
1,note_on,89,84,0
1,note_on,89,0,480
1,note_on,69,51,0
1,note_on,69,0,240
1,note_on,69,51,0
1,note_on,69,0,240
1,note_on,69,51,0
1,note_on,69,0,240
1,note_on,70,54,0
1,note_on,70,0,360
1,note_on,70,47,0
1,note_on,70,0,60
1,note_on,72,47,0
1,note_on,72,0,60
1,note_on,74,55,0
1,note_on,74,0,240
1,note_on,86,79,0
1,note_on,86,0,480
1,note_on,66,51,0
1,note_on,66,0,240
1,note_on,66,51,0
1,note_on,66,0,240
1,note_on,66,51,0
1,note_on,66,0,240
1,note_on,67,59,0
1,note_on,67,0,360
1,note_on,67,47,0
1,note_on,67,0,60
1,note_on,69,47,0
1,note_on,69,0,60
1,note_on,70,59,0
1,note_on,70,0,240
1,note_on,82,78,0
1,note_on,82,0,480
1,note_on,61,55,0
1,note_on,61,0,240
1,note_on,61,55,0
1,note_on,61,0,240
1,note_on,61,55,0
1,note_on,61,0,240
1,note_on,62,54,0
1,note_on,62,0,120
1,note_on,64,56,0
1,note_on,64,0,120
1,note_on,66,57,0
1,note_on,66,0,120
1,note_on,67,59,0
1,note_on,67,0,120
1,note_on,69,60,0
1,note_on,69,0,120
1,note_on,66,57,0
1,note_on,66,0,120
1,note_on,67,60,0
1,note_on,67,0,120
1,note_on,64,56,0
1,note_on,64,0,120
1,note_on,62,68,0
1,note_on,62,0,480
1,note_on,67,60,1
1,note_on,71,46,359
1,note_on,67,0,1
1,note_on,71,0,59
1,note_on,69,47,0
1,note_on,69,0,60
1,note_on,67,56,0
1,note_on,67,0,120
1,note_on,62,48,0
1,note_on,62,0,120
1,note_on,71,48,0
1,note_on,71,0,120
1,note_on,69,48,0
1,note_on,69,0,120
1,note_on,67,56,0
1,note_on,67,0,120
1,note_on,62,48,0
1,note_on,62,0,120
1,note_on,67,48,0
1,note_on,67,0,120
1,note_on,71,48,0
1,note_on,71,0,120
1,note_on,74,56,0
1,note_on,74,0,120
1,note_on,71,52,0
1,note_on,71,0,120
1,note_on,69,52,0
1,note_on,69,0,120
1,note_on,67,52,0
1,note_on,67,0,120
1,note_on,71,59,0
1,note_on,71,0,120
1,note_on,69,52,0
1,note_on,69,0,120
1,note_on,67,52,0
1,note_on,67,0,120
1,note_on,69,52,0
1,note_on,69,0,120
1,note_on,67,54,0
1,note_on,67,0,240
1,note_on,88,46,0
1,note_on,88,0,120
1,note_on,76,44,0
1,note_on,76,0,120
1,note_on,88,47,0
1,note_on,88,0,120
1,note_on,76,44,0
1,note_on,76,0,120
1,note_on,88,49,0
1,note_on,88,0,120
1,note_on,76,45,0
1,note_on,76,0,120
1,note_on,88,51,0
1,note_on,88,0,120
1,note_on,76,46,0
1,note_on,76,0,120
1,note_on,88,52,0
1,note_on,88,0,120
1,note_on,76,49,0
1,note_on,76,0,120
1,note_on,88,54,0
1,note_on,88,0,300
1,note_on,86,48,0
1,note_on,86,0,60
1,note_on,84,48,0
1,note_on,84,0,60
1,note_on,83,47,0
1,note_on,83,0,60
1,note_on,81,47,0
1,note_on,81,0,240
1,note_on,86,46,0
1,note_on,86,0,120
1,note_on,74,44,0
1,note_on,74,0,120
1,note_on,86,47,0
1,note_on,86,0,120
1,note_on,74,44,0
1,note_on,74,0,120
1,note_on,86,49,0
1,note_on,86,0,120
1,note_on,74,45,0
1,note_on,74,0,120
1,note_on,86,51,0
1,note_on,86,0,120
1,note_on,74,46,0
1,note_on,74,0,120
1,note_on,86,52,0
1,note_on,86,0,120
1,note_on,74,49,0
1,note_on,74,0,120
1,note_on,86,54,0
1,note_on,86,0,300
1,note_on,84,48,0
1,note_on,84,0,60
1,note_on,83,48,0
1,note_on,83,0,60
1,note_on,81,47,0
1,note_on,81,0,60
1,note_on,79,47,0
1,note_on,79,0,240
1,note_on,86,39,1920
1,note_on,86,0,60
1,note_on,84,39,0
1,note_on,84,0,60
1,note_on,83,39,0
1,note_on,83,0,60
1,note_on,81,39,0
1,note_on,81,0,60
1,note_on,79,47,0
1,note_on,79,0,120
1,note_on,83,39,120
1,note_on,83,0,60
1,note_on,81,39,0
1,note_on,81,0,60
1,note_on,79,39,0
1,note_on,79,0,60
1,note_on,78,39,0
1,note_on,78,0,60
1,note_on,76,50,0
1,note_on,76,0,120
1,note_on,79,38,120
1,note_on,79,0,60
1,note_on,78,38,0
1,note_on,78,0,60
1,note_on,76,38,0
1,note_on,76,0,60
1,note_on,74,38,0
1,note_on,74,0,60
1,note_on,72,50,0
1,note_on,72,0,480
1,note_on,79,52,240
1,note_on,79,0,60
1,note_on,77,52,0
1,note_on,77,0,60
1,note_on,75,52,0
1,note_on,75,0,60
1,note_on,74,52,0
1,note_on,74,0,60
1,note_on,72,63,0
1,note_on,72,0,240
1,note_on,83,63,0
1,note_on,83,0,240
1,note_on,84,71,0
1,note_on,84,0,240
1,note_on,84,66,0
1,note_on,84,0,240
1,note_on,84,64,0
1,note_on,84,0,120
1,note_on,83,57,0
1,note_on,83,0,120
1,note_on,84,57,0
1,note_on,84,0,120
1,note_on,81,57,0
1,note_on,81,0,120
1,note_on,83,64,0
1,note_on,83,0,120
1,note_on,81,57,0
1,note_on,81,0,120
1,note_on,83,57,0
1,note_on,83,0,120
1,note_on,79,57,0
1,note_on,79,0,120
1,note_on,81,63,0
1,note_on,81,0,120
1,note_on,80,57,0
1,note_on,80,0,120
1,note_on,81,57,0
1,note_on,81,0,120
1,note_on,76,57,0
1,note_on,76,0,120
1,note_on,79,63,0
1,note_on,79,0,120
1,note_on,78,57,0
1,note_on,78,0,120
1,note_on,76,57,0
1,note_on,76,0,120
1,note_on,74,57,0
1,note_on,74,0,120
1,note_on,79,65,0
1,note_on,79,0,120
1,note_on,74,56,0
1,note_on,74,0,120
1,note_on,79,58,0
1,note_on,79,0,120
1,note_on,83,61,0
1,note_on,83,0,120
1,note_on,86,68,0
1,note_on,86,0,120
1,note_on,83,62,0
1,note_on,83,0,120
1,note_on,81,60,0
1,note_on,81,0,120
1,note_on,79,57,0
1,note_on,79,0,120
1,note_on,78,64,0
1,note_on,78,0,120
1,note_on,74,56,0
1,note_on,74,0,120
1,note_on,78,56,0
1,note_on,78,0,120
1,note_on,81,56,0
1,note_on,81,0,120
1,note_on,84,64,0
1,note_on,84,0,120
1,note_on,81,57,0
1,note_on,81,0,120
1,note_on,79,57,0
1,note_on,79,0,120
1,note_on,78,57,0
1,note_on,78,0,120
1,note_on,79,65,0
1,note_on,79,0,120
1,note_on,74,56,0
1,note_on,74,0,120
1,note_on,79,58,0
1,note_on,79,0,120
1,note_on,83,61,0
1,note_on,83,0,120
1,note_on,86,68,0
1,note_on,86,0,120
1,note_on,83,62,0
1,note_on,83,0,120
1,note_on,81,60,0
1,note_on,81,0,120
1,note_on,79,57,0
1,note_on,79,0,120
1,note_on,78,64,0
1,note_on,78,0,120
1,note_on,74,56,0
1,note_on,74,0,120
1,note_on,78,56,0
1,note_on,78,0,120
1,note_on,81,56,0
1,note_on,81,0,120
1,note_on,84,64,0
1,note_on,84,0,120
1,note_on,81,57,0
1,note_on,81,0,120
1,note_on,79,57,0
1,note_on,79,0,120
1,note_on,78,57,0
1,note_on,78,0,120
1,note_on,79,65,0
1,note_on,79,0,120
1,note_on,83,59,0
1,note_on,83,0,120
1,note_on,79,59,0
1,note_on,79,0,120
1,note_on,74,59,0
1,note_on,74,0,120
1,note_on,71,65,0
1,note_on,71,0,120
1,note_on,77,54,1320
1,note_on,77,0,360
1,note_on,74,47,0
1,note_on,74,0,60
1,note_on,75,47,0
1,note_on,75,0,60
1,note_on,77,55,0
1,note_on,77,0,240
1,note_on,89,84,0
1,note_on,89,0,480
1,note_on,69,51,0
1,note_on,69,0,240
1,note_on,69,51,0
1,note_on,69,0,240
1,note_on,69,51,0
1,note_on,69,0,240
1,note_on,70,54,0
1,note_on,70,0,360
1,note_on,70,47,0
1,note_on,70,0,60
1,note_on,72,47,0
1,note_on,72,0,60
1,note_on,74,55,0
1,note_on,74,0,240
1,note_on,86,79,0
1,note_on,86,0,480
1,note_on,66,51,0
1,note_on,66,0,240
1,note_on,66,51,0
1,note_on,66,0,240
1,note_on,66,51,0
1,note_on,66,0,240
1,note_on,67,59,0
1,note_on,67,0,360
1,note_on,67,47,0
1,note_on,67,0,60
1,note_on,69,47,0
1,note_on,69,0,60
1,note_on,70,59,0
1,note_on,70,0,240
1,note_on,82,78,0
1,note_on,82,0,480
1,note_on,61,55,0
1,note_on,61,0,240
1,note_on,61,55,0
1,note_on,61,0,240
1,note_on,61,55,0
1,note_on,61,0,240
1,note_on,62,54,0
1,note_on,62,0,120
1,note_on,64,56,0
1,note_on,64,0,120
1,note_on,66,57,0
1,note_on,66,0,120
1,note_on,67,59,0
1,note_on,67,0,120
1,note_on,69,60,0
1,note_on,69,0,120
1,note_on,66,57,0
1,note_on,66,0,120
1,note_on,67,60,0
1,note_on,67,0,120
1,note_on,64,56,0
1,note_on,64,0,120
1,note_on,62,68,0
1,note_on,62,0,480
1,note_on,67,60,1
1,note_on,71,46,359
1,note_on,67,0,1
1,note_on,71,0,59
1,note_on,69,47,0
1,note_on,69,0,60
1,note_on,67,56,0
1,note_on,67,0,120
1,note_on,62,48,0
1,note_on,62,0,120
1,note_on,71,48,0
1,note_on,71,0,120
1,note_on,69,48,0
1,note_on,69,0,120
1,note_on,67,56,0
1,note_on,67,0,120
1,note_on,62,48,0
1,note_on,62,0,120
1,note_on,67,48,0
1,note_on,67,0,120
1,note_on,71,48,0
1,note_on,71,0,120
1,note_on,74,56,0
1,note_on,74,0,120
1,note_on,71,52,0
1,note_on,71,0,120
1,note_on,69,52,0
1,note_on,69,0,120
1,note_on,67,52,0
1,note_on,67,0,120
1,note_on,71,59,0
1,note_on,71,0,120
1,note_on,69,52,0
1,note_on,69,0,120
1,note_on,67,52,0
1,note_on,67,0,120
1,note_on,69,52,0
1,note_on,69,0,120
1,note_on,67,54,0
1,note_on,67,0,240
1,note_on,88,46,0
1,note_on,88,0,120
1,note_on,76,44,0
1,note_on,76,0,120
1,note_on,88,47,0
1,note_on,88,0,120
1,note_on,76,44,0
1,note_on,76,0,120
1,note_on,88,49,0
1,note_on,88,0,120
1,note_on,76,45,0
1,note_on,76,0,120
1,note_on,88,51,0
1,note_on,88,0,120
1,note_on,76,46,0
1,note_on,76,0,120
1,note_on,88,52,0
1,note_on,88,0,120
1,note_on,76,49,0
1,note_on,76,0,120
1,note_on,88,54,0
1,note_on,88,0,300
1,note_on,86,48,0
1,note_on,86,0,60
1,note_on,84,48,0
1,note_on,84,0,60
1,note_on,83,47,0
1,note_on,83,0,60
1,note_on,81,47,0
1,note_on,81,0,240
1,note_on,86,46,0
1,note_on,86,0,120
1,note_on,74,44,0
1,note_on,74,0,120
1,note_on,86,47,0
1,note_on,86,0,120
1,note_on,74,44,0
1,note_on,74,0,120
1,note_on,86,49,0
1,note_on,86,0,120
1,note_on,74,45,0
1,note_on,74,0,120
1,note_on,86,51,0
1,note_on,86,0,120
1,note_on,74,46,0
1,note_on,74,0,120
1,note_on,86,52,0
1,note_on,86,0,120
1,note_on,74,49,0
1,note_on,74,0,120
1,note_on,86,54,0
1,note_on,86,0,300
1,note_on,84,48,0
1,note_on,84,0,60
1,note_on,83,48,0
1,note_on,83,0,60
1,note_on,81,47,0
1,note_on,81,0,60
1,note_on,79,47,0
1,note_on,79,0,240
1,note_on,86,39,1920
1,note_on,86,0,60
1,note_on,84,39,0
1,note_on,84,0,60
1,note_on,83,39,0
1,note_on,83,0,60
1,note_on,81,39,0
1,note_on,81,0,60
1,note_on,79,47,0
1,note_on,79,0,120
1,note_on,83,39,120
1,note_on,83,0,60
1,note_on,81,39,0
1,note_on,81,0,60
1,note_on,79,39,0
1,note_on,79,0,60
1,note_on,78,39,0
1,note_on,78,0,60
1,note_on,76,50,0
1,note_on,76,0,120
1,note_on,79,38,120
1,note_on,79,0,60
1,note_on,78,38,0
1,note_on,78,0,60
1,note_on,76,38,0
1,note_on,76,0,60
1,note_on,74,38,0
1,note_on,74,0,60
1,note_on,72,50,0
1,note_on,72,0,480
1,note_on,79,52,240
1,note_on,79,0,60
1,note_on,77,52,0
1,note_on,77,0,60
1,note_on,75,52,0
1,note_on,75,0,60
1,note_on,74,52,0
1,note_on,74,0,60
1,note_on,72,63,0
1,note_on,72,0,240
1,note_on,83,63,0
1,note_on,83,0,240
1,note_on,84,71,0
1,note_on,84,0,240
1,note_on,84,66,0
1,note_on,84,0,240
1,note_on,84,64,0
1,note_on,84,0,120
1,note_on,83,57,0
1,note_on,83,0,120
1,note_on,84,57,0
1,note_on,84,0,120
1,note_on,81,57,0
1,note_on,81,0,120
1,note_on,83,64,0
1,note_on,83,0,120
1,note_on,81,57,0
1,note_on,81,0,120
1,note_on,83,57,0
1,note_on,83,0,120
1,note_on,79,57,0
1,note_on,79,0,120
1,note_on,81,63,0
1,note_on,81,0,120
1,note_on,80,57,0
1,note_on,80,0,120
1,note_on,81,57,0
1,note_on,81,0,120
1,note_on,76,57,0
1,note_on,76,0,120
1,note_on,79,63,0
1,note_on,79,0,120
1,note_on,78,57,0
1,note_on,78,0,120
1,note_on,76,57,0
1,note_on,76,0,120
1,note_on,74,57,0
1,note_on,74,0,120
1,note_on,79,65,0
1,note_on,79,0,120
1,note_on,74,56,0
1,note_on,74,0,120
1,note_on,79,58,0
1,note_on,79,0,120
1,note_on,83,61,0
1,note_on,83,0,120
1,note_on,86,68,0
1,note_on,86,0,120
1,note_on,83,62,0
1,note_on,83,0,120
1,note_on,81,60,0
1,note_on,81,0,120
1,note_on,79,57,0
1,note_on,79,0,120
1,note_on,78,64,0
1,note_on,78,0,120
1,note_on,74,56,0
1,note_on,74,0,120
1,note_on,78,56,0
1,note_on,78,0,120
1,note_on,81,56,0
1,note_on,81,0,120
1,note_on,84,64,0
1,note_on,84,0,120
1,note_on,81,57,0
1,note_on,81,0,120
1,note_on,79,57,0
1,note_on,79,0,120
1,note_on,78,57,0
1,note_on,78,0,120
1,note_on,79,65,0
1,note_on,79,0,120
1,note_on,74,56,0
1,note_on,74,0,120
1,note_on,79,58,0
1,note_on,79,0,120
1,note_on,83,61,0
1,note_on,83,0,120
1,note_on,86,68,0
1,note_on,86,0,120
1,note_on,83,62,0
1,note_on,83,0,120
1,note_on,81,60,0
1,note_on,81,0,120
1,note_on,79,57,0
1,note_on,79,0,120
1,note_on,78,64,0
1,note_on,78,0,120
1,note_on,74,56,0
1,note_on,74,0,120
1,note_on,78,56,0
1,note_on,78,0,120
1,note_on,81,56,0
1,note_on,81,0,120
1,note_on,84,64,0
1,note_on,84,0,120
1,note_on,81,57,0
1,note_on,81,0,120
1,note_on,79,57,0
1,note_on,79,0,120
1,note_on,78,57,0
1,note_on,78,0,120
1,note_on,79,65,0
1,note_on,79,0,120
1,note_on,83,59,0
1,note_on,83,0,120
1,note_on,79,59,0
1,note_on,79,0,120
1,note_on,74,59,0
1,note_on,74,0,120
1,note_on,71,65,0
1,note_on,71,0,120
2,note_on,59,40,1
2,note_on,55,34,0
2,note_on,55,34,239
2,note_on,59,40,0
2,note_on,55,0,1
2,note_on,59,0,0
2,note_on,55,0,239
2,note_on,59,0,0
2,note_on,59,40,0
2,note_on,55,34,0
2,note_on,55,0,240
2,note_on,59,0,0
2,note_on,59,39,0
2,note_on,55,33,0
2,note_on,55,0,240
2,note_on,59,0,0
2,note_on,59,40,0
2,note_on,55,34,0
2,note_on,55,0,240
2,note_on,59,0,0
2,note_on,59,41,0
2,note_on,55,34,0
2,note_on,55,0,240
2,note_on,59,0,0
2,note_on,59,41,0
2,note_on,55,34,0
2,note_on,55,0,240
2,note_on,59,0,0
2,note_on,59,41,0
2,note_on,55,34,0
2,note_on,55,0,240
2,note_on,59,0,0
2,note_on,60,44,0
2,note_on,55,37,0
2,note_on,55,0,480
2,note_on,60,0,0
2,note_on,55,34,0
2,note_on,59,41,0
2,note_on,59,0,240
2,note_on,55,0,0
2,note_on,65,41,240
2,note_on,67,41,0
2,note_on,67,0,120
2,note_on,65,0,0
2,note_on,65,41,120
2,note_on,67,41,0
2,note_on,67,0,120
2,note_on,65,0,0
2,note_on,67,41,120
2,note_on,65,41,0
2,note_on,65,0,120
2,note_on,67,0,0
2,note_on,65,41,120
2,note_on,67,41,0
2,note_on,67,0,120
2,note_on,65,0,0
2,note_on,67,46,120
2,note_on,64,46,0
2,note_on,64,0,720
2,note_on,67,0,0
2,note_on,65,41,0
2,note_on,62,41,0
2,note_on,62,0,240
2,note_on,65,0,0
2,note_on,64,49,0
2,note_on,60,49,0
2,note_on,60,0,480
2,note_on,64,0,0
2,note_on,61,50,0
2,note_on,64,50,0
2,note_on,64,0,480
2,note_on,61,0,0
2,note_on,62,46,0
2,note_on,62,0,480
2,note_on,55,34,1
2,note_on,59,40,0
2,note_on,59,40,239
2,note_on,55,34,0
2,note_on,59,0,1
2,note_on,55,0,0
2,note_on,59,0,239
2,note_on,55,0,0
2,note_on,55,34,0
2,note_on,59,40,0
2,note_on,59,0,240
2,note_on,55,0,0
2,note_on,55,33,0
2,note_on,59,39,0
2,note_on,59,0,240
2,note_on,55,0,0
2,note_on,55,34,0
2,note_on,59,40,0
2,note_on,59,0,240
2,note_on,55,0,0
2,note_on,59,41,0
2,note_on,55,34,0
2,note_on,55,0,240
2,note_on,59,0,0
2,note_on,55,34,0
2,note_on,59,41,0
2,note_on,59,0,240
2,note_on,55,0,0
2,note_on,55,34,0
2,note_on,59,41,0
2,note_on,59,0,240
2,note_on,55,0,0
2,note_on,60,44,0
2,note_on,55,44,0
2,note_on,55,0,480
2,note_on,60,0,0
2,note_on,59,41,0
2,note_on,55,41,0
2,note_on,55,0,240
2,note_on,59,0,0
2,note_on,71,41,240
2,note_on,67,41,0
2,note_on,67,0,120
2,note_on,71,0,0
2,note_on,71,41,120
2,note_on,67,41,0
2,note_on,67,0,120
2,note_on,71,0,0
2,note_on,71,41,120
2,note_on,67,41,0
2,note_on,67,0,120
2,note_on,71,0,0
2,note_on,67,41,120
2,note_on,71,41,0
2,note_on,71,0,120
2,note_on,67,0,0
2,note_on,67,39,120
2,note_on,71,46,0
2,note_on,71,0,240
2,note_on,67,0,0
2,note_on,67,39,0
2,note_on,71,46,0
2,note_on,71,0,240
2,note_on,67,0,0
2,note_on,71,46,0
2,note_on,67,39,0
2,note_on,67,0,240
2,note_on,71,0,0
2,note_on,71,46,0
2,note_on,67,39,0
2,note_on,67,0,240
2,note_on,71,0,0
2,note_on,57,39,0
2,note_on,66,46,0
2,note_on,66,0,240
2,note_on,57,0,0
2,note_on,57,39,0
2,note_on,66,46,0
2,note_on,66,0,240
2,note_on,57,0,0
2,note_on,57,39,0
2,note_on,64,46,0
2,note_on,64,0,240
2,note_on,57,0,0
2,note_on,64,46,0
2,note_on,57,39,0
2,note_on,57,0,240
2,note_on,64,0,0
2,note_on,62,37,0
2,note_on,66,44,0
2,note_on,66,0,240
2,note_on,62,0,0
2,note_on,62,32,0
2,note_on,66,38,0
2,note_on,66,0,240
2,note_on,62,0,0
2,note_on,66,38,0
2,note_on,62,32,0
2,note_on,62,0,240
2,note_on,66,0,0
2,note_on,62,32,0
2,note_on,66,38,0
2,note_on,66,0,240
2,note_on,62,0,0
2,note_on,62,36,0
2,note_on,67,43,0
2,note_on,67,0,240
2,note_on,62,0,0
2,note_on,62,32,0
2,note_on,67,38,0
2,note_on,67,0,240
2,note_on,62,0,0
2,note_on,62,32,0
2,note_on,67,38,0
2,note_on,67,0,240
2,note_on,62,0,0
2,note_on,67,38,0
2,note_on,62,32,0
2,note_on,62,0,240
2,note_on,67,0,0
2,note_on,66,44,0
2,note_on,62,37,0
2,note_on,62,0,240
2,note_on,66,0,0
2,note_on,66,38,0
2,note_on,62,32,0
2,note_on,62,0,240
2,note_on,66,0,0
2,note_on,66,38,0
2,note_on,62,32,0
2,note_on,62,0,240
2,note_on,66,0,0
2,note_on,66,38,0
2,note_on,62,32,0
2,note_on,62,0,240
2,note_on,66,0,0
2,note_on,67,44,0
2,note_on,62,37,0
2,note_on,62,0,240
2,note_on,67,0,0
2,note_on,67,38,0
2,note_on,62,32,0
2,note_on,62,0,240
2,note_on,67,0,0
2,note_on,67,38,0
2,note_on,62,32,0
2,note_on,62,0,240
2,note_on,67,0,0
2,note_on,67,38,0
2,note_on,62,32,0
2,note_on,62,0,240
2,note_on,67,0,0
2,note_on,66,45,0
2,note_on,62,38,0
2,note_on,62,0,480
2,note_on,66,0,0
2,note_on,38,69,480
2,note_on,50,69,0
2,note_on,50,0,480
2,note_on,38,0,0
2,note_on,55,34,1
2,note_on,59,40,0
2,note_on,55,34,239
2,note_on,59,40,0
2,note_on,59,0,1
2,note_on,55,0,0
2,note_on,55,0,239
2,note_on,59,0,0
2,note_on,55,34,0
2,note_on,59,40,0
2,note_on,59,0,240
2,note_on,55,0,0
2,note_on,55,33,0
2,note_on,59,39,0
2,note_on,59,0,240
2,note_on,55,0,0
2,note_on,55,34,0
2,note_on,59,40,0
2,note_on,59,0,240
2,note_on,55,0,0
2,note_on,55,34,0
2,note_on,59,41,0
2,note_on,59,0,240
2,note_on,55,0,0
2,note_on,55,34,0
2,note_on,59,41,0
2,note_on,59,0,240
2,note_on,55,0,0
2,note_on,55,34,0
2,note_on,59,41,0
2,note_on,59,0,240
2,note_on,55,0,0
2,note_on,55,37,0
2,note_on,60,44,0
2,note_on,60,0,480
2,note_on,55,0,0
2,note_on,55,34,0
2,note_on,59,41,0
2,note_on,59,0,240
2,note_on,55,0,0
2,note_on,65,41,240
2,note_on,67,41,0
2,note_on,67,0,120
2,note_on,65,0,0
2,note_on,65,41,120
2,note_on,67,41,0
2,note_on,67,0,120
2,note_on,65,0,0
2,note_on,65,41,120
2,note_on,67,41,0
2,note_on,67,0,120
2,note_on,65,0,0
2,note_on,67,41,120
2,note_on,65,41,0
2,note_on,65,0,120
2,note_on,67,0,0
2,note_on,64,46,120
2,note_on,67,46,0
2,note_on,67,0,720
2,note_on,64,0,0
2,note_on,62,41,0
2,note_on,65,41,0
2,note_on,65,0,240
2,note_on,62,0,0
2,note_on,60,49,0
2,note_on,64,49,0
2,note_on,64,0,480
2,note_on,60,0,0
2,note_on,61,50,0
2,note_on,64,50,0
2,note_on,64,0,480
2,note_on,61,0,0
2,note_on,62,46,0
2,note_on,62,0,480
2,note_on,55,34,1
2,note_on,59,40,0
2,note_on,55,34,239
2,note_on,59,40,0
2,note_on,59,0,1
2,note_on,55,0,0
2,note_on,55,0,239
2,note_on,59,0,0
2,note_on,55,34,0
2,note_on,59,40,0
2,note_on,59,0,240
2,note_on,55,0,0
2,note_on,55,33,0
2,note_on,59,39,0
2,note_on,59,0,240
2,note_on,55,0,0
2,note_on,55,34,0
2,note_on,59,40,0
2,note_on,59,0,240
2,note_on,55,0,0
2,note_on,55,34,0
2,note_on,59,41,0
2,note_on,59,0,240
2,note_on,55,0,0
2,note_on,55,34,0
2,note_on,59,41,0
2,note_on,59,0,240
2,note_on,55,0,0
2,note_on,55,34,0
2,note_on,59,41,0
2,note_on,59,0,240
2,note_on,55,0,0
2,note_on,55,37,0
2,note_on,60,44,0
2,note_on,60,0,480
2,note_on,55,0,0
2,note_on,55,34,0
2,note_on,59,41,0
2,note_on,59,0,240
2,note_on,55,0,0
2,note_on,71,41,240
2,note_on,67,41,0
2,note_on,67,0,120
2,note_on,71,0,0
2,note_on,71,41,120
2,note_on,67,41,0
2,note_on,67,0,120
2,note_on,71,0,0
2,note_on,71,41,120
2,note_on,67,41,0
2,note_on,67,0,120
2,note_on,71,0,0
2,note_on,67,41,120
2,note_on,71,41,0
2,note_on,71,0,120
2,note_on,67,0,0
2,note_on,71,46,120
2,note_on,67,39,0
2,note_on,67,0,240
2,note_on,71,0,0
2,note_on,67,39,0
2,note_on,71,46,0
2,note_on,71,0,240
2,note_on,67,0,0
2,note_on,67,39,0
2,note_on,71,46,0
2,note_on,71,0,240
2,note_on,67,0,0
2,note_on,67,39,0
2,note_on,71,46,0
2,note_on,71,0,240
2,note_on,67,0,0
2,note_on,66,46,0
2,note_on,57,39,0
2,note_on,57,0,240
2,note_on,66,0,0
2,note_on,57,39,0
2,note_on,66,46,0
2,note_on,66,0,240
2,note_on,57,0,0
2,note_on,57,39,0
2,note_on,64,46,0
2,note_on,64,0,240
2,note_on,57,0,0
2,note_on,57,39,0
2,note_on,64,46,0
2,note_on,64,0,240
2,note_on,57,0,0
2,note_on,62,37,0
2,note_on,66,44,0
2,note_on,66,0,240
2,note_on,62,0,0
2,note_on,62,32,0
2,note_on,66,38,0
2,note_on,66,0,240
2,note_on,62,0,0
2,note_on,62,32,0
2,note_on,66,38,0
2,note_on,66,0,240
2,note_on,62,0,0
2,note_on,62,32,0
2,note_on,66,38,0
2,note_on,66,0,240
2,note_on,62,0,0
2,note_on,62,36,0
2,note_on,67,43,0
2,note_on,67,0,240
2,note_on,62,0,0
2,note_on,62,32,0
2,note_on,67,38,0
2,note_on,67,0,240
2,note_on,62,0,0
2,note_on,62,32,0
2,note_on,67,38,0
2,note_on,67,0,240
2,note_on,62,0,0
2,note_on,62,32,0
2,note_on,67,38,0
2,note_on,67,0,240
2,note_on,62,0,0
2,note_on,62,37,0
2,note_on,66,44,0
2,note_on,66,0,240
2,note_on,62,0,0
2,note_on,62,32,0
2,note_on,66,38,0
2,note_on,66,0,240
2,note_on,62,0,0
2,note_on,62,32,0
2,note_on,66,38,0
2,note_on,66,0,240
2,note_on,62,0,0
2,note_on,62,32,0
2,note_on,66,38,0
2,note_on,66,0,240
2,note_on,62,0,0
2,note_on,62,37,0
2,note_on,67,44,0
2,note_on,67,0,240
2,note_on,62,0,0
2,note_on,62,32,0
2,note_on,67,38,0
2,note_on,67,0,240
2,note_on,62,0,0
2,note_on,62,32,0
2,note_on,67,38,0
2,note_on,67,0,240
2,note_on,62,0,0
2,note_on,62,32,0
2,note_on,67,38,0
2,note_on,67,0,240
2,note_on,62,0,0
2,note_on,62,38,0
2,note_on,66,45,0
2,note_on,66,0,480
2,note_on,62,0,0
2,note_on,38,69,480
2,note_on,50,69,0
2,note_on,50,0,480
2,note_on,38,0,0
2,note_on,62,45,480
2,note_on,58,38,0
2,note_on,58,0,480
2,note_on,62,0,0
2,note_on,62,41,240
2,note_on,58,34,0
2,note_on,58,0,240
2,note_on,62,0,0
2,note_on,63,45,0
2,note_on,60,38,0
2,note_on,60,0,480
2,note_on,63,0,0
2,note_on,60,34,240
2,note_on,63,41,0
2,note_on,63,0,240
2,note_on,60,0,0
2,note_on,62,38,0
2,note_on,65,45,0
2,note_on,65,0,480
2,note_on,62,0,0
2,note_on,62,41,240
2,note_on,58,34,0
2,note_on,58,0,240
2,note_on,62,0,0
2,note_on,57,38,0
2,note_on,60,45,0
2,note_on,60,0,480
2,note_on,57,0,0
2,note_on,60,41,240
2,note_on,57,34,0
2,note_on,57,0,240
2,note_on,60,0,0
2,note_on,62,49,0
2,note_on,58,41,0
2,note_on,58,0,480
2,note_on,62,0,0
2,note_on,58,43,240
2,note_on,55,36,0
2,note_on,55,0,240
2,note_on,58,0,0
2,note_on,55,48,0
2,note_on,51,40,0
2,note_on,51,0,480
2,note_on,55,0,0
2,note_on,51,55,240
2,note_on,55,55,0
2,note_on,55,0,240
2,note_on,51,0,0
2,note_on,50,58,0
2,note_on,54,58,0
2,note_on,54,0,360
2,note_on,50,0,0
2,note_on,42,51,0
2,note_on,42,0,60
2,note_on,43,51,0
2,note_on,43,0,60
2,note_on,45,61,0
2,note_on,45,0,240
2,note_on,42,56,0
2,note_on,42,0,240
2,note_on,38,56,0
2,note_on,38,0,480
2,note_on,55,34,1
2,note_on,59,40,0
2,note_on,55,34,239
2,note_on,59,40,0
2,note_on,59,0,1
2,note_on,55,0,0
2,note_on,55,0,239
2,note_on,59,0,0
2,note_on,55,34,0
2,note_on,59,40,0
2,note_on,59,0,240
2,note_on,55,0,0
2,note_on,55,33,0
2,note_on,59,39,0
2,note_on,59,0,240
2,note_on,55,0,0
2,note_on,55,34,0
2,note_on,59,40,0
2,note_on,59,0,240
2,note_on,55,0,0
2,note_on,55,34,0
2,note_on,59,41,0
2,note_on,59,0,240
2,note_on,55,0,0
2,note_on,55,34,0
2,note_on,59,41,0
2,note_on,59,0,240
2,note_on,55,0,0
2,note_on,55,34,0
2,note_on,59,41,0
2,note_on,59,0,240
2,note_on,55,0,0
2,note_on,55,37,0
2,note_on,60,44,0
2,note_on,60,0,480
2,note_on,55,0,0
2,note_on,55,34,0
2,note_on,59,41,0
2,note_on,59,0,240
2,note_on,55,0,0
2,note_on,74,36,240
2,note_on,68,36,0
2,note_on,68,0,120
2,note_on,74,0,0
2,note_on,74,36,120
2,note_on,68,36,0
2,note_on,68,0,120
2,note_on,74,0,0
2,note_on,74,36,120
2,note_on,68,36,0
2,note_on,68,0,120
2,note_on,74,0,0
2,note_on,68,36,120
2,note_on,74,36,0
2,note_on,74,0,120
2,note_on,68,0,0
2,note_on,72,41,120
2,note_on,69,41,0
2,note_on,69,0,480
2,note_on,72,0,0
2,note_on,66,36,480
2,note_on,72,36,0
2,note_on,72,0,120
2,note_on,66,0,0
2,note_on,66,36,120
2,note_on,72,36,0
2,note_on,72,0,120
2,note_on,66,0,0
2,note_on,66,36,120
2,note_on,72,36,0
2,note_on,72,0,120
2,note_on,66,0,0
2,note_on,66,36,120
2,note_on,72,36,0
2,note_on,72,0,120
2,note_on,66,0,0
2,note_on,71,41,120
2,note_on,67,41,0
2,note_on,67,0,480
2,note_on,71,0,0
2,note_on,64,34,3360
2,note_on,67,34,0
2,note_on,67,0,240
2,note_on,64,0,0
2,note_on,67,44,600
2,note_on,67,0,60
2,note_on,65,44,0
2,note_on,65,0,60
2,note_on,63,55,0
2,note_on,63,0,480
2,note_on,69,49,360
2,note_on,69,0,60
2,note_on,67,49,0
2,note_on,67,0,60
2,note_on,62,56,0
2,note_on,66,56,0
2,note_on,66,0,480
2,note_on,62,0,0
2,note_on,64,46,0
2,note_on,67,46,0
2,note_on,67,0,480
2,note_on,64,0,0
2,note_on,60,46,0
2,note_on,64,46,0
2,note_on,64,0,480
2,note_on,60,0,0
2,note_on,62,46,0
2,note_on,62,0,480
2,note_on,55,37,0
2,note_on,59,44,0
2,note_on,59,0,240
2,note_on,55,0,0
2,note_on,55,32,0
2,note_on,59,38,0
2,note_on,59,0,240
2,note_on,55,0,0
2,note_on,55,32,0
2,note_on,59,38,0
2,note_on,59,0,240
2,note_on,55,0,0
2,note_on,55,32,0
2,note_on,59,38,0
2,note_on,59,0,240
2,note_on,55,0,0
2,note_on,55,36,0
2,note_on,60,43,0
2,note_on,60,0,240
2,note_on,55,0,0
2,note_on,55,32,0
2,note_on,60,38,0
2,note_on,60,0,240
2,note_on,55,0,0
2,note_on,55,32,0
2,note_on,60,38,0
2,note_on,60,0,240
2,note_on,55,0,0
2,note_on,55,32,0
2,note_on,60,38,0
2,note_on,60,0,240
2,note_on,55,0,0
2,note_on,55,37,0
2,note_on,59,44,0
2,note_on,59,0,240
2,note_on,55,0,0
2,note_on,55,32,0
2,note_on,59,38,0
2,note_on,59,0,240
2,note_on,55,0,0
2,note_on,55,32,0
2,note_on,59,38,0
2,note_on,59,0,240
2,note_on,55,0,0
2,note_on,55,32,0
2,note_on,59,38,0
2,note_on,59,0,240
2,note_on,55,0,0
2,note_on,55,37,0
2,note_on,60,44,0
2,note_on,60,0,240
2,note_on,55,0,0
2,note_on,55,32,0
2,note_on,60,38,0
2,note_on,60,0,240
2,note_on,55,0,0
2,note_on,55,32,0
2,note_on,60,38,0
2,note_on,60,0,240
2,note_on,55,0,0
2,note_on,55,32,0
2,note_on,60,38,0
2,note_on,60,0,240
2,note_on,55,0,0
2,note_on,55,38,0
2,note_on,59,45,0
2,note_on,59,0,480
2,note_on,55,0,0
2,note_on,31,69,480
2,note_on,43,69,0
2,note_on,43,0,480
2,note_on,31,0,0
2,note_on,62,45,480
2,note_on,58,38,0
2,note_on,58,0,480
2,note_on,62,0,0
2,note_on,62,41,240
2,note_on,58,34,0
2,note_on,58,0,240
2,note_on,62,0,0
2,note_on,63,45,0
2,note_on,60,38,0
2,note_on,60,0,480
2,note_on,63,0,0
2,note_on,60,34,240
2,note_on,63,41,0
2,note_on,63,0,240
2,note_on,60,0,0
2,note_on,62,38,0
2,note_on,65,45,0
2,note_on,65,0,480
2,note_on,62,0,0
2,note_on,62,41,240
2,note_on,58,34,0
2,note_on,58,0,240
2,note_on,62,0,0
2,note_on,57,38,0
2,note_on,60,45,0
2,note_on,60,0,480
2,note_on,57,0,0
2,note_on,60,41,240
2,note_on,57,34,0
2,note_on,57,0,240
2,note_on,60,0,0
2,note_on,62,49,0
2,note_on,58,41,0
2,note_on,58,0,480
2,note_on,62,0,0
2,note_on,58,43,240
2,note_on,55,36,0
2,note_on,55,0,240
2,note_on,58,0,0
2,note_on,55,48,0
2,note_on,51,40,0
2,note_on,51,0,480
2,note_on,55,0,0
2,note_on,51,55,240
2,note_on,55,55,0
2,note_on,55,0,240
2,note_on,51,0,0
2,note_on,50,58,0
2,note_on,54,58,0
2,note_on,54,0,360
2,note_on,50,0,0
2,note_on,42,51,0
2,note_on,42,0,60
2,note_on,43,51,0
2,note_on,43,0,60
2,note_on,45,61,0
2,note_on,45,0,240
2,note_on,42,56,0
2,note_on,42,0,240
2,note_on,38,56,0
2,note_on,38,0,480
2,note_on,55,34,1
2,note_on,59,40,0
2,note_on,55,34,239
2,note_on,59,40,0
2,note_on,59,0,1
2,note_on,55,0,0
2,note_on,55,0,239
2,note_on,59,0,0
2,note_on,55,34,0
2,note_on,59,40,0
2,note_on,59,0,240
2,note_on,55,0,0
2,note_on,55,33,0
2,note_on,59,39,0
2,note_on,59,0,240
2,note_on,55,0,0
2,note_on,55,34,0
2,note_on,59,40,0
2,note_on,59,0,240
2,note_on,55,0,0
2,note_on,55,34,0
2,note_on,59,41,0
2,note_on,59,0,240
2,note_on,55,0,0
2,note_on,55,34,0
2,note_on,59,41,0
2,note_on,59,0,240
2,note_on,55,0,0
2,note_on,55,34,0
2,note_on,59,41,0
2,note_on,59,0,240
2,note_on,55,0,0
2,note_on,55,37,0
2,note_on,60,44,0
2,note_on,60,0,480
2,note_on,55,0,0
2,note_on,55,34,0
2,note_on,59,41,0
2,note_on,59,0,240
2,note_on,55,0,0
2,note_on,74,36,240
2,note_on,68,36,0
2,note_on,68,0,120
2,note_on,74,0,0
2,note_on,74,36,120
2,note_on,68,36,0
2,note_on,68,0,120
2,note_on,74,0,0
2,note_on,74,36,120
2,note_on,68,36,0
2,note_on,68,0,120
2,note_on,74,0,0
2,note_on,68,36,120
2,note_on,74,36,0
2,note_on,74,0,120
2,note_on,68,0,0
2,note_on,72,41,120
2,note_on,69,41,0
2,note_on,69,0,480
2,note_on,72,0,0
2,note_on,66,36,480
2,note_on,72,36,0
2,note_on,72,0,120
2,note_on,66,0,0
2,note_on,66,36,120
2,note_on,72,36,0
2,note_on,72,0,120
2,note_on,66,0,0
2,note_on,66,36,120
2,note_on,72,36,0
2,note_on,72,0,120
2,note_on,66,0,0
2,note_on,66,36,120
2,note_on,72,36,0
2,note_on,72,0,120
2,note_on,66,0,0
2,note_on,71,41,120
2,note_on,67,41,0
2,note_on,67,0,480
2,note_on,71,0,0
2,note_on,64,34,3360
2,note_on,67,34,0
2,note_on,67,0,240
2,note_on,64,0,0
2,note_on,67,44,600
2,note_on,67,0,60
2,note_on,65,44,0
2,note_on,65,0,60
2,note_on,63,55,0
2,note_on,63,0,480
2,note_on,69,47,360
2,note_on,69,0,60
2,note_on,67,47,0
2,note_on,67,0,60
2,note_on,62,56,0
2,note_on,66,56,0
2,note_on,66,0,480
2,note_on,62,0,0
2,note_on,64,46,0
2,note_on,67,46,0
2,note_on,67,0,480
2,note_on,64,0,0
2,note_on,60,46,0
2,note_on,64,46,0
2,note_on,64,0,480
2,note_on,60,0,0
2,note_on,62,46,0
2,note_on,62,0,480
2,note_on,55,37,0
2,note_on,59,44,0
2,note_on,59,0,240
2,note_on,55,0,0
2,note_on,55,32,0
2,note_on,59,38,0
2,note_on,59,0,240
2,note_on,55,0,0
2,note_on,55,32,0
2,note_on,59,38,0
2,note_on,59,0,240
2,note_on,55,0,0
2,note_on,55,32,0
2,note_on,59,38,0
2,note_on,59,0,240
2,note_on,55,0,0
2,note_on,55,36,0
2,note_on,60,43,0
2,note_on,60,0,240
2,note_on,55,0,0
2,note_on,55,32,0
2,note_on,60,38,0
2,note_on,60,0,240
2,note_on,55,0,0
2,note_on,55,32,0
2,note_on,60,38,0
2,note_on,60,0,240
2,note_on,55,0,0
2,note_on,55,32,0
2,note_on,60,38,0
2,note_on,60,0,240
2,note_on,55,0,0
2,note_on,55,37,0
2,note_on,59,44,0
2,note_on,59,0,240
2,note_on,55,0,0
2,note_on,55,32,0
2,note_on,59,38,0
2,note_on,59,0,240
2,note_on,55,0,0
2,note_on,55,32,0
2,note_on,59,38,0
2,note_on,59,0,240
2,note_on,55,0,0
2,note_on,55,32,0
2,note_on,59,38,0
2,note_on,59,0,240
2,note_on,55,0,0
2,note_on,55,37,0
2,note_on,60,44,0
2,note_on,60,0,240
2,note_on,55,0,0
2,note_on,55,32,0
2,note_on,60,38,0
2,note_on,60,0,240
2,note_on,55,0,0
2,note_on,55,32,0
2,note_on,60,38,0
2,note_on,60,0,240
2,note_on,55,0,0
2,note_on,55,32,0
2,note_on,60,38,0
2,note_on,60,0,240
2,note_on,55,0,0
2,note_on,55,38,0
2,note_on,59,45,0
2,note_on,59,0,480
2,note_on,55,0,0
2,note_on,31,69,480
2,note_on,43,69,0
2,note_on,43,0,480
2,note_on,31,0,0
2,note_on,40,60,480
2,note_on,52,60,0
2,note_on,52,0,480
2,note_on,40,0,0
2,note_on,67,39,240
2,note_on,71,39,0
2,note_on,71,0,240
2,note_on,67,0,0
2,note_on,66,45,0
2,note_on,69,45,0
2,note_on,69,0,720
2,note_on,66,0,0
2,note_on,69,39,0
2,note_on,72,39,0
2,note_on,72,0,240
2,note_on,69,0,0
2,note_on,67,45,0
2,note_on,71,45,0
2,note_on,71,0,720
2,note_on,67,0,0
2,note_on,64,40,0
2,note_on,70,40,0
2,note_on,70,0,240
2,note_on,64,0,0
2,note_on,62,45,0
2,note_on,71,45,0
2,note_on,71,0,720
2,note_on,62,0,0
2,note_on,62,45,0
2,note_on,66,45,0
2,note_on,66,0,240
2,note_on,62,0,0
2,note_on,61,48,0
2,note_on,64,48,0
2,note_on,64,0,720
2,note_on,61,0,0
2,note_on,58,48,0
2,note_on,58,0,240
2,note_on,59,54,0
2,note_on,59,0,480
2,note_on,64,49,0
2,note_on,64,0,480
2,note_on,66,49,0
2,note_on,66,0,480
2,note_on,66,49,0
2,note_on,66,0,480
2,note_on,59,49,0
2,note_on,59,0,480
2,note_on,39,56,240
2,note_on,51,56,0
2,note_on,51,0,240
2,note_on,39,0,0
2,note_on,40,60,0
2,note_on,52,60,0
2,note_on,52,0,480
2,note_on,40,0,0
2,note_on,67,39,240
2,note_on,71,39,0
2,note_on,71,0,240
2,note_on,67,0,0
2,note_on,66,45,0
2,note_on,69,45,0
2,note_on,69,0,720
2,note_on,66,0,0
2,note_on,69,39,0
2,note_on,72,39,0
2,note_on,72,0,240
2,note_on,69,0,0
2,note_on,67,45,0
2,note_on,71,45,0
2,note_on,71,0,720
2,note_on,67,0,0
2,note_on,64,40,0
2,note_on,70,40,0
2,note_on,70,0,240
2,note_on,64,0,0
2,note_on,62,45,0
2,note_on,71,45,0
2,note_on,71,0,720
2,note_on,62,0,0
2,note_on,62,45,0
2,note_on,66,45,0
2,note_on,66,0,240
2,note_on,62,0,0
2,note_on,61,48,0
2,note_on,64,48,0
2,note_on,64,0,720
2,note_on,61,0,0
2,note_on,58,48,0
2,note_on,58,0,240
2,note_on,59,54,0
2,note_on,59,0,480
2,note_on,64,49,0
2,note_on,64,0,480
2,note_on,66,49,0
2,note_on,66,0,480
2,note_on,66,49,0
2,note_on,66,0,480
2,note_on,59,49,0
2,note_on,59,0,480
2,note_on,35,56,240
2,note_on,47,56,0
2,note_on,47,0,240
2,note_on,35,0,0
2,note_on,36,60,0
2,note_on,48,60,0
2,note_on,48,0,480
2,note_on,36,0,0
2,note_on,60,35,240
2,note_on,64,42,0
2,note_on,64,0,240
2,note_on,60,0,0
2,note_on,59,40,0
2,note_on,62,48,0
2,note_on,62,0,720
2,note_on,59,0,0
2,note_on,59,40,0
2,note_on,56,34,0
2,note_on,56,0,240
2,note_on,59,0,0
2,note_on,57,39,0
2,note_on,60,46,0
2,note_on,60,0,480
2,note_on,57,0,0
2,note_on,62,44,0
2,note_on,59,37,0
2,note_on,59,0,480
2,note_on,62,0,0
2,note_on,64,40,0
2,note_on,60,34,0
2,note_on,60,0,480
2,note_on,64,0,0
2,note_on,71,30,720
2,note_on,74,30,0
2,note_on,74,0,240
2,note_on,71,0,0
2,note_on,69,35,0
2,note_on,72,35,0
2,note_on,72,0,480
2,note_on,69,0,0
2,note_on,66,31,240
2,note_on,66,0,240
2,note_on,67,36,0
2,note_on,67,0,480
2,note_on,63,36,0
2,note_on,63,0,480
2,note_on,64,30,0
2,note_on,64,0,480
2,note_on,59,35,0
2,note_on,59,0,480
2,note_on,52,55,720
2,note_on,52,0,240
2,note_on,64,62,0
2,note_on,64,0,720
2,note_on,63,47,0
2,note_on,63,0,240
2,note_on,66,51,0
2,note_on,66,0,720
2,note_on,64,49,0
2,note_on,64,0,240
2,note_on,67,54,0
2,note_on,67,0,720
2,note_on,66,47,0
2,note_on,66,0,240
2,note_on,69,51,0
2,note_on,69,0,720
2,note_on,66,53,0
2,note_on,66,0,240
2,note_on,63,58,0
2,note_on,63,0,720
2,note_on,60,54,0
2,note_on,60,0,240
2,note_on,57,58,0
2,note_on,57,0,720
2,note_on,54,52,0
2,note_on,54,0,240
2,note_on,51,50,0
2,note_on,51,0,240
2,note_on,51,42,0
2,note_on,51,0,120
2,note_on,48,42,0
2,note_on,48,0,120
2,note_on,45,55,0
2,note_on,45,0,120
2,note_on,48,42,120
2,note_on,48,0,120
2,note_on,45,42,0
2,note_on,45,0,120
2,note_on,42,56,0
2,note_on,42,0,120
2,note_on,45,49,120
2,note_on,45,0,120
2,note_on,42,49,0
2,note_on,42,0,120
2,note_on,39,63,0
2,note_on,39,0,240
2,note_on,51,52,3120
2,note_on,51,0,480
2,note_on,52,54,0
2,note_on,52,0,240
2,note_on,45,51,240
2,note_on,45,0,240
2,note_on,47,51,240
2,note_on,47,0,240
2,note_on,47,51,240
2,note_on,47,0,240
2,note_on,52,48,480
2,note_on,52,0,240
2,note_on,40,53,0
2,note_on,40,0,240
2,note_on,52,38,480
2,note_on,52,0,240
2,note_on,40,43,0
2,note_on,40,0,240
2,note_on,52,43,480
2,note_on,52,0,240
2,note_on,40,47,0
2,note_on,40,0,240
2,note_on,52,48,480
2,note_on,52,0,240
2,note_on,40,52,0
2,note_on,40,0,240
2,note_on,52,51,480
2,note_on,52,0,240
2,note_on,40,59,0
2,note_on,40,0,240
2,note_on,51,52,480
2,note_on,51,0,240
2,note_on,39,55,0
2,note_on,39,0,240
2,note_on,50,47,480
2,note_on,50,0,240
2,note_on,38,52,0
2,note_on,38,0,240
2,note_on,50,35,480
2,note_on,50,0,240
2,note_on,38,40,0
2,note_on,38,0,240
2,note_on,50,38,480
2,note_on,50,0,240
2,note_on,38,43,0
2,note_on,38,0,240
2,note_on,50,36,480
2,note_on,50,0,240
2,note_on,38,41,0
2,note_on,38,0,240
2,note_on,55,34,1
2,note_on,59,40,0
2,note_on,55,34,239
2,note_on,59,40,0
2,note_on,59,0,1
2,note_on,55,0,0
2,note_on,55,0,239
2,note_on,59,0,0
2,note_on,55,34,0
2,note_on,59,40,0
2,note_on,59,0,240
2,note_on,55,0,0
2,note_on,55,33,0
2,note_on,59,39,0
2,note_on,59,0,240
2,note_on,55,0,0
2,note_on,55,34,0
2,note_on,59,40,0
2,note_on,59,0,240
2,note_on,55,0,0
2,note_on,55,34,0
2,note_on,59,41,0
2,note_on,59,0,240
2,note_on,55,0,0
2,note_on,55,34,0
2,note_on,59,41,0
2,note_on,59,0,240
2,note_on,55,0,0
2,note_on,55,34,0
2,note_on,59,41,0
2,note_on,59,0,240
2,note_on,55,0,0
2,note_on,55,37,0
2,note_on,60,44,0
2,note_on,60,0,480
2,note_on,55,0,0
2,note_on,55,41,0
2,note_on,59,41,0
2,note_on,59,0,240
2,note_on,55,0,0
2,note_on,65,41,240
2,note_on,67,41,0
2,note_on,67,0,120
2,note_on,65,0,0
2,note_on,65,41,120
2,note_on,67,41,0
2,note_on,67,0,120
2,note_on,65,0,0
2,note_on,65,41,120
2,note_on,67,41,0
2,note_on,67,0,120
2,note_on,65,0,0
2,note_on,67,41,120
2,note_on,65,41,0
2,note_on,65,0,120
2,note_on,67,0,0
2,note_on,64,46,120
2,note_on,67,46,0
2,note_on,67,0,720
2,note_on,64,0,0
2,note_on,62,41,0
2,note_on,65,41,0
2,note_on,65,0,240
2,note_on,62,0,0
2,note_on,60,49,0
2,note_on,64,49,0
2,note_on,64,0,480
2,note_on,60,0,0
2,note_on,61,50,0
2,note_on,64,50,0
2,note_on,64,0,480
2,note_on,61,0,0
2,note_on,62,46,0
2,note_on,62,0,480
2,note_on,55,34,1
2,note_on,59,40,0
2,note_on,55,30,239
2,note_on,59,36,0
2,note_on,59,0,1
2,note_on,55,0,0
2,note_on,55,0,239
2,note_on,59,0,0
2,note_on,55,30,0
2,note_on,59,36,0
2,note_on,59,0,240
2,note_on,55,0,0
2,note_on,55,30,0
2,note_on,59,36,0
2,note_on,59,0,240
2,note_on,55,0,0
2,note_on,55,34,0
2,note_on,59,40,0
2,note_on,59,0,240
2,note_on,55,0,0
2,note_on,55,32,0
2,note_on,59,38,0
2,note_on,59,0,240
2,note_on,55,0,0
2,note_on,55,32,0
2,note_on,59,38,0
2,note_on,59,0,240
2,note_on,55,0,0
2,note_on,55,32,0
2,note_on,59,38,0
2,note_on,59,0,240
2,note_on,55,0,0
2,note_on,55,37,0
2,note_on,60,44,0
2,note_on,60,0,480
2,note_on,55,0,0
2,note_on,55,34,0
2,note_on,59,41,0
2,note_on,59,0,240
2,note_on,55,0,0
2,note_on,71,41,240
2,note_on,67,41,0
2,note_on,67,0,240
2,note_on,71,0,0
2,note_on,71,38,0
2,note_on,67,38,0
2,note_on,67,0,240
2,note_on,71,0,0
2,note_on,71,44,0
2,note_on,67,44,0
2,note_on,67,0,240
2,note_on,71,0,0
2,note_on,67,41,0
2,note_on,71,41,0
2,note_on,71,0,240
2,note_on,67,0,0
2,note_on,71,46,0
2,note_on,67,39,0
2,note_on,67,0,240
2,note_on,71,0,0
2,note_on,67,39,0
2,note_on,71,46,0
2,note_on,71,0,240
2,note_on,67,0,0
2,note_on,67,39,0
2,note_on,71,46,0
2,note_on,71,0,240
2,note_on,67,0,0
2,note_on,67,39,0
2,note_on,71,46,0
2,note_on,71,0,240
2,note_on,67,0,0
2,note_on,66,46,0
2,note_on,57,39,0
2,note_on,57,0,240
2,note_on,66,0,0
2,note_on,57,39,0
2,note_on,66,46,0
2,note_on,66,0,240
2,note_on,57,0,0
2,note_on,57,39,0
2,note_on,64,46,0
2,note_on,64,0,240
2,note_on,57,0,0
2,note_on,57,39,0
2,note_on,64,46,0
2,note_on,64,0,240
2,note_on,57,0,0
2,note_on,62,37,0
2,note_on,66,44,0
2,note_on,66,0,240
2,note_on,62,0,0
2,note_on,62,32,0
2,note_on,66,38,0
2,note_on,66,0,240
2,note_on,62,0,0
2,note_on,62,32,0
2,note_on,66,38,0
2,note_on,66,0,240
2,note_on,62,0,0
2,note_on,62,32,0
2,note_on,66,38,0
2,note_on,66,0,240
2,note_on,62,0,0
2,note_on,62,36,0
2,note_on,67,43,0
2,note_on,67,0,240
2,note_on,62,0,0
2,note_on,62,32,0
2,note_on,67,38,0
2,note_on,67,0,240
2,note_on,62,0,0
2,note_on,62,32,0
2,note_on,67,38,0
2,note_on,67,0,240
2,note_on,62,0,0
2,note_on,62,32,0
2,note_on,67,38,0
2,note_on,67,0,240
2,note_on,62,0,0
2,note_on,62,37,0
2,note_on,66,44,0
2,note_on,66,0,240
2,note_on,62,0,0
2,note_on,62,32,0
2,note_on,66,38,0
2,note_on,66,0,240
2,note_on,62,0,0
2,note_on,62,32,0
2,note_on,66,38,0
2,note_on,66,0,240
2,note_on,62,0,0
2,note_on,62,32,0
2,note_on,66,38,0
2,note_on,66,0,240
2,note_on,62,0,0
2,note_on,62,37,0
2,note_on,67,44,0
2,note_on,67,0,240
2,note_on,62,0,0
2,note_on,62,32,0
2,note_on,67,38,0
2,note_on,67,0,240
2,note_on,62,0,0
2,note_on,62,32,0
2,note_on,67,38,0
2,note_on,67,0,240
2,note_on,62,0,0
2,note_on,62,32,0
2,note_on,67,38,0
2,note_on,67,0,240
2,note_on,62,0,0
2,note_on,62,38,0
2,note_on,66,45,0
2,note_on,66,0,240
2,note_on,62,0,0
2,note_on,62,34,0
2,note_on,66,41,0
2,note_on,66,0,240
2,note_on,62,0,0
2,note_on,62,38,0
2,note_on,66,45,0
2,note_on,66,0,240
2,note_on,62,0,0
2,note_on,62,34,0
2,note_on,66,40,0
2,note_on,66,0,120
2,note_on,62,0,0
2,note_on,62,40,120
2,note_on,66,48,0
2,note_on,66,0,480
2,note_on,62,0,0
2,note_on,55,34,1
2,note_on,59,40,0
2,note_on,55,30,239
2,note_on,59,36,0
2,note_on,59,0,1
2,note_on,55,0,0
2,note_on,55,0,239
2,note_on,59,0,0
2,note_on,55,30,0
2,note_on,59,36,0
2,note_on,59,0,240
2,note_on,55,0,0
2,note_on,55,30,0
2,note_on,59,36,0
2,note_on,59,0,240
2,note_on,55,0,0
2,note_on,55,34,0
2,note_on,59,40,0
2,note_on,59,0,240
2,note_on,55,0,0
2,note_on,55,32,0
2,note_on,59,38,0
2,note_on,59,0,240
2,note_on,55,0,0
2,note_on,55,32,0
2,note_on,59,38,0
2,note_on,59,0,240
2,note_on,55,0,0
2,note_on,55,32,0
2,note_on,59,38,0
2,note_on,59,0,240
2,note_on,55,0,0
2,note_on,55,37,0
2,note_on,60,44,0
2,note_on,60,0,480
2,note_on,55,0,0
2,note_on,55,34,0
2,note_on,59,41,0
2,note_on,59,0,240
2,note_on,55,0,0
2,note_on,65,38,240
2,note_on,65,0,120
2,note_on,67,33,0
2,note_on,67,0,120
2,note_on,65,38,0
2,note_on,65,0,120
2,note_on,67,33,0
2,note_on,67,0,120
2,note_on,65,38,0
2,note_on,65,0,120
2,note_on,67,34,0
2,note_on,67,0,120
2,note_on,65,38,0
2,note_on,65,0,120
2,note_on,67,33,0
2,note_on,67,0,120
2,note_on,64,52,0
2,note_on,64,0,480
2,note_on,64,48,240
2,note_on,64,0,120
2,note_on,62,48,0
2,note_on,62,0,120
2,note_on,60,52,0
2,note_on,60,0,480
2,note_on,61,52,240
2,note_on,61,0,240
2,note_on,62,58,0
2,note_on,62,0,960
2,note_on,50,52,0
2,note_on,50,0,480
2,note_on,55,34,480
2,note_on,59,40,0
2,note_on,59,0,240
2,note_on,55,0,0
2,note_on,55,30,0
2,note_on,59,36,0
2,note_on,59,0,240
2,note_on,55,0,0
2,note_on,55,30,0
2,note_on,59,36,0
2,note_on,59,0,240
2,note_on,55,0,0
2,note_on,55,30,0
2,note_on,59,36,0
2,note_on,59,0,240
2,note_on,55,0,0
2,note_on,55,34,0
2,note_on,59,40,0
2,note_on,59,0,240
2,note_on,55,0,0
2,note_on,55,32,0
2,note_on,59,38,0
2,note_on,59,0,240
2,note_on,55,0,0
2,note_on,55,32,0
2,note_on,59,38,0
2,note_on,59,0,240
2,note_on,55,0,0
2,note_on,55,32,0
2,note_on,59,38,0
2,note_on,59,0,240
2,note_on,55,0,0
2,note_on,55,37,0
2,note_on,60,44,0
2,note_on,60,0,480
2,note_on,55,0,0
2,note_on,55,34,0
2,note_on,59,41,0
2,note_on,59,0,240
2,note_on,55,0,0
2,note_on,71,41,240
2,note_on,67,41,0
2,note_on,67,0,240
2,note_on,71,0,0
2,note_on,71,38,0
2,note_on,67,38,0
2,note_on,67,0,240
2,note_on,71,0,0
2,note_on,71,44,0
2,note_on,67,44,0
2,note_on,67,0,240
2,note_on,71,0,0
2,note_on,67,41,0
2,note_on,71,41,0
2,note_on,71,0,240
2,note_on,67,0,0
2,note_on,71,46,0
2,note_on,67,39,0
2,note_on,67,0,240
2,note_on,71,0,0
2,note_on,67,39,0
2,note_on,71,46,0
2,note_on,71,0,240
2,note_on,67,0,0
2,note_on,67,39,0
2,note_on,71,46,0
2,note_on,71,0,240
2,note_on,67,0,0
2,note_on,67,39,0
2,note_on,71,46,0
2,note_on,71,0,240
2,note_on,67,0,0
2,note_on,66,46,0
2,note_on,57,39,0
2,note_on,57,0,240
2,note_on,66,0,0
2,note_on,57,39,0
2,note_on,66,46,0
2,note_on,66,0,240
2,note_on,57,0,0
2,note_on,57,39,0
2,note_on,64,46,0
2,note_on,64,0,240
2,note_on,57,0,0
2,note_on,57,39,0
2,note_on,64,46,0
2,note_on,64,0,240
2,note_on,57,0,0
2,note_on,62,37,0
2,note_on,66,44,0
2,note_on,66,0,240
2,note_on,62,0,0
2,note_on,62,32,0
2,note_on,66,38,0
2,note_on,66,0,240
2,note_on,62,0,0
2,note_on,62,32,0
2,note_on,66,38,0
2,note_on,66,0,240
2,note_on,62,0,0
2,note_on,62,32,0
2,note_on,66,38,0
2,note_on,66,0,240
2,note_on,62,0,0
2,note_on,62,36,0
2,note_on,67,43,0
2,note_on,67,0,240
2,note_on,62,0,0
2,note_on,62,32,0
2,note_on,67,38,0
2,note_on,67,0,240
2,note_on,62,0,0
2,note_on,62,32,0
2,note_on,67,38,0
2,note_on,67,0,240
2,note_on,62,0,0
2,note_on,62,32,0
2,note_on,67,38,0
2,note_on,67,0,240
2,note_on,62,0,0
2,note_on,62,37,0
2,note_on,66,44,0
2,note_on,66,0,240
2,note_on,62,0,0
2,note_on,62,32,0
2,note_on,66,38,0
2,note_on,66,0,240
2,note_on,62,0,0
2,note_on,62,32,0
2,note_on,66,38,0
2,note_on,66,0,240
2,note_on,62,0,0
2,note_on,62,32,0
2,note_on,66,38,0
2,note_on,66,0,240
2,note_on,62,0,0
2,note_on,62,37,0
2,note_on,67,44,0
2,note_on,67,0,240
2,note_on,62,0,0
2,note_on,62,32,0
2,note_on,67,38,0
2,note_on,67,0,240
2,note_on,62,0,0
2,note_on,62,32,0
2,note_on,67,38,0
2,note_on,67,0,240
2,note_on,62,0,0
2,note_on,62,32,0
2,note_on,67,38,0
2,note_on,67,0,240
2,note_on,62,0,0
2,note_on,62,38,0
2,note_on,66,45,0
2,note_on,66,0,240
2,note_on,62,0,0
2,note_on,62,34,0
2,note_on,66,41,0
2,note_on,66,0,240
2,note_on,62,0,0
2,note_on,62,38,0
2,note_on,66,45,0
2,note_on,66,0,240
2,note_on,62,0,0
2,note_on,62,34,0
2,note_on,66,40,0
2,note_on,66,0,120
2,note_on,62,0,0
2,note_on,62,40,120
2,note_on,66,48,0
2,note_on,66,0,480
2,note_on,62,0,0
2,note_on,58,45,480
2,note_on,58,0,120
2,note_on,65,39,0
2,note_on,65,0,120
2,note_on,62,45,0
2,note_on,62,0,120
2,note_on,65,38,0
2,note_on,65,0,120
2,note_on,58,45,0
2,note_on,58,0,120
2,note_on,65,41,0
2,note_on,65,0,120
2,note_on,62,45,0
2,note_on,62,0,120
2,note_on,65,39,0
2,note_on,65,0,120
2,note_on,60,45,0
2,note_on,60,0,120
2,note_on,65,39,0
2,note_on,65,0,120
2,note_on,63,45,0
2,note_on,63,0,120
2,note_on,65,39,0
2,note_on,65,0,120
2,note_on,60,45,0
2,note_on,60,0,120
2,note_on,65,41,0
2,note_on,65,0,120
2,note_on,63,45,0
2,note_on,63,0,120
2,note_on,65,40,0
2,note_on,65,0,120
2,note_on,58,45,0
2,note_on,58,0,120
2,note_on,65,40,0
2,note_on,65,0,120
2,note_on,62,45,0
2,note_on,62,0,120
2,note_on,65,40,0
2,note_on,65,0,120
2,note_on,58,45,0
2,note_on,58,0,120
2,note_on,65,40,0
2,note_on,65,0,120
2,note_on,62,45,0
2,note_on,62,0,120
2,note_on,65,39,0
2,note_on,65,0,120
2,note_on,57,45,0
2,note_on,57,0,120
2,note_on,62,39,0
2,note_on,62,0,120
2,note_on,60,45,0
2,note_on,60,0,120
2,note_on,62,41,0
2,note_on,62,0,120
2,note_on,57,45,0
2,note_on,57,0,120
2,note_on,62,40,0
2,note_on,62,0,120
2,note_on,60,45,0
2,note_on,60,0,120
2,note_on,62,40,0
2,note_on,62,0,120
2,note_on,55,45,0
2,note_on,55,0,120
2,note_on,62,40,0
2,note_on,62,0,120
2,note_on,58,45,0
2,note_on,58,0,120
2,note_on,62,39,0
2,note_on,62,0,120
2,note_on,55,45,0
2,note_on,55,0,120
2,note_on,62,40,0
2,note_on,62,0,120
2,note_on,58,45,0
2,note_on,58,0,120
2,note_on,62,40,0
2,note_on,62,0,120
2,note_on,51,45,0
2,note_on,51,0,120
2,note_on,55,39,0
2,note_on,55,0,120
2,note_on,54,45,0
2,note_on,54,0,120
2,note_on,55,39,0
2,note_on,55,0,120
2,note_on,51,45,0
2,note_on,51,0,120
2,note_on,55,39,0
2,note_on,55,0,120
2,note_on,54,45,0
2,note_on,54,0,120
2,note_on,55,39,0
2,note_on,55,0,120
2,note_on,50,58,0
2,note_on,50,0,480
2,note_on,38,60,480
2,note_on,38,0,120
2,note_on,50,60,0
2,note_on,50,0,120
2,note_on,36,60,0
2,note_on,36,0,120
2,note_on,48,59,0
2,note_on,48,0,120
2,note_on,35,58,0
2,note_on,35,0,120
2,note_on,47,57,0
2,note_on,47,0,120
2,note_on,33,56,0
2,note_on,33,0,120
2,note_on,45,56,0
2,note_on,45,0,120
2,note_on,31,65,0
2,note_on,31,0,480
2,note_on,55,30,0
2,note_on,59,36,0
2,note_on,59,0,240
2,note_on,55,0,0
2,note_on,55,30,0
2,note_on,59,36,0
2,note_on,59,0,240
2,note_on,55,0,0
2,note_on,55,34,0
2,note_on,59,40,0
2,note_on,59,0,240
2,note_on,55,0,0
2,note_on,55,32,0
2,note_on,59,38,0
2,note_on,59,0,240
2,note_on,55,0,0
2,note_on,55,32,0
2,note_on,59,38,0
2,note_on,59,0,240
2,note_on,55,0,0
2,note_on,55,32,0
2,note_on,59,38,0
2,note_on,59,0,240
2,note_on,55,0,0
2,note_on,55,37,0
2,note_on,60,44,0
2,note_on,60,0,480
2,note_on,55,0,0
2,note_on,55,34,0
2,note_on,59,41,0
2,note_on,59,0,240
2,note_on,55,0,0
2,note_on,74,41,240
2,note_on,68,41,0
2,note_on,68,0,240
2,note_on,74,0,0
2,note_on,74,38,0
2,note_on,68,38,0
2,note_on,68,0,240
2,note_on,74,0,0
2,note_on,74,44,0
2,note_on,68,44,0
2,note_on,68,0,240
2,note_on,74,0,0
2,note_on,68,41,0
2,note_on,74,41,0
2,note_on,74,0,240
2,note_on,68,0,0
2,note_on,69,50,0
2,note_on,72,50,0
2,note_on,72,0,480
2,note_on,69,0,0
2,note_on,72,41,480
2,note_on,66,41,0
2,note_on,66,0,240
2,note_on,72,0,0
2,note_on,72,38,0
2,note_on,66,38,0
2,note_on,66,0,240
2,note_on,72,0,0
2,note_on,72,44,0
2,note_on,66,44,0
2,note_on,66,0,240
2,note_on,72,0,0
2,note_on,66,41,0
2,note_on,72,41,0
2,note_on,72,0,240
2,note_on,66,0,0
2,note_on,67,50,0
2,note_on,71,50,0
2,note_on,71,0,480
2,note_on,67,0,0
2,note_on,64,34,3360
2,note_on,67,34,0
2,note_on,67,0,480
2,note_on,64,0,0
2,note_on,63,45,480
2,note_on,63,0,120
2,note_on,67,38,0
2,note_on,67,0,120
2,note_on,63,45,0
2,note_on,63,0,120
2,note_on,67,38,0
2,note_on,67,0,120
2,note_on,63,45,0
2,note_on,63,0,120
2,note_on,67,39,0
2,note_on,67,0,120
2,note_on,63,45,0
2,note_on,63,0,120
2,note_on,67,39,0
2,note_on,67,0,120
2,note_on,62,50,0
2,note_on,66,50,0
2,note_on,66,0,480
2,note_on,62,0,0
2,note_on,67,46,0
2,note_on,67,0,480
2,note_on,60,49,0
2,note_on,72,49,0
2,note_on,72,0,480
2,note_on,60,0,0
2,note_on,62,47,0
2,note_on,72,47,0
2,note_on,72,0,480
2,note_on,62,0,0
2,note_on,67,39,0
2,note_on,71,47,0
2,note_on,71,0,240
2,note_on,67,0,0
2,note_on,67,34,0
2,note_on,71,40,0
2,note_on,71,0,240
2,note_on,67,0,0
2,note_on,67,36,0
2,note_on,71,43,0
2,note_on,71,0,240
2,note_on,67,0,0
2,note_on,67,34,0
2,note_on,71,40,0
2,note_on,71,0,240
2,note_on,67,0,0
2,note_on,67,36,0
2,note_on,72,43,0
2,note_on,72,0,240
2,note_on,67,0,0
2,note_on,67,31,0
2,note_on,72,37,0
2,note_on,72,0,240
2,note_on,67,0,0
2,note_on,67,36,0
2,note_on,72,43,0
2,note_on,72,0,240
2,note_on,67,0,0
2,note_on,67,31,0
2,note_on,72,37,0
2,note_on,72,0,240
2,note_on,67,0,0
2,note_on,67,39,0
2,note_on,71,47,0
2,note_on,71,0,240
2,note_on,67,0,0
2,note_on,67,34,0
2,note_on,71,40,0
2,note_on,71,0,240
2,note_on,67,0,0
2,note_on,67,36,0
2,note_on,71,43,0
2,note_on,71,0,240
2,note_on,67,0,0
2,note_on,67,34,0
2,note_on,71,40,0
2,note_on,71,0,240
2,note_on,67,0,0
2,note_on,67,36,0
2,note_on,72,43,0
2,note_on,72,0,240
2,note_on,67,0,0
2,note_on,67,31,0
2,note_on,72,37,0
2,note_on,72,0,240
2,note_on,67,0,0
2,note_on,67,36,0
2,note_on,72,43,0
2,note_on,72,0,240
2,note_on,67,0,0
2,note_on,67,31,0
2,note_on,72,37,0
2,note_on,72,0,240
2,note_on,67,0,0
2,note_on,67,39,0
2,note_on,71,47,0
2,note_on,71,0,480
2,note_on,67,0,0
2,note_on,67,56,120
2,note_on,67,0,120
2,note_on,62,55,0
2,note_on,62,0,120
2,note_on,59,54,0
2,note_on,59,0,120
2,note_on,55,60,0
2,note_on,55,0,240
2,note_on,58,45,720
2,note_on,58,0,120
2,note_on,65,39,0
2,note_on,65,0,120
2,note_on,62,45,0
2,note_on,62,0,120
2,note_on,65,38,0
2,note_on,65,0,120
2,note_on,58,45,0
2,note_on,58,0,120
2,note_on,65,41,0
2,note_on,65,0,120
2,note_on,62,45,0
2,note_on,62,0,120
2,note_on,65,39,0
2,note_on,65,0,120
2,note_on,60,45,0
2,note_on,60,0,120
2,note_on,65,39,0
2,note_on,65,0,120
2,note_on,63,45,0
2,note_on,63,0,120
2,note_on,65,39,0
2,note_on,65,0,120
2,note_on,60,45,0
2,note_on,60,0,120
2,note_on,65,41,0
2,note_on,65,0,120
2,note_on,63,45,0
2,note_on,63,0,120
2,note_on,65,40,0
2,note_on,65,0,120
2,note_on,58,45,0
2,note_on,58,0,120
2,note_on,65,40,0
2,note_on,65,0,120
2,note_on,62,45,0
2,note_on,62,0,120
2,note_on,65,40,0
2,note_on,65,0,120
2,note_on,58,45,0
2,note_on,58,0,120
2,note_on,65,40,0
2,note_on,65,0,120
2,note_on,62,45,0
2,note_on,62,0,120
2,note_on,65,39,0
2,note_on,65,0,120
2,note_on,57,45,0
2,note_on,57,0,120
2,note_on,62,39,0
2,note_on,62,0,120
2,note_on,60,45,0
2,note_on,60,0,120
2,note_on,62,41,0
2,note_on,62,0,120
2,note_on,57,45,0
2,note_on,57,0,120
2,note_on,62,40,0
2,note_on,62,0,120
2,note_on,60,45,0
2,note_on,60,0,120
2,note_on,62,40,0
2,note_on,62,0,120
2,note_on,55,45,0
2,note_on,55,0,120
2,note_on,62,40,0
2,note_on,62,0,120
2,note_on,58,45,0
2,note_on,58,0,120
2,note_on,62,39,0
2,note_on,62,0,120
2,note_on,55,45,0
2,note_on,55,0,120
2,note_on,62,40,0
2,note_on,62,0,120
2,note_on,58,45,0
2,note_on,58,0,120
2,note_on,62,40,0
2,note_on,62,0,120
2,note_on,51,45,0
2,note_on,51,0,120
2,note_on,55,39,0
2,note_on,55,0,120
2,note_on,54,45,0
2,note_on,54,0,120
2,note_on,55,39,0
2,note_on,55,0,120
2,note_on,51,45,0
2,note_on,51,0,120
2,note_on,55,39,0
2,note_on,55,0,120
2,note_on,54,45,0
2,note_on,54,0,120
2,note_on,55,39,0
2,note_on,55,0,120
2,note_on,50,58,0
2,note_on,50,0,480
2,note_on,38,58,480
2,note_on,38,0,120
2,note_on,50,57,0
2,note_on,50,0,120
2,note_on,36,57,0
2,note_on,36,0,120
2,note_on,48,56,0
2,note_on,48,0,120
2,note_on,35,56,0
2,note_on,35,0,120
2,note_on,47,55,0
2,note_on,47,0,120
2,note_on,33,55,0
2,note_on,33,0,120
2,note_on,45,56,0
2,note_on,45,0,120
2,note_on,31,65,0
2,note_on,31,0,480
2,note_on,55,30,0
2,note_on,59,36,0
2,note_on,59,0,240
2,note_on,55,0,0
2,note_on,55,30,0
2,note_on,59,36,0
2,note_on,59,0,240
2,note_on,55,0,0
2,note_on,55,34,0
2,note_on,59,40,0
2,note_on,59,0,240
2,note_on,55,0,0
2,note_on,55,32,0
2,note_on,59,38,0
2,note_on,59,0,240
2,note_on,55,0,0
2,note_on,55,32,0
2,note_on,59,38,0
2,note_on,59,0,240
2,note_on,55,0,0
2,note_on,55,32,0
2,note_on,59,38,0
2,note_on,59,0,240
2,note_on,55,0,0
2,note_on,55,37,0
2,note_on,60,44,0
2,note_on,60,0,480
2,note_on,55,0,0
2,note_on,55,34,0
2,note_on,59,41,0
2,note_on,59,0,240
2,note_on,55,0,0
2,note_on,74,41,240
2,note_on,68,41,0
2,note_on,68,0,120
2,note_on,74,0,0
2,note_on,74,38,120
2,note_on,68,38,0
2,note_on,68,0,120
2,note_on,74,0,0
2,note_on,74,44,120
2,note_on,68,44,0
2,note_on,68,0,120
2,note_on,74,0,0
2,note_on,68,41,120
2,note_on,74,41,0
2,note_on,74,0,120
2,note_on,68,0,0
2,note_on,69,50,120
2,note_on,72,50,0
2,note_on,72,0,480
2,note_on,69,0,0
2,note_on,72,41,480
2,note_on,66,41,0
2,note_on,66,0,120
2,note_on,72,0,0
2,note_on,72,38,120
2,note_on,66,38,0
2,note_on,66,0,120
2,note_on,72,0,0
2,note_on,72,44,120
2,note_on,66,44,0
2,note_on,66,0,120
2,note_on,72,0,0
2,note_on,66,41,120
2,note_on,72,41,0
2,note_on,72,0,120
2,note_on,66,0,0
2,note_on,67,50,120
2,note_on,71,50,0
2,note_on,71,0,480
2,note_on,67,0,0
2,note_on,64,34,3360
2,note_on,67,34,0
2,note_on,67,0,480
2,note_on,64,0,0
2,note_on,63,45,480
2,note_on,63,0,120
2,note_on,67,38,0
2,note_on,67,0,120
2,note_on,63,45,0
2,note_on,63,0,120
2,note_on,67,38,0
2,note_on,67,0,120
2,note_on,63,45,0
2,note_on,63,0,120
2,note_on,67,39,0
2,note_on,67,0,120
2,note_on,63,45,0
2,note_on,63,0,120
2,note_on,67,39,0
2,note_on,67,0,120
2,note_on,62,50,0
2,note_on,66,50,0
2,note_on,66,0,480
2,note_on,62,0,0
2,note_on,67,46,0
2,note_on,67,0,480
2,note_on,60,49,0
2,note_on,72,49,0
2,note_on,72,0,480
2,note_on,60,0,0
2,note_on,62,47,0
2,note_on,72,47,0
2,note_on,72,0,480
2,note_on,62,0,0
2,note_on,67,39,0
2,note_on,71,47,0
2,note_on,71,0,240
2,note_on,67,0,0
2,note_on,67,34,0
2,note_on,71,40,0
2,note_on,71,0,240
2,note_on,67,0,0
2,note_on,67,36,0
2,note_on,71,43,0
2,note_on,71,0,240
2,note_on,67,0,0
2,note_on,67,34,0
2,note_on,71,40,0
2,note_on,71,0,240
2,note_on,67,0,0
2,note_on,67,36,0
2,note_on,72,43,0
2,note_on,72,0,240
2,note_on,67,0,0
2,note_on,67,31,0
2,note_on,72,37,0
2,note_on,72,0,240
2,note_on,67,0,0
2,note_on,67,36,0
2,note_on,72,43,0
2,note_on,72,0,240
2,note_on,67,0,0
2,note_on,67,31,0
2,note_on,72,37,0
2,note_on,72,0,240
2,note_on,67,0,0
2,note_on,67,39,0
2,note_on,71,47,0
2,note_on,71,0,240
2,note_on,67,0,0
2,note_on,67,34,0
2,note_on,71,40,0
2,note_on,71,0,240
2,note_on,67,0,0
2,note_on,67,36,0
2,note_on,71,43,0
2,note_on,71,0,240
2,note_on,67,0,0
2,note_on,67,34,0
2,note_on,71,40,0
2,note_on,71,0,240
2,note_on,67,0,0
2,note_on,67,36,0
2,note_on,72,43,0
2,note_on,72,0,240
2,note_on,67,0,0
2,note_on,67,31,0
2,note_on,72,37,0
2,note_on,72,0,240
2,note_on,67,0,0
2,note_on,67,36,0
2,note_on,72,43,0
2,note_on,72,0,240
2,note_on,67,0,0
2,note_on,67,31,0
2,note_on,72,37,0
2,note_on,72,0,240
2,note_on,67,0,0
2,note_on,67,39,0
2,note_on,71,47,0
2,note_on,71,0,480
2,note_on,67,0,0
2,note_on,67,56,120
2,note_on,67,0,120
2,note_on,62,55,0
2,note_on,62,0,120
2,note_on,59,54,0
2,note_on,59,0,120
2,note_on,55,60,0
2,note_on,55,0,240
