Track,Message Type,Note,Velocity,Time
1,note_on,67,46,1
1,note_on,67,0,240
1,note_on,67,49,0
1,note_on,67,0,420
1,note_on,71,47,0
1,note_on,71,0,60
1,note_on,69,47,0
1,note_on,69,0,240
1,note_on,62,49,0
1,note_on,62,0,240
1,note_on,64,45,0
1,note_on,64,0,240
1,note_on,66,45,0
1,note_on,66,0,120
1,note_on,67,45,0
1,note_on,67,0,30
1,note_on,66,45,0
1,note_on,66,0,30
1,note_on,64,45,0
1,note_on,64,0,30
1,note_on,66,45,0
1,note_on,66,0,30
1,note_on,67,46,0
1,note_on,67,0,90
1,note_on,67,45,150
1,note_on,67,0,90
1,note_on,67,45,150
1,note_on,67,0,90
1,note_on,67,45,150
1,note_on,67,0,480
1,note_on,62,45,0
1,note_on,69,45,0
1,note_on,69,0,180
1,note_on,72,45,0
1,note_on,72,0,60
1,note_on,62,0,0
1,note_on,62,41,0
1,note_on,71,49,0
1,note_on,71,0,240
1,note_on,69,45,0
1,note_on,69,0,240
1,note_on,71,45,0
1,note_on,71,0,240
1,note_on,62,0,0
1,note_on,66,44,0
1,note_on,62,36,0
1,note_on,74,49,0
1,note_on,74,0,240
1,note_on,72,45,0
1,note_on,72,0,240
1,note_on,66,0,0
1,note_on,67,45,0
1,note_on,71,45,0
1,note_on,71,0,240
1,note_on,67,0,0
1,note_on,62,0,0
1,note_on,67,47,0
1,note_on,71,47,0
1,note_on,71,0,240
1,note_on,67,0,0
1,note_on,66,45,0
1,note_on,69,45,0
1,note_on,69,0,240
1,note_on,66,0,0
1,note_on,66,45,0
1,note_on,69,45,0
1,note_on,69,0,240
1,note_on,66,0,0
1,note_on,66,45,0
1,note_on,69,45,0
1,note_on,69,0,480
1,note_on,66,0,0
1,note_on,68,46,0
1,note_on,71,46,0
1,note_on,71,0,240
1,note_on,68,0,0
1,note_on,69,49,0
1,note_on,72,49,0
1,note_on,72,0,240
1,note_on,69,0,0
1,note_on,71,51,0
1,note_on,74,51,0
1,note_on,74,0,240
1,note_on,71,0,0
1,note_on,72,51,0
1,note_on,76,51,0
1,note_on,76,0,240
1,note_on,72,0,0
1,note_on,72,51,0
1,note_on,76,51,0
1,note_on,76,0,480
1,note_on,72,0,0
1,note_on,72,52,0
1,note_on,69,52,0
1,note_on,72,0,80
1,note_on,71,42,0
1,note_on,71,0,80
1,note_on,72,44,0
1,note_on,72,0,80
1,note_on,69,0,0
1,note_on,67,50,0
1,note_on,71,50,0
1,note_on,71,0,240
1,note_on,67,0,0
1,note_on,69,49,0
1,note_on,72,49,0
1,note_on,72,0,240
1,note_on,69,0,0
1,note_on,71,49,0
1,note_on,74,49,0
1,note_on,74,0,240
1,note_on,71,0,0
1,note_on,67,51,0
1,note_on,72,51,0
1,note_on,72,0,240
1,note_on,74,51,0
1,note_on,74,0,240
1,note_on,76,51,0
1,note_on,76,0,240
1,note_on,74,53,0
1,note_on,74,0,240
1,note_on,67,0,0
1,note_on,79,57,0
1,note_on,79,0,240
1,note_on,79,57,0
1,note_on,79,0,240
1,note_on,81,60,0
1,note_on,81,0,120
1,note_on,79,53,0
1,note_on,79,0,120
1,note_on,78,57,0
1,note_on,78,0,120
1,note_on,76,50,0
1,note_on,76,0,120
1,note_on,74,55,0
1,note_on,74,0,120
1,note_on,73,49,0
1,note_on,73,0,120
1,note_on,76,47,0
1,note_on,76,0,240
1,note_on,74,44,0
1,note_on,74,0,240
1,note_on,74,44,0
1,note_on,74,0,240
1,note_on,74,44,0
1,note_on,74,0,360
1,note_on,71,44,0
1,note_on,71,0,120
1,note_on,72,44,0
1,note_on,72,0,120
1,note_on,69,44,0
1,note_on,69,0,120
1,note_on,67,49,0
1,note_on,67,0,420
1,note_on,71,47,0
1,note_on,71,0,60
1,note_on,69,47,0
1,note_on,69,0,240
1,note_on,62,49,0
1,note_on,62,0,240
1,note_on,64,45,0
1,note_on,64,0,240
1,note_on,66,45,0
1,note_on,66,0,120
1,note_on,67,45,0
1,note_on,67,0,30
1,note_on,66,45,0
1,note_on,66,0,30
1,note_on,64,45,0
1,note_on,64,0,30
1,note_on,66,45,0
1,note_on,66,0,30
1,note_on,67,46,0
1,note_on,67,0,90
1,note_on,67,45,150
1,note_on,67,0,90
1,note_on,67,45,150
1,note_on,67,0,90
1,note_on,67,45,150
1,note_on,67,0,480
1,note_on,62,45,0
1,note_on,69,45,0
1,note_on,69,0,180
1,note_on,72,45,0
1,note_on,72,0,60
1,note_on,62,0,0
1,note_on,62,41,0
1,note_on,71,49,0
1,note_on,71,0,240
1,note_on,69,45,0
1,note_on,69,0,240
1,note_on,71,45,0
1,note_on,71,0,240
1,note_on,62,0,0
1,note_on,66,44,0
1,note_on,62,36,0
1,note_on,74,49,0
1,note_on,74,0,240
1,note_on,72,45,0
1,note_on,72,0,240
1,note_on,66,0,0
1,note_on,67,45,0
1,note_on,71,45,0
1,note_on,71,0,240
1,note_on,67,0,0
1,note_on,62,0,0
1,note_on,67,47,0
1,note_on,71,47,0
1,note_on,71,0,240
1,note_on,67,0,0
1,note_on,66,45,0
1,note_on,69,45,0
1,note_on,69,0,240
1,note_on,66,0,0
1,note_on,66,45,0
1,note_on,69,45,0
1,note_on,69,0,240
1,note_on,66,0,0
1,note_on,66,45,0
1,note_on,69,45,0
1,note_on,69,0,480
1,note_on,66,0,0
1,note_on,68,46,0
1,note_on,71,46,0
1,note_on,71,0,240
1,note_on,68,0,0
1,note_on,69,49,0
1,note_on,72,49,0
1,note_on,72,0,240
1,note_on,69,0,0
1,note_on,71,51,0
1,note_on,74,51,0
1,note_on,74,0,240
1,note_on,71,0,0
1,note_on,72,51,0
1,note_on,76,51,0
1,note_on,76,0,240
1,note_on,72,0,0
1,note_on,72,51,0
1,note_on,76,51,0
1,note_on,76,0,480
1,note_on,72,0,0
1,note_on,72,53,0
1,note_on,69,53,0
1,note_on,72,0,80
1,note_on,71,46,0
1,note_on,71,0,80
1,note_on,72,46,0
1,note_on,72,0,80
1,note_on,69,0,0
1,note_on,67,50,0
1,note_on,71,50,0
1,note_on,71,0,240
1,note_on,67,0,0
1,note_on,69,49,0
1,note_on,72,49,0
1,note_on,72,0,240
1,note_on,69,0,0
1,note_on,71,49,0
1,note_on,74,49,0
1,note_on,74,0,240
1,note_on,71,0,0
1,note_on,67,51,0
1,note_on,72,51,0
1,note_on,72,0,240
1,note_on,74,51,0
1,note_on,74,0,240
1,note_on,76,51,0
1,note_on,76,0,240
1,note_on,74,53,0
1,note_on,74,0,240
1,note_on,67,0,0
1,note_on,79,57,0
1,note_on,79,0,240
1,note_on,79,57,0
1,note_on,79,0,240
1,note_on,81,60,0
1,note_on,81,0,120
1,note_on,79,53,0
1,note_on,79,0,120
1,note_on,78,57,0
1,note_on,78,0,120
1,note_on,76,52,0
1,note_on,76,0,120
1,note_on,74,55,0
1,note_on,74,0,120
1,note_on,73,47,0
1,note_on,73,0,120
1,note_on,76,47,0
1,note_on,76,0,240
1,note_on,74,44,0
1,note_on,74,0,240
1,note_on,74,44,0
1,note_on,74,0,240
1,note_on,74,44,0
1,note_on,74,0,480
1,note_on,79,53,0
1,note_on,79,0,240
1,note_on,79,53,0
1,note_on,79,0,420
1,note_on,83,47,0
1,note_on,83,0,60
1,note_on,81,51,0
1,note_on,81,0,240
1,note_on,79,53,0
1,note_on,79,0,240
1,note_on,78,49,0
1,note_on,78,0,240
1,note_on,76,49,0
1,note_on,76,0,240
1,note_on,74,50,0
1,note_on,74,0,90
1,note_on,74,47,150
1,note_on,74,0,90
1,note_on,74,47,150
1,note_on,74,0,90
1,note_on,74,47,150
1,note_on,74,0,480
1,note_on,75,51,0
1,note_on,75,0,240
1,note_on,76,52,0
1,note_on,76,0,240
1,note_on,78,54,0
1,note_on,78,0,120
1,note_on,79,45,0
1,note_on,79,0,30
1,note_on,78,45,0
1,note_on,78,0,30
1,note_on,76,45,0
1,note_on,76,0,30
1,note_on,78,45,0
1,note_on,78,0,30
1,note_on,79,57,0
1,note_on,79,0,240
1,note_on,69,52,0
1,note_on,69,0,240
1,note_on,71,50,0
1,note_on,71,0,240
1,note_on,73,46,0
1,note_on,73,0,120
1,note_on,74,39,0
1,note_on,74,0,30
1,note_on,73,39,0
1,note_on,73,0,30
1,note_on,71,39,0
1,note_on,71,0,30
1,note_on,73,39,0
1,note_on,73,0,30
1,note_on,74,46,0
1,note_on,74,0,120
1,note_on,74,42,360
1,note_on,74,0,120
1,note_on,74,43,120
1,note_on,74,0,120
1,note_on,74,42,360
1,note_on,74,0,120
1,note_on,74,45,120
1,note_on,74,0,120
1,note_on,74,44,360
1,note_on,74,0,120
1,note_on,74,45,120
1,note_on,74,0,120
1,note_on,74,41,360
1,note_on,74,0,120
1,note_on,74,43,120
1,note_on,74,0,120
1,note_on,74,37,120
1,note_on,78,37,0
1,note_on,78,0,240
1,note_on,74,0,0
1,note_on,76,36,0
1,note_on,79,36,0
1,note_on,79,0,240
1,note_on,76,0,0
1,note_on,81,37,240
1,note_on,78,37,0
1,note_on,78,0,240
1,note_on,81,0,0
1,note_on,79,36,0
1,note_on,83,36,0
1,note_on,83,0,240
1,note_on,79,0,0
1,note_on,81,40,240
1,note_on,84,40,0
1,note_on,84,0,240
1,note_on,81,0,0
1,note_on,83,36,0
1,note_on,79,36,0
1,note_on,79,0,240
1,note_on,83,0,0
1,note_on,72,47,240
1,note_on,81,47,0
1,note_on,81,0,240
1,note_on,72,0,0
1,note_on,71,47,0
1,note_on,79,47,0
1,note_on,79,0,240
1,note_on,71,0,0
1,note_on,72,45,0
1,note_on,78,45,0
1,note_on,78,0,1080
1,note_on,72,0,0
1,note_on,71,43,0
1,note_on,71,0,60
1,note_on,72,45,0
1,note_on,72,0,60
1,note_on,74,47,0
1,note_on,74,0,60
1,note_on,72,45,0
1,note_on,72,0,60
1,note_on,71,45,0
1,note_on,71,0,60
1,note_on,69,44,0
1,note_on,69,0,60
1,note_on,67,49,0
1,note_on,67,0,420
1,note_on,71,47,0
1,note_on,71,0,60
1,note_on,69,47,0
1,note_on,69,0,240
1,note_on,62,49,0
1,note_on,62,0,240
1,note_on,64,45,0
1,note_on,64,0,240
1,note_on,66,45,0
1,note_on,66,0,120
1,note_on,67,45,0
1,note_on,66,45,30
1,note_on,67,0,10
1,note_on,64,45,20
1,note_on,66,0,10
1,note_on,66,45,20
1,note_on,64,0,10
1,note_on,66,0,20
1,note_on,67,46,0
1,note_on,67,0,90
1,note_on,67,45,150
1,note_on,67,0,90
1,note_on,67,45,150
1,note_on,67,0,90
1,note_on,67,45,150
1,note_on,67,0,480
1,note_on,62,45,0
1,note_on,69,45,0
1,note_on,69,0,180
1,note_on,72,45,0
1,note_on,72,0,60
1,note_on,62,0,0
1,note_on,62,41,0
1,note_on,71,49,0
1,note_on,71,0,240
1,note_on,69,45,0
1,note_on,69,0,240
1,note_on,71,45,0
1,note_on,71,0,240
1,note_on,62,0,0
1,note_on,66,44,0
1,note_on,62,36,0
1,note_on,74,49,0
1,note_on,74,0,240
1,note_on,72,45,0
1,note_on,72,0,240
1,note_on,66,0,0
1,note_on,67,45,0
1,note_on,71,45,0
1,note_on,71,0,240
1,note_on,67,0,0
1,note_on,62,0,0
1,note_on,67,47,0
1,note_on,71,47,0
1,note_on,71,0,240
1,note_on,67,0,0
1,note_on,66,45,0
1,note_on,69,45,0
1,note_on,69,0,240
1,note_on,66,0,0
1,note_on,66,45,0
1,note_on,69,45,0
1,note_on,69,0,240
1,note_on,66,0,0
1,note_on,66,45,0
1,note_on,69,45,0
1,note_on,69,0,480
1,note_on,66,0,0
1,note_on,68,46,0
1,note_on,71,46,0
1,note_on,71,0,240
1,note_on,68,0,0
1,note_on,69,49,0
1,note_on,72,49,0
1,note_on,72,0,240
1,note_on,69,0,0
1,note_on,71,51,0
1,note_on,74,51,0
1,note_on,74,0,240
1,note_on,71,0,0
1,note_on,72,51,0
1,note_on,76,51,0
1,note_on,76,0,240
1,note_on,72,0,0
1,note_on,72,51,0
1,note_on,76,51,0
1,note_on,76,0,480
1,note_on,72,0,0
1,note_on,72,45,0
1,note_on,69,45,0
1,note_on,72,0,120
1,note_on,74,43,0
1,note_on,72,43,30
1,note_on,74,0,10
1,note_on,71,43,20
1,note_on,72,0,10
1,note_on,72,43,20
1,note_on,71,0,10
1,note_on,69,0,20
1,note_on,67,46,0
1,note_on,71,46,0
1,note_on,72,0,10
1,note_on,71,0,230
1,note_on,67,0,0
1,note_on,69,45,0
1,note_on,72,45,0
1,note_on,72,0,240
1,note_on,69,0,0
1,note_on,71,45,0
1,note_on,74,45,0
1,note_on,74,0,120
1,note_on,71,0,0
1,note_on,73,45,0
1,note_on,73,0,40
1,note_on,74,45,0
1,note_on,74,0,40
1,note_on,76,45,0
1,note_on,76,0,40
1,note_on,71,47,0
1,note_on,74,47,0
1,note_on,74,0,480
1,note_on,71,0,0
1,note_on,59,40,0
1,note_on,67,40,0
1,note_on,67,0,120
1,note_on,69,36,0
1,note_on,67,36,30
1,note_on,69,0,10
1,note_on,66,36,20
1,note_on,67,0,10
1,note_on,67,36,20
1,note_on,66,0,10
1,note_on,67,0,20
1,note_on,59,0,0
1,note_on,60,44,0
1,note_on,69,44,0
1,note_on,69,0,240
1,note_on,60,0,0
1,note_on,64,41,0
1,note_on,72,41,0
1,note_on,72,0,240
1,note_on,64,0,0
1,note_on,62,41,0
1,note_on,71,41,0
1,note_on,71,0,240
1,note_on,62,0,0
1,note_on,60,44,0
1,note_on,69,44,0
1,note_on,69,0,120
1,note_on,71,36,0
1,note_on,71,0,30
1,note_on,69,36,0
1,note_on,69,0,30
1,note_on,67,36,0
1,note_on,67,0,30
1,note_on,69,36,0
1,note_on,69,0,30
1,note_on,60,0,0
1,note_on,59,40,0
1,note_on,67,40,0
1,note_on,67,0,240
1,note_on,59,0,0
1,note_on,57,35,0
1,note_on,66,35,0
1,note_on,66,0,120
1,note_on,67,35,0
1,note_on,66,35,30
1,note_on,67,0,10
1,note_on,64,35,20
1,note_on,66,0,10
1,note_on,66,35,20
1,note_on,64,0,10
1,note_on,57,0,20
1,note_on,60,39,0
1,note_on,69,39,0
1,note_on,66,0,10
1,note_on,69,0,230
1,note_on,60,0,0
1,note_on,59,30,0
1,note_on,67,30,0
1,note_on,67,0,240
1,note_on,59,0,0
1,note_on,59,30,0
1,note_on,67,30,0
1,note_on,67,0,240
1,note_on,59,0,0
1,note_on,59,30,0
1,note_on,67,30,0
1,note_on,67,0,480
1,note_on,59,0,0
1,note_on,79,53,0
1,note_on,79,0,240
1,note_on,79,53,0
1,note_on,79,0,420
1,note_on,83,51,0
1,note_on,83,0,60
1,note_on,81,51,0
1,note_on,81,0,240
1,note_on,79,53,0
1,note_on,79,0,240
1,note_on,78,49,0
1,note_on,78,0,240
1,note_on,76,49,0
1,note_on,76,0,240
1,note_on,74,50,0
1,note_on,74,0,90
1,note_on,74,47,150
1,note_on,74,0,90
1,note_on,74,47,150
1,note_on,74,0,90
1,note_on,74,47,150
1,note_on,74,0,480
1,note_on,75,51,0
1,note_on,75,0,240
1,note_on,76,52,0
1,note_on,76,0,240
1,note_on,78,54,0
1,note_on,78,0,120
1,note_on,79,45,0
1,note_on,78,45,30
1,note_on,79,0,10
1,note_on,76,45,20
1,note_on,78,0,10
1,note_on,78,45,20
1,note_on,76,0,10
1,note_on,79,57,20
1,note_on,78,0,10
1,note_on,79,0,230
1,note_on,69,52,0
1,note_on,69,0,240
1,note_on,71,50,0
1,note_on,71,0,240
1,note_on,73,46,0
1,note_on,73,0,120
1,note_on,74,39,0
1,note_on,73,39,30
1,note_on,74,0,10
1,note_on,71,39,20
1,note_on,73,0,10
1,note_on,73,39,20
1,note_on,71,0,10
1,note_on,74,46,20
1,note_on,73,0,10
1,note_on,74,0,110
1,note_on,74,42,360
1,note_on,74,0,120
1,note_on,74,43,120
1,note_on,74,0,120
1,note_on,74,42,360
1,note_on,74,0,120
1,note_on,74,45,120
1,note_on,74,0,120
1,note_on,74,44,360
1,note_on,74,0,120
1,note_on,74,45,120
1,note_on,74,0,120
1,note_on,74,41,360
1,note_on,74,0,120
1,note_on,74,43,120
1,note_on,74,0,120
1,note_on,74,37,120
1,note_on,78,37,0
1,note_on,78,0,240
1,note_on,74,0,0
1,note_on,76,36,0
1,note_on,79,36,0
1,note_on,79,0,240
1,note_on,76,0,0
1,note_on,81,37,240
1,note_on,78,37,0
1,note_on,78,0,240
1,note_on,81,0,0
1,note_on,79,36,0
1,note_on,83,36,0
1,note_on,83,0,240
1,note_on,79,0,0
1,note_on,81,40,240
1,note_on,84,40,0
1,note_on,84,0,240
1,note_on,81,0,0
1,note_on,83,36,0
1,note_on,79,36,0
1,note_on,79,0,240
1,note_on,83,0,0
1,note_on,72,47,240
1,note_on,81,47,0
1,note_on,81,0,240
1,note_on,72,0,0
1,note_on,71,47,0
1,note_on,79,47,0
1,note_on,79,0,240
1,note_on,71,0,0
1,note_on,72,45,0
1,note_on,78,45,0
1,note_on,78,0,1080
1,note_on,72,0,0
1,note_on,71,43,0
1,note_on,71,0,60
1,note_on,72,45,0
1,note_on,72,0,60
1,note_on,74,47,0
1,note_on,74,0,60
1,note_on,72,45,0
1,note_on,72,0,60
1,note_on,71,45,0
1,note_on,71,0,60
1,note_on,69,44,0
1,note_on,69,0,60
1,note_on,67,49,0
1,note_on,67,0,420
1,note_on,71,47,0
1,note_on,71,0,60
1,note_on,69,47,0
1,note_on,69,0,240
1,note_on,62,49,0
1,note_on,62,0,240
1,note_on,64,45,0
1,note_on,64,0,240
1,note_on,66,45,0
1,note_on,66,0,120
1,note_on,67,45,0
1,note_on,66,45,30
1,note_on,67,0,10
1,note_on,64,45,20
1,note_on,66,0,10
1,note_on,66,45,20
1,note_on,64,0,10
1,note_on,67,46,20
1,note_on,66,0,10
1,note_on,67,0,80
1,note_on,67,45,150
1,note_on,67,0,90
1,note_on,67,45,150
1,note_on,67,0,90
1,note_on,67,45,150
1,note_on,67,0,480
1,note_on,62,45,0
1,note_on,69,45,0
1,note_on,69,0,180
1,note_on,72,45,0
1,note_on,72,0,60
1,note_on,62,0,0
1,note_on,62,41,0
1,note_on,71,49,0
1,note_on,71,0,240
1,note_on,69,45,0
1,note_on,69,0,240
1,note_on,71,45,0
1,note_on,71,0,240
1,note_on,62,0,0
1,note_on,66,44,0
1,note_on,62,36,0
1,note_on,74,49,0
1,note_on,74,0,240
1,note_on,72,45,0
1,note_on,72,0,240
1,note_on,66,0,0
1,note_on,67,45,0
1,note_on,71,45,0
1,note_on,71,0,240
1,note_on,67,0,0
1,note_on,62,0,0
1,note_on,67,47,0
1,note_on,71,47,0
1,note_on,71,0,240
1,note_on,67,0,0
1,note_on,66,45,0
1,note_on,69,45,0
1,note_on,69,0,240
1,note_on,66,0,0
1,note_on,66,45,0
1,note_on,69,45,0
1,note_on,69,0,240
1,note_on,66,0,0
1,note_on,66,45,0
1,note_on,69,45,0
1,note_on,69,0,480
1,note_on,66,0,0
1,note_on,68,46,0
1,note_on,71,46,0
1,note_on,71,0,240
1,note_on,68,0,0
1,note_on,69,49,0
1,note_on,72,49,0
1,note_on,72,0,240
1,note_on,69,0,0
1,note_on,71,51,0
1,note_on,74,51,0
1,note_on,74,0,240
1,note_on,71,0,0
1,note_on,72,51,0
1,note_on,76,51,0
1,note_on,76,0,240
1,note_on,72,0,0
1,note_on,72,51,0
1,note_on,76,51,0
1,note_on,76,0,480
1,note_on,72,0,0
1,note_on,72,45,0
1,note_on,69,45,0
1,note_on,72,0,120
1,note_on,74,43,0
1,note_on,72,43,30
1,note_on,74,0,10
1,note_on,71,43,20
1,note_on,72,0,10
1,note_on,72,43,20
1,note_on,71,0,10
1,note_on,69,0,20
1,note_on,67,46,0
1,note_on,71,46,0
1,note_on,72,0,10
1,note_on,71,0,230
1,note_on,67,0,0
1,note_on,69,45,0
1,note_on,72,45,0
1,note_on,72,0,240
1,note_on,69,0,0
1,note_on,71,45,0
1,note_on,74,45,0
1,note_on,74,0,120
1,note_on,71,0,0
1,note_on,73,45,0
1,note_on,73,0,40
1,note_on,74,45,0
1,note_on,74,0,40
1,note_on,76,45,0
1,note_on,76,0,40
1,note_on,71,47,0
1,note_on,74,47,0
1,note_on,74,0,480
1,note_on,71,0,0
1,note_on,59,40,0
1,note_on,67,40,0
1,note_on,67,0,120
1,note_on,69,36,0
1,note_on,67,36,30
1,note_on,69,0,10
1,note_on,66,36,20
1,note_on,67,0,10
1,note_on,67,36,20
1,note_on,66,0,10
1,note_on,59,0,20
1,note_on,60,44,0
1,note_on,69,44,0
1,note_on,67,0,10
1,note_on,69,0,230
1,note_on,60,0,0
1,note_on,64,41,0
1,note_on,72,41,0
1,note_on,72,0,240
1,note_on,64,0,0
1,note_on,62,41,0
1,note_on,71,41,0
1,note_on,71,0,240
1,note_on,62,0,0
1,note_on,60,44,0
1,note_on,69,44,0
1,note_on,69,0,120
1,note_on,71,36,0
1,note_on,71,0,30
1,note_on,69,36,0
1,note_on,69,0,30
1,note_on,67,36,0
1,note_on,67,0,30
1,note_on,69,36,0
1,note_on,69,0,30
1,note_on,60,0,0
1,note_on,59,40,0
1,note_on,67,40,0
1,note_on,67,0,240
1,note_on,59,0,0
1,note_on,57,35,0
1,note_on,66,35,0
1,note_on,66,0,120
1,note_on,67,35,0
1,note_on,66,35,30
1,note_on,67,0,10
1,note_on,64,35,20
1,note_on,66,0,10
1,note_on,66,35,20
1,note_on,64,0,10
1,note_on,57,0,20
1,note_on,60,39,0
1,note_on,69,39,0
1,note_on,66,0,10
1,note_on,69,0,230
1,note_on,60,0,0
1,note_on,59,30,0
1,note_on,67,30,0
1,note_on,67,0,240
1,note_on,59,0,0
1,note_on,59,30,0
1,note_on,67,30,0
1,note_on,67,0,240
1,note_on,59,0,0
1,note_on,59,30,0
1,note_on,67,30,0
1,note_on,67,0,480
1,note_on,59,0,0
1,note_on,74,41,0
1,note_on,74,0,120
1,note_on,74,41,0
1,note_on,74,0,120
1,note_on,75,44,360
1,note_on,75,0,120
1,note_on,75,44,120
1,note_on,75,0,120
1,note_on,78,46,360
1,note_on,78,0,120
1,note_on,78,46,120
1,note_on,78,0,120
1,note_on,79,56,360
1,note_on,79,0,120
1,note_on,79,56,120
1,note_on,79,0,120
1,note_on,82,72,360
1,note_on,73,72,0
1,note_on,73,0,240
1,note_on,74,72,0
1,note_on,82,0,240
1,note_on,81,69,0
1,note_on,81,0,240
1,note_on,74,0,0
1,note_on,73,72,0
1,note_on,82,72,0
1,note_on,73,0,240
1,note_on,74,72,0
1,note_on,82,0,240
1,note_on,81,68,0
1,note_on,81,0,240
1,note_on,74,0,0
1,note_on,80,77,0
1,note_on,80,0,120
1,note_on,81,67,0
1,note_on,80,69,40
1,note_on,81,0,10
1,note_on,78,69,30
1,note_on,80,0,10
1,note_on,80,79,30
1,note_on,78,0,10
1,note_on,80,0,230
1,note_on,81,69,0
1,note_on,81,0,120
1,note_on,81,69,120
1,note_on,81,0,120
1,note_on,83,69,360
1,note_on,83,0,120
1,note_on,83,69,120
1,note_on,83,0,120
1,note_on,69,44,360
1,note_on,69,0,240
1,note_on,69,44,0
1,note_on,69,0,240
1,note_on,69,45,0
1,note_on,69,0,240
1,note_on,71,39,0
1,note_on,71,0,240
1,note_on,73,39,0
1,note_on,73,0,240
1,note_on,73,35,0
1,note_on,73,0,720
1,note_on,74,33,0
1,note_on,74,0,240
1,note_on,74,41,240
1,note_on,74,0,120
1,note_on,74,41,0
1,note_on,74,0,120
1,note_on,75,44,360
1,note_on,75,0,120
1,note_on,75,44,120
1,note_on,75,0,120
1,note_on,78,46,360
1,note_on,78,0,120
1,note_on,78,46,120
1,note_on,78,0,120
1,note_on,79,56,360
1,note_on,79,0,120
1,note_on,79,56,120
1,note_on,79,0,120
1,note_on,82,72,360
1,note_on,73,72,0
1,note_on,73,0,240
1,note_on,74,72,0
1,note_on,82,0,240
1,note_on,81,66,0
1,note_on,81,0,240
1,note_on,74,0,0
1,note_on,73,72,0
1,note_on,82,72,0
1,note_on,73,0,240
1,note_on,74,72,0
1,note_on,82,0,240
1,note_on,81,66,0
1,note_on,81,0,240
1,note_on,74,0,0
1,note_on,80,77,0
1,note_on,80,0,120
1,note_on,81,64,0
1,note_on,80,64,40
1,note_on,81,0,10
1,note_on,78,65,30
1,note_on,80,0,10
1,note_on,80,81,30
1,note_on,78,0,10
1,note_on,80,0,230
1,note_on,81,67,0
1,note_on,81,0,120
1,note_on,81,67,120
1,note_on,81,0,120
1,note_on,83,77,360
1,note_on,83,0,120
1,note_on,83,77,120
1,note_on,83,0,120
1,note_on,69,44,360
1,note_on,69,0,240
1,note_on,69,44,0
1,note_on,69,0,240
1,note_on,69,45,0
1,note_on,69,0,240
1,note_on,71,39,0
1,note_on,71,0,240
1,note_on,73,39,0
1,note_on,73,0,240
1,note_on,73,35,0
1,note_on,73,0,720
1,note_on,74,33,0
1,note_on,74,0,240
1,note_on,74,36,240
1,note_on,74,0,240
1,note_on,74,37,0
1,note_on,74,0,240
1,note_on,67,37,240
1,note_on,67,0,240
1,note_on,72,39,0
1,note_on,72,0,240
1,note_on,66,37,240
1,note_on,66,0,240
1,note_on,70,39,0
1,note_on,70,0,240
1,note_on,61,44,240
1,note_on,61,0,240
1,note_on,62,45,0
1,note_on,62,0,240
1,note_on,79,70,240
1,note_on,67,70,0
1,note_on,67,0,240
1,note_on,69,58,0
1,note_on,79,0,240
1,note_on,78,69,0
1,note_on,78,0,240
1,note_on,69,0,0
1,note_on,67,58,0
1,note_on,79,70,0
1,note_on,67,0,240
1,note_on,69,58,0
1,note_on,79,0,240
1,note_on,78,67,0
1,note_on,78,0,240
1,note_on,69,0,0
1,note_on,67,58,0
1,note_on,79,73,0
1,note_on,79,0,240
1,note_on,67,0,0
1,note_on,72,63,0
1,note_on,75,63,0
1,note_on,78,74,0
1,note_on,81,74,0
1,note_on,81,0,960
1,note_on,72,0,0
1,note_on,75,0,0
1,note_on,78,0,0
1,note_on,74,44,0
1,note_on,82,44,0
1,note_on,82,0,240
1,note_on,74,0,0
1,note_on,82,44,0
1,note_on,74,44,0
1,note_on,74,0,240
1,note_on,75,44,0
1,note_on,82,0,240
1,note_on,81,44,0
1,note_on,81,0,240
1,note_on,81,44,0
1,note_on,81,0,480
1,note_on,75,0,0
1,note_on,74,41,0
1,note_on,79,41,0
1,note_on,79,0,240
1,note_on,74,0,0
1,note_on,72,37,0
1,note_on,78,37,0
1,note_on,78,0,240
1,note_on,72,0,0
1,note_on,72,35,0
1,note_on,78,35,0
1,note_on,78,0,720
1,note_on,72,0,0
1,note_on,70,33,0
1,note_on,79,33,0
1,note_on,79,0,240
1,note_on,70,0,0
1,note_on,74,36,240
1,note_on,74,0,240
1,note_on,74,37,0
1,note_on,74,0,240
1,note_on,67,37,240
1,note_on,67,0,240
1,note_on,72,39,0
1,note_on,72,0,240
1,note_on,66,37,240
1,note_on,66,0,240
1,note_on,70,39,0
1,note_on,70,0,240
1,note_on,61,44,240
1,note_on,61,0,240
1,note_on,62,45,0
1,note_on,62,0,240
1,note_on,79,70,240
1,note_on,67,58,0
1,note_on,67,0,240
1,note_on,69,58,0
1,note_on,79,0,240
1,note_on,78,69,0
1,note_on,78,0,240
1,note_on,69,0,0
1,note_on,67,58,0
1,note_on,79,70,0
1,note_on,67,0,240
1,note_on,69,58,0
1,note_on,79,0,240
1,note_on,78,67,0
1,note_on,78,0,240
1,note_on,69,0,0
1,note_on,67,58,0
1,note_on,79,73,0
1,note_on,79,0,240
1,note_on,67,0,0
1,note_on,72,63,0
1,note_on,75,63,0
1,note_on,78,74,0
1,note_on,81,74,0
1,note_on,81,0,960
1,note_on,72,0,0
1,note_on,75,0,0
1,note_on,78,0,0
1,note_on,74,44,0
1,note_on,82,44,0
1,note_on,82,0,240
1,note_on,74,0,0
1,note_on,82,44,0
1,note_on,74,44,0
1,note_on,74,0,240
1,note_on,75,44,0
1,note_on,82,0,240
1,note_on,81,44,0
1,note_on,81,0,240
1,note_on,81,44,0
1,note_on,81,0,480
1,note_on,75,0,0
1,note_on,74,41,0
1,note_on,79,41,0
1,note_on,79,0,240
1,note_on,74,0,0
1,note_on,72,37,0
1,note_on,78,37,0
1,note_on,78,0,240
1,note_on,72,0,0
1,note_on,72,35,0
1,note_on,78,35,0
1,note_on,78,0,720
1,note_on,72,0,0
1,note_on,70,33,0
1,note_on,79,33,0
1,note_on,79,0,240
1,note_on,70,0,0
1,note_on,67,46,240
1,note_on,67,0,240
1,note_on,67,49,0
1,note_on,67,0,420
1,note_on,71,47,0
1,note_on,71,0,60
1,note_on,69,47,0
1,note_on,69,0,240
1,note_on,62,49,0
1,note_on,62,0,240
1,note_on,63,45,0
1,note_on,63,0,120
1,note_on,64,45,0
1,note_on,64,0,120
1,note_on,65,45,0
1,note_on,65,0,120
1,note_on,66,45,0
1,note_on,66,0,120
1,note_on,67,46,0
1,note_on,67,0,240
1,note_on,67,45,0
1,note_on,67,0,240
1,note_on,67,45,0
1,note_on,67,0,240
1,note_on,67,45,0
1,note_on,67,0,480
1,note_on,62,45,0
1,note_on,69,45,0
1,note_on,69,0,180
1,note_on,72,45,0
1,note_on,72,0,60
1,note_on,62,0,0
1,note_on,62,49,0
1,note_on,71,49,0
1,note_on,71,0,120
1,note_on,70,47,0
1,note_on,70,0,120
1,note_on,71,49,0
1,note_on,71,0,120
1,note_on,70,46,0
1,note_on,70,0,120
1,note_on,71,49,0
1,note_on,71,0,120
1,note_on,74,46,0
1,note_on,74,0,120
1,note_on,62,0,0
1,note_on,66,44,0
1,note_on,62,44,0
1,note_on,74,49,0
1,note_on,74,0,240
1,note_on,72,45,0
1,note_on,72,0,240
1,note_on,66,0,0
1,note_on,67,45,0
1,note_on,71,45,0
1,note_on,71,0,240
1,note_on,67,0,0
1,note_on,62,0,0
1,note_on,67,47,0
1,note_on,71,47,0
1,note_on,71,0,240
1,note_on,67,0,0
1,note_on,66,45,0
1,note_on,69,45,0
1,note_on,69,0,240
1,note_on,66,0,0
1,note_on,66,45,0
1,note_on,69,45,0
1,note_on,69,0,240
1,note_on,66,0,0
1,note_on,66,45,0
1,note_on,69,45,0
1,note_on,69,0,480
1,note_on,66,0,0
1,note_on,68,46,0
1,note_on,71,46,0
1,note_on,71,0,240
1,note_on,68,0,0
1,note_on,69,49,0
1,note_on,72,49,0
1,note_on,72,0,240
1,note_on,69,0,0
1,note_on,71,51,0
1,note_on,74,51,0
1,note_on,74,0,240
1,note_on,71,0,0
1,note_on,72,51,0
1,note_on,76,51,0
1,note_on,76,0,240
1,note_on,72,0,0
1,note_on,72,51,0
1,note_on,76,51,0
1,note_on,76,0,480
1,note_on,72,0,0
1,note_on,71,47,0
1,note_on,74,47,0
1,note_on,74,0,120
1,note_on,71,0,0
1,note_on,69,47,0
1,note_on,72,47,0
1,note_on,72,0,120
1,note_on,69,0,0
1,note_on,71,49,0
1,note_on,71,0,120
1,note_on,72,45,0
1,note_on,72,0,120
1,note_on,71,49,0
1,note_on,71,0,120
1,note_on,72,45,0
1,note_on,72,0,120
1,note_on,71,49,0
1,note_on,71,0,120
1,note_on,74,45,0
1,note_on,74,0,120
1,note_on,72,51,0
1,note_on,72,0,240
1,note_on,74,51,0
1,note_on,74,0,240
1,note_on,76,51,0
1,note_on,76,0,240
1,note_on,74,53,0
1,note_on,74,0,240
1,note_on,79,57,0
1,note_on,79,0,240
1,note_on,79,57,0
1,note_on,79,0,240
1,note_on,81,60,0
1,note_on,81,0,120
1,note_on,79,59,0
1,note_on,79,0,120
1,note_on,78,57,0
1,note_on,78,0,120
1,note_on,76,56,0
1,note_on,76,0,120
1,note_on,74,55,0
1,note_on,74,0,120
1,note_on,73,54,0
1,note_on,73,0,120
1,note_on,76,47,0
1,note_on,76,0,240
1,note_on,74,44,0
1,note_on,74,0,240
1,note_on,74,41,0
1,note_on,74,0,240
1,note_on,74,41,0
1,note_on,74,0,360
1,note_on,71,44,0
1,note_on,71,0,120
1,note_on,72,44,0
1,note_on,72,0,120
1,note_on,69,44,0
1,note_on,69,0,120
1,note_on,67,49,0
1,note_on,67,0,420
1,note_on,71,47,0
1,note_on,71,0,60
1,note_on,69,47,0
1,note_on,69,0,240
1,note_on,62,49,0
1,note_on,62,0,240
1,note_on,63,45,0
1,note_on,63,0,120
1,note_on,64,45,0
1,note_on,64,0,120
1,note_on,65,45,0
1,note_on,65,0,120
1,note_on,66,45,0
1,note_on,66,0,120
1,note_on,67,46,0
1,note_on,67,0,240
1,note_on,67,45,0
1,note_on,67,0,240
1,note_on,67,45,0
1,note_on,67,0,240
1,note_on,67,45,0
1,note_on,67,0,480
1,note_on,62,45,0
1,note_on,69,45,0
1,note_on,69,0,180
1,note_on,72,45,0
1,note_on,72,0,60
1,note_on,62,0,0
1,note_on,62,49,0
1,note_on,71,49,0
1,note_on,71,0,120
1,note_on,70,47,0
1,note_on,70,0,120
1,note_on,71,49,0
1,note_on,71,0,120
1,note_on,70,46,0
1,note_on,70,0,120
1,note_on,71,49,0
1,note_on,71,0,120
1,note_on,74,46,0
1,note_on,74,0,120
1,note_on,62,0,0
1,note_on,66,44,0
1,note_on,62,44,0
1,note_on,74,49,0
1,note_on,74,0,240
1,note_on,72,45,0
1,note_on,72,0,240
1,note_on,66,0,0
1,note_on,67,45,0
1,note_on,71,45,0
1,note_on,71,0,240
1,note_on,67,0,0
1,note_on,62,0,0
1,note_on,67,47,0
1,note_on,71,47,0
1,note_on,71,0,240
1,note_on,67,0,0
1,note_on,66,45,0
1,note_on,69,45,0
1,note_on,69,0,240
1,note_on,66,0,0
1,note_on,66,45,0
1,note_on,69,45,0
1,note_on,69,0,240
1,note_on,66,0,0
1,note_on,66,45,0
1,note_on,69,45,0
1,note_on,69,0,480
1,note_on,66,0,0
1,note_on,68,46,0
1,note_on,71,46,0
1,note_on,71,0,240
1,note_on,68,0,0
1,note_on,69,49,0
1,note_on,72,49,0
1,note_on,72,0,240
1,note_on,69,0,0
1,note_on,71,51,0
1,note_on,74,51,0
1,note_on,74,0,240
1,note_on,71,0,0
1,note_on,72,51,0
1,note_on,76,51,0
1,note_on,76,0,240
1,note_on,72,0,0
1,note_on,72,51,0
1,note_on,76,51,0
1,note_on,76,0,480
1,note_on,72,0,0
1,note_on,71,47,0
1,note_on,74,47,0
1,note_on,74,0,120
1,note_on,71,0,0
1,note_on,69,47,0
1,note_on,72,47,0
1,note_on,72,0,120
1,note_on,69,0,0
1,note_on,71,49,0
1,note_on,71,0,120
1,note_on,72,45,0
1,note_on,72,0,120
1,note_on,71,49,0
1,note_on,71,0,120
1,note_on,72,45,0
1,note_on,72,0,120
1,note_on,71,49,0
1,note_on,71,0,120
1,note_on,74,45,0
1,note_on,74,0,120
1,note_on,72,51,0
1,note_on,72,0,240
1,note_on,74,51,0
1,note_on,74,0,240
1,note_on,76,51,0
1,note_on,76,0,240
1,note_on,74,53,0
1,note_on,74,0,240
1,note_on,79,57,0
1,note_on,79,0,240
1,note_on,79,57,0
1,note_on,79,0,240
1,note_on,81,60,0
1,note_on,81,0,120
1,note_on,79,59,0
1,note_on,79,0,120
1,note_on,78,57,0
1,note_on,78,0,120
1,note_on,76,56,0
1,note_on,76,0,120
1,note_on,74,55,0
1,note_on,74,0,120
1,note_on,73,54,0
1,note_on,73,0,120
1,note_on,76,47,0
1,note_on,76,0,240
1,note_on,74,44,0
1,note_on,74,0,240
1,note_on,74,41,0
1,note_on,74,0,240
1,note_on,74,41,0
1,note_on,74,0,240
1,note_on,79,53,240
1,note_on,79,0,240
1,note_on,79,53,0
1,note_on,79,0,420
1,note_on,83,51,0
1,note_on,83,0,60
1,note_on,81,51,0
1,note_on,81,0,240
1,note_on,79,53,0
1,note_on,79,0,240
1,note_on,78,49,0
1,note_on,78,0,240
1,note_on,76,49,0
1,note_on,76,0,240
1,note_on,74,50,0
1,note_on,74,0,240
1,note_on,74,47,0
1,note_on,74,0,240
1,note_on,74,47,0
1,note_on,74,0,240
1,note_on,74,47,0
1,note_on,74,0,480
1,note_on,75,51,0
1,note_on,75,0,240
1,note_on,76,52,0
1,note_on,76,0,120
1,note_on,75,50,0
1,note_on,75,0,120
1,note_on,78,52,0
1,note_on,78,0,120
1,note_on,76,51,0
1,note_on,76,0,120
1,note_on,79,52,0
1,note_on,79,0,120
1,note_on,78,51,0
1,note_on,78,0,120
1,note_on,81,52,0
1,note_on,81,0,120
1,note_on,79,51,0
1,note_on,79,0,120
1,note_on,78,51,0
1,note_on,78,0,120
1,note_on,76,50,0
1,note_on,76,0,120
1,note_on,74,49,0
1,note_on,74,0,120
1,note_on,73,47,0
1,note_on,73,0,120
1,note_on,74,53,0
1,note_on,74,0,240
1,note_on,74,46,240
1,note_on,74,0,240
1,note_on,74,51,0
1,note_on,74,0,240
1,note_on,74,46,240
1,note_on,74,0,240
1,note_on,74,53,0
1,note_on,74,0,240
1,note_on,74,46,240
1,note_on,74,0,240
1,note_on,74,50,0
1,note_on,74,0,240
1,note_on,74,41,240
1,note_on,74,0,240
1,note_on,74,41,120
1,note_on,74,0,120
1,note_on,78,43,0
1,note_on,78,0,120
1,note_on,74,39,0
1,note_on,74,0,120
1,note_on,76,41,0
1,note_on,76,0,120
1,note_on,79,43,0
1,note_on,79,0,120
1,note_on,78,41,120
1,note_on,78,0,120
1,note_on,81,43,0
1,note_on,81,0,120
1,note_on,78,40,0
1,note_on,78,0,120
1,note_on,79,42,0
1,note_on,79,0,120
1,note_on,83,44,0
1,note_on,83,0,120
1,note_on,81,57,120
1,note_on,81,0,120
1,note_on,84,59,0
1,note_on,84,0,120
1,note_on,78,54,0
1,note_on,78,0,120
1,note_on,81,57,0
1,note_on,81,0,120
1,note_on,72,53,0
1,note_on,72,0,120
1,note_on,78,56,0
1,note_on,78,0,120
1,note_on,69,51,0
1,note_on,69,0,120
1,note_on,72,54,0
1,note_on,72,0,120
1,note_on,66,49,0
1,note_on,66,0,120
1,note_on,69,52,0
1,note_on,69,0,120
1,note_on,60,48,0
1,note_on,60,0,120
1,note_on,76,50,0
1,note_on,76,0,1200
1,note_on,74,44,0
1,note_on,74,0,60
1,note_on,72,44,0
1,note_on,72,0,60
1,note_on,71,44,0
1,note_on,71,0,60
1,note_on,69,44,0
1,note_on,69,0,60
1,note_on,67,49,0
1,note_on,67,0,420
1,note_on,71,47,0
1,note_on,71,0,60
1,note_on,69,47,0
1,note_on,69,0,240
1,note_on,62,49,0
1,note_on,62,0,240
1,note_on,63,45,0
1,note_on,63,0,120
1,note_on,64,45,0
1,note_on,64,0,120
1,note_on,65,45,0
1,note_on,65,0,120
1,note_on,66,45,0
1,note_on,66,0,120
1,note_on,67,46,0
1,note_on,67,0,240
1,note_on,67,45,0
1,note_on,67,0,240
1,note_on,67,45,0
1,note_on,67,0,240
1,note_on,67,45,0
1,note_on,67,0,480
1,note_on,62,45,0
1,note_on,69,45,0
1,note_on,69,0,180
1,note_on,72,45,0
1,note_on,72,0,60
1,note_on,62,0,0
1,note_on,62,49,0
1,note_on,71,49,0
1,note_on,71,0,120
1,note_on,70,47,0
1,note_on,70,0,120
1,note_on,71,49,0
1,note_on,71,0,120
1,note_on,70,46,0
1,note_on,70,0,120
1,note_on,71,49,0
1,note_on,71,0,120
1,note_on,74,46,0
1,note_on,74,0,120
1,note_on,62,0,0
1,note_on,66,44,0
1,note_on,62,44,0
1,note_on,74,49,0
1,note_on,74,0,240
1,note_on,72,45,0
1,note_on,72,0,240
1,note_on,66,0,0
1,note_on,67,45,0
1,note_on,71,45,0
1,note_on,71,0,240
1,note_on,67,0,0
1,note_on,62,0,0
1,note_on,67,47,0
1,note_on,71,47,0
1,note_on,71,0,240
1,note_on,67,0,0
1,note_on,66,45,0
1,note_on,69,45,0
1,note_on,69,0,240
1,note_on,66,0,0
1,note_on,66,45,0
1,note_on,69,45,0
1,note_on,69,0,240
1,note_on,66,0,0
1,note_on,66,45,0
1,note_on,69,45,0
1,note_on,69,0,480
1,note_on,66,0,0
1,note_on,68,46,0
1,note_on,71,46,0
1,note_on,71,0,240
1,note_on,68,0,0
1,note_on,69,49,0
1,note_on,72,49,0
1,note_on,72,0,240
1,note_on,69,0,0
1,note_on,71,51,0
1,note_on,74,51,0
1,note_on,74,0,240
1,note_on,71,0,0
1,note_on,72,51,0
1,note_on,76,51,0
1,note_on,76,0,240
1,note_on,72,0,0
1,note_on,72,51,0
1,note_on,76,51,0
1,note_on,76,0,480
1,note_on,72,0,0
1,note_on,71,47,0
1,note_on,74,47,0
1,note_on,74,0,120
1,note_on,71,0,0
1,note_on,69,47,0
1,note_on,72,47,0
1,note_on,72,0,120
1,note_on,69,0,0
1,note_on,67,49,0
1,note_on,71,49,0
1,note_on,71,0,240
1,note_on,67,0,0
1,note_on,69,46,0
1,note_on,72,46,0
1,note_on,72,0,240
1,note_on,69,0,0
1,note_on,71,46,0
1,note_on,74,46,0
1,note_on,74,0,240
1,note_on,71,0,0
1,note_on,59,47,0
1,note_on,67,47,0
1,note_on,67,0,240
1,note_on,59,0,0
1,note_on,60,45,0
1,note_on,69,45,0
1,note_on,69,0,240
1,note_on,60,0,0
1,note_on,62,45,0
1,note_on,71,45,0
1,note_on,71,0,240
1,note_on,62,0,0
1,note_on,69,46,0
1,note_on,64,46,120
1,note_on,69,0,120
1,note_on,71,45,0
1,note_on,64,0,120
1,note_on,62,45,0
1,note_on,71,0,120
1,note_on,72,45,0
1,note_on,62,0,120
1,note_on,60,45,0
1,note_on,72,0,120
1,note_on,72,45,0
1,note_on,60,0,120
1,note_on,60,45,0
1,note_on,72,0,120
1,note_on,69,45,0
1,note_on,60,0,120
1,note_on,60,45,0
1,note_on,69,0,120
1,note_on,66,43,0
1,note_on,60,0,120
1,note_on,60,45,0
1,note_on,66,0,120
1,note_on,69,41,0
1,note_on,69,0,720
1,note_on,60,0,0
1,note_on,59,31,0
1,note_on,67,31,0
1,note_on,67,0,240
1,note_on,59,0,0
1,note_on,79,53,240
1,note_on,79,0,240
1,note_on,79,53,0
1,note_on,79,0,420
1,note_on,83,51,0
1,note_on,83,0,60
1,note_on,81,51,0
1,note_on,81,0,240
1,note_on,79,53,0
1,note_on,79,0,240
1,note_on,78,49,0
1,note_on,78,0,240
1,note_on,76,49,0
1,note_on,76,0,240
1,note_on,74,50,0
1,note_on,74,0,240
1,note_on,74,47,0
1,note_on,74,0,240
1,note_on,74,47,0
1,note_on,74,0,240
1,note_on,74,47,0
1,note_on,74,0,480
1,note_on,75,51,0
1,note_on,75,0,240
1,note_on,76,52,0
1,note_on,76,0,120
1,note_on,75,50,0
1,note_on,75,0,120
1,note_on,78,52,0
1,note_on,78,0,120
1,note_on,76,51,0
1,note_on,76,0,120
1,note_on,79,52,0
1,note_on,79,0,120
1,note_on,78,51,0
1,note_on,78,0,120
1,note_on,81,52,0
1,note_on,81,0,120
1,note_on,79,51,0
1,note_on,79,0,120
1,note_on,78,51,0
1,note_on,78,0,120
1,note_on,76,50,0
1,note_on,76,0,120
1,note_on,74,49,0
1,note_on,74,0,120
1,note_on,73,47,0
1,note_on,73,0,120
1,note_on,74,52,0
1,note_on,74,0,240
1,note_on,74,45,240
1,note_on,74,0,240
1,note_on,74,49,0
1,note_on,74,0,240
1,note_on,74,46,240
1,note_on,74,0,240
1,note_on,74,51,0
1,note_on,74,0,240
1,note_on,74,45,240
1,note_on,74,0,240
1,note_on,74,50,0
1,note_on,74,0,240
1,note_on,74,41,240
1,note_on,74,0,240
1,note_on,74,41,120
1,note_on,74,0,120
1,note_on,78,43,0
1,note_on,78,0,120
1,note_on,74,39,0
1,note_on,74,0,120
1,note_on,76,41,0
1,note_on,76,0,120
1,note_on,79,43,0
1,note_on,79,0,120
1,note_on,78,41,120
1,note_on,78,0,120
1,note_on,81,43,0
1,note_on,81,0,120
1,note_on,78,40,0
1,note_on,78,0,120
1,note_on,79,42,0
1,note_on,79,0,120
1,note_on,83,44,0
1,note_on,83,0,120
1,note_on,81,57,120
1,note_on,81,0,120
1,note_on,84,59,0
1,note_on,84,0,120
1,note_on,78,54,0
1,note_on,78,0,120
1,note_on,81,57,0
1,note_on,81,0,120
1,note_on,72,53,0
1,note_on,72,0,120
1,note_on,78,56,0
1,note_on,78,0,120
1,note_on,69,51,0
1,note_on,69,0,120
1,note_on,72,54,0
1,note_on,72,0,120
1,note_on,66,49,0
1,note_on,66,0,120
1,note_on,69,52,0
1,note_on,69,0,120
1,note_on,60,48,0
1,note_on,60,0,120
1,note_on,76,50,0
1,note_on,76,0,1200
1,note_on,74,44,0
1,note_on,74,0,60
1,note_on,72,44,0
1,note_on,72,0,60
1,note_on,71,44,0
1,note_on,71,0,60
1,note_on,69,44,0
1,note_on,69,0,60
1,note_on,67,49,0
1,note_on,67,0,420
1,note_on,71,47,0
1,note_on,71,0,60
1,note_on,69,47,0
1,note_on,69,0,240
1,note_on,62,49,0
1,note_on,62,0,240
1,note_on,63,45,0
1,note_on,63,0,120
1,note_on,64,45,0
1,note_on,64,0,120
1,note_on,65,45,0
1,note_on,65,0,120
1,note_on,66,45,0
1,note_on,66,0,120
1,note_on,67,46,0
1,note_on,67,0,240
1,note_on,67,45,0
1,note_on,67,0,240
1,note_on,67,45,0
1,note_on,67,0,240
1,note_on,67,45,0
1,note_on,67,0,480
1,note_on,62,45,0
1,note_on,69,45,0
1,note_on,69,0,180
1,note_on,72,45,0
1,note_on,72,0,60
1,note_on,62,0,0
1,note_on,62,49,0
1,note_on,71,49,0
1,note_on,71,0,120
1,note_on,70,47,0
1,note_on,70,0,120
1,note_on,71,49,0
1,note_on,71,0,120
1,note_on,70,46,0
1,note_on,70,0,120
1,note_on,71,49,0
1,note_on,71,0,120
1,note_on,74,46,0
1,note_on,74,0,120
1,note_on,62,0,0
1,note_on,66,44,0
1,note_on,62,44,0
1,note_on,74,49,0
1,note_on,74,0,240
1,note_on,72,45,0
1,note_on,72,0,240
1,note_on,66,0,0
1,note_on,67,45,0
1,note_on,71,45,0
1,note_on,71,0,240
1,note_on,67,0,0
1,note_on,62,0,0
1,note_on,67,47,0
1,note_on,71,47,0
1,note_on,71,0,240
1,note_on,67,0,0
1,note_on,66,45,0
1,note_on,69,45,0
1,note_on,69,0,240
1,note_on,66,0,0
1,note_on,66,45,0
1,note_on,69,45,0
1,note_on,69,0,240
1,note_on,66,0,0
1,note_on,66,45,0
1,note_on,69,45,0
1,note_on,69,0,480
1,note_on,66,0,0
1,note_on,68,46,0
1,note_on,71,46,0
1,note_on,71,0,240
1,note_on,68,0,0
1,note_on,69,49,0
1,note_on,72,49,0
1,note_on,72,0,240
1,note_on,69,0,0
1,note_on,71,51,0
1,note_on,74,51,0
1,note_on,74,0,240
1,note_on,71,0,0
1,note_on,72,51,0
1,note_on,76,51,0
1,note_on,76,0,240
1,note_on,72,0,0
1,note_on,72,51,0
1,note_on,76,51,0
1,note_on,76,0,480
1,note_on,72,0,0
1,note_on,71,47,0
1,note_on,74,47,0
1,note_on,74,0,120
1,note_on,71,0,0
1,note_on,69,47,0
1,note_on,72,47,0
1,note_on,72,0,120
1,note_on,69,0,0
1,note_on,67,49,0
1,note_on,71,49,0
1,note_on,71,0,240
1,note_on,67,0,0
1,note_on,69,46,0
1,note_on,72,46,0
1,note_on,72,0,240
1,note_on,69,0,0
1,note_on,71,46,0
1,note_on,74,46,0
1,note_on,74,0,240
1,note_on,71,0,0
1,note_on,59,47,0
1,note_on,67,47,0
1,note_on,67,0,240
1,note_on,59,0,0
1,note_on,60,45,0
1,note_on,69,45,0
1,note_on,69,0,240
1,note_on,60,0,0
1,note_on,62,45,0
1,note_on,71,45,0
1,note_on,71,0,240
1,note_on,62,0,0
1,note_on,69,46,0
1,note_on,64,46,120
1,note_on,69,0,120
1,note_on,71,45,0
1,note_on,64,0,120
1,note_on,62,45,0
1,note_on,71,0,120
1,note_on,72,45,0
1,note_on,62,0,120
1,note_on,60,45,0
1,note_on,72,0,120
1,note_on,72,45,0
1,note_on,60,0,120
1,note_on,60,45,0
1,note_on,72,0,120
1,note_on,69,45,0
1,note_on,60,0,120
1,note_on,60,45,0
1,note_on,69,0,120
1,note_on,66,43,0
1,note_on,60,0,120
1,note_on,60,45,0
1,note_on,66,0,120
1,note_on,69,41,0
1,note_on,69,0,720
1,note_on,60,0,0
1,note_on,59,31,0
1,note_on,67,31,0
1,note_on,67,0,240
1,note_on,59,0,0
1,note_on,74,41,240
1,note_on,74,0,120
1,note_on,74,41,0
1,note_on,74,0,120
1,note_on,74,44,360
1,note_on,74,0,120
1,note_on,75,44,0
1,note_on,75,0,120
1,note_on,75,45,0
1,note_on,75,0,120
1,note_on,79,49,360
1,note_on,79,0,120
1,note_on,78,46,0
1,note_on,78,0,120
1,note_on,78,46,0
1,note_on,78,0,120
1,note_on,82,59,360
1,note_on,82,0,120
1,note_on,78,56,0
1,note_on,78,0,120
1,note_on,79,56,0
1,note_on,79,0,120
1,note_on,82,63,360
1,note_on,82,0,120
1,note_on,81,66,0
1,note_on,81,0,120
1,note_on,84,74,0
1,note_on,84,0,360
1,note_on,82,62,0
1,note_on,82,0,120
1,note_on,81,62,0
1,note_on,81,0,60
1,note_on,79,62,0
1,note_on,79,0,60
1,note_on,77,62,0
1,note_on,77,0,60
1,note_on,76,62,0
1,note_on,76,0,30
1,note_on,74,62,0
1,note_on,74,0,30
1,note_on,88,88,240
1,note_on,85,88,0
1,note_on,82,74,0
1,note_on,79,74,0
1,note_on,79,0,480
1,note_on,88,0,0
1,note_on,85,0,0
1,note_on,82,0,0
1,note_on,77,67,60
1,note_on,77,0,60
1,note_on,81,70,0
1,note_on,81,0,60
1,note_on,85,71,0
1,note_on,85,0,60
1,note_on,86,72,0
1,note_on,86,0,60
1,note_on,79,71,0
1,note_on,79,0,60
1,note_on,85,72,0
1,note_on,85,0,60
1,note_on,86,74,0
1,note_on,86,0,60
1,note_on,88,76,0
1,note_on,88,0,60
1,note_on,81,73,0
1,note_on,81,0,60
1,note_on,86,75,0
1,note_on,86,0,60
1,note_on,88,77,0
1,note_on,88,0,60
1,note_on,89,89,0
1,note_on,89,0,240
1,note_on,74,71,0
1,note_on,77,83,0
1,note_on,83,83,0
1,note_on,83,0,480
1,note_on,77,0,0
1,note_on,74,0,0
1,note_on,69,58,240
1,note_on,81,69,0
1,note_on,81,0,240
1,note_on,69,0,0
1,note_on,77,57,0
1,note_on,77,0,120
1,note_on,74,57,0
1,note_on,74,0,120
1,note_on,69,55,240
1,note_on,79,65,0
1,note_on,79,0,240
1,note_on,69,0,0
1,note_on,76,54,0
1,note_on,76,0,120
1,note_on,73,46,0
1,note_on,73,0,100
1,note_on,73,53,20
1,note_on,73,0,480
1,note_on,74,36,0
1,note_on,74,0,180
1,note_on,74,36,60
1,note_on,74,0,240
1,note_on,74,41,240
1,note_on,74,0,120
1,note_on,74,41,0
1,note_on,74,0,120
1,note_on,74,44,360
1,note_on,74,0,120
1,note_on,75,44,0
1,note_on,75,0,120
1,note_on,75,45,0
1,note_on,75,0,120
1,note_on,79,49,360
1,note_on,79,0,120
1,note_on,78,46,0
1,note_on,78,0,120
1,note_on,78,46,0
1,note_on,78,0,120
1,note_on,82,59,360
1,note_on,82,0,120
1,note_on,78,56,0
1,note_on,78,0,120
1,note_on,79,56,0
1,note_on,79,0,120
1,note_on,82,63,360
1,note_on,82,0,120
1,note_on,81,66,0
1,note_on,81,0,120
1,note_on,84,74,0
1,note_on,84,0,360
1,note_on,82,62,0
1,note_on,82,0,120
1,note_on,81,62,0
1,note_on,81,0,60
1,note_on,79,62,0
1,note_on,79,0,60
1,note_on,77,62,0
1,note_on,77,0,60
1,note_on,76,62,0
1,note_on,76,0,30
1,note_on,74,62,0
1,note_on,74,0,30
1,note_on,88,88,240
1,note_on,85,88,0
1,note_on,82,73,0
1,note_on,79,73,0
1,note_on,79,0,480
1,note_on,88,0,0
1,note_on,85,0,0
1,note_on,82,0,0
1,note_on,77,67,60
1,note_on,77,0,60
1,note_on,81,70,0
1,note_on,81,0,60
1,note_on,85,71,0
1,note_on,85,0,60
1,note_on,86,72,0
1,note_on,86,0,60
1,note_on,79,71,0
1,note_on,79,0,60
1,note_on,85,72,0
1,note_on,85,0,60
1,note_on,86,74,0
1,note_on,86,0,60
1,note_on,88,76,0
1,note_on,88,0,60
1,note_on,81,73,0
1,note_on,81,0,60
1,note_on,86,75,0
1,note_on,86,0,60
1,note_on,88,77,0
1,note_on,88,0,60
1,note_on,89,89,0
1,note_on,89,0,240
1,note_on,74,71,0
1,note_on,77,83,0
1,note_on,83,83,0
1,note_on,83,0,480
1,note_on,77,0,0
1,note_on,74,0,0
1,note_on,69,59,240
1,note_on,81,70,0
1,note_on,81,0,240
1,note_on,69,0,0
1,note_on,77,57,0
1,note_on,77,0,120
1,note_on,74,57,0
1,note_on,74,0,120
1,note_on,69,54,240
1,note_on,79,64,0
1,note_on,79,0,240
1,note_on,69,0,0
1,note_on,76,54,0
1,note_on,76,0,120
1,note_on,73,48,0
1,note_on,73,0,120
1,note_on,73,55,0
1,note_on,73,0,480
1,note_on,74,36,0
1,note_on,74,0,180
1,note_on,74,36,60
1,note_on,74,0,240
1,note_on,74,36,240
1,note_on,74,0,120
1,note_on,74,37,0
1,note_on,74,0,120
1,note_on,67,37,360
1,note_on,67,0,240
1,note_on,72,39,0
1,note_on,72,0,240
1,note_on,66,37,240
1,note_on,66,0,240
1,note_on,70,39,0
1,note_on,70,0,240
1,note_on,61,44,240
1,note_on,61,0,240
1,note_on,62,45,0
1,note_on,62,0,240
1,note_on,67,70,240
1,note_on,67,0,120
1,note_on,79,63,0
1,note_on,79,0,120
1,note_on,69,68,0
1,note_on,69,0,120
1,note_on,79,63,0
1,note_on,79,0,120
1,note_on,78,63,0
1,note_on,78,0,120
1,note_on,69,63,0
1,note_on,69,0,120
1,note_on,67,67,0
1,note_on,67,0,120
1,note_on,79,63,0
1,note_on,79,0,120
1,note_on,69,64,0
1,note_on,69,0,120
1,note_on,79,64,0
1,note_on,79,0,120
1,note_on,78,64,0
1,note_on,78,0,120
1,note_on,69,64,0
1,note_on,69,0,120
1,note_on,67,70,0
1,note_on,67,0,120
1,note_on,79,70,0
1,note_on,79,0,120
1,note_on,75,77,0
1,note_on,75,0,120
1,note_on,87,69,0
1,note_on,87,0,120
1,note_on,74,74,0
1,note_on,74,0,120
1,note_on,86,66,0
1,note_on,86,0,120
1,note_on,72,66,0
1,note_on,72,0,120
1,note_on,84,63,0
1,note_on,84,0,240
1,note_on,82,61,0
1,note_on,82,0,120
1,note_on,81,61,0
1,note_on,81,0,120
1,note_on,79,61,0
1,note_on,79,0,120
1,note_on,78,61,0
1,note_on,78,0,120
1,note_on,79,59,0
1,note_on,79,0,120
1,note_on,77,57,0
1,note_on,77,0,120
1,note_on,75,54,0
1,note_on,75,0,120
1,note_on,74,53,0
1,note_on,74,0,120
1,note_on,72,51,0
1,note_on,72,0,120
1,note_on,70,48,0
1,note_on,70,0,120
1,note_on,69,46,0
1,note_on,69,0,120
1,note_on,67,42,0
1,note_on,67,0,360
1,note_on,69,39,0
1,note_on,69,0,120
1,note_on,66,39,0
1,note_on,66,0,240
1,note_on,67,31,480
1,note_on,67,0,120
1,note_on,67,31,120
1,note_on,67,0,120
1,note_on,74,36,360
1,note_on,74,0,120
1,note_on,74,37,0
1,note_on,74,0,120
1,note_on,67,37,360
1,note_on,67,0,240
1,note_on,72,39,0
1,note_on,72,0,240
1,note_on,66,37,240
1,note_on,66,0,240
1,note_on,70,39,0
1,note_on,70,0,240
1,note_on,61,44,240
1,note_on,61,0,240
1,note_on,62,45,0
1,note_on,62,0,240
1,note_on,67,70,240
1,note_on,67,0,120
1,note_on,79,63,0
1,note_on,79,0,120
1,note_on,69,68,0
1,note_on,69,0,120
1,note_on,79,63,0
1,note_on,79,0,120
1,note_on,78,63,0
1,note_on,78,0,120
1,note_on,69,63,0
1,note_on,69,0,120
1,note_on,67,67,0
1,note_on,67,0,120
1,note_on,79,67,0
1,note_on,79,0,120
1,note_on,69,64,0
1,note_on,69,0,120
1,note_on,79,64,0
1,note_on,79,0,120
1,note_on,78,64,0
1,note_on,78,0,120
1,note_on,69,64,0
1,note_on,69,0,120
1,note_on,67,70,0
1,note_on,67,0,120
1,note_on,79,70,0
1,note_on,79,0,120
1,note_on,75,75,0
1,note_on,75,0,120
1,note_on,87,67,0
1,note_on,87,0,120
1,note_on,74,74,0
1,note_on,74,0,120
1,note_on,86,64,0
1,note_on,86,0,120
1,note_on,72,64,0
1,note_on,72,0,120
1,note_on,84,60,0
1,note_on,84,0,240
1,note_on,82,57,0
1,note_on,82,0,120
1,note_on,81,57,0
1,note_on,81,0,120
1,note_on,79,57,0
1,note_on,79,0,120
1,note_on,78,57,0
1,note_on,78,0,120
1,note_on,79,56,0
1,note_on,79,0,120
1,note_on,77,55,0
1,note_on,77,0,120
1,note_on,75,54,0
1,note_on,75,0,120
1,note_on,74,52,0
1,note_on,74,0,120
1,note_on,72,49,0
1,note_on,72,0,120
1,note_on,70,45,0
1,note_on,70,0,120
1,note_on,69,44,0
1,note_on,69,0,120
1,note_on,67,42,0
1,note_on,67,0,360
1,note_on,69,39,0
1,note_on,69,0,120
1,note_on,66,39,0
1,note_on,66,0,240
1,note_on,67,31,480
1,note_on,67,0,120
1,note_on,67,31,120
1,note_on,67,0,120
1,note_on,67,44,360
1,note_on,67,0,240
1,note_on,67,45,0
1,note_on,67,0,420
1,note_on,71,42,0
1,note_on,71,0,60
1,note_on,69,45,0
1,note_on,69,0,240
1,note_on,62,45,0
1,note_on,62,0,240
1,note_on,66,48,0
1,note_on,66,0,120
1,note_on,64,43,0
1,note_on,64,0,110
1,note_on,67,50,10
1,note_on,67,0,120
1,note_on,66,45,0
1,note_on,66,0,110
1,note_on,69,52,10
1,note_on,69,0,120
1,note_on,67,48,0
1,note_on,67,0,110
1,note_on,72,54,10
1,note_on,72,0,120
1,note_on,71,50,0
1,note_on,71,0,110
1,note_on,74,55,10
1,note_on,74,0,120
1,note_on,71,51,0
1,note_on,71,0,110
1,note_on,67,49,10
1,note_on,67,0,480
1,note_on,62,51,0
1,note_on,69,51,0
1,note_on,69,0,240
1,note_on,62,0,0
1,note_on,62,51,0
1,note_on,70,51,0
1,note_on,70,0,120
1,note_on,71,54,0
1,note_on,71,0,120
1,note_on,72,58,0
1,note_on,72,0,120
1,note_on,73,61,0
1,note_on,73,0,120
1,note_on,74,64,0
1,note_on,74,0,240
1,note_on,62,0,0
1,note_on,66,55,0
1,note_on,62,55,0
1,note_on,74,55,0
1,note_on,74,0,240
1,note_on,72,56,0
1,note_on,72,0,240
1,note_on,66,0,0
1,note_on,67,50,0
1,note_on,71,50,0
1,note_on,71,0,240
1,note_on,67,0,0
1,note_on,62,0,0
1,note_on,67,56,0
1,note_on,71,56,0
1,note_on,71,0,240
1,note_on,67,0,0
1,note_on,66,54,0
1,note_on,69,54,0
1,note_on,69,0,240
1,note_on,66,0,0
1,note_on,66,54,0
1,note_on,69,54,0
1,note_on,69,0,240
1,note_on,66,0,0
1,note_on,66,54,0
1,note_on,69,54,0
1,note_on,69,0,480
1,note_on,66,0,0
1,note_on,68,55,0
1,note_on,71,55,0
1,note_on,71,0,240
1,note_on,68,0,0
1,note_on,72,57,0
1,note_on,72,0,60
1,note_on,69,59,0
1,note_on,69,0,60
1,note_on,71,60,0
1,note_on,71,0,60
1,note_on,72,61,0
1,note_on,72,0,60
1,note_on,74,63,0
1,note_on,74,0,60
1,note_on,76,63,0
1,note_on,76,0,60
1,note_on,78,65,0
1,note_on,78,0,60
1,note_on,80,66,0
1,note_on,80,0,60
1,note_on,81,67,0
1,note_on,81,0,60
1,note_on,83,68,0
1,note_on,83,0,60
1,note_on,84,70,0
1,note_on,84,0,60
1,note_on,86,71,0
1,note_on,86,0,60
1,note_on,84,72,0
1,note_on,88,72,0
1,note_on,88,0,240
1,note_on,84,0,0
1,note_on,83,61,0
1,note_on,86,61,0
1,note_on,86,0,240
1,note_on,83,0,0
1,note_on,81,61,0
1,note_on,84,61,0
1,note_on,84,0,120
1,note_on,86,61,0
1,note_on,86,0,40
1,note_on,84,61,0
1,note_on,84,0,40
1,note_on,83,61,0
1,note_on,83,0,40
1,note_on,84,63,0
1,note_on,84,0,240
1,note_on,81,0,0
1,note_on,79,60,0
1,note_on,83,60,0
1,note_on,83,0,240
1,note_on,79,0,0
1,note_on,86,59,0
1,note_on,86,0,180
1,note_on,88,50,0
1,note_on,88,0,60
1,note_on,86,59,0
1,note_on,86,0,120
1,note_on,84,55,0
1,note_on,84,0,45
1,note_on,86,49,15
1,note_on,86,0,60
1,note_on,84,59,0
1,note_on,84,0,120
1,note_on,83,55,0
1,note_on,83,0,45
1,note_on,84,50,15
1,note_on,84,0,60
1,note_on,83,59,0
1,note_on,83,0,120
1,note_on,81,55,0
1,note_on,81,0,45
1,note_on,83,50,15
1,note_on,83,0,60
1,note_on,81,59,0
1,note_on,81,0,120
1,note_on,79,55,0
1,note_on,79,0,45
1,note_on,81,50,15
1,note_on,81,0,60
1,note_on,79,59,0
1,note_on,79,0,120
1,note_on,78,54,0
1,note_on,78,0,240
1,note_on,81,59,0
1,note_on,81,0,240
1,note_on,79,56,0
1,note_on,79,0,240
1,note_on,76,52,0
1,note_on,76,0,240
1,note_on,73,47,0
1,note_on,73,0,240
1,note_on,74,39,0
1,note_on,74,0,120
1,note_on,76,43,0
1,note_on,76,0,120
1,note_on,74,39,0
1,note_on,74,0,120
1,note_on,76,43,0
1,note_on,76,0,120
1,note_on,74,39,0
1,note_on,74,0,120
1,note_on,74,39,0
1,note_on,74,0,240
1,note_on,67,44,240
1,note_on,67,0,240
1,note_on,67,45,0
1,note_on,67,0,420
1,note_on,71,42,0
1,note_on,71,0,60
1,note_on,69,45,0
1,note_on,69,0,240
1,note_on,62,45,0
1,note_on,62,0,240
1,note_on,66,48,0
1,note_on,66,0,120
1,note_on,64,45,0
1,note_on,64,0,110
1,note_on,67,52,10
1,note_on,67,0,120
1,note_on,66,46,0
1,note_on,66,0,110
1,note_on,69,52,10
1,note_on,69,0,120
1,note_on,67,46,0
1,note_on,67,0,110
1,note_on,72,54,10
1,note_on,72,0,120
1,note_on,71,51,0
1,note_on,71,0,110
1,note_on,74,55,10
1,note_on,74,0,120
1,note_on,71,51,0
1,note_on,71,0,110
1,note_on,67,49,10
1,note_on,67,0,480
1,note_on,62,51,0
1,note_on,69,51,0
1,note_on,69,0,240
1,note_on,62,0,0
1,note_on,62,51,0
1,note_on,70,51,0
1,note_on,70,0,120
1,note_on,71,54,0
1,note_on,71,0,120
1,note_on,72,58,0
1,note_on,72,0,120
1,note_on,73,61,0
1,note_on,73,0,120
1,note_on,74,64,0
1,note_on,74,0,240
1,note_on,62,0,0
1,note_on,66,55,0
1,note_on,62,55,0
1,note_on,74,55,0
1,note_on,74,0,240
1,note_on,72,56,0
1,note_on,72,0,240
1,note_on,66,0,0
1,note_on,67,51,0
1,note_on,71,51,0
1,note_on,71,0,240
1,note_on,67,0,0
1,note_on,62,0,0
1,note_on,67,56,0
1,note_on,71,56,0
1,note_on,71,0,240
1,note_on,67,0,0
1,note_on,66,54,0
1,note_on,69,54,0
1,note_on,69,0,240
1,note_on,66,0,0
1,note_on,66,54,0
1,note_on,69,54,0
1,note_on,69,0,240
1,note_on,66,0,0
1,note_on,66,54,0
1,note_on,69,54,0
1,note_on,69,0,480
1,note_on,66,0,0
1,note_on,68,55,0
1,note_on,71,55,0
1,note_on,71,0,240
1,note_on,68,0,0
1,note_on,72,61,0
1,note_on,72,0,60
1,note_on,69,61,0
1,note_on,69,0,60
1,note_on,71,62,0
1,note_on,71,0,60
1,note_on,72,63,0
1,note_on,72,0,60
1,note_on,74,64,0
1,note_on,74,0,60
1,note_on,76,65,0
1,note_on,76,0,60
1,note_on,78,66,0
1,note_on,78,0,60
1,note_on,80,66,0
1,note_on,80,0,60
1,note_on,81,67,0
1,note_on,81,0,60
1,note_on,83,68,0
1,note_on,83,0,60
1,note_on,84,70,0
1,note_on,84,0,60
1,note_on,86,71,0
1,note_on,86,0,60
1,note_on,84,72,0
1,note_on,88,72,0
1,note_on,88,0,240
1,note_on,84,0,0
1,note_on,83,61,0
1,note_on,86,61,0
1,note_on,86,0,240
1,note_on,83,0,0
1,note_on,81,61,0
1,note_on,84,61,0
1,note_on,84,0,120
1,note_on,86,61,0
1,note_on,86,0,40
1,note_on,84,61,0
1,note_on,84,0,40
1,note_on,83,61,0
1,note_on,83,0,40
1,note_on,84,63,0
1,note_on,84,0,240
1,note_on,81,0,0
1,note_on,79,60,0
1,note_on,83,60,0
1,note_on,83,0,240
1,note_on,79,0,0
1,note_on,86,59,0
1,note_on,86,0,180
1,note_on,88,50,0
1,note_on,88,0,60
1,note_on,86,59,0
1,note_on,86,0,120
1,note_on,84,55,0
1,note_on,84,0,45
1,note_on,86,49,15
1,note_on,86,0,60
1,note_on,84,59,0
1,note_on,84,0,120
1,note_on,83,55,0
1,note_on,83,0,45
1,note_on,84,50,15
1,note_on,84,0,60
1,note_on,83,59,0
1,note_on,83,0,120
1,note_on,81,55,0
1,note_on,81,0,45
1,note_on,83,50,15
1,note_on,83,0,60
1,note_on,81,59,0
1,note_on,81,0,120
1,note_on,79,55,0
1,note_on,79,0,45
1,note_on,81,50,15
1,note_on,81,0,60
1,note_on,79,59,0
1,note_on,79,0,120
1,note_on,78,54,0
1,note_on,78,0,240
1,note_on,81,59,0
1,note_on,81,0,240
1,note_on,79,56,0
1,note_on,79,0,240
1,note_on,76,52,0
1,note_on,76,0,240
1,note_on,73,47,0
1,note_on,73,0,240
1,note_on,74,39,0
1,note_on,74,0,120
1,note_on,76,43,0
1,note_on,76,0,120
1,note_on,74,39,0
1,note_on,74,0,120
1,note_on,76,43,0
1,note_on,76,0,120
1,note_on,74,39,0
1,note_on,74,0,120
1,note_on,74,39,0
1,note_on,74,0,240
1,note_on,79,43,240
1,note_on,79,0,240
1,note_on,78,43,0
1,note_on,78,0,120
1,note_on,79,43,0
1,note_on,79,0,90
1,note_on,81,45,30
1,note_on,81,0,120
1,note_on,79,43,0
1,note_on,79,0,90
1,note_on,81,46,30
1,note_on,81,0,120
1,note_on,79,43,0
1,note_on,79,0,90
1,note_on,81,46,30
1,note_on,81,0,120
1,note_on,79,43,0
1,note_on,79,0,90
1,note_on,79,46,30
1,note_on,79,0,120
1,note_on,78,43,0
1,note_on,78,0,90
1,note_on,78,45,30
1,note_on,78,0,120
1,note_on,76,43,0
1,note_on,76,0,90
1,note_on,76,47,30
1,note_on,76,0,120
1,note_on,74,45,0
1,note_on,74,0,90
1,note_on,74,44,30
1,note_on,74,0,60
1,note_on,74,45,60
1,note_on,74,0,60
1,note_on,74,45,60
1,note_on,74,0,60
1,note_on,74,46,60
1,note_on,74,0,60
1,note_on,76,51,60
1,note_on,76,0,120
1,note_on,75,47,0
1,note_on,75,0,120
1,note_on,75,47,0
1,note_on,75,0,60
1,note_on,75,47,60
1,note_on,75,0,60
1,note_on,75,47,60
1,note_on,75,0,60
1,note_on,75,47,60
1,note_on,75,0,60
1,note_on,75,52,60
1,note_on,75,0,120
1,note_on,76,49,0
1,note_on,76,0,120
1,note_on,78,49,0
1,note_on,78,0,120
1,note_on,76,49,0
1,note_on,76,0,120
1,note_on,79,52,0
1,note_on,79,0,120
1,note_on,78,49,0
1,note_on,78,0,120
1,note_on,81,50,0
1,note_on,81,0,120
1,note_on,79,51,0
1,note_on,79,0,120
1,note_on,78,53,0
1,note_on,78,0,120
1,note_on,76,54,0
1,note_on,76,0,120
1,note_on,74,56,0
1,note_on,74,0,120
1,note_on,73,59,0
1,note_on,73,0,120
1,note_on,74,79,0
1,note_on,74,0,120
1,note_on,86,65,0
1,note_on,86,0,120
1,note_on,74,60,0
1,note_on,74,0,60
1,note_on,74,60,60
1,note_on,74,0,60
1,note_on,74,60,60
1,note_on,74,0,60
1,note_on,74,60,60
1,note_on,74,0,60
1,note_on,74,81,60
1,note_on,74,0,120
1,note_on,86,65,0
1,note_on,86,0,120
1,note_on,74,60,0
1,note_on,74,0,60
1,note_on,74,60,60
1,note_on,74,0,60
1,note_on,74,60,60
1,note_on,74,0,60
1,note_on,74,60,60
1,note_on,74,0,60
1,note_on,74,79,60
1,note_on,74,0,60
1,note_on,78,57,0
1,note_on,78,0,60
1,note_on,81,61,0
1,note_on,81,0,60
1,note_on,86,55,0
1,note_on,86,0,60
1,note_on,74,62,0
1,note_on,74,0,60
1,note_on,74,57,60
1,note_on,74,0,60
1,note_on,74,57,60
1,note_on,74,0,60
1,note_on,74,57,60
1,note_on,74,0,60
1,note_on,74,76,60
1,note_on,74,0,60
1,note_on,78,54,0
1,note_on,78,0,60
1,note_on,81,59,0
1,note_on,81,0,60
1,note_on,86,52,0
1,note_on,86,0,60
1,note_on,74,57,0
1,note_on,74,0,60
1,note_on,74,57,60
1,note_on,74,0,60
1,note_on,74,57,60
1,note_on,74,0,60
1,note_on,74,57,60
1,note_on,74,0,60
1,note_on,74,75,60
1,note_on,74,0,120
1,note_on,86,59,0
1,note_on,86,0,120
1,note_on,86,57,0
1,note_on,86,0,60
1,note_on,86,57,60
1,note_on,86,0,60
1,note_on,86,57,60
1,note_on,86,0,60
1,note_on,86,57,60
1,note_on,86,0,60
1,note_on,85,68,60
1,note_on,85,0,120
1,note_on,86,59,0
1,note_on,86,0,120
1,note_on,86,57,0
1,note_on,86,0,60
1,note_on,86,57,60
1,note_on,86,0,60
1,note_on,86,57,60
1,note_on,86,0,60
1,note_on,86,57,60
1,note_on,86,0,60
1,note_on,87,73,60
1,note_on,87,0,120
1,note_on,86,59,0
1,note_on,86,0,120
1,note_on,86,57,0
1,note_on,86,0,60
1,note_on,86,57,60
1,note_on,86,0,60
1,note_on,86,57,60
1,note_on,86,0,60
1,note_on,86,57,60
1,note_on,86,0,60
1,note_on,85,67,60
1,note_on,85,0,120
1,note_on,86,59,0
1,note_on,86,0,120
1,note_on,86,57,0
1,note_on,86,0,60
1,note_on,86,57,60
1,note_on,86,0,60
1,note_on,86,57,60
1,note_on,86,0,60
1,note_on,86,57,60
1,note_on,86,0,60
1,note_on,86,58,60
1,note_on,86,0,60
1,note_on,86,58,60
1,note_on,86,0,60
1,note_on,86,58,60
1,note_on,86,0,60
1,note_on,86,57,60
1,note_on,86,0,60
1,note_on,86,55,60
1,note_on,86,0,60
1,note_on,86,55,60
1,note_on,86,0,60
1,note_on,86,54,60
1,note_on,86,0,120
1,note_on,86,52,120
1,note_on,86,0,120
1,note_on,86,52,120
1,note_on,86,0,120
1,note_on,84,51,120
1,note_on,86,51,0
1,note_on,86,0,120
1,note_on,84,0,0
1,note_on,84,49,120
1,note_on,86,49,0
1,note_on,86,0,120
1,note_on,84,0,0
1,note_on,84,49,120
1,note_on,86,49,0
1,note_on,86,0,120
1,note_on,84,0,0
1,note_on,84,46,120
1,note_on,86,46,0
1,note_on,86,0,180
1,note_on,84,0,0
1,note_on,84,45,60
1,note_on,86,45,0
1,note_on,86,0,180
1,note_on,84,0,0
1,note_on,84,45,60
1,note_on,86,45,0
1,note_on,86,0,180
1,note_on,84,0,0
1,note_on,84,42,60
1,note_on,86,42,0
1,note_on,86,0,240
1,note_on,84,0,0
1,note_on,84,40,0
1,note_on,86,40,0
1,note_on,86,0,240
1,note_on,84,0,0
1,note_on,84,37,0
1,note_on,86,37,0
1,note_on,86,0,240
1,note_on,84,0,0
1,note_on,84,36,0
1,note_on,86,36,0
1,note_on,86,0,720
1,note_on,84,0,0
1,note_on,72,31,480
1,note_on,74,31,0
1,note_on,74,0,240
1,note_on,72,0,0
1,note_on,74,31,0
1,note_on,72,31,0
1,note_on,72,0,480
1,note_on,74,0,0
1,note_on,67,46,0
1,note_on,67,0,240
1,note_on,67,49,0
1,note_on,67,0,420
1,note_on,71,47,0
1,note_on,71,0,60
1,note_on,69,47,0
1,note_on,69,0,240
1,note_on,62,49,0
1,note_on,62,0,240
1,note_on,64,45,0
1,note_on,64,0,240
1,note_on,66,45,0
1,note_on,66,0,120
1,note_on,67,45,0
1,note_on,66,45,30
1,note_on,67,0,10
1,note_on,64,45,20
1,note_on,66,0,10
1,note_on,66,45,20
1,note_on,64,0,10
1,note_on,67,46,20
1,note_on,66,0,10
1,note_on,67,0,80
1,note_on,67,45,150
1,note_on,67,0,90
1,note_on,67,45,150
1,note_on,67,0,90
1,note_on,67,45,150
1,note_on,67,0,480
1,note_on,62,56,0
1,note_on,66,56,0
1,note_on,69,56,0
1,note_on,69,0,240
1,note_on,66,0,0
1,note_on,62,0,0
1,note_on,62,60,0
1,note_on,67,60,0
1,note_on,71,60,0
1,note_on,71,0,240
1,note_on,67,0,0
1,note_on,62,0,0
1,note_on,62,52,210
1,note_on,67,54,10
1,note_on,71,56,10
1,note_on,74,60,10
1,note_on,74,0,170
1,note_on,62,0,0
1,note_on,67,0,0
1,note_on,71,0,0
1,note_on,62,54,40
1,note_on,66,56,10
1,note_on,69,59,10
1,note_on,72,61,10
1,note_on,72,0,480
1,note_on,62,0,0
1,note_on,66,0,0
1,note_on,69,0,0
1,note_on,62,54,0
1,note_on,67,54,0
1,note_on,71,54,0
1,note_on,71,0,240
1,note_on,67,0,0
1,note_on,62,0,0
1,note_on,69,56,240
1,note_on,69,0,60
1,note_on,71,59,0
1,note_on,71,0,60
1,note_on,73,60,0
1,note_on,73,0,60
1,note_on,74,61,0
1,note_on,74,0,60
1,note_on,76,63,0
1,note_on,76,0,60
1,note_on,78,63,0
1,note_on,78,0,60
1,note_on,79,64,0
1,note_on,79,0,30
1,note_on,81,65,0
1,note_on,81,0,30
1,note_on,83,66,0
1,note_on,83,0,30
1,note_on,85,69,0
1,note_on,85,0,30
1,note_on,86,84,0
1,note_on,86,0,480
1,note_on,68,43,0
1,note_on,71,43,0
1,note_on,71,0,240
1,note_on,68,0,0
1,note_on,69,45,0
1,note_on,72,45,0
1,note_on,72,0,240
1,note_on,69,0,0
1,note_on,71,45,0
1,note_on,74,45,0
1,note_on,74,0,240
1,note_on,71,0,0
1,note_on,72,40,0
1,note_on,76,40,0
1,note_on,76,0,120
1,note_on,72,0,0
1,note_on,72,36,120
1,note_on,76,36,0
1,note_on,76,0,240
1,note_on,72,0,0
1,note_on,66,45,240
1,note_on,69,45,0
1,note_on,69,0,240
1,note_on,66,0,0
1,note_on,67,47,0
1,note_on,71,47,0
1,note_on,71,0,240
1,note_on,67,0,0
1,note_on,69,46,0
1,note_on,72,46,0
1,note_on,72,0,240
1,note_on,69,0,0
1,note_on,71,41,0
1,note_on,74,41,0
1,note_on,74,0,120
1,note_on,71,0,0
1,note_on,71,37,120
1,note_on,74,37,0
1,note_on,74,0,240
1,note_on,71,0,0
1,note_on,67,39,240
1,note_on,67,0,240
1,note_on,69,43,0
1,note_on,69,0,120
1,note_on,71,44,120
1,note_on,71,0,120
1,note_on,72,44,120
1,note_on,72,0,120
1,note_on,62,44,120
1,note_on,62,0,120
1,note_on,64,42,120
1,note_on,64,0,120
1,note_on,66,42,120
1,note_on,66,0,120
1,note_on,59,47,820
1,note_on,62,51,10
1,note_on,67,54,10
1,note_on,67,0,240
1,note_on,62,0,0
1,note_on,59,0,0
1,note_on,79,43,240
1,note_on,79,0,240
1,note_on,78,43,0
1,note_on,78,0,120
1,note_on,79,43,0
1,note_on,79,0,90
1,note_on,81,45,30
1,note_on,81,0,120
1,note_on,79,43,0
1,note_on,79,0,90
1,note_on,81,46,30
1,note_on,81,0,120
1,note_on,79,43,0
1,note_on,79,0,90
1,note_on,81,46,30
1,note_on,81,0,120
1,note_on,79,43,0
1,note_on,79,0,90
1,note_on,79,46,30
1,note_on,79,0,120
1,note_on,78,43,0
1,note_on,78,0,90
1,note_on,78,45,30
1,note_on,78,0,120
1,note_on,76,43,0
1,note_on,76,0,90
1,note_on,76,47,30
1,note_on,76,0,120
1,note_on,74,45,0
1,note_on,74,0,90
1,note_on,74,44,30
1,note_on,74,0,60
1,note_on,74,45,60
1,note_on,74,0,60
1,note_on,74,45,60
1,note_on,74,0,60
1,note_on,74,46,60
1,note_on,74,0,60
1,note_on,76,51,60
1,note_on,76,0,120
1,note_on,75,47,0
1,note_on,75,0,120
1,note_on,75,47,0
1,note_on,75,0,60
1,note_on,75,47,60
1,note_on,75,0,60
1,note_on,75,47,60
1,note_on,75,0,60
1,note_on,75,47,60
1,note_on,75,0,60
1,note_on,75,52,60
1,note_on,75,0,120
1,note_on,76,49,0
1,note_on,76,0,120
1,note_on,78,49,0
1,note_on,78,0,120
1,note_on,76,49,0
1,note_on,76,0,120
1,note_on,79,52,0
1,note_on,79,0,120
1,note_on,78,49,0
1,note_on,78,0,120
1,note_on,81,50,0
1,note_on,81,0,120
1,note_on,79,51,0
1,note_on,79,0,120
1,note_on,78,52,0
1,note_on,78,0,120
1,note_on,76,52,0
1,note_on,76,0,120
1,note_on,74,53,0
1,note_on,74,0,120
1,note_on,73,54,0
1,note_on,73,0,120
1,note_on,74,76,0
1,note_on,74,0,120
1,note_on,86,61,0
1,note_on,86,0,120
1,note_on,74,57,0
1,note_on,74,0,60
1,note_on,74,57,60
1,note_on,74,0,60
1,note_on,74,57,60
1,note_on,74,0,60
1,note_on,74,57,60
1,note_on,74,0,60
1,note_on,74,77,60
1,note_on,74,0,120
1,note_on,86,61,0
1,note_on,86,0,120
1,note_on,74,57,0
1,note_on,74,0,60
1,note_on,74,57,60
1,note_on,74,0,60
1,note_on,74,57,60
1,note_on,74,0,60
1,note_on,74,57,60
1,note_on,74,0,60
1,note_on,74,75,60
1,note_on,74,0,60
1,note_on,78,55,0
1,note_on,78,0,60
1,note_on,81,61,0
1,note_on,81,0,60
1,note_on,86,55,0
1,note_on,86,0,60
1,note_on,74,57,0
1,note_on,74,0,60
1,note_on,74,57,60
1,note_on,74,0,60
1,note_on,74,57,60
1,note_on,74,0,60
1,note_on,74,57,60
1,note_on,74,0,60
1,note_on,74,73,60
1,note_on,74,0,60
1,note_on,78,54,0
1,note_on,78,0,60
1,note_on,81,60,0
1,note_on,81,0,60
1,note_on,86,54,0
1,note_on,86,0,60
1,note_on,74,57,0
1,note_on,74,0,60
1,note_on,74,57,60
1,note_on,74,0,60
1,note_on,74,57,60
1,note_on,74,0,60
1,note_on,74,57,60
1,note_on,74,0,60
1,note_on,74,72,60
1,note_on,74,0,120
1,note_on,86,59,0
1,note_on,86,0,120
1,note_on,86,57,0
1,note_on,86,0,60
1,note_on,86,57,60
1,note_on,86,0,60
1,note_on,86,57,60
1,note_on,86,0,60
1,note_on,86,57,60
1,note_on,86,0,60
1,note_on,85,65,60
1,note_on,85,0,120
1,note_on,86,59,0
1,note_on,86,0,120
1,note_on,86,57,0
1,note_on,86,0,60
1,note_on,86,57,60
1,note_on,86,0,60
1,note_on,86,57,60
1,note_on,86,0,60
1,note_on,86,57,60
1,note_on,86,0,60
1,note_on,87,72,60
1,note_on,87,0,120
1,note_on,86,59,0
1,note_on,86,0,120
1,note_on,86,57,0
1,note_on,86,0,60
1,note_on,86,57,60
1,note_on,86,0,60
1,note_on,86,57,60
1,note_on,86,0,60
1,note_on,86,57,60
1,note_on,86,0,60
1,note_on,85,68,60
1,note_on,85,0,120
1,note_on,86,59,0
1,note_on,86,0,120
1,note_on,86,57,0
1,note_on,86,0,60
1,note_on,86,57,60
1,note_on,86,0,60
1,note_on,86,57,60
1,note_on,86,0,60
1,note_on,86,57,60
1,note_on,86,0,60
1,note_on,86,58,60
1,note_on,86,0,60
1,note_on,86,57,60
1,note_on,86,0,60
1,note_on,86,56,60
1,note_on,86,0,60
1,note_on,86,55,60
1,note_on,86,0,60
1,note_on,86,54,60
1,note_on,86,0,60
1,note_on,86,54,60
1,note_on,86,0,60
1,note_on,86,54,60
1,note_on,86,0,120
1,note_on,86,52,120
1,note_on,86,0,120
1,note_on,86,52,120
1,note_on,86,0,120
1,note_on,84,51,120
1,note_on,86,51,0
1,note_on,86,0,120
1,note_on,84,0,0
1,note_on,84,49,120
1,note_on,86,49,0
1,note_on,86,0,120
1,note_on,84,0,0
1,note_on,84,49,120
1,note_on,86,49,0
1,note_on,86,0,120
1,note_on,84,0,0
1,note_on,84,46,120
1,note_on,86,46,0
1,note_on,86,0,180
1,note_on,84,0,0
1,note_on,84,45,60
1,note_on,86,45,0
1,note_on,86,0,180
1,note_on,84,0,0
1,note_on,84,45,60
1,note_on,86,45,0
1,note_on,86,0,180
1,note_on,84,0,0
1,note_on,84,42,60
1,note_on,86,42,0
1,note_on,86,0,240
1,note_on,84,0,0
1,note_on,84,40,0
1,note_on,86,40,0
1,note_on,86,0,240
1,note_on,84,0,0
1,note_on,84,37,0
1,note_on,86,37,0
1,note_on,86,0,240
1,note_on,84,0,0
1,note_on,84,36,0
1,note_on,86,36,0
1,note_on,86,0,720
1,note_on,84,0,0
1,note_on,72,31,480
1,note_on,74,31,0
1,note_on,74,0,240
1,note_on,72,0,0
1,note_on,74,31,0
1,note_on,72,31,0
1,note_on,72,0,480
1,note_on,74,0,0
1,note_on,67,46,0
1,note_on,67,0,240
1,note_on,67,49,0
1,note_on,67,0,420
1,note_on,71,47,0
1,note_on,71,0,60
1,note_on,69,47,0
1,note_on,69,0,240
1,note_on,62,49,0
1,note_on,62,0,240
1,note_on,64,45,0
1,note_on,64,0,240
1,note_on,66,45,0
1,note_on,66,0,120
1,note_on,67,45,0
1,note_on,67,0,30
1,note_on,66,45,0
1,note_on,66,0,30
1,note_on,64,45,0
1,note_on,64,0,30
1,note_on,66,45,0
1,note_on,66,0,30
1,note_on,67,46,0
1,note_on,67,0,90
1,note_on,67,45,150
1,note_on,67,0,90
1,note_on,67,45,150
1,note_on,67,0,90
1,note_on,67,45,150
1,note_on,67,0,480
1,note_on,62,56,0
1,note_on,66,56,0
1,note_on,69,56,0
1,note_on,69,0,240
1,note_on,66,0,0
1,note_on,62,0,0
1,note_on,62,60,0
1,note_on,67,60,0
1,note_on,71,60,0
1,note_on,71,0,240
1,note_on,67,0,0
1,note_on,62,0,0
1,note_on,62,52,210
1,note_on,67,54,10
1,note_on,71,57,10
1,note_on,74,61,10
1,note_on,74,0,170
1,note_on,62,0,0
1,note_on,67,0,0
1,note_on,71,0,0
1,note_on,62,53,40
1,note_on,66,55,10
1,note_on,69,57,10
1,note_on,72,61,10
1,note_on,72,0,480
1,note_on,62,0,0
1,note_on,66,0,0
1,note_on,69,0,0
1,note_on,62,54,0
1,note_on,67,54,0
1,note_on,71,54,0
1,note_on,71,0,240
1,note_on,67,0,0
1,note_on,62,0,0
1,note_on,69,56,240
1,note_on,69,0,60
1,note_on,71,59,0
1,note_on,71,0,60
1,note_on,73,60,0
1,note_on,73,0,60
1,note_on,74,61,0
1,note_on,74,0,60
1,note_on,76,63,0
1,note_on,76,0,60
1,note_on,78,63,0
1,note_on,78,0,60
1,note_on,79,64,0
1,note_on,79,0,30
1,note_on,81,65,0
1,note_on,81,0,30
1,note_on,83,66,0
1,note_on,83,0,30
1,note_on,85,69,0
1,note_on,85,0,30
1,note_on,86,84,0
1,note_on,86,0,480
1,note_on,68,43,0
1,note_on,71,43,0
1,note_on,71,0,240
1,note_on,68,0,0
1,note_on,69,45,0
1,note_on,72,45,0
1,note_on,72,0,240
1,note_on,69,0,0
1,note_on,71,45,0
1,note_on,74,45,0
1,note_on,74,0,240
1,note_on,71,0,0
1,note_on,72,40,0
1,note_on,76,40,0
1,note_on,76,0,120
1,note_on,72,0,0
1,note_on,72,36,120
1,note_on,76,36,0
1,note_on,76,0,240
1,note_on,72,0,0
1,note_on,66,45,240
1,note_on,69,45,0
1,note_on,69,0,240
1,note_on,66,0,0
1,note_on,67,47,0
1,note_on,71,47,0
1,note_on,71,0,240
1,note_on,67,0,0
1,note_on,69,46,0
1,note_on,72,46,0
1,note_on,72,0,240
1,note_on,69,0,0
1,note_on,71,41,0
1,note_on,74,41,0
1,note_on,74,0,120
1,note_on,71,0,0
1,note_on,71,37,120
1,note_on,74,37,0
1,note_on,74,0,240
1,note_on,71,0,0
1,note_on,67,39,240
1,note_on,67,0,240
1,note_on,69,43,0
1,note_on,69,0,120
1,note_on,71,44,120
1,note_on,71,0,120
1,note_on,72,44,120
1,note_on,72,0,120
1,note_on,62,44,120
1,note_on,62,0,120
1,note_on,64,42,120
1,note_on,64,0,120
1,note_on,66,42,120
1,note_on,66,0,120
1,note_on,59,50,820
1,note_on,62,50,10
1,note_on,67,55,10
1,note_on,67,0,240
1,note_on,62,0,0
1,note_on,59,0,0
2,note_on,59,38,1
2,note_on,55,38,0
2,note_on,55,0,240
2,note_on,59,0,0
2,note_on,55,40,0
2,note_on,59,40,0
2,note_on,59,0,480
2,note_on,55,0,0
2,note_on,55,38,0
2,note_on,60,38,0
2,note_on,60,0,240
2,note_on,55,0,0
2,note_on,55,40,0
2,note_on,60,40,0
2,note_on,60,0,480
2,note_on,55,0,0
2,note_on,55,38,0
2,note_on,60,38,0
2,note_on,60,0,240
2,note_on,55,0,0
2,note_on,55,37,0
2,note_on,59,37,0
2,note_on,59,0,90
2,note_on,55,0,0
2,note_on,55,36,150
2,note_on,59,36,0
2,note_on,59,0,90
2,note_on,55,0,0
2,note_on,55,36,150
2,note_on,59,36,0
2,note_on,59,0,90
2,note_on,55,0,0
2,note_on,55,36,150
2,note_on,59,36,0
2,note_on,59,0,480
2,note_on,55,0,0
2,note_on,54,36,0
2,note_on,54,0,180
2,note_on,57,36,0
2,note_on,57,0,60
2,note_on,55,39,0
2,note_on,55,0,240
2,note_on,54,36,0
2,note_on,54,0,240
2,note_on,55,36,0
2,note_on,55,0,240
2,note_on,57,38,0
2,note_on,57,0,480
2,note_on,55,36,0
2,note_on,55,0,240
2,note_on,50,38,0
2,note_on,50,0,240
2,note_on,62,36,0
2,note_on,62,0,240
2,note_on,62,36,0
2,note_on,62,0,240
2,note_on,62,36,0
2,note_on,62,0,240
2,note_on,60,36,0
2,note_on,60,0,240
2,note_on,59,37,0
2,note_on,59,0,240
2,note_on,57,40,0
2,note_on,57,0,480
2,note_on,55,39,0
2,note_on,55,0,240
2,note_on,54,40,0
2,note_on,54,0,240
2,note_on,57,39,0
2,note_on,57,0,240
2,note_on,62,39,0
2,note_on,62,0,240
2,note_on,55,46,0
2,note_on,65,46,480
2,note_on,65,0,240
2,note_on,64,46,0
2,note_on,64,0,240
2,note_on,62,46,0
2,note_on,62,0,240
2,note_on,60,46,0
2,note_on,60,0,240
2,note_on,59,42,0
2,note_on,59,0,240
2,note_on,55,0,0
2,note_on,54,40,0
2,note_on,57,40,0
2,note_on,57,0,240
2,note_on,54,0,0
2,note_on,52,40,0
2,note_on,55,40,0
2,note_on,55,0,240
2,note_on,52,0,0
2,note_on,52,43,0
2,note_on,55,43,0
2,note_on,55,0,240
2,note_on,59,42,0
2,note_on,59,0,240
2,note_on,52,0,0
2,note_on,57,40,0
2,note_on,67,40,0
2,note_on,57,0,240
2,note_on,62,40,0
2,note_on,67,0,240
2,note_on,66,36,0
2,note_on,66,0,240
2,note_on,66,36,0
2,note_on,66,0,240
2,note_on,62,0,0
2,note_on,62,32,0
2,note_on,66,32,0
2,note_on,66,0,480
2,note_on,62,0,0
2,note_on,55,40,240
2,note_on,59,40,0
2,note_on,59,0,480
2,note_on,55,0,0
2,note_on,55,38,0
2,note_on,60,38,0
2,note_on,60,0,240
2,note_on,55,0,0
2,note_on,55,40,0
2,note_on,60,40,0
2,note_on,60,0,480
2,note_on,55,0,0
2,note_on,55,38,0
2,note_on,60,38,0
2,note_on,60,0,240
2,note_on,55,0,0
2,note_on,55,37,0
2,note_on,59,37,0
2,note_on,59,0,90
2,note_on,55,0,0
2,note_on,55,36,150
2,note_on,59,36,0
2,note_on,59,0,90
2,note_on,55,0,0
2,note_on,55,36,150
2,note_on,59,36,0
2,note_on,59,0,90
2,note_on,55,0,0
2,note_on,55,36,150
2,note_on,59,36,0
2,note_on,59,0,480
2,note_on,55,0,0
2,note_on,54,36,0
2,note_on,54,0,180
2,note_on,57,36,0
2,note_on,57,0,60
2,note_on,55,39,0
2,note_on,55,0,240
2,note_on,54,36,0
2,note_on,54,0,240
2,note_on,55,36,0
2,note_on,55,0,240
2,note_on,57,38,0
2,note_on,57,0,480
2,note_on,55,36,0
2,note_on,55,0,240
2,note_on,50,38,0
2,note_on,50,0,240
2,note_on,62,36,0
2,note_on,62,0,240
2,note_on,62,36,0
2,note_on,62,0,240
2,note_on,62,36,0
2,note_on,62,0,240
2,note_on,60,36,0
2,note_on,60,0,240
2,note_on,59,37,0
2,note_on,59,0,240
2,note_on,57,40,0
2,note_on,57,0,480
2,note_on,55,39,0
2,note_on,55,0,240
2,note_on,54,40,0
2,note_on,54,0,240
2,note_on,57,39,0
2,note_on,57,0,240
2,note_on,62,39,0
2,note_on,62,0,240
2,note_on,55,46,0
2,note_on,65,46,480
2,note_on,65,0,240
2,note_on,64,46,0
2,note_on,64,0,240
2,note_on,62,46,0
2,note_on,62,0,240
2,note_on,60,46,0
2,note_on,60,0,240
2,note_on,59,42,0
2,note_on,59,0,240
2,note_on,55,0,0
2,note_on,54,40,0
2,note_on,57,40,0
2,note_on,57,0,240
2,note_on,54,0,0
2,note_on,52,40,0
2,note_on,55,40,0
2,note_on,55,0,240
2,note_on,52,0,0
2,note_on,52,43,0
2,note_on,55,43,0
2,note_on,55,0,240
2,note_on,59,42,0
2,note_on,59,0,240
2,note_on,52,0,0
2,note_on,57,40,0
2,note_on,67,40,0
2,note_on,57,0,240
2,note_on,62,40,0
2,note_on,67,0,240
2,note_on,66,36,0
2,note_on,66,0,240
2,note_on,66,36,0
2,note_on,66,0,240
2,note_on,62,0,0
2,note_on,62,32,0
2,note_on,66,32,0
2,note_on,66,0,480
2,note_on,62,0,0
2,note_on,62,34,0
2,note_on,59,34,0
2,note_on,59,0,240
2,note_on,62,0,0
2,note_on,62,36,0
2,note_on,59,36,0
2,note_on,59,0,480
2,note_on,62,0,0
2,note_on,64,34,0
2,note_on,60,34,0
2,note_on,60,0,240
2,note_on,64,0,0
2,note_on,59,36,0
2,note_on,62,36,0
2,note_on,62,0,240
2,note_on,59,0,0
2,note_on,60,36,0
2,note_on,57,36,0
2,note_on,57,0,240
2,note_on,60,0,0
2,note_on,55,34,0
2,note_on,59,34,0
2,note_on,59,0,240
2,note_on,55,0,0
2,note_on,54,33,0
2,note_on,57,33,0
2,note_on,57,0,90
2,note_on,54,0,0
2,note_on,54,32,150
2,note_on,57,32,0
2,note_on,57,0,90
2,note_on,54,0,0
2,note_on,54,32,150
2,note_on,57,32,0
2,note_on,57,0,90
2,note_on,54,0,0
2,note_on,54,32,150
2,note_on,57,32,0
2,note_on,57,0,240
2,note_on,59,39,0
2,note_on,59,0,240
2,note_on,60,43,0
2,note_on,60,0,240
2,note_on,54,0,0
2,note_on,55,36,0
2,note_on,59,36,0
2,note_on,59,0,240
2,note_on,55,0,0
2,note_on,54,37,0
2,note_on,57,37,0
2,note_on,57,0,240
2,note_on,54,0,0
2,note_on,52,37,0
2,note_on,55,37,0
2,note_on,55,0,240
2,note_on,52,0,0
2,note_on,67,33,0
2,note_on,57,33,0
2,note_on,67,0,240
2,note_on,66,33,0
2,note_on,66,0,240
2,note_on,64,33,0
2,note_on,64,0,240
2,note_on,57,0,0
2,note_on,50,20,240
2,note_on,54,26,0
2,note_on,54,0,240
2,note_on,50,0,0
2,note_on,52,20,0
2,note_on,55,26,0
2,note_on,55,0,180
2,note_on,52,0,0
2,note_on,54,21,300
2,note_on,57,27,0
2,note_on,57,0,240
2,note_on,54,0,0
2,note_on,55,21,0
2,note_on,59,27,0
2,note_on,59,0,180
2,note_on,55,0,0
2,note_on,57,27,300
2,note_on,60,34,0
2,note_on,60,0,240
2,note_on,57,0,0
2,note_on,55,25,0
2,note_on,59,32,0
2,note_on,59,0,180
2,note_on,55,0,0
2,note_on,54,25,300
2,note_on,57,31,0
2,note_on,57,0,240
2,note_on,54,0,0
2,note_on,52,23,0
2,note_on,55,29,0
2,note_on,55,0,180
2,note_on,52,0,0
2,note_on,50,32,60
2,note_on,54,32,0
2,note_on,54,0,240
2,note_on,50,0,0
2,note_on,62,35,240
2,note_on,62,0,120
2,note_on,62,36,120
2,note_on,62,0,120
2,note_on,62,35,360
2,note_on,62,0,120
2,note_on,62,36,120
2,note_on,62,0,120
2,note_on,62,36,360
2,note_on,62,0,120
2,note_on,62,48,120
2,note_on,66,43,240
2,note_on,62,0,120
2,note_on,66,0,120
2,note_on,67,43,0
2,note_on,67,0,240
2,note_on,62,41,0
2,note_on,69,41,0
2,note_on,69,0,1080
2,note_on,62,0,0
2,note_on,55,40,360
2,note_on,59,40,0
2,note_on,59,0,480
2,note_on,55,0,0
2,note_on,55,38,0
2,note_on,60,38,0
2,note_on,60,0,240
2,note_on,55,0,0
2,note_on,55,40,0
2,note_on,60,40,0
2,note_on,60,0,480
2,note_on,55,0,0
2,note_on,55,38,0
2,note_on,60,38,0
2,note_on,60,0,240
2,note_on,55,0,0
2,note_on,55,37,0
2,note_on,59,37,0
2,note_on,59,0,90
2,note_on,55,0,0
2,note_on,55,36,150
2,note_on,59,36,0
2,note_on,59,0,90
2,note_on,55,0,0
2,note_on,55,36,150
2,note_on,59,36,0
2,note_on,59,0,90
2,note_on,55,0,0
2,note_on,55,36,150
2,note_on,59,36,0
2,note_on,59,0,480
2,note_on,55,0,0
2,note_on,54,36,0
2,note_on,54,0,180
2,note_on,57,36,0
2,note_on,57,0,60
2,note_on,55,39,0
2,note_on,55,0,240
2,note_on,54,36,0
2,note_on,54,0,240
2,note_on,55,36,0
2,note_on,55,0,240
2,note_on,57,38,0
2,note_on,57,0,480
2,note_on,55,36,0
2,note_on,55,0,240
2,note_on,50,38,0
2,note_on,50,0,240
2,note_on,62,36,0
2,note_on,62,0,240
2,note_on,62,36,0
2,note_on,62,0,240
2,note_on,62,36,0
2,note_on,62,0,240
2,note_on,60,36,0
2,note_on,60,0,240
2,note_on,59,37,0
2,note_on,59,0,240
2,note_on,57,40,0
2,note_on,57,0,480
2,note_on,55,39,0
2,note_on,55,0,240
2,note_on,54,40,0
2,note_on,54,0,240
2,note_on,57,39,0
2,note_on,57,0,240
2,note_on,62,39,0
2,note_on,62,0,240
2,note_on,55,39,0
2,note_on,55,0,720
2,note_on,43,41,0
2,note_on,43,0,240
2,note_on,47,40,0
2,note_on,47,0,240
2,note_on,52,36,0
2,note_on,52,0,240
2,note_on,48,39,0
2,note_on,48,0,720
2,note_on,50,37,0
2,note_on,50,0,720
2,note_on,43,32,0
2,note_on,43,0,240
2,note_on,47,26,0
2,note_on,47,0,240
2,note_on,50,26,0
2,note_on,50,0,240
2,note_on,55,26,0
2,note_on,55,0,480
2,note_on,62,34,0
2,note_on,59,34,0
2,note_on,59,0,240
2,note_on,62,0,0
2,note_on,62,36,0
2,note_on,59,36,0
2,note_on,59,0,480
2,note_on,62,0,0
2,note_on,64,34,0
2,note_on,60,34,0
2,note_on,60,0,240
2,note_on,64,0,0
2,note_on,59,36,0
2,note_on,62,36,0
2,note_on,62,0,240
2,note_on,59,0,0
2,note_on,60,36,0
2,note_on,57,36,0
2,note_on,57,0,240
2,note_on,60,0,0
2,note_on,55,34,0
2,note_on,59,34,0
2,note_on,59,0,240
2,note_on,55,0,0
2,note_on,54,33,0
2,note_on,57,33,0
2,note_on,57,0,90
2,note_on,54,0,0
2,note_on,54,32,150
2,note_on,57,32,0
2,note_on,57,0,90
2,note_on,54,0,0
2,note_on,54,32,150
2,note_on,57,32,0
2,note_on,57,0,90
2,note_on,54,0,0
2,note_on,54,32,150
2,note_on,57,32,0
2,note_on,57,0,240
2,note_on,59,39,0
2,note_on,59,0,240
2,note_on,60,43,0
2,note_on,60,0,240
2,note_on,54,0,0
2,note_on,55,36,0
2,note_on,59,36,0
2,note_on,59,0,240
2,note_on,55,0,0
2,note_on,54,37,0
2,note_on,57,37,0
2,note_on,57,0,240
2,note_on,54,0,0
2,note_on,52,37,0
2,note_on,55,37,0
2,note_on,55,0,240
2,note_on,52,0,0
2,note_on,67,33,0
2,note_on,57,33,0
2,note_on,67,0,240
2,note_on,66,33,0
2,note_on,66,0,240
2,note_on,64,33,0
2,note_on,64,0,240
2,note_on,57,0,0
2,note_on,50,21,240
2,note_on,54,27,0
2,note_on,54,0,240
2,note_on,50,0,0
2,note_on,52,21,0
2,note_on,55,27,0
2,note_on,55,0,180
2,note_on,52,0,0
2,note_on,54,23,300
2,note_on,57,29,0
2,note_on,57,0,240
2,note_on,54,0,0
2,note_on,55,21,0
2,note_on,59,27,0
2,note_on,59,0,180
2,note_on,55,0,0
2,note_on,57,27,300
2,note_on,60,34,0
2,note_on,60,0,240
2,note_on,57,0,0
2,note_on,55,25,0
2,note_on,59,32,0
2,note_on,59,0,180
2,note_on,55,0,0
2,note_on,54,25,300
2,note_on,57,32,0
2,note_on,57,0,240
2,note_on,54,0,0
2,note_on,52,25,0
2,note_on,55,32,0
2,note_on,55,0,180
2,note_on,52,0,0
2,note_on,50,32,60
2,note_on,54,32,0
2,note_on,54,0,240
2,note_on,50,0,0
2,note_on,62,35,240
2,note_on,62,0,120
2,note_on,62,36,120
2,note_on,62,0,120
2,note_on,62,35,360
2,note_on,62,0,120
2,note_on,62,36,120
2,note_on,62,0,120
2,note_on,62,36,360
2,note_on,62,0,120
2,note_on,62,48,120
2,note_on,66,43,240
2,note_on,62,0,120
2,note_on,66,0,120
2,note_on,67,43,0
2,note_on,67,0,240
2,note_on,62,41,0
2,note_on,69,41,0
2,note_on,69,0,1080
2,note_on,62,0,0
2,note_on,55,40,360
2,note_on,59,40,0
2,note_on,59,0,480
2,note_on,55,0,0
2,note_on,55,38,0
2,note_on,60,38,0
2,note_on,60,0,240
2,note_on,55,0,0
2,note_on,55,40,0
2,note_on,60,40,0
2,note_on,60,0,480
2,note_on,55,0,0
2,note_on,55,38,0
2,note_on,60,38,0
2,note_on,60,0,240
2,note_on,55,0,0
2,note_on,55,37,0
2,note_on,59,37,0
2,note_on,59,0,90
2,note_on,55,0,0
2,note_on,55,36,150
2,note_on,59,36,0
2,note_on,59,0,90
2,note_on,55,0,0
2,note_on,55,36,150
2,note_on,59,36,0
2,note_on,59,0,90
2,note_on,55,0,0
2,note_on,55,36,150
2,note_on,59,36,0
2,note_on,59,0,480
2,note_on,55,0,0
2,note_on,54,36,0
2,note_on,54,0,180
2,note_on,57,36,0
2,note_on,57,0,60
2,note_on,55,39,0
2,note_on,55,0,240
2,note_on,54,36,0
2,note_on,54,0,240
2,note_on,55,36,0
2,note_on,55,0,240
2,note_on,57,38,0
2,note_on,57,0,480
2,note_on,55,36,0
2,note_on,55,0,240
2,note_on,50,38,0
2,note_on,50,0,240
2,note_on,62,36,0
2,note_on,62,0,240
2,note_on,62,36,0
2,note_on,62,0,240
2,note_on,62,36,0
2,note_on,62,0,240
2,note_on,60,36,0
2,note_on,60,0,240
2,note_on,59,37,0
2,note_on,59,0,240
2,note_on,57,40,0
2,note_on,57,0,480
2,note_on,55,39,0
2,note_on,55,0,240
2,note_on,54,40,0
2,note_on,54,0,240
2,note_on,57,39,0
2,note_on,57,0,240
2,note_on,62,39,0
2,note_on,62,0,240
2,note_on,55,39,0
2,note_on,55,0,720
2,note_on,43,41,0
2,note_on,43,0,240
2,note_on,47,40,0
2,note_on,47,0,240
2,note_on,52,36,0
2,note_on,52,0,240
2,note_on,48,39,0
2,note_on,48,0,720
2,note_on,50,37,0
2,note_on,50,0,720
2,note_on,43,32,0
2,note_on,43,0,240
2,note_on,47,26,0
2,note_on,47,0,240
2,note_on,50,26,0
2,note_on,50,0,240
2,note_on,55,26,0
2,note_on,55,0,480
2,note_on,55,24,240
2,note_on,58,28,0
2,note_on,58,0,240
2,note_on,55,0,0
2,note_on,60,32,480
2,note_on,55,27,0
2,note_on,55,0,240
2,note_on,60,0,0
2,note_on,55,28,480
2,note_on,60,34,0
2,note_on,60,0,240
2,note_on,55,0,0
2,note_on,55,45,480
2,note_on,58,54,0
2,note_on,58,0,240
2,note_on,55,0,0
2,note_on,55,57,0
2,note_on,64,57,0
2,note_on,64,0,240
2,note_on,55,0,0
2,note_on,65,52,0
2,note_on,53,52,0
2,note_on,53,0,480
2,note_on,65,0,0
2,note_on,64,57,0
2,note_on,55,57,0
2,note_on,55,0,240
2,note_on,64,0,0
2,note_on,53,51,0
2,note_on,65,51,0
2,note_on,65,0,480
2,note_on,53,0,0
2,note_on,62,54,0
2,note_on,58,54,0
2,note_on,65,54,0
2,note_on,65,0,240
2,note_on,58,0,0
2,note_on,62,0,0
2,note_on,65,52,0
2,note_on,62,52,0
2,note_on,57,52,0
2,note_on,57,0,720
2,note_on,62,0,0
2,note_on,65,0,0
2,note_on,65,51,0
2,note_on,62,51,0
2,note_on,56,51,0
2,note_on,56,0,720
2,note_on,62,0,0
2,note_on,65,0,0
2,note_on,65,40,0
2,note_on,62,40,0
2,note_on,57,40,0
2,note_on,57,0,720
2,note_on,62,0,0
2,note_on,65,0,0
2,note_on,67,31,240
2,note_on,67,0,240
2,note_on,67,31,0
2,note_on,67,0,240
2,note_on,67,28,0
2,note_on,67,0,240
2,note_on,65,22,0
2,note_on,65,0,240
2,note_on,64,21,0
2,note_on,64,0,240
2,note_on,62,22,0
2,note_on,62,0,240
2,note_on,55,24,720
2,note_on,58,28,0
2,note_on,58,0,240
2,note_on,55,0,0
2,note_on,60,30,480
2,note_on,55,25,0
2,note_on,55,0,240
2,note_on,60,0,0
2,note_on,55,26,480
2,note_on,60,31,0
2,note_on,60,0,240
2,note_on,55,0,0
2,note_on,55,45,480
2,note_on,58,54,0
2,note_on,58,0,240
2,note_on,55,0,0
2,note_on,55,57,0
2,note_on,64,57,0
2,note_on,64,0,240
2,note_on,55,0,0
2,note_on,65,52,0
2,note_on,53,52,0
2,note_on,53,0,480
2,note_on,65,0,0
2,note_on,64,57,0
2,note_on,55,57,0
2,note_on,55,0,240
2,note_on,64,0,0
2,note_on,53,51,0
2,note_on,65,51,0
2,note_on,65,0,480
2,note_on,53,0,0
2,note_on,62,54,0
2,note_on,58,54,0
2,note_on,65,54,0
2,note_on,65,0,240
2,note_on,58,0,0
2,note_on,62,0,0
2,note_on,65,52,0
2,note_on,62,52,0
2,note_on,57,52,0
2,note_on,57,0,720
2,note_on,62,0,0
2,note_on,65,0,0
2,note_on,65,51,0
2,note_on,62,51,0
2,note_on,56,51,0
2,note_on,56,0,720
2,note_on,62,0,0
2,note_on,65,0,0
2,note_on,65,40,0
2,note_on,62,40,0
2,note_on,57,40,0
2,note_on,57,0,720
2,note_on,62,0,0
2,note_on,65,0,0
2,note_on,67,31,240
2,note_on,67,0,240
2,note_on,67,31,0
2,note_on,67,0,240
2,note_on,67,29,0
2,note_on,67,0,240
2,note_on,65,24,0
2,note_on,65,0,240
2,note_on,64,22,0
2,note_on,64,0,240
2,note_on,62,22,0
2,note_on,62,0,240
2,note_on,58,23,720
2,note_on,62,23,0
2,note_on,62,0,240
2,note_on,58,0,0
2,note_on,63,27,480
2,note_on,57,27,0
2,note_on,57,0,240
2,note_on,63,0,0
2,note_on,55,27,480
2,note_on,58,27,0
2,note_on,58,0,240
2,note_on,55,0,0
2,note_on,50,45,480
2,note_on,38,45,0
2,note_on,38,0,240
2,note_on,50,0,0
2,note_on,58,45,0
2,note_on,62,55,0
2,note_on,62,0,240
2,note_on,58,0,0
2,note_on,63,50,0
2,note_on,60,42,0
2,note_on,60,0,480
2,note_on,63,0,0
2,note_on,62,55,0
2,note_on,58,45,0
2,note_on,58,0,240
2,note_on,62,0,0
2,note_on,60,41,0
2,note_on,63,49,0
2,note_on,63,0,480
2,note_on,60,0,0
2,note_on,62,52,0
2,note_on,58,44,0
2,note_on,58,0,240
2,note_on,62,0,0
2,note_on,63,46,0
2,note_on,60,46,0
2,note_on,54,39,0
2,note_on,57,39,0
2,note_on,57,0,720
2,note_on,63,0,0
2,note_on,60,0,0
2,note_on,54,0,0
2,note_on,55,36,0
2,note_on,55,0,720
2,note_on,60,38,0
2,note_on,72,33,240
2,note_on,72,0,240
2,note_on,72,33,0
2,note_on,60,0,240
2,note_on,62,38,0
2,note_on,72,0,240
2,note_on,70,36,0
2,note_on,70,0,240
2,note_on,69,34,0
2,note_on,69,0,240
2,note_on,62,0,0
2,note_on,55,26,0
2,note_on,69,26,0
2,note_on,69,0,720
2,note_on,67,27,0
2,note_on,67,0,240
2,note_on,55,0,0
2,note_on,58,24,720
2,note_on,62,24,0
2,note_on,62,0,240
2,note_on,58,0,0
2,note_on,63,27,480
2,note_on,57,27,0
2,note_on,57,0,240
2,note_on,63,0,0
2,note_on,55,27,480
2,note_on,58,27,0
2,note_on,58,0,240
2,note_on,55,0,0
2,note_on,50,45,480
2,note_on,38,45,0
2,note_on,38,0,240
2,note_on,50,0,0
2,note_on,58,45,0
2,note_on,62,55,0
2,note_on,62,0,240
2,note_on,58,0,0
2,note_on,63,50,0
2,note_on,60,42,0
2,note_on,60,0,480
2,note_on,63,0,0
2,note_on,62,55,0
2,note_on,58,45,0
2,note_on,58,0,240
2,note_on,62,0,0
2,note_on,60,41,0
2,note_on,63,49,0
2,note_on,63,0,480
2,note_on,60,0,0
2,note_on,62,52,0
2,note_on,58,44,0
2,note_on,58,0,240
2,note_on,62,0,0
2,note_on,63,46,0
2,note_on,60,46,0
2,note_on,54,39,0
2,note_on,57,39,0
2,note_on,57,0,720
2,note_on,63,0,0
2,note_on,60,0,0
2,note_on,54,0,0
2,note_on,55,36,0
2,note_on,55,0,720
2,note_on,60,38,0
2,note_on,72,33,240
2,note_on,72,0,240
2,note_on,72,33,0
2,note_on,60,0,240
2,note_on,62,38,0
2,note_on,72,0,240
2,note_on,70,36,0
2,note_on,70,0,240
2,note_on,69,34,0
2,note_on,69,0,240
2,note_on,62,0,0
2,note_on,55,26,0
2,note_on,69,26,0
2,note_on,69,0,720
2,note_on,67,27,0
2,note_on,67,0,240
2,note_on,55,0,0
2,note_on,59,38,240
2,note_on,55,38,0
2,note_on,55,0,240
2,note_on,59,0,0
2,note_on,55,40,0
2,note_on,59,40,0
2,note_on,59,0,480
2,note_on,55,0,0
2,note_on,55,38,0
2,note_on,60,38,0
2,note_on,60,0,240
2,note_on,55,0,0
2,note_on,55,40,0
2,note_on,60,40,0
2,note_on,60,0,480
2,note_on,55,0,0
2,note_on,55,38,0
2,note_on,60,38,0
2,note_on,60,0,240
2,note_on,55,0,0
2,note_on,55,34,0
2,note_on,59,34,0
2,note_on,58,30,120
2,note_on,59,0,10
2,note_on,58,0,110
2,note_on,59,33,0
2,note_on,58,30,120
2,note_on,59,0,10
2,note_on,58,0,110
2,note_on,59,32,0
2,note_on,58,31,120
2,note_on,59,0,10
2,note_on,58,0,110
2,note_on,59,36,0
2,note_on,59,0,480
2,note_on,55,0,0
2,note_on,54,36,0
2,note_on,54,0,180
2,note_on,57,41,0
2,note_on,57,0,60
2,note_on,55,39,0
2,note_on,55,0,120
2,note_on,54,36,0
2,note_on,54,0,120
2,note_on,55,39,0
2,note_on,55,0,120
2,note_on,54,36,0
2,note_on,54,0,120
2,note_on,55,39,0
2,note_on,55,0,120
2,note_on,59,36,0
2,note_on,59,0,120
2,note_on,57,38,0
2,note_on,57,0,480
2,note_on,55,36,0
2,note_on,55,0,240
2,note_on,50,38,0
2,note_on,50,0,120
2,note_on,61,32,0
2,note_on,61,0,120
2,note_on,62,37,0
2,note_on,62,0,120
2,note_on,61,33,0
2,note_on,61,0,120
2,note_on,62,37,0
2,note_on,62,0,120
2,note_on,61,33,0
2,note_on,61,0,120
2,note_on,62,38,0
2,note_on,62,0,120
2,note_on,64,36,0
2,note_on,64,0,120
2,note_on,60,38,0
2,note_on,60,0,120
2,note_on,62,36,0
2,note_on,62,0,120
2,note_on,59,39,0
2,note_on,59,0,120
2,note_on,60,36,0
2,note_on,60,0,120
2,note_on,57,40,0
2,note_on,57,0,120
2,note_on,64,37,0
2,note_on,64,0,120
2,note_on,60,37,0
2,note_on,60,0,120
2,note_on,59,36,0
2,note_on,59,0,120
2,note_on,57,36,0
2,note_on,57,0,120
2,note_on,55,36,0
2,note_on,55,0,120
2,note_on,54,36,0
2,note_on,54,0,120
2,note_on,57,35,0
2,note_on,57,0,120
2,note_on,60,36,0
2,note_on,60,0,120
2,note_on,62,37,0
2,note_on,62,0,120
2,note_on,64,39,0
2,note_on,64,0,120
2,note_on,66,40,0
2,note_on,66,0,120
2,note_on,67,46,0
2,note_on,67,0,480
2,note_on,65,45,0
2,note_on,65,0,240
2,note_on,64,45,0
2,note_on,64,0,120
2,note_on,67,42,0
2,note_on,67,0,120
2,note_on,62,44,0
2,note_on,62,0,120
2,note_on,65,40,0
2,note_on,65,0,120
2,note_on,60,43,0
2,note_on,60,0,120
2,note_on,64,38,0
2,note_on,64,0,120
2,note_on,59,42,0
2,note_on,59,0,120
2,note_on,62,39,0
2,note_on,62,0,120
2,note_on,55,42,0
2,note_on,55,0,120
2,note_on,59,39,0
2,note_on,59,0,120
2,note_on,54,42,0
2,note_on,54,0,120
2,note_on,57,39,0
2,note_on,57,0,120
2,note_on,52,43,0
2,note_on,52,0,120
2,note_on,55,42,0
2,note_on,55,0,120
2,note_on,57,41,0
2,note_on,57,0,120
2,note_on,61,41,0
2,note_on,61,0,120
2,note_on,64,40,0
2,note_on,64,0,120
2,note_on,67,39,0
2,note_on,62,40,120
2,note_on,67,0,240
2,note_on,62,34,0
2,note_on,66,34,0
2,note_on,66,0,240
2,note_on,62,0,0
2,note_on,62,34,0
2,note_on,66,34,0
2,note_on,66,0,240
2,note_on,62,0,0
2,note_on,62,0,0
2,note_on,62,32,0
2,note_on,66,32,0
2,note_on,66,0,480
2,note_on,62,0,0
2,note_on,55,40,240
2,note_on,59,40,0
2,note_on,59,0,480
2,note_on,55,0,0
2,note_on,55,38,0
2,note_on,60,38,0
2,note_on,60,0,240
2,note_on,55,0,0
2,note_on,55,40,0
2,note_on,60,40,0
2,note_on,60,0,480
2,note_on,55,0,0
2,note_on,55,38,0
2,note_on,60,38,0
2,note_on,60,0,240
2,note_on,55,0,0
2,note_on,55,37,0
2,note_on,59,37,0
2,note_on,58,32,120
2,note_on,59,0,10
2,note_on,58,0,110
2,note_on,59,36,0
2,note_on,58,33,120
2,note_on,59,0,10
2,note_on,58,0,110
2,note_on,59,35,0
2,note_on,58,32,120
2,note_on,59,0,10
2,note_on,58,0,110
2,note_on,59,36,0
2,note_on,59,0,480
2,note_on,55,0,0
2,note_on,54,36,0
2,note_on,54,0,180
2,note_on,57,41,0
2,note_on,57,0,60
2,note_on,55,39,0
2,note_on,55,0,120
2,note_on,54,36,0
2,note_on,54,0,120
2,note_on,55,39,0
2,note_on,55,0,120
2,note_on,54,36,0
2,note_on,54,0,120
2,note_on,55,39,0
2,note_on,55,0,120
2,note_on,59,36,0
2,note_on,59,0,120
2,note_on,57,38,0
2,note_on,57,0,480
2,note_on,55,36,0
2,note_on,55,0,240
2,note_on,50,38,0
2,note_on,50,0,120
2,note_on,61,36,0
2,note_on,61,0,120
2,note_on,62,37,0
2,note_on,62,0,120
2,note_on,61,36,0
2,note_on,61,0,120
2,note_on,62,37,0
2,note_on,62,0,120
2,note_on,61,36,0
2,note_on,61,0,120
2,note_on,62,38,0
2,note_on,62,0,120
2,note_on,64,36,0
2,note_on,64,0,120
2,note_on,60,38,0
2,note_on,60,0,120
2,note_on,62,36,0
2,note_on,62,0,120
2,note_on,59,39,0
2,note_on,59,0,120
2,note_on,60,36,0
2,note_on,60,0,120
2,note_on,57,40,0
2,note_on,57,0,120
2,note_on,64,37,0
2,note_on,64,0,120
2,note_on,60,37,0
2,note_on,60,0,120
2,note_on,59,36,0
2,note_on,59,0,120
2,note_on,57,36,0
2,note_on,57,0,120
2,note_on,55,36,0
2,note_on,55,0,120
2,note_on,54,36,0
2,note_on,54,0,120
2,note_on,57,35,0
2,note_on,57,0,120
2,note_on,60,36,0
2,note_on,60,0,120
2,note_on,62,37,0
2,note_on,62,0,120
2,note_on,64,39,0
2,note_on,64,0,120
2,note_on,66,40,0
2,note_on,66,0,120
2,note_on,67,46,0
2,note_on,67,0,480
2,note_on,65,45,0
2,note_on,65,0,240
2,note_on,64,45,0
2,note_on,64,0,120
2,note_on,67,42,0
2,note_on,67,0,120
2,note_on,62,44,0
2,note_on,62,0,120
2,note_on,65,40,0
2,note_on,65,0,120
2,note_on,60,43,0
2,note_on,60,0,120
2,note_on,64,38,0
2,note_on,64,0,120
2,note_on,59,42,0
2,note_on,59,0,120
2,note_on,62,39,0
2,note_on,62,0,120
2,note_on,55,42,0
2,note_on,55,0,120
2,note_on,59,39,0
2,note_on,59,0,120
2,note_on,54,42,0
2,note_on,54,0,120
2,note_on,57,39,0
2,note_on,57,0,120
2,note_on,52,43,0
2,note_on,52,0,120
2,note_on,55,42,0
2,note_on,55,0,120
2,note_on,57,41,0
2,note_on,57,0,120
2,note_on,61,41,0
2,note_on,61,0,120
2,note_on,64,40,0
2,note_on,64,0,120
2,note_on,67,39,0
2,note_on,62,40,120
2,note_on,67,0,240
2,note_on,62,34,0
2,note_on,66,34,0
2,note_on,66,0,240
2,note_on,62,0,0
2,note_on,62,34,0
2,note_on,66,34,0
2,note_on,66,0,240
2,note_on,62,0,0
2,note_on,62,0,0
2,note_on,62,32,0
2,note_on,66,32,0
2,note_on,66,0,480
2,note_on,62,0,0
2,note_on,71,34,0
2,note_on,71,0,120
2,note_on,74,34,0
2,note_on,74,0,120
2,note_on,71,34,0
2,note_on,71,0,120
2,note_on,74,32,0
2,note_on,74,0,120
2,note_on,71,34,0
2,note_on,71,0,120
2,note_on,74,31,0
2,note_on,74,0,120
2,note_on,72,34,0
2,note_on,72,0,120
2,note_on,76,31,0
2,note_on,76,0,120
2,note_on,71,34,0
2,note_on,71,0,120
2,note_on,74,32,0
2,note_on,74,0,120
2,note_on,69,34,0
2,note_on,69,0,120
2,note_on,72,32,0
2,note_on,72,0,120
2,note_on,67,34,0
2,note_on,67,0,120
2,note_on,71,31,0
2,note_on,71,0,120
2,note_on,66,33,0
2,note_on,66,0,120
2,note_on,69,31,0
2,note_on,69,0,120
2,note_on,66,33,0
2,note_on,66,0,120
2,note_on,69,32,0
2,note_on,69,0,120
2,note_on,66,33,0
2,note_on,66,0,120
2,note_on,69,31,0
2,note_on,69,0,120
2,note_on,66,33,0
2,note_on,66,0,120
2,note_on,69,31,0
2,note_on,69,0,120
2,note_on,66,33,0
2,note_on,66,0,120
2,note_on,69,32,0
2,note_on,69,0,120
2,note_on,66,33,0
2,note_on,66,0,120
2,note_on,69,31,0
2,note_on,69,0,120
2,note_on,67,36,0
2,note_on,67,0,480
2,note_on,67,33,240
2,note_on,64,33,0
2,note_on,61,33,0
2,note_on,57,33,0
2,note_on,57,0,480
2,note_on,67,0,0
2,note_on,64,0,0
2,note_on,61,0,0
2,note_on,50,32,360
2,note_on,50,0,120
2,note_on,54,33,0
2,note_on,54,0,120
2,note_on,50,31,0
2,note_on,50,0,120
2,note_on,52,32,0
2,note_on,52,0,120
2,note_on,55,35,0
2,note_on,55,0,120
2,note_on,54,35,120
2,note_on,54,0,120
2,note_on,57,38,0
2,note_on,57,0,120
2,note_on,54,33,0
2,note_on,54,0,120
2,note_on,55,35,0
2,note_on,55,0,120
2,note_on,59,37,0
2,note_on,59,0,120
2,note_on,57,36,120
2,note_on,57,0,120
2,note_on,60,39,0
2,note_on,60,0,120
2,note_on,57,36,0
2,note_on,57,0,120
2,note_on,59,38,0
2,note_on,59,0,120
2,note_on,55,36,0
2,note_on,55,0,120
2,note_on,54,33,120
2,note_on,54,0,120
2,note_on,57,36,0
2,note_on,57,0,120
2,note_on,54,33,0
2,note_on,54,0,120
2,note_on,55,36,0
2,note_on,55,0,120
2,note_on,52,33,0
2,note_on,52,0,120
2,note_on,50,34,0
2,note_on,50,0,240
2,note_on,50,32,240
2,note_on,50,0,240
2,note_on,50,34,0
2,note_on,50,0,240
2,note_on,38,50,240
2,note_on,38,0,240
2,note_on,38,57,0
2,note_on,38,0,1440
2,note_on,48,39,120
2,note_on,48,0,120
2,note_on,57,42,0
2,note_on,57,0,120
2,note_on,54,36,0
2,note_on,54,0,120
2,note_on,60,37,0
2,note_on,60,0,120
2,note_on,57,33,0
2,note_on,57,0,120
2,note_on,66,36,0
2,note_on,66,0,720
2,note_on,55,40,0
2,note_on,59,40,0
2,note_on,59,0,480
2,note_on,55,0,0
2,note_on,55,38,0
2,note_on,60,38,0
2,note_on,60,0,240
2,note_on,55,0,0
2,note_on,55,40,0
2,note_on,60,40,0
2,note_on,60,0,480
2,note_on,55,0,0
2,note_on,55,38,0
2,note_on,60,38,0
2,note_on,60,0,240
2,note_on,55,0,0
2,note_on,55,37,0
2,note_on,59,37,0
2,note_on,58,33,120
2,note_on,59,0,10
2,note_on,58,0,110
2,note_on,59,36,0
2,note_on,58,33,120
2,note_on,59,0,10
2,note_on,58,0,110
2,note_on,59,36,0
2,note_on,58,33,120
2,note_on,59,0,10
2,note_on,58,0,110
2,note_on,59,36,0
2,note_on,59,0,480
2,note_on,55,0,0
2,note_on,54,36,0
2,note_on,54,0,180
2,note_on,57,41,0
2,note_on,57,0,60
2,note_on,55,39,0
2,note_on,55,0,120
2,note_on,54,36,0
2,note_on,54,0,120
2,note_on,55,39,0
2,note_on,55,0,120
2,note_on,54,36,0
2,note_on,54,0,120
2,note_on,55,39,0
2,note_on,55,0,120
2,note_on,59,36,0
2,note_on,59,0,120
2,note_on,57,38,0
2,note_on,57,0,480
2,note_on,55,36,0
2,note_on,55,0,240
2,note_on,50,38,0
2,note_on,50,0,120
2,note_on,61,36,0
2,note_on,61,0,120
2,note_on,62,37,0
2,note_on,62,0,120
2,note_on,61,36,0
2,note_on,61,0,120
2,note_on,62,37,0
2,note_on,62,0,120
2,note_on,61,36,0
2,note_on,61,0,120
2,note_on,62,38,0
2,note_on,62,0,120
2,note_on,64,36,0
2,note_on,64,0,120
2,note_on,60,38,0
2,note_on,60,0,120
2,note_on,62,36,0
2,note_on,62,0,120
2,note_on,59,39,0
2,note_on,59,0,120
2,note_on,60,36,0
2,note_on,60,0,120
2,note_on,57,40,0
2,note_on,57,0,120
2,note_on,64,37,0
2,note_on,64,0,120
2,note_on,60,37,0
2,note_on,60,0,120
2,note_on,59,36,0
2,note_on,59,0,120
2,note_on,57,36,0
2,note_on,57,0,120
2,note_on,55,36,0
2,note_on,55,0,120
2,note_on,54,36,0
2,note_on,54,0,120
2,note_on,55,35,0
2,note_on,55,0,120
2,note_on,57,36,0
2,note_on,57,0,120
2,note_on,50,37,0
2,note_on,50,0,120
2,note_on,52,39,0
2,note_on,52,0,120
2,note_on,54,40,0
2,note_on,54,0,120
2,note_on,55,39,0
2,note_on,55,0,120
2,note_on,54,38,0
2,note_on,54,0,120
2,note_on,52,37,0
2,note_on,52,0,120
2,note_on,50,36,0
2,note_on,50,0,120
2,note_on,48,35,0
2,note_on,48,0,120
2,note_on,47,34,0
2,note_on,47,0,120
2,note_on,52,38,0
2,note_on,52,0,120
2,note_on,50,37,0
2,note_on,50,0,120
2,note_on,48,36,0
2,note_on,48,0,120
2,note_on,47,35,0
2,note_on,47,0,120
2,note_on,45,33,0
2,note_on,45,0,120
2,note_on,43,32,0
2,note_on,43,0,120
2,note_on,48,39,0
2,note_on,48,0,240
2,note_on,47,36,0
2,note_on,47,0,240
2,note_on,45,36,0
2,note_on,45,0,240
2,note_on,50,39,0
2,note_on,50,0,720
2,note_on,43,32,0
2,note_on,43,0,120
2,note_on,54,29,0
2,note_on,54,0,120
2,note_on,55,32,0
2,note_on,55,0,120
2,note_on,54,29,0
2,note_on,54,0,120
2,note_on,55,30,0
2,note_on,55,0,120
2,note_on,54,27,0
2,note_on,54,0,120
2,note_on,55,26,0
2,note_on,55,0,240
2,note_on,71,34,240
2,note_on,71,0,120
2,note_on,74,34,0
2,note_on,74,0,120
2,note_on,71,34,0
2,note_on,71,0,120
2,note_on,74,32,0
2,note_on,74,0,120
2,note_on,71,34,0
2,note_on,71,0,120
2,note_on,74,31,0
2,note_on,74,0,120
2,note_on,72,34,0
2,note_on,72,0,120
2,note_on,76,31,0
2,note_on,76,0,120
2,note_on,71,34,0
2,note_on,71,0,120
2,note_on,74,32,0
2,note_on,74,0,120
2,note_on,69,34,0
2,note_on,69,0,120
2,note_on,72,32,0
2,note_on,72,0,120
2,note_on,67,34,0
2,note_on,67,0,120
2,note_on,71,31,0
2,note_on,71,0,120
2,note_on,66,33,0
2,note_on,66,0,120
2,note_on,69,31,0
2,note_on,69,0,120
2,note_on,66,33,0
2,note_on,66,0,120
2,note_on,69,32,0
2,note_on,69,0,120
2,note_on,66,33,0
2,note_on,66,0,120
2,note_on,69,31,0
2,note_on,69,0,120
2,note_on,66,33,0
2,note_on,66,0,120
2,note_on,69,31,0
2,note_on,69,0,120
2,note_on,66,33,0
2,note_on,66,0,120
2,note_on,69,32,0
2,note_on,69,0,120
2,note_on,66,33,0
2,note_on,66,0,120
2,note_on,69,31,0
2,note_on,69,0,120
2,note_on,67,36,0
2,note_on,67,0,480
2,note_on,67,33,240
2,note_on,64,33,0
2,note_on,61,33,0
2,note_on,57,33,0
2,note_on,57,0,480
2,note_on,67,0,0
2,note_on,64,0,0
2,note_on,61,0,0
2,note_on,50,32,360
2,note_on,50,0,120
2,note_on,54,33,0
2,note_on,54,0,120
2,note_on,50,31,0
2,note_on,50,0,120
2,note_on,52,32,0
2,note_on,52,0,120
2,note_on,55,35,0
2,note_on,55,0,120
2,note_on,54,35,120
2,note_on,54,0,120
2,note_on,57,38,0
2,note_on,57,0,120
2,note_on,54,33,0
2,note_on,54,0,120
2,note_on,55,35,0
2,note_on,55,0,120
2,note_on,59,37,0
2,note_on,59,0,120
2,note_on,57,36,120
2,note_on,57,0,120
2,note_on,60,39,0
2,note_on,60,0,120
2,note_on,57,36,0
2,note_on,57,0,120
2,note_on,59,38,0
2,note_on,59,0,120
2,note_on,55,36,0
2,note_on,55,0,120
2,note_on,54,33,120
2,note_on,54,0,120
2,note_on,57,36,0
2,note_on,57,0,120
2,note_on,54,33,0
2,note_on,54,0,120
2,note_on,55,36,0
2,note_on,55,0,120
2,note_on,52,33,0
2,note_on,52,0,120
2,note_on,50,34,0
2,note_on,50,0,240
2,note_on,50,32,240
2,note_on,50,0,240
2,note_on,50,34,0
2,note_on,50,0,240
2,note_on,38,51,240
2,note_on,38,0,240
2,note_on,38,62,0
2,note_on,38,0,1440
2,note_on,48,39,120
2,note_on,48,0,120
2,note_on,57,42,0
2,note_on,57,0,120
2,note_on,54,36,0
2,note_on,54,0,120
2,note_on,60,37,0
2,note_on,60,0,120
2,note_on,57,33,0
2,note_on,57,0,120
2,note_on,66,36,0
2,note_on,66,0,720
2,note_on,55,40,0
2,note_on,59,40,0
2,note_on,59,0,480
2,note_on,55,0,0
2,note_on,55,38,0
2,note_on,60,38,0
2,note_on,60,0,240
2,note_on,55,0,0
2,note_on,55,40,0
2,note_on,60,40,0
2,note_on,60,0,480
2,note_on,55,0,0
2,note_on,55,38,0
2,note_on,60,38,0
2,note_on,60,0,240
2,note_on,55,0,0
2,note_on,55,37,0
2,note_on,59,37,0
2,note_on,58,34,120
2,note_on,59,0,10
2,note_on,58,0,110
2,note_on,59,36,0
2,note_on,58,32,120
2,note_on,59,0,10
2,note_on,58,0,110
2,note_on,59,36,0
2,note_on,58,33,120
2,note_on,59,0,10
2,note_on,58,0,110
2,note_on,59,36,0
2,note_on,59,0,480
2,note_on,55,0,0
2,note_on,54,36,0
2,note_on,54,0,180
2,note_on,57,41,0
2,note_on,57,0,60
2,note_on,55,39,0
2,note_on,55,0,120
2,note_on,54,36,0
2,note_on,54,0,120
2,note_on,55,39,0
2,note_on,55,0,120
2,note_on,54,36,0
2,note_on,54,0,120
2,note_on,55,39,0
2,note_on,55,0,120
2,note_on,59,36,0
2,note_on,59,0,120
2,note_on,57,38,0
2,note_on,57,0,480
2,note_on,55,36,0
2,note_on,55,0,240
2,note_on,50,38,0
2,note_on,50,0,120
2,note_on,61,36,0
2,note_on,61,0,120
2,note_on,62,37,0
2,note_on,62,0,120
2,note_on,61,36,0
2,note_on,61,0,120
2,note_on,62,37,0
2,note_on,62,0,120
2,note_on,61,36,0
2,note_on,61,0,120
2,note_on,62,38,0
2,note_on,62,0,120
2,note_on,64,36,0
2,note_on,64,0,120
2,note_on,60,38,0
2,note_on,60,0,120
2,note_on,62,36,0
2,note_on,62,0,120
2,note_on,59,39,0
2,note_on,59,0,120
2,note_on,60,36,0
2,note_on,60,0,120
2,note_on,57,40,0
2,note_on,57,0,120
2,note_on,64,37,0
2,note_on,64,0,120
2,note_on,60,37,0
2,note_on,60,0,120
2,note_on,59,36,0
2,note_on,59,0,120
2,note_on,57,36,0
2,note_on,57,0,120
2,note_on,55,36,0
2,note_on,55,0,120
2,note_on,54,36,0
2,note_on,54,0,120
2,note_on,55,35,0
2,note_on,55,0,120
2,note_on,57,36,0
2,note_on,57,0,120
2,note_on,50,37,0
2,note_on,50,0,120
2,note_on,52,39,0
2,note_on,52,0,120
2,note_on,54,40,0
2,note_on,54,0,120
2,note_on,55,39,0
2,note_on,55,0,120
2,note_on,54,38,0
2,note_on,54,0,120
2,note_on,52,37,0
2,note_on,52,0,120
2,note_on,50,36,0
2,note_on,50,0,120
2,note_on,48,35,0
2,note_on,48,0,120
2,note_on,47,34,0
2,note_on,47,0,120
2,note_on,52,38,0
2,note_on,52,0,120
2,note_on,50,37,0
2,note_on,50,0,120
2,note_on,48,36,0
2,note_on,48,0,120
2,note_on,47,35,0
2,note_on,47,0,120
2,note_on,45,33,0
2,note_on,45,0,120
2,note_on,43,32,0
2,note_on,43,0,120
2,note_on,48,39,0
2,note_on,48,0,240
2,note_on,47,36,0
2,note_on,47,0,240
2,note_on,45,36,0
2,note_on,45,0,240
2,note_on,50,39,0
2,note_on,50,0,720
2,note_on,43,32,0
2,note_on,43,0,120
2,note_on,54,29,0
2,note_on,54,0,120
2,note_on,55,32,0
2,note_on,55,0,120
2,note_on,54,29,0
2,note_on,54,0,120
2,note_on,55,30,0
2,note_on,55,0,120
2,note_on,54,27,0
2,note_on,54,0,120
2,note_on,55,26,0
2,note_on,55,0,240
2,note_on,55,19,240
2,note_on,58,24,0
2,note_on,58,0,240
2,note_on,55,0,0
2,note_on,60,26,480
2,note_on,55,21,0
2,note_on,55,0,240
2,note_on,60,0,0
2,note_on,55,24,480
2,note_on,60,28,0
2,note_on,60,0,240
2,note_on,55,0,0
2,note_on,55,38,480
2,note_on,58,45,0
2,note_on,58,0,240
2,note_on,55,0,0
2,note_on,67,59,960
2,note_on,70,59,0
2,note_on,73,59,0
2,note_on,73,0,720
2,note_on,70,0,0
2,note_on,67,0,0
2,note_on,65,61,0
2,note_on,69,61,0
2,note_on,69,0,480
2,note_on,65,0,0
2,note_on,64,58,0
2,note_on,67,58,0
2,note_on,67,0,240
2,note_on,64,0,0
2,note_on,62,58,0
2,note_on,65,58,0
2,note_on,65,0,240
2,note_on,62,0,0
2,note_on,68,62,0
2,note_on,71,62,0
2,note_on,71,0,480
2,note_on,68,0,0
2,note_on,57,58,0
2,note_on,62,58,0
2,note_on,65,58,0
2,note_on,65,0,720
2,note_on,62,0,0
2,note_on,57,0,0
2,note_on,57,49,0
2,note_on,64,49,0
2,note_on,67,49,0
2,note_on,67,0,720
2,note_on,64,0,0
2,note_on,57,0,0
2,note_on,50,27,480
2,note_on,62,27,0
2,note_on,62,0,180
2,note_on,50,0,0
2,note_on,50,27,60
2,note_on,62,27,0
2,note_on,62,0,240
2,note_on,50,0,0
2,note_on,55,19,240
2,note_on,58,24,0
2,note_on,58,0,240
2,note_on,55,0,0
2,note_on,60,28,480
2,note_on,55,24,0
2,note_on,55,0,240
2,note_on,60,0,0
2,note_on,55,25,480
2,note_on,60,30,0
2,note_on,60,0,240
2,note_on,55,0,0
2,note_on,55,38,480
2,note_on,58,45,0
2,note_on,58,0,240
2,note_on,55,0,0
2,note_on,67,59,960
2,note_on,70,59,0
2,note_on,73,59,0
2,note_on,73,0,720
2,note_on,70,0,0
2,note_on,67,0,0
2,note_on,65,61,0
2,note_on,69,61,0
2,note_on,69,0,480
2,note_on,65,0,0
2,note_on,64,58,0
2,note_on,67,58,0
2,note_on,67,0,240
2,note_on,64,0,0
2,note_on,62,58,0
2,note_on,65,58,0
2,note_on,65,0,240
2,note_on,62,0,0
2,note_on,68,62,0
2,note_on,71,62,0
2,note_on,71,0,480
2,note_on,68,0,0
2,note_on,57,57,0
2,note_on,62,57,0
2,note_on,65,57,0
2,note_on,65,0,720
2,note_on,62,0,0
2,note_on,57,0,0
2,note_on,57,45,0
2,note_on,64,45,0
2,note_on,67,45,0
2,note_on,67,0,720
2,note_on,64,0,0
2,note_on,57,0,0
2,note_on,50,27,480
2,note_on,62,27,0
2,note_on,62,0,180
2,note_on,50,0,0
2,note_on,50,27,60
2,note_on,62,27,0
2,note_on,62,0,240
2,note_on,50,0,0
2,note_on,58,22,720
2,note_on,62,27,0
2,note_on,62,0,240
2,note_on,58,0,0
2,note_on,63,29,480
2,note_on,57,25,0
2,note_on,57,0,240
2,note_on,63,0,0
2,note_on,55,25,480
2,note_on,58,29,0
2,note_on,58,0,240
2,note_on,55,0,0
2,note_on,50,45,480
2,note_on,38,45,0
2,note_on,38,0,240
2,note_on,50,0,0
2,note_on,58,55,0
2,note_on,62,55,0
2,note_on,62,0,240
2,note_on,58,0,0
2,note_on,63,50,0
2,note_on,60,50,0
2,note_on,60,0,480
2,note_on,63,0,0
2,note_on,62,55,0
2,note_on,58,55,0
2,note_on,58,0,240
2,note_on,62,0,0
2,note_on,60,49,0
2,note_on,63,49,0
2,note_on,63,0,480
2,note_on,60,0,0
2,note_on,62,52,0
2,note_on,58,52,0
2,note_on,58,0,240
2,note_on,62,0,0
2,note_on,60,55,0
2,note_on,54,46,0
2,note_on,60,0,240
2,note_on,62,44,0
2,note_on,62,0,240
2,note_on,63,44,0
2,note_on,63,0,240
2,note_on,54,0,0
2,note_on,55,45,0
2,note_on,62,45,0
2,note_on,55,0,240
2,note_on,57,36,0
2,note_on,57,0,240
2,note_on,58,37,0
2,note_on,58,0,240
2,note_on,62,0,0
2,note_on,63,38,0
2,note_on,60,38,0
2,note_on,60,0,720
2,note_on,63,0,0
2,note_on,58,35,0
2,note_on,50,35,0
2,note_on,58,0,480
2,note_on,57,29,0
2,note_on,57,0,240
2,note_on,50,0,0
2,note_on,43,26,480
2,note_on,55,26,0
2,note_on,55,0,120
2,note_on,43,0,0
2,note_on,43,26,120
2,note_on,55,26,0
2,note_on,55,0,120
2,note_on,43,0,0
2,note_on,58,22,840
2,note_on,62,27,0
2,note_on,62,0,240
2,note_on,58,0,0
2,note_on,63,29,480
2,note_on,57,25,0
2,note_on,57,0,240
2,note_on,63,0,0
2,note_on,55,25,480
2,note_on,58,29,0
2,note_on,58,0,240
2,note_on,55,0,0
2,note_on,50,45,480
2,note_on,38,45,0
2,note_on,38,0,240
2,note_on,50,0,0
2,note_on,58,55,0
2,note_on,62,55,0
2,note_on,62,0,240
2,note_on,58,0,0
2,note_on,63,50,0
2,note_on,60,50,0
2,note_on,60,0,480
2,note_on,63,0,0
2,note_on,62,55,0
2,note_on,58,55,0
2,note_on,58,0,240
2,note_on,62,0,0
2,note_on,60,49,0
2,note_on,63,49,0
2,note_on,63,0,480
2,note_on,60,0,0
2,note_on,62,52,0
2,note_on,58,52,0
2,note_on,58,0,240
2,note_on,62,0,0
2,note_on,60,57,0
2,note_on,54,48,0
2,note_on,60,0,240
2,note_on,62,45,0
2,note_on,62,0,240
2,note_on,63,45,0
2,note_on,63,0,240
2,note_on,54,0,0
2,note_on,55,46,0
2,note_on,62,46,0
2,note_on,55,0,240
2,note_on,57,36,0
2,note_on,57,0,240
2,note_on,58,36,0
2,note_on,58,0,240
2,note_on,62,0,0
2,note_on,63,38,0
2,note_on,60,38,0
2,note_on,60,0,720
2,note_on,63,0,0
2,note_on,58,35,0
2,note_on,50,35,0
2,note_on,58,0,480
2,note_on,57,29,0
2,note_on,57,0,240
2,note_on,50,0,0
2,note_on,43,26,480
2,note_on,55,26,0
2,note_on,55,0,120
2,note_on,43,0,0
2,note_on,43,26,120
2,note_on,55,26,0
2,note_on,55,0,120
2,note_on,43,0,0
2,note_on,55,34,360
2,note_on,59,34,0
2,note_on,59,0,240
2,note_on,55,0,0
2,note_on,55,36,0
2,note_on,59,36,0
2,note_on,59,0,480
2,note_on,55,0,0
2,note_on,55,32,0
2,note_on,60,32,0
2,note_on,60,0,240
2,note_on,55,0,0
2,note_on,55,34,0
2,note_on,60,34,0
2,note_on,60,0,480
2,note_on,55,0,0
2,note_on,55,36,0
2,note_on,60,36,0
2,note_on,60,0,240
2,note_on,55,0,0
2,note_on,55,37,0
2,note_on,59,37,0
2,note_on,59,0,480
2,note_on,55,0,0
2,note_on,55,30,0
2,note_on,59,30,0
2,note_on,59,0,240
2,note_on,55,0,0
2,note_on,55,33,0
2,note_on,59,33,0
2,note_on,59,0,480
2,note_on,55,0,0
2,note_on,54,44,0
2,note_on,54,0,240
2,note_on,55,40,0
2,note_on,55,0,120
2,note_on,56,44,0
2,note_on,56,0,120
2,note_on,57,47,0
2,note_on,57,0,120
2,note_on,58,50,0
2,note_on,58,0,120
2,note_on,59,55,0
2,note_on,59,0,240
2,note_on,57,50,0
2,note_on,57,0,480
2,note_on,55,48,0
2,note_on,55,0,240
2,note_on,50,51,0
2,note_on,50,0,360
2,note_on,52,50,0
2,note_on,52,0,60
2,note_on,54,51,0
2,note_on,54,0,60
2,note_on,55,54,0
2,note_on,55,0,60
2,note_on,57,54,0
2,note_on,57,0,60
2,note_on,59,55,0
2,note_on,59,0,60
2,note_on,61,56,0
2,note_on,61,0,60
2,note_on,62,59,0
2,note_on,62,0,240
2,note_on,60,52,0
2,note_on,60,0,240
2,note_on,59,52,0
2,note_on,59,0,240
2,note_on,57,48,0
2,note_on,57,0,480
2,note_on,55,46,0
2,note_on,55,0,240
2,note_on,54,48,0
2,note_on,62,46,480
2,note_on,54,0,240
2,note_on,55,48,0
2,note_on,62,0,480
2,note_on,65,44,0
2,note_on,65,0,240
2,note_on,64,41,0
2,note_on,64,0,240
2,note_on,62,41,0
2,note_on,62,0,240
2,note_on,60,41,0
2,note_on,60,0,240
2,note_on,55,0,0
2,note_on,55,41,0
2,note_on,59,41,0
2,note_on,59,0,240
2,note_on,57,39,0
2,note_on,57,0,240
2,note_on,60,39,0
2,note_on,60,0,240
2,note_on,59,36,0
2,note_on,59,0,240
2,note_on,67,35,0
2,note_on,55,0,240
2,note_on,57,32,0
2,note_on,57,0,240
2,note_on,62,34,0
2,note_on,67,0,240
2,note_on,66,32,0
2,note_on,66,0,240
2,note_on,66,32,0
2,note_on,66,0,240
2,note_on,66,29,0
2,note_on,66,0,240
2,note_on,62,0,0
2,note_on,55,34,240
2,note_on,59,34,0
2,note_on,59,0,240
2,note_on,55,0,0
2,note_on,55,36,0
2,note_on,59,36,0
2,note_on,59,0,480
2,note_on,55,0,0
2,note_on,55,32,0
2,note_on,60,32,0
2,note_on,60,0,240
2,note_on,55,0,0
2,note_on,55,34,0
2,note_on,60,34,0
2,note_on,60,0,480
2,note_on,55,0,0
2,note_on,55,36,0
2,note_on,60,36,0
2,note_on,60,0,240
2,note_on,55,0,0
2,note_on,55,37,0
2,note_on,59,37,0
2,note_on,59,0,480
2,note_on,55,0,0
2,note_on,55,30,0
2,note_on,59,30,0
2,note_on,59,0,240
2,note_on,55,0,0
2,note_on,55,33,0
2,note_on,59,33,0
2,note_on,59,0,480
2,note_on,55,0,0
2,note_on,54,44,0
2,note_on,54,0,240
2,note_on,55,40,0
2,note_on,55,0,120
2,note_on,56,44,0
2,note_on,56,0,120
2,note_on,57,47,0
2,note_on,57,0,120
2,note_on,58,50,0
2,note_on,58,0,120
2,note_on,59,55,0
2,note_on,59,0,240
2,note_on,57,50,0
2,note_on,57,0,480
2,note_on,55,48,0
2,note_on,55,0,240
2,note_on,50,51,0
2,note_on,50,0,360
2,note_on,52,49,0
2,note_on,52,0,60
2,note_on,54,50,0
2,note_on,54,0,60
2,note_on,55,52,0
2,note_on,55,0,60
2,note_on,57,54,0
2,note_on,57,0,60
2,note_on,59,55,0
2,note_on,59,0,60
2,note_on,61,55,0
2,note_on,61,0,60
2,note_on,62,57,0
2,note_on,62,0,240
2,note_on,60,52,0
2,note_on,60,0,240
2,note_on,59,52,0
2,note_on,59,0,240
2,note_on,57,48,0
2,note_on,57,0,480
2,note_on,55,46,0
2,note_on,55,0,240
2,note_on,54,48,0
2,note_on,62,46,480
2,note_on,54,0,240
2,note_on,55,48,0
2,note_on,62,0,480
2,note_on,65,44,0
2,note_on,65,0,240
2,note_on,64,41,0
2,note_on,64,0,240
2,note_on,62,41,0
2,note_on,62,0,240
2,note_on,60,41,0
2,note_on,60,0,240
2,note_on,55,0,0
2,note_on,55,41,0
2,note_on,59,41,0
2,note_on,59,0,240
2,note_on,57,39,0
2,note_on,57,0,240
2,note_on,60,39,0
2,note_on,60,0,240
2,note_on,59,36,0
2,note_on,59,0,240
2,note_on,67,35,0
2,note_on,55,0,240
2,note_on,57,32,0
2,note_on,57,0,240
2,note_on,62,34,0
2,note_on,67,0,240
2,note_on,66,32,0
2,note_on,66,0,240
2,note_on,66,32,0
2,note_on,66,0,240
2,note_on,66,29,0
2,note_on,66,0,240
2,note_on,62,0,0
2,note_on,71,36,240
2,note_on,74,36,0
2,note_on,74,0,240
2,note_on,71,0,0
2,note_on,71,39,0
2,note_on,74,39,0
2,note_on,74,0,480
2,note_on,71,0,0
2,note_on,72,36,0
2,note_on,76,36,0
2,note_on,76,0,240
2,note_on,72,0,0
2,note_on,71,40,0
2,note_on,74,40,0
2,note_on,74,0,240
2,note_on,71,0,0
2,note_on,69,36,0
2,note_on,72,36,0
2,note_on,72,0,240
2,note_on,69,0,0
2,note_on,67,36,0
2,note_on,71,36,0
2,note_on,71,0,240
2,note_on,67,0,0
2,note_on,66,41,0
2,note_on,69,41,0
2,note_on,69,0,480
2,note_on,66,0,0
2,note_on,66,36,0
2,note_on,69,36,0
2,note_on,69,0,240
2,note_on,66,0,0
2,note_on,66,45,0
2,note_on,69,45,0
2,note_on,69,0,480
2,note_on,66,0,0
2,note_on,66,43,0
2,note_on,69,43,0
2,note_on,69,0,240
2,note_on,66,0,0
2,note_on,67,49,0
2,note_on,71,49,0
2,note_on,71,0,720
2,note_on,67,0,0
2,note_on,57,44,0
2,note_on,64,44,0
2,note_on,67,44,0
2,note_on,67,0,720
2,note_on,64,0,0
2,note_on,57,0,0
2,note_on,54,46,240
2,note_on,50,46,0
2,note_on,50,0,240
2,note_on,54,0,0
2,note_on,55,47,0
2,note_on,52,47,0
2,note_on,52,0,120
2,note_on,55,0,0
2,note_on,57,45,360
2,note_on,54,45,0
2,note_on,54,0,240
2,note_on,57,0,0
2,note_on,55,46,0
2,note_on,59,46,0
2,note_on,59,0,120
2,note_on,55,0,0
2,note_on,57,46,360
2,note_on,60,46,0
2,note_on,60,0,240
2,note_on,57,0,0
2,note_on,55,47,0
2,note_on,59,47,0
2,note_on,59,0,120
2,note_on,55,0,0
2,note_on,54,44,360
2,note_on,57,44,0
2,note_on,57,0,240
2,note_on,54,0,0
2,note_on,55,44,0
2,note_on,52,44,0
2,note_on,52,0,120
2,note_on,55,0,0
2,note_on,50,44,120
2,note_on,54,44,0
2,note_on,54,0,240
2,note_on,50,0,0
2,note_on,66,43,0
2,note_on,62,43,0
2,note_on,62,0,240
2,note_on,66,0,0
2,note_on,67,41,0
2,note_on,64,41,0
2,note_on,64,0,240
2,note_on,67,0,0
2,note_on,69,42,240
2,note_on,66,42,0
2,note_on,66,0,240
2,note_on,69,0,0
2,note_on,67,41,0
2,note_on,70,41,0
2,note_on,70,0,240
2,note_on,67,0,0
2,note_on,72,40,240
2,note_on,69,40,0
2,note_on,69,0,240
2,note_on,72,0,0
2,note_on,70,36,0
2,note_on,67,36,0
2,note_on,67,0,240
2,note_on,70,0,0
2,note_on,69,37,240
2,note_on,66,37,0
2,note_on,66,0,240
2,note_on,69,0,0
2,note_on,64,36,0
2,note_on,67,36,0
2,note_on,67,0,240
2,note_on,64,0,0
2,note_on,62,37,0
2,note_on,66,37,0
2,note_on,66,0,480
2,note_on,62,0,0
2,note_on,81,33,1680
2,note_on,81,0,180
2,note_on,81,31,60
2,note_on,81,0,180
2,note_on,81,31,60
2,note_on,81,0,180
2,note_on,78,26,60
2,note_on,81,26,0
2,note_on,81,0,240
2,note_on,78,0,0
2,note_on,78,25,0
2,note_on,81,25,0
2,note_on,81,0,240
2,note_on,78,0,0
2,note_on,78,23,0
2,note_on,81,23,0
2,note_on,81,0,240
2,note_on,78,0,0
2,note_on,78,21,0
2,note_on,81,21,0
2,note_on,81,0,720
2,note_on,78,0,0
2,note_on,66,21,480
2,note_on,69,21,0
2,note_on,69,0,240
2,note_on,66,0,0
2,note_on,66,21,0
2,note_on,69,21,0
2,note_on,69,0,480
2,note_on,66,0,0
2,note_on,55,38,0
2,note_on,59,38,0
2,note_on,59,0,240
2,note_on,55,0,0
2,note_on,55,40,0
2,note_on,59,40,0
2,note_on,59,0,480
2,note_on,55,0,0
2,note_on,55,38,0
2,note_on,60,38,0
2,note_on,60,0,240
2,note_on,55,0,0
2,note_on,55,40,0
2,note_on,60,40,0
2,note_on,60,0,480
2,note_on,55,0,0
2,note_on,55,38,0
2,note_on,60,38,0
2,note_on,60,0,240
2,note_on,55,0,0
2,note_on,55,37,0
2,note_on,59,37,0
2,note_on,59,0,90
2,note_on,55,0,0
2,note_on,55,36,150
2,note_on,59,36,0
2,note_on,59,0,90
2,note_on,55,0,0
2,note_on,55,36,150
2,note_on,59,36,0
2,note_on,59,0,90
2,note_on,55,0,0
2,note_on,55,36,150
2,note_on,59,36,0
2,note_on,59,0,480
2,note_on,55,0,0
2,note_on,50,52,0
2,note_on,50,0,240
2,note_on,55,55,0
2,note_on,59,55,0
2,note_on,59,0,240
2,note_on,55,0,0
2,note_on,43,40,170
2,note_on,47,43,10
2,note_on,50,45,10
2,note_on,55,49,10
2,note_on,55,0,210
2,note_on,43,0,0
2,note_on,47,0,0
2,note_on,50,0,0
2,note_on,45,41,0
2,note_on,48,44,10
2,note_on,54,45,10
2,note_on,57,49,10
2,note_on,57,0,520
2,note_on,45,0,0
2,note_on,48,0,0
2,note_on,54,0,0
2,note_on,47,48,0
2,note_on,50,48,0
2,note_on,55,48,0
2,note_on,55,0,240
2,note_on,50,0,0
2,note_on,47,0,0
2,note_on,62,54,0
2,note_on,62,0,60
2,note_on,64,54,0
2,note_on,64,0,60
2,note_on,66,54,0
2,note_on,66,0,60
2,note_on,67,54,0
2,note_on,67,0,60
2,note_on,38,45,480
2,note_on,42,45,0
2,note_on,45,45,0
2,note_on,50,53,0
2,note_on,50,0,480
2,note_on,38,0,0
2,note_on,42,0,0
2,note_on,45,0,0
2,note_on,64,26,0
2,note_on,64,0,240
2,note_on,60,27,0
2,note_on,60,0,240
2,note_on,59,27,0
2,note_on,59,0,240
2,note_on,57,27,0
2,note_on,57,0,120
2,note_on,57,25,120
2,note_on,57,0,240
2,note_on,62,28,240
2,note_on,62,0,240
2,note_on,59,29,0
2,note_on,59,0,240
2,note_on,57,29,0
2,note_on,57,0,240
2,note_on,55,26,0
2,note_on,55,0,120
2,note_on,55,26,120
2,note_on,55,0,240
2,note_on,52,31,240
2,note_on,52,0,240
2,note_on,48,31,0
2,note_on,48,0,120
2,note_on,50,27,600
2,note_on,50,0,120
2,note_on,55,36,600
2,note_on,55,0,120
2,note_on,50,33,120
2,note_on,50,0,120
2,note_on,47,33,120
2,note_on,47,0,120
2,note_on,43,39,60
2,note_on,47,42,10
2,note_on,50,45,10
2,note_on,55,47,10
2,note_on,50,0,190
2,note_on,43,0,80
2,note_on,47,0,0
2,note_on,55,0,0
2,note_on,71,36,240
2,note_on,74,36,0
2,note_on,74,0,240
2,note_on,71,0,0
2,note_on,71,39,0
2,note_on,74,39,0
2,note_on,74,0,480
2,note_on,71,0,0
2,note_on,72,36,0
2,note_on,76,36,0
2,note_on,76,0,240
2,note_on,72,0,0
2,note_on,71,40,0
2,note_on,74,40,0
2,note_on,74,0,240
2,note_on,71,0,0
2,note_on,69,36,0
2,note_on,72,36,0
2,note_on,72,0,240
2,note_on,69,0,0
2,note_on,67,36,0
2,note_on,71,36,0
2,note_on,71,0,240
2,note_on,67,0,0
2,note_on,66,41,0
2,note_on,69,41,0
2,note_on,69,0,480
2,note_on,66,0,0
2,note_on,66,36,0
2,note_on,69,36,0
2,note_on,69,0,240
2,note_on,66,0,0
2,note_on,66,45,0
2,note_on,69,45,0
2,note_on,69,0,480
2,note_on,66,0,0
2,note_on,66,43,0
2,note_on,69,43,0
2,note_on,69,0,240
2,note_on,66,0,0
2,note_on,67,49,0
2,note_on,71,49,0
2,note_on,71,0,720
2,note_on,67,0,0
2,note_on,57,44,0
2,note_on,64,44,0
2,note_on,67,44,0
2,note_on,67,0,720
2,note_on,64,0,0
2,note_on,57,0,0
2,note_on,54,46,240
2,note_on,50,46,0
2,note_on,50,0,240
2,note_on,54,0,0
2,note_on,55,47,0
2,note_on,52,47,0
2,note_on,52,0,120
2,note_on,55,0,0
2,note_on,57,45,360
2,note_on,54,45,0
2,note_on,54,0,240
2,note_on,57,0,0
2,note_on,55,46,0
2,note_on,59,46,0
2,note_on,59,0,120
2,note_on,55,0,0
2,note_on,57,46,360
2,note_on,60,46,0
2,note_on,60,0,240
2,note_on,57,0,0
2,note_on,55,47,0
2,note_on,59,47,0
2,note_on,59,0,120
2,note_on,55,0,0
2,note_on,54,44,360
2,note_on,57,44,0
2,note_on,57,0,240
2,note_on,54,0,0
2,note_on,55,44,0
2,note_on,52,44,0
2,note_on,52,0,120
2,note_on,55,0,0
2,note_on,50,44,120
2,note_on,54,44,0
2,note_on,54,0,240
2,note_on,50,0,0
2,note_on,66,43,0
2,note_on,62,43,0
2,note_on,62,0,240
2,note_on,66,0,0
2,note_on,67,41,0
2,note_on,64,41,0
2,note_on,64,0,240
2,note_on,67,0,0
2,note_on,69,42,240
2,note_on,66,42,0
2,note_on,66,0,240
2,note_on,69,0,0
2,note_on,67,41,0
2,note_on,70,41,0
2,note_on,70,0,240
2,note_on,67,0,0
2,note_on,72,40,240
2,note_on,69,40,0
2,note_on,69,0,240
2,note_on,72,0,0
2,note_on,70,36,0
2,note_on,67,36,0
2,note_on,67,0,240
2,note_on,70,0,0
2,note_on,69,37,240
2,note_on,66,37,0
2,note_on,66,0,240
2,note_on,69,0,0
2,note_on,64,36,0
2,note_on,67,36,0
2,note_on,67,0,240
2,note_on,64,0,0
2,note_on,62,37,0
2,note_on,66,37,0
2,note_on,66,0,480
2,note_on,62,0,0
2,note_on,81,33,1680
2,note_on,81,0,180
2,note_on,81,31,60
2,note_on,81,0,180
2,note_on,81,31,60
2,note_on,81,0,180
2,note_on,78,26,60
2,note_on,81,26,0
2,note_on,81,0,240
2,note_on,78,0,0
2,note_on,78,25,0
2,note_on,81,25,0
2,note_on,81,0,240
2,note_on,78,0,0
2,note_on,78,23,0
2,note_on,81,23,0
2,note_on,81,0,240
2,note_on,78,0,0
2,note_on,78,21,0
2,note_on,81,21,0
2,note_on,81,0,720
2,note_on,78,0,0
2,note_on,66,21,480
2,note_on,69,21,0
2,note_on,69,0,240
2,note_on,66,0,0
2,note_on,66,21,0
2,note_on,69,21,0
2,note_on,69,0,480
2,note_on,66,0,0
2,note_on,55,38,0
2,note_on,59,38,0
2,note_on,59,0,240
2,note_on,55,0,0
2,note_on,55,40,0
2,note_on,59,40,0
2,note_on,59,0,480
2,note_on,55,0,0
2,note_on,55,38,0
2,note_on,60,38,0
2,note_on,60,0,240
2,note_on,55,0,0
2,note_on,55,40,0
2,note_on,60,40,0
2,note_on,60,0,480
2,note_on,55,0,0
2,note_on,55,38,0
2,note_on,60,38,0
2,note_on,60,0,240
2,note_on,55,0,0
2,note_on,55,37,0
2,note_on,59,37,0
2,note_on,59,0,90
2,note_on,55,0,0
2,note_on,55,36,150
2,note_on,59,36,0
2,note_on,59,0,90
2,note_on,55,0,0
2,note_on,55,36,150
2,note_on,59,36,0
2,note_on,59,0,90
2,note_on,55,0,0
2,note_on,55,36,150
2,note_on,59,36,0
2,note_on,59,0,480
2,note_on,55,0,0
2,note_on,50,52,0
2,note_on,50,0,240
2,note_on,55,55,0
2,note_on,59,55,0
2,note_on,59,0,240
2,note_on,55,0,0
2,note_on,43,43,170
2,note_on,47,45,10
2,note_on,50,47,10
2,note_on,55,51,10
2,note_on,55,0,210
2,note_on,43,0,0
2,note_on,47,0,0
2,note_on,50,0,0
2,note_on,45,42,0
2,note_on,48,45,10
2,note_on,54,46,10
2,note_on,57,51,10
2,note_on,57,0,520
2,note_on,45,0,0
2,note_on,48,0,0
2,note_on,54,0,0
2,note_on,47,48,0
2,note_on,50,48,0
2,note_on,55,48,0
2,note_on,55,0,240
2,note_on,50,0,0
2,note_on,47,0,0
2,note_on,62,54,0
2,note_on,62,0,60
2,note_on,64,54,0
2,note_on,64,0,60
2,note_on,66,54,0
2,note_on,66,0,60
2,note_on,67,54,0
2,note_on,67,0,60
2,note_on,38,45,480
2,note_on,42,45,0
2,note_on,45,45,0
2,note_on,50,53,0
2,note_on,50,0,480
2,note_on,38,0,0
2,note_on,42,0,0
2,note_on,45,0,0
2,note_on,64,26,0
2,note_on,64,0,240
2,note_on,60,27,0
2,note_on,60,0,240
2,note_on,59,27,0
2,note_on,59,0,240
2,note_on,57,27,0
2,note_on,57,0,120
2,note_on,57,25,120
2,note_on,57,0,240
2,note_on,62,28,240
2,note_on,62,0,240
2,note_on,59,29,0
2,note_on,59,0,240
2,note_on,57,29,0
2,note_on,57,0,240
2,note_on,55,26,0
2,note_on,55,0,120
2,note_on,55,26,120
2,note_on,55,0,240
2,note_on,52,31,240
2,note_on,52,0,240
2,note_on,48,31,0
2,note_on,48,0,120
2,note_on,50,27,600
2,note_on,50,0,120
2,note_on,55,36,600
2,note_on,55,0,120
2,note_on,50,33,120
2,note_on,50,0,120
2,note_on,47,33,120
2,note_on,47,0,120
2,note_on,43,39,60
2,note_on,47,40,10
2,note_on,50,45,10
2,note_on,55,47,10
2,note_on,50,0,190
2,note_on,43,0,80
2,note_on,47,0,0
2,note_on,55,0,0
