Track,Message Type,Note,Velocity,Time
1,note_on,69,50,960
1,note_on,69,0,360
1,note_on,66,45,0
1,note_on,66,0,120
1,note_on,74,50,0
1,note_on,74,0,120
1,note_on,74,47,360
1,note_on,74,0,120
1,note_on,74,47,360
1,note_on,74,0,240
1,note_on,73,47,0
1,note_on,73,0,60
1,note_on,74,47,0
1,note_on,74,0,60
1,note_on,76,47,0
1,note_on,76,0,60
1,note_on,74,47,0
1,note_on,74,0,60
1,note_on,73,51,0
1,note_on,73,0,360
1,note_on,76,52,0
1,note_on,76,0,120
1,note_on,79,56,0
1,note_on,79,0,840
1,note_on,76,51,0
1,note_on,76,0,120
1,note_on,78,58,0
1,note_on,78,0,360
1,note_on,74,53,0
1,note_on,74,0,120
1,note_on,81,58,0
1,note_on,81,0,360
1,note_on,78,54,0
1,note_on,78,0,120
1,note_on,83,59,0
1,note_on,83,0,360
1,note_on,79,48,0
1,note_on,79,0,120
1,note_on,78,51,0
1,note_on,78,0,480
1,note_on,76,39,0
1,note_on,76,0,360
1,note_on,69,50,120
1,note_on,69,0,360
1,note_on,66,45,0
1,note_on,66,0,120
1,note_on,74,50,0
1,note_on,74,0,120
1,note_on,74,47,360
1,note_on,74,0,120
1,note_on,74,47,360
1,note_on,74,0,240
1,note_on,73,47,0
1,note_on,73,0,60
1,note_on,74,47,0
1,note_on,74,0,60
1,note_on,76,47,0
1,note_on,76,0,60
1,note_on,74,47,0
1,note_on,74,0,60
1,note_on,73,58,0
1,note_on,73,0,360
1,note_on,76,53,0
1,note_on,76,0,120
1,note_on,79,58,0
1,note_on,79,0,360
1,note_on,76,54,0
1,note_on,76,0,120
1,note_on,78,59,0
1,note_on,78,0,360
1,note_on,74,48,0
1,note_on,74,0,120
1,note_on,71,58,0
1,note_on,71,0,120
1,note_on,76,56,360
1,note_on,76,0,120
1,note_on,73,45,360
1,note_on,67,45,0
1,note_on,73,0,240
1,note_on,74,55,0
1,note_on,74,0,60
1,note_on,73,48,0
1,note_on,73,0,60
1,note_on,71,48,0
1,note_on,71,0,60
1,note_on,73,48,0
1,note_on,73,0,60
1,note_on,67,0,0
1,note_on,74,58,0
1,note_on,66,49,0
1,note_on,66,0,480
1,note_on,74,0,0
1,note_on,69,50,480
1,note_on,69,0,360
1,note_on,66,45,0
1,note_on,66,0,120
1,note_on,74,50,0
1,note_on,74,0,120
1,note_on,74,47,360
1,note_on,74,0,120
1,note_on,74,47,360
1,note_on,74,0,240
1,note_on,73,47,0
1,note_on,73,0,60
1,note_on,74,47,0
1,note_on,74,0,60
1,note_on,76,47,0
1,note_on,76,0,60
1,note_on,74,47,0
1,note_on,74,0,60
1,note_on,73,51,0
1,note_on,73,0,360
1,note_on,76,52,0
1,note_on,76,0,120
1,note_on,79,56,0
1,note_on,79,0,840
1,note_on,76,51,0
1,note_on,76,0,120
1,note_on,78,58,0
1,note_on,78,0,360
1,note_on,74,53,0
1,note_on,74,0,120
1,note_on,81,58,0
1,note_on,81,0,360
1,note_on,78,54,0
1,note_on,78,0,120
1,note_on,83,59,0
1,note_on,83,0,360
1,note_on,79,48,0
1,note_on,79,0,120
1,note_on,78,51,0
1,note_on,78,0,480
1,note_on,76,39,0
1,note_on,76,0,360
1,note_on,69,50,120
1,note_on,69,0,360
1,note_on,66,45,0
1,note_on,66,0,120
1,note_on,74,50,0
1,note_on,74,0,120
1,note_on,74,47,360
1,note_on,74,0,120
1,note_on,74,47,360
1,note_on,74,0,240
1,note_on,73,47,0
1,note_on,73,0,60
1,note_on,74,47,0
1,note_on,74,0,60
1,note_on,76,47,0
1,note_on,76,0,60
1,note_on,74,47,0
1,note_on,74,0,60
1,note_on,73,58,0
1,note_on,73,0,360
1,note_on,76,53,0
1,note_on,76,0,120
1,note_on,79,58,0
1,note_on,79,0,360
1,note_on,76,54,0
1,note_on,76,0,120
1,note_on,78,59,0
1,note_on,78,0,360
1,note_on,74,48,0
1,note_on,74,0,120
1,note_on,71,58,0
1,note_on,71,0,120
1,note_on,76,56,360
1,note_on,76,0,120
1,note_on,73,45,360
1,note_on,67,45,0
1,note_on,73,0,240
1,note_on,74,55,0
1,note_on,74,0,60
1,note_on,73,48,0
1,note_on,73,0,60
1,note_on,71,48,0
1,note_on,71,0,60
1,note_on,73,48,0
1,note_on,73,0,60
1,note_on,67,0,0
1,note_on,74,58,0
1,note_on,66,49,0
1,note_on,66,0,480
1,note_on,74,0,0
1,note_on,81,58,480
1,note_on,81,0,360
1,note_on,78,53,0
1,note_on,78,0,120
1,note_on,86,58,0
1,note_on,86,0,360
1,note_on,81,53,0
1,note_on,81,0,120
1,note_on,83,58,0
1,note_on,83,0,360
1,note_on,80,54,0
1,note_on,80,0,120
1,note_on,81,59,0
1,note_on,81,0,360
1,note_on,76,48,0
1,note_on,76,0,120
1,note_on,79,58,0
1,note_on,79,0,360
1,note_on,74,54,0
1,note_on,74,0,120
1,note_on,78,59,0
1,note_on,78,0,360
1,note_on,73,57,0
1,note_on,73,0,120
1,note_on,76,63,0
1,note_on,76,0,360
1,note_on,71,52,0
1,note_on,71,0,120
1,note_on,74,65,0
1,note_on,74,0,360
1,note_on,69,61,0
1,note_on,69,0,120
1,note_on,73,50,0
1,note_on,79,66,0
1,note_on,79,0,360
1,note_on,76,58,0
1,note_on,76,0,120
1,note_on,73,0,0
1,note_on,74,56,0
1,note_on,78,65,0
1,note_on,78,0,360
1,note_on,81,57,0
1,note_on,81,0,120
1,note_on,74,0,0
1,note_on,74,47,0
1,note_on,78,56,0
1,note_on,78,0,480
1,note_on,74,0,0
1,note_on,73,42,0
1,note_on,76,50,0
1,note_on,76,0,240
1,note_on,73,0,0
1,note_on,81,58,240
1,note_on,81,0,360
1,note_on,78,53,0
1,note_on,78,0,120
1,note_on,86,58,0
1,note_on,86,0,360
1,note_on,81,53,0
1,note_on,81,0,120
1,note_on,83,58,0
1,note_on,83,0,360
1,note_on,80,54,0
1,note_on,80,0,120
1,note_on,81,59,0
1,note_on,81,0,360
1,note_on,76,48,0
1,note_on,76,0,120
1,note_on,79,58,0
1,note_on,79,0,360
1,note_on,74,54,0
1,note_on,74,0,120
1,note_on,78,60,0
1,note_on,78,0,360
1,note_on,73,57,0
1,note_on,73,0,120
1,note_on,76,63,0
1,note_on,76,0,360
1,note_on,71,53,0
1,note_on,71,0,120
1,note_on,74,66,0
1,note_on,74,0,360
1,note_on,69,54,0
1,note_on,69,0,120
1,note_on,78,66,0
1,note_on,78,0,480
1,note_on,76,47,0
1,note_on,76,0,60
1,note_on,78,44,0
1,note_on,78,0,60
1,note_on,76,47,0
1,note_on,76,0,60
1,note_on,78,45,0
1,note_on,78,0,60
1,note_on,76,47,0
1,note_on,76,0,60
1,note_on,78,43,0
1,note_on,78,0,60
1,note_on,76,43,0
1,note_on,76,0,40
1,note_on,74,43,0
1,note_on,74,0,40
1,note_on,76,43,1
1,note_on,74,66,39
1,note_on,76,0,1
1,note_on,74,0,479
1,note_on,81,58,480
1,note_on,81,0,360
1,note_on,78,53,0
1,note_on,78,0,120
1,note_on,86,58,0
1,note_on,86,0,360
1,note_on,81,53,0
1,note_on,81,0,120
1,note_on,83,58,0
1,note_on,83,0,360
1,note_on,80,54,0
1,note_on,80,0,120
1,note_on,81,59,0
1,note_on,81,0,360
1,note_on,76,48,0
1,note_on,76,0,120
1,note_on,79,58,0
1,note_on,79,0,360
1,note_on,74,54,0
1,note_on,74,0,120
1,note_on,78,59,0
1,note_on,78,0,360
1,note_on,73,57,0
1,note_on,73,0,120
1,note_on,76,63,0
1,note_on,76,0,360
1,note_on,71,52,0
1,note_on,71,0,120
1,note_on,74,65,0
1,note_on,74,0,360
1,note_on,69,61,0
1,note_on,69,0,120
1,note_on,73,50,0
1,note_on,79,66,0
1,note_on,79,0,360
1,note_on,76,58,0
1,note_on,76,0,120
1,note_on,73,0,0
1,note_on,74,56,0
1,note_on,78,65,0
1,note_on,78,0,360
1,note_on,81,57,0
1,note_on,81,0,120
1,note_on,74,0,0
1,note_on,74,47,0
1,note_on,78,56,0
1,note_on,78,0,480
1,note_on,74,0,0
1,note_on,73,42,0
1,note_on,76,50,0
1,note_on,76,0,240
1,note_on,73,0,0
1,note_on,81,58,240
1,note_on,81,0,360
1,note_on,78,53,0
1,note_on,78,0,120
1,note_on,86,58,0
1,note_on,86,0,360
1,note_on,81,53,0
1,note_on,81,0,120
1,note_on,83,58,0
1,note_on,83,0,360
1,note_on,80,54,0
1,note_on,80,0,120
1,note_on,81,59,0
1,note_on,81,0,360
1,note_on,76,48,0
1,note_on,76,0,120
1,note_on,79,58,0
1,note_on,79,0,360
1,note_on,74,54,0
1,note_on,74,0,120
1,note_on,78,60,0
1,note_on,78,0,360
1,note_on,73,57,0
1,note_on,73,0,120
1,note_on,76,63,0
1,note_on,76,0,360
1,note_on,71,53,0
1,note_on,71,0,120
1,note_on,74,66,0
1,note_on,74,0,360
1,note_on,69,54,0
1,note_on,69,0,120
1,note_on,78,66,0
1,note_on,78,0,480
1,note_on,76,47,0
1,note_on,76,0,60
1,note_on,78,44,0
1,note_on,78,0,60
1,note_on,76,47,0
1,note_on,76,0,60
1,note_on,78,45,0
1,note_on,78,0,60
1,note_on,76,47,0
1,note_on,76,0,60
1,note_on,78,43,0
1,note_on,78,0,60
1,note_on,76,43,0
1,note_on,76,0,40
1,note_on,74,43,0
1,note_on,74,0,40
1,note_on,76,43,1
1,note_on,74,66,39
1,note_on,76,0,1
1,note_on,74,0,479
1,note_on,67,58,480
1,note_on,67,0,120
1,note_on,65,58,0
1,note_on,65,0,120
1,note_on,64,61,0
1,note_on,64,0,120
1,note_on,62,65,0
1,note_on,62,0,120
1,note_on,74,76,0
1,note_on,74,0,840
1,note_on,69,59,0
1,note_on,69,0,120
1,note_on,77,65,0
1,note_on,77,0,360
1,note_on,69,56,0
1,note_on,69,0,110
1,note_on,69,63,10
1,note_on,69,0,360
1,note_on,68,54,0
1,note_on,68,0,120
1,note_on,67,64,0
1,note_on,67,0,840
1,note_on,64,56,0
1,note_on,64,0,120
1,note_on,65,65,0
1,note_on,65,0,360
1,note_on,62,61,0
1,note_on,62,0,120
1,note_on,69,66,0
1,note_on,69,0,360
1,note_on,65,58,0
1,note_on,65,0,120
1,note_on,70,65,0
1,note_on,70,0,360
1,note_on,62,49,0
1,note_on,62,0,110
1,note_on,62,50,10
1,note_on,62,0,480
1,note_on,61,45,0
1,note_on,61,0,240
1,note_on,70,58,240
1,note_on,70,0,120
1,note_on,69,58,0
1,note_on,69,0,120
1,note_on,67,61,0
1,note_on,67,0,120
1,note_on,65,65,0
1,note_on,65,0,120
1,note_on,72,76,0
1,note_on,72,0,360
1,note_on,69,63,0
1,note_on,69,0,120
1,note_on,77,73,0
1,note_on,77,0,360
1,note_on,72,64,0
1,note_on,72,0,120
1,note_on,81,74,0
1,note_on,81,0,360
1,note_on,77,68,0
1,note_on,77,0,110
1,note_on,82,80,10
1,note_on,82,0,360
1,note_on,77,70,0
1,note_on,77,0,120
1,note_on,86,82,0
1,note_on,86,0,360
1,note_on,77,68,0
1,note_on,77,0,120
1,note_on,88,81,0
1,note_on,88,0,360
1,note_on,79,68,0
1,note_on,79,0,120
1,note_on,89,80,0
1,note_on,89,0,360
1,note_on,77,61,0
1,note_on,77,0,120
1,note_on,81,66,0
1,note_on,81,0,480
1,note_on,79,47,0
1,note_on,79,0,60
1,note_on,81,44,0
1,note_on,81,0,60
1,note_on,79,47,0
1,note_on,79,0,60
1,note_on,81,45,0
1,note_on,81,0,60
1,note_on,79,47,0
1,note_on,79,0,60
1,note_on,81,43,0
1,note_on,81,0,60
1,note_on,79,43,0
1,note_on,79,0,40
1,note_on,77,43,0
1,note_on,77,0,40
1,note_on,79,43,1
1,note_on,77,66,39
1,note_on,79,0,1
1,note_on,77,0,839
1,note_on,67,58,120
1,note_on,67,0,120
1,note_on,65,58,0
1,note_on,65,0,120
1,note_on,64,61,0
1,note_on,64,0,120
1,note_on,62,65,0
1,note_on,62,0,120
1,note_on,74,76,0
1,note_on,74,0,840
1,note_on,69,59,0
1,note_on,69,0,120
1,note_on,77,65,0
1,note_on,77,0,360
1,note_on,69,56,0
1,note_on,69,0,110
1,note_on,69,63,10
1,note_on,69,0,360
1,note_on,68,54,0
1,note_on,68,0,120
1,note_on,67,64,0
1,note_on,67,0,840
1,note_on,64,56,0
1,note_on,64,0,120
1,note_on,65,65,0
1,note_on,65,0,360
1,note_on,62,61,0
1,note_on,62,0,120
1,note_on,69,66,0
1,note_on,69,0,360
1,note_on,65,58,0
1,note_on,65,0,120
1,note_on,70,65,0
1,note_on,70,0,360
1,note_on,62,49,0
1,note_on,62,0,110
1,note_on,62,50,10
1,note_on,62,0,480
1,note_on,61,45,0
1,note_on,61,0,240
1,note_on,70,58,240
1,note_on,70,0,120
1,note_on,69,58,0
1,note_on,69,0,120
1,note_on,67,61,0
1,note_on,67,0,120
1,note_on,65,65,0
1,note_on,65,0,120
1,note_on,72,76,0
1,note_on,72,0,360
1,note_on,69,63,0
1,note_on,69,0,120
1,note_on,77,73,0
1,note_on,77,0,360
1,note_on,72,64,0
1,note_on,72,0,120
1,note_on,81,74,0
1,note_on,81,0,360
1,note_on,77,68,0
1,note_on,77,0,110
1,note_on,82,80,10
1,note_on,82,0,360
1,note_on,77,70,0
1,note_on,77,0,120
1,note_on,86,82,0
1,note_on,86,0,360
1,note_on,77,68,0
1,note_on,77,0,120
1,note_on,88,81,0
1,note_on,88,0,360
1,note_on,79,68,0
1,note_on,79,0,120
1,note_on,89,80,0
1,note_on,89,0,360
1,note_on,77,61,0
1,note_on,77,0,120
1,note_on,81,66,0
1,note_on,81,0,480
1,note_on,79,47,0
1,note_on,79,0,60
1,note_on,81,44,0
1,note_on,81,0,60
1,note_on,79,47,0
1,note_on,79,0,60
1,note_on,81,45,0
1,note_on,81,0,60
1,note_on,79,47,0
1,note_on,79,0,60
1,note_on,81,43,0
1,note_on,81,0,60
1,note_on,79,43,0
1,note_on,79,0,40
1,note_on,77,43,0
1,note_on,77,0,40
1,note_on,79,43,1
1,note_on,77,66,39
1,note_on,79,0,1
1,note_on,77,0,839
1,note_on,82,49,120
1,note_on,82,0,120
1,note_on,81,49,0
1,note_on,81,0,120
1,note_on,79,51,0
1,note_on,79,0,120
1,note_on,77,55,0
1,note_on,77,0,120
1,note_on,84,64,0
1,note_on,84,0,840
1,note_on,75,46,0
1,note_on,75,0,120
1,note_on,77,55,0
1,note_on,77,0,360
1,note_on,75,47,0
1,note_on,75,0,110
1,note_on,74,53,10
1,note_on,74,0,360
1,note_on,81,45,0
1,note_on,81,0,120
1,note_on,86,60,0
1,note_on,86,0,360
1,note_on,81,47,0
1,note_on,81,0,120
1,note_on,82,58,0
1,note_on,82,0,360
1,note_on,79,50,0
1,note_on,79,0,120
1,note_on,84,60,0
1,note_on,84,0,360
1,note_on,79,51,0
1,note_on,79,0,120
1,note_on,81,56,0
1,note_on,81,0,360
1,note_on,77,49,0
1,note_on,77,0,120
1,note_on,82,55,0
1,note_on,82,0,240
1,note_on,79,48,0
1,note_on,79,0,120
1,note_on,76,41,0
1,note_on,76,0,110
1,note_on,74,42,10
1,note_on,74,0,480
1,note_on,73,38,0
1,note_on,73,0,240
1,note_on,69,47,240
1,note_on,69,0,120
1,note_on,67,49,0
1,note_on,67,0,120
1,note_on,65,50,0
1,note_on,65,0,120
1,note_on,64,52,0
1,note_on,64,0,120
1,note_on,79,64,0
1,note_on,79,0,840
1,note_on,76,64,0
1,note_on,76,0,120
1,note_on,85,74,0
1,note_on,85,0,360
1,note_on,82,68,0
1,note_on,82,0,110
1,note_on,86,80,10
1,note_on,86,0,360
1,note_on,81,70,0
1,note_on,81,0,120
1,note_on,88,82,0
1,note_on,88,0,360
1,note_on,81,68,0
1,note_on,81,0,120
1,note_on,89,81,0
1,note_on,89,0,360
1,note_on,86,68,0
1,note_on,86,0,110
1,note_on,84,80,10
1,note_on,84,0,120
1,note_on,82,61,0
1,note_on,82,0,120
1,note_on,81,68,0
1,note_on,81,0,120
1,note_on,79,61,0
1,note_on,79,0,120
1,note_on,77,66,0
1,note_on,77,0,480
1,note_on,76,47,0
1,note_on,76,0,60
1,note_on,77,44,0
1,note_on,77,0,60
1,note_on,76,47,0
1,note_on,76,0,60
1,note_on,77,45,0
1,note_on,77,0,60
1,note_on,76,47,0
1,note_on,76,0,60
1,note_on,77,43,0
1,note_on,77,0,60
1,note_on,76,43,0
1,note_on,76,0,40
1,note_on,74,43,0
1,note_on,74,0,40
1,note_on,76,43,1
1,note_on,74,66,39
1,note_on,76,0,1
1,note_on,74,0,839
1,note_on,82,49,120
1,note_on,82,0,120
1,note_on,81,49,0
1,note_on,81,0,120
1,note_on,79,51,0
1,note_on,79,0,120
1,note_on,77,55,0
1,note_on,77,0,120
1,note_on,84,64,0
1,note_on,84,0,840
1,note_on,75,46,0
1,note_on,75,0,120
1,note_on,77,55,0
1,note_on,77,0,360
1,note_on,75,47,0
1,note_on,75,0,110
1,note_on,74,53,10
1,note_on,74,0,360
1,note_on,81,45,0
1,note_on,81,0,120
1,note_on,86,60,0
1,note_on,86,0,360
1,note_on,81,47,0
1,note_on,81,0,120
1,note_on,82,58,0
1,note_on,82,0,360
1,note_on,79,50,0
1,note_on,79,0,120
1,note_on,84,60,0
1,note_on,84,0,360
1,note_on,79,51,0
1,note_on,79,0,120
1,note_on,81,56,0
1,note_on,81,0,360
1,note_on,77,49,0
1,note_on,77,0,120
1,note_on,82,55,0
1,note_on,82,0,240
1,note_on,79,48,0
1,note_on,79,0,120
1,note_on,76,41,0
1,note_on,76,0,110
1,note_on,74,42,10
1,note_on,74,0,480
1,note_on,73,38,0
1,note_on,73,0,240
1,note_on,69,47,240
1,note_on,69,0,120
1,note_on,67,49,0
1,note_on,67,0,120
1,note_on,65,50,0
1,note_on,65,0,120
1,note_on,64,52,0
1,note_on,64,0,120
1,note_on,79,64,0
1,note_on,79,0,840
1,note_on,76,64,0
1,note_on,76,0,120
1,note_on,85,74,0
1,note_on,85,0,360
1,note_on,82,68,0
1,note_on,82,0,110
1,note_on,86,80,10
1,note_on,86,0,360
1,note_on,81,70,0
1,note_on,81,0,120
1,note_on,88,82,0
1,note_on,88,0,360
1,note_on,81,68,0
1,note_on,81,0,120
1,note_on,89,81,0
1,note_on,89,0,360
1,note_on,86,68,0
1,note_on,86,0,110
1,note_on,84,80,10
1,note_on,84,0,120
1,note_on,82,61,0
1,note_on,82,0,120
1,note_on,81,68,0
1,note_on,81,0,120
1,note_on,79,61,0
1,note_on,79,0,120
1,note_on,77,66,0
1,note_on,77,0,480
1,note_on,76,47,0
1,note_on,76,0,60
1,note_on,77,44,0
1,note_on,77,0,60
1,note_on,76,47,0
1,note_on,76,0,60
1,note_on,77,45,0
1,note_on,77,0,60
1,note_on,76,47,0
1,note_on,76,0,60
1,note_on,77,43,0
1,note_on,77,0,60
1,note_on,76,43,0
1,note_on,76,0,40
1,note_on,74,43,0
1,note_on,74,0,40
1,note_on,76,43,1
1,note_on,74,66,39
1,note_on,76,0,1
1,note_on,74,0,839
1,note_on,67,50,120
1,note_on,67,0,120
1,note_on,66,45,0
1,note_on,66,0,120
1,note_on,64,45,0
1,note_on,64,0,120
1,note_on,62,45,0
1,note_on,62,0,120
1,note_on,74,50,0
1,note_on,74,0,60
1,note_on,74,50,180
1,note_on,74,0,60
1,note_on,74,47,420
1,note_on,74,0,120
1,note_on,76,53,120
1,note_on,76,0,120
1,note_on,74,48,0
1,note_on,74,0,120
1,note_on,73,48,0
1,note_on,73,0,120
1,note_on,74,48,0
1,note_on,74,0,120
1,note_on,73,51,0
1,note_on,73,0,60
1,note_on,79,52,180
1,note_on,79,0,60
1,note_on,79,56,420
1,note_on,79,0,240
1,note_on,81,51,0
1,note_on,81,0,120
1,note_on,79,51,0
1,note_on,79,0,120
1,note_on,78,51,0
1,note_on,78,0,120
1,note_on,76,51,0
1,note_on,76,0,120
1,note_on,79,58,0
1,note_on,79,0,120
1,note_on,78,53,0
1,note_on,78,0,120
1,note_on,76,53,0
1,note_on,76,0,120
1,note_on,74,49,0
1,note_on,74,0,120
1,note_on,83,62,0
1,note_on,83,0,120
1,note_on,81,56,0
1,note_on,81,0,120
1,note_on,79,56,0
1,note_on,79,0,120
1,note_on,78,54,0
1,note_on,78,0,120
1,note_on,83,65,0
1,note_on,83,0,120
1,note_on,85,49,0
1,note_on,85,0,120
1,note_on,86,46,0
1,note_on,86,0,120
1,note_on,79,43,0
1,note_on,79,0,120
1,note_on,74,51,0
1,note_on,78,51,0
1,note_on,78,0,480
1,note_on,74,0,0
1,note_on,73,39,0
1,note_on,76,39,0
1,note_on,76,0,360
1,note_on,73,0,0
1,note_on,67,50,120
1,note_on,67,0,120
1,note_on,66,45,0
1,note_on,66,0,120
1,note_on,64,45,0
1,note_on,64,0,120
1,note_on,62,45,0
1,note_on,62,0,120
1,note_on,74,50,0
1,note_on,74,0,60
1,note_on,74,50,180
1,note_on,74,0,60
1,note_on,74,47,420
1,note_on,74,0,120
1,note_on,76,49,120
1,note_on,76,0,120
1,note_on,74,43,0
1,note_on,74,0,120
1,note_on,73,43,0
1,note_on,73,0,120
1,note_on,74,43,0
1,note_on,74,0,120
1,note_on,73,51,0
1,note_on,73,0,60
1,note_on,79,52,180
1,note_on,79,0,60
1,note_on,81,56,180
1,note_on,81,0,120
1,note_on,79,51,0
1,note_on,79,0,120
1,note_on,78,51,0
1,note_on,78,0,120
1,note_on,76,48,0
1,note_on,76,0,120
1,note_on,79,58,0
1,note_on,79,0,120
1,note_on,78,54,0
1,note_on,78,0,120
1,note_on,76,53,0
1,note_on,76,0,120
1,note_on,74,53,0
1,note_on,74,0,120
1,note_on,83,69,0
1,note_on,83,0,120
1,note_on,85,56,0
1,note_on,85,0,120
1,note_on,86,53,0
1,note_on,86,0,120
1,note_on,79,56,0
1,note_on,79,0,120
1,note_on,78,61,0
1,note_on,78,0,120
1,note_on,79,51,0
1,note_on,79,0,120
1,note_on,81,51,0
1,note_on,81,0,120
1,note_on,74,51,0
1,note_on,74,0,120
1,note_on,76,59,0
1,note_on,76,0,120
1,note_on,78,48,0
1,note_on,78,0,120
1,note_on,79,53,0
1,note_on,79,0,120
1,note_on,73,48,0
1,note_on,73,0,120
1,note_on,74,58,0
1,note_on,74,0,480
1,note_on,67,50,480
1,note_on,67,0,120
1,note_on,66,45,0
1,note_on,66,0,120
1,note_on,64,45,0
1,note_on,64,0,120
1,note_on,62,45,0
1,note_on,62,0,120
1,note_on,74,50,0
1,note_on,74,0,60
1,note_on,74,50,180
1,note_on,74,0,60
1,note_on,74,47,420
1,note_on,74,0,120
1,note_on,76,53,120
1,note_on,76,0,120
1,note_on,74,48,0
1,note_on,74,0,120
1,note_on,73,48,0
1,note_on,73,0,120
1,note_on,74,48,0
1,note_on,74,0,120
1,note_on,73,51,0
1,note_on,73,0,60
1,note_on,79,52,180
1,note_on,79,0,60
1,note_on,79,56,420
1,note_on,79,0,240
1,note_on,81,51,0
1,note_on,81,0,120
1,note_on,79,51,0
1,note_on,79,0,120
1,note_on,78,51,0
1,note_on,78,0,120
1,note_on,76,51,0
1,note_on,76,0,120
1,note_on,79,58,0
1,note_on,79,0,120
1,note_on,78,53,0
1,note_on,78,0,120
1,note_on,76,53,0
1,note_on,76,0,120
1,note_on,74,49,0
1,note_on,74,0,120
1,note_on,83,59,0
1,note_on,83,0,120
1,note_on,81,54,0
1,note_on,81,0,120
1,note_on,79,54,0
1,note_on,79,0,120
1,note_on,78,61,0
1,note_on,78,0,120
1,note_on,83,68,0
1,note_on,83,0,120
1,note_on,85,60,0
1,note_on,85,0,120
1,note_on,86,54,0
1,note_on,86,0,120
1,note_on,79,43,0
1,note_on,79,0,120
1,note_on,74,51,0
1,note_on,78,51,0
1,note_on,78,0,480
1,note_on,74,0,0
1,note_on,73,39,0
1,note_on,76,39,0
1,note_on,76,0,360
1,note_on,73,0,0
1,note_on,67,50,120
1,note_on,67,0,120
1,note_on,66,45,0
1,note_on,66,0,120
1,note_on,64,45,0
1,note_on,64,0,120
1,note_on,62,45,0
1,note_on,62,0,120
1,note_on,74,50,0
1,note_on,74,0,60
1,note_on,74,50,180
1,note_on,74,0,60
1,note_on,74,47,420
1,note_on,74,0,120
1,note_on,76,49,120
1,note_on,76,0,120
1,note_on,74,43,0
1,note_on,74,0,120
1,note_on,73,43,0
1,note_on,73,0,120
1,note_on,74,43,0
1,note_on,74,0,120
1,note_on,73,51,0
1,note_on,73,0,60
1,note_on,79,52,180
1,note_on,79,0,60
1,note_on,81,56,180
1,note_on,81,0,120
1,note_on,79,51,0
1,note_on,79,0,120
1,note_on,78,51,0
1,note_on,78,0,120
1,note_on,76,48,0
1,note_on,76,0,120
1,note_on,79,58,0
1,note_on,79,0,120
1,note_on,78,52,0
1,note_on,78,0,120
1,note_on,76,54,0
1,note_on,76,0,120
1,note_on,74,57,0
1,note_on,74,0,120
1,note_on,83,66,0
1,note_on,83,0,120
1,note_on,85,57,0
1,note_on,85,0,120
1,note_on,86,53,0
1,note_on,86,0,120
1,note_on,79,51,0
1,note_on,79,0,120
1,note_on,78,61,0
1,note_on,78,0,120
1,note_on,79,51,0
1,note_on,79,0,120
1,note_on,81,51,0
1,note_on,81,0,120
1,note_on,74,51,0
1,note_on,74,0,120
1,note_on,76,59,0
1,note_on,76,0,120
1,note_on,78,48,0
1,note_on,78,0,120
1,note_on,79,53,0
1,note_on,79,0,120
1,note_on,73,48,0
1,note_on,73,0,120
1,note_on,74,58,0
1,note_on,74,0,480
1,note_on,67,50,480
1,note_on,67,0,120
1,note_on,66,45,0
1,note_on,66,0,120
1,note_on,64,45,0
1,note_on,64,0,120
1,note_on,62,45,0
1,note_on,62,0,120
1,note_on,74,50,0
1,note_on,74,0,60
1,note_on,74,50,180
1,note_on,74,0,60
1,note_on,68,47,420
1,note_on,68,0,120
1,note_on,69,53,120
1,note_on,69,0,120
1,note_on,71,48,0
1,note_on,71,0,120
1,note_on,69,48,0
1,note_on,69,0,120
1,note_on,64,48,0
1,note_on,64,0,120
1,note_on,67,51,0
1,note_on,67,0,60
1,note_on,67,52,180
1,note_on,67,0,60
1,note_on,66,56,420
1,note_on,66,0,240
1,note_on,64,51,0
1,note_on,64,0,120
1,note_on,66,47,0
1,note_on,66,0,120
1,note_on,64,47,0
1,note_on,64,0,120
1,note_on,59,47,0
1,note_on,59,0,120
1,note_on,62,53,0
1,note_on,62,0,120
1,note_on,64,46,0
1,note_on,64,0,120
1,note_on,62,46,0
1,note_on,62,0,120
1,note_on,57,46,0
1,note_on,57,0,120
1,note_on,67,54,0
1,note_on,67,0,120
1,note_on,69,46,0
1,note_on,69,0,120
1,note_on,67,46,0
1,note_on,67,0,120
1,note_on,64,43,0
1,note_on,64,0,120
1,note_on,66,55,0
1,note_on,66,0,120
1,note_on,67,46,0
1,note_on,67,0,120
1,note_on,66,46,0
1,note_on,66,0,120
1,note_on,62,46,0
1,note_on,62,0,110
1,note_on,66,51,10
1,note_on,62,43,0
1,note_on,62,0,480
1,note_on,66,0,0
1,note_on,61,39,0
1,note_on,64,39,0
1,note_on,64,0,360
1,note_on,61,0,0
1,note_on,79,63,120
1,note_on,79,0,120
1,note_on,78,56,0
1,note_on,78,0,120
1,note_on,76,56,0
1,note_on,76,0,120
1,note_on,74,56,0
1,note_on,74,0,120
1,note_on,86,70,0
1,note_on,86,0,60
1,note_on,86,67,180
1,note_on,86,0,60
1,note_on,80,53,420
1,note_on,80,0,120
1,note_on,80,58,120
1,note_on,80,0,120
1,note_on,81,48,0
1,note_on,81,0,120
1,note_on,83,48,0
1,note_on,83,0,120
1,note_on,81,48,0
1,note_on,81,0,90
1,note_on,81,61,30
1,note_on,81,0,120
1,note_on,79,49,0
1,note_on,79,0,120
1,note_on,78,49,0
1,note_on,78,0,120
1,note_on,79,49,0
1,note_on,79,0,90
1,note_on,79,59,30
1,note_on,79,0,120
1,note_on,78,48,0
1,note_on,78,0,120
1,note_on,76,48,0
1,note_on,76,0,120
1,note_on,78,48,0
1,note_on,78,0,90
1,note_on,78,58,30
1,note_on,78,0,120
1,note_on,76,47,0
1,note_on,76,0,120
1,note_on,74,47,0
1,note_on,74,0,120
1,note_on,76,47,0
1,note_on,76,0,120
1,note_on,81,68,0
1,note_on,81,0,240
1,note_on,83,54,120
1,note_on,83,0,120
1,note_on,74,66,0
1,note_on,74,0,480
1,note_on,76,47,0
1,note_on,76,0,60
1,note_on,78,44,0
1,note_on,78,0,60
1,note_on,76,47,0
1,note_on,76,0,60
1,note_on,78,45,0
1,note_on,78,0,60
1,note_on,76,47,0
1,note_on,76,0,60
1,note_on,78,43,0
1,note_on,78,0,60
1,note_on,76,43,0
1,note_on,76,0,40
1,note_on,74,43,0
1,note_on,74,0,40
1,note_on,76,43,1
1,note_on,74,66,39
1,note_on,76,0,1
1,note_on,74,0,479
1,note_on,67,50,480
1,note_on,67,0,120
1,note_on,66,45,0
1,note_on,66,0,120
1,note_on,64,45,0
1,note_on,64,0,120
1,note_on,62,45,0
1,note_on,62,0,120
1,note_on,74,50,0
1,note_on,74,0,60
1,note_on,74,50,180
1,note_on,74,0,60
1,note_on,68,47,420
1,note_on,68,0,120
1,note_on,69,53,120
1,note_on,69,0,120
1,note_on,71,48,0
1,note_on,71,0,120
1,note_on,69,48,0
1,note_on,69,0,120
1,note_on,64,48,0
1,note_on,64,0,120
1,note_on,67,51,0
1,note_on,67,0,60
1,note_on,67,52,180
1,note_on,67,0,60
1,note_on,66,56,420
1,note_on,66,0,240
1,note_on,64,51,0
1,note_on,64,0,120
1,note_on,66,47,0
1,note_on,66,0,120
1,note_on,64,47,0
1,note_on,64,0,120
1,note_on,59,47,0
1,note_on,59,0,120
1,note_on,62,53,0
1,note_on,62,0,120
1,note_on,64,46,0
1,note_on,64,0,120
1,note_on,62,46,0
1,note_on,62,0,120
1,note_on,57,46,0
1,note_on,57,0,120
1,note_on,67,54,0
1,note_on,67,0,120
1,note_on,69,46,0
1,note_on,69,0,120
1,note_on,67,46,0
1,note_on,67,0,120
1,note_on,64,43,0
1,note_on,64,0,120
1,note_on,66,55,0
1,note_on,66,0,120
1,note_on,67,46,0
1,note_on,67,0,120
1,note_on,66,46,0
1,note_on,66,0,120
1,note_on,62,46,0
1,note_on,62,0,110
1,note_on,66,51,10
1,note_on,62,43,0
1,note_on,62,0,480
1,note_on,66,0,0
1,note_on,61,39,0
1,note_on,64,39,0
1,note_on,64,0,360
1,note_on,61,0,0
1,note_on,79,63,120
1,note_on,79,0,120
1,note_on,78,56,0
1,note_on,78,0,120
1,note_on,76,56,0
1,note_on,76,0,120
1,note_on,74,56,0
1,note_on,74,0,120
1,note_on,86,70,0
1,note_on,86,0,60
1,note_on,86,67,180
1,note_on,86,0,60
1,note_on,80,53,420
1,note_on,80,0,120
1,note_on,80,58,120
1,note_on,80,0,120
1,note_on,81,48,0
1,note_on,81,0,120
1,note_on,83,48,0
1,note_on,83,0,120
1,note_on,81,48,0
1,note_on,81,0,90
1,note_on,81,61,30
1,note_on,81,0,120
1,note_on,79,49,0
1,note_on,79,0,120
1,note_on,78,49,0
1,note_on,78,0,120
1,note_on,79,49,0
1,note_on,79,0,90
1,note_on,79,59,30
1,note_on,79,0,120
1,note_on,78,48,0
1,note_on,78,0,120
1,note_on,76,48,0
1,note_on,76,0,120
1,note_on,78,48,0
1,note_on,78,0,90
1,note_on,78,58,30
1,note_on,78,0,120
1,note_on,76,47,0
1,note_on,76,0,120
1,note_on,74,47,0
1,note_on,74,0,120
1,note_on,76,47,0
1,note_on,76,0,120
1,note_on,81,67,0
1,note_on,81,0,240
1,note_on,83,58,120
1,note_on,83,0,120
1,note_on,74,70,0
1,note_on,74,0,480
1,note_on,76,47,0
1,note_on,76,0,60
1,note_on,78,44,0
1,note_on,78,0,60
1,note_on,76,47,0
1,note_on,76,0,60
1,note_on,78,45,0
1,note_on,78,0,60
1,note_on,76,47,0
1,note_on,76,0,60
1,note_on,78,43,0
1,note_on,78,0,60
1,note_on,76,43,0
1,note_on,76,0,40
1,note_on,74,43,0
1,note_on,74,0,40
1,note_on,76,43,1
1,note_on,74,66,39
1,note_on,76,0,1
1,note_on,74,0,479
1,note_on,67,58,480
1,note_on,67,0,120
1,note_on,65,58,0
1,note_on,65,0,120
1,note_on,64,61,0
1,note_on,64,0,120
1,note_on,62,65,0
1,note_on,62,0,120
1,note_on,74,82,0
1,note_on,74,0,720
1,note_on,76,64,0
1,note_on,76,0,480
1,note_on,77,69,0
1,note_on,77,0,480
1,note_on,69,69,0
1,note_on,69,0,480
1,note_on,68,65,0
1,note_on,68,0,480
1,note_on,67,68,0
1,note_on,67,0,480
1,note_on,65,70,0
1,note_on,65,0,480
1,note_on,69,69,0
1,note_on,69,0,240
1,note_on,69,70,0
1,note_on,69,0,120
1,note_on,70,55,0
1,note_on,70,0,40
1,note_on,69,43,0
1,note_on,69,0,40
1,note_on,67,39,1
1,note_on,69,59,39
1,note_on,67,0,1
1,note_on,69,0,119
1,note_on,70,49,0
1,note_on,70,0,110
1,note_on,62,50,10
1,note_on,62,0,480
1,note_on,61,45,0
1,note_on,61,0,240
1,note_on,70,58,240
1,note_on,70,0,120
1,note_on,69,58,0
1,note_on,69,0,120
1,note_on,67,61,0
1,note_on,67,0,120
1,note_on,65,65,0
1,note_on,65,0,120
1,note_on,74,81,0
1,note_on,74,0,119
1,note_on,72,63,1
1,note_on,72,0,120
1,note_on,70,63,0
1,note_on,70,0,120
1,note_on,69,63,0
1,note_on,69,0,120
1,note_on,79,78,0
1,note_on,79,0,119
1,note_on,77,64,1
1,note_on,77,0,120
1,note_on,76,64,0
1,note_on,76,0,120
1,note_on,77,64,0
1,note_on,77,0,120
1,note_on,82,79,0
1,note_on,82,0,119
1,note_on,81,66,1
1,note_on,81,0,120
1,note_on,79,67,0
1,note_on,79,0,120
1,note_on,77,67,0
1,note_on,77,0,110
1,note_on,84,86,10
1,note_on,84,0,119
1,note_on,82,70,1
1,note_on,82,0,120
1,note_on,81,70,0
1,note_on,81,0,120
1,note_on,82,70,0
1,note_on,82,0,120
1,note_on,86,86,0
1,note_on,86,0,119
1,note_on,82,69,1
1,note_on,82,0,120
1,note_on,81,69,0
1,note_on,81,0,120
1,note_on,79,69,0
1,note_on,79,0,120
1,note_on,88,85,0
1,note_on,88,0,119
1,note_on,82,68,1
1,note_on,82,0,120
1,note_on,81,68,0
1,note_on,81,0,120
1,note_on,79,68,0
1,note_on,79,0,120
1,note_on,89,80,0
1,note_on,89,0,119
1,note_on,84,61,1
1,note_on,84,0,120
1,note_on,81,61,0
1,note_on,81,0,120
1,note_on,77,61,0
1,note_on,77,0,120
1,note_on,79,45,0
1,note_on,79,0,60
1,note_on,81,39,0
1,note_on,81,0,60
1,note_on,79,46,0
1,note_on,79,0,60
1,note_on,81,40,0
1,note_on,81,0,60
1,note_on,79,48,0
1,note_on,79,0,60
1,note_on,81,45,0
1,note_on,81,0,60
1,note_on,79,51,0
1,note_on,79,0,60
1,note_on,81,46,0
1,note_on,81,0,60
1,note_on,79,51,0
1,note_on,79,0,60
1,note_on,81,47,0
1,note_on,81,0,60
1,note_on,79,47,0
1,note_on,79,0,60
1,note_on,81,45,0
1,note_on,81,0,60
1,note_on,79,47,0
1,note_on,79,0,60
1,note_on,81,43,0
1,note_on,81,0,60
1,note_on,79,43,0
1,note_on,79,0,40
1,note_on,77,43,0
1,note_on,77,0,40
1,note_on,79,43,1
1,note_on,77,66,39
1,note_on,79,0,1
1,note_on,77,0,839
1,note_on,67,58,120
1,note_on,67,0,120
1,note_on,65,58,0
1,note_on,65,0,120
1,note_on,64,61,0
1,note_on,64,0,120
1,note_on,62,65,0
1,note_on,62,0,120
1,note_on,74,82,0
1,note_on,74,0,720
1,note_on,76,64,0
1,note_on,76,0,480
1,note_on,77,69,0
1,note_on,77,0,480
1,note_on,69,69,0
1,note_on,69,0,480
1,note_on,68,65,0
1,note_on,68,0,480
1,note_on,67,68,0
1,note_on,67,0,480
1,note_on,65,70,0
1,note_on,65,0,480
1,note_on,69,69,0
1,note_on,69,0,240
1,note_on,69,70,0
1,note_on,69,0,120
1,note_on,70,50,0
1,note_on,70,0,40
1,note_on,69,42,0
1,note_on,69,0,40
1,note_on,67,39,1
1,note_on,69,59,39
1,note_on,67,0,1
1,note_on,69,0,119
1,note_on,70,49,0
1,note_on,70,0,110
1,note_on,62,50,10
1,note_on,62,0,480
1,note_on,61,45,0
1,note_on,61,0,240
1,note_on,70,58,240
1,note_on,70,0,120
1,note_on,69,58,0
1,note_on,69,0,120
1,note_on,67,61,0
1,note_on,67,0,120
1,note_on,65,65,0
1,note_on,65,0,120
1,note_on,74,81,0
1,note_on,74,0,119
1,note_on,72,63,1
1,note_on,72,0,120
1,note_on,70,63,0
1,note_on,70,0,120
1,note_on,69,63,0
1,note_on,69,0,120
1,note_on,79,78,0
1,note_on,79,0,119
1,note_on,77,64,1
1,note_on,77,0,120
1,note_on,76,64,0
1,note_on,76,0,120
1,note_on,77,64,0
1,note_on,77,0,120
1,note_on,82,79,0
1,note_on,82,0,119
1,note_on,81,66,1
1,note_on,81,0,120
1,note_on,79,67,0
1,note_on,79,0,120
1,note_on,77,67,0
1,note_on,77,0,110
1,note_on,84,86,10
1,note_on,84,0,119
1,note_on,82,70,1
1,note_on,82,0,120
1,note_on,81,70,0
1,note_on,81,0,120
1,note_on,82,70,0
1,note_on,82,0,120
1,note_on,86,86,0
1,note_on,86,0,119
1,note_on,82,69,1
1,note_on,82,0,120
1,note_on,81,69,0
1,note_on,81,0,120
1,note_on,79,69,0
1,note_on,79,0,120
1,note_on,88,85,0
1,note_on,88,0,119
1,note_on,82,68,1
1,note_on,82,0,120
1,note_on,81,68,0
1,note_on,81,0,120
1,note_on,79,68,0
1,note_on,79,0,120
1,note_on,89,80,0
1,note_on,89,0,119
1,note_on,84,61,1
1,note_on,84,0,120
1,note_on,81,61,0
1,note_on,81,0,120
1,note_on,77,61,0
1,note_on,77,0,120
1,note_on,79,45,0
1,note_on,79,0,60
1,note_on,81,39,0
1,note_on,81,0,60
1,note_on,79,46,0
1,note_on,79,0,60
1,note_on,81,40,0
1,note_on,81,0,60
1,note_on,79,48,0
1,note_on,79,0,60
1,note_on,81,45,0
1,note_on,81,0,60
1,note_on,79,51,0
1,note_on,79,0,60
1,note_on,81,46,0
1,note_on,81,0,60
1,note_on,79,51,0
1,note_on,79,0,60
1,note_on,81,47,0
1,note_on,81,0,60
1,note_on,79,47,0
1,note_on,79,0,60
1,note_on,81,45,0
1,note_on,81,0,60
1,note_on,79,47,0
1,note_on,79,0,60
1,note_on,81,43,0
1,note_on,81,0,60
1,note_on,79,43,0
1,note_on,79,0,40
1,note_on,77,43,0
1,note_on,77,0,40
1,note_on,79,43,1
1,note_on,77,66,39
1,note_on,79,0,1
1,note_on,77,0,839
1,note_on,82,49,120
1,note_on,82,0,120
1,note_on,81,49,0
1,note_on,81,0,120
1,note_on,79,51,0
1,note_on,79,0,120
1,note_on,77,55,0
1,note_on,77,0,120
1,note_on,84,64,0
1,note_on,84,0,600
1,note_on,75,46,0
1,note_on,75,0,120
1,note_on,74,49,0
1,note_on,74,0,120
1,note_on,75,46,0
1,note_on,75,0,120
1,note_on,77,55,0
1,note_on,77,0,120
1,note_on,75,47,0
1,note_on,75,0,120
1,note_on,74,49,0
1,note_on,74,0,120
1,note_on,75,44,0
1,note_on,75,0,110
1,note_on,74,53,10
1,note_on,74,0,119
1,note_on,81,45,1
1,note_on,81,0,120
1,note_on,82,49,0
1,note_on,82,0,120
1,note_on,81,45,0
1,note_on,81,0,120
1,note_on,86,60,0
1,note_on,86,0,119
1,note_on,84,47,1
1,note_on,84,0,120
1,note_on,82,51,0
1,note_on,82,0,120
1,note_on,81,47,0
1,note_on,81,0,120
1,note_on,82,58,0
1,note_on,82,0,119
1,note_on,79,50,1
1,note_on,79,0,120
1,note_on,81,53,0
1,note_on,81,0,120
1,note_on,82,50,0
1,note_on,82,0,120
1,note_on,84,60,0
1,note_on,84,0,119
1,note_on,82,51,1
1,note_on,82,0,120
1,note_on,81,51,0
1,note_on,81,0,120
1,note_on,79,50,0
1,note_on,79,0,120
1,note_on,81,56,0
1,note_on,81,0,119
1,note_on,77,49,1
1,note_on,77,0,120
1,note_on,76,49,0
1,note_on,76,0,120
1,note_on,74,49,0
1,note_on,74,0,120
1,note_on,82,55,0
1,note_on,82,0,120
1,note_on,79,48,0
1,note_on,79,0,120
1,note_on,77,48,0
1,note_on,77,0,120
1,note_on,76,41,0
1,note_on,76,0,110
1,note_on,74,42,10
1,note_on,74,0,480
1,note_on,73,38,0
1,note_on,73,0,240
1,note_on,69,47,240
1,note_on,69,0,120
1,note_on,67,49,0
1,note_on,67,0,120
1,note_on,65,50,0
1,note_on,65,0,120
1,note_on,64,52,0
1,note_on,64,0,120
1,note_on,79,64,0
1,note_on,79,0,600
1,note_on,81,64,0
1,note_on,81,0,120
1,note_on,79,64,0
1,note_on,79,0,120
1,note_on,76,64,0
1,note_on,76,0,120
1,note_on,85,74,0
1,note_on,85,0,120
1,note_on,86,64,0
1,note_on,86,0,120
1,note_on,85,69,0
1,note_on,85,0,120
1,note_on,82,68,0
1,note_on,82,0,110
1,note_on,86,86,10
1,note_on,86,0,120
1,note_on,88,70,0
1,note_on,88,0,120
1,note_on,86,76,0
1,note_on,86,0,120
1,note_on,81,70,0
1,note_on,81,0,120
1,note_on,88,82,0
1,note_on,88,0,120
1,note_on,89,68,0
1,note_on,89,0,120
1,note_on,88,77,0
1,note_on,88,0,120
1,note_on,81,68,0
1,note_on,81,0,120
1,note_on,89,81,0
1,note_on,89,0,120
1,note_on,86,68,0
1,note_on,86,0,120
1,note_on,85,74,0
1,note_on,85,0,120
1,note_on,86,68,0
1,note_on,86,0,120
1,note_on,84,80,0
1,note_on,84,0,120
1,note_on,82,61,0
1,note_on,82,0,120
1,note_on,81,68,0
1,note_on,81,0,120
1,note_on,79,61,0
1,note_on,79,0,120
1,note_on,77,66,0
1,note_on,77,0,480
1,note_on,76,47,0
1,note_on,76,0,60
1,note_on,77,44,0
1,note_on,77,0,60
1,note_on,76,47,0
1,note_on,76,0,60
1,note_on,77,45,0
1,note_on,77,0,60
1,note_on,76,47,0
1,note_on,76,0,60
1,note_on,77,43,0
1,note_on,77,0,60
1,note_on,76,43,0
1,note_on,76,0,40
1,note_on,74,43,0
1,note_on,74,0,40
1,note_on,76,43,1
1,note_on,74,66,39
1,note_on,76,0,1
1,note_on,74,0,839
1,note_on,82,49,120
1,note_on,82,0,120
1,note_on,81,49,0
1,note_on,81,0,120
1,note_on,79,51,0
1,note_on,79,0,120
1,note_on,77,55,0
1,note_on,77,0,120
1,note_on,84,64,0
1,note_on,84,0,600
1,note_on,75,46,0
1,note_on,75,0,120
1,note_on,74,49,0
1,note_on,74,0,120
1,note_on,75,46,0
1,note_on,75,0,120
1,note_on,77,55,0
1,note_on,77,0,120
1,note_on,75,47,0
1,note_on,75,0,120
1,note_on,74,49,0
1,note_on,74,0,120
1,note_on,75,44,0
1,note_on,75,0,110
1,note_on,74,53,10
1,note_on,74,0,119
1,note_on,81,45,1
1,note_on,81,0,120
1,note_on,82,49,0
1,note_on,82,0,120
1,note_on,81,45,0
1,note_on,81,0,120
1,note_on,86,60,0
1,note_on,86,0,119
1,note_on,84,47,1
1,note_on,84,0,120
1,note_on,82,51,0
1,note_on,82,0,120
1,note_on,81,47,0
1,note_on,81,0,120
1,note_on,82,58,0
1,note_on,82,0,119
1,note_on,79,50,1
1,note_on,79,0,120
1,note_on,81,53,0
1,note_on,81,0,120
1,note_on,82,50,0
1,note_on,82,0,120
1,note_on,84,60,0
1,note_on,84,0,119
1,note_on,82,51,1
1,note_on,82,0,120
1,note_on,81,51,0
1,note_on,81,0,120
1,note_on,79,50,0
1,note_on,79,0,120
1,note_on,81,56,0
1,note_on,81,0,119
1,note_on,77,49,1
1,note_on,77,0,120
1,note_on,76,49,0
1,note_on,76,0,120
1,note_on,74,49,0
1,note_on,74,0,120
1,note_on,82,55,0
1,note_on,82,0,120
1,note_on,79,48,0
1,note_on,79,0,120
1,note_on,77,48,0
1,note_on,77,0,120
1,note_on,76,41,0
1,note_on,76,0,110
1,note_on,74,42,10
1,note_on,74,0,480
1,note_on,73,38,0
1,note_on,73,0,240
1,note_on,69,47,240
1,note_on,69,0,120
1,note_on,67,49,0
1,note_on,67,0,120
1,note_on,65,50,0
1,note_on,65,0,120
1,note_on,64,52,0
1,note_on,64,0,120
1,note_on,79,64,0
1,note_on,79,0,600
1,note_on,81,64,0
1,note_on,81,0,120
1,note_on,79,64,0
1,note_on,79,0,120
1,note_on,76,64,0
1,note_on,76,0,120
1,note_on,85,74,0
1,note_on,85,0,120
1,note_on,86,64,0
1,note_on,86,0,120
1,note_on,85,69,0
1,note_on,85,0,120
1,note_on,82,68,0
1,note_on,82,0,110
1,note_on,86,86,10
1,note_on,86,0,120
1,note_on,88,70,0
1,note_on,88,0,120
1,note_on,86,76,0
1,note_on,86,0,120
1,note_on,81,70,0
1,note_on,81,0,120
1,note_on,88,82,0
1,note_on,88,0,120
1,note_on,89,68,0
1,note_on,89,0,120
1,note_on,88,77,0
1,note_on,88,0,120
1,note_on,81,68,0
1,note_on,81,0,120
1,note_on,89,81,0
1,note_on,89,0,120
1,note_on,86,68,0
1,note_on,86,0,120
1,note_on,85,74,0
1,note_on,85,0,120
1,note_on,86,68,0
1,note_on,86,0,120
1,note_on,84,80,0
1,note_on,84,0,120
1,note_on,82,61,0
1,note_on,82,0,120
1,note_on,81,68,0
1,note_on,81,0,120
1,note_on,79,61,0
1,note_on,79,0,120
1,note_on,77,66,0
1,note_on,77,0,480
1,note_on,76,47,0
1,note_on,76,0,60
1,note_on,77,44,0
1,note_on,77,0,60
1,note_on,76,47,0
1,note_on,76,0,60
1,note_on,77,45,0
1,note_on,77,0,60
1,note_on,76,47,0
1,note_on,76,0,60
1,note_on,77,43,0
1,note_on,77,0,60
1,note_on,76,43,0
1,note_on,76,0,40
1,note_on,74,43,0
1,note_on,74,0,40
1,note_on,76,43,1
1,note_on,74,66,39
1,note_on,76,0,1
1,note_on,74,0,839
1,note_on,69,50,120
1,note_on,69,0,360
1,note_on,66,45,0
1,note_on,66,0,120
1,note_on,74,50,0
1,note_on,74,0,90
1,note_on,74,47,390
1,note_on,74,0,90
1,note_on,74,47,390
1,note_on,74,0,240
1,note_on,73,47,0
1,note_on,73,0,60
1,note_on,74,47,0
1,note_on,74,0,60
1,note_on,76,47,0
1,note_on,76,0,60
1,note_on,74,47,0
1,note_on,74,0,60
1,note_on,73,51,0
1,note_on,73,0,360
1,note_on,76,52,0
1,note_on,76,0,120
1,note_on,79,56,0
1,note_on,79,0,840
1,note_on,76,51,0
1,note_on,76,0,120
1,note_on,78,58,0
1,note_on,78,0,360
1,note_on,74,53,0
1,note_on,74,0,120
1,note_on,81,58,0
1,note_on,81,0,360
1,note_on,78,54,0
1,note_on,78,0,120
1,note_on,83,59,0
1,note_on,83,0,360
1,note_on,79,48,0
1,note_on,79,0,120
1,note_on,78,51,0
1,note_on,78,0,480
1,note_on,76,39,0
1,note_on,76,0,360
1,note_on,69,50,120
1,note_on,69,0,360
1,note_on,66,45,0
1,note_on,66,0,120
1,note_on,74,50,0
1,note_on,74,0,90
1,note_on,74,47,390
1,note_on,74,0,90
1,note_on,74,47,390
1,note_on,74,0,240
1,note_on,73,47,0
1,note_on,73,0,60
1,note_on,74,47,0
1,note_on,74,0,60
1,note_on,76,47,0
1,note_on,76,0,60
1,note_on,74,47,0
1,note_on,74,0,60
1,note_on,73,58,0
1,note_on,73,0,360
1,note_on,76,53,0
1,note_on,76,0,120
1,note_on,79,58,0
1,note_on,79,0,360
1,note_on,76,54,0
1,note_on,76,0,120
1,note_on,78,59,0
1,note_on,78,0,360
1,note_on,74,48,0
1,note_on,74,0,120
1,note_on,71,58,0
1,note_on,71,0,120
1,note_on,76,56,360
1,note_on,76,0,120
1,note_on,73,45,360
1,note_on,67,45,0
1,note_on,73,0,240
1,note_on,74,55,0
1,note_on,74,0,60
1,note_on,73,48,0
1,note_on,73,0,60
1,note_on,71,48,0
1,note_on,71,0,60
1,note_on,73,48,0
1,note_on,73,0,60
1,note_on,67,0,0
1,note_on,74,58,0
1,note_on,66,49,0
1,note_on,66,0,480
1,note_on,74,0,0
1,note_on,66,50,480
1,note_on,66,0,120
1,note_on,62,45,0
1,note_on,62,0,120
1,note_on,69,45,0
1,note_on,69,0,120
1,note_on,66,45,0
1,note_on,66,0,120
1,note_on,74,56,0
1,note_on,74,0,120
1,note_on,69,45,0
1,note_on,69,0,120
1,note_on,71,45,0
1,note_on,71,0,120
1,note_on,73,45,0
1,note_on,73,0,120
1,note_on,74,55,0
1,note_on,74,0,120
1,note_on,76,45,0
1,note_on,76,0,120
1,note_on,78,45,0
1,note_on,78,0,120
1,note_on,79,45,0
1,note_on,79,0,120
1,note_on,81,61,0
1,note_on,81,0,120
1,note_on,78,52,0
1,note_on,78,0,120
1,note_on,76,52,0
1,note_on,76,0,120
1,note_on,74,50,0
1,note_on,74,0,120
1,note_on,73,54,0
1,note_on,73,0,120
1,note_on,74,45,0
1,note_on,74,0,120
1,note_on,76,45,0
1,note_on,76,0,120
1,note_on,78,45,0
1,note_on,78,0,120
1,note_on,79,51,0
1,note_on,79,0,120
1,note_on,76,47,0
1,note_on,76,0,120
1,note_on,79,48,0
1,note_on,79,0,120
1,note_on,81,49,0
1,note_on,81,0,120
1,note_on,83,55,0
1,note_on,83,0,120
1,note_on,79,45,0
1,note_on,79,0,120
1,note_on,78,45,0
1,note_on,78,0,120
1,note_on,76,45,0
1,note_on,76,0,120
1,note_on,78,55,0
1,note_on,78,0,120
1,note_on,74,53,0
1,note_on,74,0,120
1,note_on,76,53,0
1,note_on,76,0,120
1,note_on,78,53,0
1,note_on,78,0,120
1,note_on,79,64,0
1,note_on,79,0,120
1,note_on,81,53,0
1,note_on,81,0,120
1,note_on,83,56,0
1,note_on,83,0,120
1,note_on,85,58,0
1,note_on,85,0,120
1,note_on,86,65,0
1,note_on,86,0,120
1,note_on,83,57,0
1,note_on,83,0,120
1,note_on,81,45,0
1,note_on,81,0,120
1,note_on,79,45,0
1,note_on,79,0,120
1,note_on,74,47,0
1,note_on,78,56,0
1,note_on,78,0,480
1,note_on,74,0,0
1,note_on,73,42,0
1,note_on,76,50,0
1,note_on,76,0,240
1,note_on,73,0,0
1,note_on,66,46,240
1,note_on,66,0,120
1,note_on,62,47,0
1,note_on,62,0,120
1,note_on,69,49,0
1,note_on,69,0,120
1,note_on,66,53,0
1,note_on,66,0,120
1,note_on,74,62,0
1,note_on,74,0,120
1,note_on,69,49,0
1,note_on,69,0,120
1,note_on,71,49,0
1,note_on,71,0,120
1,note_on,73,49,0
1,note_on,73,0,120
1,note_on,74,60,0
1,note_on,74,0,120
1,note_on,76,48,0
1,note_on,76,0,120
1,note_on,78,48,0
1,note_on,78,0,120
1,note_on,79,48,0
1,note_on,79,0,120
1,note_on,81,61,0
1,note_on,81,0,120
1,note_on,78,52,0
1,note_on,78,0,120
1,note_on,76,52,0
1,note_on,76,0,120
1,note_on,74,50,0
1,note_on,74,0,120
1,note_on,73,54,0
1,note_on,73,0,120
1,note_on,74,45,0
1,note_on,74,0,120
1,note_on,76,45,0
1,note_on,76,0,120
1,note_on,78,45,0
1,note_on,78,0,120
1,note_on,79,56,0
1,note_on,79,0,120
1,note_on,78,47,0
1,note_on,78,0,120
1,note_on,76,48,0
1,note_on,76,0,120
1,note_on,74,49,0
1,note_on,74,0,120
1,note_on,73,55,0
1,note_on,73,0,120
1,note_on,71,45,0
1,note_on,71,0,120
1,note_on,69,45,0
1,note_on,69,0,120
1,note_on,67,45,0
1,note_on,67,0,120
1,note_on,66,55,0
1,note_on,66,0,120
1,note_on,69,46,0
1,note_on,69,0,120
1,note_on,67,46,0
1,note_on,67,0,120
1,note_on,66,46,0
1,note_on,66,0,120
1,note_on,64,55,0
1,note_on,64,0,120
1,note_on,71,45,0
1,note_on,71,0,120
1,note_on,69,45,0
1,note_on,69,0,120
1,note_on,67,45,0
1,note_on,67,0,120
1,note_on,66,53,0
1,note_on,66,0,120
1,note_on,64,42,0
1,note_on,64,0,120
1,note_on,62,45,0
1,note_on,62,0,120
1,note_on,61,38,0
1,note_on,61,0,120
1,note_on,62,53,0
1,note_on,62,0,480
1,note_on,78,53,480
1,note_on,78,0,120
1,note_on,74,55,0
1,note_on,74,0,120
1,note_on,81,61,0
1,note_on,81,0,120
1,note_on,78,63,0
1,note_on,78,0,120
1,note_on,86,71,0
1,note_on,86,0,120
1,note_on,81,55,0
1,note_on,81,0,120
1,note_on,78,55,0
1,note_on,78,0,120
1,note_on,74,55,0
1,note_on,74,0,120
1,note_on,71,69,0
1,note_on,74,56,120
1,note_on,71,0,30
1,note_on,74,0,90
1,note_on,76,56,0
1,note_on,76,0,120
1,note_on,80,51,0
1,note_on,80,0,120
1,note_on,73,68,0
1,note_on,76,55,120
1,note_on,73,0,30
1,note_on,76,0,90
1,note_on,85,53,0
1,note_on,85,0,120
1,note_on,88,51,0
1,note_on,88,0,120
1,note_on,71,62,0
1,note_on,74,53,120
1,note_on,71,0,30
1,note_on,74,0,90
1,note_on,79,53,0
1,note_on,79,0,120
1,note_on,83,53,0
1,note_on,83,0,120
1,note_on,69,58,0
1,note_on,73,47,120
1,note_on,69,0,30
1,note_on,73,0,90
1,note_on,78,47,0
1,note_on,78,0,120
1,note_on,81,47,0
1,note_on,81,0,120
1,note_on,67,55,0
1,note_on,71,48,120
1,note_on,67,0,30
1,note_on,71,0,90
1,note_on,76,48,0
1,note_on,76,0,120
1,note_on,79,45,0
1,note_on,79,0,120
1,note_on,66,61,0
1,note_on,69,50,120
1,note_on,66,0,30
1,note_on,69,0,90
1,note_on,74,50,0
1,note_on,74,0,120
1,note_on,78,47,0
1,note_on,78,0,120
1,note_on,64,55,0
1,note_on,67,50,120
1,note_on,64,0,30
1,note_on,67,0,90
1,note_on,73,50,0
1,note_on,73,0,120
1,note_on,79,48,0
1,note_on,79,0,120
1,note_on,62,54,0
1,note_on,62,0,120
1,note_on,69,46,0
1,note_on,69,0,120
1,note_on,78,46,0
1,note_on,78,0,120
1,note_on,86,47,0
1,note_on,86,0,120
1,note_on,74,47,0
1,note_on,78,56,0
1,note_on,78,0,480
1,note_on,74,0,0
1,note_on,73,42,0
1,note_on,76,50,0
1,note_on,76,0,240
1,note_on,73,0,0
1,note_on,78,52,240
1,note_on,78,0,120
1,note_on,74,57,0
1,note_on,74,0,120
1,note_on,81,61,0
1,note_on,81,0,120
1,note_on,78,61,0
1,note_on,78,0,120
1,note_on,86,73,0
1,note_on,86,0,120
1,note_on,81,57,0
1,note_on,81,0,120
1,note_on,78,57,0
1,note_on,78,0,120
1,note_on,74,57,0
1,note_on,74,0,120
1,note_on,71,65,0
1,note_on,74,53,120
1,note_on,71,0,30
1,note_on,74,0,90
1,note_on,76,53,0
1,note_on,76,0,120
1,note_on,80,53,0
1,note_on,80,0,120
1,note_on,73,64,0
1,note_on,76,53,120
1,note_on,73,0,30
1,note_on,76,0,90
1,note_on,85,53,0
1,note_on,85,0,120
1,note_on,88,53,0
1,note_on,88,0,120
1,note_on,71,61,0
1,note_on,74,49,120
1,note_on,71,0,30
1,note_on,74,0,90
1,note_on,79,49,0
1,note_on,79,0,120
1,note_on,83,46,0
1,note_on,83,0,120
1,note_on,69,57,0
1,note_on,73,43,120
1,note_on,69,0,30
1,note_on,73,0,90
1,note_on,78,43,0
1,note_on,78,0,120
1,note_on,81,43,0
1,note_on,81,0,120
1,note_on,67,50,0
1,note_on,71,45,120
1,note_on,67,0,30
1,note_on,71,0,90
1,note_on,76,45,0
1,note_on,76,0,120
1,note_on,79,45,0
1,note_on,79,0,120
1,note_on,66,61,0
1,note_on,69,50,120
1,note_on,66,0,30
1,note_on,69,0,90
1,note_on,74,50,0
1,note_on,74,0,120
1,note_on,78,47,0
1,note_on,78,0,120
1,note_on,67,54,0
1,note_on,71,43,120
1,note_on,67,0,30
1,note_on,71,0,90
1,note_on,76,43,0
1,note_on,76,0,120
1,note_on,79,42,0
1,note_on,79,0,120
1,note_on,57,50,0
1,note_on,57,0,120
1,note_on,64,38,0
1,note_on,64,0,120
1,note_on,67,38,0
1,note_on,67,0,120
1,note_on,73,38,0
1,note_on,73,0,120
1,note_on,74,50,0
1,note_on,66,50,0
1,note_on,66,0,480
1,note_on,74,0,0
1,note_on,78,39,480
1,note_on,78,0,120
1,note_on,74,41,0
1,note_on,74,0,120
1,note_on,81,45,0
1,note_on,81,0,120
1,note_on,78,47,0
1,note_on,78,0,120
1,note_on,86,53,0
1,note_on,86,0,120
1,note_on,81,41,0
1,note_on,81,0,120
1,note_on,78,41,0
1,note_on,78,0,120
1,note_on,74,41,0
1,note_on,74,0,120
1,note_on,71,51,0
1,note_on,74,42,120
1,note_on,71,0,30
1,note_on,74,0,90
1,note_on,76,42,0
1,note_on,76,0,120
1,note_on,80,38,0
1,note_on,80,0,120
1,note_on,73,51,0
1,note_on,76,41,120
1,note_on,73,0,30
1,note_on,76,0,90
1,note_on,85,39,0
1,note_on,85,0,120
1,note_on,88,38,0
1,note_on,88,0,120
1,note_on,71,46,0
1,note_on,74,39,120
1,note_on,71,0,30
1,note_on,74,0,90
1,note_on,79,39,0
1,note_on,79,0,120
1,note_on,83,39,0
1,note_on,83,0,120
1,note_on,69,43,0
1,note_on,73,35,120
1,note_on,69,0,30
1,note_on,73,0,90
1,note_on,78,35,0
1,note_on,78,0,120
1,note_on,81,35,0
1,note_on,81,0,120
1,note_on,67,41,0
1,note_on,71,36,120
1,note_on,67,0,30
1,note_on,71,0,90
1,note_on,76,36,0
1,note_on,76,0,120
1,note_on,79,33,0
1,note_on,79,0,120
1,note_on,66,45,0
1,note_on,69,37,120
1,note_on,66,0,30
1,note_on,69,0,90
1,note_on,74,37,0
1,note_on,74,0,120
1,note_on,78,35,0
1,note_on,78,0,120
1,note_on,64,41,0
1,note_on,67,37,120
1,note_on,64,0,30
1,note_on,67,0,90
1,note_on,73,37,0
1,note_on,73,0,120
1,note_on,79,36,0
1,note_on,79,0,120
1,note_on,62,40,0
1,note_on,62,0,120
1,note_on,69,34,0
1,note_on,69,0,120
1,note_on,78,34,0
1,note_on,78,0,120
1,note_on,86,35,0
1,note_on,86,0,120
1,note_on,74,35,0
1,note_on,78,42,0
1,note_on,78,0,480
1,note_on,74,0,0
1,note_on,73,31,0
1,note_on,76,37,0
1,note_on,76,0,240
1,note_on,73,0,0
1,note_on,78,39,240
1,note_on,78,0,120
1,note_on,74,42,0
1,note_on,74,0,120
1,note_on,81,45,0
1,note_on,81,0,120
1,note_on,78,45,0
1,note_on,78,0,120
1,note_on,86,54,0
1,note_on,86,0,120
1,note_on,81,42,0
1,note_on,81,0,120
1,note_on,78,42,0
1,note_on,78,0,120
1,note_on,74,42,0
1,note_on,74,0,120
1,note_on,71,48,0
1,note_on,74,39,120
1,note_on,71,0,30
1,note_on,74,0,90
1,note_on,76,39,0
1,note_on,76,0,120
1,note_on,80,39,0
1,note_on,80,0,120
1,note_on,73,48,0
1,note_on,76,39,120
1,note_on,73,0,30
1,note_on,76,0,90
1,note_on,85,39,0
1,note_on,85,0,120
1,note_on,88,39,0
1,note_on,88,0,120
1,note_on,71,45,0
1,note_on,74,36,120
1,note_on,71,0,30
1,note_on,74,0,90
1,note_on,79,36,0
1,note_on,79,0,120
1,note_on,83,34,0
1,note_on,83,0,120
1,note_on,69,42,0
1,note_on,73,32,120
1,note_on,69,0,30
1,note_on,73,0,90
1,note_on,78,32,0
1,note_on,78,0,120
1,note_on,81,32,0
1,note_on,81,0,120
1,note_on,67,37,0
1,note_on,71,33,120
1,note_on,67,0,30
1,note_on,71,0,90
1,note_on,76,33,0
1,note_on,76,0,120
1,note_on,79,33,0
1,note_on,79,0,120
1,note_on,66,45,0
1,note_on,69,37,120
1,note_on,66,0,30
1,note_on,69,0,90
1,note_on,74,37,0
1,note_on,74,0,120
1,note_on,78,35,0
1,note_on,78,0,120
1,note_on,67,40,0
1,note_on,71,32,120
1,note_on,67,0,30
1,note_on,71,0,90
1,note_on,76,32,0
1,note_on,76,0,120
1,note_on,79,31,0
1,note_on,79,0,120
1,note_on,57,37,0
1,note_on,57,0,120
1,note_on,64,28,0
1,note_on,64,0,120
1,note_on,67,28,0
1,note_on,67,0,120
1,note_on,73,28,0
1,note_on,73,0,120
1,note_on,74,37,0
1,note_on,66,37,0
1,note_on,66,0,480
1,note_on,74,0,0
2,note_on,62,46,1440
2,note_on,62,0,120
2,note_on,66,41,360
2,note_on,66,0,120
2,note_on,62,41,360
2,note_on,62,0,240
2,note_on,69,47,240
2,note_on,69,0,480
2,note_on,57,38,0
2,note_on,57,0,480
2,note_on,61,38,0
2,note_on,61,0,480
2,note_on,62,45,0
2,note_on,62,0,480
2,note_on,66,47,0
2,note_on,66,0,480
2,note_on,67,48,0
2,note_on,67,0,480
2,note_on,69,39,0
2,note_on,69,0,480
2,note_on,57,30,0
2,note_on,57,0,360
2,note_on,62,46,600
2,note_on,62,0,120
2,note_on,66,41,360
2,note_on,66,0,120
2,note_on,62,41,360
2,note_on,62,0,240
2,note_on,69,47,240
2,note_on,69,0,480
2,note_on,61,38,0
2,note_on,61,0,480
2,note_on,62,39,0
2,note_on,62,0,480
2,note_on,55,39,0
2,note_on,67,47,0
2,note_on,67,0,960
2,note_on,55,0,0
2,note_on,64,40,0
2,note_on,57,34,0
2,note_on,57,0,480
2,note_on,64,0,0
2,note_on,62,46,0
2,note_on,62,0,480
2,note_on,50,28,0
2,note_on,50,0,480
2,note_on,62,46,480
2,note_on,62,0,120
2,note_on,66,41,360
2,note_on,66,0,120
2,note_on,62,41,360
2,note_on,62,0,240
2,note_on,69,47,240
2,note_on,69,0,480
2,note_on,57,38,0
2,note_on,57,0,480
2,note_on,61,38,0
2,note_on,61,0,480
2,note_on,62,45,0
2,note_on,62,0,480
2,note_on,66,47,0
2,note_on,66,0,480
2,note_on,67,48,0
2,note_on,67,0,480
2,note_on,69,39,0
2,note_on,69,0,480
2,note_on,57,30,0
2,note_on,57,0,360
2,note_on,62,46,600
2,note_on,62,0,120
2,note_on,66,41,360
2,note_on,66,0,120
2,note_on,62,41,360
2,note_on,62,0,240
2,note_on,69,47,240
2,note_on,69,0,480
2,note_on,61,38,0
2,note_on,61,0,480
2,note_on,62,39,0
2,note_on,62,0,480
2,note_on,55,39,0
2,note_on,67,47,0
2,note_on,67,0,960
2,note_on,55,0,0
2,note_on,64,40,0
2,note_on,57,34,0
2,note_on,57,0,480
2,note_on,64,0,0
2,note_on,62,46,0
2,note_on,62,0,480
2,note_on,50,34,0
2,note_on,50,0,480
2,note_on,74,38,960
2,note_on,74,0,480
2,note_on,73,37,0
2,note_on,73,0,480
2,note_on,71,38,0
2,note_on,71,0,480
2,note_on,69,39,0
2,note_on,69,0,480
2,note_on,67,40,0
2,note_on,67,0,480
2,note_on,66,46,0
2,note_on,66,0,480
2,note_on,64,48,0
2,note_on,64,0,480
2,note_on,62,48,0
2,note_on,62,0,480
2,note_on,69,43,0
2,note_on,69,0,480
2,note_on,57,36,0
2,note_on,57,0,240
2,note_on,74,38,1200
2,note_on,74,0,480
2,note_on,73,37,0
2,note_on,73,0,480
2,note_on,71,38,0
2,note_on,71,0,480
2,note_on,69,39,0
2,note_on,69,0,480
2,note_on,67,41,0
2,note_on,67,0,480
2,note_on,66,47,0
2,note_on,66,0,480
2,note_on,69,42,0
2,note_on,69,0,480
2,note_on,57,38,0
2,note_on,57,0,480
2,note_on,62,47,0
2,note_on,62,0,480
2,note_on,50,31,0
2,note_on,50,0,360
2,note_on,74,38,1080
2,note_on,74,0,480
2,note_on,73,37,0
2,note_on,73,0,480
2,note_on,71,38,0
2,note_on,71,0,480
2,note_on,69,39,0
2,note_on,69,0,480
2,note_on,67,40,0
2,note_on,67,0,480
2,note_on,66,46,0
2,note_on,66,0,480
2,note_on,64,48,0
2,note_on,64,0,480
2,note_on,62,48,0
2,note_on,62,0,480
2,note_on,69,43,0
2,note_on,69,0,480
2,note_on,57,36,0
2,note_on,57,0,240
2,note_on,74,38,1200
2,note_on,74,0,480
2,note_on,73,37,0
2,note_on,73,0,480
2,note_on,71,38,0
2,note_on,71,0,480
2,note_on,69,39,0
2,note_on,69,0,480
2,note_on,67,41,0
2,note_on,67,0,480
2,note_on,66,47,0
2,note_on,66,0,480
2,note_on,69,42,0
2,note_on,69,0,480
2,note_on,57,38,0
2,note_on,57,0,480
2,note_on,62,47,0
2,note_on,62,0,480
2,note_on,50,31,0
2,note_on,50,0,360
2,note_on,53,47,1080
2,note_on,53,0,480
2,note_on,50,40,0
2,note_on,50,0,480
2,note_on,52,48,0
2,note_on,52,0,960
2,note_on,49,40,0
2,note_on,49,0,480
2,note_on,50,46,0
2,note_on,50,0,480
2,note_on,41,48,0
2,note_on,41,0,480
2,note_on,43,41,0
2,note_on,43,0,480
2,note_on,45,43,0
2,note_on,45,0,480
2,note_on,33,36,0
2,note_on,33,0,240
2,note_on,53,39,720
2,note_on,57,39,0
2,note_on,60,47,0
2,note_on,60,0,960
2,note_on,57,0,0
2,note_on,53,0,0
2,note_on,63,34,0
2,note_on,65,40,0
2,note_on,65,0,480
2,note_on,63,0,0
2,note_on,65,53,0
2,note_on,62,45,0
2,note_on,62,0,480
2,note_on,58,43,0
2,note_on,58,0,480
2,note_on,65,0,0
2,note_on,58,54,0
2,note_on,55,45,0
2,note_on,55,0,480
2,note_on,58,0,0
2,note_on,57,51,0
2,note_on,60,61,0
2,note_on,60,0,480
2,note_on,57,0,0
2,note_on,60,42,0
2,note_on,60,0,480
2,note_on,48,38,0
2,note_on,48,0,480
2,note_on,53,47,0
2,note_on,53,0,480
2,note_on,41,31,0
2,note_on,41,0,360
2,note_on,53,47,1080
2,note_on,53,0,480
2,note_on,50,40,0
2,note_on,50,0,480
2,note_on,52,48,0
2,note_on,52,0,960
2,note_on,49,40,0
2,note_on,49,0,480
2,note_on,50,46,0
2,note_on,50,0,480
2,note_on,41,48,0
2,note_on,41,0,480
2,note_on,43,41,0
2,note_on,43,0,480
2,note_on,45,43,0
2,note_on,45,0,480
2,note_on,33,36,0
2,note_on,33,0,240
2,note_on,53,39,720
2,note_on,57,39,0
2,note_on,60,47,0
2,note_on,60,0,960
2,note_on,57,0,0
2,note_on,53,0,0
2,note_on,63,34,0
2,note_on,65,40,0
2,note_on,65,0,480
2,note_on,63,0,0
2,note_on,65,53,0
2,note_on,62,45,0
2,note_on,62,0,480
2,note_on,58,43,0
2,note_on,58,0,480
2,note_on,65,0,0
2,note_on,58,54,0
2,note_on,55,45,0
2,note_on,55,0,480
2,note_on,58,0,0
2,note_on,57,51,0
2,note_on,60,61,0
2,note_on,60,0,480
2,note_on,57,0,0
2,note_on,60,42,0
2,note_on,60,0,480
2,note_on,48,38,0
2,note_on,48,0,480
2,note_on,53,47,0
2,note_on,53,0,480
2,note_on,41,31,0
2,note_on,41,0,360
2,note_on,69,29,1080
2,note_on,72,35,0
2,note_on,72,0,480
2,note_on,69,0,0
2,note_on,67,25,0
2,note_on,70,30,0
2,note_on,70,0,480
2,note_on,67,0,0
2,note_on,69,36,0
2,note_on,66,30,0
2,note_on,66,0,960
2,note_on,69,0,0
2,note_on,67,28,0
2,note_on,74,34,0
2,note_on,74,0,480
2,note_on,67,0,0
2,note_on,64,33,0
2,note_on,72,39,0
2,note_on,64,0,480
2,note_on,65,40,0
2,note_on,65,0,480
2,note_on,72,0,0
2,note_on,67,34,0
2,note_on,55,28,0
2,note_on,55,0,480
2,note_on,67,0,0
2,note_on,57,25,0
2,note_on,64,36,0
2,note_on,64,0,720
2,note_on,57,0,0
2,note_on,58,35,1200
2,note_on,61,42,0
2,note_on,61,0,480
2,note_on,58,0,0
2,note_on,55,30,0
2,note_on,58,36,0
2,note_on,58,0,480
2,note_on,55,0,0
2,note_on,53,45,0
2,note_on,62,53,0
2,note_on,57,45,0
2,note_on,57,0,480
2,note_on,62,0,0
2,note_on,53,0,0
2,note_on,52,43,0
2,note_on,55,43,0
2,note_on,61,43,0
2,note_on,61,0,480
2,note_on,55,0,0
2,note_on,52,0,0
2,note_on,50,45,0
2,note_on,62,54,0
2,note_on,53,45,0
2,note_on,53,0,480
2,note_on,62,0,0
2,note_on,50,0,0
2,note_on,55,61,0
2,note_on,55,0,480
2,note_on,57,42,0
2,note_on,57,0,480
2,note_on,45,38,0
2,note_on,45,0,480
2,note_on,50,47,0
2,note_on,50,0,480
2,note_on,38,31,0
2,note_on,38,0,360
2,note_on,69,29,1080
2,note_on,72,35,0
2,note_on,72,0,480
2,note_on,69,0,0
2,note_on,67,25,0
2,note_on,70,30,0
2,note_on,70,0,480
2,note_on,67,0,0
2,note_on,69,36,0
2,note_on,66,30,0
2,note_on,66,0,960
2,note_on,69,0,0
2,note_on,67,28,0
2,note_on,74,34,0
2,note_on,74,0,480
2,note_on,67,0,0
2,note_on,64,33,0
2,note_on,72,39,0
2,note_on,64,0,480
2,note_on,65,40,0
2,note_on,65,0,480
2,note_on,72,0,0
2,note_on,67,34,0
2,note_on,55,28,0
2,note_on,55,0,480
2,note_on,67,0,0
2,note_on,57,25,0
2,note_on,64,36,0
2,note_on,64,0,720
2,note_on,57,0,0
2,note_on,58,35,1200
2,note_on,61,42,0
2,note_on,61,0,480
2,note_on,58,0,0
2,note_on,55,30,0
2,note_on,58,36,0
2,note_on,58,0,480
2,note_on,55,0,0
2,note_on,53,45,0
2,note_on,62,53,0
2,note_on,57,45,0
2,note_on,57,0,480
2,note_on,62,0,0
2,note_on,53,0,0
2,note_on,52,43,0
2,note_on,55,43,0
2,note_on,61,43,0
2,note_on,61,0,480
2,note_on,55,0,0
2,note_on,52,0,0
2,note_on,50,45,0
2,note_on,62,54,0
2,note_on,53,45,0
2,note_on,53,0,480
2,note_on,62,0,0
2,note_on,50,0,0
2,note_on,55,61,0
2,note_on,55,0,480
2,note_on,57,42,0
2,note_on,57,0,480
2,note_on,45,38,0
2,note_on,45,0,480
2,note_on,50,47,0
2,note_on,50,0,480
2,note_on,38,31,0
2,note_on,38,0,360
2,note_on,62,46,600
2,note_on,62,0,60
2,note_on,66,41,420
2,note_on,66,0,120
2,note_on,62,41,360
2,note_on,62,0,240
2,note_on,69,47,240
2,note_on,69,0,240
2,note_on,57,38,240
2,note_on,57,0,480
2,note_on,61,38,0
2,note_on,61,0,480
2,note_on,62,45,0
2,note_on,62,0,480
2,note_on,66,47,0
2,note_on,66,0,480
2,note_on,67,55,0
2,note_on,67,0,480
2,note_on,69,39,0
2,note_on,69,0,480
2,note_on,57,30,0
2,note_on,57,0,360
2,note_on,62,46,600
2,note_on,62,0,60
2,note_on,66,41,420
2,note_on,66,0,120
2,note_on,62,41,360
2,note_on,62,0,240
2,note_on,69,47,240
2,note_on,69,0,240
2,note_on,61,38,240
2,note_on,61,0,480
2,note_on,62,38,0
2,note_on,62,0,480
2,note_on,55,45,0
2,note_on,55,0,480
2,note_on,57,47,0
2,note_on,57,0,480
2,note_on,45,48,0
2,note_on,45,0,480
2,note_on,50,46,0
2,note_on,50,0,480
2,note_on,38,28,0
2,note_on,38,0,480
2,note_on,62,46,480
2,note_on,62,0,60
2,note_on,66,41,420
2,note_on,66,0,120
2,note_on,62,41,360
2,note_on,62,0,240
2,note_on,69,47,240
2,note_on,69,0,240
2,note_on,57,38,240
2,note_on,57,0,480
2,note_on,61,38,0
2,note_on,61,0,480
2,note_on,62,45,0
2,note_on,62,0,480
2,note_on,66,47,0
2,note_on,66,0,480
2,note_on,67,48,0
2,note_on,67,0,480
2,note_on,69,39,0
2,note_on,69,0,480
2,note_on,57,30,0
2,note_on,57,0,360
2,note_on,62,46,600
2,note_on,62,0,60
2,note_on,66,41,420
2,note_on,66,0,120
2,note_on,62,41,360
2,note_on,62,0,240
2,note_on,69,47,240
2,note_on,69,0,240
2,note_on,61,43,240
2,note_on,61,0,480
2,note_on,62,48,0
2,note_on,62,0,480
2,note_on,55,45,0
2,note_on,55,0,480
2,note_on,57,47,0
2,note_on,57,0,480
2,note_on,45,48,0
2,note_on,45,0,480
2,note_on,50,46,0
2,note_on,50,0,480
2,note_on,38,28,0
2,note_on,38,0,480
2,note_on,62,38,960
2,note_on,62,0,480
2,note_on,61,37,0
2,note_on,61,0,480
2,note_on,59,38,0
2,note_on,59,0,480
2,note_on,57,39,0
2,note_on,57,0,480
2,note_on,55,40,0
2,note_on,55,0,480
2,note_on,54,41,0
2,note_on,54,0,480
2,note_on,52,39,0
2,note_on,52,0,480
2,note_on,50,39,0
2,note_on,50,0,480
2,note_on,57,43,0
2,note_on,57,0,480
2,note_on,45,36,0
2,note_on,45,0,240
2,note_on,74,38,1200
2,note_on,74,0,480
2,note_on,73,37,0
2,note_on,73,0,480
2,note_on,71,38,0
2,note_on,71,0,480
2,note_on,69,39,0
2,note_on,69,0,480
2,note_on,67,40,0
2,note_on,67,0,480
2,note_on,66,47,0
2,note_on,66,0,240
2,note_on,67,44,120
2,note_on,67,0,120
2,note_on,69,42,0
2,note_on,69,0,480
2,note_on,57,38,0
2,note_on,57,0,480
2,note_on,62,47,0
2,note_on,62,0,480
2,note_on,50,31,0
2,note_on,50,0,360
2,note_on,62,38,1080
2,note_on,62,0,480
2,note_on,61,37,0
2,note_on,61,0,480
2,note_on,59,38,0
2,note_on,59,0,480
2,note_on,57,39,0
2,note_on,57,0,480
2,note_on,55,40,0
2,note_on,55,0,480
2,note_on,54,41,0
2,note_on,54,0,480
2,note_on,52,39,0
2,note_on,52,0,480
2,note_on,50,39,0
2,note_on,50,0,480
2,note_on,57,43,0
2,note_on,57,0,480
2,note_on,45,36,0
2,note_on,45,0,240
2,note_on,74,38,1200
2,note_on,74,0,480
2,note_on,73,37,0
2,note_on,73,0,480
2,note_on,71,38,0
2,note_on,71,0,480
2,note_on,69,39,0
2,note_on,69,0,480
2,note_on,67,40,0
2,note_on,67,0,480
2,note_on,66,47,0
2,note_on,66,0,240
2,note_on,67,44,120
2,note_on,67,0,120
2,note_on,69,42,0
2,note_on,69,0,480
2,note_on,57,38,0
2,note_on,57,0,480
2,note_on,62,47,0
2,note_on,62,0,480
2,note_on,50,31,0
2,note_on,50,0,360
2,note_on,53,47,1080
2,note_on,53,0,480
2,note_on,50,40,0
2,note_on,50,0,480
2,note_on,52,48,0
2,note_on,52,0,480
2,note_on,47,40,0
2,note_on,47,0,480
2,note_on,49,40,0
2,note_on,49,0,480
2,note_on,50,46,0
2,note_on,50,0,480
2,note_on,41,48,0
2,note_on,41,0,480
2,note_on,43,41,0
2,note_on,43,0,480
2,note_on,45,43,0
2,note_on,45,0,480
2,note_on,33,36,0
2,note_on,33,0,240
2,note_on,53,39,720
2,note_on,57,39,0
2,note_on,60,47,0
2,note_on,60,0,960
2,note_on,57,0,0
2,note_on,53,0,0
2,note_on,63,34,0
2,note_on,65,40,0
2,note_on,65,0,480
2,note_on,63,0,0
2,note_on,65,53,0
2,note_on,62,45,0
2,note_on,62,0,480
2,note_on,58,47,0
2,note_on,58,0,480
2,note_on,65,0,0
2,note_on,55,49,0
2,note_on,58,58,0
2,note_on,58,0,480
2,note_on,55,0,0
2,note_on,60,68,0
2,note_on,57,57,0
2,note_on,57,0,480
2,note_on,60,0,0
2,note_on,60,42,0
2,note_on,60,0,480
2,note_on,48,38,0
2,note_on,48,0,480
2,note_on,53,47,0
2,note_on,53,0,480
2,note_on,41,31,0
2,note_on,41,0,360
2,note_on,53,47,1080
2,note_on,53,0,480
2,note_on,50,40,0
2,note_on,50,0,480
2,note_on,52,48,0
2,note_on,52,0,480
2,note_on,47,40,0
2,note_on,47,0,480
2,note_on,49,40,0
2,note_on,49,0,480
2,note_on,50,46,0
2,note_on,50,0,480
2,note_on,41,48,0
2,note_on,41,0,480
2,note_on,43,41,0
2,note_on,43,0,480
2,note_on,45,43,0
2,note_on,45,0,480
2,note_on,33,36,0
2,note_on,33,0,240
2,note_on,53,39,720
2,note_on,57,39,0
2,note_on,60,47,0
2,note_on,60,0,960
2,note_on,57,0,0
2,note_on,53,0,0
2,note_on,63,34,0
2,note_on,65,40,0
2,note_on,65,0,480
2,note_on,63,0,0
2,note_on,65,53,0
2,note_on,62,45,0
2,note_on,62,0,480
2,note_on,58,47,0
2,note_on,58,0,480
2,note_on,65,0,0
2,note_on,55,49,0
2,note_on,58,58,0
2,note_on,58,0,480
2,note_on,55,0,0
2,note_on,60,68,0
2,note_on,57,57,0
2,note_on,57,0,480
2,note_on,60,0,0
2,note_on,60,42,0
2,note_on,60,0,480
2,note_on,48,38,0
2,note_on,48,0,480
2,note_on,53,47,0
2,note_on,53,0,480
2,note_on,41,31,0
2,note_on,41,0,360
2,note_on,69,29,1080
2,note_on,72,35,0
2,note_on,72,0,480
2,note_on,69,0,0
2,note_on,67,25,0
2,note_on,70,30,0
2,note_on,70,0,480
2,note_on,67,0,0
2,note_on,69,36,0
2,note_on,66,30,0
2,note_on,66,0,960
2,note_on,69,0,0
2,note_on,67,28,0
2,note_on,74,34,0
2,note_on,74,0,480
2,note_on,67,0,0
2,note_on,64,33,0
2,note_on,72,39,0
2,note_on,64,0,480
2,note_on,65,40,0
2,note_on,65,0,480
2,note_on,72,0,0
2,note_on,67,34,0
2,note_on,55,28,0
2,note_on,55,0,480
2,note_on,67,0,0
2,note_on,57,25,0
2,note_on,64,36,0
2,note_on,64,0,720
2,note_on,57,0,0
2,note_on,58,35,1200
2,note_on,61,42,0
2,note_on,61,0,480
2,note_on,58,0,0
2,note_on,55,30,0
2,note_on,58,36,0
2,note_on,58,0,480
2,note_on,55,0,0
2,note_on,53,45,0
2,note_on,62,53,0
2,note_on,57,45,0
2,note_on,57,0,480
2,note_on,62,0,0
2,note_on,53,0,0
2,note_on,52,43,0
2,note_on,55,43,0
2,note_on,61,43,0
2,note_on,61,0,480
2,note_on,55,0,0
2,note_on,52,0,0
2,note_on,50,45,0
2,note_on,62,54,0
2,note_on,53,45,0
2,note_on,53,0,480
2,note_on,62,0,0
2,note_on,50,0,0
2,note_on,55,61,0
2,note_on,55,0,480
2,note_on,57,42,0
2,note_on,57,0,480
2,note_on,45,38,0
2,note_on,45,0,480
2,note_on,50,47,0
2,note_on,50,0,480
2,note_on,38,31,0
2,note_on,38,0,360
2,note_on,69,29,1080
2,note_on,72,35,0
2,note_on,72,0,480
2,note_on,69,0,0
2,note_on,67,25,0
2,note_on,70,30,0
2,note_on,70,0,480
2,note_on,67,0,0
2,note_on,69,36,0
2,note_on,66,30,0
2,note_on,66,0,960
2,note_on,69,0,0
2,note_on,67,28,0
2,note_on,74,34,0
2,note_on,74,0,480
2,note_on,67,0,0
2,note_on,64,33,0
2,note_on,72,39,0
2,note_on,64,0,480
2,note_on,65,40,0
2,note_on,65,0,480
2,note_on,72,0,0
2,note_on,67,34,0
2,note_on,55,28,0
2,note_on,55,0,480
2,note_on,67,0,0
2,note_on,57,25,0
2,note_on,64,36,0
2,note_on,64,0,720
2,note_on,57,0,0
2,note_on,58,35,1200
2,note_on,61,42,0
2,note_on,61,0,480
2,note_on,58,0,0
2,note_on,55,30,0
2,note_on,58,36,0
2,note_on,58,0,480
2,note_on,55,0,0
2,note_on,53,45,0
2,note_on,62,53,0
2,note_on,57,45,0
2,note_on,57,0,480
2,note_on,62,0,0
2,note_on,53,0,0
2,note_on,52,43,0
2,note_on,55,43,0
2,note_on,61,43,0
2,note_on,61,0,480
2,note_on,55,0,0
2,note_on,52,0,0
2,note_on,50,45,0
2,note_on,62,54,0
2,note_on,53,45,0
2,note_on,53,0,480
2,note_on,62,0,0
2,note_on,50,0,0
2,note_on,55,61,0
2,note_on,55,0,480
2,note_on,57,42,0
2,note_on,57,0,480
2,note_on,45,38,0
2,note_on,45,0,480
2,note_on,50,47,0
2,note_on,50,0,480
2,note_on,38,31,0
2,note_on,38,0,360
2,note_on,62,46,600
2,note_on,62,0,90
2,note_on,66,41,390
2,note_on,66,0,90
2,note_on,62,41,390
2,note_on,62,0,240
2,note_on,69,47,240
2,note_on,69,0,480
2,note_on,57,38,0
2,note_on,57,0,480
2,note_on,61,38,0
2,note_on,61,0,480
2,note_on,62,45,0
2,note_on,62,0,480
2,note_on,66,47,0
2,note_on,66,0,480
2,note_on,67,48,0
2,note_on,67,0,480
2,note_on,69,39,0
2,note_on,69,0,480
2,note_on,57,30,0
2,note_on,57,0,360
2,note_on,62,46,600
2,note_on,62,0,90
2,note_on,66,41,390
2,note_on,66,0,90
2,note_on,62,41,390
2,note_on,62,0,240
2,note_on,69,47,240
2,note_on,69,0,480
2,note_on,61,38,0
2,note_on,61,0,480
2,note_on,62,39,0
2,note_on,62,0,480
2,note_on,55,39,0
2,note_on,67,47,0
2,note_on,67,0,960
2,note_on,55,0,0
2,note_on,64,40,0
2,note_on,57,34,0
2,note_on,57,0,480
2,note_on,64,0,0
2,note_on,62,46,0
2,note_on,62,0,480
2,note_on,50,28,0
2,note_on,50,0,480
2,note_on,66,41,960
2,note_on,66,0,480
2,note_on,62,37,0
2,note_on,62,0,480
2,note_on,64,48,0
2,note_on,64,0,480
2,note_on,61,41,0
2,note_on,61,0,480
2,note_on,57,46,0
2,note_on,57,0,480
2,note_on,62,45,0
2,note_on,62,0,480
2,note_on,59,52,0
2,note_on,59,0,480
2,note_on,55,47,0
2,note_on,55,0,480
2,note_on,57,43,0
2,note_on,57,0,480
2,note_on,45,36,0
2,note_on,45,0,240
2,note_on,66,41,1200
2,note_on,66,0,480
2,note_on,62,41,0
2,note_on,62,0,480
2,note_on,64,53,0
2,note_on,64,0,480
2,note_on,57,41,0
2,note_on,57,0,480
2,note_on,61,37,0
2,note_on,61,0,480
2,note_on,62,45,0
2,note_on,62,0,480
2,note_on,55,39,0
2,note_on,55,0,480
2,note_on,57,39,0
2,note_on,45,39,0
2,note_on,45,0,480
2,note_on,57,0,0
2,note_on,50,43,0
2,note_on,50,0,480
2,note_on,38,36,0
2,note_on,38,0,240
2,note_on,57,43,5040
2,note_on,57,0,480
2,note_on,45,36,0
2,note_on,45,0,240
2,note_on,62,39,5040
2,note_on,62,0,480
2,note_on,50,33,0
2,note_on,50,0,240
2,note_on,57,32,5040
2,note_on,57,0,480
2,note_on,45,27,0
2,note_on,45,0,240
2,note_on,62,29,5040
2,note_on,62,0,480
2,note_on,50,24,0
2,note_on,50,0,240
