Track,Message Type,Note,Velocity,Time
1,note_on,63,72,1440
1,note_on,63,0,360
1,note_on,60,66,0
1,note_on,60,0,120
1,note_on,68,72,0
1,note_on,68,0,360
1,note_on,68,65,0
1,note_on,68,0,120
1,note_on,68,72,0
1,note_on,68,0,60
1,note_on,70,62,0
1,note_on,70,0,60
1,note_on,68,72,0
1,note_on,68,0,60
1,note_on,70,58,0
1,note_on,70,0,60
1,note_on,68,69,0
1,note_on,68,0,40
1,note_on,70,59,0
1,note_on,70,0,40
1,note_on,68,69,0
1,note_on,68,0,40
1,note_on,67,65,0
1,note_on,67,0,60
1,note_on,68,58,0
1,note_on,68,0,60
1,note_on,70,72,0
1,note_on,70,0,480
1,note_on,63,72,0
1,note_on,63,0,360
1,note_on,75,68,0
1,note_on,75,0,120
1,note_on,73,82,0
1,note_on,73,0,960
1,note_on,72,72,0
1,note_on,72,0,180
1,note_on,68,49,300
1,note_on,68,0,360
1,note_on,77,44,0
1,note_on,77,0,120
1,note_on,75,55,0
1,note_on,75,0,960
1,note_on,73,49,0
1,note_on,73,0,180
1,note_on,63,72,300
1,note_on,63,0,360
1,note_on,75,68,0
1,note_on,75,0,120
1,note_on,73,82,0
1,note_on,73,0,960
1,note_on,72,72,0
1,note_on,72,0,180
1,note_on,80,81,300
1,note_on,80,0,360
1,note_on,72,68,0
1,note_on,72,0,120
1,note_on,70,79,0
1,note_on,70,0,360
1,note_on,70,65,0
1,note_on,70,0,120
1,note_on,70,72,0
1,note_on,70,0,60
1,note_on,72,62,0
1,note_on,72,0,60
1,note_on,70,72,0
1,note_on,70,0,60
1,note_on,72,58,0
1,note_on,72,0,60
1,note_on,70,69,0
1,note_on,70,0,40
1,note_on,72,59,0
1,note_on,72,0,40
1,note_on,70,69,0
1,note_on,70,0,40
1,note_on,69,65,0
1,note_on,69,0,60
1,note_on,70,58,0
1,note_on,70,0,60
1,note_on,73,78,0
1,note_on,73,0,360
1,note_on,70,71,0
1,note_on,70,0,120
1,note_on,67,79,0
1,note_on,67,0,360
1,note_on,63,72,0
1,note_on,63,0,120
1,note_on,68,81,0
1,note_on,68,0,360
1,note_on,63,72,1080
1,note_on,63,0,360
1,note_on,60,66,0
1,note_on,60,0,120
1,note_on,68,72,0
1,note_on,68,0,360
1,note_on,68,65,0
1,note_on,68,0,120
1,note_on,68,72,0
1,note_on,68,0,60
1,note_on,70,62,0
1,note_on,70,0,60
1,note_on,68,72,0
1,note_on,68,0,60
1,note_on,70,58,0
1,note_on,70,0,60
1,note_on,68,69,0
1,note_on,68,0,40
1,note_on,70,59,0
1,note_on,70,0,40
1,note_on,68,69,0
1,note_on,68,0,40
1,note_on,67,65,0
1,note_on,67,0,60
1,note_on,68,58,0
1,note_on,68,0,60
1,note_on,70,72,0
1,note_on,70,0,480
1,note_on,63,72,0
1,note_on,63,0,360
1,note_on,75,68,0
1,note_on,75,0,120
1,note_on,73,82,0
1,note_on,73,0,960
1,note_on,72,72,0
1,note_on,72,0,180
1,note_on,68,76,300
1,note_on,68,0,360
1,note_on,80,69,0
1,note_on,80,0,120
1,note_on,79,79,0
1,note_on,79,0,480
1,note_on,77,68,0
1,note_on,77,0,120
1,note_on,80,78,240
1,note_on,80,0,120
1,note_on,77,73,0
1,note_on,77,0,480
1,note_on,75,76,0
1,note_on,75,0,120
1,note_on,80,69,240
1,note_on,80,0,120
1,note_on,75,79,0
1,note_on,75,0,480
1,note_on,73,68,0
1,note_on,73,0,120
1,note_on,80,78,240
1,note_on,80,0,120
1,note_on,73,73,0
1,note_on,73,0,480
1,note_on,72,76,0
1,note_on,72,0,120
1,note_on,80,69,240
1,note_on,80,0,120
1,note_on,72,74,0
1,note_on,72,0,360
1,note_on,70,66,0
1,note_on,70,0,120
1,note_on,73,73,0
1,note_on,73,0,360
1,note_on,77,66,0
1,note_on,77,0,120
1,note_on,75,76,0
1,note_on,75,0,480
1,note_on,67,69,0
1,note_on,67,0,450
1,note_on,67,46,0
1,note_on,67,0,30
1,note_on,68,73,0
1,note_on,68,0,120
1,note_on,67,53,330
1,note_on,67,0,30
1,note_on,68,73,0
1,note_on,68,0,120
1,note_on,67,55,330
1,note_on,67,0,30
1,note_on,68,73,0
1,note_on,68,0,120
1,note_on,69,55,330
1,note_on,69,0,30
1,note_on,70,79,0
1,note_on,70,0,120
1,note_on,71,76,360
1,note_on,71,0,480
1,note_on,72,69,0
1,note_on,72,0,480
1,note_on,68,61,0
1,note_on,71,46,930
1,note_on,71,0,30
1,note_on,68,0,0
1,note_on,72,73,0
1,note_on,72,0,120
1,note_on,71,53,330
1,note_on,71,0,30
1,note_on,72,73,0
1,note_on,72,0,120
1,note_on,71,55,330
1,note_on,71,0,30
1,note_on,72,73,0
1,note_on,72,0,120
1,note_on,75,79,360
1,note_on,75,0,120
1,note_on,73,71,0
1,note_on,73,0,120
1,note_on,72,76,0
1,note_on,72,0,120
1,note_on,73,69,0
1,note_on,73,0,120
1,note_on,75,79,0
1,note_on,75,0,960
1,note_on,72,68,0
1,note_on,72,0,960
1,note_on,80,92,0
1,note_on,80,0,480
1,note_on,80,85,0
1,note_on,80,0,160
1,note_on,84,72,0
1,note_on,84,0,160
1,note_on,87,72,0
1,note_on,87,0,160
1,note_on,78,82,0
1,note_on,78,0,960
1,note_on,77,92,0
1,note_on,77,0,480
1,note_on,77,85,0
1,note_on,77,0,160
1,note_on,82,72,0
1,note_on,82,0,160
1,note_on,85,72,0
1,note_on,85,0,160
1,note_on,75,82,0
1,note_on,75,0,720
1,note_on,77,75,0
1,note_on,77,0,120
1,note_on,79,82,0
1,note_on,79,0,120
1,note_on,80,94,0
1,note_on,80,0,480
1,note_on,80,81,0
1,note_on,80,0,160
1,note_on,82,72,0
1,note_on,82,0,160
1,note_on,84,66,0
1,note_on,84,0,160
1,note_on,73,84,0
1,note_on,73,0,960
1,note_on,72,81,0
1,note_on,72,0,160
1,note_on,75,71,0
1,note_on,75,0,160
1,note_on,73,71,0
1,note_on,73,0,160
1,note_on,72,66,0
1,note_on,72,0,160
1,note_on,84,78,0
1,note_on,84,0,160
1,note_on,82,71,0
1,note_on,82,0,160
1,note_on,80,71,0
1,note_on,80,0,160
1,note_on,79,78,0
1,note_on,79,0,160
1,note_on,77,68,0
1,note_on,77,0,160
1,note_on,75,79,0
1,note_on,75,0,160
1,note_on,73,71,0
1,note_on,73,0,160
1,note_on,72,71,0
1,note_on,72,0,160
1,note_on,75,81,0
1,note_on,75,0,360
1,note_on,72,58,0
1,note_on,72,0,120
1,note_on,70,70,0
1,note_on,70,0,360
1,note_on,70,72,600
1,note_on,70,0,360
1,note_on,67,66,0
1,note_on,67,0,120
1,note_on,75,72,0
1,note_on,75,0,360
1,note_on,75,65,0
1,note_on,75,0,120
1,note_on,75,72,0
1,note_on,75,0,60
1,note_on,77,62,0
1,note_on,77,0,60
1,note_on,75,72,0
1,note_on,75,0,60
1,note_on,77,58,0
1,note_on,77,0,60
1,note_on,75,69,0
1,note_on,75,0,40
1,note_on,77,59,0
1,note_on,77,0,40
1,note_on,75,69,0
1,note_on,75,0,40
1,note_on,74,65,0
1,note_on,74,0,60
1,note_on,75,58,0
1,note_on,75,0,60
1,note_on,77,72,0
1,note_on,77,0,240
1,note_on,74,72,240
1,note_on,74,0,360
1,note_on,70,66,0
1,note_on,70,0,120
1,note_on,77,72,0
1,note_on,77,0,360
1,note_on,77,65,0
1,note_on,77,0,120
1,note_on,77,72,0
1,note_on,77,0,60
1,note_on,79,62,0
1,note_on,79,0,60
1,note_on,77,72,0
1,note_on,77,0,60
1,note_on,79,58,0
1,note_on,79,0,60
1,note_on,77,69,0
1,note_on,77,0,40
1,note_on,79,59,0
1,note_on,79,0,40
1,note_on,77,69,0
1,note_on,77,0,40
1,note_on,75,65,0
1,note_on,75,0,60
1,note_on,77,58,0
1,note_on,77,0,60
1,note_on,79,72,0
1,note_on,79,0,360
1,note_on,79,65,0
1,note_on,79,0,120
1,note_on,79,73,0
1,note_on,79,0,60
1,note_on,80,63,0
1,note_on,80,0,60
1,note_on,79,73,0
1,note_on,79,0,60
1,note_on,80,59,0
1,note_on,80,0,60
1,note_on,79,71,0
1,note_on,79,0,40
1,note_on,80,60,0
1,note_on,80,0,40
1,note_on,79,72,0
1,note_on,79,0,40
1,note_on,77,68,0
1,note_on,77,0,60
1,note_on,79,60,0
1,note_on,79,0,60
1,note_on,80,76,0
1,note_on,80,0,360
1,note_on,80,69,0
1,note_on,80,0,120
1,note_on,80,78,0
1,note_on,80,0,60
1,note_on,82,66,0
1,note_on,82,0,60
1,note_on,80,78,0
1,note_on,80,0,60
1,note_on,82,63,0
1,note_on,82,0,60
1,note_on,80,75,0
1,note_on,80,0,40
1,note_on,82,65,0
1,note_on,82,0,40
1,note_on,80,76,0
1,note_on,80,0,40
1,note_on,79,71,0
1,note_on,79,0,60
1,note_on,80,63,0
1,note_on,80,0,60
1,note_on,82,81,0
1,note_on,82,0,360
1,note_on,82,73,0
1,note_on,82,0,120
1,note_on,82,82,0
1,note_on,82,0,60
1,note_on,84,71,0
1,note_on,84,0,60
1,note_on,82,82,0
1,note_on,82,0,60
1,note_on,84,66,0
1,note_on,84,0,60
1,note_on,82,79,0
1,note_on,82,0,40
1,note_on,84,68,0
1,note_on,84,0,40
1,note_on,82,81,0
1,note_on,82,0,40
1,note_on,80,75,0
1,note_on,80,0,60
1,note_on,82,66,0
1,note_on,82,0,60
1,note_on,84,85,0
1,note_on,84,0,1440
1,note_on,76,79,0
1,note_on,76,0,480
1,note_on,77,81,0
1,note_on,77,0,160
1,note_on,80,71,0
1,note_on,80,0,160
1,note_on,79,71,0
1,note_on,79,0,160
1,note_on,77,66,0
1,note_on,77,0,160
1,note_on,84,77,0
1,note_on,84,0,160
1,note_on,82,69,0
1,note_on,82,0,160
1,note_on,80,69,0
1,note_on,80,0,160
1,note_on,79,65,0
1,note_on,79,0,160
1,note_on,77,64,0
1,note_on,77,0,160
1,note_on,75,73,0
1,note_on,75,0,160
1,note_on,74,66,0
1,note_on,74,0,160
1,note_on,72,65,0
1,note_on,72,0,160
1,note_on,82,85,0
1,note_on,82,0,1440
1,note_on,74,79,0
1,note_on,74,0,480
1,note_on,75,81,0
1,note_on,75,0,160
1,note_on,79,71,0
1,note_on,79,0,160
1,note_on,77,71,0
1,note_on,77,0,160
1,note_on,75,66,0
1,note_on,75,0,160
1,note_on,82,78,0
1,note_on,82,0,160
1,note_on,80,70,0
1,note_on,80,0,160
1,note_on,79,70,0
1,note_on,79,0,160
1,note_on,77,66,0
1,note_on,77,0,160
1,note_on,75,66,0
1,note_on,75,0,160
1,note_on,74,77,0
1,note_on,74,0,160
1,note_on,72,70,0
1,note_on,72,0,160
1,note_on,70,65,0
1,note_on,70,0,160
1,note_on,80,85,0
1,note_on,80,0,1440
1,note_on,79,76,0
1,note_on,79,0,160
1,note_on,77,68,0
1,note_on,77,0,160
1,note_on,75,58,0
1,note_on,75,0,140
1,note_on,75,72,20
1,note_on,75,0,240
1,note_on,74,58,0
1,note_on,74,0,220
1,note_on,74,62,20
1,note_on,74,0,960
1,note_on,75,72,0
1,note_on,75,0,480
1,note_on,77,85,0
1,note_on,77,0,160
1,note_on,79,72,0
1,note_on,79,0,160
1,note_on,80,66,0
1,note_on,80,0,140
1,note_on,80,85,20
1,note_on,80,0,960
1,note_on,79,76,0
1,note_on,79,0,160
1,note_on,77,68,0
1,note_on,77,0,160
1,note_on,75,58,0
1,note_on,75,0,140
1,note_on,75,72,20
1,note_on,75,0,240
1,note_on,74,58,0
1,note_on,74,0,220
1,note_on,74,62,20
1,note_on,74,0,960
1,note_on,75,72,0
1,note_on,75,0,480
1,note_on,77,85,0
1,note_on,77,0,160
1,note_on,79,72,0
1,note_on,79,0,160
1,note_on,80,66,0
1,note_on,80,0,140
1,note_on,80,85,20
1,note_on,80,0,960
1,note_on,79,76,0
1,note_on,79,0,480
1,note_on,77,66,0
1,note_on,77,0,160
1,note_on,84,81,0
1,note_on,84,0,160
1,note_on,82,73,0
1,note_on,82,0,160
1,note_on,80,73,0
1,note_on,80,0,160
1,note_on,79,69,0
1,note_on,79,0,160
1,note_on,77,64,0
1,note_on,77,0,160
1,note_on,75,79,0
1,note_on,75,0,480
1,note_on,74,60,0
1,note_on,74,0,480
1,note_on,74,68,0
1,note_on,74,0,960
1,note_on,75,50,0
1,note_on,75,0,480
1,note_on,56,68,480
1,note_on,56,0,1120
1,note_on,60,65,0
1,note_on,60,0,160
1,note_on,58,56,0
1,note_on,58,0,160
1,note_on,56,66,0
1,note_on,56,0,80
1,note_on,56,58,80
1,note_on,56,0,80
1,note_on,56,58,80
1,note_on,56,0,80
1,note_on,56,68,80
1,note_on,56,0,1120
1,note_on,65,65,0
1,note_on,65,0,160
1,note_on,62,56,0
1,note_on,62,0,160
1,note_on,56,66,0
1,note_on,56,0,80
1,note_on,56,58,80
1,note_on,56,0,80
1,note_on,56,58,80
1,note_on,56,0,80
1,note_on,55,60,80
1,note_on,55,0,160
1,note_on,58,49,0
1,note_on,58,0,160
1,note_on,63,49,0
1,note_on,63,0,80
1,note_on,63,56,80
1,note_on,63,0,80
1,note_on,63,49,80
1,note_on,63,0,80
1,note_on,63,49,80
1,note_on,63,0,80
1,note_on,62,60,80
1,note_on,62,0,160
1,note_on,65,49,0
1,note_on,65,0,160
1,note_on,68,49,0
1,note_on,68,0,80
1,note_on,68,56,80
1,note_on,68,0,80
1,note_on,68,49,80
1,note_on,68,0,80
1,note_on,68,49,80
1,note_on,68,0,80
1,note_on,67,69,80
1,note_on,67,0,160
1,note_on,70,56,0
1,note_on,70,0,160
1,note_on,75,56,0
1,note_on,75,0,80
1,note_on,75,63,80
1,note_on,75,0,80
1,note_on,75,56,80
1,note_on,75,0,80
1,note_on,75,56,80
1,note_on,75,0,80
1,note_on,74,75,80
1,note_on,74,0,160
1,note_on,77,61,0
1,note_on,77,0,160
1,note_on,80,61,0
1,note_on,80,0,80
1,note_on,80,68,80
1,note_on,80,0,80
1,note_on,80,61,80
1,note_on,80,0,80
1,note_on,80,61,80
1,note_on,80,0,80
1,note_on,79,78,80
1,note_on,79,0,160
1,note_on,80,70,0
1,note_on,80,0,160
1,note_on,82,60,0
1,note_on,82,0,160
1,note_on,80,69,0
1,note_on,80,0,160
1,note_on,79,66,0
1,note_on,79,0,160
1,note_on,77,66,0
1,note_on,77,0,160
1,note_on,75,69,0
1,note_on,75,0,160
1,note_on,74,62,0
1,note_on,74,0,160
1,note_on,72,60,0
1,note_on,72,0,160
1,note_on,70,69,0
1,note_on,70,0,160
1,note_on,68,62,0
1,note_on,68,0,160
1,note_on,67,62,0
1,note_on,67,0,160
1,note_on,65,68,0
1,note_on,65,0,720
1,note_on,72,52,0
1,note_on,72,0,240
1,note_on,63,59,0
1,note_on,63,0,480
1,note_on,62,52,0
1,note_on,62,0,480
1,note_on,75,81,0
1,note_on,75,0,1440
1,note_on,77,73,0
1,note_on,74,62,0
1,note_on,74,0,480
1,note_on,77,0,0
1,note_on,79,81,0
1,note_on,75,68,0
1,note_on,75,0,1440
1,note_on,79,0,0
1,note_on,80,73,0
1,note_on,77,62,0
1,note_on,77,0,480
1,note_on,80,0,0
1,note_on,79,62,0
1,note_on,82,73,0
1,note_on,82,0,160
1,note_on,79,0,0
1,note_on,80,65,0
1,note_on,77,55,0
1,note_on,77,0,160
1,note_on,80,0,0
1,note_on,82,65,0
1,note_on,79,55,0
1,note_on,79,0,160
1,note_on,82,0,0
1,note_on,80,61,0
1,note_on,84,72,0
1,note_on,84,0,160
1,note_on,80,0,0
1,note_on,79,54,0
1,note_on,82,64,0
1,note_on,82,0,160
1,note_on,79,0,0
1,note_on,77,54,0
1,note_on,80,64,0
1,note_on,80,0,160
1,note_on,77,0,0
1,note_on,79,70,0
1,note_on,75,59,0
1,note_on,75,0,480
1,note_on,79,0,0
1,note_on,77,65,0
1,note_on,74,55,0
1,note_on,74,0,480
1,note_on,77,0,0
1,note_on,75,81,0
1,note_on,75,0,1440
1,note_on,77,73,0
1,note_on,74,62,0
1,note_on,74,0,480
1,note_on,77,0,0
1,note_on,79,81,0
1,note_on,75,68,0
1,note_on,75,0,1440
1,note_on,79,0,0
1,note_on,80,73,0
1,note_on,77,62,0
1,note_on,77,0,480
1,note_on,80,0,0
1,note_on,79,62,0
1,note_on,82,73,0
1,note_on,82,0,160
1,note_on,79,0,0
1,note_on,80,65,0
1,note_on,77,55,0
1,note_on,77,0,160
1,note_on,80,0,0
1,note_on,82,65,0
1,note_on,79,55,0
1,note_on,79,0,160
1,note_on,82,0,0
1,note_on,80,61,0
1,note_on,84,72,0
1,note_on,84,0,160
1,note_on,80,0,0
1,note_on,79,54,0
1,note_on,82,64,0
1,note_on,82,0,160
1,note_on,79,0,0
1,note_on,77,54,0
1,note_on,80,64,0
1,note_on,80,0,160
1,note_on,77,0,0
1,note_on,79,70,0
1,note_on,75,59,0
1,note_on,75,0,480
1,note_on,79,0,0
1,note_on,77,65,0
1,note_on,74,55,0
1,note_on,74,0,480
1,note_on,77,0,0
1,note_on,75,60,0
1,note_on,75,0,1380
1,note_on,79,68,0
1,note_on,79,0,60
1,note_on,77,54,0
1,note_on,77,0,480
1,note_on,75,60,0
1,note_on,75,0,480
1,note_on,75,54,0
1,note_on,75,0,480
1,note_on,75,54,0
1,note_on,75,0,480
1,note_on,80,58,0
1,note_on,80,0,120
1,note_on,77,52,0
1,note_on,77,0,360
1,note_on,82,58,0
1,note_on,82,0,480
1,note_on,82,53,0
1,note_on,82,0,480
1,note_on,82,52,0
1,note_on,82,0,480
1,note_on,80,57,0
1,note_on,80,0,120
1,note_on,77,51,0
1,note_on,77,0,360
1,note_on,75,57,0
1,note_on,75,0,1380
1,note_on,79,60,0
1,note_on,79,0,60
1,note_on,77,50,0
1,note_on,77,0,480
1,note_on,75,55,0
1,note_on,75,0,480
1,note_on,75,50,0
1,note_on,75,0,480
1,note_on,75,50,0
1,note_on,75,0,480
1,note_on,80,54,0
1,note_on,80,0,120
1,note_on,77,49,0
1,note_on,77,0,360
1,note_on,82,54,0
1,note_on,82,0,480
1,note_on,82,49,0
1,note_on,82,0,480
1,note_on,82,48,0
1,note_on,82,0,480
1,note_on,80,53,0
1,note_on,80,0,120
1,note_on,77,48,0
1,note_on,77,0,360
1,note_on,75,52,0
1,note_on,75,0,1380
1,note_on,79,50,0
1,note_on,79,0,60
1,note_on,77,41,0
1,note_on,77,0,480
1,note_on,75,48,0
1,note_on,75,0,480
1,note_on,79,36,0
1,note_on,82,43,0
1,note_on,82,0,480
1,note_on,79,0,0
1,note_on,79,36,0
1,note_on,82,43,0
1,note_on,82,0,480
1,note_on,79,0,0
1,note_on,63,72,1920
1,note_on,63,0,360
1,note_on,60,66,0
1,note_on,60,0,120
1,note_on,68,72,0
1,note_on,68,0,360
1,note_on,68,65,0
1,note_on,68,0,120
1,note_on,68,72,0
1,note_on,68,0,60
1,note_on,70,62,0
1,note_on,70,0,60
1,note_on,68,72,0
1,note_on,68,0,60
1,note_on,70,58,0
1,note_on,70,0,60
1,note_on,68,69,0
1,note_on,68,0,40
1,note_on,70,59,0
1,note_on,70,0,40
1,note_on,68,69,0
1,note_on,68,0,40
1,note_on,67,65,0
1,note_on,67,0,60
1,note_on,68,58,0
1,note_on,68,0,60
1,note_on,70,72,0
1,note_on,70,0,480
1,note_on,63,72,0
1,note_on,63,0,360
1,note_on,75,68,0
1,note_on,75,0,120
1,note_on,73,82,0
1,note_on,73,0,960
1,note_on,72,72,0
1,note_on,72,0,180
1,note_on,68,49,300
1,note_on,68,0,360
1,note_on,77,44,0
1,note_on,77,0,120
1,note_on,75,55,0
1,note_on,75,0,960
1,note_on,73,49,0
1,note_on,73,0,180
1,note_on,63,72,300
1,note_on,63,0,360
1,note_on,75,68,0
1,note_on,75,0,120
1,note_on,73,82,0
1,note_on,73,0,960
1,note_on,72,72,0
1,note_on,72,0,180
1,note_on,80,81,300
1,note_on,80,0,360
1,note_on,72,68,0
1,note_on,72,0,120
1,note_on,70,79,0
1,note_on,70,0,360
1,note_on,70,65,0
1,note_on,70,0,120
1,note_on,70,72,0
1,note_on,70,0,60
1,note_on,72,62,0
1,note_on,72,0,60
1,note_on,70,72,0
1,note_on,70,0,60
1,note_on,72,58,0
1,note_on,72,0,60
1,note_on,70,69,0
1,note_on,70,0,40
1,note_on,72,59,0
1,note_on,72,0,40
1,note_on,70,69,0
1,note_on,70,0,40
1,note_on,69,65,0
1,note_on,69,0,60
1,note_on,70,58,0
1,note_on,70,0,60
1,note_on,73,78,0
1,note_on,73,0,360
1,note_on,70,71,0
1,note_on,70,0,120
1,note_on,67,79,0
1,note_on,67,0,360
1,note_on,63,72,0
1,note_on,63,0,120
1,note_on,68,81,0
1,note_on,68,0,360
1,note_on,63,72,1080
1,note_on,63,0,360
1,note_on,60,66,0
1,note_on,60,0,120
1,note_on,68,72,0
1,note_on,68,0,360
1,note_on,68,65,0
1,note_on,68,0,120
1,note_on,68,72,0
1,note_on,68,0,60
1,note_on,70,62,0
1,note_on,70,0,60
1,note_on,68,72,0
1,note_on,68,0,60
1,note_on,70,58,0
1,note_on,70,0,60
1,note_on,68,69,0
1,note_on,68,0,40
1,note_on,70,59,0
1,note_on,70,0,40
1,note_on,68,69,0
1,note_on,68,0,40
1,note_on,67,65,0
1,note_on,67,0,60
1,note_on,68,58,0
1,note_on,68,0,60
1,note_on,70,72,0
1,note_on,70,0,480
1,note_on,63,72,0
1,note_on,63,0,360
1,note_on,75,68,0
1,note_on,75,0,120
1,note_on,73,82,0
1,note_on,73,0,960
1,note_on,72,72,0
1,note_on,72,0,180
1,note_on,68,76,300
1,note_on,68,0,360
1,note_on,80,69,0
1,note_on,80,0,120
1,note_on,79,79,0
1,note_on,79,0,480
1,note_on,77,68,0
1,note_on,77,0,120
1,note_on,80,78,240
1,note_on,80,0,120
1,note_on,77,73,0
1,note_on,77,0,480
1,note_on,75,76,0
1,note_on,75,0,120
1,note_on,80,69,240
1,note_on,80,0,120
1,note_on,75,79,0
1,note_on,75,0,480
1,note_on,73,68,0
1,note_on,73,0,120
1,note_on,80,78,240
1,note_on,80,0,120
1,note_on,73,73,0
1,note_on,73,0,480
1,note_on,72,76,0
1,note_on,72,0,120
1,note_on,80,69,240
1,note_on,80,0,120
1,note_on,72,74,0
1,note_on,72,0,360
1,note_on,70,66,0
1,note_on,70,0,120
1,note_on,73,73,0
1,note_on,73,0,360
1,note_on,77,66,0
1,note_on,77,0,120
1,note_on,75,76,0
1,note_on,75,0,480
1,note_on,67,69,0
1,note_on,67,0,450
1,note_on,67,46,0
1,note_on,67,0,30
1,note_on,68,73,0
1,note_on,68,0,120
1,note_on,67,53,330
1,note_on,67,0,30
1,note_on,68,73,0
1,note_on,68,0,120
1,note_on,67,55,330
1,note_on,67,0,30
1,note_on,68,73,0
1,note_on,68,0,120
1,note_on,69,55,330
1,note_on,69,0,30
1,note_on,70,79,0
1,note_on,70,0,120
1,note_on,71,76,360
1,note_on,71,0,480
1,note_on,72,69,0
1,note_on,72,0,480
1,note_on,68,61,0
1,note_on,71,46,930
1,note_on,71,0,30
1,note_on,68,0,0
1,note_on,72,73,0
1,note_on,72,0,120
1,note_on,71,53,330
1,note_on,71,0,30
1,note_on,72,73,0
1,note_on,72,0,120
1,note_on,71,55,330
1,note_on,71,0,30
1,note_on,72,73,0
1,note_on,72,0,120
1,note_on,75,79,360
1,note_on,75,0,120
1,note_on,73,71,0
1,note_on,73,0,120
1,note_on,72,76,0
1,note_on,72,0,120
1,note_on,73,69,0
1,note_on,73,0,120
1,note_on,75,79,0
1,note_on,75,0,960
1,note_on,72,68,0
1,note_on,72,0,960
1,note_on,80,92,0
1,note_on,80,0,480
1,note_on,80,85,0
1,note_on,80,0,160
1,note_on,84,72,0
1,note_on,84,0,160
1,note_on,87,72,0
1,note_on,87,0,160
1,note_on,78,82,0
1,note_on,78,0,960
1,note_on,77,92,0
1,note_on,77,0,480
1,note_on,77,85,0
1,note_on,77,0,160
1,note_on,82,72,0
1,note_on,82,0,160
1,note_on,85,72,0
1,note_on,85,0,160
1,note_on,75,82,0
1,note_on,75,0,720
1,note_on,77,75,0
1,note_on,77,0,120
1,note_on,79,82,0
1,note_on,79,0,120
1,note_on,80,94,0
1,note_on,80,0,480
1,note_on,80,81,0
1,note_on,80,0,160
1,note_on,82,72,0
1,note_on,82,0,160
1,note_on,84,66,0
1,note_on,84,0,160
1,note_on,73,84,0
1,note_on,73,0,960
1,note_on,72,81,0
1,note_on,72,0,160
1,note_on,75,71,0
1,note_on,75,0,160
1,note_on,73,71,0
1,note_on,73,0,160
1,note_on,72,66,0
1,note_on,72,0,160
1,note_on,84,78,0
1,note_on,84,0,160
1,note_on,82,71,0
1,note_on,82,0,160
1,note_on,80,71,0
1,note_on,80,0,160
1,note_on,79,78,0
1,note_on,79,0,160
1,note_on,77,68,0
1,note_on,77,0,160
1,note_on,75,79,0
1,note_on,75,0,160
1,note_on,73,71,0
1,note_on,73,0,160
1,note_on,72,71,0
1,note_on,72,0,160
1,note_on,75,81,0
1,note_on,75,0,360
1,note_on,72,58,0
1,note_on,72,0,120
1,note_on,70,70,0
1,note_on,70,0,360
1,note_on,70,72,600
1,note_on,70,0,360
1,note_on,67,66,0
1,note_on,67,0,120
1,note_on,75,72,0
1,note_on,75,0,360
1,note_on,75,65,0
1,note_on,75,0,120
1,note_on,75,72,0
1,note_on,75,0,60
1,note_on,77,62,0
1,note_on,77,0,60
1,note_on,75,72,0
1,note_on,75,0,60
1,note_on,77,58,0
1,note_on,77,0,60
1,note_on,75,69,0
1,note_on,75,0,40
1,note_on,77,59,0
1,note_on,77,0,40
1,note_on,75,69,0
1,note_on,75,0,40
1,note_on,74,65,0
1,note_on,74,0,60
1,note_on,75,58,0
1,note_on,75,0,60
1,note_on,77,72,0
1,note_on,77,0,240
1,note_on,74,72,240
1,note_on,74,0,360
1,note_on,70,66,0
1,note_on,70,0,120
1,note_on,77,72,0
1,note_on,77,0,360
1,note_on,77,65,0
1,note_on,77,0,120
1,note_on,77,72,0
1,note_on,77,0,60
1,note_on,79,62,0
1,note_on,79,0,60
1,note_on,77,72,0
1,note_on,77,0,60
1,note_on,79,58,0
1,note_on,79,0,60
1,note_on,77,69,0
1,note_on,77,0,40
1,note_on,79,59,0
1,note_on,79,0,40
1,note_on,77,69,0
1,note_on,77,0,40
1,note_on,75,65,0
1,note_on,75,0,60
1,note_on,77,58,0
1,note_on,77,0,60
1,note_on,79,72,0
1,note_on,79,0,360
1,note_on,79,65,0
1,note_on,79,0,120
1,note_on,79,73,0
1,note_on,79,0,60
1,note_on,80,63,0
1,note_on,80,0,60
1,note_on,79,73,0
1,note_on,79,0,60
1,note_on,80,59,0
1,note_on,80,0,60
1,note_on,79,71,0
1,note_on,79,0,40
1,note_on,80,60,0
1,note_on,80,0,40
1,note_on,79,72,0
1,note_on,79,0,40
1,note_on,77,68,0
1,note_on,77,0,60
1,note_on,79,60,0
1,note_on,79,0,60
1,note_on,80,76,0
1,note_on,80,0,360
1,note_on,80,69,0
1,note_on,80,0,120
1,note_on,80,78,0
1,note_on,80,0,60
1,note_on,82,66,0
1,note_on,82,0,60
1,note_on,80,78,0
1,note_on,80,0,60
1,note_on,82,63,0
1,note_on,82,0,60
1,note_on,80,75,0
1,note_on,80,0,40
1,note_on,82,65,0
1,note_on,82,0,40
1,note_on,80,76,0
1,note_on,80,0,40
1,note_on,79,71,0
1,note_on,79,0,60
1,note_on,80,63,0
1,note_on,80,0,60
1,note_on,82,81,0
1,note_on,82,0,360
1,note_on,82,73,0
1,note_on,82,0,120
1,note_on,82,82,0
1,note_on,82,0,60
1,note_on,84,71,0
1,note_on,84,0,60
1,note_on,82,82,0
1,note_on,82,0,60
1,note_on,84,66,0
1,note_on,84,0,60
1,note_on,82,79,0
1,note_on,82,0,40
1,note_on,84,68,0
1,note_on,84,0,40
1,note_on,82,81,0
1,note_on,82,0,40
1,note_on,80,75,0
1,note_on,80,0,60
1,note_on,82,66,0
1,note_on,82,0,60
1,note_on,84,85,0
1,note_on,84,0,1440
1,note_on,76,79,0
1,note_on,76,0,480
1,note_on,77,81,0
1,note_on,77,0,160
1,note_on,80,71,0
1,note_on,80,0,160
1,note_on,79,71,0
1,note_on,79,0,160
1,note_on,77,66,0
1,note_on,77,0,160
1,note_on,84,77,0
1,note_on,84,0,160
1,note_on,82,69,0
1,note_on,82,0,160
1,note_on,80,69,0
1,note_on,80,0,160
1,note_on,79,65,0
1,note_on,79,0,160
1,note_on,77,64,0
1,note_on,77,0,160
1,note_on,75,73,0
1,note_on,75,0,160
1,note_on,74,66,0
1,note_on,74,0,160
1,note_on,72,65,0
1,note_on,72,0,160
1,note_on,82,85,0
1,note_on,82,0,1440
1,note_on,74,79,0
1,note_on,74,0,480
1,note_on,75,81,0
1,note_on,75,0,160
1,note_on,79,71,0
1,note_on,79,0,160
1,note_on,77,71,0
1,note_on,77,0,160
1,note_on,75,66,0
1,note_on,75,0,160
1,note_on,82,78,0
1,note_on,82,0,160
1,note_on,80,70,0
1,note_on,80,0,160
1,note_on,79,70,0
1,note_on,79,0,160
1,note_on,77,66,0
1,note_on,77,0,160
1,note_on,75,66,0
1,note_on,75,0,160
1,note_on,74,77,0
1,note_on,74,0,160
1,note_on,72,70,0
1,note_on,72,0,160
1,note_on,70,65,0
1,note_on,70,0,160
1,note_on,80,85,0
1,note_on,80,0,1440
1,note_on,79,76,0
1,note_on,79,0,160
1,note_on,77,68,0
1,note_on,77,0,160
1,note_on,75,58,0
1,note_on,75,0,140
1,note_on,75,72,20
1,note_on,75,0,240
1,note_on,74,58,0
1,note_on,74,0,220
1,note_on,74,62,20
1,note_on,74,0,960
1,note_on,75,72,0
1,note_on,75,0,480
1,note_on,77,85,0
1,note_on,77,0,160
1,note_on,79,72,0
1,note_on,79,0,160
1,note_on,80,66,0
1,note_on,80,0,140
1,note_on,80,85,20
1,note_on,80,0,960
1,note_on,79,76,0
1,note_on,79,0,160
1,note_on,77,68,0
1,note_on,77,0,160
1,note_on,75,58,0
1,note_on,75,0,140
1,note_on,75,72,20
1,note_on,75,0,240
1,note_on,74,58,0
1,note_on,74,0,220
1,note_on,74,62,20
1,note_on,74,0,960
1,note_on,75,72,0
1,note_on,75,0,480
1,note_on,77,85,0
1,note_on,77,0,160
1,note_on,79,72,0
1,note_on,79,0,160
1,note_on,80,66,0
1,note_on,80,0,140
1,note_on,80,85,20
1,note_on,80,0,960
1,note_on,79,76,0
1,note_on,79,0,480
1,note_on,77,66,0
1,note_on,77,0,160
1,note_on,84,81,0
1,note_on,84,0,160
1,note_on,82,73,0
1,note_on,82,0,160
1,note_on,80,73,0
1,note_on,80,0,160
1,note_on,79,69,0
1,note_on,79,0,160
1,note_on,77,64,0
1,note_on,77,0,160
1,note_on,75,79,0
1,note_on,75,0,480
1,note_on,74,60,0
1,note_on,74,0,480
1,note_on,74,68,0
1,note_on,74,0,960
1,note_on,75,50,0
1,note_on,75,0,480
1,note_on,56,68,480
1,note_on,56,0,1120
1,note_on,60,65,0
1,note_on,60,0,160
1,note_on,58,56,0
1,note_on,58,0,160
1,note_on,56,66,0
1,note_on,56,0,80
1,note_on,56,58,80
1,note_on,56,0,80
1,note_on,56,58,80
1,note_on,56,0,80
1,note_on,56,68,80
1,note_on,56,0,1120
1,note_on,65,65,0
1,note_on,65,0,160
1,note_on,62,56,0
1,note_on,62,0,160
1,note_on,56,66,0
1,note_on,56,0,80
1,note_on,56,58,80
1,note_on,56,0,80
1,note_on,56,58,80
1,note_on,56,0,80
1,note_on,55,60,80
1,note_on,55,0,160
1,note_on,58,49,0
1,note_on,58,0,160
1,note_on,63,49,0
1,note_on,63,0,80
1,note_on,63,56,80
1,note_on,63,0,80
1,note_on,63,49,80
1,note_on,63,0,80
1,note_on,63,49,80
1,note_on,63,0,80
1,note_on,62,60,80
1,note_on,62,0,160
1,note_on,65,49,0
1,note_on,65,0,160
1,note_on,68,49,0
1,note_on,68,0,80
1,note_on,68,56,80
1,note_on,68,0,80
1,note_on,68,49,80
1,note_on,68,0,80
1,note_on,68,49,80
1,note_on,68,0,80
1,note_on,67,69,80
1,note_on,67,0,160
1,note_on,70,56,0
1,note_on,70,0,160
1,note_on,75,56,0
1,note_on,75,0,80
1,note_on,75,63,80
1,note_on,75,0,80
1,note_on,75,56,80
1,note_on,75,0,80
1,note_on,75,56,80
1,note_on,75,0,80
1,note_on,74,69,80
1,note_on,74,0,160
1,note_on,77,56,0
1,note_on,77,0,160
1,note_on,80,56,0
1,note_on,80,0,80
1,note_on,80,69,80
1,note_on,80,0,80
1,note_on,80,56,80
1,note_on,80,0,80
1,note_on,80,56,80
1,note_on,80,0,80
1,note_on,79,79,80
1,note_on,79,0,160
1,note_on,80,70,0
1,note_on,80,0,160
1,note_on,82,60,0
1,note_on,82,0,160
1,note_on,80,69,0
1,note_on,80,0,160
1,note_on,79,66,0
1,note_on,79,0,160
1,note_on,77,66,0
1,note_on,77,0,160
1,note_on,75,69,0
1,note_on,75,0,160
1,note_on,74,62,0
1,note_on,74,0,160
1,note_on,72,60,0
1,note_on,72,0,160
1,note_on,70,69,0
1,note_on,70,0,160
1,note_on,68,62,0
1,note_on,68,0,160
1,note_on,67,62,0
1,note_on,67,0,160
1,note_on,65,68,0
1,note_on,65,0,720
1,note_on,72,52,0
1,note_on,72,0,240
1,note_on,63,59,0
1,note_on,63,0,480
1,note_on,62,52,0
1,note_on,62,0,480
1,note_on,75,81,0
1,note_on,75,0,1440
1,note_on,77,73,0
1,note_on,74,62,0
1,note_on,74,0,480
1,note_on,77,0,0
1,note_on,79,81,0
1,note_on,75,68,0
1,note_on,75,0,1440
1,note_on,79,0,0
1,note_on,80,73,0
1,note_on,77,62,0
1,note_on,77,0,480
1,note_on,80,0,0
1,note_on,79,62,0
1,note_on,82,73,0
1,note_on,82,0,160
1,note_on,79,0,0
1,note_on,80,65,0
1,note_on,77,55,0
1,note_on,77,0,160
1,note_on,80,0,0
1,note_on,82,65,0
1,note_on,79,55,0
1,note_on,79,0,160
1,note_on,82,0,0
1,note_on,80,61,0
1,note_on,84,72,0
1,note_on,84,0,160
1,note_on,80,0,0
1,note_on,79,54,0
1,note_on,82,64,0
1,note_on,82,0,160
1,note_on,79,0,0
1,note_on,77,54,0
1,note_on,80,64,0
1,note_on,80,0,160
1,note_on,77,0,0
1,note_on,79,70,0
1,note_on,75,59,0
1,note_on,75,0,480
1,note_on,79,0,0
1,note_on,77,65,0
1,note_on,74,55,0
1,note_on,74,0,480
1,note_on,77,0,0
1,note_on,75,81,0
1,note_on,75,0,1440
1,note_on,77,73,0
1,note_on,74,62,0
1,note_on,74,0,480
1,note_on,77,0,0
1,note_on,79,81,0
1,note_on,75,68,0
1,note_on,75,0,1440
1,note_on,79,0,0
1,note_on,80,73,0
1,note_on,77,62,0
1,note_on,77,0,480
1,note_on,80,0,0
1,note_on,79,62,0
1,note_on,82,73,0
1,note_on,82,0,160
1,note_on,79,0,0
1,note_on,80,65,0
1,note_on,77,55,0
1,note_on,77,0,160
1,note_on,80,0,0
1,note_on,82,65,0
1,note_on,79,55,0
1,note_on,79,0,160
1,note_on,82,0,0
1,note_on,80,61,0
1,note_on,84,72,0
1,note_on,84,0,160
1,note_on,80,0,0
1,note_on,79,54,0
1,note_on,82,64,0
1,note_on,82,0,160
1,note_on,79,0,0
1,note_on,77,54,0
1,note_on,80,64,0
1,note_on,80,0,160
1,note_on,77,0,0
1,note_on,79,70,0
1,note_on,75,59,0
1,note_on,75,0,480
1,note_on,79,0,0
1,note_on,77,65,0
1,note_on,74,55,0
1,note_on,74,0,480
1,note_on,77,0,0
1,note_on,75,60,0
1,note_on,75,0,1380
1,note_on,79,68,0
1,note_on,79,0,60
1,note_on,77,54,0
1,note_on,77,0,480
1,note_on,75,60,0
1,note_on,75,0,480
1,note_on,75,54,0
1,note_on,75,0,480
1,note_on,75,54,0
1,note_on,75,0,480
1,note_on,80,58,0
1,note_on,80,0,120
1,note_on,77,52,0
1,note_on,77,0,360
1,note_on,82,58,0
1,note_on,82,0,480
1,note_on,82,53,0
1,note_on,82,0,480
1,note_on,82,52,0
1,note_on,82,0,480
1,note_on,80,57,0
1,note_on,80,0,120
1,note_on,77,51,0
1,note_on,77,0,360
1,note_on,75,57,0
1,note_on,75,0,1380
1,note_on,79,60,0
1,note_on,79,0,60
1,note_on,77,50,0
1,note_on,77,0,480
1,note_on,75,55,0
1,note_on,75,0,480
1,note_on,75,50,0
1,note_on,75,0,480
1,note_on,75,50,0
1,note_on,75,0,480
1,note_on,80,54,0
1,note_on,80,0,120
1,note_on,77,49,0
1,note_on,77,0,360
1,note_on,82,54,0
1,note_on,82,0,480
1,note_on,82,49,0
1,note_on,82,0,480
1,note_on,82,48,0
1,note_on,82,0,480
1,note_on,80,53,0
1,note_on,80,0,120
1,note_on,77,48,0
1,note_on,77,0,360
1,note_on,75,52,0
1,note_on,75,0,1380
1,note_on,79,50,0
1,note_on,79,0,60
1,note_on,77,41,0
1,note_on,77,0,480
1,note_on,75,48,0
1,note_on,75,0,480
1,note_on,79,36,0
1,note_on,82,43,0
1,note_on,82,0,480
1,note_on,79,0,0
1,note_on,79,36,0
1,note_on,82,43,0
1,note_on,82,0,480
1,note_on,79,0,0
1,note_on,58,72,1920
1,note_on,58,0,360
1,note_on,55,66,0
1,note_on,55,0,120
1,note_on,63,72,0
1,note_on,63,0,360
1,note_on,63,65,0
1,note_on,63,0,120
1,note_on,63,72,0
1,note_on,63,0,60
1,note_on,65,62,0
1,note_on,65,0,60
1,note_on,63,72,0
1,note_on,63,0,60
1,note_on,65,58,0
1,note_on,65,0,60
1,note_on,63,69,0
1,note_on,63,0,40
1,note_on,65,59,0
1,note_on,65,0,40
1,note_on,63,69,0
1,note_on,63,0,40
1,note_on,62,65,0
1,note_on,62,0,60
1,note_on,63,58,0
1,note_on,63,0,60
1,note_on,65,72,0
1,note_on,65,0,480
1,note_on,58,72,0
1,note_on,58,0,360
1,note_on,70,68,0
1,note_on,70,0,120
1,note_on,68,82,0
1,note_on,68,0,960
1,note_on,67,72,0
1,note_on,67,0,180
1,note_on,63,49,300
1,note_on,63,0,360
1,note_on,72,44,0
1,note_on,72,0,120
1,note_on,70,55,0
1,note_on,70,0,960
1,note_on,68,49,0
1,note_on,68,0,180
1,note_on,58,72,300
1,note_on,58,0,360
1,note_on,70,68,0
1,note_on,70,0,120
1,note_on,68,82,0
1,note_on,68,0,960
1,note_on,67,72,0
1,note_on,67,0,180
1,note_on,75,81,300
1,note_on,75,0,360
1,note_on,67,68,0
1,note_on,67,0,120
1,note_on,65,79,0
1,note_on,65,0,360
1,note_on,65,65,0
1,note_on,65,0,110
1,note_on,65,72,10
1,note_on,65,0,60
1,note_on,67,62,0
1,note_on,67,0,60
1,note_on,65,72,0
1,note_on,65,0,60
1,note_on,67,58,0
1,note_on,67,0,60
1,note_on,65,69,0
1,note_on,65,0,40
1,note_on,67,59,0
1,note_on,67,0,40
1,note_on,65,69,0
1,note_on,65,0,40
1,note_on,64,65,0
1,note_on,64,0,60
1,note_on,65,58,0
1,note_on,65,0,60
1,note_on,68,78,0
1,note_on,68,0,360
1,note_on,65,71,0
1,note_on,65,0,120
1,note_on,62,79,0
1,note_on,62,0,360
1,note_on,58,72,0
1,note_on,58,0,120
1,note_on,63,81,0
1,note_on,63,0,360
1,note_on,67,56,960
1,note_on,67,0,120
1,note_on,70,69,0
1,note_on,70,0,360
1,note_on,75,62,0
1,note_on,75,0,120
1,note_on,79,70,0
1,note_on,79,0,360
1,note_on,70,56,0
1,note_on,70,0,120
1,note_on,75,69,0
1,note_on,75,0,360
1,note_on,79,62,0
1,note_on,79,0,120
1,note_on,82,70,0
1,note_on,82,0,360
1,note_on,75,63,0
1,note_on,75,0,120
1,note_on,79,72,0
1,note_on,79,0,360
1,note_on,82,69,0
1,note_on,82,0,120
1,note_on,85,79,0
1,note_on,85,0,960
1,note_on,84,63,0
1,note_on,84,0,60
1,note_on,85,56,0
1,note_on,85,0,60
1,note_on,84,64,0
1,note_on,84,0,60
1,note_on,85,57,0
1,note_on,85,0,60
1,note_on,84,60,0
1,note_on,84,0,60
1,note_on,85,60,0
1,note_on,85,0,60
1,note_on,84,65,0
1,note_on,84,0,60
1,note_on,85,62,0
1,note_on,85,0,60
1,note_on,84,66,0
1,note_on,84,0,80
1,note_on,85,62,0
1,note_on,85,0,80
1,note_on,84,62,0
1,note_on,84,0,80
1,note_on,82,71,0
1,note_on,82,0,240
1,note_on,80,73,0
1,note_on,80,0,480
1,note_on,77,65,0
1,note_on,77,0,480
1,note_on,77,65,0
1,note_on,77,0,480
1,note_on,79,72,0
1,note_on,79,0,480
1,note_on,79,76,0
1,note_on,79,0,480
1,note_on,80,69,0
1,note_on,80,0,480
1,note_on,77,61,0
1,note_on,77,0,960
1,note_on,80,76,0
1,note_on,80,0,480
1,note_on,80,70,0
1,note_on,80,0,480
1,note_on,80,75,0
1,note_on,80,0,360
1,note_on,84,65,0
1,note_on,84,0,110
1,note_on,84,72,10
1,note_on,84,0,60
1,note_on,85,62,0
1,note_on,85,0,60
1,note_on,84,72,0
1,note_on,84,0,60
1,note_on,85,58,0
1,note_on,85,0,60
1,note_on,84,69,0
1,note_on,84,0,40
1,note_on,85,59,0
1,note_on,85,0,40
1,note_on,84,69,0
1,note_on,84,0,40
1,note_on,82,65,0
1,note_on,82,0,60
1,note_on,84,58,0
1,note_on,84,0,60
1,note_on,85,72,0
1,note_on,85,0,960
1,note_on,73,61,0
1,note_on,73,0,960
1,note_on,82,76,0
1,note_on,82,0,480
1,note_on,82,70,0
1,note_on,82,0,480
1,note_on,82,75,0
1,note_on,82,0,480
1,note_on,80,72,0
1,note_on,80,0,60
1,note_on,82,62,0
1,note_on,82,0,60
1,note_on,80,72,0
1,note_on,80,0,60
1,note_on,82,58,0
1,note_on,82,0,60
1,note_on,80,69,0
1,note_on,80,0,40
1,note_on,82,59,0
1,note_on,82,0,40
1,note_on,80,69,0
1,note_on,80,0,40
1,note_on,79,65,0
1,note_on,79,0,60
1,note_on,80,58,0
1,note_on,80,0,60
1,note_on,79,69,0
1,note_on,79,0,960
1,note_on,75,61,0
1,note_on,75,0,960
1,note_on,74,64,0
1,note_on,74,0,480
1,note_on,74,60,0
1,note_on,74,0,480
1,note_on,74,66,0
1,note_on,74,0,360
1,note_on,74,59,0
1,note_on,74,0,110
1,note_on,74,64,10
1,note_on,74,0,60
1,note_on,75,55,0
1,note_on,75,0,60
1,note_on,74,64,0
1,note_on,74,0,60
1,note_on,75,52,0
1,note_on,75,0,60
1,note_on,74,62,0
1,note_on,74,0,40
1,note_on,75,53,0
1,note_on,75,0,40
1,note_on,74,62,0
1,note_on,74,0,40
1,note_on,72,58,0
1,note_on,72,0,60
1,note_on,74,52,0
1,note_on,74,0,60
1,note_on,75,69,0
1,note_on,75,0,480
1,note_on,75,64,0
1,note_on,75,0,480
1,note_on,75,70,0
1,note_on,75,0,360
1,note_on,75,63,0
1,note_on,75,0,110
1,note_on,75,68,10
1,note_on,75,0,60
1,note_on,77,59,0
1,note_on,77,0,60
1,note_on,75,69,0
1,note_on,75,0,60
1,note_on,77,55,0
1,note_on,77,0,60
1,note_on,75,66,0
1,note_on,75,0,40
1,note_on,77,56,0
1,note_on,77,0,40
1,note_on,75,66,0
1,note_on,75,0,40
1,note_on,74,63,0
1,note_on,74,0,60
1,note_on,75,56,0
1,note_on,75,0,60
1,note_on,77,73,0
1,note_on,77,69,477
1,note_on,77,0,3
1,note_on,77,0,477
1,note_on,77,75,3
1,note_on,77,67,357
1,note_on,77,0,3
1,note_on,77,0,107
1,note_on,77,73,13
1,note_on,77,0,60
1,note_on,79,63,0
1,note_on,79,0,60
1,note_on,77,73,0
1,note_on,77,0,60
1,note_on,79,59,0
1,note_on,79,0,60
1,note_on,77,70,0
1,note_on,77,0,40
1,note_on,79,60,0
1,note_on,79,0,40
1,note_on,77,71,0
1,note_on,77,0,40
1,note_on,75,66,0
1,note_on,75,0,60
1,note_on,77,59,0
1,note_on,77,0,60
1,note_on,78,78,0
1,note_on,78,0,480
1,note_on,78,73,0
1,note_on,78,0,480
1,note_on,78,79,0
1,note_on,78,0,360
1,note_on,78,72,0
1,note_on,78,0,110
1,note_on,78,77,10
1,note_on,78,0,60
1,note_on,80,66,0
1,note_on,80,0,60
1,note_on,78,77,0
1,note_on,78,0,60
1,note_on,80,63,0
1,note_on,80,0,60
1,note_on,78,75,0
1,note_on,78,0,40
1,note_on,80,64,0
1,note_on,80,0,40
1,note_on,78,75,0
1,note_on,78,0,40
1,note_on,77,70,0
1,note_on,77,0,60
1,note_on,78,63,0
1,note_on,78,0,60
1,note_on,83,83,0
1,note_on,83,0,480
1,note_on,83,77,0
1,note_on,83,0,480
1,note_on,83,82,0
1,note_on,83,0,360
1,note_on,83,68,0
1,note_on,83,0,110
1,note_on,85,72,10
1,note_on,85,0,120
1,note_on,83,64,0
1,note_on,83,0,120
1,note_on,82,64,0
1,note_on,82,0,120
1,note_on,83,61,0
1,note_on,83,0,120
1,note_on,82,76,0
1,note_on,82,0,480
1,note_on,82,70,0
1,note_on,82,0,480
1,note_on,82,75,0
1,note_on,82,0,480
1,note_on,82,72,0
1,note_on,82,0,120
1,note_on,80,64,0
1,note_on,80,0,120
1,note_on,79,64,0
1,note_on,79,0,120
1,note_on,80,61,0
1,note_on,80,0,120
1,note_on,79,69,0
1,note_on,79,0,960
1,note_on,75,61,0
1,note_on,75,0,960
1,note_on,84,76,0
1,note_on,84,0,480
1,note_on,84,70,0
1,note_on,84,0,480
1,note_on,84,75,0
1,note_on,84,0,480
1,note_on,84,72,0
1,note_on,84,0,120
1,note_on,82,64,0
1,note_on,82,0,120
1,note_on,80,64,0
1,note_on,80,0,120
1,note_on,82,61,0
1,note_on,82,0,120
1,note_on,80,72,0
1,note_on,80,0,160
1,note_on,84,63,0
1,note_on,84,0,160
1,note_on,82,63,0
1,note_on,82,0,160
1,note_on,80,59,0
1,note_on,80,0,160
1,note_on,79,69,0
1,note_on,79,0,160
1,note_on,77,62,0
1,note_on,77,0,160
1,note_on,75,62,0
1,note_on,75,0,160
1,note_on,73,58,0
1,note_on,73,0,160
1,note_on,72,57,0
1,note_on,72,0,160
1,note_on,70,65,0
1,note_on,70,0,160
1,note_on,68,59,0
1,note_on,68,0,160
1,note_on,67,58,0
1,note_on,67,0,160
1,note_on,65,72,0
1,note_on,65,0,160
1,note_on,72,63,0
1,note_on,72,0,160
1,note_on,70,63,0
1,note_on,70,0,160
1,note_on,68,59,0
1,note_on,68,0,160
1,note_on,67,67,0
1,note_on,67,0,160
1,note_on,65,62,0
1,note_on,65,0,160
1,note_on,63,62,0
1,note_on,63,0,160
1,note_on,61,58,0
1,note_on,61,0,160
1,note_on,60,57,0
1,note_on,60,0,160
1,note_on,58,65,0
1,note_on,58,0,160
1,note_on,56,59,0
1,note_on,56,0,160
1,note_on,55,58,0
1,note_on,55,0,160
1,note_on,53,73,0
1,note_on,53,0,480
1,note_on,53,65,0
1,note_on,53,0,480
1,note_on,53,65,0
1,note_on,53,0,480
1,note_on,63,72,0
1,note_on,63,0,480
1,note_on,61,62,0
1,note_on,61,0,60
1,note_on,63,52,0
1,note_on,63,0,60
1,note_on,61,60,0
1,note_on,61,0,60
1,note_on,63,53,0
1,note_on,63,0,60
1,note_on,61,61,0
1,note_on,61,0,60
1,note_on,63,55,0
1,note_on,63,0,60
1,note_on,61,64,0
1,note_on,61,0,60
1,note_on,63,58,0
1,note_on,63,0,60
1,note_on,61,69,0
1,note_on,61,0,80
1,note_on,63,60,0
1,note_on,63,0,80
1,note_on,61,55,0
1,note_on,61,0,80
1,note_on,60,60,0
1,note_on,58,62,235
1,note_on,60,0,5
1,note_on,58,0,475
1,note_on,55,73,485
1,note_on,55,0,480
1,note_on,55,65,0
1,note_on,55,0,480
1,note_on,55,65,0
1,note_on,55,0,480
1,note_on,65,72,0
1,note_on,65,0,480
1,note_on,64,60,0
1,note_on,64,0,160
1,note_on,62,49,0
1,note_on,62,0,160
1,note_on,60,49,0
1,note_on,60,0,80
1,note_on,60,56,80
1,note_on,60,0,80
1,note_on,60,49,80
1,note_on,60,0,80
1,note_on,60,49,80
1,note_on,60,0,80
1,note_on,67,60,80
1,note_on,67,0,160
1,note_on,65,49,0
1,note_on,65,0,160
1,note_on,64,49,0
1,note_on,64,0,80
1,note_on,64,56,80
1,note_on,64,0,80
1,note_on,64,49,80
1,note_on,64,0,80
1,note_on,64,49,80
1,note_on,64,0,80
1,note_on,70,65,80
1,note_on,70,0,160
1,note_on,68,50,0
1,note_on,68,0,160
1,note_on,67,50,0
1,note_on,67,0,80
1,note_on,67,61,80
1,note_on,67,0,80
1,note_on,67,54,80
1,note_on,67,0,80
1,note_on,67,54,80
1,note_on,67,0,80
1,note_on,79,66,80
1,note_on,79,0,160
1,note_on,77,63,0
1,note_on,77,0,160
1,note_on,76,56,0
1,note_on,76,0,160
1,note_on,73,66,0
1,note_on,73,0,160
1,note_on,72,60,0
1,note_on,72,0,160
1,note_on,70,57,0
1,note_on,70,0,160
1,note_on,68,71,0
1,note_on,68,0,160
1,note_on,72,55,0
1,note_on,72,0,160
1,note_on,77,55,0
1,note_on,77,0,80
1,note_on,77,71,80
1,note_on,77,0,80
1,note_on,77,57,80
1,note_on,77,0,80
1,note_on,77,57,80
1,note_on,77,0,80
1,note_on,76,78,80
1,note_on,76,0,160
1,note_on,79,67,0
1,note_on,79,0,160
1,note_on,82,67,0
1,note_on,82,0,80
1,note_on,82,76,80
1,note_on,82,0,80
1,note_on,82,62,80
1,note_on,82,0,80
1,note_on,82,63,80
1,note_on,82,0,80
1,note_on,80,78,80
1,note_on,80,0,160
1,note_on,84,65,0
1,note_on,84,0,160
1,note_on,89,65,0
1,note_on,89,0,80
1,note_on,89,72,80
1,note_on,89,0,80
1,note_on,89,64,80
1,note_on,89,0,80
1,note_on,89,64,80
1,note_on,89,0,80
1,note_on,79,78,80
1,note_on,79,0,160
1,note_on,82,66,0
1,note_on,82,0,160
1,note_on,85,65,0
1,note_on,85,0,80
1,note_on,85,71,80
1,note_on,85,0,80
1,note_on,85,62,80
1,note_on,85,0,80
1,note_on,85,61,80
1,note_on,85,0,80
1,note_on,80,64,560
1,note_on,84,76,0
1,note_on,84,0,180
1,note_on,80,0,0
1,note_on,70,60,780
1,note_on,76,60,0
1,note_on,76,0,480
1,note_on,70,0,0
1,note_on,75,60,0
1,note_on,75,0,480
1,note_on,75,54,0
1,note_on,75,0,480
1,note_on,75,60,0
1,note_on,75,0,480
1,note_on,75,55,0
1,note_on,75,0,480
1,note_on,74,57,0
1,note_on,74,0,960
1,note_on,70,58,0
1,note_on,70,0,960
1,note_on,73,78,0
1,note_on,73,0,480
1,note_on,73,73,0
1,note_on,73,0,480
1,note_on,73,73,0
1,note_on,73,0,60
1,note_on,75,62,0
1,note_on,75,0,60
1,note_on,73,73,0
1,note_on,73,0,60
1,note_on,75,59,0
1,note_on,75,0,60
1,note_on,73,71,0
1,note_on,73,0,40
1,note_on,75,60,0
1,note_on,75,0,40
1,note_on,73,71,0
1,note_on,73,0,40
1,note_on,72,66,0
1,note_on,72,0,60
1,note_on,73,59,0
1,note_on,73,0,60
1,note_on,82,79,0
1,note_on,82,0,240
1,note_on,73,72,0
1,note_on,73,0,240
1,note_on,72,78,0
1,note_on,72,0,480
1,note_on,72,73,0
1,note_on,72,0,480
1,note_on,72,73,0
1,note_on,72,0,60
1,note_on,73,62,0
1,note_on,73,0,60
1,note_on,72,73,0
1,note_on,72,0,60
1,note_on,73,59,0
1,note_on,73,0,60
1,note_on,72,71,0
1,note_on,72,0,40
1,note_on,73,60,0
1,note_on,73,0,40
1,note_on,72,71,0
1,note_on,72,0,40
1,note_on,70,66,0
1,note_on,70,0,60
1,note_on,72,59,0
1,note_on,72,0,60
1,note_on,75,79,0
1,note_on,75,0,240
1,note_on,72,72,0
1,note_on,72,0,240
1,note_on,70,78,0
1,note_on,70,0,480
1,note_on,70,73,0
1,note_on,70,0,480
1,note_on,70,73,0
1,note_on,70,0,60
1,note_on,72,62,0
1,note_on,72,0,60
1,note_on,70,73,0
1,note_on,70,0,60
1,note_on,72,59,0
1,note_on,72,0,60
1,note_on,70,71,0
1,note_on,70,0,40
1,note_on,72,60,0
1,note_on,72,0,40
1,note_on,70,71,0
1,note_on,70,0,40
1,note_on,69,66,0
1,note_on,69,0,60
1,note_on,70,59,0
1,note_on,70,0,60
1,note_on,77,79,0
1,note_on,77,0,240
1,note_on,68,72,0
1,note_on,68,0,240
1,note_on,67,77,0
1,note_on,67,0,160
1,note_on,70,68,0
1,note_on,70,0,160
1,note_on,68,68,0
1,note_on,68,0,160
1,note_on,67,66,0
1,note_on,67,0,160
1,note_on,79,76,0
1,note_on,79,0,160
1,note_on,77,69,0
1,note_on,77,0,160
1,note_on,75,64,0
1,note_on,75,0,160
1,note_on,82,74,0
1,note_on,82,0,160
1,note_on,80,69,0
1,note_on,80,0,160
1,note_on,79,68,0
1,note_on,79,0,160
1,note_on,77,66,0
1,note_on,77,0,160
1,note_on,75,65,0
1,note_on,75,0,160
1,note_on,74,77,0
1,note_on,74,0,160
1,note_on,77,68,0
1,note_on,77,0,160
1,note_on,75,68,0
1,note_on,75,0,160
1,note_on,74,66,0
1,note_on,74,0,160
1,note_on,80,76,0
1,note_on,80,0,160
1,note_on,79,69,0
1,note_on,79,0,160
1,note_on,77,64,0
1,note_on,77,0,160
1,note_on,84,74,0
1,note_on,84,0,160
1,note_on,82,69,0
1,note_on,82,0,160
1,note_on,80,68,0
1,note_on,80,0,160
1,note_on,79,66,0
1,note_on,79,0,160
1,note_on,77,65,0
1,note_on,77,0,160
1,note_on,75,77,0
1,note_on,75,0,240
1,note_on,74,68,0
1,note_on,74,0,240
1,note_on,77,74,0
1,note_on,77,0,240
1,note_on,75,70,0
1,note_on,75,0,240
1,note_on,79,73,0
1,note_on,79,0,240
1,note_on,77,66,0
1,note_on,77,0,240
1,note_on,80,72,0
1,note_on,80,0,240
1,note_on,79,63,0
1,note_on,79,0,240
1,note_on,82,77,0
1,note_on,82,0,240
1,note_on,80,74,0
1,note_on,80,0,240
1,note_on,84,77,0
1,note_on,84,0,480
1,note_on,82,73,0
1,note_on,82,0,480
1,note_on,80,69,0
1,note_on,80,0,480
1,note_on,79,69,0
1,note_on,79,0,480
1,note_on,77,66,0
1,note_on,77,0,480
1,note_on,75,62,0
1,note_on,75,0,480
1,note_on,74,59,0
1,note_on,74,0,480
1,note_on,80,66,0
1,note_on,80,0,960
1,note_on,79,63,0
1,note_on,79,0,240
1,note_on,80,56,0
1,note_on,80,0,240
1,note_on,82,62,0
1,note_on,82,0,240
1,note_on,80,58,0
1,note_on,80,0,220
1,note_on,80,65,20
1,note_on,80,0,1440
1,note_on,74,56,0
1,note_on,74,0,480
1,note_on,74,42,0
1,note_on,74,0,30
1,note_on,75,50,0
1,note_on,75,0,30
1,note_on,77,46,0
1,note_on,77,0,30
1,note_on,75,50,0
1,note_on,75,0,30
1,note_on,77,46,0
1,note_on,77,0,30
1,note_on,75,50,0
1,note_on,75,0,30
1,note_on,77,45,0
1,note_on,77,0,30
1,note_on,75,50,0
1,note_on,75,0,30
1,note_on,77,46,0
1,note_on,77,0,30
1,note_on,75,50,0
1,note_on,75,0,30
1,note_on,77,50,0
1,note_on,77,0,30
1,note_on,75,45,0
1,note_on,75,0,30
1,note_on,74,55,0
1,note_on,74,0,60
1,note_on,75,55,0
1,note_on,75,0,60
1,note_on,63,72,960
1,note_on,63,0,360
1,note_on,60,66,0
1,note_on,60,0,120
1,note_on,68,72,0
1,note_on,68,0,360
1,note_on,68,65,0
1,note_on,68,0,120
1,note_on,68,72,0
1,note_on,68,0,60
1,note_on,70,62,0
1,note_on,70,0,60
1,note_on,68,72,0
1,note_on,68,0,60
1,note_on,70,58,0
1,note_on,70,0,60
1,note_on,68,69,0
1,note_on,68,0,40
1,note_on,70,59,0
1,note_on,70,0,40
1,note_on,68,69,0
1,note_on,68,0,40
1,note_on,67,65,0
1,note_on,67,0,60
1,note_on,68,58,0
1,note_on,68,0,60
1,note_on,70,72,0
1,note_on,70,0,480
1,note_on,63,72,0
1,note_on,63,0,360
1,note_on,75,68,0
1,note_on,75,0,120
1,note_on,73,82,0
1,note_on,73,0,960
1,note_on,72,72,0
1,note_on,72,0,180
1,note_on,68,49,300
1,note_on,68,0,360
1,note_on,77,44,0
1,note_on,77,0,120
1,note_on,75,55,0
1,note_on,75,0,960
1,note_on,73,49,0
1,note_on,73,0,180
1,note_on,63,72,300
1,note_on,63,0,360
1,note_on,75,68,0
1,note_on,75,0,120
1,note_on,73,82,0
1,note_on,73,0,960
1,note_on,72,72,0
1,note_on,72,0,180
1,note_on,80,81,300
1,note_on,80,0,360
1,note_on,72,68,0
1,note_on,72,0,120
1,note_on,70,79,0
1,note_on,70,0,360
1,note_on,70,65,0
1,note_on,70,0,120
1,note_on,70,72,0
1,note_on,70,0,60
1,note_on,72,62,0
1,note_on,72,0,60
1,note_on,70,72,0
1,note_on,70,0,60
1,note_on,72,58,0
1,note_on,72,0,60
1,note_on,70,69,0
1,note_on,70,0,40
1,note_on,72,59,0
1,note_on,72,0,40
1,note_on,70,69,0
1,note_on,70,0,40
1,note_on,69,65,0
1,note_on,69,0,60
1,note_on,70,58,0
1,note_on,70,0,60
1,note_on,73,78,0
1,note_on,73,0,360
1,note_on,70,71,0
1,note_on,70,0,120
1,note_on,67,79,0
1,note_on,67,0,360
1,note_on,63,72,0
1,note_on,63,0,120
1,note_on,68,81,0
1,note_on,68,0,360
1,note_on,63,72,1080
1,note_on,63,0,360
1,note_on,60,66,0
1,note_on,60,0,120
1,note_on,68,72,0
1,note_on,68,0,360
1,note_on,68,65,0
1,note_on,68,0,120
1,note_on,68,72,0
1,note_on,68,0,60
1,note_on,70,62,0
1,note_on,70,0,60
1,note_on,68,72,0
1,note_on,68,0,60
1,note_on,70,58,0
1,note_on,70,0,60
1,note_on,68,69,0
1,note_on,68,0,40
1,note_on,70,59,0
1,note_on,70,0,40
1,note_on,68,69,0
1,note_on,68,0,40
1,note_on,67,65,0
1,note_on,67,0,60
1,note_on,68,58,0
1,note_on,68,0,60
1,note_on,70,72,0
1,note_on,70,0,480
1,note_on,63,72,0
1,note_on,63,0,360
1,note_on,75,68,0
1,note_on,75,0,120
1,note_on,73,82,0
1,note_on,73,0,960
1,note_on,72,72,0
1,note_on,72,0,180
1,note_on,68,76,300
1,note_on,68,0,360
1,note_on,80,69,0
1,note_on,80,0,120
1,note_on,79,79,0
1,note_on,79,0,480
1,note_on,77,68,0
1,note_on,77,0,120
1,note_on,80,78,240
1,note_on,80,0,120
1,note_on,77,73,0
1,note_on,77,0,480
1,note_on,75,76,0
1,note_on,75,0,120
1,note_on,80,69,240
1,note_on,80,0,120
1,note_on,75,79,0
1,note_on,75,0,480
1,note_on,73,68,0
1,note_on,73,0,120
1,note_on,80,78,240
1,note_on,80,0,120
1,note_on,73,73,0
1,note_on,73,0,480
1,note_on,72,76,0
1,note_on,72,0,120
1,note_on,80,69,240
1,note_on,80,0,120
1,note_on,72,74,0
1,note_on,72,0,360
1,note_on,70,66,0
1,note_on,70,0,120
1,note_on,73,73,0
1,note_on,73,0,360
1,note_on,77,66,0
1,note_on,77,0,120
1,note_on,75,76,0
1,note_on,75,0,480
1,note_on,67,69,0
1,note_on,67,0,450
1,note_on,67,46,0
1,note_on,67,0,30
1,note_on,68,73,0
1,note_on,68,0,120
1,note_on,67,53,330
1,note_on,67,0,30
1,note_on,68,73,0
1,note_on,68,0,120
1,note_on,67,55,330
1,note_on,67,0,30
1,note_on,68,73,0
1,note_on,68,0,120
1,note_on,69,55,330
1,note_on,69,0,30
1,note_on,70,79,0
1,note_on,70,0,120
1,note_on,71,76,360
1,note_on,71,0,480
1,note_on,72,69,0
1,note_on,72,0,480
1,note_on,68,61,0
1,note_on,71,46,930
1,note_on,71,0,30
1,note_on,68,0,0
1,note_on,72,73,0
1,note_on,72,0,120
1,note_on,71,53,330
1,note_on,71,0,30
1,note_on,72,73,0
1,note_on,72,0,120
1,note_on,71,55,330
1,note_on,71,0,30
1,note_on,72,73,0
1,note_on,72,0,120
1,note_on,75,79,360
1,note_on,75,0,120
1,note_on,73,71,0
1,note_on,73,0,120
1,note_on,72,76,0
1,note_on,72,0,120
1,note_on,73,69,0
1,note_on,73,0,120
1,note_on,75,79,0
1,note_on,75,0,960
1,note_on,72,68,0
1,note_on,72,0,960
1,note_on,80,92,0
1,note_on,80,0,470
1,note_on,80,85,10
1,note_on,80,0,160
1,note_on,84,72,0
1,note_on,84,0,160
1,note_on,87,72,0
1,note_on,87,0,160
1,note_on,78,82,0
1,note_on,78,0,960
1,note_on,77,92,0
1,note_on,77,0,470
1,note_on,77,85,10
1,note_on,77,0,160
1,note_on,82,72,0
1,note_on,82,0,160
1,note_on,85,72,0
1,note_on,85,0,160
1,note_on,75,82,0
1,note_on,75,0,720
1,note_on,77,75,0
1,note_on,77,0,120
1,note_on,79,82,0
1,note_on,79,0,120
1,note_on,80,94,0
1,note_on,80,0,470
1,note_on,80,81,10
1,note_on,80,0,160
1,note_on,82,72,0
1,note_on,82,0,160
1,note_on,84,66,0
1,note_on,84,0,160
1,note_on,73,84,0
1,note_on,73,0,960
1,note_on,72,81,0
1,note_on,72,0,160
1,note_on,75,71,0
1,note_on,75,0,160
1,note_on,73,71,0
1,note_on,73,0,160
1,note_on,72,66,0
1,note_on,72,0,160
1,note_on,84,78,0
1,note_on,84,0,160
1,note_on,82,71,0
1,note_on,82,0,160
1,note_on,80,71,0
1,note_on,80,0,160
1,note_on,79,78,0
1,note_on,79,0,160
1,note_on,77,68,0
1,note_on,77,0,160
1,note_on,75,79,0
1,note_on,75,0,160
1,note_on,73,71,0
1,note_on,73,0,160
1,note_on,72,71,0
1,note_on,72,0,160
1,note_on,75,81,0
1,note_on,75,0,360
1,note_on,72,58,0
1,note_on,72,0,120
1,note_on,70,70,0
1,note_on,70,0,720
1,note_on,73,55,0
1,note_on,73,0,240
1,note_on,72,60,0
1,note_on,72,0,240
1,note_on,75,54,0
1,note_on,75,0,240
1,note_on,75,63,0
1,note_on,75,0,240
1,note_on,73,53,0
1,note_on,73,0,220
1,note_on,73,59,20
1,note_on,73,0,960
1,note_on,72,57,0
1,note_on,72,0,160
1,note_on,70,52,0
1,note_on,70,0,160
1,note_on,68,52,0
1,note_on,68,0,140
1,note_on,68,61,20
1,note_on,68,0,240
1,note_on,67,50,0
1,note_on,67,0,220
1,note_on,67,60,20
1,note_on,67,0,960
1,note_on,68,57,0
1,note_on,68,0,480
1,note_on,70,63,0
1,note_on,70,0,160
1,note_on,72,61,0
1,note_on,72,0,160
1,note_on,73,63,0
1,note_on,73,0,140
1,note_on,73,59,20
1,note_on,73,0,960
1,note_on,72,57,0
1,note_on,72,0,160
1,note_on,70,52,0
1,note_on,70,0,160
1,note_on,68,52,0
1,note_on,68,0,140
1,note_on,68,61,20
1,note_on,68,0,240
1,note_on,67,50,0
1,note_on,67,0,220
1,note_on,67,60,20
1,note_on,67,0,960
1,note_on,68,57,0
1,note_on,68,0,480
1,note_on,70,63,0
1,note_on,70,0,160
1,note_on,72,63,0
1,note_on,72,0,160
1,note_on,73,63,0
1,note_on,73,0,140
1,note_on,73,59,20
1,note_on,73,0,960
1,note_on,72,57,0
1,note_on,72,0,480
1,note_on,70,53,0
1,note_on,70,0,160
1,note_on,77,67,0
1,note_on,77,0,160
1,note_on,75,60,0
1,note_on,75,0,160
1,note_on,73,67,0
1,note_on,73,0,160
1,note_on,72,61,0
1,note_on,72,0,160
1,note_on,70,57,0
1,note_on,70,0,160
1,note_on,68,69,0
1,note_on,68,0,480
1,note_on,67,57,0
1,note_on,67,0,480
1,note_on,60,83,0
1,note_on,60,0,160
1,note_on,63,67,0
1,note_on,63,0,160
1,note_on,68,67,0
1,note_on,68,0,80
1,note_on,68,72,80
1,note_on,68,0,80
1,note_on,68,63,80
1,note_on,68,0,80
1,note_on,68,63,80
1,note_on,68,0,80
1,note_on,67,82,80
1,note_on,67,0,160
1,note_on,70,67,0
1,note_on,70,0,160
1,note_on,73,67,0
1,note_on,73,0,80
1,note_on,73,72,80
1,note_on,73,0,80
1,note_on,73,65,80
1,note_on,73,0,80
1,note_on,73,65,80
1,note_on,73,0,80
1,note_on,72,86,80
1,note_on,72,0,160
1,note_on,75,70,0
1,note_on,75,0,160
1,note_on,80,70,0
1,note_on,80,0,80
1,note_on,80,70,80
1,note_on,80,0,80
1,note_on,80,68,80
1,note_on,80,0,80
1,note_on,80,69,80
1,note_on,80,0,80
1,note_on,79,74,80
1,note_on,79,0,160
1,note_on,82,70,0
1,note_on,82,0,160
1,note_on,85,70,0
1,note_on,85,0,80
1,note_on,85,74,80
1,note_on,85,0,80
1,note_on,85,70,80
1,note_on,85,0,80
1,note_on,85,66,80
1,note_on,85,0,80
1,note_on,84,86,80
1,note_on,84,0,160
1,note_on,87,84,0
1,note_on,87,0,160
1,note_on,85,75,0
1,note_on,85,0,160
1,note_on,84,86,0
1,note_on,84,0,160
1,note_on,82,78,0
1,note_on,82,0,160
1,note_on,80,78,0
1,note_on,80,0,160
1,note_on,79,86,0
1,note_on,79,0,160
1,note_on,77,77,0
1,note_on,77,0,160
1,note_on,75,75,0
1,note_on,75,0,160
1,note_on,73,86,0
1,note_on,73,0,160
1,note_on,72,77,0
1,note_on,72,0,160
1,note_on,70,77,0
1,note_on,70,0,160
1,note_on,68,86,0
1,note_on,68,0,160
1,note_on,84,87,0
1,note_on,84,0,160
1,note_on,82,75,0
1,note_on,82,0,160
1,note_on,80,86,0
1,note_on,80,0,160
1,note_on,79,82,0
1,note_on,79,0,160
1,note_on,77,82,0
1,note_on,77,0,160
1,note_on,75,86,0
1,note_on,75,0,160
1,note_on,73,77,0
1,note_on,73,0,160
1,note_on,72,75,0
1,note_on,72,0,160
1,note_on,70,86,0
1,note_on,70,0,160
1,note_on,68,77,0
1,note_on,68,0,160
1,note_on,67,77,0
1,note_on,67,0,160
1,note_on,65,86,0
1,note_on,65,0,360
1,note_on,77,78,0
1,note_on,77,0,120
1,note_on,73,86,0
1,note_on,73,0,360
1,note_on,70,74,0
1,note_on,70,0,120
1,note_on,68,85,0
1,note_on,68,0,480
1,note_on,67,62,0
1,note_on,67,0,60
1,note_on,68,56,0
1,note_on,68,0,60
1,note_on,67,62,0
1,note_on,67,0,60
1,note_on,68,57,0
1,note_on,68,0,60
1,note_on,67,62,0
1,note_on,67,0,60
1,note_on,68,55,0
1,note_on,68,0,60
1,note_on,67,62,0
1,note_on,67,0,60
1,note_on,68,58,0
1,note_on,68,0,60
1,note_on,84,86,0
1,note_on,84,0,160
1,note_on,87,84,0
1,note_on,87,0,160
1,note_on,85,75,0
1,note_on,85,0,160
1,note_on,84,86,0
1,note_on,84,0,160
1,note_on,82,78,0
1,note_on,82,0,160
1,note_on,80,78,0
1,note_on,80,0,160
1,note_on,79,86,0
1,note_on,79,0,160
1,note_on,77,77,0
1,note_on,77,0,160
1,note_on,75,75,0
1,note_on,75,0,160
1,note_on,73,86,0
1,note_on,73,0,160
1,note_on,72,77,0
1,note_on,72,0,160
1,note_on,70,77,0
1,note_on,70,0,160
1,note_on,68,86,0
1,note_on,68,0,160
1,note_on,84,87,0
1,note_on,84,0,160
1,note_on,82,75,0
1,note_on,82,0,160
1,note_on,80,86,0
1,note_on,80,0,160
1,note_on,79,82,0
1,note_on,79,0,160
1,note_on,77,82,0
1,note_on,77,0,160
1,note_on,75,86,0
1,note_on,75,0,160
1,note_on,73,77,0
1,note_on,73,0,160
1,note_on,72,75,0
1,note_on,72,0,160
1,note_on,70,86,0
1,note_on,70,0,160
1,note_on,68,77,0
1,note_on,68,0,160
1,note_on,67,77,0
1,note_on,67,0,160
1,note_on,65,86,0
1,note_on,65,0,360
1,note_on,77,78,0
1,note_on,77,0,120
1,note_on,73,86,0
1,note_on,73,0,360
1,note_on,70,74,0
1,note_on,70,0,120
1,note_on,68,85,0
1,note_on,68,0,480
1,note_on,67,62,0
1,note_on,67,0,60
1,note_on,68,56,0
1,note_on,68,0,60
1,note_on,67,62,0
1,note_on,67,0,60
1,note_on,68,57,0
1,note_on,68,0,60
1,note_on,67,62,0
1,note_on,67,0,60
1,note_on,68,55,0
1,note_on,68,0,60
1,note_on,67,62,0
1,note_on,67,0,60
1,note_on,68,58,0
1,note_on,68,0,50
1,note_on,68,73,10
1,note_on,68,0,160
1,note_on,72,70,0
1,note_on,72,0,160
1,note_on,70,63,0
1,note_on,70,0,160
1,note_on,68,72,0
1,note_on,68,0,160
1,note_on,67,64,0
1,note_on,67,0,160
1,note_on,65,64,0
1,note_on,65,0,160
1,note_on,63,72,0
1,note_on,63,0,160
1,note_on,61,64,0
1,note_on,61,0,160
1,note_on,60,64,0
1,note_on,60,0,160
1,note_on,61,72,0
1,note_on,61,0,120
1,note_on,63,69,0
1,note_on,63,0,120
1,note_on,65,65,0
1,note_on,65,0,120
1,note_on,67,62,0
1,note_on,67,0,120
1,note_on,68,73,0
1,note_on,68,0,160
1,note_on,72,70,0
1,note_on,72,0,160
1,note_on,70,63,0
1,note_on,70,0,160
1,note_on,68,72,0
1,note_on,68,0,160
1,note_on,67,64,0
1,note_on,67,0,160
1,note_on,65,64,0
1,note_on,65,0,160
1,note_on,63,72,0
1,note_on,63,0,160
1,note_on,61,64,0
1,note_on,61,0,160
1,note_on,60,64,0
1,note_on,60,0,160
1,note_on,61,72,0
1,note_on,61,0,120
1,note_on,63,69,0
1,note_on,63,0,120
1,note_on,65,65,0
1,note_on,65,0,120
1,note_on,67,62,0
1,note_on,67,0,120
1,note_on,68,73,0
1,note_on,68,0,160
1,note_on,72,70,0
1,note_on,72,0,160
1,note_on,70,63,0
1,note_on,70,0,160
1,note_on,68,72,0
1,note_on,68,0,160
1,note_on,67,64,0
1,note_on,67,0,160
1,note_on,65,64,0
1,note_on,65,0,160
1,note_on,63,72,0
1,note_on,63,0,160
1,note_on,61,64,0
1,note_on,61,0,160
1,note_on,60,64,0
1,note_on,60,0,160
1,note_on,68,72,0
1,note_on,68,0,160
1,note_on,67,64,0
1,note_on,67,0,160
1,note_on,65,64,0
1,note_on,65,0,160
1,note_on,63,72,0
1,note_on,63,0,160
1,note_on,61,64,0
1,note_on,61,0,160
1,note_on,60,64,0
1,note_on,60,0,160
1,note_on,68,72,0
1,note_on,68,0,160
1,note_on,67,64,0
1,note_on,67,0,160
1,note_on,65,64,0
1,note_on,65,0,160
1,note_on,63,72,0
1,note_on,63,0,160
1,note_on,61,64,0
1,note_on,61,0,160
1,note_on,60,64,0
1,note_on,60,0,160
1,note_on,68,72,0
1,note_on,68,0,360
1,note_on,60,51,0
1,note_on,60,0,110
1,note_on,60,51,10
1,note_on,60,0,80
1,note_on,61,46,0
1,note_on,61,0,80
1,note_on,60,51,0
1,note_on,60,0,80
1,note_on,61,45,0
1,note_on,61,0,80
1,note_on,60,51,0
1,note_on,60,0,80
1,note_on,61,45,0
1,note_on,61,0,80
1,note_on,60,51,0
1,note_on,60,0,60
1,note_on,61,46,0
1,note_on,61,0,60
1,note_on,60,51,0
1,note_on,60,0,60
1,note_on,61,45,0
1,note_on,61,0,60
1,note_on,60,58,0
1,note_on,60,0,120
1,note_on,61,51,0
1,note_on,61,0,120
1,note_on,63,59,0
1,note_on,63,0,480
1,note_on,63,59,0
1,note_on,63,0,480
1,note_on,68,51,0
1,note_on,68,0,1380
1,note_on,72,57,0
1,note_on,72,0,60
1,note_on,70,45,0
1,note_on,70,0,480
1,note_on,68,51,0
1,note_on,68,0,480
1,note_on,68,45,0
1,note_on,68,0,480
1,note_on,68,45,0
1,note_on,68,0,480
1,note_on,73,49,0
1,note_on,73,0,120
1,note_on,70,44,0
1,note_on,70,0,360
1,note_on,75,49,0
1,note_on,75,0,480
1,note_on,75,45,0
1,note_on,75,0,480
1,note_on,75,44,0
1,note_on,75,0,480
1,note_on,73,48,0
1,note_on,73,0,120
1,note_on,70,43,0
1,note_on,70,0,360
1,note_on,68,48,0
1,note_on,68,0,1380
1,note_on,72,51,0
1,note_on,72,0,60
1,note_on,70,42,0
1,note_on,70,0,480
1,note_on,68,46,0
1,note_on,68,0,480
1,note_on,68,42,0
1,note_on,68,0,480
1,note_on,68,42,0
1,note_on,68,0,480
1,note_on,73,45,0
1,note_on,73,0,120
1,note_on,70,41,0
1,note_on,70,0,360
1,note_on,75,45,0
1,note_on,75,0,480
1,note_on,75,41,0
1,note_on,75,0,480
1,note_on,75,40,0
1,note_on,75,0,480
1,note_on,73,45,0
1,note_on,73,0,120
1,note_on,70,40,0
1,note_on,70,0,360
1,note_on,68,44,0
1,note_on,68,0,1380
1,note_on,72,42,0
1,note_on,72,0,60
1,note_on,70,34,0
1,note_on,70,0,480
1,note_on,68,40,0
1,note_on,68,0,480
1,note_on,75,36,0
1,note_on,72,30,0
1,note_on,72,0,480
1,note_on,75,0,0
1,note_on,72,30,0
1,note_on,75,36,0
1,note_on,75,0,480
1,note_on,72,0,0
2,note_on,44,49,1920
2,note_on,56,58,0
2,note_on,56,0,480
2,note_on,44,0,0
2,note_on,43,49,480
2,note_on,55,58,0
2,note_on,55,0,480
2,note_on,43,0,0
2,note_on,44,47,960
2,note_on,44,0,480
2,note_on,56,58,0
2,note_on,56,0,180
2,note_on,58,31,1260
2,note_on,58,0,480
2,note_on,55,39,0
2,note_on,55,0,180
2,note_on,56,47,1260
2,note_on,56,0,480
2,note_on,44,58,0
2,note_on,44,0,180
2,note_on,48,52,300
2,note_on,48,0,480
2,note_on,49,58,0
2,note_on,49,0,960
2,note_on,51,52,480
2,note_on,51,0,480
2,note_on,44,47,360
2,note_on,44,0,120
2,note_on,48,58,0
2,note_on,48,0,360
2,note_on,51,52,0
2,note_on,51,0,120
2,note_on,56,59,0
2,note_on,56,0,360
2,note_on,56,49,600
2,note_on,60,58,0
2,note_on,60,0,480
2,note_on,56,0,0
2,note_on,55,49,480
2,note_on,58,58,0
2,note_on,58,0,480
2,note_on,55,0,0
2,note_on,44,47,960
2,note_on,44,0,480
2,note_on,56,58,0
2,note_on,56,0,480
2,note_on,60,58,0
2,note_on,60,0,480
2,note_on,61,58,480
2,note_on,61,0,120
2,note_on,60,58,840
2,note_on,60,0,120
2,note_on,58,58,840
2,note_on,58,0,120
2,note_on,56,58,840
2,note_on,56,0,120
2,note_on,61,49,840
2,note_on,49,49,0
2,note_on,49,0,480
2,note_on,61,0,0
2,note_on,51,58,0
2,note_on,60,58,0
2,note_on,60,0,480
2,note_on,58,55,0
2,note_on,58,0,480
2,note_on,51,0,0
2,note_on,56,55,0
2,note_on,56,0,160
2,note_on,60,47,0
2,note_on,60,0,160
2,note_on,63,47,0
2,note_on,63,0,160
2,note_on,56,55,0
2,note_on,56,0,160
2,note_on,60,47,0
2,note_on,60,0,160
2,note_on,63,49,0
2,note_on,63,0,160
2,note_on,56,55,0
2,note_on,56,0,160
2,note_on,60,50,0
2,note_on,60,0,160
2,note_on,63,50,0
2,note_on,63,0,160
2,note_on,55,55,0
2,note_on,55,0,160
2,note_on,58,52,0
2,note_on,58,0,160
2,note_on,63,52,0
2,note_on,63,0,160
2,note_on,56,55,0
2,note_on,56,0,160
2,note_on,60,47,0
2,note_on,60,0,160
2,note_on,63,47,0
2,note_on,63,0,160
2,note_on,56,55,0
2,note_on,56,0,160
2,note_on,60,47,0
2,note_on,60,0,160
2,note_on,63,37,0
2,note_on,63,0,160
2,note_on,56,50,0
2,note_on,56,0,160
2,note_on,60,41,0
2,note_on,60,0,160
2,note_on,63,41,0
2,note_on,63,0,160
2,note_on,56,50,0
2,note_on,56,0,160
2,note_on,60,46,0
2,note_on,60,0,160
2,note_on,63,46,0
2,note_on,63,0,160
2,note_on,56,55,0
2,note_on,56,0,160
2,note_on,60,47,0
2,note_on,60,0,160
2,note_on,63,47,0
2,note_on,63,0,160
2,note_on,56,55,0
2,note_on,56,0,160
2,note_on,60,47,0
2,note_on,60,0,160
2,note_on,63,49,0
2,note_on,63,0,160
2,note_on,56,55,0
2,note_on,56,0,160
2,note_on,60,50,0
2,note_on,60,0,160
2,note_on,63,50,0
2,note_on,63,0,160
2,note_on,58,55,0
2,note_on,58,0,160
2,note_on,61,52,0
2,note_on,61,0,160
2,note_on,67,52,0
2,note_on,67,0,160
2,note_on,60,55,0
2,note_on,60,0,160
2,note_on,63,47,0
2,note_on,63,0,160
2,note_on,68,47,0
2,note_on,68,0,160
2,note_on,60,55,0
2,note_on,60,0,160
2,note_on,63,47,0
2,note_on,63,0,160
2,note_on,68,39,0
2,note_on,68,0,160
2,note_on,60,52,0
2,note_on,60,0,160
2,note_on,63,43,0
2,note_on,63,0,160
2,note_on,68,43,0
2,note_on,68,0,160
2,note_on,60,53,0
2,note_on,60,0,160
2,note_on,63,44,0
2,note_on,63,0,160
2,note_on,68,44,0
2,note_on,68,0,160
2,note_on,60,55,0
2,note_on,60,0,160
2,note_on,63,47,0
2,note_on,63,0,160
2,note_on,68,47,0
2,note_on,68,0,160
2,note_on,60,55,0
2,note_on,60,0,160
2,note_on,63,47,0
2,note_on,63,0,160
2,note_on,68,39,0
2,note_on,68,0,160
2,note_on,60,46,0
2,note_on,60,0,160
2,note_on,63,36,0
2,note_on,63,0,160
2,note_on,68,36,0
2,note_on,68,0,160
2,note_on,60,47,0
2,note_on,60,0,160
2,note_on,63,40,0
2,note_on,63,0,160
2,note_on,68,40,0
2,note_on,68,0,160
2,note_on,61,55,0
2,note_on,61,0,160
2,note_on,65,47,0
2,note_on,65,0,160
2,note_on,68,47,0
2,note_on,68,0,160
2,note_on,61,55,0
2,note_on,61,0,160
2,note_on,65,47,0
2,note_on,65,0,160
2,note_on,68,39,0
2,note_on,68,0,160
2,note_on,61,49,0
2,note_on,61,0,160
2,note_on,63,39,0
2,note_on,63,0,160
2,note_on,67,39,0
2,note_on,67,0,160
2,note_on,61,50,0
2,note_on,61,0,160
2,note_on,63,44,0
2,note_on,63,0,160
2,note_on,67,44,0
2,note_on,67,0,160
2,note_on,60,55,0
2,note_on,60,0,160
2,note_on,63,47,0
2,note_on,63,0,160
2,note_on,68,47,0
2,note_on,68,0,160
2,note_on,60,55,0
2,note_on,60,0,160
2,note_on,63,47,0
2,note_on,63,0,160
2,note_on,68,39,0
2,note_on,68,0,160
2,note_on,58,52,0
2,note_on,58,0,160
2,note_on,61,43,0
2,note_on,61,0,160
2,note_on,67,43,0
2,note_on,67,0,160
2,note_on,58,53,0
2,note_on,58,0,160
2,note_on,61,44,0
2,note_on,61,0,160
2,note_on,67,44,0
2,note_on,67,0,160
2,note_on,56,55,0
2,note_on,56,0,480
2,note_on,63,39,1920
2,note_on,67,46,0
2,note_on,67,0,480
2,note_on,63,0,0
2,note_on,51,58,960
2,note_on,51,0,360
2,note_on,55,58,120
2,note_on,55,0,240
2,note_on,50,58,240
2,note_on,50,0,240
2,note_on,50,58,720
2,note_on,50,0,360
2,note_on,58,44,120
2,note_on,58,0,240
2,note_on,51,53,240
2,note_on,51,0,360
2,note_on,58,47,120
2,note_on,58,0,240
2,note_on,53,55,240
2,note_on,53,0,360
2,note_on,62,37,120
2,note_on,62,0,240
2,note_on,55,56,240
2,note_on,55,0,360
2,note_on,63,44,120
2,note_on,63,0,240
2,note_on,56,55,240
2,note_on,56,0,160
2,note_on,60,47,0
2,note_on,60,0,160
2,note_on,63,47,0
2,note_on,63,0,160
2,note_on,56,55,0
2,note_on,56,0,160
2,note_on,60,47,0
2,note_on,60,0,160
2,note_on,63,39,0
2,note_on,63,0,160
2,note_on,56,52,0
2,note_on,56,0,160
2,note_on,60,43,0
2,note_on,60,0,160
2,note_on,63,43,0
2,note_on,63,0,160
2,note_on,55,53,0
2,note_on,55,0,160
2,note_on,58,44,0
2,note_on,58,0,160
2,note_on,61,44,0
2,note_on,61,0,160
2,note_on,56,55,0
2,note_on,56,0,480
2,note_on,55,55,1440
2,note_on,55,0,160
2,note_on,58,47,0
2,note_on,58,0,160
2,note_on,63,47,0
2,note_on,63,0,160
2,note_on,55,55,0
2,note_on,55,0,160
2,note_on,58,47,0
2,note_on,58,0,160
2,note_on,63,39,0
2,note_on,63,0,160
2,note_on,55,52,0
2,note_on,55,0,160
2,note_on,58,43,0
2,note_on,58,0,160
2,note_on,63,43,0
2,note_on,63,0,160
2,note_on,53,53,0
2,note_on,53,0,160
2,note_on,56,44,0
2,note_on,56,0,160
2,note_on,59,44,0
2,note_on,59,0,160
2,note_on,55,55,0
2,note_on,55,0,480
2,note_on,58,55,1440
2,note_on,58,0,160
2,note_on,62,47,0
2,note_on,62,0,160
2,note_on,65,47,0
2,note_on,65,0,160
2,note_on,58,55,0
2,note_on,58,0,160
2,note_on,62,47,0
2,note_on,62,0,160
2,note_on,65,39,0
2,note_on,65,0,160
2,note_on,58,52,0
2,note_on,58,0,160
2,note_on,62,43,0
2,note_on,62,0,160
2,note_on,65,43,0
2,note_on,65,0,160
2,note_on,58,53,0
2,note_on,58,0,160
2,note_on,63,44,0
2,note_on,63,0,160
2,note_on,67,44,0
2,note_on,67,0,160
2,note_on,58,53,0
2,note_on,58,0,160
2,note_on,65,44,0
2,note_on,65,0,160
2,note_on,68,44,0
2,note_on,68,0,160
2,note_on,58,50,0
2,note_on,58,0,160
2,note_on,65,39,0
2,note_on,65,0,160
2,note_on,68,39,0
2,note_on,68,0,160
2,note_on,58,47,0
2,note_on,58,0,160
2,note_on,65,42,0
2,note_on,65,0,160
2,note_on,68,42,0
2,note_on,68,0,160
2,note_on,58,53,0
2,note_on,58,0,160
2,note_on,63,44,0
2,note_on,63,0,160
2,note_on,67,44,0
2,note_on,67,0,160
2,note_on,58,55,0
2,note_on,58,0,160
2,note_on,62,47,0
2,note_on,62,0,160
2,note_on,65,47,0
2,note_on,65,0,160
2,note_on,58,55,0
2,note_on,58,0,160
2,note_on,62,47,0
2,note_on,62,0,160
2,note_on,65,39,0
2,note_on,65,0,160
2,note_on,58,52,0
2,note_on,58,0,160
2,note_on,62,43,0
2,note_on,62,0,160
2,note_on,65,43,0
2,note_on,65,0,160
2,note_on,58,53,0
2,note_on,58,0,160
2,note_on,63,44,0
2,note_on,63,0,160
2,note_on,67,44,0
2,note_on,67,0,160
2,note_on,58,53,0
2,note_on,58,0,160
2,note_on,65,44,0
2,note_on,65,0,160
2,note_on,68,44,0
2,note_on,68,0,160
2,note_on,58,50,0
2,note_on,58,0,160
2,note_on,65,39,0
2,note_on,65,0,160
2,note_on,68,39,0
2,note_on,68,0,160
2,note_on,58,47,0
2,note_on,58,0,160
2,note_on,65,42,0
2,note_on,65,0,160
2,note_on,68,42,0
2,note_on,68,0,160
2,note_on,58,53,0
2,note_on,58,0,160
2,note_on,63,44,0
2,note_on,63,0,160
2,note_on,67,44,0
2,note_on,67,0,160
2,note_on,58,55,0
2,note_on,58,0,160
2,note_on,62,47,0
2,note_on,62,0,160
2,note_on,65,47,0
2,note_on,65,0,160
2,note_on,58,55,0
2,note_on,58,0,160
2,note_on,62,47,0
2,note_on,62,0,160
2,note_on,65,39,0
2,note_on,65,0,160
2,note_on,59,61,0
2,note_on,59,0,160
2,note_on,62,43,0
2,note_on,62,0,160
2,note_on,65,43,0
2,note_on,65,0,160
2,note_on,60,53,0
2,note_on,60,0,160
2,note_on,62,44,0
2,note_on,62,0,160
2,note_on,63,44,0
2,note_on,63,0,160
2,note_on,56,55,0
2,note_on,56,0,480
2,note_on,58,40,480
2,note_on,67,62,0
2,note_on,67,0,480
2,note_on,68,47,0
2,note_on,68,0,480
2,note_on,58,0,0
2,note_on,60,30,0
2,note_on,68,55,0
2,note_on,68,0,960
2,note_on,67,37,0
2,note_on,67,0,480
2,note_on,60,0,0
2,note_on,51,56,960
2,note_on,48,47,0
2,note_on,48,0,240
2,note_on,51,0,0
2,note_on,51,58,240
2,note_on,48,49,0
2,note_on,48,0,240
2,note_on,51,0,0
2,note_on,51,58,240
2,note_on,48,49,0
2,note_on,48,0,240
2,note_on,51,0,0
2,note_on,46,47,720
2,note_on,53,56,0
2,note_on,50,47,0
2,note_on,50,0,240
2,note_on,53,0,0
2,note_on,46,0,0
2,note_on,46,49,240
2,note_on,53,58,0
2,note_on,50,49,0
2,note_on,50,0,240
2,note_on,53,0,0
2,note_on,46,0,0
2,note_on,46,49,240
2,note_on,53,58,0
2,note_on,50,49,0
2,note_on,50,0,240
2,note_on,53,0,0
2,note_on,46,0,0
2,note_on,51,56,240
2,note_on,51,0,480
2,note_on,46,47,480
2,note_on,53,56,0
2,note_on,53,0,480
2,note_on,46,0,0
2,note_on,51,52,480
2,note_on,55,56,0
2,note_on,55,0,480
2,note_on,51,0,0
2,note_on,46,51,480
2,note_on,53,61,0
2,note_on,53,0,480
2,note_on,46,0,0
2,note_on,51,57,480
2,note_on,55,61,0
2,note_on,55,0,480
2,note_on,51,0,0
2,note_on,56,49,1920
2,note_on,44,40,0
2,note_on,44,0,480
2,note_on,56,0,0
2,note_on,46,43,0
2,note_on,55,52,0
2,note_on,55,0,480
2,note_on,46,0,0
2,note_on,53,49,0
2,note_on,46,40,0
2,note_on,46,0,480
2,note_on,53,0,0
2,note_on,63,58,0
2,note_on,63,0,160
2,note_on,67,62,0
2,note_on,67,0,160
2,note_on,65,51,0
2,note_on,65,0,160
2,note_on,63,58,0
2,note_on,63,0,160
2,note_on,62,56,0
2,note_on,62,0,160
2,note_on,60,56,0
2,note_on,60,0,160
2,note_on,58,58,0
2,note_on,58,0,160
2,note_on,56,52,0
2,note_on,56,0,160
2,note_on,55,51,0
2,note_on,55,0,160
2,note_on,53,58,0
2,note_on,53,0,160
2,note_on,51,52,0
2,note_on,51,0,160
2,note_on,50,52,0
2,note_on,50,0,160
2,note_on,48,58,0
2,note_on,48,0,160
2,note_on,63,62,0
2,note_on,63,0,160
2,note_on,62,51,0
2,note_on,62,0,160
2,note_on,60,58,0
2,note_on,60,0,160
2,note_on,58,56,0
2,note_on,58,0,160
2,note_on,56,56,0
2,note_on,56,0,160
2,note_on,55,58,0
2,note_on,55,0,160
2,note_on,53,52,0
2,note_on,53,0,160
2,note_on,51,51,0
2,note_on,51,0,160
2,note_on,50,58,0
2,note_on,50,0,160
2,note_on,48,52,0
2,note_on,48,0,160
2,note_on,46,52,0
2,note_on,46,0,160
2,note_on,44,58,0
2,note_on,44,0,960
2,note_on,46,51,0
2,note_on,46,0,480
2,note_on,46,50,0
2,note_on,46,0,480
2,note_on,63,50,0
2,note_on,63,0,160
2,note_on,67,53,0
2,note_on,67,0,160
2,note_on,65,47,0
2,note_on,65,0,160
2,note_on,63,54,0
2,note_on,63,0,160
2,note_on,62,51,0
2,note_on,62,0,160
2,note_on,60,51,0
2,note_on,60,0,160
2,note_on,58,58,0
2,note_on,58,0,160
2,note_on,56,52,0
2,note_on,56,0,160
2,note_on,55,51,0
2,note_on,55,0,160
2,note_on,53,58,0
2,note_on,53,0,160
2,note_on,51,52,0
2,note_on,51,0,160
2,note_on,50,52,0
2,note_on,50,0,160
2,note_on,48,58,0
2,note_on,48,0,160
2,note_on,63,62,0
2,note_on,63,0,160
2,note_on,62,51,0
2,note_on,62,0,160
2,note_on,60,58,0
2,note_on,60,0,160
2,note_on,58,56,0
2,note_on,58,0,160
2,note_on,56,56,0
2,note_on,56,0,160
2,note_on,55,58,0
2,note_on,55,0,160
2,note_on,53,52,0
2,note_on,53,0,160
2,note_on,51,51,0
2,note_on,51,0,160
2,note_on,50,58,0
2,note_on,50,0,160
2,note_on,48,52,0
2,note_on,48,0,160
2,note_on,46,52,0
2,note_on,46,0,160
2,note_on,44,58,0
2,note_on,44,0,960
2,note_on,46,51,0
2,note_on,46,0,480
2,note_on,46,50,0
2,note_on,46,0,480
2,note_on,63,36,0
2,note_on,63,0,160
2,note_on,67,31,0
2,note_on,67,0,160
2,note_on,70,31,0
2,note_on,70,0,160
2,note_on,63,36,0
2,note_on,63,0,160
2,note_on,67,32,0
2,note_on,67,0,160
2,note_on,70,32,0
2,note_on,70,0,160
2,note_on,63,36,0
2,note_on,63,0,160
2,note_on,67,31,0
2,note_on,67,0,160
2,note_on,70,31,0
2,note_on,70,0,160
2,note_on,63,37,0
2,note_on,63,0,160
2,note_on,68,32,0
2,note_on,68,0,160
2,note_on,74,32,0
2,note_on,74,0,160
2,note_on,63,36,0
2,note_on,63,0,160
2,note_on,67,31,0
2,note_on,67,0,160
2,note_on,70,30,0
2,note_on,70,0,160
2,note_on,63,35,0
2,note_on,63,0,160
2,note_on,67,31,0
2,note_on,67,0,160
2,note_on,70,31,0
2,note_on,70,0,160
2,note_on,63,35,0
2,note_on,63,0,160
2,note_on,67,30,0
2,note_on,67,0,160
2,note_on,70,30,0
2,note_on,70,0,160
2,note_on,63,36,0
2,note_on,63,0,160
2,note_on,68,31,0
2,note_on,68,0,160
2,note_on,74,31,0
2,note_on,74,0,160
2,note_on,63,34,0
2,note_on,63,0,160
2,note_on,67,30,0
2,note_on,67,0,160
2,note_on,70,30,0
2,note_on,70,0,160
2,note_on,63,34,0
2,note_on,63,0,160
2,note_on,67,31,0
2,note_on,67,0,160
2,note_on,70,30,0
2,note_on,70,0,160
2,note_on,63,34,0
2,note_on,63,0,160
2,note_on,67,29,0
2,note_on,67,0,160
2,note_on,70,29,0
2,note_on,70,0,160
2,note_on,63,35,0
2,note_on,63,0,160
2,note_on,68,30,0
2,note_on,68,0,160
2,note_on,74,30,0
2,note_on,74,0,160
2,note_on,63,34,0
2,note_on,63,0,160
2,note_on,67,29,0
2,note_on,67,0,160
2,note_on,70,29,0
2,note_on,70,0,160
2,note_on,63,34,0
2,note_on,63,0,160
2,note_on,67,30,0
2,note_on,67,0,160
2,note_on,70,30,0
2,note_on,70,0,160
2,note_on,63,33,0
2,note_on,63,0,160
2,note_on,67,29,0
2,note_on,67,0,160
2,note_on,70,29,0
2,note_on,70,0,160
2,note_on,63,34,0
2,note_on,63,0,160
2,note_on,68,29,0
2,note_on,68,0,160
2,note_on,74,29,0
2,note_on,74,0,160
2,note_on,63,33,0
2,note_on,63,0,160
2,note_on,67,28,0
2,note_on,67,0,160
2,note_on,70,28,0
2,note_on,70,0,160
2,note_on,63,33,0
2,note_on,63,0,160
2,note_on,67,29,0
2,note_on,67,0,160
2,note_on,70,29,0
2,note_on,70,0,160
2,note_on,63,33,0
2,note_on,63,0,160
2,note_on,67,28,0
2,note_on,67,0,160
2,note_on,70,28,0
2,note_on,70,0,160
2,note_on,63,33,0
2,note_on,63,0,160
2,note_on,68,29,0
2,note_on,68,0,160
2,note_on,74,29,0
2,note_on,74,0,160
2,note_on,63,32,0
2,note_on,63,0,160
2,note_on,67,27,0
2,note_on,67,0,160
2,note_on,70,27,0
2,note_on,70,0,160
2,note_on,63,32,0
2,note_on,63,0,160
2,note_on,67,28,0
2,note_on,67,0,160
2,note_on,70,28,0
2,note_on,70,0,160
2,note_on,63,32,0
2,note_on,63,0,160
2,note_on,67,27,0
2,note_on,67,0,160
2,note_on,70,27,0
2,note_on,70,0,160
2,note_on,63,32,0
2,note_on,63,0,160
2,note_on,68,28,0
2,note_on,68,0,160
2,note_on,74,28,0
2,note_on,74,0,160
2,note_on,63,31,0
2,note_on,63,0,160
2,note_on,67,26,0
2,note_on,67,0,160
2,note_on,70,26,0
2,note_on,70,0,160
2,note_on,63,29,0
2,note_on,63,0,160
2,note_on,67,26,0
2,note_on,67,0,160
2,note_on,70,25,0
2,note_on,70,0,160
2,note_on,63,27,0
2,note_on,63,0,160
2,note_on,67,23,0
2,note_on,67,0,160
2,note_on,70,22,0
2,note_on,70,0,160
2,note_on,63,26,0
2,note_on,63,0,160
2,note_on,68,22,0
2,note_on,68,0,160
2,note_on,74,22,0
2,note_on,74,0,160
2,note_on,67,30,0
2,note_on,63,30,0
2,note_on,63,0,480
2,note_on,67,0,0
2,note_on,39,24,960
2,note_on,43,29,0
2,note_on,43,0,480
2,note_on,39,0,0
2,note_on,39,24,0
2,note_on,43,29,0
2,note_on,43,0,480
2,note_on,39,0,0
2,note_on,44,49,1440
2,note_on,56,58,0
2,note_on,56,0,480
2,note_on,44,0,0
2,note_on,43,49,480
2,note_on,55,58,0
2,note_on,55,0,480
2,note_on,43,0,0
2,note_on,44,47,960
2,note_on,44,0,480
2,note_on,56,58,0
2,note_on,56,0,180
2,note_on,58,31,1260
2,note_on,58,0,480
2,note_on,55,39,0
2,note_on,55,0,180
2,note_on,56,47,1260
2,note_on,56,0,480
2,note_on,44,58,0
2,note_on,44,0,180
2,note_on,48,52,300
2,note_on,48,0,480
2,note_on,49,58,0
2,note_on,49,0,960
2,note_on,51,52,480
2,note_on,51,0,480
2,note_on,44,47,360
2,note_on,44,0,120
2,note_on,48,58,0
2,note_on,48,0,360
2,note_on,51,52,0
2,note_on,51,0,120
2,note_on,56,59,0
2,note_on,56,0,360
2,note_on,56,49,600
2,note_on,60,58,0
2,note_on,60,0,480
2,note_on,56,0,0
2,note_on,55,49,480
2,note_on,58,58,0
2,note_on,58,0,480
2,note_on,55,0,0
2,note_on,44,47,960
2,note_on,44,0,480
2,note_on,56,58,0
2,note_on,56,0,480
2,note_on,60,58,0
2,note_on,60,0,480
2,note_on,61,58,480
2,note_on,61,0,120
2,note_on,60,58,840
2,note_on,60,0,120
2,note_on,58,58,840
2,note_on,58,0,120
2,note_on,56,58,840
2,note_on,56,0,120
2,note_on,61,49,840
2,note_on,49,49,0
2,note_on,49,0,480
2,note_on,61,0,0
2,note_on,51,58,0
2,note_on,60,58,0
2,note_on,60,0,480
2,note_on,58,55,0
2,note_on,58,0,480
2,note_on,51,0,0
2,note_on,56,55,0
2,note_on,56,0,160
2,note_on,60,47,0
2,note_on,60,0,160
2,note_on,63,47,0
2,note_on,63,0,160
2,note_on,56,55,0
2,note_on,56,0,160
2,note_on,60,47,0
2,note_on,60,0,160
2,note_on,63,49,0
2,note_on,63,0,160
2,note_on,56,55,0
2,note_on,56,0,160
2,note_on,60,50,0
2,note_on,60,0,160
2,note_on,63,50,0
2,note_on,63,0,160
2,note_on,55,55,0
2,note_on,55,0,160
2,note_on,58,52,0
2,note_on,58,0,160
2,note_on,63,52,0
2,note_on,63,0,160
2,note_on,56,55,0
2,note_on,56,0,160
2,note_on,60,47,0
2,note_on,60,0,160
2,note_on,63,47,0
2,note_on,63,0,160
2,note_on,56,55,0
2,note_on,56,0,160
2,note_on,60,47,0
2,note_on,60,0,160
2,note_on,63,37,0
2,note_on,63,0,160
2,note_on,56,50,0
2,note_on,56,0,160
2,note_on,60,41,0
2,note_on,60,0,160
2,note_on,63,41,0
2,note_on,63,0,160
2,note_on,56,50,0
2,note_on,56,0,160
2,note_on,60,46,0
2,note_on,60,0,160
2,note_on,63,46,0
2,note_on,63,0,160
2,note_on,56,55,0
2,note_on,56,0,160
2,note_on,60,47,0
2,note_on,60,0,160
2,note_on,63,47,0
2,note_on,63,0,160
2,note_on,56,55,0
2,note_on,56,0,160
2,note_on,60,47,0
2,note_on,60,0,160
2,note_on,63,49,0
2,note_on,63,0,160
2,note_on,56,55,0
2,note_on,56,0,160
2,note_on,60,50,0
2,note_on,60,0,160
2,note_on,63,50,0
2,note_on,63,0,160
2,note_on,58,55,0
2,note_on,58,0,160
2,note_on,61,52,0
2,note_on,61,0,160
2,note_on,67,52,0
2,note_on,67,0,160
2,note_on,60,55,0
2,note_on,60,0,160
2,note_on,63,47,0
2,note_on,63,0,160
2,note_on,68,47,0
2,note_on,68,0,160
2,note_on,60,55,0
2,note_on,60,0,160
2,note_on,63,47,0
2,note_on,63,0,160
2,note_on,68,39,0
2,note_on,68,0,160
2,note_on,60,52,0
2,note_on,60,0,160
2,note_on,63,43,0
2,note_on,63,0,160
2,note_on,68,43,0
2,note_on,68,0,160
2,note_on,60,53,0
2,note_on,60,0,160
2,note_on,63,44,0
2,note_on,63,0,160
2,note_on,68,44,0
2,note_on,68,0,160
2,note_on,60,55,0
2,note_on,60,0,160
2,note_on,63,47,0
2,note_on,63,0,160
2,note_on,68,47,0
2,note_on,68,0,160
2,note_on,60,55,0
2,note_on,60,0,160
2,note_on,63,47,0
2,note_on,63,0,160
2,note_on,68,39,0
2,note_on,68,0,160
2,note_on,60,46,0
2,note_on,60,0,160
2,note_on,63,36,0
2,note_on,63,0,160
2,note_on,68,36,0
2,note_on,68,0,160
2,note_on,60,47,0
2,note_on,60,0,160
2,note_on,63,40,0
2,note_on,63,0,160
2,note_on,68,40,0
2,note_on,68,0,160
2,note_on,61,55,0
2,note_on,61,0,160
2,note_on,65,47,0
2,note_on,65,0,160
2,note_on,68,47,0
2,note_on,68,0,160
2,note_on,61,55,0
2,note_on,61,0,160
2,note_on,65,47,0
2,note_on,65,0,160
2,note_on,68,39,0
2,note_on,68,0,160
2,note_on,61,49,0
2,note_on,61,0,160
2,note_on,63,39,0
2,note_on,63,0,160
2,note_on,67,39,0
2,note_on,67,0,160
2,note_on,61,50,0
2,note_on,61,0,160
2,note_on,63,44,0
2,note_on,63,0,160
2,note_on,67,44,0
2,note_on,67,0,160
2,note_on,60,55,0
2,note_on,60,0,160
2,note_on,63,47,0
2,note_on,63,0,160
2,note_on,68,47,0
2,note_on,68,0,160
2,note_on,60,55,0
2,note_on,60,0,160
2,note_on,63,47,0
2,note_on,63,0,160
2,note_on,68,39,0
2,note_on,68,0,160
2,note_on,58,52,0
2,note_on,58,0,160
2,note_on,61,43,0
2,note_on,61,0,160
2,note_on,67,43,0
2,note_on,67,0,160
2,note_on,58,53,0
2,note_on,58,0,160
2,note_on,61,44,0
2,note_on,61,0,160
2,note_on,67,44,0
2,note_on,67,0,160
2,note_on,56,55,0
2,note_on,56,0,480
2,note_on,63,39,1920
2,note_on,67,46,0
2,note_on,67,0,480
2,note_on,63,0,0
2,note_on,51,58,960
2,note_on,51,0,360
2,note_on,55,58,120
2,note_on,55,0,240
2,note_on,50,58,240
2,note_on,50,0,240
2,note_on,50,58,720
2,note_on,50,0,360
2,note_on,58,44,120
2,note_on,58,0,240
2,note_on,51,53,240
2,note_on,51,0,360
2,note_on,58,47,120
2,note_on,58,0,240
2,note_on,53,55,240
2,note_on,53,0,360
2,note_on,62,37,120
2,note_on,62,0,240
2,note_on,55,56,240
2,note_on,55,0,360
2,note_on,63,44,120
2,note_on,63,0,240
2,note_on,56,55,240
2,note_on,56,0,160
2,note_on,60,47,0
2,note_on,60,0,160
2,note_on,63,47,0
2,note_on,63,0,160
2,note_on,56,55,0
2,note_on,56,0,160
2,note_on,60,47,0
2,note_on,60,0,160
2,note_on,63,39,0
2,note_on,63,0,160
2,note_on,56,52,0
2,note_on,56,0,160
2,note_on,60,43,0
2,note_on,60,0,160
2,note_on,63,43,0
2,note_on,63,0,160
2,note_on,55,53,0
2,note_on,55,0,160
2,note_on,58,44,0
2,note_on,58,0,160
2,note_on,61,44,0
2,note_on,61,0,160
2,note_on,56,55,0
2,note_on,56,0,480
2,note_on,55,55,1440
2,note_on,55,0,160
2,note_on,58,47,0
2,note_on,58,0,160
2,note_on,63,47,0
2,note_on,63,0,160
2,note_on,55,55,0
2,note_on,55,0,160
2,note_on,58,47,0
2,note_on,58,0,160
2,note_on,63,39,0
2,note_on,63,0,160
2,note_on,55,52,0
2,note_on,55,0,160
2,note_on,58,43,0
2,note_on,58,0,160
2,note_on,63,43,0
2,note_on,63,0,160
2,note_on,53,53,0
2,note_on,53,0,160
2,note_on,56,44,0
2,note_on,56,0,160
2,note_on,59,44,0
2,note_on,59,0,160
2,note_on,55,55,0
2,note_on,55,0,480
2,note_on,58,55,1440
2,note_on,58,0,160
2,note_on,62,47,0
2,note_on,62,0,160
2,note_on,65,47,0
2,note_on,65,0,160
2,note_on,58,55,0
2,note_on,58,0,160
2,note_on,62,47,0
2,note_on,62,0,160
2,note_on,65,39,0
2,note_on,65,0,160
2,note_on,58,52,0
2,note_on,58,0,160
2,note_on,62,43,0
2,note_on,62,0,160
2,note_on,65,43,0
2,note_on,65,0,160
2,note_on,58,53,0
2,note_on,58,0,160
2,note_on,63,44,0
2,note_on,63,0,160
2,note_on,67,44,0
2,note_on,67,0,160
2,note_on,58,53,0
2,note_on,58,0,160
2,note_on,65,44,0
2,note_on,65,0,160
2,note_on,68,44,0
2,note_on,68,0,160
2,note_on,58,50,0
2,note_on,58,0,160
2,note_on,65,39,0
2,note_on,65,0,160
2,note_on,68,39,0
2,note_on,68,0,160
2,note_on,58,47,0
2,note_on,58,0,160
2,note_on,65,42,0
2,note_on,65,0,160
2,note_on,68,42,0
2,note_on,68,0,160
2,note_on,58,53,0
2,note_on,58,0,160
2,note_on,63,44,0
2,note_on,63,0,160
2,note_on,67,44,0
2,note_on,67,0,160
2,note_on,58,55,0
2,note_on,58,0,160
2,note_on,62,47,0
2,note_on,62,0,160
2,note_on,65,47,0
2,note_on,65,0,160
2,note_on,58,55,0
2,note_on,58,0,160
2,note_on,62,47,0
2,note_on,62,0,160
2,note_on,65,39,0
2,note_on,65,0,160
2,note_on,58,52,0
2,note_on,58,0,160
2,note_on,62,43,0
2,note_on,62,0,160
2,note_on,65,43,0
2,note_on,65,0,160
2,note_on,58,53,0
2,note_on,58,0,160
2,note_on,63,44,0
2,note_on,63,0,160
2,note_on,67,44,0
2,note_on,67,0,160
2,note_on,58,53,0
2,note_on,58,0,160
2,note_on,65,44,0
2,note_on,65,0,160
2,note_on,68,44,0
2,note_on,68,0,160
2,note_on,58,50,0
2,note_on,58,0,160
2,note_on,65,39,0
2,note_on,65,0,160
2,note_on,68,39,0
2,note_on,68,0,160
2,note_on,58,47,0
2,note_on,58,0,160
2,note_on,65,42,0
2,note_on,65,0,160
2,note_on,68,42,0
2,note_on,68,0,160
2,note_on,58,53,0
2,note_on,58,0,160
2,note_on,63,44,0
2,note_on,63,0,160
2,note_on,67,44,0
2,note_on,67,0,160
2,note_on,58,55,0
2,note_on,58,0,160
2,note_on,62,47,0
2,note_on,62,0,160
2,note_on,65,47,0
2,note_on,65,0,160
2,note_on,58,55,0
2,note_on,58,0,160
2,note_on,62,47,0
2,note_on,62,0,160
2,note_on,65,39,0
2,note_on,65,0,160
2,note_on,59,61,0
2,note_on,59,0,160
2,note_on,62,43,0
2,note_on,62,0,160
2,note_on,65,43,0
2,note_on,65,0,160
2,note_on,60,53,0
2,note_on,60,0,160
2,note_on,62,44,0
2,note_on,62,0,160
2,note_on,63,44,0
2,note_on,63,0,160
2,note_on,56,55,0
2,note_on,56,0,480
2,note_on,58,40,480
2,note_on,67,62,0
2,note_on,67,0,480
2,note_on,68,47,0
2,note_on,68,0,480
2,note_on,58,0,0
2,note_on,60,30,0
2,note_on,68,55,0
2,note_on,68,0,960
2,note_on,67,37,0
2,note_on,67,0,480
2,note_on,60,0,0
2,note_on,51,56,960
2,note_on,48,47,0
2,note_on,48,0,240
2,note_on,51,0,0
2,note_on,51,58,240
2,note_on,48,49,0
2,note_on,48,0,240
2,note_on,51,0,0
2,note_on,51,58,240
2,note_on,48,49,0
2,note_on,48,0,240
2,note_on,51,0,0
2,note_on,46,47,720
2,note_on,53,56,0
2,note_on,50,47,0
2,note_on,50,0,240
2,note_on,53,0,0
2,note_on,46,0,0
2,note_on,46,49,240
2,note_on,53,58,0
2,note_on,50,49,0
2,note_on,50,0,240
2,note_on,53,0,0
2,note_on,46,0,0
2,note_on,46,49,240
2,note_on,53,58,0
2,note_on,50,49,0
2,note_on,50,0,240
2,note_on,53,0,0
2,note_on,46,0,0
2,note_on,51,56,240
2,note_on,51,0,480
2,note_on,46,47,480
2,note_on,53,56,0
2,note_on,53,0,480
2,note_on,46,0,0
2,note_on,51,52,480
2,note_on,55,56,0
2,note_on,55,0,480
2,note_on,51,0,0
2,note_on,46,47,480
2,note_on,53,56,0
2,note_on,53,0,480
2,note_on,46,0,0
2,note_on,51,57,480
2,note_on,55,61,0
2,note_on,55,0,480
2,note_on,51,0,0
2,note_on,56,49,1920
2,note_on,44,40,0
2,note_on,44,0,480
2,note_on,56,0,0
2,note_on,46,43,0
2,note_on,55,52,0
2,note_on,55,0,480
2,note_on,46,0,0
2,note_on,53,49,0
2,note_on,46,40,0
2,note_on,46,0,480
2,note_on,53,0,0
2,note_on,63,58,0
2,note_on,63,0,160
2,note_on,67,62,0
2,note_on,67,0,160
2,note_on,65,51,0
2,note_on,65,0,160
2,note_on,63,58,0
2,note_on,63,0,160
2,note_on,62,56,0
2,note_on,62,0,160
2,note_on,60,56,0
2,note_on,60,0,160
2,note_on,58,58,0
2,note_on,58,0,160
2,note_on,56,52,0
2,note_on,56,0,160
2,note_on,55,51,0
2,note_on,55,0,160
2,note_on,53,58,0
2,note_on,53,0,160
2,note_on,51,52,0
2,note_on,51,0,160
2,note_on,50,52,0
2,note_on,50,0,160
2,note_on,48,58,0
2,note_on,48,0,160
2,note_on,63,62,0
2,note_on,63,0,160
2,note_on,62,51,0
2,note_on,62,0,160
2,note_on,60,58,0
2,note_on,60,0,160
2,note_on,58,56,0
2,note_on,58,0,160
2,note_on,56,56,0
2,note_on,56,0,160
2,note_on,55,58,0
2,note_on,55,0,160
2,note_on,53,52,0
2,note_on,53,0,160
2,note_on,51,51,0
2,note_on,51,0,160
2,note_on,50,58,0
2,note_on,50,0,160
2,note_on,48,52,0
2,note_on,48,0,160
2,note_on,46,52,0
2,note_on,46,0,160
2,note_on,44,58,0
2,note_on,44,0,960
2,note_on,46,51,0
2,note_on,46,0,480
2,note_on,46,50,0
2,note_on,46,0,480
2,note_on,63,50,0
2,note_on,63,0,160
2,note_on,67,53,0
2,note_on,67,0,160
2,note_on,65,47,0
2,note_on,65,0,160
2,note_on,63,54,0
2,note_on,63,0,160
2,note_on,62,51,0
2,note_on,62,0,160
2,note_on,60,51,0
2,note_on,60,0,160
2,note_on,58,58,0
2,note_on,58,0,160
2,note_on,56,52,0
2,note_on,56,0,160
2,note_on,55,51,0
2,note_on,55,0,160
2,note_on,53,58,0
2,note_on,53,0,160
2,note_on,51,52,0
2,note_on,51,0,160
2,note_on,50,52,0
2,note_on,50,0,160
2,note_on,48,58,0
2,note_on,48,0,160
2,note_on,63,62,0
2,note_on,63,0,160
2,note_on,62,51,0
2,note_on,62,0,160
2,note_on,60,58,0
2,note_on,60,0,160
2,note_on,58,56,0
2,note_on,58,0,160
2,note_on,56,56,0
2,note_on,56,0,160
2,note_on,55,58,0
2,note_on,55,0,160
2,note_on,53,52,0
2,note_on,53,0,160
2,note_on,51,51,0
2,note_on,51,0,160
2,note_on,50,58,0
2,note_on,50,0,160
2,note_on,48,52,0
2,note_on,48,0,160
2,note_on,46,52,0
2,note_on,46,0,160
2,note_on,44,58,0
2,note_on,44,0,960
2,note_on,46,51,0
2,note_on,46,0,480
2,note_on,46,50,0
2,note_on,46,0,480
2,note_on,63,36,0
2,note_on,63,0,160
2,note_on,67,31,0
2,note_on,67,0,160
2,note_on,70,31,0
2,note_on,70,0,160
2,note_on,63,36,0
2,note_on,63,0,160
2,note_on,67,32,0
2,note_on,67,0,160
2,note_on,70,32,0
2,note_on,70,0,160
2,note_on,63,36,0
2,note_on,63,0,160
2,note_on,67,31,0
2,note_on,67,0,160
2,note_on,70,31,0
2,note_on,70,0,160
2,note_on,63,37,0
2,note_on,63,0,160
2,note_on,68,32,0
2,note_on,68,0,160
2,note_on,74,32,0
2,note_on,74,0,160
2,note_on,63,36,0
2,note_on,63,0,160
2,note_on,67,31,0
2,note_on,67,0,160
2,note_on,70,30,0
2,note_on,70,0,160
2,note_on,63,35,0
2,note_on,63,0,160
2,note_on,67,31,0
2,note_on,67,0,160
2,note_on,70,31,0
2,note_on,70,0,160
2,note_on,63,35,0
2,note_on,63,0,160
2,note_on,67,30,0
2,note_on,67,0,160
2,note_on,70,30,0
2,note_on,70,0,160
2,note_on,63,36,0
2,note_on,63,0,160
2,note_on,68,31,0
2,note_on,68,0,160
2,note_on,74,31,0
2,note_on,74,0,160
2,note_on,63,34,0
2,note_on,63,0,160
2,note_on,67,30,0
2,note_on,67,0,160
2,note_on,70,30,0
2,note_on,70,0,160
2,note_on,63,34,0
2,note_on,63,0,160
2,note_on,67,31,0
2,note_on,67,0,160
2,note_on,70,30,0
2,note_on,70,0,160
2,note_on,63,34,0
2,note_on,63,0,160
2,note_on,67,29,0
2,note_on,67,0,160
2,note_on,70,29,0
2,note_on,70,0,160
2,note_on,63,35,0
2,note_on,63,0,160
2,note_on,68,30,0
2,note_on,68,0,160
2,note_on,74,30,0
2,note_on,74,0,160
2,note_on,63,34,0
2,note_on,63,0,160
2,note_on,67,29,0
2,note_on,67,0,160
2,note_on,70,29,0
2,note_on,70,0,160
2,note_on,63,34,0
2,note_on,63,0,160
2,note_on,67,30,0
2,note_on,67,0,160
2,note_on,70,30,0
2,note_on,70,0,160
2,note_on,63,33,0
2,note_on,63,0,160
2,note_on,67,29,0
2,note_on,67,0,160
2,note_on,70,29,0
2,note_on,70,0,160
2,note_on,63,34,0
2,note_on,63,0,160
2,note_on,68,29,0
2,note_on,68,0,160
2,note_on,74,29,0
2,note_on,74,0,160
2,note_on,63,33,0
2,note_on,63,0,160
2,note_on,67,28,0
2,note_on,67,0,160
2,note_on,70,28,0
2,note_on,70,0,160
2,note_on,63,33,0
2,note_on,63,0,160
2,note_on,67,29,0
2,note_on,67,0,160
2,note_on,70,29,0
2,note_on,70,0,160
2,note_on,63,33,0
2,note_on,63,0,160
2,note_on,67,28,0
2,note_on,67,0,160
2,note_on,70,28,0
2,note_on,70,0,160
2,note_on,63,33,0
2,note_on,63,0,160
2,note_on,68,29,0
2,note_on,68,0,160
2,note_on,74,29,0
2,note_on,74,0,160
2,note_on,63,32,0
2,note_on,63,0,160
2,note_on,67,27,0
2,note_on,67,0,160
2,note_on,70,27,0
2,note_on,70,0,160
2,note_on,63,32,0
2,note_on,63,0,160
2,note_on,67,28,0
2,note_on,67,0,160
2,note_on,70,28,0
2,note_on,70,0,160
2,note_on,63,32,0
2,note_on,63,0,160
2,note_on,67,27,0
2,note_on,67,0,160
2,note_on,70,27,0
2,note_on,70,0,160
2,note_on,63,32,0
2,note_on,63,0,160
2,note_on,68,28,0
2,note_on,68,0,160
2,note_on,74,28,0
2,note_on,74,0,160
2,note_on,63,31,0
2,note_on,63,0,160
2,note_on,67,26,0
2,note_on,67,0,160
2,note_on,70,26,0
2,note_on,70,0,160
2,note_on,63,29,0
2,note_on,63,0,160
2,note_on,67,26,0
2,note_on,67,0,160
2,note_on,70,25,0
2,note_on,70,0,160
2,note_on,63,27,0
2,note_on,63,0,160
2,note_on,67,23,0
2,note_on,67,0,160
2,note_on,70,22,0
2,note_on,70,0,160
2,note_on,63,26,0
2,note_on,63,0,160
2,note_on,68,22,0
2,note_on,68,0,160
2,note_on,74,22,0
2,note_on,74,0,160
2,note_on,67,30,0
2,note_on,63,30,0
2,note_on,63,0,480
2,note_on,67,0,0
2,note_on,39,24,960
2,note_on,43,29,0
2,note_on,43,0,480
2,note_on,39,0,0
2,note_on,39,24,0
2,note_on,43,29,0
2,note_on,43,0,480
2,note_on,39,0,0
2,note_on,39,49,1440
2,note_on,51,58,0
2,note_on,51,0,480
2,note_on,39,0,0
2,note_on,38,49,480
2,note_on,50,58,0
2,note_on,50,0,480
2,note_on,38,0,0
2,note_on,39,47,960
2,note_on,39,0,480
2,note_on,51,58,0
2,note_on,51,0,180
2,note_on,53,31,1260
2,note_on,53,0,480
2,note_on,50,39,0
2,note_on,50,0,180
2,note_on,51,47,1260
2,note_on,51,0,480
2,note_on,39,58,0
2,note_on,39,0,180
2,note_on,43,52,300
2,note_on,43,0,480
2,note_on,44,58,0
2,note_on,44,0,480
2,note_on,46,52,960
2,note_on,46,0,480
2,note_on,51,47,360
2,note_on,51,0,120
2,note_on,55,58,0
2,note_on,55,0,360
2,note_on,58,52,0
2,note_on,58,0,120
2,note_on,63,59,0
2,note_on,63,0,480
2,note_on,68,47,2760
2,note_on,68,0,120
2,note_on,67,58,0
2,note_on,67,0,360
2,note_on,65,52,0
2,note_on,65,0,120
2,note_on,64,59,0
2,note_on,64,0,360
2,note_on,67,50,0
2,note_on,67,0,120
2,note_on,60,57,0
2,note_on,60,0,360
2,note_on,64,52,0
2,note_on,64,0,120
2,note_on,65,46,0
2,note_on,65,0,160
2,note_on,68,39,0
2,note_on,68,0,160
2,note_on,72,39,0
2,note_on,72,0,160
2,note_on,65,46,0
2,note_on,65,0,160
2,note_on,68,39,0
2,note_on,68,0,160
2,note_on,72,41,0
2,note_on,72,0,160
2,note_on,65,46,0
2,note_on,65,0,160
2,note_on,68,42,0
2,note_on,68,0,160
2,note_on,72,42,0
2,note_on,72,0,160
2,note_on,64,46,0
2,note_on,64,0,160
2,note_on,67,44,0
2,note_on,67,0,160
2,note_on,72,44,0
2,note_on,72,0,160
2,note_on,65,46,0
2,note_on,65,0,160
2,note_on,68,39,0
2,note_on,68,0,160
2,note_on,72,39,0
2,note_on,72,0,160
2,note_on,65,46,0
2,note_on,65,0,160
2,note_on,68,39,0
2,note_on,68,0,160
2,note_on,72,31,0
2,note_on,72,0,160
2,note_on,65,42,0
2,note_on,65,0,160
2,note_on,68,34,0
2,note_on,68,0,160
2,note_on,72,34,0
2,note_on,72,0,160
2,note_on,65,42,0
2,note_on,65,0,160
2,note_on,68,39,0
2,note_on,68,0,160
2,note_on,72,39,0
2,note_on,72,0,160
2,note_on,63,46,0
2,note_on,63,0,160
2,note_on,66,39,0
2,note_on,66,0,160
2,note_on,72,39,0
2,note_on,72,0,160
2,note_on,63,46,0
2,note_on,63,0,160
2,note_on,66,39,0
2,note_on,66,0,160
2,note_on,72,35,0
2,note_on,72,0,160
2,note_on,63,42,0
2,note_on,63,0,160
2,note_on,66,38,0
2,note_on,66,0,160
2,note_on,72,38,0
2,note_on,72,0,160
2,note_on,63,42,0
2,note_on,63,0,160
2,note_on,66,39,0
2,note_on,66,0,160
2,note_on,72,39,0
2,note_on,72,0,160
2,note_on,61,46,0
2,note_on,61,0,160
2,note_on,65,39,0
2,note_on,65,0,160
2,note_on,68,39,0
2,note_on,68,0,160
2,note_on,61,46,0
2,note_on,61,0,160
2,note_on,65,39,0
2,note_on,65,0,160
2,note_on,68,31,0
2,note_on,68,0,160
2,note_on,61,42,0
2,note_on,61,0,160
2,note_on,65,34,0
2,note_on,65,0,160
2,note_on,68,34,0
2,note_on,68,0,160
2,note_on,61,42,0
2,note_on,61,0,160
2,note_on,65,39,0
2,note_on,65,0,160
2,note_on,68,39,0
2,note_on,68,0,160
2,note_on,62,46,0
2,note_on,62,0,160
2,note_on,65,39,0
2,note_on,65,0,160
2,note_on,70,39,0
2,note_on,70,0,160
2,note_on,62,46,0
2,note_on,62,0,160
2,note_on,65,39,0
2,note_on,65,0,160
2,note_on,70,35,0
2,note_on,70,0,160
2,note_on,62,42,0
2,note_on,62,0,160
2,note_on,65,38,0
2,note_on,65,0,160
2,note_on,70,38,0
2,note_on,70,0,160
2,note_on,62,42,0
2,note_on,62,0,160
2,note_on,65,39,0
2,note_on,65,0,160
2,note_on,70,39,0
2,note_on,70,0,160
2,note_on,63,46,0
2,note_on,63,0,160
2,note_on,67,39,0
2,note_on,67,0,160
2,note_on,70,39,0
2,note_on,70,0,160
2,note_on,63,46,0
2,note_on,63,0,160
2,note_on,67,39,0
2,note_on,67,0,160
2,note_on,70,31,0
2,note_on,70,0,160
2,note_on,63,42,0
2,note_on,63,0,160
2,note_on,67,34,0
2,note_on,67,0,160
2,note_on,70,34,0
2,note_on,70,0,160
2,note_on,63,42,0
2,note_on,63,0,160
2,note_on,67,39,0
2,note_on,67,0,160
2,note_on,70,39,0
2,note_on,70,0,160
2,note_on,65,39,0
2,note_on,65,0,160
2,note_on,68,33,0
2,note_on,68,0,160
2,note_on,71,33,0
2,note_on,71,0,160
2,note_on,65,39,0
2,note_on,65,0,160
2,note_on,68,33,0
2,note_on,68,0,160
2,note_on,71,30,0
2,note_on,71,0,160
2,note_on,65,37,0
2,note_on,65,0,160
2,note_on,68,33,0
2,note_on,68,0,160
2,note_on,71,34,0
2,note_on,71,0,160
2,note_on,65,38,0
2,note_on,65,0,160
2,note_on,68,36,0
2,note_on,68,0,160
2,note_on,71,36,0
2,note_on,71,0,160
2,note_on,63,43,0
2,note_on,63,0,160
2,note_on,68,37,0
2,note_on,68,0,160
2,note_on,71,37,0
2,note_on,71,0,160
2,note_on,63,44,0
2,note_on,63,0,160
2,note_on,68,38,0
2,note_on,68,0,160
2,note_on,71,34,0
2,note_on,71,0,160
2,note_on,63,42,0
2,note_on,63,0,160
2,note_on,68,38,0
2,note_on,68,0,160
2,note_on,71,39,0
2,note_on,71,0,160
2,note_on,63,42,0
2,note_on,63,0,160
2,note_on,68,41,0
2,note_on,68,0,160
2,note_on,71,41,0
2,note_on,71,0,160
2,note_on,61,49,0
2,note_on,61,0,160
2,note_on,68,42,0
2,note_on,68,0,160
2,note_on,71,42,0
2,note_on,71,0,160
2,note_on,61,50,0
2,note_on,61,0,160
2,note_on,68,43,0
2,note_on,68,0,160
2,note_on,71,39,0
2,note_on,71,0,160
2,note_on,61,48,0
2,note_on,61,0,160
2,note_on,68,43,0
2,note_on,68,0,160
2,note_on,71,44,0
2,note_on,71,0,160
2,note_on,61,48,0
2,note_on,61,0,160
2,note_on,68,45,0
2,note_on,68,0,160
2,note_on,71,46,0
2,note_on,71,0,160
2,note_on,61,55,0
2,note_on,61,0,160
2,note_on,66,47,0
2,note_on,70,47,159
2,note_on,66,0,1
2,note_on,70,0,159
2,note_on,61,57,1
2,note_on,61,0,160
2,note_on,66,48,0
2,note_on,70,44,159
2,note_on,66,0,1
2,note_on,70,0,159
2,note_on,61,53,1
2,note_on,61,0,160
2,note_on,66,48,0
2,note_on,70,48,159
2,note_on,66,0,1
2,note_on,70,0,159
2,note_on,61,54,1
2,note_on,61,0,160
2,note_on,66,51,0
2,note_on,70,51,159
2,note_on,66,0,1
2,note_on,70,0,159
2,note_on,61,62,1
2,note_on,61,0,160
2,note_on,65,52,0
2,note_on,65,0,160
2,note_on,68,47,0
2,note_on,68,0,160
2,note_on,61,57,0
2,note_on,61,0,160
2,note_on,65,47,0
2,note_on,65,0,160
2,note_on,68,41,0
2,note_on,68,0,160
2,note_on,61,46,0
2,note_on,61,0,160
2,note_on,65,41,0
2,note_on,65,0,160
2,note_on,68,41,0
2,note_on,68,0,160
2,note_on,61,42,0
2,note_on,61,0,160
2,note_on,65,39,0
2,note_on,65,0,160
2,note_on,68,39,0
2,note_on,68,0,160
2,note_on,62,46,0
2,note_on,62,0,160
2,note_on,65,39,0
2,note_on,65,0,160
2,note_on,70,39,0
2,note_on,70,0,160
2,note_on,62,46,0
2,note_on,62,0,160
2,note_on,65,39,0
2,note_on,65,0,160
2,note_on,70,35,0
2,note_on,70,0,160
2,note_on,62,42,0
2,note_on,62,0,160
2,note_on,65,38,0
2,note_on,65,0,160
2,note_on,70,38,0
2,note_on,70,0,160
2,note_on,62,42,0
2,note_on,62,0,160
2,note_on,65,39,0
2,note_on,65,0,160
2,note_on,70,39,0
2,note_on,70,0,160
2,note_on,63,46,0
2,note_on,63,0,160
2,note_on,70,39,0
2,note_on,70,0,160
2,note_on,73,39,0
2,note_on,73,0,160
2,note_on,63,46,0
2,note_on,63,0,160
2,note_on,70,39,0
2,note_on,70,0,160
2,note_on,73,31,0
2,note_on,73,0,160
2,note_on,63,42,0
2,note_on,63,0,160
2,note_on,70,34,0
2,note_on,70,0,160
2,note_on,73,34,0
2,note_on,73,0,160
2,note_on,63,42,0
2,note_on,63,0,160
2,note_on,67,39,0
2,note_on,67,0,160
2,note_on,70,39,0
2,note_on,70,0,160
2,note_on,64,50,0
2,note_on,64,0,160
2,note_on,67,42,0
2,note_on,67,0,160
2,note_on,72,42,0
2,note_on,72,0,160
2,note_on,64,50,0
2,note_on,64,0,160
2,note_on,67,42,0
2,note_on,67,0,160
2,note_on,72,38,0
2,note_on,72,0,160
2,note_on,64,46,0
2,note_on,64,0,160
2,note_on,67,41,0
2,note_on,67,0,160
2,note_on,72,41,0
2,note_on,72,0,160
2,note_on,64,46,0
2,note_on,64,0,160
2,note_on,67,42,0
2,note_on,67,0,160
2,note_on,72,42,0
2,note_on,72,0,160
2,note_on,65,50,0
2,note_on,65,0,480
2,note_on,45,46,3360
2,note_on,45,0,160
2,note_on,48,39,0
2,note_on,48,0,160
2,note_on,51,39,0
2,note_on,51,0,160
2,note_on,45,46,0
2,note_on,45,0,160
2,note_on,48,39,0
2,note_on,48,0,160
2,note_on,51,41,0
2,note_on,51,0,160
2,note_on,45,46,0
2,note_on,45,0,160
2,note_on,48,42,0
2,note_on,48,0,160
2,note_on,51,42,0
2,note_on,51,0,160
2,note_on,45,46,0
2,note_on,45,0,160
2,note_on,48,44,0
2,note_on,48,0,160
2,note_on,53,44,0
2,note_on,53,0,160
2,note_on,46,46,0
2,note_on,46,0,160
2,note_on,49,39,6
2,note_on,53,39,149
2,note_on,49,0,11
2,note_on,53,0,149
2,note_on,46,46,5
2,note_on,46,0,160
2,note_on,49,39,0
2,note_on,49,0,160
2,note_on,53,41,0
2,note_on,46,46,155
2,note_on,53,0,5
2,note_on,46,0,155
2,note_on,49,42,0
2,note_on,49,0,160
2,note_on,53,42,5
2,note_on,53,0,160
2,note_on,46,46,0
2,note_on,46,0,160
2,note_on,49,44,0
2,note_on,49,0,160
2,note_on,53,44,0
2,note_on,53,0,160
2,note_on,47,46,0
2,note_on,47,0,160
2,note_on,50,39,0
2,note_on,50,0,160
2,note_on,53,39,0
2,note_on,53,0,160
2,note_on,47,46,0
2,note_on,47,0,160
2,note_on,50,39,0
2,note_on,50,0,160
2,note_on,53,41,0
2,note_on,53,0,160
2,note_on,47,46,0
2,note_on,47,0,160
2,note_on,50,42,0
2,note_on,50,0,160
2,note_on,53,42,0
2,note_on,53,0,160
2,note_on,47,46,0
2,note_on,47,0,160
2,note_on,50,44,0
2,note_on,50,0,160
2,note_on,55,44,0
2,note_on,55,0,160
2,note_on,48,56,0
2,note_on,48,0,480
2,note_on,48,47,480
2,note_on,52,56,0
2,note_on,52,0,480
2,note_on,48,0,0
2,note_on,48,47,480
2,note_on,52,56,0
2,note_on,52,0,480
2,note_on,48,0,0
2,note_on,48,48,480
2,note_on,52,58,0
2,note_on,52,0,480
2,note_on,48,0,0
2,note_on,53,50,480
2,note_on,56,59,0
2,note_on,56,0,480
2,note_on,53,0,0
2,note_on,48,52,480
2,note_on,55,62,0
2,note_on,55,0,480
2,note_on,48,0,0
2,note_on,53,53,480
2,note_on,56,63,0
2,note_on,56,0,480
2,note_on,53,0,0
2,note_on,46,54,480
2,note_on,58,65,0
2,note_on,58,0,480
2,note_on,46,0,0
2,note_on,60,66,480
2,note_on,60,0,480
2,note_on,48,56,480
2,note_on,48,0,480
2,note_on,57,40,480
2,note_on,57,0,160
2,note_on,60,32,0
2,note_on,60,0,160
2,note_on,66,32,0
2,note_on,66,0,160
2,note_on,57,39,0
2,note_on,57,0,160
2,note_on,60,33,0
2,note_on,60,0,160
2,note_on,66,33,0
2,note_on,66,0,160
2,note_on,57,38,0
2,note_on,57,0,160
2,note_on,60,33,0
2,note_on,60,0,160
2,note_on,66,33,0
2,note_on,66,0,160
2,note_on,57,40,0
2,note_on,57,0,160
2,note_on,60,32,0
2,note_on,60,0,160
2,note_on,66,32,0
2,note_on,66,0,160
2,note_on,58,38,0
2,note_on,58,0,160
2,note_on,65,33,0
2,note_on,65,0,160
2,note_on,68,33,0
2,note_on,68,0,160
2,note_on,58,38,0
2,note_on,58,0,160
2,note_on,65,33,0
2,note_on,65,0,160
2,note_on,68,33,0
2,note_on,68,0,160
2,note_on,58,38,0
2,note_on,58,0,160
2,note_on,65,32,0
2,note_on,65,0,160
2,note_on,68,32,0
2,note_on,68,0,160
2,note_on,58,40,0
2,note_on,58,0,160
2,note_on,65,34,0
2,note_on,65,0,160
2,note_on,68,34,0
2,note_on,68,0,160
2,note_on,55,47,0
2,note_on,55,0,160
2,note_on,58,40,0
2,note_on,58,0,160
2,note_on,63,40,0
2,note_on,63,0,160
2,note_on,55,48,0
2,note_on,55,0,160
2,note_on,58,40,0
2,note_on,58,0,160
2,note_on,63,37,0
2,note_on,63,0,160
2,note_on,55,44,0
2,note_on,55,0,160
2,note_on,58,40,0
2,note_on,58,0,160
2,note_on,63,40,0
2,note_on,63,0,160
2,note_on,55,45,0
2,note_on,55,0,160
2,note_on,58,42,0
2,note_on,58,0,160
2,note_on,63,42,0
2,note_on,63,0,160
2,note_on,56,47,0
2,note_on,56,0,160
2,note_on,60,40,0
2,note_on,60,0,160
2,note_on,63,40,0
2,note_on,63,0,160
2,note_on,56,48,0
2,note_on,56,0,160
2,note_on,60,40,0
2,note_on,60,0,160
2,note_on,63,37,0
2,note_on,63,0,160
2,note_on,48,44,0
2,note_on,48,0,160
2,note_on,51,40,0
2,note_on,51,0,160
2,note_on,56,40,0
2,note_on,56,0,160
2,note_on,48,45,0
2,note_on,48,0,160
2,note_on,51,42,0
2,note_on,51,0,160
2,note_on,56,42,0
2,note_on,56,0,160
2,note_on,49,47,0
2,note_on,49,0,160
2,note_on,53,40,0
2,note_on,53,0,160
2,note_on,56,40,0
2,note_on,56,0,160
2,note_on,49,48,0
2,note_on,49,0,160
2,note_on,53,40,0
2,note_on,53,0,160
2,note_on,56,37,0
2,note_on,56,0,160
2,note_on,50,44,0
2,note_on,50,0,160
2,note_on,53,40,0
2,note_on,53,0,160
2,note_on,58,40,0
2,note_on,58,0,160
2,note_on,50,45,0
2,note_on,50,0,160
2,note_on,53,42,0
2,note_on,53,0,160
2,note_on,58,42,0
2,note_on,58,0,160
2,note_on,51,55,0
2,note_on,51,0,960
2,note_on,53,47,960
2,note_on,56,55,0
2,note_on,56,0,960
2,note_on,53,0,0
2,note_on,53,24,6240
2,note_on,56,24,0
2,note_on,58,29,0
2,note_on,58,0,480
2,note_on,56,0,0
2,note_on,53,0,0
2,note_on,39,36,4320
2,note_on,39,0,480
2,note_on,44,49,960
2,note_on,56,58,0
2,note_on,56,0,480
2,note_on,44,0,0
2,note_on,43,49,480
2,note_on,55,58,0
2,note_on,55,0,480
2,note_on,43,0,0
2,note_on,44,47,960
2,note_on,44,0,480
2,note_on,56,58,0
2,note_on,56,0,180
2,note_on,58,31,1260
2,note_on,58,0,480
2,note_on,55,39,0
2,note_on,55,0,180
2,note_on,56,47,1260
2,note_on,56,0,480
2,note_on,44,58,0
2,note_on,44,0,180
2,note_on,48,52,300
2,note_on,48,0,480
2,note_on,49,58,0
2,note_on,49,0,960
2,note_on,51,52,480
2,note_on,51,0,480
2,note_on,44,47,360
2,note_on,44,0,120
2,note_on,48,58,0
2,note_on,48,0,360
2,note_on,51,52,0
2,note_on,51,0,120
2,note_on,56,59,0
2,note_on,56,0,360
2,note_on,56,49,600
2,note_on,60,58,0
2,note_on,60,0,480
2,note_on,56,0,0
2,note_on,55,49,480
2,note_on,58,58,0
2,note_on,58,0,480
2,note_on,55,0,0
2,note_on,44,47,960
2,note_on,44,0,480
2,note_on,56,58,0
2,note_on,56,0,480
2,note_on,60,58,0
2,note_on,60,0,480
2,note_on,61,58,480
2,note_on,61,0,120
2,note_on,60,58,840
2,note_on,60,0,120
2,note_on,58,58,840
2,note_on,58,0,120
2,note_on,56,58,840
2,note_on,56,0,120
2,note_on,61,49,840
2,note_on,49,49,0
2,note_on,49,0,480
2,note_on,61,0,0
2,note_on,51,58,0
2,note_on,60,58,0
2,note_on,60,0,480
2,note_on,58,55,0
2,note_on,58,0,480
2,note_on,51,0,0
2,note_on,56,55,0
2,note_on,56,0,160
2,note_on,60,47,0
2,note_on,60,0,160
2,note_on,63,47,0
2,note_on,63,0,160
2,note_on,56,55,0
2,note_on,56,0,160
2,note_on,60,47,0
2,note_on,60,0,160
2,note_on,63,49,0
2,note_on,63,0,160
2,note_on,56,55,0
2,note_on,56,0,160
2,note_on,60,50,0
2,note_on,60,0,160
2,note_on,63,50,0
2,note_on,63,0,160
2,note_on,55,55,0
2,note_on,55,0,160
2,note_on,58,52,0
2,note_on,58,0,160
2,note_on,63,52,0
2,note_on,63,0,160
2,note_on,56,55,0
2,note_on,56,0,160
2,note_on,60,47,0
2,note_on,60,0,160
2,note_on,63,47,0
2,note_on,63,0,160
2,note_on,56,55,0
2,note_on,56,0,160
2,note_on,60,47,0
2,note_on,60,0,160
2,note_on,63,37,0
2,note_on,63,0,160
2,note_on,56,50,0
2,note_on,56,0,160
2,note_on,60,41,0
2,note_on,60,0,160
2,note_on,63,41,0
2,note_on,63,0,160
2,note_on,56,50,0
2,note_on,56,0,160
2,note_on,60,46,0
2,note_on,60,0,160
2,note_on,63,46,0
2,note_on,63,0,160
2,note_on,56,55,0
2,note_on,56,0,160
2,note_on,60,47,0
2,note_on,60,0,160
2,note_on,63,47,0
2,note_on,63,0,160
2,note_on,56,55,0
2,note_on,56,0,160
2,note_on,60,47,0
2,note_on,60,0,160
2,note_on,63,49,0
2,note_on,63,0,160
2,note_on,56,55,0
2,note_on,56,0,160
2,note_on,60,50,0
2,note_on,60,0,160
2,note_on,63,50,0
2,note_on,63,0,160
2,note_on,58,55,0
2,note_on,58,0,160
2,note_on,61,52,0
2,note_on,61,0,160
2,note_on,67,52,0
2,note_on,67,0,160
2,note_on,60,55,0
2,note_on,60,0,160
2,note_on,63,47,0
2,note_on,63,0,160
2,note_on,68,47,0
2,note_on,68,0,160
2,note_on,60,55,0
2,note_on,60,0,160
2,note_on,63,47,0
2,note_on,63,0,160
2,note_on,68,39,0
2,note_on,68,0,160
2,note_on,60,52,0
2,note_on,60,0,160
2,note_on,63,43,0
2,note_on,63,0,160
2,note_on,68,43,0
2,note_on,68,0,160
2,note_on,60,53,0
2,note_on,60,0,160
2,note_on,63,44,0
2,note_on,63,0,160
2,note_on,68,44,0
2,note_on,68,0,160
2,note_on,60,55,0
2,note_on,60,0,160
2,note_on,63,47,0
2,note_on,63,0,160
2,note_on,68,47,0
2,note_on,68,0,160
2,note_on,60,55,0
2,note_on,60,0,160
2,note_on,63,47,0
2,note_on,63,0,160
2,note_on,68,39,0
2,note_on,68,0,160
2,note_on,60,46,0
2,note_on,60,0,160
2,note_on,63,36,0
2,note_on,63,0,160
2,note_on,68,36,0
2,note_on,68,0,160
2,note_on,60,47,0
2,note_on,60,0,160
2,note_on,63,40,0
2,note_on,63,0,160
2,note_on,68,40,0
2,note_on,68,0,160
2,note_on,61,55,0
2,note_on,61,0,160
2,note_on,65,47,0
2,note_on,65,0,160
2,note_on,68,47,0
2,note_on,68,0,160
2,note_on,61,55,0
2,note_on,61,0,160
2,note_on,65,47,0
2,note_on,65,0,160
2,note_on,68,39,0
2,note_on,68,0,160
2,note_on,61,49,0
2,note_on,61,0,160
2,note_on,63,39,0
2,note_on,63,0,160
2,note_on,67,39,0
2,note_on,67,0,160
2,note_on,61,50,0
2,note_on,61,0,160
2,note_on,63,44,0
2,note_on,63,0,160
2,note_on,67,44,0
2,note_on,67,0,160
2,note_on,60,55,0
2,note_on,60,0,160
2,note_on,63,47,0
2,note_on,63,0,160
2,note_on,68,47,0
2,note_on,68,0,160
2,note_on,60,55,0
2,note_on,60,0,160
2,note_on,63,47,0
2,note_on,63,0,160
2,note_on,68,39,0
2,note_on,68,0,160
2,note_on,58,52,0
2,note_on,58,0,160
2,note_on,61,43,0
2,note_on,61,0,160
2,note_on,67,43,0
2,note_on,67,0,160
2,note_on,58,53,0
2,note_on,58,0,160
2,note_on,61,44,0
2,note_on,61,0,160
2,note_on,67,44,0
2,note_on,67,0,160
2,note_on,56,55,0
2,note_on,56,0,480
2,note_on,63,39,1920
2,note_on,67,46,0
2,note_on,67,0,480
2,note_on,63,0,0
2,note_on,51,42,960
2,note_on,51,0,160
2,note_on,55,35,0
2,note_on,55,0,160
2,note_on,58,35,0
2,note_on,58,0,160
2,note_on,51,40,0
2,note_on,51,0,160
2,note_on,55,31,0
2,note_on,55,0,160
2,note_on,58,31,0
2,note_on,58,0,160
2,note_on,51,37,0
2,note_on,51,0,160
2,note_on,55,33,0
2,note_on,55,0,160
2,note_on,58,33,0
2,note_on,58,0,160
2,note_on,51,42,0
2,note_on,51,0,160
2,note_on,56,35,0
2,note_on,56,0,160
2,note_on,60,35,0
2,note_on,60,0,160
2,note_on,51,42,0
2,note_on,51,0,160
2,note_on,58,35,0
2,note_on,58,0,160
2,note_on,61,35,0
2,note_on,61,0,160
2,note_on,51,40,0
2,note_on,51,0,160
2,note_on,58,31,0
2,note_on,58,0,160
2,note_on,61,31,0
2,note_on,61,0,160
2,note_on,51,37,0
2,note_on,51,0,160
2,note_on,58,33,0
2,note_on,58,0,160
2,note_on,61,33,0
2,note_on,61,0,160
2,note_on,51,42,0
2,note_on,51,0,160
2,note_on,56,35,0
2,note_on,56,0,160
2,note_on,60,35,0
2,note_on,60,0,160
2,note_on,51,42,0
2,note_on,51,0,160
2,note_on,55,35,0
2,note_on,55,0,160
2,note_on,58,35,0
2,note_on,58,0,160
2,note_on,51,40,0
2,note_on,51,0,160
2,note_on,55,31,0
2,note_on,55,0,160
2,note_on,58,31,0
2,note_on,58,0,160
2,note_on,51,37,0
2,note_on,51,0,160
2,note_on,55,33,0
2,note_on,55,0,160
2,note_on,58,33,0
2,note_on,58,0,160
2,note_on,51,42,0
2,note_on,51,0,160
2,note_on,56,35,0
2,note_on,56,0,160
2,note_on,60,35,0
2,note_on,60,0,160
2,note_on,51,42,0
2,note_on,51,0,160
2,note_on,58,35,0
2,note_on,58,0,160
2,note_on,61,35,0
2,note_on,61,0,160
2,note_on,51,40,0
2,note_on,51,0,160
2,note_on,58,31,0
2,note_on,58,0,160
2,note_on,61,31,0
2,note_on,61,0,160
2,note_on,51,37,0
2,note_on,51,0,160
2,note_on,58,33,0
2,note_on,58,0,160
2,note_on,61,33,0
2,note_on,61,0,160
2,note_on,51,42,0
2,note_on,51,0,160
2,note_on,56,35,0
2,note_on,56,0,160
2,note_on,60,35,0
2,note_on,60,0,160
2,note_on,51,42,0
2,note_on,51,0,160
2,note_on,55,35,0
2,note_on,55,0,160
2,note_on,58,35,0
2,note_on,58,0,160
2,note_on,51,40,0
2,note_on,51,0,160
2,note_on,55,31,0
2,note_on,55,0,160
2,note_on,58,31,0
2,note_on,58,0,160
2,note_on,52,41,0
2,note_on,52,0,160
2,note_on,55,33,0
2,note_on,55,0,160
2,note_on,58,33,0
2,note_on,58,0,160
2,note_on,53,42,0
2,note_on,53,0,160
2,note_on,55,35,0
2,note_on,55,0,160
2,note_on,56,35,0
2,note_on,56,0,160
2,note_on,49,52,0
2,note_on,61,38,480
2,note_on,61,0,480
2,note_on,49,0,0
2,note_on,60,50,0
2,note_on,51,50,0
2,note_on,60,0,480
2,note_on,58,39,0
2,note_on,58,0,480
2,note_on,51,0,0
2,note_on,56,70,0
2,note_on,56,0,480
2,note_on,51,58,480
2,note_on,58,70,0
2,note_on,58,0,480
2,note_on,51,0,0
2,note_on,56,65,480
2,note_on,60,70,0
2,note_on,60,0,480
2,note_on,56,0,0
2,note_on,58,68,480
2,note_on,51,68,0
2,note_on,51,0,480
2,note_on,58,0,0
2,note_on,56,65,480
2,note_on,60,70,0
2,note_on,60,0,1440
2,note_on,56,0,0
2,note_on,61,54,0
2,note_on,58,54,0
2,note_on,58,0,480
2,note_on,61,0,0
2,note_on,60,65,0
2,note_on,63,70,0
2,note_on,63,0,480
2,note_on,60,0,0
2,note_on,49,65,1440
2,note_on,61,58,480
2,note_on,61,0,480
2,note_on,49,0,0
2,note_on,60,65,0
2,note_on,51,55,0
2,note_on,60,0,480
2,note_on,58,61,0
2,note_on,58,0,480
2,note_on,51,0,0
2,note_on,56,65,0
2,note_on,60,70,0
2,note_on,60,0,1440
2,note_on,56,0,0
2,note_on,61,54,0
2,note_on,58,54,0
2,note_on,58,0,480
2,note_on,61,0,0
2,note_on,60,65,0
2,note_on,63,70,0
2,note_on,63,0,480
2,note_on,60,0,0
2,note_on,49,65,1440
2,note_on,61,58,480
2,note_on,61,0,480
2,note_on,49,0,0
2,note_on,60,65,0
2,note_on,51,55,0
2,note_on,60,0,480
2,note_on,58,61,0
2,note_on,58,0,480
2,note_on,51,0,0
2,note_on,56,58,0
2,note_on,56,0,160
2,note_on,60,56,0
2,note_on,60,0,160
2,note_on,58,50,0
2,note_on,58,0,160
2,note_on,56,57,0
2,note_on,56,0,160
2,note_on,55,51,0
2,note_on,55,0,160
2,note_on,53,51,0
2,note_on,53,0,160
2,note_on,51,57,0
2,note_on,51,0,160
2,note_on,49,51,0
2,note_on,49,0,160
2,note_on,48,51,0
2,note_on,48,0,160
2,note_on,49,57,0
2,note_on,49,0,120
2,note_on,51,55,0
2,note_on,51,0,120
2,note_on,53,52,0
2,note_on,53,0,120
2,note_on,55,49,0
2,note_on,55,0,120
2,note_on,56,58,0
2,note_on,56,0,160
2,note_on,60,56,0
2,note_on,60,0,160
2,note_on,58,50,0
2,note_on,58,0,160
2,note_on,56,57,0
2,note_on,56,0,160
2,note_on,55,51,0
2,note_on,55,0,160
2,note_on,53,51,0
2,note_on,53,0,160
2,note_on,51,57,0
2,note_on,51,0,160
2,note_on,49,51,0
2,note_on,49,0,160
2,note_on,48,51,0
2,note_on,48,0,160
2,note_on,49,57,0
2,note_on,49,0,120
2,note_on,51,55,0
2,note_on,51,0,120
2,note_on,53,52,0
2,note_on,53,0,120
2,note_on,55,49,0
2,note_on,55,0,120
2,note_on,56,58,0
2,note_on,56,0,160
2,note_on,60,56,0
2,note_on,60,0,160
2,note_on,58,50,0
2,note_on,58,0,160
2,note_on,56,57,0
2,note_on,56,0,160
2,note_on,55,51,0
2,note_on,55,0,160
2,note_on,53,51,0
2,note_on,53,0,160
2,note_on,51,57,0
2,note_on,51,0,160
2,note_on,49,51,0
2,note_on,49,0,160
2,note_on,48,51,0
2,note_on,48,0,160
2,note_on,56,57,0
2,note_on,56,0,160
2,note_on,55,51,0
2,note_on,55,0,160
2,note_on,53,51,0
2,note_on,53,0,160
2,note_on,51,57,0
2,note_on,51,0,160
2,note_on,49,51,0
2,note_on,49,0,160
2,note_on,48,51,0
2,note_on,48,0,160
2,note_on,56,57,0
2,note_on,56,0,160
2,note_on,55,51,0
2,note_on,55,0,160
2,note_on,53,51,0
2,note_on,53,0,160
2,note_on,51,57,0
2,note_on,51,0,160
2,note_on,49,51,0
2,note_on,49,0,160
2,note_on,48,51,0
2,note_on,48,0,160
2,note_on,56,57,0
2,note_on,56,0,360
2,note_on,48,40,0
2,note_on,48,0,110
2,note_on,48,40,10
2,note_on,48,0,80
2,note_on,49,36,0
2,note_on,49,0,80
2,note_on,48,40,0
2,note_on,48,0,80
2,note_on,49,36,0
2,note_on,49,0,80
2,note_on,48,40,0
2,note_on,48,0,80
2,note_on,49,36,0
2,note_on,49,0,80
2,note_on,48,40,0
2,note_on,48,0,60
2,note_on,49,36,0
2,note_on,49,0,60
2,note_on,48,40,0
2,note_on,48,0,60
2,note_on,49,36,0
2,note_on,49,0,60
2,note_on,48,46,0
2,note_on,48,0,120
2,note_on,49,40,0
2,note_on,49,0,120
2,note_on,51,47,0
2,note_on,51,0,480
2,note_on,51,47,0
2,note_on,51,0,480
2,note_on,56,30,0
2,note_on,56,0,160
2,note_on,60,26,0
2,note_on,60,0,160
2,note_on,63,26,0
2,note_on,63,0,160
2,note_on,56,30,0
2,note_on,56,0,160
2,note_on,60,27,0
2,note_on,60,0,160
2,note_on,63,27,0
2,note_on,63,0,160
2,note_on,56,30,0
2,note_on,56,0,160
2,note_on,60,26,0
2,note_on,60,0,160
2,note_on,63,26,0
2,note_on,63,0,160
2,note_on,56,31,0
2,note_on,56,0,160
2,note_on,61,27,0
2,note_on,61,0,160
2,note_on,67,27,0
2,note_on,67,0,160
2,note_on,56,30,0
2,note_on,56,0,160
2,note_on,60,26,0
2,note_on,60,0,160
2,note_on,63,25,0
2,note_on,63,0,160
2,note_on,56,29,0
2,note_on,56,0,160
2,note_on,60,26,0
2,note_on,60,0,160
2,note_on,63,26,0
2,note_on,63,0,160
2,note_on,56,29,0
2,note_on,56,0,160
2,note_on,60,25,0
2,note_on,60,0,160
2,note_on,63,25,0
2,note_on,63,0,160
2,note_on,56,30,0
2,note_on,56,0,160
2,note_on,61,26,0
2,note_on,61,0,160
2,note_on,67,26,0
2,note_on,67,0,160
2,note_on,56,28,0
2,note_on,56,0,160
2,note_on,60,25,0
2,note_on,60,0,160
2,note_on,63,25,0
2,note_on,63,0,160
2,note_on,56,28,0
2,note_on,56,0,160
2,note_on,60,26,0
2,note_on,60,0,160
2,note_on,63,25,0
2,note_on,63,0,160
2,note_on,56,28,0
2,note_on,56,0,160
2,note_on,60,24,0
2,note_on,60,0,160
2,note_on,63,24,0
2,note_on,63,0,160
2,note_on,56,29,0
2,note_on,56,0,160
2,note_on,61,25,0
2,note_on,61,0,160
2,note_on,67,25,0
2,note_on,67,0,160
2,note_on,56,28,0
2,note_on,56,0,160
2,note_on,60,24,0
2,note_on,60,0,160
2,note_on,63,24,0
2,note_on,63,0,160
2,note_on,56,28,0
2,note_on,56,0,160
2,note_on,60,25,0
2,note_on,60,0,160
2,note_on,63,25,0
2,note_on,63,0,160
2,note_on,56,28,0
2,note_on,56,0,160
2,note_on,60,24,0
2,note_on,60,0,160
2,note_on,63,24,0
2,note_on,63,0,160
2,note_on,56,28,0
2,note_on,56,0,160
2,note_on,61,24,0
2,note_on,61,0,160
2,note_on,67,24,0
2,note_on,67,0,160
2,note_on,56,28,0
2,note_on,56,0,160
2,note_on,60,23,0
2,note_on,60,0,160
2,note_on,63,23,0
2,note_on,63,0,160
2,note_on,56,28,0
2,note_on,56,0,160
2,note_on,60,24,0
2,note_on,60,0,160
2,note_on,63,24,0
2,note_on,63,0,160
2,note_on,56,28,0
2,note_on,56,0,160
2,note_on,60,23,0
2,note_on,60,0,160
2,note_on,63,23,0
2,note_on,63,0,160
2,note_on,56,28,0
2,note_on,56,0,160
2,note_on,61,24,0
2,note_on,61,0,160
2,note_on,67,24,0
2,note_on,67,0,160
2,note_on,56,27,0
2,note_on,56,0,160
2,note_on,60,22,0
2,note_on,60,0,160
2,note_on,63,22,0
2,note_on,63,0,160
2,note_on,56,27,0
2,note_on,56,0,160
2,note_on,60,23,0
2,note_on,60,0,160
2,note_on,63,23,0
2,note_on,63,0,160
2,note_on,56,27,0
2,note_on,56,0,160
2,note_on,60,22,0
2,note_on,60,0,160
2,note_on,63,22,0
2,note_on,63,0,160
2,note_on,56,27,0
2,note_on,56,0,160
2,note_on,61,23,0
2,note_on,61,0,160
2,note_on,67,23,0
2,note_on,67,0,160
2,note_on,56,26,0
2,note_on,56,0,160
2,note_on,60,22,0
2,note_on,60,0,160
2,note_on,63,22,0
2,note_on,63,0,160
2,note_on,56,24,0
2,note_on,56,0,160
2,note_on,60,22,0
2,note_on,60,0,160
2,note_on,63,21,0
2,note_on,63,0,160
2,note_on,56,22,0
2,note_on,56,0,160
2,note_on,60,19,0
2,note_on,60,0,160
2,note_on,63,18,0
2,note_on,63,0,160
2,note_on,56,22,0
2,note_on,56,0,160
2,note_on,61,18,0
2,note_on,61,0,160
2,note_on,67,18,0
2,note_on,67,0,160
2,note_on,60,25,0
2,note_on,56,25,0
2,note_on,56,0,480
2,note_on,60,0,0
2,note_on,44,20,960
2,note_on,48,24,0
2,note_on,48,0,480
2,note_on,44,0,0
2,note_on,48,24,0
2,note_on,44,20,0
2,note_on,44,0,480
2,note_on,48,0,0
