Track,Message Type,Note,Velocity,Time
1,note_on,72,50,1440
1,note_on,72,0,360
1,note_on,76,50,0
1,note_on,76,0,120
1,note_on,79,57,0
1,note_on,79,0,120
1,note_on,79,50,360
1,note_on,79,0,120
1,note_on,79,50,360
1,note_on,79,0,120
1,note_on,83,60,300
1,note_on,83,0,60
1,note_on,84,71,0
1,note_on,84,0,120
1,note_on,79,50,360
1,note_on,79,0,120
1,note_on,79,43,360
1,note_on,79,0,120
1,note_on,79,43,360
1,note_on,79,0,120
1,note_on,76,50,360
1,note_on,76,0,360
1,note_on,72,50,0
1,note_on,72,0,120
1,note_on,71,57,0
1,note_on,71,0,120
1,note_on,71,53,360
1,note_on,71,0,120
1,note_on,72,57,360
1,note_on,72,0,120
1,note_on,72,52,360
1,note_on,72,0,120
1,note_on,74,57,360
1,note_on,74,0,480
1,note_on,67,50,960
1,note_on,67,0,360
1,note_on,74,47,0
1,note_on,74,0,120
1,note_on,77,58,0
1,note_on,77,0,120
1,note_on,77,50,360
1,note_on,77,0,360
1,note_on,79,48,0
1,note_on,79,0,120
1,note_on,76,58,0
1,note_on,76,0,120
1,note_on,76,50,360
1,note_on,76,0,360
1,note_on,77,50,0
1,note_on,77,0,120
1,note_on,74,59,0
1,note_on,74,0,120
1,note_on,74,50,360
1,note_on,74,0,360
1,note_on,76,47,0
1,note_on,76,0,120
1,note_on,72,57,0
1,note_on,72,0,120
1,note_on,72,52,360
1,note_on,72,0,120
1,note_on,74,57,360
1,note_on,74,0,120
1,note_on,74,52,360
1,note_on,74,0,120
1,note_on,71,58,360
1,note_on,71,0,120
1,note_on,71,52,360
1,note_on,71,0,120
1,note_on,72,63,360
1,note_on,72,0,480
1,note_on,72,69,960
1,note_on,72,0,360
1,note_on,76,71,0
1,note_on,76,0,120
1,note_on,79,83,0
1,note_on,79,0,120
1,note_on,79,75,360
1,note_on,79,0,120
1,note_on,79,76,360
1,note_on,79,0,120
1,note_on,83,78,300
1,note_on,83,0,60
1,note_on,84,92,0
1,note_on,84,0,480
1,note_on,79,85,0
1,note_on,79,0,120
1,note_on,79,74,360
1,note_on,79,0,120
1,note_on,79,74,360
1,note_on,79,0,120
1,note_on,77,69,360
1,note_on,77,0,120
1,note_on,76,60,0
1,note_on,76,0,120
1,note_on,74,60,0
1,note_on,74,0,120
1,note_on,72,60,0
1,note_on,72,0,120
1,note_on,71,74,0
1,note_on,71,0,120
1,note_on,71,68,360
1,note_on,71,0,120
1,note_on,72,74,360
1,note_on,72,0,120
1,note_on,72,67,360
1,note_on,72,0,120
1,note_on,74,74,360
1,note_on,74,0,480
1,note_on,67,65,960
1,note_on,67,0,360
1,note_on,74,61,0
1,note_on,74,0,120
1,note_on,77,75,0
1,note_on,77,0,120
1,note_on,77,65,360
1,note_on,77,0,360
1,note_on,79,62,0
1,note_on,79,0,120
1,note_on,76,75,0
1,note_on,76,0,120
1,note_on,76,65,360
1,note_on,76,0,360
1,note_on,77,65,0
1,note_on,77,0,120
1,note_on,74,76,0
1,note_on,74,0,120
1,note_on,74,65,360
1,note_on,74,0,360
1,note_on,76,61,0
1,note_on,76,0,120
1,note_on,72,74,0
1,note_on,72,0,120
1,note_on,72,67,360
1,note_on,72,0,120
1,note_on,74,74,360
1,note_on,74,0,120
1,note_on,74,67,360
1,note_on,74,0,120
1,note_on,71,75,360
1,note_on,71,0,120
1,note_on,71,67,360
1,note_on,71,0,120
1,note_on,72,81,360
1,note_on,72,0,1440
1,note_on,76,50,0
1,note_on,76,0,360
1,note_on,79,46,0
1,note_on,79,0,120
1,note_on,77,50,0
1,note_on,77,0,120
1,note_on,77,50,360
1,note_on,77,0,360
1,note_on,81,45,0
1,note_on,81,0,120
1,note_on,71,50,0
1,note_on,71,0,120
1,note_on,71,50,360
1,note_on,71,0,360
1,note_on,74,45,0
1,note_on,74,0,120
1,note_on,72,50,0
1,note_on,72,0,120
1,note_on,72,50,360
1,note_on,72,0,360
1,note_on,76,50,0
1,note_on,76,0,120
1,note_on,79,61,0
1,note_on,79,0,120
1,note_on,84,57,360
1,note_on,84,0,360
1,note_on,76,50,0
1,note_on,76,0,120
1,note_on,77,60,0
1,note_on,77,0,120
1,note_on,81,58,360
1,note_on,81,0,360
1,note_on,72,49,0
1,note_on,72,0,120
1,note_on,71,59,0
1,note_on,71,0,120
1,note_on,77,60,360
1,note_on,77,0,360
1,note_on,71,54,0
1,note_on,71,0,120
1,note_on,72,66,0
1,note_on,72,0,120
1,note_on,72,52,360
1,note_on,72,0,120
1,note_on,72,51,360
1,note_on,72,0,120
1,note_on,76,57,360
1,note_on,76,0,120
1,note_on,74,50,0
1,note_on,74,0,120
1,note_on,72,50,0
1,note_on,72,0,120
1,note_on,74,50,0
1,note_on,74,0,120
1,note_on,76,63,0
1,note_on,76,0,120
1,note_on,72,52,360
1,note_on,72,0,120
1,note_on,72,51,360
1,note_on,72,0,120
1,note_on,76,57,360
1,note_on,76,0,120
1,note_on,74,50,0
1,note_on,74,0,120
1,note_on,72,50,0
1,note_on,72,0,120
1,note_on,74,50,0
1,note_on,74,0,120
1,note_on,76,63,0
1,note_on,76,0,120
1,note_on,72,52,360
1,note_on,72,0,120
1,note_on,72,51,360
1,note_on,72,0,120
1,note_on,76,57,360
1,note_on,76,0,120
1,note_on,74,50,0
1,note_on,74,0,120
1,note_on,72,50,0
1,note_on,72,0,120
1,note_on,74,50,0
1,note_on,74,0,120
1,note_on,76,63,0
1,note_on,76,0,120
1,note_on,76,53,360
1,note_on,76,0,120
1,note_on,76,53,360
1,note_on,76,0,120
1,note_on,79,60,360
1,note_on,79,0,120
1,note_on,78,53,0
1,note_on,78,0,120
1,note_on,76,53,0
1,note_on,76,0,120
1,note_on,78,53,0
1,note_on,78,0,120
1,note_on,79,68,0
1,note_on,79,0,120
1,note_on,79,57,360
1,note_on,79,0,120
1,note_on,79,57,360
1,note_on,79,0,120
1,note_on,83,64,360
1,note_on,83,0,120
1,note_on,81,57,0
1,note_on,81,0,120
1,note_on,79,57,0
1,note_on,79,0,120
1,note_on,81,57,0
1,note_on,81,0,120
1,note_on,83,73,0
1,note_on,83,0,120
1,note_on,79,64,360
1,note_on,79,0,120
1,note_on,79,64,360
1,note_on,79,0,120
1,note_on,83,69,360
1,note_on,83,0,120
1,note_on,81,61,0
1,note_on,81,0,120
1,note_on,79,61,0
1,note_on,79,0,120
1,note_on,81,61,0
1,note_on,81,0,120
1,note_on,83,78,0
1,note_on,83,0,120
1,note_on,79,65,360
1,note_on,79,0,120
1,note_on,79,65,360
1,note_on,79,0,120
1,note_on,79,75,360
1,note_on,79,0,160
1,note_on,83,69,0
1,note_on,83,0,160
1,note_on,86,71,0
1,note_on,86,0,160
1,note_on,84,75,0
1,note_on,84,0,480
1,note_on,84,69,0
1,note_on,84,0,360
1,note_on,86,65,0
1,note_on,86,0,120
1,note_on,83,75,0
1,note_on,83,0,120
1,note_on,83,75,360
1,note_on,83,0,360
1,note_on,84,70,0
1,note_on,84,0,120
1,note_on,81,75,0
1,note_on,81,0,120
1,note_on,81,69,360
1,note_on,81,0,360
1,note_on,83,65,0
1,note_on,83,0,120
1,note_on,79,75,0
1,note_on,79,0,120
1,note_on,79,57,360
1,note_on,79,0,160
1,note_on,83,52,0
1,note_on,83,0,160
1,note_on,86,53,0
1,note_on,86,0,160
1,note_on,84,57,0
1,note_on,84,0,240
1,note_on,86,57,0
1,note_on,86,0,80
1,note_on,84,49,0
1,note_on,84,0,80
1,note_on,83,49,0
1,note_on,83,0,80
1,note_on,84,52,0
1,note_on,84,0,360
1,note_on,86,49,0
1,note_on,86,0,120
1,note_on,83,57,0
1,note_on,83,0,240
1,note_on,84,57,0
1,note_on,84,0,80
1,note_on,83,50,0
1,note_on,83,0,80
1,note_on,81,50,0
1,note_on,81,0,80
1,note_on,83,57,0
1,note_on,83,0,360
1,note_on,84,53,0
1,note_on,84,0,120
1,note_on,81,57,0
1,note_on,81,0,240
1,note_on,83,57,0
1,note_on,83,0,80
1,note_on,81,51,0
1,note_on,81,0,80
1,note_on,79,51,0
1,note_on,79,0,80
1,note_on,81,52,0
1,note_on,81,0,360
1,note_on,83,49,0
1,note_on,83,0,120
1,note_on,79,57,0
1,note_on,79,0,480
1,note_on,86,66,0
1,note_on,86,0,360
1,note_on,83,55,0
1,note_on,83,0,120
1,note_on,81,74,0
1,note_on,81,0,240
1,note_on,83,68,0
1,note_on,83,0,80
1,note_on,81,59,0
1,note_on,81,0,80
1,note_on,79,59,0
1,note_on,79,0,80
1,note_on,81,62,0
1,note_on,81,0,360
1,note_on,83,59,0
1,note_on,83,0,120
1,note_on,79,68,0
1,note_on,79,0,240
1,note_on,81,68,0
1,note_on,81,0,80
1,note_on,79,60,0
1,note_on,79,0,80
1,note_on,78,60,0
1,note_on,78,0,80
1,note_on,79,68,0
1,note_on,79,0,360
1,note_on,81,63,0
1,note_on,81,0,120
1,note_on,78,74,0
1,note_on,78,0,480
1,note_on,74,68,360
1,note_on,74,0,120
1,note_on,78,79,0
1,note_on,78,0,360
1,note_on,74,68,0
1,note_on,74,0,120
1,note_on,81,74,0
1,note_on,81,0,360
1,note_on,78,68,0
1,note_on,78,0,120
1,note_on,86,86,0
1,note_on,86,0,480
1,note_on,62,66,360
1,note_on,62,0,120
1,note_on,66,77,0
1,note_on,66,0,160
1,note_on,62,69,0
1,note_on,62,0,160
1,note_on,66,69,0
1,note_on,66,0,160
1,note_on,69,80,0
1,note_on,69,0,160
1,note_on,66,70,0
1,note_on,66,0,160
1,note_on,69,70,0
1,note_on,69,0,160
1,note_on,74,84,0
1,note_on,74,0,480
1,note_on,50,95,480
1,note_on,50,0,720
1,note_on,50,89,0
1,note_on,50,0,240
1,note_on,50,97,0
1,note_on,50,0,480
1,note_on,76,57,2880
1,note_on,76,0,120
1,note_on,74,50,0
1,note_on,74,0,120
1,note_on,73,50,0
1,note_on,73,0,120
1,note_on,74,50,0
1,note_on,74,0,120
1,note_on,79,63,0
1,note_on,79,0,120
1,note_on,79,53,360
1,note_on,79,0,120
1,note_on,76,60,840
1,note_on,76,0,120
1,note_on,74,53,0
1,note_on,74,0,120
1,note_on,73,53,0
1,note_on,73,0,120
1,note_on,74,53,0
1,note_on,74,0,120
1,note_on,79,68,0
1,note_on,79,0,120
1,note_on,79,57,360
1,note_on,79,0,120
1,note_on,76,64,840
1,note_on,76,0,120
1,note_on,74,57,0
1,note_on,74,0,120
1,note_on,73,57,0
1,note_on,73,0,120
1,note_on,74,57,0
1,note_on,74,0,120
1,note_on,79,73,0
1,note_on,79,0,480
1,note_on,81,75,0
1,note_on,81,0,120
1,note_on,79,63,0
1,note_on,79,0,120
1,note_on,78,63,0
1,note_on,78,0,120
1,note_on,79,63,0
1,note_on,79,0,120
1,note_on,81,75,0
1,note_on,81,0,480
1,note_on,83,75,0
1,note_on,83,0,120
1,note_on,81,66,0
1,note_on,81,0,120
1,note_on,79,66,0
1,note_on,79,0,120
1,note_on,81,66,0
1,note_on,81,0,120
1,note_on,83,78,0
1,note_on,83,0,480
1,note_on,84,77,0
1,note_on,84,0,120
1,note_on,83,70,0
1,note_on,83,0,120
1,note_on,81,70,0
1,note_on,81,0,120
1,note_on,83,71,0
1,note_on,83,0,120
1,note_on,84,81,0
1,note_on,84,0,480
1,note_on,86,87,0
1,note_on,86,0,120
1,note_on,84,75,0
1,note_on,84,0,120
1,note_on,83,78,0
1,note_on,83,0,120
1,note_on,84,76,0
1,note_on,84,0,120
1,note_on,86,105,0
1,note_on,86,0,1440
1,note_on,75,86,0
1,note_on,87,103,0
1,note_on,87,0,480
1,note_on,75,0,0
1,note_on,76,92,0
1,note_on,88,108,0
1,note_on,88,0,480
1,note_on,76,0,0
1,note_on,68,64,0
1,note_on,80,75,0
1,note_on,80,0,480
1,note_on,68,0,0
1,note_on,69,69,0
1,note_on,81,82,0
1,note_on,81,0,480
1,note_on,69,0,0
1,note_on,83,89,0
1,note_on,71,75,0
1,note_on,71,0,480
1,note_on,83,0,0
1,note_on,72,80,0
1,note_on,84,95,0
1,note_on,84,0,960
1,note_on,72,0,0
1,note_on,74,76,0
1,note_on,86,90,0
1,note_on,86,0,480
1,note_on,74,0,0
1,note_on,76,72,0
1,note_on,88,86,0
1,note_on,88,0,480
1,note_on,76,0,0
1,note_on,79,70,0
1,note_on,74,59,0
1,note_on,74,0,900
1,note_on,79,0,0
1,note_on,83,58,0
1,note_on,83,0,60
1,note_on,78,66,0
1,note_on,81,66,0
1,note_on,81,0,720
1,note_on,79,56,0
1,note_on,79,0,240
1,note_on,78,0,0
1,note_on,79,66,0
1,note_on,79,0,480
1,note_on,83,57,960
1,note_on,83,0,160
1,note_on,87,61,0
1,note_on,87,0,160
1,note_on,88,61,0
1,note_on,88,0,160
1,note_on,86,58,0
1,note_on,86,0,120
1,note_on,86,49,360
1,note_on,86,0,120
1,note_on,86,49,360
1,note_on,86,0,120
1,note_on,79,57,360
1,note_on,79,0,160
1,note_on,83,44,0
1,note_on,83,0,160
1,note_on,84,44,0
1,note_on,84,0,160
1,note_on,83,58,0
1,note_on,83,0,120
1,note_on,83,49,360
1,note_on,83,0,120
1,note_on,83,49,360
1,note_on,83,0,120
1,note_on,76,57,360
1,note_on,76,0,160
1,note_on,80,44,0
1,note_on,80,0,160
1,note_on,81,44,0
1,note_on,81,0,160
1,note_on,79,58,0
1,note_on,79,0,120
1,note_on,79,49,360
1,note_on,79,0,120
1,note_on,79,49,360
1,note_on,79,0,120
1,note_on,83,61,360
1,note_on,83,0,360
1,note_on,79,54,0
1,note_on,79,0,120
1,note_on,76,62,0
1,note_on,76,0,120
1,note_on,84,61,360
1,note_on,84,0,360
1,note_on,81,53,0
1,note_on,81,0,120
1,note_on,78,61,0
1,note_on,78,0,120
1,note_on,81,60,360
1,note_on,81,0,360
1,note_on,78,54,0
1,note_on,78,0,120
1,note_on,79,61,0
1,note_on,79,0,120
1,note_on,83,88,1320
1,note_on,83,0,160
1,note_on,87,61,0
1,note_on,87,0,160
1,note_on,88,61,0
1,note_on,88,0,160
1,note_on,81,72,0
1,note_on,81,0,160
1,note_on,85,47,0
1,note_on,85,0,160
1,note_on,86,47,0
1,note_on,86,0,160
1,note_on,81,66,0
1,note_on,81,0,160
1,note_on,85,47,0
1,note_on,85,0,160
1,note_on,86,47,0
1,note_on,86,0,160
1,note_on,81,66,0
1,note_on,81,0,160
1,note_on,85,51,0
1,note_on,85,0,160
1,note_on,86,52,0
1,note_on,86,0,160
1,note_on,83,88,0
1,note_on,83,0,160
1,note_on,87,61,0
1,note_on,87,0,160
1,note_on,88,61,0
1,note_on,88,0,160
1,note_on,81,69,0
1,note_on,81,0,160
1,note_on,85,54,0
1,note_on,85,0,160
1,note_on,86,55,0
1,note_on,86,0,160
1,note_on,81,70,0
1,note_on,81,0,160
1,note_on,85,47,0
1,note_on,85,0,160
1,note_on,86,47,0
1,note_on,86,0,160
1,note_on,81,67,0
1,note_on,81,0,160
1,note_on,85,46,0
1,note_on,85,0,160
1,note_on,86,49,0
1,note_on,86,0,160
1,note_on,79,64,0
1,note_on,79,0,160
1,note_on,83,50,0
1,note_on,83,0,160
1,note_on,84,50,0
1,note_on,84,0,160
1,note_on,78,69,0
1,note_on,78,0,160
1,note_on,82,50,0
1,note_on,82,0,160
1,note_on,83,50,0
1,note_on,83,0,160
1,note_on,78,66,0
1,note_on,78,0,160
1,note_on,82,46,0
1,note_on,82,0,160
1,note_on,83,46,0
1,note_on,83,0,160
1,note_on,78,64,0
1,note_on,78,0,160
1,note_on,82,46,0
1,note_on,82,0,160
1,note_on,83,46,0
1,note_on,83,0,160
1,note_on,79,75,0
1,note_on,79,0,160
1,note_on,83,54,0
1,note_on,83,0,160
1,note_on,84,54,0
1,note_on,84,0,160
1,note_on,78,69,0
1,note_on,78,0,160
1,note_on,82,50,0
1,note_on,82,0,160
1,note_on,83,50,0
1,note_on,83,0,160
1,note_on,78,66,0
1,note_on,78,0,160
1,note_on,82,47,0
1,note_on,82,0,160
1,note_on,83,47,0
1,note_on,83,0,160
1,note_on,78,64,0
1,note_on,78,0,160
1,note_on,82,47,0
1,note_on,82,0,160
1,note_on,83,48,0
1,note_on,83,0,160
1,note_on,76,70,0
1,note_on,76,0,160
1,note_on,80,54,0
1,note_on,80,0,160
1,note_on,81,54,0
1,note_on,81,0,160
1,note_on,74,59,0
1,note_on,74,0,160
1,note_on,78,48,0
1,note_on,78,0,160
1,note_on,79,46,0
1,note_on,79,0,160
1,note_on,74,61,0
1,note_on,74,0,160
1,note_on,78,47,0
1,note_on,78,0,160
1,note_on,79,50,0
1,note_on,79,0,160
1,note_on,74,62,0
1,note_on,74,0,160
1,note_on,78,49,0
1,note_on,78,0,160
1,note_on,79,49,0
1,note_on,79,0,160
1,note_on,76,70,0
1,note_on,76,0,160
1,note_on,80,54,0
1,note_on,80,0,160
1,note_on,81,54,0
1,note_on,81,0,160
1,note_on,74,59,0
1,note_on,74,0,160
1,note_on,78,48,0
1,note_on,78,0,160
1,note_on,79,46,0
1,note_on,79,0,160
1,note_on,74,61,0
1,note_on,74,0,160
1,note_on,78,47,0
1,note_on,78,0,160
1,note_on,79,50,0
1,note_on,79,0,160
1,note_on,74,62,0
1,note_on,74,0,160
1,note_on,78,49,0
1,note_on,78,0,160
1,note_on,79,49,0
1,note_on,79,0,160
1,note_on,76,70,0
1,note_on,76,0,160
1,note_on,80,54,0
1,note_on,80,0,160
1,note_on,81,54,0
1,note_on,81,0,160
1,note_on,74,72,0
1,note_on,74,0,160
1,note_on,78,56,0
1,note_on,78,0,160
1,note_on,79,56,0
1,note_on,79,0,160
1,note_on,74,73,0
1,note_on,74,0,160
1,note_on,80,62,0
1,note_on,80,0,160
1,note_on,81,62,0
1,note_on,81,0,160
1,note_on,74,80,0
1,note_on,74,0,160
1,note_on,82,69,0
1,note_on,82,0,160
1,note_on,83,65,0
1,note_on,83,0,160
1,note_on,74,83,0
1,note_on,74,0,160
1,note_on,83,74,0
1,note_on,83,0,160
1,note_on,84,74,0
1,note_on,84,0,160
1,note_on,74,86,0
1,note_on,74,0,160
1,note_on,85,93,0
1,note_on,85,0,160
1,note_on,86,92,0
1,note_on,86,0,160
1,note_on,84,89,0
1,note_on,84,0,160
1,note_on,83,88,0
1,note_on,83,0,160
1,note_on,81,86,0
1,note_on,81,0,160
1,note_on,79,83,0
1,note_on,79,0,160
1,note_on,78,82,0
1,note_on,78,0,160
1,note_on,76,80,0
1,note_on,76,0,160
1,note_on,74,78,0
1,note_on,74,0,160
1,note_on,72,76,0
1,note_on,72,0,160
1,note_on,71,74,0
1,note_on,71,0,160
1,note_on,69,70,0
1,note_on,69,0,160
1,note_on,76,78,0
1,note_on,76,0,160
1,note_on,74,76,0
1,note_on,74,0,160
1,note_on,72,73,0
1,note_on,72,0,160
1,note_on,71,71,0
1,note_on,71,0,160
1,note_on,69,69,0
1,note_on,69,0,160
1,note_on,67,83,0
1,note_on,67,0,480
1,note_on,66,75,0
1,note_on,66,0,120
1,note_on,67,67,0
1,note_on,67,0,120
1,note_on,66,75,0
1,note_on,66,0,240
1,note_on,85,78,160
1,note_on,85,0,160
1,note_on,86,78,0
1,note_on,86,0,160
1,note_on,84,84,0
1,note_on,84,0,160
1,note_on,83,83,0
1,note_on,83,0,160
1,note_on,81,81,0
1,note_on,81,0,160
1,note_on,79,80,0
1,note_on,79,0,160
1,note_on,78,78,0
1,note_on,78,0,160
1,note_on,76,77,0
1,note_on,76,0,160
1,note_on,74,75,0
1,note_on,74,0,160
1,note_on,72,73,0
1,note_on,72,0,160
1,note_on,71,72,0
1,note_on,71,0,160
1,note_on,69,70,0
1,note_on,69,0,160
1,note_on,76,78,0
1,note_on,76,0,160
1,note_on,74,76,0
1,note_on,74,0,160
1,note_on,72,73,0
1,note_on,72,0,160
1,note_on,71,71,0
1,note_on,71,0,160
1,note_on,69,69,0
1,note_on,69,0,160
1,note_on,67,83,0
1,note_on,67,0,480
1,note_on,66,75,0
1,note_on,66,0,120
1,note_on,67,67,0
1,note_on,67,0,120
1,note_on,66,75,0
1,note_on,66,0,240
1,note_on,67,63,0
1,note_on,67,0,480
1,note_on,74,57,960
1,note_on,74,0,360
1,note_on,78,57,0
1,note_on,78,0,120
1,note_on,79,64,0
1,note_on,79,0,120
1,note_on,79,57,360
1,note_on,79,0,120
1,note_on,79,57,360
1,note_on,79,0,120
1,note_on,83,54,120
1,note_on,83,0,80
1,note_on,81,51,0
1,note_on,81,0,80
1,note_on,79,51,0
1,note_on,79,0,80
1,note_on,81,61,0
1,note_on,81,0,360
1,note_on,86,57,0
1,note_on,86,0,120
1,note_on,83,63,0
1,note_on,83,0,120
1,note_on,79,57,360
1,note_on,79,0,120
1,note_on,79,57,360
1,note_on,79,0,120
1,note_on,74,81,360
1,note_on,74,0,360
1,note_on,78,81,0
1,note_on,78,0,120
1,note_on,79,91,0
1,note_on,79,0,120
1,note_on,79,81,360
1,note_on,79,0,120
1,note_on,79,81,360
1,note_on,79,0,120
1,note_on,83,77,120
1,note_on,83,0,80
1,note_on,81,72,0
1,note_on,81,0,80
1,note_on,79,72,0
1,note_on,79,0,80
1,note_on,81,86,0
1,note_on,81,0,360
1,note_on,83,81,0
1,note_on,83,0,120
1,note_on,79,91,0
1,note_on,79,0,480
1,note_on,74,81,480
1,note_on,71,81,0
1,note_on,71,0,480
1,note_on,74,0,0
1,note_on,71,81,480
1,note_on,67,81,0
1,note_on,67,0,480
1,note_on,71,0,0
1,note_on,72,50,960
1,note_on,72,0,360
1,note_on,76,50,0
1,note_on,76,0,120
1,note_on,79,57,0
1,note_on,79,0,120
1,note_on,79,50,360
1,note_on,79,0,120
1,note_on,79,50,360
1,note_on,79,0,120
1,note_on,83,60,300
1,note_on,83,0,60
1,note_on,84,71,0
1,note_on,84,0,120
1,note_on,79,50,360
1,note_on,79,0,120
1,note_on,79,43,360
1,note_on,79,0,120
1,note_on,79,43,360
1,note_on,79,0,120
1,note_on,76,50,360
1,note_on,76,0,360
1,note_on,72,50,0
1,note_on,72,0,120
1,note_on,71,57,0
1,note_on,71,0,120
1,note_on,71,53,360
1,note_on,71,0,120
1,note_on,72,57,360
1,note_on,72,0,120
1,note_on,72,52,360
1,note_on,72,0,120
1,note_on,74,57,360
1,note_on,74,0,480
1,note_on,67,50,960
1,note_on,67,0,360
1,note_on,74,47,0
1,note_on,74,0,120
1,note_on,77,58,0
1,note_on,77,0,120
1,note_on,77,50,360
1,note_on,77,0,360
1,note_on,79,48,0
1,note_on,79,0,120
1,note_on,76,58,0
1,note_on,76,0,120
1,note_on,76,50,360
1,note_on,76,0,360
1,note_on,77,50,0
1,note_on,77,0,120
1,note_on,74,59,0
1,note_on,74,0,120
1,note_on,74,50,360
1,note_on,74,0,360
1,note_on,76,47,0
1,note_on,76,0,120
1,note_on,72,57,0
1,note_on,72,0,120
1,note_on,72,52,360
1,note_on,72,0,120
1,note_on,74,57,360
1,note_on,74,0,120
1,note_on,74,52,360
1,note_on,74,0,120
1,note_on,71,58,360
1,note_on,71,0,120
1,note_on,71,52,360
1,note_on,71,0,120
1,note_on,72,63,360
1,note_on,72,0,480
1,note_on,72,69,960
1,note_on,72,0,360
1,note_on,76,71,0
1,note_on,76,0,120
1,note_on,79,83,0
1,note_on,79,0,120
1,note_on,79,75,360
1,note_on,79,0,120
1,note_on,79,76,360
1,note_on,79,0,120
1,note_on,83,78,300
1,note_on,83,0,60
1,note_on,84,92,0
1,note_on,84,0,480
1,note_on,79,85,0
1,note_on,79,0,120
1,note_on,79,74,360
1,note_on,79,0,120
1,note_on,79,74,360
1,note_on,79,0,120
1,note_on,77,69,360
1,note_on,77,0,120
1,note_on,76,60,0
1,note_on,76,0,120
1,note_on,74,60,0
1,note_on,74,0,120
1,note_on,72,60,0
1,note_on,72,0,120
1,note_on,71,74,0
1,note_on,71,0,120
1,note_on,71,68,360
1,note_on,71,0,120
1,note_on,72,74,360
1,note_on,72,0,120
1,note_on,72,67,360
1,note_on,72,0,120
1,note_on,74,74,360
1,note_on,74,0,480
1,note_on,67,65,960
1,note_on,67,0,360
1,note_on,74,61,0
1,note_on,74,0,120
1,note_on,77,75,0
1,note_on,77,0,120
1,note_on,77,65,360
1,note_on,77,0,360
1,note_on,79,62,0
1,note_on,79,0,120
1,note_on,76,75,0
1,note_on,76,0,120
1,note_on,76,65,360
1,note_on,76,0,360
1,note_on,77,65,0
1,note_on,77,0,120
1,note_on,74,76,0
1,note_on,74,0,120
1,note_on,74,65,360
1,note_on,74,0,360
1,note_on,76,61,0
1,note_on,76,0,120
1,note_on,72,74,0
1,note_on,72,0,120
1,note_on,72,67,360
1,note_on,72,0,120
1,note_on,74,74,360
1,note_on,74,0,120
1,note_on,74,67,360
1,note_on,74,0,120
1,note_on,71,75,360
1,note_on,71,0,120
1,note_on,71,67,360
1,note_on,71,0,120
1,note_on,72,81,360
1,note_on,72,0,1440
1,note_on,76,50,0
1,note_on,76,0,360
1,note_on,79,46,0
1,note_on,79,0,120
1,note_on,77,50,0
1,note_on,77,0,120
1,note_on,77,50,360
1,note_on,77,0,360
1,note_on,81,45,0
1,note_on,81,0,120
1,note_on,71,50,0
1,note_on,71,0,120
1,note_on,71,50,360
1,note_on,71,0,360
1,note_on,74,45,0
1,note_on,74,0,120
1,note_on,72,50,0
1,note_on,72,0,120
1,note_on,72,50,360
1,note_on,72,0,360
1,note_on,76,50,0
1,note_on,76,0,120
1,note_on,79,61,0
1,note_on,79,0,120
1,note_on,84,57,360
1,note_on,84,0,360
1,note_on,76,50,0
1,note_on,76,0,120
1,note_on,77,60,0
1,note_on,77,0,120
1,note_on,81,58,360
1,note_on,81,0,360
1,note_on,72,49,0
1,note_on,72,0,120
1,note_on,71,59,0
1,note_on,71,0,120
1,note_on,77,60,360
1,note_on,77,0,360
1,note_on,71,54,0
1,note_on,71,0,120
1,note_on,72,66,0
1,note_on,72,0,120
1,note_on,72,52,360
1,note_on,72,0,120
1,note_on,72,51,360
1,note_on,72,0,120
1,note_on,76,57,360
1,note_on,76,0,120
1,note_on,74,50,0
1,note_on,74,0,120
1,note_on,72,50,0
1,note_on,72,0,120
1,note_on,74,50,0
1,note_on,74,0,120
1,note_on,76,63,0
1,note_on,76,0,120
1,note_on,72,52,360
1,note_on,72,0,120
1,note_on,72,51,360
1,note_on,72,0,120
1,note_on,76,57,360
1,note_on,76,0,120
1,note_on,74,50,0
1,note_on,74,0,120
1,note_on,72,50,0
1,note_on,72,0,120
1,note_on,74,50,0
1,note_on,74,0,120
1,note_on,76,63,0
1,note_on,76,0,120
1,note_on,72,52,360
1,note_on,72,0,120
1,note_on,72,51,360
1,note_on,72,0,120
1,note_on,76,57,360
1,note_on,76,0,120
1,note_on,74,50,0
1,note_on,74,0,120
1,note_on,72,50,0
1,note_on,72,0,120
1,note_on,74,50,0
1,note_on,74,0,120
1,note_on,76,63,0
1,note_on,76,0,120
1,note_on,76,55,360
1,note_on,76,0,120
1,note_on,76,55,360
1,note_on,76,0,120
1,note_on,79,60,360
1,note_on,79,0,120
1,note_on,78,53,0
1,note_on,78,0,120
1,note_on,76,53,0
1,note_on,76,0,120
1,note_on,78,53,0
1,note_on,78,0,120
1,note_on,79,68,0
1,note_on,79,0,120
1,note_on,79,57,360
1,note_on,79,0,120
1,note_on,79,57,360
1,note_on,79,0,120
1,note_on,83,64,360
1,note_on,83,0,120
1,note_on,81,57,0
1,note_on,81,0,120
1,note_on,79,57,0
1,note_on,79,0,120
1,note_on,81,57,0
1,note_on,81,0,120
1,note_on,83,73,0
1,note_on,83,0,120
1,note_on,79,61,360
1,note_on,79,0,120
1,note_on,79,61,360
1,note_on,79,0,120
1,note_on,83,69,360
1,note_on,83,0,120
1,note_on,81,61,0
1,note_on,81,0,120
1,note_on,79,61,0
1,note_on,79,0,120
1,note_on,81,61,0
1,note_on,81,0,120
1,note_on,83,78,0
1,note_on,83,0,120
1,note_on,79,65,360
1,note_on,79,0,120
1,note_on,79,65,360
1,note_on,79,0,120
1,note_on,79,75,360
1,note_on,79,0,160
1,note_on,83,69,0
1,note_on,83,0,160
1,note_on,86,71,0
1,note_on,86,0,160
1,note_on,84,75,0
1,note_on,84,0,480
1,note_on,84,69,0
1,note_on,84,0,360
1,note_on,86,65,0
1,note_on,86,0,120
1,note_on,83,75,0
1,note_on,83,0,120
1,note_on,83,75,360
1,note_on,83,0,360
1,note_on,84,70,0
1,note_on,84,0,120
1,note_on,81,75,0
1,note_on,81,0,120
1,note_on,81,69,360
1,note_on,81,0,360
1,note_on,83,65,0
1,note_on,83,0,120
1,note_on,79,75,0
1,note_on,79,0,120
1,note_on,79,57,360
1,note_on,79,0,160
1,note_on,83,52,0
1,note_on,83,0,160
1,note_on,86,53,0
1,note_on,86,0,160
1,note_on,84,57,0
1,note_on,84,0,240
1,note_on,86,57,0
1,note_on,86,0,80
1,note_on,84,49,0
1,note_on,84,0,80
1,note_on,83,49,0
1,note_on,83,0,80
1,note_on,84,52,0
1,note_on,84,0,360
1,note_on,86,49,0
1,note_on,86,0,120
1,note_on,83,57,0
1,note_on,83,0,240
1,note_on,84,57,0
1,note_on,84,0,80
1,note_on,83,50,0
1,note_on,83,0,80
1,note_on,81,50,0
1,note_on,81,0,80
1,note_on,83,57,0
1,note_on,83,0,360
1,note_on,84,53,0
1,note_on,84,0,120
1,note_on,81,57,0
1,note_on,81,0,240
1,note_on,83,57,0
1,note_on,83,0,80
1,note_on,81,51,0
1,note_on,81,0,80
1,note_on,79,51,0
1,note_on,79,0,80
1,note_on,81,52,0
1,note_on,81,0,360
1,note_on,83,49,0
1,note_on,83,0,120
1,note_on,79,57,0
1,note_on,79,0,480
1,note_on,86,66,0
1,note_on,86,0,360
1,note_on,83,55,0
1,note_on,83,0,120
1,note_on,81,74,0
1,note_on,81,0,240
1,note_on,83,68,0
1,note_on,83,0,80
1,note_on,81,59,0
1,note_on,81,0,80
1,note_on,79,59,0
1,note_on,79,0,80
1,note_on,81,62,0
1,note_on,81,0,360
1,note_on,83,59,0
1,note_on,83,0,120
1,note_on,79,68,0
1,note_on,79,0,240
1,note_on,81,68,0
1,note_on,81,0,80
1,note_on,79,60,0
1,note_on,79,0,80
1,note_on,78,60,0
1,note_on,78,0,80
1,note_on,79,68,0
1,note_on,79,0,360
1,note_on,81,63,0
1,note_on,81,0,120
1,note_on,78,74,0
1,note_on,78,0,480
1,note_on,74,68,360
1,note_on,74,0,120
1,note_on,78,79,0
1,note_on,78,0,360
1,note_on,74,68,0
1,note_on,74,0,120
1,note_on,81,74,0
1,note_on,81,0,360
1,note_on,78,68,0
1,note_on,78,0,120
1,note_on,86,86,0
1,note_on,86,0,480
1,note_on,62,66,360
1,note_on,62,0,120
1,note_on,66,77,0
1,note_on,66,0,160
1,note_on,62,69,0
1,note_on,62,0,160
1,note_on,66,69,0
1,note_on,66,0,160
1,note_on,69,80,0
1,note_on,69,0,160
1,note_on,66,70,0
1,note_on,66,0,160
1,note_on,69,70,0
1,note_on,69,0,160
1,note_on,74,84,0
1,note_on,74,0,480
1,note_on,50,95,480
1,note_on,50,0,720
1,note_on,50,89,0
1,note_on,50,0,240
1,note_on,50,97,0
1,note_on,50,0,480
1,note_on,76,57,2880
1,note_on,76,0,120
1,note_on,74,50,0
1,note_on,74,0,120
1,note_on,73,50,0
1,note_on,73,0,120
1,note_on,74,50,0
1,note_on,74,0,120
1,note_on,79,63,0
1,note_on,79,0,120
1,note_on,79,53,360
1,note_on,79,0,120
1,note_on,76,60,840
1,note_on,76,0,120
1,note_on,74,53,0
1,note_on,74,0,120
1,note_on,73,53,0
1,note_on,73,0,120
1,note_on,74,53,0
1,note_on,74,0,120
1,note_on,79,68,0
1,note_on,79,0,120
1,note_on,79,57,360
1,note_on,79,0,120
1,note_on,76,64,840
1,note_on,76,0,120
1,note_on,74,57,0
1,note_on,74,0,120
1,note_on,73,57,0
1,note_on,73,0,120
1,note_on,74,57,0
1,note_on,74,0,120
1,note_on,79,73,0
1,note_on,79,0,480
1,note_on,81,75,0
1,note_on,81,0,120
1,note_on,79,63,0
1,note_on,79,0,120
1,note_on,78,63,0
1,note_on,78,0,120
1,note_on,79,63,0
1,note_on,79,0,120
1,note_on,81,75,0
1,note_on,81,0,480
1,note_on,83,75,0
1,note_on,83,0,120
1,note_on,81,66,0
1,note_on,81,0,120
1,note_on,79,66,0
1,note_on,79,0,120
1,note_on,81,66,0
1,note_on,81,0,120
1,note_on,83,78,0
1,note_on,83,0,480
1,note_on,84,77,0
1,note_on,84,0,120
1,note_on,83,70,0
1,note_on,83,0,120
1,note_on,81,70,0
1,note_on,81,0,120
1,note_on,83,71,0
1,note_on,83,0,120
1,note_on,84,81,0
1,note_on,84,0,480
1,note_on,86,87,0
1,note_on,86,0,120
1,note_on,84,75,0
1,note_on,84,0,120
1,note_on,83,78,0
1,note_on,83,0,120
1,note_on,84,76,0
1,note_on,84,0,120
1,note_on,86,105,0
1,note_on,86,0,1440
1,note_on,75,86,0
1,note_on,87,103,0
1,note_on,87,0,480
1,note_on,75,0,0
1,note_on,88,108,0
1,note_on,76,92,0
1,note_on,76,0,480
1,note_on,88,0,0
1,note_on,80,75,0
1,note_on,68,64,0
1,note_on,68,0,480
1,note_on,80,0,0
1,note_on,81,82,0
1,note_on,69,69,0
1,note_on,69,0,480
1,note_on,81,0,0
1,note_on,83,89,0
1,note_on,71,75,0
1,note_on,71,0,480
1,note_on,83,0,0
1,note_on,84,95,0
1,note_on,72,80,0
1,note_on,72,0,960
1,note_on,84,0,0
1,note_on,86,95,0
1,note_on,74,80,0
1,note_on,74,0,480
1,note_on,86,0,0
1,note_on,76,76,0
1,note_on,88,91,0
1,note_on,88,0,480
1,note_on,76,0,0
1,note_on,74,59,0
1,note_on,79,70,0
1,note_on,79,0,900
1,note_on,74,0,0
1,note_on,83,58,0
1,note_on,83,0,60
1,note_on,81,66,0
1,note_on,78,66,0
1,note_on,81,0,720
1,note_on,79,56,0
1,note_on,79,0,240
1,note_on,78,0,0
1,note_on,79,66,0
1,note_on,79,0,480
1,note_on,83,57,960
1,note_on,83,0,160
1,note_on,87,61,0
1,note_on,87,0,160
1,note_on,88,61,0
1,note_on,88,0,160
1,note_on,86,58,0
1,note_on,86,0,120
1,note_on,86,49,360
1,note_on,86,0,120
1,note_on,86,49,360
1,note_on,86,0,120
1,note_on,79,57,360
1,note_on,79,0,160
1,note_on,83,44,0
1,note_on,83,0,160
1,note_on,84,44,0
1,note_on,84,0,160
1,note_on,83,58,0
1,note_on,83,0,120
1,note_on,83,49,360
1,note_on,83,0,120
1,note_on,83,49,360
1,note_on,83,0,120
1,note_on,76,57,360
1,note_on,76,0,160
1,note_on,80,44,0
1,note_on,80,0,160
1,note_on,81,44,0
1,note_on,81,0,160
1,note_on,79,58,0
1,note_on,79,0,120
1,note_on,79,49,360
1,note_on,79,0,120
1,note_on,79,49,360
1,note_on,79,0,120
1,note_on,83,61,360
1,note_on,83,0,360
1,note_on,79,54,0
1,note_on,79,0,120
1,note_on,76,62,0
1,note_on,76,0,120
1,note_on,84,61,360
1,note_on,84,0,360
1,note_on,81,53,0
1,note_on,81,0,120
1,note_on,78,61,0
1,note_on,78,0,120
1,note_on,81,60,360
1,note_on,81,0,360
1,note_on,78,54,0
1,note_on,78,0,120
1,note_on,79,61,0
1,note_on,79,0,120
1,note_on,83,88,1320
1,note_on,83,0,160
1,note_on,87,61,0
1,note_on,87,0,160
1,note_on,88,61,0
1,note_on,88,0,160
1,note_on,81,72,0
1,note_on,81,0,160
1,note_on,85,47,0
1,note_on,85,0,160
1,note_on,86,47,0
1,note_on,86,0,160
1,note_on,81,66,0
1,note_on,81,0,160
1,note_on,85,47,0
1,note_on,85,0,160
1,note_on,86,47,0
1,note_on,86,0,160
1,note_on,81,66,0
1,note_on,81,0,160
1,note_on,85,51,0
1,note_on,85,0,160
1,note_on,86,52,0
1,note_on,86,0,160
1,note_on,83,88,0
1,note_on,83,0,160
1,note_on,87,61,0
1,note_on,87,0,160
1,note_on,88,61,0
1,note_on,88,0,160
1,note_on,81,69,0
1,note_on,81,0,160
1,note_on,85,54,0
1,note_on,85,0,160
1,note_on,86,55,0
1,note_on,86,0,160
1,note_on,81,70,0
1,note_on,81,0,160
1,note_on,85,47,0
1,note_on,85,0,160
1,note_on,86,47,0
1,note_on,86,0,160
1,note_on,81,67,0
1,note_on,81,0,160
1,note_on,85,46,0
1,note_on,85,0,160
1,note_on,86,49,0
1,note_on,86,0,160
1,note_on,79,64,0
1,note_on,79,0,160
1,note_on,83,50,0
1,note_on,83,0,160
1,note_on,84,50,0
1,note_on,84,0,160
1,note_on,78,70,0
1,note_on,78,0,160
1,note_on,82,50,0
1,note_on,82,0,160
1,note_on,83,50,0
1,note_on,83,0,160
1,note_on,78,66,0
1,note_on,78,0,160
1,note_on,82,46,0
1,note_on,82,0,160
1,note_on,83,46,0
1,note_on,83,0,160
1,note_on,78,64,0
1,note_on,78,0,160
1,note_on,82,46,0
1,note_on,82,0,160
1,note_on,83,46,0
1,note_on,83,0,160
1,note_on,79,75,0
1,note_on,79,0,160
1,note_on,83,54,0
1,note_on,83,0,160
1,note_on,84,54,0
1,note_on,84,0,160
1,note_on,78,72,0
1,note_on,78,0,160
1,note_on,82,50,0
1,note_on,82,0,160
1,note_on,83,50,0
1,note_on,83,0,160
1,note_on,78,66,0
1,note_on,78,0,160
1,note_on,82,47,0
1,note_on,82,0,160
1,note_on,83,47,0
1,note_on,83,0,160
1,note_on,78,64,0
1,note_on,78,0,160
1,note_on,82,47,0
1,note_on,82,0,160
1,note_on,83,48,0
1,note_on,83,0,160
1,note_on,76,70,0
1,note_on,76,0,160
1,note_on,80,54,0
1,note_on,80,0,160
1,note_on,81,54,0
1,note_on,81,0,160
1,note_on,74,59,0
1,note_on,74,0,160
1,note_on,78,48,0
1,note_on,78,0,160
1,note_on,79,46,0
1,note_on,79,0,160
1,note_on,74,61,0
1,note_on,74,0,160
1,note_on,78,47,0
1,note_on,78,0,160
1,note_on,79,50,0
1,note_on,79,0,160
1,note_on,74,62,0
1,note_on,74,0,160
1,note_on,78,49,0
1,note_on,78,0,160
1,note_on,79,49,0
1,note_on,79,0,160
1,note_on,76,70,0
1,note_on,76,0,160
1,note_on,80,54,0
1,note_on,80,0,160
1,note_on,81,54,0
1,note_on,81,0,160
1,note_on,74,59,0
1,note_on,74,0,160
1,note_on,78,48,0
1,note_on,78,0,160
1,note_on,79,46,0
1,note_on,79,0,160
1,note_on,74,61,0
1,note_on,74,0,160
1,note_on,78,47,0
1,note_on,78,0,160
1,note_on,79,50,0
1,note_on,79,0,160
1,note_on,74,62,0
1,note_on,74,0,160
1,note_on,78,49,0
1,note_on,78,0,160
1,note_on,79,49,0
1,note_on,79,0,160
1,note_on,76,70,0
1,note_on,76,0,160
1,note_on,80,54,0
1,note_on,80,0,160
1,note_on,81,54,0
1,note_on,81,0,160
1,note_on,74,72,0
1,note_on,74,0,160
1,note_on,78,56,0
1,note_on,78,0,160
1,note_on,79,56,0
1,note_on,79,0,160
1,note_on,74,73,0
1,note_on,74,0,160
1,note_on,80,62,0
1,note_on,80,0,160
1,note_on,81,62,0
1,note_on,81,0,160
1,note_on,74,80,0
1,note_on,74,0,160
1,note_on,82,69,0
1,note_on,82,0,160
1,note_on,83,65,0
1,note_on,83,0,160
1,note_on,74,83,0
1,note_on,74,0,160
1,note_on,83,74,0
1,note_on,83,0,160
1,note_on,84,74,0
1,note_on,84,0,160
1,note_on,74,86,0
1,note_on,74,0,160
1,note_on,85,93,0
1,note_on,85,0,160
1,note_on,86,92,0
1,note_on,86,0,160
1,note_on,84,89,0
1,note_on,84,0,160
1,note_on,83,88,0
1,note_on,83,0,160
1,note_on,81,86,0
1,note_on,81,0,160
1,note_on,79,83,0
1,note_on,79,0,160
1,note_on,78,82,0
1,note_on,78,0,160
1,note_on,76,80,0
1,note_on,76,0,160
1,note_on,74,78,0
1,note_on,74,0,160
1,note_on,72,76,0
1,note_on,72,0,160
1,note_on,71,74,0
1,note_on,71,0,160
1,note_on,69,70,0
1,note_on,69,0,160
1,note_on,76,78,0
1,note_on,76,0,160
1,note_on,74,76,0
1,note_on,74,0,160
1,note_on,72,73,0
1,note_on,72,0,160
1,note_on,71,71,0
1,note_on,71,0,160
1,note_on,69,69,0
1,note_on,69,0,160
1,note_on,67,83,0
1,note_on,67,0,480
1,note_on,66,75,0
1,note_on,66,0,120
1,note_on,67,67,0
1,note_on,67,0,120
1,note_on,66,75,0
1,note_on,66,0,240
1,note_on,85,78,160
1,note_on,85,0,160
1,note_on,86,78,0
1,note_on,86,0,160
1,note_on,84,84,0
1,note_on,84,0,160
1,note_on,83,83,0
1,note_on,83,0,160
1,note_on,81,81,0
1,note_on,81,0,160
1,note_on,79,80,0
1,note_on,79,0,160
1,note_on,78,78,0
1,note_on,78,0,160
1,note_on,76,77,0
1,note_on,76,0,160
1,note_on,74,75,0
1,note_on,74,0,160
1,note_on,72,73,0
1,note_on,72,0,160
1,note_on,71,72,0
1,note_on,71,0,160
1,note_on,69,70,0
1,note_on,69,0,160
1,note_on,76,78,0
1,note_on,76,0,160
1,note_on,74,76,0
1,note_on,74,0,160
1,note_on,72,73,0
1,note_on,72,0,160
1,note_on,71,71,0
1,note_on,71,0,160
1,note_on,69,69,0
1,note_on,69,0,160
1,note_on,67,83,0
1,note_on,67,0,480
1,note_on,66,75,0
1,note_on,66,0,120
1,note_on,67,67,0
1,note_on,67,0,120
1,note_on,66,75,0
1,note_on,66,0,240
1,note_on,67,63,0
1,note_on,67,0,480
1,note_on,74,57,960
1,note_on,74,0,360
1,note_on,78,57,0
1,note_on,78,0,120
1,note_on,79,64,0
1,note_on,79,0,120
1,note_on,79,57,360
1,note_on,79,0,120
1,note_on,79,57,360
1,note_on,79,0,120
1,note_on,83,54,120
1,note_on,83,0,80
1,note_on,81,51,0
1,note_on,81,0,80
1,note_on,79,51,0
1,note_on,79,0,80
1,note_on,81,61,0
1,note_on,81,0,360
1,note_on,86,57,0
1,note_on,86,0,120
1,note_on,83,63,0
1,note_on,83,0,120
1,note_on,79,57,360
1,note_on,79,0,120
1,note_on,79,57,360
1,note_on,79,0,120
1,note_on,74,81,360
1,note_on,74,0,360
1,note_on,78,81,0
1,note_on,78,0,120
1,note_on,79,91,0
1,note_on,79,0,120
1,note_on,79,81,360
1,note_on,79,0,120
1,note_on,79,81,360
1,note_on,79,0,120
1,note_on,83,77,120
1,note_on,83,0,80
1,note_on,81,72,0
1,note_on,81,0,80
1,note_on,79,72,0
1,note_on,79,0,80
1,note_on,81,86,0
1,note_on,81,0,360
1,note_on,83,81,0
1,note_on,83,0,120
1,note_on,79,91,0
1,note_on,79,0,480
1,note_on,74,81,480
1,note_on,71,81,0
1,note_on,71,0,480
1,note_on,74,0,0
1,note_on,71,81,480
1,note_on,67,81,0
1,note_on,67,0,480
1,note_on,71,0,0
1,note_on,79,50,960
1,note_on,79,0,360
1,note_on,81,47,0
1,note_on,81,0,120
1,note_on,77,58,0
1,note_on,77,0,120
1,note_on,77,50,360
1,note_on,77,0,360
1,note_on,79,48,0
1,note_on,79,0,120
1,note_on,76,58,0
1,note_on,76,0,120
1,note_on,76,50,360
1,note_on,76,0,360
1,note_on,77,50,0
1,note_on,77,0,120
1,note_on,74,59,0
1,note_on,74,0,120
1,note_on,74,50,360
1,note_on,74,0,360
1,note_on,76,47,0
1,note_on,76,0,120
1,note_on,72,57,0
1,note_on,72,0,120
1,note_on,76,63,360
1,note_on,72,53,0
1,note_on,76,0,360
1,note_on,77,57,0
1,note_on,77,0,120
1,note_on,72,0,0
1,note_on,71,56,0
1,note_on,74,67,0
1,note_on,74,0,120
1,note_on,71,0,0
1,note_on,71,53,360
1,note_on,74,63,0
1,note_on,74,0,360
1,note_on,76,60,0
1,note_on,76,0,120
1,note_on,71,0,0
1,note_on,69,56,0
1,note_on,72,67,0
1,note_on,72,0,120
1,note_on,69,0,0
1,note_on,72,63,360
1,note_on,69,53,0
1,note_on,72,0,360
1,note_on,74,60,0
1,note_on,74,0,120
1,note_on,69,0,0
1,note_on,71,67,0
1,note_on,68,56,0
1,note_on,68,0,1440
1,note_on,71,0,0
1,note_on,77,71,0
1,note_on,77,0,120
1,note_on,79,73,0
1,note_on,79,0,120
1,note_on,81,75,0
1,note_on,81,0,120
1,note_on,82,78,0
1,note_on,82,0,120
1,note_on,84,83,0
1,note_on,84,0,120
1,note_on,84,75,360
1,note_on,84,0,120
1,note_on,84,76,360
1,note_on,84,0,120
1,note_on,88,78,300
1,note_on,88,0,60
1,note_on,89,92,0
1,note_on,89,0,480
1,note_on,84,85,0
1,note_on,84,0,120
1,note_on,84,76,360
1,note_on,84,0,120
1,note_on,84,76,360
1,note_on,84,0,120
1,note_on,82,66,360
1,note_on,82,0,120
1,note_on,81,68,0
1,note_on,81,0,120
1,note_on,79,71,0
1,note_on,79,0,120
1,note_on,77,73,0
1,note_on,77,0,120
1,note_on,76,81,0
1,note_on,76,0,120
1,note_on,76,73,360
1,note_on,76,0,120
1,note_on,77,81,360
1,note_on,77,0,120
1,note_on,77,73,360
1,note_on,77,0,120
1,note_on,79,79,360
1,note_on,79,0,480
1,note_on,72,75,960
1,note_on,72,0,360
1,note_on,79,67,0
1,note_on,79,0,120
1,note_on,82,78,0
1,note_on,82,0,120
1,note_on,82,71,360
1,note_on,82,0,360
1,note_on,84,66,0
1,note_on,84,0,120
1,note_on,81,78,0
1,note_on,81,0,120
1,note_on,81,72,360
1,note_on,81,0,360
1,note_on,82,65,0
1,note_on,82,0,120
1,note_on,79,78,0
1,note_on,79,0,120
1,note_on,79,65,360
1,note_on,79,0,360
1,note_on,81,61,0
1,note_on,81,0,120
1,note_on,77,74,0
1,note_on,77,0,120
1,note_on,77,67,360
1,note_on,77,0,120
1,note_on,79,74,360
1,note_on,79,0,120
1,note_on,79,67,360
1,note_on,79,0,120
1,note_on,76,75,360
1,note_on,76,0,120
1,note_on,76,67,360
1,note_on,76,0,120
1,note_on,77,66,360
1,note_on,77,0,160
1,note_on,72,47,0
1,note_on,72,0,160
1,note_on,69,47,0
1,note_on,69,0,160
1,note_on,77,67,0
1,note_on,77,0,160
1,note_on,72,48,0
1,note_on,72,0,160
1,note_on,69,48,0
1,note_on,69,0,160
1,note_on,77,65,0
1,note_on,77,0,160
1,note_on,72,47,0
1,note_on,72,0,160
1,note_on,69,47,0
1,note_on,69,0,160
1,note_on,76,69,0
1,note_on,76,0,160
1,note_on,72,56,0
1,note_on,72,0,160
1,note_on,70,56,0
1,note_on,70,0,160
1,note_on,77,66,0
1,note_on,77,0,160
1,note_on,72,47,0
1,note_on,72,0,160
1,note_on,69,47,0
1,note_on,69,0,160
1,note_on,77,67,0
1,note_on,77,0,160
1,note_on,72,48,0
1,note_on,72,0,160
1,note_on,69,48,0
1,note_on,69,0,160
1,note_on,77,65,0
1,note_on,77,0,160
1,note_on,72,47,0
1,note_on,72,0,160
1,note_on,69,47,0
1,note_on,69,0,160
1,note_on,76,69,0
1,note_on,76,0,160
1,note_on,72,56,0
1,note_on,72,0,160
1,note_on,70,56,0
1,note_on,70,0,160
1,note_on,77,66,0
1,note_on,77,0,160
1,note_on,72,47,0
1,note_on,72,0,160
1,note_on,69,47,0
1,note_on,69,0,160
1,note_on,77,67,0
1,note_on,77,0,160
1,note_on,72,48,0
1,note_on,72,0,160
1,note_on,69,48,0
1,note_on,69,0,160
1,note_on,77,65,0
1,note_on,77,0,160
1,note_on,72,47,0
1,note_on,72,0,160
1,note_on,69,47,0
1,note_on,69,0,160
1,note_on,78,69,0
1,note_on,78,0,160
1,note_on,74,56,0
1,note_on,74,0,160
1,note_on,72,56,0
1,note_on,72,0,160
1,note_on,79,66,0
1,note_on,79,0,160
1,note_on,74,51,0
1,note_on,74,0,160
1,note_on,71,51,0
1,note_on,71,0,160
1,note_on,79,67,0
1,note_on,79,0,160
1,note_on,74,51,0
1,note_on,74,0,160
1,note_on,71,51,0
1,note_on,71,0,160
1,note_on,79,65,0
1,note_on,79,0,160
1,note_on,74,50,0
1,note_on,74,0,160
1,note_on,71,50,0
1,note_on,71,0,160
1,note_on,80,69,0
1,note_on,80,0,160
1,note_on,76,56,0
1,note_on,76,0,160
1,note_on,74,56,0
1,note_on,74,0,160
1,note_on,81,67,0
1,note_on,81,0,160
1,note_on,76,53,0
1,note_on,76,0,160
1,note_on,72,53,0
1,note_on,72,0,160
1,note_on,81,68,0
1,note_on,81,0,160
1,note_on,76,54,0
1,note_on,76,0,160
1,note_on,72,54,0
1,note_on,72,0,160
1,note_on,81,68,0
1,note_on,81,0,160
1,note_on,76,52,0
1,note_on,76,0,160
1,note_on,72,52,0
1,note_on,72,0,160
1,note_on,83,69,0
1,note_on,83,0,160
1,note_on,80,56,0
1,note_on,80,0,160
1,note_on,76,56,0
1,note_on,76,0,160
1,note_on,84,68,0
1,note_on,84,0,160
1,note_on,81,52,0
1,note_on,81,0,160
1,note_on,76,54,0
1,note_on,76,0,160
1,note_on,86,73,0
1,note_on,86,0,160
1,note_on,83,54,0
1,note_on,83,0,160
1,note_on,76,54,0
1,note_on,76,0,160
1,note_on,88,74,0
1,note_on,88,0,160
1,note_on,84,54,0
1,note_on,84,0,160
1,note_on,76,54,0
1,note_on,76,0,160
1,note_on,84,70,0
1,note_on,84,0,160
1,note_on,81,53,0
1,note_on,81,0,160
1,note_on,76,54,0
1,note_on,76,0,160
1,note_on,83,62,0
1,note_on,83,0,160
1,note_on,80,47,0
1,note_on,80,0,160
1,note_on,76,47,0
1,note_on,76,0,160
1,note_on,84,61,0
1,note_on,84,0,160
1,note_on,81,46,0
1,note_on,81,0,160
1,note_on,76,46,0
1,note_on,76,0,160
1,note_on,83,61,0
1,note_on,83,0,160
1,note_on,80,47,0
1,note_on,80,0,160
1,note_on,76,48,0
1,note_on,76,0,160
1,note_on,88,59,0
1,note_on,88,0,160
1,note_on,83,45,0
1,note_on,83,0,160
1,note_on,80,45,0
1,note_on,80,0,160
1,note_on,88,57,0
1,note_on,88,0,160
1,note_on,84,44,0
1,note_on,84,0,160
1,note_on,81,45,0
1,note_on,81,0,160
1,note_on,88,57,0
1,note_on,88,0,160
1,note_on,84,41,0
1,note_on,84,0,160
1,note_on,81,41,0
1,note_on,81,0,160
1,note_on,86,56,0
1,note_on,86,0,160
1,note_on,83,39,0
1,note_on,83,0,160
1,note_on,81,39,0
1,note_on,81,0,160
1,note_on,86,58,0
1,note_on,86,0,160
1,note_on,83,39,0
1,note_on,83,0,160
1,note_on,81,40,0
1,note_on,81,0,160
1,note_on,86,62,0
1,note_on,86,0,160
1,note_on,83,44,0
1,note_on,83,0,160
1,note_on,80,46,0
1,note_on,80,0,160
1,note_on,86,55,0
1,note_on,86,0,160
1,note_on,83,42,0
1,note_on,83,0,160
1,note_on,80,43,0
1,note_on,80,0,160
1,note_on,85,58,0
1,note_on,85,0,160
1,note_on,81,44,0
1,note_on,81,0,160
1,note_on,79,45,0
1,note_on,79,0,160
1,note_on,85,55,0
1,note_on,85,0,160
1,note_on,81,46,0
1,note_on,81,0,160
1,note_on,79,46,0
1,note_on,79,0,160
1,note_on,84,66,0
1,note_on,84,0,160
1,note_on,81,48,0
1,note_on,81,0,160
1,note_on,78,51,0
1,note_on,78,0,160
1,note_on,84,60,0
1,note_on,84,0,160
1,note_on,81,47,0
1,note_on,81,0,160
1,note_on,78,47,0
1,note_on,78,0,160
1,note_on,83,67,0
1,note_on,83,0,160
1,note_on,79,46,0
1,note_on,79,0,160
1,note_on,77,46,0
1,note_on,77,0,160
1,note_on,83,61,0
1,note_on,83,0,160
1,note_on,79,47,0
1,note_on,79,0,160
1,note_on,77,48,0
1,note_on,77,0,160
1,note_on,82,67,0
1,note_on,82,0,160
1,note_on,79,53,0
1,note_on,79,0,160
1,note_on,76,55,0
1,note_on,76,0,160
1,note_on,82,66,0
1,note_on,82,0,160
1,note_on,79,51,0
1,note_on,79,0,160
1,note_on,76,51,0
1,note_on,76,0,160
1,note_on,81,67,0
1,note_on,81,0,160
1,note_on,77,50,0
1,note_on,77,0,160
1,note_on,72,50,0
1,note_on,72,0,160
1,note_on,81,66,0
1,note_on,81,0,160
1,note_on,77,51,0
1,note_on,77,0,160
1,note_on,72,52,0
1,note_on,72,0,160
1,note_on,82,73,0
1,note_on,82,0,160
1,note_on,79,57,0
1,note_on,79,0,160
1,note_on,72,60,0
1,note_on,72,0,160
1,note_on,82,72,0
1,note_on,82,0,160
1,note_on,79,55,0
1,note_on,79,0,160
1,note_on,72,55,0
1,note_on,72,0,160
1,note_on,81,73,0
1,note_on,81,0,160
1,note_on,77,54,0
1,note_on,77,0,160
1,note_on,72,54,0
1,note_on,72,0,160
1,note_on,81,71,0
1,note_on,81,0,160
1,note_on,77,55,0
1,note_on,77,0,160
1,note_on,72,57,0
1,note_on,72,0,160
1,note_on,81,82,0
1,note_on,81,0,160
1,note_on,77,65,0
1,note_on,77,0,160
1,note_on,72,67,0
1,note_on,72,0,160
1,note_on,81,80,0
1,note_on,81,0,160
1,note_on,77,61,0
1,note_on,77,0,160
1,note_on,72,61,0
1,note_on,72,0,160
1,note_on,81,80,0
1,note_on,81,0,160
1,note_on,76,58,0
1,note_on,76,0,160
1,note_on,72,58,0
1,note_on,72,0,160
1,note_on,81,76,0
1,note_on,81,0,160
1,note_on,76,58,0
1,note_on,76,0,160
1,note_on,72,60,0
1,note_on,72,0,160
1,note_on,81,82,0
1,note_on,81,0,160
1,note_on,78,65,0
1,note_on,78,0,160
1,note_on,72,67,0
1,note_on,72,0,160
1,note_on,81,80,0
1,note_on,81,0,160
1,note_on,78,61,0
1,note_on,78,0,160
1,note_on,72,61,0
1,note_on,72,0,160
1,note_on,81,80,0
1,note_on,81,0,160
1,note_on,78,58,0
1,note_on,78,0,160
1,note_on,72,58,0
1,note_on,72,0,160
1,note_on,81,76,0
1,note_on,81,0,160
1,note_on,78,58,0
1,note_on,78,0,160
1,note_on,72,60,0
1,note_on,72,0,160
1,note_on,81,82,0
1,note_on,81,0,160
1,note_on,78,65,0
1,note_on,78,0,160
1,note_on,72,67,0
1,note_on,72,0,160
1,note_on,81,80,0
1,note_on,81,0,160
1,note_on,78,61,0
1,note_on,78,0,160
1,note_on,72,61,0
1,note_on,72,0,160
1,note_on,81,80,0
1,note_on,81,0,160
1,note_on,78,58,0
1,note_on,78,0,160
1,note_on,72,58,0
1,note_on,72,0,160
1,note_on,81,76,0
1,note_on,81,0,160
1,note_on,78,58,0
1,note_on,78,0,160
1,note_on,72,60,0
1,note_on,72,0,160
1,note_on,81,89,0
1,note_on,81,0,160
1,note_on,76,66,0
1,note_on,76,0,160
1,note_on,72,65,0
1,note_on,72,0,160
1,note_on,81,84,0
1,note_on,81,0,160
1,note_on,76,66,0
1,note_on,76,0,160
1,note_on,72,66,0
1,note_on,72,0,160
1,note_on,80,86,0
1,note_on,74,63,155
1,note_on,80,0,5
1,note_on,74,0,155
1,note_on,71,63,5
1,note_on,71,0,160
1,note_on,80,82,0
1,note_on,80,0,160
1,note_on,74,60,0
1,note_on,74,0,160
1,note_on,71,64,0
1,note_on,71,0,160
1,note_on,77,75,0
1,note_on,77,0,160
1,note_on,72,55,0
1,note_on,72,0,160
1,note_on,69,54,0
1,note_on,69,0,160
1,note_on,77,74,0
1,note_on,77,0,160
1,note_on,72,53,0
1,note_on,72,0,160
1,note_on,69,54,0
1,note_on,69,0,160
1,note_on,76,72,0
1,note_on,76,0,160
1,note_on,71,52,0
1,note_on,71,0,160
1,note_on,68,52,0
1,note_on,68,0,160
1,note_on,76,68,0
1,note_on,76,0,160
1,note_on,71,52,0
1,note_on,71,0,160
1,note_on,68,55,0
1,note_on,68,0,160
1,note_on,75,71,0
1,note_on,75,0,160
1,note_on,69,49,0
1,note_on,69,0,160
1,note_on,66,49,0
1,note_on,66,0,160
1,note_on,75,67,0
1,note_on,75,0,160
1,note_on,69,47,0
1,note_on,69,0,160
1,note_on,66,53,0
1,note_on,66,0,160
1,note_on,74,69,0
1,note_on,74,0,160
1,note_on,71,50,0
1,note_on,71,0,160
1,note_on,68,50,0
1,note_on,68,0,160
1,note_on,74,63,0
1,note_on,74,0,160
1,note_on,71,47,0
1,note_on,71,0,160
1,note_on,68,46,0
1,note_on,68,0,160
1,note_on,72,58,0
1,note_on,72,0,160
1,note_on,69,44,0
1,note_on,69,0,160
1,note_on,64,47,0
1,note_on,64,0,160
1,note_on,72,53,0
1,note_on,69,43,155
1,note_on,72,0,5
1,note_on,69,0,155
1,note_on,64,45,5
1,note_on,64,0,160
1,note_on,69,58,0
1,note_on,69,0,160
1,note_on,64,46,0
1,note_on,64,0,160
1,note_on,60,46,0
1,note_on,60,0,160
1,note_on,69,53,0
1,note_on,69,0,160
1,note_on,64,44,0
1,note_on,64,0,160
1,note_on,60,44,0
1,note_on,60,0,160
1,note_on,70,58,0
1,note_on,70,0,160
1,note_on,65,47,0
1,note_on,65,0,160
1,note_on,62,47,0
1,note_on,62,0,160
1,note_on,70,53,0
1,note_on,70,0,160
1,note_on,65,45,0
1,note_on,65,0,160
1,note_on,62,45,0
1,note_on,62,0,160
1,note_on,68,54,0
1,note_on,68,0,160
1,note_on,62,43,0
1,note_on,62,0,160
1,note_on,59,43,0
1,note_on,59,0,160
1,note_on,68,53,0
1,note_on,68,0,160
1,note_on,62,38,0
1,note_on,62,0,160
1,note_on,59,38,0
1,note_on,59,0,160
1,note_on,67,43,0
1,note_on,67,0,160
1,note_on,64,36,0
1,note_on,64,0,160
1,note_on,61,36,0
1,note_on,61,0,160
1,note_on,67,43,0
1,note_on,67,0,160
1,note_on,64,37,0
1,note_on,64,0,160
1,note_on,61,37,0
1,note_on,61,0,160
1,note_on,67,48,0
1,note_on,67,0,160
1,note_on,64,35,0
1,note_on,64,0,160
1,note_on,61,36,0
1,note_on,61,0,160
1,note_on,67,48,0
1,note_on,67,0,160
1,note_on,64,36,0
1,note_on,64,0,160
1,note_on,61,37,0
1,note_on,61,0,160
1,note_on,61,53,0
1,note_on,64,53,0
1,note_on,67,53,0
1,note_on,67,0,960
1,note_on,64,0,0
1,note_on,61,0,0
1,note_on,65,48,0
1,note_on,65,0,480
1,note_on,64,45,0
1,note_on,64,0,480
1,note_on,65,41,0
1,note_on,65,0,160
1,note_on,62,32,0
1,note_on,62,0,160
1,note_on,57,33,0
1,note_on,57,0,160
1,note_on,65,41,0
1,note_on,65,0,160
1,note_on,62,35,0
1,note_on,62,0,160
1,note_on,57,35,0
1,note_on,57,0,160
1,note_on,65,41,0
1,note_on,65,0,160
1,note_on,62,35,0
1,note_on,62,0,160
1,note_on,57,35,0
1,note_on,57,0,160
1,note_on,65,41,0
1,note_on,65,0,160
1,note_on,62,34,0
1,note_on,62,0,160
1,note_on,57,34,0
1,note_on,57,0,160
1,note_on,65,41,0
1,note_on,65,0,160
1,note_on,62,32,0
1,note_on,62,0,160
1,note_on,55,33,0
1,note_on,55,0,160
1,note_on,65,41,0
1,note_on,65,0,160
1,note_on,62,35,0
1,note_on,62,0,160
1,note_on,55,35,0
1,note_on,55,0,160
1,note_on,65,41,0
1,note_on,65,0,160
1,note_on,62,35,0
1,note_on,62,0,160
1,note_on,55,35,0
1,note_on,55,0,160
1,note_on,65,41,0
1,note_on,65,0,160
1,note_on,62,34,0
1,note_on,62,0,160
1,note_on,55,34,0
1,note_on,55,0,160
1,note_on,62,34,0
1,note_on,65,41,0
1,note_on,55,34,0
1,note_on,55,0,1200
1,note_on,65,0,0
1,note_on,62,0,0
1,note_on,60,50,240
1,note_on,60,0,360
1,note_on,64,50,0
1,note_on,64,0,120
1,note_on,67,57,0
1,note_on,67,0,120
1,note_on,67,50,360
1,note_on,67,0,120
1,note_on,67,50,360
1,note_on,67,0,120
1,note_on,71,60,300
1,note_on,71,0,60
1,note_on,72,71,0
1,note_on,72,0,120
1,note_on,67,50,360
1,note_on,67,0,120
1,note_on,67,43,360
1,note_on,67,0,120
1,note_on,67,43,360
1,note_on,67,0,120
1,note_on,64,50,360
1,note_on,64,0,360
1,note_on,60,50,0
1,note_on,60,0,120
1,note_on,59,57,0
1,note_on,59,0,120
1,note_on,59,53,360
1,note_on,59,0,120
1,note_on,60,57,360
1,note_on,60,0,120
1,note_on,60,52,360
1,note_on,60,0,120
1,note_on,62,57,360
1,note_on,62,0,480
1,note_on,55,50,960
1,note_on,55,0,360
1,note_on,62,47,0
1,note_on,62,0,120
1,note_on,65,58,0
1,note_on,65,0,120
1,note_on,65,50,360
1,note_on,65,0,360
1,note_on,67,48,0
1,note_on,67,0,120
1,note_on,64,58,0
1,note_on,64,0,120
1,note_on,64,50,360
1,note_on,64,0,360
1,note_on,65,50,0
1,note_on,65,0,120
1,note_on,62,59,0
1,note_on,62,0,120
1,note_on,62,50,360
1,note_on,62,0,360
1,note_on,64,47,0
1,note_on,64,0,120
1,note_on,60,57,0
1,note_on,60,0,120
1,note_on,60,52,360
1,note_on,60,0,120
1,note_on,62,57,360
1,note_on,62,0,120
1,note_on,62,52,360
1,note_on,62,0,120
1,note_on,59,58,360
1,note_on,59,0,120
1,note_on,59,52,360
1,note_on,59,0,120
1,note_on,72,71,1800
1,note_on,72,0,120
1,note_on,74,73,0
1,note_on,74,0,120
1,note_on,75,75,0
1,note_on,75,0,120
1,note_on,77,78,0
1,note_on,77,0,120
1,note_on,79,83,0
1,note_on,79,0,120
1,note_on,79,75,360
1,note_on,79,0,120
1,note_on,79,76,360
1,note_on,79,0,120
1,note_on,83,78,300
1,note_on,83,0,60
1,note_on,84,92,0
1,note_on,84,0,480
1,note_on,79,85,0
1,note_on,79,0,120
1,note_on,79,74,360
1,note_on,79,0,120
1,note_on,79,74,360
1,note_on,79,0,120
1,note_on,72,71,360
1,note_on,72,0,120
1,note_on,74,73,0
1,note_on,74,0,120
1,note_on,75,75,0
1,note_on,75,0,120
1,note_on,77,78,0
1,note_on,77,0,120
1,note_on,79,83,0
1,note_on,79,0,120
1,note_on,79,75,360
1,note_on,79,0,120
1,note_on,79,76,360
1,note_on,79,0,120
1,note_on,83,78,300
1,note_on,83,0,60
1,note_on,84,92,0
1,note_on,84,0,480
1,note_on,79,85,0
1,note_on,79,0,120
1,note_on,79,74,360
1,note_on,79,0,120
1,note_on,79,74,360
1,note_on,79,0,120
1,note_on,73,71,360
1,note_on,73,0,120
1,note_on,74,73,0
1,note_on,74,0,120
1,note_on,76,75,0
1,note_on,76,0,120
1,note_on,77,78,0
1,note_on,77,0,120
1,note_on,79,85,0
1,note_on,79,0,120
1,note_on,79,76,360
1,note_on,79,0,120
1,note_on,79,76,360
1,note_on,79,0,120
1,note_on,79,80,360
1,note_on,79,0,160
1,note_on,85,73,0
1,note_on,85,0,160
1,note_on,88,73,0
1,note_on,88,0,160
1,note_on,77,85,0
1,note_on,77,0,120
1,note_on,77,74,360
1,note_on,77,0,120
1,note_on,77,74,360
1,note_on,77,0,120
1,note_on,77,80,360
1,note_on,77,0,160
1,note_on,81,73,0
1,note_on,81,0,160
1,note_on,86,73,0
1,note_on,86,0,160
1,note_on,77,75,0
1,note_on,77,0,480
1,note_on,77,69,0
1,note_on,77,0,360
1,note_on,79,65,0
1,note_on,79,0,120
1,note_on,76,75,0
1,note_on,76,0,120
1,note_on,76,75,360
1,note_on,76,0,360
1,note_on,77,70,0
1,note_on,77,0,120
1,note_on,74,75,0
1,note_on,74,0,120
1,note_on,74,69,360
1,note_on,74,0,360
1,note_on,76,65,0
1,note_on,76,0,120
1,note_on,72,75,0
1,note_on,72,0,120
1,note_on,72,57,360
1,note_on,72,0,160
1,note_on,76,52,0
1,note_on,76,0,160
1,note_on,79,53,0
1,note_on,79,0,160
1,note_on,77,57,0
1,note_on,77,0,240
1,note_on,79,57,0
1,note_on,79,0,80
1,note_on,77,49,0
1,note_on,77,0,80
1,note_on,76,49,0
1,note_on,76,0,80
1,note_on,77,52,0
1,note_on,77,0,360
1,note_on,79,49,0
1,note_on,79,0,120
1,note_on,76,57,0
1,note_on,76,0,240
1,note_on,77,57,0
1,note_on,77,0,80
1,note_on,76,50,0
1,note_on,76,0,80
1,note_on,74,50,0
1,note_on,74,0,80
1,note_on,76,57,0
1,note_on,76,0,360
1,note_on,77,53,0
1,note_on,77,0,120
1,note_on,74,57,0
1,note_on,74,0,240
1,note_on,76,61,0
1,note_on,76,0,80
1,note_on,74,53,0
1,note_on,74,0,80
1,note_on,72,53,0
1,note_on,72,0,80
1,note_on,74,53,0
1,note_on,74,0,360
1,note_on,76,55,0
1,note_on,76,0,120
1,note_on,72,65,0
1,note_on,72,0,240
1,note_on,74,61,0
1,note_on,74,0,80
1,note_on,72,55,0
1,note_on,72,0,80
1,note_on,71,56,0
1,note_on,71,0,80
1,note_on,72,57,0
1,note_on,72,0,360
1,note_on,74,61,0
1,note_on,74,0,120
1,note_on,71,74,0
1,note_on,71,0,480
1,note_on,67,68,360
1,note_on,67,0,120
1,note_on,71,79,0
1,note_on,71,0,360
1,note_on,67,68,0
1,note_on,67,0,120
1,note_on,74,74,0
1,note_on,74,0,360
1,note_on,71,68,0
1,note_on,71,0,120
1,note_on,79,86,0
1,note_on,79,0,480
1,note_on,55,66,360
1,note_on,55,0,120
1,note_on,59,77,0
1,note_on,59,0,160
1,note_on,55,69,0
1,note_on,55,0,160
1,note_on,59,69,0
1,note_on,59,0,160
1,note_on,62,80,0
1,note_on,62,0,160
1,note_on,59,70,0
1,note_on,59,0,160
1,note_on,62,70,0
1,note_on,62,0,160
1,note_on,67,84,0
1,note_on,67,0,480
1,note_on,43,95,480
1,note_on,43,0,720
1,note_on,43,89,0
1,note_on,43,0,240
1,note_on,43,97,0
1,note_on,43,0,480
1,note_on,69,57,2880
1,note_on,69,0,120
1,note_on,67,50,0
1,note_on,67,0,120
1,note_on,66,50,0
1,note_on,66,0,120
1,note_on,67,50,0
1,note_on,67,0,120
1,note_on,72,63,0
1,note_on,72,0,120
1,note_on,72,53,360
1,note_on,72,0,120
1,note_on,69,60,840
1,note_on,69,0,120
1,note_on,67,53,0
1,note_on,67,0,120
1,note_on,66,53,0
1,note_on,66,0,120
1,note_on,67,53,0
1,note_on,67,0,120
1,note_on,72,68,0
1,note_on,72,0,120
1,note_on,72,57,360
1,note_on,72,0,120
1,note_on,69,64,840
1,note_on,69,0,120
1,note_on,67,57,0
1,note_on,67,0,120
1,note_on,66,57,0
1,note_on,66,0,120
1,note_on,67,57,0
1,note_on,67,0,120
1,note_on,72,73,0
1,note_on,72,0,480
1,note_on,74,78,0
1,note_on,74,0,120
1,note_on,72,65,0
1,note_on,72,0,120
1,note_on,71,66,0
1,note_on,71,0,120
1,note_on,72,66,0
1,note_on,72,0,120
1,note_on,74,80,0
1,note_on,74,0,480
1,note_on,76,82,0
1,note_on,76,0,120
1,note_on,74,68,0
1,note_on,74,0,120
1,note_on,72,68,0
1,note_on,72,0,120
1,note_on,74,69,0
1,note_on,74,0,120
1,note_on,76,85,0
1,note_on,76,0,480
1,note_on,77,86,0
1,note_on,77,0,120
1,note_on,76,75,0
1,note_on,76,0,120
1,note_on,74,75,0
1,note_on,74,0,120
1,note_on,76,76,0
1,note_on,76,0,120
1,note_on,77,85,0
1,note_on,77,0,480
1,note_on,79,87,0
1,note_on,79,0,120
1,note_on,77,75,0
1,note_on,77,0,120
1,note_on,76,78,0
1,note_on,76,0,120
1,note_on,77,76,0
1,note_on,77,0,120
1,note_on,79,98,0
1,note_on,79,0,1440
1,note_on,68,77,0
1,note_on,80,92,0
1,note_on,80,0,480
1,note_on,68,0,0
1,note_on,69,82,0
1,note_on,81,97,0
1,note_on,81,0,480
1,note_on,69,0,0
1,note_on,71,71,0
1,note_on,83,84,0
1,note_on,83,0,480
1,note_on,71,0,0
1,note_on,84,88,0
1,note_on,72,75,0
1,note_on,72,0,480
1,note_on,84,0,0
1,note_on,85,90,0
1,note_on,73,76,0
1,note_on,73,0,480
1,note_on,85,0,0
1,note_on,74,81,0
1,note_on,86,96,0
1,note_on,86,0,480
1,note_on,74,0,0
1,note_on,76,81,0
1,note_on,88,96,0
1,note_on,88,0,480
1,note_on,76,0,0
1,note_on,77,80,0
1,note_on,89,95,0
1,note_on,89,0,480
1,note_on,86,93,0
1,note_on,86,0,480
1,note_on,77,0,0
1,note_on,84,70,0
1,note_on,79,59,0
1,note_on,79,0,900
1,note_on,84,0,0
1,note_on,88,58,0
1,note_on,88,0,60
1,note_on,86,66,0
1,note_on,83,66,0
1,note_on,86,0,720
1,note_on,84,56,0
1,note_on,84,0,240
1,note_on,83,0,0
1,note_on,84,66,0
1,note_on,84,0,480
1,note_on,76,57,960
1,note_on,76,0,160
1,note_on,80,61,0
1,note_on,80,0,160
1,note_on,81,61,0
1,note_on,81,0,160
1,note_on,79,58,0
1,note_on,79,0,120
1,note_on,79,49,360
1,note_on,79,0,120
1,note_on,79,49,360
1,note_on,79,0,120
1,note_on,72,57,360
1,note_on,72,0,160
1,note_on,76,44,0
1,note_on,76,0,160
1,note_on,77,44,0
1,note_on,77,0,160
1,note_on,76,58,0
1,note_on,76,0,120
1,note_on,76,49,360
1,note_on,76,0,120
1,note_on,76,49,360
1,note_on,76,0,120
1,note_on,69,57,360
1,note_on,69,0,160
1,note_on,73,44,0
1,note_on,73,0,160
1,note_on,74,44,0
1,note_on,74,0,160
1,note_on,72,58,0
1,note_on,72,0,120
1,note_on,72,49,360
1,note_on,72,0,120
1,note_on,72,49,360
1,note_on,72,0,120
1,note_on,76,61,360
1,note_on,76,0,360
1,note_on,72,54,0
1,note_on,72,0,120
1,note_on,69,62,0
1,note_on,69,0,120
1,note_on,77,61,360
1,note_on,77,0,360
1,note_on,74,53,0
1,note_on,74,0,120
1,note_on,71,61,0
1,note_on,71,0,120
1,note_on,74,60,360
1,note_on,74,0,360
1,note_on,71,54,0
1,note_on,71,0,120
1,note_on,72,61,0
1,note_on,72,0,120
1,note_on,76,88,1320
1,note_on,76,0,160
1,note_on,80,61,0
1,note_on,80,0,160
1,note_on,81,61,0
1,note_on,81,0,160
1,note_on,74,72,0
1,note_on,74,0,160
1,note_on,78,47,0
1,note_on,78,0,160
1,note_on,79,47,0
1,note_on,79,0,160
1,note_on,74,66,0
1,note_on,74,0,160
1,note_on,78,47,0
1,note_on,78,0,160
1,note_on,79,47,0
1,note_on,79,0,160
1,note_on,74,66,0
1,note_on,74,0,160
1,note_on,78,51,0
1,note_on,78,0,160
1,note_on,79,52,0
1,note_on,79,0,160
1,note_on,76,88,0
1,note_on,76,0,160
1,note_on,80,61,0
1,note_on,80,0,160
1,note_on,81,61,0
1,note_on,81,0,160
1,note_on,74,69,0
1,note_on,74,0,160
1,note_on,78,54,0
1,note_on,78,0,160
1,note_on,79,55,0
1,note_on,79,0,160
1,note_on,74,70,0
1,note_on,74,0,160
1,note_on,78,47,0
1,note_on,78,0,160
1,note_on,79,47,0
1,note_on,79,0,160
1,note_on,74,67,0
1,note_on,74,0,160
1,note_on,78,46,0
1,note_on,78,0,160
1,note_on,79,49,0
1,note_on,79,0,160
1,note_on,72,64,0
1,note_on,72,0,160
1,note_on,76,50,0
1,note_on,76,0,160
1,note_on,77,50,0
1,note_on,77,0,160
1,note_on,71,65,0
1,note_on,71,0,160
1,note_on,75,50,0
1,note_on,75,0,160
1,note_on,76,50,0
1,note_on,76,0,160
1,note_on,71,66,0
1,note_on,71,0,160
1,note_on,75,46,0
1,note_on,75,0,160
1,note_on,76,46,0
1,note_on,76,0,160
1,note_on,71,64,0
1,note_on,71,0,160
1,note_on,75,46,0
1,note_on,75,0,160
1,note_on,76,46,0
1,note_on,76,0,160
1,note_on,72,75,0
1,note_on,72,0,160
1,note_on,76,54,0
1,note_on,76,0,160
1,note_on,77,54,0
1,note_on,77,0,160
1,note_on,71,69,0
1,note_on,71,0,160
1,note_on,75,50,0
1,note_on,75,0,160
1,note_on,76,50,0
1,note_on,76,0,160
1,note_on,71,66,0
1,note_on,71,0,160
1,note_on,75,47,0
1,note_on,75,0,160
1,note_on,76,47,0
1,note_on,76,0,160
1,note_on,71,64,0
1,note_on,71,0,160
1,note_on,75,47,0
1,note_on,75,0,160
1,note_on,76,48,0
1,note_on,76,0,160
1,note_on,69,70,0
1,note_on,69,0,160
1,note_on,73,54,0
1,note_on,73,0,160
1,note_on,74,54,0
1,note_on,74,0,160
1,note_on,67,59,0
1,note_on,67,0,160
1,note_on,71,48,0
1,note_on,71,0,160
1,note_on,72,46,0
1,note_on,72,0,160
1,note_on,67,61,0
1,note_on,67,0,160
1,note_on,71,47,0
1,note_on,71,0,160
1,note_on,72,50,0
1,note_on,72,0,160
1,note_on,67,62,0
1,note_on,67,0,160
1,note_on,71,49,0
1,note_on,71,0,160
1,note_on,72,49,0
1,note_on,72,0,160
1,note_on,69,70,0
1,note_on,69,0,160
1,note_on,73,54,0
1,note_on,73,0,160
1,note_on,74,54,0
1,note_on,74,0,160
1,note_on,67,59,0
1,note_on,67,0,160
1,note_on,71,48,0
1,note_on,71,0,160
1,note_on,72,46,0
1,note_on,72,0,160
1,note_on,67,61,0
1,note_on,67,0,160
1,note_on,71,47,0
1,note_on,71,0,160
1,note_on,72,50,0
1,note_on,72,0,160
1,note_on,67,62,0
1,note_on,67,0,160
1,note_on,71,49,0
1,note_on,71,0,160
1,note_on,72,49,0
1,note_on,72,0,160
1,note_on,69,70,0
1,note_on,69,0,160
1,note_on,73,54,0
1,note_on,73,0,160
1,note_on,74,54,0
1,note_on,74,0,160
1,note_on,67,72,0
1,note_on,67,0,160
1,note_on,71,60,0
1,note_on,71,0,160
1,note_on,72,61,0
1,note_on,72,0,160
1,note_on,67,73,0
1,note_on,67,0,160
1,note_on,73,65,0
1,note_on,73,0,160
1,note_on,74,65,0
1,note_on,74,0,160
1,note_on,67,80,0
1,note_on,67,0,160
1,note_on,75,72,0
1,note_on,75,0,160
1,note_on,76,72,0
1,note_on,76,0,160
1,note_on,67,87,0
1,note_on,67,0,160
1,note_on,76,77,0
1,note_on,76,0,160
1,note_on,77,78,0
1,note_on,77,0,160
1,note_on,67,86,0
1,note_on,67,0,160
1,note_on,78,93,0
1,note_on,78,0,160
1,note_on,79,92,0
1,note_on,79,0,160
1,note_on,77,89,0
1,note_on,77,0,160
1,note_on,76,88,0
1,note_on,76,0,160
1,note_on,74,86,0
1,note_on,74,0,160
1,note_on,72,83,0
1,note_on,72,0,160
1,note_on,71,82,0
1,note_on,71,0,160
1,note_on,69,80,0
1,note_on,69,0,160
1,note_on,67,78,0
1,note_on,67,0,160
1,note_on,65,76,0
1,note_on,65,0,160
1,note_on,64,74,0
1,note_on,64,0,160
1,note_on,62,70,0
1,note_on,62,0,160
1,note_on,69,78,0
1,note_on,69,0,160
1,note_on,67,76,0
1,note_on,67,0,160
1,note_on,65,73,0
1,note_on,65,0,160
1,note_on,64,71,0
1,note_on,64,0,160
1,note_on,62,69,0
1,note_on,62,0,160
1,note_on,60,83,0
1,note_on,60,0,480
1,note_on,59,75,0
1,note_on,59,0,120
1,note_on,60,67,0
1,note_on,60,0,120
1,note_on,59,75,0
1,note_on,59,0,240
1,note_on,78,78,160
1,note_on,78,0,160
1,note_on,79,89,0
1,note_on,79,0,160
1,note_on,77,84,0
1,note_on,77,0,160
1,note_on,76,83,0
1,note_on,76,0,160
1,note_on,74,81,0
1,note_on,74,0,160
1,note_on,72,80,0
1,note_on,72,0,160
1,note_on,71,78,0
1,note_on,71,0,160
1,note_on,69,77,0
1,note_on,69,0,160
1,note_on,67,79,0
1,note_on,67,0,160
1,note_on,65,81,0
1,note_on,65,0,160
1,note_on,64,83,0
1,note_on,64,0,160
1,note_on,62,86,0
1,note_on,62,0,960
1,note_on,81,82,0
1,note_on,72,69,0
1,note_on,75,69,0
1,note_on,78,69,0
1,note_on,78,0,960
1,note_on,81,0,0
1,note_on,72,0,0
1,note_on,75,0,0
1,note_on,72,57,1440
1,note_on,72,0,120
1,note_on,74,60,0
1,note_on,74,0,120
1,note_on,76,62,0
1,note_on,76,0,120
1,note_on,77,65,0
1,note_on,77,0,120
1,note_on,79,75,0
1,note_on,79,0,120
1,note_on,79,64,360
1,note_on,79,0,120
1,note_on,79,64,360
1,note_on,79,0,120
1,note_on,83,78,300
1,note_on,83,0,60
1,note_on,84,92,0
1,note_on,84,0,480
1,note_on,79,85,0
1,note_on,79,0,120
1,note_on,79,67,360
1,note_on,79,0,120
1,note_on,79,67,360
1,note_on,79,0,120
1,note_on,77,67,360
1,note_on,77,0,120
1,note_on,76,54,0
1,note_on,76,0,120
1,note_on,74,54,0
1,note_on,74,0,120
1,note_on,72,58,0
1,note_on,72,0,120
1,note_on,71,70,0
1,note_on,71,0,120
1,note_on,71,59,360
1,note_on,71,0,120
1,note_on,72,66,360
1,note_on,72,0,120
1,note_on,72,57,360
1,note_on,72,0,120
1,note_on,74,70,360
1,note_on,74,0,480
1,note_on,67,70,960
1,note_on,67,0,360
1,note_on,74,54,0
1,note_on,74,0,120
1,note_on,77,67,0
1,note_on,77,0,120
1,note_on,77,58,360
1,note_on,77,0,360
1,note_on,79,55,0
1,note_on,79,0,120
1,note_on,76,67,0
1,note_on,76,0,120
1,note_on,76,58,360
1,note_on,76,0,360
1,note_on,77,58,0
1,note_on,77,0,120
1,note_on,74,68,0
1,note_on,74,0,120
1,note_on,74,58,360
1,note_on,74,0,360
1,note_on,76,54,0
1,note_on,76,0,120
1,note_on,72,66,0
1,note_on,72,0,120
1,note_on,72,60,360
1,note_on,72,0,120
1,note_on,74,66,360
1,note_on,74,0,120
1,note_on,74,60,360
1,note_on,74,0,120
1,note_on,71,67,360
1,note_on,71,0,120
1,note_on,71,60,360
1,note_on,71,0,120
1,note_on,72,87,360
1,note_on,72,0,480
1,note_on,79,79,960
1,note_on,79,0,360
1,note_on,83,78,0
1,note_on,83,0,120
1,note_on,84,91,0
1,note_on,84,0,120
1,note_on,84,80,360
1,note_on,84,0,120
1,note_on,84,79,360
1,note_on,84,0,120
1,note_on,88,87,360
1,note_on,88,0,120
1,note_on,86,82,0
1,note_on,86,0,120
1,note_on,84,82,0
1,note_on,84,0,120
1,note_on,86,82,0
1,note_on,86,0,120
1,note_on,88,91,0
1,note_on,88,0,120
1,note_on,84,76,360
1,note_on,84,0,120
1,note_on,84,76,360
1,note_on,84,0,120
1,note_on,79,81,360
1,note_on,79,0,360
1,note_on,83,81,0
1,note_on,83,0,120
1,note_on,84,91,0
1,note_on,84,0,120
1,note_on,84,81,360
1,note_on,84,0,120
1,note_on,84,81,360
1,note_on,84,0,120
1,note_on,88,77,120
1,note_on,88,0,80
1,note_on,86,72,0
1,note_on,86,0,80
1,note_on,84,72,0
1,note_on,84,0,80
1,note_on,86,86,0
1,note_on,86,0,360
1,note_on,88,81,0
1,note_on,88,0,120
1,note_on,84,87,0
1,note_on,84,0,480
1,note_on,79,63,960
1,note_on,79,0,360
1,note_on,83,62,0
1,note_on,83,0,120
1,note_on,84,72,0
1,note_on,84,0,120
1,note_on,84,64,360
1,note_on,84,0,120
1,note_on,84,63,360
1,note_on,84,0,120
1,note_on,88,69,360
1,note_on,88,0,120
1,note_on,86,65,0
1,note_on,86,0,120
1,note_on,84,65,0
1,note_on,84,0,120
1,note_on,86,65,0
1,note_on,86,0,120
1,note_on,88,72,0
1,note_on,88,0,120
1,note_on,84,60,360
1,note_on,84,0,120
1,note_on,84,60,360
1,note_on,84,0,120
1,note_on,79,64,360
1,note_on,79,0,360
1,note_on,83,64,0
1,note_on,83,0,120
1,note_on,84,72,0
1,note_on,84,0,120
1,note_on,84,64,360
1,note_on,84,0,120
1,note_on,84,64,360
1,note_on,84,0,120
1,note_on,88,61,120
1,note_on,88,0,80
1,note_on,86,57,0
1,note_on,86,0,80
1,note_on,84,57,0
1,note_on,84,0,80
1,note_on,86,68,0
1,note_on,86,0,360
1,note_on,88,64,0
1,note_on,88,0,120
1,note_on,84,70,0
1,note_on,84,0,480
1,note_on,79,81,480
1,note_on,76,68,0
1,note_on,76,0,480
1,note_on,79,0,0
1,note_on,76,79,480
1,note_on,72,67,0
1,note_on,72,0,480
1,note_on,76,0,0
1,note_on,52,63,480
1,note_on,55,75,0
1,note_on,55,0,480
1,note_on,52,0,0
1,note_on,52,70,480
1,note_on,48,59,0
1,note_on,48,0,480
1,note_on,52,0,0
2,note_on,60,44,1920
2,note_on,64,52,0
2,note_on,64,0,120
2,note_on,60,0,0
2,note_on,60,44,1800
2,note_on,64,52,0
2,note_on,64,0,120
2,note_on,60,0,0
2,note_on,55,44,1800
2,note_on,65,52,0
2,note_on,62,44,0
2,note_on,62,0,120
2,note_on,65,0,0
2,note_on,55,0,0
2,note_on,65,45,360
2,note_on,62,38,0
2,note_on,55,38,0
2,note_on,55,0,120
2,note_on,62,0,0
2,note_on,65,0,0
2,note_on,60,44,360
2,note_on,64,52,0
2,note_on,55,44,0
2,note_on,55,0,120
2,note_on,64,0,0
2,note_on,60,0,0
2,note_on,60,39,360
2,note_on,55,39,0
2,note_on,64,47,0
2,note_on,64,0,120
2,note_on,55,0,0
2,note_on,60,0,0
2,note_on,55,44,360
2,note_on,59,44,0
2,note_on,62,52,0
2,note_on,62,0,480
2,note_on,59,0,0
2,note_on,55,0,0
2,note_on,67,48,1440
2,note_on,59,40,0
2,note_on,59,0,120
2,note_on,67,0,0
2,note_on,67,48,840
2,note_on,60,40,0
2,note_on,60,0,120
2,note_on,67,0,0
2,note_on,65,40,840
2,note_on,67,48,0
2,note_on,67,0,120
2,note_on,65,0,0
2,note_on,67,45,840
2,note_on,64,38,0
2,note_on,64,0,120
2,note_on,67,0,0
2,note_on,65,56,840
2,note_on,53,47,0
2,note_on,53,0,120
2,note_on,65,0,0
2,note_on,53,44,360
2,note_on,65,52,0
2,note_on,65,0,120
2,note_on,53,0,0
2,note_on,55,49,360
2,note_on,62,58,0
2,note_on,62,0,120
2,note_on,55,0,0
2,note_on,55,44,360
2,note_on,62,52,0
2,note_on,62,0,120
2,note_on,55,0,0
2,note_on,60,48,360
2,note_on,60,0,160
2,note_on,64,36,0
2,note_on,64,0,160
2,note_on,67,36,0
2,note_on,67,0,160
2,note_on,60,49,0
2,note_on,60,0,160
2,note_on,64,38,0
2,note_on,64,0,160
2,note_on,67,38,0
2,note_on,67,0,160
2,note_on,60,53,0
2,note_on,60,0,160
2,note_on,64,43,0
2,note_on,64,0,160
2,note_on,67,43,0
2,note_on,67,0,160
2,note_on,60,54,0
2,note_on,60,0,160
2,note_on,64,44,0
2,note_on,64,0,160
2,note_on,67,44,0
2,note_on,67,0,160
2,note_on,60,56,0
2,note_on,60,0,160
2,note_on,64,43,0
2,note_on,64,0,160
2,note_on,67,43,0
2,note_on,67,0,160
2,note_on,60,56,0
2,note_on,60,0,160
2,note_on,64,45,0
2,note_on,64,0,160
2,note_on,67,46,0
2,note_on,67,0,160
2,note_on,60,55,0
2,note_on,60,0,160
2,note_on,64,44,0
2,note_on,64,0,160
2,note_on,67,45,0
2,note_on,67,0,160
2,note_on,60,72,0
2,note_on,60,0,160
2,note_on,64,57,0
2,note_on,64,0,160
2,note_on,67,57,0
2,note_on,67,0,160
2,note_on,60,56,0
2,note_on,60,0,160
2,note_on,64,41,0
2,note_on,64,0,160
2,note_on,67,41,0
2,note_on,67,0,160
2,note_on,60,56,0
2,note_on,60,0,160
2,note_on,64,44,0
2,note_on,64,0,160
2,note_on,67,44,0
2,note_on,67,0,160
2,note_on,60,56,0
2,note_on,60,0,160
2,note_on,64,44,0
2,note_on,64,0,160
2,note_on,67,45,0
2,note_on,67,0,160
2,note_on,60,56,0
2,note_on,60,0,160
2,note_on,64,44,0
2,note_on,64,0,160
2,note_on,67,44,0
2,note_on,67,0,160
2,note_on,62,56,0
2,note_on,62,0,160
2,note_on,65,42,0
2,note_on,65,0,160
2,note_on,67,45,0
2,note_on,67,0,160
2,note_on,62,56,0
2,note_on,62,0,160
2,note_on,65,45,0
2,note_on,65,0,160
2,note_on,67,45,0
2,note_on,67,0,160
2,note_on,60,56,0
2,note_on,60,0,160
2,note_on,64,46,0
2,note_on,64,0,160
2,note_on,67,50,0
2,note_on,67,0,160
2,note_on,60,56,0
2,note_on,60,0,160
2,note_on,64,46,0
2,note_on,64,0,160
2,note_on,67,46,0
2,note_on,67,0,160
2,note_on,59,63,0
2,note_on,59,0,480
2,note_on,55,56,1440
2,note_on,55,0,160
2,note_on,59,43,0
2,note_on,59,0,160
2,note_on,62,45,0
2,note_on,62,0,160
2,note_on,55,56,0
2,note_on,55,0,160
2,note_on,59,45,0
2,note_on,59,0,160
2,note_on,62,45,0
2,note_on,62,0,160
2,note_on,55,54,0
2,note_on,55,0,160
2,note_on,60,43,0
2,note_on,60,0,160
2,note_on,64,44,0
2,note_on,64,0,160
2,note_on,55,56,0
2,note_on,55,0,160
2,note_on,60,46,0
2,note_on,60,0,160
2,note_on,64,46,0
2,note_on,64,0,160
2,note_on,55,56,0
2,note_on,55,0,160
2,note_on,62,47,0
2,note_on,62,0,160
2,note_on,65,47,0
2,note_on,65,0,160
2,note_on,55,56,0
2,note_on,55,0,160
2,note_on,62,44,0
2,note_on,62,0,160
2,note_on,65,44,0
2,note_on,65,0,160
2,note_on,57,56,0
2,note_on,57,0,160
2,note_on,60,46,0
2,note_on,60,0,160
2,note_on,64,46,0
2,note_on,64,0,160
2,note_on,57,56,0
2,note_on,57,0,160
2,note_on,60,45,0
2,note_on,60,0,160
2,note_on,64,45,0
2,note_on,64,0,160
2,note_on,53,56,0
2,note_on,53,0,160
2,note_on,57,45,0
2,note_on,57,0,160
2,note_on,62,47,0
2,note_on,62,0,160
2,note_on,53,56,0
2,note_on,53,0,160
2,note_on,57,46,0
2,note_on,57,0,160
2,note_on,62,46,0
2,note_on,62,0,160
2,note_on,55,56,0
2,note_on,55,0,160
2,note_on,62,43,0
2,note_on,62,0,160
2,note_on,65,43,0
2,note_on,65,0,160
2,note_on,55,56,0
2,note_on,55,0,160
2,note_on,62,44,0
2,note_on,62,0,160
2,note_on,65,45,0
2,note_on,65,0,160
2,note_on,64,45,0
2,note_on,60,60,0
2,note_on,64,0,960
2,note_on,70,43,0
2,note_on,70,0,960
2,note_on,69,45,0
2,note_on,69,0,960
2,note_on,65,42,0
2,note_on,65,0,960
2,note_on,60,0,0
2,note_on,60,39,0
2,note_on,64,45,0
2,note_on,64,0,960
2,note_on,70,43,0
2,note_on,70,0,960
2,note_on,69,45,0
2,note_on,69,0,960
2,note_on,65,42,0
2,note_on,65,0,960
2,note_on,60,0,0
2,note_on,60,45,0
2,note_on,60,0,160
2,note_on,64,36,0
2,note_on,64,0,160
2,note_on,67,36,0
2,note_on,67,0,160
2,note_on,60,45,0
2,note_on,60,0,160
2,note_on,64,38,0
2,note_on,64,0,160
2,note_on,67,38,0
2,note_on,67,0,160
2,note_on,60,45,0
2,note_on,60,0,160
2,note_on,64,36,0
2,note_on,64,0,160
2,note_on,67,36,0
2,note_on,67,0,160
2,note_on,59,45,0
2,note_on,59,0,160
2,note_on,62,36,0
2,note_on,62,0,160
2,note_on,67,37,0
2,note_on,67,0,160
2,note_on,60,45,0
2,note_on,60,0,160
2,note_on,64,36,0
2,note_on,64,0,160
2,note_on,67,36,0
2,note_on,67,0,160
2,note_on,60,45,0
2,note_on,60,0,160
2,note_on,64,38,0
2,note_on,64,0,160
2,note_on,67,38,0
2,note_on,67,0,160
2,note_on,60,45,0
2,note_on,60,0,160
2,note_on,64,36,0
2,note_on,64,0,160
2,note_on,67,36,0
2,note_on,67,0,160
2,note_on,59,45,0
2,note_on,59,0,160
2,note_on,62,36,0
2,note_on,62,0,160
2,note_on,67,37,0
2,note_on,67,0,160
2,note_on,60,45,0
2,note_on,60,0,160
2,note_on,64,36,0
2,note_on,64,0,160
2,note_on,67,36,0
2,note_on,67,0,160
2,note_on,60,45,0
2,note_on,60,0,160
2,note_on,64,38,0
2,note_on,64,0,160
2,note_on,67,38,0
2,note_on,67,0,160
2,note_on,60,45,0
2,note_on,60,0,160
2,note_on,64,36,0
2,note_on,64,0,160
2,note_on,67,36,0
2,note_on,67,0,160
2,note_on,59,45,0
2,note_on,59,0,160
2,note_on,62,36,0
2,note_on,62,0,160
2,note_on,67,37,0
2,note_on,67,0,160
2,note_on,60,45,0
2,note_on,60,0,160
2,note_on,64,36,0
2,note_on,64,0,160
2,note_on,67,36,0
2,note_on,67,0,160
2,note_on,60,45,0
2,note_on,60,0,160
2,note_on,64,38,0
2,note_on,64,0,160
2,note_on,67,39,0
2,note_on,67,0,160
2,note_on,60,46,0
2,note_on,60,0,160
2,note_on,64,37,0
2,note_on,64,0,160
2,note_on,67,37,0
2,note_on,67,0,160
2,note_on,60,47,0
2,note_on,60,0,160
2,note_on,62,38,0
2,note_on,62,0,160
2,note_on,66,39,0
2,note_on,66,0,160
2,note_on,59,48,0
2,note_on,59,0,160
2,note_on,62,38,0
2,note_on,62,0,160
2,note_on,67,39,0
2,note_on,67,0,160
2,note_on,59,49,0
2,note_on,59,0,160
2,note_on,62,41,0
2,note_on,62,0,160
2,note_on,67,42,0
2,note_on,67,0,160
2,note_on,59,50,0
2,note_on,59,0,160
2,note_on,62,40,0
2,note_on,62,0,160
2,note_on,67,40,0
2,note_on,67,0,160
2,note_on,54,51,0
2,note_on,54,0,160
2,note_on,57,41,0
2,note_on,57,0,160
2,note_on,62,42,0
2,note_on,62,0,160
2,note_on,55,52,0
2,note_on,55,0,160
2,note_on,59,41,0
2,note_on,59,0,160
2,note_on,62,42,0
2,note_on,62,0,160
2,note_on,55,53,0
2,note_on,55,0,160
2,note_on,59,44,0
2,note_on,59,0,160
2,note_on,62,45,0
2,note_on,62,0,160
2,note_on,55,54,0
2,note_on,55,0,160
2,note_on,59,43,0
2,note_on,59,0,160
2,note_on,62,43,0
2,note_on,62,0,160
2,note_on,54,54,0
2,note_on,54,0,160
2,note_on,57,43,0
2,note_on,57,0,160
2,note_on,62,45,0
2,note_on,62,0,160
2,note_on,55,55,0
2,note_on,55,0,160
2,note_on,59,44,0
2,note_on,59,0,160
2,note_on,62,45,0
2,note_on,62,0,160
2,note_on,55,56,0
2,note_on,55,0,160
2,note_on,59,47,0
2,note_on,59,0,160
2,note_on,62,48,0
2,note_on,62,0,160
2,note_on,55,57,0
2,note_on,55,0,160
2,note_on,59,46,0
2,note_on,59,0,160
2,note_on,62,46,0
2,note_on,62,0,160
2,note_on,55,57,0
2,note_on,55,0,160
2,note_on,59,50,0
2,note_on,59,0,160
2,note_on,62,50,0
2,note_on,62,0,160
2,note_on,54,64,0
2,note_on,54,0,160
2,note_on,57,53,0
2,note_on,57,0,160
2,note_on,62,45,0
2,note_on,62,0,160
2,note_on,54,56,0
2,note_on,54,0,160
2,note_on,57,45,0
2,note_on,57,0,160
2,note_on,62,45,0
2,note_on,62,0,160
2,note_on,55,56,0
2,note_on,55,0,160
2,note_on,59,43,0
2,note_on,59,0,160
2,note_on,62,44,0
2,note_on,62,0,160
2,note_on,55,56,0
2,note_on,55,0,160
2,note_on,59,46,0
2,note_on,59,0,160
2,note_on,62,46,0
2,note_on,62,0,160
2,note_on,60,56,0
2,note_on,60,0,160
2,note_on,62,43,0
2,note_on,62,0,160
2,note_on,66,45,0
2,note_on,66,0,160
2,note_on,60,56,0
2,note_on,60,0,160
2,note_on,62,45,0
2,note_on,62,0,160
2,note_on,66,45,0
2,note_on,66,0,160
2,note_on,59,56,0
2,note_on,59,0,160
2,note_on,62,43,0
2,note_on,62,0,160
2,note_on,67,44,0
2,note_on,67,0,160
2,note_on,59,39,0
2,note_on,59,0,160
2,note_on,62,35,0
2,note_on,62,0,160
2,note_on,67,35,0
2,note_on,67,0,160
2,note_on,54,39,0
2,note_on,54,0,160
2,note_on,57,30,0
2,note_on,57,0,160
2,note_on,62,31,0
2,note_on,62,0,160
2,note_on,54,39,0
2,note_on,54,0,160
2,note_on,57,31,0
2,note_on,57,0,160
2,note_on,62,31,0
2,note_on,62,0,160
2,note_on,55,39,0
2,note_on,55,0,160
2,note_on,59,30,0
2,note_on,59,0,160
2,note_on,62,30,0
2,note_on,62,0,160
2,note_on,55,39,0
2,note_on,55,0,160
2,note_on,59,32,0
2,note_on,59,0,160
2,note_on,62,32,0
2,note_on,62,0,160
2,note_on,60,39,0
2,note_on,60,0,160
2,note_on,62,30,0
2,note_on,62,0,160
2,note_on,66,31,0
2,note_on,66,0,160
2,note_on,60,39,0
2,note_on,60,0,160
2,note_on,62,31,0
2,note_on,62,0,160
2,note_on,66,31,0
2,note_on,66,0,160
2,note_on,59,39,0
2,note_on,59,0,160
2,note_on,62,30,0
2,note_on,62,0,160
2,note_on,67,30,0
2,note_on,67,0,160
2,note_on,59,54,0
2,note_on,59,0,160
2,note_on,62,43,0
2,note_on,62,0,160
2,note_on,67,44,0
2,note_on,67,0,160
2,note_on,60,54,0
2,note_on,60,0,160
2,note_on,64,40,0
2,note_on,64,0,160
2,note_on,69,41,0
2,note_on,69,0,160
2,note_on,60,55,0
2,note_on,60,0,160
2,note_on,64,42,0
2,note_on,64,0,160
2,note_on,69,42,0
2,note_on,69,0,160
2,note_on,61,53,0
2,note_on,61,0,160
2,note_on,64,41,0
2,note_on,64,0,160
2,note_on,69,41,0
2,note_on,69,0,160
2,note_on,61,51,0
2,note_on,61,0,160
2,note_on,64,42,0
2,note_on,64,0,160
2,note_on,69,43,0
2,note_on,69,0,160
2,note_on,62,58,0
2,note_on,62,0,480
2,note_on,62,62,360
2,note_on,62,0,120
2,note_on,66,68,0
2,note_on,66,0,360
2,note_on,62,62,0
2,note_on,62,0,120
2,note_on,69,68,0
2,note_on,69,0,360
2,note_on,66,64,0
2,note_on,66,0,120
2,note_on,74,80,0
2,note_on,74,0,480
2,note_on,50,62,360
2,note_on,50,0,120
2,note_on,54,71,0
2,note_on,54,0,160
2,note_on,50,62,0
2,note_on,50,0,160
2,note_on,54,62,0
2,note_on,54,0,160
2,note_on,57,68,0
2,note_on,57,0,160
2,note_on,54,64,0
2,note_on,54,0,160
2,note_on,57,64,0
2,note_on,57,0,160
2,note_on,62,74,0
2,note_on,62,0,480
2,note_on,38,84,480
2,note_on,38,0,720
2,note_on,38,78,0
2,note_on,38,0,240
2,note_on,38,84,0
2,note_on,38,0,480
2,note_on,59,40,1440
2,note_on,59,0,160
2,note_on,62,32,3
2,note_on,67,32,157
2,note_on,62,0,3
2,note_on,67,0,157
2,note_on,59,40,0
2,note_on,59,0,160
2,note_on,62,34,3
2,note_on,67,34,157
2,note_on,62,0,3
2,note_on,67,0,157
2,note_on,59,40,0
2,note_on,59,0,160
2,note_on,62,32,3
2,note_on,67,32,157
2,note_on,62,0,3
2,note_on,67,0,157
2,note_on,60,40,0
2,note_on,60,0,160
2,note_on,62,32,0
2,note_on,62,0,160
2,note_on,66,33,0
2,note_on,66,0,160
2,note_on,59,40,0
2,note_on,62,32,155
2,note_on,59,0,5
2,note_on,62,0,155
2,note_on,67,32,5
2,note_on,67,0,160
2,note_on,59,41,0
2,note_on,62,35,155
2,note_on,59,0,5
2,note_on,62,0,155
2,note_on,67,36,5
2,note_on,67,0,160
2,note_on,59,43,0
2,note_on,59,0,160
2,note_on,62,35,0
2,note_on,62,0,160
2,note_on,67,35,0
2,note_on,67,0,160
2,note_on,60,45,0
2,note_on,60,0,160
2,note_on,62,37,0
2,note_on,62,0,160
2,note_on,66,38,0
2,note_on,66,0,160
2,note_on,59,47,0
2,note_on,59,0,160
2,note_on,62,38,0
2,note_on,62,0,160
2,note_on,67,39,0
2,note_on,67,0,160
2,note_on,59,49,0
2,note_on,59,0,160
2,note_on,62,41,0
2,note_on,62,0,160
2,note_on,67,42,0
2,note_on,67,0,160
2,note_on,59,50,0
2,note_on,59,0,160
2,note_on,62,40,0
2,note_on,62,0,160
2,note_on,67,40,0
2,note_on,67,0,160
2,note_on,60,51,0
2,note_on,60,0,160
2,note_on,62,41,0
2,note_on,62,0,160
2,note_on,66,42,0
2,note_on,66,0,160
2,note_on,59,52,0
2,note_on,59,0,160
2,note_on,62,41,0
2,note_on,62,0,160
2,note_on,67,42,0
2,note_on,67,0,160
2,note_on,59,54,0
2,note_on,59,0,160
2,note_on,62,45,0
2,note_on,62,0,160
2,note_on,67,46,0
2,note_on,67,0,160
2,note_on,54,56,0
2,note_on,54,0,160
2,note_on,57,45,0
2,note_on,57,0,160
2,note_on,62,45,0
2,note_on,62,0,160
2,note_on,54,57,0
2,note_on,54,0,160
2,note_on,57,46,0
2,note_on,57,0,160
2,note_on,62,48,0
2,note_on,62,0,160
2,note_on,55,59,0
2,note_on,55,0,160
2,note_on,59,48,0
2,note_on,59,0,160
2,note_on,62,49,0
2,note_on,62,0,160
2,note_on,55,62,0
2,note_on,55,0,160
2,note_on,59,52,0
2,note_on,59,0,160
2,note_on,62,54,0
2,note_on,62,0,160
2,note_on,52,64,0
2,note_on,52,0,160
2,note_on,55,52,0
2,note_on,55,0,160
2,note_on,60,52,0
2,note_on,60,0,160
2,note_on,52,66,0
2,note_on,52,0,160
2,note_on,55,58,0
2,note_on,55,0,160
2,note_on,60,59,0
2,note_on,60,0,160
2,note_on,47,67,0
2,note_on,50,60,159
2,note_on,47,0,1
2,note_on,55,61,158
2,note_on,50,0,1
2,note_on,47,68,158
2,note_on,55,0,1
2,note_on,50,62,158
2,note_on,47,0,1
2,note_on,50,0,159
2,note_on,55,62,2
2,note_on,55,0,160
2,note_on,47,71,2
2,note_on,47,0,480
2,note_on,48,72,480
2,note_on,36,72,0
2,note_on,36,0,480
2,note_on,48,0,0
2,note_on,71,42,3360
2,note_on,62,42,0
2,note_on,71,0,960
2,note_on,72,43,0
2,note_on,72,0,960
2,note_on,62,0,0
2,note_on,67,40,0
2,note_on,71,40,0
2,note_on,71,0,480
2,note_on,67,0,0
2,note_on,79,36,960
2,note_on,79,0,480
2,note_on,78,38,0
2,note_on,81,38,0
2,note_on,81,0,120
2,note_on,78,0,0
2,note_on,76,36,1320
2,note_on,76,0,480
2,note_on,78,38,0
2,note_on,74,38,0
2,note_on,74,0,120
2,note_on,78,0,0
2,note_on,72,36,1320
2,note_on,72,0,480
2,note_on,71,38,0
2,note_on,74,38,0
2,note_on,74,0,120
2,note_on,71,0,0
2,note_on,71,36,1320
2,note_on,67,36,0
2,note_on,67,0,480
2,note_on,71,0,0
2,note_on,72,41,0
2,note_on,60,41,0
2,note_on,60,0,120
2,note_on,72,0,0
2,note_on,69,38,840
2,note_on,62,38,0
2,note_on,62,0,120
2,note_on,69,0,0
2,note_on,71,41,840
2,note_on,67,41,0
2,note_on,67,0,120
2,note_on,71,0,0
2,note_on,79,70,1320
2,note_on,79,0,480
2,note_on,78,44,0
2,note_on,78,0,120
2,note_on,78,35,360
2,note_on,78,0,120
2,note_on,78,35,360
2,note_on,78,0,120
2,note_on,79,70,360
2,note_on,79,0,480
2,note_on,78,44,0
2,note_on,78,0,120
2,note_on,78,32,360
2,note_on,78,0,120
2,note_on,78,32,360
2,note_on,78,0,120
2,note_on,76,63,360
2,note_on,76,0,480
2,note_on,74,39,0
2,note_on,74,0,120
2,note_on,74,30,360
2,note_on,74,0,120
2,note_on,74,30,360
2,note_on,74,0,120
2,note_on,76,58,360
2,note_on,76,0,480
2,note_on,74,39,0
2,note_on,74,0,120
2,note_on,74,28,360
2,note_on,74,0,120
2,note_on,74,28,360
2,note_on,74,0,120
2,note_on,72,56,360
2,note_on,72,0,480
2,note_on,71,39,0
2,note_on,71,0,120
2,note_on,71,28,360
2,note_on,71,0,120
2,note_on,71,29,360
2,note_on,71,0,120
2,note_on,72,56,360
2,note_on,72,0,480
2,note_on,71,39,0
2,note_on,71,0,120
2,note_on,71,28,360
2,note_on,71,0,120
2,note_on,71,29,360
2,note_on,71,0,120
2,note_on,72,56,360
2,note_on,72,0,480
2,note_on,71,39,0
2,note_on,71,0,120
2,note_on,66,36,360
2,note_on,66,0,120
2,note_on,67,41,360
2,note_on,67,0,120
2,note_on,69,47,360
2,note_on,69,0,120
2,note_on,71,60,360
2,note_on,71,0,480
2,note_on,48,65,1440
2,note_on,60,55,480
2,note_on,60,0,480
2,note_on,48,0,0
2,note_on,50,54,0
2,note_on,59,54,0
2,note_on,59,0,480
2,note_on,57,46,0
2,note_on,57,0,480
2,note_on,50,0,0
2,note_on,55,56,0
2,note_on,50,56,0
2,note_on,47,56,0
2,note_on,47,0,960
2,note_on,50,0,0
2,note_on,55,0,0
2,note_on,48,65,960
2,note_on,60,55,480
2,note_on,60,0,480
2,note_on,48,0,0
2,note_on,50,54,0
2,note_on,59,54,0
2,note_on,59,0,480
2,note_on,57,46,0
2,note_on,57,0,480
2,note_on,50,0,0
2,note_on,55,40,0
2,note_on,55,0,160
2,note_on,59,32,0
2,note_on,59,0,160
2,note_on,62,32,0
2,note_on,62,0,160
2,note_on,55,40,0
2,note_on,55,0,160
2,note_on,59,34,0
2,note_on,59,0,160
2,note_on,62,34,0
2,note_on,62,0,160
2,note_on,55,40,0
2,note_on,55,0,160
2,note_on,59,32,0
2,note_on,59,0,160
2,note_on,62,32,0
2,note_on,62,0,160
2,note_on,50,40,0
2,note_on,50,0,160
2,note_on,54,32,0
2,note_on,54,0,160
2,note_on,62,33,0
2,note_on,62,0,160
2,note_on,55,39,0
2,note_on,55,0,160
2,note_on,59,29,0
2,note_on,59,0,160
2,note_on,62,29,0
2,note_on,62,0,160
2,note_on,55,39,0
2,note_on,55,0,160
2,note_on,59,30,0
2,note_on,59,0,160
2,note_on,62,30,0
2,note_on,62,0,160
2,note_on,55,39,0
2,note_on,55,0,160
2,note_on,59,30,0
2,note_on,59,0,160
2,note_on,62,30,0
2,note_on,62,0,160
2,note_on,50,39,0
2,note_on,50,0,160
2,note_on,54,33,0
2,note_on,54,0,160
2,note_on,62,33,0
2,note_on,62,0,160
2,note_on,55,40,0
2,note_on,55,0,160
2,note_on,59,32,0
2,note_on,59,0,160
2,note_on,62,32,0
2,note_on,62,0,160
2,note_on,55,40,0
2,note_on,55,0,160
2,note_on,59,34,0
2,note_on,59,0,160
2,note_on,62,34,0
2,note_on,62,0,160
2,note_on,55,40,0
2,note_on,55,0,160
2,note_on,59,32,0
2,note_on,59,0,160
2,note_on,62,32,0
2,note_on,62,0,160
2,note_on,50,63,0
2,note_on,50,0,160
2,note_on,54,50,0
2,note_on,54,0,160
2,note_on,62,52,0
2,note_on,62,0,160
2,note_on,55,62,0
2,note_on,55,0,160
2,note_on,59,46,0
2,note_on,59,0,160
2,note_on,62,46,0
2,note_on,62,0,160
2,note_on,55,62,0
2,note_on,55,0,160
2,note_on,59,48,0
2,note_on,59,0,160
2,note_on,62,48,0
2,note_on,62,0,160
2,note_on,55,62,0
2,note_on,55,0,160
2,note_on,59,48,0
2,note_on,59,0,160
2,note_on,62,48,0
2,note_on,62,0,160
2,note_on,50,62,0
2,note_on,50,0,160
2,note_on,54,52,0
2,note_on,54,0,160
2,note_on,62,52,0
2,note_on,62,0,160
2,note_on,55,62,0
2,note_on,55,0,160
2,note_on,59,46,0
2,note_on,59,0,160
2,note_on,62,46,0
2,note_on,62,0,160
2,note_on,55,62,0
2,note_on,55,0,160
2,note_on,59,48,0
2,note_on,59,0,160
2,note_on,62,48,0
2,note_on,62,0,160
2,note_on,55,62,0
2,note_on,55,0,160
2,note_on,59,48,0
2,note_on,59,0,160
2,note_on,62,48,0
2,note_on,62,0,160
2,note_on,55,62,0
2,note_on,55,0,160
2,note_on,59,52,0
2,note_on,59,0,160
2,note_on,62,52,0
2,note_on,62,0,160
2,note_on,55,62,0
2,note_on,55,0,480
2,note_on,64,52,1440
2,note_on,60,44,0
2,note_on,60,0,120
2,note_on,64,0,0
2,note_on,64,52,1800
2,note_on,60,44,0
2,note_on,60,0,120
2,note_on,64,0,0
2,note_on,65,52,1800
2,note_on,55,44,0
2,note_on,62,44,0
2,note_on,62,0,120
2,note_on,55,0,0
2,note_on,65,0,0
2,note_on,55,38,360
2,note_on,62,38,0
2,note_on,65,45,0
2,note_on,65,0,120
2,note_on,62,0,0
2,note_on,55,0,0
2,note_on,60,44,360
2,note_on,55,44,0
2,note_on,64,52,0
2,note_on,64,0,120
2,note_on,55,0,0
2,note_on,60,0,0
2,note_on,60,39,360
2,note_on,64,47,0
2,note_on,55,39,0
2,note_on,55,0,120
2,note_on,64,0,0
2,note_on,60,0,0
2,note_on,59,44,360
2,note_on,55,44,0
2,note_on,62,52,0
2,note_on,62,0,480
2,note_on,55,0,0
2,note_on,59,0,0
2,note_on,59,40,1440
2,note_on,67,48,0
2,note_on,67,0,120
2,note_on,59,0,0
2,note_on,67,48,840
2,note_on,60,40,0
2,note_on,60,0,120
2,note_on,67,0,0
2,note_on,65,40,840
2,note_on,67,48,0
2,note_on,67,0,120
2,note_on,65,0,0
2,note_on,67,45,840
2,note_on,64,38,0
2,note_on,64,0,120
2,note_on,67,0,0
2,note_on,53,47,840
2,note_on,65,56,0
2,note_on,65,0,120
2,note_on,53,0,0
2,note_on,65,52,360
2,note_on,53,44,0
2,note_on,53,0,120
2,note_on,65,0,0
2,note_on,55,49,360
2,note_on,62,58,0
2,note_on,62,0,120
2,note_on,55,0,0
2,note_on,62,52,360
2,note_on,55,44,0
2,note_on,55,0,120
2,note_on,62,0,0
2,note_on,60,49,360
2,note_on,60,0,160
2,note_on,64,36,0
2,note_on,64,0,160
2,note_on,67,36,0
2,note_on,67,0,160
2,note_on,60,50,0
2,note_on,60,0,160
2,note_on,64,38,0
2,note_on,64,0,160
2,note_on,67,38,0
2,note_on,67,0,160
2,note_on,60,52,0
2,note_on,60,0,160
2,note_on,64,43,0
2,note_on,64,0,160
2,note_on,67,43,0
2,note_on,67,0,160
2,note_on,60,53,0
2,note_on,60,0,160
2,note_on,64,44,0
2,note_on,64,0,160
2,note_on,67,44,0
2,note_on,67,0,160
2,note_on,60,56,0
2,note_on,60,0,160
2,note_on,64,43,0
2,note_on,64,0,160
2,note_on,67,43,0
2,note_on,67,0,160
2,note_on,60,56,0
2,note_on,60,0,160
2,note_on,64,45,0
2,note_on,64,0,160
2,note_on,67,46,0
2,note_on,67,0,160
2,note_on,60,55,0
2,note_on,60,0,160
2,note_on,64,44,0
2,note_on,64,0,160
2,note_on,67,45,0
2,note_on,67,0,160
2,note_on,60,69,0
2,note_on,60,0,160
2,note_on,64,60,0
2,note_on,64,0,160
2,note_on,67,60,0
2,note_on,67,0,160
2,note_on,60,56,0
2,note_on,60,0,160
2,note_on,64,41,0
2,note_on,64,0,160
2,note_on,67,41,0
2,note_on,67,0,160
2,note_on,60,56,0
2,note_on,60,0,160
2,note_on,64,44,0
2,note_on,64,0,160
2,note_on,67,44,0
2,note_on,67,0,160
2,note_on,60,56,0
2,note_on,60,0,160
2,note_on,64,44,0
2,note_on,64,0,160
2,note_on,67,45,0
2,note_on,67,0,160
2,note_on,60,56,0
2,note_on,60,0,160
2,note_on,64,44,0
2,note_on,64,0,160
2,note_on,67,44,0
2,note_on,67,0,160
2,note_on,62,56,0
2,note_on,62,0,160
2,note_on,65,42,0
2,note_on,65,0,160
2,note_on,67,45,0
2,note_on,67,0,160
2,note_on,62,56,0
2,note_on,62,0,160
2,note_on,65,45,0
2,note_on,65,0,160
2,note_on,67,45,0
2,note_on,67,0,160
2,note_on,60,56,0
2,note_on,60,0,160
2,note_on,64,46,0
2,note_on,64,0,160
2,note_on,67,50,0
2,note_on,67,0,160
2,note_on,60,56,0
2,note_on,60,0,160
2,note_on,64,46,0
2,note_on,64,0,160
2,note_on,67,46,0
2,note_on,67,0,160
2,note_on,59,63,0
2,note_on,59,0,480
2,note_on,55,56,1440
2,note_on,55,0,160
2,note_on,59,43,0
2,note_on,59,0,160
2,note_on,62,45,0
2,note_on,62,0,160
2,note_on,55,56,0
2,note_on,55,0,160
2,note_on,59,45,0
2,note_on,59,0,160
2,note_on,62,45,0
2,note_on,62,0,160
2,note_on,55,56,0
2,note_on,55,0,160
2,note_on,60,43,0
2,note_on,60,0,160
2,note_on,64,44,0
2,note_on,64,0,160
2,note_on,55,56,0
2,note_on,55,0,160
2,note_on,60,46,0
2,note_on,60,0,160
2,note_on,64,46,0
2,note_on,64,0,160
2,note_on,55,56,0
2,note_on,55,0,160
2,note_on,62,47,0
2,note_on,62,0,160
2,note_on,65,47,0
2,note_on,65,0,160
2,note_on,55,56,0
2,note_on,55,0,160
2,note_on,62,44,0
2,note_on,62,0,160
2,note_on,65,44,0
2,note_on,65,0,160
2,note_on,57,56,0
2,note_on,57,0,160
2,note_on,60,46,0
2,note_on,60,0,160
2,note_on,64,46,0
2,note_on,64,0,160
2,note_on,57,56,0
2,note_on,57,0,160
2,note_on,60,45,0
2,note_on,60,0,160
2,note_on,64,45,0
2,note_on,64,0,160
2,note_on,53,56,0
2,note_on,53,0,160
2,note_on,57,45,0
2,note_on,57,0,160
2,note_on,62,47,0
2,note_on,62,0,160
2,note_on,53,56,0
2,note_on,53,0,160
2,note_on,57,46,0
2,note_on,57,0,160
2,note_on,62,46,0
2,note_on,62,0,160
2,note_on,55,56,0
2,note_on,55,0,160
2,note_on,62,43,0
2,note_on,62,0,160
2,note_on,65,43,0
2,note_on,65,0,160
2,note_on,55,56,0
2,note_on,55,0,160
2,note_on,62,44,0
2,note_on,62,0,160
2,note_on,65,45,0
2,note_on,65,0,160
2,note_on,60,60,0
2,note_on,64,45,0
2,note_on,64,0,960
2,note_on,70,43,0
2,note_on,70,0,960
2,note_on,69,45,0
2,note_on,69,0,960
2,note_on,65,42,0
2,note_on,65,0,960
2,note_on,60,0,0
2,note_on,60,39,0
2,note_on,64,45,0
2,note_on,64,0,960
2,note_on,70,43,0
2,note_on,70,0,960
2,note_on,69,45,0
2,note_on,69,0,960
2,note_on,65,42,0
2,note_on,65,0,960
2,note_on,60,0,0
2,note_on,60,45,0
2,note_on,60,0,160
2,note_on,64,35,0
2,note_on,64,0,160
2,note_on,67,35,0
2,note_on,67,0,160
2,note_on,60,45,0
2,note_on,60,0,160
2,note_on,64,34,0
2,note_on,64,0,160
2,note_on,67,34,0
2,note_on,67,0,160
2,note_on,60,45,0
2,note_on,60,0,160
2,note_on,64,36,0
2,note_on,64,0,160
2,note_on,67,36,0
2,note_on,67,0,160
2,note_on,59,45,0
2,note_on,59,0,160
2,note_on,62,36,0
2,note_on,62,0,160
2,note_on,67,37,0
2,note_on,67,0,160
2,note_on,60,45,0
2,note_on,60,0,160
2,note_on,64,36,0
2,note_on,64,0,160
2,note_on,67,36,0
2,note_on,67,0,160
2,note_on,60,45,0
2,note_on,60,0,160
2,note_on,64,38,0
2,note_on,64,0,160
2,note_on,67,38,0
2,note_on,67,0,160
2,note_on,60,45,0
2,note_on,60,0,160
2,note_on,64,36,0
2,note_on,64,0,160
2,note_on,67,36,0
2,note_on,67,0,160
2,note_on,59,45,0
2,note_on,59,0,160
2,note_on,62,36,0
2,note_on,62,0,160
2,note_on,67,37,0
2,note_on,67,0,160
2,note_on,60,45,0
2,note_on,60,0,160
2,note_on,64,36,0
2,note_on,64,0,160
2,note_on,67,36,0
2,note_on,67,0,160
2,note_on,60,45,0
2,note_on,60,0,160
2,note_on,64,38,0
2,note_on,64,0,160
2,note_on,67,38,0
2,note_on,67,0,160
2,note_on,60,45,0
2,note_on,60,0,160
2,note_on,64,36,0
2,note_on,64,0,160
2,note_on,67,36,0
2,note_on,67,0,160
2,note_on,59,45,0
2,note_on,59,0,160
2,note_on,62,36,0
2,note_on,62,0,160
2,note_on,67,37,0
2,note_on,67,0,160
2,note_on,60,45,0
2,note_on,60,0,160
2,note_on,64,36,0
2,note_on,64,0,160
2,note_on,67,36,0
2,note_on,67,0,160
2,note_on,60,45,0
2,note_on,60,0,160
2,note_on,64,38,0
2,note_on,64,0,160
2,note_on,67,39,0
2,note_on,67,0,160
2,note_on,60,46,0
2,note_on,60,0,160
2,note_on,64,37,0
2,note_on,64,0,160
2,note_on,67,37,0
2,note_on,67,0,160
2,note_on,60,47,0
2,note_on,60,0,160
2,note_on,62,38,0
2,note_on,62,0,160
2,note_on,66,39,0
2,note_on,66,0,160
2,note_on,59,48,0
2,note_on,59,0,160
2,note_on,62,38,0
2,note_on,62,0,160
2,note_on,67,39,0
2,note_on,67,0,160
2,note_on,59,49,0
2,note_on,59,0,160
2,note_on,62,41,0
2,note_on,62,0,160
2,note_on,67,42,0
2,note_on,67,0,160
2,note_on,59,50,0
2,note_on,59,0,160
2,note_on,62,40,0
2,note_on,62,0,160
2,note_on,67,40,0
2,note_on,67,0,160
2,note_on,54,51,0
2,note_on,54,0,160
2,note_on,57,41,0
2,note_on,57,0,160
2,note_on,62,42,0
2,note_on,62,0,160
2,note_on,55,52,0
2,note_on,55,0,160
2,note_on,59,41,0
2,note_on,59,0,160
2,note_on,62,42,0
2,note_on,62,0,160
2,note_on,55,53,0
2,note_on,55,0,160
2,note_on,59,44,0
2,note_on,59,0,160
2,note_on,62,45,0
2,note_on,62,0,160
2,note_on,55,54,0
2,note_on,55,0,160
2,note_on,59,43,0
2,note_on,59,0,160
2,note_on,62,43,0
2,note_on,62,0,160
2,note_on,54,54,0
2,note_on,54,0,160
2,note_on,57,43,0
2,note_on,57,0,160
2,note_on,62,45,0
2,note_on,62,0,160
2,note_on,55,55,0
2,note_on,55,0,160
2,note_on,59,44,0
2,note_on,59,0,160
2,note_on,62,45,0
2,note_on,62,0,160
2,note_on,55,56,0
2,note_on,55,0,160
2,note_on,59,47,0
2,note_on,59,0,160
2,note_on,62,48,0
2,note_on,62,0,160
2,note_on,55,57,0
2,note_on,55,0,160
2,note_on,59,46,0
2,note_on,59,0,160
2,note_on,62,46,0
2,note_on,62,0,160
2,note_on,55,57,0
2,note_on,55,0,160
2,note_on,59,50,0
2,note_on,59,0,160
2,note_on,62,50,0
2,note_on,62,0,160
2,note_on,54,56,0
2,note_on,54,0,160
2,note_on,57,43,0
2,note_on,57,0,160
2,note_on,62,45,0
2,note_on,62,0,160
2,note_on,54,56,0
2,note_on,54,0,160
2,note_on,57,45,0
2,note_on,57,0,160
2,note_on,62,45,0
2,note_on,62,0,160
2,note_on,55,56,0
2,note_on,55,0,160
2,note_on,59,43,0
2,note_on,59,0,160
2,note_on,62,44,0
2,note_on,62,0,160
2,note_on,55,56,0
2,note_on,55,0,160
2,note_on,59,46,0
2,note_on,59,0,160
2,note_on,62,46,0
2,note_on,62,0,160
2,note_on,60,56,0
2,note_on,60,0,160
2,note_on,62,43,0
2,note_on,62,0,160
2,note_on,66,45,0
2,note_on,66,0,160
2,note_on,60,56,0
2,note_on,60,0,160
2,note_on,62,45,0
2,note_on,62,0,160
2,note_on,66,45,0
2,note_on,66,0,160
2,note_on,59,56,0
2,note_on,59,0,160
2,note_on,62,43,0
2,note_on,62,0,160
2,note_on,67,44,0
2,note_on,67,0,160
2,note_on,59,39,0
2,note_on,59,0,160
2,note_on,62,35,0
2,note_on,62,0,160
2,note_on,67,35,0
2,note_on,67,0,160
2,note_on,54,39,0
2,note_on,54,0,160
2,note_on,57,30,0
2,note_on,57,0,160
2,note_on,62,31,0
2,note_on,62,0,160
2,note_on,54,39,0
2,note_on,54,0,160
2,note_on,57,31,0
2,note_on,57,0,160
2,note_on,62,31,0
2,note_on,62,0,160
2,note_on,55,39,0
2,note_on,55,0,160
2,note_on,59,30,0
2,note_on,59,0,160
2,note_on,62,30,0
2,note_on,62,0,160
2,note_on,55,39,0
2,note_on,55,0,160
2,note_on,59,32,0
2,note_on,59,0,160
2,note_on,62,32,0
2,note_on,62,0,160
2,note_on,60,39,0
2,note_on,60,0,160
2,note_on,62,30,0
2,note_on,62,0,160
2,note_on,66,31,0
2,note_on,66,0,160
2,note_on,60,39,0
2,note_on,60,0,160
2,note_on,62,31,0
2,note_on,62,0,160
2,note_on,66,31,0
2,note_on,66,0,160
2,note_on,59,39,0
2,note_on,59,0,160
2,note_on,62,30,0
2,note_on,62,0,160
2,note_on,67,30,0
2,note_on,67,0,160
2,note_on,59,54,0
2,note_on,59,0,160
2,note_on,62,43,0
2,note_on,62,0,160
2,note_on,67,44,0
2,note_on,67,0,160
2,note_on,60,54,0
2,note_on,60,0,160
2,note_on,64,40,0
2,note_on,64,0,160
2,note_on,69,41,0
2,note_on,69,0,160
2,note_on,60,55,0
2,note_on,60,0,160
2,note_on,64,42,0
2,note_on,64,0,160
2,note_on,69,42,0
2,note_on,69,0,160
2,note_on,61,53,0
2,note_on,61,0,160
2,note_on,64,41,0
2,note_on,64,0,160
2,note_on,69,41,0
2,note_on,69,0,160
2,note_on,61,51,0
2,note_on,61,0,160
2,note_on,64,42,0
2,note_on,64,0,160
2,note_on,69,43,0
2,note_on,69,0,160
2,note_on,62,58,0
2,note_on,62,0,480
2,note_on,62,62,360
2,note_on,62,0,120
2,note_on,66,68,0
2,note_on,66,0,360
2,note_on,62,62,0
2,note_on,62,0,120
2,note_on,69,68,0
2,note_on,69,0,360
2,note_on,66,64,0
2,note_on,66,0,120
2,note_on,74,80,0
2,note_on,74,0,480
2,note_on,50,62,360
2,note_on,50,0,120
2,note_on,54,71,0
2,note_on,54,0,160
2,note_on,50,62,0
2,note_on,50,0,160
2,note_on,54,62,0
2,note_on,54,0,160
2,note_on,57,68,0
2,note_on,57,0,160
2,note_on,54,64,0
2,note_on,54,0,160
2,note_on,57,64,0
2,note_on,57,0,160
2,note_on,62,74,0
2,note_on,62,0,480
2,note_on,38,84,480
2,note_on,38,0,720
2,note_on,38,78,0
2,note_on,38,0,240
2,note_on,38,84,0
2,note_on,38,0,480
2,note_on,59,40,1440
2,note_on,59,0,160
2,note_on,62,32,3
2,note_on,67,32,157
2,note_on,62,0,3
2,note_on,67,0,157
2,note_on,59,40,0
2,note_on,59,0,160
2,note_on,62,34,3
2,note_on,67,34,157
2,note_on,62,0,3
2,note_on,67,0,157
2,note_on,59,40,0
2,note_on,59,0,160
2,note_on,62,32,3
2,note_on,67,32,157
2,note_on,62,0,3
2,note_on,67,0,157
2,note_on,60,40,0
2,note_on,60,0,160
2,note_on,62,32,0
2,note_on,62,0,160
2,note_on,66,33,0
2,note_on,66,0,160
2,note_on,59,40,0
2,note_on,62,32,155
2,note_on,59,0,5
2,note_on,62,0,155
2,note_on,67,32,5
2,note_on,67,0,160
2,note_on,59,41,0
2,note_on,62,35,155
2,note_on,59,0,5
2,note_on,62,0,155
2,note_on,67,36,5
2,note_on,67,0,160
2,note_on,59,43,0
2,note_on,59,0,160
2,note_on,62,35,0
2,note_on,62,0,160
2,note_on,67,35,0
2,note_on,67,0,160
2,note_on,60,45,0
2,note_on,60,0,160
2,note_on,62,37,0
2,note_on,62,0,160
2,note_on,66,38,0
2,note_on,66,0,160
2,note_on,59,48,0
2,note_on,59,0,160
2,note_on,62,38,0
2,note_on,62,0,160
2,note_on,67,39,0
2,note_on,67,0,160
2,note_on,59,49,0
2,note_on,59,0,160
2,note_on,62,41,0
2,note_on,62,0,160
2,note_on,67,42,0
2,note_on,67,0,160
2,note_on,59,50,0
2,note_on,59,0,160
2,note_on,62,40,0
2,note_on,62,0,160
2,note_on,67,40,0
2,note_on,67,0,160
2,note_on,60,51,0
2,note_on,60,0,160
2,note_on,62,41,0
2,note_on,62,0,160
2,note_on,66,42,0
2,note_on,66,0,160
2,note_on,59,52,0
2,note_on,59,0,160
2,note_on,62,41,0
2,note_on,62,0,160
2,note_on,67,42,0
2,note_on,67,0,160
2,note_on,59,54,0
2,note_on,59,0,160
2,note_on,62,45,0
2,note_on,62,0,160
2,note_on,67,46,0
2,note_on,67,0,160
2,note_on,54,56,0
2,note_on,54,0,160
2,note_on,57,45,0
2,note_on,57,0,160
2,note_on,62,45,0
2,note_on,62,0,160
2,note_on,54,57,0
2,note_on,54,0,160
2,note_on,57,46,0
2,note_on,57,0,160
2,note_on,62,48,0
2,note_on,62,0,160
2,note_on,55,59,0
2,note_on,55,0,160
2,note_on,59,48,0
2,note_on,59,0,160
2,note_on,62,49,0
2,note_on,62,0,160
2,note_on,55,62,0
2,note_on,55,0,160
2,note_on,59,52,0
2,note_on,59,0,160
2,note_on,62,54,0
2,note_on,62,0,160
2,note_on,52,64,0
2,note_on,52,0,160
2,note_on,55,52,0
2,note_on,55,0,160
2,note_on,60,52,0
2,note_on,60,0,160
2,note_on,52,66,0
2,note_on,52,0,160
2,note_on,55,58,0
2,note_on,55,0,160
2,note_on,60,59,0
2,note_on,60,0,160
2,note_on,47,67,0
2,note_on,50,60,159
2,note_on,47,0,1
2,note_on,55,61,158
2,note_on,50,0,1
2,note_on,47,68,158
2,note_on,55,0,1
2,note_on,50,62,158
2,note_on,47,0,1
2,note_on,50,0,159
2,note_on,55,62,2
2,note_on,55,0,160
2,note_on,47,71,2
2,note_on,47,0,480
2,note_on,48,72,480
2,note_on,36,72,0
2,note_on,36,0,480
2,note_on,48,0,0
2,note_on,71,42,3360
2,note_on,62,42,0
2,note_on,71,0,960
2,note_on,72,43,0
2,note_on,72,0,960
2,note_on,62,0,0
2,note_on,67,40,0
2,note_on,71,40,0
2,note_on,71,0,480
2,note_on,67,0,0
2,note_on,79,36,960
2,note_on,79,0,480
2,note_on,78,38,0
2,note_on,81,38,0
2,note_on,81,0,120
2,note_on,78,0,0
2,note_on,76,36,1320
2,note_on,76,0,480
2,note_on,78,38,0
2,note_on,74,38,0
2,note_on,74,0,120
2,note_on,78,0,0
2,note_on,72,36,1320
2,note_on,72,0,480
2,note_on,74,38,0
2,note_on,71,38,0
2,note_on,71,0,120
2,note_on,74,0,0
2,note_on,71,36,1320
2,note_on,67,36,0
2,note_on,67,0,480
2,note_on,71,0,0
2,note_on,72,41,0
2,note_on,60,41,0
2,note_on,60,0,120
2,note_on,72,0,0
2,note_on,62,38,840
2,note_on,69,38,0
2,note_on,69,0,120
2,note_on,62,0,0
2,note_on,71,41,840
2,note_on,67,41,0
2,note_on,67,0,120
2,note_on,71,0,0
2,note_on,79,70,1320
2,note_on,79,0,480
2,note_on,78,44,0
2,note_on,78,0,120
2,note_on,78,35,360
2,note_on,78,0,120
2,note_on,78,35,360
2,note_on,78,0,120
2,note_on,79,70,360
2,note_on,79,0,480
2,note_on,78,44,0
2,note_on,78,0,120
2,note_on,78,32,360
2,note_on,78,0,120
2,note_on,78,32,360
2,note_on,78,0,120
2,note_on,76,63,360
2,note_on,76,0,480
2,note_on,74,39,0
2,note_on,74,0,120
2,note_on,74,30,360
2,note_on,74,0,120
2,note_on,74,30,360
2,note_on,74,0,120
2,note_on,76,58,360
2,note_on,76,0,480
2,note_on,74,39,0
2,note_on,74,0,120
2,note_on,74,28,360
2,note_on,74,0,120
2,note_on,74,28,360
2,note_on,74,0,120
2,note_on,72,56,360
2,note_on,72,0,480
2,note_on,71,39,0
2,note_on,71,0,120
2,note_on,71,28,360
2,note_on,71,0,120
2,note_on,71,29,360
2,note_on,71,0,120
2,note_on,72,56,360
2,note_on,72,0,480
2,note_on,71,39,0
2,note_on,71,0,120
2,note_on,71,28,360
2,note_on,71,0,120
2,note_on,71,29,360
2,note_on,71,0,120
2,note_on,72,56,360
2,note_on,72,0,480
2,note_on,71,39,0
2,note_on,71,0,120
2,note_on,66,36,360
2,note_on,66,0,120
2,note_on,67,41,360
2,note_on,67,0,120
2,note_on,69,47,360
2,note_on,69,0,120
2,note_on,71,60,360
2,note_on,71,0,480
2,note_on,48,65,1440
2,note_on,60,55,480
2,note_on,60,0,480
2,note_on,48,0,0
2,note_on,59,54,0
2,note_on,50,54,0
2,note_on,59,0,480
2,note_on,57,46,0
2,note_on,57,0,480
2,note_on,50,0,0
2,note_on,55,56,0
2,note_on,47,56,0
2,note_on,50,56,0
2,note_on,50,0,960
2,note_on,47,0,0
2,note_on,55,0,0
2,note_on,48,65,960
2,note_on,60,55,480
2,note_on,60,0,480
2,note_on,48,0,0
2,note_on,50,54,0
2,note_on,59,54,0
2,note_on,59,0,480
2,note_on,57,46,0
2,note_on,57,0,480
2,note_on,50,0,0
2,note_on,55,40,0
2,note_on,55,0,160
2,note_on,59,32,0
2,note_on,59,0,160
2,note_on,62,32,0
2,note_on,62,0,160
2,note_on,55,40,0
2,note_on,55,0,160
2,note_on,59,34,0
2,note_on,59,0,160
2,note_on,62,34,0
2,note_on,62,0,160
2,note_on,55,40,0
2,note_on,55,0,160
2,note_on,59,32,0
2,note_on,59,0,160
2,note_on,62,32,0
2,note_on,62,0,160
2,note_on,50,40,0
2,note_on,50,0,160
2,note_on,54,32,0
2,note_on,54,0,160
2,note_on,62,33,0
2,note_on,62,0,160
2,note_on,55,39,0
2,note_on,55,0,160
2,note_on,59,29,0
2,note_on,59,0,160
2,note_on,62,29,0
2,note_on,62,0,160
2,note_on,55,39,0
2,note_on,55,0,160
2,note_on,59,30,0
2,note_on,59,0,160
2,note_on,62,30,0
2,note_on,62,0,160
2,note_on,55,39,0
2,note_on,55,0,160
2,note_on,59,30,0
2,note_on,59,0,160
2,note_on,62,30,0
2,note_on,62,0,160
2,note_on,50,39,0
2,note_on,50,0,160
2,note_on,54,33,0
2,note_on,54,0,160
2,note_on,62,33,0
2,note_on,62,0,160
2,note_on,55,40,0
2,note_on,55,0,160
2,note_on,59,32,0
2,note_on,59,0,160
2,note_on,62,32,0
2,note_on,62,0,160
2,note_on,55,40,0
2,note_on,55,0,160
2,note_on,59,34,0
2,note_on,59,0,160
2,note_on,62,34,0
2,note_on,62,0,160
2,note_on,55,40,0
2,note_on,55,0,160
2,note_on,59,32,0
2,note_on,59,0,160
2,note_on,62,32,0
2,note_on,62,0,160
2,note_on,50,63,0
2,note_on,50,0,160
2,note_on,54,50,0
2,note_on,54,0,160
2,note_on,62,52,0
2,note_on,62,0,160
2,note_on,55,62,0
2,note_on,55,0,160
2,note_on,59,46,0
2,note_on,59,0,160
2,note_on,62,46,0
2,note_on,62,0,160
2,note_on,55,62,0
2,note_on,55,0,160
2,note_on,59,48,0
2,note_on,59,0,160
2,note_on,62,48,0
2,note_on,62,0,160
2,note_on,55,62,0
2,note_on,55,0,160
2,note_on,59,48,0
2,note_on,59,0,160
2,note_on,62,48,0
2,note_on,62,0,160
2,note_on,50,62,0
2,note_on,50,0,160
2,note_on,54,52,0
2,note_on,54,0,160
2,note_on,62,52,0
2,note_on,62,0,160
2,note_on,55,62,0
2,note_on,55,0,160
2,note_on,59,46,0
2,note_on,59,0,160
2,note_on,62,46,0
2,note_on,62,0,160
2,note_on,55,62,0
2,note_on,55,0,160
2,note_on,59,48,0
2,note_on,59,0,160
2,note_on,62,48,0
2,note_on,62,0,160
2,note_on,55,62,0
2,note_on,55,0,160
2,note_on,59,48,0
2,note_on,59,0,160
2,note_on,62,48,0
2,note_on,62,0,160
2,note_on,55,62,0
2,note_on,55,0,160
2,note_on,59,52,0
2,note_on,59,0,160
2,note_on,62,52,0
2,note_on,62,0,160
2,note_on,55,62,0
2,note_on,55,0,480
2,note_on,67,48,1440
2,note_on,59,40,0
2,note_on,59,0,120
2,note_on,67,0,0
2,note_on,60,40,840
2,note_on,67,48,0
2,note_on,67,0,120
2,note_on,60,0,0
2,note_on,67,48,840
2,note_on,65,40,0
2,note_on,65,0,120
2,note_on,67,0,0
2,note_on,67,45,840
2,note_on,64,38,0
2,note_on,64,0,120
2,note_on,67,0,0
2,note_on,52,66,840
2,note_on,40,56,0
2,note_on,40,0,480
2,note_on,52,0,0
2,note_on,40,55,480
2,note_on,52,65,0
2,note_on,52,0,480
2,note_on,40,0,0
2,note_on,52,65,480
2,note_on,40,55,0
2,note_on,40,0,1440
2,note_on,52,0,0
2,note_on,53,56,480
2,note_on,53,0,160
2,note_on,57,43,0
2,note_on,57,0,160
2,note_on,60,43,0
2,note_on,60,0,160
2,note_on,53,56,0
2,note_on,53,0,160
2,note_on,57,45,0
2,note_on,57,0,160
2,note_on,60,46,0
2,note_on,60,0,160
2,note_on,53,55,0
2,note_on,53,0,160
2,note_on,57,44,0
2,note_on,57,0,160
2,note_on,60,45,0
2,note_on,60,0,160
2,note_on,53,56,0
2,note_on,53,0,160
2,note_on,57,51,0
2,note_on,57,0,160
2,note_on,60,51,0
2,note_on,60,0,160
2,note_on,53,56,0
2,note_on,53,0,160
2,note_on,57,41,0
2,note_on,57,0,160
2,note_on,60,41,0
2,note_on,60,0,160
2,note_on,53,56,0
2,note_on,53,0,160
2,note_on,57,44,0
2,note_on,57,0,160
2,note_on,60,44,0
2,note_on,60,0,160
2,note_on,53,56,0
2,note_on,53,0,160
2,note_on,57,44,0
2,note_on,57,0,160
2,note_on,60,45,0
2,note_on,60,0,160
2,note_on,53,56,0
2,note_on,53,0,160
2,note_on,57,44,0
2,note_on,57,0,160
2,note_on,60,44,0
2,note_on,60,0,160
2,note_on,55,56,0
2,note_on,55,0,160
2,note_on,58,42,0
2,note_on,58,0,160
2,note_on,60,45,0
2,note_on,60,0,160
2,note_on,55,56,0
2,note_on,55,0,160
2,note_on,58,45,0
2,note_on,58,0,160
2,note_on,60,45,0
2,note_on,60,0,160
2,note_on,53,56,0
2,note_on,53,0,160
2,note_on,57,46,0
2,note_on,57,0,160
2,note_on,60,50,0
2,note_on,60,0,160
2,note_on,53,56,0
2,note_on,53,0,160
2,note_on,57,46,0
2,note_on,57,0,160
2,note_on,60,46,0
2,note_on,60,0,160
2,note_on,52,56,0
2,note_on,52,0,160
2,note_on,55,42,0
2,note_on,55,0,160
2,note_on,60,42,0
2,note_on,60,0,160
2,note_on,52,51,0
2,note_on,52,0,160
2,note_on,55,42,0
2,note_on,55,0,160
2,note_on,60,43,0
2,note_on,60,0,160
2,note_on,52,54,0
2,note_on,52,0,160
2,note_on,55,44,0
2,note_on,55,0,160
2,note_on,60,45,0
2,note_on,60,0,160
2,note_on,52,56,0
2,note_on,52,0,160
2,note_on,55,46,0
2,note_on,55,0,160
2,note_on,60,46,0
2,note_on,60,0,160
2,note_on,52,56,0
2,note_on,55,43,155
2,note_on,52,0,5
2,note_on,55,0,155
2,note_on,60,45,5
2,note_on,60,0,160
2,note_on,52,56,0
2,note_on,55,45,155
2,note_on,52,0,5
2,note_on,55,0,155
2,note_on,60,45,5
2,note_on,60,0,160
2,note_on,53,56,0
2,note_on,53,0,160
2,note_on,57,43,0
2,note_on,57,0,160
2,note_on,60,44,0
2,note_on,60,0,160
2,note_on,53,56,0
2,note_on,53,0,160
2,note_on,57,46,0
2,note_on,57,0,160
2,note_on,60,46,0
2,note_on,60,0,160
2,note_on,58,56,0
2,note_on,58,0,160
2,note_on,60,47,0
2,note_on,60,0,160
2,note_on,64,47,0
2,note_on,64,0,160
2,note_on,58,56,0
2,note_on,58,0,160
2,note_on,60,44,0
2,note_on,60,0,160
2,note_on,64,44,0
2,note_on,64,0,160
2,note_on,57,56,0
2,note_on,57,0,160
2,note_on,60,46,0
2,note_on,60,0,160
2,note_on,65,46,0
2,note_on,65,0,160
2,note_on,57,56,0
2,note_on,57,0,160
2,note_on,60,45,0
2,note_on,60,0,160
2,note_on,65,45,0
2,note_on,65,0,160
2,note_on,58,56,0
2,note_on,58,0,160
2,note_on,62,45,0
2,note_on,62,0,160
2,note_on,67,47,0
2,note_on,67,0,160
2,note_on,58,56,0
2,note_on,58,0,160
2,note_on,62,46,0
2,note_on,62,0,160
2,note_on,67,46,0
2,note_on,67,0,160
2,note_on,60,56,0
2,note_on,60,0,160
2,note_on,64,43,0
2,note_on,64,0,160
2,note_on,67,43,0
2,note_on,67,0,160
2,note_on,60,56,0
2,note_on,60,0,160
2,note_on,64,44,0
2,note_on,64,0,160
2,note_on,67,45,0
2,note_on,67,0,160
2,note_on,65,61,0
2,note_on,65,0,120
2,note_on,60,57,1320
2,note_on,67,68,0
2,note_on,67,0,480
2,note_on,60,0,0
2,note_on,65,61,0
2,note_on,65,0,120
2,note_on,67,68,1320
2,note_on,60,57,0
2,note_on,60,0,480
2,note_on,67,0,0
2,note_on,65,61,0
2,note_on,65,0,120
2,note_on,62,57,1320
2,note_on,69,68,0
2,note_on,69,0,480
2,note_on,62,0,0
2,note_on,67,61,0
2,note_on,67,0,120
2,note_on,71,68,1320
2,note_on,64,57,0
2,note_on,64,0,480
2,note_on,71,0,0
2,note_on,69,61,0
2,note_on,69,0,120
2,note_on,68,68,1320
2,note_on,68,0,120
2,note_on,69,61,360
2,note_on,69,0,120
2,note_on,71,64,360
2,note_on,71,0,480
2,note_on,72,67,0
2,note_on,72,0,480
2,note_on,69,60,0
2,note_on,69,0,120
2,note_on,64,39,360
2,note_on,68,57,0
2,note_on,68,0,480
2,note_on,69,51,0
2,note_on,69,0,480
2,note_on,68,51,0
2,note_on,68,0,480
2,note_on,64,0,0
2,note_on,64,33,0
2,note_on,64,0,480
2,note_on,65,40,0
2,note_on,65,0,120
2,note_on,69,33,360
2,note_on,69,0,120
2,note_on,71,41,360
2,note_on,71,0,120
2,note_on,74,33,360
2,note_on,74,0,480
2,note_on,64,40,0
2,note_on,64,0,120
2,note_on,68,33,360
2,note_on,68,0,120
2,note_on,69,41,360
2,note_on,69,0,120
2,note_on,73,35,360
2,note_on,73,0,480
2,note_on,62,44,0
2,note_on,62,0,120
2,note_on,66,37,360
2,note_on,66,0,120
2,note_on,67,48,360
2,note_on,67,0,120
2,note_on,71,39,360
2,note_on,71,0,480
2,note_on,60,48,0
2,note_on,60,0,120
2,note_on,64,40,360
2,note_on,64,0,120
2,note_on,65,51,360
2,note_on,65,0,120
2,note_on,69,42,360
2,note_on,69,0,120
2,note_on,64,60,360
2,note_on,64,0,120
2,note_on,60,51,360
2,note_on,60,0,120
2,note_on,65,65,360
2,note_on,65,0,120
2,note_on,69,57,360
2,note_on,69,0,120
2,note_on,41,62,360
2,note_on,53,73,0
2,note_on,53,0,120
2,note_on,41,0,0
2,note_on,45,56,360
2,note_on,57,67,0
2,note_on,57,0,120
2,note_on,45,0,0
2,note_on,52,75,360
2,note_on,40,63,0
2,note_on,40,0,120
2,note_on,52,0,0
2,note_on,45,57,360
2,note_on,57,68,0
2,note_on,57,0,120
2,note_on,45,0,0
2,note_on,39,66,360
2,note_on,51,78,0
2,note_on,51,0,120
2,note_on,39,0,0
2,note_on,42,61,360
2,note_on,54,72,0
2,note_on,54,0,120
2,note_on,42,0,0
2,note_on,45,64,360
2,note_on,57,76,0
2,note_on,57,0,120
2,note_on,45,0,0
2,note_on,60,70,360
2,note_on,48,59,0
2,note_on,48,0,120
2,note_on,60,0,0
2,note_on,63,76,360
2,note_on,51,64,0
2,note_on,51,0,120
2,note_on,63,0,0
2,note_on,54,57,360
2,note_on,66,68,0
2,note_on,66,0,120
2,note_on,54,0,0
2,note_on,69,79,360
2,note_on,57,67,0
2,note_on,57,0,120
2,note_on,69,0,0
2,note_on,51,71,360
2,note_on,39,60,0
2,note_on,39,0,480
2,note_on,51,0,0
2,note_on,52,82,0
2,note_on,40,69,0
2,note_on,40,0,5760
2,note_on,52,0,0
2,note_on,57,40,0
2,note_on,45,40,0
2,note_on,45,0,960
2,note_on,57,0,0
2,note_on,36,38,0
2,note_on,48,38,0
2,note_on,48,0,960
2,note_on,36,0,0
2,note_on,38,40,0
2,note_on,50,40,0
2,note_on,50,0,960
2,note_on,38,0,0
2,note_on,52,36,0
2,note_on,40,36,0
2,note_on,40,0,960
2,note_on,52,0,0
2,note_on,45,40,0
2,note_on,49,34,480
2,note_on,52,37,480
2,note_on,55,40,480
2,note_on,55,0,480
2,note_on,58,43,0
2,note_on,58,0,960
2,note_on,57,37,0
2,note_on,57,0,480
2,note_on,55,32,0
2,note_on,55,0,480
2,note_on,52,0,0
2,note_on,49,0,0
2,note_on,45,0,0
2,note_on,50,30,0
2,note_on,53,36,0
2,note_on,53,0,1440
2,note_on,50,0,0
2,note_on,52,32,0
2,note_on,48,27,0
2,note_on,48,0,480
2,note_on,52,0,0
2,note_on,50,36,0
2,note_on,47,30,0
2,note_on,47,0,1440
2,note_on,50,0,0
2,note_on,45,27,0
2,note_on,48,32,0
2,note_on,48,0,480
2,note_on,45,0,0
2,note_on,43,27,0
2,note_on,47,32,0
2,note_on,47,0,1200
2,note_on,43,0,0
2,note_on,52,52,720
2,note_on,48,44,0
2,note_on,48,0,120
2,note_on,52,0,0
2,note_on,52,52,1800
2,note_on,48,44,0
2,note_on,48,0,120
2,note_on,52,0,0
2,note_on,43,44,1800
2,note_on,50,44,0
2,note_on,53,52,0
2,note_on,53,0,120
2,note_on,50,0,0
2,note_on,43,0,0
2,note_on,50,38,360
2,note_on,43,38,0
2,note_on,53,45,0
2,note_on,53,0,120
2,note_on,43,0,0
2,note_on,50,0,0
2,note_on,43,44,360
2,note_on,48,44,0
2,note_on,52,52,0
2,note_on,52,0,120
2,note_on,48,0,0
2,note_on,43,0,0
2,note_on,52,47,360
2,note_on,43,39,0
2,note_on,48,39,0
2,note_on,48,0,120
2,note_on,43,0,0
2,note_on,52,0,0
2,note_on,47,44,360
2,note_on,50,52,0
2,note_on,43,44,0
2,note_on,43,0,480
2,note_on,50,0,0
2,note_on,47,0,0
2,note_on,55,48,1440
2,note_on,47,40,0
2,note_on,47,0,120
2,note_on,55,0,0
2,note_on,55,48,840
2,note_on,48,40,0
2,note_on,48,0,120
2,note_on,55,0,0
2,note_on,55,48,840
2,note_on,53,40,0
2,note_on,53,0,120
2,note_on,55,0,0
2,note_on,52,38,840
2,note_on,55,45,0
2,note_on,55,0,120
2,note_on,52,0,0
2,note_on,41,47,840
2,note_on,53,56,0
2,note_on,53,0,120
2,note_on,41,0,0
2,note_on,53,52,360
2,note_on,41,44,0
2,note_on,41,0,120
2,note_on,53,0,0
2,note_on,43,49,360
2,note_on,50,58,0
2,note_on,50,0,120
2,note_on,43,0,0
2,note_on,43,44,360
2,note_on,50,52,0
2,note_on,50,0,120
2,note_on,43,0,0
2,note_on,60,55,360
2,note_on,60,0,160
2,note_on,63,43,0
2,note_on,63,0,160
2,note_on,67,43,0
2,note_on,67,0,160
2,note_on,60,56,0
2,note_on,60,0,160
2,note_on,63,42,0
2,note_on,63,0,160
2,note_on,67,42,0
2,note_on,67,0,160
2,note_on,60,55,0
2,note_on,60,0,160
2,note_on,63,44,0
2,note_on,63,0,160
2,note_on,67,45,0
2,note_on,67,0,160
2,note_on,60,56,0
2,note_on,60,0,160
2,note_on,63,51,0
2,note_on,63,0,160
2,note_on,67,51,0
2,note_on,67,0,160
2,note_on,60,56,0
2,note_on,60,0,160
2,note_on,63,43,0
2,note_on,63,0,160
2,note_on,67,43,0
2,note_on,67,0,160
2,note_on,60,56,0
2,note_on,60,0,160
2,note_on,63,45,0
2,note_on,63,0,160
2,note_on,67,46,0
2,note_on,67,0,160
2,note_on,60,55,0
2,note_on,60,0,160
2,note_on,63,44,0
2,note_on,63,0,160
2,note_on,67,45,0
2,note_on,67,0,160
2,note_on,60,56,0
2,note_on,60,0,160
2,note_on,63,51,0
2,note_on,63,0,160
2,note_on,67,51,0
2,note_on,67,0,160
2,note_on,60,56,0
2,note_on,60,0,160
2,note_on,63,41,0
2,note_on,63,0,160
2,note_on,67,41,0
2,note_on,67,0,160
2,note_on,60,56,0
2,note_on,60,0,160
2,note_on,63,44,0
2,note_on,63,0,160
2,note_on,67,44,0
2,note_on,67,0,160
2,note_on,60,56,0
2,note_on,60,0,160
2,note_on,63,44,0
2,note_on,63,0,160
2,note_on,67,45,0
2,note_on,67,0,160
2,note_on,60,56,0
2,note_on,60,0,160
2,note_on,63,44,0
2,note_on,63,0,160
2,note_on,67,44,0
2,note_on,67,0,160
2,note_on,58,56,0
2,note_on,58,0,160
2,note_on,64,43,0
2,note_on,64,0,160
2,note_on,67,43,0
2,note_on,67,0,160
2,note_on,58,56,0
2,note_on,58,0,160
2,note_on,64,45,0
2,note_on,64,0,160
2,note_on,67,46,0
2,note_on,67,0,160
2,note_on,58,55,0
2,note_on,58,0,160
2,note_on,64,44,0
2,note_on,64,0,160
2,note_on,67,45,0
2,note_on,67,0,160
2,note_on,58,56,0
2,note_on,58,0,160
2,note_on,64,51,0
2,note_on,64,0,160
2,note_on,67,51,0
2,note_on,67,0,160
2,note_on,58,56,0
2,note_on,58,0,160
2,note_on,64,41,0
2,note_on,64,0,160
2,note_on,67,41,0
2,note_on,67,0,160
2,note_on,58,56,0
2,note_on,58,0,160
2,note_on,64,44,0
2,note_on,64,0,160
2,note_on,67,44,0
2,note_on,67,0,160
2,note_on,58,56,0
2,note_on,58,0,160
2,note_on,64,44,0
2,note_on,64,0,160
2,note_on,67,45,0
2,note_on,67,0,160
2,note_on,58,56,0
2,note_on,58,0,160
2,note_on,64,44,0
2,note_on,64,0,160
2,note_on,67,44,0
2,note_on,67,0,160
2,note_on,57,50,0
2,note_on,57,0,160
2,note_on,64,38,0
2,note_on,64,0,160
2,note_on,67,38,0
2,note_on,67,0,160
2,note_on,57,50,0
2,note_on,57,0,160
2,note_on,64,39,0
2,note_on,64,0,160
2,note_on,67,39,0
2,note_on,67,0,160
2,note_on,57,50,0
2,note_on,57,0,160
2,note_on,64,39,0
2,note_on,64,0,160
2,note_on,67,40,0
2,note_on,67,0,160
2,note_on,57,50,0
2,note_on,57,0,160
2,note_on,64,39,0
2,note_on,64,0,160
2,note_on,67,39,0
2,note_on,67,0,160
2,note_on,57,50,0
2,note_on,57,0,160
2,note_on,62,36,0
2,note_on,62,0,160
2,note_on,65,36,0
2,note_on,65,0,160
2,note_on,57,50,0
2,note_on,57,0,160
2,note_on,62,39,0
2,note_on,62,0,160
2,note_on,65,39,0
2,note_on,65,0,160
2,note_on,57,50,0
2,note_on,57,0,160
2,note_on,62,39,0
2,note_on,62,0,160
2,note_on,65,40,0
2,note_on,65,0,160
2,note_on,57,50,0
2,note_on,57,0,160
2,note_on,62,39,0
2,note_on,62,0,160
2,note_on,65,39,0
2,note_on,65,0,160
2,note_on,55,50,0
2,note_on,55,0,160
2,note_on,59,38,0
2,note_on,59,0,160
2,note_on,62,40,0
2,note_on,62,0,160
2,note_on,55,50,0
2,note_on,55,0,160
2,note_on,59,40,0
2,note_on,59,0,160
2,note_on,62,40,0
2,note_on,62,0,160
2,note_on,55,50,0
2,note_on,55,0,160
2,note_on,60,38,0
2,note_on,60,0,160
2,note_on,64,39,0
2,note_on,64,0,160
2,note_on,55,50,0
2,note_on,55,0,160
2,note_on,60,41,0
2,note_on,60,0,160
2,note_on,64,41,0
2,note_on,64,0,160
2,note_on,55,50,0
2,note_on,55,0,160
2,note_on,62,38,0
2,note_on,62,0,160
2,note_on,65,40,0
2,note_on,65,0,160
2,note_on,55,50,0
2,note_on,55,0,160
2,note_on,62,40,0
2,note_on,62,0,160
2,note_on,65,40,0
2,note_on,65,0,160
2,note_on,55,50,0
2,note_on,55,0,160
2,note_on,60,43,0
2,note_on,60,0,160
2,note_on,64,44,0
2,note_on,64,0,160
2,note_on,55,39,0
2,note_on,55,0,160
2,note_on,60,35,0
2,note_on,60,0,160
2,note_on,64,35,0
2,note_on,64,0,160
2,note_on,55,39,0
2,note_on,55,0,160
2,note_on,59,30,0
2,note_on,59,0,160
2,note_on,62,31,0
2,note_on,62,0,160
2,note_on,55,39,0
2,note_on,55,0,160
2,note_on,59,31,0
2,note_on,59,0,160
2,note_on,62,31,0
2,note_on,62,0,160
2,note_on,55,39,0
2,note_on,55,0,160
2,note_on,60,30,0
2,note_on,60,0,160
2,note_on,64,30,0
2,note_on,64,0,160
2,note_on,55,39,0
2,note_on,55,0,160
2,note_on,60,32,0
2,note_on,60,0,160
2,note_on,64,32,0
2,note_on,64,0,160
2,note_on,55,39,0
2,note_on,55,0,160
2,note_on,62,30,0
2,note_on,62,0,160
2,note_on,65,31,0
2,note_on,65,0,160
2,note_on,55,45,0
2,note_on,55,0,160
2,note_on,62,36,0
2,note_on,62,0,160
2,note_on,65,36,0
2,note_on,65,0,160
2,note_on,55,50,0
2,note_on,55,0,160
2,note_on,60,38,0
2,note_on,60,0,160
2,note_on,64,38,0
2,note_on,64,0,160
2,note_on,55,54,0
2,note_on,55,0,160
2,note_on,60,43,0
2,note_on,60,0,160
2,note_on,64,44,0
2,note_on,64,0,160
2,note_on,55,58,0
2,note_on,55,0,480
2,note_on,55,62,360
2,note_on,55,0,120
2,note_on,59,68,0
2,note_on,59,0,360
2,note_on,55,62,0
2,note_on,55,0,120
2,note_on,62,68,0
2,note_on,62,0,360
2,note_on,59,64,0
2,note_on,59,0,120
2,note_on,67,80,0
2,note_on,67,0,480
2,note_on,43,62,360
2,note_on,43,0,120
2,note_on,47,71,0
2,note_on,47,0,160
2,note_on,43,62,0
2,note_on,43,0,160
2,note_on,47,62,0
2,note_on,47,0,160
2,note_on,50,68,0
2,note_on,50,0,160
2,note_on,47,64,0
2,note_on,47,0,160
2,note_on,50,64,0
2,note_on,50,0,160
2,note_on,55,74,0
2,note_on,55,0,480
2,note_on,31,84,480
2,note_on,31,0,720
2,note_on,31,78,0
2,note_on,31,0,240
2,note_on,31,84,0
2,note_on,31,0,480
2,note_on,52,45,1440
2,note_on,52,0,160
2,note_on,55,36,3
2,note_on,60,36,157
2,note_on,55,0,3
2,note_on,60,0,157
2,note_on,52,45,0
2,note_on,52,0,160
2,note_on,55,38,3
2,note_on,60,38,157
2,note_on,55,0,3
2,note_on,60,0,157
2,note_on,52,45,0
2,note_on,52,0,160
2,note_on,55,36,3
2,note_on,60,36,157
2,note_on,55,0,3
2,note_on,60,0,157
2,note_on,53,45,0
2,note_on,53,0,160
2,note_on,55,36,0
2,note_on,55,0,160
2,note_on,59,37,0
2,note_on,59,0,160
2,note_on,52,45,0
2,note_on,55,36,155
2,note_on,52,0,5
2,note_on,55,0,155
2,note_on,60,36,5
2,note_on,60,0,160
2,note_on,52,45,0
2,note_on,55,38,155
2,note_on,52,0,5
2,note_on,55,0,155
2,note_on,60,39,5
2,note_on,60,0,160
2,note_on,52,46,0
2,note_on,52,0,160
2,note_on,55,37,0
2,note_on,55,0,160
2,note_on,60,37,0
2,note_on,60,0,160
2,note_on,53,47,0
2,note_on,53,0,160
2,note_on,55,38,0
2,note_on,55,0,160
2,note_on,59,39,0
2,note_on,59,0,160
2,note_on,52,48,0
2,note_on,52,0,160
2,note_on,55,38,0
2,note_on,55,0,160
2,note_on,60,39,0
2,note_on,60,0,160
2,note_on,52,49,0
2,note_on,52,0,160
2,note_on,55,41,0
2,note_on,55,0,160
2,note_on,60,42,0
2,note_on,60,0,160
2,note_on,52,50,0
2,note_on,52,0,160
2,note_on,55,40,0
2,note_on,55,0,160
2,note_on,60,40,0
2,note_on,60,0,160
2,note_on,53,51,0
2,note_on,53,0,160
2,note_on,55,41,0
2,note_on,55,0,160
2,note_on,59,42,0
2,note_on,59,0,160
2,note_on,52,52,0
2,note_on,52,0,160
2,note_on,55,41,0
2,note_on,55,0,160
2,note_on,60,42,0
2,note_on,60,0,160
2,note_on,52,54,0
2,note_on,52,0,160
2,note_on,55,45,0
2,note_on,55,0,160
2,note_on,60,46,0
2,note_on,60,0,160
2,note_on,47,61,0
2,note_on,47,0,160
2,note_on,50,51,0
2,note_on,50,0,160
2,note_on,55,52,0
2,note_on,55,0,160
2,note_on,47,62,0
2,note_on,47,0,160
2,note_on,50,52,0
2,note_on,50,0,160
2,note_on,55,52,0
2,note_on,55,0,160
2,note_on,48,65,0
2,note_on,48,0,160
2,note_on,52,54,0
2,note_on,52,0,160
2,note_on,55,52,0
2,note_on,55,0,160
2,note_on,48,69,0
2,note_on,48,0,160
2,note_on,52,52,0
2,note_on,52,0,160
2,note_on,55,54,0
2,note_on,55,0,160
2,note_on,50,66,0
2,note_on,50,0,160
2,note_on,53,56,0
2,note_on,53,0,160
2,note_on,59,56,0
2,note_on,59,0,160
2,note_on,50,71,0
2,note_on,50,0,160
2,note_on,53,58,0
2,note_on,53,0,160
2,note_on,59,59,0
2,note_on,59,0,160
2,note_on,52,74,0
2,note_on,55,60,159
2,note_on,52,0,1
2,note_on,60,61,158
2,note_on,55,0,1
2,note_on,52,73,158
2,note_on,60,0,1
2,note_on,55,62,158
2,note_on,52,0,1
2,note_on,55,0,159
2,note_on,60,62,2
2,note_on,60,0,160
2,note_on,52,76,2
2,note_on,52,0,480
2,note_on,53,72,480
2,note_on,41,72,0
2,note_on,41,0,480
2,note_on,53,0,0
2,note_on,67,42,3360
2,note_on,76,42,0
2,note_on,76,0,960
2,note_on,77,43,0
2,note_on,77,0,960
2,note_on,67,0,0
2,note_on,76,40,0
2,note_on,72,40,0
2,note_on,72,0,480
2,note_on,76,0,0
2,note_on,72,36,960
2,note_on,72,0,480
2,note_on,74,38,0
2,note_on,71,38,0
2,note_on,71,0,120
2,note_on,74,0,0
2,note_on,69,36,1320
2,note_on,69,0,480
2,note_on,71,38,0
2,note_on,67,38,0
2,note_on,67,0,120
2,note_on,71,0,0
2,note_on,65,36,1320
2,note_on,65,0,480
2,note_on,67,38,0
2,note_on,64,38,0
2,note_on,64,0,120
2,note_on,67,0,0
2,note_on,60,36,1320
2,note_on,64,36,0
2,note_on,64,0,480
2,note_on,60,0,0
2,note_on,65,41,0
2,note_on,53,41,0
2,note_on,53,0,120
2,note_on,65,0,0
2,note_on,55,38,840
2,note_on,62,38,0
2,note_on,62,0,120
2,note_on,55,0,0
2,note_on,64,41,840
2,note_on,60,41,0
2,note_on,60,0,120
2,note_on,64,0,0
2,note_on,72,70,1320
2,note_on,72,0,480
2,note_on,71,44,0
2,note_on,71,0,120
2,note_on,71,35,360
2,note_on,71,0,120
2,note_on,71,35,360
2,note_on,71,0,120
2,note_on,72,70,360
2,note_on,72,0,480
2,note_on,71,44,0
2,note_on,71,0,120
2,note_on,71,32,360
2,note_on,71,0,120
2,note_on,71,32,360
2,note_on,71,0,120
2,note_on,69,63,360
2,note_on,69,0,480
2,note_on,67,39,0
2,note_on,67,0,120
2,note_on,67,30,360
2,note_on,67,0,120
2,note_on,67,30,360
2,note_on,67,0,120
2,note_on,69,58,360
2,note_on,69,0,480
2,note_on,67,39,0
2,note_on,67,0,120
2,note_on,67,28,360
2,note_on,67,0,120
2,note_on,67,28,360
2,note_on,67,0,120
2,note_on,65,56,360
2,note_on,65,0,480
2,note_on,64,39,0
2,note_on,64,0,120
2,note_on,64,28,360
2,note_on,64,0,120
2,note_on,64,29,360
2,note_on,64,0,120
2,note_on,65,56,360
2,note_on,65,0,480
2,note_on,64,39,0
2,note_on,64,0,120
2,note_on,64,28,360
2,note_on,64,0,120
2,note_on,64,29,360
2,note_on,64,0,120
2,note_on,65,56,360
2,note_on,65,0,480
2,note_on,64,39,0
2,note_on,64,0,120
2,note_on,59,36,360
2,note_on,59,0,120
2,note_on,60,41,360
2,note_on,60,0,120
2,note_on,62,47,360
2,note_on,62,0,120
2,note_on,64,60,360
2,note_on,64,0,480
2,note_on,41,65,1440
2,note_on,53,55,480
2,note_on,53,0,480
2,note_on,41,0,0
2,note_on,52,54,0
2,note_on,43,54,0
2,note_on,52,0,480
2,note_on,50,46,0
2,note_on,50,0,480
2,note_on,43,0,0
2,note_on,40,70,0
2,note_on,43,70,0
2,note_on,48,70,0
2,note_on,48,0,960
2,note_on,43,0,0
2,note_on,40,0,0
2,note_on,53,73,960
2,note_on,57,73,0
2,note_on,57,0,960
2,note_on,53,0,0
2,note_on,63,73,0
2,note_on,57,62,0
2,note_on,60,62,0
2,note_on,54,62,0
2,note_on,54,0,960
2,note_on,63,0,0
2,note_on,57,0,0
2,note_on,60,0,0
2,note_on,55,42,0
2,note_on,55,0,160
2,note_on,60,32,0
2,note_on,60,0,160
2,note_on,64,32,0
2,note_on,64,0,160
2,note_on,55,42,0
2,note_on,55,0,160
2,note_on,60,34,0
2,note_on,60,0,160
2,note_on,64,34,0
2,note_on,64,0,160
2,note_on,55,42,0
2,note_on,55,0,160
2,note_on,60,33,0
2,note_on,60,0,160
2,note_on,64,33,0
2,note_on,64,0,160
2,note_on,55,45,0
2,note_on,55,0,160
2,note_on,60,34,0
2,note_on,60,0,160
2,note_on,64,34,0
2,note_on,64,0,160
2,note_on,55,47,0
2,note_on,55,0,160
2,note_on,60,34,0
2,note_on,60,0,160
2,note_on,64,34,0
2,note_on,64,0,160
2,note_on,55,47,0
2,note_on,55,0,160
2,note_on,60,36,0
2,note_on,60,0,160
2,note_on,64,36,0
2,note_on,64,0,160
2,note_on,55,50,0
2,note_on,55,0,160
2,note_on,60,36,0
2,note_on,60,0,160
2,note_on,64,36,0
2,note_on,64,0,160
2,note_on,55,69,0
2,note_on,55,0,160
2,note_on,60,56,0
2,note_on,60,0,160
2,note_on,64,56,0
2,note_on,64,0,160
2,note_on,55,47,0
2,note_on,55,0,160
2,note_on,60,34,0
2,note_on,60,0,160
2,note_on,64,34,0
2,note_on,64,0,160
2,note_on,55,47,0
2,note_on,55,0,160
2,note_on,60,37,0
2,note_on,60,0,160
2,note_on,64,37,0
2,note_on,64,0,160
2,note_on,55,47,0
2,note_on,55,0,160
2,note_on,60,37,0
2,note_on,60,0,160
2,note_on,64,38,0
2,note_on,64,0,160
2,note_on,55,47,0
2,note_on,55,0,160
2,note_on,60,37,0
2,note_on,60,0,160
2,note_on,64,37,0
2,note_on,64,0,160
2,note_on,55,47,0
2,note_on,55,0,160
2,note_on,62,35,0
2,note_on,62,0,160
2,note_on,65,38,0
2,note_on,65,0,160
2,note_on,55,47,0
2,note_on,55,0,160
2,note_on,62,38,0
2,note_on,62,0,160
2,note_on,65,38,0
2,note_on,65,0,160
2,note_on,55,47,0
2,note_on,55,0,160
2,note_on,60,39,0
2,note_on,60,0,160
2,note_on,64,42,0
2,note_on,64,0,160
2,note_on,55,47,0
2,note_on,55,0,160
2,note_on,60,39,0
2,note_on,60,0,160
2,note_on,64,39,0
2,note_on,64,0,160
2,note_on,55,47,0
2,note_on,55,0,160
2,note_on,59,35,0
2,note_on,59,0,160
2,note_on,62,38,0
2,note_on,62,0,160
2,note_on,55,47,0
2,note_on,55,0,160
2,note_on,59,38,0
2,note_on,59,0,160
2,note_on,62,38,0
2,note_on,62,0,160
2,note_on,55,47,0
2,note_on,55,0,160
2,note_on,59,39,0
2,note_on,59,0,160
2,note_on,62,42,0
2,note_on,62,0,160
2,note_on,55,47,0
2,note_on,55,0,160
2,note_on,59,39,0
2,note_on,59,0,160
2,note_on,62,39,0
2,note_on,62,0,160
2,note_on,55,47,0
2,note_on,55,0,160
2,note_on,59,36,0
2,note_on,59,0,160
2,note_on,62,38,0
2,note_on,62,0,160
2,note_on,55,54,0
2,note_on,55,0,160
2,note_on,59,41,0
2,note_on,59,0,160
2,note_on,62,41,0
2,note_on,62,0,160
2,note_on,55,51,0
2,note_on,55,0,160
2,note_on,60,39,0
2,note_on,60,0,160
2,note_on,64,40,0
2,note_on,64,0,160
2,note_on,55,47,0
2,note_on,55,0,160
2,note_on,60,39,0
2,note_on,60,0,160
2,note_on,64,39,0
2,note_on,64,0,160
2,note_on,55,47,0
2,note_on,55,0,160
2,note_on,62,39,0
2,note_on,62,0,160
2,note_on,65,39,0
2,note_on,65,0,160
2,note_on,55,53,0
2,note_on,55,0,160
2,note_on,62,40,0
2,note_on,62,0,160
2,note_on,65,37,0
2,note_on,65,0,160
2,note_on,57,51,0
2,note_on,57,0,160
2,note_on,60,39,0
2,note_on,60,0,160
2,note_on,64,39,0
2,note_on,64,0,160
2,note_on,57,47,0
2,note_on,57,0,160
2,note_on,60,38,0
2,note_on,60,0,160
2,note_on,64,38,0
2,note_on,64,0,160
2,note_on,53,47,0
2,note_on,53,0,160
2,note_on,57,38,0
2,note_on,57,0,160
2,note_on,62,39,0
2,note_on,62,0,160
2,note_on,53,47,0
2,note_on,53,0,160
2,note_on,57,39,0
2,note_on,57,0,160
2,note_on,62,39,0
2,note_on,62,0,160
2,note_on,55,47,0
2,note_on,55,0,160
2,note_on,62,36,0
2,note_on,62,0,160
2,note_on,65,36,0
2,note_on,65,0,160
2,note_on,55,47,0
2,note_on,55,0,160
2,note_on,62,37,0
2,note_on,62,0,160
2,note_on,65,38,0
2,note_on,65,0,160
2,note_on,60,70,0
2,note_on,60,0,160
2,note_on,64,52,0
2,note_on,64,0,160
2,note_on,67,51,0
2,note_on,67,0,160
2,note_on,60,65,0
2,note_on,60,0,160
2,note_on,64,51,0
2,note_on,64,0,160
2,note_on,67,51,0
2,note_on,67,0,160
2,note_on,60,68,0
2,note_on,60,0,160
2,note_on,64,55,0
2,note_on,64,0,160
2,note_on,67,55,0
2,note_on,67,0,160
2,note_on,55,69,0
2,note_on,55,0,160
2,note_on,59,57,0
2,note_on,59,0,160
2,note_on,67,58,0
2,note_on,67,0,160
2,note_on,60,79,0
2,note_on,60,0,160
2,note_on,64,59,0
2,note_on,64,0,160
2,note_on,67,59,0
2,note_on,67,0,160
2,note_on,60,66,0
2,note_on,60,0,160
2,note_on,64,55,0
2,note_on,64,0,160
2,note_on,67,55,0
2,note_on,67,0,160
2,note_on,60,67,0
2,note_on,60,0,160
2,note_on,64,55,0
2,note_on,64,0,160
2,note_on,67,54,0
2,note_on,67,0,160
2,note_on,55,70,0
2,note_on,55,0,160
2,note_on,59,58,0
2,note_on,59,0,160
2,note_on,67,56,0
2,note_on,67,0,160
2,note_on,60,79,0
2,note_on,60,0,160
2,note_on,64,60,0
2,note_on,64,0,160
2,note_on,67,58,0
2,note_on,67,0,160
2,note_on,60,74,0
2,note_on,60,0,160
2,note_on,64,59,0
2,note_on,64,0,160
2,note_on,67,60,0
2,note_on,67,0,160
2,note_on,60,71,0
2,note_on,60,0,160
2,note_on,64,59,0
2,note_on,64,0,160
2,note_on,67,59,0
2,note_on,67,0,160
2,note_on,55,75,0
2,note_on,55,0,160
2,note_on,59,60,0
2,note_on,59,0,160
2,note_on,67,60,0
2,note_on,67,0,160
2,note_on,60,74,0
2,note_on,60,0,160
2,note_on,64,55,0
2,note_on,64,0,160
2,note_on,67,55,0
2,note_on,67,0,160
2,note_on,60,74,0
2,note_on,60,0,160
2,note_on,64,57,0
2,note_on,64,0,160
2,note_on,67,57,0
2,note_on,67,0,160
2,note_on,60,74,0
2,note_on,60,0,160
2,note_on,64,57,0
2,note_on,64,0,160
2,note_on,67,57,0
2,note_on,67,0,160
2,note_on,55,74,0
2,note_on,55,0,160
2,note_on,59,62,0
2,note_on,59,0,160
2,note_on,67,62,0
2,note_on,67,0,160
2,note_on,60,70,0
2,note_on,60,0,160
2,note_on,64,41,0
2,note_on,64,0,160
2,note_on,67,41,0
2,note_on,67,0,160
2,note_on,60,49,0
2,note_on,60,0,160
2,note_on,64,37,0
2,note_on,64,0,160
2,note_on,67,36,0
2,note_on,67,0,160
2,note_on,60,45,0
2,note_on,60,0,160
2,note_on,64,34,0
2,note_on,64,0,160
2,note_on,67,34,0
2,note_on,67,0,160
2,note_on,55,41,0
2,note_on,55,0,160
2,note_on,59,34,0
2,note_on,59,0,160
2,note_on,67,34,0
2,note_on,67,0,160
2,note_on,60,47,0
2,note_on,60,0,160
2,note_on,64,35,0
2,note_on,64,0,160
2,note_on,67,35,0
2,note_on,67,0,160
2,note_on,60,39,0
2,note_on,60,0,160
2,note_on,64,33,0
2,note_on,64,0,160
2,note_on,67,33,0
2,note_on,67,0,160
2,note_on,60,40,0
2,note_on,60,0,160
2,note_on,64,33,0
2,note_on,64,0,160
2,note_on,67,33,0
2,note_on,67,0,160
2,note_on,55,42,0
2,note_on,55,0,160
2,note_on,59,34,0
2,note_on,59,0,160
2,note_on,67,34,0
2,note_on,67,0,160
2,note_on,60,47,0
2,note_on,60,0,160
2,note_on,64,36,0
2,note_on,64,0,160
2,note_on,67,34,0
2,note_on,67,0,160
2,note_on,60,44,0
2,note_on,60,0,160
2,note_on,64,35,0
2,note_on,64,0,160
2,note_on,67,36,0
2,note_on,67,0,160
2,note_on,60,42,0
2,note_on,60,0,160
2,note_on,64,35,0
2,note_on,64,0,160
2,note_on,67,35,0
2,note_on,67,0,160
2,note_on,55,45,0
2,note_on,55,0,160
2,note_on,59,36,0
2,note_on,59,0,160
2,note_on,67,36,0
2,note_on,67,0,160
2,note_on,60,44,0
2,note_on,60,0,160
2,note_on,64,33,0
2,note_on,64,0,160
2,note_on,67,33,0
2,note_on,67,0,160
2,note_on,60,44,0
2,note_on,60,0,160
2,note_on,64,34,0
2,note_on,64,0,160
2,note_on,67,34,0
2,note_on,67,0,160
2,note_on,60,44,0
2,note_on,60,0,160
2,note_on,64,34,0
2,note_on,64,0,160
2,note_on,67,34,0
2,note_on,67,0,160
2,note_on,55,44,0
2,note_on,55,0,160
2,note_on,59,37,0
2,note_on,59,0,160
2,note_on,67,37,0
2,note_on,67,0,160
2,note_on,60,62,0
2,note_on,60,0,160
2,note_on,64,44,0
2,note_on,64,0,160
2,note_on,67,47,0
2,note_on,67,0,160
2,note_on,60,65,0
2,note_on,60,0,160
2,note_on,64,50,0
2,note_on,64,0,160
2,note_on,67,54,0
2,note_on,67,0,160
2,note_on,60,69,0
2,note_on,60,0,160
2,note_on,64,56,0
2,note_on,64,0,160
2,note_on,67,56,0
2,note_on,67,0,160
2,note_on,60,69,0
2,note_on,60,0,160
2,note_on,64,58,0
2,note_on,64,0,160
2,note_on,67,58,0
2,note_on,67,0,160
2,note_on,60,70,0
2,note_on,60,0,160
2,note_on,64,56,0
2,note_on,64,0,160
2,note_on,67,56,0
2,note_on,67,0,160
2,note_on,60,67,0
2,note_on,60,0,160
2,note_on,64,52,0
2,note_on,64,0,160
2,note_on,67,52,0
2,note_on,67,0,160
2,note_on,60,68,0
2,note_on,60,0,160
2,note_on,64,52,0
2,note_on,64,0,160
2,note_on,67,52,0
2,note_on,67,0,160
2,note_on,60,66,0
2,note_on,60,0,160
2,note_on,64,52,0
2,note_on,64,0,160
2,note_on,67,52,0
2,note_on,67,0,160
2,note_on,60,82,0
2,note_on,60,0,480
