Track,Message Type,Note,Velocity,Time
1,note_on,81,50,0
1,note_on,81,0,360
1,note_on,77,46,0
1,note_on,77,0,60
1,note_on,74,41,0
1,note_on,74,0,60
1,note_on,73,50,0
1,note_on,73,0,240
1,note_on,82,50,720
1,note_on,82,0,360
1,note_on,79,46,0
1,note_on,79,0,60
1,note_on,76,41,0
1,note_on,76,0,60
1,note_on,74,50,0
1,note_on,74,0,240
1,note_on,85,47,120
1,note_on,85,0,120
1,note_on,86,55,0
1,note_on,86,0,240
1,note_on,81,43,120
1,note_on,81,0,120
1,note_on,82,53,0
1,note_on,82,0,240
1,note_on,74,41,120
1,note_on,74,0,120
1,note_on,73,50,0
1,note_on,73,0,240
1,note_on,76,41,120
1,note_on,76,0,120
1,note_on,81,50,0
1,note_on,81,0,240
1,note_on,79,41,120
1,note_on,79,0,120
1,note_on,79,35,0
1,note_on,79,0,120
1,note_on,77,32,0
1,note_on,77,0,120
1,note_on,79,38,0
1,note_on,79,0,30
1,note_on,77,32,0
1,note_on,77,0,30
1,note_on,79,30,0
1,note_on,79,0,30
1,note_on,77,31,0
1,note_on,77,0,30
1,note_on,79,33,0
1,note_on,79,0,30
1,note_on,77,36,0
1,note_on,77,0,30
1,note_on,76,37,0
1,note_on,76,0,30
1,note_on,77,38,0
1,note_on,77,0,30
1,note_on,76,40,0
1,note_on,76,0,240
1,note_on,69,45,720
1,note_on,69,0,240
1,note_on,67,42,0
1,note_on,67,0,60
1,note_on,65,36,0
1,note_on,65,0,60
1,note_on,64,41,0
1,note_on,64,0,60
1,note_on,62,36,0
1,note_on,62,0,60
1,note_on,61,45,0
1,note_on,61,0,240
1,note_on,55,45,240
1,note_on,55,0,80
1,note_on,58,41,0
1,note_on,58,0,80
1,note_on,61,41,0
1,note_on,61,0,80
1,note_on,64,45,0
1,note_on,64,0,80
1,note_on,67,41,0
1,note_on,67,0,80
1,note_on,69,41,0
1,note_on,69,0,80
1,note_on,70,57,0
1,note_on,70,0,240
1,note_on,69,42,0
1,note_on,69,0,60
1,note_on,67,36,0
1,note_on,67,0,60
1,note_on,65,41,0
1,note_on,65,0,60
1,note_on,64,36,0
1,note_on,64,0,60
1,note_on,62,45,0
1,note_on,62,0,240
1,note_on,73,43,120
1,note_on,73,0,120
1,note_on,74,45,0
1,note_on,74,0,30
1,note_on,73,42,0
1,note_on,73,0,30
1,note_on,74,53,0
1,note_on,74,0,180
1,note_on,76,41,120
1,note_on,76,0,120
1,note_on,77,45,0
1,note_on,77,0,30
1,note_on,76,42,0
1,note_on,76,0,30
1,note_on,77,53,0
1,note_on,77,0,180
1,note_on,85,55,120
1,note_on,85,0,120
1,note_on,86,64,0
1,note_on,86,0,240
1,note_on,88,65,120
1,note_on,88,0,120
1,note_on,89,69,0
1,note_on,89,0,240
1,note_on,56,34,120
1,note_on,56,0,110
1,note_on,56,40,10
1,note_on,56,0,480
1,note_on,57,35,0
1,note_on,57,0,30
1,note_on,56,32,0
1,note_on,56,0,30
1,note_on,57,40,0
1,note_on,57,0,420
1,note_on,84,40,560
1,note_on,84,0,80
1,note_on,79,40,0
1,note_on,79,0,80
1,note_on,81,45,0
1,note_on,81,0,80
1,note_on,84,40,0
1,note_on,84,0,80
1,note_on,76,40,0
1,note_on,76,0,80
1,note_on,77,42,0
1,note_on,77,0,80
1,note_on,81,40,0
1,note_on,81,0,80
1,note_on,77,35,0
1,note_on,77,0,80
1,note_on,76,40,0
1,note_on,76,0,80
1,note_on,74,37,0
1,note_on,74,0,80
1,note_on,72,37,0
1,note_on,72,0,80
1,note_on,70,40,0
1,note_on,70,0,80
1,note_on,69,38,0
1,note_on,69,0,80
1,note_on,67,38,0
1,note_on,67,0,80
1,note_on,65,40,0
1,note_on,65,0,80
1,note_on,64,35,0
1,note_on,64,0,80
1,note_on,62,33,0
1,note_on,62,0,80
1,note_on,60,40,0
1,note_on,60,0,900
1,note_on,64,40,0
1,note_on,64,0,60
1,note_on,62,40,0
1,note_on,62,0,360
1,note_on,60,40,0
1,note_on,60,0,110
1,note_on,60,45,10
1,note_on,60,0,80
1,note_on,84,40,0
1,note_on,84,0,80
1,note_on,79,40,0
1,note_on,79,0,80
1,note_on,81,45,0
1,note_on,81,0,80
1,note_on,84,40,0
1,note_on,84,0,80
1,note_on,76,40,0
1,note_on,76,0,80
1,note_on,77,42,0
1,note_on,77,0,80
1,note_on,81,40,0
1,note_on,81,0,80
1,note_on,77,35,0
1,note_on,77,0,80
1,note_on,76,40,0
1,note_on,76,0,80
1,note_on,74,37,0
1,note_on,74,0,80
1,note_on,72,37,0
1,note_on,72,0,80
1,note_on,70,40,0
1,note_on,70,0,80
1,note_on,69,38,0
1,note_on,69,0,80
1,note_on,67,38,0
1,note_on,67,0,80
1,note_on,65,40,0
1,note_on,65,0,80
1,note_on,64,35,0
1,note_on,64,0,80
1,note_on,62,33,0
1,note_on,62,0,80
1,note_on,60,40,0
1,note_on,60,0,900
1,note_on,63,40,0
1,note_on,63,0,60
1,note_on,62,40,0
1,note_on,62,0,360
1,note_on,60,40,0
1,note_on,60,0,120
1,note_on,65,40,0
1,note_on,65,0,360
1,note_on,62,40,0
1,note_on,62,0,120
1,note_on,58,40,0
1,note_on,58,0,560
1,note_on,62,41,0
1,note_on,62,0,40
1,note_on,64,41,40
1,note_on,64,0,40
1,note_on,65,45,40
1,note_on,65,0,40
1,note_on,67,41,40
1,note_on,67,0,40
1,note_on,69,41,40
1,note_on,69,0,40
1,note_on,70,48,40
1,note_on,70,0,840
1,note_on,72,46,0
1,note_on,72,0,60
1,note_on,70,42,0
1,note_on,70,0,60
1,note_on,69,48,0
1,note_on,69,0,480
1,note_on,74,50,0
1,note_on,74,0,480
1,note_on,79,66,0
1,note_on,79,0,480
1,note_on,77,58,0
1,note_on,77,0,470
1,note_on,77,50,10
1,note_on,77,0,120
1,note_on,76,45,0
1,note_on,76,0,120
1,note_on,74,43,0
1,note_on,74,0,120
1,note_on,72,43,0
1,note_on,72,0,120
1,note_on,70,53,0
1,note_on,70,0,480
1,note_on,69,45,0
1,note_on,69,0,480
1,note_on,67,40,80
1,note_on,67,0,80
1,note_on,70,40,0
1,note_on,70,0,80
1,note_on,74,45,0
1,note_on,74,0,80
1,note_on,70,35,0
1,note_on,70,0,80
1,note_on,67,35,0
1,note_on,67,0,80
1,note_on,65,41,0
1,note_on,65,0,660
1,note_on,69,35,0
1,note_on,69,0,60
1,note_on,67,42,0
1,note_on,64,36,0
1,note_on,64,0,240
1,note_on,67,0,0
1,note_on,69,50,0
1,note_on,69,0,80
1,note_on,72,50,0
1,note_on,72,0,80
1,note_on,70,47,0
1,note_on,70,0,80
1,note_on,69,50,0
1,note_on,69,0,80
1,note_on,77,55,0
1,note_on,77,0,80
1,note_on,76,48,0
1,note_on,76,0,80
1,note_on,74,50,0
1,note_on,74,0,80
1,note_on,82,56,0
1,note_on,82,0,80
1,note_on,81,50,0
1,note_on,81,0,80
1,note_on,79,58,0
1,note_on,79,0,80
1,note_on,86,61,0
1,note_on,86,0,80
1,note_on,84,54,0
1,note_on,84,0,80
1,note_on,82,55,0
1,note_on,82,0,80
1,note_on,81,50,0
1,note_on,81,0,80
1,note_on,79,46,0
1,note_on,79,0,80
1,note_on,77,54,0
1,note_on,77,0,80
1,note_on,76,50,0
1,note_on,76,0,80
1,note_on,74,50,0
1,note_on,74,0,80
1,note_on,72,50,0
1,note_on,72,0,480
1,note_on,70,50,0
1,note_on,70,0,30
1,note_on,72,46,0
1,note_on,72,0,30
1,note_on,70,53,0
1,note_on,70,0,420
1,note_on,69,45,0
1,note_on,69,0,480
1,note_on,66,40,80
1,note_on,66,0,80
1,note_on,67,40,0
1,note_on,67,0,80
1,note_on,74,45,0
1,note_on,74,0,80
1,note_on,70,35,0
1,note_on,70,0,80
1,note_on,67,35,0
1,note_on,67,0,80
1,note_on,65,41,0
1,note_on,65,0,660
1,note_on,69,35,0
1,note_on,69,0,60
1,note_on,67,42,0
1,note_on,64,36,0
1,note_on,64,0,240
1,note_on,67,0,0
1,note_on,69,50,0
1,note_on,69,0,80
1,note_on,72,50,0
1,note_on,72,0,80
1,note_on,70,47,0
1,note_on,70,0,80
1,note_on,69,50,0
1,note_on,69,0,80
1,note_on,77,55,0
1,note_on,77,0,80
1,note_on,76,48,0
1,note_on,76,0,80
1,note_on,74,50,0
1,note_on,74,0,80
1,note_on,82,56,0
1,note_on,82,0,80
1,note_on,81,50,0
1,note_on,81,0,80
1,note_on,79,57,0
1,note_on,79,0,80
1,note_on,86,62,0
1,note_on,86,0,80
1,note_on,84,54,0
1,note_on,84,0,80
1,note_on,82,55,0
1,note_on,82,0,80
1,note_on,81,50,0
1,note_on,81,0,80
1,note_on,79,46,0
1,note_on,79,0,80
1,note_on,77,54,0
1,note_on,77,0,80
1,note_on,76,50,0
1,note_on,76,0,80
1,note_on,74,50,0
1,note_on,74,0,80
1,note_on,72,50,0
1,note_on,72,0,480
1,note_on,70,42,0
1,note_on,70,0,30
1,note_on,72,37,0
1,note_on,72,0,30
1,note_on,70,41,0
1,note_on,70,0,30
1,note_on,72,38,0
1,note_on,72,0,30
1,note_on,70,43,0
1,note_on,70,0,30
1,note_on,72,39,0
1,note_on,72,0,30
1,note_on,70,43,0
1,note_on,70,0,30
1,note_on,72,40,0
1,note_on,72,0,30
1,note_on,70,45,0
1,note_on,70,0,30
1,note_on,72,42,0
1,note_on,72,0,30
1,note_on,70,45,0
1,note_on,70,0,30
1,note_on,72,42,0
1,note_on,72,0,30
1,note_on,70,45,0
1,note_on,70,0,30
1,note_on,72,42,0
1,note_on,72,0,30
1,note_on,69,47,0
1,note_on,69,0,30
1,note_on,70,42,0
1,note_on,70,0,30
1,note_on,69,55,0
1,note_on,69,0,480
1,note_on,66,40,0
1,note_on,66,0,80
1,note_on,67,35,0
1,note_on,67,0,80
1,note_on,70,35,0
1,note_on,70,0,80
1,note_on,74,37,0
1,note_on,74,0,80
1,note_on,79,40,0
1,note_on,79,0,80
1,note_on,82,40,0
1,note_on,82,0,80
1,note_on,86,42,0
1,note_on,86,0,80
1,note_on,84,38,0
1,note_on,84,0,80
1,note_on,82,38,0
1,note_on,82,0,80
1,note_on,81,41,0
1,note_on,81,0,80
1,note_on,79,35,0
1,note_on,79,0,80
1,note_on,77,33,0
1,note_on,77,0,70
1,note_on,77,41,10
1,note_on,77,0,80
1,note_on,76,35,0
1,note_on,76,0,80
1,note_on,79,35,0
1,note_on,79,0,80
1,note_on,82,39,0
1,note_on,82,0,80
1,note_on,79,35,0
1,note_on,79,0,80
1,note_on,76,35,0
1,note_on,76,0,70
1,note_on,76,41,10
1,note_on,76,0,480
1,note_on,77,41,0
1,note_on,77,0,480
1,note_on,81,50,480
1,note_on,81,0,360
1,note_on,77,46,0
1,note_on,77,0,60
1,note_on,74,41,0
1,note_on,74,0,60
1,note_on,73,50,0
1,note_on,73,0,240
1,note_on,82,50,720
1,note_on,82,0,360
1,note_on,79,46,0
1,note_on,79,0,60
1,note_on,76,41,0
1,note_on,76,0,60
1,note_on,74,50,0
1,note_on,74,0,240
1,note_on,85,47,120
1,note_on,85,0,120
1,note_on,86,55,0
1,note_on,86,0,240
1,note_on,81,43,120
1,note_on,81,0,120
1,note_on,82,53,0
1,note_on,82,0,240
1,note_on,74,41,120
1,note_on,74,0,120
1,note_on,73,50,0
1,note_on,73,0,240
1,note_on,76,41,120
1,note_on,76,0,120
1,note_on,81,50,0
1,note_on,81,0,240
1,note_on,79,41,120
1,note_on,79,0,120
1,note_on,79,35,0
1,note_on,79,0,120
1,note_on,77,32,0
1,note_on,77,0,120
1,note_on,79,38,0
1,note_on,79,0,30
1,note_on,77,32,0
1,note_on,77,0,30
1,note_on,79,30,0
1,note_on,79,0,30
1,note_on,77,31,0
1,note_on,77,0,30
1,note_on,79,33,0
1,note_on,79,0,30
1,note_on,77,36,0
1,note_on,77,0,30
1,note_on,76,37,0
1,note_on,76,0,30
1,note_on,77,38,0
1,note_on,77,0,30
1,note_on,76,40,0
1,note_on,76,0,240
1,note_on,69,45,720
1,note_on,69,0,240
1,note_on,67,42,0
1,note_on,67,0,60
1,note_on,65,36,0
1,note_on,65,0,60
1,note_on,64,41,0
1,note_on,64,0,60
1,note_on,62,36,0
1,note_on,62,0,60
1,note_on,61,45,0
1,note_on,61,0,240
1,note_on,55,45,240
1,note_on,55,0,80
1,note_on,58,41,0
1,note_on,58,0,80
1,note_on,61,41,0
1,note_on,61,0,80
1,note_on,64,45,0
1,note_on,64,0,80
1,note_on,67,41,0
1,note_on,67,0,80
1,note_on,69,41,0
1,note_on,69,0,80
1,note_on,70,57,0
1,note_on,70,0,240
1,note_on,69,42,0
1,note_on,69,0,60
1,note_on,67,36,0
1,note_on,67,0,60
1,note_on,65,41,0
1,note_on,65,0,60
1,note_on,64,36,0
1,note_on,64,0,60
1,note_on,62,45,0
1,note_on,62,0,240
1,note_on,73,43,120
1,note_on,73,0,120
1,note_on,74,45,0
1,note_on,74,0,30
1,note_on,73,42,0
1,note_on,73,0,30
1,note_on,74,53,0
1,note_on,74,0,180
1,note_on,76,41,120
1,note_on,76,0,120
1,note_on,77,45,0
1,note_on,77,0,30
1,note_on,76,42,0
1,note_on,76,0,30
1,note_on,77,53,0
1,note_on,77,0,180
1,note_on,85,55,120
1,note_on,85,0,120
1,note_on,86,64,0
1,note_on,86,0,240
1,note_on,88,65,120
1,note_on,88,0,120
1,note_on,89,69,0
1,note_on,89,0,240
1,note_on,56,34,120
1,note_on,56,0,110
1,note_on,56,40,10
1,note_on,56,0,480
1,note_on,57,35,0
1,note_on,57,0,30
1,note_on,56,32,0
1,note_on,56,0,30
1,note_on,57,40,0
1,note_on,57,0,420
1,note_on,84,40,560
1,note_on,84,0,80
1,note_on,79,40,0
1,note_on,79,0,80
1,note_on,81,45,0
1,note_on,81,0,80
1,note_on,84,40,0
1,note_on,84,0,80
1,note_on,76,40,0
1,note_on,76,0,80
1,note_on,77,42,0
1,note_on,77,0,80
1,note_on,81,40,0
1,note_on,81,0,80
1,note_on,77,35,0
1,note_on,77,0,80
1,note_on,76,40,0
1,note_on,76,0,80
1,note_on,74,37,0
1,note_on,74,0,80
1,note_on,72,37,0
1,note_on,72,0,80
1,note_on,70,40,0
1,note_on,70,0,80
1,note_on,69,38,0
1,note_on,69,0,80
1,note_on,67,38,0
1,note_on,67,0,80
1,note_on,65,40,0
1,note_on,65,0,80
1,note_on,64,35,0
1,note_on,64,0,80
1,note_on,62,33,0
1,note_on,62,0,80
1,note_on,60,40,0
1,note_on,60,0,900
1,note_on,64,40,0
1,note_on,64,0,60
1,note_on,62,40,0
1,note_on,62,0,360
1,note_on,60,40,0
1,note_on,60,0,110
1,note_on,60,45,10
1,note_on,60,0,80
1,note_on,84,40,0
1,note_on,84,0,80
1,note_on,79,40,0
1,note_on,79,0,80
1,note_on,81,45,0
1,note_on,81,0,80
1,note_on,84,40,0
1,note_on,84,0,80
1,note_on,76,40,0
1,note_on,76,0,80
1,note_on,77,42,0
1,note_on,77,0,80
1,note_on,81,40,0
1,note_on,81,0,80
1,note_on,77,35,0
1,note_on,77,0,80
1,note_on,76,40,0
1,note_on,76,0,80
1,note_on,74,37,0
1,note_on,74,0,80
1,note_on,72,37,0
1,note_on,72,0,80
1,note_on,70,40,0
1,note_on,70,0,80
1,note_on,69,38,0
1,note_on,69,0,80
1,note_on,67,38,0
1,note_on,67,0,80
1,note_on,65,40,0
1,note_on,65,0,80
1,note_on,64,35,0
1,note_on,64,0,80
1,note_on,62,33,0
1,note_on,62,0,80
1,note_on,60,40,0
1,note_on,60,0,900
1,note_on,63,40,0
1,note_on,63,0,60
1,note_on,62,40,0
1,note_on,62,0,360
1,note_on,60,40,0
1,note_on,60,0,120
1,note_on,65,40,0
1,note_on,65,0,360
1,note_on,62,40,0
1,note_on,62,0,120
1,note_on,58,40,0
1,note_on,58,0,560
1,note_on,62,41,0
1,note_on,62,0,40
1,note_on,64,41,40
1,note_on,64,0,40
1,note_on,65,45,40
1,note_on,65,0,40
1,note_on,67,41,40
1,note_on,67,0,40
1,note_on,69,41,40
1,note_on,69,0,40
1,note_on,70,48,40
1,note_on,70,0,840
1,note_on,72,46,0
1,note_on,72,0,60
1,note_on,70,42,0
1,note_on,70,0,60
1,note_on,69,48,0
1,note_on,69,0,480
1,note_on,74,52,0
1,note_on,74,0,480
1,note_on,79,66,0
1,note_on,79,0,480
1,note_on,77,61,0
1,note_on,77,0,470
1,note_on,77,50,10
1,note_on,77,0,120
1,note_on,76,45,0
1,note_on,76,0,120
1,note_on,74,43,0
1,note_on,74,0,120
1,note_on,72,43,0
1,note_on,72,0,120
1,note_on,70,53,0
1,note_on,70,0,480
1,note_on,69,45,0
1,note_on,69,0,480
1,note_on,67,40,80
1,note_on,67,0,80
1,note_on,70,40,0
1,note_on,70,0,80
1,note_on,74,45,0
1,note_on,74,0,80
1,note_on,70,35,0
1,note_on,70,0,80
1,note_on,67,35,0
1,note_on,67,0,80
1,note_on,65,41,0
1,note_on,65,0,660
1,note_on,69,35,0
1,note_on,69,0,60
1,note_on,67,42,0
1,note_on,64,36,0
1,note_on,64,0,240
1,note_on,67,0,0
1,note_on,69,50,0
1,note_on,69,0,80
1,note_on,72,50,0
1,note_on,72,0,80
1,note_on,70,47,0
1,note_on,70,0,80
1,note_on,69,50,0
1,note_on,69,0,80
1,note_on,77,55,0
1,note_on,77,0,80
1,note_on,76,48,0
1,note_on,76,0,80
1,note_on,74,50,0
1,note_on,74,0,80
1,note_on,82,56,0
1,note_on,82,0,80
1,note_on,81,50,0
1,note_on,81,0,80
1,note_on,79,58,0
1,note_on,79,0,80
1,note_on,86,61,0
1,note_on,86,0,80
1,note_on,84,54,0
1,note_on,84,0,80
1,note_on,82,55,0
1,note_on,82,0,80
1,note_on,81,50,0
1,note_on,81,0,80
1,note_on,79,46,0
1,note_on,79,0,80
1,note_on,77,54,0
1,note_on,77,0,80
1,note_on,76,50,0
1,note_on,76,0,80
1,note_on,74,50,0
1,note_on,74,0,80
1,note_on,72,50,0
1,note_on,72,0,480
1,note_on,70,50,0
1,note_on,70,0,30
1,note_on,72,46,0
1,note_on,72,0,30
1,note_on,70,53,0
1,note_on,70,0,420
1,note_on,69,45,0
1,note_on,69,0,480
1,note_on,66,40,80
1,note_on,66,0,80
1,note_on,67,40,0
1,note_on,67,0,80
1,note_on,74,45,0
1,note_on,74,0,80
1,note_on,70,35,0
1,note_on,70,0,80
1,note_on,67,35,0
1,note_on,67,0,80
1,note_on,65,41,0
1,note_on,65,0,660
1,note_on,69,35,0
1,note_on,69,0,60
1,note_on,67,42,0
1,note_on,64,36,0
1,note_on,64,0,240
1,note_on,67,0,0
1,note_on,69,50,0
1,note_on,69,0,80
1,note_on,72,50,0
1,note_on,72,0,80
1,note_on,70,47,0
1,note_on,70,0,80
1,note_on,69,50,0
1,note_on,69,0,80
1,note_on,77,55,0
1,note_on,77,0,80
1,note_on,76,48,0
1,note_on,76,0,80
1,note_on,74,50,0
1,note_on,74,0,80
1,note_on,82,56,0
1,note_on,82,0,80
1,note_on,81,50,0
1,note_on,81,0,80
1,note_on,79,57,0
1,note_on,79,0,80
1,note_on,86,62,0
1,note_on,86,0,80
1,note_on,84,54,0
1,note_on,84,0,80
1,note_on,82,55,0
1,note_on,82,0,80
1,note_on,81,50,0
1,note_on,81,0,80
1,note_on,79,46,0
1,note_on,79,0,80
1,note_on,77,54,0
1,note_on,77,0,80
1,note_on,76,50,0
1,note_on,76,0,80
1,note_on,74,50,0
1,note_on,74,0,80
1,note_on,72,50,0
1,note_on,72,0,480
1,note_on,70,42,0
1,note_on,70,0,30
1,note_on,72,37,0
1,note_on,72,0,30
1,note_on,70,41,0
1,note_on,70,0,30
1,note_on,72,38,0
1,note_on,72,0,30
1,note_on,70,43,0
1,note_on,70,0,30
1,note_on,72,39,0
1,note_on,72,0,30
1,note_on,70,43,0
1,note_on,70,0,30
1,note_on,72,40,0
1,note_on,72,0,30
1,note_on,70,45,0
1,note_on,70,0,30
1,note_on,72,42,0
1,note_on,72,0,30
1,note_on,70,45,0
1,note_on,70,0,30
1,note_on,72,42,0
1,note_on,72,0,30
1,note_on,70,45,0
1,note_on,70,0,30
1,note_on,72,42,0
1,note_on,72,0,30
1,note_on,69,47,0
1,note_on,69,0,30
1,note_on,70,42,0
1,note_on,70,0,30
1,note_on,69,55,0
1,note_on,69,0,480
1,note_on,66,40,0
1,note_on,66,0,80
1,note_on,67,35,0
1,note_on,67,0,80
1,note_on,70,35,0
1,note_on,70,0,80
1,note_on,74,37,0
1,note_on,74,0,80
1,note_on,79,40,0
1,note_on,79,0,80
1,note_on,82,40,0
1,note_on,82,0,80
1,note_on,86,42,0
1,note_on,86,0,80
1,note_on,84,38,0
1,note_on,84,0,80
1,note_on,82,38,0
1,note_on,82,0,80
1,note_on,81,41,0
1,note_on,81,0,80
1,note_on,79,35,0
1,note_on,79,0,80
1,note_on,77,33,0
1,note_on,77,0,70
1,note_on,77,41,10
1,note_on,77,0,80
1,note_on,76,35,0
1,note_on,76,0,80
1,note_on,79,35,0
1,note_on,79,0,80
1,note_on,82,39,0
1,note_on,82,0,80
1,note_on,79,35,0
1,note_on,79,0,80
1,note_on,76,35,0
1,note_on,76,0,70
1,note_on,76,41,10
1,note_on,76,0,480
1,note_on,77,41,0
1,note_on,77,0,480
1,note_on,72,50,480
1,note_on,72,0,360
1,note_on,69,46,0
1,note_on,69,0,60
1,note_on,65,41,0
1,note_on,65,0,60
1,note_on,64,50,0
1,note_on,64,0,240
1,note_on,55,45,240
1,note_on,55,0,80
1,note_on,58,41,0
1,note_on,58,0,80
1,note_on,60,41,0
1,note_on,60,0,80
1,note_on,64,45,0
1,note_on,64,0,80
1,note_on,67,41,0
1,note_on,67,0,80
1,note_on,70,41,0
1,note_on,70,0,80
1,note_on,74,57,0
1,note_on,74,0,240
1,note_on,72,42,0
1,note_on,72,0,60
1,note_on,70,36,0
1,note_on,70,0,60
1,note_on,69,41,0
1,note_on,69,0,60
1,note_on,67,36,0
1,note_on,67,0,60
1,note_on,66,45,0
1,note_on,66,0,240
1,note_on,70,42,960
1,note_on,70,0,80
1,note_on,74,41,0
1,note_on,74,0,80
1,note_on,79,41,0
1,note_on,79,0,80
1,note_on,82,45,0
1,note_on,82,0,80
1,note_on,86,42,0
1,note_on,86,0,80
1,note_on,84,40,0
1,note_on,84,0,80
1,note_on,82,42,0
1,note_on,82,0,80
1,note_on,81,41,0
1,note_on,81,0,80
1,note_on,79,41,0
1,note_on,79,0,80
1,note_on,86,45,0
1,note_on,86,0,80
1,note_on,84,42,0
1,note_on,84,0,80
1,note_on,82,42,0
1,note_on,82,0,80
1,note_on,81,45,0
1,note_on,81,0,80
1,note_on,79,40,0
1,note_on,79,0,80
1,note_on,77,38,0
1,note_on,77,0,70
1,note_on,77,48,10
1,note_on,77,0,960
1,note_on,76,50,0
1,note_on,76,0,30
1,note_on,77,46,0
1,note_on,77,0,30
1,note_on,76,53,0
1,note_on,76,0,420
1,note_on,72,39,80
1,note_on,72,0,80
1,note_on,74,39,0
1,note_on,74,0,80
1,note_on,76,39,0
1,note_on,76,0,80
1,note_on,77,41,0
1,note_on,77,0,80
1,note_on,79,42,0
1,note_on,79,0,80
1,note_on,81,45,0
1,note_on,81,0,80
1,note_on,82,42,0
1,note_on,82,0,80
1,note_on,84,40,0
1,note_on,84,0,80
1,note_on,82,48,0
1,note_on,82,0,80
1,note_on,81,41,0
1,note_on,81,0,80
1,note_on,79,41,0
1,note_on,79,0,80
1,note_on,77,45,0
1,note_on,77,0,80
1,note_on,84,42,0
1,note_on,84,0,80
1,note_on,81,42,0
1,note_on,81,0,80
1,note_on,79,45,0
1,note_on,79,0,80
1,note_on,77,40,0
1,note_on,77,0,80
1,note_on,76,38,0
1,note_on,76,0,70
1,note_on,76,48,10
1,note_on,76,0,360
1,note_on,74,46,0
1,note_on,74,0,120
1,note_on,82,50,0
1,note_on,82,0,480
1,note_on,74,46,0
1,note_on,74,0,480
1,note_on,73,50,0
1,note_on,73,0,360
1,note_on,76,49,0
1,note_on,76,0,120
1,note_on,79,56,0
1,note_on,79,0,480
1,note_on,77,51,0
1,note_on,77,0,360
1,note_on,74,48,0
1,note_on,74,0,120
1,note_on,81,59,0
1,note_on,81,0,480
1,note_on,69,41,1040
1,note_on,69,0,80
1,note_on,67,42,0
1,note_on,67,0,80
1,note_on,65,48,0
1,note_on,65,0,80
1,note_on,64,42,0
1,note_on,64,0,80
1,note_on,62,42,0
1,note_on,62,0,80
1,note_on,61,49,0
1,note_on,61,0,480
1,note_on,82,46,560
1,note_on,82,0,80
1,note_on,81,48,0
1,note_on,81,0,80
1,note_on,79,53,0
1,note_on,79,0,80
1,note_on,77,47,0
1,note_on,77,0,80
1,note_on,76,43,0
1,note_on,76,0,80
1,note_on,74,53,0
1,note_on,74,0,80
1,note_on,81,46,0
1,note_on,81,0,80
1,note_on,79,48,0
1,note_on,79,0,80
1,note_on,77,53,0
1,note_on,77,0,80
1,note_on,76,47,0
1,note_on,76,0,80
1,note_on,74,46,0
1,note_on,74,0,80
1,note_on,86,68,0
1,note_on,86,0,180
1,note_on,84,43,180
1,note_on,74,43,0
1,note_on,84,0,120
1,note_on,82,50,0
1,note_on,82,0,240
1,note_on,74,0,0
1,note_on,74,41,120
1,note_on,74,0,120
1,note_on,73,50,0
1,note_on,73,0,240
1,note_on,76,41,120
1,note_on,76,0,120
1,note_on,81,50,0
1,note_on,81,0,240
1,note_on,79,41,120
1,note_on,79,0,120
1,note_on,79,35,0
1,note_on,79,0,120
1,note_on,77,32,0
1,note_on,77,0,120
1,note_on,79,38,0
1,note_on,79,0,30
1,note_on,77,32,0
1,note_on,77,0,30
1,note_on,79,30,0
1,note_on,79,0,30
1,note_on,77,31,0
1,note_on,77,0,30
1,note_on,79,33,0
1,note_on,79,0,30
1,note_on,77,36,0
1,note_on,77,0,30
1,note_on,76,37,0
1,note_on,76,0,30
1,note_on,77,38,0
1,note_on,77,0,30
1,note_on,76,40,0
1,note_on,76,0,240
1,note_on,69,50,720
1,note_on,69,0,80
1,note_on,76,50,0
1,note_on,76,0,80
1,note_on,74,47,0
1,note_on,74,0,80
1,note_on,73,50,0
1,note_on,73,0,80
1,note_on,79,55,0
1,note_on,79,0,80
1,note_on,77,48,0
1,note_on,77,0,80
1,note_on,76,50,0
1,note_on,76,0,80
1,note_on,82,56,0
1,note_on,82,0,80
1,note_on,81,50,0
1,note_on,81,0,80
1,note_on,79,58,0
1,note_on,79,0,80
1,note_on,88,63,0
1,note_on,88,0,80
1,note_on,86,56,0
1,note_on,86,0,80
1,note_on,85,60,0
1,note_on,85,0,80
1,note_on,82,57,0
1,note_on,82,0,80
1,note_on,81,51,0
1,note_on,81,0,80
1,note_on,79,54,0
1,note_on,79,0,80
1,note_on,77,50,0
1,note_on,77,0,80
1,note_on,76,50,0
1,note_on,76,0,80
1,note_on,74,50,0
1,note_on,74,0,80
1,note_on,81,50,0
1,note_on,81,0,80
1,note_on,79,47,0
1,note_on,79,0,80
1,note_on,78,50,0
1,note_on,78,0,80
1,note_on,84,55,0
1,note_on,84,0,80
1,note_on,82,48,0
1,note_on,82,0,80
1,note_on,81,50,0
1,note_on,81,0,80
1,note_on,87,59,0
1,note_on,87,0,80
1,note_on,86,53,0
1,note_on,86,0,80
1,note_on,84,48,0
1,note_on,84,0,80
1,note_on,82,50,0
1,note_on,82,0,80
1,note_on,81,49,0
1,note_on,81,0,80
1,note_on,79,48,0
1,note_on,79,0,80
1,note_on,78,51,0
1,note_on,78,0,80
1,note_on,79,48,0
1,note_on,79,0,80
1,note_on,81,54,0
1,note_on,81,0,80
1,note_on,78,50,0
1,note_on,78,0,80
1,note_on,72,46,0
1,note_on,72,0,80
1,note_on,70,50,0
1,note_on,70,0,480
1,note_on,82,62,0
1,note_on,82,0,480
1,note_on,74,57,0
1,note_on,74,0,480
1,note_on,73,50,0
1,note_on,73,0,480
1,note_on,79,62,0
1,note_on,79,0,480
1,note_on,77,55,0
1,note_on,77,0,480
1,note_on,76,40,80
1,note_on,76,0,80
1,note_on,79,40,0
1,note_on,79,0,80
1,note_on,82,45,0
1,note_on,82,0,80
1,note_on,79,35,0
1,note_on,79,0,80
1,note_on,76,35,0
1,note_on,76,0,80
1,note_on,74,41,0
1,note_on,74,0,660
1,note_on,77,35,0
1,note_on,77,0,60
1,note_on,76,42,0
1,note_on,73,36,0
1,note_on,73,0,240
1,note_on,76,0,0
1,note_on,78,43,0
1,note_on,78,0,480
1,note_on,81,54,0
1,note_on,81,0,560
1,note_on,87,60,0
1,note_on,87,0,80
1,note_on,86,54,0
1,note_on,86,0,80
1,note_on,84,58,0
1,note_on,84,0,80
1,note_on,82,54,0
1,note_on,82,0,80
1,note_on,81,49,0
1,note_on,81,0,80
1,note_on,79,54,0
1,note_on,79,0,480
1,note_on,82,54,0
1,note_on,82,0,560
1,note_on,86,54,0
1,note_on,86,0,80
1,note_on,84,49,0
1,note_on,84,0,80
1,note_on,82,53,0
1,note_on,82,0,80
1,note_on,81,49,0
1,note_on,81,0,80
1,note_on,79,49,0
1,note_on,79,0,80
1,note_on,78,54,0
1,note_on,78,0,560
1,note_on,79,54,0
1,note_on,79,0,80
1,note_on,80,51,0
1,note_on,80,0,80
1,note_on,81,54,0
1,note_on,81,0,80
1,note_on,82,51,0
1,note_on,82,0,80
1,note_on,84,49,0
1,note_on,84,0,80
1,note_on,86,62,0
1,note_on,86,0,80
1,note_on,87,65,0
1,note_on,87,0,80
1,note_on,86,58,0
1,note_on,86,0,80
1,note_on,84,61,0
1,note_on,84,0,80
1,note_on,82,57,0
1,note_on,82,0,80
1,note_on,81,54,0
1,note_on,81,0,80
1,note_on,82,62,0
1,note_on,82,0,80
1,note_on,86,51,0
1,note_on,86,0,80
1,note_on,78,45,0
1,note_on,78,0,80
1,note_on,79,55,0
1,note_on,79,0,80
1,note_on,82,51,0
1,note_on,82,0,80
1,note_on,74,47,0
1,note_on,74,0,80
1,note_on,82,62,0
1,note_on,82,0,80
1,note_on,86,51,0
1,note_on,86,0,80
1,note_on,78,45,0
1,note_on,78,0,80
1,note_on,79,55,0
1,note_on,79,0,80
1,note_on,82,51,0
1,note_on,82,0,80
1,note_on,74,47,0
1,note_on,74,0,80
1,note_on,75,54,0
1,note_on,75,0,80
1,note_on,78,47,0
1,note_on,78,0,80
1,note_on,79,47,0
1,note_on,79,0,80
1,note_on,74,53,0
1,note_on,74,0,80
1,note_on,78,48,0
1,note_on,78,0,80
1,note_on,79,48,0
1,note_on,79,0,80
1,note_on,73,62,0
1,note_on,73,0,240
1,note_on,67,46,320
1,note_on,67,0,80
1,note_on,70,46,0
1,note_on,70,0,80
1,note_on,73,54,0
1,note_on,73,0,80
1,note_on,76,47,0
1,note_on,76,0,80
1,note_on,79,47,0
1,note_on,79,0,80
1,note_on,82,53,0
1,note_on,82,0,80
1,note_on,79,48,0
1,note_on,79,0,80
1,note_on,85,54,0
1,note_on,85,0,80
1,note_on,86,57,0
1,note_on,86,0,240
1,note_on,64,34,80
1,note_on,64,0,80
1,note_on,67,34,0
1,note_on,67,0,80
1,note_on,70,38,0
1,note_on,70,0,80
1,note_on,67,29,0
1,note_on,67,0,80
1,note_on,64,29,0
1,note_on,64,0,80
1,note_on,62,34,0
1,note_on,62,0,660
1,note_on,65,29,0
1,note_on,65,0,60
1,note_on,64,35,0
1,note_on,61,30,0
1,note_on,61,0,240
1,note_on,64,0,0
1,note_on,62,36,0
1,note_on,62,0,480
1,note_on,86,38,240
1,note_on,89,38,0
1,note_on,89,0,240
1,note_on,86,0,0
1,note_on,89,38,0
1,note_on,86,38,0
1,note_on,86,0,240
1,note_on,89,0,0
1,note_on,86,38,0
1,note_on,89,38,0
1,note_on,89,0,240
1,note_on,86,0,0
1,note_on,86,38,720
1,note_on,89,38,0
1,note_on,89,0,240
1,note_on,86,0,0
1,note_on,89,38,0
1,note_on,86,38,0
1,note_on,86,0,240
1,note_on,89,0,0
1,note_on,86,38,0
1,note_on,89,38,0
1,note_on,89,0,240
1,note_on,86,0,0
1,note_on,62,27,720
1,note_on,65,32,0
1,note_on,65,0,240
1,note_on,62,0,0
1,note_on,65,32,0
1,note_on,62,27,0
1,note_on,62,0,240
1,note_on,65,0,0
1,note_on,56,27,0
1,note_on,62,32,0
1,note_on,62,0,240
1,note_on,56,0,0
1,note_on,57,33,0
1,note_on,57,0,80
1,note_on,61,33,0
1,note_on,61,0,80
1,note_on,64,38,0
1,note_on,64,0,80
1,note_on,69,32,0
1,note_on,69,0,80
1,note_on,64,33,0
1,note_on,64,0,80
1,note_on,61,38,0
1,note_on,61,0,80
2,note_on,65,34,0
2,note_on,62,28,0
2,note_on,62,0,480
2,note_on,65,0,0
2,note_on,67,32,0
2,note_on,64,27,0
2,note_on,64,0,240
2,note_on,67,0,0
2,note_on,70,28,720
2,note_on,67,28,0
2,note_on,73,34,0
2,note_on,64,28,0
2,note_on,64,0,480
2,note_on,70,0,0
2,note_on,67,0,0
2,note_on,73,0,0
2,note_on,69,27,0
2,note_on,74,32,0
2,note_on,65,27,0
2,note_on,65,0,240
2,note_on,74,0,0
2,note_on,69,0,0
2,note_on,67,26,720
2,note_on,67,0,240
2,note_on,69,26,240
2,note_on,69,0,240
2,note_on,61,27,240
2,note_on,69,32,0
2,note_on,69,0,240
2,note_on,61,0,0
2,note_on,62,27,240
2,note_on,69,32,0
2,note_on,69,0,240
2,note_on,62,0,0
2,note_on,69,27,240
2,note_on,73,32,0
2,note_on,73,0,240
2,note_on,69,0,0
2,note_on,53,30,720
2,note_on,50,25,0
2,note_on,50,0,480
2,note_on,53,0,0
2,note_on,55,28,0
2,note_on,52,24,0
2,note_on,52,0,240
2,note_on,55,0,0
2,note_on,52,25,720
2,note_on,58,25,0
2,note_on,61,30,0
2,note_on,55,25,0
2,note_on,55,0,480
2,note_on,52,0,0
2,note_on,58,0,0
2,note_on,61,0,0
2,note_on,57,28,0
2,note_on,53,24,0
2,note_on,53,0,240
2,note_on,57,0,0
2,note_on,46,26,720
2,note_on,50,26,0
2,note_on,56,35,0
2,note_on,56,0,480
2,note_on,50,0,0
2,note_on,46,0,0
2,note_on,34,28,480
2,note_on,34,0,240
2,note_on,33,32,240
2,note_on,33,0,480
2,note_on,29,32,960
2,note_on,41,32,0
2,note_on,41,0,480
2,note_on,29,0,0
2,note_on,52,21,1200
2,note_on,58,27,0
2,note_on,58,0,240
2,note_on,52,0,0
2,note_on,52,21,0
2,note_on,58,27,0
2,note_on,58,0,240
2,note_on,52,0,0
2,note_on,52,21,0
2,note_on,58,27,0
2,note_on,58,0,240
2,note_on,52,0,0
2,note_on,58,29,0
2,note_on,52,23,0
2,note_on,52,0,240
2,note_on,58,0,0
2,note_on,52,21,0
2,note_on,58,27,0
2,note_on,58,0,240
2,note_on,52,0,0
2,note_on,53,32,0
2,note_on,57,32,0
2,note_on,57,0,480
2,note_on,53,0,0
2,note_on,51,21,1200
2,note_on,57,27,0
2,note_on,57,0,240
2,note_on,51,0,0
2,note_on,51,21,0
2,note_on,57,27,0
2,note_on,57,0,240
2,note_on,51,0,0
2,note_on,51,21,0
2,note_on,57,27,0
2,note_on,57,0,240
2,note_on,51,0,0
2,note_on,57,29,0
2,note_on,51,23,0
2,note_on,51,0,240
2,note_on,57,0,0
2,note_on,51,21,0
2,note_on,57,27,0
2,note_on,57,0,240
2,note_on,51,0,0
2,note_on,50,21,240
2,note_on,53,27,0
2,note_on,53,0,240
2,note_on,50,0,0
2,note_on,50,23,0
2,note_on,53,29,0
2,note_on,53,0,240
2,note_on,50,0,0
2,note_on,50,21,0
2,note_on,53,27,0
2,note_on,53,0,240
2,note_on,50,0,0
2,note_on,50,23,0
2,note_on,53,29,0
2,note_on,53,0,240
2,note_on,50,0,0
2,note_on,48,27,240
2,note_on,48,0,80
2,note_on,52,25,0
2,note_on,52,0,80
2,note_on,55,25,0
2,note_on,55,0,80
2,note_on,48,27,0
2,note_on,48,0,80
2,note_on,52,25,0
2,note_on,52,0,80
2,note_on,55,25,0
2,note_on,55,0,80
2,note_on,48,27,0
2,note_on,48,0,80
2,note_on,52,25,0
2,note_on,52,0,80
2,note_on,55,25,0
2,note_on,55,0,80
2,note_on,48,27,0
2,note_on,48,0,80
2,note_on,52,25,0
2,note_on,52,0,80
2,note_on,55,25,0
2,note_on,55,0,80
2,note_on,48,27,0
2,note_on,48,0,80
2,note_on,53,25,0
2,note_on,53,0,80
2,note_on,57,25,0
2,note_on,57,0,80
2,note_on,48,27,0
2,note_on,48,0,80
2,note_on,53,25,0
2,note_on,53,0,80
2,note_on,57,25,0
2,note_on,57,0,80
2,note_on,46,31,0
2,note_on,46,0,80
2,note_on,53,25,0
2,note_on,53,0,80
2,note_on,57,29,0
2,note_on,57,0,80
2,note_on,46,32,0
2,note_on,46,0,80
2,note_on,53,35,0
2,note_on,53,0,80
2,note_on,57,38,0
2,note_on,57,0,80
2,note_on,46,42,0
2,note_on,46,0,80
2,note_on,53,37,0
2,note_on,53,0,80
2,note_on,55,37,0
2,note_on,55,0,80
2,note_on,46,42,0
2,note_on,46,0,80
2,note_on,53,35,0
2,note_on,53,0,80
2,note_on,55,36,0
2,note_on,55,0,80
2,note_on,47,43,0
2,note_on,47,0,80
2,note_on,50,35,0
2,note_on,50,0,80
2,note_on,55,35,0
2,note_on,55,0,80
2,note_on,47,41,0
2,note_on,47,0,80
2,note_on,50,34,0
2,note_on,50,0,80
2,note_on,55,34,0
2,note_on,55,0,80
2,note_on,48,39,0
2,note_on,48,0,80
2,note_on,52,31,0
2,note_on,52,0,80
2,note_on,55,31,0
2,note_on,55,0,80
2,note_on,48,35,0
2,note_on,48,0,80
2,note_on,52,31,0
2,note_on,52,0,80
2,note_on,55,31,0
2,note_on,55,0,80
2,note_on,52,35,0
2,note_on,52,0,80
2,note_on,55,32,0
2,note_on,55,0,80
2,note_on,60,32,0
2,note_on,60,0,80
2,note_on,52,35,0
2,note_on,52,0,80
2,note_on,55,29,0
2,note_on,55,0,80
2,note_on,60,29,0
2,note_on,60,0,80
2,note_on,53,35,0
2,note_on,53,0,80
2,note_on,57,27,0
2,note_on,57,0,80
2,note_on,60,27,0
2,note_on,60,0,80
2,note_on,53,32,0
2,note_on,53,0,80
2,note_on,57,27,0
2,note_on,57,0,80
2,note_on,60,27,0
2,note_on,60,0,80
2,note_on,58,32,0
2,note_on,62,40,0
2,note_on,62,0,240
2,note_on,58,0,0
2,note_on,57,30,240
2,note_on,48,24,0
2,note_on,57,0,480
2,note_on,58,27,0
2,note_on,58,0,480
2,note_on,48,0,0
2,note_on,53,40,0
2,note_on,53,0,80
2,note_on,57,40,0
2,note_on,57,0,80
2,note_on,55,37,0
2,note_on,55,0,80
2,note_on,53,40,0
2,note_on,53,0,80
2,note_on,62,44,0
2,note_on,62,0,80
2,note_on,60,38,0
2,note_on,60,0,80
2,note_on,58,40,0
2,note_on,58,0,80
2,note_on,67,44,0
2,note_on,67,0,80
2,note_on,65,40,0
2,note_on,65,0,80
2,note_on,64,45,0
2,note_on,64,0,80
2,note_on,70,52,0
2,note_on,70,0,80
2,note_on,69,43,0
2,note_on,69,0,80
2,note_on,67,44,0
2,note_on,67,0,80
2,note_on,65,40,0
2,note_on,65,0,80
2,note_on,64,36,0
2,note_on,64,0,80
2,note_on,62,43,0
2,note_on,62,0,80
2,note_on,60,40,0
2,note_on,60,0,80
2,note_on,58,40,0
2,note_on,58,0,80
2,note_on,57,39,0
2,note_on,57,0,80
2,note_on,60,31,0
2,note_on,60,0,80
2,note_on,65,31,0
2,note_on,65,0,80
2,note_on,57,35,0
2,note_on,57,0,80
2,note_on,60,31,0
2,note_on,60,0,80
2,note_on,65,31,0
2,note_on,65,0,80
2,note_on,55,35,0
2,note_on,55,0,80
2,note_on,58,32,0
2,note_on,58,0,80
2,note_on,64,32,0
2,note_on,64,0,80
2,note_on,55,35,0
2,note_on,55,0,80
2,note_on,58,29,0
2,note_on,58,0,80
2,note_on,64,29,0
2,note_on,64,0,80
2,note_on,53,35,0
2,note_on,53,0,80
2,note_on,57,27,0
2,note_on,57,0,80
2,note_on,65,27,0
2,note_on,65,0,80
2,note_on,53,32,0
2,note_on,53,0,80
2,note_on,57,27,0
2,note_on,57,0,80
2,note_on,65,27,0
2,note_on,65,0,80
2,note_on,58,32,0
2,note_on,62,40,0
2,note_on,62,0,480
2,note_on,58,0,0
2,note_on,57,30,0
2,note_on,48,24,0
2,note_on,57,0,480
2,note_on,58,27,0
2,note_on,58,0,480
2,note_on,48,0,0
2,note_on,53,40,0
2,note_on,53,0,80
2,note_on,57,40,0
2,note_on,57,0,80
2,note_on,55,37,0
2,note_on,55,0,80
2,note_on,53,40,0
2,note_on,53,0,80
2,note_on,62,44,0
2,note_on,62,0,80
2,note_on,60,38,0
2,note_on,60,0,80
2,note_on,58,40,0
2,note_on,58,0,80
2,note_on,67,44,0
2,note_on,67,0,80
2,note_on,65,40,0
2,note_on,65,0,80
2,note_on,64,46,0
2,note_on,64,0,80
2,note_on,70,51,0
2,note_on,70,0,80
2,note_on,69,43,0
2,note_on,69,0,80
2,note_on,67,44,0
2,note_on,67,0,80
2,note_on,65,40,0
2,note_on,65,0,80
2,note_on,64,36,0
2,note_on,64,0,80
2,note_on,62,43,0
2,note_on,62,0,80
2,note_on,60,40,0
2,note_on,60,0,80
2,note_on,58,40,0
2,note_on,58,0,80
2,note_on,57,39,0
2,note_on,57,0,80
2,note_on,60,31,0
2,note_on,60,0,80
2,note_on,65,31,0
2,note_on,65,0,80
2,note_on,57,35,0
2,note_on,57,0,80
2,note_on,60,31,0
2,note_on,60,0,80
2,note_on,65,31,0
2,note_on,65,0,80
2,note_on,55,35,0
2,note_on,55,0,80
2,note_on,58,32,0
2,note_on,58,0,80
2,note_on,64,32,0
2,note_on,64,0,80
2,note_on,55,35,0
2,note_on,55,0,80
2,note_on,58,29,0
2,note_on,58,0,80
2,note_on,64,29,0
2,note_on,64,0,80
2,note_on,53,35,0
2,note_on,53,0,80
2,note_on,57,27,0
2,note_on,57,0,80
2,note_on,65,27,0
2,note_on,65,0,80
2,note_on,53,32,0
2,note_on,53,0,80
2,note_on,57,27,0
2,note_on,57,0,80
2,note_on,65,27,0
2,note_on,65,0,80
2,note_on,58,26,0
2,note_on,62,36,0
2,note_on,62,0,480
2,note_on,58,0,0
2,note_on,70,36,480
2,note_on,60,27,0
2,note_on,60,0,480
2,note_on,65,27,0
2,note_on,70,0,480
2,note_on,69,27,0
2,note_on,69,0,480
2,note_on,65,0,0
2,note_on,65,34,480
2,note_on,62,28,0
2,note_on,62,0,480
2,note_on,65,0,0
2,note_on,67,32,0
2,note_on,64,27,0
2,note_on,64,0,240
2,note_on,67,0,0
2,note_on,70,28,720
2,note_on,67,28,0
2,note_on,73,34,0
2,note_on,64,28,0
2,note_on,64,0,480
2,note_on,70,0,0
2,note_on,67,0,0
2,note_on,73,0,0
2,note_on,69,27,0
2,note_on,74,32,0
2,note_on,65,27,0
2,note_on,65,0,240
2,note_on,74,0,0
2,note_on,69,0,0
2,note_on,67,26,720
2,note_on,67,0,240
2,note_on,69,26,240
2,note_on,69,0,240
2,note_on,61,27,240
2,note_on,69,32,0
2,note_on,69,0,240
2,note_on,61,0,0
2,note_on,62,27,240
2,note_on,69,32,0
2,note_on,69,0,240
2,note_on,62,0,0
2,note_on,69,27,240
2,note_on,73,32,0
2,note_on,73,0,240
2,note_on,69,0,0
2,note_on,53,30,720
2,note_on,50,25,0
2,note_on,50,0,480
2,note_on,53,0,0
2,note_on,55,28,0
2,note_on,52,24,0
2,note_on,52,0,240
2,note_on,55,0,0
2,note_on,52,25,720
2,note_on,58,25,0
2,note_on,61,30,0
2,note_on,55,25,0
2,note_on,55,0,480
2,note_on,52,0,0
2,note_on,58,0,0
2,note_on,61,0,0
2,note_on,57,28,0
2,note_on,53,24,0
2,note_on,53,0,240
2,note_on,57,0,0
2,note_on,46,26,720
2,note_on,50,26,0
2,note_on,56,35,0
2,note_on,56,0,480
2,note_on,50,0,0
2,note_on,46,0,0
2,note_on,34,28,480
2,note_on,34,0,240
2,note_on,33,32,240
2,note_on,33,0,480
2,note_on,29,32,960
2,note_on,41,32,0
2,note_on,41,0,480
2,note_on,29,0,0
2,note_on,52,21,1200
2,note_on,58,27,0
2,note_on,58,0,240
2,note_on,52,0,0
2,note_on,52,21,0
2,note_on,58,27,0
2,note_on,58,0,240
2,note_on,52,0,0
2,note_on,52,21,0
2,note_on,58,27,0
2,note_on,58,0,240
2,note_on,52,0,0
2,note_on,58,29,0
2,note_on,52,23,0
2,note_on,52,0,240
2,note_on,58,0,0
2,note_on,52,21,0
2,note_on,58,27,0
2,note_on,58,0,240
2,note_on,52,0,0
2,note_on,53,32,0
2,note_on,57,32,0
2,note_on,57,0,480
2,note_on,53,0,0
2,note_on,51,21,1200
2,note_on,57,27,0
2,note_on,57,0,240
2,note_on,51,0,0
2,note_on,51,21,0
2,note_on,57,27,0
2,note_on,57,0,240
2,note_on,51,0,0
2,note_on,51,21,0
2,note_on,57,27,0
2,note_on,57,0,240
2,note_on,51,0,0
2,note_on,57,29,0
2,note_on,51,23,0
2,note_on,51,0,240
2,note_on,57,0,0
2,note_on,51,21,0
2,note_on,57,27,0
2,note_on,57,0,240
2,note_on,51,0,0
2,note_on,50,21,240
2,note_on,53,27,0
2,note_on,53,0,240
2,note_on,50,0,0
2,note_on,50,23,0
2,note_on,53,29,0
2,note_on,53,0,240
2,note_on,50,0,0
2,note_on,50,21,0
2,note_on,53,27,0
2,note_on,53,0,240
2,note_on,50,0,0
2,note_on,50,23,0
2,note_on,53,29,0
2,note_on,53,0,240
2,note_on,50,0,0
2,note_on,48,27,240
2,note_on,48,0,80
2,note_on,52,25,0
2,note_on,52,0,80
2,note_on,55,25,0
2,note_on,55,0,80
2,note_on,48,27,0
2,note_on,48,0,80
2,note_on,52,25,0
2,note_on,52,0,80
2,note_on,55,25,0
2,note_on,55,0,80
2,note_on,48,27,0
2,note_on,48,0,80
2,note_on,52,25,0
2,note_on,52,0,80
2,note_on,55,25,0
2,note_on,55,0,80
2,note_on,48,27,0
2,note_on,48,0,80
2,note_on,52,25,0
2,note_on,52,0,80
2,note_on,55,25,0
2,note_on,55,0,80
2,note_on,48,27,0
2,note_on,48,0,80
2,note_on,53,25,0
2,note_on,53,0,80
2,note_on,57,25,0
2,note_on,57,0,80
2,note_on,48,27,0
2,note_on,48,0,80
2,note_on,53,25,0
2,note_on,53,0,80
2,note_on,57,25,0
2,note_on,57,0,80
2,note_on,46,31,0
2,note_on,46,0,80
2,note_on,53,25,0
2,note_on,53,0,80
2,note_on,57,29,0
2,note_on,57,0,80
2,note_on,46,32,0
2,note_on,46,0,80
2,note_on,53,35,0
2,note_on,53,0,80
2,note_on,57,38,0
2,note_on,57,0,80
2,note_on,46,42,0
2,note_on,46,0,80
2,note_on,53,37,0
2,note_on,53,0,80
2,note_on,55,37,0
2,note_on,55,0,80
2,note_on,46,42,0
2,note_on,46,0,80
2,note_on,53,35,0
2,note_on,53,0,80
2,note_on,55,36,0
2,note_on,55,0,80
2,note_on,47,43,0
2,note_on,47,0,80
2,note_on,50,35,0
2,note_on,50,0,80
2,note_on,55,35,0
2,note_on,55,0,80
2,note_on,47,41,0
2,note_on,47,0,80
2,note_on,50,34,0
2,note_on,50,0,80
2,note_on,55,34,0
2,note_on,55,0,80
2,note_on,48,39,0
2,note_on,48,0,80
2,note_on,52,31,0
2,note_on,52,0,80
2,note_on,55,31,0
2,note_on,55,0,80
2,note_on,48,35,0
2,note_on,48,0,80
2,note_on,52,31,0
2,note_on,52,0,80
2,note_on,55,31,0
2,note_on,55,0,80
2,note_on,52,35,0
2,note_on,52,0,80
2,note_on,55,32,0
2,note_on,55,0,80
2,note_on,60,32,0
2,note_on,60,0,80
2,note_on,52,35,0
2,note_on,52,0,80
2,note_on,55,29,0
2,note_on,55,0,80
2,note_on,60,29,0
2,note_on,60,0,80
2,note_on,53,35,0
2,note_on,53,0,80
2,note_on,57,27,0
2,note_on,57,0,80
2,note_on,60,27,0
2,note_on,60,0,80
2,note_on,53,32,0
2,note_on,53,0,80
2,note_on,57,27,0
2,note_on,57,0,80
2,note_on,60,27,0
2,note_on,60,0,80
2,note_on,58,32,0
2,note_on,62,40,0
2,note_on,62,0,240
2,note_on,58,0,0
2,note_on,57,30,240
2,note_on,48,24,0
2,note_on,57,0,480
2,note_on,58,27,0
2,note_on,58,0,480
2,note_on,48,0,0
2,note_on,53,40,0
2,note_on,53,0,80
2,note_on,57,40,0
2,note_on,57,0,80
2,note_on,55,37,0
2,note_on,55,0,80
2,note_on,53,40,0
2,note_on,53,0,80
2,note_on,62,44,0
2,note_on,62,0,80
2,note_on,60,38,0
2,note_on,60,0,80
2,note_on,58,40,0
2,note_on,58,0,80
2,note_on,67,44,0
2,note_on,67,0,80
2,note_on,65,40,0
2,note_on,65,0,80
2,note_on,64,45,0
2,note_on,64,0,80
2,note_on,70,52,0
2,note_on,70,0,80
2,note_on,69,43,0
2,note_on,69,0,80
2,note_on,67,44,0
2,note_on,67,0,80
2,note_on,65,40,0
2,note_on,65,0,80
2,note_on,64,36,0
2,note_on,64,0,80
2,note_on,62,43,0
2,note_on,62,0,80
2,note_on,60,40,0
2,note_on,60,0,80
2,note_on,58,40,0
2,note_on,58,0,80
2,note_on,57,39,0
2,note_on,57,0,80
2,note_on,60,31,0
2,note_on,60,0,80
2,note_on,65,31,0
2,note_on,65,0,80
2,note_on,57,35,0
2,note_on,57,0,80
2,note_on,60,31,0
2,note_on,60,0,80
2,note_on,65,31,0
2,note_on,65,0,80
2,note_on,55,35,0
2,note_on,55,0,80
2,note_on,58,32,0
2,note_on,58,0,80
2,note_on,64,32,0
2,note_on,64,0,80
2,note_on,55,35,0
2,note_on,55,0,80
2,note_on,58,29,0
2,note_on,58,0,80
2,note_on,64,29,0
2,note_on,64,0,80
2,note_on,53,35,0
2,note_on,53,0,80
2,note_on,57,27,0
2,note_on,57,0,80
2,note_on,65,27,0
2,note_on,65,0,80
2,note_on,53,32,0
2,note_on,53,0,80
2,note_on,57,27,0
2,note_on,57,0,80
2,note_on,65,27,0
2,note_on,65,0,80
2,note_on,58,32,0
2,note_on,62,40,0
2,note_on,62,0,480
2,note_on,58,0,0
2,note_on,57,30,0
2,note_on,48,24,0
2,note_on,57,0,480
2,note_on,58,27,0
2,note_on,58,0,480
2,note_on,48,0,0
2,note_on,53,40,0
2,note_on,53,0,80
2,note_on,57,40,0
2,note_on,57,0,80
2,note_on,55,37,0
2,note_on,55,0,80
2,note_on,53,40,0
2,note_on,53,0,80
2,note_on,62,44,0
2,note_on,62,0,80
2,note_on,60,38,0
2,note_on,60,0,80
2,note_on,58,40,0
2,note_on,58,0,80
2,note_on,67,44,0
2,note_on,67,0,80
2,note_on,65,40,0
2,note_on,65,0,80
2,note_on,64,46,0
2,note_on,64,0,80
2,note_on,70,51,0
2,note_on,70,0,80
2,note_on,69,43,0
2,note_on,69,0,80
2,note_on,67,44,0
2,note_on,67,0,80
2,note_on,65,40,0
2,note_on,65,0,80
2,note_on,64,36,0
2,note_on,64,0,80
2,note_on,62,43,0
2,note_on,62,0,80
2,note_on,60,40,0
2,note_on,60,0,80
2,note_on,58,40,0
2,note_on,58,0,80
2,note_on,57,39,0
2,note_on,57,0,80
2,note_on,60,31,0
2,note_on,60,0,80
2,note_on,65,31,0
2,note_on,65,0,80
2,note_on,57,35,0
2,note_on,57,0,80
2,note_on,60,31,0
2,note_on,60,0,80
2,note_on,65,31,0
2,note_on,65,0,80
2,note_on,55,35,0
2,note_on,55,0,80
2,note_on,58,32,0
2,note_on,58,0,80
2,note_on,64,32,0
2,note_on,64,0,80
2,note_on,55,35,0
2,note_on,55,0,80
2,note_on,58,29,0
2,note_on,58,0,80
2,note_on,64,29,0
2,note_on,64,0,80
2,note_on,53,35,0
2,note_on,53,0,80
2,note_on,57,27,0
2,note_on,57,0,80
2,note_on,65,27,0
2,note_on,65,0,80
2,note_on,53,32,0
2,note_on,53,0,80
2,note_on,57,27,0
2,note_on,57,0,80
2,note_on,65,27,0
2,note_on,65,0,80
2,note_on,58,26,0
2,note_on,62,36,0
2,note_on,62,0,480
2,note_on,58,0,0
2,note_on,70,36,480
2,note_on,60,27,0
2,note_on,60,0,480
2,note_on,65,27,0
2,note_on,70,0,480
2,note_on,69,27,0
2,note_on,69,0,480
2,note_on,65,0,0
2,note_on,57,34,480
2,note_on,53,28,0
2,note_on,53,0,480
2,note_on,57,0,0
2,note_on,58,32,0
2,note_on,55,27,0
2,note_on,55,0,240
2,note_on,58,0,0
2,note_on,60,24,1200
2,note_on,63,28,0
2,note_on,57,24,0
2,note_on,57,0,240
2,note_on,63,0,0
2,note_on,60,0,0
2,note_on,58,42,720
2,note_on,58,0,80
2,note_on,62,39,0
2,note_on,62,0,80
2,note_on,67,39,0
2,note_on,67,0,80
2,note_on,60,27,1200
2,note_on,60,0,80
2,note_on,67,25,0
2,note_on,67,0,80
2,note_on,70,25,0
2,note_on,70,0,80
2,note_on,60,27,0
2,note_on,60,0,80
2,note_on,67,25,0
2,note_on,67,0,80
2,note_on,70,25,0
2,note_on,70,0,80
2,note_on,60,27,0
2,note_on,60,0,80
2,note_on,67,25,0
2,note_on,67,0,80
2,note_on,70,25,0
2,note_on,70,0,80
2,note_on,60,27,0
2,note_on,60,0,80
2,note_on,67,25,0
2,note_on,67,0,80
2,note_on,70,25,0
2,note_on,70,0,80
2,note_on,60,27,0
2,note_on,60,0,80
2,note_on,67,25,0
2,note_on,67,0,80
2,note_on,70,25,0
2,note_on,70,0,80
2,note_on,60,27,0
2,note_on,60,0,80
2,note_on,67,25,0
2,note_on,67,0,80
2,note_on,70,25,0
2,note_on,70,0,70
2,note_on,65,23,10
2,note_on,70,36,0
2,note_on,70,0,480
2,note_on,69,27,0
2,note_on,69,0,960
2,note_on,65,0,0
2,note_on,58,26,0
2,note_on,58,0,80
2,note_on,65,22,0
2,note_on,65,0,80
2,note_on,69,22,0
2,note_on,69,0,80
2,note_on,58,27,0
2,note_on,58,0,80
2,note_on,65,25,0
2,note_on,65,0,80
2,note_on,69,25,0
2,note_on,69,0,80
2,note_on,58,27,0
2,note_on,58,0,80
2,note_on,65,25,0
2,note_on,65,0,80
2,note_on,67,25,0
2,note_on,67,0,80
2,note_on,58,27,0
2,note_on,58,0,80
2,note_on,65,25,0
2,note_on,65,0,80
2,note_on,67,25,0
2,note_on,67,0,80
2,note_on,58,27,0
2,note_on,58,0,80
2,note_on,65,25,0
2,note_on,65,0,80
2,note_on,67,25,0
2,note_on,67,0,80
2,note_on,58,30,0
2,note_on,58,0,80
2,note_on,65,26,0
2,note_on,65,0,80
2,note_on,67,29,0
2,note_on,67,0,70
2,note_on,57,37,10
2,note_on,57,0,80
2,note_on,64,31,0
2,note_on,64,0,80
2,note_on,67,31,0
2,note_on,67,0,80
2,note_on,57,37,0
2,note_on,57,0,80
2,note_on,64,31,0
2,note_on,64,0,80
2,note_on,67,31,0
2,note_on,67,0,80
2,note_on,61,39,0
2,note_on,61,0,80
2,note_on,64,33,0
2,note_on,64,0,80
2,note_on,69,33,0
2,note_on,69,0,80
2,note_on,61,39,0
2,note_on,61,0,80
2,note_on,64,31,0
2,note_on,64,0,80
2,note_on,69,30,0
2,note_on,69,0,80
2,note_on,62,37,0
2,note_on,62,0,80
2,note_on,65,30,0
2,note_on,65,0,80
2,note_on,69,30,0
2,note_on,69,0,80
2,note_on,62,33,0
2,note_on,62,0,80
2,note_on,65,25,0
2,note_on,65,0,80
2,note_on,69,25,0
2,note_on,69,0,70
2,note_on,57,34,10
2,note_on,57,0,80
2,note_on,61,27,0
2,note_on,61,0,80
2,note_on,64,27,0
2,note_on,64,0,80
2,note_on,69,29,0
2,note_on,69,0,80
2,note_on,64,27,0
2,note_on,64,0,80
2,note_on,61,27,0
2,note_on,61,0,80
2,note_on,57,33,0
2,note_on,57,0,240
2,note_on,57,46,240
2,note_on,57,0,80
2,note_on,58,39,0
2,note_on,58,0,80
2,note_on,57,39,0
2,note_on,57,0,80
2,note_on,55,44,0
2,note_on,55,0,80
2,note_on,53,35,0
2,note_on,53,0,80
2,note_on,52,37,0
2,note_on,52,0,80
2,note_on,50,48,0
2,note_on,50,0,240
2,note_on,52,34,240
2,note_on,55,34,0
2,note_on,58,34,0
2,note_on,58,0,480
2,note_on,55,0,0
2,note_on,52,0,0
2,note_on,73,40,480
2,note_on,70,32,0
2,note_on,67,32,0
2,note_on,64,32,0
2,note_on,64,0,480
2,note_on,73,0,0
2,note_on,70,0,0
2,note_on,67,0,0
2,note_on,74,40,0
2,note_on,69,32,0
2,note_on,65,32,0
2,note_on,65,0,480
2,note_on,69,0,0
2,note_on,74,0,0
2,note_on,66,38,360
2,note_on,66,0,120
2,note_on,67,26,0
2,note_on,67,0,240
2,note_on,70,37,120
2,note_on,70,0,120
2,note_on,69,26,0
2,note_on,69,0,240
2,note_on,61,35,120
2,note_on,61,0,120
2,note_on,57,32,0
2,note_on,57,0,240
2,note_on,61,29,120
2,note_on,69,37,0
2,note_on,69,0,120
2,note_on,61,0,0
2,note_on,62,27,0
2,note_on,69,32,0
2,note_on,69,0,240
2,note_on,62,0,0
2,note_on,69,27,240
2,note_on,73,32,0
2,note_on,73,0,240
2,note_on,69,0,0
2,note_on,61,40,800
2,note_on,61,0,80
2,note_on,58,37,0
2,note_on,58,0,80
2,note_on,57,40,0
2,note_on,57,0,80
2,note_on,64,44,0
2,note_on,64,0,80
2,note_on,62,38,0
2,note_on,62,0,80
2,note_on,61,40,0
2,note_on,61,0,80
2,note_on,67,44,0
2,note_on,67,0,80
2,note_on,65,40,0
2,note_on,65,0,80
2,note_on,64,45,0
2,note_on,64,0,240
2,note_on,66,40,560
2,note_on,66,0,80
2,note_on,64,37,0
2,note_on,64,0,80
2,note_on,62,40,0
2,note_on,62,0,80
2,note_on,69,44,0
2,note_on,69,0,80
2,note_on,67,38,0
2,note_on,67,0,80
2,note_on,66,40,0
2,note_on,66,0,80
2,note_on,72,44,0
2,note_on,72,0,80
2,note_on,70,40,0
2,note_on,70,0,80
2,note_on,69,39,0
2,note_on,69,0,240
2,note_on,55,31,480
2,note_on,55,0,80
2,note_on,58,25,0
2,note_on,58,0,80
2,note_on,63,29,0
2,note_on,63,0,80
2,note_on,55,32,0
2,note_on,55,0,80
2,note_on,58,35,0
2,note_on,58,0,80
2,note_on,63,38,0
2,note_on,63,0,80
2,note_on,55,42,0
2,note_on,55,0,80
2,note_on,58,37,0
2,note_on,58,0,80
2,note_on,63,37,0
2,note_on,63,0,80
2,note_on,55,42,0
2,note_on,55,0,80
2,note_on,58,35,0
2,note_on,58,0,80
2,note_on,63,36,0
2,note_on,63,0,80
2,note_on,56,43,0
2,note_on,56,0,80
2,note_on,62,35,0
2,note_on,62,0,80
2,note_on,65,35,0
2,note_on,65,0,80
2,note_on,56,41,0
2,note_on,56,0,80
2,note_on,62,34,0
2,note_on,62,0,80
2,note_on,65,34,0
2,note_on,65,0,80
2,note_on,57,31,0
2,note_on,57,0,80
2,note_on,64,25,0
2,note_on,64,0,80
2,note_on,67,29,0
2,note_on,67,0,80
2,note_on,57,32,0
2,note_on,57,0,80
2,note_on,64,35,0
2,note_on,64,0,80
2,note_on,69,38,0
2,note_on,69,0,80
2,note_on,61,42,0
2,note_on,61,0,80
2,note_on,64,37,0
2,note_on,64,0,80
2,note_on,69,37,0
2,note_on,69,0,80
2,note_on,61,42,0
2,note_on,61,0,80
2,note_on,64,35,0
2,note_on,64,0,80
2,note_on,69,36,0
2,note_on,69,0,80
2,note_on,62,43,0
2,note_on,62,0,80
2,note_on,65,35,0
2,note_on,65,0,80
2,note_on,69,35,0
2,note_on,69,0,80
2,note_on,62,41,0
2,note_on,62,0,80
2,note_on,65,34,0
2,note_on,65,0,80
2,note_on,69,34,0
2,note_on,69,0,80
2,note_on,58,40,0
2,note_on,58,0,480
2,note_on,65,30,0
2,note_on,57,24,0
2,note_on,65,0,480
2,note_on,67,27,0
2,note_on,67,0,480
2,note_on,57,0,0
2,note_on,62,31,0
2,note_on,62,0,80
2,note_on,69,25,0
2,note_on,69,0,80
2,note_on,72,29,0
2,note_on,72,0,80
2,note_on,62,32,0
2,note_on,62,0,80
2,note_on,69,35,0
2,note_on,69,0,80
2,note_on,72,38,0
2,note_on,72,0,80
2,note_on,62,42,0
2,note_on,62,0,80
2,note_on,69,37,0
2,note_on,69,0,80
2,note_on,72,33,0
2,note_on,72,0,80
2,note_on,62,39,0
2,note_on,62,0,80
2,note_on,69,34,0
2,note_on,69,0,80
2,note_on,72,34,0
2,note_on,72,0,80
2,note_on,62,40,0
2,note_on,62,0,80
2,note_on,69,32,0
2,note_on,69,0,80
2,note_on,72,32,0
2,note_on,72,0,80
2,note_on,62,38,0
2,note_on,62,0,80
2,note_on,69,32,0
2,note_on,69,0,80
2,note_on,72,32,0
2,note_on,72,0,80
2,note_on,62,31,0
2,note_on,62,0,80
2,note_on,67,25,0
2,note_on,67,0,80
2,note_on,70,29,0
2,note_on,70,0,80
2,note_on,62,32,0
2,note_on,62,0,80
2,note_on,67,35,0
2,note_on,67,0,80
2,note_on,70,38,0
2,note_on,70,0,80
2,note_on,62,42,0
2,note_on,62,0,80
2,note_on,67,37,0
2,note_on,67,0,80
2,note_on,70,33,0
2,note_on,70,0,80
2,note_on,62,39,0
2,note_on,62,0,80
2,note_on,67,34,0
2,note_on,67,0,80
2,note_on,70,34,0
2,note_on,70,0,80
2,note_on,62,40,0
2,note_on,62,0,80
2,note_on,67,32,0
2,note_on,67,0,80
2,note_on,70,32,0
2,note_on,70,0,80
2,note_on,62,38,0
2,note_on,62,0,80
2,note_on,67,32,0
2,note_on,67,0,80
2,note_on,70,32,0
2,note_on,70,0,80
2,note_on,62,31,0
2,note_on,62,0,80
2,note_on,69,25,0
2,note_on,69,0,80
2,note_on,72,29,0
2,note_on,72,0,80
2,note_on,62,32,0
2,note_on,62,0,80
2,note_on,69,35,0
2,note_on,69,0,80
2,note_on,72,38,0
2,note_on,72,0,80
2,note_on,62,42,0
2,note_on,62,0,80
2,note_on,69,37,0
2,note_on,69,0,80
2,note_on,72,33,0
2,note_on,72,0,80
2,note_on,62,39,0
2,note_on,62,0,80
2,note_on,69,34,0
2,note_on,69,0,80
2,note_on,72,34,0
2,note_on,72,0,80
2,note_on,62,40,0
2,note_on,62,0,80
2,note_on,69,32,0
2,note_on,69,0,80
2,note_on,72,32,0
2,note_on,72,0,80
2,note_on,62,38,0
2,note_on,62,0,80
2,note_on,69,32,0
2,note_on,69,0,80
2,note_on,72,32,0
2,note_on,72,0,80
2,note_on,55,41,1680
2,note_on,55,0,80
2,note_on,58,37,0
2,note_on,58,0,80
2,note_on,61,37,0
2,note_on,61,0,80
2,note_on,64,43,0
2,note_on,64,0,80
2,note_on,53,30,640
2,note_on,53,0,240
2,note_on,55,34,0
2,note_on,43,34,0
2,note_on,43,0,480
2,note_on,55,0,0
2,note_on,53,25,0
2,note_on,45,20,0
2,note_on,53,0,480
2,note_on,55,22,0
2,note_on,55,0,480
2,note_on,45,0,0
2,note_on,46,38,0
2,note_on,46,0,80
2,note_on,50,33,0
2,note_on,50,0,80
2,note_on,56,33,0
2,note_on,56,0,80
2,note_on,46,38,0
2,note_on,46,0,80
2,note_on,50,35,0
2,note_on,50,0,80
2,note_on,56,33,0
2,note_on,56,0,80
2,note_on,46,38,0
2,note_on,46,0,240
2,note_on,45,38,720
2,note_on,45,0,80
2,note_on,50,33,0
2,note_on,50,0,80
2,note_on,53,33,3
2,note_on,45,38,77
2,note_on,53,0,3
2,note_on,45,0,77
2,note_on,50,35,0
2,note_on,50,0,80
2,note_on,53,33,0
2,note_on,53,0,80
2,note_on,45,38,0
2,note_on,45,0,240
2,note_on,44,38,720
2,note_on,44,0,80
2,note_on,50,33,0
2,note_on,50,0,80
2,note_on,53,33,3
2,note_on,44,38,77
2,note_on,53,0,3
2,note_on,44,0,77
2,note_on,50,35,0
2,note_on,50,0,80
2,note_on,53,33,0
2,note_on,53,0,80
2,note_on,44,38,0
2,note_on,44,0,240
2,note_on,57,34,1200
2,note_on,57,0,80
2,note_on,52,31,0
2,note_on,52,0,80
2,note_on,49,31,0
2,note_on,49,0,80
2,note_on,45,34,0
2,note_on,45,0,80
2,note_on,40,30,0
2,note_on,40,0,80
2,note_on,37,29,0
2,note_on,37,0,80
2,note_on,33,31,0
2,note_on,33,0,80
2,note_on,37,28,0
2,note_on,37,0,80
2,note_on,40,28,0
2,note_on,40,0,80
2,note_on,45,28,0
2,note_on,45,0,80
2,note_on,49,27,0
2,note_on,49,0,80
2,note_on,52,27,0
2,note_on,52,0,80
2,note_on,45,27,0
2,note_on,45,0,240
2,note_on,57,26,240
2,note_on,57,0,480
