Track,Message Type,Note,Velocity,Time
1,note_on,57,51,1920
1,note_on,65,60,0
1,note_on,60,51,0
1,note_on,60,0,120
1,note_on,57,0,0
1,note_on,65,0,240
1,note_on,60,56,0
1,note_on,60,0,120
1,note_on,70,60,0
1,note_on,70,0,120
1,note_on,69,54,0
1,note_on,69,0,120
1,note_on,67,54,0
1,note_on,67,0,120
1,note_on,65,54,0
1,note_on,65,0,120
1,note_on,64,60,0
1,note_on,64,0,120
1,note_on,65,57,120
1,note_on,65,0,120
1,note_on,67,60,120
1,note_on,67,0,120
1,note_on,69,55,120
1,note_on,69,0,120
1,note_on,67,51,120
1,note_on,64,51,0
1,note_on,70,60,0
1,note_on,64,0,120
1,note_on,67,0,0
1,note_on,70,0,240
1,note_on,67,56,0
1,note_on,67,0,120
1,note_on,76,60,0
1,note_on,76,0,120
1,note_on,74,54,0
1,note_on,74,0,120
1,note_on,72,54,0
1,note_on,72,0,120
1,note_on,70,54,0
1,note_on,70,0,120
1,note_on,69,60,0
1,note_on,69,0,120
1,note_on,70,57,120
1,note_on,70,0,120
1,note_on,72,60,120
1,note_on,72,0,120
1,note_on,73,61,120
1,note_on,73,0,120
1,note_on,74,55,120
1,note_on,74,0,360
1,note_on,76,48,0
1,note_on,76,0,120
1,note_on,79,55,0
1,note_on,79,0,120
1,note_on,77,51,0
1,note_on,77,0,120
1,note_on,76,51,0
1,note_on,76,0,120
1,note_on,74,51,0
1,note_on,74,0,120
1,note_on,72,55,0
1,note_on,72,0,180
1,note_on,72,49,60
1,note_on,72,0,240
1,note_on,70,49,0
1,note_on,70,0,30
1,note_on,72,44,0
1,note_on,72,0,30
1,note_on,70,49,0
1,note_on,70,0,30
1,note_on,72,42,0
1,note_on,72,0,30
1,note_on,70,49,0
1,note_on,70,0,40
1,note_on,72,45,0
1,note_on,72,0,40
1,note_on,70,45,0
1,note_on,70,0,40
1,note_on,69,49,0
1,note_on,69,0,240
1,note_on,67,54,0
1,note_on,67,0,180
1,note_on,69,49,60
1,note_on,69,0,60
1,note_on,67,43,0
1,note_on,67,0,60
1,note_on,66,44,0
1,note_on,66,0,60
1,note_on,67,44,0
1,note_on,67,0,60
1,note_on,70,49,0
1,note_on,70,0,240
1,note_on,74,44,0
1,note_on,74,0,240
1,note_on,65,44,0
1,note_on,65,0,720
1,note_on,64,42,0
1,note_on,64,0,60
1,note_on,65,38,0
1,note_on,65,0,60
1,note_on,64,42,0
1,note_on,64,0,120
1,note_on,65,60,0
1,note_on,57,51,0
1,note_on,60,51,0
1,note_on,60,0,120
1,note_on,57,0,0
1,note_on,65,0,240
1,note_on,60,56,0
1,note_on,60,0,120
1,note_on,70,60,0
1,note_on,70,0,120
1,note_on,69,54,0
1,note_on,69,0,120
1,note_on,67,54,0
1,note_on,67,0,120
1,note_on,65,54,0
1,note_on,65,0,120
1,note_on,64,60,0
1,note_on,64,0,180
1,note_on,60,53,0
1,note_on,60,0,60
1,note_on,65,57,0
1,note_on,65,0,180
1,note_on,60,53,0
1,note_on,60,0,60
1,note_on,67,60,0
1,note_on,67,0,180
1,note_on,60,53,0
1,note_on,60,0,60
1,note_on,69,55,0
1,note_on,69,0,180
1,note_on,60,53,0
1,note_on,60,0,60
1,note_on,70,60,0
1,note_on,70,0,360
1,note_on,67,56,0
1,note_on,67,0,120
1,note_on,76,60,0
1,note_on,76,0,120
1,note_on,74,54,0
1,note_on,74,0,120
1,note_on,72,54,0
1,note_on,72,0,120
1,note_on,70,54,0
1,note_on,70,0,120
1,note_on,69,60,0
1,note_on,69,0,240
1,note_on,70,57,0
1,note_on,70,0,240
1,note_on,72,60,0
1,note_on,72,0,240
1,note_on,73,61,0
1,note_on,73,0,240
1,note_on,73,55,120
1,note_on,73,0,120
1,note_on,74,58,0
1,note_on,74,0,120
1,note_on,76,55,0
1,note_on,76,0,120
1,note_on,77,57,0
1,note_on,77,0,120
1,note_on,78,59,0
1,note_on,78,0,120
1,note_on,79,61,0
1,note_on,79,0,120
1,note_on,81,63,0
1,note_on,81,0,120
1,note_on,82,65,0
1,note_on,82,0,120
1,note_on,83,68,0
1,note_on,83,0,120
1,note_on,84,70,0
1,note_on,84,0,120
1,note_on,85,68,0
1,note_on,85,0,120
1,note_on,86,75,0
1,note_on,86,0,120
1,note_on,81,63,0
1,note_on,81,0,120
1,note_on,82,66,0
1,note_on,82,0,120
1,note_on,79,61,0
1,note_on,79,0,120
1,note_on,77,71,0
1,note_on,77,0,720
1,note_on,79,41,0
1,note_on,79,0,120
1,note_on,77,35,0
1,note_on,77,0,120
1,note_on,76,39,0
1,note_on,76,0,480
1,note_on,79,60,480
1,note_on,79,0,480
1,note_on,77,55,0
1,note_on,77,0,120
1,note_on,76,50,0
1,note_on,76,0,120
1,note_on,74,55,0
1,note_on,74,0,120
1,note_on,72,49,0
1,note_on,72,0,90
1,note_on,72,55,30
1,note_on,72,0,480
1,note_on,71,55,0
1,note_on,71,0,60
1,note_on,72,51,0
1,note_on,72,0,60
1,note_on,71,57,0
1,note_on,71,0,240
1,note_on,71,51,0
1,note_on,71,0,120
1,note_on,72,55,0
1,note_on,72,0,120
1,note_on,74,52,0
1,note_on,74,0,120
1,note_on,76,54,0
1,note_on,76,0,120
1,note_on,77,55,0
1,note_on,77,0,120
1,note_on,79,59,0
1,note_on,79,0,120
1,note_on,81,61,0
1,note_on,81,0,120
1,note_on,83,64,0
1,note_on,83,0,120
1,note_on,84,66,0
1,note_on,84,0,90
1,note_on,84,66,30
1,note_on,84,0,120
1,note_on,83,64,0
1,note_on,83,0,120
1,note_on,81,61,0
1,note_on,81,0,60
1,note_on,79,59,60
1,note_on,79,0,60
1,note_on,79,57,60
1,note_on,79,0,120
1,note_on,77,55,0
1,note_on,77,0,120
1,note_on,76,52,0
1,note_on,76,0,60
1,note_on,74,50,60
1,note_on,74,0,60
1,note_on,79,64,60
1,note_on,79,0,360
1,note_on,81,59,0
1,note_on,81,0,60
1,note_on,79,55,0
1,note_on,79,0,60
1,note_on,77,62,0
1,note_on,77,0,120
1,note_on,76,55,0
1,note_on,76,0,120
1,note_on,74,57,0
1,note_on,74,0,120
1,note_on,72,55,0
1,note_on,72,0,90
1,note_on,72,61,30
1,note_on,72,0,480
1,note_on,71,55,0
1,note_on,71,0,60
1,note_on,72,51,0
1,note_on,72,0,60
1,note_on,71,55,0
1,note_on,71,0,240
1,note_on,77,52,0
1,note_on,77,0,120
1,note_on,76,60,0
1,note_on,76,0,60
1,note_on,77,55,60
1,note_on,77,0,60
1,note_on,79,60,60
1,note_on,79,0,60
1,note_on,81,61,60
1,note_on,81,0,60
1,note_on,83,70,60
1,note_on,83,0,60
1,note_on,84,65,60
1,note_on,84,0,60
1,note_on,83,68,60
1,note_on,83,0,60
1,note_on,84,66,60
1,note_on,84,0,60
1,note_on,84,73,60
1,note_on,84,0,120
1,note_on,83,66,0
1,note_on,83,0,120
1,note_on,81,67,0
1,note_on,81,0,120
1,note_on,79,64,0
1,note_on,79,0,90
1,note_on,79,69,30
1,note_on,79,0,120
1,note_on,77,64,0
1,note_on,77,0,120
1,note_on,76,62,0
1,note_on,76,0,120
1,note_on,74,61,0
1,note_on,74,0,120
1,note_on,76,62,0
1,note_on,76,0,120
1,note_on,77,62,0
1,note_on,77,0,120
1,note_on,76,69,0
1,note_on,76,0,120
1,note_on,77,68,0
1,note_on,77,0,120
1,note_on,79,76,0
1,note_on,79,0,120
1,note_on,81,74,0
1,note_on,81,0,120
1,note_on,79,83,0
1,note_on,79,0,120
1,note_on,81,78,0
1,note_on,81,0,120
1,note_on,82,89,0
1,note_on,70,75,0
1,note_on,70,0,960
1,note_on,82,0,0
1,note_on,81,70,120
1,note_on,81,0,120
1,note_on,80,75,0
1,note_on,80,0,120
1,note_on,81,68,0
1,note_on,81,0,120
1,note_on,79,67,120
1,note_on,79,0,120
1,note_on,78,76,0
1,note_on,78,0,120
1,note_on,79,67,0
1,note_on,79,0,120
1,note_on,78,70,120
1,note_on,78,0,120
1,note_on,78,69,0
1,note_on,78,0,60
1,note_on,79,63,0
1,note_on,79,0,60
1,note_on,78,68,0
1,note_on,78,0,120
1,note_on,77,72,120
1,note_on,77,0,120
1,note_on,77,72,0
1,note_on,77,0,60
1,note_on,79,65,0
1,note_on,79,0,60
1,note_on,77,75,0
1,note_on,77,0,120
1,note_on,76,67,120
1,note_on,76,0,120
1,note_on,77,70,0
1,note_on,77,0,120
1,note_on,79,72,0
1,note_on,79,0,90
1,note_on,79,72,30
1,note_on,79,0,120
1,note_on,69,66,0
1,note_on,69,0,120
1,note_on,77,72,0
1,note_on,77,0,120
1,note_on,74,65,0
1,note_on,74,0,120
1,note_on,72,72,0
1,note_on,72,0,480
1,note_on,71,68,0
1,note_on,71,0,40
1,note_on,72,60,0
1,note_on,72,0,40
1,note_on,71,68,0
1,note_on,71,0,40
1,note_on,72,61,0
1,note_on,72,0,40
1,note_on,71,68,0
1,note_on,71,0,40
1,note_on,72,61,0
1,note_on,72,0,40
1,note_on,71,68,0
1,note_on,71,0,240
1,note_on,84,72,120
1,note_on,84,0,120
1,note_on,88,78,0
1,note_on,88,0,120
1,note_on,84,72,0
1,note_on,84,0,120
1,note_on,83,77,0
1,note_on,83,0,120
1,note_on,81,69,0
1,note_on,81,0,120
1,note_on,79,76,0
1,note_on,79,0,120
1,note_on,77,67,0
1,note_on,77,0,120
1,note_on,76,75,0
1,note_on,76,0,480
1,note_on,74,68,0
1,note_on,74,0,40
1,note_on,76,60,0
1,note_on,76,0,40
1,note_on,74,68,0
1,note_on,74,0,40
1,note_on,76,61,0
1,note_on,76,0,40
1,note_on,74,68,0
1,note_on,74,0,40
1,note_on,76,61,0
1,note_on,74,68,34
1,note_on,76,0,6
1,note_on,74,0,34
1,note_on,76,60,1
1,note_on,74,68,39
1,note_on,76,0,1
1,note_on,74,0,39
1,note_on,72,63,3
1,note_on,72,0,60
1,note_on,74,62,0
1,note_on,74,0,60
1,note_on,72,68,3
1,note_on,72,0,120
1,note_on,76,48,120
1,note_on,72,40,0
1,note_on,72,0,120
1,note_on,76,0,0
1,note_on,76,48,120
1,note_on,72,40,0
1,note_on,72,0,120
1,note_on,76,0,0
1,note_on,76,48,120
1,note_on,72,40,0
1,note_on,72,0,120
1,note_on,76,0,0
1,note_on,77,52,120
1,note_on,72,44,0
1,note_on,77,0,60
1,note_on,76,47,0
1,note_on,76,0,60
1,note_on,74,47,0
1,note_on,74,0,60
1,note_on,76,48,0
1,note_on,76,0,60
1,note_on,72,0,0
1,note_on,79,52,0
1,note_on,76,44,0
1,note_on,76,0,240
1,note_on,79,0,0
1,note_on,72,51,0
1,note_on,76,60,0
1,note_on,76,0,240
1,note_on,72,0,0
1,note_on,72,66,0
1,note_on,69,55,0
1,note_on,69,0,240
1,note_on,72,0,0
1,note_on,69,72,0
1,note_on,65,60,0
1,note_on,65,0,600
1,note_on,69,0,0
1,note_on,65,49,0
1,note_on,69,58,0
1,note_on,69,0,120
1,note_on,65,0,0
1,note_on,67,49,0
1,note_on,71,58,0
1,note_on,71,0,120
1,note_on,67,0,0
1,note_on,69,49,0
1,note_on,72,58,0
1,note_on,72,0,108
1,note_on,69,0,0
1,note_on,69,53,12
1,note_on,72,63,0
1,note_on,72,0,120
1,note_on,69,0,0
1,note_on,67,50,0
1,note_on,71,59,0
1,note_on,71,0,120
1,note_on,67,0,0
1,note_on,69,59,0
1,note_on,65,50,0
1,note_on,65,0,120
1,note_on,69,0,0
1,note_on,64,50,0
1,note_on,67,59,0
1,note_on,67,0,108
1,note_on,64,0,0
1,note_on,64,53,12
1,note_on,67,63,0
1,note_on,67,0,120
1,note_on,64,0,0
1,note_on,62,45,0
1,note_on,65,53,0
1,note_on,65,0,120
1,note_on,62,0,0
1,note_on,60,45,0
1,note_on,64,53,0
1,note_on,64,0,120
1,note_on,60,0,0
1,note_on,62,53,0
1,note_on,59,45,0
1,note_on,59,0,108
1,note_on,62,0,0
1,note_on,72,63,252
1,note_on,72,0,80
1,note_on,76,57,0
1,note_on,76,0,80
1,note_on,84,57,0
1,note_on,84,0,80
1,note_on,72,63,0
1,note_on,72,0,80
1,note_on,76,55,0
1,note_on,76,0,80
1,note_on,84,55,0
1,note_on,84,0,80
1,note_on,72,63,0
1,note_on,72,0,80
1,note_on,76,55,0
1,note_on,76,0,80
1,note_on,84,55,0
1,note_on,84,0,80
1,note_on,72,69,0
1,note_on,72,0,80
1,note_on,76,59,0
1,note_on,76,0,80
1,note_on,84,61,0
1,note_on,84,0,80
1,note_on,76,72,0
1,note_on,76,0,80
1,note_on,79,64,0
1,note_on,79,0,80
1,note_on,88,66,0
1,note_on,88,0,80
1,note_on,72,75,0
1,note_on,72,0,80
1,note_on,76,66,0
1,note_on,76,0,80
1,note_on,84,69,0
1,note_on,84,0,80
1,note_on,69,80,0
1,note_on,69,0,80
1,note_on,72,69,0
1,note_on,72,0,80
1,note_on,81,71,0
1,note_on,81,0,80
1,note_on,65,81,0
1,note_on,65,0,600
1,note_on,72,66,0
1,note_on,69,56,0
1,note_on,69,0,120
1,note_on,72,0,0
1,note_on,71,68,0
1,note_on,67,57,0
1,note_on,67,0,120
1,note_on,71,0,0
1,note_on,65,53,0
1,note_on,69,63,0
1,note_on,69,0,108
1,note_on,65,0,0
1,note_on,65,56,12
1,note_on,69,67,0
1,note_on,69,0,120
1,note_on,65,0,0
1,note_on,67,65,0
1,note_on,64,55,0
1,note_on,64,0,120
1,note_on,67,0,0
1,note_on,62,53,0
1,note_on,65,63,0
1,note_on,65,0,120
1,note_on,62,0,0
1,note_on,64,61,0
1,note_on,60,51,0
1,note_on,60,0,108
1,note_on,64,0,0
1,note_on,64,63,12
1,note_on,64,0,120
1,note_on,62,56,0
1,note_on,62,0,120
1,note_on,60,56,0
1,note_on,60,0,120
1,note_on,53,47,0
1,note_on,59,56,0
1,note_on,59,0,108
1,note_on,53,0,0
1,note_on,53,59,12
1,note_on,59,59,0
1,note_on,59,0,915
1,note_on,53,0,0
1,note_on,55,52,45
1,note_on,52,52,0
1,note_on,60,52,0
1,note_on,60,0,240
1,note_on,52,0,0
1,note_on,55,0,0
1,note_on,60,51,720
1,note_on,65,60,0
1,note_on,57,51,0
1,note_on,57,0,120
1,note_on,60,0,0
1,note_on,65,0,240
1,note_on,60,56,0
1,note_on,60,0,120
1,note_on,70,60,0
1,note_on,70,0,120
1,note_on,69,54,0
1,note_on,69,0,120
1,note_on,67,54,0
1,note_on,67,0,120
1,note_on,65,54,0
1,note_on,65,0,120
1,note_on,64,60,0
1,note_on,64,0,120
1,note_on,65,57,120
1,note_on,65,0,120
1,note_on,67,60,120
1,note_on,67,0,120
1,note_on,69,55,120
1,note_on,69,0,120
1,note_on,67,51,120
1,note_on,64,51,0
1,note_on,70,60,0
1,note_on,64,0,120
1,note_on,67,0,0
1,note_on,70,0,240
1,note_on,67,56,0
1,note_on,67,0,120
1,note_on,76,60,0
1,note_on,76,0,120
1,note_on,74,54,0
1,note_on,74,0,120
1,note_on,72,54,0
1,note_on,72,0,120
1,note_on,70,54,0
1,note_on,70,0,120
1,note_on,69,60,0
1,note_on,69,0,120
1,note_on,70,57,120
1,note_on,70,0,120
1,note_on,72,60,120
1,note_on,72,0,120
1,note_on,73,61,120
1,note_on,73,0,120
1,note_on,74,55,120
1,note_on,74,0,360
1,note_on,76,48,0
1,note_on,76,0,120
1,note_on,79,55,0
1,note_on,79,0,120
1,note_on,77,51,0
1,note_on,77,0,120
1,note_on,76,51,0
1,note_on,76,0,120
1,note_on,74,51,0
1,note_on,74,0,120
1,note_on,72,55,0
1,note_on,72,0,180
1,note_on,72,49,60
1,note_on,72,0,240
1,note_on,70,49,0
1,note_on,70,0,30
1,note_on,72,44,0
1,note_on,72,0,30
1,note_on,70,49,0
1,note_on,70,0,30
1,note_on,72,42,0
1,note_on,72,0,30
1,note_on,70,49,0
1,note_on,70,0,40
1,note_on,72,45,0
1,note_on,72,0,40
1,note_on,70,45,0
1,note_on,70,0,40
1,note_on,69,49,0
1,note_on,69,0,240
1,note_on,67,54,0
1,note_on,67,0,180
1,note_on,69,49,60
1,note_on,69,0,60
1,note_on,67,43,0
1,note_on,67,0,60
1,note_on,66,44,0
1,note_on,66,0,60
1,note_on,67,44,0
1,note_on,67,0,60
1,note_on,70,49,0
1,note_on,70,0,240
1,note_on,74,44,0
1,note_on,74,0,240
1,note_on,65,44,0
1,note_on,65,0,720
1,note_on,64,42,0
1,note_on,64,0,60
1,note_on,65,38,0
1,note_on,65,0,60
1,note_on,64,42,0
1,note_on,64,0,120
1,note_on,60,51,0
1,note_on,65,60,0
1,note_on,57,51,0
1,note_on,57,0,120
1,note_on,60,0,0
1,note_on,65,0,240
1,note_on,60,56,0
1,note_on,60,0,120
1,note_on,70,60,0
1,note_on,70,0,120
1,note_on,69,54,0
1,note_on,69,0,120
1,note_on,67,54,0
1,note_on,67,0,120
1,note_on,65,54,0
1,note_on,65,0,120
1,note_on,64,60,0
1,note_on,64,0,180
1,note_on,60,53,0
1,note_on,60,0,60
1,note_on,65,57,0
1,note_on,65,0,180
1,note_on,60,53,0
1,note_on,60,0,60
1,note_on,67,60,0
1,note_on,67,0,180
1,note_on,60,53,0
1,note_on,60,0,60
1,note_on,69,55,0
1,note_on,69,0,180
1,note_on,60,53,0
1,note_on,60,0,60
1,note_on,70,60,0
1,note_on,70,0,360
1,note_on,67,56,0
1,note_on,67,0,120
1,note_on,76,60,0
1,note_on,76,0,120
1,note_on,74,54,0
1,note_on,74,0,120
1,note_on,72,54,0
1,note_on,72,0,120
1,note_on,70,54,0
1,note_on,70,0,120
1,note_on,69,60,0
1,note_on,69,0,240
1,note_on,70,57,0
1,note_on,70,0,240
1,note_on,72,60,0
1,note_on,72,0,240
1,note_on,73,61,0
1,note_on,73,0,240
1,note_on,73,55,120
1,note_on,73,0,120
1,note_on,74,58,0
1,note_on,74,0,120
1,note_on,76,55,0
1,note_on,76,0,120
1,note_on,77,57,0
1,note_on,77,0,120
1,note_on,78,59,0
1,note_on,78,0,120
1,note_on,79,61,0
1,note_on,79,0,120
1,note_on,81,63,0
1,note_on,81,0,120
1,note_on,82,65,0
1,note_on,82,0,120
1,note_on,83,68,0
1,note_on,83,0,120
1,note_on,84,70,0
1,note_on,84,0,120
1,note_on,85,68,0
1,note_on,85,0,120
1,note_on,86,75,0
1,note_on,86,0,120
1,note_on,81,63,0
1,note_on,81,0,120
1,note_on,82,66,0
1,note_on,82,0,120
1,note_on,79,61,0
1,note_on,79,0,120
1,note_on,77,71,0
1,note_on,77,0,720
1,note_on,79,41,0
1,note_on,79,0,120
1,note_on,77,35,0
1,note_on,77,0,120
1,note_on,76,39,0
1,note_on,76,0,480
1,note_on,79,60,480
1,note_on,79,0,480
1,note_on,77,55,0
1,note_on,77,0,120
1,note_on,76,50,0
1,note_on,76,0,120
1,note_on,74,55,0
1,note_on,74,0,120
1,note_on,72,49,0
1,note_on,72,0,90
1,note_on,72,55,30
1,note_on,72,0,480
1,note_on,71,55,0
1,note_on,71,0,60
1,note_on,72,51,0
1,note_on,72,0,60
1,note_on,71,57,0
1,note_on,71,0,240
1,note_on,71,51,0
1,note_on,71,0,120
1,note_on,72,55,0
1,note_on,72,0,120
1,note_on,74,52,0
1,note_on,74,0,120
1,note_on,76,54,0
1,note_on,76,0,120
1,note_on,77,55,0
1,note_on,77,0,120
1,note_on,79,59,0
1,note_on,79,0,120
1,note_on,81,61,0
1,note_on,81,0,120
1,note_on,83,64,0
1,note_on,83,0,120
1,note_on,84,66,0
1,note_on,84,0,90
1,note_on,84,66,30
1,note_on,84,0,120
1,note_on,83,64,0
1,note_on,83,0,120
1,note_on,81,61,0
1,note_on,81,0,60
1,note_on,79,59,60
1,note_on,79,0,60
1,note_on,79,57,60
1,note_on,79,0,120
1,note_on,77,55,0
1,note_on,77,0,120
1,note_on,76,52,0
1,note_on,76,0,60
1,note_on,74,50,60
1,note_on,74,0,60
1,note_on,79,64,60
1,note_on,79,0,360
1,note_on,81,59,0
1,note_on,81,0,60
1,note_on,79,55,0
1,note_on,79,0,60
1,note_on,77,62,0
1,note_on,77,0,120
1,note_on,76,55,0
1,note_on,76,0,120
1,note_on,74,57,0
1,note_on,74,0,120
1,note_on,72,55,0
1,note_on,72,0,90
1,note_on,72,61,30
1,note_on,72,0,480
1,note_on,71,55,0
1,note_on,71,0,60
1,note_on,72,51,0
1,note_on,72,0,60
1,note_on,71,55,0
1,note_on,71,0,240
1,note_on,77,52,0
1,note_on,77,0,120
1,note_on,76,60,0
1,note_on,76,0,60
1,note_on,77,55,60
1,note_on,77,0,60
1,note_on,79,60,60
1,note_on,79,0,60
1,note_on,81,61,60
1,note_on,81,0,60
1,note_on,83,70,60
1,note_on,83,0,60
1,note_on,84,65,60
1,note_on,84,0,60
1,note_on,83,68,60
1,note_on,83,0,60
1,note_on,84,66,60
1,note_on,84,0,60
1,note_on,84,73,60
1,note_on,84,0,120
1,note_on,83,66,0
1,note_on,83,0,120
1,note_on,81,67,0
1,note_on,81,0,120
1,note_on,79,64,0
1,note_on,79,0,90
1,note_on,79,69,30
1,note_on,79,0,120
1,note_on,77,64,0
1,note_on,77,0,120
1,note_on,76,62,0
1,note_on,76,0,120
1,note_on,74,61,0
1,note_on,74,0,120
1,note_on,76,62,0
1,note_on,76,0,120
1,note_on,77,62,0
1,note_on,77,0,120
1,note_on,76,69,0
1,note_on,76,0,120
1,note_on,77,68,0
1,note_on,77,0,120
1,note_on,79,76,0
1,note_on,79,0,120
1,note_on,81,74,0
1,note_on,81,0,120
1,note_on,79,83,0
1,note_on,79,0,120
1,note_on,81,78,0
1,note_on,81,0,120
1,note_on,70,75,0
1,note_on,82,89,0
1,note_on,82,0,960
1,note_on,70,0,0
1,note_on,81,70,120
1,note_on,81,0,120
1,note_on,80,75,0
1,note_on,80,0,120
1,note_on,81,68,0
1,note_on,81,0,120
1,note_on,79,67,120
1,note_on,79,0,120
1,note_on,78,76,0
1,note_on,78,0,120
1,note_on,79,67,0
1,note_on,79,0,120
1,note_on,78,70,120
1,note_on,78,0,120
1,note_on,78,69,0
1,note_on,78,0,60
1,note_on,79,63,0
1,note_on,79,0,60
1,note_on,78,68,0
1,note_on,78,0,120
1,note_on,77,72,120
1,note_on,77,0,120
1,note_on,77,72,0
1,note_on,77,0,60
1,note_on,79,65,0
1,note_on,79,0,60
1,note_on,77,75,0
1,note_on,77,0,120
1,note_on,76,67,120
1,note_on,76,0,120
1,note_on,77,70,0
1,note_on,77,0,120
1,note_on,79,72,0
1,note_on,79,0,90
1,note_on,79,72,30
1,note_on,79,0,120
1,note_on,69,66,0
1,note_on,69,0,120
1,note_on,77,72,0
1,note_on,77,0,120
1,note_on,74,65,0
1,note_on,74,0,120
1,note_on,72,72,0
1,note_on,72,0,480
1,note_on,71,68,0
1,note_on,71,0,40
1,note_on,72,60,0
1,note_on,72,0,40
1,note_on,71,68,0
1,note_on,71,0,40
1,note_on,72,61,0
1,note_on,72,0,40
1,note_on,71,68,0
1,note_on,71,0,40
1,note_on,72,61,0
1,note_on,72,0,40
1,note_on,71,68,0
1,note_on,71,0,240
1,note_on,84,72,120
1,note_on,84,0,120
1,note_on,88,78,0
1,note_on,88,0,120
1,note_on,84,72,0
1,note_on,84,0,120
1,note_on,83,77,0
1,note_on,83,0,120
1,note_on,81,69,0
1,note_on,81,0,120
1,note_on,79,76,0
1,note_on,79,0,120
1,note_on,77,67,0
1,note_on,77,0,120
1,note_on,76,75,0
1,note_on,76,0,480
1,note_on,74,68,0
1,note_on,74,0,40
1,note_on,76,60,0
1,note_on,76,0,40
1,note_on,74,68,0
1,note_on,74,0,40
1,note_on,76,61,0
1,note_on,76,0,40
1,note_on,74,68,0
1,note_on,74,0,40
1,note_on,76,61,0
1,note_on,74,68,34
1,note_on,76,0,6
1,note_on,74,0,34
1,note_on,76,60,1
1,note_on,74,68,39
1,note_on,76,0,1
1,note_on,74,0,39
1,note_on,72,63,3
1,note_on,72,0,60
1,note_on,74,62,0
1,note_on,74,0,60
1,note_on,72,68,3
1,note_on,72,0,120
1,note_on,76,48,120
1,note_on,72,40,0
1,note_on,72,0,120
1,note_on,76,0,0
1,note_on,76,48,120
1,note_on,72,40,0
1,note_on,72,0,120
1,note_on,76,0,0
1,note_on,76,48,120
1,note_on,72,40,0
1,note_on,72,0,120
1,note_on,76,0,0
1,note_on,77,52,120
1,note_on,72,44,0
1,note_on,77,0,60
1,note_on,76,47,0
1,note_on,76,0,60
1,note_on,74,47,0
1,note_on,74,0,60
1,note_on,76,48,0
1,note_on,76,0,60
1,note_on,72,0,0
1,note_on,76,44,0
1,note_on,79,52,0
1,note_on,79,0,240
1,note_on,76,0,0
1,note_on,76,60,0
1,note_on,72,51,0
1,note_on,72,0,240
1,note_on,76,0,0
1,note_on,72,66,0
1,note_on,69,55,0
1,note_on,69,0,240
1,note_on,72,0,0
1,note_on,65,60,0
1,note_on,69,72,0
1,note_on,69,0,600
1,note_on,65,0,0
1,note_on,69,58,0
1,note_on,65,49,0
1,note_on,65,0,120
1,note_on,69,0,0
1,note_on,67,49,0
1,note_on,71,58,0
1,note_on,71,0,120
1,note_on,67,0,0
1,note_on,69,49,0
1,note_on,72,58,0
1,note_on,72,0,108
1,note_on,69,0,0
1,note_on,72,63,12
1,note_on,69,53,0
1,note_on,69,0,120
1,note_on,72,0,0
1,note_on,67,50,0
1,note_on,71,59,0
1,note_on,71,0,120
1,note_on,67,0,0
1,note_on,65,50,0
1,note_on,69,59,0
1,note_on,69,0,120
1,note_on,65,0,0
1,note_on,64,50,0
1,note_on,67,59,0
1,note_on,67,0,108
1,note_on,64,0,0
1,note_on,64,53,12
1,note_on,67,63,0
1,note_on,67,0,120
1,note_on,64,0,0
1,note_on,65,53,0
1,note_on,62,45,0
1,note_on,62,0,120
1,note_on,65,0,0
1,note_on,64,53,0
1,note_on,60,45,0
1,note_on,60,0,120
1,note_on,64,0,0
1,note_on,59,45,0
1,note_on,62,53,0
1,note_on,62,0,108
1,note_on,59,0,0
1,note_on,72,63,252
1,note_on,72,0,80
1,note_on,76,57,0
1,note_on,76,0,80
1,note_on,84,57,0
1,note_on,84,0,80
1,note_on,72,63,0
1,note_on,72,0,80
1,note_on,76,55,0
1,note_on,76,0,80
1,note_on,84,55,0
1,note_on,84,0,80
1,note_on,72,63,0
1,note_on,72,0,80
1,note_on,76,55,0
1,note_on,76,0,80
1,note_on,84,55,0
1,note_on,84,0,80
1,note_on,72,69,0
1,note_on,72,0,80
1,note_on,76,59,0
1,note_on,76,0,80
1,note_on,84,61,0
1,note_on,84,0,80
1,note_on,76,72,0
1,note_on,76,0,80
1,note_on,79,64,0
1,note_on,79,0,80
1,note_on,88,66,0
1,note_on,88,0,80
1,note_on,72,75,0
1,note_on,72,0,80
1,note_on,76,66,0
1,note_on,76,0,80
1,note_on,84,69,0
1,note_on,84,0,80
1,note_on,69,80,0
1,note_on,69,0,80
1,note_on,72,69,0
1,note_on,72,0,80
1,note_on,81,71,0
1,note_on,81,0,80
1,note_on,65,81,0
1,note_on,65,0,600
1,note_on,72,66,0
1,note_on,69,56,0
1,note_on,69,0,120
1,note_on,72,0,0
1,note_on,67,57,0
1,note_on,71,68,0
1,note_on,71,0,120
1,note_on,67,0,0
1,note_on,69,63,0
1,note_on,65,53,0
1,note_on,65,0,108
1,note_on,69,0,0
1,note_on,69,67,12
1,note_on,65,56,0
1,note_on,65,0,120
1,note_on,69,0,0
1,note_on,67,65,0
1,note_on,64,55,0
1,note_on,64,0,120
1,note_on,67,0,0
1,note_on,62,53,0
1,note_on,65,63,0
1,note_on,65,0,120
1,note_on,62,0,0
1,note_on,60,51,0
1,note_on,64,61,0
1,note_on,64,0,108
1,note_on,60,0,0
1,note_on,64,63,12
1,note_on,64,0,120
1,note_on,62,56,0
1,note_on,62,0,120
1,note_on,60,56,0
1,note_on,60,0,120
1,note_on,59,56,0
1,note_on,53,47,0
1,note_on,53,0,108
1,note_on,59,0,0
1,note_on,59,59,12
1,note_on,53,59,0
1,note_on,53,0,915
1,note_on,59,0,0
1,note_on,55,52,45
1,note_on,52,52,0
1,note_on,60,52,0
1,note_on,60,0,240
1,note_on,52,0,0
1,note_on,55,0,0
1,note_on,72,60,720
1,note_on,67,51,0
1,note_on,64,51,0
1,note_on,64,0,120
1,note_on,67,0,0
1,note_on,72,0,240
1,note_on,67,56,0
1,note_on,67,0,120
1,note_on,77,60,0
1,note_on,77,0,120
1,note_on,76,54,0
1,note_on,76,0,120
1,note_on,74,54,0
1,note_on,74,0,120
1,note_on,72,54,0
1,note_on,72,0,120
1,note_on,79,60,0
1,note_on,79,0,120
1,note_on,77,60,840
1,note_on,77,0,360
1,note_on,72,56,0
1,note_on,72,0,120
1,note_on,82,60,0
1,note_on,82,0,120
1,note_on,81,54,0
1,note_on,81,0,120
1,note_on,79,54,0
1,note_on,79,0,120
1,note_on,77,54,0
1,note_on,77,0,120
1,note_on,84,60,0
1,note_on,84,0,120
1,note_on,83,60,720
1,note_on,83,0,40
1,note_on,84,62,0
1,note_on,84,0,40
1,note_on,86,64,1
1,note_on,84,67,39
1,note_on,86,0,1
1,note_on,84,0,839
1,note_on,82,60,0
1,note_on,82,0,40
1,note_on,81,60,0
1,note_on,81,0,40
1,note_on,79,60,1
1,note_on,78,68,39
1,note_on,79,0,1
1,note_on,78,0,119
1,note_on,75,63,0
1,note_on,75,0,120
1,note_on,74,63,0
1,note_on,74,0,120
1,note_on,72,64,0
1,note_on,72,0,120
1,note_on,70,68,0
1,note_on,70,0,120
1,note_on,69,70,0
1,note_on,69,0,120
1,note_on,67,71,0
1,note_on,67,0,120
1,note_on,66,73,0
1,note_on,66,0,120
1,note_on,67,74,0
1,note_on,67,0,117
1,note_on,70,77,123
1,note_on,70,0,120
1,note_on,74,82,120
1,note_on,74,0,120
1,note_on,79,84,120
1,note_on,79,0,120
1,note_on,82,86,120
1,note_on,82,0,120
1,note_on,86,90,840
1,note_on,86,0,120
1,note_on,86,90,120
1,note_on,86,0,480
1,note_on,84,72,0
1,note_on,84,0,60
1,note_on,82,73,0
1,note_on,82,0,60
1,note_on,81,74,0
1,note_on,81,0,60
1,note_on,79,74,0
1,note_on,79,0,60
1,note_on,84,84,0
1,note_on,84,0,120
1,note_on,84,84,120
1,note_on,84,0,480
1,note_on,82,70,0
1,note_on,82,0,60
1,note_on,81,72,0
1,note_on,81,0,60
1,note_on,79,73,0
1,note_on,79,0,60
1,note_on,77,75,0
1,note_on,77,0,60
1,note_on,84,77,0
1,note_on,84,0,120
1,note_on,82,68,0
1,note_on,82,0,90
1,note_on,82,72,30
1,note_on,82,0,120
1,note_on,81,67,0
1,note_on,81,0,90
1,note_on,81,72,30
1,note_on,81,0,240
1,note_on,84,61,240
1,note_on,84,0,120
1,note_on,82,57,0
1,note_on,82,0,90
1,note_on,82,61,30
1,note_on,82,0,120
1,note_on,81,54,0
1,note_on,81,0,90
1,note_on,81,60,30
1,note_on,81,0,240
1,note_on,84,69,240
1,note_on,84,0,30
1,note_on,86,63,0
1,note_on,86,0,30
1,note_on,84,69,0
1,note_on,84,0,30
1,note_on,86,61,0
1,note_on,86,0,30
1,note_on,82,68,0
1,note_on,82,0,90
1,note_on,82,68,30
1,note_on,82,0,30
1,note_on,84,61,0
1,note_on,84,0,30
1,note_on,82,68,0
1,note_on,82,0,30
1,note_on,84,62,0
1,note_on,84,0,30
1,note_on,81,67,0
1,note_on,81,0,90
1,note_on,81,72,30
1,note_on,81,0,240
1,note_on,82,62,210
1,note_on,82,0,30
1,note_on,81,70,0
1,note_on,81,0,120
1,note_on,79,65,0
1,note_on,79,0,90
1,note_on,81,62,0
1,note_on,81,0,30
1,note_on,79,70,0
1,note_on,79,0,120
1,note_on,77,62,0
1,note_on,77,0,120
1,note_on,77,69,0
1,note_on,77,0,240
1,note_on,77,65,240
1,note_on,77,0,120
1,note_on,76,57,0
1,note_on,76,0,120
1,note_on,74,61,0
1,note_on,74,0,120
1,note_on,72,54,0
1,note_on,72,0,90
1,note_on,72,60,30
1,note_on,72,0,240
1,note_on,72,54,0
1,note_on,72,0,240
1,note_on,74,54,0
1,note_on,74,0,60
1,note_on,72,54,0
1,note_on,72,0,60
1,note_on,71,54,0
1,note_on,71,0,60
1,note_on,72,60,0
1,note_on,72,0,200
1,note_on,72,60,580
1,note_on,72,0,480
1,note_on,70,55,0
1,note_on,70,0,120
1,note_on,69,50,0
1,note_on,69,0,120
1,note_on,67,55,0
1,note_on,67,0,120
1,note_on,65,49,0
1,note_on,65,0,90
1,note_on,65,55,30
1,note_on,65,0,480
1,note_on,64,55,0
1,note_on,64,0,60
1,note_on,65,51,0
1,note_on,65,0,60
1,note_on,64,57,0
1,note_on,64,0,240
1,note_on,64,51,0
1,note_on,64,0,120
1,note_on,65,55,0
1,note_on,65,0,120
1,note_on,67,52,0
1,note_on,67,0,120
1,note_on,69,54,0
1,note_on,69,0,120
1,note_on,70,55,0
1,note_on,70,0,120
1,note_on,72,59,0
1,note_on,72,0,120
1,note_on,74,61,0
1,note_on,74,0,120
1,note_on,76,64,0
1,note_on,76,0,120
1,note_on,77,66,0
1,note_on,77,0,90
1,note_on,77,66,30
1,note_on,77,0,120
1,note_on,76,64,0
1,note_on,76,0,120
1,note_on,74,61,0
1,note_on,74,0,60
1,note_on,72,59,60
1,note_on,72,0,60
1,note_on,72,57,60
1,note_on,72,0,120
1,note_on,70,55,0
1,note_on,70,0,120
1,note_on,69,52,0
1,note_on,69,0,60
1,note_on,67,50,60
1,note_on,67,0,60
1,note_on,84,72,60
1,note_on,84,0,360
1,note_on,86,64,0
1,note_on,86,0,60
1,note_on,84,60,0
1,note_on,84,0,60
1,note_on,82,68,0
1,note_on,82,0,120
1,note_on,81,60,0
1,note_on,81,0,120
1,note_on,79,62,0
1,note_on,79,0,120
1,note_on,77,60,0
1,note_on,77,0,90
1,note_on,77,70,30
1,note_on,77,0,480
1,note_on,76,60,0
1,note_on,76,0,60
1,note_on,77,56,0
1,note_on,77,0,60
1,note_on,76,60,0
1,note_on,76,0,240
1,note_on,82,57,0
1,note_on,82,0,120
1,note_on,81,66,0
1,note_on,81,0,60
1,note_on,82,60,60
1,note_on,82,0,60
1,note_on,84,66,60
1,note_on,84,0,60
1,note_on,86,67,60
1,note_on,86,0,60
1,note_on,88,77,60
1,note_on,88,0,60
1,note_on,89,71,60
1,note_on,89,0,60
1,note_on,88,74,60
1,note_on,88,0,60
1,note_on,89,72,60
1,note_on,89,0,60
1,note_on,89,80,60
1,note_on,89,0,120
1,note_on,88,72,0
1,note_on,88,0,120
1,note_on,86,73,0
1,note_on,86,0,120
1,note_on,84,70,0
1,note_on,84,0,90
1,note_on,84,75,30
1,note_on,84,0,120
1,note_on,82,70,0
1,note_on,82,0,120
1,note_on,81,68,0
1,note_on,81,0,120
1,note_on,79,67,0
1,note_on,79,0,120
1,note_on,81,68,0
1,note_on,81,0,120
1,note_on,82,68,0
1,note_on,82,0,120
1,note_on,81,75,0
1,note_on,81,0,120
1,note_on,82,74,0
1,note_on,82,0,120
1,note_on,84,83,0
1,note_on,84,0,120
1,note_on,86,81,0
1,note_on,86,0,120
1,note_on,84,91,0
1,note_on,84,0,120
1,note_on,86,85,0
1,note_on,86,0,120
1,note_on,87,97,0
1,note_on,75,82,0
1,note_on,75,0,960
1,note_on,87,0,0
1,note_on,86,70,120
1,note_on,86,0,120
1,note_on,85,75,0
1,note_on,85,0,120
1,note_on,86,68,0
1,note_on,86,0,120
1,note_on,84,67,120
1,note_on,84,0,120
1,note_on,83,76,0
1,note_on,83,0,120
1,note_on,84,67,0
1,note_on,84,0,120
1,note_on,83,70,120
1,note_on,83,0,120
1,note_on,83,69,0
1,note_on,83,0,60
1,note_on,84,63,0
1,note_on,84,0,60
1,note_on,83,68,0
1,note_on,83,0,120
1,note_on,82,72,120
1,note_on,82,0,120
1,note_on,82,72,0
1,note_on,82,0,60
1,note_on,84,65,0
1,note_on,84,0,60
1,note_on,82,75,0
1,note_on,82,0,120
1,note_on,81,67,120
1,note_on,81,0,120
1,note_on,82,70,0
1,note_on,82,0,120
1,note_on,84,72,0
1,note_on,84,0,90
1,note_on,84,72,30
1,note_on,84,0,120
1,note_on,74,66,0
1,note_on,74,0,120
1,note_on,82,72,0
1,note_on,82,0,120
1,note_on,79,65,0
1,note_on,79,0,120
1,note_on,77,72,0
1,note_on,77,0,480
1,note_on,76,68,0
1,note_on,76,0,40
1,note_on,77,60,0
1,note_on,77,0,40
1,note_on,76,68,0
1,note_on,76,0,40
1,note_on,77,61,0
1,note_on,77,0,40
1,note_on,76,68,0
1,note_on,76,0,40
1,note_on,77,61,0
1,note_on,77,0,40
1,note_on,76,68,0
1,note_on,76,0,240
1,note_on,84,72,120
1,note_on,84,0,120
1,note_on,81,75,0
1,note_on,81,0,120
1,note_on,77,67,0
1,note_on,77,0,120
1,note_on,75,77,0
1,note_on,75,0,120
1,note_on,74,69,0
1,note_on,74,0,120
1,note_on,85,82,0
1,note_on,85,0,120
1,note_on,86,76,0
1,note_on,86,0,120
1,note_on,77,75,0
1,note_on,77,0,480
1,note_on,79,68,0
1,note_on,79,0,40
1,note_on,81,60,0
1,note_on,81,0,40
1,note_on,79,68,0
1,note_on,79,0,40
1,note_on,81,61,0
1,note_on,81,0,40
1,note_on,79,68,0
1,note_on,79,0,40
1,note_on,81,61,0
1,note_on,79,68,34
1,note_on,81,0,6
1,note_on,79,0,34
1,note_on,81,60,1
1,note_on,79,68,39
1,note_on,81,0,1
1,note_on,79,0,39
1,note_on,77,63,3
1,note_on,77,0,60
1,note_on,79,62,0
1,note_on,79,0,60
1,note_on,77,68,3
1,note_on,77,0,120
1,note_on,65,40,120
1,note_on,69,48,0
1,note_on,69,0,120
1,note_on,65,0,0
1,note_on,69,48,120
1,note_on,65,40,0
1,note_on,65,0,120
1,note_on,69,0,0
1,note_on,65,40,120
1,note_on,69,48,0
1,note_on,69,0,120
1,note_on,65,0,0
1,note_on,70,52,120
1,note_on,65,44,0
1,note_on,70,0,60
1,note_on,69,47,0
1,note_on,69,0,60
1,note_on,67,47,0
1,note_on,67,0,60
1,note_on,69,48,0
1,note_on,69,0,60
1,note_on,65,0,0
1,note_on,69,44,0
1,note_on,72,52,0
1,note_on,72,0,240
1,note_on,69,0,0
1,note_on,65,51,0
1,note_on,69,60,0
1,note_on,69,0,240
1,note_on,65,0,0
1,note_on,62,55,0
1,note_on,65,66,0
1,note_on,65,0,240
1,note_on,62,0,0
1,note_on,62,72,0
1,note_on,58,60,0
1,note_on,58,0,600
1,note_on,62,0,0
1,note_on,62,58,0
1,note_on,58,49,0
1,note_on,58,0,120
1,note_on,62,0,0
1,note_on,64,58,0
1,note_on,60,49,0
1,note_on,60,0,120
1,note_on,64,0,0
1,note_on,65,58,0
1,note_on,62,49,0
1,note_on,62,0,108
1,note_on,65,0,0
1,note_on,62,53,12
1,note_on,65,63,0
1,note_on,65,0,120
1,note_on,62,0,0
1,note_on,60,50,0
1,note_on,64,59,0
1,note_on,64,0,120
1,note_on,60,0,0
1,note_on,62,59,0
1,note_on,58,50,0
1,note_on,58,0,120
1,note_on,62,0,0
1,note_on,60,59,0
1,note_on,57,50,0
1,note_on,57,0,108
1,note_on,60,0,0
1,note_on,57,53,12
1,note_on,60,63,0
1,note_on,60,0,120
1,note_on,57,0,0
1,note_on,55,45,0
1,note_on,58,53,0
1,note_on,58,0,120
1,note_on,55,0,0
1,note_on,53,45,0
1,note_on,57,53,0
1,note_on,57,0,120
1,note_on,53,0,0
1,note_on,52,45,0
1,note_on,55,53,0
1,note_on,55,0,120
1,note_on,52,0,0
1,note_on,65,50,240
1,note_on,65,0,80
1,note_on,69,46,0
1,note_on,69,0,80
1,note_on,77,46,0
1,note_on,77,0,80
1,note_on,65,52,0
1,note_on,65,0,80
1,note_on,69,46,0
1,note_on,69,0,80
1,note_on,77,46,0
1,note_on,77,0,80
1,note_on,65,54,0
1,note_on,65,0,80
1,note_on,69,47,0
1,note_on,69,0,80
1,note_on,77,47,0
1,note_on,77,0,80
1,note_on,65,60,0
1,note_on,65,0,80
1,note_on,69,52,0
1,note_on,69,0,80
1,note_on,77,54,0
1,note_on,77,0,80
1,note_on,69,65,0
1,note_on,69,0,80
1,note_on,72,58,0
1,note_on,72,0,80
1,note_on,81,61,0
1,note_on,81,0,80
1,note_on,65,69,0
1,note_on,65,0,80
1,note_on,69,62,0
1,note_on,69,0,80
1,note_on,77,65,0
1,note_on,77,0,80
1,note_on,62,76,0
1,note_on,62,0,80
1,note_on,65,66,0
1,note_on,65,0,80
1,note_on,74,69,0
1,note_on,74,0,80
1,note_on,58,80,0
1,note_on,58,0,600
1,note_on,74,56,0
1,note_on,77,66,0
1,note_on,77,0,120
1,note_on,74,0,0
1,note_on,76,68,0
1,note_on,72,57,0
1,note_on,72,0,120
1,note_on,76,0,0
1,note_on,70,53,0
1,note_on,74,63,0
1,note_on,74,0,108
1,note_on,70,0,0
1,note_on,70,56,12
1,note_on,74,67,0
1,note_on,74,0,120
1,note_on,70,0,0
1,note_on,69,55,0
1,note_on,72,65,0
1,note_on,72,0,120
1,note_on,69,0,0
1,note_on,67,53,0
1,note_on,70,63,0
1,note_on,70,0,120
1,note_on,67,0,0
1,note_on,69,61,0
1,note_on,65,51,0
1,note_on,65,0,108
1,note_on,69,0,0
1,note_on,69,63,12
1,note_on,69,0,120
1,note_on,67,56,0
1,note_on,67,0,120
1,note_on,65,56,0
1,note_on,65,0,120
1,note_on,58,47,0
1,note_on,64,56,0
1,note_on,64,0,108
1,note_on,58,0,0
1,note_on,58,59,12
1,note_on,64,59,0
1,note_on,64,0,915
1,note_on,58,0,0
1,note_on,57,52,45
1,note_on,65,52,0
1,note_on,60,52,0
1,note_on,60,0,240
1,note_on,65,0,0
1,note_on,57,0,0
1,note_on,72,60,720
1,note_on,67,51,0
1,note_on,64,51,0
1,note_on,64,0,120
1,note_on,67,0,0
1,note_on,72,0,240
1,note_on,67,56,0
1,note_on,67,0,120
1,note_on,77,60,0
1,note_on,77,0,120
1,note_on,76,54,0
1,note_on,76,0,120
1,note_on,74,54,0
1,note_on,74,0,120
1,note_on,72,54,0
1,note_on,72,0,120
1,note_on,79,60,0
1,note_on,79,0,120
1,note_on,77,60,840
1,note_on,77,0,360
1,note_on,72,56,0
1,note_on,72,0,120
1,note_on,82,60,0
1,note_on,82,0,120
1,note_on,81,54,0
1,note_on,81,0,120
1,note_on,79,54,0
1,note_on,79,0,120
1,note_on,77,54,0
1,note_on,77,0,120
1,note_on,84,60,0
1,note_on,84,0,120
1,note_on,83,60,720
1,note_on,83,0,40
1,note_on,84,62,0
1,note_on,84,0,40
1,note_on,86,64,1
1,note_on,84,67,39
1,note_on,86,0,1
1,note_on,84,0,839
1,note_on,82,60,0
1,note_on,82,0,40
1,note_on,81,60,0
1,note_on,81,0,40
1,note_on,79,60,1
1,note_on,78,68,39
1,note_on,79,0,1
1,note_on,78,0,119
1,note_on,75,63,0
1,note_on,75,0,120
1,note_on,74,63,0
1,note_on,74,0,120
1,note_on,72,64,0
1,note_on,72,0,120
1,note_on,70,68,0
1,note_on,70,0,120
1,note_on,69,70,0
1,note_on,69,0,120
1,note_on,67,71,0
1,note_on,67,0,120
1,note_on,66,73,0
1,note_on,66,0,120
1,note_on,67,74,0
1,note_on,67,0,115
1,note_on,70,77,125
1,note_on,70,0,120
1,note_on,74,82,120
1,note_on,74,0,120
1,note_on,79,84,120
1,note_on,79,0,120
1,note_on,82,86,120
1,note_on,82,0,120
1,note_on,86,90,840
1,note_on,86,0,120
1,note_on,86,90,120
1,note_on,86,0,480
1,note_on,84,72,0
1,note_on,84,0,60
1,note_on,82,73,0
1,note_on,82,0,60
1,note_on,81,74,0
1,note_on,81,0,60
1,note_on,79,74,0
1,note_on,79,0,60
1,note_on,84,84,0
1,note_on,84,0,120
1,note_on,84,84,120
1,note_on,84,0,480
1,note_on,82,70,0
1,note_on,82,0,60
1,note_on,81,72,0
1,note_on,81,0,60
1,note_on,79,73,0
1,note_on,79,0,60
1,note_on,77,75,0
1,note_on,77,0,60
1,note_on,84,77,0
1,note_on,84,0,120
1,note_on,82,68,0
1,note_on,82,0,90
1,note_on,82,72,30
1,note_on,82,0,120
1,note_on,81,67,0
1,note_on,81,0,90
1,note_on,81,72,30
1,note_on,81,0,240
1,note_on,84,61,240
1,note_on,84,0,120
1,note_on,82,57,0
1,note_on,82,0,90
1,note_on,82,61,30
1,note_on,82,0,120
1,note_on,81,54,0
1,note_on,81,0,90
1,note_on,81,60,30
1,note_on,81,0,240
1,note_on,84,69,240
1,note_on,84,0,30
1,note_on,86,63,0
1,note_on,86,0,30
1,note_on,84,69,0
1,note_on,84,0,30
1,note_on,86,61,0
1,note_on,86,0,30
1,note_on,82,68,0
1,note_on,82,0,90
1,note_on,82,68,30
1,note_on,82,0,30
1,note_on,84,61,0
1,note_on,84,0,30
1,note_on,82,68,0
1,note_on,82,0,30
1,note_on,84,62,0
1,note_on,84,0,30
1,note_on,81,67,0
1,note_on,81,0,90
1,note_on,81,72,30
1,note_on,81,0,240
1,note_on,82,62,210
1,note_on,82,0,30
1,note_on,81,70,0
1,note_on,81,0,120
1,note_on,79,65,0
1,note_on,79,0,90
1,note_on,81,62,0
1,note_on,81,0,30
1,note_on,79,70,0
1,note_on,79,0,120
1,note_on,77,62,0
1,note_on,77,0,90
1,note_on,77,69,30
1,note_on,77,0,240
1,note_on,77,65,240
1,note_on,77,0,120
1,note_on,76,57,0
1,note_on,76,0,120
1,note_on,74,61,0
1,note_on,74,0,120
1,note_on,72,54,0
1,note_on,72,0,90
1,note_on,72,60,30
1,note_on,72,0,240
1,note_on,72,54,0
1,note_on,72,0,240
1,note_on,74,54,0
1,note_on,74,0,60
1,note_on,72,54,0
1,note_on,72,0,60
1,note_on,71,54,0
1,note_on,71,0,60
1,note_on,72,60,0
1,note_on,72,0,200
1,note_on,72,60,580
1,note_on,72,0,480
1,note_on,70,55,0
1,note_on,70,0,120
1,note_on,69,50,0
1,note_on,69,0,120
1,note_on,67,55,0
1,note_on,67,0,120
1,note_on,65,49,0
1,note_on,65,0,90
1,note_on,65,55,30
1,note_on,65,0,480
1,note_on,64,55,0
1,note_on,64,0,60
1,note_on,65,51,0
1,note_on,65,0,60
1,note_on,64,57,0
1,note_on,64,0,240
1,note_on,64,51,0
1,note_on,64,0,120
1,note_on,65,55,0
1,note_on,65,0,120
1,note_on,67,52,0
1,note_on,67,0,120
1,note_on,69,54,0
1,note_on,69,0,120
1,note_on,70,55,0
1,note_on,70,0,120
1,note_on,72,59,0
1,note_on,72,0,120
1,note_on,74,61,0
1,note_on,74,0,120
1,note_on,76,64,0
1,note_on,76,0,120
1,note_on,77,66,0
1,note_on,77,0,90
1,note_on,77,66,30
1,note_on,77,0,120
1,note_on,76,64,0
1,note_on,76,0,120
1,note_on,74,61,0
1,note_on,74,0,60
1,note_on,72,59,60
1,note_on,72,0,60
1,note_on,72,57,60
1,note_on,72,0,120
1,note_on,70,55,0
1,note_on,70,0,120
1,note_on,69,52,0
1,note_on,69,0,60
1,note_on,67,50,60
1,note_on,67,0,60
1,note_on,84,72,60
1,note_on,84,0,360
1,note_on,86,64,0
1,note_on,86,0,60
1,note_on,84,60,0
1,note_on,84,0,60
1,note_on,82,68,0
1,note_on,82,0,120
1,note_on,81,60,0
1,note_on,81,0,120
1,note_on,79,62,0
1,note_on,79,0,120
1,note_on,77,60,0
1,note_on,77,0,90
1,note_on,77,70,30
1,note_on,77,0,480
1,note_on,76,60,0
1,note_on,76,0,60
1,note_on,77,56,0
1,note_on,77,0,60
1,note_on,76,60,0
1,note_on,76,0,240
1,note_on,82,57,0
1,note_on,82,0,120
1,note_on,81,66,0
1,note_on,81,0,60
1,note_on,82,60,60
1,note_on,82,0,60
1,note_on,84,66,60
1,note_on,84,0,60
1,note_on,86,67,60
1,note_on,86,0,60
1,note_on,88,77,60
1,note_on,88,0,60
1,note_on,89,71,60
1,note_on,89,0,60
1,note_on,88,74,60
1,note_on,88,0,60
1,note_on,89,72,60
1,note_on,89,0,60
1,note_on,89,80,60
1,note_on,89,0,120
1,note_on,88,72,0
1,note_on,88,0,120
1,note_on,86,73,0
1,note_on,86,0,120
1,note_on,84,70,0
1,note_on,84,0,90
1,note_on,84,75,30
1,note_on,84,0,120
1,note_on,82,70,0
1,note_on,82,0,120
1,note_on,81,68,0
1,note_on,81,0,120
1,note_on,79,67,0
1,note_on,79,0,120
1,note_on,81,68,0
1,note_on,81,0,120
1,note_on,82,68,0
1,note_on,82,0,120
1,note_on,81,75,0
1,note_on,81,0,120
1,note_on,82,74,0
1,note_on,82,0,120
1,note_on,84,83,0
1,note_on,84,0,120
1,note_on,86,81,0
1,note_on,86,0,120
1,note_on,84,91,0
1,note_on,84,0,120
1,note_on,86,85,0
1,note_on,86,0,120
1,note_on,87,97,0
1,note_on,75,82,0
1,note_on,75,0,960
1,note_on,87,0,0
1,note_on,86,70,120
1,note_on,86,0,120
1,note_on,85,75,0
1,note_on,85,0,120
1,note_on,86,68,0
1,note_on,86,0,120
1,note_on,84,67,120
1,note_on,84,0,120
1,note_on,83,76,0
1,note_on,83,0,120
1,note_on,84,67,0
1,note_on,84,0,120
1,note_on,83,70,120
1,note_on,83,0,120
1,note_on,83,69,0
1,note_on,83,0,60
1,note_on,84,63,0
1,note_on,84,0,60
1,note_on,83,68,0
1,note_on,83,0,120
1,note_on,82,72,120
1,note_on,82,0,120
1,note_on,82,72,0
1,note_on,82,0,60
1,note_on,84,65,0
1,note_on,84,0,60
1,note_on,82,75,0
1,note_on,82,0,120
1,note_on,81,67,120
1,note_on,81,0,120
1,note_on,82,70,0
1,note_on,82,0,120
1,note_on,84,72,0
1,note_on,84,0,90
1,note_on,84,72,30
1,note_on,84,0,120
1,note_on,74,66,0
1,note_on,74,0,120
1,note_on,82,72,0
1,note_on,82,0,120
1,note_on,79,65,0
1,note_on,79,0,120
1,note_on,77,72,0
1,note_on,77,0,480
1,note_on,76,68,0
1,note_on,76,0,40
1,note_on,77,60,0
1,note_on,77,0,40
1,note_on,76,68,0
1,note_on,76,0,40
1,note_on,77,61,0
1,note_on,77,0,40
1,note_on,76,68,0
1,note_on,76,0,40
1,note_on,77,61,0
1,note_on,77,0,40
1,note_on,76,68,0
1,note_on,76,0,240
1,note_on,84,72,120
1,note_on,84,0,120
1,note_on,81,75,0
1,note_on,81,0,120
1,note_on,77,67,0
1,note_on,77,0,120
1,note_on,75,77,0
1,note_on,75,0,120
1,note_on,74,69,0
1,note_on,74,0,120
1,note_on,85,82,0
1,note_on,85,0,120
1,note_on,86,76,0
1,note_on,86,0,120
1,note_on,77,75,0
1,note_on,77,0,480
1,note_on,79,68,0
1,note_on,79,0,40
1,note_on,81,60,0
1,note_on,81,0,40
1,note_on,79,68,0
1,note_on,79,0,40
1,note_on,81,61,0
1,note_on,81,0,40
1,note_on,79,68,0
1,note_on,79,0,40
1,note_on,81,61,0
1,note_on,79,68,34
1,note_on,81,0,6
1,note_on,79,0,34
1,note_on,81,60,1
1,note_on,79,68,39
1,note_on,81,0,1
1,note_on,79,0,39
1,note_on,77,63,3
1,note_on,77,0,60
1,note_on,79,62,0
1,note_on,79,0,60
1,note_on,77,68,3
1,note_on,77,0,120
1,note_on,69,48,120
1,note_on,65,40,0
1,note_on,65,0,120
1,note_on,69,0,0
1,note_on,69,48,120
1,note_on,65,40,0
1,note_on,65,0,120
1,note_on,69,0,0
1,note_on,65,40,120
1,note_on,69,48,0
1,note_on,69,0,120
1,note_on,65,0,0
1,note_on,65,44,120
1,note_on,70,52,0
1,note_on,70,0,60
1,note_on,69,47,0
1,note_on,69,0,60
1,note_on,67,47,0
1,note_on,67,0,60
1,note_on,69,48,0
1,note_on,69,0,60
1,note_on,65,0,0
1,note_on,69,44,0
1,note_on,72,52,0
1,note_on,72,0,240
1,note_on,69,0,0
1,note_on,65,51,0
1,note_on,69,60,0
1,note_on,69,0,240
1,note_on,65,0,0
1,note_on,65,66,0
1,note_on,62,55,0
1,note_on,62,0,240
1,note_on,65,0,0
1,note_on,62,72,0
1,note_on,58,60,0
1,note_on,58,0,600
1,note_on,62,0,0
1,note_on,58,49,0
1,note_on,62,58,0
1,note_on,62,0,120
1,note_on,58,0,0
1,note_on,64,58,0
1,note_on,60,49,0
1,note_on,60,0,120
1,note_on,64,0,0
1,note_on,65,58,0
1,note_on,62,49,0
1,note_on,62,0,108
1,note_on,65,0,0
1,note_on,65,63,12
1,note_on,62,53,0
1,note_on,62,0,120
1,note_on,65,0,0
1,note_on,64,59,0
1,note_on,60,50,0
1,note_on,60,0,120
1,note_on,64,0,0
1,note_on,62,59,0
1,note_on,58,50,0
1,note_on,58,0,120
1,note_on,62,0,0
1,note_on,60,59,0
1,note_on,57,50,0
1,note_on,57,0,108
1,note_on,60,0,0
1,note_on,57,53,12
1,note_on,60,63,0
1,note_on,60,0,120
1,note_on,57,0,0
1,note_on,58,53,0
1,note_on,55,45,0
1,note_on,55,0,120
1,note_on,58,0,0
1,note_on,57,53,0
1,note_on,53,45,0
1,note_on,53,0,120
1,note_on,57,0,0
1,note_on,55,53,0
1,note_on,52,45,0
1,note_on,52,0,120
1,note_on,55,0,0
1,note_on,65,50,240
1,note_on,65,0,80
1,note_on,69,46,0
1,note_on,69,0,80
1,note_on,77,46,0
1,note_on,77,0,80
1,note_on,65,52,0
1,note_on,65,0,80
1,note_on,69,46,0
1,note_on,69,0,80
1,note_on,77,46,0
1,note_on,77,0,80
1,note_on,65,54,0
1,note_on,65,0,80
1,note_on,69,47,0
1,note_on,69,0,80
1,note_on,77,47,0
1,note_on,77,0,80
1,note_on,65,60,0
1,note_on,65,0,80
1,note_on,69,52,0
1,note_on,69,0,80
1,note_on,77,54,0
1,note_on,77,0,80
1,note_on,69,65,0
1,note_on,69,0,80
1,note_on,72,58,0
1,note_on,72,0,80
1,note_on,81,61,0
1,note_on,81,0,80
1,note_on,65,69,0
1,note_on,65,0,80
1,note_on,69,62,0
1,note_on,69,0,80
1,note_on,77,65,0
1,note_on,77,0,80
1,note_on,62,76,0
1,note_on,62,0,80
1,note_on,65,66,0
1,note_on,65,0,80
1,note_on,74,69,0
1,note_on,74,0,80
1,note_on,58,80,0
1,note_on,58,0,600
1,note_on,77,66,0
1,note_on,74,56,0
1,note_on,74,0,120
1,note_on,77,0,0
1,note_on,76,68,0
1,note_on,72,57,0
1,note_on,72,0,120
1,note_on,76,0,0
1,note_on,74,63,0
1,note_on,70,53,0
1,note_on,70,0,108
1,note_on,74,0,0
1,note_on,74,67,12
1,note_on,70,56,0
1,note_on,70,0,120
1,note_on,74,0,0
1,note_on,69,55,0
1,note_on,72,65,0
1,note_on,72,0,120
1,note_on,69,0,0
1,note_on,67,53,0
1,note_on,70,63,0
1,note_on,70,0,120
1,note_on,67,0,0
1,note_on,65,51,0
1,note_on,69,61,0
1,note_on,69,0,108
1,note_on,65,0,0
1,note_on,69,63,12
1,note_on,69,0,120
1,note_on,67,56,0
1,note_on,67,0,120
1,note_on,65,56,0
1,note_on,65,0,120
1,note_on,58,47,0
1,note_on,64,56,0
1,note_on,64,0,108
1,note_on,58,0,0
1,note_on,58,59,12
1,note_on,64,59,0
1,note_on,64,0,915
1,note_on,58,0,0
1,note_on,60,52,45
1,note_on,65,52,0
1,note_on,57,52,0
1,note_on,57,0,240
1,note_on,65,0,0
1,note_on,60,0,0
2,note_on,41,45,1875
2,note_on,45,48,15
2,note_on,48,51,15
2,note_on,53,53,15
2,note_on,53,0,120
2,note_on,41,0,0
2,note_on,45,0,0
2,note_on,48,0,0
2,note_on,55,42,840
2,note_on,48,42,0
2,note_on,58,50,0
2,note_on,58,0,120
2,note_on,48,0,0
2,note_on,55,0,0
2,note_on,52,45,795
2,note_on,55,48,15
2,note_on,58,51,15
2,note_on,60,53,15
2,note_on,60,0,120
2,note_on,52,0,0
2,note_on,55,0,0
2,note_on,58,0,0
2,note_on,60,50,840
2,note_on,53,42,0
2,note_on,53,0,120
2,note_on,60,0,0
2,note_on,65,44,840
2,note_on,58,44,0
2,note_on,58,0,960
2,note_on,57,44,0
2,note_on,57,0,240
2,note_on,65,0,0
2,note_on,58,43,720
2,note_on,46,43,0
2,note_on,46,0,960
2,note_on,58,0,0
2,note_on,48,37,0
2,note_on,57,37,0
2,note_on,57,0,480
2,note_on,55,33,0
2,note_on,55,0,420
2,note_on,48,0,0
2,note_on,41,45,15
2,note_on,45,48,15
2,note_on,48,51,15
2,note_on,53,53,15
2,note_on,53,0,120
2,note_on,41,0,0
2,note_on,45,0,0
2,note_on,48,0,0
2,note_on,58,50,840
2,note_on,48,42,0
2,note_on,58,0,240
2,note_on,57,50,0
2,note_on,57,0,240
2,note_on,55,50,0
2,note_on,55,0,240
2,note_on,53,50,0
2,note_on,53,0,240
2,note_on,55,53,0
2,note_on,52,48,0
2,note_on,52,0,960
2,note_on,55,0,0
2,note_on,48,0,0
2,note_on,53,50,0
2,note_on,41,42,0
2,note_on,41,0,120
2,note_on,53,0,0
2,note_on,58,44,840
2,note_on,46,44,0
2,note_on,46,0,480
2,note_on,58,0,0
2,note_on,58,30,960
2,note_on,70,36,0
2,note_on,70,0,480
2,note_on,58,0,0
2,note_on,69,40,0
2,note_on,60,34,0
2,note_on,69,0,960
2,note_on,67,32,0
2,note_on,67,0,480
2,note_on,60,0,0
2,note_on,60,40,480
2,note_on,60,0,120
2,note_on,67,32,0
2,note_on,67,0,120
2,note_on,64,32,0
2,note_on,64,0,120
2,note_on,67,32,0
2,note_on,67,0,120
2,note_on,60,40,0
2,note_on,60,0,120
2,note_on,67,31,0
2,note_on,67,0,120
2,note_on,64,31,0
2,note_on,64,0,120
2,note_on,67,31,0
2,note_on,67,0,120
2,note_on,62,40,0
2,note_on,62,0,120
2,note_on,67,30,0
2,note_on,67,0,120
2,note_on,65,30,0
2,note_on,65,0,120
2,note_on,67,30,0
2,note_on,67,0,120
2,note_on,62,40,0
2,note_on,62,0,120
2,note_on,67,33,0
2,note_on,67,0,120
2,note_on,65,33,0
2,note_on,65,0,120
2,note_on,67,33,0
2,note_on,67,0,120
2,note_on,60,40,0
2,note_on,60,0,120
2,note_on,67,32,0
2,note_on,67,0,120
2,note_on,64,32,0
2,note_on,64,0,120
2,note_on,67,32,0
2,note_on,67,0,120
2,note_on,60,40,0
2,note_on,60,0,120
2,note_on,67,33,0
2,note_on,67,0,120
2,note_on,64,35,0
2,note_on,64,0,120
2,note_on,67,37,0
2,note_on,67,0,120
2,note_on,62,47,0
2,note_on,62,0,120
2,note_on,67,35,0
2,note_on,67,0,120
2,note_on,65,35,0
2,note_on,65,0,60
2,note_on,67,35,60
2,note_on,67,0,60
2,note_on,62,44,60
2,note_on,62,0,120
2,note_on,67,33,0
2,note_on,67,0,120
2,note_on,65,33,0
2,note_on,65,0,60
2,note_on,67,33,60
2,note_on,67,0,60
2,note_on,60,40,60
2,note_on,60,0,120
2,note_on,67,32,0
2,note_on,67,0,120
2,note_on,64,32,0
2,note_on,64,0,120
2,note_on,67,32,0
2,note_on,67,0,120
2,note_on,60,40,0
2,note_on,60,0,120
2,note_on,67,31,0
2,note_on,67,0,120
2,note_on,64,31,0
2,note_on,64,0,120
2,note_on,67,31,0
2,note_on,67,0,120
2,note_on,62,40,0
2,note_on,62,0,120
2,note_on,67,30,0
2,note_on,67,0,120
2,note_on,65,30,0
2,note_on,65,0,120
2,note_on,67,30,0
2,note_on,67,0,120
2,note_on,62,40,0
2,note_on,62,0,120
2,note_on,67,33,0
2,note_on,67,0,120
2,note_on,65,33,0
2,note_on,65,0,120
2,note_on,67,33,0
2,note_on,67,0,120
2,note_on,60,40,0
2,note_on,60,0,60
2,note_on,67,32,60
2,note_on,67,0,60
2,note_on,64,32,60
2,note_on,64,0,60
2,note_on,67,32,60
2,note_on,67,0,60
2,note_on,60,46,60
2,note_on,60,0,60
2,note_on,67,35,60
2,note_on,67,0,60
2,note_on,64,36,60
2,note_on,64,0,60
2,note_on,67,38,60
2,note_on,67,0,60
2,note_on,62,49,60
2,note_on,62,0,120
2,note_on,67,39,0
2,note_on,67,0,120
2,note_on,65,39,0
2,note_on,65,0,120
2,note_on,67,39,0
2,note_on,67,0,120
2,note_on,62,50,0
2,note_on,62,0,120
2,note_on,67,40,0
2,note_on,67,0,120
2,note_on,65,40,0
2,note_on,65,0,120
2,note_on,67,40,0
2,note_on,67,0,120
2,note_on,60,48,0
2,note_on,60,0,120
2,note_on,67,32,0
2,note_on,67,0,120
2,note_on,64,32,0
2,note_on,64,0,120
2,note_on,67,32,0
2,note_on,67,0,120
2,note_on,60,52,0
2,note_on,60,0,120
2,note_on,67,39,0
2,note_on,67,0,120
2,note_on,64,42,0
2,note_on,64,0,120
2,note_on,67,45,0
2,note_on,67,0,120
2,note_on,52,65,0
2,note_on,52,0,120
2,note_on,60,55,0
2,note_on,60,0,120
2,note_on,55,55,0
2,note_on,55,0,120
2,note_on,60,55,0
2,note_on,60,0,120
2,note_on,52,63,0
2,note_on,52,0,120
2,note_on,60,51,0
2,note_on,60,0,120
2,note_on,55,51,0
2,note_on,55,0,120
2,note_on,60,51,0
2,note_on,60,0,120
2,note_on,53,58,0
2,note_on,53,0,120
2,note_on,60,45,0
2,note_on,60,0,120
2,note_on,57,45,0
2,note_on,57,0,120
2,note_on,60,45,0
2,note_on,60,0,120
2,note_on,52,51,0
2,note_on,52,0,120
2,note_on,61,44,0
2,note_on,61,0,120
2,note_on,55,44,0
2,note_on,55,0,120
2,note_on,61,44,0
2,note_on,61,0,120
2,note_on,50,51,0
2,note_on,50,0,120
2,note_on,60,43,0
2,note_on,60,0,120
2,note_on,57,43,0
2,note_on,57,0,120
2,note_on,60,43,0
2,note_on,60,0,120
2,note_on,55,51,0
2,note_on,55,0,120
2,note_on,62,43,0
2,note_on,62,0,120
2,note_on,59,43,0
2,note_on,59,0,120
2,note_on,62,43,0
2,note_on,62,0,120
2,note_on,48,47,0
2,note_on,48,0,120
2,note_on,60,41,0
2,note_on,60,0,120
2,note_on,52,41,0
2,note_on,52,0,120
2,note_on,60,41,0
2,note_on,60,0,120
2,note_on,53,47,0
2,note_on,53,0,120
2,note_on,62,41,0
2,note_on,62,0,120
2,note_on,57,41,0
2,note_on,57,0,120
2,note_on,62,41,0
2,note_on,62,0,120
2,note_on,55,47,0
2,note_on,55,0,120
2,note_on,64,40,0
2,note_on,64,0,120
2,note_on,60,40,0
2,note_on,60,0,120
2,note_on,64,40,0
2,note_on,64,0,120
2,note_on,55,47,0
2,note_on,55,0,120
2,note_on,65,42,0
2,note_on,65,0,120
2,note_on,62,42,0
2,note_on,62,0,120
2,note_on,65,42,0
2,note_on,65,0,120
2,note_on,52,47,0
2,note_on,52,0,120
2,note_on,60,41,0
2,note_on,60,0,120
2,note_on,55,41,0
2,note_on,55,0,120
2,note_on,60,41,0
2,note_on,60,0,120
2,note_on,53,47,0
2,note_on,53,0,120
2,note_on,60,41,0
2,note_on,60,0,120
2,note_on,57,41,0
2,note_on,57,0,120
2,note_on,60,41,0
2,note_on,60,0,120
2,note_on,55,47,0
2,note_on,55,0,120
2,note_on,64,40,0
2,note_on,64,0,120
2,note_on,60,40,0
2,note_on,60,0,120
2,note_on,64,40,0
2,note_on,64,0,120
2,note_on,55,47,0
2,note_on,55,0,120
2,note_on,65,42,0
2,note_on,65,0,120
2,note_on,62,42,0
2,note_on,62,0,120
2,note_on,65,42,0
2,note_on,65,0,120
2,note_on,64,47,0
2,note_on,60,39,0
2,note_on,60,0,480
2,note_on,64,0,0
2,note_on,53,70,1920
2,note_on,41,59,0
2,note_on,41,0,120
2,note_on,53,0,0
2,note_on,55,63,360
2,note_on,43,53,0
2,note_on,43,0,120
2,note_on,55,0,0
2,note_on,43,53,360
2,note_on,55,63,0
2,note_on,55,0,120
2,note_on,43,0,0
2,note_on,36,63,360
2,note_on,48,63,0
2,note_on,48,0,480
2,note_on,36,0,0
2,note_on,53,70,1920
2,note_on,41,59,0
2,note_on,41,0,120
2,note_on,53,0,0
2,note_on,55,63,360
2,note_on,43,53,0
2,note_on,43,0,120
2,note_on,55,0,0
2,note_on,53,63,360
2,note_on,43,53,6
2,note_on,53,0,234
2,note_on,43,0,6
2,note_on,48,56,234
2,note_on,48,0,915
2,note_on,36,49,0
2,note_on,40,53,15
2,note_on,43,56,15
2,note_on,48,60,15
2,note_on,40,0,220
2,note_on,36,0,20
2,note_on,43,0,0
2,note_on,48,0,0
2,note_on,41,45,675
2,note_on,45,48,15
2,note_on,48,51,15
2,note_on,53,53,15
2,note_on,53,0,120
2,note_on,41,0,0
2,note_on,45,0,0
2,note_on,48,0,0
2,note_on,55,42,840
2,note_on,58,50,0
2,note_on,48,42,0
2,note_on,48,0,120
2,note_on,58,0,0
2,note_on,55,0,0
2,note_on,52,45,795
2,note_on,55,48,15
2,note_on,58,51,15
2,note_on,60,53,15
2,note_on,60,0,120
2,note_on,52,0,0
2,note_on,55,0,0
2,note_on,58,0,0
2,note_on,60,50,840
2,note_on,53,42,0
2,note_on,53,0,120
2,note_on,60,0,0
2,note_on,58,44,840
2,note_on,65,44,0
2,note_on,58,0,960
2,note_on,57,44,0
2,note_on,57,0,240
2,note_on,65,0,0
2,note_on,46,43,720
2,note_on,58,43,0
2,note_on,58,0,960
2,note_on,46,0,0
2,note_on,57,37,0
2,note_on,48,37,0
2,note_on,57,0,480
2,note_on,55,33,0
2,note_on,55,0,420
2,note_on,48,0,0
2,note_on,41,45,15
2,note_on,45,48,15
2,note_on,48,51,15
2,note_on,53,53,15
2,note_on,53,0,120
2,note_on,41,0,0
2,note_on,45,0,0
2,note_on,48,0,0
2,note_on,58,50,840
2,note_on,48,42,0
2,note_on,58,0,240
2,note_on,57,50,0
2,note_on,57,0,240
2,note_on,55,50,0
2,note_on,55,0,240
2,note_on,53,50,0
2,note_on,53,0,240
2,note_on,55,53,0
2,note_on,52,48,0
2,note_on,52,0,960
2,note_on,55,0,0
2,note_on,48,0,0
2,note_on,53,50,0
2,note_on,41,42,0
2,note_on,41,0,120
2,note_on,53,0,0
2,note_on,58,44,840
2,note_on,46,44,0
2,note_on,46,0,480
2,note_on,58,0,0
2,note_on,70,36,960
2,note_on,58,30,0
2,note_on,58,0,480
2,note_on,70,0,0
2,note_on,69,40,0
2,note_on,60,34,0
2,note_on,69,0,960
2,note_on,67,32,0
2,note_on,67,0,480
2,note_on,60,0,0
2,note_on,60,40,480
2,note_on,60,0,120
2,note_on,67,32,0
2,note_on,67,0,120
2,note_on,64,32,0
2,note_on,64,0,120
2,note_on,67,32,0
2,note_on,67,0,120
2,note_on,60,40,0
2,note_on,60,0,120
2,note_on,67,31,0
2,note_on,67,0,120
2,note_on,64,31,0
2,note_on,64,0,120
2,note_on,67,31,0
2,note_on,67,0,120
2,note_on,62,40,0
2,note_on,62,0,120
2,note_on,67,30,0
2,note_on,67,0,120
2,note_on,65,30,0
2,note_on,65,0,120
2,note_on,67,30,0
2,note_on,67,0,120
2,note_on,62,40,0
2,note_on,62,0,120
2,note_on,67,33,0
2,note_on,67,0,120
2,note_on,65,33,0
2,note_on,65,0,120
2,note_on,67,33,0
2,note_on,67,0,120
2,note_on,60,40,0
2,note_on,60,0,120
2,note_on,67,32,0
2,note_on,67,0,120
2,note_on,64,32,0
2,note_on,64,0,120
2,note_on,67,32,0
2,note_on,67,0,120
2,note_on,60,40,0
2,note_on,60,0,120
2,note_on,67,33,0
2,note_on,67,0,120
2,note_on,64,35,0
2,note_on,64,0,120
2,note_on,67,37,0
2,note_on,67,0,120
2,note_on,62,47,0
2,note_on,62,0,120
2,note_on,67,35,0
2,note_on,67,0,120
2,note_on,65,35,0
2,note_on,65,0,60
2,note_on,67,35,60
2,note_on,67,0,60
2,note_on,62,44,60
2,note_on,62,0,120
2,note_on,67,33,0
2,note_on,67,0,120
2,note_on,65,33,0
2,note_on,65,0,60
2,note_on,67,33,60
2,note_on,67,0,60
2,note_on,60,40,60
2,note_on,60,0,120
2,note_on,67,32,0
2,note_on,67,0,120
2,note_on,64,32,0
2,note_on,64,0,120
2,note_on,67,32,0
2,note_on,67,0,120
2,note_on,60,40,0
2,note_on,60,0,120
2,note_on,67,31,0
2,note_on,67,0,120
2,note_on,64,31,0
2,note_on,64,0,120
2,note_on,67,31,0
2,note_on,67,0,120
2,note_on,62,40,0
2,note_on,62,0,120
2,note_on,67,30,0
2,note_on,67,0,120
2,note_on,65,30,0
2,note_on,65,0,120
2,note_on,67,30,0
2,note_on,67,0,120
2,note_on,62,40,0
2,note_on,62,0,120
2,note_on,67,33,0
2,note_on,67,0,120
2,note_on,65,33,0
2,note_on,65,0,120
2,note_on,67,33,0
2,note_on,67,0,120
2,note_on,60,40,0
2,note_on,60,0,60
2,note_on,67,32,60
2,note_on,67,0,60
2,note_on,64,32,60
2,note_on,64,0,60
2,note_on,67,32,60
2,note_on,67,0,60
2,note_on,60,46,60
2,note_on,60,0,60
2,note_on,67,35,60
2,note_on,67,0,60
2,note_on,64,36,60
2,note_on,64,0,60
2,note_on,67,38,60
2,note_on,67,0,60
2,note_on,62,49,60
2,note_on,62,0,120
2,note_on,67,39,0
2,note_on,67,0,120
2,note_on,65,39,0
2,note_on,65,0,120
2,note_on,67,39,0
2,note_on,67,0,120
2,note_on,62,50,0
2,note_on,62,0,120
2,note_on,67,40,0
2,note_on,67,0,120
2,note_on,65,40,0
2,note_on,65,0,120
2,note_on,67,40,0
2,note_on,67,0,120
2,note_on,60,48,0
2,note_on,60,0,120
2,note_on,67,32,0
2,note_on,67,0,120
2,note_on,64,32,0
2,note_on,64,0,120
2,note_on,67,32,0
2,note_on,67,0,120
2,note_on,60,52,0
2,note_on,60,0,120
2,note_on,67,39,0
2,note_on,67,0,120
2,note_on,64,42,0
2,note_on,64,0,120
2,note_on,67,45,0
2,note_on,67,0,120
2,note_on,52,65,0
2,note_on,52,0,120
2,note_on,60,55,0
2,note_on,60,0,120
2,note_on,55,55,0
2,note_on,55,0,120
2,note_on,60,55,0
2,note_on,60,0,120
2,note_on,52,63,0
2,note_on,52,0,120
2,note_on,60,51,0
2,note_on,60,0,120
2,note_on,55,51,0
2,note_on,55,0,120
2,note_on,60,51,0
2,note_on,60,0,120
2,note_on,53,58,0
2,note_on,53,0,120
2,note_on,60,45,0
2,note_on,60,0,120
2,note_on,57,45,0
2,note_on,57,0,120
2,note_on,60,45,0
2,note_on,60,0,120
2,note_on,52,51,0
2,note_on,52,0,120
2,note_on,61,44,0
2,note_on,61,0,120
2,note_on,55,44,0
2,note_on,55,0,120
2,note_on,61,44,0
2,note_on,61,0,120
2,note_on,50,51,0
2,note_on,50,0,120
2,note_on,60,43,0
2,note_on,60,0,120
2,note_on,57,43,0
2,note_on,57,0,120
2,note_on,60,43,0
2,note_on,60,0,120
2,note_on,55,51,0
2,note_on,55,0,120
2,note_on,62,43,0
2,note_on,62,0,120
2,note_on,59,43,0
2,note_on,59,0,120
2,note_on,62,43,0
2,note_on,62,0,120
2,note_on,48,47,0
2,note_on,48,0,120
2,note_on,60,41,0
2,note_on,60,0,120
2,note_on,52,41,0
2,note_on,52,0,120
2,note_on,60,41,0
2,note_on,60,0,120
2,note_on,53,47,0
2,note_on,53,0,120
2,note_on,62,41,0
2,note_on,62,0,120
2,note_on,57,41,0
2,note_on,57,0,120
2,note_on,62,41,0
2,note_on,62,0,120
2,note_on,55,47,0
2,note_on,55,0,120
2,note_on,64,40,0
2,note_on,64,0,120
2,note_on,60,40,0
2,note_on,60,0,120
2,note_on,64,40,0
2,note_on,64,0,120
2,note_on,55,47,0
2,note_on,55,0,120
2,note_on,65,42,0
2,note_on,65,0,120
2,note_on,62,42,0
2,note_on,62,0,120
2,note_on,65,42,0
2,note_on,65,0,120
2,note_on,52,47,0
2,note_on,52,0,120
2,note_on,60,41,0
2,note_on,60,0,120
2,note_on,55,41,0
2,note_on,55,0,120
2,note_on,60,41,0
2,note_on,60,0,120
2,note_on,53,47,0
2,note_on,53,0,120
2,note_on,60,41,0
2,note_on,60,0,120
2,note_on,57,41,0
2,note_on,57,0,120
2,note_on,60,41,0
2,note_on,60,0,120
2,note_on,55,47,0
2,note_on,55,0,120
2,note_on,64,40,0
2,note_on,64,0,120
2,note_on,60,40,0
2,note_on,60,0,120
2,note_on,64,40,0
2,note_on,64,0,120
2,note_on,55,47,0
2,note_on,55,0,120
2,note_on,65,42,0
2,note_on,65,0,120
2,note_on,62,42,0
2,note_on,62,0,120
2,note_on,65,42,0
2,note_on,65,0,120
2,note_on,60,39,0
2,note_on,64,47,0
2,note_on,64,0,480
2,note_on,60,0,0
2,note_on,41,59,1920
2,note_on,53,70,0
2,note_on,53,0,120
2,note_on,41,0,0
2,note_on,55,63,360
2,note_on,43,53,0
2,note_on,43,0,120
2,note_on,55,0,0
2,note_on,43,53,360
2,note_on,55,63,0
2,note_on,55,0,120
2,note_on,43,0,0
2,note_on,36,63,360
2,note_on,48,63,0
2,note_on,48,0,480
2,note_on,36,0,0
2,note_on,41,59,1920
2,note_on,53,70,0
2,note_on,53,0,120
2,note_on,41,0,0
2,note_on,55,63,360
2,note_on,43,53,0
2,note_on,43,0,120
2,note_on,55,0,0
2,note_on,53,63,360
2,note_on,43,53,6
2,note_on,53,0,234
2,note_on,43,0,6
2,note_on,48,56,234
2,note_on,48,0,915
2,note_on,36,49,0
2,note_on,40,53,15
2,note_on,43,56,15
2,note_on,48,60,15
2,note_on,40,0,220
2,note_on,36,0,20
2,note_on,43,0,0
2,note_on,48,0,0
2,note_on,48,45,675
2,note_on,52,48,15
2,note_on,55,51,15
2,note_on,60,53,15
2,note_on,60,0,120
2,note_on,48,0,0
2,note_on,52,0,0
2,note_on,55,0,0
2,note_on,60,44,840
2,note_on,60,0,120
2,note_on,70,37,0
2,note_on,70,0,120
2,note_on,67,37,0
2,note_on,67,0,120
2,note_on,70,37,0
2,note_on,70,0,120
2,note_on,60,44,0
2,note_on,60,0,120
2,note_on,70,39,0
2,note_on,70,0,120
2,note_on,67,39,0
2,note_on,67,0,120
2,note_on,70,39,0
2,note_on,70,0,120
2,note_on,60,44,0
2,note_on,60,0,120
2,note_on,69,37,0
2,note_on,69,0,120
2,note_on,65,37,0
2,note_on,65,0,120
2,note_on,69,37,0
2,note_on,69,0,120
2,note_on,60,44,0
2,note_on,60,0,120
2,note_on,69,39,0
2,note_on,69,0,120
2,note_on,65,39,0
2,note_on,65,0,120
2,note_on,69,39,0
2,note_on,69,0,120
2,note_on,60,44,0
2,note_on,60,0,120
2,note_on,67,37,0
2,note_on,67,0,120
2,note_on,64,37,0
2,note_on,64,0,120
2,note_on,67,37,0
2,note_on,67,0,120
2,note_on,60,44,0
2,note_on,60,0,120
2,note_on,67,39,0
2,note_on,67,0,120
2,note_on,64,39,0
2,note_on,64,0,120
2,note_on,67,39,0
2,note_on,67,0,120
2,note_on,57,44,0
2,note_on,57,0,120
2,note_on,63,39,0
2,note_on,63,0,120
2,note_on,60,39,0
2,note_on,60,0,120
2,note_on,63,39,0
2,note_on,63,0,120
2,note_on,57,44,0
2,note_on,57,0,120
2,note_on,63,39,0
2,note_on,63,0,120
2,note_on,60,39,0
2,note_on,60,0,120
2,note_on,63,39,0
2,note_on,63,0,120
2,note_on,57,44,0
2,note_on,57,0,120
2,note_on,63,40,0
2,note_on,63,0,120
2,note_on,60,41,0
2,note_on,60,0,120
2,note_on,63,42,0
2,note_on,63,0,120
2,note_on,57,49,0
2,note_on,57,0,120
2,note_on,63,45,0
2,note_on,63,0,120
2,note_on,60,46,0
2,note_on,60,0,120
2,note_on,63,47,0
2,note_on,63,0,120
2,note_on,58,55,0
2,note_on,58,0,120
2,note_on,67,48,0
2,note_on,67,0,120
2,note_on,62,48,0
2,note_on,62,0,120
2,note_on,67,48,0
2,note_on,67,0,120
2,note_on,58,55,0
2,note_on,58,0,120
2,note_on,67,48,0
2,note_on,67,0,120
2,note_on,62,48,0
2,note_on,62,0,120
2,note_on,67,48,0
2,note_on,67,0,120
2,note_on,58,55,0
2,note_on,58,0,120
2,note_on,67,48,0
2,note_on,67,0,120
2,note_on,62,48,0
2,note_on,62,0,120
2,note_on,67,48,0
2,note_on,67,0,120
2,note_on,58,55,0
2,note_on,58,0,120
2,note_on,67,48,0
2,note_on,67,0,120
2,note_on,62,48,0
2,note_on,62,0,120
2,note_on,67,48,0
2,note_on,67,0,120
2,note_on,58,55,0
2,note_on,58,0,120
2,note_on,67,45,0
2,note_on,67,0,120
2,note_on,64,45,0
2,note_on,64,0,120
2,note_on,67,45,0
2,note_on,67,0,120
2,note_on,58,52,0
2,note_on,58,0,120
2,note_on,67,42,0
2,note_on,67,0,120
2,note_on,64,42,0
2,note_on,64,0,120
2,note_on,67,42,0
2,note_on,67,0,120
2,note_on,57,55,0
2,note_on,57,0,120
2,note_on,65,46,0
2,note_on,65,0,120
2,note_on,60,46,0
2,note_on,60,0,120
2,note_on,65,46,0
2,note_on,65,0,120
2,note_on,57,55,0
2,note_on,57,0,120
2,note_on,65,48,0
2,note_on,65,0,120
2,note_on,60,48,0
2,note_on,60,0,120
2,note_on,65,43,0
2,note_on,65,0,120
2,note_on,52,50,0
2,note_on,52,0,120
2,note_on,60,38,0
2,note_on,60,0,120
2,note_on,55,38,0
2,note_on,55,0,120
2,note_on,60,38,0
2,note_on,60,0,120
2,note_on,53,48,0
2,note_on,53,0,120
2,note_on,60,40,0
2,note_on,60,0,120
2,note_on,57,40,0
2,note_on,57,0,120
2,note_on,60,34,0
2,note_on,60,0,120
2,note_on,52,40,0
2,note_on,52,0,120
2,note_on,60,31,0
2,note_on,60,0,120
2,note_on,55,31,0
2,note_on,55,0,120
2,note_on,60,31,0
2,note_on,60,0,120
2,note_on,53,34,0
2,note_on,53,0,120
2,note_on,60,27,0
2,note_on,60,0,120
2,note_on,57,27,0
2,note_on,57,0,120
2,note_on,60,27,0
2,note_on,60,0,120
2,note_on,52,53,0
2,note_on,52,0,120
2,note_on,60,40,0
2,note_on,60,0,120
2,note_on,55,40,0
2,note_on,55,0,120
2,note_on,60,40,0
2,note_on,60,0,120
2,note_on,53,48,0
2,note_on,53,0,120
2,note_on,60,40,0
2,note_on,60,0,120
2,note_on,57,40,0
2,note_on,57,0,120
2,note_on,60,34,0
2,note_on,60,0,120
2,note_on,58,46,0
2,note_on,58,0,120
2,note_on,67,35,0
2,note_on,67,0,120
2,note_on,62,35,0
2,note_on,62,0,120
2,note_on,67,35,0
2,note_on,67,0,120
2,note_on,59,45,0
2,note_on,59,0,120
2,note_on,67,36,0
2,note_on,67,0,120
2,note_on,62,36,0
2,note_on,62,0,120
2,note_on,67,36,0
2,note_on,67,0,120
2,note_on,60,43,0
2,note_on,60,0,120
2,note_on,67,34,0
2,note_on,67,0,120
2,note_on,64,34,0
2,note_on,64,0,120
2,note_on,67,34,0
2,note_on,67,0,120
2,note_on,60,42,0
2,note_on,60,0,120
2,note_on,67,32,0
2,note_on,67,0,120
2,note_on,64,32,0
2,note_on,64,0,120
2,note_on,67,32,0
2,note_on,67,0,120
2,note_on,60,37,0
2,note_on,60,0,120
2,note_on,62,29,0
2,note_on,62,0,120
2,note_on,58,38,0
2,note_on,58,0,120
2,note_on,60,32,0
2,note_on,60,0,120
2,note_on,57,34,0
2,note_on,57,0,120
2,note_on,58,27,0
2,note_on,58,0,120
2,note_on,55,34,0
2,note_on,55,0,120
2,note_on,57,28,0
2,note_on,57,0,120
2,note_on,53,37,0
2,note_on,53,0,120
2,note_on,60,31,0
2,note_on,60,0,120
2,note_on,57,28,0
2,note_on,57,0,120
2,note_on,60,28,0
2,note_on,60,0,120
2,note_on,53,40,0
2,note_on,53,0,120
2,note_on,60,31,0
2,note_on,60,0,120
2,note_on,57,31,0
2,note_on,57,0,120
2,note_on,60,31,0
2,note_on,60,0,120
2,note_on,55,40,0
2,note_on,55,0,120
2,note_on,60,30,0
2,note_on,60,0,120
2,note_on,58,30,0
2,note_on,58,0,120
2,note_on,60,30,0
2,note_on,60,0,120
2,note_on,55,40,0
2,note_on,55,0,120
2,note_on,60,33,0
2,note_on,60,0,120
2,note_on,58,33,0
2,note_on,58,0,120
2,note_on,60,33,0
2,note_on,60,0,120
2,note_on,53,40,0
2,note_on,53,0,120
2,note_on,60,32,0
2,note_on,60,0,120
2,note_on,57,32,0
2,note_on,57,0,120
2,note_on,60,32,0
2,note_on,60,0,120
2,note_on,53,40,0
2,note_on,53,0,120
2,note_on,60,33,0
2,note_on,60,0,120
2,note_on,57,35,0
2,note_on,57,0,120
2,note_on,60,37,0
2,note_on,60,0,120
2,note_on,55,47,0
2,note_on,55,0,120
2,note_on,60,35,0
2,note_on,60,0,120
2,note_on,58,35,0
2,note_on,58,0,60
2,note_on,60,35,60
2,note_on,60,0,60
2,note_on,55,44,60
2,note_on,55,0,120
2,note_on,60,33,0
2,note_on,60,0,120
2,note_on,58,33,0
2,note_on,58,0,60
2,note_on,60,33,60
2,note_on,60,0,60
2,note_on,53,40,60
2,note_on,53,0,120
2,note_on,60,32,0
2,note_on,60,0,120
2,note_on,57,32,0
2,note_on,57,0,120
2,note_on,60,32,0
2,note_on,60,0,120
2,note_on,53,40,0
2,note_on,53,0,120
2,note_on,60,31,0
2,note_on,60,0,120
2,note_on,57,31,0
2,note_on,57,0,120
2,note_on,60,31,0
2,note_on,60,0,120
2,note_on,55,40,0
2,note_on,55,0,120
2,note_on,60,30,0
2,note_on,60,0,120
2,note_on,58,30,0
2,note_on,58,0,120
2,note_on,60,30,0
2,note_on,60,0,120
2,note_on,55,40,0
2,note_on,55,0,120
2,note_on,60,33,0
2,note_on,60,0,120
2,note_on,58,33,0
2,note_on,58,0,120
2,note_on,60,33,0
2,note_on,60,0,120
2,note_on,53,40,0
2,note_on,53,0,60
2,note_on,60,32,60
2,note_on,60,0,60
2,note_on,57,32,60
2,note_on,57,0,60
2,note_on,60,32,60
2,note_on,60,0,60
2,note_on,53,46,60
2,note_on,53,0,60
2,note_on,60,35,60
2,note_on,60,0,60
2,note_on,57,36,60
2,note_on,57,0,60
2,note_on,60,38,60
2,note_on,60,0,60
2,note_on,55,49,60
2,note_on,55,0,120
2,note_on,60,39,0
2,note_on,60,0,120
2,note_on,58,39,0
2,note_on,58,0,120
2,note_on,60,39,0
2,note_on,60,0,120
2,note_on,55,50,0
2,note_on,55,0,120
2,note_on,60,40,0
2,note_on,60,0,120
2,note_on,58,40,0
2,note_on,58,0,120
2,note_on,60,40,0
2,note_on,60,0,120
2,note_on,53,48,0
2,note_on,53,0,120
2,note_on,60,32,0
2,note_on,60,0,120
2,note_on,57,32,0
2,note_on,57,0,120
2,note_on,60,32,0
2,note_on,60,0,120
2,note_on,53,52,0
2,note_on,53,0,120
2,note_on,60,39,0
2,note_on,60,0,120
2,note_on,57,42,0
2,note_on,57,0,120
2,note_on,60,45,0
2,note_on,60,0,120
2,note_on,57,65,0
2,note_on,57,0,120
2,note_on,65,55,0
2,note_on,65,0,120
2,note_on,60,55,0
2,note_on,60,0,120
2,note_on,65,55,0
2,note_on,65,0,120
2,note_on,57,63,0
2,note_on,57,0,120
2,note_on,65,51,0
2,note_on,65,0,120
2,note_on,60,51,0
2,note_on,60,0,120
2,note_on,65,51,0
2,note_on,65,0,120
2,note_on,58,58,0
2,note_on,58,0,120
2,note_on,65,45,0
2,note_on,65,0,120
2,note_on,62,45,0
2,note_on,62,0,120
2,note_on,65,45,0
2,note_on,65,0,120
2,note_on,57,51,0
2,note_on,57,0,120
2,note_on,66,44,0
2,note_on,66,0,120
2,note_on,60,44,0
2,note_on,60,0,120
2,note_on,66,44,0
2,note_on,66,0,120
2,note_on,55,51,0
2,note_on,55,0,120
2,note_on,65,43,0
2,note_on,65,0,120
2,note_on,62,43,0
2,note_on,62,0,120
2,note_on,65,43,0
2,note_on,65,0,120
2,note_on,60,51,0
2,note_on,60,0,120
2,note_on,67,43,0
2,note_on,67,0,120
2,note_on,64,43,0
2,note_on,64,0,120
2,note_on,67,43,0
2,note_on,67,0,120
2,note_on,53,47,0
2,note_on,53,0,120
2,note_on,65,41,0
2,note_on,65,0,120
2,note_on,57,41,0
2,note_on,57,0,120
2,note_on,65,41,0
2,note_on,65,0,120
2,note_on,58,47,0
2,note_on,58,0,120
2,note_on,67,41,0
2,note_on,67,0,120
2,note_on,62,41,0
2,note_on,62,0,120
2,note_on,67,41,0
2,note_on,67,0,120
2,note_on,60,47,0
2,note_on,60,0,120
2,note_on,69,40,0
2,note_on,69,0,120
2,note_on,65,40,0
2,note_on,65,0,120
2,note_on,69,40,0
2,note_on,69,0,120
2,note_on,60,47,0
2,note_on,60,0,120
2,note_on,67,42,0
2,note_on,67,0,120
2,note_on,64,42,0
2,note_on,64,0,120
2,note_on,67,42,0
2,note_on,67,0,120
2,note_on,57,47,0
2,note_on,57,0,120
2,note_on,65,41,0
2,note_on,65,0,120
2,note_on,60,41,0
2,note_on,60,0,120
2,note_on,65,41,0
2,note_on,65,0,120
2,note_on,58,47,0
2,note_on,58,0,120
2,note_on,65,41,0
2,note_on,65,0,120
2,note_on,62,41,0
2,note_on,62,0,120
2,note_on,65,41,0
2,note_on,65,0,120
2,note_on,60,47,0
2,note_on,60,0,120
2,note_on,69,38,0
2,note_on,69,0,120
2,note_on,65,38,0
2,note_on,65,0,120
2,note_on,69,38,0
2,note_on,69,0,120
2,note_on,60,47,0
2,note_on,60,0,120
2,note_on,64,42,0
2,note_on,64,0,120
2,note_on,60,42,0
2,note_on,60,0,120
2,note_on,64,42,0
2,note_on,64,0,120
2,note_on,53,39,0
2,note_on,65,47,0
2,note_on,65,0,238
2,note_on,53,0,242
2,note_on,34,59,1920
2,note_on,46,70,0
2,note_on,46,0,120
2,note_on,34,0,0
2,note_on,36,53,360
2,note_on,48,63,0
2,note_on,48,0,120
2,note_on,36,0,0
2,note_on,48,63,360
2,note_on,36,53,0
2,note_on,36,0,120
2,note_on,48,0,0
2,note_on,29,50,360
2,note_on,41,50,0
2,note_on,41,0,480
2,note_on,29,0,0
2,note_on,34,59,1920
2,note_on,46,70,0
2,note_on,46,0,120
2,note_on,34,0,0
2,note_on,36,53,360
2,note_on,48,63,0
2,note_on,48,0,120
2,note_on,36,0,0
2,note_on,58,63,360
2,note_on,48,53,0
2,note_on,48,0,240
2,note_on,58,0,0
2,note_on,53,56,240
2,note_on,53,0,915
2,note_on,41,49,0
2,note_on,45,53,15
2,note_on,48,56,15
2,note_on,53,60,15
2,note_on,45,0,220
2,note_on,41,0,20
2,note_on,48,0,0
2,note_on,53,0,0
2,note_on,48,45,675
2,note_on,52,48,15
2,note_on,55,51,15
2,note_on,60,53,15
2,note_on,60,0,120
2,note_on,48,0,0
2,note_on,52,0,0
2,note_on,55,0,0
2,note_on,60,44,840
2,note_on,60,0,120
2,note_on,70,37,0
2,note_on,70,0,120
2,note_on,67,37,0
2,note_on,67,0,120
2,note_on,70,37,0
2,note_on,70,0,120
2,note_on,60,44,0
2,note_on,60,0,120
2,note_on,70,39,0
2,note_on,70,0,120
2,note_on,67,39,0
2,note_on,67,0,120
2,note_on,70,39,0
2,note_on,70,0,120
2,note_on,60,44,0
2,note_on,60,0,120
2,note_on,69,37,0
2,note_on,69,0,120
2,note_on,65,37,0
2,note_on,65,0,120
2,note_on,69,37,0
2,note_on,69,0,120
2,note_on,60,44,0
2,note_on,60,0,120
2,note_on,69,39,0
2,note_on,69,0,120
2,note_on,65,39,0
2,note_on,65,0,120
2,note_on,69,39,0
2,note_on,69,0,120
2,note_on,60,44,0
2,note_on,60,0,120
2,note_on,67,37,0
2,note_on,67,0,120
2,note_on,64,37,0
2,note_on,64,0,120
2,note_on,67,37,0
2,note_on,67,0,120
2,note_on,60,44,0
2,note_on,60,0,120
2,note_on,67,39,0
2,note_on,67,0,120
2,note_on,64,39,0
2,note_on,64,0,120
2,note_on,67,39,0
2,note_on,67,0,120
2,note_on,57,44,0
2,note_on,57,0,120
2,note_on,63,39,0
2,note_on,63,0,120
2,note_on,60,39,0
2,note_on,60,0,120
2,note_on,63,39,0
2,note_on,63,0,120
2,note_on,57,44,0
2,note_on,57,0,120
2,note_on,63,39,0
2,note_on,63,0,120
2,note_on,60,39,0
2,note_on,60,0,120
2,note_on,63,39,0
2,note_on,63,0,120
2,note_on,57,44,0
2,note_on,57,0,120
2,note_on,63,40,0
2,note_on,63,0,120
2,note_on,60,41,0
2,note_on,60,0,120
2,note_on,63,42,0
2,note_on,63,0,120
2,note_on,57,49,0
2,note_on,57,0,120
2,note_on,63,45,0
2,note_on,63,0,120
2,note_on,60,46,0
2,note_on,60,0,120
2,note_on,63,47,0
2,note_on,63,0,120
2,note_on,58,55,0
2,note_on,58,0,120
2,note_on,67,48,0
2,note_on,67,0,120
2,note_on,62,48,0
2,note_on,62,0,120
2,note_on,67,48,0
2,note_on,67,0,120
2,note_on,58,55,0
2,note_on,58,0,120
2,note_on,67,48,0
2,note_on,67,0,120
2,note_on,62,48,0
2,note_on,62,0,120
2,note_on,67,48,0
2,note_on,67,0,120
2,note_on,58,55,0
2,note_on,58,0,120
2,note_on,67,48,0
2,note_on,67,0,120
2,note_on,62,48,0
2,note_on,62,0,120
2,note_on,67,48,0
2,note_on,67,0,120
2,note_on,58,55,0
2,note_on,58,0,120
2,note_on,67,48,0
2,note_on,67,0,120
2,note_on,62,48,0
2,note_on,62,0,120
2,note_on,67,48,0
2,note_on,67,0,120
2,note_on,58,55,0
2,note_on,58,0,120
2,note_on,67,45,0
2,note_on,67,0,120
2,note_on,64,45,0
2,note_on,64,0,120
2,note_on,67,45,0
2,note_on,67,0,120
2,note_on,58,52,0
2,note_on,58,0,120
2,note_on,67,42,0
2,note_on,67,0,120
2,note_on,64,42,0
2,note_on,64,0,120
2,note_on,67,42,0
2,note_on,67,0,120
2,note_on,57,55,0
2,note_on,57,0,120
2,note_on,65,46,0
2,note_on,65,0,120
2,note_on,60,46,0
2,note_on,60,0,120
2,note_on,65,46,0
2,note_on,65,0,120
2,note_on,57,55,0
2,note_on,57,0,120
2,note_on,65,48,0
2,note_on,65,0,120
2,note_on,60,48,0
2,note_on,60,0,120
2,note_on,65,43,0
2,note_on,65,0,120
2,note_on,52,50,0
2,note_on,52,0,120
2,note_on,60,38,0
2,note_on,60,0,120
2,note_on,55,38,0
2,note_on,55,0,120
2,note_on,60,38,0
2,note_on,60,0,120
2,note_on,53,48,0
2,note_on,53,0,120
2,note_on,60,40,0
2,note_on,60,0,120
2,note_on,57,40,0
2,note_on,57,0,120
2,note_on,60,34,0
2,note_on,60,0,120
2,note_on,52,40,0
2,note_on,52,0,120
2,note_on,60,31,0
2,note_on,60,0,120
2,note_on,55,31,0
2,note_on,55,0,120
2,note_on,60,31,0
2,note_on,60,0,120
2,note_on,53,34,0
2,note_on,53,0,120
2,note_on,60,27,0
2,note_on,60,0,120
2,note_on,57,27,0
2,note_on,57,0,120
2,note_on,60,27,0
2,note_on,60,0,120
2,note_on,52,53,0
2,note_on,52,0,120
2,note_on,60,40,0
2,note_on,60,0,120
2,note_on,55,40,0
2,note_on,55,0,120
2,note_on,60,40,0
2,note_on,60,0,120
2,note_on,53,48,0
2,note_on,53,0,120
2,note_on,60,40,0
2,note_on,60,0,120
2,note_on,57,40,0
2,note_on,57,0,120
2,note_on,60,34,0
2,note_on,60,0,120
2,note_on,58,46,0
2,note_on,58,0,120
2,note_on,67,35,0
2,note_on,67,0,120
2,note_on,62,35,0
2,note_on,62,0,120
2,note_on,67,35,0
2,note_on,67,0,120
2,note_on,59,45,0
2,note_on,59,0,120
2,note_on,67,36,0
2,note_on,67,0,120
2,note_on,62,36,0
2,note_on,62,0,120
2,note_on,67,36,0
2,note_on,67,0,120
2,note_on,60,43,0
2,note_on,60,0,120
2,note_on,67,34,0
2,note_on,67,0,120
2,note_on,64,34,0
2,note_on,64,0,120
2,note_on,67,34,0
2,note_on,67,0,120
2,note_on,60,42,0
2,note_on,60,0,120
2,note_on,67,32,0
2,note_on,67,0,120
2,note_on,64,32,0
2,note_on,64,0,120
2,note_on,67,32,0
2,note_on,67,0,120
2,note_on,60,37,0
2,note_on,60,0,120
2,note_on,62,29,0
2,note_on,62,0,120
2,note_on,58,38,0
2,note_on,58,0,120
2,note_on,60,32,0
2,note_on,60,0,120
2,note_on,57,34,0
2,note_on,57,0,120
2,note_on,58,27,0
2,note_on,58,0,120
2,note_on,55,34,0
2,note_on,55,0,120
2,note_on,57,28,0
2,note_on,57,0,120
2,note_on,53,37,0
2,note_on,53,0,120
2,note_on,60,31,0
2,note_on,60,0,120
2,note_on,57,28,0
2,note_on,57,0,120
2,note_on,60,28,0
2,note_on,60,0,120
2,note_on,53,40,0
2,note_on,53,0,120
2,note_on,60,31,0
2,note_on,60,0,120
2,note_on,57,31,0
2,note_on,57,0,120
2,note_on,60,31,0
2,note_on,60,0,120
2,note_on,55,40,0
2,note_on,55,0,120
2,note_on,60,30,0
2,note_on,60,0,120
2,note_on,58,30,0
2,note_on,58,0,120
2,note_on,60,30,0
2,note_on,60,0,120
2,note_on,55,40,0
2,note_on,55,0,120
2,note_on,60,33,0
2,note_on,60,0,120
2,note_on,58,33,0
2,note_on,58,0,120
2,note_on,60,33,0
2,note_on,60,0,120
2,note_on,53,40,0
2,note_on,53,0,120
2,note_on,60,32,0
2,note_on,60,0,120
2,note_on,57,32,0
2,note_on,57,0,120
2,note_on,60,32,0
2,note_on,60,0,120
2,note_on,53,40,0
2,note_on,53,0,120
2,note_on,60,33,0
2,note_on,60,0,120
2,note_on,57,35,0
2,note_on,57,0,120
2,note_on,60,37,0
2,note_on,60,0,120
2,note_on,55,47,0
2,note_on,55,0,120
2,note_on,60,35,0
2,note_on,60,0,120
2,note_on,58,35,0
2,note_on,58,0,60
2,note_on,60,35,60
2,note_on,60,0,60
2,note_on,55,44,60
2,note_on,55,0,120
2,note_on,60,33,0
2,note_on,60,0,120
2,note_on,58,33,0
2,note_on,58,0,60
2,note_on,60,33,60
2,note_on,60,0,60
2,note_on,53,40,60
2,note_on,53,0,120
2,note_on,60,32,0
2,note_on,60,0,120
2,note_on,57,32,0
2,note_on,57,0,120
2,note_on,60,32,0
2,note_on,60,0,120
2,note_on,53,40,0
2,note_on,53,0,120
2,note_on,60,31,0
2,note_on,60,0,120
2,note_on,57,31,0
2,note_on,57,0,120
2,note_on,60,31,0
2,note_on,60,0,120
2,note_on,55,40,0
2,note_on,55,0,120
2,note_on,60,30,0
2,note_on,60,0,120
2,note_on,58,30,0
2,note_on,58,0,120
2,note_on,60,30,0
2,note_on,60,0,120
2,note_on,55,40,0
2,note_on,55,0,120
2,note_on,60,33,0
2,note_on,60,0,120
2,note_on,58,33,0
2,note_on,58,0,120
2,note_on,60,33,0
2,note_on,60,0,120
2,note_on,53,40,0
2,note_on,53,0,60
2,note_on,60,32,60
2,note_on,60,0,60
2,note_on,57,32,60
2,note_on,57,0,60
2,note_on,60,32,60
2,note_on,60,0,60
2,note_on,53,46,60
2,note_on,53,0,60
2,note_on,60,35,60
2,note_on,60,0,60
2,note_on,57,36,60
2,note_on,57,0,60
2,note_on,60,38,60
2,note_on,60,0,60
2,note_on,55,49,60
2,note_on,55,0,120
2,note_on,60,39,0
2,note_on,60,0,120
2,note_on,58,39,0
2,note_on,58,0,120
2,note_on,60,39,0
2,note_on,60,0,120
2,note_on,55,50,0
2,note_on,55,0,120
2,note_on,60,40,0
2,note_on,60,0,120
2,note_on,58,40,0
2,note_on,58,0,120
2,note_on,60,40,0
2,note_on,60,0,120
2,note_on,53,48,0
2,note_on,53,0,120
2,note_on,60,32,0
2,note_on,60,0,120
2,note_on,57,32,0
2,note_on,57,0,120
2,note_on,60,32,0
2,note_on,60,0,120
2,note_on,53,52,0
2,note_on,53,0,120
2,note_on,60,39,0
2,note_on,60,0,120
2,note_on,57,42,0
2,note_on,57,0,120
2,note_on,60,45,0
2,note_on,60,0,120
2,note_on,57,65,0
2,note_on,57,0,120
2,note_on,65,55,0
2,note_on,65,0,120
2,note_on,60,55,0
2,note_on,60,0,120
2,note_on,65,55,0
2,note_on,65,0,120
2,note_on,57,63,0
2,note_on,57,0,120
2,note_on,65,51,0
2,note_on,65,0,120
2,note_on,60,51,0
2,note_on,60,0,120
2,note_on,65,51,0
2,note_on,65,0,120
2,note_on,58,58,0
2,note_on,58,0,120
2,note_on,65,45,0
2,note_on,65,0,120
2,note_on,62,45,0
2,note_on,62,0,120
2,note_on,65,45,0
2,note_on,65,0,120
2,note_on,57,51,0
2,note_on,57,0,120
2,note_on,66,44,0
2,note_on,66,0,120
2,note_on,60,44,0
2,note_on,60,0,120
2,note_on,66,44,0
2,note_on,66,0,120
2,note_on,55,51,0
2,note_on,55,0,120
2,note_on,65,43,0
2,note_on,65,0,120
2,note_on,62,43,0
2,note_on,62,0,120
2,note_on,65,43,0
2,note_on,65,0,120
2,note_on,60,51,0
2,note_on,60,0,120
2,note_on,67,43,0
2,note_on,67,0,120
2,note_on,64,43,0
2,note_on,64,0,120
2,note_on,67,43,0
2,note_on,67,0,120
2,note_on,53,47,0
2,note_on,53,0,120
2,note_on,65,41,0
2,note_on,65,0,120
2,note_on,57,41,0
2,note_on,57,0,120
2,note_on,65,41,0
2,note_on,65,0,120
2,note_on,58,47,0
2,note_on,58,0,120
2,note_on,67,41,0
2,note_on,67,0,120
2,note_on,62,41,0
2,note_on,62,0,120
2,note_on,67,41,0
2,note_on,67,0,120
2,note_on,60,47,0
2,note_on,60,0,120
2,note_on,69,40,0
2,note_on,69,0,120
2,note_on,65,40,0
2,note_on,65,0,120
2,note_on,69,40,0
2,note_on,69,0,120
2,note_on,60,47,0
2,note_on,60,0,120
2,note_on,67,42,0
2,note_on,67,0,120
2,note_on,64,42,0
2,note_on,64,0,120
2,note_on,67,42,0
2,note_on,67,0,120
2,note_on,57,47,0
2,note_on,57,0,120
2,note_on,65,41,0
2,note_on,65,0,120
2,note_on,60,41,0
2,note_on,60,0,120
2,note_on,65,41,0
2,note_on,65,0,120
2,note_on,58,47,0
2,note_on,58,0,120
2,note_on,65,41,0
2,note_on,65,0,120
2,note_on,62,41,0
2,note_on,62,0,120
2,note_on,65,41,0
2,note_on,65,0,120
2,note_on,60,47,0
2,note_on,60,0,120
2,note_on,69,38,0
2,note_on,69,0,120
2,note_on,65,38,0
2,note_on,65,0,120
2,note_on,69,38,0
2,note_on,69,0,120
2,note_on,60,47,0
2,note_on,60,0,120
2,note_on,64,42,0
2,note_on,64,0,120
2,note_on,60,42,0
2,note_on,60,0,120
2,note_on,64,42,0
2,note_on,64,0,120
2,note_on,65,47,0
2,note_on,53,39,0
2,note_on,65,0,238
2,note_on,53,0,242
2,note_on,46,70,1920
2,note_on,34,59,0
2,note_on,34,0,120
2,note_on,46,0,0
2,note_on,36,53,360
2,note_on,48,63,0
2,note_on,48,0,120
2,note_on,36,0,0
2,note_on,48,63,360
2,note_on,36,53,0
2,note_on,36,0,120
2,note_on,48,0,0
2,note_on,29,50,360
2,note_on,41,50,0
2,note_on,41,0,480
2,note_on,29,0,0
2,note_on,46,70,1920
2,note_on,34,59,0
2,note_on,34,0,120
2,note_on,46,0,0
2,note_on,36,53,360
2,note_on,48,63,0
2,note_on,48,0,120
2,note_on,36,0,0
2,note_on,48,53,360
2,note_on,58,63,0
2,note_on,58,0,240
2,note_on,48,0,0
2,note_on,53,56,240
2,note_on,53,0,915
2,note_on,41,49,0
2,note_on,45,53,15
2,note_on,48,56,15
2,note_on,53,60,15
2,note_on,45,0,220
2,note_on,41,0,20
2,note_on,48,0,0
2,note_on,53,0,0
