Track,Message Type,Note,Velocity,Time
1,note_on,57,83,720
1,note_on,57,0,60
1,note_on,62,66,0
1,note_on,62,0,60
1,note_on,66,66,0
1,note_on,66,0,60
1,note_on,69,66,0
1,note_on,69,0,60
1,note_on,66,86,0
1,note_on,66,0,240
1,note_on,62,77,0
1,note_on,62,0,240
1,note_on,74,56,0
1,note_on,74,0,60
1,note_on,69,52,180
1,note_on,69,0,60
1,note_on,71,55,180
1,note_on,71,0,60
1,note_on,73,49,0
1,note_on,73,0,60
1,note_on,71,60,0
1,note_on,71,0,120
1,note_on,69,56,0
1,note_on,69,0,240
1,note_on,57,83,240
1,note_on,57,0,60
1,note_on,62,66,0
1,note_on,62,0,60
1,note_on,66,66,0
1,note_on,66,0,60
1,note_on,69,66,0
1,note_on,69,0,60
1,note_on,66,86,0
1,note_on,66,0,240
1,note_on,62,77,0
1,note_on,62,0,240
1,note_on,78,56,0
1,note_on,81,64,0
1,note_on,81,0,60
1,note_on,78,0,0
1,note_on,74,52,180
1,note_on,78,60,0
1,note_on,78,0,60
1,note_on,74,0,0
1,note_on,76,46,180
1,note_on,79,55,0
1,note_on,79,0,60
1,note_on,81,49,0
1,note_on,81,0,60
1,note_on,79,60,0
1,note_on,79,0,120
1,note_on,76,0,0
1,note_on,74,47,0
1,note_on,78,56,0
1,note_on,78,0,240
1,note_on,74,0,0
1,note_on,74,60,240
1,note_on,74,0,60
1,note_on,78,51,0
1,note_on,78,0,60
1,note_on,81,52,0
1,note_on,81,0,60
1,note_on,86,52,0
1,note_on,86,0,60
1,note_on,72,67,0
1,note_on,72,0,720
1,note_on,84,60,0
1,note_on,84,0,60
1,note_on,81,51,0
1,note_on,81,0,60
1,note_on,78,52,0
1,note_on,78,0,60
1,note_on,72,52,0
1,note_on,72,0,60
1,note_on,71,67,0
1,note_on,71,0,720
1,note_on,71,60,0
1,note_on,71,0,60
1,note_on,74,51,0
1,note_on,74,0,60
1,note_on,79,52,0
1,note_on,79,0,60
1,note_on,83,52,0
1,note_on,83,0,60
1,note_on,78,54,0
1,note_on,81,64,0
1,note_on,81,0,60
1,note_on,78,0,0
1,note_on,74,44,180
1,note_on,78,53,0
1,note_on,78,0,60
1,note_on,74,0,0
1,note_on,79,59,180
1,note_on,76,49,0
1,note_on,76,0,60
1,note_on,79,0,0
1,note_on,73,44,180
1,note_on,76,44,0
1,note_on,76,0,60
1,note_on,73,0,0
1,note_on,76,50,180
1,note_on,73,42,0
1,note_on,73,0,480
1,note_on,76,0,0
1,note_on,78,40,0
1,note_on,74,33,0
1,note_on,74,0,240
1,note_on,78,0,0
1,note_on,74,60,0
1,note_on,74,0,60
1,note_on,78,51,0
1,note_on,78,0,60
1,note_on,81,52,0
1,note_on,81,0,60
1,note_on,86,52,0
1,note_on,86,0,60
1,note_on,72,67,0
1,note_on,72,0,720
1,note_on,84,60,0
1,note_on,84,0,60
1,note_on,81,51,0
1,note_on,81,0,60
1,note_on,78,52,0
1,note_on,78,0,60
1,note_on,72,52,0
1,note_on,72,0,60
1,note_on,71,67,0
1,note_on,71,0,720
1,note_on,83,60,0
1,note_on,83,0,80
1,note_on,85,56,0
1,note_on,85,0,80
1,note_on,86,56,0
1,note_on,86,0,80
1,note_on,85,60,0
1,note_on,85,0,80
1,note_on,83,55,0
1,note_on,83,0,80
1,note_on,81,51,0
1,note_on,81,0,80
1,note_on,79,59,0
1,note_on,79,0,80
1,note_on,78,51,0
1,note_on,78,0,80
1,note_on,76,51,0
1,note_on,76,0,80
1,note_on,74,55,0
1,note_on,74,0,80
1,note_on,73,49,0
1,note_on,73,0,80
1,note_on,71,49,0
1,note_on,71,0,80
1,note_on,69,52,0
1,note_on,69,0,60
1,note_on,67,49,0
1,note_on,67,0,60
1,note_on,66,49,0
1,note_on,66,0,60
1,note_on,64,48,0
1,note_on,64,0,60
1,note_on,62,60,0
1,note_on,62,0,480
1,note_on,57,53,240
1,note_on,57,0,240
1,note_on,62,60,0
1,note_on,62,0,120
1,note_on,61,52,0
1,note_on,61,0,90
1,note_on,64,60,30
1,note_on,64,0,120
1,note_on,62,54,0
1,note_on,62,0,90
1,note_on,66,60,30
1,note_on,66,0,120
1,note_on,64,54,0
1,note_on,64,0,90
1,note_on,67,60,30
1,note_on,67,0,120
1,note_on,66,49,0
1,note_on,66,0,90
1,note_on,66,57,30
1,note_on,62,48,0
1,note_on,62,0,480
1,note_on,66,0,0
1,note_on,64,50,0
1,note_on,61,42,0
1,note_on,61,0,180
1,note_on,64,0,0
1,note_on,57,53,60
1,note_on,57,0,240
1,note_on,64,60,0
1,note_on,64,0,120
1,note_on,63,52,0
1,note_on,63,0,90
1,note_on,66,60,30
1,note_on,66,0,120
1,note_on,64,54,0
1,note_on,64,0,90
1,note_on,67,60,30
1,note_on,67,0,120
1,note_on,66,54,0
1,note_on,66,0,90
1,note_on,69,60,30
1,note_on,69,0,120
1,note_on,67,49,0
1,note_on,67,0,90
1,note_on,67,57,30
1,note_on,64,48,0
1,note_on,64,0,480
1,note_on,67,0,0
1,note_on,66,50,0
1,note_on,62,42,0
1,note_on,62,0,180
1,note_on,66,0,0
1,note_on,62,58,60
1,note_on,62,0,240
1,note_on,67,66,0
1,note_on,67,0,120
1,note_on,66,57,0
1,note_on,66,0,90
1,note_on,69,66,30
1,note_on,69,0,120
1,note_on,67,59,0
1,note_on,67,0,90
1,note_on,71,66,30
1,note_on,71,0,120
1,note_on,69,59,0
1,note_on,69,0,90
1,note_on,74,66,30
1,note_on,74,0,120
1,note_on,73,53,0
1,note_on,73,0,90
1,note_on,71,62,30
1,note_on,71,0,120
1,note_on,71,62,120
1,note_on,71,0,120
1,note_on,74,57,0
1,note_on,74,0,120
1,note_on,69,62,0
1,note_on,69,0,120
1,note_on,67,55,360
1,note_on,67,0,30
1,note_on,66,48,0
1,note_on,66,0,30
1,note_on,67,62,0
1,note_on,67,0,60
1,note_on,67,62,120
1,note_on,67,0,120
1,note_on,71,57,0
1,note_on,71,0,120
1,note_on,66,62,0
1,note_on,66,0,120
1,note_on,71,60,360
1,note_on,71,0,30
1,note_on,69,52,0
1,note_on,69,0,30
1,note_on,71,68,0
1,note_on,71,0,60
1,note_on,71,68,120
1,note_on,71,0,120
1,note_on,74,62,0
1,note_on,74,0,120
1,note_on,69,68,0
1,note_on,69,0,120
1,note_on,67,55,360
1,note_on,67,0,30
1,note_on,66,48,0
1,note_on,66,0,30
1,note_on,67,62,0
1,note_on,67,0,60
1,note_on,67,62,120
1,note_on,67,0,120
1,note_on,71,57,0
1,note_on,71,0,120
1,note_on,66,62,0
1,note_on,66,0,120
1,note_on,63,55,360
1,note_on,63,0,120
1,note_on,64,55,0
1,note_on,64,0,120
1,note_on,66,58,0
1,note_on,66,0,120
1,note_on,67,58,0
1,note_on,67,0,120
1,note_on,69,62,0
1,note_on,69,0,120
1,note_on,71,55,0
1,note_on,71,0,120
1,note_on,67,61,0
1,note_on,67,0,120
1,note_on,64,51,0
1,note_on,64,0,120
1,note_on,62,57,0
1,note_on,62,0,960
1,note_on,61,50,0
1,note_on,61,0,240
1,note_on,64,83,480
1,note_on,64,0,60
1,note_on,69,66,0
1,note_on,69,0,60
1,note_on,73,66,0
1,note_on,73,0,60
1,note_on,76,66,0
1,note_on,76,0,60
1,note_on,73,86,0
1,note_on,73,0,240
1,note_on,69,83,0
1,note_on,69,0,60
1,note_on,73,66,0
1,note_on,73,0,60
1,note_on,76,66,0
1,note_on,76,0,60
1,note_on,81,66,0
1,note_on,81,0,60
1,note_on,76,86,0
1,note_on,76,0,240
1,note_on,76,95,0
1,note_on,76,0,60
1,note_on,81,75,0
1,note_on,81,0,60
1,note_on,85,75,0
1,note_on,85,0,60
1,note_on,88,75,0
1,note_on,88,0,60
1,note_on,85,102,0
1,note_on,85,0,240
1,note_on,69,61,480
1,note_on,69,0,60
1,note_on,64,50,0
1,note_on,64,0,60
1,note_on,61,50,0
1,note_on,61,0,60
1,note_on,57,50,0
1,note_on,57,0,60
1,note_on,55,62,0
1,note_on,55,0,960
1,note_on,54,61,0
1,note_on,54,0,120
1,note_on,59,55,0
1,note_on,59,0,120
1,note_on,58,49,0
1,note_on,58,0,120
1,note_on,59,54,0
1,note_on,59,0,120
1,note_on,61,59,0
1,note_on,61,0,120
1,note_on,59,55,0
1,note_on,59,0,120
1,note_on,58,47,0
1,note_on,58,0,120
1,note_on,59,56,0
1,note_on,59,0,120
1,note_on,57,62,0
1,note_on,57,0,960
1,note_on,56,61,0
1,note_on,56,0,120
1,note_on,64,55,0
1,note_on,64,0,120
1,note_on,63,49,0
1,note_on,63,0,120
1,note_on,64,54,0
1,note_on,64,0,120
1,note_on,66,59,0
1,note_on,66,0,120
1,note_on,64,55,0
1,note_on,64,0,120
1,note_on,63,47,0
1,note_on,63,0,120
1,note_on,64,56,0
1,note_on,64,0,120
1,note_on,63,62,0
1,note_on,63,0,240
1,note_on,69,57,0
1,note_on,69,0,120
1,note_on,63,62,360
1,note_on,63,0,240
1,note_on,64,62,0
1,note_on,64,0,120
1,note_on,64,62,120
1,note_on,64,0,120
1,note_on,71,57,0
1,note_on,71,0,120
1,note_on,64,62,0
1,note_on,64,0,180
1,note_on,64,57,60
1,note_on,64,0,240
1,note_on,63,62,0
1,note_on,63,0,240
1,note_on,69,57,0
1,note_on,69,0,120
1,note_on,63,62,360
1,note_on,63,0,240
1,note_on,64,62,0
1,note_on,64,0,120
1,note_on,64,62,120
1,note_on,64,0,120
1,note_on,71,57,0
1,note_on,71,0,120
1,note_on,64,62,0
1,note_on,64,0,180
1,note_on,62,47,60
1,note_on,62,0,30
1,note_on,64,44,0
1,note_on,64,0,30
1,note_on,62,57,0
1,note_on,62,0,180
1,note_on,61,62,0
1,note_on,61,0,115
1,note_on,76,64,125
1,note_on,76,0,120
1,note_on,69,62,360
1,note_on,69,0,240
1,note_on,68,62,0
1,note_on,68,0,120
1,note_on,68,62,120
1,note_on,68,0,120
1,note_on,76,57,0
1,note_on,76,0,120
1,note_on,68,62,0
1,note_on,68,0,180
1,note_on,68,57,60
1,note_on,68,0,240
1,note_on,69,62,0
1,note_on,69,0,120
1,note_on,69,62,120
1,note_on,69,0,120
1,note_on,76,57,0
1,note_on,76,0,120
1,note_on,69,62,0
1,note_on,69,0,180
1,note_on,69,57,60
1,note_on,69,0,240
1,note_on,71,62,0
1,note_on,71,0,120
1,note_on,71,62,120
1,note_on,71,0,120
1,note_on,76,57,0
1,note_on,76,0,120
1,note_on,71,62,0
1,note_on,71,0,180
1,note_on,74,57,60
1,note_on,74,0,240
1,note_on,73,64,0
1,note_on,73,0,120
1,note_on,74,57,0
1,note_on,74,0,120
1,note_on,76,57,0
1,note_on,76,0,120
1,note_on,73,57,0
1,note_on,73,0,120
1,note_on,71,62,0
1,note_on,71,0,120
1,note_on,69,57,0
1,note_on,69,0,120
1,note_on,68,57,0
1,note_on,68,0,120
1,note_on,66,57,0
1,note_on,66,0,120
1,note_on,64,64,0
1,note_on,64,0,120
1,note_on,63,53,0
1,note_on,63,0,120
1,note_on,64,57,0
1,note_on,64,0,120
1,note_on,66,53,0
1,note_on,66,0,120
1,note_on,64,57,0
1,note_on,64,0,120
1,note_on,62,51,0
1,note_on,62,0,120
1,note_on,61,51,0
1,note_on,61,0,120
1,note_on,59,51,0
1,note_on,59,0,120
1,note_on,61,56,0
1,note_on,61,0,120
1,note_on,62,47,0
1,note_on,62,0,120
1,note_on,64,47,0
1,note_on,64,0,120
1,note_on,61,47,0
1,note_on,61,0,120
1,note_on,59,55,0
1,note_on,59,0,120
1,note_on,57,51,0
1,note_on,57,0,120
1,note_on,56,51,0
1,note_on,56,0,120
1,note_on,54,51,0
1,note_on,54,0,120
1,note_on,73,64,960
1,note_on,73,0,120
1,note_on,74,57,0
1,note_on,74,0,120
1,note_on,76,57,0
1,note_on,76,0,120
1,note_on,73,57,0
1,note_on,73,0,120
1,note_on,71,62,0
1,note_on,71,0,120
1,note_on,69,57,0
1,note_on,69,0,120
1,note_on,68,57,0
1,note_on,68,0,120
1,note_on,69,57,0
1,note_on,69,0,120
1,note_on,78,64,0
1,note_on,78,0,120
1,note_on,80,64,0
1,note_on,80,0,120
1,note_on,81,68,0
1,note_on,81,0,120
1,note_on,78,64,0
1,note_on,78,0,120
1,note_on,76,62,0
1,note_on,76,0,120
1,note_on,74,61,0
1,note_on,74,0,120
1,note_on,73,58,0
1,note_on,73,0,120
1,note_on,71,58,0
1,note_on,71,0,120
1,note_on,70,64,0
1,note_on,70,0,120
1,note_on,71,57,0
1,note_on,71,0,120
1,note_on,73,57,0
1,note_on,73,0,120
1,note_on,71,57,0
1,note_on,71,0,120
1,note_on,74,62,0
1,note_on,74,0,120
1,note_on,73,57,0
1,note_on,73,0,120
1,note_on,76,61,0
1,note_on,76,0,120
1,note_on,74,57,0
1,note_on,74,0,120
1,note_on,78,63,0
1,note_on,78,0,240
1,note_on,76,62,240
1,note_on,76,0,120
1,note_on,74,57,0
1,note_on,74,0,120
1,note_on,73,62,0
1,note_on,73,0,120
1,note_on,71,57,0
1,note_on,71,0,120
1,note_on,69,62,0
1,note_on,69,0,480
1,note_on,71,62,0
1,note_on,71,0,60
1,note_on,73,54,0
1,note_on,73,0,60
1,note_on,71,62,0
1,note_on,71,0,60
1,note_on,73,55,0
1,note_on,73,0,60
1,note_on,71,62,0
1,note_on,71,0,80
1,note_on,73,55,0
1,note_on,73,0,80
1,note_on,71,62,0
1,note_on,71,0,80
1,note_on,73,64,0
1,note_on,73,0,120
1,note_on,74,57,0
1,note_on,74,0,120
1,note_on,76,57,0
1,note_on,76,0,120
1,note_on,73,57,0
1,note_on,73,0,120
1,note_on,71,62,0
1,note_on,71,0,120
1,note_on,69,57,0
1,note_on,69,0,120
1,note_on,68,57,0
1,note_on,68,0,120
1,note_on,69,57,0
1,note_on,69,0,120
1,note_on,78,64,0
1,note_on,78,0,120
1,note_on,80,64,0
1,note_on,80,0,120
1,note_on,81,68,0
1,note_on,81,0,120
1,note_on,78,64,0
1,note_on,78,0,120
1,note_on,76,62,0
1,note_on,76,0,120
1,note_on,74,61,0
1,note_on,74,0,120
1,note_on,73,58,0
1,note_on,73,0,120
1,note_on,71,58,0
1,note_on,71,0,120
1,note_on,70,64,0
1,note_on,70,0,120
1,note_on,71,57,0
1,note_on,71,0,120
1,note_on,73,57,0
1,note_on,73,0,120
1,note_on,71,57,0
1,note_on,71,0,120
1,note_on,74,62,0
1,note_on,74,0,120
1,note_on,73,57,0
1,note_on,73,0,120
1,note_on,76,61,0
1,note_on,76,0,120
1,note_on,74,57,0
1,note_on,74,0,120
1,note_on,78,63,0
1,note_on,78,0,240
1,note_on,74,43,240
1,note_on,74,0,120
1,note_on,73,39,0
1,note_on,73,0,120
1,note_on,76,42,0
1,note_on,76,0,120
1,note_on,74,39,0
1,note_on,74,0,120
1,note_on,78,44,0
1,note_on,78,0,240
1,note_on,74,46,240
1,note_on,74,0,120
1,note_on,73,39,0
1,note_on,73,0,120
1,note_on,76,47,0
1,note_on,76,0,120
1,note_on,74,39,0
1,note_on,74,0,120
1,note_on,78,44,0
1,note_on,78,0,600
1,note_on,65,64,60
1,note_on,65,0,60
1,note_on,77,70,0
1,note_on,77,0,180
1,note_on,66,65,0
1,note_on,66,0,60
1,note_on,78,72,0
1,note_on,78,0,180
1,note_on,70,68,0
1,note_on,70,0,60
1,note_on,82,74,0
1,note_on,82,0,180
1,note_on,71,69,0
1,note_on,71,0,60
1,note_on,83,75,0
1,note_on,83,0,180
1,note_on,73,71,0
1,note_on,73,0,60
1,note_on,85,77,0
1,note_on,85,0,180
1,note_on,74,71,0
1,note_on,74,0,60
1,note_on,86,78,0
1,note_on,86,0,360
1,note_on,83,68,0
1,note_on,83,0,120
1,note_on,86,74,0
1,note_on,86,0,120
1,note_on,83,68,0
1,note_on,83,0,120
1,note_on,86,73,0
1,note_on,86,0,120
1,note_on,83,70,0
1,note_on,83,0,120
1,note_on,76,79,0
1,note_on,76,0,360
1,note_on,81,72,0
1,note_on,81,0,60
1,note_on,85,75,0
1,note_on,85,0,60
1,note_on,88,79,0
1,note_on,88,0,360
1,note_on,81,70,0
1,note_on,81,0,60
1,note_on,83,56,0
1,note_on,83,0,40
1,note_on,83,69,20
1,note_on,83,0,60
1,note_on,85,49,0
1,note_on,85,0,60
1,note_on,83,61,0
1,note_on,83,0,60
1,note_on,85,55,0
1,note_on,85,0,60
1,note_on,83,64,0
1,note_on,83,0,60
1,note_on,85,58,0
1,note_on,85,0,60
1,note_on,83,67,0
1,note_on,83,0,60
1,note_on,85,62,0
1,note_on,85,0,60
1,note_on,83,70,0
1,note_on,83,0,60
1,note_on,85,61,0
1,note_on,85,0,60
1,note_on,83,63,0
1,note_on,83,0,60
1,note_on,85,55,0
1,note_on,85,0,60
1,note_on,83,66,0
1,note_on,83,0,60
1,note_on,85,57,0
1,note_on,85,0,60
1,note_on,83,69,0
1,note_on,83,0,60
1,note_on,85,59,0
1,note_on,85,0,60
1,note_on,81,69,0
1,note_on,81,0,480
1,note_on,76,69,240
1,note_on,76,0,240
1,note_on,78,64,0
1,note_on,78,0,60
1,note_on,80,59,0
1,note_on,80,0,60
1,note_on,78,68,0
1,note_on,78,0,120
1,note_on,76,62,0
1,note_on,76,0,240
1,note_on,78,62,0
1,note_on,78,0,60
1,note_on,80,62,0
1,note_on,80,0,60
1,note_on,78,69,0
1,note_on,78,0,120
1,note_on,76,63,0
1,note_on,76,0,150
1,note_on,76,64,0
1,note_on,80,69,30
1,note_on,83,73,30
1,note_on,86,77,30
1,note_on,86,0,480
1,note_on,76,0,0
1,note_on,80,0,0
1,note_on,83,0,0
1,note_on,85,69,240
1,note_on,85,0,240
1,note_on,83,64,0
1,note_on,83,0,120
1,note_on,85,50,0
1,note_on,85,0,30
1,note_on,83,55,0
1,note_on,83,0,30
1,note_on,82,58,0
1,note_on,82,0,30
1,note_on,83,60,0
1,note_on,83,0,30
1,note_on,86,62,0
1,note_on,86,0,240
1,note_on,76,62,0
1,note_on,76,0,120
1,note_on,78,54,0
1,note_on,78,0,30
1,note_on,76,55,0
1,note_on,76,0,30
1,note_on,75,59,0
1,note_on,75,0,30
1,note_on,76,59,0
1,note_on,76,0,30
1,note_on,80,63,0
1,note_on,74,60,0
1,note_on,74,0,240
1,note_on,80,0,0
1,note_on,73,58,0
1,note_on,81,69,0
1,note_on,81,0,480
1,note_on,73,0,0
1,note_on,76,69,240
1,note_on,76,0,240
1,note_on,78,64,0
1,note_on,78,0,60
1,note_on,80,59,0
1,note_on,80,0,60
1,note_on,78,68,0
1,note_on,78,0,120
1,note_on,76,62,0
1,note_on,76,0,240
1,note_on,78,62,0
1,note_on,78,0,60
1,note_on,80,62,0
1,note_on,80,0,60
1,note_on,78,69,0
1,note_on,78,0,120
1,note_on,76,63,0
1,note_on,76,0,150
1,note_on,76,64,0
1,note_on,80,69,30
1,note_on,83,73,30
1,note_on,86,77,30
1,note_on,86,0,480
1,note_on,76,0,0
1,note_on,80,0,0
1,note_on,83,0,0
1,note_on,85,69,240
1,note_on,85,0,240
1,note_on,83,64,0
1,note_on,83,0,120
1,note_on,85,50,0
1,note_on,85,0,30
1,note_on,83,55,0
1,note_on,83,0,30
1,note_on,82,58,0
1,note_on,82,0,30
1,note_on,83,60,0
1,note_on,83,0,30
1,note_on,86,62,0
1,note_on,86,0,240
1,note_on,76,62,0
1,note_on,76,0,120
1,note_on,78,54,0
1,note_on,78,0,30
1,note_on,76,55,0
1,note_on,76,0,30
1,note_on,75,59,0
1,note_on,75,0,30
1,note_on,76,59,0
1,note_on,76,0,30
1,note_on,80,63,0
1,note_on,74,60,0
1,note_on,74,0,240
1,note_on,80,0,0
1,note_on,73,58,0
1,note_on,81,69,0
1,note_on,81,0,480
1,note_on,73,0,0
1,note_on,64,57,120
1,note_on,64,0,120
1,note_on,68,57,0
1,note_on,68,0,120
1,note_on,76,50,0
1,note_on,76,0,120
1,note_on,64,53,120
1,note_on,64,0,120
1,note_on,69,57,0
1,note_on,69,0,120
1,note_on,76,49,0
1,note_on,76,0,120
1,note_on,59,39,120
1,note_on,59,0,120
1,note_on,62,51,0
1,note_on,62,0,120
1,note_on,68,42,0
1,note_on,68,0,120
1,note_on,61,53,0
1,note_on,69,53,0
1,note_on,69,0,480
1,note_on,61,0,0
1,note_on,57,83,240
1,note_on,57,0,60
1,note_on,62,66,0
1,note_on,62,0,60
1,note_on,66,66,0
1,note_on,66,0,60
1,note_on,69,66,0
1,note_on,69,0,60
1,note_on,66,86,0
1,note_on,66,0,240
1,note_on,62,77,0
1,note_on,62,0,240
1,note_on,74,56,0
1,note_on,74,0,60
1,note_on,69,52,180
1,note_on,69,0,60
1,note_on,71,55,180
1,note_on,71,0,60
1,note_on,73,49,0
1,note_on,73,0,60
1,note_on,71,60,0
1,note_on,71,0,120
1,note_on,69,56,0
1,note_on,69,0,240
1,note_on,57,83,240
1,note_on,57,0,60
1,note_on,62,66,0
1,note_on,62,0,60
1,note_on,66,66,0
1,note_on,66,0,60
1,note_on,69,66,0
1,note_on,69,0,60
1,note_on,66,86,0
1,note_on,66,0,240
1,note_on,62,77,0
1,note_on,62,0,240
1,note_on,78,56,0
1,note_on,81,64,0
1,note_on,81,0,60
1,note_on,78,0,0
1,note_on,74,52,180
1,note_on,78,60,0
1,note_on,78,0,60
1,note_on,74,0,0
1,note_on,76,46,180
1,note_on,79,55,0
1,note_on,79,0,60
1,note_on,81,49,0
1,note_on,81,0,60
1,note_on,79,60,0
1,note_on,79,0,120
1,note_on,76,0,0
1,note_on,74,47,0
1,note_on,78,56,0
1,note_on,78,0,240
1,note_on,74,0,0
1,note_on,74,60,240
1,note_on,74,0,60
1,note_on,78,51,0
1,note_on,78,0,60
1,note_on,81,52,0
1,note_on,81,0,60
1,note_on,86,52,0
1,note_on,86,0,60
1,note_on,72,67,0
1,note_on,72,0,720
1,note_on,84,60,0
1,note_on,84,0,60
1,note_on,81,51,0
1,note_on,81,0,60
1,note_on,78,52,0
1,note_on,78,0,60
1,note_on,72,52,0
1,note_on,72,0,60
1,note_on,71,67,0
1,note_on,71,0,720
1,note_on,71,60,0
1,note_on,71,0,60
1,note_on,74,51,0
1,note_on,74,0,60
1,note_on,79,52,0
1,note_on,79,0,60
1,note_on,83,52,0
1,note_on,83,0,60
1,note_on,78,54,0
1,note_on,81,64,0
1,note_on,81,0,60
1,note_on,78,0,0
1,note_on,74,44,180
1,note_on,78,53,0
1,note_on,78,0,60
1,note_on,74,0,0
1,note_on,79,59,180
1,note_on,76,49,0
1,note_on,76,0,60
1,note_on,79,0,0
1,note_on,73,44,180
1,note_on,76,44,0
1,note_on,76,0,60
1,note_on,73,0,0
1,note_on,76,50,180
1,note_on,73,42,0
1,note_on,73,0,480
1,note_on,76,0,0
1,note_on,78,40,0
1,note_on,74,33,0
1,note_on,74,0,240
1,note_on,78,0,0
1,note_on,74,60,0
1,note_on,74,0,60
1,note_on,78,51,0
1,note_on,78,0,60
1,note_on,81,52,0
1,note_on,81,0,60
1,note_on,86,52,0
1,note_on,86,0,60
1,note_on,72,67,0
1,note_on,72,0,720
1,note_on,84,60,0
1,note_on,84,0,60
1,note_on,81,51,0
1,note_on,81,0,60
1,note_on,78,52,0
1,note_on,78,0,60
1,note_on,72,52,0
1,note_on,72,0,60
1,note_on,71,67,0
1,note_on,71,0,720
1,note_on,83,60,0
1,note_on,83,0,80
1,note_on,85,56,0
1,note_on,85,0,80
1,note_on,86,56,0
1,note_on,86,0,80
1,note_on,85,60,0
1,note_on,85,0,80
1,note_on,83,55,0
1,note_on,83,0,80
1,note_on,81,51,0
1,note_on,81,0,80
1,note_on,79,59,0
1,note_on,79,0,80
1,note_on,78,51,0
1,note_on,78,0,80
1,note_on,76,51,0
1,note_on,76,0,80
1,note_on,74,55,0
1,note_on,74,0,80
1,note_on,73,49,0
1,note_on,73,0,80
1,note_on,71,49,0
1,note_on,71,0,80
1,note_on,69,52,0
1,note_on,69,0,60
1,note_on,67,49,0
1,note_on,67,0,60
1,note_on,66,49,0
1,note_on,66,0,60
1,note_on,64,48,0
1,note_on,64,0,60
1,note_on,62,60,0
1,note_on,62,0,480
1,note_on,57,53,240
1,note_on,57,0,240
1,note_on,62,60,0
1,note_on,62,0,120
1,note_on,61,52,0
1,note_on,61,0,90
1,note_on,64,60,30
1,note_on,64,0,120
1,note_on,62,54,0
1,note_on,62,0,90
1,note_on,66,60,30
1,note_on,66,0,120
1,note_on,64,54,0
1,note_on,64,0,90
1,note_on,67,60,30
1,note_on,67,0,120
1,note_on,66,49,0
1,note_on,66,0,90
1,note_on,66,57,30
1,note_on,62,48,0
1,note_on,62,0,480
1,note_on,66,0,0
1,note_on,64,50,0
1,note_on,61,42,0
1,note_on,61,0,180
1,note_on,64,0,0
1,note_on,57,53,60
1,note_on,57,0,240
1,note_on,64,60,0
1,note_on,64,0,120
1,note_on,63,52,0
1,note_on,63,0,90
1,note_on,66,60,30
1,note_on,66,0,120
1,note_on,64,54,0
1,note_on,64,0,90
1,note_on,67,60,30
1,note_on,67,0,120
1,note_on,66,54,0
1,note_on,66,0,90
1,note_on,69,60,30
1,note_on,69,0,120
1,note_on,67,49,0
1,note_on,67,0,90
1,note_on,67,57,30
1,note_on,64,48,0
1,note_on,64,0,480
1,note_on,67,0,0
1,note_on,66,50,0
1,note_on,62,42,0
1,note_on,62,0,180
1,note_on,66,0,0
1,note_on,62,58,60
1,note_on,62,0,240
1,note_on,67,66,0
1,note_on,67,0,120
1,note_on,66,57,0
1,note_on,66,0,90
1,note_on,69,66,30
1,note_on,69,0,120
1,note_on,67,59,0
1,note_on,67,0,90
1,note_on,71,66,30
1,note_on,71,0,120
1,note_on,69,59,0
1,note_on,69,0,90
1,note_on,74,66,30
1,note_on,74,0,120
1,note_on,73,53,0
1,note_on,73,0,90
1,note_on,71,62,30
1,note_on,71,0,120
1,note_on,71,62,120
1,note_on,71,0,120
1,note_on,74,57,0
1,note_on,74,0,120
1,note_on,69,62,0
1,note_on,69,0,120
1,note_on,67,55,360
1,note_on,67,0,30
1,note_on,66,48,0
1,note_on,66,0,30
1,note_on,67,62,0
1,note_on,67,0,60
1,note_on,67,62,120
1,note_on,67,0,120
1,note_on,71,57,0
1,note_on,71,0,120
1,note_on,66,62,0
1,note_on,66,0,120
1,note_on,71,60,360
1,note_on,71,0,30
1,note_on,69,52,0
1,note_on,69,0,30
1,note_on,71,68,0
1,note_on,71,0,60
1,note_on,71,68,120
1,note_on,71,0,120
1,note_on,74,62,0
1,note_on,74,0,120
1,note_on,69,68,0
1,note_on,69,0,120
1,note_on,67,55,360
1,note_on,67,0,30
1,note_on,66,48,0
1,note_on,66,0,30
1,note_on,67,62,0
1,note_on,67,0,60
1,note_on,67,62,120
1,note_on,67,0,120
1,note_on,71,57,0
1,note_on,71,0,120
1,note_on,66,62,0
1,note_on,66,0,120
1,note_on,63,55,360
1,note_on,63,0,120
1,note_on,64,55,0
1,note_on,64,0,120
1,note_on,66,58,0
1,note_on,66,0,120
1,note_on,67,58,0
1,note_on,67,0,120
1,note_on,69,62,0
1,note_on,69,0,120
1,note_on,71,55,0
1,note_on,71,0,120
1,note_on,67,61,0
1,note_on,67,0,120
1,note_on,64,51,0
1,note_on,64,0,120
1,note_on,62,57,0
1,note_on,62,0,960
1,note_on,61,50,0
1,note_on,61,0,240
1,note_on,64,83,480
1,note_on,64,0,60
1,note_on,69,66,0
1,note_on,69,0,60
1,note_on,73,66,0
1,note_on,73,0,60
1,note_on,76,66,0
1,note_on,76,0,60
1,note_on,73,86,0
1,note_on,73,0,240
1,note_on,69,83,0
1,note_on,69,0,60
1,note_on,73,66,0
1,note_on,73,0,60
1,note_on,76,66,0
1,note_on,76,0,60
1,note_on,81,66,0
1,note_on,81,0,60
1,note_on,76,86,0
1,note_on,76,0,240
1,note_on,76,95,0
1,note_on,76,0,60
1,note_on,81,75,0
1,note_on,81,0,60
1,note_on,85,75,0
1,note_on,85,0,60
1,note_on,88,75,0
1,note_on,88,0,60
1,note_on,85,102,0
1,note_on,85,0,240
1,note_on,69,61,480
1,note_on,69,0,60
1,note_on,64,50,0
1,note_on,64,0,60
1,note_on,61,50,0
1,note_on,61,0,60
1,note_on,57,50,0
1,note_on,57,0,60
1,note_on,55,62,0
1,note_on,55,0,960
1,note_on,54,61,0
1,note_on,54,0,120
1,note_on,59,55,0
1,note_on,59,0,120
1,note_on,58,49,0
1,note_on,58,0,120
1,note_on,59,54,0
1,note_on,59,0,120
1,note_on,61,59,0
1,note_on,61,0,120
1,note_on,59,55,0
1,note_on,59,0,120
1,note_on,58,47,0
1,note_on,58,0,120
1,note_on,59,56,0
1,note_on,59,0,120
1,note_on,57,62,0
1,note_on,57,0,960
1,note_on,56,61,0
1,note_on,56,0,120
1,note_on,64,55,0
1,note_on,64,0,120
1,note_on,63,49,0
1,note_on,63,0,120
1,note_on,64,54,0
1,note_on,64,0,120
1,note_on,66,59,0
1,note_on,66,0,120
1,note_on,64,55,0
1,note_on,64,0,120
1,note_on,63,47,0
1,note_on,63,0,120
1,note_on,64,56,0
1,note_on,64,0,120
1,note_on,63,62,0
1,note_on,63,0,240
1,note_on,69,57,0
1,note_on,69,0,120
1,note_on,63,62,360
1,note_on,63,0,240
1,note_on,64,62,0
1,note_on,64,0,120
1,note_on,64,62,120
1,note_on,64,0,120
1,note_on,71,57,0
1,note_on,71,0,120
1,note_on,64,62,0
1,note_on,64,0,180
1,note_on,64,57,60
1,note_on,64,0,240
1,note_on,63,62,0
1,note_on,63,0,240
1,note_on,69,57,0
1,note_on,69,0,120
1,note_on,63,62,360
1,note_on,63,0,240
1,note_on,64,62,0
1,note_on,64,0,120
1,note_on,64,62,120
1,note_on,64,0,120
1,note_on,71,57,0
1,note_on,71,0,120
1,note_on,64,62,0
1,note_on,64,0,180
1,note_on,62,47,60
1,note_on,62,0,30
1,note_on,64,44,0
1,note_on,64,0,30
1,note_on,62,57,0
1,note_on,62,0,180
1,note_on,61,62,0
1,note_on,61,0,115
1,note_on,76,64,125
1,note_on,76,0,120
1,note_on,69,62,360
1,note_on,69,0,240
1,note_on,68,62,0
1,note_on,68,0,120
1,note_on,68,62,120
1,note_on,68,0,120
1,note_on,76,57,0
1,note_on,76,0,120
1,note_on,68,62,0
1,note_on,68,0,180
1,note_on,68,57,60
1,note_on,68,0,240
1,note_on,69,62,0
1,note_on,69,0,120
1,note_on,69,62,120
1,note_on,69,0,120
1,note_on,76,57,0
1,note_on,76,0,120
1,note_on,69,62,0
1,note_on,69,0,180
1,note_on,69,57,60
1,note_on,69,0,240
1,note_on,71,62,0
1,note_on,71,0,120
1,note_on,71,62,120
1,note_on,71,0,120
1,note_on,76,57,0
1,note_on,76,0,120
1,note_on,71,62,0
1,note_on,71,0,180
1,note_on,74,57,60
1,note_on,74,0,240
1,note_on,73,64,0
1,note_on,73,0,120
1,note_on,74,57,0
1,note_on,74,0,120
1,note_on,76,57,0
1,note_on,76,0,120
1,note_on,73,57,0
1,note_on,73,0,120
1,note_on,71,62,0
1,note_on,71,0,120
1,note_on,69,57,0
1,note_on,69,0,120
1,note_on,68,57,0
1,note_on,68,0,120
1,note_on,66,57,0
1,note_on,66,0,120
1,note_on,64,64,0
1,note_on,64,0,120
1,note_on,63,53,0
1,note_on,63,0,120
1,note_on,64,57,0
1,note_on,64,0,120
1,note_on,66,53,0
1,note_on,66,0,120
1,note_on,64,57,0
1,note_on,64,0,120
1,note_on,62,51,0
1,note_on,62,0,120
1,note_on,61,51,0
1,note_on,61,0,120
1,note_on,59,51,0
1,note_on,59,0,120
1,note_on,61,56,0
1,note_on,61,0,120
1,note_on,62,47,0
1,note_on,62,0,120
1,note_on,64,47,0
1,note_on,64,0,120
1,note_on,61,47,0
1,note_on,61,0,120
1,note_on,59,55,0
1,note_on,59,0,120
1,note_on,57,51,0
1,note_on,57,0,120
1,note_on,56,51,0
1,note_on,56,0,120
1,note_on,54,51,0
1,note_on,54,0,120
1,note_on,73,64,960
1,note_on,73,0,120
1,note_on,74,57,0
1,note_on,74,0,120
1,note_on,76,57,0
1,note_on,76,0,120
1,note_on,73,57,0
1,note_on,73,0,120
1,note_on,71,62,0
1,note_on,71,0,120
1,note_on,69,57,0
1,note_on,69,0,120
1,note_on,68,57,0
1,note_on,68,0,120
1,note_on,69,57,0
1,note_on,69,0,120
1,note_on,78,64,0
1,note_on,78,0,120
1,note_on,80,64,0
1,note_on,80,0,120
1,note_on,81,68,0
1,note_on,81,0,120
1,note_on,78,64,0
1,note_on,78,0,120
1,note_on,76,62,0
1,note_on,76,0,120
1,note_on,74,61,0
1,note_on,74,0,120
1,note_on,73,58,0
1,note_on,73,0,120
1,note_on,71,58,0
1,note_on,71,0,120
1,note_on,70,64,0
1,note_on,70,0,120
1,note_on,71,57,0
1,note_on,71,0,120
1,note_on,73,57,0
1,note_on,73,0,120
1,note_on,71,57,0
1,note_on,71,0,120
1,note_on,74,62,0
1,note_on,74,0,120
1,note_on,73,57,0
1,note_on,73,0,120
1,note_on,76,61,0
1,note_on,76,0,120
1,note_on,74,57,0
1,note_on,74,0,120
1,note_on,78,63,0
1,note_on,78,0,240
1,note_on,76,62,240
1,note_on,76,0,120
1,note_on,74,57,0
1,note_on,74,0,120
1,note_on,73,62,0
1,note_on,73,0,120
1,note_on,71,57,0
1,note_on,71,0,120
1,note_on,69,62,0
1,note_on,69,0,480
1,note_on,71,62,0
1,note_on,71,0,60
1,note_on,73,54,0
1,note_on,73,0,60
1,note_on,71,62,0
1,note_on,71,0,60
1,note_on,73,55,0
1,note_on,73,0,60
1,note_on,71,62,0
1,note_on,71,0,80
1,note_on,73,55,0
1,note_on,73,0,80
1,note_on,71,62,0
1,note_on,71,0,80
1,note_on,73,64,0
1,note_on,73,0,120
1,note_on,74,57,0
1,note_on,74,0,120
1,note_on,76,57,0
1,note_on,76,0,120
1,note_on,73,57,0
1,note_on,73,0,120
1,note_on,71,62,0
1,note_on,71,0,120
1,note_on,69,57,0
1,note_on,69,0,120
1,note_on,68,57,0
1,note_on,68,0,120
1,note_on,69,57,0
1,note_on,69,0,120
1,note_on,78,64,0
1,note_on,78,0,120
1,note_on,80,64,0
1,note_on,80,0,120
1,note_on,81,68,0
1,note_on,81,0,120
1,note_on,78,64,0
1,note_on,78,0,120
1,note_on,76,62,0
1,note_on,76,0,120
1,note_on,74,61,0
1,note_on,74,0,120
1,note_on,73,58,0
1,note_on,73,0,120
1,note_on,71,58,0
1,note_on,71,0,120
1,note_on,70,64,0
1,note_on,70,0,120
1,note_on,71,57,0
1,note_on,71,0,120
1,note_on,73,57,0
1,note_on,73,0,120
1,note_on,71,57,0
1,note_on,71,0,120
1,note_on,74,62,0
1,note_on,74,0,120
1,note_on,73,57,0
1,note_on,73,0,120
1,note_on,76,61,0
1,note_on,76,0,120
1,note_on,74,57,0
1,note_on,74,0,120
1,note_on,78,63,0
1,note_on,78,0,240
1,note_on,74,43,240
1,note_on,74,0,120
1,note_on,73,39,0
1,note_on,73,0,120
1,note_on,76,42,0
1,note_on,76,0,120
1,note_on,74,39,0
1,note_on,74,0,120
1,note_on,78,44,0
1,note_on,78,0,240
1,note_on,74,46,240
1,note_on,74,0,120
1,note_on,73,39,0
1,note_on,73,0,120
1,note_on,76,47,0
1,note_on,76,0,120
1,note_on,74,39,0
1,note_on,74,0,120
1,note_on,78,44,0
1,note_on,78,0,600
1,note_on,65,64,60
1,note_on,65,0,60
1,note_on,77,70,0
1,note_on,77,0,180
1,note_on,66,65,0
1,note_on,66,0,60
1,note_on,78,72,0
1,note_on,78,0,180
1,note_on,70,68,0
1,note_on,70,0,60
1,note_on,82,74,0
1,note_on,82,0,180
1,note_on,71,69,0
1,note_on,71,0,60
1,note_on,83,75,0
1,note_on,83,0,180
1,note_on,73,71,0
1,note_on,73,0,60
1,note_on,85,77,0
1,note_on,85,0,180
1,note_on,74,71,0
1,note_on,74,0,60
1,note_on,86,78,0
1,note_on,86,0,360
1,note_on,83,68,0
1,note_on,83,0,120
1,note_on,86,74,0
1,note_on,86,0,120
1,note_on,83,68,0
1,note_on,83,0,120
1,note_on,86,73,0
1,note_on,86,0,120
1,note_on,83,70,0
1,note_on,83,0,120
1,note_on,76,79,0
1,note_on,76,0,360
1,note_on,81,72,0
1,note_on,81,0,60
1,note_on,85,75,0
1,note_on,85,0,60
1,note_on,88,79,0
1,note_on,88,0,360
1,note_on,81,70,0
1,note_on,81,0,60
1,note_on,83,56,0
1,note_on,83,0,40
1,note_on,83,69,20
1,note_on,83,0,60
1,note_on,85,49,0
1,note_on,85,0,60
1,note_on,83,61,0
1,note_on,83,0,60
1,note_on,85,55,0
1,note_on,85,0,60
1,note_on,83,64,0
1,note_on,83,0,60
1,note_on,85,58,0
1,note_on,85,0,60
1,note_on,83,67,0
1,note_on,83,0,60
1,note_on,85,62,0
1,note_on,85,0,60
1,note_on,83,70,0
1,note_on,83,0,60
1,note_on,85,61,0
1,note_on,85,0,60
1,note_on,83,63,0
1,note_on,83,0,60
1,note_on,85,55,0
1,note_on,85,0,60
1,note_on,83,66,0
1,note_on,83,0,60
1,note_on,85,57,0
1,note_on,85,0,60
1,note_on,83,69,0
1,note_on,83,0,60
1,note_on,85,59,0
1,note_on,85,0,60
1,note_on,81,69,0
1,note_on,81,0,480
1,note_on,76,69,240
1,note_on,76,0,240
1,note_on,78,64,0
1,note_on,78,0,60
1,note_on,80,59,0
1,note_on,80,0,60
1,note_on,78,68,0
1,note_on,78,0,120
1,note_on,76,62,0
1,note_on,76,0,240
1,note_on,78,62,0
1,note_on,78,0,60
1,note_on,80,62,0
1,note_on,80,0,60
1,note_on,78,69,0
1,note_on,78,0,120
1,note_on,76,63,0
1,note_on,76,0,150
1,note_on,76,64,0
1,note_on,80,69,30
1,note_on,83,73,30
1,note_on,86,77,30
1,note_on,86,0,480
1,note_on,76,0,0
1,note_on,80,0,0
1,note_on,83,0,0
1,note_on,85,69,240
1,note_on,85,0,240
1,note_on,83,64,0
1,note_on,83,0,120
1,note_on,85,50,0
1,note_on,85,0,30
1,note_on,83,55,0
1,note_on,83,0,30
1,note_on,82,58,0
1,note_on,82,0,30
1,note_on,83,60,0
1,note_on,83,0,30
1,note_on,86,62,0
1,note_on,86,0,240
1,note_on,76,62,0
1,note_on,76,0,120
1,note_on,78,54,0
1,note_on,78,0,30
1,note_on,76,55,0
1,note_on,76,0,30
1,note_on,75,59,0
1,note_on,75,0,30
1,note_on,76,59,0
1,note_on,76,0,30
1,note_on,80,63,0
1,note_on,74,60,0
1,note_on,74,0,240
1,note_on,80,0,0
1,note_on,73,58,0
1,note_on,81,69,0
1,note_on,81,0,480
1,note_on,73,0,0
1,note_on,76,69,240
1,note_on,76,0,240
1,note_on,78,64,0
1,note_on,78,0,60
1,note_on,80,59,0
1,note_on,80,0,60
1,note_on,78,68,0
1,note_on,78,0,120
1,note_on,76,62,0
1,note_on,76,0,240
1,note_on,78,62,0
1,note_on,78,0,60
1,note_on,80,62,0
1,note_on,80,0,60
1,note_on,78,69,0
1,note_on,78,0,120
1,note_on,76,63,0
1,note_on,76,0,150
1,note_on,76,64,0
1,note_on,80,69,30
1,note_on,83,73,30
1,note_on,86,77,30
1,note_on,86,0,480
1,note_on,76,0,0
1,note_on,80,0,0
1,note_on,83,0,0
1,note_on,85,69,240
1,note_on,85,0,240
1,note_on,83,64,0
1,note_on,83,0,120
1,note_on,85,50,0
1,note_on,85,0,30
1,note_on,83,55,0
1,note_on,83,0,30
1,note_on,82,58,0
1,note_on,82,0,30
1,note_on,83,60,0
1,note_on,83,0,30
1,note_on,86,62,0
1,note_on,86,0,240
1,note_on,76,62,0
1,note_on,76,0,120
1,note_on,78,54,0
1,note_on,78,0,30
1,note_on,76,55,0
1,note_on,76,0,30
1,note_on,75,59,0
1,note_on,75,0,30
1,note_on,76,59,0
1,note_on,76,0,30
1,note_on,80,63,0
1,note_on,74,60,0
1,note_on,74,0,240
1,note_on,80,0,0
1,note_on,73,58,0
1,note_on,81,69,0
1,note_on,81,0,480
1,note_on,73,0,0
1,note_on,64,57,120
1,note_on,64,0,120
1,note_on,68,57,0
1,note_on,68,0,120
1,note_on,76,50,0
1,note_on,76,0,120
1,note_on,64,53,120
1,note_on,64,0,120
1,note_on,69,57,0
1,note_on,69,0,120
1,note_on,76,49,0
1,note_on,76,0,120
1,note_on,59,39,120
1,note_on,59,0,120
1,note_on,62,51,0
1,note_on,62,0,120
1,note_on,68,42,0
1,note_on,68,0,120
1,note_on,61,53,0
1,note_on,69,53,0
1,note_on,69,0,480
1,note_on,61,0,0
1,note_on,54,51,1920
1,note_on,54,0,120
1,note_on,55,40,0
1,note_on,55,0,30
1,note_on,54,44,0
1,note_on,54,0,30
1,note_on,53,42,0
1,note_on,53,0,30
1,note_on,54,42,0
1,note_on,54,0,30
1,note_on,58,49,0
1,note_on,58,0,240
1,note_on,59,44,0
1,note_on,59,0,60
1,note_on,58,40,0
1,note_on,58,0,60
1,note_on,59,51,0
1,note_on,59,0,120
1,note_on,62,44,0
1,note_on,62,0,240
1,note_on,61,46,0
1,note_on,61,0,60
1,note_on,59,42,0
1,note_on,59,0,60
1,note_on,61,51,0
1,note_on,61,0,120
1,note_on,64,48,0
1,note_on,64,0,240
1,note_on,62,51,0
1,note_on,62,0,120
1,note_on,64,42,0
1,note_on,64,0,30
1,note_on,62,38,0
1,note_on,62,0,30
1,note_on,61,43,0
1,note_on,61,0,30
1,note_on,62,39,0
1,note_on,62,0,30
1,note_on,66,49,0
1,note_on,66,0,240
1,note_on,62,70,240
1,note_on,62,0,60
1,note_on,66,56,0
1,note_on,66,0,60
1,note_on,71,56,0
1,note_on,71,0,60
1,note_on,74,56,0
1,note_on,74,0,60
1,note_on,71,73,0
1,note_on,71,0,240
1,note_on,66,65,0
1,note_on,66,0,240
1,note_on,78,56,0
1,note_on,78,0,60
1,note_on,71,52,180
1,note_on,71,0,60
1,note_on,73,55,180
1,note_on,73,0,60
1,note_on,74,49,0
1,note_on,74,0,60
1,note_on,73,60,0
1,note_on,73,0,120
1,note_on,71,56,0
1,note_on,71,0,240
1,note_on,62,70,240
1,note_on,62,0,60
1,note_on,66,56,0
1,note_on,66,0,60
1,note_on,71,56,0
1,note_on,71,0,60
1,note_on,74,56,0
1,note_on,74,0,60
1,note_on,71,73,0
1,note_on,71,0,240
1,note_on,66,65,0
1,note_on,66,0,240
1,note_on,83,64,0
1,note_on,83,0,60
1,note_on,78,60,180
1,note_on,78,0,60
1,note_on,79,55,180
1,note_on,79,0,60
1,note_on,81,49,0
1,note_on,81,0,60
1,note_on,79,60,0
1,note_on,79,0,120
1,note_on,78,56,0
1,note_on,78,0,240
1,note_on,71,70,240
1,note_on,71,0,60
1,note_on,74,56,0
1,note_on,74,0,60
1,note_on,78,56,0
1,note_on,78,0,60
1,note_on,83,56,0
1,note_on,83,0,60
1,note_on,78,73,0
1,note_on,78,0,240
1,note_on,74,65,0
1,note_on,74,0,240
1,note_on,79,64,0
1,note_on,79,0,60
1,note_on,78,60,180
1,note_on,78,0,60
1,note_on,76,55,180
1,note_on,76,0,60
1,note_on,78,49,0
1,note_on,78,0,60
1,note_on,76,60,0
1,note_on,76,0,120
1,note_on,74,56,0
1,note_on,74,0,240
1,note_on,60,34,600
1,note_on,60,0,120
1,note_on,59,41,0
1,note_on,59,0,120
1,note_on,60,34,0
1,note_on,60,0,120
1,note_on,62,40,0
1,note_on,62,0,120
1,note_on,60,34,0
1,note_on,60,0,120
1,note_on,64,41,0
1,note_on,64,0,120
1,note_on,60,37,0
1,note_on,60,0,120
1,note_on,67,39,120
1,note_on,67,0,120
1,note_on,66,47,0
1,note_on,66,0,120
1,note_on,67,39,0
1,note_on,67,0,120
1,note_on,69,46,0
1,note_on,69,0,120
1,note_on,67,39,0
1,note_on,67,0,120
1,note_on,71,47,0
1,note_on,71,0,120
1,note_on,67,42,0
1,note_on,67,0,120
1,note_on,66,39,0
1,note_on,66,0,960
1,note_on,59,52,0
1,note_on,59,0,120
1,note_on,64,44,0
1,note_on,64,0,120
1,note_on,63,53,0
1,note_on,63,0,120
1,note_on,64,44,0
1,note_on,64,0,120
1,note_on,66,52,0
1,note_on,66,0,120
1,note_on,64,44,0
1,note_on,64,0,120
1,note_on,67,53,0
1,note_on,67,0,120
1,note_on,64,48,0
1,note_on,64,0,120
1,note_on,76,66,0
1,note_on,67,56,0
1,note_on,67,0,960
1,note_on,76,0,0
1,note_on,76,57,120
1,note_on,76,0,120
1,note_on,75,72,0
1,note_on,75,0,120
1,note_on,76,59,0
1,note_on,76,0,120
1,note_on,78,72,0
1,note_on,78,0,120
1,note_on,76,60,0
1,note_on,76,0,120
1,note_on,79,76,0
1,note_on,79,0,120
1,note_on,76,68,0
1,note_on,76,0,120
1,note_on,74,78,0
1,note_on,74,0,120
1,note_on,83,72,0
1,note_on,83,0,120
1,note_on,82,80,0
1,note_on,82,0,120
1,note_on,83,76,0
1,note_on,83,0,120
1,note_on,85,84,0
1,note_on,85,0,120
1,note_on,83,78,0
1,note_on,83,0,120
1,note_on,86,94,0
1,note_on,86,0,120
1,note_on,83,86,0
1,note_on,83,0,120
1,note_on,82,88,0
1,note_on,82,0,120
1,note_on,85,72,0
1,note_on,85,0,120
1,note_on,78,78,0
1,note_on,78,0,120
1,note_on,82,64,0
1,note_on,82,0,120
1,note_on,73,72,0
1,note_on,73,0,120
1,note_on,78,55,0
1,note_on,78,0,120
1,note_on,70,62,0
1,note_on,70,0,120
1,note_on,73,50,0
1,note_on,73,0,120
1,note_on,66,62,0
1,note_on,66,0,480
1,note_on,66,53,240
1,note_on,66,0,240
1,note_on,71,60,0
1,note_on,71,0,120
1,note_on,70,52,0
1,note_on,70,0,90
1,note_on,73,60,30
1,note_on,73,0,120
1,note_on,71,54,0
1,note_on,71,0,90
1,note_on,74,60,30
1,note_on,74,0,120
1,note_on,73,54,0
1,note_on,73,0,90
1,note_on,76,60,30
1,note_on,76,0,120
1,note_on,74,49,0
1,note_on,74,0,90
1,note_on,74,57,30
1,note_on,71,48,0
1,note_on,71,0,480
1,note_on,74,0,0
1,note_on,73,50,0
1,note_on,70,42,0
1,note_on,70,0,180
1,note_on,73,0,0
1,note_on,66,53,60
1,note_on,66,0,240
1,note_on,73,60,0
1,note_on,73,0,120
1,note_on,71,52,0
1,note_on,71,0,90
1,note_on,74,60,30
1,note_on,74,0,120
1,note_on,73,54,0
1,note_on,73,0,90
1,note_on,76,60,30
1,note_on,76,0,120
1,note_on,74,54,0
1,note_on,74,0,90
1,note_on,78,60,30
1,note_on,78,0,120
1,note_on,76,49,0
1,note_on,76,0,90
1,note_on,76,57,30
1,note_on,73,48,0
1,note_on,73,0,480
1,note_on,76,0,0
1,note_on,74,50,0
1,note_on,71,42,0
1,note_on,71,0,180
1,note_on,74,0,0
1,note_on,71,53,60
1,note_on,71,0,240
1,note_on,76,60,0
1,note_on,76,0,120
1,note_on,75,52,0
1,note_on,75,0,90
1,note_on,78,60,30
1,note_on,78,0,120
1,note_on,76,54,0
1,note_on,76,0,90
1,note_on,79,60,30
1,note_on,79,0,120
1,note_on,78,54,0
1,note_on,78,0,90
1,note_on,81,64,30
1,note_on,81,0,120
1,note_on,79,58,0
1,note_on,79,0,90
1,note_on,83,68,30
1,note_on,83,0,120
1,note_on,81,65,0
1,note_on,81,0,120
1,note_on,79,64,0
1,note_on,79,0,120
1,note_on,78,63,0
1,note_on,78,0,120
1,note_on,76,61,0
1,note_on,76,0,120
1,note_on,74,59,0
1,note_on,74,0,120
1,note_on,73,58,0
1,note_on,73,0,120
1,note_on,71,55,0
1,note_on,71,0,120
1,note_on,73,60,0
1,note_on,73,0,120
1,note_on,71,52,0
1,note_on,71,0,90
1,note_on,74,60,30
1,note_on,74,0,120
1,note_on,73,54,0
1,note_on,73,0,90
1,note_on,76,60,30
1,note_on,76,0,120
1,note_on,74,54,0
1,note_on,74,0,90
1,note_on,78,64,30
1,note_on,78,0,120
1,note_on,76,58,0
1,note_on,76,0,90
1,note_on,79,68,30
1,note_on,79,0,120
1,note_on,78,65,0
1,note_on,78,0,120
1,note_on,76,64,0
1,note_on,76,0,120
1,note_on,74,63,0
1,note_on,74,0,120
1,note_on,73,61,0
1,note_on,73,0,120
1,note_on,71,59,0
1,note_on,71,0,120
1,note_on,69,58,0
1,note_on,69,0,120
1,note_on,67,55,0
1,note_on,67,0,120
1,note_on,66,60,0
1,note_on,66,0,120
1,note_on,64,52,0
1,note_on,64,0,90
1,note_on,67,60,30
1,note_on,67,0,120
1,note_on,66,54,0
1,note_on,66,0,90
1,note_on,69,60,30
1,note_on,69,0,120
1,note_on,67,54,0
1,note_on,67,0,90
1,note_on,71,64,30
1,note_on,71,0,120
1,note_on,69,58,0
1,note_on,69,0,90
1,note_on,72,68,30
1,note_on,72,0,120
1,note_on,71,65,0
1,note_on,71,0,120
1,note_on,69,64,0
1,note_on,69,0,120
1,note_on,67,63,0
1,note_on,67,0,120
1,note_on,66,61,0
1,note_on,66,0,120
1,note_on,64,59,0
1,note_on,64,0,120
1,note_on,62,58,0
1,note_on,62,0,120
1,note_on,60,55,0
1,note_on,60,0,120
1,note_on,59,68,0
1,note_on,59,0,120
1,note_on,71,62,0
1,note_on,71,0,120
1,note_on,70,68,0
1,note_on,70,0,120
1,note_on,71,62,0
1,note_on,71,0,120
1,note_on,69,68,0
1,note_on,69,0,120
1,note_on,67,65,0
1,note_on,67,0,120
1,note_on,66,65,0
1,note_on,66,0,120
1,note_on,64,65,0
1,note_on,64,0,120
1,note_on,63,68,0
1,note_on,63,0,120
1,note_on,64,61,0
1,note_on,64,0,120
1,note_on,66,61,0
1,note_on,66,0,120
1,note_on,64,61,0
1,note_on,64,0,120
1,note_on,67,68,0
1,note_on,67,0,120
1,note_on,66,66,0
1,note_on,66,0,120
1,note_on,64,63,0
1,note_on,64,0,120
1,note_on,62,62,0
1,note_on,62,0,110
1,note_on,62,68,10
1,note_on,62,0,960
1,note_on,61,64,0
1,note_on,61,0,120
1,note_on,57,55,0
1,note_on,57,0,120
1,note_on,64,64,0
1,note_on,64,0,120
1,note_on,61,59,0
1,note_on,61,0,120
1,note_on,67,66,0
1,note_on,67,0,120
1,note_on,64,59,0
1,note_on,64,0,120
1,note_on,73,66,0
1,note_on,73,0,120
1,note_on,67,59,0
1,note_on,67,0,120
1,note_on,76,69,0
1,note_on,76,0,120
1,note_on,73,62,0
1,note_on,73,0,120
1,note_on,79,70,0
1,note_on,79,0,120
1,note_on,76,64,0
1,note_on,76,0,120
1,note_on,83,74,0
1,note_on,83,0,240
1,note_on,82,47,840
1,note_on,82,0,120
1,note_on,83,50,0
1,note_on,83,0,120
1,note_on,82,47,0
1,note_on,82,0,120
1,note_on,83,51,0
1,note_on,83,0,120
1,note_on,82,47,480
1,note_on,82,0,120
1,note_on,83,50,0
1,note_on,83,0,120
1,note_on,82,47,0
1,note_on,82,0,120
1,note_on,83,51,0
1,note_on,83,0,120
1,note_on,82,59,480
1,note_on,82,0,120
1,note_on,83,63,0
1,note_on,83,0,120
1,note_on,82,59,0
1,note_on,82,0,120
1,note_on,83,66,0
1,note_on,83,0,120
1,note_on,85,70,0
1,note_on,85,0,120
1,note_on,86,71,0
1,note_on,86,0,120
1,note_on,85,69,0
1,note_on,85,0,120
1,note_on,83,70,0
1,note_on,83,0,120
1,note_on,81,68,0
1,note_on,81,0,120
1,note_on,79,66,0
1,note_on,79,0,120
1,note_on,78,66,0
1,note_on,78,0,120
1,note_on,79,69,0
1,note_on,79,0,120
1,note_on,81,72,0
1,note_on,81,0,120
1,note_on,83,75,0
1,note_on,83,0,120
1,note_on,81,71,0
1,note_on,81,0,120
1,note_on,79,70,0
1,note_on,79,0,120
1,note_on,78,68,0
1,note_on,78,0,120
1,note_on,76,66,0
1,note_on,76,0,120
1,note_on,75,65,0
1,note_on,75,0,120
1,note_on,76,69,0
1,note_on,76,0,120
1,note_on,78,72,0
1,note_on,78,0,120
1,note_on,79,75,0
1,note_on,79,0,120
1,note_on,78,71,0
1,note_on,78,0,120
1,note_on,76,70,0
1,note_on,76,0,120
1,note_on,74,68,0
1,note_on,74,0,120
1,note_on,73,66,0
1,note_on,73,0,120
1,note_on,71,58,0
1,note_on,71,0,120
1,note_on,69,64,0
1,note_on,69,0,120
1,note_on,71,51,0
1,note_on,71,0,120
1,note_on,68,57,0
1,note_on,68,0,120
1,note_on,71,48,0
1,note_on,71,0,120
1,note_on,69,57,0
1,note_on,69,0,120
1,note_on,71,49,0
1,note_on,71,0,120
1,note_on,68,56,0
1,note_on,68,0,120
1,note_on,71,49,0
1,note_on,71,0,120
1,note_on,69,66,0
1,note_on,69,0,120
1,note_on,71,56,0
1,note_on,71,0,120
1,note_on,68,62,0
1,note_on,68,0,120
1,note_on,71,54,0
1,note_on,71,0,120
1,note_on,69,63,0
1,note_on,69,0,120
1,note_on,71,56,0
1,note_on,71,0,120
1,note_on,66,63,0
1,note_on,66,0,120
1,note_on,69,56,0
1,note_on,69,0,120
1,note_on,67,64,0
1,note_on,67,0,120
1,note_on,69,50,0
1,note_on,69,0,120
1,note_on,66,57,0
1,note_on,66,0,120
1,note_on,69,50,0
1,note_on,69,0,120
1,note_on,67,56,0
1,note_on,67,0,120
1,note_on,69,50,0
1,note_on,69,0,120
1,note_on,66,57,0
1,note_on,66,0,120
1,note_on,69,49,0
1,note_on,69,0,120
1,note_on,67,66,0
1,note_on,67,0,120
1,note_on,69,56,0
1,note_on,69,0,120
1,note_on,66,62,0
1,note_on,66,0,120
1,note_on,69,49,0
1,note_on,69,0,120
1,note_on,67,58,0
1,note_on,67,0,120
1,note_on,69,48,0
1,note_on,69,0,120
1,note_on,66,57,0
1,note_on,66,0,120
1,note_on,69,50,0
1,note_on,69,0,120
1,note_on,67,59,0
1,note_on,67,0,360
1,note_on,66,47,0
1,note_on,66,0,120
1,note_on,67,49,0
1,note_on,67,0,360
1,note_on,66,41,0
1,note_on,66,0,120
1,note_on,67,46,0
1,note_on,67,0,360
1,note_on,66,36,0
1,note_on,67,40,120
1,note_on,66,0,12
1,note_on,66,35,108
1,note_on,67,0,12
1,note_on,67,37,108
1,note_on,66,0,12
1,note_on,66,33,108
1,note_on,67,0,12
1,note_on,67,35,108
1,note_on,66,0,12
1,note_on,67,0,468
1,note_on,69,35,720
1,note_on,69,0,60
1,note_on,73,38,0
1,note_on,73,0,60
1,note_on,76,40,0
1,note_on,76,0,60
1,note_on,79,45,0
1,note_on,79,0,60
1,note_on,57,83,240
1,note_on,57,0,60
1,note_on,62,66,0
1,note_on,62,0,60
1,note_on,66,66,0
1,note_on,66,0,60
1,note_on,69,66,0
1,note_on,69,0,60
1,note_on,66,86,0
1,note_on,66,0,240
1,note_on,62,77,0
1,note_on,62,0,240
1,note_on,74,56,0
1,note_on,74,0,60
1,note_on,69,52,180
1,note_on,69,0,60
1,note_on,71,55,180
1,note_on,71,0,60
1,note_on,73,49,0
1,note_on,73,0,60
1,note_on,71,60,0
1,note_on,71,0,120
1,note_on,69,56,0
1,note_on,69,0,240
1,note_on,57,83,240
1,note_on,57,0,60
1,note_on,62,66,0
1,note_on,62,0,60
1,note_on,66,66,0
1,note_on,66,0,60
1,note_on,69,66,0
1,note_on,69,0,60
1,note_on,66,86,0
1,note_on,66,0,240
1,note_on,62,77,0
1,note_on,62,0,240
1,note_on,78,56,0
1,note_on,81,64,0
1,note_on,81,0,60
1,note_on,78,0,0
1,note_on,74,52,180
1,note_on,78,60,0
1,note_on,78,0,60
1,note_on,74,0,0
1,note_on,76,46,180
1,note_on,79,55,0
1,note_on,79,0,60
1,note_on,81,49,0
1,note_on,81,0,60
1,note_on,79,60,0
1,note_on,79,0,120
1,note_on,76,0,0
1,note_on,74,47,0
1,note_on,78,56,0
1,note_on,78,0,240
1,note_on,74,0,0
1,note_on,74,60,240
1,note_on,74,0,60
1,note_on,78,51,0
1,note_on,78,0,60
1,note_on,81,52,0
1,note_on,81,0,60
1,note_on,86,52,0
1,note_on,86,0,60
1,note_on,72,67,0
1,note_on,72,0,720
1,note_on,84,60,0
1,note_on,84,0,60
1,note_on,81,51,0
1,note_on,81,0,60
1,note_on,78,52,0
1,note_on,78,0,60
1,note_on,72,52,0
1,note_on,72,0,60
1,note_on,71,67,0
1,note_on,71,0,720
1,note_on,71,60,0
1,note_on,71,0,60
1,note_on,74,51,0
1,note_on,74,0,60
1,note_on,79,52,0
1,note_on,79,0,60
1,note_on,83,52,0
1,note_on,83,0,60
1,note_on,78,54,0
1,note_on,81,64,0
1,note_on,81,0,60
1,note_on,78,0,0
1,note_on,74,44,180
1,note_on,78,53,0
1,note_on,78,0,60
1,note_on,74,0,0
1,note_on,79,59,180
1,note_on,76,49,0
1,note_on,76,0,60
1,note_on,79,0,0
1,note_on,73,44,180
1,note_on,76,44,0
1,note_on,76,0,60
1,note_on,73,0,0
1,note_on,76,50,180
1,note_on,73,42,0
1,note_on,73,0,480
1,note_on,76,0,0
1,note_on,78,40,0
1,note_on,74,33,0
1,note_on,74,0,240
1,note_on,78,0,0
1,note_on,74,60,0
1,note_on,74,0,60
1,note_on,78,51,0
1,note_on,78,0,60
1,note_on,81,52,0
1,note_on,81,0,60
1,note_on,86,52,0
1,note_on,86,0,60
1,note_on,72,67,0
1,note_on,72,0,720
1,note_on,84,60,0
1,note_on,84,0,60
1,note_on,81,51,0
1,note_on,81,0,60
1,note_on,78,52,0
1,note_on,78,0,60
1,note_on,72,52,0
1,note_on,72,0,60
1,note_on,71,67,0
1,note_on,71,0,720
1,note_on,83,60,0
1,note_on,83,0,80
1,note_on,85,56,0
1,note_on,85,0,80
1,note_on,86,56,0
1,note_on,86,0,80
1,note_on,85,60,0
1,note_on,85,0,80
1,note_on,83,55,0
1,note_on,83,0,80
1,note_on,81,51,0
1,note_on,81,0,80
1,note_on,79,59,0
1,note_on,79,0,80
1,note_on,78,51,0
1,note_on,78,0,80
1,note_on,76,51,0
1,note_on,76,0,80
1,note_on,74,55,0
1,note_on,74,0,80
1,note_on,73,49,0
1,note_on,73,0,80
1,note_on,71,49,0
1,note_on,71,0,80
1,note_on,69,52,0
1,note_on,69,0,60
1,note_on,67,49,0
1,note_on,67,0,60
1,note_on,66,49,0
1,note_on,66,0,60
1,note_on,64,48,0
1,note_on,64,0,60
1,note_on,62,60,0
1,note_on,62,0,480
1,note_on,57,53,240
1,note_on,57,0,240
1,note_on,62,60,0
1,note_on,62,0,120
1,note_on,61,52,0
1,note_on,61,0,90
1,note_on,64,60,30
1,note_on,64,0,120
1,note_on,62,54,0
1,note_on,62,0,90
1,note_on,66,60,30
1,note_on,66,0,120
1,note_on,64,54,0
1,note_on,64,0,90
1,note_on,67,60,30
1,note_on,67,0,120
1,note_on,66,49,0
1,note_on,66,0,90
1,note_on,66,57,30
1,note_on,62,48,0
1,note_on,62,0,480
1,note_on,66,0,0
1,note_on,64,50,0
1,note_on,61,42,0
1,note_on,61,0,180
1,note_on,64,0,0
1,note_on,57,53,60
1,note_on,57,0,240
1,note_on,64,60,0
1,note_on,64,0,120
1,note_on,63,52,0
1,note_on,63,0,90
1,note_on,66,60,30
1,note_on,66,0,120
1,note_on,64,54,0
1,note_on,64,0,90
1,note_on,67,60,30
1,note_on,67,0,120
1,note_on,66,54,0
1,note_on,66,0,90
1,note_on,69,60,30
1,note_on,69,0,120
1,note_on,67,49,0
1,note_on,67,0,90
1,note_on,67,57,30
1,note_on,64,48,0
1,note_on,64,0,480
1,note_on,67,0,0
1,note_on,66,50,0
1,note_on,62,42,0
1,note_on,62,0,180
1,note_on,66,0,0
1,note_on,62,58,60
1,note_on,62,0,240
1,note_on,67,66,0
1,note_on,67,0,120
1,note_on,66,57,0
1,note_on,66,0,90
1,note_on,69,66,30
1,note_on,69,0,120
1,note_on,67,59,0
1,note_on,67,0,90
1,note_on,71,66,30
1,note_on,71,0,120
1,note_on,69,59,0
1,note_on,69,0,90
1,note_on,74,66,30
1,note_on,74,0,120
1,note_on,73,53,0
1,note_on,73,0,90
1,note_on,71,62,30
1,note_on,71,0,120
1,note_on,71,62,120
1,note_on,71,0,120
1,note_on,74,57,0
1,note_on,74,0,120
1,note_on,69,62,0
1,note_on,69,0,120
1,note_on,67,55,360
1,note_on,67,0,30
1,note_on,66,48,0
1,note_on,66,0,30
1,note_on,67,62,0
1,note_on,67,0,60
1,note_on,67,62,120
1,note_on,67,0,120
1,note_on,71,57,0
1,note_on,71,0,120
1,note_on,66,62,0
1,note_on,66,0,120
1,note_on,71,60,360
1,note_on,71,0,30
1,note_on,69,52,0
1,note_on,69,0,30
1,note_on,71,68,0
1,note_on,71,0,60
1,note_on,71,68,120
1,note_on,71,0,120
1,note_on,74,62,0
1,note_on,74,0,120
1,note_on,69,68,0
1,note_on,69,0,120
1,note_on,67,55,360
1,note_on,67,0,30
1,note_on,66,48,0
1,note_on,66,0,30
1,note_on,67,62,0
1,note_on,67,0,60
1,note_on,67,62,120
1,note_on,67,0,120
1,note_on,71,57,0
1,note_on,71,0,120
1,note_on,66,62,0
1,note_on,66,0,120
1,note_on,63,55,360
1,note_on,63,0,120
1,note_on,64,55,0
1,note_on,64,0,120
1,note_on,66,58,0
1,note_on,66,0,120
1,note_on,67,58,0
1,note_on,67,0,120
1,note_on,69,62,0
1,note_on,69,0,120
1,note_on,71,55,0
1,note_on,71,0,120
1,note_on,67,61,0
1,note_on,67,0,120
1,note_on,64,51,0
1,note_on,64,0,120
1,note_on,62,57,0
1,note_on,62,0,960
1,note_on,61,50,0
1,note_on,61,0,240
1,note_on,57,74,480
1,note_on,57,0,60
1,note_on,61,59,0
1,note_on,61,0,60
1,note_on,64,59,0
1,note_on,64,0,60
1,note_on,67,59,0
1,note_on,67,0,60
1,note_on,64,77,0
1,note_on,64,0,240
1,note_on,64,79,0
1,note_on,64,0,60
1,note_on,67,70,0
1,note_on,67,0,60
1,note_on,73,70,0
1,note_on,73,0,60
1,note_on,76,70,0
1,note_on,76,0,60
1,note_on,73,84,0
1,note_on,73,0,240
1,note_on,67,87,0
1,note_on,67,0,60
1,note_on,73,78,0
1,note_on,73,0,60
1,note_on,76,76,0
1,note_on,76,0,60
1,note_on,79,78,0
1,note_on,79,0,60
1,note_on,76,96,0
1,note_on,76,0,240
1,note_on,67,61,480
1,note_on,67,0,60
1,note_on,64,50,0
1,note_on,64,0,60
1,note_on,61,50,0
1,note_on,61,0,60
1,note_on,57,50,0
1,note_on,57,0,60
1,note_on,55,62,0
1,note_on,55,0,960
1,note_on,54,61,0
1,note_on,54,0,120
1,note_on,62,55,0
1,note_on,62,0,120
1,note_on,61,49,0
1,note_on,61,0,120
1,note_on,62,54,0
1,note_on,62,0,120
1,note_on,64,59,0
1,note_on,64,0,120
1,note_on,62,55,0
1,note_on,62,0,120
1,note_on,61,47,0
1,note_on,61,0,120
1,note_on,62,56,0
1,note_on,62,0,120
1,note_on,60,62,0
1,note_on,60,0,960
1,note_on,59,61,0
1,note_on,59,0,120
1,note_on,64,55,0
1,note_on,64,0,120
1,note_on,63,49,0
1,note_on,63,0,120
1,note_on,64,54,0
1,note_on,64,0,120
1,note_on,66,59,0
1,note_on,66,0,120
1,note_on,64,55,0
1,note_on,64,0,120
1,note_on,63,47,0
1,note_on,63,0,120
1,note_on,64,56,0
1,note_on,64,0,120
1,note_on,62,62,0
1,note_on,62,0,960
1,note_on,61,61,0
1,note_on,61,0,120
1,note_on,69,55,0
1,note_on,69,0,120
1,note_on,68,49,0
1,note_on,68,0,120
1,note_on,69,54,0
1,note_on,69,0,120
1,note_on,71,59,0
1,note_on,71,0,120
1,note_on,69,55,0
1,note_on,69,0,120
1,note_on,68,47,0
1,note_on,68,0,120
1,note_on,69,56,0
1,note_on,69,0,120
1,note_on,68,62,0
1,note_on,68,0,240
1,note_on,74,57,0
1,note_on,74,0,120
1,note_on,68,62,360
1,note_on,68,0,240
1,note_on,69,62,0
1,note_on,69,0,120
1,note_on,69,62,120
1,note_on,69,0,120
1,note_on,76,57,0
1,note_on,76,0,120
1,note_on,69,62,0
1,note_on,69,0,180
1,note_on,69,57,60
1,note_on,69,0,240
1,note_on,68,62,0
1,note_on,68,0,240
1,note_on,74,57,0
1,note_on,74,0,120
1,note_on,68,62,360
1,note_on,68,0,240
1,note_on,69,62,0
1,note_on,69,0,120
1,note_on,69,62,120
1,note_on,69,0,120
1,note_on,76,57,0
1,note_on,76,0,120
1,note_on,69,62,0
1,note_on,69,0,180
1,note_on,67,47,60
1,note_on,67,0,30
1,note_on,69,44,0
1,note_on,69,0,30
1,note_on,67,57,0
1,note_on,67,0,180
1,note_on,66,62,0
1,note_on,66,0,115
1,note_on,81,64,125
1,note_on,81,0,120
1,note_on,74,62,360
1,note_on,74,0,240
1,note_on,73,62,0
1,note_on,73,0,120
1,note_on,73,62,120
1,note_on,73,0,120
1,note_on,81,57,0
1,note_on,81,0,120
1,note_on,73,62,0
1,note_on,73,0,180
1,note_on,73,57,60
1,note_on,73,0,240
1,note_on,74,62,0
1,note_on,74,0,120
1,note_on,74,62,120
1,note_on,74,0,120
1,note_on,81,57,0
1,note_on,81,0,120
1,note_on,74,62,0
1,note_on,74,0,180
1,note_on,74,57,60
1,note_on,74,0,240
1,note_on,76,62,0
1,note_on,76,0,120
1,note_on,76,62,120
1,note_on,76,0,120
1,note_on,81,57,0
1,note_on,81,0,120
1,note_on,76,62,0
1,note_on,76,0,180
1,note_on,79,57,60
1,note_on,79,0,240
1,note_on,78,64,0
1,note_on,78,0,120
1,note_on,79,57,0
1,note_on,79,0,120
1,note_on,81,57,0
1,note_on,81,0,120
1,note_on,78,57,0
1,note_on,78,0,120
1,note_on,76,62,0
1,note_on,76,0,120
1,note_on,74,57,0
1,note_on,74,0,120
1,note_on,73,57,0
1,note_on,73,0,120
1,note_on,71,57,0
1,note_on,71,0,120
1,note_on,69,64,0
1,note_on,69,0,120
1,note_on,68,53,0
1,note_on,68,0,120
1,note_on,69,57,0
1,note_on,69,0,120
1,note_on,71,53,0
1,note_on,71,0,120
1,note_on,69,57,0
1,note_on,69,0,120
1,note_on,67,51,0
1,note_on,67,0,120
1,note_on,66,51,0
1,note_on,66,0,120
1,note_on,64,51,0
1,note_on,64,0,120
1,note_on,66,56,0
1,note_on,66,0,120
1,note_on,67,47,0
1,note_on,67,0,120
1,note_on,69,47,0
1,note_on,69,0,120
1,note_on,66,47,0
1,note_on,66,0,120
1,note_on,64,55,0
1,note_on,64,0,120
1,note_on,62,51,0
1,note_on,62,0,120
1,note_on,61,51,0
1,note_on,61,0,120
1,note_on,59,51,0
1,note_on,59,0,120
1,note_on,78,64,960
1,note_on,78,0,120
1,note_on,79,57,0
1,note_on,79,0,120
1,note_on,81,57,0
1,note_on,81,0,120
1,note_on,78,57,0
1,note_on,78,0,120
1,note_on,76,62,0
1,note_on,76,0,120
1,note_on,74,57,0
1,note_on,74,0,120
1,note_on,73,57,0
1,note_on,73,0,120
1,note_on,74,57,0
1,note_on,74,0,120
1,note_on,83,64,0
1,note_on,83,0,120
1,note_on,85,64,0
1,note_on,85,0,120
1,note_on,86,68,0
1,note_on,86,0,120
1,note_on,83,64,0
1,note_on,83,0,120
1,note_on,81,62,0
1,note_on,81,0,120
1,note_on,79,61,0
1,note_on,79,0,120
1,note_on,78,58,0
1,note_on,78,0,120
1,note_on,76,58,0
1,note_on,76,0,120
1,note_on,75,64,0
1,note_on,75,0,120
1,note_on,76,57,0
1,note_on,76,0,120
1,note_on,78,57,0
1,note_on,78,0,120
1,note_on,76,57,0
1,note_on,76,0,120
1,note_on,79,62,0
1,note_on,79,0,120
1,note_on,78,57,0
1,note_on,78,0,120
1,note_on,81,61,0
1,note_on,81,0,120
1,note_on,79,57,0
1,note_on,79,0,120
1,note_on,83,63,0
1,note_on,83,0,240
1,note_on,81,62,240
1,note_on,81,0,120
1,note_on,79,57,0
1,note_on,79,0,120
1,note_on,78,62,0
1,note_on,78,0,120
1,note_on,76,57,0
1,note_on,76,0,120
1,note_on,74,62,0
1,note_on,74,0,480
1,note_on,76,62,0
1,note_on,76,0,60
1,note_on,78,54,0
1,note_on,78,0,60
1,note_on,76,62,0
1,note_on,76,0,60
1,note_on,78,55,0
1,note_on,78,0,60
1,note_on,76,62,0
1,note_on,76,0,80
1,note_on,78,55,0
1,note_on,78,0,80
1,note_on,76,62,0
1,note_on,76,0,80
1,note_on,78,64,0
1,note_on,78,0,120
1,note_on,79,57,0
1,note_on,79,0,120
1,note_on,81,57,0
1,note_on,81,0,120
1,note_on,78,57,0
1,note_on,78,0,120
1,note_on,76,62,0
1,note_on,76,0,120
1,note_on,74,57,0
1,note_on,74,0,120
1,note_on,73,57,0
1,note_on,73,0,120
1,note_on,74,57,0
1,note_on,74,0,120
1,note_on,83,64,0
1,note_on,83,0,120
1,note_on,85,64,0
1,note_on,85,0,120
1,note_on,86,68,0
1,note_on,86,0,120
1,note_on,85,64,0
1,note_on,85,0,120
1,note_on,83,62,0
1,note_on,83,0,120
1,note_on,81,61,0
1,note_on,81,0,120
1,note_on,79,58,0
1,note_on,79,0,120
1,note_on,78,58,0
1,note_on,78,0,120
1,note_on,76,64,0
1,note_on,76,0,120
1,note_on,78,57,0
1,note_on,78,0,120
1,note_on,79,57,0
1,note_on,79,0,120
1,note_on,76,57,0
1,note_on,76,0,120
1,note_on,74,65,0
1,note_on,74,0,120
1,note_on,73,57,0
1,note_on,73,0,120
1,note_on,71,59,0
1,note_on,71,0,120
1,note_on,73,57,0
1,note_on,73,0,120
1,note_on,81,64,0
1,note_on,81,0,120
1,note_on,83,64,0
1,note_on,83,0,120
1,note_on,85,68,0
1,note_on,85,0,120
1,note_on,83,64,0
1,note_on,83,0,120
1,note_on,81,62,0
1,note_on,81,0,120
1,note_on,79,61,0
1,note_on,79,0,120
1,note_on,78,58,0
1,note_on,78,0,120
1,note_on,76,58,0
1,note_on,76,0,120
1,note_on,74,64,0
1,note_on,74,0,120
1,note_on,76,57,0
1,note_on,76,0,120
1,note_on,78,57,0
1,note_on,78,0,120
1,note_on,74,57,0
1,note_on,74,0,120
1,note_on,73,62,0
1,note_on,73,0,120
1,note_on,71,57,0
1,note_on,71,0,120
1,note_on,70,57,0
1,note_on,70,0,120
1,note_on,71,57,0
1,note_on,71,0,120
1,note_on,79,64,0
1,note_on,79,0,120
1,note_on,81,64,0
1,note_on,81,0,120
1,note_on,83,68,0
1,note_on,83,0,120
1,note_on,81,64,0
1,note_on,81,0,120
1,note_on,79,62,0
1,note_on,79,0,120
1,note_on,78,58,0
1,note_on,78,0,120
1,note_on,76,63,0
1,note_on,76,0,120
1,note_on,74,58,0
1,note_on,74,0,120
1,note_on,73,64,0
1,note_on,73,0,120
1,note_on,74,55,0
1,note_on,74,0,120
1,note_on,76,57,0
1,note_on,76,0,120
1,note_on,74,55,0
1,note_on,74,0,120
1,note_on,73,62,0
1,note_on,73,0,120
1,note_on,71,55,0
1,note_on,71,0,120
1,note_on,69,57,0
1,note_on,69,0,120
1,note_on,67,55,0
1,note_on,67,0,120
1,note_on,66,64,0
1,note_on,66,0,120
1,note_on,67,55,0
1,note_on,67,0,120
1,note_on,69,57,0
1,note_on,69,0,120
1,note_on,66,55,0
1,note_on,66,0,120
1,note_on,64,62,0
1,note_on,64,0,120
1,note_on,62,55,0
1,note_on,62,0,120
1,note_on,61,57,0
1,note_on,61,0,120
1,note_on,62,54,0
1,note_on,62,0,120
1,note_on,71,64,0
1,note_on,71,0,120
1,note_on,73,53,0
1,note_on,73,0,120
1,note_on,74,57,0
1,note_on,74,0,120
1,note_on,71,54,0
1,note_on,71,0,120
1,note_on,69,62,0
1,note_on,69,0,120
1,note_on,67,56,0
1,note_on,67,0,120
1,note_on,66,57,0
1,note_on,66,0,120
1,note_on,64,54,0
1,note_on,64,0,120
1,note_on,63,64,0
1,note_on,63,0,120
1,note_on,64,50,0
1,note_on,64,0,120
1,note_on,66,57,0
1,note_on,66,0,120
1,note_on,64,53,0
1,note_on,64,0,120
1,note_on,67,62,0
1,note_on,67,0,120
1,note_on,66,57,0
1,note_on,66,0,120
1,note_on,69,61,0
1,note_on,69,0,120
1,note_on,67,57,0
1,note_on,67,0,120
1,note_on,71,63,0
1,note_on,71,0,240
1,note_on,79,43,240
1,note_on,79,0,120
1,note_on,78,39,0
1,note_on,78,0,120
1,note_on,81,42,0
1,note_on,81,0,120
1,note_on,79,39,0
1,note_on,79,0,120
1,note_on,83,44,0
1,note_on,83,0,240
1,note_on,55,33,240
1,note_on,55,0,120
1,note_on,54,28,0
1,note_on,54,0,120
1,note_on,57,33,0
1,note_on,57,0,120
1,note_on,55,28,0
1,note_on,55,0,120
1,note_on,59,31,0
1,note_on,59,0,240
1,note_on,63,64,420
1,note_on,63,0,60
1,note_on,75,70,0
1,note_on,75,0,180
1,note_on,64,65,0
1,note_on,64,0,60
1,note_on,76,72,0
1,note_on,76,0,180
1,note_on,66,68,0
1,note_on,66,0,60
1,note_on,78,74,0
1,note_on,78,0,180
1,note_on,67,69,0
1,note_on,67,0,60
1,note_on,79,75,0
1,note_on,79,0,180
1,note_on,70,71,0
1,note_on,70,0,60
1,note_on,82,77,0
1,note_on,82,0,180
1,note_on,71,71,0
1,note_on,71,0,60
1,note_on,83,72,0
1,note_on,83,0,180
1,note_on,73,68,0
1,note_on,73,0,60
1,note_on,85,74,0
1,note_on,85,0,180
1,note_on,74,69,0
1,note_on,74,0,60
1,note_on,86,75,0
1,note_on,86,0,180
1,note_on,68,71,0
1,note_on,68,0,60
1,note_on,80,77,0
1,note_on,80,0,180
1,note_on,69,71,0
1,note_on,69,0,60
1,note_on,81,79,0
1,note_on,81,0,720
1,note_on,79,72,0
1,note_on,79,0,60
1,note_on,78,72,0
1,note_on,78,0,60
1,note_on,76,72,0
1,note_on,76,0,60
1,note_on,74,72,0
1,note_on,74,0,60
1,note_on,76,69,0
1,note_on,76,0,60
1,note_on,78,49,0
1,note_on,78,0,60
1,note_on,76,61,0
1,note_on,76,0,60
1,note_on,78,55,0
1,note_on,78,0,60
1,note_on,76,64,0
1,note_on,76,0,60
1,note_on,78,58,0
1,note_on,78,0,60
1,note_on,76,67,0
1,note_on,76,0,60
1,note_on,78,62,0
1,note_on,78,0,60
1,note_on,76,70,0
1,note_on,76,0,60
1,note_on,78,61,0
1,note_on,78,0,60
1,note_on,76,63,0
1,note_on,76,0,60
1,note_on,78,55,0
1,note_on,78,0,60
1,note_on,76,66,0
1,note_on,76,0,60
1,note_on,78,57,0
1,note_on,78,0,60
1,note_on,76,69,0
1,note_on,76,0,60
1,note_on,78,59,0
1,note_on,78,0,60
1,note_on,74,69,0
1,note_on,74,0,480
1,note_on,69,69,240
1,note_on,69,0,240
1,note_on,71,64,0
1,note_on,71,0,60
1,note_on,73,59,0
1,note_on,73,0,60
1,note_on,71,68,0
1,note_on,71,0,120
1,note_on,69,62,0
1,note_on,69,0,240
1,note_on,71,62,0
1,note_on,71,0,60
1,note_on,73,62,0
1,note_on,73,0,60
1,note_on,71,69,0
1,note_on,71,0,120
1,note_on,69,63,0
1,note_on,69,0,150
1,note_on,69,64,0
1,note_on,73,69,30
1,note_on,76,73,30
1,note_on,79,77,30
1,note_on,79,0,480
1,note_on,69,0,0
1,note_on,73,0,0
1,note_on,76,0,0
1,note_on,78,69,240
1,note_on,78,0,240
1,note_on,76,64,0
1,note_on,76,0,120
1,note_on,78,50,0
1,note_on,78,0,30
1,note_on,76,55,0
1,note_on,76,0,30
1,note_on,75,58,0
1,note_on,75,0,30
1,note_on,76,60,0
1,note_on,76,0,30
1,note_on,79,62,0
1,note_on,79,0,240
1,note_on,69,62,0
1,note_on,69,0,120
1,note_on,71,54,0
1,note_on,71,0,30
1,note_on,69,55,0
1,note_on,69,0,30
1,note_on,68,59,0
1,note_on,68,0,30
1,note_on,69,59,0
1,note_on,69,0,30
1,note_on,73,63,0
1,note_on,67,60,0
1,note_on,67,0,240
1,note_on,73,0,0
1,note_on,66,58,0
1,note_on,74,69,0
1,note_on,74,0,480
1,note_on,66,0,0
1,note_on,69,69,240
1,note_on,69,0,240
1,note_on,71,64,0
1,note_on,71,0,60
1,note_on,73,59,0
1,note_on,73,0,60
1,note_on,71,68,0
1,note_on,71,0,120
1,note_on,69,62,0
1,note_on,69,0,240
1,note_on,71,62,0
1,note_on,71,0,60
1,note_on,73,62,0
1,note_on,73,0,60
1,note_on,71,69,0
1,note_on,71,0,120
1,note_on,69,63,0
1,note_on,69,0,150
1,note_on,69,64,0
1,note_on,73,69,30
1,note_on,76,73,30
1,note_on,79,77,30
1,note_on,79,0,480
1,note_on,69,0,0
1,note_on,73,0,0
1,note_on,76,0,0
1,note_on,78,69,240
1,note_on,78,0,240
1,note_on,76,64,0
1,note_on,76,0,120
1,note_on,78,50,0
1,note_on,78,0,30
1,note_on,76,55,0
1,note_on,76,0,30
1,note_on,75,58,0
1,note_on,75,0,30
1,note_on,76,60,0
1,note_on,76,0,30
1,note_on,79,62,0
1,note_on,79,0,240
1,note_on,69,62,0
1,note_on,69,0,120
1,note_on,71,54,0
1,note_on,71,0,30
1,note_on,69,55,0
1,note_on,69,0,30
1,note_on,68,59,0
1,note_on,68,0,30
1,note_on,69,59,0
1,note_on,69,0,30
1,note_on,67,60,0
1,note_on,73,63,0
1,note_on,73,0,240
1,note_on,67,0,0
1,note_on,66,58,0
1,note_on,74,69,0
1,note_on,74,0,240
1,note_on,66,0,0
1,note_on,57,57,360
1,note_on,57,0,120
1,note_on,61,57,0
1,note_on,61,0,120
1,note_on,69,50,0
1,note_on,69,0,120
1,note_on,57,53,120
1,note_on,57,0,120
1,note_on,62,57,0
1,note_on,62,0,120
1,note_on,69,49,0
1,note_on,69,0,120
1,note_on,52,39,120
1,note_on,52,0,120
1,note_on,55,51,0
1,note_on,55,0,120
1,note_on,61,42,0
1,note_on,61,0,120
1,note_on,54,53,0
1,note_on,62,53,0
1,note_on,62,0,480
1,note_on,54,0,0
2,note_on,50,75,960
2,note_on,38,63,0
2,note_on,38,0,480
2,note_on,50,0,0
2,note_on,66,42,240
2,note_on,62,36,0
2,note_on,62,0,60
2,note_on,66,0,0
2,note_on,67,48,180
2,note_on,62,40,0
2,note_on,62,0,240
2,note_on,67,0,0
2,note_on,66,40,0
2,note_on,62,34,0
2,note_on,62,0,240
2,note_on,66,0,0
2,note_on,50,75,480
2,note_on,38,63,0
2,note_on,38,0,480
2,note_on,50,0,0
2,note_on,62,42,240
2,note_on,62,0,60
2,note_on,57,48,180
2,note_on,57,0,240
2,note_on,62,40,0
2,note_on,62,0,240
2,note_on,62,40,720
2,note_on,54,40,0
2,note_on,54,0,60
2,note_on,62,0,0
2,note_on,62,45,180
2,note_on,54,45,0
2,note_on,54,0,60
2,note_on,62,0,0
2,note_on,62,40,660
2,note_on,55,40,0
2,note_on,55,0,60
2,note_on,62,0,0
2,note_on,62,45,180
2,note_on,55,45,0
2,note_on,55,0,60
2,note_on,62,0,0
2,note_on,57,46,420
2,note_on,57,0,480
2,note_on,45,40,0
2,note_on,45,0,480
2,note_on,50,36,0
2,note_on,50,0,480
2,note_on,38,32,0
2,note_on,38,0,240
2,note_on,62,40,480
2,note_on,54,40,0
2,note_on,54,0,60
2,note_on,62,0,0
2,note_on,62,45,180
2,note_on,54,45,0
2,note_on,54,0,60
2,note_on,62,0,0
2,note_on,62,40,660
2,note_on,55,40,0
2,note_on,55,0,60
2,note_on,62,0,0
2,note_on,62,45,180
2,note_on,55,45,0
2,note_on,55,0,60
2,note_on,62,0,0
2,note_on,57,48,420
2,note_on,57,0,240
2,note_on,45,39,240
2,note_on,45,0,240
2,note_on,38,48,240
2,note_on,38,0,480
2,note_on,56,43,1680
2,note_on,56,0,240
2,note_on,57,48,0
2,note_on,57,0,180
2,note_on,49,43,1500
2,note_on,49,0,240
2,note_on,50,48,0
2,note_on,50,0,180
2,note_on,55,52,1260
2,note_on,55,0,120
2,note_on,62,45,0
2,note_on,62,0,120
2,note_on,55,54,0
2,note_on,55,0,120
2,note_on,62,39,0
2,note_on,62,0,120
2,note_on,54,49,0
2,note_on,54,0,120
2,note_on,62,38,0
2,note_on,62,0,120
2,note_on,54,49,0
2,note_on,54,0,120
2,note_on,62,43,0
2,note_on,62,0,120
2,note_on,59,52,0
2,note_on,59,0,120
2,note_on,62,45,0
2,note_on,62,0,120
2,note_on,59,54,0
2,note_on,59,0,120
2,note_on,62,39,0
2,note_on,62,0,120
2,note_on,57,49,0
2,note_on,57,0,120
2,note_on,62,38,0
2,note_on,62,0,120
2,note_on,57,49,0
2,note_on,57,0,120
2,note_on,62,43,0
2,note_on,62,0,120
2,note_on,55,52,0
2,note_on,55,0,120
2,note_on,62,45,0
2,note_on,62,0,120
2,note_on,55,54,0
2,note_on,55,0,120
2,note_on,62,39,0
2,note_on,62,0,120
2,note_on,54,49,0
2,note_on,54,0,120
2,note_on,62,38,0
2,note_on,62,0,120
2,note_on,54,49,0
2,note_on,54,0,120
2,note_on,62,43,0
2,note_on,62,0,120
2,note_on,59,52,0
2,note_on,59,0,120
2,note_on,62,45,0
2,note_on,62,0,120
2,note_on,59,54,0
2,note_on,59,0,120
2,note_on,62,39,0
2,note_on,62,0,120
2,note_on,57,49,0
2,note_on,57,0,120
2,note_on,62,38,0
2,note_on,62,0,120
2,note_on,57,49,0
2,note_on,57,0,120
2,note_on,62,43,0
2,note_on,62,0,120
2,note_on,55,52,0
2,note_on,55,0,480
2,note_on,55,40,240
2,note_on,43,34,0
2,note_on,43,0,240
2,note_on,55,0,0
2,note_on,54,48,0
2,note_on,45,40,0
2,note_on,54,0,960
2,note_on,52,45,0
2,note_on,52,0,240
2,note_on,45,0,0
2,note_on,45,63,720
2,note_on,49,63,0
2,note_on,57,75,0
2,note_on,52,63,0
2,note_on,52,0,240
2,note_on,45,0,0
2,note_on,49,0,0
2,note_on,57,0,0
2,note_on,45,63,240
2,note_on,49,63,0
2,note_on,57,75,0
2,note_on,52,63,0
2,note_on,52,0,240
2,note_on,45,0,0
2,note_on,49,0,0
2,note_on,57,0,0
2,note_on,45,63,240
2,note_on,49,63,0
2,note_on,57,75,0
2,note_on,52,63,0
2,note_on,52,0,240
2,note_on,45,0,0
2,note_on,49,0,0
2,note_on,57,0,0
2,note_on,45,46,720
2,note_on,45,0,120
2,note_on,52,38,0
2,note_on,52,0,120
2,note_on,50,46,0
2,note_on,50,0,120
2,note_on,52,39,0
2,note_on,52,0,120
2,note_on,49,47,0
2,note_on,49,0,120
2,note_on,52,38,0
2,note_on,52,0,120
2,note_on,45,49,0
2,note_on,45,0,120
2,note_on,49,41,0
2,note_on,49,0,120
2,note_on,50,46,0
2,note_on,50,0,480
2,note_on,51,46,480
2,note_on,51,0,120
2,note_on,54,38,0
2,note_on,54,0,120
2,note_on,52,46,0
2,note_on,52,0,120
2,note_on,54,39,0
2,note_on,54,0,120
2,note_on,51,47,0
2,note_on,51,0,120
2,note_on,54,38,0
2,note_on,54,0,120
2,note_on,47,49,0
2,note_on,47,0,120
2,note_on,51,41,0
2,note_on,51,0,120
2,note_on,52,46,0
2,note_on,52,0,480
2,note_on,54,52,480
2,note_on,54,0,120
2,note_on,60,45,0
2,note_on,60,0,120
2,note_on,54,54,0
2,note_on,54,0,120
2,note_on,60,38,0
2,note_on,60,0,120
2,note_on,54,45,0
2,note_on,54,0,120
2,note_on,60,33,0
2,note_on,60,0,120
2,note_on,54,42,0
2,note_on,54,0,120
2,note_on,60,35,0
2,note_on,60,0,120
2,note_on,56,52,0
2,note_on,56,0,120
2,note_on,59,45,0
2,note_on,59,0,120
2,note_on,56,54,0
2,note_on,56,0,120
2,note_on,59,39,0
2,note_on,59,0,120
2,note_on,56,49,0
2,note_on,56,0,120
2,note_on,59,38,0
2,note_on,59,0,120
2,note_on,56,49,0
2,note_on,56,0,120
2,note_on,59,43,0
2,note_on,59,0,120
2,note_on,54,52,0
2,note_on,54,0,120
2,note_on,60,45,0
2,note_on,60,0,120
2,note_on,54,54,0
2,note_on,54,0,120
2,note_on,60,38,0
2,note_on,60,0,120
2,note_on,54,46,0
2,note_on,54,0,120
2,note_on,60,37,0
2,note_on,60,0,120
2,note_on,54,46,0
2,note_on,54,0,120
2,note_on,60,37,0
2,note_on,60,0,120
2,note_on,56,52,0
2,note_on,56,0,120
2,note_on,59,45,0
2,note_on,59,0,120
2,note_on,56,54,0
2,note_on,56,0,120
2,note_on,59,39,0
2,note_on,59,0,120
2,note_on,56,49,0
2,note_on,56,0,120
2,note_on,59,38,0
2,note_on,59,0,120
2,note_on,56,49,0
2,note_on,56,0,120
2,note_on,59,43,0
2,note_on,59,0,120
2,note_on,57,52,0
2,note_on,57,0,120
2,note_on,61,45,0
2,note_on,61,0,120
2,note_on,57,54,0
2,note_on,57,0,120
2,note_on,61,33,0
2,note_on,61,0,120
2,note_on,57,43,0
2,note_on,57,0,120
2,note_on,61,38,0
2,note_on,61,0,120
2,note_on,57,43,0
2,note_on,57,0,120
2,note_on,61,38,0
2,note_on,61,0,120
2,note_on,59,52,0
2,note_on,59,0,120
2,note_on,62,45,0
2,note_on,62,0,120
2,note_on,59,54,0
2,note_on,59,0,120
2,note_on,62,39,0
2,note_on,62,0,120
2,note_on,59,49,0
2,note_on,59,0,120
2,note_on,62,38,0
2,note_on,62,0,120
2,note_on,59,49,0
2,note_on,59,0,120
2,note_on,62,43,0
2,note_on,62,0,120
2,note_on,61,52,0
2,note_on,61,0,120
2,note_on,64,45,0
2,note_on,64,0,120
2,note_on,61,54,0
2,note_on,61,0,120
2,note_on,64,39,0
2,note_on,64,0,120
2,note_on,61,49,0
2,note_on,61,0,120
2,note_on,64,38,0
2,note_on,64,0,120
2,note_on,61,49,0
2,note_on,61,0,120
2,note_on,64,43,0
2,note_on,64,0,120
2,note_on,56,52,0
2,note_on,56,0,120
2,note_on,64,45,0
2,note_on,64,0,120
2,note_on,56,54,0
2,note_on,56,0,120
2,note_on,64,39,0
2,note_on,64,0,120
2,note_on,56,49,0
2,note_on,56,0,120
2,note_on,64,38,0
2,note_on,64,0,120
2,note_on,56,49,0
2,note_on,56,0,120
2,note_on,64,43,0
2,note_on,64,0,120
2,note_on,57,52,0
2,note_on,57,0,480
2,note_on,56,52,480
2,note_on,59,52,0
2,note_on,59,0,480
2,note_on,56,0,0
2,note_on,45,52,480
2,note_on,57,52,0
2,note_on,57,0,480
2,note_on,45,0,0
2,note_on,52,54,480
2,note_on,52,0,120
2,note_on,51,50,0
2,note_on,51,0,120
2,note_on,52,50,0
2,note_on,52,0,120
2,note_on,54,50,0
2,note_on,54,0,120
2,note_on,52,55,0
2,note_on,52,0,120
2,note_on,50,49,0
2,note_on,50,0,120
2,note_on,49,49,0
2,note_on,49,0,120
2,note_on,47,49,0
2,note_on,47,0,120
2,note_on,45,57,0
2,note_on,45,0,480
2,note_on,62,57,480
2,note_on,62,0,480
2,note_on,38,57,480
2,note_on,38,0,480
2,note_on,57,39,1680
2,note_on,49,32,0
2,note_on,49,0,240
2,note_on,50,39,0
2,note_on,50,0,240
2,note_on,57,0,0
2,note_on,52,32,0
2,note_on,56,39,0
2,note_on,56,0,240
2,note_on,52,0,0
2,note_on,57,57,0
2,note_on,45,48,0
2,note_on,45,0,240
2,note_on,57,0,0
2,note_on,61,39,240
2,note_on,61,0,240
2,note_on,62,57,240
2,note_on,62,0,480
2,note_on,50,57,480
2,note_on,50,0,480
2,note_on,62,42,4320
2,note_on,66,42,0
2,note_on,71,50,0
2,note_on,71,0,120
2,note_on,66,0,0
2,note_on,62,0,0
2,note_on,62,37,120
2,note_on,66,37,0
2,note_on,71,45,0
2,note_on,71,0,120
2,note_on,66,0,0
2,note_on,62,0,0
2,note_on,62,37,120
2,note_on,66,37,0
2,note_on,71,45,0
2,note_on,71,0,120
2,note_on,66,0,0
2,note_on,62,0,0
2,note_on,62,37,120
2,note_on,66,37,0
2,note_on,71,45,0
2,note_on,71,0,120
2,note_on,66,0,0
2,note_on,62,0,0
2,note_on,64,42,120
2,note_on,69,42,0
2,note_on,73,50,0
2,note_on,73,0,120
2,note_on,69,0,0
2,note_on,64,0,0
2,note_on,64,37,120
2,note_on,69,37,0
2,note_on,73,45,0
2,note_on,73,0,120
2,note_on,69,0,0
2,note_on,64,0,0
2,note_on,64,37,120
2,note_on,69,37,0
2,note_on,73,45,0
2,note_on,73,0,120
2,note_on,69,0,0
2,note_on,64,0,0
2,note_on,64,37,120
2,note_on,69,37,0
2,note_on,73,45,0
2,note_on,73,0,120
2,note_on,69,0,0
2,note_on,64,0,0
2,note_on,64,50,120
2,note_on,68,50,0
2,note_on,68,0,120
2,note_on,64,0,0
2,note_on,64,45,120
2,note_on,68,45,0
2,note_on,68,0,120
2,note_on,64,0,0
2,note_on,64,45,120
2,note_on,68,45,0
2,note_on,68,0,120
2,note_on,64,0,0
2,note_on,64,45,120
2,note_on,68,45,0
2,note_on,68,0,120
2,note_on,64,0,0
2,note_on,57,57,120
2,note_on,57,0,120
2,note_on,69,47,0
2,note_on,69,0,120
2,note_on,68,50,0
2,note_on,68,0,120
2,note_on,69,47,0
2,note_on,69,0,120
2,note_on,61,57,0
2,note_on,61,0,120
2,note_on,69,48,0
2,note_on,69,0,120
2,note_on,68,50,0
2,note_on,68,0,120
2,note_on,69,47,0
2,note_on,69,0,120
2,note_on,62,57,0
2,note_on,62,0,120
2,note_on,69,47,0
2,note_on,69,0,120
2,note_on,61,50,0
2,note_on,61,0,120
2,note_on,69,47,0
2,note_on,69,0,120
2,note_on,62,57,0
2,note_on,62,0,120
2,note_on,69,48,0
2,note_on,69,0,120
2,note_on,61,50,0
2,note_on,61,0,120
2,note_on,69,47,0
2,note_on,69,0,120
2,note_on,59,48,0
2,note_on,68,57,0
2,note_on,68,0,480
2,note_on,59,0,0
2,note_on,62,57,480
2,note_on,66,57,0
2,note_on,66,0,240
2,note_on,62,0,0
2,note_on,52,48,240
2,note_on,64,57,0
2,note_on,64,0,240
2,note_on,52,0,0
2,note_on,57,57,240
2,note_on,57,0,120
2,note_on,69,47,0
2,note_on,69,0,120
2,note_on,68,50,0
2,note_on,68,0,120
2,note_on,69,47,0
2,note_on,69,0,120
2,note_on,61,57,0
2,note_on,61,0,120
2,note_on,69,48,0
2,note_on,69,0,120
2,note_on,68,50,0
2,note_on,68,0,120
2,note_on,69,47,0
2,note_on,69,0,120
2,note_on,62,57,0
2,note_on,62,0,120
2,note_on,69,47,0
2,note_on,69,0,120
2,note_on,61,50,0
2,note_on,61,0,120
2,note_on,69,47,0
2,note_on,69,0,120
2,note_on,62,57,0
2,note_on,62,0,120
2,note_on,69,48,0
2,note_on,69,0,120
2,note_on,61,50,0
2,note_on,61,0,120
2,note_on,69,47,0
2,note_on,69,0,120
2,note_on,59,48,0
2,note_on,68,57,0
2,note_on,68,0,480
2,note_on,59,0,0
2,note_on,57,49,240
2,note_on,69,58,0
2,note_on,69,0,240
2,note_on,57,0,0
2,note_on,62,48,0
2,note_on,66,57,0
2,note_on,66,0,240
2,note_on,62,0,0
2,note_on,64,39,240
2,note_on,52,33,0
2,note_on,52,0,240
2,note_on,64,0,0
2,note_on,45,38,240
2,note_on,57,45,0
2,note_on,57,0,240
2,note_on,45,0,0
2,note_on,62,41,240
2,note_on,52,34,0
2,note_on,52,0,240
2,note_on,62,0,0
2,note_on,52,38,240
2,note_on,61,45,0
2,note_on,61,0,240
2,note_on,52,0,0
2,note_on,59,39,240
2,note_on,52,33,0
2,note_on,59,0,115
2,note_on,52,0,125
2,note_on,45,36,240
2,note_on,57,43,0
2,note_on,57,0,480
2,note_on,45,0,0
2,note_on,50,75,480
2,note_on,38,63,0
2,note_on,38,0,480
2,note_on,50,0,0
2,note_on,66,42,240
2,note_on,62,36,0
2,note_on,62,0,60
2,note_on,66,0,0
2,note_on,67,48,180
2,note_on,62,40,0
2,note_on,62,0,240
2,note_on,67,0,0
2,note_on,66,40,0
2,note_on,62,34,0
2,note_on,62,0,240
2,note_on,66,0,0
2,note_on,50,75,480
2,note_on,38,63,0
2,note_on,38,0,480
2,note_on,50,0,0
2,note_on,62,42,240
2,note_on,62,0,60
2,note_on,57,48,180
2,note_on,57,0,240
2,note_on,62,40,0
2,note_on,62,0,240
2,note_on,62,40,720
2,note_on,54,40,0
2,note_on,54,0,60
2,note_on,62,0,0
2,note_on,62,45,180
2,note_on,54,45,0
2,note_on,54,0,60
2,note_on,62,0,0
2,note_on,62,40,660
2,note_on,55,40,0
2,note_on,55,0,60
2,note_on,62,0,0
2,note_on,62,45,180
2,note_on,55,45,0
2,note_on,55,0,60
2,note_on,62,0,0
2,note_on,57,46,420
2,note_on,57,0,480
2,note_on,45,40,0
2,note_on,45,0,480
2,note_on,50,36,0
2,note_on,50,0,480
2,note_on,38,32,0
2,note_on,38,0,240
2,note_on,62,40,480
2,note_on,54,40,0
2,note_on,54,0,60
2,note_on,62,0,0
2,note_on,62,45,180
2,note_on,54,45,0
2,note_on,54,0,60
2,note_on,62,0,0
2,note_on,62,40,660
2,note_on,55,40,0
2,note_on,55,0,60
2,note_on,62,0,0
2,note_on,62,45,180
2,note_on,55,45,0
2,note_on,55,0,60
2,note_on,62,0,0
2,note_on,57,48,420
2,note_on,57,0,240
2,note_on,45,39,240
2,note_on,45,0,240
2,note_on,38,48,240
2,note_on,38,0,480
2,note_on,56,43,1680
2,note_on,56,0,240
2,note_on,57,48,0
2,note_on,57,0,180
2,note_on,49,43,1500
2,note_on,49,0,240
2,note_on,50,48,0
2,note_on,50,0,180
2,note_on,55,52,1260
2,note_on,55,0,120
2,note_on,62,45,0
2,note_on,62,0,120
2,note_on,55,54,0
2,note_on,55,0,120
2,note_on,62,39,0
2,note_on,62,0,120
2,note_on,54,49,0
2,note_on,54,0,120
2,note_on,62,38,0
2,note_on,62,0,120
2,note_on,54,49,0
2,note_on,54,0,120
2,note_on,62,43,0
2,note_on,62,0,120
2,note_on,59,52,0
2,note_on,59,0,120
2,note_on,62,45,0
2,note_on,62,0,120
2,note_on,59,54,0
2,note_on,59,0,120
2,note_on,62,39,0
2,note_on,62,0,120
2,note_on,57,49,0
2,note_on,57,0,120
2,note_on,62,38,0
2,note_on,62,0,120
2,note_on,57,49,0
2,note_on,57,0,120
2,note_on,62,43,0
2,note_on,62,0,120
2,note_on,55,52,0
2,note_on,55,0,120
2,note_on,62,45,0
2,note_on,62,0,120
2,note_on,55,54,0
2,note_on,55,0,120
2,note_on,62,39,0
2,note_on,62,0,120
2,note_on,54,49,0
2,note_on,54,0,120
2,note_on,62,38,0
2,note_on,62,0,120
2,note_on,54,49,0
2,note_on,54,0,120
2,note_on,62,43,0
2,note_on,62,0,120
2,note_on,59,52,0
2,note_on,59,0,120
2,note_on,62,45,0
2,note_on,62,0,120
2,note_on,59,54,0
2,note_on,59,0,120
2,note_on,62,39,0
2,note_on,62,0,120
2,note_on,57,49,0
2,note_on,57,0,120
2,note_on,62,38,0
2,note_on,62,0,120
2,note_on,57,49,0
2,note_on,57,0,120
2,note_on,62,43,0
2,note_on,62,0,120
2,note_on,55,52,0
2,note_on,55,0,480
2,note_on,55,40,240
2,note_on,43,34,0
2,note_on,43,0,240
2,note_on,55,0,0
2,note_on,54,48,0
2,note_on,45,40,0
2,note_on,54,0,960
2,note_on,52,45,0
2,note_on,52,0,240
2,note_on,45,0,0
2,note_on,45,63,720
2,note_on,49,63,0
2,note_on,57,75,0
2,note_on,52,63,0
2,note_on,52,0,240
2,note_on,45,0,0
2,note_on,49,0,0
2,note_on,57,0,0
2,note_on,45,63,240
2,note_on,49,63,0
2,note_on,57,75,0
2,note_on,52,63,0
2,note_on,52,0,240
2,note_on,45,0,0
2,note_on,49,0,0
2,note_on,57,0,0
2,note_on,45,63,240
2,note_on,49,63,0
2,note_on,57,75,0
2,note_on,52,63,0
2,note_on,52,0,240
2,note_on,45,0,0
2,note_on,49,0,0
2,note_on,57,0,0
2,note_on,45,46,720
2,note_on,45,0,120
2,note_on,52,38,0
2,note_on,52,0,120
2,note_on,50,46,0
2,note_on,50,0,120
2,note_on,52,39,0
2,note_on,52,0,120
2,note_on,49,47,0
2,note_on,49,0,120
2,note_on,52,38,0
2,note_on,52,0,120
2,note_on,45,49,0
2,note_on,45,0,120
2,note_on,49,41,0
2,note_on,49,0,120
2,note_on,50,46,0
2,note_on,50,0,480
2,note_on,51,46,480
2,note_on,51,0,120
2,note_on,54,38,0
2,note_on,54,0,120
2,note_on,52,46,0
2,note_on,52,0,120
2,note_on,54,39,0
2,note_on,54,0,120
2,note_on,51,47,0
2,note_on,51,0,120
2,note_on,54,38,0
2,note_on,54,0,120
2,note_on,47,49,0
2,note_on,47,0,120
2,note_on,51,41,0
2,note_on,51,0,120
2,note_on,52,46,0
2,note_on,52,0,480
2,note_on,54,52,480
2,note_on,54,0,120
2,note_on,60,45,0
2,note_on,60,0,120
2,note_on,54,54,0
2,note_on,54,0,120
2,note_on,60,39,0
2,note_on,60,0,120
2,note_on,54,43,0
2,note_on,54,0,120
2,note_on,60,36,0
2,note_on,60,0,120
2,note_on,54,45,0
2,note_on,54,0,120
2,note_on,60,37,0
2,note_on,60,0,120
2,note_on,56,52,0
2,note_on,56,0,120
2,note_on,59,45,0
2,note_on,59,0,120
2,note_on,56,54,0
2,note_on,56,0,120
2,note_on,59,39,0
2,note_on,59,0,120
2,note_on,56,49,0
2,note_on,56,0,120
2,note_on,59,38,0
2,note_on,59,0,120
2,note_on,56,49,0
2,note_on,56,0,120
2,note_on,59,43,0
2,note_on,59,0,120
2,note_on,54,52,0
2,note_on,54,0,120
2,note_on,60,45,0
2,note_on,60,0,120
2,note_on,54,54,0
2,note_on,54,0,120
2,note_on,60,39,0
2,note_on,60,0,120
2,note_on,54,42,0
2,note_on,54,0,120
2,note_on,60,37,0
2,note_on,60,0,120
2,note_on,54,45,0
2,note_on,54,0,120
2,note_on,60,38,0
2,note_on,60,0,120
2,note_on,56,52,0
2,note_on,56,0,120
2,note_on,59,45,0
2,note_on,59,0,120
2,note_on,56,54,0
2,note_on,56,0,120
2,note_on,59,39,0
2,note_on,59,0,120
2,note_on,56,49,0
2,note_on,56,0,120
2,note_on,59,38,0
2,note_on,59,0,120
2,note_on,56,49,0
2,note_on,56,0,120
2,note_on,59,43,0
2,note_on,59,0,120
2,note_on,57,52,0
2,note_on,57,0,120
2,note_on,61,45,0
2,note_on,61,0,120
2,note_on,57,54,0
2,note_on,57,0,120
2,note_on,61,39,0
2,note_on,61,0,120
2,note_on,57,46,0
2,note_on,57,0,120
2,note_on,61,38,0
2,note_on,61,0,120
2,note_on,57,46,0
2,note_on,57,0,120
2,note_on,61,39,0
2,note_on,61,0,120
2,note_on,59,52,0
2,note_on,59,0,120
2,note_on,62,45,0
2,note_on,62,0,120
2,note_on,59,54,0
2,note_on,59,0,120
2,note_on,62,39,0
2,note_on,62,0,120
2,note_on,59,49,0
2,note_on,59,0,120
2,note_on,62,38,0
2,note_on,62,0,120
2,note_on,59,49,0
2,note_on,59,0,120
2,note_on,62,43,0
2,note_on,62,0,120
2,note_on,61,52,0
2,note_on,61,0,120
2,note_on,64,45,0
2,note_on,64,0,120
2,note_on,61,54,0
2,note_on,61,0,120
2,note_on,64,39,0
2,note_on,64,0,120
2,note_on,61,49,0
2,note_on,61,0,120
2,note_on,64,38,0
2,note_on,64,0,120
2,note_on,61,49,0
2,note_on,61,0,120
2,note_on,64,43,0
2,note_on,64,0,120
2,note_on,56,52,0
2,note_on,56,0,120
2,note_on,64,45,0
2,note_on,64,0,120
2,note_on,56,54,0
2,note_on,56,0,120
2,note_on,64,39,0
2,note_on,64,0,120
2,note_on,56,49,0
2,note_on,56,0,120
2,note_on,64,38,0
2,note_on,64,0,120
2,note_on,56,49,0
2,note_on,56,0,120
2,note_on,64,43,0
2,note_on,64,0,120
2,note_on,57,52,0
2,note_on,57,0,480
2,note_on,56,52,480
2,note_on,59,52,0
2,note_on,59,0,480
2,note_on,56,0,0
2,note_on,45,52,480
2,note_on,57,52,0
2,note_on,57,0,480
2,note_on,45,0,0
2,note_on,52,54,480
2,note_on,52,0,120
2,note_on,51,50,0
2,note_on,51,0,120
2,note_on,52,50,0
2,note_on,52,0,120
2,note_on,54,50,0
2,note_on,54,0,120
2,note_on,52,55,0
2,note_on,52,0,120
2,note_on,50,49,0
2,note_on,50,0,120
2,note_on,49,49,0
2,note_on,49,0,120
2,note_on,47,49,0
2,note_on,47,0,120
2,note_on,45,57,0
2,note_on,45,0,480
2,note_on,62,57,480
2,note_on,62,0,480
2,note_on,38,57,480
2,note_on,38,0,480
2,note_on,57,39,1680
2,note_on,49,32,0
2,note_on,49,0,240
2,note_on,50,39,0
2,note_on,50,0,240
2,note_on,57,0,0
2,note_on,52,32,0
2,note_on,56,39,0
2,note_on,56,0,240
2,note_on,52,0,0
2,note_on,45,48,0
2,note_on,57,57,12
2,note_on,45,0,228
2,note_on,57,0,12
2,note_on,61,39,228
2,note_on,61,0,240
2,note_on,62,57,240
2,note_on,62,0,480
2,note_on,50,57,480
2,note_on,50,0,480
2,note_on,62,42,4320
2,note_on,66,42,0
2,note_on,71,50,0
2,note_on,71,0,120
2,note_on,66,0,0
2,note_on,62,0,0
2,note_on,62,37,120
2,note_on,66,37,0
2,note_on,71,45,0
2,note_on,71,0,120
2,note_on,66,0,0
2,note_on,62,0,0
2,note_on,62,37,120
2,note_on,66,37,0
2,note_on,71,45,0
2,note_on,71,0,120
2,note_on,66,0,0
2,note_on,62,0,0
2,note_on,62,37,120
2,note_on,66,37,0
2,note_on,71,45,0
2,note_on,71,0,120
2,note_on,66,0,0
2,note_on,62,0,0
2,note_on,64,42,120
2,note_on,69,42,0
2,note_on,73,50,0
2,note_on,73,0,120
2,note_on,69,0,0
2,note_on,64,0,0
2,note_on,64,37,120
2,note_on,69,37,0
2,note_on,73,45,0
2,note_on,73,0,120
2,note_on,69,0,0
2,note_on,64,0,0
2,note_on,64,37,120
2,note_on,69,37,0
2,note_on,73,45,0
2,note_on,73,0,120
2,note_on,69,0,0
2,note_on,64,0,0
2,note_on,64,37,120
2,note_on,69,37,0
2,note_on,73,45,0
2,note_on,73,0,120
2,note_on,69,0,0
2,note_on,64,0,0
2,note_on,64,50,120
2,note_on,68,50,0
2,note_on,68,0,120
2,note_on,64,0,0
2,note_on,64,45,120
2,note_on,68,45,0
2,note_on,68,0,120
2,note_on,64,0,0
2,note_on,64,45,120
2,note_on,68,45,0
2,note_on,68,0,120
2,note_on,64,0,0
2,note_on,64,45,120
2,note_on,68,45,0
2,note_on,68,0,120
2,note_on,64,0,0
2,note_on,57,57,120
2,note_on,57,0,120
2,note_on,69,47,0
2,note_on,69,0,120
2,note_on,68,50,0
2,note_on,68,0,120
2,note_on,69,47,0
2,note_on,69,0,120
2,note_on,61,57,0
2,note_on,61,0,120
2,note_on,69,48,0
2,note_on,69,0,120
2,note_on,68,50,0
2,note_on,68,0,120
2,note_on,69,47,0
2,note_on,69,0,120
2,note_on,62,57,0
2,note_on,62,0,120
2,note_on,69,47,0
2,note_on,69,0,120
2,note_on,61,50,0
2,note_on,61,0,120
2,note_on,69,47,0
2,note_on,69,0,120
2,note_on,62,57,0
2,note_on,62,0,120
2,note_on,69,48,0
2,note_on,69,0,120
2,note_on,61,50,0
2,note_on,61,0,120
2,note_on,69,47,0
2,note_on,69,0,120
2,note_on,59,48,0
2,note_on,68,57,0
2,note_on,68,0,480
2,note_on,59,0,0
2,note_on,62,57,480
2,note_on,66,57,0
2,note_on,66,0,240
2,note_on,62,0,0
2,note_on,52,48,240
2,note_on,64,57,0
2,note_on,64,0,240
2,note_on,52,0,0
2,note_on,57,57,240
2,note_on,57,0,120
2,note_on,69,47,0
2,note_on,69,0,120
2,note_on,68,50,0
2,note_on,68,0,120
2,note_on,69,47,0
2,note_on,69,0,120
2,note_on,61,57,0
2,note_on,61,0,120
2,note_on,69,48,0
2,note_on,69,0,120
2,note_on,68,50,0
2,note_on,68,0,120
2,note_on,69,47,0
2,note_on,69,0,120
2,note_on,62,57,0
2,note_on,62,0,120
2,note_on,69,47,0
2,note_on,69,0,120
2,note_on,61,50,0
2,note_on,61,0,120
2,note_on,69,47,0
2,note_on,69,0,120
2,note_on,62,57,0
2,note_on,62,0,120
2,note_on,69,48,0
2,note_on,69,0,120
2,note_on,61,50,0
2,note_on,61,0,120
2,note_on,69,47,0
2,note_on,69,0,120
2,note_on,59,48,0
2,note_on,68,57,0
2,note_on,68,0,480
2,note_on,59,0,0
2,note_on,57,41,240
2,note_on,69,49,0
2,note_on,69,0,240
2,note_on,57,0,0
2,note_on,62,48,0
2,note_on,66,57,0
2,note_on,66,0,240
2,note_on,62,0,0
2,note_on,64,39,240
2,note_on,52,33,0
2,note_on,52,0,240
2,note_on,64,0,0
2,note_on,45,38,240
2,note_on,57,45,0
2,note_on,57,0,240
2,note_on,45,0,0
2,note_on,62,41,240
2,note_on,52,34,0
2,note_on,52,0,240
2,note_on,62,0,0
2,note_on,52,38,240
2,note_on,61,45,0
2,note_on,61,0,240
2,note_on,52,0,0
2,note_on,59,39,240
2,note_on,52,33,0
2,note_on,59,0,115
2,note_on,52,0,125
2,note_on,45,36,240
2,note_on,57,43,0
2,note_on,57,0,480
2,note_on,45,0,0
2,note_on,30,34,480
2,note_on,42,34,0
2,note_on,52,40,1680
2,note_on,52,0,240
2,note_on,50,46,0
2,note_on,50,0,240
2,note_on,47,41,0
2,note_on,47,0,240
2,note_on,46,46,0
2,note_on,46,0,240
2,note_on,47,39,0
2,note_on,47,0,240
2,note_on,42,0,0
2,note_on,30,0,0
2,note_on,47,46,0
2,note_on,47,0,480
2,note_on,66,42,1200
2,note_on,62,36,0
2,note_on,62,0,60
2,note_on,66,0,0
2,note_on,64,40,180
2,note_on,67,48,0
2,note_on,67,0,240
2,note_on,64,0,0
2,note_on,66,40,0
2,note_on,62,34,0
2,note_on,62,0,240
2,note_on,66,0,0
2,note_on,71,37,1200
2,note_on,74,42,0
2,note_on,74,0,60
2,note_on,71,0,0
2,note_on,73,48,180
2,note_on,70,40,0
2,note_on,70,0,240
2,note_on,73,0,0
2,note_on,74,40,0
2,note_on,71,34,0
2,note_on,71,0,240
2,note_on,74,0,0
2,note_on,71,35,960
2,note_on,74,42,0
2,note_on,74,0,60
2,note_on,71,0,0
2,note_on,73,40,180
2,note_on,69,34,0
2,note_on,69,0,60
2,note_on,73,0,0
2,note_on,67,40,180
2,note_on,71,48,0
2,note_on,71,0,240
2,note_on,67,0,0
2,note_on,66,34,0
2,note_on,69,40,0
2,note_on,69,0,240
2,note_on,66,0,0
2,note_on,50,34,480
2,note_on,59,34,960
2,note_on,50,0,960
2,note_on,51,40,0
2,note_on,59,0,120
2,note_on,57,40,0
2,note_on,57,0,120
2,note_on,56,49,0
2,note_on,56,0,120
2,note_on,57,40,0
2,note_on,57,0,120
2,note_on,59,48,0
2,note_on,59,0,120
2,note_on,57,40,0
2,note_on,57,0,120
2,note_on,60,49,0
2,note_on,60,0,120
2,note_on,57,44,0
2,note_on,51,0,120
2,note_on,52,40,0
2,note_on,57,0,480
2,note_on,55,40,0
2,note_on,55,0,480
2,note_on,52,0,0
2,note_on,61,46,120
2,note_on,61,0,120
2,note_on,59,56,0
2,note_on,59,0,120
2,note_on,61,46,0
2,note_on,61,0,120
2,note_on,62,55,0
2,note_on,62,0,120
2,note_on,61,46,0
2,note_on,61,0,120
2,note_on,64,56,0
2,note_on,64,0,120
2,note_on,59,50,0
2,note_on,59,0,120
2,note_on,58,49,0
2,note_on,66,58,0
2,note_on,58,0,960
2,note_on,59,54,0
2,note_on,59,0,480
2,note_on,66,0,0
2,note_on,65,57,0
2,note_on,55,48,0
2,note_on,55,0,480
2,note_on,65,0,0
2,note_on,66,54,0
2,note_on,54,45,0
2,note_on,54,0,480
2,note_on,66,0,0
2,note_on,42,44,480
2,note_on,42,0,480
2,note_on,53,43,1680
2,note_on,53,0,240
2,note_on,54,48,0
2,note_on,54,0,180
2,note_on,58,43,1500
2,note_on,58,0,240
2,note_on,59,48,0
2,note_on,59,0,180
2,note_on,59,48,540
2,note_on,59,0,120
2,note_on,64,51,120
2,note_on,64,0,120
2,note_on,66,48,120
2,note_on,66,0,120
2,note_on,67,56,120
2,note_on,67,0,480
2,note_on,52,48,240
2,note_on,52,0,120
2,note_on,57,51,120
2,note_on,57,0,120
2,note_on,59,48,120
2,note_on,59,0,120
2,note_on,61,51,120
2,note_on,61,0,120
2,note_on,62,48,120
2,note_on,62,0,120
2,note_on,64,56,120
2,note_on,64,0,480
2,note_on,45,48,240
2,note_on,45,0,120
2,note_on,50,51,120
2,note_on,50,0,120
2,note_on,52,48,120
2,note_on,52,0,120
2,note_on,54,51,120
2,note_on,54,0,120
2,note_on,55,48,120
2,note_on,55,0,120
2,note_on,57,56,120
2,note_on,57,0,480
2,note_on,50,48,240
2,note_on,50,0,240
2,note_on,55,56,0
2,note_on,55,0,480
2,note_on,43,56,480
2,note_on,43,0,480
2,note_on,45,62,480
2,note_on,45,0,120
2,note_on,47,54,0
2,note_on,47,0,120
2,note_on,49,54,0
2,note_on,49,0,120
2,note_on,50,55,0
2,note_on,50,0,120
2,note_on,52,57,0
2,note_on,52,0,120
2,note_on,54,55,0
2,note_on,54,0,120
2,note_on,55,55,0
2,note_on,55,0,120
2,note_on,54,55,0
2,note_on,54,0,120
2,note_on,55,63,0
2,note_on,55,0,480
2,note_on,71,58,5280
2,note_on,71,0,120
2,note_on,73,61,0
2,note_on,73,0,120
2,note_on,74,62,0
2,note_on,74,0,120
2,note_on,73,58,0
2,note_on,73,0,120
2,note_on,71,56,0
2,note_on,71,0,120
2,note_on,69,55,0
2,note_on,69,0,120
2,note_on,67,56,0
2,note_on,67,0,120
2,note_on,66,53,0
2,note_on,66,0,120
2,note_on,67,58,0
2,note_on,67,0,120
2,note_on,69,61,0
2,note_on,69,0,120
2,note_on,71,62,0
2,note_on,71,0,120
2,note_on,69,58,0
2,note_on,69,0,120
2,note_on,67,56,0
2,note_on,67,0,120
2,note_on,66,55,0
2,note_on,66,0,120
2,note_on,64,56,0
2,note_on,64,0,120
2,note_on,62,53,0
2,note_on,62,0,120
2,note_on,61,56,0
2,note_on,61,0,720
2,note_on,62,50,0
2,note_on,62,0,120
2,note_on,61,56,120
2,note_on,61,0,120
2,note_on,62,51,120
2,note_on,62,0,120
2,note_on,61,56,120
2,note_on,61,0,120
2,note_on,63,52,120
2,note_on,63,0,120
2,note_on,57,48,120
2,note_on,64,56,0
2,note_on,64,0,720
2,note_on,63,50,0
2,note_on,63,0,120
2,note_on,64,56,120
2,note_on,64,0,120
2,note_on,63,51,120
2,note_on,63,0,120
2,note_on,64,56,120
2,note_on,64,0,120
2,note_on,63,52,120
2,note_on,63,0,120
2,note_on,57,0,120
2,note_on,57,43,0
2,note_on,64,50,0
2,note_on,64,0,360
2,note_on,63,39,0
2,note_on,63,0,120
2,note_on,64,41,0
2,note_on,64,0,360
2,note_on,63,35,0
2,note_on,63,0,120
2,note_on,64,39,0
2,note_on,64,0,360
2,note_on,63,31,0
2,note_on,64,34,120
2,note_on,63,0,12
2,note_on,63,30,108
2,note_on,64,0,12
2,note_on,64,32,108
2,note_on,63,0,12
2,note_on,63,28,108
2,note_on,64,0,12
2,note_on,64,30,108
2,note_on,63,0,12
2,note_on,64,0,468
2,note_on,57,0,0
2,note_on,57,32,480
2,note_on,57,0,60
2,note_on,61,34,0
2,note_on,61,0,60
2,note_on,64,37,0
2,note_on,64,0,60
2,note_on,67,38,0
2,note_on,67,0,60
2,note_on,50,75,720
2,note_on,38,63,0
2,note_on,38,0,480
2,note_on,50,0,0
2,note_on,66,42,240
2,note_on,62,36,0
2,note_on,62,0,60
2,note_on,66,0,0
2,note_on,67,48,180
2,note_on,62,40,0
2,note_on,62,0,240
2,note_on,67,0,0
2,note_on,66,40,0
2,note_on,62,34,0
2,note_on,62,0,240
2,note_on,66,0,0
2,note_on,50,75,480
2,note_on,38,63,0
2,note_on,38,0,480
2,note_on,50,0,0
2,note_on,62,42,240
2,note_on,62,0,60
2,note_on,57,48,180
2,note_on,57,0,240
2,note_on,62,40,0
2,note_on,62,0,240
2,note_on,62,40,720
2,note_on,54,40,0
2,note_on,54,0,60
2,note_on,62,0,0
2,note_on,62,45,180
2,note_on,54,45,0
2,note_on,54,0,60
2,note_on,62,0,0
2,note_on,62,40,660
2,note_on,55,40,0
2,note_on,55,0,60
2,note_on,62,0,0
2,note_on,62,45,180
2,note_on,55,45,0
2,note_on,55,0,60
2,note_on,62,0,0
2,note_on,57,46,420
2,note_on,57,0,480
2,note_on,45,40,0
2,note_on,45,0,480
2,note_on,50,36,0
2,note_on,50,0,480
2,note_on,38,32,0
2,note_on,38,0,240
2,note_on,62,40,480
2,note_on,54,40,0
2,note_on,54,0,60
2,note_on,62,0,0
2,note_on,62,45,180
2,note_on,54,45,0
2,note_on,54,0,60
2,note_on,62,0,0
2,note_on,62,40,660
2,note_on,55,40,0
2,note_on,55,0,60
2,note_on,62,0,0
2,note_on,62,45,180
2,note_on,55,45,0
2,note_on,55,0,60
2,note_on,62,0,0
2,note_on,57,48,420
2,note_on,57,0,240
2,note_on,45,39,240
2,note_on,45,0,240
2,note_on,38,48,240
2,note_on,38,0,480
2,note_on,56,43,1680
2,note_on,56,0,240
2,note_on,57,48,0
2,note_on,57,0,180
2,note_on,58,43,1500
2,note_on,58,0,240
2,note_on,59,48,0
2,note_on,59,0,180
2,note_on,55,52,1260
2,note_on,55,0,120
2,note_on,62,45,0
2,note_on,62,0,120
2,note_on,55,54,0
2,note_on,55,0,120
2,note_on,62,39,0
2,note_on,62,0,120
2,note_on,54,49,0
2,note_on,54,0,120
2,note_on,62,38,0
2,note_on,62,0,120
2,note_on,54,49,0
2,note_on,54,0,120
2,note_on,62,43,0
2,note_on,62,0,120
2,note_on,59,52,0
2,note_on,59,0,120
2,note_on,62,45,0
2,note_on,62,0,120
2,note_on,59,54,0
2,note_on,59,0,120
2,note_on,62,39,0
2,note_on,62,0,120
2,note_on,57,49,0
2,note_on,57,0,120
2,note_on,62,38,0
2,note_on,62,0,120
2,note_on,57,49,0
2,note_on,57,0,120
2,note_on,62,43,0
2,note_on,62,0,120
2,note_on,55,52,0
2,note_on,55,0,120
2,note_on,62,45,0
2,note_on,62,0,120
2,note_on,55,54,0
2,note_on,55,0,120
2,note_on,62,39,0
2,note_on,62,0,120
2,note_on,54,49,0
2,note_on,54,0,120
2,note_on,62,38,0
2,note_on,62,0,120
2,note_on,54,49,0
2,note_on,54,0,120
2,note_on,62,43,0
2,note_on,62,0,120
2,note_on,59,52,0
2,note_on,59,0,120
2,note_on,62,45,0
2,note_on,62,0,120
2,note_on,59,54,0
2,note_on,59,0,120
2,note_on,62,39,0
2,note_on,62,0,120
2,note_on,57,49,0
2,note_on,57,0,120
2,note_on,62,38,0
2,note_on,62,0,120
2,note_on,57,49,0
2,note_on,57,0,120
2,note_on,62,43,0
2,note_on,62,0,120
2,note_on,55,52,0
2,note_on,55,0,480
2,note_on,55,40,240
2,note_on,43,34,0
2,note_on,43,0,240
2,note_on,55,0,0
2,note_on,54,48,0
2,note_on,45,40,0
2,note_on,54,0,960
2,note_on,52,45,0
2,note_on,52,0,240
2,note_on,45,0,0
2,note_on,45,56,720
2,note_on,49,56,0
2,note_on,55,67,0
2,note_on,52,56,0
2,note_on,52,0,240
2,note_on,45,0,0
2,note_on,49,0,0
2,note_on,55,0,0
2,note_on,45,56,240
2,note_on,49,56,0
2,note_on,55,67,0
2,note_on,52,56,0
2,note_on,52,0,240
2,note_on,45,0,0
2,note_on,49,0,0
2,note_on,55,0,0
2,note_on,45,56,240
2,note_on,49,56,0
2,note_on,55,67,0
2,note_on,52,56,0
2,note_on,52,0,240
2,note_on,45,0,0
2,note_on,49,0,0
2,note_on,55,0,0
2,note_on,45,46,720
2,note_on,45,0,120
2,note_on,52,38,0
2,note_on,52,0,120
2,note_on,50,46,0
2,note_on,50,0,120
2,note_on,52,39,0
2,note_on,52,0,120
2,note_on,49,47,0
2,note_on,49,0,120
2,note_on,52,38,0
2,note_on,52,0,120
2,note_on,45,49,0
2,note_on,45,0,120
2,note_on,49,41,0
2,note_on,49,0,120
2,note_on,50,46,0
2,note_on,50,0,480
2,note_on,50,46,480
2,note_on,50,0,120
2,note_on,57,38,0
2,note_on,57,0,120
2,note_on,55,46,0
2,note_on,55,0,120
2,note_on,57,39,0
2,note_on,57,0,120
2,note_on,54,47,0
2,note_on,54,0,120
2,note_on,57,38,0
2,note_on,57,0,120
2,note_on,50,49,0
2,note_on,50,0,120
2,note_on,54,41,0
2,note_on,54,0,120
2,note_on,55,46,0
2,note_on,55,0,480
2,note_on,52,46,480
2,note_on,52,0,120
2,note_on,59,38,0
2,note_on,59,0,120
2,note_on,57,46,0
2,note_on,57,0,120
2,note_on,59,39,0
2,note_on,59,0,120
2,note_on,56,47,0
2,note_on,56,0,120
2,note_on,59,38,0
2,note_on,59,0,120
2,note_on,52,49,0
2,note_on,52,0,120
2,note_on,56,41,0
2,note_on,56,0,120
2,note_on,57,46,0
2,note_on,57,0,480
2,note_on,59,52,480
2,note_on,59,0,120
2,note_on,65,45,0
2,note_on,65,0,120
2,note_on,59,54,0
2,note_on,59,0,120
2,note_on,65,35,0
2,note_on,65,0,120
2,note_on,59,45,0
2,note_on,59,0,120
2,note_on,65,38,0
2,note_on,65,0,120
2,note_on,59,46,0
2,note_on,59,0,120
2,note_on,65,40,0
2,note_on,65,0,120
2,note_on,61,52,0
2,note_on,61,0,120
2,note_on,64,45,0
2,note_on,64,0,120
2,note_on,61,54,0
2,note_on,61,0,120
2,note_on,64,39,0
2,note_on,64,0,120
2,note_on,61,49,0
2,note_on,61,0,120
2,note_on,64,38,0
2,note_on,64,0,120
2,note_on,61,49,0
2,note_on,61,0,120
2,note_on,64,43,0
2,note_on,64,0,120
2,note_on,59,52,0
2,note_on,59,0,120
2,note_on,65,45,0
2,note_on,65,0,120
2,note_on,59,54,0
2,note_on,59,0,120
2,note_on,65,37,0
2,note_on,65,0,120
2,note_on,59,47,0
2,note_on,59,0,120
2,note_on,65,37,0
2,note_on,65,0,120
2,note_on,59,46,0
2,note_on,59,0,120
2,note_on,65,39,0
2,note_on,65,0,120
2,note_on,61,52,0
2,note_on,61,0,120
2,note_on,64,45,0
2,note_on,64,0,120
2,note_on,61,54,0
2,note_on,61,0,120
2,note_on,64,39,0
2,note_on,64,0,120
2,note_on,61,49,0
2,note_on,61,0,120
2,note_on,64,38,0
2,note_on,64,0,120
2,note_on,61,49,0
2,note_on,61,0,120
2,note_on,64,43,0
2,note_on,64,0,120
2,note_on,62,52,0
2,note_on,62,0,120
2,note_on,66,45,0
2,note_on,66,0,120
2,note_on,62,54,0
2,note_on,62,0,120
2,note_on,66,39,0
2,note_on,66,0,120
2,note_on,62,49,0
2,note_on,62,0,120
2,note_on,66,38,0
2,note_on,66,0,120
2,note_on,62,49,0
2,note_on,62,0,120
2,note_on,66,43,0
2,note_on,66,0,120
2,note_on,64,52,0
2,note_on,64,0,120
2,note_on,67,45,0
2,note_on,67,0,120
2,note_on,64,54,0
2,note_on,64,0,120
2,note_on,67,39,0
2,note_on,67,0,120
2,note_on,64,49,0
2,note_on,64,0,120
2,note_on,67,38,0
2,note_on,67,0,120
2,note_on,64,49,0
2,note_on,64,0,120
2,note_on,67,43,0
2,note_on,67,0,120
2,note_on,66,52,0
2,note_on,66,0,120
2,note_on,69,45,0
2,note_on,69,0,120
2,note_on,66,54,0
2,note_on,66,0,120
2,note_on,69,39,0
2,note_on,69,0,120
2,note_on,66,49,0
2,note_on,66,0,120
2,note_on,69,38,0
2,note_on,69,0,120
2,note_on,66,49,0
2,note_on,66,0,120
2,note_on,69,43,0
2,note_on,69,0,120
2,note_on,61,52,0
2,note_on,61,0,120
2,note_on,69,45,0
2,note_on,69,0,120
2,note_on,61,54,0
2,note_on,61,0,120
2,note_on,69,39,0
2,note_on,69,0,120
2,note_on,61,49,0
2,note_on,61,0,120
2,note_on,69,38,0
2,note_on,69,0,120
2,note_on,61,49,0
2,note_on,61,0,120
2,note_on,69,43,0
2,note_on,69,0,120
2,note_on,62,52,0
2,note_on,62,0,480
2,note_on,61,37,480
2,note_on,64,44,0
2,note_on,64,0,480
2,note_on,61,0,0
2,note_on,50,52,480
2,note_on,50,0,480
2,note_on,57,54,480
2,note_on,57,0,120
2,note_on,56,50,0
2,note_on,56,0,120
2,note_on,57,50,0
2,note_on,57,0,120
2,note_on,59,50,0
2,note_on,59,0,120
2,note_on,57,55,0
2,note_on,57,0,120
2,note_on,55,49,0
2,note_on,55,0,120
2,note_on,54,49,0
2,note_on,54,0,120
2,note_on,52,49,0
2,note_on,52,0,120
2,note_on,50,57,0
2,note_on,50,0,480
2,note_on,67,57,480
2,note_on,67,0,480
2,note_on,55,57,480
2,note_on,55,0,480
2,note_on,62,39,1680
2,note_on,54,32,0
2,note_on,54,0,240
2,note_on,55,39,0
2,note_on,55,0,240
2,note_on,62,0,0
2,note_on,57,32,0
2,note_on,61,39,0
2,note_on,61,0,240
2,note_on,57,0,0
2,note_on,62,57,0
2,note_on,62,0,240
2,note_on,66,39,240
2,note_on,66,0,240
2,note_on,67,54,240
2,note_on,67,0,120
2,note_on,69,54,0
2,note_on,69,0,120
2,note_on,71,57,0
2,note_on,71,0,120
2,note_on,69,54,0
2,note_on,69,0,120
2,note_on,67,52,0
2,note_on,67,0,120
2,note_on,66,51,0
2,note_on,66,0,120
2,note_on,64,49,0
2,note_on,64,0,120
2,note_on,62,49,0
2,note_on,62,0,120
2,note_on,61,57,0
2,note_on,61,0,240
2,note_on,64,39,240
2,note_on,64,0,240
2,note_on,66,54,240
2,note_on,66,0,120
2,note_on,67,54,0
2,note_on,67,0,120
2,note_on,69,57,0
2,note_on,69,0,120
2,note_on,67,54,0
2,note_on,67,0,120
2,note_on,66,52,0
2,note_on,66,0,120
2,note_on,64,51,0
2,note_on,64,0,120
2,note_on,62,49,0
2,note_on,62,0,120
2,note_on,61,49,0
2,note_on,61,0,120
2,note_on,59,57,0
2,note_on,59,0,240
2,note_on,62,39,240
2,note_on,62,0,240
2,note_on,64,54,240
2,note_on,64,0,120
2,note_on,66,54,0
2,note_on,66,0,120
2,note_on,67,57,0
2,note_on,67,0,120
2,note_on,66,54,0
2,note_on,66,0,120
2,note_on,64,52,0
2,note_on,64,0,120
2,note_on,62,51,0
2,note_on,62,0,120
2,note_on,61,49,0
2,note_on,61,0,120
2,note_on,59,49,0
2,note_on,59,0,120
2,note_on,57,57,0
2,note_on,57,0,240
2,note_on,61,39,240
2,note_on,61,0,240
2,note_on,62,57,240
2,note_on,62,0,480
2,note_on,55,57,480
2,note_on,55,0,480
2,note_on,43,57,480
2,note_on,43,0,480
2,note_on,62,42,5280
2,note_on,57,42,0
2,note_on,66,50,0
2,note_on,66,0,120
2,note_on,57,0,0
2,note_on,62,0,0
2,note_on,57,37,120
2,note_on,62,37,0
2,note_on,66,45,0
2,note_on,66,0,120
2,note_on,62,0,0
2,note_on,57,0,0
2,note_on,57,37,120
2,note_on,62,37,0
2,note_on,66,45,0
2,note_on,66,0,120
2,note_on,62,0,0
2,note_on,57,0,0
2,note_on,57,37,120
2,note_on,62,37,0
2,note_on,66,45,0
2,note_on,66,0,120
2,note_on,62,0,0
2,note_on,57,0,0
2,note_on,57,50,120
2,note_on,61,50,0
2,note_on,61,0,120
2,note_on,57,0,0
2,note_on,57,45,120
2,note_on,61,45,0
2,note_on,61,0,120
2,note_on,57,0,0
2,note_on,57,45,120
2,note_on,61,45,0
2,note_on,61,0,120
2,note_on,57,0,0
2,note_on,57,45,120
2,note_on,61,45,0
2,note_on,61,0,120
2,note_on,57,0,0
2,note_on,50,57,120
2,note_on,50,0,120
2,note_on,62,47,0
2,note_on,62,0,120
2,note_on,61,50,0
2,note_on,61,0,120
2,note_on,62,47,0
2,note_on,62,0,120
2,note_on,54,57,0
2,note_on,54,0,120
2,note_on,62,48,0
2,note_on,62,0,120
2,note_on,61,50,0
2,note_on,61,0,120
2,note_on,62,47,0
2,note_on,62,0,120
2,note_on,55,57,0
2,note_on,55,0,120
2,note_on,62,47,0
2,note_on,62,0,120
2,note_on,54,50,0
2,note_on,54,0,120
2,note_on,62,47,0
2,note_on,62,0,120
2,note_on,55,57,0
2,note_on,55,0,120
2,note_on,62,48,0
2,note_on,62,0,120
2,note_on,54,50,0
2,note_on,54,0,120
2,note_on,62,47,0
2,note_on,62,0,120
2,note_on,52,48,0
2,note_on,61,57,0
2,note_on,61,0,480
2,note_on,52,0,0
2,note_on,50,49,240
2,note_on,62,58,0
2,note_on,62,0,240
2,note_on,50,0,0
2,note_on,55,57,0
2,note_on,59,57,0
2,note_on,59,0,240
2,note_on,55,0,0
2,note_on,45,48,240
2,note_on,57,57,0
2,note_on,57,0,240
2,note_on,45,0,0
2,note_on,50,57,240
2,note_on,50,0,120
2,note_on,62,47,0
2,note_on,62,0,120
2,note_on,61,50,0
2,note_on,61,0,120
2,note_on,62,47,0
2,note_on,62,0,120
2,note_on,54,57,0
2,note_on,54,0,120
2,note_on,62,48,0
2,note_on,62,0,120
2,note_on,61,50,0
2,note_on,61,0,120
2,note_on,62,47,0
2,note_on,62,0,120
2,note_on,55,57,0
2,note_on,55,0,120
2,note_on,62,47,0
2,note_on,62,0,120
2,note_on,54,50,0
2,note_on,54,0,120
2,note_on,62,47,0
2,note_on,62,0,120
2,note_on,55,57,0
2,note_on,55,0,120
2,note_on,62,48,0
2,note_on,62,0,120
2,note_on,54,50,0
2,note_on,54,0,120
2,note_on,62,47,0
2,note_on,62,0,120
2,note_on,52,48,0
2,note_on,61,57,0
2,note_on,61,0,480
2,note_on,52,0,0
2,note_on,50,49,240
2,note_on,62,58,0
2,note_on,62,0,240
2,note_on,50,0,0
2,note_on,55,48,0
2,note_on,59,57,0
2,note_on,59,0,240
2,note_on,55,0,0
2,note_on,57,39,240
2,note_on,45,33,0
2,note_on,45,0,240
2,note_on,57,0,0
2,note_on,38,38,240
2,note_on,50,45,0
2,note_on,50,0,240
2,note_on,38,0,0
2,note_on,55,41,240
2,note_on,45,34,0
2,note_on,45,0,240
2,note_on,55,0,0
2,note_on,45,38,240
2,note_on,54,45,0
2,note_on,54,0,240
2,note_on,45,0,0
2,note_on,52,39,240
2,note_on,45,33,0
2,note_on,52,0,115
2,note_on,45,0,125
2,note_on,38,36,240
2,note_on,50,43,0
2,note_on,50,0,480
2,note_on,38,0,0
