Track,Message Type,Note,Velocity,Time
1,note_on,72,60,720
1,note_on,72,0,120
1,note_on,73,55,0
1,note_on,73,0,120
1,note_on,75,60,0
1,note_on,75,0,90
1,note_on,75,61,150
1,note_on,75,0,90
1,note_on,75,63,150
1,note_on,75,0,90
1,note_on,80,69,150
1,note_on,80,0,90
1,note_on,75,61,150
1,note_on,75,0,720
1,note_on,73,57,0
1,note_on,73,0,120
1,note_on,72,54,0
1,note_on,72,0,120
1,note_on,70,60,0
1,note_on,70,0,480
1,note_on,72,59,0
1,note_on,72,0,480
1,note_on,75,59,0
1,note_on,75,0,240
1,note_on,73,51,0
1,note_on,73,0,60
1,note_on,75,46,0
1,note_on,75,0,60
1,note_on,73,51,0
1,note_on,73,0,120
1,note_on,72,59,0
1,note_on,72,0,120
1,note_on,72,60,120
1,note_on,72,0,120
1,note_on,73,55,0
1,note_on,73,0,120
1,note_on,75,60,0
1,note_on,75,0,90
1,note_on,75,59,150
1,note_on,75,0,90
1,note_on,75,64,150
1,note_on,75,0,90
1,note_on,80,66,150
1,note_on,80,0,90
1,note_on,75,61,150
1,note_on,75,0,720
1,note_on,73,57,0
1,note_on,73,0,120
1,note_on,72,54,0
1,note_on,72,0,120
1,note_on,70,60,0
1,note_on,70,0,240
1,note_on,73,51,0
1,note_on,73,0,180
1,note_on,67,59,60
1,note_on,67,0,240
1,note_on,70,50,0
1,note_on,70,0,180
1,note_on,68,60,60
1,note_on,68,0,480
1,note_on,72,60,240
1,note_on,72,0,120
1,note_on,73,55,0
1,note_on,73,0,120
1,note_on,75,60,0
1,note_on,75,0,90
1,note_on,75,58,150
1,note_on,75,0,90
1,note_on,75,64,150
1,note_on,75,0,90
1,note_on,80,66,150
1,note_on,80,0,90
1,note_on,75,61,150
1,note_on,75,0,720
1,note_on,73,57,0
1,note_on,73,0,120
1,note_on,72,54,0
1,note_on,72,0,120
1,note_on,70,60,0
1,note_on,70,0,480
1,note_on,72,59,0
1,note_on,72,0,480
1,note_on,75,59,0
1,note_on,75,0,240
1,note_on,73,51,0
1,note_on,73,0,60
1,note_on,75,46,0
1,note_on,75,0,60
1,note_on,73,51,0
1,note_on,73,0,120
1,note_on,72,59,0
1,note_on,72,0,240
1,note_on,72,60,0
1,note_on,72,0,120
1,note_on,73,55,0
1,note_on,73,0,120
1,note_on,75,60,0
1,note_on,75,0,90
1,note_on,75,61,150
1,note_on,75,0,90
1,note_on,75,61,150
1,note_on,75,0,90
1,note_on,80,66,150
1,note_on,80,0,90
1,note_on,75,61,150
1,note_on,75,0,720
1,note_on,73,57,0
1,note_on,73,0,120
1,note_on,72,54,0
1,note_on,72,0,120
1,note_on,70,60,0
1,note_on,70,0,240
1,note_on,73,51,0
1,note_on,73,0,180
1,note_on,67,59,60
1,note_on,67,0,240
1,note_on,70,50,0
1,note_on,70,0,180
1,note_on,68,60,60
1,note_on,68,0,480
1,note_on,75,53,240
1,note_on,75,0,240
1,note_on,77,59,0
1,note_on,77,0,240
1,note_on,75,56,0
1,note_on,75,0,240
1,note_on,74,56,0
1,note_on,74,0,180
1,note_on,83,59,60
1,note_on,83,0,240
1,note_on,82,59,0
1,note_on,82,0,240
1,note_on,79,53,0
1,note_on,79,0,240
1,note_on,75,53,0
1,note_on,75,0,240
1,note_on,72,59,0
1,note_on,72,0,180
1,note_on,75,53,0
1,note_on,75,0,60
1,note_on,73,61,0
1,note_on,73,0,240
1,note_on,72,55,0
1,note_on,72,0,240
1,note_on,71,55,0
1,note_on,71,0,180
1,note_on,80,59,60
1,note_on,80,0,240
1,note_on,79,59,0
1,note_on,79,0,240
1,note_on,75,53,0
1,note_on,75,0,240
1,note_on,72,53,0
1,note_on,72,0,240
1,note_on,68,59,0
1,note_on,68,0,180
1,note_on,72,53,0
1,note_on,72,0,60
1,note_on,70,61,0
1,note_on,70,0,240
1,note_on,68,53,0
1,note_on,68,0,240
1,note_on,67,53,0
1,note_on,67,0,180
1,note_on,77,59,60
1,note_on,77,0,240
1,note_on,75,59,0
1,note_on,75,0,240
1,note_on,72,53,0
1,note_on,72,0,240
1,note_on,68,53,0
1,note_on,68,0,180
1,note_on,75,59,60
1,note_on,75,0,240
1,note_on,74,59,0
1,note_on,74,0,240
1,note_on,77,51,0
1,note_on,77,0,240
1,note_on,80,53,0
1,note_on,80,0,240
1,note_on,74,50,0
1,note_on,74,0,240
1,note_on,75,59,0
1,note_on,75,0,240
1,note_on,77,49,0
1,note_on,77,0,80
1,note_on,75,47,0
1,note_on,75,0,80
1,note_on,74,47,0
1,note_on,74,0,80
1,note_on,75,59,0
1,note_on,75,0,90
1,note_on,75,56,150
1,note_on,75,0,90
1,note_on,74,59,150
1,note_on,74,0,240
1,note_on,77,48,0
1,note_on,77,0,240
1,note_on,80,51,0
1,note_on,80,0,240
1,note_on,74,43,0
1,note_on,74,0,240
1,note_on,77,53,0
1,note_on,77,0,240
1,note_on,75,47,0
1,note_on,75,0,120
1,note_on,72,60,360
1,note_on,72,0,120
1,note_on,73,55,0
1,note_on,73,0,120
1,note_on,75,60,0
1,note_on,75,0,90
1,note_on,75,61,150
1,note_on,75,0,90
1,note_on,75,63,150
1,note_on,75,0,90
1,note_on,80,66,150
1,note_on,80,0,90
1,note_on,75,61,150
1,note_on,75,0,720
1,note_on,73,57,0
1,note_on,73,0,120
1,note_on,72,54,0
1,note_on,72,0,120
1,note_on,70,60,0
1,note_on,70,0,180
1,note_on,70,53,60
1,note_on,70,0,240
1,note_on,72,59,0
1,note_on,72,0,180
1,note_on,72,53,60
1,note_on,72,0,180
1,note_on,75,59,60
1,note_on,75,0,240
1,note_on,73,51,0
1,note_on,73,0,60
1,note_on,75,46,0
1,note_on,75,0,60
1,note_on,73,51,0
1,note_on,73,0,120
1,note_on,72,59,0
1,note_on,72,0,240
1,note_on,72,60,0
1,note_on,72,0,120
1,note_on,73,55,0
1,note_on,73,0,120
1,note_on,75,60,0
1,note_on,75,0,90
1,note_on,75,57,150
1,note_on,75,0,90
1,note_on,75,59,150
1,note_on,75,0,90
1,note_on,80,66,150
1,note_on,80,0,90
1,note_on,75,61,150
1,note_on,75,0,720
1,note_on,73,57,0
1,note_on,73,0,120
1,note_on,72,54,0
1,note_on,72,0,120
1,note_on,70,62,0
1,note_on,70,0,120
1,note_on,73,43,0
1,note_on,73,0,120
1,note_on,70,55,0
1,note_on,70,0,120
1,note_on,73,43,0
1,note_on,73,0,120
1,note_on,67,59,0
1,note_on,67,0,120
1,note_on,70,50,120
1,note_on,70,0,180
1,note_on,68,60,60
1,note_on,68,0,480
1,note_on,75,53,240
1,note_on,75,0,240
1,note_on,77,59,0
1,note_on,77,0,240
1,note_on,75,56,0
1,note_on,75,0,240
1,note_on,74,56,0
1,note_on,74,0,180
1,note_on,83,59,60
1,note_on,83,0,240
1,note_on,82,59,0
1,note_on,82,0,240
1,note_on,79,53,0
1,note_on,79,0,240
1,note_on,75,53,0
1,note_on,75,0,240
1,note_on,72,59,0
1,note_on,72,0,180
1,note_on,75,53,0
1,note_on,75,0,60
1,note_on,73,61,0
1,note_on,73,0,240
1,note_on,72,55,0
1,note_on,72,0,240
1,note_on,71,55,0
1,note_on,71,0,180
1,note_on,80,59,60
1,note_on,80,0,240
1,note_on,79,59,0
1,note_on,79,0,240
1,note_on,75,53,0
1,note_on,75,0,240
1,note_on,72,53,0
1,note_on,72,0,240
1,note_on,68,59,0
1,note_on,68,0,180
1,note_on,72,53,0
1,note_on,72,0,60
1,note_on,70,61,0
1,note_on,70,0,240
1,note_on,68,53,0
1,note_on,68,0,240
1,note_on,67,53,0
1,note_on,67,0,180
1,note_on,77,59,60
1,note_on,77,0,240
1,note_on,75,59,0
1,note_on,75,0,240
1,note_on,72,53,0
1,note_on,72,0,240
1,note_on,68,53,0
1,note_on,68,0,180
1,note_on,75,59,60
1,note_on,75,0,240
1,note_on,74,59,0
1,note_on,74,0,240
1,note_on,77,51,0
1,note_on,77,0,240
1,note_on,80,53,0
1,note_on,80,0,240
1,note_on,74,50,0
1,note_on,74,0,240
1,note_on,75,59,0
1,note_on,75,0,240
1,note_on,77,49,0
1,note_on,77,0,80
1,note_on,75,47,0
1,note_on,75,0,80
1,note_on,74,47,0
1,note_on,74,0,80
1,note_on,75,59,0
1,note_on,75,0,90
1,note_on,75,56,150
1,note_on,75,0,90
1,note_on,74,59,150
1,note_on,74,0,240
1,note_on,77,48,0
1,note_on,77,0,240
1,note_on,80,51,0
1,note_on,80,0,240
1,note_on,74,43,0
1,note_on,74,0,240
1,note_on,77,53,0
1,note_on,77,0,240
1,note_on,75,47,0
1,note_on,75,0,120
1,note_on,72,60,360
1,note_on,72,0,120
1,note_on,73,55,0
1,note_on,73,0,120
1,note_on,75,60,0
1,note_on,75,0,90
1,note_on,75,61,150
1,note_on,75,0,90
1,note_on,75,63,150
1,note_on,75,0,90
1,note_on,80,66,150
1,note_on,80,0,90
1,note_on,75,61,150
1,note_on,75,0,720
1,note_on,73,57,0
1,note_on,73,0,120
1,note_on,72,54,0
1,note_on,72,0,120
1,note_on,70,60,0
1,note_on,70,0,180
1,note_on,70,53,60
1,note_on,70,0,240
1,note_on,72,59,0
1,note_on,72,0,180
1,note_on,72,53,60
1,note_on,72,0,180
1,note_on,75,59,60
1,note_on,75,0,240
1,note_on,73,51,0
1,note_on,73,0,60
1,note_on,75,46,0
1,note_on,75,0,60
1,note_on,73,51,0
1,note_on,73,0,120
1,note_on,72,59,0
1,note_on,72,0,240
1,note_on,72,60,0
1,note_on,72,0,120
1,note_on,73,55,0
1,note_on,73,0,120
1,note_on,75,60,0
1,note_on,75,0,90
1,note_on,75,57,150
1,note_on,75,0,90
1,note_on,75,59,150
1,note_on,75,0,90
1,note_on,80,66,150
1,note_on,80,0,90
1,note_on,75,61,150
1,note_on,75,0,720
1,note_on,73,57,0
1,note_on,73,0,120
1,note_on,72,54,0
1,note_on,72,0,120
1,note_on,70,62,0
1,note_on,70,0,120
1,note_on,73,43,0
1,note_on,73,0,120
1,note_on,70,55,0
1,note_on,70,0,120
1,note_on,73,43,0
1,note_on,73,0,120
1,note_on,67,59,0
1,note_on,67,0,120
1,note_on,70,50,120
1,note_on,70,0,180
1,note_on,68,60,60
1,note_on,68,0,480
1,note_on,60,57,240
1,note_on,60,0,120
1,note_on,61,52,0
1,note_on,61,0,120
1,note_on,63,57,0
1,note_on,63,0,90
1,note_on,63,57,150
1,note_on,63,0,90
1,note_on,63,59,150
1,note_on,63,0,90
1,note_on,68,65,150
1,note_on,68,0,90
1,note_on,63,57,150
1,note_on,63,0,720
1,note_on,72,59,0
1,note_on,72,0,240
1,note_on,70,70,0
1,note_on,70,0,240
1,note_on,75,62,0
1,note_on,75,0,240
1,note_on,79,68,0
1,note_on,79,0,240
1,note_on,67,63,0
1,note_on,67,0,240
1,note_on,70,68,0
1,note_on,70,0,240
1,note_on,68,59,0
1,note_on,68,0,240
1,note_on,65,59,240
1,note_on,65,0,240
1,note_on,67,70,0
1,note_on,67,0,240
1,note_on,70,62,0
1,note_on,70,0,240
1,note_on,72,70,0
1,note_on,72,0,240
1,note_on,63,66,0
1,note_on,63,0,180
1,note_on,63,72,60
1,note_on,63,0,240
1,note_on,62,62,0
1,note_on,62,0,240
1,note_on,70,59,240
1,note_on,70,0,240
1,note_on,68,70,0
1,note_on,68,0,120
1,note_on,70,63,0
1,note_on,70,0,120
1,note_on,67,70,0
1,note_on,67,0,120
1,note_on,70,62,0
1,note_on,70,0,120
1,note_on,65,70,0
1,note_on,65,0,240
1,note_on,74,75,0
1,note_on,74,0,240
1,note_on,75,81,0
1,note_on,75,0,240
1,note_on,77,77,0
1,note_on,77,0,240
1,note_on,79,82,0
1,note_on,79,0,240
1,note_on,70,75,0
1,note_on,70,0,240
1,note_on,68,70,0
1,note_on,68,0,120
1,note_on,70,63,0
1,note_on,70,0,120
1,note_on,67,70,0
1,note_on,67,0,120
1,note_on,70,62,0
1,note_on,70,0,120
1,note_on,65,70,0
1,note_on,65,0,240
1,note_on,74,75,0
1,note_on,74,0,240
1,note_on,75,81,0
1,note_on,75,0,240
1,note_on,77,77,0
1,note_on,77,0,240
1,note_on,79,82,0
1,note_on,79,0,240
1,note_on,79,75,0
1,note_on,79,0,120
1,note_on,80,73,0
1,note_on,80,0,120
1,note_on,82,81,0
1,note_on,82,0,120
1,note_on,79,72,120
1,note_on,79,0,120
1,note_on,80,69,0
1,note_on,80,0,120
1,note_on,82,80,0
1,note_on,82,0,120
1,note_on,79,73,120
1,note_on,79,0,120
1,note_on,80,69,0
1,note_on,80,0,120
1,note_on,82,78,0
1,note_on,82,0,480
1,note_on,75,60,240
1,note_on,75,0,120
1,note_on,77,58,0
1,note_on,77,0,120
1,note_on,79,64,0
1,note_on,79,0,120
1,note_on,75,57,120
1,note_on,75,0,120
1,note_on,77,55,0
1,note_on,77,0,120
1,note_on,79,64,0
1,note_on,79,0,120
1,note_on,75,58,120
1,note_on,75,0,120
1,note_on,77,55,0
1,note_on,77,0,120
1,note_on,79,62,0
1,note_on,79,0,480
1,note_on,79,75,240
1,note_on,79,0,120
1,note_on,80,73,0
1,note_on,80,0,120
1,note_on,82,81,0
1,note_on,82,0,120
1,note_on,79,72,120
1,note_on,79,0,120
1,note_on,80,69,0
1,note_on,80,0,120
1,note_on,82,80,0
1,note_on,82,0,120
1,note_on,79,73,120
1,note_on,79,0,120
1,note_on,80,69,0
1,note_on,80,0,120
1,note_on,82,78,0
1,note_on,82,0,240
1,note_on,84,72,0
1,note_on,84,0,120
1,note_on,82,65,0
1,note_on,82,0,120
1,note_on,80,69,0
1,note_on,80,0,120
1,note_on,79,64,0
1,note_on,79,0,120
1,note_on,77,62,0
1,note_on,77,0,120
1,note_on,75,61,0
1,note_on,75,0,120
1,note_on,77,78,0
1,note_on,77,0,240
1,note_on,82,72,0
1,note_on,82,0,120
1,note_on,80,65,0
1,note_on,80,0,120
1,note_on,79,69,0
1,note_on,79,0,120
1,note_on,77,64,0
1,note_on,77,0,120
1,note_on,75,62,0
1,note_on,75,0,120
1,note_on,74,61,0
1,note_on,74,0,120
1,note_on,75,77,0
1,note_on,75,0,240
1,note_on,84,72,0
1,note_on,84,0,120
1,note_on,82,65,0
1,note_on,82,0,120
1,note_on,80,69,0
1,note_on,80,0,120
1,note_on,79,64,0
1,note_on,79,0,120
1,note_on,77,62,0
1,note_on,77,0,120
1,note_on,75,65,0
1,note_on,75,0,120
1,note_on,77,73,0
1,note_on,77,0,240
1,note_on,82,64,0
1,note_on,82,0,120
1,note_on,80,58,0
1,note_on,80,0,120
1,note_on,79,62,0
1,note_on,79,0,120
1,note_on,77,57,0
1,note_on,77,0,120
1,note_on,75,56,0
1,note_on,75,0,120
1,note_on,74,55,0
1,note_on,74,0,120
1,note_on,75,69,0
1,note_on,75,0,1200
1,note_on,79,57,0
1,note_on,79,0,240
1,note_on,82,63,0
1,note_on,82,0,240
1,note_on,75,56,0
1,note_on,75,0,240
1,note_on,74,69,0
1,note_on,74,0,1200
1,note_on,77,57,0
1,note_on,77,0,240
1,note_on,80,63,0
1,note_on,80,0,240
1,note_on,74,56,0
1,note_on,74,0,240
1,note_on,75,69,0
1,note_on,75,0,1200
1,note_on,79,57,0
1,note_on,79,0,240
1,note_on,82,63,0
1,note_on,82,0,240
1,note_on,75,56,0
1,note_on,75,0,240
1,note_on,74,69,0
1,note_on,74,0,1200
1,note_on,77,62,0
1,note_on,77,0,240
1,note_on,80,69,0
1,note_on,80,0,240
1,note_on,74,70,0
1,note_on,74,0,240
1,note_on,73,81,0
1,note_on,79,65,1200
1,note_on,79,0,240
1,note_on,82,70,0
1,note_on,82,0,240
1,note_on,79,65,0
1,note_on,79,0,240
1,note_on,85,74,0
1,note_on,85,0,480
1,note_on,73,0,0
1,note_on,72,60,240
1,note_on,72,0,120
1,note_on,73,55,0
1,note_on,73,0,120
1,note_on,75,60,0
1,note_on,75,0,90
1,note_on,75,61,150
1,note_on,75,0,90
1,note_on,75,63,150
1,note_on,75,0,90
1,note_on,80,69,150
1,note_on,80,0,90
1,note_on,75,61,150
1,note_on,75,0,720
1,note_on,73,57,0
1,note_on,73,0,120
1,note_on,72,54,0
1,note_on,72,0,120
1,note_on,70,60,0
1,note_on,70,0,180
1,note_on,70,53,60
1,note_on,70,0,240
1,note_on,72,59,0
1,note_on,72,0,180
1,note_on,72,53,60
1,note_on,72,0,180
1,note_on,75,59,60
1,note_on,75,0,240
1,note_on,73,51,0
1,note_on,73,0,60
1,note_on,75,46,0
1,note_on,75,0,60
1,note_on,73,51,0
1,note_on,73,0,120
1,note_on,72,59,0
1,note_on,72,0,240
1,note_on,72,60,0
1,note_on,72,0,120
1,note_on,73,55,0
1,note_on,73,0,120
1,note_on,75,60,0
1,note_on,75,0,90
1,note_on,75,59,150
1,note_on,75,0,90
1,note_on,75,64,150
1,note_on,75,0,90
1,note_on,80,66,150
1,note_on,80,0,90
1,note_on,75,61,150
1,note_on,75,0,720
1,note_on,73,57,0
1,note_on,73,0,120
1,note_on,72,54,0
1,note_on,72,0,120
1,note_on,70,60,0
1,note_on,70,0,240
1,note_on,73,51,0
1,note_on,73,0,180
1,note_on,67,59,60
1,note_on,67,0,240
1,note_on,70,50,0
1,note_on,70,0,180
1,note_on,68,60,60
1,note_on,68,0,480
1,note_on,72,60,240
1,note_on,72,0,120
1,note_on,73,55,0
1,note_on,73,0,120
1,note_on,75,60,0
1,note_on,75,0,90
1,note_on,80,61,150
1,note_on,80,0,120
1,note_on,84,56,0
1,note_on,84,0,120
1,note_on,82,63,0
1,note_on,82,0,120
1,note_on,80,63,0
1,note_on,80,0,120
1,note_on,79,59,0
1,note_on,79,0,120
1,note_on,77,61,0
1,note_on,77,0,120
1,note_on,75,61,0
1,note_on,75,0,720
1,note_on,73,57,0
1,note_on,73,0,120
1,note_on,72,54,0
1,note_on,72,0,120
1,note_on,70,60,0
1,note_on,70,0,120
1,note_on,75,50,0
1,note_on,75,0,120
1,note_on,70,56,0
1,note_on,70,0,120
1,note_on,75,50,0
1,note_on,75,0,120
1,note_on,72,56,0
1,note_on,72,0,120
1,note_on,75,47,0
1,note_on,75,0,120
1,note_on,72,54,0
1,note_on,72,0,120
1,note_on,75,48,0
1,note_on,75,0,90
1,note_on,75,59,30
1,note_on,75,0,240
1,note_on,73,51,0
1,note_on,73,0,60
1,note_on,75,46,0
1,note_on,75,0,60
1,note_on,73,51,0
1,note_on,73,0,120
1,note_on,72,59,0
1,note_on,72,0,240
1,note_on,72,60,0
1,note_on,72,0,120
1,note_on,73,55,0
1,note_on,73,0,120
1,note_on,75,60,0
1,note_on,75,0,90
1,note_on,80,61,150
1,note_on,80,0,120
1,note_on,84,56,0
1,note_on,84,0,120
1,note_on,82,63,0
1,note_on,82,0,120
1,note_on,80,63,0
1,note_on,80,0,120
1,note_on,79,59,0
1,note_on,79,0,120
1,note_on,77,61,0
1,note_on,77,0,120
1,note_on,75,61,0
1,note_on,75,0,720
1,note_on,73,57,0
1,note_on,73,0,120
1,note_on,72,54,0
1,note_on,72,0,120
1,note_on,70,60,0
1,note_on,70,0,120
1,note_on,73,50,0
1,note_on,73,0,120
1,note_on,70,56,0
1,note_on,70,0,120
1,note_on,73,50,0
1,note_on,73,0,120
1,note_on,67,56,0
1,note_on,67,0,120
1,note_on,70,54,120
1,note_on,70,0,180
1,note_on,68,60,60
1,note_on,68,0,480
1,note_on,75,53,240
1,note_on,75,0,240
1,note_on,77,59,0
1,note_on,77,0,120
1,note_on,80,53,0
1,note_on,80,0,120
1,note_on,77,55,0
1,note_on,77,0,120
1,note_on,75,51,0
1,note_on,75,0,120
1,note_on,74,56,0
1,note_on,74,0,180
1,note_on,83,59,60
1,note_on,83,0,240
1,note_on,82,59,240
1,note_on,82,0,120
1,note_on,79,53,0
1,note_on,79,0,120
1,note_on,75,53,0
1,note_on,75,0,240
1,note_on,72,59,0
1,note_on,72,0,240
1,note_on,73,59,0
1,note_on,73,0,120
1,note_on,77,53,0
1,note_on,77,0,120
1,note_on,73,55,0
1,note_on,73,0,120
1,note_on,72,51,0
1,note_on,72,0,120
1,note_on,71,55,0
1,note_on,71,0,180
1,note_on,80,59,60
1,note_on,80,0,240
1,note_on,79,59,240
1,note_on,79,0,120
1,note_on,75,53,0
1,note_on,75,0,120
1,note_on,72,53,0
1,note_on,72,0,240
1,note_on,68,59,0
1,note_on,68,0,240
1,note_on,70,59,0
1,note_on,70,0,120
1,note_on,73,53,0
1,note_on,73,0,120
1,note_on,70,55,0
1,note_on,70,0,120
1,note_on,68,51,0
1,note_on,68,0,120
1,note_on,67,53,0
1,note_on,67,0,180
1,note_on,77,59,60
1,note_on,77,0,240
1,note_on,75,59,240
1,note_on,75,0,120
1,note_on,72,53,0
1,note_on,72,0,120
1,note_on,68,53,0
1,note_on,68,0,240
1,note_on,75,59,0
1,note_on,75,0,240
1,note_on,74,59,240
1,note_on,74,0,120
1,note_on,77,51,0
1,note_on,77,0,120
1,note_on,80,53,0
1,note_on,80,0,240
1,note_on,74,50,0
1,note_on,74,0,240
1,note_on,75,59,240
1,note_on,75,0,120
1,note_on,79,49,0
1,note_on,79,0,120
1,note_on,82,59,0
1,note_on,82,0,240
1,note_on,75,56,0
1,note_on,75,0,240
1,note_on,74,59,240
1,note_on,74,0,120
1,note_on,77,48,0
1,note_on,77,0,120
1,note_on,80,51,0
1,note_on,80,0,240
1,note_on,74,43,0
1,note_on,74,0,240
1,note_on,77,53,0
1,note_on,77,0,240
1,note_on,75,47,0
1,note_on,75,0,120
1,note_on,72,60,360
1,note_on,72,0,120
1,note_on,73,55,0
1,note_on,73,0,120
1,note_on,75,60,0
1,note_on,75,0,90
1,note_on,80,61,150
1,note_on,80,0,120
1,note_on,84,56,0
1,note_on,84,0,120
1,note_on,82,63,0
1,note_on,82,0,120
1,note_on,80,63,0
1,note_on,80,0,120
1,note_on,79,59,0
1,note_on,79,0,120
1,note_on,77,61,0
1,note_on,77,0,120
1,note_on,75,61,0
1,note_on,75,0,720
1,note_on,73,57,0
1,note_on,73,0,120
1,note_on,72,54,0
1,note_on,72,0,120
1,note_on,70,60,0
1,note_on,70,0,120
1,note_on,75,50,0
1,note_on,75,0,120
1,note_on,70,56,0
1,note_on,70,0,120
1,note_on,75,50,0
1,note_on,75,0,120
1,note_on,72,56,0
1,note_on,72,0,120
1,note_on,75,47,0
1,note_on,75,0,120
1,note_on,72,54,0
1,note_on,72,0,120
1,note_on,75,48,0
1,note_on,75,0,90
1,note_on,75,59,30
1,note_on,75,0,240
1,note_on,73,51,0
1,note_on,73,0,60
1,note_on,75,46,0
1,note_on,75,0,60
1,note_on,73,51,0
1,note_on,73,0,120
1,note_on,72,59,0
1,note_on,72,0,240
1,note_on,72,60,0
1,note_on,72,0,120
1,note_on,73,55,0
1,note_on,73,0,120
1,note_on,75,60,0
1,note_on,75,0,90
1,note_on,84,61,150
1,note_on,84,0,120
1,note_on,80,56,0
1,note_on,80,0,120
1,note_on,82,63,0
1,note_on,82,0,120
1,note_on,79,63,0
1,note_on,79,0,120
1,note_on,80,59,0
1,note_on,80,0,120
1,note_on,77,61,0
1,note_on,77,0,120
1,note_on,75,61,0
1,note_on,75,0,720
1,note_on,73,57,0
1,note_on,73,0,120
1,note_on,72,54,0
1,note_on,72,0,120
1,note_on,70,60,0
1,note_on,70,0,120
1,note_on,73,50,0
1,note_on,73,0,120
1,note_on,70,56,0
1,note_on,70,0,120
1,note_on,73,50,0
1,note_on,73,0,120
1,note_on,67,56,0
1,note_on,67,0,120
1,note_on,70,54,120
1,note_on,70,0,180
1,note_on,68,60,60
1,note_on,68,0,480
1,note_on,75,53,240
1,note_on,75,0,240
1,note_on,77,59,0
1,note_on,77,0,120
1,note_on,80,53,0
1,note_on,80,0,120
1,note_on,77,55,0
1,note_on,77,0,120
1,note_on,75,51,0
1,note_on,75,0,120
1,note_on,74,56,0
1,note_on,74,0,180
1,note_on,83,59,60
1,note_on,83,0,240
1,note_on,82,59,240
1,note_on,82,0,120
1,note_on,79,53,0
1,note_on,79,0,120
1,note_on,75,53,0
1,note_on,75,0,240
1,note_on,72,59,0
1,note_on,72,0,240
1,note_on,73,59,0
1,note_on,73,0,120
1,note_on,77,53,0
1,note_on,77,0,120
1,note_on,73,55,0
1,note_on,73,0,120
1,note_on,72,51,0
1,note_on,72,0,120
1,note_on,71,55,0
1,note_on,71,0,180
1,note_on,80,59,60
1,note_on,80,0,240
1,note_on,79,59,240
1,note_on,79,0,120
1,note_on,75,53,0
1,note_on,75,0,120
1,note_on,72,53,0
1,note_on,72,0,240
1,note_on,68,59,0
1,note_on,68,0,240
1,note_on,70,59,0
1,note_on,70,0,120
1,note_on,73,53,0
1,note_on,73,0,120
1,note_on,70,55,0
1,note_on,70,0,120
1,note_on,68,51,0
1,note_on,68,0,120
1,note_on,67,53,0
1,note_on,67,0,180
1,note_on,77,59,60
1,note_on,77,0,240
1,note_on,75,59,240
1,note_on,75,0,120
1,note_on,72,53,0
1,note_on,72,0,120
1,note_on,68,53,0
1,note_on,68,0,240
1,note_on,75,59,0
1,note_on,75,0,240
1,note_on,74,59,240
1,note_on,74,0,120
1,note_on,77,51,0
1,note_on,77,0,120
1,note_on,80,53,0
1,note_on,80,0,240
1,note_on,74,50,0
1,note_on,74,0,240
1,note_on,75,59,240
1,note_on,75,0,120
1,note_on,79,49,0
1,note_on,79,0,120
1,note_on,82,59,0
1,note_on,82,0,240
1,note_on,75,56,0
1,note_on,75,0,240
1,note_on,74,59,240
1,note_on,74,0,120
1,note_on,77,48,0
1,note_on,77,0,120
1,note_on,80,51,0
1,note_on,80,0,240
1,note_on,74,43,0
1,note_on,74,0,240
1,note_on,77,53,0
1,note_on,77,0,240
1,note_on,75,47,0
1,note_on,75,0,120
1,note_on,72,60,360
1,note_on,72,0,120
1,note_on,73,55,0
1,note_on,73,0,120
1,note_on,75,60,0
1,note_on,75,0,90
1,note_on,80,61,150
1,note_on,80,0,120
1,note_on,84,56,0
1,note_on,84,0,120
1,note_on,82,63,0
1,note_on,82,0,120
1,note_on,80,63,0
1,note_on,80,0,120
1,note_on,79,59,0
1,note_on,79,0,120
1,note_on,77,61,0
1,note_on,77,0,120
1,note_on,75,61,0
1,note_on,75,0,720
1,note_on,73,57,0
1,note_on,73,0,120
1,note_on,72,54,0
1,note_on,72,0,120
1,note_on,70,60,0
1,note_on,70,0,120
1,note_on,75,50,0
1,note_on,75,0,120
1,note_on,70,56,0
1,note_on,70,0,120
1,note_on,75,50,0
1,note_on,75,0,120
1,note_on,72,56,0
1,note_on,72,0,120
1,note_on,75,47,0
1,note_on,75,0,120
1,note_on,72,54,0
1,note_on,72,0,120
1,note_on,75,48,0
1,note_on,75,0,90
1,note_on,75,59,30
1,note_on,75,0,240
1,note_on,73,51,0
1,note_on,73,0,60
1,note_on,75,46,0
1,note_on,75,0,60
1,note_on,73,51,0
1,note_on,73,0,120
1,note_on,72,59,0
1,note_on,72,0,240
1,note_on,72,60,0
1,note_on,72,0,120
1,note_on,73,55,0
1,note_on,73,0,120
1,note_on,75,60,0
1,note_on,75,0,90
1,note_on,84,61,150
1,note_on,84,0,120
1,note_on,80,56,0
1,note_on,80,0,120
1,note_on,82,63,0
1,note_on,82,0,120
1,note_on,79,63,0
1,note_on,79,0,120
1,note_on,80,59,0
1,note_on,80,0,120
1,note_on,77,61,0
1,note_on,77,0,120
1,note_on,75,61,0
1,note_on,75,0,720
1,note_on,73,57,0
1,note_on,73,0,120
1,note_on,72,54,0
1,note_on,72,0,120
1,note_on,70,60,0
1,note_on,70,0,120
1,note_on,73,50,0
1,note_on,73,0,120
1,note_on,70,56,0
1,note_on,70,0,120
1,note_on,73,50,0
1,note_on,73,0,120
1,note_on,67,56,0
1,note_on,67,0,120
1,note_on,70,54,120
1,note_on,70,0,180
1,note_on,68,60,60
1,note_on,68,0,480
1,note_on,72,53,240
1,note_on,72,0,240
1,note_on,77,60,0
1,note_on,77,0,120
1,note_on,72,50,0
1,note_on,72,0,120
1,note_on,76,56,0
1,note_on,76,0,120
1,note_on,72,50,0
1,note_on,72,0,120
1,note_on,77,56,0
1,note_on,77,0,120
1,note_on,72,47,0
1,note_on,72,0,120
1,note_on,80,54,0
1,note_on,80,0,120
1,note_on,72,48,0
1,note_on,72,0,90
1,note_on,79,60,30
1,note_on,79,0,120
1,note_on,72,50,0
1,note_on,72,0,120
1,note_on,83,56,0
1,note_on,83,0,120
1,note_on,72,50,0
1,note_on,72,0,120
1,note_on,84,56,0
1,note_on,84,0,120
1,note_on,72,47,0
1,note_on,72,0,120
1,note_on,82,54,0
1,note_on,82,0,120
1,note_on,72,48,0
1,note_on,72,0,90
1,note_on,80,60,30
1,note_on,80,0,120
1,note_on,72,50,0
1,note_on,72,0,120
1,note_on,79,56,0
1,note_on,79,0,120
1,note_on,72,50,0
1,note_on,72,0,120
1,note_on,77,56,0
1,note_on,77,0,120
1,note_on,72,47,0
1,note_on,72,0,120
1,note_on,79,54,0
1,note_on,79,0,120
1,note_on,72,48,0
1,note_on,72,0,90
1,note_on,76,60,30
1,note_on,76,0,120
1,note_on,72,50,0
1,note_on,72,0,120
1,note_on,77,58,0
1,note_on,77,0,120
1,note_on,72,52,0
1,note_on,72,0,120
1,note_on,79,56,0
1,note_on,79,0,240
1,note_on,72,68,0
1,note_on,72,0,120
1,note_on,84,55,0
1,note_on,84,0,90
1,note_on,73,70,30
1,note_on,73,0,120
1,note_on,85,58,0
1,note_on,85,0,120
1,note_on,72,69,0
1,note_on,72,0,120
1,note_on,84,60,0
1,note_on,84,0,120
1,note_on,70,70,0
1,note_on,70,0,120
1,note_on,82,59,0
1,note_on,82,0,120
1,note_on,68,69,0
1,note_on,68,0,120
1,note_on,80,61,0
1,note_on,80,0,120
1,note_on,67,74,0
1,note_on,67,0,120
1,note_on,79,64,0
1,note_on,79,0,120
1,note_on,71,75,0
1,note_on,71,0,120
1,note_on,83,64,0
1,note_on,83,0,120
1,note_on,72,75,0
1,note_on,72,0,120
1,note_on,84,64,0
1,note_on,84,0,120
1,note_on,70,75,0
1,note_on,70,0,120
1,note_on,82,64,0
1,note_on,82,0,120
1,note_on,68,75,0
1,note_on,68,0,120
1,note_on,80,64,0
1,note_on,80,0,120
1,note_on,65,72,0
1,note_on,65,0,120
1,note_on,77,64,0
1,note_on,77,0,120
1,note_on,67,74,0
1,note_on,67,0,120
1,note_on,79,64,0
1,note_on,79,0,120
1,note_on,64,71,0
1,note_on,64,0,120
1,note_on,76,64,0
1,note_on,76,0,60
1,note_on,65,60,0
1,note_on,65,0,60
1,note_on,77,80,0
1,note_on,77,0,480
1,note_on,72,53,240
1,note_on,72,0,240
1,note_on,77,60,0
1,note_on,77,0,120
1,note_on,72,50,0
1,note_on,72,0,120
1,note_on,76,56,0
1,note_on,76,0,120
1,note_on,72,50,0
1,note_on,72,0,120
1,note_on,77,56,0
1,note_on,77,0,120
1,note_on,72,47,0
1,note_on,72,0,120
1,note_on,80,54,0
1,note_on,80,0,120
1,note_on,72,48,0
1,note_on,72,0,90
1,note_on,79,60,30
1,note_on,79,0,120
1,note_on,72,50,0
1,note_on,72,0,120
1,note_on,83,56,0
1,note_on,83,0,120
1,note_on,72,50,0
1,note_on,72,0,120
1,note_on,84,56,0
1,note_on,84,0,120
1,note_on,72,47,0
1,note_on,72,0,120
1,note_on,82,54,0
1,note_on,82,0,120
1,note_on,72,48,0
1,note_on,72,0,90
1,note_on,80,60,30
1,note_on,80,0,120
1,note_on,72,50,0
1,note_on,72,0,120
1,note_on,79,56,0
1,note_on,79,0,120
1,note_on,72,50,0
1,note_on,72,0,120
1,note_on,77,56,0
1,note_on,77,0,120
1,note_on,72,47,0
1,note_on,72,0,120
1,note_on,79,54,0
1,note_on,79,0,120
1,note_on,72,48,0
1,note_on,72,0,90
1,note_on,76,60,30
1,note_on,76,0,120
1,note_on,72,50,0
1,note_on,72,0,120
1,note_on,77,58,0
1,note_on,77,0,120
1,note_on,72,52,0
1,note_on,72,0,120
1,note_on,79,56,0
1,note_on,79,0,240
1,note_on,72,68,0
1,note_on,72,0,120
1,note_on,84,55,0
1,note_on,84,0,90
1,note_on,73,70,30
1,note_on,73,0,120
1,note_on,85,58,0
1,note_on,85,0,120
1,note_on,72,69,0
1,note_on,72,0,120
1,note_on,84,60,0
1,note_on,84,0,120
1,note_on,70,70,0
1,note_on,70,0,120
1,note_on,82,59,0
1,note_on,82,0,120
1,note_on,68,69,0
1,note_on,68,0,120
1,note_on,80,61,0
1,note_on,80,0,120
1,note_on,67,74,0
1,note_on,67,0,120
1,note_on,79,64,0
1,note_on,79,0,120
1,note_on,71,75,0
1,note_on,71,0,120
1,note_on,83,64,0
1,note_on,83,0,120
1,note_on,72,75,0
1,note_on,72,0,120
1,note_on,84,64,0
1,note_on,84,0,120
1,note_on,70,75,0
1,note_on,70,0,120
1,note_on,82,64,0
1,note_on,82,0,120
1,note_on,68,75,0
1,note_on,68,0,120
1,note_on,80,64,0
1,note_on,80,0,120
1,note_on,65,72,0
1,note_on,65,0,120
1,note_on,77,64,0
1,note_on,77,0,120
1,note_on,67,74,0
1,note_on,67,0,120
1,note_on,79,64,0
1,note_on,79,0,120
1,note_on,64,71,0
1,note_on,64,0,120
1,note_on,76,64,0
1,note_on,76,0,60
1,note_on,65,60,0
1,note_on,65,0,60
1,note_on,77,80,0
1,note_on,77,0,480
1,note_on,84,63,240
1,note_on,84,0,240
1,note_on,82,69,0
1,note_on,82,0,240
1,note_on,79,60,0
1,note_on,79,0,240
1,note_on,80,66,0
1,note_on,80,0,240
1,note_on,77,57,0
1,note_on,77,0,240
1,note_on,76,68,0
1,note_on,76,0,240
1,note_on,77,55,0
1,note_on,77,0,60
1,note_on,79,55,0
1,note_on,79,0,60
1,note_on,77,55,0
1,note_on,77,0,120
1,note_on,79,62,0
1,note_on,79,0,240
1,note_on,84,63,0
1,note_on,84,0,240
1,note_on,82,69,0
1,note_on,82,0,240
1,note_on,79,60,0
1,note_on,79,0,240
1,note_on,80,66,0
1,note_on,80,0,240
1,note_on,77,57,0
1,note_on,77,0,240
1,note_on,84,68,0
1,note_on,84,0,480
1,note_on,84,63,240
1,note_on,84,0,240
1,note_on,82,69,0
1,note_on,82,0,240
1,note_on,79,60,0
1,note_on,79,0,240
1,note_on,80,66,0
1,note_on,80,0,240
1,note_on,77,57,0
1,note_on,77,0,240
1,note_on,76,68,0
1,note_on,76,0,240
1,note_on,77,55,0
1,note_on,77,0,60
1,note_on,79,53,0
1,note_on,79,0,60
1,note_on,77,55,0
1,note_on,77,0,120
1,note_on,79,62,0
1,note_on,79,0,240
1,note_on,84,63,0
1,note_on,84,0,240
1,note_on,82,69,0
1,note_on,82,0,240
1,note_on,79,60,0
1,note_on,79,0,240
1,note_on,80,66,0
1,note_on,80,0,240
1,note_on,77,57,0
1,note_on,77,0,240
1,note_on,84,68,0
1,note_on,84,0,480
1,note_on,84,56,240
1,note_on,84,0,240
1,note_on,85,57,0
1,note_on,85,0,240
1,note_on,84,54,0
1,note_on,84,0,240
1,note_on,82,57,0
1,note_on,82,0,240
1,note_on,80,53,0
1,note_on,80,0,240
1,note_on,79,58,0
1,note_on,79,0,240
1,note_on,83,52,0
1,note_on,83,0,240
1,note_on,84,52,0
1,note_on,84,0,240
1,note_on,72,53,120
1,note_on,72,0,120
1,note_on,73,56,120
1,note_on,73,0,120
1,note_on,72,51,120
1,note_on,72,0,120
1,note_on,70,56,120
1,note_on,70,0,120
1,note_on,68,50,120
1,note_on,68,0,120
1,note_on,67,59,120
1,note_on,67,0,120
1,note_on,68,69,0
1,note_on,68,0,120
1,note_on,67,59,0
1,note_on,67,0,120
1,note_on,72,67,0
1,note_on,72,0,120
1,note_on,70,59,0
1,note_on,70,0,120
1,note_on,68,65,0
1,note_on,68,0,120
1,note_on,67,59,0
1,note_on,67,0,120
1,note_on,68,59,120
1,note_on,68,0,120
1,note_on,70,69,0
1,note_on,70,0,120
1,note_on,68,59,0
1,note_on,68,0,120
1,note_on,73,67,0
1,note_on,73,0,120
1,note_on,72,59,0
1,note_on,72,0,120
1,note_on,70,65,0
1,note_on,70,0,120
1,note_on,68,59,0
1,note_on,68,0,120
1,note_on,67,59,120
1,note_on,67,0,120
1,note_on,68,69,0
1,note_on,68,0,120
1,note_on,67,59,0
1,note_on,67,0,120
1,note_on,72,67,0
1,note_on,72,0,120
1,note_on,70,59,0
1,note_on,70,0,120
1,note_on,68,65,0
1,note_on,68,0,120
1,note_on,67,59,0
1,note_on,67,0,120
1,note_on,68,59,120
1,note_on,68,0,120
1,note_on,70,69,0
1,note_on,70,0,120
1,note_on,68,59,0
1,note_on,68,0,120
1,note_on,73,67,0
1,note_on,73,0,120
1,note_on,72,59,0
1,note_on,72,0,120
1,note_on,70,65,0
1,note_on,70,0,120
1,note_on,68,59,0
1,note_on,68,0,120
1,note_on,67,59,120
1,note_on,67,0,120
1,note_on,68,69,0
1,note_on,68,0,120
1,note_on,67,59,0
1,note_on,67,0,120
1,note_on,72,67,0
1,note_on,72,0,120
1,note_on,70,59,0
1,note_on,70,0,120
1,note_on,68,65,0
1,note_on,68,0,120
1,note_on,67,59,0
1,note_on,67,0,120
1,note_on,68,73,0
1,note_on,68,0,120
1,note_on,65,65,0
1,note_on,65,0,120
1,note_on,68,75,0
1,note_on,68,0,120
1,note_on,71,66,0
1,note_on,71,0,120
1,note_on,74,75,0
1,note_on,74,0,120
1,note_on,71,67,0
1,note_on,71,0,120
1,note_on,74,74,0
1,note_on,74,0,120
1,note_on,77,69,0
1,note_on,77,0,120
1,note_on,80,78,0
1,note_on,80,0,120
1,note_on,74,69,0
1,note_on,74,0,120
1,note_on,77,80,0
1,note_on,77,0,120
1,note_on,80,70,0
1,note_on,80,0,120
1,note_on,83,81,0
1,note_on,83,0,120
1,note_on,77,72,0
1,note_on,77,0,120
1,note_on,80,86,0
1,note_on,80,0,120
1,note_on,83,78,0
1,note_on,83,0,120
1,note_on,86,101,0
1,note_on,86,0,480
1,note_on,64,44,1560
1,note_on,64,0,120
1,note_on,67,51,0
1,note_on,67,0,120
1,note_on,70,44,0
1,note_on,70,0,120
1,note_on,73,50,0
1,note_on,73,0,120
1,note_on,64,44,0
1,note_on,64,0,120
1,note_on,67,48,0
1,note_on,67,0,120
1,note_on,70,44,0
1,note_on,70,0,120
1,note_on,73,50,0
1,note_on,73,0,120
1,note_on,64,44,0
1,note_on,64,0,120
1,note_on,67,48,0
1,note_on,67,0,120
1,note_on,70,44,0
1,note_on,70,0,120
1,note_on,73,50,0
1,note_on,73,0,120
1,note_on,64,44,0
1,note_on,64,0,120
1,note_on,67,48,0
1,note_on,67,0,120
1,note_on,70,44,0
1,note_on,70,0,120
1,note_on,73,65,0
1,note_on,73,0,120
1,note_on,63,57,0
1,note_on,63,0,120
1,note_on,67,66,0
1,note_on,67,0,120
1,note_on,70,57,0
1,note_on,70,0,120
1,note_on,73,65,0
1,note_on,73,0,120
1,note_on,63,57,0
1,note_on,63,0,120
1,note_on,67,62,0
1,note_on,67,0,120
1,note_on,70,57,0
1,note_on,70,0,120
1,note_on,73,65,0
1,note_on,73,0,120
1,note_on,63,57,0
1,note_on,63,0,120
1,note_on,67,67,0
1,note_on,67,0,120
1,note_on,70,58,0
1,note_on,70,0,120
1,note_on,73,74,0
1,note_on,73,0,120
1,note_on,63,65,0
1,note_on,63,0,120
1,note_on,67,73,0
1,note_on,67,0,120
1,note_on,70,65,0
1,note_on,70,0,120
1,note_on,73,84,0
1,note_on,73,0,480
1,note_on,72,60,1200
1,note_on,72,0,120
1,note_on,73,55,0
1,note_on,73,0,120
1,note_on,75,60,0
1,note_on,75,0,90
1,note_on,75,58,150
1,note_on,75,0,90
1,note_on,75,64,150
1,note_on,75,0,90
1,note_on,80,66,150
1,note_on,80,0,90
1,note_on,75,61,150
1,note_on,75,0,720
1,note_on,73,57,0
1,note_on,73,0,120
1,note_on,72,54,0
1,note_on,72,0,120
1,note_on,70,60,240
1,note_on,70,0,240
1,note_on,72,59,240
1,note_on,72,0,240
1,note_on,75,59,0
1,note_on,75,0,240
1,note_on,73,51,0
1,note_on,73,0,60
1,note_on,75,46,0
1,note_on,75,0,60
1,note_on,73,51,0
1,note_on,73,0,120
1,note_on,72,59,0
1,note_on,72,0,240
1,note_on,72,60,0
1,note_on,72,0,120
1,note_on,73,55,0
1,note_on,73,0,120
1,note_on,75,60,0
1,note_on,75,0,90
1,note_on,77,61,150
1,note_on,77,0,90
1,note_on,79,61,150
1,note_on,79,0,90
1,note_on,80,66,150
1,note_on,80,0,90
1,note_on,75,61,150
1,note_on,75,0,720
1,note_on,73,57,0
1,note_on,73,0,120
1,note_on,72,54,0
1,note_on,72,0,120
1,note_on,70,60,240
1,note_on,70,0,240
1,note_on,67,59,240
1,note_on,67,0,240
1,note_on,68,60,240
1,note_on,68,0,240
1,note_on,75,53,240
1,note_on,75,0,240
1,note_on,77,59,0
1,note_on,77,0,120
1,note_on,75,51,0
1,note_on,75,0,120
1,note_on,74,56,0
1,note_on,74,0,120
1,note_on,75,50,0
1,note_on,75,0,120
1,note_on,74,56,0
1,note_on,74,0,120
1,note_on,77,55,0
1,note_on,77,0,120
1,note_on,80,55,0
1,note_on,80,0,120
1,note_on,83,55,0
1,note_on,83,0,120
1,note_on,82,59,0
1,note_on,82,0,240
1,note_on,75,50,0
1,note_on,75,0,180
1,note_on,75,56,60
1,note_on,75,0,240
1,note_on,72,51,0
1,note_on,72,0,240
1,note_on,73,59,0
1,note_on,73,0,120
1,note_on,72,51,0
1,note_on,72,0,120
1,note_on,71,56,0
1,note_on,71,0,120
1,note_on,72,50,0
1,note_on,72,0,120
1,note_on,71,56,0
1,note_on,71,0,120
1,note_on,74,55,0
1,note_on,74,0,120
1,note_on,77,55,0
1,note_on,77,0,120
1,note_on,80,55,0
1,note_on,80,0,120
1,note_on,79,59,0
1,note_on,79,0,240
1,note_on,72,50,0
1,note_on,72,0,180
1,note_on,72,56,60
1,note_on,72,0,240
1,note_on,68,51,0
1,note_on,68,0,240
1,note_on,70,59,0
1,note_on,70,0,120
1,note_on,68,51,0
1,note_on,68,0,120
1,note_on,67,56,0
1,note_on,67,0,120
1,note_on,68,50,0
1,note_on,68,0,120
1,note_on,67,56,0
1,note_on,67,0,120
1,note_on,70,55,0
1,note_on,70,0,120
1,note_on,73,55,0
1,note_on,73,0,120
1,note_on,77,55,0
1,note_on,77,0,120
1,note_on,75,59,0
1,note_on,75,0,240
1,note_on,68,50,0
1,note_on,68,0,180
1,note_on,68,56,60
1,note_on,68,0,240
1,note_on,75,51,0
1,note_on,75,0,240
1,note_on,74,59,0
1,note_on,74,0,120
1,note_on,77,55,0
1,note_on,77,0,120
1,note_on,80,62,0
1,note_on,80,0,120
1,note_on,84,59,0
1,note_on,84,0,120
1,note_on,82,62,0
1,note_on,82,0,120
1,note_on,80,61,0
1,note_on,80,0,120
1,note_on,79,56,0
1,note_on,79,0,120
1,note_on,77,50,0
1,note_on,77,0,120
1,note_on,75,59,0
1,note_on,75,0,120
1,note_on,77,55,0
1,note_on,77,0,120
1,note_on,75,56,0
1,note_on,75,0,120
1,note_on,74,56,0
1,note_on,74,0,120
1,note_on,75,59,0
1,note_on,75,0,120
1,note_on,79,59,0
1,note_on,79,0,120
1,note_on,77,54,0
1,note_on,77,0,120
1,note_on,75,50,0
1,note_on,75,0,120
1,note_on,74,59,0
1,note_on,74,0,120
1,note_on,77,55,0
1,note_on,77,0,120
1,note_on,80,62,0
1,note_on,80,0,120
1,note_on,84,59,0
1,note_on,84,0,120
1,note_on,82,62,0
1,note_on,82,0,120
1,note_on,80,61,0
1,note_on,80,0,120
1,note_on,79,56,0
1,note_on,79,0,120
1,note_on,77,50,0
1,note_on,77,0,120
1,note_on,75,59,0
1,note_on,75,0,120
1,note_on,77,55,0
1,note_on,77,0,120
1,note_on,75,56,0
1,note_on,75,0,120
1,note_on,74,56,0
1,note_on,74,0,120
1,note_on,75,59,0
1,note_on,75,0,120
1,note_on,79,59,0
1,note_on,79,0,120
1,note_on,77,54,0
1,note_on,77,0,120
1,note_on,75,50,0
1,note_on,75,0,120
1,note_on,74,59,0
1,note_on,74,0,120
1,note_on,77,55,0
1,note_on,77,0,120
1,note_on,80,62,0
1,note_on,80,0,120
1,note_on,84,59,0
1,note_on,84,0,120
1,note_on,82,62,0
1,note_on,82,0,120
1,note_on,80,61,0
1,note_on,80,0,120
1,note_on,79,56,0
1,note_on,79,0,120
1,note_on,77,50,0
1,note_on,77,0,120
1,note_on,75,59,0
1,note_on,75,0,120
1,note_on,77,50,0
1,note_on,77,0,120
1,note_on,74,56,0
1,note_on,74,0,120
1,note_on,77,50,0
1,note_on,77,0,120
1,note_on,75,56,0
1,note_on,75,0,120
1,note_on,77,51,0
1,note_on,77,0,120
1,note_on,74,54,0
1,note_on,74,0,120
1,note_on,77,50,0
1,note_on,77,0,120
1,note_on,75,59,0
1,note_on,75,0,960
1,note_on,73,47,0
1,note_on,73,0,120
1,note_on,75,40,0
1,note_on,75,0,120
1,note_on,72,44,0
1,note_on,72,0,120
1,note_on,75,40,0
1,note_on,75,0,120
1,note_on,73,44,0
1,note_on,73,0,120
1,note_on,75,40,0
1,note_on,75,0,120
1,note_on,72,43,0
1,note_on,72,0,120
1,note_on,75,40,0
1,note_on,75,0,120
1,note_on,73,47,0
1,note_on,73,0,720
1,note_on,72,60,0
1,note_on,72,0,120
1,note_on,73,55,0
1,note_on,73,0,120
1,note_on,75,60,0
1,note_on,75,0,90
1,note_on,75,61,150
1,note_on,75,0,90
1,note_on,75,63,150
1,note_on,75,0,120
1,note_on,80,58,0
1,note_on,80,0,120
1,note_on,84,66,0
1,note_on,84,0,120
1,note_on,80,58,0
1,note_on,80,0,120
1,note_on,75,61,0
1,note_on,75,0,720
1,note_on,73,57,0
1,note_on,73,0,120
1,note_on,72,54,0
1,note_on,72,0,120
1,note_on,70,53,240
1,note_on,70,0,240
1,note_on,72,53,240
1,note_on,72,0,180
1,note_on,75,59,60
1,note_on,75,0,240
1,note_on,73,51,0
1,note_on,73,0,60
1,note_on,75,46,0
1,note_on,75,0,60
1,note_on,73,51,0
1,note_on,73,0,120
1,note_on,72,59,0
1,note_on,72,0,240
1,note_on,72,60,0
1,note_on,72,0,120
1,note_on,73,55,0
1,note_on,73,0,120
1,note_on,75,60,0
1,note_on,75,0,90
1,note_on,77,57,150
1,note_on,77,0,90
1,note_on,79,59,150
1,note_on,79,0,90
1,note_on,80,66,150
1,note_on,80,0,90
1,note_on,75,61,150
1,note_on,75,0,720
1,note_on,73,57,0
1,note_on,73,0,120
1,note_on,72,54,0
1,note_on,72,0,120
1,note_on,70,43,240
1,note_on,70,0,180
1,note_on,67,50,300
1,note_on,67,0,180
1,note_on,68,60,300
1,note_on,68,0,240
1,note_on,75,53,240
1,note_on,75,0,240
1,note_on,77,59,0
1,note_on,77,0,120
1,note_on,75,51,0
1,note_on,75,0,120
1,note_on,74,56,0
1,note_on,74,0,120
1,note_on,75,50,0
1,note_on,75,0,120
1,note_on,74,56,0
1,note_on,74,0,120
1,note_on,77,55,0
1,note_on,77,0,120
1,note_on,80,55,0
1,note_on,80,0,120
1,note_on,83,55,0
1,note_on,83,0,120
1,note_on,82,59,0
1,note_on,82,0,240
1,note_on,75,50,0
1,note_on,75,0,180
1,note_on,75,56,60
1,note_on,75,0,240
1,note_on,72,51,0
1,note_on,72,0,240
1,note_on,73,59,0
1,note_on,73,0,120
1,note_on,72,51,0
1,note_on,72,0,120
1,note_on,71,56,0
1,note_on,71,0,120
1,note_on,72,50,0
1,note_on,72,0,120
1,note_on,71,56,0
1,note_on,71,0,120
1,note_on,74,55,0
1,note_on,74,0,120
1,note_on,77,55,0
1,note_on,77,0,120
1,note_on,80,55,0
1,note_on,80,0,120
1,note_on,79,59,0
1,note_on,79,0,240
1,note_on,72,50,0
1,note_on,72,0,180
1,note_on,72,56,60
1,note_on,72,0,240
1,note_on,68,51,0
1,note_on,68,0,240
1,note_on,70,59,0
1,note_on,70,0,120
1,note_on,68,51,0
1,note_on,68,0,120
1,note_on,67,56,0
1,note_on,67,0,120
1,note_on,68,50,0
1,note_on,68,0,120
1,note_on,67,56,0
1,note_on,67,0,120
1,note_on,70,55,0
1,note_on,70,0,120
1,note_on,73,55,0
1,note_on,73,0,120
1,note_on,77,55,0
1,note_on,77,0,120
1,note_on,75,59,0
1,note_on,75,0,240
1,note_on,68,50,0
1,note_on,68,0,180
1,note_on,68,56,60
1,note_on,68,0,240
1,note_on,75,51,0
1,note_on,75,0,240
1,note_on,74,59,0
1,note_on,74,0,120
1,note_on,77,55,0
1,note_on,77,0,120
1,note_on,80,62,0
1,note_on,80,0,120
1,note_on,84,59,0
1,note_on,84,0,120
1,note_on,82,62,0
1,note_on,82,0,120
1,note_on,80,61,0
1,note_on,80,0,120
1,note_on,79,56,0
1,note_on,79,0,120
1,note_on,77,50,0
1,note_on,77,0,120
1,note_on,75,59,0
1,note_on,75,0,120
1,note_on,77,55,0
1,note_on,77,0,120
1,note_on,75,56,0
1,note_on,75,0,120
1,note_on,74,56,0
1,note_on,74,0,120
1,note_on,75,59,0
1,note_on,75,0,120
1,note_on,79,59,0
1,note_on,79,0,120
1,note_on,77,54,0
1,note_on,77,0,120
1,note_on,75,50,0
1,note_on,75,0,120
1,note_on,74,59,0
1,note_on,74,0,120
1,note_on,77,55,0
1,note_on,77,0,120
1,note_on,80,62,0
1,note_on,80,0,120
1,note_on,84,59,0
1,note_on,84,0,120
1,note_on,82,62,0
1,note_on,82,0,120
1,note_on,80,61,0
1,note_on,80,0,120
1,note_on,79,56,0
1,note_on,79,0,120
1,note_on,77,50,0
1,note_on,77,0,120
1,note_on,75,59,0
1,note_on,75,0,120
1,note_on,77,55,0
1,note_on,77,0,120
1,note_on,75,56,0
1,note_on,75,0,120
1,note_on,74,56,0
1,note_on,74,0,120
1,note_on,75,59,0
1,note_on,75,0,120
1,note_on,79,59,0
1,note_on,79,0,120
1,note_on,77,54,0
1,note_on,77,0,120
1,note_on,75,50,0
1,note_on,75,0,120
1,note_on,74,59,0
1,note_on,74,0,120
1,note_on,77,55,0
1,note_on,77,0,120
1,note_on,80,62,0
1,note_on,80,0,120
1,note_on,84,59,0
1,note_on,84,0,120
1,note_on,82,62,0
1,note_on,82,0,120
1,note_on,80,61,0
1,note_on,80,0,120
1,note_on,79,56,0
1,note_on,79,0,120
1,note_on,77,50,0
1,note_on,77,0,120
1,note_on,75,59,0
1,note_on,75,0,120
1,note_on,77,50,0
1,note_on,77,0,120
1,note_on,74,56,0
1,note_on,74,0,120
1,note_on,77,50,0
1,note_on,77,0,120
1,note_on,75,56,0
1,note_on,75,0,120
1,note_on,77,51,0
1,note_on,77,0,120
1,note_on,74,54,0
1,note_on,74,0,120
1,note_on,77,50,0
1,note_on,77,0,120
1,note_on,75,59,0
1,note_on,75,0,960
1,note_on,73,47,0
1,note_on,73,0,120
1,note_on,75,40,0
1,note_on,75,0,120
1,note_on,72,44,0
1,note_on,72,0,120
1,note_on,75,40,0
1,note_on,75,0,120
1,note_on,73,44,0
1,note_on,73,0,120
1,note_on,75,40,0
1,note_on,75,0,120
1,note_on,72,43,0
1,note_on,72,0,120
1,note_on,75,40,0
1,note_on,75,0,120
1,note_on,73,47,0
1,note_on,73,0,720
1,note_on,72,60,0
1,note_on,72,0,120
1,note_on,73,55,0
1,note_on,73,0,120
1,note_on,75,60,0
1,note_on,75,0,90
1,note_on,75,61,150
1,note_on,75,0,90
1,note_on,75,63,150
1,note_on,75,0,120
1,note_on,80,58,0
1,note_on,80,0,120
1,note_on,84,66,0
1,note_on,84,0,120
1,note_on,80,58,0
1,note_on,80,0,120
1,note_on,75,61,0
1,note_on,75,0,720
1,note_on,73,57,0
1,note_on,73,0,120
1,note_on,72,54,0
1,note_on,72,0,120
1,note_on,70,53,240
1,note_on,70,0,240
1,note_on,72,53,240
1,note_on,72,0,180
1,note_on,75,59,60
1,note_on,75,0,240
1,note_on,73,51,0
1,note_on,73,0,60
1,note_on,75,46,0
1,note_on,75,0,60
1,note_on,73,51,0
1,note_on,73,0,120
1,note_on,72,59,0
1,note_on,72,0,240
1,note_on,72,60,0
1,note_on,72,0,120
1,note_on,73,55,0
1,note_on,73,0,120
1,note_on,75,60,0
1,note_on,75,0,90
1,note_on,77,57,150
1,note_on,77,0,90
1,note_on,79,59,150
1,note_on,79,0,90
1,note_on,80,66,150
1,note_on,80,0,90
1,note_on,75,61,150
1,note_on,75,0,720
1,note_on,73,57,0
1,note_on,73,0,120
1,note_on,72,54,0
1,note_on,72,0,120
1,note_on,70,43,240
1,note_on,70,0,180
1,note_on,67,50,300
1,note_on,67,0,180
1,note_on,68,60,300
1,note_on,68,0,240
1,note_on,77,63,0
1,note_on,77,0,120
1,note_on,80,57,0
1,note_on,80,0,120
1,note_on,77,63,0
1,note_on,77,0,120
1,note_on,80,56,0
1,note_on,80,0,120
1,note_on,75,63,0
1,note_on,75,0,240
1,note_on,73,63,240
1,note_on,73,0,120
1,note_on,80,57,0
1,note_on,80,0,120
1,note_on,73,63,0
1,note_on,73,0,120
1,note_on,80,56,0
1,note_on,80,0,120
1,note_on,72,63,0
1,note_on,72,0,240
1,note_on,77,63,240
1,note_on,77,0,120
1,note_on,80,57,0
1,note_on,80,0,120
1,note_on,77,63,0
1,note_on,77,0,120
1,note_on,80,56,0
1,note_on,80,0,120
1,note_on,75,63,0
1,note_on,75,0,240
1,note_on,70,59,840
1,note_on,70,0,120
1,note_on,69,66,0
1,note_on,69,0,120
1,note_on,70,58,0
1,note_on,70,0,120
1,note_on,77,67,0
1,note_on,77,0,240
1,note_on,70,63,0
1,note_on,70,0,120
1,note_on,68,59,240
1,note_on,68,0,120
1,note_on,67,66,0
1,note_on,67,0,120
1,note_on,68,58,0
1,note_on,68,0,120
1,note_on,77,67,0
1,note_on,77,0,240
1,note_on,68,63,0
1,note_on,68,0,120
1,note_on,67,68,120
1,note_on,67,0,120
1,note_on,75,59,0
1,note_on,75,0,120
1,note_on,68,65,0
1,note_on,68,0,120
1,note_on,75,59,0
1,note_on,75,0,120
1,note_on,70,67,0
1,note_on,70,0,120
1,note_on,75,59,0
1,note_on,75,0,120
1,note_on,72,67,0
1,note_on,72,0,120
1,note_on,75,59,0
1,note_on,75,0,120
1,note_on,73,72,0
1,note_on,73,0,120
1,note_on,75,59,0
1,note_on,75,0,120
1,note_on,72,65,0
1,note_on,72,0,120
1,note_on,75,59,0
1,note_on,75,0,120
1,note_on,73,67,0
1,note_on,73,0,120
1,note_on,75,59,0
1,note_on,75,0,120
1,note_on,70,65,0
1,note_on,70,0,120
1,note_on,75,59,0
1,note_on,75,0,120
1,note_on,72,69,0
1,note_on,72,0,120
1,note_on,80,59,0
1,note_on,80,0,120
1,note_on,73,69,0
1,note_on,73,0,120
1,note_on,80,60,0
1,note_on,80,0,120
1,note_on,75,71,0
1,note_on,75,0,120
1,note_on,80,61,0
1,note_on,80,0,120
1,note_on,77,71,0
1,note_on,77,0,120
1,note_on,80,64,0
1,note_on,80,0,120
1,note_on,78,73,0
1,note_on,78,0,120
1,note_on,80,64,0
1,note_on,80,0,120
1,note_on,77,69,0
1,note_on,77,0,120
1,note_on,80,59,0
1,note_on,80,0,120
1,note_on,78,73,0
1,note_on,78,0,120
1,note_on,80,64,0
1,note_on,80,0,120
1,note_on,75,67,0
1,note_on,75,0,120
1,note_on,80,59,0
1,note_on,80,0,120
1,note_on,77,68,120
1,note_on,77,0,120
1,note_on,80,75,0
1,note_on,80,0,120
1,note_on,77,67,0
1,note_on,77,0,120
1,note_on,85,80,0
1,note_on,85,0,120
1,note_on,77,66,0
1,note_on,77,0,120
1,note_on,80,73,0
1,note_on,80,0,120
1,note_on,77,66,0
1,note_on,77,0,120
1,note_on,75,68,120
1,note_on,75,0,120
1,note_on,85,75,0
1,note_on,85,0,120
1,note_on,75,67,0
1,note_on,75,0,120
1,note_on,75,68,120
1,note_on,75,0,120
1,note_on,84,75,0
1,note_on,84,0,120
1,note_on,75,67,0
1,note_on,75,0,120
1,note_on,73,68,120
1,note_on,73,0,120
1,note_on,77,75,0
1,note_on,77,0,120
1,note_on,73,67,0
1,note_on,73,0,120
1,note_on,82,79,0
1,note_on,82,0,120
1,note_on,73,66,0
1,note_on,73,0,120
1,note_on,77,73,0
1,note_on,77,0,120
1,note_on,73,66,0
1,note_on,73,0,120
1,note_on,72,68,120
1,note_on,72,0,120
1,note_on,82,75,0
1,note_on,82,0,120
1,note_on,72,67,0
1,note_on,72,0,120
1,note_on,71,68,120
1,note_on,71,0,120
1,note_on,80,75,0
1,note_on,80,0,120
1,note_on,71,67,0
1,note_on,71,0,120
1,note_on,70,68,120
1,note_on,70,0,120
1,note_on,80,75,0
1,note_on,80,0,120
1,note_on,70,67,0
1,note_on,70,0,120
1,note_on,70,68,120
1,note_on,70,0,120
1,note_on,78,75,0
1,note_on,78,0,120
1,note_on,70,67,0
1,note_on,70,0,120
1,note_on,68,68,120
1,note_on,68,0,120
1,note_on,78,75,0
1,note_on,78,0,120
1,note_on,68,67,0
1,note_on,68,0,120
1,note_on,68,68,120
1,note_on,68,0,120
1,note_on,77,75,0
1,note_on,77,0,120
1,note_on,68,67,0
1,note_on,68,0,120
1,note_on,66,68,120
1,note_on,66,0,120
1,note_on,77,75,0
1,note_on,77,0,120
1,note_on,66,67,0
1,note_on,66,0,120
1,note_on,66,68,120
1,note_on,66,0,120
1,note_on,75,75,0
1,note_on,75,0,120
1,note_on,66,67,0
1,note_on,66,0,120
1,note_on,65,68,120
1,note_on,65,0,120
1,note_on,75,74,0
1,note_on,75,0,120
1,note_on,65,66,0
1,note_on,65,0,120
1,note_on,65,66,120
1,note_on,65,0,120
1,note_on,73,72,0
1,note_on,73,0,120
1,note_on,65,63,0
1,note_on,65,0,120
1,note_on,63,63,120
1,note_on,63,0,120
1,note_on,73,69,0
1,note_on,73,0,120
1,note_on,63,62,0
1,note_on,63,0,120
1,note_on,63,62,120
1,note_on,63,0,120
1,note_on,72,68,0
1,note_on,72,0,120
1,note_on,63,59,0
1,note_on,63,0,120
1,note_on,62,59,120
1,note_on,62,0,120
1,note_on,71,66,0
1,note_on,71,0,120
1,note_on,62,58,0
1,note_on,62,0,120
1,note_on,62,59,120
1,note_on,62,0,120
1,note_on,71,66,0
1,note_on,71,0,120
1,note_on,62,58,0
1,note_on,62,0,120
1,note_on,62,59,120
1,note_on,62,0,120
1,note_on,71,66,0
1,note_on,71,0,120
1,note_on,62,57,0
1,note_on,62,0,120
1,note_on,62,58,120
1,note_on,62,0,120
1,note_on,71,66,0
1,note_on,71,0,120
1,note_on,62,57,0
1,note_on,62,0,120
1,note_on,62,58,120
1,note_on,62,0,120
1,note_on,71,65,0
1,note_on,71,0,120
1,note_on,62,57,0
1,note_on,62,0,120
1,note_on,62,58,120
1,note_on,62,0,120
1,note_on,71,65,0
1,note_on,71,0,120
1,note_on,62,57,0
1,note_on,62,0,120
1,note_on,62,58,120
1,note_on,62,0,120
1,note_on,71,65,0
1,note_on,71,0,120
1,note_on,62,56,0
1,note_on,62,0,120
1,note_on,62,57,120
1,note_on,62,0,120
1,note_on,71,65,0
1,note_on,71,0,120
1,note_on,62,56,0
1,note_on,62,0,120
1,note_on,61,51,120
1,note_on,61,0,120
1,note_on,70,57,0
1,note_on,70,0,120
1,note_on,61,49,0
1,note_on,61,0,120
1,note_on,61,50,120
1,note_on,61,0,120
1,note_on,70,57,0
1,note_on,70,0,120
1,note_on,61,49,0
1,note_on,61,0,120
1,note_on,61,50,120
1,note_on,61,0,120
1,note_on,70,57,0
1,note_on,70,0,120
1,note_on,61,49,0
1,note_on,61,0,120
1,note_on,61,50,120
1,note_on,61,0,120
1,note_on,70,56,0
1,note_on,70,0,120
1,note_on,61,49,0
1,note_on,61,0,120
1,note_on,61,49,120
1,note_on,61,0,120
1,note_on,70,54,0
1,note_on,70,0,120
1,note_on,61,47,0
1,note_on,61,0,120
1,note_on,61,46,120
1,note_on,61,0,120
1,note_on,70,52,0
1,note_on,70,0,120
1,note_on,61,44,0
1,note_on,61,0,120
1,note_on,61,44,120
1,note_on,61,0,120
1,note_on,70,49,0
1,note_on,70,0,120
1,note_on,61,42,0
1,note_on,61,0,120
1,note_on,61,42,120
1,note_on,61,0,120
1,note_on,70,47,0
1,note_on,70,0,120
1,note_on,61,40,0
1,note_on,61,0,120
1,note_on,60,51,720
1,note_on,60,0,120
1,note_on,61,46,0
1,note_on,61,0,120
1,note_on,63,51,0
1,note_on,63,0,90
1,note_on,63,51,150
1,note_on,63,0,90
1,note_on,63,53,150
1,note_on,63,0,90
1,note_on,68,58,150
1,note_on,68,0,90
1,note_on,63,51,150
1,note_on,63,0,720
1,note_on,61,48,0
1,note_on,61,0,120
1,note_on,60,45,0
1,note_on,60,0,120
1,note_on,58,51,0
1,note_on,58,0,480
1,note_on,60,50,0
1,note_on,60,0,480
1,note_on,63,50,0
1,note_on,63,0,240
1,note_on,61,43,0
1,note_on,61,0,60
1,note_on,63,39,0
1,note_on,63,0,60
1,note_on,61,43,0
1,note_on,61,0,120
1,note_on,60,50,0
1,note_on,60,0,240
1,note_on,60,51,0
1,note_on,60,0,120
1,note_on,61,46,0
1,note_on,61,0,120
1,note_on,63,51,0
1,note_on,63,0,90
1,note_on,63,50,150
1,note_on,63,0,90
1,note_on,63,54,150
1,note_on,63,0,90
1,note_on,68,56,150
1,note_on,68,0,90
1,note_on,63,51,150
1,note_on,63,0,720
1,note_on,61,48,0
1,note_on,61,0,120
1,note_on,60,45,0
1,note_on,60,0,120
1,note_on,58,51,0
1,note_on,58,0,240
1,note_on,61,43,0
1,note_on,61,0,180
1,note_on,55,50,60
1,note_on,55,0,240
1,note_on,58,42,0
1,note_on,58,0,180
1,note_on,56,51,60
1,note_on,56,0,480
1,note_on,72,63,240
1,note_on,72,0,120
1,note_on,73,57,0
1,note_on,73,0,120
1,note_on,75,63,0
1,note_on,75,0,90
1,note_on,75,64,150
1,note_on,75,0,90
1,note_on,75,66,150
1,note_on,75,0,90
1,note_on,87,82,150
1,note_on,87,0,90
1,note_on,75,64,150
1,note_on,75,0,720
1,note_on,73,59,0
1,note_on,73,0,120
1,note_on,72,56,0
1,note_on,72,0,120
1,note_on,70,68,0
1,note_on,70,0,240
1,note_on,87,74,0
1,note_on,87,0,240
1,note_on,72,66,0
1,note_on,72,0,240
1,note_on,87,71,0
1,note_on,87,0,240
1,note_on,75,61,0
1,note_on,75,0,240
1,note_on,73,53,0
1,note_on,73,0,60
1,note_on,75,48,0
1,note_on,75,0,60
1,note_on,73,53,0
1,note_on,73,0,120
1,note_on,72,61,0
1,note_on,72,0,240
1,note_on,72,63,0
1,note_on,72,0,120
1,note_on,73,57,0
1,note_on,73,0,120
1,note_on,75,63,0
1,note_on,75,0,90
1,note_on,75,61,150
1,note_on,75,0,90
1,note_on,75,67,150
1,note_on,75,0,90
1,note_on,87,82,150
1,note_on,87,0,90
1,note_on,75,64,150
1,note_on,75,0,720
1,note_on,73,59,0
1,note_on,73,0,120
1,note_on,72,56,0
1,note_on,72,0,120
1,note_on,70,63,0
1,note_on,70,0,240
1,note_on,85,69,0
1,note_on,85,0,180
1,note_on,67,61,60
1,note_on,67,0,240
1,note_on,70,52,0
1,note_on,70,0,180
1,note_on,68,63,60
1,note_on,68,0,480
1,note_on,75,53,240
1,note_on,75,0,240
1,note_on,77,59,0
1,note_on,77,0,240
1,note_on,75,56,0
1,note_on,75,0,240
1,note_on,74,56,0
1,note_on,74,0,180
1,note_on,83,62,60
1,note_on,83,0,480
1,note_on,81,53,0
1,note_on,81,0,240
1,note_on,82,53,0
1,note_on,82,0,240
1,note_on,72,59,0
1,note_on,72,0,240
1,note_on,73,61,0
1,note_on,73,0,240
1,note_on,72,55,0
1,note_on,72,0,240
1,note_on,71,55,0
1,note_on,71,0,180
1,note_on,80,63,60
1,note_on,80,0,480
1,note_on,78,53,0
1,note_on,78,0,240
1,note_on,79,53,0
1,note_on,79,0,120
1,note_on,68,59,120
1,note_on,68,0,240
1,note_on,70,61,0
1,note_on,70,0,240
1,note_on,68,53,0
1,note_on,68,0,240
1,note_on,67,53,0
1,note_on,67,0,180
1,note_on,77,63,60
1,note_on,77,0,480
1,note_on,74,56,0
1,note_on,74,0,240
1,note_on,75,61,0
1,note_on,75,0,120
1,note_on,75,64,120
1,note_on,75,0,480
1,note_on,74,57,0
1,note_on,74,0,240
1,note_on,80,61,0
1,note_on,80,0,120
1,note_on,80,57,120
1,note_on,80,0,480
1,note_on,79,49,0
1,note_on,79,0,240
1,note_on,82,59,0
1,note_on,82,0,240
1,note_on,75,56,0
1,note_on,75,0,480
1,note_on,74,48,0
1,note_on,74,0,240
1,note_on,80,51,0
1,note_on,80,0,90
1,note_on,80,43,150
1,note_on,80,0,1440
1,note_on,78,46,0
1,note_on,78,0,240
1,note_on,79,53,0
1,note_on,79,0,240
1,note_on,74,45,0
1,note_on,74,0,240
1,note_on,77,50,0
1,note_on,77,0,240
1,note_on,75,43,0
1,note_on,75,0,220
1,note_on,75,43,20
1,note_on,75,0,220
1,note_on,72,63,20
1,note_on,72,0,120
1,note_on,73,57,0
1,note_on,73,0,120
1,note_on,75,63,0
1,note_on,75,0,90
1,note_on,75,64,150
1,note_on,75,0,90
1,note_on,75,66,150
1,note_on,75,0,90
1,note_on,87,82,150
1,note_on,87,0,90
1,note_on,75,64,150
1,note_on,75,0,720
1,note_on,73,59,0
1,note_on,73,0,120
1,note_on,72,56,0
1,note_on,72,0,120
1,note_on,70,68,0
1,note_on,70,0,240
1,note_on,87,74,0
1,note_on,87,0,240
1,note_on,72,66,0
1,note_on,72,0,240
1,note_on,87,71,0
1,note_on,87,0,240
1,note_on,75,61,0
1,note_on,75,0,240
1,note_on,73,53,0
1,note_on,73,0,60
1,note_on,75,48,0
1,note_on,75,0,60
1,note_on,73,53,0
1,note_on,73,0,120
1,note_on,72,61,0
1,note_on,72,0,240
1,note_on,72,63,0
1,note_on,72,0,120
1,note_on,73,57,0
1,note_on,73,0,120
1,note_on,75,63,0
1,note_on,75,0,90
1,note_on,75,61,150
1,note_on,75,0,90
1,note_on,75,67,150
1,note_on,75,0,90
1,note_on,87,82,150
1,note_on,87,0,90
1,note_on,75,64,150
1,note_on,75,0,720
1,note_on,73,59,0
1,note_on,73,0,120
1,note_on,72,56,0
1,note_on,72,0,120
1,note_on,70,63,0
1,note_on,70,0,240
1,note_on,85,69,0
1,note_on,85,0,180
1,note_on,67,61,60
1,note_on,67,0,240
1,note_on,70,52,0
1,note_on,70,0,180
1,note_on,68,63,60
1,note_on,68,0,480
1,note_on,75,53,240
1,note_on,75,0,240
1,note_on,77,59,0
1,note_on,77,0,240
1,note_on,75,56,0
1,note_on,75,0,240
1,note_on,74,56,0
1,note_on,74,0,180
1,note_on,83,62,60
1,note_on,83,0,480
1,note_on,81,53,0
1,note_on,81,0,240
1,note_on,82,53,0
1,note_on,82,0,240
1,note_on,72,59,0
1,note_on,72,0,240
1,note_on,73,61,0
1,note_on,73,0,240
1,note_on,72,55,0
1,note_on,72,0,240
1,note_on,71,55,0
1,note_on,71,0,180
1,note_on,80,63,60
1,note_on,80,0,480
1,note_on,78,53,0
1,note_on,78,0,240
1,note_on,79,53,0
1,note_on,79,0,120
1,note_on,68,59,120
1,note_on,68,0,240
1,note_on,70,61,0
1,note_on,70,0,240
1,note_on,68,53,0
1,note_on,68,0,240
1,note_on,67,53,0
1,note_on,67,0,180
1,note_on,77,63,60
1,note_on,77,0,480
1,note_on,74,56,0
1,note_on,74,0,240
1,note_on,75,61,0
1,note_on,75,0,120
1,note_on,75,64,120
1,note_on,75,0,480
1,note_on,74,57,0
1,note_on,74,0,240
1,note_on,80,61,0
1,note_on,80,0,120
1,note_on,80,57,120
1,note_on,80,0,480
1,note_on,79,49,0
1,note_on,79,0,240
1,note_on,82,59,0
1,note_on,82,0,240
1,note_on,75,56,0
1,note_on,75,0,480
1,note_on,74,48,0
1,note_on,74,0,240
1,note_on,80,51,0
1,note_on,80,0,90
1,note_on,80,43,150
1,note_on,80,0,1440
1,note_on,78,46,0
1,note_on,78,0,240
1,note_on,79,53,0
1,note_on,79,0,240
1,note_on,74,45,0
1,note_on,74,0,240
1,note_on,77,50,0
1,note_on,77,0,240
1,note_on,75,43,0
1,note_on,75,0,220
1,note_on,75,43,20
1,note_on,75,0,220
1,note_on,72,63,20
1,note_on,72,0,120
1,note_on,73,57,0
1,note_on,73,0,120
1,note_on,75,63,0
1,note_on,75,0,90
1,note_on,75,64,150
1,note_on,75,0,90
1,note_on,75,66,150
1,note_on,75,0,90
1,note_on,87,82,150
1,note_on,87,0,90
1,note_on,75,64,150
1,note_on,75,0,720
1,note_on,73,59,0
1,note_on,73,0,120
1,note_on,72,56,0
1,note_on,72,0,120
1,note_on,70,68,0
1,note_on,70,0,240
1,note_on,87,74,0
1,note_on,87,0,240
1,note_on,72,66,0
1,note_on,72,0,240
1,note_on,87,71,0
1,note_on,87,0,240
1,note_on,75,61,0
1,note_on,75,0,240
1,note_on,73,53,0
1,note_on,73,0,60
1,note_on,75,48,0
1,note_on,75,0,60
1,note_on,73,53,0
1,note_on,73,0,120
1,note_on,72,61,0
1,note_on,72,0,240
1,note_on,72,63,0
1,note_on,72,0,120
1,note_on,73,57,0
1,note_on,73,0,120
1,note_on,75,63,0
1,note_on,75,0,90
1,note_on,75,61,150
1,note_on,75,0,90
1,note_on,75,67,150
1,note_on,75,0,90
1,note_on,87,82,150
1,note_on,87,0,90
1,note_on,75,64,150
1,note_on,75,0,720
1,note_on,73,59,0
1,note_on,73,0,120
1,note_on,72,56,0
1,note_on,72,0,120
1,note_on,70,63,0
1,note_on,70,0,240
1,note_on,85,69,0
1,note_on,85,0,180
1,note_on,67,61,60
1,note_on,67,0,240
1,note_on,70,52,0
1,note_on,70,0,180
1,note_on,68,63,60
1,note_on,68,0,480
1,note_on,77,69,0
1,note_on,77,0,120
1,note_on,80,62,0
1,note_on,80,0,120
1,note_on,77,69,0
1,note_on,77,0,120
1,note_on,80,61,0
1,note_on,80,0,120
1,note_on,75,69,0
1,note_on,75,0,240
1,note_on,73,69,240
1,note_on,73,0,120
1,note_on,80,62,0
1,note_on,80,0,120
1,note_on,73,69,0
1,note_on,73,0,120
1,note_on,80,61,0
1,note_on,80,0,120
1,note_on,72,69,0
1,note_on,72,0,240
1,note_on,77,69,240
1,note_on,77,0,120
1,note_on,80,62,0
1,note_on,80,0,120
1,note_on,77,69,0
1,note_on,77,0,120
1,note_on,80,61,0
1,note_on,80,0,120
1,note_on,75,69,0
1,note_on,75,0,240
1,note_on,84,56,400
1,note_on,84,0,160
1,note_on,82,56,0
1,note_on,82,0,160
1,note_on,80,61,0
1,note_on,80,0,160
1,note_on,79,56,0
1,note_on,79,0,160
1,note_on,77,56,0
1,note_on,77,0,160
1,note_on,75,61,0
1,note_on,75,0,160
1,note_on,73,55,0
1,note_on,73,0,160
1,note_on,72,55,0
1,note_on,72,0,160
1,note_on,70,61,0
1,note_on,70,0,240
1,note_on,70,47,400
1,note_on,70,0,160
1,note_on,68,47,0
1,note_on,68,0,160
1,note_on,67,51,0
1,note_on,67,0,160
1,note_on,65,47,0
1,note_on,65,0,160
1,note_on,63,47,0
1,note_on,63,0,160
1,note_on,61,51,0
1,note_on,61,0,160
1,note_on,60,46,0
1,note_on,60,0,160
1,note_on,58,46,0
1,note_on,58,0,160
1,note_on,56,43,0
1,note_on,56,0,90
1,note_on,56,38,150
1,note_on,56,0,90
1,note_on,56,43,150
1,note_on,56,0,120
1,note_on,60,39,0
1,note_on,60,0,120
1,note_on,63,42,0
1,note_on,63,0,120
1,note_on,60,39,0
1,note_on,60,0,120
1,note_on,56,43,0
1,note_on,56,0,90
1,note_on,56,38,150
1,note_on,56,0,90
1,note_on,56,43,150
1,note_on,56,0,120
1,note_on,60,39,0
1,note_on,60,0,120
1,note_on,63,42,0
1,note_on,63,0,120
1,note_on,60,39,0
1,note_on,60,0,120
1,note_on,56,49,0
1,note_on,56,0,120
1,note_on,68,81,360
1,note_on,63,67,0
1,note_on,60,67,0
1,note_on,60,0,480
1,note_on,63,0,0
1,note_on,68,0,0
2,note_on,60,51,2160
2,note_on,60,0,240
2,note_on,58,51,0
2,note_on,58,0,240
2,note_on,56,48,0
2,note_on,56,0,240
2,note_on,55,53,0
2,note_on,55,0,240
2,note_on,51,47,0
2,note_on,51,0,180
2,note_on,56,49,60
2,note_on,56,0,240
2,note_on,51,45,0
2,note_on,51,0,180
2,note_on,58,49,60
2,note_on,58,0,240
2,note_on,51,45,0
2,note_on,51,0,180
2,note_on,56,49,60
2,note_on,56,0,240
2,note_on,60,51,1440
2,note_on,60,0,240
2,note_on,58,51,0
2,note_on,58,0,240
2,note_on,56,48,0
2,note_on,56,0,240
2,note_on,61,53,0
2,note_on,61,0,240
2,note_on,58,47,0
2,note_on,58,0,180
2,note_on,63,49,60
2,note_on,63,0,240
2,note_on,51,45,0
2,note_on,51,0,180
2,note_on,56,50,60
2,note_on,56,0,240
2,note_on,51,42,0
2,note_on,51,0,240
2,note_on,44,47,0
2,note_on,44,0,240
2,note_on,60,51,1440
2,note_on,60,0,240
2,note_on,58,51,0
2,note_on,58,0,240
2,note_on,56,48,0
2,note_on,56,0,240
2,note_on,55,53,0
2,note_on,55,0,240
2,note_on,51,47,0
2,note_on,51,0,180
2,note_on,56,49,60
2,note_on,56,0,240
2,note_on,51,45,0
2,note_on,51,0,180
2,note_on,58,49,60
2,note_on,58,0,240
2,note_on,51,45,0
2,note_on,51,0,180
2,note_on,56,49,60
2,note_on,56,0,240
2,note_on,60,51,1440
2,note_on,60,0,240
2,note_on,58,51,0
2,note_on,58,0,240
2,note_on,56,48,0
2,note_on,56,0,240
2,note_on,61,53,0
2,note_on,61,0,240
2,note_on,58,47,0
2,note_on,58,0,180
2,note_on,63,49,60
2,note_on,63,0,240
2,note_on,51,45,0
2,note_on,51,0,180
2,note_on,56,50,60
2,note_on,56,0,240
2,note_on,51,42,0
2,note_on,51,0,240
2,note_on,44,47,0
2,note_on,44,0,240
2,note_on,74,41,960
2,note_on,68,34,0
2,note_on,68,0,240
2,note_on,74,0,0
2,note_on,67,38,0
2,note_on,75,45,0
2,note_on,75,0,477
2,note_on,67,0,3
2,note_on,71,41,1200
2,note_on,65,34,0
2,note_on,65,0,240
2,note_on,71,0,0
2,note_on,63,38,0
2,note_on,72,45,0
2,note_on,72,0,477
2,note_on,63,0,3
2,note_on,67,41,1200
2,note_on,61,34,0
2,note_on,61,0,240
2,note_on,67,0,0
2,note_on,60,38,0
2,note_on,68,45,0
2,note_on,68,0,478
2,note_on,60,0,2
2,note_on,58,38,480
2,note_on,68,45,0
2,note_on,68,0,480
2,note_on,58,0,0
2,note_on,63,38,480
2,note_on,67,45,0
2,note_on,67,0,480
2,note_on,63,0,0
2,note_on,58,38,480
2,note_on,68,45,0
2,note_on,68,0,480
2,note_on,58,0,0
2,note_on,39,26,720
2,note_on,39,0,240
2,note_on,60,51,1680
2,note_on,60,0,240
2,note_on,58,51,0
2,note_on,58,0,240
2,note_on,56,48,0
2,note_on,56,0,240
2,note_on,55,53,0
2,note_on,55,0,240
2,note_on,51,47,0
2,note_on,51,0,180
2,note_on,56,49,60
2,note_on,56,0,240
2,note_on,51,45,0
2,note_on,51,0,180
2,note_on,58,49,60
2,note_on,58,0,240
2,note_on,51,45,0
2,note_on,51,0,180
2,note_on,56,49,60
2,note_on,56,0,240
2,note_on,60,51,1440
2,note_on,60,0,240
2,note_on,58,51,0
2,note_on,58,0,240
2,note_on,56,48,0
2,note_on,56,0,240
2,note_on,61,53,0
2,note_on,61,0,240
2,note_on,58,47,0
2,note_on,58,0,180
2,note_on,63,49,60
2,note_on,63,0,240
2,note_on,51,45,0
2,note_on,51,0,180
2,note_on,56,50,60
2,note_on,56,0,240
2,note_on,51,42,0
2,note_on,51,0,240
2,note_on,44,47,0
2,note_on,44,0,240
2,note_on,74,41,960
2,note_on,68,34,0
2,note_on,68,0,240
2,note_on,74,0,0
2,note_on,67,38,0
2,note_on,75,45,0
2,note_on,75,0,477
2,note_on,67,0,3
2,note_on,71,41,1200
2,note_on,65,34,0
2,note_on,65,0,240
2,note_on,71,0,0
2,note_on,63,38,0
2,note_on,72,45,0
2,note_on,72,0,477
2,note_on,63,0,3
2,note_on,67,41,1200
2,note_on,61,34,0
2,note_on,61,0,240
2,note_on,67,0,0
2,note_on,60,38,0
2,note_on,68,45,0
2,note_on,68,0,478
2,note_on,60,0,2
2,note_on,58,38,480
2,note_on,68,45,0
2,note_on,68,0,480
2,note_on,58,0,0
2,note_on,63,38,480
2,note_on,67,45,0
2,note_on,67,0,480
2,note_on,63,0,0
2,note_on,58,38,480
2,note_on,68,45,0
2,note_on,68,0,480
2,note_on,58,0,0
2,note_on,39,26,720
2,note_on,39,0,240
2,note_on,60,51,1680
2,note_on,60,0,240
2,note_on,58,51,0
2,note_on,58,0,240
2,note_on,56,48,0
2,note_on,56,0,240
2,note_on,55,53,0
2,note_on,55,0,240
2,note_on,51,47,0
2,note_on,51,0,180
2,note_on,56,49,60
2,note_on,56,0,240
2,note_on,51,45,0
2,note_on,51,0,180
2,note_on,58,49,60
2,note_on,58,0,240
2,note_on,51,45,0
2,note_on,51,0,180
2,note_on,56,49,60
2,note_on,56,0,240
2,note_on,60,51,1440
2,note_on,60,0,240
2,note_on,58,51,0
2,note_on,58,0,240
2,note_on,56,48,0
2,note_on,56,0,240
2,note_on,61,53,0
2,note_on,61,0,240
2,note_on,58,47,0
2,note_on,58,0,180
2,note_on,63,49,60
2,note_on,63,0,240
2,note_on,51,45,0
2,note_on,51,0,180
2,note_on,56,50,60
2,note_on,56,0,240
2,note_on,51,42,0
2,note_on,51,0,240
2,note_on,44,47,0
2,note_on,44,0,240
2,note_on,60,51,1440
2,note_on,60,0,240
2,note_on,58,51,0
2,note_on,58,0,240
2,note_on,56,48,0
2,note_on,56,0,240
2,note_on,55,45,0
2,note_on,55,0,480
2,note_on,51,48,240
2,note_on,51,0,240
2,note_on,53,45,0
2,note_on,53,0,240
2,note_on,56,51,0
2,note_on,56,0,240
2,note_on,62,48,0
2,note_on,62,0,240
2,note_on,50,48,0
2,note_on,50,0,240
2,note_on,51,45,0
2,note_on,51,0,240
2,note_on,43,51,0
2,note_on,43,0,240
2,note_on,44,51,0
2,note_on,44,0,240
2,note_on,45,48,0
2,note_on,45,0,240
2,note_on,46,45,0
2,note_on,46,0,480
2,note_on,67,48,240
2,note_on,67,0,240
2,note_on,65,45,0
2,note_on,65,0,240
2,note_on,63,51,0
2,note_on,63,0,240
2,note_on,62,51,0
2,note_on,62,0,240
2,note_on,56,56,0
2,note_on,56,0,120
2,note_on,58,48,0
2,note_on,58,0,120
2,note_on,55,60,0
2,note_on,55,0,120
2,note_on,58,48,0
2,note_on,58,0,120
2,note_on,53,58,0
2,note_on,53,0,120
2,note_on,58,53,0
2,note_on,58,0,120
2,note_on,51,59,0
2,note_on,51,0,240
2,note_on,67,55,0
2,note_on,67,0,240
2,note_on,65,45,0
2,note_on,65,0,240
2,note_on,63,51,0
2,note_on,63,0,240
2,note_on,62,51,0
2,note_on,62,0,240
2,note_on,56,56,0
2,note_on,56,0,120
2,note_on,58,48,0
2,note_on,58,0,120
2,note_on,55,60,0
2,note_on,55,0,120
2,note_on,58,48,0
2,note_on,58,0,120
2,note_on,53,58,0
2,note_on,53,0,120
2,note_on,58,53,0
2,note_on,58,0,120
2,note_on,51,59,0
2,note_on,51,0,240
2,note_on,63,51,0
2,note_on,63,0,120
2,note_on,65,49,0
2,note_on,65,0,120
2,note_on,67,54,0
2,note_on,67,0,120
2,note_on,63,48,120
2,note_on,63,0,120
2,note_on,65,46,0
2,note_on,65,0,120
2,note_on,67,54,0
2,note_on,67,0,120
2,note_on,63,49,120
2,note_on,63,0,120
2,note_on,65,46,0
2,note_on,65,0,120
2,note_on,67,52,0
2,note_on,67,0,480
2,note_on,67,40,240
2,note_on,67,0,120
2,note_on,68,39,0
2,note_on,68,0,120
2,note_on,70,43,0
2,note_on,70,0,120
2,note_on,67,38,120
2,note_on,67,0,120
2,note_on,68,36,0
2,note_on,68,0,120
2,note_on,70,43,0
2,note_on,70,0,120
2,note_on,67,39,120
2,note_on,67,0,120
2,note_on,68,36,0
2,note_on,68,0,120
2,note_on,70,41,0
2,note_on,70,0,480
2,note_on,63,51,240
2,note_on,63,0,120
2,note_on,65,49,0
2,note_on,65,0,120
2,note_on,67,54,0
2,note_on,67,0,120
2,note_on,63,48,120
2,note_on,63,0,120
2,note_on,65,46,0
2,note_on,65,0,120
2,note_on,67,54,0
2,note_on,67,0,120
2,note_on,63,49,120
2,note_on,63,0,120
2,note_on,65,46,0
2,note_on,65,0,120
2,note_on,67,52,0
2,note_on,67,0,480
2,note_on,55,49,240
2,note_on,55,0,240
2,note_on,56,52,0
2,note_on,56,0,480
2,note_on,58,49,240
2,note_on,58,0,240
2,note_on,60,52,0
2,note_on,60,0,480
2,note_on,55,49,240
2,note_on,55,0,240
2,note_on,56,52,0
2,note_on,56,0,480
2,note_on,58,37,240
2,note_on,58,0,240
2,note_on,63,44,0
2,note_on,63,0,240
2,note_on,67,39,0
2,note_on,67,0,240
2,note_on,70,43,0
2,note_on,70,0,240
2,note_on,67,38,0
2,note_on,67,0,240
2,note_on,63,44,0
2,note_on,65,44,960
2,note_on,65,0,240
2,note_on,68,39,0
2,note_on,68,0,240
2,note_on,70,43,0
2,note_on,70,0,240
2,note_on,68,38,0
2,note_on,68,0,240
2,note_on,65,44,0
2,note_on,65,0,960
2,note_on,63,0,0
2,note_on,63,44,0
2,note_on,63,0,240
2,note_on,67,39,0
2,note_on,67,0,240
2,note_on,70,43,0
2,note_on,70,0,240
2,note_on,67,38,0
2,note_on,67,0,240
2,note_on,63,44,0
2,note_on,65,44,960
2,note_on,65,0,240
2,note_on,68,39,0
2,note_on,68,0,240
2,note_on,70,43,0
2,note_on,70,0,240
2,note_on,68,38,0
2,note_on,68,0,240
2,note_on,65,53,0
2,note_on,65,0,960
2,note_on,63,0,0
2,note_on,63,54,0
2,note_on,67,46,240
2,note_on,70,55,240
2,note_on,67,0,230
2,note_on,67,51,10
2,note_on,63,0,235
2,note_on,63,60,5
2,note_on,63,0,1440
2,note_on,67,0,0
2,note_on,70,0,0
2,note_on,60,51,1680
2,note_on,60,0,240
2,note_on,58,51,0
2,note_on,58,0,240
2,note_on,56,48,0
2,note_on,56,0,240
2,note_on,55,53,0
2,note_on,55,0,240
2,note_on,51,47,0
2,note_on,51,0,180
2,note_on,56,49,60
2,note_on,56,0,240
2,note_on,51,45,0
2,note_on,51,0,180
2,note_on,58,49,60
2,note_on,58,0,240
2,note_on,51,45,0
2,note_on,51,0,180
2,note_on,56,49,60
2,note_on,56,0,240
2,note_on,60,51,1440
2,note_on,60,0,240
2,note_on,58,51,0
2,note_on,58,0,240
2,note_on,56,48,0
2,note_on,56,0,240
2,note_on,61,53,0
2,note_on,61,0,240
2,note_on,58,47,0
2,note_on,58,0,180
2,note_on,63,49,60
2,note_on,63,0,240
2,note_on,51,45,0
2,note_on,51,0,180
2,note_on,56,50,60
2,note_on,56,0,240
2,note_on,51,42,0
2,note_on,51,0,240
2,note_on,44,47,0
2,note_on,44,0,240
2,note_on,60,51,1440
2,note_on,60,0,240
2,note_on,58,51,0
2,note_on,58,0,240
2,note_on,56,48,0
2,note_on,56,0,240
2,note_on,55,53,0
2,note_on,55,0,240
2,note_on,51,47,0
2,note_on,51,0,180
2,note_on,56,49,60
2,note_on,56,0,240
2,note_on,51,45,0
2,note_on,51,0,180
2,note_on,58,49,60
2,note_on,58,0,240
2,note_on,51,45,0
2,note_on,51,0,180
2,note_on,56,49,60
2,note_on,56,0,240
2,note_on,60,51,1440
2,note_on,60,0,240
2,note_on,58,51,0
2,note_on,58,0,240
2,note_on,56,48,0
2,note_on,56,0,240
2,note_on,61,53,0
2,note_on,61,0,240
2,note_on,58,47,0
2,note_on,58,0,180
2,note_on,63,49,60
2,note_on,63,0,240
2,note_on,51,45,0
2,note_on,51,0,180
2,note_on,56,50,60
2,note_on,56,0,240
2,note_on,51,42,0
2,note_on,51,0,240
2,note_on,44,47,0
2,note_on,44,0,240
2,note_on,68,34,960
2,note_on,74,41,0
2,note_on,74,0,240
2,note_on,68,0,0
2,note_on,75,45,0
2,note_on,67,38,0
2,note_on,75,0,239
2,note_on,67,0,1
2,note_on,65,34,1440
2,note_on,71,41,0
2,note_on,71,0,240
2,note_on,65,0,0
2,note_on,63,38,0
2,note_on,72,45,0
2,note_on,72,0,239
2,note_on,63,0,1
2,note_on,67,41,1440
2,note_on,61,34,0
2,note_on,61,0,240
2,note_on,67,0,0
2,note_on,60,38,0
2,note_on,68,45,0
2,note_on,68,0,240
2,note_on,60,0,0
2,note_on,58,38,720
2,note_on,68,45,0
2,note_on,68,0,480
2,note_on,58,0,0
2,note_on,67,45,480
2,note_on,63,38,0
2,note_on,63,0,480
2,note_on,67,0,0
2,note_on,58,38,480
2,note_on,68,45,0
2,note_on,68,0,480
2,note_on,58,0,0
2,note_on,39,26,720
2,note_on,39,0,240
2,note_on,60,51,1680
2,note_on,60,0,240
2,note_on,58,51,0
2,note_on,58,0,240
2,note_on,56,48,0
2,note_on,56,0,240
2,note_on,55,53,0
2,note_on,55,0,240
2,note_on,51,47,0
2,note_on,51,0,180
2,note_on,56,49,60
2,note_on,56,0,240
2,note_on,51,45,0
2,note_on,51,0,180
2,note_on,58,49,60
2,note_on,58,0,240
2,note_on,51,45,0
2,note_on,51,0,180
2,note_on,56,49,60
2,note_on,56,0,240
2,note_on,60,51,1440
2,note_on,60,0,240
2,note_on,58,51,0
2,note_on,58,0,240
2,note_on,56,48,0
2,note_on,56,0,240
2,note_on,61,53,0
2,note_on,61,0,240
2,note_on,58,47,0
2,note_on,58,0,180
2,note_on,63,49,60
2,note_on,63,0,240
2,note_on,51,45,0
2,note_on,51,0,180
2,note_on,56,50,60
2,note_on,56,0,240
2,note_on,51,42,0
2,note_on,51,0,240
2,note_on,44,47,0
2,note_on,44,0,240
2,note_on,74,41,960
2,note_on,68,34,0
2,note_on,68,0,240
2,note_on,74,0,0
2,note_on,67,38,0
2,note_on,75,45,0
2,note_on,75,0,239
2,note_on,67,0,1
2,note_on,71,41,1440
2,note_on,65,34,0
2,note_on,65,0,240
2,note_on,71,0,0
2,note_on,63,38,0
2,note_on,72,45,0
2,note_on,72,0,239
2,note_on,63,0,1
2,note_on,67,41,1440
2,note_on,61,34,0
2,note_on,61,0,240
2,note_on,67,0,0
2,note_on,60,38,0
2,note_on,68,45,0
2,note_on,68,0,239
2,note_on,60,0,1
2,note_on,58,38,720
2,note_on,68,45,0
2,note_on,68,0,480
2,note_on,58,0,0
2,note_on,63,38,480
2,note_on,67,45,0
2,note_on,67,0,480
2,note_on,63,0,0
2,note_on,58,38,480
2,note_on,68,45,0
2,note_on,68,0,480
2,note_on,58,0,0
2,note_on,39,26,720
2,note_on,39,0,240
2,note_on,60,51,1680
2,note_on,60,0,240
2,note_on,58,51,0
2,note_on,58,0,240
2,note_on,56,48,0
2,note_on,56,0,240
2,note_on,55,53,0
2,note_on,55,0,240
2,note_on,51,47,0
2,note_on,51,0,180
2,note_on,56,49,60
2,note_on,56,0,240
2,note_on,51,45,0
2,note_on,51,0,180
2,note_on,58,49,60
2,note_on,58,0,240
2,note_on,51,45,0
2,note_on,51,0,180
2,note_on,56,49,60
2,note_on,56,0,240
2,note_on,60,51,1440
2,note_on,60,0,240
2,note_on,58,51,0
2,note_on,58,0,240
2,note_on,56,48,0
2,note_on,56,0,240
2,note_on,61,53,0
2,note_on,61,0,240
2,note_on,58,47,0
2,note_on,58,0,180
2,note_on,63,49,60
2,note_on,63,0,240
2,note_on,51,45,0
2,note_on,51,0,180
2,note_on,56,50,60
2,note_on,56,0,240
2,note_on,51,42,0
2,note_on,51,0,240
2,note_on,44,47,0
2,note_on,44,0,240
2,note_on,68,53,240
2,note_on,68,0,240
2,note_on,67,47,0
2,note_on,67,0,180
2,note_on,68,49,60
2,note_on,68,0,240
2,note_on,65,45,0
2,note_on,65,0,180
2,note_on,64,53,60
2,note_on,64,0,480
2,note_on,65,53,480
2,note_on,65,0,240
2,note_on,67,47,0
2,note_on,67,0,240
2,note_on,68,49,0
2,note_on,68,0,240
2,note_on,60,53,240
2,note_on,60,0,240
2,note_on,62,47,0
2,note_on,62,0,240
2,note_on,64,49,0
2,note_on,64,0,240
2,note_on,52,42,1200
2,note_on,55,42,0
2,note_on,60,53,0
2,note_on,60,0,960
2,note_on,55,0,0
2,note_on,52,0,0
2,note_on,53,45,0
2,note_on,60,53,0
2,note_on,60,0,480
2,note_on,53,0,0
2,note_on,60,46,0
2,note_on,48,39,0
2,note_on,48,0,480
2,note_on,60,0,0
2,note_on,41,45,0
2,note_on,53,53,0
2,note_on,53,0,480
2,note_on,41,0,0
2,note_on,68,53,480
2,note_on,68,0,240
2,note_on,67,47,0
2,note_on,67,0,180
2,note_on,68,49,60
2,note_on,68,0,240
2,note_on,65,45,0
2,note_on,65,0,180
2,note_on,64,53,60
2,note_on,64,0,480
2,note_on,65,53,480
2,note_on,65,0,240
2,note_on,67,47,0
2,note_on,67,0,240
2,note_on,68,49,0
2,note_on,68,0,240
2,note_on,60,53,240
2,note_on,60,0,240
2,note_on,62,47,0
2,note_on,62,0,240
2,note_on,64,49,0
2,note_on,64,0,240
2,note_on,52,42,1200
2,note_on,55,42,0
2,note_on,60,53,0
2,note_on,60,0,960
2,note_on,55,0,0
2,note_on,52,0,0
2,note_on,53,45,0
2,note_on,60,53,0
2,note_on,60,0,480
2,note_on,53,0,0
2,note_on,60,46,0
2,note_on,48,39,0
2,note_on,48,0,480
2,note_on,60,0,0
2,note_on,41,45,0
2,note_on,53,53,0
2,note_on,53,0,480
2,note_on,41,0,0
2,note_on,64,48,480
2,note_on,64,0,120
2,note_on,72,40,0
2,note_on,72,0,120
2,note_on,64,44,0
2,note_on,64,0,120
2,note_on,72,40,0
2,note_on,72,0,120
2,note_on,65,44,0
2,note_on,65,0,120
2,note_on,72,37,0
2,note_on,72,0,120
2,note_on,65,43,0
2,note_on,65,0,120
2,note_on,72,38,0
2,note_on,72,0,90
2,note_on,60,48,30
2,note_on,60,0,120
2,note_on,72,40,0
2,note_on,72,0,120
2,note_on,62,44,0
2,note_on,62,0,120
2,note_on,72,40,0
2,note_on,72,0,120
2,note_on,64,44,0
2,note_on,64,0,240
2,note_on,64,48,240
2,note_on,64,0,120
2,note_on,72,40,0
2,note_on,72,0,120
2,note_on,64,44,0
2,note_on,64,0,120
2,note_on,72,40,0
2,note_on,72,0,120
2,note_on,65,44,0
2,note_on,65,0,120
2,note_on,72,37,0
2,note_on,72,0,120
2,note_on,65,43,0
2,note_on,65,0,120
2,note_on,72,38,0
2,note_on,72,0,90
2,note_on,60,48,30
2,note_on,60,0,120
2,note_on,64,40,0
2,note_on,64,0,120
2,note_on,67,44,0
2,note_on,67,0,120
2,note_on,72,40,0
2,note_on,72,0,120
2,note_on,60,44,0
2,note_on,60,0,240
2,note_on,64,48,240
2,note_on,64,0,120
2,note_on,72,40,0
2,note_on,72,0,120
2,note_on,64,44,0
2,note_on,64,0,120
2,note_on,72,40,0
2,note_on,72,0,120
2,note_on,65,44,0
2,note_on,65,0,120
2,note_on,72,37,0
2,note_on,72,0,120
2,note_on,65,43,0
2,note_on,65,0,120
2,note_on,72,38,0
2,note_on,72,0,90
2,note_on,60,48,30
2,note_on,60,0,120
2,note_on,72,40,0
2,note_on,72,0,120
2,note_on,62,44,0
2,note_on,62,0,120
2,note_on,72,40,0
2,note_on,72,0,120
2,note_on,64,44,0
2,note_on,64,0,240
2,note_on,64,48,240
2,note_on,64,0,120
2,note_on,72,40,0
2,note_on,72,0,120
2,note_on,64,44,0
2,note_on,64,0,120
2,note_on,72,40,0
2,note_on,72,0,120
2,note_on,65,44,0
2,note_on,65,0,120
2,note_on,72,37,0
2,note_on,72,0,120
2,note_on,65,43,0
2,note_on,65,0,120
2,note_on,72,38,0
2,note_on,72,0,90
2,note_on,60,48,30
2,note_on,60,0,480
2,note_on,80,47,240
2,note_on,80,0,240
2,note_on,82,48,0
2,note_on,82,0,240
2,note_on,80,45,0
2,note_on,80,0,240
2,note_on,79,48,0
2,note_on,79,0,240
2,note_on,77,45,0
2,note_on,77,0,240
2,note_on,76,49,0
2,note_on,76,0,240
2,note_on,68,63,480
2,note_on,68,0,120
2,note_on,70,66,120
2,note_on,70,0,120
2,note_on,68,60,120
2,note_on,68,0,120
2,note_on,67,66,120
2,note_on,67,0,120
2,note_on,65,59,120
2,note_on,65,0,120
2,note_on,60,58,120
2,note_on,64,66,0
2,note_on,64,0,480
2,note_on,60,0,0
2,note_on,60,58,480
2,note_on,65,66,0
2,note_on,65,0,480
2,note_on,60,0,0
2,note_on,64,66,480
2,note_on,60,58,0
2,note_on,60,0,480
2,note_on,64,0,0
2,note_on,65,66,480
2,note_on,60,58,0
2,note_on,60,0,480
2,note_on,65,0,0
2,note_on,64,66,480
2,note_on,60,58,0
2,note_on,60,0,480
2,note_on,64,0,0
2,note_on,62,66,480
2,note_on,59,58,0
2,note_on,59,0,480
2,note_on,62,0,0
2,note_on,34,43,3360
2,note_on,46,49,0
2,note_on,46,0,480
2,note_on,34,0,0
2,note_on,31,55,1440
2,note_on,43,63,0
2,note_on,43,0,480
2,note_on,31,0,0
2,note_on,60,51,4560
2,note_on,60,0,240
2,note_on,58,51,0
2,note_on,58,0,240
2,note_on,56,48,0
2,note_on,56,0,240
2,note_on,55,53,0
2,note_on,55,0,240
2,note_on,51,47,0
2,note_on,51,0,180
2,note_on,56,49,60
2,note_on,56,0,240
2,note_on,51,45,0
2,note_on,51,0,180
2,note_on,58,49,60
2,note_on,58,0,240
2,note_on,51,45,0
2,note_on,51,0,180
2,note_on,56,49,60
2,note_on,56,0,240
2,note_on,60,51,1440
2,note_on,60,0,240
2,note_on,58,51,0
2,note_on,58,0,240
2,note_on,56,48,0
2,note_on,56,0,240
2,note_on,61,53,0
2,note_on,61,0,240
2,note_on,58,47,0
2,note_on,58,0,180
2,note_on,63,49,60
2,note_on,63,0,240
2,note_on,51,45,0
2,note_on,51,0,180
2,note_on,56,50,60
2,note_on,56,0,240
2,note_on,51,42,0
2,note_on,51,0,240
2,note_on,44,47,0
2,note_on,44,0,240
2,note_on,68,41,960
2,note_on,68,0,240
2,note_on,67,45,0
2,note_on,67,0,477
2,note_on,65,41,1203
2,note_on,65,0,240
2,note_on,63,45,0
2,note_on,63,0,477
2,note_on,61,41,1203
2,note_on,61,0,240
2,note_on,60,45,0
2,note_on,60,0,477
2,note_on,58,38,483
2,note_on,68,45,0
2,note_on,68,0,480
2,note_on,58,0,0
2,note_on,63,38,480
2,note_on,67,45,0
2,note_on,67,0,480
2,note_on,63,0,0
2,note_on,68,45,480
2,note_on,58,38,0
2,note_on,58,0,480
2,note_on,68,0,0
2,note_on,63,38,480
2,note_on,67,45,0
2,note_on,67,0,480
2,note_on,63,0,0
2,note_on,58,38,480
2,note_on,68,45,0
2,note_on,68,0,480
2,note_on,58,0,0
2,note_on,63,38,480
2,note_on,67,45,0
2,note_on,67,0,480
2,note_on,63,0,0
2,note_on,51,36,720
2,note_on,51,0,240
2,note_on,55,38,0
2,note_on,55,0,240
2,note_on,58,35,0
2,note_on,58,0,240
2,note_on,63,36,0
2,note_on,63,0,162
2,note_on,60,51,240
2,note_on,60,0,240
2,note_on,58,51,0
2,note_on,58,0,240
2,note_on,56,48,0
2,note_on,56,0,240
2,note_on,55,53,0
2,note_on,55,0,240
2,note_on,51,47,0
2,note_on,51,0,180
2,note_on,56,49,60
2,note_on,56,0,240
2,note_on,51,45,0
2,note_on,51,0,180
2,note_on,58,49,60
2,note_on,58,0,240
2,note_on,51,45,0
2,note_on,51,0,180
2,note_on,56,49,60
2,note_on,56,0,240
2,note_on,60,51,1440
2,note_on,60,0,240
2,note_on,58,51,0
2,note_on,58,0,240
2,note_on,56,48,0
2,note_on,56,0,240
2,note_on,61,53,0
2,note_on,61,0,240
2,note_on,58,47,0
2,note_on,58,0,180
2,note_on,63,49,60
2,note_on,63,0,240
2,note_on,51,45,0
2,note_on,51,0,180
2,note_on,56,50,60
2,note_on,56,0,240
2,note_on,51,42,0
2,note_on,51,0,240
2,note_on,44,47,0
2,note_on,44,0,240
2,note_on,68,41,960
2,note_on,68,0,240
2,note_on,67,45,0
2,note_on,67,0,477
2,note_on,65,41,1203
2,note_on,65,0,240
2,note_on,63,45,0
2,note_on,63,0,477
2,note_on,61,41,1203
2,note_on,61,0,240
2,note_on,60,45,0
2,note_on,60,0,477
2,note_on,58,38,483
2,note_on,68,45,0
2,note_on,68,0,480
2,note_on,58,0,0
2,note_on,63,38,480
2,note_on,67,45,0
2,note_on,67,0,480
2,note_on,63,0,0
2,note_on,68,45,480
2,note_on,58,38,0
2,note_on,58,0,480
2,note_on,68,0,0
2,note_on,63,38,480
2,note_on,67,45,0
2,note_on,67,0,480
2,note_on,63,0,0
2,note_on,58,38,480
2,note_on,68,45,0
2,note_on,68,0,480
2,note_on,58,0,0
2,note_on,63,38,480
2,note_on,67,45,0
2,note_on,67,0,480
2,note_on,63,0,0
2,note_on,51,36,720
2,note_on,51,0,240
2,note_on,55,38,0
2,note_on,55,0,240
2,note_on,58,35,0
2,note_on,58,0,240
2,note_on,63,36,0
2,note_on,63,0,176
2,note_on,60,51,227
2,note_on,60,0,240
2,note_on,58,51,0
2,note_on,58,0,240
2,note_on,56,48,0
2,note_on,56,0,240
2,note_on,55,53,0
2,note_on,55,0,240
2,note_on,51,47,0
2,note_on,51,0,180
2,note_on,56,49,60
2,note_on,56,0,240
2,note_on,51,45,0
2,note_on,51,0,180
2,note_on,58,49,60
2,note_on,58,0,240
2,note_on,51,45,0
2,note_on,51,0,180
2,note_on,56,49,60
2,note_on,56,0,240
2,note_on,60,51,1440
2,note_on,60,0,240
2,note_on,58,51,0
2,note_on,58,0,240
2,note_on,56,48,0
2,note_on,56,0,240
2,note_on,61,53,0
2,note_on,61,0,240
2,note_on,58,47,0
2,note_on,58,0,180
2,note_on,63,49,60
2,note_on,63,0,240
2,note_on,51,45,0
2,note_on,51,0,180
2,note_on,56,50,60
2,note_on,56,0,240
2,note_on,44,42,0
2,note_on,44,0,240
2,note_on,61,52,0
2,note_on,56,44,0
2,note_on,56,0,120
2,note_on,61,0,0
2,note_on,61,45,120
2,note_on,56,37,0
2,note_on,56,0,120
2,note_on,61,0,0
2,note_on,56,43,120
2,note_on,60,51,0
2,note_on,60,0,120
2,note_on,56,0,0
2,note_on,56,36,120
2,note_on,60,44,0
2,note_on,60,0,120
2,note_on,56,0,0
2,note_on,65,52,120
2,note_on,56,44,0
2,note_on,56,0,120
2,note_on,65,0,0
2,note_on,65,45,120
2,note_on,56,37,0
2,note_on,56,0,120
2,note_on,65,0,0
2,note_on,56,43,120
2,note_on,63,51,0
2,note_on,63,0,120
2,note_on,56,0,0
2,note_on,56,36,120
2,note_on,63,44,0
2,note_on,63,0,120
2,note_on,56,0,0
2,note_on,61,52,120
2,note_on,56,44,0
2,note_on,56,0,120
2,note_on,61,0,0
2,note_on,61,45,120
2,note_on,56,37,0
2,note_on,56,0,120
2,note_on,61,0,0
2,note_on,56,43,120
2,note_on,60,51,0
2,note_on,60,0,240
2,note_on,56,0,0
2,note_on,50,44,720
2,note_on,58,51,0
2,note_on,58,0,480
2,note_on,50,0,0
2,note_on,50,44,480
2,note_on,58,51,0
2,note_on,58,0,480
2,note_on,50,0,0
2,note_on,51,48,480
2,note_on,51,0,240
2,note_on,53,48,0
2,note_on,53,0,240
2,note_on,55,48,0
2,note_on,55,0,240
2,note_on,56,56,0
2,note_on,56,0,240
2,note_on,58,61,0
2,note_on,58,0,240
2,note_on,56,51,0
2,note_on,56,0,240
2,note_on,58,58,0
2,note_on,58,0,240
2,note_on,55,51,0
2,note_on,55,0,240
2,note_on,56,53,0
2,note_on,56,0,240
2,note_on,58,58,0
2,note_on,58,0,240
2,note_on,60,59,0
2,note_on,60,0,240
2,note_on,61,59,0
2,note_on,61,0,240
2,note_on,63,64,0
2,note_on,63,0,240
2,note_on,61,56,0
2,note_on,61,0,240
2,note_on,63,67,0
2,note_on,63,0,240
2,note_on,60,57,0
2,note_on,60,0,240
2,note_on,61,71,0
2,note_on,61,0,480
2,note_on,68,71,480
2,note_on,68,0,240
2,note_on,69,74,240
2,note_on,69,0,240
2,note_on,70,80,240
2,note_on,70,0,480
2,note_on,65,71,480
2,note_on,65,0,240
2,note_on,65,74,240
2,note_on,65,0,240
2,note_on,66,71,240
2,note_on,66,0,240
2,note_on,63,74,240
2,note_on,63,0,240
2,note_on,60,71,240
2,note_on,60,0,240
2,note_on,61,74,240
2,note_on,61,0,240
2,note_on,58,71,240
2,note_on,58,0,240
2,note_on,60,74,240
2,note_on,60,0,240
2,note_on,57,71,240
2,note_on,57,0,240
2,note_on,58,72,240
2,note_on,58,0,240
2,note_on,55,67,240
2,note_on,55,0,240
2,note_on,56,68,240
2,note_on,56,0,240
2,note_on,53,63,240
2,note_on,53,0,240
2,note_on,56,65,240
2,note_on,56,0,240
2,note_on,59,62,240
2,note_on,59,0,240
2,note_on,56,65,240
2,note_on,56,0,240
2,note_on,53,62,240
2,note_on,53,0,240
2,note_on,56,64,240
2,note_on,56,0,240
2,note_on,59,61,240
2,note_on,59,0,240
2,note_on,56,64,240
2,note_on,56,0,240
2,note_on,39,48,240
2,note_on,51,54,0
2,note_on,51,0,240
2,note_on,39,0,0
2,note_on,55,56,240
2,note_on,55,0,240
2,note_on,58,54,240
2,note_on,58,0,240
2,note_on,55,55,240
2,note_on,55,0,240
2,note_on,39,47,240
2,note_on,51,53,0
2,note_on,51,0,240
2,note_on,39,0,0
2,note_on,55,52,240
2,note_on,55,0,240
2,note_on,58,47,240
2,note_on,58,0,240
2,note_on,55,47,240
2,note_on,55,0,240
2,note_on,39,38,240
2,note_on,51,43,0
2,note_on,51,0,240
2,note_on,39,0,0
2,note_on,48,43,1920
2,note_on,48,0,240
2,note_on,46,43,0
2,note_on,46,0,240
2,note_on,44,40,0
2,note_on,44,0,240
2,note_on,43,45,0
2,note_on,43,0,240
2,note_on,39,39,0
2,note_on,39,0,180
2,note_on,44,41,60
2,note_on,44,0,240
2,note_on,39,38,0
2,note_on,39,0,180
2,note_on,46,41,60
2,note_on,46,0,240
2,note_on,39,38,0
2,note_on,39,0,180
2,note_on,44,41,60
2,note_on,44,0,240
2,note_on,48,43,1440
2,note_on,48,0,240
2,note_on,46,43,0
2,note_on,46,0,240
2,note_on,44,40,0
2,note_on,44,0,240
2,note_on,49,45,0
2,note_on,49,0,240
2,note_on,46,39,0
2,note_on,46,0,180
2,note_on,51,41,60
2,note_on,51,0,240
2,note_on,39,38,0
2,note_on,39,0,180
2,note_on,44,42,60
2,note_on,44,0,240
2,note_on,39,35,0
2,note_on,39,0,240
2,note_on,32,39,0
2,note_on,32,0,240
2,note_on,60,53,1440
2,note_on,60,0,240
2,note_on,58,53,0
2,note_on,58,0,240
2,note_on,56,50,0
2,note_on,56,0,240
2,note_on,55,55,0
2,note_on,55,0,240
2,note_on,51,49,0
2,note_on,51,0,180
2,note_on,56,51,60
2,note_on,56,0,240
2,note_on,51,47,0
2,note_on,51,0,180
2,note_on,58,51,60
2,note_on,58,0,240
2,note_on,51,47,0
2,note_on,51,0,180
2,note_on,56,51,60
2,note_on,56,0,240
2,note_on,60,53,1440
2,note_on,60,0,240
2,note_on,58,53,0
2,note_on,58,0,240
2,note_on,56,50,0
2,note_on,56,0,240
2,note_on,61,55,0
2,note_on,61,0,240
2,note_on,58,49,0
2,note_on,58,0,180
2,note_on,63,51,60
2,note_on,63,0,240
2,note_on,51,47,0
2,note_on,51,0,180
2,note_on,56,52,60
2,note_on,56,0,240
2,note_on,51,44,0
2,note_on,51,0,240
2,note_on,44,49,0
2,note_on,44,0,240
2,note_on,68,34,960
2,note_on,74,41,0
2,note_on,74,0,240
2,note_on,68,0,0
2,note_on,75,45,0
2,note_on,67,38,0
2,note_on,75,0,239
2,note_on,67,0,1
2,note_on,65,34,1440
2,note_on,71,41,0
2,note_on,71,0,240
2,note_on,65,0,0
2,note_on,72,45,0
2,note_on,63,38,0
2,note_on,72,0,477
2,note_on,63,0,3
2,note_on,61,34,1200
2,note_on,67,41,0
2,note_on,67,0,240
2,note_on,61,0,0
2,note_on,68,45,0
2,note_on,60,38,0
2,note_on,68,0,478
2,note_on,60,0,2
2,note_on,58,38,480
2,note_on,65,45,0
2,note_on,65,0,480
2,note_on,58,0,0
2,note_on,63,38,480
2,note_on,67,45,0
2,note_on,67,0,480
2,note_on,63,0,0
2,note_on,58,38,480
2,note_on,65,45,0
2,note_on,65,0,480
2,note_on,58,0,0
2,note_on,63,35,720
2,note_on,63,0,60
2,note_on,51,33,180
2,note_on,51,0,60
2,note_on,39,33,180
2,note_on,39,0,120
2,note_on,60,53,3240
2,note_on,60,0,240
2,note_on,58,53,0
2,note_on,58,0,240
2,note_on,56,50,0
2,note_on,56,0,240
2,note_on,55,55,0
2,note_on,55,0,240
2,note_on,51,49,0
2,note_on,51,0,180
2,note_on,56,51,60
2,note_on,56,0,240
2,note_on,51,47,0
2,note_on,51,0,180
2,note_on,58,51,60
2,note_on,58,0,240
2,note_on,51,47,0
2,note_on,51,0,180
2,note_on,56,51,60
2,note_on,56,0,240
2,note_on,60,53,1440
2,note_on,60,0,240
2,note_on,58,53,0
2,note_on,58,0,240
2,note_on,56,50,0
2,note_on,56,0,240
2,note_on,61,55,0
2,note_on,61,0,240
2,note_on,58,49,0
2,note_on,58,0,180
2,note_on,63,51,60
2,note_on,63,0,240
2,note_on,51,47,0
2,note_on,51,0,180
2,note_on,56,52,60
2,note_on,56,0,240
2,note_on,51,44,0
2,note_on,51,0,240
2,note_on,44,49,0
2,note_on,44,0,240
2,note_on,74,41,960
2,note_on,68,34,0
2,note_on,68,0,240
2,note_on,74,0,0
2,note_on,67,38,0
2,note_on,75,45,0
2,note_on,75,0,477
2,note_on,67,0,3
2,note_on,65,34,1200
2,note_on,71,41,0
2,note_on,71,0,240
2,note_on,65,0,0
2,note_on,72,45,0
2,note_on,63,38,0
2,note_on,72,0,477
2,note_on,63,0,3
2,note_on,61,34,1200
2,note_on,67,41,0
2,note_on,67,0,240
2,note_on,61,0,0
2,note_on,60,38,0
2,note_on,68,45,0
2,note_on,68,0,478
2,note_on,60,0,2
2,note_on,58,38,480
2,note_on,65,45,0
2,note_on,65,0,480
2,note_on,58,0,0
2,note_on,63,38,480
2,note_on,67,45,0
2,note_on,67,0,480
2,note_on,63,0,0
2,note_on,58,38,480
2,note_on,65,45,0
2,note_on,65,0,480
2,note_on,58,0,0
2,note_on,63,35,720
2,note_on,63,0,60
2,note_on,51,33,180
2,note_on,51,0,60
2,note_on,39,33,180
2,note_on,39,0,120
2,note_on,60,53,3240
2,note_on,60,0,240
2,note_on,58,53,0
2,note_on,58,0,240
2,note_on,56,50,0
2,note_on,56,0,240
2,note_on,55,55,0
2,note_on,55,0,240
2,note_on,51,49,0
2,note_on,51,0,180
2,note_on,56,51,60
2,note_on,56,0,240
2,note_on,51,47,0
2,note_on,51,0,180
2,note_on,58,51,60
2,note_on,58,0,240
2,note_on,51,47,0
2,note_on,51,0,180
2,note_on,56,51,60
2,note_on,56,0,240
2,note_on,60,53,1440
2,note_on,60,0,240
2,note_on,58,53,0
2,note_on,58,0,240
2,note_on,56,50,0
2,note_on,56,0,240
2,note_on,61,55,0
2,note_on,61,0,240
2,note_on,58,49,0
2,note_on,58,0,180
2,note_on,63,51,60
2,note_on,63,0,240
2,note_on,51,47,0
2,note_on,51,0,180
2,note_on,56,52,60
2,note_on,56,0,240
2,note_on,44,44,0
2,note_on,44,0,240
2,note_on,56,48,0
2,note_on,61,57,0
2,note_on,61,0,120
2,note_on,56,0,0
2,note_on,61,49,120
2,note_on,56,40,0
2,note_on,56,0,120
2,note_on,61,0,0
2,note_on,56,47,120
2,note_on,60,56,0
2,note_on,60,0,120
2,note_on,56,0,0
2,note_on,60,48,120
2,note_on,56,39,0
2,note_on,56,0,120
2,note_on,60,0,0
2,note_on,65,57,120
2,note_on,56,48,0
2,note_on,56,0,120
2,note_on,65,0,0
2,note_on,56,40,120
2,note_on,65,49,0
2,note_on,65,0,120
2,note_on,56,0,0
2,note_on,56,47,120
2,note_on,63,56,0
2,note_on,63,0,120
2,note_on,56,0,0
2,note_on,56,39,120
2,note_on,63,48,0
2,note_on,63,0,120
2,note_on,56,0,0
2,note_on,56,48,120
2,note_on,61,57,0
2,note_on,61,0,120
2,note_on,56,0,0
2,note_on,56,40,120
2,note_on,61,49,0
2,note_on,61,0,120
2,note_on,56,0,0
2,note_on,56,47,120
2,note_on,60,56,0
2,note_on,60,0,240
2,note_on,56,0,0
2,note_on,36,25,720
2,note_on,48,30,0
2,note_on,48,0,480
2,note_on,36,0,0
2,note_on,37,25,480
2,note_on,49,30,0
2,note_on,49,0,480
2,note_on,37,0,0
2,note_on,39,25,480
2,note_on,51,30,0
2,note_on,51,0,480
2,note_on,39,0,0
2,note_on,32,25,480
2,note_on,44,30,0
2,note_on,44,0,480
2,note_on,32,0,0
2,note_on,32,50,1920
2,note_on,44,59,0
2,note_on,44,0,480
2,note_on,32,0,0
