Track,Message Type,Note,Velocity,Time
1,note_on,58,81,120
1,note_on,58,0,90
1,note_on,58,77,30
1,note_on,58,0,90
1,note_on,57,77,150
1,note_on,57,0,90
1,note_on,58,73,30
1,note_on,58,0,90
1,note_on,54,84,150
1,note_on,54,0,90
1,note_on,57,77,30
1,note_on,57,0,90
1,note_on,61,87,150
1,note_on,61,0,90
1,note_on,60,87,30
1,note_on,60,0,90
1,note_on,56,75,150
1,note_on,56,0,90
1,note_on,56,73,30
1,note_on,56,0,90
1,note_on,53,74,150
1,note_on,53,0,90
1,note_on,54,71,30
1,note_on,54,0,90
1,note_on,58,72,150
1,note_on,58,0,90
1,note_on,56,67,30
1,note_on,56,0,90
1,note_on,58,49,510
1,note_on,58,0,90
1,note_on,58,47,30
1,note_on,58,0,90
1,note_on,57,45,150
1,note_on,57,0,90
1,note_on,58,45,30
1,note_on,58,0,90
1,note_on,54,46,150
1,note_on,54,0,90
1,note_on,57,45,30
1,note_on,57,0,90
1,note_on,61,47,150
1,note_on,61,0,90
1,note_on,60,47,30
1,note_on,60,0,90
1,note_on,56,46,150
1,note_on,56,0,90
1,note_on,56,45,30
1,note_on,56,0,90
1,note_on,53,45,150
1,note_on,53,0,90
1,note_on,54,45,30
1,note_on,54,0,90
1,note_on,58,43,150
1,note_on,58,0,90
1,note_on,56,43,30
1,note_on,56,0,90
1,note_on,54,72,510
1,note_on,54,0,90
1,note_on,57,71,30
1,note_on,57,0,90
1,note_on,58,80,150
1,note_on,58,0,90
1,note_on,60,80,30
1,note_on,60,0,90
1,note_on,63,85,150
1,note_on,63,0,90
1,note_on,61,80,30
1,note_on,61,0,90
1,note_on,60,77,150
1,note_on,60,0,90
1,note_on,58,71,30
1,note_on,58,0,90
1,note_on,56,81,150
1,note_on,56,0,90
1,note_on,56,79,30
1,note_on,56,0,90
1,note_on,61,79,150
1,note_on,61,0,90
1,note_on,60,84,30
1,note_on,60,0,90
1,note_on,56,79,150
1,note_on,56,0,90
1,note_on,58,79,30
1,note_on,58,0,90
1,note_on,54,43,510
1,note_on,54,0,90
1,note_on,57,43,30
1,note_on,57,0,90
1,note_on,58,45,150
1,note_on,58,0,90
1,note_on,60,45,30
1,note_on,60,0,90
1,note_on,63,47,150
1,note_on,63,0,90
1,note_on,61,47,30
1,note_on,61,0,90
1,note_on,60,45,150
1,note_on,60,0,90
1,note_on,58,45,30
1,note_on,58,0,90
1,note_on,56,49,150
1,note_on,56,0,90
1,note_on,56,49,30
1,note_on,56,0,90
1,note_on,61,46,150
1,note_on,61,0,90
1,note_on,60,46,30
1,note_on,60,0,90
1,note_on,56,46,150
1,note_on,56,0,90
1,note_on,58,46,30
1,note_on,58,0,90
1,note_on,66,62,390
1,note_on,70,70,0
1,note_on,70,0,90
1,note_on,66,0,0
1,note_on,66,55,30
1,note_on,70,62,0
1,note_on,70,0,90
1,note_on,66,0,0
1,note_on,66,57,30
1,note_on,70,63,0
1,note_on,70,0,90
1,note_on,66,0,0
1,note_on,70,71,30
1,note_on,66,63,0
1,note_on,66,0,90
1,note_on,70,0,0
1,note_on,65,64,30
1,note_on,65,0,90
1,note_on,70,70,30
1,note_on,66,62,0
1,note_on,66,0,90
1,note_on,70,0,0
1,note_on,62,63,30
1,note_on,62,0,90
1,note_on,63,57,30
1,note_on,66,63,0
1,note_on,66,0,90
1,note_on,63,0,0
1,note_on,65,64,30
1,note_on,65,0,90
1,note_on,66,62,30
1,note_on,70,70,0
1,note_on,70,0,90
1,note_on,73,69,30
1,note_on,73,0,90
1,note_on,66,0,30
1,note_on,68,59,0
1,note_on,72,65,0
1,note_on,72,0,90
1,note_on,68,0,0
1,note_on,68,65,30
1,note_on,65,59,0
1,note_on,65,0,90
1,note_on,68,0,0
1,note_on,65,57,30
1,note_on,68,63,0
1,note_on,68,0,90
1,note_on,65,0,0
1,note_on,65,63,30
1,note_on,68,63,0
1,note_on,68,0,90
1,note_on,65,0,0
1,note_on,68,73,30
1,note_on,65,65,0
1,note_on,65,0,90
1,note_on,68,0,0
1,note_on,61,67,30
1,note_on,61,0,90
1,note_on,66,65,30
1,note_on,63,65,0
1,note_on,63,0,90
1,note_on,66,0,0
1,note_on,65,72,30
1,note_on,65,0,90
1,note_on,66,57,30
1,note_on,70,64,0
1,note_on,70,0,90
1,note_on,66,0,0
1,note_on,65,65,30
1,note_on,65,0,90
1,note_on,61,74,30
1,note_on,65,82,0
1,note_on,65,0,360
1,note_on,61,0,0
1,note_on,66,41,0
1,note_on,70,45,0
1,note_on,70,0,90
1,note_on,66,0,0
1,note_on,66,29,30
1,note_on,70,33,0
1,note_on,70,0,90
1,note_on,66,0,0
1,note_on,66,31,30
1,note_on,70,35,0
1,note_on,70,0,90
1,note_on,66,0,0
1,note_on,70,40,30
1,note_on,66,35,0
1,note_on,66,0,90
1,note_on,70,0,0
1,note_on,65,35,30
1,note_on,65,0,90
1,note_on,70,36,30
1,note_on,66,32,0
1,note_on,66,0,90
1,note_on,70,0,0
1,note_on,62,36,30
1,note_on,62,0,90
1,note_on,66,33,30
1,note_on,63,29,0
1,note_on,63,0,90
1,note_on,66,0,0
1,note_on,65,42,30
1,note_on,65,0,90
1,note_on,66,33,30
1,note_on,70,37,0
1,note_on,70,0,90
1,note_on,73,45,30
1,note_on,73,0,90
1,note_on,66,0,30
1,note_on,68,39,0
1,note_on,72,39,0
1,note_on,72,0,90
1,note_on,68,0,0
1,note_on,65,36,30
1,note_on,68,41,0
1,note_on,68,0,90
1,note_on,65,0,0
1,note_on,68,33,30
1,note_on,65,29,0
1,note_on,65,0,90
1,note_on,68,0,0
1,note_on,65,29,30
1,note_on,68,33,0
1,note_on,68,0,90
1,note_on,65,0,0
1,note_on,68,36,30
1,note_on,65,32,0
1,note_on,65,0,90
1,note_on,68,0,0
1,note_on,61,36,30
1,note_on,61,0,90
1,note_on,66,36,30
1,note_on,63,36,0
1,note_on,63,0,90
1,note_on,66,0,0
1,note_on,65,42,30
1,note_on,65,0,90
1,note_on,70,41,30
1,note_on,66,36,0
1,note_on,66,0,90
1,note_on,70,0,0
1,note_on,65,36,30
1,note_on,65,0,90
1,note_on,61,41,30
1,note_on,65,45,0
1,note_on,65,0,360
1,note_on,61,0,0
1,note_on,62,72,0
1,note_on,62,0,90
1,note_on,66,69,30
1,note_on,63,69,0
1,note_on,63,0,90
1,note_on,66,0,0
1,note_on,65,69,30
1,note_on,65,0,90
1,note_on,70,80,30
1,note_on,66,80,0
1,note_on,66,0,90
1,note_on,70,0,0
1,note_on,69,74,30
1,note_on,69,0,90
1,note_on,70,75,30
1,note_on,73,75,0
1,note_on,73,0,90
1,note_on,70,0,0
1,note_on,71,84,30
1,note_on,71,0,90
1,note_on,75,74,30
1,note_on,72,74,0
1,note_on,72,0,90
1,note_on,75,0,0
1,note_on,73,75,30
1,note_on,70,75,0
1,note_on,70,0,90
1,note_on,73,0,0
1,note_on,72,74,30
1,note_on,68,74,0
1,note_on,68,0,90
1,note_on,67,72,30
1,note_on,67,0,90
1,note_on,72,0,30
1,note_on,70,70,0
1,note_on,66,70,0
1,note_on,66,0,90
1,note_on,64,74,30
1,note_on,64,0,90
1,note_on,70,0,30
1,note_on,65,71,0
1,note_on,65,0,90
1,note_on,67,70,30
1,note_on,67,0,90
1,note_on,73,81,30
1,note_on,68,81,0
1,note_on,68,0,90
1,note_on,69,66,30
1,note_on,73,0,120
1,note_on,72,72,0
1,note_on,72,0,90
1,note_on,69,0,30
1,note_on,70,69,0
1,note_on,70,0,90
1,note_on,68,65,30
1,note_on,68,0,90
1,note_on,70,63,30
1,note_on,70,0,90
1,note_on,62,57,30
1,note_on,65,64,0
1,note_on,65,0,360
1,note_on,62,0,0
1,note_on,62,40,0
1,note_on,62,0,90
1,note_on,66,41,30
1,note_on,63,36,0
1,note_on,63,0,90
1,note_on,66,0,0
1,note_on,65,37,30
1,note_on,65,0,90
1,note_on,70,44,30
1,note_on,66,44,0
1,note_on,66,0,90
1,note_on,70,0,0
1,note_on,69,41,30
1,note_on,69,0,90
1,note_on,73,47,30
1,note_on,70,47,0
1,note_on,70,0,90
1,note_on,73,0,0
1,note_on,71,49,30
1,note_on,71,0,90
1,note_on,75,46,30
1,note_on,72,46,0
1,note_on,72,0,90
1,note_on,75,0,0
1,note_on,73,44,30
1,note_on,70,44,0
1,note_on,70,0,90
1,note_on,73,0,0
1,note_on,68,41,30
1,note_on,72,41,0
1,note_on,68,0,90
1,note_on,67,45,30
1,note_on,67,0,90
1,note_on,72,0,30
1,note_on,70,42,0
1,note_on,66,42,0
1,note_on,66,0,90
1,note_on,64,44,30
1,note_on,64,0,90
1,note_on,70,0,30
1,note_on,65,41,0
1,note_on,65,0,90
1,note_on,67,39,30
1,note_on,67,0,90
1,note_on,73,42,30
1,note_on,68,42,0
1,note_on,68,0,90
1,note_on,69,36,30
1,note_on,73,0,120
1,note_on,72,43,0
1,note_on,72,0,90
1,note_on,69,0,30
1,note_on,70,40,0
1,note_on,70,0,90
1,note_on,68,36,30
1,note_on,68,0,90
1,note_on,70,37,30
1,note_on,70,0,90
1,note_on,61,37,30
1,note_on,65,43,0
1,note_on,65,0,360
1,note_on,61,0,0
1,note_on,60,32,0
1,note_on,65,32,0
1,note_on,65,0,120
1,note_on,60,0,0
1,note_on,65,32,120
1,note_on,60,32,0
1,note_on,60,0,120
1,note_on,65,0,0
1,note_on,58,31,0
1,note_on,65,31,0
1,note_on,65,0,120
1,note_on,58,0,0
1,note_on,60,36,120
1,note_on,65,36,0
1,note_on,65,0,120
1,note_on,60,0,0
1,note_on,65,39,0
1,note_on,61,39,0
1,note_on,61,0,120
1,note_on,65,0,0
1,note_on,65,33,120
1,note_on,63,33,0
1,note_on,63,0,120
1,note_on,65,0,0
1,note_on,60,32,0
1,note_on,65,32,0
1,note_on,65,0,120
1,note_on,60,0,0
1,note_on,61,32,120
1,note_on,65,32,0
1,note_on,65,0,120
1,note_on,61,0,0
1,note_on,58,31,0
1,note_on,63,31,0
1,note_on,63,0,120
1,note_on,58,0,0
1,note_on,56,41,120
1,note_on,63,33,0
1,note_on,63,0,120
1,note_on,56,0,0
1,note_on,61,46,0
1,note_on,63,37,0
1,note_on,63,0,120
1,note_on,61,0,0
1,note_on,63,34,120
1,note_on,60,34,0
1,note_on,60,0,120
1,note_on,63,0,0
1,note_on,63,33,0
1,note_on,58,33,0
1,note_on,58,0,120
1,note_on,63,0,0
1,note_on,60,31,120
1,note_on,63,31,0
1,note_on,63,0,120
1,note_on,60,0,0
1,note_on,61,32,0
1,note_on,63,32,0
1,note_on,63,0,120
1,note_on,61,0,0
1,note_on,58,32,120
1,note_on,63,32,0
1,note_on,63,0,120
1,note_on,58,0,0
1,note_on,65,32,0
1,note_on,60,32,0
1,note_on,60,0,120
1,note_on,65,0,0
1,note_on,60,32,120
1,note_on,65,32,0
1,note_on,65,0,120
1,note_on,60,0,0
1,note_on,58,34,0
1,note_on,65,34,0
1,note_on,65,0,120
1,note_on,58,0,0
1,note_on,60,35,120
1,note_on,65,35,0
1,note_on,65,0,120
1,note_on,60,0,0
1,note_on,61,40,0
1,note_on,65,40,0
1,note_on,65,0,120
1,note_on,61,0,0
1,note_on,63,34,120
1,note_on,65,34,0
1,note_on,65,0,120
1,note_on,63,0,0
1,note_on,65,32,0
1,note_on,60,32,0
1,note_on,60,0,120
1,note_on,65,0,0
1,note_on,61,36,120
1,note_on,65,36,0
1,note_on,65,0,120
1,note_on,61,0,0
1,note_on,58,33,0
1,note_on,63,33,0
1,note_on,63,0,120
1,note_on,58,0,0
1,note_on,56,42,120
1,note_on,63,33,0
1,note_on,63,0,120
1,note_on,56,0,0
1,note_on,63,39,0
1,note_on,61,49,0
1,note_on,61,0,120
1,note_on,63,0,0
1,note_on,60,32,120
1,note_on,63,32,0
1,note_on,63,0,120
1,note_on,60,0,0
1,note_on,58,32,0
1,note_on,63,32,0
1,note_on,63,0,120
1,note_on,58,0,0
1,note_on,60,32,120
1,note_on,63,32,0
1,note_on,63,0,120
1,note_on,60,0,0
1,note_on,61,32,0
1,note_on,63,32,0
1,note_on,63,0,120
1,note_on,61,0,0
1,note_on,58,32,120
1,note_on,63,32,0
1,note_on,63,0,120
1,note_on,58,0,0
1,note_on,60,27,120
1,note_on,60,0,120
1,note_on,72,32,0
1,note_on,65,32,0
1,note_on,65,0,120
1,note_on,72,0,0
1,note_on,58,31,120
1,note_on,65,31,0
1,note_on,70,31,0
1,note_on,70,0,120
1,note_on,58,0,0
1,note_on,60,36,0
1,note_on,72,36,0
1,note_on,72,0,120
1,note_on,60,0,0
1,note_on,65,0,0
1,note_on,73,35,120
1,note_on,65,35,0
1,note_on,61,35,0
1,note_on,61,0,120
1,note_on,73,0,0
1,note_on,75,32,0
1,note_on,63,32,0
1,note_on,63,0,120
1,note_on,75,0,0
1,note_on,65,0,0
1,note_on,60,32,120
1,note_on,72,32,0
1,note_on,65,32,0
1,note_on,72,0,120
1,note_on,60,0,0
1,note_on,61,32,0
1,note_on,73,32,0
1,note_on,73,0,120
1,note_on,61,0,0
1,note_on,65,0,0
1,note_on,58,33,120
1,note_on,63,33,0
1,note_on,70,33,0
1,note_on,70,0,120
1,note_on,58,0,0
1,note_on,56,43,0
1,note_on,68,34,0
1,note_on,68,0,120
1,note_on,56,0,0
1,note_on,63,0,0
1,note_on,61,37,120
1,note_on,63,37,0
1,note_on,73,29,0
1,note_on,73,0,120
1,note_on,61,0,0
1,note_on,60,34,0
1,note_on,72,34,0
1,note_on,72,0,120
1,note_on,60,0,0
1,note_on,63,0,0
1,note_on,63,34,120
1,note_on,70,34,0
1,note_on,58,34,0
1,note_on,58,0,120
1,note_on,70,0,0
1,note_on,60,32,0
1,note_on,72,32,0
1,note_on,72,0,120
1,note_on,60,0,0
1,note_on,63,0,0
1,note_on,61,32,120
1,note_on,63,32,0
1,note_on,73,32,0
1,note_on,73,0,120
1,note_on,61,0,0
1,note_on,70,32,0
1,note_on,58,32,0
1,note_on,58,0,120
1,note_on,70,0,0
1,note_on,63,0,0
1,note_on,60,34,120
1,note_on,60,0,120
1,note_on,72,37,0
1,note_on,65,37,0
1,note_on,65,0,120
1,note_on,72,0,0
1,note_on,70,37,120
1,note_on,65,37,0
1,note_on,58,37,0
1,note_on,58,0,120
1,note_on,70,0,0
1,note_on,60,44,0
1,note_on,72,44,0
1,note_on,72,0,120
1,note_on,60,0,0
1,note_on,65,0,0
1,note_on,61,45,120
1,note_on,65,45,0
1,note_on,73,45,0
1,note_on,73,0,120
1,note_on,61,0,0
1,note_on,75,43,0
1,note_on,63,43,0
1,note_on,63,0,120
1,note_on,75,0,0
1,note_on,65,0,0
1,note_on,60,45,120
1,note_on,72,45,0
1,note_on,65,45,0
1,note_on,72,0,120
1,note_on,60,0,0
1,note_on,73,45,0
1,note_on,61,45,0
1,note_on,61,0,120
1,note_on,73,0,0
1,note_on,65,0,0
1,note_on,58,49,120
1,note_on,70,49,0
1,note_on,63,49,0
1,note_on,70,0,120
1,note_on,58,0,0
1,note_on,68,52,0
1,note_on,56,65,0
1,note_on,56,0,120
1,note_on,68,0,0
1,note_on,63,0,0
1,note_on,73,42,120
1,note_on,63,53,0
1,note_on,61,53,0
1,note_on,61,0,120
1,note_on,73,0,0
1,note_on,60,49,0
1,note_on,72,49,0
1,note_on,72,0,120
1,note_on,60,0,0
1,note_on,63,0,0
1,note_on,70,49,120
1,note_on,58,49,0
1,note_on,63,49,0
1,note_on,58,0,120
1,note_on,70,0,0
1,note_on,60,50,0
1,note_on,72,50,0
1,note_on,72,0,120
1,note_on,60,0,0
1,note_on,63,0,0
1,note_on,61,52,120
1,note_on,61,0,120
1,note_on,73,52,0
1,note_on,63,52,0
1,note_on,66,52,0
1,note_on,66,0,120
1,note_on,63,0,0
1,note_on,73,0,0
1,note_on,66,62,0
1,note_on,70,70,0
1,note_on,70,0,90
1,note_on,66,0,0
1,note_on,66,55,30
1,note_on,70,62,0
1,note_on,70,0,90
1,note_on,66,0,0
1,note_on,66,57,30
1,note_on,70,63,0
1,note_on,70,0,90
1,note_on,66,0,0
1,note_on,70,80,30
1,note_on,66,71,0
1,note_on,66,0,90
1,note_on,70,0,0
1,note_on,65,64,30
1,note_on,65,0,90
1,note_on,70,70,30
1,note_on,66,70,0
1,note_on,66,0,90
1,note_on,70,0,0
1,note_on,62,63,30
1,note_on,62,0,90
1,note_on,63,57,30
1,note_on,66,63,0
1,note_on,66,0,90
1,note_on,63,0,0
1,note_on,65,64,30
1,note_on,65,0,90
1,note_on,66,70,30
1,note_on,70,70,0
1,note_on,70,0,90
1,note_on,73,69,30
1,note_on,73,0,90
1,note_on,72,65,30
1,note_on,72,0,90
1,note_on,66,0,30
1,note_on,65,59,0
1,note_on,68,65,0
1,note_on,68,0,90
1,note_on,65,0,0
1,note_on,65,57,30
1,note_on,68,63,0
1,note_on,68,0,90
1,note_on,65,0,0
1,note_on,68,63,30
1,note_on,65,63,0
1,note_on,65,0,90
1,note_on,68,0,0
1,note_on,68,73,30
1,note_on,65,65,0
1,note_on,65,0,90
1,note_on,68,0,0
1,note_on,61,67,30
1,note_on,61,0,90
1,note_on,66,65,30
1,note_on,63,59,0
1,note_on,63,0,90
1,note_on,66,0,0
1,note_on,65,77,30
1,note_on,65,0,90
1,note_on,66,59,30
1,note_on,70,70,0
1,note_on,70,0,90
1,note_on,66,0,0
1,note_on,65,71,30
1,note_on,65,0,90
1,note_on,61,89,30
1,note_on,61,0,360
1,note_on,78,43,0
1,note_on,81,43,0
1,note_on,81,0,90
1,note_on,78,0,0
1,note_on,78,37,30
1,note_on,81,37,0
1,note_on,81,0,90
1,note_on,78,0,0
1,note_on,78,39,30
1,note_on,81,39,0
1,note_on,81,0,90
1,note_on,78,0,0
1,note_on,81,45,30
1,note_on,78,45,0
1,note_on,78,0,90
1,note_on,81,0,0
1,note_on,77,40,30
1,note_on,77,0,90
1,note_on,81,43,30
1,note_on,78,43,0
1,note_on,78,0,90
1,note_on,81,0,0
1,note_on,74,39,30
1,note_on,74,0,90
1,note_on,78,39,30
1,note_on,75,39,0
1,note_on,75,0,90
1,note_on,78,0,0
1,note_on,77,40,30
1,note_on,77,0,90
1,note_on,81,43,30
1,note_on,78,43,0
1,note_on,81,0,90
1,note_on,85,42,30
1,note_on,85,0,90
1,note_on,84,40,30
1,note_on,84,0,90
1,note_on,78,0,30
1,note_on,76,40,0
1,note_on,80,40,0
1,note_on,80,0,90
1,note_on,76,0,0
1,note_on,76,39,30
1,note_on,80,39,0
1,note_on,80,0,90
1,note_on,76,0,0
1,note_on,76,39,30
1,note_on,80,39,0
1,note_on,80,0,90
1,note_on,76,0,0
1,note_on,80,44,30
1,note_on,76,44,0
1,note_on,76,0,90
1,note_on,80,0,0
1,note_on,73,41,30
1,note_on,73,0,90
1,note_on,78,40,30
1,note_on,75,40,0
1,note_on,75,0,90
1,note_on,78,0,0
1,note_on,76,46,30
1,note_on,76,0,90
1,note_on,81,43,30
1,note_on,78,43,0
1,note_on,78,0,90
1,note_on,81,0,0
1,note_on,76,44,30
1,note_on,76,0,90
1,note_on,73,53,30
1,note_on,73,0,360
1,note_on,62,72,0
1,note_on,62,0,90
1,note_on,63,69,30
1,note_on,66,69,0
1,note_on,66,0,90
1,note_on,63,0,0
1,note_on,65,69,30
1,note_on,65,0,90
1,note_on,70,80,30
1,note_on,66,80,0
1,note_on,66,0,90
1,note_on,70,0,0
1,note_on,69,74,30
1,note_on,69,0,90
1,note_on,73,75,30
1,note_on,70,75,0
1,note_on,70,0,90
1,note_on,73,0,0
1,note_on,71,84,30
1,note_on,71,0,90
1,note_on,75,74,30
1,note_on,72,65,0
1,note_on,72,0,90
1,note_on,75,0,0
1,note_on,73,75,30
1,note_on,70,66,0
1,note_on,70,0,90
1,note_on,73,0,0
1,note_on,72,74,30
1,note_on,68,74,0
1,note_on,68,0,90
1,note_on,67,72,30
1,note_on,67,0,90
1,note_on,72,0,30
1,note_on,70,70,0
1,note_on,66,70,0
1,note_on,66,0,90
1,note_on,64,74,30
1,note_on,64,0,90
1,note_on,70,0,30
1,note_on,65,71,0
1,note_on,65,0,90
1,note_on,67,70,30
1,note_on,67,0,90
1,note_on,73,81,30
1,note_on,68,81,0
1,note_on,68,0,90
1,note_on,69,66,30
1,note_on,73,0,120
1,note_on,72,72,0
1,note_on,72,0,90
1,note_on,69,0,30
1,note_on,70,69,0
1,note_on,70,0,90
1,note_on,68,65,30
1,note_on,68,0,90
1,note_on,70,63,30
1,note_on,70,0,90
1,note_on,62,62,30
1,note_on,65,70,0
1,note_on,65,0,360
1,note_on,62,0,0
1,note_on,74,44,0
1,note_on,74,0,90
1,note_on,78,43,30
1,note_on,75,43,0
1,note_on,75,0,90
1,note_on,78,0,0
1,note_on,77,43,30
1,note_on,77,0,90
1,note_on,82,49,30
1,note_on,78,49,0
1,note_on,78,0,90
1,note_on,82,0,0
1,note_on,81,45,30
1,note_on,81,0,90
1,note_on,85,45,30
1,note_on,82,45,0
1,note_on,82,0,90
1,note_on,85,0,0
1,note_on,83,52,30
1,note_on,83,0,90
1,note_on,87,45,30
1,note_on,84,45,0
1,note_on,84,0,90
1,note_on,87,0,0
1,note_on,85,45,30
1,note_on,81,45,0
1,note_on,81,0,90
1,note_on,85,0,0
1,note_on,84,45,30
1,note_on,80,45,0
1,note_on,80,0,90
1,note_on,79,44,30
1,note_on,79,0,90
1,note_on,84,0,30
1,note_on,78,44,0
1,note_on,81,44,0
1,note_on,78,0,90
1,note_on,75,45,30
1,note_on,75,0,90
1,note_on,81,0,30
1,note_on,76,44,0
1,note_on,76,0,90
1,note_on,78,44,30
1,note_on,78,0,90
1,note_on,76,50,30
1,note_on,85,50,0
1,note_on,79,50,0
1,note_on,79,0,90
1,note_on,80,41,30
1,note_on,85,0,120
1,note_on,83,44,0
1,note_on,83,0,90
1,note_on,80,0,30
1,note_on,76,0,0
1,note_on,81,46,0
1,note_on,76,46,0
1,note_on,81,0,90
1,note_on,80,41,30
1,note_on,80,0,90
1,note_on,81,39,30
1,note_on,81,0,90
1,note_on,76,0,30
1,note_on,69,42,0
1,note_on,76,46,0
1,note_on,76,0,360
1,note_on,69,0,0
1,note_on,57,59,120
1,note_on,62,65,0
1,note_on,62,0,90
1,note_on,57,0,0
1,note_on,69,61,30
1,note_on,66,53,0
1,note_on,66,0,90
1,note_on,69,0,0
1,note_on,65,54,150
1,note_on,61,49,0
1,note_on,61,0,90
1,note_on,65,0,0
1,note_on,62,44,30
1,note_on,66,50,0
1,note_on,66,0,90
1,note_on,62,0,0
1,note_on,59,51,150
1,note_on,62,57,0
1,note_on,62,0,90
1,note_on,59,0,0
1,note_on,62,62,150
1,note_on,66,69,0
1,note_on,66,0,90
1,note_on,69,65,30
1,note_on,69,0,90
1,note_on,62,0,30
1,note_on,64,54,0
1,note_on,68,62,0
1,note_on,68,0,90
1,note_on,64,0,0
1,note_on,63,62,150
1,note_on,60,54,0
1,note_on,60,0,90
1,note_on,63,0,0
1,note_on,72,55,30
1,note_on,66,49,0
1,note_on,66,0,90
1,note_on,72,0,0
1,note_on,60,52,150
1,note_on,63,59,0
1,note_on,63,0,90
1,note_on,60,0,0
1,note_on,61,46,30
1,note_on,64,53,0
1,note_on,64,0,90
1,note_on,61,0,0
1,note_on,64,46,150
1,note_on,68,53,0
1,note_on,68,0,90
1,note_on,64,0,0
1,note_on,63,44,30
1,note_on,66,50,0
1,note_on,66,0,90
1,note_on,63,0,0
1,note_on,69,36,510
1,note_on,74,41,0
1,note_on,74,0,90
1,note_on,69,0,0
1,note_on,81,36,30
1,note_on,78,36,0
1,note_on,78,0,90
1,note_on,81,0,0
1,note_on,77,33,150
1,note_on,73,29,0
1,note_on,73,0,90
1,note_on,77,0,0
1,note_on,74,26,30
1,note_on,78,30,0
1,note_on,78,0,90
1,note_on,74,0,0
1,note_on,74,35,150
1,note_on,71,31,0
1,note_on,71,0,90
1,note_on,74,0,0
1,note_on,74,43,150
1,note_on,78,43,0
1,note_on,78,0,90
1,note_on,81,41,30
1,note_on,81,0,90
1,note_on,74,0,30
1,note_on,76,37,0
1,note_on,80,37,0
1,note_on,80,0,90
1,note_on,76,0,0
1,note_on,72,33,150
1,note_on,75,37,0
1,note_on,75,0,90
1,note_on,72,0,0
1,note_on,84,34,30
1,note_on,78,30,0
1,note_on,78,0,90
1,note_on,84,0,0
1,note_on,75,36,150
1,note_on,72,32,0
1,note_on,72,0,90
1,note_on,75,0,0
1,note_on,73,27,30
1,note_on,76,32,0
1,note_on,76,0,90
1,note_on,73,0,0
1,note_on,76,27,150
1,note_on,80,32,0
1,note_on,80,0,90
1,note_on,76,0,0
1,note_on,75,26,30
1,note_on,78,30,0
1,note_on,78,0,90
1,note_on,75,0,0
1,note_on,62,72,510
1,note_on,57,64,0
1,note_on,57,0,90
1,note_on,62,0,0
1,note_on,64,67,30
1,note_on,61,61,0
1,note_on,61,0,90
1,note_on,64,0,0
1,note_on,66,59,150
1,note_on,62,52,0
1,note_on,62,0,90
1,note_on,66,0,0
1,note_on,64,49,30
1,note_on,68,54,0
1,note_on,68,0,90
1,note_on,64,0,0
1,note_on,66,50,150
1,note_on,69,56,0
1,note_on,69,0,90
1,note_on,66,0,0
1,note_on,64,49,30
1,note_on,68,54,0
1,note_on,68,0,90
1,note_on,64,0,0
1,note_on,62,59,150
1,note_on,66,65,0
1,note_on,66,0,90
1,note_on,62,0,0
1,note_on,61,54,30
1,note_on,64,62,0
1,note_on,64,0,90
1,note_on,61,0,0
1,note_on,60,57,150
1,note_on,68,63,0
1,note_on,68,0,90
1,note_on,60,0,0
1,note_on,70,61,30
1,note_on,63,53,0
1,note_on,63,0,90
1,note_on,70,0,0
1,note_on,72,61,150
1,note_on,68,53,0
1,note_on,68,0,90
1,note_on,72,0,0
1,note_on,70,49,30
1,note_on,73,55,0
1,note_on,73,0,90
1,note_on,70,0,0
1,note_on,72,64,150
1,note_on,75,72,0
1,note_on,75,0,90
1,note_on,72,0,0
1,note_on,73,59,30
1,note_on,76,65,0
1,note_on,76,0,90
1,note_on,73,0,0
1,note_on,74,59,510
1,note_on,69,52,0
1,note_on,69,0,90
1,note_on,74,0,0
1,note_on,76,54,30
1,note_on,73,49,0
1,note_on,73,0,90
1,note_on,76,0,0
1,note_on,78,46,150
1,note_on,74,42,0
1,note_on,74,0,90
1,note_on,78,0,0
1,note_on,76,40,30
1,note_on,80,44,0
1,note_on,80,0,90
1,note_on,76,0,0
1,note_on,78,41,150
1,note_on,81,45,0
1,note_on,81,0,90
1,note_on,78,0,0
1,note_on,76,40,30
1,note_on,80,44,0
1,note_on,80,0,90
1,note_on,76,0,0
1,note_on,78,53,150
1,note_on,74,47,0
1,note_on,74,0,90
1,note_on,78,0,0
1,note_on,73,44,30
1,note_on,76,50,0
1,note_on,76,0,90
1,note_on,73,0,0
1,note_on,72,46,150
1,note_on,80,53,0
1,note_on,80,0,90
1,note_on,72,0,0
1,note_on,82,47,30
1,note_on,75,43,0
1,note_on,75,0,90
1,note_on,82,0,0
1,note_on,84,47,150
1,note_on,80,43,0
1,note_on,80,0,90
1,note_on,84,0,0
1,note_on,85,44,30
1,note_on,82,40,0
1,note_on,82,0,90
1,note_on,85,0,0
1,note_on,84,52,150
1,note_on,87,59,0
1,note_on,87,0,90
1,note_on,84,0,0
1,note_on,85,47,30
1,note_on,88,53,0
1,note_on,88,0,90
1,note_on,85,0,0
1,note_on,81,43,510
1,note_on,86,47,0
1,note_on,86,0,90
1,note_on,81,0,0
1,note_on,85,40,30
1,note_on,88,44,0
1,note_on,88,0,90
1,note_on,85,0,0
1,note_on,90,42,150
1,note_on,86,36,0
1,note_on,86,0,90
1,note_on,90,0,0
1,note_on,88,35,30
1,note_on,92,40,0
1,note_on,92,0,90
1,note_on,88,0,0
1,note_on,90,36,150
1,note_on,93,41,0
1,note_on,93,0,120
1,note_on,90,0,0
1,note_on,88,35,0
1,note_on,92,40,0
1,note_on,92,0,120
1,note_on,88,0,0
1,note_on,86,35,0
1,note_on,90,40,0
1,note_on,90,0,120
1,note_on,86,0,0
1,note_on,88,45,0
1,note_on,85,41,0
1,note_on,85,0,120
1,note_on,88,0,0
1,note_on,83,36,0
1,note_on,86,42,0
1,note_on,86,0,240
1,note_on,83,0,0
1,note_on,82,44,0
1,note_on,85,49,0
1,note_on,85,0,120
1,note_on,82,0,0
1,note_on,86,50,0
1,note_on,83,44,0
1,note_on,83,0,240
1,note_on,86,0,0
1,note_on,87,51,0
1,note_on,84,45,0
1,note_on,84,0,120
1,note_on,87,0,0
1,note_on,88,52,0
1,note_on,85,45,0
1,note_on,85,0,240
1,note_on,88,0,0
1,note_on,89,53,0
1,note_on,86,46,0
1,note_on,86,0,120
1,note_on,89,0,0
1,note_on,87,47,0
1,note_on,90,53,0
1,note_on,90,0,240
1,note_on,87,0,0
1,note_on,91,55,0
1,note_on,88,49,0
1,note_on,88,0,120
1,note_on,91,0,0
1,note_on,92,56,0
1,note_on,89,50,0
1,note_on,89,0,240
1,note_on,92,0,0
1,note_on,93,57,0
1,note_on,90,51,0
1,note_on,90,0,120
1,note_on,93,0,0
1,note_on,94,59,0
1,note_on,91,52,0
1,note_on,91,0,240
1,note_on,94,0,0
1,note_on,95,60,0
1,note_on,92,53,0
1,note_on,92,0,120
1,note_on,95,0,0
1,note_on,96,61,0
1,note_on,93,53,0
1,note_on,93,0,120
1,note_on,96,0,0
1,note_on,94,54,0
1,note_on,97,62,0
1,note_on,97,0,120
1,note_on,94,0,0
1,note_on,98,62,0
1,note_on,95,55,0
1,note_on,95,0,120
1,note_on,98,0,0
1,note_on,99,62,0
1,note_on,96,55,0
1,note_on,96,0,120
1,note_on,99,0,0
1,note_on,100,73,0
1,note_on,97,65,0
1,note_on,97,0,240
1,note_on,100,0,0
1,note_on,60,45,1560
1,note_on,60,0,240
1,note_on,60,42,0
1,note_on,60,0,120
1,note_on,58,45,0
1,note_on,58,0,240
1,note_on,60,42,0
1,note_on,60,0,120
1,note_on,61,47,0
1,note_on,61,0,240
1,note_on,63,44,0
1,note_on,63,0,120
1,note_on,60,47,0
1,note_on,60,0,240
1,note_on,61,44,0
1,note_on,61,0,120
1,note_on,58,45,0
1,note_on,58,0,240
1,note_on,61,47,120
1,note_on,61,0,240
1,note_on,60,44,0
1,note_on,60,0,120
1,note_on,56,47,0
1,note_on,58,47,0
1,note_on,58,0,240
1,note_on,60,44,0
1,note_on,60,0,120
1,note_on,56,0,0
1,note_on,55,47,0
1,note_on,61,47,0
1,note_on,61,0,240
1,note_on,61,45,0
1,note_on,61,0,120
1,note_on,55,0,0
1,note_on,54,47,0
1,note_on,60,45,0
1,note_on,60,0,240
1,note_on,60,42,0
1,note_on,60,0,120
1,note_on,58,45,0
1,note_on,58,0,240
1,note_on,60,42,0
1,note_on,60,0,120
1,note_on,54,0,0
1,note_on,54,36,0
1,note_on,61,47,0
1,note_on,61,0,240
1,note_on,54,0,0
1,note_on,63,44,0
1,note_on,63,0,120
1,note_on,54,36,0
1,note_on,60,47,0
1,note_on,60,0,240
1,note_on,54,0,0
1,note_on,61,44,0
1,note_on,61,0,120
1,note_on,53,47,0
1,note_on,58,47,0
1,note_on,58,0,240
1,note_on,61,47,120
1,note_on,61,0,240
1,note_on,60,44,0
1,note_on,60,0,120
1,note_on,53,0,0
1,note_on,53,47,0
1,note_on,58,47,0
1,note_on,58,0,240
1,note_on,60,44,0
1,note_on,60,0,120
1,note_on,53,0,0
1,note_on,53,47,0
1,note_on,61,47,0
1,note_on,61,0,240
1,note_on,63,45,0
1,note_on,63,0,120
1,note_on,53,0,0
1,note_on,59,50,0
1,note_on,65,50,0
1,note_on,65,0,240
1,note_on,65,45,0
1,note_on,65,0,120
1,note_on,63,50,0
1,note_on,63,0,240
1,note_on,65,45,0
1,note_on,65,0,120
1,note_on,59,0,0
1,note_on,56,50,0
1,note_on,66,53,0
1,note_on,66,0,240
1,note_on,68,46,0
1,note_on,68,0,120
1,note_on,65,53,0
1,note_on,65,0,240
1,note_on,66,47,0
1,note_on,66,0,120
1,note_on,56,0,0
1,note_on,54,50,0
1,note_on,63,50,0
1,note_on,63,0,240
1,note_on,61,45,0
1,note_on,61,0,120
1,note_on,66,53,0
1,note_on,66,0,240
1,note_on,65,47,0
1,note_on,65,0,120
1,note_on,54,0,0
1,note_on,54,53,0
1,note_on,63,53,0
1,note_on,63,0,240
1,note_on,65,47,0
1,note_on,65,0,120
1,note_on,54,0,0
1,note_on,63,53,0
1,note_on,66,53,0
1,note_on,66,0,240
1,note_on,66,50,0
1,note_on,66,0,120
1,note_on,63,0,0
1,note_on,61,54,0
1,note_on,67,54,0
1,note_on,67,0,240
1,note_on,67,50,0
1,note_on,67,0,120
1,note_on,65,54,0
1,note_on,65,0,240
1,note_on,67,50,0
1,note_on,67,0,120
1,note_on,61,0,0
1,note_on,61,54,0
1,note_on,68,57,0
1,note_on,68,0,240
1,note_on,70,52,0
1,note_on,70,0,120
1,note_on,67,57,0
1,note_on,67,0,240
1,note_on,68,53,0
1,note_on,68,0,120
1,note_on,61,0,0
1,note_on,61,54,0
1,note_on,65,54,0
1,note_on,65,0,240
1,note_on,64,52,0
1,note_on,64,0,120
1,note_on,68,59,0
1,note_on,68,0,240
1,note_on,67,54,0
1,note_on,67,0,120
1,note_on,61,0,0
1,note_on,61,61,0
1,note_on,65,61,0
1,note_on,65,0,240
1,note_on,67,55,0
1,note_on,67,0,120
1,note_on,61,0,0
1,note_on,65,62,0
1,note_on,61,62,0
1,note_on,68,62,0
1,note_on,68,0,240
1,note_on,65,0,0
1,note_on,67,59,0
1,note_on,70,59,0
1,note_on,70,0,120
1,note_on,67,0,0
1,note_on,61,0,0
1,note_on,60,44,120
1,note_on,63,44,0
1,note_on,66,50,0
1,note_on,72,50,0
1,note_on,72,0,90
1,note_on,60,0,0
1,note_on,63,0,0
1,note_on,66,0,0
1,note_on,60,44,150
1,note_on,63,44,0
1,note_on,66,50,0
1,note_on,72,50,0
1,note_on,72,0,90
1,note_on,60,0,0
1,note_on,63,0,0
1,note_on,66,0,0
1,note_on,60,51,150
1,note_on,63,51,0
1,note_on,66,57,0
1,note_on,72,57,0
1,note_on,72,0,90
1,note_on,60,0,0
1,note_on,63,0,0
1,note_on,66,0,0
1,note_on,75,62,150
1,note_on,66,55,0
1,note_on,63,55,0
1,note_on,63,0,90
1,note_on,66,0,0
1,note_on,75,0,0
1,note_on,60,47,150
1,note_on,63,47,0
1,note_on,66,53,0
1,note_on,72,53,0
1,note_on,72,0,90
1,note_on,60,0,0
1,note_on,63,0,0
1,note_on,66,0,0
1,note_on,60,41,150
1,note_on,63,41,0
1,note_on,66,45,0
1,note_on,72,45,0
1,note_on,72,0,90
1,note_on,60,0,0
1,note_on,63,0,0
1,note_on,66,0,0
1,note_on,58,44,150
1,note_on,61,44,0
1,note_on,65,50,0
1,note_on,70,50,0
1,note_on,70,0,90
1,note_on,58,0,0
1,note_on,61,0,0
1,note_on,65,0,0
1,note_on,61,44,150
1,note_on,65,44,0
1,note_on,68,50,0
1,note_on,73,50,0
1,note_on,73,0,90
1,note_on,61,0,0
1,note_on,65,0,0
1,note_on,68,0,0
1,note_on,61,44,150
1,note_on,65,44,0
1,note_on,68,50,0
1,note_on,73,50,0
1,note_on,73,0,90
1,note_on,61,0,0
1,note_on,65,0,0
1,note_on,68,0,0
1,note_on,67,53,150
1,note_on,70,53,0
1,note_on,64,53,0
1,note_on,58,46,0
1,note_on,58,0,90
1,note_on,67,0,0
1,note_on,70,0,0
1,note_on,64,0,0
1,note_on,61,55,150
1,note_on,64,55,0
1,note_on,67,62,0
1,note_on,73,62,0
1,note_on,73,0,90
1,note_on,61,0,0
1,note_on,64,0,0
1,note_on,67,0,0
1,note_on,58,47,150
1,note_on,64,47,0
1,note_on,67,53,0
1,note_on,70,53,0
1,note_on,70,0,90
1,note_on,58,0,0
1,note_on,64,0,0
1,note_on,67,0,0
1,note_on,60,44,150
1,note_on,63,44,0
1,note_on,66,49,0
1,note_on,72,54,0
1,note_on,72,0,90
1,note_on,60,0,0
1,note_on,63,0,0
1,note_on,66,0,0
1,note_on,60,43,150
1,note_on,63,43,0
1,note_on,66,47,0
1,note_on,72,53,0
1,note_on,72,0,90
1,note_on,60,0,0
1,note_on,63,0,0
1,note_on,66,0,0
1,note_on,60,47,150
1,note_on,63,47,0
1,note_on,66,53,0
1,note_on,72,61,0
1,note_on,72,0,90
1,note_on,60,0,0
1,note_on,63,0,0
1,note_on,66,0,0
1,note_on,75,62,150
1,note_on,66,49,0
1,note_on,63,49,0
1,note_on,63,0,90
1,note_on,66,0,0
1,note_on,75,0,0
1,note_on,60,42,150
1,note_on,63,42,0
1,note_on,66,46,0
1,note_on,72,53,0
1,note_on,72,0,90
1,note_on,60,0,0
1,note_on,63,0,0
1,note_on,66,0,0
1,note_on,60,40,150
1,note_on,63,40,0
1,note_on,66,44,0
1,note_on,72,50,0
1,note_on,72,0,90
1,note_on,60,0,0
1,note_on,63,0,0
1,note_on,66,0,0
1,note_on,58,44,150
1,note_on,61,44,0
1,note_on,65,49,0
1,note_on,70,54,0
1,note_on,70,0,90
1,note_on,58,0,0
1,note_on,61,0,0
1,note_on,65,0,0
1,note_on,61,43,150
1,note_on,65,43,0
1,note_on,68,53,0
1,note_on,73,53,0
1,note_on,73,0,90
1,note_on,61,0,0
1,note_on,65,0,0
1,note_on,68,0,0
1,note_on,61,43,150
1,note_on,65,43,0
1,note_on,68,47,0
1,note_on,73,53,0
1,note_on,73,0,90
1,note_on,61,0,0
1,note_on,65,0,0
1,note_on,68,0,0
1,note_on,64,44,150
1,note_on,67,49,0
1,note_on,70,54,0
1,note_on,58,44,0
1,note_on,58,0,90
1,note_on,64,0,0
1,note_on,67,0,0
1,note_on,70,0,0
1,note_on,61,52,150
1,note_on,65,52,0
1,note_on,73,65,0
1,note_on,73,0,90
1,note_on,65,0,0
1,note_on,61,0,0
1,note_on,58,44,150
1,note_on,66,49,0
1,note_on,70,54,0
1,note_on,70,0,90
1,note_on,66,0,0
1,note_on,58,0,0
1,note_on,65,49,150
1,note_on,68,49,0
1,note_on,71,56,0
1,note_on,77,63,0
1,note_on,77,0,90
1,note_on,65,0,0
1,note_on,68,0,0
1,note_on,71,0,0
1,note_on,77,63,150
1,note_on,65,47,0
1,note_on,68,47,0
1,note_on,71,54,0
1,note_on,71,0,90
1,note_on,77,0,0
1,note_on,65,0,0
1,note_on,68,0,0
1,note_on,65,53,150
1,note_on,68,53,0
1,note_on,71,61,0
1,note_on,77,67,0
1,note_on,77,0,90
1,note_on,65,0,0
1,note_on,68,0,0
1,note_on,71,0,0
1,note_on,80,74,150
1,note_on,71,65,0
1,note_on,68,60,0
1,note_on,68,0,90
1,note_on,71,0,0
1,note_on,80,0,0
1,note_on,65,52,150
1,note_on,68,52,0
1,note_on,71,57,0
1,note_on,77,64,0
1,note_on,77,0,90
1,note_on,65,0,0
1,note_on,68,0,0
1,note_on,71,0,0
1,note_on,65,45,150
1,note_on,68,45,0
1,note_on,71,51,0
1,note_on,77,57,0
1,note_on,77,0,90
1,note_on,65,0,0
1,note_on,68,0,0
1,note_on,71,0,0
1,note_on,63,49,150
1,note_on,66,49,0
1,note_on,70,56,0
1,note_on,75,63,0
1,note_on,75,0,90
1,note_on,63,0,0
1,note_on,66,0,0
1,note_on,70,0,0
1,note_on,66,47,150
1,note_on,70,47,0
1,note_on,73,54,0
1,note_on,78,62,0
1,note_on,78,0,90
1,note_on,66,0,0
1,note_on,70,0,0
1,note_on,73,0,0
1,note_on,66,47,150
1,note_on,70,47,0
1,note_on,73,54,0
1,note_on,78,62,0
1,note_on,78,0,90
1,note_on,66,0,0
1,note_on,70,0,0
1,note_on,73,0,0
1,note_on,66,49,150
1,note_on,70,56,0
1,note_on,75,63,0
1,note_on,63,49,0
1,note_on,63,0,90
1,note_on,66,0,0
1,note_on,70,0,0
1,note_on,75,0,0
1,note_on,66,62,150
1,note_on,70,62,0
1,note_on,78,79,0
1,note_on,78,0,90
1,note_on,70,0,0
1,note_on,66,0,0
1,note_on,66,49,150
1,note_on,63,49,0
1,note_on,70,56,0
1,note_on,75,63,0
1,note_on,75,0,90
1,note_on,66,0,0
1,note_on,63,0,0
1,note_on,70,0,0
1,note_on,67,54,150
1,note_on,70,54,0
1,note_on,73,62,0
1,note_on,79,69,0
1,note_on,79,0,90
1,note_on,67,0,0
1,note_on,70,0,0
1,note_on,73,0,0
1,note_on,79,70,150
1,note_on,67,53,0
1,note_on,70,53,0
1,note_on,73,60,0
1,note_on,73,0,90
1,note_on,79,0,0
1,note_on,67,0,0
1,note_on,70,0,0
1,note_on,67,61,150
1,note_on,70,61,0
1,note_on,73,66,0
1,note_on,79,75,0
1,note_on,79,0,90
1,note_on,67,0,0
1,note_on,70,0,0
1,note_on,73,0,0
1,note_on,82,81,150
1,note_on,73,72,0
1,note_on,70,63,0
1,note_on,70,0,90
1,note_on,73,0,0
1,note_on,82,0,0
1,note_on,67,62,150
1,note_on,70,62,0
1,note_on,73,69,0
1,note_on,79,77,0
1,note_on,79,0,90
1,note_on,67,0,0
1,note_on,70,0,0
1,note_on,73,0,0
1,note_on,67,53,150
1,note_on,70,53,0
1,note_on,73,60,0
1,note_on,79,66,0
1,note_on,79,0,90
1,note_on,67,0,0
1,note_on,70,0,0
1,note_on,73,0,0
1,note_on,65,60,150
1,note_on,70,60,0
1,note_on,73,66,0
1,note_on,77,75,0
1,note_on,77,0,90
1,note_on,65,0,0
1,note_on,70,0,0
1,note_on,73,0,0
1,note_on,68,56,150
1,note_on,70,56,0
1,note_on,73,63,0
1,note_on,80,71,0
1,note_on,80,0,90
1,note_on,68,0,0
1,note_on,70,0,0
1,note_on,73,0,0
1,note_on,68,56,150
1,note_on,70,56,0
1,note_on,73,63,0
1,note_on,80,71,0
1,note_on,80,0,90
1,note_on,68,0,0
1,note_on,70,0,0
1,note_on,73,0,0
1,note_on,70,60,150
1,note_on,73,66,0
1,note_on,77,75,0
1,note_on,66,60,0
1,note_on,66,0,90
1,note_on,70,0,0
1,note_on,73,0,0
1,note_on,77,0,0
1,note_on,73,63,150
1,note_on,67,63,0
1,note_on,77,79,0
1,note_on,79,79,0
1,note_on,79,0,90
1,note_on,73,0,0
1,note_on,67,0,0
1,note_on,77,0,0
1,note_on,73,65,150
1,note_on,69,65,0
1,note_on,77,74,0
1,note_on,81,83,0
1,note_on,81,0,90
1,note_on,73,0,0
1,note_on,69,0,0
1,note_on,77,0,0
1,note_on,58,80,150
1,note_on,61,86,0
1,note_on,61,0,90
1,note_on,58,0,0
1,note_on,70,80,30
1,note_on,66,72,0
1,note_on,66,0,90
1,note_on,70,0,0
1,note_on,69,71,150
1,note_on,65,71,0
1,note_on,65,0,90
1,note_on,69,0,0
1,note_on,70,65,30
1,note_on,66,61,0
1,note_on,66,0,90
1,note_on,70,0,0
1,note_on,66,75,150
1,note_on,63,69,0
1,note_on,63,0,90
1,note_on,66,0,0
1,note_on,66,75,150
1,note_on,70,84,0
1,note_on,70,0,90
1,note_on,73,82,30
1,note_on,73,0,90
1,note_on,66,0,30
1,note_on,68,71,0
1,note_on,72,80,0
1,note_on,72,0,90
1,note_on,68,0,0
1,note_on,56,73,150
1,note_on,61,81,0
1,note_on,61,0,90
1,note_on,56,0,0
1,note_on,68,73,30
1,note_on,65,66,0
1,note_on,65,0,90
1,note_on,68,0,0
1,note_on,61,71,150
1,note_on,65,77,0
1,note_on,65,0,90
1,note_on,61,0,0
1,note_on,63,63,30
1,note_on,66,69,0
1,note_on,66,0,90
1,note_on,63,0,0
1,note_on,66,63,150
1,note_on,70,69,0
1,note_on,70,0,90
1,note_on,66,0,0
1,note_on,65,61,30
1,note_on,68,65,0
1,note_on,68,0,90
1,note_on,65,0,0
1,note_on,70,71,510
1,note_on,73,79,0
1,note_on,73,0,90
1,note_on,70,0,0
1,note_on,82,71,30
1,note_on,78,63,0
1,note_on,78,0,90
1,note_on,82,0,0
1,note_on,81,63,150
1,note_on,77,59,0
1,note_on,77,0,90
1,note_on,81,0,0
1,note_on,82,59,30
1,note_on,78,53,0
1,note_on,78,0,90
1,note_on,82,0,0
1,note_on,78,67,150
1,note_on,75,62,0
1,note_on,75,0,90
1,note_on,78,0,0
1,note_on,78,70,150
1,note_on,82,79,0
1,note_on,82,0,90
1,note_on,85,74,30
1,note_on,85,0,90
1,note_on,78,0,30
1,note_on,80,63,0
1,note_on,84,71,0
1,note_on,84,0,90
1,note_on,80,0,0
1,note_on,68,64,150
1,note_on,73,71,0
1,note_on,73,0,90
1,note_on,68,0,0
1,note_on,80,65,30
1,note_on,77,61,0
1,note_on,77,0,90
1,note_on,80,0,0
1,note_on,73,63,150
1,note_on,77,69,0
1,note_on,77,0,90
1,note_on,73,0,0
1,note_on,75,55,30
1,note_on,78,62,0
1,note_on,78,0,90
1,note_on,75,0,0
1,note_on,78,55,150
1,note_on,82,62,0
1,note_on,82,0,90
1,note_on,78,0,0
1,note_on,77,53,30
1,note_on,80,59,0
1,note_on,80,0,90
1,note_on,77,0,0
1,note_on,66,77,510
1,note_on,70,77,0
1,note_on,78,86,0
1,note_on,75,86,0
1,note_on,75,0,90
1,note_on,66,0,0
1,note_on,70,0,0
1,note_on,78,0,0
1,note_on,80,81,30
1,note_on,68,81,0
1,note_on,68,0,240
1,note_on,80,0,0
1,note_on,81,94,0
1,note_on,78,94,0
1,note_on,75,83,0
1,note_on,69,83,0
1,note_on,69,0,90
1,note_on,81,0,0
1,note_on,78,0,0
1,note_on,75,0,0
1,note_on,82,86,30
1,note_on,70,77,0
1,note_on,70,0,90
1,note_on,82,0,0
1,note_on,87,103,30
1,note_on,78,92,0
1,note_on,75,92,0
1,note_on,75,0,90
1,note_on,78,0,0
1,note_on,87,0,0
1,note_on,86,87,30
1,note_on,74,79,0
1,note_on,74,0,90
1,note_on,86,0,0
1,note_on,85,95,30
1,note_on,73,84,0
1,note_on,73,0,90
1,note_on,85,0,0
1,note_on,72,76,30
1,note_on,84,85,0
1,note_on,84,0,90
1,note_on,72,0,0
1,note_on,71,79,30
1,note_on,83,87,0
1,note_on,83,0,90
1,note_on,71,0,0
1,note_on,82,87,30
1,note_on,70,79,0
1,note_on,70,0,90
1,note_on,82,0,0
1,note_on,81,86,30
1,note_on,77,86,0
1,note_on,69,77,0
1,note_on,69,0,90
1,note_on,77,0,0
1,note_on,81,0,0
1,note_on,80,79,30
1,note_on,68,71,0
1,note_on,68,0,90
1,note_on,80,0,0
1,note_on,73,79,30
1,note_on,85,87,0
1,note_on,85,0,240
1,note_on,73,0,0
1,note_on,84,73,0
1,note_on,78,73,0
1,note_on,72,66,0
1,note_on,83,77,120
1,note_on,71,69,0
1,note_on,71,0,90
1,note_on,83,0,0
1,note_on,84,0,30
1,note_on,78,0,0
1,note_on,72,0,0
1,note_on,82,72,0
1,note_on,77,72,0
1,note_on,70,64,0
1,note_on,70,0,90
1,note_on,77,0,0
1,note_on,82,0,0
1,note_on,80,70,30
1,note_on,68,62,0
1,note_on,68,0,90
1,note_on,80,0,0
1,note_on,82,64,30
1,note_on,70,59,0
1,note_on,70,0,90
1,note_on,82,0,0
1,note_on,77,70,30
1,note_on,74,70,0
1,note_on,68,63,0
1,note_on,65,63,0
1,note_on,65,0,360
1,note_on,77,0,0
1,note_on,74,0,0
1,note_on,68,0,0
1,note_on,78,73,120
1,note_on,82,73,0
1,note_on,90,81,0
1,note_on,87,81,0
1,note_on,87,0,90
1,note_on,78,0,0
1,note_on,82,0,0
1,note_on,90,0,0
1,note_on,92,76,30
1,note_on,80,67,0
1,note_on,80,0,240
1,note_on,92,0,0
1,note_on,93,89,0
1,note_on,90,89,0
1,note_on,87,89,0
1,note_on,81,89,0
1,note_on,81,0,90
1,note_on,93,0,0
1,note_on,90,0,0
1,note_on,87,0,0
1,note_on,94,81,30
1,note_on,82,73,0
1,note_on,82,0,90
1,note_on,94,0,0
1,note_on,99,94,30
1,note_on,90,90,0
1,note_on,87,90,0
1,note_on,87,0,90
1,note_on,90,0,0
1,note_on,99,0,0
1,note_on,98,82,30
1,note_on,86,74,0
1,note_on,86,0,90
1,note_on,98,0,0
1,note_on,97,90,30
1,note_on,85,80,0
1,note_on,85,0,90
1,note_on,97,0,0
1,note_on,84,74,30
1,note_on,96,83,0
1,note_on,96,0,90
1,note_on,84,0,0
1,note_on,83,76,30
1,note_on,95,85,0
1,note_on,95,0,90
1,note_on,83,0,0
1,note_on,94,82,30
1,note_on,82,74,0
1,note_on,82,0,90
1,note_on,94,0,0
1,note_on,93,85,30
1,note_on,89,85,0
1,note_on,81,76,0
1,note_on,81,0,90
1,note_on,89,0,0
1,note_on,93,0,0
1,note_on,92,75,30
1,note_on,80,67,0
1,note_on,80,0,90
1,note_on,92,0,0
1,note_on,85,74,30
1,note_on,97,82,0
1,note_on,97,0,240
1,note_on,85,0,0
1,note_on,96,65,0
1,note_on,90,59,0
1,note_on,84,57,0
1,note_on,95,74,120
1,note_on,83,65,0
1,note_on,83,0,90
1,note_on,95,0,0
1,note_on,96,0,30
1,note_on,90,0,0
1,note_on,84,0,0
1,note_on,94,70,0
1,note_on,89,70,0
1,note_on,82,63,0
1,note_on,82,0,90
1,note_on,89,0,0
1,note_on,94,0,0
1,note_on,92,66,30
1,note_on,80,59,0
1,note_on,80,0,90
1,note_on,92,0,0
1,note_on,94,63,30
1,note_on,82,55,0
1,note_on,82,0,90
1,note_on,94,0,0
1,note_on,89,63,30
1,note_on,86,63,0
1,note_on,80,56,0
1,note_on,77,56,0
1,note_on,77,0,360
1,note_on,89,0,0
1,note_on,86,0,0
1,note_on,80,0,0
1,note_on,50,51,0
1,note_on,50,0,90
1,note_on,54,47,30
1,note_on,51,47,0
1,note_on,51,0,90
1,note_on,54,0,0
1,note_on,53,47,30
1,note_on,53,0,90
1,note_on,58,54,30
1,note_on,54,54,0
1,note_on,54,0,90
1,note_on,58,0,0
1,note_on,57,52,30
1,note_on,57,0,90
1,note_on,58,52,30
1,note_on,61,52,0
1,note_on,61,0,90
1,note_on,58,0,0
1,note_on,59,52,30
1,note_on,59,0,90
1,note_on,60,46,30
1,note_on,63,60,0
1,note_on,63,0,90
1,note_on,60,0,0
1,note_on,58,41,30
1,note_on,61,52,0
1,note_on,61,0,90
1,note_on,58,0,0
1,note_on,56,41,30
1,note_on,60,52,0
1,note_on,60,0,90
1,note_on,56,0,0
1,note_on,55,52,30
1,note_on,55,0,90
1,note_on,54,51,30
1,note_on,58,51,0
1,note_on,58,0,90
1,note_on,54,0,0
1,note_on,52,51,30
1,note_on,52,0,90
1,note_on,53,47,30
1,note_on,56,47,0
1,note_on,56,0,90
1,note_on,53,0,0
1,note_on,55,47,30
1,note_on,55,0,90
1,note_on,56,56,30
1,note_on,60,56,0
1,note_on,60,0,90
1,note_on,56,0,0
1,note_on,59,53,30
1,note_on,59,0,90
1,note_on,60,53,30
1,note_on,63,53,0
1,note_on,63,0,90
1,note_on,60,0,0
1,note_on,60,52,30
1,note_on,60,0,90
1,note_on,61,46,30
1,note_on,65,60,0
1,note_on,65,0,90
1,note_on,61,0,0
1,note_on,60,44,30
1,note_on,63,55,0
1,note_on,63,0,90
1,note_on,60,0,0
1,note_on,58,45,30
1,note_on,61,57,0
1,note_on,61,0,90
1,note_on,58,0,0
1,note_on,57,53,30
1,note_on,57,0,90
1,note_on,56,53,30
1,note_on,60,53,0
1,note_on,60,0,90
1,note_on,56,0,0
1,note_on,53,51,30
1,note_on,53,0,90
1,note_on,54,47,30
1,note_on,58,47,0
1,note_on,58,0,90
1,note_on,54,0,0
1,note_on,57,47,30
1,note_on,57,0,90
1,note_on,58,54,30
1,note_on,61,54,0
1,note_on,61,0,90
1,note_on,58,0,0
1,note_on,60,52,30
1,note_on,60,0,90
1,note_on,65,52,30
1,note_on,61,52,0
1,note_on,61,0,90
1,note_on,65,0,0
1,note_on,62,52,30
1,note_on,62,0,90
1,note_on,66,60,30
1,note_on,63,46,0
1,note_on,63,0,90
1,note_on,66,0,0
1,note_on,65,52,30
1,note_on,61,41,0
1,note_on,61,0,90
1,note_on,65,0,0
1,note_on,63,52,30
1,note_on,60,41,0
1,note_on,60,0,90
1,note_on,63,0,0
1,note_on,59,52,30
1,note_on,59,0,90
1,note_on,61,51,30
1,note_on,58,51,0
1,note_on,58,0,90
1,note_on,61,0,0
1,note_on,64,52,30
1,note_on,64,0,90
1,note_on,68,60,30
1,note_on,65,46,0
1,note_on,65,0,90
1,note_on,68,0,0
1,note_on,66,52,30
1,note_on,63,41,0
1,note_on,63,0,90
1,note_on,66,0,0
1,note_on,65,52,30
1,note_on,61,41,0
1,note_on,61,0,90
1,note_on,65,0,0
1,note_on,59,52,30
1,note_on,59,0,90
1,note_on,63,51,30
1,note_on,60,51,0
1,note_on,60,0,90
1,note_on,63,0,0
1,note_on,65,52,30
1,note_on,65,0,90
1,note_on,70,60,30
1,note_on,66,46,0
1,note_on,66,0,90
1,note_on,70,0,0
1,note_on,68,52,30
1,note_on,65,41,0
1,note_on,65,0,90
1,note_on,68,0,0
1,note_on,66,52,30
1,note_on,63,41,0
1,note_on,63,0,90
1,note_on,66,0,0
1,note_on,62,52,30
1,note_on,62,0,90
1,note_on,65,51,30
1,note_on,61,51,0
1,note_on,61,0,90
1,note_on,65,0,0
1,note_on,62,53,30
1,note_on,62,0,90
1,note_on,66,50,30
1,note_on,63,50,0
1,note_on,63,0,90
1,note_on,66,0,0
1,note_on,65,50,30
1,note_on,65,0,90
1,note_on,70,57,30
1,note_on,66,57,0
1,note_on,66,0,90
1,note_on,70,0,0
1,note_on,69,53,30
1,note_on,69,0,90
1,note_on,70,54,30
1,note_on,73,54,0
1,note_on,73,0,90
1,note_on,70,0,0
1,note_on,71,54,30
1,note_on,71,0,90
1,note_on,72,50,30
1,note_on,75,63,0
1,note_on,75,0,90
1,note_on,72,0,0
1,note_on,70,44,30
1,note_on,73,54,0
1,note_on,73,0,90
1,note_on,70,0,0
1,note_on,68,44,30
1,note_on,72,54,0
1,note_on,72,0,90
1,note_on,68,0,0
1,note_on,67,55,30
1,note_on,67,0,90
1,note_on,66,54,30
1,note_on,70,54,0
1,note_on,70,0,90
1,note_on,66,0,0
1,note_on,64,59,30
1,note_on,64,0,90
1,note_on,65,54,30
1,note_on,68,54,0
1,note_on,68,0,90
1,note_on,65,0,0
1,note_on,67,54,30
1,note_on,67,0,90
1,note_on,68,65,30
1,note_on,72,65,0
1,note_on,72,0,90
1,note_on,68,0,0
1,note_on,71,62,30
1,note_on,71,0,90
1,note_on,72,62,30
1,note_on,75,62,0
1,note_on,75,0,90
1,note_on,72,0,0
1,note_on,72,61,30
1,note_on,72,0,90
1,note_on,73,54,30
1,note_on,77,69,0
1,note_on,77,0,90
1,note_on,73,0,0
1,note_on,72,52,30
1,note_on,75,65,0
1,note_on,75,0,90
1,note_on,72,0,0
1,note_on,70,53,30
1,note_on,73,67,0
1,note_on,73,0,90
1,note_on,70,0,0
1,note_on,69,63,30
1,note_on,69,0,90
1,note_on,68,62,30
1,note_on,72,62,0
1,note_on,72,0,90
1,note_on,68,0,0
1,note_on,65,63,30
1,note_on,65,0,90
1,note_on,66,61,30
1,note_on,70,61,0
1,note_on,70,0,90
1,note_on,66,0,0
1,note_on,69,61,30
1,note_on,69,0,90
1,note_on,70,70,30
1,note_on,73,70,0
1,note_on,73,0,90
1,note_on,70,0,0
1,note_on,72,66,30
1,note_on,72,0,90
1,note_on,77,66,30
1,note_on,73,66,0
1,note_on,73,0,90
1,note_on,77,0,0
1,note_on,74,66,30
1,note_on,74,0,90
1,note_on,78,79,30
1,note_on,75,62,0
1,note_on,75,0,90
1,note_on,78,0,0
1,note_on,77,69,30
1,note_on,73,54,0
1,note_on,73,0,90
1,note_on,77,0,0
1,note_on,75,69,30
1,note_on,72,54,0
1,note_on,72,0,90
1,note_on,75,0,0
1,note_on,71,70,30
1,note_on,71,0,90
1,note_on,73,69,30
1,note_on,70,69,0
1,note_on,70,0,90
1,note_on,73,0,0
1,note_on,76,74,30
1,note_on,76,0,90
1,note_on,80,85,30
1,note_on,77,67,0
1,note_on,77,0,90
1,note_on,80,0,0
1,note_on,78,74,30
1,note_on,75,59,0
1,note_on,75,0,90
1,note_on,78,0,0
1,note_on,77,75,30
1,note_on,73,60,0
1,note_on,73,0,90
1,note_on,77,0,0
1,note_on,71,75,30
1,note_on,71,0,90
1,note_on,75,74,30
1,note_on,72,74,0
1,note_on,72,0,90
1,note_on,75,0,0
1,note_on,77,80,30
1,note_on,77,0,90
1,note_on,82,90,30
1,note_on,78,72,0
1,note_on,78,0,90
1,note_on,82,0,0
1,note_on,80,80,30
1,note_on,77,63,0
1,note_on,77,0,90
1,note_on,80,0,0
1,note_on,78,80,30
1,note_on,75,63,0
1,note_on,75,0,90
1,note_on,78,0,0
1,note_on,74,81,30
1,note_on,74,0,90
1,note_on,77,79,30
1,note_on,73,79,0
1,note_on,73,0,90
1,note_on,77,0,0
1,note_on,66,103,30
1,note_on,66,0,90
1,note_on,74,87,30
1,note_on,78,100,0
1,note_on,78,0,90
1,note_on,74,0,0
1,note_on,78,79,30
1,note_on,90,91,120
1,note_on,86,79,0
1,note_on,86,0,90
1,note_on,90,0,0
1,note_on,78,0,30
1,note_on,85,68,0
1,note_on,89,78,0
1,note_on,77,68,0
1,note_on,77,0,90
1,note_on,89,0,0
1,note_on,85,0,0
1,note_on,86,66,30
1,note_on,90,77,0
1,note_on,78,66,0
1,note_on,78,0,90
1,note_on,90,0,0
1,note_on,86,0,0
1,note_on,85,96,30
1,note_on,82,82,0
1,note_on,73,82,0
1,note_on,73,0,90
1,note_on,82,0,0
1,note_on,85,0,0
1,note_on,74,72,30
1,note_on,86,83,0
1,note_on,83,72,0
1,note_on,83,0,90
1,note_on,86,0,0
1,note_on,74,0,0
1,note_on,89,79,30
1,note_on,77,68,0
1,note_on,77,0,90
1,note_on,89,0,0
1,note_on,90,91,30
1,note_on,86,79,0
1,note_on,78,79,0
1,note_on,78,0,90
1,note_on,86,0,0
1,note_on,90,0,0
1,note_on,93,87,30
1,note_on,90,77,0
1,note_on,81,77,0
1,note_on,81,0,90
1,note_on,90,0,0
1,note_on,93,0,0
1,note_on,88,77,30
1,note_on,92,87,0
1,note_on,80,77,0
1,note_on,80,0,90
1,note_on,92,0,0
1,note_on,88,0,0
1,note_on,64,98,30
1,note_on,64,0,90
1,note_on,73,81,30
1,note_on,76,94,0
1,note_on,76,0,90
1,note_on,73,0,0
1,note_on,76,74,30
1,note_on,88,101,120
1,note_on,85,87,0
1,note_on,85,0,90
1,note_on,88,0,0
1,note_on,76,0,30
1,note_on,73,68,0
1,note_on,81,68,0
1,note_on,85,78,0
1,note_on,85,0,90
1,note_on,81,0,0
1,note_on,73,0,0
1,note_on,74,64,30
1,note_on,83,64,0
1,note_on,86,74,0
1,note_on,86,0,90
1,note_on,83,0,0
1,note_on,74,0,0
1,note_on,88,96,30
1,note_on,85,83,0
1,note_on,76,83,0
1,note_on,76,0,90
1,note_on,85,0,0
1,note_on,88,0,0
1,note_on,78,68,30
1,note_on,90,79,0
1,note_on,90,0,90
1,note_on,78,0,0
1,note_on,76,66,30
1,note_on,88,77,0
1,note_on,88,0,90
1,note_on,76,0,0
1,note_on,73,74,30
1,note_on,85,86,0
1,note_on,81,74,0
1,note_on,81,0,360
1,note_on,85,0,0
1,note_on,73,0,0
1,note_on,61,55,0
1,note_on,61,0,90
1,note_on,66,51,30
1,note_on,62,51,0
1,note_on,62,0,90
1,note_on,66,0,0
1,note_on,64,46,30
1,note_on,64,0,90
1,note_on,69,60,30
1,note_on,66,60,0
1,note_on,66,0,90
1,note_on,69,0,0
1,note_on,68,56,30
1,note_on,68,0,90
1,note_on,74,60,30
1,note_on,69,60,0
1,note_on,69,0,90
1,note_on,74,0,0
1,note_on,71,63,30
1,note_on,71,0,90
1,note_on,75,60,30
1,note_on,73,60,0
1,note_on,73,0,90
1,note_on,75,0,0
1,note_on,73,62,30
1,note_on,70,62,0
1,note_on,70,0,90
1,note_on,73,0,0
1,note_on,73,56,30
1,note_on,68,56,0
1,note_on,68,0,90
1,note_on,67,53,30
1,note_on,67,0,90
1,note_on,73,0,30
1,note_on,71,51,0
1,note_on,66,51,0
1,note_on,66,0,90
1,note_on,64,53,30
1,note_on,64,0,90
1,note_on,71,0,30
1,note_on,68,53,0
1,note_on,65,53,0
1,note_on,65,0,90
1,note_on,68,0,0
1,note_on,67,52,30
1,note_on,67,0,90
1,note_on,73,60,30
1,note_on,68,60,0
1,note_on,68,0,90
1,note_on,69,50,30
1,note_on,73,0,120
1,note_on,73,51,0
1,note_on,73,0,90
1,note_on,69,0,30
1,note_on,70,49,0
1,note_on,70,0,90
1,note_on,68,46,30
1,note_on,68,0,90
1,note_on,70,45,30
1,note_on,70,0,90
1,note_on,62,54,30
1,note_on,65,54,0
1,note_on,65,0,360
1,note_on,62,0,0
1,note_on,78,93,0
1,note_on,78,0,90
1,note_on,86,72,30
1,note_on,90,81,0
1,note_on,90,0,90
1,note_on,86,0,0
1,note_on,90,74,30
1,note_on,102,77,120
1,note_on,98,74,0
1,note_on,98,0,90
1,note_on,102,0,0
1,note_on,90,0,30
1,note_on,97,64,0
1,note_on,101,66,0
1,note_on,89,57,0
1,note_on,89,0,90
1,note_on,101,0,0
1,note_on,97,0,0
1,note_on,98,62,30
1,note_on,102,64,0
1,note_on,90,55,0
1,note_on,90,0,90
1,note_on,102,0,0
1,note_on,98,0,0
1,note_on,97,78,30
1,note_on,94,78,0
1,note_on,85,70,0
1,note_on,85,0,90
1,note_on,94,0,0
1,note_on,97,0,0
1,note_on,86,61,30
1,note_on,98,69,0
1,note_on,95,69,0
1,note_on,95,0,90
1,note_on,98,0,0
1,note_on,86,0,0
1,note_on,101,66,30
1,note_on,89,58,0
1,note_on,89,0,90
1,note_on,101,0,0
1,note_on,102,77,30
1,note_on,98,74,0
1,note_on,90,67,0
1,note_on,90,0,90
1,note_on,98,0,0
1,note_on,102,0,0
1,note_on,105,74,30
1,note_on,102,74,0
1,note_on,93,63,0
1,note_on,93,0,90
1,note_on,102,0,0
1,note_on,105,0,0
1,note_on,100,74,30
1,note_on,104,74,0
1,note_on,92,63,0
1,note_on,92,0,90
1,note_on,104,0,0
1,note_on,100,0,0
1,note_on,76,93,30
1,note_on,76,0,90
1,note_on,85,69,30
1,note_on,88,77,0
1,note_on,88,0,90
1,note_on,85,0,0
1,note_on,88,70,30
1,note_on,100,85,120
1,note_on,97,77,0
1,note_on,97,0,90
1,note_on,100,0,0
1,note_on,88,0,30
1,note_on,85,57,0
1,note_on,93,64,0
1,note_on,97,64,0
1,note_on,97,0,90
1,note_on,93,0,0
1,note_on,85,0,0
1,note_on,86,54,30
1,note_on,95,61,0
1,note_on,98,61,0
1,note_on,98,0,90
1,note_on,95,0,0
1,note_on,86,0,0
1,note_on,100,81,30
1,note_on,97,78,0
1,note_on,88,71,0
1,note_on,88,0,90
1,note_on,97,0,0
1,note_on,100,0,0
1,note_on,90,58,30
1,note_on,102,66,0
1,note_on,102,0,90
1,note_on,90,0,0
1,note_on,88,55,30
1,note_on,100,64,0
1,note_on,100,0,90
1,note_on,88,0,0
1,note_on,85,62,30
1,note_on,97,70,0
1,note_on,93,70,0
1,note_on,93,0,360
1,note_on,97,0,0
1,note_on,85,0,0
1,note_on,73,53,0
1,note_on,73,0,90
1,note_on,78,49,30
1,note_on,74,49,0
1,note_on,74,0,90
1,note_on,78,0,0
1,note_on,76,46,30
1,note_on,76,0,90
1,note_on,81,61,30
1,note_on,78,61,0
1,note_on,78,0,90
1,note_on,81,0,0
1,note_on,80,53,30
1,note_on,80,0,90
1,note_on,86,55,30
1,note_on,81,55,0
1,note_on,81,0,90
1,note_on,86,0,0
1,note_on,83,62,30
1,note_on,83,0,90
1,note_on,87,53,30
1,note_on,84,53,0
1,note_on,84,0,90
1,note_on,87,0,0
1,note_on,85,60,30
1,note_on,82,60,0
1,note_on,82,0,90
1,note_on,85,0,0
1,note_on,84,53,30
1,note_on,80,53,0
1,note_on,80,0,90
1,note_on,79,52,30
1,note_on,79,0,90
1,note_on,84,0,30
1,note_on,83,50,0
1,note_on,78,50,0
1,note_on,78,0,90
1,note_on,76,52,30
1,note_on,76,0,90
1,note_on,83,0,30
1,note_on,80,49,0
1,note_on,77,44,0
1,note_on,77,0,90
1,note_on,80,0,0
1,note_on,79,47,30
1,note_on,79,0,90
1,note_on,85,61,30
1,note_on,80,61,0
1,note_on,80,0,90
1,note_on,81,55,30
1,note_on,85,0,120
1,note_on,85,53,0
1,note_on,85,0,90
1,note_on,81,0,30
1,note_on,82,50,0
1,note_on,82,0,90
1,note_on,80,49,30
1,note_on,80,0,90
1,note_on,82,46,30
1,note_on,82,0,90
1,note_on,73,54,30
1,note_on,77,54,0
1,note_on,77,0,360
1,note_on,73,0,0
1,note_on,94,67,0
1,note_on,85,61,0
1,note_on,94,0,120
1,note_on,92,56,0
1,note_on,92,0,120
1,note_on,94,56,0
1,note_on,94,0,120
1,note_on,85,0,0
1,note_on,89,66,0
1,note_on,85,60,0
1,note_on,85,0,360
1,note_on,89,0,0
1,note_on,61,60,0
1,note_on,70,66,0
1,note_on,70,0,120
1,note_on,68,59,0
1,note_on,68,0,120
1,note_on,70,57,0
1,note_on,70,0,120
1,note_on,61,0,0
1,note_on,65,64,0
1,note_on,61,57,0
1,note_on,61,0,360
1,note_on,65,0,0
1,note_on,53,75,720
1,note_on,56,75,0
1,note_on,61,75,0
1,note_on,65,75,0
1,note_on,85,90,0
1,note_on,80,90,0
1,note_on,73,90,0
1,note_on,73,0,1920
1,note_on,85,0,0
1,note_on,56,0,0
1,note_on,61,0,0
1,note_on,53,0,0
1,note_on,80,0,0
1,note_on,65,0,0
1,note_on,61,45,240
1,note_on,59,44,720
1,note_on,59,0,720
1,note_on,58,45,0
1,note_on,58,0,720
1,note_on,61,0,0
1,note_on,57,44,0
1,note_on,62,44,0
1,note_on,62,0,720
1,note_on,57,0,0
1,note_on,59,41,0
1,note_on,56,41,0
1,note_on,64,41,0
1,note_on,59,0,720
1,note_on,58,48,0
1,note_on,56,0,720
1,note_on,55,45,0
1,note_on,55,0,720
1,note_on,58,0,0
1,note_on,64,0,0
1,note_on,65,44,0
1,note_on,65,0,720
1,note_on,66,47,480
1,note_on,66,0,240
1,note_on,57,36,0
1,note_on,64,52,0
1,note_on,64,0,240
1,note_on,66,44,0
1,note_on,66,0,240
1,note_on,62,44,0
1,note_on,62,0,720
1,note_on,69,51,0
1,note_on,69,0,240
1,note_on,69,53,0
1,note_on,69,0,480
1,note_on,71,47,0
1,note_on,71,0,120
1,note_on,69,36,0
1,note_on,69,0,60
1,note_on,71,36,0
1,note_on,71,0,60
1,note_on,69,53,0
1,note_on,69,0,360
1,note_on,67,47,0
1,note_on,67,0,120
1,note_on,66,47,0
1,note_on,66,0,240
1,note_on,57,0,0
1,note_on,57,36,0
1,note_on,69,36,0
1,note_on,64,52,0
1,note_on,64,0,240
1,note_on,66,45,0
1,note_on,66,0,240
1,note_on,62,44,0
1,note_on,62,0,720
1,note_on,66,47,0
1,note_on,66,0,240
1,note_on,69,0,0
1,note_on,57,0,0
1,note_on,70,36,0
1,note_on,66,53,0
1,note_on,66,0,480
1,note_on,64,47,0
1,note_on,64,0,240
1,note_on,64,52,0
1,note_on,64,0,480
1,note_on,61,47,0
1,note_on,61,0,240
1,note_on,70,0,0
1,note_on,59,36,0
1,note_on,71,36,0
1,note_on,62,52,0
1,note_on,62,0,360
1,note_on,61,47,0
1,note_on,61,0,120
1,note_on,59,47,0
1,note_on,59,0,240
1,note_on,71,0,0
1,note_on,59,0,0
1,note_on,66,47,480
1,note_on,66,0,240
1,note_on,70,36,0
1,note_on,66,53,0
1,note_on,66,0,480
1,note_on,64,47,0
1,note_on,64,0,240
1,note_on,64,52,0
1,note_on,64,0,480
1,note_on,61,47,0
1,note_on,61,0,240
1,note_on,70,0,0
1,note_on,59,36,0
1,note_on,71,36,0
1,note_on,62,52,0
1,note_on,62,0,360
1,note_on,61,47,0
1,note_on,61,0,120
1,note_on,59,47,0
1,note_on,59,0,240
1,note_on,71,0,240
1,note_on,59,0,0
1,note_on,57,45,240
1,note_on,57,0,240
1,note_on,59,47,0
1,note_on,59,0,720
1,note_on,57,45,480
1,note_on,57,0,240
1,note_on,61,47,0
1,note_on,61,0,360
1,note_on,62,45,0
1,note_on,62,0,120
1,note_on,64,45,0
1,note_on,64,0,240
1,note_on,61,50,0
1,note_on,61,0,480
1,note_on,57,44,0
1,note_on,57,0,240
1,note_on,59,45,0
1,note_on,69,36,480
1,note_on,67,36,0
1,note_on,62,36,0
1,note_on,62,0,720
1,note_on,59,0,0
1,note_on,69,0,0
1,note_on,67,0,0
1,note_on,57,45,0
1,note_on,57,0,240
1,note_on,61,47,0
1,note_on,61,0,360
1,note_on,62,45,0
1,note_on,62,0,120
1,note_on,64,45,0
1,note_on,64,0,120
1,note_on,61,43,0
1,note_on,61,0,60
1,note_on,62,36,0
1,note_on,62,0,60
1,note_on,61,49,0
1,note_on,61,0,90
1,note_on,59,44,150
1,note_on,59,0,90
1,note_on,57,44,150
1,note_on,57,0,120
1,note_on,59,44,120
1,note_on,62,36,480
1,note_on,67,36,0
1,note_on,69,36,0
1,note_on,69,0,720
1,note_on,59,0,0
1,note_on,62,0,0
1,note_on,67,0,0
1,note_on,57,45,0
1,note_on,57,0,240
1,note_on,61,47,0
1,note_on,61,0,360
1,note_on,62,45,0
1,note_on,62,0,120
1,note_on,64,45,0
1,note_on,64,0,240
1,note_on,61,49,0
1,note_on,61,0,240
1,note_on,59,44,0
1,note_on,59,0,240
1,note_on,57,44,0
1,note_on,57,0,240
1,note_on,59,47,0
1,note_on,59,0,1200
1,note_on,66,49,0
1,note_on,71,49,0
1,note_on,71,0,240
1,note_on,66,0,0
1,note_on,64,53,0
1,note_on,68,53,0
1,note_on,74,53,0
1,note_on,74,0,1200
1,note_on,68,0,0
1,note_on,64,0,0
1,note_on,64,52,0
1,note_on,67,52,0
1,note_on,76,52,0
1,note_on,76,0,540
1,note_on,67,0,0
1,note_on,64,0,0
1,note_on,61,45,90
1,note_on,67,45,30
1,note_on,69,46,30
1,note_on,77,52,30
1,note_on,77,0,240
1,note_on,61,0,0
1,note_on,67,0,0
1,note_on,69,0,0
1,note_on,90,57,480
1,note_on,78,53,0
1,note_on,78,0,240
1,note_on,90,0,0
1,note_on,88,62,0
1,note_on,81,40,0
1,note_on,76,56,0
1,note_on,76,0,360
1,note_on,88,0,0
1,note_on,78,47,0
1,note_on,90,53,0
1,note_on,90,0,120
1,note_on,78,0,0
1,note_on,86,53,0
1,note_on,74,47,0
1,note_on,81,0,240
1,note_on,81,67,0
1,note_on,81,0,480
1,note_on,74,0,0
1,note_on,86,0,0
1,note_on,93,62,0
1,note_on,81,55,0
1,note_on,74,47,90
1,note_on,74,0,30
1,note_on,81,47,0
1,note_on,81,0,30
1,note_on,86,47,0
1,note_on,86,0,30
1,note_on,81,47,0
1,note_on,81,0,30
1,note_on,86,47,0
1,note_on,81,0,30
1,note_on,93,0,0
1,note_on,93,63,0
1,note_on,81,57,0
1,note_on,81,0,480
1,note_on,93,0,0
1,note_on,95,57,0
1,note_on,83,53,0
1,note_on,81,49,150
1,note_on,81,0,30
1,note_on,86,0,0
1,note_on,86,49,0
1,note_on,95,50,30
1,note_on,95,0,30
1,note_on,95,0,0
1,note_on,83,0,0
1,note_on,93,63,0
1,note_on,81,57,0
1,note_on,81,0,360
1,note_on,93,0,0
1,note_on,91,57,0
1,note_on,79,53,0
1,note_on,79,0,120
1,note_on,91,0,0
1,note_on,90,57,0
1,note_on,78,53,0
1,note_on,78,0,240
1,note_on,90,0,0
1,note_on,86,0,0
1,note_on,88,62,0
1,note_on,81,40,0
1,note_on,76,56,0
1,note_on,76,0,240
1,note_on,88,0,0
1,note_on,90,54,0
1,note_on,78,50,0
1,note_on,78,0,240
1,note_on,90,0,0
1,note_on,86,52,0
1,note_on,74,46,0
1,note_on,74,0,240
1,note_on,86,0,0
1,note_on,81,0,0
1,note_on,90,57,480
1,note_on,78,53,0
1,note_on,78,0,240
1,note_on,90,0,0
1,note_on,90,63,0
1,note_on,82,40,0
1,note_on,78,57,0
1,note_on,78,0,480
1,note_on,90,0,0
1,note_on,88,57,0
1,note_on,76,53,0
1,note_on,76,0,240
1,note_on,88,0,0
1,note_on,88,62,0
1,note_on,76,56,0
1,note_on,82,0,240
1,note_on,76,0,240
1,note_on,88,0,0
1,note_on,85,57,0
1,note_on,73,53,0
1,note_on,73,0,240
1,note_on,85,0,0
1,note_on,86,62,0
1,note_on,71,40,0
1,note_on,83,40,0
1,note_on,74,56,0
1,note_on,74,0,360
1,note_on,86,0,0
1,note_on,85,57,0
1,note_on,73,53,0
1,note_on,73,0,120
1,note_on,85,0,0
1,note_on,83,57,0
1,note_on,71,53,0
1,note_on,71,0,240
1,note_on,71,0,0
1,note_on,83,0,0
1,note_on,83,0,0
1,note_on,90,57,480
1,note_on,78,53,0
1,note_on,78,0,240
1,note_on,90,0,0
1,note_on,90,63,0
1,note_on,82,40,0
1,note_on,78,57,0
1,note_on,78,0,480
1,note_on,90,0,0
1,note_on,88,57,0
1,note_on,76,53,0
1,note_on,76,0,240
1,note_on,88,0,0
1,note_on,88,62,0
1,note_on,76,56,0
1,note_on,82,0,240
1,note_on,76,0,240
1,note_on,88,0,0
1,note_on,85,57,0
1,note_on,73,53,0
1,note_on,74,49,150
1,note_on,78,49,30
1,note_on,88,50,30
1,note_on,88,0,30
1,note_on,85,0,0
1,note_on,73,0,0
1,note_on,86,62,0
1,note_on,71,40,0
1,note_on,86,0,360
1,note_on,74,0,0
1,note_on,85,57,0
1,note_on,73,53,0
1,note_on,73,0,120
1,note_on,85,0,0
1,note_on,83,57,0
1,note_on,71,53,0
1,note_on,71,0,240
1,note_on,71,0,0
1,note_on,78,0,0
1,note_on,83,0,0
1,note_on,78,61,480
1,note_on,81,61,0
1,note_on,69,61,0
1,note_on,69,0,240
1,note_on,81,0,0
1,note_on,78,0,0
1,note_on,78,64,0
1,note_on,83,64,0
1,note_on,71,64,0
1,note_on,71,0,720
1,note_on,83,0,0
1,note_on,73,66,0
1,note_on,85,66,0
1,note_on,85,0,240
1,note_on,73,0,0
1,note_on,78,0,0
1,note_on,70,30,240
1,note_on,73,30,0
1,note_on,61,45,0
1,note_on,61,0,240
1,note_on,65,47,0
1,note_on,65,0,360
1,note_on,66,45,0
1,note_on,66,0,120
1,note_on,73,0,0
1,note_on,70,0,0
1,note_on,73,26,0
1,note_on,68,45,0
1,note_on,68,0,240
1,note_on,65,50,0
1,note_on,65,0,480
1,note_on,73,0,0
1,note_on,71,30,0
1,note_on,73,30,0
1,note_on,61,44,0
1,note_on,61,0,240
1,note_on,63,45,0
1,note_on,73,0,480
1,note_on,71,0,0
1,note_on,71,30,0
1,note_on,73,30,0
1,note_on,68,30,0
1,note_on,68,0,240
1,note_on,73,0,0
1,note_on,71,0,0
1,note_on,63,0,480
1,note_on,70,30,0
1,note_on,73,30,0
1,note_on,61,45,0
1,note_on,61,0,240
1,note_on,65,47,0
1,note_on,65,0,360
1,note_on,66,45,0
1,note_on,66,0,120
1,note_on,73,0,0
1,note_on,70,0,0
1,note_on,73,30,0
1,note_on,68,45,0
1,note_on,68,0,120
1,note_on,73,0,0
1,note_on,65,43,0
1,note_on,65,0,60
1,note_on,66,36,0
1,note_on,66,0,60
1,note_on,65,49,0
1,note_on,65,0,90
1,note_on,63,44,150
1,note_on,63,0,90
1,note_on,71,30,150
1,note_on,73,30,0
1,note_on,65,30,0
1,note_on,61,44,0
1,note_on,61,0,90
1,note_on,71,0,150
1,note_on,73,0,0
1,note_on,65,0,0
1,note_on,63,43,0
1,note_on,66,33,480
1,note_on,71,33,0
1,note_on,73,33,0
1,note_on,73,0,720
1,note_on,63,0,0
1,note_on,66,0,0
1,note_on,71,0,0
1,note_on,68,39,0
1,note_on,71,39,0
1,note_on,73,39,0
1,note_on,61,45,0
1,note_on,61,0,240
1,note_on,68,0,0
1,note_on,71,0,0
1,note_on,73,0,0
1,note_on,65,47,0
1,note_on,65,0,360
1,note_on,66,45,0
1,note_on,66,0,120
1,note_on,68,45,0
1,note_on,68,0,240
1,note_on,65,49,0
1,note_on,65,0,240
1,note_on,63,44,0
1,note_on,63,0,240
1,note_on,56,36,0
1,note_on,61,44,0
1,note_on,61,0,240
1,note_on,56,0,0
1,note_on,59,41,0
1,note_on,63,47,0
1,note_on,63,0,1200
1,note_on,59,0,0
1,note_on,56,47,0
1,note_on,59,47,0
1,note_on,63,47,0
1,note_on,63,0,90
1,note_on,59,0,0
1,note_on,56,0,0
1,note_on,54,36,90
1,note_on,58,39,30
1,note_on,66,41,30
1,note_on,66,0,475
1,note_on,58,0,0
1,note_on,54,0,0
1,note_on,59,44,1385
1,note_on,66,44,30
1,note_on,71,44,30
1,note_on,71,0,240
1,note_on,66,0,0
1,note_on,59,0,0
1,note_on,67,40,480
1,note_on,71,40,0
1,note_on,79,57,0
1,note_on,79,0,240
1,note_on,78,62,0
1,note_on,78,0,240
1,note_on,79,53,0
1,note_on,79,0,240
1,note_on,71,0,0
1,note_on,67,0,0
1,note_on,64,40,0
1,note_on,71,40,0
1,note_on,76,53,0
1,note_on,76,0,720
1,note_on,71,0,0
1,note_on,64,0,0
1,note_on,83,57,0
1,note_on,67,40,0
1,note_on,76,40,0
1,note_on,83,0,240
1,note_on,83,63,0
1,note_on,83,0,480
1,note_on,76,0,0
1,note_on,67,0,0
1,note_on,85,61,0
1,note_on,85,0,120
1,note_on,83,61,0
1,note_on,83,0,60
1,note_on,85,62,0
1,note_on,85,0,60
1,note_on,83,67,0
1,note_on,83,0,360
1,note_on,81,63,0
1,note_on,81,0,120
1,note_on,79,63,0
1,note_on,79,0,240
1,note_on,78,66,0
1,note_on,78,0,240
1,note_on,79,63,0
1,note_on,79,0,240
1,note_on,71,40,0
1,note_on,76,62,0
1,note_on,76,0,720
1,note_on,71,0,0
1,note_on,67,40,0
1,note_on,71,40,0
1,note_on,79,64,0
1,note_on,79,0,240
1,note_on,79,67,0
1,note_on,79,0,480
1,note_on,71,0,0
1,note_on,67,0,0
1,note_on,67,40,0
1,note_on,71,40,0
1,note_on,78,59,0
1,note_on,78,0,240
1,note_on,71,0,0
1,note_on,67,0,0
1,note_on,67,33,0
1,note_on,71,33,0
1,note_on,78,62,0
1,note_on,78,0,480
1,note_on,74,63,0
1,note_on,74,0,240
1,note_on,71,0,0
1,note_on,67,0,0
1,note_on,69,40,0
1,note_on,67,40,0
1,note_on,76,67,0
1,note_on,76,0,360
1,note_on,74,62,0
1,note_on,74,0,120
1,note_on,73,59,0
1,note_on,73,0,240
1,note_on,67,0,0
1,note_on,69,0,0
1,note_on,67,40,480
1,note_on,71,40,0
1,note_on,79,64,0
1,note_on,79,0,240
1,note_on,79,67,0
1,note_on,79,0,480
1,note_on,71,0,0
1,note_on,67,0,0
1,note_on,67,40,0
1,note_on,71,40,0
1,note_on,78,59,0
1,note_on,78,0,240
1,note_on,71,0,0
1,note_on,67,0,0
1,note_on,67,40,0
1,note_on,71,40,0
1,note_on,78,62,0
1,note_on,78,0,480
1,note_on,74,63,0
1,note_on,74,0,240
1,note_on,71,0,0
1,note_on,67,0,0
1,note_on,69,40,0
1,note_on,67,40,0
1,note_on,73,67,0
1,note_on,73,0,360
1,note_on,71,62,0
1,note_on,71,0,120
1,note_on,69,59,0
1,note_on,69,0,240
1,note_on,67,0,0
1,note_on,69,0,0
1,note_on,69,41,480
1,note_on,67,41,0
1,note_on,67,0,120
1,note_on,69,0,0
1,note_on,71,41,120
1,note_on,67,41,0
1,note_on,67,0,720
1,note_on,71,0,0
1,note_on,69,46,1680
1,note_on,69,0,80
1,note_on,76,49,0
1,note_on,76,0,80
1,note_on,81,51,0
1,note_on,79,51,0
1,note_on,79,0,80
1,note_on,81,0,0
1,note_on,81,53,0
1,note_on,81,0,80
1,note_on,85,54,0
1,note_on,85,0,80
1,note_on,93,56,0
1,note_on,91,45,0
1,note_on,91,0,80
1,note_on,93,0,0
1,note_on,91,45,0
1,note_on,93,56,0
1,note_on,93,0,80
1,note_on,86,57,0
1,note_on,91,0,40
1,note_on,86,0,40
1,note_on,83,56,0
1,note_on,83,0,80
1,note_on,81,55,0
1,note_on,79,45,0
1,note_on,79,0,80
1,note_on,81,0,0
1,note_on,74,54,0
1,note_on,74,0,80
1,note_on,71,53,0
1,note_on,71,0,80
1,note_on,69,53,0
1,note_on,67,44,0
1,note_on,67,0,80
1,note_on,62,52,0
1,note_on,69,0,40
1,note_on,62,0,40
1,note_on,59,51,0
1,note_on,59,0,80
1,note_on,69,46,1680
1,note_on,69,0,80
1,note_on,76,49,0
1,note_on,76,0,80
1,note_on,81,51,0
1,note_on,79,51,0
1,note_on,79,0,80
1,note_on,81,0,0
1,note_on,81,53,0
1,note_on,81,0,80
1,note_on,85,54,0
1,note_on,85,0,80
1,note_on,93,56,0
1,note_on,91,45,0
1,note_on,91,0,80
1,note_on,93,0,0
1,note_on,91,45,0
1,note_on,93,56,0
1,note_on,93,0,80
1,note_on,86,57,0
1,note_on,91,0,40
1,note_on,86,0,40
1,note_on,83,56,0
1,note_on,83,0,80
1,note_on,81,55,0
1,note_on,79,44,0
1,note_on,79,0,80
1,note_on,81,0,0
1,note_on,74,54,0
1,note_on,74,0,80
1,note_on,71,53,0
1,note_on,71,0,80
1,note_on,69,53,0
1,note_on,67,43,0
1,note_on,67,0,80
1,note_on,62,52,0
1,note_on,69,0,40
1,note_on,62,0,40
1,note_on,59,51,0
1,note_on,59,0,80
1,note_on,57,44,0
1,note_on,57,0,240
1,note_on,69,59,240
1,note_on,67,43,0
1,note_on,69,0,240
1,note_on,73,62,0
1,note_on,69,43,0
1,note_on,73,0,360
1,note_on,74,59,0
1,note_on,74,0,120
1,note_on,69,0,0
1,note_on,67,0,0
1,note_on,67,36,0
1,note_on,76,59,0
1,note_on,69,36,0
1,note_on,69,0,120
1,note_on,76,0,0
1,note_on,67,0,0
1,note_on,73,53,0
1,note_on,73,0,60
1,note_on,74,53,0
1,note_on,74,0,60
1,note_on,73,63,0
1,note_on,69,46,240
1,note_on,69,0,80
1,note_on,76,49,0
1,note_on,76,0,80
1,note_on,81,52,0
1,note_on,79,52,0
1,note_on,79,0,80
1,note_on,81,0,0
1,note_on,73,0,0
1,note_on,81,53,0
1,note_on,81,0,80
1,note_on,85,55,0
1,note_on,85,0,80
1,note_on,91,57,0
1,note_on,93,57,0
1,note_on,93,0,80
1,note_on,91,0,0
1,note_on,95,57,0
1,note_on,91,57,0
1,note_on,95,0,80
1,note_on,86,59,0
1,note_on,91,0,40
1,note_on,86,0,40
1,note_on,83,57,0
1,note_on,83,0,80
1,note_on,83,55,0
1,note_on,79,55,0
1,note_on,79,0,80
1,note_on,83,0,0
1,note_on,74,55,0
1,note_on,74,0,80
1,note_on,71,54,0
1,note_on,71,0,80
1,note_on,71,53,0
1,note_on,67,53,0
1,note_on,67,0,80
1,note_on,62,53,0
1,note_on,71,0,40
1,note_on,62,0,40
1,note_on,59,52,0
1,note_on,59,0,80
1,note_on,59,57,240
1,note_on,59,0,80
1,note_on,62,59,0
1,note_on,62,0,80
1,note_on,71,61,0
1,note_on,67,61,0
1,note_on,67,0,80
1,note_on,71,0,0
1,note_on,71,62,0
1,note_on,71,0,80
1,note_on,74,62,0
1,note_on,74,0,80
1,note_on,83,63,0
1,note_on,79,63,0
1,note_on,79,0,80
1,note_on,83,0,0
1,note_on,62,61,240
1,note_on,62,0,80
1,note_on,66,62,0
1,note_on,66,0,80
1,note_on,74,63,0
1,note_on,71,63,0
1,note_on,71,0,80
1,note_on,74,0,0
1,note_on,74,63,0
1,note_on,74,0,80
1,note_on,78,64,0
1,note_on,78,0,80
1,note_on,83,65,0
1,note_on,86,65,0
1,note_on,86,0,80
1,note_on,83,0,0
1,note_on,64,63,240
1,note_on,64,0,80
1,note_on,68,63,0
1,note_on,68,0,80
1,note_on,76,65,0
1,note_on,74,65,0
1,note_on,74,0,80
1,note_on,76,0,0
1,note_on,76,66,0
1,note_on,76,0,80
1,note_on,80,67,0
1,note_on,80,0,80
1,note_on,88,69,0
1,note_on,86,69,0
1,note_on,86,0,80
1,note_on,88,0,0
1,note_on,65,65,240
1,note_on,65,0,80
1,note_on,69,66,0
1,note_on,69,0,80
1,note_on,77,69,0
1,note_on,73,69,0
1,note_on,73,0,80
1,note_on,77,0,0
1,note_on,77,70,0
1,note_on,77,0,80
1,note_on,81,71,0
1,note_on,81,0,80
1,note_on,89,71,0
1,note_on,85,71,0
1,note_on,85,0,80
1,note_on,89,0,0
1,note_on,66,65,240
1,note_on,66,0,80
1,note_on,69,69,0
1,note_on,69,0,80
1,note_on,78,71,0
1,note_on,78,0,80
1,note_on,78,74,0
1,note_on,78,0,80
1,note_on,81,77,0
1,note_on,81,0,80
1,note_on,90,77,0
1,note_on,90,0,80
1,note_on,88,81,0
1,note_on,86,77,0
1,note_on,81,76,80
1,note_on,86,0,40
1,note_on,81,0,40
1,note_on,76,72,0
1,note_on,76,0,80
1,note_on,76,79,0
1,note_on,76,0,80
1,note_on,81,77,0
1,note_on,88,0,40
1,note_on,90,76,0
1,note_on,81,0,40
1,note_on,76,75,0
1,note_on,76,0,80
1,note_on,90,0,0
1,note_on,86,73,0
1,note_on,81,72,80
1,note_on,78,72,0
1,note_on,86,0,40
1,note_on,78,0,40
1,note_on,81,0,0
1,note_on,74,71,0
1,note_on,74,0,80
1,note_on,69,65,240
1,note_on,69,0,80
1,note_on,74,69,0
1,note_on,74,0,80
1,note_on,81,71,0
1,note_on,78,71,0
1,note_on,78,0,80
1,note_on,81,0,0
1,note_on,81,74,0
1,note_on,81,0,80
1,note_on,86,77,0
1,note_on,86,0,80
1,note_on,93,80,0
1,note_on,90,80,0
1,note_on,90,0,80
1,note_on,93,0,0
1,note_on,93,89,0
1,note_on,90,89,0
1,note_on,93,0,80
1,note_on,86,77,0
1,note_on,90,0,40
1,note_on,86,0,40
1,note_on,81,74,0
1,note_on,81,0,80
1,note_on,81,79,0
1,note_on,81,0,80
1,note_on,86,77,0
1,note_on,86,0,80
1,note_on,90,75,0
1,note_on,90,0,80
1,note_on,95,84,0
1,note_on,86,72,80
1,note_on,95,0,40
1,note_on,86,0,40
1,note_on,83,71,0
1,note_on,83,0,80
1,note_on,93,84,0
1,note_on,86,64,80
1,note_on,86,0,80
1,note_on,81,64,0
1,note_on,81,0,80
1,note_on,93,0,0
1,note_on,91,83,0
1,note_on,86,65,80
1,note_on,86,0,80
1,note_on,79,71,0
1,note_on,79,0,80
1,note_on,91,0,0
1,note_on,90,81,0
1,note_on,86,66,80
1,note_on,86,0,80
1,note_on,78,70,0
1,note_on,78,0,80
1,note_on,90,0,0
1,note_on,88,86,0
1,note_on,86,69,80
1,note_on,86,0,80
1,note_on,76,69,0
1,note_on,76,0,80
1,note_on,88,0,0
1,note_on,90,81,0
1,note_on,81,63,80
1,note_on,81,0,80
1,note_on,78,64,0
1,note_on,78,0,80
1,note_on,90,0,0
1,note_on,86,84,0
1,note_on,78,65,80
1,note_on,78,0,80
1,note_on,74,66,0
1,note_on,74,0,80
1,note_on,86,0,0
1,note_on,66,65,240
1,note_on,66,0,80
1,note_on,69,69,0
1,note_on,69,0,80
1,note_on,78,71,0
1,note_on,78,0,80
1,note_on,78,74,0
1,note_on,78,0,80
1,note_on,81,77,0
1,note_on,81,0,80
1,note_on,90,80,0
1,note_on,90,0,80
1,note_on,90,89,0
1,note_on,81,77,80
1,note_on,90,0,40
1,note_on,81,0,40
1,note_on,78,72,0
1,note_on,78,0,80
1,note_on,78,79,0
1,note_on,78,0,80
1,note_on,81,77,0
1,note_on,81,0,80
1,note_on,90,75,0
1,note_on,90,0,80
1,note_on,90,82,0
1,note_on,94,72,80
1,note_on,90,0,40
1,note_on,94,0,40
1,note_on,102,71,0
1,note_on,102,0,80
1,note_on,102,86,0
1,note_on,102,0,80
1,note_on,94,66,0
1,note_on,94,0,80
1,note_on,90,67,0
1,note_on,90,0,80
1,note_on,90,82,0
1,note_on,90,0,80
1,note_on,78,66,0
1,note_on,78,0,80
1,note_on,90,71,0
1,note_on,90,0,80
1,note_on,78,83,0
1,note_on,78,0,80
1,note_on,85,67,0
1,note_on,85,0,80
1,note_on,90,67,0
1,note_on,90,0,80
1,note_on,78,87,0
1,note_on,78,0,80
1,note_on,86,69,0
1,note_on,86,0,80
1,note_on,90,69,0
1,note_on,90,0,80
1,note_on,78,83,0
1,note_on,78,0,80
1,note_on,85,66,0
1,note_on,85,0,80
1,note_on,90,66,0
1,note_on,90,0,80
1,note_on,78,81,0
1,note_on,78,0,80
1,note_on,83,69,0
1,note_on,83,0,80
1,note_on,90,70,0
1,note_on,90,0,80
1,note_on,66,65,240
1,note_on,66,0,80
1,note_on,69,69,0
1,note_on,69,0,80
1,note_on,78,71,0
1,note_on,78,0,80
1,note_on,78,74,0
1,note_on,78,0,80
1,note_on,81,77,0
1,note_on,81,0,80
1,note_on,90,80,0
1,note_on,90,0,80
1,note_on,90,89,0
1,note_on,81,77,80
1,note_on,90,0,40
1,note_on,81,0,40
1,note_on,78,73,0
1,note_on,78,0,80
1,note_on,78,79,0
1,note_on,78,0,80
1,note_on,81,77,0
1,note_on,81,0,80
1,note_on,90,75,0
1,note_on,90,0,80
1,note_on,90,83,0
1,note_on,94,72,80
1,note_on,90,0,40
1,note_on,94,0,40
1,note_on,102,71,0
1,note_on,102,0,80
1,note_on,102,84,0
1,note_on,102,0,80
1,note_on,94,67,0
1,note_on,94,0,80
1,note_on,90,67,0
1,note_on,90,0,80
1,note_on,90,81,0
1,note_on,90,0,80
1,note_on,78,66,0
1,note_on,78,0,80
1,note_on,90,66,0
1,note_on,90,0,80
1,note_on,85,86,0
1,note_on,90,70,80
1,note_on,90,0,80
1,note_on,97,69,0
1,note_on,97,0,80
1,note_on,85,0,0
1,note_on,86,90,0
1,note_on,90,70,80
1,note_on,90,0,80
1,note_on,98,71,0
1,note_on,98,0,80
1,note_on,86,0,0
1,note_on,85,89,0
1,note_on,90,66,80
1,note_on,90,0,80
1,note_on,97,66,0
1,note_on,97,0,80
1,note_on,85,0,0
1,note_on,83,87,0
1,note_on,90,66,80
1,note_on,90,0,80
1,note_on,95,66,0
1,note_on,95,0,80
1,note_on,83,0,0
1,note_on,86,63,240
1,note_on,90,83,0
1,note_on,78,63,0
1,note_on,78,0,120
1,note_on,90,0,0
1,note_on,86,0,0
1,note_on,92,89,120
1,note_on,90,66,0
1,note_on,80,66,0
1,note_on,80,0,120
1,note_on,90,0,0
1,note_on,92,0,0
1,note_on,95,83,60
1,note_on,95,0,60
1,note_on,93,92,0
1,note_on,90,72,0
1,note_on,81,72,0
1,note_on,81,0,240
1,note_on,90,0,0
1,note_on,93,0,0
1,note_on,80,62,0
1,note_on,92,80,0
1,note_on,92,0,240
1,note_on,80,0,0
1,note_on,78,56,0
1,note_on,90,74,0
1,note_on,90,0,120
1,note_on,78,0,0
1,note_on,66,55,360
1,note_on,66,0,60
1,note_on,67,55,0
1,note_on,67,0,60
1,note_on,70,55,0
1,note_on,70,0,60
1,note_on,71,55,0
1,note_on,71,0,60
1,note_on,73,56,0
1,note_on,73,0,60
1,note_on,74,56,0
1,note_on,74,0,60
1,note_on,76,57,0
1,note_on,76,0,60
1,note_on,78,59,0
1,note_on,78,0,60
1,note_on,79,59,0
1,note_on,79,0,60
1,note_on,82,61,0
1,note_on,82,0,60
1,note_on,83,61,0
1,note_on,83,0,60
1,note_on,85,61,0
1,note_on,85,0,60
1,note_on,86,62,0
1,note_on,86,0,60
1,note_on,88,62,0
1,note_on,88,0,60
1,note_on,90,62,0
1,note_on,90,0,60
1,note_on,91,62,0
1,note_on,91,0,60
1,note_on,94,63,0
1,note_on,94,0,48
1,note_on,95,63,0
1,note_on,95,0,48
1,note_on,97,63,0
1,note_on,97,0,48
1,note_on,98,63,0
1,note_on,98,0,48
1,note_on,100,60,4
1,note_on,102,75,44
1,note_on,100,0,4
1,note_on,102,0,236
1,note_on,86,63,0
1,note_on,90,83,0
1,note_on,78,63,0
1,note_on,78,0,120
1,note_on,90,0,0
1,note_on,86,0,0
1,note_on,92,89,120
1,note_on,90,66,0
1,note_on,80,66,0
1,note_on,80,0,120
1,note_on,90,0,0
1,note_on,92,0,0
1,note_on,95,83,60
1,note_on,95,0,60
1,note_on,93,92,0
1,note_on,90,72,0
1,note_on,81,72,0
1,note_on,81,0,240
1,note_on,90,0,0
1,note_on,93,0,0
1,note_on,80,62,0
1,note_on,92,80,0
1,note_on,92,0,240
1,note_on,80,0,0
1,note_on,78,56,0
1,note_on,90,74,0
1,note_on,90,0,120
1,note_on,78,0,0
1,note_on,66,55,360
1,note_on,66,0,60
1,note_on,67,55,0
1,note_on,67,0,60
1,note_on,70,55,0
1,note_on,70,0,60
1,note_on,71,55,0
1,note_on,71,0,60
1,note_on,73,56,0
1,note_on,73,0,60
1,note_on,74,56,0
1,note_on,74,0,60
1,note_on,76,57,0
1,note_on,76,0,60
1,note_on,78,59,0
1,note_on,78,0,60
1,note_on,79,59,0
1,note_on,79,0,60
1,note_on,82,61,0
1,note_on,82,0,60
1,note_on,83,61,0
1,note_on,83,0,60
1,note_on,85,61,0
1,note_on,85,0,60
1,note_on,86,62,0
1,note_on,86,0,48
1,note_on,88,62,0
1,note_on,88,0,48
1,note_on,90,62,0
1,note_on,90,0,48
1,note_on,91,62,0
1,note_on,91,0,48
1,note_on,94,62,4
1,note_on,95,63,44
1,note_on,94,0,4
1,note_on,95,0,44
1,note_on,97,63,0
1,note_on,97,0,48
1,note_on,98,63,0
1,note_on,98,0,48
1,note_on,100,63,0
1,note_on,100,0,48
1,note_on,102,63,4
1,note_on,102,0,48
1,note_on,78,67,236
1,note_on,82,89,0
1,note_on,70,67,0
1,note_on,70,0,120
1,note_on,82,0,0
1,note_on,78,0,0
1,note_on,84,93,120
1,note_on,82,71,0
1,note_on,72,71,0
1,note_on,72,0,120
1,note_on,82,0,0
1,note_on,84,0,0
1,note_on,87,89,60
1,note_on,87,0,60
1,note_on,85,97,0
1,note_on,82,75,0
1,note_on,73,75,0
1,note_on,73,0,240
1,note_on,82,0,0
1,note_on,85,0,0
1,note_on,72,65,0
1,note_on,84,84,0
1,note_on,84,0,240
1,note_on,72,0,0
1,note_on,70,61,0
1,note_on,82,80,0
1,note_on,82,0,120
1,note_on,70,0,0
1,note_on,70,55,360
1,note_on,70,0,60
1,note_on,71,55,0
1,note_on,71,0,60
1,note_on,74,55,0
1,note_on,74,0,60
1,note_on,75,55,0
1,note_on,75,0,60
1,note_on,77,56,0
1,note_on,77,0,60
1,note_on,78,56,0
1,note_on,78,0,60
1,note_on,80,57,0
1,note_on,80,0,60
1,note_on,81,59,0
1,note_on,81,0,60
1,note_on,82,59,0
1,note_on,82,0,60
1,note_on,83,61,0
1,note_on,83,0,60
1,note_on,84,61,0
1,note_on,84,0,60
1,note_on,85,61,0
1,note_on,85,0,60
1,note_on,86,62,0
1,note_on,86,0,60
1,note_on,87,62,0
1,note_on,87,0,60
1,note_on,88,62,0
1,note_on,88,0,60
1,note_on,89,62,0
1,note_on,89,0,60
1,note_on,90,63,0
1,note_on,90,0,48
1,note_on,91,63,12
1,note_on,91,0,48
1,note_on,92,63,12
1,note_on,92,0,48
1,note_on,93,63,12
1,note_on,93,0,48
1,note_on,87,81,12
1,note_on,82,80,0
1,note_on,94,89,0
1,note_on,94,0,240
1,note_on,82,0,0
1,note_on,87,0,0
1,note_on,82,76,120
1,note_on,78,76,0
1,note_on,70,67,0
1,note_on,70,0,120
1,note_on,78,0,0
1,note_on,82,0,0
1,note_on,84,81,120
1,note_on,78,81,0
1,note_on,72,72,0
1,note_on,72,0,120
1,note_on,78,0,0
1,note_on,84,0,0
1,note_on,73,75,120
1,note_on,78,84,0
1,note_on,85,84,0
1,note_on,85,0,120
1,note_on,78,0,0
1,note_on,73,0,0
1,note_on,72,73,120
1,note_on,78,81,0
1,note_on,84,81,0
1,note_on,84,0,120
1,note_on,78,0,0
1,note_on,72,0,0
1,note_on,82,79,120
1,note_on,78,79,0
1,note_on,70,69,0
1,note_on,70,0,120
1,note_on,78,0,0
1,note_on,82,0,0
1,note_on,94,81,0
1,note_on,96,89,0
1,note_on,88,80,0
1,note_on,84,80,0
1,note_on,84,0,240
1,note_on,94,0,0
1,note_on,96,0,0
1,note_on,88,0,0
1,note_on,80,82,120
1,note_on,68,82,0
1,note_on,68,0,120
1,note_on,80,0,0
1,note_on,83,84,120
1,note_on,71,84,0
1,note_on,71,0,120
1,note_on,83,0,0
1,note_on,85,85,120
1,note_on,73,85,0
1,note_on,73,0,120
1,note_on,85,0,0
1,note_on,87,87,120
1,note_on,75,87,0
1,note_on,75,0,120
1,note_on,87,0,0
1,note_on,101,89,240
1,note_on,93,89,0
1,note_on,89,89,0
1,note_on,89,0,90
1,note_on,93,0,0
1,note_on,101,0,0
1,note_on,89,64,390
1,note_on,89,0,90
1,note_on,101,62,30
1,note_on,101,0,90
1,note_on,77,71,150
1,note_on,77,0,90
1,note_on,89,64,30
1,note_on,89,0,90
1,note_on,65,73,150
1,note_on,65,0,90
1,note_on,77,73,30
1,note_on,77,0,90
1,note_on,53,63,150
1,note_on,53,0,90
1,note_on,65,62,30
1,note_on,65,0,90
1,note_on,41,62,150
1,note_on,41,0,90
1,note_on,53,61,30
1,note_on,53,0,90
1,note_on,53,62,150
1,note_on,53,0,90
1,note_on,65,56,30
1,note_on,65,0,90
1,note_on,65,62,150
1,note_on,65,0,90
1,note_on,66,62,30
1,note_on,66,0,90
1,note_on,63,62,30
1,note_on,67,70,0
1,note_on,67,0,90
1,note_on,63,0,0
1,note_on,63,55,30
1,note_on,67,62,0
1,note_on,67,0,90
1,note_on,63,0,0
1,note_on,63,57,30
1,note_on,67,63,0
1,note_on,67,0,90
1,note_on,63,0,0
1,note_on,67,71,30
1,note_on,63,63,0
1,note_on,63,0,90
1,note_on,67,0,0
1,note_on,62,64,30
1,note_on,62,0,90
1,note_on,67,70,30
1,note_on,63,62,0
1,note_on,63,0,90
1,note_on,67,0,0
1,note_on,59,63,30
1,note_on,59,0,90
1,note_on,63,63,30
1,note_on,60,57,0
1,note_on,60,0,90
1,note_on,63,0,0
1,note_on,62,64,30
1,note_on,62,0,90
1,note_on,63,62,30
1,note_on,67,70,0
1,note_on,67,0,90
1,note_on,70,69,30
1,note_on,70,0,90
1,note_on,63,0,30
1,note_on,65,59,0
1,note_on,69,65,0
1,note_on,69,0,90
1,note_on,65,0,0
1,note_on,62,59,30
1,note_on,65,65,0
1,note_on,65,0,90
1,note_on,62,0,0
1,note_on,62,57,30
1,note_on,65,63,0
1,note_on,65,0,90
1,note_on,62,0,0
1,note_on,62,63,30
1,note_on,65,63,0
1,note_on,65,0,90
1,note_on,62,0,0
1,note_on,65,73,30
1,note_on,62,65,0
1,note_on,62,0,90
1,note_on,65,0,0
1,note_on,58,67,30
1,note_on,58,0,90
1,note_on,63,65,30
1,note_on,60,65,0
1,note_on,60,0,90
1,note_on,63,0,0
1,note_on,62,72,30
1,note_on,62,0,90
1,note_on,67,64,30
1,note_on,63,57,0
1,note_on,63,0,90
1,note_on,67,0,0
1,note_on,65,65,30
1,note_on,62,65,0
1,note_on,62,0,90
1,note_on,65,0,0
1,note_on,87,49,390
1,note_on,90,54,0
1,note_on,90,0,90
1,note_on,87,0,0
1,note_on,87,44,30
1,note_on,90,49,0
1,note_on,90,0,90
1,note_on,87,0,0
1,note_on,87,45,30
1,note_on,90,51,0
1,note_on,90,0,90
1,note_on,87,0,0
1,note_on,90,55,30
1,note_on,87,50,0
1,note_on,87,0,90
1,note_on,90,0,0
1,note_on,86,51,30
1,note_on,86,0,90
1,note_on,90,54,30
1,note_on,87,49,0
1,note_on,87,0,90
1,note_on,90,0,0
1,note_on,83,51,30
1,note_on,83,0,90
1,note_on,87,51,30
1,note_on,84,45,0
1,note_on,84,0,90
1,note_on,87,0,0
1,note_on,86,51,30
1,note_on,86,0,90
1,note_on,87,49,30
1,note_on,90,54,0
1,note_on,90,0,90
1,note_on,94,54,30
1,note_on,94,0,90
1,note_on,87,0,30
1,note_on,89,45,0
1,note_on,93,52,0
1,note_on,93,0,90
1,note_on,89,0,0
1,note_on,85,45,30
1,note_on,89,52,0
1,note_on,89,0,90
1,note_on,85,0,0
1,note_on,85,45,30
1,note_on,89,51,0
1,note_on,89,0,90
1,note_on,85,0,0
1,note_on,85,51,30
1,note_on,89,51,0
1,note_on,89,0,90
1,note_on,85,0,0
1,note_on,89,59,30
1,note_on,85,52,0
1,note_on,85,0,90
1,note_on,89,0,0
1,note_on,82,53,30
1,note_on,82,0,90
1,note_on,87,52,30
1,note_on,84,52,0
1,note_on,84,0,90
1,note_on,87,0,0
1,note_on,85,57,30
1,note_on,85,0,90
1,note_on,90,51,30
1,note_on,87,45,0
1,note_on,87,0,90
1,note_on,90,0,0
1,note_on,89,52,30
1,note_on,85,52,0
1,note_on,85,0,90
1,note_on,89,0,0
1,note_on,71,72,390
1,note_on,71,0,90
1,note_on,75,69,30
1,note_on,72,69,0
1,note_on,72,0,90
1,note_on,75,0,0
1,note_on,74,69,30
1,note_on,74,0,90
1,note_on,79,80,30
1,note_on,75,80,0
1,note_on,75,0,90
1,note_on,79,0,0
1,note_on,78,74,30
1,note_on,78,0,90
1,note_on,82,75,30
1,note_on,79,75,0
1,note_on,79,0,90
1,note_on,82,0,0
1,note_on,80,84,30
1,note_on,80,0,90
1,note_on,84,74,30
1,note_on,81,65,0
1,note_on,81,0,90
1,note_on,84,0,0
1,note_on,82,75,30
1,note_on,79,66,0
1,note_on,79,0,90
1,note_on,82,0,0
1,note_on,81,74,30
1,note_on,77,74,0
1,note_on,77,0,90
1,note_on,76,72,30
1,note_on,76,0,90
1,note_on,81,0,30
1,note_on,79,70,0
1,note_on,75,70,0
1,note_on,75,0,90
1,note_on,79,0,0
1,note_on,73,74,30
1,note_on,73,0,90
1,note_on,77,71,30
1,note_on,74,71,0
1,note_on,74,0,90
1,note_on,77,0,0
1,note_on,75,70,30
1,note_on,75,0,90
1,note_on,71,61,30
1,note_on,82,86,0
1,note_on,76,61,0
1,note_on,76,0,90
1,note_on,77,62,30
1,note_on,82,0,120
1,note_on,80,61,0
1,note_on,80,0,90
1,note_on,77,0,30
1,note_on,71,0,0
1,note_on,73,59,0
1,note_on,78,69,0
1,note_on,78,0,90
1,note_on,73,0,0
1,note_on,77,65,30
1,note_on,77,0,90
1,note_on,78,63,30
1,note_on,78,0,90
1,note_on,66,62,30
1,note_on,73,70,0
1,note_on,73,0,360
1,note_on,66,0,0
1,note_on,79,45,0
1,note_on,79,0,90
1,note_on,83,44,30
1,note_on,80,44,0
1,note_on,80,0,90
1,note_on,83,0,0
1,note_on,82,44,30
1,note_on,82,0,90
1,note_on,87,49,30
1,note_on,83,49,0
1,note_on,83,0,90
1,note_on,87,0,0
1,note_on,86,45,30
1,note_on,86,0,90
1,note_on,90,46,30
1,note_on,87,46,0
1,note_on,87,0,90
1,note_on,90,0,0
1,note_on,88,53,30
1,note_on,88,0,90
1,note_on,92,45,30
1,note_on,89,41,0
1,note_on,89,0,90
1,note_on,92,0,0
1,note_on,90,46,30
1,note_on,87,42,0
1,note_on,87,0,90
1,note_on,90,0,0
1,note_on,89,45,30
1,note_on,85,45,0
1,note_on,85,0,90
1,note_on,84,45,30
1,note_on,84,0,90
1,note_on,89,0,30
1,note_on,87,44,0
1,note_on,83,44,0
1,note_on,83,0,90
1,note_on,87,0,0
1,note_on,81,45,30
1,note_on,81,0,90
1,note_on,85,44,30
1,note_on,82,44,0
1,note_on,82,0,90
1,note_on,85,0,0
1,note_on,83,44,30
1,note_on,83,0,90
1,note_on,79,36,30
1,note_on,90,46,0
1,note_on,84,36,0
1,note_on,84,0,90
1,note_on,85,37,30
1,note_on,90,0,120
1,note_on,88,36,0
1,note_on,88,0,90
1,note_on,85,0,30
1,note_on,79,0,0
1,note_on,81,36,0
1,note_on,86,44,0
1,note_on,86,0,90
1,note_on,81,0,0
1,note_on,85,41,30
1,note_on,85,0,90
1,note_on,86,40,30
1,note_on,86,0,90
1,note_on,59,59,510
1,note_on,62,65,0
1,note_on,62,0,90
1,note_on,59,0,0
1,note_on,71,61,30
1,note_on,67,53,0
1,note_on,67,0,90
1,note_on,71,0,0
1,note_on,70,54,150
1,note_on,66,49,0
1,note_on,66,0,90
1,note_on,70,0,0
1,note_on,67,44,30
1,note_on,71,50,0
1,note_on,71,0,90
1,note_on,67,0,0
1,note_on,64,51,150
1,note_on,67,57,0
1,note_on,67,0,90
1,note_on,64,0,0
1,note_on,67,62,150
1,note_on,71,69,0
1,note_on,71,0,90
1,note_on,74,65,30
1,note_on,74,0,90
1,note_on,67,0,30
1,note_on,69,54,0
1,note_on,73,62,0
1,note_on,73,0,90
1,note_on,69,0,0
1,note_on,57,54,150
1,note_on,62,62,0
1,note_on,62,0,90
1,note_on,57,0,0
1,note_on,69,55,30
1,note_on,66,49,0
1,note_on,66,0,90
1,note_on,69,0,0
1,note_on,62,52,150
1,note_on,66,59,0
1,note_on,66,0,90
1,note_on,62,0,0
1,note_on,64,46,30
1,note_on,67,53,0
1,note_on,67,0,90
1,note_on,64,0,0
1,note_on,67,46,150
1,note_on,71,53,0
1,note_on,71,0,90
1,note_on,67,0,0
1,note_on,66,44,30
1,note_on,69,50,0
1,note_on,69,0,90
1,note_on,66,0,0
1,note_on,71,36,510
1,note_on,74,41,0
1,note_on,74,0,90
1,note_on,71,0,0
1,note_on,83,36,30
1,note_on,79,36,0
1,note_on,79,0,90
1,note_on,83,0,0
1,note_on,82,33,150
1,note_on,78,29,0
1,note_on,78,0,90
1,note_on,82,0,0
1,note_on,79,26,30
1,note_on,83,30,0
1,note_on,83,0,90
1,note_on,79,0,0
1,note_on,76,31,150
1,note_on,79,35,0
1,note_on,79,0,90
1,note_on,76,0,0
1,note_on,79,43,150
1,note_on,83,43,0
1,note_on,83,0,90
1,note_on,86,41,30
1,note_on,86,0,90
1,note_on,79,0,30
1,note_on,81,37,0
1,note_on,85,37,0
1,note_on,85,0,90
1,note_on,81,0,0
1,note_on,69,33,150
1,note_on,74,37,0
1,note_on,74,0,90
1,note_on,69,0,0
1,note_on,81,34,30
1,note_on,78,30,0
1,note_on,78,0,90
1,note_on,81,0,0
1,note_on,74,32,150
1,note_on,78,36,0
1,note_on,78,0,90
1,note_on,74,0,0
1,note_on,76,27,30
1,note_on,79,32,0
1,note_on,79,0,90
1,note_on,76,0,0
1,note_on,79,27,150
1,note_on,83,32,0
1,note_on,83,0,90
1,note_on,79,0,0
1,note_on,78,26,30
1,note_on,81,30,0
1,note_on,81,0,90
1,note_on,78,0,0
1,note_on,66,66,390
1,note_on,63,60,0
1,note_on,63,0,90
1,note_on,66,0,0
1,note_on,67,63,30
1,note_on,64,57,0
1,note_on,64,0,90
1,note_on,67,0,0
1,note_on,70,63,30
1,note_on,66,63,0
1,note_on,66,0,90
1,note_on,70,0,0
1,note_on,71,72,30
1,note_on,67,72,0
1,note_on,67,0,90
1,note_on,71,0,0
1,note_on,73,69,30
1,note_on,70,61,0
1,note_on,70,0,90
1,note_on,73,0,0
1,note_on,74,70,30
1,note_on,71,70,0
1,note_on,71,0,90
1,note_on,74,0,0
1,note_on,72,69,30
1,note_on,75,79,0
1,note_on,75,0,90
1,note_on,72,0,0
1,note_on,76,69,30
1,note_on,73,69,0
1,note_on,73,0,90
1,note_on,76,0,0
1,note_on,74,70,30
1,note_on,71,70,0
1,note_on,71,0,90
1,note_on,74,0,0
1,note_on,73,69,30
1,note_on,69,69,0
1,note_on,69,0,90
1,note_on,68,66,30
1,note_on,68,0,90
1,note_on,73,0,30
1,note_on,71,63,0
1,note_on,67,63,0
1,note_on,67,0,90
1,note_on,65,69,30
1,note_on,65,0,90
1,note_on,71,0,30
1,note_on,69,65,0
1,note_on,66,59,0
1,note_on,66,0,90
1,note_on,69,0,0
1,note_on,68,63,30
1,note_on,68,0,90
1,note_on,74,74,30
1,note_on,69,74,0
1,note_on,69,0,90
1,note_on,70,62,30
1,note_on,74,0,120
1,note_on,73,66,0
1,note_on,73,0,90
1,note_on,70,0,30
1,note_on,71,63,0
1,note_on,71,0,90
1,note_on,69,61,30
1,note_on,69,0,90
1,note_on,71,59,30
1,note_on,71,0,90
1,note_on,62,53,30
1,note_on,66,61,0
1,note_on,66,0,360
1,note_on,62,0,0
1,note_on,78,60,0
1,note_on,75,53,0
1,note_on,75,0,90
1,note_on,78,0,0
1,note_on,79,56,30
1,note_on,76,51,0
1,note_on,76,0,90
1,note_on,79,0,0
1,note_on,82,56,30
1,note_on,78,56,0
1,note_on,78,0,90
1,note_on,82,0,0
1,note_on,83,64,30
1,note_on,79,64,0
1,note_on,79,0,90
1,note_on,83,0,0
1,note_on,85,62,30
1,note_on,82,53,0
1,note_on,82,0,90
1,note_on,85,0,0
1,note_on,86,62,30
1,note_on,83,62,0
1,note_on,83,0,90
1,note_on,86,0,0
1,note_on,81,70,30
1,note_on,81,0,90
1,note_on,86,62,30
1,note_on,82,62,0
1,note_on,82,0,90
1,note_on,86,0,0
1,note_on,85,62,30
1,note_on,85,0,90
1,note_on,91,65,30
1,note_on,86,59,0
1,note_on,86,0,90
1,note_on,90,65,30
1,note_on,90,0,90
1,note_on,91,0,30
1,note_on,94,65,0
1,note_on,91,65,0
1,note_on,91,0,90
1,note_on,94,0,0
1,note_on,85,72,30
1,note_on,85,0,120
1,note_on,94,45,0
1,note_on,91,56,0
1,note_on,91,0,120
1,note_on,94,0,0
1,note_on,90,56,0
1,note_on,90,0,120
1,note_on,94,45,0
1,note_on,91,54,0
1,note_on,91,0,120
1,note_on,94,0,0
1,note_on,85,60,0
1,note_on,85,0,120
1,note_on,94,44,0
1,note_on,91,53,0
1,note_on,91,0,120
1,note_on,94,0,0
1,note_on,90,53,0
1,note_on,90,0,120
1,note_on,94,44,0
1,note_on,91,53,0
1,note_on,91,0,120
1,note_on,94,0,0
1,note_on,85,57,0
1,note_on,85,0,120
1,note_on,94,42,0
1,note_on,91,50,0
1,note_on,91,0,120
1,note_on,94,0,0
1,note_on,90,50,0
1,note_on,90,0,120
1,note_on,94,43,0
1,note_on,91,51,0
1,note_on,91,0,120
1,note_on,94,0,0
1,note_on,85,49,0
1,note_on,85,0,120
1,note_on,94,36,0
1,note_on,91,44,0
1,note_on,91,0,120
1,note_on,94,0,0
1,note_on,90,44,0
1,note_on,90,0,120
1,note_on,94,36,0
1,note_on,91,43,0
1,note_on,91,0,120
1,note_on,94,0,0
1,note_on,85,45,0
1,note_on,85,0,120
1,note_on,94,35,0
1,note_on,91,42,0
1,note_on,91,0,120
1,note_on,94,0,0
1,note_on,90,42,0
1,note_on,90,0,120
1,note_on,94,35,0
1,note_on,91,42,0
1,note_on,91,0,120
1,note_on,94,0,0
1,note_on,85,44,0
1,note_on,85,0,120
1,note_on,94,32,0
1,note_on,91,39,0
1,note_on,91,0,120
1,note_on,94,0,0
1,note_on,90,39,0
1,note_on,90,0,120
1,note_on,94,31,0
1,note_on,91,37,0
1,note_on,91,0,120
1,note_on,94,0,0
1,note_on,84,44,0
1,note_on,84,0,120
1,note_on,94,31,0
1,note_on,91,37,0
1,note_on,91,0,120
1,note_on,94,0,0
1,note_on,90,37,0
1,note_on,90,0,120
1,note_on,94,32,0
1,note_on,91,39,0
1,note_on,91,0,120
1,note_on,94,0,0
1,note_on,84,44,0
1,note_on,84,0,120
1,note_on,94,30,0
1,note_on,91,36,0
1,note_on,91,0,120
1,note_on,94,0,0
1,note_on,90,36,0
1,note_on,90,0,120
1,note_on,94,31,0
1,note_on,91,37,0
1,note_on,91,0,120
1,note_on,94,0,0
1,note_on,84,44,0
1,note_on,84,0,120
1,note_on,94,31,0
1,note_on,91,37,0
1,note_on,91,0,120
1,note_on,94,0,0
1,note_on,90,37,0
1,note_on,90,0,120
1,note_on,94,32,0
1,note_on,91,39,0
1,note_on,91,0,120
1,note_on,94,0,0
1,note_on,84,44,0
1,note_on,84,0,120
1,note_on,94,30,0
1,note_on,91,36,0
1,note_on,91,0,120
1,note_on,94,0,0
1,note_on,90,36,0
1,note_on,90,0,120
1,note_on,94,29,0
1,note_on,91,36,0
1,note_on,91,0,120
1,note_on,94,0,0
1,note_on,84,42,0
1,note_on,84,0,120
1,note_on,94,29,0
1,note_on,91,36,0
1,note_on,91,0,120
1,note_on,94,0,0
1,note_on,90,35,0
1,note_on,90,0,120
1,note_on,94,27,0
1,note_on,91,35,0
1,note_on,91,0,120
1,note_on,94,0,0
1,note_on,84,41,0
1,note_on,84,0,120
1,note_on,94,29,0
1,note_on,91,35,0
1,note_on,91,0,120
1,note_on,94,0,0
1,note_on,90,35,0
1,note_on,90,0,120
1,note_on,94,27,0
1,note_on,91,33,0
1,note_on,91,0,120
1,note_on,94,0,0
1,note_on,84,37,0
1,note_on,84,0,120
1,note_on,94,27,0
1,note_on,90,33,0
1,note_on,90,0,120
1,note_on,94,0,0
1,note_on,89,33,0
1,note_on,89,0,120
1,note_on,94,27,0
1,note_on,90,35,0
1,note_on,90,0,120
1,note_on,94,0,0
1,note_on,84,37,0
1,note_on,84,0,120
1,note_on,94,27,0
1,note_on,90,32,0
1,note_on,90,0,120
1,note_on,94,0,0
1,note_on,89,32,0
1,note_on,89,0,120
1,note_on,94,27,0
1,note_on,90,33,0
1,note_on,90,0,120
1,note_on,94,0,0
1,note_on,84,37,0
1,note_on,84,0,120
1,note_on,94,27,0
1,note_on,90,33,0
1,note_on,90,0,120
1,note_on,94,0,0
1,note_on,89,33,0
1,note_on,89,0,120
1,note_on,94,27,0
1,note_on,90,35,0
1,note_on,90,0,120
1,note_on,94,0,0
1,note_on,84,37,0
1,note_on,84,0,120
1,note_on,94,27,0
1,note_on,90,32,0
1,note_on,90,0,120
1,note_on,94,0,0
1,note_on,89,32,0
1,note_on,89,0,120
1,note_on,94,27,0
1,note_on,90,32,0
1,note_on,90,0,120
1,note_on,94,0,0
1,note_on,84,37,0
1,note_on,84,0,120
1,note_on,94,27,0
1,note_on,90,33,0
1,note_on,90,0,120
1,note_on,94,0,0
1,note_on,89,33,0
1,note_on,89,0,120
1,note_on,94,27,0
1,note_on,90,33,0
1,note_on,90,0,120
1,note_on,94,0,0
1,note_on,84,39,0
1,note_on,84,0,120
1,note_on,94,27,0
1,note_on,90,35,0
1,note_on,90,0,120
1,note_on,94,0,0
1,note_on,89,35,0
1,note_on,89,0,120
1,note_on,94,27,0
1,note_on,90,33,0
1,note_on,90,0,120
1,note_on,94,0,0
1,note_on,89,45,0
1,note_on,89,0,120
1,note_on,93,51,0
1,note_on,90,43,0
1,note_on,90,0,120
1,note_on,93,0,0
1,note_on,86,51,0
1,note_on,86,0,120
1,note_on,90,51,0
1,note_on,87,43,0
1,note_on,87,0,120
1,note_on,90,0,0
1,note_on,83,51,0
1,note_on,83,0,120
1,note_on,87,51,0
1,note_on,84,43,0
1,note_on,84,0,120
1,note_on,87,0,0
1,note_on,80,51,0
1,note_on,80,0,120
1,note_on,84,51,0
1,note_on,81,43,0
1,note_on,81,0,120
1,note_on,84,0,0
1,note_on,77,51,0
1,note_on,77,0,120
1,note_on,81,51,0
1,note_on,78,43,0
1,note_on,78,0,120
1,note_on,81,0,0
1,note_on,74,51,0
1,note_on,74,0,120
1,note_on,78,51,0
1,note_on,75,43,0
1,note_on,75,0,120
1,note_on,78,0,0
1,note_on,71,51,0
1,note_on,71,0,120
1,note_on,75,51,0
1,note_on,72,43,0
1,note_on,72,0,120
1,note_on,75,0,0
1,note_on,68,51,0
1,note_on,68,0,120
1,note_on,72,51,0
1,note_on,69,43,0
1,note_on,69,0,120
1,note_on,72,0,0
1,note_on,65,51,0
1,note_on,65,0,120
1,note_on,70,51,0
1,note_on,66,43,0
1,note_on,66,0,120
1,note_on,70,0,0
1,note_on,62,51,0
1,note_on,62,0,120
1,note_on,66,51,0
1,note_on,63,43,0
1,note_on,63,0,120
1,note_on,66,0,0
1,note_on,59,51,0
1,note_on,59,0,120
1,note_on,60,51,0
1,note_on,56,43,0
1,note_on,56,0,120
1,note_on,60,0,0
1,note_on,56,51,0
1,note_on,56,0,120
1,note_on,60,51,0
1,note_on,57,43,0
1,note_on,57,0,120
1,note_on,60,0,0
1,note_on,53,51,0
1,note_on,53,0,120
1,note_on,57,51,0
1,note_on,54,43,0
1,note_on,54,0,120
1,note_on,57,0,0
1,note_on,50,51,0
1,note_on,50,0,120
1,note_on,54,51,0
1,note_on,51,43,0
1,note_on,51,0,120
1,note_on,54,0,0
1,note_on,47,51,0
1,note_on,47,0,120
1,note_on,51,51,0
1,note_on,48,43,0
1,note_on,48,0,120
1,note_on,51,0,0
1,note_on,44,51,0
1,note_on,44,0,120
1,note_on,48,51,0
1,note_on,45,43,0
1,note_on,45,0,120
1,note_on,48,0,0
1,note_on,41,51,0
1,note_on,41,0,120
1,note_on,46,51,0
1,note_on,42,43,0
1,note_on,42,0,120
1,note_on,46,0,0
1,note_on,38,51,0
1,note_on,38,0,120
1,note_on,42,50,0
1,note_on,39,42,0
1,note_on,39,0,120
1,note_on,42,0,0
1,note_on,60,56,2880
1,note_on,51,46,0
1,note_on,54,46,0
1,note_on,60,0,240
1,note_on,60,51,0
1,note_on,60,0,120
1,note_on,58,56,0
1,note_on,58,0,90
1,note_on,60,51,30
1,note_on,60,0,90
1,note_on,56,51,30
1,note_on,56,0,60
1,note_on,54,0,60
1,note_on,51,0,0
1,note_on,63,49,240
1,note_on,63,0,120
1,note_on,54,44,0
1,note_on,57,44,0
1,note_on,63,53,0
1,note_on,63,0,240
1,note_on,65,49,0
1,note_on,65,0,120
1,note_on,63,54,0
1,note_on,63,0,120
1,note_on,61,46,0
1,note_on,61,0,120
1,note_on,60,46,0
1,note_on,60,0,120
1,note_on,57,0,0
1,note_on,54,0,0
1,note_on,54,44,0
1,note_on,58,53,0
1,note_on,58,0,90
1,note_on,54,0,0
1,note_on,60,50,30
1,note_on,60,0,90
1,note_on,56,50,30
1,note_on,56,0,60
1,note_on,60,49,300
1,note_on,60,0,120
1,note_on,51,44,0
1,note_on,54,44,0
1,note_on,60,53,0
1,note_on,60,0,240
1,note_on,58,49,0
1,note_on,58,0,120
1,note_on,54,0,0
1,note_on,51,0,0
1,note_on,52,44,0
1,note_on,55,44,0
1,note_on,58,52,0
1,note_on,58,0,240
1,note_on,55,0,0
1,note_on,55,46,0
1,note_on,55,0,120
1,note_on,52,0,0
1,note_on,53,44,0
1,note_on,56,52,0
1,note_on,56,0,90
1,note_on,53,0,0
1,note_on,55,49,30
1,note_on,55,0,90
1,note_on,53,49,30
1,note_on,53,0,60
1,note_on,60,46,300
1,note_on,60,0,120
1,note_on,51,43,0
1,note_on,54,43,0
1,note_on,60,51,0
1,note_on,60,0,240
1,note_on,58,46,0
1,note_on,58,0,120
1,note_on,54,0,0
1,note_on,51,0,0
1,note_on,55,44,0
1,note_on,52,44,0
1,note_on,58,52,0
1,note_on,58,0,240
1,note_on,55,0,0
1,note_on,55,45,0
1,note_on,55,0,120
1,note_on,52,0,0
1,note_on,56,53,0
1,note_on,56,0,90
1,note_on,55,45,30
1,note_on,55,0,90
1,note_on,53,45,30
1,note_on,53,0,90
1,note_on,65,62,30
1,note_on,56,52,0
1,note_on,59,52,0
1,note_on,65,0,240
1,note_on,65,55,0
1,note_on,65,0,120
1,note_on,63,62,0
1,note_on,63,0,90
1,note_on,65,55,30
1,note_on,65,0,90
1,note_on,61,55,30
1,note_on,53,39,0
1,note_on,53,0,60
1,note_on,61,0,0
1,note_on,59,0,60
1,note_on,56,0,0
1,note_on,68,53,240
1,note_on,68,0,120
1,note_on,59,47,0
1,note_on,62,47,0
1,note_on,68,57,0
1,note_on,68,0,240
1,note_on,70,54,0
1,note_on,70,0,120
1,note_on,68,62,0
1,note_on,68,0,120
1,note_on,66,53,0
1,note_on,66,0,120
1,note_on,65,54,0
1,note_on,65,0,120
1,note_on,62,0,0
1,note_on,59,0,0
1,note_on,59,51,0
1,note_on,63,62,0
1,note_on,63,0,90
1,note_on,59,0,0
1,note_on,65,59,30
1,note_on,65,0,90
1,note_on,53,52,30
1,note_on,61,55,0
1,note_on,61,0,60
1,note_on,53,0,0
1,note_on,65,59,300
1,note_on,65,0,120
1,note_on,56,53,0
1,note_on,59,53,0
1,note_on,65,63,0
1,note_on,65,0,240
1,note_on,63,59,0
1,note_on,63,0,120
1,note_on,59,0,0
1,note_on,56,0,0
1,note_on,57,52,0
1,note_on,60,52,0
1,note_on,63,62,0
1,note_on,63,0,240
1,note_on,60,0,0
1,note_on,60,56,0
1,note_on,60,0,120
1,note_on,57,0,0
1,note_on,58,52,0
1,note_on,61,62,0
1,note_on,61,0,90
1,note_on,58,0,0
1,note_on,60,59,30
1,note_on,60,0,90
1,note_on,58,59,30
1,note_on,58,0,60
1,note_on,65,56,300
1,note_on,65,0,120
1,note_on,56,51,0
1,note_on,59,51,0
1,note_on,65,62,0
1,note_on,65,0,240
1,note_on,63,56,0
1,note_on,63,0,120
1,note_on,59,0,0
1,note_on,56,0,0
1,note_on,60,52,0
1,note_on,57,52,0
1,note_on,63,62,0
1,note_on,63,0,240
1,note_on,60,0,0
1,note_on,60,55,0
1,note_on,60,0,120
1,note_on,57,0,0
1,note_on,61,63,0
1,note_on,61,0,90
1,note_on,60,55,30
1,note_on,60,0,90
1,note_on,58,55,30
1,note_on,58,0,60
1,note_on,62,65,60
1,note_on,66,65,0
1,note_on,71,65,0
1,note_on,74,79,0
1,note_on,74,0,240
1,note_on,62,0,0
1,note_on,66,0,0
1,note_on,71,0,0
1,note_on,62,59,0
1,note_on,74,70,0
1,note_on,74,0,120
1,note_on,62,0,0
1,note_on,66,65,0
1,note_on,61,65,0
1,note_on,73,79,0
1,note_on,73,0,90
1,note_on,61,0,0
1,note_on,62,59,30
1,note_on,74,70,0
1,note_on,74,0,90
1,note_on,62,0,0
1,note_on,59,59,30
1,note_on,71,70,0
1,note_on,71,0,90
1,note_on,59,0,0
1,note_on,66,0,30
1,note_on,66,56,240
1,note_on,78,66,0
1,note_on,78,0,120
1,note_on,66,0,0
1,note_on,66,61,0
1,note_on,71,51,0
1,note_on,78,71,0
1,note_on,78,0,240
1,note_on,66,0,0
1,note_on,68,57,0
1,note_on,80,69,0
1,note_on,80,0,120
1,note_on,68,0,0
1,note_on,66,65,0
1,note_on,78,79,0
1,note_on,78,0,120
1,note_on,66,0,0
1,note_on,64,56,0
1,note_on,76,66,0
1,note_on,76,0,120
1,note_on,64,0,0
1,note_on,62,56,0
1,note_on,74,69,0
1,note_on,74,0,120
1,note_on,62,0,0
1,note_on,71,0,0
1,note_on,61,56,0
1,note_on,73,76,0
1,note_on,73,0,90
1,note_on,61,0,0
1,note_on,62,56,30
1,note_on,74,73,0
1,note_on,74,0,90
1,note_on,62,0,0
1,note_on,59,62,30
1,note_on,71,74,0
1,note_on,71,0,90
1,note_on,59,0,0
1,note_on,62,62,270
1,note_on,74,73,0
1,note_on,74,0,120
1,note_on,62,0,0
1,note_on,66,66,0
1,note_on,71,66,0
1,note_on,62,66,0
1,note_on,74,80,0
1,note_on,74,0,240
1,note_on,62,0,0
1,note_on,61,62,0
1,note_on,73,73,0
1,note_on,73,0,120
1,note_on,66,0,0
1,note_on,71,0,0
1,note_on,61,0,0
1,note_on,60,65,0
1,note_on,63,65,0
1,note_on,68,65,0
1,note_on,66,65,0
1,note_on,72,79,0
1,note_on,72,0,120
1,note_on,68,0,0
1,note_on,60,0,0
1,note_on,63,0,0
1,note_on,66,0,0
1,note_on,54,65,240
1,note_on,58,65,0
1,note_on,60,65,0
1,note_on,60,0,120
1,note_on,58,0,0
1,note_on,54,0,0
1,note_on,56,65,240
1,note_on,60,65,0
1,note_on,66,65,0
1,note_on,68,79,0
1,note_on,68,0,120
1,note_on,56,0,0
1,note_on,60,0,0
1,note_on,66,0,0
1,note_on,68,65,240
1,note_on,72,65,0
1,note_on,80,65,0
1,note_on,78,65,0
1,note_on,78,0,120
1,note_on,68,0,0
1,note_on,72,0,0
1,note_on,80,0,0
1,note_on,92,65,240
1,note_on,90,65,0
1,note_on,84,65,0
1,note_on,80,65,0
1,note_on,80,0,120
1,note_on,92,0,0
1,note_on,90,0,0
1,note_on,84,0,0
1,note_on,102,75,240
1,note_on,104,75,0
1,note_on,99,75,0
1,note_on,92,75,0
1,note_on,92,0,120
1,note_on,102,0,0
1,note_on,104,0,0
1,note_on,99,0,0
1,note_on,66,65,240
1,note_on,58,65,0
1,note_on,70,79,0
1,note_on,70,0,90
1,note_on,58,0,0
1,note_on,60,56,30
1,note_on,72,66,0
1,note_on,72,0,90
1,note_on,60,0,0
1,note_on,56,56,30
1,note_on,68,69,0
1,note_on,68,0,90
1,note_on,56,0,0
1,note_on,66,0,30
1,note_on,74,80,360
1,note_on,78,80,0
1,note_on,83,80,0
1,note_on,86,94,0
1,note_on,86,0,240
1,note_on,74,0,0
1,note_on,78,0,0
1,note_on,83,0,0
1,note_on,74,71,0
1,note_on,86,85,0
1,note_on,86,0,120
1,note_on,74,0,0
1,note_on,78,80,0
1,note_on,73,80,0
1,note_on,85,94,0
1,note_on,85,0,90
1,note_on,73,0,0
1,note_on,74,70,30
1,note_on,86,83,0
1,note_on,86,0,90
1,note_on,74,0,0
1,note_on,71,70,30
1,note_on,83,83,0
1,note_on,83,0,90
1,note_on,71,0,0
1,note_on,78,0,30
1,note_on,78,67,240
1,note_on,90,80,0
1,note_on,90,0,120
1,note_on,78,0,0
1,note_on,78,72,0
1,note_on,83,62,0
1,note_on,90,85,0
1,note_on,90,0,240
1,note_on,78,0,0
1,note_on,80,69,0
1,note_on,92,82,0
1,note_on,92,0,120
1,note_on,80,0,0
1,note_on,78,80,0
1,note_on,90,94,0
1,note_on,90,0,120
1,note_on,78,0,0
1,note_on,76,67,0
1,note_on,88,80,0
1,note_on,88,0,120
1,note_on,76,0,0
1,note_on,74,67,0
1,note_on,86,82,0
1,note_on,86,0,120
1,note_on,74,0,0
1,note_on,83,0,0
1,note_on,78,80,0
1,note_on,73,67,0
1,note_on,85,90,0
1,note_on,85,0,90
1,note_on,73,0,0
1,note_on,74,67,30
1,note_on,86,89,0
1,note_on,86,0,90
1,note_on,74,0,0
1,note_on,71,74,30
1,note_on,83,89,0
1,note_on,83,0,90
1,note_on,71,0,0
1,note_on,78,0,30
1,note_on,74,74,240
1,note_on,86,89,0
1,note_on,86,0,120
1,note_on,74,0,0
1,note_on,78,80,0
1,note_on,83,80,0
1,note_on,74,80,0
1,note_on,86,95,0
1,note_on,86,0,240
1,note_on,74,0,0
1,note_on,73,74,0
1,note_on,85,89,0
1,note_on,85,0,120
1,note_on,78,0,0
1,note_on,83,0,0
1,note_on,73,0,0
1,note_on,84,89,0
1,note_on,80,74,0
1,note_on,78,74,0
1,note_on,72,74,0
1,note_on,75,74,0
1,note_on,75,0,120
1,note_on,78,0,0
1,note_on,84,0,0
1,note_on,80,0,0
1,note_on,72,0,0
1,note_on,60,71,120
1,note_on,72,85,0
1,note_on,72,0,120
1,note_on,60,0,0
1,note_on,63,73,0
1,note_on,66,73,0
1,note_on,58,71,0
1,note_on,70,85,0
1,note_on,70,0,90
1,note_on,58,0,0
1,note_on,60,71,30
1,note_on,72,85,0
1,note_on,72,0,90
1,note_on,60,0,0
1,note_on,56,71,30
1,note_on,68,85,0
1,note_on,68,0,90
1,note_on,56,0,0
1,note_on,66,0,30
1,note_on,63,0,0
1,note_on,80,80,0
1,note_on,78,66,0
1,note_on,75,66,0
1,note_on,68,66,0
1,note_on,68,0,120
1,note_on,80,0,0
1,note_on,78,0,0
1,note_on,75,0,0
1,note_on,92,80,240
1,note_on,90,66,0
1,note_on,84,66,0
1,note_on,80,66,0
1,note_on,80,0,120
1,note_on,92,0,0
1,note_on,90,0,0
1,note_on,84,0,0
1,note_on,102,66,240
1,note_on,104,80,0
1,note_on,96,66,0
1,note_on,92,66,0
1,note_on,92,0,120
1,note_on,102,0,0
1,note_on,104,0,0
1,note_on,96,0,0
1,note_on,90,66,240
1,note_on,92,80,0
1,note_on,87,66,0
1,note_on,80,66,0
1,note_on,80,0,120
1,note_on,90,0,0
1,note_on,92,0,0
1,note_on,87,0,0
1,note_on,78,71,240
1,note_on,70,71,0
1,note_on,82,80,0
1,note_on,82,0,90
1,note_on,70,0,0
1,note_on,72,65,30
1,note_on,84,73,0
1,note_on,84,0,90
1,note_on,72,0,0
1,note_on,68,65,30
1,note_on,80,73,0
1,note_on,80,0,90
1,note_on,68,0,0
1,note_on,78,0,30
1,note_on,57,75,0
1,note_on,57,0,90
1,note_on,59,67,30
1,note_on,59,0,90
1,note_on,56,70,30
1,note_on,56,0,90
1,note_on,60,44,150
1,note_on,63,44,0
1,note_on,66,50,0
1,note_on,72,50,0
1,note_on,72,0,90
1,note_on,60,0,0
1,note_on,63,0,0
1,note_on,66,0,0
1,note_on,60,44,150
1,note_on,63,44,0
1,note_on,66,50,0
1,note_on,72,50,0
1,note_on,72,0,90
1,note_on,60,0,0
1,note_on,63,0,0
1,note_on,66,0,0
1,note_on,60,51,150
1,note_on,63,51,0
1,note_on,66,57,0
1,note_on,72,57,0
1,note_on,72,0,90
1,note_on,60,0,0
1,note_on,63,0,0
1,note_on,66,0,0
1,note_on,75,62,150
1,note_on,66,55,0
1,note_on,63,55,0
1,note_on,63,0,90
1,note_on,66,0,0
1,note_on,75,0,0
1,note_on,60,47,150
1,note_on,63,47,0
1,note_on,66,53,0
1,note_on,72,53,0
1,note_on,72,0,90
1,note_on,60,0,0
1,note_on,63,0,0
1,note_on,66,0,0
1,note_on,60,41,150
1,note_on,63,41,0
1,note_on,66,45,0
1,note_on,72,45,0
1,note_on,72,0,90
1,note_on,60,0,0
1,note_on,63,0,0
1,note_on,66,0,0
1,note_on,58,44,150
1,note_on,61,44,0
1,note_on,65,50,0
1,note_on,70,50,0
1,note_on,70,0,90
1,note_on,58,0,0
1,note_on,61,0,0
1,note_on,65,0,0
1,note_on,61,44,150
1,note_on,65,44,0
1,note_on,68,50,0
1,note_on,73,50,0
1,note_on,73,0,90
1,note_on,61,0,0
1,note_on,65,0,0
1,note_on,68,0,0
1,note_on,61,44,150
1,note_on,65,44,0
1,note_on,68,50,0
1,note_on,73,50,0
1,note_on,73,0,90
1,note_on,61,0,0
1,note_on,65,0,0
1,note_on,68,0,0
1,note_on,67,53,150
1,note_on,70,53,0
1,note_on,64,53,0
1,note_on,58,46,0
1,note_on,58,0,90
1,note_on,67,0,0
1,note_on,70,0,0
1,note_on,64,0,0
1,note_on,61,55,150
1,note_on,64,55,0
1,note_on,67,62,0
1,note_on,73,62,0
1,note_on,73,0,90
1,note_on,61,0,0
1,note_on,64,0,0
1,note_on,67,0,0
1,note_on,58,47,150
1,note_on,64,47,0
1,note_on,67,53,0
1,note_on,70,53,0
1,note_on,70,0,90
1,note_on,58,0,0
1,note_on,64,0,0
1,note_on,67,0,0
1,note_on,60,44,150
1,note_on,63,44,0
1,note_on,66,49,0
1,note_on,72,54,0
1,note_on,72,0,90
1,note_on,60,0,0
1,note_on,63,0,0
1,note_on,66,0,0
1,note_on,60,43,150
1,note_on,63,43,0
1,note_on,66,47,0
1,note_on,72,53,0
1,note_on,72,0,90
1,note_on,60,0,0
1,note_on,63,0,0
1,note_on,66,0,0
1,note_on,60,47,150
1,note_on,63,47,0
1,note_on,66,53,0
1,note_on,72,61,0
1,note_on,72,0,90
1,note_on,60,0,0
1,note_on,63,0,0
1,note_on,66,0,0
1,note_on,75,62,150
1,note_on,66,49,0
1,note_on,63,49,0
1,note_on,63,0,90
1,note_on,66,0,0
1,note_on,75,0,0
1,note_on,60,42,150
1,note_on,63,42,0
1,note_on,66,46,0
1,note_on,72,53,0
1,note_on,72,0,90
1,note_on,60,0,0
1,note_on,63,0,0
1,note_on,66,0,0
1,note_on,60,40,150
1,note_on,63,40,0
1,note_on,66,44,0
1,note_on,72,50,0
1,note_on,72,0,90
1,note_on,60,0,0
1,note_on,63,0,0
1,note_on,66,0,0
1,note_on,58,44,150
1,note_on,61,44,0
1,note_on,65,49,0
1,note_on,70,54,0
1,note_on,70,0,90
1,note_on,58,0,0
1,note_on,61,0,0
1,note_on,65,0,0
1,note_on,61,43,150
1,note_on,65,43,0
1,note_on,68,53,0
1,note_on,73,53,0
1,note_on,73,0,90
1,note_on,61,0,0
1,note_on,65,0,0
1,note_on,68,0,0
1,note_on,61,43,150
1,note_on,65,43,0
1,note_on,68,47,0
1,note_on,73,53,0
1,note_on,73,0,90
1,note_on,61,0,0
1,note_on,65,0,0
1,note_on,68,0,0
1,note_on,64,44,150
1,note_on,67,49,0
1,note_on,70,54,0
1,note_on,58,44,0
1,note_on,58,0,90
1,note_on,64,0,0
1,note_on,67,0,0
1,note_on,70,0,0
1,note_on,61,52,150
1,note_on,65,52,0
1,note_on,73,65,0
1,note_on,73,0,90
1,note_on,65,0,0
1,note_on,61,0,0
1,note_on,58,44,150
1,note_on,66,49,0
1,note_on,70,54,0
1,note_on,70,0,90
1,note_on,66,0,0
1,note_on,58,0,0
1,note_on,65,49,150
1,note_on,68,49,0
1,note_on,71,56,0
1,note_on,77,63,0
1,note_on,77,0,90
1,note_on,65,0,0
1,note_on,68,0,0
1,note_on,71,0,0
1,note_on,77,63,150
1,note_on,65,47,0
1,note_on,68,47,0
1,note_on,71,54,0
1,note_on,71,0,90
1,note_on,77,0,0
1,note_on,65,0,0
1,note_on,68,0,0
1,note_on,65,53,150
1,note_on,68,53,0
1,note_on,71,61,0
1,note_on,77,67,0
1,note_on,77,0,90
1,note_on,65,0,0
1,note_on,68,0,0
1,note_on,71,0,0
1,note_on,80,74,150
1,note_on,71,65,0
1,note_on,68,60,0
1,note_on,68,0,90
1,note_on,71,0,0
1,note_on,80,0,0
1,note_on,65,52,150
1,note_on,68,52,0
1,note_on,71,57,0
1,note_on,77,64,0
1,note_on,77,0,90
1,note_on,65,0,0
1,note_on,68,0,0
1,note_on,71,0,0
1,note_on,65,45,150
1,note_on,68,45,0
1,note_on,71,51,0
1,note_on,77,57,0
1,note_on,77,0,90
1,note_on,65,0,0
1,note_on,68,0,0
1,note_on,71,0,0
1,note_on,63,49,150
1,note_on,66,49,0
1,note_on,70,56,0
1,note_on,75,63,0
1,note_on,75,0,90
1,note_on,63,0,0
1,note_on,66,0,0
1,note_on,70,0,0
1,note_on,66,47,150
1,note_on,70,47,0
1,note_on,73,54,0
1,note_on,78,62,0
1,note_on,78,0,90
1,note_on,66,0,0
1,note_on,70,0,0
1,note_on,73,0,0
1,note_on,66,47,150
1,note_on,70,47,0
1,note_on,73,54,0
1,note_on,78,62,0
1,note_on,78,0,90
1,note_on,66,0,0
1,note_on,70,0,0
1,note_on,73,0,0
1,note_on,66,49,150
1,note_on,70,56,0
1,note_on,75,63,0
1,note_on,63,49,0
1,note_on,63,0,90
1,note_on,66,0,0
1,note_on,70,0,0
1,note_on,75,0,0
1,note_on,66,62,150
1,note_on,70,62,0
1,note_on,78,79,0
1,note_on,78,0,90
1,note_on,70,0,0
1,note_on,66,0,0
1,note_on,66,49,150
1,note_on,63,49,0
1,note_on,70,56,0
1,note_on,75,63,0
1,note_on,75,0,90
1,note_on,66,0,0
1,note_on,63,0,0
1,note_on,70,0,0
1,note_on,67,54,150
1,note_on,70,54,0
1,note_on,73,62,0
1,note_on,79,69,0
1,note_on,79,0,90
1,note_on,67,0,0
1,note_on,70,0,0
1,note_on,73,0,0
1,note_on,79,70,150
1,note_on,67,53,0
1,note_on,70,53,0
1,note_on,73,60,0
1,note_on,73,0,90
1,note_on,79,0,0
1,note_on,67,0,0
1,note_on,70,0,0
1,note_on,67,61,150
1,note_on,70,61,0
1,note_on,73,66,0
1,note_on,79,75,0
1,note_on,79,0,90
1,note_on,67,0,0
1,note_on,70,0,0
1,note_on,73,0,0
1,note_on,82,81,150
1,note_on,73,72,0
1,note_on,70,63,0
1,note_on,70,0,90
1,note_on,73,0,0
1,note_on,82,0,0
1,note_on,67,62,150
1,note_on,70,62,0
1,note_on,73,69,0
1,note_on,79,77,0
1,note_on,79,0,90
1,note_on,67,0,0
1,note_on,70,0,0
1,note_on,73,0,0
1,note_on,67,53,150
1,note_on,70,53,0
1,note_on,73,60,0
1,note_on,79,66,0
1,note_on,79,0,90
1,note_on,67,0,0
1,note_on,70,0,0
1,note_on,73,0,0
1,note_on,65,60,150
1,note_on,70,60,0
1,note_on,73,66,0
1,note_on,77,75,0
1,note_on,77,0,90
1,note_on,65,0,0
1,note_on,70,0,0
1,note_on,73,0,0
1,note_on,68,56,150
1,note_on,70,56,0
1,note_on,73,63,0
1,note_on,80,71,0
1,note_on,80,0,90
1,note_on,68,0,0
1,note_on,70,0,0
1,note_on,73,0,0
1,note_on,68,56,150
1,note_on,70,56,0
1,note_on,73,63,0
1,note_on,80,71,0
1,note_on,80,0,90
1,note_on,68,0,0
1,note_on,70,0,0
1,note_on,73,0,0
1,note_on,70,60,150
1,note_on,73,66,0
1,note_on,77,75,0
1,note_on,66,60,0
1,note_on,66,0,90
1,note_on,70,0,0
1,note_on,73,0,0
1,note_on,77,0,0
1,note_on,70,63,150
1,note_on,68,63,0
1,note_on,73,79,0
1,note_on,80,79,0
1,note_on,80,0,90
1,note_on,70,0,0
1,note_on,68,0,0
1,note_on,73,0,0
1,note_on,70,65,150
1,note_on,65,65,0
1,note_on,73,74,0
1,note_on,77,83,0
1,note_on,77,0,90
1,note_on,70,0,0
1,note_on,65,0,0
1,note_on,73,0,0
1,note_on,75,59,150
1,note_on,79,59,0
1,note_on,82,65,0
1,note_on,87,73,0
1,note_on,87,0,90
1,note_on,75,0,0
1,note_on,79,0,0
1,note_on,82,0,0
1,note_on,75,59,150
1,note_on,79,59,0
1,note_on,82,65,0
1,note_on,87,73,0
1,note_on,87,0,90
1,note_on,75,0,0
1,note_on,79,0,0
1,note_on,82,0,0
1,note_on,75,66,150
1,note_on,79,66,0
1,note_on,82,75,0
1,note_on,87,84,0
1,note_on,87,0,90
1,note_on,75,0,0
1,note_on,79,0,0
1,note_on,82,0,0
1,note_on,85,64,150
1,note_on,90,81,0
1,note_on,82,64,0
1,note_on,78,64,0
1,note_on,78,0,90
1,note_on,85,0,0
1,note_on,90,0,0
1,note_on,82,0,0
1,note_on,75,63,150
1,note_on,79,63,0
1,note_on,82,70,0
1,note_on,87,80,0
1,note_on,87,0,90
1,note_on,75,0,0
1,note_on,79,0,0
1,note_on,82,0,0
1,note_on,75,53,150
1,note_on,79,53,0
1,note_on,82,61,0
1,note_on,87,66,0
1,note_on,87,0,90
1,note_on,75,0,0
1,note_on,79,0,0
1,note_on,82,0,0
1,note_on,73,59,150
1,note_on,78,59,0
1,note_on,82,65,0
1,note_on,85,73,0
1,note_on,85,0,90
1,note_on,73,0,0
1,note_on,78,0,0
1,note_on,82,0,0
1,note_on,76,59,150
1,note_on,82,59,0
1,note_on,85,65,0
1,note_on,88,73,0
1,note_on,88,0,90
1,note_on,76,0,0
1,note_on,82,0,0
1,note_on,85,0,0
1,note_on,76,59,150
1,note_on,82,59,0
1,note_on,85,65,0
1,note_on,88,73,0
1,note_on,88,0,90
1,note_on,76,0,0
1,note_on,82,0,0
1,note_on,85,0,0
1,note_on,82,69,150
1,note_on,85,79,0
1,note_on,78,69,0
1,note_on,73,62,0
1,note_on,73,0,90
1,note_on,82,0,0
1,note_on,85,0,0
1,note_on,78,0,0
1,note_on,76,66,150
1,note_on,82,66,0
1,note_on,85,74,0
1,note_on,88,83,0
1,note_on,88,0,90
1,note_on,76,0,0
1,note_on,82,0,0
1,note_on,85,0,0
1,note_on,73,63,150
1,note_on,78,63,0
1,note_on,82,70,0
1,note_on,85,80,0
1,note_on,85,0,90
1,note_on,73,0,0
1,note_on,78,0,0
1,note_on,82,0,0
1,note_on,75,59,150
1,note_on,79,59,0
1,note_on,82,65,0
1,note_on,87,73,0
1,note_on,87,0,90
1,note_on,75,0,0
1,note_on,79,0,0
1,note_on,82,0,0
1,note_on,75,59,150
1,note_on,79,59,0
1,note_on,82,65,0
1,note_on,87,73,0
1,note_on,87,0,90
1,note_on,75,0,0
1,note_on,79,0,0
1,note_on,82,0,0
1,note_on,75,66,150
1,note_on,79,66,0
1,note_on,82,75,0
1,note_on,87,84,0
1,note_on,87,0,90
1,note_on,75,0,0
1,note_on,79,0,0
1,note_on,82,0,0
1,note_on,85,64,150
1,note_on,90,81,0
1,note_on,82,64,0
1,note_on,78,64,0
1,note_on,78,0,90
1,note_on,85,0,0
1,note_on,90,0,0
1,note_on,82,0,0
1,note_on,75,63,150
1,note_on,79,63,0
1,note_on,82,70,0
1,note_on,87,80,0
1,note_on,87,0,90
1,note_on,75,0,0
1,note_on,79,0,0
1,note_on,82,0,0
1,note_on,75,53,150
1,note_on,79,53,0
1,note_on,82,61,0
1,note_on,87,66,0
1,note_on,87,0,90
1,note_on,75,0,0
1,note_on,79,0,0
1,note_on,82,0,0
1,note_on,73,59,150
1,note_on,78,59,0
1,note_on,82,65,0
1,note_on,85,73,0
1,note_on,85,0,90
1,note_on,73,0,0
1,note_on,78,0,0
1,note_on,82,0,0
1,note_on,76,59,150
1,note_on,82,59,0
1,note_on,85,65,0
1,note_on,88,73,0
1,note_on,88,0,90
1,note_on,76,0,0
1,note_on,82,0,0
1,note_on,85,0,0
1,note_on,76,59,150
1,note_on,82,59,0
1,note_on,85,65,0
1,note_on,88,73,0
1,note_on,88,0,90
1,note_on,76,0,0
1,note_on,82,0,0
1,note_on,85,0,0
1,note_on,82,69,150
1,note_on,85,79,0
1,note_on,78,69,0
1,note_on,73,62,0
1,note_on,73,0,90
1,note_on,82,0,0
1,note_on,85,0,0
1,note_on,78,0,0
1,note_on,76,66,150
1,note_on,82,66,0
1,note_on,85,74,0
1,note_on,88,83,0
1,note_on,88,0,90
1,note_on,76,0,0
1,note_on,82,0,0
1,note_on,85,0,0
1,note_on,73,63,150
1,note_on,78,63,0
1,note_on,82,70,0
1,note_on,85,80,0
1,note_on,85,0,90
1,note_on,73,0,0
1,note_on,78,0,0
1,note_on,82,0,0
1,note_on,83,57,150
1,note_on,90,57,0
1,note_on,93,65,0
1,note_on,95,73,0
1,note_on,95,0,90
1,note_on,83,0,0
1,note_on,90,0,0
1,note_on,93,0,0
1,note_on,83,57,150
1,note_on,90,57,0
1,note_on,93,65,0
1,note_on,95,73,0
1,note_on,95,0,90
1,note_on,83,0,0
1,note_on,90,0,0
1,note_on,93,0,0
1,note_on,83,66,150
1,note_on,90,66,0
1,note_on,93,76,0
1,note_on,95,84,0
1,note_on,95,0,90
1,note_on,83,0,0
1,note_on,90,0,0
1,note_on,93,0,0
1,note_on,93,63,150
1,note_on,98,80,0
1,note_on,90,63,0
1,note_on,86,63,0
1,note_on,86,0,90
1,note_on,93,0,0
1,note_on,98,0,0
1,note_on,90,0,0
1,note_on,83,61,150
1,note_on,90,61,0
1,note_on,93,70,0
1,note_on,95,77,0
1,note_on,95,0,90
1,note_on,83,0,0
1,note_on,90,0,0
1,note_on,93,0,0
1,note_on,83,53,150
1,note_on,90,53,0
1,note_on,93,59,0
1,note_on,95,67,0
1,note_on,95,0,90
1,note_on,83,0,0
1,note_on,90,0,0
1,note_on,93,0,0
1,note_on,69,80,150
1,note_on,72,86,0
1,note_on,72,0,90
1,note_on,69,0,0
1,note_on,81,80,30
1,note_on,77,72,0
1,note_on,77,0,90
1,note_on,81,0,0
1,note_on,81,63,150
1,note_on,93,71,0
1,note_on,84,63,0
1,note_on,84,0,90
1,note_on,93,0,0
1,note_on,81,0,0
1,note_on,77,69,150
1,note_on,81,69,0
1,note_on,89,75,0
1,note_on,89,0,90
1,note_on,81,0,0
1,note_on,77,0,0
1,note_on,72,62,150
1,note_on,77,62,0
1,note_on,84,69,0
1,note_on,84,0,90
1,note_on,77,0,0
1,note_on,72,0,0
1,note_on,69,57,150
1,note_on,72,57,0
1,note_on,81,64,0
1,note_on,81,0,90
1,note_on,69,0,0
1,note_on,77,61,30
1,note_on,77,0,90
1,note_on,72,0,30
1,note_on,71,61,120
1,note_on,78,61,0
1,note_on,81,69,0
1,note_on,83,77,0
1,note_on,83,0,90
1,note_on,71,0,0
1,note_on,78,0,0
1,note_on,81,0,0
1,note_on,71,61,150
1,note_on,78,61,0
1,note_on,81,69,0
1,note_on,83,77,0
1,note_on,83,0,90
1,note_on,71,0,0
1,note_on,78,0,0
1,note_on,81,0,0
1,note_on,71,70,150
1,note_on,78,70,0
1,note_on,81,80,0
1,note_on,83,89,0
1,note_on,83,0,90
1,note_on,71,0,0
1,note_on,78,0,0
1,note_on,81,0,0
1,note_on,81,67,150
1,note_on,86,85,0
1,note_on,78,67,0
1,note_on,74,67,0
1,note_on,74,0,90
1,note_on,81,0,0
1,note_on,86,0,0
1,note_on,78,0,0
1,note_on,71,65,150
1,note_on,78,65,0
1,note_on,81,74,0
1,note_on,83,82,0
1,note_on,83,0,90
1,note_on,71,0,0
1,note_on,78,0,0
1,note_on,81,0,0
1,note_on,71,56,150
1,note_on,78,56,0
1,note_on,81,63,0
1,note_on,83,71,0
1,note_on,83,0,90
1,note_on,71,0,0
1,note_on,78,0,0
1,note_on,81,0,0
1,note_on,69,80,150
1,note_on,72,86,0
1,note_on,72,0,90
1,note_on,69,0,0
1,note_on,81,80,30
1,note_on,77,72,0
1,note_on,77,0,90
1,note_on,81,0,0
1,note_on,69,57,150
1,note_on,81,63,0
1,note_on,72,57,0
1,note_on,72,0,90
1,note_on,81,0,0
1,note_on,69,0,0
1,note_on,65,62,150
1,note_on,69,62,0
1,note_on,77,66,0
1,note_on,77,0,90
1,note_on,69,0,0
1,note_on,65,0,0
1,note_on,60,54,150
1,note_on,65,54,0
1,note_on,72,62,0
1,note_on,72,0,90
1,note_on,65,0,0
1,note_on,60,0,0
1,note_on,57,51,150
1,note_on,60,51,0
1,note_on,69,57,0
1,note_on,69,0,90
1,note_on,57,0,0
1,note_on,65,53,30
1,note_on,65,0,90
1,note_on,60,0,30
1,note_on,59,53,120
1,note_on,66,53,0
1,note_on,69,62,0
1,note_on,71,69,0
1,note_on,71,0,90
1,note_on,59,0,0
1,note_on,66,0,0
1,note_on,69,0,0
1,note_on,59,53,150
1,note_on,66,53,0
1,note_on,69,62,0
1,note_on,71,69,0
1,note_on,71,0,90
1,note_on,59,0,0
1,note_on,66,0,0
1,note_on,69,0,0
1,note_on,59,52,150
1,note_on,66,52,0
1,note_on,69,60,0
1,note_on,71,68,0
1,note_on,71,0,90
1,note_on,59,0,0
1,note_on,66,0,0
1,note_on,69,0,0
1,note_on,69,61,150
1,note_on,74,76,0
1,note_on,66,61,0
1,note_on,62,61,0
1,note_on,62,0,90
1,note_on,69,0,0
1,note_on,74,0,0
1,note_on,66,0,0
1,note_on,59,50,150
1,note_on,66,50,0
1,note_on,69,55,0
1,note_on,71,62,0
1,note_on,71,0,90
1,note_on,59,0,0
1,note_on,66,0,0
1,note_on,69,0,0
1,note_on,59,50,150
1,note_on,66,50,0
1,note_on,69,56,0
1,note_on,71,63,0
1,note_on,71,0,90
1,note_on,59,0,0
1,note_on,66,0,0
1,note_on,69,0,0
1,note_on,69,59,150
1,note_on,69,0,90
1,note_on,68,54,150
1,note_on,69,62,0
1,note_on,69,0,90
1,note_on,68,0,0
1,note_on,69,64,150
1,note_on,67,59,0
1,note_on,67,0,90
1,note_on,69,0,0
1,note_on,66,62,150
1,note_on,69,69,0
1,note_on,69,0,90
1,note_on,66,0,0
1,note_on,65,63,150
1,note_on,66,63,0
1,note_on,69,71,0
1,note_on,69,0,90
1,note_on,66,0,0
1,note_on,65,0,0
1,note_on,64,67,150
1,note_on,66,67,0
1,note_on,69,75,0
1,note_on,69,0,90
1,note_on,66,0,0
1,note_on,64,0,0
1,note_on,63,69,150
1,note_on,66,69,0
1,note_on,69,77,0
1,note_on,69,0,90
1,note_on,66,0,0
1,note_on,63,0,0
1,note_on,64,65,150
1,note_on,66,65,0
1,note_on,69,73,0
1,note_on,69,0,90
1,note_on,66,0,0
1,note_on,64,0,0
1,note_on,63,63,150
1,note_on,66,63,0
1,note_on,69,71,0
1,note_on,69,0,90
1,note_on,66,0,0
1,note_on,63,0,0
1,note_on,62,63,150
1,note_on,66,63,0
1,note_on,69,71,0
1,note_on,69,0,90
1,note_on,66,0,0
1,note_on,62,0,0
1,note_on,61,62,150
1,note_on,66,62,0
1,note_on,69,69,0
1,note_on,69,0,90
1,note_on,66,0,0
1,note_on,61,0,0
1,note_on,60,61,150
1,note_on,66,61,0
1,note_on,69,67,0
1,note_on,69,0,90
1,note_on,66,0,0
1,note_on,60,0,0
1,note_on,59,57,150
1,note_on,63,57,0
1,note_on,66,57,0
1,note_on,69,63,0
1,note_on,69,0,90
1,note_on,59,0,0
1,note_on,63,0,0
1,note_on,66,0,0
1,note_on,59,60,150
1,note_on,63,60,0
1,note_on,66,60,0
1,note_on,69,67,0
1,note_on,69,0,90
1,note_on,59,0,0
1,note_on,63,0,0
1,note_on,66,0,0
1,note_on,59,63,150
1,note_on,63,63,0
1,note_on,66,63,0
1,note_on,69,72,0
1,note_on,69,0,90
1,note_on,59,0,0
1,note_on,63,0,0
1,note_on,66,0,0
1,note_on,59,67,150
1,note_on,63,67,0
1,note_on,66,67,0
1,note_on,69,75,0
1,note_on,69,0,90
1,note_on,59,0,0
1,note_on,63,0,0
1,note_on,66,0,0
1,note_on,59,72,150
1,note_on,63,72,0
1,note_on,66,72,0
1,note_on,69,80,0
1,note_on,69,0,90
1,note_on,59,0,0
1,note_on,63,0,0
1,note_on,66,0,0
1,note_on,59,75,150
1,note_on,63,75,0
1,note_on,66,75,0
1,note_on,69,84,0
1,note_on,69,0,90
1,note_on,59,0,0
1,note_on,63,0,0
1,note_on,66,0,0
1,note_on,60,95,150
1,note_on,60,0,90
1,note_on,63,86,30
1,note_on,70,86,0
1,note_on,66,80,0
1,note_on,66,0,90
1,note_on,70,0,0
1,note_on,63,0,0
1,note_on,72,77,30
1,note_on,75,77,0
1,note_on,78,86,0
1,note_on,82,97,0
1,note_on,82,0,90
1,note_on,72,0,0
1,note_on,75,0,0
1,note_on,78,0,0
1,note_on,70,69,150
1,note_on,66,62,0
1,note_on,66,0,90
1,note_on,70,0,0
1,note_on,66,79,150
1,note_on,63,71,0
1,note_on,63,0,90
1,note_on,66,0,0
1,note_on,66,79,150
1,note_on,70,87,0
1,note_on,70,0,90
1,note_on,73,86,30
1,note_on,73,0,90
1,note_on,66,0,30
1,note_on,68,72,0
1,note_on,72,81,0
1,note_on,72,0,90
1,note_on,68,0,0
1,note_on,61,81,150
1,note_on,65,89,0
1,note_on,65,0,90
1,note_on,61,0,0
1,note_on,73,81,30
1,note_on,68,73,0
1,note_on,68,0,90
1,note_on,73,0,0
1,note_on,68,80,30
1,note_on,72,80,0
1,note_on,77,89,0
1,note_on,80,99,0
1,note_on,80,0,90
1,note_on,68,0,0
1,note_on,72,0,0
1,note_on,77,0,0
1,note_on,63,69,150
1,note_on,66,75,0
1,note_on,66,0,90
1,note_on,63,0,0
1,note_on,66,62,150
1,note_on,70,66,0
1,note_on,70,0,90
1,note_on,66,0,0
1,note_on,65,59,30
1,note_on,68,64,0
1,note_on,68,0,90
1,note_on,65,0,0
1,note_on,73,86,390
1,note_on,73,0,90
1,note_on,73,69,30
1,note_on,78,69,0
1,note_on,82,75,0
1,note_on,82,0,90
1,note_on,78,0,0
1,note_on,73,0,0
1,note_on,82,96,30
1,note_on,85,70,120
1,note_on,90,77,0
1,note_on,94,87,0
1,note_on,94,0,90
1,note_on,90,0,0
1,note_on,85,0,0
1,note_on,82,0,30
1,note_on,70,62,120
1,note_on,82,69,0
1,note_on,73,62,0
1,note_on,73,0,90
1,note_on,82,0,0
1,note_on,70,0,0
1,note_on,66,71,150
1,note_on,78,79,0
1,note_on,70,71,0
1,note_on,70,0,90
1,note_on,78,0,0
1,note_on,66,0,0
1,note_on,73,64,270
1,note_on,82,64,0
1,note_on,85,77,0
1,note_on,85,0,90
1,note_on,82,0,0
1,note_on,73,0,0
1,note_on,72,64,30
1,note_on,80,64,0
1,note_on,84,72,0
1,note_on,84,0,90
1,note_on,80,0,0
1,note_on,72,0,0
1,note_on,68,86,30
1,note_on,68,0,90
1,note_on,73,63,30
1,note_on,77,63,0
1,note_on,80,70,0
1,note_on,80,0,90
1,note_on,77,0,0
1,note_on,73,0,0
1,note_on,80,95,30
1,note_on,89,80,120
1,note_on,85,80,0
1,note_on,92,89,0
1,note_on,92,0,90
1,note_on,85,0,0
1,note_on,89,0,0
1,note_on,80,0,30
1,note_on,66,62,120
1,note_on,75,62,0
1,note_on,78,66,0
1,note_on,78,0,90
1,note_on,75,0,0
1,note_on,66,0,0
1,note_on,78,69,150
1,note_on,82,75,0
1,note_on,82,0,90
1,note_on,78,0,0
1,note_on,77,65,30
1,note_on,80,72,0
1,note_on,80,0,90
1,note_on,77,0,0
1,note_on,66,77,510
1,note_on,70,77,0
1,note_on,78,86,0
1,note_on,75,86,0
1,note_on,75,0,90
1,note_on,66,0,0
1,note_on,70,0,0
1,note_on,78,0,0
1,note_on,80,81,30
1,note_on,68,81,0
1,note_on,68,0,240
1,note_on,80,0,0
1,note_on,81,94,0
1,note_on,78,94,0
1,note_on,75,83,0
1,note_on,69,83,0
1,note_on,69,0,90
1,note_on,81,0,0
1,note_on,78,0,0
1,note_on,75,0,0
1,note_on,82,86,30
1,note_on,70,77,0
1,note_on,70,0,90
1,note_on,82,0,0
1,note_on,87,103,30
1,note_on,78,92,0
1,note_on,75,92,0
1,note_on,75,0,90
1,note_on,78,0,0
1,note_on,87,0,0
1,note_on,86,87,30
1,note_on,74,79,0
1,note_on,74,0,90
1,note_on,86,0,0
1,note_on,85,95,30
1,note_on,73,84,0
1,note_on,73,0,90
1,note_on,85,0,0
1,note_on,72,76,30
1,note_on,84,85,0
1,note_on,84,0,90
1,note_on,72,0,0
1,note_on,71,79,30
1,note_on,83,87,0
1,note_on,83,0,90
1,note_on,71,0,0
1,note_on,82,87,30
1,note_on,70,79,0
1,note_on,70,0,90
1,note_on,82,0,0
1,note_on,81,86,30
1,note_on,77,86,0
1,note_on,69,77,0
1,note_on,69,0,90
1,note_on,77,0,0
1,note_on,81,0,0
1,note_on,80,79,30
1,note_on,68,71,0
1,note_on,68,0,90
1,note_on,80,0,0
1,note_on,73,79,30
1,note_on,85,87,0
1,note_on,85,0,240
1,note_on,73,0,0
1,note_on,84,73,0
1,note_on,78,73,0
1,note_on,72,66,0
1,note_on,83,77,120
1,note_on,71,69,0
1,note_on,71,0,90
1,note_on,83,0,0
1,note_on,84,0,30
1,note_on,78,0,0
1,note_on,72,0,0
1,note_on,82,72,0
1,note_on,77,72,0
1,note_on,70,64,0
1,note_on,70,0,90
1,note_on,77,0,0
1,note_on,82,0,0
1,note_on,80,70,30
1,note_on,68,62,0
1,note_on,68,0,90
1,note_on,80,0,0
1,note_on,82,64,30
1,note_on,70,59,0
1,note_on,70,0,90
1,note_on,82,0,0
1,note_on,77,70,30
1,note_on,74,70,0
1,note_on,68,63,0
1,note_on,65,63,0
1,note_on,65,0,360
1,note_on,77,0,0
1,note_on,74,0,0
1,note_on,68,0,0
1,note_on,78,77,120
1,note_on,82,77,0
1,note_on,90,86,0
1,note_on,87,86,0
1,note_on,87,0,90
1,note_on,78,0,0
1,note_on,82,0,0
1,note_on,90,0,0
1,note_on,92,81,30
1,note_on,80,72,0
1,note_on,80,0,240
1,note_on,92,0,0
1,note_on,93,93,0
1,note_on,90,93,0
1,note_on,87,79,0
1,note_on,81,79,0
1,note_on,81,0,90
1,note_on,93,0,0
1,note_on,90,0,0
1,note_on,87,0,0
1,note_on,94,86,30
1,note_on,82,77,0
1,note_on,82,0,90
1,note_on,94,0,0
1,note_on,99,94,30
1,note_on,91,84,0
1,note_on,87,84,0
1,note_on,87,0,90
1,note_on,91,0,0
1,note_on,99,0,0
1,note_on,98,87,30
1,note_on,86,79,0
1,note_on,86,0,90
1,note_on,98,0,0
1,note_on,97,95,30
1,note_on,85,84,0
1,note_on,85,0,90
1,note_on,97,0,0
1,note_on,84,80,30
1,note_on,96,89,0
1,note_on,96,0,90
1,note_on,84,0,0
1,note_on,83,81,30
1,note_on,95,90,0
1,note_on,95,0,90
1,note_on,83,0,0
1,note_on,94,87,30
1,note_on,82,79,0
1,note_on,82,0,90
1,note_on,94,0,0
1,note_on,93,90,30
1,note_on,88,90,0
1,note_on,81,81,0
1,note_on,81,0,90
1,note_on,88,0,0
1,note_on,93,0,0
1,note_on,92,81,30
1,note_on,80,72,0
1,note_on,80,0,90
1,note_on,92,0,0
1,note_on,85,79,30
1,note_on,97,87,0
1,note_on,97,0,240
1,note_on,85,0,0
1,note_on,95,70,0
1,note_on,87,70,0
1,note_on,83,62,0
1,note_on,93,79,120
1,note_on,81,70,0
1,note_on,81,0,90
1,note_on,93,0,0
1,note_on,95,0,30
1,note_on,87,0,0
1,note_on,83,0,0
1,note_on,92,73,0
1,note_on,88,73,0
1,note_on,80,66,0
1,note_on,80,0,90
1,note_on,88,0,0
1,note_on,92,0,0
1,note_on,90,71,30
1,note_on,78,63,0
1,note_on,78,0,90
1,note_on,90,0,0
1,note_on,92,67,30
1,note_on,80,60,0
1,note_on,80,0,90
1,note_on,92,0,0
1,note_on,88,67,30
1,note_on,80,61,0
1,note_on,76,61,0
1,note_on,76,0,360
1,note_on,80,0,0
1,note_on,88,0,0
1,note_on,61,63,120
1,note_on,64,72,0
1,note_on,64,0,90
1,note_on,61,0,0
1,note_on,73,65,30
1,note_on,69,59,0
1,note_on,69,0,90
1,note_on,73,0,0
1,note_on,72,61,150
1,note_on,68,53,0
1,note_on,68,0,90
1,note_on,72,0,0
1,note_on,69,47,30
1,note_on,73,54,0
1,note_on,73,0,90
1,note_on,69,0,0
1,note_on,66,55,150
1,note_on,69,63,0
1,note_on,69,0,90
1,note_on,66,0,0
1,note_on,69,66,150
1,note_on,73,75,0
1,note_on,73,0,90
1,note_on,76,72,30
1,note_on,76,0,90
1,note_on,69,0,30
1,note_on,71,61,0
1,note_on,75,66,0
1,note_on,75,0,90
1,note_on,71,0,0
1,note_on,59,61,150
1,note_on,68,66,0
1,note_on,68,0,90
1,note_on,59,0,0
1,note_on,71,62,30
1,note_on,68,53,0
1,note_on,68,0,90
1,note_on,71,0,0
1,note_on,64,56,150
1,note_on,68,63,0
1,note_on,68,0,90
1,note_on,64,0,0
1,note_on,66,52,30
1,note_on,69,57,0
1,note_on,69,0,90
1,note_on,66,0,0
1,note_on,69,52,150
1,note_on,73,57,0
1,note_on,73,0,90
1,note_on,69,0,0
1,note_on,71,54,30
1,note_on,68,47,0
1,note_on,68,0,90
1,note_on,71,0,0
1,note_on,73,40,510
1,note_on,76,44,0
1,note_on,76,0,90
1,note_on,73,0,0
1,note_on,85,41,30
1,note_on,81,41,0
1,note_on,81,0,90
1,note_on,85,0,0
1,note_on,84,36,150
1,note_on,80,32,0
1,note_on,80,0,90
1,note_on,84,0,0
1,note_on,81,29,30
1,note_on,85,33,0
1,note_on,85,0,90
1,note_on,81,0,0
1,note_on,78,34,150
1,note_on,81,37,0
1,note_on,81,0,90
1,note_on,78,0,0
1,note_on,81,45,150
1,note_on,85,45,0
1,note_on,85,0,90
1,note_on,88,44,30
1,note_on,88,0,90
1,note_on,81,0,30
1,note_on,83,42,0
1,note_on,87,42,0
1,note_on,87,0,90
1,note_on,83,0,0
1,note_on,71,36,150
1,note_on,76,42,0
1,note_on,76,0,90
1,note_on,71,0,0
1,note_on,83,36,30
1,note_on,80,33,0
1,note_on,80,0,90
1,note_on,83,0,0
1,note_on,76,35,150
1,note_on,80,40,0
1,note_on,80,0,90
1,note_on,76,0,0
1,note_on,78,31,30
1,note_on,81,35,0
1,note_on,81,0,90
1,note_on,78,0,0
1,note_on,81,31,150
1,note_on,85,35,0
1,note_on,85,0,90
1,note_on,81,0,0
1,note_on,80,29,30
1,note_on,83,33,0
1,note_on,83,0,90
1,note_on,80,0,0
1,note_on,69,69,510
1,note_on,73,69,0
1,note_on,81,77,0
1,note_on,78,77,0
1,note_on,78,0,90
1,note_on,69,0,0
1,note_on,73,0,0
1,note_on,81,0,0
1,note_on,83,81,30
1,note_on,71,81,0
1,note_on,71,0,240
1,note_on,83,0,0
1,note_on,84,89,0
1,note_on,81,89,0
1,note_on,78,80,0
1,note_on,72,80,0
1,note_on,72,0,90
1,note_on,84,0,0
1,note_on,81,0,0
1,note_on,78,0,0
1,note_on,85,86,30
1,note_on,73,77,0
1,note_on,73,0,90
1,note_on,85,0,0
1,note_on,90,97,30
1,note_on,81,87,0
1,note_on,78,87,0
1,note_on,78,0,90
1,note_on,81,0,0
1,note_on,90,0,0
1,note_on,89,87,30
1,note_on,77,79,0
1,note_on,77,0,90
1,note_on,89,0,0
1,note_on,88,95,30
1,note_on,76,84,0
1,note_on,76,0,90
1,note_on,88,0,0
1,note_on,75,76,30
1,note_on,87,85,0
1,note_on,87,0,90
1,note_on,75,0,0
1,note_on,74,79,30
1,note_on,86,87,0
1,note_on,86,0,90
1,note_on,74,0,0
1,note_on,85,87,30
1,note_on,73,79,0
1,note_on,73,0,90
1,note_on,85,0,0
1,note_on,84,86,30
1,note_on,80,86,0
1,note_on,72,77,0
1,note_on,72,0,90
1,note_on,80,0,0
1,note_on,84,0,0
1,note_on,83,79,30
1,note_on,71,71,0
1,note_on,71,0,90
1,note_on,83,0,0
1,note_on,76,79,30
1,note_on,88,87,0
1,note_on,88,0,240
1,note_on,76,0,0
1,note_on,87,73,0
1,note_on,81,73,0
1,note_on,75,66,0
1,note_on,74,77,120
1,note_on,86,77,0
1,note_on,86,0,90
1,note_on,74,0,0
1,note_on,87,0,30
1,note_on,81,0,0
1,note_on,75,0,0
1,note_on,85,72,0
1,note_on,80,72,0
1,note_on,73,64,0
1,note_on,73,0,90
1,note_on,80,0,0
1,note_on,85,0,0
1,note_on,83,70,30
1,note_on,71,62,0
1,note_on,71,0,90
1,note_on,83,0,0
1,note_on,85,64,30
1,note_on,73,59,0
1,note_on,73,0,90
1,note_on,85,0,0
1,note_on,80,70,30
1,note_on,77,70,0
1,note_on,71,63,0
1,note_on,68,63,0
1,note_on,68,0,360
1,note_on,80,0,0
1,note_on,77,0,0
1,note_on,71,0,0
1,note_on,81,64,120
1,note_on,85,64,0
1,note_on,93,73,0
1,note_on,90,73,0
1,note_on,90,0,90
1,note_on,81,0,0
1,note_on,85,0,0
1,note_on,93,0,0
1,note_on,95,76,30
1,note_on,83,76,0
1,note_on,83,0,240
1,note_on,95,0,0
1,note_on,96,83,0
1,note_on,93,83,0
1,note_on,90,74,0
1,note_on,84,74,0
1,note_on,84,0,90
1,note_on,96,0,0
1,note_on,93,0,0
1,note_on,90,0,0
1,note_on,97,76,30
1,note_on,85,67,0
1,note_on,85,0,90
1,note_on,97,0,0
1,note_on,102,84,30
1,note_on,93,77,0
1,note_on,90,77,0
1,note_on,90,0,90
1,note_on,93,0,0
1,note_on,102,0,0
1,note_on,101,80,30
1,note_on,89,74,0
1,note_on,89,0,90
1,note_on,101,0,0
1,note_on,88,80,30
1,note_on,100,87,0
1,note_on,100,0,90
1,note_on,88,0,0
1,note_on,87,72,30
1,note_on,99,81,0
1,note_on,99,0,90
1,note_on,87,0,0
1,note_on,86,74,30
1,note_on,98,82,0
1,note_on,98,0,90
1,note_on,86,0,0
1,note_on,97,82,30
1,note_on,85,74,0
1,note_on,85,0,90
1,note_on,97,0,0
1,note_on,96,81,30
1,note_on,92,81,0
1,note_on,84,73,0
1,note_on,84,0,90
1,note_on,92,0,0
1,note_on,96,0,0
1,note_on,95,74,30
1,note_on,83,66,0
1,note_on,83,0,90
1,note_on,95,0,0
1,note_on,88,74,30
1,note_on,100,82,0
1,note_on,100,0,240
1,note_on,88,0,0
1,note_on,99,70,0
1,note_on,93,70,0
1,note_on,87,63,0
1,note_on,86,73,120
1,note_on,98,73,0
1,note_on,98,0,90
1,note_on,86,0,0
1,note_on,99,0,30
1,note_on,93,0,0
1,note_on,87,0,0
1,note_on,97,67,0
1,note_on,92,67,0
1,note_on,85,61,0
1,note_on,85,0,90
1,note_on,92,0,0
1,note_on,97,0,0
1,note_on,95,65,30
1,note_on,83,57,0
1,note_on,83,0,90
1,note_on,95,0,0
1,note_on,97,61,30
1,note_on,85,55,0
1,note_on,85,0,90
1,note_on,97,0,0
1,note_on,92,57,30
1,note_on,89,57,0
1,note_on,83,54,0
1,note_on,80,54,0
1,note_on,80,0,360
1,note_on,92,0,0
1,note_on,89,0,0
1,note_on,83,0,0
1,note_on,44,47,0
1,note_on,44,0,90
1,note_on,54,47,30
1,note_on,49,47,0
1,note_on,49,0,90
1,note_on,54,0,0
1,note_on,53,47,30
1,note_on,53,0,90
1,note_on,57,54,30
1,note_on,54,54,0
1,note_on,54,0,90
1,note_on,57,0,0
1,note_on,56,52,30
1,note_on,56,0,90
1,note_on,57,52,30
1,note_on,61,52,0
1,note_on,61,0,90
1,note_on,57,0,0
1,note_on,59,52,30
1,note_on,59,0,90
1,note_on,60,46,30
1,note_on,63,60,0
1,note_on,63,0,90
1,note_on,60,0,0
1,note_on,58,41,30
1,note_on,61,52,0
1,note_on,61,0,90
1,note_on,58,0,0
1,note_on,56,41,30
1,note_on,60,52,0
1,note_on,60,0,90
1,note_on,56,0,0
1,note_on,55,52,30
1,note_on,55,0,90
1,note_on,54,51,30
1,note_on,58,51,0
1,note_on,58,0,90
1,note_on,54,0,0
1,note_on,52,51,30
1,note_on,52,0,90
1,note_on,53,47,30
1,note_on,56,47,0
1,note_on,56,0,90
1,note_on,53,0,0
1,note_on,55,47,30
1,note_on,55,0,90
1,note_on,56,56,30
1,note_on,60,56,0
1,note_on,60,0,90
1,note_on,56,0,0
1,note_on,59,53,30
1,note_on,59,0,90
1,note_on,60,53,30
1,note_on,63,53,0
1,note_on,63,0,90
1,note_on,60,0,0
1,note_on,60,52,30
1,note_on,60,0,90
1,note_on,61,46,30
1,note_on,65,60,0
1,note_on,65,0,90
1,note_on,61,0,0
1,note_on,60,44,30
1,note_on,63,55,0
1,note_on,63,0,90
1,note_on,60,0,0
1,note_on,58,45,30
1,note_on,61,57,0
1,note_on,61,0,90
1,note_on,58,0,0
1,note_on,57,53,30
1,note_on,57,0,90
1,note_on,56,53,30
1,note_on,60,53,0
1,note_on,60,0,90
1,note_on,56,0,0
1,note_on,53,51,30
1,note_on,53,0,90
1,note_on,54,47,30
1,note_on,58,47,0
1,note_on,58,0,90
1,note_on,54,0,0
1,note_on,57,47,30
1,note_on,57,0,90
1,note_on,58,54,30
1,note_on,61,54,0
1,note_on,61,0,90
1,note_on,58,0,0
1,note_on,60,52,30
1,note_on,60,0,90
1,note_on,65,52,30
1,note_on,61,52,0
1,note_on,61,0,90
1,note_on,65,0,0
1,note_on,62,52,30
1,note_on,62,0,90
1,note_on,66,60,30
1,note_on,63,46,0
1,note_on,63,0,90
1,note_on,66,0,0
1,note_on,65,52,30
1,note_on,61,41,0
1,note_on,61,0,90
1,note_on,65,0,0
1,note_on,63,52,30
1,note_on,60,41,0
1,note_on,60,0,90
1,note_on,63,0,0
1,note_on,59,52,30
1,note_on,59,0,90
1,note_on,61,51,30
1,note_on,58,51,0
1,note_on,58,0,90
1,note_on,61,0,0
1,note_on,64,52,30
1,note_on,64,0,90
1,note_on,68,60,30
1,note_on,65,46,0
1,note_on,65,0,90
1,note_on,68,0,0
1,note_on,66,52,30
1,note_on,63,41,0
1,note_on,63,0,90
1,note_on,66,0,0
1,note_on,65,52,30
1,note_on,61,41,0
1,note_on,61,0,90
1,note_on,65,0,0
1,note_on,59,52,30
1,note_on,59,0,90
1,note_on,63,51,30
1,note_on,60,51,0
1,note_on,60,0,90
1,note_on,63,0,0
1,note_on,65,52,30
1,note_on,65,0,90
1,note_on,70,60,30
1,note_on,66,46,0
1,note_on,66,0,90
1,note_on,70,0,0
1,note_on,68,52,30
1,note_on,65,41,0
1,note_on,65,0,90
1,note_on,68,0,0
1,note_on,66,52,30
1,note_on,63,41,0
1,note_on,63,0,90
1,note_on,66,0,0
1,note_on,62,52,30
1,note_on,62,0,90
1,note_on,65,51,30
1,note_on,61,51,0
1,note_on,61,0,90
1,note_on,65,0,0
1,note_on,62,53,30
1,note_on,62,0,90
1,note_on,66,50,30
1,note_on,62,50,0
1,note_on,62,0,90
1,note_on,66,0,0
1,note_on,65,50,30
1,note_on,65,0,90
1,note_on,69,57,30
1,note_on,66,57,0
1,note_on,66,0,90
1,note_on,69,0,0
1,note_on,68,53,30
1,note_on,68,0,90
1,note_on,70,54,30
1,note_on,74,54,0
1,note_on,74,0,90
1,note_on,70,0,0
1,note_on,73,54,30
1,note_on,73,0,90
1,note_on,74,50,30
1,note_on,78,63,0
1,note_on,78,0,90
1,note_on,74,0,0
1,note_on,73,44,30
1,note_on,76,54,0
1,note_on,76,0,90
1,note_on,73,0,0
1,note_on,71,44,30
1,note_on,74,54,0
1,note_on,74,0,90
1,note_on,71,0,0
1,note_on,70,55,30
1,note_on,70,0,90
1,note_on,69,54,30
1,note_on,73,54,0
1,note_on,73,0,90
1,note_on,69,0,0
1,note_on,67,59,30
1,note_on,67,0,90
1,note_on,68,54,30
1,note_on,71,54,0
1,note_on,71,0,90
1,note_on,68,0,0
1,note_on,70,54,30
1,note_on,70,0,90
1,note_on,71,65,30
1,note_on,74,65,0
1,note_on,74,0,90
1,note_on,71,0,0
1,note_on,73,62,30
1,note_on,73,0,90
1,note_on,74,62,30
1,note_on,78,62,0
1,note_on,78,0,90
1,note_on,74,0,0
1,note_on,76,61,30
1,note_on,76,0,90
1,note_on,77,54,30
1,note_on,80,69,0
1,note_on,80,0,90
1,note_on,77,0,0
1,note_on,74,52,30
1,note_on,78,65,0
1,note_on,78,0,90
1,note_on,74,0,0
1,note_on,73,53,30
1,note_on,77,67,0
1,note_on,73,0,90
1,note_on,72,63,30
1,note_on,72,0,90
1,note_on,77,0,30
1,note_on,71,62,0
1,note_on,74,62,0
1,note_on,74,0,90
1,note_on,71,0,0
1,note_on,68,59,30
1,note_on,68,0,90
1,note_on,69,61,30
1,note_on,73,61,0
1,note_on,73,0,90
1,note_on,69,0,0
1,note_on,72,61,30
1,note_on,72,0,90
1,note_on,73,72,30
1,note_on,78,72,0
1,note_on,78,0,90
1,note_on,73,0,0
1,note_on,77,66,30
1,note_on,77,0,90
1,note_on,78,67,30
1,note_on,81,67,0
1,note_on,81,0,90
1,note_on,78,0,0
1,note_on,73,63,30
1,note_on,73,0,90
1,note_on,74,61,30
1,note_on,78,61,0
1,note_on,78,0,90
1,note_on,74,0,0
1,note_on,77,61,30
1,note_on,77,0,90
1,note_on,78,72,30
1,note_on,83,72,0
1,note_on,83,0,90
1,note_on,78,0,0
1,note_on,82,66,30
1,note_on,82,0,90
1,note_on,83,67,30
1,note_on,86,67,0
1,note_on,86,0,90
1,note_on,83,0,0
1,note_on,79,62,30
1,note_on,79,0,90
1,note_on,80,63,30
1,note_on,83,63,0
1,note_on,83,0,90
1,note_on,80,0,0
1,note_on,82,63,30
1,note_on,82,0,90
1,note_on,83,75,30
1,note_on,86,75,0
1,note_on,86,0,90
1,note_on,83,0,0
1,note_on,85,70,30
1,note_on,85,0,90
1,note_on,86,71,30
1,note_on,90,71,0
1,note_on,90,0,90
1,note_on,86,0,0
1,note_on,83,71,30
1,note_on,83,0,90
1,note_on,87,65,30
1,note_on,84,65,0
1,note_on,92,65,0
1,note_on,92,0,90
1,note_on,84,0,0
1,note_on,87,0,0
1,note_on,86,65,30
1,note_on,86,0,90
1,note_on,90,74,30
1,note_on,87,74,0
1,note_on,96,74,0
1,note_on,96,0,90
1,note_on,87,0,0
1,note_on,90,0,0
1,note_on,89,70,30
1,note_on,89,0,90
1,note_on,96,71,30
1,note_on,90,71,0
1,note_on,99,74,0
1,note_on,99,0,90
1,note_on,90,0,0
1,note_on,96,0,0
1,note_on,101,101,30
1,note_on,97,93,0
1,note_on,89,93,0
1,note_on,89,0,240
1,note_on,97,0,0
1,note_on,101,0,0
1,note_on,65,82,0
1,note_on,68,82,0
1,note_on,77,104,0
1,note_on,77,0,240
1,note_on,75,99,0
1,note_on,75,0,90
1,note_on,77,93,30
1,note_on,77,0,90
1,note_on,68,0,30
1,note_on,65,0,0
1,note_on,65,69,0
1,note_on,68,69,0
1,note_on,73,93,0
1,note_on,73,0,240
1,note_on,68,0,0
1,note_on,65,0,0
1,note_on,61,93,0
1,note_on,61,0,240
1,note_on,68,90,0
1,note_on,73,90,0
1,note_on,80,101,0
1,note_on,80,0,480
1,note_on,73,0,0
1,note_on,68,0,0
1,note_on,70,85,0
1,note_on,73,85,0
1,note_on,82,95,0
1,note_on,82,0,240
1,note_on,73,0,0
1,note_on,70,0,0
1,note_on,73,83,0
1,note_on,80,83,0
1,note_on,68,74,0
1,note_on,68,0,90
1,note_on,80,0,0
1,note_on,79,73,30
1,note_on,67,65,0
1,note_on,67,0,90
1,note_on,79,0,0
1,note_on,77,72,150
1,note_on,65,72,0
1,note_on,65,0,90
1,note_on,77,0,0
1,note_on,73,0,30
1,note_on,75,73,120
1,note_on,63,66,0
1,note_on,63,0,90
1,note_on,75,0,0
1,note_on,73,71,150
1,note_on,61,63,0
1,note_on,61,0,90
1,note_on,73,0,0
1,note_on,65,83,270
1,note_on,77,93,0
1,note_on,77,0,480
1,note_on,65,0,0
1,note_on,66,79,0
1,note_on,75,87,0
1,note_on,75,0,240
1,note_on,66,0,0
1,note_on,66,80,0
1,note_on,75,89,0
1,note_on,75,0,90
1,note_on,74,79,30
1,note_on,74,0,90
1,note_on,73,79,30
1,note_on,73,0,90
1,note_on,72,74,30
1,note_on,72,0,90
1,note_on,66,0,30
1,note_on,65,70,0
1,note_on,73,80,0
1,note_on,73,0,90
1,note_on,72,70,30
1,note_on,72,0,90
1,note_on,65,0,30
1,note_on,70,71,0
1,note_on,70,0,240
1,note_on,65,65,240
1,note_on,68,79,0
1,note_on,68,0,480
1,note_on,65,0,0
1,note_on,69,76,0
1,note_on,69,0,240
1,note_on,65,62,0
1,note_on,69,80,0
1,note_on,69,0,120
1,note_on,70,74,0
1,note_on,70,0,120
1,note_on,71,74,0
1,note_on,71,0,120
1,note_on,72,74,0
1,note_on,72,0,120
1,note_on,65,0,0
1,note_on,65,70,0
1,note_on,70,81,0
1,note_on,70,0,120
1,note_on,72,74,0
1,note_on,72,0,120
1,note_on,65,0,0
1,note_on,73,74,0
1,note_on,73,0,120
1,note_on,77,74,0
1,note_on,77,0,120
1,note_on,82,82,0
1,note_on,82,0,120
1,note_on,84,76,0
1,note_on,84,0,120
1,note_on,85,76,0
1,note_on,85,0,120
1,note_on,89,76,0
1,note_on,89,0,120
1,note_on,94,82,0
1,note_on,94,0,120
1,note_on,96,79,0
1,note_on,96,0,120
1,note_on,97,79,0
1,note_on,97,0,120
1,note_on,101,79,0
1,note_on,101,0,120
1,note_on,60,62,180
1,note_on,65,65,30
1,note_on,72,69,30
1,note_on,72,0,240
1,note_on,65,0,0
1,note_on,60,0,0
1,note_on,75,65,120
1,note_on,72,65,0
1,note_on,69,59,0
1,note_on,65,59,0
1,note_on,65,0,120
1,note_on,75,0,0
1,note_on,72,0,0
1,note_on,69,0,0
1,note_on,79,64,120
1,note_on,67,57,0
1,note_on,67,0,120
1,note_on,79,0,0
1,note_on,64,56,0
1,note_on,67,56,0
1,note_on,70,63,0
1,note_on,76,63,0
1,note_on,76,0,120
1,note_on,64,0,0
1,note_on,67,0,0
1,note_on,70,0,0
1,note_on,62,52,120
1,note_on,67,52,0
1,note_on,70,59,0
1,note_on,74,59,0
1,note_on,74,0,120
1,note_on,62,0,0
1,note_on,67,0,0
1,note_on,70,0,0
1,note_on,70,62,120
1,note_on,74,71,0
1,note_on,70,0,80
1,note_on,67,62,0
1,note_on,67,0,80
1,note_on,62,62,0
1,note_on,62,0,80
1,note_on,74,0,240
1,note_on,60,65,240
1,note_on,60,0,80
1,note_on,65,59,0
1,note_on,65,0,80
1,note_on,72,59,0
1,note_on,69,59,0
1,note_on,69,0,80
1,note_on,72,0,0
1,note_on,89,57,120
1,note_on,84,57,0
1,note_on,81,57,0
1,note_on,77,57,0
1,note_on,77,0,120
1,note_on,89,0,0
1,note_on,84,0,0
1,note_on,81,0,0
1,note_on,91,62,120
1,note_on,79,62,0
1,note_on,79,0,120
1,note_on,91,0,0
1,note_on,88,69,0
1,note_on,82,69,0
1,note_on,79,62,0
1,note_on,76,62,0
1,note_on,76,0,120
1,note_on,88,0,0
1,note_on,82,0,0
1,note_on,79,0,0
1,note_on,86,57,120
1,note_on,82,51,0
1,note_on,79,57,0
1,note_on,74,51,0
1,note_on,74,0,120
1,note_on,86,0,0
1,note_on,82,0,0
1,note_on,79,0,0
1,note_on,82,64,120
1,note_on,86,72,0
1,note_on,82,0,80
1,note_on,79,57,0
1,note_on,79,0,80
1,note_on,74,57,0
1,note_on,74,0,80
1,note_on,72,54,210
1,note_on,81,57,15
1,note_on,86,0,15
1,note_on,84,63,0
1,note_on,84,0,240
1,note_on,81,0,0
1,note_on,72,0,0
1,note_on,93,93,0
1,note_on,89,93,0
1,note_on,84,82,0
1,note_on,81,82,0
1,note_on,81,0,120
1,note_on,93,0,0
1,note_on,89,0,0
1,note_on,84,0,0
1,note_on,91,87,120
1,note_on,79,79,0
1,note_on,79,0,120
1,note_on,91,0,0
1,note_on,89,86,120
1,note_on,77,77,0
1,note_on,77,0,120
1,note_on,89,0,0
1,note_on,86,85,120
1,note_on,74,76,0
1,note_on,74,0,120
1,note_on,86,0,0
1,note_on,84,85,120
1,note_on,72,76,0
1,note_on,72,0,120
1,note_on,84,0,0
1,note_on,81,84,120
1,note_on,69,75,0
1,note_on,69,0,120
1,note_on,81,0,0
1,note_on,79,83,120
1,note_on,67,74,0
1,note_on,67,0,120
1,note_on,79,0,0
1,note_on,65,74,120
1,note_on,77,83,0
1,note_on,77,0,120
1,note_on,65,0,0
1,note_on,62,74,120
1,note_on,74,82,0
1,note_on,74,0,120
1,note_on,62,0,0
1,note_on,60,73,120
1,note_on,72,81,0
1,note_on,72,0,120
1,note_on,60,0,0
1,note_on,57,72,120
1,note_on,69,81,0
1,note_on,69,0,120
1,note_on,57,0,0
1,note_on,55,77,120
1,note_on,67,86,0
1,note_on,67,0,120
1,note_on,55,0,0
1,note_on,53,55,60
1,note_on,65,63,0
1,note_on,65,0,60
1,note_on,53,0,0
1,note_on,55,56,0
1,note_on,67,63,0
1,note_on,67,0,60
1,note_on,55,0,0
1,note_on,57,56,0
1,note_on,69,63,0
1,note_on,69,0,60
1,note_on,57,0,0
1,note_on,59,57,0
1,note_on,71,63,0
1,note_on,71,0,60
1,note_on,59,0,0
1,note_on,60,59,0
1,note_on,72,65,0
1,note_on,72,0,60
1,note_on,60,0,0
1,note_on,62,59,0
1,note_on,74,66,0
1,note_on,74,0,60
1,note_on,62,0,0
1,note_on,64,59,0
1,note_on,76,66,0
1,note_on,76,0,60
1,note_on,64,0,0
1,note_on,65,60,0
1,note_on,77,67,0
1,note_on,77,0,60
1,note_on,65,0,0
1,note_on,67,61,0
1,note_on,79,69,0
1,note_on,79,0,60
1,note_on,67,0,0
1,note_on,69,62,0
1,note_on,81,70,0
1,note_on,81,0,60
1,note_on,69,0,0
1,note_on,71,62,0
1,note_on,83,71,0
1,note_on,83,0,60
1,note_on,71,0,0
1,note_on,72,62,0
1,note_on,84,71,0
1,note_on,84,0,60
1,note_on,72,0,0
1,note_on,74,63,0
1,note_on,86,71,0
1,note_on,86,0,60
1,note_on,74,0,0
1,note_on,88,71,0
1,note_on,76,63,0
1,note_on,76,0,60
1,note_on,88,0,0
1,note_on,89,72,0
1,note_on,77,63,0
1,note_on,77,0,60
1,note_on,89,0,0
1,note_on,91,72,0
1,note_on,79,65,0
1,note_on,79,0,60
1,note_on,91,0,0
1,note_on,93,72,0
1,note_on,81,65,0
1,note_on,81,0,60
1,note_on,93,0,0
1,note_on,95,73,0
1,note_on,83,66,0
1,note_on,83,0,60
1,note_on,95,0,0
1,note_on,96,74,0
1,note_on,84,66,0
1,note_on,84,0,60
1,note_on,96,0,0
1,note_on,98,75,0
1,note_on,86,67,0
1,note_on,86,0,60
1,note_on,98,0,0
1,note_on,100,76,0
1,note_on,88,69,0
1,note_on,88,0,60
1,note_on,100,0,0
1,note_on,101,93,0
1,note_on,89,87,0
1,note_on,89,0,240
1,note_on,101,0,0
1,note_on,80,89,0
1,note_on,85,89,0
1,note_on,89,99,0
1,note_on,77,89,0
1,note_on,77,0,240
1,note_on,80,0,0
1,note_on,85,0,0
1,note_on,89,0,0
1,note_on,87,94,0
1,note_on,75,83,0
1,note_on,75,0,90
1,note_on,87,0,0
1,note_on,89,89,30
1,note_on,77,79,0
1,note_on,77,0,90
1,note_on,89,0,0
1,note_on,85,89,30
1,note_on,73,79,0
1,note_on,73,0,240
1,note_on,85,0,0
1,note_on,61,89,0
1,note_on,61,0,240
1,note_on,80,88,0
1,note_on,85,88,0
1,note_on,89,88,0
1,note_on,92,97,0
1,note_on,92,0,480
1,note_on,80,0,0
1,note_on,85,0,0
1,note_on,89,0,0
1,note_on,82,80,0
1,note_on,85,80,0
1,note_on,89,80,0
1,note_on,94,91,0
1,note_on,94,0,240
1,note_on,82,0,0
1,note_on,85,0,0
1,note_on,89,0,0
1,note_on,85,77,0
1,note_on,89,84,0
1,note_on,80,77,0
1,note_on,92,84,0
1,note_on,92,0,120
1,note_on,85,0,0
1,note_on,89,0,0
1,note_on,80,0,0
1,note_on,79,77,0
1,note_on,91,84,0
1,note_on,91,0,120
1,note_on,79,0,0
1,note_on,78,75,0
1,note_on,90,83,0
1,note_on,90,0,120
1,note_on,78,0,0
1,note_on,77,73,0
1,note_on,89,82,0
1,note_on,89,0,120
1,note_on,77,0,0
1,note_on,76,72,0
1,note_on,88,81,0
1,note_on,88,0,120
1,note_on,76,0,0
1,note_on,75,72,0
1,note_on,87,80,0
1,note_on,87,0,120
1,note_on,75,0,0
1,note_on,74,71,0
1,note_on,86,79,0
1,note_on,86,0,120
1,note_on,74,0,0
1,note_on,73,69,0
1,note_on,85,79,0
1,note_on,85,0,120
1,note_on,73,0,0
1,note_on,89,97,240
1,note_on,77,88,0
1,note_on,80,88,0
1,note_on,80,0,480
1,note_on,77,0,0
1,note_on,89,0,0
1,note_on,75,89,0
1,note_on,78,89,0
1,note_on,87,100,0
1,note_on,87,0,240
1,note_on,78,0,0
1,note_on,75,0,0
1,note_on,75,80,0
1,note_on,87,91,0
1,note_on,87,0,120
1,note_on,75,0,0
1,note_on,74,75,0
1,note_on,86,83,0
1,note_on,86,0,120
1,note_on,74,0,0
1,note_on,73,77,0
1,note_on,85,84,0
1,note_on,85,0,120
1,note_on,73,0,0
1,note_on,72,69,0
1,note_on,84,78,0
1,note_on,84,0,120
1,note_on,72,0,0
1,note_on,73,75,0
1,note_on,85,83,0
1,note_on,85,0,120
1,note_on,73,0,0
1,note_on,72,69,0
1,note_on,84,78,0
1,note_on,84,0,120
1,note_on,72,0,0
1,note_on,71,69,0
1,note_on,83,78,0
1,note_on,83,0,120
1,note_on,71,0,0
1,note_on,70,69,0
1,note_on,82,78,0
1,note_on,82,0,120
1,note_on,70,0,0
1,note_on,77,83,240
1,note_on,80,93,0
1,note_on,68,83,0
1,note_on,73,83,0
1,note_on,73,0,480
1,note_on,77,0,0
1,note_on,80,0,0
1,note_on,68,0,0
1,note_on,78,78,0
1,note_on,69,78,0
1,note_on,72,78,0
1,note_on,81,88,0
1,note_on,81,0,240
1,note_on,78,0,0
1,note_on,69,0,0
1,note_on,72,0,0
1,note_on,78,80,0
1,note_on,72,80,0
1,note_on,69,80,0
1,note_on,81,91,0
1,note_on,81,0,120
1,note_on,78,0,0
1,note_on,72,0,0
1,note_on,69,0,0
1,note_on,70,75,0
1,note_on,82,83,0
1,note_on,82,0,120
1,note_on,70,0,0
1,note_on,71,77,0
1,note_on,83,84,0
1,note_on,83,0,120
1,note_on,71,0,0
1,note_on,72,69,0
1,note_on,84,78,0
1,note_on,84,0,120
1,note_on,72,0,0
1,note_on,77,75,0
1,note_on,70,75,0
1,note_on,82,83,0
1,note_on,82,0,120
1,note_on,70,0,0
1,note_on,77,0,0
1,note_on,72,69,0
1,note_on,84,78,0
1,note_on,84,0,120
1,note_on,72,0,0
1,note_on,73,69,0
1,note_on,85,78,0
1,note_on,85,0,120
1,note_on,73,0,0
1,note_on,77,69,0
1,note_on,89,78,0
1,note_on,89,0,120
1,note_on,77,0,0
1,note_on,80,92,240
1,note_on,89,92,0
1,note_on,92,92,0
1,note_on,92,0,240
1,note_on,89,0,0
1,note_on,80,0,0
1,note_on,82,100,0
1,note_on,88,100,0
1,note_on,94,100,0
1,note_on,94,0,480
1,note_on,88,0,0
1,note_on,82,0,0
1,note_on,83,95,0
1,note_on,88,95,0
1,note_on,95,95,0
1,note_on,95,0,120
1,note_on,88,0,0
1,note_on,83,0,0
1,note_on,59,61,60
1,note_on,64,63,30
1,note_on,71,72,30
1,note_on,71,0,240
1,note_on,64,0,0
1,note_on,59,0,0
1,note_on,75,65,120
1,note_on,71,65,0
1,note_on,68,59,0
1,note_on,64,59,0
1,note_on,64,0,120
1,note_on,75,0,0
1,note_on,71,0,0
1,note_on,68,0,0
1,note_on,78,64,120
1,note_on,66,57,0
1,note_on,66,0,120
1,note_on,78,0,0
1,note_on,63,56,0
1,note_on,66,56,0
1,note_on,69,63,0
1,note_on,75,63,0
1,note_on,75,0,120
1,note_on,63,0,0
1,note_on,66,0,0
1,note_on,69,0,0
1,note_on,61,52,120
1,note_on,66,52,0
1,note_on,69,59,0
1,note_on,73,59,0
1,note_on,73,0,120
1,note_on,61,0,0
1,note_on,66,0,0
1,note_on,69,0,0
1,note_on,69,62,120
1,note_on,73,71,0
1,note_on,69,0,80
1,note_on,66,62,0
1,note_on,66,0,80
1,note_on,61,62,0
1,note_on,61,0,80
1,note_on,73,0,240
1,note_on,59,65,240
1,note_on,59,0,80
1,note_on,64,59,0
1,note_on,64,0,80
1,note_on,71,59,0
1,note_on,68,59,0
1,note_on,68,0,80
1,note_on,71,0,0
1,note_on,88,57,120
1,note_on,83,57,0
1,note_on,80,57,0
1,note_on,76,57,0
1,note_on,76,0,120
1,note_on,88,0,0
1,note_on,83,0,0
1,note_on,80,0,0
1,note_on,90,62,120
1,note_on,78,62,0
1,note_on,78,0,120
1,note_on,90,0,0
1,note_on,87,69,0
1,note_on,81,69,0
1,note_on,78,62,0
1,note_on,75,62,0
1,note_on,75,0,120
1,note_on,87,0,0
1,note_on,81,0,0
1,note_on,78,0,0
1,note_on,85,57,120
1,note_on,81,51,0
1,note_on,78,57,0
1,note_on,73,51,0
1,note_on,73,0,120
1,note_on,85,0,0
1,note_on,81,0,0
1,note_on,78,0,0
1,note_on,82,64,120
1,note_on,85,72,0
1,note_on,82,0,60
1,note_on,76,61,0
1,note_on,76,0,60
1,note_on,73,63,0
1,note_on,73,0,60
1,note_on,85,0,300
1,note_on,44,76,240
1,note_on,44,0,120
1,note_on,49,59,0
1,note_on,56,67,0
1,note_on,56,0,120
1,note_on,49,0,0
1,note_on,61,59,120
1,note_on,56,52,0
1,note_on,53,52,0
1,note_on,49,52,0
1,note_on,49,0,120
1,note_on,61,0,0
1,note_on,56,0,0
1,note_on,53,0,0
1,note_on,63,56,120
1,note_on,51,56,0
1,note_on,51,0,120
1,note_on,63,0,0
1,note_on,60,75,0
1,note_on,54,56,0
1,note_on,51,56,0
1,note_on,48,56,0
1,note_on,48,0,120
1,note_on,60,0,0
1,note_on,54,0,0
1,note_on,51,0,0
1,note_on,58,70,120
1,note_on,46,47,0
1,note_on,46,0,120
1,note_on,58,0,0
1,note_on,52,63,120
1,note_on,58,85,0
1,note_on,52,0,120
1,note_on,46,59,0
1,note_on,46,0,120
1,note_on,58,0,240
1,note_on,50,76,240
1,note_on,50,0,120
1,note_on,58,59,0
1,note_on,65,67,0
1,note_on,65,0,120
1,note_on,58,0,0
1,note_on,70,63,120
1,note_on,65,52,0
1,note_on,62,52,0
1,note_on,58,52,0
1,note_on,58,0,120
1,note_on,70,0,0
1,note_on,65,0,0
1,note_on,62,0,0
1,note_on,72,59,120
1,note_on,60,56,0
1,note_on,60,0,120
1,note_on,72,0,0
1,note_on,69,75,0
1,note_on,63,56,0
1,note_on,60,56,0
1,note_on,57,56,0
1,note_on,57,0,120
1,note_on,69,0,0
1,note_on,63,0,0
1,note_on,60,0,0
1,note_on,67,70,120
1,note_on,55,47,0
1,note_on,55,0,120
1,note_on,67,0,0
1,note_on,61,63,120
1,note_on,67,76,0
1,note_on,61,0,120
1,note_on,52,59,0
1,note_on,52,0,120
1,note_on,67,0,240
1,note_on,53,76,240
1,note_on,53,0,120
1,note_on,61,59,0
1,note_on,68,67,0
1,note_on,68,0,120
1,note_on,61,0,0
1,note_on,73,63,120
1,note_on,68,52,0
1,note_on,65,52,0
1,note_on,61,52,0
1,note_on,61,0,120
1,note_on,73,0,0
1,note_on,68,0,0
1,note_on,65,0,0
1,note_on,75,59,120
1,note_on,63,56,0
1,note_on,63,0,120
1,note_on,75,0,0
1,note_on,72,75,0
1,note_on,66,56,0
1,note_on,63,56,0
1,note_on,60,56,0
1,note_on,60,0,120
1,note_on,72,0,0
1,note_on,66,0,0
1,note_on,63,0,0
1,note_on,70,70,120
1,note_on,58,47,0
1,note_on,58,0,120
1,note_on,70,0,0
1,note_on,64,63,120
1,note_on,70,85,0
1,note_on,64,0,120
1,note_on,58,59,0
1,note_on,58,0,120
1,note_on,70,0,240
1,note_on,62,80,240
1,note_on,62,0,120
1,note_on,70,62,0
1,note_on,77,70,0
1,note_on,77,0,120
1,note_on,70,0,0
1,note_on,70,57,120
1,note_on,77,57,0
1,note_on,74,57,0
1,note_on,82,67,0
1,note_on,82,0,120
1,note_on,70,0,0
1,note_on,77,0,0
1,note_on,74,0,0
1,note_on,84,61,120
1,note_on,72,58,0
1,note_on,72,0,120
1,note_on,84,0,0
1,note_on,81,81,0
1,note_on,75,60,0
1,note_on,72,60,0
1,note_on,69,60,0
1,note_on,69,0,120
1,note_on,81,0,0
1,note_on,75,0,0
1,note_on,72,0,0
1,note_on,79,75,120
1,note_on,67,49,0
1,note_on,67,0,120
1,note_on,79,0,0
1,note_on,73,67,120
1,note_on,79,90,0
1,note_on,73,0,120
1,note_on,64,61,0
1,note_on,64,0,120
1,note_on,79,0,240
1,note_on,65,89,240
1,note_on,65,0,120
1,note_on,73,69,0
1,note_on,80,77,0
1,note_on,80,0,120
1,note_on,73,0,0
1,note_on,73,62,120
1,note_on,85,69,0
1,note_on,85,0,120
1,note_on,73,0,0
1,note_on,87,65,120
1,note_on,75,65,0
1,note_on,75,0,120
1,note_on,87,0,0
1,note_on,84,85,0
1,note_on,78,67,0
1,note_on,75,67,0
1,note_on,72,67,0
1,note_on,72,0,120
1,note_on,84,0,0
1,note_on,78,0,0
1,note_on,75,0,0
1,note_on,82,76,120
1,note_on,70,54,0
1,note_on,70,0,120
1,note_on,82,0,0
1,note_on,86,85,120
1,note_on,80,67,0
1,note_on,77,67,0
1,note_on,74,67,0
1,note_on,74,0,120
1,note_on,86,0,0
1,note_on,80,0,0
1,note_on,77,0,0
1,note_on,85,77,120
1,note_on,73,56,0
1,note_on,73,0,120
1,note_on,85,0,0
1,note_on,88,87,120
1,note_on,82,69,0
1,note_on,79,69,0
1,note_on,76,69,0
1,note_on,76,0,120
1,note_on,88,0,0
1,note_on,82,0,0
1,note_on,79,0,0
1,note_on,87,79,120
1,note_on,75,57,0
1,note_on,75,0,120
1,note_on,87,0,0
1,note_on,89,89,120
1,note_on,83,70,0
1,note_on,80,70,0
1,note_on,77,70,0
1,note_on,77,0,120
1,note_on,89,0,0
1,note_on,83,0,0
1,note_on,80,0,0
1,note_on,87,80,120
1,note_on,75,57,0
1,note_on,75,0,120
1,note_on,87,0,0
1,note_on,81,71,120
1,note_on,85,71,0
1,note_on,87,71,0
1,note_on,93,90,0
1,note_on,93,0,120
1,note_on,81,0,0
1,note_on,85,0,0
1,note_on,87,0,0
1,note_on,80,58,120
1,note_on,92,81,0
1,note_on,92,0,120
1,note_on,80,0,0
1,note_on,78,58,0
1,note_on,90,66,0
1,note_on,90,0,120
1,note_on,78,0,0
1,note_on,84,73,0
1,note_on,87,73,0
1,note_on,90,73,0
1,note_on,96,92,0
1,note_on,96,0,120
1,note_on,84,0,0
1,note_on,87,0,0
1,note_on,90,0,0
1,note_on,82,59,120
1,note_on,94,84,0
1,note_on,94,0,120
1,note_on,82,0,0
1,note_on,80,59,0
1,note_on,92,84,0
1,note_on,92,0,120
1,note_on,80,0,0
1,note_on,85,70,0
1,note_on,89,70,0
1,note_on,97,100,0
1,note_on,97,0,240
1,note_on,89,0,0
1,note_on,85,0,0
1,note_on,56,61,0
1,note_on,61,61,0
1,note_on,61,0,90
1,note_on,56,0,0
1,note_on,56,54,30
1,note_on,61,54,0
1,note_on,61,0,90
1,note_on,56,0,0
1,note_on,56,61,270
1,note_on,61,61,0
1,note_on,61,0,90
1,note_on,56,0,0
1,note_on,56,56,30
1,note_on,61,56,0
1,note_on,61,0,90
1,note_on,56,0,0
1,note_on,59,61,270
1,note_on,61,61,0
1,note_on,61,0,90
1,note_on,59,0,0
1,note_on,59,56,30
1,note_on,61,56,0
1,note_on,61,0,90
1,note_on,59,0,0
1,note_on,57,61,270
1,note_on,61,61,0
1,note_on,61,0,90
1,note_on,57,0,0
1,note_on,57,56,30
1,note_on,61,56,0
1,note_on,61,0,90
1,note_on,57,0,0
1,note_on,54,61,150
1,note_on,59,61,0
1,note_on,59,0,90
1,note_on,54,0,0
1,note_on,52,56,30
1,note_on,59,56,0
1,note_on,59,0,90
1,note_on,52,0,0
1,note_on,57,56,270
1,note_on,59,56,0
1,note_on,59,0,90
1,note_on,57,0,0
1,note_on,56,62,30
1,note_on,59,62,0
1,note_on,59,0,90
1,note_on,56,0,0
1,note_on,54,56,270
1,note_on,59,56,0
1,note_on,59,0,90
1,note_on,54,0,0
1,note_on,56,61,30
1,note_on,59,61,0
1,note_on,59,0,90
1,note_on,56,0,0
1,note_on,57,61,270
1,note_on,59,61,0
1,note_on,59,0,90
1,note_on,57,0,0
1,note_on,69,84,150
1,note_on,81,95,0
1,note_on,75,84,0
1,note_on,75,0,90
1,note_on,81,0,0
1,note_on,69,0,0
1,note_on,73,84,30
1,note_on,77,84,0
1,note_on,85,95,0
1,note_on,85,0,240
1,note_on,77,0,0
1,note_on,73,0,0
1,note_on,56,61,0
1,note_on,61,61,0
1,note_on,61,0,90
1,note_on,56,0,0
1,note_on,56,54,30
1,note_on,61,54,0
1,note_on,61,0,90
1,note_on,56,0,0
1,note_on,56,61,270
1,note_on,61,61,0
1,note_on,61,0,90
1,note_on,56,0,0
1,note_on,56,56,30
1,note_on,61,56,0
1,note_on,61,0,90
1,note_on,56,0,0
1,note_on,59,61,270
1,note_on,61,61,0
1,note_on,61,0,90
1,note_on,59,0,0
1,note_on,59,56,30
1,note_on,61,56,0
1,note_on,61,0,90
1,note_on,59,0,0
1,note_on,57,61,270
1,note_on,61,61,0
1,note_on,61,0,90
1,note_on,57,0,0
1,note_on,57,56,30
1,note_on,61,56,0
1,note_on,61,0,90
1,note_on,57,0,0
1,note_on,54,61,150
1,note_on,57,61,0
1,note_on,57,0,90
1,note_on,54,0,0
1,note_on,52,56,30
1,note_on,57,56,0
1,note_on,57,0,90
1,note_on,52,0,0
1,note_on,55,56,270
1,note_on,57,56,0
1,note_on,57,0,90
1,note_on,55,0,0
1,note_on,54,62,30
1,note_on,57,62,0
1,note_on,57,0,90
1,note_on,54,0,0
1,note_on,52,56,270
1,note_on,57,56,0
1,note_on,57,0,90
1,note_on,52,0,0
1,note_on,54,61,30
1,note_on,57,61,0
1,note_on,57,0,90
1,note_on,54,0,0
1,note_on,55,61,270
1,note_on,57,61,0
1,note_on,57,0,90
1,note_on,55,0,0
1,note_on,57,84,150
1,note_on,69,95,0
1,note_on,69,0,90
1,note_on,57,0,0
1,note_on,66,84,30
1,note_on,69,84,0
1,note_on,74,84,0
1,note_on,78,95,0
1,note_on,78,0,240
1,note_on,66,0,0
1,note_on,69,0,0
1,note_on,74,0,0
1,note_on,62,61,0
1,note_on,69,61,0
1,note_on,69,0,90
1,note_on,62,0,0
1,note_on,62,54,30
1,note_on,69,54,0
1,note_on,69,0,90
1,note_on,62,0,0
1,note_on,62,61,270
1,note_on,69,61,0
1,note_on,69,0,90
1,note_on,62,0,0
1,note_on,62,56,30
1,note_on,69,56,0
1,note_on,69,0,90
1,note_on,62,0,0
1,note_on,66,61,270
1,note_on,69,61,0
1,note_on,69,0,90
1,note_on,66,0,0
1,note_on,66,56,30
1,note_on,69,56,0
1,note_on,69,0,90
1,note_on,66,0,0
1,note_on,66,61,270
1,note_on,61,61,0
1,note_on,69,61,0
1,note_on,69,0,90
1,note_on,61,0,0
1,note_on,66,0,0
1,note_on,66,56,30
1,note_on,61,56,0
1,note_on,69,56,0
1,note_on,69,0,90
1,note_on,61,0,0
1,note_on,66,0,0
1,note_on,71,84,30
1,note_on,74,84,0
1,note_on,79,84,0
1,note_on,83,95,0
1,note_on,83,0,240
1,note_on,71,0,0
1,note_on,74,0,0
1,note_on,79,0,0
1,note_on,67,61,0
1,note_on,74,61,0
1,note_on,74,0,90
1,note_on,67,0,0
1,note_on,67,54,30
1,note_on,74,54,0
1,note_on,74,0,90
1,note_on,67,0,0
1,note_on,67,61,270
1,note_on,74,61,0
1,note_on,74,0,90
1,note_on,67,0,0
1,note_on,67,56,30
1,note_on,74,56,0
1,note_on,74,0,90
1,note_on,67,0,0
1,note_on,71,61,270
1,note_on,74,61,0
1,note_on,74,0,90
1,note_on,71,0,0
1,note_on,71,56,30
1,note_on,74,56,0
1,note_on,74,0,90
1,note_on,71,0,0
1,note_on,71,61,270
1,note_on,66,61,0
1,note_on,74,61,0
1,note_on,74,0,240
1,note_on,66,0,0
1,note_on,71,0,0
1,note_on,53,65,0
1,note_on,65,65,0
1,note_on,59,62,120
1,note_on,61,62,0
1,note_on,61,0,120
1,note_on,59,0,0
1,note_on,65,0,120
1,note_on,53,0,0
1,note_on,54,63,0
1,note_on,66,63,0
1,note_on,66,0,120
1,note_on,54,0,0
1,note_on,67,67,0
1,note_on,55,67,0
1,note_on,61,63,120
1,note_on,65,63,0
1,note_on,65,0,120
1,note_on,61,0,0
1,note_on,55,0,120
1,note_on,67,0,0
1,note_on,56,66,0
1,note_on,68,66,0
1,note_on,68,0,120
1,note_on,56,0,0
1,note_on,57,72,0
1,note_on,69,72,0
1,note_on,61,66,120
1,note_on,66,66,0
1,note_on,66,0,120
1,note_on,61,0,0
1,note_on,69,0,120
1,note_on,57,0,0
1,note_on,59,71,0
1,note_on,71,71,0
1,note_on,71,0,120
1,note_on,59,0,0
1,note_on,60,76,0
1,note_on,72,76,0
1,note_on,66,67,120
1,note_on,70,67,0
1,note_on,70,0,120
1,note_on,66,0,0
1,note_on,72,0,120
1,note_on,60,0,0
1,note_on,61,74,0
1,note_on,73,74,0
1,note_on,73,0,120
1,note_on,61,0,0
1,note_on,62,80,0
1,note_on,74,80,0
1,note_on,69,72,120
1,note_on,66,72,0
1,note_on,66,0,120
1,note_on,69,0,0
1,note_on,74,0,120
1,note_on,62,0,0
1,note_on,64,76,0
1,note_on,76,76,0
1,note_on,76,0,120
1,note_on,64,0,0
1,note_on,65,84,0
1,note_on,77,84,0
1,note_on,69,75,120
1,note_on,72,75,0
1,note_on,72,0,120
1,note_on,69,0,0
1,note_on,77,0,120
1,note_on,65,0,0
1,note_on,66,81,0
1,note_on,78,81,0
1,note_on,78,0,120
1,note_on,66,0,0
1,note_on,68,87,0
1,note_on,80,87,0
1,note_on,75,80,120
1,note_on,78,80,0
1,note_on,78,0,120
1,note_on,75,0,0
1,note_on,80,0,120
1,note_on,68,0,0
1,note_on,70,85,0
1,note_on,82,85,0
1,note_on,82,0,120
1,note_on,70,0,0
1,note_on,71,92,0
1,note_on,83,92,0
1,note_on,75,84,120
1,note_on,78,84,0
1,note_on,78,0,120
1,note_on,75,0,0
1,note_on,83,0,120
1,note_on,71,0,0
1,note_on,72,90,0
1,note_on,84,90,0
1,note_on,84,0,120
1,note_on,72,0,0
1,note_on,73,96,0
1,note_on,77,96,0
1,note_on,85,106,0
1,note_on,85,0,240
1,note_on,77,0,0
1,note_on,73,0,0
1,note_on,73,50,120
1,note_on,68,50,0
1,note_on,61,50,0
1,note_on,61,0,120
1,note_on,68,0,0
1,note_on,73,0,0
1,note_on,71,51,120
1,note_on,68,51,0
1,note_on,59,51,0
1,note_on,59,0,120
1,note_on,68,0,0
1,note_on,71,0,0
1,note_on,73,52,120
1,note_on,68,52,0
1,note_on,61,52,0
1,note_on,61,0,120
1,note_on,68,0,0
1,note_on,73,0,0
1,note_on,74,55,120
1,note_on,66,55,0
1,note_on,62,55,0
1,note_on,62,0,120
1,note_on,66,0,0
1,note_on,74,0,0
1,note_on,76,53,120
1,note_on,64,53,0
1,note_on,66,53,0
1,note_on,66,0,120
1,note_on,64,0,0
1,note_on,76,0,0
1,note_on,73,53,120
1,note_on,66,53,0
1,note_on,61,53,0
1,note_on,61,0,120
1,note_on,66,0,0
1,note_on,73,0,0
1,note_on,74,51,120
1,note_on,66,51,0
1,note_on,62,51,0
1,note_on,62,0,120
1,note_on,66,0,0
1,note_on,74,0,0
1,note_on,71,55,120
1,note_on,64,55,0
1,note_on,59,55,0
1,note_on,59,0,120
1,note_on,64,0,0
1,note_on,71,0,0
1,note_on,69,51,0
1,note_on,64,51,0
1,note_on,57,51,0
1,note_on,57,0,120
1,note_on,64,0,0
1,note_on,69,0,0
1,note_on,62,55,240
1,note_on,64,55,0
1,note_on,74,55,0
1,note_on,74,0,120
1,note_on,64,0,0
1,note_on,62,0,0
1,note_on,73,51,0
1,note_on,64,51,0
1,note_on,61,51,0
1,note_on,61,0,120
1,note_on,64,0,0
1,note_on,73,0,0
1,note_on,59,52,240
1,note_on,64,52,0
1,note_on,71,52,0
1,note_on,71,0,120
1,note_on,64,0,0
1,note_on,59,0,0
1,note_on,61,49,0
1,note_on,64,49,0
1,note_on,73,49,0
1,note_on,73,0,120
1,note_on,64,0,0
1,note_on,61,0,0
1,note_on,62,55,240
1,note_on,64,55,0
1,note_on,74,55,0
1,note_on,74,0,120
1,note_on,64,0,0
1,note_on,62,0,0
1,note_on,68,73,120
1,note_on,78,73,0
1,note_on,80,73,0
1,note_on,80,0,120
1,note_on,78,0,0
1,note_on,68,0,0
1,note_on,73,84,0
1,note_on,77,84,0
1,note_on,85,95,0
1,note_on,85,0,240
1,note_on,77,0,0
1,note_on,73,0,0
1,note_on,73,50,120
1,note_on,68,50,0
1,note_on,61,50,0
1,note_on,61,0,120
1,note_on,68,0,0
1,note_on,73,0,0
1,note_on,71,51,120
1,note_on,68,51,0
1,note_on,59,51,0
1,note_on,59,0,120
1,note_on,68,0,0
1,note_on,71,0,0
1,note_on,73,52,120
1,note_on,68,52,0
1,note_on,61,52,0
1,note_on,61,0,120
1,note_on,68,0,0
1,note_on,73,0,0
1,note_on,74,55,120
1,note_on,66,55,0
1,note_on,62,55,0
1,note_on,62,0,120
1,note_on,66,0,0
1,note_on,74,0,0
1,note_on,76,53,120
1,note_on,64,53,0
1,note_on,66,53,0
1,note_on,66,0,120
1,note_on,64,0,0
1,note_on,76,0,0
1,note_on,73,53,120
1,note_on,66,53,0
1,note_on,61,53,0
1,note_on,61,0,120
1,note_on,66,0,0
1,note_on,73,0,0
1,note_on,74,51,120
1,note_on,66,51,0
1,note_on,62,51,0
1,note_on,62,0,120
1,note_on,66,0,0
1,note_on,74,0,0
1,note_on,71,55,120
1,note_on,64,55,0
1,note_on,59,55,0
1,note_on,59,0,120
1,note_on,64,0,0
1,note_on,71,0,0
1,note_on,69,51,0
1,note_on,64,51,0
1,note_on,57,51,0
1,note_on,57,0,120
1,note_on,64,0,0
1,note_on,69,0,0
1,note_on,60,55,240
1,note_on,64,55,0
1,note_on,72,55,0
1,note_on,72,0,120
1,note_on,64,0,0
1,note_on,60,0,0
1,note_on,71,51,0
1,note_on,64,51,0
1,note_on,59,51,0
1,note_on,59,0,120
1,note_on,64,0,0
1,note_on,71,0,0
1,note_on,57,52,240
1,note_on,64,52,0
1,note_on,69,52,0
1,note_on,69,0,120
1,note_on,64,0,0
1,note_on,57,0,0
1,note_on,59,49,0
1,note_on,64,49,0
1,note_on,71,49,0
1,note_on,71,0,120
1,note_on,64,0,0
1,note_on,59,0,0
1,note_on,60,55,240
1,note_on,62,55,0
1,note_on,72,55,0
1,note_on,72,0,120
1,note_on,62,0,0
1,note_on,60,0,0
1,note_on,66,73,120
1,note_on,62,73,0
1,note_on,72,73,0
1,note_on,74,73,0
1,note_on,74,0,120
1,note_on,66,0,0
1,note_on,62,0,0
1,note_on,72,0,0
1,note_on,71,84,0
1,note_on,74,84,0
1,note_on,79,84,0
1,note_on,83,95,0
1,note_on,83,0,240
1,note_on,71,0,0
1,note_on,74,0,0
1,note_on,79,0,0
1,note_on,67,61,0
1,note_on,74,61,0
1,note_on,74,0,90
1,note_on,67,0,0
1,note_on,67,54,30
1,note_on,74,54,0
1,note_on,74,0,90
1,note_on,67,0,0
1,note_on,67,61,270
1,note_on,74,61,0
1,note_on,74,0,90
1,note_on,67,0,0
1,note_on,67,56,30
1,note_on,74,56,0
1,note_on,74,0,90
1,note_on,67,0,0
1,note_on,71,61,270
1,note_on,74,61,0
1,note_on,74,0,90
1,note_on,71,0,0
1,note_on,71,56,30
1,note_on,74,56,0
1,note_on,74,0,90
1,note_on,71,0,0
1,note_on,71,61,270
1,note_on,66,61,0
1,note_on,74,61,0
1,note_on,74,0,90
1,note_on,66,0,0
1,note_on,71,0,0
1,note_on,71,56,30
1,note_on,66,56,0
1,note_on,74,56,0
1,note_on,74,0,90
1,note_on,66,0,0
1,note_on,71,0,0
1,note_on,76,84,30
1,note_on,79,84,0
1,note_on,84,84,0
1,note_on,88,95,0
1,note_on,88,0,240
1,note_on,76,0,0
1,note_on,79,0,0
1,note_on,84,0,0
1,note_on,72,61,0
1,note_on,79,61,0
1,note_on,79,0,90
1,note_on,72,0,0
1,note_on,72,54,30
1,note_on,79,54,0
1,note_on,79,0,90
1,note_on,72,0,0
1,note_on,72,61,270
1,note_on,79,61,0
1,note_on,79,0,90
1,note_on,72,0,0
1,note_on,72,56,30
1,note_on,79,56,0
1,note_on,79,0,90
1,note_on,72,0,0
1,note_on,76,61,270
1,note_on,79,61,0
1,note_on,79,0,90
1,note_on,76,0,0
1,note_on,76,56,30
1,note_on,79,56,0
1,note_on,79,0,90
1,note_on,76,0,0
1,note_on,76,61,270
1,note_on,71,61,0
1,note_on,79,61,0
1,note_on,79,0,240
1,note_on,71,0,0
1,note_on,76,0,0
1,note_on,58,65,0
1,note_on,70,65,0
1,note_on,64,62,120
1,note_on,66,62,0
1,note_on,66,0,120
1,note_on,64,0,0
1,note_on,70,0,120
1,note_on,58,0,0
1,note_on,59,64,0
1,note_on,71,64,0
1,note_on,71,0,120
1,note_on,59,0,0
1,note_on,72,70,0
1,note_on,60,70,0
1,note_on,66,65,120
1,note_on,70,65,0
1,note_on,70,0,120
1,note_on,66,0,0
1,note_on,60,0,120
1,note_on,72,0,0
1,note_on,61,70,0
1,note_on,73,70,0
1,note_on,73,0,120
1,note_on,61,0,0
1,note_on,62,74,0
1,note_on,74,74,0
1,note_on,66,70,120
1,note_on,71,70,0
1,note_on,71,0,120
1,note_on,66,0,0
1,note_on,74,0,120
1,note_on,62,0,0
1,note_on,64,73,0
1,note_on,76,73,0
1,note_on,76,0,120
1,note_on,64,0,0
1,note_on,65,80,0
1,note_on,77,80,0
1,note_on,71,73,120
1,note_on,74,73,0
1,note_on,74,0,120
1,note_on,71,0,0
1,note_on,77,0,120
1,note_on,65,0,0
1,note_on,66,78,0
1,note_on,78,78,0
1,note_on,78,0,120
1,note_on,66,0,0
1,note_on,68,84,0
1,note_on,80,84,0
1,note_on,76,78,120
1,note_on,74,78,0
1,note_on,74,0,120
1,note_on,76,0,0
1,note_on,80,0,120
1,note_on,68,0,0
1,note_on,69,81,0
1,note_on,81,81,0
1,note_on,81,0,120
1,note_on,69,0,0
1,note_on,70,89,0
1,note_on,82,89,0
1,note_on,74,79,120
1,note_on,80,79,0
1,note_on,80,0,120
1,note_on,74,0,0
1,note_on,82,0,120
1,note_on,70,0,0
1,note_on,71,87,0
1,note_on,83,87,0
1,note_on,83,0,120
1,note_on,71,0,0
1,note_on,72,94,0
1,note_on,84,94,0
1,note_on,78,86,120
1,note_on,80,86,0
1,note_on,80,0,120
1,note_on,78,0,0
1,note_on,84,0,120
1,note_on,72,0,0
1,note_on,73,93,0
1,note_on,85,93,0
1,note_on,85,0,120
1,note_on,73,0,0
1,note_on,75,100,0
1,note_on,87,100,0
1,note_on,80,92,120
1,note_on,84,92,0
1,note_on,84,0,120
1,note_on,80,0,0
1,note_on,87,0,120
1,note_on,75,0,0
1,note_on,76,99,0
1,note_on,88,99,0
1,note_on,88,0,120
1,note_on,76,0,0
1,note_on,80,93,240
1,note_on,85,106,0
1,note_on,89,106,0
1,note_on,77,93,0
1,note_on,77,0,240
1,note_on,80,0,0
1,note_on,85,0,0
1,note_on,89,0,0
1,note_on,87,99,0
1,note_on,75,90,0
1,note_on,75,0,90
1,note_on,87,0,0
1,note_on,89,93,30
1,note_on,77,83,0
1,note_on,77,0,90
1,note_on,89,0,0
1,note_on,85,93,30
1,note_on,73,83,0
1,note_on,73,0,240
1,note_on,85,0,0
1,note_on,82,78,240
1,note_on,88,78,0
1,note_on,94,94,0
1,note_on,94,0,480
1,note_on,88,0,0
1,note_on,82,0,0
1,note_on,84,71,0
1,note_on,88,71,0
1,note_on,96,82,0
1,note_on,96,0,240
1,note_on,88,0,0
1,note_on,84,0,0
1,note_on,85,73,0
1,note_on,89,84,0
1,note_on,80,73,0
1,note_on,92,84,0
1,note_on,92,0,120
1,note_on,85,0,0
1,note_on,89,0,0
1,note_on,80,0,0
1,note_on,79,73,0
1,note_on,91,84,0
1,note_on,91,0,120
1,note_on,79,0,0
1,note_on,78,72,0
1,note_on,90,82,0
1,note_on,90,0,120
1,note_on,78,0,0
1,note_on,77,72,0
1,note_on,89,80,0
1,note_on,89,0,120
1,note_on,77,0,0
1,note_on,76,71,0
1,note_on,88,80,0
1,note_on,88,0,120
1,note_on,76,0,0
1,note_on,77,71,0
1,note_on,89,78,0
1,note_on,89,0,120
1,note_on,77,0,0
1,note_on,75,70,0
1,note_on,87,77,0
1,note_on,87,0,120
1,note_on,75,0,0
1,note_on,73,69,0
1,note_on,85,76,0
1,note_on,85,0,120
1,note_on,73,0,0
1,note_on,77,81,240
1,note_on,81,81,0
1,note_on,89,92,0
1,note_on,89,0,480
1,note_on,81,0,0
1,note_on,77,0,0
1,note_on,75,76,0
1,note_on,87,85,0
1,note_on,87,0,240
1,note_on,75,0,0
1,note_on,78,72,0
1,note_on,75,72,0
1,note_on,87,90,0
1,note_on,87,0,120
1,note_on,75,0,0
1,note_on,78,0,0
1,note_on,74,76,0
1,note_on,86,85,0
1,note_on,86,0,120
1,note_on,74,0,0
1,note_on,73,74,0
1,note_on,85,83,0
1,note_on,85,0,120
1,note_on,73,0,0
1,note_on,72,72,0
1,note_on,84,81,0
1,note_on,84,0,120
1,note_on,72,0,0
1,note_on,73,65,0
1,note_on,85,74,0
1,note_on,85,0,120
1,note_on,73,0,0
1,note_on,72,63,0
1,note_on,84,72,0
1,note_on,84,0,120
1,note_on,72,0,0
1,note_on,78,70,0
1,note_on,70,62,0
1,note_on,82,70,0
1,note_on,82,0,240
1,note_on,70,0,0
1,note_on,78,0,0
1,note_on,82,83,240
1,note_on,88,83,0
1,note_on,94,93,0
1,note_on,94,0,480
1,note_on,88,0,0
1,note_on,82,0,0
1,note_on,84,75,0
1,note_on,88,75,0
1,note_on,96,83,0
1,note_on,96,0,240
1,note_on,88,0,0
1,note_on,84,0,0
1,note_on,85,74,0
1,note_on,89,82,0
1,note_on,80,74,0
1,note_on,92,82,0
1,note_on,92,0,120
1,note_on,85,0,0
1,note_on,89,0,0
1,note_on,80,0,0
1,note_on,79,74,0
1,note_on,91,82,0
1,note_on,91,0,120
1,note_on,79,0,0
1,note_on,78,73,0
1,note_on,90,82,0
1,note_on,90,0,120
1,note_on,78,0,0
1,note_on,77,73,0
1,note_on,89,81,0
1,note_on,89,0,120
1,note_on,77,0,0
1,note_on,76,72,0
1,note_on,88,81,0
1,note_on,88,0,120
1,note_on,76,0,0
1,note_on,77,72,0
1,note_on,89,80,0
1,note_on,89,0,120
1,note_on,77,0,0
1,note_on,75,71,0
1,note_on,87,79,0
1,note_on,87,0,120
1,note_on,75,0,0
1,note_on,73,69,0
1,note_on,85,77,0
1,note_on,85,0,120
1,note_on,73,0,0
1,note_on,67,70,0
1,note_on,79,79,0
1,note_on,79,0,120
1,note_on,67,0,0
1,note_on,68,63,0
1,note_on,80,71,0
1,note_on,80,0,120
1,note_on,68,0,0
1,note_on,66,70,0
1,note_on,78,79,0
1,note_on,78,0,120
1,note_on,66,0,0
1,note_on,65,63,0
1,note_on,77,71,0
1,note_on,77,0,120
1,note_on,65,0,0
1,note_on,64,70,0
1,note_on,76,79,0
1,note_on,76,0,120
1,note_on,64,0,0
1,note_on,65,64,0
1,note_on,77,72,0
1,note_on,77,0,120
1,note_on,65,0,0
1,note_on,63,70,0
1,note_on,75,79,0
1,note_on,75,0,120
1,note_on,63,0,0
1,note_on,61,63,0
1,note_on,73,71,0
1,note_on,73,0,120
1,note_on,61,0,0
1,note_on,67,73,0
1,note_on,67,0,120
1,note_on,68,63,0
1,note_on,68,0,120
1,note_on,66,71,0
1,note_on,66,0,120
1,note_on,65,64,0
1,note_on,65,0,120
1,note_on,64,71,0
1,note_on,64,0,120
1,note_on,65,60,0
1,note_on,65,0,120
1,note_on,63,65,0
1,note_on,63,0,120
1,note_on,61,60,0
1,note_on,61,0,120
1,note_on,54,51,240
1,note_on,58,51,0
1,note_on,65,62,0
1,note_on,65,0,480
1,note_on,63,52,0
1,note_on,63,0,240
1,note_on,58,0,0
1,note_on,54,0,0
1,note_on,54,52,0
1,note_on,63,52,0
1,note_on,63,0,120
1,note_on,62,51,0
1,note_on,62,0,120
1,note_on,54,0,0
1,note_on,61,51,0
1,note_on,61,0,120
1,note_on,60,50,0
1,note_on,60,0,120
1,note_on,54,53,0
1,note_on,61,53,0
1,note_on,61,0,120
1,note_on,60,52,0
1,note_on,60,0,120
1,note_on,54,0,0
1,note_on,59,51,0
1,note_on,59,0,120
1,note_on,58,50,0
1,note_on,58,0,120
1,note_on,54,51,240
1,note_on,58,51,0
1,note_on,65,60,0
1,note_on,65,0,480
1,note_on,63,52,0
1,note_on,63,0,240
1,note_on,58,0,0
1,note_on,54,0,0
1,note_on,53,52,0
1,note_on,63,52,0
1,note_on,63,0,120
1,note_on,62,51,0
1,note_on,62,0,120
1,note_on,53,0,0
1,note_on,61,51,0
1,note_on,61,0,120
1,note_on,60,50,0
1,note_on,60,0,120
1,note_on,52,53,0
1,note_on,61,53,0
1,note_on,61,0,120
1,note_on,59,52,0
1,note_on,59,0,120
1,note_on,52,0,0
1,note_on,58,51,0
1,note_on,58,0,120
1,note_on,57,50,0
1,note_on,57,0,120
1,note_on,56,53,240
1,note_on,61,53,0
1,note_on,68,67,0
1,note_on,68,0,480
1,note_on,56,0,0
1,note_on,54,49,0
1,note_on,66,55,0
1,note_on,66,0,240
1,note_on,54,0,0
1,note_on,61,0,0
1,note_on,66,61,0
1,note_on,62,61,0
1,note_on,62,0,120
1,note_on,63,54,0
1,note_on,63,0,120
1,note_on,66,0,0
1,note_on,61,54,0
1,note_on,61,0,120
1,note_on,60,53,0
1,note_on,60,0,120
1,note_on,69,64,0
1,note_on,65,64,0
1,note_on,65,0,120
1,note_on,66,60,0
1,note_on,66,0,120
1,note_on,69,0,0
1,note_on,64,61,0
1,note_on,64,0,120
1,note_on,63,59,0
1,note_on,63,0,120
1,note_on,72,70,0
1,note_on,69,70,0
1,note_on,69,0,120
1,note_on,70,63,0
1,note_on,70,0,120
1,note_on,72,0,0
1,note_on,68,64,0
1,note_on,68,0,120
1,note_on,66,63,0
1,note_on,66,0,120
1,note_on,75,75,0
1,note_on,71,75,0
1,note_on,71,0,120
1,note_on,72,69,0
1,note_on,72,0,120
1,note_on,75,0,0
1,note_on,70,70,0
1,note_on,70,0,120
1,note_on,68,69,0
1,note_on,68,0,120
1,note_on,78,81,0
1,note_on,74,81,0
1,note_on,74,0,120
1,note_on,75,75,0
1,note_on,75,0,120
1,note_on,78,0,0
1,note_on,73,75,0
1,note_on,73,0,120
1,note_on,72,73,0
1,note_on,72,0,120
1,note_on,84,85,0
1,note_on,81,85,0
1,note_on,81,0,120
1,note_on,82,80,0
1,note_on,82,0,120
1,note_on,84,0,0
1,note_on,80,81,0
1,note_on,80,0,120
1,note_on,78,79,0
1,note_on,78,0,120
1,note_on,89,96,0
1,note_on,85,96,0
1,note_on,77,96,0
1,note_on,77,0,240
1,note_on,85,0,0
1,note_on,89,0,0
1,note_on,101,96,0
1,note_on,97,81,0
1,note_on,92,81,0
1,note_on,92,0,120
1,note_on,97,0,0
1,note_on,101,0,0
1,note_on,97,90,120
1,note_on,92,76,0
1,note_on,89,76,0
1,note_on,89,0,120
1,note_on,92,0,0
1,note_on,97,0,0
1,note_on,85,72,120
1,note_on,89,72,0
1,note_on,92,86,0
1,note_on,92,0,120
1,note_on,89,0,0
1,note_on,85,0,0
1,note_on,89,89,120
1,note_on,85,74,0
1,note_on,80,74,0
1,note_on,80,0,120
1,note_on,85,0,0
1,note_on,89,0,0
1,note_on,85,87,120
1,note_on,80,73,0
1,note_on,77,73,0
1,note_on,77,0,120
1,note_on,80,0,0
1,note_on,85,0,0
1,note_on,73,72,120
1,note_on,77,72,0
1,note_on,80,86,0
1,note_on,80,0,120
1,note_on,77,0,0
1,note_on,73,0,0
1,note_on,68,71,120
1,note_on,73,71,0
1,note_on,77,84,0
1,note_on,77,0,120
1,note_on,73,0,0
1,note_on,68,0,0
1,note_on,65,71,120
1,note_on,68,71,0
1,note_on,73,84,0
1,note_on,73,0,120
1,note_on,68,0,0
1,note_on,65,0,0
1,note_on,77,85,120
1,note_on,73,72,0
1,note_on,68,72,0
1,note_on,68,0,120
1,note_on,73,0,0
1,note_on,77,0,0
1,note_on,73,81,120
1,note_on,68,67,0
1,note_on,65,67,0
1,note_on,65,0,120
1,note_on,68,0,0
1,note_on,73,0,0
1,note_on,61,64,120
1,note_on,65,64,0
1,note_on,68,77,0
1,note_on,68,0,120
1,note_on,65,0,0
1,note_on,61,0,0
1,note_on,65,80,120
1,note_on,61,65,0
1,note_on,56,65,0
1,note_on,56,0,120
1,note_on,61,0,0
1,note_on,65,0,0
1,note_on,61,79,120
1,note_on,56,65,0
1,note_on,53,65,0
1,note_on,53,0,120
1,note_on,56,0,0
1,note_on,61,0,0
1,note_on,49,64,120
1,note_on,53,64,0
1,note_on,56,77,0
1,note_on,56,0,120
1,note_on,53,0,0
1,note_on,49,0,0
1,note_on,44,63,120
1,note_on,49,63,0
1,note_on,53,75,0
1,note_on,53,0,120
1,note_on,49,0,0
1,note_on,44,0,0
1,note_on,41,63,120
1,note_on,44,63,0
1,note_on,49,75,0
1,note_on,49,0,120
1,note_on,44,0,0
1,note_on,41,0,0
1,note_on,41,48,120
1,note_on,49,46,0
1,note_on,53,56,0
1,note_on,53,0,120
1,note_on,49,0,0
1,note_on,41,0,0
1,note_on,41,48,120
1,note_on,49,48,0
1,note_on,53,58,0
1,note_on,53,0,120
1,note_on,49,0,0
1,note_on,41,0,0
1,note_on,41,50,120
1,note_on,49,50,0
1,note_on,53,59,0
1,note_on,53,0,120
1,note_on,49,0,0
1,note_on,41,0,0
1,note_on,41,52,120
1,note_on,49,52,0
1,note_on,53,61,0
1,note_on,53,0,120
1,note_on,49,0,0
1,note_on,41,0,0
1,note_on,41,53,120
1,note_on,49,53,0
1,note_on,53,63,0
1,note_on,53,0,120
1,note_on,49,0,0
1,note_on,41,0,0
1,note_on,41,56,120
1,note_on,49,56,0
1,note_on,53,66,0
1,note_on,53,0,120
1,note_on,49,0,0
1,note_on,41,0,0
1,note_on,41,58,120
1,note_on,49,58,0
1,note_on,53,68,0
1,note_on,53,0,120
1,note_on,49,0,0
1,note_on,41,0,0
1,note_on,41,58,120
1,note_on,49,58,0
1,note_on,53,69,0
1,note_on,53,0,120
1,note_on,49,0,0
1,note_on,41,0,0
1,note_on,41,58,120
1,note_on,49,58,0
1,note_on,53,68,0
1,note_on,53,0,120
1,note_on,49,0,0
1,note_on,41,0,0
1,note_on,41,57,120
1,note_on,49,57,0
1,note_on,53,67,0
1,note_on,53,0,120
1,note_on,49,0,0
1,note_on,41,0,0
1,note_on,41,54,120
1,note_on,49,54,0
1,note_on,53,65,0
1,note_on,53,0,120
1,note_on,49,0,0
1,note_on,41,0,0
1,note_on,41,53,120
1,note_on,49,53,0
1,note_on,53,63,0
1,note_on,53,0,120
1,note_on,49,0,0
1,note_on,41,0,0
1,note_on,41,52,120
1,note_on,49,52,0
1,note_on,53,61,0
1,note_on,53,0,120
1,note_on,49,0,0
1,note_on,41,0,0
1,note_on,41,51,120
1,note_on,49,51,0
1,note_on,53,59,0
1,note_on,53,0,120
1,note_on,49,0,0
1,note_on,41,0,0
1,note_on,41,49,120
1,note_on,49,49,0
1,note_on,53,58,0
1,note_on,53,0,120
1,note_on,49,0,0
1,note_on,41,0,0
1,note_on,41,48,120
1,note_on,49,48,0
1,note_on,53,58,0
1,note_on,53,0,180
1,note_on,49,0,0
1,note_on,41,0,0
1,note_on,65,67,240
1,note_on,72,71,30
1,note_on,77,80,30
1,note_on,77,0,240
1,note_on,72,0,0
1,note_on,65,0,0
1,note_on,85,79,240
1,note_on,81,79,0
1,note_on,73,67,0
1,note_on,76,67,0
1,note_on,76,0,240
1,note_on,85,0,0
1,note_on,81,0,0
1,note_on,73,0,0
1,note_on,81,67,240
1,note_on,85,67,0
1,note_on,87,79,0
1,note_on,93,79,0
1,note_on,93,0,240
1,note_on,81,0,0
1,note_on,85,0,0
1,note_on,87,0,0
1,note_on,101,84,240
1,note_on,97,84,0
1,note_on,92,70,0
1,note_on,89,70,0
1,note_on,89,0,240
1,note_on,101,0,0
1,note_on,97,0,0
1,note_on,92,0,0
1,note_on,97,90,720
1,note_on,92,76,0
1,note_on,85,76,0
1,note_on,85,0,240
1,note_on,92,0,0
1,note_on,97,0,0
1,note_on,80,81,540
1,note_on,80,0,60
1,note_on,81,82,0
1,note_on,81,0,60
1,note_on,84,82,0
1,note_on,84,0,60
1,note_on,73,82,0
1,note_on,85,92,0
1,note_on,85,0,120
1,note_on,73,0,0
1,note_on,49,85,120
1,note_on,49,0,240
2,note_on,58,89,0
2,note_on,58,0,90
2,note_on,58,84,270
2,note_on,58,0,90
2,note_on,54,82,270
2,note_on,54,0,90
2,note_on,58,86,270
2,note_on,58,0,90
2,note_on,56,81,270
2,note_on,56,0,90
2,note_on,56,81,270
2,note_on,56,0,90
2,note_on,56,80,270
2,note_on,56,0,90
2,note_on,53,90,270
2,note_on,53,0,360
2,note_on,58,53,0
2,note_on,58,0,90
2,note_on,58,50,270
2,note_on,58,0,90
2,note_on,54,49,270
2,note_on,54,0,90
2,note_on,58,49,270
2,note_on,58,0,90
2,note_on,56,51,270
2,note_on,56,0,90
2,note_on,56,49,270
2,note_on,56,0,90
2,note_on,56,49,270
2,note_on,56,0,90
2,note_on,53,54,270
2,note_on,53,0,360
2,note_on,54,80,0
2,note_on,54,0,90
2,note_on,58,82,270
2,note_on,58,0,90
2,note_on,63,85,270
2,note_on,63,0,90
2,note_on,60,81,270
2,note_on,60,0,90
2,note_on,56,83,270
2,note_on,56,0,90
2,note_on,61,80,270
2,note_on,61,0,90
2,note_on,58,80,270
2,note_on,58,0,90
2,note_on,53,89,270
2,note_on,53,0,360
2,note_on,54,47,0
2,note_on,54,0,90
2,note_on,58,49,270
2,note_on,58,0,90
2,note_on,63,50,270
2,note_on,63,0,90
2,note_on,60,47,270
2,note_on,60,0,90
2,note_on,56,50,270
2,note_on,56,0,90
2,note_on,61,47,270
2,note_on,61,0,90
2,note_on,58,47,270
2,note_on,58,0,90
2,note_on,53,57,270
2,note_on,53,0,360
2,note_on,56,67,0
2,note_on,61,76,0
2,note_on,61,0,90
2,note_on,56,0,0
2,note_on,56,87,240
2,note_on,49,76,0
2,note_on,49,0,80
2,note_on,56,0,0
2,note_on,49,70,0
2,note_on,37,62,0
2,note_on,37,0,50
2,note_on,49,0,0
2,note_on,61,65,257
2,note_on,56,59,0
2,note_on,56,0,83
2,note_on,61,0,0
2,note_on,49,77,148
2,note_on,56,86,0
2,note_on,56,0,219
2,note_on,49,0,0
2,note_on,37,62,0
2,note_on,49,70,0
2,note_on,49,0,90
2,note_on,37,0,0
2,note_on,56,36,120
2,note_on,61,42,0
2,note_on,61,0,67
2,note_on,56,0,0
2,note_on,49,44,251
2,note_on,56,49,0
2,note_on,56,0,97
2,note_on,49,0,0
2,note_on,49,35,0
2,note_on,37,31,0
2,note_on,37,0,21
2,note_on,49,0,0
2,note_on,61,34,223
2,note_on,56,30,0
2,note_on,56,0,69
2,note_on,61,0,0
2,note_on,56,46,184
2,note_on,49,42,0
2,note_on,49,0,106
2,note_on,56,0,0
2,note_on,37,29,0
2,note_on,49,33,0
2,note_on,49,0,26
2,note_on,37,0,0
2,note_on,54,62,176
2,note_on,58,62,0
2,note_on,49,55,0
2,note_on,49,0,269
2,note_on,58,0,0
2,note_on,54,0,0
2,note_on,37,46,0
2,note_on,49,53,0
2,note_on,49,0,297
2,note_on,37,0,0
2,note_on,63,63,0
2,note_on,56,57,0
2,note_on,66,63,0
2,note_on,66,0,309
2,note_on,56,0,0
2,note_on,63,0,0
2,note_on,49,53,0
2,note_on,37,46,0
2,note_on,37,0,320
2,note_on,49,0,0
2,note_on,56,44,0
2,note_on,61,44,0
2,note_on,49,39,0
2,note_on,49,0,39
2,note_on,61,0,0
2,note_on,56,0,0
2,note_on,66,61,183
2,note_on,63,61,0
2,note_on,61,53,0
2,note_on,63,0,291
2,note_on,66,0,0
2,note_on,65,50,0
2,note_on,65,0,15
2,note_on,61,0,30
2,note_on,59,53,240
2,note_on,49,47,0
2,note_on,56,53,0
2,note_on,56,0,269
2,note_on,49,0,0
2,note_on,59,0,0
2,note_on,49,29,0
2,note_on,58,33,0
2,note_on,54,33,0
2,note_on,54,0,229
2,note_on,58,0,0
2,note_on,49,0,0
2,note_on,37,25,0
2,note_on,49,27,0
2,note_on,49,0,269
2,note_on,37,0,0
2,note_on,66,35,0
2,note_on,56,31,0
2,note_on,63,35,0
2,note_on,63,0,326
2,note_on,56,0,0
2,note_on,66,0,0
2,note_on,49,27,0
2,note_on,37,25,0
2,note_on,37,0,268
2,note_on,49,0,0
2,note_on,56,23,0
2,note_on,49,20,0
2,note_on,61,23,0
2,note_on,61,0,56
2,note_on,49,0,0
2,note_on,56,0,0
2,note_on,66,30,200
2,note_on,61,26,0
2,note_on,63,30,0
2,note_on,63,0,274
2,note_on,66,0,0
2,note_on,65,26,0
2,note_on,65,0,73
2,note_on,61,0,17
2,note_on,55,22,240
2,note_on,46,19,0
2,note_on,46,0,286
2,note_on,55,0,0
2,note_on,41,27,0
2,note_on,53,27,0
2,note_on,53,0,120
2,note_on,41,0,0
2,note_on,60,27,0
2,note_on,53,27,0
2,note_on,53,0,120
2,note_on,60,0,0
2,note_on,53,29,240
2,note_on,58,29,0
2,note_on,58,0,120
2,note_on,53,0,0
2,note_on,53,30,240
2,note_on,61,30,0
2,note_on,61,0,120
2,note_on,53,0,0
2,note_on,60,27,240
2,note_on,53,27,0
2,note_on,53,0,120
2,note_on,60,0,0
2,note_on,58,31,240
2,note_on,51,31,0
2,note_on,51,0,120
2,note_on,58,0,0
2,note_on,51,27,240
2,note_on,61,27,0
2,note_on,61,0,120
2,note_on,51,0,0
2,note_on,58,27,240
2,note_on,51,27,0
2,note_on,51,0,120
2,note_on,58,0,0
2,note_on,51,27,240
2,note_on,61,27,0
2,note_on,61,0,120
2,note_on,51,0,0
2,note_on,60,27,240
2,note_on,53,27,0
2,note_on,53,0,120
2,note_on,60,0,0
2,note_on,58,31,240
2,note_on,53,31,0
2,note_on,53,0,120
2,note_on,58,0,0
2,note_on,61,33,240
2,note_on,53,33,0
2,note_on,53,0,120
2,note_on,61,0,0
2,note_on,60,29,240
2,note_on,53,29,0
2,note_on,53,0,120
2,note_on,60,0,0
2,note_on,51,32,240
2,note_on,58,32,0
2,note_on,58,0,120
2,note_on,51,0,0
2,note_on,61,29,240
2,note_on,51,29,0
2,note_on,51,0,120
2,note_on,61,0,0
2,note_on,51,29,240
2,note_on,58,29,0
2,note_on,58,0,120
2,note_on,51,0,0
2,note_on,61,29,240
2,note_on,51,29,0
2,note_on,51,0,120
2,note_on,61,0,0
2,note_on,53,27,120
2,note_on,60,32,0
2,note_on,60,0,120
2,note_on,53,0,0
2,note_on,53,29,71
2,note_on,58,29,0
2,note_on,58,0,7
2,note_on,53,0,0
2,note_on,53,36,28
2,note_on,61,36,0
2,note_on,61,0,120
2,note_on,53,0,0
2,note_on,60,27,35
2,note_on,53,27,0
2,note_on,53,0,120
2,note_on,60,0,0
2,note_on,58,32,78
2,note_on,51,32,0
2,note_on,51,0,7
2,note_on,58,0,0
2,note_on,51,48,78
2,note_on,61,48,0
2,note_on,61,0,120
2,note_on,51,0,0
2,note_on,51,32,92
2,note_on,58,32,0
2,note_on,58,0,120
2,note_on,51,0,0
2,note_on,51,31,28
2,note_on,61,31,0
2,note_on,61,0,120
2,note_on,51,0,0
2,note_on,60,37,64
2,note_on,53,34,0
2,note_on,60,0,14
2,note_on,53,0,120
2,note_on,53,27,0
2,note_on,41,27,0
2,note_on,41,0,47
2,note_on,53,0,0
2,note_on,58,35,0
2,note_on,53,35,0
2,note_on,58,0,14
2,note_on,53,0,120
2,note_on,41,27,0
2,note_on,53,27,0
2,note_on,53,0,42
2,note_on,41,0,0
2,note_on,61,44,0
2,note_on,53,44,0
2,note_on,61,0,120
2,note_on,53,0,106
2,note_on,41,35,0
2,note_on,53,35,0
2,note_on,53,0,56
2,note_on,41,0,0
2,note_on,53,40,0
2,note_on,60,40,0
2,note_on,60,0,120
2,note_on,53,0,99
2,note_on,53,35,0
2,note_on,41,35,0
2,note_on,41,0,71
2,note_on,53,0,0
2,note_on,51,50,0
2,note_on,58,50,0
2,note_on,58,0,28
2,note_on,51,0,120
2,note_on,51,29,0
2,note_on,39,29,0
2,note_on,39,0,64
2,note_on,51,0,0
2,note_on,61,56,0
2,note_on,51,56,0
2,note_on,61,0,120
2,note_on,51,0,92
2,note_on,51,37,0
2,note_on,39,37,0
2,note_on,39,0,14
2,note_on,51,0,0
2,note_on,51,51,0
2,note_on,58,51,0
2,note_on,58,0,120
2,note_on,51,0,85
2,note_on,39,42,0
2,note_on,51,42,0
2,note_on,51,0,28
2,note_on,39,0,0
2,note_on,61,50,0
2,note_on,57,50,0
2,note_on,51,50,0
2,note_on,61,0,21
2,note_on,51,0,127
2,note_on,57,0,0
2,note_on,61,64,0
2,note_on,61,0,4
2,note_on,54,61,30
2,note_on,54,0,90
2,note_on,51,61,30
2,note_on,51,0,90
2,note_on,44,72,30
2,note_on,37,64,0
2,note_on,62,60,91
2,note_on,62,0,90
2,note_on,63,53,30
2,note_on,63,0,90
2,note_on,37,0,30
2,note_on,44,0,0
2,note_on,59,62,0
2,note_on,56,55,0
2,note_on,56,0,44
2,note_on,59,0,0
2,note_on,58,56,30
2,note_on,54,50,0
2,note_on,54,0,90
2,note_on,58,0,0
2,note_on,56,56,30
2,note_on,53,50,0
2,note_on,53,0,90
2,note_on,56,0,0
2,note_on,51,57,0
2,note_on,54,64,0
2,note_on,54,0,21
2,note_on,58,61,30
2,note_on,58,0,90
2,note_on,51,0,30
2,note_on,56,61,0
2,note_on,56,0,90
2,note_on,61,64,0
2,note_on,61,0,48
2,note_on,56,61,30
2,note_on,56,0,90
2,note_on,53,61,30
2,note_on,53,0,90
2,note_on,37,69,30
2,note_on,44,77,0
2,note_on,53,60,78
2,note_on,53,0,90
2,note_on,56,53,30
2,note_on,56,0,90
2,note_on,44,0,30
2,note_on,37,0,0
2,note_on,61,62,0
2,note_on,61,0,90
2,note_on,49,56,30
2,note_on,49,0,90
2,note_on,56,56,30
2,note_on,56,0,90
2,note_on,65,72,30
2,note_on,65,0,113
2,note_on,73,40,0
2,note_on,73,0,90
2,note_on,66,36,10
2,note_on,66,0,90
2,note_on,63,36,30
2,note_on,63,0,8
2,note_on,56,41,30
2,note_on,49,36,0
2,note_on,74,36,5
2,note_on,74,0,90
2,note_on,75,32,30
2,note_on,75,0,90
2,note_on,49,0,30
2,note_on,56,0,0
2,note_on,71,37,0
2,note_on,68,37,0
2,note_on,68,0,40
2,note_on,71,0,0
2,note_on,69,34,30
2,note_on,66,34,0
2,note_on,66,0,90
2,note_on,69,0,0
2,note_on,68,34,30
2,note_on,65,34,0
2,note_on,65,0,90
2,note_on,68,0,0
2,note_on,63,40,0
2,note_on,66,40,0
2,note_on,66,0,40
2,note_on,69,36,30
2,note_on,69,0,90
2,note_on,63,0,30
2,note_on,68,36,0
2,note_on,68,0,90
2,note_on,73,40,30
2,note_on,73,0,32
2,note_on,68,36,30
2,note_on,68,0,90
2,note_on,64,36,30
2,note_on,64,0,13
2,note_on,49,36,30
2,note_on,56,41,0
2,note_on,64,36,33
2,note_on,64,0,90
2,note_on,68,32,30
2,note_on,68,0,90
2,note_on,73,37,30
2,note_on,73,0,90
2,note_on,61,34,30
2,note_on,61,0,90
2,note_on,68,34,30
2,note_on,68,0,90
2,note_on,56,0,30
2,note_on,49,0,0
2,note_on,76,46,0
2,note_on,76,0,75
2,note_on,56,54,0
2,note_on,59,62,0
2,note_on,59,0,56
2,note_on,56,0,0
2,note_on,54,50,30
2,note_on,58,56,0
2,note_on,58,0,90
2,note_on,54,0,0
2,note_on,53,50,30
2,note_on,56,56,0
2,note_on,56,0,90
2,note_on,53,0,0
2,note_on,51,46,30
2,note_on,54,53,0
2,note_on,49,53,177
2,note_on,37,46,0
2,note_on,54,0,86
2,note_on,51,0,0
2,note_on,55,59,0
2,note_on,55,0,61
2,note_on,56,57,30
2,note_on,56,0,90
2,note_on,57,55,30
2,note_on,57,0,90
2,note_on,58,54,30
2,note_on,58,0,90
2,note_on,59,53,30
2,note_on,59,0,90
2,note_on,60,51,30
2,note_on,60,0,90
2,note_on,49,0,30
2,note_on,37,0,0
2,note_on,61,53,0
2,note_on,56,52,74
2,note_on,56,0,90
2,note_on,49,52,30
2,note_on,49,0,90
2,note_on,61,0,30
2,note_on,63,61,0
2,note_on,54,52,69
2,note_on,54,0,79
2,note_on,49,53,30
2,note_on,49,0,90
2,note_on,63,0,30
2,note_on,65,50,0
2,note_on,53,45,120
2,note_on,53,0,90
2,note_on,49,40,30
2,note_on,65,0,120
2,note_on,56,42,0
2,note_on,59,46,0
2,note_on,59,0,86
2,note_on,56,0,0
2,note_on,49,0,0
2,note_on,68,33,0
2,note_on,71,37,0
2,note_on,71,0,90
2,note_on,68,0,0
2,note_on,69,35,30
2,note_on,66,31,0
2,note_on,66,0,56
2,note_on,69,0,0
2,note_on,65,31,30
2,note_on,68,35,0
2,note_on,68,0,90
2,note_on,65,0,0
2,note_on,63,27,30
2,note_on,66,32,0
2,note_on,61,32,109
2,note_on,49,27,0
2,note_on,66,0,120
2,note_on,63,0,0
2,note_on,67,36,0
2,note_on,67,0,90
2,note_on,68,35,30
2,note_on,68,0,90
2,note_on,69,34,30
2,note_on,69,0,90
2,note_on,70,33,30
2,note_on,70,0,15
2,note_on,71,32,30
2,note_on,71,0,90
2,note_on,72,31,30
2,note_on,72,0,90
2,note_on,61,0,30
2,note_on,49,0,0
2,note_on,73,32,0
2,note_on,68,32,68
2,note_on,68,0,90
2,note_on,61,32,30
2,note_on,61,0,90
2,note_on,73,0,30
2,note_on,74,41,0
2,note_on,68,32,46
2,note_on,68,0,90
2,note_on,64,32,30
2,note_on,64,0,90
2,note_on,74,0,30
2,note_on,73,30,0
2,note_on,64,27,120
2,note_on,64,0,90
2,note_on,57,24,30
2,note_on,73,0,120
2,note_on,64,32,0
2,note_on,73,36,0
2,note_on,73,0,251
2,note_on,64,0,0
2,note_on,57,0,0
2,note_on,45,65,0
2,note_on,50,74,0
2,note_on,54,74,0
2,note_on,42,65,0
2,note_on,42,0,90
2,note_on,45,0,0
2,note_on,50,0,0
2,note_on,54,0,0
2,note_on,78,90,217
2,note_on,74,81,0
2,note_on,74,0,56
2,note_on,78,0,0
2,note_on,61,65,270
2,note_on,58,59,0
2,note_on,58,0,90
2,note_on,61,0,0
2,note_on,61,49,150
2,note_on,65,55,0
2,note_on,65,0,90
2,note_on,61,0,0
2,note_on,44,56,390
2,note_on,56,63,0
2,note_on,51,63,0
2,note_on,51,0,90
2,note_on,56,0,0
2,note_on,44,0,0
2,note_on,75,81,206
2,note_on,78,90,0
2,note_on,78,0,4
2,note_on,75,0,0
2,note_on,66,62,270
2,note_on,63,54,0
2,note_on,63,0,90
2,note_on,66,0,0
2,note_on,60,62,270
2,note_on,63,69,0
2,note_on,63,0,360
2,note_on,60,0,0
2,note_on,54,44,0
2,note_on,62,50,0
2,note_on,66,50,0
2,note_on,57,44,0
2,note_on,57,0,90
2,note_on,54,0,0
2,note_on,62,0,0
2,note_on,66,0,0
2,note_on,86,44,234
2,note_on,90,50,0
2,note_on,90,0,90
2,note_on,86,0,0
2,note_on,70,36,270
2,note_on,73,41,0
2,note_on,73,0,90
2,note_on,70,0,0
2,note_on,73,30,150
2,note_on,77,34,0
2,note_on,77,0,90
2,note_on,73,0,0
2,note_on,63,34,390
2,note_on,68,39,0
2,note_on,56,34,0
2,note_on,56,0,9
2,note_on,68,0,0
2,note_on,63,0,0
2,note_on,90,55,270
2,note_on,87,49,0
2,note_on,87,0,19
2,note_on,90,0,0
2,note_on,78,37,270
2,note_on,75,33,0
2,note_on,75,0,90
2,note_on,78,0,0
2,note_on,75,42,270
2,note_on,72,36,0
2,note_on,72,0,300
2,note_on,75,0,0
2,note_on,42,65,0
2,note_on,50,65,30
2,note_on,57,74,30
2,note_on,57,0,9
2,note_on,50,0,0
2,note_on,42,0,0
2,note_on,50,64,39
2,note_on,57,64,30
2,note_on,62,72,30
2,note_on,62,0,90
2,note_on,57,0,0
2,note_on,50,0,0
2,note_on,62,59,120
2,note_on,66,65,0
2,note_on,66,0,90
2,note_on,62,0,0
2,note_on,57,49,46
2,note_on,62,55,0
2,note_on,62,0,90
2,note_on,57,0,0
2,note_on,44,56,39
2,note_on,51,56,30
2,note_on,60,63,30
2,note_on,60,0,90
2,note_on,51,0,0
2,note_on,44,0,0
2,note_on,56,54,67
2,note_on,63,54,30
2,note_on,68,62,30
2,note_on,68,0,90
2,note_on,63,0,0
2,note_on,56,0,0
2,note_on,68,62,35
2,note_on,72,69,0
2,note_on,72,0,90
2,note_on,68,0,0
2,note_on,78,72,56
2,note_on,75,64,0
2,note_on,75,0,109
2,note_on,78,0,0
2,note_on,54,49,0
2,note_on,62,49,30
2,note_on,69,62,30
2,note_on,69,0,90
2,note_on,62,0,0
2,note_on,54,0,0
2,note_on,62,46,25
2,note_on,69,46,30
2,note_on,74,59,30
2,note_on,74,0,90
2,note_on,69,0,0
2,note_on,62,0,0
2,note_on,74,47,25
2,note_on,78,53,0
2,note_on,78,0,90
2,note_on,74,0,0
2,note_on,74,44,46
2,note_on,69,40,0
2,note_on,69,0,90
2,note_on,74,0,0
2,note_on,56,41,28
2,note_on,63,42,30
2,note_on,72,52,30
2,note_on,72,0,90
2,note_on,63,0,0
2,note_on,56,0,0
2,note_on,68,41,21
2,note_on,75,41,30
2,note_on,80,50,30
2,note_on,80,0,90
2,note_on,75,0,0
2,note_on,68,0,0
2,note_on,84,55,32
2,note_on,80,49,0
2,note_on,80,0,90
2,note_on,84,0,0
2,note_on,90,59,49
2,note_on,87,52,0
2,note_on,87,0,18
2,note_on,90,0,0
2,note_on,66,37,0
2,note_on,74,39,30
2,note_on,81,47,30
2,note_on,81,0,90
2,note_on,74,0,0
2,note_on,66,0,0
2,note_on,74,37,25
2,note_on,81,37,30
2,note_on,86,46,30
2,note_on,86,0,90
2,note_on,81,0,0
2,note_on,74,0,0
2,note_on,90,46,25
2,note_on,86,42,0
2,note_on,86,0,90
2,note_on,90,0,0
2,note_on,79,52,88
2,note_on,76,45,0
2,note_on,76,0,170
2,note_on,79,0,0
2,note_on,80,52,0
2,note_on,77,45,0
2,note_on,77,0,180
2,note_on,80,0,0
2,note_on,81,53,0
2,note_on,78,46,0
2,note_on,78,0,180
2,note_on,81,0,0
2,note_on,82,54,0
2,note_on,79,49,0
2,note_on,79,0,180
2,note_on,82,0,0
2,note_on,80,49,0
2,note_on,83,54,0
2,note_on,83,0,180
2,note_on,80,0,0
2,note_on,84,55,0
2,note_on,81,49,0
2,note_on,81,0,180
2,note_on,84,0,0
2,note_on,82,50,0
2,note_on,85,56,0
2,note_on,85,0,180
2,note_on,82,0,0
2,note_on,83,51,0
2,note_on,86,57,0
2,note_on,86,0,180
2,note_on,83,0,0
2,note_on,84,51,0
2,note_on,87,57,0
2,note_on,87,0,180
2,note_on,84,0,0
2,note_on,85,52,0
2,note_on,88,59,0
2,note_on,88,0,180
2,note_on,85,0,0
2,note_on,86,53,0
2,note_on,89,61,0
2,note_on,89,0,180
2,note_on,86,0,0
2,note_on,87,54,0
2,note_on,90,62,0
2,note_on,90,0,180
2,note_on,87,0,0
2,note_on,91,62,0
2,note_on,88,54,0
2,note_on,88,0,120
2,note_on,91,0,0
2,note_on,89,55,0
2,note_on,92,62,0
2,note_on,92,0,120
2,note_on,89,0,0
2,note_on,93,62,0
2,note_on,90,55,0
2,note_on,90,0,120
2,note_on,93,0,0
2,note_on,91,77,0
2,note_on,94,77,0
2,note_on,94,0,39
2,note_on,91,0,0
2,note_on,42,40,0
2,note_on,42,0,120
2,note_on,44,31,0
2,note_on,44,0,120
2,note_on,56,36,0
2,note_on,56,0,71
2,note_on,44,32,0
2,note_on,44,0,120
2,note_on,42,36,0
2,note_on,42,0,35
2,note_on,44,30,0
2,note_on,44,0,120
2,note_on,56,36,0
2,note_on,56,0,240
2,note_on,44,33,0
2,note_on,44,0,120
2,note_on,42,33,0
2,note_on,42,0,69
2,note_on,44,36,0
2,note_on,44,0,120
2,note_on,56,43,0
2,note_on,56,0,240
2,note_on,44,36,0
2,note_on,44,0,120
2,note_on,41,32,0
2,note_on,41,0,40
2,note_on,44,36,0
2,note_on,44,0,120
2,note_on,56,31,0
2,note_on,56,0,240
2,note_on,44,36,0
2,note_on,44,0,120
2,note_on,40,36,0
2,note_on,40,0,120
2,note_on,39,40,0
2,note_on,39,0,114
2,note_on,44,31,0
2,note_on,44,0,120
2,note_on,56,36,0
2,note_on,56,0,71
2,note_on,44,32,0
2,note_on,44,0,120
2,note_on,39,36,0
2,note_on,39,0,35
2,note_on,44,30,0
2,note_on,44,0,120
2,note_on,56,36,0
2,note_on,56,0,240
2,note_on,44,33,0
2,note_on,44,0,120
2,note_on,39,33,0
2,note_on,39,0,120
2,note_on,37,41,0
2,note_on,37,0,69
2,note_on,44,36,0
2,note_on,44,0,120
2,note_on,56,43,0
2,note_on,56,0,91
2,note_on,57,36,0
2,note_on,57,0,120
2,note_on,45,32,0
2,note_on,45,0,120
2,note_on,37,41,0
2,note_on,37,0,28
2,note_on,46,36,0
2,note_on,46,0,120
2,note_on,58,31,0
2,note_on,58,0,240
2,note_on,46,36,0
2,note_on,46,0,120
2,note_on,37,36,0
2,note_on,37,0,45
2,note_on,49,34,0
2,note_on,49,0,120
2,note_on,61,40,0
2,note_on,61,0,71
2,note_on,49,35,0
2,note_on,49,0,120
2,note_on,47,40,0
2,note_on,47,0,35
2,note_on,49,33,0
2,note_on,49,0,120
2,note_on,59,40,0
2,note_on,59,0,240
2,note_on,49,36,0
2,note_on,49,0,120
2,note_on,47,36,0
2,note_on,47,0,120
2,note_on,46,41,0
2,note_on,46,0,69
2,note_on,49,40,0
2,note_on,49,0,120
2,note_on,58,35,0
2,note_on,58,0,240
2,note_on,50,40,0
2,note_on,50,0,120
2,note_on,46,35,0
2,note_on,46,0,63
2,note_on,51,40,0
2,note_on,51,0,120
2,note_on,58,34,0
2,note_on,58,0,240
2,note_on,51,40,0
2,note_on,51,0,120
2,note_on,46,40,0
2,note_on,46,0,112
2,note_on,52,36,0
2,note_on,52,0,120
2,note_on,58,44,0
2,note_on,58,0,240
2,note_on,52,37,0
2,note_on,52,0,120
2,note_on,46,44,0
2,note_on,46,0,35
2,note_on,52,36,0
2,note_on,52,0,120
2,note_on,58,44,0
2,note_on,58,0,240
2,note_on,52,40,0
2,note_on,52,0,120
2,note_on,46,40,0
2,note_on,46,0,69
2,note_on,53,44,0
2,note_on,53,0,120
2,note_on,58,37,0
2,note_on,58,0,60
2,note_on,53,44,0
2,note_on,53,0,120
2,note_on,46,41,0
2,note_on,46,0,34
2,note_on,53,45,0
2,note_on,53,0,120
2,note_on,58,40,0
2,note_on,58,0,240
2,note_on,52,45,0
2,note_on,52,0,120
2,note_on,46,45,0
2,note_on,51,45,0
2,note_on,51,0,114
2,note_on,46,0,0
2,note_on,37,49,0
2,note_on,44,59,0
2,note_on,61,53,120
2,note_on,61,0,90
2,note_on,58,53,150
2,note_on,58,0,90
2,note_on,61,53,150
2,note_on,61,0,90
2,note_on,61,55,150
2,note_on,61,0,90
2,note_on,61,47,150
2,note_on,61,0,90
2,note_on,44,0,106
2,note_on,37,0,0
2,note_on,37,49,0
2,note_on,44,59,0
2,note_on,56,53,130
2,note_on,56,0,90
2,note_on,60,53,150
2,note_on,60,0,90
2,note_on,57,53,150
2,note_on,57,0,90
2,note_on,60,62,150
2,note_on,60,0,90
2,note_on,60,52,150
2,note_on,60,0,90
2,note_on,44,0,75
2,note_on,37,0,0
2,note_on,37,53,0
2,note_on,44,63,0
2,note_on,61,59,49
2,note_on,61,0,90
2,note_on,58,57,150
2,note_on,58,0,90
2,note_on,61,59,150
2,note_on,61,0,90
2,note_on,61,62,150
2,note_on,61,0,90
2,note_on,61,53,150
2,note_on,61,0,90
2,note_on,44,0,42
2,note_on,37,0,0
2,note_on,37,53,0
2,note_on,44,63,0
2,note_on,56,59,152
2,note_on,56,0,90
2,note_on,60,57,150
2,note_on,60,0,90
2,note_on,57,59,150
2,note_on,57,0,90
2,note_on,60,61,150
2,note_on,60,0,90
2,note_on,60,56,150
2,note_on,60,0,90
2,note_on,44,0,75
2,note_on,37,0,0
2,note_on,56,62,0
2,note_on,49,62,0
2,note_on,59,73,0
2,note_on,66,66,49
2,note_on,66,0,90
2,note_on,63,66,150
2,note_on,63,0,90
2,note_on,66,67,150
2,note_on,66,0,90
2,note_on,66,70,150
2,note_on,66,0,90
2,note_on,66,62,150
2,note_on,66,0,90
2,note_on,56,0,42
2,note_on,49,0,0
2,note_on,59,0,0
2,note_on,49,62,0
2,note_on,54,62,0
2,note_on,58,73,0
2,note_on,61,66,152
2,note_on,61,0,90
2,note_on,65,65,150
2,note_on,65,0,90
2,note_on,62,66,150
2,note_on,62,0,90
2,note_on,65,74,150
2,note_on,65,0,90
2,note_on,65,64,150
2,note_on,65,0,90
2,note_on,49,0,75
2,note_on,54,0,0
2,note_on,58,0,0
2,note_on,52,67,0
2,note_on,49,67,0
2,note_on,58,81,0
2,note_on,68,73,49
2,note_on,68,0,90
2,note_on,65,73,150
2,note_on,65,0,90
2,note_on,68,74,150
2,note_on,68,0,90
2,note_on,68,77,150
2,note_on,68,0,90
2,note_on,68,66,150
2,note_on,68,0,90
2,note_on,52,0,42
2,note_on,49,0,0
2,note_on,58,0,0
2,note_on,49,71,0
2,note_on,53,71,0
2,note_on,58,84,0
2,note_on,64,79,152
2,note_on,64,0,90
2,note_on,67,73,150
2,note_on,67,0,90
2,note_on,64,81,150
2,note_on,64,0,90
2,note_on,66,81,150
2,note_on,66,0,90
2,note_on,68,75,150
2,note_on,68,0,90
2,note_on,49,0,75
2,note_on,53,0,0
2,note_on,58,0,0
2,note_on,44,71,0
2,note_on,49,71,0
2,note_on,54,89,0
2,note_on,54,0,90
2,note_on,49,0,0
2,note_on,44,0,0
2,note_on,82,99,217
2,note_on,78,89,0
2,note_on,78,0,56
2,note_on,82,0,0
2,note_on,62,64,270
2,note_on,65,72,0
2,note_on,65,0,73
2,note_on,62,0,0
2,note_on,65,60,150
2,note_on,69,66,0
2,note_on,69,0,30
2,note_on,65,0,0
2,note_on,44,60,74
2,note_on,49,60,0
2,note_on,53,75,0
2,note_on,53,0,90
2,note_on,49,0,0
2,note_on,44,0,0
2,note_on,77,90,206
2,note_on,80,101,0
2,note_on,80,0,74
2,note_on,77,0,0
2,note_on,65,65,270
2,note_on,68,73,0
2,note_on,68,0,83
2,note_on,65,0,0
2,note_on,61,74,106
2,note_on,65,82,0
2,note_on,65,0,49
2,note_on,61,0,0
2,note_on,56,72,0
2,note_on,61,72,0
2,note_on,66,81,0
2,note_on,66,0,90
2,note_on,61,0,0
2,note_on,56,0,0
2,note_on,94,85,217
2,note_on,90,76,0
2,note_on,90,0,56
2,note_on,94,0,0
2,note_on,74,63,270
2,note_on,77,71,0
2,note_on,77,0,73
2,note_on,74,0,0
2,note_on,77,53,150
2,note_on,81,61,0
2,note_on,81,0,69
2,note_on,77,0,0
2,note_on,56,60,97
2,note_on,61,60,0
2,note_on,65,66,0
2,note_on,65,0,90
2,note_on,61,0,0
2,note_on,56,0,0
2,note_on,89,79,206
2,note_on,92,87,0
2,note_on,92,0,4
2,note_on,89,0,0
2,note_on,77,57,0
2,note_on,80,64,0
2,note_on,80,0,90
2,note_on,77,0,0
2,note_on,73,65,270
2,note_on,77,73,0
2,note_on,77,0,113
2,note_on,73,0,0
2,note_on,66,79,0
2,note_on,63,71,0
2,note_on,58,71,0
2,note_on,58,0,89
2,note_on,63,0,0
2,note_on,66,0,0
2,note_on,49,71,0
2,note_on,49,0,180
2,note_on,66,79,0
2,note_on,63,71,0
2,note_on,58,71,0
2,note_on,58,0,117
2,note_on,63,0,0
2,note_on,66,0,0
2,note_on,37,69,0
2,note_on,37,0,180
2,note_on,56,75,0
2,note_on,63,75,0
2,note_on,66,84,0
2,note_on,66,0,129
2,note_on,63,0,0
2,note_on,56,0,0
2,note_on,49,61,0
2,note_on,49,0,180
2,note_on,56,63,0
2,note_on,63,63,0
2,note_on,66,72,0
2,note_on,66,0,102
2,note_on,63,0,0
2,note_on,56,0,0
2,note_on,37,63,0
2,note_on,37,0,74
2,note_on,65,64,0
2,note_on,61,57,0
2,note_on,56,57,0
2,note_on,56,0,3
2,note_on,61,0,0
2,note_on,65,0,0
2,note_on,49,54,0
2,note_on,49,0,180
2,note_on,66,55,0
2,note_on,63,50,0
2,note_on,57,50,0
2,note_on,57,0,111
2,note_on,63,0,0
2,note_on,66,0,0
2,note_on,37,44,0
2,note_on,37,0,77
2,note_on,65,52,0
2,note_on,61,45,0
2,note_on,58,45,0
2,note_on,58,0,151
2,note_on,61,0,0
2,note_on,65,0,0
2,note_on,49,45,0
2,note_on,62,57,180
2,note_on,59,57,0
2,note_on,56,51,0
2,note_on,56,0,269
2,note_on,49,0,0
2,note_on,62,0,0
2,note_on,59,0,0
2,note_on,66,79,0
2,note_on,63,71,0
2,note_on,58,71,0
2,note_on,58,0,89
2,note_on,63,0,0
2,note_on,66,0,0
2,note_on,49,71,0
2,note_on,49,0,180
2,note_on,66,79,0
2,note_on,63,71,0
2,note_on,58,71,0
2,note_on,58,0,117
2,note_on,63,0,0
2,note_on,66,0,0
2,note_on,37,69,0
2,note_on,37,0,180
2,note_on,56,75,0
2,note_on,63,75,0
2,note_on,66,84,0
2,note_on,66,0,129
2,note_on,63,0,0
2,note_on,56,0,0
2,note_on,49,64,0
2,note_on,49,0,180
2,note_on,56,63,0
2,note_on,63,63,0
2,note_on,66,72,0
2,note_on,66,0,140
2,note_on,63,0,0
2,note_on,56,0,0
2,note_on,37,63,0
2,note_on,37,0,74
2,note_on,65,64,0
2,note_on,61,57,0
2,note_on,56,57,0
2,note_on,56,0,3
2,note_on,61,0,0
2,note_on,65,0,0
2,note_on,49,54,0
2,note_on,49,0,180
2,note_on,66,55,0
2,note_on,63,50,0
2,note_on,57,50,0
2,note_on,57,0,111
2,note_on,63,0,0
2,note_on,66,0,0
2,note_on,37,44,0
2,note_on,37,0,34
2,note_on,65,52,0
2,note_on,61,45,0
2,note_on,58,45,0
2,note_on,58,0,151
2,note_on,61,0,0
2,note_on,65,0,0
2,note_on,49,45,0
2,note_on,49,0,180
2,note_on,62,51,0
2,note_on,71,57,0
2,note_on,68,57,0
2,note_on,59,51,0
2,note_on,59,0,269
2,note_on,62,0,0
2,note_on,71,0,0
2,note_on,68,0,0
2,note_on,37,41,0
2,note_on,37,0,90
2,note_on,44,36,29
2,note_on,44,0,90
2,note_on,37,41,30
2,note_on,37,0,90
2,note_on,44,36,30
2,note_on,44,0,90
2,note_on,37,43,30
2,note_on,37,0,90
2,note_on,44,40,30
2,note_on,44,0,90
2,note_on,37,45,30
2,note_on,37,0,73
2,note_on,44,41,23
2,note_on,44,0,90
2,note_on,49,41,30
2,note_on,49,0,90
2,note_on,56,44,30
2,note_on,56,0,90
2,note_on,49,41,30
2,note_on,49,0,90
2,note_on,44,41,30
2,note_on,44,0,90
2,note_on,37,41,30
2,note_on,37,0,47
2,note_on,44,36,30
2,note_on,44,0,90
2,note_on,37,41,30
2,note_on,37,0,90
2,note_on,44,36,30
2,note_on,44,0,90
2,note_on,37,43,30
2,note_on,37,0,90
2,note_on,44,40,30
2,note_on,44,0,90
2,note_on,37,45,30
2,note_on,37,0,3
2,note_on,44,41,30
2,note_on,44,0,90
2,note_on,49,41,30
2,note_on,49,0,90
2,note_on,56,44,30
2,note_on,56,0,90
2,note_on,49,41,30
2,note_on,49,0,90
2,note_on,44,41,30
2,note_on,44,0,90
2,note_on,37,41,30
2,note_on,37,0,38
2,note_on,44,36,30
2,note_on,44,0,90
2,note_on,37,41,30
2,note_on,37,0,90
2,note_on,44,36,30
2,note_on,44,0,90
2,note_on,37,43,30
2,note_on,37,0,90
2,note_on,44,40,30
2,note_on,44,0,90
2,note_on,37,45,30
2,note_on,37,0,68
2,note_on,44,41,23
2,note_on,44,0,90
2,note_on,49,41,30
2,note_on,49,0,90
2,note_on,56,44,30
2,note_on,56,0,90
2,note_on,49,41,30
2,note_on,49,0,90
2,note_on,44,41,30
2,note_on,44,0,90
2,note_on,37,45,30
2,note_on,37,0,23
2,note_on,44,41,30
2,note_on,44,0,90
2,note_on,49,41,30
2,note_on,49,0,90
2,note_on,56,44,30
2,note_on,56,0,90
2,note_on,49,41,30
2,note_on,49,0,90
2,note_on,44,41,30
2,note_on,44,0,90
2,note_on,37,45,30
2,note_on,37,0,27
2,note_on,44,41,30
2,note_on,44,0,90
2,note_on,49,41,30
2,note_on,49,0,90
2,note_on,56,44,30
2,note_on,56,0,90
2,note_on,49,41,30
2,note_on,49,0,90
2,note_on,44,41,30
2,note_on,44,0,90
2,note_on,37,43,30
2,note_on,49,37,29
2,note_on,49,0,90
2,note_on,37,0,30
2,note_on,54,64,0
2,note_on,42,39,120
2,note_on,42,0,90
2,note_on,54,0,30
2,note_on,51,62,0
2,note_on,39,42,120
2,note_on,39,0,90
2,note_on,51,0,30
2,note_on,37,47,0
2,note_on,49,43,120
2,note_on,49,0,90
2,note_on,37,0,30
2,note_on,56,72,0
2,note_on,44,45,120
2,note_on,44,0,90
2,note_on,56,0,30
2,note_on,60,67,0
2,note_on,48,46,120
2,note_on,48,0,90
2,note_on,60,0,30
2,note_on,37,45,0
2,note_on,49,42,29
2,note_on,49,0,90
2,note_on,37,0,30
2,note_on,56,73,0
2,note_on,44,43,120
2,note_on,44,0,90
2,note_on,56,0,30
2,note_on,53,67,0
2,note_on,41,45,120
2,note_on,41,0,90
2,note_on,53,0,30
2,note_on,37,53,0
2,note_on,49,46,48
2,note_on,49,0,90
2,note_on,37,0,30
2,note_on,58,80,0
2,note_on,46,51,120
2,note_on,46,0,90
2,note_on,58,0,30
2,note_on,61,72,0
2,note_on,49,47,120
2,note_on,49,0,90
2,note_on,61,0,30
2,note_on,37,51,0
2,note_on,49,45,29
2,note_on,49,0,90
2,note_on,37,0,30
2,note_on,58,83,0
2,note_on,46,46,120
2,note_on,46,0,90
2,note_on,58,0,30
2,note_on,54,81,0
2,note_on,42,52,120
2,note_on,42,0,90
2,note_on,54,0,30
2,note_on,37,59,0
2,note_on,49,53,45
2,note_on,49,0,90
2,note_on,37,0,30
2,note_on,63,89,0
2,note_on,51,57,120
2,note_on,51,0,90
2,note_on,63,0,30
2,note_on,66,84,0
2,note_on,54,57,120
2,note_on,54,0,90
2,note_on,66,0,30
2,note_on,37,59,0
2,note_on,49,52,29
2,note_on,49,0,90
2,note_on,37,0,30
2,note_on,58,97,0
2,note_on,46,53,120
2,note_on,46,0,90
2,note_on,58,0,30
2,note_on,60,89,0
2,note_on,48,59,120
2,note_on,48,0,90
2,note_on,60,0,30
2,note_on,37,70,0
2,note_on,49,62,69
2,note_on,49,0,90
2,note_on,37,0,30
2,note_on,60,97,0
2,note_on,48,66,120
2,note_on,48,0,90
2,note_on,60,0,30
2,note_on,61,92,0
2,note_on,49,63,120
2,note_on,61,0,120
2,note_on,50,66,0
2,note_on,62,74,0
2,note_on,57,74,0
2,note_on,54,66,0
2,note_on,54,0,217
2,note_on,62,0,0
2,note_on,49,0,0
2,note_on,50,0,0
2,note_on,57,0,0
2,note_on,37,69,0
2,note_on,49,69,0
2,note_on,49,0,326
2,note_on,37,0,0
2,note_on,66,71,0
2,note_on,62,71,0
2,note_on,56,63,0
2,note_on,56,0,343
2,note_on,62,0,0
2,note_on,66,0,0
2,note_on,37,62,0
2,note_on,49,69,0
2,note_on,49,0,74
2,note_on,37,0,0
2,note_on,64,79,0
2,note_on,61,79,0
2,note_on,57,69,0
2,note_on,57,0,206
2,note_on,61,0,0
2,note_on,64,0,0
2,note_on,37,62,0
2,note_on,49,69,0
2,note_on,49,0,344
2,note_on,37,0,0
2,note_on,68,71,0
2,note_on,64,71,0
2,note_on,61,63,0
2,note_on,56,63,0
2,note_on,56,0,353
2,note_on,68,0,0
2,note_on,64,0,0
2,note_on,61,0,0
2,note_on,67,69,0
2,note_on,64,69,0
2,note_on,61,62,0
2,note_on,57,62,0
2,note_on,57,0,162
2,note_on,67,0,0
2,note_on,64,0,0
2,note_on,61,0,0
2,note_on,55,36,0
2,note_on,58,42,0
2,note_on,58,0,56
2,note_on,55,0,0
2,note_on,54,34,30
2,note_on,57,39,0
2,note_on,57,0,90
2,note_on,54,0,0
2,note_on,52,34,30
2,note_on,55,39,0
2,note_on,55,0,90
2,note_on,52,0,0
2,note_on,50,32,30
2,note_on,54,36,0
2,note_on,37,53,240
2,note_on,49,53,0
2,note_on,54,0,120
2,note_on,50,0,0
2,note_on,55,55,0
2,note_on,55,0,15
2,note_on,56,57,30
2,note_on,56,0,90
2,note_on,57,60,30
2,note_on,57,0,90
2,note_on,58,54,30
2,note_on,58,0,90
2,note_on,59,53,30
2,note_on,59,0,90
2,note_on,61,50,30
2,note_on,61,0,90
2,note_on,37,0,30
2,note_on,49,0,0
2,note_on,61,47,0
2,note_on,56,40,74
2,note_on,56,0,90
2,note_on,49,40,30
2,note_on,49,0,90
2,note_on,61,0,30
2,note_on,63,46,0
2,note_on,54,40,40
2,note_on,54,0,90
2,note_on,49,41,30
2,note_on,49,0,90
2,note_on,63,0,30
2,note_on,65,39,0
2,note_on,53,36,120
2,note_on,53,0,90
2,note_on,49,32,30
2,note_on,65,0,120
2,note_on,59,42,0
2,note_on,56,42,0
2,note_on,56,0,246
2,note_on,59,0,0
2,note_on,49,0,0
2,note_on,66,74,0
2,note_on,62,74,0
2,note_on,57,66,0
2,note_on,54,66,0
2,note_on,54,0,217
2,note_on,66,0,0
2,note_on,62,0,0
2,note_on,57,0,0
2,note_on,37,62,0
2,note_on,49,69,0
2,note_on,49,0,326
2,note_on,37,0,0
2,note_on,68,71,0
2,note_on,66,71,0
2,note_on,62,63,0
2,note_on,56,63,0
2,note_on,56,0,343
2,note_on,68,0,0
2,note_on,66,0,0
2,note_on,62,0,0
2,note_on,37,62,0
2,note_on,49,69,0
2,note_on,49,0,74
2,note_on,37,0,0
2,note_on,69,79,0
2,note_on,64,79,0
2,note_on,61,69,0
2,note_on,57,69,0
2,note_on,57,0,300
2,note_on,69,0,0
2,note_on,64,0,0
2,note_on,61,0,0
2,note_on,37,62,0
2,note_on,49,69,0
2,note_on,49,0,274
2,note_on,37,0,0
2,note_on,68,71,0
2,note_on,64,71,0
2,note_on,61,63,0
2,note_on,56,63,0
2,note_on,56,0,353
2,note_on,68,0,0
2,note_on,64,0,0
2,note_on,61,0,0
2,note_on,67,69,0
2,note_on,64,69,0
2,note_on,61,62,0
2,note_on,57,62,0
2,note_on,57,0,162
2,note_on,67,0,0
2,note_on,64,0,0
2,note_on,61,0,0
2,note_on,67,36,0
2,note_on,70,42,0
2,note_on,70,0,56
2,note_on,67,0,0
2,note_on,66,34,30
2,note_on,69,39,0
2,note_on,69,0,90
2,note_on,66,0,0
2,note_on,64,39,30
2,note_on,67,39,0
2,note_on,67,0,90
2,note_on,64,0,0
2,note_on,62,32,30
2,note_on,66,36,0
2,note_on,49,54,240
2,note_on,61,54,0
2,note_on,66,0,86
2,note_on,62,0,0
2,note_on,67,56,0
2,note_on,67,0,61
2,note_on,68,60,30
2,note_on,68,0,90
2,note_on,69,59,30
2,note_on,69,0,90
2,note_on,70,56,30
2,note_on,70,0,90
2,note_on,71,54,30
2,note_on,71,0,90
2,note_on,73,52,30
2,note_on,73,0,90
2,note_on,49,0,30
2,note_on,61,0,0
2,note_on,73,50,0
2,note_on,68,39,17
2,note_on,68,0,90
2,note_on,61,39,30
2,note_on,61,0,90
2,note_on,73,0,30
2,note_on,75,45,0
2,note_on,66,39,69
2,note_on,66,0,79
2,note_on,61,39,30
2,note_on,61,0,90
2,note_on,75,0,30
2,note_on,77,34,0
2,note_on,65,33,120
2,note_on,65,0,90
2,note_on,61,29,30
2,note_on,77,0,120
2,note_on,69,37,0
2,note_on,69,0,246
2,note_on,61,0,0
2,note_on,82,52,0
2,note_on,78,45,0
2,note_on,78,0,261
2,note_on,82,0,0
2,note_on,73,53,0
2,note_on,80,60,0
2,note_on,80,0,219
2,note_on,73,0,0
2,note_on,65,52,0
2,note_on,58,45,0
2,note_on,58,0,254
2,note_on,65,0,0
2,note_on,55,52,0
2,note_on,58,59,0
2,note_on,58,0,183
2,note_on,55,0,0
2,note_on,29,72,0
2,note_on,41,72,0
2,note_on,53,86,0
2,note_on,53,0,28
2,note_on,41,0,0
2,note_on,29,0,0
2,note_on,27,69,0
2,note_on,39,69,0
2,note_on,51,81,0
2,note_on,51,0,120
2,note_on,39,0,0
2,note_on,27,0,0
2,note_on,29,71,0
2,note_on,41,71,0
2,note_on,53,84,0
2,note_on,53,0,120
2,note_on,41,0,0
2,note_on,29,0,0
2,note_on,25,74,0
2,note_on,37,74,0
2,note_on,49,89,0
2,note_on,49,0,2089
2,note_on,37,0,0
2,note_on,25,0,0
2,note_on,49,42,160
2,note_on,32,41,520
2,note_on,44,41,0
2,note_on,44,0,550
2,note_on,32,0,0
2,note_on,30,36,0
2,note_on,42,36,0
2,note_on,42,0,500
2,note_on,30,0,0
2,note_on,49,0,0
2,note_on,29,43,0
2,note_on,41,43,0
2,note_on,50,43,0
2,note_on,50,0,510
2,note_on,41,0,0
2,note_on,29,0,0
2,note_on,28,31,0
2,note_on,40,31,0
2,note_on,50,31,0
2,note_on,33,36,69
2,note_on,33,0,120
2,note_on,45,34,0
2,note_on,45,0,120
2,note_on,49,36,0
2,note_on,49,0,120
2,note_on,55,36,0
2,note_on,55,0,120
2,note_on,57,36,0
2,note_on,57,0,120
2,note_on,28,0,0
2,note_on,40,0,0
2,note_on,50,0,0
2,note_on,26,41,0
2,note_on,26,0,240
2,note_on,38,32,480
2,note_on,54,36,0
2,note_on,54,0,557
2,note_on,38,0,0
2,note_on,38,26,0
2,note_on,54,30,0
2,note_on,26,30,529
2,note_on,26,0,240
2,note_on,54,0,388
2,note_on,38,0,0
2,note_on,38,26,0
2,note_on,54,30,0
2,note_on,54,0,1267
2,note_on,38,0,0
2,note_on,38,26,0
2,note_on,54,30,0
2,note_on,54,0,551
2,note_on,38,0,0
2,note_on,26,31,0
2,note_on,26,0,107
2,note_on,38,26,440
2,note_on,54,30,0
2,note_on,54,0,1267
2,note_on,38,0,0
2,note_on,38,26,0
2,note_on,54,30,0
2,note_on,54,0,791
2,note_on,38,0,0
2,note_on,45,44,200
2,note_on,45,0,240
2,note_on,47,46,0
2,note_on,47,0,653
2,note_on,38,32,0
2,note_on,45,32,0
2,note_on,45,0,221
2,note_on,38,0,0
2,note_on,69,36,240
2,note_on,67,36,0
2,note_on,61,30,0
2,note_on,61,0,233
2,note_on,67,0,480
2,note_on,69,0,0
2,note_on,67,31,0
2,note_on,69,31,0
2,note_on,69,0,593
2,note_on,67,0,0
2,note_on,61,26,0
2,note_on,67,31,0
2,note_on,69,31,0
2,note_on,69,0,221
2,note_on,67,0,0
2,note_on,61,0,0
2,note_on,38,26,328
2,note_on,45,31,0
2,note_on,45,0,240
2,note_on,38,0,0
2,note_on,26,24,0
2,note_on,38,27,0
2,note_on,38,0,240
2,note_on,26,0,0
2,note_on,69,36,88
2,note_on,67,36,0
2,note_on,61,30,0
2,note_on,61,0,162
2,note_on,67,0,480
2,note_on,69,0,0
2,note_on,67,31,0
2,note_on,69,31,0
2,note_on,69,0,480
2,note_on,67,0,0
2,note_on,61,26,0
2,note_on,67,31,0
2,note_on,69,31,0
2,note_on,69,0,240
2,note_on,67,0,0
2,note_on,61,0,0
2,note_on,38,25,366
2,note_on,45,30,0
2,note_on,45,0,240
2,note_on,38,0,0
2,note_on,26,24,0
2,note_on,38,27,0
2,note_on,38,0,240
2,note_on,26,0,0
2,note_on,69,36,126
2,note_on,67,36,0
2,note_on,61,30,0
2,note_on,61,0,162
2,note_on,67,0,0
2,note_on,69,0,0
2,note_on,49,26,543
2,note_on,52,31,0
2,note_on,52,0,226
2,note_on,49,0,0
2,note_on,47,29,0
2,note_on,50,29,0
2,note_on,54,35,0
2,note_on,54,0,1067
2,note_on,50,0,0
2,note_on,47,0,0
2,note_on,62,41,0
2,note_on,59,34,0
2,note_on,59,0,240
2,note_on,62,0,0
2,note_on,62,44,0
2,note_on,59,36,0
2,note_on,59,0,1200
2,note_on,62,0,0
2,note_on,62,47,0
2,note_on,58,47,0
2,note_on,58,0,540
2,note_on,62,0,0
2,note_on,45,42,0
2,note_on,55,42,23
2,note_on,57,42,30
2,note_on,57,0,360
2,note_on,55,0,0
2,note_on,45,0,0
2,note_on,38,41,0
2,note_on,45,47,0
2,note_on,45,0,162
2,note_on,38,0,0
2,note_on,66,44,0
2,note_on,62,40,80
2,note_on,62,0,80
2,note_on,57,40,0
2,note_on,57,0,80
2,note_on,66,0,0
2,note_on,54,36,0
2,note_on,66,44,0
2,note_on,66,0,166
2,note_on,54,0,0
2,note_on,62,44,0
2,note_on,57,36,0
2,note_on,66,44,0
2,note_on,66,0,240
2,note_on,57,0,0
2,note_on,62,0,0
2,note_on,54,34,0
2,note_on,66,41,0
2,note_on,66,0,240
2,note_on,54,0,0
2,note_on,62,44,0
2,note_on,57,36,0
2,note_on,66,44,0
2,note_on,66,0,240
2,note_on,57,0,0
2,note_on,62,0,0
2,note_on,38,41,0
2,note_on,45,47,0
2,note_on,45,0,148
2,note_on,38,0,0
2,note_on,66,44,0
2,note_on,62,36,80
2,note_on,62,0,80
2,note_on,57,36,0
2,note_on,57,0,53
2,note_on,66,0,0
2,note_on,54,36,0
2,note_on,66,44,0
2,note_on,66,0,233
2,note_on,54,0,0
2,note_on,62,44,0
2,note_on,57,36,0
2,note_on,66,44,0
2,note_on,66,0,240
2,note_on,57,0,0
2,note_on,62,0,0
2,note_on,54,40,0
2,note_on,66,40,0
2,note_on,66,0,240
2,note_on,54,0,0
2,note_on,57,36,0
2,note_on,62,44,0
2,note_on,66,44,0
2,note_on,66,0,88
2,note_on,62,0,0
2,note_on,57,0,0
2,note_on,38,41,0
2,note_on,45,47,0
2,note_on,45,0,240
2,note_on,38,0,0
2,note_on,66,46,0
2,note_on,62,40,80
2,note_on,62,0,80
2,note_on,57,40,0
2,note_on,57,0,80
2,note_on,66,0,0
2,note_on,54,36,0
2,note_on,66,44,0
2,note_on,66,0,240
2,note_on,54,0,0
2,note_on,62,44,0
2,note_on,57,36,0
2,note_on,66,44,0
2,note_on,66,0,148
2,note_on,57,0,0
2,note_on,62,0,0
2,note_on,54,31,0
2,note_on,66,37,0
2,note_on,66,0,240
2,note_on,54,0,0
2,note_on,62,36,0
2,note_on,57,30,0
2,note_on,66,36,0
2,note_on,66,0,240
2,note_on,57,0,0
2,note_on,62,0,0
2,note_on,38,47,0
2,note_on,38,0,165
2,note_on,66,44,0
2,note_on,62,36,80
2,note_on,62,0,80
2,note_on,58,36,0
2,note_on,58,0,80
2,note_on,66,0,0
2,note_on,54,36,0
2,note_on,66,44,0
2,note_on,66,0,203
2,note_on,54,0,0
2,note_on,62,44,0
2,note_on,58,36,0
2,note_on,66,44,0
2,note_on,66,0,240
2,note_on,58,0,0
2,note_on,62,0,0
2,note_on,54,34,0
2,note_on,66,41,0
2,note_on,66,0,240
2,note_on,54,0,0
2,note_on,62,44,0
2,note_on,58,36,0
2,note_on,66,44,0
2,note_on,66,0,176
2,note_on,58,0,0
2,note_on,62,0,0
2,note_on,66,44,0
2,note_on,62,36,80
2,note_on,62,0,80
2,note_on,58,36,0
2,note_on,58,0,80
2,note_on,66,0,0
2,note_on,54,36,0
2,note_on,66,44,0
2,note_on,66,0,240
2,note_on,54,0,0
2,note_on,62,44,0
2,note_on,59,36,0
2,note_on,66,44,0
2,note_on,66,0,137
2,note_on,59,0,0
2,note_on,62,0,0
2,note_on,54,34,0
2,note_on,66,41,0
2,note_on,66,0,240
2,note_on,54,0,0
2,note_on,62,44,0
2,note_on,59,36,0
2,note_on,66,44,0
2,note_on,66,0,240
2,note_on,59,0,0
2,note_on,62,0,0
2,note_on,38,47,0
2,note_on,38,0,168
2,note_on,66,52,0
2,note_on,62,47,80
2,note_on,62,0,80
2,note_on,58,45,0
2,note_on,58,0,80
2,note_on,66,0,0
2,note_on,54,36,0
2,note_on,66,44,0
2,note_on,66,0,165
2,note_on,54,0,0
2,note_on,62,44,0
2,note_on,58,36,0
2,note_on,66,44,0
2,note_on,66,0,240
2,note_on,58,0,0
2,note_on,62,0,0
2,note_on,54,34,0
2,note_on,66,41,0
2,note_on,66,0,240
2,note_on,54,0,0
2,note_on,62,44,0
2,note_on,58,36,0
2,note_on,66,44,0
2,note_on,66,0,144
2,note_on,58,0,0
2,note_on,62,0,0
2,note_on,66,44,0
2,note_on,62,36,80
2,note_on,62,0,80
2,note_on,58,36,0
2,note_on,58,0,80
2,note_on,66,0,0
2,note_on,54,36,0
2,note_on,66,44,0
2,note_on,66,0,191
2,note_on,54,0,0
2,note_on,62,44,0
2,note_on,59,36,0
2,note_on,66,44,0
2,note_on,66,0,240
2,note_on,59,0,0
2,note_on,62,0,0
2,note_on,54,34,0
2,note_on,66,41,0
2,note_on,66,0,240
2,note_on,54,0,0
2,note_on,62,44,0
2,note_on,59,36,0
2,note_on,66,44,0
2,note_on,66,0,240
2,note_on,59,0,0
2,note_on,62,0,0
2,note_on,50,47,0
2,note_on,38,41,0
2,note_on,38,0,134
2,note_on,50,0,0
2,note_on,66,46,0
2,note_on,62,41,80
2,note_on,62,0,80
2,note_on,57,41,0
2,note_on,57,0,80
2,note_on,66,0,0
2,note_on,54,36,0
2,note_on,66,44,0
2,note_on,66,0,203
2,note_on,54,0,0
2,note_on,62,50,0
2,note_on,56,42,0
2,note_on,66,50,0
2,note_on,66,0,240
2,note_on,56,0,0
2,note_on,62,0,0
2,note_on,54,40,0
2,note_on,66,46,0
2,note_on,66,0,240
2,note_on,54,0,0
2,note_on,62,45,0
2,note_on,56,37,0
2,note_on,66,45,0
2,note_on,66,0,240
2,note_on,56,0,0
2,note_on,62,0,0
2,note_on,37,51,0
2,note_on,49,51,0
2,note_on,49,0,237
2,note_on,37,0,0
2,note_on,58,30,240
2,note_on,49,30,0
2,note_on,49,0,713
2,note_on,58,0,0
2,note_on,49,26,0
2,note_on,59,26,0
2,note_on,59,0,586
2,note_on,49,0,0
2,note_on,56,26,0
2,note_on,49,26,0
2,note_on,59,26,0
2,note_on,59,0,328
2,note_on,49,0,0
2,note_on,56,0,0
2,note_on,41,29,0
2,note_on,49,29,0
2,note_on,41,0,240
2,note_on,42,35,0
2,note_on,42,0,88
2,note_on,49,0,0
2,note_on,49,26,0
2,note_on,58,26,0
2,note_on,58,0,642
2,note_on,49,0,0
2,note_on,49,26,0
2,note_on,59,26,0
2,note_on,59,0,71
2,note_on,49,0,0
2,note_on,59,22,476
2,note_on,49,22,0
2,note_on,56,22,0
2,note_on,56,0,240
2,note_on,49,0,0
2,note_on,59,0,0
2,note_on,49,23,366
2,note_on,54,23,0
2,note_on,59,23,0
2,note_on,59,0,480
2,note_on,54,0,0
2,note_on,49,0,0
2,note_on,49,25,126
2,note_on,53,25,0
2,note_on,59,25,0
2,note_on,59,0,162
2,note_on,53,0,0
2,note_on,49,0,0
2,note_on,53,31,365
2,note_on,49,26,0
2,note_on,49,0,240
2,note_on,53,0,0
2,note_on,47,29,0
2,note_on,54,35,0
2,note_on,54,0,971
2,note_on,47,0,0
2,note_on,44,35,0
2,note_on,51,35,0
2,note_on,51,0,81
2,note_on,44,0,0
2,note_on,39,25,0
2,note_on,46,27,30
2,note_on,51,29,30
2,note_on,51,0,565
2,note_on,46,0,0
2,note_on,39,0,0
2,note_on,66,36,5
2,note_on,54,36,0
2,note_on,54,0,641
2,note_on,66,0,0
2,note_on,54,32,5
2,note_on,66,32,0
2,note_on,66,0,357
2,note_on,54,0,0
2,note_on,51,40,0
2,note_on,57,40,30
2,note_on,57,0,330
2,note_on,51,0,0
2,note_on,40,53,0
2,note_on,40,0,448
2,note_on,52,33,0
2,note_on,59,33,0
2,note_on,64,33,0
2,note_on,64,0,520
2,note_on,59,0,0
2,note_on,52,0,0
2,note_on,59,40,0
2,note_on,52,40,0
2,note_on,67,53,0
2,note_on,67,0,226
2,note_on,66,56,0
2,note_on,66,0,229
2,note_on,67,47,0
2,note_on,67,0,240
2,note_on,52,0,0
2,note_on,59,0,0
2,note_on,52,34,0
2,note_on,59,34,0
2,note_on,64,47,0
2,note_on,64,0,642
2,note_on,59,0,0
2,note_on,52,0,0
2,note_on,47,34,0
2,note_on,47,0,49
2,note_on,40,53,0
2,note_on,40,0,381
2,note_on,52,36,0
2,note_on,59,36,0
2,note_on,71,56,240
2,note_on,71,0,226
2,note_on,69,53,0
2,note_on,69,0,120
2,note_on,59,0,0
2,note_on,52,0,0
2,note_on,67,53,0
2,note_on,67,0,240
2,note_on,66,55,0
2,note_on,66,0,147
2,note_on,67,53,0
2,note_on,67,0,240
2,note_on,52,36,0
2,note_on,59,36,0
2,note_on,64,51,0
2,note_on,64,0,573
2,note_on,59,0,0
2,note_on,52,0,0
2,note_on,52,36,0
2,note_on,62,41,0
2,note_on,59,36,0
2,note_on,45,32,210
2,note_on,59,0,30
2,note_on,52,0,0
2,note_on,62,0,0
2,note_on,62,45,0
2,note_on,62,0,374
2,note_on,59,44,0
2,note_on,59,0,240
2,note_on,45,0,0
2,note_on,57,51,0
2,note_on,61,51,0
2,note_on,61,0,219
2,note_on,59,47,0
2,note_on,59,0,120
2,note_on,57,45,0
2,note_on,57,0,240
2,note_on,57,0,0
2,note_on,40,53,0
2,note_on,40,0,93
2,note_on,52,36,0
2,note_on,59,36,0
2,note_on,64,47,13
2,note_on,64,0,573
2,note_on,59,0,0
2,note_on,52,0,0
2,note_on,52,30,0
2,note_on,62,36,0
2,note_on,59,30,0
2,note_on,45,44,210
2,note_on,59,0,30
2,note_on,52,0,0
2,note_on,62,0,0
2,note_on,62,44,0
2,note_on,62,0,374
2,note_on,59,42,0
2,note_on,59,0,240
2,note_on,45,0,0
2,note_on,57,40,0
2,note_on,64,52,0
2,note_on,64,0,219
2,note_on,62,47,0
2,note_on,62,0,120
2,note_on,61,45,0
2,note_on,61,0,240
2,note_on,57,0,0
2,note_on,45,53,0
2,note_on,45,0,472
2,note_on,64,35,0
2,note_on,61,35,0
2,note_on,61,0,120
2,note_on,64,0,0
2,note_on,64,35,120
2,note_on,62,35,0
2,note_on,40,37,480
2,note_on,40,0,202
2,note_on,62,0,0
2,note_on,64,0,0
2,note_on,33,29,0
2,note_on,45,39,0
2,note_on,45,0,14
2,note_on,33,0,0
2,note_on,67,42,240
2,note_on,69,42,0
2,note_on,57,53,0
2,note_on,57,0,233
2,note_on,61,54,0
2,note_on,61,0,360
2,note_on,62,53,0
2,note_on,62,0,120
2,note_on,69,0,0
2,note_on,67,0,0
2,note_on,67,36,0
2,note_on,64,53,0
2,note_on,69,36,0
2,note_on,64,0,191
2,note_on,61,57,0
2,note_on,61,0,205
2,note_on,69,0,0
2,note_on,67,0,0
2,note_on,61,42,0
2,note_on,69,42,0
2,note_on,67,42,0
2,note_on,57,51,0
2,note_on,57,0,240
2,note_on,61,0,0
2,note_on,69,0,0
2,note_on,67,0,0
2,note_on,62,42,0
2,note_on,69,42,0
2,note_on,67,42,0
2,note_on,59,53,0
2,note_on,59,0,445
2,note_on,62,0,0
2,note_on,69,0,0
2,note_on,67,0,0
2,note_on,40,40,0
2,note_on,40,0,240
2,note_on,45,44,0
2,note_on,33,44,0
2,note_on,33,0,237
2,note_on,45,0,0
2,note_on,67,42,240
2,note_on,69,42,0
2,note_on,57,53,0
2,note_on,57,0,233
2,note_on,61,54,0
2,note_on,61,0,360
2,note_on,62,53,0
2,note_on,62,0,120
2,note_on,69,0,0
2,note_on,67,0,0
2,note_on,67,36,0
2,note_on,64,53,0
2,note_on,69,36,0
2,note_on,64,0,127
2,note_on,61,57,0
2,note_on,61,0,161
2,note_on,69,0,0
2,note_on,67,0,0
2,note_on,61,42,0
2,note_on,69,42,0
2,note_on,67,42,0
2,note_on,57,51,0
2,note_on,57,0,240
2,note_on,61,0,0
2,note_on,69,0,0
2,note_on,67,0,0
2,note_on,62,42,0
2,note_on,69,42,0
2,note_on,67,42,0
2,note_on,59,53,0
2,note_on,59,0,436
2,note_on,62,0,0
2,note_on,69,0,0
2,note_on,67,0,0
2,note_on,40,40,0
2,note_on,40,0,240
2,note_on,45,44,0
2,note_on,33,44,0
2,note_on,33,0,240
2,note_on,45,0,0
2,note_on,45,43,240
2,note_on,52,43,0
2,note_on,57,53,0
2,note_on,57,0,233
2,note_on,52,0,0
2,note_on,45,0,0
2,note_on,57,36,0
2,note_on,61,49,0
2,note_on,61,0,360
2,note_on,62,46,0
2,note_on,62,0,120
2,note_on,57,0,0
2,note_on,64,46,0
2,note_on,57,32,0
2,note_on,64,0,191
2,note_on,61,52,0
2,note_on,61,0,240
2,note_on,57,0,0
2,note_on,59,43,0
2,note_on,71,45,0
2,note_on,71,0,205
2,note_on,59,0,0
2,note_on,61,43,0
2,note_on,69,45,0
2,note_on,67,43,0
2,note_on,57,52,0
2,note_on,57,0,150
2,note_on,61,0,0
2,note_on,69,0,0
2,note_on,67,0,0
2,note_on,55,43,0
2,note_on,62,43,30
2,note_on,67,47,30
2,note_on,71,53,30
2,note_on,71,0,202
2,note_on,55,0,0
2,note_on,62,0,0
2,note_on,67,0,0
2,note_on,43,55,0
2,note_on,43,0,55
2,note_on,50,55,0
2,note_on,50,0,80
2,note_on,55,55,0
2,note_on,55,0,80
2,note_on,47,59,480
2,note_on,47,0,13
2,note_on,54,59,0
2,note_on,54,0,80
2,note_on,59,59,0
2,note_on,59,0,80
2,note_on,46,62,480
2,note_on,46,0,14
2,note_on,56,62,0
2,note_on,56,0,80
2,note_on,62,62,0
2,note_on,62,0,80
2,note_on,45,63,480
2,note_on,45,0,11
2,note_on,55,63,0
2,note_on,55,0,80
2,note_on,61,63,0
2,note_on,61,0,80
2,note_on,50,77,480
2,note_on,38,69,0
2,note_on,38,0,169
2,note_on,50,0,0
2,note_on,54,65,240
2,note_on,57,65,0
2,note_on,66,74,0
2,note_on,66,0,240
2,note_on,57,0,0
2,note_on,54,0,0
2,note_on,52,69,0
2,note_on,57,69,0
2,note_on,64,77,0
2,note_on,64,0,279
2,note_on,57,0,0
2,note_on,52,0,0
2,note_on,54,65,0
2,note_on,66,74,0
2,note_on,66,0,120
2,note_on,54,0,0
2,note_on,50,65,0
2,note_on,62,74,0
2,note_on,62,0,240
2,note_on,50,0,0
2,note_on,26,70,0
2,note_on,38,83,0
2,note_on,38,0,166
2,note_on,26,0,0
2,note_on,69,75,240
2,note_on,66,66,0
2,note_on,62,66,0
2,note_on,57,66,0
2,note_on,57,0,169
2,note_on,69,0,0
2,note_on,66,0,0
2,note_on,62,0,0
2,note_on,69,74,0
2,note_on,66,65,0
2,note_on,62,65,0
2,note_on,57,65,0
2,note_on,38,71,240
2,note_on,50,71,0
2,note_on,57,0,201
2,note_on,62,0,0
2,note_on,69,0,0
2,note_on,66,0,0
2,note_on,71,74,0
2,note_on,66,65,0
2,note_on,62,65,0
2,note_on,59,65,0
2,note_on,59,0,240
2,note_on,66,0,0
2,note_on,71,0,0
2,note_on,62,0,0
2,note_on,69,79,0
2,note_on,66,79,0
2,note_on,62,79,0
2,note_on,57,79,0
2,note_on,57,0,173
2,note_on,38,0,0
2,note_on,69,0,0
2,note_on,50,0,0
2,note_on,62,0,0
2,note_on,66,0,0
2,note_on,67,72,0
2,note_on,55,64,0
2,note_on,55,0,190
2,note_on,67,0,0
2,note_on,66,64,0
2,note_on,54,57,0
2,note_on,54,0,173
2,note_on,66,0,0
2,note_on,64,74,0
2,note_on,57,65,0
2,note_on,52,65,0
2,note_on,52,0,176
2,note_on,57,0,0
2,note_on,64,0,0
2,note_on,66,66,0
2,note_on,54,60,0
2,note_on,54,0,180
2,note_on,66,0,0
2,note_on,50,63,0
2,note_on,57,63,0
2,note_on,62,71,0
2,note_on,62,0,183
2,note_on,57,0,0
2,note_on,50,0,0
2,note_on,38,62,0
2,note_on,50,83,0
2,note_on,50,0,144
2,note_on,38,0,0
2,note_on,66,75,240
2,note_on,57,66,0
2,note_on,54,66,0
2,note_on,54,0,166
2,note_on,57,0,0
2,note_on,66,0,0
2,note_on,66,74,0
2,note_on,57,65,0
2,note_on,54,65,0
2,note_on,38,71,240
2,note_on,50,71,0
2,note_on,54,0,162
2,note_on,66,0,0
2,note_on,57,0,0
2,note_on,64,74,0
2,note_on,58,65,0
2,note_on,54,65,0
2,note_on,52,65,0
2,note_on,52,0,240
2,note_on,58,0,0
2,note_on,64,0,0
2,note_on,54,0,0
2,note_on,64,79,0
2,note_on,58,79,0
2,note_on,54,79,0
2,note_on,52,79,0
2,note_on,52,0,168
2,note_on,50,0,0
2,note_on,64,0,0
2,note_on,38,0,0
2,note_on,54,0,0
2,note_on,58,0,0
2,note_on,50,72,0
2,note_on,38,64,0
2,note_on,38,0,174
2,note_on,50,0,0
2,note_on,54,57,0
2,note_on,61,64,0
2,note_on,49,57,0
2,note_on,49,0,191
2,note_on,61,0,0
2,note_on,54,0,0
2,note_on,62,74,0
2,note_on,54,65,0
2,note_on,50,65,0
2,note_on,50,0,183
2,note_on,54,0,0
2,note_on,62,0,0
2,note_on,54,60,0
2,note_on,61,66,0
2,note_on,49,60,0
2,note_on,49,0,25
2,note_on,61,0,0
2,note_on,54,0,0
2,note_on,47,63,0
2,note_on,54,63,0
2,note_on,59,71,0
2,note_on,59,0,219
2,note_on,54,0,0
2,note_on,47,0,0
2,note_on,26,62,0
2,note_on,38,83,0
2,note_on,38,0,159
2,note_on,26,0,0
2,note_on,66,75,240
2,note_on,57,66,0
2,note_on,54,66,0
2,note_on,54,0,166
2,note_on,57,0,0
2,note_on,66,0,0
2,note_on,66,74,0
2,note_on,57,65,0
2,note_on,54,65,0
2,note_on,38,71,240
2,note_on,50,71,0
2,note_on,54,0,169
2,note_on,66,0,0
2,note_on,57,0,0
2,note_on,64,65,0
2,note_on,58,59,0
2,note_on,54,59,0
2,note_on,52,59,0
2,note_on,52,0,240
2,note_on,58,0,0
2,note_on,64,0,0
2,note_on,54,0,0
2,note_on,64,79,0
2,note_on,58,79,0
2,note_on,54,79,0
2,note_on,52,79,0
2,note_on,52,0,171
2,note_on,50,0,0
2,note_on,64,0,0
2,note_on,38,0,0
2,note_on,54,0,0
2,note_on,58,0,0
2,note_on,50,72,0
2,note_on,38,54,0
2,note_on,38,0,177
2,note_on,50,0,0
2,note_on,54,49,0
2,note_on,61,64,0
2,note_on,49,49,0
2,note_on,49,0,180
2,note_on,61,0,0
2,note_on,54,0,0
2,note_on,62,74,0
2,note_on,54,55,0
2,note_on,50,55,0
2,note_on,50,0,185
2,note_on,54,0,0
2,note_on,62,0,0
2,note_on,54,50,0
2,note_on,61,66,0
2,note_on,49,50,0
2,note_on,49,0,177
2,note_on,61,0,0
2,note_on,54,0,0
2,note_on,47,53,0
2,note_on,54,53,0
2,note_on,59,71,0
2,note_on,59,0,183
2,note_on,54,0,0
2,note_on,47,0,0
2,note_on,45,46,0
2,note_on,38,89,0
2,note_on,45,0,40
2,note_on,46,52,0
2,note_on,46,0,80
2,note_on,49,52,0
2,note_on,49,0,80
2,note_on,38,0,0
2,note_on,50,53,0
2,note_on,50,0,40
2,note_on,52,53,0
2,note_on,52,0,80
2,note_on,53,53,0
2,note_on,53,0,80
2,note_on,54,54,0
2,note_on,54,0,40
2,note_on,55,55,0
2,note_on,55,0,80
2,note_on,56,55,0
2,note_on,56,0,80
2,note_on,57,55,0
2,note_on,57,0,31
2,note_on,58,56,0
2,note_on,58,0,80
2,note_on,61,57,0
2,note_on,61,0,80
2,note_on,62,57,0
2,note_on,62,0,37
2,note_on,64,59,0
2,note_on,64,0,80
2,note_on,65,61,0
2,note_on,65,0,80
2,note_on,66,66,0
2,note_on,66,0,74
2,note_on,38,74,63
2,note_on,50,89,0
2,note_on,50,0,223
2,note_on,38,0,0
2,note_on,64,83,0
2,note_on,54,63,0
2,note_on,52,63,0
2,note_on,52,0,63
2,note_on,54,0,0
2,note_on,64,0,0
2,note_on,61,79,120
2,note_on,49,61,0
2,note_on,49,0,68
2,note_on,61,0,0
2,note_on,54,63,120
2,note_on,50,63,0
2,note_on,62,82,0
2,note_on,62,0,177
2,note_on,50,0,0
2,note_on,49,62,0
2,note_on,61,80,0
2,note_on,61,0,188
2,note_on,49,0,0
2,note_on,54,0,0
2,note_on,47,62,0
2,note_on,54,72,0
2,note_on,59,80,0
2,note_on,59,0,71
2,note_on,54,0,0
2,note_on,47,0,0
2,note_on,45,46,120
2,note_on,38,89,0
2,note_on,45,0,28
2,note_on,46,52,0
2,note_on,46,0,80
2,note_on,49,52,0
2,note_on,49,0,80
2,note_on,38,0,0
2,note_on,50,53,0
2,note_on,50,0,45
2,note_on,52,53,0
2,note_on,52,0,80
2,note_on,53,53,0
2,note_on,53,0,80
2,note_on,54,54,0
2,note_on,54,0,37
2,note_on,55,55,0
2,note_on,55,0,80
2,note_on,56,55,0
2,note_on,56,0,80
2,note_on,57,55,0
2,note_on,57,0,25
2,note_on,58,56,0
2,note_on,58,0,80
2,note_on,61,57,0
2,note_on,61,0,80
2,note_on,62,57,0
2,note_on,62,0,37
2,note_on,64,59,0
2,note_on,64,0,80
2,note_on,65,61,0
2,note_on,65,0,80
2,note_on,66,66,0
2,note_on,66,0,63
2,note_on,38,74,63
2,note_on,50,89,0
2,note_on,50,0,191
2,note_on,38,0,0
2,note_on,64,83,0
2,note_on,54,63,0
2,note_on,52,63,0
2,note_on,52,0,54
2,note_on,54,0,0
2,note_on,64,0,0
2,note_on,61,79,120
2,note_on,49,61,0
2,note_on,49,0,65
2,note_on,61,0,0
2,note_on,54,63,120
2,note_on,50,63,0
2,note_on,62,82,0
2,note_on,62,0,183
2,note_on,50,0,0
2,note_on,49,62,0
2,note_on,61,80,0
2,note_on,61,0,188
2,note_on,49,0,0
2,note_on,54,0,0
2,note_on,47,62,0
2,note_on,54,72,0
2,note_on,59,80,0
2,note_on,59,0,68
2,note_on,54,0,0
2,note_on,47,0,0
2,note_on,49,46,0
2,note_on,42,89,0
2,note_on,49,0,80
2,note_on,50,52,0
2,note_on,50,0,71
2,note_on,53,52,0
2,note_on,53,0,80
2,note_on,42,0,0
2,note_on,54,53,0
2,note_on,54,0,41
2,note_on,56,53,0
2,note_on,56,0,80
2,note_on,57,53,0
2,note_on,57,0,80
2,note_on,58,54,0
2,note_on,58,0,41
2,note_on,59,55,0
2,note_on,59,0,80
2,note_on,60,55,0
2,note_on,60,0,80
2,note_on,61,55,0
2,note_on,61,0,41
2,note_on,62,56,0
2,note_on,62,0,80
2,note_on,65,57,0
2,note_on,65,0,80
2,note_on,66,57,0
2,note_on,66,0,37
2,note_on,68,59,0
2,note_on,68,0,80
2,note_on,69,61,0
2,note_on,69,0,11
2,note_on,70,66,0
2,note_on,70,0,109
2,note_on,42,74,63
2,note_on,54,89,0
2,note_on,54,0,180
2,note_on,42,0,0
2,note_on,68,83,0
2,note_on,58,63,0
2,note_on,56,63,0
2,note_on,56,0,69
2,note_on,58,0,0
2,note_on,68,0,0
2,note_on,58,61,120
2,note_on,65,79,0
2,note_on,53,61,0
2,note_on,53,0,69
2,note_on,65,0,0
2,note_on,58,0,0
2,note_on,58,63,120
2,note_on,51,63,0
2,note_on,66,82,0
2,note_on,66,0,180
2,note_on,51,0,0
2,note_on,53,62,0
2,note_on,65,80,0
2,note_on,65,0,194
2,note_on,53,0,0
2,note_on,58,0,0
2,note_on,51,62,0
2,note_on,58,72,0
2,note_on,63,80,0
2,note_on,63,0,60
2,note_on,58,0,0
2,note_on,51,0,0
2,note_on,37,72,0
2,note_on,42,81,0
2,note_on,30,72,0
2,note_on,30,0,148
2,note_on,42,0,0
2,note_on,37,0,0
2,note_on,66,61,0
2,note_on,61,66,0
2,note_on,54,61,0
2,note_on,54,0,101
2,note_on,61,0,0
2,note_on,66,0,0
2,note_on,66,65,120
2,note_on,60,74,0
2,note_on,54,65,0
2,note_on,54,0,120
2,note_on,60,0,0
2,note_on,66,0,0
2,note_on,66,72,120
2,note_on,58,81,0
2,note_on,54,72,0
2,note_on,54,0,5
2,note_on,58,0,0
2,note_on,66,0,0
2,note_on,66,67,120
2,note_on,60,76,0
2,note_on,54,67,0
2,note_on,54,0,120
2,note_on,60,0,0
2,note_on,66,0,0
2,note_on,66,63,120
2,note_on,61,73,0
2,note_on,54,63,0
2,note_on,54,0,120
2,note_on,61,0,0
2,note_on,66,0,0
2,note_on,36,79,0
2,note_on,42,89,0
2,note_on,30,79,0
2,note_on,30,0,177
2,note_on,42,0,0
2,note_on,36,0,0
2,note_on,54,77,0
2,note_on,66,77,0
2,note_on,66,0,100
2,note_on,54,0,0
2,note_on,58,79,114
2,note_on,70,79,0
2,note_on,70,0,120
2,note_on,58,0,0
2,note_on,60,80,120
2,note_on,72,80,0
2,note_on,72,0,63
2,note_on,60,0,0
2,note_on,62,81,120
2,note_on,74,81,0
2,note_on,74,0,120
2,note_on,62,0,0
2,note_on,64,81,120
2,note_on,76,81,0
2,note_on,76,0,120
2,note_on,64,0,0
2,note_on,29,89,69
2,note_on,36,89,0
2,note_on,41,89,0
2,note_on,41,0,90
2,note_on,36,0,0
2,note_on,29,0,0
2,note_on,89,71,270
2,note_on,89,0,90
2,note_on,77,70,270
2,note_on,77,0,90
2,note_on,65,72,270
2,note_on,65,0,90
2,note_on,53,69,270
2,note_on,53,0,90
2,note_on,41,69,270
2,note_on,41,0,90
2,note_on,29,66,270
2,note_on,41,66,0
2,note_on,41,0,90
2,note_on,29,0,0
2,note_on,65,69,270
2,note_on,65,0,90
2,note_on,56,42,240
2,note_on,56,0,30
2,note_on,57,53,0
2,note_on,60,61,0
2,note_on,60,0,33
2,note_on,57,0,0
2,note_on,52,46,240
2,note_on,52,0,30
2,note_on,53,55,0
2,note_on,57,62,0
2,note_on,57,0,90
2,note_on,53,0,0
2,note_on,44,45,38
2,note_on,44,0,30
2,note_on,45,53,0
2,note_on,45,0,90
2,note_on,40,45,50
2,note_on,40,0,30
2,note_on,41,53,0
2,note_on,41,0,50
2,note_on,45,45,227
2,note_on,45,0,30
2,note_on,46,51,0
2,note_on,46,0,145
2,note_on,49,47,90
2,note_on,49,0,30
2,note_on,50,55,0
2,note_on,50,0,41
2,note_on,52,50,213
2,note_on,52,0,30
2,note_on,53,54,0
2,note_on,53,0,55
2,note_on,57,56,195
2,note_on,57,0,30
2,note_on,62,74,0
2,note_on,58,65,0
2,note_on,58,0,60
2,note_on,62,0,0
2,note_on,80,31,30
2,note_on,80,0,30
2,note_on,81,37,0
2,note_on,84,43,0
2,note_on,84,0,13
2,note_on,81,0,0
2,note_on,76,32,240
2,note_on,76,0,30
2,note_on,77,39,0
2,note_on,81,44,0
2,note_on,81,0,90
2,note_on,77,0,0
2,note_on,68,32,35
2,note_on,68,0,30
2,note_on,69,36,0
2,note_on,69,0,47
2,note_on,64,32,227
2,note_on,64,0,30
2,note_on,65,36,0
2,note_on,65,0,50
2,note_on,69,32,227
2,note_on,69,0,30
2,note_on,70,36,0
2,note_on,70,0,10
2,note_on,72,32,201
2,note_on,72,0,30
2,note_on,73,39,0
2,note_on,73,0,41
2,note_on,76,35,207
2,note_on,76,0,30
2,note_on,77,39,0
2,note_on,77,0,12
2,note_on,81,35,164
2,note_on,81,0,30
2,note_on,85,45,0
2,note_on,82,41,0
2,note_on,82,0,60
2,note_on,85,0,0
2,note_on,65,54,60
2,note_on,68,62,0
2,note_on,68,0,56
2,note_on,65,0,0
2,note_on,63,50,30
2,note_on,67,56,0
2,note_on,67,0,90
2,note_on,63,0,0
2,note_on,62,50,30
2,note_on,65,56,0
2,note_on,65,0,90
2,note_on,62,0,0
2,note_on,60,46,30
2,note_on,63,53,0
2,note_on,52,46,177
2,note_on,61,53,0
2,note_on,61,0,76
2,note_on,52,0,0
2,note_on,63,0,30
2,note_on,60,0,0
2,note_on,60,53,0
2,note_on,53,59,0
2,note_on,53,0,211
2,note_on,54,55,0
2,note_on,54,0,90
2,note_on,60,0,30
2,note_on,60,54,0
2,note_on,55,54,0
2,note_on,55,0,90
2,note_on,60,0,0
2,note_on,56,53,30
2,note_on,56,0,90
2,note_on,57,51,30
2,note_on,57,0,90
2,note_on,64,54,30
2,note_on,58,53,0
2,note_on,64,0,44
2,note_on,65,54,30
2,note_on,65,0,90
2,note_on,58,0,30
2,note_on,66,54,0
2,note_on,66,0,90
2,note_on,67,54,30
2,note_on,61,54,0
2,note_on,67,0,75
2,note_on,68,54,30
2,note_on,68,0,229
2,note_on,61,0,0
2,note_on,70,50,0
2,note_on,66,50,0
2,note_on,70,0,120
2,note_on,54,40,180
2,note_on,61,42,30
2,note_on,66,0,30
2,note_on,70,46,0
2,note_on,70,0,246
2,note_on,61,0,0
2,note_on,54,0,0
2,note_on,73,34,0
2,note_on,76,37,0
2,note_on,76,0,56
2,note_on,73,0,0
2,note_on,71,31,30
2,note_on,75,35,0
2,note_on,75,0,90
2,note_on,71,0,0
2,note_on,70,31,30
2,note_on,73,35,0
2,note_on,73,0,90
2,note_on,70,0,0
2,note_on,68,27,30
2,note_on,71,32,0
2,note_on,60,27,177
2,note_on,69,32,0
2,note_on,69,0,76
2,note_on,60,0,0
2,note_on,71,0,30
2,note_on,68,0,0
2,note_on,68,32,0
2,note_on,61,36,0
2,note_on,61,0,211
2,note_on,62,34,0
2,note_on,62,0,90
2,note_on,68,0,30
2,note_on,68,34,0
2,note_on,63,34,0
2,note_on,63,0,90
2,note_on,68,0,0
2,note_on,64,32,30
2,note_on,64,0,90
2,note_on,65,31,30
2,note_on,65,0,90
2,note_on,72,34,30
2,note_on,66,32,0
2,note_on,72,0,44
2,note_on,73,34,30
2,note_on,73,0,90
2,note_on,66,0,30
2,note_on,74,34,0
2,note_on,74,0,90
2,note_on,75,34,30
2,note_on,69,34,0
2,note_on,75,0,69
2,note_on,76,34,30
2,note_on,76,0,229
2,note_on,69,0,0
2,note_on,78,31,0
2,note_on,74,31,0
2,note_on,78,0,120
2,note_on,74,0,240
2,note_on,81,44,0
2,note_on,78,39,0
2,note_on,78,0,86
2,note_on,81,0,0
2,note_on,45,65,0
2,note_on,50,74,0
2,note_on,55,74,0
2,note_on,55,0,90
2,note_on,50,0,0
2,note_on,45,0,0
2,note_on,83,81,217
2,note_on,79,90,0
2,note_on,79,0,56
2,note_on,83,0,0
2,note_on,66,65,270
2,note_on,63,59,0
2,note_on,63,0,90
2,note_on,66,0,0
2,note_on,70,55,150
2,note_on,66,49,0
2,note_on,66,0,90
2,note_on,70,0,0
2,note_on,45,56,390
2,note_on,50,63,0
2,note_on,54,63,0
2,note_on,54,0,90
2,note_on,50,0,0
2,note_on,45,0,0
2,note_on,78,81,206
2,note_on,81,90,0
2,note_on,81,0,4
2,note_on,78,0,0
2,note_on,66,54,270
2,note_on,69,62,0
2,note_on,69,0,90
2,note_on,66,0,0
2,note_on,62,62,270
2,note_on,66,69,0
2,note_on,66,0,360
2,note_on,62,0,0
2,note_on,57,44,0
2,note_on,62,50,0
2,note_on,67,50,0
2,note_on,67,0,90
2,note_on,62,0,0
2,note_on,57,0,0
2,note_on,91,44,0
2,note_on,95,50,0
2,note_on,95,0,90
2,note_on,91,0,0
2,note_on,78,41,270
2,note_on,75,36,0
2,note_on,75,0,90
2,note_on,78,0,0
2,note_on,82,34,150
2,note_on,78,30,0
2,note_on,78,0,90
2,note_on,82,0,0
2,note_on,57,34,390
2,note_on,62,34,0
2,note_on,66,39,0
2,note_on,66,0,9
2,note_on,62,0,0
2,note_on,57,0,0
2,note_on,90,49,270
2,note_on,93,55,0
2,note_on,93,0,19
2,note_on,90,0,0
2,note_on,78,33,270
2,note_on,81,37,0
2,note_on,81,0,90
2,note_on,78,0,0
2,note_on,74,36,270
2,note_on,78,42,0
2,note_on,78,0,300
2,note_on,74,0,0
2,note_on,50,51,60
2,note_on,55,57,0
2,note_on,59,57,0
2,note_on,59,0,269
2,note_on,55,0,0
2,note_on,50,0,0
2,note_on,38,44,0
2,note_on,50,47,0
2,note_on,50,0,251
2,note_on,38,0,0
2,note_on,67,60,0
2,note_on,64,60,0
2,note_on,57,53,0
2,note_on,57,0,309
2,note_on,64,0,0
2,note_on,67,0,0
2,note_on,38,44,0
2,note_on,50,47,0
2,note_on,50,0,274
2,note_on,38,0,0
2,note_on,50,35,0
2,note_on,57,40,0
2,note_on,62,40,0
2,note_on,62,0,39
2,note_on,57,0,0
2,note_on,50,0,0
2,note_on,62,49,183
2,note_on,67,55,0
2,note_on,64,55,0
2,note_on,64,0,291
2,note_on,67,0,0
2,note_on,66,45,0
2,note_on,66,0,23
2,note_on,62,0,120
2,note_on,50,44,57
2,note_on,59,49,0
2,note_on,59,0,179
2,note_on,50,0,0
2,note_on,52,46,0
2,note_on,55,47,30
2,note_on,62,47,10
2,note_on,67,51,30
2,note_on,67,0,269
2,note_on,52,0,0
2,note_on,55,0,0
2,note_on,62,0,0
2,note_on,35,39,0
2,note_on,47,43,0
2,note_on,52,44,207
2,note_on,55,44,30
2,note_on,62,44,30
2,note_on,47,0,30
2,note_on,35,0,0
2,note_on,67,53,0
2,note_on,67,0,309
2,note_on,62,0,0
2,note_on,52,0,0
2,note_on,55,0,0
2,note_on,34,39,0
2,note_on,46,43,0
2,note_on,52,42,185
2,note_on,57,43,14
2,note_on,61,43,30
2,note_on,46,0,30
2,note_on,34,0,0
2,note_on,67,65,0
2,note_on,67,0,360
2,note_on,61,0,0
2,note_on,52,0,0
2,note_on,57,0,0
2,note_on,33,54,0
2,note_on,45,53,180
2,note_on,45,0,180
2,note_on,49,52,0
2,note_on,33,0,120
2,note_on,49,0,4
2,note_on,52,52,0
2,note_on,52,0,148
2,note_on,55,51,0
2,note_on,55,0,180
2,note_on,57,50,0
2,note_on,57,0,56
2,note_on,61,49,0
2,note_on,61,0,155
2,note_on,64,45,0
2,note_on,64,0,4
2,note_on,67,45,0
2,note_on,67,0,138
2,note_on,73,44,0
2,note_on,73,0,180
2,note_on,76,44,0
2,note_on,76,0,180
2,note_on,79,44,0
2,note_on,79,0,28
2,note_on,82,43,0
2,note_on,82,0,346
2,note_on,52,40,0
2,note_on,58,40,0
2,note_on,60,40,0
2,note_on,67,40,0
2,note_on,67,0,360
2,note_on,52,0,0
2,note_on,58,0,0
2,note_on,60,0,0
2,note_on,36,40,0
2,note_on,48,40,180
2,note_on,48,0,180
2,note_on,52,40,0
2,note_on,36,0,120
2,note_on,52,0,4
2,note_on,55,40,0
2,note_on,55,0,148
2,note_on,58,40,0
2,note_on,58,0,180
2,note_on,60,40,0
2,note_on,60,0,56
2,note_on,64,40,0
2,note_on,64,0,155
2,note_on,67,40,0
2,note_on,67,0,4
2,note_on,70,40,0
2,note_on,70,0,138
2,note_on,72,40,0
2,note_on,72,0,180
2,note_on,76,40,0
2,note_on,76,0,180
2,note_on,79,40,0
2,note_on,79,0,28
2,note_on,82,40,0
2,note_on,82,0,30
2,note_on,51,36,0
2,note_on,56,36,30
2,note_on,60,36,30
2,note_on,66,36,30
2,note_on,66,0,360
2,note_on,51,0,0
2,note_on,56,0,0
2,note_on,60,0,0
2,note_on,32,36,0
2,note_on,44,36,180
2,note_on,44,0,180
2,note_on,48,36,0
2,note_on,32,0,120
2,note_on,48,0,60
2,note_on,51,36,0
2,note_on,51,0,180
2,note_on,54,39,0
2,note_on,54,0,180
2,note_on,56,43,0
2,note_on,56,0,180
2,note_on,60,44,0
2,note_on,60,0,180
2,note_on,63,42,0
2,note_on,63,0,180
2,note_on,66,39,0
2,note_on,66,0,180
2,note_on,68,36,0
2,note_on,68,0,180
2,note_on,72,36,0
2,note_on,72,0,180
2,note_on,75,36,0
2,note_on,75,0,180
2,note_on,78,36,0
2,note_on,78,0,180
2,note_on,80,36,0
2,note_on,80,0,180
2,note_on,81,33,0
2,note_on,81,0,120
2,note_on,84,41,0
2,note_on,84,0,120
2,note_on,78,34,0
2,note_on,78,0,120
2,note_on,81,41,0
2,note_on,81,0,120
2,note_on,75,33,0
2,note_on,75,0,120
2,note_on,78,41,0
2,note_on,78,0,95
2,note_on,72,34,0
2,note_on,72,0,120
2,note_on,75,41,0
2,note_on,75,0,120
2,note_on,69,34,0
2,note_on,69,0,120
2,note_on,72,41,0
2,note_on,72,0,50
2,note_on,66,34,0
2,note_on,66,0,120
2,note_on,69,41,0
2,note_on,69,0,120
2,note_on,63,34,0
2,note_on,63,0,120
2,note_on,66,41,0
2,note_on,66,0,85
2,note_on,60,34,0
2,note_on,60,0,120
2,note_on,63,42,0
2,note_on,63,0,120
2,note_on,57,35,0
2,note_on,57,0,120
2,note_on,60,42,0
2,note_on,60,0,79
2,note_on,54,33,0
2,note_on,54,0,120
2,note_on,57,42,0
2,note_on,57,0,120
2,note_on,51,33,0
2,note_on,51,0,120
2,note_on,54,42,0
2,note_on,54,0,65
2,note_on,48,35,0
2,note_on,48,0,120
2,note_on,51,43,0
2,note_on,51,0,120
2,note_on,45,36,0
2,note_on,45,0,120
2,note_on,48,44,0
2,note_on,48,0,40
2,note_on,42,36,0
2,note_on,42,0,120
2,note_on,45,44,0
2,note_on,45,0,120
2,note_on,39,35,0
2,note_on,39,0,120
2,note_on,42,44,0
2,note_on,42,0,75
2,note_on,36,34,0
2,note_on,36,0,120
2,note_on,39,44,0
2,note_on,39,0,120
2,note_on,33,35,0
2,note_on,33,0,120
2,note_on,36,44,0
2,note_on,36,0,120
2,note_on,30,34,0
2,note_on,30,0,61
2,note_on,33,44,0
2,note_on,33,0,120
2,note_on,32,30,0
2,note_on,32,0,51
2,note_on,31,30,0
2,note_on,31,0,120
2,note_on,32,30,0
2,note_on,32,0,120
2,note_on,44,45,0
2,note_on,32,31,28
2,note_on,32,0,120
2,note_on,31,31,0
2,note_on,31,0,120
2,note_on,32,31,0
2,note_on,32,0,120
2,note_on,31,30,0
2,note_on,31,0,120
2,note_on,32,30,0
2,note_on,32,0,120
2,note_on,44,0,0
2,note_on,44,45,0
2,note_on,32,30,23
2,note_on,32,0,120
2,note_on,31,30,0
2,note_on,31,0,120
2,note_on,32,30,0
2,note_on,32,0,120
2,note_on,31,30,0
2,note_on,31,0,120
2,note_on,32,30,0
2,note_on,32,0,120
2,note_on,44,0,0
2,note_on,44,45,0
2,note_on,32,30,51
2,note_on,32,0,120
2,note_on,31,30,0
2,note_on,31,0,120
2,note_on,32,30,0
2,note_on,32,0,120
2,note_on,31,30,0
2,note_on,31,0,120
2,note_on,32,30,0
2,note_on,32,0,120
2,note_on,44,0,0
2,note_on,44,45,0
2,note_on,32,30,63
2,note_on,32,0,120
2,note_on,31,30,0
2,note_on,31,0,120
2,note_on,32,30,0
2,note_on,32,0,120
2,note_on,31,30,0
2,note_on,31,0,120
2,note_on,32,30,0
2,note_on,32,0,120
2,note_on,44,0,0
2,note_on,44,45,0
2,note_on,32,31,51
2,note_on,32,0,120
2,note_on,31,31,0
2,note_on,31,0,32
2,note_on,32,31,0
2,note_on,32,0,120
2,note_on,31,30,0
2,note_on,31,0,120
2,note_on,32,30,0
2,note_on,32,0,120
2,note_on,44,0,0
2,note_on,44,46,0
2,note_on,32,30,23
2,note_on,32,0,120
2,note_on,31,30,0
2,note_on,31,0,120
2,note_on,32,30,0
2,note_on,32,0,120
2,note_on,31,30,0
2,note_on,31,0,120
2,note_on,32,30,0
2,note_on,32,0,120
2,note_on,44,0,0
2,note_on,44,45,0
2,note_on,32,30,34
2,note_on,32,0,57
2,note_on,31,30,0
2,note_on,31,0,120
2,note_on,32,30,0
2,note_on,32,0,103
2,note_on,31,30,0
2,note_on,31,0,120
2,note_on,32,30,0
2,note_on,32,0,100
2,note_on,44,0,0
2,note_on,44,45,0
2,note_on,32,30,97
2,note_on,32,0,120
2,note_on,31,30,0
2,note_on,31,0,120
2,note_on,32,30,0
2,note_on,32,0,120
2,note_on,31,30,0
2,note_on,31,0,120
2,note_on,32,30,0
2,note_on,32,0,120
2,note_on,44,0,0
2,note_on,44,45,0
2,note_on,32,31,80
2,note_on,32,0,23
2,note_on,31,31,0
2,note_on,31,0,120
2,note_on,32,31,0
2,note_on,32,0,97
2,note_on,31,30,0
2,note_on,31,0,120
2,note_on,32,30,0
2,note_on,32,0,120
2,note_on,44,0,0
2,note_on,44,44,0
2,note_on,32,30,11
2,note_on,32,0,120
2,note_on,31,30,0
2,note_on,31,0,120
2,note_on,32,30,0
2,note_on,32,0,120
2,note_on,31,30,0
2,note_on,31,0,51
2,note_on,32,30,0
2,note_on,32,0,120
2,note_on,44,0,0
2,note_on,44,44,0
2,note_on,32,30,91
2,note_on,32,0,120
2,note_on,31,30,0
2,note_on,31,0,69
2,note_on,32,33,0
2,note_on,32,0,63
2,note_on,31,33,0
2,note_on,31,0,120
2,note_on,32,33,0
2,note_on,32,0,120
2,note_on,44,0,0
2,note_on,44,50,0
2,note_on,43,34,69
2,note_on,43,0,51
2,note_on,44,0,0
2,note_on,44,34,0
2,note_on,44,0,120
2,note_on,51,34,0
2,note_on,51,0,60
2,note_on,53,33,0
2,note_on,53,0,120
2,note_on,49,33,0
2,note_on,49,0,120
2,note_on,44,52,0
2,note_on,44,0,23
2,note_on,43,33,0
2,note_on,43,0,120
2,note_on,44,34,0
2,note_on,44,0,120
2,note_on,32,34,0
2,note_on,32,0,120
2,note_on,31,34,0
2,note_on,31,0,120
2,note_on,32,35,0
2,note_on,32,0,120
2,note_on,44,53,0
2,note_on,44,0,23
2,note_on,43,35,0
2,note_on,43,0,23
2,note_on,44,36,0
2,note_on,44,0,120
2,note_on,51,36,0
2,note_on,51,0,103
2,note_on,53,36,0
2,note_on,53,0,120
2,note_on,49,36,0
2,note_on,49,0,120
2,note_on,44,55,0
2,note_on,44,0,60
2,note_on,43,36,0
2,note_on,43,0,120
2,note_on,44,36,0
2,note_on,44,0,120
2,note_on,32,36,0
2,note_on,32,0,120
2,note_on,31,36,0
2,note_on,31,0,120
2,note_on,32,36,0
2,note_on,32,0,120
2,note_on,44,55,0
2,note_on,44,0,74
2,note_on,43,36,0
2,note_on,43,0,34
2,note_on,44,36,0
2,note_on,44,0,120
2,note_on,49,36,0
2,note_on,49,0,97
2,note_on,48,36,0
2,note_on,48,0,120
2,note_on,46,36,0
2,note_on,46,0,120
2,note_on,44,53,0
2,note_on,44,0,23
2,note_on,43,36,0
2,note_on,43,0,120
2,note_on,44,36,0
2,note_on,44,0,120
2,note_on,32,36,0
2,note_on,32,0,120
2,note_on,31,36,0
2,note_on,31,0,120
2,note_on,32,36,0
2,note_on,32,0,120
2,note_on,44,53,0
2,note_on,44,0,49
2,note_on,43,36,0
2,note_on,43,0,29
2,note_on,44,36,0
2,note_on,44,0,120
2,note_on,32,54,0
2,note_on,32,0,85
2,note_on,44,51,0
2,note_on,44,0,120
2,note_on,44,51,0
2,note_on,44,0,120
2,note_on,50,49,0
2,note_on,54,49,0
2,note_on,59,55,0
2,note_on,59,0,77
2,note_on,54,0,0
2,note_on,50,0,0
2,note_on,44,52,0
2,note_on,44,0,120
2,note_on,44,52,0
2,note_on,44,0,120
2,note_on,32,57,0
2,note_on,32,0,43
2,note_on,44,53,0
2,note_on,44,0,120
2,note_on,50,53,0
2,note_on,50,0,120
2,note_on,62,59,0
2,note_on,59,59,0
2,note_on,54,59,0
2,note_on,54,0,70
2,note_on,59,0,0
2,note_on,62,0,0
2,note_on,50,51,0
2,note_on,50,0,120
2,note_on,44,51,0
2,note_on,44,0,120
2,note_on,32,54,0
2,note_on,32,0,85
2,note_on,44,51,0
2,note_on,44,0,120
2,note_on,44,51,0
2,note_on,44,0,120
2,note_on,50,49,0
2,note_on,59,55,0
2,note_on,54,49,0
2,note_on,54,0,62
2,note_on,59,0,0
2,note_on,50,0,0
2,note_on,44,52,0
2,note_on,44,0,120
2,note_on,44,52,0
2,note_on,32,54,0
2,note_on,44,0,10
2,note_on,32,0,38
2,note_on,44,51,0
2,note_on,44,0,120
2,note_on,44,51,10
2,note_on,44,0,120
2,note_on,50,55,0
2,note_on,54,55,0
2,note_on,59,55,0
2,note_on,59,0,57
2,note_on,54,0,0
2,note_on,50,0,0
2,note_on,44,52,0
2,note_on,44,0,120
2,note_on,44,52,0
2,note_on,32,52,120
2,note_on,32,0,158
2,note_on,44,0,0
2,note_on,48,71,0
2,note_on,36,60,0
2,note_on,36,0,63
2,note_on,48,0,0
2,note_on,34,65,0
2,note_on,46,79,0
2,note_on,46,0,90
2,note_on,34,0,0
2,note_on,36,62,30
2,note_on,48,73,0
2,note_on,48,0,90
2,note_on,36,0,0
2,note_on,32,62,30
2,note_on,44,73,0
2,note_on,44,0,90
2,note_on,32,0,0
2,note_on,39,56,270
2,note_on,51,66,0
2,note_on,51,0,120
2,note_on,39,0,0
2,note_on,39,61,0
2,note_on,51,71,0
2,note_on,51,0,189
2,note_on,39,0,0
2,note_on,41,57,0
2,note_on,53,69,0
2,note_on,53,0,69
2,note_on,41,0,0
2,note_on,39,65,0
2,note_on,51,79,0
2,note_on,51,0,70
2,note_on,39,0,0
2,note_on,37,56,30
2,note_on,49,66,0
2,note_on,49,0,90
2,note_on,37,0,0
2,note_on,36,56,30
2,note_on,48,69,0
2,note_on,48,0,90
2,note_on,36,0,0
2,note_on,34,56,30
2,note_on,46,76,0
2,note_on,46,0,55
2,note_on,34,0,0
2,note_on,36,56,30
2,note_on,48,73,0
2,note_on,48,0,90
2,note_on,36,0,0
2,note_on,32,62,30
2,note_on,44,74,0
2,note_on,44,0,39
2,note_on,32,0,0
2,note_on,54,65,390
2,note_on,45,56,0
2,note_on,57,76,0
2,note_on,57,0,90
2,note_on,45,0,0
2,note_on,47,56,30
2,note_on,59,73,0
2,note_on,59,0,90
2,note_on,47,0,0
2,note_on,44,62,30
2,note_on,56,74,0
2,note_on,56,0,90
2,note_on,44,0,0
2,note_on,54,0,30
2,note_on,32,65,0
2,note_on,32,0,85
2,note_on,44,62,0
2,note_on,44,0,120
2,note_on,50,63,0
2,note_on,66,66,120
2,note_on,54,66,0
2,note_on,59,66,0
2,note_on,59,0,182
2,note_on,50,0,0
2,note_on,66,0,0
2,note_on,54,0,0
2,note_on,62,62,0
2,note_on,50,62,0
2,note_on,50,0,120
2,note_on,62,0,0
2,note_on,54,70,0
2,note_on,49,70,0
2,note_on,61,78,0
2,note_on,61,0,38
2,note_on,49,0,0
2,note_on,50,63,0
2,note_on,62,71,0
2,note_on,62,0,120
2,note_on,50,0,0
2,note_on,47,63,0
2,note_on,59,71,0
2,note_on,59,0,120
2,note_on,47,0,0
2,note_on,54,0,0
2,note_on,59,70,0
2,note_on,54,70,0
2,note_on,50,70,0
2,note_on,50,0,70
2,note_on,54,0,0
2,note_on,59,0,0
2,note_on,44,62,0
2,note_on,44,0,120
2,note_on,44,62,0
2,note_on,44,0,120
2,note_on,32,65,0
2,note_on,32,0,85
2,note_on,44,62,0
2,note_on,44,0,120
2,note_on,50,62,0
2,note_on,66,66,120
2,note_on,54,66,0
2,note_on,59,66,0
2,note_on,59,0,173
2,note_on,50,0,0
2,note_on,66,0,0
2,note_on,54,0,0
2,note_on,62,62,0
2,note_on,50,62,0
2,note_on,50,0,120
2,note_on,62,0,0
2,note_on,54,70,0
2,note_on,49,70,0
2,note_on,61,78,0
2,note_on,61,0,23
2,note_on,49,0,0
2,note_on,50,63,30
2,note_on,62,71,0
2,note_on,62,0,90
2,note_on,50,0,0
2,note_on,47,63,30
2,note_on,59,71,0
2,note_on,59,0,90
2,note_on,47,0,0
2,note_on,54,0,30
2,note_on,59,70,0
2,note_on,54,70,0
2,note_on,50,70,0
2,note_on,50,0,70
2,note_on,54,0,0
2,note_on,59,0,0
2,note_on,44,62,0
2,note_on,44,0,120
2,note_on,44,62,0
2,note_on,32,71,120
2,note_on,32,0,57
2,note_on,44,0,0
2,note_on,39,69,0
2,note_on,51,69,0
2,note_on,51,0,120
2,note_on,39,0,0
2,note_on,41,69,0
2,note_on,53,69,0
2,note_on,53,0,120
2,note_on,41,0,0
2,note_on,42,76,0
2,note_on,54,76,0
2,note_on,54,0,170
2,note_on,42,0,0
2,note_on,48,71,0
2,note_on,60,71,0
2,note_on,60,0,120
2,note_on,48,0,0
2,note_on,51,69,0
2,note_on,54,69,0
2,note_on,46,72,0
2,note_on,58,72,0
2,note_on,58,0,14
2,note_on,46,0,0
2,note_on,48,66,30
2,note_on,60,66,0
2,note_on,60,0,90
2,note_on,48,0,0
2,note_on,54,0,30
2,note_on,51,0,0
2,note_on,44,66,0
2,note_on,56,66,0
2,note_on,56,0,90
2,note_on,44,0,0
2,note_on,51,79,30
2,note_on,63,79,0
2,note_on,63,0,164
2,note_on,51,0,0
2,note_on,53,73,0
2,note_on,65,73,0
2,note_on,65,0,120
2,note_on,53,0,0
2,note_on,51,80,0
2,note_on,63,80,0
2,note_on,63,0,40
2,note_on,51,0,0
2,note_on,49,74,30
2,note_on,61,74,0
2,note_on,61,0,90
2,note_on,49,0,0
2,note_on,48,74,30
2,note_on,60,74,0
2,note_on,60,0,90
2,note_on,48,0,0
2,note_on,51,80,30
2,note_on,54,80,0
2,note_on,46,80,0
2,note_on,58,80,0
2,note_on,58,0,27
2,note_on,51,0,0
2,note_on,54,0,0
2,note_on,46,0,0
2,note_on,48,72,30
2,note_on,60,72,0
2,note_on,60,0,90
2,note_on,48,0,0
2,note_on,44,72,30
2,note_on,56,72,0
2,note_on,56,0,90
2,note_on,44,0,0
2,note_on,58,71,30
2,note_on,58,0,40
2,note_on,60,65,30
2,note_on,60,0,90
2,note_on,56,65,30
2,note_on,56,0,90
2,note_on,33,66,30
2,note_on,45,66,0
2,note_on,54,75,0
2,note_on,45,0,85
2,note_on,33,0,0
2,note_on,35,61,30
2,note_on,47,61,0
2,note_on,47,0,90
2,note_on,35,0,0
2,note_on,32,62,30
2,note_on,44,62,0
2,note_on,44,0,90
2,note_on,32,0,0
2,note_on,54,0,30
2,note_on,37,49,0
2,note_on,44,59,0
2,note_on,61,53,120
2,note_on,61,0,90
2,note_on,58,53,150
2,note_on,58,0,90
2,note_on,61,53,150
2,note_on,61,0,90
2,note_on,61,55,150
2,note_on,61,0,90
2,note_on,61,47,150
2,note_on,61,0,90
2,note_on,44,0,106
2,note_on,37,0,0
2,note_on,37,49,0
2,note_on,44,59,0
2,note_on,56,53,130
2,note_on,56,0,90
2,note_on,60,53,150
2,note_on,60,0,90
2,note_on,57,53,150
2,note_on,57,0,90
2,note_on,60,62,150
2,note_on,60,0,90
2,note_on,60,52,150
2,note_on,60,0,90
2,note_on,44,0,75
2,note_on,37,0,0
2,note_on,37,53,0
2,note_on,44,63,0
2,note_on,61,59,49
2,note_on,61,0,90
2,note_on,58,57,150
2,note_on,58,0,90
2,note_on,61,59,150
2,note_on,61,0,90
2,note_on,61,62,150
2,note_on,61,0,90
2,note_on,61,53,150
2,note_on,61,0,90
2,note_on,44,0,42
2,note_on,37,0,0
2,note_on,37,53,0
2,note_on,44,63,0
2,note_on,56,59,152
2,note_on,56,0,90
2,note_on,60,57,150
2,note_on,60,0,90
2,note_on,57,59,150
2,note_on,57,0,90
2,note_on,60,61,150
2,note_on,60,0,90
2,note_on,60,56,150
2,note_on,60,0,90
2,note_on,44,0,75
2,note_on,37,0,0
2,note_on,56,62,0
2,note_on,49,62,0
2,note_on,59,73,0
2,note_on,66,66,49
2,note_on,66,0,90
2,note_on,63,66,150
2,note_on,63,0,90
2,note_on,66,67,150
2,note_on,66,0,90
2,note_on,66,70,150
2,note_on,66,0,90
2,note_on,66,62,150
2,note_on,66,0,90
2,note_on,56,0,42
2,note_on,49,0,0
2,note_on,59,0,0
2,note_on,49,62,0
2,note_on,54,62,0
2,note_on,58,73,0
2,note_on,61,66,152
2,note_on,61,0,90
2,note_on,65,65,150
2,note_on,65,0,90
2,note_on,62,66,150
2,note_on,62,0,90
2,note_on,65,74,150
2,note_on,65,0,90
2,note_on,65,64,150
2,note_on,65,0,90
2,note_on,49,0,75
2,note_on,54,0,0
2,note_on,58,0,0
2,note_on,52,67,0
2,note_on,49,67,0
2,note_on,58,81,0
2,note_on,68,73,49
2,note_on,68,0,90
2,note_on,65,73,150
2,note_on,65,0,90
2,note_on,68,74,150
2,note_on,68,0,90
2,note_on,68,77,150
2,note_on,68,0,90
2,note_on,68,66,150
2,note_on,68,0,90
2,note_on,52,0,42
2,note_on,49,0,0
2,note_on,58,0,0
2,note_on,49,71,0
2,note_on,53,71,0
2,note_on,58,84,0
2,note_on,64,79,152
2,note_on,64,0,90
2,note_on,67,73,150
2,note_on,67,0,90
2,note_on,64,81,150
2,note_on,64,0,90
2,note_on,67,81,150
2,note_on,67,0,90
2,note_on,68,75,150
2,note_on,68,0,90
2,note_on,49,0,75
2,note_on,53,0,0
2,note_on,58,0,0
2,note_on,49,70,0
2,note_on,55,70,0
2,note_on,58,70,0
2,note_on,63,84,0
2,note_on,67,60,120
2,note_on,70,60,0
2,note_on,76,69,0
2,note_on,76,0,90
2,note_on,67,0,0
2,note_on,70,0,0
2,note_on,67,60,150
2,note_on,70,60,0
2,note_on,73,67,0
2,note_on,73,0,90
2,note_on,67,0,0
2,note_on,70,0,0
2,note_on,67,60,150
2,note_on,70,60,0
2,note_on,76,69,0
2,note_on,76,0,90
2,note_on,67,0,0
2,note_on,70,0,0
2,note_on,67,60,150
2,note_on,70,60,0
2,note_on,76,71,0
2,note_on,76,0,90
2,note_on,67,0,0
2,note_on,70,0,0
2,note_on,67,60,150
2,note_on,70,60,0
2,note_on,76,62,0
2,note_on,76,0,90
2,note_on,67,0,0
2,note_on,70,0,0
2,note_on,58,0,106
2,note_on,49,0,0
2,note_on,55,0,0
2,note_on,63,0,0
2,note_on,49,70,0
2,note_on,54,70,0
2,note_on,58,70,0
2,note_on,64,84,0
2,note_on,66,60,130
2,note_on,70,60,0
2,note_on,72,69,0
2,note_on,72,0,90
2,note_on,66,0,0
2,note_on,70,0,0
2,note_on,66,57,150
2,note_on,70,57,0
2,note_on,75,67,0
2,note_on,75,0,90
2,note_on,66,0,0
2,note_on,70,0,0
2,note_on,66,60,150
2,note_on,70,60,0
2,note_on,72,69,0
2,note_on,72,0,90
2,note_on,66,0,0
2,note_on,70,0,0
2,note_on,66,66,150
2,note_on,70,66,0
2,note_on,75,73,0
2,note_on,75,0,90
2,note_on,66,0,0
2,note_on,70,0,0
2,note_on,66,55,150
2,note_on,70,55,0
2,note_on,75,66,0
2,note_on,75,0,90
2,note_on,66,0,0
2,note_on,70,0,0
2,note_on,58,0,75
2,note_on,49,0,0
2,note_on,54,0,0
2,note_on,64,0,0
2,note_on,49,70,0
2,note_on,55,70,0
2,note_on,58,70,0
2,note_on,63,84,0
2,note_on,67,60,120
2,note_on,70,60,0
2,note_on,76,69,0
2,note_on,76,0,90
2,note_on,67,0,0
2,note_on,70,0,0
2,note_on,67,60,150
2,note_on,70,60,0
2,note_on,73,67,0
2,note_on,73,0,90
2,note_on,67,0,0
2,note_on,70,0,0
2,note_on,67,60,150
2,note_on,70,60,0
2,note_on,76,69,0
2,note_on,76,0,90
2,note_on,67,0,0
2,note_on,70,0,0
2,note_on,67,60,150
2,note_on,70,60,0
2,note_on,76,71,0
2,note_on,76,0,90
2,note_on,67,0,0
2,note_on,70,0,0
2,note_on,67,60,150
2,note_on,70,60,0
2,note_on,76,62,0
2,note_on,76,0,90
2,note_on,67,0,0
2,note_on,70,0,0
2,note_on,58,0,106
2,note_on,49,0,0
2,note_on,55,0,0
2,note_on,63,0,0
2,note_on,49,70,0
2,note_on,54,70,0
2,note_on,58,70,0
2,note_on,64,84,0
2,note_on,66,60,130
2,note_on,70,60,0
2,note_on,72,69,0
2,note_on,72,0,90
2,note_on,66,0,0
2,note_on,70,0,0
2,note_on,66,57,150
2,note_on,70,57,0
2,note_on,75,67,0
2,note_on,75,0,90
2,note_on,66,0,0
2,note_on,70,0,0
2,note_on,66,60,150
2,note_on,70,60,0
2,note_on,72,69,0
2,note_on,72,0,90
2,note_on,66,0,0
2,note_on,70,0,0
2,note_on,66,66,150
2,note_on,70,66,0
2,note_on,75,73,0
2,note_on,75,0,90
2,note_on,66,0,0
2,note_on,70,0,0
2,note_on,66,55,150
2,note_on,70,55,0
2,note_on,75,66,0
2,note_on,75,0,90
2,note_on,66,0,0
2,note_on,70,0,0
2,note_on,58,0,75
2,note_on,49,0,0
2,note_on,54,0,0
2,note_on,64,0,0
2,note_on,47,73,0
2,note_on,54,73,0
2,note_on,57,73,0
2,note_on,63,89,0
2,note_on,75,58,120
2,note_on,78,58,0
2,note_on,84,68,0
2,note_on,84,0,90
2,note_on,75,0,0
2,note_on,78,0,0
2,note_on,75,58,150
2,note_on,78,58,0
2,note_on,82,67,0
2,note_on,82,0,90
2,note_on,75,0,0
2,note_on,78,0,0
2,note_on,75,58,150
2,note_on,78,58,0
2,note_on,84,68,0
2,note_on,84,0,90
2,note_on,75,0,0
2,note_on,78,0,0
2,note_on,75,58,150
2,note_on,78,58,0
2,note_on,84,70,0
2,note_on,84,0,90
2,note_on,75,0,0
2,note_on,78,0,0
2,note_on,75,58,150
2,note_on,78,58,0
2,note_on,84,59,0
2,note_on,84,0,90
2,note_on,75,0,0
2,note_on,78,0,0
2,note_on,57,0,106
2,note_on,47,0,0
2,note_on,54,0,0
2,note_on,63,0,0
2,note_on,45,80,0
2,note_on,53,80,0
2,note_on,57,80,0
2,note_on,65,89,0
2,note_on,65,0,90
2,note_on,45,0,0
2,note_on,53,0,0
2,note_on,57,0,0
2,note_on,83,95,217
2,note_on,80,95,0
2,note_on,80,0,70
2,note_on,83,0,0
2,note_on,80,75,137
2,note_on,76,75,0
2,note_on,76,0,69
2,note_on,80,0,0
2,note_on,71,70,103
2,note_on,74,70,0
2,note_on,74,0,90
2,note_on,71,0,0
2,note_on,68,60,150
2,note_on,71,66,0
2,note_on,71,0,15
2,note_on,68,0,0
2,note_on,47,73,0
2,note_on,54,73,0
2,note_on,57,73,0
2,note_on,63,89,0
2,note_on,63,0,117
2,note_on,63,55,3
2,note_on,66,55,0
2,note_on,72,64,0
2,note_on,72,0,90
2,note_on,63,0,0
2,note_on,66,0,0
2,note_on,63,55,150
2,note_on,66,55,0
2,note_on,70,63,0
2,note_on,70,0,90
2,note_on,63,0,0
2,note_on,66,0,0
2,note_on,63,55,150
2,note_on,66,55,0
2,note_on,72,64,0
2,note_on,72,0,90
2,note_on,63,0,0
2,note_on,66,0,0
2,note_on,63,55,150
2,note_on,66,55,0
2,note_on,72,65,0
2,note_on,72,0,90
2,note_on,63,0,0
2,note_on,66,0,0
2,note_on,63,55,150
2,note_on,66,55,0
2,note_on,72,57,0
2,note_on,72,0,90
2,note_on,63,0,0
2,note_on,66,0,0
2,note_on,54,0,150
2,note_on,57,0,0
2,note_on,47,0,0
2,note_on,45,80,0
2,note_on,53,80,0
2,note_on,57,80,0
2,note_on,65,89,0
2,note_on,65,0,90
2,note_on,45,0,0
2,note_on,53,0,0
2,note_on,57,0,0
2,note_on,71,84,217
2,note_on,68,84,0
2,note_on,68,0,70
2,note_on,71,0,0
2,note_on,68,66,137
2,note_on,64,66,0
2,note_on,64,0,4
2,note_on,68,0,0
2,note_on,59,62,150
2,note_on,62,62,0
2,note_on,62,0,90
2,note_on,59,0,0
2,note_on,56,53,150
2,note_on,59,60,0
2,note_on,59,0,4
2,note_on,56,0,0
2,note_on,47,73,270
2,note_on,54,73,0
2,note_on,57,73,0
2,note_on,63,89,0
2,note_on,63,0,84
2,note_on,47,0,0
2,note_on,54,0,0
2,note_on,57,0,0
2,note_on,51,49,120
2,note_on,54,49,0
2,note_on,60,57,0
2,note_on,60,0,90
2,note_on,54,0,0
2,note_on,51,0,0
2,note_on,51,49,150
2,note_on,54,49,0
2,note_on,58,57,0
2,note_on,58,0,90
2,note_on,54,0,0
2,note_on,51,0,0
2,note_on,51,49,150
2,note_on,54,49,0
2,note_on,60,57,0
2,note_on,60,0,90
2,note_on,54,0,0
2,note_on,51,0,0
2,note_on,51,49,150
2,note_on,54,49,0
2,note_on,60,59,0
2,note_on,60,0,90
2,note_on,54,0,0
2,note_on,51,0,0
2,note_on,51,49,150
2,note_on,54,49,0
2,note_on,60,51,0
2,note_on,60,0,90
2,note_on,54,0,0
2,note_on,51,0,0
2,note_on,57,62,150
2,note_on,57,0,51
2,note_on,56,57,150
2,note_on,57,63,0
2,note_on,57,0,90
2,note_on,56,0,0
2,note_on,57,65,150
2,note_on,55,60,0
2,note_on,55,0,90
2,note_on,57,0,0
2,note_on,54,62,150
2,note_on,57,69,0
2,note_on,57,0,90
2,note_on,54,0,0
2,note_on,53,63,150
2,note_on,54,63,0
2,note_on,57,71,0
2,note_on,57,0,90
2,note_on,54,0,0
2,note_on,53,0,0
2,note_on,52,65,150
2,note_on,54,65,0
2,note_on,57,73,0
2,note_on,57,0,90
2,note_on,54,0,0
2,note_on,52,0,0
2,note_on,51,66,150
2,note_on,54,66,0
2,note_on,57,74,0
2,note_on,57,0,4
2,note_on,54,0,0
2,note_on,51,0,0
2,note_on,52,65,150
2,note_on,54,65,0
2,note_on,57,73,0
2,note_on,57,0,90
2,note_on,54,0,0
2,note_on,52,0,0
2,note_on,51,64,150
2,note_on,54,64,0
2,note_on,57,72,0
2,note_on,57,0,39
2,note_on,54,0,0
2,note_on,51,0,0
2,note_on,50,63,150
2,note_on,54,63,0
2,note_on,57,71,0
2,note_on,57,0,90
2,note_on,54,0,0
2,note_on,50,0,0
2,note_on,49,62,11
2,note_on,54,62,0
2,note_on,57,70,0
2,note_on,57,0,61
2,note_on,54,0,0
2,note_on,49,0,0
2,note_on,48,61,150
2,note_on,54,61,0
2,note_on,57,67,0
2,note_on,57,0,90
2,note_on,54,0,0
2,note_on,48,0,0
2,note_on,47,61,150
2,note_on,51,61,0
2,note_on,54,61,0
2,note_on,57,66,0
2,note_on,57,0,21
2,note_on,47,0,0
2,note_on,51,0,0
2,note_on,54,0,0
2,note_on,47,61,150
2,note_on,51,61,0
2,note_on,54,61,0
2,note_on,57,67,0
2,note_on,57,0,90
2,note_on,47,0,0
2,note_on,51,0,0
2,note_on,54,0,0
2,note_on,47,63,150
2,note_on,51,63,0
2,note_on,54,63,0
2,note_on,57,70,0
2,note_on,57,0,50
2,note_on,47,0,0
2,note_on,51,0,0
2,note_on,54,0,0
2,note_on,47,66,150
2,note_on,51,66,0
2,note_on,54,66,0
2,note_on,57,75,0
2,note_on,57,0,90
2,note_on,47,0,0
2,note_on,51,0,0
2,note_on,54,0,0
2,note_on,47,67,150
2,note_on,51,67,0
2,note_on,54,67,0
2,note_on,57,76,0
2,note_on,57,0,4
2,note_on,47,0,0
2,note_on,51,0,0
2,note_on,54,0,0
2,note_on,47,74,150
2,note_on,51,74,0
2,note_on,54,74,0
2,note_on,57,82,0
2,note_on,57,0,90
2,note_on,47,0,0
2,note_on,51,0,0
2,note_on,54,0,0
2,note_on,48,70,0
2,note_on,51,77,0
2,note_on,54,77,0
2,note_on,58,87,0
2,note_on,58,0,4
2,note_on,48,0,0
2,note_on,51,0,0
2,note_on,54,0,0
2,note_on,32,77,270
2,note_on,44,86,0
2,note_on,44,0,56
2,note_on,32,0,0
2,note_on,69,79,30
2,note_on,65,79,0
2,note_on,65,0,90
2,note_on,69,0,0
2,note_on,62,67,150
2,note_on,65,74,0
2,note_on,65,0,73
2,note_on,62,0,0
2,note_on,65,62,150
2,note_on,69,70,0
2,note_on,69,0,30
2,note_on,65,0,0
2,note_on,49,65,0
2,note_on,53,73,0
2,note_on,56,82,0
2,note_on,56,0,90
2,note_on,53,0,0
2,note_on,49,0,0
2,note_on,32,77,247
2,note_on,44,86,0
2,note_on,44,0,4
2,note_on,32,0,0
2,note_on,65,75,30
2,note_on,61,69,0
2,note_on,61,0,90
2,note_on,65,0,0
2,note_on,65,64,150
2,note_on,68,72,0
2,note_on,68,0,83
2,note_on,65,0,0
2,note_on,61,73,56
2,note_on,65,81,0
2,note_on,65,0,162
2,note_on,61,0,0
2,note_on,54,79,0
2,note_on,58,79,0
2,note_on,63,87,0
2,note_on,63,0,33
2,note_on,58,0,0
2,note_on,54,0,0
2,note_on,54,70,30
2,note_on,54,0,90
2,note_on,44,89,30
2,note_on,32,70,120
2,note_on,32,0,56
2,note_on,44,0,30
2,note_on,72,79,0
2,note_on,69,79,0
2,note_on,69,0,90
2,note_on,72,0,0
2,note_on,65,67,150
2,note_on,69,74,0
2,note_on,69,0,73
2,note_on,65,0,0
2,note_on,69,62,150
2,note_on,72,70,0
2,note_on,72,0,70
2,note_on,69,0,0
2,note_on,73,87,11
2,note_on,70,79,0
2,note_on,70,0,90
2,note_on,73,0,0
2,note_on,56,65,74
2,note_on,61,73,0
2,note_on,65,82,0
2,note_on,65,0,62
2,note_on,61,0,0
2,note_on,56,0,0
2,note_on,53,70,30
2,note_on,53,0,90
2,note_on,44,89,30
2,note_on,32,70,120
2,note_on,32,0,4
2,note_on,44,0,30
2,note_on,65,84,0
2,note_on,61,77,0
2,note_on,61,0,90
2,note_on,65,0,0
2,note_on,65,72,150
2,note_on,68,81,0
2,note_on,68,0,83
2,note_on,65,0,0
2,note_on,61,69,270
2,note_on,65,77,0
2,note_on,65,0,162
2,note_on,61,0,0
2,note_on,66,79,0
2,note_on,63,71,0
2,note_on,58,71,0
2,note_on,58,0,89
2,note_on,63,0,0
2,note_on,66,0,0
2,note_on,49,71,0
2,note_on,49,0,180
2,note_on,66,79,0
2,note_on,63,71,0
2,note_on,58,71,0
2,note_on,58,0,117
2,note_on,63,0,0
2,note_on,66,0,0
2,note_on,37,69,0
2,note_on,37,0,180
2,note_on,56,75,0
2,note_on,63,75,0
2,note_on,66,84,0
2,note_on,66,0,129
2,note_on,63,0,0
2,note_on,56,0,0
2,note_on,49,61,0
2,note_on,49,0,180
2,note_on,56,63,0
2,note_on,63,63,0
2,note_on,66,72,0
2,note_on,66,0,140
2,note_on,63,0,0
2,note_on,56,0,0
2,note_on,37,63,0
2,note_on,37,0,180
2,note_on,65,64,0
2,note_on,61,57,0
2,note_on,56,57,0
2,note_on,56,0,3
2,note_on,61,0,0
2,note_on,65,0,0
2,note_on,49,54,0
2,note_on,49,0,180
2,note_on,66,55,0
2,note_on,63,50,0
2,note_on,57,50,0
2,note_on,57,0,111
2,note_on,63,0,0
2,note_on,66,0,0
2,note_on,37,44,0
2,note_on,37,0,180
2,note_on,65,52,0
2,note_on,61,45,0
2,note_on,58,45,0
2,note_on,58,0,120
2,note_on,61,0,0
2,note_on,65,0,0
2,note_on,49,45,0
2,note_on,62,57,180
2,note_on,59,57,0
2,note_on,56,51,0
2,note_on,56,0,269
2,note_on,49,0,0
2,note_on,62,0,0
2,note_on,59,0,0
2,note_on,63,79,0
2,note_on,58,71,0
2,note_on,54,71,0
2,note_on,54,0,89
2,note_on,58,0,0
2,note_on,63,0,0
2,note_on,49,71,0
2,note_on,49,0,180
2,note_on,63,79,0
2,note_on,58,71,0
2,note_on,54,71,0
2,note_on,54,0,117
2,note_on,58,0,0
2,note_on,63,0,0
2,note_on,37,69,0
2,note_on,37,0,180
2,note_on,55,67,0
2,note_on,58,67,0
2,note_on,64,75,0
2,note_on,64,0,129
2,note_on,58,0,0
2,note_on,55,0,0
2,note_on,49,64,0
2,note_on,49,0,180
2,note_on,55,63,0
2,note_on,58,63,0
2,note_on,64,72,0
2,note_on,64,0,140
2,note_on,58,0,0
2,note_on,55,0,0
2,note_on,37,63,0
2,note_on,37,0,180
2,note_on,64,64,0
2,note_on,59,57,0
2,note_on,56,57,0
2,note_on,56,0,3
2,note_on,59,0,0
2,note_on,64,0,0
2,note_on,35,54,0
2,note_on,35,0,180
2,note_on,63,55,0
2,note_on,59,50,0
2,note_on,57,50,0
2,note_on,57,0,111
2,note_on,59,0,0
2,note_on,63,0,0
2,note_on,47,44,0
2,note_on,47,0,180
2,note_on,64,52,0
2,note_on,59,45,0
2,note_on,56,45,0
2,note_on,56,0,102
2,note_on,59,0,0
2,note_on,64,0,0
2,note_on,49,45,0
2,note_on,49,0,180
2,note_on,64,51,0
2,note_on,71,57,0
2,note_on,68,57,0
2,note_on,59,51,0
2,note_on,59,0,269
2,note_on,64,0,0
2,note_on,71,0,0
2,note_on,68,0,0
2,note_on,47,72,0
2,note_on,52,81,0
2,note_on,57,81,0
2,note_on,57,0,90
2,note_on,52,0,0
2,note_on,47,0,0
2,note_on,85,94,217
2,note_on,81,84,0
2,note_on,81,0,56
2,note_on,85,0,0
2,note_on,68,72,270
2,note_on,65,63,0
2,note_on,65,0,90
2,note_on,68,0,0
2,note_on,72,62,150
2,note_on,68,53,0
2,note_on,68,0,90
2,note_on,72,0,0
2,note_on,47,62,390
2,note_on,52,69,0
2,note_on,56,69,0
2,note_on,56,0,90
2,note_on,52,0,0
2,note_on,47,0,0
2,note_on,80,84,206
2,note_on,83,94,0
2,note_on,83,0,4
2,note_on,80,0,0
2,note_on,68,61,270
2,note_on,71,66,0
2,note_on,71,0,90
2,note_on,68,0,0
2,note_on,64,66,270
2,note_on,68,75,0
2,note_on,68,0,360
2,note_on,64,0,0
2,note_on,59,47,0
2,note_on,64,54,0
2,note_on,69,54,0
2,note_on,69,0,90
2,note_on,64,0,0
2,note_on,59,0,0
2,note_on,93,47,0
2,note_on,97,54,0
2,note_on,97,0,90
2,note_on,93,0,0
2,note_on,80,44,270
2,note_on,77,40,0
2,note_on,77,0,90
2,note_on,80,0,0
2,note_on,84,36,150
2,note_on,80,33,0
2,note_on,80,0,90
2,note_on,84,0,0
2,note_on,59,36,390
2,note_on,64,36,0
2,note_on,68,43,0
2,note_on,68,0,9
2,note_on,64,0,0
2,note_on,59,0,0
2,note_on,92,53,270
2,note_on,95,62,0
2,note_on,95,0,19
2,note_on,92,0,0
2,note_on,80,36,270
2,note_on,83,42,0
2,note_on,83,0,90
2,note_on,80,0,0
2,note_on,76,41,270
2,note_on,80,45,0
2,note_on,80,0,300
2,note_on,76,0,0
2,note_on,66,79,60
2,note_on,61,71,0
2,note_on,57,71,0
2,note_on,57,0,89
2,note_on,61,0,0
2,note_on,66,0,0
2,note_on,52,71,0
2,note_on,52,0,180
2,note_on,66,79,0
2,note_on,61,71,0
2,note_on,57,71,0
2,note_on,57,0,117
2,note_on,61,0,0
2,note_on,66,0,0
2,note_on,40,69,0
2,note_on,40,0,180
2,note_on,56,71,0
2,note_on,59,71,0
2,note_on,66,80,0
2,note_on,66,0,129
2,note_on,59,0,0
2,note_on,56,0,0
2,note_on,52,61,0
2,note_on,52,0,180
2,note_on,56,63,0
2,note_on,59,63,0
2,note_on,66,72,0
2,note_on,66,0,113
2,note_on,59,0,0
2,note_on,56,0,0
2,note_on,40,63,0
2,note_on,40,0,180
2,note_on,68,64,0
2,note_on,64,57,0
2,note_on,59,57,0
2,note_on,59,0,3
2,note_on,64,0,0
2,note_on,68,0,0
2,note_on,52,54,0
2,note_on,52,0,180
2,note_on,69,55,0
2,note_on,66,50,0
2,note_on,60,50,0
2,note_on,60,0,111
2,note_on,66,0,0
2,note_on,69,0,0
2,note_on,40,44,0
2,note_on,40,0,180
2,note_on,68,52,0
2,note_on,64,45,0
2,note_on,61,45,0
2,note_on,61,0,106
2,note_on,64,0,0
2,note_on,68,0,0
2,note_on,52,45,0
2,note_on,65,57,180
2,note_on,62,57,0
2,note_on,59,51,0
2,note_on,59,0,269
2,note_on,52,0,0
2,note_on,65,0,0
2,note_on,62,0,0
2,note_on,66,79,0
2,note_on,61,71,0
2,note_on,57,71,0
2,note_on,57,0,89
2,note_on,61,0,0
2,note_on,66,0,0
2,note_on,52,71,0
2,note_on,52,0,180
2,note_on,66,79,0
2,note_on,61,71,0
2,note_on,57,71,0
2,note_on,57,0,117
2,note_on,61,0,0
2,note_on,66,0,0
2,note_on,40,69,0
2,note_on,40,0,180
2,note_on,59,66,0
2,note_on,63,66,0
2,note_on,69,75,0
2,note_on,69,0,129
2,note_on,63,0,0
2,note_on,59,0,0
2,note_on,52,61,0
2,note_on,52,0,180
2,note_on,59,63,0
2,note_on,63,63,0
2,note_on,69,72,0
2,note_on,69,0,140
2,note_on,63,0,0
2,note_on,59,0,0
2,note_on,40,63,0
2,note_on,40,0,180
2,note_on,68,64,0
2,note_on,64,57,0
2,note_on,59,57,0
2,note_on,59,0,3
2,note_on,64,0,0
2,note_on,68,0,0
2,note_on,52,54,0
2,note_on,52,0,180
2,note_on,69,55,0
2,note_on,66,50,0
2,note_on,60,50,0
2,note_on,60,0,111
2,note_on,66,0,0
2,note_on,69,0,0
2,note_on,40,44,0
2,note_on,40,0,180
2,note_on,68,52,0
2,note_on,64,45,0
2,note_on,61,45,0
2,note_on,61,0,116
2,note_on,64,0,0
2,note_on,68,0,0
2,note_on,52,45,0
2,note_on,52,0,180
2,note_on,62,45,0
2,note_on,74,51,0
2,note_on,71,51,0
2,note_on,65,45,0
2,note_on,65,0,269
2,note_on,62,0,0
2,note_on,74,0,0
2,note_on,71,0,0
2,note_on,37,41,0
2,note_on,37,0,90
2,note_on,45,36,29
2,note_on,45,0,90
2,note_on,37,41,30
2,note_on,37,0,90
2,note_on,45,36,30
2,note_on,45,0,27
2,note_on,37,43,30
2,note_on,37,0,90
2,note_on,45,40,30
2,note_on,45,0,90
2,note_on,37,45,30
2,note_on,37,0,39
2,note_on,44,41,30
2,note_on,44,0,90
2,note_on,49,41,30
2,note_on,49,0,90
2,note_on,56,44,30
2,note_on,56,0,50
2,note_on,49,41,30
2,note_on,49,0,90
2,note_on,44,41,30
2,note_on,44,0,90
2,note_on,37,41,30
2,note_on,37,0,45
2,note_on,44,36,29
2,note_on,44,0,90
2,note_on,37,41,30
2,note_on,37,0,90
2,note_on,44,36,30
2,note_on,44,0,27
2,note_on,37,43,30
2,note_on,37,0,90
2,note_on,44,40,30
2,note_on,44,0,90
2,note_on,37,45,30
2,note_on,37,0,39
2,note_on,44,41,30
2,note_on,44,0,90
2,note_on,49,41,30
2,note_on,49,0,90
2,note_on,56,44,30
2,note_on,56,0,50
2,note_on,49,41,30
2,note_on,49,0,90
2,note_on,44,41,30
2,note_on,44,0,90
2,note_on,37,41,30
2,note_on,37,0,39
2,note_on,44,36,29
2,note_on,44,0,90
2,note_on,37,41,30
2,note_on,37,0,90
2,note_on,44,36,30
2,note_on,44,0,27
2,note_on,37,43,30
2,note_on,37,0,90
2,note_on,44,40,30
2,note_on,44,0,90
2,note_on,37,45,30
2,note_on,37,0,39
2,note_on,44,41,30
2,note_on,44,0,90
2,note_on,49,41,30
2,note_on,49,0,90
2,note_on,56,44,30
2,note_on,56,0,50
2,note_on,49,41,30
2,note_on,49,0,90
2,note_on,44,41,30
2,note_on,44,0,90
2,note_on,37,45,30
2,note_on,37,0,39
2,note_on,44,41,30
2,note_on,44,0,90
2,note_on,49,41,30
2,note_on,49,0,90
2,note_on,56,44,30
2,note_on,56,0,50
2,note_on,49,41,30
2,note_on,49,0,90
2,note_on,44,41,30
2,note_on,44,0,90
2,note_on,37,45,30
2,note_on,37,0,39
2,note_on,44,41,30
2,note_on,44,0,90
2,note_on,49,41,30
2,note_on,49,0,90
2,note_on,56,44,30
2,note_on,56,0,50
2,note_on,49,41,30
2,note_on,49,0,90
2,note_on,44,41,30
2,note_on,44,0,90
2,note_on,37,43,30
2,note_on,37,0,70
2,note_on,49,37,29
2,note_on,49,0,90
2,note_on,57,64,30
2,note_on,45,39,120
2,note_on,45,0,27
2,note_on,57,0,30
2,note_on,54,62,0
2,note_on,42,42,120
2,note_on,42,0,90
2,note_on,54,0,30
2,note_on,37,47,0
2,note_on,37,0,39
2,note_on,49,43,30
2,note_on,49,0,90
2,note_on,62,71,30
2,note_on,50,45,120
2,note_on,50,0,50
2,note_on,62,0,30
2,note_on,66,66,0
2,note_on,54,46,120
2,note_on,54,0,90
2,note_on,66,0,30
2,note_on,37,45,0
2,note_on,37,0,75
2,note_on,49,42,29
2,note_on,49,0,90
2,note_on,59,76,30
2,note_on,47,43,120
2,note_on,47,0,27
2,note_on,59,0,30
2,note_on,56,71,0
2,note_on,44,45,120
2,note_on,44,0,90
2,note_on,56,0,30
2,note_on,37,53,0
2,note_on,37,0,39
2,note_on,49,46,30
2,note_on,49,0,90
2,note_on,61,80,30
2,note_on,49,51,0
2,note_on,49,0,5
2,note_on,61,0,30
2,note_on,65,71,0
2,note_on,53,47,120
2,note_on,53,0,90
2,note_on,65,0,30
2,note_on,66,79,0
2,note_on,57,79,0
2,note_on,57,0,23
2,note_on,61,71,30
2,note_on,61,0,90
2,note_on,54,71,30
2,note_on,54,0,90
2,note_on,66,0,30
2,note_on,37,81,0
2,note_on,49,81,0
2,note_on,49,0,302
2,note_on,37,0,0
2,note_on,59,81,0
2,note_on,66,81,0
2,note_on,59,0,55
2,note_on,62,75,30
2,note_on,62,0,90
2,note_on,54,75,30
2,note_on,54,0,90
2,note_on,66,0,30
2,note_on,37,81,0
2,note_on,49,81,0
2,note_on,49,0,288
2,note_on,37,0,0
2,note_on,71,81,0
2,note_on,62,81,0
2,note_on,62,0,13
2,note_on,66,74,30
2,note_on,66,0,90
2,note_on,56,74,30
2,note_on,56,0,90
2,note_on,71,0,30
2,note_on,37,84,0
2,note_on,49,84,0
2,note_on,49,0,269
2,note_on,37,0,0
2,note_on,63,89,0
2,note_on,72,89,0
2,note_on,63,0,27
2,note_on,66,82,30
2,note_on,66,0,90
2,note_on,56,82,30
2,note_on,56,0,90
2,note_on,72,0,30
2,note_on,37,89,0
2,note_on,49,89,0
2,note_on,49,0,288
2,note_on,37,0,0
2,note_on,25,73,0
2,note_on,32,73,0
2,note_on,37,82,0
2,note_on,37,0,240
2,note_on,32,0,0
2,note_on,25,0,0
2,note_on,49,82,0
2,note_on,56,82,0
2,note_on,61,90,0
2,note_on,61,0,85
2,note_on,63,85,0
2,note_on,63,0,90
2,note_on,65,79,30
2,note_on,65,0,90
2,note_on,56,0,30
2,note_on,49,0,0
2,note_on,49,69,0
2,note_on,56,69,0
2,note_on,61,79,0
2,note_on,61,0,240
2,note_on,56,0,0
2,note_on,49,0,0
2,note_on,37,70,0
2,note_on,49,80,0
2,note_on,49,0,240
2,note_on,37,0,0
2,note_on,53,80,0
2,note_on,61,89,0
2,note_on,65,89,0
2,note_on,65,0,452
2,note_on,61,0,0
2,note_on,53,0,0
2,note_on,61,77,0
2,note_on,54,67,0
2,note_on,66,77,0
2,note_on,66,0,113
2,note_on,54,0,0
2,note_on,61,0,0
2,note_on,65,82,0
2,note_on,61,82,0
2,note_on,53,73,0
2,note_on,53,0,225
2,note_on,61,0,0
2,note_on,65,0,0
2,note_on,66,81,0
2,note_on,66,0,90
2,note_on,64,75,150
2,note_on,64,0,90
2,note_on,62,73,150
2,note_on,62,0,90
2,note_on,37,77,0
2,note_on,49,86,0
2,note_on,49,0,240
2,note_on,37,0,0
2,note_on,49,70,0
2,note_on,56,79,0
2,note_on,61,79,0
2,note_on,61,0,452
2,note_on,56,0,0
2,note_on,49,0,0
2,note_on,57,62,0
2,note_on,49,54,0
2,note_on,60,62,0
2,note_on,60,0,113
2,note_on,49,0,0
2,note_on,57,0,0
2,note_on,49,61,0
2,note_on,60,67,0
2,note_on,57,61,0
2,note_on,57,0,231
2,note_on,60,0,0
2,note_on,49,0,0
2,note_on,37,53,0
2,note_on,49,61,0
2,note_on,49,0,240
2,note_on,37,0,0
2,note_on,49,36,0
2,note_on,58,45,0
2,note_on,61,52,0
2,note_on,61,0,177
2,note_on,58,0,0
2,note_on,49,0,0
2,note_on,37,46,0
2,note_on,49,53,0
2,note_on,49,0,24
2,note_on,37,0,0
2,note_on,49,57,0
2,note_on,56,57,30
2,note_on,61,62,30
2,note_on,65,67,30
2,note_on,65,0,116
2,note_on,49,0,0
2,note_on,56,0,0
2,note_on,61,0,0
2,note_on,63,63,480
2,note_on,63,0,144
2,note_on,49,52,0
2,note_on,49,0,60
2,note_on,63,65,0
2,note_on,63,0,95
2,note_on,62,59,0
2,note_on,62,0,120
2,note_on,61,53,0
2,note_on,61,0,120
2,note_on,60,53,0
2,note_on,60,0,120
2,note_on,61,56,0
2,note_on,61,0,29
2,note_on,60,52,0
2,note_on,60,0,120
2,note_on,58,70,0
2,note_on,58,0,106
2,note_on,68,59,0
2,note_on,65,59,0
2,note_on,56,59,0
2,note_on,56,0,240
2,note_on,65,0,0
2,note_on,68,0,0
2,note_on,70,59,0
2,note_on,67,59,0
2,note_on,65,59,0
2,note_on,58,59,0
2,note_on,58,0,92
2,note_on,70,0,0
2,note_on,67,0,0
2,note_on,65,0,0
2,note_on,37,66,0
2,note_on,49,66,0
2,note_on,49,0,240
2,note_on,37,0,0
2,note_on,36,71,0
2,note_on,48,71,0
2,note_on,48,0,68
2,note_on,36,0,0
2,note_on,48,54,0
2,note_on,57,62,30
2,note_on,57,0,57
2,note_on,48,0,0
2,note_on,64,71,0
2,note_on,64,0,120
2,note_on,65,66,120
2,note_on,65,0,120
2,note_on,62,56,240
2,note_on,62,0,120
2,note_on,60,53,120
2,note_on,60,0,120
2,note_on,58,57,209
2,note_on,58,0,37
2,note_on,48,51,0
2,note_on,48,0,80
2,note_on,40,50,0
2,note_on,40,0,80
2,note_on,41,63,0
2,note_on,41,0,74
2,note_on,48,52,0
2,note_on,48,0,54
2,note_on,57,52,0
2,note_on,57,0,80
2,note_on,76,81,240
2,note_on,76,0,103
2,note_on,77,76,120
2,note_on,77,0,120
2,note_on,74,65,240
2,note_on,74,0,120
2,note_on,72,56,120
2,note_on,72,0,120
2,note_on,70,56,229
2,note_on,70,0,25
2,note_on,60,50,0
2,note_on,60,0,60
2,note_on,52,50,0
2,note_on,53,49,45
2,note_on,52,0,15
2,note_on,60,52,0
2,note_on,69,53,9
2,note_on,69,0,285
2,note_on,60,0,0
2,note_on,53,0,0
2,note_on,67,62,97
2,note_on,79,69,0
2,note_on,79,0,120
2,note_on,67,0,0
2,note_on,65,62,120
2,note_on,77,69,0
2,note_on,77,0,120
2,note_on,65,0,0
2,note_on,62,62,45
2,note_on,74,69,0
2,note_on,74,0,120
2,note_on,62,0,0
2,note_on,60,62,120
2,note_on,72,69,0
2,note_on,72,0,120
2,note_on,60,0,0
2,note_on,69,67,97
2,note_on,57,61,0
2,note_on,57,0,120
2,note_on,69,0,0
2,note_on,67,67,120
2,note_on,55,61,0
2,note_on,55,0,120
2,note_on,67,0,0
2,note_on,65,67,74
2,note_on,53,61,0
2,note_on,53,0,120
2,note_on,65,0,0
2,note_on,50,60,120
2,note_on,62,66,0
2,note_on,62,0,120
2,note_on,50,0,0
2,note_on,48,59,63
2,note_on,60,65,0
2,note_on,60,0,120
2,note_on,48,0,0
2,note_on,45,57,120
2,note_on,57,64,0
2,note_on,57,0,120
2,note_on,45,0,0
2,note_on,43,57,28
2,note_on,55,64,0
2,note_on,55,0,120
2,note_on,43,0,0
2,note_on,41,63,120
2,note_on,53,71,0
2,note_on,53,0,31
2,note_on,41,0,0
2,note_on,25,67,0
2,note_on,37,75,0
2,note_on,37,0,240
2,note_on,25,0,0
2,note_on,56,79,0
2,note_on,53,79,0
2,note_on,61,79,0
2,note_on,65,88,0
2,note_on,65,0,85
2,note_on,56,0,0
2,note_on,53,0,0
2,note_on,61,0,0
2,note_on,51,72,0
2,note_on,63,81,0
2,note_on,63,0,90
2,note_on,51,0,0
2,note_on,53,67,30
2,note_on,65,75,0
2,note_on,65,0,90
2,note_on,53,0,0
2,note_on,49,59,30
2,note_on,61,75,0
2,note_on,61,0,240
2,note_on,49,0,0
2,note_on,37,68,0
2,note_on,49,77,0
2,note_on,49,0,240
2,note_on,37,0,0
2,note_on,61,74,0
2,note_on,56,74,0
2,note_on,65,81,0
2,note_on,68,81,0
2,note_on,68,0,452
2,note_on,61,0,0
2,note_on,56,0,0
2,note_on,65,0,0
2,note_on,61,62,0
2,note_on,65,69,0
2,note_on,58,62,0
2,note_on,70,69,0
2,note_on,70,0,220
2,note_on,61,0,0
2,note_on,65,0,0
2,note_on,58,0,0
2,note_on,61,59,0
2,note_on,65,59,0
2,note_on,68,68,0
2,note_on,56,59,0
2,note_on,56,0,90
2,note_on,61,0,0
2,note_on,65,0,0
2,note_on,68,0,0
2,note_on,55,59,0
2,note_on,67,68,0
2,note_on,67,0,120
2,note_on,55,0,0
2,note_on,54,59,0
2,note_on,66,68,0
2,note_on,66,0,120
2,note_on,54,0,0
2,note_on,53,59,0
2,note_on,65,67,0
2,note_on,65,0,120
2,note_on,53,0,0
2,note_on,52,58,0
2,note_on,64,66,0
2,note_on,64,0,120
2,note_on,52,0,0
2,note_on,51,58,0
2,note_on,63,64,0
2,note_on,63,0,120
2,note_on,51,0,0
2,note_on,50,57,0
2,note_on,62,62,0
2,note_on,62,0,120
2,note_on,50,0,0
2,note_on,49,57,0
2,note_on,61,61,0
2,note_on,61,0,120
2,note_on,49,0,0
2,note_on,37,88,0
2,note_on,49,88,0
2,note_on,49,0,240
2,note_on,37,0,0
2,note_on,61,78,0
2,note_on,56,78,0
2,note_on,65,86,0
2,note_on,68,86,0
2,note_on,68,0,452
2,note_on,61,0,0
2,note_on,56,0,0
2,note_on,65,0,0
2,note_on,60,71,0
2,note_on,63,80,0
2,note_on,57,71,0
2,note_on,66,80,0
2,note_on,66,0,213
2,note_on,60,0,0
2,note_on,63,0,0
2,note_on,57,0,0
2,note_on,63,67,0
2,note_on,66,75,0
2,note_on,57,67,0
2,note_on,57,0,210
2,note_on,66,0,0
2,note_on,63,0,0
2,note_on,37,57,0
2,note_on,49,62,0
2,note_on,49,0,240
2,note_on,37,0,0
2,note_on,58,69,0
2,note_on,61,69,0
2,note_on,65,69,0
2,note_on,65,0,154
2,note_on,61,0,0
2,note_on,58,0,0
2,note_on,37,53,0
2,note_on,49,59,0
2,note_on,49,0,240
2,note_on,37,0,0
2,note_on,29,86,0
2,note_on,41,86,0
2,note_on,41,0,240
2,note_on,29,0,0
2,note_on,56,73,0
2,note_on,53,73,0
2,note_on,61,82,0
2,note_on,65,82,0
2,note_on,65,0,452
2,note_on,56,0,0
2,note_on,53,0,0
2,note_on,61,0,0
2,note_on,54,61,0
2,note_on,60,69,0
2,note_on,51,61,0
2,note_on,63,69,0
2,note_on,63,0,174
2,note_on,54,0,0
2,note_on,60,0,0
2,note_on,51,0,0
2,note_on,60,60,0
2,note_on,54,60,0
2,note_on,51,60,0
2,note_on,63,69,0
2,note_on,63,0,90
2,note_on,60,0,0
2,note_on,54,0,0
2,note_on,51,0,0
2,note_on,50,57,0
2,note_on,62,62,0
2,note_on,62,0,120
2,note_on,50,0,0
2,note_on,49,57,0
2,note_on,61,62,0
2,note_on,61,0,120
2,note_on,49,0,0
2,note_on,48,57,0
2,note_on,60,62,0
2,note_on,60,0,120
2,note_on,48,0,0
2,note_on,49,60,0
2,note_on,61,69,0
2,note_on,61,0,41
2,note_on,49,0,0
2,note_on,48,59,0
2,note_on,60,66,0
2,note_on,60,0,120
2,note_on,48,0,0
2,note_on,46,59,0
2,note_on,58,67,0
2,note_on,58,0,240
2,note_on,46,0,0
2,note_on,34,59,0
2,note_on,46,59,0
2,note_on,46,0,11
2,note_on,34,0,0
2,note_on,36,60,0
2,note_on,48,60,0
2,note_on,48,0,120
2,note_on,36,0,0
2,note_on,37,64,0
2,note_on,49,64,0
2,note_on,49,0,120
2,note_on,37,0,0
2,note_on,41,68,0
2,note_on,53,68,0
2,note_on,53,0,120
2,note_on,41,0,0
2,note_on,43,69,0
2,note_on,55,69,0
2,note_on,55,0,105
2,note_on,43,0,0
2,note_on,40,69,0
2,note_on,52,69,0
2,note_on,52,0,120
2,note_on,40,0,0
2,note_on,39,68,0
2,note_on,51,68,0
2,note_on,51,0,120
2,note_on,39,0,0
2,note_on,37,67,0
2,note_on,49,67,0
2,note_on,49,0,120
2,note_on,37,0,0
2,note_on,35,67,0
2,note_on,47,67,0
2,note_on,47,0,120
2,note_on,35,0,0
2,note_on,47,62,0
2,note_on,56,63,30
2,note_on,56,0,223
2,note_on,47,0,0
2,note_on,63,71,0
2,note_on,63,0,97
2,note_on,64,66,120
2,note_on,64,0,120
2,note_on,61,56,240
2,note_on,61,0,120
2,note_on,59,53,120
2,note_on,59,0,120
2,note_on,57,57,209
2,note_on,57,0,49
2,note_on,47,51,0
2,note_on,47,0,80
2,note_on,39,50,0
2,note_on,39,0,80
2,note_on,40,63,0
2,note_on,40,0,28
2,note_on,47,52,0
2,note_on,47,0,80
2,note_on,56,52,0
2,note_on,56,0,80
2,note_on,75,81,180
2,note_on,75,0,108
2,note_on,76,76,120
2,note_on,76,0,120
2,note_on,73,65,240
2,note_on,73,0,120
2,note_on,71,56,120
2,note_on,71,0,120
2,note_on,70,62,169
2,note_on,70,0,60
2,note_on,64,64,0
2,note_on,64,0,60
2,note_on,61,66,0
2,note_on,61,0,60
2,note_on,55,70,0
2,note_on,55,0,60
2,note_on,32,70,60
2,note_on,32,0,49
2,note_on,41,63,0
2,note_on,41,0,120
2,note_on,48,85,43
2,note_on,48,0,120
2,note_on,49,79,120
2,note_on,49,0,120
2,note_on,46,62,240
2,note_on,46,0,120
2,note_on,44,58,120
2,note_on,44,0,120
2,note_on,42,58,229
2,note_on,42,0,63
2,note_on,30,51,0
2,note_on,30,0,120
2,note_on,29,70,0
2,note_on,29,0,28
2,note_on,46,63,0
2,note_on,46,0,120
2,note_on,57,85,108
2,note_on,57,0,97
2,note_on,58,79,120
2,note_on,58,0,120
2,note_on,55,62,240
2,note_on,55,0,120
2,note_on,53,58,120
2,note_on,53,0,120
2,note_on,49,58,229
2,note_on,49,0,72
2,note_on,33,51,0
2,note_on,33,0,120
2,note_on,32,70,0
2,note_on,32,0,35
2,note_on,49,63,0
2,note_on,49,0,120
2,note_on,60,85,176
2,note_on,60,0,106
2,note_on,61,79,120
2,note_on,61,0,120
2,note_on,58,62,240
2,note_on,58,0,120
2,note_on,56,58,120
2,note_on,56,0,120
2,note_on,54,58,229
2,note_on,54,0,120
2,note_on,42,51,0
2,note_on,42,0,120
2,note_on,41,73,0
2,note_on,41,0,57
2,note_on,58,67,0
2,note_on,58,0,12
2,note_on,69,89,221
2,note_on,69,0,97
2,note_on,70,84,120
2,note_on,70,0,120
2,note_on,67,66,240
2,note_on,67,0,120
2,note_on,65,60,120
2,note_on,65,0,120
2,note_on,52,58,230
2,note_on,61,60,0
2,note_on,61,0,77
2,note_on,52,0,0
2,note_on,45,52,0
2,note_on,45,0,120
2,note_on,49,81,0
2,note_on,44,73,0
2,note_on,44,0,49
2,note_on,49,0,0
2,note_on,61,75,0
2,note_on,61,0,120
2,note_on,72,94,240
2,note_on,72,0,70
2,note_on,73,87,120
2,note_on,73,0,120
2,note_on,44,59,120
2,note_on,51,59,0
2,note_on,54,59,0
2,note_on,60,67,0
2,note_on,60,0,117
2,note_on,44,0,0
2,note_on,51,0,0
2,note_on,54,0,0
2,note_on,70,59,0
2,note_on,58,59,0
2,note_on,58,0,120
2,note_on,70,0,0
2,note_on,68,57,61
2,note_on,56,57,0
2,note_on,56,0,120
2,note_on,68,0,0
2,note_on,73,59,50
2,note_on,61,59,0
2,note_on,61,0,120
2,note_on,73,0,0
2,note_on,71,57,55
2,note_on,59,57,0
2,note_on,59,0,120
2,note_on,71,0,0
2,note_on,75,59,61
2,note_on,63,59,0
2,note_on,63,0,120
2,note_on,75,0,0
2,note_on,73,58,9
2,note_on,61,58,0
2,note_on,61,0,120
2,note_on,73,0,0
2,note_on,75,61,94
2,note_on,63,61,0
2,note_on,63,0,107
2,note_on,75,0,0
2,note_on,74,59,55
2,note_on,62,59,0
2,note_on,62,0,120
2,note_on,74,0,0
2,note_on,56,61,0
2,note_on,63,61,0
2,note_on,66,61,0
2,note_on,73,70,0
2,note_on,73,0,43
2,note_on,56,0,0
2,note_on,63,0,0
2,note_on,66,0,0
2,note_on,80,67,0
2,note_on,80,0,120
2,note_on,56,63,240
2,note_on,63,63,0
2,note_on,66,63,0
2,note_on,72,71,0
2,note_on,72,0,47
2,note_on,56,0,0
2,note_on,63,0,0
2,note_on,66,0,0
2,note_on,82,67,0
2,note_on,82,0,120
2,note_on,65,70,0
2,note_on,70,70,0
2,note_on,58,70,7
2,note_on,70,0,233
2,note_on,65,0,0
2,note_on,58,0,7
2,note_on,49,55,233
2,note_on,54,55,0
2,note_on,54,0,90
2,note_on,49,0,0
2,note_on,49,55,30
2,note_on,54,55,0
2,note_on,54,0,90
2,note_on,49,0,0
2,note_on,49,65,270
2,note_on,57,65,0
2,note_on,57,0,90
2,note_on,49,0,0
2,note_on,49,61,30
2,note_on,57,61,0
2,note_on,57,0,90
2,note_on,49,0,0
2,note_on,49,63,270
2,note_on,56,63,0
2,note_on,56,0,90
2,note_on,49,0,0
2,note_on,49,61,30
2,note_on,56,61,0
2,note_on,56,0,90
2,note_on,49,0,0
2,note_on,47,63,270
2,note_on,54,63,0
2,note_on,54,0,90
2,note_on,47,0,0
2,note_on,47,61,270
2,note_on,52,61,0
2,note_on,52,0,90
2,note_on,47,0,0
2,note_on,47,63,30
2,note_on,57,63,0
2,note_on,57,0,90
2,note_on,47,0,0
2,note_on,47,61,270
2,note_on,56,61,0
2,note_on,56,0,90
2,note_on,47,0,0
2,note_on,47,62,30
2,note_on,54,62,0
2,note_on,54,0,90
2,note_on,47,0,0
2,note_on,47,61,270
2,note_on,56,61,0
2,note_on,56,0,90
2,note_on,47,0,0
2,note_on,47,61,30
2,note_on,57,61,0
2,note_on,57,0,90
2,note_on,47,0,0
2,note_on,42,61,150
2,note_on,54,61,0
2,note_on,54,0,90
2,note_on,42,0,0
2,note_on,37,70,108
2,note_on,44,70,0
2,note_on,49,79,0
2,note_on,49,0,21
2,note_on,44,0,0
2,note_on,37,0,0
2,note_on,49,55,240
2,note_on,54,55,0
2,note_on,54,0,90
2,note_on,49,0,0
2,note_on,49,55,30
2,note_on,54,55,0
2,note_on,54,0,90
2,note_on,49,0,0
2,note_on,49,65,270
2,note_on,57,65,0
2,note_on,57,0,90
2,note_on,49,0,0
2,note_on,49,61,30
2,note_on,57,61,0
2,note_on,57,0,90
2,note_on,49,0,0
2,note_on,49,63,270
2,note_on,56,63,0
2,note_on,56,0,90
2,note_on,49,0,0
2,note_on,49,61,30
2,note_on,56,61,0
2,note_on,56,0,90
2,note_on,49,0,0
2,note_on,49,63,270
2,note_on,54,63,0
2,note_on,54,0,90
2,note_on,49,0,0
2,note_on,49,61,270
2,note_on,52,61,0
2,note_on,52,0,90
2,note_on,49,0,0
2,note_on,49,63,30
2,note_on,55,63,0
2,note_on,55,0,90
2,note_on,49,0,0
2,note_on,49,61,270
2,note_on,54,61,0
2,note_on,54,0,90
2,note_on,49,0,0
2,note_on,49,62,30
2,note_on,52,62,0
2,note_on,52,0,90
2,note_on,49,0,0
2,note_on,49,61,270
2,note_on,54,61,0
2,note_on,54,0,90
2,note_on,49,0,0
2,note_on,49,61,30
2,note_on,55,61,0
2,note_on,55,0,90
2,note_on,49,0,0
2,note_on,37,61,150
2,note_on,49,61,0
2,note_on,49,0,90
2,note_on,49,70,102
2,note_on,54,70,0
2,note_on,57,70,0
2,note_on,62,79,0
2,note_on,62,0,75
2,note_on,54,0,0
2,note_on,37,0,0
2,note_on,49,0,0
2,note_on,57,0,0
2,note_on,54,55,240
2,note_on,61,55,0
2,note_on,61,0,90
2,note_on,54,0,0
2,note_on,54,55,30
2,note_on,61,55,0
2,note_on,61,0,90
2,note_on,54,0,0
2,note_on,54,65,270
2,note_on,64,65,0
2,note_on,64,0,90
2,note_on,54,0,0
2,note_on,54,61,30
2,note_on,64,61,0
2,note_on,64,0,90
2,note_on,54,0,0
2,note_on,54,63,270
2,note_on,62,63,0
2,note_on,62,0,90
2,note_on,54,0,0
2,note_on,54,61,30
2,note_on,62,61,0
2,note_on,62,0,90
2,note_on,54,0,0
2,note_on,49,70,270
2,note_on,55,70,0
2,note_on,59,70,0
2,note_on,62,79,0
2,note_on,62,0,210
2,note_on,49,0,0
2,note_on,55,0,0
2,note_on,59,0,0
2,note_on,59,55,240
2,note_on,66,55,0
2,note_on,66,0,90
2,note_on,59,0,0
2,note_on,59,55,30
2,note_on,66,55,0
2,note_on,66,0,90
2,note_on,59,0,0
2,note_on,59,65,270
2,note_on,69,65,0
2,note_on,69,0,90
2,note_on,59,0,0
2,note_on,59,61,30
2,note_on,69,61,0
2,note_on,69,0,90
2,note_on,59,0,0
2,note_on,59,63,270
2,note_on,67,63,0
2,note_on,67,0,90
2,note_on,59,0,0
2,note_on,59,61,30
2,note_on,67,61,0
2,note_on,67,0,90
2,note_on,59,0,0
2,note_on,37,51,224
2,note_on,44,51,0
2,note_on,49,55,0
2,note_on,49,0,120
2,note_on,44,0,0
2,note_on,37,0,0
2,note_on,71,52,162
2,note_on,73,56,0
2,note_on,77,56,0
2,note_on,77,0,120
2,note_on,73,0,0
2,note_on,71,0,0
2,note_on,49,51,170
2,note_on,54,56,0
2,note_on,54,0,120
2,note_on,49,0,0
2,note_on,81,62,185
2,note_on,78,55,0
2,note_on,78,0,120
2,note_on,81,0,0
2,note_on,60,59,202
2,note_on,57,59,0
2,note_on,54,52,0
2,note_on,49,52,0
2,note_on,49,0,120
2,note_on,60,0,0
2,note_on,57,0,0
2,note_on,54,0,0
2,note_on,86,69,158
2,note_on,84,60,0
2,note_on,81,60,0
2,note_on,81,0,120
2,note_on,84,0,0
2,note_on,86,0,0
2,note_on,60,63,131
2,note_on,56,63,0
2,note_on,54,55,0
2,note_on,49,55,0
2,note_on,49,0,120
2,note_on,60,0,0
2,note_on,56,0,0
2,note_on,54,0,0
2,note_on,92,74,114
2,note_on,90,74,0
2,note_on,87,63,0
2,note_on,87,0,120
2,note_on,90,0,0
2,note_on,92,0,0
2,note_on,37,79,0
2,note_on,44,79,0
2,note_on,49,87,0
2,note_on,49,0,169
2,note_on,44,0,0
2,note_on,37,0,0
2,note_on,56,55,0
2,note_on,61,55,0
2,note_on,61,0,74
2,note_on,56,0,0
2,note_on,59,53,120
2,note_on,56,53,0
2,note_on,56,0,120
2,note_on,59,0,0
2,note_on,56,55,120
2,note_on,61,55,0
2,note_on,61,0,120
2,note_on,56,0,0
2,note_on,54,61,120
2,note_on,62,61,0
2,note_on,62,0,120
2,note_on,54,0,0
2,note_on,64,55,120
2,note_on,54,55,0
2,note_on,54,0,120
2,note_on,64,0,0
2,note_on,61,61,120
2,note_on,54,61,0
2,note_on,54,0,120
2,note_on,61,0,0
2,note_on,62,55,120
2,note_on,54,55,0
2,note_on,54,0,120
2,note_on,62,0,0
2,note_on,52,63,120
2,note_on,59,63,0
2,note_on,59,0,120
2,note_on,52,0,0
2,note_on,52,52,240
2,note_on,57,52,0
2,note_on,57,0,120
2,note_on,52,0,0
2,note_on,52,63,0
2,note_on,62,63,0
2,note_on,62,0,120
2,note_on,52,0,0
2,note_on,52,51,240
2,note_on,61,51,0
2,note_on,61,0,120
2,note_on,52,0,0
2,note_on,52,62,0
2,note_on,59,62,0
2,note_on,59,0,120
2,note_on,52,0,0
2,note_on,52,55,240
2,note_on,61,55,0
2,note_on,61,0,120
2,note_on,52,0,0
2,note_on,52,63,0
2,note_on,62,63,0
2,note_on,62,0,120
2,note_on,52,0,0
2,note_on,38,62,120
2,note_on,44,62,0
2,note_on,50,62,0
2,note_on,50,0,120
2,note_on,44,0,0
2,note_on,38,0,0
2,note_on,37,70,83
2,note_on,44,70,0
2,note_on,49,79,0
2,note_on,49,0,169
2,note_on,44,0,0
2,note_on,37,0,0
2,note_on,56,55,0
2,note_on,61,55,0
2,note_on,61,0,85
2,note_on,56,0,0
2,note_on,59,53,120
2,note_on,56,53,0
2,note_on,56,0,120
2,note_on,59,0,0
2,note_on,56,55,120
2,note_on,61,55,0
2,note_on,61,0,120
2,note_on,56,0,0
2,note_on,54,61,120
2,note_on,62,61,0
2,note_on,62,0,120
2,note_on,54,0,0
2,note_on,64,55,120
2,note_on,54,55,0
2,note_on,54,0,120
2,note_on,64,0,0
2,note_on,61,61,120
2,note_on,54,61,0
2,note_on,54,0,120
2,note_on,61,0,0
2,note_on,62,55,120
2,note_on,54,55,0
2,note_on,54,0,120
2,note_on,62,0,0
2,note_on,52,63,120
2,note_on,59,63,0
2,note_on,59,0,120
2,note_on,52,0,0
2,note_on,52,52,240
2,note_on,57,52,0
2,note_on,57,0,120
2,note_on,52,0,0
2,note_on,52,63,0
2,note_on,60,63,0
2,note_on,60,0,120
2,note_on,52,0,0
2,note_on,52,51,240
2,note_on,59,51,0
2,note_on,59,0,120
2,note_on,52,0,0
2,note_on,52,62,0
2,note_on,57,62,0
2,note_on,57,0,120
2,note_on,52,0,0
2,note_on,52,55,240
2,note_on,59,55,0
2,note_on,59,0,120
2,note_on,52,0,0
2,note_on,50,63,0
2,note_on,60,63,0
2,note_on,60,0,120
2,note_on,50,0,0
2,note_on,38,62,120
2,note_on,50,62,0
2,note_on,50,0,120
2,note_on,38,0,0
2,note_on,31,70,74
2,note_on,38,70,0
2,note_on,43,79,0
2,note_on,43,0,155
2,note_on,38,0,0
2,note_on,31,0,0
2,note_on,59,55,226
2,note_on,66,55,0
2,note_on,66,0,90
2,note_on,59,0,0
2,note_on,59,55,30
2,note_on,66,55,0
2,note_on,66,0,90
2,note_on,59,0,0
2,note_on,59,65,270
2,note_on,69,65,0
2,note_on,69,0,90
2,note_on,59,0,0
2,note_on,59,61,30
2,note_on,69,61,0
2,note_on,69,0,90
2,note_on,59,0,0
2,note_on,59,63,270
2,note_on,67,63,0
2,note_on,67,0,90
2,note_on,59,0,0
2,note_on,59,61,30
2,note_on,67,61,0
2,note_on,67,0,90
2,note_on,59,0,0
2,note_on,40,70,270
2,note_on,43,70,0
2,note_on,48,70,0
2,note_on,52,79,0
2,note_on,52,0,210
2,note_on,40,0,0
2,note_on,43,0,0
2,note_on,48,0,0
2,note_on,64,55,228
2,note_on,71,55,0
2,note_on,71,0,90
2,note_on,64,0,0
2,note_on,64,55,30
2,note_on,71,55,0
2,note_on,71,0,90
2,note_on,64,0,0
2,note_on,64,65,270
2,note_on,74,65,0
2,note_on,74,0,90
2,note_on,64,0,0
2,note_on,64,61,30
2,note_on,74,61,0
2,note_on,74,0,90
2,note_on,64,0,0
2,note_on,64,63,270
2,note_on,72,63,0
2,note_on,72,0,90
2,note_on,64,0,0
2,note_on,64,61,30
2,note_on,72,61,0
2,note_on,72,0,90
2,note_on,64,0,0
2,note_on,49,51,224
2,note_on,54,56,0
2,note_on,54,0,120
2,note_on,49,0,0
2,note_on,76,53,195
2,note_on,78,60,0
2,note_on,82,60,0
2,note_on,82,0,120
2,note_on,78,0,0
2,note_on,76,0,0
2,note_on,49,53,106
2,note_on,54,53,0
2,note_on,59,61,0
2,note_on,59,0,120
2,note_on,54,0,0
2,note_on,49,0,0
2,note_on,86,65,134
2,note_on,83,61,0
2,note_on,83,0,120
2,note_on,86,0,0
2,note_on,64,64,171
2,note_on,59,64,0
2,note_on,56,57,0
2,note_on,49,57,0
2,note_on,49,0,120
2,note_on,64,0,0
2,note_on,59,0,0
2,note_on,56,0,0
2,note_on,88,75,160
2,note_on,86,66,0
2,note_on,86,0,120
2,note_on,88,0,0
2,note_on,63,72,143
2,note_on,56,63,0
2,note_on,49,63,0
2,note_on,49,0,120
2,note_on,56,0,0
2,note_on,63,0,0
2,note_on,92,83,114
2,note_on,90,83,0
2,note_on,90,0,120
2,note_on,92,0,0
2,note_on,25,75,0
2,note_on,37,102,0
2,note_on,37,0,134
2,note_on,25,0,0
2,note_on,49,74,0
2,note_on,44,74,0
2,note_on,56,83,0
2,note_on,56,0,240
2,note_on,44,0,0
2,note_on,49,0,0
2,note_on,49,55,0
2,note_on,56,55,0
2,note_on,61,79,0
2,note_on,61,0,240
2,note_on,56,0,0
2,note_on,49,0,0
2,note_on,56,55,0
2,note_on,61,62,0
2,note_on,53,55,0
2,note_on,65,79,0
2,note_on,65,0,240
2,note_on,56,0,0
2,note_on,61,0,0
2,note_on,53,0,0
2,note_on,37,61,0
2,note_on,49,77,0
2,note_on,49,0,45
2,note_on,37,0,0
2,note_on,40,61,0
2,note_on,52,70,0
2,note_on,52,0,120
2,note_on,40,0,0
2,note_on,43,62,0
2,note_on,55,71,0
2,note_on,55,0,120
2,note_on,43,0,0
2,note_on,46,63,0
2,note_on,58,72,0
2,note_on,58,0,120
2,note_on,46,0,0
2,note_on,49,63,0
2,note_on,61,72,0
2,note_on,61,0,120
2,note_on,49,0,0
2,note_on,52,66,0
2,note_on,64,74,0
2,note_on,64,0,120
2,note_on,52,0,0
2,note_on,55,66,0
2,note_on,67,74,0
2,note_on,67,0,240
2,note_on,55,0,0
2,note_on,25,77,0
2,note_on,37,93,0
2,note_on,37,0,137
2,note_on,25,0,0
2,note_on,61,73,0
2,note_on,65,81,0
2,note_on,68,81,0
2,note_on,56,73,0
2,note_on,56,0,148
2,note_on,61,0,0
2,note_on,65,0,0
2,note_on,68,0,0
2,note_on,56,60,0
2,note_on,61,60,0
2,note_on,53,60,0
2,note_on,65,76,0
2,note_on,65,0,240
2,note_on,56,0,0
2,note_on,61,0,0
2,note_on,53,0,0
2,note_on,37,55,0
2,note_on,49,72,0
2,note_on,49,0,17
2,note_on,37,0,0
2,note_on,42,55,0
2,note_on,54,63,0
2,note_on,54,0,120
2,note_on,42,0,0
2,note_on,45,56,0
2,note_on,57,63,0
2,note_on,57,0,120
2,note_on,45,0,0
2,note_on,48,57,0
2,note_on,60,64,0
2,note_on,60,0,120
2,note_on,48,0,0
2,note_on,51,57,0
2,note_on,63,65,0
2,note_on,63,0,120
2,note_on,51,0,0
2,note_on,54,60,0
2,note_on,66,66,0
2,note_on,66,0,120
2,note_on,54,0,0
2,note_on,57,61,0
2,note_on,69,67,0
2,note_on,69,0,240
2,note_on,57,0,0
2,note_on,25,87,0
2,note_on,37,87,0
2,note_on,37,0,160
2,note_on,25,0,0
2,note_on,63,71,0
2,note_on,66,79,0
2,note_on,57,63,0
2,note_on,57,0,143
2,note_on,66,0,0
2,note_on,63,0,0
2,note_on,61,63,0
2,note_on,58,63,0
2,note_on,66,71,0
2,note_on,66,0,240
2,note_on,58,0,0
2,note_on,61,0,0
2,note_on,37,61,0
2,note_on,49,77,0
2,note_on,49,0,5
2,note_on,37,0,0
2,note_on,40,61,0
2,note_on,52,70,0
2,note_on,52,0,120
2,note_on,40,0,0
2,note_on,43,62,0
2,note_on,55,71,0
2,note_on,55,0,120
2,note_on,43,0,0
2,note_on,46,63,0
2,note_on,58,72,0
2,note_on,58,0,120
2,note_on,46,0,0
2,note_on,49,63,0
2,note_on,61,72,0
2,note_on,61,0,120
2,note_on,49,0,0
2,note_on,52,66,0
2,note_on,64,74,0
2,note_on,64,0,120
2,note_on,52,0,0
2,note_on,55,66,0
2,note_on,67,74,0
2,note_on,67,0,240
2,note_on,55,0,0
2,note_on,56,74,0
2,note_on,61,74,0
2,note_on,65,74,0
2,note_on,68,89,0
2,note_on,68,0,125
2,note_on,56,0,0
2,note_on,61,0,0
2,note_on,65,0,0
2,note_on,44,86,0
2,note_on,32,77,0
2,note_on,32,0,240
2,note_on,44,0,0
2,note_on,64,66,0
2,note_on,64,0,11
2,note_on,65,61,0
2,note_on,65,0,120
2,note_on,63,66,0
2,note_on,63,0,120
2,note_on,61,62,0
2,note_on,61,0,120
2,note_on,55,67,0
2,note_on,55,0,120
2,note_on,56,61,0
2,note_on,56,0,120
2,note_on,54,65,0
2,note_on,54,0,120
2,note_on,53,60,0
2,note_on,53,0,120
2,note_on,52,66,0
2,note_on,52,0,120
2,note_on,53,62,0
2,note_on,53,0,120
2,note_on,51,64,0
2,note_on,51,0,120
2,note_on,49,62,0
2,note_on,49,0,120
2,note_on,43,54,0
2,note_on,55,62,0
2,note_on,55,0,120
2,note_on,43,0,0
2,note_on,44,45,0
2,note_on,56,51,0
2,note_on,56,0,120
2,note_on,44,0,0
2,note_on,42,49,0
2,note_on,54,54,0
2,note_on,54,0,120
2,note_on,42,0,0
2,note_on,41,44,0
2,note_on,53,50,0
2,note_on,53,0,120
2,note_on,41,0,0
2,note_on,40,47,0
2,note_on,52,53,0
2,note_on,52,0,120
2,note_on,40,0,0
2,note_on,41,39,0
2,note_on,53,44,0
2,note_on,53,0,120
2,note_on,41,0,0
2,note_on,39,45,0
2,note_on,51,51,0
2,note_on,51,0,120
2,note_on,39,0,0
2,note_on,37,39,0
2,note_on,49,44,0
2,note_on,49,0,120
2,note_on,37,0,0
2,note_on,37,45,0
2,note_on,46,45,0
2,note_on,46,0,120
2,note_on,47,47,0
2,note_on,47,0,120
2,note_on,37,0,0
2,note_on,48,51,0
2,note_on,48,0,68
2,note_on,49,53,0
2,note_on,49,0,110
2,note_on,49,54,10
2,note_on,49,0,120
2,note_on,48,53,0
2,note_on,48,0,120
2,note_on,47,52,0
2,note_on,47,0,120
2,note_on,46,50,0
2,note_on,46,0,120
2,note_on,37,47,0
2,note_on,45,47,0
2,note_on,45,0,28
2,note_on,46,46,0
2,note_on,46,0,120
2,note_on,37,0,0
2,note_on,47,46,0
2,note_on,47,0,120
2,note_on,48,45,0
2,note_on,48,0,120
2,note_on,37,47,0
2,note_on,46,47,0
2,note_on,46,0,11
2,note_on,47,47,0
2,note_on,47,0,120
2,note_on,37,0,0
2,note_on,48,46,0
2,note_on,48,0,120
2,note_on,49,46,0
2,note_on,49,0,120
2,note_on,37,45,0
2,note_on,46,45,0
2,note_on,46,0,117
2,note_on,47,47,0
2,note_on,47,0,120
2,note_on,37,0,0
2,note_on,48,51,0
2,note_on,48,0,114
2,note_on,49,53,0
2,note_on,49,0,110
2,note_on,49,54,10
2,note_on,49,0,120
2,note_on,48,53,0
2,note_on,48,0,120
2,note_on,47,52,0
2,note_on,47,0,120
2,note_on,46,50,0
2,note_on,46,0,120
2,note_on,37,47,0
2,note_on,45,47,0
2,note_on,45,0,86
2,note_on,46,46,0
2,note_on,46,0,120
2,note_on,37,0,0
2,note_on,47,46,0
2,note_on,47,0,120
2,note_on,48,45,0
2,note_on,48,0,120
2,note_on,37,47,0
2,note_on,45,47,0
2,note_on,45,0,33
2,note_on,47,47,0
2,note_on,47,0,120
2,note_on,37,0,0
2,note_on,48,46,0
2,note_on,48,0,120
2,note_on,49,46,0
2,note_on,49,0,120
2,note_on,37,47,0
2,note_on,45,47,0
2,note_on,45,0,116
2,note_on,46,50,0
2,note_on,46,0,120
2,note_on,37,0,0
2,note_on,47,53,0
2,note_on,47,0,114
2,note_on,48,55,0
2,note_on,48,0,120
2,note_on,49,57,0
2,note_on,49,0,120
2,note_on,48,55,0
2,note_on,48,0,120
2,note_on,47,53,0
2,note_on,47,0,120
2,note_on,46,52,0
2,note_on,46,0,120
2,note_on,45,50,0
2,note_on,45,0,86
2,note_on,54,45,0
2,note_on,54,0,120
2,note_on,45,49,0
2,note_on,45,0,120
2,note_on,37,46,0
2,note_on,37,0,120
2,note_on,45,53,0
2,note_on,45,0,38
2,note_on,51,50,0
2,note_on,51,0,120
2,note_on,45,53,0
2,note_on,45,0,120
2,note_on,37,50,0
2,note_on,37,0,120
2,note_on,44,57,0
2,note_on,44,0,40
2,note_on,54,53,0
2,note_on,54,0,120
2,note_on,44,57,0
2,note_on,44,0,120
2,note_on,37,55,0
2,note_on,37,0,120
2,note_on,44,63,0
2,note_on,44,0,51
2,note_on,51,57,0
2,note_on,51,0,120
2,note_on,44,62,0
2,note_on,44,0,120
2,note_on,37,59,0
2,note_on,37,0,120
2,note_on,44,67,0
2,note_on,44,0,51
2,note_on,54,63,0
2,note_on,54,0,120
2,note_on,44,67,0
2,note_on,44,0,120
2,note_on,37,63,0
2,note_on,37,0,120
2,note_on,44,71,0
2,note_on,44,0,5
2,note_on,51,66,0
2,note_on,51,0,120
2,note_on,44,72,0
2,note_on,44,0,120
2,note_on,37,67,0
2,note_on,44,80,120
2,note_on,49,80,0
2,note_on,49,0,23
2,note_on,44,0,0
2,note_on,88,70,120
2,note_on,91,82,0
2,note_on,91,0,120
2,note_on,88,0,0
2,note_on,37,0,0
2,note_on,84,66,120
2,note_on,88,80,0
2,note_on,88,0,120
2,note_on,84,0,0
2,note_on,79,63,120
2,note_on,82,76,0
2,note_on,82,0,120
2,note_on,79,0,0
2,note_on,76,64,34
2,note_on,79,77,0
2,note_on,79,0,120
2,note_on,76,0,0
2,note_on,72,62,120
2,note_on,76,73,0
2,note_on,76,0,120
2,note_on,72,0,0
2,note_on,67,62,120
2,note_on,70,74,0
2,note_on,70,0,120
2,note_on,67,0,0
2,note_on,64,60,120
2,note_on,67,71,0
2,note_on,67,0,120
2,note_on,64,0,0
2,note_on,49,63,120
2,note_on,61,76,0
2,note_on,61,0,120
2,note_on,49,0,0
2,note_on,64,62,23
2,note_on,67,74,0
2,note_on,67,0,120
2,note_on,64,0,0
2,note_on,60,60,120
2,note_on,64,71,0
2,note_on,64,0,120
2,note_on,60,0,0
2,note_on,55,57,120
2,note_on,58,67,0
2,note_on,58,0,120
2,note_on,55,0,0
2,note_on,52,57,120
2,note_on,55,69,0
2,note_on,55,0,120
2,note_on,52,0,0
2,note_on,48,55,120
2,note_on,52,65,0
2,note_on,52,0,120
2,note_on,48,0,0
2,note_on,43,55,120
2,note_on,46,65,0
2,note_on,46,0,120
2,note_on,43,0,0
2,note_on,40,53,120
2,note_on,43,63,0
2,note_on,43,0,120
2,note_on,40,0,0
2,note_on,25,61,120
2,note_on,37,75,0
2,note_on,37,0,120
2,note_on,25,0,0
2,note_on,36,61,51
2,note_on,48,75,0
2,note_on,48,0,120
2,note_on,36,0,0
2,note_on,35,63,57
2,note_on,47,76,0
2,note_on,47,0,120
2,note_on,35,0,0
2,note_on,34,67,69
2,note_on,46,79,0
2,note_on,46,0,120
2,note_on,34,0,0
2,note_on,33,69,53
2,note_on,45,81,0
2,note_on,45,0,120
2,note_on,33,0,0
2,note_on,32,71,70
2,note_on,44,85,0
2,note_on,44,0,120
2,note_on,32,0,0
2,note_on,33,75,43
2,note_on,45,87,0
2,note_on,45,0,120
2,note_on,33,0,0
2,note_on,34,76,29
2,note_on,46,91,0
2,note_on,46,0,120
2,note_on,34,0,0
2,note_on,33,77,53
2,note_on,45,92,0
2,note_on,45,0,120
2,note_on,33,0,0
2,note_on,32,76,38
2,note_on,44,92,0
2,note_on,44,0,120
2,note_on,32,0,0
2,note_on,31,76,75
2,note_on,43,90,0
2,note_on,43,0,120
2,note_on,31,0,0
2,note_on,30,76,55
2,note_on,42,89,0
2,note_on,42,0,120
2,note_on,30,0,0
2,note_on,29,73,86
2,note_on,41,85,0
2,note_on,41,0,120
2,note_on,29,0,0
2,note_on,28,70,57
2,note_on,40,84,0
2,note_on,40,0,120
2,note_on,28,0,0
2,note_on,27,70,43
2,note_on,39,84,0
2,note_on,39,0,120
2,note_on,27,0,0
2,note_on,26,68,5
2,note_on,38,80,0
2,note_on,38,0,120
2,note_on,26,0,0
2,note_on,25,67,0
2,note_on,37,79,0
2,note_on,37,0,180
2,note_on,25,0,0
2,note_on,45,50,0
2,note_on,53,52,30
2,note_on,57,58,30
2,note_on,63,61,30
2,note_on,63,0,155
2,note_on,45,0,0
2,note_on,53,0,0
2,note_on,57,0,0
2,note_on,64,76,240
2,note_on,57,63,0
2,note_on,52,63,0
2,note_on,45,63,0
2,note_on,45,0,240
2,note_on,64,0,0
2,note_on,57,0,0
2,note_on,52,0,0
2,note_on,42,63,210
2,note_on,66,76,30
2,note_on,61,76,0
2,note_on,54,63,0
2,note_on,54,0,240
2,note_on,42,0,0
2,note_on,66,0,0
2,note_on,61,0,0
2,note_on,37,67,210
2,note_on,49,67,0
2,note_on,68,80,30
2,note_on,65,80,0
2,note_on,61,80,0
2,note_on,56,67,0
2,note_on,56,0,240
2,note_on,49,0,0
2,note_on,68,0,0
2,note_on,37,0,0
2,note_on,61,0,0
2,note_on,65,0,0
2,note_on,65,70,720
2,note_on,68,70,0
2,note_on,73,84,0
2,note_on,77,84,0
2,note_on,77,0,240
2,note_on,65,0,0
2,note_on,68,0,0
2,note_on,73,0,0
2,note_on,56,76,540
2,note_on,56,0,60
2,note_on,57,76,0
2,note_on,57,0,60
2,note_on,60,76,0
2,note_on,60,0,60
2,note_on,49,75,0
2,note_on,61,82,0
2,note_on,61,0,120
2,note_on,49,0,0
2,note_on,25,69,120
2,note_on,37,76,0
2,note_on,37,0,240
2,note_on,25,0,0
