Track,Message Type,Note,Velocity,Time
1,note_on,63,34,720
1,note_on,63,0,240
1,note_on,68,40,0
1,note_on,68,0,240
1,note_on,72,36,0
1,note_on,72,0,240
1,note_on,68,32,0
1,note_on,68,0,240
1,note_on,63,32,0
1,note_on,63,0,240
1,note_on,63,37,240
1,note_on,63,0,240
1,note_on,68,40,0
1,note_on,68,0,240
1,note_on,72,37,0
1,note_on,72,0,240
1,note_on,68,33,0
1,note_on,68,0,240
1,note_on,63,34,0
1,note_on,63,0,240
1,note_on,64,30,240
1,note_on,64,0,240
1,note_on,70,34,0
1,note_on,70,0,240
1,note_on,72,31,0
1,note_on,72,0,240
1,note_on,70,27,0
1,note_on,70,0,240
1,note_on,64,27,0
1,note_on,64,0,240
1,note_on,64,30,240
1,note_on,64,0,240
1,note_on,70,34,0
1,note_on,70,0,240
1,note_on,72,30,0
1,note_on,72,0,240
1,note_on,70,26,0
1,note_on,70,0,240
1,note_on,64,26,0
1,note_on,64,0,240
1,note_on,63,34,240
1,note_on,63,0,240
1,note_on,69,36,0
1,note_on,69,0,240
1,note_on,72,35,0
1,note_on,72,0,240
1,note_on,69,36,0
1,note_on,69,0,240
1,note_on,63,38,0
1,note_on,63,0,240
1,note_on,63,38,240
1,note_on,63,0,240
1,note_on,69,43,0
1,note_on,69,0,240
1,note_on,72,40,0
1,note_on,72,0,240
1,note_on,69,37,0
1,note_on,69,0,240
1,note_on,63,37,0
1,note_on,63,0,240
1,note_on,62,38,240
1,note_on,62,0,240
1,note_on,68,43,0
1,note_on,68,0,240
1,note_on,72,42,0
1,note_on,72,0,240
1,note_on,68,39,0
1,note_on,68,0,240
1,note_on,62,39,0
1,note_on,62,0,240
1,note_on,62,36,240
1,note_on,62,0,240
1,note_on,68,40,0
1,note_on,68,0,240
1,note_on,72,37,0
1,note_on,72,0,240
1,note_on,68,32,0
1,note_on,68,0,240
1,note_on,62,34,0
1,note_on,62,0,240
1,note_on,61,38,240
1,note_on,61,0,240
1,note_on,63,45,0
1,note_on,63,0,240
1,note_on,72,38,0
1,note_on,72,0,240
1,note_on,63,34,0
1,note_on,63,0,240
1,note_on,61,33,0
1,note_on,61,0,240
1,note_on,61,38,240
1,note_on,61,0,240
1,note_on,63,43,0
1,note_on,63,0,240
1,note_on,67,38,0
1,note_on,67,0,240
1,note_on,63,34,0
1,note_on,63,0,240
1,note_on,61,34,0
1,note_on,61,0,240
1,note_on,60,38,240
1,note_on,60,0,240
1,note_on,63,43,0
1,note_on,63,0,240
1,note_on,68,38,0
1,note_on,68,0,240
1,note_on,63,34,0
1,note_on,63,0,240
1,note_on,60,34,0
1,note_on,60,0,240
1,note_on,56,38,226
1,note_on,56,0,240
1,note_on,60,43,14
1,note_on,60,0,240
1,note_on,68,38,28
1,note_on,63,34,212
1,note_on,68,0,28
1,note_on,63,0,212
1,note_on,56,34,0
1,note_on,56,0,240
1,note_on,63,34,240
1,note_on,63,0,240
1,note_on,68,40,0
1,note_on,68,0,240
1,note_on,72,36,0
1,note_on,72,0,240
1,note_on,68,32,0
1,note_on,68,0,240
1,note_on,63,30,0
1,note_on,63,0,240
1,note_on,63,37,240
1,note_on,63,0,240
1,note_on,68,40,0
1,note_on,68,0,240
1,note_on,72,37,0
1,note_on,72,0,240
1,note_on,68,33,0
1,note_on,68,0,240
1,note_on,63,33,0
1,note_on,63,0,240
1,note_on,64,28,240
1,note_on,64,0,240
1,note_on,70,32,0
1,note_on,70,0,240
1,note_on,72,30,0
1,note_on,72,0,240
1,note_on,70,28,0
1,note_on,70,0,240
1,note_on,64,28,0
1,note_on,64,0,240
1,note_on,64,32,240
1,note_on,64,0,240
1,note_on,70,37,0
1,note_on,70,0,240
1,note_on,72,35,0
1,note_on,72,0,240
1,note_on,70,32,0
1,note_on,70,0,240
1,note_on,64,37,0
1,note_on,64,0,240
1,note_on,63,42,240
1,note_on,63,0,240
1,note_on,69,45,0
1,note_on,69,0,240
1,note_on,72,43,0
1,note_on,72,0,240
1,note_on,69,45,0
1,note_on,69,0,240
1,note_on,63,46,0
1,note_on,63,0,240
1,note_on,63,47,240
1,note_on,63,0,240
1,note_on,69,54,0
1,note_on,69,0,240
1,note_on,72,50,0
1,note_on,72,0,240
1,note_on,69,47,0
1,note_on,69,0,240
1,note_on,63,51,0
1,note_on,63,0,240
1,note_on,62,38,240
1,note_on,62,0,240
1,note_on,68,43,0
1,note_on,68,0,240
1,note_on,77,42,0
1,note_on,77,0,240
1,note_on,72,39,0
1,note_on,72,0,240
1,note_on,68,39,0
1,note_on,68,0,240
1,note_on,56,36,240
1,note_on,56,0,240
1,note_on,58,40,0
1,note_on,58,0,240
1,note_on,65,37,0
1,note_on,65,0,240
1,note_on,62,33,0
1,note_on,62,0,240
1,note_on,58,33,0
1,note_on,58,0,240
1,note_on,58,38,240
1,note_on,58,0,240
1,note_on,61,45,0
1,note_on,61,0,240
1,note_on,67,38,0
1,note_on,67,0,240
1,note_on,63,34,0
1,note_on,63,0,240
1,note_on,61,35,0
1,note_on,61,0,240
1,note_on,61,38,240
1,note_on,61,0,240
1,note_on,63,43,0
1,note_on,63,0,240
1,note_on,67,38,0
1,note_on,67,0,240
1,note_on,63,33,0
1,note_on,63,0,240
1,note_on,61,33,0
1,note_on,61,0,240
1,note_on,60,38,240
1,note_on,60,0,240
1,note_on,63,43,0
1,note_on,63,0,240
1,note_on,68,38,0
1,note_on,68,0,240
1,note_on,63,34,0
1,note_on,63,0,240
1,note_on,60,34,0
1,note_on,60,0,240
1,note_on,60,38,240
1,note_on,60,0,240
1,note_on,68,43,0
1,note_on,68,0,240
1,note_on,63,38,0
1,note_on,63,0,240
1,note_on,60,38,0
1,note_on,60,0,240
1,note_on,56,47,0
1,note_on,56,0,237
1,note_on,61,38,243
1,note_on,61,0,240
1,note_on,68,40,0
1,note_on,68,0,240
1,note_on,64,38,0
1,note_on,64,0,240
1,note_on,61,34,0
1,note_on,61,0,240
1,note_on,61,40,480
1,note_on,61,0,240
1,note_on,68,45,0
1,note_on,68,0,240
1,note_on,64,42,0
1,note_on,64,0,240
1,note_on,61,42,0
1,note_on,61,0,240
1,note_on,63,40,480
1,note_on,63,0,240
1,note_on,72,45,0
1,note_on,72,0,240
1,note_on,68,42,0
1,note_on,68,0,240
1,note_on,63,38,0
1,note_on,63,0,240
1,note_on,60,38,0
1,note_on,60,0,240
1,note_on,63,40,240
1,note_on,63,0,240
1,note_on,72,45,0
1,note_on,72,0,240
1,note_on,68,42,0
1,note_on,68,0,240
1,note_on,63,42,0
1,note_on,63,0,240
1,note_on,60,46,0
1,note_on,60,0,238
1,note_on,65,43,242
1,note_on,65,0,240
1,note_on,72,46,0
1,note_on,72,0,240
1,note_on,68,39,0
1,note_on,68,0,240
1,note_on,65,40,0
1,note_on,65,0,240
1,note_on,65,48,480
1,note_on,65,0,240
1,note_on,72,53,0
1,note_on,72,0,240
1,note_on,68,47,0
1,note_on,68,0,240
1,note_on,65,47,0
1,note_on,65,0,240
1,note_on,67,50,480
1,note_on,67,0,240
1,note_on,72,56,0
1,note_on,72,0,240
1,note_on,76,52,0
1,note_on,76,0,240
1,note_on,72,49,0
1,note_on,72,0,240
1,note_on,67,49,0
1,note_on,67,0,240
1,note_on,67,50,240
1,note_on,67,0,240
1,note_on,72,56,0
1,note_on,72,0,240
1,note_on,76,52,0
1,note_on,76,0,240
1,note_on,72,49,0
1,note_on,72,0,240
1,note_on,67,49,0
1,note_on,67,0,240
1,note_on,69,39,240
1,note_on,69,0,240
1,note_on,72,45,0
1,note_on,72,0,240
1,note_on,76,38,0
1,note_on,76,0,240
1,note_on,72,33,0
1,note_on,72,0,240
1,note_on,69,33,0
1,note_on,69,0,240
1,note_on,69,34,240
1,note_on,69,0,240
1,note_on,72,41,0
1,note_on,72,0,240
1,note_on,76,35,0
1,note_on,76,0,240
1,note_on,72,32,0
1,note_on,72,0,240
1,note_on,69,32,0
1,note_on,69,0,240
1,note_on,68,33,240
1,note_on,68,0,240
1,note_on,71,41,0
1,note_on,71,0,240
1,note_on,76,36,0
1,note_on,76,0,240
1,note_on,71,32,0
1,note_on,71,0,240
1,note_on,68,33,0
1,note_on,68,0,240
1,note_on,64,31,240
1,note_on,64,0,240
1,note_on,68,37,0
1,note_on,68,0,240
1,note_on,71,31,0
1,note_on,71,0,240
1,note_on,68,31,0
1,note_on,68,0,240
1,note_on,64,27,0
1,note_on,64,0,240
1,note_on,64,26,240
1,note_on,64,0,240
1,note_on,68,33,0
1,note_on,68,0,240
1,note_on,73,31,0
1,note_on,73,0,240
1,note_on,68,30,0
1,note_on,68,0,240
1,note_on,64,30,0
1,note_on,64,0,240
1,note_on,61,27,240
1,note_on,64,34,240
1,note_on,64,0,240
1,note_on,68,30,0
1,note_on,68,0,240
1,note_on,64,26,0
1,note_on,61,0,210
1,note_on,64,0,30
1,note_on,61,29,0
1,note_on,61,0,240
1,note_on,63,31,240
1,note_on,63,0,240
1,note_on,67,38,0
1,note_on,67,0,240
1,note_on,70,34,0
1,note_on,70,0,240
1,note_on,67,31,0
1,note_on,67,0,240
1,note_on,63,31,0
1,note_on,63,0,240
1,note_on,64,31,240
1,note_on,64,0,240
1,note_on,68,38,0
1,note_on,68,0,240
1,note_on,73,32,0
1,note_on,73,0,240
1,note_on,68,29,0
1,note_on,68,0,240
1,note_on,64,29,0
1,note_on,64,0,240
1,note_on,63,31,240
1,note_on,63,0,240
1,note_on,67,38,0
1,note_on,67,0,240
1,note_on,70,33,0
1,note_on,70,0,240
1,note_on,67,30,0
1,note_on,67,0,240
1,note_on,63,30,0
1,note_on,63,0,240
1,note_on,64,33,240
1,note_on,64,0,240
1,note_on,68,40,0
1,note_on,68,0,240
1,note_on,73,34,0
1,note_on,73,0,240
1,note_on,68,31,0
1,note_on,68,0,240
1,note_on,64,31,0
1,note_on,64,0,240
1,note_on,63,31,240
1,note_on,63,0,240
1,note_on,67,39,0
1,note_on,67,0,240
1,note_on,70,34,0
1,note_on,70,0,240
1,note_on,67,32,0
1,note_on,67,0,240
1,note_on,63,33,0
1,note_on,63,0,240
1,note_on,68,36,240
1,note_on,68,0,240
1,note_on,70,45,0
1,note_on,70,0,240
1,note_on,76,41,0
1,note_on,76,0,240
1,note_on,70,38,0
1,note_on,70,0,240
1,note_on,68,41,0
1,note_on,68,0,240
1,note_on,68,37,6240
1,note_on,64,37,0
1,note_on,64,0,120
1,note_on,68,0,0
1,note_on,63,39,0
1,note_on,67,39,0
1,note_on,67,0,120
1,note_on,63,0,0
1,note_on,68,40,0
1,note_on,73,40,0
1,note_on,73,0,120
1,note_on,68,0,0
1,note_on,67,42,0
1,note_on,70,42,0
1,note_on,70,0,120
1,note_on,67,0,0
1,note_on,73,43,0
1,note_on,76,43,0
1,note_on,76,0,120
1,note_on,73,0,0
1,note_on,70,45,0
1,note_on,75,45,0
1,note_on,75,0,120
1,note_on,70,0,0
1,note_on,76,46,0
1,note_on,80,46,0
1,note_on,80,0,120
1,note_on,76,0,0
1,note_on,75,48,0
1,note_on,79,48,0
1,note_on,79,0,120
1,note_on,75,0,0
1,note_on,85,49,0
1,note_on,80,49,0
1,note_on,80,0,120
1,note_on,85,0,0
1,note_on,79,51,0
1,note_on,82,51,0
1,note_on,82,0,120
1,note_on,79,0,0
1,note_on,85,52,0
1,note_on,88,52,0
1,note_on,88,0,120
1,note_on,85,0,0
1,note_on,82,54,0
1,note_on,87,54,0
1,note_on,87,0,120
1,note_on,82,0,0
1,note_on,88,55,0
1,note_on,92,55,0
1,note_on,92,0,120
1,note_on,88,0,0
1,note_on,87,57,0
1,note_on,91,57,0
1,note_on,91,0,120
1,note_on,87,0,0
1,note_on,92,58,0
1,note_on,97,58,0
1,note_on,97,0,120
1,note_on,92,0,0
1,note_on,94,60,0
1,note_on,91,60,0
1,note_on,91,0,120
1,note_on,94,0,0
1,note_on,97,61,0
1,note_on,100,61,0
1,note_on,100,0,120
1,note_on,97,0,0
1,note_on,94,61,0
1,note_on,99,61,0
1,note_on,99,0,120
1,note_on,94,0,0
1,note_on,97,60,0
1,note_on,100,60,0
1,note_on,100,0,120
1,note_on,97,0,0
1,note_on,94,59,0
1,note_on,99,59,0
1,note_on,99,0,120
1,note_on,94,0,0
1,note_on,92,57,0
1,note_on,97,57,0
1,note_on,97,0,120
1,note_on,92,0,0
1,note_on,91,57,0
1,note_on,94,57,0
1,note_on,94,0,120
1,note_on,91,0,0
1,note_on,92,55,0
1,note_on,88,55,0
1,note_on,88,0,120
1,note_on,92,0,0
1,note_on,87,54,0
1,note_on,91,54,0
1,note_on,91,0,120
1,note_on,87,0,0
1,note_on,92,53,0
1,note_on,88,53,0
1,note_on,88,0,120
1,note_on,92,0,0
1,note_on,87,52,0
1,note_on,91,52,0
1,note_on,91,0,120
1,note_on,87,0,0
1,note_on,85,51,0
1,note_on,88,51,0
1,note_on,88,0,120
1,note_on,85,0,0
1,note_on,82,50,0
1,note_on,87,50,0
1,note_on,87,0,120
1,note_on,82,0,0
1,note_on,85,49,0
1,note_on,80,49,0
1,note_on,80,0,120
1,note_on,85,0,0
1,note_on,82,48,0
1,note_on,79,48,0
1,note_on,79,0,120
1,note_on,82,0,0
1,note_on,85,47,0
1,note_on,80,47,0
1,note_on,80,0,120
1,note_on,85,0,0
1,note_on,82,46,0
1,note_on,79,46,0
1,note_on,79,0,120
1,note_on,82,0,0
1,note_on,80,45,0
1,note_on,76,45,0
1,note_on,76,0,120
1,note_on,80,0,0
1,note_on,75,44,0
1,note_on,79,44,0
1,note_on,79,0,120
1,note_on,75,0,0
1,note_on,73,43,0
1,note_on,76,43,0
1,note_on,76,0,120
1,note_on,73,0,0
1,note_on,70,42,0
1,note_on,75,42,0
1,note_on,75,0,120
1,note_on,70,0,0
1,note_on,73,41,0
1,note_on,76,41,0
1,note_on,76,0,120
1,note_on,73,0,0
1,note_on,70,40,0
1,note_on,75,40,0
1,note_on,75,0,120
1,note_on,70,0,0
1,note_on,68,39,0
1,note_on,73,39,0
1,note_on,73,0,120
1,note_on,68,0,0
1,note_on,67,38,0
1,note_on,70,38,0
1,note_on,70,0,120
1,note_on,67,0,0
1,note_on,68,41,0
1,note_on,73,41,0
1,note_on,73,0,120
1,note_on,68,0,0
1,note_on,67,42,0
1,note_on,70,42,0
1,note_on,70,0,120
1,note_on,67,0,0
1,note_on,68,43,0
1,note_on,73,43,0
1,note_on,73,0,120
1,note_on,68,0,0
1,note_on,67,44,0
1,note_on,70,44,0
1,note_on,70,0,120
1,note_on,67,0,0
1,note_on,68,46,0
1,note_on,73,46,0
1,note_on,68,46,0
1,note_on,73,46,0
1,note_on,73,0,120
1,note_on,68,0,0
1,note_on,73,0,0
1,note_on,68,0,0
1,note_on,67,48,0
1,note_on,70,48,0
1,note_on,70,0,120
1,note_on,67,0,0
1,note_on,68,51,0
1,note_on,73,51,0
1,note_on,73,0,120
1,note_on,68,0,0
1,note_on,67,53,0
1,note_on,70,53,0
1,note_on,70,0,120
1,note_on,67,0,0
1,note_on,68,55,0
1,note_on,73,55,0
1,note_on,73,0,120
1,note_on,68,0,0
1,note_on,67,57,0
1,note_on,70,57,0
1,note_on,70,0,120
1,note_on,67,0,0
1,note_on,68,60,0
1,note_on,73,60,0
1,note_on,73,0,120
1,note_on,68,0,0
1,note_on,67,62,0
1,note_on,70,62,0
1,note_on,70,0,120
1,note_on,67,0,0
1,note_on,68,65,0
1,note_on,73,65,0
1,note_on,73,0,120
1,note_on,68,0,0
1,note_on,67,64,0
1,note_on,70,64,0
1,note_on,70,0,120
1,note_on,67,0,0
1,note_on,68,61,0
1,note_on,73,61,0
1,note_on,73,0,120
1,note_on,68,0,0
1,note_on,67,58,0
1,note_on,70,58,0
1,note_on,70,0,120
1,note_on,67,0,0
1,note_on,68,55,0
1,note_on,73,55,0
1,note_on,73,0,120
1,note_on,68,0,0
1,note_on,67,53,0
1,note_on,70,53,0
1,note_on,70,0,120
1,note_on,67,0,0
1,note_on,68,48,0
1,note_on,73,48,0
1,note_on,73,0,120
1,note_on,68,0,0
1,note_on,67,44,0
1,note_on,70,44,0
1,note_on,70,0,120
1,note_on,67,0,0
1,note_on,68,41,0
1,note_on,73,41,0
1,note_on,73,0,120
1,note_on,68,0,0
1,note_on,67,37,0
1,note_on,70,37,0
1,note_on,70,0,120
1,note_on,67,0,0
1,note_on,68,34,0
1,note_on,73,34,0
1,note_on,73,0,120
1,note_on,68,0,0
1,note_on,67,30,0
1,note_on,70,30,0
1,note_on,70,0,120
1,note_on,67,0,0
1,note_on,74,46,960
1,note_on,74,0,480
1,note_on,75,52,0
1,note_on,63,27,240
1,note_on,63,0,240
1,note_on,66,32,0
1,note_on,66,0,240
1,note_on,71,28,0
1,note_on,71,0,240
1,note_on,66,27,0
1,note_on,66,0,240
1,note_on,63,27,0
1,note_on,63,0,240
1,note_on,75,0,0
1,note_on,75,52,0
1,note_on,63,29,240
1,note_on,63,0,240
1,note_on,66,32,0
1,note_on,66,0,240
1,note_on,71,29,0
1,note_on,71,0,240
1,note_on,66,28,0
1,note_on,66,0,240
1,note_on,63,29,0
1,note_on,63,0,240
1,note_on,75,0,0
1,note_on,75,54,0
1,note_on,63,32,240
1,note_on,63,0,240
1,note_on,67,38,0
1,note_on,67,0,240
1,note_on,73,32,0
1,note_on,73,0,240
1,note_on,67,30,0
1,note_on,67,0,240
1,note_on,63,30,0
1,note_on,63,0,240
1,note_on,75,0,0
1,note_on,63,32,240
1,note_on,63,0,240
1,note_on,67,35,0
1,note_on,67,0,240
1,note_on,73,32,0
1,note_on,73,0,240
1,note_on,75,52,0
1,note_on,67,28,0
1,note_on,67,0,240
1,note_on,63,33,0
1,note_on,63,0,240
1,note_on,75,0,0
1,note_on,75,56,0
1,note_on,63,35,240
1,note_on,63,0,240
1,note_on,66,37,0
1,note_on,66,0,240
1,note_on,73,34,0
1,note_on,73,0,240
1,note_on,75,0,0
1,note_on,66,31,0
1,note_on,75,50,0
1,note_on,66,0,240
1,note_on,63,35,0
1,note_on,63,0,240
1,note_on,75,0,0
1,note_on,76,55,0
1,note_on,63,38,240
1,note_on,63,0,240
1,note_on,66,42,0
1,note_on,66,0,240
1,note_on,72,37,0
1,note_on,72,0,240
1,note_on,76,0,0
1,note_on,75,49,0
1,note_on,66,33,0
1,note_on,66,0,240
1,note_on,63,33,0
1,note_on,63,0,240
1,note_on,75,0,0
1,note_on,75,56,0
1,note_on,63,30,240
1,note_on,63,0,240
1,note_on,65,34,0
1,note_on,65,0,240
1,note_on,71,33,0
1,note_on,71,0,240
1,note_on,65,31,0
1,note_on,65,0,240
1,note_on,63,31,0
1,note_on,63,0,240
1,note_on,75,0,0
1,note_on,68,46,0
1,note_on,59,24,240
1,note_on,59,0,240
1,note_on,68,0,0
1,note_on,61,30,0
1,note_on,61,0,240
1,note_on,65,24,0
1,note_on,65,0,240
1,note_on,61,31,0
1,note_on,68,46,0
1,note_on,61,0,240
1,note_on,59,31,0
1,note_on,59,0,240
1,note_on,68,0,0
1,note_on,68,52,0
1,note_on,61,36,240
1,note_on,61,0,240
1,note_on,68,0,0
1,note_on,70,54,0
1,note_on,64,38,0
1,note_on,64,0,240
1,note_on,66,38,0
1,note_on,66,0,240
1,note_on,70,0,0
1,note_on,71,56,0
1,note_on,64,38,0
1,note_on,64,0,240
1,note_on,61,42,0
1,note_on,61,0,240
1,note_on,71,0,0
1,note_on,75,60,0
1,note_on,64,40,240
1,note_on,64,0,240
1,note_on,66,48,0
1,note_on,66,0,240
1,note_on,70,40,0
1,note_on,70,0,240
1,note_on,75,0,0
1,note_on,73,53,0
1,note_on,66,31,0
1,note_on,66,0,240
1,note_on,64,37,0
1,note_on,64,0,240
1,note_on,73,0,0
1,note_on,73,60,0
1,note_on,63,37,240
1,note_on,63,0,240
1,note_on,73,0,0
1,note_on,66,34,0
1,note_on,71,53,0
1,note_on,66,0,240
1,note_on,63,36,0
1,note_on,63,0,240
1,note_on,71,0,0
1,note_on,68,53,0
1,note_on,62,31,240
1,note_on,62,0,240
1,note_on,68,0,0
1,note_on,63,34,0
1,note_on,66,52,0
1,note_on,63,0,240
1,note_on,66,0,240
1,note_on,66,65,720
1,note_on,66,0,240
1,note_on,75,72,0
1,note_on,63,49,240
1,note_on,63,0,240
1,note_on,66,56,0
1,note_on,66,0,240
1,note_on,71,47,0
1,note_on,71,0,240
1,note_on,66,47,0
1,note_on,66,0,240
1,note_on,63,47,0
1,note_on,63,0,240
1,note_on,75,0,0
1,note_on,75,79,0
1,note_on,63,57,240
1,note_on,63,0,240
1,note_on,67,63,0
1,note_on,67,0,240
1,note_on,73,58,0
1,note_on,73,0,240
1,note_on,67,58,0
1,note_on,67,0,240
1,note_on,63,58,0
1,note_on,63,0,240
1,note_on,75,0,0
1,note_on,75,81,0
1,note_on,63,62,240
1,note_on,63,0,240
1,note_on,66,67,0
1,note_on,66,0,240
1,note_on,72,66,0
1,note_on,72,0,240
1,note_on,66,69,0
1,note_on,66,0,240
1,note_on,63,69,0
1,note_on,63,0,240
1,note_on,75,0,0
1,note_on,63,62,240
1,note_on,63,0,240
1,note_on,66,68,0
1,note_on,66,0,240
1,note_on,72,65,0
1,note_on,72,0,240
1,note_on,75,76,0
1,note_on,66,57,0
1,note_on,66,0,240
1,note_on,63,66,0
1,note_on,63,0,240
1,note_on,75,0,0
1,note_on,75,82,0
1,note_on,64,67,240
1,note_on,64,0,240
1,note_on,67,71,0
1,note_on,67,0,240
1,note_on,72,64,0
1,note_on,72,0,240
1,note_on,75,0,0
1,note_on,67,54,0
1,note_on,76,75,0
1,note_on,67,0,240
1,note_on,64,63,0
1,note_on,64,0,240
1,note_on,76,0,0
1,note_on,75,80,0
1,note_on,64,64,240
1,note_on,64,0,240
1,note_on,67,71,0
1,note_on,67,0,240
1,note_on,72,61,0
1,note_on,72,0,240
1,note_on,75,0,0
1,note_on,76,78,0
1,note_on,67,54,0
1,note_on,67,0,240
1,note_on,64,54,0
1,note_on,64,0,240
1,note_on,76,0,0
1,note_on,77,84,0
1,note_on,65,67,240
1,note_on,65,0,240
1,note_on,69,72,0
1,note_on,69,0,240
1,note_on,72,58,0
1,note_on,72,0,240
1,note_on,69,51,0
1,note_on,69,0,240
1,note_on,65,51,0
1,note_on,65,0,240
1,note_on,77,0,960
1,note_on,57,70,0
1,note_on,69,79,0
1,note_on,69,0,480
1,note_on,57,0,0
1,note_on,57,75,0
1,note_on,69,87,0
1,note_on,69,0,480
1,note_on,57,0,0
1,note_on,59,60,0
1,note_on,71,70,0
1,note_on,71,0,480
1,note_on,59,0,0
1,note_on,60,63,0
1,note_on,72,72,0
1,note_on,64,67,465
1,note_on,72,0,15
1,note_on,60,0,0
1,note_on,76,79,0
1,note_on,76,0,960
1,note_on,64,0,0
1,note_on,62,58,0
1,note_on,74,67,0
1,note_on,74,0,480
1,note_on,62,0,0
1,note_on,67,65,0
1,note_on,60,65,0
1,note_on,72,75,0
1,note_on,72,0,480
1,note_on,60,0,0
1,note_on,67,0,0
1,note_on,84,82,2160
1,note_on,72,65,0
1,note_on,72,0,240
1,note_on,84,0,0
1,note_on,72,68,0
1,note_on,77,68,0
1,note_on,80,68,0
1,note_on,84,84,0
1,note_on,84,0,1200
1,note_on,72,0,0
1,note_on,77,0,0
1,note_on,80,0,0
1,note_on,71,70,0
1,note_on,77,70,0
1,note_on,80,70,0
1,note_on,83,78,0
1,note_on,83,0,240
1,note_on,71,0,0
1,note_on,77,0,0
1,note_on,80,0,0
1,note_on,72,78,0
1,note_on,77,78,0
1,note_on,80,78,0
1,note_on,84,81,0
1,note_on,84,0,1200
1,note_on,72,0,0
1,note_on,77,0,0
1,note_on,80,0,0
1,note_on,74,68,0
1,note_on,77,68,0
1,note_on,80,68,0
1,note_on,86,80,0
1,note_on,86,0,240
1,note_on,74,0,0
1,note_on,77,0,0
1,note_on,80,0,0
1,note_on,76,72,0
1,note_on,79,73,0
1,note_on,88,90,0
1,note_on,88,0,1200
1,note_on,79,0,0
1,note_on,76,0,0
1,note_on,74,75,0
1,note_on,79,75,0
1,note_on,86,83,0
1,note_on,86,0,240
1,note_on,79,0,0
1,note_on,74,0,0
1,note_on,72,78,0
1,note_on,79,81,0
1,note_on,84,84,0
1,note_on,84,0,480
1,note_on,79,0,0
1,note_on,72,0,0
1,note_on,88,88,720
1,note_on,76,75,0
1,note_on,76,0,240
1,note_on,88,0,0
1,note_on,76,80,0
1,note_on,81,80,0
1,note_on,84,80,0
1,note_on,88,93,0
1,note_on,88,0,1200
1,note_on,76,0,0
1,note_on,81,0,0
1,note_on,84,0,0
1,note_on,75,74,0
1,note_on,81,74,0
1,note_on,84,74,0
1,note_on,87,88,0
1,note_on,87,0,240
1,note_on,75,0,0
1,note_on,81,0,0
1,note_on,84,0,0
1,note_on,76,75,0
1,note_on,81,75,0
1,note_on,84,75,0
1,note_on,88,93,0
1,note_on,88,0,1200
1,note_on,76,0,0
1,note_on,81,0,0
1,note_on,84,0,0
1,note_on,78,83,0
1,note_on,90,88,0
1,note_on,90,0,240
1,note_on,78,0,0
1,note_on,80,80,0
1,note_on,92,95,0
1,note_on,71,63,240
1,note_on,76,70,240
1,note_on,71,0,24
1,note_on,68,62,216
1,note_on,76,0,24
1,note_on,71,63,216
1,note_on,68,0,24
1,note_on,76,63,216
1,note_on,71,0,24
1,note_on,80,0,216
1,note_on,92,0,0
1,note_on,76,0,0
1,note_on,80,80,0
1,note_on,92,95,0
1,note_on,71,67,240
1,note_on,76,67,240
1,note_on,71,0,24
1,note_on,68,65,216
1,note_on,76,0,24
1,note_on,71,62,216
1,note_on,68,0,24
1,note_on,76,62,216
1,note_on,71,0,24
1,note_on,80,0,216
1,note_on,92,0,0
1,note_on,76,0,0
1,note_on,80,80,0
1,note_on,92,95,0
1,note_on,72,67,240
1,note_on,78,71,240
1,note_on,72,0,24
1,note_on,68,67,216
1,note_on,78,0,24
1,note_on,72,73,216
1,note_on,68,0,24
1,note_on,78,76,216
1,note_on,72,0,24
1,note_on,80,0,216
1,note_on,92,0,0
1,note_on,78,0,0
1,note_on,80,81,0
1,note_on,72,71,240
1,note_on,80,0,24
1,note_on,78,76,216
1,note_on,72,0,24
1,note_on,72,70,216
1,note_on,78,0,24
1,note_on,72,0,240
1,note_on,80,83,216
1,note_on,92,88,0
1,note_on,92,0,240
1,note_on,80,0,0
1,note_on,80,80,0
1,note_on,92,95,0
1,note_on,71,68,240
1,note_on,76,70,240
1,note_on,71,0,24
1,note_on,68,68,216
1,note_on,76,0,24
1,note_on,80,0,216
1,note_on,92,0,0
1,note_on,68,0,24
1,note_on,92,82,216
1,note_on,80,77,0
1,note_on,80,0,240
1,note_on,92,0,0
1,note_on,81,80,0
1,note_on,93,95,0
1,note_on,71,67,240
1,note_on,77,73,240
1,note_on,71,0,24
1,note_on,68,67,216
1,note_on,77,0,24
1,note_on,81,0,216
1,note_on,93,0,0
1,note_on,68,0,24
1,note_on,92,83,216
1,note_on,80,76,0
1,note_on,80,0,240
1,note_on,92,0,0
1,note_on,80,80,0
1,note_on,92,95,0
1,note_on,92,0,1440
1,note_on,80,0,0
1,note_on,73,70,0
1,note_on,85,85,0
1,note_on,85,0,480
1,note_on,73,0,0
1,note_on,73,70,480
1,note_on,85,80,0
1,note_on,85,0,480
1,note_on,73,0,0
1,note_on,73,70,0
1,note_on,81,70,0
1,note_on,85,85,0
1,note_on,85,0,480
1,note_on,81,0,0
1,note_on,73,0,0
1,note_on,75,70,0
1,note_on,83,70,0
1,note_on,81,70,0
1,note_on,87,84,0
1,note_on,87,0,480
1,note_on,75,0,0
1,note_on,83,0,0
1,note_on,81,0,0
1,note_on,76,71,0
1,note_on,83,71,0
1,note_on,81,71,0
1,note_on,88,85,0
1,note_on,88,0,480
1,note_on,76,0,0
1,note_on,83,0,0
1,note_on,81,0,0
1,note_on,80,7,0
1,note_on,83,75,0
1,note_on,87,81,0
1,note_on,92,90,0
1,note_on,92,0,960
1,note_on,80,0,0
1,note_on,83,0,0
1,note_on,87,0,0
1,note_on,78,76,0
1,note_on,90,85,0
1,note_on,90,0,480
1,note_on,78,0,0
1,note_on,78,73,0
1,note_on,80,73,0
1,note_on,83,73,0
1,note_on,90,89,0
1,note_on,90,0,480
1,note_on,78,0,0
1,note_on,80,0,0
1,note_on,83,0,0
1,note_on,76,79,0
1,note_on,88,85,0
1,note_on,88,0,480
1,note_on,76,0,0
1,note_on,73,70,0
1,note_on,79,70,0
1,note_on,85,82,0
1,note_on,85,0,480
1,note_on,79,0,0
1,note_on,73,0,0
1,note_on,71,67,0
1,note_on,80,67,0
1,note_on,83,78,0
1,note_on,83,0,480
1,note_on,80,0,0
1,note_on,71,0,0
1,note_on,71,71,480
1,note_on,83,83,0
1,note_on,83,0,480
1,note_on,71,0,0
1,note_on,80,80,0
1,note_on,92,95,0
1,note_on,71,68,240
1,note_on,76,71,240
1,note_on,71,0,24
1,note_on,68,68,216
1,note_on,76,0,24
1,note_on,71,64,216
1,note_on,68,0,24
1,note_on,76,64,216
1,note_on,71,0,24
1,note_on,80,0,216
1,note_on,92,0,0
1,note_on,76,0,0
1,note_on,80,80,0
1,note_on,92,95,0
1,note_on,72,67,240
1,note_on,78,70,240
1,note_on,72,0,24
1,note_on,68,67,216
1,note_on,78,0,24
1,note_on,72,62,216
1,note_on,68,0,24
1,note_on,78,62,216
1,note_on,72,0,24
1,note_on,80,0,216
1,note_on,92,0,0
1,note_on,78,0,0
1,note_on,80,80,0
1,note_on,92,95,0
1,note_on,71,67,240
1,note_on,77,70,240
1,note_on,71,0,24
1,note_on,68,67,216
1,note_on,77,0,24
1,note_on,71,73,216
1,note_on,68,0,24
1,note_on,77,76,216
1,note_on,71,0,24
1,note_on,77,0,216
1,note_on,80,0,0
1,note_on,80,84,0
1,note_on,80,0,240
1,note_on,71,72,0
1,note_on,77,73,240
1,note_on,71,0,24
1,note_on,68,67,216
1,note_on,77,0,24
1,note_on,71,63,216
1,note_on,68,0,24
1,note_on,77,68,216
1,note_on,71,0,24
1,note_on,77,0,216
1,note_on,92,0,0
1,note_on,80,80,0
1,note_on,92,95,0
1,note_on,72,68,240
1,note_on,77,70,240
1,note_on,72,0,24
1,note_on,68,68,216
1,note_on,77,0,24
1,note_on,72,64,216
1,note_on,68,0,24
1,note_on,77,64,216
1,note_on,72,0,24
1,note_on,80,0,216
1,note_on,92,0,0
1,note_on,77,0,0
1,note_on,80,80,0
1,note_on,92,95,0
1,note_on,73,67,240
1,note_on,77,70,240
1,note_on,73,0,24
1,note_on,68,67,216
1,note_on,77,0,24
1,note_on,73,64,216
1,note_on,68,0,24
1,note_on,77,64,216
1,note_on,73,0,24
1,note_on,80,0,216
1,note_on,92,0,0
1,note_on,77,0,0
1,note_on,86,79,0
1,note_on,80,79,0
1,note_on,92,96,0
1,note_on,92,0,960
1,note_on,80,0,0
1,note_on,86,0,0
1,note_on,79,78,0
1,note_on,91,90,0
1,note_on,91,0,480
1,note_on,79,0,0
1,note_on,89,90,0
1,note_on,77,78,0
1,note_on,77,0,480
1,note_on,89,0,0
1,note_on,67,68,0
1,note_on,79,81,0
1,note_on,79,0,480
1,note_on,67,0,0
1,note_on,68,69,0
1,note_on,80,81,0
1,note_on,80,0,480
1,note_on,68,0,0
1,note_on,72,78,0
1,note_on,77,78,0
1,note_on,80,78,0
1,note_on,84,90,1
1,note_on,80,0,1439
1,note_on,72,0,0
1,note_on,77,0,0
1,note_on,82,80,0
1,note_on,70,67,0
1,note_on,84,0,1
1,note_on,70,0,479
1,note_on,82,0,0
1,note_on,80,78,480
1,note_on,92,84,0
1,note_on,92,0,480
1,note_on,80,0,0
1,note_on,80,82,0
1,note_on,86,82,0
1,note_on,92,90,0
1,note_on,92,0,720
1,note_on,86,0,0
1,note_on,80,0,0
1,note_on,91,78,0
1,note_on,79,69,0
1,note_on,79,0,240
1,note_on,91,0,0
1,note_on,82,81,0
1,note_on,94,87,0
1,note_on,94,0,160
1,note_on,82,0,0
1,note_on,80,73,0
1,note_on,92,80,0
1,note_on,92,0,160
1,note_on,80,0,0
1,note_on,79,72,0
1,note_on,91,80,0
1,note_on,91,0,160
1,note_on,79,0,0
1,note_on,89,90,0
1,note_on,77,78,0
1,note_on,77,0,480
1,note_on,89,0,0
1,note_on,67,68,0
1,note_on,79,81,0
1,note_on,79,0,480
1,note_on,67,0,0
1,note_on,68,69,0
1,note_on,80,81,0
1,note_on,80,0,480
1,note_on,68,0,0
1,note_on,72,78,0
1,note_on,77,78,0
1,note_on,80,78,0
1,note_on,84,90,0
1,note_on,84,0,1440
1,note_on,72,0,0
1,note_on,77,0,0
1,note_on,80,0,0
1,note_on,82,80,0
1,note_on,70,67,0
1,note_on,70,0,480
1,note_on,82,0,0
1,note_on,80,78,480
1,note_on,92,84,0
1,note_on,92,0,480
1,note_on,80,0,0
1,note_on,80,82,0
1,note_on,86,82,0
1,note_on,92,90,0
1,note_on,92,0,720
1,note_on,86,0,0
1,note_on,80,0,0
1,note_on,91,78,0
1,note_on,79,69,0
1,note_on,79,0,240
1,note_on,91,0,0
1,note_on,82,81,0
1,note_on,94,87,0
1,note_on,94,0,240
1,note_on,82,0,0
1,note_on,80,73,0
1,note_on,92,80,0
1,note_on,92,0,240
1,note_on,80,0,0
1,note_on,83,85,0
1,note_on,95,97,0
1,note_on,95,0,240
1,note_on,83,0,0
1,note_on,82,88,0
1,note_on,94,88,0
1,note_on,94,0,240
1,note_on,82,0,0
1,note_on,103,105,0
1,note_on,91,94,0
1,note_on,91,0,480
1,note_on,103,0,0
1,note_on,89,73,240
1,note_on,101,85,0
1,note_on,101,0,240
1,note_on,89,0,0
1,note_on,87,73,0
1,note_on,99,84,0
1,note_on,99,0,240
1,note_on,87,0,0
1,note_on,98,79,0
1,note_on,86,69,0
1,note_on,86,0,240
1,note_on,98,0,0
1,note_on,84,64,0
1,note_on,96,74,0
1,note_on,96,0,240
1,note_on,84,0,0
1,note_on,82,60,0
1,note_on,94,70,0
1,note_on,94,0,240
1,note_on,82,0,0
1,note_on,80,55,0
1,note_on,92,64,0
1,note_on,92,0,240
1,note_on,80,0,0
1,note_on,79,51,0
1,note_on,91,60,0
1,note_on,91,0,240
1,note_on,79,0,0
1,note_on,77,48,0
1,note_on,89,56,0
1,note_on,89,0,480
1,note_on,77,0,0
1,note_on,67,37,0
1,note_on,79,45,0
1,note_on,79,0,480
1,note_on,67,0,0
1,note_on,68,37,0
1,note_on,80,45,0
1,note_on,80,0,480
1,note_on,68,0,0
1,note_on,72,45,0
1,note_on,77,45,0
1,note_on,80,45,0
1,note_on,84,52,0
1,note_on,84,0,960
1,note_on,72,0,0
1,note_on,77,0,0
1,note_on,80,0,0
1,note_on,82,54,0
1,note_on,70,51,0
1,note_on,70,0,480
1,note_on,82,0,0
1,note_on,87,72,0
1,note_on,75,60,0
1,note_on,80,60,0
1,note_on,82,60,0
1,note_on,82,0,960
1,note_on,87,0,0
1,note_on,75,0,0
1,note_on,80,0,0
1,note_on,85,73,0
1,note_on,73,65,0
1,note_on,73,0,480
1,note_on,85,0,0
1,note_on,79,75,0
1,note_on,82,75,0
1,note_on,85,75,0
1,note_on,91,89,0
1,note_on,91,0,960
1,note_on,79,0,0
1,note_on,82,0,0
1,note_on,85,0,0
1,note_on,89,81,0
1,note_on,77,70,0
1,note_on,77,0,480
1,note_on,89,0,0
1,note_on,96,96,0
1,note_on,84,84,0
1,note_on,89,84,0
1,note_on,89,0,960
1,note_on,84,0,0
1,note_on,96,0,0
1,note_on,94,89,0
1,note_on,82,76,0
1,note_on,82,0,480
1,note_on,94,0,0
1,note_on,91,85,0
1,note_on,89,85,0
1,note_on,94,85,0
1,note_on,97,85,0
1,note_on,101,99,0
1,note_on,101,0,2880
1,note_on,94,0,0
1,note_on,91,0,0
1,note_on,89,0,0
1,note_on,97,0,0
1,note_on,100,44,0
1,note_on,100,0,120
1,note_on,96,40,0
1,note_on,96,0,120
1,note_on,99,44,0
1,note_on,99,0,120
1,note_on,95,41,0
1,note_on,95,0,120
1,note_on,98,44,0
1,note_on,98,0,120
1,note_on,94,40,0
1,note_on,94,0,120
1,note_on,97,43,0
1,note_on,97,0,120
1,note_on,93,39,0
1,note_on,93,0,120
1,note_on,96,42,0
1,note_on,96,0,120
1,note_on,92,39,0
1,note_on,92,0,120
1,note_on,95,42,0
1,note_on,95,0,120
1,note_on,91,39,0
1,note_on,91,0,120
1,note_on,94,41,0
1,note_on,94,0,120
1,note_on,90,37,0
1,note_on,90,0,120
1,note_on,93,41,0
1,note_on,93,0,120
1,note_on,89,37,0
1,note_on,89,0,120
1,note_on,92,40,0
1,note_on,92,0,120
1,note_on,88,36,0
1,note_on,88,0,120
1,note_on,91,40,0
1,note_on,91,0,120
1,note_on,88,36,0
1,note_on,88,0,120
1,note_on,90,39,0
1,note_on,90,0,120
1,note_on,86,35,0
1,note_on,86,0,120
1,note_on,89,39,0
1,note_on,89,0,120
1,note_on,85,35,0
1,note_on,85,0,120
1,note_on,88,38,0
1,note_on,88,0,120
1,note_on,84,35,0
1,note_on,84,0,120
1,note_on,87,38,0
1,note_on,87,0,120
1,note_on,83,33,0
1,note_on,83,0,120
1,note_on,86,37,0
1,note_on,86,0,120
1,note_on,82,33,0
1,note_on,82,0,120
1,note_on,85,37,0
1,note_on,85,0,120
1,note_on,81,33,0
1,note_on,81,0,120
1,note_on,84,36,0
1,note_on,84,0,120
1,note_on,80,33,0
1,note_on,80,0,120
1,note_on,83,35,0
1,note_on,83,0,120
1,note_on,79,31,0
1,note_on,79,0,120
1,note_on,82,35,0
1,note_on,82,0,120
1,note_on,78,31,0
1,note_on,78,0,120
1,note_on,81,35,0
1,note_on,81,0,120
1,note_on,77,31,0
1,note_on,77,0,120
1,note_on,80,34,0
1,note_on,80,0,120
1,note_on,76,30,0
1,note_on,76,0,120
1,note_on,79,33,0
1,note_on,79,0,120
1,note_on,76,29,0
1,note_on,76,0,120
1,note_on,78,33,0
1,note_on,78,0,120
1,note_on,74,29,0
1,note_on,74,0,120
1,note_on,77,32,0
1,note_on,77,0,120
1,note_on,73,28,0
1,note_on,73,0,60
1,note_on,73,32,40
1,note_on,77,32,20
1,note_on,77,0,120
1,note_on,73,0,0
1,note_on,75,32,0
1,note_on,75,0,120
1,note_on,73,32,0
1,note_on,73,0,120
1,note_on,70,31,0
1,note_on,70,0,120
1,note_on,67,32,0
1,note_on,67,0,120
1,note_on,62,33,0
1,note_on,62,0,120
1,note_on,63,33,0
1,note_on,63,0,120
1,note_on,67,34,0
1,note_on,67,0,120
1,note_on,70,35,0
1,note_on,70,0,120
1,note_on,73,35,0
1,note_on,73,0,120
1,note_on,74,36,0
1,note_on,74,0,120
1,note_on,77,37,0
1,note_on,77,0,120
1,note_on,75,37,0
1,note_on,75,0,120
1,note_on,79,38,0
1,note_on,79,0,120
1,note_on,82,39,0
1,note_on,82,0,120
1,note_on,85,39,0
1,note_on,85,0,120
1,note_on,86,40,0
1,note_on,86,0,120
1,note_on,89,40,0
1,note_on,89,0,120
1,note_on,87,41,0
1,note_on,87,0,120
1,note_on,91,42,0
1,note_on,91,0,120
1,note_on,94,44,0
1,note_on,94,0,120
1,note_on,97,44,0
1,note_on,97,0,120
1,note_on,100,48,0
1,note_on,100,0,120
1,note_on,101,44,0
1,note_on,101,0,120
1,note_on,96,48,0
1,note_on,96,0,120
1,note_on,97,45,0
1,note_on,97,0,120
1,note_on,93,46,0
1,note_on,93,0,120
1,note_on,94,40,0
1,note_on,94,0,120
1,note_on,90,44,0
1,note_on,90,0,120
1,note_on,91,40,0
1,note_on,91,0,120
1,note_on,88,43,0
1,note_on,88,0,120
1,note_on,89,39,0
1,note_on,89,0,120
1,note_on,84,42,0
1,note_on,84,0,120
1,note_on,85,38,0
1,note_on,85,0,120
1,note_on,81,40,0
1,note_on,81,0,120
1,note_on,82,37,0
1,note_on,82,0,120
1,note_on,78,40,0
1,note_on,78,0,120
1,note_on,79,36,0
1,note_on,79,0,120
1,note_on,76,39,0
1,note_on,76,0,120
1,note_on,77,35,0
1,note_on,77,0,120
1,note_on,72,38,0
1,note_on,72,0,120
1,note_on,73,33,0
1,note_on,73,0,120
1,note_on,69,37,0
1,note_on,69,0,120
1,note_on,70,33,0
1,note_on,70,0,120
1,note_on,66,36,0
1,note_on,66,0,120
1,note_on,67,33,0
1,note_on,67,0,120
1,note_on,64,35,0
1,note_on,64,0,120
1,note_on,65,31,0
1,note_on,65,0,120
1,note_on,62,33,0
1,note_on,62,0,120
1,note_on,63,27,0
1,note_on,63,0,120
1,note_on,64,32,0
1,note_on,64,0,120
1,note_on,63,27,0
1,note_on,63,0,120
1,note_on,65,32,0
1,note_on,65,0,120
1,note_on,63,28,0
1,note_on,63,0,120
1,note_on,66,32,0
1,note_on,66,0,120
1,note_on,63,28,0
1,note_on,63,0,120
1,note_on,67,32,0
1,note_on,67,0,120
1,note_on,63,29,0
1,note_on,63,0,120
1,note_on,68,32,0
1,note_on,68,0,120
1,note_on,63,29,0
1,note_on,63,0,120
1,note_on,69,32,0
1,note_on,69,0,120
1,note_on,63,29,0
1,note_on,63,0,120
1,note_on,70,32,0
1,note_on,70,0,120
1,note_on,63,29,0
1,note_on,63,0,120
1,note_on,71,32,0
1,note_on,71,0,120
1,note_on,63,36,360
1,note_on,63,0,480
1,note_on,72,45,0
1,note_on,60,21,240
1,note_on,60,0,240
1,note_on,63,27,0
1,note_on,63,0,240
1,note_on,68,20,0
1,note_on,68,0,240
1,note_on,63,20,0
1,note_on,63,0,240
1,note_on,60,20,0
1,note_on,60,0,240
1,note_on,72,0,0
1,note_on,72,28,0
1,note_on,60,20,240
1,note_on,60,0,240
1,note_on,63,25,0
1,note_on,63,0,240
1,note_on,68,21,0
1,note_on,68,0,240
1,note_on,63,21,0
1,note_on,63,0,240
1,note_on,60,21,0
1,note_on,60,0,240
1,note_on,72,0,0
1,note_on,72,45,0
1,note_on,60,23,240
1,note_on,60,0,240
1,note_on,64,28,0
1,note_on,64,0,240
1,note_on,70,23,0
1,note_on,70,0,240
1,note_on,64,24,0
1,note_on,64,0,240
1,note_on,60,24,0
1,note_on,60,0,240
1,note_on,60,20,240
1,note_on,60,0,240
1,note_on,72,0,0
1,note_on,64,26,0
1,note_on,64,0,240
1,note_on,70,21,0
1,note_on,70,0,240
1,note_on,72,40,0
1,note_on,64,36,0
1,note_on,64,0,240
1,note_on,60,24,0
1,note_on,60,0,240
1,note_on,72,0,0
1,note_on,72,48,0
1,note_on,63,20,240
1,note_on,63,0,240
1,note_on,65,26,0
1,note_on,65,0,240
1,note_on,69,24,0
1,note_on,69,0,240
1,note_on,72,0,0
1,note_on,65,34,0
1,note_on,72,40,0
1,note_on,65,0,240
1,note_on,63,24,0
1,note_on,63,0,240
1,note_on,72,0,0
1,note_on,73,47,0
1,note_on,63,28,240
1,note_on,63,0,240
1,note_on,65,36,0
1,note_on,65,0,240
1,note_on,69,28,0
1,note_on,69,0,240
1,note_on,73,0,0
1,note_on,72,41,0
1,note_on,65,36,0
1,note_on,65,0,240
1,note_on,63,26,0
1,note_on,63,0,240
1,note_on,72,0,0
1,note_on,72,49,0
1,note_on,56,30,240
1,note_on,56,0,240
1,note_on,62,36,0
1,note_on,62,0,240
1,note_on,65,29,0
1,note_on,65,0,240
1,note_on,62,29,0
1,note_on,62,0,240
1,note_on,56,29,0
1,note_on,56,0,240
1,note_on,72,0,0
1,note_on,65,37,0
1,note_on,56,23,240
1,note_on,56,0,240
1,note_on,65,0,0
1,note_on,58,28,0
1,note_on,58,0,240
1,note_on,62,22,0
1,note_on,62,0,240
1,note_on,58,28,0
1,note_on,65,32,0
1,note_on,58,0,240
1,note_on,56,22,0
1,note_on,56,0,240
1,note_on,65,0,0
1,note_on,65,37,0
1,note_on,58,21,240
1,note_on,58,0,240
1,note_on,65,0,0
1,note_on,67,38,0
1,note_on,61,32,0
1,note_on,61,0,240
1,note_on,63,26,0
1,note_on,63,0,240
1,note_on,67,0,0
1,note_on,68,39,0
1,note_on,61,34,0
1,note_on,61,0,240
1,note_on,58,28,0
1,note_on,58,0,240
1,note_on,68,0,0
1,note_on,72,42,0
1,note_on,61,26,240
1,note_on,61,0,240
1,note_on,63,26,0
1,note_on,63,0,240
1,note_on,67,26,0
1,note_on,67,0,240
1,note_on,72,0,0
1,note_on,70,40,0
1,note_on,63,36,0
1,note_on,63,0,240
1,note_on,61,25,0
1,note_on,61,0,240
1,note_on,70,0,0
1,note_on,68,45,0
1,note_on,60,21,240
1,note_on,60,0,240
1,note_on,63,33,0
1,note_on,63,0,240
1,note_on,65,24,0
1,note_on,65,0,240
1,note_on,68,0,0
1,note_on,63,24,0
1,note_on,63,0,240
1,note_on,60,24,0
1,note_on,60,0,240
1,note_on,56,28,0
1,note_on,56,0,240
1,note_on,60,27,0
1,note_on,60,0,240
1,note_on,63,32,0
1,note_on,63,0,240
1,note_on,65,36,0
1,note_on,65,0,240
1,note_on,63,39,0
1,note_on,68,36,240
1,note_on,68,0,240
1,note_on,63,0,0
1,note_on,72,45,0
1,note_on,62,31,240
1,note_on,62,0,240
1,note_on,63,36,0
1,note_on,63,0,240
1,note_on,68,28,0
1,note_on,68,0,240
1,note_on,63,28,0
1,note_on,63,0,240
1,note_on,60,25,0
1,note_on,60,0,240
1,note_on,72,0,0
1,note_on,72,33,0
1,note_on,60,20,240
1,note_on,60,0,240
1,note_on,63,28,0
1,note_on,63,0,240
1,note_on,68,26,0
1,note_on,68,0,240
1,note_on,63,27,0
1,note_on,63,0,240
1,note_on,60,31,0
1,note_on,60,0,240
1,note_on,72,0,0
1,note_on,72,44,0
1,note_on,60,23,240
1,note_on,60,0,240
1,note_on,64,33,0
1,note_on,64,0,240
1,note_on,70,25,0
1,note_on,70,0,240
1,note_on,64,25,0
1,note_on,64,0,240
1,note_on,60,25,0
1,note_on,60,0,240
1,note_on,60,22,240
1,note_on,60,0,240
1,note_on,72,0,0
1,note_on,64,29,0
1,note_on,64,0,240
1,note_on,70,25,0
1,note_on,70,0,240
1,note_on,64,32,0
1,note_on,72,38,0
1,note_on,64,0,240
1,note_on,60,26,0
1,note_on,60,0,240
1,note_on,72,0,0
1,note_on,72,44,0
1,note_on,60,28,240
1,note_on,60,0,240
1,note_on,65,32,0
1,note_on,65,0,240
1,note_on,69,27,0
1,note_on,69,0,240
1,note_on,72,0,0
1,note_on,65,36,0
1,note_on,72,40,0
1,note_on,65,0,240
1,note_on,60,30,0
1,note_on,60,0,240
1,note_on,72,0,0
1,note_on,73,52,0
1,note_on,60,40,240
1,note_on,60,0,240
1,note_on,66,48,0
1,note_on,66,0,240
1,note_on,69,43,0
1,note_on,69,0,240
1,note_on,73,0,0
1,note_on,72,50,0
1,note_on,66,42,0
1,note_on,66,0,240
1,note_on,60,47,0
1,note_on,60,0,240
1,note_on,72,0,0
1,note_on,77,61,0
1,note_on,65,32,240
1,note_on,65,0,240
1,note_on,68,41,0
1,note_on,68,0,240
1,note_on,72,29,0
1,note_on,72,0,240
1,note_on,68,37,0
1,note_on,68,0,240
1,note_on,65,30,0
1,note_on,65,0,240
1,note_on,65,23,240
1,note_on,65,0,240
1,note_on,68,31,0
1,note_on,68,0,240
1,note_on,71,27,0
1,note_on,71,0,240
1,note_on,68,26,0
1,note_on,68,0,240
1,note_on,65,25,0
1,note_on,65,0,240
1,note_on,77,0,0
1,note_on,58,21,240
1,note_on,58,0,240
1,note_on,64,27,0
1,note_on,64,0,240
1,note_on,68,20,0
1,note_on,68,0,240
1,note_on,64,20,0
1,note_on,64,0,240
1,note_on,58,20,0
1,note_on,58,0,240
1,note_on,70,32,0
1,note_on,58,20,240
1,note_on,58,0,240
1,note_on,64,25,0
1,note_on,64,0,240
1,note_on,67,21,0
1,note_on,67,0,240
1,note_on,64,21,0
1,note_on,64,0,240
1,note_on,58,21,0
1,note_on,58,0,240
1,note_on,70,0,0
1,note_on,75,37,0
1,note_on,63,22,240
1,note_on,63,0,240
1,note_on,66,28,0
1,note_on,66,0,240
1,note_on,70,22,0
1,note_on,70,0,240
1,note_on,66,22,0
1,note_on,66,0,240
1,note_on,63,22,0
1,note_on,63,0,240
1,note_on,63,20,240
1,note_on,63,0,240
1,note_on,66,26,0
1,note_on,66,0,240
1,note_on,69,21,0
1,note_on,69,0,240
1,note_on,66,30,0
1,note_on,66,0,240
1,note_on,63,24,0
1,note_on,63,0,240
1,note_on,75,0,0
1,note_on,56,20,240
1,note_on,56,0,240
1,note_on,62,25,0
1,note_on,62,0,240
1,note_on,66,20,0
1,note_on,66,0,240
1,note_on,62,20,0
1,note_on,62,0,240
1,note_on,56,20,0
1,note_on,56,0,240
1,note_on,68,29,0
1,note_on,56,20,240
1,note_on,56,0,240
1,note_on,62,24,0
1,note_on,62,0,240
1,note_on,65,20,0
1,note_on,65,0,240
1,note_on,62,20,0
1,note_on,62,0,240
1,note_on,56,20,0
1,note_on,56,0,240
1,note_on,68,0,0
1,note_on,73,35,0
1,note_on,61,19,240
1,note_on,61,0,240
1,note_on,65,27,0
1,note_on,65,0,240
1,note_on,68,18,0
1,note_on,68,0,240
1,note_on,65,18,0
1,note_on,65,0,240
1,note_on,61,18,0
1,note_on,61,0,240
1,note_on,61,20,240
1,note_on,61,0,240
1,note_on,64,26,0
1,note_on,64,0,240
1,note_on,67,21,0
1,note_on,67,0,240
1,note_on,73,0,0
1,note_on,72,32,0
1,note_on,64,26,0
1,note_on,64,0,240
1,note_on,61,22,0
1,note_on,61,0,240
1,note_on,72,0,0
1,note_on,72,36,0
1,note_on,61,20,240
1,note_on,61,0,240
1,note_on,64,25,0
1,note_on,64,0,240
1,note_on,67,21,0
1,note_on,67,0,240
1,note_on,72,0,0
1,note_on,70,32,0
1,note_on,64,21,0
1,note_on,64,0,240
1,note_on,61,21,0
1,note_on,61,0,240
1,note_on,70,0,0
1,note_on,72,36,0
1,note_on,61,20,240
1,note_on,61,0,240
1,note_on,63,25,0
1,note_on,63,0,240
1,note_on,67,21,0
1,note_on,67,0,240
1,note_on,72,0,0
1,note_on,70,31,0
1,note_on,63,21,0
1,note_on,63,0,240
1,note_on,61,21,0
1,note_on,61,0,180
1,note_on,60,24,0
1,note_on,63,29,30
1,note_on,70,0,30
1,note_on,68,36,0
1,note_on,68,0,480
1,note_on,63,0,0
1,note_on,60,0,0
1,note_on,60,24,720
1,note_on,60,0,240
1,note_on,63,25,0
1,note_on,63,0,240
1,note_on,68,25,0
1,note_on,68,0,240
1,note_on,72,26,0
1,note_on,72,0,240
1,note_on,75,27,0
1,note_on,75,0,240
1,note_on,80,28,0
1,note_on,80,0,240
1,note_on,82,28,0
1,note_on,82,0,240
1,note_on,75,32,0
1,note_on,84,32,0
1,note_on,84,0,960
1,note_on,75,0,0
1,note_on,76,25,0
1,note_on,84,25,0
1,note_on,84,0,456
1,note_on,76,0,0
1,note_on,77,26,24
1,note_on,84,26,0
1,note_on,84,0,456
1,note_on,77,0,0
1,note_on,78,29,24
1,note_on,85,29,0
1,note_on,85,0,456
1,note_on,78,0,0
1,note_on,78,25,24
1,note_on,84,25,0
1,note_on,84,0,456
1,note_on,78,0,0
1,note_on,80,30,24
1,note_on,89,30,0
1,note_on,89,0,456
1,note_on,80,0,0
1,note_on,73,32,2424
1,note_on,82,32,0
1,note_on,82,0,960
1,note_on,73,0,0
1,note_on,74,25,0
1,note_on,82,25,0
1,note_on,82,0,456
1,note_on,74,0,0
1,note_on,75,26,24
1,note_on,82,26,0
1,note_on,82,0,456
1,note_on,75,0,0
1,note_on,76,29,24
1,note_on,84,29,0
1,note_on,84,0,456
1,note_on,76,0,0
1,note_on,76,25,24
1,note_on,82,25,0
1,note_on,82,0,456
1,note_on,76,0,0
1,note_on,78,30,24
1,note_on,87,30,0
1,note_on,87,0,456
1,note_on,78,0,0
1,note_on,61,47,2304
1,note_on,64,52,60
1,note_on,73,58,60
1,note_on,73,0,2640
1,note_on,64,0,0
1,note_on,61,0,0
1,note_on,61,41,240
1,note_on,65,43,0
1,note_on,70,52,0
1,note_on,65,0,1920
1,note_on,61,0,0
1,note_on,63,37,0
1,note_on,70,0,480
1,note_on,72,37,0
1,note_on,72,0,480
1,note_on,63,0,0
1,note_on,60,38,0
1,note_on,68,38,0
1,note_on,60,0,1920
1,note_on,59,37,0
1,note_on,59,0,480
1,note_on,60,37,0
1,note_on,60,0,390
1,note_on,63,38,60
1,note_on,68,0,30
1,note_on,68,40,0
1,note_on,63,0,1440
1,note_on,61,34,0
1,note_on,61,0,960
1,note_on,60,31,0
1,note_on,60,0,480
1,note_on,68,0,0
1,note_on,60,34,240
1,note_on,68,37,120
1,note_on,68,0,2520
1,note_on,60,0,0
2,note_on,51,44,2400
2,note_on,51,0,480
2,note_on,44,40,0
2,note_on,60,49,0
2,note_on,44,0,480
2,note_on,60,0,960
2,note_on,60,44,0
2,note_on,60,0,1440
2,note_on,43,32,0
2,note_on,60,38,0
2,note_on,43,0,480
2,note_on,60,0,1920
2,note_on,60,39,0
2,note_on,60,0,480
2,note_on,41,36,0
2,note_on,60,45,0
2,note_on,41,0,480
2,note_on,60,0,480
2,note_on,60,47,0
2,note_on,60,0,480
2,note_on,61,52,0
2,note_on,61,0,960
2,note_on,60,49,0
2,note_on,60,0,480
2,note_on,34,40,0
2,note_on,60,56,0
2,note_on,34,0,480
2,note_on,60,0,960
2,note_on,53,42,0
2,note_on,53,0,480
2,note_on,53,42,480
2,note_on,39,41,420
2,note_on,53,0,60
2,note_on,53,48,0
2,note_on,53,0,480
2,note_on,39,0,0
2,note_on,55,40,0
2,note_on,55,0,480
2,note_on,56,46,0
2,note_on,56,0,420
2,note_on,51,42,0
2,note_on,60,50,60
2,note_on,51,0,480
2,note_on,60,0,480
2,note_on,58,50,0
2,note_on,58,0,480
2,note_on,44,42,0
2,note_on,56,46,0
2,note_on,44,0,480
2,note_on,56,0,960
2,note_on,32,42,0
2,note_on,32,0,480
2,note_on,51,41,480
2,note_on,51,0,420
2,note_on,44,40,0
2,note_on,60,44,60
2,note_on,44,0,480
2,note_on,60,0,960
2,note_on,60,42,0
2,note_on,60,0,1440
2,note_on,43,35,0
2,note_on,60,38,0
2,note_on,43,0,480
2,note_on,42,45,960
2,note_on,42,0,480
2,note_on,60,0,480
2,note_on,60,45,0
2,note_on,60,0,480
2,note_on,41,49,0
2,note_on,60,56,0
2,note_on,41,0,480
2,note_on,60,0,480
2,note_on,60,59,0
2,note_on,60,0,360
2,note_on,53,47,0
2,note_on,57,49,60
2,note_on,61,64,60
2,note_on,57,0,480
2,note_on,53,0,0
2,note_on,61,0,480
2,note_on,60,62,0
2,note_on,46,49,420
2,note_on,60,0,60
2,note_on,65,62,0
2,note_on,46,0,480
2,note_on,65,0,960
2,note_on,34,39,0
2,note_on,34,0,480
2,note_on,53,42,480
2,note_on,53,0,480
2,note_on,39,41,0
2,note_on,53,48,0
2,note_on,53,0,480
2,note_on,39,0,0
2,note_on,55,40,0
2,note_on,55,0,480
2,note_on,56,46,0
2,note_on,56,0,480
2,note_on,51,42,0
2,note_on,60,50,0
2,note_on,51,0,480
2,note_on,60,0,480
2,note_on,58,50,0
2,note_on,58,0,480
2,note_on,44,42,0
2,note_on,56,46,0
2,note_on,56,0,480
2,note_on,44,0,0
2,note_on,32,42,960
2,note_on,32,0,480
2,note_on,40,40,960
2,note_on,56,50,0
2,note_on,40,0,480
2,note_on,56,0,720
2,note_on,55,51,0
2,note_on,55,0,240
2,note_on,37,35,0
2,note_on,52,37,0
2,note_on,56,55,0
2,note_on,52,0,480
2,note_on,37,0,0
2,note_on,56,0,720
2,note_on,58,51,0
2,note_on,58,0,240
2,note_on,44,35,0
2,note_on,51,40,0
2,note_on,60,56,0
2,note_on,51,0,480
2,note_on,44,0,0
2,note_on,60,0,960
2,note_on,32,40,0
2,note_on,32,0,480
2,note_on,44,46,960
2,note_on,60,57,0
2,note_on,44,0,480
2,note_on,60,0,480
2,note_on,59,59,240
2,note_on,59,0,240
2,note_on,41,40,0
2,note_on,56,42,0
2,note_on,60,62,0
2,note_on,56,0,480
2,note_on,41,0,0
2,note_on,60,0,720
2,note_on,62,59,0
2,note_on,62,0,240
2,note_on,55,46,0
2,note_on,36,46,0
2,note_on,64,63,0
2,note_on,36,0,480
2,note_on,55,0,0
2,note_on,64,0,960
2,note_on,64,63,0
2,note_on,45,41,1320
2,note_on,52,42,60
2,note_on,64,0,60
2,note_on,60,42,0
2,note_on,64,46,0
2,note_on,60,0,480
2,note_on,45,0,0
2,note_on,52,0,0
2,note_on,64,0,960
2,note_on,64,53,0
2,note_on,40,33,1320
2,note_on,47,37,60
2,note_on,64,0,60
2,note_on,56,42,0
2,note_on,64,42,0
2,note_on,56,0,480
2,note_on,40,0,0
2,note_on,47,0,0
2,note_on,64,0,960
2,note_on,59,39,0
2,note_on,40,33,1380
2,note_on,59,0,60
2,note_on,56,42,0
2,note_on,61,42,0
2,note_on,56,0,480
2,note_on,40,0,0
2,note_on,61,0,960
2,note_on,61,44,0
2,note_on,61,0,238
2,note_on,56,36,722
2,note_on,39,40,420
2,note_on,56,0,60
2,note_on,55,41,0
2,note_on,58,45,0
2,note_on,55,0,480
2,note_on,39,0,0
2,note_on,58,0,960
2,note_on,40,44,0
2,note_on,56,44,0
2,note_on,61,48,0
2,note_on,56,0,480
2,note_on,40,0,0
2,note_on,61,0,480
2,note_on,59,42,0
2,note_on,59,0,480
2,note_on,39,37,0
2,note_on,55,37,0
2,note_on,58,46,0
2,note_on,58,0,480
2,note_on,55,0,0
2,note_on,39,0,0
2,note_on,57,42,0
2,note_on,57,0,480
2,note_on,58,43,0
2,note_on,40,43,420
2,note_on,58,0,60
2,note_on,56,52,0
2,note_on,61,52,0
2,note_on,56,0,480
2,note_on,40,0,0
2,note_on,61,0,480
2,note_on,59,45,0
2,note_on,59,0,480
2,note_on,39,36,0
2,note_on,55,36,0
2,note_on,58,46,0
2,note_on,58,0,480
2,note_on,55,0,0
2,note_on,39,0,0
2,note_on,57,39,0
2,note_on,57,0,480
2,note_on,58,41,0
2,note_on,58,0,480
2,note_on,37,42,0
2,note_on,49,42,0
2,note_on,64,45,0
2,note_on,49,0,480
2,note_on,37,0,0
2,note_on,56,41,0
2,note_on,56,0,480
2,note_on,64,0,0
2,note_on,58,43,0
2,note_on,58,0,480
2,note_on,64,51,0
2,note_on,64,0,480
2,note_on,63,41,0
2,note_on,63,0,480
2,note_on,61,40,0
2,note_on,61,0,480
2,note_on,59,39,0
2,note_on,59,0,480
2,note_on,58,37,0
2,note_on,58,0,480
2,note_on,56,36,0
2,note_on,56,0,480
2,note_on,55,35,0
2,note_on,55,0,480
2,note_on,39,37,960
2,note_on,39,0,240
2,note_on,46,33,0
2,note_on,46,0,240
2,note_on,49,37,0
2,note_on,49,0,240
2,note_on,55,33,0
2,note_on,55,0,240
2,note_on,58,37,0
2,note_on,58,0,240
2,note_on,61,32,0
2,note_on,61,0,240
2,note_on,64,37,0
2,note_on,64,0,240
2,note_on,63,34,0
2,note_on,63,0,240
2,note_on,64,33,240
2,note_on,64,0,120
2,note_on,63,35,0
2,note_on,63,0,120
2,note_on,68,36,0
2,note_on,68,0,120
2,note_on,67,37,0
2,note_on,67,0,120
2,note_on,73,38,0
2,note_on,73,0,120
2,note_on,70,40,0
2,note_on,70,0,120
2,note_on,76,41,0
2,note_on,76,0,120
2,note_on,75,42,0
2,note_on,75,0,120
2,note_on,80,43,0
2,note_on,80,0,120
2,note_on,79,45,0
2,note_on,79,0,120
2,note_on,85,46,0
2,note_on,85,0,120
2,note_on,82,47,0
2,note_on,82,0,120
2,note_on,88,48,0
2,note_on,88,0,120
2,note_on,87,50,0
2,note_on,87,0,120
2,note_on,92,51,0
2,note_on,92,0,120
2,note_on,91,52,0
2,note_on,91,0,120
2,note_on,92,51,0
2,note_on,92,0,120
2,note_on,91,50,0
2,note_on,91,0,120
2,note_on,88,49,0
2,note_on,88,0,120
2,note_on,87,48,0
2,note_on,87,0,120
2,note_on,85,46,0
2,note_on,85,0,120
2,note_on,82,45,0
2,note_on,82,0,120
2,note_on,85,44,0
2,note_on,85,0,120
2,note_on,82,43,0
2,note_on,82,0,120
2,note_on,80,42,0
2,note_on,80,0,120
2,note_on,79,41,0
2,note_on,79,0,120
2,note_on,76,40,0
2,note_on,76,0,120
2,note_on,75,39,0
2,note_on,75,0,120
2,note_on,76,38,0
2,note_on,76,0,120
2,note_on,75,37,0
2,note_on,75,0,120
2,note_on,73,36,0
2,note_on,73,0,120
2,note_on,70,35,0
2,note_on,70,0,120
2,note_on,68,33,0
2,note_on,68,0,120
2,note_on,67,31,0
2,note_on,67,0,120
2,note_on,68,33,0
2,note_on,68,0,120
2,note_on,67,31,0
2,note_on,67,0,120
2,note_on,64,33,0
2,note_on,64,0,120
2,note_on,63,31,0
2,note_on,63,0,120
2,note_on,64,29,0
2,note_on,64,0,120
2,note_on,63,30,0
2,note_on,63,0,120
2,note_on,64,31,0
2,note_on,64,0,120
2,note_on,63,32,0
2,note_on,63,0,120
2,note_on,64,34,0
2,note_on,64,0,120
2,note_on,63,36,0
2,note_on,63,0,120
2,note_on,64,38,0
2,note_on,64,0,120
2,note_on,63,39,0
2,note_on,63,0,120
2,note_on,64,41,0
2,note_on,64,0,120
2,note_on,63,43,0
2,note_on,63,0,120
2,note_on,64,45,0
2,note_on,64,0,120
2,note_on,63,47,0
2,note_on,63,0,120
2,note_on,64,49,0
2,note_on,64,0,120
2,note_on,63,51,0
2,note_on,63,0,120
2,note_on,64,50,0
2,note_on,64,0,120
2,note_on,63,48,0
2,note_on,63,0,120
2,note_on,64,46,0
2,note_on,64,0,120
2,note_on,63,45,0
2,note_on,63,0,120
2,note_on,64,43,0
2,note_on,64,0,120
2,note_on,63,41,0
2,note_on,63,0,120
2,note_on,64,38,0
2,note_on,64,0,120
2,note_on,63,36,0
2,note_on,63,0,120
2,note_on,64,33,0
2,note_on,64,0,120
2,note_on,63,30,0
2,note_on,63,0,120
2,note_on,47,35,1440
2,note_on,54,22,240
2,note_on,54,0,240
2,note_on,47,0,0
2,note_on,59,27,0
2,note_on,59,0,240
2,note_on,63,24,0
2,note_on,63,0,240
2,note_on,59,22,0
2,note_on,59,0,240
2,note_on,54,22,0
2,note_on,54,0,240
2,note_on,54,24,240
2,note_on,54,0,240
2,note_on,59,27,0
2,note_on,59,0,240
2,note_on,63,24,0
2,note_on,63,0,240
2,note_on,59,24,0
2,note_on,59,0,240
2,note_on,54,24,0
2,note_on,54,0,240
2,note_on,46,35,0
2,note_on,55,27,240
2,note_on,55,0,240
2,note_on,46,0,0
2,note_on,61,31,0
2,note_on,61,0,240
2,note_on,63,27,0
2,note_on,63,0,240
2,note_on,61,27,0
2,note_on,61,0,240
2,note_on,55,25,0
2,note_on,55,0,240
2,note_on,55,26,240
2,note_on,55,0,240
2,note_on,61,31,0
2,note_on,61,0,240
2,note_on,63,26,0
2,note_on,63,0,240
2,note_on,61,28,0
2,note_on,61,0,240
2,note_on,55,28,0
2,note_on,55,0,240
2,note_on,45,35,0
2,note_on,54,25,240
2,note_on,54,0,240
2,note_on,45,0,0
2,note_on,61,29,0
2,note_on,61,0,240
2,note_on,63,28,0
2,note_on,63,0,240
2,note_on,61,28,0
2,note_on,61,0,240
2,note_on,54,28,0
2,note_on,54,0,240
2,note_on,44,38,0
2,note_on,54,30,240
2,note_on,54,0,240
2,note_on,44,0,0
2,note_on,60,34,0
2,note_on,60,0,240
2,note_on,63,32,0
2,note_on,63,0,240
2,note_on,60,32,0
2,note_on,60,0,240
2,note_on,54,32,0
2,note_on,54,0,240
2,note_on,37,35,0
2,note_on,53,25,240
2,note_on,53,0,240
2,note_on,37,0,0
2,note_on,59,28,0
2,note_on,59,0,240
2,note_on,63,28,0
2,note_on,63,0,240
2,note_on,59,26,0
2,note_on,59,0,240
2,note_on,53,26,0
2,note_on,53,0,240
2,note_on,49,20,240
2,note_on,49,0,240
2,note_on,53,24,0
2,note_on,53,0,240
2,note_on,59,22,0
2,note_on,59,0,240
2,note_on,53,22,0
2,note_on,53,0,240
2,note_on,49,22,0
2,note_on,49,0,240
2,note_on,42,35,0
2,note_on,52,25,240
2,note_on,52,0,240
2,note_on,42,0,0
2,note_on,54,28,0
2,note_on,54,0,240
2,note_on,61,28,0
2,note_on,61,0,240
2,note_on,54,26,0
2,note_on,54,0,240
2,note_on,52,27,0
2,note_on,52,0,240
2,note_on,54,31,240
2,note_on,54,0,240
2,note_on,58,36,0
2,note_on,58,0,240
2,note_on,64,31,0
2,note_on,64,0,240
2,note_on,58,31,0
2,note_on,58,0,240
2,note_on,54,28,0
2,note_on,54,0,240
2,note_on,47,24,240
2,note_on,47,0,240
2,note_on,54,28,0
2,note_on,54,0,240
2,note_on,59,26,0
2,note_on,59,0,240
2,note_on,53,28,0
2,note_on,53,0,240
2,note_on,59,25,0
2,note_on,59,0,240
2,note_on,54,28,0
2,note_on,54,0,240
2,note_on,63,27,0
2,note_on,63,0,240
2,note_on,61,27,0
2,note_on,61,0,240
2,note_on,59,26,0
2,note_on,59,0,240
2,note_on,56,33,0
2,note_on,56,0,240
2,note_on,54,32,0
2,note_on,54,0,240
2,note_on,47,54,0
2,note_on,54,38,240
2,note_on,54,0,240
2,note_on,47,0,0
2,note_on,59,45,0
2,note_on,59,0,240
2,note_on,63,38,0
2,note_on,63,0,240
2,note_on,59,37,0
2,note_on,59,0,240
2,note_on,54,37,0
2,note_on,54,0,240
2,note_on,46,60,0
2,note_on,55,45,240
2,note_on,55,0,240
2,note_on,46,0,0
2,note_on,61,50,0
2,note_on,61,0,240
2,note_on,63,46,0
2,note_on,63,0,240
2,note_on,61,46,0
2,note_on,61,0,240
2,note_on,55,46,0
2,note_on,55,0,240
2,note_on,45,68,0
2,note_on,54,46,240
2,note_on,54,0,240
2,note_on,45,0,0
2,note_on,60,49,0
2,note_on,60,0,240
2,note_on,63,47,0
2,note_on,63,0,240
2,note_on,60,47,0
2,note_on,60,0,240
2,note_on,54,48,0
2,note_on,54,0,240
2,note_on,44,77,0
2,note_on,54,49,240
2,note_on,54,0,240
2,note_on,44,0,0
2,note_on,60,52,0
2,note_on,60,0,240
2,note_on,63,48,0
2,note_on,63,0,240
2,note_on,60,48,0
2,note_on,60,0,240
2,note_on,54,48,0
2,note_on,54,0,240
2,note_on,43,81,0
2,note_on,55,45,240
2,note_on,55,0,240
2,note_on,43,0,0
2,note_on,60,54,0
2,note_on,60,0,240
2,note_on,64,48,0
2,note_on,64,0,240
2,note_on,60,45,0
2,note_on,60,0,240
2,note_on,55,45,0
2,note_on,55,0,240
2,note_on,55,47,240
2,note_on,55,0,240
2,note_on,60,57,0
2,note_on,60,0,240
2,note_on,64,47,0
2,note_on,64,0,240
2,note_on,60,47,0
2,note_on,60,0,240
2,note_on,55,47,0
2,note_on,55,0,240
2,note_on,43,75,0
2,note_on,57,52,240
2,note_on,57,0,240
2,note_on,43,0,0
2,note_on,62,54,0
2,note_on,60,54,0
2,note_on,60,0,240
2,note_on,62,0,0
2,note_on,65,48,0
2,note_on,65,0,240
2,note_on,62,48,0
2,note_on,60,48,0
2,note_on,60,0,240
2,note_on,62,0,0
2,note_on,57,48,0
2,note_on,57,0,240
2,note_on,43,63,1680
2,note_on,43,0,240
2,note_on,50,60,0
2,note_on,53,69,0
2,note_on,53,0,240
2,note_on,50,0,0
2,note_on,57,54,0
2,note_on,57,0,240
2,note_on,50,55,0
2,note_on,53,65,0
2,note_on,53,0,240
2,note_on,50,0,0
2,note_on,43,58,0
2,note_on,43,0,180
2,note_on,43,73,0
2,note_on,53,73,15
2,note_on,59,74,15
2,note_on,59,0,210
2,note_on,53,0,0
2,note_on,43,0,0
2,note_on,36,62,1260
2,note_on,52,62,0
2,note_on,52,0,480
2,note_on,36,0,0
2,note_on,72,73,0
2,note_on,72,0,240
2,note_on,64,63,0
2,note_on,64,0,240
2,note_on,67,70,0
2,note_on,67,0,240
2,note_on,60,61,0
2,note_on,60,0,240
2,note_on,64,68,0
2,note_on,64,0,240
2,note_on,55,62,0
2,note_on,55,0,240
2,note_on,60,70,0
2,note_on,60,0,240
2,note_on,52,60,0
2,note_on,52,0,240
2,note_on,55,68,0
2,note_on,55,0,240
2,note_on,48,61,0
2,note_on,48,0,240
2,note_on,41,69,0
2,note_on,53,69,0
2,note_on,53,0,240
2,note_on,41,0,0
2,note_on,68,68,240
2,note_on,68,0,240
2,note_on,60,61,0
2,note_on,60,0,240
2,note_on,65,67,0
2,note_on,65,0,240
2,note_on,56,61,0
2,note_on,56,0,240
2,note_on,60,66,0
2,note_on,60,0,240
2,note_on,53,61,0
2,note_on,53,0,240
2,note_on,56,66,0
2,note_on,56,0,240
2,note_on,48,61,0
2,note_on,48,0,240
2,note_on,53,67,0
2,note_on,53,0,240
2,note_on,44,61,0
2,note_on,44,0,240
2,note_on,36,62,0
2,note_on,48,62,0
2,note_on,48,0,480
2,note_on,36,0,0
2,note_on,72,73,0
2,note_on,72,0,240
2,note_on,64,63,0
2,note_on,64,0,240
2,note_on,67,70,0
2,note_on,67,0,240
2,note_on,60,61,0
2,note_on,60,0,240
2,note_on,64,68,0
2,note_on,64,0,240
2,note_on,55,62,0
2,note_on,55,0,240
2,note_on,60,70,0
2,note_on,60,0,240
2,note_on,52,60,0
2,note_on,52,0,240
2,note_on,55,68,0
2,note_on,55,0,240
2,note_on,48,61,0
2,note_on,48,0,240
2,note_on,33,69,0
2,note_on,45,69,0
2,note_on,45,0,240
2,note_on,33,0,0
2,note_on,72,68,240
2,note_on,72,0,240
2,note_on,64,61,0
2,note_on,64,0,240
2,note_on,69,67,0
2,note_on,69,0,240
2,note_on,60,61,0
2,note_on,60,0,240
2,note_on,64,72,0
2,note_on,64,0,240
2,note_on,57,66,0
2,note_on,57,0,240
2,note_on,60,73,0
2,note_on,60,0,240
2,note_on,52,68,0
2,note_on,52,0,240
2,note_on,57,77,0
2,note_on,57,0,240
2,note_on,48,71,0
2,note_on,48,0,240
2,note_on,40,70,0
2,note_on,52,80,0
2,note_on,59,57,240
2,note_on,56,58,240
2,note_on,59,0,24
2,note_on,64,57,216
2,note_on,56,0,24
2,note_on,59,53,216
2,note_on,64,0,24
2,note_on,56,53,216
2,note_on,59,0,24
2,note_on,40,0,216
2,note_on,52,0,0
2,note_on,56,0,0
2,note_on,40,70,0
2,note_on,52,80,0
2,note_on,59,57,240
2,note_on,56,62,240
2,note_on,59,0,24
2,note_on,64,59,216
2,note_on,56,0,24
2,note_on,59,59,216
2,note_on,64,0,24
2,note_on,56,62,216
2,note_on,59,0,24
2,note_on,40,0,216
2,note_on,52,0,0
2,note_on,56,0,0
2,note_on,39,70,0
2,note_on,51,80,0
2,note_on,60,61,240
2,note_on,56,65,240
2,note_on,60,0,24
2,note_on,66,61,216
2,note_on,56,0,24
2,note_on,60,59,216
2,note_on,66,0,24
2,note_on,56,65,216
2,note_on,60,0,24
2,note_on,39,0,216
2,note_on,51,0,0
2,note_on,56,0,0
2,note_on,51,73,0
2,note_on,60,61,240
2,note_on,51,0,24
2,note_on,56,64,216
2,note_on,60,0,24
2,note_on,66,59,216
2,note_on,56,0,24
2,note_on,60,64,216
2,note_on,66,0,24
2,note_on,56,67,216
2,note_on,60,0,24
2,note_on,56,0,216
2,note_on,38,70,0
2,note_on,50,80,0
2,note_on,59,60,240
2,note_on,56,62,240
2,note_on,59,0,24
2,note_on,66,61,216
2,note_on,56,0,24
2,note_on,59,57,216
2,note_on,66,0,24
2,note_on,56,66,216
2,note_on,59,0,24
2,note_on,38,0,216
2,note_on,50,0,0
2,note_on,56,0,0
2,note_on,37,70,0
2,note_on,49,80,0
2,note_on,59,61,240
2,note_on,56,65,240
2,note_on,59,0,24
2,note_on,65,62,216
2,note_on,56,0,24
2,note_on,59,59,216
2,note_on,65,0,24
2,note_on,56,67,216
2,note_on,59,0,24
2,note_on,37,0,216
2,note_on,49,0,0
2,note_on,56,0,0
2,note_on,42,80,0
2,note_on,42,0,240
2,note_on,52,63,0
2,note_on,52,0,240
2,note_on,58,65,0
2,note_on,58,0,180
2,note_on,58,67,60
2,note_on,58,0,240
2,note_on,64,70,0
2,note_on,64,0,240
2,note_on,68,72,0
2,note_on,68,0,180
2,note_on,68,77,60
2,note_on,68,0,240
2,note_on,64,69,0
2,note_on,64,0,240
2,note_on,58,71,0
2,note_on,58,0,180
2,note_on,58,64,60
2,note_on,58,0,240
2,note_on,52,70,0
2,note_on,52,0,240
2,note_on,42,64,0
2,note_on,42,0,240
2,note_on,35,80,0
2,note_on,35,0,240
2,note_on,47,63,0
2,note_on,47,0,240
2,note_on,54,65,0
2,note_on,54,0,240
2,note_on,57,67,0
2,note_on,57,0,240
2,note_on,61,70,0
2,note_on,61,0,240
2,note_on,64,72,0
2,note_on,64,0,240
2,note_on,68,77,0
2,note_on,68,0,240
2,note_on,63,69,0
2,note_on,63,0,240
2,note_on,59,71,0
2,note_on,59,0,240
2,note_on,57,64,0
2,note_on,57,0,240
2,note_on,51,70,0
2,note_on,51,0,240
2,note_on,47,64,0
2,note_on,47,0,240
2,note_on,40,80,0
2,note_on,40,0,240
2,note_on,47,63,0
2,note_on,47,0,240
2,note_on,52,65,0
2,note_on,52,0,240
2,note_on,56,67,0
2,note_on,56,0,240
2,note_on,58,70,0
2,note_on,58,0,240
2,note_on,64,69,0
2,note_on,64,0,240
2,note_on,59,77,0
2,note_on,59,0,240
2,note_on,68,69,0
2,note_on,68,0,240
2,note_on,64,71,0
2,note_on,64,0,240
2,note_on,59,64,0
2,note_on,59,0,240
2,note_on,56,70,0
2,note_on,56,0,240
2,note_on,47,64,0
2,note_on,47,0,240
2,note_on,40,70,0
2,note_on,52,80,0
2,note_on,59,60,240
2,note_on,56,63,240
2,note_on,59,0,24
2,note_on,64,61,216
2,note_on,56,0,24
2,note_on,59,57,216
2,note_on,64,0,24
2,note_on,56,57,216
2,note_on,59,0,24
2,note_on,40,0,216
2,note_on,52,0,0
2,note_on,56,0,0
2,note_on,39,70,0
2,note_on,51,80,0
2,note_on,60,61,240
2,note_on,56,64,240
2,note_on,60,0,24
2,note_on,66,62,216
2,note_on,56,0,24
2,note_on,60,57,216
2,note_on,66,0,24
2,note_on,56,57,216
2,note_on,60,0,24
2,note_on,39,0,216
2,note_on,51,0,0
2,note_on,56,0,0
2,note_on,38,70,0
2,note_on,50,80,0
2,note_on,59,61,240
2,note_on,56,65,240
2,note_on,59,0,24
2,note_on,65,61,216
2,note_on,56,0,24
2,note_on,59,60,216
2,note_on,65,0,24
2,note_on,56,63,216
2,note_on,59,0,24
2,note_on,38,0,216
2,note_on,50,0,0
2,note_on,56,0,0
2,note_on,49,77,0
2,note_on,59,61,240
2,note_on,56,64,240
2,note_on,59,0,24
2,note_on,65,59,216
2,note_on,56,0,24
2,note_on,59,64,216
2,note_on,65,0,24
2,note_on,56,63,216
2,note_on,59,0,24
2,note_on,56,0,216
2,note_on,49,0,0
2,note_on,36,70,0
2,note_on,48,80,0
2,note_on,60,60,240
2,note_on,56,64,240
2,note_on,60,0,24
2,note_on,65,61,216
2,note_on,56,0,24
2,note_on,60,57,216
2,note_on,65,0,24
2,note_on,56,57,216
2,note_on,60,0,24
2,note_on,36,0,216
2,note_on,48,0,0
2,note_on,56,0,0
2,note_on,47,89,0
2,note_on,35,89,0
2,note_on,61,61,240
2,note_on,56,66,240
2,note_on,61,0,24
2,note_on,65,62,216
2,note_on,56,0,24
2,note_on,61,59,216
2,note_on,65,0,24
2,note_on,56,62,216
2,note_on,61,0,24
2,note_on,47,0,216
2,note_on,35,0,0
2,note_on,56,0,0
2,note_on,34,96,0
2,note_on,46,96,0
2,note_on,56,78,240
2,note_on,56,0,240
2,note_on,46,0,0
2,note_on,34,0,0
2,note_on,62,78,0
2,note_on,62,0,240
2,note_on,65,78,0
2,note_on,65,0,240
2,note_on,62,74,0
2,note_on,62,0,240
2,note_on,56,74,0
2,note_on,56,0,240
2,note_on,53,82,0
2,note_on,53,0,240
2,note_on,56,78,0
2,note_on,56,0,240
2,note_on,62,78,0
2,note_on,62,0,240
2,note_on,65,78,0
2,note_on,65,0,240
2,note_on,62,74,0
2,note_on,62,0,240
2,note_on,56,74,0
2,note_on,56,0,240
2,note_on,39,88,0
2,note_on,39,0,240
2,note_on,49,68,0
2,note_on,49,0,240
2,note_on,53,70,0
2,note_on,53,0,240
2,note_on,56,72,0
2,note_on,56,0,240
2,note_on,58,74,0
2,note_on,58,0,240
2,note_on,61,80,0
2,note_on,61,0,240
2,note_on,65,85,0
2,note_on,65,0,240
2,note_on,61,83,0
2,note_on,61,0,240
2,note_on,58,75,0
2,note_on,58,0,240
2,note_on,56,74,0
2,note_on,56,0,240
2,note_on,53,72,0
2,note_on,53,0,240
2,note_on,49,69,0
2,note_on,49,0,240
2,note_on,34,70,0
2,note_on,46,78,0
2,note_on,56,69,240
2,note_on,56,0,240
2,note_on,46,0,0
2,note_on,34,0,0
2,note_on,62,69,0
2,note_on,62,0,240
2,note_on,65,69,0
2,note_on,65,0,240
2,note_on,62,65,0
2,note_on,62,0,240
2,note_on,56,66,0
2,note_on,56,0,240
2,note_on,53,82,0
2,note_on,53,0,240
2,note_on,56,78,0
2,note_on,56,0,240
2,note_on,62,78,0
2,note_on,62,0,240
2,note_on,65,71,0
2,note_on,65,0,240
2,note_on,62,78,0
2,note_on,62,0,240
2,note_on,56,72,0
2,note_on,56,0,240
2,note_on,39,88,0
2,note_on,39,0,240
2,note_on,49,68,0
2,note_on,49,0,240
2,note_on,53,70,0
2,note_on,53,0,240
2,note_on,56,72,0
2,note_on,56,0,240
2,note_on,58,74,0
2,note_on,58,0,240
2,note_on,61,80,0
2,note_on,61,0,240
2,note_on,65,84,0
2,note_on,65,0,240
2,note_on,61,82,0
2,note_on,61,0,240
2,note_on,58,78,0
2,note_on,58,0,240
2,note_on,56,74,0
2,note_on,56,0,240
2,note_on,53,72,0
2,note_on,53,0,240
2,note_on,49,69,0
2,note_on,49,0,240
2,note_on,35,69,0
2,note_on,47,78,0
2,note_on,56,69,240
2,note_on,56,0,240
2,note_on,62,69,0
2,note_on,62,0,240
2,note_on,65,69,0
2,note_on,65,0,240
2,note_on,62,66,0
2,note_on,62,0,240
2,note_on,56,68,0
2,note_on,56,0,240
2,note_on,47,0,0
2,note_on,35,0,0
2,note_on,34,70,0
2,note_on,46,78,0
2,note_on,53,69,240
2,note_on,53,0,240
2,note_on,46,0,0
2,note_on,34,0,0
2,note_on,56,69,0
2,note_on,56,0,240
2,note_on,62,69,0
2,note_on,62,0,240
2,note_on,56,65,0
2,note_on,56,0,240
2,note_on,53,65,0
2,note_on,53,0,240
2,note_on,39,33,2880
2,note_on,39,0,240
2,note_on,49,37,0
2,note_on,49,0,240
2,note_on,53,40,0
2,note_on,53,0,240
2,note_on,56,45,0
2,note_on,56,0,240
2,note_on,58,48,0
2,note_on,58,0,240
2,note_on,61,53,0
2,note_on,61,0,240
2,note_on,65,57,0
2,note_on,65,0,240
2,note_on,61,59,0
2,note_on,61,0,240
2,note_on,58,59,0
2,note_on,58,0,240
2,note_on,56,59,0
2,note_on,56,0,240
2,note_on,53,58,0
2,note_on,53,0,240
2,note_on,49,56,0
2,note_on,49,0,240
2,note_on,39,59,0
2,note_on,39,0,240
2,note_on,49,60,0
2,note_on,49,0,240
2,note_on,53,63,0
2,note_on,53,0,240
2,note_on,56,66,0
2,note_on,56,0,240
2,note_on,58,69,0
2,note_on,58,0,240
2,note_on,61,72,0
2,note_on,61,0,240
2,note_on,68,74,0
2,note_on,68,0,240
2,note_on,65,72,0
2,note_on,65,0,240
2,note_on,61,70,0
2,note_on,61,0,240
2,note_on,56,67,0
2,note_on,56,0,240
2,note_on,53,65,0
2,note_on,53,0,240
2,note_on,49,63,0
2,note_on,49,0,240
2,note_on,39,82,0
2,note_on,39,0,240
2,note_on,46,64,0
2,note_on,46,0,240
2,note_on,49,64,0
2,note_on,49,0,240
2,note_on,55,64,0
2,note_on,55,0,240
2,note_on,58,64,0
2,note_on,58,0,240
2,note_on,61,63,0
2,note_on,61,0,240
2,note_on,67,64,0
2,note_on,67,0,240
2,note_on,70,66,0
2,note_on,70,0,240
2,note_on,73,64,0
2,note_on,73,0,240
2,note_on,79,58,0
2,note_on,79,0,240
2,note_on,82,49,0
2,note_on,82,0,240
2,note_on,85,37,0
2,note_on,85,0,240
2,note_on,91,35,0
2,note_on,91,0,120
2,note_on,94,31,0
2,note_on,94,0,120
2,note_on,90,35,0
2,note_on,90,0,120
2,note_on,93,31,0
2,note_on,93,0,120
2,note_on,89,34,0
2,note_on,89,0,120
2,note_on,92,29,0
2,note_on,92,0,120
2,note_on,88,33,0
2,note_on,88,0,120
2,note_on,91,30,0
2,note_on,91,0,120
2,note_on,87,33,0
2,note_on,87,0,120
2,note_on,90,29,0
2,note_on,90,0,120
2,note_on,86,33,0
2,note_on,86,0,120
2,note_on,89,28,0
2,note_on,89,0,120
2,note_on,85,33,0
2,note_on,85,0,120
2,note_on,88,28,0
2,note_on,88,0,120
2,note_on,84,32,0
2,note_on,84,0,120
2,note_on,87,28,0
2,note_on,87,0,120
2,note_on,83,32,0
2,note_on,83,0,120
2,note_on,86,28,0
2,note_on,86,0,120
2,note_on,82,31,0
2,note_on,82,0,120
2,note_on,85,27,0
2,note_on,85,0,120
2,note_on,81,31,0
2,note_on,81,0,120
2,note_on,84,27,0
2,note_on,84,0,120
2,note_on,80,31,0
2,note_on,80,0,120
2,note_on,83,26,0
2,note_on,83,0,120
2,note_on,79,30,0
2,note_on,79,0,120
2,note_on,82,26,0
2,note_on,82,0,120
2,note_on,78,29,0
2,note_on,78,0,120
2,note_on,81,26,0
2,note_on,81,0,120
2,note_on,77,29,0
2,note_on,77,0,120
2,note_on,80,26,0
2,note_on,80,0,120
2,note_on,76,29,0
2,note_on,76,0,120
2,note_on,79,26,0
2,note_on,79,0,120
2,note_on,75,28,0
2,note_on,75,0,120
2,note_on,78,25,0
2,note_on,78,0,120
2,note_on,74,28,0
2,note_on,74,0,120
2,note_on,77,24,0
2,note_on,77,0,120
2,note_on,73,27,0
2,note_on,73,0,120
2,note_on,76,24,0
2,note_on,76,0,120
2,note_on,72,27,0
2,note_on,72,0,120
2,note_on,75,24,0
2,note_on,75,0,120
2,note_on,71,27,0
2,note_on,71,0,120
2,note_on,74,24,0
2,note_on,74,0,120
2,note_on,70,26,0
2,note_on,70,0,120
2,note_on,73,24,0
2,note_on,73,0,120
2,note_on,69,26,0
2,note_on,69,0,120
2,note_on,72,24,0
2,note_on,72,0,120
2,note_on,68,26,0
2,note_on,68,0,120
2,note_on,71,22,0
2,note_on,71,0,60
2,note_on,67,32,0
2,note_on,70,32,20
2,note_on,70,0,160
2,note_on,67,0,0
2,note_on,44,30,8520
2,note_on,44,0,480
2,note_on,84,23,480
2,note_on,80,23,0
2,note_on,75,18,0
2,note_on,75,0,432
2,note_on,80,0,0
2,note_on,84,0,0
2,note_on,75,20,48
2,note_on,80,21,0
2,note_on,84,24,0
2,note_on,84,0,432
2,note_on,80,0,0
2,note_on,75,0,0
2,note_on,43,31,1008
2,note_on,43,0,480
2,note_on,76,17,480
2,note_on,82,21,0
2,note_on,84,21,0
2,note_on,84,0,432
2,note_on,82,0,0
2,note_on,76,0,0
2,note_on,76,20,48
2,note_on,82,24,0
2,note_on,84,24,0
2,note_on,84,0,432
2,note_on,82,0,0
2,note_on,76,0,0
2,note_on,41,36,1008
2,note_on,41,0,480
2,note_on,84,25,480
2,note_on,81,25,0
2,note_on,75,21,0
2,note_on,75,0,432
2,note_on,81,0,0
2,note_on,84,0,0
2,note_on,75,21,48
2,note_on,81,27,0
2,note_on,85,27,0
2,note_on,85,0,432
2,note_on,81,0,0
2,note_on,75,0,0
2,note_on,34,34,1008
2,note_on,46,34,0
2,note_on,46,0,480
2,note_on,34,0,0
2,note_on,84,24,480
2,note_on,77,24,0
2,note_on,74,19,0
2,note_on,74,0,432
2,note_on,77,0,0
2,note_on,84,0,0
2,note_on,74,23,48
2,note_on,77,28,0
2,note_on,77,0,432
2,note_on,74,0,0
2,note_on,39,33,1008
2,note_on,51,33,0
2,note_on,51,0,480
2,note_on,39,0,0
2,note_on,80,24,480
2,note_on,73,24,0
2,note_on,70,24,0
2,note_on,70,0,390
2,note_on,73,0,0
2,note_on,80,0,0
2,note_on,73,26,0
2,note_on,75,27,30
2,note_on,79,27,30
2,note_on,84,28,30
2,note_on,79,0,480
2,note_on,73,0,0
2,note_on,75,0,0
2,note_on,84,0,480
2,note_on,82,25,0
2,note_on,82,0,480
2,note_on,32,28,0
2,note_on,44,28,0
2,note_on,44,0,480
2,note_on,32,0,0
2,note_on,80,23,480
2,note_on,72,23,0
2,note_on,75,23,0
2,note_on,75,0,432
2,note_on,72,0,0
2,note_on,80,0,0
2,note_on,72,25,48
2,note_on,75,25,0
2,note_on,80,25,0
2,note_on,80,0,432
2,note_on,75,0,0
2,note_on,72,0,0
2,note_on,44,35,948
2,note_on,51,36,30
2,note_on,60,39,30
2,note_on,60,0,480
2,note_on,51,0,0
2,note_on,44,0,0
2,note_on,84,21,480
2,note_on,80,21,0
2,note_on,75,17,0
2,note_on,75,0,432
2,note_on,80,0,0
2,note_on,84,0,0
2,note_on,84,26,48
2,note_on,80,26,0
2,note_on,75,22,0
2,note_on,75,0,432
2,note_on,80,0,0
2,note_on,84,0,0
2,note_on,43,32,1008
2,note_on,52,32,0
2,note_on,58,32,0
2,note_on,58,0,480
2,note_on,52,0,0
2,note_on,43,0,0
2,note_on,84,23,480
2,note_on,82,23,0
2,note_on,76,19,0
2,note_on,76,0,432
2,note_on,82,0,0
2,note_on,84,0,0
2,note_on,84,30,48
2,note_on,82,30,0
2,note_on,76,28,0
2,note_on,76,0,432
2,note_on,82,0,0
2,note_on,84,0,0
2,note_on,41,32,1008
2,note_on,57,32,0
2,note_on,57,0,1440
2,note_on,41,0,0
2,note_on,39,28,0
2,note_on,54,28,0
2,note_on,54,0,1440
2,note_on,39,0,0
2,note_on,38,45,0
2,note_on,53,45,0
2,note_on,53,0,480
2,note_on,38,0,0
2,note_on,89,31,480
2,note_on,84,31,0
2,note_on,80,25,0
2,note_on,80,0,432
2,note_on,84,0,0
2,note_on,89,0,0
2,note_on,83,32,48
2,note_on,80,28,0
2,note_on,89,32,0
2,note_on,89,0,432
2,note_on,80,0,0
2,note_on,83,0,0
2,note_on,37,26,1008
2,note_on,52,30,0
2,note_on,52,0,480
2,note_on,37,0,0
2,note_on,82,24,480
2,note_on,80,24,0
2,note_on,76,20,0
2,note_on,76,0,432
2,note_on,80,0,0
2,note_on,82,0,0
2,note_on,76,22,48
2,note_on,79,27,0
2,note_on,82,27,0
2,note_on,82,0,432
2,note_on,79,0,0
2,note_on,76,0,0
2,note_on,36,29,978
2,note_on,51,31,30
2,note_on,51,0,480
2,note_on,36,0,0
2,note_on,78,16,480
2,note_on,82,20,0
2,note_on,87,20,0
2,note_on,87,0,432
2,note_on,82,0,0
2,note_on,78,0,0
2,note_on,78,20,48
2,note_on,81,23,0
2,note_on,87,23,0
2,note_on,87,0,432
2,note_on,81,0,0
2,note_on,78,0,0
2,note_on,35,26,1008
2,note_on,50,30,0
2,note_on,50,0,480
2,note_on,35,0,0
2,note_on,80,20,480
2,note_on,78,20,0
2,note_on,74,16,0
2,note_on,74,0,432
2,note_on,78,0,0
2,note_on,80,0,0
2,note_on,74,19,48
2,note_on,77,23,0
2,note_on,80,23,0
2,note_on,80,0,432
2,note_on,77,0,0
2,note_on,74,0,0
2,note_on,34,27,1008
2,note_on,49,31,0
2,note_on,49,0,480
2,note_on,34,0,0
2,note_on,77,16,480
2,note_on,80,20,0
2,note_on,85,20,0
2,note_on,85,0,432
2,note_on,80,0,0
2,note_on,77,0,0
2,note_on,76,18,48
2,note_on,80,23,0
2,note_on,85,23,0
2,note_on,85,0,432
2,note_on,80,0,0
2,note_on,76,0,0
2,note_on,39,27,1008
2,note_on,55,27,1440
2,note_on,55,0,1440
2,note_on,39,0,0
2,note_on,32,20,240
2,note_on,32,0,240
2,note_on,44,21,0
2,note_on,44,0,240
2,note_on,51,23,0
2,note_on,51,0,240
2,note_on,56,24,0
2,note_on,56,0,240
2,note_on,68,25,1680
2,note_on,72,25,0
2,note_on,72,0,960
2,note_on,68,0,0
2,note_on,67,21,0
2,note_on,70,21,0
2,note_on,70,0,456
2,note_on,67,0,0
2,note_on,65,21,24
2,note_on,69,21,0
2,note_on,69,0,456
2,note_on,65,0,0
2,note_on,63,24,24
2,note_on,69,24,0
2,note_on,69,0,456
2,note_on,63,0,0
2,note_on,69,21,24
2,note_on,63,21,0
2,note_on,63,0,456
2,note_on,69,0,0
2,note_on,62,26,24
2,note_on,71,26,0
2,note_on,71,0,456
2,note_on,62,0,0
2,note_on,66,25,2424
2,note_on,70,25,0
2,note_on,70,0,960
2,note_on,66,0,0
2,note_on,65,21,0
2,note_on,68,21,0
2,note_on,68,0,456
2,note_on,65,0,0
2,note_on,63,21,24
2,note_on,67,21,0
2,note_on,67,0,456
2,note_on,63,0,0
2,note_on,61,24,24
2,note_on,67,24,0
2,note_on,67,0,456
2,note_on,61,0,0
2,note_on,67,21,24
2,note_on,61,21,0
2,note_on,61,0,456
2,note_on,67,0,0
2,note_on,60,26,24
2,note_on,69,26,0
2,note_on,69,0,456
2,note_on,60,0,0
2,note_on,37,41,2184
2,note_on,57,46,60
2,note_on,57,0,2820
2,note_on,37,0,0
2,note_on,39,33,0
2,note_on,56,41,240
2,note_on,56,0,1440
2,note_on,55,33,0
2,note_on,55,0,1440
2,note_on,39,0,0
2,note_on,51,31,0
2,note_on,44,31,0
2,note_on,51,0,1920
2,note_on,50,34,0
2,note_on,50,0,480
2,note_on,51,35,0
2,note_on,51,0,390
2,note_on,44,31,0
2,note_on,55,33,30
2,note_on,44,0,60
2,note_on,55,0,1440
2,note_on,53,30,0
2,note_on,53,0,960
2,note_on,51,30,0
2,note_on,51,0,480
2,note_on,44,0,0
2,note_on,44,26,0
2,note_on,51,34,120
2,note_on,51,0,2760
2,note_on,44,0,0
