Track,Message Type,Note,Velocity,Time
1,note_on,80,39,1
1,note_on,83,44,0
1,note_on,83,0,118
1,note_on,80,0,0
1,note_on,81,41,2
1,note_on,78,36,0
1,note_on,78,0,118
1,note_on,81,0,0
1,note_on,76,42,2
1,note_on,80,46,0
1,note_on,80,0,220
1,note_on,76,0,0
1,note_on,80,37,20
1,note_on,76,34,0
1,note_on,76,0,118
1,note_on,80,0,0
1,note_on,71,32,2
1,note_on,78,36,0
1,note_on,78,0,118
1,note_on,71,0,0
1,note_on,68,35,2
1,note_on,76,40,0
1,note_on,76,0,220
1,note_on,68,0,0
1,note_on,83,43,20
1,note_on,80,37,0
1,note_on,80,0,118
1,note_on,83,0,0
1,note_on,78,35,2
1,note_on,81,40,0
1,note_on,81,0,118
1,note_on,78,0,0
1,note_on,76,40,2
1,note_on,80,45,0
1,note_on,80,0,220
1,note_on,76,0,0
1,note_on,80,37,20
1,note_on,76,34,0
1,note_on,76,0,118
1,note_on,80,0,0
1,note_on,71,32,2
1,note_on,78,36,0
1,note_on,78,0,118
1,note_on,71,0,0
1,note_on,76,42,2
1,note_on,68,36,0
1,note_on,68,0,220
1,note_on,76,0,0
1,note_on,76,42,20
1,note_on,68,36,0
1,note_on,68,0,118
1,note_on,76,0,0
1,note_on,71,34,2
1,note_on,78,37,0
1,note_on,78,0,118
1,note_on,71,0,0
1,note_on,80,45,2
1,note_on,76,40,0
1,note_on,76,0,220
1,note_on,80,0,0
1,note_on,71,39,20
1,note_on,78,44,0
1,note_on,78,0,118
1,note_on,71,0,0
1,note_on,76,35,2
1,note_on,80,40,0
1,note_on,80,0,118
1,note_on,76,0,0
1,note_on,78,47,2
1,note_on,81,47,0
1,note_on,81,0,220
1,note_on,78,0,0
1,note_on,71,40,20
1,note_on,78,45,0
1,note_on,78,0,118
1,note_on,71,0,0
1,note_on,78,37,2
1,note_on,81,43,0
1,note_on,81,0,118
1,note_on,78,0,0
1,note_on,83,50,2
1,note_on,80,44,0
1,note_on,80,0,220
1,note_on,83,0,0
1,note_on,78,35,20
1,note_on,81,39,0
1,note_on,81,0,118
1,note_on,78,0,0
1,note_on,80,36,2
1,note_on,76,33,0
1,note_on,76,0,118
1,note_on,80,0,0
1,note_on,71,39,2
1,note_on,78,44,0
1,note_on,78,0,220
1,note_on,71,0,0
1,note_on,83,44,20
1,note_on,80,39,0
1,note_on,80,0,118
1,note_on,83,0,0
1,note_on,78,36,2
1,note_on,81,41,0
1,note_on,81,0,118
1,note_on,78,0,0
1,note_on,80,49,2
1,note_on,76,44,0
1,note_on,76,0,220
1,note_on,80,0,0
1,note_on,76,35,20
1,note_on,80,40,0
1,note_on,80,0,118
1,note_on,76,0,0
1,note_on,78,36,2
1,note_on,71,33,0
1,note_on,71,0,118
1,note_on,78,0,0
1,note_on,76,44,2
1,note_on,68,39,0
1,note_on,68,0,220
1,note_on,76,0,0
1,note_on,80,43,20
1,note_on,83,47,0
1,note_on,83,0,118
1,note_on,80,0,0
1,note_on,81,44,2
1,note_on,78,39,0
1,note_on,78,0,118
1,note_on,81,0,0
1,note_on,76,46,2
1,note_on,80,53,0
1,note_on,80,0,220
1,note_on,76,0,0
1,note_on,76,35,20
1,note_on,80,39,0
1,note_on,80,0,118
1,note_on,76,0,0
1,note_on,71,32,2
1,note_on,78,36,0
1,note_on,78,0,118
1,note_on,71,0,0
1,note_on,68,44,2
1,note_on,76,44,0
1,note_on,76,0,220
1,note_on,68,0,0
1,note_on,68,40,20
1,note_on,76,45,0
1,note_on,76,0,118
1,note_on,68,0,0
1,note_on,78,41,2
1,note_on,71,36,0
1,note_on,71,0,118
1,note_on,78,0,0
1,note_on,76,39,2
1,note_on,80,44,0
1,note_on,80,0,220
1,note_on,76,0,0
1,note_on,81,39,20
1,note_on,78,35,0
1,note_on,78,0,118
1,note_on,81,0,0
1,note_on,80,35,2
1,note_on,76,31,0
1,note_on,76,0,118
1,note_on,80,0,0
1,note_on,71,33,2
1,note_on,78,36,0
1,note_on,78,0,220
1,note_on,71,0,0
1,note_on,80,36,20
1,note_on,76,32,0
1,note_on,76,0,118
1,note_on,80,0,0
1,note_on,71,27,2
1,note_on,78,32,0
1,note_on,78,0,118
1,note_on,71,0,0
1,note_on,68,30,2
1,note_on,76,34,0
1,note_on,76,0,480
1,note_on,68,0,0
1,note_on,56,60,240
1,note_on,64,66,0
1,note_on,64,0,58
1,note_on,56,0,0
1,note_on,64,56,62
1,note_on,68,63,0
1,note_on,68,0,58
1,note_on,64,0,0
1,note_on,59,65,62
1,note_on,66,73,0
1,note_on,66,0,220
1,note_on,59,0,0
1,note_on,64,60,20
1,note_on,68,66,0
1,note_on,68,0,58
1,note_on,64,0,0
1,note_on,69,63,62
1,note_on,66,56,0
1,note_on,66,0,58
1,note_on,69,0,0
1,note_on,68,63,62
1,note_on,71,72,0
1,note_on,71,0,220
1,note_on,68,0,0
1,note_on,73,65,20
1,note_on,69,59,0
1,note_on,69,0,58
1,note_on,73,0,0
1,note_on,71,63,62
1,note_on,68,55,0
1,note_on,68,0,58
1,note_on,71,0,0
1,note_on,66,63,62
1,note_on,69,71,0
1,note_on,69,0,220
1,note_on,66,0,0
1,note_on,68,71,20
1,note_on,64,63,0
1,note_on,64,0,58
1,note_on,68,0,0
1,note_on,66,60,62
1,note_on,69,66,0
1,note_on,69,0,58
1,note_on,66,0,0
1,note_on,59,66,62
1,note_on,66,74,0
1,note_on,66,0,220
1,note_on,59,0,0
1,note_on,56,60,20
1,note_on,64,66,0
1,note_on,64,0,58
1,note_on,56,0,0
1,note_on,64,57,62
1,note_on,68,64,0
1,note_on,68,0,58
1,note_on,64,0,0
1,note_on,59,65,62
1,note_on,66,73,0
1,note_on,66,0,220
1,note_on,59,0,0
1,note_on,68,66,20
1,note_on,64,60,0
1,note_on,64,0,58
1,note_on,68,0,0
1,note_on,66,56,62
1,note_on,69,63,0
1,note_on,69,0,58
1,note_on,66,0,0
1,note_on,71,72,62
1,note_on,68,63,0
1,note_on,68,0,220
1,note_on,71,0,0
1,note_on,73,65,20
1,note_on,69,59,0
1,note_on,69,0,58
1,note_on,73,0,0
1,note_on,68,56,62
1,note_on,71,63,0
1,note_on,71,0,58
1,note_on,68,0,0
1,note_on,69,69,62
1,note_on,66,62,0
1,note_on,66,0,220
1,note_on,69,0,0
1,note_on,64,63,20
1,note_on,68,71,0
1,note_on,68,0,58
1,note_on,64,0,0
1,note_on,66,60,62
1,note_on,69,66,0
1,note_on,69,0,58
1,note_on,66,0,0
1,note_on,59,60,62
1,note_on,66,66,0
1,note_on,66,0,180
1,note_on,59,0,0
1,note_on,83,47,60
1,note_on,80,43,0
1,note_on,80,0,118
1,note_on,83,0,0
1,note_on,78,41,2
1,note_on,81,45,0
1,note_on,81,0,118
1,note_on,78,0,0
1,note_on,80,53,2
1,note_on,76,46,0
1,note_on,76,0,220
1,note_on,80,0,0
1,note_on,76,35,20
1,note_on,80,39,0
1,note_on,80,0,118
1,note_on,76,0,0
1,note_on,71,33,2
1,note_on,78,36,0
1,note_on,78,0,118
1,note_on,71,0,0
1,note_on,68,39,2
1,note_on,76,44,0
1,note_on,76,0,220
1,note_on,68,0,0
1,note_on,68,60,20
1,note_on,71,66,0
1,note_on,71,0,58
1,note_on,68,0,0
1,note_on,66,54,62
1,note_on,69,62,0
1,note_on,69,0,58
1,note_on,66,0,0
1,note_on,68,72,62
1,note_on,64,64,0
1,note_on,64,0,220
1,note_on,68,0,0
1,note_on,64,59,20
1,note_on,68,65,0
1,note_on,68,0,58
1,note_on,64,0,0
1,note_on,66,62,62
1,note_on,59,54,0
1,note_on,59,0,58
1,note_on,66,0,0
1,note_on,64,72,62
1,note_on,56,63,0
1,note_on,56,0,180
1,note_on,64,0,0
1,note_on,68,40,60
1,note_on,76,45,0
1,note_on,76,0,118
1,note_on,68,0,0
1,note_on,78,41,2
1,note_on,71,36,0
1,note_on,71,0,118
1,note_on,78,0,0
1,note_on,76,39,2
1,note_on,80,44,0
1,note_on,80,0,220
1,note_on,76,0,0
1,note_on,78,35,20
1,note_on,81,39,0
1,note_on,81,0,118
1,note_on,78,0,0
1,note_on,76,31,2
1,note_on,80,35,0
1,note_on,80,0,118
1,note_on,76,0,0
1,note_on,71,33,2
1,note_on,78,36,0
1,note_on,78,0,220
1,note_on,71,0,0
1,note_on,76,32,20
1,note_on,80,36,0
1,note_on,80,0,118
1,note_on,76,0,0
1,note_on,78,32,2
1,note_on,71,27,0
1,note_on,71,0,118
1,note_on,78,0,0
1,note_on,68,30,2
1,note_on,76,34,0
1,note_on,76,0,480
1,note_on,68,0,0
1,note_on,92,37,1
1,note_on,95,43,0
1,note_on,95,0,118
1,note_on,92,0,0
1,note_on,90,35,2
1,note_on,93,39,0
1,note_on,93,0,118
1,note_on,90,0,0
1,note_on,92,46,2
1,note_on,88,42,0
1,note_on,88,0,230
1,note_on,92,0,0
1,note_on,88,34,10
1,note_on,92,37,0
1,note_on,92,0,118
1,note_on,88,0,0
1,note_on,90,35,2
1,note_on,83,31,0
1,note_on,83,0,118
1,note_on,90,0,0
1,note_on,80,36,2
1,note_on,88,41,0
1,note_on,88,0,230
1,note_on,80,0,0
1,note_on,83,42,10
1,note_on,80,36,0
1,note_on,80,0,118
1,note_on,83,0,0
1,note_on,78,33,2
1,note_on,81,36,0
1,note_on,81,0,118
1,note_on,78,0,0
1,note_on,76,40,2
1,note_on,80,45,0
1,note_on,80,0,230
1,note_on,76,0,0
1,note_on,76,34,10
1,note_on,80,37,0
1,note_on,80,0,118
1,note_on,76,0,0
1,note_on,78,35,2
1,note_on,71,31,0
1,note_on,71,0,118
1,note_on,78,0,0
1,note_on,68,42,2
1,note_on,76,42,0
1,note_on,76,0,230
1,note_on,68,0,0
1,note_on,76,42,10
1,note_on,68,36,0
1,note_on,68,0,118
1,note_on,76,0,0
1,note_on,78,37,2
1,note_on,71,34,0
1,note_on,71,0,118
1,note_on,78,0,0
1,note_on,76,40,2
1,note_on,80,45,0
1,note_on,80,0,230
1,note_on,76,0,0
1,note_on,78,43,10
1,note_on,71,37,0
1,note_on,71,0,118
1,note_on,78,0,0
1,note_on,76,34,2
1,note_on,80,37,0
1,note_on,80,0,118
1,note_on,76,0,0
1,note_on,78,43,2
1,note_on,81,47,0
1,note_on,81,0,230
1,note_on,78,0,0
1,note_on,71,40,10
1,note_on,78,45,0
1,note_on,78,0,118
1,note_on,71,0,0
1,note_on,78,36,2
1,note_on,81,42,0
1,note_on,81,0,118
1,note_on,78,0,0
1,note_on,80,44,2
1,note_on,83,50,0
1,note_on,83,0,230
1,note_on,80,0,0
1,note_on,81,39,10
1,note_on,78,35,0
1,note_on,78,0,118
1,note_on,81,0,0
1,note_on,76,32,2
1,note_on,80,36,0
1,note_on,80,0,118
1,note_on,76,0,0
1,note_on,78,44,2
1,note_on,71,39,0
1,note_on,71,0,230
1,note_on,78,0,0
1,note_on,92,37,10
1,note_on,95,43,0
1,note_on,95,0,118
1,note_on,92,0,0
1,note_on,90,35,2
1,note_on,93,39,0
1,note_on,93,0,118
1,note_on,90,0,0
1,note_on,88,42,2
1,note_on,92,46,0
1,note_on,92,0,230
1,note_on,88,0,0
1,note_on,92,37,10
1,note_on,88,34,0
1,note_on,88,0,118
1,note_on,92,0,0
1,note_on,83,31,2
1,note_on,90,35,0
1,note_on,90,0,118
1,note_on,83,0,0
1,note_on,88,41,2
1,note_on,80,36,0
1,note_on,80,0,230
1,note_on,88,0,0
1,note_on,80,36,10
1,note_on,83,42,0
1,note_on,83,0,118
1,note_on,80,0,0
1,note_on,78,34,2
1,note_on,81,37,0
1,note_on,81,0,118
1,note_on,78,0,0
1,note_on,80,45,2
1,note_on,76,40,0
1,note_on,76,0,230
1,note_on,80,0,0
1,note_on,76,34,10
1,note_on,80,37,0
1,note_on,80,0,118
1,note_on,76,0,0
1,note_on,71,31,2
1,note_on,78,35,0
1,note_on,78,0,118
1,note_on,71,0,0
1,note_on,68,36,2
1,note_on,76,42,0
1,note_on,76,0,230
1,note_on,68,0,0
1,note_on,68,36,10
1,note_on,76,42,0
1,note_on,76,0,118
1,note_on,68,0,0
1,note_on,71,34,2
1,note_on,78,37,0
1,note_on,78,0,118
1,note_on,71,0,0
1,note_on,80,45,2
1,note_on,76,40,0
1,note_on,76,0,230
1,note_on,80,0,0
1,note_on,78,39,10
1,note_on,81,44,0
1,note_on,81,0,118
1,note_on,78,0,0
1,note_on,80,39,2
1,note_on,76,35,0
1,note_on,76,0,118
1,note_on,80,0,0
1,note_on,78,41,2
1,note_on,71,36,0
1,note_on,71,0,230
1,note_on,78,0,0
1,note_on,76,40,10
1,note_on,80,45,0
1,note_on,80,0,118
1,note_on,76,0,0
1,note_on,78,37,2
1,note_on,71,34,0
1,note_on,71,0,118
1,note_on,78,0,0
1,note_on,68,35,2
1,note_on,76,39,0
1,note_on,76,0,480
1,note_on,68,0,0
1,note_on,56,60,240
1,note_on,64,66,0
1,note_on,64,0,58
1,note_on,56,0,0
1,note_on,64,55,62
1,note_on,68,63,0
1,note_on,68,0,58
1,note_on,64,0,0
1,note_on,59,65,62
1,note_on,66,73,0
1,note_on,66,0,220
1,note_on,59,0,0
1,note_on,64,60,20
1,note_on,68,66,0
1,note_on,68,0,58
1,note_on,64,0,0
1,note_on,66,57,62
1,note_on,69,64,0
1,note_on,69,0,58
1,note_on,66,0,0
1,note_on,71,72,62
1,note_on,68,63,0
1,note_on,68,0,220
1,note_on,71,0,0
1,note_on,69,62,20
1,note_on,73,69,0
1,note_on,73,0,58
1,note_on,69,0,0
1,note_on,71,64,62
1,note_on,68,57,0
1,note_on,68,0,58
1,note_on,71,0,0
1,note_on,69,74,62
1,note_on,66,66,0
1,note_on,66,0,220
1,note_on,69,0,0
1,note_on,64,61,20
1,note_on,68,67,0
1,note_on,68,0,58
1,note_on,64,0,0
1,note_on,69,64,62
1,note_on,66,57,0
1,note_on,66,0,58
1,note_on,69,0,0
1,note_on,59,66,62
1,note_on,66,74,0
1,note_on,66,0,220
1,note_on,59,0,0
1,note_on,56,60,20
1,note_on,64,66,0
1,note_on,64,0,58
1,note_on,56,0,0
1,note_on,64,56,62
1,note_on,68,63,0
1,note_on,68,0,58
1,note_on,64,0,0
1,note_on,59,65,62
1,note_on,66,73,0
1,note_on,66,0,220
1,note_on,59,0,0
1,note_on,64,60,20
1,note_on,68,66,0
1,note_on,68,0,58
1,note_on,64,0,0
1,note_on,69,63,62
1,note_on,66,56,0
1,note_on,66,0,58
1,note_on,69,0,0
1,note_on,68,63,62
1,note_on,71,72,0
1,note_on,71,0,220
1,note_on,68,0,0
1,note_on,73,72,20
1,note_on,69,63,0
1,note_on,69,0,58
1,note_on,73,0,0
1,note_on,71,69,62
1,note_on,68,62,0
1,note_on,68,0,58
1,note_on,71,0,0
1,note_on,66,66,62
1,note_on,69,74,0
1,note_on,69,0,220
1,note_on,66,0,0
1,note_on,68,66,20
1,note_on,64,60,0
1,note_on,64,0,58
1,note_on,68,0,0
1,note_on,66,56,62
1,note_on,69,63,0
1,note_on,69,0,58
1,note_on,66,0,0
1,note_on,59,57,62
1,note_on,66,64,0
1,note_on,66,0,180
1,note_on,59,0,0
1,note_on,92,37,60
1,note_on,95,43,0
1,note_on,95,0,118
1,note_on,92,0,0
1,note_on,93,41,2
1,note_on,90,36,0
1,note_on,90,0,118
1,note_on,93,0,0
1,note_on,88,42,2
1,note_on,92,46,0
1,note_on,92,0,230
1,note_on,88,0,0
1,note_on,92,37,10
1,note_on,88,34,0
1,note_on,88,0,118
1,note_on,92,0,0
1,note_on,83,31,2
1,note_on,90,35,0
1,note_on,90,0,118
1,note_on,83,0,0
1,note_on,80,36,2
1,note_on,88,41,0
1,note_on,88,0,230
1,note_on,80,0,0
1,note_on,83,42,10
1,note_on,80,36,0
1,note_on,80,0,118
1,note_on,83,0,0
1,note_on,78,34,2
1,note_on,81,37,0
1,note_on,81,0,118
1,note_on,78,0,0
1,note_on,76,40,2
1,note_on,80,45,0
1,note_on,80,0,230
1,note_on,76,0,0
1,note_on,80,37,10
1,note_on,76,34,0
1,note_on,76,0,118
1,note_on,80,0,0
1,note_on,71,32,2
1,note_on,78,36,0
1,note_on,78,0,118
1,note_on,71,0,0
1,note_on,76,42,2
1,note_on,68,36,0
1,note_on,68,0,230
1,note_on,76,0,0
1,note_on,64,42,10
1,note_on,56,36,0
1,note_on,56,0,58
1,note_on,64,0,0
1,note_on,59,33,62
1,note_on,66,36,0
1,note_on,66,0,58
1,note_on,59,0,0
1,note_on,68,45,62
1,note_on,64,40,0
1,note_on,64,0,230
1,note_on,68,0,0
1,note_on,66,36,10
1,note_on,69,42,0
1,note_on,69,0,58
1,note_on,66,0,0
1,note_on,64,33,62
1,note_on,68,36,0
1,note_on,68,0,58
1,note_on,64,0,0
1,note_on,59,33,62
1,note_on,66,36,0
1,note_on,66,0,230
1,note_on,59,0,0
1,note_on,64,36,10
1,note_on,68,41,0
1,note_on,68,0,58
1,note_on,64,0,0
1,note_on,59,31,62
1,note_on,66,35,0
1,note_on,66,0,58
1,note_on,59,0,0
1,note_on,64,36,62
1,note_on,56,32,0
1,note_on,56,0,480
1,note_on,64,0,0
1,note_on,59,59,240
1,note_on,71,66,0
1,note_on,71,0,118
1,note_on,59,0,0
1,note_on,59,66,122
1,note_on,64,66,0
1,note_on,67,66,0
1,note_on,71,73,0
1,note_on,71,0,240
1,note_on,59,0,0
1,note_on,64,0,0
1,note_on,67,0,0
1,note_on,57,66,0
1,note_on,57,0,90
1,note_on,55,63,30
1,note_on,55,0,58
1,note_on,57,66,62
1,note_on,66,66,0
1,note_on,69,73,0
1,note_on,69,0,240
1,note_on,66,0,0
1,note_on,57,0,0
1,note_on,55,66,0
1,note_on,55,0,90
1,note_on,54,62,30
1,note_on,54,0,58
1,note_on,55,66,62
1,note_on,64,66,0
1,note_on,67,73,0
1,note_on,67,0,240
1,note_on,64,0,0
1,note_on,55,0,0
1,note_on,54,66,0
1,note_on,54,0,90
1,note_on,52,63,30
1,note_on,52,0,58
1,note_on,55,70,62
1,note_on,64,70,0
1,note_on,67,79,0
1,note_on,67,0,240
1,note_on,64,0,0
1,note_on,55,0,0
1,note_on,54,66,0
1,note_on,54,0,90
1,note_on,52,62,30
1,note_on,52,0,58
1,note_on,55,67,62
1,note_on,59,67,0
1,note_on,67,75,0
1,note_on,64,67,0
1,note_on,64,0,240
1,note_on,55,0,0
1,note_on,59,0,0
1,note_on,67,0,0
1,note_on,54,66,0
1,note_on,54,0,90
1,note_on,52,62,30
1,note_on,52,0,58
1,note_on,52,65,62
1,note_on,55,65,0
1,note_on,61,65,0
1,note_on,64,72,0
1,note_on,64,0,240
1,note_on,52,0,0
1,note_on,55,0,0
1,note_on,61,0,0
1,note_on,51,66,0
1,note_on,51,0,90
1,note_on,52,62,30
1,note_on,52,0,90
1,note_on,67,79,30
1,note_on,64,70,0
1,note_on,59,70,0
1,note_on,55,70,0
1,note_on,55,0,480
1,note_on,67,0,0
1,note_on,64,0,0
1,note_on,59,0,0
1,note_on,54,65,0
1,note_on,63,65,0
1,note_on,66,72,0
1,note_on,66,0,240
1,note_on,63,0,0
1,note_on,54,0,0
1,note_on,50,72,0
1,note_on,62,72,0
1,note_on,62,0,118
1,note_on,50,0,0
1,note_on,55,76,122
1,note_on,59,76,0
1,note_on,62,76,0
1,note_on,67,84,0
1,note_on,67,0,240
1,note_on,55,0,0
1,note_on,59,0,0
1,note_on,62,0,0
1,note_on,54,66,0
1,note_on,54,0,58
1,note_on,55,61,62
1,note_on,55,0,58
1,note_on,62,72,62
1,note_on,57,72,0
1,note_on,66,72,0
1,note_on,69,81,0
1,note_on,69,0,240
1,note_on,62,0,0
1,note_on,57,0,0
1,note_on,66,0,0
1,note_on,55,66,0
1,note_on,55,0,58
1,note_on,57,61,62
1,note_on,57,0,58
1,note_on,67,66,62
1,note_on,59,66,0
1,note_on,62,66,0
1,note_on,71,73,0
1,note_on,71,0,240
1,note_on,67,0,0
1,note_on,59,0,0
1,note_on,62,0,0
1,note_on,57,66,0
1,note_on,57,0,58
1,note_on,59,62,62
1,note_on,59,0,58
1,note_on,67,75,62
1,note_on,60,75,0
1,note_on,64,75,0
1,note_on,72,83,0
1,note_on,72,0,240
1,note_on,67,0,0
1,note_on,60,0,0
1,note_on,64,0,0
1,note_on,62,66,0
1,note_on,62,0,58
1,note_on,64,62,62
1,note_on,64,0,58
1,note_on,55,69,62
1,note_on,59,69,0
1,note_on,71,77,0
1,note_on,62,69,0
1,note_on,62,0,240
1,note_on,55,0,0
1,note_on,59,0,0
1,note_on,71,0,0
1,note_on,57,66,0
1,note_on,57,0,58
1,note_on,59,62,62
1,note_on,59,0,58
1,note_on,57,67,62
1,note_on,60,67,0
1,note_on,66,67,0
1,note_on,69,76,0
1,note_on,69,0,240
1,note_on,57,0,0
1,note_on,60,0,0
1,note_on,66,0,0
1,note_on,59,66,0
1,note_on,59,0,58
1,note_on,54,61,62
1,note_on,54,0,58
1,note_on,67,82,62
1,note_on,62,73,0
1,note_on,59,73,0
1,note_on,55,73,0
1,note_on,55,0,480
1,note_on,67,0,0
1,note_on,62,0,0
1,note_on,59,0,0
1,note_on,59,62,240
1,note_on,71,70,0
1,note_on,71,0,118
1,note_on,59,0,0
1,note_on,57,67,122
1,note_on,66,67,0
1,note_on,69,76,0
1,note_on,69,0,240
1,note_on,66,0,0
1,note_on,57,0,0
1,note_on,55,63,0
1,note_on,55,0,58
1,note_on,54,61,62
1,note_on,54,0,58
1,note_on,64,63,62
1,note_on,55,63,0
1,note_on,67,71,0
1,note_on,67,0,240
1,note_on,55,0,0
1,note_on,64,0,0
1,note_on,54,64,0
1,note_on,54,0,58
1,note_on,52,61,62
1,note_on,52,0,58
1,note_on,63,72,62
1,note_on,51,64,0
1,note_on,59,64,0
1,note_on,59,0,240
1,note_on,51,0,0
1,note_on,63,0,0
1,note_on,59,63,480
1,note_on,71,71,0
1,note_on,71,0,118
1,note_on,59,0,0
1,note_on,57,66,122
1,note_on,66,66,0
1,note_on,69,73,0
1,note_on,69,0,240
1,note_on,66,0,0
1,note_on,57,0,0
1,note_on,55,62,0
1,note_on,55,0,58
1,note_on,54,59,62
1,note_on,54,0,58
1,note_on,64,63,62
1,note_on,55,63,0
1,note_on,67,71,0
1,note_on,67,0,240
1,note_on,55,0,0
1,note_on,64,0,0
1,note_on,54,63,0
1,note_on,54,0,58
1,note_on,52,60,62
1,note_on,52,0,58
1,note_on,71,72,62
1,note_on,59,64,0
1,note_on,63,64,0
1,note_on,63,0,240
1,note_on,59,0,0
1,note_on,71,0,0
1,note_on,59,62,480
1,note_on,71,70,0
1,note_on,71,0,118
1,note_on,59,0,0
1,note_on,64,72,122
1,note_on,71,72,0
1,note_on,76,81,0
1,note_on,76,0,240
1,note_on,71,0,0
1,note_on,64,0,0
1,note_on,62,64,0
1,note_on,62,0,58
1,note_on,59,59,62
1,note_on,59,0,58
1,note_on,64,60,62
1,note_on,60,60,0
1,note_on,72,66,0
1,note_on,72,0,240
1,note_on,60,0,0
1,note_on,64,0,0
1,note_on,59,59,0
1,note_on,59,0,58
1,note_on,57,55,62
1,note_on,57,0,58
1,note_on,62,69,62
1,note_on,69,69,0
1,note_on,74,77,0
1,note_on,74,0,240
1,note_on,69,0,0
1,note_on,62,0,0
1,note_on,60,63,0
1,note_on,60,0,58
1,note_on,57,57,62
1,note_on,57,0,58
1,note_on,62,54,62
1,note_on,59,54,0
1,note_on,71,61,0
1,note_on,71,0,240
1,note_on,59,0,0
1,note_on,62,0,0
1,note_on,57,59,0
1,note_on,57,0,58
1,note_on,55,56,62
1,note_on,55,0,58
1,note_on,60,70,62
1,note_on,67,70,0
1,note_on,72,79,0
1,note_on,72,0,240
1,note_on,67,0,0
1,note_on,60,0,0
1,note_on,59,61,0
1,note_on,59,0,58
1,note_on,55,56,62
1,note_on,55,0,58
1,note_on,60,55,62
1,note_on,57,55,0
1,note_on,69,62,0
1,note_on,69,0,240
1,note_on,57,0,0
1,note_on,60,0,0
1,note_on,55,60,0
1,note_on,55,0,58
1,note_on,54,56,62
1,note_on,54,0,58
1,note_on,59,63,62
1,note_on,66,63,0
1,note_on,71,71,0
1,note_on,71,0,240
1,note_on,66,0,0
1,note_on,59,0,0
1,note_on,57,61,0
1,note_on,57,0,58
1,note_on,54,56,62
1,note_on,54,0,58
1,note_on,59,56,62
1,note_on,55,56,0
1,note_on,67,63,0
1,note_on,67,0,240
1,note_on,55,0,0
1,note_on,59,0,0
1,note_on,54,60,0
1,note_on,54,0,58
1,note_on,52,56,62
1,note_on,52,0,90
1,note_on,67,56,30
1,note_on,55,50,0
1,note_on,60,50,0
1,note_on,64,50,0
1,note_on,64,0,240
1,note_on,67,0,0
1,note_on,55,0,0
1,note_on,60,0,0
1,note_on,54,63,0
1,note_on,54,0,58
1,note_on,52,67,62
1,note_on,52,0,58
1,note_on,67,71,62
1,note_on,61,63,0
1,note_on,55,63,0
1,note_on,64,63,0
1,note_on,64,0,240
1,note_on,67,0,0
1,note_on,61,0,0
1,note_on,55,0,0
1,note_on,54,67,0
1,note_on,54,0,58
1,note_on,52,63,62
1,note_on,52,0,58
1,note_on,51,67,62
1,note_on,59,67,0
1,note_on,63,75,0
1,note_on,63,0,240
1,note_on,59,0,0
1,note_on,51,0,0
1,note_on,52,57,0
1,note_on,52,0,58
1,note_on,54,54,62
1,note_on,54,0,58
1,note_on,55,55,62
1,note_on,52,55,0
1,note_on,64,62,0
1,note_on,64,0,240
1,note_on,52,0,0
1,note_on,55,0,0
1,note_on,54,55,0
1,note_on,54,0,58
1,note_on,55,55,62
1,note_on,55,0,58
1,note_on,60,67,62
1,note_on,53,60,0
1,note_on,60,0,236
1,note_on,53,0,4
1,note_on,65,47,0
1,note_on,69,54,0
1,note_on,69,0,58
1,note_on,65,0,0
1,note_on,60,45,62
1,note_on,65,51,0
1,note_on,65,0,58
1,note_on,60,0,0
1,note_on,55,57,62
1,note_on,59,57,0
1,note_on,64,65,0
1,note_on,64,0,180
1,note_on,59,0,0
1,note_on,55,0,0
1,note_on,59,54,60
1,note_on,66,60,0
1,note_on,66,0,58
1,note_on,59,0,0
1,note_on,59,50,62
1,note_on,63,56,0
1,note_on,63,0,60
1,note_on,59,0,0
1,note_on,55,62,60
1,note_on,59,62,0
1,note_on,64,70,0
1,note_on,64,0,480
1,note_on,59,0,0
1,note_on,55,0,0
1,note_on,92,37,240
1,note_on,95,43,0
1,note_on,95,0,118
1,note_on,92,0,0
1,note_on,90,35,2
1,note_on,93,39,0
1,note_on,93,0,118
1,note_on,90,0,0
1,note_on,88,42,2
1,note_on,92,46,0
1,note_on,92,0,230
1,note_on,88,0,0
1,note_on,88,34,10
1,note_on,92,37,0
1,note_on,92,0,118
1,note_on,88,0,0
1,note_on,83,31,2
1,note_on,90,35,0
1,note_on,90,0,118
1,note_on,83,0,0
1,note_on,80,36,2
1,note_on,88,41,0
1,note_on,88,0,230
1,note_on,80,0,0
1,note_on,83,42,10
1,note_on,80,36,0
1,note_on,80,0,118
1,note_on,83,0,0
1,note_on,78,34,2
1,note_on,81,37,0
1,note_on,81,0,118
1,note_on,78,0,0
1,note_on,76,40,2
1,note_on,80,45,0
1,note_on,80,0,230
1,note_on,76,0,0
1,note_on,76,34,10
1,note_on,80,37,0
1,note_on,80,0,118
1,note_on,76,0,0
1,note_on,71,31,2
1,note_on,78,35,0
1,note_on,78,0,118
1,note_on,71,0,0
1,note_on,68,36,2
1,note_on,76,42,0
1,note_on,76,0,230
1,note_on,68,0,0
1,note_on,68,36,10
1,note_on,76,42,0
1,note_on,76,0,118
1,note_on,68,0,0
1,note_on,71,34,2
1,note_on,78,37,0
1,note_on,78,0,118
1,note_on,71,0,0
1,note_on,76,40,2
1,note_on,80,45,0
1,note_on,80,0,230
1,note_on,76,0,0
1,note_on,71,37,10
1,note_on,78,43,0
1,note_on,78,0,118
1,note_on,71,0,0
1,note_on,76,35,2
1,note_on,80,39,0
1,note_on,80,0,118
1,note_on,76,0,0
1,note_on,78,43,2
1,note_on,81,47,0
1,note_on,81,0,230
1,note_on,78,0,0
1,note_on,71,40,10
1,note_on,78,45,0
1,note_on,78,0,118
1,note_on,71,0,0
1,note_on,78,36,2
1,note_on,81,42,0
1,note_on,81,0,118
1,note_on,78,0,0
1,note_on,80,44,2
1,note_on,83,50,0
1,note_on,83,0,230
1,note_on,80,0,0
1,note_on,78,35,10
1,note_on,81,39,0
1,note_on,81,0,118
1,note_on,78,0,0
1,note_on,76,33,2
1,note_on,80,36,0
1,note_on,80,0,118
1,note_on,76,0,0
1,note_on,71,39,2
1,note_on,78,44,0
1,note_on,78,0,230
1,note_on,71,0,0
1,note_on,92,37,10
1,note_on,95,43,0
1,note_on,95,0,118
1,note_on,92,0,0
1,note_on,90,35,2
1,note_on,93,39,0
1,note_on,93,0,118
1,note_on,90,0,0
1,note_on,88,42,2
1,note_on,92,46,0
1,note_on,92,0,230
1,note_on,88,0,0
1,note_on,88,34,10
1,note_on,92,37,0
1,note_on,92,0,118
1,note_on,88,0,0
1,note_on,83,32,2
1,note_on,90,36,0
1,note_on,90,0,118
1,note_on,83,0,0
1,note_on,80,41,2
1,note_on,88,41,0
1,note_on,88,0,230
1,note_on,80,0,0
1,note_on,83,42,10
1,note_on,80,36,0
1,note_on,80,0,118
1,note_on,83,0,0
1,note_on,78,35,2
1,note_on,81,39,0
1,note_on,81,0,118
1,note_on,78,0,0
1,note_on,76,40,2
1,note_on,80,45,0
1,note_on,80,0,230
1,note_on,76,0,0
1,note_on,76,34,10
1,note_on,80,37,0
1,note_on,80,0,118
1,note_on,76,0,0
1,note_on,71,30,2
1,note_on,78,34,0
1,note_on,78,0,118
1,note_on,71,0,0
1,note_on,68,36,2
1,note_on,76,42,0
1,note_on,76,0,230
1,note_on,68,0,0
1,note_on,68,36,10
1,note_on,76,42,0
1,note_on,76,0,118
1,note_on,68,0,0
1,note_on,71,34,2
1,note_on,78,37,0
1,note_on,78,0,118
1,note_on,71,0,0
1,note_on,76,40,2
1,note_on,80,45,0
1,note_on,80,0,230
1,note_on,76,0,0
1,note_on,78,39,10
1,note_on,81,44,0
1,note_on,81,0,118
1,note_on,78,0,0
1,note_on,76,35,2
1,note_on,80,39,0
1,note_on,80,0,118
1,note_on,76,0,0
1,note_on,71,36,2
1,note_on,78,41,0
1,note_on,78,0,230
1,note_on,71,0,0
1,note_on,76,40,10
1,note_on,80,45,0
1,note_on,80,0,118
1,note_on,76,0,0
1,note_on,71,34,2
1,note_on,78,37,0
1,note_on,78,0,118
1,note_on,71,0,0
1,note_on,68,35,2
1,note_on,76,39,0
1,note_on,76,0,480
1,note_on,68,0,0
1,note_on,56,60,240
1,note_on,64,66,0
1,note_on,64,0,58
1,note_on,56,0,0
1,note_on,64,55,62
1,note_on,68,63,0
1,note_on,68,0,58
1,note_on,64,0,0
1,note_on,59,65,62
1,note_on,66,73,0
1,note_on,66,0,220
1,note_on,59,0,0
1,note_on,64,60,20
1,note_on,68,66,0
1,note_on,68,0,58
1,note_on,64,0,0
1,note_on,66,57,62
1,note_on,69,64,0
1,note_on,69,0,58
1,note_on,66,0,0
1,note_on,68,63,62
1,note_on,71,72,0
1,note_on,71,0,220
1,note_on,68,0,0
1,note_on,69,62,20
1,note_on,73,69,0
1,note_on,73,0,58
1,note_on,69,0,0
1,note_on,68,57,62
1,note_on,71,64,0
1,note_on,71,0,58
1,note_on,68,0,0
1,note_on,66,66,62
1,note_on,69,74,0
1,note_on,69,0,220
1,note_on,66,0,0
1,note_on,64,61,20
1,note_on,68,67,0
1,note_on,68,0,58
1,note_on,64,0,0
1,note_on,66,56,62
1,note_on,69,63,0
1,note_on,69,0,58
1,note_on,66,0,0
1,note_on,59,66,62
1,note_on,66,74,0
1,note_on,66,0,220
1,note_on,59,0,0
1,note_on,56,60,20
1,note_on,64,66,0
1,note_on,64,0,58
1,note_on,56,0,0
1,note_on,64,56,62
1,note_on,68,63,0
1,note_on,68,0,58
1,note_on,64,0,0
1,note_on,59,65,62
1,note_on,66,73,0
1,note_on,66,0,220
1,note_on,59,0,0
1,note_on,64,60,20
1,note_on,68,66,0
1,note_on,68,0,58
1,note_on,64,0,0
1,note_on,66,56,62
1,note_on,69,63,0
1,note_on,69,0,58
1,note_on,66,0,0
1,note_on,68,63,62
1,note_on,71,72,0
1,note_on,71,0,220
1,note_on,68,0,0
1,note_on,69,63,20
1,note_on,73,72,0
1,note_on,73,0,58
1,note_on,69,0,0
1,note_on,68,62,62
1,note_on,71,69,0
1,note_on,71,0,58
1,note_on,68,0,0
1,note_on,66,66,62
1,note_on,69,74,0
1,note_on,69,0,220
1,note_on,66,0,0
1,note_on,64,60,20
1,note_on,68,66,0
1,note_on,68,0,58
1,note_on,64,0,0
1,note_on,66,55,62
1,note_on,69,63,0
1,note_on,69,0,58
1,note_on,66,0,0
1,note_on,59,57,62
1,note_on,66,64,0
1,note_on,66,0,180
1,note_on,59,0,0
1,note_on,92,37,60
1,note_on,95,43,0
1,note_on,95,0,118
1,note_on,92,0,0
1,note_on,90,35,2
1,note_on,93,39,0
1,note_on,93,0,118
1,note_on,90,0,0
1,note_on,88,42,2
1,note_on,92,46,0
1,note_on,92,0,230
1,note_on,88,0,0
1,note_on,88,34,10
1,note_on,92,37,0
1,note_on,92,0,118
1,note_on,88,0,0
1,note_on,83,31,2
1,note_on,90,35,0
1,note_on,90,0,118
1,note_on,83,0,0
1,note_on,80,36,2
1,note_on,88,41,0
1,note_on,88,0,230
1,note_on,80,0,0
1,note_on,83,42,10
1,note_on,80,36,0
1,note_on,80,0,118
1,note_on,83,0,0
1,note_on,78,34,2
1,note_on,81,37,0
1,note_on,81,0,118
1,note_on,78,0,0
1,note_on,76,40,2
1,note_on,80,45,0
1,note_on,80,0,230
1,note_on,76,0,0
1,note_on,76,34,10
1,note_on,80,37,0
1,note_on,80,0,118
1,note_on,76,0,0
1,note_on,71,36,2
1,note_on,78,36,0
1,note_on,78,0,118
1,note_on,71,0,0
1,note_on,68,36,2
1,note_on,76,42,0
1,note_on,76,0,230
1,note_on,68,0,0
1,note_on,56,36,10
1,note_on,64,42,0
1,note_on,64,0,58
1,note_on,56,0,0
1,note_on,59,34,62
1,note_on,66,37,0
1,note_on,66,0,58
1,note_on,59,0,0
1,note_on,64,40,62
1,note_on,68,45,0
1,note_on,68,0,230
1,note_on,64,0,0
1,note_on,66,36,10
1,note_on,69,42,0
1,note_on,69,0,58
1,note_on,66,0,0
1,note_on,64,32,62
1,note_on,68,36,0
1,note_on,68,0,58
1,note_on,64,0,0
1,note_on,59,33,62
1,note_on,66,36,0
1,note_on,66,0,230
1,note_on,59,0,0
1,note_on,64,36,10
1,note_on,68,41,0
1,note_on,68,0,58
1,note_on,64,0,0
1,note_on,59,31,62
1,note_on,66,35,0
1,note_on,66,0,58
1,note_on,59,0,0
1,note_on,56,32,62
1,note_on,64,36,0
1,note_on,64,0,480
1,note_on,56,0,0
1,note_on,64,71,240
1,note_on,76,79,0
1,note_on,76,0,118
1,note_on,64,0,0
1,note_on,69,79,122
1,note_on,81,87,0
1,note_on,81,0,720
1,note_on,69,0,0
1,note_on,64,72,0
1,note_on,76,81,0
1,note_on,76,0,120
1,note_on,64,0,0
1,note_on,60,79,120
1,note_on,72,87,0
1,note_on,72,0,240
1,note_on,60,0,0
1,note_on,57,74,0
1,note_on,69,83,0
1,note_on,69,0,240
1,note_on,57,0,0
1,note_on,57,43,240
1,note_on,59,43,34
1,note_on,57,0,2
1,note_on,60,43,32
1,note_on,59,0,2
1,note_on,62,43,32
1,note_on,60,0,2
1,note_on,64,45,32
1,note_on,62,0,2
1,note_on,65,45,32
1,note_on,64,0,2
1,note_on,67,45,32
1,note_on,65,0,2
1,note_on,67,0,34
1,note_on,69,45,0
1,note_on,71,45,34
1,note_on,69,0,2
1,note_on,72,45,32
1,note_on,71,0,2
1,note_on,74,45,32
1,note_on,72,0,2
1,note_on,76,47,32
1,note_on,74,0,2
1,note_on,77,48,32
1,note_on,76,0,2
1,note_on,79,48,32
1,note_on,77,0,2
1,note_on,79,0,34
1,note_on,81,47,0
1,note_on,83,47,34
1,note_on,81,0,2
1,note_on,84,47,32
1,note_on,83,0,2
1,note_on,86,48,32
1,note_on,84,0,2
1,note_on,88,48,32
1,note_on,86,0,2
1,note_on,89,47,32
1,note_on,88,0,2
1,note_on,91,48,32
1,note_on,89,0,2
1,note_on,91,0,34
1,note_on,93,54,0
1,note_on,93,0,118
1,note_on,96,54,122
1,note_on,86,34,0
1,note_on,89,34,0
1,note_on,89,0,58
1,note_on,86,0,0
1,note_on,96,0,0
1,note_on,86,34,62
1,note_on,89,34,0
1,note_on,95,46,0
1,note_on,95,0,58
1,note_on,89,0,0
1,note_on,86,0,0
1,note_on,93,47,62
1,note_on,84,39,0
1,note_on,93,0,40
1,note_on,95,44,0
1,note_on,95,0,40
1,note_on,93,47,0
1,note_on,93,0,40
1,note_on,95,44,0
1,note_on,95,0,40
1,note_on,93,47,0
1,note_on,93,0,40
1,note_on,95,47,0
1,note_on,95,0,40
1,note_on,93,44,10
1,note_on,93,0,50
1,note_on,92,45,0
1,note_on,92,0,60
1,note_on,95,51,0
1,note_on,95,0,60
1,note_on,93,47,0
1,note_on,93,0,60
1,note_on,84,0,0
1,note_on,92,43,0
1,note_on,83,35,0
1,note_on,83,0,210
1,note_on,92,0,0
1,note_on,62,71,30
1,note_on,74,79,0
1,note_on,74,0,118
1,note_on,62,0,0
1,note_on,65,79,122
1,note_on,77,87,0
1,note_on,77,0,720
1,note_on,65,0,0
1,note_on,62,72,0
1,note_on,74,81,0
1,note_on,74,0,120
1,note_on,62,0,0
1,note_on,59,79,120
1,note_on,71,87,0
1,note_on,71,0,230
1,note_on,59,0,0
1,note_on,56,74,10
1,note_on,68,83,0
1,note_on,68,0,240
1,note_on,56,0,0
1,note_on,59,43,240
1,note_on,60,43,34
1,note_on,59,0,2
1,note_on,62,43,32
1,note_on,60,0,2
1,note_on,64,43,32
1,note_on,62,0,2
1,note_on,65,44,32
1,note_on,64,0,2
1,note_on,67,45,32
1,note_on,65,0,2
1,note_on,69,45,32
1,note_on,67,0,2
1,note_on,69,0,34
1,note_on,71,45,0
1,note_on,72,45,34
1,note_on,71,0,2
1,note_on,74,45,32
1,note_on,72,0,2
1,note_on,76,45,32
1,note_on,74,0,2
1,note_on,77,47,32
1,note_on,76,0,2
1,note_on,79,47,32
1,note_on,77,0,2
1,note_on,81,48,32
1,note_on,79,0,2
1,note_on,81,0,34
1,note_on,83,47,0
1,note_on,84,47,34
1,note_on,83,0,2
1,note_on,86,47,32
1,note_on,84,0,2
1,note_on,88,47,32
1,note_on,86,0,2
1,note_on,89,48,32
1,note_on,88,0,2
1,note_on,91,47,32
1,note_on,89,0,2
1,note_on,93,47,32
1,note_on,91,0,2
1,note_on,93,0,34
1,note_on,95,53,0
1,note_on,95,0,118
1,note_on,98,49,122
1,note_on,89,34,0
1,note_on,89,0,58
1,note_on,98,0,0
1,note_on,88,34,62
1,note_on,96,45,0
1,note_on,96,0,58
1,note_on,88,0,0
1,note_on,95,47,62
1,note_on,86,39,0
1,note_on,95,0,40
1,note_on,96,44,0
1,note_on,96,0,40
1,note_on,95,47,0
1,note_on,95,0,40
1,note_on,96,44,0
1,note_on,96,0,40
1,note_on,95,47,0
1,note_on,95,0,40
1,note_on,96,47,0
1,note_on,96,0,40
1,note_on,95,44,10
1,note_on,95,0,50
1,note_on,93,45,0
1,note_on,93,0,60
1,note_on,96,51,0
1,note_on,96,0,60
1,note_on,95,47,0
1,note_on,95,0,60
1,note_on,86,0,0
1,note_on,93,43,0
1,note_on,84,35,0
1,note_on,84,0,200
1,note_on,93,0,0
1,note_on,100,56,40
1,note_on,88,51,0
1,note_on,88,0,58
1,note_on,100,0,0
1,note_on,105,63,182
1,note_on,93,55,0
1,note_on,93,0,58
1,note_on,105,0,0
1,note_on,64,45,182
1,note_on,64,0,58
1,note_on,62,43,2
1,note_on,62,0,58
1,note_on,61,45,2
1,note_on,61,0,58
1,note_on,59,44,2
1,note_on,59,0,58
1,note_on,57,50,2
1,note_on,57,0,180
1,note_on,93,44,60
1,note_on,93,0,58
1,note_on,91,41,2
1,note_on,91,0,58
1,note_on,89,44,2
1,note_on,89,0,58
1,note_on,88,40,2
1,note_on,88,0,58
1,note_on,89,47,2
1,note_on,89,0,180
1,note_on,69,45,60
1,note_on,69,0,58
1,note_on,67,42,2
1,note_on,67,0,58
1,note_on,65,45,2
1,note_on,65,0,58
1,note_on,64,43,2
1,note_on,64,0,58
1,note_on,62,49,2
1,note_on,62,0,180
1,note_on,101,56,60
1,note_on,93,56,0
1,note_on,93,0,58
1,note_on,101,0,0
1,note_on,98,63,182
1,note_on,89,63,0
1,note_on,89,0,58
1,note_on,98,0,0
1,note_on,62,45,182
1,note_on,62,0,58
1,note_on,60,43,2
1,note_on,60,0,58
1,note_on,59,45,2
1,note_on,59,0,58
1,note_on,57,44,2
1,note_on,57,0,58
1,note_on,55,49,2
1,note_on,55,0,180
1,note_on,91,42,60
1,note_on,91,0,58
1,note_on,89,39,2
1,note_on,89,0,58
1,note_on,88,42,2
1,note_on,88,0,58
1,note_on,86,39,2
1,note_on,86,0,58
1,note_on,88,45,2
1,note_on,88,0,180
1,note_on,67,45,60
1,note_on,67,0,58
1,note_on,65,43,2
1,note_on,65,0,58
1,note_on,64,45,2
1,note_on,64,0,58
1,note_on,62,43,2
1,note_on,62,0,58
1,note_on,60,49,2
1,note_on,60,0,180
1,note_on,100,60,60
1,note_on,91,60,0
1,note_on,91,0,58
1,note_on,100,0,0
1,note_on,98,64,182
1,note_on,89,64,0
1,note_on,89,0,58
1,note_on,98,0,0
1,note_on,74,46,182
1,note_on,74,0,58
1,note_on,72,43,2
1,note_on,72,0,58
1,note_on,71,46,2
1,note_on,71,0,58
1,note_on,69,43,2
1,note_on,69,0,58
1,note_on,68,52,2
1,note_on,68,0,180
1,note_on,98,60,60
1,note_on,89,60,0
1,note_on,89,0,58
1,note_on,98,0,0
1,note_on,96,64,182
1,note_on,88,64,0
1,note_on,88,0,58
1,note_on,96,0,0
1,note_on,76,46,182
1,note_on,76,0,58
1,note_on,74,43,2
1,note_on,74,0,58
1,note_on,72,46,2
1,note_on,72,0,58
1,note_on,71,44,2
1,note_on,71,0,58
1,note_on,69,52,2
1,note_on,69,0,180
1,note_on,72,46,60
1,note_on,72,0,58
1,note_on,71,44,2
1,note_on,71,0,58
1,note_on,69,46,2
1,note_on,69,0,58
1,note_on,67,45,2
1,note_on,67,0,58
1,note_on,65,52,2
1,note_on,65,0,180
1,note_on,69,46,60
1,note_on,69,0,58
1,note_on,67,45,2
1,note_on,67,0,58
1,note_on,65,46,2
1,note_on,65,0,58
1,note_on,64,44,2
1,note_on,64,0,58
1,note_on,63,52,2
1,note_on,63,0,180
1,note_on,96,47,60
1,note_on,96,0,58
1,note_on,93,45,2
1,note_on,93,0,58
1,note_on,89,47,2
1,note_on,89,0,58
1,note_on,87,45,2
1,note_on,87,0,58
1,note_on,88,53,2
1,note_on,88,0,180
1,note_on,76,43,60
1,note_on,76,0,58
1,note_on,71,40,2
1,note_on,71,0,58
1,note_on,68,44,2
1,note_on,68,0,58
1,note_on,71,42,2
1,note_on,71,0,58
1,note_on,64,47,2
1,note_on,64,0,180
1,note_on,67,71,60
1,note_on,79,79,0
1,note_on,79,0,118
1,note_on,67,0,0
1,note_on,72,79,122
1,note_on,84,87,0
1,note_on,84,0,720
1,note_on,72,0,0
1,note_on,67,72,0
1,note_on,79,81,0
1,note_on,79,0,120
1,note_on,67,0,0
1,note_on,64,79,120
1,note_on,76,87,0
1,note_on,76,0,240
1,note_on,64,0,0
1,note_on,60,75,0
1,note_on,72,84,0
1,note_on,72,0,240
1,note_on,60,0,0
1,note_on,60,43,240
1,note_on,62,43,34
1,note_on,60,0,2
1,note_on,64,43,32
1,note_on,62,0,2
1,note_on,65,43,32
1,note_on,64,0,2
1,note_on,67,44,32
1,note_on,65,0,2
1,note_on,69,45,32
1,note_on,67,0,2
1,note_on,71,45,32
1,note_on,69,0,2
1,note_on,71,0,34
1,note_on,72,45,0
1,note_on,74,45,34
1,note_on,72,0,2
1,note_on,76,45,32
1,note_on,74,0,2
1,note_on,77,45,32
1,note_on,76,0,2
1,note_on,79,47,32
1,note_on,77,0,2
1,note_on,81,47,32
1,note_on,79,0,2
1,note_on,83,48,32
1,note_on,81,0,2
1,note_on,83,0,34
1,note_on,84,47,0
1,note_on,86,47,34
1,note_on,84,0,2
1,note_on,88,47,32
1,note_on,86,0,2
1,note_on,89,48,32
1,note_on,88,0,2
1,note_on,91,48,32
1,note_on,89,0,2
1,note_on,93,47,32
1,note_on,91,0,2
1,note_on,95,48,32
1,note_on,93,0,2
1,note_on,95,0,34
1,note_on,96,53,0
1,note_on,96,0,118
1,note_on,100,54,122
1,note_on,89,34,0
1,note_on,93,34,0
1,note_on,93,0,58
1,note_on,89,0,0
1,note_on,100,0,0
1,note_on,89,34,62
1,note_on,93,34,0
1,note_on,98,45,0
1,note_on,98,0,58
1,note_on,93,0,0
1,note_on,89,0,0
1,note_on,96,47,62
1,note_on,88,39,0
1,note_on,96,0,40
1,note_on,98,44,0
1,note_on,98,0,40
1,note_on,96,47,0
1,note_on,96,0,40
1,note_on,98,44,0
1,note_on,98,0,40
1,note_on,96,47,0
1,note_on,96,0,40
1,note_on,98,47,0
1,note_on,98,0,40
1,note_on,96,44,10
1,note_on,96,0,50
1,note_on,95,45,0
1,note_on,95,0,58
1,note_on,98,51,2
1,note_on,98,0,58
1,note_on,96,47,2
1,note_on,96,0,58
1,note_on,88,0,2
1,note_on,95,43,0
1,note_on,86,39,0
1,note_on,86,0,210
1,note_on,95,0,0
1,note_on,62,63,30
1,note_on,74,71,0
1,note_on,74,0,118
1,note_on,62,0,0
1,note_on,65,71,122
1,note_on,77,79,0
1,note_on,77,0,720
1,note_on,65,0,0
1,note_on,62,64,0
1,note_on,74,72,0
1,note_on,74,0,180
1,note_on,62,0,0
1,note_on,59,71,60
1,note_on,71,79,0
1,note_on,71,0,240
1,note_on,59,0,0
1,note_on,55,67,0
1,note_on,67,67,0
1,note_on,67,0,240
1,note_on,55,0,0
1,note_on,59,43,240
1,note_on,60,43,34
1,note_on,59,0,2
1,note_on,62,43,32
1,note_on,60,0,2
1,note_on,64,43,32
1,note_on,62,0,2
1,note_on,65,44,32
1,note_on,64,0,2
1,note_on,67,45,32
1,note_on,65,0,2
1,note_on,69,45,32
1,note_on,67,0,2
1,note_on,69,0,34
1,note_on,71,45,0
1,note_on,72,45,34
1,note_on,71,0,2
1,note_on,74,45,32
1,note_on,72,0,2
1,note_on,76,45,32
1,note_on,74,0,2
1,note_on,77,47,32
1,note_on,76,0,2
1,note_on,79,47,32
1,note_on,77,0,2
1,note_on,81,48,32
1,note_on,79,0,2
1,note_on,81,0,34
1,note_on,83,47,0
1,note_on,84,47,34
1,note_on,83,0,2
1,note_on,86,47,32
1,note_on,84,0,2
1,note_on,88,47,32
1,note_on,86,0,2
1,note_on,89,48,32
1,note_on,88,0,2
1,note_on,91,47,32
1,note_on,89,0,2
1,note_on,93,47,32
1,note_on,91,0,2
1,note_on,93,0,34
1,note_on,95,53,0
1,note_on,95,0,118
1,note_on,101,51,122
1,note_on,93,34,0
1,note_on,93,0,58
1,note_on,101,0,0
1,note_on,91,34,62
1,note_on,100,45,0
1,note_on,100,0,58
1,note_on,91,0,0
1,note_on,98,47,62
1,note_on,89,39,0
1,note_on,98,0,40
1,note_on,100,44,0
1,note_on,100,0,40
1,note_on,98,47,0
1,note_on,98,0,40
1,note_on,100,44,0
1,note_on,100,0,40
1,note_on,98,47,0
1,note_on,98,0,40
1,note_on,100,47,0
1,note_on,100,0,40
1,note_on,98,44,10
1,note_on,98,0,50
1,note_on,97,45,0
1,note_on,97,0,58
1,note_on,100,51,2
1,note_on,100,0,58
1,note_on,98,47,2
1,note_on,98,0,58
1,note_on,89,0,2
1,note_on,96,43,0
1,note_on,88,35,0
1,note_on,88,0,200
1,note_on,96,0,0
1,note_on,91,65,40
1,note_on,91,0,58
1,note_on,96,73,182
1,note_on,96,0,58
1,note_on,67,45,182
1,note_on,67,0,58
1,note_on,65,43,2
1,note_on,65,0,58
1,note_on,64,45,2
1,note_on,64,0,58
1,note_on,62,43,2
1,note_on,62,0,58
1,note_on,60,50,2
1,note_on,60,0,180
1,note_on,84,43,60
1,note_on,84,0,58
1,note_on,88,39,2
1,note_on,88,0,58
1,note_on,91,43,2
1,note_on,91,0,58
1,note_on,88,39,2
1,note_on,88,0,58
1,note_on,89,45,2
1,note_on,89,0,180
1,note_on,72,45,60
1,note_on,72,0,58
1,note_on,70,42,2
1,note_on,70,0,58
1,note_on,69,45,2
1,note_on,69,0,58
1,note_on,67,43,2
1,note_on,67,0,58
1,note_on,65,49,2
1,note_on,65,0,180
1,note_on,101,56,60
1,note_on,93,51,0
1,note_on,93,0,58
1,note_on,101,0,0
1,note_on,98,63,182
1,note_on,90,55,0
1,note_on,90,0,58
1,note_on,98,0,0
1,note_on,69,45,182
1,note_on,69,0,58
1,note_on,67,42,2
1,note_on,67,0,58
1,note_on,66,45,2
1,note_on,66,0,58
1,note_on,64,43,2
1,note_on,64,0,58
1,note_on,62,49,2
1,note_on,62,0,180
1,note_on,86,49,60
1,note_on,86,0,58
1,note_on,90,51,2
1,note_on,90,0,58
1,note_on,93,53,2
1,note_on,93,0,58
1,note_on,90,50,2
1,note_on,90,0,58
1,note_on,91,52,2
1,note_on,91,0,180
1,note_on,74,47,60
1,note_on,74,0,58
1,note_on,72,44,2
1,note_on,72,0,58
1,note_on,71,47,2
1,note_on,71,0,58
1,note_on,69,44,2
1,note_on,69,0,58
1,note_on,67,52,2
1,note_on,67,0,180
1,note_on,103,64,60
1,note_on,95,57,0
1,note_on,95,0,58
1,note_on,103,0,0
1,note_on,100,72,182
1,note_on,92,63,0
1,note_on,92,0,58
1,note_on,100,0,0
1,note_on,71,50,182
1,note_on,71,0,58
1,note_on,69,47,2
1,note_on,69,0,58
1,note_on,68,50,2
1,note_on,68,0,58
1,note_on,66,46,2
1,note_on,66,0,58
1,note_on,64,54,2
1,note_on,64,0,180
1,note_on,88,54,60
1,note_on,88,0,58
1,note_on,92,54,2
1,note_on,92,0,58
1,note_on,95,56,2
1,note_on,95,0,58
1,note_on,92,53,2
1,note_on,92,0,58
1,note_on,93,56,2
1,note_on,93,0,180
1,note_on,76,52,60
1,note_on,76,0,58
1,note_on,74,49,2
1,note_on,74,0,58
1,note_on,72,51,2
1,note_on,72,0,58
1,note_on,71,47,2
1,note_on,71,0,58
1,note_on,69,54,2
1,note_on,69,0,180
1,note_on,76,51,60
1,note_on,76,0,58
1,note_on,72,47,2
1,note_on,72,0,58
1,note_on,69,51,2
1,note_on,69,0,58
1,note_on,67,47,2
1,note_on,67,0,58
1,note_on,65,54,2
1,note_on,65,0,180
1,note_on,89,50,60
1,note_on,89,0,58
1,note_on,93,47,2
1,note_on,93,0,58
1,note_on,96,50,2
1,note_on,96,0,58
1,note_on,93,46,2
1,note_on,93,0,58
1,note_on,89,54,2
1,note_on,89,0,180
1,note_on,77,47,60
1,note_on,77,0,58
1,note_on,72,43,2
1,note_on,72,0,58
1,note_on,69,47,2
1,note_on,69,0,58
1,note_on,65,45,2
1,note_on,65,0,58
1,note_on,64,54,2
1,note_on,64,0,180
1,note_on,88,45,60
1,note_on,88,0,58
1,note_on,93,41,2
1,note_on,93,0,58
1,note_on,96,45,2
1,note_on,96,0,58
1,note_on,93,42,2
1,note_on,93,0,58
1,note_on,88,49,2
1,note_on,88,0,180
1,note_on,76,45,60
1,note_on,76,0,58
1,note_on,72,42,2
1,note_on,72,0,58
1,note_on,69,45,2
1,note_on,69,0,58
1,note_on,64,42,2
1,note_on,64,0,58
1,note_on,63,47,2
1,note_on,63,0,180
1,note_on,87,44,60
1,note_on,87,0,58
1,note_on,93,41,2
1,note_on,93,0,58
1,note_on,96,44,2
1,note_on,96,0,58
1,note_on,93,40,2
1,note_on,93,0,58
1,note_on,87,45,2
1,note_on,87,0,180
1,note_on,75,45,60
1,note_on,75,0,58
1,note_on,72,41,2
1,note_on,72,0,58
1,note_on,69,45,2
1,note_on,69,0,58
1,note_on,66,42,2
1,note_on,66,0,58
1,note_on,64,50,2
1,note_on,64,0,180
1,note_on,88,44,60
1,note_on,88,0,58
1,note_on,91,40,2
1,note_on,91,0,58
1,note_on,95,44,2
1,note_on,95,0,58
1,note_on,91,40,2
1,note_on,91,0,58
1,note_on,88,46,2
1,note_on,88,0,180
1,note_on,71,46,60
1,note_on,71,0,58
1,note_on,67,43,2
1,note_on,67,0,58
1,note_on,64,46,2
1,note_on,64,0,58
1,note_on,62,43,2
1,note_on,62,0,58
1,note_on,60,51,2
1,note_on,60,0,180
1,note_on,84,43,60
1,note_on,88,49,0
1,note_on,88,0,58
1,note_on,91,45,2
1,note_on,91,0,58
1,note_on,96,49,2
1,note_on,96,0,58
1,note_on,91,45,2
1,note_on,91,0,58
1,note_on,84,0,2
1,note_on,84,43,0
1,note_on,88,52,0
1,note_on,88,0,118
1,note_on,84,0,0
1,note_on,72,49,122
1,note_on,72,0,58
1,note_on,67,45,2
1,note_on,67,0,58
1,note_on,64,49,2
1,note_on,64,0,58
1,note_on,60,45,2
1,note_on,60,0,58
1,note_on,59,53,2
1,note_on,59,0,180
1,note_on,83,43,60
1,note_on,88,49,0
1,note_on,88,0,58
1,note_on,91,45,2
1,note_on,91,0,58
1,note_on,95,49,2
1,note_on,95,0,58
1,note_on,91,45,2
1,note_on,91,0,58
1,note_on,83,0,2
1,note_on,83,43,0
1,note_on,88,51,0
1,note_on,88,0,118
1,note_on,83,0,0
1,note_on,71,50,122
1,note_on,71,0,58
1,note_on,67,45,2
1,note_on,67,0,58
1,note_on,64,50,2
1,note_on,64,0,58
1,note_on,59,46,2
1,note_on,59,0,58
1,note_on,58,54,2
1,note_on,58,0,180
1,note_on,82,53,60
1,note_on,88,53,0
1,note_on,88,0,58
1,note_on,91,49,2
1,note_on,91,0,58
1,note_on,94,53,2
1,note_on,94,0,58
1,note_on,91,49,2
1,note_on,91,0,58
1,note_on,82,0,2
1,note_on,82,56,0
1,note_on,88,56,0
1,note_on,88,0,118
1,note_on,82,0,0
1,note_on,70,51,122
1,note_on,70,0,58
1,note_on,67,47,2
1,note_on,67,0,58
1,note_on,64,51,2
1,note_on,64,0,58
1,note_on,61,47,2
1,note_on,61,0,58
1,note_on,59,54,2
1,note_on,59,0,180
1,note_on,87,50,60
1,note_on,87,0,58
1,note_on,95,46,2
1,note_on,95,0,58
1,note_on,90,50,2
1,note_on,90,0,58
1,note_on,87,45,2
1,note_on,87,0,58
1,note_on,83,53,2
1,note_on,83,0,55
1,note_on,81,50,185
1,note_on,81,0,58
1,note_on,83,46,2
1,note_on,83,0,58
1,note_on,81,50,2
1,note_on,81,0,58
1,note_on,78,47,2
1,note_on,78,0,58
1,note_on,76,53,2
1,note_on,76,0,55
1,note_on,76,53,185
1,note_on,76,0,58
1,note_on,79,47,2
1,note_on,79,0,58
1,note_on,76,50,2
1,note_on,76,0,58
1,note_on,74,47,2
1,note_on,74,0,58
1,note_on,72,54,2
1,note_on,72,0,55
1,note_on,72,54,185
1,note_on,72,0,58
1,note_on,76,49,2
1,note_on,76,0,58
1,note_on,72,52,2
1,note_on,72,0,58
1,note_on,70,50,2
1,note_on,70,0,58
1,note_on,71,54,2
1,note_on,71,0,55
1,note_on,75,54,185
1,note_on,75,0,58
1,note_on,83,50,2
1,note_on,83,0,58
1,note_on,78,53,2
1,note_on,78,0,58
1,note_on,75,50,2
1,note_on,75,0,58
1,note_on,71,55,2
1,note_on,71,0,55
1,note_on,69,57,185
1,note_on,69,0,58
1,note_on,71,52,2
1,note_on,71,0,58
1,note_on,69,55,2
1,note_on,69,0,58
1,note_on,66,54,2
1,note_on,66,0,58
1,note_on,64,63,2
1,note_on,64,0,55
1,note_on,64,63,185
1,note_on,64,0,58
1,note_on,67,55,2
1,note_on,67,0,58
1,note_on,64,60,2
1,note_on,64,0,58
1,note_on,62,54,2
1,note_on,62,0,58
1,note_on,60,64,2
1,note_on,60,0,55
1,note_on,60,63,185
1,note_on,60,0,58
1,note_on,64,55,2
1,note_on,64,0,58
1,note_on,60,60,2
1,note_on,60,0,58
1,note_on,58,55,2
1,note_on,58,0,58
1,note_on,59,65,2
1,note_on,63,55,300
1,note_on,59,0,10
1,note_on,66,56,50
1,note_on,63,0,10
1,note_on,70,57,50
1,note_on,66,0,10
1,note_on,70,0,50
1,note_on,71,59,0
1,note_on,75,60,60
1,note_on,71,0,10
1,note_on,78,61,50
1,note_on,75,0,10
1,note_on,82,62,50
1,note_on,78,0,10
1,note_on,82,0,50
1,note_on,83,63,0
1,note_on,87,63,60
1,note_on,83,0,10
1,note_on,90,65,50
1,note_on,87,0,10
1,note_on,94,67,50
1,note_on,90,0,10
1,note_on,94,0,50
1,note_on,95,69,0
1,note_on,95,0,180
1,note_on,92,37,540
1,note_on,95,43,0
1,note_on,95,0,118
1,note_on,92,0,0
1,note_on,90,34,2
1,note_on,93,37,0
1,note_on,93,0,118
1,note_on,90,0,0
1,note_on,88,42,2
1,note_on,92,46,0
1,note_on,92,0,220
1,note_on,88,0,0
1,note_on,88,34,20
1,note_on,92,37,0
1,note_on,92,0,118
1,note_on,88,0,0
1,note_on,83,31,2
1,note_on,90,35,0
1,note_on,90,0,118
1,note_on,83,0,0
1,note_on,80,36,2
1,note_on,88,41,0
1,note_on,88,0,220
1,note_on,80,0,0
1,note_on,83,42,20
1,note_on,80,36,0
1,note_on,80,0,118
1,note_on,83,0,0
1,note_on,78,33,2
1,note_on,81,36,0
1,note_on,81,0,118
1,note_on,78,0,0
1,note_on,76,40,2
1,note_on,80,45,0
1,note_on,80,0,220
1,note_on,76,0,0
1,note_on,76,34,20
1,note_on,80,37,0
1,note_on,80,0,118
1,note_on,76,0,0
1,note_on,71,31,2
1,note_on,78,35,0
1,note_on,78,0,118
1,note_on,71,0,0
1,note_on,68,36,2
1,note_on,76,42,0
1,note_on,76,0,220
1,note_on,68,0,0
1,note_on,68,36,20
1,note_on,76,42,0
1,note_on,76,0,118
1,note_on,68,0,0
1,note_on,71,33,2
1,note_on,78,36,0
1,note_on,78,0,118
1,note_on,71,0,0
1,note_on,76,40,2
1,note_on,80,45,0
1,note_on,80,0,220
1,note_on,76,0,0
1,note_on,71,37,20
1,note_on,78,43,0
1,note_on,78,0,118
1,note_on,71,0,0
1,note_on,76,35,2
1,note_on,80,39,0
1,note_on,80,0,118
1,note_on,76,0,0
1,note_on,78,43,2
1,note_on,81,47,0
1,note_on,81,0,220
1,note_on,78,0,0
1,note_on,71,40,20
1,note_on,78,45,0
1,note_on,78,0,118
1,note_on,71,0,0
1,note_on,78,36,2
1,note_on,81,41,0
1,note_on,81,0,118
1,note_on,78,0,0
1,note_on,80,44,2
1,note_on,83,50,0
1,note_on,83,0,220
1,note_on,80,0,0
1,note_on,78,35,20
1,note_on,81,39,0
1,note_on,81,0,118
1,note_on,78,0,0
1,note_on,76,31,2
1,note_on,80,35,0
1,note_on,80,0,118
1,note_on,76,0,0
1,note_on,71,39,2
1,note_on,78,44,0
1,note_on,78,0,220
1,note_on,71,0,0
1,note_on,92,37,20
1,note_on,95,43,0
1,note_on,95,0,118
1,note_on,92,0,0
1,note_on,90,35,2
1,note_on,93,39,0
1,note_on,93,0,118
1,note_on,90,0,0
1,note_on,88,42,2
1,note_on,92,46,0
1,note_on,92,0,220
1,note_on,88,0,0
1,note_on,88,34,20
1,note_on,92,37,0
1,note_on,92,0,118
1,note_on,88,0,0
1,note_on,83,30,2
1,note_on,90,34,0
1,note_on,90,0,118
1,note_on,83,0,0
1,note_on,80,36,2
1,note_on,88,41,0
1,note_on,88,0,220
1,note_on,80,0,0
1,note_on,83,42,20
1,note_on,80,36,0
1,note_on,80,0,118
1,note_on,83,0,0
1,note_on,78,34,2
1,note_on,81,37,0
1,note_on,81,0,118
1,note_on,78,0,0
1,note_on,76,40,2
1,note_on,80,45,0
1,note_on,80,0,220
1,note_on,76,0,0
1,note_on,76,34,20
1,note_on,80,37,0
1,note_on,80,0,118
1,note_on,76,0,0
1,note_on,71,34,2
1,note_on,78,37,0
1,note_on,78,0,118
1,note_on,71,0,0
1,note_on,68,36,2
1,note_on,76,42,0
1,note_on,76,0,220
1,note_on,68,0,0
1,note_on,68,36,20
1,note_on,76,42,0
1,note_on,76,0,118
1,note_on,68,0,0
1,note_on,71,34,2
1,note_on,78,37,0
1,note_on,78,0,118
1,note_on,71,0,0
1,note_on,76,40,2
1,note_on,80,45,0
1,note_on,80,0,220
1,note_on,76,0,0
1,note_on,78,39,20
1,note_on,81,44,0
1,note_on,81,0,118
1,note_on,78,0,0
1,note_on,76,35,2
1,note_on,80,40,0
1,note_on,80,0,118
1,note_on,76,0,0
1,note_on,71,36,2
1,note_on,78,41,0
1,note_on,78,0,220
1,note_on,71,0,0
1,note_on,76,40,20
1,note_on,80,45,0
1,note_on,80,0,118
1,note_on,76,0,0
1,note_on,71,33,2
1,note_on,78,36,0
1,note_on,78,0,118
1,note_on,71,0,0
1,note_on,68,35,2
1,note_on,76,39,0
1,note_on,76,0,480
1,note_on,68,0,0
1,note_on,56,53,240
1,note_on,64,60,0
1,note_on,64,0,58
1,note_on,56,0,0
1,note_on,64,51,62
1,note_on,68,56,0
1,note_on,68,0,58
1,note_on,64,0,0
1,note_on,59,59,62
1,note_on,66,65,0
1,note_on,66,0,220
1,note_on,59,0,0
1,note_on,64,53,20
1,note_on,68,60,0
1,note_on,68,0,58
1,note_on,64,0,0
1,note_on,66,50,62
1,note_on,69,55,0
1,note_on,69,0,58
1,note_on,66,0,0
1,note_on,68,56,62
1,note_on,71,63,0
1,note_on,71,0,220
1,note_on,68,0,0
1,note_on,69,54,20
1,note_on,73,62,0
1,note_on,73,0,58
1,note_on,69,0,0
1,note_on,68,52,62
1,note_on,71,57,0
1,note_on,71,0,58
1,note_on,68,0,0
1,note_on,66,60,62
1,note_on,69,66,0
1,note_on,69,0,220
1,note_on,66,0,0
1,note_on,64,54,20
1,note_on,68,61,0
1,note_on,68,0,58
1,note_on,64,0,0
1,note_on,66,54,62
1,note_on,69,61,0
1,note_on,69,0,58
1,note_on,66,0,0
1,note_on,59,60,62
1,note_on,66,66,0
1,note_on,66,0,220
1,note_on,59,0,0
1,note_on,56,53,20
1,note_on,64,60,0
1,note_on,64,0,58
1,note_on,56,0,0
1,note_on,64,50,62
1,note_on,68,55,0
1,note_on,68,0,58
1,note_on,64,0,0
1,note_on,59,59,62
1,note_on,66,65,0
1,note_on,66,0,220
1,note_on,59,0,0
1,note_on,64,53,20
1,note_on,68,60,0
1,note_on,68,0,58
1,note_on,64,0,0
1,note_on,66,49,62
1,note_on,69,54,0
1,note_on,69,0,58
1,note_on,66,0,0
1,note_on,68,56,62
1,note_on,71,63,0
1,note_on,71,0,220
1,note_on,68,0,0
1,note_on,69,56,20
1,note_on,73,63,0
1,note_on,73,0,58
1,note_on,69,0,0
1,note_on,68,53,62
1,note_on,71,60,0
1,note_on,71,0,58
1,note_on,68,0,0
1,note_on,66,60,62
1,note_on,69,66,0
1,note_on,69,0,220
1,note_on,66,0,0
1,note_on,64,53,20
1,note_on,68,60,0
1,note_on,68,0,58
1,note_on,64,0,0
1,note_on,66,50,62
1,note_on,69,55,0
1,note_on,69,0,58
1,note_on,66,0,0
1,note_on,59,52,62
1,note_on,66,57,0
1,note_on,66,0,180
1,note_on,59,0,0
1,note_on,92,37,60
1,note_on,95,43,0
1,note_on,95,0,118
1,note_on,92,0,0
1,note_on,90,35,2
1,note_on,93,40,0
1,note_on,93,0,118
1,note_on,90,0,0
1,note_on,88,42,2
1,note_on,92,46,0
1,note_on,92,0,220
1,note_on,88,0,0
1,note_on,88,34,20
1,note_on,92,37,0
1,note_on,92,0,118
1,note_on,88,0,0
1,note_on,83,31,2
1,note_on,90,35,0
1,note_on,90,0,118
1,note_on,83,0,0
1,note_on,80,36,2
1,note_on,88,41,0
1,note_on,88,0,220
1,note_on,80,0,0
1,note_on,83,42,20
1,note_on,80,36,0
1,note_on,80,0,118
1,note_on,83,0,0
1,note_on,78,35,2
1,note_on,81,39,0
1,note_on,81,0,118
1,note_on,78,0,0
1,note_on,76,40,2
1,note_on,80,45,0
1,note_on,80,0,220
1,note_on,76,0,0
1,note_on,76,34,20
1,note_on,80,37,0
1,note_on,80,0,118
1,note_on,76,0,0
1,note_on,71,31,2
1,note_on,78,35,0
1,note_on,78,0,118
1,note_on,71,0,0
1,note_on,68,36,2
1,note_on,76,42,0
1,note_on,76,0,220
1,note_on,68,0,0
1,note_on,56,36,20
1,note_on,64,42,0
1,note_on,64,0,118
1,note_on,56,0,0
1,note_on,59,35,2
1,note_on,66,39,0
1,note_on,66,0,118
1,note_on,59,0,0
1,note_on,64,40,2
1,note_on,68,45,0
1,note_on,68,0,230
1,note_on,64,0,0
1,note_on,66,39,10
1,note_on,69,44,0
1,note_on,69,0,118
1,note_on,66,0,0
1,note_on,64,35,2
1,note_on,68,40,0
1,note_on,68,0,118
1,note_on,64,0,0
1,note_on,59,36,2
1,note_on,66,41,0
1,note_on,66,0,230
1,note_on,59,0,0
1,note_on,64,40,10
1,note_on,68,45,0
1,note_on,68,0,118
1,note_on,64,0,0
1,note_on,59,33,2
1,note_on,66,36,0
1,note_on,66,0,118
1,note_on,59,0,0
1,note_on,56,35,2
1,note_on,64,39,0
1,note_on,64,0,480
1,note_on,56,0,0
1,note_on,59,34,0
1,note_on,66,37,0
1,note_on,66,0,230
1,note_on,59,0,0
1,note_on,64,36,10
1,note_on,68,42,0
1,note_on,68,0,118
1,note_on,64,0,0
1,note_on,59,32,2
1,note_on,66,36,0
1,note_on,66,0,118
1,note_on,59,0,0
1,note_on,56,33,2
1,note_on,64,36,0
1,note_on,64,0,480
1,note_on,56,0,0
1,note_on,59,29,0
1,note_on,66,33,0
1,note_on,66,0,230
1,note_on,59,0,0
1,note_on,64,30,10
1,note_on,68,34,0
1,note_on,68,0,118
1,note_on,64,0,0
1,note_on,59,26,2
1,note_on,66,30,0
1,note_on,66,0,118
1,note_on,59,0,0
1,note_on,56,27,2
1,note_on,64,31,0
1,note_on,64,0,240
1,note_on,56,0,0
1,note_on,64,71,120
1,note_on,68,71,0
1,note_on,76,79,0
1,note_on,76,0,118
1,note_on,68,0,0
1,note_on,64,0,0
1,note_on,64,74,2
1,note_on,68,74,0
1,note_on,76,83,0
1,note_on,76,0,240
1,note_on,68,0,0
1,note_on,64,0,0
2,note_on,52,37,226
2,note_on,59,37,0
2,note_on,59,0,47
2,note_on,64,35,2
2,note_on,64,0,118
2,note_on,71,32,2
2,note_on,71,0,103
2,note_on,52,0,10
2,note_on,71,37,0
2,note_on,64,37,0
2,note_on,64,0,68
2,note_on,59,36,2
2,note_on,59,0,118
2,note_on,52,35,2
2,note_on,52,0,166
2,note_on,71,0,10
2,note_on,52,32,0
2,note_on,59,36,0
2,note_on,59,0,47
2,note_on,64,35,2
2,note_on,64,0,118
2,note_on,71,35,2
2,note_on,71,0,95
2,note_on,52,0,10
2,note_on,64,36,0
2,note_on,71,36,0
2,note_on,64,0,82
2,note_on,59,35,2
2,note_on,59,0,118
2,note_on,52,35,2
2,note_on,52,0,219
2,note_on,71,0,10
2,note_on,59,36,0
2,note_on,52,36,0
2,note_on,52,0,118
2,note_on,64,33,2
2,note_on,59,0,110
2,note_on,64,0,8
2,note_on,63,32,233
2,note_on,71,36,0
2,note_on,59,33,56
2,note_on,71,0,110
2,note_on,63,0,0
2,note_on,59,0,8
2,note_on,52,31,226
2,note_on,59,35,0
2,note_on,64,33,120
2,note_on,59,0,110
2,note_on,52,0,0
2,note_on,64,0,8
2,note_on,66,35,176
2,note_on,63,31,0
2,note_on,59,32,113
2,note_on,63,0,110
2,note_on,66,0,0
2,note_on,59,0,8
2,note_on,59,37,212
2,note_on,52,34,0
2,note_on,59,0,47
2,note_on,64,35,2
2,note_on,64,0,118
2,note_on,71,32,2
2,note_on,71,0,166
2,note_on,52,0,10
2,note_on,64,37,0
2,note_on,71,37,0
2,note_on,64,0,82
2,note_on,59,35,2
2,note_on,59,0,118
2,note_on,52,35,2
2,note_on,52,0,166
2,note_on,71,0,10
2,note_on,52,32,0
2,note_on,59,36,0
2,note_on,59,0,40
2,note_on,64,35,2
2,note_on,64,0,118
2,note_on,71,35,2
2,note_on,71,0,98
2,note_on,52,0,10
2,note_on,64,36,0
2,note_on,71,36,0
2,note_on,64,0,61
2,note_on,59,35,2
2,note_on,59,0,118
2,note_on,52,35,2
2,note_on,52,0,223
2,note_on,71,0,10
2,note_on,59,36,0
2,note_on,52,36,0
2,note_on,52,0,118
2,note_on,64,33,2
2,note_on,59,0,110
2,note_on,64,0,8
2,note_on,69,36,7
2,note_on,63,36,0
2,note_on,59,33,70
2,note_on,63,0,110
2,note_on,69,0,0
2,note_on,59,0,8
2,note_on,52,39,226
2,note_on,52,0,65
2,note_on,59,32,2
2,note_on,59,0,118
2,note_on,68,34,2
2,note_on,68,0,118
2,note_on,64,32,2
2,note_on,64,0,118
2,note_on,71,39,2
2,note_on,71,0,230
2,note_on,52,34,0
2,note_on,59,37,0
2,note_on,59,0,61
2,note_on,64,34,2
2,note_on,64,0,118
2,note_on,71,32,2
2,note_on,71,0,95
2,note_on,52,0,10
2,note_on,71,37,0
2,note_on,64,37,0
2,note_on,64,0,75
2,note_on,59,34,2
2,note_on,59,0,118
2,note_on,52,35,2
2,note_on,52,0,173
2,note_on,71,0,10
2,note_on,52,32,0
2,note_on,59,36,0
2,note_on,59,0,79
2,note_on,64,35,2
2,note_on,64,0,118
2,note_on,71,35,2
2,note_on,71,0,223
2,note_on,52,0,10
2,note_on,71,36,0
2,note_on,64,36,0
2,note_on,64,0,86
2,note_on,59,35,2
2,note_on,59,0,118
2,note_on,52,35,2
2,note_on,52,0,223
2,note_on,71,0,10
2,note_on,40,59,1920
2,note_on,47,66,0
2,note_on,47,0,180
2,note_on,40,0,0
2,note_on,39,55,300
2,note_on,47,62,0
2,note_on,47,0,180
2,note_on,39,0,0
2,note_on,40,59,300
2,note_on,47,66,0
2,note_on,47,0,180
2,note_on,40,0,0
2,note_on,36,54,300
2,note_on,48,61,0
2,note_on,48,0,180
2,note_on,36,0,0
2,note_on,35,57,300
2,note_on,47,64,0
2,note_on,47,0,180
2,note_on,35,0,0
2,note_on,34,54,300
2,note_on,46,61,0
2,note_on,46,0,180
2,note_on,34,0,0
2,note_on,35,61,300
2,note_on,47,69,0
2,note_on,47,0,480
2,note_on,35,0,0
2,note_on,35,57,0
2,note_on,47,65,0
2,note_on,47,0,240
2,note_on,35,0,0
2,note_on,31,66,240
2,note_on,43,73,0
2,note_on,43,0,180
2,note_on,31,0,0
2,note_on,38,59,300
2,note_on,50,66,0
2,note_on,50,0,180
2,note_on,38,0,0
2,note_on,43,59,300
2,note_on,55,66,0
2,note_on,55,0,180
2,note_on,43,0,0
2,note_on,36,55,300
2,note_on,48,62,0
2,note_on,48,0,180
2,note_on,36,0,0
2,note_on,38,57,300
2,note_on,50,64,0
2,note_on,50,0,180
2,note_on,38,0,0
2,note_on,38,54,300
2,note_on,50,61,0
2,note_on,50,0,180
2,note_on,38,0,0
2,note_on,31,65,300
2,note_on,43,72,0
2,note_on,43,0,480
2,note_on,31,0,0
2,note_on,51,66,480
2,note_on,39,59,0
2,note_on,47,59,0
2,note_on,47,0,180
2,note_on,39,0,0
2,note_on,51,0,0
2,note_on,47,54,300
2,note_on,40,54,0
2,note_on,52,60,0
2,note_on,52,0,180
2,note_on,40,0,0
2,note_on,47,0,0
2,note_on,42,54,300
2,note_on,35,54,0
2,note_on,47,60,0
2,note_on,47,0,180
2,note_on,35,0,0
2,note_on,42,0,0
2,note_on,47,61,60
2,note_on,59,69,0
2,note_on,59,0,90
2,note_on,47,0,0
2,note_on,48,57,30
2,note_on,60,65,0
2,note_on,60,0,90
2,note_on,48,0,0
2,note_on,47,67,30
2,note_on,59,76,0
2,note_on,59,0,118
2,note_on,47,0,0
2,note_on,51,67,362
2,note_on,39,60,0
2,note_on,47,60,0
2,note_on,47,0,180
2,note_on,39,0,0
2,note_on,51,0,0
2,note_on,47,54,300
2,note_on,40,54,0
2,note_on,52,60,0
2,note_on,52,0,180
2,note_on,40,0,0
2,note_on,47,0,0
2,note_on,42,54,300
2,note_on,35,54,0
2,note_on,47,60,0
2,note_on,47,0,180
2,note_on,35,0,0
2,note_on,42,0,0
2,note_on,58,66,60
2,note_on,58,0,90
2,note_on,60,64,30
2,note_on,60,0,90
2,note_on,59,72,30
2,note_on,59,0,118
2,note_on,56,71,362
2,note_on,44,63,0
2,note_on,52,63,0
2,note_on,52,0,180
2,note_on,44,0,0
2,note_on,56,0,0
2,note_on,52,54,300
2,note_on,45,54,0
2,note_on,57,61,0
2,note_on,57,0,180
2,note_on,45,0,0
2,note_on,52,0,0
2,note_on,54,65,300
2,note_on,42,57,0
2,note_on,50,57,0
2,note_on,50,0,180
2,note_on,42,0,0
2,note_on,54,0,0
2,note_on,50,49,300
2,note_on,43,49,0
2,note_on,55,55,0
2,note_on,55,0,180
2,note_on,43,0,0
2,note_on,50,0,0
2,note_on,48,57,300
2,note_on,40,57,0
2,note_on,52,64,0
2,note_on,52,0,180
2,note_on,40,0,0
2,note_on,48,0,0
2,note_on,48,46,300
2,note_on,42,46,0
2,note_on,54,52,0
2,note_on,54,0,180
2,note_on,42,0,0
2,note_on,48,0,0
2,note_on,51,58,300
2,note_on,39,52,0
2,note_on,47,52,0
2,note_on,47,0,180
2,note_on,39,0,0
2,note_on,51,0,0
2,note_on,47,47,300
2,note_on,40,47,0
2,note_on,52,54,0
2,note_on,52,0,180
2,note_on,40,0,0
2,note_on,47,0,0
2,note_on,36,46,300
2,note_on,48,52,0
2,note_on,48,0,180
2,note_on,36,0,0
2,note_on,46,57,300
2,note_on,34,51,0
2,note_on,34,0,180
2,note_on,46,0,0
2,note_on,35,54,300
2,note_on,47,61,0
2,note_on,47,0,180
2,note_on,35,0,0
2,note_on,48,49,300
2,note_on,36,44,0
2,note_on,36,0,180
2,note_on,48,0,0
2,note_on,33,50,300
2,note_on,45,56,0
2,note_on,45,0,180
2,note_on,33,0,0
2,note_on,60,49,60
2,note_on,60,0,58
2,note_on,57,49,62
2,note_on,57,0,58
2,note_on,35,51,62
2,note_on,47,57,0
2,note_on,47,0,180
2,note_on,35,0,0
2,note_on,57,54,60
2,note_on,57,0,58
2,note_on,54,51,62
2,note_on,54,0,60
2,note_on,40,60,60
2,note_on,52,67,0
2,note_on,52,0,480
2,note_on,40,0,0
2,note_on,52,34,190
2,note_on,59,37,0
2,note_on,59,0,40
2,note_on,64,35,2
2,note_on,64,0,118
2,note_on,71,32,2
2,note_on,71,0,180
2,note_on,52,0,10
2,note_on,64,37,0
2,note_on,71,37,0
2,note_on,64,0,75
2,note_on,59,36,2
2,note_on,59,0,118
2,note_on,52,35,2
2,note_on,52,0,166
2,note_on,71,0,10
2,note_on,52,32,0
2,note_on,59,36,0
2,note_on,59,0,75
2,note_on,64,35,2
2,note_on,64,0,118
2,note_on,71,35,2
2,note_on,71,0,117
2,note_on,52,0,10
2,note_on,64,36,0
2,note_on,71,36,0
2,note_on,64,0,47
2,note_on,59,35,2
2,note_on,59,0,118
2,note_on,52,35,2
2,note_on,52,0,98
2,note_on,71,0,10
2,note_on,52,36,0
2,note_on,59,32,0
2,note_on,52,0,118
2,note_on,64,33,2
2,note_on,59,0,110
2,note_on,64,0,8
2,note_on,71,36,104
2,note_on,63,32,0
2,note_on,59,36,56
2,note_on,63,0,110
2,note_on,71,0,0
2,note_on,59,0,8
2,note_on,52,31,108
2,note_on,59,35,0
2,note_on,64,33,49
2,note_on,59,0,110
2,note_on,52,0,0
2,note_on,64,0,8
2,note_on,63,31,176
2,note_on,66,35,0
2,note_on,59,33,42
2,note_on,66,0,110
2,note_on,63,0,0
2,note_on,59,0,8
2,note_on,52,34,0
2,note_on,59,37,0
2,note_on,59,0,26
2,note_on,64,35,2
2,note_on,64,0,118
2,note_on,71,32,2
2,note_on,71,0,104
2,note_on,52,0,10
2,note_on,64,37,0
2,note_on,71,37,0
2,note_on,64,0,61
2,note_on,59,35,2
2,note_on,59,0,118
2,note_on,52,35,2
2,note_on,52,0,138
2,note_on,71,0,10
2,note_on,52,32,0
2,note_on,59,36,0
2,note_on,59,0,47
2,note_on,64,35,2
2,note_on,64,0,118
2,note_on,71,35,2
2,note_on,71,0,103
2,note_on,52,0,10
2,note_on,64,36,0
2,note_on,71,36,0
2,note_on,64,0,82
2,note_on,59,35,2
2,note_on,59,0,118
2,note_on,52,35,2
2,note_on,52,0,222
2,note_on,71,0,10
2,note_on,52,36,0
2,note_on,59,32,0
2,note_on,52,0,118
2,note_on,64,33,2
2,note_on,59,0,110
2,note_on,64,0,8
2,note_on,69,36,176
2,note_on,63,32,0
2,note_on,59,33,63
2,note_on,63,0,110
2,note_on,69,0,0
2,note_on,59,0,8
2,note_on,52,39,107
2,note_on,52,0,79
2,note_on,59,32,2
2,note_on,59,0,118
2,note_on,68,34,2
2,note_on,68,0,118
2,note_on,64,32,2
2,note_on,64,0,118
2,note_on,71,39,2
2,note_on,71,0,4
2,note_on,52,34,215
2,note_on,59,37,0
2,note_on,59,0,19
2,note_on,64,34,2
2,note_on,64,0,118
2,note_on,71,32,2
2,note_on,71,0,152
2,note_on,52,0,10
2,note_on,64,37,0
2,note_on,71,37,0
2,note_on,64,0,47
2,note_on,59,34,2
2,note_on,59,0,118
2,note_on,52,35,2
2,note_on,52,0,145
2,note_on,71,0,10
2,note_on,52,32,0
2,note_on,59,36,0
2,note_on,59,0,75
2,note_on,64,35,2
2,note_on,64,0,118
2,note_on,71,35,2
2,note_on,71,0,103
2,note_on,52,0,10
2,note_on,64,36,0
2,note_on,71,36,0
2,note_on,64,0,82
2,note_on,59,35,2
2,note_on,59,0,118
2,note_on,52,35,2
2,note_on,52,0,220
2,note_on,71,0,10
2,note_on,40,71,1680
2,note_on,52,71,0
2,note_on,52,0,118
2,note_on,40,0,0
2,note_on,45,77,122
2,note_on,57,77,0
2,note_on,57,0,720
2,note_on,45,0,0
2,note_on,40,72,0
2,note_on,52,72,0
2,note_on,52,0,120
2,note_on,40,0,0
2,note_on,36,79,120
2,note_on,48,79,0
2,note_on,48,0,240
2,note_on,36,0,0
2,note_on,33,75,0
2,note_on,45,75,0
2,note_on,45,0,240
2,note_on,33,0,0
2,note_on,48,36,240
2,note_on,50,36,2
2,note_on,48,0,2
2,note_on,52,36,32
2,note_on,50,0,2
2,note_on,53,37,32
2,note_on,52,0,2
2,note_on,55,38,32
2,note_on,53,0,2
2,note_on,57,38,32
2,note_on,55,0,2
2,note_on,59,40,32
2,note_on,57,0,2
2,note_on,59,0,34
2,note_on,60,41,0
2,note_on,62,41,34
2,note_on,60,0,2
2,note_on,64,41,32
2,note_on,62,0,2
2,note_on,65,41,32
2,note_on,64,0,2
2,note_on,67,42,32
2,note_on,65,0,2
2,note_on,69,43,32
2,note_on,67,0,2
2,note_on,71,43,32
2,note_on,69,0,2
2,note_on,71,0,34
2,note_on,72,42,0
2,note_on,74,43,34
2,note_on,72,0,2
2,note_on,76,43,32
2,note_on,74,0,2
2,note_on,77,43,32
2,note_on,76,0,2
2,note_on,79,44,32
2,note_on,77,0,2
2,note_on,81,42,32
2,note_on,79,0,2
2,note_on,83,42,32
2,note_on,81,0,2
2,note_on,83,0,34
2,note_on,84,48,0
2,note_on,84,0,109
2,note_on,83,32,122
2,note_on,74,27,0
2,note_on,77,27,0
2,note_on,77,0,58
2,note_on,74,0,0
2,note_on,83,0,0
2,note_on,74,27,62
2,note_on,77,27,0
2,note_on,83,32,0
2,note_on,83,0,58
2,note_on,77,0,0
2,note_on,74,0,0
2,note_on,64,36,2
2,note_on,64,0,58
2,note_on,81,36,2
2,note_on,72,32,0
2,note_on,76,32,0
2,note_on,76,0,460
2,note_on,72,0,0
2,note_on,81,0,0
2,note_on,71,26,0
2,note_on,76,26,0
2,note_on,80,30,0
2,note_on,80,0,192
2,note_on,76,0,0
2,note_on,71,0,0
2,note_on,38,71,30
2,note_on,50,71,0
2,note_on,50,0,118
2,note_on,38,0,0
2,note_on,41,77,122
2,note_on,53,77,0
2,note_on,53,0,720
2,note_on,41,0,0
2,note_on,38,72,0
2,note_on,50,72,0
2,note_on,50,0,120
2,note_on,38,0,0
2,note_on,35,79,120
2,note_on,47,79,0
2,note_on,47,0,230
2,note_on,35,0,0
2,note_on,32,74,10
2,note_on,44,74,0
2,note_on,44,0,240
2,note_on,32,0,0
2,note_on,50,36,240
2,note_on,52,36,18
2,note_on,50,0,2
2,note_on,53,36,32
2,note_on,52,0,2
2,note_on,55,37,32
2,note_on,53,0,2
2,note_on,57,37,32
2,note_on,55,0,2
2,note_on,59,38,32
2,note_on,57,0,2
2,note_on,60,40,32
2,note_on,59,0,2
2,note_on,60,0,34
2,note_on,62,40,0
2,note_on,64,41,34
2,note_on,62,0,2
2,note_on,65,41,32
2,note_on,64,0,2
2,note_on,67,41,32
2,note_on,65,0,2
2,note_on,69,42,32
2,note_on,67,0,2
2,note_on,71,43,32
2,note_on,69,0,2
2,note_on,72,43,32
2,note_on,71,0,2
2,note_on,72,0,34
2,note_on,74,42,0
2,note_on,76,42,34
2,note_on,74,0,2
2,note_on,77,43,32
2,note_on,76,0,2
2,note_on,79,43,32
2,note_on,77,0,2
2,note_on,81,43,32
2,note_on,79,0,2
2,note_on,83,42,32
2,note_on,81,0,2
2,note_on,84,42,32
2,note_on,83,0,2
2,note_on,84,0,34
2,note_on,86,48,0
2,note_on,86,0,103
2,note_on,68,27,122
2,note_on,77,32,0
2,note_on,77,0,58
2,note_on,68,0,0
2,note_on,76,32,62
2,note_on,68,27,0
2,note_on,68,0,58
2,note_on,76,0,0
2,note_on,80,36,62
2,note_on,69,32,0
2,note_on,77,32,0
2,note_on,77,0,432
2,note_on,69,0,0
2,note_on,80,0,0
2,note_on,69,30,0
2,note_on,76,30,0
2,note_on,81,34,0
2,note_on,81,0,174
2,note_on,76,0,0
2,note_on,69,0,0
2,note_on,67,27,670
2,note_on,73,27,30
2,note_on,76,27,30
2,note_on,81,33,30
2,note_on,81,0,180
2,note_on,67,0,0
2,note_on,73,0,0
2,note_on,76,0,0
2,note_on,74,27,540
2,note_on,81,31,0
2,note_on,77,27,0
2,note_on,77,0,180
2,note_on,81,0,0
2,note_on,74,0,0
2,note_on,86,36,60
2,note_on,81,32,0
2,note_on,77,32,0
2,note_on,77,0,180
2,note_on,81,0,0
2,note_on,86,0,0
2,note_on,65,27,690
2,note_on,71,27,30
2,note_on,74,27,30
2,note_on,79,34,30
2,note_on,79,0,180
2,note_on,65,0,0
2,note_on,71,0,0
2,note_on,74,0,0
2,note_on,72,27,540
2,note_on,79,31,0
2,note_on,76,27,0
2,note_on,76,0,180
2,note_on,79,0,0
2,note_on,72,0,0
2,note_on,84,36,60
2,note_on,79,32,0
2,note_on,76,32,0
2,note_on,76,0,180
2,note_on,79,0,0
2,note_on,84,0,0
2,note_on,86,36,780
2,note_on,83,33,0
2,note_on,77,33,0
2,note_on,77,0,180
2,note_on,83,0,0
2,note_on,86,0,0
2,note_on,84,36,780
2,note_on,81,33,0
2,note_on,76,33,0
2,note_on,76,0,180
2,note_on,81,0,0
2,note_on,84,0,0
2,note_on,84,36,300
2,note_on,81,33,0
2,note_on,77,33,0
2,note_on,77,0,180
2,note_on,81,0,0
2,note_on,84,0,0
2,note_on,77,33,300
2,note_on,81,36,0
2,note_on,72,33,0
2,note_on,72,0,180
2,note_on,81,0,0
2,note_on,77,0,0
2,note_on,80,32,300
2,note_on,64,27,0
2,note_on,71,27,0
2,note_on,71,0,180
2,note_on,64,0,0
2,note_on,80,0,0
2,note_on,43,71,232
2,note_on,55,71,0
2,note_on,55,0,118
2,note_on,43,0,0
2,note_on,48,77,122
2,note_on,60,77,0
2,note_on,60,0,720
2,note_on,48,0,0
2,note_on,43,72,0
2,note_on,55,72,0
2,note_on,55,0,120
2,note_on,43,0,0
2,note_on,40,79,120
2,note_on,52,79,0
2,note_on,52,0,240
2,note_on,40,0,0
2,note_on,36,76,0
2,note_on,48,76,0
2,note_on,48,0,240
2,note_on,36,0,0
2,note_on,52,36,240
2,note_on,53,36,18
2,note_on,52,0,2
2,note_on,55,36,32
2,note_on,53,0,2
2,note_on,57,37,32
2,note_on,55,0,2
2,note_on,59,37,32
2,note_on,57,0,2
2,note_on,60,38,32
2,note_on,59,0,2
2,note_on,62,40,32
2,note_on,60,0,2
2,note_on,62,0,34
2,note_on,64,40,0
2,note_on,65,41,34
2,note_on,64,0,2
2,note_on,67,41,32
2,note_on,65,0,2
2,note_on,69,41,32
2,note_on,67,0,2
2,note_on,71,42,32
2,note_on,69,0,2
2,note_on,72,43,32
2,note_on,71,0,2
2,note_on,74,43,32
2,note_on,72,0,2
2,note_on,74,0,34
2,note_on,76,42,0
2,note_on,77,42,34
2,note_on,76,0,2
2,note_on,79,43,32
2,note_on,77,0,2
2,note_on,81,43,32
2,note_on,79,0,2
2,note_on,83,43,32
2,note_on,81,0,2
2,note_on,84,42,32
2,note_on,83,0,2
2,note_on,86,42,32
2,note_on,84,0,2
2,note_on,86,0,34
2,note_on,88,48,0
2,note_on,88,0,109
2,note_on,86,32,122
2,note_on,77,27,0
2,note_on,81,27,0
2,note_on,81,0,58
2,note_on,77,0,0
2,note_on,86,0,0
2,note_on,77,27,62
2,note_on,81,27,0
2,note_on,86,32,0
2,note_on,86,0,58
2,note_on,81,0,0
2,note_on,77,0,0
2,note_on,67,36,2
2,note_on,84,36,60
2,note_on,76,36,0
2,note_on,76,0,439
2,note_on,84,0,0
2,note_on,67,0,0
2,note_on,67,34,0
2,note_on,74,34,0
2,note_on,83,34,0
2,note_on,83,0,197
2,note_on,74,0,0
2,note_on,67,0,0
2,note_on,38,63,30
2,note_on,50,63,0
2,note_on,50,0,118
2,note_on,38,0,0
2,note_on,41,70,122
2,note_on,53,70,0
2,note_on,53,0,720
2,note_on,41,0,0
2,note_on,38,64,0
2,note_on,50,64,0
2,note_on,50,0,180
2,note_on,38,0,0
2,note_on,35,71,60
2,note_on,47,71,0
2,note_on,47,0,240
2,note_on,35,0,0
2,note_on,31,67,0
2,note_on,43,67,0
2,note_on,43,0,240
2,note_on,31,0,0
2,note_on,50,36,240
2,note_on,52,36,15
2,note_on,50,0,2
2,note_on,53,36,32
2,note_on,52,0,2
2,note_on,55,37,32
2,note_on,53,0,2
2,note_on,57,37,32
2,note_on,55,0,2
2,note_on,59,38,32
2,note_on,57,0,2
2,note_on,60,40,32
2,note_on,59,0,2
2,note_on,60,0,34
2,note_on,62,40,0
2,note_on,64,41,34
2,note_on,62,0,2
2,note_on,65,41,32
2,note_on,64,0,2
2,note_on,67,41,32
2,note_on,65,0,2
2,note_on,69,42,32
2,note_on,67,0,2
2,note_on,71,43,32
2,note_on,69,0,2
2,note_on,72,43,32
2,note_on,71,0,2
2,note_on,72,0,34
2,note_on,74,42,0
2,note_on,76,42,34
2,note_on,74,0,2
2,note_on,77,43,32
2,note_on,76,0,2
2,note_on,79,43,32
2,note_on,77,0,2
2,note_on,81,43,32
2,note_on,79,0,2
2,note_on,83,42,32
2,note_on,81,0,2
2,note_on,84,42,32
2,note_on,83,0,2
2,note_on,84,0,34
2,note_on,86,48,0
2,note_on,86,0,106
2,note_on,71,27,122
2,note_on,81,32,0
2,note_on,81,0,58
2,note_on,71,0,0
2,note_on,79,32,62
2,note_on,71,27,0
2,note_on,71,0,58
2,note_on,79,0,0
2,note_on,77,36,62
2,note_on,71,32,0
2,note_on,67,32,0
2,note_on,67,0,437
2,note_on,71,0,0
2,note_on,77,0,0
2,note_on,72,30,0
2,note_on,76,34,0
2,note_on,76,0,184
2,note_on,72,0,0
2,note_on,70,27,670
2,note_on,76,27,30
2,note_on,79,27,30
2,note_on,84,33,30
2,note_on,84,0,180
2,note_on,70,0,0
2,note_on,76,0,0
2,note_on,79,0,0
2,note_on,81,31,540
2,note_on,77,27,0
2,note_on,77,0,180
2,note_on,81,0,0
2,note_on,72,32,60
2,note_on,81,36,0
2,note_on,77,32,0
2,note_on,77,0,180
2,note_on,81,0,0
2,note_on,72,0,0
2,note_on,72,27,690
2,note_on,78,27,30
2,note_on,81,27,30
2,note_on,86,34,30
2,note_on,86,0,180
2,note_on,72,0,0
2,note_on,78,0,0
2,note_on,81,0,0
2,note_on,79,30,540
2,note_on,83,34,0
2,note_on,83,0,180
2,note_on,79,0,0
2,note_on,83,40,60
2,note_on,79,35,0
2,note_on,74,35,0
2,note_on,74,0,180
2,note_on,79,0,0
2,note_on,83,0,0
2,note_on,74,32,690
2,note_on,80,32,30
2,note_on,83,32,30
2,note_on,88,36,30
2,note_on,88,0,180
2,note_on,74,0,0
2,note_on,80,0,0
2,note_on,83,0,0
2,note_on,84,36,240
2,note_on,81,33,0
2,note_on,81,0,180
2,note_on,84,0,0
2,note_on,84,41,60
2,note_on,81,36,0
2,note_on,76,36,0
2,note_on,76,0,180
2,note_on,81,0,0
2,note_on,84,0,0
2,note_on,72,23,540
2,note_on,77,23,0
2,note_on,81,26,0
2,note_on,81,0,130
2,note_on,77,0,0
2,note_on,72,0,0
2,note_on,84,27,60
2,note_on,81,25,0
2,note_on,77,25,0
2,note_on,77,0,166
2,note_on,81,0,0
2,note_on,84,0,0
2,note_on,72,23,240
2,note_on,76,23,0
2,note_on,81,26,0
2,note_on,81,0,144
2,note_on,76,0,0
2,note_on,72,0,0
2,note_on,84,27,60
2,note_on,81,25,0
2,note_on,76,25,0
2,note_on,76,0,173
2,note_on,81,0,0
2,note_on,84,0,0
2,note_on,72,23,235
2,note_on,78,23,0
2,note_on,81,26,0
2,note_on,81,0,134
2,note_on,78,0,0
2,note_on,72,0,0
2,note_on,84,27,60
2,note_on,81,25,0
2,note_on,78,25,0
2,note_on,78,0,165
2,note_on,81,0,0
2,note_on,84,0,0
2,note_on,71,26,237
2,note_on,76,26,0
2,note_on,79,29,0
2,note_on,79,0,137
2,note_on,76,0,0
2,note_on,71,0,0
2,note_on,83,32,60
2,note_on,79,27,0
2,note_on,76,27,0
2,note_on,76,0,162
2,note_on,79,0,0
2,note_on,83,0,0
2,note_on,67,29,237
2,note_on,76,29,0
2,note_on,79,33,0
2,note_on,79,0,141
2,note_on,76,0,0
2,note_on,67,0,0
2,note_on,72,32,60
2,note_on,79,36,0
2,note_on,76,32,0
2,note_on,76,0,100
2,note_on,79,0,0
2,note_on,72,0,0
2,note_on,67,30,221
2,note_on,76,30,0
2,note_on,79,34,0
2,note_on,79,0,141
2,note_on,76,0,0
2,note_on,67,0,0
2,note_on,71,32,60
2,note_on,79,36,0
2,note_on,76,32,0
2,note_on,76,0,104
2,note_on,79,0,0
2,note_on,71,0,0
2,note_on,67,30,240
2,note_on,76,30,0
2,note_on,79,34,0
2,note_on,79,0,160
2,note_on,76,0,0
2,note_on,67,0,0
2,note_on,73,32,60
2,note_on,79,36,0
2,note_on,76,32,0
2,note_on,76,0,115
2,note_on,79,0,0
2,note_on,73,0,0
2,note_on,73,27,122
2,note_on,76,27,0
2,note_on,79,32,0
2,note_on,79,0,145
2,note_on,76,0,0
2,note_on,73,0,0
2,note_on,75,30,60
2,note_on,78,30,0
2,note_on,83,34,0
2,note_on,83,0,179
2,note_on,78,0,0
2,note_on,75,0,0
2,note_on,75,52,217
2,note_on,75,0,15
2,note_on,83,45,2
2,note_on,83,0,58
2,note_on,78,50,2
2,note_on,78,0,58
2,note_on,75,46,2
2,note_on,75,0,58
2,note_on,67,51,185
2,note_on,67,0,23
2,note_on,76,46,2
2,note_on,76,0,58
2,note_on,71,50,2
2,note_on,71,0,58
2,note_on,67,46,2
2,note_on,67,0,58
2,note_on,64,53,234
2,note_on,64,0,21
2,note_on,72,47,2
2,note_on,72,0,58
2,note_on,67,51,2
2,note_on,67,0,58
2,note_on,64,49,2
2,note_on,64,0,58
2,note_on,63,54,225
2,note_on,63,0,18
2,note_on,71,50,2
2,note_on,71,0,58
2,note_on,66,52,2
2,note_on,66,0,58
2,note_on,63,49,2
2,note_on,63,0,58
2,note_on,63,54,242
2,note_on,63,0,58
2,note_on,71,50,2
2,note_on,71,0,58
2,note_on,66,54,2
2,note_on,66,0,58
2,note_on,63,51,2
2,note_on,63,0,58
2,note_on,55,63,234
2,note_on,55,0,35
2,note_on,64,55,2
2,note_on,64,0,58
2,note_on,59,59,2
2,note_on,59,0,58
2,note_on,55,54,2
2,note_on,55,0,58
2,note_on,52,63,231
2,note_on,52,0,38
2,note_on,60,55,2
2,note_on,60,0,58
2,note_on,55,59,2
2,note_on,55,0,58
2,note_on,52,56,2
2,note_on,52,0,58
2,note_on,51,66,231
2,note_on,55,61,10
2,note_on,51,0,10
2,note_on,55,0,50
2,note_on,54,61,0
2,note_on,51,59,60
2,note_on,54,0,10
2,note_on,51,0,50
2,note_on,47,52,0
2,note_on,54,53,60
2,note_on,47,0,10
2,note_on,58,54,50
2,note_on,54,0,10
2,note_on,58,0,50
2,note_on,59,54,0
2,note_on,59,0,60
2,note_on,63,56,0
2,note_on,66,57,60
2,note_on,63,0,10
2,note_on,70,59,50
2,note_on,66,0,10
2,note_on,71,61,50
2,note_on,70,0,10
2,note_on,71,0,50
2,note_on,75,63,0
2,note_on,78,63,60
2,note_on,75,0,10
2,note_on,82,65,50
2,note_on,78,0,10
2,note_on,83,66,50
2,note_on,82,0,10
2,note_on,83,0,50
2,note_on,87,69,0
2,note_on,87,0,154
2,note_on,83,34,212
2,note_on,76,34,0
2,note_on,76,0,12
2,note_on,83,0,0
2,note_on,76,33,30
2,note_on,83,33,0
2,note_on,83,0,90
2,note_on,76,0,0
2,note_on,71,34,7
2,note_on,76,34,0
2,note_on,76,0,26
2,note_on,71,0,0
2,note_on,71,33,30
2,note_on,76,33,0
2,note_on,76,0,90
2,note_on,71,0,0
2,note_on,64,34,155
2,note_on,71,34,0
2,note_on,71,0,26
2,note_on,64,0,0
2,note_on,64,31,30
2,note_on,71,31,0
2,note_on,71,0,90
2,note_on,64,0,0
2,note_on,64,34,101
2,note_on,59,34,0
2,note_on,59,0,26
2,note_on,64,0,0
2,note_on,59,31,30
2,note_on,64,31,0
2,note_on,64,0,90
2,note_on,59,0,0
2,note_on,52,34,103
2,note_on,59,34,0
2,note_on,59,0,26
2,note_on,52,0,0
2,note_on,52,32,30
2,note_on,59,32,0
2,note_on,59,0,90
2,note_on,52,0,0
2,note_on,71,36,104
2,note_on,63,36,0
2,note_on,63,0,40
2,note_on,71,0,0
2,note_on,63,33,30
2,note_on,71,33,0
2,note_on,71,0,90
2,note_on,63,0,0
2,note_on,52,44,106
2,note_on,59,44,0
2,note_on,59,0,40
2,note_on,52,0,0
2,note_on,52,41,30
2,note_on,59,41,0
2,note_on,59,0,90
2,note_on,52,0,0
2,note_on,59,50,169
2,note_on,71,50,0
2,note_on,71,0,19
2,note_on,59,0,0
2,note_on,59,45,30
2,note_on,71,45,0
2,note_on,71,0,90
2,note_on,59,0,0
2,note_on,83,34,141
2,note_on,76,34,0
2,note_on,76,0,26
2,note_on,83,0,0
2,note_on,76,31,30
2,note_on,83,31,0
2,note_on,83,0,90
2,note_on,76,0,0
2,note_on,71,34,105
2,note_on,76,34,0
2,note_on,76,0,26
2,note_on,71,0,0
2,note_on,71,32,30
2,note_on,76,32,0
2,note_on,76,0,90
2,note_on,71,0,0
2,note_on,64,34,162
2,note_on,71,34,0
2,note_on,71,0,82
2,note_on,64,0,0
2,note_on,64,32,14
2,note_on,71,32,0
2,note_on,71,0,90
2,note_on,64,0,0
2,note_on,59,34,117
2,note_on,64,34,0
2,note_on,64,0,62
2,note_on,59,0,0
2,note_on,59,32,30
2,note_on,64,32,0
2,note_on,64,0,90
2,note_on,59,0,0
2,note_on,52,35,114
2,note_on,59,35,0
2,note_on,59,0,33
2,note_on,52,0,0
2,note_on,52,32,30
2,note_on,59,32,0
2,note_on,59,0,90
2,note_on,52,0,0
2,note_on,63,34,141
2,note_on,59,34,0
2,note_on,59,0,12
2,note_on,63,0,0
2,note_on,59,33,30
2,note_on,63,33,0
2,note_on,63,0,90
2,note_on,59,0,0
2,note_on,59,45,101
2,note_on,52,45,0
2,note_on,52,0,51
2,note_on,59,0,0
2,note_on,59,43,30
2,note_on,52,43,0
2,note_on,52,0,90
2,note_on,59,0,0
2,note_on,64,47,30
2,note_on,64,0,90
2,note_on,64,45,30
2,note_on,64,0,90
2,note_on,71,53,30
2,note_on,71,0,240
2,note_on,83,34,212
2,note_on,76,34,0
2,note_on,76,0,12
2,note_on,83,0,0
2,note_on,76,32,30
2,note_on,83,32,0
2,note_on,83,0,90
2,note_on,76,0,0
2,note_on,71,34,169
2,note_on,76,34,0
2,note_on,76,0,26
2,note_on,71,0,0
2,note_on,71,31,30
2,note_on,76,31,0
2,note_on,76,0,90
2,note_on,71,0,0
2,note_on,64,34,162
2,note_on,71,34,0
2,note_on,71,0,12
2,note_on,64,0,0
2,note_on,64,31,30
2,note_on,71,31,0
2,note_on,71,0,90
2,note_on,64,0,0
2,note_on,59,34,95
2,note_on,64,34,0
2,note_on,64,0,19
2,note_on,59,0,0
2,note_on,59,32,30
2,note_on,64,32,0
2,note_on,64,0,90
2,note_on,59,0,0
2,note_on,52,34,104
2,note_on,59,34,0
2,note_on,59,0,47
2,note_on,52,0,0
2,note_on,52,32,30
2,note_on,59,32,0
2,note_on,59,0,90
2,note_on,52,0,0
2,note_on,51,34,218
2,note_on,47,34,0
2,note_on,47,0,12
2,note_on,51,0,0
2,note_on,47,32,30
2,note_on,51,32,0
2,note_on,51,0,90
2,note_on,47,0,0
2,note_on,47,36,226
2,note_on,40,36,0
2,note_on,40,0,47
2,note_on,47,0,0
2,note_on,40,35,30
2,note_on,47,35,0
2,note_on,47,0,90
2,note_on,40,0,0
2,note_on,40,36,30
2,note_on,47,36,0
2,note_on,47,0,240
2,note_on,40,0,0
2,note_on,47,35,455
2,note_on,40,35,0
2,note_on,40,0,12
2,note_on,47,0,0
2,note_on,40,33,30
2,note_on,47,33,0
2,note_on,47,0,90
2,note_on,40,0,0
2,note_on,40,35,30
2,note_on,47,35,0
2,note_on,47,0,240
2,note_on,40,0,0
2,note_on,40,73,823
2,note_on,47,73,0
2,note_on,52,73,0
2,note_on,52,0,68
2,note_on,47,0,0
2,note_on,40,0,0
2,note_on,40,77,2
2,note_on,47,77,0
2,note_on,52,77,0
2,note_on,52,0,240
2,note_on,47,0,0
2,note_on,40,0,0
