Track,Message Type,Note,Velocity,Time
1,note_on,63,71,20
1,note_on,63,0,50
1,note_on,63,74,10
1,note_on,63,0,1850
1,note_on,68,66,10
1,note_on,66,56,0
1,note_on,60,56,0
1,note_on,60,0,50
1,note_on,66,0,0
1,note_on,68,0,0
1,note_on,60,59,10
1,note_on,66,59,0
1,note_on,68,71,0
1,note_on,68,0,1850
1,note_on,66,0,0
1,note_on,60,0,0
1,note_on,69,66,10
1,note_on,66,56,0
1,note_on,59,56,0
1,note_on,59,0,50
1,note_on,66,0,0
1,note_on,69,0,0
1,note_on,69,70,10
1,note_on,66,58,0
1,note_on,59,58,0
1,note_on,59,0,450
1,note_on,66,0,0
1,note_on,69,0,0
1,note_on,59,60,30
1,note_on,69,72,0
1,note_on,66,60,0
1,note_on,66,0,450
1,note_on,69,0,0
1,note_on,59,0,0
1,note_on,65,63,30
1,note_on,69,74,0
1,note_on,69,0,450
1,note_on,65,0,0
1,note_on,63,63,30
1,note_on,69,74,0
1,note_on,69,0,320
1,note_on,63,0,0
1,note_on,62,63,100
1,note_on,65,63,30
1,note_on,70,72,30
1,note_on,70,0,960
1,note_on,65,0,0
1,note_on,62,0,0
1,note_on,70,36,0
1,note_on,74,41,0
1,note_on,74,0,32
1,note_on,70,0,0
1,note_on,62,36,2
1,note_on,65,36,0
1,note_on,65,0,32
1,note_on,62,0,0
1,note_on,70,36,2
1,note_on,74,36,0
1,note_on,77,41,0
1,note_on,77,0,32
1,note_on,74,0,0
1,note_on,70,0,0
1,note_on,70,36,2
1,note_on,65,36,0
1,note_on,65,0,32
1,note_on,70,0,0
1,note_on,82,41,2
1,note_on,74,36,0
1,note_on,77,36,0
1,note_on,77,0,32
1,note_on,74,0,0
1,note_on,82,0,0
1,note_on,70,36,2
1,note_on,74,36,0
1,note_on,74,0,30
1,note_on,70,0,0
1,note_on,77,36,4
1,note_on,82,36,0
1,note_on,86,41,0
1,note_on,86,0,30
1,note_on,82,0,0
1,note_on,77,0,0
1,note_on,74,36,4
1,note_on,77,36,0
1,note_on,77,0,30
1,note_on,74,0,0
1,note_on,82,36,4
1,note_on,86,36,0
1,note_on,89,41,0
1,note_on,89,0,30
1,note_on,86,0,0
1,note_on,82,0,0
1,note_on,77,36,4
1,note_on,82,36,0
1,note_on,82,0,30
1,note_on,77,0,0
1,note_on,94,43,4
1,note_on,86,37,0
1,note_on,89,37,0
1,note_on,89,0,30
1,note_on,86,0,0
1,note_on,94,0,0
1,note_on,82,39,4
1,note_on,86,39,0
1,note_on,86,0,30
1,note_on,82,0,0
1,note_on,98,45,4
1,note_on,94,41,0
1,note_on,89,41,0
1,note_on,89,0,30
1,note_on,94,0,0
1,note_on,98,0,0
1,note_on,86,43,4
1,note_on,89,48,0
1,note_on,89,0,30
1,note_on,86,0,0
1,note_on,94,44,8
1,note_on,98,49,0
1,note_on,101,44,0
1,note_on,101,0,480
1,note_on,98,0,0
1,note_on,94,0,0
1,note_on,94,36,0
1,note_on,97,41,0
1,note_on,88,36,0
1,note_on,88,0,80
1,note_on,97,0,0
1,note_on,94,0,0
1,note_on,91,33,0
1,note_on,99,37,0
1,note_on,99,0,80
1,note_on,91,0,0
1,note_on,89,35,0
1,note_on,98,38,0
1,note_on,98,0,70
1,note_on,89,0,0
1,note_on,93,41,10
1,note_on,89,36,0
1,note_on,85,36,0
1,note_on,85,0,80
1,note_on,89,0,0
1,note_on,93,0,0
1,note_on,87,33,0
1,note_on,96,37,0
1,note_on,96,0,80
1,note_on,87,0,0
1,note_on,86,33,0
1,note_on,94,37,0
1,note_on,94,0,70
1,note_on,86,0,0
1,note_on,88,41,10
1,note_on,85,36,0
1,note_on,82,36,0
1,note_on,82,0,80
1,note_on,85,0,0
1,note_on,88,0,0
1,note_on,86,35,0
1,note_on,91,38,0
1,note_on,91,0,80
1,note_on,86,0,0
1,note_on,82,35,0
1,note_on,89,38,0
1,note_on,89,0,70
1,note_on,82,0,0
1,note_on,76,36,10
1,note_on,82,36,0
1,note_on,85,41,0
1,note_on,85,0,80
1,note_on,82,0,0
1,note_on,76,0,0
1,note_on,79,33,0
1,note_on,87,37,0
1,note_on,87,0,80
1,note_on,79,0,0
1,note_on,77,35,0
1,note_on,86,38,0
1,note_on,86,0,70
1,note_on,77,0,0
1,note_on,81,41,10
1,note_on,77,36,0
1,note_on,73,36,0
1,note_on,73,0,80
1,note_on,77,0,0
1,note_on,81,0,0
1,note_on,75,33,0
1,note_on,84,37,0
1,note_on,84,0,80
1,note_on,75,0,0
1,note_on,74,35,0
1,note_on,82,38,0
1,note_on,82,0,70
1,note_on,74,0,0
1,note_on,76,43,10
1,note_on,73,37,0
1,note_on,70,37,0
1,note_on,70,0,80
1,note_on,73,0,0
1,note_on,76,0,0
1,note_on,74,36,0
1,note_on,79,41,0
1,note_on,79,0,80
1,note_on,74,0,0
1,note_on,77,42,0
1,note_on,70,36,0
1,note_on,70,0,70
1,note_on,77,0,0
1,note_on,64,39,10
1,note_on,73,45,0
1,note_on,70,39,0
1,note_on,70,0,80
1,note_on,73,0,0
1,note_on,64,0,0
1,note_on,67,36,0
1,note_on,75,42,0
1,note_on,75,0,80
1,note_on,67,0,0
1,note_on,65,36,0
1,note_on,74,41,0
1,note_on,74,0,70
1,note_on,65,0,0
1,note_on,69,46,10
1,note_on,65,42,0
1,note_on,61,42,0
1,note_on,61,0,80
1,note_on,65,0,0
1,note_on,69,0,0
1,note_on,63,38,0
1,note_on,72,44,0
1,note_on,72,0,80
1,note_on,63,0,0
1,note_on,62,39,0
1,note_on,70,45,0
1,note_on,70,0,70
1,note_on,62,0,0
1,note_on,64,49,10
1,note_on,58,44,0
1,note_on,61,44,0
1,note_on,61,0,80
1,note_on,58,0,0
1,note_on,64,0,0
1,note_on,62,41,0
1,note_on,67,45,0
1,note_on,67,0,80
1,note_on,62,0,0
1,note_on,58,41,0
1,note_on,65,45,0
1,note_on,65,0,70
1,note_on,58,0,0
1,note_on,52,49,10
1,note_on,61,55,0
1,note_on,58,49,0
1,note_on,58,0,80
1,note_on,61,0,0
1,note_on,52,0,0
1,note_on,55,45,0
1,note_on,63,52,0
1,note_on,63,0,80
1,note_on,55,0,0
1,note_on,53,45,0
1,note_on,62,52,0
1,note_on,62,0,70
1,note_on,53,0,0
1,note_on,57,58,10
1,note_on,53,52,0
1,note_on,49,52,0
1,note_on,49,0,80
1,note_on,53,0,0
1,note_on,57,0,0
1,note_on,60,54,0
1,note_on,51,48,0
1,note_on,51,0,80
1,note_on,60,0,0
1,note_on,50,48,0
1,note_on,58,54,0
1,note_on,58,0,70
1,note_on,50,0,0
1,note_on,52,63,10
1,note_on,49,55,0
1,note_on,46,55,0
1,note_on,46,0,80
1,note_on,49,0,0
1,note_on,52,0,0
1,note_on,50,53,0
1,note_on,55,59,0
1,note_on,55,0,80
1,note_on,50,0,0
1,note_on,46,53,0
1,note_on,53,59,0
1,note_on,53,0,70
1,note_on,46,0,0
1,note_on,49,69,10
1,note_on,46,62,0
1,note_on,40,62,0
1,note_on,40,0,80
1,note_on,46,0,0
1,note_on,49,0,0
1,note_on,43,55,0
1,note_on,51,63,0
1,note_on,51,0,80
1,note_on,43,0,0
1,note_on,41,55,0
1,note_on,50,63,0
1,note_on,50,0,70
1,note_on,41,0,0
1,note_on,80,53,940
1,note_on,86,57,10
1,note_on,89,60,10
1,note_on,94,64,10
1,note_on,94,0,120
1,note_on,80,0,0
1,note_on,86,0,0
1,note_on,89,0,0
1,note_on,58,66,120
1,note_on,58,0,960
1,note_on,81,41,0
1,note_on,81,0,39
1,note_on,82,36,5
1,note_on,82,0,39
1,note_on,87,38,5
1,note_on,87,0,39
1,note_on,84,36,5
1,note_on,84,0,39
1,note_on,82,36,5
1,note_on,82,0,39
1,note_on,80,36,5
1,note_on,80,0,39
1,note_on,79,33,5
1,note_on,79,0,39
1,note_on,55,27,417
1,note_on,58,27,0
1,note_on,63,30,0
1,note_on,63,0,90
1,note_on,58,0,0
1,note_on,55,0,0
1,note_on,65,32,150
1,note_on,58,28,0
1,note_on,56,28,0
1,note_on,56,0,90
1,note_on,58,0,0
1,note_on,65,0,0
1,note_on,66,31,150
1,note_on,57,27,0
1,note_on,58,27,0
1,note_on,58,0,90
1,note_on,57,0,0
1,note_on,66,0,0
1,note_on,58,29,150
1,note_on,67,33,0
1,note_on,67,0,240
1,note_on,58,0,0
1,note_on,55,27,0
1,note_on,63,30,0
1,note_on,63,0,120
1,note_on,55,0,0
1,note_on,81,41,120
1,note_on,81,0,29
1,note_on,82,36,5
1,note_on,82,0,29
1,note_on,91,36,5
1,note_on,91,0,29
1,note_on,89,36,5
1,note_on,89,0,29
1,note_on,87,36,5
1,note_on,87,0,29
1,note_on,86,36,5
1,note_on,86,0,29
1,note_on,84,36,5
1,note_on,84,0,29
1,note_on,82,36,5
1,note_on,82,0,29
1,note_on,80,36,5
1,note_on,80,0,29
1,note_on,79,33,5
1,note_on,79,0,29
1,note_on,63,26,385
1,note_on,55,26,0
1,note_on,58,26,0
1,note_on,58,0,90
1,note_on,55,0,0
1,note_on,63,0,0
1,note_on,56,28,150
1,note_on,62,28,0
1,note_on,65,32,0
1,note_on,65,0,90
1,note_on,62,0,0
1,note_on,56,0,0
1,note_on,58,27,150
1,note_on,67,30,0
1,note_on,67,0,90
1,note_on,58,0,0
1,note_on,55,27,150
1,note_on,63,30,0
1,note_on,63,0,460
1,note_on,55,0,0
1,note_on,93,41,20
1,note_on,93,0,30
1,note_on,94,36,2
1,note_on,94,0,30
1,note_on,99,38,2
1,note_on,99,0,24
1,note_on,96,36,2
1,note_on,96,0,24
1,note_on,94,36,2
1,note_on,94,0,24
1,note_on,92,36,2
1,note_on,92,0,24
1,note_on,91,33,2
1,note_on,91,0,24
1,note_on,63,33,528
1,note_on,58,29,0
1,note_on,55,29,0
1,note_on,55,0,90
1,note_on,58,0,0
1,note_on,63,0,0
1,note_on,65,36,150
1,note_on,58,31,0
1,note_on,56,31,0
1,note_on,56,0,90
1,note_on,58,0,0
1,note_on,65,0,0
1,note_on,66,35,150
1,note_on,58,30,0
1,note_on,57,30,0
1,note_on,57,0,90
1,note_on,58,0,0
1,note_on,66,0,0
1,note_on,58,32,150
1,note_on,67,36,0
1,note_on,67,0,240
1,note_on,58,0,0
1,note_on,55,29,0
1,note_on,63,33,0
1,note_on,63,0,120
1,note_on,55,0,0
1,note_on,93,41,120
1,note_on,93,0,29
1,note_on,94,36,2
1,note_on,94,0,29
1,note_on,103,36,2
1,note_on,103,0,20
1,note_on,101,36,2
1,note_on,101,0,20
1,note_on,99,36,2
1,note_on,99,0,20
1,note_on,98,36,2
1,note_on,98,0,20
1,note_on,96,36,2
1,note_on,96,0,20
1,note_on,94,36,2
1,note_on,94,0,20
1,note_on,92,36,2
1,note_on,92,0,20
1,note_on,91,33,2
1,note_on,91,0,20
1,note_on,63,36,484
1,note_on,58,32,0
1,note_on,55,32,0
1,note_on,55,0,90
1,note_on,58,0,0
1,note_on,63,0,0
1,note_on,56,33,150
1,note_on,62,33,0
1,note_on,65,37,0
1,note_on,65,0,90
1,note_on,62,0,0
1,note_on,56,0,0
1,note_on,62,32,150
1,note_on,56,32,0
1,note_on,67,36,0
1,note_on,67,0,90
1,note_on,56,0,0
1,note_on,62,0,0
1,note_on,55,30,150
1,note_on,63,35,0
1,note_on,63,0,460
1,note_on,55,0,0
1,note_on,62,50,740
1,note_on,58,45,0
1,note_on,58,0,90
1,note_on,62,0,0
1,note_on,60,50,150
1,note_on,58,50,0
1,note_on,63,56,0
1,note_on,63,0,90
1,note_on,58,0,0
1,note_on,60,0,0
1,note_on,58,45,150
1,note_on,61,45,0
1,note_on,64,51,0
1,note_on,64,0,90
1,note_on,61,0,0
1,note_on,58,0,0
1,note_on,62,45,150
1,note_on,65,52,0
1,note_on,65,0,240
1,note_on,62,0,0
1,note_on,58,44,0
1,note_on,62,49,0
1,note_on,62,0,120
1,note_on,58,0,0
1,note_on,62,49,840
1,note_on,58,44,0
1,note_on,58,0,90
1,note_on,62,0,0
1,note_on,57,46,150
1,note_on,63,53,0
1,note_on,63,0,90
1,note_on,57,0,0
1,note_on,57,45,150
1,note_on,65,50,0
1,note_on,65,0,90
1,note_on,57,0,0
1,note_on,58,45,150
1,note_on,62,51,0
1,note_on,62,0,460
1,note_on,58,0,0
1,note_on,70,58,20
1,note_on,70,0,39
1,note_on,69,58,1
1,note_on,69,0,39
1,note_on,68,58,1
1,note_on,68,0,39
1,note_on,67,58,1
1,note_on,67,0,39
1,note_on,62,64,161
1,note_on,62,0,39
1,note_on,61,67,1
1,note_on,61,0,39
1,note_on,60,70,1
1,note_on,60,0,39
1,note_on,59,72,1
1,note_on,59,0,39
1,note_on,58,87,1
1,note_on,58,0,60
1,note_on,74,53,180
1,note_on,62,46,0
1,note_on,70,46,0
1,note_on,70,0,90
1,note_on,62,0,0
1,note_on,74,0,0
1,note_on,63,51,150
1,note_on,75,57,0
1,note_on,70,51,0
1,note_on,70,0,90
1,note_on,75,0,0
1,note_on,63,0,0
1,note_on,76,54,150
1,note_on,70,48,0
1,note_on,64,48,0
1,note_on,64,0,90
1,note_on,70,0,0
1,note_on,76,0,0
1,note_on,70,45,150
1,note_on,65,45,0
1,note_on,77,55,0
1,note_on,77,0,240
1,note_on,74,52,0
1,note_on,74,0,120
1,note_on,65,0,100
1,note_on,70,0,0
1,note_on,60,57,316
1,note_on,60,0,36
1,note_on,62,58,1
1,note_on,62,0,36
1,note_on,63,60,1
1,note_on,63,0,36
1,note_on,64,62,1
1,note_on,64,0,36
1,note_on,67,63,1
1,note_on,67,0,35
1,note_on,65,55,1
1,note_on,74,42,240
1,note_on,68,36,0
1,note_on,68,0,240
1,note_on,74,0,0
1,note_on,69,41,0
1,note_on,75,45,0
1,note_on,65,0,80
1,note_on,65,43,0
1,note_on,65,0,80
1,note_on,67,37,0
1,note_on,67,0,80
1,note_on,75,0,0
1,note_on,69,0,0
1,note_on,72,36,0
1,note_on,63,43,0
1,note_on,77,41,0
1,note_on,63,0,80
1,note_on,60,39,0
1,note_on,60,0,80
1,note_on,62,38,0
1,note_on,62,0,20
1,note_on,58,36,30
1,note_on,65,36,10
1,note_on,70,36,10
1,note_on,77,0,10
1,note_on,72,0,0
1,note_on,74,38,0
1,note_on,74,0,460
1,note_on,70,0,0
1,note_on,58,0,0
1,note_on,65,0,0
1,note_on,82,46,20
1,note_on,73,46,0
1,note_on,77,46,0
1,note_on,77,0,90
1,note_on,73,0,0
1,note_on,82,0,0
1,note_on,81,38,0
1,note_on,81,0,30
1,note_on,80,38,0
1,note_on,72,38,0
1,note_on,72,0,45
1,note_on,80,0,0
1,note_on,79,39,0
1,note_on,74,39,0
1,note_on,71,39,0
1,note_on,71,0,45
1,note_on,74,0,0
1,note_on,79,0,0
1,note_on,70,41,0
1,note_on,78,41,0
1,note_on,78,0,45
1,note_on,70,0,0
1,note_on,77,42,0
1,note_on,72,42,0
1,note_on,69,42,0
1,note_on,69,0,45
1,note_on,72,0,0
1,note_on,77,0,0
1,note_on,76,43,0
1,note_on,68,43,0
1,note_on,68,0,45
1,note_on,76,0,0
1,note_on,75,44,0
1,note_on,70,44,0
1,note_on,67,44,0
1,note_on,67,0,45
1,note_on,70,0,0
1,note_on,75,0,0
1,note_on,74,45,0
1,note_on,66,45,0
1,note_on,66,0,45
1,note_on,74,0,0
1,note_on,65,46,0
1,note_on,68,46,0
1,note_on,73,46,0
1,note_on,73,0,45
1,note_on,68,0,0
1,note_on,65,0,0
1,note_on,64,48,0
1,note_on,72,48,0
1,note_on,67,48,0
1,note_on,67,0,60
1,note_on,72,0,0
1,note_on,64,0,0
1,note_on,58,37,180
1,note_on,64,43,0
1,note_on,55,37,0
1,note_on,55,0,90
1,note_on,64,0,0
1,note_on,58,0,0
1,note_on,56,41,150
1,note_on,65,45,0
1,note_on,61,41,0
1,note_on,61,0,90
1,note_on,65,0,0
1,note_on,56,0,0
1,note_on,59,37,150
1,note_on,62,37,0
1,note_on,68,43,0
1,note_on,68,0,90
1,note_on,62,0,0
1,note_on,59,0,0
1,note_on,67,43,150
1,note_on,64,37,0
1,note_on,64,0,240
1,note_on,67,0,0
1,note_on,55,32,0
1,note_on,60,36,0
1,note_on,60,0,90
1,note_on,55,0,0
1,note_on,77,50,150
1,note_on,73,50,0
1,note_on,82,50,0
1,note_on,82,0,90
1,note_on,73,0,0
1,note_on,77,0,0
1,note_on,81,41,0
1,note_on,81,0,30
1,note_on,72,42,0
1,note_on,80,42,0
1,note_on,80,0,45
1,note_on,72,0,0
1,note_on,79,43,0
1,note_on,74,43,0
1,note_on,71,43,0
1,note_on,71,0,45
1,note_on,74,0,0
1,note_on,79,0,0
1,note_on,78,44,0
1,note_on,70,44,0
1,note_on,70,0,45
1,note_on,78,0,0
1,note_on,77,45,0
1,note_on,72,45,0
1,note_on,69,45,0
1,note_on,69,0,45
1,note_on,72,0,0
1,note_on,77,0,0
1,note_on,76,45,0
1,note_on,68,45,0
1,note_on,68,0,45
1,note_on,76,0,0
1,note_on,67,46,0
1,note_on,70,46,0
1,note_on,75,46,0
1,note_on,75,0,45
1,note_on,70,0,0
1,note_on,67,0,0
1,note_on,74,49,0
1,note_on,66,49,0
1,note_on,66,0,45
1,note_on,74,0,0
1,note_on,68,50,0
1,note_on,73,50,0
1,note_on,65,50,0
1,note_on,65,0,45
1,note_on,73,0,0
1,note_on,68,0,0
1,note_on,64,51,0
1,note_on,67,51,0
1,note_on,72,51,0
1,note_on,72,0,60
1,note_on,67,0,0
1,note_on,64,0,0
1,note_on,64,37,180
1,note_on,67,37,0
1,note_on,76,43,0
1,note_on,70,37,0
1,note_on,70,0,90
1,note_on,64,0,0
1,note_on,67,0,0
1,note_on,76,0,0
1,note_on,65,42,150
1,note_on,73,42,0
1,note_on,77,46,0
1,note_on,68,42,0
1,note_on,68,0,90
1,note_on,65,0,0
1,note_on,73,0,0
1,note_on,77,0,0
1,note_on,68,37,150
1,note_on,71,37,0
1,note_on,80,43,0
1,note_on,74,37,0
1,note_on,74,0,90
1,note_on,68,0,0
1,note_on,71,0,0
1,note_on,80,0,0
1,note_on,76,37,150
1,note_on,79,43,0
1,note_on,67,37,0
1,note_on,67,0,240
1,note_on,79,0,0
1,note_on,76,0,0
1,note_on,72,36,0
1,note_on,72,0,90
1,note_on,68,50,150
1,note_on,65,50,0
1,note_on,65,0,48
1,note_on,64,45,0
1,note_on,64,0,48
1,note_on,63,45,0
1,note_on,63,0,48
1,note_on,62,46,0
1,note_on,62,0,48
1,note_on,61,49,0
1,note_on,61,0,48
1,note_on,60,50,0
1,note_on,60,0,48
1,note_on,59,51,0
1,note_on,59,0,48
1,note_on,58,53,0
1,note_on,58,0,48
1,note_on,57,54,0
1,note_on,57,0,48
1,note_on,56,55,0
1,note_on,56,0,48
1,note_on,68,0,0
1,note_on,65,57,0
1,note_on,62,57,0
1,note_on,62,0,60
1,note_on,65,0,0
1,note_on,56,41,180
1,note_on,62,45,0
1,note_on,53,41,0
1,note_on,53,0,90
1,note_on,62,0,0
1,note_on,56,0,0
1,note_on,54,45,150
1,note_on,63,45,0
1,note_on,59,45,0
1,note_on,59,0,90
1,note_on,63,0,0
1,note_on,54,0,0
1,note_on,57,42,150
1,note_on,60,42,0
1,note_on,66,46,0
1,note_on,66,0,90
1,note_on,60,0,0
1,note_on,57,0,0
1,note_on,65,51,150
1,note_on,62,45,0
1,note_on,62,0,240
1,note_on,65,0,0
1,note_on,53,38,0
1,note_on,58,44,0
1,note_on,58,0,90
1,note_on,53,0,0
1,note_on,68,50,150
1,note_on,64,50,0
1,note_on,64,0,48
1,note_on,63,45,0
1,note_on,63,0,48
1,note_on,62,45,0
1,note_on,62,0,48
1,note_on,61,46,0
1,note_on,61,0,48
1,note_on,60,49,0
1,note_on,60,0,48
1,note_on,59,50,0
1,note_on,59,0,48
1,note_on,58,51,0
1,note_on,58,0,48
1,note_on,57,53,0
1,note_on,57,0,48
1,note_on,56,54,0
1,note_on,56,0,48
1,note_on,59,55,0
1,note_on,59,0,48
1,note_on,68,0,0
1,note_on,62,57,0
1,note_on,65,57,0
1,note_on,65,0,60
1,note_on,62,0,0
1,note_on,74,52,180
1,note_on,68,45,0
1,note_on,62,45,0
1,note_on,65,45,0
1,note_on,65,0,90
1,note_on,74,0,0
1,note_on,68,0,0
1,note_on,62,0,0
1,note_on,75,67,150
1,note_on,66,60,0
1,note_on,63,60,0
1,note_on,71,60,0
1,note_on,71,0,90
1,note_on,75,0,0
1,note_on,66,0,0
1,note_on,63,0,0
1,note_on,72,60,150
1,note_on,78,67,0
1,note_on,69,60,0
1,note_on,66,60,0
1,note_on,66,0,90
1,note_on,72,0,0
1,note_on,78,0,0
1,note_on,69,0,0
1,note_on,65,63,135
1,note_on,70,63,5
1,note_on,74,63,5
1,note_on,82,79,5
1,note_on,82,0,240
1,note_on,65,0,0
1,note_on,70,0,0
1,note_on,74,0,0
1,note_on,58,65,0
1,note_on,58,0,90
1,note_on,81,63,210
1,note_on,93,70,0
1,note_on,93,0,20
1,note_on,81,0,0
1,note_on,91,71,40
1,note_on,79,63,0
1,note_on,79,0,52
1,note_on,91,0,0
1,note_on,89,73,28
1,note_on,77,65,0
1,note_on,77,0,54
1,note_on,89,0,0
1,note_on,87,76,26
1,note_on,75,67,0
1,note_on,75,0,56
1,note_on,87,0,0
1,note_on,73,70,24
1,note_on,85,78,0
1,note_on,85,0,58
1,note_on,73,0,0
1,note_on,83,81,22
1,note_on,71,72,0
1,note_on,71,0,60
1,note_on,83,0,0
1,note_on,50,63,220
1,note_on,62,70,0
1,note_on,58,63,0
1,note_on,53,63,0
1,note_on,53,0,240
1,note_on,50,0,0
1,note_on,62,0,0
1,note_on,58,0,0
1,note_on,85,63,60
1,note_on,97,70,0
1,note_on,97,0,20
1,note_on,85,0,0
1,note_on,95,71,40
1,note_on,83,63,0
1,note_on,83,0,52
1,note_on,95,0,0
1,note_on,93,73,28
1,note_on,81,65,0
1,note_on,81,0,54
1,note_on,93,0,0
1,note_on,91,76,26
1,note_on,79,67,0
1,note_on,79,0,56
1,note_on,91,0,0
1,note_on,89,78,24
1,note_on,77,70,0
1,note_on,77,0,58
1,note_on,89,0,0
1,note_on,75,72,22
1,note_on,87,81,0
1,note_on,87,0,60
1,note_on,75,0,0
1,note_on,65,70,220
1,note_on,53,63,0
1,note_on,58,63,0
1,note_on,62,63,0
1,note_on,62,0,240
1,note_on,65,0,0
1,note_on,53,0,0
1,note_on,58,0,0
1,note_on,88,59,40
1,note_on,100,66,0
1,note_on,100,0,40
1,note_on,88,0,0
1,note_on,98,66,40
1,note_on,86,59,0
1,note_on,86,0,40
1,note_on,98,0,0
1,note_on,96,67,40
1,note_on,84,60,0
1,note_on,84,0,40
1,note_on,96,0,0
1,note_on,94,67,40
1,note_on,82,60,0
1,note_on,82,0,40
1,note_on,94,0,0
1,note_on,92,69,40
1,note_on,80,62,0
1,note_on,80,0,40
1,note_on,92,0,0
1,note_on,78,62,40
1,note_on,90,69,0
1,note_on,90,0,40
1,note_on,78,0,0
1,note_on,88,70,40
1,note_on,76,63,0
1,note_on,76,0,40
1,note_on,88,0,0
1,note_on,86,70,40
1,note_on,74,63,0
1,note_on,74,0,40
1,note_on,86,0,0
1,note_on,84,71,40
1,note_on,72,63,0
1,note_on,72,0,45
1,note_on,84,0,0
1,note_on,82,71,35
1,note_on,70,63,0
1,note_on,70,0,50
1,note_on,82,0,0
1,note_on,80,72,30
1,note_on,68,64,0
1,note_on,68,0,50
1,note_on,80,0,0
1,note_on,78,72,30
1,note_on,66,64,0
1,note_on,66,0,50
1,note_on,78,0,0
1,note_on,64,64,30
1,note_on,76,72,0
1,note_on,76,0,50
1,note_on,64,0,0
1,note_on,74,72,30
1,note_on,62,64,0
1,note_on,62,0,52
1,note_on,74,0,0
1,note_on,60,65,28
1,note_on,72,73,0
1,note_on,72,0,54
1,note_on,60,0,0
1,note_on,70,73,26
1,note_on,58,65,0
1,note_on,58,0,56
1,note_on,70,0,0
1,note_on,68,73,24
1,note_on,56,65,0
1,note_on,56,0,58
1,note_on,68,0,0
1,note_on,62,73,22
1,note_on,50,65,0
1,note_on,50,0,60
1,note_on,62,0,0
1,note_on,45,74,220
1,note_on,45,0,40
1,note_on,46,72,0
1,note_on,46,0,40
1,note_on,50,72,0
1,note_on,53,73,40
1,note_on,50,0,5
1,note_on,56,73,35
1,note_on,53,0,6
1,note_on,58,74,34
1,note_on,56,0,7
1,note_on,62,74,33
1,note_on,58,0,8
1,note_on,65,76,32
1,note_on,62,0,9
1,note_on,68,76,31
1,note_on,65,0,10
1,note_on,68,0,30
1,note_on,70,77,0
1,note_on,70,0,40
1,note_on,74,77,0
1,note_on,74,0,40
1,note_on,77,77,0
1,note_on,77,0,40
1,note_on,80,78,0
1,note_on,80,0,48
1,note_on,82,78,0
1,note_on,82,0,48
1,note_on,86,79,0
1,note_on,86,0,48
1,note_on,89,80,0
1,note_on,89,0,48
1,note_on,92,80,0
1,note_on,92,0,48
1,note_on,93,81,0
1,note_on,93,0,25
1,note_on,96,78,9
1,note_on,96,0,30
1,note_on,94,77,4
1,note_on,94,0,30
1,note_on,92,77,4
1,note_on,92,0,30
1,note_on,89,77,4
1,note_on,89,0,30
1,note_on,86,77,4
1,note_on,86,0,30
1,note_on,82,77,4
1,note_on,82,0,30
1,note_on,81,81,6
1,note_on,81,0,30
1,note_on,84,78,4
1,note_on,84,0,34
1,note_on,82,77,0
1,note_on,82,0,34
1,note_on,80,77,0
1,note_on,80,0,34
1,note_on,77,77,0
1,note_on,77,0,34
1,note_on,74,77,0
1,note_on,74,0,34
1,note_on,70,77,0
1,note_on,70,0,34
1,note_on,69,81,2
1,note_on,69,0,30
1,note_on,72,78,4
1,note_on,72,0,34
1,note_on,70,77,0
1,note_on,70,0,34
1,note_on,68,77,0
1,note_on,68,0,34
1,note_on,65,77,0
1,note_on,65,0,34
1,note_on,62,77,0
1,note_on,62,0,34
1,note_on,58,76,0
1,note_on,58,0,34
1,note_on,57,78,2
1,note_on,58,80,48
1,note_on,57,0,2
1,note_on,62,83,46
1,note_on,58,0,2
1,note_on,65,85,46
1,note_on,62,0,2
1,note_on,68,88,46
1,note_on,65,0,7
1,note_on,68,0,41
1,note_on,58,64,37
1,note_on,70,81,0
1,note_on,70,0,13
1,note_on,58,0,0
1,note_on,74,73,25
1,note_on,62,58,0
1,note_on,62,0,37
1,note_on,74,0,0
1,note_on,72,74,13
1,note_on,60,59,0
1,note_on,60,0,37
1,note_on,72,0,0
1,note_on,70,77,13
1,note_on,58,62,0
1,note_on,58,0,37
1,note_on,70,0,0
1,note_on,68,79,13
1,note_on,56,63,0
1,note_on,56,0,37
1,note_on,68,0,0
1,note_on,66,81,13
1,note_on,54,64,0
1,note_on,54,0,37
1,note_on,66,0,0
1,note_on,64,82,13
1,note_on,52,65,0
1,note_on,52,0,37
1,note_on,64,0,0
1,note_on,62,84,13
1,note_on,50,66,0
1,note_on,50,0,37
1,note_on,62,0,0
1,note_on,48,69,13
1,note_on,60,86,0
1,note_on,60,0,37
1,note_on,48,0,0
1,note_on,63,64,258
1,note_on,67,64,0
1,note_on,75,81,0
1,note_on,75,0,100
1,note_on,67,0,0
1,note_on,63,0,0
1,note_on,65,70,140
1,note_on,68,70,0
1,note_on,77,87,0
1,note_on,77,0,100
1,note_on,68,0,0
1,note_on,65,0,0
1,note_on,66,64,140
1,note_on,69,64,0
1,note_on,78,81,0
1,note_on,78,0,100
1,note_on,69,0,0
1,note_on,66,0,0
1,note_on,70,70,140
1,note_on,67,70,0
1,note_on,79,87,0
1,note_on,79,0,240
1,note_on,67,0,0
1,note_on,70,0,0
1,note_on,63,64,0
1,note_on,75,80,0
1,note_on,75,0,120
1,note_on,63,0,0
1,note_on,58,77,171
1,note_on,70,77,0
1,note_on,70,0,17
1,note_on,58,0,0
1,note_on,65,70,34
1,note_on,77,70,0
1,note_on,77,0,51
1,note_on,65,0,0
1,note_on,62,72,17
1,note_on,74,72,0
1,note_on,74,0,51
1,note_on,62,0,0
1,note_on,58,74,17
1,note_on,70,74,0
1,note_on,70,0,51
1,note_on,58,0,0
1,note_on,55,76,17
1,note_on,67,76,0
1,note_on,67,0,51
1,note_on,55,0,0
1,note_on,51,79,17
1,note_on,63,79,0
1,note_on,63,0,51
1,note_on,51,0,0
1,note_on,48,81,17
1,note_on,60,81,0
1,note_on,60,0,57
1,note_on,48,0,0
1,note_on,63,71,221
1,note_on,67,71,0
1,note_on,75,79,0
1,note_on,75,0,100
1,note_on,67,0,0
1,note_on,63,0,0
1,note_on,65,76,140
1,note_on,68,76,0
1,note_on,77,85,0
1,note_on,77,0,100
1,note_on,68,0,0
1,note_on,65,0,0
1,note_on,67,71,140
1,note_on,70,71,0
1,note_on,79,79,0
1,note_on,79,0,100
1,note_on,70,0,0
1,note_on,67,0,0
1,note_on,63,66,140
1,note_on,67,66,0
1,note_on,75,74,0
1,note_on,75,0,460
1,note_on,67,0,0
1,note_on,63,0,0
1,note_on,93,41,20
1,note_on,93,0,30
1,note_on,94,36,2
1,note_on,94,0,30
1,note_on,99,38,2
1,note_on,99,0,24
1,note_on,96,36,2
1,note_on,96,0,24
1,note_on,94,36,2
1,note_on,94,0,24
1,note_on,92,36,2
1,note_on,92,0,24
1,note_on,91,33,2
1,note_on,91,0,24
1,note_on,55,29,528
1,note_on,58,29,0
1,note_on,63,33,0
1,note_on,63,0,90
1,note_on,58,0,0
1,note_on,55,0,0
1,note_on,56,31,150
1,note_on,59,31,0
1,note_on,65,36,0
1,note_on,65,0,90
1,note_on,59,0,0
1,note_on,56,0,0
1,note_on,57,30,150
1,note_on,60,30,0
1,note_on,66,35,0
1,note_on,66,0,90
1,note_on,60,0,0
1,note_on,57,0,0
1,note_on,59,30,150
1,note_on,67,35,0
1,note_on,67,0,240
1,note_on,59,0,0
1,note_on,55,28,0
1,note_on,62,32,0
1,note_on,62,0,120
1,note_on,55,0,0
1,note_on,94,27,120
1,note_on,94,0,30
1,note_on,95,27,0
1,note_on,95,0,30
1,note_on,103,29,0
1,note_on,103,0,30
1,note_on,102,29,0
1,note_on,102,0,30
1,note_on,100,29,0
1,note_on,100,0,30
1,note_on,98,29,0
1,note_on,98,0,30
1,note_on,96,29,0
1,note_on,96,0,30
1,note_on,95,28,0
1,note_on,95,0,30
1,note_on,93,28,0
1,note_on,93,0,30
1,note_on,91,28,0
1,note_on,91,0,30
1,note_on,90,28,0
1,note_on,90,0,30
1,note_on,88,28,0
1,note_on,88,0,30
1,note_on,86,27,0
1,note_on,86,0,30
1,note_on,84,27,0
1,note_on,84,0,30
1,note_on,83,27,0
1,note_on,83,0,30
1,note_on,81,27,0
1,note_on,81,0,30
1,note_on,79,27,0
1,note_on,79,0,90
1,note_on,60,32,150
1,note_on,64,32,0
1,note_on,67,36,0
1,note_on,67,0,220
1,note_on,64,0,0
1,note_on,60,0,0
1,note_on,60,32,20
1,note_on,68,36,0
1,note_on,65,32,0
1,note_on,65,0,200
1,note_on,68,0,0
1,note_on,60,0,0
1,note_on,56,30,40
1,note_on,62,30,0
1,note_on,70,35,0
1,note_on,70,0,220
1,note_on,62,0,0
1,note_on,56,0,0
1,note_on,55,29,20
1,note_on,63,29,0
1,note_on,70,33,0
1,note_on,70,0,450
1,note_on,63,0,0
1,note_on,55,0,0
1,note_on,55,79,750
1,note_on,55,0,120
1,note_on,60,82,120
1,note_on,67,78,240
1,note_on,67,0,240
1,note_on,62,82,0
1,note_on,60,0,240
1,note_on,59,79,0
1,note_on,59,0,237
1,note_on,74,82,3
1,note_on,62,0,240
1,note_on,65,79,0
1,note_on,65,0,120
1,note_on,63,81,120
1,note_on,74,0,240
1,note_on,67,83,0
1,note_on,67,0,120
1,note_on,63,0,118
1,note_on,79,86,2
1,note_on,72,77,240
1,note_on,72,0,120
1,note_on,79,0,0
1,note_on,80,72,0
1,note_on,80,0,120
1,note_on,74,77,0
1,note_on,72,77,0
1,note_on,72,0,240
1,note_on,62,64,0
1,note_on,71,72,0
1,note_on,71,0,240
1,note_on,62,0,0
1,note_on,74,0,0
1,note_on,91,85,0
1,note_on,86,76,0
1,note_on,83,76,0
1,note_on,79,76,0
1,note_on,79,0,360
1,note_on,91,0,0
1,note_on,86,0,0
1,note_on,83,0,0
1,note_on,91,76,0
1,note_on,79,67,0
1,note_on,79,0,90
1,note_on,91,0,0
1,note_on,80,71,30
1,note_on,92,79,0
1,note_on,92,0,90
1,note_on,80,0,0
1,note_on,79,67,30
1,note_on,91,76,0
1,note_on,91,0,90
1,note_on,79,0,0
1,note_on,80,67,30
1,note_on,92,76,0
1,note_on,92,0,90
1,note_on,80,0,0
1,note_on,74,67,30
1,note_on,86,76,0
1,note_on,86,0,90
1,note_on,74,0,0
1,note_on,91,79,30
1,note_on,79,71,0
1,note_on,79,0,90
1,note_on,91,0,0
1,note_on,78,67,30
1,note_on,90,76,0
1,note_on,90,0,90
1,note_on,78,0,0
1,note_on,79,67,30
1,note_on,91,76,0
1,note_on,91,0,90
1,note_on,79,0,0
1,note_on,84,76,30
1,note_on,72,67,0
1,note_on,72,0,90
1,note_on,84,0,0
1,note_on,89,79,30
1,note_on,77,71,0
1,note_on,77,0,90
1,note_on,89,0,0
1,note_on,76,69,30
1,note_on,88,77,0
1,note_on,88,0,90
1,note_on,76,0,0
1,note_on,77,69,30
1,note_on,89,77,0
1,note_on,89,0,90
1,note_on,77,0,0
1,note_on,71,69,30
1,note_on,83,77,0
1,note_on,83,0,90
1,note_on,71,0,0
1,note_on,75,71,30
1,note_on,87,79,0
1,note_on,87,0,90
1,note_on,75,0,0
1,note_on,74,67,30
1,note_on,86,76,0
1,note_on,86,0,90
1,note_on,74,0,0
1,note_on,75,67,30
1,note_on,87,76,0
1,note_on,87,0,90
1,note_on,75,0,0
1,note_on,72,67,30
1,note_on,84,76,0
1,note_on,84,0,90
1,note_on,72,0,0
1,note_on,72,67,30
1,note_on,84,76,0
1,note_on,84,0,120
1,note_on,72,0,0
1,note_on,70,64,0
1,note_on,82,72,0
1,note_on,82,0,100
1,note_on,70,0,0
1,note_on,70,64,20
1,note_on,82,72,0
1,note_on,82,0,120
1,note_on,70,0,0
1,note_on,68,64,0
1,note_on,80,72,0
1,note_on,80,0,100
1,note_on,68,0,0
1,note_on,68,69,20
1,note_on,80,77,0
1,note_on,80,0,120
1,note_on,68,0,0
1,note_on,67,64,0
1,note_on,79,72,0
1,note_on,79,0,100
1,note_on,67,0,0
1,note_on,67,64,20
1,note_on,79,72,0
1,note_on,79,0,120
1,note_on,67,0,0
1,note_on,66,64,0
1,note_on,78,72,0
1,note_on,78,0,100
1,note_on,66,0,0
1,note_on,66,67,20
1,note_on,78,76,0
1,note_on,78,0,120
1,note_on,66,0,0
1,note_on,67,66,0
1,note_on,79,74,0
1,note_on,79,0,90
1,note_on,67,0,0
1,note_on,91,95,30
1,note_on,79,85,0
1,note_on,79,0,120
1,note_on,91,0,0
1,note_on,55,73,120
1,note_on,67,82,0
1,note_on,67,0,360
1,note_on,55,0,0
1,note_on,51,71,0
1,note_on,63,79,0
1,note_on,63,0,120
1,note_on,51,0,0
1,note_on,48,73,0
1,note_on,60,82,0
1,note_on,60,0,120
1,note_on,48,0,0
1,note_on,47,70,0
1,note_on,59,78,0
1,note_on,59,0,120
1,note_on,47,0,0
1,note_on,48,70,0
1,note_on,60,78,0
1,note_on,60,0,90
1,note_on,48,0,0
1,note_on,50,70,30
1,note_on,62,78,0
1,note_on,62,0,90
1,note_on,50,0,0
1,note_on,51,73,30
1,note_on,63,82,0
1,note_on,63,0,120
1,note_on,51,0,0
1,note_on,50,70,0
1,note_on,62,78,0
1,note_on,62,0,120
1,note_on,50,0,0
1,note_on,51,70,0
1,note_on,63,78,0
1,note_on,63,0,90
1,note_on,51,0,0
1,note_on,53,70,30
1,note_on,65,78,0
1,note_on,65,0,90
1,note_on,53,0,0
1,note_on,55,73,30
1,note_on,67,82,0
1,note_on,67,0,120
1,note_on,55,0,0
1,note_on,54,71,0
1,note_on,66,79,0
1,note_on,66,0,120
1,note_on,54,0,0
1,note_on,55,71,0
1,note_on,67,79,0
1,note_on,67,0,90
1,note_on,55,0,0
1,note_on,57,71,30
1,note_on,69,79,0
1,note_on,69,0,90
1,note_on,57,0,0
1,note_on,59,76,30
1,note_on,71,85,0
1,note_on,71,0,120
1,note_on,59,0,0
1,note_on,57,71,0
1,note_on,69,79,0
1,note_on,69,0,120
1,note_on,57,0,0
1,note_on,59,71,0
1,note_on,71,79,0
1,note_on,71,0,90
1,note_on,59,0,0
1,note_on,55,71,30
1,note_on,67,79,0
1,note_on,67,0,90
1,note_on,55,0,0
1,note_on,60,79,30
1,note_on,72,88,0
1,note_on,72,0,120
1,note_on,60,0,0
1,note_on,59,72,0
1,note_on,71,80,0
1,note_on,71,0,120
1,note_on,59,0,0
1,note_on,60,72,0
1,note_on,72,80,0
1,note_on,72,0,90
1,note_on,60,0,0
1,note_on,62,72,30
1,note_on,74,80,0
1,note_on,74,0,90
1,note_on,62,0,0
1,note_on,63,83,30
1,note_on,75,92,0
1,note_on,75,0,120
1,note_on,63,0,0
1,note_on,62,72,0
1,note_on,74,81,0
1,note_on,74,0,120
1,note_on,62,0,0
1,note_on,63,72,0
1,note_on,75,81,0
1,note_on,75,0,90
1,note_on,63,0,0
1,note_on,65,72,30
1,note_on,77,81,0
1,note_on,77,0,90
1,note_on,65,0,0
1,note_on,67,83,30
1,note_on,79,92,0
1,note_on,79,0,120
1,note_on,67,0,0
1,note_on,55,93,120
1,note_on,55,0,180
1,note_on,71,57,780
1,note_on,83,72,0
1,note_on,77,72,0
1,note_on,77,0,240
1,note_on,83,0,0
1,note_on,71,0,0
1,note_on,83,64,0
1,note_on,87,81,0
1,note_on,75,64,0
1,note_on,75,0,240
1,note_on,87,0,0
1,note_on,83,0,0
1,note_on,72,56,0
1,note_on,75,56,0
1,note_on,84,71,0
1,note_on,84,0,240
1,note_on,75,0,0
1,note_on,72,0,0
1,note_on,74,60,240
1,note_on,86,76,0
1,note_on,80,60,0
1,note_on,80,0,240
1,note_on,86,0,0
1,note_on,74,0,0
1,note_on,91,82,0
1,note_on,86,65,0
1,note_on,79,65,0
1,note_on,79,0,240
1,note_on,86,0,0
1,note_on,91,0,0
1,note_on,72,58,0
1,note_on,79,58,0
1,note_on,84,73,0
1,note_on,84,0,240
1,note_on,79,0,0
1,note_on,72,0,0
1,note_on,80,67,240
1,note_on,84,67,0
1,note_on,92,85,0
1,note_on,92,0,240
1,note_on,84,0,0
1,note_on,80,0,0
1,note_on,79,73,0
1,note_on,84,73,0
1,note_on,91,92,0
1,note_on,91,0,240
1,note_on,84,0,0
1,note_on,79,0,0
1,note_on,95,86,0
1,note_on,91,69,0
1,note_on,83,69,0
1,note_on,83,0,180
1,note_on,91,0,0
1,note_on,95,0,0
1,note_on,84,77,60
1,note_on,87,77,0
1,note_on,96,97,0
1,note_on,96,0,180
1,note_on,87,0,0
1,note_on,84,0,0
1,note_on,63,65,60
1,note_on,67,65,0
1,note_on,72,82,0
1,note_on,72,0,180
1,note_on,67,0,0
1,note_on,63,0,0
1,note_on,58,81,60
1,note_on,70,90,0
1,note_on,62,66,240
1,note_on,65,66,0
1,note_on,70,0,120
1,note_on,58,0,0
1,note_on,58,70,0
1,note_on,70,78,0
1,note_on,70,0,120
1,note_on,65,0,0
1,note_on,62,0,0
1,note_on,58,0,0
1,note_on,58,73,0
1,note_on,70,82,0
1,note_on,70,0,120
1,note_on,58,0,0
1,note_on,57,64,0
1,note_on,69,72,0
1,note_on,69,0,120
1,note_on,57,0,0
1,note_on,58,66,0
1,note_on,70,74,0
1,note_on,70,0,120
1,note_on,58,0,0
1,note_on,62,69,0
1,note_on,74,77,0
1,note_on,74,0,120
1,note_on,62,0,0
1,note_on,65,71,0
1,note_on,77,79,0
1,note_on,77,0,120
1,note_on,65,0,0
1,note_on,70,72,0
1,note_on,82,81,0
1,note_on,82,0,120
1,note_on,70,0,0
1,note_on,74,73,0
1,note_on,86,83,0
1,note_on,86,0,120
1,note_on,74,0,0
1,note_on,77,76,0
1,note_on,89,85,0
1,note_on,89,0,120
1,note_on,77,0,0
1,note_on,80,78,0
1,note_on,92,87,0
1,note_on,92,0,120
1,note_on,80,0,0
1,note_on,77,73,0
1,note_on,89,82,0
1,note_on,89,0,120
1,note_on,77,0,0
1,note_on,86,70,0
1,note_on,74,63,0
1,note_on,77,63,0
1,note_on,77,0,180
1,note_on,74,0,0
1,note_on,86,0,0
1,note_on,58,81,60
1,note_on,70,90,0
1,note_on,62,59,240
1,note_on,65,66,0
1,note_on,70,0,120
1,note_on,58,0,0
1,note_on,58,70,0
1,note_on,70,78,0
1,note_on,70,0,120
1,note_on,65,0,0
1,note_on,62,0,0
1,note_on,58,0,0
1,note_on,58,73,0
1,note_on,70,82,0
1,note_on,70,0,120
1,note_on,58,0,0
1,note_on,57,64,0
1,note_on,69,72,0
1,note_on,69,0,120
1,note_on,57,0,0
1,note_on,58,66,0
1,note_on,70,74,0
1,note_on,70,0,120
1,note_on,58,0,0
1,note_on,62,69,0
1,note_on,74,77,0
1,note_on,74,0,120
1,note_on,62,0,0
1,note_on,65,71,0
1,note_on,77,79,0
1,note_on,77,0,120
1,note_on,65,0,0
1,note_on,70,72,0
1,note_on,82,81,0
1,note_on,82,0,120
1,note_on,70,0,0
1,note_on,74,73,0
1,note_on,86,83,0
1,note_on,86,0,120
1,note_on,74,0,0
1,note_on,77,76,0
1,note_on,89,85,0
1,note_on,89,0,120
1,note_on,77,0,0
1,note_on,80,78,0
1,note_on,92,87,0
1,note_on,92,0,120
1,note_on,80,0,0
1,note_on,77,73,0
1,note_on,89,82,0
1,note_on,89,0,90
1,note_on,77,0,0
1,note_on,83,70,30
1,note_on,74,63,0
1,note_on,71,63,0
1,note_on,71,0,180
1,note_on,74,0,0
1,note_on,83,0,0
1,note_on,67,82,60
1,note_on,79,91,0
1,note_on,79,0,360
1,note_on,67,0,0
1,note_on,63,70,0
1,note_on,75,78,0
1,note_on,75,0,120
1,note_on,63,0,0
1,note_on,60,73,0
1,note_on,72,83,0
1,note_on,72,0,90
1,note_on,60,0,0
1,note_on,59,70,30
1,note_on,71,78,0
1,note_on,71,0,90
1,note_on,59,0,0
1,note_on,63,51,30
1,note_on,67,51,0
1,note_on,60,70,0
1,note_on,72,78,0
1,note_on,72,0,120
1,note_on,60,0,0
1,note_on,62,70,0
1,note_on,74,78,0
1,note_on,67,0,60
1,note_on,63,0,0
1,note_on,62,0,60
1,note_on,74,0,0
1,note_on,67,54,0
1,note_on,72,54,0
1,note_on,63,72,0
1,note_on,75,81,0
1,note_on,75,0,90
1,note_on,63,0,0
1,note_on,62,70,30
1,note_on,74,78,0
1,note_on,74,0,90
1,note_on,62,0,0
1,note_on,63,70,30
1,note_on,75,78,0
1,note_on,75,0,120
1,note_on,63,0,0
1,note_on,65,70,0
1,note_on,77,78,0
1,note_on,77,0,120
1,note_on,67,0,0
1,note_on,72,0,0
1,note_on,65,0,0
1,note_on,74,54,0
1,note_on,72,54,0
1,note_on,67,72,0
1,note_on,79,81,0
1,note_on,79,0,90
1,note_on,67,0,0
1,note_on,66,70,30
1,note_on,78,78,0
1,note_on,72,0,60
1,note_on,74,0,0
1,note_on,66,0,40
1,note_on,78,0,0
1,note_on,71,54,20
1,note_on,74,54,0
1,note_on,67,70,0
1,note_on,79,78,0
1,note_on,79,0,120
1,note_on,67,0,0
1,note_on,81,78,0
1,note_on,69,70,0
1,note_on,74,0,60
1,note_on,71,0,0
1,note_on,81,0,60
1,note_on,69,0,0
1,note_on,71,74,0
1,note_on,83,84,0
1,note_on,83,0,90
1,note_on,71,0,0
1,note_on,69,70,30
1,note_on,81,78,0
1,note_on,81,0,110
1,note_on,69,0,0
1,note_on,74,54,10
1,note_on,77,54,0
1,note_on,71,70,0
1,note_on,83,78,0
1,note_on,83,0,120
1,note_on,71,0,0
1,note_on,67,70,0
1,note_on,79,78,0
1,note_on,77,0,60
1,note_on,74,0,0
1,note_on,67,0,60
1,note_on,79,0,0
1,note_on,75,60,0
1,note_on,72,79,0
1,note_on,84,88,0
1,note_on,84,0,100
1,note_on,72,0,0
1,note_on,71,69,20
1,note_on,83,77,0
1,note_on,75,0,60
1,note_on,83,0,60
1,note_on,71,0,0
1,note_on,79,60,0
1,note_on,75,60,0
1,note_on,72,70,0
1,note_on,84,78,0
1,note_on,84,0,120
1,note_on,72,0,0
1,note_on,74,72,0
1,note_on,86,80,0
1,note_on,75,0,60
1,note_on,79,0,0
1,note_on,74,0,60
1,note_on,86,0,0
1,note_on,84,63,0
1,note_on,79,63,0
1,note_on,75,81,0
1,note_on,87,90,0
1,note_on,87,0,100
1,note_on,75,0,0
1,note_on,74,70,20
1,note_on,86,78,0
1,note_on,79,0,60
1,note_on,84,0,0
1,note_on,74,0,60
1,note_on,86,0,0
1,note_on,80,63,0
1,note_on,84,63,0
1,note_on,75,72,0
1,note_on,87,81,0
1,note_on,87,0,120
1,note_on,75,0,0
1,note_on,77,73,0
1,note_on,89,83,0
1,note_on,84,0,60
1,note_on,80,0,0
1,note_on,77,0,60
1,note_on,89,0,0
1,note_on,83,81,0
1,note_on,79,81,0
1,note_on,91,89,0
1,note_on,91,0,120
1,note_on,79,0,0
1,note_on,83,0,0
1,note_on,59,69,120
1,note_on,62,69,0
1,note_on,67,77,0
1,note_on,67,0,180
1,note_on,62,0,0
1,note_on,59,0,0
1,note_on,91,85,60
1,note_on,83,76,0
1,note_on,86,76,0
1,note_on,79,76,0
1,note_on,79,0,360
1,note_on,91,0,0
1,note_on,83,0,0
1,note_on,86,0,0
1,note_on,79,73,0
1,note_on,91,83,0
1,note_on,91,0,120
1,note_on,79,0,0
1,note_on,86,77,0
1,note_on,80,77,0
1,note_on,92,86,0
1,note_on,92,0,120
1,note_on,80,0,0
1,note_on,86,0,0
1,note_on,91,83,0
1,note_on,79,73,0
1,note_on,79,0,120
1,note_on,91,0,0
1,note_on,86,77,0
1,note_on,92,83,0
1,note_on,80,73,0
1,note_on,80,0,120
1,note_on,92,0,0
1,note_on,86,0,0
1,note_on,86,83,0
1,note_on,74,73,0
1,note_on,74,0,120
1,note_on,86,0,0
1,note_on,79,77,0
1,note_on,91,86,0
1,note_on,91,0,120
1,note_on,79,0,0
1,note_on,78,73,0
1,note_on,90,83,0
1,note_on,90,0,120
1,note_on,78,0,0
1,note_on,84,73,0
1,note_on,79,73,0
1,note_on,91,83,0
1,note_on,91,0,120
1,note_on,79,0,0
1,note_on,84,0,0
1,note_on,84,83,0
1,note_on,72,73,0
1,note_on,72,0,120
1,note_on,84,0,0
1,note_on,84,77,0
1,note_on,89,86,0
1,note_on,77,77,0
1,note_on,77,0,120
1,note_on,89,0,0
1,note_on,84,0,0
1,note_on,76,74,0
1,note_on,88,84,0
1,note_on,88,0,120
1,note_on,76,0,0
1,note_on,83,74,0
1,note_on,89,84,0
1,note_on,77,74,0
1,note_on,77,0,90
1,note_on,89,0,0
1,note_on,83,0,0
1,note_on,71,74,30
1,note_on,83,84,0
1,note_on,83,0,120
1,note_on,71,0,0
1,note_on,87,86,0
1,note_on,75,77,0
1,note_on,75,0,120
1,note_on,87,0,0
1,note_on,86,83,0
1,note_on,74,73,0
1,note_on,74,0,120
1,note_on,86,0,0
1,note_on,79,73,0
1,note_on,87,83,0
1,note_on,75,73,0
1,note_on,75,0,90
1,note_on,87,0,0
1,note_on,79,0,0
1,note_on,84,83,30
1,note_on,72,73,0
1,note_on,72,0,120
1,note_on,84,0,0
1,note_on,74,77,0
1,note_on,70,77,0
1,note_on,82,86,0
1,note_on,82,0,90
1,note_on,70,0,0
1,note_on,74,0,0
1,note_on,72,73,30
1,note_on,68,73,0
1,note_on,80,83,0
1,note_on,80,0,90
1,note_on,68,0,0
1,note_on,72,0,0
1,note_on,67,73,30
1,note_on,79,83,0
1,note_on,79,0,90
1,note_on,67,0,0
1,note_on,65,73,30
1,note_on,77,83,0
1,note_on,77,0,90
1,note_on,65,0,0
1,note_on,63,78,30
1,note_on,75,87,0
1,note_on,75,0,90
1,note_on,63,0,0
1,note_on,79,83,30
1,note_on,67,73,0
1,note_on,67,0,90
1,note_on,79,0,0
1,note_on,71,83,30
1,note_on,65,73,0
1,note_on,77,83,0
1,note_on,77,0,90
1,note_on,65,0,0
1,note_on,71,0,0
1,note_on,74,83,30
1,note_on,62,73,0
1,note_on,62,0,90
1,note_on,74,0,10
1,note_on,71,83,20
1,note_on,59,73,0
1,note_on,59,0,120
1,note_on,71,0,0
1,note_on,72,82,0
1,note_on,60,73,0
1,note_on,60,0,90
1,note_on,72,0,0
1,note_on,72,81,30
1,note_on,79,81,0
1,note_on,75,81,0
1,note_on,84,90,0
1,note_on,84,0,180
1,note_on,72,0,0
1,note_on,79,0,0
1,note_on,75,0,0
1,note_on,63,78,480
1,note_on,63,0,60
1,note_on,63,82,0
1,note_on,63,0,960
1,note_on,71,78,0
1,note_on,59,70,0
1,note_on,59,0,120
1,note_on,71,0,0
1,note_on,72,72,0
1,note_on,60,64,0
1,note_on,60,0,90
1,note_on,72,0,0
1,note_on,80,55,30
1,note_on,78,55,0
1,note_on,75,55,0
1,note_on,87,62,0
1,note_on,87,0,180
1,note_on,80,0,0
1,note_on,78,0,0
1,note_on,75,0,0
1,note_on,68,60,480
1,note_on,66,54,0
1,note_on,60,54,0
1,note_on,60,0,60
1,note_on,66,0,0
1,note_on,68,0,0
1,note_on,68,67,0
1,note_on,60,60,0
1,note_on,66,60,0
1,note_on,66,0,960
1,note_on,60,0,0
1,note_on,68,0,0
1,note_on,63,45,0
1,note_on,66,45,0
1,note_on,69,50,0
1,note_on,69,0,480
1,note_on,66,0,0
1,note_on,63,0,0
1,note_on,71,51,0
1,note_on,83,57,0
1,note_on,83,0,60
1,note_on,71,0,0
1,note_on,72,48,60
1,note_on,84,54,0
1,note_on,84,0,60
1,note_on,72,0,0
1,note_on,78,46,60
1,note_on,90,53,0
1,note_on,90,0,180
1,note_on,78,0,0
1,note_on,76,48,60
1,note_on,88,54,0
1,note_on,88,0,60
1,note_on,76,0,0
1,note_on,77,45,60
1,note_on,89,50,0
1,note_on,89,0,60
1,note_on,77,0,0
1,note_on,101,49,60
1,note_on,89,44,0
1,note_on,89,0,180
1,note_on,101,0,0
1,note_on,60,41,60
1,note_on,63,41,0
1,note_on,69,52,0
1,note_on,69,0,480
1,note_on,63,0,0
1,note_on,60,0,0
1,note_on,58,42,0
1,note_on,62,42,0
1,note_on,70,53,0
1,note_on,70,0,960
1,note_on,62,0,0
1,note_on,58,0,0
1,note_on,58,45,1440
1,note_on,70,52,0
1,note_on,62,45,240
1,note_on,65,45,0
1,note_on,68,45,0
1,note_on,70,0,120
1,note_on,58,0,0
1,note_on,58,41,0
1,note_on,70,45,0
1,note_on,70,0,90
1,note_on,58,0,0
1,note_on,68,0,30
1,note_on,62,0,0
1,note_on,65,0,0
1,note_on,58,43,0
1,note_on,70,48,0
1,note_on,70,0,60
1,note_on,58,0,0
1,note_on,57,45,60
1,note_on,69,50,0
1,note_on,69,0,60
1,note_on,57,0,0
1,note_on,58,45,60
1,note_on,70,51,0
1,note_on,70,0,60
1,note_on,58,0,0
1,note_on,62,45,60
1,note_on,74,51,0
1,note_on,74,0,60
1,note_on,62,0,0
1,note_on,65,46,60
1,note_on,77,53,0
1,note_on,77,0,60
1,note_on,65,0,0
1,note_on,70,49,60
1,note_on,82,55,0
1,note_on,82,0,60
1,note_on,70,0,0
1,note_on,74,49,60
1,note_on,86,55,0
1,note_on,86,0,60
1,note_on,74,0,0
1,note_on,77,50,60
1,note_on,89,56,0
1,note_on,89,0,60
1,note_on,77,0,0
1,note_on,92,58,60
1,note_on,80,52,0
1,note_on,80,0,60
1,note_on,92,0,0
1,note_on,77,49,60
1,note_on,89,55,0
1,note_on,89,0,60
1,note_on,77,0,0
1,note_on,74,42,60
1,note_on,86,46,0
1,note_on,86,0,120
1,note_on,74,0,0
1,note_on,92,48,600
1,note_on,80,43,0
1,note_on,80,0,60
1,note_on,92,0,0
1,note_on,77,38,60
1,note_on,89,44,0
1,note_on,89,0,60
1,note_on,77,0,0
1,note_on,71,35,60
1,note_on,83,38,0
1,note_on,83,0,120
1,note_on,71,0,0
1,note_on,92,36,600
1,note_on,92,0,60
1,note_on,89,36,0
1,note_on,89,0,60
1,note_on,83,36,0
1,note_on,83,0,60
1,note_on,82,36,0
1,note_on,82,0,60
1,note_on,68,36,240
1,note_on,68,0,60
1,note_on,65,36,0
1,note_on,65,0,60
1,note_on,59,36,0
1,note_on,59,0,60
1,note_on,58,36,0
1,note_on,58,0,60
1,note_on,38,36,240
1,note_on,38,0,120
1,note_on,81,36,330
1,note_on,84,36,10
1,note_on,90,37,10
1,note_on,93,38,10
1,note_on,93,0,240
1,note_on,81,0,0
1,note_on,84,0,0
1,note_on,90,0,0
1,note_on,80,36,220
1,note_on,86,37,10
1,note_on,94,38,10
1,note_on,94,0,240
1,note_on,86,0,0
1,note_on,80,0,0
1,note_on,58,30,180
1,note_on,58,0,60
1,note_on,58,32,0
1,note_on,59,31,40
1,note_on,58,0,20
1,note_on,58,33,20
1,note_on,59,0,20
1,note_on,59,31,20
1,note_on,58,0,20
1,note_on,58,33,20
1,note_on,59,0,20
1,note_on,59,32,20
1,note_on,58,0,20
1,note_on,58,35,20
1,note_on,59,0,20
1,note_on,59,32,20
1,note_on,58,0,20
1,note_on,58,35,20
1,note_on,59,0,20
1,note_on,59,32,20
1,note_on,58,0,20
1,note_on,58,36,20
1,note_on,59,0,20
1,note_on,59,33,20
1,note_on,58,0,20
1,note_on,58,36,20
1,note_on,59,0,20
1,note_on,59,33,20
1,note_on,58,0,20
1,note_on,58,36,20
1,note_on,59,0,20
1,note_on,59,33,20
1,note_on,58,0,20
1,note_on,58,36,20
1,note_on,59,0,20
1,note_on,59,32,20
1,note_on,58,0,20
1,note_on,58,36,20
1,note_on,59,0,20
1,note_on,59,32,10
1,note_on,58,0,15
1,note_on,58,35,15
1,note_on,59,0,15
1,note_on,58,0,45
1,note_on,57,32,0
1,note_on,58,32,60
1,note_on,57,0,20
1,note_on,58,0,40
1,note_on,60,39,480
1,note_on,61,36,40
1,note_on,60,0,20
1,note_on,60,39,20
1,note_on,61,0,20
1,note_on,61,36,20
1,note_on,60,0,20
1,note_on,60,39,20
1,note_on,61,0,20
1,note_on,61,36,20
1,note_on,60,0,20
1,note_on,60,39,20
1,note_on,61,0,20
1,note_on,61,36,10
1,note_on,60,0,15
1,note_on,60,41,15
1,note_on,61,0,15
1,note_on,60,0,45
1,note_on,59,37,0
1,note_on,60,37,60
1,note_on,59,0,20
1,note_on,60,0,40
1,note_on,62,24,1440
1,note_on,62,0,120
1,note_on,81,41,840
1,note_on,81,0,39
1,note_on,82,36,5
1,note_on,82,0,39
1,note_on,87,38,5
1,note_on,87,0,39
1,note_on,84,36,5
1,note_on,84,0,39
1,note_on,82,36,5
1,note_on,82,0,39
1,note_on,80,36,5
1,note_on,80,0,39
1,note_on,79,33,5
1,note_on,79,0,39
1,note_on,55,27,417
1,note_on,58,27,0
1,note_on,63,30,0
1,note_on,63,0,90
1,note_on,58,0,0
1,note_on,55,0,0
1,note_on,56,28,150
1,note_on,58,28,0
1,note_on,65,32,0
1,note_on,65,0,90
1,note_on,58,0,0
1,note_on,56,0,0
1,note_on,57,27,150
1,note_on,58,27,0
1,note_on,66,31,0
1,note_on,66,0,90
1,note_on,58,0,0
1,note_on,57,0,0
1,note_on,58,29,150
1,note_on,67,33,0
1,note_on,67,0,240
1,note_on,58,0,0
1,note_on,55,27,0
1,note_on,63,30,0
1,note_on,63,0,120
1,note_on,55,0,0
1,note_on,81,41,120
1,note_on,81,0,29
1,note_on,82,36,5
1,note_on,82,0,29
1,note_on,91,36,5
1,note_on,91,0,29
1,note_on,89,36,5
1,note_on,89,0,29
1,note_on,87,36,5
1,note_on,87,0,29
1,note_on,86,36,5
1,note_on,86,0,29
1,note_on,84,36,5
1,note_on,84,0,29
1,note_on,82,36,5
1,note_on,82,0,29
1,note_on,80,36,5
1,note_on,80,0,29
1,note_on,79,33,5
1,note_on,79,0,29
1,note_on,55,26,385
1,note_on,58,26,0
1,note_on,63,29,0
1,note_on,63,0,90
1,note_on,58,0,0
1,note_on,55,0,0
1,note_on,56,28,150
1,note_on,62,28,0
1,note_on,65,32,0
1,note_on,65,0,90
1,note_on,62,0,0
1,note_on,56,0,0
1,note_on,58,27,150
1,note_on,67,30,0
1,note_on,67,0,90
1,note_on,58,0,0
1,note_on,55,27,150
1,note_on,63,30,0
1,note_on,63,0,460
1,note_on,55,0,0
1,note_on,93,41,20
1,note_on,93,0,30
1,note_on,94,36,2
1,note_on,94,0,30
1,note_on,99,38,2
1,note_on,99,0,24
1,note_on,96,36,2
1,note_on,96,0,24
1,note_on,94,36,2
1,note_on,94,0,24
1,note_on,92,36,2
1,note_on,92,0,24
1,note_on,91,33,2
1,note_on,91,0,24
1,note_on,55,29,528
1,note_on,58,29,0
1,note_on,63,33,0
1,note_on,63,0,90
1,note_on,58,0,0
1,note_on,55,0,0
1,note_on,56,31,150
1,note_on,58,31,0
1,note_on,65,36,0
1,note_on,65,0,90
1,note_on,58,0,0
1,note_on,56,0,0
1,note_on,57,30,150
1,note_on,58,30,0
1,note_on,66,35,0
1,note_on,66,0,90
1,note_on,58,0,0
1,note_on,57,0,0
1,note_on,58,32,150
1,note_on,67,36,0
1,note_on,67,0,240
1,note_on,58,0,0
1,note_on,55,29,0
1,note_on,63,33,0
1,note_on,63,0,120
1,note_on,55,0,0
1,note_on,93,41,120
1,note_on,93,0,29
1,note_on,94,36,2
1,note_on,94,0,29
1,note_on,103,36,2
1,note_on,103,0,20
1,note_on,101,36,2
1,note_on,101,0,20
1,note_on,99,36,2
1,note_on,99,0,20
1,note_on,98,36,2
1,note_on,98,0,20
1,note_on,96,36,2
1,note_on,96,0,20
1,note_on,94,36,2
1,note_on,94,0,20
1,note_on,92,36,2
1,note_on,92,0,20
1,note_on,91,33,2
1,note_on,91,0,20
1,note_on,55,32,484
1,note_on,58,32,0
1,note_on,63,36,0
1,note_on,63,0,90
1,note_on,58,0,0
1,note_on,55,0,0
1,note_on,56,33,150
1,note_on,62,33,0
1,note_on,65,37,0
1,note_on,65,0,90
1,note_on,62,0,0
1,note_on,56,0,0
1,note_on,62,32,150
1,note_on,56,32,0
1,note_on,67,36,0
1,note_on,67,0,90
1,note_on,56,0,0
1,note_on,62,0,0
1,note_on,55,30,150
1,note_on,63,35,0
1,note_on,63,0,460
1,note_on,55,0,0
1,note_on,62,50,740
1,note_on,58,45,0
1,note_on,58,0,90
1,note_on,62,0,0
1,note_on,58,50,150
1,note_on,60,50,0
1,note_on,63,56,0
1,note_on,63,0,90
1,note_on,60,0,0
1,note_on,58,0,0
1,note_on,58,45,150
1,note_on,61,45,0
1,note_on,64,51,0
1,note_on,64,0,90
1,note_on,61,0,0
1,note_on,58,0,0
1,note_on,62,45,150
1,note_on,65,52,0
1,note_on,65,0,240
1,note_on,62,0,0
1,note_on,58,44,0
1,note_on,62,49,0
1,note_on,62,0,120
1,note_on,58,0,0
1,note_on,62,49,840
1,note_on,58,44,0
1,note_on,58,0,90
1,note_on,62,0,0
1,note_on,57,46,150
1,note_on,63,53,0
1,note_on,63,0,90
1,note_on,57,0,0
1,note_on,57,45,150
1,note_on,65,50,0
1,note_on,65,0,90
1,note_on,57,0,0
1,note_on,62,51,150
1,note_on,58,45,0
1,note_on,58,0,460
1,note_on,62,0,0
1,note_on,70,58,20
1,note_on,70,0,39
1,note_on,69,58,1
1,note_on,69,0,39
1,note_on,68,58,1
1,note_on,68,0,39
1,note_on,67,58,1
1,note_on,67,0,39
1,note_on,62,65,161
1,note_on,62,0,39
1,note_on,61,69,1
1,note_on,61,0,39
1,note_on,60,72,1
1,note_on,60,0,39
1,note_on,59,73,1
1,note_on,59,0,39
1,note_on,58,87,1
1,note_on,58,0,60
1,note_on,74,53,180
1,note_on,62,42,0
1,note_on,70,42,0
1,note_on,70,0,90
1,note_on,62,0,0
1,note_on,74,0,0
1,note_on,70,45,150
1,note_on,75,57,0
1,note_on,63,45,0
1,note_on,63,0,90
1,note_on,75,0,0
1,note_on,70,0,0
1,note_on,64,43,150
1,note_on,70,43,0
1,note_on,76,54,0
1,note_on,76,0,90
1,note_on,70,0,0
1,note_on,64,0,0
1,note_on,65,41,150
1,note_on,70,41,0
1,note_on,77,55,0
1,note_on,77,0,240
1,note_on,74,52,0
1,note_on,74,0,120
1,note_on,70,0,100
1,note_on,65,0,0
1,note_on,60,57,316
1,note_on,60,0,36
1,note_on,62,58,1
1,note_on,62,0,36
1,note_on,63,60,1
1,note_on,63,0,36
1,note_on,64,62,1
1,note_on,64,0,36
1,note_on,67,63,1
1,note_on,67,0,35
1,note_on,65,55,1
1,note_on,74,42,240
1,note_on,68,36,0
1,note_on,68,0,240
1,note_on,74,0,0
1,note_on,69,41,0
1,note_on,75,45,0
1,note_on,65,0,80
1,note_on,65,43,0
1,note_on,65,0,80
1,note_on,67,33,0
1,note_on,67,0,80
1,note_on,75,0,0
1,note_on,69,0,0
1,note_on,63,43,0
1,note_on,77,41,0
1,note_on,72,41,0
1,note_on,63,0,80
1,note_on,60,39,0
1,note_on,60,0,80
1,note_on,62,38,0
1,note_on,62,0,20
1,note_on,58,32,30
1,note_on,65,32,10
1,note_on,70,32,10
1,note_on,72,0,10
1,note_on,77,0,0
1,note_on,74,38,0
1,note_on,74,0,460
1,note_on,70,0,0
1,note_on,58,0,0
1,note_on,65,0,0
1,note_on,77,46,20
1,note_on,73,46,0
1,note_on,82,46,0
1,note_on,82,0,90
1,note_on,73,0,0
1,note_on,77,0,0
1,note_on,81,38,0
1,note_on,81,0,30
1,note_on,80,38,0
1,note_on,72,38,0
1,note_on,72,0,45
1,note_on,80,0,0
1,note_on,79,39,0
1,note_on,74,39,0
1,note_on,71,39,0
1,note_on,71,0,45
1,note_on,74,0,0
1,note_on,79,0,0
1,note_on,78,41,0
1,note_on,70,41,0
1,note_on,70,0,45
1,note_on,78,0,0
1,note_on,77,42,0
1,note_on,72,42,0
1,note_on,69,42,0
1,note_on,69,0,45
1,note_on,72,0,0
1,note_on,77,0,0
1,note_on,76,43,0
1,note_on,68,43,0
1,note_on,68,0,45
1,note_on,76,0,0
1,note_on,75,44,0
1,note_on,70,44,0
1,note_on,67,44,0
1,note_on,67,0,45
1,note_on,70,0,0
1,note_on,75,0,0
1,note_on,74,45,0
1,note_on,66,45,0
1,note_on,66,0,45
1,note_on,74,0,0
1,note_on,73,46,0
1,note_on,68,46,0
1,note_on,65,46,0
1,note_on,65,0,45
1,note_on,68,0,0
1,note_on,73,0,0
1,note_on,64,48,0
1,note_on,67,48,0
1,note_on,72,48,0
1,note_on,72,0,60
1,note_on,67,0,0
1,note_on,64,0,0
1,note_on,55,37,180
1,note_on,64,43,0
1,note_on,58,37,0
1,note_on,58,0,90
1,note_on,64,0,0
1,note_on,55,0,0
1,note_on,61,41,150
1,note_on,65,45,0
1,note_on,56,41,0
1,note_on,56,0,90
1,note_on,65,0,0
1,note_on,61,0,0
1,note_on,59,37,150
1,note_on,62,37,0
1,note_on,68,43,0
1,note_on,68,0,90
1,note_on,62,0,0
1,note_on,59,0,0
1,note_on,67,43,150
1,note_on,64,37,0
1,note_on,64,0,240
1,note_on,67,0,0
1,note_on,55,32,0
1,note_on,60,36,0
1,note_on,60,0,90
1,note_on,55,0,0
1,note_on,89,50,150
1,note_on,85,50,0
1,note_on,94,50,0
1,note_on,94,0,90
1,note_on,85,0,0
1,note_on,89,0,0
1,note_on,93,41,0
1,note_on,93,0,30
1,note_on,92,42,0
1,note_on,84,42,0
1,note_on,84,0,45
1,note_on,92,0,0
1,note_on,91,43,0
1,note_on,86,43,0
1,note_on,83,43,0
1,note_on,83,0,45
1,note_on,86,0,0
1,note_on,91,0,0
1,note_on,90,44,0
1,note_on,82,44,0
1,note_on,82,0,45
1,note_on,90,0,0
1,note_on,89,45,0
1,note_on,84,45,0
1,note_on,81,45,0
1,note_on,81,0,45
1,note_on,84,0,0
1,note_on,89,0,0
1,note_on,88,45,0
1,note_on,80,45,0
1,note_on,80,0,45
1,note_on,88,0,0
1,note_on,87,46,0
1,note_on,82,46,0
1,note_on,79,46,0
1,note_on,79,0,45
1,note_on,82,0,0
1,note_on,87,0,0
1,note_on,86,49,0
1,note_on,78,49,0
1,note_on,78,0,45
1,note_on,86,0,0
1,note_on,85,50,0
1,note_on,80,50,0
1,note_on,77,50,0
1,note_on,77,0,45
1,note_on,80,0,0
1,note_on,85,0,0
1,note_on,76,51,0
1,note_on,79,51,0
1,note_on,84,51,0
1,note_on,84,0,60
1,note_on,79,0,0
1,note_on,76,0,0
1,note_on,64,37,180
1,note_on,67,37,0
1,note_on,76,43,0
1,note_on,70,37,0
1,note_on,70,0,90
1,note_on,64,0,0
1,note_on,67,0,0
1,note_on,76,0,0
1,note_on,65,42,150
1,note_on,73,42,0
1,note_on,77,46,0
1,note_on,68,42,0
1,note_on,68,0,90
1,note_on,65,0,0
1,note_on,73,0,0
1,note_on,77,0,0
1,note_on,68,37,150
1,note_on,71,37,0
1,note_on,74,37,0
1,note_on,80,43,0
1,note_on,80,0,90
1,note_on,68,0,0
1,note_on,71,0,0
1,note_on,74,0,0
1,note_on,67,37,150
1,note_on,79,43,0
1,note_on,76,37,0
1,note_on,76,0,240
1,note_on,79,0,0
1,note_on,67,0,0
1,note_on,72,36,0
1,note_on,72,0,90
1,note_on,68,50,150
1,note_on,65,50,0
1,note_on,65,0,48
1,note_on,64,45,0
1,note_on,64,0,48
1,note_on,63,45,0
1,note_on,63,0,48
1,note_on,62,46,0
1,note_on,62,0,48
1,note_on,61,49,0
1,note_on,61,0,48
1,note_on,60,50,0
1,note_on,60,0,48
1,note_on,59,51,0
1,note_on,59,0,48
1,note_on,58,53,0
1,note_on,58,0,48
1,note_on,57,54,0
1,note_on,57,0,48
1,note_on,56,55,0
1,note_on,56,0,48
1,note_on,68,0,0
1,note_on,62,57,0
1,note_on,65,57,0
1,note_on,65,0,60
1,note_on,62,0,0
1,note_on,53,41,180
1,note_on,62,45,0
1,note_on,56,41,0
1,note_on,56,0,90
1,note_on,62,0,0
1,note_on,53,0,0
1,note_on,59,45,150
1,note_on,63,51,0
1,note_on,54,45,0
1,note_on,54,0,90
1,note_on,63,0,0
1,note_on,59,0,0
1,note_on,57,42,150
1,note_on,60,42,0
1,note_on,66,46,0
1,note_on,66,0,90
1,note_on,60,0,0
1,note_on,57,0,0
1,note_on,65,51,150
1,note_on,62,45,0
1,note_on,62,0,240
1,note_on,65,0,0
1,note_on,53,38,0
1,note_on,58,44,0
1,note_on,58,0,90
1,note_on,53,0,0
1,note_on,68,50,150
1,note_on,64,50,0
1,note_on,64,0,48
1,note_on,63,45,0
1,note_on,63,0,48
1,note_on,62,45,0
1,note_on,62,0,48
1,note_on,61,46,0
1,note_on,61,0,48
1,note_on,60,49,0
1,note_on,60,0,48
1,note_on,59,50,0
1,note_on,59,0,48
1,note_on,58,51,0
1,note_on,58,0,48
1,note_on,57,53,0
1,note_on,57,0,48
1,note_on,56,54,0
1,note_on,56,0,48
1,note_on,59,55,0
1,note_on,59,0,48
1,note_on,68,0,0
1,note_on,62,57,0
1,note_on,65,57,0
1,note_on,65,0,60
1,note_on,62,0,0
1,note_on,62,45,180
1,note_on,65,45,0
1,note_on,74,52,0
1,note_on,68,45,0
1,note_on,68,0,90
1,note_on,62,0,0
1,note_on,65,0,0
1,note_on,74,0,0
1,note_on,63,60,150
1,note_on,71,60,0
1,note_on,75,67,0
1,note_on,66,60,0
1,note_on,66,0,90
1,note_on,63,0,0
1,note_on,71,0,0
1,note_on,75,0,0
1,note_on,66,60,150
1,note_on,69,60,0
1,note_on,72,60,0
1,note_on,78,67,0
1,note_on,78,0,90
1,note_on,66,0,0
1,note_on,69,0,0
1,note_on,72,0,0
1,note_on,65,63,135
1,note_on,70,63,5
1,note_on,74,63,5
1,note_on,82,79,5
1,note_on,82,0,240
1,note_on,65,0,0
1,note_on,70,0,0
1,note_on,74,0,0
1,note_on,58,65,0
1,note_on,58,0,90
1,note_on,81,63,210
1,note_on,93,70,0
1,note_on,93,0,20
1,note_on,81,0,0
1,note_on,91,71,40
1,note_on,79,63,0
1,note_on,79,0,52
1,note_on,91,0,0
1,note_on,89,73,28
1,note_on,77,65,0
1,note_on,77,0,54
1,note_on,89,0,0
1,note_on,87,76,26
1,note_on,75,67,0
1,note_on,75,0,56
1,note_on,87,0,0
1,note_on,85,79,24
1,note_on,73,71,0
1,note_on,73,0,58
1,note_on,85,0,0
1,note_on,83,82,22
1,note_on,71,73,0
1,note_on,71,0,60
1,note_on,83,0,0
1,note_on,50,64,220
1,note_on,53,64,0
1,note_on,58,64,0
1,note_on,62,72,0
1,note_on,62,0,240
1,note_on,50,0,0
1,note_on,53,0,0
1,note_on,58,0,0
1,note_on,85,63,60
1,note_on,97,70,0
1,note_on,97,0,20
1,note_on,85,0,0
1,note_on,95,71,40
1,note_on,83,63,0
1,note_on,83,0,52
1,note_on,95,0,0
1,note_on,93,73,28
1,note_on,81,65,0
1,note_on,81,0,54
1,note_on,93,0,0
1,note_on,91,76,26
1,note_on,79,67,0
1,note_on,79,0,56
1,note_on,91,0,0
1,note_on,89,79,24
1,note_on,77,71,0
1,note_on,77,0,58
1,note_on,89,0,0
1,note_on,87,82,22
1,note_on,75,73,0
1,note_on,75,0,60
1,note_on,87,0,0
1,note_on,65,72,220
1,note_on,53,64,0
1,note_on,58,64,0
1,note_on,62,64,0
1,note_on,62,0,240
1,note_on,65,0,0
1,note_on,53,0,0
1,note_on,58,0,0
1,note_on,88,59,40
1,note_on,100,66,0
1,note_on,100,0,40
1,note_on,88,0,0
1,note_on,98,66,40
1,note_on,86,59,0
1,note_on,86,0,40
1,note_on,98,0,0
1,note_on,96,67,40
1,note_on,84,60,0
1,note_on,84,0,40
1,note_on,96,0,0
1,note_on,94,67,40
1,note_on,82,60,0
1,note_on,82,0,40
1,note_on,94,0,0
1,note_on,92,69,40
1,note_on,80,62,0
1,note_on,80,0,40
1,note_on,92,0,0
1,note_on,90,69,40
1,note_on,78,62,0
1,note_on,78,0,40
1,note_on,90,0,0
1,note_on,76,63,40
1,note_on,88,70,0
1,note_on,88,0,40
1,note_on,76,0,0
1,note_on,86,70,40
1,note_on,74,63,0
1,note_on,74,0,40
1,note_on,86,0,0
1,note_on,84,71,40
1,note_on,72,63,0
1,note_on,72,0,45
1,note_on,84,0,0
1,note_on,82,71,35
1,note_on,70,63,0
1,note_on,70,0,50
1,note_on,82,0,0
1,note_on,80,72,30
1,note_on,68,64,0
1,note_on,68,0,50
1,note_on,80,0,0
1,note_on,78,72,30
1,note_on,66,64,0
1,note_on,66,0,50
1,note_on,78,0,0
1,note_on,64,64,30
1,note_on,76,72,0
1,note_on,76,0,50
1,note_on,64,0,0
1,note_on,74,72,30
1,note_on,62,64,0
1,note_on,62,0,52
1,note_on,74,0,0
1,note_on,72,73,28
1,note_on,60,65,0
1,note_on,60,0,54
1,note_on,72,0,0
1,note_on,70,73,26
1,note_on,58,65,0
1,note_on,58,0,56
1,note_on,70,0,0
1,note_on,68,73,24
1,note_on,56,65,0
1,note_on,56,0,58
1,note_on,68,0,0
1,note_on,62,73,22
1,note_on,50,65,0
1,note_on,50,0,60
1,note_on,62,0,0
1,note_on,45,74,220
1,note_on,45,0,40
1,note_on,46,72,0
1,note_on,46,0,40
1,note_on,50,72,0
1,note_on,53,73,40
1,note_on,50,0,5
1,note_on,56,73,35
1,note_on,53,0,6
1,note_on,58,74,34
1,note_on,56,0,7
1,note_on,62,74,33
1,note_on,58,0,8
1,note_on,65,76,32
1,note_on,62,0,9
1,note_on,68,76,31
1,note_on,65,0,10
1,note_on,68,0,30
1,note_on,70,77,0
1,note_on,70,0,40
1,note_on,74,77,0
1,note_on,74,0,40
1,note_on,77,77,0
1,note_on,77,0,40
1,note_on,80,78,0
1,note_on,80,0,48
1,note_on,82,78,0
1,note_on,82,0,48
1,note_on,86,79,0
1,note_on,86,0,48
1,note_on,89,80,0
1,note_on,89,0,48
1,note_on,92,80,0
1,note_on,92,0,48
1,note_on,93,81,0
1,note_on,93,0,25
1,note_on,96,78,9
1,note_on,96,0,30
1,note_on,94,77,4
1,note_on,94,0,30
1,note_on,92,77,4
1,note_on,92,0,30
1,note_on,89,77,4
1,note_on,89,0,30
1,note_on,86,77,4
1,note_on,86,0,30
1,note_on,82,77,4
1,note_on,82,0,30
1,note_on,81,81,6
1,note_on,81,0,30
1,note_on,84,78,4
1,note_on,84,0,34
1,note_on,82,77,0
1,note_on,82,0,34
1,note_on,80,77,0
1,note_on,80,0,34
1,note_on,77,77,0
1,note_on,77,0,34
1,note_on,74,77,0
1,note_on,74,0,34
1,note_on,70,77,0
1,note_on,70,0,34
1,note_on,69,81,2
1,note_on,69,0,30
1,note_on,72,78,4
1,note_on,72,0,34
1,note_on,70,77,0
1,note_on,70,0,34
1,note_on,68,77,0
1,note_on,68,0,34
1,note_on,65,77,0
1,note_on,65,0,34
1,note_on,62,77,0
1,note_on,62,0,34
1,note_on,58,76,0
1,note_on,58,0,34
1,note_on,57,78,2
1,note_on,58,80,48
1,note_on,57,0,2
1,note_on,62,83,46
1,note_on,58,0,2
1,note_on,65,85,46
1,note_on,62,0,2
1,note_on,68,88,46
1,note_on,65,0,7
1,note_on,68,0,41
1,note_on,58,77,37
1,note_on,70,91,0
1,note_on,70,0,13
1,note_on,58,0,0
1,note_on,74,74,25
1,note_on,62,74,0
1,note_on,62,0,37
1,note_on,74,0,0
1,note_on,72,77,13
1,note_on,60,64,0
1,note_on,60,0,37
1,note_on,72,0,0
1,note_on,70,78,13
1,note_on,58,65,0
1,note_on,58,0,37
1,note_on,70,0,0
1,note_on,68,81,13
1,note_on,56,68,0
1,note_on,56,0,37
1,note_on,68,0,0
1,note_on,66,81,13
1,note_on,54,69,0
1,note_on,54,0,37
1,note_on,66,0,0
1,note_on,64,84,13
1,note_on,52,72,0
1,note_on,52,0,37
1,note_on,64,0,0
1,note_on,62,86,13
1,note_on,50,72,0
1,note_on,50,0,37
1,note_on,62,0,0
1,note_on,48,73,13
1,note_on,60,88,0
1,note_on,60,0,37
1,note_on,48,0,0
1,note_on,63,72,258
1,note_on,67,72,0
1,note_on,75,81,0
1,note_on,75,0,100
1,note_on,67,0,0
1,note_on,63,0,0
1,note_on,65,78,140
1,note_on,68,78,0
1,note_on,77,87,0
1,note_on,77,0,100
1,note_on,68,0,0
1,note_on,65,0,0
1,note_on,66,72,140
1,note_on,69,72,0
1,note_on,78,81,0
1,note_on,78,0,100
1,note_on,69,0,0
1,note_on,66,0,0
1,note_on,70,78,140
1,note_on,67,78,0
1,note_on,79,87,0
1,note_on,79,0,240
1,note_on,67,0,0
1,note_on,70,0,0
1,note_on,63,72,0
1,note_on,75,80,0
1,note_on,75,0,120
1,note_on,63,0,0
1,note_on,58,72,171
1,note_on,70,81,0
1,note_on,70,0,17
1,note_on,58,0,0
1,note_on,65,65,34
1,note_on,77,72,0
1,note_on,77,0,51
1,note_on,65,0,0
1,note_on,62,67,17
1,note_on,74,75,0
1,note_on,74,0,51
1,note_on,62,0,0
1,note_on,58,70,17
1,note_on,70,80,0
1,note_on,70,0,51
1,note_on,58,0,0
1,note_on,55,72,17
1,note_on,67,81,0
1,note_on,67,0,51
1,note_on,55,0,0
1,note_on,51,77,17
1,note_on,63,86,0
1,note_on,63,0,51
1,note_on,51,0,0
1,note_on,48,78,17
1,note_on,60,88,0
1,note_on,60,0,57
1,note_on,48,0,0
1,note_on,63,71,221
1,note_on,67,71,0
1,note_on,75,79,0
1,note_on,75,0,100
1,note_on,67,0,0
1,note_on,63,0,0
1,note_on,65,76,140
1,note_on,68,76,0
1,note_on,77,85,0
1,note_on,77,0,100
1,note_on,68,0,0
1,note_on,65,0,0
1,note_on,67,71,140
1,note_on,70,71,0
1,note_on,79,79,0
1,note_on,79,0,100
1,note_on,70,0,0
1,note_on,67,0,0
1,note_on,67,66,140
1,note_on,63,66,0
1,note_on,75,74,0
1,note_on,75,0,460
1,note_on,63,0,0
1,note_on,67,0,0
1,note_on,93,41,20
1,note_on,93,0,30
1,note_on,94,36,2
1,note_on,94,0,30
1,note_on,99,38,2
1,note_on,99,0,24
1,note_on,96,36,2
1,note_on,96,0,24
1,note_on,94,36,2
1,note_on,94,0,24
1,note_on,92,36,2
1,note_on,92,0,24
1,note_on,91,33,2
1,note_on,91,0,24
1,note_on,55,29,528
1,note_on,58,29,0
1,note_on,63,33,0
1,note_on,63,0,90
1,note_on,58,0,0
1,note_on,55,0,0
1,note_on,56,31,150
1,note_on,59,31,0
1,note_on,65,36,0
1,note_on,65,0,90
1,note_on,59,0,0
1,note_on,56,0,0
1,note_on,57,30,150
1,note_on,60,30,0
1,note_on,66,35,0
1,note_on,66,0,90
1,note_on,60,0,0
1,note_on,57,0,0
1,note_on,59,30,150
1,note_on,67,35,0
1,note_on,67,0,240
1,note_on,59,0,0
1,note_on,55,28,0
1,note_on,62,32,0
1,note_on,62,0,120
1,note_on,55,0,0
1,note_on,94,27,120
1,note_on,94,0,30
1,note_on,95,27,0
1,note_on,95,0,30
1,note_on,103,29,0
1,note_on,103,0,30
1,note_on,102,29,0
1,note_on,102,0,30
1,note_on,100,29,0
1,note_on,100,0,30
1,note_on,98,29,0
1,note_on,98,0,30
1,note_on,96,29,0
1,note_on,96,0,30
1,note_on,95,28,0
1,note_on,95,0,30
1,note_on,93,28,0
1,note_on,93,0,30
1,note_on,91,28,0
1,note_on,91,0,30
1,note_on,90,28,0
1,note_on,90,0,30
1,note_on,88,28,0
1,note_on,88,0,30
1,note_on,86,27,0
1,note_on,86,0,30
1,note_on,84,27,0
1,note_on,84,0,30
1,note_on,83,27,0
1,note_on,83,0,30
1,note_on,81,27,0
1,note_on,81,0,30
1,note_on,79,27,0
1,note_on,79,0,90
1,note_on,60,32,150
1,note_on,64,32,0
1,note_on,67,36,0
1,note_on,67,0,220
1,note_on,64,0,0
1,note_on,60,0,0
1,note_on,60,32,20
1,note_on,68,36,0
1,note_on,65,32,0
1,note_on,65,0,200
1,note_on,68,0,0
1,note_on,60,0,0
1,note_on,56,30,40
1,note_on,62,30,0
1,note_on,70,35,0
1,note_on,70,0,220
1,note_on,62,0,0
1,note_on,56,0,0
1,note_on,55,29,20
1,note_on,63,29,0
1,note_on,70,33,0
1,note_on,70,0,450
1,note_on,63,0,0
1,note_on,55,0,0
1,note_on,87,38,750
1,note_on,83,35,0
1,note_on,75,35,0
1,note_on,75,0,200
1,note_on,83,0,0
1,note_on,87,0,0
1,note_on,89,41,40
1,note_on,83,36,0
1,note_on,75,36,0
1,note_on,75,0,200
1,note_on,83,0,0
1,note_on,89,0,0
1,note_on,90,43,40
1,note_on,83,37,0
1,note_on,75,37,0
1,note_on,75,0,180
1,note_on,83,0,0
1,note_on,90,0,0
1,note_on,75,35,49
1,note_on,82,35,1
1,note_on,91,38,10
1,note_on,91,0,240
1,note_on,87,36,0
1,note_on,87,0,120
1,note_on,82,0,120
1,note_on,75,0,9
1,note_on,58,33,711
1,note_on,61,33,0
1,note_on,67,37,0
1,note_on,67,0,240
1,note_on,61,0,0
1,note_on,58,0,0
1,note_on,58,36,0
1,note_on,60,36,0
1,note_on,68,39,0
1,note_on,68,0,220
1,note_on,60,0,0
1,note_on,58,0,0
1,note_on,68,35,20
1,note_on,72,39,0
1,note_on,58,29,0
1,note_on,62,29,0
1,note_on,72,0,180
1,note_on,68,0,0
1,note_on,67,30,0
1,note_on,70,35,0
1,note_on,70,0,60
1,note_on,62,0,0
1,note_on,58,0,0
1,note_on,67,0,0
1,note_on,63,29,0
1,note_on,67,33,0
1,note_on,67,0,480
1,note_on,63,0,0
1,note_on,93,36,0
1,note_on,93,0,30
1,note_on,94,32,2
1,note_on,94,0,30
1,note_on,99,35,2
1,note_on,99,0,24
1,note_on,96,32,2
1,note_on,96,0,24
1,note_on,94,32,2
1,note_on,94,0,24
1,note_on,92,31,2
1,note_on,92,0,24
1,note_on,91,29,2
1,note_on,91,0,24
1,note_on,69,35,528
1,note_on,75,35,0
1,note_on,83,38,0
1,note_on,83,0,200
1,note_on,75,0,0
1,note_on,69,0,0
1,note_on,69,35,40
1,note_on,83,41,0
1,note_on,76,36,0
1,note_on,76,0,200
1,note_on,83,0,0
1,note_on,69,0,0
1,note_on,69,37,40
1,note_on,78,37,0
1,note_on,83,43,0
1,note_on,83,0,180
1,note_on,78,0,0
1,note_on,69,0,0
1,note_on,80,39,60
1,note_on,83,45,0
1,note_on,83,0,240
1,note_on,80,0,0
1,note_on,92,44,0
1,note_on,88,38,0
1,note_on,88,0,120
1,note_on,92,0,0
1,note_on,70,36,120
1,note_on,70,0,32
1,note_on,71,32,0
1,note_on,71,0,32
1,note_on,80,36,0
1,note_on,80,0,32
1,note_on,78,35,0
1,note_on,78,0,32
1,note_on,76,33,0
1,note_on,76,0,32
1,note_on,75,33,0
1,note_on,75,0,32
1,note_on,73,32,0
1,note_on,73,0,32
1,note_on,61,31,496
1,note_on,67,31,0
1,note_on,70,36,0
1,note_on,70,0,240
1,note_on,67,0,0
1,note_on,61,0,0
1,note_on,62,33,0
1,note_on,68,33,0
1,note_on,70,37,0
1,note_on,62,30,150
1,note_on,68,27,30
1,note_on,74,31,30
1,note_on,70,0,10
1,note_on,62,0,0
1,note_on,68,0,0
1,note_on,74,0,20
1,note_on,72,36,0
1,note_on,72,0,180
1,note_on,70,32,0
1,note_on,70,0,60
1,note_on,68,0,0
1,note_on,62,0,0
1,note_on,70,31,0
1,note_on,63,27,0
1,note_on,67,27,0
1,note_on,67,0,460
1,note_on,63,0,0
1,note_on,70,0,0
1,note_on,55,32,740
1,note_on,58,32,0
1,note_on,61,36,0
1,note_on,61,0,240
1,note_on,58,0,0
1,note_on,55,0,0
1,note_on,56,33,0
1,note_on,58,33,0
1,note_on,62,37,0
1,note_on,62,0,220
1,note_on,58,0,0
1,note_on,56,0,0
1,note_on,56,31,20
1,note_on,60,36,0
1,note_on,62,31,0
1,note_on,60,0,180
1,note_on,56,0,0
1,note_on,55,27,0
1,note_on,58,31,0
1,note_on,58,0,60
1,note_on,55,0,0
1,note_on,62,0,0
1,note_on,55,27,0
1,note_on,51,27,0
1,note_on,63,30,0
1,note_on,63,0,480
1,note_on,51,0,0
1,note_on,55,0,0
1,note_on,93,36,0
1,note_on,93,0,39
1,note_on,94,31,5
1,note_on,94,0,39
1,note_on,99,36,5
1,note_on,99,0,39
1,note_on,96,36,5
1,note_on,96,0,39
1,note_on,94,35,5
1,note_on,94,0,39
1,note_on,92,33,5
1,note_on,92,0,39
1,note_on,91,32,5
1,note_on,91,0,39
1,note_on,81,33,177
1,note_on,81,0,32
1,note_on,82,35,5
1,note_on,82,0,32
1,note_on,91,36,5
1,note_on,91,0,32
1,note_on,87,36,5
1,note_on,87,0,32
1,note_on,86,37,5
1,note_on,86,0,32
1,note_on,84,38,5
1,note_on,84,0,32
1,note_on,82,39,5
1,note_on,82,0,32
1,note_on,69,44,226
1,note_on,69,0,39
1,note_on,70,45,5
1,note_on,70,0,39
1,note_on,75,46,5
1,note_on,75,0,39
1,note_on,72,49,5
1,note_on,72,0,39
1,note_on,70,51,5
1,note_on,70,0,39
1,note_on,68,53,5
1,note_on,68,0,39
1,note_on,67,55,5
1,note_on,67,0,39
1,note_on,57,53,177
1,note_on,57,0,32
1,note_on,58,54,5
1,note_on,58,0,32
1,note_on,67,56,5
1,note_on,67,0,32
1,note_on,63,57,5
1,note_on,63,0,32
1,note_on,62,59,5
1,note_on,62,0,32
1,note_on,60,60,5
1,note_on,60,0,32
1,note_on,58,63,5
1,note_on,58,0,32
1,note_on,63,69,466
1,note_on,58,62,0
1,note_on,55,62,0
1,note_on,51,62,0
1,note_on,51,0,240
1,note_on,63,0,0
1,note_on,58,0,0
1,note_on,55,0,0
1,note_on,63,67,240
1,note_on,59,60,0
1,note_on,54,60,0
1,note_on,51,60,0
1,note_on,51,0,240
1,note_on,63,0,0
1,note_on,59,0,0
1,note_on,54,0,0
1,note_on,63,67,0
1,note_on,59,61,0
1,note_on,56,61,0
1,note_on,51,61,0
1,note_on,51,0,240
1,note_on,63,0,0
1,note_on,59,0,0
1,note_on,56,0,0
1,note_on,65,67,0
1,note_on,59,61,0
1,note_on,56,61,0
1,note_on,53,61,0
1,note_on,53,0,240
1,note_on,65,0,0
1,note_on,59,0,0
1,note_on,56,0,0
1,note_on,55,67,0
1,note_on,58,67,0
1,note_on,63,67,0
1,note_on,67,75,0
1,note_on,67,0,960
1,note_on,55,0,0
1,note_on,58,0,0
1,note_on,63,0,0
1,note_on,55,65,0
1,note_on,58,65,0
1,note_on,63,65,0
1,note_on,67,73,0
1,note_on,67,0,480
1,note_on,55,0,0
1,note_on,58,0,0
1,note_on,63,0,0
1,note_on,55,65,0
1,note_on,58,65,0
1,note_on,63,65,0
1,note_on,67,73,0
1,note_on,67,0,480
1,note_on,55,0,0
1,note_on,58,0,0
1,note_on,63,0,0
1,note_on,55,65,0
1,note_on,58,65,0
1,note_on,63,65,0
1,note_on,67,73,0
1,note_on,67,0,1920
1,note_on,55,0,0
1,note_on,58,0,0
1,note_on,63,0,0
2,note_on,63,57,1940
2,note_on,63,0,50
2,note_on,63,59,10
2,note_on,63,0,1850
2,note_on,63,56,10
2,note_on,63,0,50
2,note_on,63,58,10
2,note_on,63,0,450
2,note_on,63,62,30
2,note_on,63,0,450
2,note_on,62,54,30
2,note_on,53,54,0
2,note_on,53,0,450
2,note_on,62,0,0
2,note_on,53,54,30
2,note_on,60,64,0
2,note_on,60,0,320
2,note_on,53,0,0
2,note_on,46,65,10
2,note_on,53,58,30
2,note_on,58,58,30
2,note_on,58,0,1013
2,note_on,53,0,0
2,note_on,46,0,0
2,note_on,34,82,694
2,note_on,34,0,220
2,note_on,34,46,0
2,note_on,34,0,7
2,note_on,36,43,0
2,note_on,36,0,36
2,note_on,34,48,0
2,note_on,34,0,36
2,note_on,36,48,0
2,note_on,36,0,36
2,note_on,34,56,0
2,note_on,34,0,36
2,note_on,36,52,0
2,note_on,36,0,36
2,note_on,34,61,0
2,note_on,34,0,36
2,note_on,36,58,0
2,note_on,36,0,36
2,note_on,34,68,0
2,note_on,34,0,36
2,note_on,36,66,0
2,note_on,36,0,36
2,note_on,34,73,0
2,note_on,34,0,40
2,note_on,33,79,0
2,note_on,33,0,40
2,note_on,34,70,0
2,note_on,34,0,40
2,note_on,46,77,0
2,note_on,46,0,60
2,note_on,62,54,7
2,note_on,70,54,10
2,note_on,77,54,10
2,note_on,77,0,64
2,note_on,70,0,0
2,note_on,62,0,0
2,note_on,77,37,1388
2,note_on,77,0,39
2,note_on,75,37,5
2,note_on,75,0,39
2,note_on,74,36,5
2,note_on,74,0,39
2,note_on,72,36,5
2,note_on,72,0,35
2,note_on,70,41,5
2,note_on,70,0,90
2,note_on,46,27,150
2,note_on,39,27,0
2,note_on,39,0,90
2,note_on,46,0,0
2,note_on,46,27,150
2,note_on,39,27,0
2,note_on,39,0,90
2,note_on,46,0,0
2,note_on,46,27,150
2,note_on,39,27,0
2,note_on,39,0,90
2,note_on,46,0,0
2,note_on,46,29,150
2,note_on,39,29,0
2,note_on,39,0,224
2,note_on,46,0,0
2,note_on,77,37,340
2,note_on,77,0,29
2,note_on,75,37,5
2,note_on,75,0,29
2,note_on,74,36,5
2,note_on,74,0,29
2,note_on,72,36,5
2,note_on,72,0,33
2,note_on,70,41,5
2,note_on,70,0,90
2,note_on,46,27,150
2,note_on,39,27,0
2,note_on,39,0,90
2,note_on,46,0,0
2,note_on,39,29,150
2,note_on,46,29,0
2,note_on,46,0,90
2,note_on,39,0,0
2,note_on,39,27,150
2,note_on,46,27,0
2,note_on,46,0,90
2,note_on,39,0,0
2,note_on,39,27,150
2,note_on,46,27,0
2,note_on,46,0,460
2,note_on,39,0,0
2,note_on,89,37,214
2,note_on,89,0,24
2,note_on,87,37,2
2,note_on,87,0,24
2,note_on,86,36,2
2,note_on,86,0,24
2,note_on,84,36,2
2,note_on,84,0,24
2,note_on,82,36,2
2,note_on,82,0,24
2,note_on,80,36,2
2,note_on,80,0,24
2,note_on,79,36,2
2,note_on,79,0,24
2,note_on,77,36,2
2,note_on,77,0,24
2,note_on,75,36,2
2,note_on,75,0,24
2,note_on,74,36,2
2,note_on,74,0,24
2,note_on,72,36,4
2,note_on,72,0,24
2,note_on,70,41,0
2,note_on,70,0,90
2,note_on,39,29,150
2,note_on,46,29,0
2,note_on,46,0,90
2,note_on,39,0,0
2,note_on,39,32,150
2,note_on,46,32,0
2,note_on,46,0,90
2,note_on,39,0,0
2,note_on,39,30,150
2,note_on,46,30,0
2,note_on,46,0,90
2,note_on,39,0,0
2,note_on,39,32,150
2,note_on,46,32,0
2,note_on,46,0,227
2,note_on,39,0,0
2,note_on,89,37,238
2,note_on,89,0,20
2,note_on,87,37,2
2,note_on,87,0,20
2,note_on,86,36,2
2,note_on,86,0,20
2,note_on,84,36,2
2,note_on,84,0,20
2,note_on,82,36,2
2,note_on,82,0,20
2,note_on,80,36,2
2,note_on,80,0,20
2,note_on,79,36,2
2,note_on,79,0,20
2,note_on,77,36,2
2,note_on,77,0,20
2,note_on,75,36,2
2,note_on,75,0,20
2,note_on,74,36,2
2,note_on,74,0,20
2,note_on,72,36,2
2,note_on,72,0,20
2,note_on,70,41,2
2,note_on,70,0,90
2,note_on,39,31,150
2,note_on,46,31,0
2,note_on,46,0,90
2,note_on,39,0,0
2,note_on,39,32,150
2,note_on,47,32,0
2,note_on,47,0,90
2,note_on,39,0,0
2,note_on,46,31,150
2,note_on,39,31,0
2,note_on,39,0,90
2,note_on,46,0,0
2,note_on,39,29,150
2,note_on,51,29,0
2,note_on,46,29,0
2,note_on,46,0,460
2,note_on,51,0,0
2,note_on,39,0,0
2,note_on,46,53,20
2,note_on,46,0,8
2,note_on,45,53,1
2,note_on,45,0,39
2,note_on,44,53,1
2,note_on,44,0,39
2,note_on,43,53,1
2,note_on,43,0,39
2,note_on,42,53,1
2,note_on,42,0,39
2,note_on,41,53,1
2,note_on,41,0,39
2,note_on,40,55,1
2,note_on,40,0,39
2,note_on,39,57,1
2,note_on,39,0,39
2,note_on,38,59,1
2,note_on,38,0,39
2,note_on,37,62,1
2,note_on,37,0,39
2,note_on,36,63,1
2,note_on,36,0,39
2,note_on,35,65,1
2,note_on,35,0,39
2,note_on,34,80,1
2,note_on,34,0,58
2,note_on,46,41,180
2,note_on,53,41,0
2,note_on,53,0,90
2,note_on,46,0,0
2,note_on,54,45,150
2,note_on,46,45,0
2,note_on,46,0,90
2,note_on,54,0,0
2,note_on,46,43,150
2,note_on,55,43,0
2,note_on,55,0,90
2,note_on,46,0,0
2,note_on,46,45,0
2,note_on,58,45,0
2,note_on,58,0,238
2,note_on,53,44,2
2,note_on,53,0,107
2,note_on,46,0,120
2,note_on,34,55,0
2,note_on,34,0,15
2,note_on,36,56,1
2,note_on,36,0,36
2,note_on,38,57,1
2,note_on,38,0,36
2,note_on,39,59,1
2,note_on,39,0,36
2,note_on,41,60,1
2,note_on,41,0,36
2,note_on,43,62,1
2,note_on,43,0,36
2,note_on,45,63,1
2,note_on,45,0,36
2,note_on,46,63,1
2,note_on,46,0,36
2,note_on,48,64,1
2,note_on,48,0,36
2,note_on,50,65,1
2,note_on,50,0,36
2,note_on,51,67,1
2,note_on,51,0,36
2,note_on,52,69,1
2,note_on,52,0,36
2,note_on,55,70,1
2,note_on,55,0,35
2,note_on,53,63,1
2,note_on,41,41,230
2,note_on,46,41,0
2,note_on,46,0,90
2,note_on,41,0,0
2,note_on,48,44,150
2,note_on,41,44,0
2,note_on,41,0,90
2,note_on,48,0,0
2,note_on,50,43,150
2,note_on,41,43,0
2,note_on,41,0,90
2,note_on,50,0,0
2,note_on,46,44,150
2,note_on,53,0,202
2,note_on,34,48,0
2,note_on,34,0,109
2,note_on,46,0,120
2,note_on,66,58,160
2,note_on,66,0,39
2,note_on,65,58,1
2,note_on,65,0,39
2,note_on,64,60,1
2,note_on,64,0,39
2,note_on,63,63,1
2,note_on,63,0,39
2,note_on,53,44,401
2,note_on,58,44,0
2,note_on,46,44,0
2,note_on,46,0,90
2,note_on,58,0,0
2,note_on,53,0,0
2,note_on,60,48,150
2,note_on,54,48,0
2,note_on,46,48,0
2,note_on,46,0,90
2,note_on,54,0,0
2,note_on,60,0,0
2,note_on,55,45,150
2,note_on,46,45,0
2,note_on,61,48,0
2,note_on,61,0,90
2,note_on,46,0,0
2,note_on,55,0,0
2,note_on,53,46,150
2,note_on,46,46,0
2,note_on,62,53,0
2,note_on,62,0,207
2,note_on,58,52,0
2,note_on,58,0,97
2,note_on,46,0,120
2,note_on,53,0,0
2,note_on,46,49,0
2,note_on,46,0,36
2,note_on,48,50,1
2,note_on,48,0,36
2,note_on,50,51,1
2,note_on,50,0,36
2,note_on,51,53,1
2,note_on,51,0,36
2,note_on,53,54,1
2,note_on,53,0,36
2,note_on,55,55,1
2,note_on,55,0,36
2,note_on,57,55,1
2,note_on,57,0,36
2,note_on,58,56,1
2,note_on,58,0,36
2,note_on,53,35,425
2,note_on,59,35,0
2,note_on,59,0,240
2,note_on,53,0,0
2,note_on,53,36,0
2,note_on,60,36,0
2,note_on,60,0,240
2,note_on,53,0,0
2,note_on,53,32,0
2,note_on,65,36,0
2,note_on,57,32,0
2,note_on,65,0,180
2,note_on,46,32,0
2,note_on,53,32,10
2,note_on,62,36,10
2,note_on,57,0,40
2,note_on,53,0,0
2,note_on,53,0,460
2,note_on,46,0,0
2,note_on,62,0,0
2,note_on,48,51,234
2,note_on,48,0,40
2,note_on,49,53,0
2,note_on,49,0,40
2,note_on,48,54,0
2,note_on,48,0,40
2,note_on,47,56,0
2,note_on,47,0,40
2,note_on,46,57,0
2,note_on,46,0,40
2,note_on,45,58,0
2,note_on,45,0,40
2,note_on,44,60,0
2,note_on,44,0,90
2,note_on,41,52,150
2,note_on,41,0,34
2,note_on,42,51,0
2,note_on,42,0,34
2,note_on,41,50,0
2,note_on,41,0,34
2,note_on,40,50,0
2,note_on,40,0,34
2,note_on,39,49,0
2,note_on,39,0,34
2,note_on,38,48,0
2,note_on,38,0,35
2,note_on,37,46,0
2,note_on,37,0,35
2,note_on,36,41,0
2,note_on,36,0,152
2,note_on,52,36,0
2,note_on,52,0,80
2,note_on,48,51,232
2,note_on,60,51,0
2,note_on,60,0,40
2,note_on,61,53,0
2,note_on,61,0,40
2,note_on,60,54,0
2,note_on,60,0,40
2,note_on,59,56,0
2,note_on,59,0,40
2,note_on,58,57,0
2,note_on,58,0,40
2,note_on,57,58,0
2,note_on,57,0,40
2,note_on,48,0,0
2,note_on,44,60,0
2,note_on,56,60,0
2,note_on,56,0,90
2,note_on,44,0,0
2,note_on,41,52,150
2,note_on,53,52,0
2,note_on,53,0,34
2,note_on,55,51,0
2,note_on,55,0,34
2,note_on,53,50,0
2,note_on,53,0,34
2,note_on,52,50,0
2,note_on,52,0,34
2,note_on,51,49,0
2,note_on,51,0,34
2,note_on,50,48,0
2,note_on,50,0,35
2,note_on,49,46,0
2,note_on,49,0,35
2,note_on,41,0,0
2,note_on,48,41,0
2,note_on,36,41,0
2,note_on,36,0,172
2,note_on,48,0,0
2,note_on,64,36,0
2,note_on,55,36,0
2,note_on,55,0,87
2,note_on,64,0,0
2,note_on,72,50,150
2,note_on,80,50,0
2,note_on,80,0,30
2,note_on,79,48,0
2,note_on,79,0,48
2,note_on,78,49,0
2,note_on,78,0,48
2,note_on,77,50,0
2,note_on,77,0,48
2,note_on,76,52,0
2,note_on,76,0,48
2,note_on,75,54,0
2,note_on,75,0,48
2,note_on,74,55,0
2,note_on,74,0,48
2,note_on,73,56,0
2,note_on,73,0,48
2,note_on,72,58,0
2,note_on,72,0,48
2,note_on,71,59,0
2,note_on,71,0,48
2,note_on,72,0,0
2,note_on,68,62,0
2,note_on,70,62,0
2,note_on,70,0,50
2,note_on,68,0,0
2,note_on,46,51,180
2,note_on,46,0,40
2,note_on,47,53,0
2,note_on,47,0,40
2,note_on,46,54,0
2,note_on,46,0,40
2,note_on,45,56,0
2,note_on,45,0,40
2,note_on,44,57,0
2,note_on,44,0,40
2,note_on,43,58,0
2,note_on,43,0,40
2,note_on,42,60,0
2,note_on,42,0,90
2,note_on,39,57,150
2,note_on,39,0,34
2,note_on,41,57,0
2,note_on,41,0,34
2,note_on,39,56,0
2,note_on,39,0,34
2,note_on,38,55,0
2,note_on,38,0,34
2,note_on,37,55,0
2,note_on,37,0,34
2,note_on,36,54,0
2,note_on,36,0,35
2,note_on,35,54,0
2,note_on,35,0,35
2,note_on,34,53,0
2,note_on,34,0,240
2,note_on,50,49,0
2,note_on,50,0,90
2,note_on,80,50,150
2,note_on,71,50,0
2,note_on,80,0,38
2,note_on,79,48,0
2,note_on,79,0,48
2,note_on,78,49,0
2,note_on,78,0,48
2,note_on,77,50,0
2,note_on,77,0,48
2,note_on,76,52,0
2,note_on,76,0,48
2,note_on,75,54,0
2,note_on,75,0,48
2,note_on,74,55,0
2,note_on,74,0,48
2,note_on,73,56,0
2,note_on,73,0,48
2,note_on,72,58,0
2,note_on,72,0,48
2,note_on,71,59,0
2,note_on,71,0,48
2,note_on,71,0,0
2,note_on,68,62,0
2,note_on,70,62,0
2,note_on,70,0,55
2,note_on,68,0,0
2,note_on,46,59,150
2,note_on,58,59,30
2,note_on,58,0,40
2,note_on,59,60,0
2,note_on,59,0,40
2,note_on,58,62,0
2,note_on,58,0,40
2,note_on,57,62,0
2,note_on,57,0,40
2,note_on,56,63,0
2,note_on,56,0,40
2,note_on,55,63,0
2,note_on,55,0,40
2,note_on,46,0,0
2,note_on,42,63,0
2,note_on,54,63,0
2,note_on,54,0,90
2,note_on,42,0,0
2,note_on,39,64,120
2,note_on,51,64,30
2,note_on,51,0,34
2,note_on,53,64,0
2,note_on,53,0,34
2,note_on,51,64,0
2,note_on,51,0,34
2,note_on,50,64,0
2,note_on,50,0,34
2,note_on,49,64,0
2,note_on,49,0,34
2,note_on,48,64,0
2,note_on,48,0,35
2,note_on,47,64,0
2,note_on,34,62,10
2,note_on,46,77,5
2,note_on,47,0,20
2,note_on,39,0,0
2,note_on,34,0,185
2,note_on,50,52,0
2,note_on,53,52,0
2,note_on,53,0,76
2,note_on,50,0,0
2,note_on,46,0,130
2,note_on,70,72,20
2,note_on,82,80,0
2,note_on,70,0,11
2,note_on,82,0,20
2,note_on,80,69,20
2,note_on,68,62,0
2,note_on,68,0,51
2,note_on,80,0,0
2,note_on,78,71,29
2,note_on,66,63,0
2,note_on,66,0,53
2,note_on,78,0,0
2,note_on,64,65,27
2,note_on,76,73,0
2,note_on,76,0,55
2,note_on,64,0,0
2,note_on,62,67,25
2,note_on,74,76,0
2,note_on,74,0,57
2,note_on,62,0,0
2,note_on,60,70,23
2,note_on,72,78,0
2,note_on,72,0,59
2,note_on,60,0,0
2,note_on,70,84,21
2,note_on,58,76,0
2,note_on,58,0,106
2,note_on,70,0,0
2,note_on,34,63,120
2,note_on,46,63,0
2,note_on,41,63,0
2,note_on,41,0,185
2,note_on,46,0,0
2,note_on,34,0,0
2,note_on,86,80,0
2,note_on,74,72,0
2,note_on,74,0,28
2,note_on,86,0,14
2,note_on,84,69,20
2,note_on,72,62,0
2,note_on,72,0,51
2,note_on,84,0,0
2,note_on,82,71,29
2,note_on,70,63,0
2,note_on,70,0,53
2,note_on,82,0,0
2,note_on,80,73,27
2,note_on,68,65,0
2,note_on,68,0,55
2,note_on,80,0,0
2,note_on,78,76,25
2,note_on,66,67,0
2,note_on,66,0,57
2,note_on,78,0,0
2,note_on,64,70,23
2,note_on,76,78,0
2,note_on,76,0,59
2,note_on,64,0,0
2,note_on,74,84,21
2,note_on,62,76,0
2,note_on,62,0,110
2,note_on,74,0,0
2,note_on,41,63,120
2,note_on,34,63,0
2,note_on,50,63,0
2,note_on,50,0,208
2,note_on,34,0,0
2,note_on,41,0,0
2,note_on,89,74,0
2,note_on,77,66,0
2,note_on,77,0,34
2,note_on,89,0,0
2,note_on,87,74,40
2,note_on,75,66,0
2,note_on,75,0,40
2,note_on,87,0,0
2,note_on,85,76,40
2,note_on,73,67,0
2,note_on,73,0,40
2,note_on,85,0,0
2,note_on,83,77,40
2,note_on,71,69,0
2,note_on,71,0,40
2,note_on,83,0,0
2,note_on,81,78,40
2,note_on,69,70,0
2,note_on,69,0,40
2,note_on,81,0,0
2,note_on,67,71,40
2,note_on,79,79,0
2,note_on,79,0,40
2,note_on,67,0,0
2,note_on,65,71,40
2,note_on,77,79,0
2,note_on,77,0,40
2,note_on,65,0,0
2,note_on,63,72,40
2,note_on,75,80,0
2,note_on,75,0,40
2,note_on,63,0,0
2,note_on,61,72,40
2,note_on,73,81,0
2,note_on,61,0,40
2,note_on,73,0,5
2,note_on,71,82,35
2,note_on,59,73,0
2,note_on,59,0,45
2,note_on,71,0,5
2,note_on,69,82,30
2,note_on,57,73,0
2,note_on,57,0,50
2,note_on,69,0,0
2,note_on,67,83,30
2,note_on,55,73,0
2,note_on,55,0,50
2,note_on,67,0,0
2,note_on,65,84,30
2,note_on,53,74,0
2,note_on,53,0,18
2,note_on,65,0,0
2,note_on,63,85,30
2,note_on,51,76,0
2,note_on,51,0,51
2,note_on,63,0,0
2,note_on,61,86,29
2,note_on,49,77,0
2,note_on,49,0,53
2,note_on,61,0,0
2,note_on,47,77,27
2,note_on,59,86,0
2,note_on,59,0,55
2,note_on,47,0,0
2,note_on,57,87,25
2,note_on,45,78,0
2,note_on,45,0,57
2,note_on,57,0,0
2,note_on,41,79,23
2,note_on,53,88,0
2,note_on,53,0,59
2,note_on,41,0,0
2,note_on,46,94,0
2,note_on,34,84,0
2,note_on,34,0,167
2,note_on,46,0,0
2,note_on,33,74,0
2,note_on,33,0,28
2,note_on,34,72,0
2,note_on,34,0,40
2,note_on,38,72,0
2,note_on,41,73,40
2,note_on,38,0,5
2,note_on,44,73,35
2,note_on,41,0,6
2,note_on,46,74,34
2,note_on,44,0,7
2,note_on,50,74,33
2,note_on,46,0,8
2,note_on,53,76,32
2,note_on,50,0,9
2,note_on,56,76,30
2,note_on,53,0,10
2,note_on,56,0,30
2,note_on,58,77,0
2,note_on,58,0,40
2,note_on,62,77,0
2,note_on,62,0,40
2,note_on,65,77,0
2,note_on,65,0,40
2,note_on,68,78,0
2,note_on,68,0,48
2,note_on,70,78,0
2,note_on,70,0,48
2,note_on,74,79,0
2,note_on,74,0,48
2,note_on,77,80,0
2,note_on,77,0,48
2,note_on,80,80,0
2,note_on,80,0,48
2,note_on,81,81,0
2,note_on,81,0,17
2,note_on,84,78,9
2,note_on,84,0,30
2,note_on,82,77,4
2,note_on,82,0,30
2,note_on,80,77,4
2,note_on,80,0,30
2,note_on,77,77,4
2,note_on,77,0,30
2,note_on,74,77,4
2,note_on,74,0,30
2,note_on,70,77,4
2,note_on,70,0,30
2,note_on,69,81,6
2,note_on,69,0,30
2,note_on,72,78,4
2,note_on,72,0,34
2,note_on,70,77,0
2,note_on,70,0,34
2,note_on,68,77,0
2,note_on,68,0,34
2,note_on,65,77,0
2,note_on,65,0,34
2,note_on,62,77,0
2,note_on,62,0,34
2,note_on,58,77,0
2,note_on,58,0,34
2,note_on,57,81,2
2,note_on,57,0,30
2,note_on,60,78,4
2,note_on,60,0,34
2,note_on,58,77,0
2,note_on,58,0,34
2,note_on,56,77,0
2,note_on,56,0,34
2,note_on,53,77,0
2,note_on,53,0,34
2,note_on,50,77,0
2,note_on,50,0,34
2,note_on,46,76,0
2,note_on,46,0,34
2,note_on,45,78,2
2,note_on,46,80,48
2,note_on,45,0,2
2,note_on,50,83,46
2,note_on,46,0,2
2,note_on,53,85,46
2,note_on,50,0,2
2,note_on,56,88,46
2,note_on,53,0,7
2,note_on,56,0,41
2,note_on,57,92,0
2,note_on,45,73,0
2,note_on,45,0,30
2,note_on,57,0,0
2,note_on,51,66,20
2,note_on,63,84,0
2,note_on,63,0,25
2,note_on,51,0,0
2,note_on,61,85,13
2,note_on,49,67,0
2,note_on,49,0,37
2,note_on,61,0,0
2,note_on,59,87,13
2,note_on,47,70,0
2,note_on,47,0,37
2,note_on,59,0,0
2,note_on,57,90,13
2,note_on,45,72,0
2,note_on,45,0,37
2,note_on,57,0,0
2,note_on,43,72,13
2,note_on,55,90,0
2,note_on,55,0,37
2,note_on,43,0,0
2,note_on,41,73,13
2,note_on,53,92,0
2,note_on,53,0,37
2,note_on,41,0,0
2,note_on,39,73,13
2,note_on,51,93,0
2,note_on,51,0,37
2,note_on,39,0,0
2,note_on,37,95,13
2,note_on,49,95,0
2,note_on,49,0,37
2,note_on,37,0,0
2,note_on,47,97,13
2,note_on,35,97,0
2,note_on,46,92,30
2,note_on,34,74,0
2,note_on,35,0,10
2,note_on,47,0,0
2,note_on,46,0,75
2,note_on,34,0,0
2,note_on,51,63,150
2,note_on,46,63,0
2,note_on,39,63,0
2,note_on,39,0,100
2,note_on,46,0,0
2,note_on,51,0,0
2,note_on,53,65,140
2,note_on,46,65,0
2,note_on,39,65,0
2,note_on,39,0,100
2,note_on,46,0,0
2,note_on,53,0,0
2,note_on,39,63,140
2,note_on,46,63,0
2,note_on,54,63,0
2,note_on,54,0,100
2,note_on,46,0,0
2,note_on,39,0,0
2,note_on,55,82,140
2,note_on,46,65,0
2,note_on,39,65,0
2,note_on,55,0,174
2,note_on,51,79,0
2,note_on,51,0,109
2,note_on,39,0,120
2,note_on,46,0,0
2,note_on,57,85,0
2,note_on,45,85,0
2,note_on,45,0,34
2,note_on,57,0,0
2,note_on,55,81,23
2,note_on,67,81,0
2,note_on,67,0,51
2,note_on,55,0,0
2,note_on,63,83,17
2,note_on,51,83,0
2,note_on,51,0,51
2,note_on,63,0,0
2,note_on,60,85,17
2,note_on,48,85,0
2,note_on,48,0,51
2,note_on,60,0,0
2,note_on,56,87,17
2,note_on,44,87,0
2,note_on,44,0,51
2,note_on,56,0,0
2,note_on,53,90,17
2,note_on,41,90,0
2,note_on,41,0,51
2,note_on,53,0,0
2,note_on,38,92,17
2,note_on,50,92,0
2,note_on,50,0,51
2,note_on,38,0,0
2,note_on,34,92,21
2,note_on,46,92,0
2,note_on,46,0,81
2,note_on,34,0,0
2,note_on,39,66,150
2,note_on,51,66,0
2,note_on,46,66,0
2,note_on,46,0,100
2,note_on,51,0,0
2,note_on,39,0,0
2,note_on,53,71,140
2,note_on,39,71,0
2,note_on,47,71,0
2,note_on,50,71,0
2,note_on,50,0,100
2,note_on,53,0,0
2,note_on,39,0,0
2,note_on,47,0,0
2,note_on,39,66,140
2,note_on,46,66,0
2,note_on,55,66,0
2,note_on,55,0,100
2,note_on,46,0,0
2,note_on,39,0,0
2,note_on,51,64,140
2,note_on,46,64,0
2,note_on,39,64,0
2,note_on,39,0,460
2,note_on,46,0,0
2,note_on,51,0,0
2,note_on,89,37,214
2,note_on,89,0,24
2,note_on,87,37,2
2,note_on,87,0,24
2,note_on,86,36,2
2,note_on,86,0,24
2,note_on,84,36,2
2,note_on,84,0,24
2,note_on,82,36,2
2,note_on,82,0,24
2,note_on,80,36,2
2,note_on,80,0,24
2,note_on,79,36,2
2,note_on,79,0,24
2,note_on,77,36,2
2,note_on,77,0,24
2,note_on,75,36,2
2,note_on,75,0,24
2,note_on,74,36,2
2,note_on,74,0,24
2,note_on,72,36,4
2,note_on,72,0,24
2,note_on,70,41,0
2,note_on,70,0,90
2,note_on,51,29,150
2,note_on,51,0,90
2,note_on,50,32,150
2,note_on,50,0,90
2,note_on,38,30,150
2,note_on,38,0,90
2,note_on,43,29,150
2,note_on,50,29,0
2,note_on,50,0,188
2,note_on,47,27,0
2,note_on,47,0,117
2,note_on,43,0,120
2,note_on,90,27,0
2,note_on,90,0,30
2,note_on,91,27,0
2,note_on,91,0,30
2,note_on,95,29,0
2,note_on,95,0,30
2,note_on,93,29,0
2,note_on,93,0,30
2,note_on,91,29,0
2,note_on,91,0,30
2,note_on,90,29,0
2,note_on,90,0,30
2,note_on,88,29,0
2,note_on,88,0,30
2,note_on,86,28,0
2,note_on,86,0,30
2,note_on,84,28,0
2,note_on,84,0,30
2,note_on,83,28,0
2,note_on,83,0,30
2,note_on,81,28,0
2,note_on,81,0,30
2,note_on,79,28,0
2,note_on,79,0,30
2,note_on,78,27,0
2,note_on,78,0,30
2,note_on,76,27,0
2,note_on,76,0,30
2,note_on,74,27,0
2,note_on,74,0,30
2,note_on,72,27,0
2,note_on,72,0,30
2,note_on,71,27,0
2,note_on,71,0,90
2,note_on,48,28,150
2,note_on,48,0,220
2,note_on,41,31,20
2,note_on,41,0,200
2,note_on,46,30,40
2,note_on,34,30,0
2,note_on,34,0,220
2,note_on,46,0,0
2,note_on,46,30,20
2,note_on,39,30,0
2,note_on,39,0,450
2,note_on,46,0,0
2,note_on,43,73,30
2,note_on,55,82,0
2,note_on,55,0,360
2,note_on,43,0,0
2,note_on,39,71,0
2,note_on,51,79,0
2,note_on,51,0,120
2,note_on,39,0,0
2,note_on,36,73,0
2,note_on,48,82,0
2,note_on,48,0,85
2,note_on,36,0,0
2,note_on,35,70,0
2,note_on,47,78,0
2,note_on,47,0,86
2,note_on,35,0,0
2,note_on,36,70,0
2,note_on,48,78,0
2,note_on,48,0,90
2,note_on,36,0,0
2,note_on,38,70,30
2,note_on,50,78,0
2,note_on,50,0,90
2,note_on,38,0,0
2,note_on,39,73,30
2,note_on,51,82,0
2,note_on,51,0,109
2,note_on,39,0,0
2,note_on,38,70,0
2,note_on,50,78,0
2,note_on,50,0,100
2,note_on,38,0,0
2,note_on,39,70,0
2,note_on,51,78,0
2,note_on,51,0,90
2,note_on,39,0,0
2,note_on,41,70,30
2,note_on,53,78,0
2,note_on,53,0,90
2,note_on,41,0,0
2,note_on,43,73,30
2,note_on,55,82,0
2,note_on,55,0,63
2,note_on,43,0,0
2,note_on,42,71,0
2,note_on,54,79,0
2,note_on,54,0,97
2,note_on,42,0,0
2,note_on,43,71,0
2,note_on,55,79,0
2,note_on,55,0,90
2,note_on,43,0,0
2,note_on,45,71,30
2,note_on,57,79,0
2,note_on,57,0,90
2,note_on,45,0,0
2,note_on,47,76,30
2,note_on,59,85,0
2,note_on,59,0,91
2,note_on,47,0,0
2,note_on,45,71,0
2,note_on,57,79,0
2,note_on,57,0,108
2,note_on,45,0,0
2,note_on,47,71,0
2,note_on,59,79,0
2,note_on,59,0,90
2,note_on,47,0,0
2,note_on,43,71,30
2,note_on,55,79,0
2,note_on,55,0,90
2,note_on,43,0,0
2,note_on,48,79,30
2,note_on,60,88,0
2,note_on,60,0,85
2,note_on,48,0,0
2,note_on,47,72,0
2,note_on,59,80,0
2,note_on,59,0,103
2,note_on,47,0,0
2,note_on,48,72,0
2,note_on,60,80,0
2,note_on,60,0,90
2,note_on,48,0,0
2,note_on,50,72,30
2,note_on,62,80,0
2,note_on,62,0,90
2,note_on,50,0,0
2,note_on,51,83,30
2,note_on,63,92,0
2,note_on,63,0,103
2,note_on,51,0,0
2,note_on,50,72,0
2,note_on,62,81,0
2,note_on,62,0,109
2,note_on,50,0,0
2,note_on,51,72,0
2,note_on,63,81,0
2,note_on,63,0,90
2,note_on,51,0,0
2,note_on,53,72,30
2,note_on,65,81,0
2,note_on,65,0,90
2,note_on,53,0,0
2,note_on,55,83,30
2,note_on,67,92,0
2,note_on,67,0,46
2,note_on,55,0,0
2,note_on,43,73,120
2,note_on,50,73,0
2,note_on,59,82,0
2,note_on,59,0,180
2,note_on,50,0,0
2,note_on,43,0,0
2,note_on,55,76,60
2,note_on,59,76,0
2,note_on,62,76,0
2,note_on,67,85,0
2,note_on,67,0,360
2,note_on,55,0,0
2,note_on,59,0,0
2,note_on,62,0,0
2,note_on,53,55,332
2,note_on,62,62,0
2,note_on,59,62,0
2,note_on,53,0,240
2,note_on,67,67,0
2,note_on,51,60,0
2,note_on,67,0,240
2,note_on,62,0,0
2,note_on,59,0,0
2,note_on,60,69,0
2,note_on,60,0,240
2,note_on,51,0,0
2,note_on,50,55,240
2,note_on,59,55,0
2,note_on,56,62,0
2,note_on,59,0,240
2,note_on,50,0,0
2,note_on,63,67,0
2,note_on,48,60,0
2,note_on,48,0,240
2,note_on,63,0,0
2,note_on,56,0,0
2,note_on,51,56,0
2,note_on,55,56,0
2,note_on,60,63,0
2,note_on,44,56,120
2,note_on,60,0,120
2,note_on,51,0,0
2,note_on,55,0,0
2,note_on,63,60,0
2,note_on,67,67,0
2,note_on,67,0,120
2,note_on,63,0,0
2,note_on,62,57,0
2,note_on,65,64,0
2,note_on,65,0,100
2,note_on,62,0,0
2,note_on,62,57,20
2,note_on,65,64,0
2,note_on,65,0,120
2,note_on,62,0,0
2,note_on,60,57,0
2,note_on,63,64,0
2,note_on,63,0,100
2,note_on,60,0,0
2,note_on,60,62,20
2,note_on,63,69,0
2,note_on,63,0,120
2,note_on,60,0,0
2,note_on,58,57,0
2,note_on,62,64,0
2,note_on,62,0,100
2,note_on,58,0,0
2,note_on,58,57,20
2,note_on,62,64,0
2,note_on,62,0,120
2,note_on,58,0,0
2,note_on,56,57,0
2,note_on,60,64,0
2,note_on,60,0,100
2,note_on,56,0,0
2,note_on,44,0,20
2,note_on,60,67,0
2,note_on,56,60,0
2,note_on,56,0,120
2,note_on,60,0,0
2,note_on,55,59,0
2,note_on,59,66,0
2,note_on,59,0,90
2,note_on,55,0,0
2,note_on,43,70,30
2,note_on,55,78,0
2,note_on,55,0,120
2,note_on,43,0,0
2,note_on,31,71,840
2,note_on,31,0,120
2,note_on,36,73,120
2,note_on,43,70,240
2,note_on,43,0,240
2,note_on,38,73,0
2,note_on,36,0,240
2,note_on,35,71,0
2,note_on,35,0,240
2,note_on,50,73,0
2,note_on,38,0,240
2,note_on,41,71,0
2,note_on,41,0,120
2,note_on,39,64,120
2,note_on,50,0,240
2,note_on,43,73,0
2,note_on,43,0,120
2,note_on,55,77,120
2,note_on,39,0,240
2,note_on,48,69,0
2,note_on,48,0,120
2,note_on,55,0,0
2,note_on,56,64,0
2,note_on,56,0,120
2,note_on,48,69,0
2,note_on,50,77,0
2,note_on,48,0,240
2,note_on,47,72,0
2,note_on,47,0,240
2,note_on,50,0,0
2,note_on,67,85,0
2,note_on,59,67,0
2,note_on,62,67,0
2,note_on,55,67,0
2,note_on,55,0,360
2,note_on,67,0,0
2,note_on,59,0,0
2,note_on,62,0,0
2,note_on,55,60,0
2,note_on,67,76,0
2,note_on,67,0,90
2,note_on,55,0,0
2,note_on,56,63,30
2,note_on,68,79,0
2,note_on,68,0,90
2,note_on,56,0,0
2,note_on,67,76,30
2,note_on,55,60,0
2,note_on,55,0,90
2,note_on,67,0,0
2,note_on,68,76,30
2,note_on,56,60,0
2,note_on,56,0,40
2,note_on,68,0,0
2,note_on,62,76,30
2,note_on,50,60,0
2,note_on,50,0,90
2,note_on,62,0,0
2,note_on,55,63,30
2,note_on,67,79,0
2,note_on,67,0,23
2,note_on,55,0,0
2,note_on,54,60,30
2,note_on,66,76,0
2,note_on,66,0,90
2,note_on,54,0,0
2,note_on,55,60,30
2,note_on,67,76,0
2,note_on,67,0,19
2,note_on,55,0,0
2,note_on,60,76,30
2,note_on,48,60,0
2,note_on,48,0,90
2,note_on,60,0,0
2,note_on,65,79,21
2,note_on,53,63,0
2,note_on,53,0,90
2,note_on,65,0,0
2,note_on,52,62,30
2,note_on,64,77,0
2,note_on,64,0,90
2,note_on,52,0,0
2,note_on,65,77,30
2,note_on,53,62,0
2,note_on,53,0,72
2,note_on,65,0,0
2,note_on,47,62,30
2,note_on,59,77,0
2,note_on,59,0,90
2,note_on,47,0,0
2,note_on,63,79,30
2,note_on,51,63,0
2,note_on,51,0,33
2,note_on,63,0,0
2,note_on,62,76,30
2,note_on,50,60,0
2,note_on,50,0,90
2,note_on,62,0,0
2,note_on,63,76,30
2,note_on,51,60,0
2,note_on,51,0,37
2,note_on,63,0,0
2,note_on,60,76,30
2,note_on,48,60,0
2,note_on,48,0,90
2,note_on,60,0,0
2,note_on,46,60,30
2,note_on,58,76,0
2,note_on,58,0,78
2,note_on,46,0,0
2,note_on,44,57,30
2,note_on,56,72,0
2,note_on,56,0,90
2,note_on,44,0,0
2,note_on,43,57,30
2,note_on,55,72,0
2,note_on,55,0,90
2,note_on,43,0,0
2,note_on,41,57,30
2,note_on,53,72,0
2,note_on,53,0,90
2,note_on,41,0,0
2,note_on,39,62,30
2,note_on,51,77,0
2,note_on,51,0,90
2,note_on,39,0,0
2,note_on,55,72,30
2,note_on,43,57,0
2,note_on,43,0,90
2,note_on,55,0,0
2,note_on,41,57,30
2,note_on,53,72,0
2,note_on,53,0,90
2,note_on,41,0,0
2,note_on,50,72,30
2,note_on,38,57,0
2,note_on,38,0,90
2,note_on,50,0,10
2,note_on,47,76,20
2,note_on,35,60,0
2,note_on,35,0,120
2,note_on,47,0,0
2,note_on,48,74,0
2,note_on,36,59,0
2,note_on,36,0,100
2,note_on,48,0,0
2,note_on,55,65,20
2,note_on,51,65,0
2,note_on,60,82,0
2,note_on,60,0,180
2,note_on,51,0,0
2,note_on,55,0,0
2,note_on,34,78,60
2,note_on,46,87,0
2,note_on,41,59,240
2,note_on,44,66,0
2,note_on,46,0,120
2,note_on,34,0,0
2,note_on,34,70,0
2,note_on,46,78,0
2,note_on,46,0,120
2,note_on,44,0,0
2,note_on,41,0,0
2,note_on,34,0,0
2,note_on,34,73,0
2,note_on,46,82,0
2,note_on,46,0,120
2,note_on,34,0,0
2,note_on,33,62,0
2,note_on,45,69,0
2,note_on,45,0,120
2,note_on,33,0,0
2,note_on,34,64,0
2,note_on,46,72,0
2,note_on,46,0,120
2,note_on,34,0,0
2,note_on,38,67,0
2,note_on,50,76,0
2,note_on,50,0,120
2,note_on,38,0,0
2,note_on,41,70,0
2,note_on,53,78,0
2,note_on,53,0,120
2,note_on,41,0,0
2,note_on,46,72,0
2,note_on,58,81,0
2,note_on,58,0,116
2,note_on,46,0,0
2,note_on,50,74,0
2,note_on,62,84,0
2,note_on,62,0,120
2,note_on,50,0,0
2,note_on,53,77,0
2,note_on,65,86,0
2,note_on,65,0,120
2,note_on,53,0,0
2,note_on,68,90,0
2,note_on,56,80,0
2,note_on,56,0,60
2,note_on,68,0,0
2,note_on,53,73,0
2,note_on,65,82,0
2,note_on,65,0,120
2,note_on,53,0,0
2,note_on,50,63,0
2,note_on,56,63,0
2,note_on,58,63,0
2,note_on,62,71,0
2,note_on,62,0,54
2,note_on,50,0,0
2,note_on,56,0,0
2,note_on,58,0,0
2,note_on,34,78,60
2,note_on,46,87,0
2,note_on,41,59,240
2,note_on,44,66,0
2,note_on,46,0,120
2,note_on,34,0,0
2,note_on,34,70,0
2,note_on,46,78,0
2,note_on,46,0,120
2,note_on,44,0,0
2,note_on,41,0,0
2,note_on,34,0,0
2,note_on,34,73,0
2,note_on,46,82,0
2,note_on,46,0,120
2,note_on,34,0,0
2,note_on,33,62,0
2,note_on,45,69,0
2,note_on,45,0,120
2,note_on,33,0,0
2,note_on,34,64,0
2,note_on,46,72,0
2,note_on,46,0,120
2,note_on,34,0,0
2,note_on,38,67,0
2,note_on,50,76,0
2,note_on,50,0,120
2,note_on,38,0,0
2,note_on,41,70,0
2,note_on,53,78,0
2,note_on,53,0,120
2,note_on,41,0,0
2,note_on,46,72,0
2,note_on,58,81,0
2,note_on,58,0,88
2,note_on,46,0,0
2,note_on,50,74,0
2,note_on,62,84,0
2,note_on,62,0,120
2,note_on,50,0,0
2,note_on,53,77,0
2,note_on,65,86,0
2,note_on,65,0,120
2,note_on,53,0,0
2,note_on,68,90,0
2,note_on,56,80,0
2,note_on,56,0,60
2,note_on,68,0,0
2,note_on,53,73,0
2,note_on,65,82,0
2,note_on,65,0,90
2,note_on,53,0,0
2,note_on,47,63,30
2,note_on,53,63,0
2,note_on,56,63,0
2,note_on,59,71,0
2,note_on,59,0,169
2,note_on,47,0,0
2,note_on,53,0,0
2,note_on,56,0,0
2,note_on,43,90,60
2,note_on,55,90,0
2,note_on,55,0,360
2,note_on,43,0,0
2,note_on,39,70,0
2,note_on,51,70,0
2,note_on,51,0,120
2,note_on,39,0,0
2,note_on,36,73,0
2,note_on,48,73,0
2,note_on,48,0,90
2,note_on,36,0,0
2,note_on,35,70,30
2,note_on,47,70,0
2,note_on,47,0,90
2,note_on,35,0,0
2,note_on,39,51,30
2,note_on,43,51,0
2,note_on,36,70,0
2,note_on,48,70,0
2,note_on,48,0,120
2,note_on,36,0,0
2,note_on,38,70,0
2,note_on,50,70,0
2,note_on,43,0,60
2,note_on,39,0,0
2,note_on,38,0,60
2,note_on,50,0,0
2,note_on,43,54,0
2,note_on,48,54,0
2,note_on,39,72,0
2,note_on,51,72,0
2,note_on,51,0,90
2,note_on,39,0,0
2,note_on,38,70,30
2,note_on,50,70,0
2,note_on,50,0,90
2,note_on,38,0,0
2,note_on,39,70,30
2,note_on,51,70,0
2,note_on,51,0,120
2,note_on,39,0,0
2,note_on,41,70,0
2,note_on,53,70,0
2,note_on,53,0,120
2,note_on,43,0,0
2,note_on,48,0,0
2,note_on,41,0,0
2,note_on,50,54,0
2,note_on,48,54,0
2,note_on,43,72,0
2,note_on,55,72,0
2,note_on,55,0,90
2,note_on,43,0,0
2,note_on,42,70,30
2,note_on,54,70,0
2,note_on,48,0,60
2,note_on,50,0,0
2,note_on,42,0,40
2,note_on,54,0,0
2,note_on,47,54,20
2,note_on,50,54,0
2,note_on,43,70,0
2,note_on,55,70,0
2,note_on,55,0,120
2,note_on,43,0,0
2,note_on,57,70,0
2,note_on,45,70,0
2,note_on,50,0,60
2,note_on,47,0,0
2,note_on,57,0,60
2,note_on,45,0,0
2,note_on,47,74,0
2,note_on,59,74,0
2,note_on,59,0,90
2,note_on,47,0,0
2,note_on,45,70,30
2,note_on,57,70,0
2,note_on,57,0,110
2,note_on,45,0,0
2,note_on,50,54,10
2,note_on,53,54,0
2,note_on,47,70,0
2,note_on,59,70,0
2,note_on,59,0,120
2,note_on,47,0,0
2,note_on,43,70,0
2,note_on,55,70,0
2,note_on,53,0,60
2,note_on,50,0,0
2,note_on,43,0,60
2,note_on,55,0,0
2,note_on,51,60,0
2,note_on,48,79,0
2,note_on,60,79,0
2,note_on,60,0,100
2,note_on,48,0,0
2,note_on,47,69,20
2,note_on,59,69,0
2,note_on,51,0,60
2,note_on,59,0,60
2,note_on,47,0,0
2,note_on,55,60,0
2,note_on,51,60,0
2,note_on,48,70,0
2,note_on,60,70,0
2,note_on,60,0,120
2,note_on,48,0,0
2,note_on,50,72,0
2,note_on,62,72,0
2,note_on,51,0,60
2,note_on,55,0,0
2,note_on,50,0,60
2,note_on,62,0,0
2,note_on,60,63,0
2,note_on,55,63,0
2,note_on,51,81,0
2,note_on,63,81,0
2,note_on,63,0,100
2,note_on,51,0,0
2,note_on,50,70,20
2,note_on,62,70,0
2,note_on,55,0,60
2,note_on,60,0,0
2,note_on,50,0,60
2,note_on,62,0,0
2,note_on,56,63,0
2,note_on,60,63,0
2,note_on,51,72,0
2,note_on,63,72,0
2,note_on,63,0,120
2,note_on,51,0,0
2,note_on,53,73,0
2,note_on,65,73,0
2,note_on,60,0,60
2,note_on,56,0,0
2,note_on,53,0,60
2,note_on,65,0,0
2,note_on,59,81,0
2,note_on,55,81,0
2,note_on,67,81,0
2,note_on,67,0,120
2,note_on,55,0,0
2,note_on,59,0,0
2,note_on,43,69,120
2,note_on,50,69,0
2,note_on,55,69,0
2,note_on,55,0,180
2,note_on,50,0,0
2,note_on,43,0,0
2,note_on,67,80,60
2,note_on,62,72,0
2,note_on,59,72,0
2,note_on,55,72,0
2,note_on,55,0,360
2,note_on,67,0,0
2,note_on,62,0,0
2,note_on,59,0,0
2,note_on,43,64,0
2,note_on,55,72,0
2,note_on,55,0,120
2,note_on,43,0,0
2,note_on,41,66,0
2,note_on,47,66,0
2,note_on,53,74,0
2,note_on,53,0,120
2,note_on,47,0,0
2,note_on,41,0,0
2,note_on,40,64,0
2,note_on,52,72,0
2,note_on,52,0,120
2,note_on,40,0,0
2,note_on,41,64,0
2,note_on,47,64,0
2,note_on,53,72,0
2,note_on,53,0,120
2,note_on,47,0,0
2,note_on,41,0,0
2,note_on,47,64,0
2,note_on,59,72,0
2,note_on,59,0,120
2,note_on,47,0,0
2,note_on,39,66,0
2,note_on,51,74,0
2,note_on,51,0,120
2,note_on,39,0,0
2,note_on,38,64,0
2,note_on,50,72,0
2,note_on,50,0,120
2,note_on,38,0,0
2,note_on,39,64,0
2,note_on,48,72,0
2,note_on,51,72,0
2,note_on,51,0,120
2,note_on,48,0,0
2,note_on,39,0,0
2,note_on,44,64,0
2,note_on,56,72,0
2,note_on,56,0,120
2,note_on,44,0,0
2,note_on,38,66,0
2,note_on,44,66,0
2,note_on,50,74,0
2,note_on,50,0,120
2,note_on,44,0,0
2,note_on,38,0,0
2,note_on,37,64,0
2,note_on,49,72,0
2,note_on,49,0,120
2,note_on,37,0,0
2,note_on,38,64,0
2,note_on,43,64,0
2,note_on,50,72,0
2,note_on,50,0,90
2,note_on,43,0,0
2,note_on,38,0,0
2,note_on,43,64,30
2,note_on,55,72,0
2,note_on,55,0,120
2,note_on,43,0,0
2,note_on,36,66,0
2,note_on,48,74,0
2,note_on,48,0,120
2,note_on,36,0,0
2,note_on,35,64,0
2,note_on,47,72,0
2,note_on,47,0,120
2,note_on,35,0,0
2,note_on,36,64,0
2,note_on,43,64,0
2,note_on,48,72,0
2,note_on,48,0,90
2,note_on,43,0,0
2,note_on,36,0,0
2,note_on,39,64,30
2,note_on,51,72,0
2,note_on,51,0,120
2,note_on,39,0,0
2,note_on,41,66,0
2,note_on,53,74,0
2,note_on,53,0,240
2,note_on,41,0,0
2,note_on,51,64,0
2,note_on,63,72,0
2,note_on,63,0,90
2,note_on,51,0,0
2,note_on,50,64,30
2,note_on,62,72,0
2,note_on,62,0,90
2,note_on,50,0,0
2,note_on,48,67,30
2,note_on,60,76,0
2,note_on,60,0,90
2,note_on,48,0,0
2,note_on,43,64,30
2,note_on,55,72,0
2,note_on,55,0,90
2,note_on,43,0,0
2,note_on,44,64,30
2,note_on,56,72,0
2,note_on,56,0,90
2,note_on,44,0,0
2,note_on,43,64,30
2,note_on,55,72,0
2,note_on,55,0,100
2,note_on,43,0,0
2,note_on,35,64,20
2,note_on,47,72,0
2,note_on,47,0,120
2,note_on,35,0,0
2,note_on,36,63,0
2,note_on,48,71,0
2,note_on,48,0,90
2,note_on,36,0,0
2,note_on,48,70,30
2,note_on,51,70,0
2,note_on,55,70,0
2,note_on,60,78,0
2,note_on,60,0,180
2,note_on,48,0,0
2,note_on,51,0,0
2,note_on,55,0,0
2,note_on,35,69,1500
2,note_on,47,77,0
2,note_on,47,0,120
2,note_on,35,0,0
2,note_on,36,63,0
2,note_on,48,71,0
2,note_on,48,0,90
2,note_on,36,0,0
2,note_on,56,55,30
2,note_on,48,55,0
2,note_on,54,55,0
2,note_on,63,63,0
2,note_on,63,0,180
2,note_on,56,0,0
2,note_on,48,0,0
2,note_on,54,0,0
2,note_on,63,56,480
2,note_on,63,0,60
2,note_on,63,62,0
2,note_on,63,0,960
2,note_on,35,54,0
2,note_on,47,60,0
2,note_on,47,0,60
2,note_on,35,0,0
2,note_on,36,51,60
2,note_on,48,57,0
2,note_on,48,0,60
2,note_on,36,0,0
2,note_on,42,46,60
2,note_on,54,53,0
2,note_on,54,0,180
2,note_on,42,0,0
2,note_on,69,51,60
2,note_on,66,45,0
2,note_on,63,45,0
2,note_on,63,0,480
2,note_on,66,0,0
2,note_on,69,0,0
2,note_on,62,44,0
2,note_on,65,44,0
2,note_on,69,49,0
2,note_on,69,0,480
2,note_on,65,0,0
2,note_on,62,0,0
2,note_on,40,45,0
2,note_on,52,58,0
2,note_on,52,0,60
2,note_on,40,0,0
2,note_on,41,45,60
2,note_on,53,57,0
2,note_on,53,0,90
2,note_on,41,0,0
2,note_on,65,53,30
2,note_on,53,42,0
2,note_on,53,0,240
2,note_on,65,0,0
2,note_on,34,48,480
2,note_on,46,54,0
2,note_on,41,46,240
2,note_on,44,46,0
2,note_on,46,0,120
2,note_on,34,0,0
2,note_on,34,48,0
2,note_on,46,48,0
2,note_on,46,0,90
2,note_on,34,0,0
2,note_on,41,0,30
2,note_on,44,0,0
2,note_on,34,45,0
2,note_on,46,50,0
2,note_on,46,0,60
2,note_on,34,0,0
2,note_on,33,45,60
2,note_on,45,52,0
2,note_on,45,0,60
2,note_on,33,0,0
2,note_on,34,45,60
2,note_on,46,52,0
2,note_on,46,0,60
2,note_on,34,0,0
2,note_on,38,46,60
2,note_on,50,53,0
2,note_on,50,0,60
2,note_on,38,0,0
2,note_on,41,49,60
2,note_on,53,55,0
2,note_on,53,0,60
2,note_on,41,0,0
2,note_on,46,51,60
2,note_on,58,57,0
2,note_on,58,0,60
2,note_on,46,0,0
2,note_on,50,51,60
2,note_on,62,57,0
2,note_on,62,0,60
2,note_on,50,0,0
2,note_on,53,52,60
2,note_on,65,58,0
2,note_on,65,0,60
2,note_on,53,0,0
2,note_on,68,60,60
2,note_on,56,54,0
2,note_on,56,0,60
2,note_on,68,0,0
2,note_on,53,51,60
2,note_on,65,57,0
2,note_on,65,0,60
2,note_on,53,0,0
2,note_on,50,44,60
2,note_on,62,49,0
2,note_on,62,0,120
2,note_on,50,0,0
2,note_on,68,38,1860
2,note_on,68,0,60
2,note_on,62,39,0
2,note_on,62,0,60
2,note_on,53,42,0
2,note_on,53,0,60
2,note_on,46,44,0
2,note_on,46,0,240
2,note_on,56,35,540
2,note_on,56,0,60
2,note_on,53,36,0
2,note_on,53,0,60
2,note_on,47,38,0
2,note_on,47,0,60
2,note_on,39,39,0
2,note_on,39,0,240
2,note_on,80,36,480
2,note_on,80,0,60
2,note_on,77,36,0
2,note_on,77,0,60
2,note_on,71,36,0
2,note_on,71,0,60
2,note_on,70,36,0
2,note_on,70,0,60
2,note_on,56,36,240
2,note_on,56,0,60
2,note_on,53,36,0
2,note_on,53,0,60
2,note_on,47,36,0
2,note_on,47,0,60
2,note_on,46,36,0
2,note_on,46,0,60
2,note_on,62,31,7
2,note_on,69,32,10
2,note_on,72,33,10
2,note_on,78,35,10
2,note_on,78,0,231
2,note_on,62,0,0
2,note_on,69,0,0
2,note_on,72,0,0
2,note_on,58,32,180
2,note_on,65,33,7
2,note_on,68,35,10
2,note_on,74,36,10
2,note_on,74,0,193
2,note_on,58,0,0
2,note_on,65,0,0
2,note_on,68,0,0
2,note_on,59,36,112
2,note_on,60,35,7
2,note_on,59,0,20
2,note_on,59,36,20
2,note_on,60,0,20
2,note_on,60,35,20
2,note_on,59,0,20
2,note_on,59,36,20
2,note_on,60,0,20
2,note_on,60,35,20
2,note_on,59,0,20
2,note_on,59,36,20
2,note_on,60,0,20
2,note_on,60,35,10
2,note_on,59,0,15
2,note_on,59,37,15
2,note_on,60,0,15
2,note_on,59,0,45
2,note_on,58,36,0
2,note_on,59,36,60
2,note_on,58,0,20
2,note_on,59,0,40
2,note_on,61,41,3
2,note_on,62,37,16
2,note_on,61,0,20
2,note_on,61,42,20
2,note_on,62,0,20
2,note_on,62,37,20
2,note_on,61,0,20
2,note_on,61,43,20
2,note_on,62,0,20
2,note_on,62,38,20
2,note_on,61,0,20
2,note_on,61,44,20
2,note_on,62,0,20
2,note_on,62,39,10
2,note_on,61,0,15
2,note_on,61,44,15
2,note_on,62,0,15
2,note_on,62,39,15
2,note_on,61,0,15
2,note_on,61,44,15
2,note_on,62,0,15
2,note_on,62,41,15
2,note_on,61,0,15
2,note_on,61,45,15
2,note_on,62,0,15
2,note_on,62,41,15
2,note_on,61,0,15
2,note_on,61,45,15
2,note_on,62,0,15
2,note_on,62,41,25
2,note_on,61,0,20
2,note_on,61,45,20
2,note_on,62,0,20
2,note_on,62,39,20
2,note_on,61,0,20
2,note_on,61,45,20
2,note_on,62,0,20
2,note_on,62,39,20
2,note_on,61,0,20
2,note_on,61,44,20
2,note_on,62,0,20
2,note_on,62,38,10
2,note_on,61,0,15
2,note_on,61,43,15
2,note_on,62,0,15
2,note_on,62,37,15
2,note_on,61,0,15
2,note_on,61,41,15
2,note_on,62,0,15
2,note_on,62,37,15
2,note_on,61,0,15
2,note_on,61,41,15
2,note_on,62,0,15
2,note_on,62,36,15
2,note_on,61,0,15
2,note_on,61,41,15
2,note_on,62,0,15
2,note_on,62,36,25
2,note_on,61,0,20
2,note_on,61,38,20
2,note_on,62,0,20
2,note_on,62,35,20
2,note_on,61,0,20
2,note_on,61,36,20
2,note_on,62,0,20
2,note_on,62,33,20
2,note_on,61,0,20
2,note_on,61,36,20
2,note_on,62,0,20
2,note_on,62,32,10
2,note_on,61,0,15
2,note_on,61,33,15
2,note_on,62,0,15
2,note_on,61,0,45
2,note_on,60,29,0
2,note_on,60,0,20
2,note_on,61,26,0
2,note_on,61,0,60
2,note_on,77,37,1268
2,note_on,77,0,39
2,note_on,75,37,5
2,note_on,75,0,39
2,note_on,74,36,5
2,note_on,74,0,39
2,note_on,72,36,5
2,note_on,72,0,35
2,note_on,70,41,5
2,note_on,70,0,90
2,note_on,39,27,150
2,note_on,46,27,0
2,note_on,46,0,90
2,note_on,39,0,0
2,note_on,39,27,150
2,note_on,46,27,0
2,note_on,46,0,90
2,note_on,39,0,0
2,note_on,39,27,150
2,note_on,46,27,0
2,note_on,46,0,90
2,note_on,39,0,0
2,note_on,39,29,150
2,note_on,46,29,0
2,note_on,46,0,238
2,note_on,39,0,0
2,note_on,77,37,340
2,note_on,77,0,29
2,note_on,75,37,5
2,note_on,75,0,29
2,note_on,74,36,5
2,note_on,74,0,29
2,note_on,72,36,5
2,note_on,72,0,33
2,note_on,70,41,5
2,note_on,70,0,90
2,note_on,39,27,150
2,note_on,46,27,0
2,note_on,46,0,90
2,note_on,39,0,0
2,note_on,39,29,150
2,note_on,46,29,0
2,note_on,46,0,90
2,note_on,39,0,0
2,note_on,39,27,150
2,note_on,46,27,0
2,note_on,46,0,90
2,note_on,39,0,0
2,note_on,39,27,150
2,note_on,46,27,0
2,note_on,46,0,460
2,note_on,39,0,0
2,note_on,89,37,214
2,note_on,89,0,24
2,note_on,87,37,2
2,note_on,87,0,24
2,note_on,86,36,2
2,note_on,86,0,24
2,note_on,84,36,2
2,note_on,84,0,24
2,note_on,82,36,2
2,note_on,82,0,24
2,note_on,80,36,2
2,note_on,80,0,24
2,note_on,79,36,2
2,note_on,79,0,24
2,note_on,77,36,2
2,note_on,77,0,24
2,note_on,75,36,2
2,note_on,75,0,24
2,note_on,74,36,2
2,note_on,74,0,24
2,note_on,72,36,4
2,note_on,72,0,24
2,note_on,70,41,0
2,note_on,70,0,90
2,note_on,39,29,150
2,note_on,46,29,0
2,note_on,46,0,90
2,note_on,39,0,0
2,note_on,39,32,150
2,note_on,46,32,0
2,note_on,46,0,90
2,note_on,39,0,0
2,note_on,39,30,150
2,note_on,46,30,0
2,note_on,46,0,90
2,note_on,39,0,0
2,note_on,39,32,150
2,note_on,46,32,0
2,note_on,46,0,224
2,note_on,39,0,0
2,note_on,89,37,238
2,note_on,89,0,20
2,note_on,87,37,2
2,note_on,87,0,20
2,note_on,86,36,2
2,note_on,86,0,20
2,note_on,84,36,2
2,note_on,84,0,20
2,note_on,82,36,2
2,note_on,82,0,20
2,note_on,80,36,2
2,note_on,80,0,20
2,note_on,79,36,2
2,note_on,79,0,20
2,note_on,77,36,2
2,note_on,77,0,20
2,note_on,75,36,2
2,note_on,75,0,20
2,note_on,74,36,2
2,note_on,74,0,20
2,note_on,72,36,2
2,note_on,72,0,20
2,note_on,70,41,2
2,note_on,70,0,90
2,note_on,39,31,150
2,note_on,46,31,0
2,note_on,46,0,90
2,note_on,39,0,0
2,note_on,39,32,150
2,note_on,47,32,0
2,note_on,47,0,90
2,note_on,39,0,0
2,note_on,39,31,150
2,note_on,46,31,0
2,note_on,46,0,90
2,note_on,39,0,0
2,note_on,51,29,150
2,note_on,39,29,0
2,note_on,46,29,0
2,note_on,46,0,460
2,note_on,39,0,0
2,note_on,51,0,0
2,note_on,46,53,20
2,note_on,46,0,10
2,note_on,45,53,1
2,note_on,45,0,39
2,note_on,44,53,1
2,note_on,44,0,39
2,note_on,43,53,1
2,note_on,43,0,39
2,note_on,42,53,1
2,note_on,42,0,39
2,note_on,41,53,1
2,note_on,41,0,39
2,note_on,40,56,1
2,note_on,40,0,39
2,note_on,39,58,1
2,note_on,39,0,39
2,note_on,38,60,1
2,note_on,38,0,39
2,note_on,37,63,1
2,note_on,37,0,39
2,note_on,36,64,1
2,note_on,36,0,39
2,note_on,35,66,1
2,note_on,35,0,39
2,note_on,34,83,1
2,note_on,34,0,53
2,note_on,53,41,180
2,note_on,46,41,0
2,note_on,46,0,90
2,note_on,53,0,0
2,note_on,46,45,150
2,note_on,54,45,0
2,note_on,54,0,90
2,note_on,46,0,0
2,note_on,55,43,150
2,note_on,46,43,0
2,note_on,46,0,90
2,note_on,55,0,0
2,note_on,58,45,150
2,note_on,46,45,0
2,note_on,58,0,200
2,note_on,53,44,2
2,note_on,53,0,114
2,note_on,46,0,120
2,note_on,34,55,0
2,note_on,34,0,11
2,note_on,36,56,1
2,note_on,36,0,36
2,note_on,38,57,1
2,note_on,38,0,36
2,note_on,39,59,1
2,note_on,39,0,36
2,note_on,41,60,1
2,note_on,41,0,36
2,note_on,43,62,1
2,note_on,43,0,36
2,note_on,45,63,1
2,note_on,45,0,36
2,note_on,46,63,1
2,note_on,46,0,36
2,note_on,48,64,1
2,note_on,48,0,36
2,note_on,50,65,1
2,note_on,50,0,36
2,note_on,51,67,1
2,note_on,51,0,36
2,note_on,52,69,1
2,note_on,52,0,36
2,note_on,55,70,1
2,note_on,55,0,35
2,note_on,53,63,1
2,note_on,46,41,227
2,note_on,41,41,0
2,note_on,41,0,90
2,note_on,46,0,0
2,note_on,41,44,150
2,note_on,48,44,0
2,note_on,48,0,90
2,note_on,41,0,0
2,note_on,50,43,150
2,note_on,41,43,0
2,note_on,41,0,90
2,note_on,50,0,0
2,note_on,46,44,150
2,note_on,53,0,199
2,note_on,34,48,0
2,note_on,34,0,106
2,note_on,46,0,120
2,note_on,66,58,144
2,note_on,66,0,39
2,note_on,65,58,1
2,note_on,65,0,39
2,note_on,64,60,1
2,note_on,64,0,39
2,note_on,63,63,1
2,note_on,63,0,39
2,note_on,58,38,222
2,note_on,53,38,0
2,note_on,46,38,0
2,note_on,46,0,90
2,note_on,53,0,0
2,note_on,58,0,0
2,note_on,60,43,150
2,note_on,46,43,0
2,note_on,54,43,0
2,note_on,54,0,90
2,note_on,46,0,0
2,note_on,60,0,0
2,note_on,61,43,150
2,note_on,55,41,0
2,note_on,46,41,0
2,note_on,46,0,90
2,note_on,55,0,0
2,note_on,61,0,0
2,note_on,53,42,150
2,note_on,62,42,0
2,note_on,46,42,0
2,note_on,62,0,240
2,note_on,58,41,0
2,note_on,58,0,120
2,note_on,46,0,120
2,note_on,53,0,0
2,note_on,46,49,0
2,note_on,46,0,36
2,note_on,48,50,1
2,note_on,48,0,36
2,note_on,50,51,1
2,note_on,50,0,36
2,note_on,51,53,1
2,note_on,51,0,36
2,note_on,53,54,1
2,note_on,53,0,36
2,note_on,55,55,1
2,note_on,55,0,36
2,note_on,57,55,1
2,note_on,57,0,36
2,note_on,58,56,1
2,note_on,58,0,36
2,note_on,53,35,425
2,note_on,59,35,0
2,note_on,59,0,240
2,note_on,53,0,0
2,note_on,60,36,0
2,note_on,53,36,0
2,note_on,53,0,240
2,note_on,60,0,0
2,note_on,65,36,0
2,note_on,53,32,0
2,note_on,57,32,0
2,note_on,46,32,180
2,note_on,53,32,10
2,note_on,62,36,10
2,note_on,57,0,40
2,note_on,65,0,0
2,note_on,53,0,0
2,note_on,46,0,460
2,note_on,53,0,0
2,note_on,62,0,0
2,note_on,48,51,232
2,note_on,48,0,40
2,note_on,49,53,0
2,note_on,49,0,40
2,note_on,48,54,0
2,note_on,48,0,40
2,note_on,47,56,0
2,note_on,47,0,40
2,note_on,46,57,0
2,note_on,46,0,40
2,note_on,45,58,0
2,note_on,45,0,40
2,note_on,44,60,0
2,note_on,44,0,90
2,note_on,41,52,150
2,note_on,41,0,34
2,note_on,43,51,0
2,note_on,43,0,34
2,note_on,41,50,0
2,note_on,41,0,34
2,note_on,40,50,0
2,note_on,40,0,34
2,note_on,39,49,0
2,note_on,39,0,34
2,note_on,38,48,0
2,note_on,38,0,35
2,note_on,37,46,0
2,note_on,37,0,35
2,note_on,36,45,0
2,note_on,36,0,240
2,note_on,52,39,0
2,note_on,52,0,90
2,note_on,48,51,229
2,note_on,60,51,0
2,note_on,60,0,40
2,note_on,61,53,0
2,note_on,61,0,40
2,note_on,60,54,0
2,note_on,60,0,40
2,note_on,59,56,0
2,note_on,59,0,40
2,note_on,58,57,0
2,note_on,58,0,40
2,note_on,57,58,0
2,note_on,57,0,40
2,note_on,48,0,0
2,note_on,44,54,0
2,note_on,56,60,0
2,note_on,56,0,90
2,note_on,44,0,0
2,note_on,41,52,150
2,note_on,53,52,0
2,note_on,53,0,34
2,note_on,55,51,0
2,note_on,55,0,34
2,note_on,53,50,0
2,note_on,53,0,34
2,note_on,52,50,0
2,note_on,52,0,34
2,note_on,51,49,0
2,note_on,51,0,34
2,note_on,50,48,0
2,note_on,50,0,35
2,note_on,49,46,0
2,note_on,49,0,35
2,note_on,41,0,0
2,note_on,36,41,0
2,note_on,48,45,0
2,note_on,48,0,240
2,note_on,36,0,0
2,note_on,55,36,0
2,note_on,64,39,0
2,note_on,64,0,90
2,note_on,55,0,0
2,note_on,72,50,150
2,note_on,80,50,0
2,note_on,80,0,37
2,note_on,79,48,0
2,note_on,79,0,48
2,note_on,78,49,0
2,note_on,78,0,48
2,note_on,77,50,0
2,note_on,77,0,48
2,note_on,76,52,0
2,note_on,76,0,48
2,note_on,75,54,0
2,note_on,75,0,48
2,note_on,74,55,0
2,note_on,74,0,48
2,note_on,73,56,0
2,note_on,73,0,48
2,note_on,72,58,0
2,note_on,72,0,48
2,note_on,71,59,0
2,note_on,71,0,48
2,note_on,72,0,0
2,note_on,70,62,0
2,note_on,68,62,0
2,note_on,68,0,48
2,note_on,70,0,0
2,note_on,46,51,180
2,note_on,46,0,40
2,note_on,47,53,0
2,note_on,47,0,40
2,note_on,46,54,0
2,note_on,46,0,40
2,note_on,45,56,0
2,note_on,45,0,40
2,note_on,44,57,0
2,note_on,44,0,40
2,note_on,43,58,0
2,note_on,43,0,40
2,note_on,42,60,0
2,note_on,42,0,90
2,note_on,39,57,150
2,note_on,39,0,34
2,note_on,41,57,0
2,note_on,41,0,34
2,note_on,39,56,0
2,note_on,39,0,34
2,note_on,38,55,0
2,note_on,38,0,34
2,note_on,37,55,0
2,note_on,37,0,34
2,note_on,36,54,0
2,note_on,36,0,35
2,note_on,35,54,0
2,note_on,35,0,35
2,note_on,34,53,0
2,note_on,34,0,240
2,note_on,50,49,0
2,note_on,50,0,90
2,note_on,71,50,150
2,note_on,80,50,0
2,note_on,80,0,30
2,note_on,79,48,0
2,note_on,79,0,48
2,note_on,78,49,0
2,note_on,78,0,48
2,note_on,77,50,0
2,note_on,77,0,48
2,note_on,76,52,0
2,note_on,76,0,48
2,note_on,75,54,0
2,note_on,75,0,48
2,note_on,74,55,0
2,note_on,74,0,48
2,note_on,73,56,0
2,note_on,73,0,48
2,note_on,72,58,0
2,note_on,72,0,48
2,note_on,71,59,0
2,note_on,71,0,48
2,note_on,71,0,0
2,note_on,70,62,0
2,note_on,68,62,0
2,note_on,68,0,49
2,note_on,70,0,0
2,note_on,46,53,150
2,note_on,58,59,30
2,note_on,58,0,40
2,note_on,59,60,0
2,note_on,59,0,40
2,note_on,58,62,0
2,note_on,58,0,40
2,note_on,57,62,0
2,note_on,57,0,40
2,note_on,56,63,0
2,note_on,56,0,40
2,note_on,55,63,0
2,note_on,55,0,40
2,note_on,46,0,0
2,note_on,42,56,0
2,note_on,54,63,0
2,note_on,54,0,90
2,note_on,42,0,0
2,note_on,39,57,120
2,note_on,51,64,30
2,note_on,51,0,34
2,note_on,53,64,0
2,note_on,53,0,34
2,note_on,51,64,0
2,note_on,51,0,34
2,note_on,50,64,0
2,note_on,50,0,34
2,note_on,49,64,0
2,note_on,49,0,34
2,note_on,48,64,0
2,note_on,48,0,35
2,note_on,47,64,0
2,note_on,34,69,10
2,note_on,46,77,5
2,note_on,47,0,20
2,note_on,39,0,0
2,note_on,34,0,240
2,note_on,53,65,0
2,note_on,50,58,0
2,note_on,50,0,90
2,note_on,53,0,0
2,note_on,46,0,130
2,note_on,70,72,20
2,note_on,82,80,0
2,note_on,70,0,5
2,note_on,82,0,20
2,note_on,68,69,20
2,note_on,80,69,0
2,note_on,80,0,51
2,note_on,68,0,0
2,note_on,66,63,29
2,note_on,78,71,0
2,note_on,78,0,53
2,note_on,66,0,0
2,note_on,64,65,27
2,note_on,76,73,0
2,note_on,76,0,55
2,note_on,64,0,0
2,note_on,62,67,25
2,note_on,74,76,0
2,note_on,74,0,57
2,note_on,62,0,0
2,note_on,60,71,23
2,note_on,72,79,0
2,note_on,72,0,59
2,note_on,60,0,0
2,note_on,58,81,21
2,note_on,70,90,0
2,note_on,70,0,108
2,note_on,58,0,0
2,note_on,34,64,120
2,note_on,41,64,0
2,note_on,46,64,0
2,note_on,46,0,214
2,note_on,41,0,0
2,note_on,34,0,0
2,note_on,74,72,0
2,note_on,86,80,0
2,note_on,86,0,17
2,note_on,74,0,0
2,note_on,72,62,20
2,note_on,84,69,0
2,note_on,84,0,51
2,note_on,72,0,0
2,note_on,70,63,29
2,note_on,82,71,0
2,note_on,82,0,53
2,note_on,70,0,0
2,note_on,68,65,27
2,note_on,80,73,0
2,note_on,80,0,55
2,note_on,68,0,0
2,note_on,66,67,25
2,note_on,78,76,0
2,note_on,78,0,57
2,note_on,66,0,0
2,note_on,64,71,23
2,note_on,76,79,0
2,note_on,76,0,59
2,note_on,64,0,0
2,note_on,62,81,21
2,note_on,74,90,0
2,note_on,74,0,112
2,note_on,62,0,0
2,note_on,34,64,120
2,note_on,41,64,0
2,note_on,50,64,0
2,note_on,50,0,188
2,note_on,41,0,0
2,note_on,34,0,0
2,note_on,77,66,0
2,note_on,89,74,0
2,note_on,89,0,28
2,note_on,77,0,0
2,note_on,75,66,40
2,note_on,87,74,0
2,note_on,87,0,40
2,note_on,75,0,0
2,note_on,73,67,40
2,note_on,85,76,0
2,note_on,85,0,40
2,note_on,73,0,0
2,note_on,71,69,40
2,note_on,83,77,0
2,note_on,83,0,40
2,note_on,71,0,0
2,note_on,69,70,40
2,note_on,81,78,0
2,note_on,81,0,40
2,note_on,69,0,0
2,note_on,67,71,40
2,note_on,79,79,0
2,note_on,79,0,40
2,note_on,67,0,0
2,note_on,65,71,40
2,note_on,77,79,0
2,note_on,77,0,40
2,note_on,65,0,0
2,note_on,63,72,40
2,note_on,75,80,0
2,note_on,75,0,40
2,note_on,63,0,0
2,note_on,61,72,40
2,note_on,73,81,0
2,note_on,61,0,40
2,note_on,73,0,5
2,note_on,59,73,35
2,note_on,71,82,0
2,note_on,59,0,45
2,note_on,71,0,5
2,note_on,57,73,30
2,note_on,69,82,0
2,note_on,69,0,50
2,note_on,57,0,0
2,note_on,55,73,30
2,note_on,67,83,0
2,note_on,67,0,50
2,note_on,55,0,0
2,note_on,53,74,30
2,note_on,65,84,0
2,note_on,65,0,36
2,note_on,53,0,0
2,note_on,51,76,30
2,note_on,63,85,0
2,note_on,63,0,51
2,note_on,51,0,0
2,note_on,49,77,29
2,note_on,61,86,0
2,note_on,61,0,53
2,note_on,49,0,0
2,note_on,47,77,27
2,note_on,59,86,0
2,note_on,59,0,55
2,note_on,47,0,0
2,note_on,45,78,25
2,note_on,57,87,0
2,note_on,57,0,57
2,note_on,45,0,0
2,note_on,41,79,23
2,note_on,53,88,0
2,note_on,53,0,59
2,note_on,41,0,0
2,note_on,34,84,21
2,note_on,46,94,0
2,note_on,46,0,175
2,note_on,34,0,0
2,note_on,33,74,0
2,note_on,33,0,30
2,note_on,34,72,0
2,note_on,34,0,40
2,note_on,38,72,0
2,note_on,41,73,40
2,note_on,38,0,5
2,note_on,44,73,35
2,note_on,41,0,6
2,note_on,46,74,34
2,note_on,44,0,7
2,note_on,50,74,33
2,note_on,46,0,8
2,note_on,53,76,9
2,note_on,50,0,9
2,note_on,56,76,31
2,note_on,53,0,10
2,note_on,56,0,30
2,note_on,58,77,0
2,note_on,58,0,40
2,note_on,62,77,0
2,note_on,62,0,40
2,note_on,65,77,0
2,note_on,65,0,40
2,note_on,68,78,0
2,note_on,68,0,48
2,note_on,70,78,0
2,note_on,70,0,48
2,note_on,74,79,0
2,note_on,74,0,48
2,note_on,77,80,0
2,note_on,77,0,48
2,note_on,80,80,0
2,note_on,80,0,48
2,note_on,81,81,0
2,note_on,81,0,16
2,note_on,84,78,9
2,note_on,84,0,30
2,note_on,82,77,4
2,note_on,82,0,30
2,note_on,80,77,4
2,note_on,80,0,30
2,note_on,77,77,4
2,note_on,77,0,30
2,note_on,74,77,4
2,note_on,74,0,30
2,note_on,70,77,4
2,note_on,70,0,30
2,note_on,69,81,6
2,note_on,69,0,30
2,note_on,72,78,4
2,note_on,72,0,34
2,note_on,70,77,0
2,note_on,70,0,34
2,note_on,68,77,0
2,note_on,68,0,34
2,note_on,65,77,0
2,note_on,65,0,34
2,note_on,62,77,0
2,note_on,62,0,34
2,note_on,58,77,0
2,note_on,58,0,34
2,note_on,57,81,2
2,note_on,57,0,30
2,note_on,60,78,4
2,note_on,60,0,34
2,note_on,58,77,0
2,note_on,58,0,34
2,note_on,56,77,0
2,note_on,56,0,34
2,note_on,53,77,0
2,note_on,53,0,34
2,note_on,50,77,0
2,note_on,50,0,34
2,note_on,46,76,0
2,note_on,46,0,34
2,note_on,45,78,2
2,note_on,46,80,48
2,note_on,45,0,2
2,note_on,50,83,46
2,note_on,46,0,2
2,note_on,53,85,46
2,note_on,50,0,2
2,note_on,56,88,46
2,note_on,53,0,7
2,note_on,56,0,41
2,note_on,45,73,0
2,note_on,57,92,0
2,note_on,57,0,30
2,note_on,45,0,0
2,note_on,51,59,19
2,note_on,63,75,0
2,note_on,63,0,37
2,note_on,51,0,0
2,note_on,49,60,13
2,note_on,61,76,0
2,note_on,61,0,37
2,note_on,49,0,0
2,note_on,47,63,13
2,note_on,59,78,0
2,note_on,59,0,37
2,note_on,47,0,0
2,note_on,45,64,13
2,note_on,57,81,0
2,note_on,57,0,37
2,note_on,45,0,0
2,note_on,43,65,13
2,note_on,55,81,0
2,note_on,55,0,37
2,note_on,43,0,0
2,note_on,41,66,13
2,note_on,53,84,0
2,note_on,53,0,37
2,note_on,41,0,0
2,note_on,39,69,13
2,note_on,51,87,0
2,note_on,51,0,37
2,note_on,39,0,0
2,note_on,49,89,13
2,note_on,37,89,0
2,note_on,37,0,37
2,note_on,49,0,0
2,note_on,35,72,13
2,note_on,47,90,0
2,note_on,34,69,30
2,note_on,46,87,0
2,note_on,47,0,3
2,note_on,35,0,0
2,note_on,34,0,75
2,note_on,46,0,0
2,note_on,51,71,150
2,note_on,39,71,0
2,note_on,46,71,0
2,note_on,46,0,100
2,note_on,39,0,0
2,note_on,51,0,0
2,note_on,53,73,140
2,note_on,39,73,0
2,note_on,46,73,0
2,note_on,46,0,100
2,note_on,39,0,0
2,note_on,53,0,0
2,note_on,54,71,140
2,note_on,39,71,0
2,note_on,46,71,0
2,note_on,46,0,100
2,note_on,39,0,0
2,note_on,54,0,0
2,note_on,55,73,140
2,note_on,39,73,0
2,note_on,46,73,0
2,note_on,55,0,240
2,note_on,51,71,0
2,note_on,51,0,120
2,note_on,46,0,120
2,note_on,39,0,0
2,note_on,45,71,0
2,note_on,57,80,0
2,note_on,57,0,39
2,note_on,45,0,0
2,note_on,55,67,23
2,note_on,67,76,0
2,note_on,67,0,51
2,note_on,55,0,0
2,note_on,51,68,17
2,note_on,63,78,0
2,note_on,63,0,51
2,note_on,51,0,0
2,note_on,48,72,17
2,note_on,60,81,0
2,note_on,60,0,51
2,note_on,48,0,0
2,note_on,44,75,17
2,note_on,56,84,0
2,note_on,56,0,51
2,note_on,44,0,0
2,note_on,41,78,17
2,note_on,53,86,0
2,note_on,53,0,51
2,note_on,41,0,0
2,note_on,38,80,17
2,note_on,50,89,0
2,note_on,50,0,51
2,note_on,38,0,0
2,note_on,34,81,21
2,note_on,46,90,0
2,note_on,46,0,82
2,note_on,34,0,0
2,note_on,51,74,150
2,note_on,39,66,0
2,note_on,46,66,0
2,note_on,46,0,100
2,note_on,39,0,0
2,note_on,51,0,0
2,note_on,50,79,140
2,note_on,53,79,0
2,note_on,39,71,0
2,note_on,47,71,0
2,note_on,47,0,100
2,note_on,50,0,0
2,note_on,53,0,0
2,note_on,39,0,0
2,note_on,55,74,140
2,note_on,39,66,0
2,note_on,46,66,0
2,note_on,46,0,100
2,note_on,39,0,0
2,note_on,55,0,0
2,note_on,51,72,140
2,note_on,39,64,0
2,note_on,46,64,0
2,note_on,46,0,460
2,note_on,39,0,0
2,note_on,51,0,0
2,note_on,89,37,214
2,note_on,89,0,24
2,note_on,87,37,2
2,note_on,87,0,24
2,note_on,86,36,2
2,note_on,86,0,24
2,note_on,84,36,2
2,note_on,84,0,24
2,note_on,82,36,2
2,note_on,82,0,24
2,note_on,80,36,2
2,note_on,80,0,24
2,note_on,79,36,2
2,note_on,79,0,24
2,note_on,77,36,2
2,note_on,77,0,24
2,note_on,75,36,2
2,note_on,75,0,24
2,note_on,74,36,2
2,note_on,74,0,24
2,note_on,72,36,4
2,note_on,72,0,24
2,note_on,70,41,0
2,note_on,70,0,90
2,note_on,51,29,150
2,note_on,51,0,90
2,note_on,50,32,150
2,note_on,50,0,90
2,note_on,38,30,150
2,note_on,38,0,90
2,note_on,43,29,150
2,note_on,50,29,0
2,note_on,50,0,207
2,note_on,47,27,0
2,note_on,47,0,108
2,note_on,43,0,120
2,note_on,90,27,0
2,note_on,90,0,30
2,note_on,91,27,0
2,note_on,91,0,30
2,note_on,95,29,0
2,note_on,95,0,30
2,note_on,93,29,0
2,note_on,93,0,30
2,note_on,91,29,0
2,note_on,91,0,30
2,note_on,90,29,0
2,note_on,90,0,30
2,note_on,88,29,0
2,note_on,88,0,30
2,note_on,86,28,0
2,note_on,86,0,30
2,note_on,84,28,0
2,note_on,84,0,30
2,note_on,83,28,0
2,note_on,83,0,30
2,note_on,81,28,0
2,note_on,81,0,30
2,note_on,79,28,0
2,note_on,79,0,30
2,note_on,78,27,0
2,note_on,78,0,30
2,note_on,76,27,0
2,note_on,76,0,30
2,note_on,74,27,0
2,note_on,74,0,30
2,note_on,72,27,0
2,note_on,72,0,30
2,note_on,71,27,0
2,note_on,71,0,90
2,note_on,48,32,150
2,note_on,48,0,220
2,note_on,41,36,20
2,note_on,41,0,200
2,note_on,34,35,40
2,note_on,46,35,0
2,note_on,46,0,220
2,note_on,34,0,0
2,note_on,39,35,20
2,note_on,46,35,0
2,note_on,46,0,450
2,note_on,39,0,0
2,note_on,57,39,30
2,note_on,57,0,39
2,note_on,58,43,1
2,note_on,58,0,39
2,note_on,63,44,1
2,note_on,63,0,39
2,note_on,62,43,1
2,note_on,62,0,39
2,note_on,60,43,1
2,note_on,60,0,39
2,note_on,58,42,1
2,note_on,58,0,39
2,note_on,56,41,1
2,note_on,56,0,39
2,note_on,55,41,1
2,note_on,55,0,39
2,note_on,53,39,1
2,note_on,53,0,39
2,note_on,51,39,1
2,note_on,51,0,39
2,note_on,50,39,1
2,note_on,50,0,39
2,note_on,48,39,1
2,note_on,48,0,39
2,note_on,47,42,1
2,note_on,39,25,240
2,note_on,45,25,0
2,note_on,54,28,0
2,note_on,54,0,200
2,note_on,45,0,0
2,note_on,39,0,0
2,note_on,39,27,40
2,note_on,45,27,0
2,note_on,54,31,0
2,note_on,54,0,200
2,note_on,45,0,0
2,note_on,39,0,0
2,note_on,39,27,40
2,note_on,45,27,0
2,note_on,54,31,0
2,note_on,54,0,180
2,note_on,45,0,0
2,note_on,39,0,0
2,note_on,39,29,10
2,note_on,46,33,10
2,note_on,55,33,10
2,note_on,47,0,30
2,note_on,39,0,240
2,note_on,46,0,0
2,note_on,55,0,0
2,note_on,57,37,240
2,note_on,57,0,29
2,note_on,58,41,5
2,note_on,58,0,29
2,note_on,67,42,5
2,note_on,67,0,29
2,note_on,65,42,5
2,note_on,65,0,29
2,note_on,63,42,5
2,note_on,63,0,29
2,note_on,62,42,5
2,note_on,62,0,29
2,note_on,60,41,5
2,note_on,60,0,29
2,note_on,58,41,5
2,note_on,58,0,29
2,note_on,56,41,5
2,note_on,56,0,29
2,note_on,55,41,5
2,note_on,55,0,29
2,note_on,53,39,5
2,note_on,53,0,29
2,note_on,51,39,5
2,note_on,51,0,29
2,note_on,50,39,5
2,note_on,50,0,29
2,note_on,48,37,5
2,note_on,48,0,33
2,note_on,46,41,5
2,note_on,40,35,240
2,note_on,40,0,240
2,note_on,41,37,0
2,note_on,41,0,220
2,note_on,34,33,20
2,note_on,34,0,240
2,note_on,39,32,0
2,note_on,39,0,480
2,note_on,46,0,0
2,note_on,89,33,194
2,note_on,89,0,24
2,note_on,87,33,2
2,note_on,87,0,24
2,note_on,86,32,2
2,note_on,86,0,24
2,note_on,84,32,2
2,note_on,84,0,24
2,note_on,82,32,2
2,note_on,82,0,24
2,note_on,80,32,2
2,note_on,80,0,24
2,note_on,79,32,2
2,note_on,79,0,24
2,note_on,77,32,2
2,note_on,77,0,24
2,note_on,75,32,2
2,note_on,75,0,24
2,note_on,74,32,2
2,note_on,74,0,24
2,note_on,72,32,4
2,note_on,72,0,24
2,note_on,71,36,0
2,note_on,59,31,240
2,note_on,66,36,0
2,note_on,66,0,200
2,note_on,59,0,0
2,note_on,59,31,40
2,note_on,64,36,0
2,note_on,64,0,200
2,note_on,59,0,0
2,note_on,59,31,40
2,note_on,63,36,0
2,note_on,63,0,180
2,note_on,59,0,20
2,note_on,71,0,40
2,note_on,64,36,0
2,note_on,68,39,0
2,note_on,68,0,240
2,note_on,64,0,0
2,note_on,71,29,0
2,note_on,76,33,0
2,note_on,76,0,120
2,note_on,71,0,0
2,note_on,71,32,344
2,note_on,71,0,32
2,note_on,69,32,0
2,note_on,69,0,32
2,note_on,68,32,0
2,note_on,68,0,32
2,note_on,66,32,0
2,note_on,66,0,32
2,note_on,64,32,0
2,note_on,64,0,32
2,note_on,63,32,0
2,note_on,63,0,32
2,note_on,61,32,0
2,note_on,61,0,32
2,note_on,59,32,0
2,note_on,59,0,32
2,note_on,58,35,0
2,note_on,52,32,240
2,note_on,52,0,240
2,note_on,53,36,0
2,note_on,53,0,220
2,note_on,46,31,20
2,note_on,46,0,240
2,note_on,58,0,0
2,note_on,51,27,0
2,note_on,51,0,460
2,note_on,57,36,20
2,note_on,57,0,29
2,note_on,58,38,5
2,note_on,58,0,29
2,note_on,67,38,5
2,note_on,67,0,29
2,note_on,65,38,5
2,note_on,65,0,29
2,note_on,63,38,5
2,note_on,63,0,29
2,note_on,62,38,5
2,note_on,62,0,29
2,note_on,60,38,5
2,note_on,60,0,29
2,note_on,58,38,5
2,note_on,58,0,29
2,note_on,56,38,5
2,note_on,56,0,29
2,note_on,55,38,5
2,note_on,55,0,29
2,note_on,53,37,5
2,note_on,53,0,29
2,note_on,51,37,5
2,note_on,51,0,29
2,note_on,50,37,5
2,note_on,50,0,29
2,note_on,48,36,5
2,note_on,48,0,33
2,note_on,46,38,5
2,note_on,40,33,240
2,note_on,40,0,240
2,note_on,41,36,0
2,note_on,41,0,220
2,note_on,34,31,20
2,note_on,34,0,240
2,note_on,39,26,0
2,note_on,39,0,480
2,note_on,46,0,0
2,note_on,89,33,308
2,note_on,89,0,39
2,note_on,87,33,5
2,note_on,87,0,39
2,note_on,86,32,5
2,note_on,86,0,39
2,note_on,84,32,5
2,note_on,84,0,3
2,note_on,80,38,15
2,note_on,80,0,19
2,note_on,79,39,5
2,note_on,79,0,4
2,note_on,77,41,5
2,note_on,77,0,1
2,note_on,75,42,5
2,note_on,75,0,10
2,note_on,74,43,3
2,note_on,74,0,7
2,note_on,72,45,0
2,note_on,72,0,16
2,note_on,65,55,312
2,note_on,65,0,39
2,note_on,63,57,5
2,note_on,63,0,39
2,note_on,62,59,5
2,note_on,62,0,39
2,note_on,60,62,5
2,note_on,60,0,35
2,note_on,56,62,225
2,note_on,56,0,32
2,note_on,55,63,5
2,note_on,55,0,32
2,note_on,53,65,5
2,note_on,53,0,32
2,note_on,51,67,5
2,note_on,51,0,32
2,note_on,50,69,5
2,note_on,50,0,32
2,note_on,48,71,5
2,note_on,48,0,32
2,note_on,46,86,4
2,note_on,37,62,221
2,note_on,39,62,0
2,note_on,39,0,240
2,note_on,37,0,0
2,note_on,46,0,0
2,note_on,47,81,0
2,note_on,35,60,240
2,note_on,39,60,0
2,note_on,39,0,240
2,note_on,35,0,0
2,note_on,47,0,0
2,note_on,32,61,0
2,note_on,39,61,0
2,note_on,47,72,0
2,note_on,47,0,240
2,note_on,39,0,0
2,note_on,32,0,0
2,note_on,32,61,0
2,note_on,39,61,0
2,note_on,44,72,0
2,note_on,44,0,240
2,note_on,39,0,0
2,note_on,32,0,0
2,note_on,27,61,0
2,note_on,34,61,0
2,note_on,39,69,0
2,note_on,39,0,533
2,note_on,34,0,0
2,note_on,27,0,0
2,note_on,27,61,0
2,note_on,34,61,0
2,note_on,39,69,0
2,note_on,39,0,480
2,note_on,34,0,0
2,note_on,27,0,0
2,note_on,27,61,0
2,note_on,34,61,0
2,note_on,39,69,0
2,note_on,39,0,480
2,note_on,34,0,0
2,note_on,27,0,0
2,note_on,27,61,0
2,note_on,34,61,0
2,note_on,39,69,0
2,note_on,39,0,1920
2,note_on,34,0,0
2,note_on,27,0,0
