Track,Message Type,Note,Velocity,Time
1,note_on,47,77,0
1,note_on,47,0,90
1,note_on,47,92,30
1,note_on,47,0,360
1,note_on,49,48,0
1,note_on,49,0,60
1,note_on,51,50,0
1,note_on,51,0,60
1,note_on,52,51,0
1,note_on,52,0,60
1,note_on,54,52,0
1,note_on,54,0,60
1,note_on,56,53,0
1,note_on,56,0,60
1,note_on,57,54,0
1,note_on,57,0,60
1,note_on,59,55,0
1,note_on,59,0,60
1,note_on,61,56,0
1,note_on,61,0,60
1,note_on,63,57,0
1,note_on,63,0,60
1,note_on,64,58,0
1,note_on,64,0,60
1,note_on,66,59,0
1,note_on,66,0,60
1,note_on,68,61,0
1,note_on,68,0,60
1,note_on,69,62,0
1,note_on,69,0,60
1,note_on,71,63,0
1,note_on,71,0,60
1,note_on,73,63,0
1,note_on,73,0,60
1,note_on,75,64,0
1,note_on,75,0,60
1,note_on,76,66,0
1,note_on,76,0,60
1,note_on,78,67,0
1,note_on,78,0,60
1,note_on,80,68,0
1,note_on,80,0,60
1,note_on,81,69,0
1,note_on,81,0,60
1,note_on,83,70,0
1,note_on,83,0,60
1,note_on,85,72,0
1,note_on,85,0,60
1,note_on,87,72,0
1,note_on,87,0,60
1,note_on,88,73,0
1,note_on,88,0,60
1,note_on,90,74,0
1,note_on,90,0,60
1,note_on,92,75,0
1,note_on,92,0,60
1,note_on,93,77,0
1,note_on,93,0,60
1,note_on,95,98,0
1,note_on,95,0,180
1,note_on,49,77,120
1,note_on,47,64,0
1,note_on,47,0,90
1,note_on,49,0,0
1,note_on,49,92,30
1,note_on,47,78,0
1,note_on,47,0,360
1,note_on,49,0,0
1,note_on,51,48,0
1,note_on,51,0,60
1,note_on,52,50,0
1,note_on,52,0,60
1,note_on,54,51,0
1,note_on,54,0,60
1,note_on,56,52,0
1,note_on,56,0,60
1,note_on,57,53,0
1,note_on,57,0,60
1,note_on,59,54,0
1,note_on,59,0,60
1,note_on,61,55,0
1,note_on,61,0,60
1,note_on,63,56,0
1,note_on,63,0,60
1,note_on,64,57,0
1,note_on,64,0,60
1,note_on,66,58,0
1,note_on,66,0,60
1,note_on,68,59,0
1,note_on,68,0,60
1,note_on,69,61,0
1,note_on,69,0,60
1,note_on,71,62,0
1,note_on,71,0,60
1,note_on,73,63,0
1,note_on,73,0,60
1,note_on,75,63,0
1,note_on,75,0,60
1,note_on,76,64,0
1,note_on,76,0,60
1,note_on,78,66,0
1,note_on,78,0,60
1,note_on,80,67,0
1,note_on,80,0,60
1,note_on,81,68,0
1,note_on,81,0,60
1,note_on,83,69,0
1,note_on,83,0,60
1,note_on,85,70,0
1,note_on,85,0,60
1,note_on,87,72,0
1,note_on,87,0,60
1,note_on,88,72,0
1,note_on,88,0,60
1,note_on,90,73,0
1,note_on,90,0,60
1,note_on,92,74,0
1,note_on,92,0,60
1,note_on,93,75,0
1,note_on,93,0,60
1,note_on,95,77,0
1,note_on,95,0,60
1,note_on,97,98,0
1,note_on,97,0,180
1,note_on,54,77,120
1,note_on,52,64,0
1,note_on,52,0,90
1,note_on,54,0,0
1,note_on,54,92,30
1,note_on,52,78,0
1,note_on,52,0,360
1,note_on,54,0,0
1,note_on,56,52,0
1,note_on,56,0,60
1,note_on,57,53,0
1,note_on,57,0,60
1,note_on,59,55,0
1,note_on,59,0,60
1,note_on,61,56,0
1,note_on,61,0,60
1,note_on,63,57,0
1,note_on,63,0,60
1,note_on,64,59,0
1,note_on,64,0,60
1,note_on,66,60,0
1,note_on,66,0,60
1,note_on,68,61,0
1,note_on,68,0,60
1,note_on,69,62,0
1,note_on,69,0,60
1,note_on,71,64,0
1,note_on,71,0,60
1,note_on,73,65,0
1,note_on,73,0,60
1,note_on,75,66,0
1,note_on,75,0,60
1,note_on,76,68,0
1,note_on,76,0,60
1,note_on,78,69,0
1,note_on,78,0,60
1,note_on,80,70,0
1,note_on,80,0,60
1,note_on,81,72,0
1,note_on,81,0,60
1,note_on,83,73,0
1,note_on,83,0,60
1,note_on,85,74,0
1,note_on,85,0,60
1,note_on,87,76,0
1,note_on,87,0,60
1,note_on,88,77,0
1,note_on,88,0,60
1,note_on,90,78,0
1,note_on,90,0,60
1,note_on,92,80,0
1,note_on,92,0,60
1,note_on,93,81,0
1,note_on,93,0,60
1,note_on,95,82,0
1,note_on,95,0,60
1,note_on,97,83,0
1,note_on,97,0,60
1,note_on,99,85,0
1,note_on,99,0,60
1,note_on,100,86,0
1,note_on,100,0,60
1,note_on,102,98,0
1,note_on,102,0,420
1,note_on,64,66,330
1,note_on,69,68,10
1,note_on,73,70,10
1,note_on,78,72,10
1,note_on,78,0,170
1,note_on,64,0,0
1,note_on,69,0,0
1,note_on,73,0,0
1,note_on,76,70,40
1,note_on,81,72,10
1,note_on,84,73,10
1,note_on,90,75,10
1,note_on,90,0,220
1,note_on,76,0,0
1,note_on,81,0,0
1,note_on,84,0,0
1,note_on,71,76,20
1,note_on,57,64,0
1,note_on,63,64,0
1,note_on,63,0,100
1,note_on,57,0,0
1,note_on,71,0,0
1,note_on,83,79,20
1,note_on,75,67,0
1,note_on,69,67,0
1,note_on,69,0,100
1,note_on,75,0,0
1,note_on,83,0,0
1,note_on,95,95,20
1,note_on,87,80,0
1,note_on,81,80,0
1,note_on,81,0,120
1,note_on,87,0,0
1,note_on,95,0,0
1,note_on,71,77,540
1,note_on,59,65,0
1,note_on,59,0,45
1,note_on,71,0,0
1,note_on,71,77,15
1,note_on,59,65,0
1,note_on,64,65,0
1,note_on,64,0,240
1,note_on,59,0,0
1,note_on,71,0,0
1,note_on,73,61,0
1,note_on,61,52,0
1,note_on,61,0,60
1,note_on,73,0,0
1,note_on,75,63,60
1,note_on,63,53,0
1,note_on,63,0,60
1,note_on,75,0,0
1,note_on,76,65,60
1,note_on,64,55,0
1,note_on,64,0,60
1,note_on,76,0,0
1,note_on,78,67,60
1,note_on,66,57,0
1,note_on,66,0,60
1,note_on,78,0,0
1,note_on,80,69,60
1,note_on,68,58,0
1,note_on,68,0,60
1,note_on,80,0,0
1,note_on,69,71,60
1,note_on,81,71,0
1,note_on,81,0,60
1,note_on,69,0,0
1,note_on,83,73,60
1,note_on,71,61,0
1,note_on,71,0,120
1,note_on,83,0,0
1,note_on,78,65,240
1,note_on,81,65,0
1,note_on,69,55,0
1,note_on,69,0,60
1,note_on,81,0,0
1,note_on,78,0,0
1,note_on,80,71,60
1,note_on,68,59,0
1,note_on,76,59,0
1,note_on,76,0,90
1,note_on,68,0,0
1,note_on,80,0,0
1,note_on,78,65,150
1,note_on,66,55,0
1,note_on,71,55,0
1,note_on,71,0,90
1,note_on,66,0,0
1,note_on,78,0,0
1,note_on,71,73,150
1,note_on,78,73,0
1,note_on,66,61,0
1,note_on,66,0,240
1,note_on,78,0,0
1,note_on,76,66,0
1,note_on,64,56,0
1,note_on,64,0,180
1,note_on,76,0,0
1,note_on,78,65,0
1,note_on,78,0,60
1,note_on,71,0,0
1,note_on,71,73,0
1,note_on,76,73,0
1,note_on,64,61,0
1,note_on,64,0,90
1,note_on,76,0,0
1,note_on,71,0,0
1,note_on,75,62,150
1,note_on,63,53,0
1,note_on,63,0,90
1,note_on,75,0,0
1,note_on,76,68,150
1,note_on,64,57,0
1,note_on,71,57,0
1,note_on,71,0,240
1,note_on,64,0,0
1,note_on,76,0,0
1,note_on,68,65,600
1,note_on,72,77,0
1,note_on,60,65,0
1,note_on,60,0,120
1,note_on,72,0,0
1,note_on,68,0,0
1,note_on,73,77,0
1,note_on,61,65,0
1,note_on,69,65,0
1,note_on,69,0,240
1,note_on,61,0,0
1,note_on,73,0,0
1,note_on,71,52,0
1,note_on,75,61,0
1,note_on,63,52,0
1,note_on,63,0,60
1,note_on,75,0,0
1,note_on,71,0,0
1,note_on,73,53,60
1,note_on,76,63,0
1,note_on,64,53,0
1,note_on,64,0,60
1,note_on,76,0,0
1,note_on,73,0,0
1,note_on,75,55,60
1,note_on,78,65,0
1,note_on,66,55,0
1,note_on,66,0,60
1,note_on,78,0,0
1,note_on,75,0,0
1,note_on,76,57,60
1,note_on,80,67,0
1,note_on,68,57,0
1,note_on,68,0,60
1,note_on,80,0,0
1,note_on,76,0,0
1,note_on,78,58,60
1,note_on,81,69,0
1,note_on,69,58,0
1,note_on,69,0,60
1,note_on,81,0,0
1,note_on,78,0,0
1,note_on,80,71,60
1,note_on,71,71,0
1,note_on,83,71,0
1,note_on,83,0,60
1,note_on,71,0,0
1,note_on,80,0,0
1,note_on,81,61,60
1,note_on,85,73,0
1,note_on,73,61,0
1,note_on,73,0,120
1,note_on,85,0,0
1,note_on,81,0,0
1,note_on,80,65,240
1,note_on,83,65,0
1,note_on,71,55,0
1,note_on,71,0,60
1,note_on,83,0,0
1,note_on,80,0,0
1,note_on,81,71,60
1,note_on,69,59,0
1,note_on,78,59,0
1,note_on,78,0,90
1,note_on,69,0,0
1,note_on,81,0,0
1,note_on,80,65,150
1,note_on,68,55,0
1,note_on,76,55,0
1,note_on,76,0,90
1,note_on,68,0,0
1,note_on,80,0,0
1,note_on,76,61,150
1,note_on,80,73,0
1,note_on,68,61,0
1,note_on,68,0,240
1,note_on,80,0,0
1,note_on,76,0,0
1,note_on,75,56,0
1,note_on,78,66,0
1,note_on,66,56,0
1,note_on,66,0,180
1,note_on,78,0,0
1,note_on,75,0,0
1,note_on,80,65,0
1,note_on,80,0,60
1,note_on,75,61,0
1,note_on,78,73,0
1,note_on,66,61,0
1,note_on,66,0,90
1,note_on,78,0,0
1,note_on,75,0,0
1,note_on,74,53,150
1,note_on,77,62,0
1,note_on,65,53,0
1,note_on,65,0,90
1,note_on,77,0,0
1,note_on,74,0,0
1,note_on,78,68,150
1,note_on,66,57,0
1,note_on,75,57,0
1,note_on,75,0,240
1,note_on,66,0,0
1,note_on,78,0,0
1,note_on,79,62,600
1,note_on,70,52,0
1,note_on,67,52,0
1,note_on,67,0,120
1,note_on,70,0,0
1,note_on,79,0,0
1,note_on,80,62,0
1,note_on,68,52,0
1,note_on,71,52,0
1,note_on,71,0,240
1,note_on,68,0,0
1,note_on,80,0,0
1,note_on,81,57,0
1,note_on,73,48,0
1,note_on,69,48,0
1,note_on,69,0,60
1,note_on,73,0,0
1,note_on,81,0,0
1,note_on,75,49,60
1,note_on,83,58,0
1,note_on,71,49,0
1,note_on,71,0,60
1,note_on,83,0,0
1,note_on,75,0,0
1,note_on,85,60,60
1,note_on,76,51,0
1,note_on,73,51,0
1,note_on,73,0,60
1,note_on,76,0,0
1,note_on,85,0,0
1,note_on,87,61,60
1,note_on,78,51,0
1,note_on,75,51,0
1,note_on,75,0,60
1,note_on,78,0,0
1,note_on,87,0,0
1,note_on,88,62,60
1,note_on,80,52,0
1,note_on,76,52,0
1,note_on,76,0,60
1,note_on,80,0,0
1,note_on,88,0,0
1,note_on,90,63,60
1,note_on,81,53,0
1,note_on,78,53,0
1,note_on,78,0,60
1,note_on,81,0,0
1,note_on,90,0,0
1,note_on,92,65,60
1,note_on,84,55,0
1,note_on,80,55,0
1,note_on,80,0,120
1,note_on,84,0,0
1,note_on,92,0,0
1,note_on,90,59,240
1,note_on,81,50,0
1,note_on,78,50,0
1,note_on,78,0,40
1,note_on,81,0,0
1,note_on,90,0,0
1,note_on,90,53,20
1,note_on,78,45,0
1,note_on,81,45,0
1,note_on,81,0,60
1,note_on,78,0,0
1,note_on,90,0,0
1,note_on,88,62,0
1,note_on,76,52,0
1,note_on,80,52,0
1,note_on,80,0,120
1,note_on,76,0,0
1,note_on,88,0,0
1,note_on,87,62,120
1,note_on,75,52,0
1,note_on,78,52,0
1,note_on,78,0,120
1,note_on,75,0,0
1,note_on,87,0,0
1,note_on,88,58,120
1,note_on,76,49,0
1,note_on,80,49,0
1,note_on,80,0,120
1,note_on,76,0,0
1,note_on,88,0,0
1,note_on,84,56,120
1,note_on,72,47,0
1,note_on,75,47,0
1,note_on,75,0,120
1,note_on,72,0,0
1,note_on,84,0,0
1,note_on,85,58,120
1,note_on,73,49,0
1,note_on,76,49,0
1,note_on,76,0,120
1,note_on,73,0,0
1,note_on,85,0,0
1,note_on,87,60,120
1,note_on,75,51,0
1,note_on,78,51,0
1,note_on,78,0,120
1,note_on,75,0,0
1,note_on,87,0,0
1,note_on,88,62,120
1,note_on,76,52,0
1,note_on,80,52,0
1,note_on,80,0,120
1,note_on,76,0,0
1,note_on,88,0,0
1,note_on,90,63,120
1,note_on,78,53,0
1,note_on,81,53,0
1,note_on,81,0,120
1,note_on,78,0,0
1,note_on,90,0,0
1,note_on,92,65,120
1,note_on,80,55,0
1,note_on,83,55,0
1,note_on,83,0,120
1,note_on,80,0,0
1,note_on,92,0,0
1,note_on,93,67,120
1,note_on,81,56,0
1,note_on,84,56,0
1,note_on,84,0,120
1,note_on,81,0,0
1,note_on,93,0,0
1,note_on,80,65,60
1,note_on,88,68,30
1,note_on,95,72,30
1,note_on,95,0,120
1,note_on,88,0,0
1,note_on,80,0,0
1,note_on,88,63,240
1,note_on,80,53,0
1,note_on,76,53,0
1,note_on,76,0,120
1,note_on,80,0,0
1,note_on,88,0,0
1,note_on,90,65,0
1,note_on,81,55,0
1,note_on,78,55,0
1,note_on,78,0,90
1,note_on,81,0,0
1,note_on,90,0,0
1,note_on,92,68,150
1,note_on,83,57,0
1,note_on,80,57,0
1,note_on,80,0,90
1,note_on,83,0,0
1,note_on,92,0,0
1,note_on,93,71,150
1,note_on,85,60,0
1,note_on,81,60,0
1,note_on,81,0,120
1,note_on,85,0,0
1,note_on,93,0,0
1,note_on,83,63,240
1,note_on,75,53,0
1,note_on,71,53,0
1,note_on,71,0,120
1,note_on,75,0,0
1,note_on,83,0,0
1,note_on,85,65,0
1,note_on,76,55,0
1,note_on,73,55,0
1,note_on,73,0,90
1,note_on,76,0,0
1,note_on,85,0,0
1,note_on,87,68,150
1,note_on,78,57,0
1,note_on,75,57,0
1,note_on,75,0,90
1,note_on,78,0,0
1,note_on,87,0,0
1,note_on,90,73,150
1,note_on,81,62,0
1,note_on,78,62,0
1,note_on,78,0,240
1,note_on,81,0,0
1,note_on,90,0,0
1,note_on,88,66,0
1,note_on,80,56,0
1,note_on,76,56,0
1,note_on,76,0,180
1,note_on,80,0,0
1,note_on,88,0,0
1,note_on,90,60,0
1,note_on,78,51,0
1,note_on,81,51,0
1,note_on,81,0,60
1,note_on,78,0,0
1,note_on,90,0,0
1,note_on,88,67,0
1,note_on,80,56,0
1,note_on,76,56,0
1,note_on,76,0,90
1,note_on,80,0,0
1,note_on,88,0,0
1,note_on,87,62,150
1,note_on,78,52,0
1,note_on,75,52,0
1,note_on,75,0,90
1,note_on,78,0,0
1,note_on,87,0,0
1,note_on,88,66,150
1,note_on,76,56,0
1,note_on,80,56,0
1,note_on,80,0,240
1,note_on,76,0,0
1,note_on,88,0,0
1,note_on,59,80,600
1,note_on,56,80,0
1,note_on,56,0,90
1,note_on,59,0,0
1,note_on,59,86,30
1,note_on,56,72,0
1,note_on,56,0,240
1,note_on,59,0,0
1,note_on,61,73,0
1,note_on,57,61,0
1,note_on,57,0,120
1,note_on,61,0,0
1,note_on,63,76,0
1,note_on,59,65,0
1,note_on,59,0,60
1,note_on,63,0,0
1,note_on,64,79,60
1,note_on,61,67,0
1,note_on,61,0,60
1,note_on,64,0,0
1,note_on,73,66,540
1,note_on,73,0,60
1,note_on,75,66,0
1,note_on,75,0,60
1,note_on,76,67,0
1,note_on,76,0,60
1,note_on,78,68,0
1,note_on,78,0,60
1,note_on,80,69,0
1,note_on,80,0,60
1,note_on,81,69,0
1,note_on,81,0,60
1,note_on,83,70,0
1,note_on,83,0,60
1,note_on,85,71,0
1,note_on,85,0,60
1,note_on,87,72,0
1,note_on,87,0,60
1,note_on,88,72,0
1,note_on,88,0,60
1,note_on,90,73,0
1,note_on,90,0,60
1,note_on,92,74,0
1,note_on,92,0,60
1,note_on,93,75,0
1,note_on,93,0,60
1,note_on,94,75,0
1,note_on,94,0,60
1,note_on,95,75,0
1,note_on,95,0,60
1,note_on,97,69,0
1,note_on,97,0,60
1,note_on,95,72,0
1,note_on,95,0,60
1,note_on,97,69,0
1,note_on,95,72,60
1,note_on,95,0,60
1,note_on,97,0,0
1,note_on,97,68,0
1,note_on,97,0,60
1,note_on,95,72,0
1,note_on,95,0,60
1,note_on,97,69,0
1,note_on,97,0,60
1,note_on,95,72,0
1,note_on,95,0,60
1,note_on,97,70,0
1,note_on,97,0,60
1,note_on,95,72,0
1,note_on,95,0,60
1,note_on,97,70,0
1,note_on,95,72,60
1,note_on,97,0,60
1,note_on,95,0,20
1,note_on,94,70,0
1,note_on,94,0,80
1,note_on,95,71,0
1,note_on,88,73,60
1,note_on,92,76,10
1,note_on,95,0,10
1,note_on,100,80,0
1,note_on,100,0,120
1,note_on,92,0,0
1,note_on,88,0,0
1,note_on,60,80,720
1,note_on,56,80,0
1,note_on,56,0,120
1,note_on,60,0,0
1,note_on,61,86,0
1,note_on,57,72,0
1,note_on,57,0,240
1,note_on,61,0,0
1,note_on,63,73,0
1,note_on,59,61,0
1,note_on,59,0,120
1,note_on,63,0,0
1,note_on,64,76,0
1,note_on,61,65,0
1,note_on,61,0,60
1,note_on,64,0,0
1,note_on,66,79,60
1,note_on,63,67,0
1,note_on,63,0,60
1,note_on,66,0,0
1,note_on,75,66,540
1,note_on,75,0,60
1,note_on,76,66,0
1,note_on,76,0,60
1,note_on,78,67,0
1,note_on,78,0,60
1,note_on,80,68,0
1,note_on,80,0,60
1,note_on,81,69,0
1,note_on,81,0,60
1,note_on,83,69,0
1,note_on,83,0,60
1,note_on,85,70,0
1,note_on,85,0,60
1,note_on,87,71,0
1,note_on,87,0,60
1,note_on,88,72,0
1,note_on,88,0,60
1,note_on,90,72,0
1,note_on,90,0,60
1,note_on,92,73,0
1,note_on,92,0,60
1,note_on,94,74,0
1,note_on,94,0,60
1,note_on,95,75,0
1,note_on,95,0,60
1,note_on,96,75,0
1,note_on,96,0,60
1,note_on,97,75,0
1,note_on,97,0,60
1,note_on,99,69,0
1,note_on,99,0,60
1,note_on,97,72,0
1,note_on,97,0,60
1,note_on,99,69,0
1,note_on,97,72,60
1,note_on,97,0,60
1,note_on,99,0,0
1,note_on,99,68,0
1,note_on,99,0,60
1,note_on,97,72,0
1,note_on,97,0,60
1,note_on,99,69,0
1,note_on,99,0,60
1,note_on,97,72,0
1,note_on,97,0,60
1,note_on,99,70,0
1,note_on,99,0,60
1,note_on,97,72,0
1,note_on,97,0,60
1,note_on,99,70,0
1,note_on,99,0,60
1,note_on,97,72,0
1,note_on,97,0,60
1,note_on,96,70,0
1,note_on,96,0,60
1,note_on,97,70,0
1,note_on,97,0,60
1,note_on,102,71,0
1,note_on,102,0,60
1,note_on,95,80,0
1,note_on,90,73,0
1,note_on,95,0,120
1,note_on,90,0,20
1,note_on,79,60,700
1,note_on,70,46,0
1,note_on,70,0,120
1,note_on,79,0,0
1,note_on,80,60,0
1,note_on,71,46,0
1,note_on,71,0,240
1,note_on,80,0,0
1,note_on,81,56,0
1,note_on,73,43,0
1,note_on,73,0,120
1,note_on,81,0,0
1,note_on,75,44,0
1,note_on,83,57,0
1,note_on,83,0,120
1,note_on,75,0,0
1,note_on,85,59,0
1,note_on,76,45,0
1,note_on,76,0,120
1,note_on,85,0,0
1,note_on,87,59,0
1,note_on,78,45,0
1,note_on,78,0,120
1,note_on,87,0,0
1,note_on,88,60,0
1,note_on,80,46,0
1,note_on,80,0,120
1,note_on,88,0,0
1,note_on,90,61,0
1,note_on,81,47,0
1,note_on,81,0,120
1,note_on,90,0,0
1,note_on,92,63,0
1,note_on,84,49,0
1,note_on,84,0,120
1,note_on,92,0,0
1,note_on,81,47,0
1,note_on,90,47,0
1,note_on,90,0,60
1,note_on,92,47,0
1,note_on,92,0,60
1,note_on,90,53,0
1,note_on,90,0,60
1,note_on,81,0,0
1,note_on,80,52,60
1,note_on,88,57,0
1,note_on,88,0,60
1,note_on,90,52,0
1,note_on,90,0,60
1,note_on,88,55,0
1,note_on,80,0,60
1,note_on,88,0,60
1,note_on,78,51,0
1,note_on,87,56,0
1,note_on,87,0,60
1,note_on,86,51,0
1,note_on,86,0,60
1,note_on,87,60,0
1,note_on,78,0,60
1,note_on,87,0,60
1,note_on,80,49,0
1,note_on,87,49,0
1,note_on,87,0,60
1,note_on,88,49,0
1,note_on,88,0,60
1,note_on,88,57,0
1,note_on,80,0,60
1,note_on,88,0,60
1,note_on,75,47,0
1,note_on,84,47,0
1,note_on,84,0,60
1,note_on,83,47,0
1,note_on,83,0,60
1,note_on,84,55,0
1,note_on,75,0,60
1,note_on,84,0,60
1,note_on,76,48,0
1,note_on,85,48,0
1,note_on,85,0,60
1,note_on,84,48,0
1,note_on,84,0,60
1,note_on,85,57,0
1,note_on,76,0,60
1,note_on,85,0,60
1,note_on,78,51,0
1,note_on,87,51,0
1,note_on,87,0,60
1,note_on,85,51,0
1,note_on,85,0,60
1,note_on,87,59,0
1,note_on,78,0,60
1,note_on,87,0,60
1,note_on,80,50,0
1,note_on,88,50,0
1,note_on,88,0,60
1,note_on,87,50,0
1,note_on,87,0,60
1,note_on,88,60,0
1,note_on,80,0,60
1,note_on,88,0,60
1,note_on,81,53,0
1,note_on,90,53,0
1,note_on,90,0,60
1,note_on,88,53,0
1,note_on,88,0,60
1,note_on,90,61,0
1,note_on,81,0,60
1,note_on,90,0,60
1,note_on,83,53,0
1,note_on,92,53,0
1,note_on,92,0,60
1,note_on,90,53,0
1,note_on,90,0,60
1,note_on,92,63,0
1,note_on,83,0,60
1,note_on,92,0,60
1,note_on,84,52,0
1,note_on,93,57,0
1,note_on,93,0,60
1,note_on,92,52,0
1,note_on,92,0,60
1,note_on,93,60,0
1,note_on,84,0,60
1,note_on,93,0,60
1,note_on,80,58,60
1,note_on,88,61,30
1,note_on,95,70,30
1,note_on,70,41,60
1,note_on,70,0,60
1,note_on,80,0,0
1,note_on,88,0,0
1,note_on,95,0,0
1,note_on,71,41,0
1,note_on,71,0,60
1,note_on,73,42,0
1,note_on,73,0,60
1,note_on,75,43,0
1,note_on,75,0,60
1,note_on,76,44,0
1,note_on,76,0,60
1,note_on,78,45,0
1,note_on,78,0,60
1,note_on,80,45,0
1,note_on,80,0,60
1,note_on,81,45,0
1,note_on,81,0,60
1,note_on,83,45,0
1,note_on,83,0,60
1,note_on,85,46,0
1,note_on,85,0,60
1,note_on,87,47,0
1,note_on,87,0,60
1,note_on,88,47,0
1,note_on,88,0,60
1,note_on,90,48,0
1,note_on,90,0,60
1,note_on,92,49,0
1,note_on,92,0,60
1,note_on,95,52,0
1,note_on,95,0,60
1,note_on,93,42,0
1,note_on,70,42,96
1,note_on,93,0,24
1,note_on,70,0,24
1,note_on,71,43,0
1,note_on,71,0,48
1,note_on,73,44,0
1,note_on,73,0,48
1,note_on,75,45,0
1,note_on,75,0,48
1,note_on,76,45,0
1,note_on,76,0,48
1,note_on,78,45,0
1,note_on,78,0,48
1,note_on,80,45,0
1,note_on,81,45,48
1,note_on,80,0,12
1,note_on,81,0,36
1,note_on,83,46,0
1,note_on,83,0,48
1,note_on,85,47,0
1,note_on,85,0,48
1,note_on,87,48,0
1,note_on,87,0,48
1,note_on,88,48,0
1,note_on,88,0,48
1,note_on,90,49,0
1,note_on,90,0,48
1,note_on,92,50,0
1,note_on,92,0,48
1,note_on,93,50,0
1,note_on,93,0,48
1,note_on,95,50,0
1,note_on,95,0,48
1,note_on,97,51,0
1,note_on,97,0,48
1,note_on,99,51,0
1,note_on,99,0,48
1,note_on,102,64,0
1,note_on,95,50,0
1,note_on,90,50,0
1,note_on,90,0,240
1,note_on,95,0,0
1,note_on,102,0,0
1,note_on,100,55,0
1,note_on,88,42,0
1,note_on,102,50,180
1,note_on,102,0,60
1,note_on,88,0,0
1,note_on,100,0,0
1,note_on,100,60,0
1,note_on,95,46,0
1,note_on,88,46,0
1,note_on,88,0,120
1,note_on,95,0,0
1,note_on,100,0,0
1,note_on,99,57,120
1,note_on,87,44,0
1,note_on,87,0,120
1,note_on,99,0,0
1,note_on,100,60,120
1,note_on,88,46,0
1,note_on,95,46,0
1,note_on,95,0,240
1,note_on,88,0,0
1,note_on,100,0,0
1,note_on,80,55,240
1,note_on,80,0,480
1,note_on,78,53,120
1,note_on,66,45,0
1,note_on,78,0,240
1,note_on,70,52,0
1,note_on,70,0,240
1,note_on,73,53,0
1,note_on,73,0,240
1,note_on,66,0,0
1,note_on,80,54,0
1,note_on,68,45,0
1,note_on,68,0,240
1,note_on,80,0,0
1,note_on,78,56,0
1,note_on,66,48,0
1,note_on,66,0,240
1,note_on,78,0,0
1,note_on,80,56,0
1,note_on,68,48,0
1,note_on,68,0,240
1,note_on,80,0,0
1,note_on,82,61,0
1,note_on,70,51,0
1,note_on,70,0,240
1,note_on,82,0,0
1,note_on,83,66,0
1,note_on,71,56,0
1,note_on,71,0,120
1,note_on,83,0,0
1,note_on,87,69,120
1,note_on,75,58,0
1,note_on,75,0,240
1,note_on,87,0,0
1,note_on,85,66,0
1,note_on,73,56,0
1,note_on,73,0,240
1,note_on,85,0,0
1,note_on,80,61,0
1,note_on,68,51,0
1,note_on,68,0,240
1,note_on,80,0,0
1,note_on,82,61,0
1,note_on,70,51,0
1,note_on,82,0,180
1,note_on,85,60,0
1,note_on,85,0,60
1,note_on,70,0,0
1,note_on,83,64,0
1,note_on,71,54,0
1,note_on,71,0,240
1,note_on,83,0,0
1,note_on,82,60,0
1,note_on,70,51,0
1,note_on,70,0,240
1,note_on,82,0,0
1,note_on,83,68,0
1,note_on,71,57,0
1,note_on,71,0,240
1,note_on,83,0,0
1,note_on,84,69,0
1,note_on,72,60,0
1,note_on,72,0,120
1,note_on,84,0,0
1,note_on,85,72,0
1,note_on,73,53,0
1,note_on,82,55,0
1,note_on,82,0,120
1,note_on,73,0,0
1,note_on,85,0,0
1,note_on,84,61,60
1,note_on,81,51,0
1,note_on,81,0,45
1,note_on,84,0,0
1,note_on,81,70,15
1,note_on,84,70,0
1,note_on,84,0,120
1,note_on,81,0,0
1,note_on,83,60,60
1,note_on,80,51,0
1,note_on,80,0,45
1,note_on,83,0,0
1,note_on,83,70,15
1,note_on,80,59,0
1,note_on,80,0,120
1,note_on,83,0,0
1,note_on,82,62,60
1,note_on,73,52,0
1,note_on,73,0,45
1,note_on,82,0,0
1,note_on,82,69,15
1,note_on,73,58,0
1,note_on,73,0,120
1,note_on,82,0,0
1,note_on,80,61,60
1,note_on,71,51,0
1,note_on,71,0,45
1,note_on,80,0,0
1,note_on,80,68,15
1,note_on,71,57,0
1,note_on,71,0,120
1,note_on,80,0,0
1,note_on,83,60,60
1,note_on,75,51,0
1,note_on,75,0,60
1,note_on,83,0,0
1,note_on,83,68,0
1,note_on,75,57,0
1,note_on,75,0,120
1,note_on,83,0,0
1,note_on,75,59,60
1,note_on,66,50,0
1,note_on,66,0,45
1,note_on,75,0,0
1,note_on,75,65,15
1,note_on,66,55,0
1,note_on,66,0,120
1,note_on,75,0,0
1,note_on,77,61,60
1,note_on,68,51,0
1,note_on,68,0,45
1,note_on,77,0,0
1,note_on,77,67,15
1,note_on,68,56,0
1,note_on,68,0,120
1,note_on,77,0,0
1,note_on,80,57,60
1,note_on,71,48,0
1,note_on,71,0,45
1,note_on,80,0,0
1,note_on,80,62,15
1,note_on,71,52,0
1,note_on,71,0,120
1,note_on,80,0,0
1,note_on,78,52,0
1,note_on,70,44,0
1,note_on,70,0,90
1,note_on,78,0,0
1,note_on,78,53,30
1,note_on,70,45,0
1,note_on,70,0,60
1,note_on,78,0,0
1,note_on,77,53,60
1,note_on,71,45,0
1,note_on,71,0,60
1,note_on,77,0,0
1,note_on,80,59,60
1,note_on,71,50,0
1,note_on,71,0,120
1,note_on,80,0,0
1,note_on,78,53,0
1,note_on,70,45,0
1,note_on,70,0,90
1,note_on,78,0,0
1,note_on,78,53,30
1,note_on,70,45,0
1,note_on,70,0,60
1,note_on,78,0,0
1,note_on,77,53,60
1,note_on,71,45,0
1,note_on,71,0,60
1,note_on,77,0,0
1,note_on,78,62,60
1,note_on,70,52,0
1,note_on,70,0,240
1,note_on,78,0,0
1,note_on,66,67,240
1,note_on,66,0,240
1,note_on,67,67,0
1,note_on,67,0,240
1,note_on,68,70,0
1,note_on,60,50,120
1,note_on,60,0,120
1,note_on,63,50,0
1,note_on,63,0,120
1,note_on,68,0,0
1,note_on,69,67,0
1,note_on,69,0,120
1,note_on,68,69,0
1,note_on,68,0,480
1,note_on,68,69,0
1,note_on,61,50,120
1,note_on,61,0,120
1,note_on,64,50,0
1,note_on,64,0,120
1,note_on,68,0,0
1,note_on,73,62,0
1,note_on,73,0,120
1,note_on,68,66,0
1,note_on,68,0,420
1,note_on,67,53,0
1,note_on,67,0,60
1,note_on,68,60,0
1,note_on,68,0,80
1,note_on,60,50,0
1,note_on,60,0,80
1,note_on,66,50,0
1,note_on,66,0,80
1,note_on,75,56,0
1,note_on,75,0,80
1,note_on,72,50,0
1,note_on,72,0,80
1,note_on,78,50,0
1,note_on,78,0,80
1,note_on,87,56,0
1,note_on,87,0,80
1,note_on,84,49,0
1,note_on,84,0,80
1,note_on,90,49,0
1,note_on,90,0,80
1,note_on,99,56,0
1,note_on,99,0,80
1,note_on,92,50,0
1,note_on,92,0,80
1,note_on,90,50,0
1,note_on,90,0,80
1,note_on,88,56,0
1,note_on,88,0,60
1,note_on,92,47,0
1,note_on,92,0,60
1,note_on,100,47,0
1,note_on,100,0,60
1,note_on,99,47,0
1,note_on,99,0,60
1,note_on,92,57,0
1,note_on,92,0,60
1,note_on,88,50,0
1,note_on,88,0,60
1,note_on,100,50,0
1,note_on,100,0,60
1,note_on,99,50,0
1,note_on,99,0,60
1,note_on,93,59,0
1,note_on,93,0,60
1,note_on,88,52,0
1,note_on,88,0,60
1,note_on,100,52,0
1,note_on,100,0,60
1,note_on,99,52,0
1,note_on,99,0,60
1,note_on,94,59,0
1,note_on,94,0,60
1,note_on,88,53,0
1,note_on,88,0,60
1,note_on,100,53,0
1,note_on,100,0,60
1,note_on,99,53,0
1,note_on,99,0,60
1,note_on,88,54,0
1,note_on,95,65,0
1,note_on,95,0,120
1,note_on,88,0,0
1,note_on,66,51,240
1,note_on,64,43,0
1,note_on,64,0,240
1,note_on,66,0,0
1,note_on,68,53,0
1,note_on,64,45,0
1,note_on,64,0,240
1,note_on,68,0,0
1,note_on,69,55,0
1,note_on,64,46,0
1,note_on,64,0,240
1,note_on,69,0,0
1,note_on,71,56,0
1,note_on,64,47,0
1,note_on,64,0,240
1,note_on,71,0,0
1,note_on,72,58,0
1,note_on,64,49,0
1,note_on,64,0,240
1,note_on,72,0,0
1,note_on,73,60,0
1,note_on,64,51,0
1,note_on,64,0,240
1,note_on,73,0,0
1,note_on,75,62,0
1,note_on,64,52,0
1,note_on,71,52,0
1,note_on,71,0,120
1,note_on,64,0,0
1,note_on,75,0,0
1,note_on,78,68,120
1,note_on,66,51,0
1,note_on,71,55,0
1,note_on,71,0,240
1,note_on,66,0,0
1,note_on,78,0,0
1,note_on,76,59,0
1,note_on,64,50,0
1,note_on,64,0,180
1,note_on,76,0,0
1,note_on,78,52,0
1,note_on,78,0,60
1,note_on,71,56,0
1,note_on,76,66,0
1,note_on,64,56,0
1,note_on,64,0,240
1,note_on,76,0,0
1,note_on,71,0,0
1,note_on,75,60,0
1,note_on,63,51,0
1,note_on,64,55,90
1,note_on,71,55,15
1,note_on,63,0,15
1,note_on,75,0,0
1,note_on,76,65,0
1,note_on,64,0,180
1,note_on,76,0,60
1,note_on,71,0,0
1,note_on,79,56,110
1,note_on,79,0,40
1,note_on,80,55,10
1,note_on,80,0,40
1,note_on,82,55,0
1,note_on,82,0,40
1,note_on,80,59,0
1,note_on,80,0,60
1,note_on,82,55,0
1,note_on,82,0,60
1,note_on,80,59,0
1,note_on,80,0,60
1,note_on,82,54,0
1,note_on,82,0,60
1,note_on,80,59,0
1,note_on,80,0,60
1,note_on,82,60,0
1,note_on,82,0,60
1,note_on,80,63,0
1,note_on,80,0,60
1,note_on,82,68,0
1,note_on,82,0,60
1,note_on,80,59,0
1,note_on,80,0,60
1,note_on,79,60,0
1,note_on,79,0,60
1,note_on,80,63,0
1,note_on,80,0,60
1,note_on,92,68,0
1,note_on,92,0,60
1,note_on,78,59,0
1,note_on,90,56,120
1,note_on,90,0,120
1,note_on,78,0,0
1,note_on,70,57,0
1,note_on,82,55,120
1,note_on,82,0,120
1,note_on,70,0,0
1,note_on,73,58,0
1,note_on,85,50,120
1,note_on,85,0,120
1,note_on,73,0,0
1,note_on,80,58,0
1,note_on,92,55,120
1,note_on,92,0,120
1,note_on,80,0,0
1,note_on,78,59,0
1,note_on,90,52,120
1,note_on,90,0,120
1,note_on,78,0,0
1,note_on,80,59,0
1,note_on,92,54,120
1,note_on,92,0,120
1,note_on,80,0,0
1,note_on,82,62,0
1,note_on,94,57,120
1,note_on,94,0,120
1,note_on,82,0,0
1,note_on,83,66,0
1,note_on,95,59,120
1,note_on,95,0,120
1,note_on,83,0,0
1,note_on,87,69,0
1,note_on,99,63,120
1,note_on,99,0,120
1,note_on,87,0,0
1,note_on,85,66,0
1,note_on,97,59,120
1,note_on,97,0,120
1,note_on,85,0,0
1,note_on,80,61,0
1,note_on,92,56,120
1,note_on,92,0,120
1,note_on,80,0,0
1,note_on,82,61,0
1,note_on,94,54,120
1,note_on,94,0,120
1,note_on,82,0,0
1,note_on,83,64,0
1,note_on,95,59,120
1,note_on,87,59,0
1,note_on,87,0,120
1,note_on,95,0,0
1,note_on,83,0,0
1,note_on,82,60,0
1,note_on,90,56,120
1,note_on,94,56,0
1,note_on,94,0,120
1,note_on,90,0,0
1,note_on,82,0,0
1,note_on,83,68,0
1,note_on,87,59,120
1,note_on,95,59,0
1,note_on,95,0,120
1,note_on,87,0,0
1,note_on,83,0,0
1,note_on,84,69,0
1,note_on,96,61,120
1,note_on,96,0,120
1,note_on,84,0,0
1,note_on,85,53,0
1,note_on,85,0,60
1,note_on,85,51,20
1,note_on,85,0,60
1,note_on,94,50,20
1,note_on,97,50,0
1,note_on,97,0,60
1,note_on,94,0,0
1,note_on,84,53,20
1,note_on,84,0,60
1,note_on,84,49,20
1,note_on,84,0,60
1,note_on,96,49,20
1,note_on,93,49,0
1,note_on,93,0,60
1,note_on,96,0,0
1,note_on,83,54,20
1,note_on,83,0,60
1,note_on,83,49,20
1,note_on,83,0,60
1,note_on,95,49,20
1,note_on,92,49,0
1,note_on,92,0,60
1,note_on,95,0,0
1,note_on,82,55,20
1,note_on,82,0,60
1,note_on,82,51,20
1,note_on,82,0,60
1,note_on,94,51,20
1,note_on,90,51,0
1,note_on,90,0,60
1,note_on,94,0,0
1,note_on,80,58,20
1,note_on,80,0,60
1,note_on,80,53,20
1,note_on,80,0,60
1,note_on,92,53,20
1,note_on,83,53,0
1,note_on,83,0,60
1,note_on,92,0,0
1,note_on,83,59,20
1,note_on,83,0,60
1,note_on,83,51,20
1,note_on,83,0,60
1,note_on,95,51,20
1,note_on,87,51,0
1,note_on,87,0,60
1,note_on,95,0,0
1,note_on,75,56,20
1,note_on,75,0,60
1,note_on,75,50,20
1,note_on,75,0,60
1,note_on,87,50,20
1,note_on,78,50,0
1,note_on,78,0,60
1,note_on,87,0,0
1,note_on,77,57,20
1,note_on,77,0,60
1,note_on,77,51,20
1,note_on,77,0,60
1,note_on,80,51,20
1,note_on,89,51,0
1,note_on,89,0,60
1,note_on,80,0,0
1,note_on,92,62,20
1,note_on,83,52,0
1,note_on,80,52,0
1,note_on,80,0,120
1,note_on,83,0,0
1,note_on,92,0,0
1,note_on,90,52,0
1,note_on,82,44,0
1,note_on,78,44,0
1,note_on,78,0,68
1,note_on,82,0,0
1,note_on,90,0,0
1,note_on,82,45,52
1,note_on,90,53,0
1,note_on,85,45,0
1,note_on,85,0,60
1,note_on,90,0,0
1,note_on,82,0,0
1,note_on,83,45,60
1,note_on,86,45,0
1,note_on,89,53,0
1,note_on,89,0,60
1,note_on,86,0,0
1,note_on,83,0,0
1,note_on,83,50,60
1,note_on,92,59,0
1,note_on,80,50,0
1,note_on,80,0,120
1,note_on,92,0,0
1,note_on,83,0,0
1,note_on,82,45,0
1,note_on,78,45,0
1,note_on,90,53,0
1,note_on,90,0,68
1,note_on,78,0,0
1,note_on,82,0,0
1,note_on,90,53,52
1,note_on,85,45,0
1,note_on,82,45,0
1,note_on,82,0,60
1,note_on,85,0,0
1,note_on,90,0,0
1,note_on,89,53,60
1,note_on,83,45,0
1,note_on,86,45,0
1,note_on,86,0,37
1,note_on,83,0,1
1,note_on,89,0,0
1,note_on,78,52,37
1,note_on,82,52,15
1,note_on,85,52,15
1,note_on,90,62,15
1,note_on,90,0,240
1,note_on,78,0,0
1,note_on,82,0,0
1,note_on,85,0,0
1,note_on,66,67,240
1,note_on,66,0,240
1,note_on,67,67,0
1,note_on,67,0,240
1,note_on,68,70,0
1,note_on,60,39,60
1,note_on,60,0,60
1,note_on,63,40,0
1,note_on,63,0,60
1,note_on,68,0,0
1,note_on,69,40,0
1,note_on,69,0,60
1,note_on,68,41,0
1,note_on,68,0,48
1,note_on,69,42,0
1,note_on,69,0,48
1,note_on,70,43,0
1,note_on,70,0,48
1,note_on,71,43,0
1,note_on,71,0,48
1,note_on,72,44,0
1,note_on,72,0,48
1,note_on,73,45,0
1,note_on,73,0,48
1,note_on,74,45,0
1,note_on,74,0,48
1,note_on,75,46,0
1,note_on,75,0,48
1,note_on,76,46,0
1,note_on,76,0,48
1,note_on,77,47,0
1,note_on,77,0,48
1,note_on,78,48,0
1,note_on,78,0,48
1,note_on,79,48,0
1,note_on,80,48,48
1,note_on,79,0,12
1,note_on,80,0,36
1,note_on,83,49,0
1,note_on,83,0,48
1,note_on,81,49,0
1,note_on,81,0,48
1,note_on,80,70,0
1,note_on,73,48,60
1,note_on,73,0,60
1,note_on,76,48,0
1,note_on,76,0,60
1,note_on,80,0,0
1,note_on,85,49,0
1,note_on,85,0,60
1,note_on,80,49,0
1,note_on,80,0,60
1,note_on,79,50,0
1,note_on,79,0,40
1,note_on,80,50,0
1,note_on,80,0,40
1,note_on,81,51,0
1,note_on,81,0,40
1,note_on,82,51,20
1,note_on,82,0,40
1,note_on,83,52,0
1,note_on,83,0,40
1,note_on,84,52,0
1,note_on,84,0,40
1,note_on,85,53,0
1,note_on,85,0,40
1,note_on,86,53,0
1,note_on,86,0,40
1,note_on,87,53,0
1,note_on,87,0,40
1,note_on,88,54,0
1,note_on,88,0,40
1,note_on,89,54,0
1,note_on,90,55,40
1,note_on,89,0,20
1,note_on,90,0,20
1,note_on,91,55,0
1,note_on,92,55,40
1,note_on,91,0,20
1,note_on,92,0,20
1,note_on,95,56,0
1,note_on,95,0,40
1,note_on,93,56,0
1,note_on,92,56,40
1,note_on,93,0,20
1,note_on,92,0,40
1,note_on,84,47,0
1,note_on,84,0,60
1,note_on,90,47,0
1,note_on,90,0,60
1,note_on,93,47,0
1,note_on,93,0,60
1,note_on,92,57,0
1,note_on,92,0,60
1,note_on,84,50,0
1,note_on,84,0,60
1,note_on,90,50,0
1,note_on,90,0,60
1,note_on,99,50,0
1,note_on,99,0,60
1,note_on,92,59,0
1,note_on,92,0,60
1,note_on,84,52,0
1,note_on,84,0,60
1,note_on,90,52,0
1,note_on,90,0,60
1,note_on,93,52,0
1,note_on,93,0,60
1,note_on,92,59,0
1,note_on,92,0,60
1,note_on,84,53,0
1,note_on,84,0,60
1,note_on,90,53,0
1,note_on,90,0,60
1,note_on,99,53,0
1,note_on,99,0,60
1,note_on,92,56,0
1,note_on,92,0,60
1,note_on,85,47,0
1,note_on,85,0,60
1,note_on,92,47,0
1,note_on,92,0,60
1,note_on,93,47,0
1,note_on,93,0,60
1,note_on,92,57,0
1,note_on,92,0,60
1,note_on,85,50,0
1,note_on,85,0,60
1,note_on,92,50,0
1,note_on,92,0,60
1,note_on,100,50,0
1,note_on,100,0,60
1,note_on,94,59,0
1,note_on,94,0,60
1,note_on,88,52,0
1,note_on,88,0,60
1,note_on,94,52,0
1,note_on,94,0,60
1,note_on,95,52,0
1,note_on,95,0,60
1,note_on,94,59,0
1,note_on,94,0,60
1,note_on,88,53,0
1,note_on,88,0,60
1,note_on,94,53,0
1,note_on,94,0,60
1,note_on,100,53,0
1,note_on,100,0,60
1,note_on,95,56,0
1,note_on,88,46,60
1,note_on,95,0,58
1,note_on,88,0,2
1,note_on,95,47,0
1,note_on,100,47,60
1,note_on,100,0,60
1,note_on,95,0,0
1,note_on,90,57,0
1,note_on,88,48,60
1,note_on,90,0,58
1,note_on,88,0,2
1,note_on,90,49,0
1,note_on,100,50,60
1,note_on,100,0,60
1,note_on,90,0,0
1,note_on,92,59,0
1,note_on,88,50,60
1,note_on,92,0,58
1,note_on,88,0,2
1,note_on,92,50,0
1,note_on,100,51,60
1,note_on,100,0,60
1,note_on,92,0,0
1,note_on,93,59,0
1,note_on,88,52,60
1,note_on,93,0,58
1,note_on,88,0,2
1,note_on,93,52,0
1,note_on,100,52,60
1,note_on,100,0,60
1,note_on,93,0,0
1,note_on,95,62,0
1,note_on,88,53,60
1,note_on,95,0,58
1,note_on,88,0,2
1,note_on,95,54,0
1,note_on,100,55,60
1,note_on,100,0,60
1,note_on,95,0,0
1,note_on,96,62,0
1,note_on,88,56,60
1,note_on,96,0,58
1,note_on,88,0,2
1,note_on,96,56,0
1,note_on,100,56,60
1,note_on,100,0,60
1,note_on,96,0,0
1,note_on,97,63,0
1,note_on,88,55,60
1,note_on,97,0,58
1,note_on,88,0,2
1,note_on,97,55,0
1,note_on,100,55,60
1,note_on,100,0,60
1,note_on,97,0,0
1,note_on,99,61,0
1,note_on,90,55,60
1,note_on,99,0,58
1,note_on,90,0,2
1,note_on,99,55,0
1,note_on,102,55,60
1,note_on,102,0,60
1,note_on,99,0,0
1,note_on,95,67,0
1,note_on,95,0,60
1,note_on,90,54,0
1,note_on,90,0,60
1,note_on,95,54,0
1,note_on,95,0,60
1,note_on,102,54,0
1,note_on,102,0,60
1,note_on,95,66,0
1,note_on,95,0,60
1,note_on,88,55,0
1,note_on,88,0,60
1,note_on,95,55,0
1,note_on,95,0,60
1,note_on,100,55,0
1,note_on,100,0,60
1,note_on,95,66,0
1,note_on,95,0,60
1,note_on,88,56,0
1,note_on,88,0,60
1,note_on,95,56,0
1,note_on,95,0,60
1,note_on,100,56,0
1,note_on,100,0,60
1,note_on,95,67,0
1,note_on,95,0,60
1,note_on,87,57,0
1,note_on,87,0,60
1,note_on,95,57,0
1,note_on,95,0,60
1,note_on,99,57,0
1,note_on,99,0,60
1,note_on,95,67,0
1,note_on,95,0,60
1,note_on,90,54,0
1,note_on,90,0,60
1,note_on,95,54,0
1,note_on,95,0,60
1,note_on,102,54,0
1,note_on,102,0,60
1,note_on,95,66,0
1,note_on,95,0,60
1,note_on,88,55,0
1,note_on,88,0,60
1,note_on,95,55,0
1,note_on,95,0,60
1,note_on,100,55,0
1,note_on,100,0,60
1,note_on,95,66,0
1,note_on,95,0,60
1,note_on,88,56,0
1,note_on,88,0,60
1,note_on,95,56,0
1,note_on,95,0,60
1,note_on,100,56,0
1,note_on,100,0,60
1,note_on,95,67,0
1,note_on,95,0,60
1,note_on,87,57,0
1,note_on,87,0,60
1,note_on,95,57,0
1,note_on,95,0,60
1,note_on,99,57,0
1,note_on,99,0,60
1,note_on,95,63,0
1,note_on,90,65,0
1,note_on,95,0,60
1,note_on,102,51,0
1,note_on,102,0,60
1,note_on,90,0,0
1,note_on,95,50,0
1,note_on,95,0,60
1,note_on,102,49,0
1,note_on,102,0,60
1,note_on,88,63,0
1,note_on,95,60,0
1,note_on,95,0,60
1,note_on,100,50,0
1,note_on,100,0,60
1,note_on,88,0,0
1,note_on,95,49,0
1,note_on,95,0,60
1,note_on,100,49,0
1,note_on,100,0,60
1,note_on,88,61,0
1,note_on,95,58,0
1,note_on,95,0,60
1,note_on,100,49,0
1,note_on,100,0,60
1,note_on,88,0,0
1,note_on,95,49,0
1,note_on,95,0,60
1,note_on,100,49,0
1,note_on,100,0,60
1,note_on,87,59,0
1,note_on,95,57,0
1,note_on,95,0,60
1,note_on,99,49,0
1,note_on,99,0,60
1,note_on,87,0,0
1,note_on,95,48,0
1,note_on,95,0,60
1,note_on,99,48,0
1,note_on,99,0,60
1,note_on,90,58,0
1,note_on,95,57,0
1,note_on,95,0,60
1,note_on,102,45,0
1,note_on,102,0,60
1,note_on,90,0,0
1,note_on,95,44,0
1,note_on,95,0,60
1,note_on,102,44,0
1,note_on,102,0,60
1,note_on,95,54,0
1,note_on,88,57,0
1,note_on,95,0,60
1,note_on,100,44,0
1,note_on,100,0,60
1,note_on,88,0,0
1,note_on,95,44,0
1,note_on,95,0,60
1,note_on,100,43,0
1,note_on,100,0,60
1,note_on,88,54,0
1,note_on,95,52,0
1,note_on,95,0,60
1,note_on,100,44,0
1,note_on,100,0,60
1,note_on,88,0,0
1,note_on,95,43,0
1,note_on,95,0,60
1,note_on,100,42,0
1,note_on,100,0,60
1,note_on,87,53,0
1,note_on,95,51,0
1,note_on,95,0,60
1,note_on,99,43,0
1,note_on,99,0,60
1,note_on,87,0,0
1,note_on,95,42,0
1,note_on,95,0,60
1,note_on,99,38,0
1,note_on,99,0,60
1,note_on,76,49,0
1,note_on,76,0,60
1,note_on,80,49,0
1,note_on,80,0,60
1,note_on,88,49,0
1,note_on,88,0,60
1,note_on,95,49,0
1,note_on,95,0,60
1,note_on,102,49,0
1,note_on,102,0,60
1,note_on,100,49,0
1,note_on,100,0,60
1,note_on,95,49,0
1,note_on,95,0,60
1,note_on,94,49,0
1,note_on,94,0,60
1,note_on,97,50,0
1,note_on,97,0,60
1,note_on,95,50,0
1,note_on,95,0,60
1,note_on,92,50,0
1,note_on,92,0,60
1,note_on,91,50,0
1,note_on,91,0,60
1,note_on,93,51,0
1,note_on,93,0,60
1,note_on,92,51,0
1,note_on,92,0,60
1,note_on,88,51,0
1,note_on,88,0,60
1,note_on,87,51,0
1,note_on,87,0,60
1,note_on,90,52,0
1,note_on,90,0,60
1,note_on,88,52,0
1,note_on,88,0,60
1,note_on,83,52,0
1,note_on,83,0,60
1,note_on,82,53,0
1,note_on,82,0,60
1,note_on,85,53,0
1,note_on,85,0,60
1,note_on,83,53,0
1,note_on,83,0,60
1,note_on,80,53,0
1,note_on,80,0,60
1,note_on,79,54,0
1,note_on,79,0,60
1,note_on,81,54,0
1,note_on,81,0,60
1,note_on,80,54,0
1,note_on,80,0,60
1,note_on,76,54,0
1,note_on,76,0,60
1,note_on,75,55,0
1,note_on,75,0,60
1,note_on,78,55,0
1,note_on,78,0,60
1,note_on,76,55,0
1,note_on,76,0,60
1,note_on,71,55,0
1,note_on,71,0,60
1,note_on,70,56,0
1,note_on,70,0,60
1,note_on,73,56,0
1,note_on,73,0,60
1,note_on,71,56,0
1,note_on,71,0,60
1,note_on,68,57,0
1,note_on,68,0,60
1,note_on,67,57,0
1,note_on,67,0,60
1,note_on,69,57,0
1,note_on,69,0,60
1,note_on,68,58,0
1,note_on,68,0,60
1,note_on,64,59,0
1,note_on,64,0,60
1,note_on,63,60,0
1,note_on,63,0,60
1,note_on,59,49,1469
1,note_on,59,0,67
1,note_on,64,50,0
1,note_on,64,0,67
1,note_on,68,51,0
1,note_on,68,0,67
1,note_on,71,52,1
1,note_on,71,0,67
1,note_on,76,53,0
1,note_on,76,0,67
1,note_on,80,54,0
1,note_on,80,0,67
1,note_on,83,56,0
1,note_on,83,0,67
1,note_on,88,57,0
1,note_on,88,0,67
1,note_on,95,58,1
1,note_on,95,0,67
1,note_on,92,59,0
1,note_on,92,0,67
1,note_on,88,59,0
1,note_on,88,0,67
1,note_on,83,58,0
1,note_on,83,0,67
1,note_on,80,57,0
1,note_on,80,0,67
1,note_on,76,56,1
1,note_on,76,0,67
1,note_on,71,55,0
1,note_on,71,0,67
1,note_on,68,54,0
1,note_on,68,0,67
1,note_on,64,52,0
1,note_on,64,0,67
1,note_on,59,51,0
1,note_on,59,0,67
1,note_on,52,29,1642
1,note_on,56,29,0
1,note_on,62,29,0
1,note_on,64,36,0
1,note_on,64,0,480
1,note_on,52,0,0
1,note_on,56,0,0
1,note_on,62,0,0
1,note_on,52,29,1440
1,note_on,57,29,0
1,note_on,60,29,0
1,note_on,64,36,0
1,note_on,64,0,480
1,note_on,52,0,0
1,note_on,57,0,0
1,note_on,60,0,0
1,note_on,54,29,1440
1,note_on,58,29,0
1,note_on,64,29,0
1,note_on,66,36,0
1,note_on,66,0,480
1,note_on,54,0,0
1,note_on,58,0,0
1,note_on,64,0,0
1,note_on,57,28,960
1,note_on,63,30,0
1,note_on,71,36,0
1,note_on,71,0,120
1,note_on,63,0,0
1,note_on,57,0,0
1,note_on,76,57,840
1,note_on,88,65,0
1,note_on,88,0,60
1,note_on,76,0,0
1,note_on,78,49,60
1,note_on,90,56,0
1,note_on,90,0,60
1,note_on,78,0,0
1,note_on,80,49,60
1,note_on,92,56,0
1,note_on,92,0,60
1,note_on,80,0,0
1,note_on,81,49,60
1,note_on,93,56,0
1,note_on,93,0,60
1,note_on,81,0,0
1,note_on,85,57,0
1,note_on,85,0,60
1,note_on,83,54,0
1,note_on,95,62,0
1,note_on,95,0,60
1,note_on,83,0,0
1,note_on,82,46,60
1,note_on,94,52,0
1,note_on,94,0,60
1,note_on,82,0,0
1,note_on,83,46,60
1,note_on,95,52,0
1,note_on,95,0,60
1,note_on,83,0,0
1,note_on,86,46,60
1,note_on,98,52,0
1,note_on,98,0,60
1,note_on,86,0,0
1,note_on,86,55,60
1,note_on,98,63,0
1,note_on,98,0,120
1,note_on,86,0,0
1,note_on,85,59,120
1,note_on,97,67,0
1,note_on,97,0,480
1,note_on,85,0,0
1,note_on,83,49,0
1,note_on,95,56,0
1,note_on,95,0,360
1,note_on,83,0,0
1,note_on,76,49,0
1,note_on,88,56,0
1,note_on,88,0,60
1,note_on,76,0,0
1,note_on,78,49,60
1,note_on,90,56,0
1,note_on,90,0,60
1,note_on,78,0,0
1,note_on,80,49,60
1,note_on,92,56,0
1,note_on,92,0,60
1,note_on,80,0,0
1,note_on,83,57,0
1,note_on,83,0,60
1,note_on,81,54,0
1,note_on,93,62,0
1,note_on,93,0,60
1,note_on,81,0,0
1,note_on,80,46,60
1,note_on,92,52,0
1,note_on,92,0,60
1,note_on,80,0,0
1,note_on,81,46,60
1,note_on,93,52,0
1,note_on,93,0,60
1,note_on,81,0,0
1,note_on,84,46,60
1,note_on,96,52,0
1,note_on,96,0,60
1,note_on,84,0,0
1,note_on,83,55,60
1,note_on,95,63,0
1,note_on,95,0,120
1,note_on,83,0,0
1,note_on,81,59,120
1,note_on,93,67,0
1,note_on,93,0,480
1,note_on,81,0,0
1,note_on,81,49,0
1,note_on,93,56,0
1,note_on,93,0,240
1,note_on,81,0,0
1,note_on,71,57,0
1,note_on,83,65,0
1,note_on,83,0,60
1,note_on,71,0,0
1,note_on,72,49,60
1,note_on,84,56,0
1,note_on,84,0,60
1,note_on,72,0,0
1,note_on,75,49,60
1,note_on,87,56,0
1,note_on,87,0,60
1,note_on,75,0,0
1,note_on,76,49,60
1,note_on,88,56,0
1,note_on,88,0,60
1,note_on,76,0,0
1,note_on,81,57,0
1,note_on,81,0,60
1,note_on,79,54,0
1,note_on,91,62,0
1,note_on,91,0,60
1,note_on,79,0,0
1,note_on,78,46,60
1,note_on,90,52,0
1,note_on,90,0,60
1,note_on,78,0,0
1,note_on,79,46,60
1,note_on,91,52,0
1,note_on,91,0,60
1,note_on,79,0,0
1,note_on,81,46,60
1,note_on,93,52,0
1,note_on,93,0,60
1,note_on,81,0,0
1,note_on,79,55,60
1,note_on,91,63,0
1,note_on,91,0,120
1,note_on,79,0,0
1,note_on,78,59,120
1,note_on,90,67,0
1,note_on,90,0,480
1,note_on,78,0,0
1,note_on,78,49,0
1,note_on,90,56,0
1,note_on,90,0,240
1,note_on,78,0,0
1,note_on,71,57,0
1,note_on,83,65,0
1,note_on,83,0,60
1,note_on,71,0,0
1,note_on,72,49,60
1,note_on,84,56,0
1,note_on,84,0,60
1,note_on,72,0,0
1,note_on,75,49,60
1,note_on,87,56,0
1,note_on,87,0,60
1,note_on,75,0,0
1,note_on,76,49,60
1,note_on,88,56,0
1,note_on,88,0,60
1,note_on,76,0,0
1,note_on,78,54,60
1,note_on,90,62,0
1,note_on,90,0,60
1,note_on,78,0,0
1,note_on,88,52,60
1,note_on,76,39,0
1,note_on,76,0,60
1,note_on,88,0,0
1,note_on,91,60,60
1,note_on,79,51,0
1,note_on,79,0,60
1,note_on,91,0,0
1,note_on,90,56,60
1,note_on,78,47,0
1,note_on,78,0,60
1,note_on,90,0,0
1,note_on,88,64,60
1,note_on,76,54,0
1,note_on,76,0,60
1,note_on,88,0,0
1,note_on,87,55,60
1,note_on,75,46,0
1,note_on,75,0,60
1,note_on,87,0,0
1,note_on,91,60,60
1,note_on,79,51,0
1,note_on,79,0,60
1,note_on,91,0,0
1,note_on,90,55,60
1,note_on,78,46,0
1,note_on,78,0,60
1,note_on,90,0,0
1,note_on,88,59,60
1,note_on,76,50,0
1,note_on,76,0,60
1,note_on,88,0,0
1,note_on,64,57,360
1,note_on,64,0,40
1,note_on,64,65,20
1,note_on,64,0,60
1,note_on,66,56,60
1,note_on,66,0,60
1,note_on,68,56,60
1,note_on,68,0,60
1,note_on,69,56,60
1,note_on,69,0,60
1,note_on,73,57,0
1,note_on,73,0,60
1,note_on,71,62,0
1,note_on,71,0,60
1,note_on,70,52,60
1,note_on,70,0,60
1,note_on,71,52,60
1,note_on,71,0,60
1,note_on,74,52,60
1,note_on,74,0,60
1,note_on,74,65,60
1,note_on,76,65,0
1,note_on,76,0,60
1,note_on,74,0,60
1,note_on,78,56,0
1,note_on,78,0,60
1,note_on,80,56,60
1,note_on,80,0,60
1,note_on,81,56,60
1,note_on,81,0,60
1,note_on,85,57,0
1,note_on,85,0,60
1,note_on,83,66,0
1,note_on,83,0,60
1,note_on,82,58,60
1,note_on,82,0,60
1,note_on,83,57,60
1,note_on,83,0,60
1,note_on,88,57,60
1,note_on,88,0,60
1,note_on,64,56,180
1,note_on,64,0,60
1,note_on,66,56,60
1,note_on,66,0,60
1,note_on,68,56,60
1,note_on,68,0,60
1,note_on,71,57,0
1,note_on,71,0,60
1,note_on,69,62,0
1,note_on,69,0,60
1,note_on,68,52,60
1,note_on,68,0,60
1,note_on,69,52,60
1,note_on,69,0,60
1,note_on,72,52,60
1,note_on,72,0,60
1,note_on,71,65,60
1,note_on,71,0,120
1,note_on,76,56,0
1,note_on,76,0,60
1,note_on,78,56,60
1,note_on,78,0,60
1,note_on,80,56,60
1,note_on,80,0,60
1,note_on,83,57,0
1,note_on,83,0,60
1,note_on,81,66,0
1,note_on,81,0,60
1,note_on,80,56,60
1,note_on,80,0,60
1,note_on,81,56,60
1,note_on,81,0,60
1,note_on,88,56,60
1,note_on,88,0,60
1,note_on,59,65,60
1,note_on,59,0,60
1,note_on,60,56,60
1,note_on,60,0,60
1,note_on,63,56,60
1,note_on,63,0,60
1,note_on,64,56,60
1,note_on,64,0,60
1,note_on,67,57,0
1,note_on,67,0,30
1,note_on,69,57,0
1,note_on,69,0,30
1,note_on,67,62,0
1,note_on,67,0,60
1,note_on,66,52,60
1,note_on,66,0,60
1,note_on,67,52,60
1,note_on,67,0,60
1,note_on,69,52,60
1,note_on,69,0,60
1,note_on,67,65,60
1,note_on,67,0,120
1,note_on,70,56,0
1,note_on,70,0,60
1,note_on,76,56,60
1,note_on,76,0,60
1,note_on,77,56,60
1,note_on,77,0,60
1,note_on,78,57,0
1,note_on,78,0,30
1,note_on,79,57,0
1,note_on,79,0,30
1,note_on,78,66,0
1,note_on,78,0,60
1,note_on,77,53,60
1,note_on,77,0,60
1,note_on,78,53,60
1,note_on,78,0,60
1,note_on,90,59,60
1,note_on,90,0,60
1,note_on,83,57,60
1,note_on,95,65,0
1,note_on,95,0,60
1,note_on,83,0,0
1,note_on,84,49,60
1,note_on,96,56,0
1,note_on,96,0,60
1,note_on,84,0,0
1,note_on,87,49,60
1,note_on,99,56,0
1,note_on,99,0,60
1,note_on,87,0,0
1,note_on,88,49,60
1,note_on,100,56,0
1,note_on,100,0,60
1,note_on,88,0,0
1,note_on,90,54,60
1,note_on,102,62,0
1,note_on,102,0,60
1,note_on,90,0,0
1,note_on,100,52,60
1,note_on,88,39,0
1,note_on,88,0,60
1,note_on,100,0,0
1,note_on,103,60,60
1,note_on,91,51,0
1,note_on,91,0,60
1,note_on,103,0,0
1,note_on,102,56,60
1,note_on,90,47,0
1,note_on,90,0,60
1,note_on,102,0,0
1,note_on,100,64,60
1,note_on,88,54,0
1,note_on,88,0,60
1,note_on,100,0,0
1,note_on,99,55,60
1,note_on,87,46,0
1,note_on,87,0,60
1,note_on,99,0,0
1,note_on,103,60,60
1,note_on,91,51,0
1,note_on,91,0,60
1,note_on,103,0,0
1,note_on,102,55,60
1,note_on,90,46,0
1,note_on,90,0,60
1,note_on,102,0,0
1,note_on,100,59,60
1,note_on,88,50,0
1,note_on,88,0,60
1,note_on,100,0,0
1,note_on,76,63,360
1,note_on,76,0,40
1,note_on,76,70,20
1,note_on,72,59,0
1,note_on,76,0,120
1,note_on,81,61,0
1,note_on,81,0,60
1,note_on,72,0,60
1,note_on,81,61,0
1,note_on,72,51,0
1,note_on,81,0,120
1,note_on,84,61,0
1,note_on,84,0,60
1,note_on,72,0,60
1,note_on,84,68,0
1,note_on,74,57,0
1,note_on,84,0,120
1,note_on,83,59,0
1,note_on,83,0,60
1,note_on,74,0,60
1,note_on,83,59,0
1,note_on,74,50,0
1,note_on,83,0,120
1,note_on,76,59,0
1,note_on,76,0,55
1,note_on,72,45,5
1,note_on,76,45,0
1,note_on,83,56,0
1,note_on,83,0,60
1,note_on,74,0,0
1,note_on,72,0,0
1,note_on,76,0,0
1,note_on,81,68,0
1,note_on,81,0,60
1,note_on,81,64,180
1,note_on,72,54,0
1,note_on,76,54,0
1,note_on,76,0,480
1,note_on,72,0,0
1,note_on,81,0,0
1,note_on,81,66,0
1,note_on,72,56,0
1,note_on,81,0,120
1,note_on,84,64,0
1,note_on,84,0,60
1,note_on,72,0,60
1,note_on,76,70,0
1,note_on,84,70,0
1,note_on,72,59,0
1,note_on,84,0,120
1,note_on,76,0,0
1,note_on,79,61,0
1,note_on,79,0,60
1,note_on,72,0,60
1,note_on,76,51,0
1,note_on,79,61,0
1,note_on,79,0,120
1,note_on,76,0,0
1,note_on,81,61,0
1,note_on,77,51,0
1,note_on,77,0,60
1,note_on,81,0,0
1,note_on,77,57,60
1,note_on,81,68,0
1,note_on,71,57,0
1,note_on,81,0,120
1,note_on,77,0,0
1,note_on,74,59,0
1,note_on,74,0,60
1,note_on,71,0,60
1,note_on,77,59,0
1,note_on,74,50,0
1,note_on,74,0,120
1,note_on,77,0,0
1,note_on,79,59,0
1,note_on,79,0,50
1,note_on,79,56,10
1,note_on,79,0,60
1,note_on,76,68,0
1,note_on,72,57,0
1,note_on,72,0,60
1,note_on,76,0,0
1,note_on,75,56,120
1,note_on,71,47,0
1,note_on,71,0,60
1,note_on,75,0,0
1,note_on,76,64,0
1,note_on,72,54,0
1,note_on,72,0,480
1,note_on,76,0,0
1,note_on,72,56,0
1,note_on,76,62,0
1,note_on,76,0,60
1,note_on,72,0,0
1,note_on,79,61,0
1,note_on,79,0,60
1,note_on,76,70,120
1,note_on,72,59,0
1,note_on,76,0,120
1,note_on,79,61,0
1,note_on,79,0,60
1,note_on,72,0,60
1,note_on,79,61,0
1,note_on,72,51,0
1,note_on,79,0,120
1,note_on,84,61,0
1,note_on,84,0,60
1,note_on,72,0,60
1,note_on,84,68,0
1,note_on,76,57,0
1,note_on,76,0,120
1,note_on,84,0,0
1,note_on,83,59,0
1,note_on,79,50,0
1,note_on,79,0,60
1,note_on,83,0,0
1,note_on,84,59,60
1,note_on,76,50,0
1,note_on,76,0,120
1,note_on,84,0,0
1,note_on,82,59,0
1,note_on,79,50,0
1,note_on,82,0,50
1,note_on,79,0,10
1,note_on,82,56,0
1,note_on,82,0,60
1,note_on,77,59,0
1,note_on,81,68,0
1,note_on,81,0,60
1,note_on,77,0,0
1,note_on,81,64,180
1,note_on,72,54,0
1,note_on,77,54,0
1,note_on,77,0,480
1,note_on,72,0,0
1,note_on,81,0,0
1,note_on,84,66,0
1,note_on,72,56,0
1,note_on,72,0,120
1,note_on,84,0,0
1,note_on,83,70,120
1,note_on,71,59,0
1,note_on,83,0,120
1,note_on,76,61,0
1,note_on,76,0,60
1,note_on,71,0,60
1,note_on,76,51,0
1,note_on,76,0,120
1,note_on,75,61,0
1,note_on,75,0,60
1,note_on,75,68,60
1,note_on,75,0,120
1,note_on,83,59,0
1,note_on,83,0,60
1,note_on,83,59,60
1,note_on,71,50,0
1,note_on,71,0,120
1,note_on,83,0,0
1,note_on,75,59,0
1,note_on,75,0,60
1,note_on,78,68,60
1,note_on,71,57,0
1,note_on,71,0,120
1,note_on,78,0,0
1,note_on,76,61,0
1,note_on,76,0,60
1,note_on,75,64,60
1,note_on,71,54,0
1,note_on,71,0,120
1,note_on,75,0,0
1,note_on,78,61,0
1,note_on,78,0,60
1,note_on,71,51,60
1,note_on,76,55,0
1,note_on,76,0,120
1,note_on,71,0,0
1,note_on,76,57,300
1,note_on,88,63,0
1,note_on,88,0,60
1,note_on,76,0,0
1,note_on,76,70,0
1,note_on,88,59,0
1,note_on,88,0,120
1,note_on,76,0,0
1,note_on,81,61,0
1,note_on,81,0,60
1,note_on,81,61,60
1,note_on,93,51,0
1,note_on,93,0,120
1,note_on,81,0,0
1,note_on,84,61,0
1,note_on,84,0,60
1,note_on,96,68,60
1,note_on,84,57,0
1,note_on,96,0,120
1,note_on,95,59,0
1,note_on,95,0,60
1,note_on,84,0,60
1,note_on,95,59,0
1,note_on,83,50,0
1,note_on,95,0,120
1,note_on,88,59,0
1,note_on,88,0,60
1,note_on,95,56,0
1,note_on,95,0,60
1,note_on,83,0,0
1,note_on,81,62,0
1,note_on,93,68,0
1,note_on,93,0,60
1,note_on,81,0,0
1,note_on,93,64,180
1,note_on,81,54,0
1,note_on,84,54,0
1,note_on,84,0,480
1,note_on,81,0,0
1,note_on,93,0,0
1,note_on,93,66,0
1,note_on,84,56,0
1,note_on,84,0,120
1,note_on,93,0,0
1,note_on,88,60,0
1,note_on,96,64,0
1,note_on,96,0,60
1,note_on,88,0,0
1,note_on,88,70,60
1,note_on,96,70,0
1,note_on,84,59,0
1,note_on,96,0,120
1,note_on,88,0,0
1,note_on,91,61,0
1,note_on,91,0,60
1,note_on,84,0,60
1,note_on,88,51,0
1,note_on,79,59,0
1,note_on,91,61,0
1,note_on,91,0,120
1,note_on,88,0,0
1,note_on,93,61,0
1,note_on,89,51,0
1,note_on,89,0,60
1,note_on,93,0,0
1,note_on,79,0,60
1,note_on,89,57,0
1,note_on,93,68,0
1,note_on,81,57,0
1,note_on,93,0,120
1,note_on,89,0,0
1,note_on,86,59,0
1,note_on,86,0,60
1,note_on,81,0,60
1,note_on,77,59,0
1,note_on,89,59,0
1,note_on,86,50,0
1,note_on,86,0,120
1,note_on,89,0,0
1,note_on,91,59,0
1,note_on,91,0,50
1,note_on,91,56,10
1,note_on,91,0,60
1,note_on,77,0,0
1,note_on,76,57,0
1,note_on,88,68,0
1,note_on,84,57,0
1,note_on,84,0,60
1,note_on,88,0,0
1,note_on,76,0,0
1,note_on,76,54,180
1,note_on,88,64,0
1,note_on,84,54,0
1,note_on,84,0,480
1,note_on,88,0,0
1,note_on,76,0,0
1,note_on,79,59,0
1,note_on,88,67,0
1,note_on,88,0,60
1,note_on,91,65,0
1,note_on,91,0,60
1,note_on,79,0,120
1,note_on,84,77,0
1,note_on,76,64,0
1,note_on,76,0,120
1,note_on,84,0,0
1,note_on,79,55,0
1,note_on,88,67,0
1,note_on,88,0,60
1,note_on,79,0,0
1,note_on,88,67,60
1,note_on,79,56,0
1,note_on,79,0,120
1,note_on,88,0,0
1,note_on,84,55,0
1,note_on,91,67,0
1,note_on,91,0,60
1,note_on,84,0,0
1,note_on,91,74,60
1,note_on,84,62,0
1,note_on,84,0,120
1,note_on,91,0,0
1,note_on,96,64,0
1,note_on,88,55,0
1,note_on,88,0,60
1,note_on,96,0,0
1,note_on,96,64,60
1,note_on,88,55,0
1,note_on,88,0,120
1,note_on,96,0,0
1,note_on,94,64,0
1,note_on,91,55,0
1,note_on,91,0,40
1,note_on,94,0,0
1,note_on,91,55,20
1,note_on,94,61,0
1,note_on,94,0,60
1,note_on,91,0,0
1,note_on,89,67,0
1,note_on,93,74,0
1,note_on,93,0,60
1,note_on,89,0,0
1,note_on,93,70,180
1,note_on,81,59,0
1,note_on,89,59,0
1,note_on,89,0,480
1,note_on,81,0,0
1,note_on,93,0,0
1,note_on,96,72,0
1,note_on,84,61,0
1,note_on,84,0,120
1,note_on,96,0,0
1,note_on,95,69,120
1,note_on,83,58,0
1,note_on,88,60,120
1,note_on,88,0,60
1,note_on,83,0,60
1,note_on,95,0,0
1,note_on,88,51,0
1,note_on,83,55,0
1,note_on,95,70,0
1,note_on,88,0,120
1,note_on,87,61,0
1,note_on,87,0,60
1,note_on,95,0,60
1,note_on,83,0,0
1,note_on,87,69,0
1,note_on,87,0,120
1,note_on,83,56,0
1,note_on,95,61,0
1,note_on,95,0,60
1,note_on,83,0,0
1,note_on,95,61,60
1,note_on,83,52,0
1,note_on,87,62,120
1,note_on,87,0,60
1,note_on,83,0,60
1,note_on,95,0,0
1,note_on,90,72,0
1,note_on,95,71,0
1,note_on,83,54,0
1,note_on,90,0,120
1,note_on,88,65,0
1,note_on,88,0,60
1,note_on,83,0,60
1,note_on,95,0,0
1,note_on,88,55,0
1,note_on,83,60,0
1,note_on,95,76,0
1,note_on,88,0,120
1,note_on,87,67,0
1,note_on,87,0,60
1,note_on,95,0,60
1,note_on,83,0,0
1,note_on,87,76,0
1,note_on,83,60,120
1,note_on,95,66,0
1,note_on,95,0,60
1,note_on,83,0,0
1,note_on,87,0,60
1,note_on,95,67,0
1,note_on,83,56,0
1,note_on,87,67,120
1,note_on,87,0,60
1,note_on,83,0,60
1,note_on,95,0,0
1,note_on,90,79,0
1,note_on,95,78,0
1,note_on,83,59,0
1,note_on,90,0,120
1,note_on,88,70,0
1,note_on,88,0,60
1,note_on,83,0,60
1,note_on,95,0,0
1,note_on,87,60,0
1,note_on,83,65,0
1,note_on,95,83,0
1,note_on,87,0,120
1,note_on,90,72,0
1,note_on,90,0,60
1,note_on,95,0,60
1,note_on,83,0,0
1,note_on,95,82,0
1,note_on,83,69,0
1,note_on,90,69,0
1,note_on,88,72,120
1,note_on,88,0,60
1,note_on,95,0,60
1,note_on,83,0,0
1,note_on,90,0,0
1,note_on,87,69,0
1,note_on,95,73,0
1,note_on,83,62,0
1,note_on,90,73,120
1,note_on,90,0,60
1,note_on,87,0,60
1,note_on,95,0,0
1,note_on,83,0,0
1,note_on,83,63,0
1,note_on,88,85,0
1,note_on,95,83,0
1,note_on,95,0,120
1,note_on,88,0,0
1,note_on,83,0,0
1,note_on,71,52,600
1,note_on,71,0,90
1,note_on,60,56,90
1,note_on,64,63,30
1,note_on,72,70,30
1,note_on,72,0,480
1,note_on,64,0,0
1,note_on,60,0,0
1,note_on,71,45,0
1,note_on,71,0,60
1,note_on,76,40,0
1,note_on,72,40,0
1,note_on,72,0,60
1,note_on,76,0,0
1,note_on,75,40,0
1,note_on,75,0,60
1,note_on,72,40,0
1,note_on,76,40,0
1,note_on,76,0,60
1,note_on,72,0,0
1,note_on,71,45,0
1,note_on,71,0,60
1,note_on,72,42,0
1,note_on,76,42,0
1,note_on,76,0,60
1,note_on,72,0,0
1,note_on,75,42,0
1,note_on,75,0,60
1,note_on,72,43,0
1,note_on,76,43,0
1,note_on,76,0,60
1,note_on,72,0,0
1,note_on,71,47,0
1,note_on,71,0,60
1,note_on,76,43,0
1,note_on,72,43,0
1,note_on,72,0,60
1,note_on,76,0,0
1,note_on,75,44,0
1,note_on,75,0,60
1,note_on,72,44,0
1,note_on,76,44,0
1,note_on,76,0,60
1,note_on,72,0,0
1,note_on,71,49,0
1,note_on,71,0,60
1,note_on,72,45,0
1,note_on,76,45,0
1,note_on,76,0,60
1,note_on,72,0,0
1,note_on,75,45,0
1,note_on,75,0,60
1,note_on,72,45,0
1,note_on,76,45,0
1,note_on,76,0,60
1,note_on,72,0,0
1,note_on,71,50,0
1,note_on,71,0,60
1,note_on,76,47,0
1,note_on,72,47,0
1,note_on,72,0,60
1,note_on,76,0,0
1,note_on,75,48,0
1,note_on,75,0,60
1,note_on,72,48,0
1,note_on,76,48,0
1,note_on,76,0,60
1,note_on,72,0,0
1,note_on,71,52,0
1,note_on,71,0,60
1,note_on,72,48,0
1,note_on,76,48,0
1,note_on,76,0,60
1,note_on,72,0,0
1,note_on,75,48,0
1,note_on,75,0,60
1,note_on,72,49,0
1,note_on,76,49,0
1,note_on,76,0,60
1,note_on,72,0,0
1,note_on,84,69,0
1,note_on,84,0,60
1,note_on,63,56,360
1,note_on,66,63,30
1,note_on,75,70,30
1,note_on,75,0,480
1,note_on,66,0,0
1,note_on,63,0,0
1,note_on,74,45,0
1,note_on,74,0,60
1,note_on,78,40,0
1,note_on,75,40,0
1,note_on,75,0,60
1,note_on,78,0,0
1,note_on,77,40,0
1,note_on,77,0,60
1,note_on,75,40,0
1,note_on,78,40,0
1,note_on,78,0,60
1,note_on,75,0,0
1,note_on,74,45,0
1,note_on,74,0,60
1,note_on,75,42,0
1,note_on,78,42,0
1,note_on,78,0,60
1,note_on,75,0,0
1,note_on,77,42,0
1,note_on,77,0,60
1,note_on,75,43,0
1,note_on,78,43,0
1,note_on,78,0,60
1,note_on,75,0,0
1,note_on,74,47,0
1,note_on,74,0,60
1,note_on,78,43,0
1,note_on,75,43,0
1,note_on,75,0,60
1,note_on,78,0,0
1,note_on,77,44,0
1,note_on,77,0,60
1,note_on,75,44,0
1,note_on,78,44,0
1,note_on,78,0,60
1,note_on,75,0,0
1,note_on,74,49,0
1,note_on,74,0,60
1,note_on,75,45,0
1,note_on,78,45,0
1,note_on,78,0,60
1,note_on,75,0,0
1,note_on,77,45,0
1,note_on,77,0,60
1,note_on,75,45,0
1,note_on,78,45,0
1,note_on,78,0,60
1,note_on,75,0,0
1,note_on,74,50,0
1,note_on,74,0,60
1,note_on,78,47,0
1,note_on,75,47,0
1,note_on,75,0,60
1,note_on,78,0,0
1,note_on,77,48,0
1,note_on,77,0,60
1,note_on,75,48,0
1,note_on,78,48,0
1,note_on,78,0,60
1,note_on,75,0,0
1,note_on,74,52,0
1,note_on,74,0,60
1,note_on,75,48,0
1,note_on,78,48,0
1,note_on,78,0,60
1,note_on,75,0,0
1,note_on,77,48,0
1,note_on,77,0,60
1,note_on,75,49,0
1,note_on,78,49,0
1,note_on,78,0,60
1,note_on,75,0,0
1,note_on,87,72,0
1,note_on,87,0,60
1,note_on,64,72,360
1,note_on,71,76,30
1,note_on,76,84,30
1,note_on,76,0,480
1,note_on,71,0,0
1,note_on,64,0,0
1,note_on,75,49,0
1,note_on,75,0,60
1,note_on,83,44,0
1,note_on,76,44,0
1,note_on,76,0,60
1,note_on,83,0,0
1,note_on,82,44,0
1,note_on,78,44,0
1,note_on,78,0,60
1,note_on,82,0,0
1,note_on,79,44,0
1,note_on,83,44,0
1,note_on,83,0,60
1,note_on,79,0,0
1,note_on,75,54,0
1,note_on,75,0,60
1,note_on,76,47,0
1,note_on,83,47,0
1,note_on,83,0,60
1,note_on,76,0,0
1,note_on,82,47,0
1,note_on,78,47,0
1,note_on,78,0,60
1,note_on,82,0,0
1,note_on,79,47,0
1,note_on,83,47,0
1,note_on,83,0,60
1,note_on,79,0,0
1,note_on,75,56,0
1,note_on,75,0,60
1,note_on,83,47,0
1,note_on,76,47,0
1,note_on,76,0,60
1,note_on,83,0,0
1,note_on,82,49,0
1,note_on,78,49,0
1,note_on,78,0,60
1,note_on,82,0,0
1,note_on,79,49,0
1,note_on,83,49,0
1,note_on,83,0,60
1,note_on,79,0,0
1,note_on,75,58,0
1,note_on,75,0,60
1,note_on,76,50,0
1,note_on,83,50,0
1,note_on,83,0,60
1,note_on,76,0,0
1,note_on,82,50,0
1,note_on,78,50,0
1,note_on,78,0,60
1,note_on,82,0,0
1,note_on,79,50,0
1,note_on,83,50,0
1,note_on,83,0,60
1,note_on,79,0,0
1,note_on,75,61,0
1,note_on,75,0,60
1,note_on,83,53,0
1,note_on,76,53,0
1,note_on,76,0,60
1,note_on,83,0,0
1,note_on,82,53,0
1,note_on,78,53,0
1,note_on,78,0,60
1,note_on,82,0,0
1,note_on,79,53,0
1,note_on,83,53,0
1,note_on,83,0,60
1,note_on,79,0,0
1,note_on,78,66,0
1,note_on,78,0,60
1,note_on,79,55,0
1,note_on,88,55,0
1,note_on,88,0,60
1,note_on,79,0,0
1,note_on,82,55,0
1,note_on,87,55,0
1,note_on,87,0,60
1,note_on,82,0,0
1,note_on,83,55,0
1,note_on,88,55,0
1,note_on,88,0,60
1,note_on,83,0,0
1,note_on,82,68,0
1,note_on,82,0,60
1,note_on,83,59,0
1,note_on,91,59,0
1,note_on,91,0,60
1,note_on,83,0,0
1,note_on,87,60,0
1,note_on,90,60,0
1,note_on,90,0,60
1,note_on,87,0,0
1,note_on,88,61,0
1,note_on,91,61,0
1,note_on,91,0,60
1,note_on,88,0,0
1,note_on,87,73,0
1,note_on,87,0,60
1,note_on,88,60,0
1,note_on,95,60,0
1,note_on,95,0,60
1,note_on,88,0,0
1,note_on,90,64,0
1,note_on,94,64,0
1,note_on,94,0,60
1,note_on,90,0,0
1,note_on,88,65,0
1,note_on,95,65,0
1,note_on,95,0,60
1,note_on,88,0,0
1,note_on,90,77,0
1,note_on,90,0,60
1,note_on,91,68,0
1,note_on,100,68,0
1,note_on,100,0,60
1,note_on,91,0,0
1,note_on,94,69,0
1,note_on,99,69,0
1,note_on,99,0,60
1,note_on,94,0,0
1,note_on,95,71,0
1,note_on,100,71,0
1,note_on,100,0,60
1,note_on,95,0,0
1,note_on,71,45,360
1,note_on,71,0,40
1,note_on,71,45,20
1,note_on,71,0,60
1,note_on,72,49,0
1,note_on,72,0,60
1,note_on,71,45,0
1,note_on,71,0,60
1,note_on,70,45,0
1,note_on,70,0,60
1,note_on,71,45,0
1,note_on,76,48,59
1,note_on,71,0,1
1,note_on,76,0,59
1,note_on,75,45,21
1,note_on,75,0,60
1,note_on,74,45,20
1,note_on,74,0,60
1,note_on,73,51,20
1,note_on,73,0,60
1,note_on,72,44,20
1,note_on,72,0,60
1,note_on,71,44,20
1,note_on,71,0,60
1,note_on,70,50,20
1,note_on,70,0,60
1,note_on,71,48,20
1,note_on,64,38,0
1,note_on,71,0,120
1,note_on,72,48,0
1,note_on,64,0,40
1,note_on,72,0,60
1,note_on,60,56,120
1,note_on,64,63,30
1,note_on,72,70,30
1,note_on,72,0,480
1,note_on,64,0,0
1,note_on,60,0,0
1,note_on,71,45,0
1,note_on,71,0,60
1,note_on,76,40,0
1,note_on,72,40,0
1,note_on,72,0,60
1,note_on,76,0,0
1,note_on,75,40,0
1,note_on,75,0,60
1,note_on,72,40,0
1,note_on,76,40,0
1,note_on,76,0,60
1,note_on,72,0,0
1,note_on,71,45,0
1,note_on,71,0,60
1,note_on,72,42,0
1,note_on,76,42,0
1,note_on,76,0,60
1,note_on,72,0,0
1,note_on,75,42,0
1,note_on,75,0,60
1,note_on,72,43,0
1,note_on,76,43,0
1,note_on,76,0,60
1,note_on,72,0,0
1,note_on,71,47,0
1,note_on,71,0,60
1,note_on,76,43,0
1,note_on,72,43,0
1,note_on,72,0,60
1,note_on,76,0,0
1,note_on,75,44,0
1,note_on,75,0,60
1,note_on,72,44,0
1,note_on,76,44,0
1,note_on,76,0,60
1,note_on,72,0,0
1,note_on,71,49,0
1,note_on,71,0,60
1,note_on,72,45,0
1,note_on,76,45,0
1,note_on,76,0,60
1,note_on,72,0,0
1,note_on,75,45,0
1,note_on,75,0,60
1,note_on,72,45,0
1,note_on,76,45,0
1,note_on,76,0,60
1,note_on,72,0,0
1,note_on,71,50,0
1,note_on,71,0,60
1,note_on,76,47,0
1,note_on,72,47,0
1,note_on,72,0,60
1,note_on,76,0,0
1,note_on,75,48,0
1,note_on,75,0,60
1,note_on,72,48,0
1,note_on,76,48,0
1,note_on,76,0,60
1,note_on,72,0,0
1,note_on,71,52,0
1,note_on,71,0,60
1,note_on,72,48,0
1,note_on,76,48,0
1,note_on,76,0,60
1,note_on,72,0,0
1,note_on,75,48,0
1,note_on,75,0,60
1,note_on,72,49,0
1,note_on,76,49,0
1,note_on,76,0,60
1,note_on,72,0,0
1,note_on,72,56,0
1,note_on,72,0,60
1,note_on,76,59,0
1,note_on,76,0,60
1,note_on,84,64,0
1,note_on,84,0,60
1,note_on,76,65,0
1,note_on,76,0,60
1,note_on,72,56,0
1,note_on,72,0,60
1,note_on,64,62,0
1,note_on,64,0,60
1,note_on,72,57,0
1,note_on,72,0,60
1,note_on,63,56,480
1,note_on,66,63,30
1,note_on,75,70,30
1,note_on,75,0,480
1,note_on,66,0,0
1,note_on,63,0,0
1,note_on,74,45,0
1,note_on,74,0,60
1,note_on,78,40,0
1,note_on,75,40,0
1,note_on,75,0,60
1,note_on,78,0,0
1,note_on,77,40,0
1,note_on,77,0,60
1,note_on,75,40,0
1,note_on,78,40,0
1,note_on,78,0,60
1,note_on,75,0,0
1,note_on,74,45,0
1,note_on,74,0,60
1,note_on,75,42,0
1,note_on,78,42,0
1,note_on,78,0,60
1,note_on,75,0,0
1,note_on,77,42,0
1,note_on,77,0,60
1,note_on,75,43,0
1,note_on,78,43,0
1,note_on,78,0,60
1,note_on,75,0,0
1,note_on,74,47,0
1,note_on,74,0,60
1,note_on,78,43,0
1,note_on,75,43,0
1,note_on,75,0,60
1,note_on,78,0,0
1,note_on,77,44,0
1,note_on,77,0,60
1,note_on,75,44,0
1,note_on,78,44,0
1,note_on,78,0,60
1,note_on,75,0,0
1,note_on,74,49,0
1,note_on,74,0,60
1,note_on,75,45,0
1,note_on,78,45,0
1,note_on,78,0,60
1,note_on,75,0,0
1,note_on,77,45,0
1,note_on,77,0,60
1,note_on,75,45,0
1,note_on,78,45,0
1,note_on,78,0,60
1,note_on,75,0,0
1,note_on,74,50,0
1,note_on,74,0,60
1,note_on,78,47,0
1,note_on,75,47,0
1,note_on,75,0,60
1,note_on,78,0,0
1,note_on,77,48,0
1,note_on,77,0,60
1,note_on,75,48,0
1,note_on,78,48,0
1,note_on,78,0,60
1,note_on,75,0,0
1,note_on,74,52,0
1,note_on,74,0,60
1,note_on,75,48,0
1,note_on,78,48,0
1,note_on,78,0,60
1,note_on,75,0,0
1,note_on,77,48,0
1,note_on,77,0,60
1,note_on,75,49,0
1,note_on,78,49,0
1,note_on,78,0,60
1,note_on,75,0,0
1,note_on,75,56,0
1,note_on,75,0,60
1,note_on,78,59,0
1,note_on,78,0,60
1,note_on,87,64,0
1,note_on,87,0,60
1,note_on,78,61,0
1,note_on,78,0,60
1,note_on,75,58,0
1,note_on,75,0,60
1,note_on,66,64,0
1,note_on,66,0,60
1,note_on,75,59,0
1,note_on,75,0,60
1,note_on,76,80,300
1,note_on,64,72,180
1,note_on,71,76,30
1,note_on,76,0,30
1,note_on,76,84,0
1,note_on,76,0,480
1,note_on,71,0,0
1,note_on,64,0,0
1,note_on,75,49,0
1,note_on,75,0,60
1,note_on,83,44,0
1,note_on,76,44,0
1,note_on,76,0,60
1,note_on,83,0,0
1,note_on,82,44,0
1,note_on,78,44,0
1,note_on,78,0,60
1,note_on,82,0,0
1,note_on,79,44,0
1,note_on,83,44,0
1,note_on,83,0,60
1,note_on,79,0,0
1,note_on,75,54,0
1,note_on,75,0,60
1,note_on,76,47,0
1,note_on,83,47,0
1,note_on,83,0,60
1,note_on,76,0,0
1,note_on,82,47,0
1,note_on,78,47,0
1,note_on,78,0,60
1,note_on,82,0,0
1,note_on,79,47,0
1,note_on,83,47,0
1,note_on,83,0,60
1,note_on,79,0,0
1,note_on,75,56,0
1,note_on,75,0,60
1,note_on,83,47,0
1,note_on,76,47,0
1,note_on,76,0,60
1,note_on,83,0,0
1,note_on,82,49,0
1,note_on,78,49,0
1,note_on,78,0,60
1,note_on,82,0,0
1,note_on,79,49,0
1,note_on,83,49,0
1,note_on,83,0,60
1,note_on,79,0,0
1,note_on,75,58,0
1,note_on,75,0,60
1,note_on,76,50,0
1,note_on,83,50,0
1,note_on,83,0,60
1,note_on,76,0,0
1,note_on,82,50,0
1,note_on,78,50,0
1,note_on,78,0,60
1,note_on,82,0,0
1,note_on,79,50,0
1,note_on,83,50,0
1,note_on,83,0,60
1,note_on,79,0,0
1,note_on,75,61,0
1,note_on,75,0,60
1,note_on,83,53,0
1,note_on,76,53,0
1,note_on,76,0,60
1,note_on,83,0,0
1,note_on,82,53,0
1,note_on,78,53,0
1,note_on,78,0,60
1,note_on,82,0,0
1,note_on,79,53,0
1,note_on,83,53,0
1,note_on,83,0,60
1,note_on,79,0,0
1,note_on,75,61,0
1,note_on,75,0,60
1,note_on,83,53,0
1,note_on,76,53,0
1,note_on,76,0,60
1,note_on,83,0,0
1,note_on,82,53,0
1,note_on,78,53,0
1,note_on,78,0,60
1,note_on,82,0,0
1,note_on,79,53,0
1,note_on,83,53,0
1,note_on,83,0,60
1,note_on,79,0,0
1,note_on,78,66,0
1,note_on,78,0,60
1,note_on,79,55,0
1,note_on,88,55,0
1,note_on,88,0,60
1,note_on,79,0,0
1,note_on,82,55,0
1,note_on,87,55,0
1,note_on,87,0,60
1,note_on,82,0,0
1,note_on,83,55,0
1,note_on,88,55,0
1,note_on,88,0,60
1,note_on,83,0,0
1,note_on,82,68,0
1,note_on,82,0,60
1,note_on,83,59,0
1,note_on,91,59,0
1,note_on,91,0,60
1,note_on,83,0,0
1,note_on,87,60,0
1,note_on,90,60,0
1,note_on,90,0,60
1,note_on,87,0,0
1,note_on,88,61,0
1,note_on,91,61,0
1,note_on,91,0,60
1,note_on,88,0,0
1,note_on,87,73,0
1,note_on,87,0,60
1,note_on,88,60,0
1,note_on,95,60,0
1,note_on,95,0,60
1,note_on,88,0,0
1,note_on,90,64,0
1,note_on,94,64,0
1,note_on,94,0,60
1,note_on,90,0,0
1,note_on,91,65,0
1,note_on,95,65,0
1,note_on,95,0,60
1,note_on,91,0,0
1,note_on,90,77,0
1,note_on,90,0,60
1,note_on,91,68,0
1,note_on,100,68,0
1,note_on,100,0,60
1,note_on,91,0,0
1,note_on,94,69,0
1,note_on,99,69,0
1,note_on,99,0,60
1,note_on,94,0,0
1,note_on,91,71,0
1,note_on,100,71,0
1,note_on,100,0,60
1,note_on,91,0,0
1,note_on,87,77,0
1,note_on,87,0,60
1,note_on,88,67,0
1,note_on,95,67,0
1,note_on,95,0,60
1,note_on,88,0,0
1,note_on,90,67,0
1,note_on,94,67,0
1,note_on,94,0,60
1,note_on,90,0,0
1,note_on,91,67,0
1,note_on,95,67,0
1,note_on,95,0,60
1,note_on,91,0,0
1,note_on,82,68,0
1,note_on,82,0,60
1,note_on,83,60,0
1,note_on,91,60,0
1,note_on,91,0,60
1,note_on,83,0,0
1,note_on,87,60,0
1,note_on,90,60,0
1,note_on,90,0,60
1,note_on,87,0,0
1,note_on,88,60,0
1,note_on,91,60,0
1,note_on,91,0,60
1,note_on,88,0,0
1,note_on,87,73,0
1,note_on,87,0,60
1,note_on,88,60,0
1,note_on,95,60,0
1,note_on,95,0,60
1,note_on,88,0,0
1,note_on,90,64,0
1,note_on,94,64,0
1,note_on,94,0,60
1,note_on,90,0,0
1,note_on,91,65,0
1,note_on,95,65,0
1,note_on,95,0,60
1,note_on,91,0,0
1,note_on,90,77,0
1,note_on,90,0,60
1,note_on,91,68,0
1,note_on,100,68,0
1,note_on,100,0,60
1,note_on,91,0,0
1,note_on,94,69,0
1,note_on,99,69,0
1,note_on,99,0,60
1,note_on,94,0,0
1,note_on,95,71,0
1,note_on,100,71,0
1,note_on,100,0,60
1,note_on,95,0,0
1,note_on,87,73,0
1,note_on,87,0,60
1,note_on,88,65,0
1,note_on,95,65,0
1,note_on,95,0,60
1,note_on,88,0,0
1,note_on,90,65,0
1,note_on,94,65,0
1,note_on,94,0,60
1,note_on,90,0,0
1,note_on,91,65,0
1,note_on,95,65,0
1,note_on,95,0,60
1,note_on,91,0,0
1,note_on,82,68,0
1,note_on,82,0,60
1,note_on,83,59,0
1,note_on,91,59,0
1,note_on,91,0,60
1,note_on,83,0,0
1,note_on,87,60,0
1,note_on,90,60,0
1,note_on,90,0,60
1,note_on,87,0,0
1,note_on,88,61,0
1,note_on,91,61,0
1,note_on,91,0,60
1,note_on,88,0,0
1,note_on,87,73,0
1,note_on,87,0,60
1,note_on,88,60,0
1,note_on,95,60,0
1,note_on,95,0,60
1,note_on,88,0,0
1,note_on,90,64,0
1,note_on,94,64,0
1,note_on,94,0,60
1,note_on,90,0,0
1,note_on,91,65,0
1,note_on,95,65,0
1,note_on,95,0,60
1,note_on,91,0,0
1,note_on,90,77,0
1,note_on,90,0,60
1,note_on,91,68,0
1,note_on,100,68,0
1,note_on,100,0,60
1,note_on,91,0,0
1,note_on,94,69,0
1,note_on,99,69,0
1,note_on,99,0,60
1,note_on,94,0,0
1,note_on,95,71,0
1,note_on,100,71,0
1,note_on,100,0,60
1,note_on,95,0,0
1,note_on,87,73,0
1,note_on,87,0,60
1,note_on,88,60,0
1,note_on,95,60,0
1,note_on,95,0,60
1,note_on,88,0,0
1,note_on,90,64,0
1,note_on,94,64,0
1,note_on,94,0,60
1,note_on,90,0,0
1,note_on,91,65,0
1,note_on,95,65,0
1,note_on,95,0,60
1,note_on,91,0,0
1,note_on,90,77,0
1,note_on,90,0,60
1,note_on,91,68,0
1,note_on,100,68,0
1,note_on,100,0,60
1,note_on,91,0,0
1,note_on,94,69,0
1,note_on,99,69,0
1,note_on,99,0,60
1,note_on,94,0,0
1,note_on,95,71,0
1,note_on,100,71,0
1,note_on,100,0,60
1,note_on,95,0,0
1,note_on,87,73,0
1,note_on,87,0,60
1,note_on,88,60,0
1,note_on,95,60,0
1,note_on,95,0,60
1,note_on,88,0,0
1,note_on,90,64,0
1,note_on,94,64,0
1,note_on,94,0,60
1,note_on,90,0,0
1,note_on,91,65,0
1,note_on,95,65,0
1,note_on,95,0,60
1,note_on,91,0,0
1,note_on,90,77,0
1,note_on,90,0,60
1,note_on,91,68,0
1,note_on,100,68,0
1,note_on,100,0,60
1,note_on,91,0,0
1,note_on,94,69,0
1,note_on,99,69,0
1,note_on,99,0,60
1,note_on,94,0,0
1,note_on,95,71,0
1,note_on,100,71,0
1,note_on,100,0,60
1,note_on,95,0,0
1,note_on,87,73,0
1,note_on,87,0,60
1,note_on,88,60,0
1,note_on,95,60,0
1,note_on,95,0,60
1,note_on,88,0,0
1,note_on,90,64,0
1,note_on,94,64,0
1,note_on,94,0,60
1,note_on,90,0,0
1,note_on,91,65,0
1,note_on,95,65,0
1,note_on,95,0,60
1,note_on,91,0,0
1,note_on,90,77,0
1,note_on,90,0,60
1,note_on,91,68,0
1,note_on,100,68,0
1,note_on,100,0,60
1,note_on,91,0,0
1,note_on,94,69,0
1,note_on,99,69,0
1,note_on,99,0,60
1,note_on,94,0,0
1,note_on,95,71,0
1,note_on,100,71,0
1,note_on,100,0,60
1,note_on,95,0,0
1,note_on,90,77,0
1,note_on,90,0,60
1,note_on,91,64,0
1,note_on,100,64,0
1,note_on,100,0,60
1,note_on,91,0,0
1,note_on,94,63,0
1,note_on,99,63,0
1,note_on,99,0,60
1,note_on,94,0,0
1,note_on,95,62,0
1,note_on,100,62,0
1,note_on,100,0,60
1,note_on,95,0,0
1,note_on,90,69,0
1,note_on,90,0,60
1,note_on,91,60,0
1,note_on,100,60,0
1,note_on,100,0,60
1,note_on,91,0,0
1,note_on,94,59,0
1,note_on,99,59,0
1,note_on,99,0,60
1,note_on,94,0,0
1,note_on,95,59,0
1,note_on,100,59,0
1,note_on,100,0,60
1,note_on,95,0,0
1,note_on,90,64,0
1,note_on,90,0,60
1,note_on,91,57,0
1,note_on,100,57,0
1,note_on,100,0,60
1,note_on,91,0,0
1,note_on,94,56,0
1,note_on,99,56,0
1,note_on,99,0,60
1,note_on,94,0,0
1,note_on,95,55,0
1,note_on,100,55,0
1,note_on,100,0,60
1,note_on,95,0,0
1,note_on,90,57,0
1,note_on,90,0,60
1,note_on,91,46,0
1,note_on,100,46,0
1,note_on,100,0,60
1,note_on,91,0,0
1,note_on,94,46,0
1,note_on,99,46,0
1,note_on,99,0,60
1,note_on,94,0,0
1,note_on,95,45,0
1,note_on,100,45,0
1,note_on,100,0,60
1,note_on,95,0,0
1,note_on,90,52,0
1,note_on,90,0,60
1,note_on,91,44,0
1,note_on,100,44,0
1,note_on,100,0,60
1,note_on,91,0,0
1,note_on,94,44,0
1,note_on,99,44,0
1,note_on,99,0,60
1,note_on,94,0,0
1,note_on,95,40,0
1,note_on,100,44,0
1,note_on,100,0,60
1,note_on,95,0,0
1,note_on,76,50,480
1,note_on,76,0,240
1,note_on,77,59,0
1,note_on,79,47,60
1,note_on,79,0,53
1,note_on,81,49,0
1,note_on,83,50,53
1,note_on,81,0,0
1,note_on,83,0,53
1,note_on,84,52,0
1,note_on,86,54,52
1,note_on,84,0,1
1,note_on,86,0,52
1,note_on,88,55,0
1,note_on,88,0,53
1,note_on,89,57,0
1,note_on,89,0,53
1,note_on,91,59,0
1,note_on,91,0,50
1,note_on,77,0,0
1,note_on,93,72,0
1,note_on,93,0,540
1,note_on,91,52,0
1,note_on,91,0,60
1,note_on,89,50,0
1,note_on,89,0,60
1,note_on,88,48,0
1,note_on,88,0,60
1,note_on,86,47,0
1,note_on,86,0,60
1,note_on,84,45,0
1,note_on,84,0,60
1,note_on,83,43,0
1,note_on,83,0,60
1,note_on,81,41,0
1,note_on,81,0,60
1,note_on,79,40,0
1,note_on,79,0,60
1,note_on,77,38,0
1,note_on,77,0,60
1,note_on,76,36,0
1,note_on,76,0,60
1,note_on,74,50,0
1,note_on,74,0,60
1,note_on,72,57,240
1,note_on,74,46,30
1,note_on,74,0,30
1,note_on,76,47,0
1,note_on,76,0,30
1,note_on,77,49,0
1,note_on,77,0,30
1,note_on,79,50,0
1,note_on,79,0,30
1,note_on,81,52,0
1,note_on,81,0,30
1,note_on,83,53,0
1,note_on,83,0,30
1,note_on,84,55,0
1,note_on,84,0,30
1,note_on,86,57,0
1,note_on,86,0,30
1,note_on,88,58,0
1,note_on,88,0,30
1,note_on,89,60,0
1,note_on,89,0,30
1,note_on,91,61,0
1,note_on,91,0,30
1,note_on,93,63,0
1,note_on,93,0,30
1,note_on,95,64,0
1,note_on,95,0,30
1,note_on,96,66,0
1,note_on,96,0,30
1,note_on,98,69,0
1,note_on,98,0,30
1,note_on,72,0,0
1,note_on,100,76,0
1,note_on,100,0,505
1,note_on,98,49,0
1,note_on,98,0,25
1,note_on,96,48,1
1,note_on,96,0,25
1,note_on,95,47,0
1,note_on,95,0,25
1,note_on,93,46,0
1,note_on,93,0,25
1,note_on,91,45,0
1,note_on,91,0,25
1,note_on,89,45,0
1,note_on,89,0,25
1,note_on,88,44,1
1,note_on,88,0,25
1,note_on,86,43,0
1,note_on,86,0,25
1,note_on,84,42,0
1,note_on,84,0,25
1,note_on,83,41,0
1,note_on,83,0,25
1,note_on,81,40,0
1,note_on,81,0,25
1,note_on,79,40,1
1,note_on,79,0,25
1,note_on,77,39,0
1,note_on,77,0,25
1,note_on,76,38,0
1,note_on,76,0,25
1,note_on,74,37,0
1,note_on,74,0,25
1,note_on,72,36,0
1,note_on,72,0,25
1,note_on,71,36,1
1,note_on,71,0,25
1,note_on,69,35,0
1,note_on,69,0,25
1,note_on,67,56,1
1,note_on,67,0,25
1,note_on,65,54,455
1,note_on,67,39,23
1,note_on,69,40,23
1,note_on,67,0,0
1,note_on,69,0,23
1,note_on,71,41,0
1,note_on,72,43,22
1,note_on,71,0,1
1,note_on,72,0,22
1,note_on,74,44,0
1,note_on,74,0,23
1,note_on,76,45,0
1,note_on,77,47,23
1,note_on,76,0,0
1,note_on,77,0,23
1,note_on,79,48,0
1,note_on,81,49,22
1,note_on,79,0,1
1,note_on,81,0,22
1,note_on,83,51,0
1,note_on,83,0,23
1,note_on,84,52,0
1,note_on,86,53,23
1,note_on,84,0,0
1,note_on,86,0,23
1,note_on,88,54,0
1,note_on,89,56,22
1,note_on,88,0,1
1,note_on,89,0,22
1,note_on,91,57,0
1,note_on,91,0,23
1,note_on,93,58,0
1,note_on,95,59,23
1,note_on,93,0,0
1,note_on,95,0,23
1,note_on,96,60,0
1,note_on,98,62,22
1,note_on,96,0,1
1,note_on,98,0,22
1,note_on,100,63,0
1,note_on,100,0,23
1,note_on,65,0,1
1,note_on,101,72,0
1,note_on,101,0,261
1,note_on,100,47,240
1,note_on,100,0,21
1,note_on,98,46,0
1,note_on,98,0,21
1,note_on,96,46,0
1,note_on,96,0,21
1,note_on,95,45,0
1,note_on,95,0,21
1,note_on,93,45,0
1,note_on,93,0,21
1,note_on,91,44,0
1,note_on,91,0,21
1,note_on,89,44,0
1,note_on,89,0,21
1,note_on,88,43,0
1,note_on,88,0,21
1,note_on,86,42,0
1,note_on,86,0,21
1,note_on,84,42,0
1,note_on,84,0,21
1,note_on,83,41,0
1,note_on,83,0,21
1,note_on,81,41,0
1,note_on,81,0,21
1,note_on,79,40,0
1,note_on,79,0,21
1,note_on,77,39,0
1,note_on,77,0,21
1,note_on,76,39,0
1,note_on,76,0,21
1,note_on,74,38,0
1,note_on,74,0,21
1,note_on,72,38,0
1,note_on,72,0,21
1,note_on,71,37,0
1,note_on,71,0,21
1,note_on,69,36,0
1,note_on,69,0,21
1,note_on,67,36,0
1,note_on,67,0,21
1,note_on,65,35,0
1,note_on,65,0,21
1,note_on,64,35,0
1,note_on,64,0,18
1,note_on,62,56,0
1,note_on,62,0,60
1,note_on,60,57,420
1,note_on,62,45,39
1,note_on,62,0,38
1,note_on,64,46,0
1,note_on,65,47,38
1,note_on,64,0,1
1,note_on,65,0,38
1,note_on,67,47,0
1,note_on,67,0,38
1,note_on,69,48,0
1,note_on,69,0,39
1,note_on,71,49,0
1,note_on,71,0,38
1,note_on,72,50,0
1,note_on,60,0,38
1,note_on,74,51,0
1,note_on,72,0,1
1,note_on,74,0,38
1,note_on,76,52,0
1,note_on,76,0,38
1,note_on,77,53,0
1,note_on,77,0,39
1,note_on,79,53,0
1,note_on,79,0,38
1,note_on,81,54,0
1,note_on,83,55,38
1,note_on,81,0,1
1,note_on,83,0,38
1,note_on,84,56,0
1,note_on,84,0,38
1,note_on,86,57,0
1,note_on,86,0,39
1,note_on,88,58,0
1,note_on,88,0,38
1,note_on,89,59,0
1,note_on,91,60,38
1,note_on,89,0,1
1,note_on,91,0,38
1,note_on,93,60,0
1,note_on,93,0,38
1,note_on,95,61,0
1,note_on,95,0,39
1,note_on,96,62,0
1,note_on,96,0,38
1,note_on,98,63,0
1,note_on,100,64,38
1,note_on,98,0,1
1,note_on,100,0,38
1,note_on,101,65,0
1,note_on,101,0,38
1,note_on,103,75,0
1,note_on,103,0,60
1,note_on,64,50,420
1,note_on,64,0,240
1,note_on,65,57,240
1,note_on,67,45,30
1,note_on,67,0,30
1,note_on,69,46,0
1,note_on,69,0,30
1,note_on,71,47,0
1,note_on,71,0,30
1,note_on,72,48,0
1,note_on,72,0,30
1,note_on,74,50,0
1,note_on,74,0,30
1,note_on,76,51,0
1,note_on,76,0,30
1,note_on,77,52,0
1,note_on,77,0,30
1,note_on,79,54,0
1,note_on,79,0,30
1,note_on,81,55,0
1,note_on,81,0,30
1,note_on,83,56,0
1,note_on,83,0,30
1,note_on,84,57,0
1,note_on,84,0,30
1,note_on,86,59,0
1,note_on,86,0,30
1,note_on,88,60,0
1,note_on,88,0,30
1,note_on,89,61,0
1,note_on,89,0,30
1,note_on,91,62,0
1,note_on,91,0,30
1,note_on,65,0,0
1,note_on,93,76,0
1,note_on,93,0,505
1,note_on,91,49,0
1,note_on,91,0,27
1,note_on,89,48,0
1,note_on,89,0,27
1,note_on,88,47,0
1,note_on,88,0,26
1,note_on,86,46,1
1,note_on,86,0,26
1,note_on,84,45,0
1,note_on,84,0,27
1,note_on,83,45,0
1,note_on,83,0,27
1,note_on,81,44,0
1,note_on,81,0,26
1,note_on,79,43,0
1,note_on,79,0,27
1,note_on,77,42,0
1,note_on,77,0,27
1,note_on,76,41,0
1,note_on,76,0,26
1,note_on,74,40,1
1,note_on,74,0,26
1,note_on,72,40,0
1,note_on,72,0,27
1,note_on,71,39,0
1,note_on,71,0,26
1,note_on,69,38,1
1,note_on,69,0,26
1,note_on,67,37,0
1,note_on,67,0,27
1,note_on,65,36,0
1,note_on,65,0,27
1,note_on,64,36,0
1,note_on,64,0,26
1,note_on,62,56,1
1,note_on,62,0,25
1,note_on,60,57,455
1,note_on,62,48,42
1,note_on,62,0,41
1,note_on,64,49,0
1,note_on,64,0,42
1,note_on,65,50,0
1,note_on,65,0,41
1,note_on,67,50,0
1,note_on,67,0,42
1,note_on,69,51,0
1,note_on,69,0,41
1,note_on,71,52,0
1,note_on,71,0,42
1,note_on,72,53,0
1,note_on,60,0,41
1,note_on,72,0,0
1,note_on,74,54,0
1,note_on,76,55,41
1,note_on,74,0,1
1,note_on,76,0,41
1,note_on,77,56,0
1,note_on,77,0,41
1,note_on,79,56,0
1,note_on,79,0,42
1,note_on,81,57,0
1,note_on,81,0,41
1,note_on,83,58,0
1,note_on,83,0,42
1,note_on,84,59,0
1,note_on,84,0,41
1,note_on,86,60,0
1,note_on,86,0,42
1,note_on,88,61,0
1,note_on,88,0,41
1,note_on,89,62,0
1,note_on,89,0,42
1,note_on,91,63,0
1,note_on,91,0,41
1,note_on,93,63,0
1,note_on,93,0,42
1,note_on,95,64,0
1,note_on,95,0,41
1,note_on,96,65,0
1,note_on,96,0,42
1,note_on,98,66,0
1,note_on,98,0,41
1,note_on,100,79,0
1,note_on,100,0,42
1,note_on,70,64,444
1,note_on,60,54,0
1,note_on,64,54,0
1,note_on,64,0,240
1,note_on,60,0,0
1,note_on,70,0,0
1,note_on,71,73,240
1,note_on,64,62,0
1,note_on,59,62,0
1,note_on,59,0,240
1,note_on,64,0,0
1,note_on,71,0,0
1,note_on,60,47,0
1,note_on,60,0,36
1,note_on,62,48,1
1,note_on,62,0,36
1,note_on,64,50,0
1,note_on,64,0,36
1,note_on,65,51,0
1,note_on,65,0,36
1,note_on,67,53,0
1,note_on,67,0,36
1,note_on,69,54,0
1,note_on,69,0,36
1,note_on,71,56,0
1,note_on,71,0,36
1,note_on,72,57,1
1,note_on,72,0,36
1,note_on,74,59,0
1,note_on,74,0,36
1,note_on,76,60,0
1,note_on,76,0,36
1,note_on,77,62,0
1,note_on,77,0,36
1,note_on,79,63,0
1,note_on,79,0,36
1,note_on,81,64,0
1,note_on,81,0,36
1,note_on,83,66,1
1,note_on,83,0,36
1,note_on,84,67,0
1,note_on,84,0,36
1,note_on,86,69,0
1,note_on,86,0,36
1,note_on,88,70,0
1,note_on,88,0,36
1,note_on,89,72,0
1,note_on,89,0,36
1,note_on,91,73,0
1,note_on,91,0,36
1,note_on,93,75,1
1,note_on,83,81,35
1,note_on,93,0,1
1,note_on,83,0,35
1,note_on,63,56,441
1,note_on,59,56,0
1,note_on,71,67,3
1,note_on,59,0,237
1,note_on,63,0,0
1,note_on,71,0,3
1,note_on,71,76,237
1,note_on,64,64,0
1,note_on,59,64,0
1,note_on,59,0,240
1,note_on,64,0,0
1,note_on,71,0,0
1,note_on,60,53,0
1,note_on,60,0,36
1,note_on,62,54,1
1,note_on,62,0,36
1,note_on,64,55,0
1,note_on,64,0,36
1,note_on,65,56,0
1,note_on,65,0,36
1,note_on,67,57,0
1,note_on,67,0,36
1,note_on,69,58,0
1,note_on,69,0,36
1,note_on,71,60,0
1,note_on,71,0,36
1,note_on,72,61,1
1,note_on,72,0,36
1,note_on,74,62,0
1,note_on,74,0,36
1,note_on,76,63,0
1,note_on,76,0,36
1,note_on,77,64,0
1,note_on,77,0,36
1,note_on,79,65,0
1,note_on,79,0,36
1,note_on,81,67,0
1,note_on,81,0,36
1,note_on,83,68,1
1,note_on,83,0,36
1,note_on,84,69,0
1,note_on,84,0,36
1,note_on,86,70,0
1,note_on,86,0,36
1,note_on,88,71,0
1,note_on,88,0,36
1,note_on,89,73,0
1,note_on,89,0,36
1,note_on,91,74,0
1,note_on,91,0,36
1,note_on,93,75,1
1,note_on,95,85,35
1,note_on,93,0,1
1,note_on,95,0,35
1,note_on,83,73,441
1,note_on,78,73,0
1,note_on,71,62,0
1,note_on,75,62,0
1,note_on,75,0,240
1,note_on,83,0,0
1,note_on,78,0,0
1,note_on,71,0,0
1,note_on,80,83,240
1,note_on,83,83,0
1,note_on,71,70,0
1,note_on,76,70,0
1,note_on,76,0,240
1,note_on,80,0,0
1,note_on,83,0,0
1,note_on,71,0,0
1,note_on,72,58,254
1,note_on,72,0,36
1,note_on,74,60,0
1,note_on,74,0,36
1,note_on,76,61,0
1,note_on,76,0,36
1,note_on,77,63,0
1,note_on,77,0,36
1,note_on,79,64,0
1,note_on,79,0,36
1,note_on,81,66,0
1,note_on,81,0,36
1,note_on,83,67,1
1,note_on,83,0,36
1,note_on,84,69,0
1,note_on,84,0,36
1,note_on,86,70,0
1,note_on,86,0,36
1,note_on,88,71,0
1,note_on,88,0,36
1,note_on,89,73,0
1,note_on,89,0,36
1,note_on,91,74,0
1,note_on,91,0,36
1,note_on,93,76,1
1,note_on,95,93,35
1,note_on,93,0,1
1,note_on,95,0,35
1,note_on,83,76,441
1,note_on,78,76,0
1,note_on,71,65,0
1,note_on,75,65,0
1,note_on,75,0,240
1,note_on,83,0,0
1,note_on,78,0,0
1,note_on,71,0,0
1,note_on,83,87,240
1,note_on,88,87,0
1,note_on,76,73,0
1,note_on,80,73,0
1,note_on,80,0,240
1,note_on,83,0,0
1,note_on,88,0,0
1,note_on,76,0,0
1,note_on,95,91,720
1,note_on,100,91,0
1,note_on,88,76,0
1,note_on,92,76,0
1,note_on,92,0,240
1,note_on,95,0,0
1,note_on,100,0,0
1,note_on,88,0,0
1,note_on,76,50,240
1,note_on,76,0,240
1,note_on,77,59,240
1,note_on,79,44,60
1,note_on,79,0,53
1,note_on,81,46,0
1,note_on,83,48,53
1,note_on,81,0,0
1,note_on,83,0,53
1,note_on,84,50,0
1,note_on,86,53,52
1,note_on,84,0,1
1,note_on,86,0,52
1,note_on,88,55,0
1,note_on,88,0,53
1,note_on,89,57,0
1,note_on,89,0,53
1,note_on,91,59,0
1,note_on,91,0,50
1,note_on,77,0,0
1,note_on,93,66,0
1,note_on,93,0,540
1,note_on,91,52,0
1,note_on,91,0,60
1,note_on,89,50,0
1,note_on,89,0,60
1,note_on,88,48,0
1,note_on,88,0,60
1,note_on,86,47,0
1,note_on,86,0,60
1,note_on,84,45,0
1,note_on,84,0,60
1,note_on,83,43,0
1,note_on,83,0,60
1,note_on,81,41,0
1,note_on,81,0,60
1,note_on,79,40,0
1,note_on,79,0,60
1,note_on,77,38,0
1,note_on,77,0,60
1,note_on,76,36,0
1,note_on,76,0,60
1,note_on,74,50,0
1,note_on,74,0,60
1,note_on,72,57,240
1,note_on,74,45,30
1,note_on,74,0,30
1,note_on,76,46,0
1,note_on,76,0,30
1,note_on,77,47,0
1,note_on,77,0,30
1,note_on,79,48,0
1,note_on,79,0,30
1,note_on,81,50,0
1,note_on,81,0,30
1,note_on,83,51,0
1,note_on,83,0,30
1,note_on,84,52,0
1,note_on,84,0,30
1,note_on,86,54,0
1,note_on,86,0,30
1,note_on,88,55,0
1,note_on,88,0,30
1,note_on,89,56,0
1,note_on,89,0,30
1,note_on,91,57,0
1,note_on,91,0,30
1,note_on,93,59,0
1,note_on,93,0,30
1,note_on,95,60,0
1,note_on,95,0,30
1,note_on,96,61,0
1,note_on,96,0,30
1,note_on,98,62,0
1,note_on,98,0,30
1,note_on,72,0,0
1,note_on,100,76,0
1,note_on,100,0,505
1,note_on,98,49,0
1,note_on,98,0,25
1,note_on,96,48,1
1,note_on,96,0,25
1,note_on,95,47,0
1,note_on,95,0,25
1,note_on,93,46,0
1,note_on,93,0,25
1,note_on,91,45,0
1,note_on,91,0,25
1,note_on,89,45,0
1,note_on,89,0,25
1,note_on,88,44,1
1,note_on,88,0,25
1,note_on,86,43,0
1,note_on,86,0,25
1,note_on,84,42,0
1,note_on,84,0,25
1,note_on,83,41,0
1,note_on,83,0,25
1,note_on,81,40,0
1,note_on,81,0,25
1,note_on,79,40,1
1,note_on,79,0,25
1,note_on,77,39,0
1,note_on,77,0,25
1,note_on,76,38,0
1,note_on,76,0,25
1,note_on,74,37,0
1,note_on,74,0,25
1,note_on,72,36,0
1,note_on,72,0,25
1,note_on,71,36,1
1,note_on,71,0,25
1,note_on,69,35,0
1,note_on,69,0,25
1,note_on,67,56,1
1,note_on,67,0,25
1,note_on,65,54,455
1,note_on,67,38,23
1,note_on,69,39,23
1,note_on,67,0,0
1,note_on,69,0,23
1,note_on,71,40,0
1,note_on,72,41,22
1,note_on,71,0,1
1,note_on,72,0,22
1,note_on,74,42,0
1,note_on,74,0,23
1,note_on,76,43,0
1,note_on,77,44,23
1,note_on,76,0,0
1,note_on,77,0,23
1,note_on,79,45,0
1,note_on,81,46,22
1,note_on,79,0,1
1,note_on,81,0,22
1,note_on,83,47,0
1,note_on,83,0,23
1,note_on,84,48,0
1,note_on,86,49,23
1,note_on,84,0,0
1,note_on,86,0,23
1,note_on,88,49,0
1,note_on,89,50,22
1,note_on,88,0,1
1,note_on,89,0,22
1,note_on,91,51,0
1,note_on,91,0,23
1,note_on,93,52,0
1,note_on,95,53,23
1,note_on,93,0,0
1,note_on,95,0,23
1,note_on,96,54,0
1,note_on,98,55,22
1,note_on,96,0,1
1,note_on,98,0,22
1,note_on,100,56,0
1,note_on,100,0,23
1,note_on,65,0,1
1,note_on,101,68,0
1,note_on,101,0,261
1,note_on,100,47,240
1,note_on,100,0,21
1,note_on,98,46,0
1,note_on,98,0,21
1,note_on,96,46,0
1,note_on,96,0,21
1,note_on,95,45,0
1,note_on,95,0,21
1,note_on,93,45,0
1,note_on,93,0,21
1,note_on,91,44,0
1,note_on,91,0,21
1,note_on,89,44,0
1,note_on,89,0,21
1,note_on,88,43,0
1,note_on,88,0,21
1,note_on,86,42,0
1,note_on,86,0,21
1,note_on,84,42,0
1,note_on,84,0,21
1,note_on,83,41,0
1,note_on,83,0,21
1,note_on,81,41,0
1,note_on,81,0,21
1,note_on,79,40,0
1,note_on,79,0,21
1,note_on,77,39,0
1,note_on,77,0,21
1,note_on,76,39,0
1,note_on,76,0,21
1,note_on,74,38,0
1,note_on,74,0,21
1,note_on,72,38,0
1,note_on,72,0,21
1,note_on,71,37,0
1,note_on,71,0,21
1,note_on,69,36,0
1,note_on,69,0,21
1,note_on,67,36,0
1,note_on,67,0,21
1,note_on,65,35,0
1,note_on,65,0,21
1,note_on,64,35,0
1,note_on,64,0,18
1,note_on,62,56,0
1,note_on,62,0,60
1,note_on,60,57,420
1,note_on,62,45,39
1,note_on,62,0,38
1,note_on,64,46,0
1,note_on,65,46,38
1,note_on,64,0,1
1,note_on,65,0,38
1,note_on,67,47,0
1,note_on,67,0,38
1,note_on,69,48,0
1,note_on,69,0,39
1,note_on,71,49,0
1,note_on,71,0,38
1,note_on,72,50,0
1,note_on,60,0,38
1,note_on,74,51,0
1,note_on,72,0,1
1,note_on,74,0,38
1,note_on,76,51,0
1,note_on,76,0,38
1,note_on,77,52,0
1,note_on,77,0,39
1,note_on,79,53,0
1,note_on,79,0,38
1,note_on,81,54,0
1,note_on,83,55,38
1,note_on,81,0,1
1,note_on,83,0,38
1,note_on,84,56,0
1,note_on,84,0,38
1,note_on,86,57,0
1,note_on,86,0,39
1,note_on,88,57,0
1,note_on,88,0,38
1,note_on,89,58,0
1,note_on,91,59,38
1,note_on,89,0,1
1,note_on,91,0,38
1,note_on,93,60,0
1,note_on,93,0,38
1,note_on,95,61,0
1,note_on,95,0,39
1,note_on,96,62,0
1,note_on,96,0,38
1,note_on,98,62,0
1,note_on,100,63,38
1,note_on,98,0,1
1,note_on,100,0,38
1,note_on,101,64,0
1,note_on,101,0,38
1,note_on,103,75,0
1,note_on,103,0,60
1,note_on,64,50,420
1,note_on,64,0,240
1,note_on,65,57,240
1,note_on,67,45,30
1,note_on,67,0,30
1,note_on,69,46,0
1,note_on,69,0,30
1,note_on,71,47,0
1,note_on,71,0,30
1,note_on,72,48,0
1,note_on,72,0,30
1,note_on,74,50,0
1,note_on,74,0,30
1,note_on,76,51,0
1,note_on,76,0,30
1,note_on,77,52,0
1,note_on,77,0,30
1,note_on,79,54,0
1,note_on,79,0,30
1,note_on,81,55,0
1,note_on,81,0,30
1,note_on,83,56,0
1,note_on,83,0,30
1,note_on,84,57,0
1,note_on,84,0,30
1,note_on,86,59,0
1,note_on,86,0,30
1,note_on,88,60,0
1,note_on,88,0,30
1,note_on,89,61,0
1,note_on,89,0,30
1,note_on,91,62,0
1,note_on,91,0,30
1,note_on,65,0,0
1,note_on,93,76,0
1,note_on,93,0,505
1,note_on,91,49,0
1,note_on,91,0,27
1,note_on,89,48,0
1,note_on,89,0,27
1,note_on,88,47,0
1,note_on,88,0,26
1,note_on,86,46,1
1,note_on,86,0,26
1,note_on,84,45,0
1,note_on,84,0,27
1,note_on,83,45,0
1,note_on,83,0,27
1,note_on,81,44,0
1,note_on,81,0,26
1,note_on,79,43,0
1,note_on,79,0,27
1,note_on,77,42,0
1,note_on,77,0,27
1,note_on,76,41,0
1,note_on,76,0,26
1,note_on,74,40,1
1,note_on,74,0,26
1,note_on,72,40,0
1,note_on,72,0,27
1,note_on,71,39,0
1,note_on,71,0,26
1,note_on,69,38,1
1,note_on,69,0,26
1,note_on,67,37,0
1,note_on,67,0,27
1,note_on,65,36,0
1,note_on,65,0,27
1,note_on,64,36,0
1,note_on,64,0,26
1,note_on,62,56,1
1,note_on,62,0,25
1,note_on,60,57,455
1,note_on,62,46,42
1,note_on,62,0,41
1,note_on,64,47,0
1,note_on,64,0,42
1,note_on,65,47,0
1,note_on,65,0,41
1,note_on,67,48,0
1,note_on,67,0,42
1,note_on,69,49,0
1,note_on,69,0,41
1,note_on,71,50,0
1,note_on,71,0,42
1,note_on,72,51,0
1,note_on,60,0,41
1,note_on,72,0,0
1,note_on,74,51,0
1,note_on,76,52,41
1,note_on,74,0,1
1,note_on,76,0,41
1,note_on,77,53,0
1,note_on,77,0,41
1,note_on,79,54,0
1,note_on,79,0,42
1,note_on,81,55,0
1,note_on,81,0,41
1,note_on,83,56,0
1,note_on,83,0,42
1,note_on,84,56,0
1,note_on,84,0,41
1,note_on,86,57,0
1,note_on,86,0,42
1,note_on,88,58,0
1,note_on,88,0,41
1,note_on,89,59,0
1,note_on,89,0,42
1,note_on,91,60,0
1,note_on,91,0,41
1,note_on,93,61,0
1,note_on,93,0,42
1,note_on,95,61,0
1,note_on,95,0,41
1,note_on,96,62,0
1,note_on,96,0,42
1,note_on,98,63,0
1,note_on,98,0,41
1,note_on,100,74,0
1,note_on,100,0,42
1,note_on,70,64,444
1,note_on,60,54,0
1,note_on,64,54,0
1,note_on,64,0,240
1,note_on,60,0,0
1,note_on,70,0,0
1,note_on,64,62,240
1,note_on,71,73,0
1,note_on,59,62,0
1,note_on,59,0,240
1,note_on,71,0,0
1,note_on,64,0,0
1,note_on,60,44,0
1,note_on,60,0,36
1,note_on,62,45,1
1,note_on,62,0,36
1,note_on,64,46,0
1,note_on,64,0,36
1,note_on,65,47,0
1,note_on,65,0,36
1,note_on,67,48,0
1,note_on,67,0,36
1,note_on,69,50,0
1,note_on,69,0,36
1,note_on,71,51,0
1,note_on,71,0,36
1,note_on,72,52,1
1,note_on,72,0,36
1,note_on,74,53,0
1,note_on,74,0,36
1,note_on,76,54,0
1,note_on,76,0,36
1,note_on,77,56,0
1,note_on,77,0,36
1,note_on,79,57,0
1,note_on,79,0,36
1,note_on,81,58,0
1,note_on,81,0,36
1,note_on,83,59,1
1,note_on,83,0,36
1,note_on,84,60,0
1,note_on,84,0,36
1,note_on,86,61,0
1,note_on,86,0,36
1,note_on,88,63,0
1,note_on,88,0,36
1,note_on,89,64,0
1,note_on,89,0,36
1,note_on,91,65,0
1,note_on,91,0,36
1,note_on,93,66,1
1,note_on,95,81,35
1,note_on,93,0,1
1,note_on,95,0,35
1,note_on,59,56,441
1,note_on,63,56,0
1,note_on,71,67,3
1,note_on,63,0,237
1,note_on,59,0,0
1,note_on,71,0,3
1,note_on,71,76,237
1,note_on,59,64,0
1,note_on,64,64,0
1,note_on,64,0,240
1,note_on,59,0,0
1,note_on,71,0,0
1,note_on,60,48,0
1,note_on,60,0,36
1,note_on,62,50,1
1,note_on,62,0,36
1,note_on,64,51,0
1,note_on,64,0,36
1,note_on,65,52,0
1,note_on,65,0,36
1,note_on,67,53,0
1,note_on,67,0,36
1,note_on,69,55,0
1,note_on,69,0,36
1,note_on,71,56,0
1,note_on,71,0,36
1,note_on,72,57,1
1,note_on,72,0,36
1,note_on,74,59,0
1,note_on,74,0,36
1,note_on,76,60,0
1,note_on,76,0,36
1,note_on,77,61,0
1,note_on,77,0,36
1,note_on,79,62,0
1,note_on,79,0,36
1,note_on,81,64,0
1,note_on,81,0,36
1,note_on,83,65,1
1,note_on,83,0,36
1,note_on,84,66,0
1,note_on,84,0,36
1,note_on,86,67,0
1,note_on,86,0,36
1,note_on,88,69,0
1,note_on,88,0,36
1,note_on,89,70,0
1,note_on,89,0,36
1,note_on,91,71,0
1,note_on,91,0,36
1,note_on,93,73,1
1,note_on,95,85,35
1,note_on,93,0,1
1,note_on,95,0,35
1,note_on,83,73,441
1,note_on,78,73,0
1,note_on,71,62,0
1,note_on,75,62,0
1,note_on,75,0,240
1,note_on,83,0,0
1,note_on,78,0,0
1,note_on,71,0,0
1,note_on,83,83,240
1,note_on,76,70,0
1,note_on,71,70,0
1,note_on,80,83,0
1,note_on,80,0,240
1,note_on,83,0,0
1,note_on,76,0,0
1,note_on,71,0,0
1,note_on,72,60,254
1,note_on,72,0,36
1,note_on,74,61,0
1,note_on,74,0,36
1,note_on,76,63,0
1,note_on,76,0,36
1,note_on,77,64,0
1,note_on,77,0,36
1,note_on,79,65,0
1,note_on,79,0,36
1,note_on,81,67,0
1,note_on,81,0,36
1,note_on,83,68,1
1,note_on,83,0,36
1,note_on,84,69,0
1,note_on,84,0,36
1,note_on,86,71,0
1,note_on,86,0,36
1,note_on,88,72,0
1,note_on,88,0,36
1,note_on,89,73,0
1,note_on,89,0,36
1,note_on,91,75,0
1,note_on,91,0,36
1,note_on,93,76,1
1,note_on,95,93,35
1,note_on,93,0,1
1,note_on,95,0,35
1,note_on,83,83,441
1,note_on,78,83,0
1,note_on,71,71,0
1,note_on,75,71,0
1,note_on,75,0,240
1,note_on,83,0,0
1,note_on,78,0,0
1,note_on,71,0,0
1,note_on,83,91,240
1,note_on,76,77,0
1,note_on,71,77,0
1,note_on,80,91,0
1,note_on,80,0,240
1,note_on,83,0,0
1,note_on,76,0,0
1,note_on,71,0,0
1,note_on,72,63,254
1,note_on,72,0,36
1,note_on,74,65,0
1,note_on,74,0,36
1,note_on,76,67,0
1,note_on,76,0,36
1,note_on,77,69,0
1,note_on,77,0,36
1,note_on,79,70,0
1,note_on,79,0,36
1,note_on,81,72,0
1,note_on,81,0,36
1,note_on,83,74,1
1,note_on,83,0,36
1,note_on,84,76,0
1,note_on,84,0,36
1,note_on,86,77,0
1,note_on,86,0,36
1,note_on,88,79,0
1,note_on,88,0,36
1,note_on,89,81,0
1,note_on,89,0,36
1,note_on,91,82,0
1,note_on,91,0,36
1,note_on,93,84,1
1,note_on,95,102,35
1,note_on,93,0,1
1,note_on,95,0,35
1,note_on,78,83,441
1,note_on,75,71,0
1,note_on,71,71,0
1,note_on,83,83,0
1,note_on,83,0,240
1,note_on,78,0,0
1,note_on,75,0,0
1,note_on,71,0,0
1,note_on,88,92,240
1,note_on,76,81,0
1,note_on,76,0,60
1,note_on,88,0,0
1,note_on,78,69,60
1,note_on,90,79,0
1,note_on,90,0,60
1,note_on,78,0,0
1,note_on,80,69,60
1,note_on,92,79,0
1,note_on,92,0,60
1,note_on,80,0,0
1,note_on,81,69,60
1,note_on,93,79,0
1,note_on,93,0,60
1,note_on,81,0,0
1,note_on,83,77,60
1,note_on,95,88,0
1,note_on,95,0,60
1,note_on,83,0,0
1,note_on,82,64,60
1,note_on,94,73,0
1,note_on,94,0,60
1,note_on,82,0,0
1,note_on,95,73,60
1,note_on,83,64,0
1,note_on,83,0,60
1,note_on,95,0,0
1,note_on,86,64,60
1,note_on,98,73,0
1,note_on,98,0,60
1,note_on,86,0,0
1,note_on,98,89,60
1,note_on,86,78,0
1,note_on,86,0,120
1,note_on,98,0,0
1,note_on,97,88,120
1,note_on,85,77,0
1,note_on,85,0,480
1,note_on,97,0,0
1,note_on,83,69,0
1,note_on,95,79,0
1,note_on,95,0,360
1,note_on,83,0,0
1,note_on,88,79,0
1,note_on,76,69,0
1,note_on,76,0,60
1,note_on,88,0,0
1,note_on,78,69,60
1,note_on,90,79,0
1,note_on,90,0,60
1,note_on,78,0,0
1,note_on,80,69,60
1,note_on,92,79,0
1,note_on,92,0,60
1,note_on,80,0,0
1,note_on,81,77,60
1,note_on,93,88,0
1,note_on,93,0,60
1,note_on,81,0,0
1,note_on,92,73,60
1,note_on,80,64,0
1,note_on,80,0,60
1,note_on,92,0,0
1,note_on,93,73,60
1,note_on,81,64,0
1,note_on,81,0,60
1,note_on,93,0,0
1,note_on,84,64,60
1,note_on,96,73,0
1,note_on,96,0,60
1,note_on,84,0,0
1,note_on,95,89,60
1,note_on,83,78,0
1,note_on,83,0,120
1,note_on,95,0,0
1,note_on,81,77,120
1,note_on,93,88,0
1,note_on,93,0,480
1,note_on,81,0,0
1,note_on,81,69,0
1,note_on,93,79,0
1,note_on,93,0,240
1,note_on,81,0,0
1,note_on,71,81,0
1,note_on,83,92,0
1,note_on,83,0,60
1,note_on,71,0,0
1,note_on,72,69,60
1,note_on,84,79,0
1,note_on,84,0,60
1,note_on,72,0,0
1,note_on,87,79,60
1,note_on,75,69,0
1,note_on,75,0,60
1,note_on,87,0,0
1,note_on,76,69,60
1,note_on,88,79,0
1,note_on,88,0,60
1,note_on,76,0,0
1,note_on,91,88,60
1,note_on,79,77,0
1,note_on,79,0,60
1,note_on,91,0,0
1,note_on,90,73,60
1,note_on,78,64,0
1,note_on,78,0,60
1,note_on,90,0,0
1,note_on,79,64,60
1,note_on,91,73,0
1,note_on,91,0,60
1,note_on,79,0,0
1,note_on,93,73,60
1,note_on,81,64,0
1,note_on,81,0,60
1,note_on,93,0,0
1,note_on,79,78,60
1,note_on,91,89,0
1,note_on,91,0,120
1,note_on,79,0,0
1,note_on,78,77,120
1,note_on,90,88,0
1,note_on,90,0,480
1,note_on,78,0,0
1,note_on,78,69,0
1,note_on,90,79,0
1,note_on,90,0,240
1,note_on,78,0,0
1,note_on,71,81,0
1,note_on,83,92,0
1,note_on,83,0,60
1,note_on,71,0,0
1,note_on,72,69,60
1,note_on,84,79,0
1,note_on,84,0,60
1,note_on,72,0,0
1,note_on,87,79,60
1,note_on,75,69,0
1,note_on,75,0,60
1,note_on,87,0,0
1,note_on,76,69,60
1,note_on,88,79,0
1,note_on,88,0,60
1,note_on,76,0,0
1,note_on,90,88,60
1,note_on,78,77,0
1,note_on,78,0,60
1,note_on,90,0,0
1,note_on,88,73,60
1,note_on,76,55,0
1,note_on,76,0,60
1,note_on,88,0,0
1,note_on,79,72,60
1,note_on,91,85,0
1,note_on,91,0,60
1,note_on,79,0,0
1,note_on,90,79,60
1,note_on,78,67,0
1,note_on,78,0,60
1,note_on,90,0,0
1,note_on,88,91,60
1,note_on,76,77,0
1,note_on,76,0,60
1,note_on,88,0,0
1,note_on,75,64,60
1,note_on,87,78,0
1,note_on,87,0,60
1,note_on,75,0,0
1,note_on,91,85,60
1,note_on,79,72,0
1,note_on,79,0,60
1,note_on,91,0,0
1,note_on,90,78,60
1,note_on,78,64,0
1,note_on,78,0,60
1,note_on,90,0,0
1,note_on,88,83,60
1,note_on,76,71,0
1,note_on,76,0,60
1,note_on,88,0,0
1,note_on,64,81,1320
1,note_on,76,92,0
1,note_on,76,0,40
1,note_on,64,0,0
1,note_on,64,81,20
1,note_on,76,92,0
1,note_on,76,0,60
1,note_on,64,0,0
1,note_on,66,69,60
1,note_on,78,79,0
1,note_on,78,0,60
1,note_on,66,0,0
1,note_on,68,69,60
1,note_on,80,79,0
1,note_on,80,0,60
1,note_on,68,0,0
1,note_on,69,69,60
1,note_on,81,79,0
1,note_on,81,0,60
1,note_on,69,0,0
1,note_on,71,77,60
1,note_on,83,88,0
1,note_on,83,0,60
1,note_on,71,0,0
1,note_on,70,64,60
1,note_on,82,73,0
1,note_on,82,0,60
1,note_on,70,0,0
1,note_on,71,64,60
1,note_on,83,73,0
1,note_on,83,0,60
1,note_on,71,0,0
1,note_on,74,64,60
1,note_on,86,73,0
1,note_on,86,0,60
1,note_on,74,0,0
1,note_on,80,78,60
1,note_on,83,78,0
1,note_on,74,78,0
1,note_on,86,89,0
1,note_on,86,0,120
1,note_on,80,0,0
1,note_on,83,0,0
1,note_on,74,0,0
1,note_on,81,77,120
1,note_on,72,77,0
1,note_on,84,88,0
1,note_on,84,0,480
1,note_on,72,0,0
1,note_on,81,0,0
1,note_on,72,69,0
1,note_on,76,69,0
1,note_on,81,79,0
1,note_on,69,69,0
1,note_on,69,0,240
1,note_on,72,0,0
1,note_on,76,0,0
1,note_on,81,0,0
1,note_on,76,79,120
1,note_on,64,69,0
1,note_on,64,0,60
1,note_on,76,0,0
1,note_on,66,69,60
1,note_on,78,79,0
1,note_on,78,0,60
1,note_on,66,0,0
1,note_on,80,79,60
1,note_on,68,69,0
1,note_on,68,0,60
1,note_on,80,0,0
1,note_on,69,77,60
1,note_on,81,88,0
1,note_on,81,0,60
1,note_on,69,0,0
1,note_on,68,64,60
1,note_on,80,73,0
1,note_on,80,0,60
1,note_on,68,0,0
1,note_on,81,73,60
1,note_on,69,64,0
1,note_on,69,0,60
1,note_on,81,0,0
1,note_on,84,73,60
1,note_on,72,64,0
1,note_on,72,0,60
1,note_on,84,0,0
1,note_on,84,89,60
1,note_on,72,78,0
1,note_on,72,0,120
1,note_on,84,0,0
1,note_on,79,77,120
1,note_on,76,77,0
1,note_on,83,88,0
1,note_on,71,77,0
1,note_on,71,0,480
1,note_on,79,0,0
1,note_on,76,0,0
1,note_on,83,0,0
1,note_on,71,69,0
1,note_on,76,69,0
1,note_on,67,69,0
1,note_on,79,79,0
1,note_on,79,0,240
1,note_on,71,0,0
1,note_on,76,0,0
1,note_on,67,0,0
1,note_on,58,81,0
1,note_on,70,92,0
1,note_on,70,0,60
1,note_on,58,0,0
1,note_on,61,69,60
1,note_on,73,79,0
1,note_on,73,0,60
1,note_on,61,0,0
1,note_on,64,69,60
1,note_on,76,79,0
1,note_on,76,0,60
1,note_on,64,0,0
1,note_on,77,79,60
1,note_on,65,69,0
1,note_on,65,0,60
1,note_on,77,0,0
1,note_on,66,77,60
1,note_on,78,88,0
1,note_on,78,0,60
1,note_on,66,0,0
1,note_on,77,73,60
1,note_on,65,64,0
1,note_on,65,0,60
1,note_on,77,0,0
1,note_on,78,73,60
1,note_on,66,64,0
1,note_on,66,0,60
1,note_on,78,0,0
1,note_on,64,64,60
1,note_on,76,73,0
1,note_on,76,0,60
1,note_on,64,0,0
1,note_on,75,51,60
1,note_on,63,51,0
1,note_on,63,0,90
1,note_on,75,0,0
1,note_on,64,52,30
1,note_on,76,52,0
1,note_on,76,0,90
1,note_on,64,0,0
1,note_on,66,54,30
1,note_on,78,54,0
1,note_on,78,0,90
1,note_on,66,0,0
1,note_on,68,55,30
1,note_on,80,55,0
1,note_on,80,0,90
1,note_on,68,0,0
1,note_on,81,57,30
1,note_on,69,57,0
1,note_on,69,0,90
1,note_on,81,0,0
1,note_on,82,58,30
1,note_on,70,58,0
1,note_on,70,0,90
1,note_on,82,0,0
1,note_on,71,60,30
1,note_on,83,60,0
1,note_on,83,0,90
1,note_on,71,0,0
1,note_on,84,61,30
1,note_on,72,61,0
1,note_on,72,0,90
1,note_on,84,0,0
1,note_on,73,63,30
1,note_on,85,63,0
1,note_on,85,0,90
1,note_on,73,0,0
1,note_on,74,64,30
1,note_on,86,64,0
1,note_on,86,0,90
1,note_on,74,0,0
1,note_on,75,66,30
1,note_on,87,66,0
1,note_on,87,0,90
1,note_on,75,0,0
1,note_on,76,67,30
1,note_on,88,67,0
1,note_on,88,0,90
1,note_on,76,0,0
1,note_on,89,72,30
1,note_on,77,72,0
1,note_on,77,0,90
1,note_on,89,0,0
1,note_on,78,70,30
1,note_on,90,70,0
1,note_on,90,0,90
1,note_on,78,0,0
1,note_on,91,71,30
1,note_on,79,71,0
1,note_on,79,0,90
1,note_on,91,0,0
1,note_on,92,74,30
1,note_on,80,74,0
1,note_on,80,0,90
1,note_on,92,0,0
1,note_on,93,77,30
1,note_on,81,65,0
1,note_on,81,0,240
1,note_on,93,0,0
1,note_on,85,57,0
1,note_on,97,68,0
1,note_on,97,0,120
1,note_on,85,0,0
1,note_on,85,76,120
1,note_on,73,64,0
1,note_on,73,0,240
1,note_on,85,0,0
1,note_on,87,70,0
1,note_on,75,59,0
1,note_on,75,0,120
1,note_on,87,0,0
1,note_on,88,68,120
1,note_on,76,57,0
1,note_on,76,0,60
1,note_on,88,0,0
1,note_on,90,70,60
1,note_on,78,59,0
1,note_on,78,0,60
1,note_on,90,0,0
1,note_on,92,72,60
1,note_on,80,61,0
1,note_on,80,0,60
1,note_on,92,0,0
1,note_on,81,62,60
1,note_on,93,74,0
1,note_on,93,0,60
1,note_on,81,0,0
1,note_on,95,76,60
1,note_on,83,64,0
1,note_on,83,0,120
1,note_on,95,0,0
1,note_on,85,61,120
1,note_on,97,72,0
1,note_on,97,0,120
1,note_on,85,0,0
1,note_on,93,77,120
1,note_on,81,65,0
1,note_on,81,0,240
1,note_on,93,0,0
1,note_on,85,57,0
1,note_on,97,68,0
1,note_on,97,0,120
1,note_on,85,0,0
1,note_on,85,76,120
1,note_on,73,64,0
1,note_on,73,0,240
1,note_on,85,0,0
1,note_on,87,70,0
1,note_on,75,59,0
1,note_on,75,0,120
1,note_on,87,0,0
1,note_on,76,57,120
1,note_on,88,68,0
1,note_on,88,0,60
1,note_on,76,0,0
1,note_on,78,59,60
1,note_on,90,70,0
1,note_on,90,0,60
1,note_on,78,0,0
1,note_on,80,61,60
1,note_on,92,72,0
1,note_on,92,0,60
1,note_on,80,0,0
1,note_on,93,74,60
1,note_on,81,62,0
1,note_on,81,0,60
1,note_on,93,0,0
1,note_on,83,64,60
1,note_on,95,76,0
1,note_on,95,0,120
1,note_on,83,0,0
1,note_on,97,72,120
1,note_on,85,61,0
1,note_on,85,0,120
1,note_on,97,0,0
1,note_on,98,77,120
1,note_on,86,65,0
1,note_on,86,0,240
1,note_on,98,0,0
1,note_on,102,68,0
1,note_on,90,57,0
1,note_on,90,0,120
1,note_on,102,0,0
1,note_on,90,76,120
1,note_on,78,64,0
1,note_on,78,0,240
1,note_on,90,0,0
1,note_on,92,70,0
1,note_on,80,59,0
1,note_on,80,0,120
1,note_on,92,0,0
1,note_on,81,57,120
1,note_on,93,68,0
1,note_on,93,0,60
1,note_on,81,0,0
1,note_on,95,70,60
1,note_on,83,59,0
1,note_on,83,0,60
1,note_on,95,0,0
1,note_on,85,61,60
1,note_on,97,72,0
1,note_on,97,0,60
1,note_on,85,0,0
1,note_on,87,62,60
1,note_on,99,74,0
1,note_on,99,0,60
1,note_on,87,0,0
1,note_on,100,76,60
1,note_on,88,64,0
1,note_on,88,0,120
1,note_on,100,0,0
1,note_on,90,61,120
1,note_on,102,72,0
1,note_on,102,0,120
1,note_on,90,0,0
1,note_on,95,68,120
1,note_on,83,57,0
1,note_on,83,0,60
1,note_on,95,0,0
1,note_on,97,70,60
1,note_on,85,59,0
1,note_on,85,0,60
1,note_on,97,0,0
1,note_on,99,72,60
1,note_on,87,61,0
1,note_on,87,0,60
1,note_on,99,0,0
1,note_on,88,62,60
1,note_on,100,74,0
1,note_on,100,0,60
1,note_on,88,0,0
1,note_on,90,64,60
1,note_on,102,76,0
1,note_on,102,0,120
1,note_on,90,0,0
1,note_on,104,72,120
1,note_on,92,61,0
1,note_on,92,0,120
1,note_on,104,0,0
1,note_on,88,63,120
1,note_on,100,75,0
1,note_on,100,0,120
1,note_on,88,0,0
1,note_on,95,73,120
1,note_on,87,62,0
1,note_on,90,62,0
1,note_on,83,62,0
1,note_on,83,0,120
1,note_on,95,0,0
1,note_on,87,0,0
1,note_on,90,0,0
1,note_on,100,77,120
1,note_on,92,65,0
1,note_on,95,65,0
1,note_on,88,65,0
1,note_on,88,0,120
1,note_on,100,0,0
1,note_on,92,0,0
1,note_on,95,0,0
1,note_on,78,76,120
1,note_on,66,66,0
1,note_on,66,0,120
1,note_on,78,0,0
1,note_on,80,71,0
1,note_on,68,63,0
1,note_on,68,0,120
1,note_on,80,0,0
1,note_on,69,71,0
1,note_on,81,84,0
1,note_on,81,0,240
1,note_on,69,0,0
1,note_on,73,62,0
1,note_on,85,74,0
1,note_on,85,0,120
1,note_on,73,0,0
1,note_on,61,70,120
1,note_on,73,83,0
1,note_on,73,0,240
1,note_on,61,0,0
1,note_on,63,64,0
1,note_on,75,77,0
1,note_on,75,0,120
1,note_on,63,0,0
1,note_on,76,74,120
1,note_on,64,62,0
1,note_on,64,0,60
1,note_on,76,0,0
1,note_on,78,77,60
1,note_on,66,64,0
1,note_on,66,0,60
1,note_on,78,0,0
1,note_on,68,67,60
1,note_on,80,79,0
1,note_on,80,0,60
1,note_on,68,0,0
1,note_on,81,81,60
1,note_on,69,68,0
1,note_on,69,0,60
1,note_on,81,0,0
1,note_on,83,83,60
1,note_on,71,70,0
1,note_on,71,0,120
1,note_on,83,0,0
1,note_on,73,67,120
1,note_on,85,79,0
1,note_on,85,0,120
1,note_on,73,0,0
1,note_on,69,71,120
1,note_on,81,84,0
1,note_on,81,0,240
1,note_on,69,0,0
1,note_on,73,62,0
1,note_on,85,74,0
1,note_on,85,0,120
1,note_on,73,0,0
1,note_on,61,70,120
1,note_on,73,83,0
1,note_on,73,0,240
1,note_on,61,0,0
1,note_on,63,64,0
1,note_on,75,77,0
1,note_on,75,0,120
1,note_on,63,0,0
1,note_on,64,62,120
1,note_on,76,74,0
1,note_on,76,0,60
1,note_on,64,0,0
1,note_on,78,77,60
1,note_on,66,64,0
1,note_on,66,0,60
1,note_on,78,0,0
1,note_on,68,67,60
1,note_on,80,79,0
1,note_on,80,0,60
1,note_on,68,0,0
1,note_on,81,81,60
1,note_on,69,68,0
1,note_on,69,0,60
1,note_on,81,0,0
1,note_on,83,83,60
1,note_on,71,70,0
1,note_on,71,0,120
1,note_on,83,0,0
1,note_on,85,79,120
1,note_on,73,67,0
1,note_on,73,0,120
1,note_on,85,0,0
1,note_on,86,84,120
1,note_on,74,71,0
1,note_on,74,0,240
1,note_on,86,0,0
1,note_on,78,62,0
1,note_on,90,74,0
1,note_on,90,0,120
1,note_on,78,0,0
1,note_on,78,83,120
1,note_on,66,70,0
1,note_on,66,0,240
1,note_on,78,0,0
1,note_on,68,64,0
1,note_on,80,77,0
1,note_on,80,0,120
1,note_on,68,0,0
1,note_on,69,62,120
1,note_on,81,74,0
1,note_on,81,0,60
1,note_on,69,0,0
1,note_on,83,77,60
1,note_on,71,64,0
1,note_on,71,0,60
1,note_on,83,0,0
1,note_on,73,67,60
1,note_on,85,79,0
1,note_on,85,0,60
1,note_on,73,0,0
1,note_on,87,81,60
1,note_on,75,68,0
1,note_on,75,0,60
1,note_on,87,0,0
1,note_on,88,83,60
1,note_on,76,70,0
1,note_on,76,0,120
1,note_on,88,0,0
1,note_on,90,79,120
1,note_on,78,67,0
1,note_on,78,0,120
1,note_on,90,0,0
1,note_on,83,72,120
1,note_on,71,61,0
1,note_on,71,0,120
1,note_on,83,0,0
1,note_on,85,74,0
1,note_on,73,62,0
1,note_on,73,0,120
1,note_on,85,0,0
1,note_on,75,64,0
1,note_on,87,76,0
1,note_on,87,0,120
1,note_on,75,0,0
1,note_on,88,77,0
1,note_on,76,65,0
1,note_on,76,0,120
1,note_on,88,0,0
1,note_on,78,67,0
1,note_on,90,79,0
1,note_on,90,0,120
1,note_on,78,0,0
1,note_on,92,81,0
1,note_on,80,68,0
1,note_on,80,0,120
1,note_on,92,0,0
1,note_on,81,70,0
1,note_on,93,83,0
1,note_on,93,0,120
1,note_on,81,0,0
1,note_on,94,84,0
1,note_on,82,71,0
1,note_on,82,0,120
1,note_on,94,0,0
1,note_on,95,84,0
1,note_on,83,71,0
1,note_on,83,0,120
1,note_on,95,0,0
1,note_on,84,75,120
1,note_on,96,89,0
1,note_on,87,75,0
1,note_on,87,0,120
1,note_on,96,0,0
1,note_on,84,0,0
1,note_on,88,79,120
1,note_on,85,79,0
1,note_on,97,94,0
1,note_on,97,0,120
1,note_on,85,0,0
1,note_on,88,0,0
1,note_on,99,99,120
1,note_on,87,84,0
1,note_on,90,84,0
1,note_on,90,0,120
1,note_on,87,0,0
1,note_on,99,0,0
1,note_on,92,88,120
1,note_on,100,104,0
1,note_on,88,88,0
1,note_on,88,0,120
1,note_on,100,0,0
1,note_on,92,0,0
1,note_on,101,103,360
1,note_on,89,87,0
1,note_on,93,87,0
1,note_on,96,87,0
1,note_on,96,0,120
1,note_on,101,0,0
1,note_on,89,0,0
1,note_on,93,0,0
1,note_on,83,65,780
1,note_on,87,65,0
1,note_on,90,65,0
1,note_on,95,77,0
1,note_on,95,0,54
1,note_on,83,0,0
1,note_on,87,0,0
1,note_on,90,0,0
1,note_on,87,82,6
1,note_on,95,97,0
1,note_on,90,82,0
1,note_on,83,82,0
1,note_on,83,0,120
1,note_on,87,0,0
1,note_on,95,0,0
1,note_on,90,0,0
1,note_on,83,65,300
1,note_on,88,77,0
1,note_on,76,65,0
1,note_on,80,65,0
1,note_on,80,0,54
1,note_on,83,0,0
1,note_on,88,0,0
1,note_on,76,0,0
1,note_on,76,82,6
1,note_on,80,82,0
1,note_on,88,97,0
1,note_on,83,82,0
1,note_on,83,0,120
1,note_on,76,0,0
1,note_on,80,0,0
1,note_on,88,0,0
1,note_on,77,65,300
1,note_on,81,65,0
1,note_on,84,65,0
1,note_on,89,77,0
1,note_on,89,0,54
1,note_on,77,0,0
1,note_on,81,0,0
1,note_on,84,0,0
1,note_on,89,97,6
1,note_on,84,82,0
1,note_on,77,82,0
1,note_on,81,82,0
1,note_on,81,0,120
1,note_on,89,0,0
1,note_on,84,0,0
1,note_on,77,0,0
1,note_on,75,65,300
1,note_on,71,65,0
1,note_on,78,65,0
1,note_on,83,77,0
1,note_on,83,0,54
1,note_on,75,0,0
1,note_on,71,0,0
1,note_on,78,0,0
1,note_on,75,82,6
1,note_on,78,82,0
1,note_on,71,82,0
1,note_on,83,97,0
1,note_on,83,0,120
1,note_on,75,0,0
1,note_on,78,0,0
1,note_on,71,0,0
1,note_on,71,65,300
1,note_on,68,65,0
1,note_on,64,65,0
1,note_on,76,77,0
1,note_on,76,0,54
1,note_on,71,0,0
1,note_on,68,0,0
1,note_on,64,0,0
1,note_on,64,82,6
1,note_on,76,97,0
1,note_on,68,82,0
1,note_on,71,82,0
1,note_on,71,0,120
1,note_on,64,0,0
1,note_on,76,0,0
1,note_on,68,0,0
1,note_on,65,58,300
1,note_on,69,58,0
1,note_on,77,69,0
1,note_on,72,58,0
1,note_on,72,0,54
1,note_on,65,0,0
1,note_on,69,0,0
1,note_on,77,0,0
1,note_on,69,74,6
1,note_on,77,87,0
1,note_on,72,74,0
1,note_on,65,74,0
1,note_on,65,0,120
1,note_on,69,0,0
1,note_on,77,0,0
1,note_on,72,0,0
1,note_on,66,58,300
1,note_on,71,69,0
1,note_on,63,58,0
1,note_on,59,58,0
1,note_on,59,0,54
1,note_on,66,0,0
1,note_on,71,0,0
1,note_on,63,0,0
1,note_on,59,74,6
1,note_on,71,87,0
1,note_on,66,74,0
1,note_on,63,74,0
1,note_on,63,0,120
1,note_on,59,0,0
1,note_on,71,0,0
1,note_on,66,0,0
1,note_on,52,58,300
1,note_on,56,58,0
1,note_on,59,58,0
1,note_on,64,69,0
1,note_on,64,0,54
1,note_on,52,0,0
1,note_on,56,0,0
1,note_on,59,0,0
1,note_on,56,74,6
1,note_on,64,87,0
1,note_on,59,74,0
1,note_on,52,74,0
1,note_on,52,0,120
1,note_on,56,0,0
1,note_on,64,0,0
1,note_on,59,0,0
1,note_on,76,97,367
1,note_on,71,82,0
1,note_on,64,82,0
1,note_on,68,82,0
1,note_on,68,0,120
1,note_on,76,0,0
1,note_on,71,0,0
1,note_on,64,0,0
1,note_on,80,90,353
1,note_on,83,90,0
1,note_on,76,90,0
1,note_on,88,107,0
1,note_on,88,0,120
1,note_on,80,0,0
1,note_on,83,0,0
1,note_on,76,0,0
1,note_on,100,107,360
1,note_on,88,90,0
1,note_on,95,90,0
1,note_on,92,90,0
1,note_on,92,0,1440
1,note_on,100,0,0
1,note_on,88,0,0
1,note_on,95,0,0
2,note_on,35,61,0
2,note_on,35,0,90
2,note_on,35,73,30
2,note_on,35,0,360
2,note_on,37,38,0
2,note_on,37,0,60
2,note_on,39,39,0
2,note_on,39,0,60
2,note_on,40,40,0
2,note_on,40,0,60
2,note_on,42,41,0
2,note_on,42,0,60
2,note_on,44,42,0
2,note_on,44,0,60
2,note_on,45,43,0
2,note_on,45,0,60
2,note_on,47,44,0
2,note_on,47,0,60
2,note_on,49,45,0
2,note_on,49,0,60
2,note_on,51,45,0
2,note_on,51,0,60
2,note_on,52,46,0
2,note_on,52,0,60
2,note_on,54,46,0
2,note_on,54,0,60
2,note_on,56,48,0
2,note_on,56,0,60
2,note_on,57,49,0
2,note_on,57,0,60
2,note_on,59,50,0
2,note_on,59,0,60
2,note_on,61,50,0
2,note_on,61,0,60
2,note_on,63,51,0
2,note_on,63,0,60
2,note_on,64,53,0
2,note_on,64,0,60
2,note_on,66,54,0
2,note_on,66,0,60
2,note_on,68,54,0
2,note_on,68,0,60
2,note_on,69,54,0
2,note_on,69,0,60
2,note_on,71,55,0
2,note_on,71,0,60
2,note_on,73,57,0
2,note_on,73,0,60
2,note_on,75,57,0
2,note_on,75,0,60
2,note_on,76,58,0
2,note_on,76,0,60
2,note_on,78,59,0
2,note_on,78,0,60
2,note_on,80,60,0
2,note_on,80,0,60
2,note_on,81,61,0
2,note_on,81,0,60
2,note_on,83,78,0
2,note_on,83,0,180
2,note_on,40,61,0
2,note_on,35,51,0
2,note_on,35,0,90
2,note_on,40,0,0
2,note_on,40,73,30
2,note_on,35,61,0
2,note_on,35,0,360
2,note_on,40,0,0
2,note_on,42,38,0
2,note_on,42,0,60
2,note_on,44,40,0
2,note_on,44,0,60
2,note_on,45,40,0
2,note_on,45,0,60
2,note_on,47,41,0
2,note_on,47,0,60
2,note_on,49,42,0
2,note_on,49,0,60
2,note_on,51,43,0
2,note_on,51,0,60
2,note_on,52,44,0
2,note_on,52,0,60
2,note_on,54,44,0
2,note_on,54,0,60
2,note_on,56,45,0
2,note_on,56,0,60
2,note_on,57,46,0
2,note_on,57,0,60
2,note_on,59,47,0
2,note_on,59,0,60
2,note_on,61,48,0
2,note_on,61,0,60
2,note_on,63,49,0
2,note_on,63,0,60
2,note_on,64,50,0
2,note_on,64,0,60
2,note_on,66,50,0
2,note_on,66,0,60
2,note_on,68,51,0
2,note_on,68,0,60
2,note_on,69,52,0
2,note_on,69,0,60
2,note_on,71,53,0
2,note_on,71,0,60
2,note_on,73,54,0
2,note_on,73,0,60
2,note_on,75,55,0
2,note_on,75,0,60
2,note_on,76,56,0
2,note_on,76,0,60
2,note_on,78,57,0
2,note_on,78,0,60
2,note_on,80,57,0
2,note_on,80,0,60
2,note_on,81,58,0
2,note_on,81,0,60
2,note_on,83,59,0
2,note_on,83,0,60
2,note_on,85,60,0
2,note_on,85,0,60
2,note_on,87,61,0
2,note_on,87,0,60
2,note_on,88,78,0
2,note_on,88,0,180
2,note_on,45,61,120
2,note_on,35,51,0
2,note_on,35,0,90
2,note_on,45,0,0
2,note_on,45,73,30
2,note_on,35,61,0
2,note_on,35,0,360
2,note_on,45,0,0
2,note_on,47,39,0
2,note_on,47,0,60
2,note_on,49,40,0
2,note_on,49,0,60
2,note_on,51,41,0
2,note_on,51,0,60
2,note_on,52,42,0
2,note_on,52,0,60
2,note_on,54,43,0
2,note_on,54,0,60
2,note_on,56,44,0
2,note_on,56,0,60
2,note_on,57,46,0
2,note_on,57,0,60
2,note_on,59,47,0
2,note_on,59,0,60
2,note_on,61,48,0
2,note_on,61,0,60
2,note_on,63,49,0
2,note_on,63,0,60
2,note_on,64,50,0
2,note_on,64,0,60
2,note_on,63,51,0
2,note_on,63,0,60
2,note_on,61,52,0
2,note_on,61,0,60
2,note_on,59,53,0
2,note_on,59,0,60
2,note_on,57,54,0
2,note_on,57,0,60
2,note_on,56,55,0
2,note_on,56,0,60
2,note_on,54,56,0
2,note_on,54,0,60
2,note_on,52,58,0
2,note_on,52,0,60
2,note_on,51,59,0
2,note_on,51,0,60
2,note_on,49,60,0
2,note_on,49,0,60
2,note_on,47,61,0
2,note_on,47,0,60
2,note_on,45,62,0
2,note_on,45,0,60
2,note_on,44,63,0
2,note_on,44,0,60
2,note_on,42,64,0
2,note_on,42,0,60
2,note_on,40,65,0
2,note_on,40,0,60
2,note_on,39,66,0
2,note_on,39,0,60
2,note_on,37,67,0
2,note_on,37,0,60
2,note_on,35,83,0
2,note_on,35,0,420
2,note_on,47,54,290
2,note_on,52,56,10
2,note_on,54,57,10
2,note_on,61,59,10
2,note_on,61,0,210
2,note_on,47,0,0
2,note_on,52,0,0
2,note_on,54,0,0
2,note_on,47,57,0
2,note_on,52,59,10
2,note_on,54,61,10
2,note_on,60,62,10
2,note_on,60,0,260
2,note_on,47,0,0
2,note_on,52,0,0
2,note_on,54,0,0
2,note_on,35,59,0
2,note_on,42,67,10
2,note_on,51,76,10
2,note_on,51,0,100
2,note_on,42,0,0
2,note_on,35,0,0
2,note_on,47,66,0
2,note_on,54,70,10
2,note_on,63,73,10
2,note_on,63,0,100
2,note_on,54,0,0
2,note_on,47,0,0
2,note_on,59,69,0
2,note_on,66,75,10
2,note_on,75,82,10
2,note_on,75,0,120
2,note_on,66,0,0
2,note_on,59,0,0
2,note_on,40,71,570
2,note_on,47,71,15
2,note_on,56,77,15
2,note_on,56,0,240
2,note_on,57,59,0
2,note_on,57,0,60
2,note_on,59,61,60
2,note_on,59,0,120
2,note_on,47,0,0
2,note_on,40,0,0
2,note_on,61,62,0
2,note_on,61,0,60
2,note_on,63,64,60
2,note_on,63,0,60
2,note_on,64,65,60
2,note_on,64,0,60
2,note_on,66,67,60
2,note_on,66,0,60
2,note_on,68,68,60
2,note_on,68,0,120
2,note_on,47,64,120
2,note_on,35,54,0
2,note_on,35,0,60
2,note_on,47,0,0
2,note_on,48,59,60
2,note_on,36,50,0
2,note_on,36,0,60
2,note_on,48,0,0
2,note_on,49,64,60
2,note_on,37,54,0
2,note_on,37,0,90
2,note_on,49,0,0
2,note_on,51,61,150
2,note_on,39,52,0
2,note_on,39,0,90
2,note_on,51,0,0
2,note_on,40,54,90
2,note_on,47,54,30
2,note_on,56,64,30
2,note_on,56,0,240
2,note_on,47,0,0
2,note_on,40,0,0
2,note_on,59,59,240
2,note_on,47,50,0
2,note_on,54,50,0
2,note_on,57,50,0
2,note_on,57,0,90
2,note_on,59,0,0
2,note_on,47,0,0
2,note_on,54,0,0
2,note_on,59,59,390
2,note_on,52,50,0
2,note_on,56,50,0
2,note_on,56,0,240
2,note_on,52,0,0
2,note_on,59,0,0
2,note_on,52,52,600
2,note_on,56,56,0
2,note_on,56,0,120
2,note_on,52,0,0
2,note_on,45,63,0
2,note_on,52,71,0
2,note_on,57,77,0
2,note_on,57,0,240
2,note_on,59,59,0
2,note_on,59,0,60
2,note_on,61,61,60
2,note_on,61,0,120
2,note_on,63,62,0
2,note_on,63,0,60
2,note_on,64,64,60
2,note_on,64,0,60
2,note_on,66,65,60
2,note_on,66,0,60
2,note_on,68,67,60
2,note_on,68,0,60
2,note_on,52,0,60
2,note_on,45,0,0
2,note_on,69,68,0
2,note_on,69,0,120
2,note_on,42,64,120
2,note_on,30,54,0
2,note_on,30,0,60
2,note_on,42,0,0
2,note_on,44,59,60
2,note_on,32,50,0
2,note_on,32,0,60
2,note_on,44,0,0
2,note_on,45,64,60
2,note_on,33,54,0
2,note_on,33,0,90
2,note_on,45,0,0
2,note_on,46,61,150
2,note_on,34,52,0
2,note_on,34,0,90
2,note_on,46,0,0
2,note_on,35,54,150
2,note_on,47,64,0
2,note_on,47,0,240
2,note_on,35,0,0
2,note_on,59,59,240
2,note_on,47,50,0
2,note_on,56,50,0
2,note_on,56,0,90
2,note_on,47,0,0
2,note_on,59,0,0
2,note_on,63,59,390
2,note_on,47,50,0
2,note_on,54,50,0
2,note_on,54,0,240
2,note_on,47,0,0
2,note_on,63,0,0
2,note_on,52,49,720
2,note_on,40,41,0
2,note_on,68,41,480
2,note_on,56,34,0
2,note_on,59,34,0
2,note_on,64,34,0
2,note_on,64,0,480
2,note_on,40,0,0
2,note_on,68,0,0
2,note_on,52,0,0
2,note_on,59,0,0
2,note_on,56,0,0
2,note_on,51,49,0
2,note_on,39,41,0
2,note_on,68,42,480
2,note_on,56,35,0
2,note_on,60,35,0
2,note_on,66,35,0
2,note_on,66,0,480
2,note_on,39,0,0
2,note_on,68,0,0
2,note_on,51,0,0
2,note_on,60,0,0
2,note_on,56,0,0
2,note_on,49,49,0
2,note_on,37,41,0
2,note_on,68,43,480
2,note_on,56,36,0
2,note_on,61,36,0
2,note_on,64,36,0
2,note_on,64,0,480
2,note_on,37,0,0
2,note_on,68,0,0
2,note_on,49,0,0
2,note_on,61,0,0
2,note_on,56,0,0
2,note_on,48,48,0
2,note_on,36,40,0
2,note_on,69,44,480
2,note_on,57,37,0
2,note_on,60,37,0
2,note_on,64,37,0
2,note_on,64,0,480
2,note_on,36,0,0
2,note_on,69,0,0
2,note_on,48,0,0
2,note_on,60,0,0
2,note_on,57,0,0
2,note_on,47,49,0
2,note_on,35,41,0
2,note_on,71,43,480
2,note_on,59,36,0
2,note_on,64,36,0
2,note_on,68,36,0
2,note_on,68,0,480
2,note_on,35,0,0
2,note_on,71,0,0
2,note_on,47,0,0
2,note_on,64,0,0
2,note_on,59,0,0
2,note_on,47,48,0
2,note_on,35,40,0
2,note_on,69,44,480
2,note_on,59,37,0
2,note_on,66,37,0
2,note_on,66,0,480
2,note_on,69,0,0
2,note_on,47,0,0
2,note_on,35,0,0
2,note_on,59,0,0
2,note_on,52,45,0
2,note_on,52,0,120
2,note_on,68,39,120
2,note_on,64,33,0
2,note_on,59,33,0
2,note_on,59,0,120
2,note_on,64,0,0
2,note_on,68,0,0
2,note_on,47,46,120
2,note_on,47,0,90
2,note_on,71,40,150
2,note_on,66,34,0
2,note_on,57,34,0
2,note_on,57,0,90
2,note_on,66,0,0
2,note_on,71,0,0
2,note_on,40,47,150
2,note_on,40,0,240
2,note_on,56,49,120
2,note_on,64,52,60
2,note_on,71,55,60
2,note_on,71,0,120
2,note_on,64,0,0
2,note_on,56,0,0
2,note_on,40,67,240
2,note_on,47,67,0
2,note_on,47,0,90
2,note_on,40,0,0
2,note_on,47,71,30
2,note_on,40,71,0
2,note_on,40,0,240
2,note_on,47,0,0
2,note_on,66,79,360
2,note_on,63,67,0
2,note_on,63,0,60
2,note_on,66,0,0
2,note_on,68,82,60
2,note_on,64,70,0
2,note_on,64,0,60
2,note_on,68,0,0
2,note_on,69,86,60
2,note_on,66,72,0
2,note_on,66,0,60
2,note_on,69,0,0
2,note_on,71,89,60
2,note_on,68,75,0
2,note_on,68,0,120
2,note_on,71,0,0
2,note_on,69,79,240
2,note_on,66,67,0
2,note_on,66,0,60
2,note_on,69,0,0
2,note_on,68,86,60
2,note_on,64,72,0
2,note_on,64,0,120
2,note_on,68,0,0
2,note_on,66,74,120
2,note_on,59,63,0
2,note_on,59,0,120
2,note_on,66,0,0
2,note_on,66,82,120
2,note_on,59,70,0
2,note_on,59,0,240
2,note_on,66,0,0
2,note_on,64,76,0
2,note_on,56,65,0
2,note_on,56,0,180
2,note_on,64,0,0
2,note_on,66,75,0
2,note_on,66,0,60
2,note_on,64,85,0
2,note_on,56,71,0
2,note_on,56,0,120
2,note_on,64,0,0
2,note_on,63,73,120
2,note_on,54,61,0
2,note_on,54,0,120
2,note_on,63,0,0
2,note_on,64,77,120
2,note_on,56,65,0
2,note_on,56,0,240
2,note_on,64,0,0
2,note_on,52,67,600
2,note_on,52,0,90
2,note_on,52,71,30
2,note_on,45,71,0
2,note_on,45,0,240
2,note_on,52,0,0
2,note_on,68,79,360
2,note_on,64,67,0
2,note_on,64,0,60
2,note_on,68,0,0
2,note_on,69,82,60
2,note_on,66,70,0
2,note_on,66,0,60
2,note_on,69,0,0
2,note_on,71,86,60
2,note_on,68,72,0
2,note_on,68,0,60
2,note_on,71,0,0
2,note_on,73,89,60
2,note_on,69,75,0
2,note_on,69,0,120
2,note_on,73,0,0
2,note_on,71,79,240
2,note_on,68,67,0
2,note_on,68,0,60
2,note_on,71,0,0
2,note_on,57,72,60
2,note_on,69,86,0
2,note_on,66,72,0
2,note_on,66,0,120
2,note_on,69,0,0
2,note_on,57,0,0
2,note_on,58,63,120
2,note_on,68,74,0
2,note_on,64,63,0
2,note_on,64,0,120
2,note_on,68,0,0
2,note_on,58,0,0
2,note_on,59,70,120
2,note_on,68,82,0
2,note_on,64,70,0
2,note_on,64,0,240
2,note_on,68,0,0
2,note_on,59,0,0
2,note_on,66,76,0
2,note_on,63,65,0
2,note_on,63,0,180
2,note_on,66,0,0
2,note_on,64,75,0
2,note_on,68,75,0
2,note_on,68,0,60
2,note_on,64,0,0
2,note_on,66,85,0
2,note_on,63,71,0
2,note_on,63,0,120
2,note_on,66,0,0
2,note_on,65,73,120
2,note_on,62,61,0
2,note_on,62,0,120
2,note_on,65,0,0
2,note_on,66,77,120
2,note_on,63,65,0
2,note_on,63,0,240
2,note_on,66,0,0
2,note_on,52,44,720
2,note_on,40,36,0
2,note_on,56,28,360
2,note_on,64,34,0
2,note_on,64,0,120
2,note_on,52,0,0
2,note_on,40,0,0
2,note_on,56,0,0
2,note_on,68,36,0
2,note_on,59,30,0
2,note_on,59,0,120
2,note_on,68,0,0
2,note_on,51,44,360
2,note_on,39,36,0
2,note_on,56,28,360
2,note_on,66,34,0
2,note_on,66,0,120
2,note_on,51,0,0
2,note_on,39,0,0
2,note_on,56,0,0
2,note_on,68,37,0
2,note_on,60,31,0
2,note_on,60,0,120
2,note_on,68,0,0
2,note_on,49,44,360
2,note_on,37,36,0
2,note_on,56,28,360
2,note_on,64,34,0
2,note_on,64,0,120
2,note_on,49,0,0
2,note_on,37,0,0
2,note_on,56,0,0
2,note_on,68,38,0
2,note_on,61,32,0
2,note_on,61,0,120
2,note_on,68,0,0
2,note_on,48,43,360
2,note_on,36,36,0
2,note_on,57,28,360
2,note_on,64,34,0
2,note_on,64,0,120
2,note_on,48,0,0
2,note_on,36,0,0
2,note_on,57,0,0
2,note_on,69,39,0
2,note_on,60,33,0
2,note_on,60,0,120
2,note_on,69,0,0
2,note_on,47,44,360
2,note_on,35,36,0
2,note_on,35,0,120
2,note_on,47,0,0
2,note_on,64,45,240
2,note_on,56,37,0
2,note_on,56,0,120
2,note_on,64,0,0
2,note_on,59,39,0
2,note_on,66,45,0
2,note_on,66,0,90
2,note_on,59,0,0
2,note_on,68,48,150
2,note_on,64,40,0
2,note_on,64,0,90
2,note_on,68,0,0
2,note_on,66,42,150
2,note_on,69,50,0
2,note_on,69,0,120
2,note_on,66,0,0
2,note_on,59,45,240
2,note_on,51,37,0
2,note_on,51,0,120
2,note_on,59,0,0
2,note_on,47,35,0
2,note_on,61,45,0
2,note_on,52,39,0
2,note_on,52,0,90
2,note_on,61,0,0
2,note_on,63,48,150
2,note_on,54,40,0
2,note_on,54,0,90
2,note_on,63,0,0
2,note_on,52,29,130
2,note_on,56,29,10
2,note_on,47,0,10
2,note_on,66,41,0
2,note_on,59,35,0
2,note_on,66,0,240
2,note_on,64,36,0
2,note_on,47,29,220
2,note_on,54,29,10
2,note_on,64,0,10
2,note_on,52,0,0
2,note_on,59,0,0
2,note_on,56,0,0
2,note_on,64,42,0
2,note_on,57,35,0
2,note_on,57,0,120
2,note_on,47,0,0
2,note_on,54,0,0
2,note_on,64,0,0
2,note_on,63,34,120
2,note_on,63,0,120
2,note_on,64,43,120
2,note_on,56,36,0
2,note_on,52,30,0
2,note_on,52,0,240
2,note_on,56,0,0
2,note_on,64,0,0
2,note_on,40,44,720
2,note_on,40,0,240
2,note_on,61,35,0
2,note_on,54,30,0
2,note_on,54,0,240
2,note_on,61,0,0
2,note_on,66,35,0
2,note_on,58,30,0
2,note_on,58,0,240
2,note_on,66,0,0
2,note_on,61,36,0
2,note_on,54,31,0
2,note_on,54,0,240
2,note_on,61,0,0
2,note_on,39,45,0
2,note_on,39,0,240
2,note_on,63,34,0
2,note_on,54,29,0
2,note_on,54,0,240
2,note_on,63,0,0
2,note_on,66,35,0
2,note_on,59,29,0
2,note_on,59,0,240
2,note_on,66,0,0
2,note_on,63,36,0
2,note_on,54,30,0
2,note_on,54,0,240
2,note_on,63,0,0
2,note_on,37,56,0
2,note_on,37,0,240
2,note_on,64,39,0
2,note_on,54,33,0
2,note_on,54,0,240
2,note_on,64,0,0
2,note_on,66,39,0
2,note_on,58,33,0
2,note_on,58,0,240
2,note_on,66,0,0
2,note_on,64,39,0
2,note_on,54,33,0
2,note_on,54,0,240
2,note_on,64,0,0
2,note_on,35,53,0
2,note_on,35,0,240
2,note_on,63,36,0
2,note_on,54,30,0
2,note_on,54,0,240
2,note_on,63,0,0
2,note_on,66,37,0
2,note_on,59,30,0
2,note_on,59,0,240
2,note_on,66,0,0
2,note_on,63,38,0
2,note_on,54,32,0
2,note_on,54,0,180
2,note_on,63,0,0
2,note_on,42,56,0
2,note_on,61,44,60
2,note_on,61,0,120
2,note_on,63,43,120
2,note_on,63,0,120
2,note_on,42,0,120
2,note_on,65,46,0
2,note_on,65,0,120
2,note_on,66,49,120
2,note_on,66,0,120
2,note_on,49,49,60
2,note_on,65,50,60
2,note_on,65,0,120
2,note_on,68,44,120
2,note_on,68,0,120
2,note_on,49,0,120
2,note_on,71,52,0
2,note_on,71,0,120
2,note_on,61,46,120
2,note_on,61,0,120
2,note_on,61,48,120
2,note_on,54,48,0
2,note_on,61,0,240
2,note_on,61,32,0
2,note_on,61,0,60
2,note_on,62,32,60
2,note_on,62,0,60
2,note_on,54,0,60
2,note_on,61,32,0
2,note_on,54,39,0
2,note_on,61,0,240
2,note_on,61,32,0
2,note_on,61,0,60
2,note_on,62,32,60
2,note_on,62,0,60
2,note_on,54,0,60
2,note_on,61,39,0
2,note_on,54,34,0
2,note_on,54,0,240
2,note_on,61,0,0
2,note_on,42,48,900
2,note_on,56,52,60
2,note_on,56,0,120
2,note_on,42,0,0
2,note_on,72,46,240
2,note_on,81,50,0
2,note_on,81,0,120
2,note_on,72,0,0
2,note_on,75,46,0
2,note_on,80,46,0
2,note_on,80,0,240
2,note_on,75,0,0
2,note_on,40,46,180
2,note_on,56,50,60
2,note_on,56,0,120
2,note_on,40,0,0
2,note_on,76,46,240
2,note_on,85,50,0
2,note_on,85,0,120
2,note_on,76,0,0
2,note_on,73,45,0
2,note_on,80,45,0
2,note_on,80,0,240
2,note_on,73,0,0
2,note_on,69,61,240
2,note_on,69,0,240
2,note_on,68,65,0
2,note_on,60,52,0
2,note_on,63,52,0
2,note_on,68,0,240
2,note_on,66,62,0
2,note_on,66,0,240
2,note_on,63,0,0
2,note_on,60,0,0
2,note_on,64,66,0
2,note_on,61,52,0
2,note_on,64,0,240
2,note_on,63,62,0
2,note_on,63,0,240
2,note_on,61,0,0
2,note_on,64,62,0
2,note_on,60,52,0
2,note_on,64,0,240
2,note_on,66,62,0
2,note_on,66,0,210
2,note_on,59,55,0
2,note_on,64,55,15
2,note_on,60,0,15
2,note_on,68,69,0
2,note_on,68,0,240
2,note_on,64,0,0
2,note_on,59,0,0
2,note_on,63,46,0
2,note_on,63,0,240
2,note_on,62,47,0
2,note_on,62,0,240
2,note_on,61,49,0
2,note_on,61,0,240
2,note_on,56,51,0
2,note_on,59,51,0
2,note_on,59,0,240
2,note_on,56,0,0
2,note_on,58,52,0
2,note_on,55,44,0
2,note_on,55,0,240
2,note_on,54,54,0
2,note_on,54,0,240
2,note_on,58,0,0
2,note_on,57,56,0
2,note_on,47,47,0
2,note_on,54,47,0
2,note_on,54,0,240
2,note_on,47,0,0
2,note_on,57,0,0
2,note_on,56,58,0
2,note_on,52,49,0
2,note_on,56,0,120
2,note_on,59,52,120
2,note_on,59,0,120
2,note_on,52,0,120
2,note_on,54,53,0
2,note_on,47,44,0
2,note_on,54,0,120
2,note_on,57,50,120
2,note_on,57,0,120
2,note_on,40,47,60
2,note_on,56,56,15
2,note_on,47,0,45
2,note_on,56,0,240
2,note_on,40,0,0
2,note_on,40,49,960
2,note_on,40,0,240
2,note_on,68,39,0
2,note_on,61,33,0
2,note_on,61,0,240
2,note_on,68,0,0
2,note_on,66,39,0
2,note_on,58,33,0
2,note_on,58,0,240
2,note_on,66,0,0
2,note_on,61,39,0
2,note_on,54,33,0
2,note_on,54,0,240
2,note_on,61,0,0
2,note_on,39,48,0
2,note_on,39,0,240
2,note_on,68,36,0
2,note_on,63,30,0
2,note_on,63,0,240
2,note_on,68,0,0
2,note_on,66,36,0
2,note_on,59,30,0
2,note_on,59,0,240
2,note_on,66,0,0
2,note_on,63,36,0
2,note_on,54,30,0
2,note_on,54,0,240
2,note_on,63,0,0
2,note_on,37,56,0
2,note_on,37,0,240
2,note_on,68,39,0
2,note_on,64,33,0
2,note_on,64,0,240
2,note_on,68,0,0
2,note_on,66,39,0
2,note_on,58,33,0
2,note_on,58,0,240
2,note_on,66,0,0
2,note_on,64,39,0
2,note_on,54,33,0
2,note_on,54,0,240
2,note_on,64,0,0
2,note_on,35,53,0
2,note_on,35,0,240
2,note_on,68,36,0
2,note_on,63,30,0
2,note_on,63,0,240
2,note_on,68,0,0
2,note_on,66,37,0
2,note_on,59,30,0
2,note_on,59,0,240
2,note_on,66,0,0
2,note_on,54,33,0
2,note_on,63,38,0
2,note_on,63,0,240
2,note_on,54,0,0
2,note_on,42,56,0
2,note_on,42,0,120
2,note_on,61,44,0
2,note_on,61,0,120
2,note_on,63,43,120
2,note_on,63,0,120
2,note_on,65,46,120
2,note_on,65,0,120
2,note_on,66,49,120
2,note_on,66,0,120
2,note_on,49,50,0
2,note_on,49,0,120
2,note_on,65,50,0
2,note_on,65,0,120
2,note_on,68,44,120
2,note_on,68,0,120
2,note_on,71,52,120
2,note_on,71,0,120
2,note_on,61,46,120
2,note_on,61,0,120
2,note_on,66,48,0
2,note_on,66,0,120
2,note_on,42,50,1800
2,note_on,42,0,240
2,note_on,69,57,180
2,note_on,63,48,0
2,note_on,63,0,60
2,note_on,69,0,0
2,note_on,68,61,0
2,note_on,60,51,0
2,note_on,60,0,240
2,note_on,68,0,0
2,note_on,40,52,240
2,note_on,64,48,420
2,note_on,73,57,0
2,note_on,73,0,60
2,note_on,64,0,0
2,note_on,40,0,0
2,note_on,61,51,0
2,note_on,68,61,0
2,note_on,68,0,240
2,note_on,61,0,0
2,note_on,39,52,240
2,note_on,39,0,240
2,note_on,66,55,0
2,note_on,75,61,0
2,note_on,75,0,240
2,note_on,66,0,0
2,note_on,60,52,0
2,note_on,68,65,0
2,note_on,68,0,240
2,note_on,56,52,0
2,note_on,66,62,0
2,note_on,60,0,9
2,note_on,66,0,231
2,note_on,56,0,0
2,note_on,64,66,0
2,note_on,49,52,0
2,note_on,64,0,240
2,note_on,63,62,0
2,note_on,63,0,240
2,note_on,49,0,0
2,note_on,64,62,0
2,note_on,48,52,0
2,note_on,64,0,240
2,note_on,66,62,0
2,note_on,66,0,240
2,note_on,48,0,0
2,note_on,68,69,0
2,note_on,47,55,0
2,note_on,47,0,240
2,note_on,68,0,0
2,note_on,75,57,0
2,note_on,78,57,0
2,note_on,78,0,240
2,note_on,75,0,0
2,note_on,74,60,0
2,note_on,80,60,0
2,note_on,80,0,240
2,note_on,74,0,0
2,note_on,73,62,0
2,note_on,76,62,0
2,note_on,81,62,0
2,note_on,81,0,210
2,note_on,76,0,0
2,note_on,73,0,0
2,note_on,71,58,0
2,note_on,76,61,10
2,note_on,80,66,10
2,note_on,83,63,10
2,note_on,83,0,210
2,note_on,71,0,0
2,note_on,76,0,0
2,note_on,80,0,0
2,note_on,70,63,0
2,note_on,76,65,10
2,note_on,79,68,10
2,note_on,84,70,10
2,note_on,84,0,210
2,note_on,70,0,0
2,note_on,76,0,0
2,note_on,79,0,0
2,note_on,70,63,0
2,note_on,76,65,10
2,note_on,79,67,10
2,note_on,85,69,10
2,note_on,85,0,210
2,note_on,70,0,0
2,note_on,76,0,0
2,note_on,79,0,0
2,note_on,71,64,0
2,note_on,78,66,10
2,note_on,81,69,10
2,note_on,87,71,10
2,note_on,87,0,240
2,note_on,71,0,0
2,note_on,78,0,0
2,note_on,81,0,0
2,note_on,80,69,0
2,note_on,76,58,0
2,note_on,80,0,240
2,note_on,83,63,0
2,note_on,83,0,240
2,note_on,76,0,0
2,note_on,81,68,0
2,note_on,71,57,0
2,note_on,78,57,0
2,note_on,81,0,120
2,note_on,83,60,120
2,note_on,83,0,120
2,note_on,78,0,120
2,note_on,71,0,0
2,note_on,80,68,0
2,note_on,76,57,0
2,note_on,80,0,240
2,note_on,83,60,0
2,note_on,83,0,240
2,note_on,76,0,0
2,note_on,81,67,0
2,note_on,71,56,0
2,note_on,78,56,0
2,note_on,81,0,120
2,note_on,83,61,120
2,note_on,83,0,120
2,note_on,78,0,120
2,note_on,71,0,0
2,note_on,80,65,0
2,note_on,76,55,0
2,note_on,80,0,120
2,note_on,83,57,120
2,note_on,83,0,120
2,note_on,76,0,120
2,note_on,81,60,0
2,note_on,71,51,0
2,note_on,78,51,0
2,note_on,81,0,120
2,note_on,83,52,120
2,note_on,83,0,120
2,note_on,78,0,120
2,note_on,71,0,0
2,note_on,80,57,0
2,note_on,76,48,0
2,note_on,80,0,120
2,note_on,83,49,120
2,note_on,83,0,120
2,note_on,76,0,120
2,note_on,81,53,0
2,note_on,71,44,0
2,note_on,78,44,0
2,note_on,81,0,120
2,note_on,83,47,120
2,note_on,83,0,120
2,note_on,78,0,120
2,note_on,71,0,0
2,note_on,66,60,2400
2,note_on,64,60,60
2,note_on,66,0,12
2,note_on,59,60,48
2,note_on,64,0,12
2,note_on,58,61,48
2,note_on,59,0,12
2,note_on,61,61,48
2,note_on,58,0,12
2,note_on,59,61,48
2,note_on,61,0,12
2,note_on,56,62,48
2,note_on,59,0,12
2,note_on,55,62,48
2,note_on,56,0,12
2,note_on,57,62,48
2,note_on,55,0,12
2,note_on,57,0,48
2,note_on,56,63,0
2,note_on,56,0,60
2,note_on,52,66,0
2,note_on,52,0,60
2,note_on,51,64,0
2,note_on,51,0,60
2,note_on,54,62,0
2,note_on,54,0,60
2,note_on,52,60,0
2,note_on,52,0,60
2,note_on,47,58,0
2,note_on,47,0,60
2,note_on,46,56,0
2,note_on,46,0,60
2,note_on,49,54,0
2,note_on,49,0,60
2,note_on,47,52,0
2,note_on,47,0,60
2,note_on,44,50,0
2,note_on,44,0,60
2,note_on,39,49,0
2,note_on,39,0,60
2,note_on,40,44,0
2,note_on,40,0,67
2,note_on,47,46,0
2,note_on,47,0,67
2,note_on,52,49,1
2,note_on,52,0,67
2,note_on,56,51,0
2,note_on,56,0,67
2,note_on,56,42,1210
2,note_on,56,0,67
2,note_on,52,42,0
2,note_on,52,0,67
2,note_on,47,42,0
2,note_on,47,0,67
2,note_on,40,72,0
2,note_on,40,0,60
2,note_on,42,43,60
2,note_on,42,0,60
2,note_on,44,43,60
2,note_on,44,0,60
2,note_on,45,43,60
2,note_on,45,0,60
2,note_on,49,44,0
2,note_on,49,0,60
2,note_on,47,47,0
2,note_on,47,0,60
2,note_on,46,40,60
2,note_on,46,0,60
2,note_on,47,40,60
2,note_on,47,0,60
2,note_on,50,40,60
2,note_on,50,0,60
2,note_on,50,48,60
2,note_on,50,0,90
2,note_on,48,47,150
2,note_on,48,0,480
2,note_on,47,43,0
2,note_on,47,0,240
2,note_on,40,43,120
2,note_on,40,0,60
2,note_on,42,43,60
2,note_on,42,0,60
2,note_on,44,43,60
2,note_on,44,0,60
2,note_on,47,44,0
2,note_on,47,0,60
2,note_on,45,50,0
2,note_on,45,0,60
2,note_on,44,40,60
2,note_on,44,0,60
2,note_on,45,40,60
2,note_on,45,0,60
2,note_on,48,40,60
2,note_on,48,0,60
2,note_on,47,48,60
2,note_on,47,0,90
2,note_on,45,47,150
2,note_on,45,0,480
2,note_on,45,43,0
2,note_on,45,0,240
2,note_on,35,54,0
2,note_on,35,0,60
2,note_on,36,44,60
2,note_on,36,0,60
2,note_on,39,44,60
2,note_on,39,0,60
2,note_on,40,45,60
2,note_on,40,0,60
2,note_on,45,46,0
2,note_on,45,0,60
2,note_on,43,54,0
2,note_on,43,0,60
2,note_on,42,43,60
2,note_on,42,0,60
2,note_on,43,43,60
2,note_on,43,0,60
2,note_on,45,43,60
2,note_on,45,0,60
2,note_on,43,51,60
2,note_on,43,0,90
2,note_on,42,49,150
2,note_on,42,0,480
2,note_on,42,46,0
2,note_on,42,0,240
2,note_on,35,49,0
2,note_on,35,0,60
2,note_on,37,43,60
2,note_on,37,0,60
2,note_on,39,43,60
2,note_on,39,0,60
2,note_on,40,43,60
2,note_on,40,0,60
2,note_on,43,44,0
2,note_on,43,0,60
2,note_on,42,50,0
2,note_on,42,0,60
2,note_on,40,40,60
2,note_on,40,0,60
2,note_on,42,40,60
2,note_on,42,0,60
2,note_on,47,40,60
2,note_on,47,0,60
2,note_on,40,43,1020
2,note_on,52,43,0
2,note_on,52,0,120
2,note_on,40,0,0
2,note_on,64,33,120
2,note_on,62,33,0
2,note_on,62,0,120
2,note_on,64,0,0
2,note_on,56,40,120
2,note_on,56,0,120
2,note_on,64,32,120
2,note_on,62,32,0
2,note_on,62,0,120
2,note_on,64,0,0
2,note_on,52,43,120
2,note_on,52,0,120
2,note_on,64,34,120
2,note_on,62,34,0
2,note_on,62,0,120
2,note_on,64,0,0
2,note_on,56,43,120
2,note_on,56,0,120
2,note_on,64,36,120
2,note_on,62,36,0
2,note_on,62,0,120
2,note_on,64,0,0
2,note_on,45,43,120
2,note_on,45,0,120
2,note_on,64,33,120
2,note_on,60,33,0
2,note_on,60,0,120
2,note_on,64,0,0
2,note_on,57,40,120
2,note_on,57,0,120
2,note_on,64,32,120
2,note_on,60,32,0
2,note_on,60,0,120
2,note_on,64,0,0
2,note_on,52,43,120
2,note_on,52,0,120
2,note_on,64,34,120
2,note_on,60,34,0
2,note_on,60,0,120
2,note_on,64,0,0
2,note_on,57,43,120
2,note_on,57,0,120
2,note_on,64,36,120
2,note_on,60,36,0
2,note_on,60,0,120
2,note_on,64,0,0
2,note_on,47,43,120
2,note_on,47,0,120
2,note_on,64,33,120
2,note_on,59,33,0
2,note_on,59,0,120
2,note_on,64,0,0
2,note_on,55,40,120
2,note_on,55,0,120
2,note_on,64,32,120
2,note_on,59,32,0
2,note_on,59,0,120
2,note_on,64,0,0
2,note_on,49,43,120
2,note_on,49,0,120
2,note_on,64,34,120
2,note_on,58,34,0
2,note_on,58,0,120
2,note_on,64,0,0
2,note_on,48,43,120
2,note_on,48,0,120
2,note_on,64,36,120
2,note_on,58,36,0
2,note_on,58,0,120
2,note_on,64,0,0
2,note_on,47,43,120
2,note_on,47,0,120
2,note_on,63,33,120
2,note_on,59,33,0
2,note_on,59,0,120
2,note_on,63,0,0
2,note_on,57,40,120
2,note_on,57,0,120
2,note_on,63,32,120
2,note_on,59,32,0
2,note_on,59,0,120
2,note_on,63,0,0
2,note_on,52,33,120
2,note_on,55,34,0
2,note_on,64,40,0
2,note_on,64,0,120
2,note_on,55,0,0
2,note_on,52,0,0
2,note_on,63,32,120
2,note_on,69,32,0
2,note_on,59,32,0
2,note_on,59,0,120
2,note_on,69,0,0
2,note_on,63,0,0
2,note_on,64,32,120
2,note_on,67,32,0
2,note_on,67,0,120
2,note_on,64,0,0
2,note_on,40,43,360
2,note_on,40,0,120
2,note_on,62,33,120
2,note_on,56,33,0
2,note_on,56,0,120
2,note_on,62,0,0
2,note_on,52,40,120
2,note_on,52,0,120
2,note_on,62,32,120
2,note_on,56,32,0
2,note_on,56,0,120
2,note_on,62,0,0
2,note_on,62,48,360
2,note_on,64,48,0
2,note_on,68,48,0
2,note_on,73,58,0
2,note_on,73,0,480
2,note_on,62,0,0
2,note_on,64,0,0
2,note_on,68,0,0
2,note_on,62,44,0
2,note_on,64,44,0
2,note_on,68,44,0
2,note_on,71,50,0
2,note_on,71,0,240
2,note_on,62,0,0
2,note_on,64,0,0
2,note_on,68,0,0
2,note_on,45,43,0
2,note_on,45,0,120
2,note_on,60,33,120
2,note_on,57,33,0
2,note_on,57,0,120
2,note_on,60,0,0
2,note_on,52,40,120
2,note_on,52,0,120
2,note_on,60,32,120
2,note_on,57,32,0
2,note_on,57,0,120
2,note_on,60,0,0
2,note_on,60,48,360
2,note_on,64,48,0
2,note_on,69,59,0
2,note_on,69,0,480
2,note_on,64,0,0
2,note_on,60,0,0
2,note_on,60,44,0
2,note_on,64,44,0
2,note_on,69,50,0
2,note_on,69,0,240
2,note_on,64,0,0
2,note_on,60,0,0
2,note_on,47,43,0
2,note_on,47,0,120
2,note_on,59,33,120
2,note_on,55,33,0
2,note_on,55,0,120
2,note_on,59,0,0
2,note_on,52,40,120
2,note_on,52,0,120
2,note_on,59,32,120
2,note_on,55,32,0
2,note_on,55,0,120
2,note_on,59,0,0
2,note_on,49,43,120
2,note_on,49,0,120
2,note_on,58,48,120
2,note_on,64,48,0
2,note_on,66,58,0
2,note_on,48,43,240
2,note_on,48,0,120
2,note_on,58,0,120
2,note_on,64,0,0
2,note_on,66,0,0
2,note_on,58,44,0
2,note_on,64,44,0
2,note_on,66,50,0
2,note_on,66,0,240
2,note_on,64,0,0
2,note_on,58,0,0
2,note_on,47,43,0
2,note_on,47,0,120
2,note_on,54,33,120
2,note_on,63,33,0
2,note_on,57,33,0
2,note_on,57,0,120
2,note_on,63,0,0
2,note_on,54,0,0
2,note_on,47,40,120
2,note_on,47,0,120
2,note_on,54,32,120
2,note_on,63,32,0
2,note_on,57,32,0
2,note_on,57,0,120
2,note_on,63,0,0
2,note_on,54,0,0
2,note_on,52,33,120
2,note_on,55,34,0
2,note_on,64,40,0
2,note_on,64,0,120
2,note_on,55,0,0
2,note_on,52,0,0
2,note_on,63,32,120
2,note_on,69,32,0
2,note_on,59,32,0
2,note_on,59,0,120
2,note_on,69,0,0
2,note_on,63,0,0
2,note_on,64,32,120
2,note_on,67,32,0
2,note_on,67,0,120
2,note_on,64,0,0
2,note_on,57,43,360
2,note_on,69,33,120
2,note_on,69,0,60
2,note_on,57,0,60
2,note_on,64,38,0
2,note_on,64,0,60
2,note_on,69,33,60
2,note_on,69,0,60
2,note_on,52,44,60
2,note_on,68,33,120
2,note_on,68,0,60
2,note_on,52,0,60
2,note_on,64,37,0
2,note_on,64,0,60
2,note_on,68,33,60
2,note_on,68,0,60
2,note_on,57,43,60
2,note_on,69,33,120
2,note_on,69,0,60
2,note_on,57,0,60
2,note_on,64,38,0
2,note_on,64,0,60
2,note_on,69,33,60
2,note_on,69,0,60
2,note_on,57,44,60
2,note_on,69,33,120
2,note_on,69,0,60
2,note_on,57,0,60
2,note_on,64,37,0
2,note_on,64,0,60
2,note_on,69,33,60
2,note_on,69,0,60
2,note_on,55,43,60
2,note_on,67,33,120
2,note_on,67,0,60
2,note_on,55,0,60
2,note_on,64,38,0
2,note_on,60,32,0
2,note_on,60,0,60
2,note_on,64,0,0
2,note_on,67,33,60
2,note_on,67,0,60
2,note_on,55,44,60
2,note_on,67,33,120
2,note_on,67,0,60
2,note_on,55,0,60
2,note_on,65,37,0
2,note_on,59,31,0
2,note_on,59,0,60
2,note_on,65,0,0
2,note_on,67,33,60
2,note_on,67,0,60
2,note_on,60,43,60
2,note_on,67,33,120
2,note_on,67,0,60
2,note_on,60,0,60
2,note_on,64,38,0
2,note_on,64,0,60
2,note_on,67,33,60
2,note_on,67,0,60
2,note_on,60,44,60
2,note_on,67,33,120
2,note_on,67,0,60
2,note_on,60,0,60
2,note_on,64,37,0
2,note_on,64,0,60
2,note_on,67,33,60
2,note_on,67,0,60
2,note_on,60,43,60
2,note_on,70,33,120
2,note_on,70,0,60
2,note_on,60,0,60
2,note_on,64,38,0
2,note_on,67,38,0
2,note_on,67,0,60
2,note_on,64,0,0
2,note_on,70,33,60
2,note_on,70,0,60
2,note_on,60,44,60
2,note_on,70,33,120
2,note_on,70,0,60
2,note_on,60,0,60
2,note_on,64,37,0
2,note_on,67,37,0
2,note_on,67,0,60
2,note_on,64,0,0
2,note_on,70,33,60
2,note_on,70,0,60
2,note_on,57,43,60
2,note_on,69,33,120
2,note_on,69,0,60
2,note_on,57,0,60
2,note_on,60,30,0
2,note_on,65,38,0
2,note_on,65,0,60
2,note_on,60,0,0
2,note_on,69,33,60
2,note_on,69,0,60
2,note_on,57,44,60
2,note_on,57,0,60
2,note_on,69,33,60
2,note_on,69,0,60
2,note_on,65,37,60
2,note_on,65,0,60
2,note_on,69,33,60
2,note_on,69,0,60
2,note_on,59,43,60
2,note_on,67,33,120
2,note_on,67,0,60
2,note_on,59,0,60
2,note_on,64,38,0
2,note_on,64,0,60
2,note_on,67,33,60
2,note_on,67,0,60
2,note_on,59,44,60
2,note_on,69,33,120
2,note_on,69,0,60
2,note_on,59,0,60
2,note_on,66,37,0
2,note_on,63,31,0
2,note_on,63,0,60
2,note_on,66,0,0
2,note_on,69,33,60
2,note_on,69,0,60
2,note_on,64,43,60
2,note_on,67,33,120
2,note_on,67,0,60
2,note_on,64,0,60
2,note_on,59,43,0
2,note_on,66,38,0
2,note_on,66,0,60
2,note_on,69,33,60
2,note_on,69,0,60
2,note_on,59,0,60
2,note_on,64,44,0
2,note_on,67,47,0
2,note_on,67,0,120
2,note_on,64,0,0
2,note_on,57,43,360
2,note_on,72,33,120
2,note_on,72,0,60
2,note_on,57,0,60
2,note_on,69,38,0
2,note_on,64,35,0
2,note_on,64,0,60
2,note_on,69,0,0
2,note_on,72,33,60
2,note_on,72,0,60
2,note_on,52,44,60
2,note_on,68,33,120
2,note_on,68,0,60
2,note_on,52,0,60
2,note_on,62,34,0
2,note_on,64,37,0
2,note_on,64,0,60
2,note_on,62,0,0
2,note_on,68,33,60
2,note_on,68,0,60
2,note_on,57,43,60
2,note_on,72,33,120
2,note_on,72,0,60
2,note_on,57,0,60
2,note_on,69,38,0
2,note_on,64,33,0
2,note_on,64,0,60
2,note_on,69,0,0
2,note_on,72,33,60
2,note_on,72,0,60
2,note_on,57,44,60
2,note_on,72,33,120
2,note_on,72,0,60
2,note_on,57,0,60
2,note_on,69,37,0
2,note_on,64,34,0
2,note_on,64,0,60
2,note_on,69,0,0
2,note_on,72,33,60
2,note_on,72,0,60
2,note_on,55,43,60
2,note_on,72,33,120
2,note_on,72,0,60
2,note_on,55,0,60
2,note_on,67,38,0
2,note_on,64,32,0
2,note_on,64,0,60
2,note_on,67,0,0
2,note_on,72,33,60
2,note_on,72,0,60
2,note_on,55,44,60
2,note_on,71,33,120
2,note_on,71,0,60
2,note_on,55,0,60
2,note_on,65,37,0
2,note_on,62,31,0
2,note_on,62,0,60
2,note_on,65,0,0
2,note_on,71,33,60
2,note_on,71,0,60
2,note_on,60,43,60
2,note_on,72,33,120
2,note_on,72,0,60
2,note_on,60,0,60
2,note_on,67,38,0
2,note_on,64,38,0
2,note_on,64,0,60
2,note_on,67,0,0
2,note_on,72,33,60
2,note_on,72,0,60
2,note_on,60,44,60
2,note_on,72,33,120
2,note_on,72,0,60
2,note_on,60,0,60
2,note_on,67,40,0
2,note_on,64,40,0
2,note_on,64,0,60
2,note_on,67,0,0
2,note_on,72,36,60
2,note_on,72,0,60
2,note_on,60,47,60
2,note_on,70,36,120
2,note_on,70,0,60
2,note_on,60,0,60
2,note_on,64,41,0
2,note_on,67,41,0
2,note_on,67,0,60
2,note_on,64,0,0
2,note_on,70,36,60
2,note_on,70,0,60
2,note_on,60,48,60
2,note_on,70,36,120
2,note_on,70,0,60
2,note_on,60,0,60
2,note_on,64,40,0
2,note_on,67,40,0
2,note_on,67,0,60
2,note_on,64,0,0
2,note_on,70,36,60
2,note_on,70,0,60
2,note_on,53,47,60
2,note_on,69,36,120
2,note_on,69,0,60
2,note_on,53,0,60
2,note_on,60,33,0
2,note_on,65,41,0
2,note_on,65,0,60
2,note_on,60,0,0
2,note_on,69,36,60
2,note_on,69,0,60
2,note_on,57,48,60
2,note_on,57,0,60
2,note_on,72,36,60
2,note_on,72,0,60
2,note_on,69,46,60
2,note_on,65,41,0
2,note_on,65,0,60
2,note_on,69,0,0
2,note_on,72,41,60
2,note_on,72,0,60
2,note_on,59,48,60
2,note_on,71,36,120
2,note_on,71,0,60
2,note_on,59,0,60
2,note_on,64,43,0
2,note_on,67,43,0
2,note_on,67,0,60
2,note_on,64,0,0
2,note_on,71,38,60
2,note_on,71,0,60
2,note_on,59,50,60
2,note_on,71,38,120
2,note_on,71,0,60
2,note_on,59,0,60
2,note_on,69,44,0
2,note_on,66,36,0
2,note_on,66,0,60
2,note_on,69,0,0
2,note_on,71,39,60
2,note_on,71,0,60
2,note_on,59,52,60
2,note_on,71,40,120
2,note_on,71,0,60
2,note_on,59,0,60
2,note_on,64,47,0
2,note_on,67,47,0
2,note_on,67,0,60
2,note_on,64,0,0
2,note_on,71,40,60
2,note_on,71,0,60
2,note_on,59,55,60
2,note_on,71,41,120
2,note_on,71,0,60
2,note_on,59,0,60
2,note_on,69,48,0
2,note_on,66,39,0
2,note_on,66,0,60
2,note_on,69,0,0
2,note_on,71,42,60
2,note_on,71,0,60
2,note_on,67,49,60
2,note_on,64,57,0
2,note_on,67,0,60
2,note_on,71,42,60
2,note_on,71,0,60
2,note_on,64,0,60
2,note_on,66,50,0
2,note_on,69,50,0
2,note_on,59,50,0
2,note_on,69,0,60
2,note_on,66,0,0
2,note_on,71,45,60
2,note_on,71,0,60
2,note_on,59,0,60
2,note_on,67,51,0
2,note_on,64,61,0
2,note_on,67,0,60
2,note_on,71,45,60
2,note_on,71,0,60
2,note_on,64,0,60
2,note_on,59,54,0
2,note_on,69,51,0
2,note_on,66,43,0
2,note_on,66,0,60
2,note_on,69,0,0
2,note_on,71,47,60
2,note_on,71,0,60
2,note_on,59,0,60
2,note_on,64,60,0
2,note_on,67,54,0
2,note_on,67,0,120
2,note_on,64,0,0
2,note_on,45,48,690
2,note_on,52,53,30
2,note_on,57,57,30
2,note_on,57,0,570
2,note_on,52,0,0
2,note_on,45,0,0
2,note_on,45,48,1770
2,note_on,54,53,30
2,note_on,60,57,30
2,note_on,60,0,570
2,note_on,54,0,0
2,note_on,45,0,0
2,note_on,40,65,1800
2,note_on,55,68,30
2,note_on,55,0,570
2,note_on,40,0,0
2,note_on,52,25,3440
2,note_on,55,32,0
2,note_on,55,0,160
2,note_on,52,0,0
2,note_on,45,48,60
2,note_on,52,53,45
2,note_on,57,57,45
2,note_on,57,0,570
2,note_on,52,0,0
2,note_on,45,0,0
2,note_on,45,48,2250
2,note_on,54,53,30
2,note_on,60,57,30
2,note_on,60,0,570
2,note_on,54,0,0
2,note_on,45,0,0
2,note_on,40,65,2280
2,note_on,55,68,30
2,note_on,55,0,570
2,note_on,40,0,0
2,note_on,71,50,7440
2,note_on,64,42,0
2,note_on,67,42,0
2,note_on,67,0,240
2,note_on,64,0,0
2,note_on,71,0,0
2,note_on,71,43,0
2,note_on,62,36,0
2,note_on,69,36,0
2,note_on,69,0,240
2,note_on,62,0,0
2,note_on,71,0,0
2,note_on,71,54,720
2,note_on,55,42,0
2,note_on,65,42,0
2,note_on,65,0,240
2,note_on,55,0,0
2,note_on,71,0,0
2,note_on,64,51,720
2,note_on,60,43,0
2,note_on,60,0,240
2,note_on,64,0,0
2,note_on,60,50,1200
2,note_on,52,42,0
2,note_on,55,42,0
2,note_on,55,0,240
2,note_on,52,0,0
2,note_on,60,0,0
2,note_on,60,54,240
2,note_on,50,45,0
2,note_on,57,45,0
2,note_on,57,0,240
2,note_on,50,0,0
2,note_on,60,0,0
2,note_on,59,50,720
2,note_on,43,42,0
2,note_on,53,42,0
2,note_on,53,0,240
2,note_on,43,0,0
2,note_on,59,0,0
2,note_on,52,51,720
2,note_on,48,43,0
2,note_on,48,0,960
2,note_on,52,0,0
2,note_on,60,50,480
2,note_on,52,42,0
2,note_on,55,42,0
2,note_on,55,0,240
2,note_on,52,0,0
2,note_on,60,0,0
2,note_on,59,54,240
2,note_on,50,45,0
2,note_on,57,45,0
2,note_on,57,0,240
2,note_on,50,0,0
2,note_on,59,0,0
2,note_on,59,50,720
2,note_on,43,42,0
2,note_on,53,42,0
2,note_on,53,0,240
2,note_on,43,0,0
2,note_on,59,0,0
2,note_on,52,51,720
2,note_on,48,43,0
2,note_on,48,0,960
2,note_on,52,0,0
2,note_on,58,59,480
2,note_on,52,50,0
2,note_on,55,50,0
2,note_on,55,0,240
2,note_on,52,0,0
2,note_on,58,0,0
2,note_on,56,61,240
2,note_on,47,56,0
2,note_on,47,0,960
2,note_on,56,0,0
2,note_on,57,61,480
2,note_on,54,51,0
2,note_on,47,51,0
2,note_on,47,0,240
2,note_on,54,0,0
2,note_on,57,0,0
2,note_on,56,64,240
2,note_on,47,59,0
2,note_on,47,0,960
2,note_on,56,0,0
2,note_on,59,67,480
2,note_on,54,67,0
2,note_on,51,56,0
2,note_on,47,56,0
2,note_on,47,0,240
2,note_on,59,0,0
2,note_on,54,0,0
2,note_on,51,0,0
2,note_on,59,70,240
2,note_on,56,70,0
2,note_on,52,65,0
2,note_on,47,65,0
2,note_on,47,0,240
2,note_on,59,0,0
2,note_on,56,0,0
2,note_on,52,0,0
2,note_on,69,51,253
2,note_on,69,0,36
2,note_on,67,52,0
2,note_on,67,0,36
2,note_on,65,53,0
2,note_on,65,0,36
2,note_on,64,56,0
2,note_on,64,0,36
2,note_on,62,57,0
2,note_on,62,0,36
2,note_on,60,58,1
2,note_on,60,0,36
2,note_on,59,59,0
2,note_on,59,0,36
2,note_on,57,60,0
2,note_on,57,0,36
2,note_on,55,61,0
2,note_on,55,0,36
2,note_on,53,62,0
2,note_on,53,0,36
2,note_on,52,63,0
2,note_on,52,0,36
2,note_on,50,64,1
2,note_on,50,0,36
2,note_on,48,66,0
2,note_on,48,0,36
2,note_on,47,88,0
2,note_on,47,0,60
2,note_on,59,70,417
2,note_on,54,70,0
2,note_on,51,58,0
2,note_on,47,58,0
2,note_on,47,0,240
2,note_on,59,0,0
2,note_on,54,0,0
2,note_on,51,0,0
2,note_on,64,73,240
2,note_on,59,73,0
2,note_on,56,68,0
2,note_on,52,68,0
2,note_on,52,0,240
2,note_on,64,0,0
2,note_on,59,0,0
2,note_on,56,0,0
2,note_on,52,76,720
2,note_on,47,76,0
2,note_on,44,71,0
2,note_on,40,71,0
2,note_on,40,0,240
2,note_on,52,0,0
2,note_on,47,0,0
2,note_on,44,0,0
2,note_on,64,42,240
2,note_on,68,42,0
2,note_on,71,50,0
2,note_on,71,0,240
2,note_on,68,0,0
2,note_on,64,0,0
2,note_on,71,43,240
2,note_on,62,36,0
2,note_on,69,36,0
2,note_on,69,0,240
2,note_on,62,0,0
2,note_on,71,0,0
2,note_on,71,54,720
2,note_on,55,42,0
2,note_on,65,42,0
2,note_on,65,0,240
2,note_on,55,0,0
2,note_on,71,0,0
2,note_on,64,51,720
2,note_on,60,43,0
2,note_on,60,0,240
2,note_on,64,0,0
2,note_on,60,50,1200
2,note_on,52,42,0
2,note_on,55,42,0
2,note_on,55,0,240
2,note_on,52,0,0
2,note_on,60,0,0
2,note_on,60,54,240
2,note_on,50,45,0
2,note_on,57,45,0
2,note_on,57,0,240
2,note_on,50,0,0
2,note_on,60,0,0
2,note_on,59,50,720
2,note_on,43,42,0
2,note_on,53,42,0
2,note_on,53,0,240
2,note_on,43,0,0
2,note_on,59,0,0
2,note_on,52,51,720
2,note_on,48,43,0
2,note_on,48,0,960
2,note_on,52,0,0
2,note_on,60,50,480
2,note_on,52,42,0
2,note_on,55,42,0
2,note_on,55,0,240
2,note_on,52,0,0
2,note_on,60,0,0
2,note_on,59,54,240
2,note_on,50,45,0
2,note_on,57,45,0
2,note_on,57,0,240
2,note_on,50,0,0
2,note_on,59,0,0
2,note_on,59,50,720
2,note_on,43,42,0
2,note_on,53,42,0
2,note_on,53,0,240
2,note_on,43,0,0
2,note_on,59,0,0
2,note_on,52,51,720
2,note_on,48,43,0
2,note_on,48,0,960
2,note_on,52,0,0
2,note_on,58,59,480
2,note_on,52,50,0
2,note_on,55,50,0
2,note_on,55,0,240
2,note_on,52,0,0
2,note_on,58,0,0
2,note_on,56,61,240
2,note_on,47,56,0
2,note_on,47,0,960
2,note_on,56,0,0
2,note_on,57,61,480
2,note_on,54,51,0
2,note_on,47,51,0
2,note_on,47,0,240
2,note_on,54,0,0
2,note_on,57,0,0
2,note_on,56,64,240
2,note_on,47,59,0
2,note_on,47,0,960
2,note_on,56,0,0
2,note_on,59,67,480
2,note_on,54,67,0
2,note_on,51,56,0
2,note_on,47,56,0
2,note_on,47,0,240
2,note_on,59,0,0
2,note_on,54,0,0
2,note_on,51,0,0
2,note_on,59,70,240
2,note_on,56,70,0
2,note_on,52,65,0
2,note_on,47,65,0
2,note_on,47,0,240
2,note_on,59,0,0
2,note_on,56,0,0
2,note_on,52,0,0
2,note_on,69,51,253
2,note_on,69,0,36
2,note_on,67,52,0
2,note_on,67,0,36
2,note_on,65,53,0
2,note_on,65,0,36
2,note_on,64,56,0
2,note_on,64,0,36
2,note_on,62,57,0
2,note_on,62,0,36
2,note_on,60,58,1
2,note_on,60,0,36
2,note_on,59,59,0
2,note_on,59,0,36
2,note_on,57,60,0
2,note_on,57,0,36
2,note_on,55,61,0
2,note_on,55,0,36
2,note_on,53,62,0
2,note_on,53,0,36
2,note_on,52,63,0
2,note_on,52,0,36
2,note_on,50,64,1
2,note_on,50,0,36
2,note_on,48,66,0
2,note_on,48,0,36
2,note_on,47,88,0
2,note_on,47,0,60
2,note_on,59,77,417
2,note_on,54,77,0
2,note_on,51,63,0
2,note_on,47,63,0
2,note_on,47,0,240
2,note_on,59,0,0
2,note_on,54,0,0
2,note_on,51,0,0
2,note_on,59,77,240
2,note_on,56,77,0
2,note_on,52,71,0
2,note_on,47,71,0
2,note_on,47,0,240
2,note_on,59,0,0
2,note_on,56,0,0
2,note_on,52,0,0
2,note_on,69,56,253
2,note_on,69,0,36
2,note_on,67,57,0
2,note_on,67,0,36
2,note_on,65,58,0
2,note_on,65,0,36
2,note_on,64,61,0
2,note_on,64,0,36
2,note_on,62,62,0
2,note_on,62,0,36
2,note_on,60,63,1
2,note_on,60,0,36
2,note_on,59,64,0
2,note_on,59,0,36
2,note_on,57,66,0
2,note_on,57,0,36
2,note_on,55,67,0
2,note_on,55,0,36
2,note_on,53,68,0
2,note_on,53,0,36
2,note_on,52,69,0
2,note_on,52,0,36
2,note_on,50,70,1
2,note_on,50,0,36
2,note_on,48,72,0
2,note_on,48,0,36
2,note_on,47,96,0
2,note_on,47,0,60
2,note_on,59,77,417
2,note_on,54,77,0
2,note_on,51,63,0
2,note_on,47,63,0
2,note_on,47,0,240
2,note_on,59,0,0
2,note_on,54,0,0
2,note_on,51,0,0
2,note_on,52,81,240
2,note_on,40,68,0
2,note_on,40,0,120
2,note_on,52,0,0
2,note_on,64,58,120
2,note_on,56,49,0
2,note_on,56,0,120
2,note_on,64,0,0
2,note_on,52,71,120
2,note_on,40,60,0
2,note_on,40,0,120
2,note_on,52,0,0
2,note_on,64,55,120
2,note_on,56,46,0
2,note_on,56,0,120
2,note_on,64,0,0
2,note_on,52,77,120
2,note_on,40,64,0
2,note_on,40,0,120
2,note_on,52,0,0
2,note_on,64,60,120
2,note_on,56,50,0
2,note_on,56,0,120
2,note_on,64,0,0
2,note_on,52,72,120
2,note_on,40,61,0
2,note_on,40,0,120
2,note_on,52,0,0
2,note_on,64,60,120
2,note_on,56,50,0
2,note_on,56,0,120
2,note_on,64,0,0
2,note_on,45,78,120
2,note_on,33,66,0
2,note_on,33,0,120
2,note_on,45,0,0
2,note_on,64,58,120
2,note_on,52,49,0
2,note_on,60,49,0
2,note_on,60,0,120
2,note_on,52,0,0
2,note_on,64,0,0
2,note_on,45,71,120
2,note_on,33,60,0
2,note_on,33,0,120
2,note_on,45,0,0
2,note_on,64,58,120
2,note_on,52,49,0
2,note_on,60,49,0
2,note_on,60,0,120
2,note_on,52,0,0
2,note_on,64,0,0
2,note_on,45,71,120
2,note_on,33,60,0
2,note_on,33,0,120
2,note_on,45,0,0
2,note_on,64,61,120
2,note_on,52,51,0
2,note_on,60,51,0
2,note_on,60,0,120
2,note_on,52,0,0
2,note_on,64,0,0
2,note_on,48,73,120
2,note_on,36,61,0
2,note_on,36,0,120
2,note_on,48,0,0
2,note_on,64,62,120
2,note_on,52,52,0
2,note_on,57,52,0
2,note_on,57,0,120
2,note_on,52,0,0
2,note_on,64,0,0
2,note_on,47,77,120
2,note_on,35,64,0
2,note_on,35,0,120
2,note_on,47,0,0
2,note_on,64,58,120
2,note_on,55,49,0
2,note_on,59,49,0
2,note_on,59,0,120
2,note_on,55,0,0
2,note_on,64,0,0
2,note_on,47,69,120
2,note_on,35,58,0
2,note_on,35,0,120
2,note_on,47,0,0
2,note_on,64,55,120
2,note_on,55,46,0
2,note_on,59,46,0
2,note_on,59,0,120
2,note_on,55,0,0
2,note_on,64,0,0
2,note_on,49,85,120
2,note_on,37,72,0
2,note_on,37,0,120
2,note_on,49,0,0
2,note_on,64,60,120
2,note_on,54,50,0
2,note_on,58,50,0
2,note_on,58,0,120
2,note_on,54,0,0
2,note_on,64,0,0
2,note_on,48,75,120
2,note_on,36,63,0
2,note_on,36,0,120
2,note_on,48,0,0
2,note_on,64,62,120
2,note_on,54,52,0
2,note_on,58,52,0
2,note_on,58,0,120
2,note_on,54,0,0
2,note_on,64,0,0
2,note_on,47,82,120
2,note_on,35,69,0
2,note_on,35,0,120
2,note_on,47,0,0
2,note_on,63,59,120
2,note_on,54,49,0
2,note_on,57,49,0
2,note_on,57,0,120
2,note_on,54,0,0
2,note_on,63,0,0
2,note_on,47,73,120
2,note_on,35,61,0
2,note_on,35,0,120
2,note_on,47,0,0
2,note_on,63,57,120
2,note_on,54,48,0
2,note_on,57,48,0
2,note_on,57,0,120
2,note_on,54,0,0
2,note_on,63,0,0
2,note_on,64,73,120
2,note_on,52,61,0
2,note_on,55,61,0
2,note_on,55,0,120
2,note_on,52,0,0
2,note_on,64,0,0
2,note_on,47,47,60
2,note_on,57,47,30
2,note_on,63,56,30
2,note_on,63,0,120
2,note_on,57,0,0
2,note_on,47,0,0
2,note_on,64,61,120
2,note_on,52,51,0
2,note_on,55,51,0
2,note_on,55,0,120
2,note_on,52,0,0
2,note_on,64,0,0
2,note_on,40,81,300
2,note_on,52,92,0
2,note_on,52,0,40
2,note_on,40,0,0
2,note_on,40,81,20
2,note_on,52,92,0
2,note_on,52,0,60
2,note_on,40,0,0
2,note_on,42,69,60
2,note_on,54,79,0
2,note_on,54,0,60
2,note_on,42,0,0
2,note_on,44,69,60
2,note_on,56,79,0
2,note_on,56,0,60
2,note_on,44,0,0
2,note_on,45,69,60
2,note_on,57,79,0
2,note_on,57,0,60
2,note_on,45,0,0
2,note_on,47,77,60
2,note_on,59,88,0
2,note_on,59,0,60
2,note_on,47,0,0
2,note_on,46,64,60
2,note_on,58,73,0
2,note_on,58,0,60
2,note_on,46,0,0
2,note_on,47,64,60
2,note_on,59,73,0
2,note_on,59,0,60
2,note_on,47,0,0
2,note_on,50,64,60
2,note_on,62,73,0
2,note_on,62,0,60
2,note_on,50,0,0
2,note_on,50,78,60
2,note_on,62,89,0
2,note_on,62,0,120
2,note_on,50,0,0
2,note_on,52,77,120
2,note_on,56,77,0
2,note_on,48,77,0
2,note_on,60,88,0
2,note_on,60,0,480
2,note_on,52,0,0
2,note_on,56,0,0
2,note_on,48,0,0
2,note_on,52,69,0
2,note_on,56,69,0
2,note_on,47,69,0
2,note_on,59,79,0
2,note_on,59,0,240
2,note_on,52,0,0
2,note_on,56,0,0
2,note_on,47,0,0
2,note_on,40,69,120
2,note_on,52,79,0
2,note_on,52,0,60
2,note_on,40,0,0
2,note_on,42,69,60
2,note_on,54,79,0
2,note_on,54,0,60
2,note_on,42,0,0
2,note_on,44,69,60
2,note_on,56,79,0
2,note_on,56,0,60
2,note_on,44,0,0
2,note_on,45,77,60
2,note_on,57,88,0
2,note_on,57,0,60
2,note_on,45,0,0
2,note_on,44,64,60
2,note_on,56,73,0
2,note_on,56,0,60
2,note_on,44,0,0
2,note_on,45,64,60
2,note_on,57,73,0
2,note_on,57,0,60
2,note_on,45,0,0
2,note_on,48,64,60
2,note_on,60,73,0
2,note_on,60,0,60
2,note_on,48,0,0
2,note_on,47,78,60
2,note_on,59,89,0
2,note_on,59,0,120
2,note_on,47,0,0
2,note_on,48,77,120
2,note_on,52,77,0
2,note_on,45,77,0
2,note_on,57,88,0
2,note_on,57,0,480
2,note_on,48,0,0
2,note_on,52,0,0
2,note_on,45,0,0
2,note_on,48,69,0
2,note_on,52,69,0
2,note_on,45,69,0
2,note_on,57,79,0
2,note_on,57,0,240
2,note_on,48,0,0
2,note_on,52,0,0
2,note_on,45,0,0
2,note_on,47,92,0
2,note_on,35,81,0
2,note_on,35,0,60
2,note_on,47,0,0
2,note_on,36,69,60
2,note_on,48,79,0
2,note_on,48,0,60
2,note_on,36,0,0
2,note_on,39,69,60
2,note_on,51,79,0
2,note_on,51,0,60
2,note_on,39,0,0
2,note_on,40,69,60
2,note_on,52,79,0
2,note_on,52,0,60
2,note_on,40,0,0
2,note_on,43,77,60
2,note_on,55,88,0
2,note_on,55,0,60
2,note_on,43,0,0
2,note_on,42,64,60
2,note_on,54,73,0
2,note_on,54,0,60
2,note_on,42,0,0
2,note_on,43,64,60
2,note_on,55,73,0
2,note_on,55,0,60
2,note_on,43,0,0
2,note_on,45,64,60
2,note_on,57,73,0
2,note_on,57,0,60
2,note_on,45,0,0
2,note_on,55,89,60
2,note_on,43,78,0
2,note_on,43,0,120
2,note_on,55,0,0
2,note_on,54,88,120
2,note_on,42,77,0
2,note_on,49,77,0
2,note_on,46,77,0
2,note_on,46,0,480
2,note_on,54,0,0
2,note_on,42,0,0
2,note_on,49,0,0
2,note_on,46,79,0
2,note_on,34,69,0
2,note_on,34,0,240
2,note_on,46,0,0
2,note_on,47,39,0
2,note_on,35,33,0
2,note_on,35,0,90
2,note_on,47,0,0
2,note_on,59,40,30
2,note_on,47,34,0
2,note_on,51,34,0
2,note_on,54,34,0
2,note_on,54,0,90
2,note_on,59,0,0
2,note_on,47,0,0
2,note_on,51,0,0
2,note_on,59,42,30
2,note_on,47,35,0
2,note_on,51,35,0
2,note_on,54,35,0
2,note_on,54,0,90
2,note_on,59,0,0
2,note_on,47,0,0
2,note_on,51,0,0
2,note_on,59,43,30
2,note_on,47,36,0
2,note_on,51,36,0
2,note_on,54,36,0
2,note_on,54,0,90
2,note_on,59,0,0
2,note_on,47,0,0
2,note_on,51,0,0
2,note_on,59,45,30
2,note_on,47,38,0
2,note_on,51,38,0
2,note_on,54,38,0
2,note_on,54,0,90
2,note_on,59,0,0
2,note_on,47,0,0
2,note_on,51,0,0
2,note_on,59,46,30
2,note_on,47,39,0
2,note_on,51,39,0
2,note_on,54,39,0
2,note_on,54,0,90
2,note_on,59,0,0
2,note_on,47,0,0
2,note_on,51,0,0
2,note_on,59,48,30
2,note_on,47,40,0
2,note_on,51,40,0
2,note_on,54,40,0
2,note_on,54,0,90
2,note_on,59,0,0
2,note_on,47,0,0
2,note_on,51,0,0
2,note_on,59,49,30
2,note_on,47,41,0
2,note_on,51,41,0
2,note_on,54,41,0
2,note_on,54,0,90
2,note_on,59,0,0
2,note_on,47,0,0
2,note_on,51,0,0
2,note_on,59,51,30
2,note_on,47,43,0
2,note_on,51,43,0
2,note_on,54,43,0
2,note_on,54,0,90
2,note_on,59,0,0
2,note_on,47,0,0
2,note_on,51,0,0
2,note_on,59,52,30
2,note_on,47,44,0
2,note_on,51,44,0
2,note_on,54,44,0
2,note_on,54,0,90
2,note_on,59,0,0
2,note_on,47,0,0
2,note_on,51,0,0
2,note_on,59,54,30
2,note_on,47,45,0
2,note_on,51,45,0
2,note_on,54,45,0
2,note_on,54,0,90
2,note_on,59,0,0
2,note_on,47,0,0
2,note_on,51,0,0
2,note_on,59,55,30
2,note_on,47,46,0
2,note_on,51,46,0
2,note_on,54,46,0
2,note_on,54,0,90
2,note_on,59,0,0
2,note_on,47,0,0
2,note_on,51,0,0
2,note_on,59,57,30
2,note_on,47,48,0
2,note_on,51,48,0
2,note_on,54,48,0
2,note_on,54,0,240
2,note_on,59,0,0
2,note_on,47,0,0
2,note_on,51,0,0
2,note_on,47,70,240
2,note_on,47,0,120
2,note_on,63,61,0
2,note_on,63,0,120
2,note_on,51,61,0
2,note_on,51,0,120
2,note_on,66,61,0
2,note_on,66,0,120
2,note_on,54,70,0
2,note_on,54,0,120
2,note_on,69,63,0
2,note_on,69,0,120
2,note_on,57,63,0
2,note_on,57,0,120
2,note_on,73,63,0
2,note_on,73,0,120
2,note_on,56,70,0
2,note_on,56,0,120
2,note_on,71,59,0
2,note_on,71,0,120
2,note_on,52,61,0
2,note_on,52,0,120
2,note_on,68,63,0
2,note_on,68,0,120
2,note_on,56,73,0
2,note_on,56,0,120
2,note_on,71,62,0
2,note_on,71,0,120
2,note_on,52,62,0
2,note_on,52,0,120
2,note_on,68,62,0
2,note_on,68,0,120
2,note_on,47,70,0
2,note_on,47,0,120
2,note_on,63,61,0
2,note_on,63,0,120
2,note_on,51,61,0
2,note_on,51,0,120
2,note_on,66,61,0
2,note_on,66,0,120
2,note_on,54,70,0
2,note_on,54,0,120
2,note_on,69,63,0
2,note_on,69,0,120
2,note_on,57,63,0
2,note_on,57,0,120
2,note_on,73,63,0
2,note_on,73,0,120
2,note_on,56,70,0
2,note_on,56,0,120
2,note_on,71,59,0
2,note_on,71,0,120
2,note_on,52,61,0
2,note_on,52,0,120
2,note_on,68,63,0
2,note_on,68,0,120
2,note_on,56,73,0
2,note_on,56,0,120
2,note_on,71,62,0
2,note_on,71,0,120
2,note_on,52,62,0
2,note_on,52,0,120
2,note_on,68,62,0
2,note_on,68,0,120
2,note_on,52,70,0
2,note_on,52,0,120
2,note_on,68,61,0
2,note_on,68,0,120
2,note_on,56,61,0
2,note_on,56,0,120
2,note_on,71,61,0
2,note_on,71,0,120
2,note_on,59,70,0
2,note_on,59,0,120
2,note_on,74,63,0
2,note_on,74,0,120
2,note_on,62,63,0
2,note_on,62,0,120
2,note_on,78,63,0
2,note_on,78,0,120
2,note_on,61,70,0
2,note_on,61,0,120
2,note_on,76,59,0
2,note_on,76,0,120
2,note_on,57,61,0
2,note_on,57,0,120
2,note_on,73,63,0
2,note_on,73,0,120
2,note_on,61,73,0
2,note_on,61,0,120
2,note_on,76,62,0
2,note_on,76,0,120
2,note_on,58,62,0
2,note_on,58,0,120
2,note_on,73,62,0
2,note_on,73,0,120
2,note_on,63,70,0
2,note_on,63,0,120
2,note_on,78,59,0
2,note_on,78,0,120
2,note_on,59,61,0
2,note_on,59,0,120
2,note_on,75,63,0
2,note_on,75,0,120
2,note_on,63,73,0
2,note_on,63,0,120
2,note_on,71,62,0
2,note_on,71,0,120
2,note_on,59,62,0
2,note_on,59,0,120
2,note_on,69,62,0
2,note_on,69,0,120
2,note_on,68,57,0
2,note_on,64,48,0
2,note_on,64,0,120
2,note_on,68,0,0
2,note_on,71,53,120
2,note_on,59,45,0
2,note_on,63,45,0
2,note_on,66,45,0
2,note_on,66,0,120
2,note_on,71,0,0
2,note_on,59,0,0
2,note_on,63,0,0
2,note_on,64,54,120
2,note_on,59,45,0
2,note_on,56,45,0
2,note_on,52,45,0
2,note_on,52,0,120
2,note_on,64,0,0
2,note_on,59,0,0
2,note_on,56,0,0
2,note_on,35,77,360
2,note_on,35,0,120
2,note_on,51,67,0
2,note_on,51,0,120
2,note_on,39,67,0
2,note_on,39,0,120
2,note_on,54,67,0
2,note_on,54,0,120
2,note_on,42,77,0
2,note_on,42,0,120
2,note_on,57,69,0
2,note_on,57,0,120
2,note_on,45,69,0
2,note_on,45,0,120
2,note_on,61,69,0
2,note_on,61,0,120
2,note_on,44,77,0
2,note_on,44,0,120
2,note_on,59,64,0
2,note_on,59,0,120
2,note_on,40,67,0
2,note_on,40,0,120
2,note_on,56,69,0
2,note_on,56,0,120
2,note_on,44,80,0
2,note_on,44,0,120
2,note_on,59,68,0
2,note_on,59,0,120
2,note_on,40,68,0
2,note_on,40,0,120
2,note_on,56,68,0
2,note_on,56,0,120
2,note_on,35,77,0
2,note_on,35,0,120
2,note_on,51,67,0
2,note_on,51,0,120
2,note_on,39,67,0
2,note_on,39,0,120
2,note_on,54,67,0
2,note_on,54,0,120
2,note_on,42,77,0
2,note_on,42,0,120
2,note_on,57,69,0
2,note_on,57,0,120
2,note_on,45,69,0
2,note_on,45,0,120
2,note_on,61,69,0
2,note_on,61,0,120
2,note_on,44,77,0
2,note_on,44,0,120
2,note_on,59,64,0
2,note_on,59,0,120
2,note_on,40,67,0
2,note_on,40,0,120
2,note_on,56,69,0
2,note_on,56,0,120
2,note_on,44,80,0
2,note_on,44,0,120
2,note_on,59,68,0
2,note_on,59,0,120
2,note_on,40,68,0
2,note_on,40,0,120
2,note_on,56,68,0
2,note_on,56,0,120
2,note_on,40,77,0
2,note_on,40,0,120
2,note_on,56,67,0
2,note_on,56,0,120
2,note_on,44,67,0
2,note_on,44,0,120
2,note_on,59,67,0
2,note_on,59,0,120
2,note_on,47,77,0
2,note_on,47,0,120
2,note_on,62,69,0
2,note_on,62,0,120
2,note_on,50,69,0
2,note_on,50,0,120
2,note_on,66,69,0
2,note_on,66,0,120
2,note_on,49,77,0
2,note_on,49,0,120
2,note_on,64,64,0
2,note_on,64,0,120
2,note_on,45,67,0
2,note_on,45,0,120
2,note_on,61,69,0
2,note_on,61,0,120
2,note_on,49,80,0
2,note_on,49,0,120
2,note_on,64,68,0
2,note_on,64,0,120
2,note_on,46,68,0
2,note_on,46,0,120
2,note_on,61,68,0
2,note_on,61,0,120
2,note_on,59,60,0
2,note_on,47,51,0
2,note_on,47,0,120
2,note_on,59,0,0
2,note_on,58,62,0
2,note_on,46,52,0
2,note_on,46,0,120
2,note_on,58,0,0
2,note_on,57,64,0
2,note_on,45,54,0
2,note_on,45,0,120
2,note_on,57,0,0
2,note_on,56,66,0
2,note_on,44,56,0
2,note_on,44,0,120
2,note_on,56,0,0
2,note_on,54,68,0
2,note_on,42,57,0
2,note_on,42,0,120
2,note_on,54,0,0
2,note_on,52,70,0
2,note_on,40,59,0
2,note_on,40,0,120
2,note_on,52,0,0
2,note_on,51,72,0
2,note_on,39,61,0
2,note_on,39,0,120
2,note_on,51,0,0
2,note_on,49,74,0
2,note_on,37,62,0
2,note_on,37,0,120
2,note_on,49,0,0
2,note_on,47,76,0
2,note_on,35,64,0
2,note_on,35,0,120
2,note_on,47,0,0
2,note_on,45,71,120
2,note_on,33,60,0
2,note_on,33,0,120
2,note_on,45,0,0
2,note_on,44,76,120
2,note_on,32,64,0
2,note_on,32,0,120
2,note_on,44,0,0
2,note_on,42,73,120
2,note_on,30,62,0
2,note_on,30,0,120
2,note_on,42,0,0
2,note_on,40,76,120
2,note_on,28,64,0
2,note_on,28,0,120
2,note_on,40,0,0
2,note_on,45,75,360
2,note_on,33,63,0
2,note_on,37,63,0
2,note_on,41,63,0
2,note_on,41,0,120
2,note_on,45,0,0
2,note_on,33,0,0
2,note_on,37,0,0
2,note_on,35,47,780
2,note_on,39,47,0
2,note_on,42,47,0
2,note_on,47,57,0
2,note_on,47,0,54
2,note_on,35,0,0
2,note_on,39,0,0
2,note_on,42,0,0
2,note_on,35,59,6
2,note_on,39,59,0
2,note_on,42,59,0
2,note_on,47,71,0
2,note_on,47,0,120
2,note_on,35,0,0
2,note_on,39,0,0
2,note_on,42,0,0
2,note_on,40,47,300
2,note_on,44,47,0
2,note_on,47,47,0
2,note_on,52,57,0
2,note_on,52,0,54
2,note_on,40,0,0
2,note_on,44,0,0
2,note_on,47,0,0
2,note_on,40,59,6
2,note_on,44,59,0
2,note_on,47,59,0
2,note_on,52,71,0
2,note_on,52,0,120
2,note_on,40,0,0
2,note_on,44,0,0
2,note_on,47,0,0
2,note_on,45,47,300
2,note_on,48,47,0
2,note_on,53,47,0
2,note_on,57,57,0
2,note_on,57,0,54
2,note_on,45,0,0
2,note_on,48,0,0
2,note_on,53,0,0
2,note_on,45,59,6
2,note_on,48,59,0
2,note_on,53,59,0
2,note_on,57,71,0
2,note_on,57,0,120
2,note_on,45,0,0
2,note_on,48,0,0
2,note_on,53,0,0
2,note_on,47,47,300
2,note_on,51,47,0
2,note_on,54,47,0
2,note_on,59,57,0
2,note_on,59,0,54
2,note_on,47,0,0
2,note_on,51,0,0
2,note_on,54,0,0
2,note_on,47,59,6
2,note_on,51,59,0
2,note_on,54,59,0
2,note_on,59,71,0
2,note_on,59,0,120
2,note_on,47,0,0
2,note_on,51,0,0
2,note_on,54,0,0
2,note_on,40,47,300
2,note_on,44,47,0
2,note_on,47,47,0
2,note_on,52,57,0
2,note_on,52,0,54
2,note_on,40,0,0
2,note_on,44,0,0
2,note_on,47,0,0
2,note_on,40,59,6
2,note_on,44,59,0
2,note_on,47,59,0
2,note_on,52,71,0
2,note_on,52,0,120
2,note_on,40,0,0
2,note_on,44,0,0
2,note_on,47,0,0
2,note_on,33,42,300
2,note_on,36,42,0
2,note_on,41,42,0
2,note_on,45,51,0
2,note_on,45,0,54
2,note_on,33,0,0
2,note_on,36,0,0
2,note_on,41,0,0
2,note_on,33,53,6
2,note_on,36,53,0
2,note_on,41,53,0
2,note_on,45,63,0
2,note_on,45,0,120
2,note_on,33,0,0
2,note_on,36,0,0
2,note_on,41,0,0
2,note_on,35,42,300
2,note_on,39,42,0
2,note_on,42,42,0
2,note_on,47,51,0
2,note_on,47,0,54
2,note_on,35,0,0
2,note_on,39,0,0
2,note_on,42,0,0
2,note_on,35,53,6
2,note_on,39,53,0
2,note_on,42,53,0
2,note_on,47,63,0
2,note_on,47,0,120
2,note_on,35,0,0
2,note_on,39,0,0
2,note_on,42,0,0
2,note_on,28,42,300
2,note_on,32,42,0
2,note_on,35,42,0
2,note_on,40,51,0
2,note_on,40,0,54
2,note_on,28,0,0
2,note_on,32,0,0
2,note_on,35,0,0
2,note_on,28,53,6
2,note_on,32,53,0
2,note_on,35,53,0
2,note_on,40,63,0
2,note_on,40,0,120
2,note_on,28,0,0
2,note_on,32,0,0
2,note_on,35,0,0
2,note_on,40,59,367
2,note_on,44,59,0
2,note_on,47,59,0
2,note_on,52,71,0
2,note_on,52,0,120
2,note_on,40,0,0
2,note_on,44,0,0
2,note_on,47,0,0
2,note_on,52,65,353
2,note_on,56,65,0
2,note_on,59,65,0
2,note_on,64,77,0
2,note_on,64,0,120
2,note_on,52,0,0
2,note_on,56,0,0
2,note_on,59,0,0
2,note_on,64,65,360
2,note_on,68,65,0
2,note_on,71,65,0
2,note_on,76,77,0
2,note_on,76,0,1440
2,note_on,64,0,0
2,note_on,68,0,0
2,note_on,71,0,0
