Track,Message Type,Note,Velocity,Time
1,note_on,84,90,1440
1,note_on,75,76,0
1,note_on,72,76,0
1,note_on,72,0,120
1,note_on,75,0,0
1,note_on,84,0,0
1,note_on,79,84,240
1,note_on,75,71,0
1,note_on,72,71,0
1,note_on,67,71,0
1,note_on,67,0,120
1,note_on,79,0,0
1,note_on,75,0,0
1,note_on,72,0,0
1,note_on,67,76,0
1,note_on,72,76,0
1,note_on,75,76,0
1,note_on,79,90,0
1,note_on,79,0,120
1,note_on,67,0,0
1,note_on,72,0,0
1,note_on,75,0,0
1,note_on,63,70,480
1,note_on,67,70,0
1,note_on,75,82,0
1,note_on,75,0,120
1,note_on,67,0,0
1,note_on,63,0,0
1,note_on,63,74,0
1,note_on,67,74,0
1,note_on,75,90,0
1,note_on,75,0,120
1,note_on,67,0,0
1,note_on,63,0,0
1,note_on,63,65,480
1,note_on,67,65,0
1,note_on,72,78,0
1,note_on,72,0,120
1,note_on,67,0,0
1,note_on,63,0,0
1,note_on,63,72,0
1,note_on,67,72,0
1,note_on,72,85,0
1,note_on,72,0,120
1,note_on,67,0,0
1,note_on,63,0,0
1,note_on,63,67,120
1,note_on,67,67,0
1,note_on,71,80,0
1,note_on,71,0,120
1,note_on,67,0,0
1,note_on,63,0,0
1,note_on,63,72,120
1,note_on,67,72,0
1,note_on,72,85,0
1,note_on,72,0,120
1,note_on,67,0,0
1,note_on,63,0,0
1,note_on,86,90,1440
1,note_on,77,76,0
1,note_on,74,76,0
1,note_on,74,0,120
1,note_on,77,0,0
1,note_on,86,0,0
1,note_on,80,84,240
1,note_on,74,71,0
1,note_on,68,71,0
1,note_on,68,0,120
1,note_on,74,0,0
1,note_on,80,0,0
1,note_on,68,76,0
1,note_on,74,76,0
1,note_on,80,90,0
1,note_on,80,0,120
1,note_on,74,0,0
1,note_on,68,0,0
1,note_on,65,70,480
1,note_on,68,70,0
1,note_on,77,82,0
1,note_on,77,0,120
1,note_on,68,0,0
1,note_on,65,0,0
1,note_on,65,74,0
1,note_on,68,74,0
1,note_on,77,90,0
1,note_on,77,0,120
1,note_on,68,0,0
1,note_on,65,0,0
1,note_on,62,65,480
1,note_on,68,65,0
1,note_on,74,78,0
1,note_on,74,0,120
1,note_on,68,0,0
1,note_on,62,0,0
1,note_on,62,72,0
1,note_on,68,72,0
1,note_on,74,85,0
1,note_on,74,0,120
1,note_on,68,0,0
1,note_on,62,0,0
1,note_on,61,67,120
1,note_on,68,67,0
1,note_on,73,80,0
1,note_on,73,0,120
1,note_on,68,0,0
1,note_on,61,0,0
1,note_on,62,72,120
1,note_on,68,72,0
1,note_on,74,85,0
1,note_on,74,0,120
1,note_on,68,0,0
1,note_on,62,0,0
1,note_on,63,45,600
1,note_on,67,45,0
1,note_on,75,53,0
1,note_on,75,0,120
1,note_on,67,0,0
1,note_on,63,0,0
1,note_on,60,40,120
1,note_on,60,0,60
1,note_on,62,41,0
1,note_on,62,0,60
1,note_on,63,44,0
1,note_on,63,0,60
1,note_on,65,45,0
1,note_on,65,0,60
1,note_on,67,47,0
1,note_on,67,0,120
1,note_on,65,47,120
1,note_on,72,47,0
1,note_on,77,57,0
1,note_on,77,0,90
1,note_on,72,0,0
1,note_on,65,0,0
1,note_on,84,59,150
1,note_on,72,49,0
1,note_on,75,49,0
1,note_on,75,0,90
1,note_on,72,0,0
1,note_on,84,0,0
1,note_on,74,51,150
1,note_on,72,51,0
1,note_on,84,60,0
1,note_on,84,0,120
1,note_on,72,0,0
1,note_on,74,0,0
1,note_on,65,42,120
1,note_on,65,0,60
1,note_on,63,43,0
1,note_on,63,0,60
1,note_on,62,45,0
1,note_on,62,0,60
1,note_on,60,46,0
1,note_on,60,0,60
1,note_on,58,49,0
1,note_on,58,0,120
1,note_on,70,54,120
1,note_on,74,54,0
1,note_on,82,64,0
1,note_on,82,0,90
1,note_on,74,0,0
1,note_on,70,0,0
1,note_on,87,66,150
1,note_on,74,55,0
1,note_on,82,55,0
1,note_on,82,0,90
1,note_on,74,0,0
1,note_on,87,0,0
1,note_on,80,57,150
1,note_on,72,57,0
1,note_on,87,68,0
1,note_on,87,0,120
1,note_on,72,0,0
1,note_on,80,0,0
1,note_on,56,47,120
1,note_on,56,0,60
1,note_on,58,48,0
1,note_on,58,0,60
1,note_on,60,51,0
1,note_on,60,0,60
1,note_on,62,52,0
1,note_on,62,0,60
1,note_on,63,56,0
1,note_on,63,0,120
1,note_on,80,61,120
1,note_on,74,61,0
1,note_on,84,61,0
1,note_on,86,72,0
1,note_on,86,0,90
1,note_on,80,0,0
1,note_on,74,0,0
1,note_on,84,0,0
1,note_on,92,75,150
1,note_on,80,63,0
1,note_on,84,63,0
1,note_on,84,0,90
1,note_on,80,0,0
1,note_on,92,0,0
1,note_on,83,65,150
1,note_on,80,65,0
1,note_on,92,77,0
1,note_on,92,0,120
1,note_on,80,0,0
1,note_on,83,0,0
1,note_on,62,51,120
1,note_on,62,0,60
1,note_on,60,52,0
1,note_on,60,0,60
1,note_on,59,54,0
1,note_on,59,0,60
1,note_on,56,56,0
1,note_on,56,0,60
1,note_on,55,61,0
1,note_on,55,0,120
1,note_on,79,65,120
1,note_on,82,65,0
1,note_on,85,65,0
1,note_on,91,79,0
1,note_on,91,0,90
1,note_on,79,0,0
1,note_on,82,0,0
1,note_on,85,0,0
1,note_on,94,67,150
1,note_on,96,81,0
1,note_on,84,67,0
1,note_on,91,67,0
1,note_on,91,0,90
1,note_on,94,0,0
1,note_on,96,0,0
1,note_on,84,0,0
1,note_on,92,70,150
1,note_on,84,70,0
1,note_on,96,83,0
1,note_on,96,0,120
1,note_on,84,0,0
1,note_on,92,0,0
1,note_on,59,52,120
1,note_on,59,0,60
1,note_on,60,54,0
1,note_on,60,0,60
1,note_on,62,56,0
1,note_on,62,0,60
1,note_on,64,59,0
1,note_on,64,0,60
1,note_on,65,63,0
1,note_on,65,0,120
1,note_on,92,72,120
1,note_on,89,72,0
1,note_on,101,85,0
1,note_on,101,0,120
1,note_on,89,0,0
1,note_on,92,0,0
1,note_on,61,50,120
1,note_on,61,0,60
1,note_on,63,51,0
1,note_on,63,0,60
1,note_on,65,54,0
1,note_on,65,0,60
1,note_on,66,55,0
1,note_on,66,0,60
1,note_on,68,67,0
1,note_on,68,0,120
1,note_on,73,54,120
1,note_on,73,0,60
1,note_on,75,55,0
1,note_on,75,0,60
1,note_on,77,58,0
1,note_on,77,0,60
1,note_on,78,60,0
1,note_on,78,0,60
1,note_on,80,71,0
1,note_on,80,0,120
1,note_on,85,58,120
1,note_on,85,0,60
1,note_on,87,59,0
1,note_on,87,0,60
1,note_on,89,62,0
1,note_on,89,0,60
1,note_on,90,63,0
1,note_on,90,0,60
1,note_on,92,75,0
1,note_on,92,0,120
1,note_on,85,77,240
1,note_on,89,77,0
1,note_on,97,90,0
1,note_on,97,0,120
1,note_on,89,0,0
1,note_on,85,0,0
1,note_on,97,86,0
1,note_on,89,72,0
1,note_on,85,72,0
1,note_on,85,0,120
1,note_on,89,0,0
1,note_on,97,0,0
1,note_on,80,78,120
1,note_on,85,78,0
1,note_on,92,91,0
1,note_on,92,0,120
1,note_on,85,0,0
1,note_on,80,0,0
1,note_on,77,69,240
1,note_on,80,69,0
1,note_on,89,82,0
1,note_on,89,0,120
1,note_on,80,0,0
1,note_on,77,0,0
1,note_on,77,69,0
1,note_on,80,69,0
1,note_on,89,82,0
1,note_on,89,0,120
1,note_on,80,0,0
1,note_on,77,0,0
1,note_on,73,68,480
1,note_on,77,68,0
1,note_on,80,68,0
1,note_on,85,81,0
1,note_on,85,0,120
1,note_on,73,0,0
1,note_on,77,0,0
1,note_on,80,0,0
1,note_on,73,75,0
1,note_on,77,75,0
1,note_on,80,75,0
1,note_on,85,89,0
1,note_on,85,0,120
1,note_on,73,0,0
1,note_on,77,0,0
1,note_on,80,0,0
1,note_on,72,70,120
1,note_on,76,70,0
1,note_on,80,70,0
1,note_on,84,83,0
1,note_on,84,0,120
1,note_on,72,0,0
1,note_on,76,0,0
1,note_on,80,0,0
1,note_on,73,75,120
1,note_on,77,75,0
1,note_on,80,75,0
1,note_on,85,89,0
1,note_on,85,0,120
1,note_on,73,0,0
1,note_on,77,0,0
1,note_on,80,0,0
1,note_on,77,70,360
1,note_on,80,70,0
1,note_on,86,70,0
1,note_on,89,79,0
1,note_on,89,0,120
1,note_on,77,0,0
1,note_on,80,0,0
1,note_on,86,0,0
1,note_on,73,73,240
1,note_on,85,87,0
1,note_on,85,0,120
1,note_on,73,0,0
1,note_on,86,82,0
1,note_on,74,70,0
1,note_on,74,0,120
1,note_on,86,0,0
1,note_on,75,74,120
1,note_on,78,74,0
1,note_on,81,74,0
1,note_on,87,88,0
1,note_on,87,0,120
1,note_on,75,0,0
1,note_on,78,0,0
1,note_on,81,0,0
1,note_on,71,66,240
1,note_on,83,79,0
1,note_on,83,0,120
1,note_on,71,0,0
1,note_on,72,66,0
1,note_on,84,79,0
1,note_on,84,0,120
1,note_on,72,0,0
1,note_on,79,75,120
1,note_on,83,81,0
1,note_on,91,94,0
1,note_on,91,0,120
1,note_on,83,0,0
1,note_on,79,0,0
1,note_on,87,79,1320
1,note_on,78,66,0
1,note_on,75,66,0
1,note_on,75,0,120
1,note_on,78,0,0
1,note_on,87,0,0
1,note_on,84,73,240
1,note_on,75,62,0
1,note_on,72,62,0
1,note_on,72,0,120
1,note_on,75,0,0
1,note_on,84,0,0
1,note_on,72,66,0
1,note_on,75,66,0
1,note_on,84,79,0
1,note_on,84,0,120
1,note_on,75,0,0
1,note_on,72,0,0
1,note_on,69,61,480
1,note_on,72,61,0
1,note_on,81,72,0
1,note_on,81,0,120
1,note_on,72,0,0
1,note_on,69,0,0
1,note_on,69,64,0
1,note_on,72,64,0
1,note_on,81,79,0
1,note_on,81,0,120
1,note_on,72,0,0
1,note_on,69,0,0
1,note_on,66,61,360
1,note_on,78,72,0
1,note_on,78,0,60
1,note_on,66,0,0
1,note_on,63,57,60
1,note_on,75,68,0
1,note_on,75,0,60
1,note_on,63,0,0
1,note_on,62,57,60
1,note_on,74,68,0
1,note_on,74,0,60
1,note_on,62,0,0
1,note_on,60,57,60
1,note_on,72,68,0
1,note_on,72,0,60
1,note_on,60,0,0
1,note_on,67,64,60
1,note_on,71,64,0
1,note_on,79,76,0
1,note_on,79,0,120
1,note_on,71,0,0
1,note_on,67,0,0
1,note_on,87,79,1320
1,note_on,78,66,0
1,note_on,75,66,0
1,note_on,75,0,120
1,note_on,78,0,0
1,note_on,87,0,0
1,note_on,84,73,240
1,note_on,75,62,0
1,note_on,72,62,0
1,note_on,72,0,120
1,note_on,75,0,0
1,note_on,84,0,0
1,note_on,72,66,0
1,note_on,75,66,0
1,note_on,84,79,0
1,note_on,84,0,120
1,note_on,75,0,0
1,note_on,72,0,0
1,note_on,69,61,480
1,note_on,72,61,0
1,note_on,81,72,0
1,note_on,81,0,120
1,note_on,72,0,0
1,note_on,69,0,0
1,note_on,69,64,0
1,note_on,72,64,0
1,note_on,81,79,0
1,note_on,81,0,120
1,note_on,72,0,0
1,note_on,69,0,0
1,note_on,66,61,360
1,note_on,78,72,0
1,note_on,78,0,60
1,note_on,66,0,0
1,note_on,63,57,60
1,note_on,75,68,0
1,note_on,75,0,60
1,note_on,63,0,0
1,note_on,62,57,60
1,note_on,74,68,0
1,note_on,74,0,60
1,note_on,62,0,0
1,note_on,60,57,60
1,note_on,72,68,0
1,note_on,72,0,60
1,note_on,60,0,0
1,note_on,67,64,60
1,note_on,71,64,0
1,note_on,79,76,0
1,note_on,79,0,120
1,note_on,71,0,0
1,note_on,67,0,0
1,note_on,62,55,240
1,note_on,62,0,120
1,note_on,60,56,120
1,note_on,60,0,120
1,note_on,59,58,120
1,note_on,59,0,120
1,note_on,57,59,120
1,note_on,57,0,120
1,note_on,55,61,120
1,note_on,55,0,120
1,note_on,68,62,120
1,note_on,68,0,120
1,note_on,66,63,120
1,note_on,66,0,120
1,note_on,65,65,120
1,note_on,65,0,120
1,note_on,63,66,120
1,note_on,63,0,120
1,note_on,61,68,115
1,note_on,61,0,120
1,note_on,80,68,5
1,note_on,77,68,0
1,note_on,85,68,0
1,note_on,89,81,0
1,note_on,89,0,120
1,note_on,80,0,0
1,note_on,77,0,0
1,note_on,85,0,0
1,note_on,86,70,120
1,note_on,83,70,0
1,note_on,79,70,0
1,note_on,91,82,0
1,note_on,91,0,120
1,note_on,86,0,0
1,note_on,83,0,0
1,note_on,79,0,0
1,note_on,62,61,240
1,note_on,62,0,120
1,note_on,60,62,120
1,note_on,60,0,120
1,note_on,59,63,120
1,note_on,59,0,120
1,note_on,57,64,120
1,note_on,57,0,120
1,note_on,55,66,120
1,note_on,55,0,120
1,note_on,68,67,120
1,note_on,68,0,120
1,note_on,66,70,120
1,note_on,66,0,120
1,note_on,65,72,120
1,note_on,65,0,120
1,note_on,63,72,120
1,note_on,63,0,120
1,note_on,61,74,120
1,note_on,61,0,120
1,note_on,80,57,0
1,note_on,77,57,0
1,note_on,85,57,0
1,note_on,89,68,0
1,note_on,89,0,120
1,note_on,80,0,0
1,note_on,77,0,0
1,note_on,85,0,0
1,note_on,91,66,120
1,note_on,86,66,0
1,note_on,83,66,0
1,note_on,95,80,0
1,note_on,95,0,720
1,note_on,91,0,0
1,note_on,86,0,0
1,note_on,83,0,0
1,note_on,84,67,0
1,note_on,89,67,0
1,note_on,92,67,0
1,note_on,96,81,0
1,note_on,96,0,720
1,note_on,84,0,0
1,note_on,89,0,0
1,note_on,92,0,0
1,note_on,85,72,0
1,note_on,89,72,0
1,note_on,92,72,0
1,note_on,97,86,0
1,note_on,97,0,720
1,note_on,85,0,0
1,note_on,89,0,0
1,note_on,92,0,0
1,note_on,86,77,0
1,note_on,89,77,0
1,note_on,92,77,0
1,note_on,98,91,0
1,note_on,98,0,720
1,note_on,86,0,0
1,note_on,89,0,0
1,note_on,92,0,0
1,note_on,101,86,0
1,note_on,98,86,0
1,note_on,96,72,0
1,note_on,89,72,0
1,note_on,89,0,360
1,note_on,101,0,0
1,note_on,98,0,0
1,note_on,96,0,0
1,note_on,89,72,0
1,note_on,96,72,0
1,note_on,98,86,0
1,note_on,101,86,0
1,note_on,101,0,360
1,note_on,89,0,0
1,note_on,96,0,0
1,note_on,98,0,0
1,note_on,89,72,0
1,note_on,96,72,0
1,note_on,98,86,0
1,note_on,101,86,0
1,note_on,101,0,360
1,note_on,89,0,0
1,note_on,96,0,0
1,note_on,98,0,0
1,note_on,89,72,0
1,note_on,96,72,0
1,note_on,98,86,0
1,note_on,101,86,0
1,note_on,101,0,360
1,note_on,89,0,0
1,note_on,96,0,0
1,note_on,98,0,0
1,note_on,50,72,0
1,note_on,53,72,0
1,note_on,59,79,0
1,note_on,59,0,120
1,note_on,53,0,0
1,note_on,50,0,0
1,note_on,92,74,120
1,note_on,92,0,54
1,note_on,91,73,0
1,note_on,91,0,53
1,note_on,90,72,0
1,note_on,89,71,53
1,note_on,90,0,1
1,note_on,89,0,53
1,note_on,88,70,0
1,note_on,88,0,53
1,note_on,87,69,0
1,note_on,87,0,54
1,note_on,86,67,0
1,note_on,86,0,53
1,note_on,85,66,0
1,note_on,84,65,53
1,note_on,85,0,1
1,note_on,83,79,52
1,note_on,84,0,1
1,note_on,83,0,119
1,note_on,80,63,120
1,note_on,80,0,54
1,note_on,79,62,0
1,note_on,79,0,53
1,note_on,78,61,0
1,note_on,78,0,53
1,note_on,77,60,0
1,note_on,76,59,53
1,note_on,77,0,1
1,note_on,76,0,52
1,note_on,75,58,1
1,note_on,75,0,54
1,note_on,74,56,0
1,note_on,74,0,53
1,note_on,73,55,0
1,note_on,73,0,53
1,note_on,72,55,0
1,note_on,71,66,53
1,note_on,72,0,1
1,note_on,71,0,119
1,note_on,68,53,120
1,note_on,68,0,54
1,note_on,67,52,0
1,note_on,67,0,53
1,note_on,66,51,0
1,note_on,66,0,53
1,note_on,65,50,0
1,note_on,64,50,53
1,note_on,65,0,1
1,note_on,64,0,52
1,note_on,63,49,1
1,note_on,63,0,54
1,note_on,62,47,0
1,note_on,62,0,53
1,note_on,61,46,0
1,note_on,61,0,53
1,note_on,60,46,0
1,note_on,59,55,53
1,note_on,60,0,1
1,note_on,59,0,119
1,note_on,56,53,120
1,note_on,56,0,53
1,note_on,55,52,0
1,note_on,55,0,53
1,note_on,54,51,1
1,note_on,54,0,53
1,note_on,53,50,0
1,note_on,53,0,53
1,note_on,52,50,0
1,note_on,52,0,53
1,note_on,51,49,1
1,note_on,51,0,53
1,note_on,50,47,0
1,note_on,50,0,53
1,note_on,49,46,1
1,note_on,49,0,53
1,note_on,48,46,0
1,note_on,48,0,53
1,note_on,47,43,0
1,note_on,47,0,54
1,note_on,48,45,0
1,note_on,48,0,53
1,note_on,49,46,0
1,note_on,49,0,53
1,note_on,50,48,0
1,note_on,50,0,53
1,note_on,51,50,0
1,note_on,51,0,53
1,note_on,52,51,1
1,note_on,52,0,53
1,note_on,53,54,0
1,note_on,53,0,53
1,note_on,54,54,1
1,note_on,54,0,53
1,note_on,55,56,0
1,note_on,55,0,53
1,note_on,56,58,0
1,note_on,56,0,53
1,note_on,55,57,1
1,note_on,55,0,53
1,note_on,54,55,0
1,note_on,54,0,53
1,note_on,53,54,1
1,note_on,53,0,53
1,note_on,52,54,0
1,note_on,52,0,53
1,note_on,51,52,0
1,note_on,51,0,53
1,note_on,50,51,1
1,note_on,50,0,53
1,note_on,49,50,0
1,note_on,49,0,53
1,note_on,48,49,1
1,note_on,47,58,52
1,note_on,48,0,1
1,note_on,47,0,239
1,note_on,55,50,480
1,note_on,55,0,240
1,note_on,84,90,1440
1,note_on,75,76,0
1,note_on,72,76,0
1,note_on,72,0,120
1,note_on,75,0,0
1,note_on,84,0,0
1,note_on,79,84,240
1,note_on,75,71,0
1,note_on,72,71,0
1,note_on,67,71,0
1,note_on,67,0,120
1,note_on,79,0,0
1,note_on,75,0,0
1,note_on,72,0,0
1,note_on,67,76,0
1,note_on,72,76,0
1,note_on,75,76,0
1,note_on,79,90,0
1,note_on,79,0,120
1,note_on,67,0,0
1,note_on,72,0,0
1,note_on,75,0,0
1,note_on,63,70,480
1,note_on,67,70,0
1,note_on,75,82,0
1,note_on,75,0,120
1,note_on,67,0,0
1,note_on,63,0,0
1,note_on,63,74,0
1,note_on,67,74,0
1,note_on,75,90,0
1,note_on,75,0,120
1,note_on,67,0,0
1,note_on,63,0,0
1,note_on,63,65,480
1,note_on,67,65,0
1,note_on,72,78,0
1,note_on,72,0,120
1,note_on,67,0,0
1,note_on,63,0,0
1,note_on,63,72,0
1,note_on,67,72,0
1,note_on,72,85,0
1,note_on,72,0,120
1,note_on,67,0,0
1,note_on,63,0,0
1,note_on,63,67,120
1,note_on,67,67,0
1,note_on,71,80,0
1,note_on,71,0,120
1,note_on,67,0,0
1,note_on,63,0,0
1,note_on,63,72,120
1,note_on,67,72,0
1,note_on,72,85,0
1,note_on,72,0,120
1,note_on,67,0,0
1,note_on,63,0,0
1,note_on,85,90,1440
1,note_on,77,76,0
1,note_on,73,76,0
1,note_on,73,0,120
1,note_on,77,0,0
1,note_on,85,0,0
1,note_on,80,84,240
1,note_on,73,71,0
1,note_on,68,71,0
1,note_on,68,0,120
1,note_on,73,0,0
1,note_on,80,0,0
1,note_on,68,76,0
1,note_on,73,76,0
1,note_on,80,90,0
1,note_on,80,0,120
1,note_on,73,0,0
1,note_on,68,0,0
1,note_on,65,70,480
1,note_on,68,70,0
1,note_on,77,82,0
1,note_on,77,0,120
1,note_on,68,0,0
1,note_on,65,0,0
1,note_on,65,74,0
1,note_on,68,74,0
1,note_on,77,90,0
1,note_on,77,0,120
1,note_on,68,0,0
1,note_on,65,0,0
1,note_on,61,65,480
1,note_on,68,65,0
1,note_on,73,78,0
1,note_on,73,0,120
1,note_on,68,0,0
1,note_on,61,0,0
1,note_on,61,72,0
1,note_on,68,72,0
1,note_on,73,85,0
1,note_on,73,0,120
1,note_on,68,0,0
1,note_on,61,0,0
1,note_on,60,67,120
1,note_on,68,67,0
1,note_on,72,80,0
1,note_on,72,0,120
1,note_on,68,0,0
1,note_on,60,0,0
1,note_on,61,72,120
1,note_on,68,72,0
1,note_on,73,85,0
1,note_on,73,0,120
1,note_on,68,0,0
1,note_on,61,0,0
1,note_on,62,45,600
1,note_on,67,45,0
1,note_on,74,53,0
1,note_on,74,0,120
1,note_on,67,0,0
1,note_on,62,0,0
1,note_on,58,40,120
1,note_on,58,0,60
1,note_on,60,41,0
1,note_on,60,0,60
1,note_on,62,44,0
1,note_on,62,0,60
1,note_on,63,45,0
1,note_on,63,0,60
1,note_on,65,47,0
1,note_on,65,0,120
1,note_on,63,47,120
1,note_on,66,47,0
1,note_on,75,57,0
1,note_on,75,0,120
1,note_on,66,0,0
1,note_on,63,0,0
1,note_on,78,59,120
1,note_on,66,49,0
1,note_on,70,49,0
1,note_on,70,0,120
1,note_on,66,0,0
1,note_on,78,0,0
1,note_on,74,51,120
1,note_on,70,51,0
1,note_on,82,60,0
1,note_on,82,0,120
1,note_on,70,0,0
1,note_on,74,0,0
1,note_on,65,42,120
1,note_on,65,0,60
1,note_on,63,43,0
1,note_on,63,0,60
1,note_on,62,45,0
1,note_on,62,0,60
1,note_on,60,46,0
1,note_on,60,0,60
1,note_on,58,49,0
1,note_on,58,0,120
1,note_on,71,54,120
1,note_on,75,54,0
1,note_on,83,64,0
1,note_on,83,0,120
1,note_on,75,0,0
1,note_on,71,0,0
1,note_on,87,66,120
1,note_on,75,55,0
1,note_on,83,55,0
1,note_on,83,0,120
1,note_on,75,0,0
1,note_on,87,0,0
1,note_on,83,57,120
1,note_on,76,57,0
1,note_on,88,68,0
1,note_on,88,0,120
1,note_on,76,0,0
1,note_on,83,0,0
1,note_on,64,47,120
1,note_on,64,0,60
1,note_on,66,48,0
1,note_on,66,0,60
1,note_on,68,51,0
1,note_on,68,0,60
1,note_on,69,52,0
1,note_on,69,0,60
1,note_on,71,56,0
1,note_on,71,0,120
1,note_on,75,61,120
1,note_on,84,61,0
1,note_on,87,72,0
1,note_on,87,0,120
1,note_on,84,0,0
1,note_on,75,0,0
1,note_on,96,75,120
1,note_on,84,63,0
1,note_on,87,63,0
1,note_on,87,0,120
1,note_on,84,0,0
1,note_on,96,0,0
1,note_on,88,65,120
1,note_on,83,65,0
1,note_on,95,77,0
1,note_on,95,0,120
1,note_on,83,0,0
1,note_on,88,0,0
1,note_on,71,51,120
1,note_on,71,0,60
1,note_on,69,52,0
1,note_on,69,0,60
1,note_on,68,54,0
1,note_on,68,0,60
1,note_on,66,56,0
1,note_on,66,0,60
1,note_on,64,61,0
1,note_on,64,0,120
1,note_on,82,65,120
1,note_on,85,65,0
1,note_on,94,79,0
1,note_on,94,0,120
1,note_on,85,0,0
1,note_on,82,0,0
1,note_on,97,81,120
1,note_on,85,67,0
1,note_on,94,67,0
1,note_on,94,0,120
1,note_on,85,0,0
1,note_on,97,0,0
1,note_on,93,70,120
1,note_on,86,70,0
1,note_on,98,83,0
1,note_on,98,0,120
1,note_on,86,0,0
1,note_on,93,0,0
1,note_on,62,52,120
1,note_on,62,0,60
1,note_on,64,54,0
1,note_on,64,0,60
1,note_on,66,56,0
1,note_on,66,0,60
1,note_on,67,59,0
1,note_on,67,0,60
1,note_on,69,63,0
1,note_on,69,0,120
1,note_on,95,72,120
1,note_on,92,72,0
1,note_on,86,72,0
1,note_on,98,85,0
1,note_on,98,0,120
1,note_on,95,0,0
1,note_on,92,0,0
1,note_on,86,0,0
1,note_on,62,50,120
1,note_on,62,0,60
1,note_on,65,51,0
1,note_on,65,0,60
1,note_on,68,54,0
1,note_on,68,0,60
1,note_on,70,55,0
1,note_on,70,0,60
1,note_on,71,67,0
1,note_on,71,0,120
1,note_on,74,54,120
1,note_on,74,0,60
1,note_on,77,55,0
1,note_on,77,0,60
1,note_on,80,58,0
1,note_on,80,0,60
1,note_on,82,60,0
1,note_on,82,0,60
1,note_on,83,71,0
1,note_on,83,0,120
1,note_on,86,58,120
1,note_on,86,0,60
1,note_on,89,59,0
1,note_on,89,0,60
1,note_on,92,62,0
1,note_on,92,0,60
1,note_on,94,63,0
1,note_on,94,0,60
1,note_on,95,75,0
1,note_on,95,0,120
1,note_on,87,77,240
1,note_on,95,77,0
1,note_on,99,90,0
1,note_on,99,0,120
1,note_on,95,0,0
1,note_on,87,0,0
1,note_on,99,86,0
1,note_on,95,72,0
1,note_on,87,72,0
1,note_on,87,0,120
1,note_on,95,0,0
1,note_on,99,0,0
1,note_on,83,78,120
1,note_on,87,78,0
1,note_on,95,91,0
1,note_on,95,0,120
1,note_on,87,0,0
1,note_on,83,0,0
1,note_on,78,69,240
1,note_on,83,69,0
1,note_on,90,82,0
1,note_on,90,0,120
1,note_on,83,0,0
1,note_on,78,0,0
1,note_on,78,69,0
1,note_on,83,69,0
1,note_on,90,82,0
1,note_on,90,0,120
1,note_on,83,0,0
1,note_on,78,0,0
1,note_on,75,68,480
1,note_on,83,68,0
1,note_on,87,81,0
1,note_on,87,0,120
1,note_on,83,0,0
1,note_on,75,0,0
1,note_on,75,75,0
1,note_on,83,75,0
1,note_on,87,89,0
1,note_on,87,0,120
1,note_on,83,0,0
1,note_on,75,0,0
1,note_on,74,70,120
1,note_on,83,70,0
1,note_on,86,83,0
1,note_on,86,0,120
1,note_on,83,0,0
1,note_on,74,0,0
1,note_on,75,75,120
1,note_on,83,75,0
1,note_on,87,89,0
1,note_on,87,0,120
1,note_on,83,0,0
1,note_on,75,0,0
1,note_on,78,70,360
1,note_on,83,70,0
1,note_on,90,79,0
1,note_on,90,0,120
1,note_on,83,0,0
1,note_on,78,0,0
1,note_on,74,73,240
1,note_on,86,87,0
1,note_on,86,0,120
1,note_on,74,0,0
1,note_on,87,82,0
1,note_on,75,70,0
1,note_on,75,0,120
1,note_on,87,0,0
1,note_on,78,74,120
1,note_on,84,74,0
1,note_on,90,88,0
1,note_on,90,0,120
1,note_on,84,0,0
1,note_on,78,0,0
1,note_on,74,66,240
1,note_on,86,79,0
1,note_on,86,0,120
1,note_on,74,0,0
1,note_on,75,66,0
1,note_on,87,79,0
1,note_on,87,0,120
1,note_on,75,0,0
1,note_on,82,75,120
1,note_on,86,81,0
1,note_on,94,94,0
1,note_on,94,0,120
1,note_on,86,0,0
1,note_on,82,0,0
1,note_on,90,79,1320
1,note_on,81,66,0
1,note_on,78,66,0
1,note_on,78,0,120
1,note_on,81,0,0
1,note_on,90,0,0
1,note_on,87,73,240
1,note_on,78,62,0
1,note_on,75,62,0
1,note_on,75,0,120
1,note_on,78,0,0
1,note_on,87,0,0
1,note_on,75,66,0
1,note_on,78,66,0
1,note_on,87,79,0
1,note_on,87,0,120
1,note_on,78,0,0
1,note_on,75,0,0
1,note_on,72,61,480
1,note_on,75,61,0
1,note_on,84,72,0
1,note_on,84,0,120
1,note_on,75,0,0
1,note_on,72,0,0
1,note_on,72,64,0
1,note_on,75,64,0
1,note_on,84,79,0
1,note_on,84,0,120
1,note_on,75,0,0
1,note_on,72,0,0
1,note_on,72,61,360
1,note_on,69,61,0
1,note_on,81,72,0
1,note_on,81,0,60
1,note_on,69,0,0
1,note_on,72,0,0
1,note_on,66,57,60
1,note_on,78,68,0
1,note_on,78,0,60
1,note_on,66,0,0
1,note_on,65,57,60
1,note_on,77,68,0
1,note_on,77,0,60
1,note_on,65,0,0
1,note_on,63,57,60
1,note_on,75,68,0
1,note_on,75,0,60
1,note_on,63,0,0
1,note_on,70,64,60
1,note_on,74,64,0
1,note_on,82,76,0
1,note_on,82,0,120
1,note_on,74,0,0
1,note_on,70,0,0
1,note_on,65,75,240
1,note_on,65,0,120
1,note_on,63,72,120
1,note_on,63,0,120
1,note_on,62,70,120
1,note_on,62,0,120
1,note_on,59,66,120
1,note_on,59,0,120
1,note_on,58,63,120
1,note_on,58,0,120
1,note_on,99,90,0
1,note_on,90,76,0
1,note_on,87,76,0
1,note_on,87,0,120
1,note_on,90,0,0
1,note_on,99,0,0
1,note_on,96,84,240
1,note_on,87,71,0
1,note_on,84,71,0
1,note_on,84,0,120
1,note_on,87,0,0
1,note_on,96,0,0
1,note_on,84,76,0
1,note_on,87,76,0
1,note_on,96,90,0
1,note_on,96,0,120
1,note_on,87,0,0
1,note_on,84,0,0
1,note_on,81,70,480
1,note_on,84,70,0
1,note_on,93,82,0
1,note_on,93,0,120
1,note_on,84,0,0
1,note_on,81,0,0
1,note_on,81,73,0
1,note_on,84,73,0
1,note_on,93,90,0
1,note_on,93,0,120
1,note_on,84,0,0
1,note_on,81,0,0
1,note_on,78,70,360
1,note_on,81,70,0
1,note_on,90,82,0
1,note_on,90,0,60
1,note_on,81,0,0
1,note_on,78,0,0
1,note_on,77,65,60
1,note_on,89,78,0
1,note_on,89,0,60
1,note_on,77,0,0
1,note_on,76,65,60
1,note_on,88,78,0
1,note_on,88,0,60
1,note_on,76,0,0
1,note_on,75,65,60
1,note_on,87,78,0
1,note_on,87,0,60
1,note_on,75,0,0
1,note_on,82,73,60
1,note_on,86,73,0
1,note_on,94,87,0
1,note_on,94,0,120
1,note_on,86,0,0
1,note_on,82,0,0
1,note_on,68,45,240
1,note_on,70,54,0
1,note_on,70,0,120
1,note_on,68,0,0
1,note_on,68,47,120
1,note_on,70,56,0
1,note_on,70,0,120
1,note_on,68,0,0
1,note_on,68,50,120
1,note_on,70,59,0
1,note_on,70,0,120
1,note_on,68,0,0
1,note_on,68,52,120
1,note_on,70,62,0
1,note_on,70,0,120
1,note_on,68,0,0
1,note_on,68,54,120
1,note_on,70,64,0
1,note_on,70,0,120
1,note_on,68,0,0
1,note_on,59,68,0
1,note_on,71,68,0
1,note_on,71,0,120
1,note_on,59,0,0
1,note_on,64,56,0
1,note_on,64,0,120
1,note_on,68,58,0
1,note_on,68,0,120
1,note_on,71,61,0
1,note_on,71,0,120
1,note_on,76,63,0
1,note_on,76,0,120
1,note_on,80,64,0
1,note_on,80,0,120
1,note_on,83,66,0
1,note_on,83,0,120
1,note_on,88,68,0
1,note_on,88,0,120
1,note_on,92,70,0
1,note_on,92,0,120
1,note_on,94,72,0
1,note_on,94,0,120
1,note_on,95,74,0
1,note_on,88,63,0
1,note_on,83,63,0
1,note_on,83,0,120
1,note_on,88,0,0
1,note_on,95,0,0
1,note_on,86,81,120
1,note_on,89,81,0
1,note_on,98,92,0
1,note_on,98,0,120
1,note_on,89,0,0
1,note_on,86,0,0
1,note_on,68,47,240
1,note_on,70,56,0
1,note_on,70,0,120
1,note_on,68,0,0
1,note_on,68,49,120
1,note_on,70,59,0
1,note_on,70,0,120
1,note_on,68,0,0
1,note_on,68,52,120
1,note_on,70,62,0
1,note_on,70,0,120
1,note_on,68,0,0
1,note_on,68,54,120
1,note_on,70,64,0
1,note_on,70,0,120
1,note_on,68,0,0
1,note_on,68,57,120
1,note_on,70,67,0
1,note_on,70,0,120
1,note_on,68,0,0
1,note_on,59,71,0
1,note_on,71,71,0
1,note_on,71,0,120
1,note_on,59,0,0
1,note_on,64,59,0
1,note_on,64,0,120
1,note_on,68,61,0
1,note_on,68,0,120
1,note_on,71,63,0
1,note_on,71,0,120
1,note_on,76,65,0
1,note_on,76,0,120
1,note_on,80,67,0
1,note_on,80,0,120
1,note_on,83,69,0
1,note_on,83,0,120
1,note_on,88,71,0
1,note_on,88,0,120
1,note_on,92,72,0
1,note_on,92,0,120
1,note_on,94,76,0
1,note_on,94,0,120
1,note_on,95,78,0
1,note_on,88,65,0
1,note_on,83,65,0
1,note_on,83,0,120
1,note_on,88,0,0
1,note_on,95,0,0
1,note_on,86,84,120
1,note_on,89,84,0
1,note_on,98,97,0
1,note_on,98,0,120
1,note_on,89,0,0
1,note_on,86,0,0
1,note_on,82,79,240
1,note_on,74,66,0
1,note_on,70,66,0
1,note_on,70,0,120
1,note_on,74,0,0
1,note_on,82,0,0
1,note_on,70,63,0
1,note_on,74,63,0
1,note_on,82,74,0
1,note_on,82,0,240
1,note_on,74,0,0
1,note_on,70,0,0
1,note_on,70,67,0
1,note_on,74,67,0
1,note_on,82,80,0
1,note_on,82,0,120
1,note_on,74,0,0
1,note_on,70,0,0
1,note_on,71,71,240
1,note_on,75,71,0
1,note_on,83,83,0
1,note_on,83,0,120
1,note_on,75,0,0
1,note_on,71,0,0
1,note_on,71,65,0
1,note_on,75,65,0
1,note_on,83,77,0
1,note_on,83,0,240
1,note_on,75,0,0
1,note_on,71,0,0
1,note_on,71,71,0
1,note_on,75,71,0
1,note_on,83,83,0
1,note_on,83,0,120
1,note_on,75,0,0
1,note_on,71,0,0
1,note_on,84,86,240
1,note_on,76,72,0
1,note_on,72,72,0
1,note_on,72,0,120
1,note_on,76,0,0
1,note_on,84,0,0
1,note_on,72,67,0
1,note_on,76,67,0
1,note_on,84,80,0
1,note_on,84,0,240
1,note_on,76,0,0
1,note_on,72,0,0
1,note_on,72,71,0
1,note_on,76,71,0
1,note_on,84,84,0
1,note_on,84,0,120
1,note_on,76,0,0
1,note_on,72,0,0
1,note_on,73,72,240
1,note_on,77,72,0
1,note_on,85,86,0
1,note_on,85,0,120
1,note_on,77,0,0
1,note_on,73,0,0
1,note_on,73,68,0
1,note_on,77,68,0
1,note_on,85,81,0
1,note_on,85,0,240
1,note_on,77,0,0
1,note_on,73,0,0
1,note_on,73,72,0
1,note_on,77,72,0
1,note_on,85,85,0
1,note_on,85,0,120
1,note_on,77,0,0
1,note_on,73,0,0
1,note_on,77,72,240
1,note_on,89,85,0
1,note_on,85,85,0
1,note_on,80,72,0
1,note_on,80,0,120
1,note_on,77,0,0
1,note_on,89,0,0
1,note_on,85,0,0
1,note_on,77,69,0
1,note_on,80,69,0
1,note_on,85,81,0
1,note_on,89,81,0
1,note_on,89,0,240
1,note_on,77,0,0
1,note_on,80,0,0
1,note_on,85,0,0
1,note_on,77,74,0
1,note_on,80,74,0
1,note_on,85,88,0
1,note_on,89,88,0
1,note_on,89,0,120
1,note_on,77,0,0
1,note_on,80,0,0
1,note_on,85,0,0
1,note_on,80,78,240
1,note_on,86,78,0
1,note_on,94,92,0
1,note_on,94,0,120
1,note_on,86,0,0
1,note_on,80,0,0
1,note_on,80,72,0
1,note_on,86,72,0
1,note_on,94,86,0
1,note_on,94,0,240
1,note_on,86,0,0
1,note_on,80,0,0
1,note_on,80,80,0
1,note_on,86,80,0
1,note_on,94,94,0
1,note_on,94,0,120
1,note_on,86,0,0
1,note_on,80,0,0
1,note_on,70,53,240
1,note_on,70,0,60
1,note_on,70,48,60
1,note_on,70,0,120
1,note_on,70,51,120
1,note_on,70,0,120
1,note_on,70,43,240
1,note_on,70,0,60
1,note_on,70,46,60
1,note_on,70,0,120
1,note_on,67,37,120
1,note_on,70,37,0
1,note_on,79,53,0
1,note_on,79,0,240
1,note_on,70,0,0
1,note_on,67,0,0
1,note_on,70,33,120
1,note_on,75,43,0
1,note_on,75,0,60
1,note_on,70,0,0
1,note_on,70,33,60
1,note_on,75,43,0
1,note_on,75,0,120
1,note_on,70,0,0
1,note_on,70,37,120
1,note_on,75,49,0
1,note_on,75,0,120
1,note_on,70,0,0
1,note_on,67,34,240
1,note_on,70,44,0
1,note_on,70,0,60
1,note_on,67,0,0
1,note_on,67,34,60
1,note_on,70,44,0
1,note_on,70,0,120
1,note_on,67,0,0
1,note_on,63,39,120
1,note_on,67,51,0
1,note_on,67,0,120
1,note_on,63,0,0
1,note_on,60,36,240
1,note_on,63,45,0
1,note_on,63,0,60
1,note_on,60,0,0
1,note_on,60,36,60
1,note_on,63,45,0
1,note_on,63,0,120
1,note_on,60,0,0
1,note_on,60,39,120
1,note_on,63,51,0
1,note_on,63,0,720
1,note_on,60,0,0
1,note_on,58,37,0
1,note_on,62,37,0
1,note_on,70,49,0
1,note_on,70,0,240
1,note_on,62,0,0
1,note_on,58,0,0
1,note_on,58,34,120
1,note_on,65,44,0
1,note_on,65,0,60
1,note_on,58,0,0
1,note_on,58,34,60
1,note_on,65,44,0
1,note_on,65,0,120
1,note_on,58,0,0
1,note_on,58,37,120
1,note_on,64,49,0
1,note_on,64,0,120
1,note_on,58,0,0
1,note_on,58,39,120
1,note_on,65,51,0
1,note_on,65,0,120
1,note_on,58,0,0
1,note_on,58,39,120
1,note_on,66,39,0
1,note_on,70,51,0
1,note_on,70,0,120
1,note_on,66,0,0
1,note_on,58,0,0
1,note_on,58,42,120
1,note_on,67,42,0
1,note_on,70,54,0
1,note_on,70,0,720
1,note_on,67,0,0
1,note_on,58,0,0
1,note_on,63,37,0
1,note_on,67,49,0
1,note_on,67,0,240
1,note_on,63,0,0
1,note_on,70,37,480
1,note_on,75,37,0
1,note_on,79,53,0
1,note_on,79,0,240
1,note_on,75,0,0
1,note_on,70,0,0
1,note_on,67,33,120
1,note_on,70,33,0
1,note_on,75,43,0
1,note_on,75,0,60
1,note_on,70,0,0
1,note_on,67,0,0
1,note_on,67,33,60
1,note_on,70,33,0
1,note_on,75,43,0
1,note_on,75,0,120
1,note_on,70,0,0
1,note_on,67,0,0
1,note_on,67,37,120
1,note_on,70,37,0
1,note_on,75,49,0
1,note_on,75,0,120
1,note_on,70,0,0
1,note_on,67,0,0
1,note_on,63,34,240
1,note_on,67,34,0
1,note_on,70,44,0
1,note_on,70,0,60
1,note_on,67,0,0
1,note_on,63,0,0
1,note_on,63,34,60
1,note_on,67,34,0
1,note_on,70,44,0
1,note_on,70,0,120
1,note_on,67,0,0
1,note_on,63,0,0
1,note_on,63,39,120
1,note_on,67,51,0
1,note_on,67,0,120
1,note_on,63,0,0
1,note_on,60,36,240
1,note_on,63,45,0
1,note_on,63,0,60
1,note_on,60,0,0
1,note_on,60,36,60
1,note_on,63,45,0
1,note_on,63,0,120
1,note_on,60,0,0
1,note_on,60,39,120
1,note_on,63,51,0
1,note_on,63,0,720
1,note_on,60,0,0
1,note_on,59,37,0
1,note_on,62,37,0
1,note_on,71,49,0
1,note_on,71,0,240
1,note_on,62,0,0
1,note_on,59,0,0
1,note_on,59,34,120
1,note_on,62,44,0
1,note_on,62,0,60
1,note_on,59,0,0
1,note_on,59,34,60
1,note_on,62,44,0
1,note_on,62,0,120
1,note_on,59,0,0
1,note_on,59,37,120
1,note_on,61,49,0
1,note_on,61,0,120
1,note_on,59,0,0
1,note_on,59,39,120
1,note_on,62,51,0
1,note_on,62,0,120
1,note_on,59,0,0
1,note_on,59,39,120
1,note_on,62,39,0
1,note_on,67,51,0
1,note_on,67,0,120
1,note_on,62,0,0
1,note_on,59,0,0
1,note_on,59,42,120
1,note_on,67,42,0
1,note_on,71,54,0
1,note_on,71,0,720
1,note_on,67,0,0
1,note_on,59,0,0
1,note_on,58,37,0
1,note_on,62,37,0
1,note_on,70,49,0
1,note_on,70,0,720
1,note_on,62,0,0
1,note_on,58,0,0
1,note_on,79,60,0
1,note_on,82,60,0
1,note_on,91,78,0
1,note_on,91,0,240
1,note_on,82,0,0
1,note_on,79,0,0
1,note_on,75,54,120
1,note_on,79,54,0
1,note_on,87,64,0
1,note_on,87,0,60
1,note_on,79,0,0
1,note_on,75,0,0
1,note_on,75,54,60
1,note_on,79,54,0
1,note_on,87,64,0
1,note_on,87,0,120
1,note_on,79,0,0
1,note_on,75,0,0
1,note_on,75,60,120
1,note_on,79,60,0
1,note_on,87,72,0
1,note_on,87,0,120
1,note_on,79,0,0
1,note_on,75,0,0
1,note_on,70,53,240
1,note_on,75,53,0
1,note_on,82,63,0
1,note_on,82,0,60
1,note_on,75,0,0
1,note_on,70,0,0
1,note_on,70,53,60
1,note_on,75,53,0
1,note_on,82,63,0
1,note_on,82,0,120
1,note_on,75,0,0
1,note_on,70,0,0
1,note_on,67,61,120
1,note_on,75,61,0
1,note_on,79,72,0
1,note_on,79,0,120
1,note_on,75,0,0
1,note_on,67,0,0
1,note_on,67,54,240
1,note_on,72,54,0
1,note_on,75,64,0
1,note_on,75,0,60
1,note_on,72,0,0
1,note_on,67,0,0
1,note_on,67,54,60
1,note_on,72,54,0
1,note_on,75,64,0
1,note_on,75,0,120
1,note_on,72,0,0
1,note_on,67,0,0
1,note_on,67,60,120
1,note_on,72,60,0
1,note_on,75,71,0
1,note_on,75,0,720
1,note_on,72,0,0
1,note_on,67,0,0
1,note_on,68,50,0
1,note_on,70,50,0
1,note_on,74,50,0
1,note_on,82,60,0
1,note_on,82,0,240
1,note_on,68,0,0
1,note_on,70,0,0
1,note_on,74,0,0
1,note_on,68,45,120
1,note_on,70,45,0
1,note_on,77,54,0
1,note_on,77,0,60
1,note_on,70,0,0
1,note_on,68,0,0
1,note_on,68,45,60
1,note_on,70,45,0
1,note_on,77,54,0
1,note_on,77,0,120
1,note_on,70,0,0
1,note_on,68,0,0
1,note_on,68,50,120
1,note_on,70,50,0
1,note_on,76,60,0
1,note_on,76,0,120
1,note_on,70,0,0
1,note_on,68,0,0
1,note_on,68,54,120
1,note_on,70,54,0
1,note_on,77,63,0
1,note_on,77,0,120
1,note_on,70,0,0
1,note_on,68,0,0
1,note_on,68,54,120
1,note_on,70,54,0
1,note_on,78,54,0
1,note_on,82,63,0
1,note_on,82,0,120
1,note_on,68,0,0
1,note_on,70,0,0
1,note_on,78,0,0
1,note_on,70,56,120
1,note_on,79,56,0
1,note_on,82,67,0
1,note_on,82,0,720
1,note_on,79,0,0
1,note_on,70,0,0
1,note_on,67,50,0
1,note_on,70,50,0
1,note_on,79,60,0
1,note_on,79,0,240
1,note_on,70,0,0
1,note_on,67,0,0
1,note_on,87,67,480
1,note_on,91,67,0
1,note_on,99,87,0
1,note_on,99,0,240
1,note_on,91,0,0
1,note_on,87,0,0
1,note_on,82,60,120
1,note_on,87,60,0
1,note_on,94,72,0
1,note_on,94,0,60
1,note_on,87,0,0
1,note_on,82,0,0
1,note_on,82,61,60
1,note_on,87,61,0
1,note_on,94,72,0
1,note_on,94,0,120
1,note_on,87,0,0
1,note_on,82,0,0
1,note_on,82,69,120
1,note_on,87,69,0
1,note_on,94,82,0
1,note_on,94,0,120
1,note_on,87,0,0
1,note_on,82,0,0
1,note_on,79,62,240
1,note_on,87,62,0
1,note_on,91,72,0
1,note_on,91,0,60
1,note_on,87,0,0
1,note_on,79,0,0
1,note_on,79,62,60
1,note_on,87,62,0
1,note_on,91,73,0
1,note_on,91,0,120
1,note_on,87,0,0
1,note_on,79,0,0
1,note_on,79,72,120
1,note_on,87,72,0
1,note_on,91,86,0
1,note_on,91,0,120
1,note_on,87,0,0
1,note_on,79,0,0
1,note_on,75,66,240
1,note_on,84,66,0
1,note_on,87,78,0
1,note_on,87,0,60
1,note_on,84,0,0
1,note_on,75,0,0
1,note_on,75,66,60
1,note_on,84,66,0
1,note_on,87,79,0
1,note_on,87,0,120
1,note_on,84,0,0
1,note_on,75,0,0
1,note_on,75,74,120
1,note_on,84,74,0
1,note_on,87,87,0
1,note_on,87,0,720
1,note_on,84,0,0
1,note_on,75,0,0
1,note_on,83,72,0
1,note_on,86,72,0
1,note_on,95,87,0
1,note_on,95,0,240
1,note_on,86,0,0
1,note_on,83,0,0
1,note_on,74,64,120
1,note_on,83,64,0
1,note_on,86,78,0
1,note_on,86,0,60
1,note_on,83,0,0
1,note_on,74,0,0
1,note_on,74,64,60
1,note_on,83,64,0
1,note_on,86,78,0
1,note_on,86,0,120
1,note_on,83,0,0
1,note_on,74,0,0
1,note_on,73,68,120
1,note_on,82,68,0
1,note_on,85,82,0
1,note_on,85,0,120
1,note_on,82,0,0
1,note_on,73,0,0
1,note_on,74,77,120
1,note_on,83,77,0
1,note_on,86,90,0
1,note_on,86,0,120
1,note_on,83,0,0
1,note_on,74,0,0
1,note_on,79,77,120
1,note_on,83,77,0
1,note_on,91,90,0
1,note_on,91,0,120
1,note_on,83,0,0
1,note_on,79,0,0
1,note_on,86,72,120
1,note_on,95,87,0
1,note_on,83,72,0
1,note_on,83,0,240
1,note_on,95,0,0
1,note_on,86,0,0
1,note_on,78,64,120
1,note_on,90,78,0
1,note_on,86,64,0
1,note_on,86,0,60
1,note_on,90,0,0
1,note_on,78,0,0
1,note_on,86,64,60
1,note_on,78,64,0
1,note_on,90,78,0
1,note_on,90,0,120
1,note_on,78,0,0
1,note_on,86,0,0
1,note_on,78,72,120
1,note_on,90,87,0
1,note_on,86,72,0
1,note_on,86,0,720
1,note_on,90,0,0
1,note_on,78,0,0
1,note_on,82,64,0
1,note_on,85,64,0
1,note_on,94,78,0
1,note_on,94,0,240
1,note_on,85,0,0
1,note_on,82,0,0
1,note_on,73,57,120
1,note_on,82,57,0
1,note_on,85,70,0
1,note_on,85,0,60
1,note_on,82,0,0
1,note_on,73,0,0
1,note_on,73,57,60
1,note_on,82,57,0
1,note_on,85,70,0
1,note_on,85,0,120
1,note_on,82,0,0
1,note_on,73,0,0
1,note_on,72,64,120
1,note_on,81,64,0
1,note_on,84,78,0
1,note_on,84,0,120
1,note_on,81,0,0
1,note_on,72,0,0
1,note_on,73,69,120
1,note_on,82,69,0
1,note_on,85,81,0
1,note_on,85,0,120
1,note_on,82,0,0
1,note_on,73,0,0
1,note_on,78,69,120
1,note_on,82,69,0
1,note_on,90,81,0
1,note_on,90,0,120
1,note_on,82,0,0
1,note_on,78,0,0
1,note_on,85,64,120
1,note_on,94,78,0
1,note_on,82,64,0
1,note_on,82,0,240
1,note_on,94,0,0
1,note_on,85,0,0
1,note_on,77,57,120
1,note_on,89,70,0
1,note_on,85,57,0
1,note_on,85,0,60
1,note_on,89,0,0
1,note_on,77,0,0
1,note_on,85,57,60
1,note_on,77,57,0
1,note_on,89,70,0
1,note_on,89,0,120
1,note_on,77,0,0
1,note_on,85,0,0
1,note_on,77,64,120
1,note_on,89,78,0
1,note_on,85,64,0
1,note_on,85,0,720
1,note_on,89,0,0
1,note_on,77,0,0
1,note_on,81,59,0
1,note_on,84,59,0
1,note_on,93,70,0
1,note_on,93,0,240
1,note_on,84,0,0
1,note_on,81,0,0
1,note_on,72,51,120
1,note_on,81,61,0
1,note_on,84,61,0
1,note_on,84,0,60
1,note_on,81,0,0
1,note_on,72,0,0
1,note_on,72,51,60
1,note_on,81,61,0
1,note_on,84,61,0
1,note_on,84,0,120
1,note_on,81,0,0
1,note_on,72,0,0
1,note_on,76,61,120
1,note_on,84,61,0
1,note_on,88,72,0
1,note_on,88,0,120
1,note_on,84,0,0
1,note_on,76,0,0
1,note_on,75,54,240
1,note_on,83,54,0
1,note_on,87,64,0
1,note_on,87,0,60
1,note_on,83,0,0
1,note_on,75,0,0
1,note_on,76,54,60
1,note_on,84,54,0
1,note_on,88,64,0
1,note_on,88,0,120
1,note_on,84,0,0
1,note_on,76,0,0
1,note_on,80,59,120
1,note_on,83,59,0
1,note_on,92,70,0
1,note_on,92,0,240
1,note_on,83,0,0
1,note_on,80,0,0
1,note_on,71,51,120
1,note_on,80,61,0
1,note_on,83,61,0
1,note_on,83,0,60
1,note_on,80,0,0
1,note_on,71,0,0
1,note_on,71,51,60
1,note_on,80,61,0
1,note_on,83,61,0
1,note_on,83,0,120
1,note_on,80,0,0
1,note_on,71,0,0
1,note_on,75,61,120
1,note_on,83,61,0
1,note_on,87,72,0
1,note_on,87,0,120
1,note_on,83,0,0
1,note_on,75,0,0
1,note_on,74,54,240
1,note_on,83,54,0
1,note_on,86,64,0
1,note_on,86,0,60
1,note_on,83,0,0
1,note_on,74,0,0
1,note_on,75,54,60
1,note_on,83,54,0
1,note_on,87,64,0
1,note_on,87,0,120
1,note_on,83,0,0
1,note_on,75,0,0
1,note_on,79,59,120
1,note_on,82,59,0
1,note_on,91,70,0
1,note_on,91,0,240
1,note_on,82,0,0
1,note_on,79,0,0
1,note_on,70,50,120
1,note_on,75,60,0
1,note_on,79,60,0
1,note_on,79,0,60
1,note_on,75,0,0
1,note_on,70,0,0
1,note_on,70,50,60
1,note_on,75,60,0
1,note_on,79,60,0
1,note_on,79,0,120
1,note_on,75,0,0
1,note_on,70,0,0
1,note_on,78,59,120
1,note_on,82,59,0
1,note_on,90,71,0
1,note_on,90,0,120
1,note_on,82,0,0
1,note_on,78,0,0
1,note_on,70,53,240
1,note_on,75,53,0
1,note_on,78,62,0
1,note_on,78,0,60
1,note_on,75,0,0
1,note_on,70,0,0
1,note_on,70,52,60
1,note_on,75,52,0
1,note_on,78,62,0
1,note_on,78,0,120
1,note_on,75,0,0
1,note_on,70,0,0
1,note_on,76,55,120
1,note_on,80,55,0
1,note_on,88,66,0
1,note_on,88,0,240
1,note_on,80,0,0
1,note_on,76,0,0
1,note_on,68,47,120
1,note_on,71,56,0
1,note_on,76,56,0
1,note_on,76,0,60
1,note_on,71,0,0
1,note_on,68,0,0
1,note_on,68,47,60
1,note_on,71,56,0
1,note_on,76,56,0
1,note_on,76,0,120
1,note_on,71,0,0
1,note_on,68,0,0
1,note_on,75,56,120
1,note_on,78,56,0
1,note_on,87,67,0
1,note_on,87,0,120
1,note_on,78,0,0
1,note_on,75,0,0
1,note_on,66,50,240
1,note_on,69,50,0
1,note_on,75,59,0
1,note_on,75,0,60
1,note_on,69,0,0
1,note_on,66,0,0
1,note_on,66,49,60
1,note_on,69,49,0
1,note_on,75,58,0
1,note_on,75,0,120
1,note_on,69,0,0
1,note_on,66,0,0
1,note_on,87,76,60
1,note_on,87,0,60
1,note_on,73,70,0
1,note_on,85,82,0
1,note_on,85,0,240
1,note_on,73,0,0
1,note_on,66,47,120
1,note_on,70,56,0
1,note_on,73,56,0
1,note_on,73,0,60
1,note_on,70,0,0
1,note_on,66,0,0
1,note_on,67,47,60
1,note_on,70,56,0
1,note_on,73,56,0
1,note_on,73,0,120
1,note_on,70,0,0
1,note_on,67,0,0
1,note_on,67,56,120
1,note_on,70,56,0
1,note_on,73,67,0
1,note_on,73,0,120
1,note_on,70,0,0
1,note_on,67,0,0
1,note_on,68,50,240
1,note_on,71,50,0
1,note_on,73,59,0
1,note_on,73,0,60
1,note_on,71,0,0
1,note_on,68,0,0
1,note_on,65,49,60
1,note_on,68,49,0
1,note_on,73,58,0
1,note_on,73,0,120
1,note_on,68,0,0
1,note_on,65,0,0
1,note_on,87,76,60
1,note_on,87,0,60
1,note_on,73,70,0
1,note_on,85,82,0
1,note_on,85,0,240
1,note_on,73,0,0
1,note_on,66,47,120
1,note_on,70,56,0
1,note_on,73,56,0
1,note_on,73,0,60
1,note_on,70,0,0
1,note_on,66,0,0
1,note_on,67,47,60
1,note_on,70,56,0
1,note_on,73,56,0
1,note_on,73,0,120
1,note_on,70,0,0
1,note_on,67,0,0
1,note_on,67,56,120
1,note_on,70,56,0
1,note_on,73,67,0
1,note_on,73,0,120
1,note_on,70,0,0
1,note_on,67,0,0
1,note_on,68,50,240
1,note_on,71,50,0
1,note_on,73,59,0
1,note_on,73,0,60
1,note_on,71,0,0
1,note_on,68,0,0
1,note_on,65,49,60
1,note_on,68,49,0
1,note_on,73,58,0
1,note_on,73,0,120
1,note_on,68,0,0
1,note_on,65,0,0
1,note_on,83,76,60
1,note_on,83,0,60
1,note_on,70,70,0
1,note_on,82,82,0
1,note_on,82,0,240
1,note_on,70,0,0
1,note_on,63,47,120
1,note_on,66,56,0
1,note_on,70,56,0
1,note_on,70,0,60
1,note_on,66,0,0
1,note_on,63,0,0
1,note_on,64,47,60
1,note_on,67,56,0
1,note_on,70,56,0
1,note_on,70,0,120
1,note_on,67,0,0
1,note_on,64,0,0
1,note_on,64,56,120
1,note_on,67,56,0
1,note_on,70,67,0
1,note_on,70,0,120
1,note_on,67,0,0
1,note_on,64,0,0
1,note_on,65,50,240
1,note_on,68,50,0
1,note_on,70,59,0
1,note_on,70,0,60
1,note_on,68,0,0
1,note_on,65,0,0
1,note_on,62,49,60
1,note_on,65,49,0
1,note_on,70,58,0
1,note_on,70,0,120
1,note_on,65,0,0
1,note_on,62,0,0
1,note_on,83,76,60
1,note_on,83,0,60
1,note_on,70,66,0
1,note_on,82,78,0
1,note_on,82,0,240
1,note_on,70,0,0
1,note_on,63,42,120
1,note_on,66,50,0
1,note_on,70,50,0
1,note_on,70,0,60
1,note_on,66,0,0
1,note_on,63,0,0
1,note_on,64,41,60
1,note_on,67,48,0
1,note_on,70,48,0
1,note_on,70,0,120
1,note_on,67,0,0
1,note_on,64,0,0
1,note_on,64,46,120
1,note_on,67,46,0
1,note_on,70,55,0
1,note_on,70,0,120
1,note_on,67,0,0
1,note_on,64,0,0
1,note_on,65,38,240
1,note_on,68,38,0
1,note_on,70,45,0
1,note_on,70,0,60
1,note_on,68,0,0
1,note_on,65,0,0
1,note_on,62,36,60
1,note_on,65,36,0
1,note_on,70,43,0
1,note_on,70,0,120
1,note_on,65,0,0
1,note_on,62,0,0
1,note_on,67,49,120
1,note_on,55,28,120
1,note_on,55,0,120
1,note_on,58,28,0
1,note_on,58,0,120
1,note_on,65,45,0
1,note_on,55,26,120
1,note_on,55,0,120
1,note_on,58,26,0
1,note_on,58,0,120
1,note_on,65,0,0
1,note_on,63,45,0
1,note_on,55,25,120
1,note_on,55,0,120
1,note_on,58,26,0
1,note_on,58,0,120
1,note_on,63,0,0
1,note_on,62,45,0
1,note_on,55,26,120
1,note_on,55,0,120
1,note_on,58,26,0
1,note_on,58,0,120
1,note_on,62,0,0
1,note_on,67,0,0
1,note_on,67,53,0
1,note_on,55,28,120
1,note_on,55,0,120
1,note_on,58,28,0
1,note_on,58,0,120
1,note_on,60,46,0
1,note_on,55,25,120
1,note_on,55,0,120
1,note_on,57,25,0
1,note_on,57,0,120
1,note_on,60,0,0
1,note_on,67,0,0
1,note_on,67,49,0
1,note_on,55,27,120
1,note_on,55,0,120
1,note_on,58,27,0
1,note_on,58,0,120
1,note_on,63,37,0
1,note_on,63,0,120
1,note_on,55,25,0
1,note_on,55,0,120
1,note_on,58,25,0
1,note_on,58,0,120
1,note_on,67,0,0
1,note_on,67,49,0
1,note_on,56,28,120
1,note_on,56,0,120
1,note_on,59,28,0
1,note_on,59,0,120
1,note_on,67,0,0
1,note_on,64,45,0
1,note_on,56,27,120
1,note_on,56,0,120
1,note_on,59,27,0
1,note_on,59,0,120
1,note_on,64,0,0
1,note_on,65,52,0
1,note_on,56,27,120
1,note_on,56,0,120
1,note_on,59,27,0
1,note_on,59,0,120
1,note_on,65,0,0
1,note_on,67,58,0
1,note_on,56,29,120
1,note_on,56,0,120
1,note_on,59,30,0
1,note_on,59,0,120
1,note_on,67,0,0
1,note_on,68,61,0
1,note_on,56,33,120
1,note_on,56,0,120
1,note_on,62,33,0
1,note_on,62,0,120
1,note_on,68,0,0
1,note_on,69,61,0
1,note_on,56,32,120
1,note_on,56,0,120
1,note_on,62,36,0
1,note_on,62,0,120
1,note_on,69,0,0
1,note_on,72,65,0
1,note_on,56,35,120
1,note_on,56,0,120
1,note_on,62,33,0
1,note_on,62,0,120
1,note_on,72,0,0
1,note_on,70,52,0
1,note_on,56,27,120
1,note_on,56,0,120
1,note_on,62,27,0
1,note_on,62,0,120
1,note_on,70,0,0
1,note_on,67,49,0
1,note_on,55,28,120
1,note_on,55,0,120
1,note_on,58,28,0
1,note_on,58,0,120
1,note_on,65,45,0
1,note_on,55,26,120
1,note_on,55,0,120
1,note_on,58,26,0
1,note_on,58,0,120
1,note_on,65,0,0
1,note_on,63,45,0
1,note_on,55,25,120
1,note_on,55,0,120
1,note_on,58,26,0
1,note_on,58,0,120
1,note_on,63,0,0
1,note_on,62,45,0
1,note_on,55,26,120
1,note_on,55,0,120
1,note_on,58,26,0
1,note_on,58,0,120
1,note_on,62,0,0
1,note_on,67,0,0
1,note_on,67,53,0
1,note_on,55,28,120
1,note_on,55,0,120
1,note_on,58,28,0
1,note_on,58,0,120
1,note_on,60,44,0
1,note_on,55,25,120
1,note_on,55,0,120
1,note_on,57,25,0
1,note_on,57,0,120
1,note_on,60,0,0
1,note_on,67,0,0
1,note_on,67,49,0
1,note_on,55,27,120
1,note_on,55,0,120
1,note_on,58,27,0
1,note_on,58,0,120
1,note_on,63,37,0
1,note_on,63,0,120
1,note_on,55,25,0
1,note_on,55,0,120
1,note_on,58,25,0
1,note_on,58,0,120
1,note_on,67,0,0
1,note_on,67,56,0
1,note_on,57,28,120
1,note_on,57,0,120
1,note_on,60,28,0
1,note_on,60,0,120
1,note_on,67,0,0
1,note_on,66,56,0
1,note_on,57,32,120
1,note_on,57,0,120
1,note_on,60,32,0
1,note_on,60,0,120
1,note_on,66,0,0
1,note_on,70,63,0
1,note_on,60,30,120
1,note_on,60,0,120
1,note_on,62,33,0
1,note_on,62,0,120
1,note_on,70,0,0
1,note_on,69,62,0
1,note_on,60,35,120
1,note_on,60,0,120
1,note_on,62,35,0
1,note_on,62,0,120
1,note_on,69,0,0
1,note_on,72,68,0
1,note_on,58,39,120
1,note_on,58,0,120
1,note_on,62,40,0
1,note_on,62,0,120
1,note_on,72,0,0
1,note_on,70,67,0
1,note_on,58,36,120
1,note_on,58,0,120
1,note_on,62,40,0
1,note_on,62,0,120
1,note_on,70,0,0
1,note_on,74,72,0
1,note_on,62,41,120
1,note_on,62,0,120
1,note_on,65,38,0
1,note_on,65,0,120
1,note_on,74,0,0
1,note_on,72,60,0
1,note_on,62,33,120
1,note_on,62,0,120
1,note_on,70,33,0
1,note_on,70,0,120
1,note_on,72,0,0
1,note_on,79,63,0
1,note_on,67,47,120
1,note_on,67,0,120
1,note_on,70,47,0
1,note_on,70,0,120
1,note_on,77,58,0
1,note_on,67,44,120
1,note_on,67,0,120
1,note_on,70,44,0
1,note_on,70,0,120
1,note_on,77,0,0
1,note_on,75,57,0
1,note_on,67,42,120
1,note_on,67,0,120
1,note_on,70,44,0
1,note_on,70,0,120
1,note_on,75,0,0
1,note_on,74,57,0
1,note_on,67,44,120
1,note_on,67,0,120
1,note_on,70,44,0
1,note_on,70,0,120
1,note_on,74,0,0
1,note_on,79,0,0
1,note_on,79,67,0
1,note_on,67,47,120
1,note_on,67,0,120
1,note_on,70,47,0
1,note_on,70,0,120
1,note_on,72,56,0
1,note_on,67,42,120
1,note_on,67,0,120
1,note_on,69,42,0
1,note_on,69,0,120
1,note_on,72,0,0
1,note_on,79,0,0
1,note_on,79,63,0
1,note_on,67,45,120
1,note_on,67,0,120
1,note_on,70,45,0
1,note_on,70,0,120
1,note_on,75,57,0
1,note_on,75,0,120
1,note_on,67,42,0
1,note_on,67,0,120
1,note_on,70,42,0
1,note_on,70,0,120
1,note_on,79,0,0
1,note_on,67,47,0
1,note_on,79,63,0
1,note_on,67,0,120
1,note_on,68,47,0
1,note_on,68,0,120
1,note_on,71,47,0
1,note_on,71,0,120
1,note_on,79,0,0
1,note_on,64,45,0
1,note_on,76,58,0
1,note_on,64,0,120
1,note_on,68,45,0
1,note_on,68,0,120
1,note_on,71,45,0
1,note_on,71,0,120
1,note_on,76,0,0
1,note_on,65,45,0
1,note_on,77,66,0
1,note_on,65,0,120
1,note_on,68,45,0
1,note_on,68,0,120
1,note_on,71,45,0
1,note_on,71,0,120
1,note_on,77,0,0
1,note_on,67,48,0
1,note_on,79,71,0
1,note_on,67,0,120
1,note_on,71,48,0
1,note_on,71,0,120
1,note_on,74,50,0
1,note_on,74,0,120
1,note_on,79,0,0
1,note_on,68,54,0
1,note_on,80,75,0
1,note_on,68,0,120
1,note_on,74,54,0
1,note_on,74,0,120
1,note_on,77,54,0
1,note_on,77,0,120
1,note_on,80,0,0
1,note_on,69,54,0
1,note_on,81,75,0
1,note_on,69,0,120
1,note_on,74,54,0
1,note_on,74,0,120
1,note_on,77,60,0
1,note_on,77,0,120
1,note_on,81,0,0
1,note_on,72,57,0
1,note_on,84,80,0
1,note_on,72,0,120
1,note_on,74,57,0
1,note_on,74,0,120
1,note_on,77,54,0
1,note_on,77,0,120
1,note_on,84,0,0
1,note_on,70,45,0
1,note_on,82,63,0
1,note_on,70,0,120
1,note_on,74,45,0
1,note_on,74,0,120
1,note_on,77,45,0
1,note_on,77,0,120
1,note_on,82,0,0
1,note_on,79,63,0
1,note_on,67,47,120
1,note_on,67,0,120
1,note_on,70,47,0
1,note_on,70,0,120
1,note_on,77,58,0
1,note_on,67,44,120
1,note_on,67,0,120
1,note_on,70,44,0
1,note_on,70,0,120
1,note_on,77,0,0
1,note_on,75,57,0
1,note_on,67,42,120
1,note_on,67,0,120
1,note_on,70,44,0
1,note_on,70,0,120
1,note_on,75,0,0
1,note_on,74,57,0
1,note_on,67,44,120
1,note_on,67,0,120
1,note_on,70,44,0
1,note_on,70,0,120
1,note_on,74,0,0
1,note_on,79,0,0
1,note_on,79,67,0
1,note_on,67,47,120
1,note_on,67,0,120
1,note_on,70,47,0
1,note_on,70,0,120
1,note_on,72,56,0
1,note_on,67,42,120
1,note_on,67,0,120
1,note_on,69,42,0
1,note_on,69,0,120
1,note_on,72,0,0
1,note_on,79,0,0
1,note_on,79,63,0
1,note_on,67,45,120
1,note_on,67,0,120
1,note_on,70,45,0
1,note_on,70,0,120
1,note_on,75,57,0
1,note_on,75,0,120
1,note_on,67,42,0
1,note_on,67,0,120
1,note_on,70,42,0
1,note_on,70,0,120
1,note_on,79,0,0
1,note_on,67,47,0
1,note_on,79,72,0
1,note_on,67,0,120
1,note_on,69,47,0
1,note_on,69,0,120
1,note_on,72,47,0
1,note_on,72,0,120
1,note_on,79,0,0
1,note_on,66,54,0
1,note_on,78,71,0
1,note_on,66,0,120
1,note_on,69,54,0
1,note_on,69,0,120
1,note_on,72,54,0
1,note_on,72,0,120
1,note_on,78,0,0
1,note_on,75,52,0
1,note_on,87,82,0
1,note_on,75,0,120
1,note_on,78,51,0
1,note_on,78,0,120
1,note_on,81,54,0
1,note_on,81,0,120
1,note_on,87,0,0
1,note_on,74,50,0
1,note_on,86,81,0
1,note_on,74,0,120
1,note_on,78,57,0
1,note_on,78,0,120
1,note_on,81,58,0
1,note_on,81,0,120
1,note_on,86,0,0
1,note_on,74,50,0
1,note_on,86,83,0
1,note_on,74,0,120
1,note_on,79,63,0
1,note_on,79,0,120
1,note_on,83,62,0
1,note_on,83,0,120
1,note_on,86,0,0
1,note_on,71,48,0
1,note_on,83,70,0
1,note_on,71,0,120
1,note_on,74,60,0
1,note_on,74,0,120
1,note_on,79,61,0
1,note_on,79,0,120
1,note_on,83,0,0
1,note_on,67,47,0
1,note_on,79,66,0
1,note_on,67,0,120
1,note_on,71,54,0
1,note_on,71,0,120
1,note_on,74,54,0
1,note_on,74,0,120
1,note_on,79,0,0
1,note_on,67,46,0
1,note_on,79,66,0
1,note_on,67,0,120
1,note_on,71,54,0
1,note_on,71,0,120
1,note_on,74,50,0
1,note_on,74,0,120
1,note_on,79,0,0
1,note_on,79,63,0
1,note_on,67,47,120
1,note_on,67,0,120
1,note_on,71,47,0
1,note_on,71,0,120
1,note_on,78,58,0
1,note_on,67,44,120
1,note_on,67,0,120
1,note_on,71,44,0
1,note_on,71,0,120
1,note_on,78,0,0
1,note_on,76,57,0
1,note_on,67,42,120
1,note_on,67,0,120
1,note_on,71,44,0
1,note_on,71,0,120
1,note_on,76,0,0
1,note_on,74,57,0
1,note_on,67,44,120
1,note_on,67,0,120
1,note_on,71,44,0
1,note_on,71,0,120
1,note_on,74,0,0
1,note_on,79,0,0
1,note_on,79,67,0
1,note_on,67,47,120
1,note_on,67,0,120
1,note_on,71,47,0
1,note_on,71,0,120
1,note_on,72,56,0
1,note_on,67,42,120
1,note_on,67,0,120
1,note_on,71,42,0
1,note_on,71,0,120
1,note_on,72,0,0
1,note_on,79,0,0
1,note_on,79,63,0
1,note_on,67,45,120
1,note_on,67,0,120
1,note_on,71,45,0
1,note_on,71,0,120
1,note_on,76,57,0
1,note_on,76,0,120
1,note_on,67,42,0
1,note_on,67,0,120
1,note_on,71,42,0
1,note_on,71,0,120
1,note_on,79,0,0
1,note_on,67,47,0
1,note_on,79,63,0
1,note_on,67,0,120
1,note_on,69,47,0
1,note_on,69,0,120
1,note_on,75,47,0
1,note_on,75,0,120
1,note_on,79,0,0
1,note_on,65,45,0
1,note_on,77,58,0
1,note_on,65,0,120
1,note_on,69,45,0
1,note_on,69,0,120
1,note_on,75,45,0
1,note_on,75,0,120
1,note_on,77,0,0
1,note_on,66,45,0
1,note_on,78,66,0
1,note_on,66,0,120
1,note_on,69,45,0
1,note_on,69,0,120
1,note_on,75,45,0
1,note_on,75,0,120
1,note_on,78,0,0
1,note_on,67,48,0
1,note_on,79,72,0
1,note_on,67,0,120
1,note_on,69,48,0
1,note_on,69,0,120
1,note_on,75,50,0
1,note_on,75,0,120
1,note_on,79,0,0
1,note_on,68,54,0
1,note_on,80,75,0
1,note_on,68,0,120
1,note_on,75,54,0
1,note_on,75,0,120
1,note_on,78,54,0
1,note_on,78,0,120
1,note_on,80,0,0
1,note_on,69,54,0
1,note_on,81,75,0
1,note_on,69,0,120
1,note_on,75,54,0
1,note_on,75,0,120
1,note_on,78,60,0
1,note_on,78,0,120
1,note_on,81,0,0
1,note_on,72,57,0
1,note_on,84,80,0
1,note_on,72,0,120
1,note_on,75,57,0
1,note_on,75,0,120
1,note_on,78,54,0
1,note_on,78,0,120
1,note_on,84,0,0
1,note_on,71,45,0
1,note_on,83,63,0
1,note_on,71,0,120
1,note_on,75,45,0
1,note_on,75,0,120
1,note_on,78,45,0
1,note_on,78,0,120
1,note_on,83,0,0
1,note_on,79,63,0
1,note_on,67,47,120
1,note_on,67,0,120
1,note_on,71,47,0
1,note_on,71,0,120
1,note_on,78,58,0
1,note_on,67,44,120
1,note_on,67,0,120
1,note_on,71,44,0
1,note_on,71,0,120
1,note_on,78,0,0
1,note_on,76,57,0
1,note_on,67,42,120
1,note_on,67,0,120
1,note_on,71,44,0
1,note_on,71,0,120
1,note_on,76,0,0
1,note_on,74,57,0
1,note_on,67,44,120
1,note_on,67,0,120
1,note_on,71,44,0
1,note_on,71,0,120
1,note_on,74,0,0
1,note_on,79,0,0
1,note_on,79,67,0
1,note_on,67,47,120
1,note_on,67,0,120
1,note_on,71,47,0
1,note_on,71,0,120
1,note_on,72,56,0
1,note_on,67,42,120
1,note_on,67,0,120
1,note_on,71,42,0
1,note_on,71,0,120
1,note_on,72,0,0
1,note_on,79,0,0
1,note_on,79,63,0
1,note_on,67,45,120
1,note_on,67,0,120
1,note_on,71,45,0
1,note_on,71,0,120
1,note_on,76,57,0
1,note_on,76,0,120
1,note_on,67,42,0
1,note_on,67,0,120
1,note_on,71,42,0
1,note_on,71,0,120
1,note_on,79,0,0
1,note_on,67,47,0
1,note_on,79,72,0
1,note_on,67,0,120
1,note_on,69,47,0
1,note_on,69,0,120
1,note_on,72,47,0
1,note_on,72,0,120
1,note_on,79,0,0
1,note_on,65,64,0
1,note_on,77,64,0
1,note_on,65,0,120
1,note_on,69,54,0
1,note_on,69,0,120
1,note_on,72,54,0
1,note_on,72,0,120
1,note_on,77,0,0
1,note_on,66,68,0
1,note_on,78,68,0
1,note_on,66,0,120
1,note_on,69,51,0
1,note_on,69,0,120
1,note_on,72,54,0
1,note_on,72,0,120
1,note_on,78,0,0
1,note_on,67,72,0
1,note_on,79,72,0
1,note_on,67,0,120
1,note_on,69,57,0
1,note_on,69,0,120
1,note_on,72,58,0
1,note_on,72,0,120
1,note_on,79,0,0
1,note_on,68,77,0
1,note_on,80,77,0
1,note_on,68,0,120
1,note_on,72,60,0
1,note_on,72,0,120
1,note_on,78,60,0
1,note_on,78,0,120
1,note_on,80,0,0
1,note_on,69,72,0
1,note_on,81,72,0
1,note_on,69,0,120
1,note_on,72,60,0
1,note_on,72,0,120
1,note_on,78,57,0
1,note_on,78,0,120
1,note_on,81,0,0
1,note_on,75,79,0
1,note_on,87,79,0
1,note_on,75,0,120
1,note_on,78,54,0
1,note_on,78,0,120
1,note_on,81,54,0
1,note_on,81,0,120
1,note_on,87,0,0
1,note_on,74,46,0
1,note_on,86,66,0
1,note_on,74,0,120
1,note_on,78,54,0
1,note_on,78,0,120
1,note_on,81,50,0
1,note_on,81,0,120
1,note_on,86,0,0
1,note_on,82,63,0
1,note_on,70,47,120
1,note_on,70,0,120
1,note_on,74,47,0
1,note_on,74,0,120
1,note_on,81,60,0
1,note_on,70,50,120
1,note_on,70,0,120
1,note_on,74,50,0
1,note_on,74,0,120
1,note_on,81,0,0
1,note_on,79,62,0
1,note_on,70,51,120
1,note_on,70,0,120
1,note_on,74,54,0
1,note_on,74,0,120
1,note_on,79,0,0
1,note_on,77,63,0
1,note_on,70,53,120
1,note_on,70,0,120
1,note_on,75,55,0
1,note_on,75,0,120
1,note_on,77,0,0
1,note_on,82,0,0
1,note_on,84,72,0
1,note_on,72,54,120
1,note_on,72,0,120
1,note_on,75,56,0
1,note_on,75,0,120
1,note_on,82,66,0
1,note_on,72,52,120
1,note_on,72,0,120
1,note_on,75,53,0
1,note_on,75,0,120
1,note_on,82,0,0
1,note_on,84,0,0
1,note_on,81,50,0
1,note_on,84,65,0
1,note_on,81,0,120
1,note_on,72,48,0
1,note_on,72,0,120
1,note_on,75,48,0
1,note_on,75,0,120
1,note_on,78,63,0
1,note_on,72,46,120
1,note_on,72,0,120
1,note_on,75,46,0
1,note_on,75,0,120
1,note_on,78,0,0
1,note_on,84,0,0
1,note_on,85,72,0
1,note_on,73,54,120
1,note_on,73,0,120
1,note_on,77,54,0
1,note_on,77,0,120
1,note_on,84,69,0
1,note_on,73,57,120
1,note_on,73,0,120
1,note_on,77,57,0
1,note_on,77,0,120
1,note_on,84,0,0
1,note_on,82,71,0
1,note_on,73,58,120
1,note_on,73,0,120
1,note_on,77,62,0
1,note_on,77,0,120
1,note_on,82,0,0
1,note_on,80,72,0
1,note_on,73,60,120
1,note_on,73,0,120
1,note_on,78,63,0
1,note_on,78,0,120
1,note_on,80,0,0
1,note_on,85,0,0
1,note_on,87,82,0
1,note_on,75,62,120
1,note_on,75,0,120
1,note_on,78,64,0
1,note_on,78,0,120
1,note_on,85,76,0
1,note_on,75,59,120
1,note_on,75,0,120
1,note_on,78,60,0
1,note_on,78,0,120
1,note_on,85,0,0
1,note_on,87,0,0
1,note_on,84,57,0
1,note_on,87,74,0
1,note_on,84,0,120
1,note_on,75,55,0
1,note_on,75,0,120
1,note_on,78,55,0
1,note_on,78,0,120
1,note_on,81,72,0
1,note_on,75,53,120
1,note_on,75,0,120
1,note_on,80,53,0
1,note_on,80,0,120
1,note_on,81,0,0
1,note_on,87,0,0
1,note_on,89,79,0
1,note_on,77,59,120
1,note_on,77,0,120
1,note_on,80,59,0
1,note_on,80,0,120
1,note_on,87,75,0
1,note_on,77,63,120
1,note_on,77,0,120
1,note_on,80,63,0
1,note_on,80,0,120
1,note_on,87,0,0
1,note_on,85,77,0
1,note_on,77,63,120
1,note_on,77,0,120
1,note_on,80,67,0
1,note_on,80,0,120
1,note_on,85,0,0
1,note_on,84,79,0
1,note_on,77,65,120
1,note_on,77,0,120
1,note_on,80,70,0
1,note_on,80,0,120
1,note_on,84,0,0
1,note_on,89,0,0
1,note_on,89,90,0
1,note_on,75,67,120
1,note_on,75,0,120
1,note_on,80,71,0
1,note_on,80,0,120
1,note_on,83,83,0
1,note_on,75,64,120
1,note_on,75,0,120
1,note_on,80,65,0
1,note_on,80,0,120
1,note_on,83,0,0
1,note_on,89,0,0
1,note_on,89,81,0
1,note_on,75,61,120
1,note_on,75,0,120
1,note_on,80,61,0
1,note_on,80,0,120
1,note_on,83,80,0
1,note_on,75,57,120
1,note_on,75,0,120
1,note_on,80,57,0
1,note_on,80,0,120
1,note_on,83,0,0
1,note_on,89,0,0
1,note_on,89,90,0
1,note_on,74,67,120
1,note_on,74,0,120
1,note_on,82,71,0
1,note_on,80,54,0
1,note_on,80,0,120
1,note_on,82,0,0
1,note_on,89,0,0
1,note_on,89,84,0
1,note_on,74,66,120
1,note_on,74,0,120
1,note_on,82,67,0
1,note_on,80,54,0
1,note_on,80,0,120
1,note_on,82,0,0
1,note_on,89,0,0
1,note_on,90,85,0
1,note_on,74,63,120
1,note_on,74,0,120
1,note_on,82,64,0
1,note_on,80,54,0
1,note_on,80,0,120
1,note_on,82,0,0
1,note_on,90,0,0
1,note_on,90,85,0
1,note_on,90,0,120
1,note_on,74,62,0
1,note_on,74,0,120
1,note_on,82,62,0
1,note_on,80,54,0
1,note_on,80,0,120
1,note_on,82,0,0
1,note_on,79,75,0
1,note_on,91,90,0
1,note_on,91,0,120
1,note_on,82,59,0
1,note_on,82,0,120
1,note_on,87,59,0
1,note_on,87,0,120
1,note_on,79,0,0
1,note_on,77,67,0
1,note_on,89,81,0
1,note_on,89,0,120
1,note_on,79,54,0
1,note_on,79,0,120
1,note_on,82,54,0
1,note_on,82,0,120
1,note_on,77,0,0
1,note_on,75,66,0
1,note_on,87,80,0
1,note_on,87,0,120
1,note_on,79,53,0
1,note_on,79,0,120
1,note_on,82,54,0
1,note_on,82,0,120
1,note_on,75,0,0
1,note_on,74,67,0
1,note_on,86,81,0
1,note_on,86,0,120
1,note_on,79,54,0
1,note_on,79,0,120
1,note_on,82,54,0
1,note_on,82,0,120
1,note_on,74,0,0
1,note_on,72,66,0
1,note_on,84,84,0
1,note_on,84,0,120
1,note_on,75,59,0
1,note_on,75,0,120
1,note_on,79,59,0
1,note_on,79,0,120
1,note_on,72,0,0
1,note_on,69,66,0
1,note_on,81,79,0
1,note_on,81,0,120
1,note_on,75,53,0
1,note_on,75,0,120
1,note_on,79,53,0
1,note_on,79,0,120
1,note_on,69,0,0
1,note_on,70,70,0
1,note_on,82,82,0
1,note_on,82,0,120
1,note_on,75,56,0
1,note_on,75,0,120
1,note_on,79,56,0
1,note_on,79,0,120
1,note_on,70,0,0
1,note_on,79,73,0
1,note_on,91,87,0
1,note_on,79,0,120
1,note_on,82,53,0
1,note_on,82,0,120
1,note_on,87,53,0
1,note_on,87,0,120
1,note_on,91,0,0
1,note_on,79,73,0
1,note_on,91,87,0
1,note_on,79,0,120
1,note_on,83,59,0
1,note_on,83,0,120
1,note_on,86,59,0
1,note_on,86,0,120
1,note_on,91,0,0
1,note_on,76,69,0
1,note_on,88,81,0
1,note_on,76,0,120
1,note_on,83,55,0
1,note_on,83,0,120
1,note_on,86,55,0
1,note_on,86,0,120
1,note_on,88,0,0
1,note_on,77,75,0
1,note_on,89,90,0
1,note_on,77,0,120
1,note_on,83,55,0
1,note_on,83,0,120
1,note_on,86,55,0
1,note_on,86,0,120
1,note_on,89,0,0
1,note_on,79,80,0
1,note_on,91,94,0
1,note_on,79,0,120
1,note_on,83,61,0
1,note_on,83,0,120
1,note_on,86,63,0
1,note_on,86,0,120
1,note_on,91,0,0
1,note_on,80,81,0
1,note_on,92,96,0
1,note_on,80,0,120
1,note_on,86,69,0
1,note_on,86,0,120
1,note_on,89,69,0
1,note_on,89,0,120
1,note_on,92,0,0
1,note_on,81,82,0
1,note_on,93,94,0
1,note_on,81,0,120
1,note_on,86,67,0
1,note_on,86,0,120
1,note_on,89,75,0
1,note_on,89,0,120
1,note_on,93,0,0
1,note_on,84,89,0
1,note_on,96,99,0
1,note_on,84,0,120
1,note_on,86,72,0
1,note_on,86,0,120
1,note_on,89,69,0
1,note_on,89,0,120
1,note_on,96,0,0
1,note_on,82,76,0
1,note_on,94,90,0
1,note_on,82,0,120
1,note_on,86,56,0
1,note_on,86,0,120
1,note_on,89,56,0
1,note_on,89,0,120
1,note_on,94,0,0
1,note_on,79,75,0
1,note_on,91,90,0
1,note_on,91,0,120
1,note_on,82,59,0
1,note_on,82,0,120
1,note_on,87,59,0
1,note_on,87,0,120
1,note_on,79,0,0
1,note_on,77,67,0
1,note_on,89,81,0
1,note_on,89,0,120
1,note_on,79,54,0
1,note_on,79,0,120
1,note_on,82,54,0
1,note_on,82,0,120
1,note_on,77,0,0
1,note_on,75,66,0
1,note_on,87,80,0
1,note_on,87,0,120
1,note_on,79,53,0
1,note_on,79,0,120
1,note_on,82,54,0
1,note_on,82,0,120
1,note_on,75,0,0
1,note_on,74,67,0
1,note_on,86,81,0
1,note_on,86,0,120
1,note_on,79,54,0
1,note_on,79,0,120
1,note_on,82,54,0
1,note_on,82,0,120
1,note_on,74,0,0
1,note_on,72,66,0
1,note_on,84,84,0
1,note_on,84,0,120
1,note_on,75,59,0
1,note_on,75,0,120
1,note_on,79,59,0
1,note_on,79,0,120
1,note_on,72,0,0
1,note_on,69,66,0
1,note_on,81,79,0
1,note_on,81,0,120
1,note_on,75,53,0
1,note_on,75,0,120
1,note_on,79,53,0
1,note_on,79,0,120
1,note_on,69,0,0
1,note_on,70,70,0
1,note_on,82,82,0
1,note_on,82,0,120
1,note_on,75,56,0
1,note_on,75,0,120
1,note_on,79,56,0
1,note_on,79,0,120
1,note_on,70,0,0
1,note_on,79,73,0
1,note_on,91,87,0
1,note_on,91,0,120
1,note_on,79,0,0
1,note_on,82,53,0
1,note_on,82,0,120
1,note_on,87,53,0
1,note_on,87,0,120
1,note_on,79,73,0
1,note_on,91,87,0
1,note_on,79,0,120
1,note_on,81,59,0
1,note_on,81,0,120
1,note_on,84,59,0
1,note_on,84,0,120
1,note_on,91,0,0
1,note_on,78,69,0
1,note_on,90,81,0
1,note_on,78,0,120
1,note_on,81,63,0
1,note_on,81,0,120
1,note_on,84,64,0
1,note_on,84,0,120
1,note_on,90,0,0
1,note_on,87,89,0
1,note_on,99,100,0
1,note_on,87,0,120
1,note_on,90,67,0
1,note_on,90,0,120
1,note_on,93,67,0
1,note_on,93,0,120
1,note_on,99,0,0
1,note_on,86,82,0
1,note_on,98,96,0
1,note_on,86,0,120
1,note_on,90,67,0
1,note_on,90,0,120
1,note_on,93,67,0
1,note_on,93,0,120
1,note_on,98,0,0
1,note_on,86,81,0
1,note_on,98,95,0
1,note_on,86,0,120
1,note_on,91,69,0
1,note_on,91,0,120
1,note_on,95,69,0
1,note_on,95,0,120
1,note_on,98,0,0
1,note_on,83,79,0
1,note_on,95,91,0
1,note_on,83,0,120
1,note_on,86,67,0
1,note_on,86,0,120
1,note_on,91,65,0
1,note_on,91,0,120
1,note_on,95,0,0
1,note_on,79,70,0
1,note_on,91,83,0
1,note_on,79,0,120
1,note_on,83,63,0
1,note_on,83,0,120
1,note_on,86,63,0
1,note_on,86,0,120
1,note_on,91,0,0
1,note_on,79,64,0
1,note_on,91,90,0
1,note_on,79,0,120
1,note_on,83,58,0
1,note_on,83,0,120
1,note_on,86,59,0
1,note_on,86,0,120
1,note_on,91,0,0
1,note_on,80,74,0
1,note_on,92,88,0
1,note_on,80,0,120
1,note_on,84,63,0
1,note_on,84,0,120
1,note_on,87,63,0
1,note_on,87,0,120
1,note_on,92,0,0
1,note_on,79,72,0
1,note_on,91,85,0
1,note_on,79,0,120
1,note_on,84,62,0
1,note_on,84,0,120
1,note_on,87,60,0
1,note_on,87,0,120
1,note_on,91,0,0
1,note_on,77,67,0
1,note_on,89,80,0
1,note_on,77,0,120
1,note_on,79,60,0
1,note_on,79,0,120
1,note_on,84,58,0
1,note_on,84,0,120
1,note_on,89,0,0
1,note_on,75,59,0
1,note_on,87,82,0
1,note_on,75,0,120
1,note_on,79,52,0
1,note_on,79,0,120
1,note_on,84,52,0
1,note_on,84,0,120
1,note_on,87,0,0
1,note_on,75,66,0
1,note_on,87,79,0
1,note_on,75,0,120
1,note_on,80,56,0
1,note_on,80,0,120
1,note_on,84,56,0
1,note_on,84,0,120
1,note_on,87,0,0
1,note_on,74,64,0
1,note_on,86,76,0
1,note_on,74,0,120
1,note_on,80,55,0
1,note_on,80,0,120
1,note_on,84,54,0
1,note_on,84,0,120
1,note_on,86,0,0
1,note_on,74,60,0
1,note_on,86,72,0
1,note_on,74,0,120
1,note_on,80,54,0
1,note_on,80,0,120
1,note_on,84,52,0
1,note_on,84,0,120
1,note_on,86,0,0
1,note_on,74,53,0
1,note_on,86,73,0
1,note_on,74,0,120
1,note_on,80,46,0
1,note_on,80,0,120
1,note_on,84,46,0
1,note_on,84,0,120
1,note_on,86,0,0
1,note_on,75,59,0
1,note_on,87,71,0
1,note_on,75,0,120
1,note_on,79,50,0
1,note_on,79,0,120
1,note_on,83,50,0
1,note_on,83,0,120
1,note_on,87,0,0
1,note_on,74,57,0
1,note_on,86,68,0
1,note_on,74,0,120
1,note_on,79,49,0
1,note_on,79,0,120
1,note_on,83,48,0
1,note_on,83,0,120
1,note_on,86,0,0
1,note_on,72,54,0
1,note_on,84,64,0
1,note_on,72,0,120
1,note_on,74,48,0
1,note_on,74,0,120
1,note_on,79,46,0
1,note_on,79,0,120
1,note_on,84,0,0
1,note_on,71,47,0
1,note_on,83,65,0
1,note_on,71,0,120
1,note_on,74,41,0
1,note_on,74,0,120
1,note_on,79,41,0
1,note_on,79,0,120
1,note_on,83,0,0
1,note_on,68,55,0
1,note_on,80,67,0
1,note_on,68,0,120
1,note_on,71,47,0
1,note_on,71,0,120
1,note_on,74,47,0
1,note_on,74,0,120
1,note_on,80,0,0
1,note_on,67,54,0
1,note_on,79,64,0
1,note_on,67,0,120
1,note_on,71,46,0
1,note_on,71,0,120
1,note_on,74,45,0
1,note_on,74,0,120
1,note_on,79,0,0
1,note_on,67,51,0
1,note_on,79,61,0
1,note_on,67,0,120
1,note_on,71,45,0
1,note_on,71,0,120
1,note_on,74,44,0
1,note_on,74,0,120
1,note_on,79,0,0
1,note_on,67,45,0
1,note_on,79,62,0
1,note_on,67,0,120
1,note_on,71,38,0
1,note_on,71,0,120
1,note_on,74,38,0
1,note_on,74,0,120
1,note_on,79,0,0
1,note_on,70,52,0
1,note_on,82,63,0
1,note_on,70,0,120
1,note_on,72,45,0
1,note_on,72,0,120
1,note_on,75,45,0
1,note_on,75,0,120
1,note_on,82,0,0
1,note_on,68,51,0
1,note_on,80,61,0
1,note_on,68,0,120
1,note_on,72,44,0
1,note_on,72,0,120
1,note_on,75,43,0
1,note_on,75,0,120
1,note_on,80,0,0
1,note_on,67,48,0
1,note_on,79,57,0
1,note_on,67,0,120
1,note_on,72,43,0
1,note_on,72,0,120
1,note_on,75,41,0
1,note_on,75,0,120
1,note_on,79,0,0
1,note_on,65,42,0
1,note_on,77,58,0
1,note_on,65,0,120
1,note_on,67,36,0
1,note_on,67,0,120
1,note_on,72,36,0
1,note_on,72,0,120
1,note_on,77,0,0
1,note_on,63,49,0
1,note_on,75,60,0
1,note_on,63,0,120
1,note_on,68,42,0
1,note_on,68,0,120
1,note_on,72,42,0
1,note_on,72,0,120
1,note_on,75,0,0
1,note_on,62,48,0
1,note_on,74,57,0
1,note_on,62,0,120
1,note_on,68,41,0
1,note_on,68,0,120
1,note_on,72,40,0
1,note_on,72,0,120
1,note_on,74,0,0
1,note_on,62,45,0
1,note_on,74,54,0
1,note_on,62,0,120
1,note_on,68,40,0
1,note_on,68,0,120
1,note_on,72,38,0
1,note_on,72,0,120
1,note_on,74,0,0
1,note_on,62,39,0
1,note_on,74,54,0
1,note_on,62,0,120
1,note_on,68,34,0
1,note_on,68,0,120
1,note_on,72,34,0
1,note_on,72,0,120
1,note_on,74,0,0
1,note_on,63,49,0
1,note_on,75,60,0
1,note_on,63,0,120
1,note_on,67,42,0
1,note_on,67,0,120
1,note_on,71,42,0
1,note_on,71,0,120
1,note_on,75,0,0
1,note_on,62,48,0
1,note_on,74,57,0
1,note_on,62,0,120
1,note_on,67,41,0
1,note_on,67,0,120
1,note_on,71,40,0
1,note_on,71,0,120
1,note_on,74,0,0
1,note_on,60,45,0
1,note_on,72,54,0
1,note_on,60,0,120
1,note_on,63,40,0
1,note_on,63,0,120
1,note_on,67,38,0
1,note_on,67,0,120
1,note_on,72,0,0
1,note_on,59,39,0
1,note_on,71,54,0
1,note_on,59,0,120
1,note_on,62,34,0
1,note_on,62,0,120
1,note_on,67,34,0
1,note_on,67,0,120
1,note_on,71,0,0
1,note_on,58,44,0
1,note_on,70,54,0
1,note_on,58,0,120
1,note_on,61,37,0
1,note_on,61,0,120
1,note_on,65,37,0
1,note_on,65,0,120
1,note_on,70,0,0
1,note_on,56,43,0
1,note_on,68,51,0
1,note_on,56,0,120
1,note_on,61,36,0
1,note_on,61,0,120
1,note_on,65,36,0
1,note_on,65,0,120
1,note_on,68,0,0
1,note_on,55,40,0
1,note_on,67,48,0
1,note_on,55,0,120
1,note_on,56,36,0
1,note_on,56,0,120
1,note_on,61,34,0
1,note_on,61,0,120
1,note_on,67,0,0
1,note_on,53,35,0
1,note_on,65,48,0
1,note_on,53,0,120
1,note_on,56,30,0
1,note_on,56,0,120
1,note_on,61,30,0
1,note_on,61,0,120
1,note_on,65,0,0
1,note_on,63,35,0
1,note_on,75,42,0
1,note_on,63,0,120
1,note_on,67,29,0
1,note_on,67,0,120
1,note_on,71,29,0
1,note_on,71,0,120
1,note_on,75,0,0
1,note_on,62,34,0
1,note_on,74,40,0
1,note_on,62,0,120
1,note_on,67,29,0
1,note_on,67,0,120
1,note_on,71,28,0
1,note_on,71,0,120
1,note_on,74,0,0
1,note_on,60,32,0
1,note_on,72,38,0
1,note_on,60,0,120
1,note_on,63,28,0
1,note_on,63,0,120
1,note_on,67,27,0
1,note_on,67,0,120
1,note_on,72,0,0
1,note_on,59,27,0
1,note_on,71,38,0
1,note_on,59,0,120
1,note_on,62,24,0
1,note_on,62,0,120
1,note_on,67,24,0
1,note_on,67,0,120
1,note_on,71,0,0
1,note_on,58,30,0
1,note_on,70,38,0
1,note_on,58,0,120
1,note_on,61,26,0
1,note_on,61,0,120
1,note_on,65,26,0
1,note_on,65,0,120
1,note_on,70,0,0
1,note_on,56,30,0
1,note_on,68,36,0
1,note_on,56,0,120
1,note_on,61,25,0
1,note_on,61,0,120
1,note_on,65,25,0
1,note_on,65,0,120
1,note_on,68,0,0
1,note_on,55,28,0
1,note_on,67,34,0
1,note_on,55,0,120
1,note_on,56,25,0
1,note_on,56,0,120
1,note_on,61,24,0
1,note_on,61,0,120
1,note_on,67,0,0
1,note_on,53,25,0
1,note_on,65,34,0
1,note_on,53,0,120
1,note_on,56,20,0
1,note_on,56,0,120
1,note_on,61,20,0
1,note_on,61,0,120
1,note_on,65,0,0
1,note_on,59,40,0
1,note_on,62,47,0
1,note_on,62,0,120
1,note_on,59,0,0
1,note_on,50,34,240
1,note_on,50,0,120
1,note_on,48,35,120
1,note_on,48,0,120
1,note_on,47,36,120
1,note_on,47,0,120
1,note_on,44,36,120
1,note_on,44,0,120
1,note_on,43,37,120
1,note_on,43,0,120
1,note_on,56,38,120
1,note_on,56,0,120
1,note_on,55,39,120
1,note_on,55,0,120
1,note_on,53,40,120
1,note_on,53,0,120
1,note_on,51,40,120
1,note_on,51,0,120
1,note_on,49,42,120
1,note_on,49,0,120
1,note_on,56,42,0
1,note_on,61,42,0
1,note_on,65,50,0
1,note_on,65,0,120
1,note_on,61,0,0
1,note_on,56,0,0
1,note_on,59,43,120
1,note_on,55,43,0
1,note_on,67,51,0
1,note_on,67,0,120
1,note_on,55,0,0
1,note_on,59,0,0
1,note_on,50,34,240
1,note_on,50,0,120
1,note_on,48,35,120
1,note_on,48,0,120
1,note_on,47,36,120
1,note_on,47,0,120
1,note_on,44,36,120
1,note_on,44,0,120
1,note_on,43,37,120
1,note_on,43,0,120
1,note_on,56,38,120
1,note_on,56,0,120
1,note_on,55,39,120
1,note_on,55,0,120
1,note_on,53,40,120
1,note_on,53,0,120
1,note_on,51,40,120
1,note_on,51,0,120
1,note_on,49,42,120
1,note_on,49,0,120
1,note_on,56,42,0
1,note_on,61,42,0
1,note_on,65,50,0
1,note_on,65,0,120
1,note_on,61,0,0
1,note_on,56,0,0
1,note_on,60,43,120
1,note_on,56,43,0
1,note_on,68,51,0
1,note_on,68,0,120
1,note_on,56,0,0
1,note_on,60,0,0
1,note_on,51,34,240
1,note_on,51,0,120
1,note_on,49,35,120
1,note_on,49,0,120
1,note_on,48,36,120
1,note_on,48,0,120
1,note_on,46,36,120
1,note_on,46,0,120
1,note_on,44,37,120
1,note_on,44,0,118
1,note_on,56,38,122
1,note_on,56,0,120
1,note_on,54,39,120
1,note_on,54,0,120
1,note_on,52,40,120
1,note_on,52,0,120
1,note_on,51,40,120
1,note_on,51,0,120
1,note_on,49,42,120
1,note_on,49,0,120
1,note_on,56,42,0
1,note_on,61,42,0
1,note_on,64,50,0
1,note_on,64,0,120
1,note_on,61,0,0
1,note_on,56,0,0
1,note_on,61,43,120
1,note_on,57,43,0
1,note_on,69,51,0
1,note_on,69,0,120
1,note_on,57,0,0
1,note_on,61,0,0
1,note_on,52,34,240
1,note_on,52,0,120
1,note_on,50,35,120
1,note_on,50,0,120
1,note_on,49,36,120
1,note_on,49,0,120
1,note_on,46,36,120
1,note_on,46,0,120
1,note_on,45,37,120
1,note_on,45,0,118
1,note_on,57,38,122
1,note_on,57,0,120
1,note_on,55,39,120
1,note_on,55,0,120
1,note_on,53,40,120
1,note_on,53,0,120
1,note_on,52,40,120
1,note_on,52,0,120
1,note_on,50,42,120
1,note_on,50,0,120
1,note_on,57,42,0
1,note_on,62,42,0
1,note_on,65,50,0
1,note_on,65,0,120
1,note_on,62,0,0
1,note_on,57,0,0
1,note_on,62,43,120
1,note_on,58,43,0
1,note_on,70,51,0
1,note_on,70,0,120
1,note_on,58,0,0
1,note_on,62,0,0
1,note_on,53,34,240
1,note_on,53,0,120
1,note_on,51,35,120
1,note_on,51,0,120
1,note_on,50,36,120
1,note_on,50,0,120
1,note_on,47,36,120
1,note_on,47,0,120
1,note_on,46,37,120
1,note_on,46,0,120
1,note_on,63,43,0
1,note_on,58,43,0
1,note_on,70,52,0
1,note_on,70,0,120
1,note_on,58,0,0
1,note_on,63,0,0
1,note_on,54,35,240
1,note_on,54,0,120
1,note_on,53,36,120
1,note_on,53,0,120
1,note_on,51,36,120
1,note_on,51,0,120
1,note_on,47,37,120
1,note_on,47,0,120
1,note_on,46,38,120
1,note_on,46,0,120
1,note_on,65,45,0
1,note_on,62,45,0
1,note_on,74,53,0
1,note_on,74,0,120
1,note_on,62,0,0
1,note_on,65,0,0
1,note_on,56,35,240
1,note_on,56,0,120
1,note_on,53,36,120
1,note_on,53,0,120
1,note_on,50,37,120
1,note_on,50,0,120
1,note_on,49,38,120
1,note_on,49,0,120
1,note_on,47,39,120
1,note_on,47,0,120
1,note_on,69,45,0
1,note_on,66,45,0
1,note_on,78,54,0
1,note_on,78,0,120
1,note_on,66,0,0
1,note_on,69,0,0
1,note_on,57,36,240
1,note_on,57,0,120
1,note_on,56,37,120
1,note_on,56,0,120
1,note_on,54,38,120
1,note_on,54,0,120
1,note_on,51,39,120
1,note_on,51,0,120
1,note_on,48,40,120
1,note_on,48,0,120
1,note_on,73,37,0
1,note_on,78,37,0
1,note_on,81,53,0
1,note_on,81,0,240
1,note_on,78,0,0
1,note_on,73,0,0
1,note_on,69,33,120
1,note_on,78,43,0
1,note_on,73,33,0
1,note_on,73,0,60
1,note_on,78,0,0
1,note_on,69,0,0
1,note_on,69,33,60
1,note_on,73,33,0
1,note_on,78,43,0
1,note_on,78,0,120
1,note_on,73,0,0
1,note_on,69,0,0
1,note_on,66,37,120
1,note_on,69,37,0
1,note_on,73,49,0
1,note_on,73,0,120
1,note_on,69,0,0
1,note_on,66,0,0
1,note_on,61,34,240
1,note_on,69,44,0
1,note_on,66,34,0
1,note_on,66,0,60
1,note_on,69,0,0
1,note_on,61,0,0
1,note_on,61,34,60
1,note_on,69,44,0
1,note_on,66,34,0
1,note_on,66,0,120
1,note_on,69,0,0
1,note_on,61,0,0
1,note_on,50,38,240
1,note_on,50,0,120
1,note_on,57,43,120
1,note_on,57,0,120
1,note_on,55,45,120
1,note_on,55,0,120
1,note_on,54,42,120
1,note_on,54,0,120
1,note_on,52,39,120
1,note_on,52,0,120
1,note_on,50,36,120
1,note_on,50,0,120
1,note_on,74,37,0
1,note_on,79,37,0
1,note_on,82,53,0
1,note_on,82,0,240
1,note_on,79,0,0
1,note_on,74,0,0
1,note_on,70,33,120
1,note_on,79,43,0
1,note_on,74,33,0
1,note_on,74,0,60
1,note_on,79,0,0
1,note_on,70,0,0
1,note_on,70,33,60
1,note_on,74,33,0
1,note_on,79,43,0
1,note_on,79,0,120
1,note_on,74,0,0
1,note_on,70,0,0
1,note_on,67,37,120
1,note_on,70,37,0
1,note_on,74,49,0
1,note_on,74,0,120
1,note_on,70,0,0
1,note_on,67,0,0
1,note_on,62,34,240
1,note_on,70,44,0
1,note_on,67,34,0
1,note_on,67,0,60
1,note_on,70,0,0
1,note_on,62,0,0
1,note_on,62,34,60
1,note_on,70,44,0
1,note_on,67,34,0
1,note_on,67,0,120
1,note_on,70,0,0
1,note_on,62,0,0
1,note_on,51,38,240
1,note_on,51,0,120
1,note_on,58,43,120
1,note_on,58,0,120
1,note_on,56,45,120
1,note_on,56,0,120
1,note_on,55,42,120
1,note_on,55,0,120
1,note_on,53,39,120
1,note_on,53,0,120
1,note_on,51,36,120
1,note_on,51,0,120
1,note_on,75,41,0
1,note_on,80,41,0
1,note_on,83,57,0
1,note_on,83,0,240
1,note_on,80,0,0
1,note_on,75,0,0
1,note_on,71,36,120
1,note_on,80,46,0
1,note_on,75,36,0
1,note_on,75,0,60
1,note_on,80,0,0
1,note_on,71,0,0
1,note_on,71,36,60
1,note_on,75,36,0
1,note_on,80,46,0
1,note_on,80,0,120
1,note_on,75,0,0
1,note_on,71,0,0
1,note_on,68,41,120
1,note_on,71,41,0
1,note_on,75,54,0
1,note_on,75,0,120
1,note_on,71,0,0
1,note_on,68,0,0
1,note_on,63,36,240
1,note_on,71,47,0
1,note_on,68,36,0
1,note_on,68,0,60
1,note_on,71,0,0
1,note_on,63,0,0
1,note_on,63,36,60
1,note_on,71,47,0
1,note_on,68,36,0
1,note_on,68,0,120
1,note_on,71,0,0
1,note_on,63,0,0
1,note_on,76,45,120
1,note_on,80,45,0
1,note_on,88,63,0
1,note_on,88,0,240
1,note_on,80,0,0
1,note_on,76,0,0
1,note_on,71,39,120
1,note_on,83,52,0
1,note_on,76,39,0
1,note_on,76,0,60
1,note_on,83,0,0
1,note_on,71,0,0
1,note_on,71,39,60
1,note_on,76,39,0
1,note_on,83,52,0
1,note_on,83,0,120
1,note_on,76,0,0
1,note_on,71,0,0
1,note_on,68,45,120
1,note_on,71,45,0
1,note_on,80,60,0
1,note_on,80,0,120
1,note_on,71,0,0
1,note_on,68,0,0
1,note_on,64,40,240
1,note_on,76,53,0
1,note_on,68,40,0
1,note_on,68,0,60
1,note_on,76,0,0
1,note_on,64,0,0
1,note_on,64,41,60
1,note_on,76,53,0
1,note_on,68,41,0
1,note_on,68,0,120
1,note_on,76,0,0
1,note_on,64,0,0
1,note_on,76,47,120
1,note_on,81,47,0
1,note_on,88,67,0
1,note_on,88,0,240
1,note_on,81,0,0
1,note_on,76,0,0
1,note_on,72,42,120
1,note_on,84,54,0
1,note_on,76,42,0
1,note_on,76,0,60
1,note_on,84,0,0
1,note_on,72,0,0
1,note_on,72,42,60
1,note_on,76,42,0
1,note_on,84,54,0
1,note_on,84,0,120
1,note_on,76,0,0
1,note_on,72,0,0
1,note_on,69,48,120
1,note_on,72,48,0
1,note_on,81,63,0
1,note_on,81,0,120
1,note_on,72,0,0
1,note_on,69,0,0
1,note_on,64,43,240
1,note_on,76,55,0
1,note_on,69,43,0
1,note_on,69,0,60
1,note_on,76,0,0
1,note_on,64,0,0
1,note_on,64,43,60
1,note_on,76,55,0
1,note_on,69,43,0
1,note_on,69,0,120
1,note_on,76,0,0
1,note_on,64,0,0
1,note_on,77,51,120
1,note_on,81,51,0
1,note_on,89,72,0
1,note_on,89,0,240
1,note_on,81,0,0
1,note_on,77,0,0
1,note_on,72,45,120
1,note_on,84,58,0
1,note_on,77,45,0
1,note_on,77,0,60
1,note_on,84,0,0
1,note_on,72,0,0
1,note_on,72,45,60
1,note_on,77,45,0
1,note_on,84,58,0
1,note_on,84,0,120
1,note_on,77,0,0
1,note_on,72,0,0
1,note_on,69,51,120
1,note_on,72,51,0
1,note_on,81,67,0
1,note_on,81,0,120
1,note_on,72,0,0
1,note_on,69,0,0
1,note_on,65,45,240
1,note_on,77,59,0
1,note_on,69,45,0
1,note_on,69,0,60
1,note_on,77,0,0
1,note_on,65,0,0
1,note_on,65,45,60
1,note_on,77,59,0
1,note_on,69,45,0
1,note_on,69,0,120
1,note_on,77,0,0
1,note_on,65,0,0
1,note_on,77,52,120
1,note_on,80,52,0
1,note_on,89,72,0
1,note_on,89,0,240
1,note_on,80,0,0
1,note_on,77,0,0
1,note_on,73,45,120
1,note_on,85,59,0
1,note_on,85,0,60
1,note_on,73,0,0
1,note_on,73,45,60
1,note_on,85,59,0
1,note_on,85,0,120
1,note_on,73,0,0
1,note_on,82,52,120
1,note_on,77,52,0
1,note_on,85,52,0
1,note_on,89,69,0
1,note_on,89,0,120
1,note_on,82,0,0
1,note_on,77,0,0
1,note_on,85,0,0
1,note_on,85,60,240
1,note_on,73,46,0
1,note_on,73,0,60
1,note_on,85,0,0
1,note_on,85,61,60
1,note_on,73,46,0
1,note_on,73,0,120
1,note_on,85,0,0
1,note_on,85,53,120
1,note_on,78,53,0
1,note_on,82,53,0
1,note_on,90,74,0
1,note_on,90,0,240
1,note_on,85,0,0
1,note_on,78,0,0
1,note_on,82,0,0
1,note_on,73,45,120
1,note_on,85,59,0
1,note_on,85,0,60
1,note_on,73,0,0
1,note_on,73,45,60
1,note_on,85,59,0
1,note_on,85,0,120
1,note_on,73,0,0
1,note_on,82,53,120
1,note_on,78,53,0
1,note_on,87,53,0
1,note_on,90,70,0
1,note_on,90,0,120
1,note_on,82,0,0
1,note_on,78,0,0
1,note_on,87,0,0
1,note_on,87,61,240
1,note_on,75,47,0
1,note_on,75,0,60
1,note_on,87,0,0
1,note_on,87,61,60
1,note_on,75,47,0
1,note_on,75,0,120
1,note_on,87,0,0
1,note_on,78,47,120
1,note_on,87,56,0
1,note_on,87,0,120
1,note_on,78,0,0
1,note_on,90,50,0
1,note_on,90,0,120
1,note_on,78,47,0
1,note_on,87,56,0
1,note_on,87,0,120
1,note_on,78,0,0
1,note_on,90,50,0
1,note_on,90,0,120
1,note_on,78,48,0
1,note_on,87,57,0
1,note_on,87,0,120
1,note_on,78,0,0
1,note_on,90,51,0
1,note_on,90,0,120
1,note_on,78,48,0
1,note_on,87,57,0
1,note_on,87,0,120
1,note_on,78,0,0
1,note_on,90,51,0
1,note_on,90,0,120
1,note_on,78,49,0
1,note_on,87,58,0
1,note_on,87,0,120
1,note_on,78,0,0
1,note_on,90,53,0
1,note_on,90,0,120
1,note_on,78,49,0
1,note_on,87,59,0
1,note_on,87,0,120
1,note_on,78,0,0
1,note_on,90,53,0
1,note_on,90,0,120
1,note_on,80,50,0
1,note_on,87,59,0
1,note_on,87,0,120
1,note_on,80,0,0
1,note_on,92,53,0
1,note_on,92,0,120
1,note_on,80,50,0
1,note_on,87,60,0
1,note_on,87,0,120
1,note_on,80,0,0
1,note_on,92,53,0
1,note_on,92,0,120
1,note_on,80,51,0
1,note_on,87,61,0
1,note_on,87,0,120
1,note_on,80,0,0
1,note_on,92,52,0
1,note_on,92,0,120
1,note_on,80,51,0
1,note_on,87,61,0
1,note_on,87,0,120
1,note_on,80,0,0
1,note_on,92,53,0
1,note_on,92,0,120
1,note_on,80,52,0
1,note_on,87,62,0
1,note_on,87,0,120
1,note_on,80,0,0
1,note_on,92,54,0
1,note_on,92,0,120
1,note_on,80,52,0
1,note_on,87,62,0
1,note_on,87,0,120
1,note_on,80,0,0
1,note_on,92,54,0
1,note_on,92,0,120
1,note_on,83,53,0
1,note_on,87,63,0
1,note_on,87,0,120
1,note_on,83,0,0
1,note_on,95,56,0
1,note_on,95,0,120
1,note_on,83,53,0
1,note_on,87,63,0
1,note_on,87,0,120
1,note_on,83,0,0
1,note_on,95,56,0
1,note_on,95,0,120
1,note_on,83,54,0
1,note_on,87,63,0
1,note_on,87,0,120
1,note_on,83,0,0
1,note_on,95,57,0
1,note_on,95,0,120
1,note_on,83,54,0
1,note_on,87,64,0
1,note_on,87,0,120
1,note_on,83,0,0
1,note_on,95,57,0
1,note_on,95,0,120
1,note_on,83,54,0
1,note_on,87,65,0
1,note_on,87,0,120
1,note_on,83,0,0
1,note_on,95,59,0
1,note_on,95,0,120
1,note_on,83,55,0
1,note_on,87,65,0
1,note_on,87,0,120
1,note_on,83,0,0
1,note_on,95,60,0
1,note_on,95,0,120
1,note_on,83,55,0
1,note_on,86,66,0
1,note_on,86,0,120
1,note_on,83,0,0
1,note_on,95,59,0
1,note_on,95,0,120
1,note_on,83,56,0
1,note_on,86,66,0
1,note_on,86,0,120
1,note_on,83,0,0
1,note_on,95,60,0
1,note_on,95,0,120
1,note_on,83,56,0
1,note_on,86,67,0
1,note_on,86,0,120
1,note_on,83,0,0
1,note_on,95,58,0
1,note_on,95,0,120
1,note_on,83,57,0
1,note_on,86,68,0
1,note_on,86,0,120
1,note_on,83,0,0
1,note_on,95,60,0
1,note_on,95,0,120
1,note_on,83,57,0
1,note_on,86,68,0
1,note_on,86,0,120
1,note_on,83,0,0
1,note_on,95,60,0
1,note_on,95,0,120
1,note_on,83,58,0
1,note_on,86,69,0
1,note_on,86,0,120
1,note_on,83,0,0
1,note_on,95,61,0
1,note_on,95,0,120
1,note_on,84,59,0
1,note_on,87,70,0
1,note_on,87,0,120
1,note_on,84,0,0
1,note_on,96,63,0
1,note_on,96,0,120
1,note_on,84,59,0
1,note_on,87,71,0
1,note_on,87,0,120
1,note_on,84,0,0
1,note_on,96,63,0
1,note_on,96,0,120
1,note_on,84,60,0
1,note_on,87,72,0
1,note_on,87,0,120
1,note_on,84,0,0
1,note_on,96,61,0
1,note_on,96,0,120
1,note_on,85,60,0
1,note_on,88,72,0
1,note_on,88,0,120
1,note_on,85,0,0
1,note_on,97,63,0
1,note_on,97,0,120
1,note_on,85,62,0
1,note_on,88,73,0
1,note_on,88,0,120
1,note_on,85,0,0
1,note_on,97,63,0
1,note_on,97,0,120
1,note_on,85,63,0
1,note_on,88,74,0
1,note_on,88,0,120
1,note_on,85,0,0
1,note_on,97,65,0
1,note_on,97,0,120
1,note_on,86,63,0
1,note_on,89,75,0
1,note_on,89,0,120
1,note_on,86,0,0
1,note_on,98,67,0
1,note_on,98,0,120
1,note_on,86,63,0
1,note_on,89,77,0
1,note_on,89,0,120
1,note_on,86,0,0
1,note_on,98,67,0
1,note_on,98,0,120
1,note_on,86,64,0
1,note_on,89,77,0
1,note_on,89,0,120
1,note_on,86,0,0
1,note_on,98,66,0
1,note_on,98,0,120
1,note_on,86,66,0
1,note_on,89,79,0
1,note_on,89,0,120
1,note_on,86,0,0
1,note_on,98,68,0
1,note_on,98,0,120
1,note_on,86,67,0
1,note_on,89,81,0
1,note_on,89,0,120
1,note_on,86,0,0
1,note_on,98,70,0
1,note_on,98,0,120
1,note_on,86,68,0
1,note_on,89,81,0
1,note_on,89,0,120
1,note_on,86,0,0
1,note_on,98,71,0
1,note_on,98,0,120
1,note_on,86,69,0
1,note_on,89,82,0
1,note_on,89,0,120
1,note_on,86,0,0
1,note_on,98,73,0
1,note_on,98,0,120
1,note_on,86,70,0
1,note_on,89,82,0
1,note_on,89,0,120
1,note_on,86,0,0
1,note_on,98,74,0
1,note_on,98,0,120
1,note_on,86,70,0
1,note_on,89,83,0
1,note_on,89,0,120
1,note_on,86,0,0
1,note_on,98,72,0
1,note_on,98,0,120
1,note_on,86,72,0
1,note_on,89,85,0
1,note_on,89,0,120
1,note_on,86,0,0
1,note_on,98,74,0
1,note_on,98,0,120
1,note_on,86,72,0
1,note_on,89,85,0
1,note_on,89,0,120
1,note_on,86,0,0
1,note_on,98,76,0
1,note_on,98,0,120
1,note_on,86,73,0
1,note_on,89,87,0
1,note_on,89,0,120
1,note_on,86,0,0
1,note_on,98,76,0
1,note_on,98,0,120
1,note_on,86,73,0
1,note_on,89,89,0
1,note_on,89,0,120
1,note_on,86,0,0
1,note_on,98,79,0
1,note_on,98,0,120
1,note_on,86,75,0
1,note_on,89,89,0
1,note_on,89,0,120
1,note_on,86,0,0
1,note_on,98,80,0
1,note_on,98,0,120
1,note_on,86,76,0
1,note_on,89,90,0
1,note_on,89,0,120
1,note_on,86,0,0
1,note_on,98,78,0
1,note_on,98,0,120
1,note_on,87,77,0
1,note_on,90,90,0
1,note_on,90,0,120
1,note_on,87,0,0
1,note_on,99,81,0
1,note_on,99,0,120
1,note_on,87,78,0
1,note_on,90,92,0
1,note_on,90,0,120
1,note_on,87,0,0
1,note_on,99,81,0
1,note_on,99,0,120
1,note_on,87,79,0
1,note_on,90,94,0
1,note_on,90,0,120
1,note_on,87,0,0
1,note_on,99,82,0
1,note_on,99,0,120
1,note_on,96,75,0
1,note_on,88,75,0
1,note_on,91,75,0
1,note_on,100,106,0
1,note_on,100,0,240
1,note_on,96,0,0
1,note_on,88,0,0
1,note_on,91,0,0
1,note_on,84,66,120
1,note_on,88,66,0
1,note_on,91,66,0
1,note_on,96,86,0
1,note_on,96,0,60
1,note_on,84,0,0
1,note_on,88,0,0
1,note_on,91,0,0
1,note_on,88,66,60
1,note_on,84,66,0
1,note_on,91,66,0
1,note_on,96,86,0
1,note_on,96,0,120
1,note_on,88,0,0
1,note_on,84,0,0
1,note_on,91,0,0
1,note_on,96,99,120
1,note_on,88,75,0
1,note_on,84,75,0
1,note_on,91,75,0
1,note_on,91,0,120
1,note_on,96,0,0
1,note_on,88,0,0
1,note_on,84,0,0
1,note_on,79,68,240
1,note_on,84,68,0
1,note_on,88,68,0
1,note_on,91,88,0
1,note_on,91,0,60
1,note_on,79,0,0
1,note_on,84,0,0
1,note_on,88,0,0
1,note_on,79,68,60
1,note_on,84,68,0
1,note_on,88,68,0
1,note_on,91,88,0
1,note_on,91,0,120
1,note_on,79,0,0
1,note_on,84,0,0
1,note_on,88,0,0
1,note_on,84,79,120
1,note_on,81,79,0
1,note_on,76,79,0
1,note_on,88,102,0
1,note_on,88,0,120
1,note_on,84,0,0
1,note_on,81,0,0
1,note_on,76,0,0
1,note_on,72,72,240
1,note_on,76,72,0
1,note_on,81,72,0
1,note_on,84,91,0
1,note_on,84,0,60
1,note_on,72,0,0
1,note_on,76,0,0
1,note_on,81,0,0
1,note_on,72,72,60
1,note_on,76,72,0
1,note_on,81,72,0
1,note_on,84,91,0
1,note_on,84,0,120
1,note_on,72,0,0
1,note_on,76,0,0
1,note_on,81,0,0
1,note_on,72,79,120
1,note_on,76,79,0
1,note_on,81,79,0
1,note_on,84,102,0
1,note_on,84,0,720
1,note_on,72,0,0
1,note_on,76,0,0
1,note_on,81,0,0
1,note_on,77,75,0
1,note_on,79,75,0
1,note_on,83,75,0
1,note_on,91,99,0
1,note_on,91,0,240
1,note_on,77,0,0
1,note_on,79,0,0
1,note_on,83,0,0
1,note_on,74,68,120
1,note_on,79,68,0
1,note_on,86,88,0
1,note_on,86,0,60
1,note_on,79,0,0
1,note_on,74,0,0
1,note_on,74,68,60
1,note_on,79,68,0
1,note_on,86,88,0
1,note_on,86,0,120
1,note_on,79,0,0
1,note_on,74,0,0
1,note_on,79,75,120
1,note_on,73,75,0
1,note_on,85,99,0
1,note_on,85,0,120
1,note_on,73,0,0
1,note_on,79,0,0
1,note_on,79,79,120
1,note_on,74,79,0
1,note_on,86,102,0
1,note_on,86,0,120
1,note_on,74,0,0
1,note_on,79,0,0
1,note_on,75,79,120
1,note_on,79,79,0
1,note_on,87,102,0
1,note_on,87,0,120
1,note_on,79,0,0
1,note_on,75,0,0
1,note_on,76,84,120
1,note_on,79,84,0
1,note_on,88,109,0
1,note_on,88,0,720
1,note_on,79,0,0
1,note_on,76,0,0
1,note_on,72,75,0
1,note_on,79,75,0
1,note_on,84,99,0
1,note_on,84,0,240
1,note_on,79,0,0
1,note_on,72,0,0
1,note_on,96,75,480
1,note_on,88,75,0
1,note_on,91,75,0
1,note_on,100,106,0
1,note_on,100,0,240
1,note_on,96,0,0
1,note_on,88,0,0
1,note_on,91,0,0
1,note_on,84,66,120
1,note_on,88,66,0
1,note_on,91,66,0
1,note_on,96,86,0
1,note_on,96,0,60
1,note_on,84,0,0
1,note_on,88,0,0
1,note_on,91,0,0
1,note_on,88,66,60
1,note_on,84,66,0
1,note_on,91,66,0
1,note_on,96,86,0
1,note_on,96,0,120
1,note_on,88,0,0
1,note_on,84,0,0
1,note_on,91,0,0
1,note_on,96,99,120
1,note_on,88,75,0
1,note_on,84,75,0
1,note_on,91,75,0
1,note_on,91,0,120
1,note_on,96,0,0
1,note_on,88,0,0
1,note_on,84,0,0
1,note_on,79,68,240
1,note_on,84,68,0
1,note_on,88,68,0
1,note_on,91,88,0
1,note_on,91,0,60
1,note_on,79,0,0
1,note_on,84,0,0
1,note_on,88,0,0
1,note_on,79,68,60
1,note_on,84,68,0
1,note_on,88,68,0
1,note_on,91,88,0
1,note_on,91,0,120
1,note_on,79,0,0
1,note_on,84,0,0
1,note_on,88,0,0
1,note_on,84,79,120
1,note_on,81,79,0
1,note_on,76,79,0
1,note_on,88,102,0
1,note_on,88,0,120
1,note_on,84,0,0
1,note_on,81,0,0
1,note_on,76,0,0
1,note_on,72,72,240
1,note_on,76,72,0
1,note_on,81,72,0
1,note_on,84,91,0
1,note_on,84,0,60
1,note_on,72,0,0
1,note_on,76,0,0
1,note_on,81,0,0
1,note_on,72,72,60
1,note_on,76,72,0
1,note_on,81,72,0
1,note_on,84,91,0
1,note_on,84,0,120
1,note_on,72,0,0
1,note_on,76,0,0
1,note_on,81,0,0
1,note_on,72,79,120
1,note_on,76,79,0
1,note_on,81,79,0
1,note_on,84,102,0
1,note_on,84,0,720
1,note_on,72,0,0
1,note_on,76,0,0
1,note_on,81,0,0
1,note_on,75,75,0
1,note_on,78,75,0
1,note_on,87,99,0
1,note_on,87,0,240
1,note_on,78,0,0
1,note_on,75,0,0
1,note_on,71,68,120
1,note_on,75,68,0
1,note_on,78,88,0
1,note_on,78,0,60
1,note_on,75,0,0
1,note_on,71,0,0
1,note_on,71,68,60
1,note_on,75,68,0
1,note_on,78,88,0
1,note_on,78,0,120
1,note_on,75,0,0
1,note_on,71,0,0
1,note_on,75,67,120
1,note_on,71,67,0
1,note_on,77,89,0
1,note_on,77,0,120
1,note_on,71,0,0
1,note_on,75,0,0
1,note_on,75,71,120
1,note_on,71,71,0
1,note_on,78,91,0
1,note_on,78,0,120
1,note_on,71,0,0
1,note_on,75,0,0
1,note_on,71,71,120
1,note_on,75,71,0
1,note_on,83,91,0
1,note_on,83,0,120
1,note_on,75,0,0
1,note_on,71,0,0
1,note_on,75,84,120
1,note_on,78,84,0
1,note_on,87,109,0
1,note_on,87,0,720
1,note_on,78,0,0
1,note_on,75,0,0
1,note_on,77,75,0
1,note_on,74,75,0
1,note_on,79,75,0
1,note_on,86,99,0
1,note_on,86,0,240
1,note_on,77,0,0
1,note_on,74,0,0
1,note_on,79,0,0
1,note_on,88,72,480
1,note_on,84,72,0
1,note_on,79,61,0
1,note_on,76,61,0
1,note_on,76,0,120
1,note_on,88,0,0
1,note_on,84,0,0
1,note_on,79,0,0
1,note_on,84,72,120
1,note_on,79,61,0
1,note_on,76,61,0
1,note_on,72,61,0
1,note_on,72,0,180
1,note_on,84,0,0
1,note_on,79,0,0
1,note_on,76,0,0
1,note_on,79,63,0
1,note_on,76,53,0
1,note_on,72,53,0
1,note_on,67,53,0
1,note_on,67,0,54
1,note_on,79,0,0
1,note_on,76,0,0
1,note_on,72,0,0
1,note_on,67,61,6
1,note_on,72,61,0
1,note_on,76,61,0
1,note_on,79,72,0
1,note_on,79,0,60
1,note_on,67,0,0
1,note_on,72,0,0
1,note_on,76,0,0
1,note_on,64,61,180
1,note_on,67,61,0
1,note_on,72,61,0
1,note_on,76,72,0
1,note_on,76,0,180
1,note_on,64,0,0
1,note_on,67,0,0
1,note_on,72,0,0
1,note_on,60,54,0
1,note_on,64,54,0
1,note_on,69,54,0
1,note_on,72,63,0
1,note_on,72,0,54
1,note_on,60,0,0
1,note_on,64,0,0
1,note_on,69,0,0
1,note_on,72,72,6
1,note_on,69,72,0
1,note_on,64,61,0
1,note_on,60,61,0
1,note_on,60,0,60
1,note_on,72,0,0
1,note_on,69,0,0
1,note_on,64,0,0
1,note_on,69,72,180
1,note_on,64,61,0
1,note_on,60,61,0
1,note_on,57,61,0
1,note_on,57,0,180
1,note_on,69,0,0
1,note_on,64,0,0
1,note_on,60,0,0
1,note_on,64,63,0
1,note_on,60,53,0
1,note_on,57,53,0
1,note_on,52,53,0
1,note_on,52,0,54
1,note_on,64,0,0
1,note_on,60,0,0
1,note_on,57,0,0
1,note_on,52,61,6
1,note_on,57,61,0
1,note_on,60,61,0
1,note_on,64,72,0
1,note_on,64,0,60
1,note_on,52,0,0
1,note_on,57,0,0
1,note_on,60,0,0
1,note_on,48,61,180
1,note_on,52,61,0
1,note_on,57,61,0
1,note_on,60,72,0
1,note_on,60,0,180
1,note_on,48,0,0
1,note_on,52,0,0
1,note_on,57,0,0
1,note_on,52,54,0
1,note_on,64,63,0
1,note_on,64,0,60
1,note_on,52,0,0
1,note_on,53,60,0
1,note_on,59,60,0
1,note_on,67,79,0
1,note_on,67,0,240
1,note_on,59,0,0
1,note_on,53,0,0
1,note_on,53,54,120
1,note_on,59,54,0
1,note_on,62,70,0
1,note_on,62,0,60
1,note_on,59,0,0
1,note_on,53,0,0
1,note_on,53,54,60
1,note_on,59,54,0
1,note_on,62,70,0
1,note_on,62,0,120
1,note_on,59,0,0
1,note_on,53,0,0
1,note_on,58,60,120
1,note_on,53,60,0
1,note_on,61,79,0
1,note_on,61,0,120
1,note_on,53,0,0
1,note_on,58,0,0
1,note_on,59,63,120
1,note_on,53,63,0
1,note_on,62,81,0
1,note_on,62,0,120
1,note_on,53,0,0
1,note_on,59,0,0
1,note_on,53,63,120
1,note_on,59,63,0
1,note_on,63,81,0
1,note_on,63,0,120
1,note_on,59,0,0
1,note_on,53,0,0
1,note_on,64,83,120
1,note_on,60,83,0
1,note_on,60,0,102
1,note_on,64,0,0
1,note_on,55,70,0
1,note_on,55,0,102
1,note_on,52,71,0
1,note_on,52,0,102
1,note_on,55,72,0
1,note_on,55,0,102
1,note_on,60,73,0
1,note_on,60,0,102
1,note_on,64,74,0
1,note_on,64,0,102
1,note_on,67,75,0
1,note_on,67,0,108
1,note_on,72,76,0
1,note_on,72,0,102
1,note_on,76,78,0
1,note_on,76,0,102
1,note_on,79,79,0
1,note_on,79,0,102
1,note_on,84,80,0
1,note_on,84,0,102
1,note_on,88,81,0
1,note_on,88,0,102
1,note_on,91,82,0
1,note_on,91,0,102
1,note_on,96,83,0
1,note_on,96,0,108
1,note_on,100,79,0
1,note_on,96,79,0
1,note_on,91,66,0
1,note_on,88,66,0
1,note_on,88,0,240
1,note_on,100,0,0
1,note_on,96,0,0
1,note_on,91,0,0
1,note_on,96,79,0
1,note_on,91,66,0
1,note_on,88,66,0
1,note_on,84,66,0
1,note_on,84,0,180
1,note_on,96,0,0
1,note_on,91,0,0
1,note_on,88,0,0
1,note_on,91,69,0
1,note_on,88,57,0
1,note_on,84,57,0
1,note_on,79,57,0
1,note_on,79,0,54
1,note_on,91,0,0
1,note_on,88,0,0
1,note_on,84,0,0
1,note_on,79,66,6
1,note_on,84,66,0
1,note_on,88,66,0
1,note_on,91,79,0
1,note_on,91,0,120
1,note_on,79,0,0
1,note_on,84,0,0
1,note_on,88,0,0
1,note_on,76,66,120
1,note_on,79,66,0
1,note_on,84,66,0
1,note_on,88,79,0
1,note_on,88,0,180
1,note_on,76,0,0
1,note_on,79,0,0
1,note_on,84,0,0
1,note_on,72,59,0
1,note_on,76,59,0
1,note_on,81,59,0
1,note_on,84,70,0
1,note_on,84,0,54
1,note_on,72,0,0
1,note_on,76,0,0
1,note_on,81,0,0
1,note_on,84,79,6
1,note_on,81,79,0
1,note_on,76,66,0
1,note_on,72,66,0
1,note_on,72,0,120
1,note_on,84,0,0
1,note_on,81,0,0
1,note_on,76,0,0
1,note_on,81,79,120
1,note_on,76,66,0
1,note_on,72,66,0
1,note_on,69,66,0
1,note_on,69,0,180
1,note_on,81,0,0
1,note_on,76,0,0
1,note_on,72,0,0
1,note_on,76,69,0
1,note_on,72,57,0
1,note_on,69,57,0
1,note_on,64,57,0
1,note_on,64,0,54
1,note_on,76,0,0
1,note_on,72,0,0
1,note_on,69,0,0
1,note_on,64,66,6
1,note_on,69,66,0
1,note_on,72,66,0
1,note_on,76,79,0
1,note_on,76,0,120
1,note_on,64,0,0
1,note_on,69,0,0
1,note_on,72,0,0
1,note_on,60,66,120
1,note_on,64,66,0
1,note_on,69,66,0
1,note_on,72,79,0
1,note_on,72,0,120
1,note_on,60,0,0
1,note_on,64,0,0
1,note_on,69,0,0
1,note_on,80,72,120
1,note_on,83,73,0
1,note_on,92,90,0
1,note_on,92,0,120
1,note_on,83,0,0
1,note_on,80,0,0
1,note_on,71,54,240
1,note_on,83,70,0
1,note_on,83,0,60
1,note_on,71,0,0
1,note_on,71,54,60
1,note_on,83,70,0
1,note_on,83,0,120
1,note_on,71,0,0
1,note_on,70,60,120
1,note_on,82,79,0
1,note_on,82,0,120
1,note_on,70,0,0
1,note_on,71,63,120
1,note_on,83,81,0
1,note_on,83,0,120
1,note_on,71,0,0
1,note_on,76,68,120
1,note_on,88,88,0
1,note_on,88,0,120
1,note_on,76,0,0
1,note_on,80,72,120
1,note_on,84,73,0
1,note_on,92,90,0
1,note_on,92,0,120
1,note_on,84,0,0
1,note_on,80,0,0
1,note_on,75,54,240
1,note_on,87,70,0
1,note_on,87,0,60
1,note_on,75,0,0
1,note_on,75,54,60
1,note_on,87,70,0
1,note_on,87,0,120
1,note_on,75,0,0
1,note_on,74,60,120
1,note_on,86,79,0
1,note_on,86,0,120
1,note_on,74,0,0
1,note_on,75,63,120
1,note_on,87,81,0
1,note_on,87,0,120
1,note_on,75,0,0
1,note_on,75,68,120
1,note_on,87,88,0
1,note_on,87,0,120
1,note_on,75,0,0
1,note_on,79,72,120
1,note_on,82,73,0
1,note_on,91,90,0
1,note_on,91,0,120
1,note_on,82,0,0
1,note_on,79,0,0
1,note_on,70,54,240
1,note_on,82,70,0
1,note_on,82,0,60
1,note_on,70,0,0
1,note_on,70,54,60
1,note_on,82,70,0
1,note_on,82,0,120
1,note_on,70,0,0
1,note_on,69,60,120
1,note_on,81,79,0
1,note_on,81,0,120
1,note_on,69,0,0
1,note_on,70,63,120
1,note_on,82,81,0
1,note_on,82,0,120
1,note_on,70,0,0
1,note_on,75,68,120
1,note_on,87,88,0
1,note_on,87,0,120
1,note_on,75,0,0
1,note_on,79,72,120
1,note_on,82,73,0
1,note_on,91,90,0
1,note_on,91,0,120
1,note_on,82,0,0
1,note_on,79,0,0
1,note_on,74,54,240
1,note_on,86,70,0
1,note_on,86,0,60
1,note_on,74,0,0
1,note_on,74,54,60
1,note_on,86,70,0
1,note_on,86,0,120
1,note_on,74,0,0
1,note_on,73,60,120
1,note_on,85,79,0
1,note_on,85,0,120
1,note_on,73,0,0
1,note_on,74,63,120
1,note_on,86,81,0
1,note_on,86,0,120
1,note_on,74,0,0
1,note_on,74,68,120
1,note_on,86,88,0
1,note_on,86,0,120
1,note_on,74,0,0
1,note_on,78,72,120
1,note_on,81,73,0
1,note_on,90,90,0
1,note_on,90,0,120
1,note_on,81,0,0
1,note_on,78,0,0
1,note_on,78,54,120
1,note_on,69,54,0
1,note_on,81,70,0
1,note_on,81,0,120
1,note_on,69,0,0
1,note_on,78,0,0
1,note_on,78,54,120
1,note_on,71,54,0
1,note_on,83,70,0
1,note_on,83,0,120
1,note_on,71,0,0
1,note_on,78,0,0
1,note_on,81,65,120
1,note_on,73,65,0
1,note_on,85,86,0
1,note_on,85,0,120
1,note_on,73,0,0
1,note_on,81,0,0
1,note_on,80,63,120
1,note_on,72,63,0
1,note_on,84,81,0
1,note_on,84,0,120
1,note_on,72,0,0
1,note_on,80,0,0
1,note_on,81,68,120
1,note_on,73,68,0
1,note_on,85,88,0
1,note_on,85,0,120
1,note_on,73,0,0
1,note_on,81,0,0
1,note_on,77,72,120
1,note_on,80,73,0
1,note_on,89,90,0
1,note_on,89,0,120
1,note_on,80,0,0
1,note_on,77,0,0
1,note_on,77,54,120
1,note_on,68,54,0
1,note_on,80,70,0
1,note_on,80,0,120
1,note_on,68,0,0
1,note_on,77,0,0
1,note_on,77,54,120
1,note_on,70,54,0
1,note_on,82,70,0
1,note_on,82,0,120
1,note_on,70,0,0
1,note_on,77,0,0
1,note_on,80,65,120
1,note_on,72,65,0
1,note_on,84,86,0
1,note_on,84,0,120
1,note_on,72,0,0
1,note_on,80,0,0
1,note_on,79,63,120
1,note_on,71,63,0
1,note_on,83,81,0
1,note_on,83,0,120
1,note_on,71,0,0
1,note_on,79,0,0
1,note_on,80,68,120
1,note_on,72,68,0
1,note_on,84,88,0
1,note_on,84,0,120
1,note_on,72,0,0
1,note_on,80,0,0
1,note_on,88,71,120
1,note_on,79,59,0
1,note_on,76,59,0
1,note_on,67,51,180
1,note_on,72,51,0
1,note_on,76,62,0
1,note_on,76,0,54
1,note_on,67,0,0
1,note_on,72,0,0
1,note_on,88,0,6
1,note_on,76,0,0
1,note_on,79,0,0
1,note_on,76,71,0
1,note_on,72,59,0
1,note_on,67,59,0
1,note_on,67,0,240
1,note_on,72,0,0
1,note_on,76,0,0
1,note_on,87,71,0
1,note_on,79,59,0
1,note_on,75,59,0
1,note_on,67,51,180
1,note_on,72,51,0
1,note_on,75,62,0
1,note_on,75,0,54
1,note_on,67,0,0
1,note_on,72,0,0
1,note_on,87,0,6
1,note_on,75,0,0
1,note_on,79,0,0
1,note_on,75,71,0
1,note_on,72,59,0
1,note_on,67,59,0
1,note_on,67,0,240
1,note_on,72,0,0
1,note_on,75,0,0
1,note_on,85,71,0
1,note_on,77,59,0
1,note_on,73,59,0
1,note_on,65,51,180
1,note_on,68,51,0
1,note_on,73,62,0
1,note_on,73,0,54
1,note_on,65,0,0
1,note_on,68,0,0
1,note_on,85,0,6
1,note_on,73,0,0
1,note_on,77,0,0
1,note_on,73,71,0
1,note_on,68,59,0
1,note_on,65,59,0
1,note_on,65,0,240
1,note_on,68,0,0
1,note_on,73,0,0
1,note_on,84,71,0
1,note_on,75,59,0
1,note_on,72,59,0
1,note_on,63,51,180
1,note_on,66,51,0
1,note_on,72,62,0
1,note_on,72,0,54
1,note_on,63,0,0
1,note_on,66,0,0
1,note_on,84,0,6
1,note_on,72,0,0
1,note_on,75,0,0
1,note_on,72,71,0
1,note_on,66,59,0
1,note_on,63,59,0
1,note_on,63,0,240
1,note_on,66,0,0
1,note_on,72,0,0
1,note_on,70,54,0
1,note_on,82,65,0
1,note_on,82,0,120
1,note_on,70,0,0
1,note_on,58,45,120
1,note_on,70,53,0
1,note_on,70,0,120
1,note_on,58,0,0
1,note_on,82,56,120
1,note_on,70,47,0
1,note_on,70,0,120
1,note_on,82,0,0
1,note_on,94,69,120
1,note_on,82,57,0
1,note_on,82,0,120
1,note_on,94,0,0
1,note_on,70,46,120
1,note_on,82,55,0
1,note_on,82,0,120
1,note_on,70,0,0
1,note_on,58,46,120
1,note_on,70,55,0
1,note_on,70,0,120
1,note_on,58,0,0
1,note_on,70,54,120
1,note_on,82,65,0
1,note_on,82,0,120
1,note_on,70,0,0
1,note_on,58,45,120
1,note_on,70,53,0
1,note_on,70,0,120
1,note_on,58,0,0
1,note_on,82,56,120
1,note_on,70,47,0
1,note_on,70,0,120
1,note_on,82,0,0
1,note_on,94,69,120
1,note_on,82,57,0
1,note_on,82,0,120
1,note_on,94,0,0
1,note_on,70,46,120
1,note_on,82,55,0
1,note_on,82,0,120
1,note_on,70,0,0
1,note_on,58,46,120
1,note_on,70,55,0
1,note_on,70,0,120
1,note_on,58,0,0
1,note_on,73,60,120
1,note_on,85,72,0
1,note_on,85,0,120
1,note_on,73,0,0
1,note_on,61,49,120
1,note_on,73,57,0
1,note_on,73,0,120
1,note_on,61,0,0
1,note_on,85,62,120
1,note_on,73,52,0
1,note_on,73,0,120
1,note_on,85,0,0
1,note_on,97,75,120
1,note_on,85,63,0
1,note_on,85,0,120
1,note_on,97,0,0
1,note_on,73,51,120
1,note_on,85,61,0
1,note_on,85,0,120
1,note_on,73,0,0
1,note_on,61,51,120
1,note_on,73,61,0
1,note_on,73,0,120
1,note_on,61,0,0
1,note_on,73,60,120
1,note_on,85,72,0
1,note_on,85,0,120
1,note_on,73,0,0
1,note_on,61,49,120
1,note_on,73,57,0
1,note_on,73,0,120
1,note_on,61,0,0
1,note_on,85,62,120
1,note_on,73,52,0
1,note_on,73,0,120
1,note_on,85,0,0
1,note_on,97,75,120
1,note_on,85,63,0
1,note_on,85,0,120
1,note_on,97,0,0
1,note_on,73,51,120
1,note_on,85,61,0
1,note_on,85,0,120
1,note_on,73,0,0
1,note_on,61,51,120
1,note_on,73,61,0
1,note_on,73,0,120
1,note_on,61,0,0
1,note_on,76,60,120
1,note_on,88,72,0
1,note_on,88,0,120
1,note_on,76,0,0
1,note_on,64,49,120
1,note_on,76,57,0
1,note_on,76,0,120
1,note_on,64,0,0
1,note_on,88,62,120
1,note_on,76,52,0
1,note_on,76,0,120
1,note_on,88,0,0
1,note_on,100,77,120
1,note_on,88,63,0
1,note_on,88,0,120
1,note_on,100,0,0
1,note_on,76,52,120
1,note_on,88,63,0
1,note_on,88,0,120
1,note_on,76,0,0
1,note_on,64,53,120
1,note_on,76,63,0
1,note_on,76,0,120
1,note_on,64,0,0
1,note_on,79,63,120
1,note_on,91,74,0
1,note_on,91,0,120
1,note_on,79,0,0
1,note_on,67,51,120
1,note_on,79,60,0
1,note_on,79,0,120
1,note_on,67,0,0
1,note_on,91,65,120
1,note_on,79,54,0
1,note_on,79,0,120
1,note_on,91,0,0
1,note_on,103,81,120
1,note_on,91,66,0
1,note_on,91,0,120
1,note_on,103,0,0
1,note_on,79,54,120
1,note_on,91,65,0
1,note_on,91,0,120
1,note_on,79,0,0
1,note_on,67,54,120
1,note_on,79,65,0
1,note_on,79,0,120
1,note_on,67,0,0
1,note_on,82,65,120
1,note_on,94,78,0
1,note_on,94,0,120
1,note_on,82,0,0
1,note_on,70,54,120
1,note_on,82,63,0
1,note_on,82,0,120
1,note_on,70,0,0
1,note_on,94,68,120
1,note_on,82,57,0
1,note_on,82,0,120
1,note_on,94,0,0
1,note_on,106,83,120
1,note_on,94,70,0
1,note_on,94,0,120
1,note_on,106,0,0
1,note_on,82,56,120
1,note_on,94,68,0
1,note_on,94,0,120
1,note_on,82,0,0
1,note_on,70,57,120
1,note_on,82,68,0
1,note_on,82,0,120
1,note_on,70,0,0
1,note_on,83,68,120
1,note_on,95,81,0
1,note_on,95,0,120
1,note_on,83,0,0
1,note_on,71,55,120
1,note_on,83,65,0
1,note_on,83,0,120
1,note_on,71,0,0
1,note_on,95,71,120
1,note_on,83,59,0
1,note_on,83,0,120
1,note_on,95,0,0
1,note_on,107,87,120
1,note_on,95,72,0
1,note_on,95,0,120
1,note_on,107,0,0
1,note_on,83,59,120
1,note_on,95,71,0
1,note_on,95,0,120
1,note_on,83,0,0
1,note_on,71,60,120
1,note_on,83,71,0
1,note_on,83,0,120
1,note_on,71,0,0
1,note_on,76,52,120
1,note_on,88,69,0
1,note_on,79,41,120
1,note_on,79,0,120
1,note_on,84,41,0
1,note_on,84,0,120
1,note_on,88,0,0
1,note_on,76,0,0
1,note_on,74,46,0
1,note_on,86,62,0
1,note_on,76,37,120
1,note_on,76,0,120
1,note_on,79,37,0
1,note_on,79,0,120
1,note_on,86,0,0
1,note_on,74,0,0
1,note_on,72,45,0
1,note_on,84,61,0
1,note_on,76,36,120
1,note_on,76,0,120
1,note_on,79,37,0
1,note_on,79,0,120
1,note_on,84,0,0
1,note_on,72,0,0
1,note_on,71,46,0
1,note_on,83,62,0
1,note_on,76,37,120
1,note_on,76,0,120
1,note_on,79,37,0
1,note_on,79,0,120
1,note_on,83,0,0
1,note_on,71,0,0
1,note_on,69,45,0
1,note_on,81,63,0
1,note_on,72,41,120
1,note_on,72,0,120
1,note_on,76,41,0
1,note_on,76,0,120
1,note_on,81,0,0
1,note_on,69,0,0
1,note_on,66,45,0
1,note_on,78,60,0
1,note_on,72,36,120
1,note_on,72,0,120
1,note_on,76,36,0
1,note_on,76,0,120
1,note_on,78,0,0
1,note_on,66,0,0
1,note_on,67,48,0
1,note_on,79,63,0
1,note_on,72,39,120
1,note_on,72,0,120
1,note_on,76,39,0
1,note_on,76,0,120
1,note_on,79,0,0
1,note_on,67,0,0
1,note_on,76,51,0
1,note_on,88,65,0
1,note_on,79,36,120
1,note_on,79,0,120
1,note_on,84,36,0
1,note_on,84,0,120
1,note_on,88,0,0
1,note_on,76,0,0
1,note_on,76,52,0
1,note_on,88,69,0
1,note_on,78,41,120
1,note_on,78,0,120
1,note_on,81,41,0
1,note_on,81,0,120
1,note_on,88,0,0
1,note_on,76,0,0
1,note_on,73,61,0
1,note_on,85,66,0
1,note_on,78,37,120
1,note_on,78,0,120
1,note_on,81,37,0
1,note_on,81,0,120
1,note_on,85,0,0
1,note_on,73,0,0
1,note_on,74,50,0
1,note_on,86,65,0
1,note_on,78,36,120
1,note_on,78,0,120
1,note_on,81,37,0
1,note_on,81,0,120
1,note_on,86,0,0
1,note_on,74,0,0
1,note_on,76,54,0
1,note_on,88,70,0
1,note_on,78,37,120
1,note_on,78,0,120
1,note_on,81,37,0
1,note_on,81,0,120
1,note_on,88,0,0
1,note_on,76,0,0
1,note_on,77,56,0
1,note_on,89,73,0
1,note_on,83,44,120
1,note_on,83,0,120
1,note_on,86,45,0
1,note_on,86,0,120
1,note_on,89,0,0
1,note_on,77,0,0
1,note_on,78,53,0
1,note_on,90,69,0
1,note_on,83,45,120
1,note_on,83,0,120
1,note_on,86,45,0
1,note_on,86,0,120
1,note_on,90,0,0
1,note_on,78,0,0
1,note_on,81,58,0
1,note_on,93,75,0
1,note_on,83,48,120
1,note_on,83,0,120
1,note_on,86,49,0
1,note_on,86,0,120
1,note_on,93,0,0
1,note_on,81,0,0
1,note_on,79,54,0
1,note_on,91,70,0
1,note_on,83,47,120
1,note_on,83,0,120
1,note_on,86,46,0
1,note_on,86,0,120
1,note_on,91,0,0
1,note_on,79,0,0
1,note_on,76,52,0
1,note_on,88,69,0
1,note_on,88,0,120
1,note_on,76,0,0
1,note_on,79,41,0
1,note_on,79,0,120
1,note_on,84,41,0
1,note_on,84,0,120
1,note_on,74,46,0
1,note_on,86,62,0
1,note_on,86,0,120
1,note_on,74,0,0
1,note_on,76,37,0
1,note_on,76,0,120
1,note_on,79,37,0
1,note_on,79,0,120
1,note_on,72,45,0
1,note_on,84,61,0
1,note_on,84,0,120
1,note_on,72,0,0
1,note_on,76,36,0
1,note_on,76,0,120
1,note_on,79,37,0
1,note_on,79,0,120
1,note_on,71,46,0
1,note_on,83,62,0
1,note_on,83,0,120
1,note_on,71,0,0
1,note_on,76,37,0
1,note_on,76,0,120
1,note_on,79,37,0
1,note_on,79,0,120
1,note_on,69,45,0
1,note_on,81,63,0
1,note_on,81,0,120
1,note_on,69,0,0
1,note_on,72,41,0
1,note_on,72,0,120
1,note_on,76,41,0
1,note_on,76,0,120
1,note_on,66,45,0
1,note_on,78,60,0
1,note_on,78,0,120
1,note_on,66,0,0
1,note_on,72,36,0
1,note_on,72,0,120
1,note_on,76,36,0
1,note_on,76,0,120
1,note_on,67,48,0
1,note_on,79,63,0
1,note_on,79,0,120
1,note_on,67,0,0
1,note_on,72,39,0
1,note_on,72,0,120
1,note_on,76,39,0
1,note_on,76,0,120
1,note_on,76,51,0
1,note_on,88,65,0
1,note_on,88,0,120
1,note_on,76,0,0
1,note_on,79,36,0
1,note_on,79,0,120
1,note_on,84,36,0
1,note_on,84,0,120
1,note_on,76,45,0
1,note_on,88,65,0
1,note_on,88,0,120
1,note_on,76,0,0
1,note_on,78,43,0
1,note_on,78,0,120
1,note_on,81,43,0
1,note_on,81,0,120
1,note_on,75,53,0
1,note_on,87,63,0
1,note_on,87,0,120
1,note_on,75,0,0
1,note_on,78,48,0
1,note_on,78,0,120
1,note_on,81,49,0
1,note_on,81,0,120
1,note_on,79,59,0
1,note_on,91,70,0
1,note_on,91,0,120
1,note_on,79,0,0
1,note_on,81,49,0
1,note_on,81,0,120
1,note_on,87,51,0
1,note_on,87,0,120
1,note_on,78,64,0
1,note_on,90,76,0
1,note_on,90,0,120
1,note_on,78,0,0
1,note_on,81,52,0
1,note_on,81,0,120
1,note_on,87,54,0
1,note_on,87,0,120
1,note_on,81,69,0
1,note_on,93,81,0
1,note_on,93,0,120
1,note_on,81,0,0
1,note_on,83,58,0
1,note_on,83,0,120
1,note_on,88,59,0
1,note_on,88,0,120
1,note_on,79,69,0
1,note_on,91,82,0
1,note_on,91,0,120
1,note_on,79,0,0
1,note_on,83,60,0
1,note_on,83,0,120
1,note_on,88,63,0
1,note_on,88,0,120
1,note_on,83,80,0
1,note_on,95,94,0
1,note_on,95,0,120
1,note_on,83,0,0
1,note_on,86,63,0
1,note_on,86,0,120
1,note_on,89,64,0
1,note_on,89,0,120
1,note_on,81,73,0
1,note_on,93,87,0
1,note_on,93,0,120
1,note_on,81,0,0
1,note_on,86,49,0
1,note_on,89,59,0
1,note_on,89,0,120
1,note_on,86,0,0
1,note_on,79,59,0
1,note_on,91,59,0
1,note_on,91,0,120
1,note_on,79,0,0
1,note_on,91,79,0
1,note_on,88,79,0
1,note_on,100,94,0
1,note_on,100,0,360
1,note_on,88,0,0
1,note_on,91,0,0
1,note_on,91,70,0
1,note_on,88,70,0
1,note_on,86,70,0
1,note_on,98,84,0
1,note_on,98,0,360
1,note_on,91,0,0
1,note_on,88,0,0
1,note_on,86,0,0
1,note_on,91,69,0
1,note_on,88,69,0
1,note_on,84,69,0
1,note_on,96,83,0
1,note_on,96,0,360
1,note_on,91,0,0
1,note_on,88,0,0
1,note_on,84,0,0
1,note_on,91,70,0
1,note_on,88,70,0
1,note_on,83,70,0
1,note_on,95,84,0
1,note_on,95,0,360
1,note_on,91,0,0
1,note_on,88,0,0
1,note_on,83,0,0
1,note_on,88,69,0
1,note_on,84,69,0
1,note_on,81,69,0
1,note_on,93,88,0
1,note_on,93,0,360
1,note_on,88,0,0
1,note_on,84,0,0
1,note_on,81,0,0
1,note_on,88,69,0
1,note_on,84,69,0
1,note_on,78,69,0
1,note_on,90,82,0
1,note_on,90,0,360
1,note_on,88,0,0
1,note_on,84,0,0
1,note_on,78,0,0
1,note_on,88,72,0
1,note_on,84,72,0
1,note_on,79,72,0
1,note_on,91,86,0
1,note_on,91,0,360
1,note_on,88,0,0
1,note_on,84,0,0
1,note_on,79,0,0
1,note_on,96,77,0
1,note_on,91,77,0
1,note_on,88,77,0
1,note_on,100,90,0
1,note_on,100,0,360
1,note_on,96,0,0
1,note_on,91,0,0
1,note_on,88,0,0
1,note_on,93,77,0
1,note_on,90,77,0
1,note_on,88,77,0
1,note_on,100,90,0
1,note_on,100,0,360
1,note_on,93,0,0
1,note_on,90,0,0
1,note_on,88,0,0
1,note_on,93,72,0
1,note_on,90,72,0
1,note_on,85,72,0
1,note_on,97,85,0
1,note_on,97,0,360
1,note_on,93,0,0
1,note_on,90,0,0
1,note_on,85,0,0
1,note_on,93,79,0
1,note_on,90,79,0
1,note_on,86,79,0
1,note_on,98,94,0
1,note_on,98,0,360
1,note_on,93,0,0
1,note_on,90,0,0
1,note_on,86,0,0
1,note_on,93,83,0
1,note_on,90,83,0
1,note_on,88,83,0
1,note_on,100,99,0
1,note_on,100,0,360
1,note_on,93,0,0
1,note_on,90,0,0
1,note_on,88,0,0
1,note_on,95,85,0
1,note_on,92,85,0
1,note_on,89,85,0
1,note_on,101,99,0
1,note_on,101,0,360
1,note_on,95,0,0
1,note_on,92,0,0
1,note_on,89,0,0
1,note_on,92,86,0
1,note_on,89,86,0
1,note_on,86,86,0
1,note_on,98,98,0
1,note_on,98,0,360
1,note_on,92,0,0
1,note_on,89,0,0
1,note_on,86,0,0
1,note_on,86,79,0
1,note_on,83,79,0
1,note_on,80,79,0
1,note_on,92,91,0
1,note_on,92,0,360
1,note_on,86,0,0
1,note_on,83,0,0
1,note_on,80,0,0
1,note_on,86,67,0
1,note_on,83,67,0
1,note_on,79,67,0
1,note_on,91,80,0
1,note_on,91,0,360
1,note_on,86,0,0
1,note_on,83,0,0
1,note_on,79,0,0
1,note_on,79,59,0
1,note_on,76,59,0
1,note_on,88,70,0
1,note_on,88,0,360
1,note_on,76,0,0
1,note_on,79,0,0
1,note_on,79,52,0
1,note_on,76,52,0
1,note_on,74,52,0
1,note_on,86,63,0
1,note_on,86,0,360
1,note_on,79,0,0
1,note_on,76,0,0
1,note_on,74,0,0
1,note_on,79,51,0
1,note_on,76,51,0
1,note_on,72,51,0
1,note_on,84,62,0
1,note_on,84,0,360
1,note_on,79,0,0
1,note_on,76,0,0
1,note_on,72,0,0
1,note_on,79,52,0
1,note_on,76,52,0
1,note_on,71,52,0
1,note_on,83,63,0
1,note_on,83,0,360
1,note_on,79,0,0
1,note_on,76,0,0
1,note_on,71,0,0
1,note_on,76,51,0
1,note_on,72,51,0
1,note_on,69,51,0
1,note_on,81,65,0
1,note_on,81,0,360
1,note_on,76,0,0
1,note_on,72,0,0
1,note_on,69,0,0
1,note_on,76,51,0
1,note_on,72,51,0
1,note_on,66,51,0
1,note_on,78,62,0
1,note_on,78,0,360
1,note_on,76,0,0
1,note_on,72,0,0
1,note_on,66,0,0
1,note_on,76,54,0
1,note_on,72,54,0
1,note_on,67,54,0
1,note_on,79,64,0
1,note_on,79,0,360
1,note_on,76,0,0
1,note_on,72,0,0
1,note_on,67,0,0
1,note_on,84,57,0
1,note_on,79,57,0
1,note_on,76,57,0
1,note_on,88,67,0
1,note_on,88,0,180
1,note_on,84,0,0
1,note_on,79,0,0
1,note_on,76,0,0
1,note_on,80,64,180
1,note_on,77,64,0
1,note_on,89,77,0
1,note_on,89,0,360
1,note_on,77,0,0
1,note_on,80,0,0
1,note_on,80,57,0
1,note_on,75,57,0
1,note_on,87,68,0
1,note_on,87,0,360
1,note_on,75,0,0
1,note_on,80,0,0
1,note_on,80,56,0
1,note_on,73,56,0
1,note_on,85,67,0
1,note_on,85,0,360
1,note_on,73,0,0
1,note_on,80,0,0
1,note_on,80,57,0
1,note_on,72,57,0
1,note_on,84,68,0
1,note_on,84,0,360
1,note_on,72,0,0
1,note_on,80,0,0
1,note_on,77,56,0
1,note_on,73,56,0
1,note_on,70,56,0
1,note_on,82,72,0
1,note_on,82,0,360
1,note_on,77,0,0
1,note_on,73,0,0
1,note_on,70,0,0
1,note_on,77,56,0
1,note_on,73,56,0
1,note_on,67,56,0
1,note_on,79,67,0
1,note_on,79,0,360
1,note_on,77,0,0
1,note_on,73,0,0
1,note_on,67,0,0
1,note_on,77,59,0
1,note_on,73,59,0
1,note_on,68,59,0
1,note_on,80,70,0
1,note_on,80,0,360
1,note_on,77,0,0
1,note_on,73,0,0
1,note_on,68,0,0
1,note_on,85,63,0
1,note_on,80,63,0
1,note_on,77,63,0
1,note_on,89,73,0
1,note_on,89,0,180
1,note_on,85,0,0
1,note_on,80,0,0
1,note_on,77,0,0
1,note_on,81,68,180
1,note_on,78,68,0
1,note_on,90,81,0
1,note_on,90,0,360
1,note_on,78,0,0
1,note_on,81,0,0
1,note_on,81,64,0
1,note_on,76,64,0
1,note_on,88,77,0
1,note_on,88,0,360
1,note_on,76,0,0
1,note_on,81,0,0
1,note_on,78,63,0
1,note_on,81,63,0
1,note_on,74,63,0
1,note_on,86,75,0
1,note_on,86,0,360
1,note_on,78,0,0
1,note_on,81,0,0
1,note_on,74,0,0
1,note_on,74,62,0
1,note_on,78,62,0
1,note_on,69,62,0
1,note_on,81,72,0
1,note_on,81,0,360
1,note_on,74,0,0
1,note_on,78,0,0
1,note_on,69,0,0
1,note_on,82,73,0
1,note_on,79,73,0
1,note_on,91,87,0
1,note_on,91,0,360
1,note_on,79,0,0
1,note_on,82,0,0
1,note_on,82,68,0
1,note_on,77,68,0
1,note_on,89,81,0
1,note_on,89,0,360
1,note_on,77,0,0
1,note_on,82,0,0
1,note_on,82,66,0
1,note_on,76,66,0
1,note_on,88,79,0
1,note_on,88,0,360
1,note_on,76,0,0
1,note_on,82,0,0
1,note_on,76,64,0
1,note_on,70,64,0
1,note_on,82,77,0
1,note_on,82,0,360
1,note_on,70,0,0
1,note_on,76,0,0
1,note_on,86,78,0
1,note_on,83,78,0
1,note_on,80,78,0
1,note_on,92,91,0
1,note_on,92,0,360
1,note_on,86,0,0
1,note_on,83,0,0
1,note_on,80,0,0
1,note_on,86,72,0
1,note_on,83,72,0
1,note_on,79,72,0
1,note_on,91,86,0
1,note_on,91,0,360
1,note_on,86,0,0
1,note_on,83,0,0
1,note_on,79,0,0
1,note_on,80,69,0
1,note_on,83,69,0
1,note_on,77,69,0
1,note_on,89,82,0
1,note_on,89,0,360
1,note_on,80,0,0
1,note_on,83,0,0
1,note_on,77,0,0
1,note_on,77,67,0
1,note_on,80,67,0
1,note_on,74,67,0
1,note_on,86,80,0
1,note_on,86,0,360
1,note_on,77,0,0
1,note_on,80,0,0
1,note_on,74,0,0
1,note_on,77,67,0
1,note_on,74,67,0
1,note_on,71,67,0
1,note_on,83,80,0
1,note_on,83,0,360
1,note_on,77,0,0
1,note_on,74,0,0
1,note_on,71,0,0
1,note_on,74,63,0
1,note_on,71,63,0
1,note_on,68,63,0
1,note_on,80,75,0
1,note_on,80,0,360
1,note_on,74,0,0
1,note_on,71,0,0
1,note_on,68,0,0
1,note_on,71,63,0
1,note_on,74,63,0
1,note_on,67,63,0
1,note_on,79,75,0
1,note_on,79,0,360
1,note_on,71,0,0
1,note_on,74,0,0
1,note_on,67,0,0
1,note_on,68,64,0
1,note_on,71,64,0
1,note_on,65,64,0
1,note_on,77,77,0
1,note_on,77,0,360
1,note_on,68,0,0
1,note_on,71,0,0
1,note_on,65,0,0
1,note_on,68,68,0
1,note_on,65,68,0
1,note_on,62,68,0
1,note_on,74,81,0
1,note_on,74,0,360
1,note_on,68,0,0
1,note_on,65,0,0
1,note_on,62,0,0
1,note_on,65,63,0
1,note_on,62,63,0
1,note_on,59,63,0
1,note_on,71,75,0
1,note_on,71,0,360
1,note_on,65,0,0
1,note_on,62,0,0
1,note_on,59,0,0
1,note_on,59,65,0
1,note_on,62,65,0
1,note_on,56,65,0
1,note_on,68,78,0
1,note_on,68,0,360
1,note_on,59,0,0
1,note_on,62,0,0
1,note_on,56,0,0
1,note_on,59,68,0
1,note_on,62,68,0
1,note_on,55,68,0
1,note_on,67,81,0
1,note_on,67,0,360
1,note_on,59,0,0
1,note_on,62,0,0
1,note_on,55,0,0
1,note_on,62,73,0
1,note_on,59,73,0
1,note_on,53,73,0
1,note_on,65,88,0
1,note_on,65,0,360
1,note_on,62,0,0
1,note_on,59,0,0
1,note_on,53,0,0
1,note_on,62,73,0
1,note_on,59,73,0
1,note_on,56,73,0
1,note_on,68,88,0
1,note_on,68,0,360
1,note_on,62,0,0
1,note_on,59,0,0
1,note_on,56,0,0
1,note_on,59,76,0
1,note_on,62,76,0
1,note_on,55,76,0
1,note_on,67,91,0
1,note_on,67,0,360
1,note_on,59,0,0
1,note_on,62,0,0
1,note_on,55,0,0
1,note_on,56,79,0
1,note_on,62,79,0
1,note_on,53,79,0
1,note_on,65,94,0
1,note_on,65,0,360
1,note_on,56,0,0
1,note_on,62,0,0
1,note_on,53,0,0
1,note_on,48,70,0
1,note_on,60,82,0
1,note_on,60,0,120
1,note_on,55,71,0
1,note_on,52,60,4
1,note_on,55,0,116
1,note_on,60,72,0
1,note_on,52,0,4
1,note_on,60,0,86
1,note_on,60,73,30
1,note_on,60,0,120
1,note_on,67,75,0
1,note_on,64,63,0
1,note_on,64,0,120
1,note_on,67,0,0
1,note_on,72,77,0
1,note_on,72,0,90
1,note_on,48,0,30
1,note_on,72,78,0
1,note_on,72,0,120
1,note_on,79,80,0
1,note_on,76,67,0
1,note_on,76,0,120
1,note_on,79,0,0
1,note_on,84,81,0
1,note_on,84,0,90
1,note_on,84,82,30
1,note_on,84,0,80
1,note_on,88,88,0
1,note_on,91,91,20
1,note_on,96,95,20
1,note_on,96,0,120
1,note_on,91,0,0
1,note_on,88,0,0
1,note_on,49,70,120
1,note_on,61,82,0
1,note_on,61,0,120
1,note_on,53,71,0
1,note_on,53,0,120
1,note_on,58,67,0
1,note_on,61,72,0
1,note_on,61,0,90
1,note_on,58,0,0
1,note_on,61,73,30
1,note_on,61,0,120
1,note_on,65,75,0
1,note_on,65,0,120
1,note_on,70,71,0
1,note_on,73,77,0
1,note_on,73,0,90
1,note_on,70,0,0
1,note_on,49,0,30
1,note_on,73,78,0
1,note_on,73,0,120
1,note_on,77,80,0
1,note_on,77,0,120
1,note_on,82,77,0
1,note_on,85,81,0
1,note_on,85,0,90
1,note_on,82,0,0
1,note_on,85,82,30
1,note_on,85,0,80
1,note_on,89,88,0
1,note_on,94,91,20
1,note_on,97,95,20
1,note_on,97,0,120
1,note_on,94,0,0
1,note_on,89,0,0
1,note_on,48,70,120
1,note_on,60,82,0
1,note_on,55,71,110
1,note_on,52,60,3
1,note_on,60,0,7
1,note_on,55,0,110
1,note_on,52,0,3
1,note_on,60,72,7
1,note_on,60,0,90
1,note_on,60,73,30
1,note_on,60,0,120
1,note_on,67,75,0
1,note_on,64,63,0
1,note_on,64,0,120
1,note_on,67,0,0
1,note_on,72,77,0
1,note_on,72,0,90
1,note_on,48,0,30
1,note_on,72,78,0
1,note_on,72,0,120
1,note_on,79,80,0
1,note_on,76,67,0
1,note_on,76,0,120
1,note_on,79,0,0
1,note_on,84,81,0
1,note_on,84,0,90
1,note_on,84,82,30
1,note_on,84,0,80
1,note_on,88,88,0
1,note_on,91,91,20
1,note_on,96,95,20
1,note_on,96,0,120
1,note_on,91,0,0
1,note_on,88,0,0
1,note_on,53,70,120
1,note_on,65,82,0
1,note_on,65,0,120
1,note_on,56,64,0
1,note_on,59,71,0
1,note_on,59,0,120
1,note_on,56,0,0
1,note_on,65,72,0
1,note_on,65,0,90
1,note_on,65,73,30
1,note_on,65,0,120
1,note_on,68,66,0
1,note_on,71,75,0
1,note_on,71,0,120
1,note_on,68,0,0
1,note_on,77,77,0
1,note_on,77,0,90
1,note_on,53,0,30
1,note_on,77,78,0
1,note_on,77,0,120
1,note_on,80,71,0
1,note_on,83,80,0
1,note_on,83,0,120
1,note_on,80,0,0
1,note_on,89,81,0
1,note_on,89,0,90
1,note_on,89,82,30
1,note_on,89,0,80
1,note_on,92,88,0
1,note_on,95,91,20
1,note_on,101,95,20
1,note_on,101,0,120
1,note_on,95,0,0
1,note_on,92,0,0
1,note_on,52,70,120
1,note_on,64,82,0
1,note_on,55,71,110
1,note_on,64,0,10
1,note_on,52,0,0
1,note_on,55,0,110
1,note_on,60,72,10
1,note_on,60,0,120
1,note_on,64,73,0
1,note_on,64,0,120
1,note_on,76,77,0
1,note_on,72,75,0
1,note_on,67,63,0
1,note_on,67,0,120
1,note_on,72,0,0
1,note_on,76,0,0
1,note_on,73,85,120
1,note_on,61,72,0
1,note_on,61,0,120
1,note_on,73,0,0
1,note_on,65,74,0
1,note_on,65,0,120
1,note_on,70,64,0
1,note_on,73,76,0
1,note_on,73,0,90
1,note_on,70,0,0
1,note_on,73,78,30
1,note_on,73,0,120
1,note_on,77,67,0
1,note_on,82,67,0
1,note_on,85,80,0
1,note_on,85,0,120
1,note_on,82,0,0
1,note_on,77,0,0
1,note_on,60,70,120
1,note_on,72,82,0
1,note_on,72,0,120
1,note_on,60,0,0
1,note_on,67,71,0
1,note_on,64,63,0
1,note_on,64,0,120
1,note_on,67,0,0
1,note_on,72,72,0
1,note_on,72,0,90
1,note_on,72,73,30
1,note_on,72,0,120
1,note_on,84,77,0
1,note_on,79,75,0
1,note_on,76,63,0
1,note_on,76,0,120
1,note_on,79,0,0
1,note_on,84,0,0
1,note_on,89,85,120
1,note_on,77,72,0
1,note_on,77,0,120
1,note_on,89,0,0
1,note_on,80,69,0
1,note_on,83,74,0
1,note_on,83,0,120
1,note_on,80,0,0
1,note_on,89,78,0
1,note_on,89,0,90
1,note_on,89,81,30
1,note_on,89,0,120
1,note_on,92,72,0
1,note_on,95,72,0
1,note_on,101,85,0
1,note_on,101,0,120
1,note_on,95,0,0
1,note_on,92,0,0
1,note_on,100,75,120
1,note_on,96,63,0
1,note_on,91,63,0
1,note_on,91,0,120
1,note_on,96,0,0
1,note_on,100,0,0
1,note_on,94,54,120
1,note_on,97,65,0
1,note_on,89,54,0
1,note_on,89,0,120
1,note_on,97,0,0
1,note_on,94,0,0
1,note_on,96,73,120
1,note_on,91,62,0
1,note_on,88,62,0
1,note_on,88,0,120
1,note_on,91,0,0
1,note_on,96,0,0
1,note_on,94,65,120
1,note_on,89,54,0
1,note_on,85,54,0
1,note_on,85,0,120
1,note_on,89,0,0
1,note_on,94,0,0
1,note_on,91,75,120
1,note_on,88,63,0
1,note_on,84,63,0
1,note_on,84,0,120
1,note_on,88,0,0
1,note_on,91,0,0
1,note_on,80,53,120
1,note_on,83,53,0
1,note_on,86,53,0
1,note_on,89,63,0
1,note_on,89,0,120
1,note_on,80,0,0
1,note_on,83,0,0
1,note_on,86,0,0
1,note_on,88,69,120
1,note_on,84,58,0
1,note_on,79,58,0
1,note_on,79,0,120
1,note_on,84,0,0
1,note_on,88,0,0
1,note_on,82,50,120
1,note_on,85,60,0
1,note_on,77,50,0
1,note_on,77,0,120
1,note_on,85,0,0
1,note_on,82,0,0
1,note_on,84,67,120
1,note_on,79,56,0
1,note_on,76,56,0
1,note_on,76,0,120
1,note_on,79,0,0
1,note_on,84,0,0
1,note_on,82,60,120
1,note_on,77,50,0
1,note_on,73,50,0
1,note_on,73,0,120
1,note_on,77,0,0
1,note_on,82,0,0
1,note_on,79,69,120
1,note_on,76,58,0
1,note_on,72,58,0
1,note_on,72,0,120
1,note_on,76,0,0
1,note_on,79,0,0
1,note_on,68,48,120
1,note_on,71,48,0
1,note_on,74,48,0
1,note_on,77,57,0
1,note_on,77,0,120
1,note_on,68,0,0
1,note_on,71,0,0
1,note_on,74,0,0
1,note_on,76,69,120
1,note_on,72,58,0
1,note_on,67,58,0
1,note_on,67,0,120
1,note_on,72,0,0
1,note_on,76,0,0
1,note_on,70,52,120
1,note_on,73,61,0
1,note_on,65,52,0
1,note_on,65,0,120
1,note_on,73,0,0
1,note_on,70,0,0
1,note_on,72,71,120
1,note_on,67,59,0
1,note_on,64,59,0
1,note_on,64,0,120
1,note_on,67,0,0
1,note_on,72,0,0
1,note_on,70,64,120
1,note_on,65,54,0
1,note_on,61,54,0
1,note_on,61,0,120
1,note_on,65,0,0
1,note_on,70,0,0
1,note_on,67,76,120
1,note_on,64,64,0
1,note_on,60,64,0
1,note_on,60,0,120
1,note_on,64,0,0
1,note_on,67,0,0
1,note_on,56,54,120
1,note_on,59,54,0
1,note_on,62,54,0
1,note_on,65,64,0
1,note_on,65,0,120
1,note_on,56,0,0
1,note_on,59,0,0
1,note_on,62,0,0
1,note_on,64,81,120
1,note_on,60,68,0
1,note_on,55,68,0
1,note_on,55,0,120
1,note_on,60,0,0
1,note_on,64,0,0
1,note_on,58,60,120
1,note_on,61,71,0
1,note_on,53,60,0
1,note_on,53,0,120
1,note_on,61,0,0
1,note_on,58,0,0
1,note_on,60,82,120
1,note_on,55,70,0
1,note_on,52,70,0
1,note_on,52,0,120
1,note_on,55,0,0
1,note_on,60,0,0
1,note_on,58,74,120
1,note_on,53,63,0
1,note_on,49,63,0
1,note_on,49,0,120
1,note_on,53,0,0
1,note_on,58,0,0
1,note_on,55,88,120
1,note_on,52,74,0
1,note_on,52,0,120
1,note_on,55,0,0
1,note_on,44,74,120
1,note_on,47,74,0
1,note_on,53,90,0
1,note_on,53,0,120
1,note_on,47,0,0
1,note_on,44,0,0
1,note_on,44,74,600
1,note_on,47,74,0
1,note_on,50,90,0
1,note_on,50,0,120
1,note_on,47,0,0
1,note_on,44,0,0
1,note_on,44,74,600
1,note_on,47,90,0
1,note_on,47,0,120
1,note_on,44,0,0
1,note_on,44,81,120
1,note_on,47,81,0
1,note_on,56,99,0
1,note_on,56,0,120
1,note_on,47,0,0
1,note_on,44,0,0
1,note_on,44,74,120
1,note_on,47,74,0
1,note_on,53,90,0
1,note_on,53,0,120
1,note_on,47,0,0
1,note_on,44,0,0
1,note_on,44,79,600
1,note_on,44,0,90
1,note_on,43,81,30
1,note_on,43,0,90
1,note_on,42,83,30
1,note_on,42,0,90
1,note_on,41,86,30
1,note_on,41,0,90
1,note_on,40,74,30
1,note_on,43,74,0
1,note_on,48,89,0
1,note_on,48,0,1440
1,note_on,43,0,0
1,note_on,40,0,0
2,note_on,24,55,0
2,note_on,36,65,0
2,note_on,48,66,120
2,note_on,48,0,120
2,note_on,36,0,0
2,note_on,24,0,0
2,note_on,31,57,0
2,note_on,43,68,0
2,note_on,55,71,120
2,note_on,55,0,120
2,note_on,43,0,0
2,note_on,31,0,0
2,note_on,29,61,0
2,note_on,41,72,0
2,note_on,53,73,120
2,note_on,53,0,120
2,note_on,41,0,0
2,note_on,29,0,0
2,note_on,27,64,0
2,note_on,39,76,0
2,note_on,51,78,120
2,note_on,51,0,120
2,note_on,39,0,0
2,note_on,27,0,0
2,note_on,26,68,0
2,note_on,38,81,0
2,note_on,50,82,120
2,note_on,50,0,120
2,note_on,38,0,0
2,note_on,26,0,0
2,note_on,24,84,0
2,note_on,36,102,0
2,note_on,48,76,120
2,note_on,48,0,120
2,note_on,36,0,0
2,note_on,24,0,0
2,note_on,60,91,0
2,note_on,55,77,0
2,note_on,51,77,0
2,note_on,48,77,0
2,note_on,48,0,120
2,note_on,60,0,0
2,note_on,55,0,0
2,note_on,51,0,0
2,note_on,60,72,240
2,note_on,55,60,0
2,note_on,51,60,0
2,note_on,48,60,0
2,note_on,48,0,120
2,note_on,60,0,0
2,note_on,55,0,0
2,note_on,51,0,0
2,note_on,60,80,0
2,note_on,55,67,0
2,note_on,51,67,0
2,note_on,48,67,0
2,note_on,48,0,120
2,note_on,60,0,0
2,note_on,55,0,0
2,note_on,51,0,0
2,note_on,48,54,480
2,note_on,51,54,0
2,note_on,60,64,0
2,note_on,55,54,0
2,note_on,55,0,120
2,note_on,48,0,0
2,note_on,51,0,0
2,note_on,60,0,0
2,note_on,60,73,0
2,note_on,55,63,0
2,note_on,51,63,0
2,note_on,48,63,0
2,note_on,48,0,120
2,note_on,60,0,0
2,note_on,55,0,0
2,note_on,51,0,0
2,note_on,48,53,480
2,note_on,51,53,0
2,note_on,55,53,0
2,note_on,60,63,0
2,note_on,60,0,120
2,note_on,48,0,0
2,note_on,51,0,0
2,note_on,55,0,0
2,note_on,60,72,0
2,note_on,55,60,0
2,note_on,51,60,0
2,note_on,48,60,0
2,note_on,48,0,120
2,note_on,60,0,0
2,note_on,55,0,0
2,note_on,51,0,0
2,note_on,48,53,120
2,note_on,51,53,0
2,note_on,55,53,0
2,note_on,59,63,0
2,note_on,59,0,120
2,note_on,48,0,0
2,note_on,51,0,0
2,note_on,55,0,0
2,note_on,60,72,120
2,note_on,55,60,0
2,note_on,51,60,0
2,note_on,48,60,0
2,note_on,48,0,120
2,note_on,60,0,0
2,note_on,55,0,0
2,note_on,51,0,0
2,note_on,35,55,360
2,note_on,38,65,0
2,note_on,47,63,120
2,note_on,50,66,0
2,note_on,50,0,120
2,note_on,35,0,0
2,note_on,38,0,0
2,note_on,47,0,0
2,note_on,44,68,0
2,note_on,56,71,120
2,note_on,56,0,120
2,note_on,44,0,0
2,note_on,43,72,0
2,note_on,55,73,120
2,note_on,55,0,120
2,note_on,43,0,0
2,note_on,41,76,0
2,note_on,53,78,120
2,note_on,53,0,120
2,note_on,41,0,0
2,note_on,39,81,0
2,note_on,51,82,120
2,note_on,51,0,120
2,note_on,39,0,0
2,note_on,38,102,0
2,note_on,50,76,120
2,note_on,50,0,90
2,note_on,38,0,0
2,note_on,47,77,0
2,note_on,53,77,10
2,note_on,56,77,10
2,note_on,62,91,10
2,note_on,62,0,120
2,note_on,47,0,0
2,note_on,53,0,0
2,note_on,56,0,0
2,note_on,56,72,240
2,note_on,53,60,0
2,note_on,47,60,0
2,note_on,47,0,120
2,note_on,53,0,0
2,note_on,56,0,0
2,note_on,56,80,0
2,note_on,53,67,0
2,note_on,47,67,0
2,note_on,47,0,120
2,note_on,53,0,0
2,note_on,56,0,0
2,note_on,53,54,480
2,note_on,62,64,0
2,note_on,56,54,0
2,note_on,56,0,120
2,note_on,62,0,0
2,note_on,53,0,0
2,note_on,62,73,0
2,note_on,56,63,0
2,note_on,53,63,0
2,note_on,53,0,120
2,note_on,56,0,0
2,note_on,62,0,0
2,note_on,47,53,480
2,note_on,53,53,0
2,note_on,56,63,0
2,note_on,56,0,120
2,note_on,53,0,0
2,note_on,47,0,0
2,note_on,56,72,0
2,note_on,53,60,0
2,note_on,47,60,0
2,note_on,47,0,120
2,note_on,53,0,0
2,note_on,56,0,0
2,note_on,47,53,120
2,note_on,52,53,0
2,note_on,56,63,0
2,note_on,56,0,120
2,note_on,52,0,0
2,note_on,47,0,0
2,note_on,56,72,120
2,note_on,53,60,0
2,note_on,47,60,0
2,note_on,47,0,120
2,note_on,53,0,0
2,note_on,56,0,0
2,note_on,36,45,600
2,note_on,43,45,0
2,note_on,48,53,0
2,note_on,48,0,120
2,note_on,43,0,0
2,note_on,36,0,0
2,note_on,48,34,120
2,note_on,48,0,60
2,note_on,50,36,0
2,note_on,50,0,60
2,note_on,51,37,0
2,note_on,51,0,60
2,note_on,53,39,0
2,note_on,53,0,60
2,note_on,55,41,0
2,note_on,55,0,120
2,note_on,32,40,120
2,note_on,41,40,0
2,note_on,44,47,0
2,note_on,44,0,90
2,note_on,41,0,0
2,note_on,32,0,0
2,note_on,32,42,150
2,note_on,41,42,0
2,note_on,44,50,0
2,note_on,44,0,90
2,note_on,41,0,0
2,note_on,32,0,0
2,note_on,34,45,150
2,note_on,41,45,0
2,note_on,46,54,0
2,note_on,46,0,120
2,note_on,41,0,0
2,note_on,34,0,0
2,note_on,53,36,120
2,note_on,53,0,60
2,note_on,51,36,0
2,note_on,51,0,60
2,note_on,50,38,0
2,note_on,50,0,60
2,note_on,48,41,0
2,note_on,48,0,60
2,note_on,46,43,0
2,note_on,46,0,120
2,note_on,31,45,120
2,note_on,39,45,0
2,note_on,43,54,0
2,note_on,43,0,90
2,note_on,39,0,0
2,note_on,31,0,0
2,note_on,31,47,150
2,note_on,39,47,0
2,note_on,43,56,0
2,note_on,43,0,90
2,note_on,39,0,0
2,note_on,31,0,0
2,note_on,32,52,150
2,note_on,39,52,0
2,note_on,44,63,0
2,note_on,44,0,120
2,note_on,39,0,0
2,note_on,32,0,0
2,note_on,44,40,120
2,note_on,44,0,60
2,note_on,46,41,0
2,note_on,46,0,60
2,note_on,48,43,0
2,note_on,48,0,60
2,note_on,50,46,0
2,note_on,50,0,60
2,note_on,51,48,0
2,note_on,51,0,120
2,note_on,29,51,120
2,note_on,38,51,0
2,note_on,41,61,0
2,note_on,41,0,90
2,note_on,38,0,0
2,note_on,29,0,0
2,note_on,29,54,150
2,note_on,38,54,0
2,note_on,41,63,0
2,note_on,41,0,90
2,note_on,38,0,0
2,note_on,29,0,0
2,note_on,31,58,150
2,note_on,38,58,0
2,note_on,43,70,0
2,note_on,43,0,120
2,note_on,38,0,0
2,note_on,31,0,0
2,note_on,50,43,120
2,note_on,50,0,60
2,note_on,48,45,0
2,note_on,48,0,60
2,note_on,47,47,0
2,note_on,47,0,60
2,note_on,44,50,0
2,note_on,44,0,60
2,note_on,43,53,0
2,note_on,43,0,120
2,note_on,40,55,120
2,note_on,49,55,0
2,note_on,52,65,0
2,note_on,52,0,90
2,note_on,49,0,0
2,note_on,40,0,0
2,note_on,40,57,150
2,note_on,48,57,0
2,note_on,52,69,0
2,note_on,52,0,90
2,note_on,48,0,0
2,note_on,40,0,0
2,note_on,41,63,150
2,note_on,48,63,0
2,note_on,53,75,0
2,note_on,53,0,120
2,note_on,48,0,0
2,note_on,41,0,0
2,note_on,47,44,120
2,note_on,47,0,60
2,note_on,48,46,0
2,note_on,48,0,60
2,note_on,50,48,0
2,note_on,50,0,60
2,note_on,52,52,0
2,note_on,52,0,60
2,note_on,53,54,0
2,note_on,53,0,120
2,note_on,37,64,120
2,note_on,44,64,0
2,note_on,49,77,0
2,note_on,49,0,120
2,note_on,44,0,0
2,note_on,37,0,0
2,note_on,49,47,120
2,note_on,49,0,60
2,note_on,51,49,0
2,note_on,51,0,60
2,note_on,53,51,0
2,note_on,53,0,60
2,note_on,54,53,0
2,note_on,54,0,60
2,note_on,56,60,0
2,note_on,56,0,120
2,note_on,61,49,120
2,note_on,61,0,60
2,note_on,63,51,0
2,note_on,63,0,60
2,note_on,65,53,0
2,note_on,65,0,60
2,note_on,66,54,0
2,note_on,66,0,60
2,note_on,68,63,0
2,note_on,68,0,120
2,note_on,73,51,120
2,note_on,73,0,60
2,note_on,75,53,0
2,note_on,75,0,60
2,note_on,77,54,0
2,note_on,77,0,60
2,note_on,78,57,0
2,note_on,78,0,60
2,note_on,80,64,0
2,note_on,80,0,120
2,note_on,41,68,240
2,note_on,49,68,0
2,note_on,53,81,0
2,note_on,53,0,120
2,note_on,49,0,0
2,note_on,41,0,0
2,note_on,41,61,0
2,note_on,49,61,0
2,note_on,53,72,0
2,note_on,53,0,120
2,note_on,49,0,0
2,note_on,41,0,0
2,note_on,44,67,120
2,note_on,53,67,0
2,note_on,56,81,0
2,note_on,56,0,120
2,note_on,53,0,0
2,note_on,44,0,0
2,note_on,49,62,240
2,note_on,56,62,0
2,note_on,61,73,0
2,note_on,61,0,120
2,note_on,56,0,0
2,note_on,49,0,0
2,note_on,49,62,0
2,note_on,56,62,0
2,note_on,61,73,0
2,note_on,61,0,120
2,note_on,56,0,0
2,note_on,49,0,0
2,note_on,53,54,480
2,note_on,56,54,0
2,note_on,61,54,0
2,note_on,65,66,0
2,note_on,65,0,120
2,note_on,53,0,0
2,note_on,56,0,0
2,note_on,61,0,0
2,note_on,65,75,0
2,note_on,61,63,0
2,note_on,56,63,0
2,note_on,53,63,0
2,note_on,53,0,120
2,note_on,65,0,0
2,note_on,61,0,0
2,note_on,56,0,0
2,note_on,52,54,120
2,note_on,56,54,0
2,note_on,60,54,0
2,note_on,64,66,0
2,note_on,64,0,120
2,note_on,52,0,0
2,note_on,56,0,0
2,note_on,60,0,0
2,note_on,65,75,120
2,note_on,61,63,0
2,note_on,56,63,0
2,note_on,53,63,0
2,note_on,53,0,120
2,note_on,65,0,0
2,note_on,61,0,0
2,note_on,56,0,0
2,note_on,47,60,360
2,note_on,53,60,0
2,note_on,56,60,0
2,note_on,59,67,0
2,note_on,59,0,120
2,note_on,47,0,0
2,note_on,53,0,0
2,note_on,56,0,0
2,note_on,49,65,240
2,note_on,61,78,0
2,note_on,61,0,120
2,note_on,49,0,0
2,note_on,50,58,0
2,note_on,62,70,0
2,note_on,62,0,120
2,note_on,50,0,0
2,note_on,51,64,120
2,note_on,54,64,0
2,note_on,60,64,0
2,note_on,63,77,0
2,note_on,63,0,120
2,note_on,51,0,0
2,note_on,54,0,0
2,note_on,60,0,0
2,note_on,47,59,240
2,note_on,59,71,0
2,note_on,59,0,120
2,note_on,47,0,0
2,note_on,48,59,0
2,note_on,60,71,0
2,note_on,60,0,120
2,note_on,48,0,0
2,note_on,55,57,120
2,note_on,59,57,0
2,note_on,62,57,0
2,note_on,67,64,0
2,note_on,67,0,120
2,note_on,55,0,0
2,note_on,59,0,0
2,note_on,62,0,0
2,note_on,38,77,120
2,note_on,50,75,120
2,note_on,50,0,120
2,note_on,38,0,0
2,note_on,36,73,0
2,note_on,48,72,120
2,note_on,48,0,120
2,note_on,36,0,0
2,note_on,35,71,0
2,note_on,47,70,120
2,note_on,47,0,120
2,note_on,35,0,0
2,note_on,32,68,0
2,note_on,44,66,120
2,note_on,44,0,120
2,note_on,32,0,0
2,note_on,31,79,0
2,note_on,43,63,120
2,note_on,43,0,120
2,note_on,31,0,0
2,note_on,48,54,0
2,note_on,54,64,0
2,note_on,51,54,0
2,note_on,45,54,0
2,note_on,43,54,0
2,note_on,43,0,120
2,note_on,51,0,0
2,note_on,48,0,0
2,note_on,54,0,0
2,note_on,45,0,0
2,note_on,48,42,240
2,note_on,54,51,0
2,note_on,51,42,0
2,note_on,45,42,0
2,note_on,43,42,0
2,note_on,43,0,120
2,note_on,51,0,0
2,note_on,48,0,0
2,note_on,54,0,0
2,note_on,45,0,0
2,note_on,48,48,0
2,note_on,54,56,0
2,note_on,51,48,0
2,note_on,45,48,0
2,note_on,43,48,0
2,note_on,43,0,120
2,note_on,51,0,0
2,note_on,48,0,0
2,note_on,54,0,0
2,note_on,45,0,0
2,note_on,48,38,480
2,note_on,43,38,0
2,note_on,45,38,0
2,note_on,54,45,0
2,note_on,51,38,0
2,note_on,51,0,120
2,note_on,45,0,0
2,note_on,48,0,0
2,note_on,43,0,0
2,note_on,54,0,0
2,note_on,48,45,0
2,note_on,54,52,0
2,note_on,51,45,0
2,note_on,45,45,0
2,note_on,43,45,0
2,note_on,43,0,120
2,note_on,51,0,0
2,note_on,48,0,0
2,note_on,54,0,0
2,note_on,45,0,0
2,note_on,43,38,360
2,note_on,45,38,0
2,note_on,48,38,0
2,note_on,51,38,0
2,note_on,54,45,0
2,note_on,54,0,60
2,note_on,48,0,0
2,note_on,43,0,0
2,note_on,45,0,0
2,note_on,51,0,0
2,note_on,43,34,60
2,note_on,45,34,0
2,note_on,48,34,0
2,note_on,51,34,0
2,note_on,54,40,0
2,note_on,54,0,60
2,note_on,48,0,0
2,note_on,43,0,0
2,note_on,45,0,0
2,note_on,51,0,0
2,note_on,43,34,60
2,note_on,45,34,0
2,note_on,48,34,0
2,note_on,51,34,0
2,note_on,54,40,0
2,note_on,54,0,60
2,note_on,48,0,0
2,note_on,43,0,0
2,note_on,45,0,0
2,note_on,51,0,0
2,note_on,43,34,60
2,note_on,45,34,0
2,note_on,48,34,0
2,note_on,51,34,0
2,note_on,54,40,0
2,note_on,54,0,60
2,note_on,48,0,0
2,note_on,43,0,0
2,note_on,45,0,0
2,note_on,51,0,0
2,note_on,43,40,60
2,note_on,47,40,0
2,note_on,50,40,0
2,note_on,55,48,0
2,note_on,55,0,120
2,note_on,43,0,0
2,note_on,47,0,0
2,note_on,50,0,0
2,note_on,38,77,120
2,note_on,50,75,120
2,note_on,50,0,120
2,note_on,38,0,0
2,note_on,36,73,0
2,note_on,48,72,120
2,note_on,48,0,120
2,note_on,36,0,0
2,note_on,35,71,0
2,note_on,47,70,120
2,note_on,47,0,120
2,note_on,35,0,0
2,note_on,32,68,0
2,note_on,44,66,120
2,note_on,44,0,120
2,note_on,32,0,0
2,note_on,31,79,0
2,note_on,43,63,120
2,note_on,43,0,120
2,note_on,31,0,0
2,note_on,48,54,0
2,note_on,54,64,0
2,note_on,51,54,0
2,note_on,45,54,0
2,note_on,43,54,0
2,note_on,43,0,120
2,note_on,51,0,0
2,note_on,48,0,0
2,note_on,54,0,0
2,note_on,45,0,0
2,note_on,48,42,240
2,note_on,54,51,0
2,note_on,51,42,0
2,note_on,45,42,0
2,note_on,43,42,0
2,note_on,43,0,120
2,note_on,51,0,0
2,note_on,48,0,0
2,note_on,54,0,0
2,note_on,45,0,0
2,note_on,48,48,0
2,note_on,54,56,0
2,note_on,51,48,0
2,note_on,45,48,0
2,note_on,43,48,0
2,note_on,43,0,120
2,note_on,51,0,0
2,note_on,48,0,0
2,note_on,54,0,0
2,note_on,45,0,0
2,note_on,48,38,480
2,note_on,43,38,0
2,note_on,45,38,0
2,note_on,54,45,0
2,note_on,51,38,0
2,note_on,51,0,120
2,note_on,45,0,0
2,note_on,48,0,0
2,note_on,43,0,0
2,note_on,54,0,0
2,note_on,48,45,0
2,note_on,54,52,0
2,note_on,51,45,0
2,note_on,45,45,0
2,note_on,43,45,0
2,note_on,43,0,120
2,note_on,51,0,0
2,note_on,48,0,0
2,note_on,54,0,0
2,note_on,45,0,0
2,note_on,43,38,360
2,note_on,45,38,0
2,note_on,48,38,0
2,note_on,51,38,0
2,note_on,54,45,0
2,note_on,54,0,60
2,note_on,48,0,0
2,note_on,43,0,0
2,note_on,45,0,0
2,note_on,51,0,0
2,note_on,43,34,60
2,note_on,45,34,0
2,note_on,48,34,0
2,note_on,51,34,0
2,note_on,54,40,0
2,note_on,54,0,60
2,note_on,48,0,0
2,note_on,43,0,0
2,note_on,45,0,0
2,note_on,51,0,0
2,note_on,43,34,60
2,note_on,45,34,0
2,note_on,48,34,0
2,note_on,51,34,0
2,note_on,54,40,0
2,note_on,54,0,60
2,note_on,48,0,0
2,note_on,43,0,0
2,note_on,45,0,0
2,note_on,51,0,0
2,note_on,43,34,60
2,note_on,45,34,0
2,note_on,48,34,0
2,note_on,51,34,0
2,note_on,54,40,0
2,note_on,54,0,60
2,note_on,48,0,0
2,note_on,43,0,0
2,note_on,45,0,0
2,note_on,51,0,0
2,note_on,43,40,60
2,note_on,47,40,0
2,note_on,50,40,0
2,note_on,55,48,0
2,note_on,55,0,120
2,note_on,43,0,0
2,note_on,47,0,0
2,note_on,50,0,0
2,note_on,50,55,120
2,note_on,38,46,0
2,note_on,38,0,240
2,note_on,50,0,0
2,note_on,48,57,0
2,note_on,36,48,0
2,note_on,36,0,240
2,note_on,48,0,0
2,note_on,47,60,0
2,note_on,35,50,0
2,note_on,35,0,240
2,note_on,47,0,0
2,note_on,45,62,0
2,note_on,33,52,0
2,note_on,33,0,240
2,note_on,45,0,0
2,note_on,43,70,0
2,note_on,31,59,0
2,note_on,31,0,240
2,note_on,43,0,0
2,note_on,56,73,0
2,note_on,44,62,0
2,note_on,44,0,240
2,note_on,56,0,0
2,note_on,54,65,0
2,note_on,42,55,0
2,note_on,42,0,240
2,note_on,54,0,0
2,note_on,53,68,0
2,note_on,41,57,0
2,note_on,41,0,240
2,note_on,53,0,0
2,note_on,51,72,0
2,note_on,39,61,0
2,note_on,39,0,240
2,note_on,51,0,0
2,note_on,49,75,0
2,note_on,37,54,0
2,note_on,37,0,240
2,note_on,49,0,0
2,note_on,49,54,0
2,note_on,53,54,0
2,note_on,56,54,0
2,note_on,61,63,0
2,note_on,61,0,120
2,note_on,49,0,0
2,note_on,53,0,0
2,note_on,56,0,0
2,note_on,43,59,120
2,note_on,47,59,0
2,note_on,50,59,0
2,note_on,55,70,0
2,note_on,55,0,120
2,note_on,43,0,0
2,note_on,47,0,0
2,note_on,50,0,0
2,note_on,50,61,120
2,note_on,38,51,0
2,note_on,38,0,240
2,note_on,50,0,0
2,note_on,48,63,0
2,note_on,36,53,0
2,note_on,36,0,240
2,note_on,48,0,0
2,note_on,47,65,0
2,note_on,35,54,0
2,note_on,35,0,240
2,note_on,47,0,0
2,note_on,45,67,0
2,note_on,33,56,0
2,note_on,33,0,240
2,note_on,45,0,0
2,note_on,43,76,0
2,note_on,31,64,0
2,note_on,31,0,240
2,note_on,43,0,0
2,note_on,56,81,0
2,note_on,44,67,0
2,note_on,44,0,240
2,note_on,56,0,0
2,note_on,54,72,0
2,note_on,42,61,0
2,note_on,42,0,240
2,note_on,54,0,0
2,note_on,53,74,0
2,note_on,41,63,0
2,note_on,41,0,240
2,note_on,53,0,0
2,note_on,51,79,0
2,note_on,39,66,0
2,note_on,39,0,240
2,note_on,51,0,0
2,note_on,49,82,0
2,note_on,37,59,0
2,note_on,37,0,240
2,note_on,49,0,0
2,note_on,49,36,0
2,note_on,53,36,0
2,note_on,56,36,0
2,note_on,61,50,0
2,note_on,61,0,120
2,note_on,49,0,0
2,note_on,53,0,0
2,note_on,56,0,0
2,note_on,43,39,120
2,note_on,47,39,0
2,note_on,50,39,0
2,note_on,55,55,0
2,note_on,55,0,720
2,note_on,43,0,0
2,note_on,47,0,0
2,note_on,50,0,0
2,note_on,41,46,0
2,note_on,44,46,0
2,note_on,48,46,0
2,note_on,53,55,0
2,note_on,53,0,720
2,note_on,41,0,0
2,note_on,44,0,0
2,note_on,48,0,0
2,note_on,37,50,0
2,note_on,41,50,0
2,note_on,44,50,0
2,note_on,49,60,0
2,note_on,49,0,720
2,note_on,37,0,0
2,note_on,41,0,0
2,note_on,44,0,0
2,note_on,36,54,0
2,note_on,41,54,0
2,note_on,44,54,0
2,note_on,48,64,0
2,note_on,48,0,720
2,note_on,36,0,0
2,note_on,41,0,0
2,note_on,44,0,0
2,note_on,32,55,0
2,note_on,36,55,0
2,note_on,38,55,0
2,note_on,44,65,0
2,note_on,44,0,360
2,note_on,32,0,0
2,note_on,36,0,0
2,note_on,38,0,0
2,note_on,32,55,0
2,note_on,36,55,0
2,note_on,38,55,0
2,note_on,44,65,0
2,note_on,44,0,360
2,note_on,32,0,0
2,note_on,36,0,0
2,note_on,38,0,0
2,note_on,32,55,0
2,note_on,36,55,0
2,note_on,38,55,0
2,note_on,44,65,0
2,note_on,44,0,360
2,note_on,32,0,0
2,note_on,36,0,0
2,note_on,38,0,0
2,note_on,32,55,0
2,note_on,36,55,0
2,note_on,38,55,0
2,note_on,44,65,0
2,note_on,44,0,360
2,note_on,32,0,0
2,note_on,36,0,0
2,note_on,38,0,0
2,note_on,31,51,0
2,note_on,35,51,0
2,note_on,38,51,0
2,note_on,43,61,0
2,note_on,43,0,120
2,note_on,31,0,0
2,note_on,35,0,0
2,note_on,38,0,0
2,note_on,80,62,120
2,note_on,80,0,54
2,note_on,79,61,0
2,note_on,79,0,53
2,note_on,78,59,0
2,note_on,77,58,53
2,note_on,78,0,1
2,note_on,77,0,53
2,note_on,76,56,0
2,note_on,76,0,53
2,note_on,75,55,0
2,note_on,75,0,54
2,note_on,74,54,0
2,note_on,74,0,53
2,note_on,73,53,0
2,note_on,72,52,53
2,note_on,73,0,1
2,note_on,71,60,52
2,note_on,72,0,1
2,note_on,71,0,119
2,note_on,68,52,120
2,note_on,68,0,54
2,note_on,67,51,0
2,note_on,67,0,53
2,note_on,66,50,0
2,note_on,66,0,53
2,note_on,65,49,0
2,note_on,64,47,53
2,note_on,65,0,1
2,note_on,64,0,52
2,note_on,63,46,1
2,note_on,63,0,54
2,note_on,62,45,0
2,note_on,62,0,53
2,note_on,61,45,0
2,note_on,61,0,53
2,note_on,60,44,0
2,note_on,59,50,53
2,note_on,60,0,1
2,note_on,59,0,119
2,note_on,56,44,120
2,note_on,56,0,54
2,note_on,55,43,0
2,note_on,55,0,53
2,note_on,54,42,0
2,note_on,54,0,53
2,note_on,53,41,0
2,note_on,52,40,53
2,note_on,53,0,1
2,note_on,52,0,52
2,note_on,51,39,1
2,note_on,51,0,54
2,note_on,50,38,0
2,note_on,50,0,53
2,note_on,49,37,0
2,note_on,49,0,53
2,note_on,48,36,0
2,note_on,47,42,53
2,note_on,48,0,1
2,note_on,47,0,119
2,note_on,44,44,120
2,note_on,44,0,53
2,note_on,43,43,0
2,note_on,43,0,53
2,note_on,42,42,1
2,note_on,42,0,53
2,note_on,41,41,0
2,note_on,41,0,53
2,note_on,40,40,0
2,note_on,40,0,53
2,note_on,39,39,1
2,note_on,39,0,53
2,note_on,38,38,0
2,note_on,38,0,53
2,note_on,37,37,1
2,note_on,37,0,53
2,note_on,36,36,0
2,note_on,36,0,53
2,note_on,35,35,0
2,note_on,35,0,54
2,note_on,36,36,0
2,note_on,36,0,53
2,note_on,37,36,0
2,note_on,37,0,53
2,note_on,38,38,0
2,note_on,38,0,53
2,note_on,39,39,0
2,note_on,39,0,53
2,note_on,40,40,1
2,note_on,40,0,53
2,note_on,41,41,0
2,note_on,41,0,53
2,note_on,42,43,1
2,note_on,42,0,53
2,note_on,43,44,0
2,note_on,43,0,53
2,note_on,44,45,0
2,note_on,44,0,53
2,note_on,43,44,1
2,note_on,43,0,53
2,note_on,42,43,0
2,note_on,42,0,53
2,note_on,41,41,1
2,note_on,41,0,53
2,note_on,40,40,0
2,note_on,40,0,53
2,note_on,39,39,0
2,note_on,39,0,53
2,note_on,38,38,1
2,note_on,38,0,53
2,note_on,37,37,0
2,note_on,37,0,53
2,note_on,36,36,1
2,note_on,35,50,52
2,note_on,36,0,1
2,note_on,35,0,239
2,note_on,43,50,480
2,note_on,43,0,240
2,note_on,36,65,1920
2,note_on,48,66,120
2,note_on,48,0,120
2,note_on,36,0,0
2,note_on,43,68,0
2,note_on,55,71,120
2,note_on,55,0,120
2,note_on,43,0,0
2,note_on,41,72,0
2,note_on,53,73,120
2,note_on,53,0,120
2,note_on,41,0,0
2,note_on,39,76,0
2,note_on,51,78,120
2,note_on,51,0,120
2,note_on,39,0,0
2,note_on,38,81,0
2,note_on,50,82,120
2,note_on,50,0,120
2,note_on,38,0,0
2,note_on,36,102,0
2,note_on,48,76,120
2,note_on,48,0,120
2,note_on,36,0,0
2,note_on,60,91,0
2,note_on,55,77,0
2,note_on,51,77,0
2,note_on,48,77,0
2,note_on,48,0,120
2,note_on,60,0,0
2,note_on,55,0,0
2,note_on,51,0,0
2,note_on,60,72,240
2,note_on,55,60,0
2,note_on,51,60,0
2,note_on,48,60,0
2,note_on,48,0,120
2,note_on,60,0,0
2,note_on,55,0,0
2,note_on,51,0,0
2,note_on,60,80,0
2,note_on,55,67,0
2,note_on,51,67,0
2,note_on,48,67,0
2,note_on,48,0,120
2,note_on,60,0,0
2,note_on,55,0,0
2,note_on,51,0,0
2,note_on,48,54,480
2,note_on,51,54,0
2,note_on,60,64,0
2,note_on,55,54,0
2,note_on,55,0,120
2,note_on,48,0,0
2,note_on,51,0,0
2,note_on,60,0,0
2,note_on,60,73,0
2,note_on,55,63,0
2,note_on,51,63,0
2,note_on,48,63,0
2,note_on,48,0,120
2,note_on,60,0,0
2,note_on,55,0,0
2,note_on,51,0,0
2,note_on,48,53,480
2,note_on,51,53,0
2,note_on,55,53,0
2,note_on,60,63,0
2,note_on,60,0,120
2,note_on,48,0,0
2,note_on,51,0,0
2,note_on,55,0,0
2,note_on,60,72,0
2,note_on,55,60,0
2,note_on,51,60,0
2,note_on,48,60,0
2,note_on,48,0,120
2,note_on,60,0,0
2,note_on,55,0,0
2,note_on,51,0,0
2,note_on,48,53,120
2,note_on,51,53,0
2,note_on,55,53,0
2,note_on,59,63,0
2,note_on,59,0,120
2,note_on,48,0,0
2,note_on,51,0,0
2,note_on,55,0,0
2,note_on,60,72,120
2,note_on,55,60,0
2,note_on,51,60,0
2,note_on,48,60,0
2,note_on,48,0,120
2,note_on,60,0,0
2,note_on,55,0,0
2,note_on,51,0,0
2,note_on,35,55,360
2,note_on,37,65,0
2,note_on,49,66,120
2,note_on,49,0,120
2,note_on,37,0,0
2,note_on,35,0,0
2,note_on,44,68,0
2,note_on,56,71,120
2,note_on,56,0,120
2,note_on,44,0,0
2,note_on,42,72,0
2,note_on,54,73,120
2,note_on,54,0,120
2,note_on,42,0,0
2,note_on,41,76,0
2,note_on,53,78,120
2,note_on,53,0,120
2,note_on,41,0,0
2,note_on,39,81,0
2,note_on,51,82,120
2,note_on,51,0,120
2,note_on,39,0,0
2,note_on,37,102,0
2,note_on,49,76,120
2,note_on,49,0,90
2,note_on,37,0,0
2,note_on,47,77,30
2,note_on,53,77,0
2,note_on,56,77,0
2,note_on,61,91,0
2,note_on,61,0,120
2,note_on,47,0,0
2,note_on,53,0,0
2,note_on,56,0,0
2,note_on,56,72,240
2,note_on,53,60,0
2,note_on,47,60,0
2,note_on,47,0,120
2,note_on,53,0,0
2,note_on,56,0,0
2,note_on,56,80,0
2,note_on,53,67,0
2,note_on,47,67,0
2,note_on,47,0,120
2,note_on,53,0,0
2,note_on,56,0,0
2,note_on,53,54,480
2,note_on,61,64,0
2,note_on,56,54,0
2,note_on,56,0,120
2,note_on,61,0,0
2,note_on,53,0,0
2,note_on,61,73,0
2,note_on,56,63,0
2,note_on,53,63,0
2,note_on,53,0,120
2,note_on,56,0,0
2,note_on,61,0,0
2,note_on,47,53,480
2,note_on,53,53,0
2,note_on,56,63,0
2,note_on,56,0,120
2,note_on,53,0,0
2,note_on,47,0,0
2,note_on,56,72,0
2,note_on,53,60,0
2,note_on,47,60,0
2,note_on,47,0,120
2,note_on,53,0,0
2,note_on,56,0,0
2,note_on,47,53,120
2,note_on,52,53,0
2,note_on,56,63,0
2,note_on,56,0,120
2,note_on,52,0,0
2,note_on,47,0,0
2,note_on,56,72,120
2,note_on,53,60,0
2,note_on,47,60,0
2,note_on,47,0,120
2,note_on,53,0,0
2,note_on,56,0,0
2,note_on,34,45,600
2,note_on,41,45,0
2,note_on,46,53,0
2,note_on,46,0,120
2,note_on,41,0,0
2,note_on,34,0,0
2,note_on,46,34,120
2,note_on,46,0,60
2,note_on,48,36,0
2,note_on,48,0,60
2,note_on,50,37,0
2,note_on,50,0,60
2,note_on,51,39,0
2,note_on,51,0,60
2,note_on,53,41,0
2,note_on,53,0,120
2,note_on,34,40,120
2,note_on,42,40,0
2,note_on,46,47,0
2,note_on,46,0,120
2,note_on,42,0,0
2,note_on,34,0,0
2,note_on,34,42,120
2,note_on,39,42,0
2,note_on,46,50,0
2,note_on,46,0,120
2,note_on,39,0,0
2,note_on,34,0,0
2,note_on,34,45,120
2,note_on,41,45,0
2,note_on,46,54,0
2,note_on,46,0,120
2,note_on,41,0,0
2,note_on,34,0,0
2,note_on,53,36,120
2,note_on,53,0,60
2,note_on,51,36,0
2,note_on,51,0,60
2,note_on,50,38,0
2,note_on,50,0,60
2,note_on,48,41,0
2,note_on,48,0,60
2,note_on,46,43,0
2,note_on,46,0,120
2,note_on,33,45,120
2,note_on,42,45,0
2,note_on,45,54,0
2,note_on,45,0,120
2,note_on,42,0,0
2,note_on,33,0,0
2,note_on,33,47,120
2,note_on,42,47,0
2,note_on,45,56,0
2,note_on,45,0,120
2,note_on,42,0,0
2,note_on,33,0,0
2,note_on,32,52,120
2,note_on,40,52,0
2,note_on,44,63,0
2,note_on,44,0,120
2,note_on,40,0,0
2,note_on,32,0,0
2,note_on,52,40,120
2,note_on,52,0,60
2,note_on,54,41,0
2,note_on,54,0,60
2,note_on,56,43,0
2,note_on,56,0,60
2,note_on,57,46,0
2,note_on,57,0,60
2,note_on,59,48,0
2,note_on,59,0,120
2,note_on,33,51,120
2,note_on,42,51,0
2,note_on,45,61,0
2,note_on,45,0,120
2,note_on,42,0,0
2,note_on,33,0,0
2,note_on,33,54,120
2,note_on,42,54,0
2,note_on,45,63,0
2,note_on,45,0,120
2,note_on,42,0,0
2,note_on,33,0,0
2,note_on,32,58,120
2,note_on,40,58,0
2,note_on,44,70,0
2,note_on,44,0,120
2,note_on,40,0,0
2,note_on,32,0,0
2,note_on,59,43,120
2,note_on,59,0,60
2,note_on,57,45,0
2,note_on,57,0,60
2,note_on,56,47,0
2,note_on,56,0,60
2,note_on,54,50,0
2,note_on,54,0,60
2,note_on,52,53,0
2,note_on,52,0,120
2,note_on,31,55,120
2,note_on,40,55,0
2,note_on,43,65,0
2,note_on,43,0,120
2,note_on,40,0,0
2,note_on,31,0,0
2,note_on,31,57,120
2,note_on,40,57,0
2,note_on,43,69,0
2,note_on,43,0,120
2,note_on,40,0,0
2,note_on,31,0,0
2,note_on,30,63,120
2,note_on,38,63,0
2,note_on,42,75,0
2,note_on,42,0,120
2,note_on,38,0,0
2,note_on,30,0,0
2,note_on,50,44,120
2,note_on,50,0,60
2,note_on,52,46,0
2,note_on,52,0,60
2,note_on,54,48,0
2,note_on,54,0,60
2,note_on,55,52,0
2,note_on,55,0,60
2,note_on,57,54,0
2,note_on,57,0,120
2,note_on,29,64,120
2,note_on,38,64,0
2,note_on,41,77,0
2,note_on,41,0,120
2,note_on,38,0,0
2,note_on,29,0,0
2,note_on,50,47,120
2,note_on,50,0,60
2,note_on,53,49,0
2,note_on,53,0,60
2,note_on,56,51,0
2,note_on,56,0,60
2,note_on,58,53,0
2,note_on,58,0,60
2,note_on,59,60,0
2,note_on,59,0,120
2,note_on,62,49,120
2,note_on,62,0,60
2,note_on,65,51,0
2,note_on,65,0,60
2,note_on,68,53,0
2,note_on,68,0,60
2,note_on,70,54,0
2,note_on,70,0,60
2,note_on,71,63,0
2,note_on,71,0,120
2,note_on,74,51,120
2,note_on,74,0,60
2,note_on,77,53,0
2,note_on,77,0,60
2,note_on,80,54,0
2,note_on,80,0,60
2,note_on,82,57,0
2,note_on,82,0,60
2,note_on,83,64,0
2,note_on,83,0,120
2,note_on,30,68,240
2,note_on,39,68,0
2,note_on,42,81,0
2,note_on,42,0,120
2,note_on,39,0,0
2,note_on,30,0,0
2,note_on,30,61,0
2,note_on,39,61,0
2,note_on,42,72,0
2,note_on,42,0,120
2,note_on,39,0,0
2,note_on,30,0,0
2,note_on,35,67,120
2,note_on,42,67,0
2,note_on,47,81,0
2,note_on,47,0,120
2,note_on,42,0,0
2,note_on,35,0,0
2,note_on,39,62,240
2,note_on,47,62,0
2,note_on,51,73,0
2,note_on,51,0,120
2,note_on,47,0,0
2,note_on,39,0,0
2,note_on,39,62,0
2,note_on,47,62,0
2,note_on,51,73,0
2,note_on,51,0,120
2,note_on,47,0,0
2,note_on,39,0,0
2,note_on,42,54,480
2,note_on,47,54,0
2,note_on,54,66,0
2,note_on,54,0,120
2,note_on,47,0,0
2,note_on,42,0,0
2,note_on,54,75,0
2,note_on,47,63,0
2,note_on,42,63,0
2,note_on,42,0,120
2,note_on,47,0,0
2,note_on,54,0,0
2,note_on,41,54,120
2,note_on,47,54,0
2,note_on,53,66,0
2,note_on,53,0,120
2,note_on,47,0,0
2,note_on,41,0,0
2,note_on,54,75,120
2,note_on,47,63,0
2,note_on,42,63,0
2,note_on,42,0,120
2,note_on,47,0,0
2,note_on,54,0,0
2,note_on,44,60,360
2,note_on,51,60,0
2,note_on,56,67,0
2,note_on,56,0,120
2,note_on,51,0,0
2,note_on,44,0,0
2,note_on,50,65,240
2,note_on,62,78,0
2,note_on,62,0,120
2,note_on,50,0,0
2,note_on,51,58,0
2,note_on,63,70,0
2,note_on,63,0,120
2,note_on,51,0,0
2,note_on,45,64,120
2,note_on,51,64,0
2,note_on,54,64,0
2,note_on,57,77,0
2,note_on,57,0,120
2,note_on,45,0,0
2,note_on,51,0,0
2,note_on,54,0,0
2,note_on,50,59,240
2,note_on,62,71,0
2,note_on,62,0,120
2,note_on,50,0,0
2,note_on,51,59,0
2,note_on,63,71,0
2,note_on,63,0,120
2,note_on,51,0,0
2,note_on,46,57,120
2,note_on,53,57,0
2,note_on,58,64,0
2,note_on,58,0,120
2,note_on,53,0,0
2,note_on,46,0,0
2,note_on,41,77,120
2,note_on,53,75,120
2,note_on,53,0,120
2,note_on,41,0,0
2,note_on,39,73,0
2,note_on,51,72,120
2,note_on,51,0,120
2,note_on,39,0,0
2,note_on,38,71,0
2,note_on,50,70,120
2,note_on,50,0,120
2,note_on,38,0,0
2,note_on,35,68,0
2,note_on,47,66,120
2,note_on,47,0,120
2,note_on,35,0,0
2,note_on,34,79,0
2,note_on,46,63,120
2,note_on,46,0,120
2,note_on,34,0,0
2,note_on,51,54,0
2,note_on,57,64,0
2,note_on,54,54,0
2,note_on,48,54,0
2,note_on,46,54,0
2,note_on,46,0,120
2,note_on,54,0,0
2,note_on,51,0,0
2,note_on,57,0,0
2,note_on,48,0,0
2,note_on,51,42,240
2,note_on,57,51,0
2,note_on,54,42,0
2,note_on,48,42,0
2,note_on,46,42,0
2,note_on,46,0,120
2,note_on,54,0,0
2,note_on,51,0,0
2,note_on,57,0,0
2,note_on,48,0,0
2,note_on,51,48,0
2,note_on,57,56,0
2,note_on,54,48,0
2,note_on,48,48,0
2,note_on,46,48,0
2,note_on,46,0,120
2,note_on,54,0,0
2,note_on,51,0,0
2,note_on,57,0,0
2,note_on,48,0,0
2,note_on,51,38,480
2,note_on,46,38,0
2,note_on,48,38,0
2,note_on,57,45,0
2,note_on,54,38,0
2,note_on,54,0,120
2,note_on,48,0,0
2,note_on,51,0,0
2,note_on,46,0,0
2,note_on,57,0,0
2,note_on,51,45,0
2,note_on,57,52,0
2,note_on,54,45,0
2,note_on,48,45,0
2,note_on,46,45,0
2,note_on,46,0,120
2,note_on,54,0,0
2,note_on,51,0,0
2,note_on,57,0,0
2,note_on,48,0,0
2,note_on,46,38,360
2,note_on,48,38,0
2,note_on,51,38,0
2,note_on,54,38,0
2,note_on,57,45,0
2,note_on,57,0,60
2,note_on,51,0,0
2,note_on,46,0,0
2,note_on,48,0,0
2,note_on,54,0,0
2,note_on,46,34,60
2,note_on,48,34,0
2,note_on,51,34,0
2,note_on,54,34,0
2,note_on,57,40,0
2,note_on,57,0,60
2,note_on,51,0,0
2,note_on,46,0,0
2,note_on,48,0,0
2,note_on,54,0,0
2,note_on,46,34,60
2,note_on,48,34,0
2,note_on,51,34,0
2,note_on,54,34,0
2,note_on,57,40,0
2,note_on,57,0,60
2,note_on,51,0,0
2,note_on,46,0,0
2,note_on,48,0,0
2,note_on,54,0,0
2,note_on,46,34,60
2,note_on,48,34,0
2,note_on,51,34,0
2,note_on,54,34,0
2,note_on,57,40,0
2,note_on,57,0,60
2,note_on,51,0,0
2,note_on,46,0,0
2,note_on,48,0,0
2,note_on,54,0,0
2,note_on,46,40,60
2,note_on,50,40,0
2,note_on,53,40,0
2,note_on,58,48,0
2,note_on,58,0,120
2,note_on,46,0,0
2,note_on,50,0,0
2,note_on,53,0,0
2,note_on,41,61,120
2,note_on,53,77,0
2,note_on,53,0,240
2,note_on,41,0,0
2,note_on,39,58,0
2,note_on,51,73,0
2,note_on,51,0,240
2,note_on,39,0,0
2,note_on,38,56,0
2,note_on,50,71,0
2,note_on,50,0,240
2,note_on,38,0,0
2,note_on,35,54,0
2,note_on,47,68,0
2,note_on,47,0,240
2,note_on,35,0,0
2,note_on,34,63,0
2,note_on,46,79,0
2,note_on,46,0,240
2,note_on,34,0,0
2,note_on,51,54,0
2,note_on,57,64,0
2,note_on,54,54,0
2,note_on,48,54,0
2,note_on,46,54,0
2,note_on,46,0,120
2,note_on,54,0,0
2,note_on,51,0,0
2,note_on,57,0,0
2,note_on,48,0,0
2,note_on,51,42,240
2,note_on,57,51,0
2,note_on,54,42,0
2,note_on,48,42,0
2,note_on,46,42,0
2,note_on,46,0,120
2,note_on,54,0,0
2,note_on,51,0,0
2,note_on,57,0,0
2,note_on,48,0,0
2,note_on,51,48,0
2,note_on,57,56,0
2,note_on,54,48,0
2,note_on,48,48,0
2,note_on,46,48,0
2,note_on,46,0,120
2,note_on,54,0,0
2,note_on,51,0,0
2,note_on,57,0,0
2,note_on,48,0,0
2,note_on,51,38,480
2,note_on,46,38,0
2,note_on,48,38,0
2,note_on,57,45,0
2,note_on,54,38,0
2,note_on,54,0,120
2,note_on,48,0,0
2,note_on,51,0,0
2,note_on,46,0,0
2,note_on,57,0,0
2,note_on,51,45,0
2,note_on,57,52,0
2,note_on,54,45,0
2,note_on,48,45,0
2,note_on,46,45,0
2,note_on,46,0,120
2,note_on,54,0,0
2,note_on,51,0,0
2,note_on,57,0,0
2,note_on,48,0,0
2,note_on,46,38,360
2,note_on,48,38,0
2,note_on,51,38,0
2,note_on,54,38,0
2,note_on,57,45,0
2,note_on,57,0,60
2,note_on,51,0,0
2,note_on,46,0,0
2,note_on,48,0,0
2,note_on,54,0,0
2,note_on,46,30,60
2,note_on,48,30,0
2,note_on,51,30,0
2,note_on,54,30,0
2,note_on,57,36,0
2,note_on,57,0,60
2,note_on,51,0,0
2,note_on,46,0,0
2,note_on,48,0,0
2,note_on,54,0,0
2,note_on,46,30,60
2,note_on,48,30,0
2,note_on,51,30,0
2,note_on,54,30,0
2,note_on,57,36,0
2,note_on,57,0,60
2,note_on,51,0,0
2,note_on,46,0,0
2,note_on,48,0,0
2,note_on,54,0,0
2,note_on,46,30,60
2,note_on,48,30,0
2,note_on,51,30,0
2,note_on,54,30,0
2,note_on,57,36,0
2,note_on,57,0,60
2,note_on,51,0,0
2,note_on,46,0,0
2,note_on,48,0,0
2,note_on,54,0,0
2,note_on,46,40,60
2,note_on,50,40,0
2,note_on,53,40,0
2,note_on,58,48,0
2,note_on,58,0,120
2,note_on,46,0,0
2,note_on,50,0,0
2,note_on,53,0,0
2,note_on,65,54,120
2,note_on,65,0,240
2,note_on,63,57,0
2,note_on,63,0,240
2,note_on,62,60,0
2,note_on,62,0,240
2,note_on,60,62,0
2,note_on,60,0,240
2,note_on,58,54,0
2,note_on,58,0,240
2,note_on,44,47,0
2,note_on,52,56,0
2,note_on,56,56,0
2,note_on,56,0,120
2,note_on,52,0,0
2,note_on,44,0,0
2,note_on,42,49,120
2,note_on,54,58,0
2,note_on,54,0,120
2,note_on,42,0,0
2,note_on,40,51,120
2,note_on,52,61,0
2,note_on,52,0,120
2,note_on,40,0,0
2,note_on,37,53,120
2,note_on,49,63,0
2,note_on,49,0,120
2,note_on,37,0,0
2,note_on,35,55,120
2,note_on,47,65,0
2,note_on,47,0,120
2,note_on,35,0,0
2,note_on,32,57,120
2,note_on,44,68,0
2,note_on,44,0,120
2,note_on,32,0,0
2,note_on,34,57,120
2,note_on,41,57,0
2,note_on,46,68,0
2,note_on,46,0,120
2,note_on,41,0,0
2,note_on,34,0,0
2,note_on,65,57,120
2,note_on,65,0,240
2,note_on,63,60,0
2,note_on,63,0,240
2,note_on,62,63,0
2,note_on,62,0,240
2,note_on,60,64,0
2,note_on,60,0,240
2,note_on,58,56,0
2,note_on,58,0,240
2,note_on,44,49,0
2,note_on,52,59,0
2,note_on,56,59,0
2,note_on,56,0,120
2,note_on,52,0,0
2,note_on,44,0,0
2,note_on,42,51,120
2,note_on,54,61,0
2,note_on,54,0,120
2,note_on,42,0,0
2,note_on,40,53,120
2,note_on,52,63,0
2,note_on,52,0,120
2,note_on,40,0,0
2,note_on,37,54,120
2,note_on,49,65,0
2,note_on,49,0,120
2,note_on,37,0,0
2,note_on,35,58,120
2,note_on,47,68,0
2,note_on,47,0,120
2,note_on,35,0,0
2,note_on,32,60,120
2,note_on,44,71,0
2,note_on,44,0,120
2,note_on,32,0,0
2,note_on,34,60,120
2,note_on,41,60,0
2,note_on,46,71,0
2,note_on,46,0,120
2,note_on,41,0,0
2,note_on,34,0,0
2,note_on,58,49,240
2,note_on,68,58,0
2,note_on,65,49,0
2,note_on,65,0,120
2,note_on,68,0,0
2,note_on,58,0,0
2,note_on,58,43,0
2,note_on,68,51,0
2,note_on,65,43,0
2,note_on,65,0,240
2,note_on,68,0,0
2,note_on,58,0,0
2,note_on,58,49,0
2,note_on,65,49,0
2,note_on,68,58,0
2,note_on,68,0,120
2,note_on,65,0,0
2,note_on,58,0,0
2,note_on,57,49,240
2,note_on,66,58,0
2,note_on,63,49,0
2,note_on,63,0,120
2,note_on,66,0,0
2,note_on,57,0,0
2,note_on,57,44,0
2,note_on,66,52,0
2,note_on,63,44,0
2,note_on,63,0,240
2,note_on,66,0,0
2,note_on,57,0,0
2,note_on,57,48,0
2,note_on,63,48,0
2,note_on,66,57,0
2,note_on,66,0,120
2,note_on,63,0,0
2,note_on,57,0,0
2,note_on,55,50,240
2,note_on,64,60,0
2,note_on,58,50,0
2,note_on,58,0,120
2,note_on,64,0,0
2,note_on,55,0,0
2,note_on,55,46,0
2,note_on,64,55,0
2,note_on,58,46,0
2,note_on,58,0,240
2,note_on,64,0,0
2,note_on,55,0,0
2,note_on,55,51,0
2,note_on,58,51,0
2,note_on,64,61,0
2,note_on,64,0,120
2,note_on,58,0,0
2,note_on,55,0,0
2,note_on,53,50,240
2,note_on,61,59,0
2,note_on,56,50,0
2,note_on,56,0,120
2,note_on,61,0,0
2,note_on,53,0,0
2,note_on,53,45,0
2,note_on,61,54,0
2,note_on,56,45,0
2,note_on,56,0,240
2,note_on,61,0,0
2,note_on,53,0,0
2,note_on,53,50,0
2,note_on,56,50,0
2,note_on,61,59,0
2,note_on,61,0,120
2,note_on,56,0,0
2,note_on,53,0,0
2,note_on,47,52,240
2,note_on,59,62,0
2,note_on,53,52,0
2,note_on,53,0,120
2,note_on,59,0,0
2,note_on,47,0,0
2,note_on,47,45,0
2,note_on,59,54,0
2,note_on,53,45,0
2,note_on,53,0,240
2,note_on,59,0,0
2,note_on,47,0,0
2,note_on,47,52,0
2,note_on,53,52,0
2,note_on,59,62,0
2,note_on,59,0,120
2,note_on,53,0,0
2,note_on,47,0,0
2,note_on,46,53,240
2,note_on,58,63,0
2,note_on,53,53,0
2,note_on,53,0,120
2,note_on,58,0,0
2,note_on,46,0,0
2,note_on,46,48,0
2,note_on,58,57,0
2,note_on,53,48,0
2,note_on,53,0,240
2,note_on,58,0,0
2,note_on,46,0,0
2,note_on,46,54,0
2,note_on,53,54,0
2,note_on,58,64,0
2,note_on,58,0,120
2,note_on,53,0,0
2,note_on,46,0,0
2,note_on,58,48,240
2,note_on,58,0,60
2,note_on,58,44,60
2,note_on,58,0,120
2,note_on,58,43,120
2,note_on,58,0,120
2,note_on,58,35,240
2,note_on,58,0,60
2,note_on,58,39,60
2,note_on,58,0,120
2,note_on,51,25,120
2,note_on,58,25,0
2,note_on,63,30,0
2,note_on,63,0,240
2,note_on,58,0,0
2,note_on,51,0,0
2,note_on,67,25,120
2,note_on,63,20,0
2,note_on,63,0,60
2,note_on,67,0,0
2,note_on,63,20,60
2,note_on,67,25,0
2,note_on,67,0,120
2,note_on,63,0,0
2,note_on,63,26,120
2,note_on,67,31,0
2,note_on,67,0,120
2,note_on,63,0,0
2,note_on,63,26,240
2,note_on,58,21,0
2,note_on,58,0,60
2,note_on,63,0,0
2,note_on,58,22,60
2,note_on,63,27,0
2,note_on,63,0,120
2,note_on,58,0,0
2,note_on,60,31,120
2,note_on,60,0,120
2,note_on,48,21,240
2,note_on,55,26,0
2,note_on,55,0,60
2,note_on,48,0,0
2,note_on,48,21,60
2,note_on,55,26,0
2,note_on,55,0,120
2,note_on,48,0,0
2,note_on,48,25,120
2,note_on,55,30,0
2,note_on,55,0,720
2,note_on,48,0,0
2,note_on,46,25,0
2,note_on,53,25,0
2,note_on,56,29,0
2,note_on,56,0,240
2,note_on,53,0,0
2,note_on,46,0,0
2,note_on,46,21,120
2,note_on,50,21,0
2,note_on,56,26,0
2,note_on,56,0,60
2,note_on,50,0,0
2,note_on,46,0,0
2,note_on,46,21,60
2,note_on,50,21,0
2,note_on,56,26,0
2,note_on,56,0,120
2,note_on,50,0,0
2,note_on,46,0,0
2,note_on,49,25,120
2,note_on,46,25,0
2,note_on,56,30,0
2,note_on,56,0,120
2,note_on,46,0,0
2,note_on,49,0,0
2,note_on,46,27,120
2,note_on,50,27,0
2,note_on,56,32,0
2,note_on,56,0,120
2,note_on,50,0,0
2,note_on,46,0,0
2,note_on,46,28,120
2,note_on,50,28,0
2,note_on,56,35,0
2,note_on,56,0,120
2,note_on,50,0,0
2,note_on,46,0,0
2,note_on,51,31,120
2,note_on,55,36,0
2,note_on,55,0,720
2,note_on,51,0,0
2,note_on,51,27,0
2,note_on,58,32,0
2,note_on,58,0,240
2,note_on,51,0,0
2,note_on,63,25,480
2,note_on,67,30,0
2,note_on,67,0,240
2,note_on,63,0,0
2,note_on,63,25,120
2,note_on,58,20,0
2,note_on,58,0,60
2,note_on,63,0,0
2,note_on,58,20,60
2,note_on,63,25,0
2,note_on,63,0,120
2,note_on,58,0,0
2,note_on,58,26,120
2,note_on,63,31,0
2,note_on,63,0,120
2,note_on,58,0,0
2,note_on,58,26,240
2,note_on,55,21,0
2,note_on,55,0,60
2,note_on,58,0,0
2,note_on,55,22,60
2,note_on,58,27,0
2,note_on,58,0,120
2,note_on,55,0,0
2,note_on,55,22,120
2,note_on,60,31,0
2,note_on,60,0,120
2,note_on,55,0,0
2,note_on,48,21,240
2,note_on,55,26,0
2,note_on,55,0,60
2,note_on,48,0,0
2,note_on,48,21,60
2,note_on,55,26,0
2,note_on,55,0,120
2,note_on,48,0,0
2,note_on,48,25,120
2,note_on,55,30,0
2,note_on,55,0,720
2,note_on,48,0,0
2,note_on,43,25,0
2,note_on,50,25,0
2,note_on,55,29,0
2,note_on,55,0,240
2,note_on,50,0,0
2,note_on,43,0,0
2,note_on,43,21,120
2,note_on,50,21,0
2,note_on,55,26,0
2,note_on,55,0,60
2,note_on,50,0,0
2,note_on,43,0,0
2,note_on,43,21,60
2,note_on,50,21,0
2,note_on,55,26,0
2,note_on,55,0,120
2,note_on,50,0,0
2,note_on,43,0,0
2,note_on,50,25,120
2,note_on,43,25,0
2,note_on,55,30,0
2,note_on,55,0,120
2,note_on,43,0,0
2,note_on,50,0,0
2,note_on,43,27,120
2,note_on,50,27,0
2,note_on,55,32,0
2,note_on,55,0,120
2,note_on,50,0,0
2,note_on,43,0,0
2,note_on,43,28,120
2,note_on,50,28,0
2,note_on,55,35,0
2,note_on,55,0,120
2,note_on,50,0,0
2,note_on,43,0,0
2,note_on,43,31,120
2,note_on,50,31,0
2,note_on,55,36,0
2,note_on,55,0,720
2,note_on,50,0,0
2,note_on,43,0,0
2,note_on,46,27,0
2,note_on,53,27,0
2,note_on,56,32,0
2,note_on,56,0,720
2,note_on,53,0,0
2,note_on,46,0,0
2,note_on,39,34,0
2,note_on,46,34,0
2,note_on,51,40,0
2,note_on,51,0,240
2,note_on,46,0,0
2,note_on,39,0,0
2,note_on,43,27,120
2,note_on,55,33,0
2,note_on,51,27,0
2,note_on,51,0,60
2,note_on,55,0,0
2,note_on,43,0,0
2,note_on,43,27,60
2,note_on,51,27,0
2,note_on,55,33,0
2,note_on,55,0,120
2,note_on,51,0,0
2,note_on,43,0,0
2,note_on,43,35,120
2,note_on,51,35,0
2,note_on,55,41,0
2,note_on,55,0,120
2,note_on,51,0,0
2,note_on,43,0,0
2,note_on,46,29,240
2,note_on,58,35,0
2,note_on,55,29,0
2,note_on,55,0,60
2,note_on,58,0,0
2,note_on,46,0,0
2,note_on,46,30,60
2,note_on,55,30,0
2,note_on,58,36,0
2,note_on,58,0,120
2,note_on,55,0,0
2,note_on,46,0,0
2,note_on,48,29,120
2,note_on,55,29,0
2,note_on,60,41,0
2,note_on,60,0,120
2,note_on,55,0,0
2,note_on,48,0,0
2,note_on,60,29,240
2,note_on,55,29,0
2,note_on,63,35,0
2,note_on,63,0,60
2,note_on,55,0,0
2,note_on,60,0,0
2,note_on,60,29,60
2,note_on,55,29,0
2,note_on,63,35,0
2,note_on,63,0,120
2,note_on,55,0,0
2,note_on,60,0,0
2,note_on,60,34,120
2,note_on,55,34,0
2,note_on,63,40,0
2,note_on,63,0,720
2,note_on,55,0,0
2,note_on,60,0,0
2,note_on,46,33,0
2,note_on,53,33,0
2,note_on,58,40,0
2,note_on,58,0,240
2,note_on,53,0,0
2,note_on,46,0,0
2,note_on,58,29,120
2,note_on,62,29,0
2,note_on,65,35,0
2,note_on,65,0,60
2,note_on,62,0,0
2,note_on,58,0,0
2,note_on,58,29,60
2,note_on,62,29,0
2,note_on,65,35,0
2,note_on,65,0,120
2,note_on,62,0,0
2,note_on,58,0,0
2,note_on,61,34,120
2,note_on,58,34,0
2,note_on,64,40,0
2,note_on,64,0,120
2,note_on,58,0,0
2,note_on,61,0,0
2,note_on,58,36,120
2,note_on,62,36,0
2,note_on,65,44,0
2,note_on,65,0,120
2,note_on,62,0,0
2,note_on,58,0,0
2,note_on,58,39,120
2,note_on,62,39,0
2,note_on,66,46,0
2,note_on,66,0,120
2,note_on,62,0,0
2,note_on,58,0,0
2,note_on,58,41,120
2,note_on,51,41,0
2,note_on,67,49,0
2,note_on,67,0,720
2,note_on,51,0,0
2,note_on,58,0,0
2,note_on,58,36,0
2,note_on,51,36,0
2,note_on,63,43,0
2,note_on,63,0,240
2,note_on,51,0,0
2,note_on,58,0,0
2,note_on,39,45,480
2,note_on,46,45,0
2,note_on,51,54,0
2,note_on,51,0,240
2,note_on,46,0,0
2,note_on,39,0,0
2,note_on,43,36,120
2,note_on,55,45,0
2,note_on,51,36,0
2,note_on,51,0,60
2,note_on,55,0,0
2,note_on,43,0,0
2,note_on,43,36,60
2,note_on,51,36,0
2,note_on,55,45,0
2,note_on,55,0,120
2,note_on,51,0,0
2,note_on,43,0,0
2,note_on,43,47,120
2,note_on,51,47,0
2,note_on,55,56,0
2,note_on,55,0,120
2,note_on,51,0,0
2,note_on,43,0,0
2,note_on,46,41,240
2,note_on,58,48,0
2,note_on,55,41,0
2,note_on,55,0,60
2,note_on,58,0,0
2,note_on,46,0,0
2,note_on,46,42,60
2,note_on,55,42,0
2,note_on,58,51,0
2,note_on,58,0,120
2,note_on,55,0,0
2,note_on,46,0,0
2,note_on,48,42,120
2,note_on,55,42,0
2,note_on,60,59,0
2,note_on,60,0,120
2,note_on,55,0,0
2,note_on,48,0,0
2,note_on,60,42,240
2,note_on,55,42,0
2,note_on,63,50,0
2,note_on,63,0,60
2,note_on,55,0,0
2,note_on,60,0,0
2,note_on,60,43,60
2,note_on,55,43,0
2,note_on,63,51,0
2,note_on,63,0,120
2,note_on,55,0,0
2,note_on,60,0,0
2,note_on,60,50,120
2,note_on,55,50,0
2,note_on,63,60,0
2,note_on,63,0,720
2,note_on,55,0,0
2,note_on,60,0,0
2,note_on,43,48,0
2,note_on,50,48,0
2,note_on,55,57,0
2,note_on,55,0,240
2,note_on,50,0,0
2,note_on,43,0,0
2,note_on,55,41,120
2,note_on,59,41,0
2,note_on,62,49,0
2,note_on,62,0,60
2,note_on,59,0,0
2,note_on,55,0,0
2,note_on,55,41,60
2,note_on,59,41,0
2,note_on,62,49,0
2,note_on,62,0,120
2,note_on,59,0,0
2,note_on,55,0,0
2,note_on,58,45,120
2,note_on,55,45,0
2,note_on,61,54,0
2,note_on,61,0,120
2,note_on,55,0,0
2,note_on,58,0,0
2,note_on,55,53,120
2,note_on,59,53,0
2,note_on,62,63,0
2,note_on,62,0,120
2,note_on,59,0,0
2,note_on,55,0,0
2,note_on,55,55,120
2,note_on,62,55,0
2,note_on,67,65,0
2,note_on,67,0,120
2,note_on,62,0,0
2,note_on,55,0,0
2,note_on,54,48,120
2,note_on,59,57,0
2,note_on,47,48,0
2,note_on,47,0,240
2,note_on,59,0,0
2,note_on,54,0,0
2,note_on,59,41,120
2,note_on,66,49,0
2,note_on,62,41,0
2,note_on,62,0,60
2,note_on,66,0,0
2,note_on,59,0,0
2,note_on,66,49,60
2,note_on,62,41,0
2,note_on,59,41,0
2,note_on,59,0,120
2,note_on,62,0,0
2,note_on,66,0,0
2,note_on,62,51,120
2,note_on,59,51,0
2,note_on,66,61,0
2,note_on,66,0,720
2,note_on,59,0,0
2,note_on,62,0,0
2,note_on,42,43,0
2,note_on,49,43,0
2,note_on,54,51,0
2,note_on,54,0,240
2,note_on,49,0,0
2,note_on,42,0,0
2,note_on,54,36,120
2,note_on,58,36,0
2,note_on,61,44,0
2,note_on,61,0,60
2,note_on,58,0,0
2,note_on,54,0,0
2,note_on,54,36,60
2,note_on,58,36,0
2,note_on,61,44,0
2,note_on,61,0,120
2,note_on,58,0,0
2,note_on,54,0,0
2,note_on,57,43,120
2,note_on,54,43,0
2,note_on,60,52,0
2,note_on,60,0,120
2,note_on,54,0,0
2,note_on,57,0,0
2,note_on,54,47,120
2,note_on,58,47,0
2,note_on,61,56,0
2,note_on,61,0,120
2,note_on,58,0,0
2,note_on,54,0,0
2,note_on,54,49,120
2,note_on,61,49,0
2,note_on,66,58,0
2,note_on,66,0,120
2,note_on,61,0,0
2,note_on,54,0,0
2,note_on,53,43,120
2,note_on,58,51,0
2,note_on,46,43,0
2,note_on,46,0,240
2,note_on,58,0,0
2,note_on,53,0,0
2,note_on,58,36,120
2,note_on,65,44,0
2,note_on,61,36,0
2,note_on,61,0,60
2,note_on,65,0,0
2,note_on,58,0,0
2,note_on,65,44,60
2,note_on,61,36,0
2,note_on,58,36,0
2,note_on,58,0,120
2,note_on,61,0,0
2,note_on,65,0,0
2,note_on,61,45,120
2,note_on,58,45,0
2,note_on,65,54,0
2,note_on,65,0,720
2,note_on,58,0,0
2,note_on,61,0,0
2,note_on,41,41,0
2,note_on,48,41,0
2,note_on,53,49,0
2,note_on,53,0,240
2,note_on,48,0,0
2,note_on,41,0,0
2,note_on,57,36,120
2,note_on,60,43,0
2,note_on,60,0,60
2,note_on,57,0,0
2,note_on,57,36,60
2,note_on,60,43,0
2,note_on,60,0,120
2,note_on,57,0,0
2,note_on,45,42,120
2,note_on,52,42,0
2,note_on,57,50,0
2,note_on,57,0,120
2,note_on,52,0,0
2,note_on,45,0,0
2,note_on,57,37,240
2,note_on,59,37,0
2,note_on,63,45,0
2,note_on,63,0,60
2,note_on,59,0,0
2,note_on,57,0,0
2,note_on,57,38,60
2,note_on,60,38,0
2,note_on,64,45,0
2,note_on,64,0,120
2,note_on,60,0,0
2,note_on,57,0,0
2,note_on,40,41,120
2,note_on,47,41,0
2,note_on,52,49,0
2,note_on,52,0,240
2,note_on,47,0,0
2,note_on,40,0,0
2,note_on,56,36,120
2,note_on,59,43,0
2,note_on,59,0,60
2,note_on,56,0,0
2,note_on,56,36,60
2,note_on,59,43,0
2,note_on,59,0,120
2,note_on,56,0,0
2,note_on,44,42,120
2,note_on,51,42,0
2,note_on,56,50,0
2,note_on,56,0,120
2,note_on,51,0,0
2,note_on,44,0,0
2,note_on,56,37,240
2,note_on,59,37,0
2,note_on,62,45,0
2,note_on,62,0,60
2,note_on,59,0,0
2,note_on,56,0,0
2,note_on,56,38,60
2,note_on,59,38,0
2,note_on,63,45,0
2,note_on,63,0,120
2,note_on,59,0,0
2,note_on,56,0,0
2,note_on,39,41,120
2,note_on,51,49,0
2,note_on,51,0,240
2,note_on,39,0,0
2,note_on,58,35,120
2,note_on,63,35,0
2,note_on,67,42,0
2,note_on,67,0,60
2,note_on,63,0,0
2,note_on,58,0,0
2,note_on,58,35,60
2,note_on,63,35,0
2,note_on,67,42,0
2,note_on,67,0,120
2,note_on,63,0,0
2,note_on,58,0,0
2,note_on,39,41,120
2,note_on,51,48,0
2,note_on,51,0,120
2,note_on,39,0,0
2,note_on,58,36,240
2,note_on,63,36,0
2,note_on,66,43,0
2,note_on,66,0,60
2,note_on,63,0,0
2,note_on,58,0,0
2,note_on,58,36,60
2,note_on,63,36,0
2,note_on,66,43,0
2,note_on,66,0,120
2,note_on,63,0,0
2,note_on,58,0,0
2,note_on,35,38,120
2,note_on,47,46,0
2,note_on,47,0,240
2,note_on,35,0,0
2,note_on,56,33,120
2,note_on,59,33,0
2,note_on,64,40,0
2,note_on,64,0,60
2,note_on,59,0,0
2,note_on,56,0,0
2,note_on,56,33,60
2,note_on,59,33,0
2,note_on,64,40,0
2,note_on,64,0,120
2,note_on,59,0,0
2,note_on,56,0,0
2,note_on,36,38,120
2,note_on,48,46,0
2,note_on,48,0,120
2,note_on,36,0,0
2,note_on,54,34,240
2,note_on,57,34,0
2,note_on,63,41,0
2,note_on,63,0,60
2,note_on,57,0,0
2,note_on,54,0,0
2,note_on,54,35,60
2,note_on,57,35,0
2,note_on,63,41,0
2,note_on,63,0,120
2,note_on,57,0,0
2,note_on,54,0,0
2,note_on,37,45,120
2,note_on,49,55,0
2,note_on,49,0,240
2,note_on,37,0,0
2,note_on,54,33,120
2,note_on,58,33,0
2,note_on,61,40,0
2,note_on,61,0,60
2,note_on,58,0,0
2,note_on,54,0,0
2,note_on,55,33,60
2,note_on,58,33,0
2,note_on,61,40,0
2,note_on,61,0,120
2,note_on,58,0,0
2,note_on,55,0,0
2,note_on,55,38,120
2,note_on,58,38,0
2,note_on,61,46,0
2,note_on,61,0,120
2,note_on,58,0,0
2,note_on,55,0,0
2,note_on,56,34,240
2,note_on,59,34,0
2,note_on,61,41,0
2,note_on,61,0,60
2,note_on,59,0,0
2,note_on,56,0,0
2,note_on,53,35,60
2,note_on,56,35,0
2,note_on,61,41,0
2,note_on,61,0,120
2,note_on,56,0,0
2,note_on,53,0,0
2,note_on,37,45,120
2,note_on,49,55,0
2,note_on,49,0,240
2,note_on,37,0,0
2,note_on,54,33,120
2,note_on,58,33,0
2,note_on,61,40,0
2,note_on,61,0,60
2,note_on,58,0,0
2,note_on,54,0,0
2,note_on,55,33,60
2,note_on,58,33,0
2,note_on,61,40,0
2,note_on,61,0,120
2,note_on,58,0,0
2,note_on,55,0,0
2,note_on,55,38,120
2,note_on,58,38,0
2,note_on,61,46,0
2,note_on,61,0,120
2,note_on,58,0,0
2,note_on,55,0,0
2,note_on,56,34,240
2,note_on,59,34,0
2,note_on,61,41,0
2,note_on,61,0,60
2,note_on,59,0,0
2,note_on,56,0,0
2,note_on,53,35,60
2,note_on,56,35,0
2,note_on,61,41,0
2,note_on,61,0,120
2,note_on,56,0,0
2,note_on,53,0,0
2,note_on,34,45,120
2,note_on,46,55,0
2,note_on,46,0,240
2,note_on,34,0,0
2,note_on,51,33,120
2,note_on,54,33,0
2,note_on,58,40,0
2,note_on,58,0,60
2,note_on,54,0,0
2,note_on,51,0,0
2,note_on,52,33,60
2,note_on,55,33,0
2,note_on,58,40,0
2,note_on,58,0,120
2,note_on,55,0,0
2,note_on,52,0,0
2,note_on,52,38,120
2,note_on,55,38,0
2,note_on,58,46,0
2,note_on,58,0,120
2,note_on,55,0,0
2,note_on,52,0,0
2,note_on,53,34,240
2,note_on,56,34,0
2,note_on,58,41,0
2,note_on,58,0,60
2,note_on,56,0,0
2,note_on,53,0,0
2,note_on,50,35,60
2,note_on,53,35,0
2,note_on,58,41,0
2,note_on,58,0,120
2,note_on,53,0,0
2,note_on,50,0,0
2,note_on,34,43,120
2,note_on,46,52,0
2,note_on,46,0,240
2,note_on,34,0,0
2,note_on,51,28,120
2,note_on,54,28,0
2,note_on,58,36,0
2,note_on,58,0,60
2,note_on,54,0,0
2,note_on,51,0,0
2,note_on,52,28,60
2,note_on,55,28,0
2,note_on,58,35,0
2,note_on,58,0,120
2,note_on,55,0,0
2,note_on,52,0,0
2,note_on,52,31,120
2,note_on,55,31,0
2,note_on,58,38,0
2,note_on,58,0,120
2,note_on,55,0,0
2,note_on,52,0,0
2,note_on,53,26,240
2,note_on,56,26,0
2,note_on,58,31,0
2,note_on,58,0,60
2,note_on,56,0,0
2,note_on,53,0,0
2,note_on,50,26,60
2,note_on,53,26,0
2,note_on,58,30,0
2,note_on,58,0,120
2,note_on,53,0,0
2,note_on,50,0,0
2,note_on,39,26,120
2,note_on,46,26,0
2,note_on,51,31,0
2,note_on,51,0,120
2,note_on,46,0,0
2,note_on,39,0,0
2,note_on,39,18,240
2,note_on,46,18,0
2,note_on,51,22,0
2,note_on,51,0,60
2,note_on,46,0,0
2,note_on,39,0,0
2,note_on,39,26,60
2,note_on,46,26,0
2,note_on,51,31,0
2,note_on,51,0,120
2,note_on,46,0,0
2,note_on,39,0,0
2,note_on,39,26,840
2,note_on,46,26,0
2,note_on,51,31,0
2,note_on,51,0,120
2,note_on,46,0,0
2,note_on,39,0,0
2,note_on,39,18,240
2,note_on,46,18,0
2,note_on,51,22,0
2,note_on,51,0,60
2,note_on,46,0,0
2,note_on,39,0,0
2,note_on,39,26,60
2,note_on,46,26,0
2,note_on,51,31,0
2,note_on,51,0,120
2,note_on,46,0,0
2,note_on,39,0,0
2,note_on,39,26,840
2,note_on,47,26,0
2,note_on,50,31,0
2,note_on,50,0,120
2,note_on,47,0,0
2,note_on,39,0,0
2,note_on,39,18,240
2,note_on,47,18,0
2,note_on,50,22,0
2,note_on,50,0,60
2,note_on,47,0,0
2,note_on,39,0,0
2,note_on,39,26,60
2,note_on,47,26,0
2,note_on,50,31,0
2,note_on,50,0,120
2,note_on,47,0,0
2,note_on,39,0,0
2,note_on,39,27,840
2,note_on,46,27,0
2,note_on,50,34,0
2,note_on,50,0,120
2,note_on,46,0,0
2,note_on,39,0,0
2,note_on,39,20,240
2,note_on,46,20,0
2,note_on,50,24,0
2,note_on,50,0,60
2,note_on,46,0,0
2,note_on,39,0,0
2,note_on,39,27,60
2,note_on,46,27,0
2,note_on,50,34,0
2,note_on,50,0,120
2,note_on,46,0,0
2,note_on,39,0,0
2,note_on,39,26,840
2,note_on,46,26,0
2,note_on,51,31,0
2,note_on,51,0,120
2,note_on,46,0,0
2,note_on,39,0,0
2,note_on,39,18,240
2,note_on,46,18,0
2,note_on,51,22,0
2,note_on,51,0,60
2,note_on,46,0,0
2,note_on,39,0,0
2,note_on,39,26,60
2,note_on,46,26,0
2,note_on,51,31,0
2,note_on,51,0,120
2,note_on,46,0,0
2,note_on,39,0,0
2,note_on,39,26,840
2,note_on,46,26,0
2,note_on,51,31,0
2,note_on,51,0,120
2,note_on,46,0,0
2,note_on,39,0,0
2,note_on,39,18,240
2,note_on,46,18,0
2,note_on,51,22,0
2,note_on,51,0,60
2,note_on,46,0,0
2,note_on,39,0,0
2,note_on,39,26,60
2,note_on,46,26,0
2,note_on,51,31,0
2,note_on,51,0,120
2,note_on,46,0,0
2,note_on,39,0,0
2,note_on,38,26,840
2,note_on,48,26,0
2,note_on,50,31,0
2,note_on,50,0,120
2,note_on,48,0,0
2,note_on,38,0,0
2,note_on,38,18,240
2,note_on,48,18,0
2,note_on,50,22,0
2,note_on,50,0,60
2,note_on,48,0,0
2,note_on,38,0,0
2,note_on,38,26,60
2,note_on,48,26,0
2,note_on,50,31,0
2,note_on,50,0,120
2,note_on,48,0,0
2,note_on,38,0,0
2,note_on,50,18,480
2,note_on,54,22,0
2,note_on,54,0,120
2,note_on,50,0,0
2,note_on,50,26,0
2,note_on,54,31,0
2,note_on,54,0,240
2,note_on,50,0,0
2,note_on,43,22,360
2,note_on,50,22,0
2,note_on,55,26,0
2,note_on,55,0,60
2,note_on,50,0,0
2,note_on,43,0,0
2,note_on,43,30,60
2,note_on,50,30,0
2,note_on,55,36,0
2,note_on,55,0,120
2,note_on,50,0,0
2,note_on,43,0,0
2,note_on,46,27,360
2,note_on,56,27,0
2,note_on,58,34,0
2,note_on,58,0,240
2,note_on,56,0,0
2,note_on,46,0,0
2,note_on,46,27,0
2,note_on,56,27,0
2,note_on,58,34,0
2,note_on,58,0,240
2,note_on,56,0,0
2,note_on,46,0,0
2,note_on,39,38,0
2,note_on,39,0,240
2,note_on,55,22,0
2,note_on,58,22,0
2,note_on,65,28,0
2,note_on,65,0,240
2,note_on,58,0,0
2,note_on,55,0,0
2,note_on,43,32,0
2,note_on,43,0,240
2,note_on,63,38,0
2,note_on,58,30,0
2,note_on,55,30,0
2,note_on,55,0,240
2,note_on,58,0,0
2,note_on,63,0,0
2,note_on,46,34,0
2,note_on,46,0,240
2,note_on,62,34,0
2,note_on,58,27,0
2,note_on,55,27,0
2,note_on,55,0,240
2,note_on,58,0,0
2,note_on,62,0,0
2,note_on,51,38,0
2,note_on,51,0,240
2,note_on,60,28,0
2,note_on,55,24,0
2,note_on,55,0,240
2,note_on,60,0,0
2,note_on,46,35,0
2,note_on,46,0,240
2,note_on,58,33,0
2,note_on,55,27,0
2,note_on,55,0,240
2,note_on,58,0,0
2,note_on,43,33,0
2,note_on,43,0,240
2,note_on,58,33,0
2,note_on,55,27,0
2,note_on,55,0,240
2,note_on,58,0,0
2,note_on,39,38,0
2,note_on,39,0,240
2,note_on,62,35,0
2,note_on,59,27,0
2,note_on,56,27,0
2,note_on,56,0,240
2,note_on,59,0,0
2,note_on,62,0,0
2,note_on,44,36,0
2,note_on,44,0,240
2,note_on,59,29,0
2,note_on,62,37,0
2,note_on,56,29,0
2,note_on,56,0,240
2,note_on,62,0,0
2,note_on,59,0,0
2,note_on,47,38,0
2,note_on,47,0,240
2,note_on,62,39,0
2,note_on,59,31,0
2,note_on,56,31,0
2,note_on,56,0,240
2,note_on,59,0,0
2,note_on,62,0,0
2,note_on,39,40,0
2,note_on,39,0,240
2,note_on,65,34,0
2,note_on,58,27,0
2,note_on,56,27,0
2,note_on,56,0,240
2,note_on,58,0,0
2,note_on,65,0,0
2,note_on,46,42,0
2,note_on,46,0,240
2,note_on,65,49,0
2,note_on,58,39,0
2,note_on,56,39,0
2,note_on,56,0,240
2,note_on,58,0,0
2,note_on,65,0,0
2,note_on,50,32,0
2,note_on,50,0,240
2,note_on,65,33,0
2,note_on,58,26,0
2,note_on,56,26,0
2,note_on,56,0,240
2,note_on,58,0,0
2,note_on,65,0,0
2,note_on,39,38,0
2,note_on,39,0,240
2,note_on,65,29,0
2,note_on,58,23,0
2,note_on,55,23,0
2,note_on,55,0,240
2,note_on,58,0,0
2,note_on,65,0,0
2,note_on,43,34,0
2,note_on,43,0,240
2,note_on,63,34,0
2,note_on,58,27,0
2,note_on,55,27,0
2,note_on,55,0,240
2,note_on,58,0,0
2,note_on,63,0,0
2,note_on,46,34,0
2,note_on,46,0,240
2,note_on,62,34,0
2,note_on,58,27,0
2,note_on,55,27,0
2,note_on,55,0,240
2,note_on,58,0,0
2,note_on,62,0,0
2,note_on,51,38,0
2,note_on,51,0,240
2,note_on,60,30,0
2,note_on,55,25,0
2,note_on,55,0,240
2,note_on,60,0,0
2,note_on,46,36,0
2,note_on,46,0,240
2,note_on,58,36,0
2,note_on,55,30,0
2,note_on,55,0,240
2,note_on,58,0,0
2,note_on,43,36,0
2,note_on,43,0,240
2,note_on,58,36,0
2,note_on,55,30,0
2,note_on,55,0,240
2,note_on,58,0,0
2,note_on,38,38,0
2,note_on,38,0,240
2,note_on,62,35,0
2,note_on,60,27,0
2,note_on,57,27,0
2,note_on,57,0,240
2,note_on,60,0,0
2,note_on,62,0,0
2,note_on,45,36,0
2,note_on,45,0,240
2,note_on,63,38,0
2,note_on,60,30,0
2,note_on,54,30,0
2,note_on,54,0,240
2,note_on,60,0,0
2,note_on,63,0,0
2,note_on,50,42,0
2,note_on,50,0,240
2,note_on,62,45,0
2,note_on,60,36,0
2,note_on,57,36,0
2,note_on,57,0,240
2,note_on,60,0,0
2,note_on,62,0,0
2,note_on,43,38,0
2,note_on,43,0,240
2,note_on,59,29,0
2,note_on,62,35,0
2,note_on,62,0,240
2,note_on,59,0,0
2,note_on,50,38,0
2,note_on,50,0,240
2,note_on,62,29,0
2,note_on,59,25,0
2,note_on,59,0,240
2,note_on,62,0,0
2,note_on,55,34,0
2,note_on,55,0,240
2,note_on,62,34,0
2,note_on,59,28,0
2,note_on,59,0,240
2,note_on,62,0,0
2,note_on,40,38,0
2,note_on,40,0,240
2,note_on,55,17,0
2,note_on,59,22,0
2,note_on,66,28,0
2,note_on,66,0,240
2,note_on,59,0,0
2,note_on,55,0,0
2,note_on,43,32,0
2,note_on,43,0,240
2,note_on,64,38,0
2,note_on,59,30,0
2,note_on,55,30,0
2,note_on,55,0,240
2,note_on,59,0,0
2,note_on,64,0,0
2,note_on,47,34,0
2,note_on,47,0,240
2,note_on,62,34,0
2,note_on,59,27,0
2,note_on,55,27,0
2,note_on,55,0,240
2,note_on,59,0,0
2,note_on,62,0,0
2,note_on,52,38,0
2,note_on,52,0,240
2,note_on,60,28,0
2,note_on,55,24,0
2,note_on,55,0,240
2,note_on,60,0,0
2,note_on,47,35,0
2,note_on,47,0,240
2,note_on,59,33,0
2,note_on,55,27,0
2,note_on,55,0,240
2,note_on,59,0,0
2,note_on,40,33,0
2,note_on,40,0,240
2,note_on,59,33,0
2,note_on,55,27,0
2,note_on,55,0,240
2,note_on,59,0,0
2,note_on,36,38,0
2,note_on,36,0,240
2,note_on,63,35,0
2,note_on,57,27,0
2,note_on,55,27,0
2,note_on,55,0,240
2,note_on,57,0,0
2,note_on,63,0,0
2,note_on,45,36,0
2,note_on,45,0,240
2,note_on,57,29,0
2,note_on,63,37,0
2,note_on,54,29,0
2,note_on,54,0,240
2,note_on,63,0,0
2,note_on,57,0,0
2,note_on,48,38,0
2,note_on,48,0,240
2,note_on,63,39,0
2,note_on,57,31,0
2,note_on,54,31,0
2,note_on,54,0,240
2,note_on,57,0,0
2,note_on,63,0,0
2,note_on,35,40,0
2,note_on,35,0,240
2,note_on,63,34,0
2,note_on,57,27,0
2,note_on,54,27,0
2,note_on,54,0,240
2,note_on,57,0,0
2,note_on,63,0,0
2,note_on,47,42,0
2,note_on,47,0,240
2,note_on,66,49,0
2,note_on,60,39,0
2,note_on,57,39,0
2,note_on,57,0,240
2,note_on,60,0,0
2,note_on,66,0,0
2,note_on,51,32,0
2,note_on,51,0,240
2,note_on,66,33,0
2,note_on,59,26,0
2,note_on,57,26,0
2,note_on,57,0,240
2,note_on,59,0,0
2,note_on,66,0,0
2,note_on,40,38,0
2,note_on,40,0,240
2,note_on,66,29,0
2,note_on,59,23,0
2,note_on,55,19,0
2,note_on,55,0,240
2,note_on,59,0,0
2,note_on,66,0,0
2,note_on,43,34,0
2,note_on,43,0,240
2,note_on,64,34,0
2,note_on,59,27,0
2,note_on,55,27,0
2,note_on,55,0,240
2,note_on,59,0,0
2,note_on,64,0,0
2,note_on,47,34,0
2,note_on,47,0,240
2,note_on,62,34,0
2,note_on,59,27,0
2,note_on,55,27,0
2,note_on,55,0,240
2,note_on,59,0,0
2,note_on,62,0,0
2,note_on,52,38,0
2,note_on,52,0,240
2,note_on,60,30,0
2,note_on,55,25,0
2,note_on,55,0,240
2,note_on,60,0,0
2,note_on,47,36,0
2,note_on,47,0,240
2,note_on,59,36,0
2,note_on,55,30,0
2,note_on,55,0,240
2,note_on,59,0,0
2,note_on,40,36,0
2,note_on,40,0,240
2,note_on,59,36,0
2,note_on,55,30,0
2,note_on,55,0,240
2,note_on,59,0,0
2,note_on,39,38,0
2,note_on,39,0,240
2,note_on,60,35,0
2,note_on,57,27,0
2,note_on,55,27,0
2,note_on,55,0,240
2,note_on,57,0,0
2,note_on,60,0,0
2,note_on,45,36,0
2,note_on,45,0,240
2,note_on,60,38,0
2,note_on,57,30,0
2,note_on,54,30,0
2,note_on,54,0,240
2,note_on,57,0,0
2,note_on,60,0,0
2,note_on,48,42,0
2,note_on,48,0,240
2,note_on,63,45,0
2,note_on,57,36,0
2,note_on,54,36,0
2,note_on,54,0,240
2,note_on,57,0,0
2,note_on,63,0,0
2,note_on,38,42,0
2,note_on,38,0,240
2,note_on,54,33,0
2,note_on,60,33,0
2,note_on,63,42,0
2,note_on,63,0,240
2,note_on,60,0,0
2,note_on,54,0,0
2,note_on,45,47,0
2,note_on,45,0,240
2,note_on,54,30,0
2,note_on,63,38,0
2,note_on,60,30,0
2,note_on,60,0,240
2,note_on,63,0,0
2,note_on,54,0,0
2,note_on,50,34,0
2,note_on,50,0,240
2,note_on,57,28,0
2,note_on,62,34,0
2,note_on,60,28,0
2,note_on,60,0,240
2,note_on,62,0,0
2,note_on,57,0,0
2,note_on,43,38,0
2,note_on,43,0,240
2,note_on,69,28,0
2,note_on,58,22,0
2,note_on,62,22,0
2,note_on,62,0,240
2,note_on,58,0,0
2,note_on,69,0,0
2,note_on,46,32,0
2,note_on,46,0,240
2,note_on,67,38,0
2,note_on,62,30,0
2,note_on,58,30,0
2,note_on,58,0,240
2,note_on,62,0,0
2,note_on,67,0,0
2,note_on,50,34,0
2,note_on,50,0,240
2,note_on,63,34,0
2,note_on,58,27,0
2,note_on,55,27,0
2,note_on,55,0,240
2,note_on,58,0,0
2,note_on,63,0,0
2,note_on,42,38,0
2,note_on,42,0,240
2,note_on,63,24,0
2,note_on,70,28,0
2,note_on,60,24,0
2,note_on,60,0,240
2,note_on,70,0,0
2,note_on,63,0,0
2,note_on,41,35,0
2,note_on,41,0,240
2,note_on,63,27,0
2,note_on,69,33,0
2,note_on,60,27,0
2,note_on,60,0,240
2,note_on,69,0,0
2,note_on,63,0,0
2,note_on,45,33,0
2,note_on,45,0,240
2,note_on,60,27,0
2,note_on,66,33,0
2,note_on,63,27,0
2,note_on,63,0,240
2,note_on,66,0,0
2,note_on,60,0,0
2,note_on,46,44,0
2,note_on,46,0,240
2,note_on,72,32,0
2,note_on,61,25,0
2,note_on,65,25,0
2,note_on,65,0,240
2,note_on,61,0,0
2,note_on,72,0,0
2,note_on,49,36,0
2,note_on,49,0,240
2,note_on,70,44,0
2,note_on,65,35,0
2,note_on,61,35,0
2,note_on,61,0,240
2,note_on,65,0,0
2,note_on,70,0,0
2,note_on,53,38,0
2,note_on,53,0,240
2,note_on,66,38,0
2,note_on,61,30,0
2,note_on,58,30,0
2,note_on,58,0,240
2,note_on,61,0,0
2,note_on,66,0,0
2,note_on,45,44,0
2,note_on,45,0,240
2,note_on,66,27,0
2,note_on,73,32,0
2,note_on,63,27,0
2,note_on,63,0,240
2,note_on,73,0,0
2,note_on,66,0,0
2,note_on,44,39,0
2,note_on,44,0,240
2,note_on,66,31,0
2,note_on,72,37,0
2,note_on,63,31,0
2,note_on,63,0,240
2,note_on,72,0,0
2,note_on,66,0,0
2,note_on,48,37,0
2,note_on,48,0,240
2,note_on,63,31,0
2,note_on,68,37,0
2,note_on,66,31,0
2,note_on,66,0,240
2,note_on,68,0,0
2,note_on,63,0,0
2,note_on,49,47,0
2,note_on,49,0,240
2,note_on,75,35,0
2,note_on,65,27,0
2,note_on,68,27,0
2,note_on,68,0,240
2,note_on,65,0,0
2,note_on,75,0,0
2,note_on,53,40,0
2,note_on,53,0,240
2,note_on,73,47,0
2,note_on,68,37,0
2,note_on,65,37,0
2,note_on,65,0,240
2,note_on,68,0,0
2,note_on,73,0,0
2,note_on,56,42,0
2,note_on,56,0,240
2,note_on,72,42,0
2,note_on,68,33,0
2,note_on,65,33,0
2,note_on,65,0,240
2,note_on,68,0,0
2,note_on,72,0,0
2,note_on,47,47,0
2,note_on,47,0,240
2,note_on,65,30,0
2,note_on,68,30,0
2,note_on,71,35,0
2,note_on,63,30,0
2,note_on,63,0,240
2,note_on,65,0,0
2,note_on,68,0,0
2,note_on,71,0,0
2,note_on,53,43,0
2,note_on,53,0,240
2,note_on,65,34,0
2,note_on,68,34,0
2,note_on,71,41,0
2,note_on,63,34,0
2,note_on,63,0,240
2,note_on,65,0,0
2,note_on,68,0,0
2,note_on,71,0,0
2,note_on,39,41,0
2,note_on,39,0,240
2,note_on,65,34,0
2,note_on,63,34,0
2,note_on,71,41,0
2,note_on,68,34,0
2,note_on,68,0,240
2,note_on,65,0,0
2,note_on,63,0,0
2,note_on,71,0,0
2,note_on,46,47,0
2,note_on,46,0,240
2,note_on,65,30,0
2,note_on,68,30,0
2,note_on,70,35,0
2,note_on,62,30,0
2,note_on,62,0,240
2,note_on,65,0,0
2,note_on,68,0,0
2,note_on,70,0,0
2,note_on,46,44,0
2,note_on,46,0,240
2,note_on,66,35,0
2,note_on,68,35,0
2,note_on,70,43,0
2,note_on,62,35,0
2,note_on,62,0,240
2,note_on,66,0,0
2,note_on,68,0,0
2,note_on,70,0,0
2,note_on,46,43,0
2,note_on,46,0,240
2,note_on,66,36,0
2,note_on,62,36,0
2,note_on,70,44,0
2,note_on,68,36,0
2,note_on,68,0,240
2,note_on,66,0,0
2,note_on,62,0,0
2,note_on,70,0,0
2,note_on,51,47,0
2,note_on,39,47,0
2,note_on,55,31,180
2,note_on,58,31,0
2,note_on,67,45,0
2,note_on,39,0,180
2,note_on,51,0,0
2,note_on,58,0,180
2,note_on,55,0,0
2,note_on,67,0,0
2,note_on,55,43,0
2,note_on,58,43,0
2,note_on,65,63,0
2,note_on,65,0,360
2,note_on,58,0,0
2,note_on,55,0,0
2,note_on,55,37,0
2,note_on,58,37,0
2,note_on,63,54,0
2,note_on,63,0,360
2,note_on,55,0,0
2,note_on,55,37,0
2,note_on,58,37,0
2,note_on,62,54,0
2,note_on,58,0,9
2,note_on,55,0,171
2,note_on,58,0,0
2,note_on,62,0,0
2,note_on,39,47,0
2,note_on,51,47,0
2,note_on,51,34,180
2,note_on,55,34,0
2,note_on,60,45,0
2,note_on,51,0,180
2,note_on,39,0,0
2,note_on,55,0,180
2,note_on,51,0,0
2,note_on,60,0,0
2,note_on,51,39,0
2,note_on,55,39,0
2,note_on,57,54,0
2,note_on,57,0,360
2,note_on,55,0,0
2,note_on,51,0,0
2,note_on,51,39,0
2,note_on,55,39,0
2,note_on,58,54,0
2,note_on,58,0,360
2,note_on,55,0,0
2,note_on,51,0,0
2,note_on,55,43,0
2,note_on,58,43,0
2,note_on,63,43,0
2,note_on,67,54,0
2,note_on,67,0,180
2,note_on,55,0,0
2,note_on,58,0,0
2,note_on,63,0,0
2,note_on,51,47,0
2,note_on,39,47,0
2,note_on,62,31,180
2,note_on,56,31,0
2,note_on,59,31,0
2,note_on,67,45,0
2,note_on,39,0,180
2,note_on,51,0,0
2,note_on,59,0,180
2,note_on,56,0,0
2,note_on,67,0,0
2,note_on,62,0,0
2,note_on,62,43,0
2,note_on,56,43,0
2,note_on,59,43,0
2,note_on,64,63,0
2,note_on,64,0,360
2,note_on,62,0,0
2,note_on,56,0,0
2,note_on,59,0,0
2,note_on,62,37,0
2,note_on,56,37,0
2,note_on,59,37,0
2,note_on,65,54,0
2,note_on,65,0,360
2,note_on,62,0,0
2,note_on,56,0,0
2,note_on,62,37,0
2,note_on,56,37,0
2,note_on,59,37,0
2,note_on,67,54,0
2,note_on,59,0,9
2,note_on,59,0,171
2,note_on,62,0,0
2,note_on,56,0,0
2,note_on,67,0,0
2,note_on,39,47,0
2,note_on,51,47,0
2,note_on,59,34,180
2,note_on,62,34,0
2,note_on,65,34,0
2,note_on,68,45,0
2,note_on,51,0,180
2,note_on,39,0,0
2,note_on,65,0,180
2,note_on,62,0,0
2,note_on,68,0,0
2,note_on,59,0,0
2,note_on,59,39,0
2,note_on,62,39,0
2,note_on,65,39,0
2,note_on,69,54,0
2,note_on,69,0,360
2,note_on,59,0,0
2,note_on,62,0,0
2,note_on,65,0,0
2,note_on,58,39,0
2,note_on,62,39,0
2,note_on,65,39,0
2,note_on,68,39,0
2,note_on,72,54,0
2,note_on,72,0,360
2,note_on,65,0,0
2,note_on,58,0,0
2,note_on,62,0,0
2,note_on,68,0,0
2,note_on,62,43,0
2,note_on,58,43,0
2,note_on,65,43,0
2,note_on,68,43,0
2,note_on,70,54,0
2,note_on,70,0,180
2,note_on,65,0,0
2,note_on,62,0,0
2,note_on,58,0,0
2,note_on,68,0,0
2,note_on,51,47,0
2,note_on,39,47,0
2,note_on,55,31,180
2,note_on,58,31,0
2,note_on,67,45,0
2,note_on,39,0,180
2,note_on,51,0,0
2,note_on,58,0,180
2,note_on,55,0,0
2,note_on,67,0,0
2,note_on,55,43,0
2,note_on,58,43,0
2,note_on,65,63,0
2,note_on,65,0,360
2,note_on,58,0,0
2,note_on,55,0,0
2,note_on,55,37,0
2,note_on,58,37,0
2,note_on,63,54,0
2,note_on,63,0,360
2,note_on,55,0,0
2,note_on,55,37,0
2,note_on,58,37,0
2,note_on,62,54,0
2,note_on,58,0,9
2,note_on,55,0,171
2,note_on,58,0,0
2,note_on,62,0,0
2,note_on,39,47,0
2,note_on,51,47,0
2,note_on,51,34,180
2,note_on,55,34,0
2,note_on,60,45,0
2,note_on,51,0,180
2,note_on,39,0,0
2,note_on,55,0,180
2,note_on,51,0,0
2,note_on,60,0,0
2,note_on,51,39,0
2,note_on,55,39,0
2,note_on,57,54,0
2,note_on,57,0,360
2,note_on,55,0,0
2,note_on,51,0,0
2,note_on,51,39,0
2,note_on,55,39,0
2,note_on,58,54,0
2,note_on,58,0,360
2,note_on,55,0,0
2,note_on,51,0,0
2,note_on,55,43,0
2,note_on,58,43,0
2,note_on,63,43,0
2,note_on,67,54,0
2,note_on,67,0,180
2,note_on,55,0,0
2,note_on,58,0,0
2,note_on,63,0,0
2,note_on,50,47,0
2,note_on,38,47,0
2,note_on,57,31,180
2,note_on,60,31,0
2,note_on,67,45,0
2,note_on,38,0,180
2,note_on,50,0,0
2,note_on,60,0,180
2,note_on,57,0,0
2,note_on,67,0,0
2,note_on,57,43,0
2,note_on,60,43,0
2,note_on,66,63,0
2,note_on,66,0,360
2,note_on,60,0,0
2,note_on,57,0,0
2,note_on,66,37,0
2,note_on,69,37,0
2,note_on,75,54,0
2,note_on,75,0,360
2,note_on,66,0,0
2,note_on,66,37,0
2,note_on,69,37,0
2,note_on,74,54,0
2,note_on,69,0,9
2,note_on,66,0,171
2,note_on,69,0,0
2,note_on,74,0,0
2,note_on,43,47,0
2,note_on,55,47,0
2,note_on,67,34,180
2,note_on,71,34,0
2,note_on,74,45,0
2,note_on,55,0,180
2,note_on,43,0,0
2,note_on,71,0,180
2,note_on,67,0,0
2,note_on,74,0,0
2,note_on,62,39,0
2,note_on,67,39,0
2,note_on,71,54,0
2,note_on,71,0,360
2,note_on,67,0,0
2,note_on,62,0,0
2,note_on,59,37,0
2,note_on,62,37,0
2,note_on,67,51,0
2,note_on,67,0,360
2,note_on,62,0,0
2,note_on,59,0,0
2,note_on,55,41,0
2,note_on,59,41,0
2,note_on,62,41,0
2,note_on,67,52,0
2,note_on,67,0,180
2,note_on,55,0,0
2,note_on,59,0,0
2,note_on,62,0,0
2,note_on,43,44,0
2,note_on,60,31,180
2,note_on,63,31,0
2,note_on,68,42,0
2,note_on,43,0,180
2,note_on,60,0,180
2,note_on,63,0,0
2,note_on,68,0,0
2,note_on,60,36,0
2,note_on,63,36,0
2,note_on,67,49,0
2,note_on,67,0,360
2,note_on,63,0,0
2,note_on,60,0,0
2,note_on,55,36,0
2,note_on,60,36,0
2,note_on,65,49,0
2,note_on,65,0,360
2,note_on,60,0,0
2,note_on,55,0,0
2,note_on,55,39,0
2,note_on,60,39,0
2,note_on,63,50,0
2,note_on,63,0,180
2,note_on,60,0,0
2,note_on,55,0,0
2,note_on,41,39,0
2,note_on,53,27,180
2,note_on,56,27,0
2,note_on,60,27,0
2,note_on,63,37,0
2,note_on,41,0,180
2,note_on,60,0,180
2,note_on,53,0,0
2,note_on,56,0,0
2,note_on,63,0,0
2,note_on,60,32,0
2,note_on,53,32,0
2,note_on,56,32,0
2,note_on,62,44,0
2,note_on,62,0,360
2,note_on,60,0,0
2,note_on,53,0,0
2,note_on,56,0,0
2,note_on,56,32,0
2,note_on,60,32,0
2,note_on,62,44,0
2,note_on,62,0,360
2,note_on,60,0,0
2,note_on,56,0,0
2,note_on,56,35,0
2,note_on,53,35,0
2,note_on,60,35,0
2,note_on,62,45,0
2,note_on,62,0,180
2,note_on,56,0,0
2,note_on,53,0,0
2,note_on,60,0,0
2,note_on,43,35,0
2,note_on,55,24,180
2,note_on,59,24,0
2,note_on,63,33,0
2,note_on,43,0,180
2,note_on,55,0,180
2,note_on,59,0,0
2,note_on,63,0,0
2,note_on,59,28,0
2,note_on,55,28,0
2,note_on,62,39,0
2,note_on,62,0,360
2,note_on,55,0,0
2,note_on,59,0,0
2,note_on,50,28,0
2,note_on,55,28,0
2,note_on,60,39,0
2,note_on,60,0,360
2,note_on,55,0,0
2,note_on,50,0,0
2,note_on,55,31,0
2,note_on,50,31,0
2,note_on,59,40,0
2,note_on,59,0,180
2,note_on,50,0,0
2,note_on,55,0,0
2,note_on,47,22,180
2,note_on,50,22,0
2,note_on,56,31,0
2,note_on,56,0,360
2,note_on,50,0,0
2,note_on,47,0,0
2,note_on,50,26,0
2,note_on,47,26,0
2,note_on,55,36,0
2,note_on,55,0,360
2,note_on,47,0,0
2,note_on,50,0,0
2,note_on,47,25,0
2,note_on,50,25,0
2,note_on,55,35,0
2,note_on,55,0,360
2,note_on,50,0,0
2,note_on,47,0,0
2,note_on,50,27,0
2,note_on,47,27,0
2,note_on,55,35,0
2,note_on,55,0,180
2,note_on,47,0,0
2,note_on,50,0,0
2,note_on,31,31,0
2,note_on,48,20,180
2,note_on,51,20,0
2,note_on,58,29,0
2,note_on,31,0,180
2,note_on,48,0,180
2,note_on,51,0,0
2,note_on,58,0,0
2,note_on,51,24,0
2,note_on,48,24,0
2,note_on,56,34,0
2,note_on,56,0,360
2,note_on,48,0,0
2,note_on,51,0,0
2,note_on,43,23,0
2,note_on,48,23,0
2,note_on,51,23,0
2,note_on,55,33,0
2,note_on,55,0,360
2,note_on,43,0,0
2,note_on,48,0,0
2,note_on,51,0,0
2,note_on,48,25,0
2,note_on,43,25,0
2,note_on,53,33,0
2,note_on,53,0,180
2,note_on,43,0,0
2,note_on,48,0,0
2,note_on,29,29,0
2,note_on,41,18,180
2,note_on,44,18,0
2,note_on,48,18,0
2,note_on,51,27,0
2,note_on,29,0,180
2,note_on,48,0,180
2,note_on,41,0,0
2,note_on,44,0,0
2,note_on,51,0,0
2,note_on,44,22,0
2,note_on,48,22,0
2,note_on,41,22,0
2,note_on,50,32,0
2,note_on,50,0,360
2,note_on,44,0,0
2,note_on,48,0,0
2,note_on,41,0,0
2,note_on,44,21,0
2,note_on,48,21,0
2,note_on,50,31,0
2,note_on,50,0,360
2,note_on,48,0,0
2,note_on,44,0,0
2,note_on,44,23,0
2,note_on,48,23,0
2,note_on,41,23,0
2,note_on,50,31,0
2,note_on,50,0,180
2,note_on,44,0,0
2,note_on,48,0,0
2,note_on,41,0,0
2,note_on,31,29,0
2,note_on,43,18,180
2,note_on,47,18,0
2,note_on,51,27,0
2,note_on,31,0,180
2,note_on,43,0,180
2,note_on,47,0,0
2,note_on,51,0,0
2,note_on,43,22,0
2,note_on,47,22,0
2,note_on,50,32,0
2,note_on,50,0,360
2,note_on,47,0,0
2,note_on,43,0,0
2,note_on,51,21,0
2,note_on,55,31,0
2,note_on,55,0,360
2,note_on,51,0,0
2,note_on,50,23,0
2,note_on,55,31,0
2,note_on,55,0,180
2,note_on,50,0,0
2,note_on,37,26,0
2,note_on,49,16,180
2,note_on,53,24,0
2,note_on,37,0,180
2,note_on,53,0,180
2,note_on,49,0,0
2,note_on,49,19,0
2,note_on,53,28,0
2,note_on,53,0,180
2,note_on,49,0,0
2,note_on,44,18,180
2,note_on,40,18,0
2,note_on,49,27,0
2,note_on,49,0,360
2,note_on,40,0,0
2,note_on,44,0,0
2,note_on,41,20,0
2,note_on,44,20,0
2,note_on,49,27,0
2,note_on,49,0,180
2,note_on,44,0,0
2,note_on,41,0,0
2,note_on,31,20,0
2,note_on,43,12,180
2,note_on,47,12,0
2,note_on,51,19,0
2,note_on,31,0,180
2,note_on,43,0,180
2,note_on,47,0,0
2,note_on,51,0,0
2,note_on,43,15,0
2,note_on,47,15,0
2,note_on,50,22,0
2,note_on,50,0,360
2,note_on,47,0,0
2,note_on,43,0,0
2,note_on,51,15,0
2,note_on,55,21,0
2,note_on,55,0,360
2,note_on,51,0,0
2,note_on,50,16,0
2,note_on,55,21,0
2,note_on,55,0,180
2,note_on,50,0,0
2,note_on,37,18,0
2,note_on,49,10,180
2,note_on,53,16,0
2,note_on,37,0,180
2,note_on,53,0,180
2,note_on,49,0,0
2,note_on,49,13,0
2,note_on,53,19,0
2,note_on,53,0,180
2,note_on,49,0,0
2,note_on,44,12,180
2,note_on,40,12,0
2,note_on,49,19,0
2,note_on,49,0,360
2,note_on,40,0,0
2,note_on,44,0,0
2,note_on,41,14,0
2,note_on,44,14,0
2,note_on,49,19,0
2,note_on,49,0,180
2,note_on,44,0,0
2,note_on,41,0,0
2,note_on,43,24,0
2,note_on,50,29,0
2,note_on,50,0,120
2,note_on,43,0,0
2,note_on,38,34,120
2,note_on,38,0,240
2,note_on,36,35,0
2,note_on,36,0,240
2,note_on,35,36,0
2,note_on,35,0,240
2,note_on,32,38,0
2,note_on,32,0,240
2,note_on,31,43,0
2,note_on,31,0,240
2,note_on,44,45,0
2,note_on,44,0,240
2,note_on,43,40,0
2,note_on,43,0,240
2,note_on,41,42,0
2,note_on,41,0,240
2,note_on,39,45,0
2,note_on,39,0,240
2,note_on,37,46,0
2,note_on,37,0,240
2,note_on,49,33,0
2,note_on,53,39,0
2,note_on,53,0,120
2,note_on,49,0,0
2,note_on,43,36,120
2,note_on,50,43,0
2,note_on,50,0,120
2,note_on,43,0,0
2,note_on,38,34,120
2,note_on,38,0,240
2,note_on,36,35,0
2,note_on,36,0,240
2,note_on,35,36,0
2,note_on,35,0,240
2,note_on,32,38,0
2,note_on,32,0,240
2,note_on,31,43,0
2,note_on,31,0,240
2,note_on,44,45,0
2,note_on,44,0,240
2,note_on,43,40,0
2,note_on,43,0,240
2,note_on,41,42,0
2,note_on,41,0,240
2,note_on,39,45,0
2,note_on,39,0,240
2,note_on,37,46,0
2,note_on,37,0,240
2,note_on,49,33,0
2,note_on,53,39,0
2,note_on,53,0,120
2,note_on,49,0,0
2,note_on,44,36,120
2,note_on,51,43,0
2,note_on,51,0,120
2,note_on,44,0,0
2,note_on,39,34,120
2,note_on,39,0,240
2,note_on,37,35,0
2,note_on,37,0,240
2,note_on,36,36,0
2,note_on,36,0,240
2,note_on,34,38,0
2,note_on,34,0,240
2,note_on,32,43,0
2,note_on,32,0,240
2,note_on,44,45,0
2,note_on,44,0,240
2,note_on,42,40,0
2,note_on,42,0,240
2,note_on,40,42,0
2,note_on,40,0,240
2,note_on,39,45,0
2,note_on,39,0,240
2,note_on,37,46,0
2,note_on,37,0,240
2,note_on,49,33,0
2,note_on,52,39,0
2,note_on,52,0,120
2,note_on,49,0,0
2,note_on,45,36,120
2,note_on,52,43,0
2,note_on,52,0,120
2,note_on,45,0,0
2,note_on,40,34,120
2,note_on,40,0,240
2,note_on,38,35,0
2,note_on,38,0,240
2,note_on,37,36,0
2,note_on,37,0,240
2,note_on,34,38,0
2,note_on,34,0,240
2,note_on,33,43,0
2,note_on,33,0,240
2,note_on,45,45,0
2,note_on,45,0,240
2,note_on,43,40,0
2,note_on,43,0,240
2,note_on,41,42,0
2,note_on,41,0,240
2,note_on,40,45,0
2,note_on,40,0,240
2,note_on,38,46,0
2,note_on,38,0,240
2,note_on,50,33,0
2,note_on,53,39,0
2,note_on,53,0,120
2,note_on,50,0,0
2,note_on,46,36,120
2,note_on,53,43,0
2,note_on,53,0,120
2,note_on,46,0,0
2,note_on,41,34,120
2,note_on,41,0,240
2,note_on,39,35,0
2,note_on,39,0,240
2,note_on,38,36,0
2,note_on,38,0,240
2,note_on,35,38,0
2,note_on,35,0,240
2,note_on,34,43,0
2,note_on,34,0,240
2,note_on,46,36,0
2,note_on,54,43,0
2,note_on,54,0,120
2,note_on,46,0,0
2,note_on,42,34,120
2,note_on,42,0,240
2,note_on,41,36,0
2,note_on,41,0,240
2,note_on,39,37,0
2,note_on,39,0,240
2,note_on,35,39,0
2,note_on,35,0,240
2,note_on,34,44,0
2,note_on,34,0,240
2,note_on,56,38,0
2,note_on,47,38,0
2,note_on,59,45,0
2,note_on,59,0,120
2,note_on,47,0,0
2,note_on,56,0,0
2,note_on,44,35,120
2,note_on,44,0,240
2,note_on,41,36,0
2,note_on,41,0,240
2,note_on,38,38,0
2,note_on,38,0,240
2,note_on,37,40,0
2,note_on,37,0,240
2,note_on,35,45,0
2,note_on,35,0,240
2,note_on,60,38,0
2,note_on,51,38,0
2,note_on,63,45,0
2,note_on,63,0,120
2,note_on,51,0,0
2,note_on,60,0,0
2,note_on,45,36,120
2,note_on,45,0,240
2,note_on,44,37,0
2,note_on,44,0,240
2,note_on,42,39,0
2,note_on,42,0,240
2,note_on,39,41,0
2,note_on,39,0,240
2,note_on,36,46,0
2,note_on,36,0,240
2,note_on,61,25,0
2,note_on,69,30,0
2,note_on,66,25,0
2,note_on,66,0,240
2,note_on,69,0,0
2,note_on,61,0,0
2,note_on,57,20,120
2,note_on,61,20,0
2,note_on,66,25,0
2,note_on,66,0,60
2,note_on,61,0,0
2,note_on,57,0,0
2,note_on,57,20,60
2,note_on,61,20,0
2,note_on,66,25,0
2,note_on,66,0,120
2,note_on,61,0,0
2,note_on,57,0,0
2,note_on,57,26,120
2,note_on,54,26,0
2,note_on,61,31,0
2,note_on,61,0,120
2,note_on,54,0,0
2,note_on,57,0,0
2,note_on,49,21,240
2,note_on,54,21,0
2,note_on,57,26,0
2,note_on,57,0,60
2,note_on,54,0,0
2,note_on,49,0,0
2,note_on,49,22,60
2,note_on,57,27,0
2,note_on,54,22,0
2,note_on,54,0,120
2,note_on,57,0,0
2,note_on,49,0,0
2,note_on,38,43,120
2,note_on,38,0,240
2,note_on,45,39,0
2,note_on,45,0,240
2,note_on,43,45,0
2,note_on,43,0,240
2,note_on,42,42,0
2,note_on,42,0,240
2,note_on,40,38,0
2,note_on,40,0,240
2,note_on,38,36,0
2,note_on,38,0,240
2,note_on,62,25,0
2,note_on,70,30,0
2,note_on,67,25,0
2,note_on,67,0,240
2,note_on,70,0,0
2,note_on,62,0,0
2,note_on,58,20,120
2,note_on,62,20,0
2,note_on,67,25,0
2,note_on,67,0,60
2,note_on,62,0,0
2,note_on,58,0,0
2,note_on,58,20,60
2,note_on,62,20,0
2,note_on,67,25,0
2,note_on,67,0,120
2,note_on,62,0,0
2,note_on,58,0,0
2,note_on,58,26,120
2,note_on,55,26,0
2,note_on,62,31,0
2,note_on,62,0,120
2,note_on,55,0,0
2,note_on,58,0,0
2,note_on,50,21,240
2,note_on,55,21,0
2,note_on,58,26,0
2,note_on,58,0,60
2,note_on,55,0,0
2,note_on,50,0,0
2,note_on,50,22,60
2,note_on,58,27,0
2,note_on,55,22,0
2,note_on,55,0,120
2,note_on,58,0,0
2,note_on,50,0,0
2,note_on,39,43,120
2,note_on,39,0,240
2,note_on,46,39,0
2,note_on,46,0,240
2,note_on,44,45,0
2,note_on,44,0,240
2,note_on,43,42,0
2,note_on,43,0,240
2,note_on,41,38,0
2,note_on,41,0,240
2,note_on,39,36,0
2,note_on,39,0,240
2,note_on,63,27,0
2,note_on,71,33,0
2,note_on,68,27,0
2,note_on,68,0,240
2,note_on,71,0,0
2,note_on,63,0,0
2,note_on,59,22,120
2,note_on,63,22,0
2,note_on,68,27,0
2,note_on,68,0,60
2,note_on,63,0,0
2,note_on,59,0,0
2,note_on,59,22,60
2,note_on,63,22,0
2,note_on,68,27,0
2,note_on,68,0,120
2,note_on,63,0,0
2,note_on,59,0,0
2,note_on,59,27,120
2,note_on,56,27,0
2,note_on,63,34,0
2,note_on,63,0,120
2,note_on,56,0,0
2,note_on,59,0,0
2,note_on,51,23,240
2,note_on,56,23,0
2,note_on,59,27,0
2,note_on,59,0,60
2,note_on,56,0,0
2,note_on,51,0,0
2,note_on,51,24,60
2,note_on,59,29,0
2,note_on,56,24,0
2,note_on,56,0,120
2,note_on,59,0,0
2,note_on,51,0,0
2,note_on,52,29,120
2,note_on,64,36,0
2,note_on,59,29,0
2,note_on,59,0,240
2,note_on,64,0,0
2,note_on,52,0,0
2,note_on,56,24,120
2,note_on,59,29,0
2,note_on,59,0,60
2,note_on,56,0,0
2,note_on,56,24,60
2,note_on,59,29,0
2,note_on,59,0,120
2,note_on,56,0,0
2,note_on,59,30,120
2,note_on,64,36,0
2,note_on,64,0,120
2,note_on,59,0,0
2,note_on,56,25,240
2,note_on,59,30,0
2,note_on,59,0,60
2,note_on,56,0,0
2,note_on,59,33,60
2,note_on,56,26,0
2,note_on,56,0,120
2,note_on,59,0,0
2,note_on,45,31,120
2,note_on,60,38,0
2,note_on,52,31,0
2,note_on,52,0,240
2,note_on,60,0,0
2,note_on,45,0,0
2,note_on,60,31,120
2,note_on,57,25,0
2,note_on,57,0,60
2,note_on,60,0,0
2,note_on,57,25,60
2,note_on,60,31,0
2,note_on,60,0,120
2,note_on,57,0,0
2,note_on,60,32,120
2,note_on,64,39,0
2,note_on,64,0,120
2,note_on,60,0,0
2,note_on,57,27,240
2,note_on,60,32,0
2,note_on,60,0,60
2,note_on,57,0,0
2,note_on,60,34,60
2,note_on,57,27,0
2,note_on,57,0,120
2,note_on,60,0,0
2,note_on,41,33,120
2,note_on,57,41,0
2,note_on,48,33,0
2,note_on,48,0,240
2,note_on,57,0,0
2,note_on,41,0,0
2,note_on,53,27,120
2,note_on,60,33,0
2,note_on,57,27,0
2,note_on,57,0,60
2,note_on,60,0,0
2,note_on,53,0,0
2,note_on,53,27,60
2,note_on,57,27,0
2,note_on,60,33,0
2,note_on,60,0,120
2,note_on,57,0,0
2,note_on,53,0,0
2,note_on,57,34,120
2,note_on,60,34,0
2,note_on,65,42,0
2,note_on,65,0,120
2,note_on,60,0,0
2,note_on,57,0,0
2,note_on,53,27,240
2,note_on,57,27,0
2,note_on,60,35,0
2,note_on,60,0,60
2,note_on,57,0,0
2,note_on,53,0,0
2,note_on,53,28,60
2,note_on,60,36,0
2,note_on,57,28,0
2,note_on,57,0,120
2,note_on,60,0,0
2,note_on,53,0,0
2,note_on,49,34,120
2,note_on,61,41,0
2,note_on,56,34,0
2,note_on,56,0,240
2,note_on,61,0,0
2,note_on,49,0,0
2,note_on,53,27,120
2,note_on,65,34,0
2,note_on,65,0,60
2,note_on,53,0,0
2,note_on,53,27,60
2,note_on,65,34,0
2,note_on,65,0,120
2,note_on,53,0,0
2,note_on,46,35,120
2,note_on,58,43,0
2,note_on,58,0,120
2,note_on,46,0,0
2,note_on,49,28,240
2,note_on,61,35,0
2,note_on,61,0,60
2,note_on,49,0,0
2,note_on,49,29,60
2,note_on,61,37,0
2,note_on,61,0,120
2,note_on,49,0,0
2,note_on,42,34,120
2,note_on,54,42,0
2,note_on,54,0,240
2,note_on,42,0,0
2,note_on,46,27,120
2,note_on,58,34,0
2,note_on,58,0,60
2,note_on,46,0,0
2,note_on,46,27,60
2,note_on,58,34,0
2,note_on,58,0,120
2,note_on,46,0,0
2,note_on,39,36,120
2,note_on,51,44,0
2,note_on,51,0,120
2,note_on,39,0,0
2,note_on,42,28,240
2,note_on,54,36,0
2,note_on,54,0,60
2,note_on,42,0,0
2,note_on,42,29,60
2,note_on,54,37,0
2,note_on,54,0,120
2,note_on,42,0,0
2,note_on,35,33,120
2,note_on,47,33,0
2,note_on,47,0,240
2,note_on,35,0,0
2,note_on,54,43,0
2,note_on,54,0,240
2,note_on,52,40,0
2,note_on,52,0,240
2,note_on,51,40,0
2,note_on,51,0,240
2,note_on,49,38,0
2,note_on,49,0,240
2,note_on,47,38,0
2,note_on,47,0,240
2,note_on,63,34,0
2,note_on,71,41,0
2,note_on,71,0,240
2,note_on,63,0,0
2,note_on,59,27,120
2,note_on,68,34,0
2,note_on,68,0,60
2,note_on,59,0,0
2,note_on,59,27,60
2,note_on,68,34,0
2,note_on,68,0,120
2,note_on,59,0,0
2,note_on,56,36,120
2,note_on,63,44,0
2,note_on,63,0,120
2,note_on,56,0,0
2,note_on,51,29,240
2,note_on,59,36,0
2,note_on,59,0,60
2,note_on,51,0,0
2,note_on,51,30,60
2,note_on,59,38,0
2,note_on,59,0,120
2,note_on,51,0,0
2,note_on,32,36,120
2,note_on,44,36,0
2,note_on,44,0,240
2,note_on,32,0,0
2,note_on,51,48,0
2,note_on,51,0,240
2,note_on,49,45,0
2,note_on,49,0,240
2,note_on,47,45,0
2,note_on,47,0,240
2,note_on,46,43,0
2,note_on,46,0,240
2,note_on,44,42,0
2,note_on,44,0,240
2,note_on,62,37,0
2,note_on,71,45,0
2,note_on,71,0,240
2,note_on,62,0,0
2,note_on,59,30,120
2,note_on,65,38,0
2,note_on,65,0,60
2,note_on,59,0,0
2,note_on,59,30,60
2,note_on,65,38,0
2,note_on,65,0,120
2,note_on,59,0,0
2,note_on,53,39,120
2,note_on,62,48,0
2,note_on,62,0,120
2,note_on,53,0,0
2,note_on,50,32,240
2,note_on,59,40,0
2,note_on,59,0,60
2,note_on,50,0,0
2,note_on,50,34,60
2,note_on,59,42,0
2,note_on,59,0,120
2,note_on,50,0,0
2,note_on,44,44,120
2,note_on,56,54,0
2,note_on,56,0,240
2,note_on,44,0,0
2,note_on,39,35,120
2,note_on,51,44,0
2,note_on,51,0,60
2,note_on,39,0,0
2,note_on,39,36,60
2,note_on,51,45,0
2,note_on,51,0,120
2,note_on,39,0,0
2,note_on,44,47,120
2,note_on,56,57,0
2,note_on,56,0,120
2,note_on,44,0,0
2,note_on,37,38,240
2,note_on,49,47,0
2,note_on,49,0,60
2,note_on,37,0,0
2,note_on,37,41,60
2,note_on,49,51,0
2,note_on,49,0,120
2,note_on,37,0,0
2,note_on,44,48,120
2,note_on,56,59,0
2,note_on,56,0,240
2,note_on,44,0,0
2,note_on,35,39,120
2,note_on,47,48,0
2,note_on,47,0,60
2,note_on,35,0,0
2,note_on,35,39,60
2,note_on,47,49,0
2,note_on,47,0,120
2,note_on,35,0,0
2,note_on,44,52,120
2,note_on,56,63,0
2,note_on,56,0,120
2,note_on,44,0,0
2,note_on,34,43,240
2,note_on,46,52,0
2,note_on,46,0,60
2,note_on,34,0,0
2,note_on,34,45,60
2,note_on,46,57,0
2,note_on,46,0,120
2,note_on,34,0,0
2,note_on,45,53,120
2,note_on,57,65,0
2,note_on,57,0,240
2,note_on,45,0,0
2,note_on,33,44,120
2,note_on,45,54,0
2,note_on,45,0,60
2,note_on,33,0,0
2,note_on,33,44,60
2,note_on,45,55,0
2,note_on,45,0,120
2,note_on,33,0,0
2,note_on,46,56,120
2,note_on,58,70,0
2,note_on,58,0,120
2,note_on,46,0,0
2,note_on,32,46,240
2,note_on,44,58,0
2,note_on,44,0,60
2,note_on,32,0,0
2,note_on,32,49,60
2,note_on,44,62,0
2,note_on,44,0,120
2,note_on,32,0,0
2,note_on,47,58,120
2,note_on,59,71,0
2,note_on,59,0,240
2,note_on,47,0,0
2,note_on,32,48,120
2,note_on,44,60,0
2,note_on,44,0,60
2,note_on,32,0,0
2,note_on,32,48,60
2,note_on,44,60,0
2,note_on,44,0,120
2,note_on,32,0,0
2,note_on,47,63,120
2,note_on,59,76,0
2,note_on,59,0,120
2,note_on,47,0,0
2,note_on,31,52,240
2,note_on,43,63,0
2,note_on,43,0,60
2,note_on,31,0,0
2,note_on,31,53,60
2,note_on,43,67,0
2,note_on,43,0,120
2,note_on,31,0,0
2,note_on,36,50,120
2,note_on,40,50,0
2,note_on,43,50,0
2,note_on,48,61,0
2,note_on,48,0,240
2,note_on,36,0,0
2,note_on,40,0,0
2,note_on,43,0,0
2,note_on,40,41,120
2,note_on,43,41,0
2,note_on,52,50,0
2,note_on,48,41,0
2,note_on,48,0,60
2,note_on,40,0,0
2,note_on,43,0,0
2,note_on,52,0,0
2,note_on,40,41,60
2,note_on,43,41,0
2,note_on,48,41,0
2,note_on,52,50,0
2,note_on,52,0,120
2,note_on,40,0,0
2,note_on,43,0,0
2,note_on,48,0,0
2,note_on,40,52,120
2,note_on,43,52,0
2,note_on,48,52,0
2,note_on,52,63,0
2,note_on,52,0,120
2,note_on,40,0,0
2,note_on,43,0,0
2,note_on,48,0,0
2,note_on,43,43,240
2,note_on,48,43,0
2,note_on,55,52,0
2,note_on,52,43,0
2,note_on,52,0,60
2,note_on,43,0,0
2,note_on,48,0,0
2,note_on,55,0,0
2,note_on,43,45,60
2,note_on,48,45,0
2,note_on,52,45,0
2,note_on,55,54,0
2,note_on,55,0,120
2,note_on,43,0,0
2,note_on,48,0,0
2,note_on,52,0,0
2,note_on,45,52,120
2,note_on,48,52,0
2,note_on,52,52,0
2,note_on,57,63,0
2,note_on,57,0,120
2,note_on,45,0,0
2,note_on,48,0,0
2,note_on,52,0,0
2,note_on,48,43,240
2,note_on,52,43,0
2,note_on,57,43,0
2,note_on,60,52,0
2,note_on,60,0,60
2,note_on,48,0,0
2,note_on,52,0,0
2,note_on,57,0,0
2,note_on,48,43,60
2,note_on,52,43,0
2,note_on,57,43,0
2,note_on,60,52,0
2,note_on,60,0,120
2,note_on,48,0,0
2,note_on,52,0,0
2,note_on,57,0,0
2,note_on,48,50,120
2,note_on,52,50,0
2,note_on,57,50,0
2,note_on,60,61,0
2,note_on,60,0,720
2,note_on,48,0,0
2,note_on,52,0,0
2,note_on,57,0,0
2,note_on,43,50,0
2,note_on,50,50,0
2,note_on,55,59,0
2,note_on,55,0,240
2,note_on,50,0,0
2,note_on,43,0,0
2,note_on,55,43,120
2,note_on,59,43,0
2,note_on,65,52,0
2,note_on,65,0,60
2,note_on,59,0,0
2,note_on,55,0,0
2,note_on,55,43,60
2,note_on,59,43,0
2,note_on,65,52,0
2,note_on,65,0,120
2,note_on,59,0,0
2,note_on,55,0,0
2,note_on,58,50,120
2,note_on,55,50,0
2,note_on,65,61,0
2,note_on,65,0,120
2,note_on,55,0,0
2,note_on,58,0,0
2,note_on,55,55,120
2,note_on,59,55,0
2,note_on,65,64,0
2,note_on,65,0,120
2,note_on,59,0,0
2,note_on,55,0,0
2,note_on,55,57,120
2,note_on,59,57,0
2,note_on,65,70,0
2,note_on,65,0,120
2,note_on,59,0,0
2,note_on,55,0,0
2,note_on,60,63,120
2,note_on,64,73,0
2,note_on,64,0,720
2,note_on,60,0,0
2,note_on,64,54,0
2,note_on,67,64,0
2,note_on,67,0,240
2,note_on,64,0,0
2,note_on,36,50,480
2,note_on,40,50,0
2,note_on,43,50,0
2,note_on,48,61,0
2,note_on,48,0,240
2,note_on,36,0,0
2,note_on,40,0,0
2,note_on,43,0,0
2,note_on,40,41,120
2,note_on,43,41,0
2,note_on,52,50,0
2,note_on,48,41,0
2,note_on,48,0,60
2,note_on,40,0,0
2,note_on,43,0,0
2,note_on,52,0,0
2,note_on,40,41,60
2,note_on,43,41,0
2,note_on,48,41,0
2,note_on,52,50,0
2,note_on,52,0,120
2,note_on,40,0,0
2,note_on,43,0,0
2,note_on,48,0,0
2,note_on,40,52,120
2,note_on,43,52,0
2,note_on,48,52,0
2,note_on,52,63,0
2,note_on,52,0,120
2,note_on,40,0,0
2,note_on,43,0,0
2,note_on,48,0,0
2,note_on,43,43,240
2,note_on,48,43,0
2,note_on,55,52,0
2,note_on,52,43,0
2,note_on,52,0,60
2,note_on,43,0,0
2,note_on,48,0,0
2,note_on,55,0,0
2,note_on,43,45,60
2,note_on,48,45,0
2,note_on,52,45,0
2,note_on,55,54,0
2,note_on,55,0,120
2,note_on,43,0,0
2,note_on,48,0,0
2,note_on,52,0,0
2,note_on,45,52,120
2,note_on,48,52,0
2,note_on,52,52,0
2,note_on,57,63,0
2,note_on,57,0,120
2,note_on,45,0,0
2,note_on,48,0,0
2,note_on,52,0,0
2,note_on,48,43,240
2,note_on,52,43,0
2,note_on,57,43,0
2,note_on,60,52,0
2,note_on,60,0,60
2,note_on,48,0,0
2,note_on,52,0,0
2,note_on,57,0,0
2,note_on,48,43,60
2,note_on,52,43,0
2,note_on,57,43,0
2,note_on,60,52,0
2,note_on,60,0,120
2,note_on,48,0,0
2,note_on,52,0,0
2,note_on,57,0,0
2,note_on,48,50,120
2,note_on,52,50,0
2,note_on,57,50,0
2,note_on,60,61,0
2,note_on,60,0,720
2,note_on,48,0,0
2,note_on,52,0,0
2,note_on,57,0,0
2,note_on,54,50,0
2,note_on,47,50,0
2,note_on,51,50,0
2,note_on,59,59,0
2,note_on,59,0,240
2,note_on,54,0,0
2,note_on,47,0,0
2,note_on,51,0,0
2,note_on,59,43,120
2,note_on,63,43,0
2,note_on,66,52,0
2,note_on,66,0,60
2,note_on,63,0,0
2,note_on,59,0,0
2,note_on,59,43,60
2,note_on,63,43,0
2,note_on,66,52,0
2,note_on,66,0,120
2,note_on,63,0,0
2,note_on,59,0,0
2,note_on,63,45,120
2,note_on,59,45,0
2,note_on,65,54,0
2,note_on,65,0,120
2,note_on,59,0,0
2,note_on,63,0,0
2,note_on,59,49,120
2,note_on,63,49,0
2,note_on,66,57,0
2,note_on,66,0,120
2,note_on,63,0,0
2,note_on,59,0,0
2,note_on,59,51,120
2,note_on,63,51,0
2,note_on,66,63,0
2,note_on,66,0,120
2,note_on,63,0,0
2,note_on,59,0,0
2,note_on,59,63,120
2,note_on,63,63,0
2,note_on,66,63,0
2,note_on,71,73,0
2,note_on,71,0,720
2,note_on,59,0,0
2,note_on,63,0,0
2,note_on,66,0,0
2,note_on,55,54,0
2,note_on,62,54,0
2,note_on,65,54,0
2,note_on,71,64,0
2,note_on,71,0,240
2,note_on,55,0,0
2,note_on,62,0,0
2,note_on,65,0,0
2,note_on,60,48,480
2,note_on,64,48,0
2,note_on,67,48,0
2,note_on,72,57,0
2,note_on,72,0,180
2,note_on,60,0,0
2,note_on,64,0,0
2,note_on,67,0,0
2,note_on,55,41,0
2,note_on,60,41,0
2,note_on,64,41,0
2,note_on,67,49,0
2,note_on,67,0,54
2,note_on,55,0,0
2,note_on,60,0,0
2,note_on,64,0,0
2,note_on,55,49,6
2,note_on,60,49,0
2,note_on,64,49,0
2,note_on,67,58,0
2,note_on,67,0,60
2,note_on,55,0,0
2,note_on,60,0,0
2,note_on,64,0,0
2,note_on,64,58,180
2,note_on,60,49,0
2,note_on,55,49,0
2,note_on,52,49,0
2,note_on,52,0,180
2,note_on,64,0,0
2,note_on,60,0,0
2,note_on,55,0,0
2,note_on,48,43,0
2,note_on,52,43,0
2,note_on,55,43,0
2,note_on,60,51,0
2,note_on,60,0,54
2,note_on,48,0,0
2,note_on,52,0,0
2,note_on,55,0,0
2,note_on,48,50,6
2,note_on,52,50,0
2,note_on,55,50,0
2,note_on,60,59,0
2,note_on,60,0,60
2,note_on,48,0,0
2,note_on,52,0,0
2,note_on,55,0,0
2,note_on,45,48,180
2,note_on,48,48,0
2,note_on,52,48,0
2,note_on,57,57,0
2,note_on,57,0,180
2,note_on,45,0,0
2,note_on,48,0,0
2,note_on,52,0,0
2,note_on,40,41,0
2,note_on,45,41,0
2,note_on,48,41,0
2,note_on,52,49,0
2,note_on,52,0,54
2,note_on,40,0,0
2,note_on,45,0,0
2,note_on,48,0,0
2,note_on,40,49,6
2,note_on,45,49,0
2,note_on,48,49,0
2,note_on,52,58,0
2,note_on,52,0,60
2,note_on,40,0,0
2,note_on,45,0,0
2,note_on,48,0,0
2,note_on,48,58,180
2,note_on,45,49,0
2,note_on,40,49,0
2,note_on,36,49,0
2,note_on,36,0,180
2,note_on,48,0,0
2,note_on,45,0,0
2,note_on,40,0,0
2,note_on,33,43,0
2,note_on,36,43,0
2,note_on,40,43,0
2,note_on,45,51,0
2,note_on,45,0,54
2,note_on,33,0,0
2,note_on,36,0,0
2,note_on,40,0,0
2,note_on,33,50,6
2,note_on,36,50,0
2,note_on,40,50,0
2,note_on,45,59,0
2,note_on,45,0,60
2,note_on,33,0,0
2,note_on,36,0,0
2,note_on,40,0,0
2,note_on,31,50,180
2,note_on,38,50,0
2,note_on,43,59,0
2,note_on,43,0,240
2,note_on,38,0,0
2,note_on,31,0,0
2,note_on,43,43,120
2,note_on,47,43,0
2,note_on,50,52,0
2,note_on,50,0,60
2,note_on,47,0,0
2,note_on,43,0,0
2,note_on,43,43,60
2,note_on,47,43,0
2,note_on,50,52,0
2,note_on,50,0,120
2,note_on,47,0,0
2,note_on,43,0,0
2,note_on,46,50,120
2,note_on,43,50,0
2,note_on,49,61,0
2,note_on,49,0,120
2,note_on,43,0,0
2,note_on,46,0,0
2,note_on,43,55,120
2,note_on,47,55,0
2,note_on,50,64,0
2,note_on,50,0,120
2,note_on,47,0,0
2,note_on,43,0,0
2,note_on,43,57,120
2,note_on,47,57,0
2,note_on,51,70,0
2,note_on,51,0,120
2,note_on,47,0,0
2,note_on,43,0,0
2,note_on,48,63,120
2,note_on,52,73,0
2,note_on,52,0,720
2,note_on,48,0,0
2,note_on,43,54,0
2,note_on,40,54,0
2,note_on,36,54,0
2,note_on,48,64,0
2,note_on,48,0,240
2,note_on,43,0,0
2,note_on,40,0,0
2,note_on,36,0,0
2,note_on,72,53,480
2,note_on,76,53,0
2,note_on,79,53,0
2,note_on,84,63,0
2,note_on,84,0,180
2,note_on,72,0,0
2,note_on,76,0,0
2,note_on,79,0,0
2,note_on,67,45,0
2,note_on,72,45,0
2,note_on,76,45,0
2,note_on,79,54,0
2,note_on,79,0,54
2,note_on,67,0,0
2,note_on,72,0,0
2,note_on,76,0,0
2,note_on,67,54,6
2,note_on,72,54,0
2,note_on,76,54,0
2,note_on,79,63,0
2,note_on,79,0,120
2,note_on,67,0,0
2,note_on,72,0,0
2,note_on,76,0,0
2,note_on,76,63,120
2,note_on,72,54,0
2,note_on,67,54,0
2,note_on,64,54,0
2,note_on,64,0,180
2,note_on,76,0,0
2,note_on,72,0,0
2,note_on,67,0,0
2,note_on,60,46,0
2,note_on,64,46,0
2,note_on,67,46,0
2,note_on,72,55,0
2,note_on,72,0,54
2,note_on,60,0,0
2,note_on,64,0,0
2,note_on,67,0,0
2,note_on,60,54,6
2,note_on,64,54,0
2,note_on,67,54,0
2,note_on,72,64,0
2,note_on,72,0,240
2,note_on,60,0,0
2,note_on,64,0,0
2,note_on,67,0,0
2,note_on,57,53,0
2,note_on,60,53,0
2,note_on,64,53,0
2,note_on,69,63,0
2,note_on,69,0,180
2,note_on,57,0,0
2,note_on,60,0,0
2,note_on,64,0,0
2,note_on,52,45,0
2,note_on,57,45,0
2,note_on,60,45,0
2,note_on,64,54,0
2,note_on,64,0,54
2,note_on,52,0,0
2,note_on,57,0,0
2,note_on,60,0,0
2,note_on,52,54,6
2,note_on,57,54,0
2,note_on,60,54,0
2,note_on,64,63,0
2,note_on,64,0,120
2,note_on,52,0,0
2,note_on,57,0,0
2,note_on,60,0,0
2,note_on,60,63,120
2,note_on,57,54,0
2,note_on,52,54,0
2,note_on,48,54,0
2,note_on,48,0,180
2,note_on,60,0,0
2,note_on,57,0,0
2,note_on,52,0,0
2,note_on,45,46,0
2,note_on,48,46,0
2,note_on,52,46,0
2,note_on,57,55,0
2,note_on,57,0,54
2,note_on,45,0,0
2,note_on,48,0,0
2,note_on,52,0,0
2,note_on,45,54,6
2,note_on,48,54,0
2,note_on,52,54,0
2,note_on,57,64,0
2,note_on,57,0,120
2,note_on,45,0,0
2,note_on,48,0,0
2,note_on,52,0,0
2,note_on,40,50,30
2,note_on,44,50,30
2,note_on,47,50,30
2,note_on,52,59,30
2,note_on,40,0,75
2,note_on,44,0,15
2,note_on,47,0,15
2,note_on,52,0,15
2,note_on,47,43,240
2,note_on,59,52,0
2,note_on,59,0,60
2,note_on,47,0,0
2,note_on,47,43,60
2,note_on,59,52,0
2,note_on,59,0,120
2,note_on,47,0,0
2,note_on,46,50,120
2,note_on,58,61,0
2,note_on,58,0,120
2,note_on,46,0,0
2,note_on,47,55,120
2,note_on,59,64,0
2,note_on,59,0,120
2,note_on,47,0,0
2,note_on,52,57,120
2,note_on,64,70,0
2,note_on,64,0,120
2,note_on,52,0,0
2,note_on,44,50,60
2,note_on,51,50,30
2,note_on,56,59,30
2,note_on,44,0,90
2,note_on,51,0,10
2,note_on,56,0,20
2,note_on,51,43,240
2,note_on,63,52,0
2,note_on,63,0,60
2,note_on,51,0,0
2,note_on,51,43,60
2,note_on,63,52,0
2,note_on,63,0,120
2,note_on,51,0,0
2,note_on,50,50,120
2,note_on,62,61,0
2,note_on,62,0,120
2,note_on,50,0,0
2,note_on,51,55,120
2,note_on,63,64,0
2,note_on,63,0,120
2,note_on,51,0,0
2,note_on,51,57,120
2,note_on,63,70,0
2,note_on,63,0,120
2,note_on,51,0,0
2,note_on,39,50,30
2,note_on,43,50,30
2,note_on,46,50,30
2,note_on,51,59,30
2,note_on,39,0,75
2,note_on,43,0,15
2,note_on,46,0,15
2,note_on,51,0,15
2,note_on,46,43,240
2,note_on,58,52,0
2,note_on,58,0,60
2,note_on,46,0,0
2,note_on,46,43,60
2,note_on,58,52,0
2,note_on,58,0,120
2,note_on,46,0,0
2,note_on,45,50,120
2,note_on,57,61,0
2,note_on,57,0,120
2,note_on,45,0,0
2,note_on,46,55,120
2,note_on,58,64,0
2,note_on,58,0,120
2,note_on,46,0,0
2,note_on,51,57,120
2,note_on,63,70,0
2,note_on,63,0,120
2,note_on,51,0,0
2,note_on,43,50,60
2,note_on,50,50,30
2,note_on,55,59,30
2,note_on,43,0,90
2,note_on,50,0,15
2,note_on,55,0,15
2,note_on,50,43,240
2,note_on,62,52,0
2,note_on,62,0,60
2,note_on,50,0,0
2,note_on,50,43,60
2,note_on,62,52,0
2,note_on,62,0,120
2,note_on,50,0,0
2,note_on,49,50,120
2,note_on,61,61,0
2,note_on,61,0,120
2,note_on,49,0,0
2,note_on,50,55,120
2,note_on,62,64,0
2,note_on,62,0,120
2,note_on,50,0,0
2,note_on,50,57,120
2,note_on,62,70,0
2,note_on,62,0,120
2,note_on,50,0,0
2,note_on,38,50,120
2,note_on,50,59,0
2,note_on,50,0,120
2,note_on,38,0,0
2,note_on,54,43,120
2,note_on,50,43,0
2,note_on,57,52,0
2,note_on,57,0,120
2,note_on,50,0,0
2,note_on,54,0,0
2,note_on,54,43,120
2,note_on,50,43,0
2,note_on,59,52,0
2,note_on,59,0,120
2,note_on,50,0,0
2,note_on,54,0,0
2,note_on,42,54,120
2,note_on,54,66,0
2,note_on,54,0,120
2,note_on,42,0,0
2,note_on,56,55,120
2,note_on,54,55,0
2,note_on,60,64,0
2,note_on,60,0,120
2,note_on,54,0,0
2,note_on,56,0,0
2,note_on,57,57,120
2,note_on,54,57,0
2,note_on,61,70,0
2,note_on,61,0,120
2,note_on,54,0,0
2,note_on,57,0,0
2,note_on,37,50,120
2,note_on,49,59,0
2,note_on,49,0,120
2,note_on,37,0,0
2,note_on,53,43,120
2,note_on,49,43,0
2,note_on,56,52,0
2,note_on,56,0,120
2,note_on,49,0,0
2,note_on,53,0,0
2,note_on,53,43,120
2,note_on,49,43,0
2,note_on,58,52,0
2,note_on,58,0,120
2,note_on,49,0,0
2,note_on,53,0,0
2,note_on,41,54,120
2,note_on,53,66,0
2,note_on,53,0,120
2,note_on,41,0,0
2,note_on,55,55,120
2,note_on,53,55,0
2,note_on,59,64,0
2,note_on,59,0,120
2,note_on,53,0,0
2,note_on,55,0,0
2,note_on,56,57,120
2,note_on,53,57,0
2,note_on,60,70,0
2,note_on,60,0,120
2,note_on,53,0,0
2,note_on,56,0,0
2,note_on,36,47,120
2,note_on,48,56,0
2,note_on,48,0,120
2,note_on,36,0,0
2,note_on,55,40,60
2,note_on,60,40,0
2,note_on,64,48,0
2,note_on,64,0,54
2,note_on,60,0,0
2,note_on,55,0,0
2,note_on,55,48,6
2,note_on,60,48,0
2,note_on,64,56,0
2,note_on,64,0,240
2,note_on,60,0,0
2,note_on,55,0,0
2,note_on,36,47,0
2,note_on,48,56,0
2,note_on,48,0,120
2,note_on,36,0,0
2,note_on,55,40,60
2,note_on,60,40,0
2,note_on,63,48,0
2,note_on,63,0,54
2,note_on,60,0,0
2,note_on,55,0,0
2,note_on,55,48,6
2,note_on,60,48,0
2,note_on,63,56,0
2,note_on,63,0,240
2,note_on,60,0,0
2,note_on,55,0,0
2,note_on,32,47,0
2,note_on,44,56,0
2,note_on,44,0,120
2,note_on,32,0,0
2,note_on,53,40,60
2,note_on,56,40,0
2,note_on,61,48,0
2,note_on,61,0,54
2,note_on,56,0,0
2,note_on,53,0,0
2,note_on,53,48,6
2,note_on,56,48,0
2,note_on,61,56,0
2,note_on,61,0,240
2,note_on,56,0,0
2,note_on,53,0,0
2,note_on,33,47,0
2,note_on,45,56,0
2,note_on,45,0,120
2,note_on,33,0,0
2,note_on,51,40,60
2,note_on,54,40,0
2,note_on,60,48,0
2,note_on,60,0,54
2,note_on,54,0,0
2,note_on,51,0,0
2,note_on,51,48,6
2,note_on,54,48,0
2,note_on,60,56,0
2,note_on,60,0,240
2,note_on,54,0,0
2,note_on,51,0,0
2,note_on,34,43,0
2,note_on,46,51,0
2,note_on,46,0,120
2,note_on,34,0,0
2,note_on,51,36,240
2,note_on,54,43,0
2,note_on,54,0,60
2,note_on,51,0,0
2,note_on,52,36,60
2,note_on,55,44,0
2,note_on,55,0,120
2,note_on,52,0,0
2,note_on,52,45,120
2,note_on,55,54,0
2,note_on,55,0,120
2,note_on,52,0,0
2,note_on,56,43,240
2,note_on,53,36,0
2,note_on,53,0,60
2,note_on,56,0,0
2,note_on,50,37,60
2,note_on,53,45,0
2,note_on,53,0,120
2,note_on,50,0,0
2,note_on,34,43,120
2,note_on,46,51,0
2,note_on,46,0,120
2,note_on,34,0,0
2,note_on,51,36,240
2,note_on,54,43,0
2,note_on,54,0,60
2,note_on,51,0,0
2,note_on,52,36,60
2,note_on,55,44,0
2,note_on,55,0,120
2,note_on,52,0,0
2,note_on,52,45,120
2,note_on,55,54,0
2,note_on,55,0,120
2,note_on,52,0,0
2,note_on,56,43,240
2,note_on,53,36,0
2,note_on,53,0,60
2,note_on,56,0,0
2,note_on,50,37,60
2,note_on,53,45,0
2,note_on,53,0,120
2,note_on,50,0,0
2,note_on,37,46,120
2,note_on,49,55,0
2,note_on,49,0,120
2,note_on,37,0,0
2,note_on,54,39,240
2,note_on,57,46,0
2,note_on,57,0,60
2,note_on,54,0,0
2,note_on,55,40,60
2,note_on,58,47,0
2,note_on,58,0,120
2,note_on,55,0,0
2,note_on,55,50,120
2,note_on,58,59,0
2,note_on,58,0,120
2,note_on,55,0,0
2,note_on,59,46,240
2,note_on,56,39,0
2,note_on,56,0,60
2,note_on,59,0,0
2,note_on,53,41,60
2,note_on,56,49,0
2,note_on,56,0,120
2,note_on,53,0,0
2,note_on,37,46,120
2,note_on,49,55,0
2,note_on,49,0,120
2,note_on,37,0,0
2,note_on,54,39,240
2,note_on,57,46,0
2,note_on,57,0,60
2,note_on,54,0,0
2,note_on,55,40,60
2,note_on,58,47,0
2,note_on,58,0,120
2,note_on,55,0,0
2,note_on,55,50,120
2,note_on,58,59,0
2,note_on,58,0,120
2,note_on,55,0,0
2,note_on,59,46,240
2,note_on,56,39,0
2,note_on,56,0,60
2,note_on,59,0,0
2,note_on,53,41,60
2,note_on,56,49,0
2,note_on,56,0,120
2,note_on,53,0,0
2,note_on,40,46,120
2,note_on,52,55,0
2,note_on,52,0,120
2,note_on,40,0,0
2,note_on,57,39,240
2,note_on,60,47,0
2,note_on,60,0,60
2,note_on,57,0,0
2,note_on,58,40,60
2,note_on,61,48,0
2,note_on,61,0,120
2,note_on,58,0,0
2,note_on,58,51,120
2,note_on,61,60,0
2,note_on,61,0,120
2,note_on,58,0,0
2,note_on,62,48,240
2,note_on,59,40,0
2,note_on,59,0,60
2,note_on,62,0,0
2,note_on,56,42,60
2,note_on,59,51,0
2,note_on,59,0,120
2,note_on,56,0,0
2,note_on,43,49,120
2,note_on,55,58,0
2,note_on,55,0,120
2,note_on,43,0,0
2,note_on,60,41,240
2,note_on,63,49,0
2,note_on,63,0,60
2,note_on,60,0,0
2,note_on,61,42,60
2,note_on,64,50,0
2,note_on,64,0,120
2,note_on,61,0,0
2,note_on,61,53,120
2,note_on,64,63,0
2,note_on,64,0,120
2,note_on,61,0,0
2,note_on,65,50,240
2,note_on,62,42,0
2,note_on,62,0,60
2,note_on,65,0,0
2,note_on,59,44,60
2,note_on,62,53,0
2,note_on,62,0,120
2,note_on,59,0,0
2,note_on,43,51,120
2,note_on,55,61,0
2,note_on,55,0,120
2,note_on,43,0,0
2,note_on,63,43,240
2,note_on,60,43,0
2,note_on,67,52,0
2,note_on,67,0,60
2,note_on,60,0,0
2,note_on,63,0,0
2,note_on,64,44,60
2,note_on,61,44,0
2,note_on,67,53,0
2,note_on,67,0,120
2,note_on,61,0,0
2,note_on,64,0,0
2,note_on,61,55,120
2,note_on,64,55,0
2,note_on,67,65,0
2,note_on,67,0,120
2,note_on,64,0,0
2,note_on,61,0,0
2,note_on,62,44,240
2,note_on,67,53,0
2,note_on,65,44,0
2,note_on,65,0,60
2,note_on,67,0,0
2,note_on,62,0,0
2,note_on,55,46,60
2,note_on,62,46,0
2,note_on,67,55,0
2,note_on,67,0,120
2,note_on,62,0,0
2,note_on,55,0,0
2,note_on,43,54,120
2,note_on,55,63,0
2,note_on,55,0,120
2,note_on,43,0,0
2,note_on,64,45,240
2,note_on,61,45,0
2,note_on,67,54,0
2,note_on,67,0,60
2,note_on,61,0,0
2,note_on,64,0,0
2,note_on,65,45,60
2,note_on,62,45,0
2,note_on,67,54,0
2,note_on,67,0,120
2,note_on,62,0,0
2,note_on,65,0,0
2,note_on,62,57,120
2,note_on,65,57,0
2,note_on,67,68,0
2,note_on,67,0,120
2,note_on,65,0,0
2,note_on,62,0,0
2,note_on,56,45,240
2,note_on,62,45,0
2,note_on,68,54,0
2,note_on,65,45,0
2,note_on,65,0,60
2,note_on,56,0,0
2,note_on,62,0,0
2,note_on,68,0,0
2,note_on,65,48,60
2,note_on,55,48,0
2,note_on,62,48,0
2,note_on,67,57,0
2,note_on,67,0,120
2,note_on,65,0,0
2,note_on,55,0,0
2,note_on,62,0,0
2,note_on,48,33,120
2,note_on,36,33,0
2,note_on,36,0,120
2,note_on,48,0,0
2,note_on,52,21,120
2,note_on,55,21,0
2,note_on,62,31,0
2,note_on,62,0,120
2,note_on,55,0,0
2,note_on,52,0,0
2,note_on,48,33,120
2,note_on,48,0,120
2,note_on,52,29,120
2,note_on,55,29,0
2,note_on,60,44,0
2,note_on,60,0,120
2,note_on,55,0,0
2,note_on,52,0,0
2,note_on,48,33,120
2,note_on,48,0,120
2,note_on,52,26,120
2,note_on,55,26,0
2,note_on,59,37,0
2,note_on,59,0,120
2,note_on,55,0,0
2,note_on,52,0,0
2,note_on,36,33,120
2,note_on,36,0,120
2,note_on,52,21,120
2,note_on,54,21,0
2,note_on,57,31,0
2,note_on,57,0,120
2,note_on,54,0,0
2,note_on,52,0,0
2,note_on,48,33,120
2,note_on,48,0,120
2,note_on,52,29,120
2,note_on,55,44,0
2,note_on,55,0,120
2,note_on,52,0,0
2,note_on,48,33,120
2,note_on,48,0,120
2,note_on,55,26,120
2,note_on,60,26,0
2,note_on,64,37,0
2,note_on,64,0,120
2,note_on,60,0,0
2,note_on,55,0,0
2,note_on,48,33,120
2,note_on,36,33,0
2,note_on,36,0,120
2,note_on,48,0,0
2,note_on,54,21,120
2,note_on,57,21,0
2,note_on,64,31,0
2,note_on,64,0,120
2,note_on,57,0,0
2,note_on,54,0,0
2,note_on,48,33,120
2,note_on,48,0,120
2,note_on,54,29,120
2,note_on,57,29,0
2,note_on,62,44,0
2,note_on,62,0,120
2,note_on,57,0,0
2,note_on,54,0,0
2,note_on,48,33,120
2,note_on,48,0,120
2,note_on,54,26,120
2,note_on,57,26,0
2,note_on,64,37,0
2,note_on,64,0,120
2,note_on,57,0,0
2,note_on,54,0,0
2,note_on,48,41,120
2,note_on,48,0,120
2,note_on,55,28,120
2,note_on,59,28,0
2,note_on,65,34,0
2,note_on,65,0,120
2,note_on,59,0,0
2,note_on,55,0,0
2,note_on,48,43,120
2,note_on,48,0,120
2,note_on,59,28,120
2,note_on,65,28,0
2,note_on,69,34,0
2,note_on,69,0,120
2,note_on,65,0,0
2,note_on,59,0,0
2,note_on,48,45,120
2,note_on,48,0,120
2,note_on,59,33,120
2,note_on,65,33,0
2,note_on,67,39,0
2,note_on,67,0,120
2,note_on,65,0,0
2,note_on,59,0,0
2,note_on,48,33,120
2,note_on,36,33,0
2,note_on,36,0,120
2,note_on,48,0,0
2,note_on,52,21,120
2,note_on,55,21,0
2,note_on,62,31,0
2,note_on,62,0,240
2,note_on,55,0,0
2,note_on,52,0,0
2,note_on,48,33,0
2,note_on,48,0,240
2,note_on,52,29,0
2,note_on,55,29,0
2,note_on,60,44,0
2,note_on,60,0,240
2,note_on,55,0,0
2,note_on,52,0,0
2,note_on,48,33,0
2,note_on,48,0,240
2,note_on,52,26,0
2,note_on,55,26,0
2,note_on,59,37,0
2,note_on,59,0,240
2,note_on,55,0,0
2,note_on,52,0,0
2,note_on,48,33,0
2,note_on,48,0,240
2,note_on,52,21,0
2,note_on,54,21,0
2,note_on,57,31,0
2,note_on,57,0,240
2,note_on,54,0,0
2,note_on,52,0,0
2,note_on,48,33,0
2,note_on,48,0,240
2,note_on,52,29,0
2,note_on,55,44,0
2,note_on,55,0,240
2,note_on,52,0,0
2,note_on,48,33,0
2,note_on,48,0,240
2,note_on,55,26,0
2,note_on,60,26,0
2,note_on,64,37,0
2,note_on,64,0,240
2,note_on,60,0,0
2,note_on,55,0,0
2,note_on,35,41,0
2,note_on,35,0,240
2,note_on,54,28,0
2,note_on,57,28,0
2,note_on,63,35,0
2,note_on,63,0,240
2,note_on,57,0,0
2,note_on,54,0,0
2,note_on,47,48,0
2,note_on,47,0,240
2,note_on,57,36,0
2,note_on,63,36,0
2,note_on,67,43,0
2,note_on,67,0,240
2,note_on,63,0,0
2,note_on,57,0,0
2,note_on,47,54,0
2,note_on,47,0,240
2,note_on,57,39,0
2,note_on,63,47,0
2,note_on,66,47,0
2,note_on,66,0,240
2,note_on,63,0,0
2,note_on,57,0,0
2,note_on,40,57,0
2,note_on,52,57,0
2,note_on,52,0,240
2,note_on,40,0,0
2,note_on,59,37,0
2,note_on,64,37,0
2,note_on,69,45,0
2,note_on,69,0,240
2,note_on,64,0,0
2,note_on,59,0,0
2,note_on,59,45,0
2,note_on,64,45,0
2,note_on,67,55,0
2,note_on,67,0,240
2,note_on,64,0,0
2,note_on,59,0,0
2,note_on,43,44,0
2,note_on,55,44,0
2,note_on,55,0,240
2,note_on,43,0,0
2,note_on,59,40,0
2,note_on,62,40,0
2,note_on,65,40,0
2,note_on,69,47,0
2,note_on,69,0,240
2,note_on,59,0,0
2,note_on,62,0,0
2,note_on,65,0,0
2,note_on,62,36,0
2,note_on,59,36,0
2,note_on,65,36,0
2,note_on,67,42,0
2,note_on,67,0,240
2,note_on,62,0,0
2,note_on,59,0,0
2,note_on,65,0,0
2,note_on,48,49,0
2,note_on,36,49,0
2,note_on,64,32,180
2,note_on,67,32,0
2,note_on,76,47,0
2,note_on,36,0,180
2,note_on,48,0,0
2,note_on,67,0,180
2,note_on,64,0,0
2,note_on,76,0,0
2,note_on,62,45,0
2,note_on,64,45,0
2,note_on,67,45,0
2,note_on,74,65,0
2,note_on,74,0,360
2,note_on,62,0,0
2,note_on,64,0,0
2,note_on,67,0,0
2,note_on,60,39,0
2,note_on,64,39,0
2,note_on,67,39,0
2,note_on,72,57,0
2,note_on,72,0,360
2,note_on,60,0,0
2,note_on,64,0,0
2,note_on,59,39,0
2,note_on,64,39,0
2,note_on,67,39,0
2,note_on,71,57,0
2,note_on,67,0,9
2,note_on,67,0,171
2,note_on,59,0,0
2,note_on,64,0,0
2,note_on,71,0,0
2,note_on,57,35,180
2,note_on,60,35,0
2,note_on,64,35,0
2,note_on,69,47,0
2,note_on,69,0,360
2,note_on,57,0,0
2,note_on,60,0,0
2,note_on,64,0,0
2,note_on,54,41,0
2,note_on,60,41,0
2,note_on,64,41,0
2,note_on,66,56,0
2,note_on,66,0,360
2,note_on,54,0,0
2,note_on,60,0,0
2,note_on,64,0,0
2,note_on,55,41,0
2,note_on,60,41,0
2,note_on,64,41,0
2,note_on,67,56,0
2,note_on,67,0,180
2,note_on,55,0,0
2,note_on,60,0,0
2,note_on,64,0,0
2,note_on,36,49,180
2,note_on,48,49,180
2,note_on,69,32,180
2,note_on,64,32,0
2,note_on,66,32,0
2,note_on,76,47,0
2,note_on,48,0,180
2,note_on,36,0,0
2,note_on,66,0,180
2,note_on,64,0,0
2,note_on,76,0,0
2,note_on,69,0,0
2,note_on,69,45,0
2,note_on,61,45,0
2,note_on,66,45,0
2,note_on,73,65,0
2,note_on,73,0,360
2,note_on,69,0,0
2,note_on,61,0,0
2,note_on,66,0,0
2,note_on,69,39,0
2,note_on,62,39,0
2,note_on,66,39,0
2,note_on,74,57,0
2,note_on,74,0,360
2,note_on,69,0,0
2,note_on,62,0,0
2,note_on,69,39,0
2,note_on,64,39,0
2,note_on,66,39,0
2,note_on,76,57,0
2,note_on,66,0,9
2,note_on,66,0,171
2,note_on,69,0,0
2,note_on,64,0,0
2,note_on,76,0,0
2,note_on,65,35,180
2,note_on,68,35,0
2,note_on,71,35,0
2,note_on,77,47,0
2,note_on,77,0,360
2,note_on,65,0,0
2,note_on,68,0,0
2,note_on,71,0,0
2,note_on,62,41,0
2,note_on,65,41,0
2,note_on,68,41,0
2,note_on,74,56,0
2,note_on,74,0,360
2,note_on,62,0,0
2,note_on,65,0,0
2,note_on,68,0,0
2,note_on,59,36,0
2,note_on,62,36,0
2,note_on,65,36,0
2,note_on,71,50,0
2,note_on,71,0,180
2,note_on,59,0,0
2,note_on,62,0,0
2,note_on,65,0,0
2,note_on,36,36,180
2,note_on,48,36,180
2,note_on,52,24,180
2,note_on,55,24,0
2,note_on,64,35,0
2,note_on,48,0,180
2,note_on,36,0,0
2,note_on,55,0,180
2,note_on,52,0,0
2,note_on,64,0,0
2,note_on,52,33,0
2,note_on,55,33,0
2,note_on,62,48,0
2,note_on,62,0,360
2,note_on,55,0,0
2,note_on,52,0,0
2,note_on,52,28,0
2,note_on,55,28,0
2,note_on,60,42,0
2,note_on,60,0,360
2,note_on,52,0,0
2,note_on,52,28,0
2,note_on,55,28,0
2,note_on,59,42,0
2,note_on,55,0,9
2,note_on,52,0,171
2,note_on,55,0,0
2,note_on,59,0,0
2,note_on,48,26,180
2,note_on,52,26,0
2,note_on,57,35,0
2,note_on,57,0,360
2,note_on,52,0,0
2,note_on,48,0,0
2,note_on,48,30,0
2,note_on,52,30,0
2,note_on,54,42,0
2,note_on,54,0,360
2,note_on,52,0,0
2,note_on,48,0,0
2,note_on,48,30,0
2,note_on,52,30,0
2,note_on,55,42,0
2,note_on,55,0,180
2,note_on,52,0,0
2,note_on,48,0,0
2,note_on,36,36,180
2,note_on,48,39,180
2,note_on,53,26,180
2,note_on,56,26,0
2,note_on,65,38,0
2,note_on,48,0,180
2,note_on,36,0,0
2,note_on,56,0,180
2,note_on,53,0,0
2,note_on,65,0,0
2,note_on,53,36,0
2,note_on,56,36,0
2,note_on,63,53,0
2,note_on,63,0,360
2,note_on,56,0,0
2,note_on,53,0,0
2,note_on,53,31,0
2,note_on,56,31,0
2,note_on,61,45,0
2,note_on,61,0,360
2,note_on,53,0,0
2,note_on,53,31,0
2,note_on,56,31,0
2,note_on,60,45,0
2,note_on,56,0,9
2,note_on,53,0,171
2,note_on,56,0,0
2,note_on,60,0,0
2,note_on,48,27,180
2,note_on,53,27,0
2,note_on,58,38,0
2,note_on,58,0,360
2,note_on,53,0,0
2,note_on,48,0,0
2,note_on,48,33,0
2,note_on,53,33,0
2,note_on,55,45,0
2,note_on,55,0,360
2,note_on,53,0,0
2,note_on,48,0,0
2,note_on,48,33,0
2,note_on,53,33,0
2,note_on,56,45,0
2,note_on,56,0,180
2,note_on,53,0,0
2,note_on,48,0,0
2,note_on,36,36,180
2,note_on,48,47,180
2,note_on,54,44,180
2,note_on,57,44,0
2,note_on,66,52,0
2,note_on,48,0,180
2,note_on,36,0,0
2,note_on,57,0,180
2,note_on,54,0,0
2,note_on,66,0,0
2,note_on,54,41,0
2,note_on,57,41,0
2,note_on,64,48,0
2,note_on,64,0,360
2,note_on,57,0,0
2,note_on,54,0,0
2,note_on,54,37,0
2,note_on,57,37,0
2,note_on,62,45,0
2,note_on,62,0,360
2,note_on,54,0,0
2,note_on,36,40,0
2,note_on,57,0,9
2,note_on,48,48,171
2,note_on,55,47,180
2,note_on,58,47,0
2,note_on,67,56,0
2,note_on,48,0,180
2,note_on,36,0,0
2,note_on,58,0,180
2,note_on,55,0,0
2,note_on,67,0,0
2,note_on,55,43,0
2,note_on,58,43,0
2,note_on,65,51,0
2,note_on,65,0,360
2,note_on,58,0,0
2,note_on,55,0,0
2,note_on,55,39,0
2,note_on,58,39,0
2,note_on,64,46,0
2,note_on,64,0,360
2,note_on,55,0,0
2,note_on,36,43,0
2,note_on,58,0,9
2,note_on,48,54,171
2,note_on,59,49,180
2,note_on,62,49,0
2,note_on,68,59,0
2,note_on,48,0,180
2,note_on,36,0,0
2,note_on,62,0,180
2,note_on,59,0,0
2,note_on,68,0,0
2,note_on,59,46,0
2,note_on,62,46,0
2,note_on,67,54,0
2,note_on,67,0,360
2,note_on,62,0,0
2,note_on,59,0,0
2,note_on,56,42,0
2,note_on,59,42,0
2,note_on,65,50,0
2,note_on,65,0,360
2,note_on,56,0,0
2,note_on,53,39,0
2,note_on,56,39,0
2,note_on,62,46,0
2,note_on,59,0,9
2,note_on,53,0,171
2,note_on,56,0,0
2,note_on,62,0,0
2,note_on,50,51,180
2,note_on,53,51,0
2,note_on,59,61,0
2,note_on,59,0,360
2,note_on,53,0,0
2,note_on,50,0,0
2,note_on,47,47,0
2,note_on,50,47,0
2,note_on,56,57,0
2,note_on,56,0,360
2,note_on,50,0,0
2,note_on,47,0,0
2,note_on,47,45,0
2,note_on,50,45,0
2,note_on,55,53,0
2,note_on,55,0,360
2,note_on,47,0,0
2,note_on,44,42,0
2,note_on,47,42,0
2,note_on,53,49,0
2,note_on,50,0,9
2,note_on,44,0,171
2,note_on,47,0,0
2,note_on,53,0,0
2,note_on,41,52,180
2,note_on,44,52,0
2,note_on,50,62,0
2,note_on,50,0,360
2,note_on,44,0,0
2,note_on,41,0,0
2,note_on,38,49,0
2,note_on,41,49,0
2,note_on,47,59,0
2,note_on,47,0,360
2,note_on,41,0,0
2,note_on,38,0,0
2,note_on,35,48,0
2,note_on,38,48,0
2,note_on,44,57,0
2,note_on,44,0,360
2,note_on,35,0,0
2,note_on,35,46,0
2,note_on,38,46,0
2,note_on,43,54,0
2,note_on,38,0,9
2,note_on,35,0,171
2,note_on,38,0,0
2,note_on,43,0,0
2,note_on,35,60,180
2,note_on,38,60,0
2,note_on,41,60,0
2,note_on,41,0,360
2,note_on,38,0,0
2,note_on,35,0,0
2,note_on,38,57,0
2,note_on,32,57,0
2,note_on,35,57,0
2,note_on,44,69,0
2,note_on,44,0,360
2,note_on,38,0,0
2,note_on,32,0,0
2,note_on,35,0,0
2,note_on,38,56,0
2,note_on,31,56,0
2,note_on,35,56,0
2,note_on,43,68,0
2,note_on,43,0,360
2,note_on,38,0,0
2,note_on,31,0,0
2,note_on,38,55,0
2,note_on,29,55,0
2,note_on,35,55,0
2,note_on,41,66,0
2,note_on,35,0,9
2,note_on,35,0,171
2,note_on,38,0,0
2,note_on,29,0,0
2,note_on,41,0,0
2,note_on,28,55,0
2,note_on,31,55,0
2,note_on,24,55,0
2,note_on,36,65,0
2,note_on,36,0,720
2,note_on,28,0,0
2,note_on,31,0,0
2,note_on,24,0,0
2,note_on,60,67,0
2,note_on,52,56,0
2,note_on,55,56,0
2,note_on,55,0,120
2,note_on,52,0,0
2,note_on,60,0,0
2,note_on,48,49,240
2,note_on,55,58,0
2,note_on,52,49,0
2,note_on,52,0,60
2,note_on,55,0,0
2,note_on,48,0,0
2,note_on,48,55,60
2,note_on,52,55,0
2,note_on,55,66,0
2,note_on,55,0,120
2,note_on,52,0,0
2,note_on,48,0,0
2,note_on,34,55,120
2,note_on,37,55,0
2,note_on,31,55,0
2,note_on,43,65,0
2,note_on,43,0,720
2,note_on,34,0,0
2,note_on,37,0,0
2,note_on,31,0,0
2,note_on,61,67,0
2,note_on,53,56,0
2,note_on,58,56,0
2,note_on,58,0,120
2,note_on,53,0,0
2,note_on,61,0,0
2,note_on,49,49,240
2,note_on,58,58,0
2,note_on,53,49,0
2,note_on,53,0,60
2,note_on,58,0,0
2,note_on,49,0,0
2,note_on,49,55,60
2,note_on,53,55,0
2,note_on,58,66,0
2,note_on,58,0,120
2,note_on,53,0,0
2,note_on,49,0,0
2,note_on,28,55,120
2,note_on,31,55,0
2,note_on,24,55,0
2,note_on,36,65,0
2,note_on,36,0,720
2,note_on,28,0,0
2,note_on,31,0,0
2,note_on,24,0,0
2,note_on,60,67,0
2,note_on,52,56,0
2,note_on,55,56,0
2,note_on,55,0,120
2,note_on,52,0,0
2,note_on,60,0,0
2,note_on,48,49,240
2,note_on,55,58,0
2,note_on,52,49,0
2,note_on,52,0,60
2,note_on,55,0,0
2,note_on,48,0,0
2,note_on,48,55,60
2,note_on,52,55,0
2,note_on,55,66,0
2,note_on,55,0,120
2,note_on,52,0,0
2,note_on,48,0,0
2,note_on,32,55,120
2,note_on,35,55,0
2,note_on,38,55,0
2,note_on,29,55,0
2,note_on,41,65,0
2,note_on,41,0,720
2,note_on,38,0,0
2,note_on,32,0,0
2,note_on,35,0,0
2,note_on,29,0,0
2,note_on,68,67,0
2,note_on,59,56,0
2,note_on,62,56,0
2,note_on,62,0,120
2,note_on,59,0,0
2,note_on,68,0,0
2,note_on,56,49,240
2,note_on,65,58,0
2,note_on,59,49,0
2,note_on,59,0,60
2,note_on,65,0,0
2,note_on,56,0,0
2,note_on,56,55,60
2,note_on,59,55,0
2,note_on,65,66,0
2,note_on,65,0,120
2,note_on,59,0,0
2,note_on,56,0,0
2,note_on,40,55,120
2,note_on,43,55,0
2,note_on,36,55,0
2,note_on,48,65,0
2,note_on,48,0,480
2,note_on,40,0,0
2,note_on,43,0,0
2,note_on,36,0,0
2,note_on,55,55,0
2,note_on,60,66,0
2,note_on,60,0,120
2,note_on,55,0,0
2,note_on,31,55,120
2,note_on,34,55,0
2,note_on,37,55,0
2,note_on,43,65,0
2,note_on,43,0,480
2,note_on,31,0,0
2,note_on,34,0,0
2,note_on,37,0,0
2,note_on,53,55,0
2,note_on,58,55,0
2,note_on,61,66,0
2,note_on,61,0,120
2,note_on,58,0,0
2,note_on,53,0,0
2,note_on,40,55,120
2,note_on,43,55,0
2,note_on,36,55,0
2,note_on,48,65,0
2,note_on,48,0,480
2,note_on,40,0,0
2,note_on,43,0,0
2,note_on,36,0,0
2,note_on,55,55,0
2,note_on,60,66,0
2,note_on,60,0,120
2,note_on,55,0,0
2,note_on,35,55,120
2,note_on,29,55,0
2,note_on,32,55,0
2,note_on,38,55,0
2,note_on,41,65,0
2,note_on,41,0,480
2,note_on,32,0,0
2,note_on,35,0,0
2,note_on,29,0,0
2,note_on,38,0,0
2,note_on,56,55,0
2,note_on,59,55,0
2,note_on,62,55,0
2,note_on,65,66,0
2,note_on,65,0,120
2,note_on,56,0,0
2,note_on,59,0,0
2,note_on,62,0,0
2,note_on,36,51,120
2,note_on,48,61,0
2,note_on,48,0,120
2,note_on,36,0,0
2,note_on,31,45,120
2,note_on,43,53,0
2,note_on,43,0,120
2,note_on,31,0,0
2,note_on,36,51,120
2,note_on,48,61,0
2,note_on,48,0,120
2,note_on,36,0,0
2,note_on,31,44,120
2,note_on,43,52,0
2,note_on,43,0,120
2,note_on,31,0,0
2,note_on,36,51,120
2,note_on,48,61,0
2,note_on,48,0,120
2,note_on,36,0,0
2,note_on,29,43,120
2,note_on,41,51,0
2,note_on,41,0,120
2,note_on,29,0,0
2,note_on,36,51,120
2,note_on,48,61,0
2,note_on,48,0,120
2,note_on,36,0,0
2,note_on,31,45,120
2,note_on,43,53,0
2,note_on,43,0,120
2,note_on,31,0,0
2,note_on,36,51,120
2,note_on,48,61,0
2,note_on,48,0,120
2,note_on,36,0,0
2,note_on,31,44,120
2,note_on,43,52,0
2,note_on,43,0,120
2,note_on,31,0,0
2,note_on,36,51,120
2,note_on,48,61,0
2,note_on,48,0,120
2,note_on,36,0,0
2,note_on,29,43,120
2,note_on,41,51,0
2,note_on,41,0,120
2,note_on,29,0,0
2,note_on,36,51,120
2,note_on,48,61,0
2,note_on,48,0,120
2,note_on,36,0,0
2,note_on,31,45,120
2,note_on,43,54,0
2,note_on,43,0,120
2,note_on,31,0,0
2,note_on,36,54,120
2,note_on,48,63,0
2,note_on,48,0,120
2,note_on,36,0,0
2,note_on,31,47,120
2,note_on,43,56,0
2,note_on,43,0,120
2,note_on,31,0,0
2,note_on,36,56,120
2,note_on,48,67,0
2,note_on,48,0,120
2,note_on,36,0,0
2,note_on,29,48,120
2,note_on,41,58,0
2,note_on,41,0,120
2,note_on,29,0,0
2,note_on,36,60,120
2,note_on,48,71,0
2,note_on,48,0,120
2,note_on,36,0,0
2,note_on,31,53,120
2,note_on,43,63,0
2,note_on,43,0,120
2,note_on,31,0,0
2,note_on,36,63,120
2,note_on,48,74,0
2,note_on,48,0,120
2,note_on,36,0,0
2,note_on,31,54,120
2,note_on,43,65,0
2,note_on,43,0,120
2,note_on,31,0,0
2,note_on,36,65,120
2,note_on,48,77,0
2,note_on,48,0,120
2,note_on,36,0,0
2,note_on,35,55,120
2,note_on,38,66,0
2,note_on,29,55,0
2,note_on,41,80,0
2,note_on,41,0,120
2,note_on,35,0,0
2,note_on,38,0,0
2,note_on,29,0,0
2,note_on,29,55,600
2,note_on,35,55,0
2,note_on,38,66,0
2,note_on,41,80,0
2,note_on,41,0,120
2,note_on,29,0,0
2,note_on,35,0,0
2,note_on,38,0,0
2,note_on,29,55,600
2,note_on,35,55,0
2,note_on,38,66,0
2,note_on,41,80,0
2,note_on,41,0,120
2,note_on,29,0,0
2,note_on,35,0,0
2,note_on,38,0,0
2,note_on,29,61,120
2,note_on,35,61,0
2,note_on,38,72,0
2,note_on,41,87,0
2,note_on,41,0,120
2,note_on,29,0,0
2,note_on,35,0,0
2,note_on,38,0,0
2,note_on,29,55,120
2,note_on,35,55,0
2,note_on,38,66,0
2,note_on,41,80,0
2,note_on,41,0,120
2,note_on,29,0,0
2,note_on,35,0,0
2,note_on,38,0,0
2,note_on,32,81,600
2,note_on,32,0,90
2,note_on,31,83,30
2,note_on,31,0,90
2,note_on,30,85,30
2,note_on,30,0,90
2,note_on,29,87,30
2,note_on,29,0,90
2,note_on,24,63,30
2,note_on,28,63,0
2,note_on,31,75,0
2,note_on,36,90,0
2,note_on,36,0,1440
2,note_on,24,0,0
2,note_on,28,0,0
2,note_on,31,0,0
