Track,Message Type,Note,Velocity,Time
1,note_on,64,44,870
1,note_on,69,48,30
1,note_on,72,53,30
1,note_on,81,61,30
1,note_on,81,0,120
1,note_on,64,0,0
1,note_on,69,0,0
1,note_on,72,0,0
1,note_on,69,48,300
1,note_on,69,0,55
1,note_on,69,57,5
1,note_on,69,0,120
1,note_on,72,54,0
1,note_on,72,0,120
1,note_on,71,57,0
1,note_on,71,0,120
1,note_on,69,54,0
1,note_on,69,0,120
1,note_on,71,45,150
1,note_on,76,49,30
1,note_on,80,53,30
1,note_on,88,59,30
1,note_on,88,0,120
1,note_on,71,0,0
1,note_on,76,0,0
1,note_on,80,0,0
1,note_on,64,48,300
1,note_on,64,0,55
1,note_on,64,57,5
1,note_on,64,0,120
1,note_on,68,54,0
1,note_on,68,0,120
1,note_on,66,57,0
1,note_on,66,0,120
1,note_on,64,54,0
1,note_on,64,0,120
1,note_on,64,44,150
1,note_on,69,47,30
1,note_on,72,51,30
1,note_on,81,59,30
1,note_on,81,0,120
1,note_on,64,0,0
1,note_on,69,0,0
1,note_on,72,0,0
1,note_on,69,48,300
1,note_on,69,0,55
1,note_on,69,57,5
1,note_on,69,0,120
1,note_on,72,54,0
1,note_on,72,0,120
1,note_on,71,57,0
1,note_on,71,0,120
1,note_on,69,54,0
1,note_on,69,0,120
1,note_on,71,48,150
1,note_on,80,51,30
1,note_on,88,54,30
1,note_on,76,63,30
1,note_on,88,0,120
1,note_on,71,0,0
1,note_on,80,0,0
1,note_on,76,0,360
1,note_on,64,62,0
1,note_on,64,0,120
1,note_on,64,36,510
1,note_on,69,40,30
1,note_on,72,42,30
1,note_on,81,45,30
1,note_on,81,0,120
1,note_on,64,0,0
1,note_on,69,0,0
1,note_on,72,0,0
1,note_on,69,36,300
1,note_on,69,0,55
1,note_on,69,43,5
1,note_on,69,0,120
1,note_on,72,40,0
1,note_on,72,0,120
1,note_on,71,43,0
1,note_on,71,0,120
1,note_on,69,40,0
1,note_on,69,0,120
1,note_on,71,36,150
1,note_on,76,39,30
1,note_on,80,41,30
1,note_on,88,44,30
1,note_on,88,0,120
1,note_on,71,0,0
1,note_on,76,0,0
1,note_on,80,0,0
1,note_on,64,36,300
1,note_on,64,0,55
1,note_on,64,43,5
1,note_on,64,0,120
1,note_on,68,40,0
1,note_on,68,0,120
1,note_on,66,43,0
1,note_on,66,0,120
1,note_on,64,40,0
1,note_on,64,0,120
1,note_on,64,36,150
1,note_on,69,39,30
1,note_on,72,41,30
1,note_on,81,44,30
1,note_on,81,0,120
1,note_on,64,0,0
1,note_on,69,0,0
1,note_on,72,0,0
1,note_on,69,36,300
1,note_on,69,0,55
1,note_on,69,43,5
1,note_on,69,0,120
1,note_on,72,40,0
1,note_on,72,0,120
1,note_on,71,43,0
1,note_on,71,0,120
1,note_on,69,40,0
1,note_on,69,0,120
1,note_on,71,36,150
1,note_on,80,41,30
1,note_on,88,43,30
1,note_on,76,53,30
1,note_on,88,0,120
1,note_on,71,0,0
1,note_on,80,0,0
1,note_on,76,0,360
1,note_on,64,53,0
1,note_on,64,0,120
1,note_on,76,46,510
1,note_on,81,50,30
1,note_on,85,53,30
1,note_on,93,61,30
1,note_on,93,0,120
1,note_on,76,0,0
1,note_on,81,0,0
1,note_on,85,0,0
1,note_on,81,48,300
1,note_on,81,0,55
1,note_on,81,57,5
1,note_on,81,0,120
1,note_on,82,54,0
1,note_on,82,0,120
1,note_on,81,57,0
1,note_on,81,0,120
1,note_on,79,54,0
1,note_on,79,0,120
1,note_on,69,45,150
1,note_on,77,49,30
1,note_on,81,52,30
1,note_on,89,61,30
1,note_on,89,0,120
1,note_on,69,0,0
1,note_on,77,0,0
1,note_on,81,0,0
1,note_on,74,48,300
1,note_on,74,0,55
1,note_on,74,57,5
1,note_on,74,0,120
1,note_on,77,54,0
1,note_on,77,0,120
1,note_on,76,57,0
1,note_on,76,0,120
1,note_on,74,54,0
1,note_on,74,0,120
1,note_on,74,45,150
1,note_on,79,48,30
1,note_on,83,52,30
1,note_on,91,61,30
1,note_on,91,0,120
1,note_on,74,0,0
1,note_on,79,0,0
1,note_on,83,0,0
1,note_on,79,48,300
1,note_on,79,0,55
1,note_on,79,57,5
1,note_on,79,0,120
1,note_on,81,54,0
1,note_on,81,0,120
1,note_on,79,57,0
1,note_on,79,0,120
1,note_on,77,54,0
1,note_on,77,0,120
1,note_on,67,45,150
1,note_on,76,48,30
1,note_on,79,52,30
1,note_on,88,61,30
1,note_on,88,0,120
1,note_on,67,0,0
1,note_on,76,0,0
1,note_on,79,0,0
1,note_on,72,48,300
1,note_on,72,0,55
1,note_on,72,51,5
1,note_on,72,0,120
1,note_on,76,48,0
1,note_on,76,0,120
1,note_on,74,50,0
1,note_on,74,0,120
1,note_on,72,47,0
1,note_on,72,0,120
1,note_on,71,39,150
1,note_on,77,42,30
1,note_on,83,45,30
1,note_on,89,53,30
1,note_on,89,0,120
1,note_on,71,0,0
1,note_on,77,0,0
1,note_on,83,0,0
1,note_on,71,40,300
1,note_on,71,0,55
1,note_on,71,47,5
1,note_on,71,0,120
1,note_on,74,45,0
1,note_on,74,0,120
1,note_on,72,47,0
1,note_on,72,0,120
1,note_on,71,44,0
1,note_on,71,0,120
1,note_on,69,36,150
1,note_on,76,39,30
1,note_on,81,42,30
1,note_on,88,48,30
1,note_on,88,0,120
1,note_on,69,0,0
1,note_on,76,0,0
1,note_on,81,0,0
1,note_on,69,40,300
1,note_on,69,0,55
1,note_on,69,48,5
1,note_on,69,0,120
1,note_on,72,45,0
1,note_on,72,0,120
1,note_on,71,48,0
1,note_on,71,0,120
1,note_on,69,45,0
1,note_on,69,0,120
1,note_on,65,52,0
1,note_on,75,40,360
1,note_on,75,0,120
1,note_on,65,0,0
1,note_on,64,46,0
1,note_on,76,40,120
1,note_on,76,0,120
1,note_on,74,46,0
1,note_on,74,0,120
1,note_on,71,40,0
1,note_on,71,0,120
1,note_on,64,0,0
1,note_on,64,45,0
1,note_on,69,45,0
1,note_on,69,0,480
1,note_on,64,0,0
1,note_on,81,40,0
1,note_on,72,40,0
1,note_on,72,0,120
1,note_on,81,0,0
1,note_on,76,36,510
1,note_on,81,40,30
1,note_on,85,42,30
1,note_on,93,45,30
1,note_on,93,0,120
1,note_on,76,0,0
1,note_on,81,0,0
1,note_on,85,0,0
1,note_on,81,36,300
1,note_on,81,0,55
1,note_on,81,43,5
1,note_on,81,0,120
1,note_on,82,40,0
1,note_on,82,0,120
1,note_on,81,43,0
1,note_on,81,0,120
1,note_on,79,40,0
1,note_on,79,0,120
1,note_on,69,36,150
1,note_on,77,40,30
1,note_on,81,42,30
1,note_on,89,45,30
1,note_on,89,0,120
1,note_on,69,0,0
1,note_on,77,0,0
1,note_on,81,0,0
1,note_on,74,36,300
1,note_on,74,0,55
1,note_on,74,43,5
1,note_on,74,0,120
1,note_on,77,40,0
1,note_on,77,0,120
1,note_on,76,43,0
1,note_on,76,0,120
1,note_on,74,40,0
1,note_on,74,0,120
1,note_on,74,36,150
1,note_on,79,40,30
1,note_on,83,42,30
1,note_on,91,45,30
1,note_on,91,0,120
1,note_on,74,0,0
1,note_on,79,0,0
1,note_on,83,0,0
1,note_on,79,36,300
1,note_on,79,0,55
1,note_on,79,43,5
1,note_on,79,0,120
1,note_on,81,40,0
1,note_on,81,0,120
1,note_on,79,43,0
1,note_on,79,0,120
1,note_on,77,40,0
1,note_on,77,0,120
1,note_on,67,36,150
1,note_on,76,40,30
1,note_on,79,42,30
1,note_on,88,45,30
1,note_on,88,0,120
1,note_on,67,0,0
1,note_on,76,0,0
1,note_on,79,0,0
1,note_on,72,36,300
1,note_on,72,0,55
1,note_on,72,46,5
1,note_on,72,0,120
1,note_on,76,44,0
1,note_on,76,0,120
1,note_on,74,46,0
1,note_on,74,0,120
1,note_on,72,44,0
1,note_on,72,0,120
1,note_on,70,40,180
1,note_on,77,44,30
1,note_on,89,50,30
1,note_on,89,0,120
1,note_on,77,0,0
1,note_on,70,0,0
1,note_on,70,39,300
1,note_on,70,0,55
1,note_on,70,46,5
1,note_on,70,0,120
1,note_on,74,44,0
1,note_on,74,0,120
1,note_on,72,46,0
1,note_on,72,0,120
1,note_on,70,44,0
1,note_on,70,0,120
1,note_on,69,40,180
1,note_on,76,44,30
1,note_on,88,50,30
1,note_on,88,0,120
1,note_on,76,0,0
1,note_on,69,0,0
1,note_on,69,37,300
1,note_on,69,0,55
1,note_on,69,45,5
1,note_on,69,0,120
1,note_on,72,42,0
1,note_on,72,0,120
1,note_on,71,45,0
1,note_on,71,0,120
1,note_on,69,42,0
1,note_on,69,0,120
1,note_on,65,45,0
1,note_on,75,37,360
1,note_on,75,0,120
1,note_on,65,0,0
1,note_on,64,44,0
1,note_on,76,37,120
1,note_on,76,0,120
1,note_on,74,44,0
1,note_on,74,0,120
1,note_on,71,37,0
1,note_on,71,0,120
1,note_on,64,0,0
1,note_on,64,43,0
1,note_on,69,43,0
1,note_on,69,0,480
1,note_on,64,0,0
1,note_on,81,37,0
1,note_on,72,37,0
1,note_on,72,0,120
1,note_on,81,0,0
1,note_on,72,41,280
1,note_on,72,0,40
1,note_on,81,45,0
1,note_on,81,0,40
1,note_on,88,58,0
1,note_on,88,0,90
1,note_on,84,49,70
1,note_on,84,0,120
1,note_on,81,49,40
1,note_on,81,0,120
1,note_on,76,52,40
1,note_on,76,0,120
1,note_on,72,48,40
1,note_on,72,0,120
1,note_on,69,48,40
1,note_on,69,0,80
1,note_on,68,41,0
1,note_on,68,0,40
1,note_on,76,45,0
1,note_on,76,0,40
1,note_on,83,61,0
1,note_on,83,0,90
1,note_on,80,54,70
1,note_on,80,0,120
1,note_on,76,53,40
1,note_on,76,0,120
1,note_on,71,52,40
1,note_on,71,0,120
1,note_on,68,45,40
1,note_on,68,0,120
1,note_on,64,45,40
1,note_on,64,0,80
1,note_on,72,41,0
1,note_on,72,0,40
1,note_on,81,45,0
1,note_on,81,0,40
1,note_on,88,58,0
1,note_on,88,0,90
1,note_on,84,49,70
1,note_on,84,0,120
1,note_on,81,49,40
1,note_on,81,0,120
1,note_on,76,52,40
1,note_on,76,0,120
1,note_on,72,48,40
1,note_on,72,0,120
1,note_on,69,48,40
1,note_on,69,0,120
1,note_on,68,49,200
1,note_on,76,49,0
1,note_on,76,0,120
1,note_on,68,0,0
1,note_on,71,46,40
1,note_on,80,46,0
1,note_on,80,0,120
1,note_on,71,0,0
1,note_on,88,44,40
1,note_on,76,44,0
1,note_on,76,0,120
1,note_on,88,0,0
1,note_on,72,32,280
1,note_on,72,0,40
1,note_on,81,36,0
1,note_on,81,0,40
1,note_on,88,46,0
1,note_on,88,0,90
1,note_on,84,39,70
1,note_on,84,0,120
1,note_on,81,39,40
1,note_on,81,0,120
1,note_on,76,41,40
1,note_on,76,0,120
1,note_on,72,38,40
1,note_on,72,0,120
1,note_on,69,38,40
1,note_on,69,0,80
1,note_on,68,32,0
1,note_on,68,0,40
1,note_on,76,36,0
1,note_on,76,0,40
1,note_on,83,48,0
1,note_on,83,0,90
1,note_on,80,43,70
1,note_on,80,0,120
1,note_on,76,42,40
1,note_on,76,0,120
1,note_on,71,41,40
1,note_on,71,0,120
1,note_on,68,36,40
1,note_on,68,0,120
1,note_on,64,36,40
1,note_on,64,0,80
1,note_on,72,32,0
1,note_on,72,0,40
1,note_on,81,36,0
1,note_on,81,0,40
1,note_on,88,46,0
1,note_on,88,0,90
1,note_on,84,39,70
1,note_on,84,0,120
1,note_on,81,39,40
1,note_on,81,0,120
1,note_on,76,41,40
1,note_on,76,0,120
1,note_on,72,38,40
1,note_on,72,0,120
1,note_on,69,38,40
1,note_on,69,0,120
1,note_on,68,39,200
1,note_on,76,39,0
1,note_on,76,0,120
1,note_on,68,0,0
1,note_on,71,36,40
1,note_on,80,36,0
1,note_on,80,0,120
1,note_on,71,0,0
1,note_on,88,35,40
1,note_on,76,35,0
1,note_on,76,0,120
1,note_on,88,0,0
1,note_on,81,41,300
1,note_on,85,45,30
1,note_on,93,58,30
1,note_on,93,0,90
1,note_on,85,0,0
1,note_on,81,0,0
1,note_on,88,49,70
1,note_on,88,0,120
1,note_on,85,49,40
1,note_on,85,0,120
1,note_on,81,52,40
1,note_on,81,0,120
1,note_on,76,48,40
1,note_on,76,0,120
1,note_on,73,48,40
1,note_on,73,0,120
1,note_on,69,45,200
1,note_on,74,54,0
1,note_on,74,0,120
1,note_on,69,0,0
1,note_on,74,45,40
1,note_on,77,53,0
1,note_on,77,0,120
1,note_on,74,0,0
1,note_on,77,44,40
1,note_on,81,52,0
1,note_on,81,0,120
1,note_on,77,0,0
1,note_on,81,40,40
1,note_on,86,48,0
1,note_on,86,0,120
1,note_on,81,0,0
1,note_on,86,41,40
1,note_on,89,49,0
1,note_on,89,0,120
1,note_on,86,0,0
1,note_on,79,47,184
1,note_on,83,50,48
1,note_on,91,58,48
1,note_on,91,0,90
1,note_on,83,0,0
1,note_on,79,0,0
1,note_on,86,49,70
1,note_on,86,0,120
1,note_on,83,49,40
1,note_on,83,0,120
1,note_on,79,52,40
1,note_on,79,0,120
1,note_on,74,48,40
1,note_on,74,0,120
1,note_on,71,48,40
1,note_on,71,0,120
1,note_on,67,45,200
1,note_on,72,54,0
1,note_on,72,0,120
1,note_on,67,0,0
1,note_on,72,45,40
1,note_on,76,53,0
1,note_on,76,0,120
1,note_on,72,0,0
1,note_on,76,44,40
1,note_on,79,52,0
1,note_on,79,0,120
1,note_on,76,0,0
1,note_on,79,40,40
1,note_on,84,48,0
1,note_on,84,0,120
1,note_on,79,0,0
1,note_on,84,41,40
1,note_on,88,49,0
1,note_on,88,0,120
1,note_on,84,0,0
1,note_on,83,39,40
1,note_on,89,46,0
1,note_on,89,0,90
1,note_on,83,0,0
1,note_on,80,33,70
1,note_on,86,39,0
1,note_on,86,0,120
1,note_on,80,0,0
1,note_on,77,33,40
1,note_on,83,39,0
1,note_on,83,0,120
1,note_on,77,0,0
1,note_on,74,35,40
1,note_on,80,41,0
1,note_on,80,0,120
1,note_on,74,0,0
1,note_on,71,32,40
1,note_on,77,38,0
1,note_on,77,0,120
1,note_on,71,0,0
1,note_on,74,38,40
1,note_on,74,0,80
1,note_on,76,32,0
1,note_on,76,0,40
1,note_on,81,36,0
1,note_on,81,0,40
1,note_on,88,48,0
1,note_on,88,0,90
1,note_on,84,43,70
1,note_on,84,0,120
1,note_on,81,42,40
1,note_on,81,0,120
1,note_on,76,41,40
1,note_on,76,0,120
1,note_on,72,38,40
1,note_on,72,0,120
1,note_on,69,39,40
1,note_on,69,0,120
1,note_on,63,33,200
1,note_on,71,39,0
1,note_on,71,0,120
1,note_on,63,0,0
1,note_on,75,36,40
1,note_on,69,36,0
1,note_on,69,0,120
1,note_on,75,0,0
1,note_on,76,39,200
1,note_on,68,33,0
1,note_on,68,0,120
1,note_on,76,0,0
1,note_on,80,36,40
1,note_on,71,30,0
1,note_on,71,0,120
1,note_on,80,0,0
1,note_on,81,39,200
1,note_on,72,33,0
1,note_on,72,0,120
1,note_on,81,0,0
1,note_on,76,30,40
1,note_on,84,36,0
1,note_on,84,0,120
1,note_on,76,0,0
1,note_on,81,38,40
1,note_on,93,45,0
1,note_on,93,0,120
1,note_on,81,0,0
1,note_on,46,54,780
1,note_on,45,58,60
1,note_on,46,0,10
1,note_on,47,48,110
1,note_on,45,0,10
1,note_on,48,51,110
1,note_on,47,0,10
1,note_on,50,47,110
1,note_on,48,0,10
1,note_on,50,0,110
1,note_on,53,52,420
1,note_on,52,56,60
1,note_on,53,0,10
1,note_on,50,48,110
1,note_on,52,0,10
1,note_on,48,51,110
1,note_on,50,0,10
1,note_on,47,47,110
1,note_on,48,0,10
1,note_on,47,0,110
1,note_on,46,48,420
1,note_on,45,50,60
1,note_on,46,0,10
1,note_on,47,41,110
1,note_on,45,0,10
1,note_on,48,44,110
1,note_on,47,0,10
1,note_on,50,40,110
1,note_on,48,0,10
1,note_on,50,0,110
1,note_on,53,40,420
1,note_on,52,36,60
1,note_on,53,0,10
1,note_on,52,0,170
1,note_on,58,53,720
1,note_on,57,56,60
1,note_on,58,0,10
1,note_on,59,48,110
1,note_on,57,0,10
1,note_on,60,51,110
1,note_on,59,0,10
1,note_on,62,47,110
1,note_on,60,0,10
1,note_on,62,0,110
1,note_on,65,50,420
1,note_on,64,54,60
1,note_on,65,0,10
1,note_on,62,48,110
1,note_on,64,0,10
1,note_on,60,51,110
1,note_on,62,0,10
1,note_on,59,47,110
1,note_on,60,0,10
1,note_on,59,0,110
1,note_on,58,48,420
1,note_on,57,53,60
1,note_on,58,0,10
1,note_on,59,41,110
1,note_on,57,0,10
1,note_on,60,44,110
1,note_on,59,0,10
1,note_on,62,40,110
1,note_on,60,0,10
1,note_on,62,0,110
1,note_on,65,40,420
1,note_on,65,0,60
1,note_on,64,36,0
1,note_on,64,0,180
1,note_on,70,50,720
1,note_on,69,54,60
1,note_on,70,0,10
1,note_on,67,48,110
1,note_on,69,0,10
1,note_on,65,51,110
1,note_on,67,0,10
1,note_on,64,47,110
1,note_on,65,0,10
1,note_on,64,0,110
1,note_on,63,47,420
1,note_on,62,54,60
1,note_on,63,0,10
1,note_on,64,48,110
1,note_on,62,0,10
1,note_on,65,51,110
1,note_on,64,0,10
1,note_on,62,47,110
1,note_on,65,0,10
1,note_on,62,0,110
1,note_on,68,51,420
1,note_on,67,54,60
1,note_on,68,0,10
1,note_on,65,45,110
1,note_on,67,0,10
1,note_on,64,48,110
1,note_on,65,0,10
1,note_on,62,44,110
1,note_on,64,0,10
1,note_on,62,0,110
1,note_on,61,47,420
1,note_on,60,52,60
1,note_on,61,0,10
1,note_on,62,48,110
1,note_on,60,0,10
1,note_on,64,51,110
1,note_on,62,0,10
1,note_on,60,47,110
1,note_on,64,0,10
1,note_on,60,0,110
1,note_on,67,48,420
1,note_on,65,52,60
1,note_on,67,0,10
1,note_on,62,48,110
1,note_on,65,0,10
1,note_on,60,51,110
1,note_on,62,0,10
1,note_on,59,47,110
1,note_on,60,0,10
1,note_on,59,0,110
1,note_on,65,51,420
1,note_on,64,54,60
1,note_on,65,0,10
1,note_on,60,48,110
1,note_on,64,0,10
1,note_on,59,51,110
1,note_on,60,0,10
1,note_on,57,47,110
1,note_on,59,0,10
1,note_on,57,0,110
1,note_on,60,47,420
1,note_on,59,51,60
1,note_on,60,0,10
1,note_on,65,41,110
1,note_on,59,0,10
1,note_on,64,44,110
1,note_on,65,0,10
1,note_on,56,40,110
1,note_on,64,0,10
1,note_on,56,0,110
1,note_on,50,41,240
1,note_on,53,41,0
1,note_on,53,0,60
1,note_on,50,0,0
1,note_on,48,41,180
1,note_on,52,41,0
1,note_on,52,0,60
1,note_on,48,0,0
1,note_on,61,43,900
1,note_on,52,36,0
1,note_on,55,36,0
1,note_on,55,0,480
1,note_on,52,0,0
1,note_on,61,0,0
1,note_on,65,43,480
1,note_on,53,36,0
1,note_on,57,36,0
1,note_on,57,0,480
1,note_on,53,0,0
1,note_on,65,0,0
1,note_on,59,43,480
1,note_on,50,36,0
1,note_on,53,36,0
1,note_on,53,0,480
1,note_on,50,0,0
1,note_on,59,0,0
1,note_on,64,43,480
1,note_on,52,36,0
1,note_on,55,36,0
1,note_on,55,0,480
1,note_on,52,0,0
1,note_on,64,0,0
1,note_on,59,43,480
1,note_on,50,36,0
1,note_on,56,36,0
1,note_on,56,0,480
1,note_on,50,0,0
1,note_on,59,0,0
1,note_on,60,43,480
1,note_on,52,36,0
1,note_on,57,36,0
1,note_on,57,0,480
1,note_on,52,0,0
1,note_on,60,0,0
1,note_on,62,43,0
1,note_on,53,36,0
1,note_on,57,36,0
1,note_on,62,0,240
1,note_on,63,43,0
1,note_on,63,0,240
1,note_on,57,0,0
1,note_on,53,0,0
1,note_on,64,43,0
1,note_on,52,36,0
1,note_on,56,36,0
1,note_on,56,0,240
1,note_on,52,0,0
1,note_on,64,0,0
1,note_on,62,36,720
1,note_on,53,30,0
1,note_on,57,30,0
1,note_on,57,0,240
1,note_on,53,0,0
1,note_on,62,0,0
1,note_on,52,30,240
1,note_on,57,30,0
1,note_on,60,36,0
1,note_on,60,0,240
1,note_on,57,0,0
1,note_on,52,0,0
1,note_on,50,26,240
1,note_on,53,26,0
1,note_on,57,32,0
1,note_on,57,0,240
1,note_on,53,0,0
1,note_on,50,0,0
1,note_on,48,24,240
1,note_on,52,24,0
1,note_on,57,29,0
1,note_on,57,0,240
1,note_on,52,0,0
1,note_on,48,0,0
1,note_on,50,20,240
1,note_on,53,25,0
1,note_on,53,0,240
1,note_on,50,0,0
1,note_on,48,15,240
1,note_on,52,15,0
1,note_on,57,18,0
1,note_on,57,0,240
1,note_on,52,0,0
1,note_on,48,0,0
1,note_on,69,70,720
1,note_on,57,61,0
1,note_on,57,0,120
1,note_on,69,0,0
1,note_on,63,43,0
1,note_on,66,52,0
1,note_on,66,0,60
1,note_on,63,0,0
1,note_on,57,47,180
1,note_on,69,54,0
1,note_on,69,0,120
1,note_on,57,0,0
1,note_on,69,66,0
1,note_on,57,58,0
1,note_on,57,0,120
1,note_on,69,0,0
1,note_on,72,62,0
1,note_on,60,54,0
1,note_on,60,0,120
1,note_on,72,0,0
1,note_on,71,66,0
1,note_on,59,58,0
1,note_on,59,0,120
1,note_on,71,0,0
1,note_on,69,62,0
1,note_on,57,54,0
1,note_on,57,0,120
1,note_on,69,0,0
1,note_on,76,70,0
1,note_on,64,61,0
1,note_on,64,0,120
1,note_on,76,0,0
1,note_on,68,43,0
1,note_on,71,52,0
1,note_on,71,0,60
1,note_on,68,0,0
1,note_on,64,47,180
1,note_on,76,54,0
1,note_on,76,0,120
1,note_on,64,0,0
1,note_on,76,66,0
1,note_on,64,58,0
1,note_on,64,0,120
1,note_on,76,0,0
1,note_on,79,62,0
1,note_on,67,54,0
1,note_on,67,0,120
1,note_on,79,0,0
1,note_on,77,66,0
1,note_on,65,58,0
1,note_on,65,0,120
1,note_on,77,0,0
1,note_on,76,62,0
1,note_on,64,54,0
1,note_on,64,0,120
1,note_on,76,0,0
1,note_on,69,72,0
1,note_on,57,63,0
1,note_on,57,0,120
1,note_on,69,0,0
1,note_on,63,46,0
1,note_on,66,54,0
1,note_on,66,0,60
1,note_on,63,0,0
1,note_on,57,50,180
1,note_on,69,58,0
1,note_on,69,0,120
1,note_on,57,0,0
1,note_on,69,68,0
1,note_on,57,60,0
1,note_on,57,0,120
1,note_on,69,0,0
1,note_on,72,64,0
1,note_on,60,56,0
1,note_on,60,0,120
1,note_on,72,0,0
1,note_on,71,68,0
1,note_on,59,60,0
1,note_on,59,0,120
1,note_on,71,0,0
1,note_on,69,64,0
1,note_on,57,56,0
1,note_on,57,0,120
1,note_on,69,0,0
1,note_on,68,72,0
1,note_on,56,63,0
1,note_on,56,0,120
1,note_on,68,0,0
1,note_on,59,68,0
1,note_on,59,0,60
1,note_on,63,64,180
1,note_on,63,0,120
1,note_on,56,63,0
1,note_on,65,73,0
1,note_on,59,63,0
1,note_on,59,0,240
1,note_on,65,0,0
1,note_on,56,0,0
1,note_on,64,70,0
1,note_on,64,0,120
1,note_on,81,77,120
1,note_on,69,66,0
1,note_on,69,0,120
1,note_on,81,0,0
1,note_on,75,48,0
1,note_on,78,57,0
1,note_on,78,0,60
1,note_on,75,0,0
1,note_on,69,52,180
1,note_on,81,61,0
1,note_on,81,0,120
1,note_on,69,0,0
1,note_on,81,72,0
1,note_on,69,63,0
1,note_on,69,0,120
1,note_on,81,0,0
1,note_on,84,67,0
1,note_on,72,60,0
1,note_on,72,0,120
1,note_on,84,0,0
1,note_on,83,72,0
1,note_on,71,63,0
1,note_on,71,0,120
1,note_on,83,0,0
1,note_on,81,67,0
1,note_on,69,60,0
1,note_on,69,0,120
1,note_on,81,0,0
1,note_on,88,77,0
1,note_on,76,66,0
1,note_on,76,0,120
1,note_on,88,0,0
1,note_on,80,48,0
1,note_on,83,57,0
1,note_on,83,0,60
1,note_on,80,0,0
1,note_on,76,52,180
1,note_on,88,61,0
1,note_on,88,0,120
1,note_on,76,0,0
1,note_on,88,72,0
1,note_on,76,63,0
1,note_on,76,0,120
1,note_on,88,0,0
1,note_on,91,67,0
1,note_on,79,60,0
1,note_on,79,0,120
1,note_on,91,0,0
1,note_on,89,72,0
1,note_on,77,63,0
1,note_on,77,0,120
1,note_on,89,0,0
1,note_on,88,67,0
1,note_on,76,60,0
1,note_on,76,0,120
1,note_on,88,0,0
1,note_on,81,80,0
1,note_on,69,69,0
1,note_on,69,0,120
1,note_on,81,0,0
1,note_on,75,50,0
1,note_on,78,60,0
1,note_on,78,0,60
1,note_on,75,0,0
1,note_on,69,54,180
1,note_on,81,63,0
1,note_on,81,0,120
1,note_on,69,0,0
1,note_on,81,72,0
1,note_on,69,63,0
1,note_on,69,0,120
1,note_on,81,0,0
1,note_on,84,67,0
1,note_on,72,60,0
1,note_on,72,0,120
1,note_on,84,0,0
1,note_on,83,72,0
1,note_on,71,63,0
1,note_on,71,0,120
1,note_on,83,0,0
1,note_on,81,67,0
1,note_on,69,60,0
1,note_on,69,0,120
1,note_on,81,0,0
1,note_on,80,77,0
1,note_on,68,66,0
1,note_on,68,0,120
1,note_on,80,0,0
1,note_on,83,72,0
1,note_on,71,67,0
1,note_on,71,0,60
1,note_on,83,0,0
1,note_on,87,67,180
1,note_on,75,57,0
1,note_on,75,0,120
1,note_on,87,0,0
1,note_on,89,78,0
1,note_on,77,56,0
1,note_on,77,0,240
1,note_on,89,0,0
1,note_on,88,73,0
1,note_on,76,62,0
1,note_on,76,0,120
1,note_on,88,0,0
1,note_on,81,69,120
1,note_on,93,81,0
1,note_on,79,69,0
1,note_on,79,0,120
1,note_on,93,0,0
1,note_on,81,0,0
1,note_on,85,50,0
1,note_on,88,60,0
1,note_on,88,0,60
1,note_on,85,0,0
1,note_on,81,54,180
1,note_on,93,63,0
1,note_on,93,0,120
1,note_on,81,0,0
1,note_on,93,76,0
1,note_on,81,66,0
1,note_on,81,0,120
1,note_on,93,0,0
1,note_on,94,70,0
1,note_on,82,62,0
1,note_on,82,0,120
1,note_on,94,0,0
1,note_on,93,76,0
1,note_on,81,66,0
1,note_on,81,0,120
1,note_on,93,0,0
1,note_on,91,70,0
1,note_on,79,62,0
1,note_on,79,0,120
1,note_on,91,0,0
1,note_on,89,81,0
1,note_on,77,69,0
1,note_on,77,0,120
1,note_on,89,0,0
1,note_on,81,50,0
1,note_on,86,60,0
1,note_on,86,0,60
1,note_on,81,0,0
1,note_on,73,54,180
1,note_on,85,63,0
1,note_on,85,0,120
1,note_on,73,0,0
1,note_on,86,76,0
1,note_on,74,66,0
1,note_on,74,0,120
1,note_on,86,0,0
1,note_on,89,70,0
1,note_on,77,62,0
1,note_on,77,0,120
1,note_on,89,0,0
1,note_on,87,76,0
1,note_on,75,66,0
1,note_on,75,0,120
1,note_on,87,0,0
1,note_on,86,70,0
1,note_on,74,62,0
1,note_on,74,0,120
1,note_on,86,0,0
1,note_on,79,69,0
1,note_on,91,81,0
1,note_on,77,69,0
1,note_on,77,0,120
1,note_on,91,0,0
1,note_on,79,0,0
1,note_on,83,50,0
1,note_on,86,60,0
1,note_on,86,0,60
1,note_on,83,0,0
1,note_on,79,54,180
1,note_on,91,63,0
1,note_on,91,0,120
1,note_on,79,0,0
1,note_on,91,76,0
1,note_on,79,66,0
1,note_on,79,0,120
1,note_on,91,0,0
1,note_on,92,70,0
1,note_on,80,62,0
1,note_on,80,0,120
1,note_on,92,0,0
1,note_on,91,76,0
1,note_on,79,66,0
1,note_on,79,0,120
1,note_on,91,0,0
1,note_on,89,70,0
1,note_on,77,62,0
1,note_on,77,0,120
1,note_on,89,0,0
1,note_on,88,81,0
1,note_on,76,69,0
1,note_on,76,0,120
1,note_on,88,0,0
1,note_on,79,50,0
1,note_on,84,60,0
1,note_on,84,0,60
1,note_on,79,0,0
1,note_on,71,54,180
1,note_on,83,63,0
1,note_on,83,0,120
1,note_on,71,0,0
1,note_on,84,76,0
1,note_on,72,66,0
1,note_on,72,0,120
1,note_on,84,0,0
1,note_on,87,70,0
1,note_on,75,62,0
1,note_on,75,0,120
1,note_on,87,0,0
1,note_on,85,76,0
1,note_on,73,66,0
1,note_on,73,0,120
1,note_on,85,0,0
1,note_on,84,70,0
1,note_on,72,62,0
1,note_on,72,0,120
1,note_on,84,0,0
1,note_on,89,81,0
1,note_on,77,69,0
1,note_on,77,0,120
1,note_on,89,0,0
1,note_on,80,50,0
1,note_on,83,60,0
1,note_on,83,0,60
1,note_on,80,0,0
1,note_on,68,47,180
1,note_on,71,54,0
1,note_on,71,0,120
1,note_on,68,0,0
1,note_on,71,66,0
1,note_on,68,58,0
1,note_on,71,0,120
1,note_on,74,62,0
1,note_on,74,0,120
1,note_on,72,66,0
1,note_on,72,0,120
1,note_on,71,62,0
1,note_on,71,0,120
1,note_on,68,0,0
1,note_on,88,81,0
1,note_on,76,69,0
1,note_on,76,0,120
1,note_on,88,0,0
1,note_on,81,50,0
1,note_on,84,60,0
1,note_on,84,0,60
1,note_on,81,0,0
1,note_on,64,49,180
1,note_on,69,54,0
1,note_on,69,0,120
1,note_on,64,0,0
1,note_on,69,61,0
1,note_on,64,54,0
1,note_on,69,0,120
1,note_on,72,56,0
1,note_on,72,0,120
1,note_on,71,61,0
1,note_on,71,0,120
1,note_on,69,57,0
1,note_on,69,0,120
1,note_on,64,0,0
1,note_on,62,52,0
1,note_on,74,62,0
1,note_on,74,0,120
1,note_on,62,0,0
1,note_on,65,51,0
1,note_on,77,60,0
1,note_on,77,0,120
1,note_on,65,0,0
1,note_on,64,51,0
1,note_on,76,60,0
1,note_on,76,0,120
1,note_on,64,0,0
1,note_on,63,47,0
1,note_on,75,56,0
1,note_on,75,0,120
1,note_on,63,0,0
1,note_on,64,51,0
1,note_on,76,60,0
1,note_on,76,0,120
1,note_on,64,0,0
1,note_on,59,41,0
1,note_on,71,50,0
1,note_on,71,0,120
1,note_on,59,0,0
1,note_on,62,44,0
1,note_on,74,52,0
1,note_on,74,0,120
1,note_on,62,0,0
1,note_on,60,41,0
1,note_on,72,50,0
1,note_on,72,0,120
1,note_on,60,0,0
1,note_on,64,54,0
1,note_on,59,30,0
1,note_on,71,40,0
1,note_on,64,0,120
1,note_on,67,45,0
1,note_on,67,0,120
1,note_on,65,45,0
1,note_on,65,0,120
1,note_on,64,42,0
1,note_on,71,0,120
1,note_on,59,0,0
1,note_on,57,29,0
1,note_on,69,35,0
1,note_on,69,0,120
1,note_on,57,0,0
1,note_on,64,0,0
1,note_on,81,45,360
1,note_on,93,51,120
1,note_on,81,0,120
1,note_on,92,51,0
1,note_on,80,43,0
1,note_on,93,0,20
1,note_on,91,50,100
1,note_on,79,42,0
1,note_on,80,0,20
1,note_on,92,0,0
1,note_on,90,50,100
1,note_on,78,42,0
1,note_on,91,0,20
1,note_on,79,0,0
1,note_on,89,49,100
1,note_on,77,41,0
1,note_on,90,0,20
1,note_on,78,0,0
1,note_on,88,49,100
1,note_on,76,41,0
1,note_on,89,0,20
1,note_on,77,0,0
1,note_on,87,48,100
1,note_on,75,40,0
1,note_on,88,0,20
1,note_on,76,0,0
1,note_on,87,0,100
1,note_on,75,0,0
1,note_on,77,43,0
1,note_on,89,51,0
1,note_on,76,37,120
1,note_on,88,45,0
1,note_on,89,0,20
1,note_on,77,0,0
1,note_on,75,40,100
1,note_on,87,48,0
1,note_on,76,0,20
1,note_on,88,0,0
1,note_on,89,45,100
1,note_on,77,37,0
1,note_on,75,0,20
1,note_on,87,0,0
1,note_on,89,0,100
1,note_on,77,0,0
1,note_on,76,40,0
1,note_on,88,47,0
1,note_on,83,46,120
1,note_on,88,0,20
1,note_on,76,0,100
1,note_on,71,38,0
1,note_on,80,45,0
1,note_on,83,0,20
1,note_on,76,45,100
1,note_on,80,0,20
1,note_on,76,0,100
1,note_on,71,0,0
1,note_on,81,45,0
1,note_on,93,51,120
1,note_on,81,0,120
1,note_on,92,51,0
1,note_on,80,43,0
1,note_on,93,0,20
1,note_on,91,50,100
1,note_on,79,42,0
1,note_on,80,0,20
1,note_on,92,0,0
1,note_on,90,50,100
1,note_on,78,42,0
1,note_on,91,0,20
1,note_on,79,0,0
1,note_on,89,49,100
1,note_on,77,41,0
1,note_on,90,0,20
1,note_on,78,0,0
1,note_on,88,49,100
1,note_on,76,41,0
1,note_on,89,0,20
1,note_on,77,0,0
1,note_on,87,48,100
1,note_on,75,40,0
1,note_on,88,0,20
1,note_on,76,0,0
1,note_on,87,0,100
1,note_on,75,0,0
1,note_on,77,43,0
1,note_on,89,51,0
1,note_on,76,37,120
1,note_on,88,45,0
1,note_on,89,0,20
1,note_on,77,0,0
1,note_on,75,40,100
1,note_on,87,48,0
1,note_on,76,0,20
1,note_on,88,0,0
1,note_on,89,45,100
1,note_on,77,37,0
1,note_on,75,0,20
1,note_on,87,0,0
1,note_on,76,40,100
1,note_on,88,47,0
1,note_on,89,0,20
1,note_on,77,0,0
1,note_on,76,0,100
1,note_on,88,0,0
1,note_on,76,47,120
1,note_on,76,0,120
1,note_on,81,45,120
1,note_on,93,51,120
1,note_on,81,0,120
1,note_on,92,51,0
1,note_on,80,43,0
1,note_on,93,0,20
1,note_on,91,50,100
1,note_on,79,42,0
1,note_on,80,0,20
1,note_on,92,0,0
1,note_on,90,50,100
1,note_on,78,42,0
1,note_on,91,0,20
1,note_on,79,0,0
1,note_on,89,49,100
1,note_on,77,41,0
1,note_on,90,0,20
1,note_on,78,0,0
1,note_on,88,49,100
1,note_on,76,41,0
1,note_on,89,0,20
1,note_on,77,0,0
1,note_on,87,48,100
1,note_on,75,40,0
1,note_on,88,0,20
1,note_on,76,0,0
1,note_on,87,0,100
1,note_on,75,0,0
1,note_on,77,43,0
1,note_on,89,51,0
1,note_on,76,37,120
1,note_on,88,45,0
1,note_on,89,0,20
1,note_on,77,0,0
1,note_on,75,40,100
1,note_on,87,48,0
1,note_on,76,0,20
1,note_on,88,0,0
1,note_on,89,45,100
1,note_on,77,37,0
1,note_on,75,0,20
1,note_on,87,0,0
1,note_on,89,0,100
1,note_on,77,0,0
1,note_on,76,40,0
1,note_on,88,47,0
1,note_on,83,46,120
1,note_on,88,0,20
1,note_on,76,0,100
1,note_on,71,38,0
1,note_on,80,45,0
1,note_on,83,0,20
1,note_on,76,45,100
1,note_on,80,0,20
1,note_on,76,0,100
1,note_on,71,0,0
1,note_on,81,45,0
1,note_on,93,51,120
1,note_on,81,0,120
1,note_on,92,51,0
1,note_on,80,43,0
1,note_on,93,0,20
1,note_on,91,50,100
1,note_on,79,42,0
1,note_on,80,0,20
1,note_on,92,0,0
1,note_on,90,50,100
1,note_on,78,42,0
1,note_on,91,0,20
1,note_on,79,0,0
1,note_on,89,49,100
1,note_on,77,41,0
1,note_on,90,0,20
1,note_on,78,0,0
1,note_on,88,49,100
1,note_on,76,41,0
1,note_on,89,0,20
1,note_on,77,0,0
1,note_on,87,48,100
1,note_on,75,40,0
1,note_on,88,0,20
1,note_on,76,0,0
1,note_on,87,0,100
1,note_on,75,0,0
1,note_on,77,43,0
1,note_on,89,51,0
1,note_on,76,37,120
1,note_on,88,45,0
1,note_on,89,0,20
1,note_on,77,0,0
1,note_on,75,40,100
1,note_on,87,48,0
1,note_on,76,0,20
1,note_on,88,0,0
1,note_on,89,45,100
1,note_on,77,37,0
1,note_on,75,0,20
1,note_on,87,0,0
1,note_on,76,40,100
1,note_on,88,47,0
1,note_on,89,0,20
1,note_on,77,0,0
1,note_on,76,0,100
1,note_on,88,0,0
1,note_on,76,47,120
1,note_on,76,0,120
1,note_on,81,53,120
1,note_on,93,60,120
1,note_on,81,0,120
1,note_on,92,60,0
1,note_on,80,50,0
1,note_on,93,0,20
1,note_on,91,59,100
1,note_on,79,49,0
1,note_on,80,0,20
1,note_on,92,0,0
1,note_on,90,59,100
1,note_on,78,49,0
1,note_on,91,0,20
1,note_on,79,0,0
1,note_on,89,59,100
1,note_on,77,49,0
1,note_on,90,0,20
1,note_on,78,0,0
1,note_on,88,59,100
1,note_on,76,49,0
1,note_on,89,0,20
1,note_on,77,0,0
1,note_on,86,58,100
1,note_on,74,48,0
1,note_on,88,0,20
1,note_on,76,0,0
1,note_on,86,0,100
1,note_on,74,0,0
1,note_on,73,50,0
1,note_on,85,60,0
1,note_on,88,53,120
1,note_on,85,0,20
1,note_on,73,0,100
1,note_on,73,48,0
1,note_on,81,58,0
1,note_on,88,0,20
1,note_on,85,53,100
1,note_on,81,0,20
1,note_on,85,0,100
1,note_on,73,0,0
1,note_on,74,48,0
1,note_on,86,57,0
1,note_on,81,56,120
1,note_on,86,0,20
1,note_on,74,0,100
1,note_on,69,46,0
1,note_on,77,55,0
1,note_on,81,0,20
1,note_on,74,53,100
1,note_on,77,0,20
1,note_on,74,0,100
1,note_on,69,0,0
1,note_on,79,56,0
1,note_on,91,63,120
1,note_on,79,0,120
1,note_on,90,63,0
1,note_on,78,52,0
1,note_on,91,0,20
1,note_on,89,62,100
1,note_on,77,51,0
1,note_on,78,0,20
1,note_on,90,0,0
1,note_on,88,62,100
1,note_on,76,51,0
1,note_on,89,0,20
1,note_on,77,0,0
1,note_on,87,61,100
1,note_on,75,50,0
1,note_on,88,0,20
1,note_on,76,0,0
1,note_on,86,61,100
1,note_on,74,50,0
1,note_on,87,0,20
1,note_on,75,0,0
1,note_on,84,59,100
1,note_on,72,49,0
1,note_on,86,0,20
1,note_on,74,0,0
1,note_on,84,0,100
1,note_on,72,0,0
1,note_on,71,52,0
1,note_on,83,63,0
1,note_on,86,56,120
1,note_on,83,0,20
1,note_on,71,0,100
1,note_on,71,49,0
1,note_on,79,59,0
1,note_on,86,0,20
1,note_on,83,56,100
1,note_on,79,0,20
1,note_on,83,0,100
1,note_on,71,0,0
1,note_on,72,49,0
1,note_on,84,59,0
1,note_on,79,58,120
1,note_on,84,0,20
1,note_on,72,0,100
1,note_on,67,48,0
1,note_on,76,57,0
1,note_on,79,0,20
1,note_on,72,56,100
1,note_on,76,0,20
1,note_on,72,0,100
1,note_on,67,0,0
1,note_on,77,50,0
1,note_on,93,63,60
1,note_on,93,0,60
1,note_on,77,0,0
1,note_on,88,51,120
1,note_on,76,43,0
1,note_on,87,50,120
1,note_on,75,42,0
1,note_on,76,0,20
1,note_on,88,0,0
1,note_on,87,0,120
1,note_on,75,0,0
1,note_on,85,49,100
1,note_on,73,41,0
1,note_on,84,49,120
1,note_on,72,41,0
1,note_on,73,0,20
1,note_on,85,0,0
1,note_on,83,48,100
1,note_on,71,40,0
1,note_on,84,0,20
1,note_on,72,0,0
1,note_on,83,0,100
1,note_on,71,0,0
1,note_on,76,54,0
1,note_on,91,66,60
1,note_on,91,0,60
1,note_on,76,0,0
1,note_on,87,51,120
1,note_on,75,43,0
1,note_on,86,50,120
1,note_on,74,42,0
1,note_on,75,0,20
1,note_on,87,0,0
1,note_on,86,0,120
1,note_on,74,0,0
1,note_on,83,49,100
1,note_on,71,41,0
1,note_on,82,49,120
1,note_on,70,41,0
1,note_on,71,0,20
1,note_on,83,0,0
1,note_on,81,48,100
1,note_on,69,40,0
1,note_on,82,0,20
1,note_on,70,0,0
1,note_on,81,0,100
1,note_on,69,0,0
1,note_on,76,49,120
1,note_on,64,41,0
1,note_on,75,49,120
1,note_on,63,41,0
1,note_on,64,0,20
1,note_on,76,0,0
1,note_on,74,48,100
1,note_on,62,40,0
1,note_on,75,0,20
1,note_on,63,0,0
1,note_on,74,0,100
1,note_on,62,0,0
1,note_on,72,49,120
1,note_on,60,41,0
1,note_on,71,49,120
1,note_on,59,41,0
1,note_on,60,0,20
1,note_on,72,0,0
1,note_on,70,48,100
1,note_on,58,40,0
1,note_on,71,0,20
1,note_on,59,0,0
1,note_on,70,0,100
1,note_on,58,0,0
1,note_on,65,50,120
1,note_on,64,49,120
1,note_on,65,0,20
1,note_on,63,48,100
1,note_on,64,0,20
1,note_on,62,46,100
1,note_on,63,0,20
1,note_on,60,45,100
1,note_on,62,0,20
1,note_on,59,45,100
1,note_on,60,0,20
1,note_on,58,44,100
1,note_on,59,0,20
1,note_on,58,0,100
1,note_on,57,45,0
1,note_on,57,0,120
1,note_on,89,51,120
1,note_on,81,43,0
1,note_on,84,50,120
1,note_on,77,42,0
1,note_on,81,0,20
1,note_on,89,0,0
1,note_on,84,0,120
1,note_on,77,0,0
1,note_on,60,47,220
1,note_on,60,0,80
1,note_on,59,46,0
1,note_on,59,0,80
1,note_on,57,45,0
1,note_on,57,0,80
1,note_on,56,45,0
1,note_on,56,0,120
1,note_on,87,51,120
1,note_on,80,43,0
1,note_on,83,50,120
1,note_on,75,42,0
1,note_on,80,0,20
1,note_on,87,0,0
1,note_on,83,0,120
1,note_on,75,0,0
1,note_on,52,39,220
1,note_on,52,0,80
1,note_on,54,41,0
1,note_on,54,0,80
1,note_on,56,43,0
1,note_on,56,0,80
1,note_on,57,45,0
1,note_on,57,0,120
1,note_on,89,51,120
1,note_on,81,43,0
1,note_on,84,50,120
1,note_on,77,42,0
1,note_on,81,0,20
1,note_on,89,0,0
1,note_on,84,0,120
1,note_on,77,0,0
1,note_on,60,47,220
1,note_on,60,0,80
1,note_on,59,46,0
1,note_on,59,0,80
1,note_on,57,45,0
1,note_on,57,0,80
1,note_on,56,45,0
1,note_on,56,0,120
1,note_on,87,51,120
1,note_on,80,43,0
1,note_on,83,50,120
1,note_on,75,42,0
1,note_on,80,0,20
1,note_on,87,0,0
1,note_on,83,0,120
1,note_on,75,0,0
1,note_on,52,75,280
1,note_on,52,0,60
1,note_on,54,79,0
1,note_on,54,0,60
1,note_on,56,81,0
1,note_on,56,0,60
1,note_on,57,83,0
1,note_on,57,0,120
1,note_on,89,80,120
1,note_on,81,67,0
1,note_on,84,79,120
1,note_on,77,65,0
1,note_on,81,0,20
1,note_on,89,0,0
1,note_on,84,0,120
1,note_on,77,0,0
1,note_on,60,81,220
1,note_on,60,0,80
1,note_on,59,80,0
1,note_on,59,0,80
1,note_on,57,77,0
1,note_on,57,0,80
1,note_on,56,81,0
1,note_on,56,0,120
1,note_on,87,80,120
1,note_on,80,67,0
1,note_on,83,79,120
1,note_on,75,65,0
1,note_on,80,0,20
1,note_on,87,0,0
1,note_on,83,0,120
1,note_on,75,0,0
1,note_on,52,66,220
1,note_on,52,0,80
1,note_on,54,72,0
1,note_on,54,0,80
1,note_on,56,77,0
1,note_on,56,0,80
1,note_on,57,83,0
1,note_on,57,0,120
1,note_on,89,80,120
1,note_on,81,67,0
1,note_on,84,79,120
1,note_on,77,65,0
1,note_on,81,0,20
1,note_on,89,0,0
1,note_on,84,0,120
1,note_on,77,0,0
1,note_on,60,77,220
1,note_on,60,0,80
1,note_on,59,76,0
1,note_on,59,0,80
1,note_on,57,74,0
1,note_on,57,0,80
1,note_on,56,73,0
1,note_on,56,0,120
1,note_on,87,80,120
1,note_on,80,67,0
1,note_on,83,79,120
1,note_on,75,65,0
1,note_on,80,0,20
1,note_on,87,0,0
1,note_on,83,0,120
1,note_on,75,0,0
1,note_on,57,42,280
1,note_on,57,0,60
1,note_on,59,44,0
1,note_on,59,0,60
1,note_on,60,45,0
1,note_on,60,0,60
1,note_on,61,47,0
1,note_on,61,0,120
1,note_on,94,51,120
1,note_on,88,43,0
1,note_on,91,50,120
1,note_on,82,42,0
1,note_on,88,0,20
1,note_on,94,0,0
1,note_on,91,0,120
1,note_on,82,0,0
1,note_on,57,46,220
1,note_on,57,0,80
1,note_on,59,50,0
1,note_on,59,0,80
1,note_on,61,52,0
1,note_on,61,0,80
1,note_on,62,55,0
1,note_on,62,0,120
1,note_on,88,59,120
1,note_on,81,50,0
1,note_on,86,58,120
1,note_on,76,49,0
1,note_on,81,0,20
1,note_on,88,0,0
1,note_on,86,0,120
1,note_on,76,0,0
1,note_on,64,51,220
1,note_on,64,0,80
1,note_on,62,53,0
1,note_on,62,0,80
1,note_on,60,54,0
1,note_on,60,0,80
1,note_on,59,57,0
1,note_on,59,0,120
1,note_on,92,63,120
1,note_on,86,52,0
1,note_on,89,62,120
1,note_on,80,51,0
1,note_on,86,0,20
1,note_on,92,0,0
1,note_on,89,0,120
1,note_on,80,0,0
1,note_on,55,66,220
1,note_on,55,0,80
1,note_on,57,70,0
1,note_on,57,0,80
1,note_on,59,73,0
1,note_on,59,0,80
1,note_on,60,76,0
1,note_on,60,0,120
1,note_on,87,72,120
1,note_on,79,61,0
1,note_on,84,71,120
1,note_on,75,60,0
1,note_on,79,0,20
1,note_on,87,0,0
1,note_on,84,0,120
1,note_on,75,0,0
1,note_on,59,70,220
1,note_on,59,0,80
1,note_on,60,72,0
1,note_on,60,0,80
1,note_on,61,74,0
1,note_on,61,0,80
1,note_on,62,77,0
1,note_on,62,0,120
1,note_on,95,77,120
1,note_on,86,64,0
1,note_on,89,76,120
1,note_on,83,63,0
1,note_on,86,0,20
1,note_on,95,0,0
1,note_on,89,0,120
1,note_on,83,0,0
1,note_on,58,74,220
1,note_on,58,0,80
1,note_on,60,78,0
1,note_on,60,0,80
1,note_on,62,81,0
1,note_on,62,0,80
1,note_on,64,84,0
1,note_on,64,0,120
1,note_on,92,84,120
1,note_on,83,71,0
1,note_on,86,83,120
1,note_on,80,70,0
1,note_on,83,0,20
1,note_on,92,0,0
1,note_on,86,0,120
1,note_on,80,0,0
1,note_on,65,78,220
1,note_on,65,0,80
1,note_on,64,81,0
1,note_on,64,0,80
1,note_on,63,84,0
1,note_on,63,0,80
1,note_on,62,87,0
1,note_on,62,0,120
1,note_on,89,84,120
1,note_on,81,84,0
1,note_on,83,81,120
1,note_on,77,81,0
1,note_on,81,0,20
1,note_on,89,0,0
1,note_on,68,79,100
1,note_on,76,79,0
1,note_on,83,0,20
1,note_on,77,0,0
1,note_on,64,76,100
1,note_on,71,76,0
1,note_on,68,0,20
1,note_on,76,0,0
1,note_on,62,73,100
1,note_on,64,0,20
1,note_on,71,0,0
1,note_on,62,0,60
1,note_on,60,77,0
1,note_on,60,0,80
1,note_on,59,81,0
1,note_on,59,0,80
1,note_on,57,87,0
1,note_on,57,0,120
1,note_on,96,95,120
1,note_on,88,80,0
1,note_on,84,92,120
1,note_on,88,0,20
1,note_on,96,0,0
1,note_on,88,80,100
1,note_on,93,95,0
1,note_on,84,0,20
1,note_on,81,92,100
1,note_on,93,0,20
1,note_on,88,0,0
1,note_on,81,0,120
1,note_on,100,94,220
1,note_on,96,80,0
1,note_on,88,80,0
1,note_on,88,0,720
1,note_on,96,0,0
1,note_on,100,0,0
1,note_on,98,71,0
1,note_on,95,59,0
1,note_on,86,59,0
1,note_on,86,0,90
1,note_on,95,0,0
1,note_on,98,0,0
1,note_on,84,59,30
1,note_on,93,59,0
1,note_on,96,71,0
1,note_on,96,0,90
1,note_on,93,0,0
1,note_on,84,0,0
1,note_on,95,78,30
1,note_on,92,78,0
1,note_on,83,65,0
1,note_on,83,0,90
1,note_on,92,0,0
1,note_on,95,0,0
1,note_on,81,59,30
1,note_on,89,59,0
1,note_on,93,71,0
1,note_on,93,0,90
1,note_on,89,0,0
1,note_on,81,0,0
1,note_on,80,63,30
1,note_on,88,63,0
1,note_on,92,73,0
1,note_on,92,0,90
1,note_on,88,0,0
1,note_on,80,0,0
1,note_on,77,59,30
1,note_on,86,59,0
1,note_on,89,71,0
1,note_on,89,0,90
1,note_on,86,0,0
1,note_on,77,0,0
1,note_on,88,73,30
1,note_on,84,63,0
1,note_on,76,63,0
1,note_on,76,0,90
1,note_on,84,0,0
1,note_on,88,0,0
1,note_on,86,72,30
1,note_on,83,60,0
1,note_on,74,60,0
1,note_on,74,0,90
1,note_on,83,0,0
1,note_on,86,0,0
1,note_on,84,72,30
1,note_on,81,62,0
1,note_on,72,62,0
1,note_on,72,0,90
1,note_on,81,0,0
1,note_on,84,0,0
1,note_on,71,62,30
1,note_on,83,72,0
1,note_on,80,62,0
1,note_on,80,0,90
1,note_on,83,0,0
1,note_on,71,0,0
1,note_on,84,76,30
1,note_on,81,64,0
1,note_on,72,64,0
1,note_on,72,0,720
1,note_on,81,0,0
1,note_on,84,0,0
1,note_on,86,71,0
1,note_on,83,59,0
1,note_on,74,59,0
1,note_on,74,0,120
1,note_on,83,0,0
1,note_on,86,0,0
1,note_on,88,71,0
1,note_on,84,59,0
1,note_on,76,59,0
1,note_on,76,0,120
1,note_on,84,0,0
1,note_on,88,0,0
1,note_on,74,64,0
1,note_on,83,76,0
1,note_on,86,76,0
1,note_on,86,0,120
1,note_on,83,0,0
1,note_on,74,0,0
1,note_on,84,74,0
1,note_on,81,63,0
1,note_on,72,63,0
1,note_on,72,0,120
1,note_on,81,0,0
1,note_on,84,0,0
1,note_on,83,72,0
1,note_on,80,60,0
1,note_on,71,60,0
1,note_on,71,0,120
1,note_on,80,0,0
1,note_on,83,0,0
1,note_on,69,59,0
1,note_on,77,59,0
1,note_on,81,71,0
1,note_on,81,0,120
1,note_on,77,0,0
1,note_on,69,0,0
1,note_on,68,57,0
1,note_on,76,57,0
1,note_on,80,68,0
1,note_on,80,0,480
1,note_on,76,0,0
1,note_on,68,0,0
1,note_on,100,94,0
1,note_on,96,80,0
1,note_on,88,80,0
1,note_on,88,0,720
1,note_on,96,0,0
1,note_on,100,0,0
1,note_on,98,71,0
1,note_on,95,59,0
1,note_on,86,59,0
1,note_on,86,0,90
1,note_on,95,0,0
1,note_on,98,0,0
1,note_on,84,59,30
1,note_on,93,59,0
1,note_on,96,71,0
1,note_on,96,0,90
1,note_on,93,0,0
1,note_on,84,0,0
1,note_on,95,78,30
1,note_on,92,78,0
1,note_on,83,65,0
1,note_on,83,0,90
1,note_on,92,0,0
1,note_on,95,0,0
1,note_on,81,59,30
1,note_on,89,59,0
1,note_on,93,71,0
1,note_on,93,0,90
1,note_on,89,0,0
1,note_on,81,0,0
1,note_on,80,63,30
1,note_on,88,63,0
1,note_on,92,73,0
1,note_on,92,0,90
1,note_on,88,0,0
1,note_on,80,0,0
1,note_on,77,59,30
1,note_on,86,59,0
1,note_on,89,71,0
1,note_on,89,0,90
1,note_on,86,0,0
1,note_on,77,0,0
1,note_on,88,73,30
1,note_on,84,63,0
1,note_on,76,63,0
1,note_on,76,0,90
1,note_on,84,0,0
1,note_on,88,0,0
1,note_on,86,72,30
1,note_on,83,62,0
1,note_on,74,62,0
1,note_on,74,0,90
1,note_on,83,0,0
1,note_on,86,0,0
1,note_on,84,74,30
1,note_on,81,63,0
1,note_on,72,63,0
1,note_on,72,0,90
1,note_on,81,0,0
1,note_on,84,0,0
1,note_on,83,73,30
1,note_on,80,63,0
1,note_on,80,0,90
1,note_on,83,0,0
1,note_on,84,72,30
1,note_on,81,62,0
1,note_on,72,62,0
1,note_on,72,0,720
1,note_on,81,0,0
1,note_on,84,0,0
1,note_on,86,71,0
1,note_on,83,59,0
1,note_on,74,59,0
1,note_on,74,0,120
1,note_on,83,0,0
1,note_on,86,0,0
1,note_on,88,71,0
1,note_on,84,59,0
1,note_on,76,59,0
1,note_on,76,0,120
1,note_on,84,0,0
1,note_on,88,0,0
1,note_on,74,64,0
1,note_on,86,76,0
1,note_on,86,0,120
1,note_on,74,0,0
1,note_on,84,74,0
1,note_on,72,63,0
1,note_on,72,0,120
1,note_on,84,0,0
1,note_on,83,72,0
1,note_on,71,60,0
1,note_on,71,0,120
1,note_on,83,0,0
1,note_on,69,59,0
1,note_on,81,71,0
1,note_on,81,0,120
1,note_on,69,0,0
1,note_on,68,57,0
1,note_on,80,68,0
1,note_on,80,0,480
1,note_on,68,0,0
1,note_on,85,94,0
1,note_on,76,80,0
1,note_on,73,80,0
1,note_on,76,0,480
1,note_on,81,90,0
1,note_on,81,0,120
1,note_on,73,0,0
1,note_on,85,0,0
1,note_on,86,79,120
1,note_on,83,55,0
1,note_on,74,55,0
1,note_on,74,0,90
1,note_on,83,0,0
1,note_on,86,0,0
1,note_on,76,66,30
1,note_on,85,66,0
1,note_on,88,79,0
1,note_on,88,0,90
1,note_on,85,0,0
1,note_on,76,0,0
1,note_on,89,81,30
1,note_on,86,67,0
1,note_on,77,67,0
1,note_on,77,0,90
1,note_on,86,0,0
1,note_on,89,0,0
1,note_on,79,71,30
1,note_on,88,71,0
1,note_on,91,83,0
1,note_on,91,0,90
1,note_on,88,0,0
1,note_on,79,0,0
1,note_on,81,73,30
1,note_on,89,73,0
1,note_on,93,86,0
1,note_on,93,0,90
1,note_on,89,0,0
1,note_on,81,0,0
1,note_on,83,75,30
1,note_on,91,75,0
1,note_on,95,87,0
1,note_on,95,0,90
1,note_on,91,0,0
1,note_on,83,0,0
1,note_on,97,91,30
1,note_on,93,76,0
1,note_on,85,76,0
1,note_on,85,0,90
1,note_on,93,0,0
1,note_on,97,0,0
1,note_on,98,93,30
1,note_on,95,78,0
1,note_on,86,78,0
1,note_on,86,0,90
1,note_on,95,0,0
1,note_on,98,0,0
1,note_on,100,97,30
1,note_on,97,81,0
1,note_on,88,81,0
1,note_on,88,0,90
1,note_on,97,0,0
1,note_on,100,0,0
1,note_on,98,83,30
1,note_on,101,99,0
1,note_on,89,83,0
1,note_on,89,0,90
1,note_on,101,0,0
1,note_on,98,0,0
1,note_on,83,94,30
1,note_on,74,80,0
1,note_on,71,80,0
1,note_on,74,0,480
1,note_on,79,90,0
1,note_on,79,0,120
1,note_on,71,0,0
1,note_on,83,0,0
1,note_on,84,79,120
1,note_on,81,55,0
1,note_on,72,55,0
1,note_on,72,0,90
1,note_on,81,0,0
1,note_on,84,0,0
1,note_on,74,66,30
1,note_on,83,66,0
1,note_on,86,79,0
1,note_on,86,0,90
1,note_on,83,0,0
1,note_on,74,0,0
1,note_on,88,81,30
1,note_on,84,67,0
1,note_on,76,67,0
1,note_on,76,0,90
1,note_on,84,0,0
1,note_on,88,0,0
1,note_on,77,71,30
1,note_on,86,71,0
1,note_on,89,83,0
1,note_on,89,0,90
1,note_on,86,0,0
1,note_on,77,0,0
1,note_on,79,73,30
1,note_on,88,73,0
1,note_on,91,86,0
1,note_on,91,0,90
1,note_on,88,0,0
1,note_on,79,0,0
1,note_on,81,75,30
1,note_on,89,75,0
1,note_on,93,87,0
1,note_on,93,0,90
1,note_on,89,0,0
1,note_on,81,0,0
1,note_on,95,91,30
1,note_on,91,76,0
1,note_on,83,76,0
1,note_on,83,0,90
1,note_on,91,0,0
1,note_on,95,0,0
1,note_on,96,93,30
1,note_on,93,78,0
1,note_on,84,78,0
1,note_on,84,0,90
1,note_on,93,0,0
1,note_on,96,0,0
1,note_on,98,97,30
1,note_on,95,81,0
1,note_on,86,81,0
1,note_on,86,0,90
1,note_on,95,0,0
1,note_on,98,0,0
1,note_on,96,83,30
1,note_on,100,99,0
1,note_on,88,83,0
1,note_on,88,0,90
1,note_on,100,0,0
1,note_on,96,0,0
1,note_on,89,79,30
1,note_on,95,79,0
1,note_on,92,79,0
1,note_on,101,93,0
1,note_on,101,0,90
1,note_on,89,0,0
1,note_on,95,0,0
1,note_on,92,0,0
1,note_on,86,75,30
1,note_on,98,90,0
1,note_on,98,0,90
1,note_on,86,0,0
1,note_on,83,72,30
1,note_on,95,86,0
1,note_on,95,0,90
1,note_on,83,0,0
1,note_on,80,72,30
1,note_on,92,86,0
1,note_on,92,0,90
1,note_on,80,0,0
1,note_on,77,71,30
1,note_on,80,71,0
1,note_on,83,71,0
1,note_on,89,83,0
1,note_on,89,0,90
1,note_on,77,0,0
1,note_on,80,0,0
1,note_on,83,0,0
1,note_on,75,65,30
1,note_on,87,77,0
1,note_on,87,0,90
1,note_on,75,0,0
1,note_on,76,70,30
1,note_on,88,82,0
1,note_on,88,0,90
1,note_on,76,0,0
1,note_on,74,74,30
1,note_on,86,89,0
1,note_on,86,0,90
1,note_on,74,0,0
1,note_on,84,79,30
1,note_on,90,79,0
1,note_on,87,79,0
1,note_on,96,93,0
1,note_on,96,0,90
1,note_on,84,0,0
1,note_on,90,0,0
1,note_on,87,0,0
1,note_on,81,75,30
1,note_on,93,90,0
1,note_on,93,0,90
1,note_on,81,0,0
1,note_on,78,72,30
1,note_on,90,86,0
1,note_on,90,0,90
1,note_on,78,0,0
1,note_on,75,72,30
1,note_on,87,86,0
1,note_on,87,0,90
1,note_on,75,0,0
1,note_on,72,71,30
1,note_on,75,71,0
1,note_on,78,71,0
1,note_on,84,83,0
1,note_on,84,0,90
1,note_on,72,0,0
1,note_on,75,0,0
1,note_on,78,0,0
1,note_on,70,65,30
1,note_on,82,77,0
1,note_on,82,0,90
1,note_on,70,0,0
1,note_on,71,70,30
1,note_on,83,82,0
1,note_on,83,0,90
1,note_on,71,0,0
1,note_on,69,74,30
1,note_on,81,89,0
1,note_on,81,0,90
1,note_on,69,0,0
1,note_on,65,66,30
1,note_on,71,66,0
1,note_on,69,66,0
1,note_on,77,79,0
1,note_on,77,0,90
1,note_on,65,0,0
1,note_on,71,0,0
1,note_on,69,0,0
1,note_on,63,63,30
1,note_on,75,75,0
1,note_on,75,0,90
1,note_on,63,0,0
1,note_on,64,61,30
1,note_on,76,72,0
1,note_on,76,0,90
1,note_on,64,0,0
1,note_on,62,61,30
1,note_on,74,72,0
1,note_on,74,0,90
1,note_on,62,0,0
1,note_on,61,60,30
1,note_on,73,71,0
1,note_on,73,0,90
1,note_on,61,0,0
1,note_on,59,54,30
1,note_on,71,65,0
1,note_on,71,0,90
1,note_on,59,0,0
1,note_on,60,59,30
1,note_on,72,70,0
1,note_on,72,0,90
1,note_on,60,0,0
1,note_on,59,63,30
1,note_on,71,74,0
1,note_on,71,0,90
1,note_on,59,0,0
1,note_on,62,63,30
1,note_on,65,63,0
1,note_on,57,63,0
1,note_on,69,75,0
1,note_on,65,0,480
1,note_on,62,0,0
1,note_on,60,44,0
1,note_on,64,52,0
1,note_on,64,0,240
1,note_on,69,0,0
1,note_on,57,0,0
1,note_on,60,0,0
1,note_on,88,52,240
1,note_on,88,0,80
1,note_on,89,45,0
1,note_on,89,0,80
1,note_on,88,45,0
1,note_on,88,0,80
1,note_on,84,49,0
1,note_on,72,33,240
1,note_on,76,33,0
1,note_on,76,0,120
1,note_on,72,0,0
1,note_on,84,0,120
1,note_on,81,48,0
1,note_on,83,45,80
1,note_on,81,0,10
1,note_on,81,45,70
1,note_on,83,0,10
1,note_on,83,47,70
1,note_on,81,0,10
1,note_on,84,45,70
1,note_on,83,0,10
1,note_on,83,45,70
1,note_on,84,0,10
1,note_on,80,47,70
1,note_on,83,0,10
1,note_on,81,44,70
1,note_on,80,0,10
1,note_on,80,44,70
1,note_on,81,0,10
1,note_on,76,46,70
1,note_on,80,0,10
1,note_on,77,41,70
1,note_on,76,0,10
1,note_on,76,42,70
1,note_on,77,0,10
1,note_on,62,30,70
1,note_on,64,30,0
1,note_on,71,30,0
1,note_on,76,0,10
1,note_on,62,0,110
1,note_on,64,0,0
1,note_on,71,0,0
1,note_on,88,52,120
1,note_on,88,0,80
1,note_on,89,45,0
1,note_on,89,0,80
1,note_on,88,45,0
1,note_on,88,0,80
1,note_on,84,49,0
1,note_on,72,37,240
1,note_on,76,37,0
1,note_on,76,0,120
1,note_on,72,0,0
1,note_on,84,0,120
1,note_on,64,45,0
1,note_on,60,54,0
1,note_on,60,0,80
1,note_on,62,53,0
1,note_on,62,0,80
1,note_on,60,56,0
1,note_on,60,0,80
1,note_on,64,0,0
1,note_on,64,51,0
1,note_on,59,63,0
1,note_on,59,0,80
1,note_on,60,63,0
1,note_on,60,0,80
1,note_on,59,67,0
1,note_on,59,0,80
1,note_on,64,0,0
1,note_on,63,56,0
1,note_on,69,72,0
1,note_on,69,0,80
1,note_on,71,67,0
1,note_on,71,0,80
1,note_on,69,68,0
1,note_on,69,0,80
1,note_on,63,0,0
1,note_on,64,56,0
1,note_on,68,74,0
1,note_on,68,0,80
1,note_on,69,66,0
1,note_on,69,0,80
1,note_on,68,69,0
1,note_on,68,0,80
1,note_on,64,0,0
1,note_on,88,52,240
1,note_on,88,0,80
1,note_on,89,45,0
1,note_on,89,0,80
1,note_on,88,45,0
1,note_on,88,0,80
1,note_on,84,49,0
1,note_on,72,33,240
1,note_on,76,33,0
1,note_on,76,0,120
1,note_on,72,0,0
1,note_on,84,0,120
1,note_on,81,48,0
1,note_on,83,45,80
1,note_on,81,0,10
1,note_on,81,45,70
1,note_on,83,0,10
1,note_on,83,47,70
1,note_on,81,0,10
1,note_on,84,45,70
1,note_on,83,0,10
1,note_on,83,45,70
1,note_on,84,0,10
1,note_on,80,47,70
1,note_on,83,0,10
1,note_on,81,44,70
1,note_on,80,0,10
1,note_on,80,44,70
1,note_on,81,0,10
1,note_on,76,46,70
1,note_on,80,0,10
1,note_on,77,41,70
1,note_on,76,0,10
1,note_on,76,42,70
1,note_on,77,0,10
1,note_on,62,30,70
1,note_on,64,30,0
1,note_on,71,30,0
1,note_on,76,0,10
1,note_on,62,0,110
1,note_on,64,0,0
1,note_on,71,0,0
1,note_on,88,52,120
1,note_on,88,0,80
1,note_on,89,45,0
1,note_on,89,0,80
1,note_on,88,45,0
1,note_on,88,0,80
1,note_on,84,49,0
1,note_on,72,37,240
1,note_on,76,37,0
1,note_on,76,0,120
1,note_on,72,0,0
1,note_on,84,0,120
1,note_on,64,45,0
1,note_on,60,54,0
1,note_on,60,0,80
1,note_on,62,53,0
1,note_on,62,0,80
1,note_on,60,56,0
1,note_on,60,0,80
1,note_on,64,0,0
1,note_on,64,51,0
1,note_on,59,63,0
1,note_on,59,0,80
1,note_on,60,63,0
1,note_on,60,0,80
1,note_on,59,67,0
1,note_on,59,0,80
1,note_on,64,0,0
1,note_on,63,56,0
1,note_on,69,72,0
1,note_on,69,0,80
1,note_on,71,67,0
1,note_on,71,0,80
1,note_on,69,68,0
1,note_on,69,0,80
1,note_on,63,0,0
1,note_on,64,56,0
1,note_on,68,74,0
1,note_on,68,0,80
1,note_on,69,66,0
1,note_on,69,0,80
1,note_on,68,69,0
1,note_on,68,0,80
1,note_on,64,0,0
1,note_on,88,52,240
1,note_on,88,0,80
1,note_on,89,45,0
1,note_on,89,0,80
1,note_on,88,45,0
1,note_on,88,0,80
1,note_on,85,49,0
1,note_on,73,33,240
1,note_on,76,33,0
1,note_on,76,0,120
1,note_on,73,0,0
1,note_on,85,0,120
1,note_on,81,48,0
1,note_on,82,45,80
1,note_on,81,0,10
1,note_on,81,45,70
1,note_on,82,0,10
1,note_on,86,47,70
1,note_on,81,0,10
1,note_on,88,45,70
1,note_on,86,0,10
1,note_on,86,45,70
1,note_on,88,0,10
1,note_on,86,0,80
1,note_on,64,53,70
1,note_on,70,62,0
1,note_on,69,62,80
1,note_on,70,0,10
1,note_on,64,0,0
1,note_on,69,0,80
1,note_on,62,52,70
1,note_on,67,61,0
1,note_on,65,61,80
1,note_on,67,0,10
1,note_on,62,0,0
1,note_on,65,0,80
1,note_on,86,52,230
1,note_on,86,0,80
1,note_on,88,45,0
1,note_on,88,0,80
1,note_on,86,45,0
1,note_on,86,0,80
1,note_on,83,49,0
1,note_on,71,33,240
1,note_on,74,33,0
1,note_on,74,0,120
1,note_on,71,0,0
1,note_on,83,0,120
1,note_on,79,48,0
1,note_on,81,45,80
1,note_on,79,0,10
1,note_on,79,45,70
1,note_on,81,0,10
1,note_on,84,47,70
1,note_on,79,0,10
1,note_on,86,45,70
1,note_on,84,0,10
1,note_on,84,45,70
1,note_on,86,0,10
1,note_on,84,0,80
1,note_on,62,53,70
1,note_on,69,62,0
1,note_on,67,62,80
1,note_on,69,0,10
1,note_on,62,0,0
1,note_on,67,0,80
1,note_on,60,52,70
1,note_on,65,61,0
1,note_on,64,61,80
1,note_on,65,0,10
1,note_on,60,0,0
1,note_on,64,0,80
1,note_on,86,52,230
1,note_on,86,0,80
1,note_on,88,45,0
1,note_on,88,0,80
1,note_on,86,45,0
1,note_on,86,0,80
1,note_on,89,49,0
1,note_on,77,33,240
1,note_on,80,33,0
1,note_on,80,0,120
1,note_on,77,0,0
1,note_on,89,0,120
1,note_on,62,36,0
1,note_on,65,36,0
1,note_on,68,43,0
1,note_on,68,0,40
1,note_on,65,0,0
1,note_on,62,0,0
1,note_on,64,33,0
1,note_on,64,0,40
1,note_on,62,33,0
1,note_on,62,0,20
1,note_on,84,52,140
1,note_on,84,0,80
1,note_on,86,45,0
1,note_on,86,0,80
1,note_on,84,45,0
1,note_on,84,0,80
1,note_on,88,49,0
1,note_on,76,33,240
1,note_on,81,33,0
1,note_on,81,0,120
1,note_on,76,0,0
1,note_on,88,0,120
1,note_on,60,36,0
1,note_on,64,43,0
1,note_on,64,0,40
1,note_on,60,0,0
1,note_on,62,33,0
1,note_on,62,0,40
1,note_on,60,33,0
1,note_on,60,0,20
1,note_on,65,45,140
1,note_on,71,45,0
1,note_on,71,0,40
1,note_on,65,0,0
1,note_on,69,31,0
1,note_on,72,31,0
1,note_on,72,0,40
1,note_on,69,0,0
1,note_on,65,27,0
1,note_on,71,27,0
1,note_on,71,0,20
1,note_on,65,0,0
1,note_on,69,47,140
1,note_on,77,47,0
1,note_on,77,0,40
1,note_on,69,0,0
1,note_on,71,32,0
1,note_on,79,32,0
1,note_on,79,0,40
1,note_on,71,0,0
1,note_on,69,28,0
1,note_on,77,28,0
1,note_on,77,0,20
1,note_on,69,0,0
1,note_on,68,49,140
1,note_on,76,49,0
1,note_on,76,0,40
1,note_on,68,0,0
1,note_on,77,34,0
1,note_on,71,34,0
1,note_on,71,0,40
1,note_on,77,0,0
1,note_on,68,30,0
1,note_on,76,30,0
1,note_on,76,0,20
1,note_on,68,0,0
1,note_on,74,51,140
1,note_on,83,51,0
1,note_on,83,0,40
1,note_on,74,0,0
1,note_on,76,35,0
1,note_on,84,35,0
1,note_on,84,0,40
1,note_on,76,0,0
1,note_on,74,31,0
1,note_on,83,31,0
1,note_on,83,0,20
1,note_on,74,0,0
1,note_on,72,53,140
1,note_on,81,53,0
1,note_on,81,0,40
1,note_on,72,0,0
1,note_on,76,36,0
1,note_on,83,36,0
1,note_on,83,0,40
1,note_on,76,0,0
1,note_on,72,32,0
1,note_on,81,32,0
1,note_on,81,0,20
1,note_on,72,0,0
1,note_on,81,45,140
1,note_on,89,45,0
1,note_on,89,0,40
1,note_on,81,0,0
1,note_on,86,31,0
1,note_on,91,31,0
1,note_on,91,0,40
1,note_on,86,0,0
1,note_on,81,27,0
1,note_on,89,27,0
1,note_on,89,0,20
1,note_on,81,0,0
1,note_on,96,40,140
1,note_on,88,34,0
1,note_on,84,34,0
1,note_on,84,0,120
1,note_on,88,0,0
1,note_on,96,0,0
1,note_on,64,83,360
1,note_on,57,67,0
1,note_on,60,67,0
1,note_on,60,0,120
1,note_on,57,0,0
1,note_on,64,0,0
1,note_on,64,61,240
1,note_on,64,0,120
1,note_on,64,61,120
1,note_on,62,51,0
1,note_on,62,0,120
1,note_on,64,0,0
1,note_on,64,58,120
1,note_on,60,46,0
1,note_on,60,0,90
1,note_on,64,0,0
1,note_on,64,68,150
1,note_on,59,50,0
1,note_on,59,0,120
1,note_on,64,0,0
1,note_on,71,60,120
1,note_on,59,45,0
1,note_on,64,45,0
1,note_on,64,0,120
1,note_on,59,0,0
1,note_on,71,0,0
1,note_on,64,53,120
1,note_on,57,56,0
1,note_on,57,0,120
1,note_on,64,0,0
1,note_on,64,52,120
1,note_on,59,54,0
1,note_on,59,0,90
1,note_on,64,0,0
1,note_on,64,83,30
1,note_on,57,67,0
1,note_on,60,67,0
1,note_on,60,0,120
1,note_on,57,0,0
1,note_on,64,0,0
1,note_on,64,61,240
1,note_on,64,0,120
1,note_on,64,61,120
1,note_on,62,51,0
1,note_on,62,0,120
1,note_on,64,0,0
1,note_on,64,58,120
1,note_on,60,46,0
1,note_on,60,0,90
1,note_on,64,0,0
1,note_on,64,63,150
1,note_on,59,50,0
1,note_on,59,0,120
1,note_on,64,0,0
1,note_on,69,61,120
1,note_on,59,49,0
1,note_on,63,49,0
1,note_on,63,0,120
1,note_on,59,0,0
1,note_on,69,0,0
1,note_on,68,61,120
1,note_on,64,49,0
1,note_on,59,49,0
1,note_on,59,0,120
1,note_on,64,0,0
1,note_on,68,0,0
1,note_on,64,56,120
1,note_on,64,0,90
1,note_on,64,71,30
1,note_on,76,88,0
1,note_on,69,71,0
1,note_on,72,71,0
1,note_on,72,0,120
1,note_on,64,0,0
1,note_on,76,0,0
1,note_on,69,0,0
1,note_on,64,53,240
1,note_on,76,66,0
1,note_on,76,0,120
1,note_on,64,0,0
1,note_on,74,66,120
1,note_on,64,53,0
1,note_on,76,53,4
1,note_on,64,0,116
1,note_on,74,0,0
1,note_on,76,0,4
1,note_on,64,50,116
1,note_on,76,64,0
1,note_on,72,50,0
1,note_on,72,0,90
1,note_on,76,0,0
1,note_on,64,0,0
1,note_on,64,55,150
1,note_on,76,69,0
1,note_on,71,55,0
1,note_on,71,0,120
1,note_on,76,0,0
1,note_on,64,0,0
1,note_on,83,62,120
1,note_on,71,48,0
1,note_on,71,0,120
1,note_on,83,0,0
1,note_on,64,48,120
1,note_on,76,62,0
1,note_on,69,53,0
1,note_on,69,0,120
1,note_on,76,0,0
1,note_on,64,0,0
1,note_on,64,48,120
1,note_on,76,62,0
1,note_on,71,52,0
1,note_on,71,0,90
1,note_on,76,0,0
1,note_on,64,0,0
1,note_on,64,71,30
1,note_on,76,88,0
1,note_on,69,71,0
1,note_on,72,71,0
1,note_on,72,0,120
1,note_on,64,0,0
1,note_on,76,0,0
1,note_on,69,0,0
1,note_on,76,68,240
1,note_on,64,57,0
1,note_on,64,0,120
1,note_on,76,0,0
1,note_on,74,70,120
1,note_on,76,59,0
1,note_on,64,59,0
1,note_on,64,0,120
1,note_on,76,0,0
1,note_on,74,0,0
1,note_on,64,54,120
1,note_on,76,69,0
1,note_on,72,54,0
1,note_on,72,0,90
1,note_on,76,0,0
1,note_on,64,0,0
1,note_on,64,63,150
1,note_on,76,78,0
1,note_on,71,63,0
1,note_on,71,0,120
1,note_on,76,0,0
1,note_on,64,0,0
1,note_on,81,77,120
1,note_on,69,60,0
1,note_on,75,60,0
1,note_on,75,0,120
1,note_on,69,0,0
1,note_on,81,0,0
1,note_on,80,79,120
1,note_on,76,61,0
1,note_on,68,61,0
1,note_on,68,0,120
1,note_on,76,0,0
1,note_on,80,0,0
1,note_on,76,82,120
1,note_on,68,70,0
1,note_on,71,70,0
1,note_on,71,0,90
1,note_on,68,0,0
1,note_on,76,0,0
1,note_on,76,94,30
1,note_on,69,73,0
1,note_on,73,77,0
1,note_on,64,73,0
1,note_on,64,0,120
1,note_on,76,0,0
1,note_on,69,0,0
1,note_on,73,0,0
1,note_on,64,55,240
1,note_on,74,55,0
1,note_on,69,55,0
1,note_on,76,70,0
1,note_on,76,0,120
1,note_on,64,0,0
1,note_on,74,0,0
1,note_on,69,0,0
1,note_on,76,65,120
1,note_on,69,55,0
1,note_on,64,55,0
1,note_on,64,0,120
1,note_on,69,0,0
1,note_on,76,0,0
1,note_on,64,53,120
1,note_on,76,67,0
1,note_on,73,53,0
1,note_on,73,0,90
1,note_on,76,0,0
1,note_on,64,0,0
1,note_on,74,63,150
1,note_on,86,78,0
1,note_on,77,63,0
1,note_on,77,0,240
1,note_on,86,0,0
1,note_on,74,0,0
1,note_on,76,59,0
1,note_on,88,75,0
1,note_on,79,59,0
1,note_on,79,0,240
1,note_on,88,0,0
1,note_on,76,0,0
1,note_on,77,61,0
1,note_on,89,78,0
1,note_on,81,61,0
1,note_on,81,0,240
1,note_on,89,0,0
1,note_on,77,0,0
1,note_on,74,63,0
1,note_on,86,80,0
1,note_on,77,63,0
1,note_on,77,0,90
1,note_on,86,0,0
1,note_on,74,0,0
1,note_on,62,73,30
1,note_on,74,93,0
1,note_on,67,73,0
1,note_on,71,73,0
1,note_on,71,0,120
1,note_on,62,0,0
1,note_on,74,0,0
1,note_on,67,0,0
1,note_on,72,58,240
1,note_on,67,58,0
1,note_on,74,70,0
1,note_on,62,58,0
1,note_on,62,0,120
1,note_on,72,0,0
1,note_on,67,0,0
1,note_on,74,0,0
1,note_on,67,58,120
1,note_on,74,70,0
1,note_on,62,58,0
1,note_on,62,0,120
1,note_on,74,0,0
1,note_on,67,0,0
1,note_on,62,53,120
1,note_on,74,67,0
1,note_on,71,53,0
1,note_on,71,0,90
1,note_on,74,0,0
1,note_on,62,0,0
1,note_on,76,63,150
1,note_on,88,79,0
1,note_on,84,63,0
1,note_on,84,0,240
1,note_on,88,0,0
1,note_on,76,0,0
1,note_on,89,76,0
1,note_on,77,60,0
1,note_on,84,60,0
1,note_on,84,0,240
1,note_on,77,0,0
1,note_on,89,0,0
1,note_on,91,78,0
1,note_on,84,62,0
1,note_on,79,62,0
1,note_on,79,0,240
1,note_on,84,0,0
1,note_on,91,0,0
1,note_on,88,80,0
1,note_on,76,65,0
1,note_on,84,65,0
1,note_on,84,0,90
1,note_on,76,0,0
1,note_on,88,0,0
1,note_on,89,90,30
1,note_on,80,70,0
1,note_on,83,75,0
1,note_on,77,70,0
1,note_on,77,0,120
1,note_on,89,0,0
1,note_on,80,0,0
1,note_on,83,0,0
1,note_on,83,58,240
1,note_on,80,58,0
1,note_on,86,70,0
1,note_on,74,58,0
1,note_on,74,0,180
1,note_on,83,0,0
1,note_on,80,0,0
1,note_on,86,0,0
1,note_on,76,58,60
1,note_on,83,58,0
1,note_on,88,70,0
1,note_on,80,58,0
1,note_on,80,0,180
1,note_on,76,0,0
1,note_on,83,0,0
1,note_on,88,0,0
1,note_on,77,53,60
1,note_on,80,53,0
1,note_on,89,67,0
1,note_on,83,53,0
1,note_on,83,0,120
1,note_on,77,0,0
1,note_on,80,0,0
1,note_on,89,0,0
1,note_on,76,60,120
1,note_on,88,75,0
1,note_on,81,60,0
1,note_on,81,0,180
1,note_on,88,0,0
1,note_on,76,0,0
1,note_on,80,54,60
1,note_on,86,67,0
1,note_on,74,54,0
1,note_on,77,54,0
1,note_on,77,0,180
1,note_on,80,0,0
1,note_on,86,0,0
1,note_on,74,0,0
1,note_on,76,54,60
1,note_on,84,67,0
1,note_on,81,54,0
1,note_on,72,54,0
1,note_on,72,0,180
1,note_on,76,0,0
1,note_on,84,0,0
1,note_on,81,0,0
1,note_on,76,56,60
1,note_on,85,67,0
1,note_on,73,56,0
1,note_on,82,56,0
1,note_on,82,0,120
1,note_on,76,0,0
1,note_on,85,0,0
1,note_on,73,0,0
1,note_on,82,66,120
1,note_on,74,66,0
1,note_on,86,83,0
1,note_on,77,66,0
1,note_on,77,0,180
1,note_on,82,0,0
1,note_on,74,0,0
1,note_on,86,0,0
1,note_on,89,62,60
1,note_on,93,78,0
1,note_on,81,62,0
1,note_on,84,62,0
1,note_on,84,0,180
1,note_on,89,0,0
1,note_on,93,0,0
1,note_on,81,0,0
1,note_on,84,65,60
1,note_on,93,83,0
1,note_on,88,65,0
1,note_on,81,65,0
1,note_on,81,0,180
1,note_on,84,0,0
1,note_on,93,0,0
1,note_on,88,0,0
1,note_on,83,71,60
1,note_on,92,87,0
1,note_on,80,71,0
1,note_on,88,71,0
1,note_on,88,0,120
1,note_on,83,0,0
1,note_on,92,0,0
1,note_on,80,0,0
1,note_on,81,75,0
1,note_on,84,76,0
1,note_on,88,78,0
1,note_on,93,92,0
1,note_on,93,0,480
1,note_on,81,0,0
1,note_on,84,0,0
1,note_on,88,0,0
1,note_on,72,76,0
1,note_on,76,76,0
1,note_on,81,83,0
1,note_on,81,0,120
1,note_on,76,0,0
1,note_on,72,0,0
1,note_on,76,38,300
1,note_on,84,56,60
1,note_on,84,0,60
1,note_on,81,40,60
1,note_on,81,0,60
1,note_on,76,0,60
1,note_on,76,41,0
1,note_on,76,0,60
1,note_on,72,36,60
1,note_on,72,0,60
1,note_on,69,36,60
1,note_on,69,0,60
1,note_on,76,38,60
1,note_on,76,0,60
1,note_on,72,38,60
1,note_on,72,0,60
1,note_on,69,38,60
1,note_on,69,0,45
1,note_on,76,38,15
1,note_on,83,64,60
1,note_on,83,0,60
1,note_on,80,40,60
1,note_on,80,0,60
1,note_on,76,0,60
1,note_on,76,41,0
1,note_on,76,0,60
1,note_on,86,41,60
1,note_on,86,0,60
1,note_on,83,45,60
1,note_on,83,0,60
1,note_on,76,41,60
1,note_on,76,0,60
1,note_on,80,38,60
1,note_on,80,0,60
1,note_on,76,38,60
1,note_on,76,0,47
1,note_on,76,38,13
1,note_on,84,61,60
1,note_on,84,0,60
1,note_on,81,40,60
1,note_on,81,0,60
1,note_on,76,0,60
1,note_on,76,41,0
1,note_on,76,0,60
1,note_on,72,41,60
1,note_on,72,0,60
1,note_on,69,39,60
1,note_on,69,0,60
1,note_on,76,45,60
1,note_on,76,0,60
1,note_on,72,40,60
1,note_on,72,0,60
1,note_on,69,38,60
1,note_on,69,0,44
1,note_on,76,38,16
1,note_on,83,59,60
1,note_on,83,0,60
1,note_on,80,40,60
1,note_on,80,0,60
1,note_on,76,0,60
1,note_on,76,37,0
1,note_on,76,0,60
1,note_on,76,31,60
1,note_on,76,0,60
1,note_on,71,38,60
1,note_on,71,0,60
1,note_on,68,34,60
1,note_on,68,0,60
1,note_on,84,38,240
1,note_on,88,38,30
1,note_on,96,59,30
1,note_on,96,0,60
1,note_on,93,40,60
1,note_on,93,0,60
1,note_on,88,0,56
1,note_on,84,0,4
1,note_on,88,41,0
1,note_on,88,0,60
1,note_on,84,36,60
1,note_on,84,0,60
1,note_on,81,36,60
1,note_on,81,0,60
1,note_on,88,38,60
1,note_on,88,0,60
1,note_on,84,38,60
1,note_on,84,0,60
1,note_on,81,38,60
1,note_on,81,0,51
1,note_on,83,38,9
1,note_on,88,38,30
1,note_on,95,59,30
1,note_on,95,0,60
1,note_on,92,40,60
1,note_on,92,0,60
1,note_on,88,0,54
1,note_on,83,0,6
1,note_on,88,41,0
1,note_on,88,0,60
1,note_on,98,41,60
1,note_on,98,0,60
1,note_on,95,45,60
1,note_on,95,0,60
1,note_on,88,41,60
1,note_on,88,0,60
1,note_on,92,38,60
1,note_on,92,0,60
1,note_on,88,38,60
1,note_on,88,0,52
1,note_on,84,38,8
1,note_on,88,38,30
1,note_on,96,62,30
1,note_on,96,0,60
1,note_on,93,40,60
1,note_on,93,0,60
1,note_on,88,0,56
1,note_on,84,0,4
1,note_on,88,41,0
1,note_on,88,0,60
1,note_on,84,41,60
1,note_on,84,0,60
1,note_on,81,39,60
1,note_on,81,0,60
1,note_on,88,45,60
1,note_on,88,0,60
1,note_on,84,40,60
1,note_on,84,0,60
1,note_on,81,38,60
1,note_on,81,0,48
1,note_on,83,38,12
1,note_on,88,38,30
1,note_on,95,62,30
1,note_on,95,0,60
1,note_on,92,40,60
1,note_on,92,0,60
1,note_on,88,0,55
1,note_on,83,0,5
1,note_on,88,37,0
1,note_on,88,0,60
1,note_on,83,31,60
1,note_on,83,0,60
1,note_on,80,37,60
1,note_on,80,0,60
1,note_on,71,31,60
1,note_on,71,0,60
1,note_on,76,37,60
1,note_on,76,0,170
1,note_on,76,49,10
1,note_on,88,70,60
1,note_on,88,0,120
1,note_on,85,52,0
1,note_on,85,0,120
1,note_on,76,0,0
1,note_on,81,53,0
1,note_on,81,0,120
1,note_on,76,46,0
1,note_on,76,0,120
1,note_on,69,51,120
1,note_on,69,0,120
1,note_on,67,54,0
1,note_on,67,0,120
1,note_on,64,56,0
1,note_on,64,0,120
1,note_on,65,63,0
1,note_on,65,0,60
1,note_on,62,57,60
1,note_on,62,0,60
1,note_on,86,61,60
1,note_on,86,0,60
1,note_on,81,57,60
1,note_on,81,0,60
1,note_on,65,53,300
1,note_on,65,0,60
1,note_on,62,53,60
1,note_on,62,0,54
1,note_on,79,46,6
1,note_on,86,70,60
1,note_on,86,0,120
1,note_on,83,49,0
1,note_on,83,0,120
1,note_on,79,0,0
1,note_on,79,50,0
1,note_on,79,0,120
1,note_on,77,44,0
1,note_on,77,0,120
1,note_on,71,48,120
1,note_on,71,0,120
1,note_on,65,51,0
1,note_on,65,0,120
1,note_on,62,53,0
1,note_on,62,0,120
1,note_on,64,60,0
1,note_on,64,0,60
1,note_on,60,54,60
1,note_on,60,0,60
1,note_on,84,57,60
1,note_on,84,0,60
1,note_on,79,54,60
1,note_on,79,0,60
1,note_on,64,50,300
1,note_on,64,0,60
1,note_on,60,45,60
1,note_on,60,0,60
1,note_on,83,54,60
1,note_on,83,0,60
1,note_on,81,53,60
1,note_on,89,40,0
1,note_on,89,0,60
1,note_on,81,0,0
1,note_on,80,53,60
1,note_on,80,0,60
1,note_on,77,52,60
1,note_on,86,40,0
1,note_on,86,0,60
1,note_on,77,0,0
1,note_on,76,53,60
1,note_on,76,0,60
1,note_on,74,51,60
1,note_on,83,38,0
1,note_on,83,0,60
1,note_on,74,0,0
1,note_on,72,52,60
1,note_on,72,0,60
1,note_on,71,51,60
1,note_on,80,37,0
1,note_on,80,0,60
1,note_on,71,0,0
1,note_on,69,51,60
1,note_on,69,0,60
1,note_on,67,50,60
1,note_on,76,40,0
1,note_on,76,0,60
1,note_on,67,0,0
1,note_on,64,45,180
1,note_on,72,39,0
1,note_on,72,0,60
1,note_on,64,0,0
1,note_on,60,45,180
1,note_on,69,38,0
1,note_on,69,0,60
1,note_on,60,0,0
1,note_on,57,44,180
1,note_on,64,36,0
1,note_on,64,0,60
1,note_on,57,0,0
1,note_on,81,50,300
1,note_on,71,42,0
1,note_on,71,0,60
1,note_on,81,0,0
1,note_on,77,45,60
1,note_on,74,37,0
1,note_on,74,0,60
1,note_on,77,0,0
1,note_on,83,50,300
1,note_on,71,42,0
1,note_on,71,0,60
1,note_on,83,0,0
1,note_on,80,44,60
1,note_on,74,36,0
1,note_on,74,0,60
1,note_on,80,0,0
1,note_on,81,45,60
1,note_on,72,37,0
1,note_on,72,0,60
1,note_on,81,0,0
1,note_on,60,42,180
1,note_on,60,0,60
1,note_on,57,37,60
1,note_on,57,0,60
1,note_on,93,55,540
1,note_on,81,38,0
1,note_on,84,38,0
1,note_on,93,0,1440
1,note_on,88,52,0
1,note_on,88,0,240
1,note_on,96,54,0
1,note_on,96,0,240
1,note_on,84,0,0
1,note_on,81,0,0
1,note_on,95,54,0
1,note_on,83,37,0
1,note_on,88,37,0
1,note_on,95,0,240
1,note_on,93,52,0
1,note_on,93,0,240
1,note_on,92,51,0
1,note_on,92,0,240
1,note_on,90,49,0
1,note_on,90,0,240
1,note_on,88,51,0
1,note_on,88,0,240
1,note_on,90,49,0
1,note_on,90,0,240
1,note_on,92,52,0
1,note_on,92,0,240
1,note_on,88,54,0
1,note_on,88,0,240
1,note_on,88,0,0
1,note_on,83,0,0
1,note_on,93,57,0
1,note_on,84,39,0
1,note_on,88,39,0
1,note_on,95,47,840
1,note_on,95,0,40
1,note_on,93,42,0
1,note_on,93,0,40
1,note_on,92,42,0
1,note_on,92,0,40
1,note_on,93,0,0
1,note_on,93,58,0
1,note_on,93,0,240
1,note_on,95,54,0
1,note_on,95,0,240
1,note_on,96,55,0
1,note_on,96,0,240
1,note_on,98,58,0
1,note_on,98,0,240
1,note_on,88,0,0
1,note_on,84,0,0
1,note_on,86,41,0
1,note_on,99,62,0
1,note_on,92,41,0
1,note_on,99,0,720
1,note_on,100,54,0
1,note_on,100,0,240
1,note_on,88,55,0
1,note_on,88,0,960
1,note_on,92,0,0
1,note_on,86,0,0
1,note_on,84,38,0
1,note_on,93,55,0
1,note_on,81,38,0
1,note_on,93,0,1440
1,note_on,88,56,0
1,note_on,88,0,240
1,note_on,96,55,0
1,note_on,96,0,240
1,note_on,81,0,0
1,note_on,84,0,0
1,note_on,95,54,0
1,note_on,83,37,0
1,note_on,88,37,0
1,note_on,95,0,240
1,note_on,93,51,0
1,note_on,93,0,240
1,note_on,92,51,0
1,note_on,92,0,240
1,note_on,90,51,0
1,note_on,90,0,240
1,note_on,88,52,0
1,note_on,88,0,240
1,note_on,90,51,0
1,note_on,90,0,240
1,note_on,92,52,0
1,note_on,92,0,240
1,note_on,88,54,0
1,note_on,88,0,240
1,note_on,88,0,0
1,note_on,83,0,0
1,note_on,84,39,0
1,note_on,88,39,0
1,note_on,93,57,0
1,note_on,95,47,840
1,note_on,95,0,40
1,note_on,93,42,0
1,note_on,93,0,40
1,note_on,92,42,0
1,note_on,92,0,40
1,note_on,93,0,0
1,note_on,93,58,0
1,note_on,93,0,240
1,note_on,95,54,0
1,note_on,95,0,240
1,note_on,96,55,0
1,note_on,96,0,240
1,note_on,98,57,0
1,note_on,98,0,240
1,note_on,88,0,0
1,note_on,84,0,0
1,note_on,86,41,0
1,note_on,99,59,0
1,note_on,92,41,0
1,note_on,99,0,720
1,note_on,100,54,0
1,note_on,100,0,240
1,note_on,88,55,0
1,note_on,88,0,960
1,note_on,92,0,0
1,note_on,86,0,0
1,note_on,93,55,0
1,note_on,79,38,0
1,note_on,85,38,0
1,note_on,93,0,1200
1,note_on,100,49,0
1,note_on,100,0,240
1,note_on,97,49,0
1,note_on,97,0,240
1,note_on,93,53,0
1,note_on,93,0,240
1,note_on,85,0,0
1,note_on,79,0,0
1,note_on,91,54,0
1,note_on,91,0,240
1,note_on,88,52,0
1,note_on,88,0,240
1,note_on,85,51,0
1,note_on,85,0,240
1,note_on,89,53,720
1,note_on,86,45,0
1,note_on,81,45,0
1,note_on,81,0,240
1,note_on,86,0,0
1,note_on,89,0,0
1,note_on,91,55,240
1,note_on,79,38,0
1,note_on,86,38,0
1,note_on,91,0,1200
1,note_on,98,49,0
1,note_on,98,0,240
1,note_on,95,49,0
1,note_on,95,0,240
1,note_on,91,53,0
1,note_on,91,0,240
1,note_on,86,0,0
1,note_on,79,0,0
1,note_on,89,54,0
1,note_on,89,0,240
1,note_on,86,52,0
1,note_on,86,0,240
1,note_on,83,51,0
1,note_on,83,0,240
1,note_on,88,53,720
1,note_on,84,45,0
1,note_on,79,45,0
1,note_on,79,0,240
1,note_on,84,0,0
1,note_on,88,0,0
1,note_on,89,55,240
1,note_on,83,38,0
1,note_on,83,0,1200
1,note_on,89,0,0
1,note_on,86,49,0
1,note_on,86,0,240
1,note_on,83,49,0
1,note_on,83,0,240
1,note_on,81,53,0
1,note_on,81,0,240
1,note_on,80,49,0
1,note_on,80,0,240
1,note_on,76,49,0
1,note_on,76,0,240
1,note_on,74,45,0
1,note_on,74,0,240
1,note_on,71,45,0
1,note_on,71,0,240
1,note_on,72,47,0
1,note_on,72,0,240
1,note_on,76,49,0
1,note_on,76,0,240
1,note_on,81,49,0
1,note_on,81,0,240
1,note_on,79,49,0
1,note_on,79,0,240
1,note_on,77,49,0
1,note_on,77,0,240
1,note_on,86,47,0
1,note_on,86,0,240
1,note_on,83,47,0
1,note_on,83,0,240
1,note_on,81,47,0
1,note_on,81,0,240
1,note_on,80,49,0
1,note_on,80,0,240
1,note_on,95,49,0
1,note_on,95,0,240
1,note_on,92,45,0
1,note_on,92,0,240
1,note_on,88,39,0
1,note_on,88,0,180
1,note_on,92,38,0
1,note_on,92,0,60
1,note_on,93,38,0
1,note_on,93,0,960
1,note_on,81,27,0
1,note_on,81,0,240
1,note_on,52,69,800
1,note_on,52,0,80
1,note_on,57,69,0
1,note_on,57,0,80
1,note_on,64,78,0
1,note_on,60,66,0
1,note_on,60,0,80
1,note_on,64,0,0
1,note_on,64,67,0
1,note_on,64,0,80
1,note_on,69,67,0
1,note_on,69,0,80
1,note_on,76,79,0
1,note_on,72,67,0
1,note_on,72,0,72
1,note_on,76,0,0
1,note_on,76,69,8
1,note_on,76,0,80
1,note_on,81,68,0
1,note_on,81,0,80
1,note_on,88,79,0
1,note_on,84,67,0
1,note_on,84,0,72
1,note_on,88,0,0
1,note_on,88,71,8
1,note_on,88,0,80
1,note_on,93,71,0
1,note_on,93,0,80
1,note_on,100,79,0
1,note_on,98,67,0
1,note_on,98,0,80
1,note_on,100,0,0
1,note_on,92,70,0
1,note_on,92,0,80
1,note_on,88,70,0
1,note_on,88,0,72
1,note_on,88,79,8
1,note_on,86,67,0
1,note_on,86,0,80
1,note_on,88,0,0
1,note_on,80,70,0
1,note_on,80,0,80
1,note_on,76,67,0
1,note_on,76,0,72
1,note_on,76,73,8
1,note_on,72,61,0
1,note_on,72,0,80
1,note_on,76,0,0
1,note_on,69,69,0
1,note_on,69,0,80
1,note_on,64,64,0
1,note_on,64,0,72
1,note_on,64,63,8
1,note_on,60,53,0
1,note_on,60,0,240
1,note_on,64,0,0
1,note_on,64,71,0
1,note_on,56,60,0
1,note_on,59,60,0
1,note_on,59,0,120
1,note_on,56,0,0
1,note_on,64,0,0
1,note_on,88,84,120
1,note_on,83,71,0
1,note_on,80,71,0
1,note_on,76,71,0
1,note_on,76,0,480
1,note_on,88,0,0
1,note_on,83,0,0
1,note_on,80,0,0
1,note_on,91,84,0
1,note_on,86,71,0
1,note_on,83,71,0
1,note_on,79,71,0
1,note_on,79,0,480
1,note_on,91,0,0
1,note_on,86,0,0
1,note_on,83,0,0
1,note_on,89,84,0
1,note_on,86,71,0
1,note_on,83,71,0
1,note_on,77,71,0
1,note_on,77,0,480
1,note_on,89,0,0
1,note_on,86,0,0
1,note_on,83,0,0
1,note_on,88,79,0
1,note_on,86,67,0
1,note_on,83,67,0
1,note_on,76,67,0
1,note_on,76,0,240
1,note_on,88,0,0
1,note_on,86,0,0
1,note_on,83,0,0
1,note_on,52,69,80
1,note_on,52,0,80
1,note_on,57,69,0
1,note_on,57,0,80
1,note_on,64,78,0
1,note_on,60,66,0
1,note_on,60,0,72
1,note_on,64,0,0
1,note_on,64,67,8
1,note_on,64,0,80
1,note_on,69,67,0
1,note_on,69,0,80
1,note_on,76,79,0
1,note_on,72,67,0
1,note_on,72,0,72
1,note_on,76,0,0
1,note_on,76,69,8
1,note_on,76,0,80
1,note_on,81,68,0
1,note_on,81,0,80
1,note_on,88,79,0
1,note_on,84,67,0
1,note_on,84,0,80
1,note_on,88,0,0
1,note_on,88,71,0
1,note_on,88,0,80
1,note_on,93,71,0
1,note_on,93,0,80
1,note_on,100,79,0
1,note_on,98,67,0
1,note_on,98,0,80
1,note_on,100,0,0
1,note_on,92,70,0
1,note_on,92,0,80
1,note_on,88,70,0
1,note_on,88,0,72
1,note_on,88,79,8
1,note_on,86,67,0
1,note_on,86,0,80
1,note_on,88,0,0
1,note_on,80,70,0
1,note_on,80,0,80
1,note_on,76,67,0
1,note_on,76,0,72
1,note_on,76,73,8
1,note_on,72,61,0
1,note_on,72,0,80
1,note_on,76,0,0
1,note_on,69,69,0
1,note_on,69,0,80
1,note_on,64,64,0
1,note_on,64,0,72
1,note_on,64,63,8
1,note_on,60,53,0
1,note_on,60,0,240
1,note_on,64,0,0
1,note_on,64,71,0
1,note_on,56,50,0
1,note_on,56,0,120
1,note_on,64,0,0
1,note_on,76,59,0
1,note_on,64,49,0
1,note_on,64,0,120
1,note_on,76,0,0
1,note_on,77,61,0
1,note_on,65,50,0
1,note_on,65,0,120
1,note_on,77,0,0
1,note_on,78,63,0
1,note_on,66,52,0
1,note_on,66,0,120
1,note_on,78,0,0
1,note_on,79,66,0
1,note_on,67,56,0
1,note_on,67,0,120
1,note_on,79,0,0
1,note_on,80,68,0
1,note_on,68,58,0
1,note_on,68,0,120
1,note_on,80,0,0
1,note_on,81,71,0
1,note_on,69,60,0
1,note_on,69,0,120
1,note_on,81,0,0
1,note_on,82,73,0
1,note_on,70,61,0
1,note_on,70,0,120
1,note_on,82,0,0
1,note_on,83,75,0
1,note_on,71,64,0
1,note_on,71,0,120
1,note_on,83,0,0
1,note_on,84,78,0
1,note_on,72,66,0
1,note_on,72,0,120
1,note_on,84,0,0
1,note_on,85,81,0
1,note_on,73,68,0
1,note_on,73,0,120
1,note_on,85,0,0
1,note_on,86,84,0
1,note_on,74,70,0
1,note_on,74,0,120
1,note_on,86,0,0
1,note_on,87,88,0
1,note_on,75,73,0
1,note_on,75,0,120
1,note_on,87,0,0
1,note_on,88,92,0
1,note_on,76,78,0
1,note_on,76,0,120
1,note_on,88,0,0
1,note_on,89,96,0
1,note_on,77,81,0
1,note_on,77,0,120
1,note_on,89,0,0
1,note_on,88,82,0
1,note_on,76,69,0
1,note_on,76,0,90
1,note_on,88,0,0
1,note_on,52,69,350
1,note_on,52,0,80
1,note_on,57,69,0
1,note_on,57,0,80
1,note_on,64,78,0
1,note_on,60,66,0
1,note_on,60,0,72
1,note_on,64,0,0
1,note_on,64,67,8
1,note_on,64,0,80
1,note_on,69,67,0
1,note_on,69,0,80
1,note_on,76,79,0
1,note_on,72,67,0
1,note_on,72,0,72
1,note_on,76,0,0
1,note_on,76,69,8
1,note_on,76,0,80
1,note_on,81,68,0
1,note_on,81,0,80
1,note_on,88,79,0
1,note_on,84,67,0
1,note_on,84,0,72
1,note_on,88,0,0
1,note_on,88,71,8
1,note_on,88,0,80
1,note_on,93,71,0
1,note_on,93,0,80
1,note_on,100,79,0
1,note_on,98,67,0
1,note_on,98,0,80
1,note_on,100,0,0
1,note_on,92,70,0
1,note_on,92,0,80
1,note_on,88,70,0
1,note_on,88,0,80
1,note_on,88,79,0
1,note_on,86,67,0
1,note_on,86,0,80
1,note_on,88,0,0
1,note_on,80,70,0
1,note_on,80,0,80
1,note_on,76,67,0
1,note_on,76,0,72
1,note_on,76,73,8
1,note_on,72,61,0
1,note_on,72,0,80
1,note_on,76,0,0
1,note_on,69,69,0
1,note_on,69,0,80
1,note_on,64,64,0
1,note_on,64,0,72
1,note_on,64,63,8
1,note_on,60,53,0
1,note_on,60,0,240
1,note_on,64,0,0
1,note_on,64,71,0
1,note_on,56,60,0
1,note_on,59,60,0
1,note_on,59,0,120
1,note_on,56,0,0
1,note_on,64,0,0
1,note_on,88,84,120
1,note_on,83,71,0
1,note_on,80,71,0
1,note_on,76,71,0
1,note_on,76,0,480
1,note_on,88,0,0
1,note_on,83,0,0
1,note_on,80,0,0
1,note_on,91,84,0
1,note_on,86,71,0
1,note_on,83,71,0
1,note_on,79,71,0
1,note_on,79,0,480
1,note_on,91,0,0
1,note_on,86,0,0
1,note_on,83,0,0
1,note_on,89,84,0
1,note_on,86,71,0
1,note_on,83,71,0
1,note_on,77,71,0
1,note_on,77,0,480
1,note_on,89,0,0
1,note_on,86,0,0
1,note_on,83,0,0
1,note_on,88,79,0
1,note_on,86,67,0
1,note_on,83,67,0
1,note_on,76,67,0
1,note_on,76,0,240
1,note_on,88,0,0
1,note_on,86,0,0
1,note_on,83,0,0
1,note_on,52,69,80
1,note_on,52,0,80
1,note_on,57,69,0
1,note_on,57,0,80
1,note_on,64,78,0
1,note_on,60,66,0
1,note_on,60,0,72
1,note_on,64,0,0
1,note_on,64,67,8
1,note_on,64,0,80
1,note_on,69,67,0
1,note_on,69,0,80
1,note_on,76,79,0
1,note_on,72,67,0
1,note_on,72,0,72
1,note_on,76,0,0
1,note_on,76,69,8
1,note_on,76,0,80
1,note_on,81,68,0
1,note_on,81,0,80
1,note_on,88,79,0
1,note_on,84,67,0
1,note_on,84,0,72
1,note_on,88,0,0
1,note_on,88,71,8
1,note_on,88,0,80
1,note_on,93,71,0
1,note_on,93,0,80
1,note_on,100,79,0
1,note_on,98,67,0
1,note_on,98,0,80
1,note_on,100,0,0
1,note_on,92,70,0
1,note_on,92,0,80
1,note_on,88,70,0
1,note_on,88,0,72
1,note_on,88,79,8
1,note_on,86,67,0
1,note_on,86,0,80
1,note_on,88,0,0
1,note_on,80,70,0
1,note_on,80,0,80
1,note_on,76,67,0
1,note_on,76,0,72
1,note_on,76,73,8
1,note_on,72,61,0
1,note_on,72,0,80
1,note_on,76,0,0
1,note_on,69,69,0
1,note_on,69,0,80
1,note_on,64,64,0
1,note_on,64,0,72
1,note_on,64,63,8
1,note_on,60,53,0
1,note_on,60,0,240
1,note_on,64,0,0
1,note_on,64,71,0
1,note_on,56,50,0
1,note_on,56,0,120
1,note_on,64,0,0
1,note_on,76,59,0
1,note_on,64,49,0
1,note_on,64,0,120
1,note_on,76,0,0
1,note_on,77,61,0
1,note_on,65,50,0
1,note_on,65,0,120
1,note_on,77,0,0
1,note_on,78,63,0
1,note_on,66,52,0
1,note_on,66,0,120
1,note_on,78,0,0
1,note_on,79,66,0
1,note_on,67,56,0
1,note_on,67,0,120
1,note_on,79,0,0
1,note_on,80,68,0
1,note_on,68,58,0
1,note_on,68,0,120
1,note_on,80,0,0
1,note_on,81,71,0
1,note_on,69,60,0
1,note_on,69,0,120
1,note_on,81,0,0
1,note_on,82,73,0
1,note_on,70,61,0
1,note_on,70,0,120
1,note_on,82,0,0
1,note_on,83,75,0
1,note_on,71,64,0
1,note_on,71,0,120
1,note_on,83,0,0
1,note_on,84,78,0
1,note_on,72,66,0
1,note_on,72,0,120
1,note_on,84,0,0
1,note_on,85,81,0
1,note_on,73,68,0
1,note_on,73,0,120
1,note_on,85,0,0
1,note_on,86,84,0
1,note_on,74,70,0
1,note_on,74,0,120
1,note_on,86,0,0
1,note_on,87,88,0
1,note_on,75,73,0
1,note_on,75,0,120
1,note_on,87,0,0
1,note_on,88,92,0
1,note_on,76,78,0
1,note_on,76,0,120
1,note_on,88,0,0
1,note_on,89,96,0
1,note_on,77,81,0
1,note_on,77,0,120
1,note_on,89,0,0
1,note_on,88,82,0
1,note_on,76,69,0
1,note_on,76,0,120
1,note_on,88,0,0
1,note_on,61,59,80
1,note_on,61,0,80
1,note_on,64,59,0
1,note_on,64,0,80
1,note_on,69,69,0
1,note_on,69,0,72
1,note_on,69,59,8
1,note_on,69,0,80
1,note_on,73,59,0
1,note_on,73,0,80
1,note_on,82,71,0
1,note_on,79,60,0
1,note_on,79,0,72
1,note_on,82,0,0
1,note_on,82,62,8
1,note_on,82,0,80
1,note_on,85,62,0
1,note_on,85,0,80
1,note_on,94,74,0
1,note_on,91,62,0
1,note_on,91,0,80
1,note_on,94,0,0
1,note_on,85,66,0
1,note_on,85,0,80
1,note_on,82,66,0
1,note_on,82,0,80
1,note_on,93,72,0
1,note_on,89,60,0
1,note_on,89,0,80
1,note_on,93,0,0
1,note_on,85,64,0
1,note_on,85,0,80
1,note_on,81,64,0
1,note_on,81,0,80
1,note_on,81,70,0
1,note_on,77,59,0
1,note_on,77,0,80
1,note_on,81,0,0
1,note_on,73,70,0
1,note_on,73,0,80
1,note_on,69,62,0
1,note_on,69,0,80
1,note_on,79,61,0
1,note_on,76,44,0
1,note_on,76,0,80
1,note_on,79,0,0
1,note_on,70,68,0
1,note_on,70,0,80
1,note_on,69,63,0
1,note_on,69,0,80
1,note_on,67,62,0
1,note_on,64,52,0
1,note_on,64,0,80
1,note_on,67,0,0
1,note_on,58,61,0
1,note_on,58,0,80
1,note_on,57,59,0
1,note_on,57,0,80
1,note_on,62,66,0
1,note_on,65,75,0
1,note_on,65,0,120
1,note_on,62,0,0
1,note_on,73,53,120
1,note_on,67,53,0
1,note_on,74,52,80
1,note_on,73,0,10
1,note_on,76,53,70
1,note_on,74,0,10
1,note_on,67,0,70
1,note_on,77,55,0
1,note_on,74,55,0
1,note_on,76,0,10
1,note_on,79,56,70
1,note_on,77,0,10
1,note_on,81,57,70
1,note_on,79,0,10
1,note_on,74,0,70
1,note_on,85,58,0
1,note_on,79,58,0
1,note_on,81,0,10
1,note_on,86,59,70
1,note_on,85,0,10
1,note_on,88,59,70
1,note_on,86,0,10
1,note_on,79,0,70
1,note_on,89,60,0
1,note_on,86,60,0
1,note_on,88,0,10
1,note_on,91,61,70
1,note_on,89,0,10
1,note_on,93,62,70
1,note_on,91,0,10
1,note_on,86,0,70
1,note_on,97,62,0
1,note_on,91,62,0
1,note_on,93,0,10
1,note_on,98,63,70
1,note_on,97,0,10
1,note_on,100,64,70
1,note_on,98,0,10
1,note_on,91,0,70
1,note_on,101,66,0
1,note_on,98,66,0
1,note_on,93,66,0
1,note_on,100,0,10
1,note_on,101,0,110
1,note_on,98,0,0
1,note_on,93,0,0
1,note_on,59,59,440
1,note_on,59,0,80
1,note_on,62,59,0
1,note_on,62,0,80
1,note_on,67,69,0
1,note_on,67,0,72
1,note_on,67,59,8
1,note_on,67,0,80
1,note_on,71,59,0
1,note_on,71,0,80
1,note_on,80,71,0
1,note_on,77,60,0
1,note_on,77,0,72
1,note_on,80,0,0
1,note_on,80,62,8
1,note_on,80,0,80
1,note_on,83,62,0
1,note_on,83,0,80
1,note_on,92,74,0
1,note_on,89,62,0
1,note_on,89,0,80
1,note_on,92,0,0
1,note_on,83,66,0
1,note_on,83,0,80
1,note_on,80,66,0
1,note_on,80,0,80
1,note_on,91,72,0
1,note_on,88,60,0
1,note_on,88,0,80
1,note_on,91,0,0
1,note_on,83,64,0
1,note_on,83,0,80
1,note_on,79,64,0
1,note_on,79,0,80
1,note_on,79,70,0
1,note_on,76,59,0
1,note_on,76,0,80
1,note_on,79,0,0
1,note_on,71,68,0
1,note_on,71,0,80
1,note_on,67,62,0
1,note_on,67,0,80
1,note_on,77,61,0
1,note_on,74,44,0
1,note_on,74,0,80
1,note_on,77,0,0
1,note_on,68,68,0
1,note_on,68,0,80
1,note_on,67,63,0
1,note_on,67,0,80
1,note_on,65,62,0
1,note_on,62,52,0
1,note_on,62,0,80
1,note_on,65,0,0
1,note_on,56,61,0
1,note_on,56,0,80
1,note_on,55,59,0
1,note_on,55,0,80
1,note_on,60,63,0
1,note_on,64,75,0
1,note_on,64,0,120
1,note_on,60,0,0
1,note_on,71,53,120
1,note_on,65,53,0
1,note_on,72,52,80
1,note_on,71,0,10
1,note_on,74,53,70
1,note_on,72,0,10
1,note_on,65,0,70
1,note_on,76,55,0
1,note_on,72,55,0
1,note_on,74,0,10
1,note_on,77,56,70
1,note_on,76,0,10
1,note_on,79,57,70
1,note_on,77,0,10
1,note_on,72,0,70
1,note_on,83,58,0
1,note_on,77,58,0
1,note_on,79,0,10
1,note_on,84,59,70
1,note_on,83,0,10
1,note_on,86,59,70
1,note_on,84,0,10
1,note_on,77,0,70
1,note_on,88,60,0
1,note_on,84,60,0
1,note_on,86,0,10
1,note_on,89,61,70
1,note_on,88,0,10
1,note_on,91,62,70
1,note_on,89,0,10
1,note_on,84,0,70
1,note_on,95,62,0
1,note_on,89,62,0
1,note_on,91,0,10
1,note_on,96,63,70
1,note_on,95,0,10
1,note_on,98,64,70
1,note_on,96,0,10
1,note_on,89,0,70
1,note_on,100,66,0
1,note_on,96,66,0
1,note_on,91,66,0
1,note_on,98,0,10
1,note_on,100,0,110
1,note_on,96,0,0
1,note_on,91,0,0
1,note_on,60,67,120
1,note_on,60,0,80
1,note_on,62,70,0
1,note_on,62,0,80
1,note_on,64,71,0
1,note_on,64,0,80
1,note_on,65,85,0
1,note_on,65,0,240
1,note_on,89,74,0
1,note_on,77,62,0
1,note_on,77,0,240
1,note_on,89,0,0
1,note_on,83,77,0
1,note_on,71,64,0
1,note_on,71,0,240
1,note_on,83,0,0
1,note_on,59,68,0
1,note_on,59,0,80
1,note_on,60,71,0
1,note_on,60,0,80
1,note_on,62,73,0
1,note_on,62,0,80
1,note_on,63,85,0
1,note_on,63,0,240
1,note_on,87,77,0
1,note_on,75,64,0
1,note_on,75,0,240
1,note_on,87,0,0
1,note_on,81,78,0
1,note_on,69,66,0
1,note_on,69,0,240
1,note_on,81,0,0
1,note_on,57,69,0
1,note_on,57,0,80
1,note_on,59,72,0
1,note_on,59,0,80
1,note_on,60,75,0
1,note_on,60,0,80
1,note_on,61,89,0
1,note_on,61,0,240
1,note_on,85,78,0
1,note_on,73,66,0
1,note_on,73,0,240
1,note_on,85,0,0
1,note_on,79,79,0
1,note_on,67,68,0
1,note_on,67,0,240
1,note_on,79,0,0
1,note_on,55,70,0
1,note_on,55,0,80
1,note_on,56,74,0
1,note_on,56,0,80
1,note_on,58,77,0
1,note_on,58,0,80
1,note_on,59,88,0
1,note_on,59,0,240
1,note_on,83,79,0
1,note_on,71,68,0
1,note_on,71,0,240
1,note_on,83,0,0
1,note_on,77,81,0
1,note_on,65,69,0
1,note_on,65,0,240
1,note_on,77,0,0
1,note_on,53,71,0
1,note_on,53,0,80
1,note_on,56,75,0
1,note_on,56,0,80
1,note_on,58,78,0
1,note_on,58,0,80
1,note_on,59,91,0
1,note_on,59,0,240
1,note_on,83,81,0
1,note_on,71,69,0
1,note_on,71,0,240
1,note_on,83,0,0
1,note_on,77,83,0
1,note_on,65,70,0
1,note_on,65,0,240
1,note_on,77,0,0
1,note_on,53,73,0
1,note_on,53,0,80
1,note_on,57,78,0
1,note_on,57,0,80
1,note_on,58,79,0
1,note_on,58,0,80
1,note_on,59,94,0
1,note_on,59,0,240
1,note_on,83,83,0
1,note_on,71,70,0
1,note_on,71,0,240
1,note_on,83,0,0
1,note_on,77,84,0
1,note_on,65,71,0
1,note_on,65,0,240
1,note_on,77,0,0
1,note_on,57,92,0
1,note_on,57,0,80
1,note_on,55,95,0
1,note_on,55,0,80
1,note_on,53,99,0
1,note_on,53,0,80
1,note_on,52,106,0
1,note_on,52,0,240
1,note_on,83,90,240
1,note_on,81,90,0
1,note_on,76,77,0
1,note_on,71,77,0
1,note_on,71,0,240
1,note_on,83,0,0
1,note_on,81,0,0
1,note_on,76,0,0
1,note_on,64,96,240
1,note_on,64,0,240
1,note_on,88,89,240
1,note_on,83,89,0
1,note_on,80,75,0
1,note_on,76,75,0
1,note_on,76,0,240
1,note_on,88,0,0
1,note_on,83,0,0
1,note_on,80,0,0
1,note_on,52,59,320
1,note_on,52,0,80
1,note_on,57,59,0
1,note_on,57,0,80
1,note_on,64,69,0
1,note_on,60,69,0
1,note_on,60,0,72
1,note_on,64,0,0
1,note_on,64,59,8
1,note_on,64,0,80
1,note_on,69,59,0
1,note_on,69,0,80
1,note_on,76,71,0
1,note_on,72,60,0
1,note_on,72,0,72
1,note_on,76,0,0
1,note_on,76,62,8
1,note_on,76,0,80
1,note_on,81,62,0
1,note_on,81,0,80
1,note_on,88,74,0
1,note_on,84,62,0
1,note_on,84,0,72
1,note_on,88,0,0
1,note_on,88,66,8
1,note_on,88,0,80
1,note_on,93,66,0
1,note_on,93,0,80
1,note_on,100,72,0
1,note_on,96,60,0
1,note_on,96,0,80
1,note_on,100,0,0
1,note_on,93,64,0
1,note_on,93,0,80
1,note_on,88,64,0
1,note_on,88,0,72
1,note_on,88,70,8
1,note_on,84,59,0
1,note_on,84,0,80
1,note_on,88,0,0
1,note_on,81,66,0
1,note_on,81,0,80
1,note_on,76,62,0
1,note_on,76,0,72
1,note_on,76,61,8
1,note_on,72,44,0
1,note_on,72,0,80
1,note_on,76,0,0
1,note_on,69,68,0
1,note_on,69,0,80
1,note_on,64,63,0
1,note_on,64,0,72
1,note_on,64,62,8
1,note_on,60,52,0
1,note_on,60,0,80
1,note_on,64,0,0
1,note_on,57,61,0
1,note_on,57,0,80
1,note_on,52,59,0
1,note_on,52,0,80
1,note_on,52,59,80
1,note_on,52,0,80
1,note_on,57,59,0
1,note_on,57,0,80
1,note_on,64,69,0
1,note_on,61,69,0
1,note_on,61,0,72
1,note_on,64,0,0
1,note_on,64,59,8
1,note_on,64,0,80
1,note_on,69,59,0
1,note_on,69,0,80
1,note_on,76,71,0
1,note_on,73,60,0
1,note_on,73,0,72
1,note_on,76,0,0
1,note_on,76,62,8
1,note_on,76,0,80
1,note_on,81,62,0
1,note_on,81,0,80
1,note_on,88,74,0
1,note_on,85,62,0
1,note_on,85,0,72
1,note_on,88,0,0
1,note_on,88,66,8
1,note_on,88,0,80
1,note_on,93,66,0
1,note_on,93,0,80
1,note_on,100,72,0
1,note_on,97,60,0
1,note_on,97,0,80
1,note_on,100,0,0
1,note_on,93,64,0
1,note_on,93,0,80
1,note_on,88,64,0
1,note_on,88,0,72
1,note_on,88,70,8
1,note_on,85,59,0
1,note_on,85,0,80
1,note_on,88,0,0
1,note_on,81,66,0
1,note_on,81,0,80
1,note_on,76,62,0
1,note_on,76,0,72
1,note_on,76,61,8
1,note_on,73,44,0
1,note_on,73,0,80
1,note_on,76,0,0
1,note_on,69,68,0
1,note_on,69,0,80
1,note_on,64,63,0
1,note_on,64,0,72
1,note_on,64,62,8
1,note_on,61,52,0
1,note_on,61,0,80
1,note_on,64,0,0
1,note_on,57,61,0
1,note_on,57,0,80
1,note_on,52,59,0
1,note_on,52,0,80
1,note_on,53,59,80
1,note_on,53,0,80
1,note_on,57,59,0
1,note_on,57,0,80
1,note_on,65,69,0
1,note_on,62,69,0
1,note_on,62,0,72
1,note_on,65,0,0
1,note_on,65,59,8
1,note_on,65,0,80
1,note_on,69,59,0
1,note_on,69,0,80
1,note_on,77,71,0
1,note_on,74,60,0
1,note_on,74,0,72
1,note_on,77,0,0
1,note_on,77,62,8
1,note_on,77,0,80
1,note_on,81,62,0
1,note_on,81,0,80
1,note_on,89,74,0
1,note_on,86,62,0
1,note_on,86,0,72
1,note_on,89,0,0
1,note_on,89,66,8
1,note_on,89,0,80
1,note_on,93,66,0
1,note_on,93,0,80
1,note_on,101,72,0
1,note_on,98,60,0
1,note_on,98,0,80
1,note_on,101,0,0
1,note_on,93,64,0
1,note_on,93,0,80
1,note_on,89,64,0
1,note_on,89,0,72
1,note_on,89,70,8
1,note_on,86,59,0
1,note_on,86,0,80
1,note_on,89,0,0
1,note_on,81,66,0
1,note_on,81,0,80
1,note_on,77,62,0
1,note_on,77,0,72
1,note_on,77,61,8
1,note_on,74,44,0
1,note_on,74,0,80
1,note_on,77,0,0
1,note_on,69,68,0
1,note_on,69,0,80
1,note_on,65,63,0
1,note_on,65,0,72
1,note_on,65,64,8
1,note_on,62,64,0
1,note_on,62,0,80
1,note_on,65,0,0
1,note_on,57,64,0
1,note_on,57,0,80
1,note_on,53,67,0
1,note_on,53,0,80
1,note_on,83,85,240
1,note_on,71,71,0
1,note_on,74,71,0
1,note_on,74,0,240
1,note_on,71,0,0
1,note_on,83,0,0
1,note_on,86,85,240
1,note_on,74,71,0
1,note_on,77,71,0
1,note_on,77,0,240
1,note_on,74,0,0
1,note_on,86,0,0
1,note_on,89,85,240
1,note_on,77,71,0
1,note_on,80,71,0
1,note_on,80,0,240
1,note_on,77,0,0
1,note_on,89,0,0
1,note_on,88,85,240
1,note_on,76,71,0
1,note_on,80,71,0
1,note_on,80,0,240
1,note_on,76,0,0
1,note_on,88,0,0
1,note_on,52,59,80
1,note_on,52,0,80
1,note_on,57,59,0
1,note_on,57,0,80
1,note_on,64,69,0
1,note_on,60,69,0
1,note_on,60,0,72
1,note_on,64,0,0
1,note_on,64,59,8
1,note_on,64,0,80
1,note_on,69,59,0
1,note_on,69,0,80
1,note_on,76,71,0
1,note_on,72,60,0
1,note_on,72,0,72
1,note_on,76,0,0
1,note_on,76,62,8
1,note_on,76,0,80
1,note_on,81,62,0
1,note_on,81,0,80
1,note_on,88,74,0
1,note_on,84,62,0
1,note_on,84,0,72
1,note_on,88,0,0
1,note_on,88,66,8
1,note_on,88,0,80
1,note_on,93,66,0
1,note_on,93,0,80
1,note_on,100,72,0
1,note_on,96,60,0
1,note_on,96,0,80
1,note_on,100,0,0
1,note_on,93,64,0
1,note_on,93,0,80
1,note_on,88,64,0
1,note_on,88,0,72
1,note_on,88,70,8
1,note_on,84,59,0
1,note_on,84,0,80
1,note_on,88,0,0
1,note_on,81,66,0
1,note_on,81,0,80
1,note_on,76,62,0
1,note_on,76,0,72
1,note_on,76,61,8
1,note_on,72,44,0
1,note_on,72,0,80
1,note_on,76,0,0
1,note_on,69,68,0
1,note_on,69,0,80
1,note_on,64,63,0
1,note_on,64,0,72
1,note_on,64,62,8
1,note_on,60,52,0
1,note_on,60,0,80
1,note_on,64,0,0
1,note_on,57,61,0
1,note_on,57,0,80
1,note_on,52,59,0
1,note_on,52,0,80
1,note_on,52,59,80
1,note_on,52,0,80
1,note_on,57,59,0
1,note_on,57,0,80
1,note_on,64,69,0
1,note_on,61,69,0
1,note_on,61,0,72
1,note_on,64,0,0
1,note_on,64,59,8
1,note_on,64,0,80
1,note_on,69,59,0
1,note_on,69,0,80
1,note_on,76,71,0
1,note_on,73,60,0
1,note_on,73,0,72
1,note_on,76,0,0
1,note_on,76,62,8
1,note_on,76,0,80
1,note_on,81,62,0
1,note_on,81,0,80
1,note_on,88,74,0
1,note_on,85,62,0
1,note_on,85,0,72
1,note_on,88,0,0
1,note_on,88,66,8
1,note_on,88,0,80
1,note_on,93,66,0
1,note_on,93,0,80
1,note_on,100,72,0
1,note_on,97,60,0
1,note_on,97,0,80
1,note_on,100,0,0
1,note_on,93,64,0
1,note_on,93,0,80
1,note_on,88,64,0
1,note_on,88,0,72
1,note_on,88,70,8
1,note_on,85,59,0
1,note_on,85,0,80
1,note_on,88,0,0
1,note_on,81,66,0
1,note_on,81,0,80
1,note_on,76,62,0
1,note_on,76,0,72
1,note_on,76,61,8
1,note_on,73,44,0
1,note_on,73,0,80
1,note_on,76,0,0
1,note_on,69,68,0
1,note_on,69,0,80
1,note_on,64,63,0
1,note_on,64,0,72
1,note_on,64,62,8
1,note_on,61,52,0
1,note_on,61,0,80
1,note_on,64,0,0
1,note_on,57,61,0
1,note_on,57,0,80
1,note_on,52,59,0
1,note_on,52,0,80
1,note_on,53,59,80
1,note_on,53,0,80
1,note_on,57,59,0
1,note_on,57,0,80
1,note_on,65,69,0
1,note_on,62,69,0
1,note_on,62,0,72
1,note_on,65,0,0
1,note_on,65,59,8
1,note_on,65,0,80
1,note_on,69,59,0
1,note_on,69,0,80
1,note_on,77,71,0
1,note_on,74,60,0
1,note_on,74,0,72
1,note_on,77,0,0
1,note_on,77,62,8
1,note_on,77,0,80
1,note_on,81,62,0
1,note_on,81,0,80
1,note_on,89,74,0
1,note_on,86,62,0
1,note_on,86,0,72
1,note_on,89,0,0
1,note_on,89,66,8
1,note_on,89,0,80
1,note_on,93,66,0
1,note_on,93,0,80
1,note_on,101,72,0
1,note_on,98,60,0
1,note_on,98,0,80
1,note_on,101,0,0
1,note_on,93,64,0
1,note_on,93,0,80
1,note_on,89,64,0
1,note_on,89,0,72
1,note_on,89,70,8
1,note_on,86,59,0
1,note_on,86,0,80
1,note_on,89,0,0
1,note_on,81,66,0
1,note_on,81,0,80
1,note_on,77,62,0
1,note_on,77,0,72
1,note_on,77,61,8
1,note_on,74,44,0
1,note_on,74,0,80
1,note_on,77,0,0
1,note_on,69,68,0
1,note_on,69,0,80
1,note_on,65,63,0
1,note_on,65,0,72
1,note_on,65,64,8
1,note_on,62,64,0
1,note_on,62,0,80
1,note_on,65,0,0
1,note_on,57,64,0
1,note_on,57,0,80
1,note_on,53,67,0
1,note_on,53,0,80
1,note_on,83,85,240
1,note_on,71,71,0
1,note_on,74,71,0
1,note_on,74,0,240
1,note_on,71,0,0
1,note_on,83,0,0
1,note_on,86,85,240
1,note_on,74,71,0
1,note_on,77,71,0
1,note_on,77,0,240
1,note_on,74,0,0
1,note_on,86,0,0
1,note_on,89,85,240
1,note_on,77,71,0
1,note_on,80,71,0
1,note_on,80,0,240
1,note_on,77,0,0
1,note_on,89,0,0
1,note_on,88,85,240
1,note_on,76,71,0
1,note_on,80,71,0
1,note_on,80,0,240
1,note_on,76,0,0
1,note_on,88,0,0
1,note_on,45,97,0
1,note_on,49,67,80
1,note_on,49,0,80
1,note_on,52,69,0
1,note_on,52,0,80
1,note_on,57,69,0
1,note_on,57,0,80
1,note_on,61,71,0
1,note_on,61,0,80
1,note_on,64,72,0
1,note_on,64,0,80
1,note_on,69,74,0
1,note_on,69,0,80
1,note_on,73,77,0
1,note_on,73,0,80
1,note_on,76,78,0
1,note_on,76,0,80
1,note_on,81,79,0
1,note_on,81,0,80
1,note_on,85,80,0
1,note_on,85,0,80
1,note_on,88,82,0
1,note_on,88,0,80
1,note_on,45,0,0
1,note_on,93,95,0
1,note_on,93,0,80
1,note_on,88,84,0
1,note_on,88,0,80
1,note_on,85,84,0
1,note_on,85,0,80
1,note_on,81,83,0
1,note_on,81,0,80
1,note_on,76,81,0
1,note_on,76,0,80
1,note_on,73,80,0
1,note_on,73,0,80
1,note_on,69,79,0
1,note_on,69,0,80
1,note_on,64,78,0
1,note_on,64,0,80
1,note_on,61,75,0
1,note_on,61,0,80
1,note_on,57,74,0
1,note_on,57,0,80
1,note_on,52,72,0
1,note_on,52,0,80
1,note_on,49,71,0
1,note_on,49,0,80
1,note_on,45,99,0
1,note_on,49,68,80
1,note_on,49,0,80
1,note_on,52,69,0
1,note_on,52,0,80
1,note_on,57,71,0
1,note_on,57,0,80
1,note_on,61,72,0
1,note_on,61,0,80
1,note_on,64,74,0
1,note_on,64,0,80
1,note_on,69,77,0
1,note_on,69,0,80
1,note_on,73,79,0
1,note_on,73,0,80
1,note_on,76,80,0
1,note_on,76,0,80
1,note_on,81,82,0
1,note_on,81,0,60
1,note_on,85,83,0
1,note_on,85,0,60
1,note_on,88,85,0
1,note_on,88,0,60
1,note_on,93,86,0
1,note_on,93,0,60
1,note_on,45,0,0
1,note_on,97,88,0
1,note_on,97,0,60
1,note_on,93,86,0
1,note_on,93,0,60
1,note_on,88,86,0
1,note_on,88,0,60
1,note_on,85,84,0
1,note_on,85,0,60
1,note_on,81,82,0
1,note_on,81,0,80
1,note_on,76,81,0
1,note_on,76,0,80
1,note_on,73,79,0
1,note_on,73,0,80
1,note_on,69,79,0
1,note_on,69,0,80
1,note_on,64,77,0
1,note_on,64,0,80
1,note_on,61,74,0
1,note_on,61,0,80
1,note_on,57,73,0
1,note_on,57,0,80
1,note_on,52,71,0
1,note_on,52,0,80
1,note_on,49,70,0
1,note_on,49,0,80
1,note_on,45,97,0
1,note_on,49,71,80
1,note_on,49,0,80
1,note_on,52,69,0
1,note_on,52,0,80
1,note_on,57,70,0
1,note_on,57,0,80
1,note_on,61,71,0
1,note_on,61,0,80
1,note_on,64,73,0
1,note_on,64,0,80
1,note_on,69,75,0
1,note_on,69,0,80
1,note_on,73,77,0
1,note_on,73,0,80
1,note_on,76,79,0
1,note_on,76,0,80
1,note_on,81,80,0
1,note_on,81,0,80
1,note_on,85,81,0
1,note_on,85,0,80
1,note_on,88,86,0
1,note_on,88,0,80
1,note_on,45,0,0
1,note_on,93,89,0
1,note_on,93,0,96
1,note_on,97,89,0
1,note_on,97,0,96
1,note_on,101,92,0
1,note_on,101,0,96
1,note_on,100,91,0
1,note_on,100,0,96
1,note_on,97,89,0
1,note_on,97,0,96
1,note_on,93,88,4
1,note_on,93,0,80
1,note_on,88,84,0
1,note_on,88,0,80
1,note_on,85,83,0
1,note_on,85,0,80
1,note_on,81,82,0
1,note_on,81,0,80
1,note_on,76,81,0
1,note_on,76,0,80
1,note_on,73,79,0
1,note_on,73,0,80
1,note_on,69,79,0
1,note_on,69,0,80
1,note_on,64,78,0
1,note_on,64,0,80
1,note_on,61,77,0
1,note_on,61,0,80
1,note_on,57,75,0
1,note_on,57,0,80
1,note_on,52,74,0
1,note_on,52,0,80
1,note_on,49,73,0
1,note_on,45,77,76
1,note_on,49,0,4
1,note_on,46,69,56
1,note_on,45,0,18
1,note_on,45,77,42
1,note_on,46,0,18
1,note_on,46,70,42
1,note_on,45,0,18
1,note_on,45,79,42
1,note_on,46,0,18
1,note_on,46,69,42
1,note_on,45,0,18
1,note_on,45,77,42
1,note_on,46,0,18
1,note_on,46,70,42
1,note_on,45,0,18
1,note_on,45,78,42
1,note_on,46,0,18
1,note_on,46,69,42
1,note_on,45,0,18
1,note_on,45,73,42
1,note_on,46,0,18
1,note_on,46,70,42
1,note_on,45,0,18
1,note_on,45,75,42
1,note_on,46,0,18
1,note_on,46,70,42
1,note_on,45,0,18
1,note_on,45,77,42
1,note_on,46,0,18
1,note_on,46,74,42
1,note_on,45,0,18
1,note_on,45,79,42
1,note_on,46,0,18
1,note_on,45,0,42
1,note_on,46,79,0
1,note_on,46,0,60
1,note_on,47,80,0
1,note_on,47,0,60
1,note_on,48,83,0
1,note_on,48,0,60
1,note_on,49,85,0
1,note_on,49,0,60
1,note_on,50,88,0
1,note_on,50,0,60
1,note_on,51,89,0
1,note_on,51,0,60
1,note_on,52,91,0
1,note_on,52,0,60
1,note_on,53,94,0
1,note_on,53,0,60
1,note_on,52,96,0
1,note_on,52,0,60
1,note_on,51,97,0
1,note_on,51,0,60
1,note_on,50,96,0
1,note_on,50,0,60
1,note_on,49,94,0
1,note_on,49,0,60
1,note_on,48,93,0
1,note_on,48,0,60
1,note_on,47,92,0
1,note_on,47,0,60
1,note_on,46,90,0
1,note_on,46,0,60
1,note_on,45,105,0
1,note_on,45,0,240
1,note_on,81,99,240
1,note_on,76,99,0
1,note_on,73,83,0
1,note_on,69,83,0
1,note_on,69,0,240
1,note_on,81,0,0
1,note_on,76,0,0
1,note_on,73,0,0
1,note_on,93,99,240
1,note_on,88,99,0
1,note_on,85,83,0
1,note_on,81,83,0
1,note_on,81,0,240
1,note_on,93,0,0
1,note_on,88,0,0
1,note_on,85,0,0
2,note_on,45,34,713
2,note_on,52,37,40
2,note_on,57,41,40
2,note_on,60,44,40
2,note_on,45,0,230
2,note_on,52,0,10
2,note_on,57,0,0
2,note_on,60,0,0
2,note_on,52,36,840
2,note_on,59,38,40
2,note_on,64,42,40
2,note_on,68,45,40
2,note_on,52,0,230
2,note_on,59,0,10
2,note_on,64,0,0
2,note_on,68,0,0
2,note_on,45,33,840
2,note_on,52,36,40
2,note_on,57,39,40
2,note_on,60,42,40
2,note_on,45,0,230
2,note_on,52,0,10
2,note_on,57,0,0
2,note_on,60,0,0
2,note_on,52,38,840
2,note_on,59,36,40
2,note_on,64,41,40
2,note_on,68,45,40
2,note_on,52,0,230
2,note_on,59,0,10
2,note_on,64,0,0
2,note_on,68,0,0
2,note_on,45,29,840
2,note_on,52,32,40
2,note_on,57,33,40
2,note_on,60,36,40
2,note_on,45,0,230
2,note_on,52,0,10
2,note_on,57,0,0
2,note_on,60,0,0
2,note_on,52,28,840
2,note_on,59,31,40
2,note_on,64,33,40
2,note_on,68,36,40
2,note_on,52,0,230
2,note_on,59,0,10
2,note_on,64,0,0
2,note_on,68,0,0
2,note_on,45,28,840
2,note_on,52,31,40
2,note_on,57,33,40
2,note_on,60,36,40
2,note_on,45,0,230
2,note_on,52,0,10
2,note_on,57,0,0
2,note_on,60,0,0
2,note_on,52,28,840
2,note_on,59,31,40
2,note_on,64,33,40
2,note_on,68,36,40
2,note_on,52,0,230
2,note_on,59,0,10
2,note_on,64,0,0
2,note_on,68,0,0
2,note_on,45,34,840
2,note_on,52,36,40
2,note_on,57,40,40
2,note_on,61,43,40
2,note_on,45,0,230
2,note_on,52,0,10
2,note_on,57,0,0
2,note_on,61,0,0
2,note_on,50,36,840
2,note_on,57,37,40
2,note_on,62,40,40
2,note_on,65,43,40
2,note_on,50,0,230
2,note_on,57,0,10
2,note_on,62,0,0
2,note_on,65,0,0
2,note_on,43,35,840
2,note_on,50,37,40
2,note_on,55,41,40
2,note_on,59,45,40
2,note_on,43,0,230
2,note_on,50,0,10
2,note_on,55,0,0
2,note_on,59,0,0
2,note_on,48,39,840
2,note_on,55,39,40
2,note_on,60,42,40
2,note_on,64,45,40
2,note_on,48,0,230
2,note_on,55,0,10
2,note_on,60,0,0
2,note_on,64,0,0
2,note_on,50,33,840
2,note_on,53,35,40
2,note_on,59,37,40
2,note_on,65,39,40
2,note_on,50,0,230
2,note_on,53,0,10
2,note_on,59,0,0
2,note_on,65,0,0
2,note_on,48,32,840
2,note_on,60,36,80
2,note_on,64,38,40
2,note_on,48,0,230
2,note_on,64,0,10
2,note_on,60,0,0
2,note_on,53,44,840
2,note_on,63,36,360
2,note_on,57,36,0
2,note_on,57,0,120
2,note_on,63,0,0
2,note_on,53,0,0
2,note_on,52,40,0
2,note_on,62,33,360
2,note_on,56,33,0
2,note_on,56,0,120
2,note_on,62,0,0
2,note_on,52,0,0
2,note_on,60,40,0
2,note_on,57,40,0
2,note_on,57,0,480
2,note_on,60,0,0
2,note_on,69,33,0
2,note_on,64,33,0
2,note_on,64,0,120
2,note_on,69,0,0
2,note_on,45,29,360
2,note_on,52,32,36
2,note_on,57,33,40
2,note_on,61,36,40
2,note_on,45,0,230
2,note_on,52,0,10
2,note_on,57,0,0
2,note_on,61,0,0
2,note_on,61,27,222
2,note_on,64,27,0
2,note_on,69,32,0
2,note_on,69,0,240
2,note_on,64,0,0
2,note_on,61,0,0
2,note_on,50,29,240
2,note_on,57,32,60
2,note_on,65,36,56
2,note_on,50,0,230
2,note_on,65,0,10
2,note_on,57,0,0
2,note_on,62,27,244
2,note_on,65,27,0
2,note_on,69,32,0
2,note_on,69,0,240
2,note_on,65,0,0
2,note_on,62,0,0
2,note_on,43,29,240
2,note_on,50,32,14
2,note_on,59,36,60
2,note_on,43,0,230
2,note_on,59,0,10
2,note_on,50,0,0
2,note_on,59,27,215
2,note_on,62,27,0
2,note_on,67,32,0
2,note_on,67,0,240
2,note_on,62,0,0
2,note_on,59,0,0
2,note_on,48,29,240
2,note_on,55,32,60
2,note_on,64,36,46
2,note_on,48,0,230
2,note_on,64,0,10
2,note_on,55,0,0
2,note_on,64,29,240
2,note_on,67,35,0
2,note_on,67,0,240
2,note_on,64,0,0
2,note_on,50,32,240
2,note_on,58,36,9
2,note_on,65,39,60
2,note_on,58,0,140
2,note_on,50,0,90
2,note_on,65,0,10
2,note_on,65,35,219
2,note_on,62,29,0
2,note_on,62,0,240
2,note_on,65,0,0
2,note_on,48,32,240
2,note_on,60,36,60
2,note_on,64,39,28
2,note_on,60,0,140
2,note_on,48,0,90
2,note_on,64,0,10
2,note_on,64,34,251
2,note_on,60,28,0
2,note_on,60,0,240
2,note_on,64,0,0
2,note_on,53,37,0
2,note_on,63,34,360
2,note_on,57,34,0
2,note_on,57,0,120
2,note_on,63,0,0
2,note_on,53,0,0
2,note_on,52,37,0
2,note_on,62,31,360
2,note_on,56,31,0
2,note_on,56,0,120
2,note_on,62,0,0
2,note_on,52,0,0
2,note_on,60,37,0
2,note_on,57,37,0
2,note_on,57,0,289
2,note_on,60,0,0
2,note_on,69,31,0
2,note_on,64,31,0
2,note_on,64,0,120
2,note_on,69,0,0
2,note_on,57,61,296
2,note_on,57,0,90
2,note_on,57,48,270
2,note_on,57,0,60
2,note_on,57,57,60
2,note_on,57,0,120
2,note_on,60,54,0
2,note_on,60,0,120
2,note_on,59,57,0
2,note_on,59,0,120
2,note_on,57,54,0
2,note_on,57,0,120
2,note_on,64,59,0
2,note_on,64,0,90
2,note_on,52,48,270
2,note_on,52,0,60
2,note_on,52,57,60
2,note_on,52,0,120
2,note_on,55,54,0
2,note_on,55,0,120
2,note_on,53,57,0
2,note_on,53,0,120
2,note_on,52,54,0
2,note_on,52,0,120
2,note_on,57,61,0
2,note_on,57,0,90
2,note_on,57,48,270
2,note_on,57,0,60
2,note_on,57,57,60
2,note_on,57,0,120
2,note_on,60,54,0
2,note_on,60,0,120
2,note_on,59,57,0
2,note_on,59,0,120
2,note_on,57,54,0
2,note_on,57,0,120
2,note_on,64,61,0
2,note_on,64,0,480
2,note_on,52,46,0
2,note_on,52,0,120
2,note_on,57,48,360
2,note_on,57,0,90
2,note_on,57,38,270
2,note_on,57,0,60
2,note_on,57,45,60
2,note_on,57,0,120
2,note_on,60,43,0
2,note_on,60,0,120
2,note_on,59,45,0
2,note_on,59,0,120
2,note_on,57,43,0
2,note_on,57,0,120
2,note_on,64,46,0
2,note_on,64,0,90
2,note_on,52,38,270
2,note_on,52,0,60
2,note_on,52,45,60
2,note_on,52,0,120
2,note_on,55,43,0
2,note_on,55,0,120
2,note_on,53,45,0
2,note_on,53,0,120
2,note_on,52,43,0
2,note_on,52,0,120
2,note_on,57,48,0
2,note_on,57,0,90
2,note_on,57,38,270
2,note_on,57,0,60
2,note_on,57,45,60
2,note_on,57,0,120
2,note_on,60,43,0
2,note_on,60,0,120
2,note_on,59,45,0
2,note_on,59,0,120
2,note_on,57,43,0
2,note_on,57,0,120
2,note_on,64,48,0
2,note_on,64,0,480
2,note_on,52,36,0
2,note_on,52,0,120
2,note_on,57,39,210
2,note_on,64,41,30
2,note_on,69,43,30
2,note_on,69,0,180
2,note_on,64,0,0
2,note_on,57,0,0
2,note_on,69,48,270
2,note_on,69,0,60
2,note_on,69,57,60
2,note_on,69,0,120
2,note_on,70,54,0
2,note_on,70,0,120
2,note_on,69,57,0
2,note_on,69,0,120
2,note_on,67,54,0
2,note_on,67,0,80
2,note_on,50,53,0
2,note_on,65,59,40
2,note_on,65,0,120
2,note_on,50,0,0
2,note_on,62,48,240
2,note_on,62,0,60
2,note_on,62,57,60
2,note_on,62,0,120
2,note_on,65,54,0
2,note_on,65,0,120
2,note_on,64,57,0
2,note_on,64,0,120
2,note_on,62,54,0
2,note_on,62,0,120
2,note_on,55,37,0
2,note_on,62,40,48
2,note_on,67,44,48
2,note_on,67,0,234
2,note_on,62,0,0
2,note_on,55,0,0
2,note_on,67,48,270
2,note_on,67,0,60
2,note_on,67,57,60
2,note_on,67,0,120
2,note_on,69,54,0
2,note_on,69,0,120
2,note_on,67,57,0
2,note_on,67,0,120
2,note_on,65,54,0
2,note_on,65,0,80
2,note_on,48,53,0
2,note_on,64,59,40
2,note_on,64,0,120
2,note_on,48,0,0
2,note_on,60,48,240
2,note_on,60,0,60
2,note_on,60,57,60
2,note_on,60,0,120
2,note_on,64,54,0
2,note_on,64,0,120
2,note_on,62,57,0
2,note_on,62,0,120
2,note_on,60,54,0
2,note_on,60,0,60
2,note_on,50,32,0
2,note_on,56,36,30
2,note_on,65,48,30
2,note_on,65,0,90
2,note_on,56,0,0
2,note_on,50,0,0
2,note_on,59,38,270
2,note_on,59,0,60
2,note_on,59,45,60
2,note_on,59,0,120
2,note_on,62,43,0
2,note_on,62,0,120
2,note_on,60,45,0
2,note_on,60,0,120
2,note_on,59,43,0
2,note_on,59,0,60
2,note_on,48,42,0
2,note_on,48,0,60
2,note_on,64,46,0
2,note_on,64,0,90
2,note_on,57,38,270
2,note_on,57,0,60
2,note_on,57,45,60
2,note_on,57,0,120
2,note_on,60,43,0
2,note_on,60,0,120
2,note_on,59,45,0
2,note_on,59,0,120
2,note_on,57,43,0
2,note_on,57,0,120
2,note_on,53,48,0
2,note_on,59,38,360
2,note_on,59,0,120
2,note_on,53,0,0
2,note_on,52,45,0
2,note_on,64,43,120
2,note_on,64,0,120
2,note_on,62,45,0
2,note_on,62,0,120
2,note_on,59,43,0
2,note_on,59,0,120
2,note_on,52,0,0
2,note_on,57,48,0
2,note_on,57,0,480
2,note_on,64,27,0
2,note_on,72,36,0
2,note_on,72,0,92
2,note_on,64,0,0
2,note_on,41,43,222
2,note_on,45,51,0
2,note_on,44,48,120
2,note_on,45,0,10
2,note_on,45,51,110
2,note_on,44,0,10
2,note_on,44,48,110
2,note_on,45,0,10
2,note_on,44,0,110
2,note_on,41,0,0
2,note_on,52,51,480
2,note_on,40,43,0
2,note_on,44,43,0
2,note_on,51,48,120
2,note_on,52,0,10
2,note_on,52,51,110
2,note_on,51,0,10
2,note_on,51,48,110
2,note_on,52,0,10
2,note_on,40,0,110
2,note_on,44,0,0
2,note_on,51,0,0
2,note_on,41,38,480
2,note_on,45,45,0
2,note_on,44,43,120
2,note_on,45,0,10
2,note_on,45,45,110
2,note_on,44,0,10
2,note_on,44,41,110
2,note_on,45,0,10
2,note_on,44,0,110
2,note_on,41,0,0
2,note_on,40,36,480
2,note_on,44,36,0
2,note_on,52,43,0
2,note_on,51,40,120
2,note_on,52,0,10
2,note_on,52,42,110
2,note_on,51,0,10
2,note_on,51,39,110
2,note_on,52,0,10
2,note_on,40,0,110
2,note_on,44,0,0
2,note_on,51,0,0
2,note_on,53,43,480
2,note_on,57,51,0
2,note_on,56,48,120
2,note_on,57,0,10
2,note_on,57,51,110
2,note_on,56,0,10
2,note_on,56,48,110
2,note_on,57,0,10
2,note_on,56,0,110
2,note_on,53,0,0
2,note_on,52,43,480
2,note_on,56,43,0
2,note_on,64,51,0
2,note_on,63,48,120
2,note_on,64,0,10
2,note_on,64,51,110
2,note_on,63,0,10
2,note_on,63,48,110
2,note_on,64,0,10
2,note_on,52,0,110
2,note_on,56,0,0
2,note_on,63,0,0
2,note_on,53,38,480
2,note_on,57,45,0
2,note_on,56,43,120
2,note_on,57,0,10
2,note_on,57,45,110
2,note_on,56,0,10
2,note_on,56,41,110
2,note_on,57,0,10
2,note_on,56,0,110
2,note_on,53,0,0
2,note_on,52,36,480
2,note_on,56,36,0
2,note_on,64,43,0
2,note_on,63,40,120
2,note_on,64,0,10
2,note_on,64,42,110
2,note_on,63,0,10
2,note_on,63,39,110
2,note_on,64,0,10
2,note_on,52,0,110
2,note_on,56,0,0
2,note_on,63,0,0
2,note_on,61,40,480
2,note_on,64,43,0
2,note_on,69,51,0
2,note_on,68,48,120
2,note_on,69,0,10
2,note_on,69,51,110
2,note_on,68,0,10
2,note_on,68,48,110
2,note_on,69,0,10
2,note_on,61,0,110
2,note_on,64,0,0
2,note_on,68,0,0
2,note_on,53,43,480
2,note_on,57,43,0
2,note_on,62,51,0
2,note_on,61,48,120
2,note_on,62,0,10
2,note_on,62,51,110
2,note_on,61,0,10
2,note_on,61,48,110
2,note_on,62,0,10
2,note_on,53,0,110
2,note_on,57,0,0
2,note_on,61,0,0
2,note_on,59,39,480
2,note_on,62,41,0
2,note_on,67,49,0
2,note_on,66,47,120
2,note_on,67,0,10
2,note_on,67,48,110
2,note_on,66,0,10
2,note_on,66,45,110
2,note_on,67,0,10
2,note_on,59,0,110
2,note_on,62,0,0
2,note_on,66,0,0
2,note_on,52,43,480
2,note_on,55,43,0
2,note_on,60,51,0
2,note_on,59,48,120
2,note_on,60,0,10
2,note_on,60,51,110
2,note_on,59,0,10
2,note_on,59,48,110
2,note_on,60,0,10
2,note_on,52,0,110
2,note_on,55,0,0
2,note_on,59,0,0
2,note_on,50,39,480
2,note_on,56,43,0
2,note_on,65,51,0
2,note_on,64,48,120
2,note_on,65,0,10
2,note_on,65,51,110
2,note_on,64,0,10
2,note_on,64,48,110
2,note_on,65,0,10
2,note_on,50,0,110
2,note_on,56,0,0
2,note_on,64,0,0
2,note_on,48,43,480
2,note_on,57,43,0
2,note_on,64,51,0
2,note_on,63,48,120
2,note_on,64,0,10
2,note_on,64,51,110
2,note_on,63,0,10
2,note_on,63,48,110
2,note_on,64,0,10
2,note_on,48,0,110
2,note_on,57,0,0
2,note_on,63,0,0
2,note_on,50,36,480
2,note_on,53,38,0
2,note_on,58,45,0
2,note_on,57,43,120
2,note_on,58,0,10
2,note_on,58,45,110
2,note_on,57,0,10
2,note_on,57,41,110
2,note_on,58,0,10
2,note_on,50,0,110
2,note_on,53,0,0
2,note_on,57,0,0
2,note_on,52,36,0
2,note_on,56,43,0
2,note_on,56,0,240
2,note_on,52,0,0
2,note_on,57,44,240
2,note_on,56,40,120
2,note_on,57,0,10
2,note_on,57,45,110
2,note_on,56,0,10
2,note_on,56,39,110
2,note_on,57,0,10
2,note_on,56,0,110
2,note_on,57,43,0
2,note_on,57,0,60
2,note_on,45,51,420
2,note_on,44,48,120
2,note_on,45,0,10
2,note_on,45,51,110
2,note_on,44,0,10
2,note_on,44,48,110
2,note_on,45,0,10
2,note_on,44,0,50
2,note_on,46,46,0
2,note_on,45,51,60
2,note_on,46,0,10
2,note_on,43,48,110
2,note_on,45,0,10
2,note_on,41,51,110
2,note_on,43,0,10
2,note_on,40,47,110
2,note_on,41,0,10
2,note_on,40,0,110
2,note_on,38,51,0
2,note_on,37,48,120
2,note_on,38,0,10
2,note_on,38,51,110
2,note_on,37,0,10
2,note_on,37,48,110
2,note_on,38,0,10
2,note_on,37,0,50
2,note_on,39,48,0
2,note_on,38,53,60
2,note_on,39,0,10
2,note_on,40,48,110
2,note_on,38,0,10
2,note_on,41,51,110
2,note_on,40,0,10
2,note_on,38,47,110
2,note_on,41,0,10
2,note_on,43,51,110
2,note_on,38,0,10
2,note_on,42,48,110
2,note_on,43,0,10
2,note_on,43,51,110
2,note_on,42,0,10
2,note_on,42,48,110
2,note_on,43,0,10
2,note_on,42,0,50
2,note_on,44,49,0
2,note_on,43,51,60
2,note_on,44,0,10
2,note_on,41,48,110
2,note_on,43,0,10
2,note_on,40,51,110
2,note_on,41,0,10
2,note_on,38,47,110
2,note_on,40,0,10
2,note_on,38,0,110
2,note_on,36,51,0
2,note_on,35,48,120
2,note_on,36,0,10
2,note_on,36,51,110
2,note_on,35,0,10
2,note_on,35,48,110
2,note_on,36,0,10
2,note_on,35,0,50
2,note_on,37,47,0
2,note_on,36,52,60
2,note_on,37,0,10
2,note_on,38,48,110
2,note_on,36,0,10
2,note_on,40,51,110
2,note_on,38,0,10
2,note_on,36,47,110
2,note_on,40,0,10
2,note_on,41,51,110
2,note_on,36,0,10
2,note_on,40,48,110
2,note_on,41,0,10
2,note_on,41,51,110
2,note_on,40,0,10
2,note_on,40,48,110
2,note_on,41,0,10
2,note_on,40,0,50
2,note_on,43,46,0
2,note_on,41,50,60
2,note_on,43,0,10
2,note_on,38,48,110
2,note_on,41,0,10
2,note_on,36,51,110
2,note_on,38,0,10
2,note_on,35,47,110
2,note_on,36,0,10
2,note_on,40,51,110
2,note_on,35,0,10
2,note_on,39,48,110
2,note_on,40,0,10
2,note_on,40,51,110
2,note_on,39,0,10
2,note_on,39,48,110
2,note_on,40,0,10
2,note_on,39,0,50
2,note_on,41,45,0
2,note_on,40,50,60
2,note_on,41,0,10
2,note_on,36,48,110
2,note_on,40,0,10
2,note_on,35,51,110
2,note_on,36,0,10
2,note_on,33,47,110
2,note_on,35,0,10
2,note_on,33,0,110
2,note_on,35,51,0
2,note_on,34,48,120
2,note_on,35,0,10
2,note_on,35,51,110
2,note_on,34,0,10
2,note_on,34,48,110
2,note_on,35,0,10
2,note_on,34,0,110
2,note_on,36,51,0
2,note_on,35,48,120
2,note_on,36,0,10
2,note_on,41,51,110
2,note_on,35,0,10
2,note_on,40,47,110
2,note_on,41,0,10
2,note_on,40,0,110
2,note_on,33,43,0
2,note_on,33,0,120
2,note_on,32,40,0
2,note_on,32,0,120
2,note_on,33,43,0
2,note_on,33,0,120
2,note_on,32,40,0
2,note_on,32,0,60
2,note_on,34,36,0
2,note_on,33,43,60
2,note_on,34,0,10
2,note_on,33,0,110
2,note_on,32,40,0
2,note_on,32,0,120
2,note_on,33,43,0
2,note_on,33,0,120
2,note_on,32,40,0
2,note_on,32,0,120
2,note_on,33,43,0
2,note_on,33,0,120
2,note_on,32,39,0
2,note_on,32,0,120
2,note_on,33,42,0
2,note_on,33,0,120
2,note_on,32,38,0
2,note_on,32,0,60
2,note_on,34,40,0
2,note_on,33,38,60
2,note_on,34,0,10
2,note_on,33,0,110
2,note_on,32,35,0
2,note_on,32,0,120
2,note_on,33,37,0
2,note_on,33,0,120
2,note_on,32,33,0
2,note_on,32,0,120
2,note_on,33,35,0
2,note_on,33,0,120
2,note_on,32,31,0
2,note_on,32,0,120
2,note_on,33,32,0
2,note_on,33,0,120
2,note_on,32,28,0
2,note_on,32,0,60
2,note_on,34,29,0
2,note_on,33,29,60
2,note_on,34,0,10
2,note_on,33,0,110
2,note_on,32,27,0
2,note_on,32,0,120
2,note_on,33,27,0
2,note_on,33,0,120
2,note_on,32,24,0
2,note_on,32,0,120
2,note_on,33,23,0
2,note_on,33,0,240
2,note_on,36,57,720
2,note_on,48,69,0
2,note_on,51,41,214
2,note_on,54,41,0
2,note_on,60,48,0
2,note_on,60,0,120
2,note_on,51,0,0
2,note_on,36,0,0
2,note_on,48,0,0
2,note_on,54,0,0
2,note_on,51,45,0
2,note_on,54,45,0
2,note_on,60,54,0
2,note_on,60,0,120
2,note_on,54,0,0
2,note_on,51,0,0
2,note_on,33,46,120
2,note_on,45,55,0
2,note_on,45,0,217
2,note_on,33,0,0
2,note_on,32,55,0
2,note_on,44,66,0
2,note_on,44,0,46
2,note_on,32,0,0
2,note_on,35,53,0
2,note_on,47,64,0
2,note_on,47,0,240
2,note_on,35,0,0
2,note_on,40,60,0
2,note_on,44,60,0
2,note_on,52,72,0
2,note_on,52,0,203
2,note_on,44,0,0
2,note_on,40,0,0
2,note_on,36,64,0
2,note_on,48,77,0
2,note_on,51,43,214
2,note_on,54,43,0
2,note_on,60,51,0
2,note_on,60,0,120
2,note_on,51,0,0
2,note_on,36,0,0
2,note_on,48,0,0
2,note_on,54,0,0
2,note_on,51,47,0
2,note_on,54,47,0
2,note_on,60,56,0
2,note_on,60,0,120
2,note_on,54,0,0
2,note_on,51,0,0
2,note_on,33,49,120
2,note_on,45,57,0
2,note_on,45,0,217
2,note_on,33,0,0
2,note_on,35,53,0
2,note_on,47,63,0
2,note_on,47,0,46
2,note_on,35,0,0
2,note_on,39,59,0
2,note_on,51,71,0
2,note_on,51,0,205
2,note_on,39,0,0
2,note_on,41,65,0
2,note_on,53,77,0
2,note_on,53,0,240
2,note_on,41,0,0
2,note_on,40,63,0
2,note_on,52,73,0
2,note_on,52,0,107
2,note_on,40,0,0
2,note_on,36,62,120
2,note_on,48,74,0
2,note_on,51,41,214
2,note_on,54,41,0
2,note_on,60,48,0
2,note_on,60,0,120
2,note_on,51,0,0
2,note_on,36,0,0
2,note_on,48,0,0
2,note_on,54,0,0
2,note_on,51,45,0
2,note_on,54,45,0
2,note_on,60,54,0
2,note_on,60,0,120
2,note_on,54,0,0
2,note_on,51,0,0
2,note_on,33,46,120
2,note_on,45,55,0
2,note_on,45,0,217
2,note_on,33,0,0
2,note_on,32,55,0
2,note_on,44,66,0
2,note_on,44,0,46
2,note_on,32,0,0
2,note_on,35,53,0
2,note_on,47,64,0
2,note_on,47,0,240
2,note_on,35,0,0
2,note_on,40,60,0
2,note_on,44,60,0
2,note_on,52,72,0
2,note_on,52,0,203
2,note_on,44,0,0
2,note_on,40,0,0
2,note_on,36,64,0
2,note_on,48,77,0
2,note_on,51,43,214
2,note_on,54,43,0
2,note_on,60,51,0
2,note_on,60,0,120
2,note_on,51,0,0
2,note_on,36,0,0
2,note_on,48,0,0
2,note_on,54,0,0
2,note_on,51,47,0
2,note_on,54,47,0
2,note_on,60,56,0
2,note_on,60,0,120
2,note_on,54,0,0
2,note_on,51,0,0
2,note_on,33,49,120
2,note_on,45,57,0
2,note_on,45,0,217
2,note_on,33,0,0
2,note_on,35,53,0
2,note_on,47,63,0
2,note_on,47,0,46
2,note_on,35,0,0
2,note_on,39,59,0
2,note_on,51,71,0
2,note_on,51,0,205
2,note_on,39,0,0
2,note_on,41,65,0
2,note_on,53,77,0
2,note_on,53,0,240
2,note_on,41,0,0
2,note_on,40,63,0
2,note_on,52,73,0
2,note_on,52,0,107
2,note_on,40,0,0
2,note_on,45,54,120
2,note_on,52,54,0
2,note_on,61,65,0
2,note_on,61,41,214
2,note_on,64,41,0
2,note_on,69,48,0
2,note_on,69,0,120
2,note_on,52,0,0
2,note_on,61,0,0
2,note_on,45,0,0
2,note_on,64,0,0
2,note_on,61,0,0
2,note_on,61,45,0
2,note_on,64,45,0
2,note_on,69,54,0
2,note_on,69,0,120
2,note_on,64,0,0
2,note_on,61,0,0
2,note_on,37,46,120
2,note_on,52,55,0
2,note_on,52,0,217
2,note_on,37,0,0
2,note_on,38,55,0
2,note_on,53,66,0
2,note_on,53,0,46
2,note_on,38,0,0
2,note_on,40,53,0
2,note_on,55,64,0
2,note_on,55,0,240
2,note_on,40,0,0
2,note_on,41,60,0
2,note_on,56,72,0
2,note_on,56,0,240
2,note_on,41,0,0
2,note_on,42,64,0
2,note_on,57,76,0
2,note_on,57,0,205
2,note_on,42,0,0
2,note_on,43,54,0
2,note_on,50,54,0
2,note_on,59,65,0
2,note_on,59,41,214
2,note_on,62,41,0
2,note_on,67,48,0
2,note_on,67,0,120
2,note_on,50,0,0
2,note_on,59,0,0
2,note_on,43,0,0
2,note_on,62,0,0
2,note_on,59,0,0
2,note_on,59,45,0
2,note_on,62,45,0
2,note_on,67,54,0
2,note_on,67,0,120
2,note_on,62,0,0
2,note_on,59,0,0
2,note_on,35,46,120
2,note_on,50,55,0
2,note_on,50,0,217
2,note_on,35,0,0
2,note_on,36,55,0
2,note_on,52,66,0
2,note_on,52,0,46
2,note_on,36,0,0
2,note_on,38,53,0
2,note_on,53,64,0
2,note_on,53,0,240
2,note_on,38,0,0
2,note_on,39,63,0
2,note_on,54,75,0
2,note_on,54,0,240
2,note_on,39,0,0
2,note_on,40,70,0
2,note_on,55,83,0
2,note_on,55,0,208
2,note_on,40,0,0
2,note_on,50,62,0
2,note_on,41,62,0
2,note_on,47,62,0
2,note_on,56,74,0
2,note_on,56,0,86
2,note_on,50,0,0
2,note_on,41,0,0
2,note_on,47,0,0
2,note_on,62,41,214
2,note_on,65,48,0
2,note_on,65,0,120
2,note_on,62,0,0
2,note_on,62,45,0
2,note_on,65,54,0
2,note_on,62,0,120
2,note_on,59,45,0
2,note_on,59,0,120
2,note_on,60,45,0
2,note_on,60,0,120
2,note_on,62,45,0
2,note_on,62,0,120
2,note_on,65,0,0
2,note_on,40,50,0
2,note_on,48,50,0
2,note_on,57,60,0
2,note_on,57,0,86
2,note_on,48,0,0
2,note_on,40,0,0
2,note_on,60,45,214
2,note_on,60,0,120
2,note_on,60,49,0
2,note_on,60,0,120
2,note_on,57,42,0
2,note_on,57,0,120
2,note_on,59,42,0
2,note_on,59,0,120
2,note_on,60,42,0
2,note_on,60,0,120
2,note_on,47,39,0
2,note_on,53,39,0
2,note_on,57,46,0
2,note_on,57,0,480
2,note_on,53,0,0
2,note_on,47,0,0
2,note_on,40,37,0
2,note_on,56,45,0
2,note_on,56,0,480
2,note_on,40,0,0
2,note_on,52,41,0
2,note_on,45,21,0
2,note_on,50,41,0
2,note_on,56,26,0
2,note_on,52,0,56
2,note_on,55,38,0
2,note_on,55,0,120
2,note_on,53,36,0
2,note_on,53,0,120
2,note_on,52,35,0
2,note_on,45,0,120
2,note_on,56,0,0
2,note_on,50,0,0
2,note_on,48,31,0
2,note_on,45,31,0
2,note_on,45,0,85
2,note_on,48,0,0
2,note_on,52,0,0
2,note_on,57,36,360
2,note_on,60,36,0
2,note_on,69,43,0
2,note_on,69,0,60
2,note_on,60,0,0
2,note_on,57,0,0
2,note_on,64,36,180
2,note_on,72,43,0
2,note_on,72,0,60
2,note_on,64,0,0
2,note_on,62,35,180
2,note_on,71,42,0
2,note_on,71,0,60
2,note_on,62,0,0
2,note_on,60,34,180
2,note_on,69,40,0
2,note_on,69,0,60
2,note_on,60,0,0
2,note_on,52,36,180
2,note_on,56,36,0
2,note_on,64,43,0
2,note_on,64,0,60
2,note_on,56,0,0
2,note_on,52,0,0
2,note_on,59,33,180
2,note_on,67,39,0
2,note_on,67,0,60
2,note_on,59,0,0
2,note_on,57,37,180
2,note_on,65,45,0
2,note_on,65,0,60
2,note_on,57,0,0
2,note_on,56,35,180
2,note_on,64,42,0
2,note_on,64,0,60
2,note_on,56,0,0
2,note_on,57,36,180
2,note_on,60,36,0
2,note_on,69,43,0
2,note_on,69,0,60
2,note_on,60,0,0
2,note_on,57,0,0
2,note_on,64,36,180
2,note_on,72,43,0
2,note_on,72,0,60
2,note_on,64,0,0
2,note_on,62,35,180
2,note_on,71,42,0
2,note_on,71,0,60
2,note_on,62,0,0
2,note_on,60,34,180
2,note_on,69,40,0
2,note_on,69,0,60
2,note_on,60,0,0
2,note_on,57,36,180
2,note_on,60,36,0
2,note_on,65,43,0
2,note_on,65,0,120
2,note_on,60,0,0
2,note_on,57,0,0
2,note_on,52,37,360
2,note_on,56,37,0
2,note_on,64,45,0
2,note_on,64,0,120
2,note_on,56,0,0
2,note_on,52,0,0
2,note_on,57,36,360
2,note_on,60,36,0
2,note_on,69,43,0
2,note_on,69,0,60
2,note_on,60,0,0
2,note_on,57,0,0
2,note_on,64,36,180
2,note_on,72,43,0
2,note_on,72,0,60
2,note_on,64,0,0
2,note_on,62,35,180
2,note_on,71,42,0
2,note_on,71,0,60
2,note_on,62,0,0
2,note_on,60,34,180
2,note_on,69,40,0
2,note_on,69,0,60
2,note_on,60,0,0
2,note_on,52,36,180
2,note_on,56,36,0
2,note_on,64,43,0
2,note_on,64,0,60
2,note_on,56,0,0
2,note_on,52,0,0
2,note_on,59,33,180
2,note_on,67,39,0
2,note_on,67,0,60
2,note_on,59,0,0
2,note_on,57,37,180
2,note_on,65,45,0
2,note_on,65,0,60
2,note_on,57,0,0
2,note_on,56,35,180
2,note_on,64,42,0
2,note_on,64,0,60
2,note_on,56,0,0
2,note_on,57,36,180
2,note_on,60,36,0
2,note_on,69,43,0
2,note_on,69,0,60
2,note_on,60,0,0
2,note_on,57,0,0
2,note_on,64,36,180
2,note_on,72,43,0
2,note_on,72,0,60
2,note_on,64,0,0
2,note_on,62,35,180
2,note_on,71,42,0
2,note_on,71,0,60
2,note_on,62,0,0
2,note_on,60,34,180
2,note_on,69,40,0
2,note_on,69,0,60
2,note_on,60,0,0
2,note_on,57,36,180
2,note_on,60,36,0
2,note_on,65,43,0
2,note_on,65,0,120
2,note_on,60,0,0
2,note_on,57,0,0
2,note_on,52,37,360
2,note_on,56,37,0
2,note_on,64,45,0
2,note_on,64,0,120
2,note_on,56,0,0
2,note_on,52,0,0
2,note_on,57,42,360
2,note_on,61,42,0
2,note_on,69,50,0
2,note_on,69,0,60
2,note_on,61,0,0
2,note_on,57,0,0
2,note_on,62,42,180
2,note_on,70,50,0
2,note_on,70,0,60
2,note_on,62,0,0
2,note_on,61,40,180
2,note_on,69,49,0
2,note_on,69,0,60
2,note_on,61,0,0
2,note_on,58,39,180
2,note_on,67,48,0
2,note_on,67,0,60
2,note_on,58,0,0
2,note_on,57,42,180
2,note_on,65,50,0
2,note_on,65,0,60
2,note_on,57,0,0
2,note_on,55,39,180
2,note_on,64,47,0
2,note_on,64,0,60
2,note_on,55,0,0
2,note_on,53,45,180
2,note_on,62,53,0
2,note_on,62,0,60
2,note_on,53,0,0
2,note_on,50,40,180
2,note_on,65,49,0
2,note_on,65,0,60
2,note_on,50,0,0
2,note_on,55,45,180
2,note_on,59,45,0
2,note_on,67,52,0
2,note_on,67,0,60
2,note_on,59,0,0
2,note_on,55,0,0
2,note_on,60,45,180
2,note_on,68,52,0
2,note_on,68,0,60
2,note_on,60,0,0
2,note_on,59,42,180
2,note_on,67,51,0
2,note_on,67,0,60
2,note_on,59,0,0
2,note_on,56,41,180
2,note_on,65,49,0
2,note_on,65,0,60
2,note_on,56,0,0
2,note_on,55,45,180
2,note_on,64,52,0
2,note_on,64,0,60
2,note_on,55,0,0
2,note_on,53,40,180
2,note_on,62,49,0
2,note_on,62,0,60
2,note_on,53,0,0
2,note_on,52,47,180
2,note_on,60,56,0
2,note_on,60,0,60
2,note_on,52,0,0
2,note_on,48,42,180
2,note_on,64,51,0
2,note_on,64,0,60
2,note_on,48,0,0
2,note_on,59,36,180
2,note_on,50,36,0
2,note_on,56,36,0
2,note_on,65,43,0
2,note_on,65,0,120
2,note_on,59,0,0
2,note_on,50,0,0
2,note_on,56,0,0
2,note_on,74,50,360
2,note_on,74,0,140
2,note_on,57,36,340
2,note_on,48,36,0
2,note_on,64,43,0
2,note_on,64,0,120
2,note_on,48,0,0
2,note_on,57,0,0
2,note_on,72,50,360
2,note_on,72,0,140
2,note_on,57,43,340
2,note_on,65,50,0
2,note_on,65,0,60
2,note_on,57,0,0
2,note_on,56,43,420
2,note_on,64,50,0
2,note_on,64,0,60
2,note_on,56,0,0
2,note_on,57,52,420
2,note_on,53,44,120
2,note_on,57,0,20
2,note_on,52,44,100
2,note_on,53,0,20
2,note_on,51,43,100
2,note_on,52,0,20
2,note_on,50,42,100
2,note_on,51,0,20
2,note_on,48,41,100
2,note_on,50,0,20
2,note_on,47,41,100
2,note_on,48,0,20
2,note_on,46,40,100
2,note_on,47,0,20
2,note_on,46,0,100
2,note_on,45,43,0
2,note_on,45,0,84
2,note_on,76,45,360
2,note_on,69,37,0
2,note_on,72,44,120
2,note_on,64,36,0
2,note_on,69,0,20
2,note_on,76,0,0
2,note_on,48,45,100
2,note_on,72,0,14
2,note_on,64,0,0
2,note_on,48,0,60
2,note_on,47,44,0
2,note_on,47,0,80
2,note_on,45,42,0
2,note_on,45,0,80
2,note_on,44,43,0
2,note_on,44,0,40
2,note_on,76,45,360
2,note_on,68,37,0
2,note_on,71,44,120
2,note_on,64,36,0
2,note_on,68,0,20
2,note_on,76,0,0
2,note_on,40,36,100
2,note_on,71,0,17
2,note_on,64,0,0
2,note_on,40,0,60
2,note_on,42,39,0
2,note_on,42,0,80
2,note_on,44,42,0
2,note_on,44,0,80
2,note_on,45,43,0
2,note_on,45,0,40
2,note_on,76,45,360
2,note_on,69,37,0
2,note_on,72,44,120
2,note_on,64,36,0
2,note_on,69,0,20
2,note_on,76,0,0
2,note_on,48,45,100
2,note_on,72,0,12
2,note_on,64,0,0
2,note_on,48,0,60
2,note_on,47,44,0
2,note_on,47,0,80
2,note_on,45,42,0
2,note_on,45,0,80
2,note_on,44,43,0
2,note_on,44,0,40
2,note_on,76,45,360
2,note_on,68,37,0
2,note_on,71,44,120
2,note_on,64,36,0
2,note_on,68,0,20
2,note_on,76,0,0
2,note_on,71,0,17
2,note_on,64,0,0
2,note_on,40,63,40
2,note_on,40,0,60
2,note_on,42,66,0
2,note_on,42,0,60
2,note_on,44,70,0
2,note_on,44,0,60
2,note_on,33,72,0
2,note_on,45,72,0
2,note_on,45,0,53
2,note_on,33,0,0
2,note_on,76,70,360
2,note_on,69,59,0
2,note_on,72,68,120
2,note_on,64,57,0
2,note_on,69,0,20
2,note_on,76,0,0
2,note_on,48,74,100
2,note_on,72,0,14
2,note_on,64,0,0
2,note_on,48,0,37
2,note_on,47,72,0
2,note_on,47,0,80
2,note_on,45,69,0
2,note_on,45,0,80
2,note_on,44,74,0
2,note_on,32,74,2
2,note_on,44,0,40
2,note_on,32,0,3
2,note_on,76,70,357
2,note_on,68,59,0
2,note_on,71,68,120
2,note_on,64,57,0
2,note_on,68,0,20
2,note_on,76,0,0
2,note_on,40,64,100
2,note_on,71,0,17
2,note_on,64,0,0
2,note_on,40,0,14
2,note_on,42,69,0
2,note_on,42,0,80
2,note_on,44,72,0
2,note_on,44,0,80
2,note_on,33,75,0
2,note_on,45,75,0
2,note_on,45,0,40
2,note_on,33,0,0
2,note_on,76,70,360
2,note_on,69,59,0
2,note_on,72,68,120
2,note_on,64,57,0
2,note_on,69,0,20
2,note_on,76,0,0
2,note_on,48,77,100
2,note_on,72,0,13
2,note_on,64,0,0
2,note_on,48,0,37
2,note_on,47,75,0
2,note_on,47,0,80
2,note_on,45,72,0
2,note_on,45,0,80
2,note_on,44,73,0
2,note_on,32,73,4
2,note_on,44,0,40
2,note_on,32,0,4
2,note_on,76,70,356
2,note_on,68,59,0
2,note_on,71,68,120
2,note_on,64,57,0
2,note_on,68,0,20
2,note_on,76,0,0
2,note_on,71,0,17
2,note_on,64,0,0
2,note_on,45,37,40
2,note_on,45,0,60
2,note_on,47,40,0
2,note_on,47,0,60
2,note_on,48,43,0
2,note_on,48,0,60
2,note_on,37,38,0
2,note_on,49,45,0
2,note_on,49,0,53
2,note_on,37,0,0
2,note_on,81,45,360
2,note_on,76,37,0
2,note_on,79,44,120
2,note_on,69,36,0
2,note_on,76,0,20
2,note_on,81,0,0
2,note_on,45,48,100
2,note_on,79,0,16
2,note_on,69,0,0
2,note_on,45,0,60
2,note_on,47,50,0
2,note_on,47,0,80
2,note_on,49,52,0
2,note_on,49,0,80
2,note_on,38,47,0
2,note_on,50,54,0
2,note_on,50,0,40
2,note_on,38,0,0
2,note_on,77,52,360
2,note_on,69,43,0
2,note_on,74,51,120
2,note_on,65,42,0
2,note_on,69,0,20
2,note_on,77,0,0
2,note_on,52,45,100
2,note_on,74,0,17
2,note_on,65,0,0
2,note_on,52,0,60
2,note_on,50,48,0
2,note_on,50,0,80
2,note_on,48,52,0
2,note_on,48,0,80
2,note_on,35,51,0
2,note_on,47,54,0
2,note_on,47,0,49
2,note_on,35,0,0
2,note_on,79,54,360
2,note_on,74,46,0
2,note_on,77,54,120
2,note_on,67,45,0
2,note_on,74,0,20
2,note_on,79,0,0
2,note_on,43,63,100
2,note_on,77,0,16
2,note_on,67,0,0
2,note_on,43,0,60
2,note_on,45,65,0
2,note_on,45,0,80
2,note_on,47,67,0
2,note_on,47,0,80
2,note_on,36,58,0
2,note_on,48,69,0
2,note_on,48,0,57
2,note_on,36,0,0
2,note_on,76,63,360
2,note_on,67,53,0
2,note_on,72,62,120
2,note_on,64,52,0
2,note_on,67,0,20
2,note_on,76,0,0
2,note_on,47,67,100
2,note_on,72,0,15
2,note_on,64,0,0
2,note_on,47,0,60
2,note_on,48,70,0
2,note_on,48,0,80
2,note_on,49,73,0
2,note_on,49,0,80
2,note_on,38,64,0
2,note_on,50,76,0
2,note_on,50,0,65
2,note_on,38,0,0
2,note_on,82,66,360
2,note_on,74,56,0
2,note_on,77,65,120
2,note_on,70,54,0
2,note_on,74,0,20
2,note_on,82,0,0
2,note_on,46,71,100
2,note_on,77,0,13
2,note_on,70,0,0
2,note_on,46,0,60
2,note_on,48,74,0
2,note_on,48,0,80
2,note_on,50,78,0
2,note_on,50,0,80
2,note_on,40,69,0
2,note_on,52,81,0
2,note_on,52,0,57
2,note_on,40,0,0
2,note_on,81,73,360
2,note_on,72,63,0
2,note_on,76,72,120
2,note_on,69,61,0
2,note_on,72,0,20
2,note_on,81,0,0
2,note_on,53,76,4
2,note_on,76,0,20
2,note_on,69,0,0
2,note_on,53,0,60
2,note_on,52,79,0
2,note_on,52,0,80
2,note_on,51,81,0
2,note_on,51,0,80
2,note_on,38,71,0
2,note_on,50,83,0
2,note_on,50,0,53
2,note_on,38,0,0
2,note_on,47,69,120
2,note_on,47,0,80
2,note_on,48,71,0
2,note_on,48,0,80
2,note_on,50,73,0
2,note_on,50,0,80
2,note_on,52,72,0
2,note_on,40,69,0
2,note_on,40,0,120
2,note_on,52,0,0
2,note_on,50,69,4
2,note_on,50,0,80
2,note_on,48,77,0
2,note_on,48,0,80
2,note_on,47,81,0
2,note_on,47,0,80
2,note_on,33,83,0
2,note_on,45,83,0
2,note_on,45,0,28
2,note_on,33,0,0
2,note_on,64,70,120
2,note_on,72,79,0
2,note_on,72,0,120
2,note_on,64,0,0
2,note_on,60,68,120
2,note_on,69,79,0
2,note_on,69,0,120
2,note_on,60,0,0
2,note_on,33,54,279
2,note_on,36,63,0
2,note_on,36,0,90
2,note_on,33,0,0
2,note_on,35,47,30
2,note_on,38,56,0
2,note_on,38,0,90
2,note_on,35,0,0
2,note_on,36,54,30
2,note_on,40,64,0
2,note_on,40,0,90
2,note_on,36,0,0
2,note_on,38,50,30
2,note_on,41,59,0
2,note_on,41,0,90
2,note_on,38,0,0
2,note_on,40,55,30
2,note_on,44,66,0
2,note_on,44,0,90
2,note_on,40,0,0
2,note_on,41,52,30
2,note_on,45,61,0
2,note_on,45,0,90
2,note_on,41,0,0
2,note_on,44,50,30
2,note_on,47,60,0
2,note_on,47,0,90
2,note_on,44,0,0
2,note_on,45,47,30
2,note_on,48,55,0
2,note_on,48,0,90
2,note_on,45,0,0
2,note_on,47,53,30
2,note_on,50,63,0
2,note_on,50,0,90
2,note_on,47,0,0
2,note_on,48,48,30
2,note_on,52,56,0
2,note_on,52,0,90
2,note_on,48,0,0
2,note_on,50,53,30
2,note_on,53,63,0
2,note_on,53,0,90
2,note_on,50,0,0
2,note_on,52,48,30
2,note_on,56,56,0
2,note_on,56,0,90
2,note_on,52,0,0
2,note_on,53,53,30
2,note_on,57,63,0
2,note_on,57,0,90
2,note_on,53,0,0
2,note_on,56,53,30
2,note_on,59,63,0
2,note_on,59,0,90
2,note_on,56,0,0
2,note_on,57,53,30
2,note_on,60,63,0
2,note_on,60,0,90
2,note_on,57,0,0
2,note_on,59,48,30
2,note_on,62,57,0
2,note_on,62,0,90
2,note_on,59,0,0
2,note_on,60,63,30
2,note_on,57,53,0
2,note_on,57,0,90
2,note_on,60,0,0
2,note_on,59,49,30
2,note_on,62,60,0
2,note_on,62,0,90
2,note_on,59,0,0
2,note_on,60,53,30
2,note_on,64,65,0
2,note_on,64,0,90
2,note_on,60,0,0
2,note_on,62,58,30
2,note_on,65,68,0
2,note_on,65,0,90
2,note_on,62,0,0
2,note_on,62,60,30
2,note_on,65,71,0
2,note_on,65,0,90
2,note_on,62,0,0
2,note_on,60,58,30
2,note_on,64,69,0
2,note_on,64,0,90
2,note_on,60,0,0
2,note_on,59,55,30
2,note_on,62,66,0
2,note_on,62,0,99
2,note_on,59,0,0
2,note_on,57,52,0
2,note_on,60,63,0
2,note_on,60,0,56
2,note_on,57,0,0
2,note_on,59,48,0
2,note_on,62,56,0
2,note_on,62,0,68
2,note_on,59,0,0
2,note_on,60,56,0
2,note_on,57,46,0
2,note_on,57,0,63
2,note_on,60,0,0
2,note_on,59,54,0
2,note_on,56,45,0
2,note_on,56,0,57
2,note_on,59,0,0
2,note_on,53,44,0
2,note_on,57,51,0
2,note_on,57,0,63
2,note_on,53,0,0
2,note_on,52,40,0
2,note_on,56,49,0
2,note_on,56,0,325
2,note_on,52,0,0
2,note_on,33,54,0
2,note_on,45,63,0
2,note_on,45,0,82
2,note_on,33,0,0
2,note_on,35,47,30
2,note_on,47,56,0
2,note_on,47,0,90
2,note_on,35,0,0
2,note_on,36,54,30
2,note_on,48,64,0
2,note_on,48,0,90
2,note_on,36,0,0
2,note_on,38,50,30
2,note_on,50,59,0
2,note_on,50,0,90
2,note_on,38,0,0
2,note_on,40,55,30
2,note_on,52,66,0
2,note_on,52,0,90
2,note_on,40,0,0
2,note_on,41,52,30
2,note_on,53,61,0
2,note_on,53,0,90
2,note_on,41,0,0
2,note_on,44,50,30
2,note_on,56,60,0
2,note_on,56,0,90
2,note_on,44,0,0
2,note_on,45,47,30
2,note_on,57,55,0
2,note_on,57,0,90
2,note_on,45,0,0
2,note_on,47,53,30
2,note_on,59,63,0
2,note_on,59,0,90
2,note_on,47,0,0
2,note_on,48,48,30
2,note_on,60,56,0
2,note_on,60,0,90
2,note_on,48,0,0
2,note_on,50,53,30
2,note_on,62,63,0
2,note_on,62,0,90
2,note_on,50,0,0
2,note_on,52,48,30
2,note_on,64,56,0
2,note_on,64,0,90
2,note_on,52,0,0
2,note_on,53,53,30
2,note_on,65,63,0
2,note_on,65,0,90
2,note_on,53,0,0
2,note_on,56,53,30
2,note_on,68,63,0
2,note_on,68,0,90
2,note_on,56,0,0
2,note_on,57,53,30
2,note_on,69,63,0
2,note_on,69,0,90
2,note_on,57,0,0
2,note_on,59,48,30
2,note_on,71,57,0
2,note_on,71,0,90
2,note_on,59,0,0
2,note_on,69,63,30
2,note_on,57,53,0
2,note_on,57,0,90
2,note_on,69,0,0
2,note_on,56,49,30
2,note_on,68,59,0
2,note_on,68,0,90
2,note_on,56,0,0
2,note_on,53,51,30
2,note_on,65,62,0
2,note_on,65,0,90
2,note_on,53,0,0
2,note_on,52,54,30
2,note_on,64,63,0
2,note_on,64,0,90
2,note_on,52,0,0
2,note_on,53,55,30
2,note_on,65,65,0
2,note_on,65,0,90
2,note_on,53,0,0
2,note_on,52,54,30
2,note_on,64,64,0
2,note_on,64,0,90
2,note_on,52,0,0
2,note_on,50,53,30
2,note_on,62,63,0
2,note_on,62,0,99
2,note_on,50,0,0
2,note_on,60,62,0
2,note_on,48,51,0
2,note_on,48,0,56
2,note_on,60,0,0
2,note_on,59,56,0
2,note_on,47,48,0
2,note_on,47,0,63
2,note_on,59,0,0
2,note_on,45,46,0
2,note_on,57,56,0
2,note_on,57,0,63
2,note_on,45,0,0
2,note_on,44,45,0
2,note_on,56,54,0
2,note_on,56,0,57
2,note_on,44,0,0
2,note_on,65,51,0
2,note_on,53,44,0
2,note_on,53,0,63
2,note_on,65,0,0
2,note_on,64,49,0
2,note_on,52,40,0
2,note_on,52,0,366
2,note_on,64,0,0
2,note_on,70,73,0
2,note_on,58,62,0
2,note_on,58,0,90
2,note_on,70,0,0
2,note_on,69,67,30
2,note_on,57,56,0
2,note_on,57,0,90
2,note_on,69,0,0
2,note_on,55,55,30
2,note_on,67,66,0
2,note_on,67,0,90
2,note_on,55,0,0
2,note_on,52,55,30
2,note_on,64,66,0
2,note_on,64,0,90
2,note_on,52,0,0
2,note_on,49,54,30
2,note_on,61,65,0
2,note_on,61,0,90
2,note_on,49,0,0
2,note_on,46,54,30
2,note_on,58,64,0
2,note_on,58,0,90
2,note_on,46,0,0
2,note_on,45,54,30
2,note_on,57,63,0
2,note_on,57,0,50
2,note_on,55,63,30
2,note_on,55,0,90
2,note_on,45,0,30
2,note_on,50,53,0
2,note_on,53,63,0
2,note_on,53,0,21
2,note_on,50,0,0
2,note_on,49,54,30
2,note_on,52,64,0
2,note_on,52,0,90
2,note_on,49,0,0
2,note_on,47,56,30
2,note_on,50,65,0
2,note_on,50,0,90
2,note_on,47,0,0
2,note_on,45,56,30
2,note_on,49,68,0
2,note_on,49,0,90
2,note_on,45,0,0
2,note_on,43,58,30
2,note_on,47,69,0
2,note_on,47,0,90
2,note_on,43,0,0
2,note_on,41,59,30
2,note_on,45,71,0
2,note_on,45,0,90
2,note_on,41,0,0
2,note_on,40,63,30
2,note_on,43,75,0
2,note_on,43,0,90
2,note_on,40,0,0
2,note_on,38,65,30
2,note_on,41,77,0
2,note_on,41,0,90
2,note_on,38,0,0
2,note_on,56,62,30
2,note_on,68,73,0
2,note_on,68,0,21
2,note_on,56,0,0
2,note_on,55,56,30
2,note_on,67,67,0
2,note_on,67,0,90
2,note_on,55,0,0
2,note_on,53,55,30
2,note_on,65,66,0
2,note_on,65,0,90
2,note_on,53,0,0
2,note_on,50,55,30
2,note_on,62,66,0
2,note_on,62,0,90
2,note_on,50,0,0
2,note_on,47,54,30
2,note_on,59,65,0
2,note_on,59,0,67
2,note_on,47,0,0
2,note_on,44,54,30
2,note_on,56,64,0
2,note_on,56,0,90
2,note_on,44,0,0
2,note_on,43,54,30
2,note_on,55,63,0
2,note_on,55,0,50
2,note_on,53,63,30
2,note_on,53,0,90
2,note_on,43,0,30
2,note_on,48,53,0
2,note_on,52,63,0
2,note_on,52,0,5
2,note_on,48,0,0
2,note_on,47,54,30
2,note_on,50,64,0
2,note_on,50,0,90
2,note_on,47,0,0
2,note_on,45,56,30
2,note_on,48,65,0
2,note_on,48,0,90
2,note_on,45,0,0
2,note_on,43,56,30
2,note_on,47,68,0
2,note_on,47,0,90
2,note_on,43,0,0
2,note_on,45,69,30
2,note_on,41,58,0
2,note_on,41,0,90
2,note_on,45,0,0
2,note_on,43,71,30
2,note_on,40,59,0
2,note_on,40,0,90
2,note_on,43,0,0
2,note_on,41,75,30
2,note_on,38,63,0
2,note_on,38,0,90
2,note_on,41,0,0
2,note_on,40,77,30
2,note_on,36,65,0
2,note_on,36,0,90
2,note_on,40,0,0
2,note_on,44,63,30
2,note_on,47,63,0
2,note_on,50,74,0
2,note_on,38,63,0
2,note_on,38,0,49
2,note_on,44,0,0
2,note_on,47,0,0
2,note_on,50,0,0
2,note_on,53,66,30
2,note_on,41,55,0
2,note_on,41,0,90
2,note_on,53,0,0
2,note_on,44,55,30
2,note_on,56,66,0
2,note_on,56,0,16
2,note_on,44,0,0
2,note_on,47,55,30
2,note_on,59,66,0
2,note_on,59,0,90
2,note_on,47,0,0
2,note_on,59,60,30
2,note_on,62,71,0
2,note_on,50,60,0
2,note_on,56,60,0
2,note_on,56,0,44
2,note_on,59,0,0
2,note_on,62,0,0
2,note_on,50,0,0
2,note_on,63,62,30
2,note_on,51,52,0
2,note_on,51,0,90
2,note_on,63,0,0
2,note_on,52,54,30
2,note_on,64,65,0
2,note_on,64,0,15
2,note_on,52,0,0
2,note_on,65,70,30
2,note_on,53,59,0
2,note_on,53,0,90
2,note_on,65,0,0
2,note_on,33,63,30
2,note_on,45,74,0
2,note_on,42,63,0
2,note_on,39,63,0
2,note_on,39,0,45
2,note_on,33,0,0
2,note_on,45,0,0
2,note_on,42,0,0
2,note_on,36,55,30
2,note_on,48,66,0
2,note_on,48,0,90
2,note_on,36,0,0
2,note_on,39,55,30
2,note_on,51,66,0
2,note_on,51,0,42
2,note_on,39,0,0
2,note_on,42,55,30
2,note_on,54,66,0
2,note_on,54,0,90
2,note_on,42,0,0
2,note_on,54,60,30
2,note_on,57,71,0
2,note_on,45,60,0
2,note_on,51,60,0
2,note_on,51,0,15
2,note_on,54,0,0
2,note_on,57,0,0
2,note_on,45,0,0
2,note_on,58,62,30
2,note_on,46,52,0
2,note_on,46,0,90
2,note_on,58,0,0
2,note_on,47,54,30
2,note_on,59,65,0
2,note_on,59,0,44
2,note_on,47,0,0
2,note_on,60,70,30
2,note_on,48,59,0
2,note_on,48,0,90
2,note_on,60,0,0
2,note_on,50,55,30
2,note_on,57,55,0
2,note_on,59,66,0
2,note_on,59,0,38
2,note_on,57,0,0
2,note_on,50,0,0
2,note_on,51,60,30
2,note_on,51,0,90
2,note_on,52,60,30
2,note_on,52,0,37
2,note_on,53,60,30
2,note_on,53,0,90
2,note_on,52,60,30
2,note_on,56,60,0
2,note_on,64,71,0
2,note_on,64,0,168
2,note_on,56,0,0
2,note_on,52,0,0
2,note_on,62,65,0
2,note_on,56,54,0
2,note_on,52,54,0
2,note_on,52,0,166
2,note_on,56,0,0
2,note_on,62,0,0
2,note_on,45,54,0
2,note_on,50,54,0
2,note_on,53,65,0
2,note_on,53,0,373
2,note_on,50,0,0
2,note_on,48,37,0
2,note_on,52,44,0
2,note_on,52,0,223
2,note_on,48,0,0
2,note_on,45,0,0
2,note_on,64,44,240
2,note_on,64,0,54
2,note_on,65,37,0
2,note_on,65,0,80
2,note_on,64,37,0
2,note_on,64,0,80
2,note_on,60,41,0
2,note_on,45,27,176
2,note_on,52,27,0
2,note_on,52,0,39
2,note_on,45,0,0
2,note_on,60,0,120
2,note_on,57,40,0
2,note_on,59,37,80
2,note_on,57,0,10
2,note_on,57,37,70
2,note_on,59,0,10
2,note_on,59,40,70
2,note_on,57,0,10
2,note_on,60,37,70
2,note_on,59,0,10
2,note_on,59,37,70
2,note_on,60,0,10
2,note_on,56,40,70
2,note_on,59,0,10
2,note_on,57,36,70
2,note_on,56,0,10
2,note_on,56,36,70
2,note_on,57,0,10
2,note_on,52,39,70
2,note_on,56,0,10
2,note_on,53,35,70
2,note_on,52,0,10
2,note_on,52,35,70
2,note_on,53,0,10
2,note_on,45,25,70
2,note_on,56,25,0
2,note_on,52,0,10
2,note_on,56,0,110
2,note_on,45,0,0
2,note_on,64,44,120
2,note_on,64,0,41
2,note_on,65,37,0
2,note_on,65,0,80
2,note_on,64,37,0
2,note_on,64,0,80
2,note_on,60,41,0
2,note_on,45,31,184
2,note_on,52,31,0
2,note_on,52,0,28
2,note_on,45,0,0
2,note_on,60,0,120
2,note_on,57,45,0
2,note_on,57,0,52
2,note_on,59,44,0
2,note_on,59,0,80
2,note_on,57,46,0
2,note_on,57,0,80
2,note_on,56,53,0
2,note_on,56,0,46
2,note_on,57,53,0
2,note_on,57,0,80
2,note_on,55,56,0
2,note_on,55,0,80
2,note_on,54,61,0
2,note_on,54,0,40
2,note_on,55,56,0
2,note_on,55,0,80
2,note_on,53,57,0
2,note_on,53,0,80
2,note_on,52,63,0
2,note_on,52,0,49
2,note_on,53,56,0
2,note_on,53,0,80
2,note_on,52,56,0
2,note_on,52,0,80
2,note_on,40,72,0
2,note_on,40,0,110
2,note_on,64,44,120
2,note_on,64,0,54
2,note_on,65,37,0
2,note_on,65,0,80
2,note_on,64,37,0
2,note_on,64,0,80
2,note_on,60,41,0
2,note_on,45,27,176
2,note_on,52,27,0
2,note_on,52,0,39
2,note_on,45,0,0
2,note_on,60,0,120
2,note_on,57,40,0
2,note_on,59,37,80
2,note_on,57,0,10
2,note_on,57,37,70
2,note_on,59,0,10
2,note_on,59,40,70
2,note_on,57,0,10
2,note_on,60,37,70
2,note_on,59,0,10
2,note_on,59,37,70
2,note_on,60,0,10
2,note_on,56,40,70
2,note_on,59,0,10
2,note_on,57,36,70
2,note_on,56,0,10
2,note_on,56,36,70
2,note_on,57,0,10
2,note_on,52,39,70
2,note_on,56,0,10
2,note_on,53,35,70
2,note_on,52,0,10
2,note_on,52,35,70
2,note_on,53,0,10
2,note_on,45,25,70
2,note_on,56,25,0
2,note_on,52,0,10
2,note_on,56,0,110
2,note_on,45,0,0
2,note_on,64,44,120
2,note_on,64,0,41
2,note_on,65,37,0
2,note_on,65,0,80
2,note_on,64,37,0
2,note_on,64,0,80
2,note_on,60,41,0
2,note_on,45,31,184
2,note_on,52,31,0
2,note_on,52,0,28
2,note_on,45,0,0
2,note_on,60,0,120
2,note_on,57,45,0
2,note_on,57,0,52
2,note_on,59,44,0
2,note_on,59,0,80
2,note_on,57,46,0
2,note_on,57,0,80
2,note_on,56,53,0
2,note_on,56,0,46
2,note_on,57,53,0
2,note_on,57,0,80
2,note_on,55,56,0
2,note_on,55,0,80
2,note_on,54,61,0
2,note_on,54,0,40
2,note_on,55,56,0
2,note_on,55,0,80
2,note_on,53,57,0
2,note_on,53,0,80
2,note_on,52,63,0
2,note_on,52,0,49
2,note_on,53,56,0
2,note_on,53,0,80
2,note_on,52,56,0
2,note_on,52,0,80
2,note_on,40,72,0
2,note_on,40,0,110
2,note_on,64,44,120
2,note_on,64,0,54
2,note_on,65,37,0
2,note_on,65,0,80
2,note_on,64,37,0
2,note_on,64,0,80
2,note_on,61,41,0
2,note_on,55,27,176
2,note_on,45,27,0
2,note_on,58,27,0
2,note_on,58,0,39
2,note_on,45,0,0
2,note_on,55,0,0
2,note_on,61,0,120
2,note_on,57,40,0
2,note_on,58,37,80
2,note_on,57,0,10
2,note_on,57,37,70
2,note_on,58,0,10
2,note_on,62,40,70
2,note_on,57,0,10
2,note_on,64,37,70
2,note_on,62,0,10
2,note_on,62,37,70
2,note_on,64,0,10
2,note_on,61,57,70
2,note_on,69,67,0
2,note_on,62,0,10
2,note_on,69,0,226
2,note_on,61,0,0
2,note_on,57,56,0
2,note_on,65,65,0
2,note_on,65,0,126
2,note_on,57,0,0
2,note_on,53,69,0
2,note_on,57,72,30
2,note_on,62,73,30
2,note_on,62,0,109
2,note_on,57,0,0
2,note_on,53,0,0
2,note_on,62,44,120
2,note_on,62,0,52
2,note_on,64,37,0
2,note_on,64,0,80
2,note_on,62,37,0
2,note_on,62,0,80
2,note_on,59,41,0
2,note_on,53,27,176
2,note_on,43,27,0
2,note_on,56,27,0
2,note_on,56,0,39
2,note_on,43,0,0
2,note_on,53,0,0
2,note_on,59,0,120
2,note_on,55,40,0
2,note_on,57,37,80
2,note_on,55,0,10
2,note_on,55,37,70
2,note_on,57,0,10
2,note_on,60,40,70
2,note_on,55,0,10
2,note_on,62,37,70
2,note_on,60,0,10
2,note_on,60,37,70
2,note_on,62,0,10
2,note_on,59,57,70
2,note_on,67,67,0
2,note_on,60,0,10
2,note_on,67,0,190
2,note_on,59,0,0
2,note_on,55,56,0
2,note_on,64,65,0
2,note_on,64,0,126
2,note_on,55,0,0
2,note_on,52,69,0
2,note_on,55,72,30
2,note_on,60,73,30
2,note_on,60,0,109
2,note_on,55,0,0
2,note_on,52,0,0
2,note_on,62,44,120
2,note_on,62,0,53
2,note_on,64,37,0
2,note_on,64,0,80
2,note_on,62,37,0
2,note_on,62,0,80
2,note_on,65,41,0
2,note_on,50,27,176
2,note_on,59,27,0
2,note_on,59,0,39
2,note_on,50,0,0
2,note_on,65,0,120
2,note_on,71,44,0
2,note_on,71,0,40
2,note_on,72,33,0
2,note_on,72,0,40
2,note_on,71,33,0
2,note_on,71,0,20
2,note_on,60,44,140
2,note_on,60,0,54
2,note_on,62,37,0
2,note_on,62,0,80
2,note_on,60,37,0
2,note_on,60,0,80
2,note_on,64,41,0
2,note_on,48,27,176
2,note_on,57,27,0
2,note_on,57,0,39
2,note_on,48,0,0
2,note_on,64,0,120
2,note_on,69,44,0
2,note_on,69,0,40
2,note_on,70,33,0
2,note_on,70,0,40
2,note_on,69,33,0
2,note_on,69,0,20
2,note_on,50,27,140
2,note_on,50,0,240
2,note_on,65,28,0
2,note_on,62,28,0
2,note_on,62,0,240
2,note_on,65,0,0
2,note_on,52,29,0
2,note_on,52,0,240
2,note_on,68,31,0
2,note_on,64,31,0
2,note_on,64,0,240
2,note_on,68,0,0
2,note_on,64,32,0
2,note_on,69,32,0
2,note_on,57,32,0
2,note_on,57,0,240
2,note_on,69,0,0
2,note_on,64,0,0
2,note_on,38,27,0
2,note_on,45,27,0
2,note_on,45,0,120
2,note_on,38,0,0
2,note_on,33,27,120
2,note_on,45,27,0
2,note_on,45,0,120
2,note_on,33,0,0
2,note_on,52,86,360
2,note_on,45,72,0
2,note_on,45,0,64
2,note_on,52,0,0
2,note_on,48,45,120
2,note_on,52,54,0
2,note_on,52,0,88
2,note_on,48,0,0
2,note_on,52,54,120
2,note_on,47,45,0
2,note_on,47,0,29
2,note_on,52,0,0
2,note_on,52,54,120
2,note_on,45,45,0
2,note_on,45,0,101
2,note_on,52,0,0
2,note_on,52,63,120
2,note_on,44,54,0
2,note_on,44,0,46
2,note_on,52,0,0
2,note_on,52,57,120
2,note_on,40,48,0
2,note_on,40,0,108
2,note_on,52,0,0
2,note_on,42,47,120
2,note_on,52,56,0
2,note_on,52,0,46
2,note_on,42,0,0
2,note_on,52,56,120
2,note_on,44,47,0
2,note_on,44,0,108
2,note_on,52,0,0
2,note_on,52,86,120
2,note_on,45,72,0
2,note_on,45,0,64
2,note_on,52,0,0
2,note_on,52,54,120
2,note_on,48,45,0
2,note_on,48,0,101
2,note_on,52,0,0
2,note_on,52,54,120
2,note_on,47,45,0
2,note_on,47,0,60
2,note_on,52,0,0
2,note_on,52,54,0
2,note_on,45,45,0
2,note_on,45,0,120
2,note_on,52,0,0
2,note_on,52,63,120
2,note_on,44,54,0
2,note_on,44,0,46
2,note_on,52,0,0
2,note_on,51,57,120
2,note_on,41,48,0
2,note_on,41,0,103
2,note_on,51,0,0
2,note_on,52,61,120
2,note_on,40,51,0
2,note_on,40,0,51
2,note_on,52,0,0
2,note_on,56,56,120
2,note_on,52,47,0
2,note_on,52,0,103
2,note_on,56,0,0
2,note_on,57,90,120
2,note_on,45,75,0
2,note_on,45,0,64
2,note_on,57,0,0
2,note_on,60,59,120
2,note_on,48,49,0
2,note_on,48,0,107
2,note_on,60,0,0
2,note_on,59,59,120
2,note_on,47,49,0
2,note_on,47,0,14
2,note_on,59,0,0
2,note_on,57,59,120
2,note_on,45,49,0
2,note_on,45,0,113
2,note_on,57,0,0
2,note_on,56,69,120
2,note_on,44,58,0
2,note_on,44,0,46
2,note_on,56,0,0
2,note_on,52,63,120
2,note_on,40,54,0
2,note_on,40,0,91
2,note_on,52,0,0
2,note_on,54,62,120
2,note_on,42,51,0
2,note_on,42,0,46
2,note_on,54,0,0
2,note_on,56,62,120
2,note_on,44,51,0
2,note_on,44,0,85
2,note_on,56,0,0
2,note_on,57,90,120
2,note_on,45,75,0
2,note_on,45,0,64
2,note_on,57,0,0
2,note_on,60,60,120
2,note_on,48,50,0
2,note_on,48,0,113
2,note_on,60,0,0
2,note_on,59,61,120
2,note_on,47,51,0
2,note_on,47,0,57
2,note_on,59,0,0
2,note_on,57,63,0
2,note_on,45,53,0
2,note_on,45,0,120
2,note_on,57,0,0
2,note_on,56,74,120
2,note_on,44,63,0
2,note_on,44,0,46
2,note_on,56,0,0
2,note_on,53,76,120
2,note_on,41,65,0
2,note_on,41,0,103
2,note_on,53,0,0
2,note_on,52,78,120
2,note_on,40,64,0
2,note_on,40,0,46
2,note_on,52,0,0
2,note_on,56,67,120
2,note_on,64,80,0
2,note_on,59,67,0
2,note_on,59,0,103
2,note_on,64,0,0
2,note_on,56,0,0
2,note_on,57,94,120
2,note_on,45,79,0
2,note_on,45,0,64
2,note_on,57,0,0
2,note_on,59,62,120
2,note_on,47,52,0
2,note_on,47,0,108
2,note_on,59,0,0
2,note_on,49,52,120
2,note_on,61,62,0
2,note_on,61,0,51
2,note_on,49,0,0
2,note_on,57,62,120
2,note_on,45,52,0
2,note_on,45,0,114
2,note_on,57,0,0
2,note_on,62,72,120
2,note_on,50,61,0
2,note_on,50,0,46
2,note_on,62,0,0
2,note_on,61,64,120
2,note_on,70,76,0
2,note_on,70,0,240
2,note_on,61,0,0
2,note_on,69,77,0
2,note_on,62,63,0
2,note_on,62,0,166
2,note_on,69,0,0
2,note_on,69,79,0
2,note_on,65,64,0
2,note_on,65,0,75
2,note_on,69,0,0
2,note_on,55,94,0
2,note_on,43,79,0
2,note_on,43,0,64
2,note_on,55,0,0
2,note_on,57,62,120
2,note_on,45,52,0
2,note_on,45,0,101
2,note_on,57,0,0
2,note_on,59,62,120
2,note_on,47,52,0
2,note_on,47,0,14
2,note_on,59,0,0
2,note_on,55,62,120
2,note_on,43,52,0
2,note_on,43,0,69
2,note_on,55,0,0
2,note_on,60,75,120
2,note_on,48,64,0
2,note_on,48,0,46
2,note_on,60,0,0
2,note_on,67,77,120
2,note_on,62,65,0
2,note_on,62,0,240
2,note_on,67,0,0
2,note_on,67,78,0
2,note_on,64,63,0
2,note_on,64,0,166
2,note_on,67,0,0
2,note_on,67,79,0
2,note_on,60,64,0
2,note_on,60,0,57
2,note_on,67,0,0
2,note_on,62,90,0
2,note_on,50,75,0
2,note_on,50,0,64
2,note_on,62,0,0
2,note_on,65,52,120
2,note_on,68,52,0
2,note_on,71,62,0
2,note_on,71,0,180
2,note_on,68,0,0
2,note_on,65,0,0
2,note_on,64,52,60
2,note_on,68,52,0
2,note_on,71,62,0
2,note_on,71,0,114
2,note_on,68,0,0
2,note_on,64,0,0
2,note_on,62,52,60
2,note_on,68,52,0
2,note_on,71,62,0
2,note_on,71,0,180
2,note_on,68,0,0
2,note_on,62,0,0
2,note_on,60,61,60
2,note_on,72,72,0
2,note_on,69,61,0
2,note_on,69,0,144
2,note_on,72,0,0
2,note_on,60,0,0
2,note_on,65,58,60
2,note_on,68,69,0
2,note_on,59,58,0
2,note_on,59,0,180
2,note_on,68,0,0
2,note_on,65,0,0
2,note_on,57,56,60
2,note_on,69,67,0
2,note_on,64,56,0
2,note_on,64,0,106
2,note_on,69,0,0
2,note_on,57,0,0
2,note_on,61,56,60
2,note_on,64,67,0
2,note_on,55,56,0
2,note_on,55,0,180
2,note_on,64,0,0
2,note_on,61,0,0
2,note_on,53,67,60
2,note_on,65,79,0
2,note_on,62,67,0
2,note_on,62,0,106
2,note_on,65,0,0
2,note_on,53,0,0
2,note_on,51,65,60
2,note_on,63,77,0
2,note_on,60,65,0
2,note_on,57,65,0
2,note_on,57,0,180
2,note_on,51,0,0
2,note_on,63,0,0
2,note_on,60,0,0
2,note_on,60,66,60
2,note_on,52,66,0
2,note_on,64,80,0
2,note_on,57,66,0
2,note_on,57,0,106
2,note_on,60,0,0
2,note_on,52,0,0
2,note_on,64,0,0
2,note_on,56,70,60
2,note_on,59,70,0
2,note_on,64,85,0
2,note_on,52,70,0
2,note_on,52,0,180
2,note_on,56,0,0
2,note_on,59,0,0
2,note_on,64,0,0
2,note_on,45,80,60
2,note_on,52,80,0
2,note_on,57,93,0
2,note_on,57,0,339
2,note_on,52,0,0
2,note_on,45,0,0
2,note_on,64,67,0
2,note_on,69,77,0
2,note_on,60,67,0
2,note_on,60,0,120
2,note_on,69,0,0
2,note_on,64,0,0
2,note_on,57,38,353
2,note_on,57,0,60
2,note_on,64,32,60
2,note_on,64,0,60
2,note_on,52,32,60
2,note_on,52,0,60
2,note_on,64,32,60
2,note_on,64,0,60
2,note_on,60,34,60
2,note_on,60,0,60
2,note_on,64,31,60
2,note_on,64,0,60
2,note_on,57,29,60
2,note_on,57,0,60
2,note_on,64,30,60
2,note_on,64,0,60
2,note_on,56,38,60
2,note_on,56,0,60
2,note_on,64,32,60
2,note_on,64,0,60
2,note_on,52,32,60
2,note_on,52,0,60
2,note_on,64,32,60
2,note_on,64,0,60
2,note_on,56,38,60
2,note_on,56,0,60
2,note_on,64,32,60
2,note_on,64,0,60
2,note_on,59,29,60
2,note_on,59,0,60
2,note_on,64,30,60
2,note_on,64,0,60
2,note_on,57,38,60
2,note_on,57,0,60
2,note_on,64,32,60
2,note_on,64,0,60
2,note_on,52,32,60
2,note_on,52,0,60
2,note_on,64,32,60
2,note_on,64,0,60
2,note_on,60,36,60
2,note_on,60,0,60
2,note_on,64,32,60
2,note_on,64,0,60
2,note_on,57,29,60
2,note_on,57,0,60
2,note_on,64,30,60
2,note_on,64,0,60
2,note_on,56,38,60
2,note_on,56,0,60
2,note_on,64,32,60
2,note_on,64,0,60
2,note_on,52,32,60
2,note_on,52,0,60
2,note_on,64,32,60
2,note_on,64,0,60
2,note_on,56,35,60
2,note_on,56,0,60
2,note_on,59,29,60
2,note_on,59,0,60
2,note_on,64,39,60
2,note_on,64,0,240
2,note_on,57,38,0
2,note_on,57,0,60
2,note_on,64,32,60
2,note_on,64,0,60
2,note_on,52,32,60
2,note_on,52,0,60
2,note_on,64,32,60
2,note_on,64,0,60
2,note_on,60,34,60
2,note_on,60,0,60
2,note_on,64,31,60
2,note_on,64,0,60
2,note_on,57,29,60
2,note_on,57,0,60
2,note_on,64,30,60
2,note_on,64,0,60
2,note_on,56,38,60
2,note_on,56,0,60
2,note_on,64,32,60
2,note_on,64,0,60
2,note_on,52,32,60
2,note_on,52,0,60
2,note_on,64,32,60
2,note_on,64,0,60
2,note_on,56,38,60
2,note_on,56,0,60
2,note_on,64,32,60
2,note_on,64,0,60
2,note_on,59,29,60
2,note_on,59,0,60
2,note_on,64,30,60
2,note_on,64,0,60
2,note_on,57,38,60
2,note_on,57,0,60
2,note_on,64,32,60
2,note_on,64,0,60
2,note_on,52,32,60
2,note_on,52,0,60
2,note_on,64,32,60
2,note_on,64,0,60
2,note_on,60,36,60
2,note_on,60,0,60
2,note_on,64,32,60
2,note_on,64,0,60
2,note_on,57,29,60
2,note_on,57,0,60
2,note_on,64,30,60
2,note_on,64,0,60
2,note_on,56,38,60
2,note_on,56,0,60
2,note_on,64,32,60
2,note_on,64,0,60
2,note_on,52,32,60
2,note_on,52,0,60
2,note_on,64,32,60
2,note_on,64,0,60
2,note_on,59,33,60
2,note_on,59,0,60
2,note_on,68,26,60
2,note_on,68,0,60
2,note_on,64,32,60
2,note_on,64,0,240
2,note_on,61,49,0
2,note_on,61,0,120
2,note_on,69,41,0
2,note_on,69,0,120
2,note_on,57,41,0
2,note_on,57,0,120
2,note_on,69,41,0
2,note_on,69,0,120
2,note_on,73,44,0
2,note_on,73,0,60
2,note_on,50,54,420
2,note_on,57,54,0
2,note_on,57,0,240
2,note_on,50,0,0
2,note_on,77,56,240
2,note_on,77,0,60
2,note_on,74,49,60
2,note_on,74,0,60
2,note_on,59,46,300
2,note_on,59,0,120
2,note_on,67,38,0
2,note_on,67,0,120
2,note_on,55,38,0
2,note_on,55,0,120
2,note_on,67,38,0
2,note_on,67,0,120
2,note_on,74,41,0
2,note_on,74,0,60
2,note_on,48,51,420
2,note_on,55,51,0
2,note_on,55,0,240
2,note_on,48,0,0
2,note_on,76,53,240
2,note_on,76,0,60
2,note_on,72,46,60
2,note_on,72,0,60
2,note_on,65,38,300
2,note_on,56,32,0
2,note_on,62,32,0
2,note_on,62,0,240
2,note_on,56,0,0
2,note_on,65,0,0
2,note_on,64,38,720
2,note_on,60,32,0
2,note_on,60,0,240
2,note_on,64,0,0
2,note_on,65,45,0
2,note_on,65,0,60
2,note_on,62,45,180
2,note_on,62,0,60
2,note_on,59,45,180
2,note_on,59,0,60
2,note_on,65,45,180
2,note_on,65,0,60
2,note_on,50,45,60
2,note_on,50,0,60
2,note_on,68,45,300
2,note_on,68,0,60
2,note_on,52,45,60
2,note_on,52,0,60
2,note_on,69,42,420
2,note_on,64,35,0
2,note_on,64,0,60
2,note_on,69,0,0
2,note_on,45,38,300
2,note_on,45,0,240
2,note_on,69,38,240
2,note_on,69,0,1878
2,note_on,69,38,0
2,note_on,74,38,0
2,note_on,74,0,864
2,note_on,69,0,0
2,note_on,72,38,0
2,note_on,69,38,0
2,note_on,69,0,909
2,note_on,72,0,0
2,note_on,71,38,0
2,note_on,69,38,0
2,note_on,69,0,865
2,note_on,71,0,0
2,note_on,69,38,0
2,note_on,69,0,1878
2,note_on,69,38,0
2,note_on,74,38,0
2,note_on,74,0,864
2,note_on,69,0,0
2,note_on,69,38,0
2,note_on,72,38,0
2,note_on,72,0,909
2,note_on,69,0,0
2,note_on,71,38,0
2,note_on,69,38,0
2,note_on,69,0,865
2,note_on,71,0,0
2,note_on,69,38,0
2,note_on,69,0,918
2,note_on,81,50,560
2,note_on,81,0,240
2,note_on,79,50,0
2,note_on,79,0,23
2,note_on,77,49,0
2,note_on,77,0,240
2,note_on,76,48,0
2,note_on,76,0,240
2,note_on,74,46,0
2,note_on,74,0,240
2,note_on,71,38,0
2,note_on,71,0,918
2,note_on,79,50,586
2,note_on,79,0,240
2,note_on,77,50,0
2,note_on,77,0,106
2,note_on,76,49,0
2,note_on,76,0,240
2,note_on,74,48,0
2,note_on,74,0,240
2,note_on,72,46,0
2,note_on,72,0,240
2,note_on,68,36,0
2,note_on,74,38,0
2,note_on,74,0,918
2,note_on,68,0,0
2,note_on,88,49,366
2,note_on,80,41,0
2,note_on,80,0,223
2,note_on,88,0,0
2,note_on,88,47,240
2,note_on,81,40,0
2,note_on,81,0,240
2,note_on,88,0,0
2,note_on,88,47,240
2,note_on,85,40,0
2,note_on,85,0,183
2,note_on,88,0,0
2,note_on,89,49,240
2,note_on,86,41,0
2,note_on,86,0,194
2,note_on,89,0,0
2,note_on,76,36,406
2,note_on,86,44,0
2,note_on,86,0,183
2,note_on,76,0,0
2,note_on,84,40,720
2,note_on,81,34,0
2,note_on,40,69,251
2,note_on,40,0,80
2,note_on,42,74,0
2,note_on,42,0,80
2,note_on,44,79,0
2,note_on,44,0,80
2,note_on,81,0,0
2,note_on,84,0,0
2,note_on,45,81,0
2,note_on,33,69,0
2,note_on,57,79,203
2,note_on,57,0,240
2,note_on,33,0,0
2,note_on,45,0,0
2,note_on,48,82,0
2,note_on,36,69,0
2,note_on,60,79,240
2,note_on,60,0,240
2,note_on,36,0,0
2,note_on,48,0,0
2,note_on,47,82,0
2,note_on,35,69,0
2,note_on,59,77,208
2,note_on,59,0,240
2,note_on,35,0,0
2,note_on,47,0,0
2,note_on,45,81,0
2,note_on,33,69,0
2,note_on,57,77,208
2,note_on,57,0,240
2,note_on,33,0,0
2,note_on,45,0,0
2,note_on,32,58,26
2,note_on,32,0,80
2,note_on,35,59,0
2,note_on,35,0,80
2,note_on,40,60,0
2,note_on,40,0,80
2,note_on,44,61,0
2,note_on,44,0,80
2,note_on,47,62,0
2,note_on,47,0,80
2,note_on,52,64,0
2,note_on,52,0,80
2,note_on,56,63,0
2,note_on,56,0,80
2,note_on,59,66,0
2,note_on,59,0,80
2,note_on,64,67,0
2,note_on,64,0,31
2,note_on,68,68,0
2,note_on,68,0,80
2,note_on,71,69,0
2,note_on,71,0,80
2,note_on,76,73,0
2,note_on,76,0,80
2,note_on,71,70,0
2,note_on,71,0,80
2,note_on,68,70,0
2,note_on,68,0,80
2,note_on,64,69,0
2,note_on,64,0,28
2,note_on,59,69,0
2,note_on,59,0,80
2,note_on,56,68,0
2,note_on,56,0,80
2,note_on,52,67,0
2,note_on,52,0,80
2,note_on,47,66,0
2,note_on,47,0,80
2,note_on,44,64,0
2,note_on,44,0,80
2,note_on,40,63,0
2,note_on,40,0,80
2,note_on,35,62,0
2,note_on,35,0,80
2,note_on,32,61,0
2,note_on,32,0,80
2,note_on,33,69,0
2,note_on,45,81,0
2,note_on,57,79,165
2,note_on,57,0,240
2,note_on,45,0,0
2,note_on,33,0,0
2,note_on,48,82,0
2,note_on,36,69,0
2,note_on,60,79,240
2,note_on,60,0,240
2,note_on,36,0,0
2,note_on,48,0,0
2,note_on,47,82,0
2,note_on,35,69,0
2,note_on,59,77,208
2,note_on,59,0,240
2,note_on,35,0,0
2,note_on,47,0,0
2,note_on,45,81,0
2,note_on,33,69,0
2,note_on,57,77,208
2,note_on,57,0,240
2,note_on,33,0,0
2,note_on,45,0,0
2,note_on,52,70,0
2,note_on,40,59,0
2,note_on,47,59,0
2,note_on,47,0,68
2,note_on,40,0,0
2,note_on,52,0,0
2,note_on,52,51,0
2,note_on,52,0,120
2,note_on,53,52,0
2,note_on,53,0,120
2,note_on,54,55,0
2,note_on,54,0,120
2,note_on,55,57,0
2,note_on,55,0,120
2,note_on,56,59,0
2,note_on,56,0,120
2,note_on,57,61,0
2,note_on,57,0,120
2,note_on,58,62,0
2,note_on,58,0,120
2,note_on,59,64,0
2,note_on,59,0,120
2,note_on,60,67,0
2,note_on,60,0,120
2,note_on,61,69,0
2,note_on,61,0,120
2,note_on,62,71,0
2,note_on,62,0,120
2,note_on,63,73,0
2,note_on,63,0,120
2,note_on,64,75,0
2,note_on,64,0,120
2,note_on,65,73,0
2,note_on,65,0,120
2,note_on,64,67,0
2,note_on,64,0,17
2,note_on,40,69,30
2,note_on,40,0,80
2,note_on,42,74,0
2,note_on,42,0,80
2,note_on,44,79,0
2,note_on,44,0,80
2,note_on,45,81,0
2,note_on,33,69,0
2,note_on,57,79,203
2,note_on,57,0,240
2,note_on,33,0,0
2,note_on,45,0,0
2,note_on,48,82,0
2,note_on,36,69,0
2,note_on,60,79,240
2,note_on,60,0,240
2,note_on,36,0,0
2,note_on,48,0,0
2,note_on,47,82,0
2,note_on,35,69,0
2,note_on,59,77,208
2,note_on,59,0,240
2,note_on,35,0,0
2,note_on,47,0,0
2,note_on,45,81,0
2,note_on,33,69,0
2,note_on,57,77,208
2,note_on,57,0,240
2,note_on,33,0,0
2,note_on,45,0,0
2,note_on,32,58,26
2,note_on,32,0,80
2,note_on,35,59,0
2,note_on,35,0,80
2,note_on,40,60,0
2,note_on,40,0,80
2,note_on,44,61,0
2,note_on,44,0,80
2,note_on,47,62,0
2,note_on,47,0,80
2,note_on,52,64,0
2,note_on,52,0,80
2,note_on,56,63,0
2,note_on,56,0,80
2,note_on,59,66,0
2,note_on,59,0,80
2,note_on,64,67,0
2,note_on,64,0,37
2,note_on,68,68,0
2,note_on,68,0,80
2,note_on,71,69,0
2,note_on,71,0,80
2,note_on,76,73,0
2,note_on,76,0,80
2,note_on,71,70,0
2,note_on,71,0,80
2,note_on,68,70,0
2,note_on,68,0,80
2,note_on,64,69,0
2,note_on,64,0,31
2,note_on,59,69,0
2,note_on,59,0,80
2,note_on,56,68,0
2,note_on,56,0,80
2,note_on,52,67,0
2,note_on,52,0,80
2,note_on,47,66,0
2,note_on,47,0,80
2,note_on,44,64,0
2,note_on,44,0,80
2,note_on,40,63,0
2,note_on,40,0,80
2,note_on,35,62,0
2,note_on,35,0,80
2,note_on,32,61,0
2,note_on,32,0,80
2,note_on,33,69,0
2,note_on,45,81,0
2,note_on,57,79,165
2,note_on,57,0,240
2,note_on,45,0,0
2,note_on,33,0,0
2,note_on,48,82,0
2,note_on,36,69,0
2,note_on,60,79,240
2,note_on,60,0,240
2,note_on,36,0,0
2,note_on,48,0,0
2,note_on,47,82,0
2,note_on,35,69,0
2,note_on,59,77,208
2,note_on,59,0,240
2,note_on,35,0,0
2,note_on,47,0,0
2,note_on,45,81,0
2,note_on,33,69,0
2,note_on,57,77,208
2,note_on,57,0,240
2,note_on,33,0,0
2,note_on,45,0,0
2,note_on,52,70,0
2,note_on,40,59,0
2,note_on,47,59,0
2,note_on,47,0,34
2,note_on,40,0,0
2,note_on,52,0,0
2,note_on,52,51,0
2,note_on,52,0,120
2,note_on,53,52,0
2,note_on,53,0,120
2,note_on,54,55,0
2,note_on,54,0,120
2,note_on,55,57,0
2,note_on,55,0,120
2,note_on,56,59,0
2,note_on,56,0,120
2,note_on,57,61,0
2,note_on,57,0,120
2,note_on,58,62,0
2,note_on,58,0,120
2,note_on,59,64,0
2,note_on,59,0,120
2,note_on,60,67,0
2,note_on,60,0,120
2,note_on,61,69,0
2,note_on,61,0,120
2,note_on,62,71,0
2,note_on,62,0,120
2,note_on,63,73,0
2,note_on,63,0,120
2,note_on,64,75,0
2,note_on,64,0,120
2,note_on,65,73,0
2,note_on,65,0,120
2,note_on,64,67,0
2,note_on,64,0,85
2,note_on,57,70,0
2,note_on,49,59,0
2,note_on,52,59,0
2,note_on,52,0,165
2,note_on,49,0,0
2,note_on,57,0,0
2,note_on,37,67,0
2,note_on,37,0,240
2,note_on,58,72,0
2,note_on,49,60,0
2,note_on,55,60,0
2,note_on,55,0,240
2,note_on,49,0,0
2,note_on,58,0,0
2,note_on,45,67,0
2,note_on,45,0,240
2,note_on,57,74,0
2,note_on,49,62,0
2,note_on,53,62,0
2,note_on,53,0,208
2,note_on,49,0,0
2,note_on,57,0,0
2,note_on,37,67,0
2,note_on,37,0,240
2,note_on,55,77,0
2,note_on,49,59,0
2,note_on,52,64,0
2,note_on,52,0,208
2,note_on,49,0,0
2,note_on,55,0,0
2,note_on,45,69,0
2,note_on,45,0,240
2,note_on,53,75,0
2,note_on,38,63,0
2,note_on,38,0,109
2,note_on,53,0,0
2,note_on,64,45,120
2,note_on,55,38,0
2,note_on,58,38,0
2,note_on,58,0,120
2,note_on,55,0,0
2,note_on,64,0,0
2,note_on,65,47,120
2,note_on,57,39,0
2,note_on,62,39,0
2,note_on,62,0,120
2,note_on,57,0,0
2,note_on,65,0,0
2,note_on,76,48,120
2,note_on,67,40,0
2,note_on,70,40,0
2,note_on,70,0,120
2,note_on,67,0,0
2,note_on,76,0,0
2,note_on,77,49,120
2,note_on,69,41,0
2,note_on,74,41,0
2,note_on,74,0,120
2,note_on,69,0,0
2,note_on,77,0,0
2,note_on,88,51,120
2,note_on,82,42,0
2,note_on,79,42,0
2,note_on,79,0,120
2,note_on,82,0,0
2,note_on,88,0,0
2,note_on,89,53,120
2,note_on,81,45,0
2,note_on,86,45,0
2,note_on,86,0,83
2,note_on,81,0,0
2,note_on,89,0,0
2,note_on,55,70,214
2,note_on,47,59,0
2,note_on,50,59,0
2,note_on,50,0,171
2,note_on,47,0,0
2,note_on,55,0,0
2,note_on,35,67,0
2,note_on,35,0,240
2,note_on,56,72,0
2,note_on,47,60,0
2,note_on,53,60,0
2,note_on,53,0,240
2,note_on,47,0,0
2,note_on,56,0,0
2,note_on,43,67,0
2,note_on,43,0,240
2,note_on,55,74,0
2,note_on,47,62,0
2,note_on,52,62,0
2,note_on,52,0,208
2,note_on,47,0,0
2,note_on,55,0,0
2,note_on,35,67,0
2,note_on,35,0,240
2,note_on,53,77,0
2,note_on,47,59,0
2,note_on,50,64,0
2,note_on,50,0,208
2,note_on,47,0,0
2,note_on,53,0,0
2,note_on,43,69,0
2,note_on,43,0,240
2,note_on,52,71,0
2,note_on,36,63,0
2,note_on,36,0,109
2,note_on,52,0,0
2,note_on,62,45,120
2,note_on,53,38,0
2,note_on,56,38,0
2,note_on,56,0,120
2,note_on,53,0,0
2,note_on,62,0,0
2,note_on,64,47,120
2,note_on,55,39,0
2,note_on,60,39,0
2,note_on,60,0,120
2,note_on,55,0,0
2,note_on,64,0,0
2,note_on,68,40,120
2,note_on,74,48,0
2,note_on,65,40,0
2,note_on,65,0,120
2,note_on,74,0,0
2,note_on,68,0,0
2,note_on,76,49,120
2,note_on,67,41,0
2,note_on,72,41,0
2,note_on,72,0,120
2,note_on,67,0,0
2,note_on,76,0,0
2,note_on,86,51,120
2,note_on,80,42,0
2,note_on,77,42,0
2,note_on,77,0,120
2,note_on,80,0,0
2,note_on,86,0,0
2,note_on,88,53,120
2,note_on,79,45,0
2,note_on,84,45,0
2,note_on,84,0,97
2,note_on,79,0,0
2,note_on,88,0,0
2,note_on,48,61,81
2,note_on,48,0,44
2,note_on,50,66,0
2,note_on,50,0,80
2,note_on,52,69,0
2,note_on,52,0,80
2,note_on,53,74,0
2,note_on,41,74,0
2,note_on,41,0,148
2,note_on,53,0,0
2,note_on,68,69,0
2,note_on,62,58,0
2,note_on,59,58,0
2,note_on,59,0,240
2,note_on,62,0,0
2,note_on,68,0,0
2,note_on,68,69,0
2,note_on,62,59,0
2,note_on,59,59,0
2,note_on,59,0,240
2,note_on,62,0,0
2,note_on,68,0,0
2,note_on,35,60,0
2,note_on,47,72,0
2,note_on,47,0,187
2,note_on,35,0,0
2,note_on,51,79,0
2,note_on,39,79,0
2,note_on,39,0,159
2,note_on,51,0,0
2,note_on,66,69,0
2,note_on,60,59,0
2,note_on,57,59,0
2,note_on,57,0,240
2,note_on,60,0,0
2,note_on,66,0,0
2,note_on,66,68,0
2,note_on,60,58,0
2,note_on,57,55,0
2,note_on,57,0,240
2,note_on,60,0,0
2,note_on,66,0,0
2,note_on,33,62,0
2,note_on,45,74,0
2,note_on,45,0,183
2,note_on,33,0,0
2,note_on,49,79,0
2,note_on,37,79,0
2,note_on,37,0,134
2,note_on,49,0,0
2,note_on,64,71,0
2,note_on,58,60,0
2,note_on,55,60,0
2,note_on,55,0,240
2,note_on,58,0,0
2,note_on,64,0,0
2,note_on,64,72,0
2,note_on,58,60,0
2,note_on,55,60,0
2,note_on,55,0,240
2,note_on,58,0,0
2,note_on,64,0,0
2,note_on,31,63,0
2,note_on,43,75,0
2,note_on,43,0,145
2,note_on,31,0,0
2,note_on,47,83,0
2,note_on,35,83,0
2,note_on,35,0,157
2,note_on,47,0,0
2,note_on,62,72,0
2,note_on,56,61,0
2,note_on,53,61,0
2,note_on,53,0,240
2,note_on,56,0,0
2,note_on,62,0,0
2,note_on,62,73,0
2,note_on,56,62,0
2,note_on,53,62,0
2,note_on,53,0,240
2,note_on,56,0,0
2,note_on,62,0,0
2,note_on,29,64,0
2,note_on,41,78,0
2,note_on,41,0,183
2,note_on,29,0,0
2,note_on,47,85,0
2,note_on,35,85,0
2,note_on,35,0,197
2,note_on,47,0,0
2,note_on,62,74,0
2,note_on,57,62,0
2,note_on,53,62,0
2,note_on,53,0,240
2,note_on,57,0,0
2,note_on,62,0,0
2,note_on,62,75,0
2,note_on,57,63,0
2,note_on,53,63,0
2,note_on,53,0,240
2,note_on,57,0,0
2,note_on,62,0,0
2,note_on,29,67,0
2,note_on,41,79,0
2,note_on,41,0,214
2,note_on,29,0,0
2,note_on,47,86,0
2,note_on,35,86,0
2,note_on,35,0,148
2,note_on,47,0,0
2,note_on,63,77,0
2,note_on,57,64,0
2,note_on,53,64,0
2,note_on,53,0,240
2,note_on,57,0,0
2,note_on,63,0,0
2,note_on,63,77,0
2,note_on,57,64,0
2,note_on,53,64,0
2,note_on,53,0,240
2,note_on,57,0,0
2,note_on,63,0,0
2,note_on,45,79,0
2,note_on,45,0,11
2,note_on,43,82,0
2,note_on,43,0,80
2,note_on,41,85,0
2,note_on,41,0,80
2,note_on,40,89,0
2,note_on,40,0,125
2,note_on,64,80,240
2,note_on,59,80,0
2,note_on,57,68,0
2,note_on,52,68,0
2,note_on,52,0,240
2,note_on,64,0,0
2,note_on,59,0,0
2,note_on,57,0,0
2,note_on,52,89,240
2,note_on,40,74,0
2,note_on,40,0,68
2,note_on,52,0,0
2,note_on,64,80,240
2,note_on,59,80,0
2,note_on,56,68,0
2,note_on,52,68,0
2,note_on,52,0,240
2,note_on,64,0,0
2,note_on,59,0,0
2,note_on,56,0,0
2,note_on,45,88,240
2,note_on,33,73,0
2,note_on,36,73,0
2,note_on,40,73,3
2,note_on,36,0,190
2,note_on,45,0,0
2,note_on,33,0,0
2,note_on,40,0,3
2,note_on,57,78,117
2,note_on,57,0,120
2,note_on,57,82,0
2,note_on,57,0,120
2,note_on,60,79,0
2,note_on,60,0,120
2,note_on,59,83,0
2,note_on,59,0,120
2,note_on,57,79,0
2,note_on,57,0,120
2,note_on,64,85,0
2,note_on,64,0,190
2,note_on,40,80,120
2,note_on,40,0,120
2,note_on,40,85,0
2,note_on,40,0,60
2,note_on,43,80,0
2,note_on,43,0,120
2,note_on,41,86,0
2,note_on,41,0,120
2,note_on,40,80,0
2,note_on,40,0,120
2,note_on,45,88,0
2,note_on,33,73,0
2,note_on,37,73,0
2,note_on,40,73,3
2,note_on,37,0,183
2,note_on,45,0,0
2,note_on,33,0,0
2,note_on,40,0,3
2,note_on,57,79,117
2,note_on,57,0,120
2,note_on,57,83,0
2,note_on,57,0,120
2,note_on,60,78,0
2,note_on,60,0,120
2,note_on,58,82,0
2,note_on,58,0,120
2,note_on,57,79,0
2,note_on,57,0,120
2,note_on,67,83,0
2,note_on,67,0,197
2,note_on,45,81,120
2,note_on,45,0,120
2,note_on,45,86,0
2,note_on,45,0,60
2,note_on,48,81,0
2,note_on,48,0,120
2,note_on,46,86,0
2,note_on,46,0,120
2,note_on,45,79,0
2,note_on,45,0,120
2,note_on,45,73,0
2,note_on,50,88,0
2,note_on,38,73,0
2,note_on,41,73,0
2,note_on,41,0,162
2,note_on,45,0,0
2,note_on,50,0,0
2,note_on,38,0,0
2,note_on,57,79,120
2,note_on,57,0,120
2,note_on,57,83,0
2,note_on,57,0,120
2,note_on,60,77,0
2,note_on,60,0,120
2,note_on,58,82,0
2,note_on,58,0,120
2,note_on,57,73,0
2,note_on,57,0,120
2,note_on,65,85,0
2,note_on,65,0,204
2,note_on,38,81,120
2,note_on,38,0,120
2,note_on,38,89,0
2,note_on,38,0,74
2,note_on,37,82,0
2,note_on,37,0,120
2,note_on,38,88,0
2,note_on,38,0,120
2,note_on,40,80,0
2,note_on,40,0,120
2,note_on,53,89,0
2,note_on,41,74,0
2,note_on,65,80,125
2,note_on,56,68,0
2,note_on,62,68,0
2,note_on,62,0,240
2,note_on,65,0,0
2,note_on,53,0,0
2,note_on,41,0,0
2,note_on,56,0,0
2,note_on,56,89,0
2,note_on,44,75,0
2,note_on,68,81,240
2,note_on,65,69,0
2,note_on,59,69,0
2,note_on,59,0,240
2,note_on,68,0,0
2,note_on,56,0,0
2,note_on,44,0,0
2,note_on,65,0,0
2,note_on,59,89,0
2,note_on,47,74,0
2,note_on,71,80,68
2,note_on,68,68,0
2,note_on,62,68,0
2,note_on,62,0,240
2,note_on,71,0,0
2,note_on,59,0,0
2,note_on,47,0,0
2,note_on,68,0,0
2,note_on,52,90,0
2,note_on,40,77,0
2,note_on,64,83,240
2,note_on,59,70,0
2,note_on,56,70,0
2,note_on,56,0,240
2,note_on,64,0,0
2,note_on,52,0,0
2,note_on,40,0,0
2,note_on,59,0,0
2,note_on,45,88,0
2,note_on,33,73,0
2,note_on,36,73,0
2,note_on,40,73,3
2,note_on,36,0,190
2,note_on,45,0,0
2,note_on,33,0,0
2,note_on,40,0,3
2,note_on,57,79,117
2,note_on,57,0,120
2,note_on,57,84,0
2,note_on,57,0,120
2,note_on,60,79,0
2,note_on,60,0,120
2,note_on,59,86,0
2,note_on,59,0,120
2,note_on,57,79,0
2,note_on,57,0,120
2,note_on,64,88,0
2,note_on,64,0,197
2,note_on,40,80,120
2,note_on,40,0,120
2,note_on,40,85,0
2,note_on,40,0,60
2,note_on,43,80,0
2,note_on,43,0,120
2,note_on,41,86,0
2,note_on,41,0,120
2,note_on,40,80,0
2,note_on,40,0,120
2,note_on,45,88,0
2,note_on,33,73,0
2,note_on,37,73,0
2,note_on,40,73,3
2,note_on,37,0,183
2,note_on,45,0,0
2,note_on,33,0,0
2,note_on,40,0,3
2,note_on,57,79,117
2,note_on,57,0,120
2,note_on,57,83,0
2,note_on,57,0,120
2,note_on,60,79,0
2,note_on,60,0,120
2,note_on,58,82,0
2,note_on,58,0,120
2,note_on,57,78,0
2,note_on,57,0,120
2,note_on,67,84,0
2,note_on,67,0,180
2,note_on,45,81,120
2,note_on,45,0,120
2,note_on,45,86,0
2,note_on,45,0,77
2,note_on,48,81,0
2,note_on,48,0,120
2,note_on,46,86,0
2,note_on,46,0,120
2,note_on,45,79,0
2,note_on,45,0,120
2,note_on,45,73,0
2,note_on,50,88,0
2,note_on,38,73,0
2,note_on,41,73,0
2,note_on,41,0,162
2,note_on,45,0,0
2,note_on,50,0,0
2,note_on,38,0,0
2,note_on,57,80,120
2,note_on,57,0,120
2,note_on,57,83,0
2,note_on,57,0,120
2,note_on,60,79,0
2,note_on,60,0,120
2,note_on,58,83,0
2,note_on,58,0,120
2,note_on,57,77,0
2,note_on,57,0,120
2,note_on,65,82,0
2,note_on,65,0,187
2,note_on,38,81,120
2,note_on,38,0,120
2,note_on,38,89,0
2,note_on,38,0,32
2,note_on,37,82,0
2,note_on,37,0,120
2,note_on,38,88,0
2,note_on,38,0,120
2,note_on,40,80,0
2,note_on,40,0,120
2,note_on,53,89,0
2,note_on,41,74,0
2,note_on,65,80,125
2,note_on,56,68,0
2,note_on,62,68,0
2,note_on,56,0,237
2,note_on,65,0,3
2,note_on,53,0,0
2,note_on,41,0,0
2,note_on,62,0,0
2,note_on,56,89,0
2,note_on,44,75,0
2,note_on,68,81,240
2,note_on,65,69,0
2,note_on,59,69,0
2,note_on,59,0,237
2,note_on,68,0,3
2,note_on,56,0,0
2,note_on,44,0,0
2,note_on,65,0,0
2,note_on,59,89,0
2,note_on,47,74,0
2,note_on,71,80,68
2,note_on,68,68,0
2,note_on,62,68,0
2,note_on,62,0,240
2,note_on,71,0,0
2,note_on,59,0,0
2,note_on,47,0,0
2,note_on,68,0,0
2,note_on,52,90,0
2,note_on,40,77,0
2,note_on,64,83,240
2,note_on,59,70,0
2,note_on,56,70,0
2,note_on,56,0,240
2,note_on,64,0,0
2,note_on,52,0,0
2,note_on,40,0,0
2,note_on,59,0,0
2,note_on,33,88,0
2,note_on,37,61,41
2,note_on,37,0,80
2,note_on,40,62,0
2,note_on,40,0,80
2,note_on,45,63,0
2,note_on,45,0,80
2,note_on,49,63,0
2,note_on,49,0,80
2,note_on,52,64,0
2,note_on,52,0,80
2,note_on,57,66,0
2,note_on,57,0,80
2,note_on,61,67,0
2,note_on,61,0,80
2,note_on,64,68,0
2,note_on,64,0,80
2,note_on,69,69,0
2,note_on,69,0,80
2,note_on,73,69,0
2,note_on,73,0,80
2,note_on,76,69,0
2,note_on,76,0,80
2,note_on,33,0,0
2,note_on,81,80,0
2,note_on,81,0,80
2,note_on,76,70,0
2,note_on,76,0,80
2,note_on,73,70,0
2,note_on,73,0,80
2,note_on,69,69,0
2,note_on,69,0,80
2,note_on,64,69,0
2,note_on,64,0,80
2,note_on,61,68,0
2,note_on,61,0,80
2,note_on,57,67,0
2,note_on,57,0,80
2,note_on,52,66,0
2,note_on,52,0,80
2,note_on,49,64,0
2,note_on,49,0,80
2,note_on,45,63,0
2,note_on,45,0,80
2,note_on,40,63,0
2,note_on,40,0,80
2,note_on,37,61,0
2,note_on,37,0,80
2,note_on,33,85,0
2,note_on,37,56,23
2,note_on,37,0,80
2,note_on,40,58,0
2,note_on,40,0,80
2,note_on,45,59,0
2,note_on,45,0,80
2,note_on,49,60,0
2,note_on,49,0,80
2,note_on,52,62,0
2,note_on,52,0,80
2,note_on,57,64,0
2,note_on,57,0,80
2,note_on,61,67,0
2,note_on,61,0,80
2,note_on,64,69,0
2,note_on,64,0,80
2,note_on,69,70,0
2,note_on,69,0,60
2,note_on,73,71,0
2,note_on,73,0,60
2,note_on,76,72,0
2,note_on,76,0,60
2,note_on,81,74,0
2,note_on,81,0,60
2,note_on,33,0,0
2,note_on,85,75,0
2,note_on,85,0,60
2,note_on,81,74,0
2,note_on,81,0,60
2,note_on,76,73,0
2,note_on,76,0,60
2,note_on,73,72,0
2,note_on,73,0,60
2,note_on,69,70,0
2,note_on,69,0,80
2,note_on,64,69,0
2,note_on,64,0,80
2,note_on,61,69,0
2,note_on,61,0,80
2,note_on,57,67,0
2,note_on,57,0,80
2,note_on,52,64,0
2,note_on,52,0,80
2,note_on,49,63,0
2,note_on,49,0,80
2,note_on,45,61,0
2,note_on,45,0,80
2,note_on,40,60,0
2,note_on,40,0,80
2,note_on,37,59,0
2,note_on,37,0,80
2,note_on,33,88,0
2,note_on,37,59,41
2,note_on,37,0,80
2,note_on,40,59,0
2,note_on,40,0,80
2,note_on,45,61,0
2,note_on,45,0,80
2,note_on,49,62,0
2,note_on,49,0,80
2,note_on,52,63,0
2,note_on,52,0,80
2,note_on,57,66,0
2,note_on,57,0,80
2,note_on,61,67,0
2,note_on,61,0,80
2,note_on,64,69,0
2,note_on,64,0,80
2,note_on,69,69,0
2,note_on,69,0,80
2,note_on,73,71,0
2,note_on,73,0,80
2,note_on,76,72,0
2,note_on,76,0,80
2,note_on,33,0,0
2,note_on,81,74,0
2,note_on,81,0,96
2,note_on,85,75,0
2,note_on,85,0,96
2,note_on,89,78,0
2,note_on,89,0,96
2,note_on,88,77,0
2,note_on,88,0,96
2,note_on,85,77,0
2,note_on,85,0,96
2,note_on,81,74,4
2,note_on,81,0,80
2,note_on,76,72,0
2,note_on,76,0,80
2,note_on,73,71,0
2,note_on,73,0,80
2,note_on,69,69,0
2,note_on,69,0,80
2,note_on,64,69,0
2,note_on,64,0,80
2,note_on,61,67,0
2,note_on,61,0,80
2,note_on,57,66,0
2,note_on,57,0,80
2,note_on,52,63,0
2,note_on,52,0,80
2,note_on,49,62,0
2,note_on,49,0,80
2,note_on,45,60,0
2,note_on,45,0,80
2,note_on,40,59,0
2,note_on,40,0,80
2,note_on,37,58,0
2,note_on,33,67,0
2,note_on,37,0,4
2,note_on,34,59,56
2,note_on,33,0,18
2,note_on,33,64,42
2,note_on,34,0,18
2,note_on,34,58,42
2,note_on,33,0,18
2,note_on,33,64,42
2,note_on,34,0,18
2,note_on,34,58,42
2,note_on,33,0,18
2,note_on,33,64,42
2,note_on,34,0,18
2,note_on,34,58,42
2,note_on,33,0,18
2,note_on,33,64,42
2,note_on,34,0,18
2,note_on,34,58,42
2,note_on,33,0,18
2,note_on,33,66,42
2,note_on,34,0,18
2,note_on,34,59,42
2,note_on,33,0,18
2,note_on,33,66,42
2,note_on,34,0,18
2,note_on,34,60,42
2,note_on,33,0,18
2,note_on,33,66,42
2,note_on,34,0,18
2,note_on,34,59,42
2,note_on,33,0,18
2,note_on,33,62,42
2,note_on,34,0,18
2,note_on,33,0,34
2,note_on,34,64,0
2,note_on,34,0,60
2,note_on,35,67,0
2,note_on,35,0,60
2,note_on,36,69,0
2,note_on,36,0,60
2,note_on,37,71,0
2,note_on,37,0,60
2,note_on,38,73,0
2,note_on,38,0,60
2,note_on,39,75,0
2,note_on,39,0,60
2,note_on,40,78,0
2,note_on,40,0,60
2,note_on,41,80,0
2,note_on,41,0,60
2,note_on,40,81,0
2,note_on,40,0,60
2,note_on,39,80,0
2,note_on,39,0,60
2,note_on,38,80,0
2,note_on,38,0,60
2,note_on,37,79,0
2,note_on,37,0,60
2,note_on,36,79,0
2,note_on,36,0,60
2,note_on,35,79,0
2,note_on,35,0,60
2,note_on,34,78,0
2,note_on,34,0,60
2,note_on,33,89,0
2,note_on,33,0,106
2,note_on,57,84,240
2,note_on,52,77,0
2,note_on,49,70,0
2,note_on,45,70,0
2,note_on,45,0,240
2,note_on,57,0,0
2,note_on,52,0,0
2,note_on,49,0,0
2,note_on,69,84,240
2,note_on,64,77,0
2,note_on,61,70,0
2,note_on,57,70,0
2,note_on,57,0,240
2,note_on,69,0,0
2,note_on,64,0,0
2,note_on,61,0,0
3,note_on,76,17,80640
3,note_on,76,0,80
3,note_on,77,17,0
3,note_on,77,0,80
3,note_on,76,18,0
3,note_on,76,0,80
3,note_on,77,18,0
3,note_on,77,0,80
3,note_on,76,18,0
3,note_on,76,0,80
3,note_on,77,18,0
3,note_on,77,0,80
3,note_on,76,18,0
3,note_on,76,0,80
3,note_on,77,20,0
3,note_on,77,0,80
3,note_on,76,20,0
3,note_on,76,0,80
3,note_on,77,22,0
3,note_on,77,0,80
3,note_on,76,23,0
3,note_on,76,0,80
3,note_on,77,23,0
3,note_on,77,0,80
3,note_on,76,22,0
3,note_on,76,0,80
3,note_on,77,22,0
3,note_on,77,0,80
3,note_on,76,22,0
3,note_on,76,0,80
3,note_on,77,22,0
3,note_on,77,0,80
3,note_on,76,22,0
3,note_on,76,0,80
3,note_on,77,22,0
3,note_on,77,0,80
3,note_on,76,22,0
3,note_on,76,0,80
3,note_on,77,22,0
3,note_on,77,0,80
3,note_on,76,22,0
3,note_on,76,0,80
3,note_on,77,22,0
3,note_on,77,0,80
3,note_on,76,22,0
3,note_on,76,0,80
3,note_on,77,22,0
3,note_on,77,0,80
3,note_on,76,21,0
3,note_on,76,0,80
3,note_on,77,21,0
3,note_on,77,0,80
3,note_on,76,21,0
3,note_on,76,0,80
3,note_on,77,22,0
3,note_on,77,0,80
3,note_on,76,22,0
3,note_on,76,0,80
3,note_on,77,22,0
3,note_on,77,0,80
3,note_on,76,23,0
3,note_on,76,0,80
3,note_on,77,24,0
3,note_on,77,0,80
3,note_on,76,24,0
3,note_on,76,0,80
3,note_on,77,25,0
3,note_on,77,0,80
3,note_on,76,26,0
3,note_on,76,0,80
3,note_on,77,29,0
3,note_on,77,0,80
3,note_on,76,31,0
3,note_on,76,0,80
3,note_on,77,30,0
3,note_on,77,0,80
3,note_on,76,29,0
3,note_on,76,0,80
3,note_on,77,29,0
3,note_on,77,0,80
3,note_on,76,29,0
3,note_on,76,0,80
3,note_on,77,27,0
3,note_on,77,0,80
3,note_on,76,25,0
3,note_on,76,0,80
3,note_on,77,25,0
3,note_on,77,0,80
3,note_on,76,25,0
3,note_on,76,0,80
3,note_on,77,25,0
3,note_on,77,0,80
3,note_on,76,25,0
3,note_on,76,0,80
3,note_on,77,23,0
3,note_on,77,0,80
3,note_on,76,19,0
3,note_on,76,0,80
3,note_on,77,23,0
3,note_on,77,0,80
3,note_on,76,24,0
3,note_on,76,0,80
3,note_on,77,24,0
3,note_on,77,0,80
3,note_on,76,25,0
3,note_on,76,0,80
3,note_on,77,25,0
3,note_on,77,0,80
3,note_on,76,25,0
3,note_on,76,0,80
3,note_on,77,26,0
3,note_on,77,0,80
3,note_on,76,26,0
3,note_on,76,0,80
3,note_on,77,26,0
3,note_on,77,0,80
3,note_on,76,28,0
3,note_on,76,0,80
3,note_on,77,28,0
3,note_on,77,0,80
3,note_on,76,28,0
3,note_on,76,0,80
3,note_on,77,29,0
3,note_on,77,0,80
3,note_on,76,29,0
3,note_on,76,0,80
3,note_on,77,29,0
3,note_on,77,0,80
3,note_on,76,29,0
3,note_on,76,0,80
3,note_on,77,29,0
3,note_on,77,0,80
3,note_on,76,29,0
3,note_on,76,0,80
3,note_on,77,29,0
3,note_on,77,0,80
3,note_on,76,27,0
3,note_on,76,0,80
3,note_on,77,25,0
3,note_on,77,0,80
3,note_on,76,25,0
3,note_on,76,0,80
3,note_on,77,25,0
3,note_on,77,0,80
3,note_on,76,26,0
3,note_on,76,0,80
3,note_on,77,22,0
3,note_on,77,0,80
3,note_on,76,23,0
3,note_on,76,0,80
3,note_on,77,24,0
3,note_on,77,0,80
3,note_on,76,24,0
3,note_on,76,0,80
3,note_on,77,24,0
3,note_on,77,0,80
3,note_on,76,26,0
3,note_on,76,0,80
3,note_on,77,28,0
3,note_on,77,0,80
3,note_on,76,28,0
3,note_on,76,0,80
3,note_on,77,30,0
3,note_on,77,0,80
3,note_on,76,31,0
3,note_on,76,0,80
3,note_on,77,31,0
3,note_on,77,0,80
3,note_on,76,30,0
3,note_on,76,0,80
3,note_on,77,30,0
3,note_on,77,0,80
3,note_on,76,30,0
3,note_on,76,0,80
3,note_on,77,30,0
3,note_on,77,0,80
3,note_on,76,29,0
3,note_on,76,0,80
3,note_on,77,26,0
3,note_on,77,0,80
3,note_on,76,26,0
3,note_on,76,0,80
3,note_on,77,25,0
3,note_on,77,0,80
3,note_on,76,24,0
3,note_on,76,0,80
3,note_on,77,24,0
3,note_on,77,0,80
3,note_on,76,23,0
3,note_on,76,0,80
3,note_on,77,21,0
3,note_on,77,0,80
3,note_on,76,21,0
3,note_on,76,0,80
3,note_on,77,21,0
3,note_on,77,0,80
3,note_on,76,21,0
3,note_on,76,0,80
3,note_on,77,22,0
3,note_on,77,0,80
3,note_on,76,24,0
3,note_on,76,0,80
3,note_on,77,24,0
3,note_on,77,0,80
3,note_on,76,25,0
3,note_on,76,0,80
3,note_on,77,26,0
3,note_on,77,0,80
3,note_on,76,26,0
3,note_on,76,0,80
3,note_on,77,28,0
3,note_on,77,0,80
3,note_on,76,28,0
3,note_on,76,0,80
3,note_on,77,28,0
3,note_on,77,0,80
3,note_on,76,27,0
3,note_on,76,0,80
3,note_on,77,27,0
3,note_on,77,0,80
3,note_on,76,27,0
3,note_on,76,0,80
3,note_on,77,27,0
3,note_on,77,0,80
3,note_on,76,25,0
3,note_on,76,0,80
3,note_on,77,23,0
3,note_on,77,0,80
3,note_on,76,23,0
3,note_on,76,0,80
3,note_on,77,23,0
3,note_on,77,0,80
3,note_on,76,23,0
3,note_on,76,0,80
3,note_on,77,23,0
3,note_on,77,0,80
3,note_on,76,23,0
3,note_on,76,0,80
3,note_on,77,23,0
3,note_on,77,0,80
3,note_on,76,23,0
3,note_on,76,0,80
3,note_on,77,23,0
3,note_on,77,0,80
3,note_on,76,23,0
3,note_on,76,0,80
3,note_on,77,23,0
3,note_on,77,0,80
3,note_on,76,25,0
3,note_on,76,0,80
3,note_on,77,22,0
3,note_on,77,0,80
3,note_on,76,22,0
3,note_on,76,0,80
3,note_on,77,22,0
3,note_on,77,0,80
3,note_on,76,22,0
3,note_on,76,0,80
3,note_on,77,23,0
3,note_on,77,0,80
3,note_on,76,25,0
3,note_on,76,0,80
3,note_on,77,26,0
3,note_on,77,0,80
3,note_on,76,27,0
3,note_on,76,0,80
3,note_on,77,27,0
3,note_on,77,0,80
3,note_on,76,27,0
3,note_on,76,0,80
3,note_on,77,27,0
3,note_on,77,0,80
3,note_on,76,27,0
3,note_on,76,0,80
3,note_on,77,27,0
3,note_on,77,0,80
3,note_on,76,26,0
3,note_on,76,0,80
3,note_on,77,25,0
3,note_on,77,0,80
3,note_on,76,25,0
3,note_on,76,0,80
3,note_on,77,25,0
3,note_on,77,0,80
3,note_on,76,24,0
3,note_on,76,0,80
3,note_on,77,19,0
3,note_on,77,0,80
3,note_on,76,17,0
3,note_on,76,0,80
3,note_on,77,18,0
3,note_on,77,0,80
3,note_on,76,18,0
3,note_on,76,0,80
3,note_on,77,20,0
3,note_on,77,0,80
3,note_on,76,20,0
3,note_on,76,0,80
3,note_on,77,22,0
3,note_on,77,0,80
3,note_on,76,24,0
3,note_on,76,0,80
3,note_on,77,25,0
3,note_on,77,0,80
3,note_on,76,26,0
3,note_on,76,0,80
3,note_on,77,29,0
3,note_on,77,0,80
3,note_on,76,29,0
3,note_on,76,0,80
3,note_on,77,30,0
3,note_on,77,0,80
3,note_on,76,25,0
3,note_on,76,0,80
3,note_on,77,25,0
3,note_on,77,0,80
3,note_on,76,25,0
3,note_on,76,0,80
3,note_on,77,25,0
3,note_on,77,0,80
3,note_on,76,25,0
3,note_on,76,0,80
3,note_on,77,25,0
3,note_on,77,0,80
3,note_on,76,25,0
3,note_on,76,0,80
3,note_on,77,25,0
3,note_on,77,0,80
3,note_on,76,25,0
3,note_on,76,0,80
3,note_on,77,25,0
3,note_on,77,0,80
3,note_on,76,25,0
3,note_on,76,0,80
3,note_on,77,24,0
3,note_on,77,0,80
3,note_on,76,26,0
3,note_on,76,0,80
3,note_on,77,23,0
3,note_on,77,0,80
3,note_on,76,24,0
3,note_on,76,0,80
3,note_on,77,26,0
3,note_on,77,0,80
3,note_on,76,28,0
3,note_on,76,0,80
3,note_on,77,29,0
3,note_on,77,0,80
3,note_on,76,29,0
3,note_on,76,0,80
3,note_on,77,29,0
3,note_on,77,0,80
3,note_on,76,29,0
3,note_on,76,0,80
3,note_on,77,29,0
3,note_on,77,0,80
3,note_on,76,29,0
3,note_on,76,0,80
3,note_on,77,26,0
3,note_on,77,0,80
3,note_on,76,27,0
3,note_on,76,0,80
3,note_on,77,26,0
3,note_on,77,0,80
3,note_on,76,26,0
3,note_on,76,0,80
3,note_on,77,26,0
3,note_on,77,0,80
3,note_on,76,26,0
3,note_on,76,0,80
3,note_on,77,26,0
3,note_on,77,0,80
3,note_on,76,26,0
3,note_on,76,0,80
3,note_on,77,23,0
3,note_on,77,0,80
3,note_on,76,21,0
3,note_on,76,0,80
3,note_on,77,18,0
3,note_on,77,0,80
3,note_on,76,18,0
3,note_on,76,0,80
3,note_on,77,18,0
3,note_on,77,0,80
3,note_on,76,23,0
3,note_on,76,0,120
3,note_on,77,16,0
3,note_on,77,0,120
3,note_on,76,16,0
3,note_on,76,0,120
3,note_on,77,16,0
3,note_on,77,0,120
3,note_on,76,17,0
3,note_on,76,0,120
3,note_on,77,17,0
3,note_on,77,0,120
3,note_on,76,18,0
3,note_on,76,0,120
3,note_on,77,18,0
3,note_on,77,0,120
3,note_on,76,30,0
3,note_on,76,0,480
3,note_on,77,24,2400
3,note_on,77,0,120
3,note_on,76,16,0
3,note_on,76,0,120
3,note_on,77,16,0
3,note_on,77,0,120
3,note_on,76,16,0
3,note_on,76,0,120
3,note_on,77,17,0
3,note_on,77,0,120
3,note_on,76,17,0
3,note_on,76,0,120
3,note_on,77,18,0
3,note_on,77,0,120
3,note_on,76,18,0
3,note_on,76,0,120
3,note_on,77,30,0
3,note_on,77,0,480
3,note_on,77,23,2400
3,note_on,77,0,120
3,note_on,76,19,0
3,note_on,76,0,120
3,note_on,77,16,0
3,note_on,77,0,120
3,note_on,76,16,0
3,note_on,76,0,120
3,note_on,77,17,0
3,note_on,77,0,120
3,note_on,76,17,0
3,note_on,76,0,120
3,note_on,77,18,0
3,note_on,77,0,120
3,note_on,76,18,0
3,note_on,76,0,120
3,note_on,77,30,0
3,note_on,77,0,480
4,note_on,45,38,30480
4,note_on,52,41,40
4,note_on,57,45,40
4,note_on,60,48,40
4,note_on,57,0,140
4,note_on,45,0,90
4,note_on,52,0,10
4,note_on,60,0,0
