Track,Message Type,Note,Velocity,Time
1,note_on,46,79,2700
1,note_on,46,0,740
1,note_on,50,60,0
1,note_on,50,0,80
1,note_on,55,62,0
1,note_on,55,0,80
1,note_on,58,63,0
1,note_on,58,0,80
1,note_on,62,64,0
1,note_on,62,0,80
1,note_on,67,65,0
1,note_on,67,0,80
1,note_on,70,67,0
1,note_on,70,0,80
1,note_on,74,68,0
1,note_on,74,0,80
1,note_on,79,70,0
1,note_on,79,0,80
1,note_on,82,71,0
1,note_on,82,0,80
1,note_on,86,72,0
1,note_on,86,0,80
1,note_on,91,77,0
1,note_on,91,0,80
1,note_on,94,80,0
1,note_on,94,0,540
1,note_on,93,58,0
1,note_on,93,0,60
1,note_on,91,59,0
1,note_on,91,0,60
1,note_on,90,59,0
1,note_on,90,0,60
1,note_on,87,60,0
1,note_on,87,0,60
1,note_on,86,60,0
1,note_on,86,0,60
1,note_on,84,61,0
1,note_on,84,0,60
1,note_on,82,62,0
1,note_on,82,0,60
1,note_on,81,62,0
1,note_on,81,0,60
1,note_on,79,63,0
1,note_on,79,0,60
1,note_on,78,63,0
1,note_on,78,0,60
1,note_on,75,63,0
1,note_on,75,0,60
1,note_on,74,63,0
1,note_on,74,0,60
1,note_on,72,64,0
1,note_on,72,0,60
1,note_on,70,64,0
1,note_on,70,0,60
1,note_on,69,65,0
1,note_on,69,0,60
1,note_on,67,65,0
1,note_on,67,0,60
1,note_on,66,66,0
1,note_on,66,0,60
1,note_on,63,66,0
1,note_on,63,0,60
1,note_on,62,67,0
1,note_on,62,0,60
1,note_on,60,68,0
1,note_on,60,0,60
1,note_on,58,68,0
1,note_on,58,0,60
1,note_on,57,69,0
1,note_on,57,0,60
1,note_on,55,69,0
1,note_on,55,0,60
1,note_on,54,70,0
1,note_on,54,0,60
1,note_on,51,70,0
1,note_on,51,0,60
1,note_on,50,71,0
1,note_on,50,0,60
1,note_on,48,71,0
1,note_on,48,0,60
1,note_on,46,72,0
1,note_on,46,0,60
1,note_on,45,72,0
1,note_on,45,0,60
1,note_on,43,80,0
1,note_on,43,0,660
1,note_on,46,60,0
1,note_on,46,0,60
1,note_on,50,62,0
1,note_on,50,0,60
1,note_on,55,63,0
1,note_on,55,0,60
1,note_on,58,64,0
1,note_on,58,0,60
1,note_on,62,65,0
1,note_on,62,0,60
1,note_on,67,67,0
1,note_on,67,0,60
1,note_on,70,68,0
1,note_on,70,0,60
1,note_on,74,70,0
1,note_on,74,0,60
1,note_on,79,71,0
1,note_on,79,0,60
1,note_on,82,72,0
1,note_on,82,0,60
1,note_on,86,73,0
1,note_on,86,0,60
1,note_on,91,75,0
1,note_on,91,0,60
1,note_on,94,78,0
1,note_on,98,80,60
1,note_on,98,0,660
1,note_on,94,0,0
1,note_on,96,58,0
1,note_on,96,0,60
1,note_on,94,58,0
1,note_on,94,0,60
1,note_on,93,58,0
1,note_on,93,0,60
1,note_on,91,59,0
1,note_on,91,0,60
1,note_on,90,59,0
1,note_on,90,0,60
1,note_on,87,60,0
1,note_on,87,0,60
1,note_on,86,60,0
1,note_on,86,0,60
1,note_on,84,61,0
1,note_on,84,0,60
1,note_on,82,62,0
1,note_on,82,0,60
1,note_on,81,62,0
1,note_on,81,0,60
1,note_on,79,63,0
1,note_on,79,0,60
1,note_on,78,63,0
1,note_on,78,0,60
1,note_on,75,63,0
1,note_on,75,0,60
1,note_on,74,63,0
1,note_on,74,0,60
1,note_on,72,64,0
1,note_on,72,0,60
1,note_on,70,64,0
1,note_on,70,0,60
1,note_on,69,65,0
1,note_on,69,0,60
1,note_on,67,65,0
1,note_on,67,0,60
1,note_on,66,66,0
1,note_on,66,0,60
1,note_on,63,66,0
1,note_on,63,0,60
1,note_on,62,67,0
1,note_on,62,0,60
1,note_on,60,68,0
1,note_on,60,0,60
1,note_on,58,68,0
1,note_on,58,0,60
1,note_on,57,69,0
1,note_on,57,0,60
1,note_on,55,69,0
1,note_on,55,0,60
1,note_on,54,70,0
1,note_on,54,0,60
1,note_on,51,69,0
1,note_on,51,0,60
1,note_on,50,70,0
1,note_on,50,0,60
1,note_on,48,72,0
1,note_on,48,0,60
1,note_on,46,73,0
1,note_on,46,0,60
1,note_on,45,74,0
1,note_on,45,0,60
1,note_on,43,80,0
1,note_on,43,0,540
1,note_on,44,61,0
1,note_on,44,0,60
1,note_on,45,61,0
1,note_on,45,0,60
1,note_on,46,62,0
1,note_on,46,0,60
1,note_on,47,63,0
1,note_on,47,0,60
1,note_on,48,63,0
1,note_on,48,0,60
1,note_on,49,63,0
1,note_on,49,0,60
1,note_on,50,64,0
1,note_on,50,0,60
1,note_on,51,64,0
1,note_on,51,0,60
1,note_on,52,65,0
1,note_on,52,0,60
1,note_on,53,66,0
1,note_on,53,0,60
1,note_on,54,66,0
1,note_on,54,0,60
1,note_on,55,67,0
1,note_on,55,0,60
1,note_on,56,68,0
1,note_on,56,0,60
1,note_on,57,68,0
1,note_on,57,0,60
1,note_on,58,69,0
1,note_on,58,0,60
1,note_on,59,69,0
1,note_on,59,0,60
1,note_on,60,70,0
1,note_on,60,0,60
1,note_on,61,71,0
1,note_on,61,0,60
1,note_on,62,72,0
1,note_on,62,0,60
1,note_on,63,72,0
1,note_on,63,0,60
1,note_on,64,72,0
1,note_on,64,0,60
1,note_on,65,72,0
1,note_on,65,0,60
1,note_on,66,73,0
1,note_on,66,0,60
1,note_on,67,76,0
1,note_on,67,0,60
1,note_on,66,75,0
1,note_on,66,0,60
1,note_on,65,74,0
1,note_on,65,0,60
1,note_on,64,72,0
1,note_on,64,0,60
1,note_on,63,72,0
1,note_on,63,0,60
1,note_on,62,71,0
1,note_on,62,0,60
1,note_on,61,70,0
1,note_on,61,0,60
1,note_on,60,68,0
1,note_on,60,0,60
1,note_on,59,66,0
1,note_on,59,0,60
1,note_on,58,67,0
1,note_on,58,0,60
1,note_on,57,68,0
1,note_on,57,0,60
1,note_on,56,69,0
1,note_on,56,0,60
1,note_on,55,70,0
1,note_on,55,0,60
1,note_on,54,71,0
1,note_on,54,0,60
1,note_on,53,72,0
1,note_on,53,0,60
1,note_on,52,73,0
1,note_on,52,0,60
1,note_on,51,74,0
1,note_on,51,0,60
1,note_on,50,75,0
1,note_on,50,0,60
1,note_on,49,77,0
1,note_on,49,0,60
1,note_on,48,79,0
1,note_on,48,0,60
1,note_on,47,80,0
1,note_on,47,0,60
1,note_on,46,81,0
1,note_on,46,0,60
1,note_on,45,83,0
1,note_on,45,0,60
1,note_on,44,85,0
1,note_on,44,0,60
1,note_on,43,97,0
1,note_on,43,0,120
1,note_on,103,96,360
1,note_on,98,81,0
1,note_on,94,69,0
1,note_on,91,69,0
1,note_on,91,0,120
1,note_on,103,0,0
1,note_on,98,0,0
1,note_on,94,0,0
1,note_on,70,75,27720
1,note_on,70,0,480
1,note_on,73,78,0
1,note_on,73,0,480
1,note_on,74,81,0
1,note_on,74,0,480
1,note_on,70,74,0
1,note_on,70,0,480
1,note_on,60,53,11040
1,note_on,62,66,0
1,note_on,62,0,480
1,note_on,60,0,0
1,note_on,65,69,480
1,note_on,63,54,0
1,note_on,63,0,480
1,note_on,65,0,0
1,note_on,65,57,480
1,note_on,69,72,0
1,note_on,69,0,480
1,note_on,65,0,0
1,note_on,70,72,480
1,note_on,70,0,480
1,note_on,73,75,480
1,note_on,73,0,480
1,note_on,82,79,480
1,note_on,82,0,480
1,note_on,74,72,480
1,note_on,74,0,480
1,note_on,65,70,480
1,note_on,65,0,480
1,note_on,66,64,0
1,note_on,66,0,480
1,note_on,50,66,5280
1,note_on,62,66,0
1,note_on,62,0,720
1,note_on,50,0,0
1,note_on,50,67,0
1,note_on,62,67,0
1,note_on,62,0,240
1,note_on,50,0,0
1,note_on,67,71,1440
1,note_on,79,71,0
1,note_on,79,0,480
1,note_on,67,0,0
1,note_on,66,69,0
1,note_on,78,69,0
1,note_on,78,0,480
1,note_on,66,0,0
1,note_on,65,67,0
1,note_on,77,67,0
1,note_on,77,0,480
1,note_on,65,0,0
1,note_on,63,66,0
1,note_on,75,66,0
1,note_on,75,0,480
1,note_on,63,0,0
1,note_on,68,59,0
1,note_on,71,65,0
1,note_on,74,65,0
1,note_on,74,0,480
1,note_on,71,0,0
1,note_on,68,0,0
1,note_on,67,63,0
1,note_on,72,63,0
1,note_on,72,0,480
1,note_on,67,0,0
1,note_on,59,54,3120
1,note_on,62,54,0
1,note_on,71,65,0
1,note_on,71,0,480
1,note_on,62,0,0
1,note_on,59,0,0
1,note_on,60,59,0
1,note_on,63,59,0
1,note_on,72,71,0
1,note_on,72,0,480
1,note_on,63,0,0
1,note_on,60,0,0
1,note_on,62,60,0
1,note_on,65,60,0
1,note_on,74,72,0
1,note_on,74,0,480
1,note_on,65,0,0
1,note_on,62,0,0
1,note_on,63,63,0
1,note_on,67,63,0
1,note_on,75,74,0
1,note_on,75,0,480
1,note_on,67,0,0
1,note_on,63,0,0
1,note_on,65,64,0
1,note_on,74,64,0
1,note_on,77,76,0
1,note_on,77,0,480
1,note_on,74,0,0
1,note_on,65,0,0
1,note_on,67,67,0
1,note_on,75,67,0
1,note_on,79,79,0
1,note_on,79,0,480
1,note_on,75,0,0
1,note_on,67,0,0
1,note_on,67,70,0
1,note_on,77,70,0
1,note_on,79,82,0
1,note_on,79,0,480
1,note_on,77,0,0
1,note_on,67,0,0
1,note_on,87,90,0
1,note_on,79,76,0
1,note_on,75,76,0
1,note_on,75,0,480
1,note_on,79,0,0
1,note_on,87,0,0
1,note_on,86,91,0
1,note_on,80,76,0
1,note_on,74,76,0
1,note_on,74,0,240
1,note_on,80,0,0
1,note_on,86,0,0
1,note_on,85,95,0
1,note_on,81,80,0
1,note_on,73,80,0
1,note_on,73,0,240
1,note_on,81,0,0
1,note_on,85,0,0
1,note_on,69,71,1200
1,note_on,81,71,0
1,note_on,81,0,480
1,note_on,69,0,0
1,note_on,68,69,0
1,note_on,80,69,0
1,note_on,80,0,480
1,note_on,68,0,0
1,note_on,67,67,0
1,note_on,79,67,0
1,note_on,79,0,480
1,note_on,67,0,0
1,note_on,65,66,0
1,note_on,77,66,0
1,note_on,77,0,480
1,note_on,65,0,0
1,note_on,70,59,0
1,note_on,73,65,0
1,note_on,76,65,0
1,note_on,76,0,480
1,note_on,73,0,0
1,note_on,70,0,0
1,note_on,69,63,0
1,note_on,74,63,0
1,note_on,74,0,480
1,note_on,69,0,0
1,note_on,61,54,3120
1,note_on,64,54,0
1,note_on,73,65,0
1,note_on,73,0,480
1,note_on,64,0,0
1,note_on,61,0,0
1,note_on,62,59,0
1,note_on,65,59,0
1,note_on,74,71,0
1,note_on,74,0,480
1,note_on,65,0,0
1,note_on,62,0,0
1,note_on,64,60,0
1,note_on,67,60,0
1,note_on,76,72,0
1,note_on,76,0,480
1,note_on,67,0,0
1,note_on,64,0,0
1,note_on,65,63,0
1,note_on,69,63,0
1,note_on,77,74,0
1,note_on,77,0,480
1,note_on,69,0,0
1,note_on,65,0,0
1,note_on,67,65,0
1,note_on,76,65,0
1,note_on,79,77,0
1,note_on,79,0,480
1,note_on,76,0,0
1,note_on,67,0,0
1,note_on,69,69,0
1,note_on,77,69,0
1,note_on,81,81,0
1,note_on,81,0,480
1,note_on,77,0,0
1,note_on,69,0,0
1,note_on,69,72,0
1,note_on,79,72,0
1,note_on,81,84,0
1,note_on,81,0,480
1,note_on,79,0,0
1,note_on,69,0,0
1,note_on,89,94,0
1,note_on,81,79,0
1,note_on,77,77,0
1,note_on,77,0,480
1,note_on,81,0,0
1,note_on,89,0,0
1,note_on,88,94,0
1,note_on,81,78,0
1,note_on,76,74,0
1,note_on,76,0,240
1,note_on,81,0,0
1,note_on,88,0,0
1,note_on,81,83,1440
1,note_on,81,0,158
1,note_on,83,88,322
1,note_on,83,0,158
1,note_on,84,91,322
1,note_on,84,0,158
1,note_on,84,91,802
1,note_on,84,0,158
1,note_on,83,90,322
1,note_on,83,0,158
1,note_on,82,90,322
1,note_on,82,0,158
1,note_on,81,88,322
1,note_on,81,0,158
1,note_on,80,87,322
1,note_on,80,0,158
1,note_on,82,83,1762
1,note_on,82,0,158
1,note_on,84,88,322
1,note_on,84,0,158
1,note_on,85,91,322
1,note_on,85,0,158
1,note_on,85,91,802
1,note_on,85,0,158
1,note_on,84,90,322
1,note_on,84,0,158
1,note_on,83,90,322
1,note_on,83,0,158
1,note_on,82,88,322
1,note_on,82,0,158
1,note_on,81,87,322
1,note_on,81,0,158
1,note_on,84,83,1762
1,note_on,84,0,158
1,note_on,86,88,322
1,note_on,86,0,158
1,note_on,87,91,322
1,note_on,87,0,158
1,note_on,91,91,402
1,note_on,91,0,158
1,note_on,89,90,322
1,note_on,89,0,158
1,note_on,87,90,322
1,note_on,87,0,158
1,note_on,84,88,322
1,note_on,84,0,158
1,note_on,87,87,322
1,note_on,87,0,158
1,note_on,84,87,322
1,note_on,84,0,158
1,note_on,89,91,322
1,note_on,89,0,158
1,note_on,87,90,322
1,note_on,87,0,158
1,note_on,86,90,322
1,note_on,86,0,158
1,note_on,82,88,322
1,note_on,82,0,158
1,note_on,86,87,322
1,note_on,86,0,158
1,note_on,82,87,322
1,note_on,82,0,158
1,note_on,87,91,322
1,note_on,87,0,158
1,note_on,86,90,322
1,note_on,86,0,158
1,note_on,84,90,322
1,note_on,84,0,158
1,note_on,81,88,322
1,note_on,81,0,158
1,note_on,84,87,322
1,note_on,84,0,158
1,note_on,81,87,322
1,note_on,81,0,158
1,note_on,86,91,322
1,note_on,86,0,158
1,note_on,84,90,322
1,note_on,84,0,158
1,note_on,82,90,322
1,note_on,82,0,158
1,note_on,86,88,322
1,note_on,86,0,158
1,note_on,86,87,322
1,note_on,86,0,158
1,note_on,85,87,322
1,note_on,85,0,158
1,note_on,65,55,20402
1,note_on,65,0,960
1,note_on,64,50,0
1,note_on,64,0,480
1,note_on,63,60,0
1,note_on,63,0,480
1,note_on,62,56,0
1,note_on,62,0,480
1,note_on,63,58,0
1,note_on,63,0,480
1,note_on,63,55,0
1,note_on,63,0,960
1,note_on,63,50,0
1,note_on,63,0,480
1,note_on,63,56,0
1,note_on,63,0,480
1,note_on,62,53,0
1,note_on,62,0,480
1,note_on,62,54,0
1,note_on,62,0,480
1,note_on,62,53,0
1,note_on,62,0,480
1,note_on,61,50,0
1,note_on,61,0,480
1,note_on,62,50,0
1,note_on,62,0,480
1,note_on,58,50,0
1,note_on,58,0,480
1,note_on,60,45,0
1,note_on,60,0,480
1,note_on,57,45,0
1,note_on,57,0,480
1,note_on,58,45,0
1,note_on,58,0,478
1,note_on,62,47,2
1,note_on,62,0,480
1,note_on,58,50,0
1,note_on,58,0,478
1,note_on,62,54,2
1,note_on,62,0,480
1,note_on,62,55,0
1,note_on,62,0,478
1,note_on,65,61,2
1,note_on,65,0,480
1,note_on,67,62,0
1,note_on,67,0,480
1,note_on,63,63,0
1,note_on,63,0,480
1,note_on,62,58,0
1,note_on,62,0,480
1,note_on,58,56,0
1,note_on,58,0,480
1,note_on,60,52,0
1,note_on,60,0,480
1,note_on,57,50,0
1,note_on,57,0,480
1,note_on,58,45,0
1,note_on,58,0,478
1,note_on,62,48,2
1,note_on,62,0,480
1,note_on,58,50,0
1,note_on,58,0,478
1,note_on,62,54,2
1,note_on,62,0,480
1,note_on,62,55,0
1,note_on,62,0,478
1,note_on,65,61,2
1,note_on,65,0,480
1,note_on,67,62,0
1,note_on,67,0,480
1,note_on,63,63,0
1,note_on,63,0,480
1,note_on,62,58,0
1,note_on,62,0,480
1,note_on,58,56,0
1,note_on,58,0,480
1,note_on,60,52,0
1,note_on,60,0,480
1,note_on,57,50,0
1,note_on,57,0,480
1,note_on,91,72,1440
1,note_on,79,62,0
1,note_on,79,0,480
1,note_on,91,0,0
1,note_on,78,59,0
1,note_on,90,70,0
1,note_on,90,0,720
1,note_on,78,0,0
1,note_on,75,57,0
1,note_on,87,67,0
1,note_on,87,0,240
1,note_on,75,0,0
1,note_on,74,50,0
1,note_on,86,60,0
1,note_on,86,0,480
1,note_on,74,0,0
1,note_on,67,59,960
1,note_on,79,70,0
1,note_on,79,0,480
1,note_on,67,0,0
1,note_on,66,56,0
1,note_on,78,67,0
1,note_on,78,0,720
1,note_on,66,0,0
1,note_on,63,54,0
1,note_on,75,64,0
1,note_on,75,0,240
1,note_on,63,0,0
1,note_on,74,60,0
1,note_on,62,50,0
1,note_on,62,0,480
1,note_on,74,0,0
1,note_on,74,70,0
1,note_on,67,59,0
1,note_on,62,59,0
1,note_on,62,0,480
1,note_on,67,0,0
1,note_on,74,0,0
1,note_on,67,56,0
1,note_on,74,67,0
1,note_on,62,56,0
1,note_on,62,0,1440
1,note_on,74,0,0
1,note_on,67,0,0
1,note_on,67,63,0
1,note_on,72,73,0
1,note_on,60,63,0
1,note_on,60,0,480
1,note_on,72,0,0
1,note_on,67,0,0
1,note_on,67,74,480
1,note_on,67,0,158
1,note_on,66,66,322
1,note_on,66,0,480
1,note_on,64,64,0
1,note_on,64,0,480
1,note_on,62,65,0
1,note_on,62,0,480
1,note_on,59,68,0
1,note_on,59,0,158
1,note_on,55,65,322
1,note_on,55,0,158
1,note_on,54,66,322
1,note_on,54,0,480
1,note_on,52,68,0
1,note_on,52,0,480
1,note_on,51,69,0
1,note_on,51,0,480
1,note_on,50,71,0
1,note_on,50,0,480
1,note_on,47,72,0
1,note_on,47,0,480
1,note_on,47,79,2700
1,note_on,47,0,740
1,note_on,50,60,0
1,note_on,50,0,80
1,note_on,55,62,0
1,note_on,55,0,80
1,note_on,59,63,0
1,note_on,59,0,80
1,note_on,62,64,0
1,note_on,62,0,80
1,note_on,67,65,0
1,note_on,67,0,80
1,note_on,71,67,0
1,note_on,71,0,80
1,note_on,74,68,0
1,note_on,74,0,80
1,note_on,79,70,0
1,note_on,79,0,80
1,note_on,83,71,0
1,note_on,83,0,80
1,note_on,86,72,0
1,note_on,86,0,80
1,note_on,91,77,0
1,note_on,91,0,80
1,note_on,95,80,0
1,note_on,95,0,540
1,note_on,93,58,0
1,note_on,93,0,60
1,note_on,91,59,0
1,note_on,91,0,60
1,note_on,90,59,0
1,note_on,90,0,60
1,note_on,88,60,0
1,note_on,88,0,60
1,note_on,86,60,0
1,note_on,86,0,60
1,note_on,84,61,0
1,note_on,84,0,60
1,note_on,83,62,0
1,note_on,83,0,60
1,note_on,81,62,0
1,note_on,81,0,60
1,note_on,79,63,0
1,note_on,79,0,60
1,note_on,78,63,0
1,note_on,78,0,60
1,note_on,76,63,0
1,note_on,76,0,60
1,note_on,74,63,0
1,note_on,74,0,60
1,note_on,72,64,0
1,note_on,72,0,60
1,note_on,71,64,0
1,note_on,71,0,60
1,note_on,69,65,0
1,note_on,69,0,60
1,note_on,67,65,0
1,note_on,67,0,60
1,note_on,66,66,0
1,note_on,66,0,60
1,note_on,64,66,0
1,note_on,64,0,60
1,note_on,62,67,0
1,note_on,62,0,60
1,note_on,60,68,0
1,note_on,60,0,60
1,note_on,59,68,0
1,note_on,59,0,60
1,note_on,57,69,0
1,note_on,57,0,60
1,note_on,55,69,0
1,note_on,55,0,60
1,note_on,54,70,0
1,note_on,54,0,60
1,note_on,52,70,0
1,note_on,52,0,60
1,note_on,50,71,0
1,note_on,50,0,60
1,note_on,48,71,0
1,note_on,48,0,60
1,note_on,47,72,0
1,note_on,47,0,60
1,note_on,45,72,0
1,note_on,45,0,60
1,note_on,43,80,0
1,note_on,43,0,660
1,note_on,47,60,0
1,note_on,47,0,60
1,note_on,50,62,0
1,note_on,50,0,60
1,note_on,55,63,0
1,note_on,55,0,60
1,note_on,59,64,0
1,note_on,59,0,60
1,note_on,62,65,0
1,note_on,62,0,60
1,note_on,67,67,0
1,note_on,67,0,60
1,note_on,71,68,0
1,note_on,71,0,60
1,note_on,74,70,0
1,note_on,74,0,60
1,note_on,79,71,0
1,note_on,79,0,60
1,note_on,83,72,0
1,note_on,83,0,60
1,note_on,86,73,0
1,note_on,86,0,60
1,note_on,91,75,0
1,note_on,91,0,60
1,note_on,95,78,0
1,note_on,98,80,60
1,note_on,98,0,660
1,note_on,95,0,0
1,note_on,96,58,0
1,note_on,96,0,60
1,note_on,95,58,0
1,note_on,95,0,60
1,note_on,93,58,0
1,note_on,93,0,60
1,note_on,91,59,0
1,note_on,91,0,60
1,note_on,90,59,0
1,note_on,90,0,60
1,note_on,88,60,0
1,note_on,88,0,60
1,note_on,86,60,0
1,note_on,86,0,60
1,note_on,84,61,0
1,note_on,84,0,60
1,note_on,83,62,0
1,note_on,83,0,60
1,note_on,81,62,0
1,note_on,81,0,60
1,note_on,79,63,0
1,note_on,79,0,60
1,note_on,78,63,0
1,note_on,78,0,60
1,note_on,76,63,0
1,note_on,76,0,60
1,note_on,74,63,0
1,note_on,74,0,60
1,note_on,72,64,0
1,note_on,72,0,60
1,note_on,71,64,0
1,note_on,71,0,60
1,note_on,69,65,0
1,note_on,69,0,60
1,note_on,67,65,0
1,note_on,67,0,60
1,note_on,66,66,0
1,note_on,66,0,60
1,note_on,64,66,0
1,note_on,64,0,60
1,note_on,62,67,0
1,note_on,62,0,60
1,note_on,60,68,0
1,note_on,60,0,60
1,note_on,59,68,0
1,note_on,59,0,60
1,note_on,57,69,0
1,note_on,57,0,60
1,note_on,55,69,0
1,note_on,55,0,60
1,note_on,54,70,0
1,note_on,54,0,60
1,note_on,52,69,0
1,note_on,52,0,60
1,note_on,50,70,0
1,note_on,50,0,60
1,note_on,48,72,0
1,note_on,48,0,60
1,note_on,47,73,0
1,note_on,47,0,60
1,note_on,45,74,0
1,note_on,45,0,60
1,note_on,43,80,0
1,note_on,43,0,540
1,note_on,44,61,0
1,note_on,44,0,60
1,note_on,45,61,0
1,note_on,45,0,60
1,note_on,46,62,0
1,note_on,46,0,60
1,note_on,47,63,0
1,note_on,47,0,60
1,note_on,48,63,0
1,note_on,48,0,60
1,note_on,49,63,0
1,note_on,49,0,60
1,note_on,50,64,0
1,note_on,50,0,60
1,note_on,51,64,0
1,note_on,51,0,60
1,note_on,52,65,0
1,note_on,52,0,60
1,note_on,53,66,0
1,note_on,53,0,60
1,note_on,54,66,0
1,note_on,54,0,60
1,note_on,55,67,0
1,note_on,55,0,60
1,note_on,56,68,0
1,note_on,56,0,60
1,note_on,57,68,0
1,note_on,57,0,60
1,note_on,58,69,0
1,note_on,58,0,60
1,note_on,59,69,0
1,note_on,59,0,60
1,note_on,60,70,0
1,note_on,60,0,60
1,note_on,61,71,0
1,note_on,61,0,60
1,note_on,62,72,0
1,note_on,62,0,60
1,note_on,63,72,0
1,note_on,63,0,60
1,note_on,64,72,0
1,note_on,64,0,60
1,note_on,65,72,0
1,note_on,65,0,60
1,note_on,66,73,0
1,note_on,66,0,60
1,note_on,67,76,0
1,note_on,67,0,60
1,note_on,66,75,0
1,note_on,66,0,60
1,note_on,65,74,0
1,note_on,65,0,60
1,note_on,64,72,0
1,note_on,64,0,60
1,note_on,63,72,0
1,note_on,63,0,60
1,note_on,62,71,0
1,note_on,62,0,60
1,note_on,61,70,0
1,note_on,61,0,60
1,note_on,60,68,0
1,note_on,60,0,60
1,note_on,59,66,0
1,note_on,59,0,60
1,note_on,58,67,0
1,note_on,58,0,60
1,note_on,57,68,0
1,note_on,57,0,60
1,note_on,56,69,0
1,note_on,56,0,60
1,note_on,55,70,0
1,note_on,55,0,60
1,note_on,54,71,0
1,note_on,54,0,60
1,note_on,53,72,0
1,note_on,53,0,60
1,note_on,52,73,0
1,note_on,52,0,60
1,note_on,51,74,0
1,note_on,51,0,60
1,note_on,50,75,0
1,note_on,50,0,60
1,note_on,49,77,0
1,note_on,49,0,60
1,note_on,48,79,0
1,note_on,48,0,60
1,note_on,47,80,0
1,note_on,47,0,60
1,note_on,46,81,0
1,note_on,46,0,60
1,note_on,45,83,0
1,note_on,45,0,60
1,note_on,44,85,0
1,note_on,44,0,60
1,note_on,43,97,0
1,note_on,43,0,120
1,note_on,103,101,360
1,note_on,98,86,0
1,note_on,95,72,0
1,note_on,91,72,0
1,note_on,91,0,120
1,note_on,103,0,0
1,note_on,98,0,0
1,note_on,95,0,0
2,note_on,61,59,42240
2,note_on,64,59,0
2,note_on,64,0,60
2,note_on,61,0,0
2,note_on,55,50,0
2,note_on,55,0,60
2,note_on,61,59,0
2,note_on,64,59,0
2,note_on,64,0,60
2,note_on,61,0,0
2,note_on,55,50,0
2,note_on,55,0,60
2,note_on,61,60,0
2,note_on,64,60,0
2,note_on,64,0,60
2,note_on,61,0,0
2,note_on,55,51,0
2,note_on,55,0,60
2,note_on,61,60,0
2,note_on,64,60,0
2,note_on,64,0,60
2,note_on,61,0,0
2,note_on,55,51,0
2,note_on,55,0,60
2,note_on,64,60,0
2,note_on,67,60,0
2,note_on,67,0,60
2,note_on,64,0,0
2,note_on,58,52,0
2,note_on,58,0,60
2,note_on,64,61,0
2,note_on,67,61,0
2,note_on,67,0,60
2,note_on,64,0,0
2,note_on,58,51,0
2,note_on,58,0,60
2,note_on,64,62,0
2,note_on,67,62,0
2,note_on,67,0,60
2,note_on,64,0,0
2,note_on,58,56,0
2,note_on,58,0,60
2,note_on,64,64,0
2,note_on,67,64,0
2,note_on,67,0,60
2,note_on,64,0,0
2,note_on,58,51,0
2,note_on,58,0,60
2,note_on,65,64,0
2,note_on,65,0,60
2,note_on,58,52,0
2,note_on,58,0,60
2,note_on,65,63,0
2,note_on,65,0,60
2,note_on,58,52,0
2,note_on,58,0,60
2,note_on,65,63,0
2,note_on,65,0,60
2,note_on,58,53,0
2,note_on,58,0,60
2,note_on,65,63,0
2,note_on,65,0,60
2,note_on,58,52,0
2,note_on,58,0,60
2,note_on,62,63,0
2,note_on,62,0,60
2,note_on,53,52,0
2,note_on,53,0,60
2,note_on,62,62,0
2,note_on,62,0,60
2,note_on,53,51,0
2,note_on,53,0,60
2,note_on,62,61,0
2,note_on,62,0,60
2,note_on,53,50,0
2,note_on,53,0,60
2,note_on,62,60,0
2,note_on,62,0,60
2,note_on,53,50,0
2,note_on,53,0,60
2,note_on,57,50,11040
2,note_on,57,0,80
2,note_on,54,41,0
2,note_on,54,0,80
2,note_on,57,50,0
2,note_on,57,0,80
2,note_on,54,43,0
2,note_on,54,0,80
2,note_on,57,50,0
2,note_on,57,0,80
2,note_on,54,43,0
2,note_on,54,0,80
2,note_on,60,53,480
2,note_on,60,0,80
2,note_on,57,43,0
2,note_on,57,0,80
2,note_on,60,53,0
2,note_on,60,0,80
2,note_on,57,45,0
2,note_on,57,0,80
2,note_on,60,53,0
2,note_on,60,0,80
2,note_on,57,45,0
2,note_on,57,0,80
2,note_on,63,55,480
2,note_on,63,0,80
2,note_on,60,46,0
2,note_on,60,0,80
2,note_on,63,55,0
2,note_on,63,0,80
2,note_on,60,48,0
2,note_on,60,0,80
2,note_on,63,55,0
2,note_on,63,0,80
2,note_on,60,48,0
2,note_on,60,0,80
2,note_on,66,56,480
2,note_on,66,0,80
2,note_on,63,46,0
2,note_on,63,0,80
2,note_on,66,56,0
2,note_on,66,0,80
2,note_on,63,49,0
2,note_on,63,0,80
2,note_on,66,56,0
2,note_on,66,0,80
2,note_on,63,49,0
2,note_on,63,0,80
2,note_on,67,46,480
2,note_on,70,59,0
2,note_on,70,0,80
2,note_on,67,0,0
2,note_on,64,47,0
2,note_on,64,0,80
2,note_on,67,46,0
2,note_on,70,59,0
2,note_on,70,0,80
2,note_on,67,0,0
2,note_on,64,49,0
2,note_on,64,0,80
2,note_on,67,46,0
2,note_on,70,59,0
2,note_on,70,0,80
2,note_on,67,0,0
2,note_on,64,50,0
2,note_on,64,0,80
2,note_on,73,48,480
2,note_on,76,61,0
2,note_on,76,0,80
2,note_on,73,0,0
2,note_on,67,49,0
2,note_on,67,0,80
2,note_on,73,48,0
2,note_on,76,61,0
2,note_on,76,0,80
2,note_on,73,0,0
2,note_on,67,52,0
2,note_on,67,0,80
2,note_on,73,48,0
2,note_on,76,61,0
2,note_on,76,0,80
2,note_on,73,0,0
2,note_on,67,52,0
2,note_on,67,0,80
2,note_on,65,45,480
2,note_on,70,57,0
2,note_on,70,0,80
2,note_on,65,0,0
2,note_on,62,47,0
2,note_on,62,0,80
2,note_on,65,45,0
2,note_on,70,57,0
2,note_on,70,0,80
2,note_on,65,0,0
2,note_on,62,49,0
2,note_on,62,0,80
2,note_on,65,45,0
2,note_on,70,56,0
2,note_on,70,0,80
2,note_on,65,0,0
2,note_on,62,49,0
2,note_on,62,0,80
2,note_on,58,44,480
2,note_on,62,54,0
2,note_on,62,0,80
2,note_on,58,0,0
2,note_on,53,45,0
2,note_on,53,0,80
2,note_on,58,43,0
2,note_on,62,54,0
2,note_on,62,0,80
2,note_on,58,0,0
2,note_on,53,47,0
2,note_on,53,0,80
2,note_on,58,43,0
2,note_on,62,54,0
2,note_on,62,0,80
2,note_on,58,0,0
2,note_on,53,46,0
2,note_on,53,0,40
2,note_on,57,43,0
2,note_on,60,51,20
2,note_on,60,0,100
2,note_on,57,0,0
2,note_on,51,45,0
2,note_on,51,0,80
2,note_on,57,52,0
2,note_on,60,52,0
2,note_on,60,0,80
2,note_on,57,0,0
2,note_on,51,46,0
2,note_on,51,0,80
2,note_on,57,50,0
2,note_on,60,50,0
2,note_on,60,0,80
2,note_on,57,0,0
2,note_on,51,45,0
2,note_on,51,0,80
2,note_on,50,53,6240
2,note_on,59,53,0
2,note_on,59,0,60
2,note_on,50,0,0
2,note_on,62,45,0
2,note_on,62,0,60
2,note_on,50,53,0
2,note_on,59,53,0
2,note_on,59,0,60
2,note_on,50,0,0
2,note_on,62,46,0
2,note_on,62,0,60
2,note_on,50,52,0
2,note_on,59,52,0
2,note_on,59,0,60
2,note_on,50,0,0
2,note_on,62,45,0
2,note_on,62,0,60
2,note_on,50,51,0
2,note_on,59,51,0
2,note_on,59,0,60
2,note_on,50,0,0
2,note_on,62,46,0
2,note_on,62,0,60
2,note_on,50,51,0
2,note_on,59,51,0
2,note_on,59,0,60
2,note_on,50,0,0
2,note_on,62,44,0
2,note_on,62,0,60
2,note_on,50,50,0
2,note_on,59,50,0
2,note_on,59,0,60
2,note_on,50,0,0
2,note_on,62,45,0
2,note_on,62,0,60
2,note_on,50,50,0
2,note_on,59,50,0
2,note_on,59,0,60
2,note_on,50,0,0
2,note_on,62,44,0
2,note_on,62,0,60
2,note_on,50,49,0
2,note_on,59,49,0
2,note_on,59,0,60
2,note_on,50,0,0
2,note_on,62,45,0
2,note_on,62,0,60
2,note_on,50,49,0
2,note_on,59,49,0
2,note_on,59,0,60
2,note_on,50,0,0
2,note_on,62,42,0
2,note_on,62,0,60
2,note_on,50,48,0
2,note_on,59,48,0
2,note_on,59,0,60
2,note_on,50,0,0
2,note_on,62,43,0
2,note_on,62,0,60
2,note_on,50,48,0
2,note_on,59,48,0
2,note_on,59,0,60
2,note_on,50,0,0
2,note_on,62,42,0
2,note_on,62,0,60
2,note_on,50,47,0
2,note_on,59,47,0
2,note_on,59,0,60
2,note_on,50,0,0
2,note_on,62,43,0
2,note_on,62,0,60
2,note_on,63,63,2880
2,note_on,55,63,0
2,note_on,55,0,80
2,note_on,63,0,0
2,note_on,67,51,0
2,note_on,67,0,80
2,note_on,63,58,0
2,note_on,55,58,0
2,note_on,55,0,80
2,note_on,63,0,0
2,note_on,67,52,0
2,note_on,67,0,80
2,note_on,55,60,0
2,note_on,63,60,0
2,note_on,63,0,80
2,note_on,55,0,0
2,note_on,67,54,0
2,note_on,67,0,80
2,note_on,62,66,0
2,note_on,53,66,0
2,note_on,53,0,80
2,note_on,62,0,0
2,note_on,65,55,0
2,note_on,65,0,80
2,note_on,62,62,0
2,note_on,53,62,0
2,note_on,53,0,80
2,note_on,62,0,0
2,note_on,65,56,0
2,note_on,65,0,80
2,note_on,53,63,0
2,note_on,62,63,0
2,note_on,62,0,80
2,note_on,53,0,0
2,note_on,65,57,0
2,note_on,65,0,80
2,note_on,60,70,0
2,note_on,51,70,0
2,note_on,51,0,80
2,note_on,60,0,0
2,note_on,63,58,0
2,note_on,63,0,80
2,note_on,60,65,0
2,note_on,51,65,0
2,note_on,51,0,80
2,note_on,60,0,0
2,note_on,63,60,0
2,note_on,63,0,80
2,note_on,51,67,0
2,note_on,60,67,0
2,note_on,60,0,80
2,note_on,51,0,0
2,note_on,63,62,0
2,note_on,63,0,80
2,note_on,50,53,0
2,note_on,59,53,0
2,note_on,59,0,60
2,note_on,50,0,0
2,note_on,62,45,0
2,note_on,62,0,60
2,note_on,50,53,0
2,note_on,59,53,0
2,note_on,59,0,60
2,note_on,50,0,0
2,note_on,62,48,0
2,note_on,62,0,60
2,note_on,50,54,0
2,note_on,59,54,0
2,note_on,59,0,60
2,note_on,50,0,0
2,note_on,62,47,0
2,note_on,62,0,60
2,note_on,50,54,0
2,note_on,59,54,0
2,note_on,59,0,60
2,note_on,50,0,0
2,note_on,62,50,0
2,note_on,62,0,60
2,note_on,50,54,0
2,note_on,59,54,0
2,note_on,59,0,60
2,note_on,50,0,0
2,note_on,62,47,0
2,note_on,62,0,60
2,note_on,50,55,0
2,note_on,59,55,0
2,note_on,59,0,60
2,note_on,50,0,0
2,note_on,62,50,0
2,note_on,62,0,60
2,note_on,50,56,0
2,note_on,59,56,0
2,note_on,59,0,60
2,note_on,50,0,0
2,note_on,62,50,0
2,note_on,62,0,60
2,note_on,50,56,0
2,note_on,59,56,0
2,note_on,59,0,60
2,note_on,50,0,0
2,note_on,62,52,0
2,note_on,62,0,60
2,note_on,50,57,0
2,note_on,59,57,0
2,note_on,59,0,60
2,note_on,50,0,0
2,note_on,62,49,0
2,note_on,62,0,60
2,note_on,50,56,0
2,note_on,59,56,0
2,note_on,59,0,60
2,note_on,50,0,0
2,note_on,62,50,0
2,note_on,62,0,60
2,note_on,50,54,0
2,note_on,59,54,0
2,note_on,59,0,60
2,note_on,50,0,0
2,note_on,62,48,0
2,note_on,62,0,60
2,note_on,50,54,0
2,note_on,59,54,0
2,note_on,59,0,60
2,note_on,50,0,0
2,note_on,62,48,0
2,note_on,62,0,60
2,note_on,52,55,4800
2,note_on,61,55,0
2,note_on,61,0,60
2,note_on,52,0,0
2,note_on,64,47,0
2,note_on,64,0,60
2,note_on,52,54,0
2,note_on,61,54,0
2,note_on,61,0,60
2,note_on,52,0,0
2,note_on,64,49,0
2,note_on,64,0,60
2,note_on,52,54,0
2,note_on,61,54,0
2,note_on,61,0,60
2,note_on,52,0,0
2,note_on,64,47,0
2,note_on,64,0,60
2,note_on,52,54,0
2,note_on,61,54,0
2,note_on,61,0,60
2,note_on,52,0,0
2,note_on,64,49,0
2,note_on,64,0,60
2,note_on,52,54,0
2,note_on,61,54,0
2,note_on,61,0,60
2,note_on,52,0,0
2,note_on,64,45,0
2,note_on,64,0,60
2,note_on,52,53,0
2,note_on,61,53,0
2,note_on,61,0,60
2,note_on,52,0,0
2,note_on,64,46,0
2,note_on,64,0,60
2,note_on,52,53,0
2,note_on,61,53,0
2,note_on,61,0,60
2,note_on,52,0,0
2,note_on,64,45,0
2,note_on,64,0,60
2,note_on,52,52,0
2,note_on,61,52,0
2,note_on,61,0,60
2,note_on,52,0,0
2,note_on,64,46,0
2,note_on,64,0,60
2,note_on,65,63,2880
2,note_on,57,63,0
2,note_on,57,0,80
2,note_on,65,0,0
2,note_on,69,51,0
2,note_on,69,0,80
2,note_on,65,58,0
2,note_on,57,58,0
2,note_on,57,0,80
2,note_on,65,0,0
2,note_on,69,52,0
2,note_on,69,0,80
2,note_on,57,60,0
2,note_on,65,60,0
2,note_on,65,0,80
2,note_on,57,0,0
2,note_on,69,54,0
2,note_on,69,0,80
2,note_on,64,66,0
2,note_on,55,66,0
2,note_on,55,0,80
2,note_on,64,0,0
2,note_on,67,55,0
2,note_on,67,0,80
2,note_on,64,62,0
2,note_on,55,62,0
2,note_on,55,0,80
2,note_on,64,0,0
2,note_on,67,56,0
2,note_on,67,0,80
2,note_on,55,63,0
2,note_on,64,63,0
2,note_on,64,0,80
2,note_on,55,0,0
2,note_on,67,57,0
2,note_on,67,0,80
2,note_on,62,70,0
2,note_on,53,70,0
2,note_on,53,0,80
2,note_on,62,0,0
2,note_on,65,58,0
2,note_on,65,0,80
2,note_on,62,65,0
2,note_on,53,65,0
2,note_on,53,0,80
2,note_on,62,0,0
2,note_on,65,60,0
2,note_on,65,0,80
2,note_on,53,67,0
2,note_on,62,67,0
2,note_on,62,0,80
2,note_on,53,0,0
2,note_on,65,62,0
2,note_on,65,0,80
2,note_on,52,53,0
2,note_on,61,53,0
2,note_on,61,0,60
2,note_on,52,0,0
2,note_on,64,45,0
2,note_on,64,0,60
2,note_on,52,53,0
2,note_on,61,53,0
2,note_on,61,0,60
2,note_on,52,0,0
2,note_on,64,48,0
2,note_on,64,0,60
2,note_on,52,54,0
2,note_on,61,54,0
2,note_on,61,0,60
2,note_on,52,0,0
2,note_on,64,47,0
2,note_on,64,0,60
2,note_on,52,54,0
2,note_on,61,54,0
2,note_on,61,0,60
2,note_on,52,0,0
2,note_on,64,50,0
2,note_on,64,0,60
2,note_on,52,54,0
2,note_on,61,54,0
2,note_on,61,0,60
2,note_on,52,0,0
2,note_on,64,47,0
2,note_on,64,0,60
2,note_on,52,55,0
2,note_on,61,55,0
2,note_on,61,0,60
2,note_on,52,0,0
2,note_on,64,50,0
2,note_on,64,0,60
2,note_on,52,56,0
2,note_on,61,56,0
2,note_on,61,0,60
2,note_on,52,0,0
2,note_on,64,50,0
2,note_on,64,0,60
2,note_on,52,56,0
2,note_on,61,56,0
2,note_on,61,0,60
2,note_on,52,0,0
2,note_on,64,52,0
2,note_on,64,0,60
2,note_on,52,57,0
2,note_on,61,57,0
2,note_on,61,0,60
2,note_on,52,0,0
2,note_on,64,49,0
2,note_on,64,0,60
2,note_on,52,56,0
2,note_on,61,56,0
2,note_on,61,0,60
2,note_on,52,0,0
2,note_on,64,50,0
2,note_on,64,0,60
2,note_on,52,54,0
2,note_on,61,54,0
2,note_on,61,0,60
2,note_on,52,0,0
2,note_on,64,48,0
2,note_on,64,0,60
2,note_on,52,54,0
2,note_on,61,54,0
2,note_on,61,0,60
2,note_on,52,0,0
2,note_on,64,49,0
2,note_on,64,0,60
2,note_on,75,65,4320
2,note_on,77,65,0
2,note_on,81,78,0
2,note_on,81,0,60
2,note_on,77,0,0
2,note_on,75,0,0
2,note_on,87,65,0
2,note_on,87,0,60
2,note_on,75,55,0
2,note_on,77,55,0
2,note_on,81,65,0
2,note_on,81,0,60
2,note_on,77,0,0
2,note_on,75,0,0
2,note_on,87,63,0
2,note_on,87,0,60
2,note_on,75,54,0
2,note_on,77,54,0
2,note_on,81,64,0
2,note_on,81,0,60
2,note_on,77,0,0
2,note_on,75,0,0
2,note_on,87,63,0
2,note_on,87,0,60
2,note_on,75,54,0
2,note_on,77,54,0
2,note_on,81,64,0
2,note_on,81,0,60
2,note_on,77,0,0
2,note_on,75,0,0
2,note_on,87,63,0
2,note_on,87,0,60
2,note_on,75,56,0
2,note_on,77,56,0
2,note_on,81,68,0
2,note_on,81,0,60
2,note_on,77,0,0
2,note_on,75,0,0
2,note_on,87,61,0
2,note_on,87,0,60
2,note_on,75,49,0
2,note_on,77,49,0
2,note_on,81,58,0
2,note_on,81,0,60
2,note_on,77,0,0
2,note_on,75,0,0
2,note_on,87,58,0
2,note_on,87,0,60
2,note_on,75,48,0
2,note_on,77,48,0
2,note_on,81,57,0
2,note_on,81,0,60
2,note_on,77,0,0
2,note_on,75,0,0
2,note_on,87,58,0
2,note_on,87,0,60
2,note_on,75,47,0
2,note_on,77,47,0
2,note_on,81,57,0
2,note_on,81,0,60
2,note_on,77,0,0
2,note_on,75,0,0
2,note_on,87,59,0
2,note_on,87,0,60
2,note_on,75,61,0
2,note_on,77,61,0
2,note_on,81,72,0
2,note_on,81,0,60
2,note_on,77,0,0
2,note_on,75,0,0
2,note_on,87,62,0
2,note_on,87,0,60
2,note_on,75,50,0
2,note_on,77,50,0
2,note_on,81,60,0
2,note_on,81,0,60
2,note_on,77,0,0
2,note_on,75,0,0
2,note_on,87,62,0
2,note_on,87,0,60
2,note_on,75,50,0
2,note_on,77,50,0
2,note_on,81,60,0
2,note_on,81,0,60
2,note_on,77,0,0
2,note_on,75,0,0
2,note_on,87,62,0
2,note_on,87,0,60
2,note_on,75,50,0
2,note_on,77,50,0
2,note_on,81,60,0
2,note_on,81,0,60
2,note_on,77,0,0
2,note_on,75,0,0
2,note_on,87,62,0
2,note_on,87,0,60
2,note_on,75,55,0
2,note_on,77,66,0
2,note_on,77,0,80
2,note_on,75,0,0
2,note_on,87,61,0
2,note_on,87,0,80
2,note_on,75,55,0
2,note_on,77,55,0
2,note_on,81,66,0
2,note_on,81,0,80
2,note_on,77,0,0
2,note_on,75,0,0
2,note_on,87,61,0
2,note_on,87,0,80
2,note_on,75,56,0
2,note_on,77,56,0
2,note_on,81,67,0
2,note_on,81,0,80
2,note_on,77,0,0
2,note_on,75,0,0
2,note_on,87,62,0
2,note_on,87,0,80
2,note_on,75,57,0
2,note_on,77,68,0
2,note_on,77,0,80
2,note_on,75,0,0
2,note_on,87,63,0
2,note_on,87,0,80
2,note_on,75,58,0
2,note_on,77,58,0
2,note_on,83,69,0
2,note_on,83,0,80
2,note_on,77,0,0
2,note_on,75,0,0
2,note_on,87,63,0
2,note_on,87,0,80
2,note_on,75,58,0
2,note_on,77,58,0
2,note_on,83,69,0
2,note_on,83,0,80
2,note_on,77,0,0
2,note_on,75,0,0
2,note_on,87,63,0
2,note_on,87,0,80
2,note_on,75,59,0
2,note_on,77,70,0
2,note_on,77,0,80
2,note_on,75,0,0
2,note_on,87,64,0
2,note_on,87,0,80
2,note_on,75,60,0
2,note_on,77,60,0
2,note_on,84,71,0
2,note_on,84,0,80
2,note_on,77,0,0
2,note_on,75,0,0
2,note_on,87,64,0
2,note_on,87,0,80
2,note_on,75,61,0
2,note_on,77,61,0
2,note_on,84,72,0
2,note_on,84,0,80
2,note_on,77,0,0
2,note_on,75,0,0
2,note_on,87,65,0
2,note_on,87,0,80
2,note_on,76,62,0
2,note_on,80,72,0
2,note_on,80,0,80
2,note_on,76,0,0
2,note_on,88,67,0
2,note_on,88,0,80
2,note_on,76,63,0
2,note_on,80,63,0
2,note_on,80,0,80
2,note_on,76,0,0
2,note_on,88,67,0
2,note_on,88,0,80
2,note_on,76,63,0
2,note_on,80,63,0
2,note_on,80,0,80
2,note_on,76,0,0
2,note_on,88,68,0
2,note_on,88,0,80
2,note_on,75,62,0
2,note_on,75,0,80
2,note_on,87,67,0
2,note_on,87,0,80
2,note_on,75,63,0
2,note_on,84,63,0
2,note_on,84,0,80
2,note_on,75,0,0
2,note_on,87,67,0
2,note_on,87,0,80
2,note_on,75,63,0
2,note_on,84,63,0
2,note_on,84,0,80
2,note_on,75,0,0
2,note_on,87,68,0
2,note_on,87,0,80
2,note_on,74,62,0
2,note_on,74,0,80
2,note_on,86,67,0
2,note_on,86,0,80
2,note_on,74,63,0
2,note_on,83,63,0
2,note_on,83,0,80
2,note_on,74,0,0
2,note_on,86,67,0
2,note_on,86,0,80
2,note_on,74,63,0
2,note_on,83,63,0
2,note_on,83,0,80
2,note_on,74,0,0
2,note_on,86,68,0
2,note_on,86,0,80
2,note_on,73,62,0
2,note_on,73,0,80
2,note_on,85,67,0
2,note_on,85,0,80
2,note_on,73,63,0
2,note_on,82,63,0
2,note_on,82,0,80
2,note_on,73,0,0
2,note_on,85,67,0
2,note_on,85,0,80
2,note_on,73,63,0
2,note_on,82,63,0
2,note_on,82,0,80
2,note_on,73,0,0
2,note_on,85,68,0
2,note_on,85,0,80
2,note_on,72,62,0
2,note_on,72,0,80
2,note_on,84,67,0
2,note_on,84,0,80
2,note_on,72,63,0
2,note_on,81,63,0
2,note_on,81,0,80
2,note_on,72,0,0
2,note_on,84,67,0
2,note_on,84,0,80
2,note_on,72,63,0
2,note_on,81,63,0
2,note_on,81,0,80
2,note_on,72,0,0
2,note_on,84,68,0
2,note_on,84,0,80
2,note_on,71,62,0
2,note_on,71,0,80
2,note_on,83,67,0
2,note_on,83,0,80
2,note_on,71,63,0
2,note_on,80,63,0
2,note_on,80,0,80
2,note_on,71,0,0
2,note_on,83,67,0
2,note_on,83,0,80
2,note_on,71,63,0
2,note_on,80,63,0
2,note_on,80,0,80
2,note_on,71,0,0
2,note_on,83,68,0
2,note_on,83,0,80
2,note_on,76,65,0
2,note_on,79,65,0
2,note_on,82,78,0
2,note_on,82,0,60
2,note_on,79,0,0
2,note_on,76,0,0
2,note_on,88,65,0
2,note_on,88,0,60
2,note_on,76,55,0
2,note_on,79,55,0
2,note_on,82,65,0
2,note_on,82,0,60
2,note_on,79,0,0
2,note_on,76,0,0
2,note_on,88,63,0
2,note_on,88,0,60
2,note_on,76,54,0
2,note_on,79,54,0
2,note_on,82,64,0
2,note_on,82,0,60
2,note_on,79,0,0
2,note_on,76,0,0
2,note_on,88,63,0
2,note_on,88,0,60
2,note_on,76,54,0
2,note_on,79,54,0
2,note_on,82,64,0
2,note_on,82,0,60
2,note_on,79,0,0
2,note_on,76,0,0
2,note_on,88,63,0
2,note_on,88,0,60
2,note_on,76,56,0
2,note_on,79,56,0
2,note_on,82,68,0
2,note_on,82,0,60
2,note_on,79,0,0
2,note_on,76,0,0
2,note_on,88,61,0
2,note_on,88,0,60
2,note_on,76,49,0
2,note_on,79,49,0
2,note_on,82,58,0
2,note_on,82,0,60
2,note_on,79,0,0
2,note_on,76,0,0
2,note_on,88,58,0
2,note_on,88,0,60
2,note_on,76,48,0
2,note_on,79,48,0
2,note_on,82,57,0
2,note_on,82,0,60
2,note_on,79,0,0
2,note_on,76,0,0
2,note_on,88,58,0
2,note_on,88,0,60
2,note_on,76,47,0
2,note_on,79,47,0
2,note_on,82,57,0
2,note_on,82,0,60
2,note_on,79,0,0
2,note_on,76,0,0
2,note_on,88,59,0
2,note_on,88,0,60
2,note_on,76,61,0
2,note_on,79,61,0
2,note_on,82,72,0
2,note_on,82,0,60
2,note_on,79,0,0
2,note_on,76,0,0
2,note_on,88,62,0
2,note_on,88,0,60
2,note_on,76,50,0
2,note_on,79,50,0
2,note_on,82,60,0
2,note_on,82,0,60
2,note_on,79,0,0
2,note_on,76,0,0
2,note_on,88,62,0
2,note_on,88,0,60
2,note_on,76,50,0
2,note_on,79,50,0
2,note_on,82,60,0
2,note_on,82,0,60
2,note_on,79,0,0
2,note_on,76,0,0
2,note_on,88,62,0
2,note_on,88,0,60
2,note_on,76,50,0
2,note_on,79,50,0
2,note_on,82,60,0
2,note_on,82,0,60
2,note_on,79,0,0
2,note_on,76,0,0
2,note_on,88,62,0
2,note_on,88,0,60
2,note_on,76,55,0
2,note_on,79,66,0
2,note_on,79,0,80
2,note_on,76,0,0
2,note_on,88,61,0
2,note_on,88,0,80
2,note_on,76,55,0
2,note_on,79,55,0
2,note_on,82,66,0
2,note_on,82,0,80
2,note_on,79,0,0
2,note_on,76,0,0
2,note_on,88,61,0
2,note_on,88,0,80
2,note_on,76,56,0
2,note_on,79,56,0
2,note_on,82,67,0
2,note_on,82,0,80
2,note_on,79,0,0
2,note_on,76,0,0
2,note_on,88,62,0
2,note_on,88,0,80
2,note_on,76,57,0
2,note_on,79,68,0
2,note_on,79,0,80
2,note_on,76,0,0
2,note_on,88,63,0
2,note_on,88,0,80
2,note_on,76,58,0
2,note_on,79,58,0
2,note_on,84,69,0
2,note_on,84,0,80
2,note_on,79,0,0
2,note_on,76,0,0
2,note_on,88,63,0
2,note_on,88,0,80
2,note_on,76,58,0
2,note_on,79,58,0
2,note_on,84,69,0
2,note_on,84,0,80
2,note_on,79,0,0
2,note_on,76,0,0
2,note_on,88,63,0
2,note_on,88,0,80
2,note_on,76,59,0
2,note_on,79,70,0
2,note_on,79,0,80
2,note_on,76,0,0
2,note_on,88,64,0
2,note_on,88,0,80
2,note_on,76,60,0
2,note_on,79,60,0
2,note_on,85,71,0
2,note_on,85,0,80
2,note_on,79,0,0
2,note_on,76,0,0
2,note_on,88,64,0
2,note_on,88,0,80
2,note_on,76,61,0
2,note_on,79,61,0
2,note_on,85,72,0
2,note_on,85,0,80
2,note_on,79,0,0
2,note_on,76,0,0
2,note_on,88,65,0
2,note_on,88,0,80
2,note_on,77,62,0
2,note_on,81,72,0
2,note_on,81,0,80
2,note_on,77,0,0
2,note_on,89,67,0
2,note_on,89,0,80
2,note_on,77,63,0
2,note_on,81,63,0
2,note_on,81,0,80
2,note_on,77,0,0
2,note_on,89,67,0
2,note_on,89,0,80
2,note_on,77,63,0
2,note_on,81,63,0
2,note_on,81,0,80
2,note_on,77,0,0
2,note_on,89,68,0
2,note_on,89,0,80
2,note_on,76,62,0
2,note_on,76,0,80
2,note_on,88,67,0
2,note_on,88,0,80
2,note_on,76,63,0
2,note_on,85,63,0
2,note_on,85,0,80
2,note_on,76,0,0
2,note_on,88,67,0
2,note_on,88,0,80
2,note_on,76,63,0
2,note_on,85,63,0
2,note_on,85,0,80
2,note_on,76,0,0
2,note_on,88,68,0
2,note_on,88,0,80
2,note_on,75,62,0
2,note_on,75,0,80
2,note_on,87,67,0
2,note_on,87,0,80
2,note_on,75,63,0
2,note_on,84,63,0
2,note_on,84,0,80
2,note_on,75,0,0
2,note_on,87,67,0
2,note_on,87,0,80
2,note_on,75,63,0
2,note_on,84,63,0
2,note_on,84,0,80
2,note_on,75,0,0
2,note_on,87,68,0
2,note_on,87,0,80
2,note_on,74,62,0
2,note_on,74,0,80
2,note_on,86,67,0
2,note_on,86,0,80
2,note_on,74,63,0
2,note_on,83,63,0
2,note_on,83,0,80
2,note_on,74,0,0
2,note_on,86,67,0
2,note_on,86,0,80
2,note_on,74,63,0
2,note_on,83,63,0
2,note_on,83,0,80
2,note_on,74,0,0
2,note_on,86,68,0
2,note_on,86,0,80
2,note_on,73,62,0
2,note_on,73,0,80
2,note_on,85,67,0
2,note_on,85,0,80
2,note_on,73,63,0
2,note_on,82,63,0
2,note_on,82,0,80
2,note_on,73,0,0
2,note_on,85,67,0
2,note_on,85,0,80
2,note_on,73,63,0
2,note_on,82,63,0
2,note_on,82,0,80
2,note_on,73,0,0
2,note_on,85,68,0
2,note_on,85,0,80
2,note_on,72,62,0
2,note_on,72,0,80
2,note_on,84,67,0
2,note_on,84,0,80
2,note_on,72,63,0
2,note_on,81,63,0
2,note_on,81,0,80
2,note_on,72,0,0
2,note_on,84,67,0
2,note_on,84,0,80
2,note_on,72,63,0
2,note_on,81,63,0
2,note_on,81,0,80
2,note_on,72,0,0
2,note_on,84,68,0
2,note_on,84,0,80
2,note_on,78,65,0
2,note_on,81,65,0
2,note_on,84,78,0
2,note_on,84,0,60
2,note_on,81,0,0
2,note_on,78,0,0
2,note_on,90,65,0
2,note_on,90,0,60
2,note_on,78,55,0
2,note_on,81,55,0
2,note_on,84,65,0
2,note_on,84,0,60
2,note_on,81,0,0
2,note_on,78,0,0
2,note_on,90,63,0
2,note_on,90,0,60
2,note_on,78,55,0
2,note_on,81,55,0
2,note_on,84,65,0
2,note_on,84,0,60
2,note_on,81,0,0
2,note_on,78,0,0
2,note_on,90,64,0
2,note_on,90,0,60
2,note_on,78,55,0
2,note_on,81,55,0
2,note_on,84,65,0
2,note_on,84,0,60
2,note_on,81,0,0
2,note_on,78,0,0
2,note_on,90,64,0
2,note_on,90,0,60
2,note_on,78,58,0
2,note_on,81,58,0
2,note_on,84,70,0
2,note_on,84,0,60
2,note_on,81,0,0
2,note_on,78,0,0
2,note_on,90,63,0
2,note_on,90,0,60
2,note_on,78,51,0
2,note_on,81,51,0
2,note_on,84,61,0
2,note_on,84,0,60
2,note_on,81,0,0
2,note_on,78,0,0
2,note_on,90,61,0
2,note_on,90,0,60
2,note_on,78,50,0
2,note_on,81,50,0
2,note_on,84,60,0
2,note_on,84,0,60
2,note_on,81,0,0
2,note_on,78,0,0
2,note_on,90,61,0
2,note_on,90,0,60
2,note_on,78,50,0
2,note_on,81,50,0
2,note_on,84,60,0
2,note_on,84,0,60
2,note_on,81,0,0
2,note_on,78,0,0
2,note_on,90,62,0
2,note_on,90,0,60
2,note_on,78,61,0
2,note_on,81,61,0
2,note_on,84,72,0
2,note_on,84,0,60
2,note_on,81,0,0
2,note_on,78,0,0
2,note_on,90,62,0
2,note_on,90,0,60
2,note_on,78,50,0
2,note_on,81,50,0
2,note_on,84,60,0
2,note_on,84,0,60
2,note_on,81,0,0
2,note_on,78,0,0
2,note_on,90,62,0
2,note_on,90,0,60
2,note_on,78,50,0
2,note_on,81,50,0
2,note_on,84,60,0
2,note_on,84,0,60
2,note_on,81,0,0
2,note_on,78,0,0
2,note_on,90,62,0
2,note_on,90,0,60
2,note_on,78,50,0
2,note_on,81,50,0
2,note_on,84,60,0
2,note_on,84,0,60
2,note_on,81,0,0
2,note_on,78,0,0
2,note_on,90,62,0
2,note_on,90,0,60
2,note_on,78,55,0
2,note_on,81,66,0
2,note_on,81,0,80
2,note_on,78,0,0
2,note_on,90,61,0
2,note_on,90,0,80
2,note_on,78,55,0
2,note_on,81,55,0
2,note_on,84,66,0
2,note_on,84,0,80
2,note_on,81,0,0
2,note_on,78,0,0
2,note_on,90,61,0
2,note_on,90,0,80
2,note_on,78,56,0
2,note_on,81,56,0
2,note_on,84,67,0
2,note_on,84,0,80
2,note_on,81,0,0
2,note_on,78,0,0
2,note_on,90,62,0
2,note_on,90,0,80
2,note_on,78,57,0
2,note_on,81,68,0
2,note_on,81,0,80
2,note_on,78,0,0
2,note_on,90,63,0
2,note_on,90,0,80
2,note_on,78,58,0
2,note_on,81,58,0
2,note_on,86,69,0
2,note_on,86,0,80
2,note_on,81,0,0
2,note_on,78,0,0
2,note_on,90,63,0
2,note_on,90,0,80
2,note_on,78,58,0
2,note_on,81,58,0
2,note_on,86,69,0
2,note_on,86,0,80
2,note_on,81,0,0
2,note_on,78,0,0
2,note_on,90,63,0
2,note_on,90,0,80
2,note_on,78,59,0
2,note_on,81,70,0
2,note_on,81,0,80
2,note_on,78,0,0
2,note_on,90,64,0
2,note_on,90,0,80
2,note_on,78,60,0
2,note_on,81,60,0
2,note_on,87,71,0
2,note_on,87,0,80
2,note_on,81,0,0
2,note_on,78,0,0
2,note_on,90,64,0
2,note_on,90,0,80
2,note_on,78,61,0
2,note_on,81,61,0
2,note_on,87,72,0
2,note_on,87,0,80
2,note_on,81,0,0
2,note_on,78,0,0
2,note_on,90,65,0
2,note_on,90,0,80
2,note_on,79,62,0
2,note_on,83,72,0
2,note_on,83,0,80
2,note_on,79,0,0
2,note_on,79,63,80
2,note_on,83,63,0
2,note_on,83,0,80
2,note_on,79,0,0
2,note_on,91,67,0
2,note_on,79,63,80
2,note_on,83,63,0
2,note_on,83,0,80
2,note_on,79,0,0
2,note_on,91,0,0
2,note_on,91,68,0
2,note_on,91,0,80
2,note_on,86,62,0
2,note_on,79,62,0
2,note_on,77,62,0
2,note_on,86,0,60
2,note_on,77,0,20
2,note_on,79,0,0
2,note_on,79,62,80
2,note_on,77,63,0
2,note_on,86,63,0
2,note_on,86,0,80
2,note_on,77,0,0
2,note_on,79,0,0
2,note_on,89,67,0
2,note_on,79,63,80
2,note_on,77,63,0
2,note_on,86,63,0
2,note_on,86,0,80
2,note_on,89,0,0
2,note_on,79,0,0
2,note_on,77,0,0
2,note_on,89,68,0
2,note_on,89,0,80
2,note_on,75,62,0
2,note_on,79,62,0
2,note_on,79,0,80
2,note_on,75,0,0
2,note_on,75,63,80
2,note_on,79,63,0
2,note_on,79,0,80
2,note_on,75,0,0
2,note_on,87,67,0
2,note_on,75,63,80
2,note_on,79,63,0
2,note_on,79,0,80
2,note_on,75,0,0
2,note_on,87,0,0
2,note_on,87,68,0
2,note_on,87,0,80
2,note_on,72,62,0
2,note_on,75,62,0
2,note_on,75,0,80
2,note_on,72,0,0
2,note_on,72,63,80
2,note_on,75,63,0
2,note_on,75,0,80
2,note_on,72,0,0
2,note_on,84,67,0
2,note_on,72,63,80
2,note_on,75,63,0
2,note_on,75,0,80
2,note_on,72,0,0
2,note_on,84,0,0
2,note_on,84,68,0
2,note_on,84,0,80
2,note_on,75,62,0
2,note_on,79,62,0
2,note_on,79,0,80
2,note_on,75,0,0
2,note_on,75,63,80
2,note_on,79,63,0
2,note_on,79,0,80
2,note_on,75,0,0
2,note_on,87,67,0
2,note_on,75,63,80
2,note_on,79,63,0
2,note_on,79,0,80
2,note_on,75,0,0
2,note_on,87,0,0
2,note_on,87,68,0
2,note_on,87,0,80
2,note_on,72,62,0
2,note_on,75,62,0
2,note_on,75,0,80
2,note_on,72,0,0
2,note_on,72,63,80
2,note_on,75,63,0
2,note_on,75,0,80
2,note_on,72,0,0
2,note_on,84,67,0
2,note_on,72,63,80
2,note_on,75,63,0
2,note_on,75,0,80
2,note_on,72,0,0
2,note_on,84,0,0
2,note_on,84,68,0
2,note_on,84,0,80
2,note_on,77,62,0
2,note_on,81,72,0
2,note_on,81,0,80
2,note_on,77,0,0
2,note_on,77,63,80
2,note_on,81,63,0
2,note_on,81,0,80
2,note_on,77,0,0
2,note_on,89,67,0
2,note_on,77,63,80
2,note_on,81,63,0
2,note_on,81,0,80
2,note_on,77,0,0
2,note_on,89,0,0
2,note_on,89,68,0
2,note_on,89,0,80
2,note_on,84,62,0
2,note_on,75,62,0
2,note_on,75,0,80
2,note_on,84,0,0
2,note_on,75,63,80
2,note_on,84,63,0
2,note_on,84,0,80
2,note_on,75,0,0
2,note_on,87,67,0
2,note_on,75,63,80
2,note_on,84,63,0
2,note_on,84,0,80
2,note_on,75,0,0
2,note_on,87,0,0
2,note_on,87,68,0
2,note_on,87,0,80
2,note_on,74,62,0
2,note_on,77,62,0
2,note_on,77,0,80
2,note_on,74,0,0
2,note_on,74,63,80
2,note_on,77,63,0
2,note_on,77,0,80
2,note_on,74,0,0
2,note_on,86,67,0
2,note_on,74,63,80
2,note_on,77,63,0
2,note_on,77,0,80
2,note_on,74,0,0
2,note_on,86,0,0
2,note_on,86,68,0
2,note_on,86,0,80
2,note_on,70,62,0
2,note_on,74,62,0
2,note_on,74,0,80
2,note_on,70,0,0
2,note_on,70,63,80
2,note_on,74,63,0
2,note_on,74,0,80
2,note_on,70,0,0
2,note_on,82,67,0
2,note_on,70,63,80
2,note_on,74,63,0
2,note_on,74,0,80
2,note_on,70,0,0
2,note_on,82,0,0
2,note_on,82,68,0
2,note_on,82,0,80
2,note_on,74,62,0
2,note_on,77,62,0
2,note_on,77,0,80
2,note_on,74,0,0
2,note_on,74,63,80
2,note_on,77,63,0
2,note_on,77,0,80
2,note_on,74,0,0
2,note_on,86,67,0
2,note_on,74,63,80
2,note_on,77,63,0
2,note_on,77,0,80
2,note_on,74,0,0
2,note_on,86,0,0
2,note_on,86,68,0
2,note_on,86,0,80
2,note_on,70,62,0
2,note_on,74,62,0
2,note_on,74,0,80
2,note_on,70,0,0
2,note_on,70,63,80
2,note_on,74,63,0
2,note_on,74,0,80
2,note_on,70,0,0
2,note_on,82,67,0
2,note_on,70,63,80
2,note_on,74,63,0
2,note_on,74,0,80
2,note_on,70,0,0
2,note_on,82,0,0
2,note_on,82,68,0
2,note_on,82,0,80
2,note_on,75,62,0
2,note_on,79,72,0
2,note_on,79,0,80
2,note_on,75,0,0
2,note_on,75,63,80
2,note_on,79,63,0
2,note_on,79,0,80
2,note_on,75,0,0
2,note_on,87,67,0
2,note_on,75,63,80
2,note_on,79,63,0
2,note_on,79,0,80
2,note_on,75,0,0
2,note_on,87,0,0
2,note_on,87,68,0
2,note_on,87,0,80
2,note_on,82,62,0
2,note_on,74,62,0
2,note_on,74,0,80
2,note_on,82,0,0
2,note_on,74,63,80
2,note_on,82,63,0
2,note_on,82,0,80
2,note_on,74,0,0
2,note_on,86,67,0
2,note_on,74,63,80
2,note_on,82,63,0
2,note_on,82,0,80
2,note_on,74,0,0
2,note_on,86,0,0
2,note_on,86,68,0
2,note_on,86,0,80
2,note_on,72,62,0
2,note_on,75,62,0
2,note_on,75,0,80
2,note_on,72,0,0
2,note_on,72,63,80
2,note_on,75,63,0
2,note_on,75,0,80
2,note_on,72,0,0
2,note_on,84,67,0
2,note_on,72,63,80
2,note_on,75,63,0
2,note_on,75,0,80
2,note_on,72,0,0
2,note_on,84,0,0
2,note_on,84,68,0
2,note_on,84,0,80
2,note_on,69,62,0
2,note_on,72,62,0
2,note_on,72,0,80
2,note_on,69,0,0
2,note_on,69,63,80
2,note_on,72,63,0
2,note_on,72,0,80
2,note_on,69,0,0
2,note_on,81,67,0
2,note_on,69,63,80
2,note_on,72,63,0
2,note_on,72,0,80
2,note_on,69,0,0
2,note_on,81,0,0
2,note_on,81,68,0
2,note_on,81,0,80
2,note_on,72,62,0
2,note_on,75,62,0
2,note_on,75,0,80
2,note_on,72,0,0
2,note_on,72,63,80
2,note_on,75,63,0
2,note_on,75,0,80
2,note_on,72,0,0
2,note_on,84,67,0
2,note_on,72,63,80
2,note_on,75,63,0
2,note_on,75,0,80
2,note_on,72,0,0
2,note_on,84,0,0
2,note_on,84,68,0
2,note_on,84,0,80
2,note_on,69,62,0
2,note_on,72,62,0
2,note_on,72,0,80
2,note_on,69,0,0
2,note_on,69,63,80
2,note_on,72,63,0
2,note_on,72,0,80
2,note_on,69,0,0
2,note_on,81,67,0
2,note_on,69,63,80
2,note_on,72,63,0
2,note_on,72,0,80
2,note_on,69,0,0
2,note_on,81,0,0
2,note_on,81,68,0
2,note_on,81,0,80
2,note_on,74,62,0
2,note_on,78,72,0
2,note_on,78,0,80
2,note_on,74,0,0
2,note_on,74,63,80
2,note_on,78,63,0
2,note_on,78,0,80
2,note_on,74,0,0
2,note_on,86,67,0
2,note_on,74,63,80
2,note_on,78,63,0
2,note_on,78,0,80
2,note_on,74,0,0
2,note_on,86,0,0
2,note_on,86,68,0
2,note_on,86,0,80
2,note_on,81,62,0
2,note_on,72,62,0
2,note_on,72,0,80
2,note_on,81,0,0
2,note_on,72,63,80
2,note_on,81,63,0
2,note_on,81,0,80
2,note_on,72,0,0
2,note_on,84,67,0
2,note_on,72,63,80
2,note_on,81,63,0
2,note_on,81,0,80
2,note_on,72,0,0
2,note_on,84,0,0
2,note_on,84,68,0
2,note_on,84,0,80
2,note_on,70,62,0
2,note_on,79,62,0
2,note_on,79,0,80
2,note_on,70,0,0
2,note_on,70,63,80
2,note_on,79,63,0
2,note_on,79,0,80
2,note_on,70,0,0
2,note_on,82,67,0
2,note_on,70,63,80
2,note_on,79,63,0
2,note_on,79,0,80
2,note_on,70,0,0
2,note_on,82,0,0
2,note_on,82,68,0
2,note_on,82,0,80
2,note_on,74,62,0
2,note_on,81,62,0
2,note_on,81,0,80
2,note_on,74,0,0
2,note_on,74,63,80
2,note_on,81,63,0
2,note_on,81,0,80
2,note_on,74,0,0
2,note_on,86,67,0
2,note_on,74,63,80
2,note_on,81,63,0
2,note_on,81,0,80
2,note_on,74,0,0
2,note_on,86,0,0
2,note_on,86,68,0
2,note_on,86,0,80
2,note_on,74,62,0
2,note_on,79,62,0
2,note_on,79,0,80
2,note_on,74,0,0
2,note_on,74,63,80
2,note_on,79,63,0
2,note_on,79,0,80
2,note_on,74,0,0
2,note_on,86,67,0
2,note_on,74,63,80
2,note_on,79,63,0
2,note_on,79,0,80
2,note_on,74,0,0
2,note_on,86,0,0
2,note_on,86,68,0
2,note_on,86,0,80
2,note_on,73,62,0
2,note_on,79,62,0
2,note_on,79,0,80
2,note_on,73,0,0
2,note_on,73,63,80
2,note_on,79,63,0
2,note_on,79,0,80
2,note_on,73,0,0
2,note_on,85,67,0
2,note_on,73,63,80
2,note_on,79,63,0
2,note_on,79,0,80
2,note_on,73,0,0
2,note_on,85,0,0
2,note_on,85,68,0
2,note_on,85,0,80
2,note_on,74,62,0
2,note_on,78,72,0
2,note_on,78,0,80
2,note_on,74,0,0
2,note_on,86,67,0
2,note_on,86,0,80
2,note_on,74,63,0
2,note_on,74,0,80
2,note_on,86,67,0
2,note_on,86,0,80
2,note_on,74,63,0
2,note_on,74,0,80
2,note_on,86,67,0
2,note_on,86,0,80
2,note_on,74,61,0
2,note_on,74,0,80
2,note_on,86,62,0
2,note_on,86,0,80
2,note_on,74,61,0
2,note_on,74,0,80
2,note_on,86,65,0
2,note_on,86,0,60
2,note_on,74,62,20
2,note_on,74,0,80
2,note_on,86,65,0
2,note_on,86,0,80
2,note_on,74,69,0
2,note_on,82,69,0
2,note_on,82,0,80
2,note_on,74,0,0
2,note_on,86,61,0
2,note_on,86,0,80
2,note_on,74,59,0
2,note_on,74,0,80
2,note_on,86,63,0
2,note_on,86,0,80
2,note_on,74,59,0
2,note_on,74,0,80
2,note_on,86,63,0
2,note_on,86,0,80
2,note_on,86,57,80
2,note_on,86,0,80
2,note_on,74,56,0
2,note_on,74,0,80
2,note_on,86,60,0
2,note_on,86,0,80
2,note_on,74,55,0
2,note_on,74,0,80
2,note_on,86,60,0
2,note_on,86,0,80
2,note_on,84,58,80
2,note_on,84,0,80
2,note_on,72,54,0
2,note_on,72,0,80
2,note_on,84,57,0
2,note_on,84,0,80
2,note_on,72,54,0
2,note_on,72,0,80
2,note_on,84,57,0
2,note_on,84,0,80
2,note_on,82,55,80
2,note_on,82,0,80
2,note_on,70,51,0
2,note_on,70,0,80
2,note_on,82,55,0
2,note_on,82,0,80
2,note_on,70,51,0
2,note_on,70,0,80
2,note_on,82,54,0
2,note_on,82,0,80
2,note_on,81,58,80
2,note_on,81,0,80
2,note_on,69,54,0
2,note_on,69,0,80
2,note_on,81,56,0
2,note_on,81,0,80
2,note_on,69,53,0
2,note_on,69,0,80
2,note_on,81,55,0
2,note_on,81,0,80
2,note_on,79,54,80
2,note_on,79,0,80
2,note_on,67,50,0
2,note_on,67,0,80
2,note_on,79,54,0
2,note_on,79,0,80
2,note_on,67,49,0
2,note_on,67,0,80
2,note_on,79,52,0
2,note_on,79,0,80
2,note_on,78,54,80
2,note_on,78,0,80
2,note_on,66,51,0
2,note_on,66,0,80
2,note_on,78,53,0
2,note_on,78,0,80
2,note_on,66,51,0
2,note_on,66,0,80
2,note_on,78,53,0
2,note_on,78,0,80
2,note_on,75,51,80
2,note_on,75,0,80
2,note_on,63,47,0
2,note_on,63,0,80
2,note_on,75,51,0
2,note_on,75,0,80
2,note_on,63,47,0
2,note_on,63,0,80
2,note_on,75,50,0
2,note_on,75,0,80
2,note_on,74,52,80
2,note_on,74,0,80
2,note_on,62,48,0
2,note_on,62,0,80
2,note_on,74,51,0
2,note_on,74,0,80
2,note_on,62,47,0
2,note_on,62,0,80
2,note_on,74,51,0
2,note_on,74,0,80
2,note_on,62,49,80
2,note_on,70,49,0
2,note_on,70,0,80
2,note_on,62,0,0
2,note_on,58,45,0
2,note_on,58,0,80
2,note_on,62,47,0
2,note_on,70,48,0
2,note_on,70,0,80
2,note_on,62,0,0
2,note_on,58,45,0
2,note_on,58,0,80
2,note_on,62,46,0
2,note_on,70,46,0
2,note_on,70,0,80
2,note_on,62,0,0
2,note_on,62,45,80
2,note_on,69,49,0
2,note_on,69,0,80
2,note_on,62,0,0
2,note_on,57,45,0
2,note_on,57,0,80
2,note_on,62,44,0
2,note_on,69,47,0
2,note_on,69,0,80
2,note_on,62,0,0
2,note_on,57,44,0
2,note_on,57,0,80
2,note_on,62,43,0
2,note_on,69,45,0
2,note_on,69,0,80
2,note_on,62,0,0
2,note_on,62,38,80
2,note_on,67,44,0
2,note_on,67,0,80
2,note_on,62,0,0
2,note_on,55,40,0
2,note_on,55,0,80
2,note_on,62,38,0
2,note_on,67,44,0
2,note_on,67,0,80
2,note_on,62,0,0
2,note_on,55,38,0
2,note_on,55,0,80
2,note_on,62,37,0
2,note_on,67,42,0
2,note_on,67,0,80
2,note_on,62,0,0
2,note_on,62,36,80
2,note_on,66,44,0
2,note_on,66,0,80
2,note_on,62,0,0
2,note_on,54,40,0
2,note_on,54,0,80
2,note_on,62,36,0
2,note_on,66,41,0
2,note_on,66,0,80
2,note_on,62,0,0
2,note_on,54,39,0
2,note_on,54,0,80
2,note_on,62,34,0
2,note_on,66,41,0
2,note_on,66,0,80
2,note_on,62,0,0
2,note_on,54,33,80
2,note_on,57,34,0
2,note_on,63,39,0
2,note_on,63,0,80
2,note_on,57,0,0
2,note_on,54,0,0
2,note_on,51,36,0
2,note_on,51,0,80
2,note_on,54,33,0
2,note_on,57,33,0
2,note_on,63,38,0
2,note_on,63,0,80
2,note_on,57,0,0
2,note_on,54,0,0
2,note_on,51,35,0
2,note_on,51,0,80
2,note_on,54,33,0
2,note_on,57,33,0
2,note_on,63,36,0
2,note_on,63,0,80
2,note_on,57,0,0
2,note_on,54,0,0
2,note_on,55,33,80
2,note_on,58,33,0
2,note_on,62,38,0
2,note_on,62,0,80
2,note_on,58,0,0
2,note_on,55,0,0
2,note_on,50,35,0
2,note_on,50,0,80
2,note_on,55,32,0
2,note_on,58,32,0
2,note_on,62,37,0
2,note_on,62,0,80
2,note_on,58,0,0
2,note_on,55,0,0
2,note_on,50,34,0
2,note_on,50,0,80
2,note_on,55,32,0
2,note_on,58,32,0
2,note_on,62,36,0
2,note_on,62,0,80
2,note_on,58,0,0
2,note_on,55,0,0
2,note_on,60,34,80
2,note_on,54,35,0
2,note_on,62,35,0
2,note_on,62,0,80
2,note_on,54,0,0
2,note_on,60,0,0
2,note_on,50,32,0
2,note_on,50,0,80
2,note_on,60,27,0
2,note_on,54,28,0
2,note_on,62,34,0
2,note_on,62,0,80
2,note_on,54,0,0
2,note_on,60,0,0
2,note_on,50,32,0
2,note_on,50,0,80
2,note_on,60,27,0
2,note_on,54,27,0
2,note_on,62,33,0
2,note_on,62,0,80
2,note_on,54,0,0
2,note_on,60,0,0
2,note_on,50,40,20
2,note_on,55,43,20
2,note_on,58,44,20
2,note_on,62,46,20
2,note_on,62,0,400
2,note_on,50,0,0
2,note_on,55,0,0
2,note_on,58,0,0
2,note_on,70,45,0
2,note_on,70,0,80
2,note_on,86,37,0
2,note_on,86,0,80
2,note_on,74,40,0
2,note_on,74,0,80
2,note_on,86,38,0
2,note_on,86,0,80
2,note_on,79,41,0
2,note_on,79,0,80
2,note_on,86,39,0
2,note_on,86,0,80
2,note_on,82,47,0
2,note_on,82,0,80
2,note_on,86,39,0
2,note_on,86,0,80
2,note_on,79,43,0
2,note_on,79,0,80
2,note_on,86,43,0
2,note_on,86,0,80
2,note_on,74,44,0
2,note_on,74,0,80
2,note_on,86,41,0
2,note_on,86,0,80
2,note_on,75,50,0
2,note_on,75,0,80
2,note_on,91,43,0
2,note_on,91,0,80
2,note_on,79,45,0
2,note_on,79,0,80
2,note_on,91,42,0
2,note_on,91,0,80
2,note_on,87,45,0
2,note_on,87,0,80
2,note_on,91,42,0
2,note_on,91,0,80
2,note_on,74,50,0
2,note_on,74,0,80
2,note_on,90,42,0
2,note_on,90,0,80
2,note_on,78,45,0
2,note_on,78,0,80
2,note_on,90,42,0
2,note_on,90,0,80
2,note_on,86,45,0
2,note_on,86,0,80
2,note_on,90,42,0
2,note_on,90,0,80
2,note_on,72,50,0
2,note_on,72,0,80
2,note_on,87,42,0
2,note_on,87,0,80
2,note_on,75,45,0
2,note_on,75,0,80
2,note_on,87,43,0
2,note_on,87,0,80
2,note_on,79,45,0
2,note_on,79,0,80
2,note_on,87,41,0
2,note_on,87,0,80
2,note_on,70,50,0
2,note_on,70,0,80
2,note_on,86,42,0
2,note_on,86,0,80
2,note_on,74,45,0
2,note_on,74,0,80
2,note_on,86,43,0
2,note_on,86,0,80
2,note_on,79,45,0
2,note_on,79,0,80
2,note_on,86,41,0
2,note_on,86,0,80
2,note_on,82,50,0
2,note_on,82,0,80
2,note_on,86,42,0
2,note_on,86,0,80
2,note_on,79,45,0
2,note_on,79,0,80
2,note_on,86,42,0
2,note_on,86,0,80
2,note_on,74,45,0
2,note_on,74,0,80
2,note_on,86,42,0
2,note_on,86,0,80
2,note_on,70,50,0
2,note_on,70,0,80
2,note_on,86,42,0
2,note_on,86,0,80
2,note_on,74,45,0
2,note_on,74,0,80
2,note_on,86,45,0
2,note_on,86,0,80
2,note_on,79,45,0
2,note_on,79,0,80
2,note_on,86,42,0
2,note_on,86,0,80
2,note_on,69,50,0
2,note_on,69,0,80
2,note_on,86,43,0
2,note_on,86,0,80
2,note_on,74,45,0
2,note_on,74,0,80
2,note_on,86,42,0
2,note_on,86,0,80
2,note_on,77,45,0
2,note_on,77,0,80
2,note_on,86,42,0
2,note_on,86,0,80
2,note_on,67,50,0
2,note_on,67,0,80
2,note_on,84,42,0
2,note_on,84,0,80
2,note_on,72,45,0
2,note_on,72,0,80
2,note_on,84,42,0
2,note_on,84,0,80
2,note_on,75,45,0
2,note_on,75,0,80
2,note_on,84,42,0
2,note_on,84,0,80
2,note_on,65,50,0
2,note_on,65,0,80
2,note_on,82,42,0
2,note_on,82,0,80
2,note_on,70,45,0
2,note_on,70,0,80
2,note_on,82,43,0
2,note_on,82,0,80
2,note_on,74,45,0
2,note_on,74,0,80
2,note_on,82,41,0
2,note_on,82,0,80
2,note_on,63,50,0
2,note_on,63,0,80
2,note_on,81,42,0
2,note_on,81,0,80
2,note_on,69,45,0
2,note_on,69,0,80
2,note_on,81,43,0
2,note_on,81,0,80
2,note_on,72,45,0
2,note_on,72,0,80
2,note_on,81,41,0
2,note_on,81,0,80
2,note_on,75,50,0
2,note_on,75,0,80
2,note_on,81,42,0
2,note_on,81,0,80
2,note_on,72,45,0
2,note_on,72,0,80
2,note_on,81,42,0
2,note_on,81,0,80
2,note_on,69,45,0
2,note_on,69,0,80
2,note_on,81,42,0
2,note_on,81,0,80
2,note_on,63,50,0
2,note_on,63,0,80
2,note_on,81,42,0
2,note_on,81,0,80
2,note_on,69,45,0
2,note_on,69,0,80
2,note_on,81,45,0
2,note_on,81,0,80
2,note_on,72,45,0
2,note_on,72,0,80
2,note_on,81,42,0
2,note_on,81,0,80
2,note_on,69,59,0
2,note_on,69,0,80
2,note_on,84,43,0
2,note_on,84,0,80
2,note_on,72,50,0
2,note_on,72,0,80
2,note_on,84,42,0
2,note_on,84,0,80
2,note_on,75,47,0
2,note_on,75,0,80
2,note_on,84,42,0
2,note_on,84,0,80
2,note_on,63,50,0
2,note_on,63,0,80
2,note_on,81,42,0
2,note_on,81,0,80
2,note_on,69,45,0
2,note_on,69,0,80
2,note_on,81,42,0
2,note_on,81,0,80
2,note_on,72,45,0
2,note_on,72,0,80
2,note_on,81,42,0
2,note_on,81,0,80
2,note_on,64,50,0
2,note_on,64,0,80
2,note_on,79,42,0
2,note_on,79,0,80
2,note_on,70,45,0
2,note_on,70,0,80
2,note_on,79,43,0
2,note_on,79,0,80
2,note_on,76,45,0
2,note_on,76,0,80
2,note_on,79,41,0
2,note_on,79,0,80
2,note_on,67,58,0
2,note_on,67,0,80
2,note_on,82,46,0
2,note_on,82,0,80
2,note_on,70,50,0
2,note_on,70,0,80
2,note_on,82,43,0
2,note_on,82,0,80
2,note_on,74,45,0
2,note_on,74,0,80
2,note_on,82,41,0
2,note_on,82,0,80
2,note_on,79,50,0
2,note_on,79,0,80
2,note_on,82,42,0
2,note_on,82,0,80
2,note_on,74,45,0
2,note_on,74,0,80
2,note_on,82,42,0
2,note_on,82,0,80
2,note_on,70,45,0
2,note_on,70,0,80
2,note_on,82,42,0
2,note_on,82,0,80
2,note_on,66,50,0
2,note_on,66,0,80
2,note_on,81,42,0
2,note_on,81,0,80
2,note_on,69,45,0
2,note_on,69,0,80
2,note_on,81,45,0
2,note_on,81,0,80
2,note_on,74,45,0
2,note_on,74,0,80
2,note_on,81,42,0
2,note_on,81,0,80
2,note_on,66,50,0
2,note_on,66,0,80
2,note_on,81,43,0
2,note_on,81,0,80
2,note_on,69,45,0
2,note_on,69,0,80
2,note_on,81,42,0
2,note_on,81,0,80
2,note_on,75,45,0
2,note_on,75,0,80
2,note_on,81,42,0
2,note_on,81,0,80
2,note_on,67,50,0
2,note_on,67,0,80
2,note_on,79,42,0
2,note_on,79,0,80
2,note_on,70,45,0
2,note_on,70,0,80
2,note_on,79,42,0
2,note_on,79,0,80
2,note_on,74,45,0
2,note_on,74,0,80
2,note_on,79,42,0
2,note_on,79,0,80
2,note_on,66,50,0
2,note_on,66,0,80
2,note_on,78,42,0
2,note_on,78,0,80
2,note_on,69,45,0
2,note_on,69,0,80
2,note_on,78,43,0
2,note_on,78,0,80
2,note_on,74,45,0
2,note_on,74,0,80
2,note_on,78,41,0
2,note_on,78,0,80
2,note_on,77,46,80
2,note_on,77,0,80
2,note_on,68,50,0
2,note_on,68,0,80
2,note_on,77,43,0
2,note_on,77,0,80
2,note_on,71,45,0
2,note_on,71,0,80
2,note_on,77,41,0
2,note_on,77,0,80
2,note_on,74,50,0
2,note_on,74,0,80
2,note_on,77,42,0
2,note_on,77,0,80
2,note_on,71,45,0
2,note_on,71,0,80
2,note_on,77,42,0
2,note_on,77,0,80
2,note_on,68,45,0
2,note_on,68,0,80
2,note_on,77,42,0
2,note_on,77,0,80
2,note_on,76,42,80
2,note_on,76,0,80
2,note_on,67,45,0
2,note_on,67,0,80
2,note_on,76,45,0
2,note_on,76,0,80
2,note_on,72,45,0
2,note_on,72,0,80
2,note_on,76,42,0
2,note_on,76,0,80
2,note_on,75,43,80
2,note_on,75,0,80
2,note_on,67,45,0
2,note_on,67,0,80
2,note_on,75,42,0
2,note_on,75,0,80
2,note_on,72,45,0
2,note_on,72,0,80
2,note_on,75,42,0
2,note_on,75,0,80
2,note_on,74,42,80
2,note_on,74,0,80
2,note_on,67,45,0
2,note_on,67,0,80
2,note_on,74,42,0
2,note_on,74,0,80
2,note_on,71,45,0
2,note_on,71,0,80
2,note_on,74,42,0
2,note_on,74,0,80
2,note_on,75,42,80
2,note_on,75,0,80
2,note_on,67,45,0
2,note_on,67,0,80
2,note_on,75,43,0
2,note_on,75,0,80
2,note_on,72,45,0
2,note_on,72,0,80
2,note_on,75,41,0
2,note_on,75,0,80
2,note_on,75,46,80
2,note_on,75,0,80
2,note_on,67,50,0
2,note_on,67,0,80
2,note_on,75,43,0
2,note_on,75,0,80
2,note_on,68,45,0
2,note_on,68,0,80
2,note_on,75,41,0
2,note_on,75,0,80
2,note_on,72,50,0
2,note_on,72,0,80
2,note_on,75,42,0
2,note_on,75,0,80
2,note_on,67,45,0
2,note_on,67,0,80
2,note_on,75,42,0
2,note_on,75,0,80
2,note_on,68,45,0
2,note_on,68,0,80
2,note_on,75,42,0
2,note_on,75,0,80
2,note_on,75,42,80
2,note_on,75,0,80
2,note_on,68,45,0
2,note_on,68,0,80
2,note_on,75,45,0
2,note_on,75,0,80
2,note_on,69,45,0
2,note_on,69,0,80
2,note_on,75,42,0
2,note_on,75,0,80
2,note_on,72,42,0
2,note_on,72,0,80
2,note_on,75,43,0
2,note_on,75,0,80
2,note_on,68,45,0
2,note_on,68,0,80
2,note_on,75,42,0
2,note_on,75,0,80
2,note_on,69,45,0
2,note_on,69,0,80
2,note_on,75,42,0
2,note_on,75,0,80
2,note_on,74,42,80
2,note_on,74,0,80
2,note_on,69,45,0
2,note_on,69,0,80
2,note_on,74,42,0
2,note_on,74,0,80
2,note_on,70,45,0
2,note_on,70,0,80
2,note_on,74,42,0
2,note_on,74,0,80
2,note_on,71,42,0
2,note_on,71,0,80
2,note_on,74,42,0
2,note_on,74,0,80
2,note_on,67,45,0
2,note_on,67,0,80
2,note_on,74,43,0
2,note_on,74,0,80
2,note_on,68,45,0
2,note_on,68,0,80
2,note_on,74,41,0
2,note_on,74,0,80
2,note_on,74,42,80
2,note_on,74,0,80
2,note_on,67,45,0
2,note_on,67,0,80
2,note_on,74,42,0
2,note_on,74,0,80
2,note_on,69,45,0
2,note_on,69,0,80
2,note_on,74,42,0
2,note_on,74,0,80
2,note_on,70,42,0
2,note_on,70,0,80
2,note_on,73,42,0
2,note_on,73,0,80
2,note_on,66,45,0
2,note_on,66,0,80
2,note_on,73,43,0
2,note_on,73,0,80
2,note_on,67,45,0
2,note_on,67,0,80
2,note_on,73,41,0
2,note_on,73,0,80
2,note_on,74,39,80
2,note_on,74,0,80
2,note_on,66,42,0
2,note_on,66,0,80
2,note_on,74,39,0
2,note_on,74,0,80
2,note_on,67,41,0
2,note_on,67,0,80
2,note_on,74,38,0
2,note_on,74,0,80
2,note_on,70,37,80
2,note_on,70,0,80
2,note_on,61,40,0
2,note_on,61,0,80
2,note_on,70,38,0
2,note_on,70,0,80
2,note_on,62,39,0
2,note_on,62,0,80
2,note_on,70,36,0
2,note_on,70,0,80
2,note_on,72,36,80
2,note_on,72,0,80
2,note_on,63,38,0
2,note_on,63,0,80
2,note_on,72,36,0
2,note_on,72,0,80
2,note_on,62,37,0
2,note_on,62,0,80
2,note_on,72,35,0
2,note_on,72,0,80
2,note_on,69,35,80
2,note_on,69,0,80
2,note_on,63,36,0
2,note_on,63,0,80
2,note_on,69,35,0
2,note_on,69,0,80
2,note_on,62,36,0
2,note_on,62,0,80
2,note_on,69,33,0
2,note_on,69,0,80
2,note_on,67,30,80
2,note_on,70,36,0
2,note_on,70,0,80
2,note_on,67,0,0
2,note_on,61,38,0
2,note_on,61,0,80
2,note_on,67,29,0
2,note_on,70,36,0
2,note_on,70,0,80
2,note_on,67,0,0
2,note_on,62,37,0
2,note_on,62,0,80
2,note_on,67,29,0
2,note_on,70,36,0
2,note_on,70,0,80
2,note_on,67,0,0
2,note_on,70,30,80
2,note_on,74,36,0
2,note_on,74,0,80
2,note_on,70,0,0
2,note_on,66,43,0
2,note_on,66,0,80
2,note_on,70,28,0
2,note_on,74,36,0
2,note_on,74,0,80
2,note_on,70,0,0
2,note_on,67,43,0
2,note_on,67,0,80
2,note_on,70,31,0
2,note_on,74,36,0
2,note_on,74,0,80
2,note_on,70,0,0
2,note_on,67,34,80
2,note_on,70,39,0
2,note_on,70,0,80
2,note_on,67,0,0
2,note_on,61,42,0
2,note_on,61,0,80
2,note_on,67,33,0
2,note_on,70,40,0
2,note_on,70,0,80
2,note_on,67,0,0
2,note_on,62,42,0
2,note_on,62,0,80
2,note_on,67,33,0
2,note_on,70,39,0
2,note_on,70,0,80
2,note_on,67,0,0
2,note_on,70,34,80
2,note_on,74,41,0
2,note_on,74,0,80
2,note_on,70,0,0
2,note_on,66,47,0
2,note_on,66,0,80
2,note_on,70,32,0
2,note_on,74,41,0
2,note_on,74,0,80
2,note_on,70,0,0
2,note_on,67,49,0
2,note_on,67,0,80
2,note_on,70,34,0
2,note_on,74,40,0
2,note_on,74,0,80
2,note_on,70,0,0
2,note_on,71,36,80
2,note_on,74,43,0
2,note_on,74,0,80
2,note_on,71,0,0
2,note_on,66,47,0
2,note_on,66,0,80
2,note_on,71,36,0
2,note_on,74,45,0
2,note_on,74,0,80
2,note_on,71,0,0
2,note_on,67,46,0
2,note_on,67,0,80
2,note_on,71,37,0
2,note_on,74,44,0
2,note_on,74,0,80
2,note_on,71,0,0
2,note_on,74,37,80
2,note_on,77,45,0
2,note_on,77,0,80
2,note_on,74,0,0
2,note_on,68,50,0
2,note_on,68,0,80
2,note_on,74,36,0
2,note_on,77,45,0
2,note_on,77,0,80
2,note_on,74,0,0
2,note_on,67,51,0
2,note_on,67,0,80
2,note_on,74,37,0
2,note_on,77,45,0
2,note_on,77,0,80
2,note_on,74,0,0
2,note_on,75,41,80
2,note_on,79,49,0
2,note_on,79,0,80
2,note_on,75,0,0
2,note_on,71,52,0
2,note_on,71,0,80
2,note_on,75,40,0
2,note_on,79,49,0
2,note_on,79,0,80
2,note_on,75,0,0
2,note_on,72,50,0
2,note_on,72,0,80
2,note_on,75,39,0
2,note_on,79,46,0
2,note_on,79,0,80
2,note_on,75,0,0
2,note_on,72,39,80
2,note_on,75,46,0
2,note_on,75,0,80
2,note_on,72,0,0
2,note_on,66,51,0
2,note_on,66,0,80
2,note_on,72,36,0
2,note_on,75,45,0
2,note_on,75,0,80
2,note_on,72,0,0
2,note_on,67,51,0
2,note_on,67,0,80
2,note_on,72,37,0
2,note_on,75,45,0
2,note_on,75,0,80
2,note_on,72,0,0
2,note_on,70,37,80
2,note_on,74,45,0
2,note_on,74,0,80
2,note_on,70,0,0
2,note_on,66,48,0
2,note_on,66,0,80
2,note_on,70,36,0
2,note_on,74,44,0
2,note_on,74,0,80
2,note_on,70,0,0
2,note_on,67,45,0
2,note_on,67,0,80
2,note_on,70,36,0
2,note_on,74,42,0
2,note_on,74,0,80
2,note_on,70,0,0
2,note_on,67,34,80
2,note_on,70,41,0
2,note_on,70,0,80
2,note_on,67,0,0
2,note_on,61,46,0
2,note_on,61,0,80
2,note_on,67,32,0
2,note_on,70,41,0
2,note_on,70,0,80
2,note_on,67,0,0
2,note_on,62,45,0
2,note_on,62,0,80
2,note_on,67,32,0
2,note_on,70,38,0
2,note_on,70,0,80
2,note_on,67,0,0
2,note_on,69,34,80
2,note_on,72,40,0
2,note_on,72,0,80
2,note_on,69,0,0
2,note_on,63,42,0
2,note_on,63,0,80
2,note_on,69,32,0
2,note_on,72,39,0
2,note_on,72,0,80
2,note_on,69,0,0
2,note_on,62,40,0
2,note_on,62,0,80
2,note_on,69,30,0
2,note_on,72,36,0
2,note_on,72,0,80
2,note_on,69,0,0
2,note_on,66,30,80
2,note_on,69,36,0
2,note_on,69,0,80
2,note_on,66,0,0
2,note_on,63,42,0
2,note_on,63,0,80
2,note_on,66,27,0
2,note_on,69,36,0
2,note_on,69,0,80
2,note_on,66,0,0
2,note_on,62,41,0
2,note_on,62,0,80
2,note_on,66,28,0
2,note_on,69,34,0
2,note_on,69,0,80
2,note_on,66,0,0
2,note_on,67,30,80
2,note_on,70,36,0
2,note_on,70,0,80
2,note_on,67,0,0
2,note_on,61,38,0
2,note_on,61,0,80
2,note_on,67,29,0
2,note_on,70,36,0
2,note_on,70,0,80
2,note_on,67,0,0
2,note_on,62,37,0
2,note_on,62,0,80
2,note_on,67,29,0
2,note_on,70,36,0
2,note_on,70,0,80
2,note_on,67,0,0
2,note_on,70,30,80
2,note_on,74,36,0
2,note_on,74,0,80
2,note_on,70,0,0
2,note_on,66,43,0
2,note_on,66,0,80
2,note_on,70,28,0
2,note_on,74,36,0
2,note_on,74,0,80
2,note_on,70,0,0
2,note_on,67,43,0
2,note_on,67,0,80
2,note_on,70,31,0
2,note_on,74,36,0
2,note_on,74,0,80
2,note_on,70,0,0
2,note_on,67,34,80
2,note_on,70,39,0
2,note_on,70,0,80
2,note_on,67,0,0
2,note_on,61,42,0
2,note_on,61,0,80
2,note_on,67,33,0
2,note_on,70,40,0
2,note_on,70,0,80
2,note_on,67,0,0
2,note_on,62,42,0
2,note_on,62,0,80
2,note_on,67,33,0
2,note_on,70,39,0
2,note_on,70,0,80
2,note_on,67,0,0
2,note_on,70,34,80
2,note_on,74,41,0
2,note_on,74,0,80
2,note_on,70,0,0
2,note_on,66,46,0
2,note_on,66,0,80
2,note_on,70,32,0
2,note_on,74,41,0
2,note_on,74,0,80
2,note_on,70,0,0
2,note_on,67,47,0
2,note_on,67,0,80
2,note_on,70,34,0
2,note_on,74,40,0
2,note_on,74,0,80
2,note_on,70,0,0
2,note_on,71,36,80
2,note_on,74,43,0
2,note_on,74,0,80
2,note_on,71,0,0
2,note_on,66,47,0
2,note_on,66,0,80
2,note_on,71,36,0
2,note_on,74,45,0
2,note_on,74,0,80
2,note_on,71,0,0
2,note_on,67,46,0
2,note_on,67,0,80
2,note_on,71,37,0
2,note_on,74,44,0
2,note_on,74,0,80
2,note_on,71,0,0
2,note_on,74,37,80
2,note_on,77,45,0
2,note_on,77,0,80
2,note_on,74,0,0
2,note_on,68,50,0
2,note_on,68,0,80
2,note_on,74,36,0
2,note_on,77,45,0
2,note_on,77,0,80
2,note_on,74,0,0
2,note_on,67,52,0
2,note_on,67,0,80
2,note_on,74,37,0
2,note_on,77,45,0
2,note_on,77,0,80
2,note_on,74,0,0
2,note_on,75,41,80
2,note_on,79,49,0
2,note_on,79,0,80
2,note_on,75,0,0
2,note_on,71,52,0
2,note_on,71,0,80
2,note_on,75,40,0
2,note_on,79,49,0
2,note_on,79,0,80
2,note_on,75,0,0
2,note_on,72,50,0
2,note_on,72,0,80
2,note_on,75,39,0
2,note_on,79,46,0
2,note_on,79,0,80
2,note_on,75,0,0
2,note_on,72,39,80
2,note_on,75,46,0
2,note_on,75,0,80
2,note_on,72,0,0
2,note_on,66,52,0
2,note_on,66,0,80
2,note_on,72,36,0
2,note_on,75,45,0
2,note_on,75,0,80
2,note_on,72,0,0
2,note_on,67,50,0
2,note_on,67,0,80
2,note_on,72,37,0
2,note_on,75,45,0
2,note_on,75,0,80
2,note_on,72,0,0
2,note_on,70,37,80
2,note_on,74,45,0
2,note_on,74,0,80
2,note_on,70,0,0
2,note_on,66,48,0
2,note_on,66,0,80
2,note_on,70,36,0
2,note_on,74,44,0
2,note_on,74,0,80
2,note_on,70,0,0
2,note_on,67,45,0
2,note_on,67,0,80
2,note_on,70,36,0
2,note_on,74,42,0
2,note_on,74,0,80
2,note_on,70,0,0
2,note_on,67,34,80
2,note_on,70,41,0
2,note_on,70,0,80
2,note_on,67,0,0
2,note_on,61,47,0
2,note_on,61,0,80
2,note_on,67,32,0
2,note_on,70,41,0
2,note_on,70,0,80
2,note_on,67,0,0
2,note_on,62,47,0
2,note_on,62,0,80
2,note_on,67,32,0
2,note_on,70,38,0
2,note_on,70,0,80
2,note_on,67,0,0
2,note_on,69,34,80
2,note_on,72,40,0
2,note_on,72,0,80
2,note_on,69,0,0
2,note_on,63,42,0
2,note_on,63,0,80
2,note_on,69,32,0
2,note_on,72,39,0
2,note_on,72,0,80
2,note_on,69,0,0
2,note_on,62,40,0
2,note_on,62,0,80
2,note_on,69,30,0
2,note_on,72,36,0
2,note_on,72,0,80
2,note_on,69,0,0
2,note_on,66,30,80
2,note_on,69,36,0
2,note_on,69,0,80
2,note_on,66,0,0
2,note_on,63,42,0
2,note_on,63,0,80
2,note_on,66,27,0
2,note_on,69,36,0
2,note_on,69,0,80
2,note_on,66,0,0
2,note_on,62,41,0
2,note_on,62,0,80
2,note_on,66,28,0
2,note_on,69,34,0
2,note_on,69,0,80
2,note_on,66,0,0
2,note_on,59,63,8640
2,note_on,67,63,0
2,note_on,67,0,80
2,note_on,59,0,0
2,note_on,71,51,0
2,note_on,71,0,80
2,note_on,59,54,0
2,note_on,67,54,0
2,note_on,67,0,80
2,note_on,59,0,0
2,note_on,71,49,0
2,note_on,71,0,80
2,note_on,59,54,0
2,note_on,67,54,0
2,note_on,67,0,80
2,note_on,59,0,0
2,note_on,71,50,0
2,note_on,71,0,80
2,note_on,59,62,0
2,note_on,59,0,80
2,note_on,71,50,0
2,note_on,71,0,80
2,note_on,59,54,0
2,note_on,67,54,0
2,note_on,67,0,80
2,note_on,59,0,0
2,note_on,71,50,0
2,note_on,71,0,80
2,note_on,59,54,0
2,note_on,67,54,0
2,note_on,67,0,80
2,note_on,59,0,0
2,note_on,71,50,0
2,note_on,71,0,80
2,note_on,59,63,0
2,note_on,67,63,0
2,note_on,67,0,80
2,note_on,59,0,0
2,note_on,71,50,0
2,note_on,71,0,80
2,note_on,59,54,0
2,note_on,67,54,0
2,note_on,67,0,80
2,note_on,59,0,0
2,note_on,71,52,0
2,note_on,71,0,80
2,note_on,59,55,0
2,note_on,67,55,0
2,note_on,67,0,80
2,note_on,59,0,0
2,note_on,71,51,0
2,note_on,71,0,80
2,note_on,59,64,0
2,note_on,67,64,0
2,note_on,67,0,80
2,note_on,59,0,0
2,note_on,71,52,0
2,note_on,71,0,80
2,note_on,59,56,0
2,note_on,67,56,0
2,note_on,67,0,80
2,note_on,59,0,0
2,note_on,71,51,0
2,note_on,71,0,80
2,note_on,59,56,0
2,note_on,67,56,0
2,note_on,67,0,80
2,note_on,59,0,0
2,note_on,71,53,0
2,note_on,71,0,80
2,note_on,59,65,0
2,note_on,67,65,0
2,note_on,67,0,80
2,note_on,59,0,0
2,note_on,71,53,0
2,note_on,71,0,80
2,note_on,59,56,0
2,note_on,67,56,0
2,note_on,67,0,80
2,note_on,59,0,0
2,note_on,71,52,0
2,note_on,71,0,80
2,note_on,59,57,0
2,note_on,67,57,0
2,note_on,67,0,80
2,note_on,59,0,0
2,note_on,71,53,0
2,note_on,71,0,80
2,note_on,67,64,0
2,note_on,67,0,80
2,note_on,71,53,0
2,note_on,71,0,80
2,note_on,59,57,0
2,note_on,67,57,0
2,note_on,67,0,80
2,note_on,59,0,0
2,note_on,71,54,0
2,note_on,71,0,80
2,note_on,59,57,0
2,note_on,67,57,0
2,note_on,67,0,80
2,note_on,59,0,0
2,note_on,71,54,0
2,note_on,71,0,80
2,note_on,59,54,80
2,note_on,59,0,80
2,note_on,55,59,0
2,note_on,55,0,80
2,note_on,59,54,0
2,note_on,59,0,80
2,note_on,55,59,0
2,note_on,55,0,80
2,note_on,59,54,0
2,note_on,59,0,80
2,note_on,55,66,0
2,note_on,55,0,80
2,note_on,59,55,0
2,note_on,59,0,80
2,note_on,55,59,0
2,note_on,55,0,80
2,note_on,59,55,0
2,note_on,59,0,80
2,note_on,55,60,0
2,note_on,55,0,80
2,note_on,59,54,0
2,note_on,59,0,80
2,note_on,55,68,0
2,note_on,55,0,80
2,note_on,59,55,0
2,note_on,59,0,80
2,note_on,55,60,0
2,note_on,55,0,80
2,note_on,59,54,0
2,note_on,59,0,80
2,note_on,55,60,0
2,note_on,55,0,80
2,note_on,59,55,0
2,note_on,59,0,80
2,note_on,55,70,0
2,note_on,55,0,80
2,note_on,59,55,0
2,note_on,59,0,80
2,note_on,55,61,0
2,note_on,55,0,80
2,note_on,59,56,0
2,note_on,59,0,80
2,note_on,55,62,0
2,note_on,55,0,80
2,note_on,59,56,0
2,note_on,59,0,80
2,note_on,55,70,0
2,note_on,55,0,80
2,note_on,59,56,0
2,note_on,59,0,80
2,note_on,55,62,0
2,note_on,55,0,80
2,note_on,59,56,0
2,note_on,59,0,80
2,note_on,55,62,0
2,note_on,55,0,80
2,note_on,59,57,0
2,note_on,59,0,80
2,note_on,55,72,0
2,note_on,55,0,80
2,note_on,59,58,0
2,note_on,59,0,80
2,note_on,55,63,0
2,note_on,55,0,80
2,note_on,59,57,0
2,note_on,59,0,80
2,note_on,55,63,0
2,note_on,55,0,80
2,note_on,59,59,0
2,note_on,59,0,80
3,note_on,31,80,0
3,note_on,31,0,440
3,note_on,34,55,0
3,note_on,34,0,60
3,note_on,38,58,0
3,note_on,38,0,60
3,note_on,43,61,0
3,note_on,43,0,60
3,note_on,46,63,0
3,note_on,46,0,60
3,note_on,50,66,0
3,note_on,50,0,60
3,note_on,55,68,0
3,note_on,55,0,60
3,note_on,58,68,0
3,note_on,58,0,60
3,note_on,62,71,0
3,note_on,62,0,60
3,note_on,67,77,0
3,note_on,67,0,369
3,note_on,66,60,0
3,note_on,66,0,60
3,note_on,63,61,0
3,note_on,63,0,60
3,note_on,62,62,0
3,note_on,62,0,60
3,note_on,60,62,0
3,note_on,60,0,60
3,note_on,58,63,0
3,note_on,58,0,60
3,note_on,57,63,0
3,note_on,57,0,60
3,note_on,55,63,0
3,note_on,55,0,60
3,note_on,54,64,0
3,note_on,54,0,60
3,note_on,51,63,0
3,note_on,51,0,60
3,note_on,50,63,0
3,note_on,50,0,60
3,note_on,48,64,0
3,note_on,48,0,60
3,note_on,46,64,0
3,note_on,46,0,60
3,note_on,45,65,0
3,note_on,45,0,60
3,note_on,43,66,0
3,note_on,43,0,60
3,note_on,42,67,0
3,note_on,42,0,60
3,note_on,39,68,0
3,note_on,39,0,60
3,note_on,38,69,0
3,note_on,38,0,60
3,note_on,36,70,0
3,note_on,36,0,60
3,note_on,34,70,0
3,note_on,34,0,60
3,note_on,33,71,0
3,note_on,33,0,60
3,note_on,31,74,0
3,note_on,31,0,640
3,note_on,34,54,0
3,note_on,34,0,80
3,note_on,38,55,0
3,note_on,38,0,80
3,note_on,43,56,0
3,note_on,43,0,80
3,note_on,46,58,0
3,note_on,46,0,80
3,note_on,50,59,0
3,note_on,50,0,80
3,note_on,55,60,0
3,note_on,55,0,80
3,note_on,58,62,0
3,note_on,58,0,80
3,note_on,62,63,0
3,note_on,62,0,80
3,note_on,67,64,0
3,note_on,67,0,80
3,note_on,70,65,0
3,note_on,70,0,80
3,note_on,74,67,0
3,note_on,74,0,80
3,note_on,79,75,0
3,note_on,79,0,334
3,note_on,78,50,0
3,note_on,78,0,60
3,note_on,75,51,0
3,note_on,75,0,60
3,note_on,74,51,0
3,note_on,74,0,60
3,note_on,72,52,0
3,note_on,72,0,60
3,note_on,70,52,0
3,note_on,70,0,60
3,note_on,69,53,0
3,note_on,69,0,60
3,note_on,67,54,0
3,note_on,67,0,60
3,note_on,66,54,0
3,note_on,66,0,60
3,note_on,63,54,0
3,note_on,63,0,60
3,note_on,62,54,0
3,note_on,62,0,60
3,note_on,60,55,0
3,note_on,60,0,60
3,note_on,58,56,0
3,note_on,58,0,60
3,note_on,57,56,0
3,note_on,57,0,60
3,note_on,55,57,0
3,note_on,55,0,60
3,note_on,54,57,0
3,note_on,54,0,60
3,note_on,51,58,0
3,note_on,51,0,60
3,note_on,50,58,0
3,note_on,50,0,60
3,note_on,48,59,0
3,note_on,48,0,60
3,note_on,46,60,0
3,note_on,46,0,60
3,note_on,45,60,0
3,note_on,45,0,60
3,note_on,43,61,0
3,note_on,43,0,60
3,note_on,42,61,0
3,note_on,42,0,60
3,note_on,39,62,0
3,note_on,39,0,60
3,note_on,38,63,0
3,note_on,38,0,60
3,note_on,36,63,0
3,note_on,36,0,60
3,note_on,34,63,0
3,note_on,34,0,60
3,note_on,33,63,0
3,note_on,33,0,60
3,note_on,38,64,0
3,note_on,38,0,60
3,note_on,36,64,0
3,note_on,36,0,60
3,note_on,31,73,0
3,note_on,34,73,0
3,note_on,34,0,517
3,note_on,31,0,0
3,note_on,38,54,0
3,note_on,38,0,60
3,note_on,43,55,0
3,note_on,43,0,60
3,note_on,46,56,0
3,note_on,46,0,60
3,note_on,50,58,0
3,note_on,50,0,60
3,note_on,55,59,0
3,note_on,55,0,60
3,note_on,58,60,0
3,note_on,58,0,60
3,note_on,62,62,0
3,note_on,62,0,60
3,note_on,67,63,0
3,note_on,67,0,60
3,note_on,70,64,0
3,note_on,70,0,60
3,note_on,74,65,0
3,note_on,74,0,60
3,note_on,79,64,0
3,note_on,79,0,60
3,note_on,82,66,0
3,note_on,82,0,60
3,note_on,86,68,0
3,note_on,86,0,60
3,note_on,91,75,0
3,note_on,91,0,423
3,note_on,87,50,0
3,note_on,87,0,60
3,note_on,86,50,0
3,note_on,86,0,60
3,note_on,84,50,0
3,note_on,84,0,60
3,note_on,82,51,0
3,note_on,82,0,60
3,note_on,81,51,0
3,note_on,81,0,60
3,note_on,79,52,0
3,note_on,79,0,60
3,note_on,78,52,0
3,note_on,78,0,60
3,note_on,75,53,0
3,note_on,75,0,60
3,note_on,74,54,0
3,note_on,74,0,60
3,note_on,72,54,0
3,note_on,72,0,60
3,note_on,70,54,0
3,note_on,70,0,60
3,note_on,69,54,0
3,note_on,69,0,60
3,note_on,67,55,0
3,note_on,67,0,60
3,note_on,66,56,0
3,note_on,66,0,60
3,note_on,63,56,0
3,note_on,63,0,60
3,note_on,62,57,0
3,note_on,62,0,60
3,note_on,60,57,0
3,note_on,60,0,60
3,note_on,58,58,0
3,note_on,58,0,60
3,note_on,57,58,0
3,note_on,57,0,60
3,note_on,55,59,0
3,note_on,55,0,60
3,note_on,54,60,0
3,note_on,54,0,60
3,note_on,51,60,0
3,note_on,51,0,60
3,note_on,50,61,0
3,note_on,50,0,60
3,note_on,48,61,0
3,note_on,48,0,60
3,note_on,46,62,0
3,note_on,46,0,60
3,note_on,45,61,0
3,note_on,45,0,60
3,note_on,43,62,0
3,note_on,43,0,60
3,note_on,42,63,0
3,note_on,42,0,60
3,note_on,39,63,0
3,note_on,39,0,60
3,note_on,38,65,0
3,note_on,38,0,60
3,note_on,36,66,0
3,note_on,36,0,60
3,note_on,31,73,0
3,note_on,34,73,0
3,note_on,34,0,426
3,note_on,31,0,0
3,note_on,35,43,0
3,note_on,35,0,60
3,note_on,36,44,0
3,note_on,36,0,60
3,note_on,37,44,0
3,note_on,37,0,60
3,note_on,38,45,0
3,note_on,38,0,60
3,note_on,39,45,0
3,note_on,39,0,60
3,note_on,40,46,0
3,note_on,40,0,60
3,note_on,41,46,0
3,note_on,41,0,60
3,note_on,42,47,0
3,note_on,42,0,60
3,note_on,43,48,0
3,note_on,43,0,60
3,note_on,44,49,0
3,note_on,44,0,60
3,note_on,45,49,0
3,note_on,45,0,60
3,note_on,46,50,0
3,note_on,46,0,60
3,note_on,47,51,0
3,note_on,47,0,60
3,note_on,48,52,0
3,note_on,48,0,60
3,note_on,49,52,0
3,note_on,49,0,60
3,note_on,50,53,0
3,note_on,50,0,60
3,note_on,51,54,0
3,note_on,51,0,60
3,note_on,52,54,0
3,note_on,52,0,60
3,note_on,53,54,0
3,note_on,53,0,60
3,note_on,54,55,0
3,note_on,54,0,60
3,note_on,55,56,0
3,note_on,55,0,60
3,note_on,56,57,0
3,note_on,56,0,60
3,note_on,57,57,0
3,note_on,57,0,60
3,note_on,58,53,0
3,note_on,58,0,60
3,note_on,57,53,0
3,note_on,57,0,60
3,note_on,56,52,0
3,note_on,56,0,60
3,note_on,55,51,0
3,note_on,55,0,60
3,note_on,54,51,0
3,note_on,54,0,60
3,note_on,53,50,0
3,note_on,53,0,60
3,note_on,52,49,0
3,note_on,52,0,60
3,note_on,51,49,0
3,note_on,51,0,60
3,note_on,50,46,0
3,note_on,50,0,60
3,note_on,49,47,0
3,note_on,49,0,60
3,note_on,48,48,0
3,note_on,48,0,60
3,note_on,47,50,0
3,note_on,47,0,60
3,note_on,46,51,0
3,note_on,46,0,60
3,note_on,45,53,0
3,note_on,45,0,60
3,note_on,44,54,0
3,note_on,44,0,60
3,note_on,43,55,0
3,note_on,43,0,60
3,note_on,42,59,0
3,note_on,42,0,60
3,note_on,41,60,0
3,note_on,41,0,60
3,note_on,40,62,0
3,note_on,40,0,60
3,note_on,39,63,0
3,note_on,39,0,60
3,note_on,38,64,0
3,note_on,38,0,60
3,note_on,37,66,0
3,note_on,37,0,60
3,note_on,36,67,0
3,note_on,36,0,60
3,note_on,35,69,0
3,note_on,35,0,60
3,note_on,31,79,0
3,note_on,34,79,0
3,note_on,34,0,120
3,note_on,31,0,0
3,note_on,67,76,311
3,note_on,62,63,0
3,note_on,58,63,0
3,note_on,55,54,0
3,note_on,55,0,78
3,note_on,67,0,0
3,note_on,62,0,0
3,note_on,58,0,0
3,note_on,62,50,2146
3,note_on,62,0,1440
3,note_on,67,56,0
3,note_on,67,0,480
3,note_on,66,54,0
3,note_on,66,0,480
3,note_on,63,54,0
3,note_on,63,0,480
3,note_on,62,50,0
3,note_on,62,0,1440
3,note_on,62,56,0
3,note_on,62,0,480
3,note_on,60,54,0
3,note_on,60,0,480
3,note_on,58,54,0
3,note_on,58,0,480
3,note_on,57,50,0
3,note_on,57,0,1440
3,note_on,60,72,0
3,note_on,60,0,480
3,note_on,57,67,0
3,note_on,57,0,480
3,note_on,55,61,0
3,note_on,55,0,480
3,note_on,58,60,0
3,note_on,58,0,960
3,note_on,57,48,0
3,note_on,57,0,480
3,note_on,57,56,0
3,note_on,57,0,480
3,note_on,55,54,0
3,note_on,55,0,480
3,note_on,54,54,0
3,note_on,54,0,480
3,note_on,62,50,0
3,note_on,62,0,1440
3,note_on,62,68,0
3,note_on,62,0,480
3,note_on,63,72,0
3,note_on,63,0,480
3,note_on,60,66,0
3,note_on,63,66,0
3,note_on,63,0,480
3,note_on,60,0,0
3,note_on,60,61,0
3,note_on,63,61,0
3,note_on,63,0,1440
3,note_on,60,0,0
3,note_on,60,56,0
3,note_on,63,56,0
3,note_on,63,0,480
3,note_on,60,0,0
3,note_on,62,54,0
3,note_on,62,0,480
3,note_on,62,54,0
3,note_on,62,0,480
3,note_on,60,50,0
3,note_on,60,0,1440
3,note_on,61,72,0
3,note_on,61,0,480
3,note_on,60,67,0
3,note_on,60,0,480
3,note_on,58,61,0
3,note_on,58,0,480
3,note_on,60,61,0
3,note_on,60,0,480
3,note_on,65,64,0
3,note_on,65,0,480
3,note_on,65,63,0
3,note_on,65,0,480
3,note_on,60,66,0
3,note_on,60,0,480
3,note_on,62,67,0
3,note_on,62,0,480
3,note_on,65,67,0
3,note_on,65,0,480
3,note_on,65,69,0
3,note_on,65,0,480
3,note_on,66,74,0
3,note_on,66,0,480
3,note_on,67,72,0
3,note_on,67,0,480
3,note_on,67,75,0
3,note_on,67,0,480
3,note_on,65,70,1920
3,note_on,65,0,960
3,note_on,65,63,0
3,note_on,65,0,960
3,note_on,46,50,0
3,note_on,58,50,0
3,note_on,58,0,1400
3,note_on,46,0,0
3,note_on,46,45,0
3,note_on,53,43,20
3,note_on,62,51,20
3,note_on,62,0,440
3,note_on,53,0,0
3,note_on,46,0,0
3,note_on,46,47,0
3,note_on,63,56,40
3,note_on,63,0,440
3,note_on,46,0,0
3,note_on,46,50,0
3,note_on,63,61,40
3,note_on,63,0,440
3,note_on,46,0,0
3,note_on,45,54,0
3,note_on,63,63,40
3,note_on,63,0,920
3,note_on,45,0,0
3,note_on,46,51,0
3,note_on,62,61,40
3,note_on,62,0,440
3,note_on,46,0,0
3,note_on,46,44,0
3,note_on,53,44,20
3,note_on,62,48,20
3,note_on,62,0,440
3,note_on,53,0,0
3,note_on,46,0,0
3,note_on,46,46,0
3,note_on,63,55,40
3,note_on,63,0,440
3,note_on,46,0,0
3,note_on,46,54,0
3,note_on,63,62,40
3,note_on,63,0,440
3,note_on,46,0,0
3,note_on,45,54,0
3,note_on,63,63,40
3,note_on,63,0,920
3,note_on,45,0,0
3,note_on,46,51,0
3,note_on,62,61,40
3,note_on,62,0,480
3,note_on,46,0,0
3,note_on,56,52,0
3,note_on,58,61,0
3,note_on,58,0,480
3,note_on,56,0,0
3,note_on,58,61,0
3,note_on,58,0,480
3,note_on,58,50,0
3,note_on,60,63,0
3,note_on,60,0,480
3,note_on,58,0,0
3,note_on,60,63,0
3,note_on,60,0,478
3,note_on,62,66,482
3,note_on,62,0,480
3,note_on,65,69,480
3,note_on,65,0,478
3,note_on,70,72,482
3,note_on,70,0,478
3,note_on,70,61,482
3,note_on,72,76,0
3,note_on,72,0,480
3,note_on,70,0,0
3,note_on,79,78,480
3,note_on,79,0,480
3,note_on,77,76,480
3,note_on,77,0,480
3,note_on,70,70,480
3,note_on,70,0,480
3,note_on,57,61,960
3,note_on,57,0,480
3,note_on,58,60,0
3,note_on,58,0,480
3,note_on,57,58,0
3,note_on,57,0,480
3,note_on,56,57,0
3,note_on,56,0,480
3,note_on,55,55,0
3,note_on,55,0,480
3,note_on,54,54,0
3,note_on,54,0,480
3,note_on,53,53,0
3,note_on,53,0,480
3,note_on,53,53,0
3,note_on,53,0,960
3,note_on,53,50,0
3,note_on,53,0,960
3,note_on,54,50,0
3,note_on,54,0,960
3,note_on,31,50,0
3,note_on,35,50,0
3,note_on,38,50,0
3,note_on,43,60,0
3,note_on,43,0,960
3,note_on,31,0,0
3,note_on,35,0,0
3,note_on,38,0,0
3,note_on,27,55,3360
3,note_on,39,66,0
3,note_on,39,0,480
3,note_on,27,0,0
3,note_on,29,56,0
3,note_on,41,67,0
3,note_on,41,0,480
3,note_on,29,0,0
3,note_on,30,57,0
3,note_on,42,69,0
3,note_on,42,0,240
3,note_on,30,0,0
3,note_on,31,58,120
3,note_on,31,0,30
3,note_on,35,62,0
3,note_on,35,0,30
3,note_on,38,66,0
3,note_on,38,0,30
3,note_on,43,70,0
3,note_on,43,0,30
3,note_on,71,80,0
3,note_on,74,80,0
3,note_on,74,0,1440
3,note_on,71,0,0
3,note_on,53,74,0
3,note_on,53,0,120
3,note_on,51,75,360
3,note_on,51,0,120
3,note_on,44,76,360
3,note_on,44,0,120
3,note_on,43,77,360
3,note_on,43,0,120
3,note_on,41,77,360
3,note_on,41,0,120
3,note_on,39,79,360
3,note_on,39,0,120
3,note_on,38,80,360
3,note_on,38,0,120
3,note_on,36,81,360
3,note_on,36,0,480
3,note_on,34,81,0
3,note_on,34,0,160
3,note_on,33,79,320
3,note_on,40,79,0
3,note_on,45,79,0
3,note_on,45,0,240
3,note_on,40,0,0
3,note_on,33,0,0
3,note_on,29,55,4080
3,note_on,41,66,0
3,note_on,41,0,480
3,note_on,29,0,0
3,note_on,31,56,0
3,note_on,43,67,0
3,note_on,43,0,480
3,note_on,31,0,0
3,note_on,32,57,0
3,note_on,44,69,0
3,note_on,44,0,240
3,note_on,32,0,0
3,note_on,33,58,120
3,note_on,33,0,30
3,note_on,37,62,0
3,note_on,37,0,30
3,note_on,40,66,0
3,note_on,40,0,30
3,note_on,45,70,0
3,note_on,45,0,30
3,note_on,73,80,0
3,note_on,76,80,0
3,note_on,76,0,1440
3,note_on,73,0,0
3,note_on,55,74,0
3,note_on,55,0,120
3,note_on,53,75,360
3,note_on,53,0,120
3,note_on,46,76,360
3,note_on,46,0,120
3,note_on,45,77,360
3,note_on,45,0,120
3,note_on,43,78,360
3,note_on,43,0,120
3,note_on,41,80,360
3,note_on,41,0,120
3,note_on,40,81,360
3,note_on,40,0,120
3,note_on,38,82,360
3,note_on,38,0,159
3,note_on,37,84,321
3,note_on,37,0,160
3,note_on,36,79,260
3,note_on,36,0,30
3,note_on,48,79,0
3,note_on,48,0,30
3,note_on,60,92,0
3,note_on,35,79,900
3,note_on,35,0,30
3,note_on,47,79,0
3,note_on,47,0,30
3,note_on,60,0,0
3,note_on,59,92,0
3,note_on,59,0,480
3,note_on,60,75,0
3,note_on,72,75,0
3,note_on,72,0,480
3,note_on,60,0,0
3,note_on,59,79,0
3,note_on,71,79,0
3,note_on,71,0,480
3,note_on,59,0,0
3,note_on,57,82,0
3,note_on,69,82,0
3,note_on,69,0,480
3,note_on,57,0,0
3,note_on,64,82,0
3,note_on,64,0,480
3,note_on,63,84,0
3,note_on,63,0,480
3,note_on,62,83,0
3,note_on,62,0,480
3,note_on,61,82,0
3,note_on,61,0,480
3,note_on,60,81,0
3,note_on,60,0,480
3,note_on,59,81,0
3,note_on,59,0,420
3,note_on,37,79,0
3,note_on,37,0,30
3,note_on,49,79,0
3,note_on,49,0,30
3,note_on,61,92,0
3,note_on,36,79,900
3,note_on,36,0,30
3,note_on,48,79,0
3,note_on,48,0,30
3,note_on,61,0,0
3,note_on,60,92,0
3,note_on,60,0,480
3,note_on,61,75,0
3,note_on,73,75,0
3,note_on,73,0,480
3,note_on,61,0,0
3,note_on,60,79,0
3,note_on,72,79,0
3,note_on,72,0,480
3,note_on,60,0,0
3,note_on,58,82,0
3,note_on,70,82,0
3,note_on,70,0,480
3,note_on,58,0,0
3,note_on,65,82,0
3,note_on,65,0,480
3,note_on,64,84,0
3,note_on,64,0,480
3,note_on,63,83,0
3,note_on,63,0,480
3,note_on,62,82,0
3,note_on,62,0,480
3,note_on,61,81,0
3,note_on,61,0,480
3,note_on,60,81,0
3,note_on,39,79,420
3,note_on,39,0,30
3,note_on,51,79,0
3,note_on,51,0,30
3,note_on,60,0,0
3,note_on,63,92,0
3,note_on,38,79,900
3,note_on,38,0,30
3,note_on,50,79,0
3,note_on,50,0,30
3,note_on,63,0,0
3,note_on,62,92,0
3,note_on,62,0,480
3,note_on,63,75,0
3,note_on,75,75,0
3,note_on,75,0,480
3,note_on,63,0,0
3,note_on,62,79,0
3,note_on,74,79,0
3,note_on,74,0,480
3,note_on,62,0,0
3,note_on,60,82,0
3,note_on,72,82,0
3,note_on,72,0,480
3,note_on,60,0,0
3,note_on,59,75,0
3,note_on,67,82,0
3,note_on,67,0,480
3,note_on,59,0,0
3,note_on,65,84,0
3,note_on,65,0,480
3,note_on,63,83,0
3,note_on,63,0,480
3,note_on,60,82,0
3,note_on,60,0,480
3,note_on,63,81,0
3,note_on,63,0,480
3,note_on,60,81,0
3,note_on,60,0,480
3,note_on,57,75,0
3,note_on,65,82,0
3,note_on,65,0,480
3,note_on,57,0,0
3,note_on,63,84,0
3,note_on,63,0,480
3,note_on,62,83,0
3,note_on,62,0,480
3,note_on,58,82,0
3,note_on,58,0,480
3,note_on,62,81,0
3,note_on,62,0,480
3,note_on,58,81,0
3,note_on,58,0,480
3,note_on,55,75,0
3,note_on,63,82,0
3,note_on,63,0,480
3,note_on,55,0,0
3,note_on,62,84,0
3,note_on,62,0,480
3,note_on,60,83,0
3,note_on,60,0,480
3,note_on,57,82,0
3,note_on,57,0,480
3,note_on,60,81,0
3,note_on,60,0,480
3,note_on,57,81,0
3,note_on,57,0,480
3,note_on,54,75,0
3,note_on,62,82,0
3,note_on,62,0,480
3,note_on,54,0,0
3,note_on,60,84,0
3,note_on,60,0,480
3,note_on,58,83,0
3,note_on,58,0,480
3,note_on,62,82,0
3,note_on,62,0,480
3,note_on,62,81,0
3,note_on,62,0,480
3,note_on,61,81,0
3,note_on,61,0,480
3,note_on,38,79,0
3,note_on,45,79,0
3,note_on,50,79,0
3,note_on,50,0,480
3,note_on,45,0,0
3,note_on,38,0,0
3,note_on,50,71,0
3,note_on,62,71,0
3,note_on,62,0,420
3,note_on,50,0,0
3,note_on,55,61,0
3,note_on,62,68,30
3,note_on,70,72,30
3,note_on,70,0,420
3,note_on,62,0,0
3,note_on,55,0,0
3,note_on,58,62,0
3,note_on,67,67,30
3,note_on,74,73,30
3,note_on,74,0,158
3,note_on,67,0,262
3,note_on,58,0,0
3,note_on,57,48,0
3,note_on,62,54,20
3,note_on,66,61,20
3,note_on,72,66,20
3,note_on,72,0,158
3,note_on,57,0,262
3,note_on,62,0,0
3,note_on,66,0,0
3,note_on,55,55,0
3,note_on,62,62,30
3,note_on,70,68,30
3,note_on,70,0,158
3,note_on,62,0,262
3,note_on,55,0,0
3,note_on,54,56,0
3,note_on,62,60,30
3,note_on,69,66,30
3,note_on,69,0,158
3,note_on,62,0,262
3,note_on,54,0,0
3,note_on,51,54,0
3,note_on,62,59,30
3,note_on,67,65,30
3,note_on,67,0,158
3,note_on,62,0,262
3,note_on,51,0,0
3,note_on,50,54,0
3,note_on,57,57,30
3,note_on,66,63,30
3,note_on,66,0,158
3,note_on,57,0,262
3,note_on,50,0,0
3,note_on,48,42,0
3,note_on,54,46,20
3,note_on,57,51,20
3,note_on,63,62,20
3,note_on,63,0,158
3,note_on,48,0,262
3,note_on,54,0,0
3,note_on,57,0,0
3,note_on,46,48,0
3,note_on,55,53,30
3,note_on,62,58,30
3,note_on,62,0,158
3,note_on,55,0,262
3,note_on,46,0,0
3,note_on,43,50,0
3,note_on,50,52,30
3,note_on,58,59,30
3,note_on,58,0,158
3,note_on,50,0,262
3,note_on,43,0,0
3,note_on,42,47,0
3,note_on,50,50,30
3,note_on,57,55,30
3,note_on,57,0,158
3,note_on,50,0,262
3,note_on,42,0,0
3,note_on,39,44,0
3,note_on,50,48,30
3,note_on,55,54,30
3,note_on,55,0,158
3,note_on,50,0,262
3,note_on,39,0,0
3,note_on,38,43,0
3,note_on,45,45,30
3,note_on,54,50,30
3,note_on,54,0,158
3,note_on,45,0,262
3,note_on,38,0,0
3,note_on,36,32,0
3,note_on,42,36,20
3,note_on,45,39,20
3,note_on,51,47,20
3,note_on,51,0,158
3,note_on,36,0,262
3,note_on,42,0,0
3,note_on,45,0,0
3,note_on,34,31,0
3,note_on,43,34,30
3,note_on,50,44,30
3,note_on,50,0,158
3,note_on,43,0,262
3,note_on,34,0,0
3,note_on,33,28,0
3,note_on,38,31,20
3,note_on,42,36,20
3,note_on,48,43,20
3,note_on,48,0,420
3,note_on,33,0,0
3,note_on,38,0,0
3,note_on,42,0,0
3,note_on,31,34,0
3,note_on,38,37,30
3,note_on,46,44,30
3,note_on,46,0,480
3,note_on,38,0,0
3,note_on,31,0,0
3,note_on,55,40,930
3,note_on,67,54,30
3,note_on,55,41,450
3,note_on,67,0,30
3,note_on,55,0,0
3,note_on,66,58,0
3,note_on,55,43,450
3,note_on,66,0,30
3,note_on,55,0,0
3,note_on,63,59,0
3,note_on,63,0,480
3,note_on,55,0,0
3,note_on,62,53,0
3,note_on,55,45,0
3,note_on,55,0,480
3,note_on,62,0,960
3,note_on,65,54,0
3,note_on,65,0,480
3,note_on,63,57,0
3,note_on,63,0,480
3,note_on,62,57,0
3,note_on,62,0,480
3,note_on,60,53,0
3,note_on,60,0,1440
3,note_on,48,49,0
3,note_on,63,59,0
3,note_on,63,0,478
3,note_on,48,0,2
3,note_on,48,48,0
3,note_on,60,57,0
3,note_on,60,0,480
3,note_on,48,0,0
3,note_on,49,48,0
3,note_on,58,57,0
3,note_on,58,0,480
3,note_on,49,0,0
3,note_on,50,48,0
3,note_on,58,48,0
3,note_on,62,57,0
3,note_on,58,0,960
3,note_on,50,0,0
3,note_on,50,48,0
3,note_on,57,48,0
3,note_on,57,0,480
3,note_on,50,0,0
3,note_on,62,0,0
3,note_on,60,45,0
3,note_on,63,54,0
3,note_on,63,0,480
3,note_on,60,0,0
3,note_on,58,48,0
3,note_on,62,57,0
3,note_on,62,0,480
3,note_on,58,0,0
3,note_on,57,40,0
3,note_on,60,40,0
3,note_on,62,57,0
3,note_on,62,0,480
3,note_on,60,0,0
3,note_on,57,0,0
3,note_on,56,48,0
3,note_on,59,48,0
3,note_on,62,57,0
3,note_on,62,0,960
3,note_on,59,0,0
3,note_on,56,0,0
3,note_on,55,48,0
3,note_on,55,0,480
3,note_on,67,58,0
3,note_on,67,0,480
3,note_on,65,54,0
3,note_on,65,0,480
3,note_on,55,48,0
3,note_on,60,54,0
3,note_on,60,0,480
3,note_on,55,0,0
3,note_on,54,48,0
3,note_on,60,57,0
3,note_on,54,0,960
3,note_on,53,48,0
3,note_on,53,0,480
3,note_on,60,0,0
3,note_on,54,48,0
3,note_on,60,54,0
3,note_on,60,0,480
3,note_on,54,0,0
3,note_on,55,45,0
3,note_on,58,51,0
3,note_on,58,0,480
3,note_on,55,0,0
3,note_on,53,45,0
3,note_on,56,51,0
3,note_on,56,0,480
3,note_on,53,0,0
3,note_on,52,45,0
3,note_on,55,51,0
3,note_on,55,0,480
3,note_on,52,0,0
3,note_on,51,40,0
3,note_on,55,45,0
3,note_on,55,0,480
3,note_on,51,0,0
3,note_on,50,43,0
3,note_on,58,48,0
3,note_on,58,0,478
3,note_on,55,46,2
3,note_on,55,0,480
3,note_on,50,0,0
3,note_on,50,39,0
3,note_on,57,45,0
3,note_on,57,0,478
3,note_on,54,42,2
3,note_on,54,0,480
3,note_on,50,0,0
3,note_on,31,36,0
3,note_on,43,44,0
3,note_on,43,0,480
3,note_on,31,0,0
3,note_on,50,34,0
3,note_on,55,34,0
3,note_on,58,40,0
3,note_on,58,0,478
3,note_on,55,0,2
3,note_on,50,0,0
3,note_on,31,40,0
3,note_on,43,47,0
3,note_on,43,0,480
3,note_on,31,0,0
3,note_on,50,38,0
3,note_on,55,38,0
3,note_on,58,45,0
3,note_on,58,0,480
3,note_on,55,0,0
3,note_on,50,0,0
3,note_on,31,44,0
3,note_on,43,53,0
3,note_on,43,0,480
3,note_on,31,0,0
3,note_on,55,42,0
3,note_on,53,42,0
3,note_on,59,42,0
3,note_on,62,50,0
3,note_on,62,0,480
3,note_on,55,0,0
3,note_on,53,0,0
3,note_on,59,0,0
3,note_on,31,50,0
3,note_on,43,60,0
3,note_on,43,0,480
3,note_on,31,0,0
3,note_on,51,45,0
3,note_on,55,45,0
3,note_on,60,53,0
3,note_on,60,0,480
3,note_on,55,0,0
3,note_on,51,0,0
3,note_on,38,55,0
3,note_on,38,0,480
3,note_on,50,39,0
3,note_on,55,46,0
3,note_on,55,0,480
3,note_on,50,0,0
3,note_on,50,36,0
3,note_on,57,47,0
3,note_on,57,0,478
3,note_on,50,0,2
3,note_on,50,34,0
3,note_on,54,41,0
3,note_on,54,0,480
3,note_on,50,0,0
3,note_on,31,36,0
3,note_on,43,44,0
3,note_on,43,0,480
3,note_on,31,0,0
3,note_on,50,34,0
3,note_on,55,34,0
3,note_on,58,40,0
3,note_on,58,0,478
3,note_on,55,0,2
3,note_on,50,0,0
3,note_on,31,40,0
3,note_on,43,47,0
3,note_on,43,0,480
3,note_on,31,0,0
3,note_on,50,38,0
3,note_on,55,38,0
3,note_on,58,45,0
3,note_on,58,0,480
3,note_on,55,0,0
3,note_on,50,0,0
3,note_on,31,44,0
3,note_on,43,53,0
3,note_on,43,0,480
3,note_on,31,0,0
3,note_on,55,42,0
3,note_on,53,42,0
3,note_on,59,42,0
3,note_on,62,50,0
3,note_on,62,0,480
3,note_on,55,0,0
3,note_on,53,0,0
3,note_on,59,0,0
3,note_on,31,50,0
3,note_on,43,60,0
3,note_on,43,0,480
3,note_on,31,0,0
3,note_on,51,45,0
3,note_on,55,45,0
3,note_on,60,53,0
3,note_on,60,0,480
3,note_on,55,0,0
3,note_on,51,0,0
3,note_on,38,55,0
3,note_on,38,0,480
3,note_on,50,39,0
3,note_on,55,46,0
3,note_on,55,0,480
3,note_on,50,0,0
3,note_on,50,36,0
3,note_on,57,47,0
3,note_on,57,0,478
3,note_on,50,0,2
3,note_on,50,34,0
3,note_on,54,41,0
3,note_on,54,0,480
3,note_on,50,0,0
3,note_on,62,51,0
3,note_on,67,51,0
3,note_on,67,0,480
3,note_on,62,0,0
3,note_on,62,56,0
3,note_on,65,56,0
3,note_on,65,0,480
3,note_on,62,0,0
3,note_on,64,62,0
3,note_on,64,0,480
3,note_on,63,58,0
3,note_on,63,0,480
3,note_on,66,58,0
3,note_on,66,0,960
3,note_on,62,51,0
3,note_on,67,51,0
3,note_on,67,0,480
3,note_on,62,0,0
3,note_on,62,56,0
3,note_on,65,56,0
3,note_on,65,0,480
3,note_on,62,0,0
3,note_on,64,62,0
3,note_on,64,0,480
3,note_on,63,58,0
3,note_on,63,0,480
3,note_on,55,51,960
3,note_on,55,0,480
3,note_on,53,56,0
3,note_on,53,0,480
3,note_on,55,62,0
3,note_on,55,0,960
3,note_on,55,63,0
3,note_on,43,44,920
3,note_on,50,45,20
3,note_on,55,0,20
3,note_on,55,49,0
3,note_on,55,0,240
3,note_on,50,0,0
3,note_on,43,0,0
3,note_on,43,42,240
3,note_on,47,42,0
3,note_on,55,50,0
3,note_on,55,0,480
3,note_on,47,0,0
3,note_on,43,0,0
3,note_on,42,43,0
3,note_on,47,43,0
3,note_on,54,51,0
3,note_on,54,0,480
3,note_on,47,0,0
3,note_on,42,0,0
3,note_on,40,44,0
3,note_on,47,44,0
3,note_on,52,52,0
3,note_on,52,0,480
3,note_on,47,0,0
3,note_on,40,0,0
3,note_on,38,45,0
3,note_on,47,45,0
3,note_on,50,53,0
3,note_on,50,0,480
3,note_on,47,0,0
3,note_on,38,0,0
3,note_on,35,45,0
3,note_on,47,54,0
3,note_on,47,0,480
3,note_on,35,0,0
3,note_on,31,45,0
3,note_on,35,45,0
3,note_on,43,53,0
3,note_on,43,0,480
3,note_on,35,0,0
3,note_on,31,0,0
3,note_on,31,45,0
3,note_on,35,45,0
3,note_on,42,54,0
3,note_on,42,0,480
3,note_on,35,0,0
3,note_on,31,0,0
3,note_on,31,47,0
3,note_on,35,47,0
3,note_on,40,56,0
3,note_on,40,0,480
3,note_on,35,0,0
3,note_on,31,0,0
3,note_on,31,49,0
3,note_on,35,49,0
3,note_on,39,58,0
3,note_on,39,0,480
3,note_on,35,0,0
3,note_on,31,0,0
3,note_on,31,51,0
3,note_on,35,51,0
3,note_on,38,61,0
3,note_on,38,0,480
3,note_on,35,0,0
3,note_on,31,0,0
3,note_on,31,53,0
3,note_on,35,63,0
3,note_on,35,0,480
3,note_on,31,0,0
3,note_on,31,80,0
3,note_on,31,0,437
3,note_on,35,55,0
3,note_on,35,0,60
3,note_on,38,58,0
3,note_on,38,0,60
3,note_on,43,61,0
3,note_on,43,0,60
3,note_on,47,63,0
3,note_on,47,0,60
3,note_on,50,66,0
3,note_on,50,0,60
3,note_on,55,68,0
3,note_on,55,0,60
3,note_on,59,68,0
3,note_on,59,0,60
3,note_on,62,71,0
3,note_on,62,0,60
3,note_on,67,77,0
3,note_on,67,0,369
3,note_on,66,60,0
3,note_on,66,0,60
3,note_on,64,61,0
3,note_on,64,0,60
3,note_on,62,62,0
3,note_on,62,0,60
3,note_on,60,62,0
3,note_on,60,0,60
3,note_on,59,63,0
3,note_on,59,0,60
3,note_on,57,63,0
3,note_on,57,0,60
3,note_on,55,63,0
3,note_on,55,0,60
3,note_on,54,64,0
3,note_on,54,0,60
3,note_on,52,63,0
3,note_on,52,0,60
3,note_on,50,63,0
3,note_on,50,0,60
3,note_on,48,64,0
3,note_on,48,0,60
3,note_on,47,64,0
3,note_on,47,0,60
3,note_on,45,65,0
3,note_on,45,0,60
3,note_on,43,66,0
3,note_on,43,0,60
3,note_on,42,67,0
3,note_on,42,0,60
3,note_on,40,68,0
3,note_on,40,0,60
3,note_on,38,69,0
3,note_on,38,0,60
3,note_on,36,70,0
3,note_on,36,0,60
3,note_on,35,70,0
3,note_on,35,0,60
3,note_on,33,71,0
3,note_on,33,0,60
3,note_on,31,74,0
3,note_on,31,0,630
3,note_on,35,54,0
3,note_on,35,0,80
3,note_on,38,55,0
3,note_on,38,0,80
3,note_on,43,56,0
3,note_on,43,0,80
3,note_on,47,58,0
3,note_on,47,0,80
3,note_on,50,59,0
3,note_on,50,0,80
3,note_on,55,60,0
3,note_on,55,0,80
3,note_on,59,62,0
3,note_on,59,0,80
3,note_on,62,63,0
3,note_on,62,0,80
3,note_on,67,64,0
3,note_on,67,0,80
3,note_on,71,65,0
3,note_on,71,0,80
3,note_on,74,67,0
3,note_on,74,0,80
3,note_on,79,75,0
3,note_on,79,0,334
3,note_on,78,50,0
3,note_on,78,0,60
3,note_on,76,51,0
3,note_on,76,0,60
3,note_on,74,51,0
3,note_on,74,0,60
3,note_on,72,52,0
3,note_on,72,0,60
3,note_on,71,52,0
3,note_on,71,0,60
3,note_on,69,53,0
3,note_on,69,0,60
3,note_on,67,54,0
3,note_on,67,0,60
3,note_on,66,54,0
3,note_on,66,0,60
3,note_on,64,54,0
3,note_on,64,0,60
3,note_on,62,54,0
3,note_on,62,0,60
3,note_on,60,55,0
3,note_on,60,0,60
3,note_on,59,56,0
3,note_on,59,0,60
3,note_on,57,56,0
3,note_on,57,0,60
3,note_on,55,57,0
3,note_on,55,0,60
3,note_on,54,57,0
3,note_on,54,0,60
3,note_on,52,58,0
3,note_on,52,0,60
3,note_on,50,58,0
3,note_on,50,0,60
3,note_on,48,59,0
3,note_on,48,0,60
3,note_on,47,60,0
3,note_on,47,0,60
3,note_on,45,60,0
3,note_on,45,0,60
3,note_on,43,61,0
3,note_on,43,0,60
3,note_on,42,61,0
3,note_on,42,0,60
3,note_on,40,62,0
3,note_on,40,0,60
3,note_on,38,63,0
3,note_on,38,0,60
3,note_on,36,63,0
3,note_on,36,0,60
3,note_on,35,63,0
3,note_on,35,0,60
3,note_on,33,63,0
3,note_on,33,0,60
3,note_on,38,64,0
3,note_on,38,0,60
3,note_on,36,64,0
3,note_on,36,0,60
3,note_on,31,73,0
3,note_on,35,73,0
3,note_on,35,0,517
3,note_on,31,0,0
3,note_on,38,54,0
3,note_on,38,0,60
3,note_on,43,55,0
3,note_on,43,0,60
3,note_on,47,56,0
3,note_on,47,0,60
3,note_on,50,58,0
3,note_on,50,0,60
3,note_on,55,59,0
3,note_on,55,0,60
3,note_on,59,60,0
3,note_on,59,0,60
3,note_on,62,62,0
3,note_on,62,0,60
3,note_on,67,63,0
3,note_on,67,0,60
3,note_on,71,64,0
3,note_on,71,0,60
3,note_on,74,65,0
3,note_on,74,0,60
3,note_on,79,64,0
3,note_on,79,0,60
3,note_on,83,66,0
3,note_on,83,0,60
3,note_on,86,68,0
3,note_on,86,0,60
3,note_on,91,75,0
3,note_on,91,0,423
3,note_on,88,50,0
3,note_on,88,0,60
3,note_on,86,50,0
3,note_on,86,0,60
3,note_on,84,50,0
3,note_on,84,0,60
3,note_on,83,51,0
3,note_on,83,0,60
3,note_on,81,51,0
3,note_on,81,0,60
3,note_on,79,52,0
3,note_on,79,0,60
3,note_on,78,52,0
3,note_on,78,0,60
3,note_on,76,53,0
3,note_on,76,0,60
3,note_on,74,54,0
3,note_on,74,0,60
3,note_on,72,54,0
3,note_on,72,0,60
3,note_on,71,54,0
3,note_on,71,0,60
3,note_on,69,54,0
3,note_on,69,0,60
3,note_on,67,55,0
3,note_on,67,0,60
3,note_on,66,56,0
3,note_on,66,0,60
3,note_on,64,56,0
3,note_on,64,0,60
3,note_on,62,57,0
3,note_on,62,0,60
3,note_on,60,57,0
3,note_on,60,0,60
3,note_on,59,58,0
3,note_on,59,0,60
3,note_on,57,58,0
3,note_on,57,0,60
3,note_on,55,59,0
3,note_on,55,0,60
3,note_on,54,60,0
3,note_on,54,0,60
3,note_on,52,60,0
3,note_on,52,0,60
3,note_on,50,61,0
3,note_on,50,0,60
3,note_on,48,61,0
3,note_on,48,0,60
3,note_on,47,62,0
3,note_on,47,0,60
3,note_on,45,61,0
3,note_on,45,0,60
3,note_on,43,62,0
3,note_on,43,0,60
3,note_on,42,63,0
3,note_on,42,0,60
3,note_on,40,63,0
3,note_on,40,0,60
3,note_on,38,65,0
3,note_on,38,0,60
3,note_on,36,66,0
3,note_on,36,0,60
3,note_on,31,73,0
3,note_on,35,73,0
3,note_on,35,0,426
3,note_on,31,0,0
3,note_on,36,43,0
3,note_on,36,0,60
3,note_on,37,44,0
3,note_on,37,0,60
3,note_on,38,44,0
3,note_on,38,0,60
3,note_on,39,45,0
3,note_on,39,0,60
3,note_on,40,45,0
3,note_on,40,0,60
3,note_on,41,46,0
3,note_on,41,0,60
3,note_on,42,46,0
3,note_on,42,0,60
3,note_on,43,47,0
3,note_on,43,0,60
3,note_on,44,48,0
3,note_on,44,0,60
3,note_on,45,49,0
3,note_on,45,0,60
3,note_on,46,49,0
3,note_on,46,0,60
3,note_on,47,50,0
3,note_on,47,0,60
3,note_on,48,51,0
3,note_on,48,0,60
3,note_on,49,52,0
3,note_on,49,0,60
3,note_on,50,52,0
3,note_on,50,0,60
3,note_on,51,53,0
3,note_on,51,0,60
3,note_on,52,54,0
3,note_on,52,0,60
3,note_on,53,54,0
3,note_on,53,0,60
3,note_on,54,54,0
3,note_on,54,0,60
3,note_on,55,55,0
3,note_on,55,0,60
3,note_on,56,56,0
3,note_on,56,0,60
3,note_on,57,57,0
3,note_on,57,0,60
3,note_on,58,57,0
3,note_on,58,0,60
3,note_on,59,53,0
3,note_on,59,0,60
3,note_on,58,53,0
3,note_on,58,0,60
3,note_on,57,52,0
3,note_on,57,0,60
3,note_on,56,51,0
3,note_on,56,0,60
3,note_on,55,51,0
3,note_on,55,0,60
3,note_on,54,50,0
3,note_on,54,0,60
3,note_on,53,49,0
3,note_on,53,0,60
3,note_on,52,49,0
3,note_on,52,0,60
3,note_on,51,46,0
3,note_on,51,0,60
3,note_on,50,47,0
3,note_on,50,0,60
3,note_on,49,48,0
3,note_on,49,0,60
3,note_on,48,50,0
3,note_on,48,0,60
3,note_on,47,51,0
3,note_on,47,0,60
3,note_on,46,53,0
3,note_on,46,0,60
3,note_on,45,54,0
3,note_on,45,0,60
3,note_on,44,55,0
3,note_on,44,0,60
3,note_on,43,59,0
3,note_on,43,0,60
3,note_on,42,60,0
3,note_on,42,0,60
3,note_on,41,62,0
3,note_on,41,0,60
3,note_on,40,63,0
3,note_on,40,0,60
3,note_on,39,64,0
3,note_on,39,0,60
3,note_on,38,66,0
3,note_on,38,0,60
3,note_on,37,67,0
3,note_on,37,0,60
3,note_on,36,69,0
3,note_on,36,0,60
3,note_on,31,79,0
3,note_on,35,79,0
3,note_on,35,0,120
3,note_on,31,0,0
3,note_on,67,81,311
3,note_on,62,67,0
3,note_on,59,67,0
3,note_on,55,56,0
3,note_on,55,0,78
3,note_on,67,0,0
3,note_on,62,0,0
3,note_on,59,0,0
4,note_on,43,37,17100
4,note_on,50,42,60
4,note_on,58,47,60
4,note_on,58,0,49
4,note_on,55,32,0
4,note_on,55,0,60
4,note_on,58,40,0
4,note_on,58,0,60
4,note_on,55,31,0
4,note_on,55,0,60
4,note_on,58,40,0
4,note_on,58,0,60
4,note_on,55,31,0
4,note_on,55,0,60
4,note_on,58,40,0
4,note_on,58,0,60
4,note_on,55,32,0
4,note_on,55,0,60
4,note_on,58,41,0
4,note_on,58,0,60
4,note_on,55,33,0
4,note_on,55,0,60
4,note_on,58,41,0
4,note_on,58,0,60
4,note_on,55,33,0
4,note_on,55,0,60
4,note_on,58,42,0
4,note_on,58,0,60
4,note_on,55,33,0
4,note_on,55,0,60
4,note_on,58,42,0
4,note_on,58,0,60
4,note_on,50,0,0
4,note_on,43,0,0
4,note_on,55,34,0
4,note_on,55,0,60
4,note_on,58,42,0
4,note_on,58,0,60
4,note_on,55,34,0
4,note_on,55,0,60
4,note_on,58,43,0
4,note_on,58,0,60
4,note_on,55,34,0
4,note_on,55,0,60
4,note_on,58,43,0
4,note_on,58,0,60
4,note_on,55,34,0
4,note_on,55,0,60
4,note_on,58,44,0
4,note_on,58,0,60
4,note_on,55,35,0
4,note_on,55,0,60
4,note_on,63,48,0
4,note_on,63,0,7
4,note_on,55,36,0
4,note_on,55,0,60
4,note_on,63,44,0
4,note_on,63,0,60
4,note_on,55,33,0
4,note_on,55,0,60
4,note_on,63,40,0
4,note_on,63,0,60
4,note_on,55,45,0
4,note_on,55,0,60
4,note_on,63,34,0
4,note_on,63,0,60
4,note_on,55,40,0
4,note_on,55,0,60
4,note_on,62,47,0
4,note_on,62,0,14
4,note_on,55,34,0
4,note_on,55,0,60
4,note_on,62,43,0
4,note_on,62,0,60
4,note_on,55,35,0
4,note_on,55,0,60
4,note_on,62,40,0
4,note_on,62,0,60
4,note_on,55,35,0
4,note_on,55,0,60
4,note_on,62,44,0
4,note_on,62,0,60
4,note_on,55,40,0
4,note_on,55,0,60
4,note_on,60,47,0
4,note_on,60,0,7
4,note_on,55,33,0
4,note_on,55,0,60
4,note_on,60,43,0
4,note_on,60,0,60
4,note_on,55,34,0
4,note_on,55,0,60
4,note_on,60,42,0
4,note_on,60,0,60
4,note_on,55,33,0
4,note_on,55,0,60
4,note_on,60,42,0
4,note_on,60,0,60
4,note_on,55,34,0
4,note_on,55,0,60
4,note_on,58,44,0
4,note_on,58,0,42
4,note_on,55,32,0
4,note_on,55,0,60
4,note_on,58,40,0
4,note_on,58,0,60
4,note_on,55,31,0
4,note_on,55,0,60
4,note_on,58,40,0
4,note_on,58,0,60
4,note_on,55,31,0
4,note_on,55,0,60
4,note_on,58,40,0
4,note_on,58,0,60
4,note_on,55,31,0
4,note_on,55,0,60
4,note_on,58,40,0
4,note_on,58,0,60
4,note_on,55,31,0
4,note_on,55,0,60
4,note_on,58,39,0
4,note_on,58,0,60
4,note_on,55,30,0
4,note_on,55,0,60
4,note_on,58,37,0
4,note_on,58,0,60
4,note_on,55,29,0
4,note_on,55,0,60
4,note_on,58,36,0
4,note_on,58,0,60
4,note_on,55,29,0
4,note_on,55,0,60
4,note_on,58,32,0
4,note_on,58,0,60
4,note_on,55,28,0
4,note_on,55,0,60
4,note_on,58,36,0
4,note_on,58,0,60
4,note_on,55,29,0
4,note_on,55,0,60
4,note_on,58,37,0
4,note_on,58,0,60
4,note_on,55,30,0
4,note_on,55,0,60
4,note_on,58,39,0
4,note_on,58,0,60
4,note_on,55,31,0
4,note_on,55,0,20
4,note_on,53,35,0
4,note_on,57,48,20
4,note_on,57,0,7
4,note_on,53,0,0
4,note_on,53,36,0
4,note_on,53,0,60
4,note_on,57,44,0
4,note_on,57,0,60
4,note_on,53,33,0
4,note_on,53,0,60
4,note_on,57,40,0
4,note_on,57,0,60
4,note_on,53,45,0
4,note_on,53,0,60
4,note_on,57,34,0
4,note_on,57,0,60
4,note_on,53,40,0
4,note_on,53,0,20
4,note_on,51,39,0
4,note_on,55,47,20
4,note_on,55,0,14
4,note_on,51,0,0
4,note_on,51,34,0
4,note_on,51,0,60
4,note_on,55,43,0
4,note_on,55,0,60
4,note_on,51,35,0
4,note_on,51,0,60
4,note_on,55,40,0
4,note_on,55,0,60
4,note_on,51,35,0
4,note_on,51,0,60
4,note_on,55,44,0
4,note_on,55,0,60
4,note_on,51,40,0
4,note_on,51,0,20
4,note_on,50,39,0
4,note_on,53,47,20
4,note_on,53,0,7
4,note_on,50,0,0
4,note_on,50,33,0
4,note_on,50,0,60
4,note_on,53,43,0
4,note_on,53,0,60
4,note_on,50,34,0
4,note_on,50,0,60
4,note_on,53,42,0
4,note_on,53,0,60
4,note_on,50,33,0
4,note_on,50,0,60
4,note_on,53,42,0
4,note_on,53,0,60
4,note_on,50,34,0
4,note_on,50,0,20
4,note_on,48,32,0
4,note_on,51,44,20
4,note_on,51,0,22
4,note_on,48,0,0
4,note_on,48,32,0
4,note_on,48,0,60
4,note_on,51,40,0
4,note_on,51,0,60
4,note_on,48,32,0
4,note_on,48,0,60
4,note_on,51,42,0
4,note_on,51,0,60
4,note_on,48,33,0
4,note_on,48,0,60
4,note_on,51,43,0
4,note_on,51,0,60
4,note_on,48,33,0
4,note_on,48,0,60
4,note_on,51,44,0
4,note_on,51,0,60
4,note_on,48,35,0
4,note_on,48,0,60
4,note_on,51,45,0
4,note_on,51,0,60
4,note_on,48,36,0
4,note_on,48,0,60
4,note_on,51,45,0
4,note_on,51,0,60
4,note_on,48,36,0
4,note_on,48,0,60
4,note_on,51,46,0
4,note_on,51,0,60
4,note_on,48,37,0
4,note_on,48,0,60
4,note_on,51,48,0
4,note_on,51,0,60
4,note_on,48,38,0
4,note_on,48,0,60
4,note_on,51,48,0
4,note_on,51,0,60
4,note_on,48,39,0
4,note_on,48,0,60
4,note_on,51,50,0
4,note_on,51,0,60
4,note_on,48,40,0
4,note_on,48,0,60
4,note_on,51,51,0
4,note_on,51,0,60
4,note_on,48,41,0
4,note_on,48,0,60
4,note_on,51,57,0
4,note_on,51,0,7
4,note_on,48,39,0
4,note_on,48,0,60
4,note_on,51,51,0
4,note_on,51,0,60
4,note_on,48,36,0
4,note_on,48,0,60
4,note_on,51,44,0
4,note_on,51,0,60
4,note_on,48,48,0
4,note_on,48,0,60
4,note_on,51,36,0
4,note_on,51,0,60
4,note_on,48,43,0
4,note_on,48,0,20
4,note_on,49,42,0
4,note_on,52,52,20
4,note_on,52,0,14
4,note_on,49,0,0
4,note_on,49,36,0
4,note_on,49,0,60
4,note_on,52,45,0
4,note_on,52,0,60
4,note_on,49,36,0
4,note_on,49,0,60
4,note_on,52,44,0
4,note_on,52,0,60
4,note_on,49,38,0
4,note_on,49,0,60
4,note_on,52,45,0
4,note_on,52,0,60
4,note_on,49,41,0
4,note_on,49,0,60
4,note_on,52,52,0
4,note_on,52,0,7
4,note_on,49,34,0
4,note_on,49,0,60
4,note_on,52,44,0
4,note_on,52,0,60
4,note_on,49,35,0
4,note_on,49,0,60
4,note_on,52,42,0
4,note_on,52,0,60
4,note_on,49,33,0
4,note_on,49,0,60
4,note_on,52,42,0
4,note_on,52,0,60
4,note_on,49,34,0
4,note_on,49,0,20
4,note_on,50,44,0
4,note_on,55,44,20
4,note_on,55,0,42
4,note_on,50,0,0
4,note_on,50,32,0
4,note_on,50,0,60
4,note_on,55,40,0
4,note_on,55,0,60
4,note_on,50,32,0
4,note_on,50,0,60
4,note_on,55,42,0
4,note_on,55,0,60
4,note_on,50,33,0
4,note_on,50,0,60
4,note_on,55,43,0
4,note_on,55,0,60
4,note_on,50,33,0
4,note_on,50,0,60
4,note_on,55,44,0
4,note_on,55,0,60
4,note_on,50,35,0
4,note_on,50,0,60
4,note_on,55,43,0
4,note_on,55,0,60
4,note_on,50,34,0
4,note_on,50,0,60
4,note_on,55,42,0
4,note_on,55,0,60
4,note_on,50,33,0
4,note_on,50,0,60
4,note_on,55,41,0
4,note_on,55,0,60
4,note_on,50,32,0
4,note_on,50,0,60
4,note_on,54,40,0
4,note_on,54,0,17
4,note_on,50,32,0
4,note_on,50,0,60
4,note_on,54,40,0
4,note_on,54,0,60
4,note_on,50,32,0
4,note_on,50,0,60
4,note_on,54,40,0
4,note_on,54,0,60
4,note_on,50,32,0
4,note_on,50,0,60
4,note_on,54,40,0
4,note_on,54,0,60
4,note_on,50,32,0
4,note_on,50,0,20
4,note_on,48,35,0
4,note_on,51,48,20
4,note_on,51,0,7
4,note_on,48,0,0
4,note_on,48,36,0
4,note_on,48,0,60
4,note_on,51,44,0
4,note_on,51,0,60
4,note_on,48,33,0
4,note_on,48,0,60
4,note_on,51,40,0
4,note_on,51,0,60
4,note_on,48,45,0
4,note_on,48,0,60
4,note_on,51,34,0
4,note_on,51,0,60
4,note_on,48,40,0
4,note_on,48,0,20
4,note_on,46,39,0
4,note_on,50,47,20
4,note_on,50,0,14
4,note_on,46,0,0
4,note_on,46,34,0
4,note_on,46,0,60
4,note_on,50,43,0
4,note_on,50,0,60
4,note_on,46,35,0
4,note_on,46,0,60
4,note_on,50,40,0
4,note_on,50,0,60
4,note_on,46,35,0
4,note_on,46,0,60
4,note_on,50,44,0
4,note_on,50,0,60
4,note_on,46,40,0
4,note_on,46,0,20
4,note_on,45,39,0
4,note_on,50,47,20
4,note_on,50,0,7
4,note_on,45,0,0
4,note_on,45,33,0
4,note_on,45,0,60
4,note_on,50,43,0
4,note_on,50,0,60
4,note_on,45,34,0
4,note_on,45,0,60
4,note_on,50,42,0
4,note_on,50,0,60
4,note_on,45,33,0
4,note_on,45,0,60
4,note_on,50,42,0
4,note_on,50,0,60
4,note_on,45,32,0
4,note_on,45,0,15
4,note_on,43,40,0
4,note_on,50,40,15
4,note_on,58,40,15
4,note_on,58,0,60
4,note_on,55,32,0
4,note_on,55,0,42
4,note_on,58,40,0
4,note_on,58,0,60
4,note_on,55,31,0
4,note_on,55,0,60
4,note_on,58,40,0
4,note_on,58,0,60
4,note_on,55,31,0
4,note_on,55,0,60
4,note_on,58,40,0
4,note_on,58,0,60
4,note_on,55,31,0
4,note_on,55,0,60
4,note_on,58,41,0
4,note_on,58,0,60
4,note_on,55,33,0
4,note_on,55,0,60
4,note_on,58,41,0
4,note_on,58,0,60
4,note_on,55,33,0
4,note_on,55,0,60
4,note_on,58,42,0
4,note_on,58,0,60
4,note_on,55,33,0
4,note_on,55,0,60
4,note_on,58,42,0
4,note_on,58,0,60
4,note_on,55,34,0
4,note_on,55,0,60
4,note_on,50,0,0
4,note_on,58,42,0
4,note_on,43,0,15
4,note_on,58,0,45
4,note_on,55,34,0
4,note_on,55,0,60
4,note_on,58,43,0
4,note_on,58,0,60
4,note_on,55,34,0
4,note_on,55,0,60
4,note_on,58,43,0
4,note_on,58,0,60
4,note_on,55,34,0
4,note_on,55,0,60
4,note_on,58,44,0
4,note_on,58,0,60
4,note_on,55,35,0
4,note_on,55,0,60
4,note_on,59,53,0
4,note_on,59,0,7
4,note_on,55,39,0
4,note_on,55,0,60
4,note_on,59,47,0
4,note_on,59,0,60
4,note_on,55,36,0
4,note_on,55,0,60
4,note_on,59,44,0
4,note_on,59,0,60
4,note_on,55,50,0
4,note_on,55,0,60
4,note_on,59,37,0
4,note_on,59,0,60
4,note_on,55,45,0
4,note_on,55,0,60
4,note_on,60,59,0
4,note_on,60,0,14
4,note_on,55,44,0
4,note_on,55,0,60
4,note_on,60,53,0
4,note_on,60,0,60
4,note_on,55,42,0
4,note_on,55,0,60
4,note_on,60,50,0
4,note_on,60,0,60
4,note_on,55,44,0
4,note_on,55,0,60
4,note_on,60,50,0
4,note_on,60,0,60
4,note_on,55,46,0
4,note_on,55,0,60
4,note_on,58,61,0
4,note_on,58,0,7
4,note_on,54,44,0
4,note_on,54,0,60
4,note_on,58,55,0
4,note_on,58,0,60
4,note_on,54,44,0
4,note_on,54,0,60
4,note_on,58,52,0
4,note_on,58,0,60
4,note_on,54,38,0
4,note_on,54,0,60
4,note_on,58,49,0
4,note_on,58,0,60
4,note_on,54,40,0
4,note_on,54,0,60
4,note_on,57,44,0
4,note_on,57,0,42
4,note_on,53,32,0
4,note_on,53,0,60
4,note_on,57,40,0
4,note_on,57,0,60
4,note_on,53,31,0
4,note_on,53,0,60
4,note_on,57,40,0
4,note_on,57,0,60
4,note_on,53,31,0
4,note_on,53,0,60
4,note_on,57,40,0
4,note_on,57,0,60
4,note_on,53,31,0
4,note_on,53,0,60
4,note_on,57,40,0
4,note_on,57,0,60
4,note_on,53,32,0
4,note_on,53,0,60
4,note_on,57,40,0
4,note_on,57,0,60
4,note_on,53,32,0
4,note_on,53,0,60
4,note_on,57,40,0
4,note_on,57,0,60
4,note_on,53,32,0
4,note_on,53,0,60
4,note_on,57,40,0
4,note_on,57,0,60
4,note_on,53,32,0
4,note_on,53,0,60
4,note_on,57,40,0
4,note_on,57,0,60
4,note_on,53,32,0
4,note_on,53,0,60
4,note_on,57,40,0
4,note_on,57,0,60
4,note_on,53,33,0
4,note_on,53,0,60
4,note_on,57,42,0
4,note_on,57,0,60
4,note_on,53,34,0
4,note_on,53,0,60
4,note_on,57,43,0
4,note_on,57,0,60
4,note_on,53,35,0
4,note_on,53,0,60
4,note_on,57,48,0
4,note_on,57,0,7
4,note_on,54,36,0
4,note_on,54,0,60
4,note_on,57,44,0
4,note_on,57,0,60
4,note_on,54,33,0
4,note_on,54,0,60
4,note_on,57,40,0
4,note_on,57,0,60
4,note_on,54,45,0
4,note_on,54,0,60
4,note_on,57,34,0
4,note_on,57,0,60
4,note_on,54,40,0
4,note_on,54,0,60
4,note_on,58,47,0
4,note_on,58,0,14
4,note_on,55,34,0
4,note_on,55,0,60
4,note_on,58,43,0
4,note_on,58,0,60
4,note_on,55,35,0
4,note_on,55,0,60
4,note_on,58,40,0
4,note_on,58,0,60
4,note_on,55,35,0
4,note_on,55,0,60
4,note_on,58,44,0
4,note_on,58,0,60
4,note_on,55,40,0
4,note_on,55,0,60
4,note_on,56,47,0
4,note_on,53,33,7
4,note_on,56,0,20
4,note_on,53,0,40
4,note_on,56,43,0
4,note_on,56,0,60
4,note_on,53,34,0
4,note_on,53,0,60
4,note_on,56,42,0
4,note_on,56,0,60
4,note_on,53,33,0
4,note_on,53,0,60
4,note_on,56,42,0
4,note_on,56,0,60
4,note_on,53,34,0
4,note_on,53,0,20
4,note_on,51,32,0
4,note_on,55,44,20
4,note_on,55,0,42
4,note_on,51,0,0
4,note_on,51,32,0
4,note_on,51,0,60
4,note_on,55,40,0
4,note_on,55,0,60
4,note_on,51,32,0
4,note_on,51,0,60
4,note_on,55,42,0
4,note_on,55,0,60
4,note_on,51,33,0
4,note_on,51,0,60
4,note_on,55,43,0
4,note_on,55,0,60
4,note_on,51,33,0
4,note_on,51,0,60
4,note_on,55,44,0
4,note_on,55,0,60
4,note_on,51,35,0
4,note_on,51,0,60
4,note_on,55,45,0
4,note_on,55,0,60
4,note_on,51,36,0
4,note_on,51,0,60
4,note_on,55,45,0
4,note_on,55,0,60
4,note_on,51,36,0
4,note_on,51,0,60
4,note_on,55,46,0
4,note_on,55,0,60
4,note_on,51,37,0
4,note_on,51,0,60
4,note_on,55,48,0
4,note_on,55,0,60
4,note_on,51,38,0
4,note_on,51,0,60
4,note_on,55,48,0
4,note_on,55,0,60
4,note_on,51,39,0
4,note_on,51,0,60
4,note_on,55,50,0
4,note_on,55,0,60
4,note_on,51,40,0
4,note_on,51,0,60
4,note_on,55,51,0
4,note_on,55,0,60
4,note_on,51,41,0
4,note_on,51,0,60
4,note_on,55,57,0
4,note_on,55,0,7
4,note_on,52,39,0
4,note_on,52,0,60
4,note_on,55,51,0
4,note_on,55,0,60
4,note_on,52,36,0
4,note_on,52,0,60
4,note_on,55,44,0
4,note_on,55,0,60
4,note_on,52,48,0
4,note_on,52,0,60
4,note_on,55,36,0
4,note_on,55,0,60
4,note_on,52,43,0
4,note_on,52,0,60
4,note_on,55,52,0
4,note_on,52,36,14
4,note_on,55,0,20
4,note_on,52,0,40
4,note_on,55,45,0
4,note_on,55,0,60
4,note_on,52,36,0
4,note_on,52,0,60
4,note_on,55,44,0
4,note_on,55,0,60
4,note_on,52,38,0
4,note_on,52,0,60
4,note_on,55,45,0
4,note_on,55,0,60
4,note_on,52,41,0
4,note_on,52,0,60
4,note_on,55,52,0
4,note_on,55,0,7
4,note_on,52,34,0
4,note_on,52,0,60
4,note_on,55,44,0
4,note_on,55,0,60
4,note_on,52,35,0
4,note_on,52,0,60
4,note_on,55,42,0
4,note_on,55,0,60
4,note_on,52,33,0
4,note_on,52,0,60
4,note_on,55,42,0
4,note_on,55,0,60
4,note_on,52,33,0
4,note_on,52,0,60
4,note_on,57,46,0
4,note_on,57,0,26
4,note_on,53,37,0
4,note_on,53,0,60
4,note_on,57,46,0
4,note_on,57,0,60
4,note_on,53,36,0
4,note_on,53,0,60
4,note_on,57,45,0
4,note_on,57,0,60
4,note_on,53,34,0
4,note_on,53,0,60
4,note_on,57,45,0
4,note_on,57,0,60
4,note_on,53,36,0
4,note_on,53,0,20
4,note_on,51,36,0
4,note_on,57,45,20
4,note_on,57,0,80
4,note_on,51,0,0
4,note_on,51,38,0
4,note_on,51,0,60
4,note_on,57,47,0
4,note_on,57,0,60
4,note_on,51,44,0
4,note_on,51,0,60
4,note_on,57,48,0
4,note_on,57,0,60
4,note_on,51,38,0
4,note_on,51,0,60
4,note_on,57,45,0
4,note_on,57,0,60
4,note_on,51,37,0
4,note_on,51,0,20
4,note_on,50,40,0
4,note_on,58,46,20
4,note_on,58,0,49
4,note_on,50,0,0
4,note_on,50,38,0
4,note_on,50,0,49
4,note_on,58,46,0
4,note_on,58,0,60
4,note_on,50,38,0
4,note_on,50,0,60
4,note_on,58,47,0
4,note_on,58,0,60
4,note_on,50,39,0
4,note_on,50,0,60
4,note_on,58,47,0
4,note_on,58,0,60
4,note_on,50,39,0
4,note_on,50,0,20
4,note_on,54,42,0
4,note_on,57,47,20
4,note_on,57,0,49
4,note_on,54,0,0
4,note_on,54,39,0
4,note_on,54,0,60
4,note_on,57,48,0
4,note_on,57,0,60
4,note_on,54,39,0
4,note_on,54,0,60
4,note_on,57,48,0
4,note_on,57,0,60
4,note_on,54,40,0
4,note_on,54,0,60
4,note_on,57,49,0
4,note_on,57,0,60
4,note_on,54,40,0
4,note_on,54,0,20
4,note_on,53,43,0
4,note_on,58,49,20
4,note_on,58,0,48
4,note_on,53,0,0
4,note_on,53,40,0
4,note_on,53,0,51
4,note_on,58,50,0
4,note_on,58,0,60
4,note_on,53,40,0
4,note_on,53,0,60
4,note_on,58,50,0
4,note_on,58,0,60
4,note_on,53,41,0
4,note_on,53,0,60
4,note_on,58,51,0
4,note_on,58,0,60
4,note_on,53,42,0
4,note_on,53,0,20
4,note_on,51,44,0
4,note_on,57,51,20
4,note_on,57,0,80
4,note_on,51,0,0
4,note_on,51,44,0
4,note_on,51,0,60
4,note_on,57,52,0
4,note_on,57,0,60
4,note_on,51,43,0
4,note_on,51,0,60
4,note_on,57,52,0
4,note_on,57,0,60
4,note_on,51,43,0
4,note_on,51,0,60
4,note_on,57,53,0
4,note_on,57,0,60
4,note_on,51,43,0
4,note_on,51,0,20
4,note_on,50,46,0
4,note_on,58,53,20
4,note_on,58,0,24
4,note_on,50,0,0
4,note_on,50,44,0
4,note_on,50,0,60
4,note_on,58,52,0
4,note_on,58,0,60
4,note_on,50,43,0
4,note_on,50,0,60
4,note_on,58,52,0
4,note_on,58,0,60
4,note_on,50,44,0
4,note_on,50,0,60
4,note_on,58,52,0
4,note_on,58,0,60
4,note_on,50,44,0
4,note_on,50,0,60
4,note_on,58,52,0
4,note_on,58,0,26
4,note_on,50,44,0
4,note_on,50,0,60
4,note_on,58,52,0
4,note_on,58,0,60
4,note_on,50,44,0
4,note_on,50,0,60
4,note_on,58,52,0
4,note_on,58,0,60
4,note_on,50,45,0
4,note_on,50,0,60
4,note_on,58,52,0
4,note_on,58,0,60
4,note_on,50,45,0
4,note_on,50,0,20
4,note_on,51,48,0
4,note_on,58,53,20
4,note_on,58,0,32
4,note_on,51,0,0
4,note_on,51,45,0
4,note_on,51,0,60
4,note_on,58,53,0
4,note_on,58,0,60
4,note_on,51,45,0
4,note_on,51,0,60
4,note_on,58,52,0
4,note_on,58,0,60
4,note_on,51,45,0
4,note_on,51,0,60
4,note_on,58,54,0
4,note_on,58,0,60
4,note_on,51,46,0
4,note_on,51,0,60
4,note_on,61,54,0
4,note_on,58,54,0
4,note_on,58,0,28
4,note_on,61,0,0
4,note_on,52,47,0
4,note_on,52,0,60
4,note_on,61,55,0
4,note_on,58,55,0
4,note_on,58,0,60
4,note_on,61,0,0
4,note_on,52,47,0
4,note_on,52,0,60
4,note_on,61,56,0
4,note_on,58,56,0
4,note_on,58,0,60
4,note_on,61,0,0
4,note_on,52,47,0
4,note_on,52,0,60
4,note_on,61,57,0
4,note_on,58,57,0
4,note_on,58,0,60
4,note_on,61,0,0
4,note_on,52,48,0
4,note_on,52,0,60
4,note_on,58,56,886
4,note_on,58,0,3
4,note_on,50,46,0
4,note_on,50,0,60
4,note_on,58,55,0
4,note_on,58,0,60
4,note_on,50,45,0
4,note_on,50,0,60
4,note_on,58,55,0
4,note_on,58,0,60
4,note_on,50,45,0
4,note_on,50,0,60
4,note_on,58,54,0
4,note_on,58,0,60
4,note_on,50,45,0
4,note_on,50,0,60
4,note_on,59,54,0
4,note_on,59,0,14
4,note_on,50,44,0
4,note_on,50,0,60
4,note_on,59,54,0
4,note_on,59,0,60
4,note_on,50,44,0
4,note_on,50,0,60
4,note_on,59,53,0
4,note_on,59,0,60
4,note_on,50,44,0
4,note_on,50,0,60
4,note_on,59,52,0
4,note_on,59,0,60
4,note_on,50,43,0
4,note_on,50,0,60
4,note_on,60,52,0
4,note_on,60,0,9
4,note_on,51,43,0
4,note_on,51,0,60
4,note_on,60,51,0
4,note_on,60,0,60
4,note_on,51,42,0
4,note_on,51,0,60
4,note_on,60,50,0
4,note_on,60,0,60
4,note_on,51,41,0
4,note_on,51,0,60
4,note_on,60,50,0
4,note_on,60,0,60
4,note_on,51,41,0
4,note_on,51,0,60
4,note_on,57,50,0
4,note_on,57,0,60
4,note_on,48,40,0
4,note_on,48,0,60
4,note_on,57,49,0
4,note_on,57,0,60
4,note_on,48,40,0
4,note_on,48,0,60
4,note_on,57,48,0
4,note_on,57,0,60
4,note_on,48,39,0
4,note_on,48,0,60
4,note_on,57,47,0
4,note_on,57,0,60
4,note_on,48,39,0
4,note_on,48,0,60
4,note_on,50,40,0
4,note_on,50,0,50
4,note_on,53,32,0
4,note_on,53,0,60
4,note_on,50,40,0
4,note_on,50,0,60
4,note_on,53,32,0
4,note_on,53,0,60
4,note_on,50,42,0
4,note_on,50,0,60
4,note_on,53,34,0
4,note_on,53,0,60
4,note_on,50,44,0
4,note_on,50,0,60
4,note_on,53,34,0
4,note_on,53,0,60
4,note_on,50,44,0
4,note_on,50,0,60
4,note_on,53,32,0
4,note_on,53,0,60
4,note_on,50,43,0
4,note_on,50,0,60
4,note_on,53,35,0
4,note_on,53,0,60
4,note_on,50,45,0
4,note_on,50,0,60
4,note_on,53,35,0
4,note_on,53,0,60
4,note_on,50,46,0
4,note_on,50,0,60
4,note_on,53,35,0
4,note_on,53,0,60
4,note_on,50,47,0
4,note_on,50,0,60
4,note_on,53,36,0
4,note_on,53,0,60
4,note_on,50,45,0
4,note_on,50,0,60
4,note_on,53,34,0
4,note_on,53,0,60
4,note_on,50,45,0
4,note_on,50,0,60
4,note_on,53,34,0
4,note_on,53,0,60
4,note_on,50,45,0
4,note_on,50,0,60
4,note_on,53,34,0
4,note_on,53,0,60
4,note_on,56,45,0
4,note_on,56,0,7
4,note_on,53,36,0
4,note_on,53,0,60
4,note_on,56,44,0
4,note_on,56,0,60
4,note_on,53,32,0
4,note_on,53,0,60
4,note_on,56,44,0
4,note_on,56,0,60
4,note_on,53,36,0
4,note_on,53,0,60
4,note_on,56,44,0
4,note_on,56,0,60
4,note_on,53,35,0
4,note_on,53,0,60
4,note_on,55,46,0
4,note_on,55,0,14
4,note_on,51,38,0
4,note_on,51,0,60
4,note_on,55,48,0
4,note_on,55,0,60
4,note_on,51,36,0
4,note_on,51,0,60
4,note_on,55,48,0
4,note_on,55,0,60
4,note_on,51,40,0
4,note_on,51,0,60
4,note_on,55,49,0
4,note_on,55,0,60
4,note_on,51,41,0
4,note_on,51,0,60
4,note_on,54,49,0
4,note_on,54,0,7
4,note_on,49,34,0
4,note_on,49,0,60
4,note_on,54,50,0
4,note_on,54,0,60
4,note_on,49,35,0
4,note_on,49,0,60
4,note_on,54,49,0
4,note_on,54,0,60
4,note_on,49,38,0
4,note_on,49,0,60
4,note_on,54,48,0
4,note_on,54,0,60
4,note_on,49,34,0
4,note_on,49,0,60
4,note_on,54,51,0
4,note_on,48,32,0
4,note_on,48,0,60
4,note_on,54,0,0
4,note_on,54,40,0
4,note_on,48,32,60
4,note_on,48,0,60
4,note_on,54,0,0
4,note_on,54,42,0
4,note_on,48,33,60
4,note_on,48,0,60
4,note_on,54,0,0
4,note_on,54,43,0
4,note_on,48,34,60
4,note_on,48,0,60
4,note_on,54,0,0
4,note_on,53,46,0
4,note_on,48,37,29
4,note_on,48,0,60
4,note_on,53,0,0
4,note_on,53,42,0
4,note_on,48,32,60
4,note_on,48,0,60
4,note_on,53,0,0
4,note_on,53,40,0
4,note_on,48,32,60
4,note_on,48,0,60
4,note_on,53,0,0
4,note_on,53,40,0
4,note_on,48,32,60
4,note_on,48,0,60
4,note_on,53,0,0
4,note_on,53,40,0
4,note_on,53,0,17
4,note_on,50,32,0
4,note_on,50,0,60
4,note_on,53,40,0
4,note_on,53,0,60
4,note_on,50,32,0
4,note_on,50,0,60
4,note_on,53,40,0
4,note_on,53,0,60
4,note_on,50,32,0
4,note_on,50,0,60
4,note_on,53,40,0
4,note_on,53,0,60
4,note_on,56,41,60
4,note_on,56,0,7
4,note_on,53,31,0
4,note_on,53,0,60
4,note_on,56,40,0
4,note_on,56,0,60
4,note_on,53,33,0
4,note_on,53,0,60
4,note_on,56,40,0
4,note_on,56,0,60
4,note_on,53,34,0
4,note_on,53,0,60
4,note_on,56,41,0
4,note_on,56,0,60
4,note_on,53,34,0
4,note_on,53,0,60
4,note_on,55,45,0
4,note_on,51,38,14
4,note_on,55,0,20
4,note_on,51,0,40
4,note_on,55,45,0
4,note_on,55,0,60
4,note_on,51,35,0
4,note_on,51,0,60
4,note_on,55,45,0
4,note_on,55,0,60
4,note_on,51,35,0
4,note_on,51,0,60
4,note_on,55,47,0
4,note_on,55,0,60
4,note_on,51,35,0
4,note_on,51,0,60
4,note_on,54,47,0
4,note_on,49,33,7
4,note_on,54,0,20
4,note_on,49,0,40
4,note_on,54,43,0
4,note_on,54,0,60
4,note_on,49,34,0
4,note_on,49,0,60
4,note_on,54,42,0
4,note_on,54,0,60
4,note_on,49,33,0
4,note_on,49,0,60
4,note_on,54,42,0
4,note_on,54,0,60
4,note_on,49,33,0
4,note_on,49,0,60
4,note_on,54,51,0
4,note_on,48,32,0
4,note_on,48,0,60
4,note_on,54,0,0
4,note_on,54,40,0
4,note_on,48,31,60
4,note_on,48,0,60
4,note_on,54,0,0
4,note_on,54,44,0
4,note_on,48,34,60
4,note_on,48,0,60
4,note_on,54,0,0
4,note_on,54,43,0
4,note_on,48,36,60
4,note_on,48,0,60
4,note_on,54,0,0
4,note_on,53,46,0
4,note_on,48,36,29
4,note_on,48,0,60
4,note_on,53,0,0
4,note_on,53,41,0
4,note_on,48,32,60
4,note_on,48,0,60
4,note_on,53,0,0
4,note_on,53,40,0
4,note_on,48,32,60
4,note_on,48,0,60
4,note_on,53,0,0
4,note_on,53,40,0
4,note_on,48,32,60
4,note_on,48,0,60
4,note_on,53,0,0
4,note_on,53,40,0
4,note_on,53,0,37
4,note_on,50,32,0
4,note_on,50,0,80
4,note_on,53,40,0
4,note_on,53,0,80
4,note_on,50,32,0
4,note_on,50,0,80
4,note_on,53,40,0
4,note_on,53,0,80
4,note_on,50,32,0
4,note_on,50,0,80
4,note_on,53,45,0
4,note_on,53,0,31
4,note_on,50,38,0
4,note_on,50,0,80
4,note_on,53,45,0
4,note_on,53,0,80
4,note_on,50,38,0
4,note_on,50,0,80
4,note_on,53,45,0
4,note_on,53,0,80
4,note_on,50,38,0
4,note_on,50,0,80
4,note_on,55,45,0
4,note_on,55,0,20
4,note_on,51,38,0
4,note_on,51,0,80
4,note_on,55,45,0
4,note_on,55,0,80
4,note_on,51,38,0
4,note_on,51,0,80
4,note_on,55,45,0
4,note_on,55,0,80
4,note_on,51,37,0
4,note_on,51,0,80
4,note_on,55,48,0
4,note_on,55,0,26
4,note_on,52,39,0
4,note_on,52,0,80
4,note_on,55,48,0
4,note_on,55,0,80
4,note_on,52,41,0
4,note_on,52,0,80
4,note_on,55,48,0
4,note_on,55,0,80
4,note_on,52,41,0
4,note_on,52,0,80
4,note_on,57,48,0
4,note_on,57,0,43
4,note_on,53,39,0
4,note_on,53,0,80
4,note_on,57,48,0
4,note_on,57,0,80
4,note_on,53,41,0
4,note_on,53,0,80
4,note_on,57,48,0
4,note_on,57,0,80
4,note_on,53,41,0
4,note_on,53,0,80
4,note_on,58,50,437
4,note_on,58,0,34
4,note_on,55,41,0
4,note_on,55,0,80
4,note_on,58,50,0
4,note_on,58,0,80
4,note_on,55,43,0
4,note_on,55,0,80
4,note_on,58,51,0
4,note_on,58,0,80
4,note_on,55,43,0
4,note_on,55,0,80
4,note_on,62,53,403
4,note_on,62,0,6
4,note_on,58,44,0
4,note_on,58,0,80
4,note_on,62,53,0
4,note_on,62,0,80
4,note_on,58,45,0
4,note_on,58,0,80
4,note_on,62,53,0
4,note_on,62,0,80
4,note_on,58,46,0
4,note_on,58,0,80
4,note_on,65,56,435
4,note_on,65,0,39
4,note_on,62,46,0
4,note_on,62,0,80
4,note_on,65,56,0
4,note_on,65,0,80
4,note_on,62,48,0
4,note_on,62,0,80
4,note_on,65,56,0
4,note_on,65,0,80
4,note_on,62,48,0
4,note_on,62,0,80
4,note_on,67,56,447
4,note_on,67,0,37
4,note_on,64,47,0
4,note_on,64,0,80
4,note_on,67,57,0
4,note_on,67,0,80
4,note_on,64,49,0
4,note_on,64,0,80
4,note_on,67,57,0
4,note_on,67,0,80
4,note_on,64,49,0
4,note_on,64,0,80
4,note_on,70,46,432
4,note_on,73,59,0
4,note_on,73,0,80
4,note_on,70,0,0
4,note_on,64,49,0
4,note_on,64,0,80
4,note_on,70,46,0
4,note_on,73,59,0
4,note_on,73,0,80
4,note_on,70,0,0
4,note_on,64,52,0
4,note_on,64,0,80
4,note_on,70,46,0
4,note_on,73,59,0
4,note_on,73,0,80
4,note_on,70,0,0
4,note_on,64,52,0
4,note_on,64,0,80
4,note_on,70,46,480
4,note_on,74,59,0
4,note_on,74,0,27
4,note_on,70,0,0
4,note_on,65,49,0
4,note_on,65,0,80
4,note_on,70,46,0
4,note_on,74,58,0
4,note_on,74,0,80
4,note_on,70,0,0
4,note_on,65,50,0
4,note_on,65,0,80
4,note_on,70,45,0
4,note_on,74,57,0
4,note_on,74,0,80
4,note_on,70,0,0
4,note_on,65,50,0
4,note_on,65,0,80
4,note_on,62,44,480
4,note_on,65,55,0
4,note_on,65,0,80
4,note_on,62,0,0
4,note_on,58,46,0
4,note_on,58,0,80
4,note_on,62,44,0
4,note_on,65,54,0
4,note_on,65,0,80
4,note_on,62,0,0
4,note_on,58,47,0
4,note_on,58,0,80
4,note_on,62,43,0
4,note_on,65,54,0
4,note_on,65,0,80
4,note_on,62,0,0
4,note_on,58,47,0
4,note_on,58,0,80
4,note_on,48,38,413
4,note_on,51,48,0
4,note_on,51,0,41
4,note_on,48,0,0
4,note_on,41,40,0
4,note_on,41,0,80
4,note_on,48,38,0
4,note_on,51,48,0
4,note_on,51,0,80
4,note_on,48,0,0
4,note_on,41,41,0
4,note_on,41,0,80
4,note_on,48,38,0
4,note_on,51,48,0
4,note_on,51,0,80
4,note_on,48,0,0
4,note_on,41,41,0
4,note_on,41,0,80
4,note_on,50,45,0
4,note_on,50,0,27
4,note_on,46,37,0
4,note_on,46,0,80
4,note_on,50,45,0
4,note_on,50,0,80
4,note_on,46,36,0
4,note_on,46,0,80
4,note_on,50,44,0
4,note_on,50,0,80
4,note_on,46,35,0
4,note_on,46,0,80
4,note_on,50,44,0
4,note_on,50,0,24
4,note_on,46,35,0
4,note_on,46,0,80
4,note_on,50,43,0
4,note_on,50,0,80
4,note_on,46,35,0
4,note_on,46,0,80
4,note_on,50,43,0
4,note_on,50,0,80
4,note_on,46,34,0
4,note_on,46,0,80
4,note_on,50,42,0
4,note_on,50,0,31
4,note_on,46,34,0
4,note_on,46,0,80
4,note_on,50,42,0
4,note_on,50,0,80
4,note_on,46,34,0
4,note_on,46,0,80
4,note_on,50,41,0
4,note_on,50,0,80
4,note_on,46,30,0
4,note_on,46,0,80
4,note_on,51,41,0
4,note_on,51,0,24
4,note_on,46,32,0
4,note_on,46,0,80
4,note_on,51,40,0
4,note_on,51,0,80
4,note_on,46,30,0
4,note_on,46,0,80
4,note_on,51,40,0
4,note_on,51,0,80
4,note_on,46,30,0
4,note_on,46,0,80
4,note_on,51,39,0
4,note_on,51,0,68
4,note_on,45,31,0
4,note_on,45,0,75
4,note_on,51,39,0
4,note_on,51,0,80
4,note_on,45,29,0
4,note_on,45,0,80
4,note_on,51,38,0
4,note_on,51,0,80
4,note_on,45,29,0
4,note_on,45,0,80
4,note_on,51,38,0
4,note_on,51,0,16
4,note_on,45,29,0
4,note_on,45,0,80
4,note_on,51,37,0
4,note_on,51,0,80
4,note_on,45,29,0
4,note_on,45,0,80
4,note_on,51,37,0
4,note_on,51,0,80
4,note_on,45,29,0
4,note_on,45,0,80
4,note_on,51,39,0
4,note_on,51,0,31
4,note_on,46,32,0
4,note_on,46,0,80
4,note_on,51,39,0
4,note_on,51,0,80
4,note_on,46,32,0
4,note_on,46,0,80
4,note_on,51,38,0
4,note_on,51,0,80
4,note_on,46,28,0
4,note_on,46,0,80
4,note_on,51,38,0
4,note_on,51,0,80
4,note_on,46,30,0
4,note_on,46,0,80
4,note_on,51,37,0
4,note_on,51,0,80
4,note_on,46,28,0
4,note_on,46,0,80
4,note_on,51,37,0
4,note_on,51,0,80
4,note_on,46,28,0
4,note_on,46,0,80
4,note_on,50,36,0
4,note_on,50,0,68
4,note_on,46,29,0
4,note_on,46,0,75
4,note_on,50,36,0
4,note_on,50,0,80
4,note_on,46,27,0
4,note_on,46,0,80
4,note_on,50,36,0
4,note_on,50,0,80
4,note_on,46,27,0
4,note_on,46,0,80
4,note_on,50,36,0
4,note_on,50,0,80
4,note_on,46,27,0
4,note_on,46,0,80
4,note_on,50,35,0
4,note_on,50,0,80
4,note_on,46,27,0
4,note_on,46,0,80
4,note_on,50,35,0
4,note_on,50,0,80
4,note_on,46,27,0
4,note_on,46,0,80
4,note_on,48,50,0
4,note_on,48,0,16
4,note_on,45,42,0
4,note_on,45,0,80
4,note_on,48,50,0
4,note_on,48,0,80
4,note_on,45,44,0
4,note_on,45,0,80
4,note_on,48,51,0
4,note_on,48,0,80
4,note_on,45,45,0
4,note_on,45,0,80
4,note_on,48,52,0
4,note_on,48,0,80
4,note_on,45,46,0
4,note_on,45,0,80
4,note_on,48,53,0
4,note_on,48,0,80
4,note_on,45,46,0
4,note_on,45,0,80
4,note_on,48,54,0
4,note_on,48,0,80
4,note_on,45,47,0
4,note_on,45,0,80
4,note_on,47,64,1380
4,note_on,47,0,37
4,note_on,55,55,0
4,note_on,55,0,80
4,note_on,47,63,0
4,note_on,47,0,80
4,note_on,55,53,0
4,note_on,55,0,80
4,note_on,47,63,0
4,note_on,47,0,80
4,note_on,55,55,0
4,note_on,55,0,80
4,note_on,48,63,0
4,note_on,48,0,29
4,note_on,57,55,0
4,note_on,57,0,80
4,note_on,48,63,0
4,note_on,48,0,80
4,note_on,57,53,0
4,note_on,57,0,80
4,note_on,48,62,0
4,note_on,48,0,80
4,note_on,57,53,0
4,note_on,57,0,80
4,note_on,50,62,0
4,note_on,50,0,37
4,note_on,59,54,0
4,note_on,59,0,80
4,note_on,50,63,0
4,note_on,50,0,80
4,note_on,59,57,0
4,note_on,59,0,80
4,note_on,50,64,0
4,note_on,50,0,80
4,note_on,59,59,0
4,note_on,59,0,80
4,note_on,51,67,0
4,note_on,51,0,37
4,note_on,60,54,0
4,note_on,60,0,80
4,note_on,51,60,0
4,note_on,51,0,80
4,note_on,60,52,0
4,note_on,60,0,80
4,note_on,51,60,0
4,note_on,51,0,80
4,note_on,60,52,0
4,note_on,60,0,80
4,note_on,53,59,0
4,note_on,53,0,40
4,note_on,62,53,0
4,note_on,62,0,80
4,note_on,53,58,0
4,note_on,53,0,80
4,note_on,62,51,0
4,note_on,62,0,80
4,note_on,53,58,0
4,note_on,53,0,80
4,note_on,62,51,0
4,note_on,62,0,80
4,note_on,55,57,0
4,note_on,55,0,43
4,note_on,63,51,0
4,note_on,63,0,80
4,note_on,55,56,0
4,note_on,55,0,80
4,note_on,63,50,0
4,note_on,63,0,80
4,note_on,55,57,0
4,note_on,55,0,80
4,note_on,63,51,0
4,note_on,63,0,80
4,note_on,56,54,29
4,note_on,56,0,80
4,note_on,53,60,0
4,note_on,53,0,80
4,note_on,56,54,0
4,note_on,56,0,80
4,note_on,53,60,0
4,note_on,53,0,80
4,note_on,56,54,0
4,note_on,56,0,80
4,note_on,55,52,40
4,note_on,55,0,80
4,note_on,51,57,0
4,note_on,51,0,80
4,note_on,55,53,0
4,note_on,55,0,80
4,note_on,51,57,0
4,note_on,51,0,80
4,note_on,55,54,0
4,note_on,55,0,80
4,note_on,53,56,29
4,note_on,53,0,80
4,note_on,44,61,0
4,note_on,44,0,80
4,note_on,53,55,0
4,note_on,53,0,80
4,note_on,44,61,0
4,note_on,44,0,80
4,note_on,53,61,0
4,note_on,53,0,80
4,note_on,51,54,46
4,note_on,51,0,80
4,note_on,43,60,0
4,note_on,43,0,80
4,note_on,51,56,0
4,note_on,51,0,80
4,note_on,43,61,0
4,note_on,43,0,80
4,note_on,51,55,0
4,note_on,51,0,80
4,note_on,50,58,29
4,note_on,50,0,80
4,note_on,41,63,0
4,note_on,41,0,80
4,note_on,50,57,0
4,note_on,50,0,80
4,note_on,41,63,0
4,note_on,41,0,80
4,note_on,50,56,0
4,note_on,50,0,80
4,note_on,48,59,34
4,note_on,48,0,80
4,note_on,39,63,0
4,note_on,39,0,80
4,note_on,48,60,0
4,note_on,48,0,80
4,note_on,39,64,0
4,note_on,39,0,80
4,note_on,48,59,0
4,note_on,48,0,80
4,note_on,47,60,20
4,note_on,47,0,80
4,note_on,38,65,0
4,note_on,38,0,80
4,note_on,47,59,0
4,note_on,47,0,80
4,note_on,38,64,0
4,note_on,38,0,80
4,note_on,47,62,0
4,note_on,47,0,80
4,note_on,39,75,0
4,note_on,39,0,6
4,note_on,48,62,0
4,note_on,48,0,80
4,note_on,39,66,0
4,note_on,39,0,80
4,note_on,48,61,0
4,note_on,48,0,80
4,note_on,39,65,0
4,note_on,39,0,80
4,note_on,48,61,0
4,note_on,48,0,80
4,note_on,40,77,0
4,note_on,40,0,51
4,note_on,46,63,0
4,note_on,46,0,80
4,note_on,34,67,0
4,note_on,40,67,0
4,note_on,40,0,80
4,note_on,46,63,0
4,note_on,46,0,80
4,note_on,34,0,0
4,note_on,34,67,0
4,note_on,40,66,0
4,note_on,40,0,80
4,note_on,46,63,0
4,note_on,46,0,80
4,note_on,34,0,0
4,note_on,49,64,914
4,note_on,49,0,17
4,note_on,57,55,0
4,note_on,57,0,80
4,note_on,49,63,0
4,note_on,49,0,80
4,note_on,57,53,0
4,note_on,57,0,80
4,note_on,49,63,0
4,note_on,49,0,80
4,note_on,57,55,0
4,note_on,57,0,80
4,note_on,50,63,0
4,note_on,50,0,29
4,note_on,59,55,0
4,note_on,59,0,80
4,note_on,50,63,0
4,note_on,50,0,80
4,note_on,59,53,0
4,note_on,59,0,80
4,note_on,50,62,0
4,note_on,50,0,80
4,note_on,59,53,0
4,note_on,59,0,80
4,note_on,52,62,0
4,note_on,52,0,37
4,note_on,61,54,0
4,note_on,61,0,80
4,note_on,52,61,0
4,note_on,52,0,80
4,note_on,61,53,0
4,note_on,61,0,80
4,note_on,52,62,0
4,note_on,52,0,80
4,note_on,61,54,0
4,note_on,61,0,80
4,note_on,53,65,0
4,note_on,53,0,37
4,note_on,62,55,0
4,note_on,62,0,80
4,note_on,53,60,0
4,note_on,53,0,80
4,note_on,62,52,0
4,note_on,62,0,80
4,note_on,53,60,0
4,note_on,53,0,80
4,note_on,62,52,0
4,note_on,62,0,80
4,note_on,55,59,0
4,note_on,55,0,40
4,note_on,64,53,0
4,note_on,64,0,80
4,note_on,55,58,0
4,note_on,55,0,80
4,note_on,64,51,0
4,note_on,64,0,80
4,note_on,55,58,0
4,note_on,55,0,80
4,note_on,64,51,0
4,note_on,64,0,80
4,note_on,57,57,0
4,note_on,57,0,43
4,note_on,65,51,0
4,note_on,65,0,80
4,note_on,57,56,0
4,note_on,57,0,80
4,note_on,65,50,0
4,note_on,65,0,80
4,note_on,57,57,0
4,note_on,57,0,80
4,note_on,65,51,0
4,note_on,65,0,80
4,note_on,58,54,29
4,note_on,58,0,80
4,note_on,55,60,0
4,note_on,55,0,80
4,note_on,58,53,0
4,note_on,58,0,80
4,note_on,55,60,0
4,note_on,55,0,80
4,note_on,58,54,0
4,note_on,58,0,80
4,note_on,57,52,40
4,note_on,57,0,80
4,note_on,53,57,0
4,note_on,53,0,80
4,note_on,57,51,0
4,note_on,57,0,80
4,note_on,53,57,0
4,note_on,53,0,80
4,note_on,57,53,0
4,note_on,57,0,80
4,note_on,55,55,29
4,note_on,55,0,80
4,note_on,46,61,0
4,note_on,46,0,80
4,note_on,55,54,0
4,note_on,55,0,80
4,note_on,46,61,0
4,note_on,46,0,80
4,note_on,55,54,0
4,note_on,55,0,80
4,note_on,53,54,46
4,note_on,53,0,80
4,note_on,45,60,0
4,note_on,45,0,80
4,note_on,53,54,0
4,note_on,53,0,80
4,note_on,45,61,0
4,note_on,45,0,80
4,note_on,53,55,0
4,note_on,53,0,80
4,note_on,52,57,29
4,note_on,52,0,80
4,note_on,43,63,0
4,note_on,43,0,80
4,note_on,52,56,0
4,note_on,52,0,80
4,note_on,43,63,0
4,note_on,43,0,80
4,note_on,52,57,0
4,note_on,52,0,80
4,note_on,50,58,34
4,note_on,50,0,80
4,note_on,41,63,0
4,note_on,41,0,80
4,note_on,50,58,0
4,note_on,50,0,80
4,note_on,41,64,0
4,note_on,41,0,80
4,note_on,50,60,0
4,note_on,50,0,80
4,note_on,49,61,20
4,note_on,49,0,80
4,note_on,40,65,0
4,note_on,40,0,80
4,note_on,49,59,0
4,note_on,49,0,80
4,note_on,40,64,0
4,note_on,40,0,80
4,note_on,49,60,0
4,note_on,49,0,80
4,note_on,45,75,0
4,note_on,41,64,0
4,note_on,41,0,6
4,note_on,45,0,0
4,note_on,50,63,0
4,note_on,50,0,80
4,note_on,45,57,0
4,note_on,38,57,0
4,note_on,41,66,0
4,note_on,41,0,80
4,note_on,38,0,0
4,note_on,45,0,0
4,note_on,50,62,0
4,note_on,50,0,80
4,note_on,45,63,0
4,note_on,38,63,0
4,note_on,41,65,0
4,note_on,41,0,80
4,note_on,38,0,0
4,note_on,45,0,0
4,note_on,50,62,0
4,note_on,50,0,80
4,note_on,45,77,0
4,note_on,40,77,0
4,note_on,40,0,51
4,note_on,45,0,0
4,note_on,49,63,0
4,note_on,49,0,80
4,note_on,45,67,0
4,note_on,37,67,0
4,note_on,40,67,0
4,note_on,40,0,80
4,note_on,37,0,0
4,note_on,45,0,0
4,note_on,49,62,0
4,note_on,49,0,80
4,note_on,40,66,0
4,note_on,37,67,0
4,note_on,45,66,0
4,note_on,45,0,80
4,note_on,37,0,0
4,note_on,40,0,0
4,note_on,49,63,0
4,note_on,49,0,80
4,note_on,56,76,411
4,note_on,56,0,86
4,note_on,40,63,120
4,note_on,40,0,120
4,note_on,60,74,120
4,note_on,60,0,77
4,note_on,52,63,120
4,note_on,52,0,120
4,note_on,59,75,120
4,note_on,59,0,89
4,note_on,40,64,120
4,note_on,40,0,120
4,note_on,58,75,120
4,note_on,58,0,80
4,note_on,52,64,120
4,note_on,52,0,120
4,note_on,51,77,120
4,note_on,57,77,0
4,note_on,57,0,57
4,note_on,51,0,0
4,note_on,40,64,120
4,note_on,40,0,120
4,note_on,52,67,120
4,note_on,56,80,0
4,note_on,56,0,71
4,note_on,52,0,0
4,note_on,57,73,411
4,note_on,57,0,86
4,note_on,41,63,120
4,note_on,41,0,120
4,note_on,61,76,120
4,note_on,61,0,77
4,note_on,53,63,120
4,note_on,53,0,120
4,note_on,60,72,120
4,note_on,60,0,89
4,note_on,41,64,120
4,note_on,41,0,120
4,note_on,59,72,120
4,note_on,59,0,80
4,note_on,53,64,120
4,note_on,53,0,120
4,note_on,52,62,120
4,note_on,58,72,0
4,note_on,58,0,57
4,note_on,52,0,0
4,note_on,41,64,120
4,note_on,41,0,120
4,note_on,53,62,120
4,note_on,57,72,0
4,note_on,57,0,71
4,note_on,53,0,0
4,note_on,55,72,411
4,note_on,55,0,86
4,note_on,43,63,120
4,note_on,43,0,120
4,note_on,59,63,120
4,note_on,62,72,0
4,note_on,62,0,77
4,note_on,59,0,0
4,note_on,47,63,120
4,note_on,47,0,120
4,note_on,60,72,120
4,note_on,60,0,89
4,note_on,48,64,120
4,note_on,48,0,120
4,note_on,58,72,120
4,note_on,58,0,80
4,note_on,46,64,120
4,note_on,46,0,120
4,note_on,57,62,120
4,note_on,60,72,0
4,note_on,60,0,57
4,note_on,57,0,0
4,note_on,45,64,120
4,note_on,45,0,120
4,note_on,55,62,120
4,note_on,57,72,0
4,note_on,57,0,71
4,note_on,55,0,0
4,note_on,43,64,120
4,note_on,43,0,120
4,note_on,53,72,120
4,note_on,53,0,86
4,note_on,41,63,120
4,note_on,41,0,120
4,note_on,57,63,120
4,note_on,60,72,0
4,note_on,60,0,77
4,note_on,57,0,0
4,note_on,45,63,120
4,note_on,45,0,120
4,note_on,58,72,120
4,note_on,58,0,89
4,note_on,46,64,120
4,note_on,46,0,120
4,note_on,57,72,120
4,note_on,57,0,80
4,note_on,45,64,120
4,note_on,45,0,120
4,note_on,55,62,120
4,note_on,58,72,0
4,note_on,58,0,57
4,note_on,55,0,0
4,note_on,43,64,120
4,note_on,43,0,120
4,note_on,53,62,120
4,note_on,57,72,0
4,note_on,57,0,71
4,note_on,53,0,0
4,note_on,41,64,120
4,note_on,41,0,120
4,note_on,51,72,120
4,note_on,51,0,86
4,note_on,39,63,120
4,note_on,39,0,120
4,note_on,55,63,120
4,note_on,58,72,0
4,note_on,58,0,77
4,note_on,55,0,0
4,note_on,43,63,120
4,note_on,43,0,120
4,note_on,57,72,120
4,note_on,57,0,89
4,note_on,45,64,120
4,note_on,45,0,120
4,note_on,55,72,120
4,note_on,55,0,80
4,note_on,43,64,120
4,note_on,43,0,120
4,note_on,54,62,120
4,note_on,57,72,0
4,note_on,57,0,57
4,note_on,54,0,0
4,note_on,42,64,120
4,note_on,42,0,120
4,note_on,51,62,120
4,note_on,55,72,0
4,note_on,55,0,71
4,note_on,51,0,0
4,note_on,39,64,120
4,note_on,39,0,120
4,note_on,50,72,120
4,note_on,50,0,86
4,note_on,38,63,120
4,note_on,38,0,120
4,note_on,54,63,120
4,note_on,57,72,0
4,note_on,57,0,77
4,note_on,54,0,0
4,note_on,42,63,120
4,note_on,42,0,120
4,note_on,55,72,120
4,note_on,55,0,89
4,note_on,43,64,120
4,note_on,43,0,120
4,note_on,53,70,120
4,note_on,57,72,0
4,note_on,57,0,80
4,note_on,53,0,0
4,note_on,41,64,120
4,note_on,41,0,120
4,note_on,51,62,120
4,note_on,55,72,0
4,note_on,55,0,57
4,note_on,51,0,0
4,note_on,39,64,120
4,note_on,39,0,120
4,note_on,51,62,120
4,note_on,55,72,0
4,note_on,55,0,71
4,note_on,51,0,0
4,note_on,58,45,420
4,note_on,58,0,34
4,note_on,55,39,0
4,note_on,55,0,80
4,note_on,58,44,0
4,note_on,58,0,80
4,note_on,55,41,0
4,note_on,55,0,80
4,note_on,58,49,0
4,note_on,58,0,80
4,note_on,55,46,0
4,note_on,55,0,80
4,note_on,59,53,0
4,note_on,59,0,45
4,note_on,55,47,0
4,note_on,55,0,80
4,note_on,59,53,0
4,note_on,59,0,80
4,note_on,55,50,0
4,note_on,55,0,80
4,note_on,59,54,0
4,note_on,59,0,80
4,note_on,55,50,0
4,note_on,55,0,80
4,note_on,60,59,0
4,note_on,60,0,17
4,note_on,55,52,0
4,note_on,55,0,80
4,note_on,60,54,0
4,note_on,60,0,80
4,note_on,55,45,0
4,note_on,55,0,80
4,note_on,60,51,0
4,note_on,60,0,80
4,note_on,55,44,0
4,note_on,55,0,80
4,note_on,60,64,0
4,note_on,60,0,23
4,note_on,55,50,0
4,note_on,55,0,80
4,note_on,60,60,0
4,note_on,60,0,80
4,note_on,55,50,0
4,note_on,55,0,80
4,note_on,60,56,0
4,note_on,60,0,80
4,note_on,55,46,0
4,note_on,57,51,80
4,note_on,63,63,0
4,note_on,63,0,46
4,note_on,60,48,0
4,note_on,60,0,80
4,note_on,63,56,0
4,note_on,63,0,80
4,note_on,60,48,0
4,note_on,60,0,80
4,note_on,63,54,0
4,note_on,63,0,80
4,note_on,60,45,0
4,note_on,60,0,80
4,note_on,63,52,0
4,note_on,63,0,80
4,note_on,60,39,0
4,note_on,60,0,80
4,note_on,63,47,0
4,note_on,63,0,80
4,note_on,60,38,0
4,note_on,60,0,80
4,note_on,63,45,0
4,note_on,63,0,80
4,note_on,60,37,0
4,note_on,60,0,80
4,note_on,57,0,0
4,note_on,55,0,0
4,note_on,58,45,0
4,note_on,58,0,34
4,note_on,55,39,0
4,note_on,55,0,80
4,note_on,58,44,0
4,note_on,58,0,80
4,note_on,55,41,0
4,note_on,55,0,80
4,note_on,58,49,0
4,note_on,58,0,80
4,note_on,55,46,0
4,note_on,55,0,80
4,note_on,59,53,0
4,note_on,59,0,45
4,note_on,55,47,0
4,note_on,55,0,80
4,note_on,59,53,0
4,note_on,59,0,80
4,note_on,55,50,0
4,note_on,55,0,80
4,note_on,59,54,0
4,note_on,59,0,80
4,note_on,55,50,0
4,note_on,55,0,80
4,note_on,60,59,0
4,note_on,60,0,17
4,note_on,55,52,0
4,note_on,55,0,80
4,note_on,60,54,0
4,note_on,60,0,80
4,note_on,55,45,0
4,note_on,55,0,80
4,note_on,60,51,0
4,note_on,60,0,80
4,note_on,55,44,0
4,note_on,55,0,80
4,note_on,60,64,0
4,note_on,60,0,23
4,note_on,55,50,0
4,note_on,55,0,80
4,note_on,60,60,0
4,note_on,60,0,80
4,note_on,55,50,0
4,note_on,55,0,80
4,note_on,60,56,0
4,note_on,60,0,80
4,note_on,55,46,0
4,note_on,57,63,80
4,note_on,57,0,46
4,note_on,60,48,0
4,note_on,60,0,80
4,note_on,57,56,0
4,note_on,57,0,80
4,note_on,60,48,0
4,note_on,60,0,80
4,note_on,57,54,0
4,note_on,57,0,80
4,note_on,60,45,0
4,note_on,60,0,80
4,note_on,57,52,0
4,note_on,57,0,80
4,note_on,60,39,0
4,note_on,60,0,80
4,note_on,57,47,0
4,note_on,57,0,80
4,note_on,60,38,0
4,note_on,60,0,80
4,note_on,57,45,0
4,note_on,57,0,80
4,note_on,60,37,0
4,note_on,60,0,80
4,note_on,55,0,0
4,note_on,46,45,0
4,note_on,46,0,34
4,note_on,43,39,0
4,note_on,43,0,80
4,note_on,46,44,0
4,note_on,46,0,80
4,note_on,43,41,0
4,note_on,43,0,80
4,note_on,46,49,0
4,note_on,46,0,80
4,note_on,43,46,0
4,note_on,43,0,80
4,note_on,47,53,0
4,note_on,47,0,45
4,note_on,43,47,0
4,note_on,43,0,80
4,note_on,47,53,0
4,note_on,47,0,80
4,note_on,43,50,0
4,note_on,43,0,80
4,note_on,47,54,0
4,note_on,47,0,80
4,note_on,43,50,0
4,note_on,43,0,80
4,note_on,52,59,0
4,note_on,52,0,17
4,note_on,43,52,0
4,note_on,43,0,80
4,note_on,52,54,0
4,note_on,52,0,80
4,note_on,43,46,0
4,note_on,43,0,80
4,note_on,52,52,0
4,note_on,52,0,80
4,note_on,43,45,0
4,note_on,43,0,80
4,note_on,52,52,0
4,note_on,52,0,80
4,note_on,43,41,0
4,note_on,43,0,80
4,note_on,52,50,0
4,note_on,52,0,80
4,note_on,43,43,0
4,note_on,43,0,80
4,note_on,52,50,0
4,note_on,52,0,80
4,note_on,43,41,0
4,note_on,43,0,80
4,note_on,51,57,0
4,note_on,51,0,46
4,note_on,43,45,0
4,note_on,43,0,80
4,note_on,51,53,0
4,note_on,51,0,80
4,note_on,43,46,0
4,note_on,43,0,80
4,note_on,51,54,0
4,note_on,51,0,80
4,note_on,43,45,0
4,note_on,43,0,80
4,note_on,51,54,0
4,note_on,51,0,80
4,note_on,43,42,0
4,note_on,43,0,80
4,note_on,51,52,0
4,note_on,51,0,80
4,note_on,43,42,0
4,note_on,43,0,80
4,note_on,51,51,0
4,note_on,51,0,80
4,note_on,43,44,0
4,note_on,43,0,80
