Track,Message Type,Note,Velocity,Time
1,note_on,79,72,390
1,note_on,85,72,30
1,note_on,88,77,30
1,note_on,94,79,30
1,note_on,79,0,150
1,note_on,85,0,30
1,note_on,88,0,30
1,note_on,94,0,30
1,note_on,74,68,630
1,note_on,80,69,30
1,note_on,83,71,30
1,note_on,89,73,30
1,note_on,74,0,150
1,note_on,80,0,30
1,note_on,83,0,30
1,note_on,89,0,30
1,note_on,69,59,675
1,note_on,75,61,15
1,note_on,78,64,15
1,note_on,84,66,15
1,note_on,69,0,195
1,note_on,75,0,15
1,note_on,78,0,15
1,note_on,84,0,15
1,note_on,64,59,195
1,note_on,70,60,15
1,note_on,73,63,15
1,note_on,79,64,15
1,note_on,64,0,195
1,note_on,70,0,15
1,note_on,73,0,15
1,note_on,79,0,15
1,note_on,59,59,195
1,note_on,65,62,15
1,note_on,68,65,15
1,note_on,74,68,15
1,note_on,59,0,195
1,note_on,65,0,15
1,note_on,68,0,15
1,note_on,74,0,15
1,note_on,54,62,195
1,note_on,60,65,15
1,note_on,63,68,15
1,note_on,69,71,15
1,note_on,54,0,195
1,note_on,60,0,15
1,note_on,63,0,15
1,note_on,69,0,15
1,note_on,55,65,195
1,note_on,61,67,15
1,note_on,64,69,15
1,note_on,70,71,15
1,note_on,55,0,195
1,note_on,61,0,15
1,note_on,64,0,15
1,note_on,70,0,15
1,note_on,56,69,210
1,note_on,59,73,15
1,note_on,65,77,15
1,note_on,56,0,210
1,note_on,59,0,15
1,note_on,65,0,15
1,note_on,53,70,210
1,note_on,56,73,15
1,note_on,62,76,15
1,note_on,53,0,210
1,note_on,56,0,15
1,note_on,62,0,15
1,note_on,57,70,195
1,note_on,62,74,15
1,note_on,65,77,15
1,note_on,69,78,15
1,note_on,57,0,195
1,note_on,62,0,15
1,note_on,65,0,15
1,note_on,69,0,15
1,note_on,81,84,720
1,note_on,69,71,0
1,note_on,77,71,0
1,note_on,74,71,0
1,note_on,74,0,240
1,note_on,81,0,0
1,note_on,69,0,0
1,note_on,77,0,0
1,note_on,79,71,720
1,note_on,93,84,0
1,note_on,85,71,0
1,note_on,88,71,0
1,note_on,81,71,0
1,note_on,81,0,240
1,note_on,85,0,0
1,note_on,79,0,0
1,note_on,93,0,0
1,note_on,88,0,0
1,note_on,45,39,1800
1,note_on,46,42,120
1,note_on,45,0,60
1,note_on,49,43,60
1,note_on,46,0,60
1,note_on,53,46,60
1,note_on,49,0,60
1,note_on,52,45,36
1,note_on,53,0,48
1,note_on,50,44,48
1,note_on,52,0,48
1,note_on,49,43,48
1,note_on,50,0,48
1,note_on,46,41,48
1,note_on,49,0,48
1,note_on,45,43,48
1,note_on,46,0,48
1,note_on,46,43,32
1,note_on,45,0,41
1,note_on,49,44,39
1,note_on,46,0,40
1,note_on,50,45,40
1,note_on,49,0,40
1,note_on,52,47,40
1,note_on,50,0,40
1,note_on,53,48,40
1,note_on,52,0,40
1,note_on,58,50,40
1,note_on,53,0,40
1,note_on,57,49,40
1,note_on,58,0,40
1,note_on,55,48,40
1,note_on,57,0,40
1,note_on,53,47,40
1,note_on,55,0,40
1,note_on,52,45,40
1,note_on,53,0,40
1,note_on,50,44,40
1,note_on,52,0,40
1,note_on,49,45,40
1,note_on,50,0,40
1,note_on,50,44,20
1,note_on,49,0,30
1,note_on,52,45,30
1,note_on,50,0,30
1,note_on,53,46,30
1,note_on,52,0,30
1,note_on,55,48,30
1,note_on,53,0,30
1,note_on,57,48,30
1,note_on,55,0,30
1,note_on,58,49,30
1,note_on,57,0,30
1,note_on,61,49,30
1,note_on,58,0,30
1,note_on,65,51,30
1,note_on,61,0,30
1,note_on,64,51,66
1,note_on,65,0,48
1,note_on,62,50,48
1,note_on,64,0,48
1,note_on,61,50,48
1,note_on,62,0,48
1,note_on,58,50,48
1,note_on,61,0,48
1,note_on,57,50,48
1,note_on,58,0,48
1,note_on,58,51,32
1,note_on,57,0,40
1,note_on,61,52,40
1,note_on,58,0,40
1,note_on,62,53,40
1,note_on,61,0,40
1,note_on,64,54,40
1,note_on,62,0,40
1,note_on,65,56,40
1,note_on,64,0,40
1,note_on,70,57,40
1,note_on,65,0,40
1,note_on,69,57,40
1,note_on,70,0,40
1,note_on,67,56,40
1,note_on,69,0,40
1,note_on,65,54,40
1,note_on,67,0,40
1,note_on,64,53,40
1,note_on,65,0,40
1,note_on,62,52,40
1,note_on,64,0,40
1,note_on,61,53,40
1,note_on,62,0,40
1,note_on,62,54,20
1,note_on,61,0,30
1,note_on,64,56,30
1,note_on,62,0,30
1,note_on,65,56,30
1,note_on,64,0,30
1,note_on,67,57,30
1,note_on,65,0,30
1,note_on,69,57,30
1,note_on,67,0,30
1,note_on,70,59,30
1,note_on,69,0,30
1,note_on,73,60,30
1,note_on,70,0,30
1,note_on,77,61,30
1,note_on,73,0,30
1,note_on,76,61,66
1,note_on,77,0,48
1,note_on,74,60,48
1,note_on,76,0,48
1,note_on,73,59,48
1,note_on,74,0,48
1,note_on,70,58,48
1,note_on,73,0,48
1,note_on,69,58,48
1,note_on,70,0,48
1,note_on,70,58,32
1,note_on,69,0,40
1,note_on,73,60,40
1,note_on,70,0,40
1,note_on,74,61,40
1,note_on,73,0,40
1,note_on,76,62,40
1,note_on,74,0,40
1,note_on,77,63,40
1,note_on,76,0,40
1,note_on,82,63,40
1,note_on,77,0,40
1,note_on,81,63,40
1,note_on,82,0,40
1,note_on,79,62,40
1,note_on,81,0,40
1,note_on,77,61,40
1,note_on,79,0,40
1,note_on,76,60,40
1,note_on,77,0,40
1,note_on,74,59,40
1,note_on,76,0,40
1,note_on,73,58,40
1,note_on,74,0,40
1,note_on,74,58,20
1,note_on,73,0,30
1,note_on,76,59,30
1,note_on,74,0,30
1,note_on,77,60,30
1,note_on,76,0,30
1,note_on,79,62,30
1,note_on,77,0,30
1,note_on,81,63,30
1,note_on,79,0,30
1,note_on,82,64,30
1,note_on,81,0,30
1,note_on,85,65,30
1,note_on,82,0,30
1,note_on,89,66,30
1,note_on,85,0,30
1,note_on,88,66,66
1,note_on,89,0,48
1,note_on,86,65,48
1,note_on,88,0,48
1,note_on,85,65,48
1,note_on,86,0,48
1,note_on,82,64,48
1,note_on,85,0,48
1,note_on,81,65,48
1,note_on,82,0,48
1,note_on,82,68,48
1,note_on,81,0,48
1,note_on,85,70,48
1,note_on,82,0,48
1,note_on,86,71,48
1,note_on,85,0,48
1,note_on,88,72,48
1,note_on,86,0,48
1,note_on,89,74,48
1,note_on,88,0,48
1,note_on,91,76,48
1,note_on,89,0,48
1,note_on,93,78,48
1,note_on,91,0,48
1,note_on,94,80,48
1,note_on,93,0,48
1,note_on,97,81,48
1,note_on,94,0,48
1,note_on,101,85,48
1,note_on,97,0,48
1,note_on,101,0,12
1,note_on,100,85,0
1,note_on,100,0,60
1,note_on,98,84,0
1,note_on,98,0,60
1,note_on,97,84,0
1,note_on,97,0,60
1,note_on,94,83,0
1,note_on,94,0,60
1,note_on,93,83,0
1,note_on,93,0,60
1,note_on,91,83,0
1,note_on,91,0,60
1,note_on,89,82,0
1,note_on,89,0,60
1,note_on,88,82,0
1,note_on,88,0,60
1,note_on,86,81,0
1,note_on,86,0,60
1,note_on,85,81,0
1,note_on,85,0,60
1,note_on,82,80,0
1,note_on,82,0,60
1,note_on,81,80,0
1,note_on,81,0,60
1,note_on,79,80,0
1,note_on,79,0,60
1,note_on,77,79,0
1,note_on,77,0,60
1,note_on,76,79,0
1,note_on,76,0,60
1,note_on,74,79,0
1,note_on,74,0,60
1,note_on,73,79,0
1,note_on,73,0,60
1,note_on,70,78,0
1,note_on,70,0,60
1,note_on,69,78,0
1,note_on,69,0,60
1,note_on,67,78,0
1,note_on,67,0,60
1,note_on,65,77,0
1,note_on,65,0,60
1,note_on,64,77,0
1,note_on,64,0,60
1,note_on,62,77,0
1,note_on,62,0,60
1,note_on,61,78,0
1,note_on,61,0,60
1,note_on,58,78,0
1,note_on,58,0,60
1,note_on,57,79,0
1,note_on,57,0,60
1,note_on,55,80,0
1,note_on,55,0,60
1,note_on,53,81,0
1,note_on,53,0,60
1,note_on,52,82,0
1,note_on,52,0,60
1,note_on,50,82,0
1,note_on,50,0,60
1,note_on,49,82,0
1,note_on,49,0,60
1,note_on,46,80,0
1,note_on,46,0,48
1,note_on,45,80,0
1,note_on,45,0,48
1,note_on,43,82,0
1,note_on,43,0,48
1,note_on,41,83,0
1,note_on,41,0,48
1,note_on,40,84,0
1,note_on,40,0,48
1,note_on,86,97,0
1,note_on,77,76,0
1,note_on,74,76,0
1,note_on,52,48,240
1,note_on,56,60,0
1,note_on,56,0,120
1,note_on,52,0,0
1,note_on,57,63,0
1,note_on,53,50,0
1,note_on,53,0,120
1,note_on,57,0,0
1,note_on,64,65,0
1,note_on,61,51,0
1,note_on,61,0,120
1,note_on,64,0,0
1,note_on,62,54,0
1,note_on,65,67,0
1,note_on,65,0,120
1,note_on,62,0,0
1,note_on,64,55,0
1,note_on,68,69,0
1,note_on,68,0,120
1,note_on,64,0,0
1,note_on,65,56,0
1,note_on,69,71,0
1,note_on,69,0,120
1,note_on,86,0,0
1,note_on,74,0,0
1,note_on,77,0,0
1,note_on,65,0,0
1,note_on,77,79,0
1,note_on,74,75,0
1,note_on,86,101,0
1,note_on,52,48,240
1,note_on,56,60,0
1,note_on,56,0,120
1,note_on,52,0,0
1,note_on,53,50,0
1,note_on,57,63,0
1,note_on,57,0,120
1,note_on,77,0,0
1,note_on,86,0,0
1,note_on,74,0,0
1,note_on,53,0,0
1,note_on,61,51,0
1,note_on,64,65,0
1,note_on,64,0,120
1,note_on,61,0,0
1,note_on,62,54,0
1,note_on,65,67,0
1,note_on,65,0,120
1,note_on,62,0,0
1,note_on,64,69,0
1,note_on,68,69,0
1,note_on,68,0,120
1,note_on,64,0,0
1,note_on,65,56,0
1,note_on,69,71,0
1,note_on,84,89,60
1,note_on,72,70,0
1,note_on,72,0,60
1,note_on,65,0,0
1,note_on,69,0,0
1,note_on,84,0,0
1,note_on,70,75,0
1,note_on,76,77,0
1,note_on,82,100,0
1,note_on,54,48,240
1,note_on,57,60,0
1,note_on,57,0,120
1,note_on,54,0,0
1,note_on,58,63,0
1,note_on,55,50,0
1,note_on,55,0,120
1,note_on,58,0,0
1,note_on,63,51,0
1,note_on,66,65,0
1,note_on,66,0,120
1,note_on,63,0,0
1,note_on,64,54,0
1,note_on,67,67,0
1,note_on,67,0,120
1,note_on,64,0,0
1,note_on,69,69,0
1,note_on,66,55,0
1,note_on,66,0,120
1,note_on,69,0,0
1,note_on,70,71,0
1,note_on,67,56,0
1,note_on,67,0,120
1,note_on,70,0,0
1,note_on,82,0,0
1,note_on,76,0,0
1,note_on,70,0,0
1,note_on,76,72,0
1,note_on,82,92,0
1,note_on,70,72,0
1,note_on,57,60,240
1,note_on,54,48,0
1,note_on,54,0,120
1,note_on,57,0,0
1,note_on,58,63,0
1,note_on,55,50,0
1,note_on,55,0,120
1,note_on,76,0,0
1,note_on,70,0,0
1,note_on,82,0,0
1,note_on,58,0,0
1,note_on,63,51,0
1,note_on,66,65,0
1,note_on,66,0,120
1,note_on,63,0,0
1,note_on,67,67,0
1,note_on,64,54,0
1,note_on,64,0,120
1,note_on,67,0,0
1,note_on,69,69,0
1,note_on,66,69,0
1,note_on,66,0,120
1,note_on,69,0,0
1,note_on,70,71,0
1,note_on,67,56,0
1,note_on,67,0,60
1,note_on,70,0,0
1,note_on,70,70,0
1,note_on,82,89,0
1,note_on,82,0,60
1,note_on,70,0,0
1,note_on,81,95,0
1,note_on,76,75,0
1,note_on,69,75,0
1,note_on,51,48,240
1,note_on,54,60,0
1,note_on,54,0,120
1,note_on,51,0,0
1,note_on,52,50,0
1,note_on,55,63,0
1,note_on,55,0,120
1,note_on,81,0,0
1,note_on,69,0,0
1,note_on,76,0,0
1,note_on,52,0,0
1,note_on,60,51,0
1,note_on,63,65,0
1,note_on,63,0,120
1,note_on,60,0,0
1,note_on,61,54,0
1,note_on,64,67,0
1,note_on,64,0,120
1,note_on,61,0,0
1,note_on,66,69,0
1,note_on,63,69,0
1,note_on,63,0,120
1,note_on,66,0,0
1,note_on,64,56,0
1,note_on,67,71,0
1,note_on,69,70,60
1,note_on,81,89,0
1,note_on,81,0,60
1,note_on,64,0,0
1,note_on,67,0,0
1,note_on,69,0,0
1,note_on,79,75,0
1,note_on,88,95,0
1,note_on,76,75,0
1,note_on,51,48,240
1,note_on,54,60,0
1,note_on,54,0,120
1,note_on,51,0,0
1,note_on,52,50,0
1,note_on,55,63,0
1,note_on,55,0,120
1,note_on,79,0,0
1,note_on,76,0,0
1,note_on,88,0,0
1,note_on,52,0,0
1,note_on,60,51,0
1,note_on,63,65,0
1,note_on,63,0,120
1,note_on,60,0,0
1,note_on,64,67,0
1,note_on,61,54,0
1,note_on,61,0,120
1,note_on,64,0,0
1,note_on,66,69,0
1,note_on,63,69,0
1,note_on,63,0,120
1,note_on,66,0,0
1,note_on,67,71,0
1,note_on,64,56,0
1,note_on,64,0,60
1,note_on,67,0,0
1,note_on,79,80,0
1,note_on,67,62,0
1,note_on,67,0,60
1,note_on,79,0,0
1,note_on,65,67,0
1,note_on,69,67,0
1,note_on,77,85,0
1,note_on,56,50,240
1,note_on,52,38,0
1,note_on,52,0,120
1,note_on,56,0,0
1,note_on,53,41,0
1,note_on,57,51,0
1,note_on,57,0,120
1,note_on,65,0,0
1,note_on,77,0,0
1,note_on,69,0,0
1,note_on,53,0,0
1,note_on,64,53,0
1,note_on,61,41,0
1,note_on,61,0,120
1,note_on,64,0,0
1,note_on,62,43,0
1,note_on,65,54,0
1,note_on,65,0,120
1,note_on,62,0,0
1,note_on,68,55,0
1,note_on,64,55,0
1,note_on,64,0,120
1,note_on,68,0,0
1,note_on,69,56,0
1,note_on,65,44,0
1,note_on,65,0,60
1,note_on,69,0,0
1,note_on,69,64,0
1,note_on,81,82,0
1,note_on,81,0,60
1,note_on,69,0,0
1,note_on,62,70,0
1,note_on,74,88,0
1,note_on,65,70,0
1,note_on,56,49,240
1,note_on,52,38,0
1,note_on,52,0,120
1,note_on,56,0,0
1,note_on,57,50,0
1,note_on,53,39,0
1,note_on,53,0,120
1,note_on,62,0,0
1,note_on,65,0,0
1,note_on,74,0,0
1,note_on,57,0,0
1,note_on,61,41,0
1,note_on,64,51,0
1,note_on,64,0,120
1,note_on,61,0,0
1,note_on,65,52,0
1,note_on,62,42,0
1,note_on,62,0,120
1,note_on,65,0,0
1,note_on,68,53,0
1,note_on,64,53,0
1,note_on,64,0,120
1,note_on,68,0,0
1,note_on,69,54,0
1,note_on,65,43,0
1,note_on,65,0,120
1,note_on,69,0,0
1,note_on,72,65,0
1,note_on,76,65,0
1,note_on,84,83,0
1,note_on,59,51,240
1,note_on,54,40,0
1,note_on,54,0,120
1,note_on,59,0,0
1,note_on,55,42,0
1,note_on,60,52,0
1,note_on,60,0,120
1,note_on,55,0,0
1,note_on,63,55,0
1,note_on,59,43,0
1,note_on,59,0,120
1,note_on,63,0,0
1,note_on,64,57,0
1,note_on,60,44,0
1,note_on,60,0,120
1,note_on,72,0,0
1,note_on,84,0,0
1,note_on,76,0,0
1,note_on,64,0,0
1,note_on,66,46,0
1,note_on,71,58,0
1,note_on,71,0,120
1,note_on,66,0,0
1,note_on,67,47,0
1,note_on,72,59,0
1,note_on,72,0,120
1,note_on,67,0,0
1,note_on,79,58,0
1,note_on,72,58,0
1,note_on,84,73,0
1,note_on,54,40,240
1,note_on,59,51,0
1,note_on,59,0,120
1,note_on,54,0,0
1,note_on,60,52,0
1,note_on,55,42,0
1,note_on,55,0,120
1,note_on,79,0,0
1,note_on,84,0,0
1,note_on,72,0,0
1,note_on,60,0,0
1,note_on,59,43,0
1,note_on,63,55,0
1,note_on,63,0,120
1,note_on,59,0,0
1,note_on,60,44,0
1,note_on,64,57,0
1,note_on,64,0,120
1,note_on,60,0,0
1,note_on,66,58,0
1,note_on,63,58,0
1,note_on,63,0,120
1,note_on,66,0,0
1,note_on,64,47,0
1,note_on,67,59,0
1,note_on,70,54,60
1,note_on,82,69,0
1,note_on,82,0,60
1,note_on,64,0,0
1,note_on,67,0,0
1,note_on,70,0,0
1,note_on,77,58,0
1,note_on,81,73,0
1,note_on,69,58,0
1,note_on,56,40,240
1,note_on,59,51,0
1,note_on,59,0,120
1,note_on,56,0,0
1,note_on,60,52,0
1,note_on,57,42,0
1,note_on,57,0,120
1,note_on,77,0,0
1,note_on,69,0,0
1,note_on,81,0,0
1,note_on,60,0,0
1,note_on,59,43,0
1,note_on,64,55,0
1,note_on,64,0,120
1,note_on,59,0,0
1,note_on,60,44,0
1,note_on,65,57,0
1,note_on,65,0,120
1,note_on,60,0,0
1,note_on,71,58,0
1,note_on,68,58,0
1,note_on,68,0,120
1,note_on,71,0,0
1,note_on,69,47,0
1,note_on,72,59,0
1,note_on,72,54,60
1,note_on,84,69,0
1,note_on,84,0,60
1,note_on,69,0,0
1,note_on,72,0,0
1,note_on,72,0,0
1,note_on,77,73,0
1,note_on,69,58,0
1,note_on,65,58,0
1,note_on,59,51,240
1,note_on,56,40,0
1,note_on,56,0,120
1,note_on,59,0,0
1,note_on,60,52,0
1,note_on,57,42,0
1,note_on,57,0,120
1,note_on,77,0,0
1,note_on,65,0,0
1,note_on,69,0,0
1,note_on,60,0,0
1,note_on,64,55,0
1,note_on,59,43,0
1,note_on,59,0,120
1,note_on,64,0,0
1,note_on,60,44,0
1,note_on,65,57,0
1,note_on,65,0,120
1,note_on,60,0,0
1,note_on,68,58,0
1,note_on,64,58,0
1,note_on,64,0,120
1,note_on,68,0,0
1,note_on,69,59,0
1,note_on,65,47,0
1,note_on,65,0,120
1,note_on,69,0,0
1,note_on,76,65,0
1,note_on,88,90,0
1,note_on,80,69,0
1,note_on,58,48,240
1,note_on,55,37,0
1,note_on,55,0,120
1,note_on,58,0,0
1,note_on,59,50,0
1,note_on,56,40,0
1,note_on,56,0,120
1,note_on,59,0,0
1,note_on,63,41,0
1,note_on,67,52,0
1,note_on,67,0,120
1,note_on,63,0,0
1,note_on,68,55,0
1,note_on,64,43,0
1,note_on,64,0,120
1,note_on,68,0,0
1,note_on,67,43,0
1,note_on,70,56,0
1,note_on,70,0,120
1,note_on,67,0,0
1,note_on,71,58,0
1,note_on,68,46,0
1,note_on,68,0,120
1,note_on,76,0,0
1,note_on,80,0,0
1,note_on,88,0,0
1,note_on,71,0,0
1,note_on,83,65,0
1,note_on,76,65,0
1,note_on,88,82,0
1,note_on,55,40,240
1,note_on,58,50,0
1,note_on,58,0,120
1,note_on,55,0,0
1,note_on,59,52,0
1,note_on,56,42,0
1,note_on,56,0,120
1,note_on,83,0,0
1,note_on,88,0,0
1,note_on,76,0,0
1,note_on,59,0,0
1,note_on,67,55,0
1,note_on,63,43,0
1,note_on,63,0,120
1,note_on,67,0,0
1,note_on,68,57,0
1,note_on,64,44,0
1,note_on,64,0,120
1,note_on,68,0,0
1,note_on,67,58,0
1,note_on,70,58,0
1,note_on,70,0,120
1,note_on,67,0,0
1,note_on,68,51,0
1,note_on,71,65,0
1,note_on,86,74,60
1,note_on,74,58,0
1,note_on,74,0,60
1,note_on,68,0,0
1,note_on,71,0,0
1,note_on,86,0,0
1,note_on,73,63,0
1,note_on,81,63,0
1,note_on,85,79,0
1,note_on,60,42,240
1,note_on,63,52,0
1,note_on,63,0,120
1,note_on,60,0,0
1,note_on,64,55,0
1,note_on,61,43,0
1,note_on,61,0,120
1,note_on,73,0,0
1,note_on,85,0,0
1,note_on,81,0,0
1,note_on,64,0,0
1,note_on,68,44,0
1,note_on,72,57,0
1,note_on,72,0,120
1,note_on,68,0,0
1,note_on,69,47,0
1,note_on,73,59,0
1,note_on,73,0,120
1,note_on,69,0,0
1,note_on,72,62,0
1,note_on,75,62,0
1,note_on,75,0,120
1,note_on,72,0,0
1,note_on,73,52,0
1,note_on,76,66,0
1,note_on,76,0,60
1,note_on,73,0,0
1,note_on,88,78,0
1,note_on,76,60,0
1,note_on,76,0,60
1,note_on,88,0,0
1,note_on,73,65,0
1,note_on,69,65,0
1,note_on,81,82,0
1,note_on,60,46,240
1,note_on,63,58,0
1,note_on,63,0,120
1,note_on,60,0,0
1,note_on,61,48,0
1,note_on,64,60,0
1,note_on,64,0,120
1,note_on,73,0,0
1,note_on,81,0,0
1,note_on,69,0,0
1,note_on,61,0,0
1,note_on,68,50,0
1,note_on,72,63,0
1,note_on,72,0,120
1,note_on,68,0,0
1,note_on,69,52,0
1,note_on,73,65,0
1,note_on,73,0,120
1,note_on,69,0,0
1,note_on,72,67,0
1,note_on,75,67,0
1,note_on,75,0,120
1,note_on,72,0,0
1,note_on,76,70,0
1,note_on,73,55,0
1,note_on,69,63,60
1,note_on,81,80,0
1,note_on,81,0,60
1,note_on,76,0,0
1,note_on,73,0,0
1,note_on,69,0,0
1,note_on,85,78,0
1,note_on,79,78,0
1,note_on,91,98,0
1,note_on,63,48,240
1,note_on,66,60,0
1,note_on,66,0,120
1,note_on,63,0,0
1,note_on,67,63,0
1,note_on,64,50,0
1,note_on,64,0,120
1,note_on,67,0,0
1,note_on,72,51,0
1,note_on,75,65,0
1,note_on,75,0,120
1,note_on,72,0,0
1,note_on,73,54,0
1,note_on,76,67,0
1,note_on,76,0,120
1,note_on,85,0,0
1,note_on,91,0,0
1,note_on,79,0,0
1,note_on,73,0,0
1,note_on,78,69,0
1,note_on,75,55,0
1,note_on,75,0,120
1,note_on,78,0,0
1,note_on,76,56,0
1,note_on,79,71,0
1,note_on,79,0,120
1,note_on,76,0,0
1,note_on,69,69,0
1,note_on,81,87,0
1,note_on,63,48,240
1,note_on,66,60,0
1,note_on,66,0,120
1,note_on,63,0,0
1,note_on,64,50,0
1,note_on,67,63,0
1,note_on,67,0,120
1,note_on,69,0,0
1,note_on,81,0,0
1,note_on,64,0,0
1,note_on,75,65,0
1,note_on,72,51,0
1,note_on,72,0,120
1,note_on,75,0,0
1,note_on,73,54,0
1,note_on,76,67,0
1,note_on,76,0,120
1,note_on,73,0,0
1,note_on,78,69,0
1,note_on,75,69,0
1,note_on,75,0,120
1,note_on,78,0,0
1,note_on,76,56,0
1,note_on,79,71,0
1,note_on,81,81,60
1,note_on,69,64,0
1,note_on,69,0,60
1,note_on,76,0,0
1,note_on,79,0,0
1,note_on,81,0,0
1,note_on,78,78,0
1,note_on,84,78,0
1,note_on,90,98,0
1,note_on,62,48,240
1,note_on,65,60,0
1,note_on,65,0,120
1,note_on,62,0,0
1,note_on,63,50,0
1,note_on,66,63,0
1,note_on,66,0,120
1,note_on,63,0,0
1,note_on,71,51,0
1,note_on,74,65,0
1,note_on,74,0,120
1,note_on,71,0,0
1,note_on,72,54,0
1,note_on,75,67,0
1,note_on,75,0,120
1,note_on,78,0,0
1,note_on,90,0,0
1,note_on,84,0,0
1,note_on,72,0,0
1,note_on,77,69,0
1,note_on,74,55,0
1,note_on,74,0,120
1,note_on,77,0,0
1,note_on,78,71,0
1,note_on,75,56,0
1,note_on,75,0,120
1,note_on,78,0,0
1,note_on,69,69,0
1,note_on,81,87,0
1,note_on,62,48,240
1,note_on,65,60,0
1,note_on,65,0,120
1,note_on,62,0,0
1,note_on,63,50,0
1,note_on,66,63,0
1,note_on,66,0,120
1,note_on,69,0,0
1,note_on,81,0,0
1,note_on,63,0,0
1,note_on,74,65,0
1,note_on,71,51,0
1,note_on,71,0,120
1,note_on,74,0,0
1,note_on,72,54,0
1,note_on,75,67,0
1,note_on,75,0,120
1,note_on,72,0,0
1,note_on,77,69,0
1,note_on,74,69,0
1,note_on,74,0,120
1,note_on,77,0,0
1,note_on,75,56,0
1,note_on,78,71,0
1,note_on,69,64,60
1,note_on,81,81,0
1,note_on,81,0,60
1,note_on,75,0,0
1,note_on,78,0,0
1,note_on,69,0,0
1,note_on,80,69,0
1,note_on,77,69,0
1,note_on,89,87,0
1,note_on,64,60,240
1,note_on,61,48,0
1,note_on,61,0,120
1,note_on,64,0,0
1,note_on,65,63,0
1,note_on,62,50,0
1,note_on,62,0,120
1,note_on,80,0,0
1,note_on,89,0,0
1,note_on,77,0,0
1,note_on,65,0,0
1,note_on,70,65,0
1,note_on,67,51,0
1,note_on,67,0,120
1,note_on,70,0,0
1,note_on,68,54,0
1,note_on,71,67,0
1,note_on,71,0,120
1,note_on,68,0,0
1,note_on,76,69,0
1,note_on,73,69,0
1,note_on,73,0,120
1,note_on,76,0,0
1,note_on,74,56,0
1,note_on,77,71,0
1,note_on,89,81,60
1,note_on,77,64,0
1,note_on,77,0,60
1,note_on,74,0,0
1,note_on,77,0,0
1,note_on,89,0,0
1,note_on,76,69,0
1,note_on,80,69,0
1,note_on,88,87,0
1,note_on,58,60,240
1,note_on,55,48,0
1,note_on,55,0,120
1,note_on,58,0,0
1,note_on,56,50,0
1,note_on,59,63,0
1,note_on,59,0,120
1,note_on,76,0,0
1,note_on,88,0,0
1,note_on,80,0,0
1,note_on,56,0,0
1,note_on,63,51,0
1,note_on,67,65,0
1,note_on,67,0,120
1,note_on,63,0,0
1,note_on,68,54,0
1,note_on,64,67,0
1,note_on,64,0,120
1,note_on,68,0,0
1,note_on,70,69,0
1,note_on,67,69,0
1,note_on,67,0,120
1,note_on,70,0,0
1,note_on,68,56,0
1,note_on,71,71,0
1,note_on,74,64,60
1,note_on,86,81,0
1,note_on,86,0,60
1,note_on,68,0,0
1,note_on,71,0,0
1,note_on,74,0,0
1,note_on,81,69,0
1,note_on,85,87,0
1,note_on,73,69,0
1,note_on,60,48,240
1,note_on,63,60,0
1,note_on,63,0,120
1,note_on,60,0,0
1,note_on,64,63,0
1,note_on,61,50,0
1,note_on,61,0,120
1,note_on,81,0,0
1,note_on,73,0,0
1,note_on,85,0,0
1,note_on,64,0,0
1,note_on,72,65,0
1,note_on,68,51,0
1,note_on,68,0,120
1,note_on,72,0,0
1,note_on,69,54,0
1,note_on,73,67,0
1,note_on,73,0,120
1,note_on,69,0,0
1,note_on,75,69,0
1,note_on,72,69,0
1,note_on,72,0,120
1,note_on,75,0,0
1,note_on,73,56,0
1,note_on,76,71,0
1,note_on,76,0,60
1,note_on,73,0,0
1,note_on,88,81,0
1,note_on,76,64,0
1,note_on,76,0,60
1,note_on,88,0,0
1,note_on,73,69,0
1,note_on,81,87,0
1,note_on,69,69,0
1,note_on,56,48,240
1,note_on,60,60,0
1,note_on,60,0,120
1,note_on,56,0,0
1,note_on,61,63,0
1,note_on,57,50,0
1,note_on,57,0,120
1,note_on,73,0,0
1,note_on,69,0,0
1,note_on,81,0,0
1,note_on,61,0,0
1,note_on,60,51,0
1,note_on,63,65,0
1,note_on,63,0,120
1,note_on,60,0,0
1,note_on,61,54,0
1,note_on,64,67,0
1,note_on,64,0,120
1,note_on,61,0,0
1,note_on,68,69,0
1,note_on,63,69,0
1,note_on,63,0,120
1,note_on,68,0,0
1,note_on,64,56,0
1,note_on,69,71,0
1,note_on,69,0,120
1,note_on,64,0,0
1,note_on,79,88,0
1,note_on,73,70,0
1,note_on,67,70,0
1,note_on,51,42,240
1,note_on,54,54,0
1,note_on,54,0,120
1,note_on,51,0,0
1,note_on,52,44,0
1,note_on,55,56,0
1,note_on,55,0,120
1,note_on,52,0,0
1,note_on,60,46,0
1,note_on,63,58,0
1,note_on,63,0,120
1,note_on,60,0,0
1,note_on,61,48,0
1,note_on,64,60,0
1,note_on,64,0,120
1,note_on,79,0,0
1,note_on,67,0,0
1,note_on,73,0,0
1,note_on,61,0,0
1,note_on,63,49,0
1,note_on,66,62,0
1,note_on,66,0,120
1,note_on,63,0,0
1,note_on,67,63,0
1,note_on,64,50,0
1,note_on,64,0,120
1,note_on,67,0,0
1,note_on,69,78,0
1,note_on,57,62,0
1,note_on,51,42,240
1,note_on,54,54,0
1,note_on,54,0,120
1,note_on,51,0,0
1,note_on,52,44,0
1,note_on,55,56,0
1,note_on,55,0,120
1,note_on,69,0,0
1,note_on,57,0,0
1,note_on,52,0,0
1,note_on,63,58,0
1,note_on,60,46,0
1,note_on,60,0,120
1,note_on,63,0,0
1,note_on,64,60,0
1,note_on,61,48,0
1,note_on,61,0,120
1,note_on,64,0,0
1,note_on,63,62,0
1,note_on,66,62,0
1,note_on,66,0,120
1,note_on,63,0,0
1,note_on,64,50,0
1,note_on,67,63,0
1,note_on,69,72,60
1,note_on,57,57,0
1,note_on,57,0,60
1,note_on,64,0,0
1,note_on,67,0,0
1,note_on,69,0,0
1,note_on,78,88,0
1,note_on,72,70,0
1,note_on,66,70,0
1,note_on,53,54,240
1,note_on,50,42,0
1,note_on,50,0,120
1,note_on,53,0,0
1,note_on,51,44,0
1,note_on,54,56,0
1,note_on,54,0,120
1,note_on,51,0,0
1,note_on,62,58,0
1,note_on,59,46,0
1,note_on,59,0,120
1,note_on,62,0,0
1,note_on,63,60,0
1,note_on,60,48,0
1,note_on,60,0,120
1,note_on,78,0,0
1,note_on,66,0,0
1,note_on,72,0,0
1,note_on,63,0,0
1,note_on,65,62,0
1,note_on,62,49,0
1,note_on,62,0,120
1,note_on,65,0,0
1,note_on,63,50,0
1,note_on,66,63,0
1,note_on,66,0,120
1,note_on,63,0,0
1,note_on,57,62,0
1,note_on,69,78,0
1,note_on,53,54,240
1,note_on,50,42,0
1,note_on,50,0,120
1,note_on,53,0,0
1,note_on,51,44,0
1,note_on,54,56,0
1,note_on,54,0,120
1,note_on,57,0,0
1,note_on,69,0,0
1,note_on,51,0,0
1,note_on,59,46,0
1,note_on,62,58,0
1,note_on,62,0,120
1,note_on,59,0,0
1,note_on,63,60,0
1,note_on,60,48,0
1,note_on,60,0,120
1,note_on,63,0,0
1,note_on,62,62,0
1,note_on,65,62,0
1,note_on,65,0,120
1,note_on,62,0,0
1,note_on,66,63,0
1,note_on,63,50,0
1,note_on,57,57,60
1,note_on,69,72,0
1,note_on,69,0,60
1,note_on,66,0,0
1,note_on,63,0,0
1,note_on,57,0,0
1,note_on,65,62,0
1,note_on,68,62,0
1,note_on,77,78,0
1,note_on,52,54,240
1,note_on,49,42,0
1,note_on,49,0,120
1,note_on,52,0,0
1,note_on,53,56,0
1,note_on,50,44,0
1,note_on,50,0,120
1,note_on,65,0,0
1,note_on,77,0,0
1,note_on,68,0,0
1,note_on,53,0,0
1,note_on,55,46,0
1,note_on,58,58,0
1,note_on,58,0,120
1,note_on,55,0,0
1,note_on,59,60,0
1,note_on,56,48,0
1,note_on,56,0,120
1,note_on,59,0,0
1,note_on,64,62,0
1,note_on,61,62,0
1,note_on,61,0,120
1,note_on,64,0,0
1,note_on,65,63,0
1,note_on,62,50,0
1,note_on,62,0,60
1,note_on,65,0,0
1,note_on,77,72,0
1,note_on,65,57,0
1,note_on,65,0,60
1,note_on,77,0,0
1,note_on,76,78,0
1,note_on,68,62,0
1,note_on,64,62,0
1,note_on,49,42,240
1,note_on,52,54,0
1,note_on,52,0,120
1,note_on,49,0,0
1,note_on,53,56,0
1,note_on,50,44,0
1,note_on,50,0,120
1,note_on,76,0,0
1,note_on,64,0,0
1,note_on,68,0,0
1,note_on,53,0,0
1,note_on,57,46,0
1,note_on,61,58,0
1,note_on,61,0,120
1,note_on,57,0,0
1,note_on,58,60,0
1,note_on,62,48,0
1,note_on,62,0,120
1,note_on,58,0,0
1,note_on,55,62,0
1,note_on,63,62,0
1,note_on,63,0,120
1,note_on,55,0,0
1,note_on,64,63,0
1,note_on,56,50,0
1,note_on,74,72,60
1,note_on,62,57,0
1,note_on,62,0,60
1,note_on,64,0,0
1,note_on,56,0,0
1,note_on,74,0,0
1,note_on,69,78,0
1,note_on,61,62,0
1,note_on,57,62,0
1,note_on,57,0,240
1,note_on,61,0,0
1,note_on,69,0,0
1,note_on,64,46,240
1,note_on,73,70,0
1,note_on,64,0,160
1,note_on,65,46,0
1,note_on,65,0,160
1,note_on,66,47,0
1,note_on,66,0,160
1,note_on,73,0,0
1,note_on,76,73,0
1,note_on,67,48,0
1,note_on,67,0,160
1,note_on,68,48,0
1,note_on,68,0,160
1,note_on,69,49,0
1,note_on,69,0,160
1,note_on,76,0,0
1,note_on,79,77,0
1,note_on,70,50,0
1,note_on,70,0,160
1,note_on,71,50,0
1,note_on,71,0,160
1,note_on,72,51,0
1,note_on,72,0,160
1,note_on,79,0,0
1,note_on,82,80,0
1,note_on,73,51,0
1,note_on,73,0,160
1,note_on,74,52,0
1,note_on,74,0,160
1,note_on,76,52,0
1,note_on,76,0,160
1,note_on,82,0,0
1,note_on,71,43,0
1,note_on,83,77,0
1,note_on,71,0,160
1,note_on,77,55,0
1,note_on,77,0,160
1,note_on,80,55,0
1,note_on,80,0,160
1,note_on,83,0,0
1,note_on,76,62,0
1,note_on,85,62,0
1,note_on,81,62,0
1,note_on,88,78,0
1,note_on,88,0,240
1,note_on,76,0,0
1,note_on,85,0,0
1,note_on,81,0,0
1,note_on,85,70,240
1,note_on,76,46,0
1,note_on,76,0,160
1,note_on,77,46,0
1,note_on,77,0,160
1,note_on,78,47,0
1,note_on,78,0,160
1,note_on,85,0,0
1,note_on,79,48,0
1,note_on,88,73,0
1,note_on,79,0,160
1,note_on,80,48,0
1,note_on,80,0,160
1,note_on,81,49,0
1,note_on,81,0,160
1,note_on,88,0,0
1,note_on,82,50,0
1,note_on,91,77,0
1,note_on,82,0,160
1,note_on,83,50,0
1,note_on,83,0,160
1,note_on,84,51,0
1,note_on,84,0,160
1,note_on,91,0,0
1,note_on,94,80,0
1,note_on,85,51,0
1,note_on,85,0,160
1,note_on,86,52,0
1,note_on,86,0,160
1,note_on,88,52,0
1,note_on,88,0,160
1,note_on,94,0,0
1,note_on,95,77,0
1,note_on,83,50,0
1,note_on,83,0,160
1,note_on,89,55,0
1,note_on,89,0,160
1,note_on,92,55,0
1,note_on,92,0,160
1,note_on,95,0,0
1,note_on,93,67,0
1,note_on,97,67,0
1,note_on,88,67,0
1,note_on,100,85,0
1,note_on,100,0,240
1,note_on,93,0,0
1,note_on,97,0,0
1,note_on,88,0,0
1,note_on,83,55,240
1,note_on,95,67,0
1,note_on,83,0,160
1,note_on,89,55,0
1,note_on,89,0,160
1,note_on,92,55,0
1,note_on,92,0,160
1,note_on,95,0,0
1,note_on,100,85,0
1,note_on,93,67,0
1,note_on,88,67,0
1,note_on,97,67,0
1,note_on,97,0,240
1,note_on,100,0,0
1,note_on,93,0,0
1,note_on,88,0,0
1,note_on,83,55,240
1,note_on,95,67,0
1,note_on,83,0,160
1,note_on,89,55,0
1,note_on,89,0,160
1,note_on,92,55,0
1,note_on,92,0,160
1,note_on,95,0,0
1,note_on,97,67,0
1,note_on,88,67,0
1,note_on,100,85,0
1,note_on,93,67,0
1,note_on,93,0,240
1,note_on,97,0,0
1,note_on,88,0,0
1,note_on,100,0,0
1,note_on,95,67,240
1,note_on,83,55,0
1,note_on,83,0,160
1,note_on,89,55,0
1,note_on,89,0,160
1,note_on,92,55,0
1,note_on,92,0,160
1,note_on,95,0,0
1,note_on,93,67,0
1,note_on,88,67,0
1,note_on,100,85,0
1,note_on,97,67,0
1,note_on,97,0,240
1,note_on,93,0,0
1,note_on,88,0,0
1,note_on,100,0,0
1,note_on,82,73,240
1,note_on,70,62,0
1,note_on,70,0,320
1,note_on,82,0,0
1,note_on,69,56,0
1,note_on,81,67,0
1,note_on,81,0,160
1,note_on,69,0,0
1,note_on,67,62,0
1,note_on,79,74,0
1,note_on,79,0,160
1,note_on,67,0,0
1,note_on,77,70,0
1,note_on,65,59,0
1,note_on,65,0,160
1,note_on,77,0,0
1,note_on,76,70,0
1,note_on,64,59,0
1,note_on,64,0,160
1,note_on,76,0,0
1,note_on,74,64,0
1,note_on,62,54,0
1,note_on,62,0,160
1,note_on,74,0,0
1,note_on,61,60,0
1,note_on,73,71,0
1,note_on,73,0,160
1,note_on,61,0,0
1,note_on,64,56,0
1,note_on,76,67,0
1,note_on,76,0,160
1,note_on,64,0,0
1,note_on,60,62,0
1,note_on,72,73,0
1,note_on,72,0,160
1,note_on,60,0,0
1,note_on,76,69,0
1,note_on,64,58,0
1,note_on,64,0,160
1,note_on,76,0,0
1,note_on,71,73,0
1,note_on,59,62,0
1,note_on,59,0,160
1,note_on,71,0,0
1,note_on,76,67,0
1,note_on,64,56,0
1,note_on,64,0,160
1,note_on,76,0,0
1,note_on,70,76,0
1,note_on,58,64,0
1,note_on,58,0,160
1,note_on,70,0,0
1,note_on,76,70,0
1,note_on,64,59,0
1,note_on,64,0,160
1,note_on,76,0,0
1,note_on,69,81,0
1,note_on,57,68,0
1,note_on,57,0,240
1,note_on,69,0,0
1,note_on,85,76,240
1,note_on,73,76,0
1,note_on,73,0,320
1,note_on,85,0,0
1,note_on,70,57,0
1,note_on,82,68,0
1,note_on,82,0,160
1,note_on,70,0,0
1,note_on,81,73,0
1,note_on,69,62,0
1,note_on,69,0,160
1,note_on,81,0,0
1,note_on,67,59,0
1,note_on,79,70,0
1,note_on,79,0,160
1,note_on,67,0,0
1,note_on,77,68,0
1,note_on,65,57,0
1,note_on,65,0,160
1,note_on,77,0,0
1,note_on,76,72,0
1,note_on,64,61,0
1,note_on,64,0,160
1,note_on,76,0,0
1,note_on,79,64,0
1,note_on,67,54,0
1,note_on,67,0,160
1,note_on,79,0,0
1,note_on,75,72,0
1,note_on,63,61,0
1,note_on,63,0,160
1,note_on,75,0,0
1,note_on,79,66,0
1,note_on,67,56,0
1,note_on,67,0,160
1,note_on,79,0,0
1,note_on,62,62,0
1,note_on,74,73,0
1,note_on,74,0,160
1,note_on,62,0,0
1,note_on,79,66,0
1,note_on,67,56,0
1,note_on,67,0,160
1,note_on,79,0,0
1,note_on,73,74,0
1,note_on,61,62,0
1,note_on,61,0,160
1,note_on,73,0,0
1,note_on,79,67,0
1,note_on,67,56,0
1,note_on,67,0,160
1,note_on,79,0,0
1,note_on,58,63,0
1,note_on,70,75,0
1,note_on,70,0,160
1,note_on,58,0,0
1,note_on,67,69,0
1,note_on,79,86,0
1,note_on,79,0,120
1,note_on,67,0,0
1,note_on,57,63,120
1,note_on,69,74,0
1,note_on,69,0,120
1,note_on,57,0,0
1,note_on,88,74,120
1,note_on,76,63,0
1,note_on,76,0,320
1,note_on,88,0,0
1,note_on,74,54,0
1,note_on,86,64,0
1,note_on,86,0,160
1,note_on,74,0,0
1,note_on,85,71,0
1,note_on,73,60,0
1,note_on,73,0,160
1,note_on,85,0,0
1,note_on,82,60,0
1,note_on,70,50,0
1,note_on,70,0,160
1,note_on,82,0,0
1,note_on,81,60,0
1,note_on,69,50,0
1,note_on,69,0,160
1,note_on,81,0,0
1,note_on,91,71,0
1,note_on,79,60,0
1,note_on,79,0,160
1,note_on,91,0,0
1,note_on,89,70,0
1,note_on,77,59,0
1,note_on,77,0,160
1,note_on,89,0,0
1,note_on,88,68,0
1,note_on,76,57,0
1,note_on,76,0,160
1,note_on,88,0,0
1,note_on,86,66,0
1,note_on,74,55,0
1,note_on,74,0,160
1,note_on,86,0,0
1,note_on,85,65,0
1,note_on,73,55,0
1,note_on,73,0,160
1,note_on,85,0,0
1,note_on,82,57,0
1,note_on,94,67,0
1,note_on,94,0,160
1,note_on,82,0,0
1,note_on,81,64,0
1,note_on,93,76,0
1,note_on,93,0,160
1,note_on,81,0,0
1,note_on,79,62,0
1,note_on,91,74,0
1,note_on,91,0,160
1,note_on,79,0,0
1,note_on,77,58,0
1,note_on,89,69,0
1,note_on,89,0,160
1,note_on,77,0,0
1,note_on,76,55,0
1,note_on,88,65,0
1,note_on,88,0,160
1,note_on,76,0,0
1,note_on,88,69,0
1,note_on,100,82,0
1,note_on,100,0,160
1,note_on,88,0,0
1,note_on,98,81,0
1,note_on,86,68,0
1,note_on,86,0,160
1,note_on,98,0,0
1,note_on,97,79,0
1,note_on,85,67,0
1,note_on,85,0,160
1,note_on,97,0,0
1,note_on,82,62,0
1,note_on,94,74,0
1,note_on,94,0,160
1,note_on,82,0,0
1,note_on,93,80,0
1,note_on,81,68,0
1,note_on,81,0,160
1,note_on,93,0,0
1,note_on,94,72,0
1,note_on,82,61,0
1,note_on,82,0,160
1,note_on,94,0,0
1,note_on,91,81,0
1,note_on,79,68,0
1,note_on,79,0,160
1,note_on,91,0,0
1,note_on,82,60,0
1,note_on,94,71,0
1,note_on,94,0,160
1,note_on,82,0,0
1,note_on,89,80,0
1,note_on,77,68,0
1,note_on,77,0,160
1,note_on,89,0,0
1,note_on,91,72,0
1,note_on,79,61,0
1,note_on,79,0,160
1,note_on,91,0,0
1,note_on,88,81,0
1,note_on,76,68,0
1,note_on,76,0,160
1,note_on,88,0,0
1,note_on,79,61,0
1,note_on,91,72,0
1,note_on,91,0,160
1,note_on,79,0,0
1,note_on,74,69,0
1,note_on,86,82,0
1,note_on,86,0,160
1,note_on,74,0,0
1,note_on,76,62,0
1,note_on,88,74,0
1,note_on,88,0,160
1,note_on,76,0,0
1,note_on,73,68,0
1,note_on,85,81,0
1,note_on,85,0,160
1,note_on,73,0,0
1,note_on,76,61,0
1,note_on,88,72,0
1,note_on,88,0,160
1,note_on,76,0,0
1,note_on,82,79,0
1,note_on,70,67,0
1,note_on,70,0,160
1,note_on,82,0,0
1,note_on,85,70,0
1,note_on,73,59,0
1,note_on,73,0,160
1,note_on,85,0,0
1,note_on,69,65,0
1,note_on,81,77,0
1,note_on,81,0,160
1,note_on,69,0,0
1,note_on,70,57,0
1,note_on,82,68,0
1,note_on,82,0,160
1,note_on,70,0,0
1,note_on,79,74,0
1,note_on,67,62,0
1,note_on,67,0,160
1,note_on,79,0,0
1,note_on,70,56,0
1,note_on,82,67,0
1,note_on,82,0,160
1,note_on,70,0,0
1,note_on,77,78,0
1,note_on,65,66,0
1,note_on,65,0,160
1,note_on,77,0,0
1,note_on,67,58,0
1,note_on,79,69,0
1,note_on,79,0,160
1,note_on,67,0,0
1,note_on,64,63,0
1,note_on,76,75,0
1,note_on,76,0,160
1,note_on,64,0,0
1,note_on,67,58,0
1,note_on,79,69,0
1,note_on,79,0,160
1,note_on,67,0,0
1,note_on,74,76,0
1,note_on,62,64,0
1,note_on,62,0,160
1,note_on,74,0,0
1,note_on,76,70,0
1,note_on,64,59,0
1,note_on,64,0,160
1,note_on,76,0,0
1,note_on,73,76,0
1,note_on,61,64,0
1,note_on,61,0,160
1,note_on,73,0,0
1,note_on,64,58,0
1,note_on,76,69,0
1,note_on,76,0,160
1,note_on,64,0,0
1,note_on,70,77,0
1,note_on,58,65,0
1,note_on,58,0,160
1,note_on,70,0,0
1,note_on,73,71,0
1,note_on,61,60,0
1,note_on,61,0,160
1,note_on,73,0,0
1,note_on,69,78,0
1,note_on,57,66,0
1,note_on,57,0,160
1,note_on,69,0,0
1,note_on,70,72,0
1,note_on,58,61,0
1,note_on,58,0,160
1,note_on,70,0,0
1,note_on,56,67,0
1,note_on,68,79,0
1,note_on,68,0,160
1,note_on,56,0,0
1,note_on,57,60,0
1,note_on,69,71,0
1,note_on,69,0,160
1,note_on,57,0,0
1,note_on,55,67,0
1,note_on,67,79,0
1,note_on,67,0,160
1,note_on,55,0,0
1,note_on,69,72,0
1,note_on,57,61,0
1,note_on,57,0,160
1,note_on,69,0,0
1,note_on,54,67,0
1,note_on,66,79,0
1,note_on,66,0,160
1,note_on,54,0,0
1,note_on,57,62,0
1,note_on,69,73,0
1,note_on,69,0,160
1,note_on,57,0,0
1,note_on,65,80,0
1,note_on,53,68,0
1,note_on,53,0,160
1,note_on,65,0,0
1,note_on,57,61,0
1,note_on,69,72,0
1,note_on,69,0,160
1,note_on,57,0,0
1,note_on,64,81,0
1,note_on,52,68,0
1,note_on,52,0,160
1,note_on,64,0,0
1,note_on,69,74,0
1,note_on,57,62,0
1,note_on,57,0,160
1,note_on,69,0,0
1,note_on,63,81,0
1,note_on,51,68,0
1,note_on,51,0,240
1,note_on,63,0,0
1,note_on,57,60,0
1,note_on,69,71,0
1,note_on,69,0,240
1,note_on,57,0,0
1,note_on,60,82,0
1,note_on,48,69,0
1,note_on,48,0,240
1,note_on,60,0,0
1,note_on,57,63,0
1,note_on,69,75,0
1,note_on,69,0,240
1,note_on,57,0,0
1,note_on,49,70,0
1,note_on,61,83,0
1,note_on,61,0,240
1,note_on,49,0,0
1,note_on,57,65,0
1,note_on,69,77,0
1,note_on,69,0,240
1,note_on,57,0,0
1,note_on,86,97,0
1,note_on,74,76,0
1,note_on,77,76,0
1,note_on,64,65,480
1,note_on,61,51,0
1,note_on,61,0,160
1,note_on,64,0,0
1,note_on,62,54,0
1,note_on,65,67,0
1,note_on,65,0,160
1,note_on,62,0,0
1,note_on,77,0,160
1,note_on,74,0,0
1,note_on,86,0,0
1,note_on,86,101,0
1,note_on,77,79,0
1,note_on,74,75,0
1,note_on,74,0,480
1,note_on,77,0,0
1,note_on,86,0,0
1,note_on,64,65,0
1,note_on,61,51,0
1,note_on,61,0,160
1,note_on,64,0,0
1,note_on,62,54,0
1,note_on,65,67,0
1,note_on,65,0,160
1,note_on,62,0,0
1,note_on,72,70,40
1,note_on,84,89,0
1,note_on,84,0,120
1,note_on,72,0,0
1,note_on,82,100,0
1,note_on,76,77,0
1,note_on,70,75,0
1,note_on,70,0,480
1,note_on,76,0,0
1,note_on,82,0,0
1,note_on,63,51,0
1,note_on,66,65,0
1,note_on,66,0,160
1,note_on,63,0,0
1,note_on,64,54,0
1,note_on,67,67,0
1,note_on,67,0,160
1,note_on,64,0,0
1,note_on,70,72,160
1,note_on,76,72,0
1,note_on,82,92,0
1,note_on,82,0,480
1,note_on,76,0,0
1,note_on,70,0,0
1,note_on,63,51,0
1,note_on,66,65,0
1,note_on,66,0,160
1,note_on,63,0,0
1,note_on,64,54,0
1,note_on,67,67,0
1,note_on,67,0,160
1,note_on,64,0,0
1,note_on,70,70,40
1,note_on,82,89,0
1,note_on,82,0,120
1,note_on,70,0,0
1,note_on,69,75,0
1,note_on,76,75,0
1,note_on,81,95,0
1,note_on,81,0,480
1,note_on,76,0,0
1,note_on,69,0,0
1,note_on,63,65,0
1,note_on,60,51,0
1,note_on,60,0,160
1,note_on,63,0,0
1,note_on,61,54,0
1,note_on,64,67,0
1,note_on,64,0,160
1,note_on,61,0,0
1,note_on,69,70,40
1,note_on,81,89,0
1,note_on,81,0,120
1,note_on,69,0,0
1,note_on,88,95,0
1,note_on,79,75,0
1,note_on,76,75,0
1,note_on,76,0,480
1,note_on,79,0,0
1,note_on,88,0,0
1,note_on,60,48,0
1,note_on,63,62,0
1,note_on,63,0,160
1,note_on,60,0,0
1,note_on,61,51,0
1,note_on,64,63,0
1,note_on,64,0,160
1,note_on,61,0,0
1,note_on,67,57,40
1,note_on,79,74,0
1,note_on,79,0,120
1,note_on,67,0,0
1,note_on,65,61,0
1,note_on,69,61,0
1,note_on,77,78,0
1,note_on,77,0,480
1,note_on,69,0,0
1,note_on,65,0,0
1,note_on,64,51,0
1,note_on,61,40,0
1,note_on,61,0,160
1,note_on,64,0,0
1,note_on,62,41,0
1,note_on,65,52,0
1,note_on,65,0,160
1,note_on,62,0,0
1,note_on,69,53,40
1,note_on,81,69,0
1,note_on,81,0,120
1,note_on,69,0,0
1,note_on,65,58,0
1,note_on,74,73,0
1,note_on,62,58,0
1,note_on,62,0,480
1,note_on,74,0,0
1,note_on,65,0,0
1,note_on,64,45,0
1,note_on,61,36,0
1,note_on,61,0,160
1,note_on,64,0,0
1,note_on,62,36,0
1,note_on,65,45,0
1,note_on,65,0,160
1,note_on,62,0,0
1,note_on,76,57,160
1,note_on,84,73,0
1,note_on,72,57,0
1,note_on,72,0,480
1,note_on,84,0,0
1,note_on,76,0,0
1,note_on,63,50,0
1,note_on,59,39,0
1,note_on,59,0,160
1,note_on,63,0,0
1,note_on,60,42,0
1,note_on,64,51,0
1,note_on,64,0,160
1,note_on,60,0,0
1,note_on,79,57,160
1,note_on,72,57,0
1,note_on,84,73,0
1,note_on,84,0,480
1,note_on,72,0,0
1,note_on,79,0,0
1,note_on,66,50,0
1,note_on,63,39,0
1,note_on,63,0,160
1,note_on,66,0,0
1,note_on,64,42,0
1,note_on,67,51,0
1,note_on,67,0,160
1,note_on,64,0,0
1,note_on,70,48,40
1,note_on,82,62,0
1,note_on,82,0,120
1,note_on,70,0,0
1,note_on,68,51,0
1,note_on,80,66,0
1,note_on,72,51,0
1,note_on,72,0,480
1,note_on,80,0,0
1,note_on,68,0,0
1,note_on,64,34,0
1,note_on,67,45,0
1,note_on,67,0,160
1,note_on,64,0,0
1,note_on,68,46,0
1,note_on,65,37,0
1,note_on,65,0,160
1,note_on,68,0,0
1,note_on,72,49,40
1,note_on,84,63,0
1,note_on,84,0,120
1,note_on,72,0,0
1,note_on,65,54,0
1,note_on,68,54,0
1,note_on,77,68,0
1,note_on,77,0,480
1,note_on,68,0,0
1,note_on,65,0,0
1,note_on,67,44,0
1,note_on,64,34,0
1,note_on,64,0,160
1,note_on,67,0,0
1,note_on,68,44,0
1,note_on,65,36,0
1,note_on,65,0,160
1,note_on,68,0,0
1,note_on,87,79,160
1,note_on,79,60,0
1,note_on,75,60,0
1,note_on,75,0,480
1,note_on,79,0,0
1,note_on,87,0,0
1,note_on,66,48,0
1,note_on,62,37,0
1,note_on,62,0,160
1,note_on,66,0,0
1,note_on,67,49,0
1,note_on,63,39,0
1,note_on,63,0,160
1,note_on,67,0,0
1,note_on,75,61,160
1,note_on,87,79,0
1,note_on,82,61,0
1,note_on,82,0,480
1,note_on,87,0,0
1,note_on,75,0,0
1,note_on,66,38,0
1,note_on,69,48,0
1,note_on,69,0,160
1,note_on,66,0,0
1,note_on,70,49,0
1,note_on,67,39,0
1,note_on,67,0,160
1,note_on,70,0,0
1,note_on,73,52,40
1,note_on,85,68,0
1,note_on,85,0,120
1,note_on,73,0,0
1,note_on,80,55,0
1,note_on,72,55,0
1,note_on,84,72,0
1,note_on,84,0,480
1,note_on,72,0,0
1,note_on,80,0,0
1,note_on,71,49,0
1,note_on,67,36,0
1,note_on,67,0,160
1,note_on,71,0,0
1,note_on,68,39,0
1,note_on,72,51,0
1,note_on,72,0,160
1,note_on,68,0,0
1,note_on,75,53,40
1,note_on,87,71,0
1,note_on,87,0,120
1,note_on,75,0,0
1,note_on,80,75,0
1,note_on,68,59,0
1,note_on,72,59,0
1,note_on,72,0,480
1,note_on,68,0,0
1,note_on,80,0,0
1,note_on,71,48,0
1,note_on,67,37,0
1,note_on,67,0,160
1,note_on,71,0,0
1,note_on,68,39,0
1,note_on,72,49,0
1,note_on,72,0,160
1,note_on,68,0,0
1,note_on,77,59,160
1,note_on,89,76,0
1,note_on,83,59,0
1,note_on,83,0,480
1,note_on,89,0,0
1,note_on,77,0,0
1,note_on,73,52,0
1,note_on,70,40,0
1,note_on,70,0,160
1,note_on,73,0,0
1,note_on,74,53,0
1,note_on,71,44,0
1,note_on,71,0,160
1,note_on,74,0,0
1,note_on,89,76,160
1,note_on,77,59,0
1,note_on,83,59,0
1,note_on,83,0,480
1,note_on,77,0,0
1,note_on,89,0,0
1,note_on,73,53,0
1,note_on,70,41,0
1,note_on,70,0,160
1,note_on,73,0,0
1,note_on,74,54,0
1,note_on,71,44,0
1,note_on,71,0,160
1,note_on,74,0,0
1,note_on,77,50,40
1,note_on,89,65,0
1,note_on,89,0,120
1,note_on,77,0,0
1,note_on,92,79,0
1,note_on,80,67,0
1,note_on,84,67,0
1,note_on,84,0,480
1,note_on,80,0,0
1,note_on,92,0,0
1,note_on,67,46,0
1,note_on,71,55,0
1,note_on,71,0,160
1,note_on,67,0,0
1,note_on,72,55,0
1,note_on,68,46,0
1,note_on,68,0,160
1,note_on,72,0,0
1,note_on,80,62,160
1,note_on,87,72,0
1,note_on,75,56,0
1,note_on,75,0,480
1,note_on,87,0,0
1,note_on,80,0,0
1,note_on,71,53,0
1,note_on,67,45,0
1,note_on,67,0,160
1,note_on,71,0,0
1,note_on,68,45,0
1,note_on,72,53,0
1,note_on,72,0,160
1,note_on,68,0,0
1,note_on,89,78,160
1,note_on,83,61,0
1,note_on,77,61,0
1,note_on,77,0,480
1,note_on,83,0,0
1,note_on,89,0,0
1,note_on,70,42,0
1,note_on,73,54,0
1,note_on,73,0,160
1,note_on,70,0,0
1,note_on,74,55,0
1,note_on,71,45,0
1,note_on,71,0,160
1,note_on,74,0,0
1,note_on,77,62,160
1,note_on,83,62,0
1,note_on,89,79,0
1,note_on,89,0,480
1,note_on,83,0,0
1,note_on,77,0,0
1,note_on,70,42,0
1,note_on,73,55,0
1,note_on,73,0,160
1,note_on,70,0,0
1,note_on,71,46,0
1,note_on,74,56,0
1,note_on,74,0,160
1,note_on,71,0,0
1,note_on,77,52,40
1,note_on,89,68,0
1,note_on,89,0,120
1,note_on,77,0,0
1,note_on,92,80,0
1,note_on,80,62,0
1,note_on,84,62,0
1,note_on,84,0,480
1,note_on,80,0,0
1,note_on,92,0,0
1,note_on,71,55,0
1,note_on,67,43,0
1,note_on,67,0,160
1,note_on,71,0,0
1,note_on,72,56,0
1,note_on,68,46,0
1,note_on,68,0,160
1,note_on,72,0,0
1,note_on,92,81,160
1,note_on,80,63,0
1,note_on,80,0,480
1,note_on,92,0,0
1,note_on,70,43,0
1,note_on,73,56,0
1,note_on,73,0,160
1,note_on,70,0,0
1,note_on,74,57,0
1,note_on,71,47,0
1,note_on,71,0,160
1,note_on,74,0,0
1,note_on,80,53,40
1,note_on,92,69,0
1,note_on,92,0,120
1,note_on,80,0,0
1,note_on,81,73,0
1,note_on,93,87,0
1,note_on,93,0,480
1,note_on,81,0,0
1,note_on,73,43,0
1,note_on,76,56,0
1,note_on,76,0,160
1,note_on,73,0,0
1,note_on,74,47,0
1,note_on,77,57,0
1,note_on,77,0,160
1,note_on,74,0,0
1,note_on,89,82,160
1,note_on,77,69,0
1,note_on,77,0,480
1,note_on,89,0,0
1,note_on,73,56,0
1,note_on,68,44,0
1,note_on,68,0,160
1,note_on,73,0,0
1,note_on,69,47,0
1,note_on,74,58,0
1,note_on,74,0,160
1,note_on,69,0,0
1,note_on,74,72,160
1,note_on,86,85,0
1,note_on,86,0,480
1,note_on,74,0,0
1,note_on,64,44,0
1,note_on,68,57,0
1,note_on,68,0,160
1,note_on,64,0,0
1,note_on,69,58,0
1,note_on,65,48,0
1,note_on,65,0,160
1,note_on,69,0,0
1,note_on,81,83,160
1,note_on,69,55,0
1,note_on,69,0,480
1,note_on,81,0,0
1,note_on,64,57,0
1,note_on,61,44,0
1,note_on,61,0,160
1,note_on,64,0,0
1,note_on,65,58,0
1,note_on,62,48,0
1,note_on,62,0,160
1,note_on,65,0,0
1,note_on,70,74,160
1,note_on,82,88,0
1,note_on,82,0,480
1,note_on,70,0,0
1,note_on,66,58,0
1,note_on,62,45,0
1,note_on,62,0,160
1,note_on,66,0,0
1,note_on,63,48,0
1,note_on,67,59,0
1,note_on,67,0,160
1,note_on,63,0,0
1,note_on,79,85,160
1,note_on,67,72,0
1,note_on,67,0,480
1,note_on,79,0,0
1,note_on,57,45,0
1,note_on,62,58,0
1,note_on,62,0,160
1,note_on,57,0,0
1,note_on,58,49,0
1,note_on,63,59,0
1,note_on,63,0,160
1,note_on,58,0,0
1,note_on,76,86,160
1,note_on,64,73,0
1,note_on,64,0,480
1,note_on,76,0,0
1,note_on,57,59,0
1,note_on,54,46,0
1,note_on,54,0,160
1,note_on,57,0,0
1,note_on,55,49,0
1,note_on,58,60,0
1,note_on,58,0,160
1,note_on,55,0,0
1,note_on,69,72,160
1,note_on,81,85,0
1,note_on,81,0,480
1,note_on,69,0,0
1,note_on,63,59,0
1,note_on,60,46,0
1,note_on,60,0,160
1,note_on,63,0,0
1,note_on,61,49,0
1,note_on,64,60,0
1,note_on,64,0,160
1,note_on,61,0,0
1,note_on,57,52,40
1,note_on,69,73,0
1,note_on,69,0,120
1,note_on,57,0,0
1,note_on,62,62,0
1,note_on,74,86,0
1,note_on,74,0,480
1,note_on,62,0,0
1,note_on,57,54,0
1,note_on,54,45,0
1,note_on,54,0,160
1,note_on,57,0,0
1,note_on,64,51,0
1,note_on,68,61,0
1,note_on,68,0,160
1,note_on,64,0,0
1,note_on,69,64,0
1,note_on,65,54,0
1,note_on,65,0,160
1,note_on,69,0,0
1,note_on,80,67,0
1,note_on,76,56,0
1,note_on,76,0,160
1,note_on,80,0,0
1,note_on,81,70,0
1,note_on,77,59,0
1,note_on,77,0,160
1,note_on,81,0,0
1,note_on,92,73,0
1,note_on,88,62,0
1,note_on,88,0,160
1,note_on,92,0,0
1,note_on,93,83,0
1,note_on,89,70,0
1,note_on,89,0,240
1,note_on,93,0,0
1,note_on,62,66,120
1,note_on,74,78,0
1,note_on,74,0,120
1,note_on,62,0,0
1,note_on,72,62,0
1,note_on,84,86,0
1,note_on,78,62,0
1,note_on,57,45,480
1,note_on,60,54,0
1,note_on,60,0,160
1,note_on,57,0,0
1,note_on,68,51,0
1,note_on,71,61,0
1,note_on,71,0,160
1,note_on,68,0,0
1,note_on,69,54,0
1,note_on,72,64,0
1,note_on,72,0,160
1,note_on,78,0,0
1,note_on,72,0,0
1,note_on,84,0,0
1,note_on,69,0,0
1,note_on,83,67,0
1,note_on,80,56,0
1,note_on,80,0,160
1,note_on,83,0,0
1,note_on,81,59,0
1,note_on,84,70,0
1,note_on,84,0,160
1,note_on,81,0,0
1,note_on,92,62,0
1,note_on,95,73,0
1,note_on,95,0,160
1,note_on,92,0,0
1,note_on,93,70,0
1,note_on,96,83,0
1,note_on,96,0,240
1,note_on,93,0,0
1,note_on,74,78,120
1,note_on,62,66,0
1,note_on,62,0,120
1,note_on,74,0,0
1,note_on,83,86,0
1,note_on,71,62,0
1,note_on,77,62,0
1,note_on,59,54,480
1,note_on,56,45,0
1,note_on,56,0,160
1,note_on,59,0,0
1,note_on,67,51,0
1,note_on,70,61,0
1,note_on,70,0,160
1,note_on,67,0,0
1,note_on,71,64,0
1,note_on,68,54,0
1,note_on,68,0,160
1,note_on,77,0,0
1,note_on,83,0,0
1,note_on,71,0,0
1,note_on,71,0,0
1,note_on,82,67,0
1,note_on,79,56,0
1,note_on,79,0,160
1,note_on,82,0,0
1,note_on,80,59,0
1,note_on,83,70,0
1,note_on,83,0,160
1,note_on,80,0,0
1,note_on,94,73,0
1,note_on,91,62,0
1,note_on,91,0,160
1,note_on,94,0,0
1,note_on,92,70,0
1,note_on,95,83,0
1,note_on,95,0,240
1,note_on,92,0,0
1,note_on,62,66,120
1,note_on,74,78,0
1,note_on,74,0,120
1,note_on,62,0,0
1,note_on,82,86,0
1,note_on,70,73,0
1,note_on,70,0,480
1,note_on,82,0,0
1,note_on,60,46,0
1,note_on,63,59,0
1,note_on,63,0,160
1,note_on,60,0,0
1,note_on,64,60,0
1,note_on,61,49,0
1,note_on,61,0,160
1,note_on,64,0,0
1,note_on,70,73,40
1,note_on,82,73,0
1,note_on,82,0,120
1,note_on,70,0,0
1,note_on,69,72,0
1,note_on,81,85,0
1,note_on,81,0,480
1,note_on,69,0,0
1,note_on,60,46,0
1,note_on,63,59,0
1,note_on,63,0,160
1,note_on,60,0,0
1,note_on,61,49,0
1,note_on,64,60,0
1,note_on,64,0,160
1,note_on,61,0,0
1,note_on,67,52,40
1,note_on,79,73,0
1,note_on,79,0,120
1,note_on,67,0,0
1,note_on,74,86,0
1,note_on,66,62,0
1,note_on,62,62,0
1,note_on,62,0,480
1,note_on,66,0,0
1,note_on,74,0,0
1,note_on,54,45,0
1,note_on,57,54,0
1,note_on,57,0,160
1,note_on,54,0,0
1,note_on,65,51,0
1,note_on,68,61,0
1,note_on,68,0,160
1,note_on,65,0,0
1,note_on,69,64,0
1,note_on,66,54,0
1,note_on,66,0,160
1,note_on,69,0,0
1,note_on,80,67,0
1,note_on,77,56,0
1,note_on,77,0,160
1,note_on,80,0,0
1,note_on,78,59,0
1,note_on,81,70,0
1,note_on,81,0,160
1,note_on,78,0,0
1,note_on,89,62,0
1,note_on,92,73,0
1,note_on,92,0,160
1,note_on,89,0,0
1,note_on,90,70,0
1,note_on,93,83,0
1,note_on,93,0,240
1,note_on,90,0,0
1,note_on,74,78,120
1,note_on,62,66,0
1,note_on,62,0,120
1,note_on,74,0,0
1,note_on,72,62,0
1,note_on,78,62,0
1,note_on,84,86,0
1,note_on,57,45,480
1,note_on,60,54,0
1,note_on,60,0,160
1,note_on,57,0,0
1,note_on,68,51,0
1,note_on,71,61,0
1,note_on,71,0,160
1,note_on,68,0,0
1,note_on,72,64,0
1,note_on,69,54,0
1,note_on,69,0,160
1,note_on,84,0,0
1,note_on,72,0,0
1,note_on,78,0,0
1,note_on,72,0,0
1,note_on,80,56,0
1,note_on,83,67,0
1,note_on,83,0,160
1,note_on,80,0,0
1,note_on,81,59,0
1,note_on,84,70,0
1,note_on,84,0,160
1,note_on,81,0,0
1,note_on,95,73,0
1,note_on,92,62,0
1,note_on,92,0,160
1,note_on,95,0,0
1,note_on,96,83,0
1,note_on,93,70,0
1,note_on,93,0,240
1,note_on,96,0,0
1,note_on,74,78,120
1,note_on,62,66,0
1,note_on,62,0,120
1,note_on,74,0,0
1,note_on,71,62,0
1,note_on,77,62,0
1,note_on,83,86,0
1,note_on,56,45,480
1,note_on,59,54,0
1,note_on,59,0,160
1,note_on,56,0,0
1,note_on,67,51,0
1,note_on,70,61,0
1,note_on,70,0,160
1,note_on,67,0,0
1,note_on,68,54,0
1,note_on,71,64,0
1,note_on,71,0,160
1,note_on,83,0,0
1,note_on,71,0,0
1,note_on,77,0,0
1,note_on,68,0,0
1,note_on,79,56,0
1,note_on,82,67,0
1,note_on,82,0,160
1,note_on,79,0,0
1,note_on,80,59,0
1,note_on,83,70,0
1,note_on,83,0,160
1,note_on,80,0,0
1,note_on,91,62,0
1,note_on,94,73,0
1,note_on,94,0,160
1,note_on,91,0,0
1,note_on,95,83,0
1,note_on,92,70,0
1,note_on,92,0,240
1,note_on,95,0,0
1,note_on,74,78,120
1,note_on,62,66,0
1,note_on,62,0,120
1,note_on,74,0,0
1,note_on,82,86,0
1,note_on,70,73,0
1,note_on,70,0,480
1,note_on,82,0,0
1,note_on,63,59,0
1,note_on,60,46,0
1,note_on,60,0,160
1,note_on,63,0,0
1,note_on,64,60,0
1,note_on,61,49,0
1,note_on,61,0,160
1,note_on,64,0,0
1,note_on,70,73,40
1,note_on,82,73,0
1,note_on,82,0,120
1,note_on,70,0,0
1,note_on,69,72,0
1,note_on,81,85,0
1,note_on,81,0,480
1,note_on,69,0,0
1,note_on,60,46,0
1,note_on,63,59,0
1,note_on,63,0,160
1,note_on,60,0,0
1,note_on,61,49,0
1,note_on,64,60,0
1,note_on,64,0,160
1,note_on,61,0,0
1,note_on,67,52,40
1,note_on,79,73,0
1,note_on,79,0,120
1,note_on,67,0,0
1,note_on,66,62,0
1,note_on,74,78,0
1,note_on,62,62,0
1,note_on,62,0,240
1,note_on,74,0,0
1,note_on,66,0,0
1,note_on,94,70,240
1,note_on,85,46,0
1,note_on,85,0,160
1,note_on,84,46,0
1,note_on,84,0,160
1,note_on,83,47,0
1,note_on,83,0,160
1,note_on,94,0,0
1,note_on,82,48,0
1,note_on,91,73,0
1,note_on,82,0,160
1,note_on,81,48,0
1,note_on,81,0,160
1,note_on,80,49,0
1,note_on,80,0,160
1,note_on,91,0,0
1,note_on,79,50,0
1,note_on,88,77,0
1,note_on,79,0,160
1,note_on,78,50,0
1,note_on,78,0,160
1,note_on,77,51,0
1,note_on,77,0,160
1,note_on,88,0,0
1,note_on,85,80,0
1,note_on,76,51,0
1,note_on,76,0,240
1,note_on,85,0,0
1,note_on,70,47,240
1,note_on,82,84,0
1,note_on,70,0,160
1,note_on,73,60,0
1,note_on,73,0,160
1,note_on,76,60,0
1,note_on,76,0,160
1,note_on,82,0,0
1,note_on,74,68,0
1,note_on,86,85,0
1,note_on,78,68,0
1,note_on,78,0,240
1,note_on,86,0,0
1,note_on,74,0,0
1,note_on,82,70,240
1,note_on,73,46,0
1,note_on,73,0,160
1,note_on,72,46,0
1,note_on,72,0,160
1,note_on,71,47,0
1,note_on,71,0,160
1,note_on,82,0,0
1,note_on,79,73,0
1,note_on,70,48,0
1,note_on,70,0,160
1,note_on,69,48,0
1,note_on,69,0,160
1,note_on,68,49,0
1,note_on,68,0,160
1,note_on,79,0,0
1,note_on,76,77,0
1,note_on,67,50,0
1,note_on,67,0,160
1,note_on,66,50,0
1,note_on,66,0,160
1,note_on,65,51,0
1,note_on,65,0,160
1,note_on,76,0,0
1,note_on,64,51,0
1,note_on,73,80,0
1,note_on,73,0,240
1,note_on,64,0,0
1,note_on,70,84,240
1,note_on,58,47,0
1,note_on,58,0,160
1,note_on,61,60,0
1,note_on,61,0,160
1,note_on,64,60,0
1,note_on,64,0,160
1,note_on,70,0,0
1,note_on,66,73,0
1,note_on,74,93,0
1,note_on,62,73,0
1,note_on,62,0,240
1,note_on,74,0,0
1,note_on,66,0,0
1,note_on,76,70,240
1,note_on,64,57,0
1,note_on,64,0,160
1,note_on,70,57,0
1,note_on,70,0,160
1,note_on,73,57,0
1,note_on,73,0,160
1,note_on,76,0,0
1,note_on,69,71,0
1,note_on,78,90,0
1,note_on,66,71,0
1,note_on,66,0,240
1,note_on,78,0,0
1,note_on,69,0,0
1,note_on,82,71,240
1,note_on,70,58,0
1,note_on,70,0,160
1,note_on,73,58,0
1,note_on,73,0,160
1,note_on,76,59,0
1,note_on,76,0,160
1,note_on,82,0,0
1,note_on,78,72,0
1,note_on,74,72,0
1,note_on,86,91,0
1,note_on,86,0,240
1,note_on,74,0,0
1,note_on,78,0,0
1,note_on,88,73,240
1,note_on,76,60,0
1,note_on,76,0,160
1,note_on,82,60,0
1,note_on,82,0,160
1,note_on,85,60,0
1,note_on,85,0,160
1,note_on,88,0,0
1,note_on,90,94,0
1,note_on,81,74,0
1,note_on,78,74,0
1,note_on,78,0,240
1,note_on,81,0,0
1,note_on,90,0,0
1,note_on,82,61,240
1,note_on,94,75,0
1,note_on,82,0,160
1,note_on,85,61,0
1,note_on,85,0,160
1,note_on,88,62,0
1,note_on,88,0,160
1,note_on,94,0,0
1,note_on,90,75,0
1,note_on,86,75,0
1,note_on,98,96,0
1,note_on,98,0,240
1,note_on,86,0,0
1,note_on,90,0,0
1,note_on,94,77,240
1,note_on,82,63,0
1,note_on,82,0,160
1,note_on,85,63,0
1,note_on,85,0,160
1,note_on,88,63,0
1,note_on,88,0,160
1,note_on,94,0,0
1,note_on,86,77,0
1,note_on,90,77,0
1,note_on,98,98,0
1,note_on,98,0,240
1,note_on,90,0,0
1,note_on,86,0,0
1,note_on,94,78,240
1,note_on,82,64,0
1,note_on,82,0,160
1,note_on,85,64,0
1,note_on,85,0,160
1,note_on,88,64,0
1,note_on,88,0,160
1,note_on,94,0,0
1,note_on,98,78,0
1,note_on,86,66,0
1,note_on,90,78,0
1,note_on,90,0,240
1,note_on,86,0,0
1,note_on,98,0,0
1,note_on,94,75,0
1,note_on,82,63,0
1,note_on,82,0,240
1,note_on,94,0,0
1,note_on,74,62,480
1,note_on,86,74,0
1,note_on,86,0,240
1,note_on,74,0,0
1,note_on,70,62,0
1,note_on,82,74,0
1,note_on,82,0,240
1,note_on,70,0,0
1,note_on,74,73,480
1,note_on,62,62,0
1,note_on,62,0,240
1,note_on,74,0,0
1,note_on,58,62,0
1,note_on,70,73,0
1,note_on,70,0,240
1,note_on,58,0,0
1,note_on,50,61,480
1,note_on,62,72,0
1,note_on,62,0,240
1,note_on,50,0,0
1,note_on,62,71,240
1,note_on,50,60,0
1,note_on,50,0,240
1,note_on,62,0,0
1,note_on,62,70,240
1,note_on,50,59,0
1,note_on,50,0,240
1,note_on,62,0,0
1,note_on,62,69,240
1,note_on,50,58,0
1,note_on,50,0,240
1,note_on,62,0,0
1,note_on,62,68,240
1,note_on,50,57,0
1,note_on,50,0,240
1,note_on,62,0,0
1,note_on,62,67,240
1,note_on,50,56,0
1,note_on,50,0,240
1,note_on,62,0,0
1,note_on,39,50,360
1,note_on,51,61,0
1,note_on,51,0,120
1,note_on,39,0,0
1,note_on,53,61,120
1,note_on,41,50,0
1,note_on,41,0,120
1,note_on,53,0,0
1,note_on,55,61,120
1,note_on,43,50,0
1,note_on,43,0,120
1,note_on,55,0,0
1,note_on,45,50,120
1,note_on,57,61,0
1,note_on,57,0,120
1,note_on,45,0,0
1,note_on,47,50,120
1,note_on,59,61,0
1,note_on,59,0,120
1,note_on,47,0,0
1,note_on,49,50,120
1,note_on,61,61,0
1,note_on,61,0,120
1,note_on,49,0,0
1,note_on,63,61,120
1,note_on,51,50,0
1,note_on,51,0,120
1,note_on,63,0,0
1,note_on,53,50,120
1,note_on,65,61,0
1,note_on,65,0,120
1,note_on,53,0,0
1,note_on,55,52,120
1,note_on,67,62,0
1,note_on,67,0,120
1,note_on,55,0,0
1,note_on,69,63,120
1,note_on,57,54,0
1,note_on,57,0,120
1,note_on,69,0,0
1,note_on,71,66,120
1,note_on,59,55,0
1,note_on,59,0,120
1,note_on,71,0,0
1,note_on,73,67,120
1,note_on,61,56,0
1,note_on,61,0,120
1,note_on,73,0,0
1,note_on,75,68,120
1,note_on,63,57,0
1,note_on,63,0,120
1,note_on,75,0,0
1,note_on,77,69,120
1,note_on,65,58,0
1,note_on,65,0,120
1,note_on,77,0,0
1,note_on,79,70,120
1,note_on,67,58,0
1,note_on,67,0,120
1,note_on,79,0,0
1,note_on,81,72,120
1,note_on,69,60,0
1,note_on,69,0,120
1,note_on,81,0,0
1,note_on,71,61,120
1,note_on,83,73,0
1,note_on,83,0,120
1,note_on,71,0,0
1,note_on,73,74,120
1,note_on,85,74,0
1,note_on,85,0,120
1,note_on,73,0,0
1,note_on,85,75,120
1,note_on,73,63,0
1,note_on,73,0,120
1,note_on,85,0,0
1,note_on,71,62,120
1,note_on,83,74,0
1,note_on,83,0,120
1,note_on,71,0,0
1,note_on,69,61,120
1,note_on,81,73,0
1,note_on,81,0,120
1,note_on,69,0,0
1,note_on,79,72,120
1,note_on,67,60,0
1,note_on,67,0,120
1,note_on,79,0,0
1,note_on,77,70,120
1,note_on,65,58,0
1,note_on,65,0,120
1,note_on,77,0,0
1,note_on,63,58,120
1,note_on,75,69,0
1,note_on,75,0,120
1,note_on,63,0,0
1,note_on,73,68,120
1,note_on,61,57,0
1,note_on,61,0,120
1,note_on,73,0,0
1,note_on,59,56,120
1,note_on,71,67,0
1,note_on,71,0,120
1,note_on,59,0,0
1,note_on,69,66,120
1,note_on,57,55,0
1,note_on,57,0,120
1,note_on,69,0,0
1,note_on,67,62,120
1,note_on,55,52,0
1,note_on,55,0,120
1,note_on,67,0,0
1,note_on,65,61,120
1,note_on,53,50,0
1,note_on,53,0,120
1,note_on,65,0,0
1,note_on,63,61,120
1,note_on,51,50,0
1,note_on,51,0,120
1,note_on,63,0,0
1,note_on,49,50,120
1,note_on,61,60,0
1,note_on,61,0,120
1,note_on,49,0,0
1,note_on,59,57,120
1,note_on,47,48,0
1,note_on,47,0,120
1,note_on,59,0,0
1,note_on,57,56,120
1,note_on,45,46,0
1,note_on,45,0,120
1,note_on,57,0,0
1,note_on,43,45,120
1,note_on,55,55,0
1,note_on,55,0,120
1,note_on,43,0,0
1,note_on,41,44,120
1,note_on,53,54,0
1,note_on,53,0,120
1,note_on,41,0,0
1,note_on,39,44,120
1,note_on,51,52,0
1,note_on,51,0,120
1,note_on,39,0,0
1,note_on,65,24,1600
1,note_on,62,20,0
1,note_on,65,0,160
1,note_on,70,20,0
1,note_on,74,24,0
1,note_on,74,0,160
1,note_on,70,0,0
1,note_on,74,21,0
1,note_on,77,25,0
1,note_on,77,0,160
1,note_on,74,0,0
1,note_on,62,0,0
1,note_on,86,26,0
1,note_on,82,22,0
1,note_on,82,0,160
1,note_on,86,0,0
1,note_on,86,22,0
1,note_on,89,27,0
1,note_on,89,0,160
1,note_on,86,0,0
1,note_on,94,23,0
1,note_on,98,28,0
1,note_on,98,0,160
1,note_on,94,0,0
1,note_on,86,24,0
1,note_on,89,29,0
1,note_on,89,0,160
1,note_on,86,0,0
1,note_on,86,28,0
1,note_on,82,23,0
1,note_on,82,0,160
1,note_on,86,0,0
1,note_on,77,27,0
1,note_on,74,22,0
1,note_on,74,0,160
1,note_on,77,0,0
1,note_on,74,25,0
1,note_on,70,21,0
1,note_on,70,0,160
1,note_on,74,0,0
1,note_on,65,24,0
1,note_on,62,20,0
1,note_on,62,0,60
1,note_on,65,0,0
1,note_on,62,20,260
1,note_on,65,24,0
1,note_on,65,0,160
1,note_on,74,24,0
1,note_on,70,20,0
1,note_on,70,0,160
1,note_on,74,0,0
1,note_on,77,25,0
1,note_on,74,21,0
1,note_on,74,0,160
1,note_on,77,0,0
1,note_on,62,0,0
1,note_on,86,26,0
1,note_on,82,22,0
1,note_on,82,0,160
1,note_on,86,0,0
1,note_on,86,22,0
1,note_on,89,27,0
1,note_on,89,0,160
1,note_on,86,0,0
1,note_on,94,23,0
1,note_on,98,28,0
1,note_on,98,0,160
1,note_on,94,0,0
1,note_on,89,29,0
1,note_on,86,24,0
1,note_on,86,0,160
1,note_on,89,0,0
1,note_on,86,28,0
1,note_on,82,23,0
1,note_on,82,0,160
1,note_on,86,0,0
1,note_on,74,22,0
1,note_on,77,27,0
1,note_on,77,0,160
1,note_on,74,0,0
1,note_on,74,25,0
1,note_on,70,21,0
1,note_on,70,0,160
1,note_on,74,0,0
1,note_on,65,24,0
1,note_on,62,20,0
1,note_on,62,0,60
1,note_on,65,0,0
1,note_on,63,20,260
1,note_on,66,24,0
1,note_on,66,0,160
1,note_on,63,0,0
1,note_on,75,24,0
1,note_on,72,20,0
1,note_on,72,0,160
1,note_on,75,0,0
1,note_on,78,25,0
1,note_on,75,21,0
1,note_on,75,0,160
1,note_on,78,0,0
1,note_on,84,22,0
1,note_on,87,26,0
1,note_on,87,0,160
1,note_on,84,0,0
1,note_on,87,22,0
1,note_on,90,27,0
1,note_on,90,0,160
1,note_on,87,0,0
1,note_on,99,28,0
1,note_on,96,23,0
1,note_on,96,0,160
1,note_on,99,0,0
1,note_on,87,24,0
1,note_on,90,29,0
1,note_on,90,0,160
1,note_on,87,0,0
1,note_on,87,28,0
1,note_on,84,23,0
1,note_on,84,0,160
1,note_on,87,0,0
1,note_on,75,22,0
1,note_on,78,27,0
1,note_on,78,0,160
1,note_on,75,0,0
1,note_on,75,25,0
1,note_on,72,21,0
1,note_on,72,0,160
1,note_on,75,0,0
1,note_on,66,24,0
1,note_on,63,20,0
1,note_on,63,0,60
1,note_on,66,0,0
1,note_on,65,24,260
1,note_on,62,20,0
1,note_on,62,0,160
1,note_on,65,0,0
1,note_on,70,20,0
1,note_on,74,24,0
1,note_on,74,0,160
1,note_on,70,0,0
1,note_on,77,25,0
1,note_on,74,21,0
1,note_on,74,0,160
1,note_on,77,0,0
1,note_on,86,26,0
1,note_on,82,22,0
1,note_on,82,0,160
1,note_on,86,0,0
1,note_on,86,22,0
1,note_on,89,27,0
1,note_on,89,0,160
1,note_on,86,0,0
1,note_on,98,28,0
1,note_on,94,23,0
1,note_on,94,0,160
1,note_on,98,0,0
1,note_on,86,24,0
1,note_on,89,29,0
1,note_on,89,0,160
1,note_on,86,0,0
1,note_on,82,23,0
1,note_on,86,28,0
1,note_on,86,0,160
1,note_on,82,0,0
1,note_on,74,22,0
1,note_on,77,27,0
1,note_on,77,0,160
1,note_on,74,0,0
1,note_on,74,25,0
1,note_on,70,21,0
1,note_on,70,0,160
1,note_on,74,0,0
1,note_on,62,20,0
1,note_on,65,24,0
1,note_on,65,0,60
1,note_on,62,0,0
1,note_on,62,20,260
1,note_on,67,24,0
1,note_on,67,0,160
1,note_on,74,24,0
1,note_on,70,20,0
1,note_on,70,0,160
1,note_on,74,0,0
1,note_on,74,21,0
1,note_on,79,25,0
1,note_on,79,0,160
1,note_on,74,0,0
1,note_on,62,0,0
1,note_on,82,22,0
1,note_on,86,26,0
1,note_on,86,0,160
1,note_on,82,0,0
1,note_on,91,27,0
1,note_on,86,22,0
1,note_on,86,0,160
1,note_on,91,0,0
1,note_on,94,23,0
1,note_on,98,28,0
1,note_on,98,0,160
1,note_on,94,0,0
1,note_on,86,24,0
1,note_on,91,29,0
1,note_on,91,0,160
1,note_on,86,0,0
1,note_on,82,23,0
1,note_on,86,28,0
1,note_on,86,0,160
1,note_on,82,0,0
1,note_on,79,27,0
1,note_on,74,22,0
1,note_on,74,0,160
1,note_on,79,0,0
1,note_on,74,25,0
1,note_on,70,21,0
1,note_on,70,0,160
1,note_on,74,0,0
1,note_on,67,24,0
1,note_on,62,20,0
1,note_on,62,0,160
1,note_on,67,0,0
1,note_on,62,20,160
1,note_on,67,24,0
1,note_on,67,0,160
1,note_on,62,0,0
1,note_on,70,20,0
1,note_on,74,24,0
1,note_on,74,0,160
1,note_on,70,0,0
1,note_on,74,21,0
1,note_on,79,25,0
1,note_on,79,0,160
1,note_on,74,0,0
1,note_on,86,26,0
1,note_on,82,22,0
1,note_on,82,0,160
1,note_on,86,0,0
1,note_on,86,22,0
1,note_on,91,27,0
1,note_on,91,0,160
1,note_on,86,0,0
1,note_on,94,23,0
1,note_on,98,28,0
1,note_on,98,0,160
1,note_on,94,0,0
1,note_on,91,29,0
1,note_on,86,24,0
1,note_on,86,0,160
1,note_on,91,0,0
1,note_on,82,23,0
1,note_on,86,28,0
1,note_on,86,0,160
1,note_on,82,0,0
1,note_on,79,27,0
1,note_on,74,22,0
1,note_on,74,0,160
1,note_on,79,0,0
1,note_on,74,25,0
1,note_on,70,21,0
1,note_on,70,0,160
1,note_on,74,0,0
1,note_on,67,24,0
1,note_on,62,20,0
1,note_on,62,0,160
1,note_on,67,0,0
1,note_on,67,24,160
1,note_on,64,20,0
1,note_on,64,0,160
1,note_on,67,0,0
1,note_on,76,24,0
1,note_on,70,20,0
1,note_on,70,0,160
1,note_on,76,0,0
1,note_on,76,21,0
1,note_on,79,25,0
1,note_on,79,0,160
1,note_on,76,0,0
1,note_on,88,26,0
1,note_on,82,22,0
1,note_on,82,0,160
1,note_on,88,0,0
1,note_on,91,27,0
1,note_on,88,22,0
1,note_on,88,0,160
1,note_on,91,0,0
1,note_on,94,23,0
1,note_on,100,28,0
1,note_on,100,0,160
1,note_on,94,0,0
1,note_on,88,24,0
1,note_on,91,29,0
1,note_on,91,0,160
1,note_on,88,0,0
1,note_on,82,23,0
1,note_on,88,28,0
1,note_on,88,0,160
1,note_on,82,0,0
1,note_on,79,27,0
1,note_on,76,22,0
1,note_on,76,0,160
1,note_on,79,0,0
1,note_on,76,25,0
1,note_on,70,21,0
1,note_on,70,0,160
1,note_on,76,0,0
1,note_on,67,24,0
1,note_on,67,0,160
1,note_on,65,20,160
1,note_on,69,24,0
1,note_on,69,0,160
1,note_on,72,20,0
1,note_on,77,24,0
1,note_on,77,0,160
1,note_on,72,0,0
1,note_on,81,25,0
1,note_on,77,21,0
1,note_on,77,0,160
1,note_on,81,0,0
1,note_on,89,26,0
1,note_on,84,22,0
1,note_on,84,0,160
1,note_on,89,0,0
1,note_on,89,22,0
1,note_on,93,27,0
1,note_on,93,0,160
1,note_on,89,0,0
1,note_on,96,23,0
1,note_on,101,28,0
1,note_on,101,0,160
1,note_on,96,0,0
1,note_on,65,0,0
1,note_on,89,24,0
1,note_on,93,29,0
1,note_on,93,0,160
1,note_on,89,0,0
1,note_on,84,23,0
1,note_on,89,28,0
1,note_on,89,0,160
1,note_on,84,0,0
1,note_on,81,27,0
1,note_on,77,22,0
1,note_on,77,0,160
1,note_on,81,0,0
1,note_on,77,25,0
1,note_on,72,21,0
1,note_on,72,0,160
1,note_on,77,0,0
1,note_on,65,21,0
1,note_on,69,24,0
1,note_on,69,0,160
1,note_on,65,0,0
1,note_on,65,20,160
1,note_on,68,24,0
1,note_on,68,0,160
1,note_on,73,20,0
1,note_on,77,24,0
1,note_on,77,0,160
1,note_on,73,0,0
1,note_on,80,25,0
1,note_on,77,21,0
1,note_on,77,0,160
1,note_on,80,0,0
1,note_on,65,0,0
1,note_on,85,22,0
1,note_on,89,26,0
1,note_on,89,0,160
1,note_on,85,0,0
1,note_on,89,22,0
1,note_on,92,27,0
1,note_on,92,0,160
1,note_on,89,0,0
1,note_on,97,23,0
1,note_on,101,28,0
1,note_on,101,0,160
1,note_on,97,0,0
1,note_on,92,29,0
1,note_on,89,24,0
1,note_on,89,0,160
1,note_on,92,0,0
1,note_on,89,28,0
1,note_on,85,23,0
1,note_on,85,0,160
1,note_on,89,0,0
1,note_on,80,27,0
1,note_on,77,22,0
1,note_on,77,0,160
1,note_on,80,0,0
1,note_on,77,25,0
1,note_on,73,21,0
1,note_on,73,0,160
1,note_on,77,0,0
1,note_on,68,24,0
1,note_on,68,0,60
1,note_on,68,24,260
1,note_on,63,20,0
1,note_on,63,0,160
1,note_on,73,20,0
1,note_on,75,24,0
1,note_on,75,0,160
1,note_on,73,0,0
1,note_on,75,21,0
1,note_on,80,25,0
1,note_on,80,0,160
1,note_on,75,0,0
1,note_on,68,0,0
1,note_on,85,22,0
1,note_on,87,26,0
1,note_on,87,0,160
1,note_on,85,0,0
1,note_on,87,22,0
1,note_on,92,27,0
1,note_on,92,0,160
1,note_on,87,0,0
1,note_on,96,23,0
1,note_on,99,28,0
1,note_on,99,0,160
1,note_on,96,0,0
1,note_on,92,29,0
1,note_on,87,24,0
1,note_on,87,0,160
1,note_on,92,0,0
1,note_on,87,28,0
1,note_on,84,23,0
1,note_on,84,0,160
1,note_on,87,0,0
1,note_on,75,22,0
1,note_on,80,27,0
1,note_on,80,0,160
1,note_on,75,0,0
1,note_on,72,21,0
1,note_on,75,25,0
1,note_on,75,0,160
1,note_on,72,0,0
1,note_on,63,22,0
1,note_on,68,24,0
1,note_on,68,0,60
1,note_on,63,0,0
1,note_on,63,20,260
1,note_on,67,24,0
1,note_on,67,0,160
1,note_on,75,24,0
1,note_on,72,20,0
1,note_on,72,0,160
1,note_on,75,0,0
1,note_on,75,21,0
1,note_on,79,25,0
1,note_on,79,0,160
1,note_on,75,0,0
1,note_on,63,0,0
1,note_on,87,26,0
1,note_on,84,22,0
1,note_on,84,0,160
1,note_on,87,0,0
1,note_on,87,22,0
1,note_on,91,27,0
1,note_on,91,0,160
1,note_on,87,0,0
1,note_on,96,23,0
1,note_on,99,28,0
1,note_on,99,0,160
1,note_on,96,0,0
1,note_on,91,29,0
1,note_on,87,24,0
1,note_on,87,0,160
1,note_on,91,0,0
1,note_on,87,28,0
1,note_on,84,23,0
1,note_on,84,0,160
1,note_on,87,0,0
1,note_on,79,27,0
1,note_on,75,22,0
1,note_on,75,0,160
1,note_on,79,0,0
1,note_on,75,25,0
1,note_on,72,21,0
1,note_on,72,0,160
1,note_on,75,0,0
1,note_on,67,24,0
1,note_on,67,0,80
1,note_on,67,24,240
1,note_on,62,20,0
1,note_on,62,0,160
1,note_on,74,24,0
1,note_on,72,20,0
1,note_on,72,0,160
1,note_on,74,0,0
1,note_on,79,25,0
1,note_on,74,21,0
1,note_on,74,0,160
1,note_on,79,0,0
1,note_on,67,0,0
1,note_on,84,22,0
1,note_on,86,26,0
1,note_on,86,0,160
1,note_on,84,0,0
1,note_on,91,27,0
1,note_on,86,22,0
1,note_on,86,0,160
1,note_on,91,0,0
1,note_on,95,23,0
1,note_on,98,28,0
1,note_on,98,0,160
1,note_on,95,0,0
1,note_on,91,29,0
1,note_on,86,24,0
1,note_on,86,0,160
1,note_on,91,0,0
1,note_on,83,23,0
1,note_on,86,28,0
1,note_on,86,0,160
1,note_on,83,0,0
1,note_on,74,22,0
1,note_on,79,27,0
1,note_on,79,0,160
1,note_on,74,0,0
1,note_on,74,25,0
1,note_on,71,21,0
1,note_on,71,0,160
1,note_on,74,0,0
1,note_on,62,20,0
1,note_on,67,24,0
1,note_on,67,0,60
1,note_on,62,0,0
1,note_on,62,20,260
1,note_on,65,24,0
1,note_on,65,0,160
1,note_on,70,20,0
1,note_on,74,24,0
1,note_on,74,0,160
1,note_on,70,0,0
1,note_on,77,25,0
1,note_on,74,21,0
1,note_on,74,0,160
1,note_on,77,0,0
1,note_on,62,0,0
1,note_on,82,22,0
1,note_on,86,26,0
1,note_on,86,0,160
1,note_on,82,0,0
1,note_on,86,22,0
1,note_on,89,27,0
1,note_on,89,0,160
1,note_on,86,0,0
1,note_on,94,23,0
1,note_on,98,28,0
1,note_on,98,0,160
1,note_on,94,0,0
1,note_on,86,24,0
1,note_on,89,29,0
1,note_on,89,0,160
1,note_on,86,0,0
1,note_on,82,23,0
1,note_on,86,28,0
1,note_on,86,0,160
1,note_on,82,0,0
1,note_on,77,27,0
1,note_on,74,22,0
1,note_on,74,0,160
1,note_on,77,0,0
1,note_on,74,25,0
1,note_on,70,21,0
1,note_on,70,0,160
1,note_on,74,0,0
1,note_on,62,21,0
1,note_on,65,24,0
1,note_on,62,0,60
1,note_on,65,0,20
1,note_on,62,20,240
1,note_on,67,24,0
1,note_on,67,0,160
1,note_on,62,0,0
1,note_on,70,20,0
1,note_on,74,24,0
1,note_on,74,0,160
1,note_on,70,0,0
1,note_on,79,25,0
1,note_on,74,21,0
1,note_on,74,0,160
1,note_on,79,0,0
1,note_on,82,22,0
1,note_on,86,26,0
1,note_on,86,0,160
1,note_on,82,0,0
1,note_on,86,22,0
1,note_on,91,27,0
1,note_on,91,0,160
1,note_on,86,0,0
1,note_on,98,28,0
1,note_on,94,23,0
1,note_on,94,0,160
1,note_on,98,0,0
1,note_on,86,24,0
1,note_on,91,29,0
1,note_on,91,0,160
1,note_on,86,0,0
1,note_on,82,23,0
1,note_on,86,28,0
1,note_on,86,0,160
1,note_on,82,0,0
1,note_on,74,22,0
1,note_on,79,27,0
1,note_on,79,0,160
1,note_on,74,0,0
1,note_on,74,25,0
1,note_on,70,21,0
1,note_on,70,0,160
1,note_on,74,0,0
1,note_on,67,24,0
1,note_on,62,20,0
1,note_on,62,0,160
1,note_on,67,0,0
1,note_on,67,25,160
1,note_on,63,25,0
1,note_on,63,0,160
1,note_on,67,0,0
1,note_on,74,25,0
1,note_on,74,0,160
1,note_on,72,27,160
1,note_on,75,27,0
1,note_on,75,0,160
1,note_on,72,0,0
1,note_on,84,27,0
1,note_on,79,27,0
1,note_on,79,0,160
1,note_on,84,0,0
1,note_on,87,27,160
1,note_on,82,27,0
1,note_on,82,0,160
1,note_on,87,0,0
1,note_on,94,27,0
1,note_on,91,27,0
1,note_on,91,0,160
1,note_on,94,0,0
1,note_on,84,25,160
1,note_on,87,25,0
1,note_on,87,0,160
1,note_on,84,0,0
1,note_on,96,25,0
1,note_on,91,25,0
1,note_on,91,0,160
1,note_on,96,0,0
1,note_on,62,20,160
1,note_on,66,24,0
1,note_on,66,0,160
1,note_on,74,24,0
1,note_on,69,20,0
1,note_on,69,0,160
1,note_on,74,0,0
1,note_on,74,21,0
1,note_on,78,25,0
1,note_on,78,0,160
1,note_on,74,0,0
1,note_on,81,22,0
1,note_on,86,26,0
1,note_on,86,0,160
1,note_on,81,0,0
1,note_on,90,27,0
1,note_on,86,22,0
1,note_on,86,0,160
1,note_on,90,0,0
1,note_on,98,28,0
1,note_on,93,23,0
1,note_on,93,0,160
1,note_on,98,0,0
1,note_on,90,29,0
1,note_on,86,24,0
1,note_on,86,0,160
1,note_on,90,0,0
1,note_on,81,23,0
1,note_on,86,28,0
1,note_on,86,0,160
1,note_on,81,0,0
1,note_on,74,22,0
1,note_on,78,27,0
1,note_on,78,0,160
1,note_on,74,0,0
1,note_on,86,25,0
1,note_on,81,21,0
1,note_on,81,0,160
1,note_on,86,0,0
1,note_on,74,20,0
1,note_on,78,24,0
1,note_on,62,0,80
1,note_on,78,0,80
1,note_on,74,0,0
1,note_on,69,22,0
1,note_on,74,26,0
1,note_on,74,0,160
1,note_on,69,0,0
1,note_on,62,20,0
1,note_on,66,24,0
1,note_on,66,0,160
1,note_on,62,0,0
1,note_on,74,27,0
1,note_on,69,22,0
1,note_on,69,0,160
1,note_on,74,0,0
1,note_on,74,33,1680
1,note_on,74,0,240
1,note_on,86,30,0
1,note_on,86,0,240
1,note_on,98,37,0
1,note_on,98,0,240
1,note_on,74,24,160
1,note_on,86,29,0
1,note_on,86,0,144
1,note_on,74,0,0
1,note_on,74,26,16
1,note_on,86,31,0
1,note_on,86,0,144
1,note_on,74,0,0
1,note_on,74,28,16
1,note_on,86,34,0
1,note_on,86,0,144
1,note_on,74,0,0
1,note_on,86,36,16
1,note_on,74,29,0
1,note_on,74,0,144
1,note_on,86,0,0
1,note_on,86,39,16
1,note_on,74,32,0
1,note_on,74,0,144
1,note_on,86,0,0
1,note_on,86,52,16
1,note_on,74,44,0
1,note_on,74,0,960
1,note_on,86,0,0
1,note_on,86,49,0
1,note_on,74,41,0
1,note_on,74,0,720
1,note_on,86,0,0
1,note_on,72,35,80
1,note_on,84,41,0
1,note_on,84,0,160
1,note_on,72,0,0
1,note_on,82,55,0
1,note_on,70,46,0
1,note_on,70,0,960
1,note_on,82,0,0
1,note_on,70,45,0
1,note_on,82,54,0
1,note_on,82,0,720
1,note_on,70,0,0
1,note_on,70,48,80
1,note_on,82,57,0
1,note_on,82,0,160
1,note_on,70,0,0
1,note_on,81,62,0
1,note_on,69,52,0
1,note_on,69,0,720
1,note_on,81,0,0
1,note_on,81,63,80
1,note_on,69,63,0
1,note_on,69,0,160
1,note_on,81,0,0
1,note_on,90,69,0
1,note_on,78,69,0
1,note_on,78,0,720
1,note_on,90,0,0
1,note_on,69,49,80
1,note_on,81,58,0
1,note_on,81,0,160
1,note_on,69,0,0
1,note_on,72,55,0
1,note_on,84,66,0
1,note_on,84,0,960
1,note_on,72,0,0
1,note_on,82,60,0
1,note_on,70,50,0
1,note_on,70,0,480
1,note_on,82,0,0
1,note_on,74,57,480
1,note_on,86,68,0
1,note_on,86,0,960
1,note_on,74,0,0
1,note_on,74,53,0
1,note_on,86,63,0
1,note_on,86,0,720
1,note_on,74,0,0
1,note_on,72,50,80
1,note_on,84,60,0
1,note_on,84,0,160
1,note_on,72,0,0
1,note_on,70,57,0
1,note_on,82,68,0
1,note_on,82,0,960
1,note_on,70,0,0
1,note_on,70,53,800
1,note_on,82,63,0
1,note_on,82,0,160
1,note_on,70,0,0
1,note_on,85,68,0
1,note_on,73,57,0
1,note_on,73,0,720
1,note_on,85,0,0
1,note_on,72,61,80
1,note_on,84,73,0
1,note_on,84,0,160
1,note_on,72,0,0
1,note_on,82,66,0
1,note_on,94,79,0
1,note_on,94,0,720
1,note_on,82,0,0
1,note_on,76,53,80
1,note_on,88,63,0
1,note_on,88,0,160
1,note_on,76,0,0
1,note_on,89,72,0
1,note_on,77,60,0
1,note_on,77,0,960
1,note_on,89,0,0
1,note_on,77,64,960
1,note_on,89,78,0
1,note_on,89,0,960
1,note_on,77,0,0
1,note_on,77,62,0
1,note_on,89,74,0
1,note_on,89,0,720
1,note_on,77,0,0
1,note_on,77,60,80
1,note_on,89,72,0
1,note_on,89,0,160
1,note_on,77,0,0
1,note_on,80,69,0
1,note_on,92,83,0
1,note_on,92,0,960
1,note_on,80,0,0
1,note_on,75,67,0
1,note_on,87,80,0
1,note_on,87,0,480
1,note_on,75,0,0
1,note_on,92,89,480
1,note_on,80,74,0
1,note_on,80,0,960
1,note_on,92,0,0
1,note_on,80,71,0
1,note_on,92,84,0
1,note_on,92,0,720
1,note_on,80,0,0
1,note_on,80,69,80
1,note_on,92,82,0
1,note_on,92,0,160
1,note_on,80,0,0
1,note_on,95,94,0
1,note_on,83,79,0
1,note_on,83,0,960
1,note_on,95,0,0
1,note_on,90,90,0
1,note_on,78,75,0
1,note_on,78,0,480
1,note_on,90,0,0
1,note_on,61,34,800
1,note_on,71,40,0
1,note_on,71,0,144
1,note_on,61,0,0
1,note_on,71,40,16
1,note_on,62,34,0
1,note_on,62,0,144
1,note_on,71,0,0
1,note_on,71,40,16
1,note_on,63,34,0
1,note_on,63,0,144
1,note_on,71,0,0
1,note_on,71,40,16
1,note_on,64,34,0
1,note_on,64,0,144
1,note_on,71,0,0
1,note_on,65,34,16
1,note_on,71,40,0
1,note_on,71,0,144
1,note_on,65,0,0
1,note_on,71,40,16
1,note_on,66,34,0
1,note_on,66,0,144
1,note_on,71,0,0
1,note_on,71,40,16
1,note_on,67,34,0
1,note_on,67,0,144
1,note_on,71,0,0
1,note_on,71,40,16
1,note_on,68,34,0
1,note_on,68,0,144
1,note_on,71,0,0
1,note_on,71,40,16
1,note_on,69,34,0
1,note_on,69,0,144
1,note_on,71,0,0
1,note_on,71,40,16
1,note_on,70,34,0
1,note_on,70,0,144
1,note_on,71,0,0
1,note_on,71,40,16
1,note_on,71,0,144
1,note_on,71,35,16
1,note_on,72,41,0
1,note_on,72,0,144
1,note_on,71,0,0
1,note_on,71,36,16
1,note_on,73,42,0
1,note_on,73,0,144
1,note_on,71,0,0
1,note_on,74,44,16
1,note_on,71,37,0
1,note_on,71,0,144
1,note_on,74,0,0
1,note_on,75,45,16
1,note_on,71,37,0
1,note_on,71,0,144
1,note_on,75,0,0
1,note_on,71,38,16
1,note_on,76,46,0
1,note_on,76,0,144
1,note_on,71,0,0
1,note_on,77,47,16
1,note_on,71,39,0
1,note_on,71,0,144
1,note_on,77,0,0
1,note_on,78,48,16
1,note_on,71,40,0
1,note_on,71,0,144
1,note_on,78,0,0
1,note_on,79,50,16
1,note_on,71,42,0
1,note_on,71,0,144
1,note_on,79,0,0
1,note_on,71,42,16
1,note_on,80,51,0
1,note_on,80,0,144
1,note_on,71,0,0
1,note_on,81,52,16
1,note_on,71,44,0
1,note_on,71,0,144
1,note_on,81,0,0
1,note_on,82,53,16
1,note_on,71,45,0
1,note_on,71,0,144
1,note_on,82,0,0
1,note_on,83,51,16
1,note_on,83,0,144
1,note_on,83,44,16
1,note_on,72,52,0
1,note_on,72,0,144
1,note_on,83,0,0
1,note_on,83,44,16
1,note_on,73,52,0
1,note_on,73,0,144
1,note_on,83,0,0
1,note_on,83,45,16
1,note_on,74,53,0
1,note_on,74,0,144
1,note_on,83,0,0
1,note_on,83,46,16
1,note_on,75,55,0
1,note_on,75,0,144
1,note_on,83,0,0
1,note_on,76,56,16
1,note_on,83,47,0
1,note_on,83,0,144
1,note_on,76,0,0
1,note_on,77,57,16
1,note_on,83,48,0
1,note_on,83,0,144
1,note_on,77,0,0
1,note_on,83,49,16
1,note_on,78,58,0
1,note_on,78,0,144
1,note_on,83,0,0
1,note_on,79,59,16
1,note_on,83,49,0
1,note_on,83,0,144
1,note_on,79,0,0
1,note_on,80,60,16
1,note_on,83,50,0
1,note_on,83,0,144
1,note_on,80,0,0
1,note_on,81,60,16
1,note_on,83,50,0
1,note_on,83,0,144
1,note_on,81,0,0
1,note_on,83,51,16
1,note_on,82,61,0
1,note_on,82,0,144
1,note_on,83,0,0
1,note_on,83,62,16
1,note_on,83,0,144
1,note_on,84,63,16
1,note_on,83,53,0
1,note_on,83,0,144
1,note_on,84,0,0
1,note_on,83,55,16
1,note_on,85,64,0
1,note_on,85,0,144
1,note_on,83,0,0
1,note_on,83,55,16
1,note_on,86,64,0
1,note_on,86,0,144
1,note_on,83,0,0
1,note_on,83,56,16
1,note_on,87,66,0
1,note_on,87,0,144
1,note_on,83,0,0
1,note_on,88,67,16
1,note_on,83,56,0
1,note_on,83,0,144
1,note_on,88,0,0
1,note_on,89,68,16
1,note_on,83,57,0
1,note_on,83,0,144
1,note_on,89,0,0
1,note_on,83,58,16
1,note_on,90,69,0
1,note_on,90,0,144
1,note_on,83,0,0
1,note_on,91,70,16
1,note_on,83,59,0
1,note_on,83,0,144
1,note_on,91,0,0
1,note_on,83,59,16
1,note_on,92,70,0
1,note_on,92,0,144
1,note_on,83,0,0
1,note_on,83,60,16
1,note_on,93,71,0
1,note_on,93,0,144
1,note_on,83,0,0
1,note_on,83,61,16
1,note_on,94,72,0
1,note_on,94,0,144
1,note_on,83,0,0
1,note_on,83,72,16
1,note_on,95,61,0
1,note_on,95,0,144
1,note_on,83,0,0
1,note_on,95,61,16
1,note_on,84,73,0
1,note_on,84,0,144
1,note_on,95,0,0
1,note_on,85,74,16
1,note_on,95,62,0
1,note_on,95,0,144
1,note_on,85,0,0
1,note_on,95,62,16
1,note_on,86,74,0
1,note_on,86,0,144
1,note_on,95,0,0
1,note_on,95,63,16
1,note_on,87,75,0
1,note_on,87,0,144
1,note_on,95,0,0
1,note_on,88,77,16
1,note_on,95,64,0
1,note_on,95,0,144
1,note_on,88,0,0
1,note_on,88,79,176
1,note_on,95,67,0
1,note_on,86,79,0
1,note_on,86,0,144
1,note_on,95,0,0
1,note_on,88,0,0
1,note_on,89,80,16
1,note_on,86,68,0
1,note_on,95,68,0
1,note_on,95,0,144
1,note_on,86,0,0
1,note_on,89,0,0
1,note_on,86,68,16
1,note_on,90,81,0
1,note_on,95,68,0
1,note_on,95,0,144
1,note_on,90,0,0
1,note_on,86,0,0
1,note_on,91,82,16
1,note_on,95,69,0
1,note_on,86,69,0
1,note_on,86,0,144
1,note_on,95,0,0
1,note_on,91,0,0
1,note_on,95,70,16
1,note_on,86,70,0
1,note_on,92,83,0
1,note_on,92,0,90
1,note_on,86,0,0
1,note_on,95,0,0
1,note_on,91,73,230
1,note_on,100,86,0
1,note_on,96,73,0
1,note_on,96,0,160
1,note_on,100,0,0
1,note_on,91,0,0
1,note_on,99,86,0
1,note_on,90,73,0
1,note_on,95,73,0
1,note_on,95,0,160
1,note_on,90,0,0
1,note_on,99,0,0
1,note_on,89,72,0
1,note_on,94,72,0
1,note_on,98,85,0
1,note_on,98,0,160
1,note_on,94,0,0
1,note_on,89,0,0
1,note_on,97,84,0
1,note_on,93,71,0
1,note_on,88,71,0
1,note_on,88,0,160
1,note_on,93,0,0
1,note_on,97,0,0
1,note_on,96,84,0
1,note_on,87,71,0
1,note_on,92,71,0
1,note_on,92,0,160
1,note_on,87,0,0
1,note_on,96,0,0
1,note_on,95,83,0
1,note_on,86,70,0
1,note_on,91,70,0
1,note_on,91,0,160
1,note_on,86,0,0
1,note_on,95,0,0
1,note_on,94,83,0
1,note_on,85,70,0
1,note_on,90,83,0
1,note_on,90,0,160
1,note_on,85,0,0
1,note_on,94,0,0
1,note_on,89,69,0
1,note_on,84,69,0
1,note_on,93,82,0
1,note_on,93,0,160
1,note_on,84,0,0
1,note_on,89,0,0
1,note_on,83,68,0
1,note_on,88,68,0
1,note_on,92,81,0
1,note_on,92,0,160
1,note_on,88,0,0
1,note_on,83,0,0
1,note_on,87,68,0
1,note_on,91,81,0
1,note_on,82,68,0
1,note_on,82,0,160
1,note_on,91,0,0
1,note_on,87,0,0
1,note_on,90,80,0
1,note_on,86,68,0
1,note_on,81,68,0
1,note_on,81,0,160
1,note_on,86,0,0
1,note_on,90,0,0
1,note_on,85,56,0
1,note_on,80,56,0
1,note_on,89,79,0
1,note_on,89,0,160
1,note_on,80,0,0
1,note_on,85,0,0
1,note_on,79,56,0
1,note_on,88,79,0
1,note_on,84,56,0
1,note_on,84,0,160
1,note_on,88,0,0
1,note_on,79,0,0
1,note_on,78,56,0
1,note_on,87,78,0
1,note_on,83,78,0
1,note_on,83,0,160
1,note_on,87,0,0
1,note_on,78,0,0
1,note_on,77,55,0
1,note_on,82,55,0
1,note_on,86,77,0
1,note_on,86,0,160
1,note_on,82,0,0
1,note_on,77,0,0
1,note_on,85,77,0
1,note_on,76,55,0
1,note_on,81,55,0
1,note_on,81,0,160
1,note_on,76,0,0
1,note_on,85,0,0
1,note_on,75,53,0
1,note_on,84,75,0
1,note_on,80,53,0
1,note_on,80,0,160
1,note_on,84,0,0
1,note_on,75,0,0
1,note_on,79,62,160
1,note_on,83,74,0
1,note_on,74,62,0
1,note_on,74,0,160
1,note_on,83,0,0
1,note_on,79,0,0
1,note_on,82,74,0
1,note_on,78,62,0
1,note_on,73,62,0
1,note_on,73,0,160
1,note_on,78,0,0
1,note_on,82,0,0
1,note_on,72,61,0
1,note_on,77,73,0
1,note_on,81,73,0
1,note_on,81,0,160
1,note_on,77,0,0
1,note_on,72,0,0
1,note_on,80,72,0
1,note_on,74,61,0
1,note_on,71,61,0
1,note_on,71,0,160
1,note_on,74,0,0
1,note_on,80,0,0
1,note_on,74,61,0
1,note_on,79,72,0
1,note_on,71,61,0
1,note_on,71,0,160
1,note_on,79,0,0
1,note_on,74,0,0
1,note_on,88,73,160
1,note_on,79,61,0
1,note_on,84,61,0
1,note_on,84,0,160
1,note_on,79,0,0
1,note_on,88,0,0
1,note_on,83,61,0
1,note_on,78,61,0
1,note_on,87,73,0
1,note_on,87,0,160
1,note_on,78,0,0
1,note_on,83,0,0
1,note_on,86,71,0
1,note_on,82,61,0
1,note_on,77,61,0
1,note_on,77,0,160
1,note_on,82,0,0
1,note_on,86,0,0
1,note_on,81,59,0
1,note_on,85,70,0
1,note_on,76,59,0
1,note_on,76,0,160
1,note_on,85,0,0
1,note_on,81,0,0
1,note_on,80,59,0
1,note_on,75,59,0
1,note_on,84,70,0
1,note_on,84,0,160
1,note_on,75,0,0
1,note_on,80,0,0
1,note_on,83,69,0
1,note_on,74,58,0
1,note_on,79,58,0
1,note_on,79,0,160
1,note_on,74,0,0
1,note_on,83,0,0
1,note_on,82,69,0
1,note_on,73,58,0
1,note_on,78,58,0
1,note_on,78,0,160
1,note_on,73,0,0
1,note_on,82,0,0
1,note_on,81,67,0
1,note_on,72,56,0
1,note_on,77,56,0
1,note_on,77,0,160
1,note_on,72,0,0
1,note_on,81,0,0
1,note_on,76,55,0
1,note_on,71,55,0
1,note_on,80,66,0
1,note_on,80,0,160
1,note_on,71,0,0
1,note_on,76,0,0
1,note_on,79,65,0
1,note_on,70,55,0
1,note_on,75,55,0
1,note_on,75,0,160
1,note_on,70,0,0
1,note_on,79,0,0
1,note_on,74,55,0
1,note_on,78,65,0
1,note_on,69,55,0
1,note_on,69,0,160
1,note_on,78,0,0
1,note_on,74,0,0
1,note_on,68,53,0
1,note_on,73,53,0
1,note_on,77,64,0
1,note_on,77,0,160
1,note_on,73,0,0
1,note_on,68,0,0
1,note_on,76,65,0
1,note_on,72,54,0
1,note_on,72,0,160
1,note_on,76,0,0
1,note_on,75,64,0
1,note_on,71,53,0
1,note_on,71,0,160
1,note_on,75,0,0
1,note_on,70,52,0
1,note_on,74,62,0
1,note_on,74,0,160
1,note_on,70,0,0
1,note_on,64,50,0
1,note_on,69,50,0
1,note_on,73,61,0
1,note_on,73,0,160
1,note_on,69,0,0
1,note_on,64,0,0
1,note_on,63,50,0
1,note_on,72,60,0
1,note_on,68,50,0
1,note_on,68,0,160
1,note_on,72,0,0
1,note_on,63,0,0
1,note_on,67,50,0
1,note_on,71,59,0
1,note_on,62,50,0
1,note_on,62,0,160
1,note_on,71,0,0
1,note_on,67,0,0
1,note_on,70,59,0
1,note_on,66,50,0
1,note_on,61,50,0
1,note_on,61,0,160
1,note_on,66,0,0
1,note_on,70,0,0
1,note_on,60,48,0
1,note_on,69,58,0
1,note_on,65,48,0
1,note_on,65,0,160
1,note_on,69,0,0
1,note_on,60,0,0
1,note_on,64,47,0
1,note_on,59,47,0
1,note_on,68,57,0
1,note_on,68,0,160
1,note_on,59,0,0
1,note_on,64,0,0
1,note_on,58,47,0
1,note_on,63,47,0
1,note_on,67,56,0
1,note_on,67,0,160
1,note_on,63,0,0
1,note_on,58,0,0
1,note_on,57,46,0
1,note_on,66,54,0
1,note_on,62,46,0
1,note_on,62,0,160
1,note_on,66,0,0
1,note_on,57,0,0
1,note_on,61,54,0
1,note_on,65,54,0
1,note_on,56,46,0
1,note_on,56,0,160
1,note_on,65,0,0
1,note_on,61,0,0
1,note_on,64,53,0
1,note_on,60,45,0
1,note_on,55,45,0
1,note_on,55,0,160
1,note_on,60,0,0
1,note_on,64,0,0
1,note_on,54,43,0
1,note_on,59,43,0
1,note_on,63,52,0
1,note_on,63,0,160
1,note_on,59,0,0
1,note_on,54,0,0
1,note_on,62,50,0
1,note_on,53,43,0
1,note_on,58,43,0
1,note_on,58,0,160
1,note_on,53,0,0
1,note_on,62,0,0
1,note_on,52,42,0
1,note_on,57,42,0
1,note_on,61,50,0
1,note_on,61,0,160
1,note_on,57,0,0
1,note_on,52,0,0
1,note_on,51,40,0
1,note_on,60,48,0
1,note_on,56,40,0
1,note_on,56,0,160
1,note_on,60,0,0
1,note_on,51,0,0
1,note_on,50,39,0
1,note_on,55,39,0
1,note_on,59,47,0
1,note_on,59,0,160
1,note_on,55,0,0
1,note_on,50,0,0
1,note_on,54,38,0
1,note_on,58,46,0
1,note_on,49,38,0
1,note_on,49,0,160
1,note_on,58,0,0
1,note_on,54,0,0
1,note_on,53,37,0
1,note_on,57,45,0
1,note_on,48,37,0
1,note_on,48,0,160
1,note_on,57,0,0
1,note_on,53,0,0
1,note_on,56,44,0
1,note_on,52,37,0
1,note_on,47,37,0
1,note_on,47,0,160
1,note_on,52,0,0
1,note_on,56,0,0
1,note_on,55,43,0
1,note_on,51,35,0
1,note_on,46,35,0
1,note_on,46,0,160
1,note_on,51,0,0
1,note_on,55,0,0
1,note_on,50,35,0
1,note_on,45,35,0
1,note_on,54,42,0
1,note_on,54,0,160
1,note_on,45,0,0
1,note_on,50,0,0
1,note_on,60,48,6240
1,note_on,60,0,480
1,note_on,61,49,0
1,note_on,61,0,480
1,note_on,62,52,0
1,note_on,62,0,480
1,note_on,63,53,0
1,note_on,63,0,480
1,note_on,64,57,0
1,note_on,64,0,480
1,note_on,65,58,0
1,note_on,65,0,480
1,note_on,66,61,0
1,note_on,66,0,480
1,note_on,67,65,0
1,note_on,67,0,480
1,note_on,68,66,0
1,note_on,68,0,480
1,note_on,69,69,0
1,note_on,69,0,480
1,note_on,70,71,0
1,note_on,70,0,480
1,note_on,71,75,0
1,note_on,71,0,480
1,note_on,72,78,0
1,note_on,72,0,480
1,note_on,61,70,0
1,note_on,73,80,0
1,note_on,73,0,240
1,note_on,61,0,0
1,note_on,70,75,240
1,note_on,82,90,0
1,note_on,69,55,800
1,note_on,81,66,0
1,note_on,81,0,160
1,note_on,70,0,0
1,note_on,82,0,0
1,note_on,69,0,0
1,note_on,67,53,0
1,note_on,79,63,0
1,note_on,65,53,159
1,note_on,79,0,1
1,note_on,67,0,0
1,note_on,77,63,0
1,note_on,65,0,159
1,note_on,77,0,1
1,note_on,76,70,0
1,note_on,64,59,0
1,note_on,62,55,157
1,note_on,64,0,3
1,note_on,76,0,0
1,note_on,74,65,0
1,note_on,62,0,157
1,note_on,74,0,3
1,note_on,73,73,0
1,note_on,61,62,0
1,note_on,61,0,160
1,note_on,73,0,0
1,note_on,76,65,0
1,note_on,64,55,0
1,note_on,64,0,160
1,note_on,76,0,0
1,note_on,72,72,0
1,note_on,60,60,0
1,note_on,60,0,160
1,note_on,72,0,0
1,note_on,76,65,0
1,note_on,64,55,0
1,note_on,64,0,160
1,note_on,76,0,0
1,note_on,59,60,0
1,note_on,71,72,0
1,note_on,71,0,160
1,note_on,59,0,0
1,note_on,76,65,0
1,note_on,64,55,0
1,note_on,64,0,160
1,note_on,76,0,0
1,note_on,58,60,0
1,note_on,70,72,0
1,note_on,70,0,160
1,note_on,58,0,0
1,note_on,76,66,0
1,note_on,64,55,0
1,note_on,64,0,160
1,note_on,76,0,0
1,note_on,57,60,0
1,note_on,69,72,0
1,note_on,69,0,240
1,note_on,57,0,0
1,note_on,73,75,240
1,note_on,85,90,0
1,note_on,85,0,320
1,note_on,73,0,0
1,note_on,82,66,0
1,note_on,70,55,0
1,note_on,70,0,160
1,note_on,82,0,0
1,note_on,81,63,0
1,note_on,69,53,0
1,note_on,69,0,160
1,note_on,81,0,0
1,note_on,79,63,0
1,note_on,67,53,0
1,note_on,67,0,160
1,note_on,79,0,0
1,note_on,65,59,0
1,note_on,77,70,0
1,note_on,77,0,160
1,note_on,65,0,0
1,note_on,76,72,0
1,note_on,64,60,0
1,note_on,64,0,160
1,note_on,76,0,0
1,note_on,79,65,0
1,note_on,67,55,0
1,note_on,67,0,160
1,note_on,79,0,0
1,note_on,63,60,0
1,note_on,75,72,0
1,note_on,75,0,160
1,note_on,63,0,0
1,note_on,67,52,0
1,note_on,79,62,0
1,note_on,79,0,160
1,note_on,67,0,0
1,note_on,74,73,0
1,note_on,62,62,0
1,note_on,62,0,160
1,note_on,74,0,0
1,note_on,67,52,0
1,note_on,79,62,0
1,note_on,79,0,160
1,note_on,67,0,0
1,note_on,61,60,0
1,note_on,73,72,0
1,note_on,73,0,160
1,note_on,61,0,0
1,note_on,67,53,0
1,note_on,79,63,0
1,note_on,79,0,160
1,note_on,67,0,0
1,note_on,70,64,0
1,note_on,58,48,0
1,note_on,58,0,160
1,note_on,70,0,0
1,note_on,79,73,0
1,note_on,67,58,0
1,note_on,67,0,120
1,note_on,79,0,0
1,note_on,57,63,120
1,note_on,69,75,0
1,note_on,69,0,120
1,note_on,57,0,0
1,note_on,76,75,120
1,note_on,88,90,0
1,note_on,88,0,320
1,note_on,76,0,0
1,note_on,74,55,0
1,note_on,86,66,0
1,note_on,86,0,160
1,note_on,74,0,0
1,note_on,85,63,0
1,note_on,73,53,0
1,note_on,73,0,160
1,note_on,85,0,0
1,note_on,82,63,0
1,note_on,70,53,0
1,note_on,70,0,160
1,note_on,82,0,0
1,note_on,81,70,0
1,note_on,69,59,0
1,note_on,69,0,160
1,note_on,81,0,0
1,note_on,79,64,0
1,note_on,91,77,0
1,note_on,91,0,160
1,note_on,79,0,0
1,note_on,89,72,0
1,note_on,77,61,0
1,note_on,77,0,160
1,note_on,89,0,0
1,note_on,88,71,0
1,note_on,76,60,0
1,note_on,76,0,160
1,note_on,88,0,0
1,note_on,86,68,0
1,note_on,74,57,0
1,note_on,74,0,160
1,note_on,86,0,0
1,note_on,73,57,0
1,note_on,85,68,0
1,note_on,85,0,160
1,note_on,73,0,0
1,note_on,94,75,0
1,note_on,82,63,0
1,note_on,82,0,160
1,note_on,94,0,0
1,note_on,93,77,0
1,note_on,81,64,0
1,note_on,81,0,160
1,note_on,93,0,0
1,note_on,91,75,0
1,note_on,79,63,0
1,note_on,79,0,160
1,note_on,91,0,0
1,note_on,77,62,0
1,note_on,89,73,0
1,note_on,89,0,160
1,note_on,77,0,0
1,note_on,88,72,0
1,note_on,76,61,0
1,note_on,76,0,160
1,note_on,88,0,0
1,note_on,100,84,0
1,note_on,88,71,0
1,note_on,88,0,160
1,note_on,100,0,0
1,note_on,86,69,0
1,note_on,98,82,0
1,note_on,98,0,160
1,note_on,86,0,0
1,note_on,97,78,0
1,note_on,85,65,0
1,note_on,85,0,160
1,note_on,97,0,0
1,note_on,82,67,0
1,note_on,94,79,0
1,note_on,94,0,160
1,note_on,82,0,0
1,note_on,93,78,0
1,note_on,81,66,0
1,note_on,81,0,160
1,note_on,93,0,0
1,note_on,82,61,0
1,note_on,94,72,0
1,note_on,94,0,160
1,note_on,82,0,0
1,note_on,79,63,0
1,note_on,91,76,0
1,note_on,91,0,160
1,note_on,79,0,0
1,note_on,94,70,0
1,note_on,82,59,0
1,note_on,82,0,160
1,note_on,94,0,0
1,note_on,77,63,0
1,note_on,89,76,0
1,note_on,89,0,160
1,note_on,77,0,0
1,note_on,91,70,0
1,note_on,79,70,0
1,note_on,79,0,160
1,note_on,91,0,0
1,note_on,76,63,0
1,note_on,88,76,0
1,note_on,88,0,160
1,note_on,76,0,0
1,note_on,91,70,0
1,note_on,79,70,0
1,note_on,79,0,160
1,note_on,91,0,0
1,note_on,86,76,0
1,note_on,74,63,0
1,note_on,74,0,160
1,note_on,86,0,0
1,note_on,76,60,0
1,note_on,88,71,0
1,note_on,88,0,160
1,note_on,76,0,0
1,note_on,85,77,0
1,note_on,73,64,0
1,note_on,73,0,160
1,note_on,85,0,0
1,note_on,88,73,0
1,note_on,76,61,0
1,note_on,76,0,160
1,note_on,88,0,0
1,note_on,70,64,0
1,note_on,82,78,0
1,note_on,82,0,160
1,note_on,70,0,0
1,note_on,73,59,0
1,note_on,85,69,0
1,note_on,85,0,160
1,note_on,73,0,0
1,note_on,81,79,0
1,note_on,69,66,0
1,note_on,69,0,160
1,note_on,81,0,0
1,note_on,70,61,0
1,note_on,82,72,0
1,note_on,82,0,160
1,note_on,70,0,0
1,note_on,79,79,0
1,note_on,67,67,0
1,note_on,67,0,160
1,note_on,79,0,0
1,note_on,82,73,0
1,note_on,70,61,0
1,note_on,70,0,160
1,note_on,82,0,0
1,note_on,77,81,0
1,note_on,65,67,0
1,note_on,65,0,160
1,note_on,77,0,0
1,note_on,79,74,0
1,note_on,67,62,0
1,note_on,67,0,160
1,note_on,79,0,0
1,note_on,76,82,0
1,note_on,64,69,0
1,note_on,64,0,160
1,note_on,76,0,0
1,note_on,67,63,0
1,note_on,79,74,0
1,note_on,79,0,160
1,note_on,67,0,0
1,note_on,74,84,0
1,note_on,62,70,0
1,note_on,62,0,160
1,note_on,74,0,0
1,note_on,64,64,0
1,note_on,76,75,0
1,note_on,76,0,160
1,note_on,64,0,0
1,note_on,73,82,0
1,note_on,61,68,0
1,note_on,61,0,160
1,note_on,73,0,0
1,note_on,76,73,0
1,note_on,64,63,0
1,note_on,64,0,160
1,note_on,76,0,0
1,note_on,58,69,0
1,note_on,70,83,0
1,note_on,70,0,160
1,note_on,58,0,0
1,note_on,61,64,0
1,note_on,73,75,0
1,note_on,73,0,160
1,note_on,61,0,0
1,note_on,57,71,0
1,note_on,69,85,0
1,note_on,69,0,160
1,note_on,57,0,0
1,note_on,58,65,0
1,note_on,70,76,0
1,note_on,70,0,160
1,note_on,58,0,0
1,note_on,68,86,0
1,note_on,56,71,0
1,note_on,56,0,160
1,note_on,68,0,0
1,note_on,69,79,0
1,note_on,57,66,0
1,note_on,57,0,160
1,note_on,69,0,0
1,note_on,55,73,0
1,note_on,67,86,0
1,note_on,67,0,160
1,note_on,55,0,0
1,note_on,57,66,0
1,note_on,69,79,0
1,note_on,69,0,160
1,note_on,57,0,0
1,note_on,66,86,0
1,note_on,54,74,0
1,note_on,54,0,160
1,note_on,66,0,0
1,note_on,69,77,0
1,note_on,57,65,0
1,note_on,57,0,160
1,note_on,69,0,0
1,note_on,65,88,0
1,note_on,53,74,0
1,note_on,53,0,160
1,note_on,65,0,0
1,note_on,57,67,0
1,note_on,69,80,0
1,note_on,69,0,160
1,note_on,57,0,0
1,note_on,64,88,0
1,note_on,52,75,0
1,note_on,52,0,160
1,note_on,64,0,0
1,note_on,69,80,0
1,note_on,57,68,0
1,note_on,57,0,160
1,note_on,69,0,0
1,note_on,63,90,0
1,note_on,51,76,0
1,note_on,51,0,240
1,note_on,63,0,0
1,note_on,69,83,0
1,note_on,57,71,0
1,note_on,57,0,240
1,note_on,69,0,0
1,note_on,48,77,0
1,note_on,60,91,0
1,note_on,60,0,240
1,note_on,48,0,0
1,note_on,69,83,0
1,note_on,57,71,0
1,note_on,57,0,240
1,note_on,69,0,0
1,note_on,49,77,0
1,note_on,61,91,0
1,note_on,61,0,240
1,note_on,49,0,0
1,note_on,57,70,0
1,note_on,69,83,0
1,note_on,69,0,180
1,note_on,57,0,0
1,note_on,86,59,60
1,note_on,77,50,0
1,note_on,74,50,0
1,note_on,74,0,480
1,note_on,77,0,0
1,note_on,86,0,0
1,note_on,74,50,240
1,note_on,77,50,0
1,note_on,86,59,0
1,note_on,86,0,480
1,note_on,77,0,0
1,note_on,74,0,0
1,note_on,72,45,120
1,note_on,84,54,0
1,note_on,84,0,120
1,note_on,72,0,0
1,note_on,82,59,0
1,note_on,76,50,0
1,note_on,70,50,0
1,note_on,70,0,480
1,note_on,76,0,0
1,note_on,82,0,0
1,note_on,70,50,240
1,note_on,82,59,0
1,note_on,76,50,0
1,note_on,76,0,480
1,note_on,82,0,0
1,note_on,70,0,0
1,note_on,82,56,120
1,note_on,70,47,0
1,note_on,70,0,120
1,note_on,82,0,0
1,note_on,69,52,0
1,note_on,81,62,0
1,note_on,76,52,0
1,note_on,76,0,480
1,note_on,81,0,0
1,note_on,69,0,0
1,note_on,81,61,120
1,note_on,69,51,0
1,note_on,69,0,120
1,note_on,81,0,0
1,note_on,79,54,0
1,note_on,88,64,0
1,note_on,76,54,0
1,note_on,76,0,480
1,note_on,88,0,0
1,note_on,79,0,0
1,note_on,79,62,120
1,note_on,67,52,0
1,note_on,67,0,120
1,note_on,79,0,0
1,note_on,77,65,0
1,note_on,65,55,0
1,note_on,69,55,0
1,note_on,69,0,480
1,note_on,65,0,0
1,note_on,77,0,0
1,note_on,69,49,120
1,note_on,81,58,0
1,note_on,81,0,120
1,note_on,69,0,0
1,note_on,62,52,0
1,note_on,74,62,0
1,note_on,65,52,0
1,note_on,65,0,480
1,note_on,74,0,0
1,note_on,62,0,0
1,note_on,72,50,240
1,note_on,84,59,0
1,note_on,76,50,0
1,note_on,76,0,480
1,note_on,84,0,0
1,note_on,72,0,0
1,note_on,79,51,240
1,note_on,72,51,0
1,note_on,84,60,0
1,note_on,84,0,480
1,note_on,72,0,0
1,note_on,79,0,0
1,note_on,70,47,120
1,note_on,82,56,0
1,note_on,82,0,120
1,note_on,70,0,0
1,note_on,77,53,0
1,note_on,81,62,0
1,note_on,69,53,0
1,note_on,69,0,480
1,note_on,81,0,0
1,note_on,77,0,0
1,note_on,72,50,120
1,note_on,84,60,0
1,note_on,84,0,120
1,note_on,72,0,0
1,note_on,77,64,0
1,note_on,69,54,0
1,note_on,65,54,0
1,note_on,65,0,480
1,note_on,69,0,0
1,note_on,77,0,0
1,note_on,88,66,240
1,note_on,80,56,0
1,note_on,76,56,0
1,note_on,76,0,480
1,note_on,80,0,0
1,note_on,88,0,0
1,note_on,76,57,240
1,note_on,83,57,0
1,note_on,88,67,0
1,note_on,88,0,480
1,note_on,83,0,0
1,note_on,76,0,0
1,note_on,74,53,120
1,note_on,86,63,0
1,note_on,86,0,120
1,note_on,74,0,0
1,note_on,81,59,0
1,note_on,73,59,0
1,note_on,85,69,0
1,note_on,85,0,480
1,note_on,73,0,0
1,note_on,81,0,0
1,note_on,76,56,120
1,note_on,88,67,0
1,note_on,88,0,120
1,note_on,76,0,0
1,note_on,81,71,0
1,note_on,69,60,0
1,note_on,73,60,0
1,note_on,73,0,480
1,note_on,69,0,0
1,note_on,81,0,0
1,note_on,81,69,120
1,note_on,69,58,0
1,note_on,69,0,120
1,note_on,81,0,0
1,note_on,91,73,0
1,note_on,85,62,0
1,note_on,79,62,0
1,note_on,79,0,480
1,note_on,85,0,0
1,note_on,91,0,0
1,note_on,81,73,240
1,note_on,69,62,0
1,note_on,69,0,480
1,note_on,81,0,0
1,note_on,81,67,120
1,note_on,69,56,0
1,note_on,69,0,120
1,note_on,81,0,0
1,note_on,84,62,0
1,note_on,78,62,0
1,note_on,90,73,0
1,note_on,90,0,480
1,note_on,78,0,0
1,note_on,84,0,0
1,note_on,69,62,240
1,note_on,81,73,0
1,note_on,81,0,480
1,note_on,69,0,0
1,note_on,81,70,120
1,note_on,69,58,0
1,note_on,69,0,120
1,note_on,81,0,0
1,note_on,77,65,0
1,note_on,89,77,0
1,note_on,80,65,0
1,note_on,80,0,480
1,note_on,89,0,0
1,note_on,77,0,0
1,note_on,89,76,120
1,note_on,77,63,0
1,note_on,77,0,120
1,note_on,89,0,0
1,note_on,76,67,0
1,note_on,80,67,0
1,note_on,88,80,0
1,note_on,88,0,480
1,note_on,80,0,0
1,note_on,76,0,0
1,note_on,74,65,120
1,note_on,86,77,0
1,note_on,86,0,120
1,note_on,74,0,0
1,note_on,85,81,0
1,note_on,73,68,0
1,note_on,81,68,0
1,note_on,81,0,480
1,note_on,73,0,0
1,note_on,85,0,0
1,note_on,88,72,120
1,note_on,76,61,0
1,note_on,76,0,120
1,note_on,88,0,0
1,note_on,81,77,0
1,note_on,73,65,0
1,note_on,69,65,0
1,note_on,69,0,480
1,note_on,73,0,0
1,note_on,81,0,0
1,note_on,57,61,120
1,note_on,69,72,0
1,note_on,69,0,120
1,note_on,57,0,0
1,note_on,73,57,0
1,note_on,79,67,0
1,note_on,67,57,0
1,note_on,67,0,480
1,note_on,79,0,0
1,note_on,73,0,0
1,note_on,57,57,240
1,note_on,69,67,0
1,note_on,69,0,480
1,note_on,57,0,0
1,note_on,57,51,120
1,note_on,69,62,0
1,note_on,69,0,120
1,note_on,57,0,0
1,note_on,72,57,0
1,note_on,66,57,0
1,note_on,78,67,0
1,note_on,78,0,480
1,note_on,66,0,0
1,note_on,72,0,0
1,note_on,57,57,240
1,note_on,69,67,0
1,note_on,69,0,480
1,note_on,57,0,0
1,note_on,69,64,120
1,note_on,57,54,0
1,note_on,57,0,120
1,note_on,69,0,0
1,note_on,65,59,0
1,note_on,68,59,0
1,note_on,77,71,0
1,note_on,77,0,480
1,note_on,68,0,0
1,note_on,65,0,0
1,note_on,65,58,120
1,note_on,77,70,0
1,note_on,77,0,120
1,note_on,65,0,0
1,note_on,68,62,0
1,note_on,76,73,0
1,note_on,64,62,0
1,note_on,64,0,480
1,note_on,76,0,0
1,note_on,68,0,0
1,note_on,74,71,120
1,note_on,62,59,0
1,note_on,62,0,120
1,note_on,74,0,0
1,note_on,69,63,0
1,note_on,61,63,0
1,note_on,73,74,0
1,note_on,73,0,240
1,note_on,61,0,0
1,note_on,69,0,0
1,note_on,64,49,120
1,note_on,73,58,0
1,note_on,73,0,120
1,note_on,64,0,0
1,note_on,67,51,120
1,note_on,76,60,0
1,note_on,76,0,120
1,note_on,67,0,0
1,note_on,70,63,120
1,note_on,79,63,0
1,note_on,79,0,120
1,note_on,70,0,0
1,note_on,82,65,120
1,note_on,73,54,0
1,note_on,73,0,120
1,note_on,82,0,0
1,note_on,83,80,0
1,note_on,80,67,0
1,note_on,71,67,0
1,note_on,77,67,0
1,note_on,77,0,120
1,note_on,83,0,0
1,note_on,80,0,0
1,note_on,71,0,0
1,note_on,76,71,120
1,note_on,88,84,0
1,note_on,85,71,0
1,note_on,81,71,0
1,note_on,81,0,120
1,note_on,76,0,0
1,note_on,88,0,0
1,note_on,85,0,0
1,note_on,85,64,240
1,note_on,76,53,0
1,note_on,76,0,120
1,note_on,85,0,0
1,note_on,79,55,120
1,note_on,88,66,0
1,note_on,88,0,120
1,note_on,79,0,0
1,note_on,91,69,120
1,note_on,82,69,0
1,note_on,82,0,120
1,note_on,91,0,0
1,note_on,94,71,120
1,note_on,85,59,0
1,note_on,85,0,120
1,note_on,94,0,0
1,note_on,89,64,0
1,note_on,83,64,0
1,note_on,92,64,0
1,note_on,95,77,0
1,note_on,95,0,120
1,note_on,89,0,0
1,note_on,83,0,0
1,note_on,92,0,0
1,note_on,97,67,120
1,note_on,88,67,0
1,note_on,93,67,0
1,note_on,100,79,0
1,note_on,100,0,120
1,note_on,97,0,0
1,note_on,88,0,0
1,note_on,93,0,0
1,note_on,92,57,240
1,note_on,95,69,0
1,note_on,83,57,0
1,note_on,89,57,0
1,note_on,89,0,120
1,note_on,92,0,0
1,note_on,95,0,0
1,note_on,83,0,0
1,note_on,97,59,0
1,note_on,100,71,0
1,note_on,93,59,0
1,note_on,88,59,0
1,note_on,88,0,120
1,note_on,97,0,0
1,note_on,100,0,0
1,note_on,93,0,0
1,note_on,92,57,120
1,note_on,83,57,0
1,note_on,95,70,0
1,note_on,89,57,0
1,note_on,89,0,120
1,note_on,92,0,0
1,note_on,83,0,0
1,note_on,95,0,0
1,note_on,93,61,120
1,note_on,97,61,0
1,note_on,100,73,0
1,note_on,88,61,0
1,note_on,88,0,120
1,note_on,93,0,0
1,note_on,97,0,0
1,note_on,100,0,0
1,note_on,83,59,120
1,note_on,92,59,0
1,note_on,89,59,0
1,note_on,95,71,0
1,note_on,95,0,120
1,note_on,83,0,0
1,note_on,92,0,0
1,note_on,89,0,0
1,note_on,93,61,120
1,note_on,97,61,0
1,note_on,100,74,0
1,note_on,88,61,0
1,note_on,88,0,120
1,note_on,93,0,0
1,note_on,97,0,0
1,note_on,100,0,0
1,note_on,89,60,240
1,note_on,95,73,0
1,note_on,92,60,0
1,note_on,83,60,0
1,note_on,83,0,120
1,note_on,89,0,0
1,note_on,95,0,0
1,note_on,92,0,0
1,note_on,88,64,0
1,note_on,93,64,0
1,note_on,100,75,0
1,note_on,97,64,0
1,note_on,97,0,120
1,note_on,88,0,0
1,note_on,93,0,0
1,note_on,100,0,0
1,note_on,89,61,120
1,note_on,92,61,0
1,note_on,95,73,0
1,note_on,83,61,0
1,note_on,83,0,120
1,note_on,89,0,0
1,note_on,92,0,0
1,note_on,95,0,0
1,note_on,88,64,120
1,note_on,97,64,0
1,note_on,93,64,0
1,note_on,100,76,0
1,note_on,100,0,120
1,note_on,88,0,0
1,note_on,97,0,0
1,note_on,93,0,0
1,note_on,92,61,120
1,note_on,89,61,0
1,note_on,95,74,0
1,note_on,83,61,0
1,note_on,83,0,120
1,note_on,92,0,0
1,note_on,89,0,0
1,note_on,95,0,0
1,note_on,97,66,120
1,note_on,88,66,0
1,note_on,100,78,0
1,note_on,93,66,0
1,note_on,93,0,120
1,note_on,97,0,0
1,note_on,88,0,0
1,note_on,100,0,0
1,note_on,80,55,120
1,note_on,68,47,0
1,note_on,68,0,120
1,note_on,80,0,0
1,note_on,69,47,0
1,note_on,81,55,0
1,note_on,81,0,120
1,note_on,69,0,0
1,note_on,82,59,0
1,note_on,70,50,0
1,note_on,70,0,120
1,note_on,82,0,0
1,note_on,81,57,120
1,note_on,69,49,0
1,note_on,69,0,120
1,note_on,81,0,0
1,note_on,82,58,0
1,note_on,70,49,0
1,note_on,70,0,120
1,note_on,82,0,0
1,note_on,83,63,0
1,note_on,71,53,0
1,note_on,71,0,120
1,note_on,83,0,0
1,note_on,82,60,120
1,note_on,70,51,0
1,note_on,70,0,120
1,note_on,82,0,0
1,note_on,71,52,0
1,note_on,83,61,0
1,note_on,83,0,120
1,note_on,71,0,0
1,note_on,84,67,0
1,note_on,72,55,0
1,note_on,72,0,120
1,note_on,84,0,0
1,note_on,81,60,120
1,note_on,69,51,0
1,note_on,69,0,120
1,note_on,81,0,0
1,note_on,82,60,0
1,note_on,70,51,0
1,note_on,70,0,120
1,note_on,82,0,0
1,note_on,71,54,0
1,note_on,83,64,0
1,note_on,83,0,120
1,note_on,71,0,0
1,note_on,70,52,120
1,note_on,82,61,0
1,note_on,82,0,120
1,note_on,70,0,0
1,note_on,83,63,0
1,note_on,71,53,0
1,note_on,71,0,120
1,note_on,83,0,0
1,note_on,84,68,0
1,note_on,72,57,0
1,note_on,72,0,120
1,note_on,84,0,0
1,note_on,83,66,120
1,note_on,71,55,0
1,note_on,71,0,120
1,note_on,83,0,0
1,note_on,72,56,0
1,note_on,84,67,0
1,note_on,84,0,120
1,note_on,72,0,0
1,note_on,85,72,0
1,note_on,73,60,0
1,note_on,73,0,120
1,note_on,85,0,0
1,note_on,70,57,120
1,note_on,82,69,0
1,note_on,82,0,120
1,note_on,70,0,0
1,note_on,83,69,0
1,note_on,71,57,0
1,note_on,71,0,120
1,note_on,83,0,0
1,note_on,84,74,0
1,note_on,72,61,0
1,note_on,72,0,120
1,note_on,84,0,0
1,note_on,71,59,120
1,note_on,83,71,0
1,note_on,83,0,120
1,note_on,71,0,0
1,note_on,84,72,0
1,note_on,72,60,0
1,note_on,72,0,120
1,note_on,84,0,0
1,note_on,85,77,0
1,note_on,73,64,0
1,note_on,73,0,120
1,note_on,85,0,0
1,note_on,72,61,120
1,note_on,84,74,0
1,note_on,84,0,120
1,note_on,72,0,0
1,note_on,73,61,0
1,note_on,85,74,0
1,note_on,85,0,120
1,note_on,73,0,0
1,note_on,86,83,0
1,note_on,74,70,0
1,note_on,74,0,180
1,note_on,86,0,0
1,note_on,68,50,0
1,note_on,65,42,0
1,note_on,65,0,60
1,note_on,68,0,0
1,note_on,69,60,0
1,note_on,66,51,0
1,note_on,66,0,180
1,note_on,69,0,0
1,note_on,86,83,60
1,note_on,74,70,0
1,note_on,74,0,180
1,note_on,86,0,0
1,note_on,68,50,0
1,note_on,65,42,0
1,note_on,65,0,60
1,note_on,68,0,0
1,note_on,69,60,0
1,note_on,66,51,0
1,note_on,84,68,120
1,note_on,72,57,0
1,note_on,66,0,60
1,note_on,69,0,0
1,note_on,84,0,60
1,note_on,72,0,0
1,note_on,82,83,0
1,note_on,70,70,0
1,note_on,70,0,180
1,note_on,82,0,0
1,note_on,66,50,0
1,note_on,63,42,0
1,note_on,63,0,60
1,note_on,66,0,0
1,note_on,64,51,0
1,note_on,67,60,0
1,note_on,67,0,180
1,note_on,64,0,0
1,note_on,82,84,60
1,note_on,70,71,0
1,note_on,70,0,180
1,note_on,82,0,0
1,note_on,63,42,0
1,note_on,66,50,0
1,note_on,66,0,60
1,note_on,63,0,0
1,note_on,67,60,0
1,note_on,64,51,0
1,note_on,82,68,120
1,note_on,70,57,0
1,note_on,64,0,60
1,note_on,67,0,0
1,note_on,82,0,60
1,note_on,70,0,0
1,note_on,81,82,0
1,note_on,69,69,0
1,note_on,69,0,180
1,note_on,81,0,0
1,note_on,63,50,0
1,note_on,60,42,0
1,note_on,60,0,60
1,note_on,63,0,0
1,note_on,61,51,0
1,note_on,64,60,0
1,note_on,81,75,120
1,note_on,69,63,0
1,note_on,64,0,60
1,note_on,61,0,0
1,note_on,81,0,60
1,note_on,69,0,0
1,note_on,76,68,0
1,note_on,88,83,0
1,note_on,88,0,180
1,note_on,76,0,0
1,note_on,63,50,0
1,note_on,60,42,0
1,note_on,60,0,60
1,note_on,63,0,0
1,note_on,61,51,0
1,note_on,64,60,0
1,note_on,67,57,120
1,note_on,79,68,0
1,note_on,64,0,60
1,note_on,61,0,0
1,note_on,67,0,60
1,note_on,79,0,0
1,note_on,66,69,0
1,note_on,78,82,0
1,note_on,78,0,180
1,note_on,66,0,0
1,note_on,65,42,0
1,note_on,68,50,0
1,note_on,68,0,60
1,note_on,65,0,0
1,note_on,66,51,0
1,note_on,69,60,0
1,note_on,69,55,120
1,note_on,81,65,0
1,note_on,69,0,60
1,note_on,66,0,0
1,note_on,69,0,60
1,note_on,81,0,0
1,note_on,74,79,0
1,note_on,62,67,0
1,note_on,62,0,180
1,note_on,74,0,0
1,note_on,65,50,0
1,note_on,61,42,0
1,note_on,61,0,60
1,note_on,65,0,0
1,note_on,66,60,0
1,note_on,62,51,0
1,note_on,62,0,180
1,note_on,66,0,0
1,note_on,73,70,60
1,note_on,85,83,0
1,note_on,85,0,180
1,note_on,73,0,0
1,note_on,64,42,0
1,note_on,67,50,0
1,note_on,67,0,60
1,note_on,64,0,0
1,note_on,68,60,0
1,note_on,65,51,0
1,note_on,65,0,180
1,note_on,68,0,0
1,note_on,73,70,60
1,note_on,85,83,0
1,note_on,85,0,180
1,note_on,73,0,0
1,note_on,64,42,0
1,note_on,67,50,0
1,note_on,67,0,60
1,note_on,64,0,0
1,note_on,68,60,0
1,note_on,65,51,0
1,note_on,71,57,120
1,note_on,83,68,0
1,note_on,65,0,60
1,note_on,68,0,0
1,note_on,71,0,60
1,note_on,83,0,0
1,note_on,69,70,0
1,note_on,81,83,0
1,note_on,81,0,180
1,note_on,69,0,0
1,note_on,65,42,0
1,note_on,68,50,0
1,note_on,68,0,60
1,note_on,65,0,0
1,note_on,66,51,0
1,note_on,69,60,0
1,note_on,69,0,180
1,note_on,66,0,0
1,note_on,66,71,60
1,note_on,78,84,0
1,note_on,78,0,180
1,note_on,66,0,0
1,note_on,65,42,0
1,note_on,68,50,0
1,note_on,68,0,60
1,note_on,65,0,0
1,note_on,66,51,0
1,note_on,69,60,0
1,note_on,81,68,120
1,note_on,69,57,0
1,note_on,69,0,60
1,note_on,66,0,0
1,note_on,81,0,60
1,note_on,69,0,0
1,note_on,76,70,0
1,note_on,88,83,0
1,note_on,88,0,180
1,note_on,76,0,0
1,note_on,70,50,0
1,note_on,67,42,0
1,note_on,67,0,60
1,note_on,70,0,0
1,note_on,71,60,0
1,note_on,68,51,0
1,note_on,68,0,180
1,note_on,71,0,0
1,note_on,88,83,60
1,note_on,76,70,0
1,note_on,76,0,180
1,note_on,88,0,0
1,note_on,70,50,0
1,note_on,67,42,0
1,note_on,67,0,60
1,note_on,70,0,0
1,note_on,68,51,0
1,note_on,71,60,0
1,note_on,86,68,120
1,note_on,74,57,0
1,note_on,71,0,60
1,note_on,68,0,0
1,note_on,86,0,60
1,note_on,74,0,0
1,note_on,85,83,0
1,note_on,73,70,0
1,note_on,73,0,180
1,note_on,85,0,0
1,note_on,72,50,0
1,note_on,68,42,0
1,note_on,68,0,60
1,note_on,72,0,0
1,note_on,73,60,0
1,note_on,69,51,0
1,note_on,69,0,180
1,note_on,73,0,0
1,note_on,69,71,60
1,note_on,81,84,0
1,note_on,81,0,180
1,note_on,69,0,0
1,note_on,72,50,0
1,note_on,68,42,0
1,note_on,68,0,60
1,note_on,72,0,0
1,note_on,73,60,0
1,note_on,69,51,0
1,note_on,69,57,120
1,note_on,81,68,0
1,note_on,69,0,60
1,note_on,73,0,0
1,note_on,69,0,60
1,note_on,81,0,0
1,note_on,84,56,0
1,note_on,90,66,0
1,note_on,78,56,0
1,note_on,78,0,180
1,note_on,90,0,0
1,note_on,84,0,0
1,note_on,74,40,0
1,note_on,71,33,0
1,note_on,71,0,60
1,note_on,74,0,0
1,note_on,72,40,0
1,note_on,75,48,0
1,note_on,75,0,180
1,note_on,72,0,0
1,note_on,90,66,60
1,note_on,78,56,0
1,note_on,84,56,0
1,note_on,84,0,180
1,note_on,78,0,0
1,note_on,90,0,0
1,note_on,71,33,0
1,note_on,74,40,0
1,note_on,74,0,60
1,note_on,71,0,0
1,note_on,72,40,0
1,note_on,75,48,0
1,note_on,84,45,120
1,note_on,78,45,0
1,note_on,90,54,0
1,note_on,75,0,60
1,note_on,72,0,0
1,note_on,78,0,60
1,note_on,84,0,0
1,note_on,90,0,0
1,note_on,81,56,0
1,note_on,85,56,0
1,note_on,93,66,0
1,note_on,93,0,180
1,note_on,85,0,0
1,note_on,81,0,0
1,note_on,75,40,0
1,note_on,72,33,0
1,note_on,72,0,60
1,note_on,75,0,0
1,note_on,73,40,0
1,note_on,76,48,0
1,note_on,76,0,180
1,note_on,73,0,0
1,note_on,88,67,60
1,note_on,76,56,0
1,note_on,81,56,0
1,note_on,81,0,180
1,note_on,76,0,0
1,note_on,88,0,0
1,note_on,72,40,0
1,note_on,68,33,0
1,note_on,68,0,60
1,note_on,72,0,0
1,note_on,69,40,0
1,note_on,73,48,0
1,note_on,73,0,180
1,note_on,69,0,0
1,note_on,84,58,60
1,note_on,78,58,0
1,note_on,90,69,0
1,note_on,90,0,180
1,note_on,78,0,0
1,note_on,84,0,0
1,note_on,71,34,0
1,note_on,74,42,0
1,note_on,74,0,60
1,note_on,71,0,0
1,note_on,72,42,0
1,note_on,75,50,0
1,note_on,75,0,180
1,note_on,72,0,0
1,note_on,78,58,60
1,note_on,84,58,0
1,note_on,90,69,0
1,note_on,90,0,180
1,note_on,84,0,0
1,note_on,78,0,0
1,note_on,71,34,0
1,note_on,74,42,0
1,note_on,74,0,60
1,note_on,71,0,0
1,note_on,72,42,0
1,note_on,75,50,0
1,note_on,84,47,120
1,note_on,78,47,0
1,note_on,90,56,0
1,note_on,75,0,60
1,note_on,72,0,0
1,note_on,78,0,60
1,note_on,84,0,0
1,note_on,90,0,0
1,note_on,86,58,0
1,note_on,94,69,0
1,note_on,82,58,0
1,note_on,82,0,180
1,note_on,94,0,0
1,note_on,86,0,0
1,note_on,76,42,0
1,note_on,73,34,0
1,note_on,73,0,60
1,note_on,76,0,0
1,note_on,77,50,0
1,note_on,74,42,0
1,note_on,74,0,180
1,note_on,77,0,0
1,note_on,77,58,60
1,note_on,89,70,0
1,note_on,82,58,0
1,note_on,82,0,180
1,note_on,89,0,0
1,note_on,77,0,0
1,note_on,73,42,0
1,note_on,69,34,0
1,note_on,69,0,60
1,note_on,73,0,0
1,note_on,70,42,0
1,note_on,74,50,0
1,note_on,74,0,180
1,note_on,70,0,0
1,note_on,91,72,60
1,note_on,79,60,0
1,note_on,85,60,0
1,note_on,85,0,180
1,note_on,79,0,0
1,note_on,91,0,0
1,note_on,75,44,0
1,note_on,72,36,0
1,note_on,72,0,60
1,note_on,75,0,0
1,note_on,76,53,0
1,note_on,73,44,0
1,note_on,73,0,180
1,note_on,76,0,0
1,note_on,91,74,60
1,note_on,85,62,0
1,note_on,79,62,0
1,note_on,79,0,180
1,note_on,85,0,0
1,note_on,91,0,0
1,note_on,75,45,0
1,note_on,72,37,0
1,note_on,72,0,60
1,note_on,75,0,0
1,note_on,76,55,0
1,note_on,73,46,0
1,note_on,91,61,120
1,note_on,85,51,0
1,note_on,79,51,0
1,note_on,73,0,60
1,note_on,76,0,0
1,note_on,85,0,60
1,note_on,91,0,0
1,note_on,79,0,0
1,note_on,95,76,0
1,note_on,87,64,0
1,note_on,83,64,0
1,note_on,83,0,180
1,note_on,87,0,0
1,note_on,95,0,0
1,note_on,74,47,0
1,note_on,70,38,0
1,note_on,70,0,60
1,note_on,74,0,0
1,note_on,75,56,0
1,note_on,71,47,0
1,note_on,71,0,180
1,note_on,75,0,0
1,note_on,83,66,60
1,note_on,95,79,0
1,note_on,95,0,180
1,note_on,83,0,0
1,note_on,73,39,0
1,note_on,76,48,0
1,note_on,76,0,60
1,note_on,73,0,0
1,note_on,74,48,0
1,note_on,77,58,0
1,note_on,83,54,120
1,note_on,95,65,0
1,note_on,77,0,60
1,note_on,74,0,0
1,note_on,83,0,60
1,note_on,95,0,0
1,note_on,84,68,0
1,note_on,96,81,0
1,note_on,96,0,180
1,note_on,84,0,0
1,note_on,71,40,0
1,note_on,75,49,0
1,note_on,75,0,60
1,note_on,71,0,0
1,note_on,76,60,0
1,note_on,72,50,0
1,note_on,72,0,180
1,note_on,76,0,0
1,note_on,85,70,60
1,note_on,97,83,0
1,note_on,97,0,180
1,note_on,85,0,0
1,note_on,78,51,0
1,note_on,75,41,0
1,note_on,75,0,60
1,note_on,78,0,0
1,note_on,79,61,0
1,note_on,76,51,0
1,note_on,85,58,120
1,note_on,97,69,0
1,note_on,76,0,60
1,note_on,79,0,0
1,note_on,85,0,60
1,note_on,97,0,0
1,note_on,86,72,0
1,note_on,98,85,0
1,note_on,98,0,180
1,note_on,86,0,0
1,note_on,76,45,0
1,note_on,80,53,0
1,note_on,80,0,60
1,note_on,76,0,0
1,note_on,81,62,0
1,note_on,77,52,0
1,note_on,77,0,180
1,note_on,81,0,0
1,note_on,81,66,60
1,note_on,93,78,0
1,note_on,93,0,180
1,note_on,81,0,0
1,note_on,73,45,0
1,note_on,76,53,0
1,note_on,76,0,60
1,note_on,73,0,0
1,note_on,77,60,0
1,note_on,74,51,0
1,note_on,74,0,180
1,note_on,77,0,0
1,note_on,77,72,60
1,note_on,89,85,0
1,note_on,89,0,180
1,note_on,77,0,0
1,note_on,68,45,0
1,note_on,73,53,0
1,note_on,73,0,60
1,note_on,68,0,0
1,note_on,74,62,0
1,note_on,69,52,0
1,note_on,69,0,180
1,note_on,74,0,0
1,note_on,86,78,60
1,note_on,74,66,0
1,note_on,74,0,180
1,note_on,86,0,0
1,note_on,64,45,0
1,note_on,68,53,0
1,note_on,68,0,60
1,note_on,64,0,0
1,note_on,65,51,0
1,note_on,69,60,0
1,note_on,69,0,180
1,note_on,65,0,0
1,note_on,82,72,60
1,note_on,94,85,0
1,note_on,94,0,180
1,note_on,82,0,0
1,note_on,73,45,0
1,note_on,76,53,0
1,note_on,76,0,60
1,note_on,73,0,0
1,note_on,74,52,0
1,note_on,77,62,0
1,note_on,77,0,180
1,note_on,74,0,0
1,note_on,77,66,60
1,note_on,89,78,0
1,note_on,89,0,180
1,note_on,77,0,0
1,note_on,69,45,0
1,note_on,73,53,0
1,note_on,73,0,60
1,note_on,69,0,0
1,note_on,70,51,0
1,note_on,74,60,0
1,note_on,74,0,180
1,note_on,70,0,0
1,note_on,74,72,60
1,note_on,86,85,0
1,note_on,86,0,180
1,note_on,74,0,0
1,note_on,69,53,0
1,note_on,64,45,0
1,note_on,64,0,60
1,note_on,69,0,0
1,note_on,70,62,0
1,note_on,65,52,0
1,note_on,65,0,180
1,note_on,70,0,0
1,note_on,82,78,60
1,note_on,70,66,0
1,note_on,70,0,180
1,note_on,82,0,0
1,note_on,64,53,0
1,note_on,61,45,0
1,note_on,61,0,60
1,note_on,64,0,0
1,note_on,62,51,0
1,note_on,65,60,0
1,note_on,65,0,180
1,note_on,62,0,0
1,note_on,87,85,60
1,note_on,75,72,0
1,note_on,75,0,180
1,note_on,87,0,0
1,note_on,66,47,0
1,note_on,62,40,0
1,note_on,62,0,60
1,note_on,66,0,0
1,note_on,63,46,0
1,note_on,67,55,0
1,note_on,67,0,180
1,note_on,63,0,0
1,note_on,82,78,60
1,note_on,70,66,0
1,note_on,70,0,180
1,note_on,82,0,0
1,note_on,66,47,0
1,note_on,62,40,0
1,note_on,62,0,60
1,note_on,66,0,0
1,note_on,67,54,0
1,note_on,63,45,0
1,note_on,63,0,180
1,note_on,67,0,0
1,note_on,75,72,60
1,note_on,87,85,0
1,note_on,87,0,180
1,note_on,75,0,0
1,note_on,66,47,0
1,note_on,62,40,0
1,note_on,62,0,60
1,note_on,66,0,0
1,note_on,67,55,0
1,note_on,63,46,0
1,note_on,63,0,180
1,note_on,67,0,0
1,note_on,82,78,60
1,note_on,70,66,0
1,note_on,70,0,180
1,note_on,82,0,0
1,note_on,66,47,0
1,note_on,62,40,0
1,note_on,62,0,60
1,note_on,66,0,0
1,note_on,63,45,0
1,note_on,67,54,0
1,note_on,67,0,180
1,note_on,63,0,0
1,note_on,69,72,60
1,note_on,81,85,0
1,note_on,81,0,180
1,note_on,69,0,0
1,note_on,64,53,0
1,note_on,61,45,0
1,note_on,61,0,60
1,note_on,64,0,0
1,note_on,62,52,0
1,note_on,65,62,0
1,note_on,65,0,180
1,note_on,62,0,0
1,note_on,77,78,60
1,note_on,65,66,0
1,note_on,65,0,180
1,note_on,77,0,0
1,note_on,56,45,0
1,note_on,61,53,0
1,note_on,61,0,60
1,note_on,56,0,0
1,note_on,57,51,0
1,note_on,62,60,0
1,note_on,62,0,180
1,note_on,57,0,0
1,note_on,64,72,60
1,note_on,76,85,0
1,note_on,76,0,180
1,note_on,64,0,0
1,note_on,55,52,60
1,note_on,58,52,0
1,note_on,62,62,0
1,note_on,62,0,180
1,note_on,58,0,0
1,note_on,55,0,0
1,note_on,69,66,60
1,note_on,81,78,0
1,note_on,81,0,180
1,note_on,69,0,0
1,note_on,69,60,60
1,note_on,61,51,0
1,note_on,57,51,0
1,note_on,64,51,0
1,note_on,64,0,180
1,note_on,69,0,0
1,note_on,61,0,0
1,note_on,57,0,0
1,note_on,62,70,60
1,note_on,62,0,68
1,note_on,62,53,12
1,note_on,62,0,68
1,note_on,74,54,12
1,note_on,74,0,68
1,note_on,74,54,12
1,note_on,74,0,68
1,note_on,86,54,12
1,note_on,86,0,68
1,note_on,86,58,12
1,note_on,86,0,68
1,note_on,98,62,12
1,note_on,98,0,68
1,note_on,86,54,12
1,note_on,86,0,68
1,note_on,86,58,12
1,note_on,86,0,68
1,note_on,74,54,12
1,note_on,74,0,68
1,note_on,74,58,12
1,note_on,74,0,68
1,note_on,62,54,12
1,note_on,62,0,68
1,note_on,62,45,92
1,note_on,66,54,0
1,note_on,66,0,68
1,note_on,62,0,0
1,note_on,72,45,12
1,note_on,74,54,0
1,note_on,74,0,68
1,note_on,72,0,0
1,note_on,74,46,12
1,note_on,78,55,0
1,note_on,78,0,68
1,note_on,74,0,0
1,note_on,84,49,12
1,note_on,86,58,0
1,note_on,86,0,68
1,note_on,84,0,0
1,note_on,90,55,12
1,note_on,86,46,0
1,note_on,86,0,68
1,note_on,90,0,0
1,note_on,96,53,12
1,note_on,98,63,0
1,note_on,98,0,68
1,note_on,96,0,0
1,note_on,90,55,12
1,note_on,86,46,0
1,note_on,86,0,68
1,note_on,90,0,0
1,note_on,86,60,12
1,note_on,84,51,0
1,note_on,84,0,68
1,note_on,86,0,0
1,note_on,78,55,12
1,note_on,74,46,0
1,note_on,74,0,68
1,note_on,78,0,0
1,note_on,72,49,12
1,note_on,74,58,0
1,note_on,74,0,68
1,note_on,72,0,0
1,note_on,66,54,12
1,note_on,62,45,0
1,note_on,62,0,68
1,note_on,66,0,0
1,note_on,65,53,92
1,note_on,62,45,0
1,note_on,62,0,68
1,note_on,65,0,0
1,note_on,74,53,12
1,note_on,71,45,0
1,note_on,71,0,68
1,note_on,74,0,0
1,note_on,77,53,12
1,note_on,74,45,0
1,note_on,74,0,68
1,note_on,77,0,0
1,note_on,86,56,12
1,note_on,83,47,0
1,note_on,83,0,68
1,note_on,86,0,0
1,note_on,89,53,12
1,note_on,86,45,0
1,note_on,86,0,68
1,note_on,89,0,0
1,note_on,98,60,12
1,note_on,95,51,0
1,note_on,95,0,68
1,note_on,98,0,0
1,note_on,86,45,12
1,note_on,89,53,0
1,note_on,89,0,68
1,note_on,86,0,0
1,note_on,83,47,12
1,note_on,86,56,0
1,note_on,86,0,68
1,note_on,83,0,0
1,note_on,77,53,12
1,note_on,74,45,0
1,note_on,74,0,68
1,note_on,77,0,0
1,note_on,71,48,12
1,note_on,74,57,0
1,note_on,74,0,68
1,note_on,71,0,0
1,note_on,62,45,12
1,note_on,65,53,0
1,note_on,65,0,68
1,note_on,62,0,0
1,note_on,62,45,92
1,note_on,64,53,0
1,note_on,64,0,68
1,note_on,62,0,0
1,note_on,70,45,12
1,note_on,74,53,0
1,note_on,74,0,68
1,note_on,70,0,0
1,note_on,76,53,12
1,note_on,74,45,0
1,note_on,74,0,68
1,note_on,76,0,0
1,note_on,82,47,12
1,note_on,86,56,0
1,note_on,86,0,68
1,note_on,82,0,0
1,note_on,86,45,12
1,note_on,88,53,0
1,note_on,88,0,68
1,note_on,86,0,0
1,note_on,98,60,12
1,note_on,94,51,0
1,note_on,94,0,68
1,note_on,98,0,0
1,note_on,86,45,12
1,note_on,88,53,0
1,note_on,88,0,68
1,note_on,86,0,0
1,note_on,82,47,12
1,note_on,86,56,0
1,note_on,86,0,68
1,note_on,82,0,0
1,note_on,74,45,12
1,note_on,76,53,0
1,note_on,76,0,68
1,note_on,74,0,0
1,note_on,70,48,12
1,note_on,74,57,0
1,note_on,74,0,68
1,note_on,70,0,0
1,note_on,62,45,12
1,note_on,64,53,0
1,note_on,64,0,68
1,note_on,62,0,0
1,note_on,66,54,92
1,note_on,62,45,0
1,note_on,62,0,68
1,note_on,66,0,0
1,note_on,69,45,12
1,note_on,74,54,0
1,note_on,74,0,68
1,note_on,69,0,0
1,note_on,74,46,12
1,note_on,78,55,0
1,note_on,78,0,68
1,note_on,74,0,0
1,note_on,81,49,12
1,note_on,86,58,0
1,note_on,86,0,68
1,note_on,81,0,0
1,note_on,86,46,12
1,note_on,90,55,0
1,note_on,90,0,68
1,note_on,86,0,0
1,note_on,93,53,12
1,note_on,98,63,0
1,note_on,98,0,68
1,note_on,93,0,0
1,note_on,90,55,12
1,note_on,86,46,0
1,note_on,86,0,68
1,note_on,90,0,0
1,note_on,86,60,12
1,note_on,81,51,0
1,note_on,81,0,68
1,note_on,86,0,0
1,note_on,78,55,12
1,note_on,74,46,0
1,note_on,74,0,68
1,note_on,78,0,0
1,note_on,69,49,12
1,note_on,74,58,0
1,note_on,74,0,68
1,note_on,69,0,0
1,note_on,66,54,12
1,note_on,62,45,0
1,note_on,62,0,68
1,note_on,66,0,0
1,note_on,63,54,92
1,note_on,60,45,0
1,note_on,60,0,68
1,note_on,63,0,0
1,note_on,66,45,12
1,note_on,72,54,0
1,note_on,72,0,68
1,note_on,66,0,0
1,note_on,75,55,12
1,note_on,72,46,0
1,note_on,72,0,68
1,note_on,75,0,0
1,note_on,78,49,12
1,note_on,84,58,0
1,note_on,84,0,68
1,note_on,78,0,0
1,note_on,84,46,12
1,note_on,87,55,0
1,note_on,87,0,68
1,note_on,84,0,0
1,note_on,96,63,12
1,note_on,90,53,0
1,note_on,90,0,68
1,note_on,96,0,0
1,note_on,87,55,12
1,note_on,84,46,0
1,note_on,84,0,68
1,note_on,87,0,0
1,note_on,84,60,12
1,note_on,78,51,0
1,note_on,78,0,68
1,note_on,84,0,0
1,note_on,72,46,12
1,note_on,75,55,0
1,note_on,75,0,68
1,note_on,72,0,0
1,note_on,72,58,12
1,note_on,66,49,0
1,note_on,66,0,68
1,note_on,72,0,0
1,note_on,60,45,12
1,note_on,63,54,0
1,note_on,63,0,68
1,note_on,60,0,0
1,note_on,62,53,92
1,note_on,59,45,0
1,note_on,59,0,68
1,note_on,62,0,0
1,note_on,71,53,12
1,note_on,65,45,0
1,note_on,65,0,68
1,note_on,71,0,0
1,note_on,74,53,12
1,note_on,71,45,0
1,note_on,71,0,68
1,note_on,74,0,0
1,note_on,83,56,12
1,note_on,77,47,0
1,note_on,77,0,68
1,note_on,83,0,0
1,note_on,86,53,12
1,note_on,83,45,0
1,note_on,83,0,68
1,note_on,86,0,0
1,note_on,95,60,12
1,note_on,89,51,0
1,note_on,89,0,68
1,note_on,95,0,0
1,note_on,83,45,12
1,note_on,86,53,0
1,note_on,86,0,68
1,note_on,83,0,0
1,note_on,77,47,12
1,note_on,83,56,0
1,note_on,83,0,68
1,note_on,77,0,0
1,note_on,74,53,12
1,note_on,71,45,0
1,note_on,71,0,68
1,note_on,74,0,0
1,note_on,71,57,12
1,note_on,65,48,0
1,note_on,65,0,68
1,note_on,71,0,0
1,note_on,59,45,12
1,note_on,62,53,0
1,note_on,62,0,68
1,note_on,59,0,0
1,note_on,58,45,12
1,note_on,61,53,0
1,note_on,61,0,68
1,note_on,58,0,0
1,note_on,64,45,12
1,note_on,70,53,0
1,note_on,70,0,68
1,note_on,64,0,0
1,note_on,70,45,12
1,note_on,73,53,0
1,note_on,73,0,68
1,note_on,70,0,0
1,note_on,82,56,12
1,note_on,76,47,0
1,note_on,76,0,68
1,note_on,82,0,0
1,note_on,82,45,12
1,note_on,85,53,0
1,note_on,85,0,68
1,note_on,82,0,0
1,note_on,94,60,12
1,note_on,88,51,0
1,note_on,88,0,68
1,note_on,94,0,0
1,note_on,58,53,12
1,note_on,55,45,0
1,note_on,55,0,68
1,note_on,58,0,0
1,note_on,67,53,12
1,note_on,61,45,0
1,note_on,61,0,68
1,note_on,67,0,0
1,note_on,67,45,12
1,note_on,70,53,0
1,note_on,70,0,68
1,note_on,67,0,0
1,note_on,79,56,12
1,note_on,73,47,0
1,note_on,73,0,68
1,note_on,79,0,0
1,note_on,82,53,12
1,note_on,79,45,0
1,note_on,79,0,68
1,note_on,82,0,0
1,note_on,91,60,12
1,note_on,85,51,0
1,note_on,85,0,68
1,note_on,91,0,0
1,note_on,62,70,12
1,note_on,62,0,120
1,note_on,85,60,120
1,note_on,94,70,0
1,note_on,85,0,80
1,note_on,84,60,0
1,note_on,84,0,80
1,note_on,83,60,0
1,note_on,83,0,80
1,note_on,94,0,0
1,note_on,82,60,0
1,note_on,91,76,0
1,note_on,82,0,80
1,note_on,81,60,0
1,note_on,81,0,80
1,note_on,80,60,0
1,note_on,80,0,80
1,note_on,91,0,0
1,note_on,88,70,0
1,note_on,79,60,0
1,note_on,79,0,80
1,note_on,78,60,0
1,note_on,78,0,80
1,note_on,77,60,0
1,note_on,77,0,80
1,note_on,88,0,0
1,note_on,85,76,0
1,note_on,76,64,0
1,note_on,76,0,120
1,note_on,85,0,0
1,note_on,70,59,120
1,note_on,82,70,0
1,note_on,82,0,120
1,note_on,70,0,0
1,note_on,73,52,0
1,note_on,76,62,0
1,note_on,76,0,120
1,note_on,73,0,0
1,note_on,69,59,0
1,note_on,81,70,0
1,note_on,81,0,120
1,note_on,69,0,0
1,note_on,76,62,0
1,note_on,73,52,0
1,note_on,73,0,120
1,note_on,76,0,0
1,note_on,67,59,0
1,note_on,79,70,0
1,note_on,79,0,120
1,note_on,67,0,0
1,note_on,70,53,0
1,note_on,73,63,0
1,note_on,73,0,120
1,note_on,70,0,0
1,note_on,74,60,0
1,note_on,86,72,0
1,note_on,78,60,0
1,note_on,78,0,120
1,note_on,86,0,0
1,note_on,74,0,0
1,note_on,82,63,120
1,note_on,73,54,0
1,note_on,73,0,80
1,note_on,72,54,0
1,note_on,72,0,80
1,note_on,71,54,0
1,note_on,71,0,80
1,note_on,82,0,0
1,note_on,79,68,0
1,note_on,70,54,0
1,note_on,70,0,80
1,note_on,69,54,0
1,note_on,69,0,80
1,note_on,68,54,0
1,note_on,68,0,80
1,note_on,79,0,0
1,note_on,76,63,0
1,note_on,67,54,0
1,note_on,67,0,80
1,note_on,66,54,0
1,note_on,66,0,80
1,note_on,65,54,0
1,note_on,65,0,80
1,note_on,76,0,0
1,note_on,64,57,0
1,note_on,73,68,0
1,note_on,73,0,120
1,note_on,64,0,0
1,note_on,58,58,120
1,note_on,70,69,0
1,note_on,70,0,120
1,note_on,58,0,0
1,note_on,64,60,0
1,note_on,61,50,0
1,note_on,61,0,120
1,note_on,64,0,0
1,note_on,69,69,0
1,note_on,57,58,0
1,note_on,57,0,120
1,note_on,69,0,0
1,note_on,61,50,0
1,note_on,64,60,0
1,note_on,64,0,120
1,note_on,61,0,0
1,note_on,67,69,0
1,note_on,55,58,0
1,note_on,55,0,120
1,note_on,67,0,0
1,note_on,58,51,0
1,note_on,61,61,0
1,note_on,61,0,120
1,note_on,58,0,0
1,note_on,62,59,0
1,note_on,66,59,0
1,note_on,74,70,0
1,note_on,74,0,120
1,note_on,66,0,0
1,note_on,62,0,0
1,note_on,64,58,120
1,note_on,70,58,0
1,note_on,73,58,0
1,note_on,76,69,0
1,note_on,76,0,90
1,note_on,64,0,0
1,note_on,70,0,0
1,note_on,73,0,0
1,note_on,73,58,30
1,note_on,64,58,0
1,note_on,70,58,0
1,note_on,76,69,0
1,note_on,76,0,90
1,note_on,73,0,0
1,note_on,64,0,0
1,note_on,70,0,0
1,note_on,74,65,30
1,note_on,78,77,0
1,note_on,66,65,0
1,note_on,69,65,0
1,note_on,69,0,120
1,note_on,74,0,0
1,note_on,78,0,0
1,note_on,66,0,0
1,note_on,82,73,120
1,note_on,76,61,0
1,note_on,73,61,0
1,note_on,70,61,0
1,note_on,70,0,90
1,note_on,82,0,0
1,note_on,76,0,0
1,note_on,73,0,0
1,note_on,70,61,30
1,note_on,82,73,0
1,note_on,76,61,0
1,note_on,73,61,0
1,note_on,73,0,90
1,note_on,70,0,0
1,note_on,82,0,0
1,note_on,76,0,0
1,note_on,78,58,30
1,note_on,74,58,0
1,note_on,86,85,0
1,note_on,81,65,0
1,note_on,81,0,120
1,note_on,78,0,0
1,note_on,74,0,0
1,note_on,86,0,0
1,note_on,76,61,120
1,note_on,88,72,0
1,note_on,82,61,0
1,note_on,85,61,0
1,note_on,85,0,90
1,note_on,76,0,0
1,note_on,88,0,0
1,note_on,82,0,0
1,note_on,76,61,30
1,note_on,88,72,0
1,note_on,82,61,0
1,note_on,85,61,0
1,note_on,85,0,90
1,note_on,76,0,0
1,note_on,88,0,0
1,note_on,82,0,0
1,note_on,78,69,30
1,note_on,81,69,0
1,note_on,86,69,0
1,note_on,90,82,0
1,note_on,90,0,120
1,note_on,78,0,0
1,note_on,81,0,0
1,note_on,86,0,0
1,note_on,82,65,120
1,note_on,85,65,0
1,note_on,88,65,0
1,note_on,94,77,0
1,note_on,94,0,90
1,note_on,82,0,0
1,note_on,85,0,0
1,note_on,88,0,0
1,note_on,82,65,30
1,note_on,85,65,0
1,note_on,88,65,0
1,note_on,94,77,0
1,note_on,94,0,90
1,note_on,82,0,0
1,note_on,85,0,0
1,note_on,88,0,0
1,note_on,98,87,30
1,note_on,90,73,0
1,note_on,86,73,0
1,note_on,86,0,120
1,note_on,90,0,0
1,note_on,98,0,0
1,note_on,88,66,120
1,note_on,94,78,0
1,note_on,85,66,0
1,note_on,82,66,0
1,note_on,82,0,90
1,note_on,88,0,0
1,note_on,94,0,0
1,note_on,85,0,0
1,note_on,85,66,30
1,note_on,82,66,0
1,note_on,88,66,0
1,note_on,94,78,0
1,note_on,94,0,90
1,note_on,85,0,0
1,note_on,82,0,0
1,note_on,88,0,0
1,note_on,86,76,30
1,note_on,98,91,0
1,note_on,90,76,0
1,note_on,90,0,120
1,note_on,98,0,0
1,note_on,86,0,0
1,note_on,85,72,120
1,note_on,88,72,0
1,note_on,94,85,0
1,note_on,82,72,0
1,note_on,82,0,90
1,note_on,85,0,0
1,note_on,88,0,0
1,note_on,94,0,0
1,note_on,85,72,30
1,note_on,82,72,0
1,note_on,88,72,0
1,note_on,94,85,0
1,note_on,94,0,90
1,note_on,85,0,0
1,note_on,82,0,0
1,note_on,88,0,0
1,note_on,86,79,30
1,note_on,98,93,0
1,note_on,90,79,0
1,note_on,90,0,240
1,note_on,98,0,0
1,note_on,86,0,0
1,note_on,94,86,0
1,note_on,82,73,0
1,note_on,88,73,0
1,note_on,85,73,0
1,note_on,85,0,240
1,note_on,94,0,0
1,note_on,82,0,0
1,note_on,88,0,0
1,note_on,94,86,240
1,note_on,82,73,0
1,note_on,88,73,0
1,note_on,85,73,0
1,note_on,85,0,240
1,note_on,94,0,0
1,note_on,82,0,0
1,note_on,88,0,0
1,note_on,82,70,240
1,note_on,94,83,0
1,note_on,85,70,0
1,note_on,88,70,0
1,note_on,88,0,240
1,note_on,82,0,0
1,note_on,94,0,0
1,note_on,85,0,0
1,note_on,77,70,0
1,note_on,83,83,0
1,note_on,89,83,0
1,note_on,80,70,0
1,note_on,80,0,240
1,note_on,77,0,0
1,note_on,83,0,0
1,note_on,89,0,0
1,note_on,72,70,0
1,note_on,75,70,0
1,note_on,78,70,0
1,note_on,84,83,0
1,note_on,84,0,240
1,note_on,72,0,0
1,note_on,75,0,0
1,note_on,78,0,0
1,note_on,67,70,0
1,note_on,70,70,0
1,note_on,79,83,0
1,note_on,73,70,0
1,note_on,73,0,240
1,note_on,67,0,0
1,note_on,70,0,0
1,note_on,79,0,0
1,note_on,74,83,0
1,note_on,62,70,0
1,note_on,65,70,0
1,note_on,68,70,0
1,note_on,68,0,240
1,note_on,74,0,0
1,note_on,62,0,0
1,note_on,65,0,0
1,note_on,60,70,0
1,note_on,69,83,0
1,note_on,63,70,0
1,note_on,57,70,0
1,note_on,57,0,240
1,note_on,60,0,0
1,note_on,69,0,0
1,note_on,63,0,0
1,note_on,70,83,0
1,note_on,58,70,0
1,note_on,61,70,0
1,note_on,64,70,0
1,note_on,64,0,240
1,note_on,70,0,0
1,note_on,58,0,0
1,note_on,61,0,0
1,note_on,53,68,480
1,note_on,59,68,0
1,note_on,65,81,0
1,note_on,59,0,480
1,note_on,53,0,0
1,note_on,65,0,240
1,note_on,61,72,0
1,note_on,61,0,240
1,note_on,62,72,0
1,note_on,62,0,360
1,note_on,64,72,0
1,note_on,64,0,45
1,note_on,64,72,15
1,note_on,64,0,45
1,note_on,67,81,15
1,note_on,67,0,720
1,note_on,65,77,0
1,note_on,65,0,240
1,note_on,64,79,0
1,note_on,64,0,320
1,note_on,62,75,0
1,note_on,62,0,320
1,note_on,61,75,0
1,note_on,61,0,320
1,note_on,60,80,0
1,note_on,60,0,320
1,note_on,59,76,0
1,note_on,59,0,320
1,note_on,53,57,0
1,note_on,56,57,0
1,note_on,58,68,0
1,note_on,58,0,320
1,note_on,56,0,0
1,note_on,53,0,0
1,note_on,58,69,0
1,note_on,54,58,0
1,note_on,54,0,960
1,note_on,58,0,0
1,note_on,53,58,0
1,note_on,58,69,0
1,note_on,58,0,960
1,note_on,53,0,0
1,note_on,58,58,0
1,note_on,63,69,0
1,note_on,51,58,0
1,note_on,51,0,960
1,note_on,63,0,0
1,note_on,58,0,0
1,note_on,63,75,0
1,note_on,51,63,0
1,note_on,56,63,0
1,note_on,56,0,840
1,note_on,51,0,0
1,note_on,63,0,0
1,note_on,53,62,0
1,note_on,62,62,0
1,note_on,65,74,0
1,note_on,56,62,0
1,note_on,56,0,90
1,note_on,53,0,0
1,note_on,62,0,0
1,note_on,65,0,0
1,note_on,56,68,30
1,note_on,53,68,0
1,note_on,62,68,0
1,note_on,65,80,0
1,note_on,65,0,240
1,note_on,56,0,0
1,note_on,53,0,0
1,note_on,62,0,0
1,note_on,61,54,2640
1,note_on,65,54,0
1,note_on,65,0,240
1,note_on,61,0,0
1,note_on,65,49,600
1,note_on,62,49,0
1,note_on,62,0,90
1,note_on,65,0,0
1,note_on,65,54,30
1,note_on,62,54,0
1,note_on,62,0,120
1,note_on,65,0,0
1,note_on,61,54,2760
1,note_on,65,54,0
1,note_on,65,0,240
1,note_on,61,0,0
1,note_on,62,49,600
1,note_on,65,49,0
1,note_on,65,0,90
1,note_on,62,0,0
1,note_on,65,54,30
1,note_on,62,54,0
1,note_on,62,0,120
1,note_on,65,0,0
1,note_on,62,48,600
1,note_on,62,0,240
1,note_on,71,54,0
1,note_on,71,0,720
1,note_on,62,51,0
1,note_on,62,0,240
1,note_on,56,43,720
1,note_on,56,0,240
1,note_on,65,51,0
1,note_on,65,0,720
1,note_on,56,46,0
1,note_on,56,0,240
1,note_on,65,55,4920
1,note_on,64,57,120
1,note_on,65,0,12
1,note_on,62,59,108
1,note_on,64,0,12
1,note_on,61,61,108
1,note_on,62,0,12
1,note_on,60,63,108
1,note_on,61,0,12
1,note_on,59,65,108
1,note_on,60,0,12
1,note_on,58,67,108
1,note_on,59,0,12
1,note_on,57,76,108
1,note_on,58,0,12
1,note_on,57,0,708
1,note_on,69,54,120
1,note_on,74,54,0
1,note_on,78,54,0
1,note_on,81,64,0
1,note_on,81,0,45
1,note_on,69,0,0
1,note_on,74,0,0
1,note_on,78,0,0
1,note_on,69,54,15
1,note_on,74,54,0
1,note_on,78,54,0
1,note_on,81,64,0
1,note_on,81,0,45
1,note_on,69,0,0
1,note_on,74,0,0
1,note_on,78,0,0
1,note_on,69,61,15
1,note_on,74,61,0
1,note_on,78,61,0
1,note_on,81,72,0
1,note_on,81,0,720
1,note_on,69,0,0
1,note_on,74,0,0
1,note_on,78,0,0
1,note_on,57,74,120
1,note_on,57,0,120
1,note_on,59,78,0
1,note_on,59,0,720
1,note_on,86,64,120
1,note_on,83,54,0
1,note_on,78,54,0
1,note_on,74,54,0
1,note_on,74,0,45
1,note_on,86,0,0
1,note_on,83,0,0
1,note_on,78,0,0
1,note_on,86,64,15
1,note_on,83,54,0
1,note_on,78,54,0
1,note_on,74,54,0
1,note_on,74,0,45
1,note_on,86,0,0
1,note_on,83,0,0
1,note_on,78,0,0
1,note_on,86,69,15
1,note_on,83,58,0
1,note_on,78,58,0
1,note_on,74,58,0
1,note_on,74,0,720
1,note_on,86,0,0
1,note_on,83,0,0
1,note_on,78,0,0
1,note_on,59,75,120
1,note_on,59,0,120
1,note_on,54,67,0
1,note_on,66,79,0
1,note_on,90,64,360
1,note_on,85,54,0
1,note_on,82,54,0
1,note_on,78,54,0
1,note_on,78,0,45
1,note_on,85,0,0
1,note_on,90,0,0
1,note_on,82,0,0
1,note_on,90,64,15
1,note_on,85,54,0
1,note_on,82,54,0
1,note_on,78,54,0
1,note_on,78,0,45
1,note_on,85,0,0
1,note_on,90,0,0
1,note_on,82,0,0
1,note_on,90,68,15
1,note_on,85,57,0
1,note_on,82,57,0
1,note_on,78,57,0
1,note_on,78,0,240
1,note_on,66,0,0
1,note_on,90,0,0
1,note_on,54,0,0
1,note_on,82,0,0
1,note_on,85,0,0
1,note_on,57,65,240
1,note_on,69,77,0
1,note_on,93,64,360
1,note_on,88,54,0
1,note_on,85,54,0
1,note_on,81,54,0
1,note_on,81,0,45
1,note_on,88,0,0
1,note_on,93,0,0
1,note_on,85,0,0
1,note_on,93,64,15
1,note_on,88,54,0
1,note_on,85,54,0
1,note_on,81,54,0
1,note_on,81,0,45
1,note_on,88,0,0
1,note_on,93,0,0
1,note_on,85,0,0
1,note_on,93,69,15
1,note_on,88,58,0
1,note_on,85,58,0
1,note_on,81,58,0
1,note_on,81,0,240
1,note_on,69,0,0
1,note_on,93,0,0
1,note_on,57,0,0
1,note_on,85,0,0
1,note_on,88,0,0
1,note_on,57,68,120
1,note_on,62,68,0
1,note_on,66,68,0
1,note_on,69,81,0
1,note_on,69,0,90
1,note_on,57,0,0
1,note_on,62,0,0
1,note_on,66,0,0
1,note_on,57,57,30
1,note_on,62,57,0
1,note_on,66,57,0
1,note_on,69,80,0
1,note_on,69,0,720
1,note_on,57,0,0
1,note_on,62,0,0
1,note_on,66,0,0
1,note_on,81,56,120
1,note_on,86,56,0
1,note_on,90,56,0
1,note_on,93,67,0
1,note_on,93,0,90
1,note_on,81,0,0
1,note_on,86,0,0
1,note_on,90,0,0
1,note_on,81,66,30
1,note_on,86,66,0
1,note_on,90,66,0
1,note_on,93,78,0
1,note_on,93,0,240
1,note_on,81,0,0
1,note_on,86,0,0
1,note_on,90,0,0
1,note_on,98,70,120
1,note_on,93,59,0
1,note_on,90,59,0
1,note_on,86,59,0
1,note_on,86,0,90
1,note_on,98,0,0
1,note_on,93,0,0
1,note_on,90,0,0
1,note_on,98,79,30
1,note_on,93,67,0
1,note_on,90,67,0
1,note_on,86,67,0
1,note_on,86,0,240
1,note_on,98,0,0
1,note_on,93,0,0
1,note_on,90,0,0
1,note_on,90,71,120
1,note_on,86,60,0
1,note_on,78,60,0
1,note_on,78,0,90
1,note_on,86,0,0
1,note_on,90,0,0
1,note_on,90,80,30
1,note_on,86,68,0
1,note_on,78,68,0
1,note_on,78,0,240
1,note_on,86,0,0
1,note_on,90,0,0
1,note_on,93,70,120
1,note_on,90,59,0
1,note_on,86,59,0
1,note_on,81,59,0
1,note_on,81,0,90
1,note_on,93,0,0
1,note_on,90,0,0
1,note_on,86,0,0
1,note_on,93,80,30
1,note_on,90,68,0
1,note_on,86,68,0
1,note_on,81,68,0
1,note_on,81,0,240
1,note_on,93,0,0
1,note_on,90,0,0
1,note_on,86,0,0
1,note_on,86,72,120
1,note_on,81,61,0
1,note_on,78,61,0
1,note_on,74,61,0
1,note_on,74,0,90
1,note_on,86,0,0
1,note_on,81,0,0
1,note_on,78,0,0
1,note_on,86,79,30
1,note_on,81,67,0
1,note_on,78,67,0
1,note_on,74,67,0
1,note_on,74,0,240
1,note_on,86,0,0
1,note_on,81,0,0
1,note_on,78,0,0
1,note_on,90,74,120
1,note_on,86,62,0
1,note_on,78,62,0
1,note_on,78,0,90
1,note_on,86,0,0
1,note_on,90,0,0
1,note_on,78,68,30
1,note_on,86,68,0
1,note_on,90,81,0
1,note_on,90,0,240
1,note_on,86,0,0
1,note_on,78,0,0
1,note_on,69,56,120
1,note_on,74,56,0
1,note_on,78,56,0
1,note_on,81,67,0
1,note_on,81,0,90
1,note_on,69,0,0
1,note_on,74,0,0
1,note_on,78,0,0
1,note_on,69,66,30
1,note_on,74,66,0
1,note_on,78,66,0
1,note_on,81,78,0
1,note_on,81,0,240
1,note_on,69,0,0
1,note_on,74,0,0
1,note_on,78,0,0
1,note_on,86,70,120
1,note_on,81,59,0
1,note_on,78,59,0
1,note_on,74,59,0
1,note_on,74,0,90
1,note_on,86,0,0
1,note_on,81,0,0
1,note_on,78,0,0
1,note_on,86,79,30
1,note_on,81,67,0
1,note_on,78,67,0
1,note_on,74,67,0
1,note_on,74,0,240
1,note_on,86,0,0
1,note_on,81,0,0
1,note_on,78,0,0
1,note_on,78,71,120
1,note_on,74,60,0
1,note_on,66,60,0
1,note_on,66,0,90
1,note_on,74,0,0
1,note_on,78,0,0
1,note_on,78,80,30
1,note_on,74,68,0
1,note_on,66,68,0
1,note_on,66,0,240
1,note_on,74,0,0
1,note_on,78,0,0
1,note_on,81,70,120
1,note_on,78,59,0
1,note_on,74,59,0
1,note_on,69,59,0
1,note_on,69,0,90
1,note_on,81,0,0
1,note_on,78,0,0
1,note_on,74,0,0
1,note_on,81,80,30
1,note_on,78,68,0
1,note_on,74,68,0
1,note_on,69,68,0
1,note_on,69,0,240
1,note_on,81,0,0
1,note_on,78,0,0
1,note_on,74,0,0
1,note_on,74,72,120
1,note_on,69,61,0
1,note_on,66,61,0
1,note_on,62,61,0
1,note_on,62,0,90
1,note_on,74,0,0
1,note_on,69,0,0
1,note_on,66,0,0
1,note_on,74,79,30
1,note_on,69,67,0
1,note_on,66,67,0
1,note_on,62,67,0
1,note_on,62,0,240
1,note_on,74,0,0
1,note_on,69,0,0
1,note_on,66,0,0
1,note_on,78,74,120
1,note_on,74,62,0
1,note_on,66,62,0
1,note_on,66,0,90
1,note_on,74,0,0
1,note_on,78,0,0
1,note_on,66,68,30
1,note_on,74,68,0
1,note_on,78,81,0
1,note_on,78,0,240
1,note_on,74,0,0
1,note_on,66,0,0
1,note_on,57,56,120
1,note_on,62,56,0
1,note_on,66,56,0
1,note_on,69,67,0
1,note_on,69,0,90
1,note_on,57,0,0
1,note_on,62,0,0
1,note_on,66,0,0
1,note_on,57,66,30
1,note_on,62,66,0
1,note_on,66,66,0
1,note_on,69,78,0
1,note_on,69,0,240
1,note_on,57,0,0
1,note_on,62,0,0
1,note_on,66,0,0
1,note_on,74,70,120
1,note_on,69,59,0
1,note_on,66,59,0
1,note_on,62,59,0
1,note_on,62,0,90
1,note_on,74,0,0
1,note_on,69,0,0
1,note_on,66,0,0
1,note_on,74,79,30
1,note_on,69,67,0
1,note_on,66,67,0
1,note_on,62,67,0
1,note_on,62,0,240
1,note_on,74,0,0
1,note_on,69,0,0
1,note_on,66,0,0
1,note_on,66,71,120
1,note_on,62,60,0
1,note_on,54,60,0
1,note_on,54,0,90
1,note_on,62,0,0
1,note_on,66,0,0
1,note_on,66,80,30
1,note_on,62,68,0
1,note_on,54,68,0
1,note_on,54,0,240
1,note_on,62,0,0
1,note_on,66,0,0
1,note_on,69,70,120
1,note_on,66,59,0
1,note_on,62,59,0
1,note_on,57,59,0
1,note_on,57,0,90
1,note_on,69,0,0
1,note_on,66,0,0
1,note_on,62,0,0
1,note_on,69,80,30
1,note_on,66,68,0
1,note_on,62,68,0
1,note_on,57,68,0
1,note_on,57,0,240
1,note_on,69,0,0
1,note_on,66,0,0
1,note_on,62,0,0
1,note_on,62,70,120
1,note_on,57,59,0
1,note_on,54,59,0
1,note_on,50,59,0
1,note_on,50,0,90
1,note_on,62,0,0
1,note_on,57,0,0
1,note_on,54,0,0
1,note_on,50,65,30
1,note_on,54,65,0
1,note_on,57,65,0
1,note_on,62,77,0
1,note_on,62,0,216
1,note_on,50,0,0
1,note_on,54,0,0
1,note_on,57,0,0
1,note_on,62,70,24
1,note_on,58,59,0
1,note_on,55,59,0
1,note_on,50,59,0
1,note_on,50,0,216
1,note_on,62,0,0
1,note_on,58,0,0
1,note_on,55,0,0
1,note_on,50,65,24
1,note_on,54,65,0
1,note_on,57,65,0
1,note_on,62,77,0
1,note_on,62,0,216
1,note_on,50,0,0
1,note_on,54,0,0
1,note_on,57,0,0
1,note_on,50,59,24
1,note_on,55,59,0
1,note_on,58,59,0
1,note_on,62,70,0
1,note_on,62,0,216
1,note_on,50,0,0
1,note_on,55,0,0
1,note_on,58,0,0
1,note_on,50,65,24
1,note_on,54,65,0
1,note_on,57,65,0
1,note_on,62,77,0
1,note_on,62,0,216
1,note_on,50,0,0
1,note_on,54,0,0
1,note_on,57,0,0
1,note_on,62,70,24
1,note_on,58,59,0
1,note_on,55,59,0
1,note_on,50,59,0
1,note_on,50,0,216
1,note_on,62,0,0
1,note_on,58,0,0
1,note_on,55,0,0
1,note_on,50,65,24
1,note_on,54,65,0
1,note_on,57,65,0
1,note_on,62,77,0
1,note_on,62,0,216
1,note_on,50,0,0
1,note_on,54,0,0
1,note_on,57,0,0
1,note_on,50,59,24
1,note_on,55,59,0
1,note_on,58,59,0
1,note_on,62,70,0
1,note_on,62,0,216
1,note_on,50,0,0
1,note_on,55,0,0
1,note_on,58,0,0
1,note_on,50,65,24
1,note_on,54,65,0
1,note_on,57,65,0
1,note_on,62,77,0
1,note_on,62,0,180
1,note_on,50,0,0
1,note_on,54,0,0
1,note_on,57,0,0
1,note_on,62,70,60
1,note_on,58,59,0
1,note_on,55,59,0
1,note_on,50,59,0
1,note_on,50,0,180
1,note_on,62,0,0
1,note_on,58,0,0
1,note_on,55,0,0
1,note_on,50,65,60
1,note_on,54,65,0
1,note_on,57,65,0
1,note_on,62,77,0
1,note_on,62,0,180
1,note_on,50,0,0
1,note_on,54,0,0
1,note_on,57,0,0
1,note_on,50,59,60
1,note_on,55,59,0
1,note_on,58,59,0
1,note_on,62,70,0
1,note_on,62,0,180
1,note_on,50,0,0
1,note_on,55,0,0
1,note_on,58,0,0
1,note_on,50,67,60
1,note_on,54,67,0
1,note_on,57,67,0
1,note_on,62,79,0
1,note_on,62,0,480
1,note_on,50,0,0
1,note_on,54,0,0
1,note_on,57,0,0
1,note_on,62,73,0
1,note_on,66,73,0
1,note_on,69,73,0
1,note_on,74,86,0
1,note_on,74,0,480
1,note_on,62,0,0
1,note_on,66,0,0
1,note_on,69,0,0
1,note_on,74,78,0
1,note_on,78,78,0
1,note_on,81,78,0
1,note_on,86,92,0
1,note_on,86,0,480
1,note_on,74,0,0
1,note_on,78,0,0
1,note_on,81,0,0
1,note_on,86,82,0
1,note_on,90,82,0
1,note_on,93,82,0
1,note_on,98,97,0
1,note_on,98,0,480
1,note_on,86,0,0
1,note_on,90,0,0
1,note_on,93,0,0
1,note_on,62,113,0
1,note_on,62,0,1920
2,note_on,61,56,270
2,note_on,67,58,30
2,note_on,70,60,30
2,note_on,76,62,30
2,note_on,61,0,150
2,note_on,67,0,30
2,note_on,70,0,30
2,note_on,76,0,30
2,note_on,56,54,630
2,note_on,62,55,30
2,note_on,65,58,30
2,note_on,71,61,30
2,note_on,56,0,150
2,note_on,62,0,30
2,note_on,65,0,30
2,note_on,71,0,30
2,note_on,51,44,735
2,note_on,57,45,15
2,note_on,60,47,15
2,note_on,66,48,15
2,note_on,51,0,195
2,note_on,57,0,15
2,note_on,60,0,15
2,note_on,66,0,15
2,note_on,46,42,195
2,note_on,52,43,15
2,note_on,55,45,15
2,note_on,61,47,15
2,note_on,46,0,195
2,note_on,52,0,15
2,note_on,55,0,15
2,note_on,61,0,15
2,note_on,41,44,195
2,note_on,47,46,15
2,note_on,50,49,15
2,note_on,56,51,15
2,note_on,41,0,195
2,note_on,47,0,15
2,note_on,50,0,15
2,note_on,56,0,15
2,note_on,36,46,195
2,note_on,42,48,15
2,note_on,45,51,15
2,note_on,51,53,15
2,note_on,36,0,195
2,note_on,42,0,15
2,note_on,45,0,15
2,note_on,51,0,15
2,note_on,37,47,195
2,note_on,43,49,15
2,note_on,46,51,15
2,note_on,52,53,15
2,note_on,37,0,195
2,note_on,43,0,15
2,note_on,46,0,15
2,note_on,52,0,15
2,note_on,38,49,210
2,note_on,44,51,15
2,note_on,47,54,15
2,note_on,53,56,15
2,note_on,38,0,195
2,note_on,44,0,15
2,note_on,47,0,15
2,note_on,53,0,15
2,note_on,34,50,195
2,note_on,41,52,15
2,note_on,44,54,15
2,note_on,50,56,15
2,note_on,34,0,195
2,note_on,41,0,15
2,note_on,44,0,15
2,note_on,50,0,15
2,note_on,33,53,180
2,note_on,38,54,15
2,note_on,41,57,15
2,note_on,45,59,15
2,note_on,33,0,195
2,note_on,38,0,15
2,note_on,41,0,15
2,note_on,45,0,15
2,note_on,45,53,780
2,note_on,50,53,0
2,note_on,57,63,0
2,note_on,53,53,0
2,note_on,53,0,240
2,note_on,45,0,0
2,note_on,50,0,0
2,note_on,57,0,0
2,note_on,61,53,720
2,note_on,69,63,0
2,note_on,57,53,0
2,note_on,64,53,0
2,note_on,64,0,240
2,note_on,61,0,0
2,note_on,69,0,0
2,note_on,57,0,0
2,note_on,33,29,1803
2,note_on,34,31,119
2,note_on,33,0,61
2,note_on,37,32,59
2,note_on,34,0,60
2,note_on,41,34,57
2,note_on,37,0,63
2,note_on,40,34,35
2,note_on,41,0,46
2,note_on,38,33,49
2,note_on,40,0,49
2,note_on,37,32,45
2,note_on,38,0,50
2,note_on,34,30,46
2,note_on,37,0,48
2,note_on,33,32,53
2,note_on,34,0,43
2,note_on,34,32,33
2,note_on,33,0,45
2,note_on,37,32,34
2,note_on,34,0,41
2,note_on,38,34,41
2,note_on,37,0,38
2,note_on,40,35,42
2,note_on,38,0,40
2,note_on,41,36,38
2,note_on,40,0,42
2,note_on,46,37,41
2,note_on,41,0,37
2,note_on,45,36,43
2,note_on,46,0,40
2,note_on,43,36,40
2,note_on,45,0,40
2,note_on,41,34,41
2,note_on,43,0,39
2,note_on,40,34,41
2,note_on,41,0,40
2,note_on,38,32,39
2,note_on,40,0,41
2,note_on,37,33,41
2,note_on,38,0,38
2,note_on,38,33,21
2,note_on,37,0,31
2,note_on,40,33,25
2,note_on,38,0,34
2,note_on,41,34,30
2,note_on,40,0,26
2,note_on,43,35,30
2,note_on,41,0,34
2,note_on,45,35,27
2,note_on,43,0,29
2,note_on,46,36,34
2,note_on,45,0,27
2,note_on,49,37,32
2,note_on,46,0,31
2,note_on,53,38,30
2,note_on,49,0,29
2,note_on,52,37,63
2,note_on,53,0,52
2,note_on,50,37,45
2,note_on,52,0,47
2,note_on,49,37,52
2,note_on,50,0,45
2,note_on,46,37,52
2,note_on,49,0,47
2,note_on,45,38,46
2,note_on,46,0,51
2,note_on,46,39,31
2,note_on,45,0,38
2,note_on,49,40,41
2,note_on,46,0,41
2,note_on,50,41,36
2,note_on,49,0,43
2,note_on,52,41,39
2,note_on,50,0,38
2,note_on,53,42,44
2,note_on,52,0,38
2,note_on,58,43,38
2,note_on,53,0,44
2,note_on,57,43,39
2,note_on,58,0,37
2,note_on,55,43,44
2,note_on,57,0,39
2,note_on,53,42,37
2,note_on,55,0,44
2,note_on,52,42,41
2,note_on,53,0,35
2,note_on,50,40,45
2,note_on,52,0,40
2,note_on,49,40,39
2,note_on,50,0,41
2,note_on,50,40,20
2,note_on,49,0,29
2,note_on,52,41,26
2,note_on,50,0,35
2,note_on,53,42,30
2,note_on,52,0,25
2,note_on,55,43,30
2,note_on,53,0,35
2,note_on,57,43,25
2,note_on,55,0,30
2,note_on,58,43,33
2,note_on,57,0,27
2,note_on,61,44,34
2,note_on,58,0,29
2,note_on,65,45,28
2,note_on,61,0,33
2,note_on,64,45,62
2,note_on,65,0,49
2,note_on,62,45,52
2,note_on,64,0,43
2,note_on,61,44,51
2,note_on,62,0,50
2,note_on,58,44,47
2,note_on,61,0,47
2,note_on,57,44,49
2,note_on,58,0,48
2,note_on,58,44,32
2,note_on,57,0,40
2,note_on,61,46,37
2,note_on,58,0,43
2,note_on,62,47,38
2,note_on,61,0,39
2,note_on,64,48,44
2,note_on,62,0,37
2,note_on,65,48,40
2,note_on,64,0,43
2,note_on,70,48,36
2,note_on,65,0,41
2,note_on,69,47,40
2,note_on,70,0,39
2,note_on,67,46,43
2,note_on,69,0,38
2,note_on,65,46,43
2,note_on,67,0,39
2,note_on,64,44,40
2,note_on,65,0,41
2,note_on,62,43,36
2,note_on,64,0,43
2,note_on,61,43,38
2,note_on,62,0,39
2,note_on,62,44,23
2,note_on,61,0,28
2,note_on,64,45,28
2,note_on,62,0,34
2,note_on,65,46,27
2,note_on,64,0,29
2,note_on,67,47,32
2,note_on,65,0,29
2,note_on,69,48,29
2,note_on,67,0,32
2,note_on,70,49,31
2,note_on,69,0,27
2,note_on,73,51,32
2,note_on,70,0,31
2,note_on,77,52,30
2,note_on,73,0,29
2,note_on,76,52,67
2,note_on,77,0,48
2,note_on,74,50,46
2,note_on,76,0,50
2,note_on,73,51,47
2,note_on,74,0,47
2,note_on,70,49,48
2,note_on,73,0,49
2,note_on,69,48,49
2,note_on,70,0,46
2,note_on,70,50,50
2,note_on,69,0,48
2,note_on,73,51,47
2,note_on,70,0,49
2,note_on,74,53,50
2,note_on,73,0,45
2,note_on,76,54,47
2,note_on,74,0,52
2,note_on,77,55,47
2,note_on,76,0,45
2,note_on,79,56,48
2,note_on,77,0,51
2,note_on,81,58,48
2,note_on,79,0,45
2,note_on,82,59,51
2,note_on,81,0,48
2,note_on,85,60,44
2,note_on,82,0,52
2,note_on,89,63,44
2,note_on,85,0,48
2,note_on,88,63,11
2,note_on,89,0,1
2,note_on,88,0,59
2,note_on,86,63,4
2,note_on,85,63,56
2,note_on,86,0,4
2,note_on,85,0,56
2,note_on,82,62,3
2,note_on,81,62,55
2,note_on,82,0,5
2,note_on,81,0,55
2,note_on,79,62,6
2,note_on,79,0,60
2,note_on,77,61,1
2,note_on,76,61,54
2,note_on,77,0,6
2,note_on,76,0,54
2,note_on,74,60,9
2,note_on,73,60,54
2,note_on,74,0,6
2,note_on,70,60,51
2,note_on,73,0,3
2,note_on,70,0,57
2,note_on,69,60,9
2,note_on,67,60,59
2,note_on,69,0,1
2,note_on,67,0,59
2,note_on,65,59,0
2,note_on,64,59,56
2,note_on,65,0,4
2,note_on,64,0,56
2,note_on,62,59,2
2,note_on,62,0,60
2,note_on,61,59,1
2,note_on,58,58,58
2,note_on,61,0,2
2,note_on,58,0,58
2,note_on,57,58,2
2,note_on,55,58,53
2,note_on,57,0,7
2,note_on,55,0,53
2,note_on,53,58,8
2,note_on,53,0,60
2,note_on,52,58,0
2,note_on,50,57,53
2,note_on,52,0,7
2,note_on,50,0,53
2,note_on,49,58,1
2,note_on,49,0,60
2,note_on,46,58,2
2,note_on,45,58,59
2,note_on,46,0,1
2,note_on,45,0,59
2,note_on,43,59,0
2,note_on,43,0,60
2,note_on,41,60,3
2,note_on,40,61,55
2,note_on,41,0,5
2,note_on,38,61,53
2,note_on,40,0,2
2,note_on,38,0,58
2,note_on,37,62,7
2,note_on,34,63,54
2,note_on,37,0,6
2,note_on,34,0,42
2,note_on,33,63,4
2,note_on,33,0,192
2,note_on,50,74,0
2,note_on,45,59,0
2,note_on,38,59,0
2,note_on,38,0,960
2,note_on,45,0,0
2,note_on,50,0,0
2,note_on,45,62,0
2,note_on,50,78,0
2,note_on,38,62,0
2,note_on,38,0,480
2,note_on,50,0,0
2,note_on,45,0,0
2,note_on,50,79,480
2,note_on,38,63,0
2,note_on,43,63,0
2,note_on,43,0,960
2,note_on,38,0,0
2,note_on,50,0,0
2,note_on,38,59,0
2,note_on,50,75,0
2,note_on,43,59,0
2,note_on,43,0,480
2,note_on,50,0,0
2,note_on,38,0,0
2,note_on,37,59,480
2,note_on,49,75,0
2,note_on,49,0,480
2,note_on,37,0,0
2,note_on,33,59,480
2,note_on,45,75,0
2,note_on,45,0,480
2,note_on,33,0,0
2,note_on,50,75,480
2,note_on,38,59,0
2,note_on,38,0,480
2,note_on,50,0,0
2,note_on,38,55,480
2,note_on,45,55,0
2,note_on,50,70,0
2,note_on,50,0,480
2,note_on,45,0,0
2,note_on,38,0,0
2,note_on,48,66,480
2,note_on,36,52,0
2,note_on,36,0,960
2,note_on,48,0,0
2,note_on,40,50,0
2,note_on,52,64,0
2,note_on,52,0,480
2,note_on,40,0,0
2,note_on,41,50,480
2,note_on,53,64,0
2,note_on,53,0,480
2,note_on,41,0,0
2,note_on,41,50,480
2,note_on,53,64,0
2,note_on,53,0,480
2,note_on,41,0,0
2,note_on,52,66,480
2,note_on,40,52,0
2,note_on,40,0,960
2,note_on,52,0,0
2,note_on,44,51,0
2,note_on,56,66,0
2,note_on,56,0,480
2,note_on,44,0,0
2,note_on,57,69,480
2,note_on,52,54,0
2,note_on,45,54,0
2,note_on,45,0,480
2,note_on,52,0,0
2,note_on,57,0,0
2,note_on,45,56,480
2,note_on,52,56,0
2,note_on,57,72,0
2,note_on,57,0,480
2,note_on,52,0,0
2,note_on,45,0,0
2,note_on,58,82,480
2,note_on,46,65,0
2,note_on,52,65,0
2,note_on,52,0,960
2,note_on,46,0,0
2,note_on,58,0,0
2,note_on,45,62,0
2,note_on,57,78,0
2,note_on,57,0,480
2,note_on,45,0,0
2,note_on,51,63,480
2,note_on,46,63,0
2,note_on,58,79,0
2,note_on,58,0,960
2,note_on,46,0,0
2,note_on,51,0,0
2,note_on,57,75,0
2,note_on,45,59,0
2,note_on,45,0,480
2,note_on,57,0,0
2,note_on,50,59,480
2,note_on,47,59,0
2,note_on,59,75,0
2,note_on,59,0,480
2,note_on,47,0,0
2,note_on,50,0,0
2,note_on,52,75,480
2,note_on,40,59,0
2,note_on,47,59,0
2,note_on,47,0,480
2,note_on,40,0,0
2,note_on,52,0,0
2,note_on,57,75,480
2,note_on,45,59,0
2,note_on,52,59,0
2,note_on,52,0,480
2,note_on,45,0,0
2,note_on,57,0,0
2,note_on,57,75,480
2,note_on,45,59,0
2,note_on,52,59,0
2,note_on,52,0,480
2,note_on,45,0,0
2,note_on,57,0,0
2,note_on,34,58,480
2,note_on,40,58,0
2,note_on,46,73,0
2,note_on,46,0,960
2,note_on,40,0,0
2,note_on,34,0,0
2,note_on,33,55,0
2,note_on,45,70,0
2,note_on,45,0,480
2,note_on,33,0,0
2,note_on,34,56,480
2,note_on,39,56,0
2,note_on,46,71,0
2,note_on,46,0,960
2,note_on,39,0,0
2,note_on,34,0,0
2,note_on,45,67,0
2,note_on,33,52,0
2,note_on,33,0,480
2,note_on,45,0,0
2,note_on,38,52,480
2,note_on,35,52,0
2,note_on,47,67,0
2,note_on,47,0,480
2,note_on,35,0,0
2,note_on,38,0,0
2,note_on,46,67,480
2,note_on,38,52,0
2,note_on,34,52,0
2,note_on,34,0,480
2,note_on,38,0,0
2,note_on,46,0,0
2,note_on,45,67,480
2,note_on,33,52,0
2,note_on,40,52,0
2,note_on,40,0,240
2,note_on,33,0,0
2,note_on,45,0,0
2,note_on,55,39,240
2,note_on,46,56,0
2,note_on,55,0,160
2,note_on,56,39,0
2,note_on,56,0,160
2,note_on,57,39,0
2,note_on,57,0,160
2,note_on,46,0,0
2,note_on,49,59,0
2,note_on,58,40,0
2,note_on,58,0,160
2,note_on,59,41,0
2,note_on,59,0,160
2,note_on,60,41,0
2,note_on,60,0,160
2,note_on,49,0,0
2,note_on,61,41,0
2,note_on,52,62,0
2,note_on,61,0,160
2,note_on,62,42,0
2,note_on,62,0,160
2,note_on,63,43,0
2,note_on,63,0,160
2,note_on,52,0,0
2,note_on,55,65,0
2,note_on,64,43,0
2,note_on,64,0,160
2,note_on,62,43,0
2,note_on,62,0,160
2,note_on,61,44,0
2,note_on,61,0,160
2,note_on,55,0,0
2,note_on,59,36,0
2,note_on,65,36,0
2,note_on,50,31,0
2,note_on,56,51,0
2,note_on,56,0,480
2,note_on,59,0,0
2,note_on,65,0,0
2,note_on,50,0,0
2,note_on,45,52,0
2,note_on,57,67,0
2,note_on,52,52,0
2,note_on,52,0,240
2,note_on,57,0,0
2,note_on,45,0,0
2,note_on,58,56,240
2,note_on,67,39,0
2,note_on,67,0,160
2,note_on,68,39,0
2,note_on,68,0,160
2,note_on,69,39,0
2,note_on,69,0,160
2,note_on,58,0,0
2,note_on,61,59,0
2,note_on,70,40,0
2,note_on,70,0,160
2,note_on,71,41,0
2,note_on,71,0,160
2,note_on,72,41,0
2,note_on,72,0,160
2,note_on,61,0,0
2,note_on,64,62,0
2,note_on,73,41,0
2,note_on,73,0,160
2,note_on,74,42,0
2,note_on,74,0,160
2,note_on,75,43,0
2,note_on,75,0,160
2,note_on,64,0,0
2,note_on,76,43,0
2,note_on,67,65,0
2,note_on,76,0,160
2,note_on,74,43,0
2,note_on,74,0,160
2,note_on,73,44,0
2,note_on,73,0,160
2,note_on,67,0,0
2,note_on,71,36,0
2,note_on,62,31,0
2,note_on,68,51,0
2,note_on,77,36,0
2,note_on,77,0,240
2,note_on,71,0,0
2,note_on,62,0,0
2,note_on,68,0,0
2,note_on,69,67,240
2,note_on,57,52,0
2,note_on,64,52,0
2,note_on,61,52,0
2,note_on,61,0,240
2,note_on,69,0,0
2,note_on,57,0,0
2,note_on,64,0,0
2,note_on,50,51,240
2,note_on,62,51,0
2,note_on,56,51,0
2,note_on,53,51,0
2,note_on,53,0,240
2,note_on,50,0,0
2,note_on,62,0,0
2,note_on,56,0,0
2,note_on,45,51,240
2,note_on,52,51,0
2,note_on,57,51,0
2,note_on,49,51,0
2,note_on,49,0,240
2,note_on,45,0,0
2,note_on,52,0,0
2,note_on,57,0,0
2,note_on,50,51,240
2,note_on,41,51,0
2,note_on,38,51,0
2,note_on,44,51,0
2,note_on,44,0,240
2,note_on,50,0,0
2,note_on,41,0,0
2,note_on,38,0,0
2,note_on,33,51,240
2,note_on,40,51,0
2,note_on,37,51,0
2,note_on,45,51,0
2,note_on,45,0,240
2,note_on,33,0,0
2,note_on,40,0,0
2,note_on,37,0,0
2,note_on,50,51,240
2,note_on,44,51,0
2,note_on,41,51,0
2,note_on,38,51,0
2,note_on,38,0,240
2,note_on,50,0,0
2,note_on,44,0,0
2,note_on,41,0,0
2,note_on,37,52,240
2,note_on,33,52,0
2,note_on,45,67,0
2,note_on,40,52,0
2,note_on,40,0,240
2,note_on,37,0,0
2,note_on,33,0,0
2,note_on,45,0,0
2,note_on,46,46,238
2,note_on,58,54,3
2,note_on,46,0,317
2,note_on,45,42,1
2,note_on,57,50,0
2,note_on,58,0,2
2,note_on,55,55,157
2,note_on,45,0,1
2,note_on,57,0,0
2,note_on,43,46,1
2,note_on,55,0,158
2,note_on,53,52,1
2,note_on,43,0,1
2,note_on,41,44,0
2,note_on,53,0,159
2,note_on,41,0,1
2,note_on,52,52,1
2,note_on,40,44,1
2,note_on,50,48,158
2,note_on,52,0,1
2,note_on,40,0,1
2,note_on,38,40,1
2,note_on,49,53,156
2,note_on,50,0,1
2,note_on,37,45,0
2,note_on,38,0,3
2,note_on,49,0,156
2,note_on,40,42,0
2,note_on,37,0,1
2,note_on,52,50,1
2,note_on,48,54,157
2,note_on,40,0,1
2,note_on,36,46,0
2,note_on,52,0,2
2,note_on,48,0,157
2,note_on,36,0,1
2,note_on,52,51,3
2,note_on,40,43,0
2,note_on,47,54,159
2,note_on,40,0,1
2,note_on,52,0,0
2,note_on,35,46,1
2,note_on,40,42,155
2,note_on,47,0,3
2,note_on,52,50,2
2,note_on,35,0,0
2,note_on,40,0,155
2,note_on,46,57,1
2,note_on,34,48,1
2,note_on,52,0,3
2,note_on,46,0,156
2,note_on,34,0,1
2,note_on,40,44,0
2,note_on,52,52,3
2,note_on,33,51,157
2,note_on,40,0,0
2,note_on,45,60,0
2,note_on,52,0,3
2,note_on,33,0,237
2,note_on,45,0,0
2,note_on,61,56,241
2,note_on,49,47,2
2,note_on,46,45,315
2,note_on,58,53,1
2,note_on,61,0,2
2,note_on,49,0,2
2,note_on,46,0,155
2,note_on,58,0,1
2,note_on,45,48,3
2,note_on,57,57,1
2,note_on,43,43,156
2,note_on,55,51,0
2,note_on,45,0,3
2,note_on,57,0,1
2,note_on,43,0,156
2,note_on,55,0,0
2,note_on,53,51,1
2,note_on,41,43,1
2,note_on,52,56,158
2,note_on,53,0,1
2,note_on,40,47,1
2,note_on,41,0,0
2,note_on,55,50,158
2,note_on,52,0,0
2,note_on,40,0,2
2,note_on,43,42,0
2,note_on,55,0,158
2,note_on,43,0,2
2,note_on,51,56,0
2,note_on,39,47,1
2,note_on,55,49,156
2,note_on,51,0,3
2,note_on,43,41,0
2,note_on,39,0,1
2,note_on,55,0,156
2,note_on,38,48,3
2,note_on,50,57,0
2,note_on,43,0,0
2,note_on,43,42,159
2,note_on,50,0,1
2,note_on,38,0,0
2,note_on,55,50,0
2,note_on,37,48,157
2,note_on,43,0,2
2,note_on,55,0,1
2,note_on,49,57,0
2,note_on,37,0,157
2,note_on,43,42,1
2,note_on,49,0,2
2,note_on,55,50,1
2,note_on,43,0,157
2,note_on,34,51,1
2,note_on,46,60,1
2,note_on,55,0,1
2,note_on,55,61,157
2,note_on,34,0,1
2,note_on,43,49,0
2,note_on,46,0,1
2,note_on,55,0,118
2,note_on,43,0,1
2,note_on,33,45,120
2,note_on,45,54,0
2,note_on,45,0,120
2,note_on,33,0,0
2,note_on,52,44,118
2,note_on,64,52,1
2,note_on,52,0,319
2,note_on,64,0,1
2,note_on,62,45,0
2,note_on,50,37,3
2,note_on,61,49,156
2,note_on,49,41,0
2,note_on,62,0,1
2,note_on,50,0,3
2,note_on,61,0,156
2,note_on,58,41,0
2,note_on,49,0,0
2,note_on,46,35,2
2,note_on,58,0,158
2,note_on,57,41,0
2,note_on,46,0,2
2,note_on,45,35,2
2,note_on,57,0,156
2,note_on,55,41,0
2,note_on,67,49,0
2,note_on,45,0,4
2,note_on,67,0,156
2,note_on,55,0,0
2,note_on,53,41,2
2,note_on,65,48,3
2,note_on,53,0,157
2,note_on,52,39,1
2,note_on,64,47,0
2,note_on,65,0,2
2,note_on,50,38,156
2,note_on,52,0,2
2,note_on,64,0,0
2,note_on,62,45,1
2,note_on,50,0,157
2,note_on,49,38,1
2,note_on,62,0,2
2,note_on,61,45,0
2,note_on,49,0,158
2,note_on,70,46,0
2,note_on,61,0,2
2,note_on,58,39,1
2,note_on,69,53,156
2,note_on,70,0,1
2,note_on,57,44,0
2,note_on,58,0,3
2,note_on,55,43,156
2,note_on,69,0,0
2,note_on,57,0,1
2,note_on,67,51,2
2,note_on,55,0,157
2,note_on,65,48,0
2,note_on,53,40,0
2,note_on,67,0,3
2,note_on,65,0,157
2,note_on,53,0,0
2,note_on,52,38,1
2,note_on,64,45,1
2,note_on,52,0,159
2,note_on,64,0,1
2,note_on,76,57,0
2,note_on,64,48,2
2,note_on,62,47,156
2,note_on,74,56,1
2,note_on,76,0,1
2,note_on,64,0,2
2,note_on,62,0,156
2,note_on,74,0,1
2,note_on,61,46,1
2,note_on,73,55,0
2,note_on,70,51,158
2,note_on,61,0,2
2,note_on,73,0,0
2,note_on,58,43,1
2,note_on,69,56,156
2,note_on,70,0,1
2,note_on,58,0,3
2,note_on,57,47,1
2,note_on,69,0,155
2,note_on,70,50,0
2,note_on,58,42,1
2,note_on,57,0,4
2,note_on,70,0,155
2,note_on,58,0,1
2,note_on,67,56,1
2,note_on,55,47,1
2,note_on,58,42,158
2,note_on,67,0,1
2,note_on,70,49,0
2,note_on,55,0,1
2,note_on,53,47,157
2,note_on,58,0,1
2,note_on,70,0,1
2,note_on,65,56,1
2,note_on,53,0,157
2,note_on,67,50,2
2,note_on,55,42,0
2,note_on,65,0,1
2,note_on,64,56,157
2,note_on,67,0,2
2,note_on,55,0,0
2,note_on,52,47,0
2,note_on,64,0,158
2,note_on,67,50,0
2,note_on,55,42,0
2,note_on,52,0,2
2,note_on,67,0,158
2,note_on,55,0,0
2,note_on,50,48,1
2,note_on,62,57,3
2,note_on,50,0,157
2,note_on,62,0,3
2,note_on,52,43,1
2,note_on,64,51,0
2,note_on,49,47,157
2,note_on,64,0,3
2,note_on,52,0,0
2,note_on,61,56,0
2,note_on,49,0,157
2,note_on,52,42,0
2,note_on,64,50,0
2,note_on,61,0,3
2,note_on,46,46,156
2,note_on,52,0,1
2,note_on,58,55,0
2,note_on,64,0,0
2,note_on,46,0,159
2,note_on,49,41,0
2,note_on,58,0,1
2,note_on,61,49,0
2,note_on,49,0,159
2,note_on,61,0,1
2,note_on,45,45,0
2,note_on,57,53,0
2,note_on,46,39,159
2,note_on,57,0,1
2,note_on,45,0,0
2,note_on,58,47,2
2,note_on,55,51,156
2,note_on,46,0,1
2,note_on,58,0,3
2,note_on,43,43,1
2,note_on,55,0,155
2,note_on,46,39,0
2,note_on,58,46,0
2,note_on,43,0,5
2,note_on,46,0,155
2,note_on,58,0,0
2,note_on,53,54,1
2,note_on,41,46,2
2,note_on,43,40,158
2,note_on,53,0,0
2,note_on,55,48,0
2,note_on,41,0,2
2,note_on,43,0,158
2,note_on,55,0,0
2,note_on,52,52,3
2,note_on,40,44,0
2,note_on,43,40,157
2,note_on,40,0,3
2,note_on,52,0,0
2,note_on,55,48,1
2,note_on,43,0,156
2,note_on,38,44,1
2,note_on,50,53,1
2,note_on,55,0,2
2,note_on,52,49,155
2,note_on,40,41,1
2,note_on,38,0,1
2,note_on,50,0,1
2,note_on,52,0,157
2,note_on,40,0,1
2,note_on,37,44,1
2,note_on,49,53,2
2,note_on,52,48,156
2,note_on,37,0,2
2,note_on,40,40,1
2,note_on,49,0,1
2,note_on,52,0,156
2,note_on,34,45,0
2,note_on,46,53,2
2,note_on,40,0,1
2,note_on,34,0,157
2,note_on,37,42,0
2,note_on,49,49,2
2,note_on,46,0,0
2,note_on,37,0,158
2,note_on,49,0,2
2,note_on,33,46,0
2,note_on,45,54,2
2,note_on,34,42,157
2,note_on,33,0,1
2,note_on,45,0,2
2,note_on,46,50,1
2,note_on,34,0,156
2,note_on,44,55,0
2,note_on,32,46,1
2,note_on,46,0,3
2,note_on,44,0,156
2,note_on,33,42,1
2,note_on,32,0,0
2,note_on,45,49,2
2,note_on,43,55,157
2,note_on,33,0,1
2,note_on,31,46,0
2,note_on,45,0,2
2,note_on,43,0,157
2,note_on,31,0,1
2,note_on,45,50,2
2,note_on,33,42,1
2,note_on,30,46,155
2,note_on,45,0,4
2,note_on,33,0,1
2,note_on,42,55,0
2,note_on,30,0,155
2,note_on,33,43,2
2,note_on,45,51,0
2,note_on,42,0,3
2,note_on,29,47,157
2,note_on,41,56,0
2,note_on,45,0,0
2,note_on,33,0,0
2,note_on,45,50,158
2,note_on,33,42,1
2,note_on,29,0,1
2,note_on,41,0,0
2,note_on,45,0,158
2,note_on,33,0,1
2,note_on,28,47,0
2,note_on,40,56,3
2,note_on,45,51,156
2,note_on,28,0,1
2,note_on,33,43,1
2,note_on,40,0,2
2,note_on,45,0,156
2,note_on,33,0,2
2,note_on,27,47,2
2,note_on,39,56,1
2,note_on,45,49,235
2,note_on,33,42,2
2,note_on,27,0,2
2,note_on,39,0,1
2,note_on,45,0,235
2,note_on,24,48,0
2,note_on,36,57,1
2,note_on,33,0,1
2,note_on,24,0,238
2,note_on,36,0,1
2,note_on,45,52,1
2,note_on,33,44,2
2,note_on,25,49,237
2,note_on,45,0,1
2,note_on,37,58,2
2,note_on,33,0,0
2,note_on,25,0,237
2,note_on,33,45,2
2,note_on,37,0,1
2,note_on,45,53,0
2,note_on,45,59,238
2,note_on,50,74,0
2,note_on,38,59,0
2,note_on,33,0,1
2,note_on,45,0,1
2,note_on,50,0,158
2,note_on,45,0,0
2,note_on,38,0,0
2,note_on,52,48,0
2,note_on,56,60,0
2,note_on,56,0,160
2,note_on,52,0,0
2,note_on,57,63,0
2,note_on,53,50,0
2,note_on,53,0,160
2,note_on,57,0,0
2,note_on,38,75,320
2,note_on,45,62,160
2,note_on,50,78,0
2,note_on,50,0,160
2,note_on,45,0,0
2,note_on,38,0,0
2,note_on,56,60,0
2,note_on,52,48,0
2,note_on,52,0,160
2,note_on,56,0,0
2,note_on,57,63,0
2,note_on,53,50,0
2,note_on,53,0,160
2,note_on,57,0,0
2,note_on,38,75,320
2,note_on,43,63,160
2,note_on,50,79,0
2,note_on,50,0,160
2,note_on,43,0,0
2,note_on,38,0,0
2,note_on,54,48,0
2,note_on,57,60,0
2,note_on,57,0,160
2,note_on,54,0,0
2,note_on,55,50,0
2,note_on,58,63,0
2,note_on,58,0,160
2,note_on,55,0,0
2,note_on,38,75,320
2,note_on,50,75,160
2,note_on,43,59,0
2,note_on,43,0,160
2,note_on,50,0,0
2,note_on,38,0,0
2,note_on,54,48,0
2,note_on,57,60,0
2,note_on,57,0,160
2,note_on,54,0,0
2,note_on,58,63,0
2,note_on,55,50,0
2,note_on,55,0,160
2,note_on,58,0,0
2,note_on,37,75,320
2,note_on,45,59,160
2,note_on,49,75,0
2,note_on,49,0,160
2,note_on,45,0,0
2,note_on,37,0,0
2,note_on,54,60,0
2,note_on,51,48,0
2,note_on,51,0,160
2,note_on,54,0,0
2,note_on,55,63,0
2,note_on,52,50,0
2,note_on,52,0,160
2,note_on,55,0,0
2,note_on,33,75,320
2,note_on,33,0,160
2,note_on,37,68,0
2,note_on,45,75,0
2,note_on,45,0,160
2,note_on,37,0,0
2,note_on,51,47,0
2,note_on,54,59,0
2,note_on,54,0,160
2,note_on,51,0,0
2,note_on,55,61,0
2,note_on,52,49,0
2,note_on,52,0,160
2,note_on,55,0,0
2,note_on,38,70,320
2,note_on,50,69,160
2,note_on,45,59,4
2,note_on,50,0,156
2,note_on,38,0,0
2,note_on,56,50,0
2,note_on,52,39,0
2,note_on,45,0,4
2,note_on,52,0,156
2,note_on,56,0,0
2,note_on,57,50,0
2,note_on,53,40,0
2,note_on,53,0,160
2,note_on,57,0,0
2,note_on,38,63,320
2,note_on,50,58,160
2,note_on,45,46,0
2,note_on,45,0,160
2,note_on,50,0,0
2,note_on,38,0,0
2,note_on,52,35,0
2,note_on,56,45,0
2,note_on,56,0,160
2,note_on,52,0,0
2,note_on,53,35,0
2,note_on,57,45,0
2,note_on,57,0,160
2,note_on,53,0,0
2,note_on,36,57,320
2,note_on,48,57,160
2,note_on,43,45,0
2,note_on,43,0,160
2,note_on,48,0,0
2,note_on,36,0,0
2,note_on,51,37,0
2,note_on,54,46,0
2,note_on,54,0,160
2,note_on,51,0,0
2,note_on,55,48,0
2,note_on,52,38,0
2,note_on,52,0,160
2,note_on,55,0,0
2,note_on,40,57,320
2,note_on,52,57,160
2,note_on,48,55,0
2,note_on,48,0,160
2,note_on,52,0,0
2,note_on,40,0,0
2,note_on,59,46,0
2,note_on,54,37,0
2,note_on,54,0,160
2,note_on,59,0,0
2,note_on,60,48,0
2,note_on,55,38,0
2,note_on,55,0,160
2,note_on,60,0,0
2,note_on,41,57,320
2,note_on,53,57,160
2,note_on,48,55,0
2,note_on,48,0,160
2,note_on,53,0,0
2,note_on,41,0,0
2,note_on,59,43,0
2,note_on,55,32,0
2,note_on,55,0,160
2,note_on,59,0,0
2,note_on,56,34,0
2,note_on,60,44,0
2,note_on,60,0,160
2,note_on,56,0,0
2,note_on,41,57,320
2,note_on,53,54,160
2,note_on,48,42,0
2,note_on,48,0,160
2,note_on,53,0,0
2,note_on,41,0,0
2,note_on,59,42,0
2,note_on,55,32,0
2,note_on,55,0,160
2,note_on,59,0,0
2,note_on,60,43,0
2,note_on,56,33,0
2,note_on,56,0,160
2,note_on,60,0,0
2,note_on,39,57,320
2,note_on,51,60,160
2,note_on,46,48,0
2,note_on,46,0,160
2,note_on,51,0,0
2,note_on,39,0,0
2,note_on,54,35,0
2,note_on,57,44,0
2,note_on,57,0,160
2,note_on,54,0,0
2,note_on,58,45,0
2,note_on,55,36,0
2,note_on,55,0,160
2,note_on,58,0,0
2,note_on,43,61,320
2,note_on,51,59,160
2,note_on,55,61,0
2,note_on,55,0,160
2,note_on,51,0,0
2,note_on,43,0,0
2,note_on,62,44,0
2,note_on,57,34,0
2,note_on,57,0,160
2,note_on,62,0,0
2,note_on,63,46,0
2,note_on,58,37,0
2,note_on,58,0,160
2,note_on,63,0,0
2,note_on,44,61,320
2,note_on,51,59,160
2,note_on,56,64,0
2,note_on,56,0,160
2,note_on,51,0,0
2,note_on,44,0,0
2,note_on,59,35,0
2,note_on,62,47,0
2,note_on,62,0,160
2,note_on,59,0,0
2,note_on,63,48,0
2,note_on,60,37,0
2,note_on,60,0,160
2,note_on,63,0,0
2,note_on,44,64,320
2,note_on,56,59,160
2,note_on,51,46,0
2,note_on,51,0,160
2,note_on,56,0,0
2,note_on,44,0,0
2,note_on,59,35,0
2,note_on,62,46,0
2,note_on,62,0,160
2,note_on,59,0,0
2,note_on,63,47,0
2,note_on,60,36,0
2,note_on,60,0,160
2,note_on,63,0,0
2,note_on,44,64,320
2,note_on,50,47,160
2,note_on,56,59,0
2,note_on,56,0,160
2,note_on,50,0,0
2,note_on,44,0,0
2,note_on,64,48,0
2,note_on,61,38,0
2,note_on,61,0,160
2,note_on,64,0,0
2,note_on,65,50,0
2,note_on,62,39,0
2,note_on,62,0,160
2,note_on,65,0,0
2,note_on,44,59,320
2,note_on,56,59,160
2,note_on,50,57,0
2,note_on,50,0,160
2,note_on,56,0,0
2,note_on,44,0,0
2,note_on,61,39,0
2,note_on,64,48,0
2,note_on,64,0,160
2,note_on,61,0,0
2,note_on,65,50,0
2,note_on,62,40,0
2,note_on,62,0,160
2,note_on,65,0,0
2,note_on,44,60,320
2,note_on,56,60,160
2,note_on,51,58,0
2,note_on,51,0,160
2,note_on,56,0,0
2,note_on,44,0,0
2,note_on,62,46,0
2,note_on,59,34,0
2,note_on,59,0,160
2,note_on,62,0,0
2,note_on,63,47,0
2,note_on,60,36,0
2,note_on,60,0,160
2,note_on,63,0,0
2,note_on,44,60,320
2,note_on,48,44,160
2,note_on,56,57,0
2,note_on,56,0,160
2,note_on,48,0,0
2,note_on,44,0,0
2,note_on,59,34,0
2,note_on,62,44,0
2,note_on,62,0,160
2,note_on,59,0,0
2,note_on,63,46,0
2,note_on,60,35,0
2,note_on,60,0,160
2,note_on,63,0,0
2,note_on,44,61,320
2,note_on,56,61,160
2,note_on,50,48,0
2,note_on,50,0,160
2,note_on,56,0,0
2,note_on,44,0,0
2,note_on,64,49,0
2,note_on,61,39,0
2,note_on,61,0,160
2,note_on,64,0,0
2,note_on,65,52,0
2,note_on,62,41,0
2,note_on,62,0,160
2,note_on,65,0,0
2,note_on,44,62,320
2,note_on,56,62,160
2,note_on,50,59,0
2,note_on,50,0,160
2,note_on,56,0,0
2,note_on,44,0,0
2,note_on,61,40,0
2,note_on,64,50,0
2,note_on,64,0,160
2,note_on,61,0,0
2,note_on,62,41,0
2,note_on,65,52,0
2,note_on,65,0,160
2,note_on,62,0,0
2,note_on,44,62,320
2,note_on,56,62,160
2,note_on,51,49,0
2,note_on,51,0,160
2,note_on,56,0,0
2,note_on,44,0,0
2,note_on,59,40,0
2,note_on,62,50,0
2,note_on,62,0,160
2,note_on,59,0,0
2,note_on,60,41,0
2,note_on,63,52,0
2,note_on,63,0,160
2,note_on,60,0,0
2,note_on,44,63,320
2,note_on,56,63,160
2,note_on,56,0,160
2,note_on,44,0,0
2,note_on,61,41,0
2,note_on,64,51,0
2,note_on,64,0,160
2,note_on,61,0,0
2,note_on,65,53,0
2,note_on,62,42,0
2,note_on,62,0,160
2,note_on,65,0,0
2,note_on,44,63,360
2,note_on,56,63,0
2,note_on,56,0,120
2,note_on,44,0,0
2,note_on,57,63,0
2,note_on,45,63,0
2,note_on,64,41,160
2,note_on,68,51,0
2,note_on,68,0,160
2,note_on,64,0,0
2,note_on,65,42,0
2,note_on,69,53,0
2,note_on,69,0,160
2,note_on,57,0,0
2,note_on,45,0,0
2,note_on,65,0,0
2,note_on,41,64,320
2,note_on,53,64,160
2,note_on,53,0,160
2,note_on,41,0,0
2,note_on,61,41,0
2,note_on,64,51,0
2,note_on,64,0,160
2,note_on,61,0,0
2,note_on,62,42,0
2,note_on,65,54,0
2,note_on,65,0,160
2,note_on,62,0,0
2,note_on,38,64,320
2,note_on,50,64,160
2,note_on,50,0,160
2,note_on,38,0,0
2,note_on,61,52,0
2,note_on,56,42,0
2,note_on,56,0,160
2,note_on,61,0,0
2,note_on,62,54,0
2,note_on,57,43,0
2,note_on,57,0,160
2,note_on,62,0,0
2,note_on,33,65,320
2,note_on,45,65,160
2,note_on,45,0,160
2,note_on,33,0,0
2,note_on,56,52,0
2,note_on,52,42,0
2,note_on,52,0,160
2,note_on,56,0,0
2,note_on,53,43,0
2,note_on,57,55,0
2,note_on,57,0,160
2,note_on,53,0,0
2,note_on,34,66,320
2,note_on,46,66,160
2,note_on,46,0,160
2,note_on,34,0,0
2,note_on,57,53,0
2,note_on,54,42,0
2,note_on,54,0,160
2,note_on,57,0,0
2,note_on,58,55,0
2,note_on,55,44,0
2,note_on,55,0,160
2,note_on,58,0,0
2,note_on,31,66,320
2,note_on,43,66,160
2,note_on,43,0,160
2,note_on,31,0,0
2,note_on,50,43,0
2,note_on,54,53,0
2,note_on,54,0,160
2,note_on,50,0,0
2,note_on,55,56,0
2,note_on,51,44,0
2,note_on,51,0,160
2,note_on,55,0,0
2,note_on,28,66,320
2,note_on,40,67,160
2,note_on,40,0,160
2,note_on,28,0,0
2,note_on,45,43,0
2,note_on,49,54,0
2,note_on,49,0,160
2,note_on,45,0,0
2,note_on,46,44,0
2,note_on,50,56,0
2,note_on,50,0,160
2,note_on,46,0,0
2,note_on,33,67,320
2,note_on,45,67,160
2,note_on,45,0,160
2,note_on,33,0,0
2,note_on,54,54,0
2,note_on,51,44,0
2,note_on,51,0,160
2,note_on,54,0,0
2,note_on,52,45,0
2,note_on,55,57,0
2,note_on,55,0,160
2,note_on,52,0,0
2,note_on,33,64,360
2,note_on,45,64,0
2,note_on,45,0,120
2,note_on,33,0,0
2,note_on,38,62,0
2,note_on,50,74,0
2,note_on,56,56,320
2,note_on,52,37,0
2,note_on,52,0,160
2,note_on,38,0,0
2,note_on,50,0,0
2,note_on,56,0,0
2,note_on,50,71,1320
2,note_on,38,60,0
2,note_on,38,0,120
2,note_on,50,0,0
2,note_on,45,62,0
2,note_on,38,62,0
2,note_on,50,74,0
2,note_on,56,37,320
2,note_on,59,56,0
2,note_on,59,0,160
2,note_on,56,0,0
2,note_on,45,0,480
2,note_on,38,0,0
2,note_on,50,0,0
2,note_on,38,60,840
2,note_on,50,71,0
2,note_on,50,0,120
2,note_on,38,0,0
2,note_on,38,62,0
2,note_on,50,74,0
2,note_on,44,62,0
2,note_on,55,37,320
2,note_on,58,56,0
2,note_on,58,0,160
2,note_on,55,0,0
2,note_on,38,0,480
2,note_on,50,0,0
2,note_on,44,0,0
2,note_on,50,71,840
2,note_on,38,60,0
2,note_on,38,0,120
2,note_on,50,0,0
2,note_on,34,67,0
2,note_on,46,67,0
2,note_on,51,43,160
2,note_on,54,54,0
2,note_on,54,0,160
2,note_on,51,0,0
2,note_on,55,56,0
2,note_on,52,44,0
2,note_on,52,0,160
2,note_on,34,0,0
2,note_on,46,0,0
2,note_on,55,0,0
2,note_on,34,67,360
2,note_on,46,67,0
2,note_on,46,0,120
2,note_on,34,0,0
2,note_on,45,67,0
2,note_on,33,67,0
2,note_on,54,54,160
2,note_on,51,44,0
2,note_on,51,0,160
2,note_on,54,0,0
2,note_on,55,57,0
2,note_on,52,45,0
2,note_on,52,0,160
2,note_on,45,0,0
2,note_on,33,0,0
2,note_on,55,0,0
2,note_on,31,64,360
2,note_on,43,64,0
2,note_on,43,0,120
2,note_on,31,0,0
2,note_on,45,62,0
2,note_on,38,62,0
2,note_on,50,74,0
2,note_on,56,56,320
2,note_on,52,37,0
2,note_on,52,0,160
2,note_on,50,0,0
2,note_on,45,0,0
2,note_on,38,0,0
2,note_on,56,0,0
2,note_on,50,71,1320
2,note_on,38,60,0
2,note_on,38,0,120
2,note_on,50,0,0
2,note_on,45,62,0
2,note_on,39,62,0
2,note_on,51,74,0
2,note_on,59,56,320
2,note_on,56,37,0
2,note_on,56,0,160
2,note_on,59,0,0
2,note_on,45,0,480
2,note_on,39,0,0
2,note_on,51,0,0
2,note_on,38,60,840
2,note_on,50,71,0
2,note_on,50,0,120
2,note_on,38,0,0
2,note_on,44,62,0
2,note_on,39,62,0
2,note_on,51,74,0
2,note_on,58,56,320
2,note_on,55,37,0
2,note_on,55,0,160
2,note_on,58,0,0
2,note_on,44,0,480
2,note_on,39,0,0
2,note_on,51,0,0
2,note_on,38,60,840
2,note_on,50,71,0
2,note_on,50,0,120
2,note_on,38,0,0
2,note_on,34,67,0
2,note_on,46,67,0
2,note_on,51,43,160
2,note_on,54,54,0
2,note_on,54,0,160
2,note_on,51,0,0
2,note_on,52,44,0
2,note_on,55,56,0
2,note_on,55,0,160
2,note_on,34,0,0
2,note_on,46,0,0
2,note_on,52,0,0
2,note_on,34,67,360
2,note_on,46,67,0
2,note_on,46,0,120
2,note_on,34,0,0
2,note_on,33,67,0
2,note_on,45,67,0
2,note_on,54,54,160
2,note_on,51,44,0
2,note_on,51,0,160
2,note_on,54,0,0
2,note_on,55,57,0
2,note_on,52,45,0
2,note_on,52,0,160
2,note_on,33,0,0
2,note_on,45,0,0
2,note_on,55,0,0
2,note_on,31,64,360
2,note_on,43,64,0
2,note_on,43,0,120
2,note_on,31,0,0
2,note_on,38,52,0
2,note_on,45,52,0
2,note_on,50,67,0
2,note_on,50,0,240
2,note_on,45,0,0
2,note_on,38,0,0
2,note_on,76,39,240
2,note_on,67,56,0
2,note_on,76,0,160
2,note_on,75,39,0
2,note_on,75,0,160
2,note_on,74,39,0
2,note_on,74,0,160
2,note_on,67,0,0
2,note_on,73,40,0
2,note_on,64,59,0
2,note_on,73,0,160
2,note_on,72,41,0
2,note_on,72,0,160
2,note_on,71,41,0
2,note_on,71,0,160
2,note_on,64,0,0
2,note_on,61,62,0
2,note_on,70,41,0
2,note_on,70,0,160
2,note_on,69,42,0
2,note_on,69,0,160
2,note_on,68,43,0
2,note_on,68,0,160
2,note_on,61,0,0
2,note_on,58,65,0
2,note_on,67,43,0
2,note_on,67,0,240
2,note_on,58,0,0
2,note_on,49,56,240
2,note_on,55,39,0
2,note_on,43,34,0
2,note_on,52,39,0
2,note_on,52,0,240
2,note_on,49,0,0
2,note_on,55,0,0
2,note_on,43,0,0
2,note_on,62,73,240
2,note_on,54,57,0
2,note_on,50,57,0
2,note_on,57,57,0
2,note_on,57,0,240
2,note_on,62,0,0
2,note_on,54,0,0
2,note_on,50,0,0
2,note_on,64,39,240
2,note_on,55,56,0
2,note_on,64,0,160
2,note_on,63,39,0
2,note_on,63,0,160
2,note_on,62,39,0
2,note_on,62,0,160
2,note_on,55,0,0
2,note_on,61,40,0
2,note_on,52,59,0
2,note_on,61,0,160
2,note_on,60,41,0
2,note_on,60,0,160
2,note_on,59,41,0
2,note_on,59,0,160
2,note_on,52,0,0
2,note_on,58,41,0
2,note_on,49,62,0
2,note_on,58,0,160
2,note_on,57,42,0
2,note_on,57,0,160
2,note_on,56,43,0
2,note_on,56,0,160
2,note_on,49,0,0
2,note_on,55,43,0
2,note_on,46,65,0
2,note_on,46,0,240
2,note_on,55,0,0
2,note_on,49,56,240
2,note_on,52,39,0
2,note_on,55,39,0
2,note_on,43,34,0
2,note_on,43,0,240
2,note_on,49,0,0
2,note_on,52,0,0
2,note_on,55,0,0
2,note_on,50,73,240
2,note_on,42,57,0
2,note_on,38,57,0
2,note_on,45,57,0
2,note_on,45,0,240
2,note_on,50,0,0
2,note_on,42,0,0
2,note_on,38,0,0
2,note_on,46,53,240
2,note_on,49,53,0
2,note_on,43,53,0
2,note_on,55,53,0
2,note_on,55,0,240
2,note_on,46,0,0
2,note_on,49,0,0
2,note_on,43,0,0
2,note_on,62,54,240
2,note_on,57,54,0
2,note_on,54,54,0
2,note_on,50,54,0
2,note_on,50,0,240
2,note_on,62,0,0
2,note_on,57,0,0
2,note_on,54,0,0
2,note_on,43,54,240
2,note_on,49,54,0
2,note_on,46,54,0
2,note_on,55,54,0
2,note_on,55,0,240
2,note_on,43,0,0
2,note_on,49,0,0
2,note_on,46,0,0
2,note_on,42,55,240
2,note_on,38,55,0
2,note_on,45,55,0
2,note_on,50,55,0
2,note_on,50,0,240
2,note_on,42,0,0
2,note_on,38,0,0
2,note_on,45,0,0
2,note_on,34,56,240
2,note_on,31,56,0
2,note_on,37,56,0
2,note_on,43,56,0
2,note_on,43,0,240
2,note_on,34,0,0
2,note_on,31,0,0
2,note_on,37,0,0
2,note_on,50,74,240
2,note_on,42,57,0
2,note_on,38,57,0
2,note_on,45,57,0
2,note_on,45,0,240
2,note_on,50,0,0
2,note_on,42,0,0
2,note_on,38,0,0
2,note_on,34,57,240
2,note_on,43,57,0
2,note_on,31,57,0
2,note_on,37,57,0
2,note_on,37,0,240
2,note_on,34,0,0
2,note_on,43,0,0
2,note_on,31,0,0
2,note_on,38,57,240
2,note_on,45,57,0
2,note_on,50,57,0
2,note_on,42,57,0
2,note_on,42,0,240
2,note_on,38,0,0
2,note_on,45,0,0
2,note_on,50,0,0
2,note_on,37,58,240
2,note_on,34,58,0
2,note_on,31,58,0
2,note_on,43,58,0
2,note_on,43,0,240
2,note_on,37,0,0
2,note_on,34,0,0
2,note_on,31,0,0
2,note_on,38,59,240
2,note_on,50,59,0
2,note_on,42,59,0
2,note_on,45,59,0
2,note_on,45,0,240
2,note_on,38,0,0
2,note_on,50,0,0
2,note_on,42,0,0
2,note_on,43,59,240
2,note_on,31,59,0
2,note_on,34,59,0
2,note_on,37,59,0
2,note_on,37,0,240
2,note_on,43,0,0
2,note_on,31,0,0
2,note_on,34,0,0
2,note_on,38,59,240
2,note_on,42,59,0
2,note_on,45,59,0
2,note_on,50,59,0
2,note_on,50,0,240
2,note_on,38,0,0
2,note_on,42,0,0
2,note_on,45,0,0
2,note_on,81,66,240
2,note_on,69,56,0
2,note_on,69,0,240
2,note_on,81,0,0
2,note_on,66,56,0
2,note_on,78,66,0
2,note_on,78,0,240
2,note_on,66,0,0
2,note_on,57,51,480
2,note_on,69,61,0
2,note_on,69,0,240
2,note_on,57,0,0
2,note_on,66,61,0
2,note_on,54,51,0
2,note_on,54,0,240
2,note_on,66,0,0
2,note_on,57,62,480
2,note_on,45,52,0
2,note_on,45,0,240
2,note_on,57,0,0
2,note_on,54,62,0
2,note_on,42,52,0
2,note_on,42,0,240
2,note_on,54,0,0
2,note_on,48,56,240
2,note_on,36,47,0
2,note_on,36,0,240
2,note_on,48,0,0
2,note_on,35,45,240
2,note_on,47,54,0
2,note_on,47,0,240
2,note_on,35,0,0
2,note_on,34,45,240
2,note_on,46,53,0
2,note_on,46,0,240
2,note_on,34,0,0
2,note_on,31,43,240
2,note_on,43,51,0
2,note_on,43,0,240
2,note_on,31,0,0
2,note_on,44,49,240
2,note_on,32,41,0
2,note_on,32,0,240
2,note_on,44,0,0
2,note_on,33,39,240
2,note_on,45,47,0
2,note_on,45,0,240
2,note_on,33,0,0
2,note_on,26,46,0
2,note_on,38,56,0
2,note_on,38,0,120
2,note_on,26,0,0
2,note_on,28,46,120
2,note_on,40,56,0
2,note_on,40,0,120
2,note_on,28,0,0
2,note_on,42,56,120
2,note_on,30,46,0
2,note_on,30,0,120
2,note_on,42,0,0
2,note_on,44,56,120
2,note_on,32,46,0
2,note_on,32,0,120
2,note_on,44,0,0
2,note_on,46,56,120
2,note_on,34,46,0
2,note_on,34,0,120
2,note_on,46,0,0
2,note_on,36,46,120
2,note_on,48,56,0
2,note_on,48,0,120
2,note_on,36,0,0
2,note_on,38,46,120
2,note_on,50,56,0
2,note_on,50,0,120
2,note_on,38,0,0
2,note_on,52,56,120
2,note_on,40,46,0
2,note_on,40,0,120
2,note_on,52,0,0
2,note_on,54,56,120
2,note_on,42,46,0
2,note_on,42,0,120
2,note_on,54,0,0
2,note_on,56,57,120
2,note_on,44,48,0
2,note_on,44,0,120
2,note_on,56,0,0
2,note_on,58,58,120
2,note_on,46,49,0
2,note_on,46,0,120
2,note_on,58,0,0
2,note_on,48,51,120
2,note_on,60,61,0
2,note_on,60,0,120
2,note_on,48,0,0
2,note_on,62,62,120
2,note_on,50,52,0
2,note_on,50,0,120
2,note_on,62,0,0
2,note_on,52,54,120
2,note_on,64,63,0
2,note_on,64,0,120
2,note_on,52,0,0
2,note_on,54,54,120
2,note_on,66,64,0
2,note_on,66,0,120
2,note_on,54,0,0
2,note_on,56,55,120
2,note_on,68,66,0
2,note_on,68,0,120
2,note_on,56,0,0
2,note_on,70,67,120
2,note_on,58,56,0
2,note_on,58,0,120
2,note_on,70,0,0
2,note_on,60,57,120
2,note_on,72,68,0
2,note_on,72,0,120
2,note_on,60,0,0
2,note_on,74,69,120
2,note_on,62,58,0
2,note_on,62,0,120
2,note_on,74,0,0
2,note_on,72,68,120
2,note_on,60,57,0
2,note_on,60,0,120
2,note_on,72,0,0
2,note_on,58,56,120
2,note_on,70,67,0
2,note_on,70,0,120
2,note_on,58,0,0
2,note_on,56,55,120
2,note_on,68,66,0
2,note_on,68,0,120
2,note_on,56,0,0
2,note_on,54,54,120
2,note_on,66,64,0
2,note_on,66,0,120
2,note_on,54,0,0
2,note_on,64,63,120
2,note_on,52,54,0
2,note_on,52,0,120
2,note_on,64,0,0
2,note_on,50,52,120
2,note_on,62,62,0
2,note_on,62,0,120
2,note_on,50,0,0
2,note_on,60,61,120
2,note_on,48,51,0
2,note_on,48,0,120
2,note_on,60,0,0
2,note_on,46,50,120
2,note_on,58,60,0
2,note_on,58,0,120
2,note_on,46,0,0
2,note_on,56,58,120
2,note_on,44,49,0
2,note_on,44,0,120
2,note_on,56,0,0
2,note_on,42,48,120
2,note_on,54,57,0
2,note_on,54,0,120
2,note_on,42,0,0
2,note_on,52,56,120
2,note_on,40,46,0
2,note_on,40,0,120
2,note_on,52,0,0
2,note_on,38,46,120
2,note_on,50,55,0
2,note_on,50,0,120
2,note_on,38,0,0
2,note_on,48,54,120
2,note_on,36,45,0
2,note_on,36,0,120
2,note_on,48,0,0
2,note_on,34,44,120
2,note_on,46,52,0
2,note_on,46,0,120
2,note_on,34,0,0
2,note_on,32,43,120
2,note_on,44,51,0
2,note_on,44,0,120
2,note_on,32,0,0
2,note_on,30,42,120
2,note_on,42,50,0
2,note_on,42,0,120
2,note_on,30,0,0
2,note_on,28,40,120
2,note_on,40,49,0
2,note_on,40,0,120
2,note_on,28,0,0
2,note_on,26,49,120
2,note_on,38,49,0
2,note_on,38,0,480
2,note_on,26,0,0
2,note_on,50,42,0
2,note_on,38,42,0
2,note_on,38,0,480
2,note_on,50,0,0
2,note_on,62,43,0
2,note_on,50,43,0
2,note_on,50,0,240
2,note_on,62,0,0
2,note_on,46,23,60
2,note_on,53,28,60
2,note_on,58,32,60
2,note_on,62,41,60
2,note_on,46,0,60
2,note_on,53,0,60
2,note_on,62,0,30
2,note_on,58,0,30
2,note_on,34,23,540
2,note_on,46,25,60
2,note_on,53,28,60
2,note_on,58,30,60
2,note_on,34,0,60
2,note_on,62,39,0
2,note_on,46,0,60
2,note_on,53,0,60
2,note_on,58,0,60
2,note_on,62,0,540
2,note_on,60,36,0
2,note_on,60,0,150
2,note_on,46,28,0
2,note_on,50,30,30
2,note_on,53,33,30
2,note_on,58,41,30
2,note_on,58,0,150
2,note_on,46,0,0
2,note_on,50,0,30
2,note_on,53,0,30
2,note_on,34,26,510
2,note_on,46,28,60
2,note_on,50,32,60
2,note_on,53,35,60
2,note_on,34,0,60
2,note_on,58,38,0
2,note_on,46,0,60
2,note_on,50,0,60
2,note_on,53,0,60
2,note_on,58,0,540
2,note_on,58,39,0
2,note_on,58,0,150
2,note_on,46,28,0
2,note_on,51,31,30
2,note_on,54,33,30
2,note_on,57,41,30
2,note_on,46,0,150
2,note_on,51,0,30
2,note_on,54,0,30
2,note_on,57,0,510
2,note_on,57,44,0
2,note_on,57,0,150
2,note_on,54,35,30
2,note_on,57,42,30
2,note_on,66,55,30
2,note_on,54,0,180
2,note_on,57,0,30
2,note_on,66,0,510
2,note_on,57,39,0
2,note_on,57,0,180
2,note_on,46,29,0
2,note_on,53,35,30
2,note_on,60,44,30
2,note_on,46,0,180
2,note_on,53,0,30
2,note_on,60,0,750
2,note_on,58,40,0
2,note_on,58,0,240
2,note_on,50,23,630
2,note_on,55,28,30
2,note_on,58,32,30
2,note_on,62,45,30
2,note_on,62,0,150
2,note_on,50,0,0
2,note_on,55,0,30
2,note_on,58,0,30
2,note_on,31,23,510
2,note_on,43,23,30
2,note_on,50,25,30
2,note_on,55,28,60
2,note_on,58,30,60
2,note_on,31,0,60
2,note_on,62,39,0
2,note_on,43,0,30
2,note_on,50,0,30
2,note_on,55,0,60
2,note_on,58,0,60
2,note_on,62,0,540
2,note_on,60,36,0
2,note_on,60,0,150
2,note_on,43,28,30
2,note_on,50,30,30
2,note_on,58,41,30
2,note_on,43,0,180
2,note_on,50,0,30
2,note_on,58,0,510
2,note_on,31,26,0
2,note_on,43,28,60
2,note_on,50,32,60
2,note_on,55,35,60
2,note_on,31,0,60
2,note_on,58,38,0
2,note_on,43,0,60
2,note_on,50,0,60
2,note_on,55,0,60
2,note_on,58,0,540
2,note_on,58,39,0
2,note_on,58,0,150
2,note_on,48,28,0
2,note_on,52,31,30
2,note_on,58,33,30
2,note_on,61,41,30
2,note_on,48,0,150
2,note_on,52,0,30
2,note_on,58,0,30
2,note_on,61,0,510
2,note_on,60,44,0
2,note_on,60,0,150
2,note_on,55,32,30
2,note_on,60,34,30
2,note_on,70,48,30
2,note_on,55,0,180
2,note_on,60,0,30
2,note_on,70,0,510
2,note_on,64,39,0
2,note_on,41,29,150
2,note_on,64,0,30
2,note_on,48,29,0
2,note_on,57,35,30
2,note_on,65,44,30
2,note_on,65,0,150
2,note_on,41,0,0
2,note_on,48,0,30
2,note_on,57,0,30
2,note_on,49,23,1620
2,note_on,56,28,30
2,note_on,61,32,30
2,note_on,65,41,30
2,note_on,65,0,150
2,note_on,49,0,0
2,note_on,56,0,30
2,note_on,61,0,30
2,note_on,37,23,510
2,note_on,49,25,60
2,note_on,56,28,60
2,note_on,61,30,60
2,note_on,37,0,60
2,note_on,65,39,0
2,note_on,49,0,60
2,note_on,56,0,60
2,note_on,61,0,60
2,note_on,65,0,540
2,note_on,65,36,0
2,note_on,65,0,150
2,note_on,56,28,0
2,note_on,61,30,30
2,note_on,63,33,30
2,note_on,68,48,30
2,note_on,68,0,150
2,note_on,63,0,0
2,note_on,56,0,0
2,note_on,61,0,30
2,note_on,44,26,540
2,note_on,51,28,60
2,note_on,56,32,60
2,note_on,60,35,60
2,note_on,44,0,60
2,note_on,63,38,0
2,note_on,51,0,60
2,note_on,56,0,60
2,note_on,60,0,60
2,note_on,63,0,540
2,note_on,48,23,150
2,note_on,55,28,30
2,note_on,60,32,30
2,note_on,63,41,30
2,note_on,63,0,150
2,note_on,48,0,0
2,note_on,55,0,30
2,note_on,60,0,30
2,note_on,36,23,510
2,note_on,48,25,60
2,note_on,55,28,60
2,note_on,60,30,60
2,note_on,36,0,60
2,note_on,63,39,0
2,note_on,48,0,60
2,note_on,55,0,60
2,note_on,60,0,60
2,note_on,63,0,540
2,note_on,63,36,0
2,note_on,63,0,150
2,note_on,55,28,0
2,note_on,60,30,30
2,note_on,62,33,30
2,note_on,67,41,30
2,note_on,67,0,150
2,note_on,62,0,0
2,note_on,55,0,0
2,note_on,60,0,30
2,note_on,43,26,540
2,note_on,50,28,60
2,note_on,55,32,60
2,note_on,59,35,60
2,note_on,43,0,60
2,note_on,62,38,0
2,note_on,50,0,60
2,note_on,55,0,60
2,note_on,59,0,60
2,note_on,62,0,540
2,note_on,46,23,150
2,note_on,53,28,30
2,note_on,58,32,30
2,note_on,62,41,30
2,note_on,62,0,150
2,note_on,46,0,0
2,note_on,53,0,30
2,note_on,58,0,30
2,note_on,34,23,510
2,note_on,46,25,60
2,note_on,53,28,60
2,note_on,58,30,60
2,note_on,34,0,60
2,note_on,62,39,0
2,note_on,46,0,60
2,note_on,53,0,60
2,note_on,58,0,60
2,note_on,62,0,540
2,note_on,60,36,0
2,note_on,60,0,150
2,note_on,43,30,30
2,note_on,50,33,30
2,note_on,58,41,30
2,note_on,43,0,180
2,note_on,50,0,30
2,note_on,58,0,510
2,note_on,31,26,0
2,note_on,43,28,60
2,note_on,50,32,60
2,note_on,55,35,60
2,note_on,31,0,60
2,note_on,58,38,0
2,note_on,43,0,60
2,note_on,50,0,60
2,note_on,55,0,60
2,note_on,58,0,540
2,note_on,58,36,0
2,note_on,58,0,240
2,note_on,51,32,0
2,note_on,62,40,0
2,note_on,55,32,0
2,note_on,55,0,240
2,note_on,51,0,0
2,note_on,62,0,240
2,note_on,60,38,0
2,note_on,39,30,0
2,note_on,39,0,240
2,note_on,60,0,240
2,note_on,58,38,0
2,note_on,51,30,0
2,note_on,55,30,0
2,note_on,55,0,240
2,note_on,51,0,0
2,note_on,58,0,240
2,note_on,39,29,0
2,note_on,60,37,0
2,note_on,39,0,240
2,note_on,38,29,150
2,note_on,45,32,30
2,note_on,54,35,30
2,note_on,60,0,30
2,note_on,62,37,0
2,note_on,62,0,150
2,note_on,38,0,0
2,note_on,45,0,30
2,note_on,54,0,30
2,note_on,66,24,2190
2,note_on,62,20,0
2,note_on,62,0,160
2,note_on,66,0,0
2,note_on,57,22,0
2,note_on,62,27,0
2,note_on,62,0,160
2,note_on,57,0,0
2,note_on,54,23,0
2,note_on,50,19,0
2,note_on,50,0,160
2,note_on,54,0,0
2,note_on,57,22,0
2,note_on,62,26,0
2,note_on,62,0,160
2,note_on,57,0,0
2,note_on,50,20,0
2,note_on,54,24,0
2,note_on,54,0,160
2,note_on,50,0,0
2,note_on,26,29,0
2,note_on,26,0,160
2,note_on,38,24,0
2,note_on,38,0,240
2,note_on,50,29,0
2,note_on,50,0,240
2,note_on,62,28,0
2,note_on,62,0,240
2,note_on,46,41,1680
2,note_on,46,0,160
2,note_on,53,18,0
2,note_on,62,22,0
2,note_on,65,22,0
2,note_on,82,26,0
2,note_on,77,26,0
2,note_on,77,0,144
2,note_on,65,0,0
2,note_on,53,0,0
2,note_on,62,0,0
2,note_on,82,0,0
2,note_on,62,23,16
2,note_on,54,19,0
2,note_on,65,23,0
2,note_on,82,28,0
2,note_on,77,28,0
2,note_on,77,0,144
2,note_on,65,0,0
2,note_on,62,0,0
2,note_on,54,0,0
2,note_on,82,0,0
2,note_on,65,24,16
2,note_on,62,24,0
2,note_on,82,29,0
2,note_on,77,29,0
2,note_on,55,20,0
2,note_on,55,0,144
2,note_on,82,0,0
2,note_on,65,0,0
2,note_on,62,0,0
2,note_on,77,0,0
2,note_on,77,31,16
2,note_on,82,31,0
2,note_on,62,26,0
2,note_on,65,26,0
2,note_on,56,22,0
2,note_on,56,0,144
2,note_on,62,0,0
2,note_on,77,0,0
2,note_on,82,0,0
2,note_on,65,0,0
2,note_on,62,27,16
2,note_on,65,27,0
2,note_on,77,32,0
2,note_on,82,32,0
2,note_on,57,22,0
2,note_on,57,0,144
2,note_on,77,0,0
2,note_on,62,0,0
2,note_on,65,0,0
2,note_on,82,0,0
2,note_on,65,28,16
2,note_on,62,28,0
2,note_on,58,23,0
2,note_on,58,0,144
2,note_on,62,0,0
2,note_on,65,0,0
2,note_on,77,35,16
2,note_on,82,35,0
2,note_on,59,24,0
2,note_on,62,29,0
2,note_on,65,29,0
2,note_on,65,0,144
2,note_on,59,0,0
2,note_on,77,0,0
2,note_on,82,0,0
2,note_on,62,0,0
2,note_on,77,36,16
2,note_on,62,30,0
2,note_on,65,30,0
2,note_on,82,36,0
2,note_on,60,25,0
2,note_on,60,0,144
2,note_on,65,0,0
2,note_on,77,0,0
2,note_on,62,0,0
2,note_on,82,0,0
2,note_on,77,38,16
2,note_on,65,32,0
2,note_on,61,27,0
2,note_on,82,38,0
2,note_on,62,32,0
2,note_on,62,0,144
2,note_on,61,0,0
2,note_on,77,0,0
2,note_on,65,0,0
2,note_on,82,0,0
2,note_on,82,39,16
2,note_on,62,33,0
2,note_on,65,33,0
2,note_on,77,39,0
2,note_on,77,0,144
2,note_on,82,0,0
2,note_on,62,0,0
2,note_on,65,0,0
2,note_on,46,41,176
2,note_on,46,0,160
2,note_on,53,18,0
2,note_on,62,22,0
2,note_on,65,22,0
2,note_on,77,26,0
2,note_on,74,26,0
2,note_on,74,0,144
2,note_on,65,0,0
2,note_on,53,0,0
2,note_on,62,0,0
2,note_on,77,0,0
2,note_on,77,28,16
2,note_on,65,23,0
2,note_on,74,28,0
2,note_on,62,23,0
2,note_on,54,19,0
2,note_on,54,0,144
2,note_on,74,0,0
2,note_on,77,0,0
2,note_on,65,0,0
2,note_on,62,0,0
2,note_on,65,24,16
2,note_on,62,24,0
2,note_on,77,29,0
2,note_on,55,20,0
2,note_on,74,29,0
2,note_on,74,0,144
2,note_on,77,0,0
2,note_on,65,0,0
2,note_on,62,0,0
2,note_on,55,0,0
2,note_on,62,26,16
2,note_on,56,22,0
2,note_on,77,31,0
2,note_on,74,31,0
2,note_on,65,26,0
2,note_on,65,0,144
2,note_on,77,0,0
2,note_on,62,0,0
2,note_on,56,0,0
2,note_on,74,0,0
2,note_on,74,32,16
2,note_on,77,32,0
2,note_on,57,22,0
2,note_on,65,27,0
2,note_on,62,27,0
2,note_on,62,0,144
2,note_on,57,0,0
2,note_on,74,0,0
2,note_on,77,0,0
2,note_on,65,0,0
2,note_on,58,23,16
2,note_on,62,28,0
2,note_on,65,28,0
2,note_on,65,0,144
2,note_on,62,0,0
2,note_on,58,0,0
2,note_on,65,29,16
2,note_on,77,35,0
2,note_on,74,35,0
2,note_on,59,24,0
2,note_on,62,29,0
2,note_on,62,0,144
2,note_on,74,0,0
2,note_on,65,0,0
2,note_on,77,0,0
2,note_on,59,0,0
2,note_on,77,36,16
2,note_on,60,25,0
2,note_on,74,36,0
2,note_on,62,30,0
2,note_on,65,30,0
2,note_on,65,0,144
2,note_on,74,0,0
2,note_on,77,0,0
2,note_on,60,0,0
2,note_on,62,0,0
2,note_on,74,38,16
2,note_on,62,32,0
2,note_on,61,27,0
2,note_on,65,32,0
2,note_on,77,38,0
2,note_on,77,0,144
2,note_on,61,0,0
2,note_on,74,0,0
2,note_on,62,0,0
2,note_on,65,0,0
2,note_on,77,39,16
2,note_on,74,39,0
2,note_on,62,33,0
2,note_on,65,33,0
2,note_on,65,0,144
2,note_on,77,0,0
2,note_on,74,0,0
2,note_on,62,0,0
2,note_on,46,41,176
2,note_on,46,0,160
2,note_on,72,28,0
2,note_on,75,28,0
2,note_on,63,24,0
2,note_on,66,24,0
2,note_on,54,19,0
2,note_on,54,0,144
2,note_on,63,0,0
2,note_on,72,0,0
2,note_on,75,0,0
2,note_on,66,0,0
2,note_on,75,30,16
2,note_on,66,25,0
2,note_on,63,25,0
2,note_on,72,30,0
2,note_on,55,20,0
2,note_on,55,0,144
2,note_on,63,0,0
2,note_on,75,0,0
2,note_on,66,0,0
2,note_on,72,0,0
2,note_on,75,31,16
2,note_on,72,31,0
2,note_on,66,26,0
2,note_on,63,26,0
2,note_on,56,22,0
2,note_on,56,0,144
2,note_on,66,0,0
2,note_on,75,0,0
2,note_on,72,0,0
2,note_on,63,0,0
2,note_on,72,34,16
2,note_on,63,28,0
2,note_on,66,28,0
2,note_on,75,34,0
2,note_on,57,24,0
2,note_on,57,0,144
2,note_on,66,0,0
2,note_on,72,0,0
2,note_on,63,0,0
2,note_on,75,0,0
2,note_on,63,29,16
2,note_on,58,24,0
2,note_on,66,29,0
2,note_on,66,0,144
2,note_on,58,0,0
2,note_on,63,0,0
2,note_on,63,30,16
2,note_on,59,25,0
2,note_on,66,30,0
2,note_on,66,0,144
2,note_on,59,0,0
2,note_on,63,0,0
2,note_on,81,38,16
2,note_on,66,31,0
2,note_on,84,38,0
2,note_on,60,26,0
2,note_on,63,31,0
2,note_on,63,0,144
2,note_on,84,0,0
2,note_on,81,0,0
2,note_on,66,0,0
2,note_on,60,0,0
2,note_on,61,27,16
2,note_on,63,33,0
2,note_on,66,33,0
2,note_on,81,39,0
2,note_on,84,39,0
2,note_on,84,0,144
2,note_on,66,0,0
2,note_on,61,0,0
2,note_on,63,0,0
2,note_on,81,0,0
2,note_on,63,35,16
2,note_on,66,35,0
2,note_on,84,41,0
2,note_on,81,41,0
2,note_on,62,29,0
2,note_on,62,0,144
2,note_on,84,0,0
2,note_on,63,0,0
2,note_on,66,0,0
2,note_on,81,0,0
2,note_on,84,42,16
2,note_on,66,36,0
2,note_on,81,42,0
2,note_on,63,36,0
2,note_on,63,0,144
2,note_on,84,0,0
2,note_on,66,0,0
2,note_on,81,0,0
2,note_on,46,41,176
2,note_on,46,0,160
2,note_on,77,28,0
2,note_on,53,19,0
2,note_on,65,24,0
2,note_on,62,24,0
2,note_on,74,28,0
2,note_on,74,0,144
2,note_on,65,0,0
2,note_on,77,0,0
2,note_on,53,0,0
2,note_on,62,0,0
2,note_on,74,30,16
2,note_on,62,25,0
2,note_on,65,25,0
2,note_on,77,30,0
2,note_on,54,20,0
2,note_on,54,0,144
2,note_on,65,0,0
2,note_on,74,0,0
2,note_on,62,0,0
2,note_on,77,0,0
2,note_on,74,31,16
2,note_on,55,22,0
2,note_on,65,26,0
2,note_on,77,31,0
2,note_on,62,26,0
2,note_on,62,0,144
2,note_on,65,0,0
2,note_on,74,0,0
2,note_on,55,0,0
2,note_on,77,0,0
2,note_on,56,24,16
2,note_on,74,34,0
2,note_on,62,28,0
2,note_on,77,34,0
2,note_on,65,28,0
2,note_on,65,0,144
2,note_on,62,0,0
2,note_on,56,0,0
2,note_on,74,0,0
2,note_on,77,0,0
2,note_on,65,29,16
2,note_on,74,35,0
2,note_on,57,24,0
2,note_on,62,29,0
2,note_on,77,35,0
2,note_on,77,0,144
2,note_on,57,0,0
2,note_on,65,0,0
2,note_on,74,0,0
2,note_on,62,0,0
2,note_on,62,30,16
2,note_on,58,25,0
2,note_on,65,30,0
2,note_on,65,0,144
2,note_on,58,0,0
2,note_on,62,0,0
2,note_on,59,26,16
2,note_on,74,38,0
2,note_on,62,31,0
2,note_on,65,31,0
2,note_on,77,38,0
2,note_on,77,0,144
2,note_on,62,0,0
2,note_on,59,0,0
2,note_on,74,0,0
2,note_on,65,0,0
2,note_on,65,33,16
2,note_on,60,27,0
2,note_on,74,39,0
2,note_on,77,39,0
2,note_on,62,33,0
2,note_on,62,0,144
2,note_on,74,0,0
2,note_on,65,0,0
2,note_on,60,0,0
2,note_on,77,0,0
2,note_on,61,29,16
2,note_on,77,41,0
2,note_on,74,41,0
2,note_on,65,35,0
2,note_on,62,35,0
2,note_on,62,0,144
2,note_on,74,0,0
2,note_on,61,0,0
2,note_on,77,0,0
2,note_on,65,0,0
2,note_on,62,36,16
2,note_on,65,36,0
2,note_on,74,43,0
2,note_on,77,43,0
2,note_on,77,0,144
2,note_on,62,0,0
2,note_on,65,0,0
2,note_on,74,0,0
2,note_on,74,44,16
2,note_on,77,44,0
2,note_on,77,0,144
2,note_on,74,0,0
2,note_on,43,45,16
2,note_on,43,0,160
2,note_on,58,19,0
2,note_on,67,24,0
2,note_on,79,28,0
2,note_on,70,24,0
2,note_on,82,28,0
2,note_on,82,0,144
2,note_on,79,0,0
2,note_on,58,0,0
2,note_on,67,0,0
2,note_on,70,0,0
2,note_on,67,25,16
2,note_on,79,30,0
2,note_on,59,20,0
2,note_on,82,30,0
2,note_on,70,25,0
2,note_on,70,0,144
2,note_on,59,0,0
2,note_on,67,0,0
2,note_on,79,0,0
2,note_on,82,0,0
2,note_on,60,22,16
2,note_on,82,31,0
2,note_on,70,26,0
2,note_on,67,26,0
2,note_on,79,31,0
2,note_on,79,0,144
2,note_on,70,0,0
2,note_on,60,0,0
2,note_on,82,0,0
2,note_on,67,0,0
2,note_on,82,34,16
2,note_on,61,24,0
2,note_on,79,34,0
2,note_on,67,28,0
2,note_on,70,28,0
2,note_on,70,0,144
2,note_on,79,0,0
2,note_on,82,0,0
2,note_on,61,0,0
2,note_on,67,0,0
2,note_on,82,35,16
2,note_on,62,24,0
2,note_on,79,35,0
2,note_on,67,29,0
2,note_on,70,29,0
2,note_on,70,0,144
2,note_on,79,0,0
2,note_on,82,0,0
2,note_on,62,0,0
2,note_on,67,0,0
2,note_on,67,30,16
2,note_on,70,30,0
2,note_on,63,25,0
2,note_on,63,0,144
2,note_on,70,0,0
2,note_on,67,0,0
2,note_on,70,31,16
2,note_on,67,31,0
2,note_on,64,26,0
2,note_on,82,38,0
2,note_on,79,38,0
2,note_on,79,0,144
2,note_on,64,0,0
2,note_on,70,0,0
2,note_on,67,0,0
2,note_on,82,0,0
2,note_on,82,39,16
2,note_on,67,33,0
2,note_on,65,27,0
2,note_on,70,33,0
2,note_on,79,39,0
2,note_on,79,0,144
2,note_on,65,0,0
2,note_on,82,0,0
2,note_on,67,0,0
2,note_on,70,0,0
2,note_on,70,35,16
2,note_on,67,35,0
2,note_on,66,29,0
2,note_on,82,41,0
2,note_on,79,41,0
2,note_on,79,0,144
2,note_on,66,0,0
2,note_on,70,0,0
2,note_on,67,0,0
2,note_on,82,0,0
2,note_on,70,36,16
2,note_on,67,36,0
2,note_on,79,42,0
2,note_on,82,42,0
2,note_on,82,0,144
2,note_on,70,0,0
2,note_on,67,0,0
2,note_on,79,0,0
2,note_on,43,45,176
2,note_on,43,0,160
2,note_on,62,24,0
2,note_on,74,28,0
2,note_on,79,28,0
2,note_on,55,19,0
2,note_on,67,24,0
2,note_on,67,0,144
2,note_on,79,0,0
2,note_on,62,0,0
2,note_on,74,0,0
2,note_on,55,0,0
2,note_on,79,30,16
2,note_on,56,20,0
2,note_on,62,25,0
2,note_on,74,30,0
2,note_on,67,25,0
2,note_on,67,0,144
2,note_on,62,0,0
2,note_on,79,0,0
2,note_on,56,0,0
2,note_on,74,0,0
2,note_on,79,31,16
2,note_on,74,31,0
2,note_on,57,22,0
2,note_on,67,26,0
2,note_on,62,26,0
2,note_on,62,0,144
2,note_on,57,0,0
2,note_on,79,0,0
2,note_on,74,0,0
2,note_on,67,0,0
2,note_on,79,34,16
2,note_on,74,34,0
2,note_on,62,28,0
2,note_on,58,24,0
2,note_on,67,28,0
2,note_on,67,0,144
2,note_on,62,0,0
2,note_on,79,0,0
2,note_on,74,0,0
2,note_on,58,0,0
2,note_on,59,24,16
2,note_on,74,35,0
2,note_on,67,29,0
2,note_on,79,35,0
2,note_on,62,29,0
2,note_on,62,0,144
2,note_on,67,0,0
2,note_on,59,0,0
2,note_on,74,0,0
2,note_on,79,0,0
2,note_on,74,34,16
2,note_on,79,34,0
2,note_on,67,30,0
2,note_on,62,30,0
2,note_on,60,25,0
2,note_on,60,0,144
2,note_on,67,0,0
2,note_on,74,0,0
2,note_on,79,0,0
2,note_on,62,0,0
2,note_on,79,38,16
2,note_on,67,31,0
2,note_on,74,38,0
2,note_on,61,31,0
2,note_on,61,0,144
2,note_on,79,0,0
2,note_on,67,0,0
2,note_on,74,0,0
2,note_on,62,33,16
2,note_on,79,39,0
2,note_on,67,33,0
2,note_on,74,39,0
2,note_on,74,0,144
2,note_on,62,0,0
2,note_on,79,0,0
2,note_on,67,0,0
2,note_on,74,41,16
2,note_on,67,35,0
2,note_on,79,41,0
2,note_on,58,29,0
2,note_on,58,0,144
2,note_on,74,0,0
2,note_on,67,0,0
2,note_on,79,0,0
2,note_on,74,41,16
2,note_on,79,41,0
2,note_on,79,0,144
2,note_on,74,0,0
2,note_on,48,45,176
2,note_on,36,45,0
2,note_on,36,0,160
2,note_on,48,0,0
2,note_on,76,28,0
2,note_on,67,24,0
2,note_on,82,28,0
2,note_on,70,24,0
2,note_on,58,19,0
2,note_on,58,0,144
2,note_on,82,0,0
2,note_on,76,0,0
2,note_on,67,0,0
2,note_on,70,0,0
2,note_on,67,25,16
2,note_on,76,30,0
2,note_on,70,25,0
2,note_on,59,20,0
2,note_on,82,30,0
2,note_on,82,0,144
2,note_on,70,0,0
2,note_on,67,0,0
2,note_on,76,0,0
2,note_on,59,0,0
2,note_on,60,22,16
2,note_on,70,26,0
2,note_on,82,31,0
2,note_on,67,26,0
2,note_on,76,31,0
2,note_on,76,0,144
2,note_on,82,0,0
2,note_on,60,0,0
2,note_on,70,0,0
2,note_on,67,0,0
2,note_on,61,24,16
2,note_on,76,34,0
2,note_on,67,28,0
2,note_on,82,34,0
2,note_on,70,28,0
2,note_on,70,0,144
2,note_on,67,0,0
2,note_on,61,0,0
2,note_on,76,0,0
2,note_on,82,0,0
2,note_on,70,29,16
2,note_on,62,24,0
2,note_on,67,29,0
2,note_on,67,0,144
2,note_on,62,0,0
2,note_on,70,0,0
2,note_on,70,30,16
2,note_on,67,30,0
2,note_on,63,25,0
2,note_on,63,0,144
2,note_on,67,0,0
2,note_on,70,0,0
2,note_on,64,26,16
2,note_on,88,38,0
2,note_on,85,38,0
2,note_on,70,31,0
2,note_on,67,31,0
2,note_on,67,0,144
2,note_on,85,0,0
2,note_on,64,0,0
2,note_on,88,0,0
2,note_on,70,0,0
2,note_on,85,39,16
2,note_on,67,33,0
2,note_on,65,27,0
2,note_on,88,39,0
2,note_on,70,33,0
2,note_on,70,0,144
2,note_on,65,0,0
2,note_on,85,0,0
2,note_on,67,0,0
2,note_on,88,0,0
2,note_on,66,29,16
2,note_on,67,35,0
2,note_on,70,35,0
2,note_on,88,41,0
2,note_on,85,41,0
2,note_on,85,0,144
2,note_on,70,0,0
2,note_on,66,0,0
2,note_on,67,0,0
2,note_on,88,0,0
2,note_on,67,36,16
2,note_on,88,42,0
2,note_on,85,42,0
2,note_on,70,36,0
2,note_on,70,0,144
2,note_on,67,0,0
2,note_on,88,0,0
2,note_on,85,0,0
2,note_on,41,45,176
2,note_on,41,0,160
2,note_on,81,32,0
2,note_on,84,32,0
2,note_on,65,27,0
2,note_on,57,21,0
2,note_on,69,27,0
2,note_on,69,0,144
2,note_on,65,0,0
2,note_on,81,0,0
2,note_on,84,0,0
2,note_on,57,0,0
2,note_on,65,28,16
2,note_on,81,34,0
2,note_on,58,23,0
2,note_on,84,34,0
2,note_on,69,28,0
2,note_on,69,0,144
2,note_on,58,0,0
2,note_on,65,0,0
2,note_on,81,0,0
2,note_on,84,0,0
2,note_on,69,29,16
2,note_on,81,35,0
2,note_on,65,29,0
2,note_on,59,25,0
2,note_on,84,35,0
2,note_on,84,0,144
2,note_on,65,0,0
2,note_on,69,0,0
2,note_on,81,0,0
2,note_on,59,0,0
2,note_on,65,32,16
2,note_on,60,27,0
2,note_on,84,39,0
2,note_on,81,39,0
2,note_on,69,32,0
2,note_on,69,0,144
2,note_on,84,0,0
2,note_on,65,0,0
2,note_on,60,0,0
2,note_on,81,0,0
2,note_on,81,41,16
2,note_on,65,33,0
2,note_on,84,41,0
2,note_on,61,27,0
2,note_on,69,33,0
2,note_on,69,0,144
2,note_on,84,0,0
2,note_on,81,0,0
2,note_on,65,0,0
2,note_on,61,0,0
2,note_on,81,36,16
2,note_on,62,29,0
2,note_on,84,36,0
2,note_on,69,35,0
2,note_on,65,35,0
2,note_on,65,0,144
2,note_on,84,0,0
2,note_on,81,0,0
2,note_on,62,0,0
2,note_on,69,0,0
2,note_on,84,45,16
2,note_on,81,45,0
2,note_on,69,36,0
2,note_on,65,36,0
2,note_on,63,31,0
2,note_on,63,0,144
2,note_on,69,0,0
2,note_on,84,0,0
2,note_on,81,0,0
2,note_on,65,0,0
2,note_on,64,32,16
2,note_on,84,49,0
2,note_on,81,49,0
2,note_on,65,39,0
2,note_on,69,39,0
2,note_on,69,0,144
2,note_on,81,0,0
2,note_on,64,0,0
2,note_on,84,0,0
2,note_on,65,0,0
2,note_on,69,42,16
2,note_on,65,42,0
2,note_on,81,53,0
2,note_on,84,53,0
2,note_on,84,0,144
2,note_on,69,0,0
2,note_on,65,0,0
2,note_on,81,0,0
2,note_on,81,57,16
2,note_on,84,57,0
2,note_on,84,0,144
2,note_on,81,0,0
2,note_on,84,59,11
2,note_on,81,59,0
2,note_on,81,0,144
2,note_on,84,0,18
2,note_on,37,51,3
2,note_on,49,51,0
2,note_on,49,0,160
2,note_on,37,0,0
2,note_on,53,23,0
2,note_on,80,36,0
2,note_on,65,30,0
2,note_on,61,30,0
2,note_on,85,36,0
2,note_on,85,0,144
2,note_on,65,0,0
2,note_on,53,0,0
2,note_on,80,0,0
2,note_on,61,0,0
2,note_on,61,31,16
2,note_on,80,38,0
2,note_on,65,31,0
2,note_on,54,26,0
2,note_on,85,38,0
2,note_on,85,0,144
2,note_on,65,0,0
2,note_on,61,0,0
2,note_on,80,0,0
2,note_on,54,0,0
2,note_on,80,39,16
2,note_on,85,39,0
2,note_on,65,34,0
2,note_on,55,28,0
2,note_on,61,34,0
2,note_on,61,0,144
2,note_on,65,0,0
2,note_on,80,0,0
2,note_on,85,0,0
2,note_on,55,0,0
2,note_on,65,36,16
2,note_on,80,45,0
2,note_on,85,45,0
2,note_on,56,30,0
2,note_on,61,36,0
2,note_on,61,0,144
2,note_on,85,0,0
2,note_on,65,0,0
2,note_on,80,0,0
2,note_on,56,0,0
2,note_on,57,30,16
2,note_on,80,46,0
2,note_on,85,46,0
2,note_on,61,38,0
2,note_on,65,38,0
2,note_on,65,0,144
2,note_on,85,0,0
2,note_on,57,0,0
2,note_on,80,0,0
2,note_on,61,0,0
2,note_on,58,34,16
2,note_on,65,39,0
2,note_on,61,39,0
2,note_on,61,0,144
2,note_on,65,0,0
2,note_on,58,0,0
2,note_on,80,51,16
2,note_on,61,40,0
2,note_on,59,35,0
2,note_on,65,40,0
2,note_on,85,51,0
2,note_on,85,0,144
2,note_on,59,0,0
2,note_on,80,0,0
2,note_on,61,0,0
2,note_on,65,0,0
2,note_on,60,36,16
2,note_on,65,45,0
2,note_on,80,52,0
2,note_on,85,52,0
2,note_on,61,45,0
2,note_on,61,0,144
2,note_on,80,0,0
2,note_on,60,0,0
2,note_on,65,0,0
2,note_on,85,0,0
2,note_on,61,47,16
2,note_on,65,47,0
2,note_on,85,56,0
2,note_on,80,56,0
2,note_on,80,0,144
2,note_on,61,0,0
2,note_on,65,0,0
2,note_on,85,0,0
2,note_on,80,57,16
2,note_on,85,57,0
2,note_on,85,0,144
2,note_on,80,0,0
2,note_on,32,55,176
2,note_on,44,55,0
2,note_on,44,0,160
2,note_on,32,0,0
2,note_on,87,38,0
2,note_on,56,26,0
2,note_on,68,34,0
2,note_on,85,38,0
2,note_on,63,34,0
2,note_on,63,0,144
2,note_on,68,0,0
2,note_on,87,0,0
2,note_on,56,0,0
2,note_on,85,0,0
2,note_on,85,40,16
2,note_on,87,40,0
2,note_on,57,27,0
2,note_on,68,35,0
2,note_on,63,35,0
2,note_on,63,0,144
2,note_on,57,0,0
2,note_on,85,0,0
2,note_on,87,0,0
2,note_on,68,0,0
2,note_on,85,44,16
2,note_on,63,36,0
2,note_on,58,30,0
2,note_on,87,44,0
2,note_on,68,36,0
2,note_on,68,0,144
2,note_on,58,0,0
2,note_on,85,0,0
2,note_on,63,0,0
2,note_on,87,0,0
2,note_on,68,39,16
2,note_on,85,48,0
2,note_on,87,48,0
2,note_on,59,34,0
2,note_on,63,39,0
2,note_on,63,0,144
2,note_on,87,0,0
2,note_on,68,0,0
2,note_on,85,0,0
2,note_on,59,0,0
2,note_on,87,50,16
2,note_on,60,34,0
2,note_on,85,50,0
2,note_on,63,40,0
2,note_on,68,40,0
2,note_on,68,0,144
2,note_on,85,0,0
2,note_on,87,0,0
2,note_on,60,0,0
2,note_on,63,0,0
2,note_on,80,55,176
2,note_on,84,55,0
2,note_on,59,44,0
2,note_on,63,44,0
2,note_on,68,44,0
2,note_on,68,0,144
2,note_on,59,0,0
2,note_on,80,0,0
2,note_on,84,0,0
2,note_on,63,0,0
2,note_on,80,56,16
2,note_on,60,45,0
2,note_on,68,47,0
2,note_on,84,56,0
2,note_on,63,47,0
2,note_on,63,0,144
2,note_on,68,0,0
2,note_on,80,0,0
2,note_on,60,0,0
2,note_on,84,0,0
2,note_on,63,42,16
2,note_on,68,51,0
2,note_on,84,60,0
2,note_on,61,45,0
2,note_on,80,60,0
2,note_on,80,0,144
2,note_on,84,0,0
2,note_on,63,0,0
2,note_on,68,0,0
2,note_on,61,0,0
2,note_on,68,51,16
2,note_on,62,42,0
2,note_on,84,60,0
2,note_on,80,60,0
2,note_on,80,0,144
2,note_on,68,0,0
2,note_on,62,0,0
2,note_on,84,0,0
2,note_on,63,42,16
2,note_on,68,51,0
2,note_on,80,60,0
2,note_on,84,60,0
2,note_on,84,0,144
2,note_on,63,0,0
2,note_on,68,0,0
2,note_on,80,0,0
2,note_on,52,59,16
2,note_on,40,59,0
2,note_on,40,0,160
2,note_on,52,0,0
2,note_on,56,27,0
2,note_on,83,40,0
2,note_on,64,35,0
2,note_on,68,35,0
2,note_on,88,40,0
2,note_on,88,0,144
2,note_on,64,0,0
2,note_on,56,0,0
2,note_on,83,0,0
2,note_on,68,0,0
2,note_on,83,45,16
2,note_on,88,45,0
2,note_on,68,37,0
2,note_on,57,29,0
2,note_on,64,37,0
2,note_on,64,0,144
2,note_on,68,0,0
2,note_on,83,0,0
2,note_on,88,0,0
2,note_on,57,0,0
2,note_on,83,46,16
2,note_on,64,38,0
2,note_on,88,46,0
2,note_on,58,31,0
2,note_on,68,38,0
2,note_on,68,0,144
2,note_on,88,0,0
2,note_on,83,0,0
2,note_on,64,0,0
2,note_on,58,0,0
2,note_on,88,51,16
2,note_on,68,42,0
2,note_on,59,36,0
2,note_on,64,42,0
2,note_on,83,51,0
2,note_on,83,0,144
2,note_on,59,0,0
2,note_on,88,0,0
2,note_on,68,0,0
2,note_on,64,0,0
2,note_on,83,53,16
2,note_on,60,36,0
2,note_on,68,44,0
2,note_on,88,53,0
2,note_on,64,44,0
2,note_on,64,0,144
2,note_on,68,0,0
2,note_on,83,0,0
2,note_on,60,0,0
2,note_on,88,0,0
2,note_on,68,45,16
2,note_on,61,37,0
2,note_on,64,45,0
2,note_on,64,0,144
2,note_on,61,0,0
2,note_on,68,0,0
2,note_on,62,39,16
2,note_on,68,47,0
2,note_on,88,59,0
2,note_on,83,59,0
2,note_on,64,47,0
2,note_on,64,0,144
2,note_on,88,0,0
2,note_on,62,0,0
2,note_on,68,0,0
2,note_on,83,0,0
2,note_on,64,51,16
2,note_on,63,40,0
2,note_on,88,60,0
2,note_on,83,60,0
2,note_on,68,51,0
2,note_on,68,0,144
2,note_on,88,0,0
2,note_on,64,0,0
2,note_on,63,0,0
2,note_on,83,0,0
2,note_on,64,53,16
2,note_on,88,63,0
2,note_on,68,53,0
2,note_on,83,63,0
2,note_on,83,0,144
2,note_on,64,0,0
2,note_on,88,0,0
2,note_on,68,0,0
2,note_on,88,64,16
2,note_on,83,64,0
2,note_on,83,0,144
2,note_on,88,0,0
2,note_on,47,62,176
2,note_on,35,62,0
2,note_on,35,0,160
2,note_on,47,0,0
2,note_on,90,44,0
2,note_on,88,44,0
2,note_on,59,29,0
2,note_on,71,37,0
2,note_on,66,37,0
2,note_on,66,0,144
2,note_on,59,0,0
2,note_on,90,0,0
2,note_on,88,0,0
2,note_on,71,0,0
2,note_on,60,30,16
2,note_on,71,39,0
2,note_on,90,47,0
2,note_on,88,47,0
2,note_on,66,39,0
2,note_on,66,0,144
2,note_on,90,0,0
2,note_on,60,0,0
2,note_on,71,0,0
2,note_on,88,0,0
2,note_on,90,48,16
2,note_on,61,35,0
2,note_on,66,40,0
2,note_on,71,40,0
2,note_on,88,48,0
2,note_on,88,0,144
2,note_on,66,0,0
2,note_on,90,0,0
2,note_on,61,0,0
2,note_on,71,0,0
2,note_on,62,38,16
2,note_on,90,55,0
2,note_on,88,55,0
2,note_on,71,45,0
2,note_on,66,45,0
2,note_on,66,0,144
2,note_on,88,0,0
2,note_on,62,0,0
2,note_on,90,0,0
2,note_on,71,0,0
2,note_on,88,56,16
2,note_on,63,38,0
2,note_on,90,56,0
2,note_on,66,46,0
2,note_on,71,46,0
2,note_on,71,0,144
2,note_on,90,0,0
2,note_on,88,0,0
2,note_on,63,0,0
2,note_on,66,0,0
2,note_on,62,50,176
2,note_on,66,50,0
2,note_on,87,61,0
2,note_on,83,61,0
2,note_on,71,50,0
2,note_on,71,0,144
2,note_on,87,0,0
2,note_on,62,0,0
2,note_on,66,0,0
2,note_on,83,0,0
2,note_on,66,53,16
2,note_on,71,53,0
2,note_on,83,63,0
2,note_on,87,63,0
2,note_on,63,50,0
2,note_on,63,0,144
2,note_on,83,0,0
2,note_on,66,0,0
2,note_on,71,0,0
2,note_on,87,0,0
2,note_on,64,51,16
2,note_on,87,68,0
2,note_on,71,57,0
2,note_on,83,68,0
2,note_on,66,47,0
2,note_on,66,0,144
2,note_on,71,0,0
2,note_on,64,0,0
2,note_on,87,0,0
2,note_on,83,0,0
2,note_on,65,47,16
2,note_on,87,68,0
2,note_on,71,57,0
2,note_on,83,68,0
2,note_on,83,0,144
2,note_on,65,0,0
2,note_on,87,0,0
2,note_on,71,0,0
2,note_on,87,68,16
2,note_on,83,68,0
2,note_on,71,57,0
2,note_on,66,47,0
2,note_on,66,0,108
2,note_on,87,0,0
2,note_on,83,0,0
2,note_on,71,0,0
2,note_on,56,46,7
2,note_on,62,52,15
2,note_on,65,59,15
2,note_on,71,79,15
2,note_on,56,0,195
2,note_on,62,0,15
2,note_on,65,0,15
2,note_on,44,45,645
2,note_on,50,49,30
2,note_on,53,53,30
2,note_on,71,0,30
2,note_on,59,73,0
2,note_on,44,0,150
2,note_on,50,0,30
2,note_on,53,0,30
2,note_on,59,0,510
2,note_on,59,71,0
2,note_on,44,40,180
2,note_on,51,40,30
2,note_on,59,0,30
2,note_on,59,75,0
2,note_on,44,0,180
2,note_on,51,0,30
2,note_on,59,0,270
2,note_on,32,52,360
2,note_on,39,52,0
2,note_on,39,0,120
2,note_on,32,0,0
2,note_on,39,61,0
2,note_on,32,61,0
2,note_on,32,0,240
2,note_on,39,0,0
2,note_on,56,46,675
2,note_on,62,52,15
2,note_on,65,59,15
2,note_on,71,79,15
2,note_on,56,0,195
2,note_on,62,0,15
2,note_on,65,0,15
2,note_on,44,45,645
2,note_on,50,49,30
2,note_on,53,53,30
2,note_on,71,0,30
2,note_on,59,73,0
2,note_on,44,0,150
2,note_on,50,0,30
2,note_on,53,0,30
2,note_on,59,0,510
2,note_on,59,71,0
2,note_on,44,40,180
2,note_on,51,40,30
2,note_on,59,0,30
2,note_on,59,75,0
2,note_on,44,0,180
2,note_on,51,0,30
2,note_on,59,0,270
2,note_on,39,52,360
2,note_on,32,52,0
2,note_on,32,0,120
2,note_on,39,0,0
2,note_on,39,62,0
2,note_on,32,62,0
2,note_on,32,0,240
2,note_on,39,0,0
2,note_on,56,48,675
2,note_on,62,55,15
2,note_on,65,62,15
2,note_on,71,84,15
2,note_on,56,0,195
2,note_on,62,0,15
2,note_on,65,0,15
2,note_on,44,49,645
2,note_on,50,53,30
2,note_on,53,58,30
2,note_on,71,0,30
2,note_on,59,80,0
2,note_on,44,0,150
2,note_on,50,0,30
2,note_on,53,0,30
2,note_on,59,0,510
2,note_on,59,80,0
2,note_on,43,51,120
2,note_on,52,64,60
2,note_on,55,69,30
2,note_on,59,0,30
2,note_on,60,85,0
2,note_on,64,85,0
2,note_on,43,0,120
2,note_on,52,0,60
2,note_on,55,0,30
2,note_on,64,0,750
2,note_on,60,0,0
2,note_on,43,78,0
2,note_on,31,78,0
2,note_on,31,0,240
2,note_on,43,0,0
2,note_on,60,69,240
2,note_on,55,69,0
2,note_on,64,82,0
2,note_on,64,0,480
2,note_on,55,0,0
2,note_on,60,0,0
2,note_on,56,72,0
2,note_on,65,85,0
2,note_on,61,72,0
2,note_on,61,0,870
2,note_on,65,0,0
2,note_on,56,0,0
2,note_on,43,49,0
2,note_on,50,53,30
2,note_on,53,58,30
2,note_on,59,80,30
2,note_on,43,0,150
2,note_on,50,0,30
2,note_on,53,0,30
2,note_on,59,0,510
2,note_on,53,62,0
2,note_on,50,62,0
2,note_on,59,80,0
2,note_on,59,0,240
2,note_on,50,0,0
2,note_on,53,0,0
2,note_on,60,72,0
2,note_on,55,72,0
2,note_on,64,85,0
2,note_on,64,0,960
2,note_on,55,0,0
2,note_on,60,0,0
2,note_on,43,76,0
2,note_on,31,64,0
2,note_on,31,0,240
2,note_on,43,0,0
2,note_on,55,67,240
2,note_on,60,67,0
2,note_on,64,80,0
2,note_on,64,0,480
2,note_on,60,0,0
2,note_on,55,0,0
2,note_on,65,81,0
2,note_on,61,69,0
2,note_on,56,69,0
2,note_on,56,0,480
2,note_on,61,0,0
2,note_on,65,0,960
2,note_on,44,35,2400
2,note_on,53,41,0
2,note_on,49,35,0
2,note_on,49,0,160
2,note_on,53,0,0
2,note_on,44,0,0
2,note_on,48,35,0
2,note_on,43,35,0
2,note_on,52,41,0
2,note_on,52,0,160
2,note_on,43,0,0
2,note_on,48,0,0
2,note_on,51,40,0
2,note_on,42,33,0
2,note_on,47,33,0
2,note_on,47,0,160
2,note_on,42,0,0
2,note_on,51,0,0
2,note_on,41,32,0
2,note_on,50,38,0
2,note_on,46,38,0
2,note_on,46,0,160
2,note_on,50,0,0
2,note_on,41,0,0
2,note_on,45,32,0
2,note_on,40,32,0
2,note_on,49,38,0
2,note_on,49,0,160
2,note_on,40,0,0
2,note_on,45,0,0
2,note_on,48,36,0
2,note_on,39,30,0
2,note_on,44,30,0
2,note_on,44,0,160
2,note_on,39,0,0
2,note_on,48,0,0
2,note_on,38,30,0
2,note_on,47,35,0
2,note_on,43,30,0
2,note_on,43,0,160
2,note_on,47,0,0
2,note_on,38,0,0
2,note_on,46,35,0
2,note_on,37,29,0
2,note_on,42,29,0
2,note_on,42,0,160
2,note_on,37,0,0
2,note_on,46,0,0
2,note_on,36,28,0
2,note_on,45,34,0
2,note_on,41,28,0
2,note_on,41,0,160
2,note_on,45,0,0
2,note_on,36,0,0
2,note_on,35,28,0
2,note_on,40,28,0
2,note_on,44,34,0
2,note_on,44,0,160
2,note_on,40,0,0
2,note_on,35,0,0
2,note_on,43,33,0
2,note_on,39,27,0
2,note_on,34,27,0
2,note_on,34,0,160
2,note_on,39,0,0
2,note_on,43,0,0
2,note_on,42,31,0
2,note_on,33,26,0
2,note_on,38,26,0
2,note_on,38,0,160
2,note_on,33,0,0
2,note_on,42,0,0
2,note_on,37,24,0
2,note_on,41,28,0
2,note_on,32,24,0
2,note_on,32,0,160
2,note_on,41,0,0
2,note_on,37,0,0
2,note_on,33,25,0
2,note_on,42,30,0
2,note_on,38,25,0
2,note_on,38,0,160
2,note_on,42,0,0
2,note_on,33,0,0
2,note_on,39,28,0
2,note_on,43,34,0
2,note_on,34,28,0
2,note_on,34,0,160
2,note_on,43,0,0
2,note_on,39,0,0
2,note_on,40,29,0
2,note_on,35,29,0
2,note_on,44,35,0
2,note_on,44,0,160
2,note_on,35,0,0
2,note_on,40,0,0
2,note_on,39,28,0
2,note_on,43,33,0
2,note_on,34,28,0
2,note_on,34,0,160
2,note_on,43,0,0
2,note_on,39,0,0
2,note_on,38,28,0
2,note_on,33,28,0
2,note_on,42,32,0
2,note_on,42,0,160
2,note_on,33,0,0
2,note_on,38,0,0
2,note_on,32,26,0
2,note_on,37,26,0
2,note_on,41,32,0
2,note_on,41,0,160
2,note_on,37,0,0
2,note_on,32,0,0
2,note_on,42,33,0
2,note_on,38,28,0
2,note_on,33,28,0
2,note_on,33,0,160
2,note_on,38,0,0
2,note_on,42,0,0
2,note_on,39,28,0
2,note_on,43,35,0
2,note_on,34,28,0
2,note_on,34,0,160
2,note_on,43,0,0
2,note_on,39,0,0
2,note_on,44,36,0
2,note_on,35,31,0
2,note_on,40,31,0
2,note_on,40,0,160
2,note_on,35,0,0
2,note_on,44,0,0
2,note_on,34,29,0
2,note_on,43,35,0
2,note_on,39,29,0
2,note_on,39,0,160
2,note_on,43,0,0
2,note_on,34,0,0
2,note_on,33,28,0
2,note_on,38,28,0
2,note_on,42,34,0
2,note_on,42,0,160
2,note_on,38,0,0
2,note_on,33,0,0
2,note_on,41,37,0
2,note_on,37,32,0
2,note_on,32,32,0
2,note_on,32,0,160
2,note_on,37,0,0
2,note_on,41,0,0
2,note_on,38,30,0
2,note_on,33,30,0
2,note_on,42,36,0
2,note_on,42,0,160
2,note_on,33,0,0
2,note_on,38,0,0
2,note_on,39,32,0
2,note_on,34,32,0
2,note_on,43,37,0
2,note_on,43,0,160
2,note_on,34,0,0
2,note_on,39,0,0
2,note_on,40,32,0
2,note_on,44,38,0
2,note_on,35,32,0
2,note_on,35,0,160
2,note_on,44,0,0
2,note_on,40,0,0
2,note_on,34,33,0
2,note_on,39,33,0
2,note_on,43,40,0
2,note_on,43,0,160
2,note_on,39,0,0
2,note_on,34,0,0
2,note_on,33,35,0
2,note_on,38,35,0
2,note_on,42,41,0
2,note_on,42,0,160
2,note_on,38,0,0
2,note_on,33,0,0
2,note_on,37,32,0
2,note_on,32,32,0
2,note_on,41,38,0
2,note_on,41,0,160
2,note_on,32,0,0
2,note_on,37,0,0
2,note_on,42,38,0
2,note_on,38,32,0
2,note_on,33,32,0
2,note_on,33,0,160
2,note_on,38,0,0
2,note_on,42,0,0
2,note_on,34,31,0
2,note_on,43,36,0
2,note_on,39,31,0
2,note_on,39,0,160
2,note_on,43,0,0
2,note_on,34,0,0
2,note_on,40,38,0
2,note_on,35,32,0
2,note_on,44,38,0
2,note_on,40,0,160
2,note_on,41,37,0
2,note_on,25,31,0
2,note_on,41,0,160
2,note_on,35,0,0
2,note_on,44,0,0
2,note_on,43,37,0
2,note_on,25,0,160
2,note_on,36,38,0
2,note_on,24,38,0
2,note_on,40,38,0
2,note_on,40,0,480
2,note_on,43,0,0
2,note_on,36,0,0
2,note_on,24,0,0
2,note_on,48,38,0
2,note_on,55,32,160
2,note_on,52,27,0
2,note_on,48,0,140
2,note_on,52,0,20
2,note_on,55,0,0
2,note_on,36,27,0
2,note_on,48,32,0
2,note_on,48,0,160
2,note_on,36,0,0
2,note_on,49,40,0
2,note_on,53,29,160
2,note_on,56,35,0
2,note_on,56,0,160
2,note_on,53,0,0
2,note_on,35,29,0
2,note_on,47,35,0
2,note_on,47,0,160
2,note_on,35,0,0
2,note_on,49,0,0
2,note_on,50,41,0
2,note_on,56,34,160
2,note_on,53,29,0
2,note_on,53,0,160
2,note_on,56,0,0
2,note_on,46,34,0
2,note_on,34,29,0
2,note_on,34,0,160
2,note_on,46,0,0
2,note_on,50,0,0
2,note_on,51,45,0
2,note_on,58,38,160
2,note_on,55,32,0
2,note_on,55,0,160
2,note_on,58,0,0
2,note_on,39,39,0
2,note_on,27,32,0
2,note_on,27,0,160
2,note_on,39,0,0
2,note_on,51,0,0
2,note_on,52,46,0
2,note_on,59,39,160
2,note_on,56,32,0
2,note_on,56,0,160
2,note_on,59,0,0
2,note_on,38,32,0
2,note_on,50,39,0
2,note_on,50,0,160
2,note_on,38,0,0
2,note_on,52,0,0
2,note_on,53,46,0
2,note_on,59,41,160
2,note_on,56,34,0
2,note_on,56,0,160
2,note_on,59,0,0
2,note_on,49,43,0
2,note_on,37,36,0
2,note_on,37,0,160
2,note_on,49,0,0
2,note_on,53,0,0
2,note_on,54,49,0
2,note_on,61,43,160
2,note_on,58,36,0
2,note_on,58,0,160
2,note_on,61,0,0
2,note_on,30,36,0
2,note_on,42,44,0
2,note_on,42,0,160
2,note_on,30,0,0
2,note_on,54,0,0
2,note_on,55,52,0
2,note_on,62,46,160
2,note_on,59,39,0
2,note_on,59,0,160
2,note_on,62,0,0
2,note_on,29,39,0
2,note_on,41,46,0
2,note_on,41,0,160
2,note_on,29,0,0
2,note_on,55,0,0
2,note_on,56,53,0
2,note_on,59,38,160
2,note_on,62,46,0
2,note_on,62,0,160
2,note_on,59,0,0
2,note_on,28,39,0
2,note_on,40,46,0
2,note_on,40,0,160
2,note_on,28,0,0
2,note_on,56,0,0
2,note_on,57,55,0
2,note_on,61,39,160
2,note_on,64,47,0
2,note_on,64,0,160
2,note_on,61,0,0
2,note_on,33,40,0
2,note_on,45,48,0
2,note_on,45,0,160
2,note_on,33,0,0
2,note_on,57,0,0
2,note_on,58,56,0
2,note_on,65,51,160
2,note_on,62,43,0
2,note_on,62,0,160
2,note_on,65,0,0
2,note_on,33,44,0
2,note_on,45,52,0
2,note_on,45,0,160
2,note_on,33,0,0
2,note_on,58,0,0
2,note_on,59,59,0
2,note_on,63,44,160
2,note_on,66,53,0
2,note_on,66,0,160
2,note_on,63,0,0
2,note_on,45,53,0
2,note_on,33,45,0
2,note_on,33,0,160
2,note_on,45,0,0
2,note_on,59,0,0
2,note_on,60,61,0
2,note_on,67,54,160
2,note_on,64,46,0
2,note_on,64,0,160
2,note_on,67,0,0
2,note_on,45,55,0
2,note_on,33,46,0
2,note_on,33,0,160
2,note_on,45,0,0
2,note_on,60,0,0
2,note_on,45,54,0
2,note_on,55,64,0
2,note_on,52,54,0
2,note_on,52,0,240
2,note_on,55,0,0
2,note_on,45,0,0
2,note_on,58,68,237
2,note_on,46,57,4
2,note_on,57,50,800
2,note_on,45,40,1
2,note_on,43,40,154
2,note_on,55,48,0
2,note_on,58,0,1
2,note_on,57,0,4
2,note_on,46,0,0
2,note_on,45,0,1
2,note_on,55,0,154
2,note_on,43,0,0
2,note_on,41,40,2
2,note_on,53,48,7
2,note_on,40,44,151
2,note_on,41,0,2
2,note_on,52,52,7
2,note_on,53,0,0
2,note_on,40,0,151
2,note_on,38,40,4
2,note_on,50,50,1
2,note_on,52,0,4
2,note_on,37,46,152
2,note_on,38,0,3
2,note_on,50,0,1
2,note_on,49,55,2
2,note_on,37,0,154
2,note_on,49,0,6
2,note_on,40,40,0
2,note_on,52,50,0
2,note_on,48,52,154
2,note_on,36,44,2
2,note_on,52,0,4
2,note_on,40,0,0
2,note_on,48,0,154
2,note_on,36,0,2
2,note_on,52,50,1
2,note_on,40,40,1
2,note_on,47,52,157
2,note_on,52,0,2
2,note_on,35,44,0
2,note_on,40,0,1
2,note_on,47,0,157
2,note_on,52,50,1
2,note_on,35,0,1
2,note_on,40,40,2
2,note_on,52,0,157
2,note_on,34,44,0
2,note_on,40,0,3
2,note_on,46,52,3
2,note_on,34,0,154
2,note_on,40,40,6
2,note_on,46,0,0
2,note_on,52,50,0
2,note_on,45,52,153
2,note_on,33,44,5
2,note_on,40,0,2
2,note_on,52,0,0
2,note_on,45,0,233
2,note_on,33,0,5
2,note_on,49,57,239
2,note_on,61,68,3
2,note_on,46,40,312
2,note_on,49,0,5
2,note_on,58,50,0
2,note_on,61,0,3
2,note_on,57,48,151
2,note_on,46,0,1
2,note_on,45,40,3
2,note_on,58,0,2
2,note_on,57,0,154
2,note_on,55,48,0
2,note_on,45,0,4
2,note_on,43,40,5
2,note_on,55,0,151
2,note_on,41,44,4
2,note_on,53,52,4
2,note_on,43,0,1
2,note_on,41,0,155
2,note_on,53,0,4
2,note_on,40,46,0
2,note_on,52,55,0
2,note_on,43,38,155
2,note_on,55,46,1
2,note_on,52,0,4
2,note_on,40,0,0
2,note_on,39,48,152
2,note_on,43,0,3
2,note_on,55,0,1
2,note_on,51,57,5
2,note_on,55,52,150
2,note_on,39,0,1
2,note_on,43,36,3
2,note_on,51,0,6
2,note_on,55,0,150
2,note_on,50,58,0
2,note_on,43,0,4
2,note_on,38,50,3
2,note_on,50,0,153
2,note_on,43,38,3
2,note_on,55,48,1
2,note_on,38,0,3
2,note_on,43,0,156
2,note_on,55,0,1
2,note_on,37,50,4
2,note_on,49,58,1
2,note_on,55,48,158
2,note_on,37,0,1
2,note_on,43,38,1
2,note_on,49,0,0
2,note_on,34,50,152
2,note_on,55,0,6
2,note_on,43,0,2
2,note_on,46,58,1
2,note_on,34,0,151
2,note_on,43,36,6
2,note_on,55,45,2
2,note_on,46,0,1
2,note_on,43,0,117
2,note_on,55,0,2
2,note_on,45,55,117
2,note_on,33,46,3
2,note_on,45,0,117
2,note_on,33,0,3
2,note_on,52,57,113
2,note_on,64,68,8
2,note_on,50,40,310
2,note_on,52,0,2
2,note_on,62,50,7
2,note_on,64,0,1
2,note_on,50,0,150
2,note_on,49,40,8
2,note_on,62,0,1
2,note_on,61,48,1
2,note_on,46,40,152
2,note_on,58,48,1
2,note_on,49,0,5
2,note_on,61,0,2
2,note_on,46,0,152
2,note_on,58,0,1
2,note_on,45,44,2
2,note_on,57,52,5
2,note_on,55,49,151
2,note_on,67,58,2
2,note_on,45,0,2
2,note_on,57,0,5
2,note_on,55,0,151
2,note_on,67,0,2
2,note_on,65,53,1
2,note_on,53,46,3
2,note_on,64,53,153
2,note_on,65,0,4
2,note_on,52,45,1
2,note_on,53,0,2
2,note_on,64,0,153
2,note_on,50,44,2
2,note_on,62,51,2
2,note_on,52,0,1
2,note_on,61,51,156
2,note_on,50,0,1
2,note_on,62,0,2
2,note_on,49,44,0
2,note_on,61,0,157
2,note_on,70,57,3
2,note_on,49,0,0
2,note_on,58,48,6
2,note_on,70,0,154
2,note_on,69,58,3
2,note_on,57,49,1
2,note_on,58,0,2
2,note_on,67,57,151
2,note_on,69,0,6
2,note_on,57,0,1
2,note_on,55,48,2
2,note_on,67,0,151
2,note_on,65,55,3
2,note_on,53,47,2
2,note_on,55,0,4
2,note_on,65,0,154
2,note_on,64,53,1
2,note_on,52,46,0
2,note_on,53,0,1
2,note_on,52,0,159
2,note_on,64,0,0
2,note_on,64,53,1
2,note_on,76,64,0
2,note_on,74,62,158
2,note_on,76,0,2
2,note_on,64,0,0
2,note_on,62,51,2
2,note_on,73,59,154
2,note_on,74,0,2
2,note_on,61,50,1
2,note_on,62,0,3
2,note_on,73,0,154
2,note_on,61,0,3
2,note_on,70,60,4
2,note_on,58,51,1
2,note_on,69,59,151
2,note_on,70,0,8
2,note_on,58,0,1
2,note_on,57,50,0
2,note_on,69,0,151
2,note_on,70,53,3
2,note_on,58,46,5
2,note_on,57,0,1
2,note_on,70,0,154
2,note_on,55,48,2
2,note_on,67,57,1
2,note_on,58,0,2
2,note_on,70,52,156
2,note_on,55,0,1
2,note_on,58,45,0
2,note_on,67,0,1
2,note_on,53,48,153
2,note_on,70,0,5
2,note_on,58,0,1
2,note_on,65,57,1
2,note_on,53,0,153
2,note_on,65,0,7
2,note_on,55,52,1
2,note_on,67,52,1
2,note_on,64,57,152
2,note_on,55,0,7
2,note_on,67,0,1
2,note_on,52,48,0
2,note_on,64,0,152
2,note_on,55,52,1
2,note_on,67,52,1
2,note_on,52,0,6
2,note_on,55,0,153
2,note_on,67,0,1
2,note_on,50,48,1
2,note_on,62,57,0
2,note_on,52,45,158
2,note_on,62,0,2
2,note_on,50,0,0
2,note_on,64,52,5
2,note_on,52,0,153
2,note_on,49,48,4
2,note_on,64,0,3
2,note_on,61,58,1
2,note_on,52,46,153
2,note_on,64,55,2
2,note_on,49,0,1
2,note_on,61,0,4
2,note_on,46,49,152
2,note_on,52,0,1
2,note_on,64,0,2
2,note_on,58,58,5
2,note_on,61,51,151
2,note_on,46,0,1
2,note_on,49,42,0
2,note_on,58,0,8
2,note_on,45,49,151
2,note_on,61,0,0
2,note_on,49,0,1
2,note_on,57,60,6
2,note_on,45,0,153
2,note_on,46,45,3
2,note_on,58,52,0
2,note_on,57,0,4
2,note_on,46,0,156
2,note_on,58,0,0
2,note_on,43,50,3
2,note_on,55,60,3
2,note_on,46,46,153
2,note_on,58,53,1
2,note_on,43,0,3
2,note_on,55,0,3
2,note_on,41,51,150
2,note_on,46,0,3
2,note_on,53,61,0
2,note_on,58,0,1
2,note_on,41,0,156
2,note_on,43,47,1
2,note_on,53,0,2
2,note_on,55,55,7
2,note_on,43,0,151
2,note_on,52,61,4
2,note_on,40,52,5
2,note_on,55,0,0
2,note_on,55,56,154
2,note_on,43,47,0
2,note_on,52,0,1
2,note_on,40,0,5
2,note_on,55,0,154
2,note_on,43,0,0
2,note_on,50,63,3
2,note_on,38,52,1
2,note_on,40,48,157
2,note_on,50,0,2
2,note_on,38,0,1
2,note_on,52,57,1
2,note_on,40,0,156
2,note_on,37,51,1
2,note_on,49,62,2
2,note_on,52,0,1
2,note_on,52,57,151
2,note_on,40,47,4
2,note_on,37,0,2
2,note_on,49,0,2
2,note_on,52,0,152
2,note_on,34,51,0
2,note_on,40,0,4
2,note_on,46,62,5
2,note_on,34,0,151
2,note_on,37,48,1
2,note_on,49,57,4
2,note_on,46,0,4
2,note_on,37,0,152
2,note_on,33,53,2
2,note_on,49,0,2
2,note_on,45,63,0
2,note_on,46,58,157
2,note_on,33,0,1
2,note_on,34,49,1
2,note_on,45,0,1
2,note_on,32,53,155
2,note_on,46,0,2
2,note_on,44,63,1
2,note_on,34,0,1
2,note_on,32,0,156
2,note_on,44,0,3
2,note_on,45,60,6
2,note_on,33,49,1
2,note_on,31,55,150
2,note_on,43,66,1
2,note_on,45,0,8
2,note_on,33,0,1
2,note_on,31,0,150
2,note_on,43,0,1
2,note_on,45,60,5
2,note_on,33,49,2
2,note_on,42,64,156
2,note_on,45,0,2
2,note_on,33,0,2
2,note_on,30,55,0
2,note_on,45,59,156
2,note_on,42,0,0
2,note_on,33,48,3
2,note_on,30,0,1
2,note_on,45,0,156
2,note_on,29,57,0
2,note_on,33,0,3
2,note_on,41,66,0
2,note_on,45,60,154
2,note_on,29,0,3
2,note_on,41,0,3
2,note_on,33,51,0
2,note_on,45,0,154
2,note_on,40,66,1
2,note_on,33,0,5
2,note_on,28,57,3
2,note_on,33,51,151
2,note_on,40,0,1
2,note_on,45,60,3
2,note_on,28,0,5
2,note_on,33,0,151
2,note_on,45,0,4
2,note_on,27,57,0
2,note_on,39,68,0
2,note_on,39,0,240
2,note_on,27,0,0
2,note_on,45,63,0
2,note_on,33,52,0
2,note_on,33,0,240
2,note_on,45,0,0
2,note_on,36,68,0
2,note_on,24,59,0
2,note_on,24,0,240
2,note_on,36,0,0
2,note_on,33,55,0
2,note_on,45,63,0
2,note_on,45,0,240
2,note_on,33,0,0
2,note_on,37,68,0
2,note_on,25,58,0
2,note_on,25,0,240
2,note_on,37,0,0
2,note_on,33,53,0
2,note_on,45,63,0
2,note_on,45,0,180
2,note_on,33,0,0
2,note_on,45,35,60
2,note_on,38,35,0
2,note_on,50,42,0
2,note_on,52,27,180
2,note_on,56,32,0
2,note_on,56,0,60
2,note_on,52,0,0
2,note_on,57,40,0
2,note_on,53,34,0
2,note_on,53,0,30
2,note_on,57,0,0
2,note_on,64,26,150
2,note_on,61,31,0
2,note_on,61,0,60
2,note_on,50,0,0
2,note_on,45,0,0
2,note_on,38,0,0
2,note_on,64,0,0
2,note_on,62,35,0
2,note_on,65,35,0
2,note_on,65,0,30
2,note_on,62,0,0
2,note_on,50,42,210
2,note_on,45,35,0
2,note_on,38,35,0
2,note_on,61,32,180
2,note_on,56,27,0
2,note_on,56,0,60
2,note_on,61,0,0
2,note_on,62,40,0
2,note_on,57,34,0
2,note_on,57,0,30
2,note_on,62,0,0
2,note_on,64,26,150
2,note_on,68,31,0
2,note_on,68,0,60
2,note_on,38,0,0
2,note_on,50,0,0
2,note_on,45,0,0
2,note_on,64,0,0
2,note_on,65,29,0
2,note_on,69,35,0
2,note_on,69,0,30
2,note_on,65,0,0
2,note_on,43,35,210
2,note_on,50,42,0
2,note_on,38,35,0
2,note_on,57,32,180
2,note_on,54,27,0
2,note_on,54,0,60
2,note_on,57,0,0
2,note_on,58,42,0
2,note_on,55,35,0
2,note_on,55,0,30
2,note_on,58,0,0
2,note_on,66,32,150
2,note_on,63,27,0
2,note_on,63,0,60
2,note_on,38,0,0
2,note_on,43,0,0
2,note_on,50,0,0
2,note_on,66,0,0
2,note_on,67,35,0
2,note_on,64,29,0
2,note_on,64,0,30
2,note_on,67,0,0
2,note_on,43,35,210
2,note_on,38,35,0
2,note_on,50,42,0
2,note_on,57,32,180
2,note_on,54,27,0
2,note_on,54,0,60
2,note_on,57,0,0
2,note_on,55,34,0
2,note_on,58,41,0
2,note_on,58,0,30
2,note_on,55,0,0
2,note_on,66,31,150
2,note_on,63,26,0
2,note_on,63,0,60
2,note_on,50,0,0
2,note_on,43,0,0
2,note_on,38,0,0
2,note_on,66,0,0
2,note_on,64,29,0
2,note_on,67,35,0
2,note_on,67,0,30
2,note_on,64,0,0
2,note_on,37,34,210
2,note_on,49,41,0
2,note_on,51,28,180
2,note_on,54,33,0
2,note_on,54,0,60
2,note_on,51,0,0
2,note_on,55,42,0
2,note_on,52,35,0
2,note_on,52,0,30
2,note_on,55,0,0
2,note_on,63,33,150
2,note_on,60,28,0
2,note_on,60,0,60
2,note_on,37,0,0
2,note_on,49,0,0
2,note_on,63,0,0
2,note_on,61,35,0
2,note_on,64,42,0
2,note_on,64,0,30
2,note_on,61,0,0
2,note_on,33,34,210
2,note_on,45,41,0
2,note_on,54,32,180
2,note_on,51,27,0
2,note_on,51,0,60
2,note_on,54,0,0
2,note_on,55,41,0
2,note_on,52,34,0
2,note_on,52,0,30
2,note_on,55,0,0
2,note_on,60,27,150
2,note_on,63,32,0
2,note_on,63,0,60
2,note_on,33,0,0
2,note_on,45,0,0
2,note_on,60,0,0
2,note_on,64,35,0
2,note_on,61,42,0
2,note_on,61,0,30
2,note_on,64,0,0
2,note_on,38,41,210
2,note_on,50,41,0
2,note_on,56,31,180
2,note_on,52,26,0
2,note_on,52,0,60
2,note_on,56,0,0
2,note_on,53,29,0
2,note_on,57,35,0
2,note_on,57,0,30
2,note_on,53,0,0
2,note_on,64,32,150
2,note_on,61,27,0
2,note_on,61,0,60
2,note_on,38,0,0
2,note_on,50,0,0
2,note_on,64,0,0
2,note_on,62,29,0
2,note_on,65,35,0
2,note_on,65,0,30
2,note_on,62,0,0
2,note_on,50,41,210
2,note_on,45,34,0
2,note_on,38,34,0
2,note_on,52,27,180
2,note_on,56,32,0
2,note_on,56,0,60
2,note_on,52,0,0
2,note_on,53,29,0
2,note_on,57,35,0
2,note_on,57,0,30
2,note_on,53,0,0
2,note_on,64,33,150
2,note_on,61,28,0
2,note_on,61,0,60
2,note_on,38,0,0
2,note_on,50,0,0
2,note_on,45,0,0
2,note_on,64,0,0
2,note_on,65,35,0
2,note_on,62,29,0
2,note_on,62,0,30
2,note_on,65,0,0
2,note_on,48,42,210
2,note_on,36,35,0
2,note_on,51,27,180
2,note_on,54,32,0
2,note_on,54,0,60
2,note_on,51,0,0
2,note_on,55,40,0
2,note_on,52,34,0
2,note_on,52,0,30
2,note_on,55,0,0
2,note_on,59,31,150
2,note_on,63,26,0
2,note_on,63,0,60
2,note_on,48,0,0
2,note_on,36,0,0
2,note_on,59,0,0
2,note_on,60,35,0
2,note_on,64,35,0
2,note_on,64,0,30
2,note_on,60,0,0
2,note_on,40,36,210
2,note_on,52,43,0
2,note_on,54,27,180
2,note_on,59,32,0
2,note_on,59,0,60
2,note_on,54,0,0
2,note_on,60,41,0
2,note_on,55,35,0
2,note_on,55,0,30
2,note_on,60,0,0
2,note_on,66,32,150
2,note_on,63,27,0
2,note_on,63,0,60
2,note_on,40,0,0
2,note_on,52,0,0
2,note_on,66,0,0
2,note_on,67,36,0
2,note_on,64,30,0
2,note_on,64,0,30
2,note_on,67,0,0
2,note_on,48,37,210
2,note_on,53,44,0
2,note_on,41,37,0
2,note_on,59,34,180
2,note_on,56,28,0
2,note_on,56,0,60
2,note_on,59,0,0
2,note_on,57,37,0
2,note_on,60,44,0
2,note_on,60,0,30
2,note_on,57,0,0
2,note_on,68,34,150
2,note_on,64,29,0
2,note_on,64,0,60
2,note_on,41,0,0
2,note_on,48,0,0
2,note_on,53,0,0
2,note_on,68,0,0
2,note_on,65,31,0
2,note_on,69,37,0
2,note_on,69,0,30
2,note_on,65,0,0
2,note_on,53,45,210
2,note_on,41,38,0
2,note_on,56,29,180
2,note_on,59,35,0
2,note_on,59,0,60
2,note_on,56,0,0
2,note_on,60,45,0
2,note_on,57,37,0
2,note_on,57,0,30
2,note_on,60,0,0
2,note_on,64,28,150
2,note_on,68,34,0
2,note_on,68,0,60
2,note_on,53,0,0
2,note_on,41,0,0
2,note_on,64,0,0
2,note_on,65,32,0
2,note_on,69,38,0
2,note_on,69,0,30
2,note_on,65,0,0
2,note_on,52,47,210
2,note_on,40,39,0
2,note_on,55,30,180
2,note_on,58,36,0
2,note_on,58,0,60
2,note_on,55,0,0
2,note_on,59,45,0
2,note_on,56,38,0
2,note_on,56,0,30
2,note_on,59,0,0
2,note_on,67,29,150
2,note_on,63,35,0
2,note_on,63,0,60
2,note_on,52,0,0
2,note_on,40,0,0
2,note_on,67,0,0
2,note_on,64,39,0
2,note_on,68,39,0
2,note_on,68,0,30
2,note_on,64,0,0
2,note_on,44,40,210
2,note_on,56,48,0
2,note_on,58,31,180
2,note_on,63,37,0
2,note_on,63,0,60
2,note_on,58,0,0
2,note_on,59,39,0
2,note_on,64,46,0
2,note_on,64,0,30
2,note_on,59,0,0
2,note_on,67,30,150
2,note_on,70,36,0
2,note_on,70,0,60
2,note_on,44,0,0
2,note_on,56,0,0
2,note_on,67,0,0
2,note_on,71,40,0
2,note_on,68,33,0
2,note_on,68,0,30
2,note_on,71,0,0
2,note_on,45,41,210
2,note_on,57,49,0
2,note_on,52,41,0
2,note_on,63,38,180
2,note_on,60,32,0
2,note_on,60,0,60
2,note_on,63,0,0
2,note_on,64,49,0
2,note_on,61,41,0
2,note_on,61,0,30
2,note_on,64,0,0
2,note_on,72,38,150
2,note_on,68,32,0
2,note_on,68,0,60
2,note_on,52,0,0
2,note_on,45,0,0
2,note_on,57,0,0
2,note_on,72,0,0
2,note_on,73,42,0
2,note_on,69,34,0
2,note_on,69,0,30
2,note_on,73,0,0
2,note_on,52,42,210
2,note_on,45,42,0
2,note_on,57,50,0
2,note_on,63,39,180
2,note_on,60,32,0
2,note_on,60,0,60
2,note_on,63,0,0
2,note_on,64,50,0
2,note_on,61,41,0
2,note_on,61,0,30
2,note_on,64,0,0
2,note_on,72,38,150
2,note_on,68,31,0
2,note_on,68,0,60
2,note_on,57,0,0
2,note_on,52,0,0
2,note_on,45,0,0
2,note_on,72,0,0
2,note_on,69,35,0
2,note_on,73,43,0
2,note_on,73,0,30
2,note_on,69,0,0
2,note_on,45,47,90
2,note_on,57,54,0
2,note_on,57,0,120
2,note_on,45,0,0
2,note_on,58,52,0
2,note_on,52,43,0
2,note_on,46,43,0
2,note_on,66,40,180
2,note_on,63,33,0
2,note_on,63,0,60
2,note_on,66,0,0
2,note_on,64,42,0
2,note_on,67,50,0
2,note_on,67,0,30
2,note_on,64,0,0
2,note_on,75,32,150
2,note_on,72,38,0
2,note_on,72,0,60
2,note_on,46,0,0
2,note_on,58,0,0
2,note_on,52,0,0
2,note_on,75,0,0
2,note_on,73,43,0
2,note_on,76,43,0
2,note_on,76,0,30
2,note_on,73,0,0
2,note_on,57,52,210
2,note_on,45,43,0
2,note_on,66,40,180
2,note_on,63,33,0
2,note_on,63,0,60
2,note_on,66,0,0
2,note_on,64,42,0
2,note_on,67,50,0
2,note_on,67,0,30
2,note_on,64,0,0
2,note_on,75,38,150
2,note_on,72,32,0
2,note_on,72,0,60
2,note_on,57,0,0
2,note_on,45,0,0
2,note_on,75,0,0
2,note_on,76,43,0
2,note_on,73,36,0
2,note_on,73,0,30
2,note_on,76,0,0
2,note_on,45,38,90
2,note_on,57,47,0
2,note_on,57,0,120
2,note_on,45,0,0
2,note_on,46,43,0
2,note_on,58,52,0
2,note_on,51,43,0
2,note_on,62,33,180
2,note_on,65,40,0
2,note_on,65,0,60
2,note_on,62,0,0
2,note_on,63,43,0
2,note_on,66,52,0
2,note_on,66,0,30
2,note_on,63,0,0
2,note_on,74,40,150
2,note_on,71,33,0
2,note_on,71,0,60
2,note_on,51,0,0
2,note_on,46,0,0
2,note_on,58,0,0
2,note_on,74,0,0
2,note_on,75,43,0
2,note_on,72,36,0
2,note_on,72,0,30
2,note_on,75,0,0
2,note_on,45,43,210
2,note_on,57,52,0
2,note_on,65,40,180
2,note_on,62,33,0
2,note_on,62,0,60
2,note_on,65,0,0
2,note_on,63,42,0
2,note_on,66,51,0
2,note_on,66,0,30
2,note_on,63,0,0
2,note_on,74,38,150
2,note_on,71,32,0
2,note_on,71,0,60
2,note_on,45,0,0
2,note_on,57,0,0
2,note_on,74,0,0
2,note_on,75,43,0
2,note_on,72,36,0
2,note_on,72,0,30
2,note_on,75,0,0
2,note_on,45,33,90
2,note_on,57,47,0
2,note_on,57,0,120
2,note_on,45,0,0
2,note_on,59,51,0
2,note_on,50,42,0
2,note_on,47,42,0
2,note_on,64,41,180
2,note_on,61,35,0
2,note_on,61,0,60
2,note_on,64,0,0
2,note_on,62,43,0
2,note_on,65,52,0
2,note_on,65,0,30
2,note_on,62,0,0
2,note_on,70,41,150
2,note_on,67,35,0
2,note_on,67,0,60
2,note_on,47,0,0
2,note_on,59,0,0
2,note_on,50,0,0
2,note_on,70,0,0
2,note_on,68,43,0
2,note_on,71,52,0
2,note_on,71,0,30
2,note_on,68,0,0
2,note_on,40,42,210
2,note_on,52,51,0
2,note_on,47,42,0
2,note_on,58,40,180
2,note_on,55,33,0
2,note_on,55,0,60
2,note_on,58,0,0
2,note_on,56,42,0
2,note_on,59,51,0
2,note_on,59,0,30
2,note_on,56,0,0
2,note_on,67,40,150
2,note_on,63,33,0
2,note_on,63,0,60
2,note_on,47,0,0
2,note_on,40,0,0
2,note_on,52,0,0
2,note_on,67,0,0
2,note_on,64,52,0
2,note_on,68,43,0
2,note_on,68,0,30
2,note_on,64,0,0
2,note_on,45,51,210
2,note_on,52,51,0
2,note_on,57,51,0
2,note_on,63,38,180
2,note_on,60,32,0
2,note_on,60,0,60
2,note_on,63,0,0
2,note_on,61,36,0
2,note_on,64,43,0
2,note_on,64,0,30
2,note_on,61,0,0
2,note_on,72,40,150
2,note_on,68,33,0
2,note_on,68,0,60
2,note_on,57,0,0
2,note_on,45,0,0
2,note_on,52,0,0
2,note_on,72,0,0
2,note_on,69,36,0
2,note_on,73,43,0
2,note_on,73,0,30
2,note_on,69,0,0
2,note_on,45,42,210
2,note_on,57,51,0
2,note_on,52,42,0
2,note_on,63,40,180
2,note_on,60,33,0
2,note_on,60,0,60
2,note_on,63,0,0
2,note_on,61,36,0
2,note_on,64,43,0
2,note_on,64,0,30
2,note_on,61,0,0
2,note_on,68,35,150
2,note_on,72,41,0
2,note_on,72,0,60
2,note_on,52,0,0
2,note_on,45,0,0
2,note_on,57,0,0
2,note_on,68,0,0
2,note_on,73,43,0
2,note_on,69,36,0
2,note_on,69,0,30
2,note_on,73,0,0
2,note_on,45,47,90
2,note_on,33,41,0
2,note_on,33,0,120
2,note_on,45,0,0
2,note_on,46,48,0
2,note_on,34,40,0
2,note_on,40,40,0
2,note_on,51,31,180
2,note_on,54,36,0
2,note_on,54,0,60
2,note_on,51,0,0
2,note_on,55,46,0
2,note_on,52,39,0
2,note_on,52,0,30
2,note_on,55,0,0
2,note_on,63,29,150
2,note_on,60,35,0
2,note_on,60,0,60
2,note_on,40,0,0
2,note_on,46,0,0
2,note_on,34,0,0
2,note_on,63,0,0
2,note_on,64,40,0
2,note_on,61,40,0
2,note_on,61,0,30
2,note_on,64,0,0
2,note_on,45,48,210
2,note_on,33,40,0
2,note_on,51,31,180
2,note_on,54,36,0
2,note_on,54,0,60
2,note_on,51,0,0
2,note_on,52,39,0
2,note_on,55,46,0
2,note_on,55,0,30
2,note_on,52,0,0
2,note_on,60,29,150
2,note_on,63,35,0
2,note_on,63,0,60
2,note_on,45,0,0
2,note_on,33,0,0
2,note_on,60,0,0
2,note_on,61,33,0
2,note_on,64,40,0
2,note_on,64,0,30
2,note_on,61,0,0
2,note_on,33,35,90
2,note_on,45,43,0
2,note_on,45,0,120
2,note_on,33,0,0
2,note_on,46,48,0
2,note_on,34,40,0
2,note_on,39,40,0
2,note_on,50,31,180
2,note_on,53,36,0
2,note_on,53,0,60
2,note_on,50,0,0
2,note_on,51,40,0
2,note_on,54,48,0
2,note_on,54,0,30
2,note_on,51,0,0
2,note_on,62,36,150
2,note_on,59,31,0
2,note_on,59,0,60
2,note_on,39,0,0
2,note_on,46,0,0
2,note_on,34,0,0
2,note_on,62,0,0
2,note_on,63,40,0
2,note_on,60,33,0
2,note_on,60,0,30
2,note_on,63,0,0
2,note_on,45,48,210
2,note_on,33,40,0
2,note_on,53,36,180
2,note_on,50,31,0
2,note_on,50,0,60
2,note_on,53,0,0
2,note_on,54,47,0
2,note_on,51,39,0
2,note_on,51,0,30
2,note_on,54,0,0
2,note_on,62,35,150
2,note_on,59,29,0
2,note_on,59,0,60
2,note_on,45,0,0
2,note_on,33,0,0
2,note_on,62,0,0
2,note_on,60,33,0
2,note_on,63,40,0
2,note_on,63,0,30
2,note_on,60,0,0
2,note_on,33,31,90
2,note_on,45,43,0
2,note_on,45,0,120
2,note_on,33,0,0
2,note_on,47,47,0
2,note_on,35,39,0
2,note_on,38,39,0
2,note_on,55,37,180
2,note_on,52,32,0
2,note_on,52,0,60
2,note_on,55,0,0
2,note_on,56,48,0
2,note_on,53,40,0
2,note_on,53,0,30
2,note_on,56,0,0
2,note_on,61,32,150
2,note_on,64,37,0
2,note_on,64,0,60
2,note_on,38,0,0
2,note_on,47,0,0
2,note_on,35,0,0
2,note_on,61,0,0
2,note_on,65,48,0
2,note_on,62,40,0
2,note_on,62,0,30
2,note_on,65,0,0
2,note_on,34,39,210
2,note_on,38,39,0
2,note_on,46,47,0
2,note_on,51,36,180
2,note_on,51,0,60
2,note_on,52,47,0
2,note_on,52,0,30
2,note_on,55,36,150
2,note_on,55,0,60
2,note_on,34,0,0
2,note_on,38,0,0
2,note_on,46,0,0
2,note_on,56,40,0
2,note_on,56,0,30
2,note_on,33,47,210
2,note_on,45,47,0
2,note_on,40,47,0
2,note_on,40,0,240
2,note_on,45,0,0
2,note_on,33,0,0
2,note_on,46,43,0
2,note_on,55,51,0
2,note_on,55,0,120
2,note_on,46,0,0
2,note_on,49,44,120
2,note_on,58,53,0
2,note_on,58,0,120
2,note_on,49,0,0
2,note_on,61,55,120
2,note_on,52,47,0
2,note_on,52,0,120
2,note_on,61,0,0
2,note_on,64,58,120
2,note_on,55,49,0
2,note_on,55,0,120
2,note_on,64,0,0
2,note_on,50,59,120
2,note_on,62,72,0
2,note_on,62,0,120
2,note_on,50,0,0
2,note_on,57,75,120
2,note_on,45,63,0
2,note_on,45,0,120
2,note_on,57,0,0
2,note_on,67,66,120
2,note_on,58,55,0
2,note_on,58,0,120
2,note_on,67,0,0
2,note_on,61,57,120
2,note_on,70,69,0
2,note_on,70,0,120
2,note_on,61,0,0
2,note_on,73,69,120
2,note_on,64,60,0
2,note_on,64,0,120
2,note_on,73,0,0
2,note_on,67,64,120
2,note_on,76,75,0
2,note_on,76,0,120
2,note_on,67,0,0
2,note_on,62,72,120
2,note_on,74,86,0
2,note_on,74,0,120
2,note_on,62,0,0
2,note_on,69,71,120
2,note_on,57,59,0
2,note_on,57,0,120
2,note_on,69,0,0
2,note_on,62,86,240
2,note_on,50,72,0
2,note_on,50,0,120
2,note_on,62,0,0
2,note_on,57,64,0
2,note_on,45,53,0
2,note_on,45,0,120
2,note_on,57,0,0
2,note_on,38,72,120
2,note_on,50,86,0
2,note_on,50,0,120
2,note_on,38,0,0
2,note_on,45,65,120
2,note_on,33,55,0
2,note_on,33,0,120
2,note_on,45,0,0
2,note_on,50,86,120
2,note_on,38,72,0
2,note_on,38,0,120
2,note_on,50,0,0
2,note_on,45,66,120
2,note_on,33,55,0
2,note_on,33,0,120
2,note_on,45,0,0
2,note_on,62,86,240
2,note_on,50,72,0
2,note_on,50,0,120
2,note_on,62,0,0
2,note_on,45,56,0
2,note_on,57,67,0
2,note_on,57,0,120
2,note_on,45,0,0
2,note_on,50,86,120
2,note_on,38,72,0
2,note_on,38,0,120
2,note_on,50,0,0
2,note_on,45,68,120
2,note_on,33,57,0
2,note_on,33,0,120
2,note_on,45,0,0
2,note_on,50,86,120
2,note_on,38,72,0
2,note_on,38,0,120
2,note_on,50,0,0
2,note_on,33,58,120
2,note_on,45,69,0
2,note_on,45,0,120
2,note_on,33,0,0
2,note_on,56,40,120
2,note_on,44,34,0
2,note_on,44,0,120
2,note_on,56,0,0
2,note_on,45,34,0
2,note_on,57,40,0
2,note_on,57,0,120
2,note_on,45,0,0
2,note_on,46,36,0
2,note_on,58,45,0
2,note_on,58,0,120
2,note_on,46,0,0
2,note_on,45,35,120
2,note_on,57,42,0
2,note_on,57,0,120
2,note_on,45,0,0
2,note_on,46,35,0
2,note_on,58,44,0
2,note_on,58,0,120
2,note_on,46,0,0
2,note_on,59,47,0
2,note_on,47,38,0
2,note_on,47,0,120
2,note_on,59,0,0
2,note_on,46,37,120
2,note_on,58,46,0
2,note_on,58,0,120
2,note_on,46,0,0
2,note_on,47,38,0
2,note_on,59,46,0
2,note_on,59,0,120
2,note_on,47,0,0
2,note_on,48,40,0
2,note_on,60,49,0
2,note_on,60,0,120
2,note_on,48,0,0
2,note_on,45,37,120
2,note_on,57,46,0
2,note_on,57,0,120
2,note_on,45,0,0
2,note_on,58,46,0
2,note_on,46,37,0
2,note_on,46,0,120
2,note_on,58,0,0
2,note_on,59,48,0
2,note_on,47,39,0
2,note_on,47,0,120
2,note_on,59,0,0
2,note_on,46,38,120
2,note_on,58,46,0
2,note_on,58,0,120
2,note_on,46,0,0
2,note_on,59,47,0
2,note_on,47,38,0
2,note_on,47,0,120
2,note_on,59,0,0
2,note_on,60,50,0
2,note_on,48,42,0
2,note_on,48,0,120
2,note_on,60,0,0
2,note_on,47,40,120
2,note_on,59,49,0
2,note_on,59,0,120
2,note_on,47,0,0
2,note_on,48,42,0
2,note_on,60,49,0
2,note_on,60,0,120
2,note_on,48,0,0
2,note_on,49,46,0
2,note_on,61,53,0
2,note_on,61,0,120
2,note_on,49,0,0
2,note_on,58,51,120
2,note_on,46,42,0
2,note_on,46,0,120
2,note_on,58,0,0
2,note_on,59,51,0
2,note_on,47,42,0
2,note_on,47,0,120
2,note_on,59,0,0
2,note_on,48,46,0
2,note_on,60,55,0
2,note_on,60,0,120
2,note_on,48,0,0
2,note_on,59,52,120
2,note_on,47,45,0
2,note_on,47,0,120
2,note_on,59,0,0
2,note_on,48,46,0
2,note_on,60,53,0
2,note_on,60,0,120
2,note_on,48,0,0
2,note_on,61,57,0
2,note_on,49,48,0
2,note_on,49,0,120
2,note_on,61,0,0
2,note_on,48,46,120
2,note_on,60,55,0
2,note_on,60,0,120
2,note_on,48,0,0
2,note_on,49,46,0
2,note_on,61,55,0
2,note_on,61,0,120
2,note_on,49,0,0
2,note_on,38,49,0
2,note_on,50,58,0
2,note_on,50,0,180
2,note_on,38,0,0
2,note_on,62,29,0
2,note_on,53,29,0
2,note_on,56,35,0
2,note_on,56,0,60
2,note_on,53,0,0
2,note_on,62,0,0
2,note_on,57,42,0
2,note_on,54,35,0
2,note_on,54,0,180
2,note_on,57,0,0
2,note_on,50,49,60
2,note_on,38,49,0
2,note_on,38,0,180
2,note_on,50,0,0
2,note_on,56,35,0
2,note_on,62,29,0
2,note_on,53,29,0
2,note_on,53,0,60
2,note_on,62,0,0
2,note_on,56,0,0
2,note_on,54,35,0
2,note_on,57,42,0
2,note_on,57,0,180
2,note_on,54,0,0
2,note_on,38,49,60
2,note_on,50,58,0
2,note_on,50,0,180
2,note_on,38,0,0
2,note_on,57,35,0
2,note_on,54,29,0
2,note_on,54,0,60
2,note_on,57,0,0
2,note_on,55,35,0
2,note_on,58,42,0
2,note_on,58,0,180
2,note_on,55,0,0
2,note_on,50,58,60
2,note_on,38,49,0
2,note_on,38,0,180
2,note_on,50,0,0
2,note_on,57,35,0
2,note_on,54,29,0
2,note_on,54,0,60
2,note_on,57,0,0
2,note_on,55,35,0
2,note_on,58,42,0
2,note_on,58,0,180
2,note_on,55,0,0
2,note_on,49,57,60
2,note_on,37,48,0
2,note_on,37,0,180
2,note_on,49,0,0
2,note_on,51,29,0
2,note_on,54,35,0
2,note_on,54,0,60
2,note_on,51,0,0
2,note_on,55,42,0
2,note_on,52,35,0
2,note_on,52,0,180
2,note_on,55,0,0
2,note_on,33,47,60
2,note_on,45,56,0
2,note_on,45,0,180
2,note_on,33,0,0
2,note_on,54,35,0
2,note_on,51,29,0
2,note_on,51,0,60
2,note_on,54,0,0
2,note_on,52,35,0
2,note_on,55,42,0
2,note_on,55,0,180
2,note_on,52,0,0
2,note_on,50,57,60
2,note_on,38,48,0
2,note_on,38,0,180
2,note_on,50,0,0
2,note_on,53,29,0
2,note_on,62,29,0
2,note_on,56,35,0
2,note_on,56,0,60
2,note_on,62,0,0
2,note_on,53,0,0
2,note_on,57,42,0
2,note_on,54,35,0
2,note_on,54,0,180
2,note_on,57,0,0
2,note_on,38,46,60
2,note_on,50,55,0
2,note_on,50,0,180
2,note_on,38,0,0
2,note_on,56,35,0
2,note_on,53,29,0
2,note_on,53,0,60
2,note_on,56,0,0
2,note_on,57,42,0
2,note_on,54,35,0
2,note_on,54,0,180
2,note_on,57,0,0
2,note_on,37,49,60
2,note_on,49,58,0
2,note_on,49,0,180
2,note_on,37,0,0
2,note_on,61,29,0
2,note_on,55,35,0
2,note_on,52,29,0
2,note_on,52,0,60
2,note_on,55,0,0
2,note_on,61,0,0
2,note_on,53,35,0
2,note_on,56,42,0
2,note_on,56,0,180
2,note_on,53,0,0
2,note_on,41,49,60
2,note_on,53,49,0
2,note_on,53,0,180
2,note_on,41,0,0
2,note_on,61,29,0
2,note_on,55,35,0
2,note_on,55,0,60
2,note_on,61,0,0
2,note_on,56,42,0
2,note_on,56,0,180
2,note_on,54,58,60
2,note_on,42,49,0
2,note_on,42,0,180
2,note_on,54,0,0
2,note_on,56,29,0
2,note_on,61,35,0
2,note_on,61,0,60
2,note_on,56,0,0
2,note_on,57,42,0
2,note_on,57,0,180
2,note_on,57,58,60
2,note_on,45,49,0
2,note_on,45,0,180
2,note_on,57,0,0
2,note_on,61,35,0
2,note_on,56,29,0
2,note_on,56,0,60
2,note_on,61,0,0
2,note_on,57,42,0
2,note_on,57,0,180
2,note_on,40,49,60
2,note_on,52,58,0
2,note_on,52,0,180
2,note_on,40,0,0
2,note_on,64,29,0
2,note_on,55,29,0
2,note_on,58,35,0
2,note_on,58,0,60
2,note_on,55,0,0
2,note_on,64,0,0
2,note_on,59,42,0
2,note_on,56,35,0
2,note_on,56,0,180
2,note_on,59,0,0
2,note_on,44,49,60
2,note_on,56,49,0
2,note_on,56,0,180
2,note_on,44,0,0
2,note_on,58,35,0
2,note_on,64,29,0
2,note_on,64,0,60
2,note_on,58,0,0
2,note_on,59,42,0
2,note_on,59,0,180
2,note_on,57,58,60
2,note_on,45,49,0
2,note_on,45,0,180
2,note_on,57,0,0
2,note_on,64,35,0
2,note_on,60,29,0
2,note_on,60,0,60
2,note_on,64,0,0
2,note_on,61,42,0
2,note_on,61,0,180
2,note_on,61,58,60
2,note_on,49,49,0
2,note_on,49,0,180
2,note_on,61,0,0
2,note_on,64,35,0
2,note_on,60,29,0
2,note_on,60,0,60
2,note_on,64,0,0
2,note_on,61,42,0
2,note_on,57,54,120
2,note_on,45,42,0
2,note_on,61,0,60
2,note_on,45,0,60
2,note_on,57,0,0
2,note_on,57,46,0
2,note_on,51,39,0
2,note_on,45,39,0
2,note_on,45,0,180
2,note_on,51,0,0
2,note_on,57,0,0
2,note_on,65,28,0
2,note_on,62,23,0
2,note_on,62,0,60
2,note_on,65,0,0
2,note_on,66,33,0
2,note_on,63,28,0
2,note_on,63,0,180
2,note_on,66,0,0
2,note_on,51,39,60
2,note_on,57,39,0
2,note_on,45,39,0
2,note_on,45,0,180
2,note_on,57,0,0
2,note_on,51,0,0
2,note_on,65,23,0
2,note_on,62,28,0
2,note_on,62,0,60
2,note_on,65,0,0
2,note_on,66,33,0
2,note_on,63,28,0
2,note_on,57,40,120
2,note_on,51,35,0
2,note_on,45,35,0
2,note_on,63,0,60
2,note_on,66,0,0
2,note_on,51,0,60
2,note_on,57,0,0
2,note_on,45,0,0
2,note_on,45,39,0
2,note_on,52,39,0
2,note_on,57,46,0
2,note_on,57,0,180
2,note_on,52,0,0
2,note_on,45,0,0
2,note_on,63,28,0
2,note_on,60,23,0
2,note_on,60,0,60
2,note_on,63,0,0
2,note_on,64,33,0
2,note_on,61,28,0
2,note_on,61,0,180
2,note_on,64,0,0
2,note_on,45,39,60
2,note_on,49,39,0
2,note_on,57,46,0
2,note_on,57,0,180
2,note_on,49,0,0
2,note_on,45,0,0
2,note_on,63,28,0
2,note_on,60,23,0
2,note_on,60,0,60
2,note_on,63,0,0
2,note_on,64,33,0
2,note_on,61,28,0
2,note_on,61,0,180
2,note_on,64,0,0
2,note_on,45,40,60
2,note_on,51,40,0
2,note_on,57,48,0
2,note_on,57,0,180
2,note_on,51,0,0
2,note_on,45,0,0
2,note_on,62,24,0
2,note_on,65,29,0
2,note_on,65,0,60
2,note_on,62,0,0
2,note_on,66,34,0
2,note_on,63,29,0
2,note_on,63,0,180
2,note_on,66,0,0
2,note_on,45,40,60
2,note_on,51,40,0
2,note_on,57,40,0
2,note_on,57,0,180
2,note_on,51,0,0
2,note_on,45,0,0
2,note_on,65,24,0
2,note_on,62,29,0
2,note_on,62,0,60
2,note_on,65,0,0
2,note_on,66,34,0
2,note_on,63,29,0
2,note_on,45,36,120
2,note_on,51,36,0
2,note_on,57,42,0
2,note_on,63,0,60
2,note_on,66,0,0
2,note_on,51,0,60
2,note_on,45,0,0
2,note_on,57,0,0
2,note_on,46,40,0
2,note_on,53,40,0
2,note_on,58,48,0
2,note_on,58,0,180
2,note_on,53,0,0
2,note_on,46,0,0
2,note_on,61,24,0
2,note_on,64,29,0
2,note_on,64,0,60
2,note_on,61,0,0
2,note_on,65,34,0
2,note_on,62,29,0
2,note_on,62,0,180
2,note_on,65,0,0
2,note_on,58,48,60
2,note_on,50,40,0
2,note_on,46,40,0
2,note_on,46,0,180
2,note_on,50,0,0
2,note_on,58,0,0
2,note_on,61,24,0
2,note_on,64,29,0
2,note_on,64,0,60
2,note_on,61,0,0
2,note_on,62,29,0
2,note_on,65,34,0
2,note_on,65,0,180
2,note_on,62,0,0
2,note_on,52,42,60
2,note_on,58,50,0
2,note_on,46,42,0
2,note_on,46,0,180
2,note_on,58,0,0
2,note_on,52,0,0
2,note_on,63,25,0
2,note_on,66,30,0
2,note_on,66,0,60
2,note_on,63,0,0
2,note_on,67,36,0
2,note_on,64,30,0
2,note_on,64,0,180
2,note_on,67,0,0
2,note_on,52,43,60
2,note_on,58,43,0
2,note_on,46,43,0
2,note_on,46,0,180
2,note_on,58,0,0
2,note_on,52,0,0
2,note_on,66,26,0
2,note_on,63,31,0
2,note_on,63,0,60
2,note_on,66,0,0
2,note_on,64,31,0
2,note_on,67,37,0
2,note_on,46,39,120
2,note_on,58,46,0
2,note_on,52,39,0
2,note_on,67,0,60
2,note_on,64,0,0
2,note_on,58,0,60
2,note_on,46,0,0
2,note_on,52,0,0
2,note_on,59,53,0
2,note_on,47,44,0
2,note_on,54,44,0
2,note_on,54,0,180
2,note_on,47,0,0
2,note_on,59,0,0
2,note_on,62,26,0
2,note_on,65,32,0
2,note_on,65,0,60
2,note_on,62,0,0
2,note_on,63,32,0
2,note_on,66,38,0
2,note_on,66,0,180
2,note_on,63,0,0
2,note_on,59,46,60
2,note_on,47,46,0
2,note_on,47,0,180
2,note_on,59,0,0
2,note_on,64,33,0
2,note_on,67,27,0
2,note_on,67,0,60
2,note_on,64,0,0
2,note_on,65,33,0
2,note_on,68,39,0
2,note_on,59,49,120
2,note_on,47,42,0
2,note_on,68,0,60
2,note_on,65,0,0
2,note_on,59,0,60
2,note_on,47,0,0
2,note_on,48,47,0
2,note_on,60,56,0
2,note_on,60,0,180
2,note_on,48,0,0
2,note_on,63,28,0
2,note_on,66,34,0
2,note_on,66,0,60
2,note_on,63,0,0
2,note_on,67,40,0
2,note_on,64,34,0
2,note_on,64,0,180
2,note_on,67,0,0
2,note_on,61,48,60
2,note_on,49,48,0
2,note_on,49,0,180
2,note_on,61,0,0
2,note_on,69,29,0
2,note_on,66,35,0
2,note_on,66,0,60
2,note_on,69,0,0
2,note_on,70,41,0
2,note_on,67,35,0
2,note_on,49,44,120
2,note_on,61,52,0
2,note_on,67,0,60
2,note_on,70,0,0
2,note_on,49,0,60
2,note_on,61,0,0
2,note_on,62,59,0
2,note_on,50,50,0
2,note_on,50,0,180
2,note_on,62,0,0
2,note_on,68,38,0
2,note_on,64,32,0
2,note_on,64,0,60
2,note_on,68,0,0
2,note_on,69,45,0
2,note_on,65,38,0
2,note_on,65,0,180
2,note_on,69,0,0
2,note_on,57,53,60
2,note_on,45,45,0
2,note_on,45,0,180
2,note_on,57,0,0
2,note_on,61,33,0
2,note_on,64,39,0
2,note_on,64,0,60
2,note_on,61,0,0
2,note_on,62,39,0
2,note_on,65,47,0
2,note_on,65,0,180
2,note_on,62,0,0
2,note_on,53,59,60
2,note_on,41,50,0
2,note_on,41,0,180
2,note_on,53,0,0
2,note_on,61,38,0
2,note_on,56,32,0
2,note_on,56,0,60
2,note_on,61,0,0
2,note_on,57,38,0
2,note_on,62,45,0
2,note_on,62,0,180
2,note_on,57,0,0
2,note_on,38,45,60
2,note_on,50,53,0
2,note_on,50,0,180
2,note_on,38,0,0
2,note_on,52,33,0
2,note_on,56,39,0
2,note_on,56,0,60
2,note_on,52,0,0
2,note_on,53,39,0
2,note_on,57,47,0
2,note_on,57,0,180
2,note_on,53,0,0
2,note_on,46,50,60
2,note_on,58,59,0
2,note_on,58,0,180
2,note_on,46,0,0
2,note_on,64,38,0
2,note_on,61,32,0
2,note_on,61,0,60
2,note_on,64,0,0
2,note_on,65,45,0
2,note_on,62,38,0
2,note_on,62,0,180
2,note_on,65,0,0
2,note_on,53,53,60
2,note_on,41,45,0
2,note_on,41,0,180
2,note_on,53,0,0
2,note_on,57,33,0
2,note_on,61,39,0
2,note_on,61,0,60
2,note_on,57,0,0
2,note_on,62,47,0
2,note_on,58,39,0
2,note_on,58,0,180
2,note_on,62,0,0
2,note_on,50,59,60
2,note_on,38,50,0
2,note_on,38,0,180
2,note_on,50,0,0
2,note_on,57,38,0
2,note_on,52,32,0
2,note_on,52,0,60
2,note_on,57,0,0
2,note_on,53,38,0
2,note_on,58,45,0
2,note_on,58,0,180
2,note_on,53,0,0
2,note_on,34,45,60
2,note_on,46,53,0
2,note_on,46,0,180
2,note_on,34,0,0
2,note_on,49,33,0
2,note_on,52,39,0
2,note_on,52,0,60
2,note_on,49,0,0
2,note_on,50,39,0
2,note_on,53,47,0
2,note_on,53,0,180
2,note_on,50,0,0
2,note_on,51,59,60
2,note_on,39,50,0
2,note_on,39,0,180
2,note_on,51,0,0
2,note_on,54,28,0
2,note_on,57,34,0
2,note_on,57,0,60
2,note_on,54,0,0
2,note_on,55,34,0
2,note_on,58,40,0
2,note_on,58,0,180
2,note_on,55,0,0
2,note_on,46,53,60
2,note_on,34,45,0
2,note_on,34,0,180
2,note_on,46,0,0
2,note_on,57,35,0
2,note_on,54,29,0
2,note_on,54,0,60
2,note_on,57,0,0
2,note_on,58,42,0
2,note_on,55,35,0
2,note_on,55,0,180
2,note_on,58,0,0
2,note_on,39,50,60
2,note_on,51,59,0
2,note_on,51,0,180
2,note_on,39,0,0
2,note_on,57,34,0
2,note_on,54,28,0
2,note_on,54,0,60
2,note_on,57,0,0
2,note_on,58,40,0
2,note_on,55,34,0
2,note_on,55,0,180
2,note_on,58,0,0
2,note_on,46,53,60
2,note_on,34,45,0
2,note_on,34,0,180
2,note_on,46,0,0
2,note_on,57,35,0
2,note_on,54,29,0
2,note_on,54,0,60
2,note_on,57,0,0
2,note_on,58,42,0
2,note_on,55,35,0
2,note_on,55,0,180
2,note_on,58,0,0
2,note_on,45,59,60
2,note_on,33,50,0
2,note_on,33,0,180
2,note_on,45,0,0
2,note_on,56,38,0
2,note_on,52,32,0
2,note_on,52,0,60
2,note_on,56,0,0
2,note_on,53,38,0
2,note_on,57,45,0
2,note_on,57,0,180
2,note_on,53,0,0
2,note_on,29,45,60
2,note_on,41,53,0
2,note_on,41,0,180
2,note_on,29,0,0
2,note_on,52,39,0
2,note_on,52,0,60
2,note_on,53,47,0
2,note_on,53,0,180
2,note_on,28,50,60
2,note_on,40,59,0
2,note_on,40,0,180
2,note_on,28,0,0
2,note_on,52,45,60
2,note_on,50,38,0
2,note_on,46,38,0
2,note_on,46,0,180
2,note_on,50,0,0
2,note_on,52,0,0
2,note_on,33,45,60
2,note_on,45,53,0
2,note_on,45,0,180
2,note_on,33,0,0
2,note_on,55,47,60
2,note_on,45,38,0
2,note_on,49,38,0
2,note_on,52,38,0
2,note_on,52,0,180
2,note_on,55,0,0
2,note_on,45,0,0
2,note_on,49,0,0
2,note_on,53,67,60
2,note_on,50,56,0
2,note_on,38,56,0
2,note_on,45,56,0
2,note_on,57,67,0
2,note_on,57,0,120
2,note_on,53,0,0
2,note_on,50,0,120
2,note_on,38,0,0
2,note_on,45,0,0
2,note_on,38,58,600
2,note_on,50,69,0
2,note_on,50,0,90
2,note_on,38,0,0
2,note_on,39,66,0
2,note_on,42,66,10
2,note_on,45,66,10
2,note_on,51,78,10
2,note_on,39,0,810
2,note_on,42,0,10
2,note_on,45,0,10
2,note_on,51,0,10
2,note_on,50,68,0
2,note_on,38,57,0
2,note_on,38,0,90
2,note_on,50,0,0
2,note_on,41,65,0
2,note_on,44,65,10
2,note_on,47,65,10
2,note_on,53,77,10
2,note_on,41,0,810
2,note_on,44,0,10
2,note_on,47,0,10
2,note_on,53,0,10
2,note_on,50,67,0
2,note_on,38,56,0
2,note_on,38,0,90
2,note_on,50,0,0
2,note_on,46,65,0
2,note_on,50,65,10
2,note_on,55,65,10
2,note_on,58,77,10
2,note_on,46,0,210
2,note_on,50,0,10
2,note_on,55,0,10
2,note_on,58,0,10
2,note_on,58,67,120
2,note_on,46,56,0
2,note_on,46,0,120
2,note_on,58,0,0
2,note_on,57,77,0
2,note_on,45,65,0
2,note_on,45,0,240
2,note_on,57,0,0
2,note_on,55,67,120
2,note_on,43,56,0
2,note_on,43,0,90
2,note_on,55,0,0
2,note_on,38,66,0
2,note_on,42,66,10
2,note_on,45,66,10
2,note_on,50,78,10
2,note_on,38,0,690
2,note_on,42,0,10
2,note_on,45,0,10
2,note_on,50,0,10
2,note_on,50,68,120
2,note_on,38,57,0
2,note_on,38,0,90
2,note_on,50,0,0
2,note_on,39,66,0
2,note_on,42,66,10
2,note_on,45,66,10
2,note_on,51,78,10
2,note_on,39,0,810
2,note_on,42,0,10
2,note_on,45,0,10
2,note_on,51,0,10
2,note_on,50,68,0
2,note_on,38,57,0
2,note_on,38,0,90
2,note_on,50,0,0
2,note_on,35,65,0
2,note_on,41,65,10
2,note_on,44,65,10
2,note_on,47,77,10
2,note_on,35,0,810
2,note_on,41,0,10
2,note_on,44,0,10
2,note_on,47,0,10
2,note_on,38,56,0
2,note_on,50,67,0
2,note_on,50,0,120
2,note_on,38,0,0
2,note_on,40,65,0
2,note_on,34,65,0
2,note_on,46,77,0
2,note_on,37,65,0
2,note_on,37,0,240
2,note_on,40,0,0
2,note_on,34,0,0
2,note_on,46,0,0
2,note_on,46,67,120
2,note_on,34,56,0
2,note_on,34,0,120
2,note_on,46,0,0
2,note_on,31,65,0
2,note_on,43,77,0
2,note_on,40,65,0
2,note_on,37,65,0
2,note_on,37,0,240
2,note_on,31,0,0
2,note_on,43,0,0
2,note_on,40,0,0
2,note_on,43,67,120
2,note_on,31,56,0
2,note_on,31,0,120
2,note_on,43,0,0
2,note_on,57,67,0
2,note_on,53,67,0
2,note_on,38,56,0
2,note_on,45,56,0
2,note_on,50,56,0
2,note_on,50,0,120
2,note_on,38,0,0
2,note_on,57,0,0
2,note_on,53,0,0
2,note_on,45,0,0
2,note_on,76,60,120
2,note_on,67,59,0
2,note_on,76,0,80
2,note_on,75,60,0
2,note_on,75,0,80
2,note_on,74,60,0
2,note_on,74,0,80
2,note_on,67,0,0
2,note_on,73,60,0
2,note_on,64,63,0
2,note_on,73,0,80
2,note_on,72,60,0
2,note_on,72,0,80
2,note_on,71,60,0
2,note_on,71,0,80
2,note_on,64,0,0
2,note_on,70,60,0
2,note_on,61,58,0
2,note_on,70,0,80
2,note_on,69,60,0
2,note_on,69,0,80
2,note_on,68,60,0
2,note_on,68,0,80
2,note_on,61,0,0
2,note_on,67,63,0
2,note_on,58,53,0
2,note_on,58,0,120
2,note_on,67,0,0
2,note_on,55,63,120
2,note_on,43,53,0
2,note_on,43,0,120
2,note_on,55,0,0
2,note_on,52,57,0
2,note_on,49,48,0
2,note_on,49,0,120
2,note_on,52,0,0
2,note_on,57,63,0
2,note_on,45,53,0
2,note_on,45,0,120
2,note_on,57,0,0
2,note_on,49,49,0
2,note_on,52,58,0
2,note_on,52,0,120
2,note_on,49,0,0
2,note_on,46,53,0
2,note_on,58,63,0
2,note_on,58,0,120
2,note_on,46,0,0
2,note_on,52,48,0
2,note_on,55,57,0
2,note_on,55,0,120
2,note_on,52,0,0
2,note_on,57,64,0
2,note_on,54,64,0
2,note_on,62,64,0
2,note_on,50,64,0
2,note_on,50,0,120
2,note_on,57,0,0
2,note_on,54,0,0
2,note_on,62,0,0
2,note_on,64,54,120
2,note_on,55,53,0
2,note_on,64,0,80
2,note_on,63,54,0
2,note_on,63,0,80
2,note_on,62,54,0
2,note_on,62,0,80
2,note_on,55,0,0
2,note_on,52,56,0
2,note_on,61,54,0
2,note_on,61,0,80
2,note_on,60,54,0
2,note_on,60,0,80
2,note_on,59,54,0
2,note_on,59,0,80
2,note_on,52,0,0
2,note_on,49,52,0
2,note_on,58,54,0
2,note_on,58,0,80
2,note_on,57,54,0
2,note_on,57,0,80
2,note_on,56,54,0
2,note_on,56,0,80
2,note_on,49,0,0
2,note_on,55,56,0
2,note_on,46,47,0
2,note_on,46,0,120
2,note_on,55,0,0
2,note_on,43,61,120
2,note_on,31,51,0
2,note_on,31,0,120
2,note_on,43,0,0
2,note_on,40,56,0
2,note_on,37,47,0
2,note_on,37,0,120
2,note_on,40,0,0
2,note_on,33,51,0
2,note_on,45,61,0
2,note_on,45,0,120
2,note_on,33,0,0
2,note_on,37,48,0
2,note_on,40,57,0
2,note_on,40,0,120
2,note_on,37,0,0
2,note_on,46,61,0
2,note_on,34,51,0
2,note_on,34,0,120
2,note_on,46,0,0
2,note_on,40,47,0
2,note_on,43,56,0
2,note_on,43,0,120
2,note_on,40,0,0
2,note_on,38,62,0
2,note_on,50,62,0
2,note_on,42,62,0
2,note_on,45,62,0
2,note_on,45,0,120
2,note_on,38,0,0
2,note_on,50,0,0
2,note_on,42,0,0
2,note_on,49,46,120
2,note_on,55,55,0
2,note_on,46,46,0
2,note_on,43,46,0
2,note_on,43,0,90
2,note_on,49,0,0
2,note_on,55,0,0
2,note_on,46,0,0
2,note_on,46,46,30
2,note_on,43,46,0
2,note_on,49,46,0
2,note_on,55,55,0
2,note_on,55,0,90
2,note_on,46,0,0
2,note_on,43,0,0
2,note_on,49,0,0
2,note_on,50,54,30
2,note_on,62,64,0
2,note_on,54,54,0
2,note_on,57,54,0
2,note_on,57,0,120
2,note_on,50,0,0
2,note_on,62,0,0
2,note_on,54,0,0
2,note_on,49,49,120
2,note_on,55,58,0
2,note_on,46,49,0
2,note_on,43,49,0
2,note_on,43,0,90
2,note_on,49,0,0
2,note_on,55,0,0
2,note_on,46,0,0
2,note_on,46,49,30
2,note_on,43,49,0
2,note_on,49,49,0
2,note_on,55,58,0
2,note_on,55,0,90
2,note_on,46,0,0
2,note_on,43,0,0
2,note_on,49,0,0
2,note_on,38,57,30
2,note_on,50,68,0
2,note_on,42,57,0
2,note_on,45,57,0
2,note_on,45,0,120
2,note_on,38,0,0
2,note_on,50,0,0
2,note_on,42,0,0
2,note_on,55,60,120
2,note_on,43,51,0
2,note_on,49,51,0
2,note_on,46,51,0
2,note_on,46,0,90
2,note_on,55,0,0
2,note_on,43,0,0
2,note_on,49,0,0
2,note_on,43,49,30
2,note_on,55,58,0
2,note_on,46,49,0
2,note_on,49,49,0
2,note_on,49,0,90
2,note_on,43,0,0
2,note_on,55,0,0
2,note_on,46,0,0
2,note_on,50,56,30
2,note_on,54,56,0
2,note_on,62,66,0
2,note_on,57,56,0
2,note_on,57,0,120
2,note_on,50,0,0
2,note_on,54,0,0
2,note_on,62,0,0
2,note_on,46,50,120
2,note_on,49,50,0
2,note_on,55,59,0
2,note_on,43,50,0
2,note_on,43,0,90
2,note_on,46,0,0
2,note_on,49,0,0
2,note_on,55,0,0
2,note_on,49,50,30
2,note_on,55,59,0
2,note_on,46,50,0
2,note_on,43,50,0
2,note_on,43,0,90
2,note_on,49,0,0
2,note_on,55,0,0
2,note_on,46,0,0
2,note_on,38,57,30
2,note_on,50,68,0
2,note_on,42,57,0
2,note_on,45,57,0
2,note_on,45,0,120
2,note_on,38,0,0
2,note_on,50,0,0
2,note_on,42,0,0
2,note_on,40,60,120
2,note_on,31,51,0
2,note_on,37,51,0
2,note_on,43,60,0
2,note_on,43,0,90
2,note_on,40,0,0
2,note_on,31,0,0
2,note_on,37,0,0
2,note_on,40,60,30
2,note_on,43,60,0
2,note_on,37,51,0
2,note_on,31,51,0
2,note_on,31,0,90
2,note_on,40,0,0
2,note_on,43,0,0
2,note_on,37,0,0
2,note_on,38,59,30
2,note_on,42,59,0
2,note_on,45,59,0
2,note_on,50,71,0
2,note_on,50,0,120
2,note_on,38,0,0
2,note_on,42,0,0
2,note_on,45,0,0
2,note_on,31,52,120
2,note_on,37,52,0
2,note_on,40,52,0
2,note_on,43,62,0
2,note_on,43,0,90
2,note_on,31,0,0
2,note_on,37,0,0
2,note_on,40,0,0
2,note_on,31,52,30
2,note_on,43,62,0
2,note_on,40,52,0
2,note_on,37,52,0
2,note_on,37,0,90
2,note_on,31,0,0
2,note_on,43,0,0
2,note_on,40,0,0
2,note_on,45,62,30
2,note_on,38,62,0
2,note_on,50,74,0
2,note_on,42,62,0
2,note_on,42,0,240
2,note_on,45,0,0
2,note_on,38,0,0
2,note_on,50,0,0
2,note_on,40,53,0
2,note_on,37,53,0
2,note_on,43,63,0
2,note_on,31,53,0
2,note_on,31,0,240
2,note_on,40,0,0
2,note_on,37,0,0
2,note_on,43,0,0
2,note_on,31,53,240
2,note_on,40,53,0
2,note_on,37,53,0
2,note_on,43,63,0
2,note_on,43,0,240
2,note_on,31,0,0
2,note_on,40,0,0
2,note_on,37,0,0
2,note_on,31,53,240
2,note_on,43,63,0
2,note_on,37,53,0
2,note_on,40,53,0
2,note_on,40,0,240
2,note_on,31,0,0
2,note_on,43,0,0
2,note_on,37,0,0
2,note_on,41,52,0
2,note_on,38,52,0
2,note_on,50,62,0
2,note_on,44,52,0
2,note_on,44,0,240
2,note_on,41,0,0
2,note_on,38,0,0
2,note_on,50,0,0
2,note_on,42,52,0
2,note_on,38,52,0
2,note_on,51,62,0
2,note_on,45,52,0
2,note_on,45,0,240
2,note_on,42,0,0
2,note_on,38,0,0
2,note_on,51,0,0
2,note_on,46,51,0
2,note_on,38,51,0
2,note_on,52,61,0
2,note_on,43,51,0
2,note_on,43,0,240
2,note_on,46,0,0
2,note_on,38,0,0
2,note_on,52,0,0
2,note_on,47,51,0
2,note_on,38,51,0
2,note_on,44,51,0
2,note_on,53,61,0
2,note_on,53,0,240
2,note_on,47,0,0
2,note_on,38,0,0
2,note_on,44,0,0
2,note_on,54,61,0
2,note_on,48,51,0
2,note_on,38,51,0
2,note_on,45,51,0
2,note_on,45,0,240
2,note_on,54,0,0
2,note_on,48,0,0
2,note_on,38,0,0
2,note_on,38,51,0
2,note_on,46,51,0
2,note_on,55,61,0
2,note_on,49,51,0
2,note_on,49,0,240
2,note_on,38,0,0
2,note_on,46,0,0
2,note_on,55,0,0
2,note_on,38,47,480
2,note_on,47,47,0
2,note_on,56,56,0
2,note_on,56,0,480
2,note_on,47,0,0
2,note_on,38,0,0
2,note_on,38,42,3520
2,note_on,46,48,0
2,note_on,46,0,320
2,note_on,38,0,0
2,note_on,39,54,0
2,note_on,46,64,0
2,note_on,46,0,960
2,note_on,39,0,0
2,note_on,46,64,0
2,note_on,37,54,0
2,note_on,46,0,840
2,note_on,46,67,0
2,note_on,46,0,120
2,note_on,37,0,0
2,note_on,35,58,0
2,note_on,46,69,0
2,note_on,46,0,960
2,note_on,35,0,0
2,note_on,44,65,0
2,note_on,35,55,0
2,note_on,35,0,840
2,note_on,44,0,0
2,note_on,44,59,0
2,note_on,35,50,0
2,note_on,35,0,90
2,note_on,44,0,0
2,note_on,35,57,30
2,note_on,44,68,0
2,note_on,44,0,240
2,note_on,35,0,0
2,note_on,53,48,480
2,note_on,53,0,240
2,note_on,62,54,0
2,note_on,62,0,720
2,note_on,53,51,0
2,note_on,53,0,240
2,note_on,53,44,960
2,note_on,34,44,0
2,note_on,44,44,0
2,note_on,56,44,0
2,note_on,56,0,240
2,note_on,53,0,0
2,note_on,34,0,0
2,note_on,44,0,0
2,note_on,53,39,600
2,note_on,44,39,0
2,note_on,56,39,0
2,note_on,35,39,0
2,note_on,35,0,90
2,note_on,53,0,0
2,note_on,44,0,0
2,note_on,56,0,0
2,note_on,56,44,30
2,note_on,35,44,0
2,note_on,44,44,0
2,note_on,53,44,0
2,note_on,53,0,120
2,note_on,56,0,0
2,note_on,35,0,0
2,note_on,44,0,0
2,note_on,53,48,600
2,note_on,53,0,240
2,note_on,62,54,0
2,note_on,62,0,720
2,note_on,53,51,0
2,note_on,53,0,240
2,note_on,34,44,960
2,note_on,56,44,0
2,note_on,53,44,0
2,note_on,44,44,0
2,note_on,44,0,240
2,note_on,34,0,0
2,note_on,56,0,0
2,note_on,53,0,0
2,note_on,35,39,600
2,note_on,44,39,0
2,note_on,56,39,0
2,note_on,53,39,0
2,note_on,53,0,90
2,note_on,35,0,0
2,note_on,44,0,0
2,note_on,56,0,0
2,note_on,53,44,30
2,note_on,44,44,0
2,note_on,56,44,0
2,note_on,35,44,0
2,note_on,35,0,120
2,note_on,53,0,0
2,note_on,44,0,0
2,note_on,56,0,0
2,note_on,50,38,4440
2,note_on,50,0,240
2,note_on,59,44,0
2,note_on,59,0,720
2,note_on,44,37,0
2,note_on,44,0,240
2,note_on,53,37,0
2,note_on,53,0,1920
2,note_on,41,39,1080
2,note_on,53,46,0
2,note_on,52,49,120
2,note_on,40,41,0
2,note_on,53,0,12
2,note_on,41,0,0
2,note_on,38,43,108
2,note_on,50,51,0
2,note_on,52,0,12
2,note_on,40,0,0
2,note_on,37,45,108
2,note_on,49,54,0
2,note_on,38,0,12
2,note_on,50,0,0
2,note_on,48,56,108
2,note_on,36,47,0
2,note_on,37,0,12
2,note_on,49,0,0
2,note_on,35,50,108
2,note_on,47,59,0
2,note_on,48,0,12
2,note_on,36,0,0
2,note_on,34,51,108
2,note_on,46,61,0
2,note_on,35,0,12
2,note_on,47,0,0
2,note_on,33,56,108
2,note_on,45,66,0
2,note_on,34,0,12
2,note_on,46,0,0
2,note_on,66,56,828
2,note_on,62,47,0
2,note_on,57,47,0
2,note_on,57,0,45
2,note_on,66,0,0
2,note_on,62,0,0
2,note_on,66,56,15
2,note_on,62,47,0
2,note_on,57,47,0
2,note_on,57,0,45
2,note_on,66,0,0
2,note_on,62,0,0
2,note_on,66,63,15
2,note_on,62,53,0
2,note_on,57,53,0
2,note_on,33,0,480
2,note_on,45,0,0
2,note_on,62,0,240
2,note_on,66,0,0
2,note_on,57,0,0
2,note_on,33,59,120
2,note_on,45,59,0
2,note_on,45,0,120
2,note_on,33,0,0
2,note_on,35,54,0
2,note_on,47,64,0
2,note_on,66,54,840
2,note_on,62,45,0
2,note_on,59,45,0
2,note_on,54,45,0
2,note_on,54,0,45
2,note_on,62,0,0
2,note_on,66,0,0
2,note_on,59,0,0
2,note_on,66,54,15
2,note_on,62,45,0
2,note_on,59,45,0
2,note_on,54,45,0
2,note_on,54,0,45
2,note_on,62,0,0
2,note_on,66,0,0
2,note_on,59,0,0
2,note_on,66,61,15
2,note_on,62,51,0
2,note_on,59,51,0
2,note_on,54,51,0
2,note_on,47,0,480
2,note_on,35,0,0
2,note_on,59,0,240
2,note_on,62,0,0
2,note_on,54,0,0
2,note_on,66,0,0
2,note_on,35,62,120
2,note_on,47,62,0
2,note_on,47,0,120
2,note_on,35,0,0
2,note_on,30,51,0
2,note_on,42,60,0
2,note_on,66,56,360
2,note_on,61,47,0
2,note_on,58,47,0
2,note_on,54,47,0
2,note_on,54,0,45
2,note_on,61,0,0
2,note_on,66,0,0
2,note_on,58,0,0
2,note_on,66,57,15
2,note_on,61,48,0
2,note_on,58,48,0
2,note_on,54,48,0
2,note_on,54,0,45
2,note_on,61,0,0
2,note_on,66,0,0
2,note_on,58,0,0
2,note_on,66,63,15
2,note_on,61,53,0
2,note_on,58,53,0
2,note_on,54,53,0
2,note_on,54,0,240
2,note_on,61,0,0
2,note_on,66,0,0
2,note_on,58,0,0
2,note_on,30,0,240
2,note_on,42,0,0
2,note_on,33,55,0
2,note_on,45,66,0
2,note_on,69,59,360
2,note_on,64,50,0
2,note_on,61,50,0
2,note_on,57,50,0
2,note_on,57,0,45
2,note_on,64,0,0
2,note_on,69,0,0
2,note_on,61,0,0
2,note_on,69,59,15
2,note_on,64,50,0
2,note_on,61,50,0
2,note_on,57,50,0
2,note_on,57,0,45
2,note_on,64,0,0
2,note_on,69,0,0
2,note_on,61,0,0
2,note_on,69,65,15
2,note_on,64,55,0
2,note_on,61,55,0
2,note_on,57,55,0
2,note_on,57,0,240
2,note_on,45,0,0
2,note_on,69,0,0
2,note_on,33,0,0
2,note_on,61,0,0
2,note_on,64,0,0
2,note_on,26,56,120
2,note_on,33,56,0
2,note_on,38,66,0
2,note_on,38,0,90
2,note_on,33,0,0
2,note_on,26,0,0
2,note_on,26,51,30
2,note_on,33,51,0
2,note_on,38,73,0
2,note_on,57,56,840
2,note_on,62,56,0
2,note_on,66,56,0
2,note_on,69,67,0
2,note_on,69,0,90
2,note_on,62,0,0
2,note_on,57,0,0
2,note_on,66,0,0
2,note_on,57,66,30
2,note_on,62,66,0
2,note_on,66,66,0
2,note_on,69,78,0
2,note_on,69,0,240
2,note_on,62,0,0
2,note_on,57,0,0
2,note_on,66,0,0
2,note_on,74,70,120
2,note_on,69,59,0
2,note_on,66,59,0
2,note_on,62,59,0
2,note_on,62,0,90
2,note_on,69,0,0
2,note_on,74,0,0
2,note_on,66,0,0
2,note_on,74,79,30
2,note_on,69,67,0
2,note_on,66,67,0
2,note_on,62,67,0
2,note_on,62,0,240
2,note_on,69,0,0
2,note_on,74,0,0
2,note_on,66,0,0
2,note_on,66,71,120
2,note_on,62,60,0
2,note_on,54,60,0
2,note_on,54,0,90
2,note_on,66,0,0
2,note_on,62,0,0
2,note_on,33,0,30
2,note_on,26,0,0
2,note_on,38,0,0
2,note_on,66,80,0
2,note_on,62,68,0
2,note_on,54,68,0
2,note_on,54,0,240
2,note_on,62,0,0
2,note_on,66,0,0
2,note_on,69,70,120
2,note_on,66,59,0
2,note_on,62,59,0
2,note_on,57,59,0
2,note_on,57,0,90
2,note_on,69,0,0
2,note_on,66,0,0
2,note_on,62,0,0
2,note_on,69,80,30
2,note_on,66,68,0
2,note_on,62,68,0
2,note_on,57,68,0
2,note_on,57,0,240
2,note_on,69,0,0
2,note_on,66,0,0
2,note_on,62,0,0
2,note_on,62,72,120
2,note_on,57,61,0
2,note_on,54,61,0
2,note_on,50,61,0
2,note_on,50,0,90
2,note_on,62,0,0
2,note_on,57,0,0
2,note_on,54,0,0
2,note_on,62,79,30
2,note_on,57,67,0
2,note_on,54,67,0
2,note_on,50,67,0
2,note_on,50,0,240
2,note_on,62,0,0
2,note_on,57,0,0
2,note_on,54,0,0
2,note_on,66,62,120
2,note_on,62,62,0
2,note_on,54,62,0
2,note_on,54,0,90
2,note_on,62,0,0
2,note_on,66,0,0
2,note_on,54,68,30
2,note_on,62,68,0
2,note_on,66,68,0
2,note_on,66,0,240
2,note_on,62,0,0
2,note_on,54,0,0
2,note_on,45,56,120
2,note_on,50,56,0
2,note_on,54,56,0
2,note_on,57,67,0
2,note_on,57,0,90
2,note_on,45,0,0
2,note_on,50,0,0
2,note_on,54,0,0
2,note_on,45,66,30
2,note_on,50,66,0
2,note_on,54,66,0
2,note_on,57,78,0
2,note_on,57,0,240
2,note_on,45,0,0
2,note_on,50,0,0
2,note_on,54,0,0
2,note_on,62,70,120
2,note_on,57,59,0
2,note_on,54,59,0
2,note_on,50,59,0
2,note_on,50,0,90
2,note_on,62,0,0
2,note_on,57,0,0
2,note_on,54,0,0
2,note_on,62,79,30
2,note_on,57,67,0
2,note_on,54,67,0
2,note_on,50,67,0
2,note_on,50,0,240
2,note_on,62,0,0
2,note_on,57,0,0
2,note_on,54,0,0
2,note_on,54,71,120
2,note_on,50,60,0
2,note_on,42,60,0
2,note_on,42,0,90
2,note_on,50,0,0
2,note_on,54,0,0
2,note_on,54,80,30
2,note_on,50,68,0
2,note_on,42,68,0
2,note_on,42,0,240
2,note_on,50,0,0
2,note_on,54,0,0
2,note_on,57,70,120
2,note_on,54,59,0
2,note_on,50,59,0
2,note_on,45,59,0
2,note_on,45,0,90
2,note_on,57,0,0
2,note_on,54,0,0
2,note_on,50,0,0
2,note_on,57,80,30
2,note_on,54,68,0
2,note_on,50,68,0
2,note_on,45,68,0
2,note_on,45,0,240
2,note_on,57,0,0
2,note_on,54,0,0
2,note_on,50,0,0
2,note_on,50,72,120
2,note_on,45,61,0
2,note_on,42,61,0
2,note_on,38,61,0
2,note_on,38,0,90
2,note_on,50,0,0
2,note_on,45,0,0
2,note_on,42,0,0
2,note_on,50,79,30
2,note_on,45,67,0
2,note_on,42,67,0
2,note_on,38,67,0
2,note_on,38,0,240
2,note_on,50,0,0
2,note_on,45,0,0
2,note_on,42,0,0
2,note_on,54,74,120
2,note_on,50,62,0
2,note_on,42,62,0
2,note_on,42,0,90
2,note_on,50,0,0
2,note_on,54,0,0
2,note_on,42,68,30
2,note_on,50,68,0
2,note_on,54,81,0
2,note_on,54,0,240
2,note_on,50,0,0
2,note_on,42,0,0
2,note_on,33,56,120
2,note_on,38,56,0
2,note_on,42,56,0
2,note_on,45,67,0
2,note_on,45,0,90
2,note_on,33,0,0
2,note_on,38,0,0
2,note_on,42,0,0
2,note_on,33,66,30
2,note_on,38,66,0
2,note_on,42,66,0
2,note_on,45,78,0
2,note_on,45,0,240
2,note_on,33,0,0
2,note_on,38,0,0
2,note_on,42,0,0
2,note_on,50,70,120
2,note_on,45,59,0
2,note_on,42,59,0
2,note_on,38,59,0
2,note_on,38,0,90
2,note_on,50,0,0
2,note_on,45,0,0
2,note_on,42,0,0
2,note_on,50,79,30
2,note_on,45,67,0
2,note_on,42,67,0
2,note_on,38,67,0
2,note_on,38,0,240
2,note_on,50,0,0
2,note_on,45,0,0
2,note_on,42,0,0
2,note_on,42,71,120
2,note_on,38,60,0
2,note_on,30,60,0
2,note_on,30,0,90
2,note_on,38,0,0
2,note_on,42,0,0
2,note_on,42,80,30
2,note_on,38,68,0
2,note_on,30,68,0
2,note_on,30,0,240
2,note_on,38,0,0
2,note_on,42,0,0
2,note_on,45,70,120
2,note_on,42,59,0
2,note_on,38,59,0
2,note_on,33,59,0
2,note_on,33,0,90
2,note_on,45,0,0
2,note_on,42,0,0
2,note_on,38,0,0
2,note_on,45,80,30
2,note_on,42,68,0
2,note_on,38,68,0
2,note_on,33,68,0
2,note_on,33,0,240
2,note_on,45,0,0
2,note_on,42,0,0
2,note_on,38,0,0
2,note_on,26,51,120
2,note_on,33,51,0
2,note_on,38,61,0
2,note_on,38,0,90
2,note_on,33,0,0
2,note_on,26,0,0
2,note_on,26,56,30
2,note_on,33,56,0
2,note_on,38,67,0
2,note_on,38,0,216
2,note_on,33,0,0
2,note_on,26,0,0
2,note_on,26,51,24
2,note_on,34,51,0
2,note_on,38,61,0
2,note_on,38,0,216
2,note_on,34,0,0
2,note_on,26,0,0
2,note_on,26,56,24
2,note_on,33,56,0
2,note_on,38,67,0
2,note_on,38,0,216
2,note_on,33,0,0
2,note_on,26,0,0
2,note_on,26,51,24
2,note_on,34,51,0
2,note_on,38,61,0
2,note_on,38,0,216
2,note_on,34,0,0
2,note_on,26,0,0
2,note_on,26,56,24
2,note_on,33,56,0
2,note_on,38,67,0
2,note_on,38,0,216
2,note_on,33,0,0
2,note_on,26,0,0
2,note_on,26,51,24
2,note_on,34,51,0
2,note_on,38,61,0
2,note_on,38,0,216
2,note_on,34,0,0
2,note_on,26,0,0
2,note_on,26,56,24
2,note_on,33,56,0
2,note_on,38,67,0
2,note_on,38,0,216
2,note_on,33,0,0
2,note_on,26,0,0
2,note_on,26,51,24
2,note_on,34,51,0
2,note_on,38,61,0
2,note_on,38,0,216
2,note_on,34,0,0
2,note_on,26,0,0
2,note_on,26,56,24
2,note_on,33,56,0
2,note_on,38,67,0
2,note_on,38,0,180
2,note_on,33,0,0
2,note_on,26,0,0
2,note_on,26,51,60
2,note_on,34,51,0
2,note_on,38,61,0
2,note_on,38,0,180
2,note_on,34,0,0
2,note_on,26,0,0
2,note_on,26,56,60
2,note_on,33,56,0
2,note_on,38,67,0
2,note_on,38,0,180
2,note_on,33,0,0
2,note_on,26,0,0
2,note_on,26,51,60
2,note_on,34,51,0
2,note_on,38,61,0
2,note_on,38,0,180
2,note_on,34,0,0
2,note_on,26,0,0
2,note_on,26,53,60
2,note_on,33,53,0
2,note_on,38,63,0
2,note_on,38,0,480
2,note_on,33,0,0
2,note_on,26,0,0
2,note_on,42,60,0
2,note_on,38,60,0
2,note_on,45,60,0
2,note_on,50,71,0
2,note_on,50,0,480
2,note_on,42,0,0
2,note_on,38,0,0
2,note_on,45,0,0
2,note_on,54,62,0
2,note_on,50,62,0
2,note_on,57,62,0
2,note_on,62,74,0
2,note_on,62,0,480
2,note_on,54,0,0
2,note_on,50,0,0
2,note_on,57,0,0
2,note_on,66,64,0
2,note_on,62,64,0
2,note_on,69,64,0
2,note_on,74,77,0
2,note_on,74,0,480
2,note_on,66,0,0
2,note_on,62,0,0
2,note_on,69,0,0
2,note_on,26,81,0
2,note_on,38,81,0
2,note_on,50,96,0
2,note_on,50,0,1920
2,note_on,38,0,0
2,note_on,26,0,0
