Track,Message Type,Note,Velocity,Time
1,note_on,65,37,240
1,note_on,66,37,60
1,note_on,65,0,12
1,note_on,65,37,48
1,note_on,66,0,12
1,note_on,67,38,48
1,note_on,65,0,12
1,note_on,68,38,48
1,note_on,67,0,12
1,note_on,69,38,48
1,note_on,68,0,12
1,note_on,68,39,48
1,note_on,69,0,12
1,note_on,70,39,48
1,note_on,68,0,12
1,note_on,71,39,48
1,note_on,70,0,12
1,note_on,72,41,48
1,note_on,71,0,12
1,note_on,71,41,48
1,note_on,72,0,12
1,note_on,73,41,48
1,note_on,71,0,12
1,note_on,74,42,48
1,note_on,73,0,12
1,note_on,75,42,48
1,note_on,74,0,12
1,note_on,74,42,48
1,note_on,75,0,12
1,note_on,76,43,48
1,note_on,74,0,12
1,note_on,77,43,48
1,note_on,76,0,12
1,note_on,78,43,48
1,note_on,77,0,12
1,note_on,77,44,48
1,note_on,78,0,12
1,note_on,79,44,48
1,note_on,77,0,12
1,note_on,80,44,48
1,note_on,79,0,12
1,note_on,81,45,48
1,note_on,80,0,12
1,note_on,80,45,48
1,note_on,81,0,12
1,note_on,82,45,48
1,note_on,80,0,12
1,note_on,83,45,48
1,note_on,82,0,12
1,note_on,84,45,48
1,note_on,83,0,12
1,note_on,83,45,48
1,note_on,84,0,12
1,note_on,86,46,48
1,note_on,83,0,12
1,note_on,84,46,48
1,note_on,86,0,12
1,note_on,85,46,48
1,note_on,84,0,12
1,note_on,84,48,48
1,note_on,85,0,12
1,note_on,86,48,48
1,note_on,84,0,12
1,note_on,87,48,48
1,note_on,86,0,12
1,note_on,89,49,48
1,note_on,87,0,12
1,note_on,87,49,48
1,note_on,89,0,12
1,note_on,90,49,48
1,note_on,87,0,12
1,note_on,91,50,48
1,note_on,90,0,12
1,note_on,92,50,48
1,note_on,91,0,12
1,note_on,91,50,48
1,note_on,92,0,12
1,note_on,95,51,48
1,note_on,91,0,12
1,note_on,96,51,48
1,note_on,95,0,12
1,note_on,97,51,48
1,note_on,96,0,12
1,note_on,96,52,48
1,note_on,97,0,12
1,note_on,98,52,48
1,note_on,96,0,12
1,note_on,99,54,48
1,note_on,98,0,12
1,note_on,99,0,48
1,note_on,98,54,0
1,note_on,98,0,60
1,note_on,99,53,0
1,note_on,99,0,60
1,note_on,97,53,0
1,note_on,97,0,60
1,note_on,96,52,0
1,note_on,96,0,60
1,note_on,95,52,0
1,note_on,95,0,60
1,note_on,96,51,0
1,note_on,96,0,60
1,note_on,94,51,0
1,note_on,94,0,60
1,note_on,93,50,0
1,note_on,93,0,60
1,note_on,92,50,0
1,note_on,92,0,60
1,note_on,93,49,0
1,note_on,93,0,60
1,note_on,91,49,0
1,note_on,91,0,60
1,note_on,90,48,0
1,note_on,90,0,60
1,note_on,89,48,0
1,note_on,89,0,60
1,note_on,90,46,0
1,note_on,90,0,60
1,note_on,88,45,0
1,note_on,88,0,60
1,note_on,87,44,0
1,note_on,87,0,60
1,note_on,86,44,0
1,note_on,86,0,60
1,note_on,87,44,0
1,note_on,87,0,60
1,note_on,85,43,0
1,note_on,85,0,60
1,note_on,84,43,0
1,note_on,84,0,60
1,note_on,83,43,0
1,note_on,83,0,60
1,note_on,84,42,0
1,note_on,84,0,60
1,note_on,82,42,0
1,note_on,82,0,60
1,note_on,81,41,0
1,note_on,81,0,60
1,note_on,80,41,0
1,note_on,80,0,60
1,note_on,81,41,0
1,note_on,81,0,60
1,note_on,79,39,0
1,note_on,79,0,60
1,note_on,78,39,0
1,note_on,78,0,60
1,note_on,77,38,0
1,note_on,77,0,60
1,note_on,78,38,0
1,note_on,78,0,60
1,note_on,75,37,0
1,note_on,75,0,60
1,note_on,74,37,0
1,note_on,74,0,60
1,note_on,73,37,0
1,note_on,73,0,60
1,note_on,74,36,0
1,note_on,74,0,60
1,note_on,72,36,0
1,note_on,72,0,60
1,note_on,70,36,0
1,note_on,70,0,60
1,note_on,69,36,0
1,note_on,69,0,60
1,note_on,70,36,0
1,note_on,70,0,60
1,note_on,68,35,0
1,note_on,68,0,60
1,note_on,67,35,0
1,note_on,67,0,60
1,note_on,66,33,0
1,note_on,66,0,60
1,note_on,67,33,0
1,note_on,67,0,60
1,note_on,65,33,0
1,note_on,65,0,60
1,note_on,73,32,0
1,note_on,73,0,60
1,note_on,70,32,0
1,note_on,70,0,60
1,note_on,67,31,0
1,note_on,67,0,60
1,note_on,65,31,0
1,note_on,65,0,60
1,note_on,64,38,0
1,note_on,64,0,240
1,note_on,97,43,240
1,note_on,97,0,60
1,note_on,94,43,0
1,note_on,94,0,60
1,note_on,90,42,0
1,note_on,90,0,60
1,note_on,87,41,0
1,note_on,87,0,60
1,note_on,91,41,0
1,note_on,91,0,60
1,note_on,88,39,0
1,note_on,88,0,60
1,note_on,84,39,0
1,note_on,84,0,60
1,note_on,81,38,0
1,note_on,81,0,60
1,note_on,85,37,0
1,note_on,85,0,60
1,note_on,82,36,0
1,note_on,82,0,60
1,note_on,78,36,0
1,note_on,78,0,60
1,note_on,75,36,0
1,note_on,75,0,60
1,note_on,79,35,0
1,note_on,79,0,60
1,note_on,76,35,0
1,note_on,76,0,60
1,note_on,72,33,0
1,note_on,72,0,60
1,note_on,69,32,0
1,note_on,69,0,60
1,note_on,73,32,0
1,note_on,73,0,60
1,note_on,70,31,0
1,note_on,70,0,60
1,note_on,66,31,0
1,note_on,66,0,60
1,note_on,64,30,0
1,note_on,64,0,60
1,note_on,64,30,0
1,note_on,67,30,0
1,note_on,67,0,120
1,note_on,64,0,0
1,note_on,85,39,240
1,note_on,76,33,0
1,note_on,73,33,0
1,note_on,73,0,60
1,note_on,76,0,0
1,note_on,85,0,0
1,note_on,84,35,60
1,note_on,73,28,0
1,note_on,76,28,0
1,note_on,76,0,60
1,note_on,73,0,0
1,note_on,84,0,0
1,note_on,83,37,60
1,note_on,76,31,0
1,note_on,73,31,0
1,note_on,73,0,60
1,note_on,76,0,0
1,note_on,83,0,0
1,note_on,73,28,60
1,note_on,82,33,0
1,note_on,76,28,0
1,note_on,76,0,60
1,note_on,82,0,0
1,note_on,73,0,0
1,note_on,76,32,60
1,note_on,73,32,0
1,note_on,85,38,0
1,note_on,85,0,60
1,note_on,73,0,0
1,note_on,76,0,0
1,note_on,73,35,60
1,note_on,84,42,0
1,note_on,76,35,0
1,note_on,84,0,60
1,note_on,83,41,0
1,note_on,83,0,60
1,note_on,76,0,0
1,note_on,73,0,0
1,note_on,82,39,0
1,note_on,82,0,60
1,note_on,99,43,300
1,note_on,99,0,60
1,note_on,96,43,0
1,note_on,96,0,60
1,note_on,92,42,0
1,note_on,92,0,60
1,note_on,89,41,0
1,note_on,89,0,60
1,note_on,93,41,0
1,note_on,93,0,60
1,note_on,90,39,0
1,note_on,90,0,60
1,note_on,86,39,0
1,note_on,86,0,60
1,note_on,83,38,0
1,note_on,83,0,60
1,note_on,87,37,0
1,note_on,87,0,60
1,note_on,84,36,0
1,note_on,84,0,60
1,note_on,80,36,0
1,note_on,80,0,60
1,note_on,77,36,0
1,note_on,77,0,60
1,note_on,81,35,0
1,note_on,81,0,60
1,note_on,78,35,0
1,note_on,78,0,60
1,note_on,74,33,0
1,note_on,74,0,60
1,note_on,71,32,0
1,note_on,71,0,60
1,note_on,75,32,0
1,note_on,75,0,60
1,note_on,72,31,0
1,note_on,72,0,60
1,note_on,68,31,0
1,note_on,68,0,60
1,note_on,65,30,0
1,note_on,65,0,60
1,note_on,66,30,0
1,note_on,69,30,0
1,note_on,69,0,120
1,note_on,66,0,0
1,note_on,90,46,480
1,note_on,81,39,0
1,note_on,78,39,0
1,note_on,78,0,60
1,note_on,81,0,0
1,note_on,90,0,0
1,note_on,89,41,60
1,note_on,81,33,0
1,note_on,78,33,0
1,note_on,78,0,60
1,note_on,81,0,0
1,note_on,89,0,0
1,note_on,78,37,60
1,note_on,81,37,0
1,note_on,88,45,0
1,note_on,88,0,60
1,note_on,81,0,0
1,note_on,78,0,0
1,note_on,78,33,60
1,note_on,87,39,0
1,note_on,81,33,0
1,note_on,81,0,60
1,note_on,87,0,0
1,note_on,78,0,0
1,note_on,81,38,60
1,note_on,90,45,0
1,note_on,78,38,0
1,note_on,78,0,60
1,note_on,90,0,0
1,note_on,81,0,0
1,note_on,89,50,60
1,note_on,78,41,0
1,note_on,81,41,0
1,note_on,89,0,60
1,note_on,88,48,0
1,note_on,88,0,60
1,note_on,81,0,0
1,note_on,78,0,0
1,note_on,87,43,0
1,note_on,87,0,60
1,note_on,87,38,180
1,note_on,75,31,0
1,note_on,78,31,0
1,note_on,78,0,60
1,note_on,75,0,0
1,note_on,87,0,0
1,note_on,86,33,60
1,note_on,75,27,0
1,note_on,78,27,0
1,note_on,78,0,60
1,note_on,75,0,0
1,note_on,86,0,0
1,note_on,85,36,60
1,note_on,75,29,0
1,note_on,78,29,0
1,note_on,78,0,60
1,note_on,75,0,0
1,note_on,85,0,0
1,note_on,78,27,60
1,note_on,84,31,0
1,note_on,75,27,0
1,note_on,75,0,60
1,note_on,84,0,0
1,note_on,78,0,0
1,note_on,75,30,60
1,note_on,78,30,0
1,note_on,87,37,0
1,note_on,87,0,60
1,note_on,78,0,0
1,note_on,75,0,0
1,note_on,86,39,60
1,note_on,75,33,0
1,note_on,78,33,0
1,note_on,86,0,60
1,note_on,85,38,0
1,note_on,85,0,60
1,note_on,78,0,0
1,note_on,75,0,0
1,note_on,84,37,0
1,note_on,84,0,60
1,note_on,84,36,180
1,note_on,75,29,0
1,note_on,72,29,0
1,note_on,72,0,60
1,note_on,75,0,0
1,note_on,84,0,0
1,note_on,83,38,60
1,note_on,72,32,0
1,note_on,75,32,0
1,note_on,83,0,60
1,note_on,82,37,0
1,note_on,82,0,60
1,note_on,75,0,0
1,note_on,72,0,0
1,note_on,81,37,0
1,note_on,81,0,60
1,note_on,75,28,180
1,note_on,72,28,0
1,note_on,81,35,0
1,note_on,81,0,60
1,note_on,72,0,0
1,note_on,75,0,0
1,note_on,80,36,60
1,note_on,75,30,0
1,note_on,72,30,0
1,note_on,80,0,60
1,note_on,79,36,0
1,note_on,79,0,60
1,note_on,72,0,0
1,note_on,75,0,0
1,note_on,78,35,0
1,note_on,78,0,60
1,note_on,77,36,180
1,note_on,72,28,0
1,note_on,72,0,60
1,note_on,77,0,0
1,note_on,75,24,60
1,note_on,78,30,0
1,note_on,78,0,60
1,note_on,75,0,0
1,note_on,72,28,60
1,note_on,77,36,0
1,note_on,77,0,60
1,note_on,72,0,0
1,note_on,75,24,60
1,note_on,79,31,0
1,note_on,79,0,60
1,note_on,75,0,0
1,note_on,77,36,60
1,note_on,72,28,0
1,note_on,72,0,60
1,note_on,77,0,0
1,note_on,75,24,60
1,note_on,78,30,0
1,note_on,78,0,60
1,note_on,75,0,0
1,note_on,77,36,60
1,note_on,72,28,0
1,note_on,72,0,60
1,note_on,77,0,0
1,note_on,79,32,60
1,note_on,79,0,40
1,note_on,77,36,40
1,note_on,77,0,40
1,note_on,78,30,40
1,note_on,78,0,40
1,note_on,77,36,40
1,note_on,77,0,40
1,note_on,79,29,40
1,note_on,79,0,40
1,note_on,77,36,40
1,note_on,77,0,40
1,note_on,78,32,40
1,note_on,78,0,40
1,note_on,77,36,40
1,note_on,77,0,40
1,note_on,79,30,40
1,note_on,79,0,40
1,note_on,77,36,40
1,note_on,77,0,60
1,note_on,78,31,0
1,note_on,78,0,60
1,note_on,77,36,0
1,note_on,77,0,60
1,note_on,79,31,0
1,note_on,79,0,60
1,note_on,77,36,0
1,note_on,77,0,60
1,note_on,78,31,0
1,note_on,78,0,60
1,note_on,77,36,0
1,note_on,77,0,60
1,note_on,79,31,0
1,note_on,79,0,60
1,note_on,77,36,0
1,note_on,77,0,60
1,note_on,78,31,0
1,note_on,78,0,60
1,note_on,77,36,0
1,note_on,77,0,60
1,note_on,79,30,0
1,note_on,79,0,60
1,note_on,77,36,0
1,note_on,77,0,60
1,note_on,78,31,0
1,note_on,78,0,60
1,note_on,77,36,0
1,note_on,77,0,60
1,note_on,79,31,0
1,note_on,79,0,60
1,note_on,77,36,0
1,note_on,77,0,60
1,note_on,78,31,0
1,note_on,78,0,60
1,note_on,77,36,0
1,note_on,77,0,60
1,note_on,79,32,0
1,note_on,79,0,60
1,note_on,77,36,0
1,note_on,78,32,60
1,note_on,77,0,10
1,note_on,77,36,50
1,note_on,78,0,10
1,note_on,79,31,50
1,note_on,77,0,10
1,note_on,79,0,50
1,note_on,77,36,0
1,note_on,69,29,0
1,note_on,69,0,60
1,note_on,77,0,0
1,note_on,72,27,0
1,note_on,78,32,0
1,note_on,78,0,60
1,note_on,72,0,0
1,note_on,77,36,0
1,note_on,69,29,0
1,note_on,69,0,60
1,note_on,77,0,0
1,note_on,79,31,0
1,note_on,72,26,0
1,note_on,72,0,60
1,note_on,79,0,0
1,note_on,70,29,0
1,note_on,77,36,0
1,note_on,77,0,60
1,note_on,70,0,0
1,note_on,78,32,0
1,note_on,74,27,0
1,note_on,74,0,60
1,note_on,78,0,0
1,note_on,70,29,0
1,note_on,77,36,0
1,note_on,77,0,60
1,note_on,70,0,0
1,note_on,79,31,0
1,note_on,74,26,0
1,note_on,74,0,60
1,note_on,79,0,0
1,note_on,69,29,0
1,note_on,77,36,0
1,note_on,77,0,60
1,note_on,69,0,0
1,note_on,75,27,0
1,note_on,78,32,0
1,note_on,78,0,60
1,note_on,75,0,0
1,note_on,77,36,0
1,note_on,69,29,0
1,note_on,69,0,60
1,note_on,77,0,0
1,note_on,75,26,0
1,note_on,79,31,0
1,note_on,79,0,60
1,note_on,75,0,0
1,note_on,70,29,0
1,note_on,77,36,0
1,note_on,77,0,60
1,note_on,70,0,0
1,note_on,78,32,0
1,note_on,74,27,0
1,note_on,74,0,30
1,note_on,78,0,0
1,note_on,78,42,30
1,note_on,70,42,0
1,note_on,70,0,60
1,note_on,78,0,0
1,note_on,74,36,0
1,note_on,79,36,0
1,note_on,79,0,30
1,note_on,74,0,0
1,note_on,80,45,30
1,note_on,74,37,0
1,note_on,74,0,60
1,note_on,80,0,0
1,note_on,81,38,0
1,note_on,77,32,0
1,note_on,77,0,60
1,note_on,81,0,0
1,note_on,74,38,0
1,note_on,81,45,0
1,note_on,81,0,60
1,note_on,74,0,0
1,note_on,82,38,0
1,note_on,77,32,0
1,note_on,77,0,30
1,note_on,82,0,0
1,note_on,72,39,30
1,note_on,82,46,0
1,note_on,82,0,60
1,note_on,72,0,0
1,note_on,81,41,0
1,note_on,75,35,0
1,note_on,75,0,30
1,note_on,81,0,0
1,note_on,72,38,30
1,note_on,81,45,0
1,note_on,81,0,60
1,note_on,72,0,0
1,note_on,75,32,0
1,note_on,80,38,0
1,note_on,80,0,30
1,note_on,75,0,0
1,note_on,72,36,30
1,note_on,80,43,0
1,note_on,80,0,60
1,note_on,72,0,0
1,note_on,75,31,0
1,note_on,79,37,0
1,note_on,79,0,30
1,note_on,75,0,0
1,note_on,79,42,30
1,note_on,72,35,0
1,note_on,72,0,60
1,note_on,79,0,0
1,note_on,75,29,0
1,note_on,78,36,0
1,note_on,78,0,30
1,note_on,75,0,0
1,note_on,77,36,30
1,note_on,70,29,0
1,note_on,78,32,60
1,note_on,74,27,0
1,note_on,70,0,6
1,note_on,77,0,0
1,note_on,77,36,54
1,note_on,70,29,0
1,note_on,78,0,6
1,note_on,74,0,0
1,note_on,74,26,54
1,note_on,79,31,0
1,note_on,77,0,6
1,note_on,70,0,0
1,note_on,74,0,54
1,note_on,79,0,0
1,note_on,77,36,0
1,note_on,69,29,0
1,note_on,69,0,60
1,note_on,77,0,0
1,note_on,72,27,0
1,note_on,78,32,0
1,note_on,78,0,60
1,note_on,72,0,0
1,note_on,77,36,0
1,note_on,69,29,0
1,note_on,69,0,60
1,note_on,77,0,0
1,note_on,79,31,0
1,note_on,72,26,0
1,note_on,72,0,60
1,note_on,79,0,0
1,note_on,70,29,0
1,note_on,77,36,0
1,note_on,77,0,60
1,note_on,70,0,0
1,note_on,74,27,0
1,note_on,78,32,0
1,note_on,78,0,60
1,note_on,74,0,0
1,note_on,77,36,0
1,note_on,70,29,0
1,note_on,70,0,60
1,note_on,77,0,0
1,note_on,74,26,0
1,note_on,79,31,0
1,note_on,79,0,60
1,note_on,74,0,0
1,note_on,69,29,0
1,note_on,77,36,0
1,note_on,77,0,60
1,note_on,69,0,0
1,note_on,78,32,0
1,note_on,75,27,0
1,note_on,75,0,60
1,note_on,78,0,0
1,note_on,77,36,0
1,note_on,69,29,0
1,note_on,69,0,60
1,note_on,77,0,0
1,note_on,75,26,0
1,note_on,79,31,0
1,note_on,79,0,60
1,note_on,75,0,0
1,note_on,77,36,0
1,note_on,70,29,0
1,note_on,70,0,60
1,note_on,77,0,0
1,note_on,78,32,0
1,note_on,74,27,0
1,note_on,74,0,30
1,note_on,78,0,0
1,note_on,78,42,30
1,note_on,70,42,0
1,note_on,70,0,60
1,note_on,78,0,0
1,note_on,74,36,0
1,note_on,79,36,0
1,note_on,79,0,30
1,note_on,74,0,0
1,note_on,74,37,30
1,note_on,80,45,0
1,note_on,80,0,60
1,note_on,74,0,0
1,note_on,81,38,0
1,note_on,77,32,0
1,note_on,77,0,30
1,note_on,81,0,0
1,note_on,81,45,30
1,note_on,74,38,0
1,note_on,74,0,60
1,note_on,81,0,0
1,note_on,82,38,0
1,note_on,77,32,0
1,note_on,77,0,30
1,note_on,82,0,0
1,note_on,82,46,30
1,note_on,72,39,0
1,note_on,72,0,60
1,note_on,82,0,0
1,note_on,75,35,0
1,note_on,81,41,0
1,note_on,81,0,30
1,note_on,75,0,0
1,note_on,81,45,30
1,note_on,72,38,0
1,note_on,72,0,60
1,note_on,81,0,0
1,note_on,75,32,0
1,note_on,80,38,0
1,note_on,80,0,30
1,note_on,75,0,0
1,note_on,80,43,30
1,note_on,72,36,0
1,note_on,72,0,60
1,note_on,80,0,0
1,note_on,79,37,0
1,note_on,75,31,0
1,note_on,75,0,30
1,note_on,79,0,0
1,note_on,79,42,30
1,note_on,72,35,0
1,note_on,72,0,60
1,note_on,79,0,0
1,note_on,78,36,0
1,note_on,75,29,0
1,note_on,75,0,30
1,note_on,78,0,0
1,note_on,77,36,30
1,note_on,74,29,0
1,note_on,74,0,60
1,note_on,77,0,0
1,note_on,78,32,0
1,note_on,70,27,0
1,note_on,70,0,60
1,note_on,78,0,0
1,note_on,74,29,0
1,note_on,77,36,0
1,note_on,77,0,60
1,note_on,74,0,0
1,note_on,81,36,0
1,note_on,81,0,60
1,note_on,82,36,0
1,note_on,74,29,0
1,note_on,74,0,60
1,note_on,82,0,0
1,note_on,77,27,0
1,note_on,83,32,0
1,note_on,83,0,60
1,note_on,77,0,0
1,note_on,82,36,0
1,note_on,74,29,0
1,note_on,74,0,60
1,note_on,82,0,0
1,note_on,83,31,0
1,note_on,77,26,0
1,note_on,77,0,60
1,note_on,83,0,0
1,note_on,82,36,0
1,note_on,75,29,0
1,note_on,75,0,60
1,note_on,82,0,0
1,note_on,83,32,0
1,note_on,78,27,0
1,note_on,78,0,60
1,note_on,83,0,0
1,note_on,82,36,0
1,note_on,75,29,0
1,note_on,75,0,60
1,note_on,82,0,0
1,note_on,83,31,0
1,note_on,78,26,0
1,note_on,78,0,60
1,note_on,83,0,0
1,note_on,82,36,0
1,note_on,74,29,0
1,note_on,74,0,60
1,note_on,82,0,0
1,note_on,83,32,0
1,note_on,80,27,0
1,note_on,80,0,60
1,note_on,83,0,0
1,note_on,74,29,0
1,note_on,82,36,0
1,note_on,82,0,60
1,note_on,74,0,0
1,note_on,83,31,0
1,note_on,80,26,0
1,note_on,80,0,60
1,note_on,83,0,0
1,note_on,82,36,0
1,note_on,75,29,0
1,note_on,75,0,60
1,note_on,82,0,0
1,note_on,78,27,0
1,note_on,83,32,0
1,note_on,83,0,30
1,note_on,78,0,0
1,note_on,83,42,30
1,note_on,75,42,0
1,note_on,75,0,60
1,note_on,83,0,0
1,note_on,78,36,0
1,note_on,84,36,0
1,note_on,84,0,30
1,note_on,78,0,0
1,note_on,78,37,30
1,note_on,85,45,0
1,note_on,85,0,60
1,note_on,78,0,0
1,note_on,82,32,0
1,note_on,86,38,0
1,note_on,86,0,60
1,note_on,82,0,0
1,note_on,86,45,0
1,note_on,78,38,0
1,note_on,78,0,60
1,note_on,86,0,0
1,note_on,87,38,0
1,note_on,82,32,0
1,note_on,82,0,30
1,note_on,87,0,0
1,note_on,87,46,30
1,note_on,77,39,0
1,note_on,77,0,60
1,note_on,87,0,0
1,note_on,86,41,0
1,note_on,80,35,0
1,note_on,80,0,30
1,note_on,86,0,0
1,note_on,86,45,30
1,note_on,77,38,0
1,note_on,77,0,60
1,note_on,86,0,0
1,note_on,80,32,0
1,note_on,85,38,0
1,note_on,85,0,30
1,note_on,80,0,0
1,note_on,77,36,30
1,note_on,85,43,0
1,note_on,85,0,60
1,note_on,77,0,0
1,note_on,80,31,0
1,note_on,84,37,0
1,note_on,84,0,30
1,note_on,80,0,0
1,note_on,84,42,30
1,note_on,77,35,0
1,note_on,77,0,60
1,note_on,84,0,0
1,note_on,83,36,0
1,note_on,80,29,0
1,note_on,80,0,30
1,note_on,83,0,0
1,note_on,78,29,30
1,note_on,82,36,0
1,note_on,82,0,60
1,note_on,78,0,0
1,note_on,83,32,0
1,note_on,75,27,0
1,note_on,75,0,60
1,note_on,83,0,0
1,note_on,82,36,0
1,note_on,78,29,0
1,note_on,78,0,60
1,note_on,82,0,0
1,note_on,83,31,0
1,note_on,75,26,0
1,note_on,75,0,60
1,note_on,83,0,0
1,note_on,74,29,0
1,note_on,82,36,0
1,note_on,82,0,60
1,note_on,74,0,0
1,note_on,83,32,0
1,note_on,77,27,0
1,note_on,77,0,60
1,note_on,83,0,0
1,note_on,74,29,0
1,note_on,82,36,0
1,note_on,82,0,60
1,note_on,74,0,0
1,note_on,77,26,0
1,note_on,83,31,0
1,note_on,83,0,60
1,note_on,77,0,0
1,note_on,75,29,0
1,note_on,82,36,0
1,note_on,82,0,60
1,note_on,75,0,0
1,note_on,78,27,0
1,note_on,83,32,0
1,note_on,83,0,60
1,note_on,78,0,0
1,note_on,75,29,0
1,note_on,82,36,0
1,note_on,82,0,60
1,note_on,75,0,0
1,note_on,83,31,0
1,note_on,78,26,0
1,note_on,78,0,60
1,note_on,83,0,0
1,note_on,82,36,0
1,note_on,74,29,0
1,note_on,74,0,60
1,note_on,82,0,0
1,note_on,83,32,0
1,note_on,80,27,0
1,note_on,80,0,60
1,note_on,83,0,0
1,note_on,74,29,0
1,note_on,82,36,0
1,note_on,82,0,60
1,note_on,74,0,0
1,note_on,80,26,0
1,note_on,83,31,0
1,note_on,83,0,60
1,note_on,80,0,0
1,note_on,82,36,0
1,note_on,75,29,0
1,note_on,75,0,60
1,note_on,82,0,0
1,note_on,78,27,0
1,note_on,83,32,0
1,note_on,83,0,30
1,note_on,78,0,0
1,note_on,83,42,30
1,note_on,75,42,0
1,note_on,75,0,60
1,note_on,83,0,0
1,note_on,84,36,0
1,note_on,78,36,0
1,note_on,78,0,30
1,note_on,84,0,0
1,note_on,78,37,30
1,note_on,85,45,0
1,note_on,85,0,60
1,note_on,78,0,0
1,note_on,82,32,0
1,note_on,86,38,0
1,note_on,86,0,60
1,note_on,82,0,0
1,note_on,86,45,0
1,note_on,78,38,0
1,note_on,78,0,60
1,note_on,86,0,0
1,note_on,87,38,0
1,note_on,82,32,0
1,note_on,82,0,30
1,note_on,87,0,0
1,note_on,87,46,30
1,note_on,77,39,0
1,note_on,77,0,60
1,note_on,87,0,0
1,note_on,80,35,0
1,note_on,86,41,0
1,note_on,86,0,30
1,note_on,80,0,0
1,note_on,86,45,30
1,note_on,77,38,0
1,note_on,77,0,60
1,note_on,86,0,0
1,note_on,85,38,0
1,note_on,80,32,0
1,note_on,80,0,30
1,note_on,85,0,0
1,note_on,77,36,30
1,note_on,85,43,0
1,note_on,85,0,60
1,note_on,77,0,0
1,note_on,84,37,0
1,note_on,80,31,0
1,note_on,80,0,30
1,note_on,84,0,0
1,note_on,77,35,30
1,note_on,84,42,0
1,note_on,84,0,60
1,note_on,77,0,0
1,note_on,80,29,0
1,note_on,83,36,0
1,note_on,83,0,30
1,note_on,80,0,0
1,note_on,78,29,30
1,note_on,82,36,0
1,note_on,82,0,60
1,note_on,78,0,0
1,note_on,75,27,0
1,note_on,83,32,0
1,note_on,83,0,60
1,note_on,75,0,0
1,note_on,78,29,0
1,note_on,82,36,0
1,note_on,82,0,60
1,note_on,78,0,0
1,note_on,87,33,0
1,note_on,87,0,60
1,note_on,78,37,0
1,note_on,90,45,0
1,note_on,78,0,60
1,note_on,85,29,0
1,note_on,87,36,0
1,note_on,87,0,60
1,note_on,85,0,0
1,note_on,90,0,0
1,note_on,90,38,0
1,note_on,78,31,0
1,note_on,78,0,60
1,note_on,90,0,0
1,note_on,88,36,0
1,note_on,85,29,0
1,note_on,85,0,60
1,note_on,88,0,0
1,note_on,78,39,0
1,note_on,88,48,0
1,note_on,78,0,60
1,note_on,86,35,0
1,note_on,83,28,0
1,note_on,83,0,60
1,note_on,86,0,0
1,note_on,88,0,0
1,note_on,88,38,0
1,note_on,78,31,0
1,note_on,78,0,60
1,note_on,88,0,0
1,note_on,83,29,0
1,note_on,87,36,0
1,note_on,87,0,60
1,note_on,83,0,0
1,note_on,87,45,0
1,note_on,76,45,0
1,note_on,76,0,60
1,note_on,84,33,0
1,note_on,82,27,0
1,note_on,82,0,60
1,note_on,84,0,0
1,note_on,87,0,0
1,note_on,87,38,0
1,note_on,76,31,0
1,note_on,76,0,60
1,note_on,87,0,0
1,note_on,82,35,0
1,note_on,85,35,0
1,note_on,85,0,60
1,note_on,82,0,0
1,note_on,85,45,0
1,note_on,75,37,0
1,note_on,75,0,60
1,note_on,82,33,0
1,note_on,78,27,0
1,note_on,78,0,60
1,note_on,82,0,0
1,note_on,85,0,0
1,note_on,85,38,0
1,note_on,75,31,0
1,note_on,75,0,60
1,note_on,85,0,0
1,note_on,78,35,0
1,note_on,83,35,0
1,note_on,83,0,45
1,note_on,78,0,0
1,note_on,73,35,15
1,note_on,84,42,0
1,note_on,73,0,60
1,note_on,81,33,0
1,note_on,79,33,0
1,note_on,79,0,60
1,note_on,81,0,0
1,note_on,84,0,0
1,note_on,84,36,0
1,note_on,73,29,0
1,note_on,73,0,60
1,note_on,84,0,0
1,note_on,79,32,0
1,note_on,82,32,0
1,note_on,82,0,45
1,note_on,79,0,0
1,note_on,72,35,15
1,note_on,82,41,0
1,note_on,72,0,60
1,note_on,77,27,0
1,note_on,80,32,0
1,note_on,80,0,60
1,note_on,77,0,0
1,note_on,82,0,0
1,note_on,72,29,0
1,note_on,82,36,0
1,note_on,82,0,60
1,note_on,72,0,0
1,note_on,77,26,0
1,note_on,81,31,0
1,note_on,81,0,45
1,note_on,77,0,0
1,note_on,81,41,15
1,note_on,70,35,0
1,note_on,70,0,60
1,note_on,78,31,0
1,note_on,76,26,0
1,note_on,76,0,60
1,note_on,78,0,0
1,note_on,81,0,0
1,note_on,81,36,0
1,note_on,70,29,0
1,note_on,70,0,60
1,note_on,81,0,0
1,note_on,79,31,0
1,note_on,76,26,0
1,note_on,76,0,45
1,note_on,79,0,0
1,note_on,69,32,15
1,note_on,79,38,0
1,note_on,69,0,60
1,note_on,76,29,0
1,note_on,72,24,0
1,note_on,72,0,60
1,note_on,76,0,0
1,note_on,79,0,0
1,note_on,79,36,0
1,note_on,69,29,0
1,note_on,69,0,60
1,note_on,79,0,0
1,note_on,72,25,0
1,note_on,77,30,0
1,note_on,77,0,45
1,note_on,72,0,0
1,note_on,73,28,15
1,note_on,77,33,0
1,note_on,77,0,60
1,note_on,75,28,0
1,note_on,75,0,60
1,note_on,73,0,0
1,note_on,77,33,0
1,note_on,70,28,0
1,note_on,77,0,60
1,note_on,76,28,0
1,note_on,76,0,60
1,note_on,70,0,0
1,note_on,79,31,0
1,note_on,75,26,0
1,note_on,79,0,60
1,note_on,76,27,0
1,note_on,76,0,60
1,note_on,75,0,0
1,note_on,79,32,0
1,note_on,72,27,0
1,note_on,79,0,60
1,note_on,77,25,0
1,note_on,77,0,60
1,note_on,72,0,0
1,note_on,70,25,0
1,note_on,77,30,0
1,note_on,77,0,60
1,note_on,70,0,0
1,note_on,75,26,0
1,note_on,75,0,60
1,note_on,77,31,0
1,note_on,77,0,60
1,note_on,76,26,0
1,note_on,76,0,60
1,note_on,79,32,0
1,note_on,72,27,0
1,note_on,72,0,60
1,note_on,79,0,0
1,note_on,75,28,0
1,note_on,75,0,60
1,note_on,79,31,0
1,note_on,79,0,60
1,note_on,78,28,0
1,note_on,78,0,60
1,note_on,77,36,0
1,note_on,77,0,60
1,note_on,78,31,0
1,note_on,78,0,60
1,note_on,77,36,0
1,note_on,77,0,60
1,note_on,79,30,0
1,note_on,79,0,60
1,note_on,77,36,0
1,note_on,77,0,60
1,note_on,78,31,0
1,note_on,78,0,60
1,note_on,77,36,0
1,note_on,77,0,60
1,note_on,79,31,0
1,note_on,79,0,60
1,note_on,77,36,0
1,note_on,77,0,60
1,note_on,78,31,0
1,note_on,78,0,60
1,note_on,77,36,0
1,note_on,77,0,60
1,note_on,79,32,0
1,note_on,79,0,60
1,note_on,77,36,0
1,note_on,77,0,60
1,note_on,78,32,0
1,note_on,78,0,60
1,note_on,77,36,0
1,note_on,77,0,60
1,note_on,79,31,0
1,note_on,79,0,60
1,note_on,69,29,0
1,note_on,77,36,0
1,note_on,77,0,60
1,note_on,69,0,0
1,note_on,78,32,0
1,note_on,72,27,0
1,note_on,72,0,60
1,note_on,78,0,0
1,note_on,69,29,0
1,note_on,77,36,0
1,note_on,77,0,60
1,note_on,69,0,0
1,note_on,72,26,0
1,note_on,79,31,0
1,note_on,79,0,60
1,note_on,72,0,0
1,note_on,70,29,0
1,note_on,77,36,0
1,note_on,77,0,60
1,note_on,70,0,0
1,note_on,74,27,0
1,note_on,78,32,0
1,note_on,78,0,60
1,note_on,74,0,0
1,note_on,70,29,0
1,note_on,77,36,0
1,note_on,77,0,60
1,note_on,70,0,0
1,note_on,74,26,0
1,note_on,79,31,0
1,note_on,79,0,60
1,note_on,74,0,0
1,note_on,69,29,0
1,note_on,77,36,0
1,note_on,77,0,60
1,note_on,69,0,0
1,note_on,78,32,0
1,note_on,72,27,0
1,note_on,72,0,60
1,note_on,78,0,0
1,note_on,77,36,0
1,note_on,69,29,0
1,note_on,69,0,60
1,note_on,77,0,0
1,note_on,72,26,0
1,note_on,79,31,0
1,note_on,79,0,60
1,note_on,72,0,0
1,note_on,77,36,0
1,note_on,70,29,0
1,note_on,70,0,60
1,note_on,77,0,0
1,note_on,78,32,0
1,note_on,74,27,0
1,note_on,74,0,30
1,note_on,78,0,0
1,note_on,70,42,30
1,note_on,78,42,0
1,note_on,78,0,60
1,note_on,70,0,0
1,note_on,74,36,0
1,note_on,79,36,0
1,note_on,79,0,30
1,note_on,74,0,0
1,note_on,80,45,30
1,note_on,74,45,0
1,note_on,74,0,60
1,note_on,80,0,0
1,note_on,81,38,0
1,note_on,77,38,0
1,note_on,77,0,60
1,note_on,81,0,0
1,note_on,81,45,0
1,note_on,74,45,0
1,note_on,74,0,60
1,note_on,81,0,0
1,note_on,82,38,0
1,note_on,77,38,0
1,note_on,77,0,30
1,note_on,82,0,0
1,note_on,72,46,30
1,note_on,82,46,0
1,note_on,82,0,60
1,note_on,72,0,0
1,note_on,81,41,0
1,note_on,75,41,0
1,note_on,75,0,30
1,note_on,81,0,0
1,note_on,81,45,30
1,note_on,72,45,0
1,note_on,72,0,60
1,note_on,81,0,0
1,note_on,75,38,0
1,note_on,80,38,0
1,note_on,80,0,30
1,note_on,75,0,0
1,note_on,80,43,30
1,note_on,72,43,0
1,note_on,72,0,60
1,note_on,80,0,0
1,note_on,79,37,0
1,note_on,75,37,0
1,note_on,75,0,30
1,note_on,79,0,0
1,note_on,79,42,30
1,note_on,72,42,0
1,note_on,72,0,60
1,note_on,79,0,0
1,note_on,78,36,0
1,note_on,75,36,0
1,note_on,75,0,30
1,note_on,78,0,0
1,note_on,74,29,30
1,note_on,77,36,0
1,note_on,77,0,60
1,note_on,74,0,0
1,note_on,70,27,0
1,note_on,78,32,0
1,note_on,78,0,60
1,note_on,70,0,0
1,note_on,74,29,0
1,note_on,77,36,0
1,note_on,77,0,60
1,note_on,74,0,0
1,note_on,79,31,0
1,note_on,70,26,0
1,note_on,70,0,60
1,note_on,79,0,0
1,note_on,69,29,0
1,note_on,77,36,0
1,note_on,77,0,60
1,note_on,69,0,0
1,note_on,72,27,0
1,note_on,78,32,0
1,note_on,78,0,60
1,note_on,72,0,0
1,note_on,77,36,0
1,note_on,69,29,0
1,note_on,69,0,60
1,note_on,77,0,0
1,note_on,72,26,0
1,note_on,79,31,0
1,note_on,79,0,60
1,note_on,72,0,0
1,note_on,77,36,0
1,note_on,70,29,0
1,note_on,70,0,60
1,note_on,77,0,0
1,note_on,74,27,0
1,note_on,78,32,0
1,note_on,78,0,60
1,note_on,74,0,0
1,note_on,77,36,0
1,note_on,70,29,0
1,note_on,70,0,60
1,note_on,77,0,0
1,note_on,74,26,0
1,note_on,79,31,0
1,note_on,79,0,60
1,note_on,74,0,0
1,note_on,77,36,0
1,note_on,69,29,0
1,note_on,69,0,60
1,note_on,77,0,0
1,note_on,78,32,0
1,note_on,75,27,0
1,note_on,75,0,60
1,note_on,78,0,0
1,note_on,69,29,0
1,note_on,77,36,0
1,note_on,77,0,60
1,note_on,69,0,0
1,note_on,75,26,0
1,note_on,79,31,0
1,note_on,79,0,60
1,note_on,75,0,0
1,note_on,70,29,0
1,note_on,77,36,0
1,note_on,77,0,60
1,note_on,70,0,0
1,note_on,74,27,0
1,note_on,78,32,0
1,note_on,78,0,30
1,note_on,74,0,0
1,note_on,78,42,30
1,note_on,70,42,0
1,note_on,70,0,60
1,note_on,78,0,0
1,note_on,74,36,0
1,note_on,79,36,0
1,note_on,79,0,30
1,note_on,74,0,0
1,note_on,74,45,30
1,note_on,80,45,0
1,note_on,80,0,60
1,note_on,74,0,0
1,note_on,81,38,0
1,note_on,77,38,0
1,note_on,77,0,60
1,note_on,81,0,0
1,note_on,81,45,0
1,note_on,74,45,0
1,note_on,74,0,60
1,note_on,81,0,0
1,note_on,77,38,0
1,note_on,82,38,0
1,note_on,82,0,30
1,note_on,77,0,0
1,note_on,72,46,30
1,note_on,82,46,0
1,note_on,82,0,60
1,note_on,72,0,0
1,note_on,81,41,0
1,note_on,75,41,0
1,note_on,75,0,30
1,note_on,81,0,0
1,note_on,72,45,30
1,note_on,81,45,0
1,note_on,81,0,60
1,note_on,72,0,0
1,note_on,75,38,0
1,note_on,80,38,0
1,note_on,80,0,30
1,note_on,75,0,0
1,note_on,80,43,30
1,note_on,72,43,0
1,note_on,72,0,60
1,note_on,80,0,0
1,note_on,79,37,0
1,note_on,75,37,0
1,note_on,75,0,30
1,note_on,79,0,0
1,note_on,72,42,30
1,note_on,79,42,0
1,note_on,79,0,60
1,note_on,72,0,0
1,note_on,75,37,0
1,note_on,78,37,0
1,note_on,78,0,30
1,note_on,75,0,0
1,note_on,74,29,30
1,note_on,77,37,0
1,note_on,77,0,60
1,note_on,74,0,0
1,note_on,70,28,0
1,note_on,78,33,0
1,note_on,78,0,60
1,note_on,70,0,0
1,note_on,77,37,0
1,note_on,74,30,0
1,note_on,74,0,60
1,note_on,77,0,0
1,note_on,81,36,0
1,note_on,81,0,60
1,note_on,74,30,0
1,note_on,82,37,0
1,note_on,82,0,60
1,note_on,74,0,0
1,note_on,77,28,0
1,note_on,83,33,0
1,note_on,83,0,60
1,note_on,77,0,0
1,note_on,82,38,0
1,note_on,74,30,0
1,note_on,74,0,60
1,note_on,82,0,0
1,note_on,77,27,0
1,note_on,84,33,0
1,note_on,84,0,60
1,note_on,77,0,0
1,note_on,82,38,0
1,note_on,75,31,0
1,note_on,75,0,60
1,note_on,82,0,0
1,note_on,83,34,0
1,note_on,78,28,0
1,note_on,78,0,60
1,note_on,83,0,0
1,note_on,75,31,0
1,note_on,82,38,0
1,note_on,82,0,60
1,note_on,75,0,0
1,note_on,78,28,0
1,note_on,84,33,0
1,note_on,84,0,60
1,note_on,78,0,0
1,note_on,77,31,0
1,note_on,82,39,0
1,note_on,82,0,60
1,note_on,77,0,0
1,note_on,83,34,0
1,note_on,80,29,0
1,note_on,80,0,60
1,note_on,83,0,0
1,note_on,77,31,0
1,note_on,82,39,0
1,note_on,82,0,60
1,note_on,77,0,0
1,note_on,80,28,0
1,note_on,84,34,0
1,note_on,84,0,60
1,note_on,80,0,0
1,note_on,75,32,0
1,note_on,82,39,0
1,note_on,82,0,60
1,note_on,75,0,0
1,note_on,79,29,0
1,note_on,83,35,0
1,note_on,83,0,30
1,note_on,79,0,0
1,note_on,75,47,30
1,note_on,83,47,0
1,note_on,83,0,60
1,note_on,75,0,0
1,note_on,79,40,0
1,note_on,84,40,0
1,note_on,84,0,30
1,note_on,79,0,0
1,note_on,79,50,30
1,note_on,85,50,0
1,note_on,85,0,60
1,note_on,79,0,0
1,note_on,86,42,0
1,note_on,82,42,0
1,note_on,82,0,60
1,note_on,86,0,0
1,note_on,86,51,0
1,note_on,79,51,0
1,note_on,79,0,60
1,note_on,86,0,0
1,note_on,87,43,0
1,note_on,82,43,0
1,note_on,82,0,30
1,note_on,87,0,0
1,note_on,77,52,30
1,note_on,87,52,0
1,note_on,87,0,60
1,note_on,77,0,0
1,note_on,80,47,0
1,note_on,86,47,0
1,note_on,86,0,30
1,note_on,80,0,0
1,note_on,86,51,30
1,note_on,77,51,0
1,note_on,77,0,60
1,note_on,86,0,0
1,note_on,85,44,0
1,note_on,80,44,0
1,note_on,80,0,30
1,note_on,85,0,0
1,note_on,77,49,30
1,note_on,85,49,0
1,note_on,85,0,60
1,note_on,77,0,0
1,note_on,80,43,0
1,note_on,84,43,0
1,note_on,84,0,30
1,note_on,80,0,0
1,note_on,77,49,30
1,note_on,84,49,0
1,note_on,84,0,60
1,note_on,77,0,0
1,note_on,80,42,0
1,note_on,83,42,0
1,note_on,83,0,30
1,note_on,80,0,0
1,note_on,79,34,30
1,note_on,82,42,0
1,note_on,82,0,60
1,note_on,79,0,0
1,note_on,83,38,0
1,note_on,75,32,0
1,note_on,75,0,60
1,note_on,83,0,0
1,note_on,82,42,0
1,note_on,79,34,0
1,note_on,79,0,60
1,note_on,82,0,0
1,note_on,75,31,0
1,note_on,84,37,0
1,note_on,84,0,60
1,note_on,75,0,0
1,note_on,82,43,0
1,note_on,74,34,0
1,note_on,74,0,60
1,note_on,82,0,0
1,note_on,83,38,0
1,note_on,77,32,0
1,note_on,77,0,60
1,note_on,83,0,0
1,note_on,74,35,0
1,note_on,82,43,0
1,note_on,82,0,60
1,note_on,74,0,0
1,note_on,84,37,0
1,note_on,77,31,0
1,note_on,77,0,60
1,note_on,84,0,0
1,note_on,82,43,0
1,note_on,75,35,0
1,note_on,75,0,60
1,note_on,82,0,0
1,note_on,78,33,0
1,note_on,83,39,0
1,note_on,83,0,60
1,note_on,78,0,0
1,note_on,75,35,0
1,note_on,82,44,0
1,note_on,82,0,60
1,note_on,75,0,0
1,note_on,78,32,0
1,note_on,84,38,0
1,note_on,84,0,60
1,note_on,78,0,0
1,note_on,82,44,0
1,note_on,77,35,0
1,note_on,77,0,60
1,note_on,82,0,0
1,note_on,83,39,0
1,note_on,80,33,0
1,note_on,80,0,60
1,note_on,83,0,0
1,note_on,82,45,0
1,note_on,77,36,0
1,note_on,77,0,60
1,note_on,82,0,0
1,note_on,84,38,0
1,note_on,80,32,0
1,note_on,80,0,60
1,note_on,84,0,0
1,note_on,82,45,0
1,note_on,75,36,0
1,note_on,75,0,60
1,note_on,82,0,0
1,note_on,79,34,0
1,note_on,83,40,0
1,note_on,83,0,30
1,note_on,79,0,0
1,note_on,83,53,30
1,note_on,75,53,0
1,note_on,75,0,60
1,note_on,83,0,0
1,note_on,79,45,0
1,note_on,84,45,0
1,note_on,84,0,30
1,note_on,79,0,0
1,note_on,85,57,30
1,note_on,79,57,0
1,note_on,79,0,60
1,note_on,85,0,0
1,note_on,82,48,0
1,note_on,86,48,0
1,note_on,86,0,60
1,note_on,82,0,0
1,note_on,86,58,0
1,note_on,79,58,0
1,note_on,79,0,60
1,note_on,86,0,0
1,note_on,82,49,0
1,note_on,87,49,0
1,note_on,87,0,30
1,note_on,82,0,0
1,note_on,87,59,30
1,note_on,77,59,0
1,note_on,77,0,60
1,note_on,87,0,0
1,note_on,86,53,0
1,note_on,80,53,0
1,note_on,80,0,30
1,note_on,86,0,0
1,note_on,77,58,30
1,note_on,86,58,0
1,note_on,86,0,60
1,note_on,77,0,0
1,note_on,80,49,0
1,note_on,85,49,0
1,note_on,85,0,30
1,note_on,80,0,0
1,note_on,85,55,30
1,note_on,77,55,0
1,note_on,77,0,60
1,note_on,85,0,0
1,note_on,84,48,0
1,note_on,80,48,0
1,note_on,80,0,30
1,note_on,84,0,0
1,note_on,77,54,30
1,note_on,84,54,0
1,note_on,84,0,60
1,note_on,77,0,0
1,note_on,83,46,0
1,note_on,80,46,0
1,note_on,80,0,30
1,note_on,83,0,0
1,note_on,79,44,30
1,note_on,82,58,0
1,note_on,82,0,60
1,note_on,79,0,0
1,note_on,84,55,0
1,note_on,75,42,0
1,note_on,75,0,60
1,note_on,84,0,0
1,note_on,79,44,0
1,note_on,82,58,0
1,note_on,82,0,60
1,note_on,79,0,0
1,note_on,87,54,0
1,note_on,87,0,60
1,note_on,80,43,0
1,note_on,91,54,0
1,note_on,80,0,60
1,note_on,86,33,0
1,note_on,88,41,0
1,note_on,88,0,60
1,note_on,86,0,0
1,note_on,91,0,0
1,note_on,80,36,0
1,note_on,91,45,0
1,note_on,91,0,60
1,note_on,80,0,0
1,note_on,89,42,0
1,note_on,86,33,0
1,note_on,86,0,45
1,note_on,89,0,0
1,note_on,89,55,15
1,note_on,79,45,0
1,note_on,79,0,60
1,note_on,84,32,0
1,note_on,86,39,0
1,note_on,86,0,60
1,note_on,84,0,0
1,note_on,89,0,0
1,note_on,89,45,0
1,note_on,79,36,0
1,note_on,79,0,60
1,note_on,89,0,0
1,note_on,84,33,0
1,note_on,87,42,0
1,note_on,87,0,60
1,note_on,84,0,0
1,note_on,87,52,0
1,note_on,77,52,0
1,note_on,77,0,60
1,note_on,83,31,0
1,note_on,85,37,0
1,note_on,85,0,60
1,note_on,83,0,0
1,note_on,87,0,0
1,note_on,87,45,0
1,note_on,77,36,0
1,note_on,77,0,60
1,note_on,87,0,0
1,note_on,82,39,0
1,note_on,86,39,0
1,note_on,86,0,45
1,note_on,82,0,0
1,note_on,86,50,15
1,note_on,75,43,0
1,note_on,75,0,60
1,note_on,83,37,0
1,note_on,79,31,0
1,note_on,79,0,60
1,note_on,83,0,0
1,note_on,86,0,0
1,note_on,75,36,0
1,note_on,86,44,0
1,note_on,86,0,60
1,note_on,75,0,0
1,note_on,84,39,0
1,note_on,79,39,0
1,note_on,79,0,45
1,note_on,84,0,0
1,note_on,79,39,15
1,note_on,84,48,0
1,note_on,79,0,60
1,note_on,73,37,0
1,note_on,81,37,0
1,note_on,81,0,60
1,note_on,73,0,0
1,note_on,84,0,0
1,note_on,84,39,0
1,note_on,79,32,0
1,note_on,79,0,60
1,note_on,84,0,0
1,note_on,73,36,0
1,note_on,82,36,0
1,note_on,82,0,60
1,note_on,73,0,0
1,note_on,81,45,0
1,note_on,73,37,0
1,note_on,73,0,60
1,note_on,78,35,0
1,note_on,70,29,0
1,note_on,70,0,60
1,note_on,78,0,0
1,note_on,81,0,0
1,note_on,81,37,0
1,note_on,73,31,0
1,note_on,73,0,60
1,note_on,81,0,0
1,note_on,70,27,0
1,note_on,79,33,0
1,note_on,79,0,60
1,note_on,70,0,0
1,note_on,70,36,0
1,note_on,77,43,0
1,note_on,70,0,60
1,note_on,75,32,0
1,note_on,67,27,0
1,note_on,67,0,60
1,note_on,75,0,0
1,note_on,77,0,0
1,note_on,77,36,0
1,note_on,73,29,0
1,note_on,73,0,60
1,note_on,77,0,0
1,note_on,76,31,0
1,note_on,67,26,0
1,note_on,67,0,60
1,note_on,76,0,0
1,note_on,79,52,0
1,note_on,70,40,0
1,note_on,70,0,60
1,note_on,65,36,0
1,note_on,65,0,60
1,note_on,70,45,0
1,note_on,70,0,60
1,note_on,79,0,0
1,note_on,77,41,0
1,note_on,77,0,60
1,note_on,74,52,0
1,note_on,68,40,0
1,note_on,68,0,60
1,note_on,65,40,0
1,note_on,65,0,60
1,note_on,68,40,0
1,note_on,68,0,60
1,note_on,74,0,0
1,note_on,75,41,0
1,note_on,75,0,60
1,note_on,70,40,0
1,note_on,74,52,0
1,note_on,64,40,0
1,note_on,64,0,60
1,note_on,70,0,0
1,note_on,67,40,0
1,note_on,67,0,60
1,note_on,64,40,0
1,note_on,64,0,60
1,note_on,74,0,0
1,note_on,72,41,0
1,note_on,72,0,60
1,note_on,63,40,0
1,note_on,67,52,0
1,note_on,63,0,60
1,note_on,60,40,0
1,note_on,60,0,60
1,note_on,63,40,0
1,note_on,63,0,60
1,note_on,67,0,0
1,note_on,69,41,0
1,note_on,69,0,60
1,note_on,72,52,0
1,note_on,62,40,0
1,note_on,62,0,60
1,note_on,65,36,0
1,note_on,65,0,60
1,note_on,62,45,0
1,note_on,62,0,60
1,note_on,72,0,0
1,note_on,70,41,0
1,note_on,70,0,60
1,note_on,67,52,0
1,note_on,56,40,0
1,note_on,56,0,60
1,note_on,62,40,0
1,note_on,62,0,60
1,note_on,56,40,0
1,note_on,56,0,60
1,note_on,67,0,0
1,note_on,62,40,0
1,note_on,65,41,0
1,note_on,65,0,60
1,note_on,62,0,0
1,note_on,65,52,0
1,note_on,55,40,0
1,note_on,55,0,60
1,note_on,60,40,0
1,note_on,60,0,60
1,note_on,55,40,0
1,note_on,55,0,60
1,note_on,65,0,0
1,note_on,63,41,0
1,note_on,63,0,60
1,note_on,60,52,0
1,note_on,51,40,0
1,note_on,51,0,60
1,note_on,57,40,0
1,note_on,57,0,60
1,note_on,51,40,0
1,note_on,51,0,60
1,note_on,60,0,0
1,note_on,62,41,0
1,note_on,57,40,0
1,note_on,57,0,60
1,note_on,62,0,0
1,note_on,58,52,0
1,note_on,50,47,0
1,note_on,50,0,120
1,note_on,58,0,0
1,note_on,50,31,0
1,note_on,50,0,60
1,note_on,48,36,60
1,note_on,48,0,60
1,note_on,47,32,60
1,note_on,47,0,60
1,note_on,46,36,60
1,note_on,46,0,60
1,note_on,50,32,60
1,note_on,50,0,60
1,note_on,48,36,60
1,note_on,48,0,60
1,note_on,47,31,0
1,note_on,47,0,60
1,note_on,46,31,0
1,note_on,46,0,60
1,note_on,87,37,180
1,note_on,87,0,60
1,note_on,84,37,0
1,note_on,84,0,60
1,note_on,80,36,0
1,note_on,80,0,60
1,note_on,77,36,0
1,note_on,77,0,60
1,note_on,81,36,0
1,note_on,81,0,60
1,note_on,78,35,0
1,note_on,78,0,60
1,note_on,74,35,0
1,note_on,74,0,60
1,note_on,71,33,0
1,note_on,71,0,60
1,note_on,75,33,0
1,note_on,75,0,60
1,note_on,72,32,0
1,note_on,72,0,60
1,note_on,68,32,0
1,note_on,68,0,60
1,note_on,65,31,0
1,note_on,65,0,60
1,note_on,69,30,0
1,note_on,69,0,60
1,note_on,78,30,0
1,note_on,78,0,60
1,note_on,70,38,0
1,note_on,77,38,0
1,note_on,77,0,120
1,note_on,70,0,0
1,note_on,50,31,0
1,note_on,50,0,60
1,note_on,48,36,60
1,note_on,48,0,60
1,note_on,47,32,60
1,note_on,47,0,60
1,note_on,46,36,60
1,note_on,46,0,60
1,note_on,50,32,60
1,note_on,50,0,60
1,note_on,48,36,60
1,note_on,48,0,60
1,note_on,47,31,0
1,note_on,47,0,60
1,note_on,46,31,0
1,note_on,46,0,60
1,note_on,87,37,180
1,note_on,87,0,60
1,note_on,84,37,0
1,note_on,84,0,60
1,note_on,80,36,0
1,note_on,80,0,60
1,note_on,77,36,0
1,note_on,77,0,60
1,note_on,81,36,0
1,note_on,81,0,60
1,note_on,78,35,0
1,note_on,78,0,60
1,note_on,74,35,0
1,note_on,74,0,60
1,note_on,71,33,0
1,note_on,71,0,60
1,note_on,75,33,0
1,note_on,75,0,60
1,note_on,72,32,0
1,note_on,72,0,60
1,note_on,68,32,0
1,note_on,68,0,60
1,note_on,65,31,0
1,note_on,65,0,60
1,note_on,69,30,0
1,note_on,69,0,60
1,note_on,78,30,0
1,note_on,78,0,39
1,note_on,62,36,21
1,note_on,65,36,0
1,note_on,65,0,60
1,note_on,62,0,0
1,note_on,89,41,60
1,note_on,89,0,60
1,note_on,86,41,0
1,note_on,86,0,60
1,note_on,82,39,0
1,note_on,82,0,60
1,note_on,79,39,0
1,note_on,79,0,60
1,note_on,83,38,0
1,note_on,83,0,60
1,note_on,80,37,0
1,note_on,80,0,60
1,note_on,76,37,0
1,note_on,76,0,60
1,note_on,73,36,0
1,note_on,73,0,60
1,note_on,77,36,0
1,note_on,77,0,60
1,note_on,74,36,0
1,note_on,74,0,60
1,note_on,70,36,0
1,note_on,70,0,60
1,note_on,67,35,0
1,note_on,67,0,60
1,note_on,71,33,0
1,note_on,71,0,60
1,note_on,80,33,0
1,note_on,80,0,60
1,note_on,63,39,0
1,note_on,67,39,0
1,note_on,67,0,60
1,note_on,63,0,0
1,note_on,91,45,60
1,note_on,91,0,60
1,note_on,88,45,0
1,note_on,88,0,60
1,note_on,84,43,0
1,note_on,84,0,60
1,note_on,81,43,0
1,note_on,81,0,60
1,note_on,85,42,0
1,note_on,85,0,60
1,note_on,82,41,0
1,note_on,82,0,60
1,note_on,69,43,0
1,note_on,63,43,0
1,note_on,63,0,60
1,note_on,69,0,0
1,note_on,93,45,60
1,note_on,93,0,60
1,note_on,90,45,0
1,note_on,90,0,60
1,note_on,86,43,0
1,note_on,86,0,60
1,note_on,83,43,0
1,note_on,83,0,60
1,note_on,87,42,0
1,note_on,87,0,60
1,note_on,84,41,0
1,note_on,84,0,60
1,note_on,96,55,0
1,note_on,96,0,60
1,note_on,93,55,0
1,note_on,93,0,60
1,note_on,89,54,0
1,note_on,89,0,60
1,note_on,86,54,0
1,note_on,86,0,60
1,note_on,90,51,0
1,note_on,90,0,60
1,note_on,87,49,0
1,note_on,87,0,60
1,note_on,99,62,0
1,note_on,99,0,60
1,note_on,96,57,0
1,note_on,96,0,60
1,note_on,92,60,0
1,note_on,92,0,60
1,note_on,89,53,0
1,note_on,89,0,60
1,note_on,93,60,0
1,note_on,93,0,60
1,note_on,90,52,0
1,note_on,90,0,60
1,note_on,100,63,0
1,note_on,100,0,60
1,note_on,87,57,0
1,note_on,87,0,60
1,note_on,101,74,0
1,note_on,101,0,60
1,note_on,87,67,0
1,note_on,87,0,60
1,note_on,94,45,120
1,note_on,98,45,0
1,note_on,98,0,60
1,note_on,94,0,0
1,note_on,93,45,0
1,note_on,93,0,60
1,note_on,98,45,0
1,note_on,92,45,0
1,note_on,92,0,60
1,note_on,98,0,0
1,note_on,91,45,0
1,note_on,91,0,60
1,note_on,90,45,0
1,note_on,98,45,0
1,note_on,98,0,60
1,note_on,90,0,0
1,note_on,89,45,0
1,note_on,89,0,60
1,note_on,94,44,0
1,note_on,98,44,0
1,note_on,98,0,60
1,note_on,94,0,0
1,note_on,88,44,0
1,note_on,88,0,60
1,note_on,94,44,0
1,note_on,89,44,0
1,note_on,89,0,60
1,note_on,94,0,0
1,note_on,86,44,0
1,note_on,86,0,60
1,note_on,84,43,0
1,note_on,89,43,0
1,note_on,89,0,60
1,note_on,84,0,0
1,note_on,83,43,0
1,note_on,83,0,60
1,note_on,86,42,0
1,note_on,82,42,0
1,note_on,82,0,60
1,note_on,86,0,0
1,note_on,81,42,0
1,note_on,81,0,60
1,note_on,89,45,0
1,note_on,82,45,0
1,note_on,82,0,60
1,note_on,89,0,0
1,note_on,81,45,0
1,note_on,81,0,60
1,note_on,86,45,0
1,note_on,82,45,0
1,note_on,82,0,60
1,note_on,86,0,0
1,note_on,81,45,0
1,note_on,81,0,60
1,note_on,86,45,0
1,note_on,80,45,0
1,note_on,80,0,60
1,note_on,86,0,0
1,note_on,79,45,0
1,note_on,79,0,60
1,note_on,78,45,0
1,note_on,82,45,0
1,note_on,82,0,60
1,note_on,78,0,0
1,note_on,77,45,0
1,note_on,77,0,60
1,note_on,86,44,0
1,note_on,82,44,0
1,note_on,82,0,60
1,note_on,86,0,0
1,note_on,76,44,0
1,note_on,76,0,60
1,note_on,77,44,0
1,note_on,82,44,0
1,note_on,82,0,60
1,note_on,77,0,0
1,note_on,74,44,0
1,note_on,74,0,60
1,note_on,77,43,0
1,note_on,72,43,0
1,note_on,72,0,60
1,note_on,77,0,0
1,note_on,71,43,0
1,note_on,71,0,60
1,note_on,74,42,0
1,note_on,70,42,0
1,note_on,70,0,60
1,note_on,74,0,0
1,note_on,68,42,0
1,note_on,68,0,60
1,note_on,78,53,0
1,note_on,70,46,0
1,note_on,66,39,0
1,note_on,66,0,60
1,note_on,70,0,0
1,note_on,78,0,0
1,note_on,90,52,60
1,note_on,87,52,0
1,note_on,87,0,60
1,note_on,90,0,0
1,note_on,86,52,0
1,note_on,86,0,60
1,note_on,85,51,0
1,note_on,90,51,0
1,note_on,90,0,60
1,note_on,85,0,0
1,note_on,84,52,0
1,note_on,84,0,60
1,note_on,87,50,0
1,note_on,90,50,0
1,note_on,90,0,60
1,note_on,87,0,0
1,note_on,83,51,0
1,note_on,83,0,60
1,note_on,82,50,0
1,note_on,90,50,0
1,note_on,90,0,60
1,note_on,82,0,0
1,note_on,81,50,0
1,note_on,81,0,60
1,note_on,80,50,0
1,note_on,87,50,0
1,note_on,87,0,60
1,note_on,80,0,0
1,note_on,79,51,0
1,note_on,79,0,60
1,note_on,87,50,0
1,note_on,78,50,0
1,note_on,78,0,60
1,note_on,87,0,0
1,note_on,77,50,0
1,note_on,77,0,60
1,note_on,82,49,0
1,note_on,78,49,0
1,note_on,78,0,60
1,note_on,82,0,0
1,note_on,76,50,0
1,note_on,76,0,60
1,note_on,87,55,0
1,note_on,78,55,0
1,note_on,78,0,60
1,note_on,87,0,0
1,note_on,75,55,0
1,note_on,75,0,60
1,note_on,75,56,0
1,note_on,82,56,0
1,note_on,82,0,60
1,note_on,75,0,0
1,note_on,74,56,0
1,note_on,74,0,60
1,note_on,73,55,0
1,note_on,78,55,0
1,note_on,78,0,60
1,note_on,73,0,0
1,note_on,72,55,0
1,note_on,72,0,60
1,note_on,75,54,0
1,note_on,78,54,0
1,note_on,78,0,60
1,note_on,75,0,0
1,note_on,71,54,0
1,note_on,71,0,60
1,note_on,78,54,0
1,note_on,75,54,0
1,note_on,75,0,60
1,note_on,78,0,0
1,note_on,70,54,0
1,note_on,70,0,60
1,note_on,78,54,0
1,note_on,75,54,0
1,note_on,75,0,60
1,note_on,78,0,0
1,note_on,69,54,0
1,note_on,69,0,60
1,note_on,75,54,0
1,note_on,68,54,0
1,note_on,68,0,60
1,note_on,75,0,0
1,note_on,67,54,0
1,note_on,67,0,60
1,note_on,70,53,0
1,note_on,66,53,0
1,note_on,66,0,60
1,note_on,70,0,0
1,note_on,63,53,0
1,note_on,63,0,60
1,note_on,95,31,120
1,note_on,87,31,0
1,note_on,87,0,60
1,note_on,95,0,0
1,note_on,83,36,0
1,note_on,90,36,0
1,note_on,90,0,60
1,note_on,83,0,0
1,note_on,87,32,120
1,note_on,78,32,0
1,note_on,78,0,60
1,note_on,87,0,0
1,note_on,83,36,0
1,note_on,75,36,0
1,note_on,75,0,60
1,note_on,83,0,0
1,note_on,71,31,120
1,note_on,80,31,0
1,note_on,80,0,60
1,note_on,71,0,0
1,note_on,68,36,0
1,note_on,77,36,0
1,note_on,77,0,60
1,note_on,68,0,0
1,note_on,83,32,60
1,note_on,92,38,30
1,note_on,97,45,30
1,note_on,97,0,120
1,note_on,92,0,0
1,note_on,83,0,0
1,note_on,94,31,120
1,note_on,85,31,0
1,note_on,85,0,60
1,note_on,94,0,0
1,note_on,89,36,0
1,note_on,82,36,0
1,note_on,82,0,60
1,note_on,89,0,0
1,note_on,85,32,120
1,note_on,77,32,0
1,note_on,77,0,60
1,note_on,85,0,0
1,note_on,82,36,0
1,note_on,73,36,0
1,note_on,73,0,60
1,note_on,82,0,0
1,note_on,78,31,120
1,note_on,70,31,0
1,note_on,70,0,60
1,note_on,78,0,0
1,note_on,75,36,0
1,note_on,66,36,0
1,note_on,66,0,60
1,note_on,75,0,0
1,note_on,82,32,60
1,note_on,90,38,30
1,note_on,95,45,30
1,note_on,95,0,120
1,note_on,90,0,0
1,note_on,82,0,0
1,note_on,83,31,120
1,note_on,92,31,0
1,note_on,92,0,60
1,note_on,83,0,0
1,note_on,87,36,0
1,note_on,80,36,0
1,note_on,80,0,60
1,note_on,87,0,0
1,note_on,87,32,120
1,note_on,80,32,0
1,note_on,80,0,60
1,note_on,87,0,0
1,note_on,83,36,0
1,note_on,77,36,0
1,note_on,77,0,60
1,note_on,83,0,0
1,note_on,80,31,120
1,note_on,74,31,0
1,note_on,74,0,60
1,note_on,76,36,0
1,note_on,76,0,60
1,note_on,80,0,0
1,note_on,77,31,0
1,note_on,77,0,120
1,note_on,80,38,0
1,note_on,94,45,0
1,note_on,94,0,120
1,note_on,80,0,0
1,note_on,90,32,120
1,note_on,82,32,0
1,note_on,82,0,60
1,note_on,90,0,0
1,note_on,87,36,0
1,note_on,78,36,0
1,note_on,78,0,60
1,note_on,87,0,0
1,note_on,82,32,120
1,note_on,75,32,0
1,note_on,75,0,60
1,note_on,82,0,0
1,note_on,87,36,0
1,note_on,78,36,0
1,note_on,78,0,60
1,note_on,87,0,0
1,note_on,78,45,0
1,note_on,90,45,0
1,note_on,90,0,60
1,note_on,89,36,0
1,note_on,89,0,60
1,note_on,88,38,0
1,note_on,88,0,60
1,note_on,87,42,0
1,note_on,87,0,60
1,note_on,78,0,0
1,note_on,93,48,0
1,note_on,81,48,0
1,note_on,93,0,60
1,note_on,92,41,0
1,note_on,92,0,60
1,note_on,91,44,0
1,note_on,91,0,60
1,note_on,90,48,0
1,note_on,90,0,60
1,note_on,81,0,0
1,note_on,97,63,0
1,note_on,85,51,0
1,note_on,85,0,60
1,note_on,97,0,0
1,note_on,80,29,180
1,note_on,77,29,0
1,note_on,86,33,0
1,note_on,86,0,60
1,note_on,83,31,0
1,note_on,83,0,60
1,note_on,77,0,0
1,note_on,80,0,0
1,note_on,79,33,0
1,note_on,79,0,60
1,note_on,76,27,0
1,note_on,76,0,60
1,note_on,80,33,0
1,note_on,80,0,60
1,note_on,77,28,0
1,note_on,77,0,60
1,note_on,85,33,0
1,note_on,85,0,60
1,note_on,82,33,0
1,note_on,82,0,60
1,note_on,86,35,0
1,note_on,86,0,60
1,note_on,83,36,0
1,note_on,83,0,60
1,note_on,91,37,0
1,note_on,91,0,60
1,note_on,88,38,0
1,note_on,88,0,60
1,note_on,92,39,0
1,note_on,92,0,60
1,note_on,89,37,0
1,note_on,89,0,60
1,note_on,98,48,0
1,note_on,98,0,60
1,note_on,89,36,0
1,note_on,86,36,0
1,note_on,86,0,60
1,note_on,89,0,0
1,note_on,97,45,0
1,note_on,97,0,60
1,note_on,89,36,0
1,note_on,85,36,0
1,note_on,85,0,60
1,note_on,89,0,0
1,note_on,95,48,0
1,note_on,95,0,60
1,note_on,83,39,0
1,note_on,89,39,0
1,note_on,89,0,60
1,note_on,83,0,0
1,note_on,94,46,0
1,note_on,94,0,60
1,note_on,82,36,0
1,note_on,85,36,0
1,note_on,85,0,60
1,note_on,82,0,0
1,note_on,93,45,0
1,note_on,93,0,60
1,note_on,84,39,0
1,note_on,81,39,0
1,note_on,81,0,60
1,note_on,84,0,0
1,note_on,92,48,0
1,note_on,92,0,60
1,note_on,84,38,0
1,note_on,80,38,0
1,note_on,80,0,60
1,note_on,84,0,0
1,note_on,90,46,0
1,note_on,90,0,60
1,note_on,84,39,0
1,note_on,78,39,0
1,note_on,78,0,60
1,note_on,84,0,0
1,note_on,77,50,0
1,note_on,89,50,0
1,note_on,85,50,0
1,note_on,85,0,120
1,note_on,89,0,0
1,note_on,77,0,0
1,note_on,68,28,120
1,note_on,65,28,0
1,note_on,74,33,0
1,note_on,74,0,60
1,note_on,71,31,0
1,note_on,71,0,60
1,note_on,67,33,0
1,note_on,67,0,60
1,note_on,64,27,0
1,note_on,64,0,60
1,note_on,65,0,0
1,note_on,68,0,0
1,note_on,68,33,0
1,note_on,68,0,60
1,note_on,65,28,0
1,note_on,65,0,60
1,note_on,73,33,0
1,note_on,73,0,60
1,note_on,70,33,0
1,note_on,70,0,60
1,note_on,74,35,0
1,note_on,74,0,60
1,note_on,71,36,0
1,note_on,71,0,60
1,note_on,79,37,0
1,note_on,79,0,60
1,note_on,76,38,0
1,note_on,76,0,60
1,note_on,80,39,0
1,note_on,80,0,60
1,note_on,77,37,0
1,note_on,77,0,60
1,note_on,86,48,0
1,note_on,86,0,60
1,note_on,74,36,0
1,note_on,77,36,0
1,note_on,77,0,60
1,note_on,74,0,0
1,note_on,85,45,0
1,note_on,85,0,60
1,note_on,73,36,0
1,note_on,77,36,0
1,note_on,77,0,60
1,note_on,73,0,0
1,note_on,83,48,0
1,note_on,83,0,60
1,note_on,77,39,0
1,note_on,71,39,0
1,note_on,71,0,60
1,note_on,77,0,0
1,note_on,82,46,0
1,note_on,82,0,60
1,note_on,73,36,0
1,note_on,70,36,0
1,note_on,70,0,60
1,note_on,73,0,0
1,note_on,81,45,0
1,note_on,81,0,60
1,note_on,69,39,0
1,note_on,72,39,0
1,note_on,72,0,60
1,note_on,69,0,0
1,note_on,80,48,0
1,note_on,80,0,60
1,note_on,68,38,0
1,note_on,72,38,0
1,note_on,72,0,60
1,note_on,68,0,0
1,note_on,78,46,0
1,note_on,78,0,60
1,note_on,66,39,0
1,note_on,72,39,0
1,note_on,72,0,60
1,note_on,66,0,0
1,note_on,77,46,0
1,note_on,77,0,60
1,note_on,65,38,0
1,note_on,68,38,0
1,note_on,68,0,60
1,note_on,65,0,0
1,note_on,74,46,0
1,note_on,74,0,60
1,note_on,62,38,0
1,note_on,65,38,0
1,note_on,65,0,60
1,note_on,62,0,0
1,note_on,73,48,0
1,note_on,73,0,60
1,note_on,61,39,0
1,note_on,65,39,0
1,note_on,65,0,60
1,note_on,61,0,0
1,note_on,71,49,0
1,note_on,71,0,60
1,note_on,59,41,0
1,note_on,65,41,0
1,note_on,65,0,60
1,note_on,59,0,0
1,note_on,70,50,0
1,note_on,70,0,60
1,note_on,61,42,0
1,note_on,58,42,0
1,note_on,58,0,60
1,note_on,61,0,0
1,note_on,69,51,0
1,note_on,69,0,60
1,note_on,57,42,0
1,note_on,60,42,0
1,note_on,60,0,60
1,note_on,57,0,0
1,note_on,68,52,0
1,note_on,68,0,60
1,note_on,56,43,0
1,note_on,60,43,0
1,note_on,60,0,60
1,note_on,56,0,0
1,note_on,66,52,0
1,note_on,66,0,60
1,note_on,54,44,0
1,note_on,60,44,0
1,note_on,60,0,60
1,note_on,54,0,0
1,note_on,65,59,0
1,note_on,56,59,0
1,note_on,56,0,120
1,note_on,65,0,0
1,note_on,62,83,0
1,note_on,56,71,0
1,note_on,53,71,0
1,note_on,53,0,60
1,note_on,56,0,0
1,note_on,62,0,0
1,note_on,56,65,60
1,note_on,61,77,0
1,note_on,53,65,0
1,note_on,53,0,60
1,note_on,61,0,0
1,note_on,56,0,0
1,note_on,60,77,60
1,note_on,53,65,0
1,note_on,56,65,0
1,note_on,56,0,60
1,note_on,53,0,0
1,note_on,60,0,0
1,note_on,53,71,60
1,note_on,56,71,0
1,note_on,59,83,0
1,note_on,59,0,60
1,note_on,56,0,0
1,note_on,53,0,0
1,note_on,56,65,60
1,note_on,62,77,0
1,note_on,53,65,0
1,note_on,53,0,60
1,note_on,62,0,0
1,note_on,56,0,0
1,note_on,61,83,60
1,note_on,56,71,0
1,note_on,53,71,0
1,note_on,61,0,60
1,note_on,60,75,0
1,note_on,60,0,60
1,note_on,53,0,0
1,note_on,56,0,0
1,note_on,59,75,0
1,note_on,59,0,120
1,note_on,68,33,120
1,note_on,65,33,0
1,note_on,74,39,0
1,note_on,74,0,60
1,note_on,65,0,0
1,note_on,68,0,0
1,note_on,65,30,60
1,note_on,68,30,0
1,note_on,73,36,0
1,note_on,73,0,60
1,note_on,68,0,0
1,note_on,65,0,0
1,note_on,65,30,60
1,note_on,72,36,0
1,note_on,68,30,0
1,note_on,68,0,60
1,note_on,72,0,0
1,note_on,65,0,0
1,note_on,65,33,60
1,note_on,68,33,0
1,note_on,71,39,0
1,note_on,71,0,60
1,note_on,68,0,0
1,note_on,65,0,0
1,note_on,68,30,60
1,note_on,65,30,0
1,note_on,74,36,0
1,note_on,74,0,60
1,note_on,65,0,0
1,note_on,68,0,0
1,note_on,73,39,60
1,note_on,65,33,0
1,note_on,68,33,0
1,note_on,73,0,60
1,note_on,72,36,0
1,note_on,72,0,60
1,note_on,68,0,0
1,note_on,65,0,0
1,note_on,71,36,0
1,note_on,71,0,120
1,note_on,65,71,120
1,note_on,56,71,0
1,note_on,62,83,0
1,note_on,62,0,60
1,note_on,56,0,0
1,note_on,65,0,0
1,note_on,65,65,60
1,note_on,61,77,0
1,note_on,56,65,0
1,note_on,56,0,60
1,note_on,61,0,0
1,note_on,65,0,0
1,note_on,56,65,60
1,note_on,65,65,0
1,note_on,60,77,0
1,note_on,60,0,60
1,note_on,65,0,0
1,note_on,56,0,0
1,note_on,65,71,60
1,note_on,56,71,0
1,note_on,59,83,0
1,note_on,59,0,60
1,note_on,56,0,0
1,note_on,65,0,0
1,note_on,62,77,60
1,note_on,65,65,0
1,note_on,56,65,0
1,note_on,56,0,60
1,note_on,65,0,0
1,note_on,62,0,0
1,note_on,61,83,60
1,note_on,56,71,0
1,note_on,65,71,0
1,note_on,61,0,60
1,note_on,60,75,0
1,note_on,60,0,60
1,note_on,65,0,0
1,note_on,56,0,0
1,note_on,59,75,0
1,note_on,59,0,120
1,note_on,77,33,120
1,note_on,74,39,0
1,note_on,68,33,0
1,note_on,68,0,60
1,note_on,74,0,0
1,note_on,77,0,0
1,note_on,68,30,60
1,note_on,73,36,0
1,note_on,77,30,0
1,note_on,77,0,60
1,note_on,73,0,0
1,note_on,68,0,0
1,note_on,68,30,60
1,note_on,72,36,0
1,note_on,77,30,0
1,note_on,77,0,60
1,note_on,72,0,0
1,note_on,68,0,0
1,note_on,77,33,60
1,note_on,71,39,0
1,note_on,68,33,0
1,note_on,68,0,60
1,note_on,71,0,0
1,note_on,77,0,0
1,note_on,68,30,60
1,note_on,77,30,0
1,note_on,74,36,0
1,note_on,74,0,60
1,note_on,77,0,0
1,note_on,68,0,0
1,note_on,77,33,60
1,note_on,73,39,0
1,note_on,68,33,0
1,note_on,73,0,60
1,note_on,72,36,0
1,note_on,72,0,60
1,note_on,68,0,0
1,note_on,77,0,0
1,note_on,71,36,0
1,note_on,71,0,120
1,note_on,71,33,120
1,note_on,77,39,0
1,note_on,80,33,0
1,note_on,80,0,60
1,note_on,77,0,0
1,note_on,71,0,0
1,note_on,76,36,60
1,note_on,71,30,0
1,note_on,80,30,0
1,note_on,80,0,60
1,note_on,71,0,0
1,note_on,76,0,0
1,note_on,80,30,60
1,note_on,75,36,0
1,note_on,71,30,0
1,note_on,71,0,60
1,note_on,75,0,0
1,note_on,80,0,0
1,note_on,74,39,60
1,note_on,80,33,0
1,note_on,71,33,0
1,note_on,71,0,60
1,note_on,80,0,0
1,note_on,74,0,0
1,note_on,80,36,60
1,note_on,74,30,0
1,note_on,83,30,0
1,note_on,83,0,60
1,note_on,74,0,0
1,note_on,80,0,0
1,note_on,79,39,60
1,note_on,74,33,0
1,note_on,83,33,0
1,note_on,79,0,60
1,note_on,78,36,0
1,note_on,78,0,60
1,note_on,83,0,0
1,note_on,74,0,0
1,note_on,77,36,0
1,note_on,77,0,120
1,note_on,77,37,0
1,note_on,86,37,0
1,note_on,86,0,240
1,note_on,77,0,0
1,note_on,89,38,0
1,note_on,80,38,0
1,note_on,80,0,240
1,note_on,89,0,0
1,note_on,83,39,0
1,note_on,92,39,0
1,note_on,92,0,240
1,note_on,83,0,0
1,note_on,86,37,0
1,note_on,95,37,0
1,note_on,95,0,240
1,note_on,86,0,0
1,note_on,89,48,0
1,note_on,98,48,0
1,note_on,98,0,240
1,note_on,89,0,0
1,note_on,98,45,0
1,note_on,89,45,0
1,note_on,89,0,240
1,note_on,98,0,0
1,note_on,98,49,0
1,note_on,89,49,0
1,note_on,89,0,240
1,note_on,98,0,0
1,note_on,89,45,0
1,note_on,98,45,0
1,note_on,98,0,240
1,note_on,89,0,0
1,note_on,77,26,3840
1,note_on,77,0,60
1,note_on,78,23,0
1,note_on,78,0,60
1,note_on,77,26,0
1,note_on,77,0,60
1,note_on,78,23,0
1,note_on,78,0,60
1,note_on,70,33,0
1,note_on,76,26,0
1,note_on,76,0,60
1,note_on,78,23,0
1,note_on,78,0,60
1,note_on,70,0,0
1,note_on,76,30,0
1,note_on,71,30,0
1,note_on,76,0,60
1,note_on,78,23,0
1,note_on,78,0,60
1,note_on,71,0,0
1,note_on,76,26,0
1,note_on,72,35,0
1,note_on,76,0,60
1,note_on,78,23,0
1,note_on,78,0,60
1,note_on,72,0,0
1,note_on,76,26,0
1,note_on,73,31,0
1,note_on,76,0,60
1,note_on,78,23,0
1,note_on,78,0,60
1,note_on,73,0,0
1,note_on,73,36,0
1,note_on,76,26,0
1,note_on,76,0,60
1,note_on,78,23,0
1,note_on,78,0,60
1,note_on,73,0,0
1,note_on,76,26,0
1,note_on,74,31,0
1,note_on,76,0,60
1,note_on,78,23,0
1,note_on,78,0,60
1,note_on,74,0,0
1,note_on,73,27,0
1,note_on,76,27,0
1,note_on,76,0,60
1,note_on,73,0,0
1,note_on,78,23,0
1,note_on,78,0,60
1,note_on,76,23,0
1,note_on,85,47,0
1,note_on,85,0,60
1,note_on,76,0,0
1,note_on,78,19,0
1,note_on,73,19,0
1,note_on,73,0,60
1,note_on,78,0,0
1,note_on,76,24,0
1,note_on,83,47,0
1,note_on,83,0,60
1,note_on,76,0,0
1,note_on,78,19,0
1,note_on,73,19,0
1,note_on,73,0,60
1,note_on,78,0,0
1,note_on,76,24,0
1,note_on,81,42,0
1,note_on,81,0,60
1,note_on,76,0,0
1,note_on,78,20,0
1,note_on,73,20,0
1,note_on,73,0,60
1,note_on,78,0,0
1,note_on,74,25,0
1,note_on,81,47,0
1,note_on,81,0,60
1,note_on,74,0,0
1,note_on,71,21,0
1,note_on,76,21,0
1,note_on,76,0,60
1,note_on,71,0,0
1,note_on,74,24,0
1,note_on,80,43,0
1,note_on,80,0,60
1,note_on,74,0,0
1,note_on,76,19,0
1,note_on,71,19,0
1,note_on,71,0,60
1,note_on,76,0,0
1,note_on,74,24,0
1,note_on,79,47,0
1,note_on,79,0,60
1,note_on,74,0,0
1,note_on,71,18,0
1,note_on,78,38,0
1,note_on,78,0,60
1,note_on,71,0,0
1,note_on,77,47,0
1,note_on,74,23,0
1,note_on,74,0,60
1,note_on,77,0,0
1,note_on,71,19,0
1,note_on,71,0,60
1,note_on,73,24,0
1,note_on,76,47,0
1,note_on,76,0,60
1,note_on,73,0,0
1,note_on,69,22,0
1,note_on,69,0,60
1,note_on,73,22,0
1,note_on,73,0,60
1,note_on,78,22,0
1,note_on,78,0,60
1,note_on,70,33,0
1,note_on,76,26,0
1,note_on,76,0,60
1,note_on,78,23,0
1,note_on,78,0,60
1,note_on,70,0,0
1,note_on,71,30,0
1,note_on,76,30,0
1,note_on,76,0,60
1,note_on,78,23,0
1,note_on,78,0,60
1,note_on,71,0,0
1,note_on,76,26,0
1,note_on,72,35,0
1,note_on,76,0,60
1,note_on,78,23,0
1,note_on,78,0,60
1,note_on,72,0,0
1,note_on,76,26,0
1,note_on,73,31,0
1,note_on,76,0,60
1,note_on,78,23,0
1,note_on,78,0,60
1,note_on,73,0,0
1,note_on,73,36,0
1,note_on,76,26,0
1,note_on,76,0,60
1,note_on,78,23,0
1,note_on,78,0,60
1,note_on,73,0,0
1,note_on,74,31,0
1,note_on,76,26,0
1,note_on,76,0,60
1,note_on,78,23,0
1,note_on,78,0,60
1,note_on,74,0,0
1,note_on,73,27,0
1,note_on,76,27,0
1,note_on,76,0,60
1,note_on,73,0,0
1,note_on,78,23,0
1,note_on,78,0,60
1,note_on,85,51,0
1,note_on,76,23,0
1,note_on,76,0,60
1,note_on,85,0,0
1,note_on,78,19,0
1,note_on,73,19,0
1,note_on,73,0,60
1,note_on,78,0,0
1,note_on,76,24,0
1,note_on,83,51,0
1,note_on,83,0,60
1,note_on,76,0,0
1,note_on,78,19,0
1,note_on,73,19,0
1,note_on,73,0,60
1,note_on,78,0,0
1,note_on,76,24,0
1,note_on,81,49,0
1,note_on,81,0,60
1,note_on,76,0,0
1,note_on,73,20,0
1,note_on,78,20,0
1,note_on,78,0,60
1,note_on,73,0,0
1,note_on,74,25,0
1,note_on,81,51,0
1,note_on,81,0,60
1,note_on,74,0,0
1,note_on,71,21,0
1,note_on,76,21,0
1,note_on,76,0,60
1,note_on,71,0,0
1,note_on,74,24,0
1,note_on,80,49,0
1,note_on,80,0,60
1,note_on,74,0,0
1,note_on,76,19,0
1,note_on,71,19,0
1,note_on,71,0,60
1,note_on,76,0,0
1,note_on,74,24,0
1,note_on,79,51,0
1,note_on,79,0,60
1,note_on,74,0,0
1,note_on,71,18,0
1,note_on,78,32,0
1,note_on,78,0,60
1,note_on,71,0,0
1,note_on,77,51,0
1,note_on,74,23,0
1,note_on,74,0,60
1,note_on,77,0,0
1,note_on,71,23,0
1,note_on,71,0,60
1,note_on,76,51,0
1,note_on,73,29,0
1,note_on,73,0,60
1,note_on,76,0,0
1,note_on,69,22,0
1,note_on,69,0,60
1,note_on,73,22,0
1,note_on,73,0,60
1,note_on,80,22,0
1,note_on,80,0,60
1,note_on,81,26,0
1,note_on,75,33,0
1,note_on,81,0,60
1,note_on,82,23,0
1,note_on,82,0,60
1,note_on,75,0,0
1,note_on,76,30,0
1,note_on,81,30,0
1,note_on,81,0,60
1,note_on,82,23,0
1,note_on,82,0,60
1,note_on,76,0,0
1,note_on,81,26,0
1,note_on,76,35,0
1,note_on,81,0,60
1,note_on,82,23,0
1,note_on,82,0,60
1,note_on,76,0,0
1,note_on,77,31,0
1,note_on,81,26,0
1,note_on,81,0,60
1,note_on,82,23,0
1,note_on,82,0,60
1,note_on,77,0,0
1,note_on,81,26,0
1,note_on,78,36,0
1,note_on,81,0,60
1,note_on,82,23,0
1,note_on,82,0,60
1,note_on,78,0,0
1,note_on,79,31,0
1,note_on,81,26,0
1,note_on,81,0,60
1,note_on,82,23,0
1,note_on,82,0,60
1,note_on,79,0,0
1,note_on,81,27,0
1,note_on,77,27,0
1,note_on,77,0,60
1,note_on,81,0,0
1,note_on,82,23,0
1,note_on,82,0,60
1,note_on,89,56,0
1,note_on,81,23,0
1,note_on,81,0,60
1,note_on,89,0,0
1,note_on,82,19,0
1,note_on,77,19,0
1,note_on,77,0,60
1,note_on,82,0,0
1,note_on,88,56,0
1,note_on,81,24,0
1,note_on,81,0,60
1,note_on,88,0,0
1,note_on,77,19,0
1,note_on,82,19,0
1,note_on,82,0,60
1,note_on,77,0,0
1,note_on,81,24,0
1,note_on,86,52,0
1,note_on,86,0,60
1,note_on,81,0,0
1,note_on,82,24,0
1,note_on,77,20,0
1,note_on,77,0,60
1,note_on,82,0,0
1,note_on,86,56,0
1,note_on,79,25,0
1,note_on,79,0,60
1,note_on,86,0,0
1,note_on,81,21,0
1,note_on,76,21,0
1,note_on,76,0,60
1,note_on,81,0,0
1,note_on,85,52,0
1,note_on,79,24,0
1,note_on,79,0,60
1,note_on,85,0,0
1,note_on,76,19,0
1,note_on,81,19,0
1,note_on,81,0,60
1,note_on,76,0,0
1,note_on,79,24,0
1,note_on,84,56,0
1,note_on,84,0,60
1,note_on,79,0,0
1,note_on,83,46,0
1,note_on,76,18,0
1,note_on,76,0,60
1,note_on,83,0,0
1,note_on,82,49,0
1,note_on,79,23,0
1,note_on,79,0,60
1,note_on,82,0,0
1,note_on,76,19,0
1,note_on,76,0,60
1,note_on,77,29,0
1,note_on,81,56,0
1,note_on,81,0,60
1,note_on,77,0,0
1,note_on,74,22,0
1,note_on,74,0,60
1,note_on,77,22,0
1,note_on,77,0,60
1,note_on,82,22,0
1,note_on,82,0,60
1,note_on,75,33,0
1,note_on,81,26,0
1,note_on,81,0,60
1,note_on,82,23,0
1,note_on,82,0,60
1,note_on,75,0,0
1,note_on,81,30,0
1,note_on,76,30,0
1,note_on,81,0,60
1,note_on,82,23,0
1,note_on,82,0,60
1,note_on,76,0,0
1,note_on,76,35,0
1,note_on,81,26,0
1,note_on,81,0,60
1,note_on,82,23,0
1,note_on,82,0,60
1,note_on,76,0,0
1,note_on,77,31,0
1,note_on,81,26,0
1,note_on,81,0,60
1,note_on,82,23,0
1,note_on,82,0,60
1,note_on,77,0,0
1,note_on,78,36,0
1,note_on,81,26,0
1,note_on,81,0,60
1,note_on,82,23,0
1,note_on,82,0,60
1,note_on,78,0,0
1,note_on,81,26,0
1,note_on,79,31,0
1,note_on,81,0,60
1,note_on,82,23,0
1,note_on,82,0,60
1,note_on,79,0,0
1,note_on,77,27,0
1,note_on,81,27,0
1,note_on,81,0,60
1,note_on,77,0,0
1,note_on,82,23,0
1,note_on,82,0,60
1,note_on,89,51,0
1,note_on,81,23,0
1,note_on,81,0,60
1,note_on,89,0,0
1,note_on,82,19,0
1,note_on,77,19,0
1,note_on,77,0,60
1,note_on,82,0,0
1,note_on,81,24,0
1,note_on,88,51,0
1,note_on,88,0,60
1,note_on,81,0,0
1,note_on,82,19,0
1,note_on,77,19,0
1,note_on,77,0,60
1,note_on,82,0,0
1,note_on,86,49,0
1,note_on,81,24,0
1,note_on,81,0,60
1,note_on,86,0,0
1,note_on,82,20,0
1,note_on,77,20,0
1,note_on,77,0,60
1,note_on,82,0,0
1,note_on,86,51,0
1,note_on,79,25,0
1,note_on,79,0,60
1,note_on,86,0,0
1,note_on,76,21,0
1,note_on,81,21,0
1,note_on,81,0,60
1,note_on,76,0,0
1,note_on,85,49,0
1,note_on,79,24,0
1,note_on,79,0,60
1,note_on,85,0,0
1,note_on,76,19,0
1,note_on,81,23,0
1,note_on,81,0,60
1,note_on,76,0,0
1,note_on,79,24,0
1,note_on,84,51,0
1,note_on,84,0,60
1,note_on,79,0,0
1,note_on,83,43,0
1,note_on,76,18,0
1,note_on,76,0,60
1,note_on,83,0,0
1,note_on,82,51,0
1,note_on,79,23,0
1,note_on,79,0,60
1,note_on,82,0,0
1,note_on,76,19,0
1,note_on,76,0,60
1,note_on,77,29,0
1,note_on,81,51,0
1,note_on,81,0,60
1,note_on,77,0,0
1,note_on,74,22,0
1,note_on,74,0,60
1,note_on,77,22,0
1,note_on,77,0,60
1,note_on,86,22,0
1,note_on,86,0,60
1,note_on,89,45,0
1,note_on,77,37,0
1,note_on,77,0,60
1,note_on,86,36,0
1,note_on,84,29,0
1,note_on,84,0,60
1,note_on,86,0,0
1,note_on,89,0,0
1,note_on,89,38,0
1,note_on,77,31,0
1,note_on,77,0,60
1,note_on,89,0,0
1,note_on,84,29,0
1,note_on,87,36,0
1,note_on,87,0,60
1,note_on,84,0,0
1,note_on,87,48,0
1,note_on,77,39,0
1,note_on,77,0,60
1,note_on,85,35,0
1,note_on,82,28,0
1,note_on,82,0,60
1,note_on,85,0,0
1,note_on,87,0,0
1,note_on,87,38,0
1,note_on,77,31,0
1,note_on,77,0,60
1,note_on,87,0,0
1,note_on,82,29,0
1,note_on,86,36,0
1,note_on,86,0,60
1,note_on,82,0,0
1,note_on,86,45,0
1,note_on,75,45,0
1,note_on,75,0,60
1,note_on,83,33,0
1,note_on,81,27,0
1,note_on,81,0,60
1,note_on,83,0,0
1,note_on,86,0,0
1,note_on,75,31,0
1,note_on,86,38,0
1,note_on,86,0,60
1,note_on,75,0,0
1,note_on,81,35,0
1,note_on,84,35,0
1,note_on,84,0,60
1,note_on,81,0,0
1,note_on,84,45,0
1,note_on,74,37,0
1,note_on,74,0,60
1,note_on,77,27,0
1,note_on,81,33,0
1,note_on,81,0,60
1,note_on,77,0,0
1,note_on,84,0,0
1,note_on,84,38,0
1,note_on,74,31,0
1,note_on,74,0,60
1,note_on,84,0,0
1,note_on,77,35,0
1,note_on,82,35,0
1,note_on,82,0,60
1,note_on,77,0,0
1,note_on,72,35,0
1,note_on,83,42,0
1,note_on,72,0,60
1,note_on,80,33,0
1,note_on,78,33,0
1,note_on,78,0,60
1,note_on,80,0,0
1,note_on,83,0,0
1,note_on,72,29,0
1,note_on,83,36,0
1,note_on,83,0,60
1,note_on,72,0,0
1,note_on,78,32,0
1,note_on,81,32,0
1,note_on,81,0,60
1,note_on,78,0,0
1,note_on,81,41,0
1,note_on,71,35,0
1,note_on,71,0,60
1,note_on,79,32,0
1,note_on,76,27,0
1,note_on,76,0,60
1,note_on,79,0,0
1,note_on,81,0,0
1,note_on,71,29,0
1,note_on,81,36,0
1,note_on,81,0,60
1,note_on,71,0,0
1,note_on,80,31,0
1,note_on,76,26,0
1,note_on,76,0,60
1,note_on,80,0,0
1,note_on,69,35,0
1,note_on,80,41,0
1,note_on,69,0,60
1,note_on,77,31,0
1,note_on,75,26,0
1,note_on,75,0,60
1,note_on,77,0,0
1,note_on,80,0,0
1,note_on,69,29,0
1,note_on,80,36,0
1,note_on,80,0,60
1,note_on,69,0,0
1,note_on,78,31,0
1,note_on,75,26,0
1,note_on,75,0,60
1,note_on,78,0,0
1,note_on,78,38,0
1,note_on,68,32,0
1,note_on,68,0,60
1,note_on,75,29,0
1,note_on,71,24,0
1,note_on,71,0,60
1,note_on,75,0,0
1,note_on,78,0,0
1,note_on,68,29,0
1,note_on,78,36,0
1,note_on,78,0,60
1,note_on,68,0,0
1,note_on,76,30,0
1,note_on,71,25,0
1,note_on,71,0,60
1,note_on,76,0,0
1,note_on,72,28,0
1,note_on,76,33,0
1,note_on,76,0,60
1,note_on,74,28,0
1,note_on,74,0,60
1,note_on,72,0,0
1,note_on,76,33,0
1,note_on,69,28,0
1,note_on,76,0,60
1,note_on,75,28,0
1,note_on,75,0,60
1,note_on,69,0,0
1,note_on,74,26,0
1,note_on,78,31,0
1,note_on,78,0,60
1,note_on,75,27,0
1,note_on,75,0,60
1,note_on,74,0,0
1,note_on,71,27,0
1,note_on,78,32,0
1,note_on,78,0,60
1,note_on,76,25,0
1,note_on,76,0,60
1,note_on,71,0,0
1,note_on,76,30,0
1,note_on,69,25,0
1,note_on,69,0,60
1,note_on,76,0,0
1,note_on,74,26,0
1,note_on,74,0,60
1,note_on,76,31,0
1,note_on,76,0,60
1,note_on,75,26,0
1,note_on,75,0,60
1,note_on,78,32,0
1,note_on,71,27,0
1,note_on,71,0,60
1,note_on,78,0,0
1,note_on,76,28,0
1,note_on,76,0,60
1,note_on,78,31,0
1,note_on,78,0,60
1,note_on,77,28,0
1,note_on,77,0,60
1,note_on,76,33,0
1,note_on,76,0,60
1,note_on,78,30,0
1,note_on,78,0,60
1,note_on,76,33,0
1,note_on,76,0,60
1,note_on,90,39,0
1,note_on,90,0,60
1,note_on,88,39,0
1,note_on,88,0,60
1,note_on,78,33,0
1,note_on,78,0,60
1,note_on,76,33,0
1,note_on,76,0,60
1,note_on,66,30,0
1,note_on,66,0,60
1,note_on,64,33,0
1,note_on,64,0,60
1,note_on,66,29,0
1,note_on,66,0,60
1,note_on,64,33,0
1,note_on,64,0,60
1,note_on,78,32,0
1,note_on,78,0,60
1,note_on,76,27,0
1,note_on,76,0,60
1,note_on,78,23,0
1,note_on,73,23,0
1,note_on,73,0,60
1,note_on,78,0,0
1,note_on,85,51,0
1,note_on,76,28,0
1,note_on,76,0,60
1,note_on,85,0,0
1,note_on,73,23,0
1,note_on,78,23,0
1,note_on,78,0,60
1,note_on,73,0,0
1,note_on,83,51,0
1,note_on,76,29,0
1,note_on,76,0,60
1,note_on,83,0,0
1,note_on,73,23,0
1,note_on,78,23,0
1,note_on,78,0,60
1,note_on,73,0,0
1,note_on,81,49,0
1,note_on,76,29,0
1,note_on,76,0,60
1,note_on,81,0,0
1,note_on,73,24,0
1,note_on,78,24,0
1,note_on,78,0,60
1,note_on,73,0,0
1,note_on,81,51,0
1,note_on,74,30,0
1,note_on,74,0,60
1,note_on,81,0,0
1,note_on,71,25,0
1,note_on,76,25,0
1,note_on,76,0,60
1,note_on,71,0,0
1,note_on,74,29,0
1,note_on,80,42,0
1,note_on,80,0,60
1,note_on,74,0,0
1,note_on,71,23,0
1,note_on,76,23,0
1,note_on,76,0,60
1,note_on,71,0,0
1,note_on,79,45,0
1,note_on,74,29,0
1,note_on,74,0,60
1,note_on,79,0,0
1,note_on,71,22,0
1,note_on,78,41,0
1,note_on,78,0,60
1,note_on,71,0,0
1,note_on,77,51,0
1,note_on,74,28,0
1,note_on,74,0,60
1,note_on,77,0,0
1,note_on,71,23,0
1,note_on,71,0,60
1,note_on,76,51,0
1,note_on,73,29,0
1,note_on,73,0,60
1,note_on,76,0,0
1,note_on,69,22,0
1,note_on,69,0,60
1,note_on,73,22,0
1,note_on,73,0,60
1,note_on,78,22,0
1,note_on,78,0,60
1,note_on,76,33,0
1,note_on,76,0,60
1,note_on,78,30,0
1,note_on,78,0,60
1,note_on,76,33,0
1,note_on,76,0,60
1,note_on,90,39,0
1,note_on,90,0,60
1,note_on,88,39,0
1,note_on,88,0,60
1,note_on,78,33,0
1,note_on,78,0,60
1,note_on,76,30,0
1,note_on,76,0,60
1,note_on,66,33,0
1,note_on,66,0,60
1,note_on,64,30,0
1,note_on,66,33,60
1,note_on,64,0,56
1,note_on,66,0,4
1,note_on,64,30,0
1,note_on,64,0,60
1,note_on,78,33,0
1,note_on,78,0,60
1,note_on,76,27,0
1,note_on,76,0,60
1,note_on,78,23,0
1,note_on,73,23,0
1,note_on,73,0,60
1,note_on,78,0,0
1,note_on,85,51,0
1,note_on,76,28,0
1,note_on,76,0,60
1,note_on,85,0,0
1,note_on,78,23,0
1,note_on,73,23,0
1,note_on,73,0,60
1,note_on,78,0,0
1,note_on,76,29,0
1,note_on,83,51,0
1,note_on,83,0,60
1,note_on,76,0,0
1,note_on,78,23,0
1,note_on,73,23,0
1,note_on,73,0,60
1,note_on,78,0,0
1,note_on,76,29,0
1,note_on,81,48,0
1,note_on,81,0,60
1,note_on,76,0,0
1,note_on,78,24,0
1,note_on,73,24,0
1,note_on,73,0,60
1,note_on,78,0,0
1,note_on,81,51,0
1,note_on,74,30,0
1,note_on,74,0,60
1,note_on,81,0,0
1,note_on,71,25,0
1,note_on,76,25,0
1,note_on,76,0,60
1,note_on,71,0,0
1,note_on,74,29,0
1,note_on,80,48,0
1,note_on,80,0,60
1,note_on,74,0,0
1,note_on,76,23,0
1,note_on,71,23,0
1,note_on,71,0,60
1,note_on,76,0,0
1,note_on,74,29,0
1,note_on,79,51,0
1,note_on,79,0,60
1,note_on,74,0,0
1,note_on,78,38,0
1,note_on,71,22,0
1,note_on,71,0,60
1,note_on,78,0,0
1,note_on,77,51,0
1,note_on,74,28,0
1,note_on,74,0,60
1,note_on,77,0,0
1,note_on,71,23,0
1,note_on,71,0,60
1,note_on,76,51,0
1,note_on,73,29,0
1,note_on,73,0,60
1,note_on,76,0,0
1,note_on,69,22,0
1,note_on,69,0,60
1,note_on,73,22,0
1,note_on,73,0,60
1,note_on,80,25,0
1,note_on,80,0,60
1,note_on,81,33,0
1,note_on,81,0,60
1,note_on,82,30,0
1,note_on,82,0,60
1,note_on,81,33,0
1,note_on,81,0,60
1,note_on,94,38,0
1,note_on,94,0,60
1,note_on,93,38,0
1,note_on,93,0,60
1,note_on,82,33,0
1,note_on,82,0,60
1,note_on,81,31,0
1,note_on,81,0,60
1,note_on,70,33,0
1,note_on,70,0,60
1,note_on,69,30,0
1,note_on,70,33,60
1,note_on,69,0,55
1,note_on,70,0,5
1,note_on,69,31,0
1,note_on,69,0,60
1,note_on,82,33,0
1,note_on,82,0,60
1,note_on,81,27,0
1,note_on,81,0,60
1,note_on,77,23,0
1,note_on,82,23,0
1,note_on,82,0,60
1,note_on,77,0,0
1,note_on,81,28,0
1,note_on,89,51,0
1,note_on,89,0,60
1,note_on,81,0,0
1,note_on,82,23,0
1,note_on,77,23,0
1,note_on,77,0,60
1,note_on,82,0,0
1,note_on,81,29,0
1,note_on,88,51,0
1,note_on,88,0,60
1,note_on,81,0,0
1,note_on,82,23,0
1,note_on,77,23,0
1,note_on,77,0,60
1,note_on,82,0,0
1,note_on,86,49,0
1,note_on,81,29,0
1,note_on,81,0,60
1,note_on,86,0,0
1,note_on,77,24,0
1,note_on,82,24,0
1,note_on,82,0,60
1,note_on,77,0,0
1,note_on,86,51,0
1,note_on,79,30,0
1,note_on,79,0,60
1,note_on,86,0,0
1,note_on,81,25,0
1,note_on,76,25,0
1,note_on,76,0,60
1,note_on,81,0,0
1,note_on,85,49,0
1,note_on,79,29,0
1,note_on,79,0,60
1,note_on,85,0,0
1,note_on,81,23,0
1,note_on,76,23,0
1,note_on,76,0,60
1,note_on,81,0,0
1,note_on,79,29,0
1,note_on,84,51,0
1,note_on,84,0,60
1,note_on,79,0,0
1,note_on,83,42,0
1,note_on,76,22,0
1,note_on,76,0,60
1,note_on,83,0,0
1,note_on,82,51,0
1,note_on,79,28,0
1,note_on,79,0,60
1,note_on,82,0,0
1,note_on,76,23,0
1,note_on,76,0,60
1,note_on,77,29,0
1,note_on,81,51,0
1,note_on,81,0,60
1,note_on,77,0,0
1,note_on,74,22,0
1,note_on,74,0,60
1,note_on,77,22,0
1,note_on,77,0,60
1,note_on,82,22,0
1,note_on,82,0,60
1,note_on,81,33,0
1,note_on,81,0,60
1,note_on,82,29,0
1,note_on,82,0,60
1,note_on,81,33,0
1,note_on,81,0,60
1,note_on,94,38,0
1,note_on,94,0,60
1,note_on,93,38,0
1,note_on,93,0,60
1,note_on,82,33,0
1,note_on,82,0,60
1,note_on,81,31,0
1,note_on,81,0,60
1,note_on,70,33,0
1,note_on,70,0,60
1,note_on,69,31,0
1,note_on,69,0,60
1,note_on,70,33,0
1,note_on,70,0,60
1,note_on,69,30,0
1,note_on,69,0,60
1,note_on,82,33,0
1,note_on,82,0,60
1,note_on,81,27,0
1,note_on,81,0,60
1,note_on,77,23,0
1,note_on,82,23,0
1,note_on,82,0,60
1,note_on,77,0,0
1,note_on,89,51,0
1,note_on,81,28,0
1,note_on,81,0,60
1,note_on,89,0,0
1,note_on,77,23,0
1,note_on,82,23,0
1,note_on,82,0,60
1,note_on,77,0,0
1,note_on,81,29,0
1,note_on,88,51,0
1,note_on,88,0,60
1,note_on,81,0,0
1,note_on,77,23,0
1,note_on,82,23,0
1,note_on,82,0,60
1,note_on,77,0,0
1,note_on,81,29,0
1,note_on,86,49,0
1,note_on,86,0,60
1,note_on,81,0,0
1,note_on,82,24,0
1,note_on,77,24,0
1,note_on,77,0,60
1,note_on,82,0,0
1,note_on,86,45,0
1,note_on,79,30,0
1,note_on,79,0,60
1,note_on,86,0,0
1,note_on,81,25,0
1,note_on,76,25,0
1,note_on,76,0,60
1,note_on,81,0,0
1,note_on,79,29,0
1,note_on,85,49,0
1,note_on,85,0,60
1,note_on,79,0,0
1,note_on,76,23,0
1,note_on,81,23,0
1,note_on,81,0,60
1,note_on,76,0,0
1,note_on,84,51,0
1,note_on,79,29,0
1,note_on,79,0,60
1,note_on,84,0,0
1,note_on,83,42,0
1,note_on,76,22,0
1,note_on,76,0,60
1,note_on,83,0,0
1,note_on,79,28,0
1,note_on,82,51,0
1,note_on,82,0,60
1,note_on,79,0,0
1,note_on,76,23,0
1,note_on,76,0,60
1,note_on,81,51,0
1,note_on,77,29,0
1,note_on,77,0,60
1,note_on,81,0,0
1,note_on,74,22,0
1,note_on,74,0,60
1,note_on,77,22,0
1,note_on,77,0,60
1,note_on,86,25,0
1,note_on,86,0,60
1,note_on,89,53,0
1,note_on,77,44,0
1,note_on,77,0,60
1,note_on,84,44,0
1,note_on,81,44,0
1,note_on,81,0,60
1,note_on,84,0,0
1,note_on,75,41,0
1,note_on,75,0,60
1,note_on,89,0,0
1,note_on,87,49,0
1,note_on,87,0,60
1,note_on,85,57,0
1,note_on,73,46,0
1,note_on,73,0,60
1,note_on,82,41,0
1,note_on,77,41,0
1,note_on,77,0,60
1,note_on,82,0,0
1,note_on,74,45,0
1,note_on,74,0,60
1,note_on,85,0,0
1,note_on,86,50,0
1,note_on,86,0,60
1,note_on,80,54,0
1,note_on,68,54,0
1,note_on,68,0,60
1,note_on,75,39,0
1,note_on,72,31,0
1,note_on,72,0,60
1,note_on,75,0,0
1,note_on,69,43,0
1,note_on,69,0,60
1,note_on,80,0,0
1,note_on,81,51,0
1,note_on,81,0,60
1,note_on,72,46,0
1,note_on,84,55,0
1,note_on,72,0,60
1,note_on,77,47,0
1,note_on,74,47,0
1,note_on,74,0,60
1,note_on,77,0,0
1,note_on,70,43,0
1,note_on,70,0,60
1,note_on,84,0,0
1,note_on,82,43,0
1,note_on,82,0,60
1,note_on,77,47,0
1,note_on,89,56,0
1,note_on,77,0,60
1,note_on,84,47,0
1,note_on,81,47,0
1,note_on,81,0,60
1,note_on,84,0,0
1,note_on,75,44,0
1,note_on,75,0,60
1,note_on,89,0,0
1,note_on,87,52,0
1,note_on,87,0,60
1,note_on,73,49,0
1,note_on,85,61,0
1,note_on,73,0,60
1,note_on,82,43,0
1,note_on,77,43,0
1,note_on,77,0,60
1,note_on,82,0,0
1,note_on,74,48,0
1,note_on,74,0,60
1,note_on,85,0,0
1,note_on,86,53,0
1,note_on,86,0,60
1,note_on,80,58,0
1,note_on,68,58,0
1,note_on,68,0,60
1,note_on,75,41,0
1,note_on,72,33,0
1,note_on,72,0,60
1,note_on,75,0,0
1,note_on,69,46,0
1,note_on,69,0,60
1,note_on,80,0,0
1,note_on,81,54,0
1,note_on,81,0,60
1,note_on,84,58,0
1,note_on,72,49,0
1,note_on,72,0,60
1,note_on,74,49,0
1,note_on,77,49,0
1,note_on,77,0,60
1,note_on,74,0,0
1,note_on,70,46,0
1,note_on,70,0,60
1,note_on,84,0,0
1,note_on,82,46,0
1,note_on,82,0,60
1,note_on,82,56,0
1,note_on,94,70,0
1,note_on,82,0,60
1,note_on,89,56,0
1,note_on,86,56,0
1,note_on,86,0,60
1,note_on,89,0,0
1,note_on,80,54,0
1,note_on,80,0,60
1,note_on,94,0,0
1,note_on,92,63,0
1,note_on,92,0,60
1,note_on,77,60,0
1,note_on,89,72,0
1,note_on,77,0,60
1,note_on,87,51,0
1,note_on,82,51,0
1,note_on,82,0,60
1,note_on,87,0,0
1,note_on,78,59,0
1,note_on,78,0,60
1,note_on,89,0,0
1,note_on,90,64,0
1,note_on,90,0,60
1,note_on,73,71,0
1,note_on,85,71,0
1,note_on,73,0,60
1,note_on,77,41,0
1,note_on,80,51,0
1,note_on,80,0,60
1,note_on,77,0,0
1,note_on,74,56,0
1,note_on,74,0,60
1,note_on,85,0,0
1,note_on,86,66,0
1,note_on,86,0,60
1,note_on,89,72,0
1,note_on,77,58,0
1,note_on,77,0,60
1,note_on,78,59,0
1,note_on,82,59,0
1,note_on,82,0,60
1,note_on,78,0,0
1,note_on,75,56,0
1,note_on,75,0,60
1,note_on,89,0,0
1,note_on,87,56,0
1,note_on,87,0,60
1,note_on,94,81,0
1,note_on,82,66,0
1,note_on,82,0,60
1,note_on,86,66,0
1,note_on,89,66,0
1,note_on,89,0,60
1,note_on,86,0,0
1,note_on,80,61,0
1,note_on,80,0,60
1,note_on,94,0,0
1,note_on,92,74,0
1,note_on,92,0,60
1,note_on,89,84,0
1,note_on,77,69,0
1,note_on,77,0,60
1,note_on,87,60,0
1,note_on,82,60,0
1,note_on,82,0,60
1,note_on,87,0,0
1,note_on,78,68,0
1,note_on,78,0,60
1,note_on,89,0,0
1,note_on,90,74,0
1,note_on,90,0,60
1,note_on,85,83,0
1,note_on,73,83,0
1,note_on,73,0,60
1,note_on,80,60,0
1,note_on,77,46,0
1,note_on,77,0,60
1,note_on,80,0,0
1,note_on,74,64,0
1,note_on,74,0,60
1,note_on,85,0,0
1,note_on,86,76,0
1,note_on,86,0,60
1,note_on,77,68,0
1,note_on,89,84,0
1,note_on,77,0,60
1,note_on,82,69,0
1,note_on,78,69,0
1,note_on,78,0,60
1,note_on,82,0,0
1,note_on,75,64,0
1,note_on,75,0,60
1,note_on,89,0,0
1,note_on,87,64,0
1,note_on,87,0,60
1,note_on,85,75,0
1,note_on,97,91,0
1,note_on,85,0,60
1,note_on,90,75,0
1,note_on,90,0,60
1,note_on,85,70,0
1,note_on,85,0,60
1,note_on,97,0,0
1,note_on,97,83,0
1,note_on,97,0,60
1,note_on,100,92,0
1,note_on,88,80,0
1,note_on,88,0,60
1,note_on,90,68,0
1,note_on,90,0,60
1,note_on,87,78,0
1,note_on,87,0,60
1,note_on,100,0,0
1,note_on,99,82,0
1,note_on,99,0,60
1,note_on,81,91,0
1,note_on,93,91,0
1,note_on,81,0,60
1,note_on,90,67,0
1,note_on,88,53,0
1,note_on,88,0,60
1,note_on,90,0,0
1,note_on,82,72,0
1,note_on,82,0,60
1,note_on,93,0,0
1,note_on,94,83,0
1,note_on,94,0,60
1,note_on,97,91,0
1,note_on,85,75,0
1,note_on,85,0,60
1,note_on,90,75,0
1,note_on,87,75,0
1,note_on,87,0,60
1,note_on,90,0,0
1,note_on,83,70,0
1,note_on,83,0,60
1,note_on,97,0,0
1,note_on,95,70,0
1,note_on,95,0,60
1,note_on,91,56,0
1,note_on,96,66,0
1,note_on,96,0,60
1,note_on,91,0,0
1,note_on,85,46,0
1,note_on,94,56,0
1,note_on,94,0,60
1,note_on,85,0,0
1,note_on,96,56,0
1,note_on,91,46,0
1,note_on,91,0,60
1,note_on,96,0,0
1,note_on,85,46,0
1,note_on,94,56,0
1,note_on,94,0,60
1,note_on,85,0,0
1,note_on,93,60,0
1,note_on,88,50,0
1,note_on,88,0,60
1,note_on,93,0,0
1,note_on,82,42,0
1,note_on,91,49,0
1,note_on,91,0,60
1,note_on,82,0,0
1,note_on,93,49,0
1,note_on,88,41,0
1,note_on,88,0,60
1,note_on,93,0,0
1,note_on,82,41,0
1,note_on,91,49,0
1,note_on,91,0,60
1,note_on,82,0,0
1,note_on,90,58,0
1,note_on,85,50,0
1,note_on,85,0,60
1,note_on,90,0,0
1,note_on,79,40,0
1,note_on,88,48,0
1,note_on,88,0,60
1,note_on,79,0,0
1,note_on,90,47,0
1,note_on,85,40,0
1,note_on,85,0,60
1,note_on,90,0,0
1,note_on,88,46,0
1,note_on,79,39,0
1,note_on,79,0,60
1,note_on,88,0,0
1,note_on,87,51,0
1,note_on,79,43,0
1,note_on,79,0,60
1,note_on,87,0,0
1,note_on,76,33,0
1,note_on,85,40,0
1,note_on,85,0,60
1,note_on,76,0,0
1,note_on,79,33,0
1,note_on,87,40,0
1,note_on,87,0,60
1,note_on,79,0,0
1,note_on,76,32,0
1,note_on,85,39,0
1,note_on,85,0,60
1,note_on,76,0,0
1,note_on,79,40,0
1,note_on,84,49,0
1,note_on,84,0,60
1,note_on,79,0,0
1,note_on,73,31,0
1,note_on,81,38,0
1,note_on,81,0,60
1,note_on,73,0,0
1,note_on,79,31,0
1,note_on,84,38,0
1,note_on,84,0,60
1,note_on,79,0,0
1,note_on,73,31,0
1,note_on,82,37,0
1,note_on,82,0,60
1,note_on,73,0,0
1,note_on,81,43,0
1,note_on,76,37,0
1,note_on,76,0,60
1,note_on,81,0,0
1,note_on,70,29,0
1,note_on,78,34,0
1,note_on,78,0,60
1,note_on,70,0,0
1,note_on,76,29,0
1,note_on,81,34,0
1,note_on,81,0,60
1,note_on,76,0,0
1,note_on,70,28,0
1,note_on,79,33,0
1,note_on,79,0,60
1,note_on,70,0,0
1,note_on,77,42,0
1,note_on,73,34,0
1,note_on,73,0,60
1,note_on,77,0,0
1,note_on,67,25,0
1,note_on,75,30,0
1,note_on,75,0,60
1,note_on,67,0,0
1,note_on,77,30,0
1,note_on,73,25,0
1,note_on,73,0,60
1,note_on,77,0,0
1,note_on,76,31,0
1,note_on,67,26,0
1,note_on,67,0,60
1,note_on,76,0,0
1,note_on,70,32,0
1,note_on,79,42,0
1,note_on,74,32,0
1,note_on,74,0,60
1,note_on,70,0,0
1,note_on,65,29,0
1,note_on,65,0,60
1,note_on,70,36,0
1,note_on,70,0,60
1,note_on,79,0,0
1,note_on,77,33,0
1,note_on,77,0,60
1,note_on,74,42,0
1,note_on,68,32,0
1,note_on,68,0,60
1,note_on,65,32,0
1,note_on,65,0,60
1,note_on,68,32,0
1,note_on,68,0,60
1,note_on,74,0,0
1,note_on,75,33,0
1,note_on,75,0,60
1,note_on,64,32,0
1,note_on,74,42,0
1,note_on,70,32,0
1,note_on,70,0,60
1,note_on,64,0,0
1,note_on,67,32,0
1,note_on,67,0,60
1,note_on,64,32,0
1,note_on,64,0,60
1,note_on,74,0,0
1,note_on,72,33,0
1,note_on,72,0,60
1,note_on,63,32,0
1,note_on,67,42,0
1,note_on,63,0,60
1,note_on,60,32,0
1,note_on,60,0,60
1,note_on,63,32,0
1,note_on,63,0,60
1,note_on,67,0,0
1,note_on,69,33,0
1,note_on,69,0,60
1,note_on,70,32,0
1,note_on,79,42,0
1,note_on,74,32,0
1,note_on,74,0,60
1,note_on,70,0,0
1,note_on,65,29,0
1,note_on,65,0,60
1,note_on,70,36,0
1,note_on,70,0,60
1,note_on,79,0,0
1,note_on,77,33,0
1,note_on,77,0,60
1,note_on,68,32,0
1,note_on,74,42,0
1,note_on,68,0,60
1,note_on,65,32,0
1,note_on,65,0,60
1,note_on,68,32,0
1,note_on,68,0,60
1,note_on,74,0,0
1,note_on,75,33,0
1,note_on,75,0,60
1,note_on,74,42,0
1,note_on,70,32,0
1,note_on,64,32,0
1,note_on,64,0,60
1,note_on,70,0,0
1,note_on,67,32,0
1,note_on,67,0,60
1,note_on,64,32,0
1,note_on,64,0,60
1,note_on,74,0,0
1,note_on,72,33,0
1,note_on,72,0,60
1,note_on,63,32,0
1,note_on,67,42,0
1,note_on,63,0,60
1,note_on,60,32,0
1,note_on,60,0,60
1,note_on,63,32,0
1,note_on,63,0,60
1,note_on,67,0,0
1,note_on,69,33,0
1,note_on,69,0,60
1,note_on,62,32,0
1,note_on,72,42,0
1,note_on,62,0,60
1,note_on,65,29,0
1,note_on,65,0,60
1,note_on,62,36,0
1,note_on,62,0,60
1,note_on,72,0,0
1,note_on,70,33,0
1,note_on,70,0,60
1,note_on,56,32,0
1,note_on,67,42,0
1,note_on,56,0,60
1,note_on,62,32,0
1,note_on,62,0,60
1,note_on,56,32,0
1,note_on,56,0,60
1,note_on,67,0,0
1,note_on,62,28,0
1,note_on,65,33,0
1,note_on,65,0,60
1,note_on,62,0,0
1,note_on,65,42,0
1,note_on,55,32,0
1,note_on,55,0,60
1,note_on,60,32,0
1,note_on,60,0,60
1,note_on,55,32,0
1,note_on,55,0,60
1,note_on,65,0,0
1,note_on,63,33,0
1,note_on,60,28,0
1,note_on,60,0,60
1,note_on,63,0,0
1,note_on,51,32,0
1,note_on,60,42,0
1,note_on,51,0,60
1,note_on,57,32,0
1,note_on,57,0,60
1,note_on,51,32,0
1,note_on,51,0,60
1,note_on,60,0,0
1,note_on,62,33,0
1,note_on,57,32,0
1,note_on,57,0,60
1,note_on,62,0,0
1,note_on,65,33,120
1,note_on,62,33,0
1,note_on,74,39,0
1,note_on,74,0,60
1,note_on,62,0,0
1,note_on,65,0,0
1,note_on,62,30,60
1,note_on,72,36,0
1,note_on,65,30,0
1,note_on,65,0,60
1,note_on,72,0,0
1,note_on,62,0,0
1,note_on,62,30,60
1,note_on,65,30,0
1,note_on,71,36,0
1,note_on,71,0,60
1,note_on,65,0,0
1,note_on,62,0,0
1,note_on,65,33,60
1,note_on,62,33,0
1,note_on,70,39,0
1,note_on,70,0,60
1,note_on,62,0,0
1,note_on,65,0,0
1,note_on,62,30,60
1,note_on,74,36,0
1,note_on,65,30,0
1,note_on,65,0,60
1,note_on,74,0,0
1,note_on,62,0,0
1,note_on,72,39,60
1,note_on,65,33,0
1,note_on,62,33,0
1,note_on,72,0,60
1,note_on,71,36,0
1,note_on,71,0,60
1,note_on,62,0,0
1,note_on,65,0,0
1,note_on,70,36,0
1,note_on,70,0,120
1,note_on,77,39,120
1,note_on,65,33,0
1,note_on,70,33,0
1,note_on,70,0,60
1,note_on,65,0,0
1,note_on,77,0,0
1,note_on,65,30,60
1,note_on,76,36,0
1,note_on,70,30,0
1,note_on,70,0,60
1,note_on,76,0,0
1,note_on,65,0,0
1,note_on,75,36,60
1,note_on,65,30,0
1,note_on,70,30,0
1,note_on,70,0,60
1,note_on,65,0,0
1,note_on,75,0,0
1,note_on,70,33,60
1,note_on,65,33,0
1,note_on,74,39,0
1,note_on,74,0,60
1,note_on,65,0,0
1,note_on,70,0,0
1,note_on,77,36,60
1,note_on,65,30,0
1,note_on,70,30,0
1,note_on,70,0,60
1,note_on,65,0,0
1,note_on,77,0,0
1,note_on,65,33,60
1,note_on,70,33,0
1,note_on,76,39,0
1,note_on,76,0,60
1,note_on,75,36,0
1,note_on,75,0,60
1,note_on,70,0,0
1,note_on,65,0,0
1,note_on,74,36,0
1,note_on,74,0,120
1,note_on,82,39,120
1,note_on,73,33,0
1,note_on,70,33,0
1,note_on,70,0,60
1,note_on,73,0,0
1,note_on,82,0,0
1,note_on,73,30,60
1,note_on,70,30,0
1,note_on,80,36,0
1,note_on,80,0,60
1,note_on,70,0,0
1,note_on,73,0,0
1,note_on,70,30,60
1,note_on,79,36,0
1,note_on,73,30,0
1,note_on,73,0,60
1,note_on,79,0,0
1,note_on,70,0,0
1,note_on,70,33,60
1,note_on,73,33,0
1,note_on,78,39,0
1,note_on,78,0,60
1,note_on,73,0,0
1,note_on,70,0,0
1,note_on,82,36,60
1,note_on,73,30,0
1,note_on,70,30,0
1,note_on,70,0,60
1,note_on,73,0,0
1,note_on,82,0,0
1,note_on,70,33,60
1,note_on,80,39,0
1,note_on,73,33,0
1,note_on,80,0,60
1,note_on,79,36,0
1,note_on,79,0,60
1,note_on,73,0,0
1,note_on,70,0,0
1,note_on,78,36,0
1,note_on,78,0,120
1,note_on,72,33,120
1,note_on,78,39,0
1,note_on,69,33,0
1,note_on,69,0,60
1,note_on,78,0,0
1,note_on,72,0,0
1,note_on,72,30,60
1,note_on,77,36,0
1,note_on,69,30,0
1,note_on,69,0,60
1,note_on,77,0,0
1,note_on,72,0,0
1,note_on,72,30,60
1,note_on,69,30,0
1,note_on,76,36,0
1,note_on,76,0,60
1,note_on,69,0,0
1,note_on,72,0,0
1,note_on,72,33,60
1,note_on,69,33,0
1,note_on,75,39,0
1,note_on,75,0,60
1,note_on,69,0,0
1,note_on,72,0,0
1,note_on,69,30,60
1,note_on,72,36,0
1,note_on,72,0,60
1,note_on,69,0,0
1,note_on,79,39,60
1,note_on,72,33,0
1,note_on,69,33,0
1,note_on,79,0,60
1,note_on,78,36,0
1,note_on,78,0,60
1,note_on,69,0,0
1,note_on,72,0,0
1,note_on,77,36,0
1,note_on,77,0,120
1,note_on,74,39,120
1,note_on,62,33,0
1,note_on,62,0,60
1,note_on,74,0,0
1,note_on,66,31,0
1,note_on,66,0,60
1,note_on,72,36,0
1,note_on,62,30,0
1,note_on,62,0,60
1,note_on,72,0,0
1,note_on,67,28,0
1,note_on,67,0,60
1,note_on,62,30,0
1,note_on,71,36,0
1,note_on,71,0,60
1,note_on,62,0,0
1,note_on,66,29,0
1,note_on,66,0,60
1,note_on,62,33,0
1,note_on,70,39,0
1,note_on,70,0,60
1,note_on,62,0,0
1,note_on,67,31,0
1,note_on,67,0,60
1,note_on,62,30,0
1,note_on,74,36,0
1,note_on,74,0,60
1,note_on,62,0,0
1,note_on,66,29,0
1,note_on,66,0,60
1,note_on,72,39,0
1,note_on,62,33,0
1,note_on,72,0,60
1,note_on,71,36,0
1,note_on,71,0,60
1,note_on,62,0,0
1,note_on,70,36,0
1,note_on,70,0,120
1,note_on,77,39,120
1,note_on,65,33,0
1,note_on,65,0,60
1,note_on,77,0,0
1,note_on,71,31,0
1,note_on,71,0,60
1,note_on,76,36,0
1,note_on,65,30,0
1,note_on,65,0,60
1,note_on,76,0,0
1,note_on,72,28,0
1,note_on,72,0,60
1,note_on,75,36,0
1,note_on,65,30,0
1,note_on,65,0,60
1,note_on,75,0,0
1,note_on,71,29,0
1,note_on,71,0,60
1,note_on,65,33,0
1,note_on,74,39,0
1,note_on,74,0,60
1,note_on,65,0,0
1,note_on,72,31,0
1,note_on,72,0,60
1,note_on,65,30,0
1,note_on,77,36,0
1,note_on,77,0,60
1,note_on,65,0,0
1,note_on,71,29,0
1,note_on,71,0,60
1,note_on,65,33,0
1,note_on,76,39,0
1,note_on,76,0,60
1,note_on,75,36,0
1,note_on,75,0,60
1,note_on,65,0,0
1,note_on,74,36,0
1,note_on,74,0,120
1,note_on,70,30,120
1,note_on,82,37,0
1,note_on,73,29,0
1,note_on,73,0,60
1,note_on,82,0,0
1,note_on,70,0,0
1,note_on,70,35,60
1,note_on,73,35,0
1,note_on,80,41,0
1,note_on,80,0,60
1,note_on,79,39,0
1,note_on,79,0,60
1,note_on,73,0,0
1,note_on,70,0,0
1,note_on,78,39,0
1,note_on,78,0,120
1,note_on,78,34,120
1,note_on,87,42,0
1,note_on,75,35,0
1,note_on,75,0,60
1,note_on,87,0,0
1,note_on,78,0,0
1,note_on,75,40,60
1,note_on,78,40,0
1,note_on,85,47,0
1,note_on,85,0,60
1,note_on,84,44,0
1,note_on,84,0,60
1,note_on,78,0,0
1,note_on,75,0,0
1,note_on,83,45,0
1,note_on,83,0,120
1,note_on,87,42,120
1,note_on,84,42,0
1,note_on,93,50,0
1,note_on,93,0,60
1,note_on,84,0,0
1,note_on,87,0,0
1,note_on,84,45,60
1,note_on,92,54,0
1,note_on,87,45,0
1,note_on,87,0,60
1,note_on,92,0,0
1,note_on,84,0,0
1,note_on,84,45,60
1,note_on,87,45,0
1,note_on,91,53,0
1,note_on,91,0,60
1,note_on,87,0,0
1,note_on,84,0,0
1,note_on,87,42,60
1,note_on,90,50,0
1,note_on,84,42,0
1,note_on,84,0,60
1,note_on,90,0,0
1,note_on,87,0,0
1,note_on,81,42,60
1,note_on,84,42,0
1,note_on,89,50,0
1,note_on,89,0,60
1,note_on,84,0,0
1,note_on,81,0,0
1,note_on,88,49,60
1,note_on,84,41,0
1,note_on,81,41,0
1,note_on,81,0,60
1,note_on,84,0,0
1,note_on,88,0,0
1,note_on,84,40,60
1,note_on,81,40,0
1,note_on,87,48,0
1,note_on,87,0,60
1,note_on,81,0,0
1,note_on,84,0,0
1,note_on,81,45,60
1,note_on,78,45,0
1,note_on,86,53,0
1,note_on,86,0,60
1,note_on,78,0,0
1,note_on,81,0,0
1,note_on,78,45,60
1,note_on,85,54,0
1,note_on,81,45,0
1,note_on,81,0,60
1,note_on,85,0,0
1,note_on,78,0,0
1,note_on,78,45,60
1,note_on,81,45,0
1,note_on,84,54,0
1,note_on,84,0,60
1,note_on,81,0,0
1,note_on,78,0,0
1,note_on,78,46,60
1,note_on,75,46,0
1,note_on,83,55,0
1,note_on,83,0,60
1,note_on,75,0,0
1,note_on,78,0,0
1,note_on,82,57,60
1,note_on,78,46,0
1,note_on,75,46,0
1,note_on,75,0,60
1,note_on,78,0,0
1,note_on,82,0,0
1,note_on,72,48,60
1,note_on,75,48,0
1,note_on,81,58,0
1,note_on,81,0,60
1,note_on,75,0,0
1,note_on,72,0,0
1,note_on,75,49,60
1,note_on,72,49,0
1,note_on,80,58,0
1,note_on,80,0,60
1,note_on,72,0,0
1,note_on,75,0,0
1,note_on,75,50,60
1,note_on,79,59,0
1,note_on,72,50,0
1,note_on,72,0,60
1,note_on,79,0,0
1,note_on,75,0,0
1,note_on,72,50,60
1,note_on,78,62,0
1,note_on,75,50,0
1,note_on,75,0,60
1,note_on,78,0,0
1,note_on,72,0,0
1,note_on,77,59,60
1,note_on,75,50,0
1,note_on,72,50,0
1,note_on,72,0,60
1,note_on,75,0,0
1,note_on,77,0,0
1,note_on,75,48,60
1,note_on,79,58,0
1,note_on,79,0,60
1,note_on,75,0,0
1,note_on,77,55,60
1,note_on,75,46,0
1,note_on,75,0,60
1,note_on,77,0,0
1,note_on,75,37,60
1,note_on,78,45,0
1,note_on,78,0,120
1,note_on,75,0,0
1,note_on,75,37,0
1,note_on,77,37,0
1,note_on,77,0,120
1,note_on,75,0,0
1,note_on,75,37,0
1,note_on,79,45,0
1,note_on,79,0,120
1,note_on,75,0,0
1,note_on,77,38,0
1,note_on,75,32,0
1,note_on,75,0,120
1,note_on,77,0,0
1,note_on,78,45,0
1,note_on,75,37,0
1,note_on,75,0,120
1,note_on,78,0,0
1,note_on,77,37,0
1,note_on,75,31,0
1,note_on,75,0,120
1,note_on,77,0,0
1,note_on,79,42,0
1,note_on,75,35,0
1,note_on,75,0,120
1,note_on,79,0,0
1,note_on,75,29,0
1,note_on,77,36,0
1,note_on,77,0,120
1,note_on,75,0,0
1,note_on,75,33,0
1,note_on,79,39,0
1,note_on,79,0,120
1,note_on,75,0,0
1,note_on,75,28,0
1,note_on,77,33,0
1,note_on,77,0,120
1,note_on,75,0,0
1,note_on,75,31,0
1,note_on,79,37,0
1,note_on,79,0,120
1,note_on,75,0,0
1,note_on,75,26,0
1,note_on,77,31,0
1,note_on,77,0,120
1,note_on,75,0,0
1,note_on,77,35,0
1,note_on,74,28,0
1,note_on,74,0,120
1,note_on,77,0,0
1,note_on,62,35,120
1,note_on,63,35,60
1,note_on,62,0,12
1,note_on,62,35,48
1,note_on,63,0,12
1,note_on,64,35,48
1,note_on,62,0,12
1,note_on,65,36,48
1,note_on,64,0,12
1,note_on,66,36,48
1,note_on,65,0,12
1,note_on,65,36,48
1,note_on,66,0,12
1,note_on,67,36,48
1,note_on,65,0,12
1,note_on,68,36,48
1,note_on,67,0,12
1,note_on,69,36,48
1,note_on,68,0,12
1,note_on,68,37,48
1,note_on,69,0,12
1,note_on,70,37,48
1,note_on,68,0,12
1,note_on,71,37,48
1,note_on,70,0,12
1,note_on,72,37,48
1,note_on,71,0,12
1,note_on,71,38,48
1,note_on,72,0,12
1,note_on,73,38,48
1,note_on,71,0,12
1,note_on,74,38,48
1,note_on,73,0,12
1,note_on,75,39,48
1,note_on,74,0,12
1,note_on,74,39,48
1,note_on,75,0,12
1,note_on,76,39,48
1,note_on,74,0,12
1,note_on,77,39,48
1,note_on,76,0,12
1,note_on,78,38,48
1,note_on,77,0,12
1,note_on,77,38,48
1,note_on,78,0,12
1,note_on,79,38,48
1,note_on,77,0,12
1,note_on,80,38,48
1,note_on,79,0,12
1,note_on,81,39,48
1,note_on,80,0,12
1,note_on,80,39,48
1,note_on,81,0,12
1,note_on,83,39,48
1,note_on,80,0,12
1,note_on,86,39,48
1,note_on,83,0,12
1,note_on,86,0,48
1,note_on,87,41,0
1,note_on,87,0,60
1,note_on,86,41,0
1,note_on,86,0,60
1,note_on,89,41,0
1,note_on,89,0,60
1,note_on,90,41,0
1,note_on,90,0,60
1,note_on,91,42,0
1,note_on,91,0,60
1,note_on,90,42,0
1,note_on,90,0,60
1,note_on,92,42,0
1,note_on,92,0,60
1,note_on,93,43,0
1,note_on,93,0,60
1,note_on,94,43,0
1,note_on,94,0,60
1,note_on,93,43,0
1,note_on,93,0,60
1,note_on,97,43,0
1,note_on,97,0,60
1,note_on,98,44,0
1,note_on,98,0,60
1,note_on,97,44,0
1,note_on,97,0,60
1,note_on,98,44,0
1,note_on,98,0,60
1,note_on,97,44,0
1,note_on,97,0,60
1,note_on,96,45,0
1,note_on,99,55,0
1,note_on,96,0,60
1,note_on,95,39,0
1,note_on,95,0,60
1,note_on,96,39,0
1,note_on,96,0,60
1,note_on,94,39,0
1,note_on,94,0,60
1,note_on,99,0,0
1,note_on,93,39,0
1,note_on,93,0,60
1,note_on,91,39,0
1,note_on,91,0,60
1,note_on,92,39,0
1,note_on,92,0,60
1,note_on,90,39,0
1,note_on,90,0,60
1,note_on,89,45,0
1,note_on,101,54,0
1,note_on,89,0,60
1,note_on,88,39,0
1,note_on,88,0,60
1,note_on,89,39,0
1,note_on,89,0,60
1,note_on,87,39,0
1,note_on,87,0,60
1,note_on,101,0,0
1,note_on,86,39,0
1,note_on,86,0,60
1,note_on,85,39,0
1,note_on,85,0,60
1,note_on,84,39,0
1,note_on,84,0,60
1,note_on,83,39,0
1,note_on,83,0,40
1,note_on,82,49,10
1,note_on,98,58,10
1,note_on,98,0,60
1,note_on,82,0,0
1,note_on,53,30,420
1,note_on,62,30,0
1,note_on,59,30,0
1,note_on,56,30,0
1,note_on,56,0,480
1,note_on,53,0,0
1,note_on,62,0,0
1,note_on,59,0,0
1,note_on,86,46,120
1,note_on,80,33,0
1,note_on,77,33,0
1,note_on,77,0,60
1,note_on,80,0,0
1,note_on,86,0,0
1,note_on,85,46,60
1,note_on,80,33,0
1,note_on,77,33,0
1,note_on,77,0,60
1,note_on,80,0,0
1,note_on,85,0,0
1,note_on,77,33,60
1,note_on,84,46,0
1,note_on,80,33,0
1,note_on,80,0,60
1,note_on,84,0,0
1,note_on,77,0,0
1,note_on,83,46,60
1,note_on,80,33,0
1,note_on,74,33,0
1,note_on,83,0,60
1,note_on,86,49,60
1,note_on,86,0,60
1,note_on,74,0,60
1,note_on,80,0,0
1,note_on,74,27,0
1,note_on,85,50,0
1,note_on,77,29,0
1,note_on,77,0,60
1,note_on,85,0,0
1,note_on,74,0,0
1,note_on,84,46,0
1,note_on,84,0,60
1,note_on,83,46,0
1,note_on,83,0,60
1,note_on,86,30,60
1,note_on,78,30,0
1,note_on,93,38,0
1,note_on,93,0,120
1,note_on,78,0,0
1,note_on,86,0,0
1,note_on,96,38,840
1,note_on,87,30,0
1,note_on,79,30,0
1,note_on,79,0,120
1,note_on,87,0,0
1,note_on,96,0,0
1,note_on,87,30,360
1,note_on,93,30,0
1,note_on,101,38,0
1,note_on,101,0,120
1,note_on,93,0,0
1,note_on,87,0,0
1,note_on,86,30,360
1,note_on,101,38,0
1,note_on,94,30,0
1,note_on,94,0,60
1,note_on,101,0,0
1,note_on,86,0,0
1,note_on,50,31,60
1,note_on,50,0,60
1,note_on,48,36,60
1,note_on,48,0,60
1,note_on,47,32,60
1,note_on,47,0,60
1,note_on,46,36,60
1,note_on,46,0,60
1,note_on,50,32,60
1,note_on,50,0,60
1,note_on,48,36,60
1,note_on,48,0,60
1,note_on,47,31,0
1,note_on,47,0,60
1,note_on,46,31,0
1,note_on,46,0,60
1,note_on,87,37,180
1,note_on,87,0,60
1,note_on,84,37,0
1,note_on,84,0,60
1,note_on,80,36,0
1,note_on,80,0,60
1,note_on,77,36,0
1,note_on,77,0,60
1,note_on,81,36,0
1,note_on,81,0,60
1,note_on,78,35,0
1,note_on,78,0,60
1,note_on,74,35,0
1,note_on,74,0,60
1,note_on,71,33,0
1,note_on,71,0,60
1,note_on,75,33,0
1,note_on,75,0,60
1,note_on,72,32,0
1,note_on,72,0,60
1,note_on,68,32,0
1,note_on,68,0,60
1,note_on,65,31,0
1,note_on,65,0,60
1,note_on,69,30,0
1,note_on,69,0,60
1,note_on,78,30,0
1,note_on,78,0,60
1,note_on,77,38,0
1,note_on,70,38,0
1,note_on,70,0,120
1,note_on,77,0,0
1,note_on,50,31,0
1,note_on,50,0,60
1,note_on,48,36,60
1,note_on,48,0,60
1,note_on,47,32,60
1,note_on,47,0,60
1,note_on,46,36,60
1,note_on,46,0,60
1,note_on,50,32,60
1,note_on,50,0,60
1,note_on,48,36,60
1,note_on,48,0,60
1,note_on,47,31,0
1,note_on,47,0,60
1,note_on,46,31,0
1,note_on,46,0,60
1,note_on,87,37,180
1,note_on,87,0,60
1,note_on,84,37,0
1,note_on,84,0,60
1,note_on,80,36,0
1,note_on,80,0,60
1,note_on,77,36,0
1,note_on,77,0,60
1,note_on,81,36,0
1,note_on,81,0,60
1,note_on,78,35,0
1,note_on,78,0,60
1,note_on,74,35,0
1,note_on,74,0,60
1,note_on,71,33,0
1,note_on,71,0,60
1,note_on,75,33,0
1,note_on,75,0,60
1,note_on,72,32,0
1,note_on,72,0,60
1,note_on,68,32,0
1,note_on,68,0,60
1,note_on,65,31,0
1,note_on,65,0,60
1,note_on,69,30,0
1,note_on,69,0,60
1,note_on,78,30,0
1,note_on,78,0,39
1,note_on,60,36,21
1,note_on,66,36,0
1,note_on,66,0,60
1,note_on,60,0,0
1,note_on,90,41,60
1,note_on,90,0,60
1,note_on,87,41,0
1,note_on,87,0,60
1,note_on,83,39,0
1,note_on,83,0,60
1,note_on,80,39,0
1,note_on,80,0,60
1,note_on,84,38,0
1,note_on,84,0,60
1,note_on,81,37,0
1,note_on,81,0,60
1,note_on,77,37,0
1,note_on,77,0,60
1,note_on,74,36,0
1,note_on,74,0,60
1,note_on,78,36,0
1,note_on,78,0,60
1,note_on,75,36,0
1,note_on,75,0,60
1,note_on,71,36,0
1,note_on,71,0,60
1,note_on,68,35,0
1,note_on,68,0,60
1,note_on,72,33,0
1,note_on,72,0,60
1,note_on,81,33,0
1,note_on,81,0,60
1,note_on,69,36,0
1,note_on,63,36,0
1,note_on,63,0,60
1,note_on,69,0,0
1,note_on,93,41,60
1,note_on,93,0,60
1,note_on,90,41,0
1,note_on,90,0,60
1,note_on,86,39,0
1,note_on,86,0,60
1,note_on,83,39,0
1,note_on,83,0,60
1,note_on,87,38,0
1,note_on,87,0,60
1,note_on,84,37,0
1,note_on,84,0,60
1,note_on,96,37,0
1,note_on,96,0,60
1,note_on,93,36,0
1,note_on,93,0,60
1,note_on,89,36,0
1,note_on,89,0,60
1,note_on,86,36,0
1,note_on,86,0,60
1,note_on,90,36,0
1,note_on,90,0,60
1,note_on,87,35,0
1,note_on,87,0,60
1,note_on,99,33,0
1,note_on,99,0,60
1,note_on,96,33,0
1,note_on,96,0,60
1,note_on,92,41,0
1,note_on,92,0,60
1,note_on,89,36,0
1,note_on,89,0,60
1,note_on,93,42,0
1,note_on,93,0,60
1,note_on,90,36,0
1,note_on,90,0,60
1,note_on,100,38,0
1,note_on,100,0,60
1,note_on,87,31,0
1,note_on,87,0,60
1,note_on,101,36,0
1,note_on,101,0,60
1,note_on,87,27,0
1,note_on,87,0,60
1,note_on,100,45,0
1,note_on,100,0,60
1,note_on,87,27,0
1,note_on,87,0,60
1,note_on,101,42,0
1,note_on,101,0,60
1,note_on,87,29,0
1,note_on,87,0,60
1,note_on,100,37,0
1,note_on,100,0,60
1,note_on,87,29,0
1,note_on,87,0,60
1,note_on,101,37,0
1,note_on,101,0,60
1,note_on,87,29,0
1,note_on,87,0,60
1,note_on,101,43,0
1,note_on,101,0,120
1,note_on,90,28,0
1,note_on,98,35,0
1,note_on,98,0,60
1,note_on,90,0,0
1,note_on,94,31,0
1,note_on,89,26,0
1,note_on,89,0,60
1,note_on,94,0,0
1,note_on,86,25,0
1,note_on,90,30,0
1,note_on,90,0,60
1,note_on,86,0,0
1,note_on,89,29,0
1,note_on,82,24,0
1,note_on,82,0,60
1,note_on,89,0,0
1,note_on,78,23,0
1,note_on,86,28,0
1,note_on,86,0,60
1,note_on,78,0,0
1,note_on,82,28,0
1,note_on,77,23,0
1,note_on,77,0,60
1,note_on,82,0,0
1,note_on,78,27,0
1,note_on,74,22,0
1,note_on,74,0,60
1,note_on,78,0,0
1,note_on,77,28,0
1,note_on,70,23,0
1,note_on,70,0,60
1,note_on,77,0,0
1,note_on,78,29,0
1,note_on,74,24,0
1,note_on,74,0,60
1,note_on,78,0,0
1,note_on,77,25,0
1,note_on,82,30,0
1,note_on,82,0,60
1,note_on,77,0,0
1,note_on,86,31,0
1,note_on,78,26,0
1,note_on,78,0,60
1,note_on,86,0,0
1,note_on,82,27,0
1,note_on,89,32,0
1,note_on,89,0,60
1,note_on,82,0,0
1,note_on,90,33,0
1,note_on,86,28,0
1,note_on,86,0,60
1,note_on,90,0,0
1,note_on,94,35,0
1,note_on,89,28,0
1,note_on,89,0,60
1,note_on,94,0,0
1,note_on,82,29,0
1,note_on,98,36,0
1,note_on,98,0,60
1,note_on,82,0,0
1,note_on,86,32,60
1,note_on,78,27,0
1,note_on,78,0,60
1,note_on,86,0,0
1,note_on,82,29,0
1,note_on,77,24,0
1,note_on,77,0,60
1,note_on,82,0,0
1,note_on,74,23,0
1,note_on,78,28,0
1,note_on,78,0,60
1,note_on,74,0,0
1,note_on,70,22,0
1,note_on,77,28,0
1,note_on,77,0,60
1,note_on,70,0,0
1,note_on,74,27,0
1,note_on,66,22,0
1,note_on,66,0,60
1,note_on,74,0,0
1,note_on,65,22,0
1,note_on,70,26,0
1,note_on,70,0,60
1,note_on,65,0,0
1,note_on,62,21,0
1,note_on,66,25,0
1,note_on,66,0,60
1,note_on,62,0,0
1,note_on,65,26,0
1,note_on,58,22,0
1,note_on,58,0,60
1,note_on,65,0,0
1,note_on,62,22,0
1,note_on,66,28,0
1,note_on,66,0,60
1,note_on,62,0,0
1,note_on,70,28,0
1,note_on,65,23,0
1,note_on,65,0,60
1,note_on,70,0,0
1,note_on,66,24,0
1,note_on,74,29,0
1,note_on,74,0,60
1,note_on,66,0,0
1,note_on,77,30,0
1,note_on,70,25,0
1,note_on,70,0,60
1,note_on,77,0,0
1,note_on,78,31,0
1,note_on,74,26,0
1,note_on,74,0,60
1,note_on,78,0,0
1,note_on,77,27,0
1,note_on,82,32,0
1,note_on,82,0,60
1,note_on,77,0,0
1,note_on,86,33,0
1,note_on,70,28,0
1,note_on,70,0,60
1,note_on,86,0,0
1,note_on,74,29,60
1,note_on,66,29,0
1,note_on,66,0,60
1,note_on,74,0,0
1,note_on,70,28,0
1,note_on,65,28,0
1,note_on,65,0,60
1,note_on,70,0,0
1,note_on,62,27,0
1,note_on,66,27,0
1,note_on,66,0,60
1,note_on,62,0,0
1,note_on,58,26,0
1,note_on,65,26,0
1,note_on,65,0,60
1,note_on,58,0,0
1,note_on,54,24,0
1,note_on,62,24,0
1,note_on,62,0,60
1,note_on,54,0,0
1,note_on,53,23,0
1,note_on,58,23,0
1,note_on,58,0,60
1,note_on,53,0,0
1,note_on,62,22,0
1,note_on,54,22,0
1,note_on,54,0,60
1,note_on,62,0,0
1,note_on,58,21,0
1,note_on,65,21,0
1,note_on,65,0,60
1,note_on,58,0,0
1,note_on,62,21,0
1,note_on,66,21,0
1,note_on,66,0,60
1,note_on,62,0,0
1,note_on,70,22,0
1,note_on,65,22,0
1,note_on,65,0,60
1,note_on,70,0,0
1,note_on,74,22,0
1,note_on,66,22,0
1,note_on,66,0,60
1,note_on,74,0,0
1,note_on,70,24,0
1,note_on,77,24,0
1,note_on,77,0,60
1,note_on,70,0,0
1,note_on,74,26,0
1,note_on,78,26,0
1,note_on,78,0,60
1,note_on,74,0,0
1,note_on,77,27,0
1,note_on,82,27,0
1,note_on,82,0,60
1,note_on,77,0,0
1,note_on,86,28,0
1,note_on,78,28,0
1,note_on,78,0,60
1,note_on,86,0,0
1,note_on,82,29,0
1,note_on,89,29,0
1,note_on,89,0,60
1,note_on,82,0,0
1,note_on,86,30,0
1,note_on,90,30,0
1,note_on,90,0,60
1,note_on,86,0,0
1,note_on,94,32,0
1,note_on,89,32,0
1,note_on,89,0,60
1,note_on,94,0,0
1,note_on,90,28,0
1,note_on,98,35,0
1,note_on,98,0,60
1,note_on,90,0,0
1,note_on,94,28,0
1,note_on,89,22,0
1,note_on,89,0,60
1,note_on,94,0,0
1,note_on,90,26,0
1,note_on,86,22,0
1,note_on,86,0,60
1,note_on,90,0,0
1,note_on,82,22,0
1,note_on,89,26,0
1,note_on,89,0,60
1,note_on,82,0,0
1,note_on,90,27,0
1,note_on,98,32,0
1,note_on,98,0,60
1,note_on,90,0,0
1,note_on,89,21,0
1,note_on,94,26,0
1,note_on,94,0,60
1,note_on,89,0,0
1,note_on,86,21,0
1,note_on,90,24,0
1,note_on,90,0,60
1,note_on,86,0,0
1,note_on,82,21,0
1,note_on,89,24,0
1,note_on,89,0,60
1,note_on,82,0,0
1,note_on,98,31,0
1,note_on,90,25,0
1,note_on,90,0,60
1,note_on,98,0,0
1,note_on,94,24,0
1,note_on,89,20,0
1,note_on,89,0,60
1,note_on,94,0,0
1,note_on,90,24,0
1,note_on,86,20,0
1,note_on,86,0,60
1,note_on,90,0,0
1,note_on,89,23,0
1,note_on,82,20,0
1,note_on,82,0,60
1,note_on,89,0,0
1,note_on,98,29,0
1,note_on,90,24,0
1,note_on,90,0,60
1,note_on,98,0,0
1,note_on,94,23,0
1,note_on,89,18,0
1,note_on,89,0,60
1,note_on,94,0,0
1,note_on,90,22,0
1,note_on,86,18,0
1,note_on,86,0,60
1,note_on,90,0,0
1,note_on,89,22,0
1,note_on,82,18,0
1,note_on,82,0,60
1,note_on,89,0,0
1,note_on,98,28,0
1,note_on,90,22,0
1,note_on,90,0,60
1,note_on,98,0,0
1,note_on,89,18,0
1,note_on,94,22,0
1,note_on,94,0,60
1,note_on,89,0,0
1,note_on,86,18,0
1,note_on,90,22,0
1,note_on,90,0,60
1,note_on,86,0,0
1,note_on,89,22,0
1,note_on,82,18,0
1,note_on,82,0,60
1,note_on,89,0,0
1,note_on,86,32,90
1,note_on,94,38,30
1,note_on,101,43,30
1,note_on,101,0,90
1,note_on,94,0,0
1,note_on,86,0,0
2,note_on,53,33,1350
2,note_on,59,37,30
2,note_on,62,41,30
2,note_on,68,51,30
2,note_on,60,29,450
2,note_on,62,0,30
2,note_on,59,0,0
2,note_on,63,41,0
2,note_on,68,0,240
2,note_on,67,44,0
2,note_on,67,0,240
2,note_on,63,48,0
2,note_on,60,0,210
2,note_on,63,0,30
2,note_on,60,44,0
2,note_on,60,0,240
2,note_on,53,0,0
2,note_on,63,0,0
2,note_on,53,31,1320
2,note_on,57,33,30
2,note_on,60,36,30
2,note_on,63,38,30
2,note_on,66,41,30
2,note_on,63,0,390
2,note_on,60,0,0
2,note_on,57,0,0
2,note_on,58,32,60
2,note_on,62,43,30
2,note_on,65,31,240
2,note_on,65,0,240
2,note_on,66,0,0
2,note_on,62,0,0
2,note_on,61,41,0
2,note_on,61,0,240
2,note_on,58,30,0
2,note_on,58,0,150
2,note_on,58,0,0
2,note_on,53,0,0
2,note_on,53,30,0
2,note_on,55,30,30
2,note_on,58,30,30
2,note_on,61,30,30
2,note_on,61,0,240
2,note_on,53,0,0
2,note_on,55,0,0
2,note_on,58,0,0
2,note_on,88,30,240
2,note_on,91,30,0
2,note_on,91,0,60
2,note_on,88,0,0
2,note_on,81,26,60
2,note_on,84,26,0
2,note_on,84,0,60
2,note_on,81,0,0
2,note_on,85,26,60
2,note_on,82,26,0
2,note_on,82,0,60
2,note_on,85,0,0
2,note_on,75,26,60
2,note_on,78,26,0
2,note_on,78,0,60
2,note_on,75,0,0
2,note_on,76,30,60
2,note_on,79,30,0
2,note_on,79,0,60
2,note_on,76,0,0
2,note_on,72,26,60
2,note_on,69,26,0
2,note_on,69,0,60
2,note_on,72,0,0
2,note_on,73,26,60
2,note_on,70,26,0
2,note_on,70,0,60
2,note_on,73,0,0
2,note_on,63,26,60
2,note_on,66,26,0
2,note_on,66,0,60
2,note_on,63,0,0
2,note_on,64,30,60
2,note_on,67,30,0
2,note_on,67,0,60
2,note_on,64,0,0
2,note_on,57,27,60
2,note_on,60,27,0
2,note_on,60,0,60
2,note_on,57,0,0
2,note_on,58,30,60
2,note_on,61,30,0
2,note_on,61,0,120
2,note_on,58,0,0
2,note_on,41,36,120
2,note_on,41,0,60
2,note_on,53,18,60
2,note_on,67,23,0
2,note_on,58,18,0
2,note_on,61,18,0
2,note_on,61,0,60
2,note_on,53,0,0
2,note_on,67,0,0
2,note_on,58,0,0
2,note_on,58,18,60
2,note_on,61,18,0
2,note_on,53,18,0
2,note_on,67,23,0
2,note_on,67,0,60
2,note_on,58,0,0
2,note_on,61,0,0
2,note_on,53,0,0
2,note_on,67,23,60
2,note_on,53,18,0
2,note_on,58,18,0
2,note_on,61,18,0
2,note_on,61,0,60
2,note_on,67,0,0
2,note_on,53,0,0
2,note_on,58,0,0
2,note_on,67,24,60
2,note_on,53,20,0
2,note_on,61,20,0
2,note_on,58,20,0
2,note_on,58,0,60
2,note_on,67,0,0
2,note_on,53,0,0
2,note_on,61,0,0
2,note_on,67,27,60
2,note_on,61,22,0
2,note_on,58,22,0
2,note_on,53,22,0
2,note_on,53,0,60
2,note_on,67,0,0
2,note_on,61,0,0
2,note_on,58,0,0
2,note_on,67,22,60
2,note_on,53,18,0
2,note_on,61,18,0
2,note_on,58,18,0
2,note_on,58,0,240
2,note_on,67,0,0
2,note_on,53,0,0
2,note_on,61,0,0
2,note_on,93,30,240
2,note_on,90,30,0
2,note_on,90,0,60
2,note_on,93,0,0
2,note_on,83,26,60
2,note_on,86,26,0
2,note_on,86,0,60
2,note_on,83,0,0
2,note_on,84,26,60
2,note_on,87,26,0
2,note_on,87,0,60
2,note_on,84,0,0
2,note_on,80,26,60
2,note_on,77,26,0
2,note_on,77,0,60
2,note_on,80,0,0
2,note_on,78,30,60
2,note_on,81,30,0
2,note_on,81,0,60
2,note_on,78,0,0
2,note_on,74,26,60
2,note_on,71,26,0
2,note_on,71,0,60
2,note_on,74,0,0
2,note_on,72,26,60
2,note_on,75,26,0
2,note_on,75,0,60
2,note_on,72,0,0
2,note_on,65,26,60
2,note_on,68,26,0
2,note_on,68,0,60
2,note_on,65,0,0
2,note_on,69,30,60
2,note_on,66,30,0
2,note_on,66,0,60
2,note_on,69,0,0
2,note_on,62,27,60
2,note_on,59,27,0
2,note_on,59,0,60
2,note_on,62,0,0
2,note_on,60,30,60
2,note_on,63,30,0
2,note_on,63,0,120
2,note_on,60,0,0
2,note_on,41,39,360
2,note_on,41,0,60
2,note_on,60,22,60
2,note_on,63,22,0
2,note_on,69,27,0
2,note_on,69,0,60
2,note_on,63,0,0
2,note_on,60,0,0
2,note_on,69,27,60
2,note_on,60,22,0
2,note_on,63,22,0
2,note_on,63,0,60
2,note_on,60,0,0
2,note_on,69,0,0
2,note_on,63,22,60
2,note_on,60,22,0
2,note_on,69,27,0
2,note_on,69,0,60
2,note_on,60,0,0
2,note_on,63,0,0
2,note_on,69,28,60
2,note_on,60,24,0
2,note_on,63,24,0
2,note_on,63,0,60
2,note_on,60,0,0
2,note_on,69,0,0
2,note_on,69,31,60
2,note_on,60,26,0
2,note_on,63,26,0
2,note_on,63,0,60
2,note_on,60,0,0
2,note_on,69,0,0
2,note_on,69,26,60
2,note_on,60,20,0
2,note_on,63,20,0
2,note_on,63,0,240
2,note_on,60,0,0
2,note_on,69,0,0
2,note_on,60,18,120
2,note_on,63,18,0
2,note_on,69,22,0
2,note_on,69,0,60
2,note_on,63,0,0
2,note_on,60,0,0
2,note_on,69,22,60
2,note_on,60,18,0
2,note_on,63,18,0
2,note_on,63,0,60
2,note_on,60,0,0
2,note_on,69,0,0
2,note_on,63,18,60
2,note_on,60,18,0
2,note_on,69,22,0
2,note_on,69,0,60
2,note_on,60,0,0
2,note_on,63,0,0
2,note_on,60,18,60
2,note_on,69,23,0
2,note_on,63,18,0
2,note_on,63,0,60
2,note_on,69,0,0
2,note_on,60,0,0
2,note_on,63,20,60
2,note_on,69,26,0
2,note_on,60,20,0
2,note_on,60,0,60
2,note_on,69,0,0
2,note_on,63,0,0
2,note_on,69,20,60
2,note_on,63,17,0
2,note_on,60,17,0
2,note_on,60,0,240
2,note_on,63,0,0
2,note_on,69,0,0
2,note_on,66,18,120
2,note_on,63,18,0
2,note_on,69,25,0
2,note_on,69,0,60
2,note_on,63,0,0
2,note_on,66,0,0
2,note_on,63,16,60
2,note_on,66,16,0
2,note_on,69,18,0
2,note_on,69,0,240
2,note_on,66,0,0
2,note_on,63,0,0
2,note_on,66,18,120
2,note_on,69,24,0
2,note_on,69,0,60
2,note_on,66,0,0
2,note_on,66,15,60
2,note_on,69,18,0
2,note_on,69,0,240
2,note_on,66,0,0
2,note_on,69,24,120
2,note_on,75,31,0
2,note_on,75,0,60
2,note_on,69,0,0
2,note_on,72,25,60
2,note_on,72,0,60
2,note_on,69,24,60
2,note_on,75,31,0
2,note_on,75,0,60
2,note_on,69,0,0
2,note_on,72,27,60
2,note_on,72,0,60
2,note_on,69,24,60
2,note_on,75,31,0
2,note_on,75,0,60
2,note_on,69,0,0
2,note_on,72,26,60
2,note_on,72,0,60
2,note_on,75,31,60
2,note_on,69,24,0
2,note_on,69,0,60
2,note_on,75,0,0
2,note_on,65,32,2220
2,note_on,63,41,0
2,note_on,63,0,240
2,note_on,62,32,0
2,note_on,62,0,240
2,note_on,65,0,0
2,note_on,60,38,0
2,note_on,65,30,0
2,note_on,60,0,240
2,note_on,58,33,0
2,note_on,58,0,240
2,note_on,65,0,0
2,note_on,65,25,0
2,note_on,53,25,0
2,note_on,62,32,0
2,note_on,62,0,120
2,note_on,53,0,0
2,note_on,65,0,0
2,note_on,53,23,120
2,note_on,63,29,0
2,note_on,65,23,0
2,note_on,65,0,120
2,note_on,63,0,0
2,note_on,53,0,0
2,note_on,63,33,120
2,note_on,65,26,0
2,note_on,57,26,0
2,note_on,57,0,120
2,note_on,63,0,0
2,note_on,58,23,120
2,note_on,62,29,0
2,note_on,62,0,120
2,note_on,58,0,0
2,note_on,65,0,0
2,note_on,65,32,120
2,note_on,63,41,0
2,note_on,63,0,240
2,note_on,62,32,0
2,note_on,62,0,240
2,note_on,65,0,0
2,note_on,65,30,0
2,note_on,60,38,0
2,note_on,60,0,240
2,note_on,58,33,0
2,note_on,58,0,240
2,note_on,65,0,0
2,note_on,53,25,0
2,note_on,62,32,0
2,note_on,65,25,0
2,note_on,65,0,120
2,note_on,62,0,0
2,note_on,53,0,0
2,note_on,63,29,120
2,note_on,65,23,0
2,note_on,53,23,0
2,note_on,53,0,120
2,note_on,65,0,0
2,note_on,63,0,0
2,note_on,65,26,120
2,note_on,63,33,0
2,note_on,57,26,0
2,note_on,57,0,120
2,note_on,63,0,0
2,note_on,62,29,120
2,note_on,58,23,0
2,note_on,65,0,120
2,note_on,58,0,120
2,note_on,62,0,0
2,note_on,68,41,0
2,note_on,70,32,0
2,note_on,68,0,240
2,note_on,66,32,0
2,note_on,66,0,240
2,note_on,70,0,0
2,note_on,65,38,0
2,note_on,70,30,0
2,note_on,65,0,240
2,note_on,63,33,0
2,note_on,63,0,240
2,note_on,70,0,0
2,note_on,70,25,0
2,note_on,58,25,0
2,note_on,66,32,0
2,note_on,66,0,120
2,note_on,58,0,0
2,note_on,70,0,0
2,note_on,68,29,120
2,note_on,70,23,0
2,note_on,58,23,0
2,note_on,58,0,120
2,note_on,70,0,0
2,note_on,68,0,0
2,note_on,62,26,120
2,note_on,68,33,0
2,note_on,70,26,0
2,note_on,68,0,120
2,note_on,62,0,0
2,note_on,66,29,120
2,note_on,63,23,0
2,note_on,63,0,120
2,note_on,66,0,0
2,note_on,70,0,0
2,note_on,70,32,120
2,note_on,68,41,0
2,note_on,68,0,240
2,note_on,66,32,0
2,note_on,66,0,240
2,note_on,70,0,0
2,note_on,65,38,0
2,note_on,70,30,0
2,note_on,65,0,240
2,note_on,63,33,0
2,note_on,63,0,240
2,note_on,70,0,0
2,note_on,58,25,0
2,note_on,70,25,0
2,note_on,66,32,0
2,note_on,66,0,120
2,note_on,70,0,0
2,note_on,58,0,0
2,note_on,68,29,120
2,note_on,70,23,0
2,note_on,58,23,0
2,note_on,58,0,120
2,note_on,70,0,0
2,note_on,68,0,0
2,note_on,70,26,120
2,note_on,68,33,0
2,note_on,62,26,0
2,note_on,62,0,120
2,note_on,68,0,0
2,note_on,63,23,120
2,note_on,66,29,0
2,note_on,66,0,120
2,note_on,63,0,0
2,note_on,70,0,0
2,note_on,61,36,120
2,note_on,46,30,0
2,note_on,46,0,240
2,note_on,61,0,0
2,note_on,47,24,0
2,note_on,63,29,0
2,note_on,63,0,120
2,note_on,47,0,0
2,note_on,64,35,120
2,note_on,49,28,0
2,note_on,49,0,240
2,note_on,64,0,0
2,note_on,66,25,0
2,note_on,51,20,0
2,note_on,51,0,120
2,note_on,66,0,0
2,note_on,67,31,120
2,note_on,52,26,0
2,note_on,52,0,240
2,note_on,67,0,0
2,note_on,69,25,0
2,note_on,53,21,0
2,note_on,53,0,120
2,note_on,69,0,0
2,note_on,64,27,120
2,note_on,55,22,0
2,note_on,64,0,120
2,note_on,61,23,0
2,note_on,61,0,120
2,note_on,55,0,0
2,note_on,57,24,0
2,note_on,65,29,0
2,note_on,65,0,60
2,note_on,60,25,60
2,note_on,60,0,60
2,note_on,57,0,60
2,note_on,67,29,0
2,note_on,58,29,0
2,note_on,67,0,60
2,note_on,61,24,60
2,note_on,61,0,60
2,note_on,58,0,60
2,note_on,60,24,0
2,note_on,69,29,0
2,note_on,69,0,60
2,note_on,63,24,60
2,note_on,63,0,60
2,note_on,60,0,60
2,note_on,67,29,0
2,note_on,61,24,0
2,note_on,61,0,60
2,note_on,67,0,0
2,note_on,69,29,180
2,note_on,63,24,0
2,note_on,63,0,60
2,note_on,69,0,0
2,note_on,51,41,1140
2,note_on,51,0,60
2,note_on,67,36,30
2,note_on,67,0,30
2,note_on,65,41,0
2,note_on,65,0,30
2,note_on,50,41,90
2,note_on,50,0,60
2,note_on,66,36,30
2,note_on,66,0,30
2,note_on,65,41,0
2,note_on,65,0,30
2,note_on,48,41,90
2,note_on,48,0,60
2,note_on,67,36,30
2,note_on,67,0,30
2,note_on,65,41,0
2,note_on,65,0,30
2,note_on,46,41,90
2,note_on,46,0,60
2,note_on,66,35,30
2,note_on,66,0,30
2,note_on,65,41,0
2,note_on,65,0,30
2,note_on,41,44,90
2,note_on,41,0,60
2,note_on,67,39,30
2,note_on,67,0,30
2,note_on,65,45,0
2,note_on,65,0,30
2,note_on,41,46,90
2,note_on,41,0,60
2,note_on,66,39,30
2,note_on,66,0,30
2,note_on,65,45,0
2,note_on,65,0,30
2,note_on,45,45,90
2,note_on,45,0,60
2,note_on,67,36,30
2,note_on,67,0,30
2,note_on,65,41,0
2,note_on,65,0,30
2,note_on,46,41,90
2,note_on,46,0,60
2,note_on,66,36,30
2,note_on,66,0,30
2,note_on,65,41,0
2,note_on,65,0,30
2,note_on,51,41,90
2,note_on,51,0,60
2,note_on,67,36,30
2,note_on,67,0,30
2,note_on,65,41,0
2,note_on,65,0,30
2,note_on,50,41,90
2,note_on,50,0,60
2,note_on,66,36,30
2,note_on,66,0,30
2,note_on,65,41,0
2,note_on,65,0,30
2,note_on,48,41,90
2,note_on,48,0,60
2,note_on,67,36,30
2,note_on,67,0,30
2,note_on,65,41,0
2,note_on,65,0,30
2,note_on,46,41,90
2,note_on,46,0,60
2,note_on,66,35,30
2,note_on,66,0,30
2,note_on,65,41,0
2,note_on,65,0,30
2,note_on,41,44,90
2,note_on,41,0,60
2,note_on,67,39,30
2,note_on,67,0,30
2,note_on,65,45,0
2,note_on,65,0,30
2,note_on,41,46,90
2,note_on,41,0,60
2,note_on,66,39,30
2,note_on,66,0,30
2,note_on,65,45,0
2,note_on,65,0,30
2,note_on,45,45,90
2,note_on,45,0,60
2,note_on,67,36,30
2,note_on,67,0,30
2,note_on,65,41,0
2,note_on,65,0,30
2,note_on,46,46,90
2,note_on,46,0,60
2,note_on,67,42,30
2,note_on,67,0,30
2,note_on,65,46,0
2,note_on,65,0,30
2,note_on,56,52,90
2,note_on,56,0,60
2,note_on,71,46,30
2,note_on,71,0,30
2,note_on,70,53,0
2,note_on,70,0,30
2,note_on,55,54,90
2,note_on,55,0,60
2,note_on,72,48,30
2,note_on,72,0,30
2,note_on,70,55,0
2,note_on,70,0,30
2,note_on,50,55,90
2,note_on,50,0,60
2,note_on,71,49,30
2,note_on,71,0,30
2,note_on,70,56,0
2,note_on,70,0,30
2,note_on,51,56,90
2,note_on,51,0,60
2,note_on,71,49,30
2,note_on,71,0,30
2,note_on,70,57,0
2,note_on,70,0,30
2,note_on,46,59,90
2,note_on,46,0,60
2,note_on,72,51,30
2,note_on,72,0,30
2,note_on,70,60,0
2,note_on,70,0,30
2,note_on,46,60,90
2,note_on,46,0,60
2,note_on,71,52,30
2,note_on,71,0,30
2,note_on,70,60,0
2,note_on,70,0,30
2,note_on,50,61,90
2,note_on,50,0,60
2,note_on,72,52,30
2,note_on,72,0,30
2,note_on,70,60,0
2,note_on,70,0,30
2,note_on,51,60,90
2,note_on,51,0,60
2,note_on,71,53,30
2,note_on,71,0,30
2,note_on,70,60,0
2,note_on,70,0,30
2,note_on,56,54,90
2,note_on,56,0,60
2,note_on,72,47,30
2,note_on,72,0,30
2,note_on,70,54,0
2,note_on,70,0,30
2,note_on,55,54,90
2,note_on,55,0,60
2,note_on,71,46,30
2,note_on,71,0,30
2,note_on,70,55,0
2,note_on,70,0,30
2,note_on,50,55,90
2,note_on,50,0,60
2,note_on,72,48,30
2,note_on,72,0,30
2,note_on,70,56,0
2,note_on,70,0,30
2,note_on,51,56,90
2,note_on,51,0,60
2,note_on,71,52,30
2,note_on,71,0,30
2,note_on,70,57,0
2,note_on,70,0,30
2,note_on,46,62,90
2,note_on,46,0,60
2,note_on,72,55,30
2,note_on,72,0,30
2,note_on,70,63,0
2,note_on,70,0,30
2,note_on,46,63,90
2,note_on,46,0,60
2,note_on,71,57,30
2,note_on,71,0,30
2,note_on,70,63,0
2,note_on,70,0,30
2,note_on,50,58,90
2,note_on,50,0,60
2,note_on,72,50,30
2,note_on,72,0,30
2,note_on,70,58,0
2,note_on,70,0,30
2,note_on,51,44,90
2,note_on,51,0,240
2,note_on,47,42,0
2,note_on,35,35,0
2,note_on,35,0,60
2,note_on,47,0,0
2,note_on,56,27,60
2,note_on,62,33,0
2,note_on,53,27,0
2,note_on,53,0,60
2,note_on,62,0,0
2,note_on,56,0,0
2,note_on,48,35,0
2,note_on,55,35,30
2,note_on,63,42,30
2,note_on,63,0,120
2,note_on,55,0,0
2,note_on,48,0,0
2,note_on,50,42,120
2,note_on,38,35,0
2,note_on,38,0,60
2,note_on,50,0,0
2,note_on,65,35,60
2,note_on,59,28,0
2,note_on,56,28,0
2,note_on,56,0,60
2,note_on,59,0,0
2,note_on,65,0,0
2,note_on,51,35,0
2,note_on,60,35,30
2,note_on,67,42,30
2,note_on,67,0,120
2,note_on,60,0,0
2,note_on,51,0,0
2,note_on,40,36,120
2,note_on,40,0,60
2,note_on,46,28,60
2,note_on,46,0,60
2,note_on,52,35,60
2,note_on,52,0,60
2,note_on,58,27,60
2,note_on,58,0,60
2,note_on,61,28,60
2,note_on,55,18,0
2,note_on,61,0,120
2,note_on,58,23,0
2,note_on,58,0,90
2,note_on,53,20,0
2,note_on,55,0,30
2,note_on,62,36,0
2,note_on,62,0,120
2,note_on,53,0,0
2,note_on,59,27,120
2,note_on,53,22,0
2,note_on,59,0,240
2,note_on,60,27,0
2,note_on,60,0,240
2,note_on,53,0,0
2,note_on,40,41,0
2,note_on,40,0,60
2,note_on,41,36,0
2,note_on,41,0,60
2,note_on,40,43,0
2,note_on,40,0,60
2,note_on,41,36,0
2,note_on,53,36,60
2,note_on,53,0,240
2,note_on,41,0,0
2,note_on,47,27,0
2,note_on,41,22,0
2,note_on,47,0,240
2,note_on,48,27,0
2,note_on,48,0,240
2,note_on,41,0,0
2,note_on,42,41,0
2,note_on,42,0,120
2,note_on,41,36,0
2,note_on,41,0,120
2,note_on,34,41,0
2,note_on,34,0,120
2,note_on,53,26,0
2,note_on,58,22,0
2,note_on,58,0,60
2,note_on,53,0,0
2,note_on,62,25,0
2,note_on,62,0,60
2,note_on,54,25,0
2,note_on,58,21,0
2,note_on,58,0,60
2,note_on,54,0,0
2,note_on,62,25,0
2,note_on,62,0,60
2,note_on,55,25,0
2,note_on,58,21,0
2,note_on,58,0,60
2,note_on,55,0,0
2,note_on,62,25,0
2,note_on,62,0,60
2,note_on,54,30,0
2,note_on,58,25,0
2,note_on,58,0,60
2,note_on,54,0,0
2,note_on,62,22,0
2,note_on,62,0,60
2,note_on,53,30,0
2,note_on,58,25,0
2,note_on,58,0,60
2,note_on,53,0,0
2,note_on,62,21,0
2,note_on,62,0,60
2,note_on,54,30,0
2,note_on,58,25,0
2,note_on,58,0,60
2,note_on,54,0,0
2,note_on,62,25,0
2,note_on,62,0,60
2,note_on,58,25,0
2,note_on,55,30,0
2,note_on,55,0,60
2,note_on,58,0,0
2,note_on,62,22,0
2,note_on,62,0,40
2,note_on,54,30,0
2,note_on,57,30,10
2,note_on,63,30,10
2,note_on,63,0,60
2,note_on,57,0,0
2,note_on,54,0,0
2,note_on,81,41,60
2,note_on,78,41,0
2,note_on,78,0,60
2,note_on,81,0,0
2,note_on,74,39,60
2,note_on,71,39,0
2,note_on,71,0,60
2,note_on,74,0,0
2,note_on,75,38,60
2,note_on,72,38,0
2,note_on,72,0,60
2,note_on,75,0,0
2,note_on,68,38,60
2,note_on,65,38,0
2,note_on,65,0,60
2,note_on,68,0,0
2,note_on,66,37,60
2,note_on,69,37,0
2,note_on,69,0,60
2,note_on,66,0,0
2,note_on,59,36,60
2,note_on,62,36,0
2,note_on,62,0,60
2,note_on,59,0,0
2,note_on,63,36,60
2,note_on,60,36,0
2,note_on,60,0,60
2,note_on,63,0,0
2,note_on,41,45,60
2,note_on,41,0,120
2,note_on,53,26,0
2,note_on,58,22,0
2,note_on,58,0,60
2,note_on,53,0,0
2,note_on,62,25,0
2,note_on,62,0,60
2,note_on,58,21,0
2,note_on,54,25,0
2,note_on,54,0,60
2,note_on,58,0,0
2,note_on,62,25,0
2,note_on,62,0,60
2,note_on,55,25,0
2,note_on,58,21,0
2,note_on,58,0,60
2,note_on,55,0,0
2,note_on,62,25,0
2,note_on,62,0,60
2,note_on,54,30,0
2,note_on,58,25,0
2,note_on,58,0,60
2,note_on,54,0,0
2,note_on,62,22,0
2,note_on,62,0,60
2,note_on,53,30,0
2,note_on,58,25,0
2,note_on,58,0,60
2,note_on,53,0,0
2,note_on,62,21,0
2,note_on,62,0,60
2,note_on,54,30,0
2,note_on,58,25,0
2,note_on,58,0,60
2,note_on,54,0,0
2,note_on,62,25,0
2,note_on,62,0,60
2,note_on,55,30,0
2,note_on,58,25,0
2,note_on,58,0,60
2,note_on,55,0,0
2,note_on,62,22,0
2,note_on,62,0,40
2,note_on,54,25,0
2,note_on,57,25,10
2,note_on,63,30,10
2,note_on,63,0,60
2,note_on,57,0,0
2,note_on,54,0,0
2,note_on,81,41,60
2,note_on,78,35,0
2,note_on,78,0,60
2,note_on,81,0,0
2,note_on,71,33,60
2,note_on,74,39,0
2,note_on,74,0,60
2,note_on,71,0,0
2,note_on,75,38,60
2,note_on,72,32,0
2,note_on,72,0,60
2,note_on,75,0,0
2,note_on,68,38,60
2,note_on,65,32,0
2,note_on,65,0,60
2,note_on,68,0,0
2,note_on,66,31,60
2,note_on,69,37,0
2,note_on,69,0,60
2,note_on,66,0,0
2,note_on,62,36,60
2,note_on,59,30,0
2,note_on,59,0,60
2,note_on,62,0,0
2,note_on,63,36,60
2,note_on,60,29,0
2,note_on,60,0,60
2,note_on,63,0,0
2,note_on,46,36,40
2,note_on,56,36,10
2,note_on,59,43,10
2,note_on,59,0,60
2,note_on,56,0,0
2,note_on,46,0,0
2,note_on,80,37,60
2,note_on,83,45,0
2,note_on,83,0,60
2,note_on,80,0,0
2,note_on,76,43,60
2,note_on,73,36,0
2,note_on,73,0,60
2,note_on,76,0,0
2,note_on,74,35,60
2,note_on,77,42,0
2,note_on,77,0,60
2,note_on,74,0,0
2,note_on,70,42,60
2,note_on,67,35,0
2,note_on,67,0,60
2,note_on,70,0,0
2,note_on,68,35,60
2,note_on,71,41,0
2,note_on,71,0,60
2,note_on,68,0,0
2,note_on,61,33,60
2,note_on,64,39,0
2,note_on,64,0,60
2,note_on,61,0,0
2,note_on,65,38,60
2,note_on,62,32,0
2,note_on,62,0,60
2,note_on,65,0,0
2,note_on,46,39,40
2,note_on,61,46,20
2,note_on,61,0,60
2,note_on,46,0,0
2,note_on,85,49,60
2,note_on,82,41,0
2,note_on,82,0,60
2,note_on,85,0,0
2,note_on,75,39,60
2,note_on,78,46,0
2,note_on,78,0,60
2,note_on,75,0,0
2,note_on,75,38,60
2,note_on,79,45,0
2,note_on,79,0,60
2,note_on,75,0,0
2,note_on,46,43,20
2,note_on,54,43,20
2,note_on,60,51,20
2,note_on,60,0,60
2,note_on,54,0,0
2,note_on,46,0,0
2,note_on,84,41,60
2,note_on,87,49,0
2,note_on,87,0,60
2,note_on,84,0,0
2,note_on,80,46,60
2,note_on,77,39,0
2,note_on,77,0,60
2,note_on,80,0,0
2,note_on,81,45,60
2,note_on,78,38,0
2,note_on,78,0,60
2,note_on,81,0,0
2,note_on,78,49,60
2,note_on,75,41,0
2,note_on,75,0,60
2,note_on,78,0,0
2,note_on,71,49,60
2,note_on,68,41,0
2,note_on,68,0,60
2,note_on,71,0,0
2,note_on,69,39,60
2,note_on,72,46,0
2,note_on,72,0,60
2,note_on,69,0,0
2,note_on,69,45,60
2,note_on,66,38,0
2,note_on,66,0,60
2,note_on,69,0,0
2,note_on,62,52,60
2,note_on,59,44,0
2,note_on,59,0,60
2,note_on,62,0,0
2,note_on,60,45,60
2,note_on,63,55,0
2,note_on,63,0,60
2,note_on,60,0,0
2,note_on,59,51,60
2,note_on,64,60,0
2,note_on,56,51,0
2,note_on,56,0,60
2,note_on,64,0,0
2,note_on,59,0,0
2,note_on,65,63,60
2,note_on,60,53,0
2,note_on,57,53,0
2,note_on,57,0,60
2,note_on,60,0,0
2,note_on,65,0,0
2,note_on,34,59,60
2,note_on,46,72,0
2,note_on,62,52,120
2,note_on,50,44,0
2,note_on,50,0,120
2,note_on,62,0,0
2,note_on,53,44,0
2,note_on,60,52,0
2,note_on,60,0,120
2,note_on,53,0,0
2,note_on,58,52,0
2,note_on,58,0,120
2,note_on,46,0,0
2,note_on,34,0,0
2,note_on,32,59,0
2,note_on,44,72,0
2,note_on,50,45,120
2,note_on,62,53,0
2,note_on,62,0,120
2,note_on,50,0,0
2,note_on,53,45,0
2,note_on,60,55,0
2,note_on,60,0,60
2,note_on,59,48,0
2,note_on,59,0,60
2,note_on,53,0,0
2,note_on,58,56,0
2,note_on,58,0,120
2,note_on,44,0,0
2,note_on,32,0,0
2,note_on,30,59,0
2,note_on,42,72,0
2,note_on,62,52,120
2,note_on,50,44,0
2,note_on,50,0,120
2,note_on,62,0,0
2,note_on,60,52,0
2,note_on,54,44,0
2,note_on,54,0,120
2,note_on,60,0,0
2,note_on,58,52,0
2,note_on,58,0,120
2,note_on,42,0,0
2,note_on,30,0,0
2,note_on,29,59,0
2,note_on,41,72,0
2,note_on,50,45,120
2,note_on,62,53,0
2,note_on,62,0,120
2,note_on,50,0,0
2,note_on,56,45,0
2,note_on,60,55,0
2,note_on,60,0,60
2,note_on,59,48,0
2,note_on,59,0,60
2,note_on,56,0,0
2,note_on,58,56,0
2,note_on,58,0,120
2,note_on,41,0,0
2,note_on,29,0,0
2,note_on,51,81,0
2,note_on,39,68,0
2,note_on,66,58,120
2,note_on,54,52,0
2,note_on,54,0,120
2,note_on,66,0,0
2,note_on,58,49,0
2,note_on,65,58,0
2,note_on,65,0,120
2,note_on,58,0,0
2,note_on,63,59,0
2,note_on,63,0,120
2,note_on,39,0,0
2,note_on,51,0,0
2,note_on,37,70,0
2,note_on,49,83,0
2,note_on,66,62,120
2,note_on,54,51,0
2,note_on,54,0,120
2,note_on,66,0,0
2,note_on,65,65,0
2,note_on,58,54,0
2,note_on,65,0,60
2,note_on,64,57,0
2,note_on,64,0,60
2,note_on,58,0,0
2,note_on,63,66,0
2,note_on,63,0,120
2,note_on,49,0,0
2,note_on,37,0,0
2,note_on,35,72,0
2,note_on,47,87,0
2,note_on,54,52,120
2,note_on,66,63,0
2,note_on,66,0,120
2,note_on,54,0,0
2,note_on,59,53,0
2,note_on,65,63,0
2,note_on,65,0,120
2,note_on,59,0,0
2,note_on,63,63,0
2,note_on,63,0,120
2,note_on,47,0,0
2,note_on,35,0,0
2,note_on,34,75,0
2,note_on,46,91,0
2,note_on,66,65,120
2,note_on,54,55,0
2,note_on,54,0,120
2,note_on,66,0,0
2,note_on,65,70,0
2,note_on,58,58,0
2,note_on,65,0,60
2,note_on,64,60,0
2,note_on,64,0,60
2,note_on,58,0,0
2,note_on,63,72,0
2,note_on,63,0,120
2,note_on,46,0,0
2,note_on,34,0,0
2,note_on,32,36,0
2,note_on,44,36,0
2,note_on,45,28,60
2,note_on,44,0,12
2,note_on,45,0,48
2,note_on,45,28,0
2,note_on,45,0,60
2,note_on,46,29,0
2,note_on,46,0,60
2,note_on,32,0,0
2,note_on,47,29,0
2,note_on,48,29,60
2,note_on,47,0,12
2,note_on,48,0,48
2,note_on,47,30,0
2,note_on,47,0,60
2,note_on,48,30,0
2,note_on,48,0,60
2,note_on,37,36,0
2,note_on,49,36,0
2,note_on,50,31,60
2,note_on,49,0,12
2,note_on,50,0,48
2,note_on,49,32,0
2,note_on,49,0,60
2,note_on,51,32,0
2,note_on,51,0,60
2,note_on,37,0,0
2,note_on,52,33,0
2,note_on,53,35,60
2,note_on,52,0,12
2,note_on,53,0,48
2,note_on,52,36,0
2,note_on,52,0,60
2,note_on,53,36,0
2,note_on,53,0,60
2,note_on,42,36,0
2,note_on,54,36,0
2,note_on,55,28,60
2,note_on,54,0,12
2,note_on,55,0,48
2,note_on,54,28,0
2,note_on,54,0,60
2,note_on,56,29,0
2,note_on,56,0,60
2,note_on,42,0,0
2,note_on,57,29,0
2,note_on,58,29,60
2,note_on,57,0,12
2,note_on,58,0,48
2,note_on,57,30,0
2,note_on,57,0,60
2,note_on,58,30,0
2,note_on,58,0,60
2,note_on,47,36,0
2,note_on,59,36,0
2,note_on,60,31,60
2,note_on,59,0,12
2,note_on,60,0,48
2,note_on,59,32,0
2,note_on,59,0,60
2,note_on,61,32,0
2,note_on,61,0,60
2,note_on,47,0,0
2,note_on,62,33,0
2,note_on,63,35,60
2,note_on,62,0,12
2,note_on,63,0,48
2,note_on,62,36,0
2,note_on,62,0,60
2,note_on,63,36,0
2,note_on,63,0,60
2,note_on,65,36,0
2,note_on,53,36,0
2,note_on,66,28,60
2,note_on,65,0,12
2,note_on,66,0,48
2,note_on,65,28,0
2,note_on,65,0,60
2,note_on,67,29,0
2,note_on,67,0,60
2,note_on,53,0,0
2,note_on,68,29,0
2,note_on,69,29,60
2,note_on,68,0,12
2,note_on,69,0,48
2,note_on,68,30,0
2,note_on,68,0,60
2,note_on,69,30,0
2,note_on,69,0,60
2,note_on,58,36,0
2,note_on,70,36,0
2,note_on,71,31,60
2,note_on,70,0,12
2,note_on,71,0,48
2,note_on,70,32,0
2,note_on,70,0,60
2,note_on,73,32,0
2,note_on,73,0,60
2,note_on,58,0,0
2,note_on,74,33,0
2,note_on,74,0,60
2,note_on,73,35,0
2,note_on,73,0,60
2,note_on,74,36,0
2,note_on,74,0,60
2,note_on,70,36,0
2,note_on,70,0,60
2,note_on,63,36,0
2,note_on,75,33,0
2,note_on,74,33,60
2,note_on,75,0,12
2,note_on,74,0,48
2,note_on,73,33,0
2,note_on,73,0,60
2,note_on,72,33,0
2,note_on,72,0,60
2,note_on,63,0,0
2,note_on,71,33,0
2,note_on,70,33,60
2,note_on,71,0,12
2,note_on,70,0,48
2,note_on,66,33,0
2,note_on,66,0,60
2,note_on,63,33,0
2,note_on,63,0,60
2,note_on,59,43,0
2,note_on,69,43,0
2,note_on,69,0,60
2,note_on,68,35,0
2,note_on,68,0,60
2,note_on,67,36,0
2,note_on,67,0,60
2,note_on,66,36,0
2,note_on,66,0,60
2,note_on,59,0,0
2,note_on,60,45,0
2,note_on,65,45,0
2,note_on,65,0,60
2,note_on,64,37,0
2,note_on,64,0,60
2,note_on,63,38,0
2,note_on,63,0,60
2,note_on,62,38,0
2,note_on,62,0,60
2,note_on,60,0,0
2,note_on,61,56,0
2,note_on,49,56,0
2,note_on,49,0,60
2,note_on,61,0,0
2,note_on,71,28,180
2,note_on,71,0,60
2,note_on,74,22,0
2,note_on,74,0,60
2,note_on,70,28,0
2,note_on,70,0,60
2,note_on,73,24,0
2,note_on,73,0,60
2,note_on,71,28,0
2,note_on,71,0,60
2,note_on,74,25,0
2,note_on,74,0,60
2,note_on,64,30,0
2,note_on,64,0,60
2,note_on,67,29,0
2,note_on,67,0,60
2,note_on,65,30,0
2,note_on,65,0,60
2,note_on,68,32,0
2,note_on,68,0,60
2,note_on,58,33,0
2,note_on,58,0,60
2,note_on,61,36,0
2,note_on,61,0,60
2,note_on,59,36,0
2,note_on,59,0,60
2,note_on,62,33,0
2,note_on,62,0,60
2,note_on,59,39,0
2,note_on,59,0,60
2,note_on,49,33,0
2,note_on,49,0,60
2,note_on,57,39,0
2,note_on,57,0,60
2,note_on,49,32,0
2,note_on,49,0,60
2,note_on,56,39,0
2,note_on,56,0,60
2,note_on,49,31,0
2,note_on,49,0,60
2,note_on,55,39,0
2,note_on,55,0,60
2,note_on,49,33,0
2,note_on,49,0,60
2,note_on,54,39,0
2,note_on,54,0,60
2,note_on,49,32,0
2,note_on,49,0,60
2,note_on,57,39,0
2,note_on,57,0,60
2,note_on,49,32,0
2,note_on,49,0,60
2,note_on,63,39,0
2,note_on,63,0,60
2,note_on,49,33,0
2,note_on,49,0,60
2,note_on,68,43,0
2,note_on,61,43,0
2,note_on,61,0,60
2,note_on,68,0,0
2,note_on,37,43,60
2,note_on,37,0,60
2,note_on,59,28,60
2,note_on,59,0,60
2,note_on,62,22,0
2,note_on,62,0,60
2,note_on,58,28,0
2,note_on,58,0,60
2,note_on,61,24,0
2,note_on,61,0,60
2,note_on,59,28,0
2,note_on,59,0,60
2,note_on,62,25,0
2,note_on,62,0,60
2,note_on,52,30,0
2,note_on,52,0,60
2,note_on,55,29,0
2,note_on,55,0,60
2,note_on,53,30,0
2,note_on,53,0,60
2,note_on,56,32,0
2,note_on,56,0,60
2,note_on,46,33,0
2,note_on,46,0,60
2,note_on,49,36,0
2,note_on,49,0,60
2,note_on,47,36,0
2,note_on,47,0,60
2,note_on,50,33,0
2,note_on,50,0,60
2,note_on,47,39,0
2,note_on,47,0,60
2,note_on,37,33,0
2,note_on,37,0,60
2,note_on,45,39,0
2,note_on,45,0,60
2,note_on,37,32,0
2,note_on,37,0,60
2,note_on,44,39,0
2,note_on,44,0,60
2,note_on,37,31,0
2,note_on,37,0,60
2,note_on,43,39,0
2,note_on,43,0,60
2,note_on,37,33,0
2,note_on,37,0,60
2,note_on,42,39,0
2,note_on,42,0,60
2,note_on,37,32,0
2,note_on,37,0,60
2,note_on,45,39,0
2,note_on,45,0,60
2,note_on,37,32,0
2,note_on,37,0,60
2,note_on,51,39,0
2,note_on,51,0,60
2,note_on,37,33,0
2,note_on,37,0,60
2,note_on,49,39,0
2,note_on,49,0,60
2,note_on,37,32,0
2,note_on,37,0,60
2,note_on,47,39,0
2,note_on,47,0,60
2,note_on,37,32,0
2,note_on,37,0,60
2,note_on,45,41,0
2,note_on,45,0,60
2,note_on,37,33,0
2,note_on,37,0,60
2,note_on,44,41,0
2,note_on,44,0,60
2,note_on,37,33,0
2,note_on,37,0,60
2,note_on,43,42,0
2,note_on,43,0,60
2,note_on,37,35,0
2,note_on,37,0,60
2,note_on,42,43,0
2,note_on,42,0,60
2,note_on,37,36,0
2,note_on,37,0,60
2,note_on,45,44,0
2,note_on,45,0,60
2,note_on,37,36,0
2,note_on,37,0,60
2,note_on,51,45,0
2,note_on,51,0,60
2,note_on,37,36,0
2,note_on,37,0,60
2,note_on,49,50,0
2,note_on,49,0,120
2,note_on,35,58,0
2,note_on,47,69,0
2,note_on,47,0,60
2,note_on,35,0,0
2,note_on,48,60,60
2,note_on,36,51,0
2,note_on,36,0,60
2,note_on,48,0,0
2,note_on,37,51,60
2,note_on,49,60,0
2,note_on,49,0,60
2,note_on,37,0,0
2,note_on,38,58,60
2,note_on,50,69,0
2,note_on,50,0,60
2,note_on,38,0,0
2,note_on,47,65,60
2,note_on,47,0,60
2,note_on,48,69,60
2,note_on,48,0,60
2,note_on,49,64,0
2,note_on,49,0,60
2,note_on,50,64,0
2,note_on,50,0,120
2,note_on,59,33,120
2,note_on,59,0,60
2,note_on,60,28,60
2,note_on,60,0,60
2,note_on,61,28,60
2,note_on,61,0,60
2,note_on,62,33,60
2,note_on,62,0,60
2,note_on,59,30,60
2,note_on,59,0,60
2,note_on,60,33,60
2,note_on,60,0,60
2,note_on,61,30,0
2,note_on,61,0,60
2,note_on,62,30,0
2,note_on,62,0,120
2,note_on,35,58,120
2,note_on,47,69,0
2,note_on,47,0,60
2,note_on,35,0,0
2,note_on,36,51,60
2,note_on,48,60,0
2,note_on,48,0,60
2,note_on,36,0,0
2,note_on,49,60,60
2,note_on,37,51,0
2,note_on,37,0,60
2,note_on,49,0,0
2,note_on,50,69,60
2,note_on,38,58,0
2,note_on,38,0,60
2,note_on,50,0,0
2,note_on,47,65,60
2,note_on,47,0,60
2,note_on,48,69,60
2,note_on,48,0,60
2,note_on,49,64,0
2,note_on,49,0,60
2,note_on,50,64,0
2,note_on,50,0,120
2,note_on,59,33,120
2,note_on,59,0,60
2,note_on,60,28,60
2,note_on,60,0,60
2,note_on,61,28,60
2,note_on,61,0,60
2,note_on,62,33,60
2,note_on,62,0,60
2,note_on,59,30,60
2,note_on,59,0,60
2,note_on,60,33,60
2,note_on,60,0,60
2,note_on,61,30,0
2,note_on,61,0,60
2,note_on,62,30,0
2,note_on,62,0,120
2,note_on,62,33,120
2,note_on,62,0,60
2,note_on,63,28,60
2,note_on,63,0,60
2,note_on,64,28,60
2,note_on,64,0,60
2,note_on,65,33,60
2,note_on,65,0,60
2,note_on,65,30,60
2,note_on,65,0,60
2,note_on,66,33,60
2,note_on,66,0,60
2,note_on,67,30,0
2,note_on,67,0,60
2,note_on,68,30,0
2,note_on,68,0,120
2,note_on,83,31,0
2,note_on,68,31,0
2,note_on,68,0,60
2,note_on,83,0,0
2,note_on,81,25,0
2,note_on,69,25,0
2,note_on,69,0,60
2,note_on,81,0,0
2,note_on,82,25,0
2,note_on,70,25,0
2,note_on,70,0,60
2,note_on,82,0,0
2,note_on,71,25,0
2,note_on,80,25,0
2,note_on,80,0,60
2,note_on,71,0,0
2,note_on,71,31,0
2,note_on,87,31,0
2,note_on,87,0,60
2,note_on,71,0,0
2,note_on,72,25,0
2,note_on,84,25,0
2,note_on,84,0,60
2,note_on,72,0,0
2,note_on,73,25,0
2,note_on,85,25,0
2,note_on,85,0,60
2,note_on,73,0,0
2,note_on,74,25,0
2,note_on,83,25,0
2,note_on,83,0,60
2,note_on,74,0,0
2,note_on,74,31,0
2,note_on,88,31,0
2,note_on,88,0,60
2,note_on,74,0,0
2,note_on,87,27,0
2,note_on,75,27,0
2,note_on,75,0,60
2,note_on,87,0,0
2,note_on,76,27,0
2,note_on,88,27,0
2,note_on,88,0,60
2,note_on,76,0,0
2,note_on,86,27,0
2,note_on,77,27,0
2,note_on,77,0,60
2,note_on,86,0,0
2,note_on,92,31,0
2,note_on,77,31,0
2,note_on,77,0,60
2,note_on,92,0,0
2,note_on,90,27,0
2,note_on,78,27,0
2,note_on,78,0,60
2,note_on,90,0,0
2,note_on,91,27,0
2,note_on,79,27,0
2,note_on,79,0,60
2,note_on,91,0,0
2,note_on,89,27,0
2,note_on,80,27,0
2,note_on,80,0,60
2,note_on,89,0,0
2,note_on,95,32,0
2,note_on,80,32,0
2,note_on,80,0,60
2,note_on,95,0,0
2,note_on,93,29,0
2,note_on,81,29,0
2,note_on,81,0,60
2,note_on,93,0,0
2,note_on,82,29,0
2,note_on,94,29,0
2,note_on,94,0,60
2,note_on,82,0,0
2,note_on,92,29,0
2,note_on,83,29,0
2,note_on,83,0,60
2,note_on,92,0,0
2,note_on,80,32,0
2,note_on,95,32,0
2,note_on,95,0,60
2,note_on,80,0,0
2,note_on,81,29,0
2,note_on,93,29,0
2,note_on,93,0,60
2,note_on,81,0,0
2,note_on,82,29,0
2,note_on,94,29,0
2,note_on,94,0,60
2,note_on,82,0,0
2,note_on,92,28,0
2,note_on,83,28,0
2,note_on,83,0,60
2,note_on,92,0,0
2,note_on,95,32,0
2,note_on,80,32,0
2,note_on,80,0,60
2,note_on,95,0,0
2,note_on,81,29,0
2,note_on,93,29,0
2,note_on,93,0,60
2,note_on,81,0,0
2,note_on,82,29,0
2,note_on,94,29,0
2,note_on,94,0,60
2,note_on,82,0,0
2,note_on,92,29,0
2,note_on,83,29,0
2,note_on,83,0,60
2,note_on,92,0,0
2,note_on,80,32,0
2,note_on,95,32,0
2,note_on,95,0,60
2,note_on,80,0,0
2,note_on,93,28,0
2,note_on,81,28,0
2,note_on,81,0,60
2,note_on,93,0,0
2,note_on,82,28,0
2,note_on,94,28,0
2,note_on,94,0,60
2,note_on,82,0,0
2,note_on,92,28,0
2,note_on,83,28,0
2,note_on,83,0,60
2,note_on,92,0,0
2,note_on,101,49,0
2,note_on,98,37,0
2,note_on,95,37,0
2,note_on,95,0,60
2,note_on,98,0,0
2,note_on,101,0,0
2,note_on,97,30,0
2,note_on,94,30,0
2,note_on,94,0,60
2,note_on,97,0,0
2,note_on,101,37,0
2,note_on,98,30,0
2,note_on,95,30,0
2,note_on,95,0,60
2,note_on,98,0,0
2,note_on,101,0,0
2,note_on,96,30,0
2,note_on,93,30,0
2,note_on,93,0,60
2,note_on,96,0,0
2,note_on,98,46,0
2,note_on,92,37,0
2,note_on,95,37,0
2,note_on,95,0,60
2,note_on,92,0,0
2,note_on,98,0,0
2,note_on,91,30,0
2,note_on,94,30,0
2,note_on,94,0,60
2,note_on,91,0,0
2,note_on,98,37,0
2,note_on,95,30,0
2,note_on,92,30,0
2,note_on,92,0,60
2,note_on,95,0,0
2,note_on,98,0,0
2,note_on,90,30,0
2,note_on,93,30,0
2,note_on,93,0,60
2,note_on,90,0,0
2,note_on,95,48,0
2,note_on,89,37,0
2,note_on,92,37,0
2,note_on,92,0,60
2,note_on,89,0,0
2,note_on,95,0,0
2,note_on,91,31,0
2,note_on,88,31,0
2,note_on,88,0,60
2,note_on,91,0,0
2,note_on,95,37,0
2,note_on,89,31,0
2,note_on,92,31,0
2,note_on,92,0,60
2,note_on,89,0,0
2,note_on,95,0,0
2,note_on,87,31,0
2,note_on,90,31,0
2,note_on,90,0,60
2,note_on,87,0,0
2,note_on,92,45,0
2,note_on,86,37,0
2,note_on,89,37,0
2,note_on,89,0,60
2,note_on,86,0,0
2,note_on,92,0,0
2,note_on,85,30,0
2,note_on,88,30,0
2,note_on,88,0,60
2,note_on,85,0,0
2,note_on,92,37,0
2,note_on,89,30,0
2,note_on,86,30,0
2,note_on,86,0,60
2,note_on,89,0,0
2,note_on,92,0,0
2,note_on,84,30,0
2,note_on,87,30,0
2,note_on,87,0,60
2,note_on,84,0,0
2,note_on,89,44,0
2,note_on,86,33,0
2,note_on,83,33,0
2,note_on,83,0,60
2,note_on,86,0,0
2,note_on,89,0,0
2,note_on,82,27,0
2,note_on,85,27,0
2,note_on,85,0,60
2,note_on,82,0,0
2,note_on,89,33,0
2,note_on,83,27,0
2,note_on,86,27,0
2,note_on,86,0,60
2,note_on,83,0,0
2,note_on,89,0,0
2,note_on,81,27,0
2,note_on,84,27,0
2,note_on,84,0,60
2,note_on,81,0,0
2,note_on,86,42,0
2,note_on,83,33,0
2,note_on,80,33,0
2,note_on,80,0,60
2,note_on,83,0,0
2,note_on,86,0,0
2,note_on,82,27,0
2,note_on,79,27,0
2,note_on,79,0,60
2,note_on,82,0,0
2,note_on,86,33,0
2,note_on,80,27,0
2,note_on,83,27,0
2,note_on,83,0,60
2,note_on,80,0,0
2,note_on,86,0,0
2,note_on,81,27,0
2,note_on,78,27,0
2,note_on,78,0,60
2,note_on,81,0,0
2,note_on,83,43,0
2,note_on,77,33,0
2,note_on,80,33,0
2,note_on,80,0,60
2,note_on,77,0,0
2,note_on,83,0,0
2,note_on,79,27,0
2,note_on,76,27,0
2,note_on,76,0,60
2,note_on,79,0,0
2,note_on,83,33,0
2,note_on,77,27,0
2,note_on,80,27,0
2,note_on,80,0,60
2,note_on,77,0,0
2,note_on,83,0,0
2,note_on,78,27,0
2,note_on,75,27,0
2,note_on,75,0,60
2,note_on,78,0,0
2,note_on,80,41,0
2,note_on,77,33,0
2,note_on,74,33,0
2,note_on,74,0,60
2,note_on,77,0,0
2,note_on,80,0,0
2,note_on,76,27,0
2,note_on,73,27,0
2,note_on,73,0,60
2,note_on,76,0,0
2,note_on,80,33,0
2,note_on,77,27,0
2,note_on,74,27,0
2,note_on,74,0,60
2,note_on,77,0,0
2,note_on,80,0,0
2,note_on,72,27,0
2,note_on,75,27,0
2,note_on,75,0,60
2,note_on,72,0,0
2,note_on,80,33,0
2,note_on,74,33,0
2,note_on,77,33,0
2,note_on,77,0,60
2,note_on,74,0,0
2,note_on,80,0,0
2,note_on,73,27,0
2,note_on,76,27,0
2,note_on,76,0,60
2,note_on,73,0,0
2,note_on,77,27,0
2,note_on,74,27,0
2,note_on,80,27,0
2,note_on,80,0,60
2,note_on,74,0,0
2,note_on,77,0,0
2,note_on,76,27,0
2,note_on,73,27,0
2,note_on,73,0,60
2,note_on,76,0,0
2,note_on,77,33,0
2,note_on,74,33,0
2,note_on,80,33,0
2,note_on,80,0,60
2,note_on,74,0,0
2,note_on,77,0,0
2,note_on,73,27,0
2,note_on,76,27,0
2,note_on,76,0,60
2,note_on,73,0,0
2,note_on,80,27,0
2,note_on,77,27,0
2,note_on,74,27,0
2,note_on,74,0,60
2,note_on,77,0,0
2,note_on,80,0,0
2,note_on,76,27,0
2,note_on,73,27,0
2,note_on,73,0,60
2,note_on,76,0,0
2,note_on,77,33,0
2,note_on,74,33,0
2,note_on,80,33,0
2,note_on,80,0,60
2,note_on,74,0,0
2,note_on,77,0,0
2,note_on,73,27,0
2,note_on,76,27,0
2,note_on,76,0,60
2,note_on,73,0,0
2,note_on,80,27,0
2,note_on,77,27,0
2,note_on,74,27,0
2,note_on,74,0,60
2,note_on,77,0,0
2,note_on,80,0,0
2,note_on,73,27,0
2,note_on,76,27,0
2,note_on,76,0,60
2,note_on,73,0,0
2,note_on,74,33,0
2,note_on,77,33,0
2,note_on,80,33,0
2,note_on,80,0,60
2,note_on,77,0,0
2,note_on,74,0,0
2,note_on,73,27,0
2,note_on,76,27,0
2,note_on,76,0,60
2,note_on,73,0,0
2,note_on,74,27,0
2,note_on,80,27,0
2,note_on,77,27,0
2,note_on,77,0,60
2,note_on,80,0,0
2,note_on,74,0,0
2,note_on,73,27,0
2,note_on,76,27,0
2,note_on,76,0,60
2,note_on,73,0,0
2,note_on,80,27,0
2,note_on,74,27,0
2,note_on,77,27,0
2,note_on,77,0,60
2,note_on,74,0,0
2,note_on,80,0,0
2,note_on,78,27,0
2,note_on,78,0,60
2,note_on,77,27,0
2,note_on,77,0,60
2,note_on,78,27,0
2,note_on,78,0,60
2,note_on,77,25,0
2,note_on,77,0,60
2,note_on,78,25,0
2,note_on,78,0,60
2,note_on,77,25,0
2,note_on,77,0,60
2,note_on,78,27,0
2,note_on,78,0,60
2,note_on,77,27,0
2,note_on,77,0,60
2,note_on,78,27,0
2,note_on,78,0,60
2,note_on,77,27,0
2,note_on,77,0,60
2,note_on,78,27,0
2,note_on,78,0,60
2,note_on,77,23,0
2,note_on,77,0,60
2,note_on,78,23,0
2,note_on,78,0,60
2,note_on,77,24,0
2,note_on,77,0,60
2,note_on,78,24,0
2,note_on,78,0,60
2,note_on,62,32,240
2,note_on,67,30,0
2,note_on,67,0,120
2,note_on,68,26,0
2,note_on,68,0,120
2,note_on,62,0,0
2,note_on,61,36,0
2,note_on,68,30,0
2,note_on,68,0,120
2,note_on,69,26,0
2,note_on,69,0,120
2,note_on,61,0,0
2,note_on,70,35,0
2,note_on,56,32,0
2,note_on,70,0,120
2,note_on,71,29,0
2,note_on,71,0,120
2,note_on,56,0,0
2,note_on,57,29,0
2,note_on,64,36,0
2,note_on,64,0,240
2,note_on,57,0,0
2,note_on,57,24,0
2,note_on,52,24,0
2,note_on,64,30,0
2,note_on,64,0,240
2,note_on,52,0,0
2,note_on,57,0,0
2,note_on,59,24,0
2,note_on,64,30,0
2,note_on,52,24,0
2,note_on,52,0,240
2,note_on,64,0,0
2,note_on,59,0,0
2,note_on,64,30,0
2,note_on,56,24,0
2,note_on,56,0,240
2,note_on,64,0,0
2,note_on,57,29,0
2,note_on,64,36,0
2,note_on,64,0,240
2,note_on,57,0,0
2,note_on,62,32,0
2,note_on,67,30,0
2,note_on,67,0,120
2,note_on,68,26,0
2,note_on,68,0,120
2,note_on,62,0,0
2,note_on,61,36,0
2,note_on,68,30,0
2,note_on,68,0,120
2,note_on,69,26,0
2,note_on,69,0,120
2,note_on,61,0,0
2,note_on,70,35,0
2,note_on,56,32,0
2,note_on,70,0,120
2,note_on,71,29,0
2,note_on,71,0,120
2,note_on,56,0,0
2,note_on,64,36,0
2,note_on,57,29,0
2,note_on,57,0,240
2,note_on,64,0,0
2,note_on,57,24,0
2,note_on,52,24,0
2,note_on,64,30,0
2,note_on,64,0,240
2,note_on,52,0,0
2,note_on,57,0,0
2,note_on,64,30,0
2,note_on,52,24,0
2,note_on,59,24,0
2,note_on,59,0,240
2,note_on,52,0,0
2,note_on,64,0,0
2,note_on,56,24,0
2,note_on,64,30,0
2,note_on,64,0,240
2,note_on,56,0,0
2,note_on,64,30,0
2,note_on,57,24,0
2,note_on,57,0,240
2,note_on,64,0,0
2,note_on,67,32,0
2,note_on,72,30,0
2,note_on,72,0,120
2,note_on,73,26,0
2,note_on,73,0,120
2,note_on,67,0,0
2,note_on,73,30,0
2,note_on,65,36,0
2,note_on,73,0,120
2,note_on,74,26,0
2,note_on,74,0,120
2,note_on,65,0,0
2,note_on,61,32,0
2,note_on,75,35,0
2,note_on,75,0,120
2,note_on,76,29,0
2,note_on,76,0,120
2,note_on,61,0,0
2,note_on,62,29,0
2,note_on,69,36,0
2,note_on,69,0,240
2,note_on,62,0,0
2,note_on,57,24,0
2,note_on,69,30,0
2,note_on,62,24,0
2,note_on,62,0,240
2,note_on,69,0,0
2,note_on,57,0,0
2,note_on,64,24,0
2,note_on,57,24,0
2,note_on,69,30,0
2,note_on,69,0,240
2,note_on,57,0,0
2,note_on,64,0,0
2,note_on,61,24,0
2,note_on,69,30,0
2,note_on,61,0,240
2,note_on,62,29,0
2,note_on,62,0,240
2,note_on,69,0,0
2,note_on,67,32,0
2,note_on,72,30,0
2,note_on,72,0,120
2,note_on,73,26,0
2,note_on,73,0,120
2,note_on,67,0,0
2,note_on,65,36,0
2,note_on,73,30,0
2,note_on,73,0,120
2,note_on,74,26,0
2,note_on,74,0,120
2,note_on,65,0,0
2,note_on,61,32,0
2,note_on,75,35,0
2,note_on,75,0,120
2,note_on,76,29,0
2,note_on,76,0,120
2,note_on,61,0,0
2,note_on,69,36,0
2,note_on,62,29,0
2,note_on,62,0,240
2,note_on,69,0,0
2,note_on,69,30,0
2,note_on,62,24,0
2,note_on,57,24,0
2,note_on,57,0,240
2,note_on,62,0,0
2,note_on,69,0,0
2,note_on,69,30,0
2,note_on,64,24,0
2,note_on,57,24,0
2,note_on,57,0,240
2,note_on,64,0,0
2,note_on,69,0,0
2,note_on,61,24,0
2,note_on,69,30,0
2,note_on,61,0,240
2,note_on,62,29,0
2,note_on,62,0,240
2,note_on,69,0,0
2,note_on,60,36,0
2,note_on,45,30,0
2,note_on,45,0,240
2,note_on,60,0,0
2,note_on,46,24,0
2,note_on,62,29,0
2,note_on,62,0,120
2,note_on,46,0,0
2,note_on,48,28,120
2,note_on,63,35,0
2,note_on,63,0,240
2,note_on,48,0,0
2,note_on,65,25,0
2,note_on,50,20,0
2,note_on,50,0,120
2,note_on,65,0,0
2,note_on,66,31,120
2,note_on,51,26,0
2,note_on,51,0,240
2,note_on,66,0,0
2,note_on,68,25,0
2,note_on,52,21,0
2,note_on,52,0,120
2,note_on,68,0,0
2,note_on,54,22,120
2,note_on,63,27,0
2,note_on,63,0,120
2,note_on,60,23,0
2,note_on,60,0,120
2,note_on,54,0,0
2,note_on,56,24,0
2,note_on,64,29,0
2,note_on,64,0,60
2,note_on,59,25,60
2,note_on,59,0,60
2,note_on,56,0,60
2,note_on,57,29,0
2,note_on,66,29,0
2,note_on,66,0,60
2,note_on,60,24,60
2,note_on,60,0,60
2,note_on,57,0,60
2,note_on,59,24,0
2,note_on,68,29,0
2,note_on,68,0,60
2,note_on,62,24,60
2,note_on,62,0,60
2,note_on,59,0,60
2,note_on,66,29,0
2,note_on,60,24,0
2,note_on,60,0,60
2,note_on,66,0,0
2,note_on,62,24,180
2,note_on,68,29,0
2,note_on,68,0,60
2,note_on,62,0,0
2,note_on,71,43,180
2,note_on,68,37,0
2,note_on,68,0,60
2,note_on,71,0,0
2,note_on,62,32,60
2,note_on,62,0,60
2,note_on,69,41,60
2,note_on,73,46,0
2,note_on,73,0,60
2,note_on,69,0,0
2,note_on,61,31,60
2,note_on,61,0,60
2,note_on,74,46,60
2,note_on,68,41,0
2,note_on,68,0,60
2,note_on,74,0,0
2,note_on,59,32,60
2,note_on,59,0,60
2,note_on,57,38,30
2,note_on,73,43,30
2,note_on,63,36,90
2,note_on,63,0,30
2,note_on,64,48,0
2,note_on,64,0,60
2,note_on,73,0,60
2,note_on,57,0,0
2,note_on,49,37,0
2,note_on,49,0,60
2,note_on,66,32,30
2,note_on,66,0,30
2,note_on,64,45,0
2,note_on,64,0,60
2,note_on,40,38,60
2,note_on,40,0,60
2,note_on,63,26,30
2,note_on,63,0,30
2,note_on,64,42,0
2,note_on,64,0,60
2,note_on,44,37,60
2,note_on,44,0,60
2,note_on,65,31,30
2,note_on,65,0,30
2,note_on,64,42,0
2,note_on,64,0,60
2,note_on,45,39,60
2,note_on,45,0,60
2,note_on,63,26,30
2,note_on,63,0,30
2,note_on,64,43,0
2,note_on,64,0,60
2,note_on,71,43,60
2,note_on,68,37,0
2,note_on,68,0,60
2,note_on,71,0,0
2,note_on,62,32,60
2,note_on,62,0,60
2,note_on,73,46,60
2,note_on,69,41,0
2,note_on,69,0,60
2,note_on,73,0,0
2,note_on,61,31,60
2,note_on,61,0,60
2,note_on,74,46,60
2,note_on,68,41,0
2,note_on,68,0,60
2,note_on,74,0,0
2,note_on,59,32,60
2,note_on,59,0,60
2,note_on,57,37,39
2,note_on,73,43,21
2,note_on,63,36,90
2,note_on,63,0,30
2,note_on,64,48,0
2,note_on,64,0,60
2,note_on,73,0,60
2,note_on,49,37,0
2,note_on,57,0,9
2,note_on,49,0,51
2,note_on,66,32,30
2,note_on,66,0,30
2,note_on,64,45,0
2,note_on,64,0,60
2,note_on,40,38,60
2,note_on,40,0,60
2,note_on,63,26,30
2,note_on,63,0,30
2,note_on,64,42,0
2,note_on,64,0,60
2,note_on,44,37,60
2,note_on,44,0,60
2,note_on,65,31,30
2,note_on,65,0,30
2,note_on,64,42,0
2,note_on,64,0,60
2,note_on,45,39,60
2,note_on,45,0,60
2,note_on,63,26,30
2,note_on,63,0,30
2,note_on,64,43,0
2,note_on,64,0,60
2,note_on,73,37,60
2,note_on,76,43,0
2,note_on,76,0,60
2,note_on,73,0,0
2,note_on,67,32,60
2,note_on,67,0,60
2,note_on,77,46,60
2,note_on,74,41,0
2,note_on,74,0,60
2,note_on,77,0,0
2,note_on,65,31,60
2,note_on,65,0,60
2,note_on,73,41,60
2,note_on,79,46,0
2,note_on,79,0,60
2,note_on,73,0,0
2,note_on,64,32,60
2,note_on,64,0,60
2,note_on,62,43,60
2,note_on,77,43,0
2,note_on,68,36,90
2,note_on,68,0,30
2,note_on,69,48,0
2,note_on,69,0,60
2,note_on,77,0,60
2,note_on,62,0,0
2,note_on,53,37,0
2,note_on,53,0,60
2,note_on,70,32,30
2,note_on,70,0,30
2,note_on,69,45,0
2,note_on,69,0,60
2,note_on,45,38,60
2,note_on,45,0,60
2,note_on,68,26,30
2,note_on,68,0,30
2,note_on,69,42,0
2,note_on,69,0,60
2,note_on,49,37,60
2,note_on,49,0,60
2,note_on,70,31,30
2,note_on,70,0,30
2,note_on,69,42,0
2,note_on,69,0,60
2,note_on,50,39,60
2,note_on,50,0,60
2,note_on,68,26,30
2,note_on,68,0,30
2,note_on,69,43,0
2,note_on,69,0,60
2,note_on,76,43,60
2,note_on,73,37,0
2,note_on,73,0,60
2,note_on,76,0,0
2,note_on,67,32,60
2,note_on,67,0,60
2,note_on,74,41,60
2,note_on,77,46,0
2,note_on,77,0,60
2,note_on,74,0,0
2,note_on,65,31,60
2,note_on,65,0,60
2,note_on,73,41,60
2,note_on,79,46,0
2,note_on,79,0,60
2,note_on,73,0,0
2,note_on,64,32,60
2,note_on,64,0,60
2,note_on,62,43,60
2,note_on,77,43,0
2,note_on,68,36,90
2,note_on,68,0,30
2,note_on,69,48,0
2,note_on,69,0,60
2,note_on,77,0,60
2,note_on,62,0,0
2,note_on,53,37,0
2,note_on,53,0,60
2,note_on,70,32,30
2,note_on,70,0,30
2,note_on,69,45,0
2,note_on,69,0,60
2,note_on,45,38,60
2,note_on,45,0,60
2,note_on,68,26,30
2,note_on,68,0,30
2,note_on,69,42,0
2,note_on,69,0,60
2,note_on,49,37,60
2,note_on,49,0,60
2,note_on,70,31,30
2,note_on,70,0,30
2,note_on,69,42,0
2,note_on,69,0,60
2,note_on,50,39,60
2,note_on,50,0,60
2,note_on,29,44,180
2,note_on,41,44,0
2,note_on,41,0,60
2,note_on,42,36,0
2,note_on,42,0,60
2,note_on,41,36,0
2,note_on,41,0,60
2,note_on,42,36,0
2,note_on,42,0,60
2,note_on,29,0,0
2,note_on,41,45,0
2,note_on,53,45,0
2,note_on,53,0,60
2,note_on,54,38,0
2,note_on,54,0,60
2,note_on,53,38,0
2,note_on,53,0,60
2,note_on,54,38,0
2,note_on,54,0,60
2,note_on,41,0,0
2,note_on,65,45,0
2,note_on,53,45,0
2,note_on,65,0,60
2,note_on,66,38,0
2,note_on,66,0,60
2,note_on,65,37,0
2,note_on,65,0,60
2,note_on,66,37,0
2,note_on,66,0,60
2,note_on,53,0,0
2,note_on,65,46,0
2,note_on,65,0,60
2,note_on,67,37,0
2,note_on,67,0,60
2,note_on,65,37,0
2,note_on,65,0,60
2,note_on,29,47,60
2,note_on,41,47,0
2,note_on,41,0,60
2,note_on,42,39,0
2,note_on,42,0,60
2,note_on,41,39,0
2,note_on,41,0,60
2,note_on,42,39,0
2,note_on,42,0,60
2,note_on,29,0,0
2,note_on,41,48,0
2,note_on,53,48,0
2,note_on,53,0,60
2,note_on,54,40,0
2,note_on,54,0,60
2,note_on,53,40,0
2,note_on,53,0,60
2,note_on,54,40,0
2,note_on,54,0,60
2,note_on,41,0,0
2,note_on,53,48,0
2,note_on,65,48,0
2,note_on,65,0,60
2,note_on,66,40,0
2,note_on,66,0,60
2,note_on,65,39,0
2,note_on,65,0,60
2,note_on,66,39,0
2,note_on,66,0,60
2,note_on,53,0,0
2,note_on,65,49,0
2,note_on,65,0,60
2,note_on,67,40,0
2,note_on,67,0,60
2,note_on,65,40,0
2,note_on,65,0,60
2,note_on,34,56,60
2,note_on,46,56,0
2,note_on,46,0,60
2,note_on,47,47,0
2,note_on,47,0,60
2,note_on,46,47,0
2,note_on,46,0,60
2,note_on,47,47,0
2,note_on,47,0,60
2,note_on,34,0,0
2,note_on,46,57,0
2,note_on,58,57,0
2,note_on,58,0,60
2,note_on,59,50,0
2,note_on,59,0,60
2,note_on,58,50,0
2,note_on,58,0,60
2,note_on,59,51,0
2,note_on,59,0,60
2,note_on,46,0,0
2,note_on,58,57,0
2,note_on,70,57,0
2,note_on,70,0,60
2,note_on,71,51,0
2,note_on,71,0,60
2,note_on,70,44,0
2,note_on,70,0,60
2,note_on,71,44,0
2,note_on,71,0,60
2,note_on,58,0,0
2,note_on,70,58,0
2,note_on,70,0,60
2,note_on,34,66,180
2,note_on,46,66,0
2,note_on,46,0,60
2,note_on,47,54,0
2,note_on,47,0,60
2,note_on,46,54,0
2,note_on,46,0,60
2,note_on,47,54,0
2,note_on,47,0,60
2,note_on,34,0,0
2,note_on,58,67,0
2,note_on,46,67,0
2,note_on,58,0,60
2,note_on,59,58,0
2,note_on,59,0,60
2,note_on,58,58,0
2,note_on,58,0,60
2,note_on,59,59,0
2,note_on,59,0,60
2,note_on,46,0,0
2,note_on,70,67,0
2,note_on,58,67,0
2,note_on,70,0,60
2,note_on,71,59,0
2,note_on,71,0,60
2,note_on,70,51,0
2,note_on,70,0,60
2,note_on,71,51,0
2,note_on,71,0,60
2,note_on,58,0,0
2,note_on,70,68,0
2,note_on,70,0,60
2,note_on,46,93,180
2,note_on,34,77,0
2,note_on,34,0,60
2,note_on,46,0,0
2,note_on,42,70,60
2,note_on,54,82,0
2,note_on,54,0,60
2,note_on,42,0,0
2,note_on,35,81,60
2,note_on,47,97,0
2,note_on,47,0,60
2,note_on,35,0,0
2,note_on,54,83,60
2,note_on,42,70,0
2,note_on,42,0,60
2,note_on,54,0,0
2,note_on,49,96,60
2,note_on,37,81,0
2,note_on,37,0,60
2,note_on,49,0,0
2,note_on,42,75,60
2,note_on,54,87,0
2,note_on,54,0,60
2,note_on,42,0,0
2,note_on,39,81,60
2,note_on,51,96,0
2,note_on,51,0,60
2,note_on,39,0,0
2,note_on,42,76,60
2,note_on,54,90,0
2,note_on,54,0,60
2,note_on,42,0,0
2,note_on,52,96,60
2,note_on,40,81,0
2,note_on,40,0,60
2,note_on,52,0,0
2,note_on,55,91,60
2,note_on,46,77,0
2,note_on,46,0,60
2,note_on,55,0,0
2,note_on,58,90,60
2,note_on,49,76,0
2,note_on,49,0,60
2,note_on,58,0,0
2,note_on,61,92,60
2,note_on,52,76,0
2,note_on,52,0,60
2,note_on,61,0,0
2,note_on,64,91,60
2,note_on,55,77,0
2,note_on,55,0,60
2,note_on,64,0,0
2,note_on,67,91,60
2,note_on,58,77,0
2,note_on,58,0,60
2,note_on,67,0,0
2,note_on,61,72,60
2,note_on,70,86,0
2,note_on,70,0,60
2,note_on,61,0,0
2,note_on,64,67,60
2,note_on,73,80,0
2,note_on,73,0,60
2,note_on,64,0,0
2,note_on,76,73,60
2,note_on,76,0,60
2,note_on,64,68,60
2,note_on,64,0,60
2,note_on,73,63,60
2,note_on,73,0,60
2,note_on,61,57,60
2,note_on,61,0,60
2,note_on,70,53,60
2,note_on,70,0,60
2,note_on,58,45,60
2,note_on,58,0,60
2,note_on,62,29,60
2,note_on,62,0,120
2,note_on,53,18,120
2,note_on,59,22,0
2,note_on,59,0,240
2,note_on,60,22,0
2,note_on,60,0,240
2,note_on,53,0,0
2,note_on,40,33,0
2,note_on,40,0,60
2,note_on,41,29,0
2,note_on,41,0,60
2,note_on,40,35,0
2,note_on,40,0,60
2,note_on,41,29,0
2,note_on,53,29,60
2,note_on,53,0,60
2,note_on,41,0,0
2,note_on,59,22,180
2,note_on,53,18,0
2,note_on,59,0,240
2,note_on,60,22,0
2,note_on,60,0,240
2,note_on,53,0,0
2,note_on,40,33,0
2,note_on,40,0,60
2,note_on,41,29,0
2,note_on,41,0,60
2,note_on,40,35,0
2,note_on,40,0,60
2,note_on,41,29,0
2,note_on,53,29,60
2,note_on,53,0,60
2,note_on,41,0,0
2,note_on,41,18,180
2,note_on,47,22,0
2,note_on,50,22,3
2,note_on,47,0,237
2,note_on,48,22,0
2,note_on,50,0,3
2,note_on,51,22,0
2,note_on,48,0,237
2,note_on,41,0,0
2,note_on,42,33,0
2,note_on,51,0,3
2,note_on,42,0,57
2,note_on,41,29,0
2,note_on,41,0,60
2,note_on,42,35,0
2,note_on,42,0,60
2,note_on,41,29,0
2,note_on,41,0,60
2,note_on,58,38,0
2,note_on,34,38,0
2,note_on,50,30,0
2,note_on,50,0,120
2,note_on,34,0,0
2,note_on,58,0,0
2,note_on,58,26,0
2,note_on,50,20,0
2,note_on,53,20,0
2,note_on,53,0,60
2,note_on,50,0,0
2,note_on,58,0,0
2,note_on,58,22,60
2,note_on,53,17,0
2,note_on,50,17,0
2,note_on,50,0,60
2,note_on,53,0,0
2,note_on,58,0,0
2,note_on,53,17,60
2,note_on,50,17,0
2,note_on,58,22,0
2,note_on,58,0,60
2,note_on,50,0,0
2,note_on,53,0,0
2,note_on,50,20,60
2,note_on,58,25,0
2,note_on,53,20,0
2,note_on,53,0,60
2,note_on,58,0,0
2,note_on,50,0,0
2,note_on,50,17,60
2,note_on,53,17,0
2,note_on,58,22,0
2,note_on,58,0,60
2,note_on,53,0,0
2,note_on,50,0,0
2,note_on,53,17,60
2,note_on,50,17,0
2,note_on,58,22,0
2,note_on,58,0,60
2,note_on,50,0,0
2,note_on,53,0,0
2,note_on,32,44,180
2,note_on,32,0,120
2,note_on,53,20,0
2,note_on,58,20,0
2,note_on,62,26,0
2,note_on,62,0,60
2,note_on,58,0,0
2,note_on,53,0,0
2,note_on,53,17,60
2,note_on,58,17,0
2,note_on,62,22,0
2,note_on,62,0,60
2,note_on,58,0,0
2,note_on,53,0,0
2,note_on,58,17,60
2,note_on,62,22,0
2,note_on,53,17,0
2,note_on,53,0,60
2,note_on,62,0,0
2,note_on,58,0,0
2,note_on,53,20,60
2,note_on,62,25,0
2,note_on,58,20,0
2,note_on,58,0,60
2,note_on,62,0,0
2,note_on,53,0,0
2,note_on,53,17,60
2,note_on,62,22,0
2,note_on,58,17,0
2,note_on,58,0,60
2,note_on,62,0,0
2,note_on,53,0,0
2,note_on,53,17,60
2,note_on,58,17,0
2,note_on,62,22,0
2,note_on,62,0,60
2,note_on,58,0,0
2,note_on,53,0,0
2,note_on,30,45,180
2,note_on,30,0,120
2,note_on,64,26,0
2,note_on,61,20,0
2,note_on,54,20,0
2,note_on,54,0,60
2,note_on,61,0,0
2,note_on,64,0,0
2,note_on,61,17,60
2,note_on,64,22,0
2,note_on,54,17,0
2,note_on,54,0,60
2,note_on,64,0,0
2,note_on,61,0,0
2,note_on,64,22,60
2,note_on,61,17,0
2,note_on,54,17,0
2,note_on,54,0,60
2,note_on,61,0,0
2,note_on,64,0,0
2,note_on,64,25,60
2,note_on,61,20,0
2,note_on,54,20,0
2,note_on,54,0,60
2,note_on,61,0,0
2,note_on,64,0,0
2,note_on,54,17,60
2,note_on,64,22,0
2,note_on,61,17,0
2,note_on,61,0,60
2,note_on,64,0,0
2,note_on,54,0,0
2,note_on,64,22,60
2,note_on,61,17,0
2,note_on,54,17,0
2,note_on,54,0,60
2,note_on,61,0,0
2,note_on,64,0,0
2,note_on,29,42,180
2,note_on,29,0,120
2,note_on,57,20,0
2,note_on,66,26,0
2,note_on,63,20,0
2,note_on,63,0,60
2,note_on,66,0,0
2,note_on,57,0,0
2,note_on,63,17,60
2,note_on,65,22,0
2,note_on,57,17,0
2,note_on,57,0,60
2,note_on,65,0,0
2,note_on,63,0,0
2,note_on,57,17,60
2,note_on,63,17,0
2,note_on,65,22,0
2,note_on,65,0,60
2,note_on,63,0,0
2,note_on,57,0,0
2,note_on,65,25,60
2,note_on,63,20,0
2,note_on,57,20,0
2,note_on,57,0,60
2,note_on,63,0,0
2,note_on,65,0,0
2,note_on,60,20,60
2,note_on,63,17,0
2,note_on,65,22,0
2,note_on,65,0,60
2,note_on,63,0,0
2,note_on,60,0,0
2,note_on,63,17,60
2,note_on,65,22,0
2,note_on,65,0,60
2,note_on,63,0,0
2,note_on,34,46,180
2,note_on,34,0,120
2,note_on,58,20,0
2,note_on,65,26,0
2,note_on,65,0,60
2,note_on,58,0,0
2,note_on,65,22,60
2,note_on,53,17,0
2,note_on,53,0,60
2,note_on,65,0,0
2,note_on,58,17,60
2,note_on,65,22,0
2,note_on,65,0,60
2,note_on,58,0,0
2,note_on,65,25,60
2,note_on,53,20,0
2,note_on,53,0,60
2,note_on,65,0,0
2,note_on,58,17,60
2,note_on,65,22,0
2,note_on,65,0,60
2,note_on,58,0,0
2,note_on,65,22,60
2,note_on,53,20,0
2,note_on,53,0,120
2,note_on,65,0,0
2,note_on,32,46,120
2,note_on,32,0,120
2,note_on,62,20,0
2,note_on,70,26,0
2,note_on,70,0,60
2,note_on,62,0,0
2,note_on,70,22,60
2,note_on,56,17,0
2,note_on,56,0,60
2,note_on,70,0,0
2,note_on,62,17,60
2,note_on,70,22,0
2,note_on,70,0,60
2,note_on,62,0,0
2,note_on,56,20,60
2,note_on,70,25,0
2,note_on,70,0,60
2,note_on,56,0,0
2,note_on,62,17,60
2,note_on,70,22,0
2,note_on,70,0,60
2,note_on,62,0,0
2,note_on,56,20,60
2,note_on,70,22,0
2,note_on,70,0,120
2,note_on,56,0,0
2,note_on,42,46,120
2,note_on,30,46,0
2,note_on,30,0,120
2,note_on,42,0,0
2,note_on,54,17,0
2,note_on,61,17,0
2,note_on,64,22,0
2,note_on,64,0,60
2,note_on,61,0,0
2,note_on,54,0,0
2,note_on,64,23,60
2,note_on,61,21,0
2,note_on,58,21,0
2,note_on,58,0,120
2,note_on,61,0,0
2,note_on,64,0,0
2,note_on,35,52,120
2,note_on,47,52,0
2,note_on,47,0,120
2,note_on,35,0,0
2,note_on,59,20,0
2,note_on,66,20,0
2,note_on,69,26,0
2,note_on,69,0,60
2,note_on,66,0,0
2,note_on,59,0,0
2,note_on,63,24,60
2,note_on,69,26,0
2,note_on,66,24,0
2,note_on,66,0,120
2,note_on,69,0,0
2,note_on,63,0,0
2,note_on,29,59,120
2,note_on,41,59,0
2,note_on,41,0,120
2,note_on,29,0,0
2,note_on,53,46,0
2,note_on,53,0,60
2,note_on,52,39,0
2,note_on,52,0,60
2,note_on,54,46,0
2,note_on,54,0,60
2,note_on,53,39,0
2,note_on,53,0,60
2,note_on,55,46,0
2,note_on,55,0,60
2,note_on,54,39,0
2,note_on,54,0,60
2,note_on,56,46,0
2,note_on,56,0,60
2,note_on,55,40,0
2,note_on,55,0,60
2,note_on,57,46,0
2,note_on,57,0,60
2,note_on,56,40,0
2,note_on,56,0,60
2,note_on,58,46,0
2,note_on,58,0,60
2,note_on,57,40,0
2,note_on,57,0,60
2,note_on,59,46,0
2,note_on,59,0,60
2,note_on,58,40,0
2,note_on,58,0,60
2,note_on,60,46,0
2,note_on,60,0,60
2,note_on,59,46,0
2,note_on,59,0,60
2,note_on,61,46,0
2,note_on,61,0,60
2,note_on,60,42,0
2,note_on,60,0,60
2,note_on,62,48,0
2,note_on,62,0,60
2,note_on,61,42,0
2,note_on,61,0,60
2,note_on,63,49,0
2,note_on,63,0,60
2,note_on,62,46,0
2,note_on,62,0,60
2,note_on,64,50,0
2,note_on,64,0,60
2,note_on,63,46,0
2,note_on,63,0,60
2,note_on,65,54,0
2,note_on,65,0,60
2,note_on,64,48,0
2,note_on,64,0,60
2,note_on,66,57,0
2,note_on,66,0,60
2,note_on,65,53,0
2,note_on,65,0,60
2,note_on,67,58,0
2,note_on,67,0,60
2,note_on,66,55,0
2,note_on,66,0,60
2,note_on,68,62,0
2,note_on,68,0,60
2,note_on,67,53,0
2,note_on,67,0,60
2,note_on,69,58,0
2,note_on,69,0,60
2,note_on,68,50,0
2,note_on,68,0,60
2,note_on,70,54,0
2,note_on,70,0,60
2,note_on,69,48,0
2,note_on,69,0,60
2,note_on,72,50,0
2,note_on,72,0,60
2,note_on,69,42,0
2,note_on,69,0,60
2,note_on,68,38,0
2,note_on,68,0,60
2,note_on,71,35,0
2,note_on,71,0,60
2,note_on,69,38,0
2,note_on,69,0,60
2,note_on,72,33,0
2,note_on,72,0,60
2,note_on,68,38,0
2,note_on,68,0,60
2,note_on,71,35,0
2,note_on,71,0,60
2,note_on,69,38,0
2,note_on,69,0,60
2,note_on,72,35,0
2,note_on,72,0,60
2,note_on,68,38,0
2,note_on,68,0,60
2,note_on,71,35,0
2,note_on,71,0,60
2,note_on,69,37,0
2,note_on,69,0,60
2,note_on,72,32,0
2,note_on,72,0,60
2,note_on,68,36,0
2,note_on,68,0,60
2,note_on,71,31,0
2,note_on,71,0,60
2,note_on,69,36,0
2,note_on,69,0,60
2,note_on,72,30,0
2,note_on,72,0,60
2,note_on,68,35,0
2,note_on,68,0,60
2,note_on,71,29,0
2,note_on,71,0,60
2,note_on,69,33,0
2,note_on,69,0,60
2,note_on,72,28,0
2,note_on,72,0,60
2,note_on,68,32,0
2,note_on,68,0,60
2,note_on,71,27,0
2,note_on,71,0,60
2,note_on,69,31,0
2,note_on,69,0,60
2,note_on,72,26,0
2,note_on,72,0,60
2,note_on,70,30,0
2,note_on,70,0,120
2,note_on,59,30,360
2,note_on,50,30,0
2,note_on,56,30,0
2,note_on,62,43,600
2,note_on,62,0,60
2,note_on,59,0,60
2,note_on,50,0,0
2,note_on,56,0,0
2,note_on,56,30,0
2,note_on,53,30,0
2,note_on,61,43,0
2,note_on,61,0,60
2,note_on,60,43,60
2,note_on,60,0,60
2,note_on,53,0,60
2,note_on,56,0,0
2,note_on,50,30,0
2,note_on,59,43,0
2,note_on,55,30,0
2,note_on,59,0,60
2,note_on,62,43,60
2,note_on,62,0,60
2,note_on,55,0,60
2,note_on,50,0,0
2,note_on,53,30,0
2,note_on,55,30,0
2,note_on,61,43,0
2,note_on,61,0,60
2,note_on,60,43,0
2,note_on,60,0,60
2,note_on,59,43,0
2,note_on,59,0,60
2,note_on,55,0,60
2,note_on,53,0,0
2,note_on,54,28,0
2,note_on,50,28,0
2,note_on,62,36,0
2,note_on,57,28,0
2,note_on,57,0,120
2,note_on,54,0,0
2,note_on,50,0,0
2,note_on,62,0,0
2,note_on,55,28,840
2,note_on,48,28,0
2,note_on,63,36,0
2,note_on,63,0,120
2,note_on,48,0,0
2,note_on,55,0,0
2,note_on,48,28,360
2,note_on,57,36,0
2,note_on,51,28,0
2,note_on,41,28,0
2,note_on,41,0,120
2,note_on,48,0,0
2,note_on,57,0,0
2,note_on,51,0,0
2,note_on,46,28,320
2,note_on,53,28,10
2,note_on,62,36,10
2,note_on,62,0,80
2,note_on,53,0,0
2,note_on,46,0,0
2,note_on,38,35,180
2,note_on,39,35,60
2,note_on,38,0,12
2,note_on,38,35,48
2,note_on,39,0,12
2,note_on,40,35,48
2,note_on,38,0,12
2,note_on,41,36,48
2,note_on,40,0,12
2,note_on,42,36,48
2,note_on,41,0,12
2,note_on,41,36,48
2,note_on,42,0,12
2,note_on,43,36,48
2,note_on,41,0,12
2,note_on,44,36,48
2,note_on,43,0,12
2,note_on,45,36,48
2,note_on,44,0,12
2,note_on,44,37,48
2,note_on,45,0,12
2,note_on,46,37,48
2,note_on,44,0,12
2,note_on,47,37,48
2,note_on,46,0,12
2,note_on,48,37,48
2,note_on,47,0,12
2,note_on,47,38,48
2,note_on,48,0,12
2,note_on,49,38,48
2,note_on,47,0,12
2,note_on,50,38,48
2,note_on,49,0,12
2,note_on,51,39,48
2,note_on,50,0,12
2,note_on,50,39,48
2,note_on,51,0,12
2,note_on,52,39,48
2,note_on,50,0,12
2,note_on,53,39,48
2,note_on,52,0,12
2,note_on,54,38,48
2,note_on,53,0,12
2,note_on,53,38,48
2,note_on,54,0,12
2,note_on,55,38,48
2,note_on,53,0,12
2,note_on,56,38,48
2,note_on,55,0,12
2,note_on,57,39,48
2,note_on,56,0,12
2,note_on,56,39,48
2,note_on,57,0,12
2,note_on,59,39,48
2,note_on,56,0,12
2,note_on,62,33,48
2,note_on,50,33,0
2,note_on,59,0,12
2,note_on,63,35,48
2,note_on,62,0,12
2,note_on,62,35,48
2,note_on,63,0,12
2,note_on,65,35,48
2,note_on,62,0,12
2,note_on,50,0,48
2,note_on,66,35,0
2,note_on,65,0,12
2,note_on,67,35,48
2,note_on,66,0,12
2,note_on,66,35,48
2,note_on,67,0,12
2,note_on,68,35,48
2,note_on,66,0,12
2,note_on,69,36,48
2,note_on,68,0,12
2,note_on,70,36,48
2,note_on,69,0,12
2,note_on,69,36,48
2,note_on,70,0,12
2,note_on,73,36,48
2,note_on,69,0,12
2,note_on,74,36,48
2,note_on,73,0,12
2,note_on,73,36,48
2,note_on,74,0,12
2,note_on,74,36,48
2,note_on,73,0,12
2,note_on,73,36,48
2,note_on,74,0,12
2,note_on,60,45,48
2,note_on,72,38,0
2,note_on,73,0,12
2,note_on,71,33,48
2,note_on,72,0,12
2,note_on,72,33,48
2,note_on,71,0,12
2,note_on,70,33,48
2,note_on,72,0,12
2,note_on,60,0,48
2,note_on,69,33,0
2,note_on,70,0,12
2,note_on,67,33,48
2,note_on,69,0,12
2,note_on,68,33,48
2,note_on,67,0,12
2,note_on,66,33,48
2,note_on,68,0,12
2,note_on,53,45,48
2,note_on,65,38,0
2,note_on,66,0,12
2,note_on,64,33,48
2,note_on,65,0,12
2,note_on,65,33,48
2,note_on,64,0,12
2,note_on,63,33,48
2,note_on,65,0,12
2,note_on,53,0,48
2,note_on,62,33,0
2,note_on,63,0,12
2,note_on,61,33,48
2,note_on,62,0,12
2,note_on,60,33,48
2,note_on,61,0,12
2,note_on,59,33,48
2,note_on,60,0,12
2,note_on,59,0,36
2,note_on,46,41,12
2,note_on,58,49,0
2,note_on,58,0,60
2,note_on,46,0,0
2,note_on,58,22,60
2,note_on,53,26,0
2,note_on,53,0,60
2,note_on,58,0,0
2,note_on,62,25,0
2,note_on,62,0,60
2,note_on,58,21,0
2,note_on,54,25,0
2,note_on,54,0,60
2,note_on,58,0,0
2,note_on,62,25,0
2,note_on,62,0,60
2,note_on,58,21,0
2,note_on,55,25,0
2,note_on,55,0,60
2,note_on,58,0,0
2,note_on,62,25,0
2,note_on,62,0,60
2,note_on,58,25,0
2,note_on,54,30,0
2,note_on,54,0,60
2,note_on,58,0,0
2,note_on,62,22,0
2,note_on,62,0,60
2,note_on,53,30,0
2,note_on,58,25,0
2,note_on,58,0,60
2,note_on,53,0,0
2,note_on,62,21,0
2,note_on,62,0,60
2,note_on,58,25,0
2,note_on,54,30,0
2,note_on,54,0,60
2,note_on,58,0,0
2,note_on,62,25,0
2,note_on,62,0,60
2,note_on,58,25,0
2,note_on,55,30,0
2,note_on,55,0,60
2,note_on,58,0,0
2,note_on,62,22,0
2,note_on,62,0,40
2,note_on,54,30,0
2,note_on,57,30,10
2,note_on,63,30,10
2,note_on,63,0,60
2,note_on,57,0,0
2,note_on,54,0,0
2,note_on,81,41,60
2,note_on,78,41,0
2,note_on,78,0,60
2,note_on,81,0,0
2,note_on,71,39,60
2,note_on,74,39,0
2,note_on,74,0,60
2,note_on,71,0,0
2,note_on,72,38,60
2,note_on,75,38,0
2,note_on,75,0,60
2,note_on,72,0,0
2,note_on,68,38,60
2,note_on,65,38,0
2,note_on,65,0,60
2,note_on,68,0,0
2,note_on,69,37,60
2,note_on,66,37,0
2,note_on,66,0,60
2,note_on,69,0,0
2,note_on,62,36,60
2,note_on,59,36,0
2,note_on,59,0,60
2,note_on,62,0,0
2,note_on,60,36,60
2,note_on,63,36,0
2,note_on,63,0,60
2,note_on,60,0,0
2,note_on,41,45,60
2,note_on,41,0,120
2,note_on,58,22,0
2,note_on,53,26,0
2,note_on,53,0,60
2,note_on,58,0,0
2,note_on,62,25,0
2,note_on,62,0,60
2,note_on,58,21,0
2,note_on,54,25,0
2,note_on,54,0,60
2,note_on,58,0,0
2,note_on,62,25,0
2,note_on,62,0,60
2,note_on,58,21,0
2,note_on,55,25,0
2,note_on,55,0,60
2,note_on,58,0,0
2,note_on,62,25,0
2,note_on,62,0,60
2,note_on,54,30,0
2,note_on,58,25,0
2,note_on,58,0,60
2,note_on,54,0,0
2,note_on,62,22,0
2,note_on,62,0,60
2,note_on,53,30,0
2,note_on,58,25,0
2,note_on,58,0,60
2,note_on,53,0,0
2,note_on,62,21,0
2,note_on,62,0,60
2,note_on,58,25,0
2,note_on,54,30,0
2,note_on,54,0,60
2,note_on,58,0,0
2,note_on,62,25,0
2,note_on,62,0,60
2,note_on,58,25,0
2,note_on,55,30,0
2,note_on,55,0,60
2,note_on,58,0,0
2,note_on,62,22,0
2,note_on,54,25,40
2,note_on,57,25,10
2,note_on,62,0,10
2,note_on,63,30,0
2,note_on,63,0,60
2,note_on,57,0,0
2,note_on,54,0,0
2,note_on,78,35,60
2,note_on,81,41,0
2,note_on,81,0,60
2,note_on,78,0,0
2,note_on,71,33,60
2,note_on,74,39,0
2,note_on,74,0,60
2,note_on,71,0,0
2,note_on,72,32,60
2,note_on,75,38,0
2,note_on,75,0,60
2,note_on,72,0,0
2,note_on,68,38,60
2,note_on,65,32,0
2,note_on,65,0,60
2,note_on,68,0,0
2,note_on,69,37,60
2,note_on,66,31,0
2,note_on,66,0,60
2,note_on,69,0,0
2,note_on,62,36,60
2,note_on,59,30,0
2,note_on,59,0,60
2,note_on,62,0,0
2,note_on,63,36,60
2,note_on,60,29,0
2,note_on,60,0,60
2,note_on,63,0,0
2,note_on,57,43,60
2,note_on,51,36,0
2,note_on,51,0,60
2,note_on,57,0,0
2,note_on,84,45,60
2,note_on,81,37,0
2,note_on,81,0,120
2,note_on,84,0,0
2,note_on,77,43,0
2,note_on,74,36,0
2,note_on,74,0,120
2,note_on,77,0,0
2,note_on,75,35,0
2,note_on,78,42,0
2,note_on,78,0,120
2,note_on,75,0,0
2,note_on,70,42,0
2,note_on,68,35,0
2,note_on,68,0,120
2,note_on,70,0,0
2,note_on,72,41,0
2,note_on,69,35,0
2,note_on,69,0,120
2,note_on,72,0,0
2,note_on,62,33,0
2,note_on,65,39,0
2,note_on,65,0,120
2,note_on,62,0,0
2,note_on,63,32,0
2,note_on,66,38,0
2,note_on,66,0,120
2,note_on,63,0,0
2,note_on,60,43,0
2,note_on,54,36,0
2,note_on,46,36,0
2,note_on,46,0,60
2,note_on,54,0,0
2,note_on,60,0,0
2,note_on,84,37,60
2,note_on,87,45,0
2,note_on,87,0,120
2,note_on,84,0,0
2,note_on,77,36,0
2,note_on,80,43,0
2,note_on,80,0,120
2,note_on,77,0,0
2,note_on,81,42,0
2,note_on,78,35,0
2,note_on,78,0,120
2,note_on,81,0,0
2,note_on,90,42,0
2,note_on,87,35,0
2,note_on,87,0,120
2,note_on,90,0,0
2,note_on,83,41,0
2,note_on,80,35,0
2,note_on,80,0,120
2,note_on,83,0,0
2,note_on,81,33,0
2,note_on,84,39,0
2,note_on,84,0,120
2,note_on,81,0,0
2,note_on,90,32,0
2,note_on,93,38,0
2,note_on,93,0,120
2,note_on,90,0,0
2,note_on,83,39,0
2,note_on,86,39,0
2,note_on,86,0,120
2,note_on,83,0,0
2,note_on,87,35,0
2,note_on,84,35,0
2,note_on,84,0,120
2,note_on,87,0,0
2,note_on,80,39,0
2,note_on,83,39,0
2,note_on,83,0,120
2,note_on,80,0,0
2,note_on,81,33,0
2,note_on,84,33,0
2,note_on,84,0,120
2,note_on,81,0,0
2,note_on,80,39,0
2,note_on,83,39,0
2,note_on,83,0,120
2,note_on,80,0,0
2,note_on,84,32,0
2,note_on,81,32,0
2,note_on,81,0,120
2,note_on,84,0,0
2,note_on,80,39,0
2,note_on,83,39,0
2,note_on,83,0,120
2,note_on,80,0,0
2,note_on,84,35,0
2,note_on,81,35,0
2,note_on,81,0,120
2,note_on,84,0,0
2,note_on,82,39,0
2,note_on,86,39,0
2,note_on,86,0,120
2,note_on,82,0,0
2,note_on,65,20,4200
2,note_on,70,22,30
2,note_on,77,24,30
2,note_on,77,0,180
2,note_on,70,0,0
2,note_on,65,0,0
2,note_on,46,24,240
2,note_on,53,28,30
2,note_on,62,32,30
2,note_on,62,0,30
2,note_on,53,0,0
2,note_on,46,0,0
