Track,Message Type,Note,Velocity,Time
1,note_on,61,77,840
1,note_on,61,0,116
1,note_on,61,85,0
1,note_on,61,0,720
1,note_on,61,73,0
1,note_on,61,0,80
1,note_on,59,70,0
1,note_on,59,0,80
1,note_on,61,68,0
1,note_on,61,0,80
1,note_on,59,77,0
1,note_on,59,0,768
1,note_on,61,64,0
1,note_on,61,0,48
1,note_on,64,70,0
1,note_on,64,0,48
1,note_on,62,66,0
1,note_on,62,0,48
1,note_on,61,66,0
1,note_on,61,0,44
1,note_on,61,79,4
1,note_on,61,73,720
1,note_on,61,0,80
1,note_on,59,70,0
1,note_on,59,0,80
1,note_on,61,68,0
1,note_on,61,0,80
1,note_on,61,0,0
1,note_on,59,81,0
1,note_on,59,0,746
1,note_on,57,62,1
1,note_on,57,0,39
1,note_on,56,67,13
1,note_on,56,0,40
1,note_on,59,59,0
1,note_on,59,0,40
1,note_on,57,63,0
1,note_on,57,0,39
1,note_on,56,66,0
1,note_on,56,0,41
1,note_on,56,75,1
1,note_on,56,46,840
1,note_on,56,0,118
1,note_on,56,0,2
1,note_on,56,54,0
1,note_on,56,0,746
1,note_on,57,48,1
1,note_on,57,0,39
1,note_on,56,47,13
1,note_on,56,0,40
1,note_on,59,53,0
1,note_on,59,0,40
1,note_on,57,47,0
1,note_on,57,0,39
1,note_on,56,44,0
1,note_on,56,0,40
1,note_on,56,60,2
1,note_on,56,0,1440
1,note_on,56,48,2280
1,note_on,56,0,50
1,note_on,56,48,10
1,note_on,56,0,50
1,note_on,61,58,10
1,note_on,61,0,120
1,note_on,52,48,360
1,note_on,56,48,0
1,note_on,61,60,0
1,note_on,56,0,240
1,note_on,52,0,0
1,note_on,61,0,360
1,note_on,60,48,0
1,note_on,60,0,120
1,note_on,61,58,0
1,note_on,61,0,120
1,note_on,63,62,0
1,note_on,63,0,60
1,note_on,54,52,0
1,note_on,57,52,30
1,note_on,64,65,30
1,note_on,64,0,120
1,note_on,57,55,0
1,note_on,57,0,120
1,note_on,57,0,0
1,note_on,54,0,0
1,note_on,64,61,0
1,note_on,64,0,120
1,note_on,63,48,0
1,note_on,63,0,120
1,note_on,61,62,0
1,note_on,61,0,360
1,note_on,61,54,0
1,note_on,61,0,60
1,note_on,63,54,0
1,note_on,63,0,60
1,note_on,61,59,0
1,note_on,52,47,0
1,note_on,56,47,0
1,note_on,56,0,240
1,note_on,52,0,0
1,note_on,61,0,120
1,note_on,60,55,0
1,note_on,60,0,120
1,note_on,61,62,0
1,note_on,52,47,480
1,note_on,56,47,0
1,note_on,56,0,240
1,note_on,52,0,0
1,note_on,61,0,120
1,note_on,63,60,0
1,note_on,63,0,120
1,note_on,64,63,0
1,note_on,64,0,120
1,note_on,64,66,360
1,note_on,56,48,0
1,note_on,59,48,0
1,note_on,59,0,240
1,note_on,56,0,0
1,note_on,64,0,360
1,note_on,63,52,0
1,note_on,63,0,120
1,note_on,64,63,0
1,note_on,64,0,120
1,note_on,66,68,0
1,note_on,66,0,120
1,note_on,68,71,0
1,note_on,57,52,0
1,note_on,59,52,0
1,note_on,68,0,120
1,note_on,63,60,0
1,note_on,63,0,120
1,note_on,59,0,0
1,note_on,57,0,0
1,note_on,68,67,0
1,note_on,68,0,120
1,note_on,66,52,0
1,note_on,66,0,120
1,note_on,64,68,0
1,note_on,64,0,360
1,note_on,64,56,0
1,note_on,64,0,60
1,note_on,66,56,0
1,note_on,66,0,60
1,note_on,56,47,0
1,note_on,64,64,0
1,note_on,59,47,0
1,note_on,59,0,240
1,note_on,56,0,0
1,note_on,64,0,120
1,note_on,63,60,0
1,note_on,63,0,120
1,note_on,64,68,0
1,note_on,64,0,480
1,note_on,60,47,0
1,note_on,64,57,0
1,note_on,56,37,0
1,note_on,68,67,0
1,note_on,54,37,0
1,note_on,54,0,240
1,note_on,56,0,0
1,note_on,60,0,0
1,note_on,64,0,120
1,note_on,63,60,0
1,note_on,63,0,60
1,note_on,56,35,0
1,note_on,61,37,15
1,note_on,56,0,15
1,note_on,64,40,0
1,note_on,61,0,15
1,note_on,68,42,0
1,note_on,64,0,15
1,note_on,68,0,0
1,note_on,73,77,0
1,note_on,68,0,15
1,note_on,73,0,225
1,note_on,68,55,240
1,note_on,73,69,0
1,note_on,61,55,0
1,note_on,64,55,0
1,note_on,64,0,240
1,note_on,68,0,0
1,note_on,61,0,360
1,note_on,73,0,0
1,note_on,72,57,0
1,note_on,60,48,0
1,note_on,60,0,120
1,note_on,72,0,0
1,note_on,73,69,0
1,note_on,61,58,0
1,note_on,61,0,120
1,note_on,73,0,0
1,note_on,63,62,0
1,note_on,75,73,0
1,note_on,75,0,120
1,note_on,63,0,0
1,note_on,64,65,0
1,note_on,76,77,0
1,note_on,76,0,120
1,note_on,64,0,0
1,note_on,69,67,0
1,note_on,69,0,120
1,note_on,64,62,0
1,note_on,76,74,0
1,note_on,76,0,120
1,note_on,64,0,0
1,note_on,63,49,0
1,note_on,75,58,0
1,note_on,75,0,120
1,note_on,63,0,0
1,note_on,61,61,0
1,note_on,73,72,0
1,note_on,73,0,360
1,note_on,61,0,0
1,note_on,73,64,0
1,note_on,73,0,60
1,note_on,75,64,0
1,note_on,75,0,60
1,note_on,73,72,0
1,note_on,68,61,0
1,note_on,61,61,0
1,note_on,68,0,240
1,note_on,61,0,120
1,note_on,73,0,0
1,note_on,72,62,0
1,note_on,60,52,0
1,note_on,60,0,120
1,note_on,72,0,0
1,note_on,73,70,0
1,note_on,61,59,0
1,note_on,64,56,480
1,note_on,68,67,0
1,note_on,68,0,240
1,note_on,64,0,0
1,note_on,61,0,120
1,note_on,73,0,0
1,note_on,68,62,0
1,note_on,76,74,0
1,note_on,71,62,0
1,note_on,64,62,0
1,note_on,64,0,120
1,note_on,68,0,0
1,note_on,76,0,0
1,note_on,71,0,0
1,note_on,80,84,0
1,note_on,71,71,0
1,note_on,68,71,0
1,note_on,68,0,120
1,note_on,71,0,0
1,note_on,80,0,0
1,note_on,68,86,360
1,note_on,68,0,480
1,note_on,68,60,0
1,note_on,68,0,60
1,note_on,67,54,0
1,note_on,67,0,60
1,note_on,68,54,0
1,note_on,68,0,60
1,note_on,67,53,0
1,note_on,67,0,60
1,note_on,64,55,0
1,note_on,64,0,60
1,note_on,67,57,0
1,note_on,67,0,60
1,note_on,68,59,0
1,note_on,68,0,60
1,note_on,70,61,0
1,note_on,70,0,60
1,note_on,71,63,0
1,note_on,71,0,60
1,note_on,73,64,0
1,note_on,73,0,60
1,note_on,75,66,0
1,note_on,75,0,60
1,note_on,76,68,0
1,note_on,76,0,60
1,note_on,79,70,0
1,note_on,79,0,60
1,note_on,80,72,0
1,note_on,80,0,60
1,note_on,82,74,0
1,note_on,82,0,60
1,note_on,83,76,0
1,note_on,83,0,60
1,note_on,85,81,0
1,note_on,85,0,60
1,note_on,87,84,0
1,note_on,87,0,60
1,note_on,88,87,0
1,note_on,88,0,60
1,note_on,87,83,0
1,note_on,87,0,60
1,note_on,85,81,0
1,note_on,85,0,60
1,note_on,83,80,0
1,note_on,83,0,60
1,note_on,82,78,0
1,note_on,82,0,60
1,note_on,80,77,0
1,note_on,80,0,60
1,note_on,79,75,0
1,note_on,79,0,60
1,note_on,83,80,0
1,note_on,83,0,60
1,note_on,82,78,0
1,note_on,82,0,60
1,note_on,80,75,0
1,note_on,80,0,60
1,note_on,79,73,0
1,note_on,79,0,60
1,note_on,76,70,0
1,note_on,76,0,60
1,note_on,75,68,0
1,note_on,75,0,60
1,note_on,73,65,0
1,note_on,73,0,60
1,note_on,76,71,0
1,note_on,76,0,60
1,note_on,75,67,0
1,note_on,75,0,60
1,note_on,73,63,0
1,note_on,73,0,60
1,note_on,71,58,0
1,note_on,71,0,60
1,note_on,70,54,0
1,note_on,70,0,60
1,note_on,68,50,0
1,note_on,68,0,60
1,note_on,67,46,0
1,note_on,67,0,60
1,note_on,68,42,0
1,note_on,68,0,60
1,note_on,67,46,0
1,note_on,67,0,60
1,note_on,64,34,0
1,note_on,64,0,60
1,note_on,67,33,0
1,note_on,67,0,60
1,note_on,71,38,0
1,note_on,71,0,120
1,note_on,71,34,0
1,note_on,71,0,45
1,note_on,71,30,15
1,note_on,71,0,45
1,note_on,71,34,15
1,note_on,71,0,45
1,note_on,71,28,15
1,note_on,71,0,60
1,note_on,71,36,0
1,note_on,71,0,360
1,note_on,70,30,0
1,note_on,70,0,60
1,note_on,68,42,0
1,note_on,68,0,360
1,note_on,68,35,0
1,note_on,68,0,60
1,note_on,70,35,0
1,note_on,70,0,60
1,note_on,63,28,0
1,note_on,68,39,0
1,note_on,59,28,0
1,note_on,59,0,240
1,note_on,63,0,0
1,note_on,68,0,120
1,note_on,67,37,0
1,note_on,67,0,120
1,note_on,68,35,0
1,note_on,68,0,480
1,note_on,63,23,0
1,note_on,59,23,0
1,note_on,59,0,240
1,note_on,63,0,0
1,note_on,68,41,120
1,note_on,68,0,50
1,note_on,68,41,10
1,note_on,68,0,50
1,note_on,80,54,10
1,note_on,76,45,0
1,note_on,76,0,120
1,note_on,80,0,0
1,note_on,71,48,300
1,note_on,76,48,30
1,note_on,80,57,30
1,note_on,71,0,240
1,note_on,80,0,360
1,note_on,76,0,0
1,note_on,78,48,0
1,note_on,75,40,0
1,note_on,75,0,120
1,note_on,78,0,0
1,note_on,80,51,0
1,note_on,76,43,0
1,note_on,76,0,120
1,note_on,80,0,0
1,note_on,78,45,0
1,note_on,81,53,0
1,note_on,81,0,120
1,note_on,78,0,0
1,note_on,80,47,0
1,note_on,83,56,0
1,note_on,83,0,120
1,note_on,80,0,0
1,note_on,76,50,0
1,note_on,71,42,0
1,note_on,71,0,120
1,note_on,76,0,0
1,note_on,78,46,0
1,note_on,81,55,0
1,note_on,81,0,120
1,note_on,78,0,0
1,note_on,80,49,0
1,note_on,76,41,0
1,note_on,76,0,120
1,note_on,80,0,0
1,note_on,78,54,0
1,note_on,75,45,0
1,note_on,75,0,120
1,note_on,78,0,0
1,note_on,78,48,240
1,note_on,78,0,40
1,note_on,78,44,0
1,note_on,78,0,40
1,note_on,80,44,1
1,note_on,75,48,39
1,note_on,78,57,0
1,note_on,80,0,1
1,note_on,78,0,119
1,note_on,75,0,0
1,note_on,77,51,300
1,note_on,74,46,0
1,note_on,74,0,60
1,note_on,77,0,0
1,note_on,75,45,0
1,note_on,78,54,0
1,note_on,78,0,120
1,note_on,75,0,0
1,note_on,80,61,360
1,note_on,68,48,0
1,note_on,75,48,0
1,note_on,75,0,480
1,note_on,68,0,0
1,note_on,80,0,0
1,note_on,73,45,0
1,note_on,76,54,0
1,note_on,76,0,120
1,note_on,73,0,0
1,note_on,68,48,300
1,note_on,73,48,30
1,note_on,76,57,30
1,note_on,68,0,240
1,note_on,76,0,360
1,note_on,73,0,0
1,note_on,72,40,0
1,note_on,75,48,0
1,note_on,75,0,120
1,note_on,72,0,0
1,note_on,76,51,0
1,note_on,73,43,0
1,note_on,73,0,120
1,note_on,76,0,0
1,note_on,78,53,0
1,note_on,75,45,0
1,note_on,75,0,60
1,note_on,78,0,0
1,note_on,76,47,0
1,note_on,73,40,0
1,note_on,73,0,30
1,note_on,76,0,0
1,note_on,75,40,0
1,note_on,78,47,0
1,note_on,78,0,30
1,note_on,75,0,0
1,note_on,80,56,0
1,note_on,76,47,0
1,note_on,76,0,120
1,note_on,80,0,0
1,note_on,68,42,60
1,note_on,73,50,0
1,note_on,73,0,60
1,note_on,68,0,0
1,note_on,75,46,0
1,note_on,78,55,0
1,note_on,78,0,120
1,note_on,75,0,0
1,note_on,76,49,0
1,note_on,73,41,0
1,note_on,73,0,120
1,note_on,76,0,0
1,note_on,72,45,0
1,note_on,75,54,0
1,note_on,75,0,120
1,note_on,72,0,0
1,note_on,75,48,240
1,note_on,75,0,40
1,note_on,75,44,0
1,note_on,75,0,40
1,note_on,76,44,1
1,note_on,75,57,39
1,note_on,72,48,0
1,note_on,76,0,1
1,note_on,72,0,119
1,note_on,75,0,0
1,note_on,73,51,300
1,note_on,70,46,0
1,note_on,70,0,60
1,note_on,73,0,0
1,note_on,75,54,0
1,note_on,72,45,0
1,note_on,72,0,480
1,note_on,75,0,0
1,note_on,75,42,300
1,note_on,75,0,50
1,note_on,75,42,10
1,note_on,75,0,50
1,note_on,80,42,10
1,note_on,75,54,60
1,note_on,75,0,360
1,note_on,68,44,0
1,note_on,72,35,40
1,note_on,80,0,20
1,note_on,72,0,20
1,note_on,80,35,0
1,note_on,68,0,40
1,note_on,72,52,0
1,note_on,72,0,360
1,note_on,73,36,0
1,note_on,75,44,40
1,note_on,73,0,20
1,note_on,75,0,20
1,note_on,80,0,0
1,note_on,80,36,0
1,note_on,75,54,40
1,note_on,75,0,360
1,note_on,78,46,0
1,note_on,76,36,40
1,note_on,76,0,40
1,note_on,80,0,0
1,note_on,80,36,0
1,note_on,78,0,40
1,note_on,76,53,0
1,note_on,76,0,360
1,note_on,75,49,0
1,note_on,73,38,40
1,note_on,73,0,40
1,note_on,80,0,0
1,note_on,80,37,0
1,note_on,75,0,40
1,note_on,73,54,0
1,note_on,73,0,360
1,note_on,68,46,0
1,note_on,73,37,40
1,note_on,73,0,40
1,note_on,80,0,0
1,note_on,80,37,0
1,note_on,68,0,40
1,note_on,73,53,0
1,note_on,73,0,360
1,note_on,75,49,0
1,note_on,76,37,40
1,note_on,76,0,40
1,note_on,80,0,0
1,note_on,80,37,0
1,note_on,75,0,40
1,note_on,76,54,0
1,note_on,76,0,360
1,note_on,80,46,0
1,note_on,80,0,40
1,note_on,78,36,0
1,note_on,78,0,40
1,note_on,80,36,0
1,note_on,80,0,40
1,note_on,78,53,0
1,note_on,78,0,360
1,note_on,76,49,0
1,note_on,75,38,40
1,note_on,75,0,40
1,note_on,80,0,0
1,note_on,80,38,0
1,note_on,76,0,40
1,note_on,75,54,0
1,note_on,68,38,160
1,note_on,68,0,40
1,note_on,80,0,0
1,note_on,80,38,0
1,note_on,75,0,40
1,note_on,68,46,0
1,note_on,72,38,160
1,note_on,72,0,40
1,note_on,80,0,0
1,note_on,80,38,0
1,note_on,68,0,40
1,note_on,72,53,0
1,note_on,73,38,160
1,note_on,73,0,40
1,note_on,80,0,0
1,note_on,80,38,0
1,note_on,72,0,40
1,note_on,73,49,0
1,note_on,75,37,160
1,note_on,75,0,40
1,note_on,80,0,0
1,note_on,80,37,0
1,note_on,73,0,40
1,note_on,75,54,0
1,note_on,78,36,160
1,note_on,78,0,40
1,note_on,80,0,0
1,note_on,80,36,0
1,note_on,75,0,40
1,note_on,78,46,0
1,note_on,76,36,160
1,note_on,76,0,40
1,note_on,80,0,0
1,note_on,80,40,0
1,note_on,78,0,40
1,note_on,76,53,0
1,note_on,75,38,160
1,note_on,75,0,40
1,note_on,80,0,0
1,note_on,80,38,0
1,note_on,76,0,40
1,note_on,75,49,0
1,note_on,75,0,240
1,note_on,80,0,0
1,note_on,73,54,0
1,note_on,80,44,0
1,note_on,80,0,60
1,note_on,81,39,0
1,note_on,81,0,60
1,note_on,80,44,0
1,note_on,80,0,60
1,note_on,81,39,0
1,note_on,81,0,60
1,note_on,73,0,0
1,note_on,80,44,0
1,note_on,80,0,60
1,note_on,81,39,0
1,note_on,81,0,60
1,note_on,80,44,0
1,note_on,80,0,60
1,note_on,81,39,0
1,note_on,81,0,60
1,note_on,80,44,0
1,note_on,73,53,0
1,note_on,80,0,60
1,note_on,81,39,0
1,note_on,81,0,60
1,note_on,80,44,0
1,note_on,80,0,60
1,note_on,81,39,0
1,note_on,81,0,60
1,note_on,73,0,0
1,note_on,80,44,0
1,note_on,80,0,60
1,note_on,81,39,0
1,note_on,81,0,60
1,note_on,75,49,0
1,note_on,80,44,0
1,note_on,80,0,60
1,note_on,81,39,0
1,note_on,81,0,60
1,note_on,75,0,0
1,note_on,80,44,0
1,note_on,76,50,0
1,note_on,80,0,60
1,note_on,81,39,0
1,note_on,81,0,60
1,note_on,80,44,0
1,note_on,80,0,60
1,note_on,81,39,0
1,note_on,81,0,60
1,note_on,76,0,0
1,note_on,80,60,0
1,note_on,80,0,60
1,note_on,81,39,0
1,note_on,81,0,60
1,note_on,80,44,0
1,note_on,80,0,60
1,note_on,81,39,0
1,note_on,81,0,60
1,note_on,80,44,0
1,note_on,85,65,0
1,note_on,80,0,60
1,note_on,81,39,0
1,note_on,81,0,60
1,note_on,80,44,0
1,note_on,80,0,60
1,note_on,81,39,0
1,note_on,81,0,60
1,note_on,85,0,0
1,note_on,80,44,0
1,note_on,88,66,0
1,note_on,80,0,60
1,note_on,81,39,0
1,note_on,81,0,60
1,note_on,80,44,0
1,note_on,80,0,60
1,note_on,81,39,0
1,note_on,81,0,60
1,note_on,88,0,0
1,note_on,80,59,0
1,note_on,80,0,48
1,note_on,87,42,0
1,note_on,87,0,48
1,note_on,92,51,0
1,note_on,92,0,48
1,note_on,87,45,0
1,note_on,87,0,48
1,note_on,80,39,0
1,note_on,80,0,36
1,note_on,80,58,12
1,note_on,80,0,45
1,note_on,80,40,15
1,note_on,80,0,60
1,note_on,92,51,0
1,note_on,92,0,60
1,note_on,80,40,0
1,note_on,80,0,60
1,note_on,84,65,0
1,note_on,92,52,60
1,note_on,92,0,60
1,note_on,84,0,0
1,note_on,87,41,0
1,note_on,87,0,60
1,note_on,84,41,0
1,note_on,84,0,60
1,note_on,85,61,0
1,note_on,92,49,60
1,note_on,92,0,60
1,note_on,85,0,0
1,note_on,85,39,0
1,note_on,85,0,60
1,note_on,80,39,0
1,note_on,80,0,60
1,note_on,87,63,0
1,note_on,87,0,60
1,note_on,92,51,0
1,note_on,92,0,60
1,note_on,87,41,0
1,note_on,87,0,60
1,note_on,80,41,0
1,note_on,80,0,60
1,note_on,90,58,0
1,note_on,90,0,60
1,note_on,92,48,0
1,note_on,92,0,60
1,note_on,90,41,0
1,note_on,90,0,60
1,note_on,80,41,0
1,note_on,80,0,60
1,note_on,88,63,0
1,note_on,88,0,60
1,note_on,92,49,0
1,note_on,92,0,60
1,note_on,88,40,0
1,note_on,88,0,60
1,note_on,80,40,0
1,note_on,80,0,60
1,note_on,87,60,0
1,note_on,87,0,60
1,note_on,92,48,0
1,note_on,92,0,60
1,note_on,87,41,0
1,note_on,87,0,60
1,note_on,80,41,0
1,note_on,80,0,45
1,note_on,80,65,15
1,note_on,80,0,48
1,note_on,85,42,0
1,note_on,85,0,48
1,note_on,92,51,0
1,note_on,92,0,48
1,note_on,85,45,0
1,note_on,85,0,36
1,note_on,80,39,12
1,note_on,80,0,36
1,note_on,80,58,12
1,note_on,80,0,45
1,note_on,80,40,15
1,note_on,80,0,60
1,note_on,92,51,0
1,note_on,92,0,60
1,note_on,80,40,0
1,note_on,80,0,60
1,note_on,85,65,0
1,note_on,92,52,60
1,note_on,92,0,60
1,note_on,85,0,0
1,note_on,85,41,0
1,note_on,85,0,60
1,note_on,80,41,0
1,note_on,80,0,60
1,note_on,87,63,0
1,note_on,92,49,60
1,note_on,92,0,60
1,note_on,87,0,0
1,note_on,87,39,0
1,note_on,87,0,60
1,note_on,80,39,0
1,note_on,80,0,60
1,note_on,88,64,0
1,note_on,88,0,60
1,note_on,92,51,0
1,note_on,92,0,60
1,note_on,88,41,0
1,note_on,88,0,60
1,note_on,80,41,0
1,note_on,80,0,60
1,note_on,92,53,0
1,note_on,92,0,60
1,note_on,80,44,0
1,note_on,80,0,60
1,note_on,92,51,0
1,note_on,92,0,60
1,note_on,80,41,0
1,note_on,80,0,60
1,note_on,90,63,0
1,note_on,90,0,60
1,note_on,92,49,0
1,note_on,92,0,60
1,note_on,90,40,0
1,note_on,90,0,60
1,note_on,80,40,0
1,note_on,80,0,60
1,note_on,88,63,0
1,note_on,88,0,60
1,note_on,92,48,0
1,note_on,92,0,60
1,note_on,88,41,0
1,note_on,88,0,60
1,note_on,80,41,0
1,note_on,80,0,60
1,note_on,87,64,0
1,note_on,87,0,48
1,note_on,92,46,0
1,note_on,92,0,48
1,note_on,93,51,0
1,note_on,93,0,48
1,note_on,92,45,0
1,note_on,92,0,48
1,note_on,87,39,0
1,note_on,87,0,48
1,note_on,80,63,0
1,note_on,80,0,48
1,note_on,92,46,0
1,note_on,92,0,48
1,note_on,93,52,0
1,note_on,93,0,48
1,note_on,92,46,0
1,note_on,92,0,48
1,note_on,80,40,0
1,note_on,80,0,48
1,note_on,84,60,0
1,note_on,84,0,48
1,note_on,92,47,0
1,note_on,92,0,48
1,note_on,93,53,0
1,note_on,93,0,48
1,note_on,92,46,0
1,note_on,92,0,48
1,note_on,80,40,0
1,note_on,80,0,48
1,note_on,85,61,0
1,note_on,85,0,48
1,note_on,92,48,0
1,note_on,92,0,48
1,note_on,93,54,0
1,note_on,93,0,48
1,note_on,92,47,0
1,note_on,92,0,48
1,note_on,80,41,0
1,note_on,80,0,48
1,note_on,87,66,0
1,note_on,87,0,48
1,note_on,92,49,0
1,note_on,92,0,48
1,note_on,93,55,0
1,note_on,93,0,48
1,note_on,92,48,0
1,note_on,92,0,48
1,note_on,80,42,0
1,note_on,80,0,48
1,note_on,90,64,0
1,note_on,90,0,48
1,note_on,92,50,0
1,note_on,92,0,48
1,note_on,93,56,0
1,note_on,93,0,48
1,note_on,92,49,0
1,note_on,92,0,48
1,note_on,80,42,0
1,note_on,80,0,48
1,note_on,88,65,0
1,note_on,88,0,48
1,note_on,92,51,0
1,note_on,92,0,48
1,note_on,93,57,0
1,note_on,93,0,48
1,note_on,92,50,0
1,note_on,92,0,48
1,note_on,80,43,0
1,note_on,80,0,48
1,note_on,87,66,0
1,note_on,87,0,48
1,note_on,92,51,0
1,note_on,92,0,48
1,note_on,93,57,0
1,note_on,93,0,48
1,note_on,92,51,0
1,note_on,92,0,48
1,note_on,80,44,0
1,note_on,80,0,48
1,note_on,85,67,0
1,note_on,92,55,0
1,note_on,92,0,60
1,note_on,93,48,0
1,note_on,93,0,60
1,note_on,92,55,0
1,note_on,92,0,60
1,note_on,93,48,0
1,note_on,93,0,60
1,note_on,85,0,0
1,note_on,92,55,0
1,note_on,92,0,60
1,note_on,93,48,0
1,note_on,93,0,60
1,note_on,92,55,0
1,note_on,92,0,60
1,note_on,93,48,0
1,note_on,93,0,60
1,note_on,92,55,0
1,note_on,85,66,0
1,note_on,92,0,60
1,note_on,93,48,0
1,note_on,93,0,60
1,note_on,92,55,0
1,note_on,92,0,60
1,note_on,93,48,0
1,note_on,93,0,60
1,note_on,85,0,0
1,note_on,92,55,0
1,note_on,92,0,60
1,note_on,93,48,0
1,note_on,93,0,60
1,note_on,84,60,0
1,note_on,92,55,0
1,note_on,92,0,60
1,note_on,93,48,0
1,note_on,93,0,60
1,note_on,84,0,0
1,note_on,85,63,0
1,note_on,92,55,0
1,note_on,92,0,60
1,note_on,93,48,0
1,note_on,93,0,60
1,note_on,92,55,0
1,note_on,92,0,60
1,note_on,93,48,0
1,note_on,93,0,60
1,note_on,92,58,0
1,note_on,92,0,60
1,note_on,93,48,0
1,note_on,93,0,60
1,note_on,92,55,0
1,note_on,92,0,60
1,note_on,93,48,0
1,note_on,93,0,60
1,note_on,85,0,0
1,note_on,88,52,0
1,note_on,88,0,44
1,note_on,92,47,0
1,note_on,100,54,44
1,note_on,92,0,0
1,note_on,100,0,44
1,note_on,99,51,0
1,note_on,97,49,43
1,note_on,99,0,1
1,note_on,97,0,43
1,note_on,92,47,0
1,note_on,92,0,44
1,note_on,88,45,0
1,note_on,87,42,44
1,note_on,88,0,0
1,note_on,87,0,44
1,note_on,85,40,0
1,note_on,80,38,43
1,note_on,85,0,1
1,note_on,80,0,43
1,note_on,76,41,0
1,note_on,76,0,42
1,note_on,75,53,0
1,note_on,75,0,60
1,note_on,76,37,120
1,note_on,76,0,60
1,note_on,78,47,0
1,note_on,78,0,60
1,note_on,80,43,120
1,note_on,80,0,60
1,note_on,81,51,0
1,note_on,81,0,60
1,note_on,80,42,120
1,note_on,80,0,60
1,note_on,83,51,0
1,note_on,83,0,60
1,note_on,81,46,120
1,note_on,81,0,60
1,note_on,80,54,0
1,note_on,80,0,120
1,note_on,68,51,60
1,note_on,80,55,60
1,note_on,80,0,120
1,note_on,68,0,0
1,note_on,70,53,60
1,note_on,80,58,60
1,note_on,80,0,120
1,note_on,70,0,0
1,note_on,72,55,60
1,note_on,80,60,60
1,note_on,80,0,120
1,note_on,72,0,0
1,note_on,73,37,60
1,note_on,73,0,30
1,note_on,75,37,0
1,note_on,75,0,30
1,note_on,73,50,0
1,note_on,73,0,60
1,note_on,72,37,120
1,note_on,72,0,60
1,note_on,73,48,0
1,note_on,73,0,60
1,note_on,75,39,120
1,note_on,75,0,30
1,note_on,76,34,0
1,note_on,76,0,15
1,note_on,78,35,0
1,note_on,78,0,15
1,note_on,76,51,0
1,note_on,76,0,60
1,note_on,75,42,120
1,note_on,75,0,60
1,note_on,76,53,0
1,note_on,76,0,60
1,note_on,78,42,120
1,note_on,78,0,60
1,note_on,79,55,0
1,note_on,79,0,60
1,note_on,80,45,120
1,note_on,80,0,60
1,note_on,81,54,0
1,note_on,81,0,60
1,note_on,80,48,120
1,note_on,80,0,60
1,note_on,78,55,0
1,note_on,78,0,60
1,note_on,76,42,120
1,note_on,76,0,60
1,note_on,75,52,0
1,note_on,80,52,0
1,note_on,80,0,60
1,note_on,75,0,0
1,note_on,73,42,120
1,note_on,73,0,30
1,note_on,72,49,0
1,note_on,87,57,30
1,note_on,87,0,60
1,note_on,88,55,120
1,note_on,88,0,60
1,note_on,90,62,0
1,note_on,90,0,60
1,note_on,92,55,120
1,note_on,92,0,60
1,note_on,72,0,0
1,note_on,93,61,0
1,note_on,93,0,60
1,note_on,92,49,120
1,note_on,92,0,60
1,note_on,95,57,0
1,note_on,95,0,60
1,note_on,93,51,120
1,note_on,93,0,60
1,note_on,92,60,0
1,note_on,92,0,120
1,note_on,68,51,60
1,note_on,80,58,60
1,note_on,80,0,120
1,note_on,68,0,0
1,note_on,70,53,60
1,note_on,80,62,60
1,note_on,82,62,0
1,note_on,82,0,120
1,note_on,80,0,0
1,note_on,70,0,0
1,note_on,72,55,60
1,note_on,84,65,60
1,note_on,80,65,0
1,note_on,80,0,120
1,note_on,84,0,0
1,note_on,72,0,0
1,note_on,73,61,60
1,note_on,73,0,20
1,note_on,80,55,0
1,note_on,80,0,20
1,note_on,87,66,0
1,note_on,87,0,20
1,note_on,85,62,0
1,note_on,85,0,60
1,note_on,87,40,0
1,note_on,87,0,60
1,note_on,85,50,0
1,note_on,85,0,60
1,note_on,87,40,0
1,note_on,87,0,60
1,note_on,85,49,0
1,note_on,85,0,60
1,note_on,87,40,0
1,note_on,87,0,60
1,note_on,85,47,0
1,note_on,85,0,60
1,note_on,87,39,0
1,note_on,87,0,60
1,note_on,85,47,0
1,note_on,85,0,60
1,note_on,87,39,0
1,note_on,87,0,60
1,note_on,85,46,0
1,note_on,85,0,60
1,note_on,87,39,0
1,note_on,87,0,60
1,note_on,85,46,0
1,note_on,85,0,60
1,note_on,87,39,0
1,note_on,87,0,60
1,note_on,85,45,0
1,note_on,85,0,60
1,note_on,87,39,0
1,note_on,87,0,60
1,note_on,85,51,0
1,note_on,85,0,60
1,note_on,87,38,0
1,note_on,87,0,60
1,note_on,85,48,0
1,note_on,85,0,60
1,note_on,87,38,0
1,note_on,87,0,60
1,note_on,85,46,0
1,note_on,85,0,60
1,note_on,87,38,0
1,note_on,87,0,60
1,note_on,85,45,0
1,note_on,85,0,60
1,note_on,87,38,0
1,note_on,87,0,60
1,note_on,85,45,0
1,note_on,85,0,60
1,note_on,87,38,0
1,note_on,87,0,60
1,note_on,85,43,0
1,note_on,85,0,60
1,note_on,87,37,0
1,note_on,87,0,60
1,note_on,85,43,0
1,note_on,85,0,60
1,note_on,87,37,0
1,note_on,87,0,60
1,note_on,85,43,0
1,note_on,85,0,60
1,note_on,87,37,0
1,note_on,87,0,60
1,note_on,85,44,0
1,note_on,77,31,0
1,note_on,77,0,60
1,note_on,85,0,0
1,note_on,87,33,0
1,note_on,87,0,60
1,note_on,85,41,0
1,note_on,77,31,0
1,note_on,77,0,60
1,note_on,85,0,0
1,note_on,87,33,0
1,note_on,87,0,60
1,note_on,77,33,0
1,note_on,85,42,0
1,note_on,85,0,60
1,note_on,77,0,0
1,note_on,87,35,0
1,note_on,87,0,60
1,note_on,77,33,0
1,note_on,85,42,0
1,note_on,85,0,60
1,note_on,77,0,0
1,note_on,87,36,0
1,note_on,87,0,60
1,note_on,85,44,0
1,note_on,77,35,0
1,note_on,77,0,60
1,note_on,85,0,0
1,note_on,87,37,0
1,note_on,87,0,60
1,note_on,85,44,0
1,note_on,77,36,0
1,note_on,77,0,60
1,note_on,85,0,0
1,note_on,87,38,0
1,note_on,87,0,60
1,note_on,77,36,0
1,note_on,85,45,0
1,note_on,85,0,60
1,note_on,77,0,0
1,note_on,87,40,0
1,note_on,87,0,60
1,note_on,77,38,0
1,note_on,85,47,0
1,note_on,85,0,60
1,note_on,77,0,0
1,note_on,87,41,0
1,note_on,87,0,60
1,note_on,85,56,0
1,note_on,77,40,0
1,note_on,77,0,60
1,note_on,85,0,0
1,note_on,87,42,0
1,note_on,87,0,60
1,note_on,77,39,0
1,note_on,85,51,0
1,note_on,85,0,60
1,note_on,77,0,0
1,note_on,87,40,0
1,note_on,87,0,60
1,note_on,85,48,0
1,note_on,77,37,0
1,note_on,77,0,60
1,note_on,85,0,0
1,note_on,87,39,0
1,note_on,87,0,60
1,note_on,85,45,0
1,note_on,77,36,0
1,note_on,77,0,60
1,note_on,85,0,0
1,note_on,87,37,0
1,note_on,87,0,60
1,note_on,77,35,0
1,note_on,85,44,0
1,note_on,85,0,60
1,note_on,77,0,0
1,note_on,87,36,0
1,note_on,87,0,60
1,note_on,77,33,0
1,note_on,85,41,0
1,note_on,85,0,60
1,note_on,77,0,0
1,note_on,87,35,0
1,note_on,87,0,60
1,note_on,85,39,0
1,note_on,77,32,0
1,note_on,77,0,60
1,note_on,85,0,0
1,note_on,87,33,0
1,note_on,87,0,60
1,note_on,77,31,0
1,note_on,85,38,0
1,note_on,85,0,60
1,note_on,77,0,0
1,note_on,87,32,0
1,note_on,87,0,60
1,note_on,77,39,0
1,note_on,85,39,0
1,note_on,85,0,60
1,note_on,77,0,0
1,note_on,84,33,0
1,note_on,84,0,60
1,note_on,87,42,0
1,note_on,87,0,60
1,note_on,85,37,0
1,note_on,85,0,60
1,note_on,89,47,0
1,note_on,89,0,60
1,note_on,87,44,0
1,note_on,87,0,60
1,note_on,85,41,0
1,note_on,85,0,60
1,note_on,80,39,0
1,note_on,80,0,60
1,note_on,77,44,0
1,note_on,77,0,60
1,note_on,75,39,0
1,note_on,75,0,60
1,note_on,73,39,0
1,note_on,73,0,60
1,note_on,68,39,0
1,note_on,68,0,60
1,note_on,65,42,0
1,note_on,65,0,60
1,note_on,68,36,0
1,note_on,68,0,60
1,note_on,73,39,0
1,note_on,73,0,60
1,note_on,75,43,0
1,note_on,75,0,60
1,note_on,77,46,0
1,note_on,77,0,60
1,note_on,80,42,0
1,note_on,80,0,60
1,note_on,85,44,0
1,note_on,85,0,60
1,note_on,87,46,0
1,note_on,87,0,60
1,note_on,89,52,0
1,note_on,89,0,60
1,note_on,92,46,0
1,note_on,92,0,60
1,note_on,97,53,0
1,note_on,97,0,60
1,note_on,92,46,0
1,note_on,92,0,60
1,note_on,99,59,0
1,note_on,99,0,60
1,note_on,97,52,0
1,note_on,97,0,60
1,note_on,101,59,0
1,note_on,101,0,60
1,note_on,99,53,0
1,note_on,99,0,60
1,note_on,97,59,0
1,note_on,97,0,60
1,note_on,92,54,0
1,note_on,92,0,60
1,note_on,89,59,0
1,note_on,89,0,60
1,note_on,97,59,0
1,note_on,97,0,60
1,note_on,92,65,0
1,note_on,92,0,60
1,note_on,89,56,0
1,note_on,89,0,60
1,note_on,87,56,0
1,note_on,87,0,60
1,note_on,85,40,0
1,note_on,85,0,60
1,note_on,89,58,0
1,note_on,89,0,60
1,note_on,87,51,0
1,note_on,87,0,60
1,note_on,85,50,0
1,note_on,85,0,60
1,note_on,80,50,0
1,note_on,80,0,60
1,note_on,77,62,0
1,note_on,77,0,60
1,note_on,85,52,0
1,note_on,85,0,60
1,note_on,80,59,0
1,note_on,80,0,60
1,note_on,77,55,0
1,note_on,77,0,60
1,note_on,75,63,0
1,note_on,75,0,60
1,note_on,73,56,0
1,note_on,73,0,60
1,note_on,77,57,0
1,note_on,77,0,60
1,note_on,75,58,0
1,note_on,75,0,60
1,note_on,73,69,0
1,note_on,73,0,60
1,note_on,68,60,0
1,note_on,68,0,60
1,note_on,65,63,0
1,note_on,65,0,60
1,note_on,73,58,0
1,note_on,73,0,60
1,note_on,68,69,0
1,note_on,68,0,60
1,note_on,65,64,0
1,note_on,65,0,60
1,note_on,63,66,0
1,note_on,63,0,60
1,note_on,61,68,0
1,note_on,61,0,60
1,note_on,65,70,0
1,note_on,65,0,80
1,note_on,63,77,0
1,note_on,63,0,80
1,note_on,61,82,0
1,note_on,61,0,70
1,note_on,61,85,0
1,note_on,61,0,720
1,note_on,61,73,0
1,note_on,61,0,80
1,note_on,59,70,0
1,note_on,59,0,80
1,note_on,61,68,0
1,note_on,61,0,80
1,note_on,59,77,0
1,note_on,59,0,768
1,note_on,61,64,0
1,note_on,61,0,48
1,note_on,64,70,0
1,note_on,64,0,48
1,note_on,62,66,0
1,note_on,62,0,48
1,note_on,61,66,0
1,note_on,61,0,40
1,note_on,61,74,8
1,note_on,61,73,720
1,note_on,61,0,80
1,note_on,59,70,0
1,note_on,59,0,80
1,note_on,61,68,0
1,note_on,61,0,80
1,note_on,61,0,0
1,note_on,59,77,0
1,note_on,59,0,746
1,note_on,57,54,1
1,note_on,57,0,39
1,note_on,56,62,13
1,note_on,56,0,40
1,note_on,59,56,0
1,note_on,59,0,40
1,note_on,57,56,0
1,note_on,57,0,39
1,note_on,56,56,0
1,note_on,56,0,41
1,note_on,56,65,1
1,note_on,56,46,840
1,note_on,56,0,118
1,note_on,56,0,2
1,note_on,56,54,0
1,note_on,56,0,746
1,note_on,57,45,1
1,note_on,57,0,39
1,note_on,56,44,13
1,note_on,56,0,40
1,note_on,59,50,0
1,note_on,59,0,40
1,note_on,57,44,0
1,note_on,57,0,39
1,note_on,56,41,0
1,note_on,56,0,40
1,note_on,56,56,2
1,note_on,48,26,1200
1,note_on,54,30,0
1,note_on,51,26,0
1,note_on,51,0,240
1,note_on,54,0,0
1,note_on,48,0,0
1,note_on,56,0,240
1,note_on,61,32,1680
1,note_on,52,32,0
1,note_on,64,40,0
1,note_on,56,32,0
1,note_on,56,0,480
1,note_on,61,0,0
1,note_on,52,0,0
1,note_on,64,0,0
1,note_on,61,32,480
1,note_on,66,32,0
1,note_on,69,40,0
1,note_on,57,32,0
1,note_on,57,0,480
1,note_on,61,0,0
1,note_on,66,0,0
1,note_on,69,0,0
1,note_on,61,32,480
1,note_on,52,32,0
1,note_on,64,40,0
1,note_on,56,32,0
1,note_on,56,0,480
1,note_on,61,0,0
1,note_on,52,0,0
1,note_on,64,0,0
1,note_on,64,40,480
1,note_on,56,32,0
1,note_on,52,32,0
1,note_on,61,32,0
1,note_on,61,0,480
1,note_on,64,0,0
1,note_on,56,0,0
1,note_on,52,0,0
1,note_on,68,40,480
1,note_on,59,32,0
1,note_on,56,32,0
1,note_on,64,32,0
1,note_on,64,0,480
1,note_on,68,0,0
1,note_on,59,0,0
1,note_on,56,0,0
1,note_on,57,32,480
1,note_on,63,32,0
1,note_on,59,32,0
1,note_on,71,40,0
1,note_on,71,0,480
1,note_on,57,0,0
1,note_on,63,0,0
1,note_on,59,0,0
1,note_on,68,40,480
1,note_on,56,32,0
1,note_on,59,32,0
1,note_on,64,32,0
1,note_on,64,0,480
1,note_on,68,0,0
1,note_on,56,0,0
1,note_on,59,0,0
1,note_on,60,44,480
1,note_on,68,56,0
1,note_on,64,56,0
1,note_on,56,44,0
1,note_on,54,44,0
1,note_on,64,0,360
1,note_on,63,57,0
1,note_on,63,0,60
1,note_on,54,0,60
1,note_on,60,0,0
1,note_on,68,0,0
1,note_on,56,0,0
1,note_on,64,60,480
1,note_on,61,55,0
1,note_on,68,66,0
1,note_on,73,75,0
1,note_on,68,0,480
1,note_on,64,0,0
1,note_on,69,65,0
1,note_on,66,58,0
1,note_on,61,0,120
1,note_on,60,67,0
1,note_on,60,0,120
1,note_on,66,0,0
1,note_on,69,0,0
1,note_on,73,0,0
1,note_on,61,69,0
1,note_on,61,0,120
1,note_on,63,72,0
1,note_on,63,0,120
1,note_on,64,74,0
1,note_on,64,0,120
1,note_on,57,65,0
1,note_on,57,0,120
1,note_on,64,74,0
1,note_on,64,0,120
1,note_on,63,66,0
1,note_on,63,0,120
1,note_on,61,78,0
1,note_on,61,0,120
1,note_on,61,63,240
1,note_on,61,0,60
1,note_on,63,63,0
1,note_on,63,0,60
1,note_on,73,70,0
1,note_on,61,70,0
1,note_on,64,56,0
1,note_on,68,56,0
1,note_on,68,0,240
1,note_on,64,0,0
1,note_on,73,0,0
1,note_on,61,0,120
1,note_on,60,72,0
1,note_on,60,0,120
1,note_on,61,78,0
1,note_on,61,0,120
1,note_on,67,62,360
1,note_on,73,62,0
1,note_on,64,62,0
1,note_on,76,78,0
1,note_on,76,0,390
1,note_on,67,0,0
1,note_on,73,0,0
1,note_on,64,0,0
1,note_on,80,85,90
1,note_on,68,68,0
1,note_on,73,68,0
1,note_on,73,0,120
1,note_on,68,0,0
1,note_on,80,0,0
1,note_on,66,64,750
1,note_on,72,67,30
1,note_on,75,71,30
1,note_on,81,86,30
1,note_on,81,0,240
1,note_on,66,0,0
1,note_on,72,0,0
1,note_on,75,0,0
1,note_on,67,71,1680
1,note_on,67,0,60
1,note_on,68,76,0
1,note_on,68,0,60
1,note_on,71,80,0
1,note_on,71,0,60
1,note_on,69,71,0
1,note_on,69,0,60
1,note_on,68,64,0
1,note_on,68,0,60
1,note_on,69,65,0
1,note_on,69,0,60
1,note_on,72,67,0
1,note_on,72,0,60
1,note_on,73,69,0
1,note_on,73,0,60
1,note_on,75,70,0
1,note_on,75,0,69
1,note_on,76,72,0
1,note_on,76,0,68
1,note_on,78,74,0
1,note_on,79,80,68
1,note_on,78,0,1
1,note_on,79,0,68
1,note_on,80,83,0
1,note_on,80,0,68
1,note_on,83,88,0
1,note_on,81,82,68
1,note_on,83,0,1
1,note_on,81,0,69
1,note_on,80,69,0
1,note_on,80,0,60
1,note_on,81,61,0
1,note_on,81,0,60
1,note_on,80,69,0
1,note_on,80,0,60
1,note_on,81,63,0
1,note_on,81,0,60
1,note_on,80,72,0
1,note_on,80,0,60
1,note_on,81,64,0
1,note_on,81,0,60
1,note_on,80,72,0
1,note_on,80,0,60
1,note_on,81,65,0
1,note_on,81,0,60
1,note_on,80,74,0
1,note_on,80,0,60
1,note_on,81,66,0
1,note_on,81,0,60
1,note_on,80,74,0
1,note_on,80,0,60
1,note_on,81,67,0
1,note_on,81,0,60
1,note_on,80,76,0
1,note_on,80,0,60
1,note_on,81,68,0
1,note_on,81,0,60
1,note_on,80,77,0
1,note_on,80,0,60
1,note_on,81,69,0
1,note_on,81,0,60
1,note_on,80,79,0
1,note_on,80,0,60
1,note_on,81,70,0
1,note_on,81,0,60
1,note_on,80,79,0
1,note_on,80,0,60
1,note_on,81,70,0
1,note_on,81,0,60
1,note_on,80,81,0
1,note_on,80,0,60
1,note_on,81,72,0
1,note_on,81,0,60
1,note_on,80,82,0
1,note_on,80,0,60
1,note_on,81,73,0
1,note_on,81,0,60
1,note_on,80,83,0
1,note_on,80,0,60
1,note_on,81,74,0
1,note_on,81,0,60
1,note_on,80,84,0
1,note_on,80,0,60
1,note_on,81,76,0
1,note_on,81,0,60
1,note_on,80,87,0
1,note_on,80,0,60
1,note_on,81,76,0
1,note_on,81,0,60
1,note_on,80,86,0
1,note_on,80,0,60
1,note_on,81,77,0
1,note_on,81,0,60
1,note_on,80,88,0
1,note_on,80,0,60
1,note_on,81,78,0
1,note_on,81,0,60
1,note_on,80,88,0
1,note_on,80,0,60
1,note_on,81,79,0
1,note_on,81,0,60
1,note_on,80,91,0
1,note_on,80,0,60
1,note_on,81,81,0
1,note_on,81,0,60
1,note_on,80,91,0
1,note_on,80,0,60
1,note_on,81,81,0
1,note_on,81,0,60
1,note_on,80,93,0
1,note_on,80,0,60
1,note_on,81,82,0
1,note_on,81,0,60
1,note_on,80,93,0
1,note_on,80,0,60
1,note_on,81,83,0
1,note_on,81,0,60
1,note_on,80,95,0
1,note_on,80,0,60
1,note_on,81,85,0
1,note_on,81,0,60
1,note_on,80,95,0
1,note_on,80,0,60
1,note_on,81,85,0
1,note_on,81,0,60
1,note_on,80,97,0
1,note_on,80,0,60
1,note_on,81,86,0
1,note_on,81,0,60
1,note_on,80,97,0
1,note_on,80,0,60
1,note_on,81,87,0
1,note_on,81,0,60
1,note_on,80,99,0
1,note_on,80,0,60
1,note_on,81,88,0
1,note_on,81,0,60
1,note_on,80,100,0
1,note_on,80,0,60
1,note_on,81,90,0
1,note_on,81,0,60
1,note_on,80,101,0
1,note_on,80,0,60
1,note_on,81,88,0
1,note_on,81,0,60
1,note_on,80,95,0
1,note_on,80,0,60
1,note_on,81,82,0
1,note_on,81,0,60
1,note_on,80,91,0
1,note_on,80,0,60
1,note_on,81,80,0
1,note_on,81,0,60
1,note_on,80,86,0
1,note_on,80,0,60
1,note_on,81,75,0
1,note_on,81,0,60
1,note_on,80,83,0
1,note_on,80,0,60
1,note_on,81,71,0
1,note_on,81,0,60
1,note_on,80,79,0
1,note_on,80,0,60
1,note_on,81,68,0
1,note_on,81,0,60
1,note_on,80,74,0
1,note_on,80,0,60
1,note_on,81,64,0
1,note_on,81,0,60
1,note_on,80,70,0
1,note_on,80,0,60
1,note_on,81,61,0
1,note_on,81,0,60
1,note_on,80,66,0
1,note_on,80,0,60
1,note_on,81,57,0
1,note_on,81,0,60
1,note_on,80,61,0
1,note_on,80,0,60
1,note_on,81,53,0
1,note_on,81,0,60
1,note_on,80,59,0
1,note_on,80,0,60
1,note_on,81,50,0
1,note_on,81,0,60
1,note_on,80,54,0
1,note_on,80,0,60
1,note_on,81,46,0
1,note_on,81,0,60
1,note_on,80,47,0
1,note_on,80,0,107
1,note_on,81,45,0
1,note_on,81,0,97
1,note_on,80,44,10
1,note_on,80,0,96
1,note_on,79,42,11
1,note_on,79,0,96
1,note_on,80,41,10
1,note_on,80,0,97
1,note_on,81,39,10
1,note_on,81,0,97
1,note_on,82,38,10
1,note_on,82,0,97
1,note_on,83,37,10
1,note_on,83,0,96
1,note_on,84,35,10
1,note_on,84,0,96
1,note_on,85,48,10
1,note_on,85,0,120
1,note_on,76,44,300
1,note_on,81,46,30
1,note_on,85,57,30
1,note_on,76,0,240
1,note_on,85,0,360
1,note_on,81,0,0
1,note_on,80,40,0
1,note_on,84,48,0
1,note_on,84,0,120
1,note_on,80,0,0
1,note_on,85,51,0
1,note_on,81,43,0
1,note_on,81,0,120
1,note_on,85,0,0
1,note_on,87,53,0
1,note_on,83,45,0
1,note_on,83,0,120
1,note_on,87,0,0
1,note_on,88,56,0
1,note_on,85,47,0
1,note_on,85,0,120
1,note_on,88,0,0
1,note_on,76,42,0
1,note_on,81,50,0
1,note_on,81,0,120
1,note_on,76,0,0
1,note_on,87,55,0
1,note_on,83,46,0
1,note_on,83,0,120
1,note_on,87,0,0
1,note_on,85,49,0
1,note_on,81,41,0
1,note_on,81,0,120
1,note_on,85,0,0
1,note_on,80,45,0
1,note_on,83,54,0
1,note_on,83,0,120
1,note_on,80,0,0
1,note_on,83,48,240
1,note_on,83,0,60
1,note_on,85,44,0
1,note_on,85,0,60
1,note_on,80,48,0
1,note_on,83,57,0
1,note_on,83,0,360
1,note_on,80,0,0
1,note_on,82,51,0
1,note_on,79,46,0
1,note_on,79,0,120
1,note_on,82,0,0
1,note_on,83,54,0
1,note_on,80,45,0
1,note_on,80,0,120
1,note_on,83,0,0
1,note_on,85,57,360
1,note_on,80,48,0
1,note_on,73,48,0
1,note_on,73,0,480
1,note_on,80,0,0
1,note_on,85,0,0
1,note_on,81,54,0
1,note_on,78,45,0
1,note_on,73,45,0
1,note_on,73,0,120
1,note_on,78,0,0
1,note_on,81,0,0
1,note_on,81,57,360
1,note_on,78,48,0
1,note_on,73,48,0
1,note_on,73,0,600
1,note_on,78,0,0
1,note_on,81,0,0
1,note_on,80,48,0
1,note_on,77,40,0
1,note_on,77,0,120
1,note_on,80,0,0
1,note_on,81,51,0
1,note_on,78,43,0
1,note_on,78,0,120
1,note_on,81,0,0
1,note_on,80,45,0
1,note_on,83,53,0
1,note_on,83,0,120
1,note_on,80,0,0
1,note_on,85,56,0
1,note_on,81,47,0
1,note_on,81,0,120
1,note_on,85,0,0
1,note_on,73,42,0
1,note_on,78,50,0
1,note_on,78,0,120
1,note_on,73,0,0
1,note_on,83,55,0
1,note_on,80,46,0
1,note_on,80,0,120
1,note_on,83,0,0
1,note_on,78,41,0
1,note_on,81,49,0
1,note_on,81,0,120
1,note_on,78,0,0
1,note_on,80,54,0
1,note_on,76,45,0
1,note_on,76,0,120
1,note_on,80,0,0
1,note_on,80,48,240
1,note_on,80,0,60
1,note_on,81,48,0
1,note_on,81,0,60
1,note_on,80,57,0
1,note_on,76,48,0
1,note_on,76,0,360
1,note_on,80,0,0
1,note_on,75,46,0
1,note_on,79,51,0
1,note_on,79,0,120
1,note_on,75,0,0
1,note_on,80,54,0
1,note_on,76,45,0
1,note_on,76,0,480
1,note_on,80,0,0
1,note_on,69,48,840
1,note_on,69,0,40
1,note_on,74,48,0
1,note_on,74,0,40
1,note_on,80,48,0
1,note_on,80,0,40
1,note_on,78,57,0
1,note_on,74,48,0
1,note_on,74,0,360
1,note_on,78,0,0
1,note_on,73,46,0
1,note_on,77,51,0
1,note_on,77,0,120
1,note_on,73,0,0
1,note_on,74,45,0
1,note_on,78,54,0
1,note_on,78,0,240
1,note_on,74,0,0
1,note_on,66,48,1080
1,note_on,66,0,40
1,note_on,69,48,0
1,note_on,69,0,40
1,note_on,76,48,0
1,note_on,76,0,40
1,note_on,69,48,0
1,note_on,74,57,0
1,note_on,66,48,0
1,note_on,66,0,360
1,note_on,74,0,0
1,note_on,73,51,0
1,note_on,65,46,0
1,note_on,65,0,120
1,note_on,73,0,0
1,note_on,74,54,0
1,note_on,66,45,0
1,note_on,66,0,840
1,note_on,74,0,0
1,note_on,64,31,0
1,note_on,73,37,0
1,note_on,73,0,90
1,note_on,64,0,0
1,note_on,69,0,30
1,note_on,73,37,0
1,note_on,64,31,0
1,note_on,64,0,240
1,note_on,73,0,0
1,note_on,64,35,240
1,note_on,73,45,0
1,note_on,69,36,0
1,note_on,69,0,600
1,note_on,73,0,0
1,note_on,68,36,0
1,note_on,72,43,0
1,note_on,64,0,10
1,note_on,72,0,110
1,note_on,68,0,0
1,note_on,69,38,0
1,note_on,73,45,0
1,note_on,73,0,120
1,note_on,69,0,0
1,note_on,71,40,0
1,note_on,75,47,0
1,note_on,75,0,120
1,note_on,71,0,0
1,note_on,76,50,0
1,note_on,73,42,0
1,note_on,73,0,120
1,note_on,76,0,0
1,note_on,69,45,0
1,note_on,64,37,0
1,note_on,64,0,120
1,note_on,69,0,0
1,note_on,71,41,0
1,note_on,75,49,0
1,note_on,75,0,120
1,note_on,71,0,0
1,note_on,69,36,0
1,note_on,73,44,0
1,note_on,73,0,120
1,note_on,69,0,0
1,note_on,71,48,0
1,note_on,68,40,0
1,note_on,68,0,120
1,note_on,71,0,0
1,note_on,71,43,240
1,note_on,71,0,60
1,note_on,73,39,0
1,note_on,73,0,60
1,note_on,71,51,0
1,note_on,68,43,0
1,note_on,68,0,360
1,note_on,71,0,0
1,note_on,70,45,0
1,note_on,67,41,0
1,note_on,67,0,120
1,note_on,70,0,0
1,note_on,68,40,0
1,note_on,71,48,0
1,note_on,71,0,120
1,note_on,68,0,0
1,note_on,73,51,360
1,note_on,68,43,0
1,note_on,61,43,0
1,note_on,61,0,480
1,note_on,68,0,0
1,note_on,73,0,0
1,note_on,69,48,0
1,note_on,61,40,0
1,note_on,66,40,0
1,note_on,66,0,120
1,note_on,61,0,0
1,note_on,69,0,0
1,note_on,66,43,360
1,note_on,69,51,0
1,note_on,61,43,0
1,note_on,61,0,600
1,note_on,69,0,0
1,note_on,66,0,0
1,note_on,65,36,0
1,note_on,68,43,0
1,note_on,68,0,120
1,note_on,65,0,0
1,note_on,69,45,0
1,note_on,66,38,0
1,note_on,66,0,120
1,note_on,69,0,0
1,note_on,71,47,0
1,note_on,68,40,0
1,note_on,68,0,60
1,note_on,71,0,0
1,note_on,66,40,0
1,note_on,69,40,0
1,note_on,69,0,30
1,note_on,66,0,0
1,note_on,71,40,0
1,note_on,68,40,0
1,note_on,68,0,30
1,note_on,71,0,0
1,note_on,73,50,0
1,note_on,69,42,0
1,note_on,69,0,120
1,note_on,73,0,0
1,note_on,66,45,0
1,note_on,61,37,0
1,note_on,61,0,120
1,note_on,66,0,0
1,note_on,71,49,0
1,note_on,68,41,0
1,note_on,68,0,120
1,note_on,71,0,0
1,note_on,69,44,0
1,note_on,66,36,0
1,note_on,66,0,120
1,note_on,69,0,0
1,note_on,64,40,0
1,note_on,68,48,0
1,note_on,68,0,120
1,note_on,64,0,0
1,note_on,68,43,240
1,note_on,68,0,60
1,note_on,69,43,0
1,note_on,69,0,60
1,note_on,64,43,0
1,note_on,68,51,0
1,note_on,68,0,360
1,note_on,64,0,0
1,note_on,63,41,0
1,note_on,67,45,0
1,note_on,67,0,120
1,note_on,63,0,0
1,note_on,68,48,0
1,note_on,64,40,0
1,note_on,64,0,480
1,note_on,68,0,0
1,note_on,57,43,840
1,note_on,57,0,40
1,note_on,62,43,0
1,note_on,62,0,40
1,note_on,68,43,0
1,note_on,68,0,40
1,note_on,57,35,0
1,note_on,66,51,0
1,note_on,62,43,0
1,note_on,62,0,360
1,note_on,66,0,0
1,note_on,61,41,0
1,note_on,65,45,0
1,note_on,65,0,120
1,note_on,61,0,0
1,note_on,62,40,0
1,note_on,66,48,0
1,note_on,66,0,240
1,note_on,62,0,0
1,note_on,57,0,0
1,note_on,54,38,1200
1,note_on,57,45,0
1,note_on,57,0,360
1,note_on,54,0,0
1,note_on,56,40,0
1,note_on,53,36,0
1,note_on,53,0,120
1,note_on,56,0,0
1,note_on,54,36,0
1,note_on,57,43,0
1,note_on,57,0,1440
1,note_on,54,0,0
1,note_on,54,32,0
1,note_on,56,38,0
1,note_on,48,32,0
1,note_on,50,32,0
1,note_on,50,0,480
1,note_on,54,0,0
1,note_on,56,0,0
1,note_on,48,0,0
1,note_on,49,32,480
1,note_on,56,38,0
1,note_on,53,32,0
1,note_on,53,0,480
1,note_on,56,0,0
1,note_on,49,0,0
1,note_on,50,32,480
1,note_on,56,38,0
1,note_on,54,32,0
1,note_on,54,0,480
1,note_on,56,0,0
1,note_on,50,0,0
1,note_on,56,38,480
1,note_on,49,32,0
1,note_on,53,32,0
1,note_on,53,0,480
1,note_on,49,0,0
1,note_on,56,0,0
1,note_on,50,32,480
1,note_on,56,38,0
1,note_on,54,32,0
1,note_on,54,0,480
1,note_on,56,0,0
1,note_on,50,0,0
1,note_on,53,28,480
1,note_on,49,28,0
1,note_on,56,34,0
1,note_on,56,0,480
1,note_on,49,0,0
1,note_on,53,0,0
1,note_on,48,32,480
1,note_on,54,32,0
1,note_on,51,32,0
1,note_on,56,38,0
1,note_on,56,0,480
1,note_on,48,0,0
1,note_on,54,0,0
1,note_on,51,0,0
1,note_on,49,28,0
1,note_on,44,28,0
1,note_on,53,32,0
1,note_on,56,38,0
1,note_on,56,0,1440
1,note_on,49,0,0
1,note_on,44,0,0
1,note_on,53,0,0
1,note_on,73,39,420
1,note_on,73,0,20
1,note_on,80,42,0
1,note_on,80,0,20
1,note_on,85,45,0
1,note_on,80,50,20
1,note_on,80,0,360
1,note_on,73,44,0
1,note_on,73,0,120
1,note_on,80,50,0
1,note_on,80,0,360
1,note_on,81,46,0
1,note_on,85,0,40
1,note_on,81,0,20
1,note_on,73,39,0
1,note_on,73,0,20
1,note_on,80,42,0
1,note_on,80,0,20
1,note_on,85,45,0
1,note_on,80,50,20
1,note_on,80,0,360
1,note_on,83,53,0
1,note_on,83,0,120
1,note_on,81,51,0
1,note_on,81,0,360
1,note_on,80,46,0
1,note_on,85,0,40
1,note_on,80,0,20
1,note_on,73,39,0
1,note_on,73,0,20
1,note_on,78,42,0
1,note_on,78,0,20
1,note_on,85,45,0
1,note_on,78,50,20
1,note_on,78,0,360
1,note_on,73,44,0
1,note_on,73,0,120
1,note_on,78,50,0
1,note_on,78,0,360
1,note_on,80,46,0
1,note_on,85,0,40
1,note_on,80,0,20
1,note_on,73,39,0
1,note_on,73,0,20
1,note_on,81,42,0
1,note_on,81,0,20
1,note_on,85,45,0
1,note_on,81,50,20
1,note_on,81,0,360
1,note_on,85,0,0
1,note_on,85,54,0
1,note_on,83,50,120
1,note_on,83,0,360
1,note_on,81,46,0
1,note_on,81,0,60
1,note_on,85,0,0
1,note_on,73,39,0
1,note_on,73,0,20
1,note_on,80,42,0
1,note_on,80,0,20
1,note_on,85,45,0
1,note_on,80,50,20
1,note_on,80,0,360
1,note_on,73,44,0
1,note_on,73,0,120
1,note_on,80,50,0
1,note_on,80,0,360
1,note_on,81,46,0
1,note_on,85,0,40
1,note_on,81,0,20
1,note_on,73,39,0
1,note_on,73,0,20
1,note_on,80,42,0
1,note_on,80,0,20
1,note_on,85,45,0
1,note_on,80,50,20
1,note_on,80,0,360
1,note_on,83,53,0
1,note_on,83,0,120
1,note_on,81,51,0
1,note_on,81,0,360
1,note_on,80,46,0
1,note_on,85,0,40
1,note_on,80,0,20
1,note_on,73,39,0
1,note_on,73,0,20
1,note_on,78,42,0
1,note_on,78,0,20
1,note_on,85,45,0
1,note_on,78,50,20
1,note_on,78,0,360
1,note_on,73,44,0
1,note_on,73,0,120
1,note_on,78,50,0
1,note_on,78,0,360
1,note_on,80,46,0
1,note_on,85,0,40
1,note_on,80,0,20
1,note_on,73,39,0
1,note_on,73,0,20
1,note_on,78,42,0
1,note_on,78,0,20
1,note_on,85,45,0
1,note_on,78,50,20
1,note_on,78,0,360
1,note_on,73,54,0
1,note_on,73,0,120
1,note_on,81,50,0
1,note_on,81,0,360
1,note_on,73,46,0
1,note_on,85,0,40
1,note_on,73,0,20
1,note_on,73,39,0
1,note_on,73,0,20
1,note_on,80,42,0
1,note_on,80,0,20
1,note_on,85,45,0
1,note_on,80,50,20
1,note_on,80,0,360
1,note_on,73,44,0
1,note_on,73,0,120
1,note_on,80,50,0
1,note_on,80,0,360
1,note_on,81,46,0
1,note_on,85,0,40
1,note_on,81,0,20
1,note_on,73,39,0
1,note_on,73,0,20
1,note_on,80,42,0
1,note_on,80,0,20
1,note_on,85,45,0
1,note_on,80,50,20
1,note_on,80,0,360
1,note_on,83,53,0
1,note_on,83,0,120
1,note_on,81,51,0
1,note_on,81,0,360
1,note_on,80,46,0
1,note_on,85,0,40
1,note_on,80,0,20
1,note_on,73,39,0
1,note_on,73,0,20
1,note_on,78,42,0
1,note_on,78,0,20
1,note_on,85,45,0
1,note_on,78,50,20
1,note_on,78,0,360
1,note_on,73,44,0
1,note_on,73,0,120
1,note_on,78,50,0
1,note_on,78,0,360
1,note_on,80,46,0
1,note_on,80,0,60
1,note_on,85,0,0
1,note_on,73,39,0
1,note_on,73,0,20
1,note_on,81,42,0
1,note_on,81,0,20
1,note_on,85,45,0
1,note_on,81,50,20
1,note_on,81,0,360
1,note_on,85,0,0
1,note_on,85,54,0
1,note_on,83,50,120
1,note_on,83,0,360
1,note_on,81,46,0
1,note_on,81,0,60
1,note_on,85,0,0
1,note_on,73,39,0
1,note_on,73,0,20
1,note_on,80,42,0
1,note_on,80,0,20
1,note_on,85,45,0
1,note_on,80,50,20
1,note_on,80,0,360
1,note_on,73,44,0
1,note_on,73,0,120
1,note_on,80,50,0
1,note_on,80,0,360
1,note_on,81,46,0
1,note_on,85,0,40
1,note_on,81,0,20
1,note_on,73,39,0
1,note_on,73,0,20
1,note_on,80,42,0
1,note_on,80,0,20
1,note_on,85,45,0
1,note_on,80,50,20
1,note_on,80,0,360
1,note_on,83,53,0
1,note_on,83,0,120
1,note_on,81,51,0
1,note_on,81,0,360
1,note_on,80,46,0
1,note_on,85,0,40
1,note_on,80,0,20
1,note_on,73,39,0
1,note_on,73,0,20
1,note_on,78,42,0
1,note_on,78,0,20
1,note_on,85,45,0
1,note_on,78,50,20
1,note_on,78,0,360
1,note_on,73,44,0
1,note_on,73,0,120
1,note_on,78,50,0
1,note_on,78,0,360
1,note_on,80,46,0
1,note_on,85,0,40
1,note_on,80,0,20
1,note_on,73,39,0
1,note_on,73,0,20
1,note_on,78,42,0
1,note_on,78,0,20
1,note_on,85,45,0
1,note_on,78,50,20
1,note_on,78,0,360
1,note_on,73,54,0
1,note_on,73,0,120
1,note_on,81,50,0
1,note_on,81,0,360
1,note_on,73,46,0
1,note_on,73,0,32
1,note_on,85,0,0
1,note_on,80,42,28
1,note_on,80,0,30
1,note_on,85,45,0
1,note_on,85,0,30
1,note_on,80,50,0
1,note_on,80,0,360
1,note_on,73,44,0
1,note_on,73,0,120
1,note_on,85,50,0
1,note_on,85,0,360
1,note_on,73,46,0
1,note_on,73,0,60
1,note_on,80,42,0
1,note_on,80,0,30
1,note_on,85,45,0
1,note_on,85,0,30
1,note_on,80,50,0
1,note_on,80,0,360
1,note_on,73,44,0
1,note_on,73,0,120
1,note_on,85,50,0
1,note_on,85,0,360
1,note_on,73,46,0
1,note_on,73,0,60
1,note_on,78,42,0
1,note_on,78,0,30
1,note_on,85,45,0
1,note_on,85,0,30
1,note_on,78,50,0
1,note_on,78,0,360
1,note_on,73,44,0
1,note_on,73,0,120
1,note_on,85,50,0
1,note_on,85,0,360
1,note_on,73,46,0
1,note_on,73,0,60
1,note_on,81,42,0
1,note_on,81,0,30
1,note_on,85,45,0
1,note_on,85,0,30
1,note_on,81,50,0
1,note_on,81,0,360
1,note_on,73,44,0
1,note_on,73,0,120
1,note_on,85,50,0
1,note_on,85,0,360
1,note_on,73,46,0
1,note_on,73,0,60
1,note_on,80,42,0
1,note_on,80,0,30
1,note_on,85,45,0
1,note_on,85,0,30
1,note_on,80,50,0
1,note_on,80,0,360
1,note_on,73,44,0
1,note_on,73,0,120
1,note_on,85,50,0
1,note_on,85,0,360
1,note_on,73,46,0
1,note_on,73,0,60
1,note_on,80,42,0
1,note_on,80,0,30
1,note_on,85,45,0
1,note_on,85,0,30
1,note_on,80,50,0
1,note_on,80,0,360
1,note_on,73,44,0
1,note_on,73,0,120
1,note_on,85,50,0
1,note_on,85,0,360
1,note_on,73,46,0
1,note_on,73,0,60
1,note_on,78,42,0
1,note_on,78,0,30
1,note_on,85,45,0
1,note_on,85,0,30
1,note_on,78,50,0
1,note_on,78,0,360
1,note_on,73,44,0
1,note_on,73,0,120
1,note_on,85,50,0
1,note_on,85,0,360
1,note_on,73,46,0
1,note_on,73,0,60
1,note_on,81,42,0
1,note_on,81,0,30
1,note_on,85,45,0
1,note_on,85,0,30
1,note_on,81,50,0
1,note_on,81,0,360
1,note_on,73,44,0
1,note_on,73,0,120
1,note_on,85,50,0
1,note_on,85,0,360
1,note_on,73,46,0
1,note_on,73,0,120
1,note_on,68,50,0
1,note_on,73,45,120
1,note_on,73,0,60
1,note_on,73,46,60
1,note_on,73,0,60
1,note_on,73,46,60
1,note_on,73,0,60
1,note_on,68,0,60
1,note_on,73,46,0
1,note_on,73,0,60
1,note_on,73,46,60
1,note_on,73,0,60
1,note_on,73,46,60
1,note_on,73,0,60
1,note_on,73,46,60
1,note_on,73,0,60
1,note_on,73,43,180
1,note_on,73,0,60
1,note_on,73,43,60
1,note_on,73,0,60
1,note_on,73,43,60
1,note_on,73,0,60
1,note_on,73,45,180
1,note_on,73,0,60
1,note_on,73,45,60
1,note_on,73,0,60
1,note_on,73,45,60
1,note_on,73,0,60
1,note_on,66,50,60
1,note_on,73,44,120
1,note_on,73,0,60
1,note_on,73,44,60
1,note_on,73,0,60
1,note_on,73,44,60
1,note_on,73,0,60
1,note_on,66,0,60
1,note_on,73,44,0
1,note_on,73,0,60
1,note_on,73,44,60
1,note_on,73,0,60
1,note_on,73,44,60
1,note_on,73,0,60
1,note_on,68,46,60
1,note_on,68,0,60
1,note_on,73,44,180
1,note_on,73,0,60
1,note_on,73,44,60
1,note_on,73,0,60
1,note_on,73,44,60
1,note_on,73,0,60
1,note_on,73,45,180
1,note_on,73,0,60
1,note_on,73,45,60
1,note_on,73,0,60
1,note_on,73,45,60
1,note_on,73,0,60
1,note_on,68,50,60
1,note_on,73,44,120
1,note_on,73,0,60
1,note_on,73,44,60
1,note_on,73,0,60
1,note_on,73,44,60
1,note_on,73,0,60
1,note_on,68,0,60
1,note_on,73,44,0
1,note_on,73,0,60
1,note_on,73,44,60
1,note_on,73,0,60
1,note_on,73,44,60
1,note_on,73,0,60
1,note_on,71,49,60
1,note_on,71,0,60
1,note_on,73,46,180
1,note_on,73,0,60
1,note_on,73,46,60
1,note_on,73,0,60
1,note_on,73,46,60
1,note_on,73,0,60
1,note_on,73,45,180
1,note_on,73,0,60
1,note_on,73,45,60
1,note_on,73,0,60
1,note_on,73,45,60
1,note_on,73,0,60
1,note_on,66,50,60
1,note_on,73,42,120
1,note_on,73,0,60
1,note_on,73,42,60
1,note_on,73,0,60
1,note_on,73,42,60
1,note_on,73,0,60
1,note_on,66,0,60
1,note_on,73,42,0
1,note_on,73,0,60
1,note_on,73,42,60
1,note_on,73,0,60
1,note_on,73,42,60
1,note_on,73,0,60
1,note_on,68,50,60
1,note_on,68,0,60
1,note_on,73,45,180
1,note_on,73,0,60
1,note_on,73,45,60
1,note_on,73,0,60
1,note_on,73,45,60
1,note_on,73,0,60
1,note_on,73,44,180
1,note_on,73,0,60
1,note_on,73,44,60
1,note_on,73,0,60
1,note_on,73,44,60
1,note_on,73,0,60
1,note_on,68,57,60
1,note_on,80,57,0
1,note_on,73,45,120
1,note_on,73,0,60
1,note_on,73,45,60
1,note_on,73,0,60
1,note_on,73,45,60
1,note_on,73,0,60
1,note_on,80,0,60
1,note_on,68,0,0
1,note_on,73,45,0
1,note_on,73,0,60
1,note_on,73,45,60
1,note_on,73,0,60
1,note_on,73,45,60
1,note_on,73,0,60
1,note_on,73,45,60
1,note_on,73,0,60
1,note_on,81,54,60
1,note_on,69,54,0
1,note_on,73,45,120
1,note_on,73,0,60
1,note_on,69,0,60
1,note_on,81,0,0
1,note_on,73,45,0
1,note_on,73,0,60
1,note_on,73,45,60
1,note_on,73,0,60
1,note_on,80,54,60
1,note_on,68,54,0
1,note_on,73,46,120
1,note_on,73,0,60
1,note_on,68,0,60
1,note_on,80,0,0
1,note_on,73,46,0
1,note_on,73,0,60
1,note_on,73,46,60
1,note_on,73,0,60
1,note_on,66,55,60
1,note_on,78,55,0
1,note_on,73,42,120
1,note_on,73,0,60
1,note_on,73,42,60
1,note_on,73,0,60
1,note_on,73,42,60
1,note_on,73,0,60
1,note_on,78,0,60
1,note_on,66,0,0
1,note_on,73,42,0
1,note_on,73,0,60
1,note_on,73,42,60
1,note_on,73,0,60
1,note_on,73,42,60
1,note_on,73,0,60
1,note_on,80,50,60
1,note_on,68,50,0
1,note_on,68,0,60
1,note_on,80,0,0
1,note_on,81,55,60
1,note_on,69,55,0
1,note_on,73,43,120
1,note_on,73,0,60
1,note_on,73,43,60
1,note_on,73,0,60
1,note_on,73,43,60
1,note_on,73,0,60
1,note_on,69,0,60
1,note_on,81,0,0
1,note_on,66,50,0
1,note_on,78,50,0
1,note_on,73,43,120
1,note_on,73,0,60
1,note_on,73,43,60
1,note_on,73,0,60
1,note_on,73,43,60
1,note_on,73,0,60
1,note_on,78,0,60
1,note_on,66,0,0
1,note_on,68,57,0
1,note_on,80,57,0
1,note_on,73,41,120
1,note_on,73,0,60
1,note_on,73,41,60
1,note_on,73,0,60
1,note_on,73,41,60
1,note_on,73,0,60
1,note_on,80,0,60
1,note_on,68,0,0
1,note_on,73,41,0
1,note_on,73,0,60
1,note_on,73,41,60
1,note_on,73,0,60
1,note_on,83,49,60
1,note_on,71,49,0
1,note_on,73,43,120
1,note_on,73,0,60
1,note_on,71,0,60
1,note_on,83,0,0
1,note_on,81,56,0
1,note_on,69,56,0
1,note_on,73,44,120
1,note_on,73,0,60
1,note_on,69,0,60
1,note_on,81,0,0
1,note_on,73,44,0
1,note_on,73,0,60
1,note_on,73,44,60
1,note_on,73,0,60
1,note_on,80,54,60
1,note_on,68,54,0
1,note_on,73,44,120
1,note_on,73,0,60
1,note_on,68,0,60
1,note_on,80,0,0
1,note_on,73,44,0
1,note_on,73,0,60
1,note_on,73,44,60
1,note_on,73,0,60
1,note_on,78,55,60
1,note_on,66,55,0
1,note_on,73,44,120
1,note_on,73,0,60
1,note_on,73,44,60
1,note_on,73,0,60
1,note_on,73,44,60
1,note_on,73,0,60
1,note_on,66,0,60
1,note_on,78,0,0
1,note_on,73,44,0
1,note_on,73,0,60
1,note_on,73,44,60
1,note_on,73,0,60
1,note_on,73,44,60
1,note_on,73,0,60
1,note_on,80,50,60
1,note_on,68,50,0
1,note_on,68,0,60
1,note_on,80,0,0
1,note_on,69,57,60
1,note_on,81,57,0
1,note_on,73,43,120
1,note_on,73,0,60
1,note_on,73,44,60
1,note_on,73,0,60
1,note_on,73,44,60
1,note_on,73,0,60
1,note_on,81,0,60
1,note_on,69,0,0
1,note_on,78,54,0
1,note_on,66,54,0
1,note_on,73,44,120
1,note_on,73,0,60
1,note_on,73,44,60
1,note_on,73,0,60
1,note_on,73,44,60
1,note_on,73,0,60
1,note_on,66,0,60
1,note_on,78,0,0
1,note_on,85,57,0
1,note_on,85,0,60
1,note_on,73,43,60
1,note_on,73,0,60
1,note_on,73,44,60
1,note_on,73,0,60
1,note_on,73,44,60
1,note_on,73,0,60
1,note_on,85,54,60
1,note_on,85,0,60
1,note_on,73,44,60
1,note_on,73,0,60
1,note_on,73,44,60
1,note_on,73,0,60
1,note_on,73,44,60
1,note_on,73,0,60
1,note_on,85,57,60
1,note_on,85,0,60
1,note_on,73,43,60
1,note_on,73,0,60
1,note_on,73,44,60
1,note_on,73,0,60
1,note_on,73,44,60
1,note_on,73,0,60
1,note_on,85,54,60
1,note_on,85,0,60
1,note_on,73,44,60
1,note_on,73,0,60
1,note_on,73,44,60
1,note_on,73,0,60
1,note_on,73,44,60
1,note_on,73,0,60
1,note_on,85,57,60
1,note_on,85,0,60
1,note_on,73,43,60
1,note_on,73,0,60
1,note_on,73,44,60
1,note_on,73,0,60
1,note_on,73,44,60
1,note_on,73,0,60
1,note_on,85,54,60
1,note_on,85,0,60
1,note_on,73,44,60
1,note_on,73,0,60
1,note_on,73,44,60
1,note_on,73,0,60
1,note_on,73,44,60
1,note_on,73,0,60
1,note_on,85,57,60
1,note_on,85,0,60
1,note_on,73,43,60
1,note_on,73,0,60
1,note_on,73,44,60
1,note_on,73,0,60
1,note_on,73,44,60
1,note_on,73,0,60
1,note_on,85,54,60
1,note_on,85,0,60
1,note_on,73,44,60
1,note_on,73,0,60
1,note_on,73,44,60
1,note_on,73,0,60
1,note_on,73,44,60
1,note_on,73,0,60
1,note_on,85,57,60
1,note_on,85,0,60
1,note_on,73,43,60
1,note_on,73,0,60
1,note_on,73,44,60
1,note_on,73,0,60
1,note_on,73,44,60
1,note_on,73,0,60
1,note_on,85,54,60
1,note_on,85,0,60
1,note_on,73,44,60
1,note_on,73,0,60
1,note_on,73,44,60
1,note_on,73,0,60
1,note_on,73,44,60
1,note_on,73,0,60
1,note_on,85,57,60
1,note_on,85,0,60
1,note_on,73,43,60
1,note_on,73,0,60
1,note_on,73,44,60
1,note_on,73,0,60
1,note_on,73,44,60
1,note_on,73,0,60
1,note_on,85,54,60
1,note_on,85,0,60
1,note_on,73,44,60
1,note_on,73,0,60
1,note_on,73,44,60
1,note_on,73,0,60
1,note_on,73,44,60
1,note_on,73,0,60
1,note_on,85,57,60
1,note_on,85,0,60
1,note_on,73,43,60
1,note_on,73,0,60
1,note_on,73,44,60
1,note_on,73,0,60
1,note_on,73,44,60
1,note_on,73,0,60
1,note_on,85,54,60
1,note_on,85,0,60
1,note_on,73,44,60
1,note_on,73,0,60
1,note_on,73,44,60
1,note_on,73,0,60
1,note_on,73,44,60
1,note_on,73,0,60
1,note_on,85,57,60
1,note_on,85,0,60
1,note_on,73,43,60
1,note_on,73,0,60
1,note_on,73,44,60
1,note_on,73,0,60
1,note_on,73,44,60
1,note_on,73,0,60
1,note_on,85,54,60
1,note_on,85,0,60
1,note_on,73,44,60
1,note_on,73,0,60
1,note_on,73,44,60
1,note_on,73,0,60
1,note_on,73,44,60
1,note_on,73,0,60
1,note_on,85,57,60
1,note_on,85,0,60
1,note_on,73,43,60
1,note_on,73,0,60
1,note_on,85,51,60
1,note_on,85,0,60
1,note_on,85,51,60
1,note_on,85,0,60
1,note_on,97,63,60
1,note_on,97,0,60
1,note_on,85,44,60
1,note_on,85,0,60
1,note_on,85,44,60
1,note_on,85,0,60
1,note_on,73,44,60
1,note_on,73,0,60
1,note_on,85,57,60
1,note_on,85,0,60
1,note_on,73,43,60
1,note_on,73,0,60
1,note_on,73,44,60
1,note_on,73,0,60
1,note_on,73,44,60
1,note_on,73,0,60
1,note_on,85,55,60
1,note_on,85,0,60
1,note_on,73,45,60
1,note_on,73,0,60
1,note_on,73,45,60
1,note_on,73,0,60
1,note_on,73,45,60
1,note_on,73,0,60
1,note_on,85,59,60
1,note_on,85,0,60
1,note_on,73,44,60
1,note_on,73,0,60
1,note_on,85,53,60
1,note_on,85,0,60
1,note_on,85,53,60
1,note_on,85,0,60
1,note_on,97,65,60
1,note_on,97,0,60
1,note_on,85,46,60
1,note_on,85,0,60
1,note_on,85,47,60
1,note_on,85,0,60
1,note_on,73,47,60
1,note_on,73,0,60
1,note_on,85,60,60
1,note_on,85,0,60
1,note_on,73,46,60
1,note_on,73,0,60
1,note_on,73,47,60
1,note_on,73,0,60
1,note_on,73,47,60
1,note_on,73,0,60
1,note_on,85,59,60
1,note_on,85,0,60
1,note_on,73,47,60
1,note_on,73,0,60
1,note_on,73,48,60
1,note_on,73,0,60
1,note_on,73,48,60
1,note_on,73,0,60
1,note_on,85,63,60
1,note_on,85,0,60
1,note_on,73,48,60
1,note_on,73,0,60
1,note_on,85,60,60
1,note_on,85,0,60
1,note_on,85,60,60
1,note_on,85,0,60
1,note_on,97,76,60
1,note_on,97,0,60
1,note_on,85,49,60
1,note_on,85,0,60
1,note_on,85,49,60
1,note_on,85,0,60
1,note_on,73,49,60
1,note_on,73,0,60
1,note_on,85,65,60
1,note_on,85,0,60
1,note_on,73,48,60
1,note_on,73,0,60
1,note_on,73,49,60
1,note_on,73,0,60
1,note_on,73,50,60
1,note_on,73,0,60
1,note_on,85,62,60
1,note_on,85,0,60
1,note_on,73,51,60
1,note_on,73,0,60
1,note_on,73,51,60
1,note_on,73,0,60
1,note_on,73,51,60
1,note_on,73,0,60
1,note_on,85,67,60
1,note_on,85,0,60
1,note_on,73,50,60
1,note_on,73,0,60
1,note_on,85,64,60
1,note_on,85,0,60
1,note_on,85,63,60
1,note_on,85,0,60
1,note_on,97,82,60
1,note_on,97,0,60
1,note_on,85,61,60
1,note_on,85,0,60
1,note_on,85,61,60
1,note_on,85,0,60
1,note_on,73,52,60
1,note_on,73,0,60
1,note_on,85,69,60
1,note_on,85,0,60
1,note_on,73,51,60
1,note_on,73,0,60
1,note_on,73,53,60
1,note_on,73,0,60
1,note_on,73,53,60
1,note_on,73,0,60
1,note_on,85,66,60
1,note_on,85,0,60
1,note_on,73,54,60
1,note_on,73,0,60
1,note_on,73,54,60
1,note_on,73,0,60
1,note_on,73,54,60
1,note_on,73,0,60
1,note_on,85,71,60
1,note_on,85,0,60
1,note_on,73,53,60
1,note_on,73,0,60
1,note_on,85,68,60
1,note_on,85,0,60
1,note_on,85,68,60
1,note_on,85,0,60
1,note_on,97,83,60
1,note_on,97,0,60
1,note_on,85,64,60
1,note_on,85,0,60
1,note_on,85,64,60
1,note_on,85,0,60
1,note_on,73,56,60
1,note_on,73,0,60
1,note_on,85,74,60
1,note_on,85,0,60
1,note_on,73,56,60
1,note_on,73,0,60
1,note_on,85,65,60
1,note_on,85,0,60
1,note_on,85,65,60
1,note_on,85,0,60
1,note_on,97,83,60
1,note_on,97,0,60
1,note_on,85,64,60
1,note_on,85,0,60
1,note_on,85,64,60
1,note_on,85,0,60
1,note_on,73,59,60
1,note_on,73,0,60
1,note_on,85,77,60
1,note_on,85,0,60
1,note_on,73,58,60
1,note_on,73,0,60
1,note_on,85,72,60
1,note_on,85,0,60
1,note_on,85,72,60
1,note_on,85,0,60
1,note_on,97,92,60
1,note_on,97,0,60
1,note_on,85,68,60
1,note_on,85,0,60
1,note_on,85,68,60
1,note_on,85,0,60
1,note_on,73,62,60
1,note_on,73,0,60
1,note_on,85,80,60
1,note_on,85,0,60
1,note_on,73,61,60
1,note_on,73,0,60
1,note_on,85,72,60
1,note_on,85,0,60
1,note_on,85,72,60
1,note_on,85,0,60
1,note_on,97,93,60
1,note_on,97,0,60
1,note_on,85,76,60
1,note_on,85,0,60
1,note_on,85,76,60
1,note_on,85,0,60
1,note_on,73,63,60
1,note_on,73,0,60
1,note_on,84,85,60
1,note_on,72,72,0
1,note_on,77,72,0
1,note_on,77,0,60
1,note_on,72,0,0
1,note_on,84,0,0
1,note_on,85,81,180
1,note_on,73,68,0
1,note_on,80,68,0
1,note_on,80,0,120
1,note_on,73,0,0
1,note_on,85,0,0
1,note_on,83,85,120
1,note_on,77,72,0
1,note_on,71,72,0
1,note_on,71,0,360
1,note_on,77,0,0
1,note_on,83,0,0
1,note_on,85,79,0
1,note_on,73,67,0
1,note_on,73,0,120
1,note_on,85,0,0
1,note_on,72,72,0
1,note_on,77,72,0
1,note_on,84,85,0
1,note_on,84,0,60
1,note_on,77,0,0
1,note_on,72,0,0
1,note_on,85,81,180
1,note_on,73,68,0
1,note_on,80,68,0
1,note_on,80,0,120
1,note_on,73,0,0
1,note_on,85,0,0
1,note_on,77,72,120
1,note_on,71,72,0
1,note_on,83,85,0
1,note_on,83,0,360
1,note_on,71,0,0
1,note_on,77,0,0
1,note_on,73,67,0
1,note_on,85,79,0
1,note_on,85,0,120
1,note_on,73,0,0
1,note_on,81,72,0
1,note_on,72,72,0
1,note_on,84,85,0
1,note_on,84,0,60
1,note_on,72,0,0
1,note_on,81,0,0
1,note_on,73,68,180
1,note_on,85,81,0
1,note_on,82,68,0
1,note_on,82,0,120
1,note_on,85,0,0
1,note_on,73,0,0
1,note_on,70,72,120
1,note_on,78,72,0
1,note_on,82,85,0
1,note_on,82,0,360
1,note_on,78,0,0
1,note_on,70,0,0
1,note_on,85,79,0
1,note_on,73,67,0
1,note_on,82,67,0
1,note_on,82,0,120
1,note_on,73,0,0
1,note_on,85,0,0
1,note_on,84,85,0
1,note_on,81,72,0
1,note_on,72,72,0
1,note_on,72,0,60
1,note_on,81,0,0
1,note_on,84,0,0
1,note_on,82,68,180
1,note_on,85,81,0
1,note_on,73,68,0
1,note_on,73,0,120
1,note_on,85,0,0
1,note_on,82,0,0
1,note_on,78,72,120
1,note_on,82,85,0
1,note_on,70,72,0
1,note_on,70,0,360
1,note_on,82,0,0
1,note_on,78,0,0
1,note_on,73,67,0
1,note_on,85,79,0
1,note_on,85,0,120
1,note_on,73,0,0
1,note_on,84,85,0
1,note_on,72,72,0
1,note_on,72,0,60
1,note_on,84,0,0
1,note_on,73,68,180
1,note_on,80,68,0
1,note_on,85,81,0
1,note_on,85,0,120
1,note_on,80,0,0
1,note_on,73,0,0
1,note_on,87,85,120
1,note_on,83,72,0
1,note_on,75,72,0
1,note_on,75,0,360
1,note_on,83,0,0
1,note_on,87,0,0
1,note_on,73,67,0
1,note_on,85,79,0
1,note_on,80,67,0
1,note_on,80,0,120
1,note_on,85,0,0
1,note_on,73,0,0
1,note_on,72,72,0
1,note_on,84,85,0
1,note_on,84,0,60
1,note_on,72,0,0
1,note_on,73,68,180
1,note_on,85,81,0
1,note_on,80,68,0
1,note_on,80,0,120
1,note_on,85,0,0
1,note_on,73,0,0
1,note_on,75,72,120
1,note_on,87,85,0
1,note_on,83,72,0
1,note_on,83,0,360
1,note_on,87,0,0
1,note_on,75,0,0
1,note_on,73,67,0
1,note_on,80,67,0
1,note_on,85,79,0
1,note_on,85,0,120
1,note_on,80,0,0
1,note_on,73,0,0
1,note_on,81,72,0
1,note_on,84,85,0
1,note_on,72,72,0
1,note_on,72,0,60
1,note_on,84,0,0
1,note_on,81,0,0
1,note_on,82,68,180
1,note_on,73,68,0
1,note_on,85,81,0
1,note_on,85,0,120
1,note_on,73,0,0
1,note_on,82,0,0
1,note_on,90,85,120
1,note_on,82,72,0
1,note_on,78,72,0
1,note_on,78,0,360
1,note_on,82,0,0
1,note_on,90,0,0
1,note_on,85,79,0
1,note_on,73,67,0
1,note_on,73,0,120
1,note_on,85,0,0
1,note_on,84,85,0
1,note_on,72,72,0
1,note_on,81,72,0
1,note_on,81,0,60
1,note_on,72,0,0
1,note_on,84,0,0
1,note_on,73,68,180
1,note_on,85,81,0
1,note_on,82,68,0
1,note_on,82,0,120
1,note_on,85,0,0
1,note_on,73,0,0
1,note_on,90,85,120
1,note_on,82,72,0
1,note_on,78,72,0
1,note_on,78,0,360
1,note_on,82,0,0
1,note_on,90,0,0
1,note_on,85,72,0
1,note_on,73,61,0
1,note_on,73,0,120
1,note_on,85,0,0
1,note_on,72,52,0
1,note_on,77,52,0
1,note_on,84,62,0
1,note_on,84,0,60
1,note_on,77,0,0
1,note_on,72,0,0
1,note_on,85,59,180
1,note_on,80,49,0
1,note_on,73,49,0
1,note_on,73,0,120
1,note_on,80,0,0
1,note_on,85,0,0
1,note_on,83,62,120
1,note_on,71,52,0
1,note_on,77,52,0
1,note_on,77,0,360
1,note_on,71,0,0
1,note_on,83,0,0
1,note_on,85,57,0
1,note_on,73,48,0
1,note_on,73,0,120
1,note_on,85,0,0
1,note_on,77,52,0
1,note_on,72,52,0
1,note_on,84,62,0
1,note_on,84,0,60
1,note_on,72,0,0
1,note_on,77,0,0
1,note_on,73,49,180
1,note_on,80,49,0
1,note_on,85,59,0
1,note_on,85,0,120
1,note_on,80,0,0
1,note_on,73,0,0
1,note_on,71,52,120
1,note_on,83,62,0
1,note_on,77,52,0
1,note_on,77,0,360
1,note_on,83,0,0
1,note_on,71,0,0
1,note_on,85,57,0
1,note_on,73,48,0
1,note_on,73,0,120
1,note_on,85,0,0
1,note_on,84,62,0
1,note_on,81,52,0
1,note_on,72,52,0
1,note_on,72,0,60
1,note_on,81,0,0
1,note_on,84,0,0
1,note_on,85,59,180
1,note_on,73,49,0
1,note_on,82,49,0
1,note_on,82,0,120
1,note_on,73,0,0
1,note_on,85,0,0
1,note_on,70,52,120
1,note_on,78,52,0
1,note_on,82,62,0
1,note_on,82,0,360
1,note_on,78,0,0
1,note_on,70,0,0
1,note_on,73,48,0
1,note_on,85,57,0
1,note_on,85,0,120
1,note_on,73,0,0
1,note_on,81,52,0
1,note_on,72,52,0
1,note_on,84,62,0
1,note_on,84,0,60
1,note_on,72,0,0
1,note_on,81,0,0
1,note_on,85,59,180
1,note_on,82,49,0
1,note_on,73,49,0
1,note_on,73,0,120
1,note_on,82,0,0
1,note_on,85,0,0
1,note_on,82,62,120
1,note_on,70,52,0
1,note_on,78,52,0
1,note_on,78,0,360
1,note_on,70,0,0
1,note_on,82,0,0
1,note_on,85,57,0
1,note_on,73,48,0
1,note_on,73,0,120
1,note_on,85,0,0
1,note_on,84,62,0
1,note_on,72,52,0
1,note_on,72,0,60
1,note_on,84,0,0
1,note_on,85,59,180
1,note_on,73,49,0
1,note_on,80,49,0
1,note_on,80,0,120
1,note_on,73,0,0
1,note_on,85,0,0
1,note_on,83,52,120
1,note_on,75,52,0
1,note_on,87,62,0
1,note_on,87,0,360
1,note_on,75,0,0
1,note_on,83,0,0
1,note_on,85,57,0
1,note_on,80,48,0
1,note_on,73,48,0
1,note_on,73,0,120
1,note_on,80,0,0
1,note_on,85,0,0
1,note_on,84,62,0
1,note_on,72,52,0
1,note_on,72,0,60
1,note_on,84,0,0
1,note_on,85,59,180
1,note_on,80,49,0
1,note_on,73,49,0
1,note_on,73,0,120
1,note_on,80,0,0
1,note_on,85,0,0
1,note_on,87,62,120
1,note_on,83,52,0
1,note_on,75,52,0
1,note_on,75,0,360
1,note_on,83,0,0
1,note_on,87,0,0
1,note_on,80,48,0
1,note_on,73,48,0
1,note_on,85,57,0
1,note_on,85,0,120
1,note_on,73,0,0
1,note_on,80,0,0
1,note_on,84,62,0
1,note_on,72,52,0
1,note_on,81,52,0
1,note_on,81,0,60
1,note_on,72,0,0
1,note_on,84,0,0
1,note_on,73,49,180
1,note_on,85,59,0
1,note_on,82,49,0
1,note_on,82,0,120
1,note_on,85,0,0
1,note_on,73,0,0
1,note_on,90,62,120
1,note_on,82,52,0
1,note_on,78,52,0
1,note_on,78,0,360
1,note_on,82,0,0
1,note_on,90,0,0
1,note_on,85,57,0
1,note_on,73,48,0
1,note_on,73,0,120
1,note_on,85,0,0
1,note_on,84,62,0
1,note_on,72,52,0
1,note_on,81,52,0
1,note_on,81,0,60
1,note_on,72,0,0
1,note_on,84,0,0
1,note_on,85,59,180
1,note_on,82,49,0
1,note_on,73,49,0
1,note_on,73,0,120
1,note_on,82,0,0
1,note_on,85,0,0
1,note_on,82,52,120
1,note_on,90,62,0
1,note_on,78,52,0
1,note_on,78,0,360
1,note_on,90,0,0
1,note_on,82,0,0
1,note_on,85,57,0
1,note_on,73,48,0
1,note_on,73,0,120
1,note_on,85,0,0
1,note_on,87,64,0
1,note_on,83,49,0
1,note_on,75,49,0
1,note_on,75,0,90
1,note_on,83,0,0
1,note_on,87,0,0
1,note_on,83,56,150
1,note_on,78,44,0
1,note_on,78,0,90
1,note_on,83,0,0
1,note_on,75,44,150
1,note_on,78,56,0
1,note_on,78,0,90
1,note_on,75,0,0
1,note_on,71,44,150
1,note_on,75,56,0
1,note_on,75,0,90
1,note_on,71,0,0
1,note_on,75,44,150
1,note_on,78,56,0
1,note_on,78,0,90
1,note_on,75,0,0
1,note_on,78,46,150
1,note_on,83,58,0
1,note_on,83,0,90
1,note_on,78,0,0
1,note_on,83,48,150
1,note_on,87,60,0
1,note_on,87,0,90
1,note_on,83,0,0
1,note_on,90,62,150
1,note_on,87,49,0
1,note_on,87,0,90
1,note_on,90,0,0
1,note_on,73,51,150
1,note_on,82,51,0
1,note_on,85,64,0
1,note_on,85,0,90
1,note_on,82,0,0
1,note_on,73,0,0
1,note_on,78,44,150
1,note_on,82,55,0
1,note_on,82,0,90
1,note_on,78,0,0
1,note_on,78,55,150
1,note_on,73,44,0
1,note_on,73,0,90
1,note_on,78,0,0
1,note_on,70,44,150
1,note_on,73,55,0
1,note_on,73,0,90
1,note_on,70,0,0
1,note_on,73,45,150
1,note_on,78,57,0
1,note_on,78,0,90
1,note_on,73,0,0
1,note_on,78,44,150
1,note_on,82,56,0
1,note_on,82,0,90
1,note_on,78,0,0
1,note_on,73,49,150
1,note_on,82,49,0
1,note_on,78,49,0
1,note_on,85,62,0
1,note_on,85,0,300
1,note_on,73,0,0
1,note_on,82,0,0
1,note_on,78,0,0
1,note_on,75,49,90
1,note_on,78,49,30
1,note_on,83,49,30
1,note_on,87,64,30
1,note_on,87,0,120
1,note_on,75,0,0
1,note_on,78,0,0
1,note_on,83,0,0
1,note_on,78,44,120
1,note_on,83,56,0
1,note_on,83,0,90
1,note_on,78,0,0
1,note_on,75,44,150
1,note_on,78,56,0
1,note_on,78,0,90
1,note_on,75,0,0
1,note_on,75,56,150
1,note_on,71,44,0
1,note_on,71,0,90
1,note_on,75,0,0
1,note_on,75,44,150
1,note_on,78,56,0
1,note_on,78,0,90
1,note_on,75,0,0
1,note_on,83,58,150
1,note_on,78,46,0
1,note_on,78,0,90
1,note_on,83,0,0
1,note_on,83,48,150
1,note_on,87,60,0
1,note_on,87,0,90
1,note_on,83,0,0
1,note_on,90,62,150
1,note_on,87,49,0
1,note_on,87,0,90
1,note_on,90,0,0
1,note_on,82,51,150
1,note_on,85,64,0
1,note_on,85,0,90
1,note_on,82,0,0
1,note_on,78,44,150
1,note_on,82,55,0
1,note_on,82,0,90
1,note_on,78,0,0
1,note_on,78,55,150
1,note_on,73,44,0
1,note_on,73,0,90
1,note_on,78,0,0
1,note_on,73,55,150
1,note_on,70,44,0
1,note_on,70,0,90
1,note_on,73,0,0
1,note_on,73,45,150
1,note_on,78,57,0
1,note_on,78,0,90
1,note_on,73,0,0
1,note_on,78,44,150
1,note_on,82,56,0
1,note_on,82,0,90
1,note_on,78,0,0
1,note_on,78,49,150
1,note_on,82,49,0
1,note_on,85,62,0
1,note_on,73,49,0
1,note_on,73,0,450
1,note_on,78,0,0
1,note_on,82,0,0
1,note_on,85,0,0
1,note_on,84,65,30
1,note_on,84,0,120
1,note_on,97,50,0
1,note_on,97,0,120
1,note_on,85,59,0
1,note_on,85,0,120
1,note_on,97,50,0
1,note_on,97,0,120
1,note_on,83,65,0
1,note_on,97,50,120
1,note_on,97,0,120
1,note_on,83,0,0
1,note_on,85,60,0
1,note_on,97,50,120
1,note_on,97,0,120
1,note_on,85,0,0
1,note_on,84,65,0
1,note_on,84,0,120
1,note_on,97,50,0
1,note_on,97,0,120
1,note_on,85,59,0
1,note_on,85,0,120
1,note_on,97,50,0
1,note_on,97,0,120
1,note_on,83,65,0
1,note_on,97,50,120
1,note_on,97,0,120
1,note_on,83,0,0
1,note_on,85,60,0
1,note_on,97,50,120
1,note_on,97,0,120
1,note_on,85,0,0
1,note_on,84,65,0
1,note_on,84,0,120
1,note_on,97,50,0
1,note_on,97,0,120
1,note_on,85,59,0
1,note_on,85,0,120
1,note_on,97,50,0
1,note_on,97,0,120
1,note_on,82,65,0
1,note_on,97,50,120
1,note_on,97,0,120
1,note_on,82,0,0
1,note_on,85,60,0
1,note_on,97,50,120
1,note_on,97,0,120
1,note_on,85,0,0
1,note_on,84,65,0
1,note_on,84,0,120
1,note_on,97,50,0
1,note_on,97,0,120
1,note_on,85,59,0
1,note_on,85,0,120
1,note_on,97,50,0
1,note_on,97,0,120
1,note_on,82,65,0
1,note_on,97,50,120
1,note_on,97,0,120
1,note_on,82,0,0
1,note_on,85,60,0
1,note_on,97,50,120
1,note_on,97,0,120
1,note_on,85,0,0
1,note_on,84,65,0
1,note_on,84,0,120
1,note_on,97,50,0
1,note_on,97,0,120
1,note_on,85,59,0
1,note_on,85,0,120
1,note_on,97,50,0
1,note_on,97,0,120
1,note_on,89,65,0
1,note_on,83,56,0
1,note_on,97,50,120
1,note_on,97,0,120
1,note_on,83,0,0
1,note_on,89,0,0
1,note_on,85,60,0
1,note_on,97,50,120
1,note_on,97,0,120
1,note_on,85,0,0
1,note_on,84,65,0
1,note_on,84,0,120
1,note_on,97,50,0
1,note_on,97,0,120
1,note_on,85,59,0
1,note_on,85,0,120
1,note_on,97,50,0
1,note_on,97,0,120
1,note_on,83,55,0
1,note_on,89,65,0
1,note_on,97,50,120
1,note_on,97,0,120
1,note_on,89,0,0
1,note_on,83,0,0
1,note_on,85,60,0
1,note_on,97,50,120
1,note_on,97,0,120
1,note_on,85,0,0
1,note_on,82,65,0
1,note_on,82,0,120
1,note_on,97,50,0
1,note_on,97,0,120
1,note_on,85,59,0
1,note_on,85,0,120
1,note_on,97,50,0
1,note_on,97,0,120
1,note_on,90,65,0
1,note_on,82,53,0
1,note_on,97,50,120
1,note_on,97,0,120
1,note_on,82,0,0
1,note_on,90,0,0
1,note_on,85,60,0
1,note_on,97,50,120
1,note_on,97,0,120
1,note_on,85,0,0
1,note_on,82,65,0
1,note_on,82,0,120
1,note_on,97,50,0
1,note_on,97,0,120
1,note_on,85,59,0
1,note_on,85,0,120
1,note_on,97,50,0
1,note_on,97,0,120
1,note_on,90,65,0
1,note_on,82,58,0
1,note_on,97,50,120
1,note_on,97,0,120
1,note_on,82,0,0
1,note_on,90,0,0
1,note_on,85,60,0
1,note_on,97,50,120
1,note_on,97,0,120
1,note_on,85,0,0
1,note_on,87,65,0
1,note_on,87,0,120
1,note_on,97,47,0
1,note_on,97,0,120
1,note_on,83,60,0
1,note_on,83,0,120
1,note_on,97,47,0
1,note_on,97,0,120
1,note_on,82,60,0
1,note_on,82,0,120
1,note_on,97,47,0
1,note_on,97,0,120
1,note_on,83,62,0
1,note_on,83,0,120
1,note_on,97,47,0
1,note_on,97,0,120
1,note_on,87,65,0
1,note_on,87,0,120
1,note_on,97,48,0
1,note_on,97,0,120
1,note_on,83,62,0
1,note_on,83,0,120
1,note_on,97,47,0
1,note_on,97,0,120
1,note_on,90,65,0
1,note_on,90,0,120
1,note_on,97,46,0
1,note_on,97,0,120
1,note_on,87,61,0
1,note_on,87,0,120
1,note_on,97,48,0
1,note_on,97,0,120
1,note_on,85,65,0
1,note_on,85,0,120
1,note_on,97,47,0
1,note_on,97,0,120
1,note_on,82,60,0
1,note_on,82,0,120
1,note_on,97,47,0
1,note_on,97,0,120
1,note_on,81,60,0
1,note_on,81,0,120
1,note_on,97,47,0
1,note_on,97,0,120
1,note_on,82,62,0
1,note_on,82,0,120
1,note_on,97,47,0
1,note_on,97,0,120
1,note_on,85,65,0
1,note_on,85,0,120
1,note_on,97,48,0
1,note_on,97,0,120
1,note_on,82,62,0
1,note_on,82,0,120
1,note_on,97,47,0
1,note_on,97,0,120
1,note_on,90,65,0
1,note_on,90,0,120
1,note_on,97,46,0
1,note_on,97,0,120
1,note_on,85,61,0
1,note_on,85,0,120
1,note_on,97,48,0
1,note_on,97,0,120
1,note_on,87,65,0
1,note_on,87,0,120
1,note_on,97,47,0
1,note_on,97,0,120
1,note_on,83,60,0
1,note_on,83,0,120
1,note_on,97,47,0
1,note_on,97,0,120
1,note_on,82,60,0
1,note_on,82,0,120
1,note_on,97,47,0
1,note_on,97,0,120
1,note_on,83,62,0
1,note_on,83,0,120
1,note_on,97,47,0
1,note_on,97,0,120
1,note_on,87,65,0
1,note_on,87,0,120
1,note_on,97,48,0
1,note_on,97,0,120
1,note_on,83,62,0
1,note_on,83,0,120
1,note_on,97,47,0
1,note_on,97,0,120
1,note_on,90,65,0
1,note_on,90,0,120
1,note_on,97,46,0
1,note_on,97,0,120
1,note_on,87,61,0
1,note_on,87,0,120
1,note_on,97,48,0
1,note_on,97,0,120
1,note_on,85,65,0
1,note_on,85,0,120
1,note_on,97,47,0
1,note_on,97,0,120
1,note_on,82,60,0
1,note_on,82,0,120
1,note_on,97,47,0
1,note_on,97,0,120
1,note_on,81,60,0
1,note_on,81,0,120
1,note_on,97,47,0
1,note_on,97,0,120
1,note_on,82,62,0
1,note_on,82,0,120
1,note_on,97,47,0
1,note_on,97,0,120
1,note_on,85,65,0
1,note_on,85,0,120
1,note_on,97,48,0
1,note_on,97,0,120
1,note_on,82,62,0
1,note_on,82,0,120
1,note_on,97,47,0
1,note_on,97,0,120
1,note_on,90,65,0
1,note_on,90,0,120
1,note_on,97,46,0
1,note_on,97,0,120
1,note_on,85,61,0
1,note_on,85,0,120
1,note_on,97,48,0
1,note_on,97,0,120
1,note_on,83,55,0
1,note_on,89,65,0
1,note_on,89,0,120
1,note_on,83,0,0
1,note_on,97,48,0
1,note_on,97,0,120
1,note_on,92,62,0
1,note_on,85,52,0
1,note_on,97,47,120
1,note_on,85,0,30
1,note_on,92,0,0
1,note_on,97,0,90
1,note_on,83,55,0
1,note_on,89,65,0
1,note_on,89,0,120
1,note_on,83,0,0
1,note_on,97,46,0
1,note_on,97,0,120
1,note_on,85,51,0
1,note_on,92,61,0
1,note_on,97,48,120
1,note_on,92,0,30
1,note_on,85,0,0
1,note_on,97,0,90
1,note_on,89,65,0
1,note_on,83,55,0
1,note_on,83,0,120
1,note_on,89,0,0
1,note_on,97,48,0
1,note_on,97,0,120
1,note_on,85,52,0
1,note_on,92,62,0
1,note_on,97,47,120
1,note_on,92,0,30
1,note_on,85,0,0
1,note_on,97,0,90
1,note_on,83,55,0
1,note_on,89,65,0
1,note_on,89,0,120
1,note_on,83,0,0
1,note_on,97,46,0
1,note_on,97,0,120
1,note_on,85,51,0
1,note_on,92,61,0
1,note_on,97,48,120
1,note_on,92,0,30
1,note_on,85,0,0
1,note_on,97,0,90
1,note_on,90,65,0
1,note_on,82,55,0
1,note_on,82,0,120
1,note_on,90,0,0
1,note_on,97,48,0
1,note_on,97,0,120
1,note_on,94,62,0
1,note_on,85,52,0
1,note_on,97,47,120
1,note_on,85,0,30
1,note_on,94,0,0
1,note_on,97,0,90
1,note_on,90,65,0
1,note_on,82,55,0
1,note_on,82,0,120
1,note_on,90,0,0
1,note_on,97,46,0
1,note_on,97,0,120
1,note_on,94,61,0
1,note_on,85,51,0
1,note_on,97,48,120
1,note_on,85,0,30
1,note_on,94,0,0
1,note_on,97,0,90
1,note_on,82,55,0
1,note_on,90,65,0
1,note_on,90,0,120
1,note_on,82,0,0
1,note_on,97,48,0
1,note_on,97,0,120
1,note_on,85,52,0
1,note_on,94,62,0
1,note_on,97,47,120
1,note_on,94,0,30
1,note_on,85,0,0
1,note_on,97,0,90
1,note_on,82,55,0
1,note_on,90,65,0
1,note_on,90,0,120
1,note_on,82,0,0
1,note_on,97,46,0
1,note_on,97,0,120
1,note_on,85,51,0
1,note_on,94,61,0
1,note_on,97,48,120
1,note_on,94,0,30
1,note_on,85,0,0
1,note_on,97,0,90
1,note_on,83,55,0
1,note_on,89,65,0
1,note_on,89,0,120
1,note_on,83,0,0
1,note_on,97,48,0
1,note_on,97,0,120
1,note_on,92,62,0
1,note_on,85,52,0
1,note_on,97,47,120
1,note_on,85,0,30
1,note_on,92,0,0
1,note_on,97,0,90
1,note_on,83,55,0
1,note_on,89,65,0
1,note_on,89,0,120
1,note_on,83,0,0
1,note_on,97,46,0
1,note_on,97,0,120
1,note_on,92,61,0
1,note_on,85,51,0
1,note_on,97,48,120
1,note_on,85,0,30
1,note_on,92,0,0
1,note_on,97,0,90
1,note_on,89,65,0
1,note_on,83,55,0
1,note_on,83,0,120
1,note_on,89,0,0
1,note_on,97,48,0
1,note_on,97,0,120
1,note_on,85,52,0
1,note_on,92,62,0
1,note_on,97,47,120
1,note_on,92,0,30
1,note_on,85,0,0
1,note_on,97,0,90
1,note_on,83,55,0
1,note_on,89,65,0
1,note_on,89,0,120
1,note_on,83,0,0
1,note_on,97,46,0
1,note_on,97,0,120
1,note_on,85,51,0
1,note_on,92,61,0
1,note_on,97,48,120
1,note_on,92,0,30
1,note_on,85,0,0
1,note_on,97,0,90
1,note_on,82,55,0
1,note_on,90,65,0
1,note_on,90,0,120
1,note_on,82,0,0
1,note_on,97,48,0
1,note_on,97,0,120
1,note_on,85,52,0
1,note_on,94,62,0
1,note_on,97,47,120
1,note_on,94,0,30
1,note_on,85,0,0
1,note_on,97,0,90
1,note_on,82,55,0
1,note_on,90,65,0
1,note_on,90,0,120
1,note_on,82,0,0
1,note_on,97,46,0
1,note_on,97,0,120
1,note_on,85,51,0
1,note_on,94,61,0
1,note_on,97,48,120
1,note_on,94,0,30
1,note_on,85,0,0
1,note_on,97,0,90
1,note_on,82,55,0
1,note_on,90,65,0
1,note_on,90,0,120
1,note_on,82,0,0
1,note_on,97,48,0
1,note_on,97,0,120
1,note_on,94,62,0
1,note_on,85,52,0
1,note_on,97,47,120
1,note_on,85,0,30
1,note_on,94,0,0
1,note_on,97,0,90
1,note_on,82,55,0
1,note_on,90,65,0
1,note_on,90,0,120
1,note_on,82,0,0
1,note_on,97,46,0
1,note_on,97,0,120
1,note_on,85,51,0
1,note_on,94,61,0
1,note_on,97,48,120
1,note_on,94,0,30
1,note_on,85,0,0
1,note_on,97,0,90
1,note_on,83,55,0
1,note_on,89,65,0
1,note_on,89,0,120
1,note_on,83,0,0
1,note_on,97,48,0
1,note_on,97,0,120
1,note_on,92,62,0
1,note_on,85,52,0
1,note_on,97,47,120
1,note_on,85,0,30
1,note_on,92,0,0
1,note_on,97,0,90
1,note_on,89,65,0
1,note_on,83,55,0
1,note_on,83,0,120
1,note_on,89,0,0
1,note_on,97,46,0
1,note_on,97,0,120
1,note_on,85,51,0
1,note_on,92,61,0
1,note_on,97,48,120
1,note_on,92,0,30
1,note_on,85,0,0
1,note_on,97,0,90
1,note_on,89,65,0
1,note_on,83,55,0
1,note_on,83,0,120
1,note_on,89,0,0
1,note_on,97,48,0
1,note_on,97,0,120
1,note_on,85,52,0
1,note_on,92,62,0
1,note_on,97,47,120
1,note_on,92,0,30
1,note_on,85,0,0
1,note_on,97,0,90
1,note_on,89,65,0
1,note_on,85,55,0
1,note_on,77,55,0
1,note_on,77,0,480
1,note_on,85,0,0
1,note_on,89,0,0
1,note_on,82,55,0
1,note_on,90,65,0
1,note_on,90,0,120
1,note_on,82,0,0
1,note_on,97,48,0
1,note_on,97,0,120
1,note_on,94,62,0
1,note_on,85,52,0
1,note_on,97,47,120
1,note_on,85,0,30
1,note_on,94,0,0
1,note_on,97,0,90
1,note_on,90,65,0
1,note_on,82,55,0
1,note_on,82,0,120
1,note_on,90,0,0
1,note_on,97,46,0
1,note_on,97,0,120
1,note_on,94,61,0
1,note_on,85,51,0
1,note_on,97,48,120
1,note_on,85,0,30
1,note_on,94,0,0
1,note_on,97,0,90
1,note_on,82,55,0
1,note_on,90,65,0
1,note_on,90,0,120
1,note_on,82,0,0
1,note_on,97,48,0
1,note_on,97,0,120
1,note_on,94,62,0
1,note_on,85,52,0
1,note_on,97,47,120
1,note_on,85,0,30
1,note_on,94,0,0
1,note_on,97,0,90
1,note_on,85,55,0
1,note_on,90,65,0
1,note_on,78,55,0
1,note_on,78,0,480
1,note_on,90,0,0
1,note_on,85,0,0
1,note_on,89,65,0
1,note_on,83,55,0
1,note_on,83,0,120
1,note_on,89,0,0
1,note_on,97,48,0
1,note_on,97,0,120
1,note_on,92,62,0
1,note_on,85,52,0
1,note_on,97,47,120
1,note_on,85,0,30
1,note_on,92,0,0
1,note_on,97,0,90
1,note_on,89,65,0
1,note_on,83,55,0
1,note_on,83,0,120
1,note_on,89,0,0
1,note_on,97,46,0
1,note_on,97,0,120
1,note_on,85,51,0
1,note_on,92,61,0
1,note_on,97,48,120
1,note_on,92,0,30
1,note_on,85,0,0
1,note_on,97,0,90
1,note_on,83,55,0
1,note_on,89,65,0
1,note_on,89,0,120
1,note_on,83,0,0
1,note_on,97,48,0
1,note_on,97,0,120
1,note_on,85,52,0
1,note_on,92,62,0
1,note_on,97,47,120
1,note_on,92,0,30
1,note_on,85,0,0
1,note_on,97,0,90
1,note_on,89,65,0
1,note_on,85,55,0
1,note_on,77,55,0
1,note_on,77,0,480
1,note_on,85,0,0
1,note_on,89,0,0
1,note_on,90,65,0
1,note_on,82,55,0
1,note_on,82,0,120
1,note_on,90,0,0
1,note_on,97,48,0
1,note_on,97,0,120
1,note_on,85,52,0
1,note_on,94,62,0
1,note_on,97,47,120
1,note_on,94,0,30
1,note_on,85,0,0
1,note_on,97,0,90
1,note_on,82,55,0
1,note_on,90,65,0
1,note_on,90,0,120
1,note_on,82,0,0
1,note_on,97,46,0
1,note_on,97,0,120
1,note_on,85,51,0
1,note_on,94,61,0
1,note_on,97,48,120
1,note_on,94,0,30
1,note_on,85,0,0
1,note_on,97,0,90
1,note_on,82,55,0
1,note_on,90,65,0
1,note_on,90,0,120
1,note_on,82,0,0
1,note_on,97,48,0
1,note_on,97,0,120
1,note_on,85,52,0
1,note_on,94,62,0
1,note_on,97,47,120
1,note_on,94,0,30
1,note_on,85,0,0
1,note_on,97,0,90
1,note_on,85,55,0
1,note_on,78,55,0
1,note_on,90,65,0
1,note_on,83,66,420
1,note_on,83,0,60
1,note_on,85,0,0
1,note_on,78,0,0
1,note_on,90,0,0
1,note_on,99,82,0
1,note_on,99,0,120
1,note_on,80,65,360
1,note_on,80,0,720
1,note_on,82,65,0
1,note_on,82,0,120
1,note_on,83,69,120
1,note_on,83,0,120
1,note_on,80,65,120
1,note_on,80,0,120
1,note_on,82,63,60
1,note_on,82,0,60
1,note_on,97,83,0
1,note_on,97,0,120
1,note_on,78,65,360
1,note_on,78,0,720
1,note_on,80,65,0
1,note_on,80,0,120
1,note_on,82,69,120
1,note_on,82,0,120
1,note_on,78,59,120
1,note_on,78,0,120
1,note_on,77,65,120
1,note_on,77,0,120
1,note_on,78,61,120
1,note_on,78,0,120
1,note_on,80,65,120
1,note_on,80,0,120
1,note_on,82,61,120
1,note_on,82,0,120
1,note_on,83,65,120
1,note_on,83,0,120
1,note_on,85,60,120
1,note_on,85,0,120
1,note_on,87,65,120
1,note_on,87,0,120
1,note_on,89,59,120
1,note_on,89,0,120
1,note_on,90,61,60
1,note_on,90,0,30
1,note_on,92,61,0
1,note_on,92,0,30
1,note_on,90,75,0
1,note_on,90,0,120
1,note_on,89,65,120
1,note_on,89,0,120
1,note_on,90,71,120
1,note_on,90,0,120
1,note_on,92,65,120
1,note_on,92,0,120
1,note_on,94,73,120
1,note_on,94,0,120
1,note_on,92,65,120
1,note_on,92,0,120
1,note_on,94,73,120
1,note_on,94,0,120
1,note_on,90,65,120
1,note_on,90,0,120
1,note_on,83,50,60
1,note_on,83,0,20
1,note_on,89,54,0
1,note_on,89,0,20
1,note_on,92,57,0
1,note_on,92,0,20
1,note_on,99,82,0
1,note_on,99,0,120
1,note_on,77,55,360
1,note_on,80,65,0
1,note_on,80,0,720
1,note_on,77,0,0
1,note_on,82,66,0
1,note_on,78,56,0
1,note_on,78,0,120
1,note_on,82,0,0
1,note_on,80,59,120
1,note_on,83,70,0
1,note_on,83,0,120
1,note_on,80,0,0
1,note_on,77,56,120
1,note_on,80,66,0
1,note_on,80,0,120
1,note_on,77,0,0
1,note_on,82,46,60
1,note_on,82,0,20
1,note_on,85,58,0
1,note_on,85,0,20
1,note_on,90,61,0
1,note_on,90,0,2
1,note_on,97,85,18
1,note_on,97,0,120
1,note_on,70,57,360
1,note_on,78,67,0
1,note_on,78,0,720
1,note_on,70,0,0
1,note_on,71,58,0
1,note_on,80,68,0
1,note_on,80,0,120
1,note_on,71,0,0
1,note_on,73,61,120
1,note_on,82,73,0
1,note_on,82,0,120
1,note_on,73,0,0
1,note_on,78,63,120
1,note_on,70,53,0
1,note_on,70,0,120
1,note_on,78,0,0
1,note_on,77,69,120
1,note_on,68,58,0
1,note_on,68,0,120
1,note_on,77,0,0
1,note_on,78,65,120
1,note_on,70,54,0
1,note_on,70,0,120
1,note_on,78,0,0
1,note_on,71,59,120
1,note_on,80,70,0
1,note_on,80,0,120
1,note_on,71,0,0
1,note_on,73,55,120
1,note_on,82,65,0
1,note_on,82,0,120
1,note_on,73,0,0
1,note_on,75,59,120
1,note_on,83,70,0
1,note_on,83,0,120
1,note_on,75,0,0
1,note_on,77,55,120
1,note_on,85,65,0
1,note_on,85,0,120
1,note_on,77,0,0
1,note_on,87,71,120
1,note_on,78,60,0
1,note_on,78,0,120
1,note_on,87,0,0
1,note_on,80,55,120
1,note_on,89,64,0
1,note_on,89,0,120
1,note_on,80,0,0
1,note_on,82,69,120
1,note_on,90,83,0
1,note_on,90,0,120
1,note_on,82,0,0
1,note_on,80,61,120
1,note_on,89,72,0
1,note_on,89,0,120
1,note_on,80,0,0
1,note_on,82,67,120
1,note_on,90,79,0
1,note_on,90,0,120
1,note_on,82,0,0
1,note_on,83,61,120
1,note_on,92,72,0
1,note_on,92,0,120
1,note_on,83,0,0
1,note_on,94,82,120
1,note_on,85,70,0
1,note_on,85,0,120
1,note_on,94,0,0
1,note_on,83,62,120
1,note_on,92,73,0
1,note_on,92,0,120
1,note_on,83,0,0
1,note_on,94,83,120
1,note_on,85,70,0
1,note_on,85,0,120
1,note_on,94,0,0
1,note_on,90,74,120
1,note_on,82,62,0
1,note_on,82,0,120
1,note_on,90,0,0
1,note_on,87,58,60
1,note_on,87,0,30
1,note_on,94,62,0
1,note_on,94,0,30
1,note_on,102,93,0
1,note_on,102,0,120
1,note_on,75,77,360
1,note_on,66,65,0
1,note_on,66,0,720
1,note_on,75,0,0
1,note_on,68,63,0
1,note_on,77,75,0
1,note_on,77,0,120
1,note_on,68,0,0
1,note_on,78,78,120
1,note_on,70,66,0
1,note_on,70,0,120
1,note_on,78,0,0
1,note_on,66,60,120
1,note_on,75,71,0
1,note_on,75,0,120
1,note_on,66,0,0
1,note_on,85,58,60
1,note_on,85,0,30
1,note_on,92,62,0
1,note_on,92,0,30
1,note_on,101,93,0
1,note_on,101,0,120
1,note_on,65,65,360
1,note_on,73,77,0
1,note_on,73,0,720
1,note_on,65,0,0
1,note_on,66,63,0
1,note_on,75,75,0
1,note_on,75,0,120
1,note_on,66,0,0
1,note_on,68,66,120
1,note_on,77,78,0
1,note_on,77,0,120
1,note_on,68,0,0
1,note_on,65,60,120
1,note_on,73,71,0
1,note_on,73,0,120
1,note_on,65,0,0
1,note_on,72,70,120
1,note_on,63,59,0
1,note_on,63,0,120
1,note_on,72,0,0
1,note_on,65,61,120
1,note_on,73,72,0
1,note_on,73,0,120
1,note_on,65,0,0
1,note_on,75,74,120
1,note_on,66,62,0
1,note_on,66,0,120
1,note_on,75,0,0
1,note_on,68,65,120
1,note_on,77,77,0
1,note_on,77,0,120
1,note_on,68,0,0
1,note_on,70,67,120
1,note_on,78,79,0
1,note_on,78,0,120
1,note_on,70,0,0
1,note_on,72,63,120
1,note_on,80,75,0
1,note_on,80,0,120
1,note_on,72,0,0
1,note_on,82,77,120
1,note_on,73,65,0
1,note_on,73,0,120
1,note_on,82,0,0
1,note_on,84,80,120
1,note_on,75,68,0
1,note_on,75,0,120
1,note_on,84,0,0
1,note_on,77,69,120
1,note_on,85,82,0
1,note_on,85,0,120
1,note_on,77,0,0
1,note_on,75,67,120
1,note_on,84,79,0
1,note_on,84,0,120
1,note_on,75,0,0
1,note_on,85,79,120
1,note_on,77,67,0
1,note_on,77,0,120
1,note_on,85,0,0
1,note_on,78,68,120
1,note_on,87,80,0
1,note_on,87,0,120
1,note_on,78,0,0
1,note_on,89,87,120
1,note_on,80,73,0
1,note_on,80,0,120
1,note_on,89,0,0
1,note_on,78,68,120
1,note_on,87,80,0
1,note_on,87,0,120
1,note_on,78,0,0
1,note_on,80,73,120
1,note_on,89,87,0
1,note_on,89,0,120
1,note_on,80,0,0
1,note_on,85,80,120
1,note_on,77,68,0
1,note_on,77,0,120
1,note_on,85,0,0
1,note_on,87,58,60
1,note_on,87,0,30
1,note_on,94,62,0
1,note_on,94,0,30
1,note_on,102,97,0
1,note_on,102,0,120
1,note_on,75,80,360
1,note_on,66,68,0
1,note_on,66,0,720
1,note_on,75,0,0
1,note_on,77,79,0
1,note_on,68,66,0
1,note_on,68,0,120
1,note_on,77,0,0
1,note_on,78,82,120
1,note_on,70,69,0
1,note_on,70,0,120
1,note_on,78,0,0
1,note_on,75,75,120
1,note_on,66,63,0
1,note_on,66,0,120
1,note_on,75,0,0
1,note_on,85,61,60
1,note_on,85,0,30
1,note_on,92,65,0
1,note_on,92,0,30
1,note_on,101,98,0
1,note_on,101,0,120
1,note_on,73,82,360
1,note_on,65,69,0
1,note_on,65,0,720
1,note_on,73,0,0
1,note_on,75,80,0
1,note_on,66,67,0
1,note_on,66,0,120
1,note_on,75,0,0
1,note_on,68,70,120
1,note_on,77,83,0
1,note_on,77,0,120
1,note_on,68,0,0
1,note_on,73,76,120
1,note_on,65,64,0
1,note_on,65,0,120
1,note_on,73,0,0
1,note_on,72,75,120
1,note_on,63,63,0
1,note_on,63,0,120
1,note_on,72,0,0
1,note_on,73,77,120
1,note_on,65,65,0
1,note_on,65,0,120
1,note_on,73,0,0
1,note_on,66,66,120
1,note_on,75,79,0
1,note_on,75,0,120
1,note_on,66,0,0
1,note_on,77,83,120
1,note_on,68,70,0
1,note_on,68,0,120
1,note_on,77,0,0
1,note_on,78,86,120
1,note_on,70,73,0
1,note_on,70,0,120
1,note_on,78,0,0
1,note_on,80,81,120
1,note_on,72,68,0
1,note_on,72,0,120
1,note_on,80,0,0
1,note_on,73,70,120
1,note_on,82,83,0
1,note_on,82,0,120
1,note_on,73,0,0
1,note_on,75,74,120
1,note_on,84,87,0
1,note_on,84,0,120
1,note_on,75,0,0
1,note_on,85,87,120
1,note_on,77,73,0
1,note_on,73,73,0
1,note_on,73,0,240
1,note_on,77,0,0
1,note_on,85,0,0
1,note_on,72,64,0
1,note_on,84,76,0
1,note_on,84,0,120
1,note_on,72,0,0
1,note_on,86,87,120
1,note_on,74,73,0
1,note_on,74,0,240
1,note_on,86,0,0
1,note_on,73,64,0
1,note_on,85,76,0
1,note_on,85,0,120
1,note_on,73,0,0
1,note_on,87,88,120
1,note_on,75,74,0
1,note_on,75,0,240
1,note_on,87,0,0
1,note_on,74,64,0
1,note_on,86,77,0
1,note_on,86,0,120
1,note_on,74,0,0
1,note_on,76,75,120
1,note_on,88,89,0
1,note_on,88,0,240
1,note_on,76,0,0
1,note_on,75,66,0
1,note_on,87,79,0
1,note_on,87,0,120
1,note_on,75,0,0
1,note_on,77,76,120
1,note_on,89,91,0
1,note_on,89,0,240
1,note_on,77,0,0
1,note_on,88,78,0
1,note_on,76,66,0
1,note_on,76,0,120
1,note_on,88,0,0
1,note_on,90,92,120
1,note_on,78,77,0
1,note_on,78,0,240
1,note_on,90,0,0
1,note_on,77,67,0
1,note_on,89,80,0
1,note_on,89,0,120
1,note_on,77,0,0
1,note_on,91,93,120
1,note_on,79,78,0
1,note_on,79,0,240
1,note_on,91,0,0
1,note_on,90,82,0
1,note_on,78,69,0
1,note_on,78,0,120
1,note_on,90,0,0
1,note_on,80,78,120
1,note_on,92,93,0
1,note_on,92,0,240
1,note_on,80,0,0
1,note_on,91,81,0
1,note_on,79,68,0
1,note_on,79,0,120
1,note_on,91,0,0
1,note_on,81,80,120
1,note_on,93,95,0
1,note_on,93,0,240
1,note_on,81,0,0
1,note_on,80,69,0
1,note_on,92,82,0
1,note_on,92,0,120
1,note_on,80,0,0
1,note_on,94,96,120
1,note_on,82,81,0
1,note_on,82,0,240
1,note_on,94,0,0
1,note_on,93,82,0
1,note_on,81,68,0
1,note_on,81,0,120
1,note_on,93,0,0
1,note_on,83,81,120
1,note_on,95,97,0
1,note_on,95,0,240
1,note_on,83,0,0
1,note_on,82,71,0
1,note_on,94,84,0
1,note_on,94,0,120
1,note_on,82,0,0
1,note_on,95,98,120
1,note_on,83,82,0
1,note_on,83,0,240
1,note_on,95,0,0
1,note_on,96,84,0
1,note_on,84,70,0
1,note_on,84,0,120
1,note_on,96,0,0
1,note_on,89,86,120
1,note_on,97,102,0
1,note_on,85,86,0
1,note_on,85,0,240
1,note_on,97,0,0
1,note_on,89,0,0
1,note_on,84,80,0
1,note_on,96,95,0
1,note_on,96,0,240
1,note_on,84,0,0
1,note_on,97,102,0
1,note_on,89,86,0
1,note_on,85,86,0
1,note_on,85,0,240
1,note_on,89,0,0
1,note_on,97,0,0
1,note_on,84,80,0
1,note_on,96,95,0
1,note_on,90,80,0
1,note_on,90,0,240
1,note_on,96,0,0
1,note_on,84,0,0
1,note_on,85,86,0
1,note_on,97,102,0
1,note_on,89,86,0
1,note_on,89,0,240
1,note_on,97,0,0
1,note_on,85,0,0
1,note_on,84,80,0
1,note_on,96,95,0
1,note_on,90,80,0
1,note_on,90,0,240
1,note_on,96,0,0
1,note_on,84,0,0
1,note_on,97,102,0
1,note_on,89,86,0
1,note_on,85,86,0
1,note_on,85,0,240
1,note_on,89,0,0
1,note_on,97,0,0
1,note_on,84,80,0
1,note_on,90,80,0
1,note_on,96,95,0
1,note_on,96,0,240
1,note_on,90,0,0
1,note_on,84,0,0
1,note_on,89,86,0
1,note_on,85,86,0
1,note_on,97,102,0
1,note_on,97,0,240
1,note_on,85,0,0
1,note_on,89,0,0
1,note_on,72,68,0
1,note_on,84,81,0
1,note_on,73,74,240
1,note_on,85,88,0
1,note_on,84,0,20
1,note_on,72,0,0
1,note_on,84,81,220
1,note_on,72,68,0
1,note_on,73,0,20
1,note_on,85,0,0
1,note_on,73,74,220
1,note_on,85,88,0
1,note_on,84,0,20
1,note_on,72,0,0
1,note_on,73,0,100
1,note_on,85,0,0
1,note_on,72,74,120
1,note_on,60,62,0
1,note_on,73,80,240
1,note_on,61,68,0
1,note_on,60,0,20
1,note_on,72,0,0
1,note_on,60,61,220
1,note_on,72,72,0
1,note_on,73,0,20
1,note_on,61,0,0
1,note_on,60,0,220
1,note_on,72,0,0
1,note_on,61,77,0
1,note_on,73,93,0
1,note_on,65,64,240
1,note_on,68,76,0
1,note_on,68,0,120
1,note_on,65,0,0
1,note_on,73,0,120
1,note_on,61,0,0
1,note_on,65,71,0
1,note_on,77,84,0
1,note_on,73,76,240
1,note_on,68,64,0
1,note_on,68,0,120
1,note_on,73,0,0
1,note_on,77,0,120
1,note_on,65,0,0
1,note_on,82,100,0
1,note_on,70,85,0
1,note_on,73,64,240
1,note_on,77,76,0
1,note_on,77,0,120
1,note_on,73,0,0
1,note_on,77,76,120
1,note_on,73,64,0
1,note_on,73,0,120
1,note_on,77,0,0
1,note_on,70,0,120
1,note_on,82,0,0
1,note_on,68,77,0
1,note_on,80,92,0
1,note_on,80,0,120
1,note_on,68,0,0
1,note_on,78,96,120
1,note_on,70,64,0
1,note_on,73,81,0
1,note_on,66,64,0
1,note_on,66,0,120
1,note_on,78,0,0
1,note_on,70,0,0
1,note_on,73,0,0
1,note_on,77,88,120
1,note_on,65,74,0
1,note_on,65,0,120
1,note_on,77,0,0
1,note_on,76,88,120
1,note_on,64,74,0
1,note_on,64,0,120
1,note_on,76,0,0
1,note_on,63,69,60
1,note_on,66,71,20
1,note_on,70,73,20
1,note_on,75,89,20
1,note_on,66,0,100
1,note_on,63,0,20
1,note_on,70,0,0
1,note_on,75,0,0
1,note_on,74,88,120
1,note_on,62,74,0
1,note_on,62,0,120
1,note_on,74,0,0
1,note_on,61,63,60
1,note_on,66,67,20
1,note_on,70,70,20
1,note_on,73,83,20
1,note_on,73,0,120
1,note_on,61,0,0
1,note_on,66,0,0
1,note_on,70,0,0
1,note_on,60,76,120
1,note_on,72,91,0
1,note_on,72,0,120
1,note_on,60,0,0
1,note_on,61,74,120
1,note_on,73,88,0
1,note_on,73,0,120
1,note_on,61,0,0
1,note_on,73,93,120
1,note_on,61,77,0
1,note_on,65,64,240
1,note_on,68,76,0
1,note_on,68,0,120
1,note_on,65,0,0
1,note_on,61,0,120
1,note_on,73,0,0
1,note_on,65,71,0
1,note_on,77,84,0
1,note_on,73,76,240
1,note_on,68,64,0
1,note_on,68,0,120
1,note_on,73,0,0
1,note_on,77,0,120
1,note_on,65,0,0
1,note_on,82,100,0
1,note_on,70,85,0
1,note_on,77,76,240
1,note_on,73,64,0
1,note_on,73,0,120
1,note_on,77,0,0
1,note_on,73,64,120
1,note_on,77,76,0
1,note_on,77,0,120
1,note_on,73,0,0
1,note_on,70,0,120
1,note_on,82,0,0
1,note_on,80,92,0
1,note_on,68,77,0
1,note_on,68,0,120
1,note_on,80,0,0
1,note_on,73,81,120
1,note_on,66,64,0
1,note_on,70,64,0
1,note_on,78,96,0
1,note_on,78,0,120
1,note_on,73,0,0
1,note_on,66,0,0
1,note_on,70,0,0
1,note_on,65,74,120
1,note_on,77,88,0
1,note_on,77,0,120
1,note_on,65,0,0
1,note_on,63,74,120
1,note_on,75,88,0
1,note_on,75,0,120
1,note_on,63,0,0
1,note_on,66,60,120
1,note_on,70,61,0
1,note_on,61,58,0
1,note_on,73,74,0
1,note_on,73,0,120
1,note_on,61,0,0
1,note_on,70,0,0
1,note_on,66,0,10
1,note_on,66,74,110
1,note_on,73,74,0
1,note_on,78,89,0
1,note_on,70,74,0
1,note_on,70,0,480
1,note_on,66,0,0
1,note_on,73,0,0
1,note_on,78,0,0
1,note_on,73,68,0
1,note_on,82,80,0
1,note_on,70,68,0
1,note_on,78,68,0
1,note_on,78,0,480
1,note_on,73,0,0
1,note_on,82,0,0
1,note_on,70,0,0
1,note_on,89,55,0
1,note_on,83,55,0
1,note_on,83,0,120
1,note_on,89,0,0
1,note_on,97,56,0
1,note_on,97,0,120
1,note_on,92,57,0
1,note_on,85,57,0
1,note_on,85,0,120
1,note_on,92,0,0
1,note_on,97,59,0
1,note_on,97,0,120
1,note_on,84,60,0
1,note_on,89,60,0
1,note_on,89,0,120
1,note_on,84,0,0
1,note_on,97,61,0
1,note_on,97,0,120
1,note_on,85,63,0
1,note_on,92,63,0
1,note_on,92,0,120
1,note_on,85,0,0
1,note_on,97,64,0
1,note_on,97,0,120
1,note_on,89,66,0
1,note_on,83,66,0
1,note_on,83,0,120
1,note_on,89,0,0
1,note_on,97,67,0
1,note_on,97,0,120
1,note_on,92,69,0
1,note_on,85,69,0
1,note_on,85,0,120
1,note_on,92,0,0
1,note_on,97,69,0
1,note_on,97,0,120
1,note_on,89,68,0
1,note_on,84,68,0
1,note_on,84,0,120
1,note_on,89,0,0
1,note_on,97,67,0
1,note_on,97,0,120
1,note_on,92,67,0
1,note_on,85,67,0
1,note_on,85,0,120
1,note_on,92,0,0
1,note_on,97,66,0
1,note_on,97,0,120
1,note_on,82,71,0
1,note_on,90,71,0
1,note_on,90,0,120
1,note_on,82,0,0
1,note_on,97,64,0
1,note_on,97,0,120
1,note_on,85,67,0
1,note_on,94,67,0
1,note_on,94,0,120
1,note_on,85,0,0
1,note_on,97,63,0
1,note_on,97,0,120
1,note_on,84,68,0
1,note_on,90,68,0
1,note_on,90,0,120
1,note_on,84,0,0
1,note_on,97,62,0
1,note_on,97,0,120
1,note_on,85,68,0
1,note_on,94,68,0
1,note_on,94,0,120
1,note_on,85,0,0
1,note_on,97,61,0
1,note_on,97,0,120
1,note_on,90,69,0
1,note_on,82,69,0
1,note_on,82,0,120
1,note_on,90,0,0
1,note_on,97,60,0
1,note_on,97,0,120
1,note_on,94,63,0
1,note_on,85,63,0
1,note_on,85,0,120
1,note_on,94,0,0
1,note_on,97,58,0
1,note_on,97,0,120
1,note_on,84,61,0
1,note_on,90,61,0
1,note_on,90,0,120
1,note_on,84,0,0
1,note_on,97,57,0
1,note_on,97,0,120
1,note_on,85,61,0
1,note_on,94,61,0
1,note_on,94,0,120
1,note_on,85,0,0
1,note_on,97,56,0
1,note_on,97,0,120
1,note_on,89,60,0
1,note_on,83,60,0
1,note_on,83,0,120
1,note_on,89,0,0
1,note_on,97,60,0
1,note_on,97,0,120
1,note_on,85,61,0
1,note_on,92,61,0
1,note_on,92,0,120
1,note_on,85,0,0
1,note_on,97,62,0
1,note_on,97,0,120
1,note_on,84,62,0
1,note_on,89,62,0
1,note_on,89,0,120
1,note_on,84,0,0
1,note_on,97,63,0
1,note_on,97,0,120
1,note_on,85,64,0
1,note_on,92,64,0
1,note_on,92,0,120
1,note_on,85,0,0
1,note_on,97,66,0
1,note_on,97,0,120
1,note_on,83,66,0
1,note_on,89,66,0
1,note_on,89,0,120
1,note_on,83,0,0
1,note_on,97,67,0
1,note_on,97,0,120
1,note_on,85,69,0
1,note_on,92,69,0
1,note_on,92,0,120
1,note_on,85,0,0
1,note_on,97,69,0
1,note_on,97,0,120
1,note_on,84,68,0
1,note_on,89,68,0
1,note_on,89,0,120
1,note_on,84,0,0
1,note_on,97,67,0
1,note_on,97,0,120
1,note_on,92,67,0
1,note_on,85,67,0
1,note_on,85,0,120
1,note_on,92,0,0
1,note_on,97,66,0
1,note_on,97,0,120
1,note_on,82,71,0
1,note_on,90,71,0
1,note_on,90,0,120
1,note_on,82,0,0
1,note_on,97,64,0
1,note_on,97,0,120
1,note_on,94,67,0
1,note_on,85,67,0
1,note_on,85,0,120
1,note_on,94,0,0
1,note_on,97,63,0
1,note_on,97,0,120
1,note_on,84,68,0
1,note_on,90,68,0
1,note_on,90,0,120
1,note_on,84,0,0
1,note_on,97,62,0
1,note_on,97,0,120
1,note_on,85,68,0
1,note_on,94,68,0
1,note_on,94,0,120
1,note_on,85,0,0
1,note_on,97,61,0
1,note_on,97,0,120
1,note_on,90,69,0
1,note_on,82,69,0
1,note_on,82,0,120
1,note_on,90,0,0
1,note_on,97,59,0
1,note_on,97,0,120
1,note_on,94,61,0
1,note_on,85,61,0
1,note_on,85,0,120
1,note_on,94,0,0
1,note_on,97,56,0
1,note_on,97,0,120
1,note_on,90,58,0
1,note_on,82,58,0
1,note_on,82,0,120
1,note_on,90,0,0
1,note_on,97,52,0
1,note_on,97,0,120
1,note_on,94,57,0
1,note_on,85,57,0
1,note_on,85,0,120
1,note_on,94,0,0
1,note_on,97,50,0
1,note_on,97,0,120
1,note_on,83,55,0
1,note_on,89,65,0
1,note_on,89,0,120
1,note_on,83,0,0
1,note_on,97,48,0
1,note_on,97,0,120
1,note_on,92,62,0
1,note_on,85,52,0
1,note_on,97,47,120
1,note_on,85,0,30
1,note_on,92,0,0
1,note_on,97,0,90
1,note_on,89,65,0
1,note_on,83,55,0
1,note_on,83,0,120
1,note_on,89,0,0
1,note_on,97,46,0
1,note_on,97,0,120
1,note_on,92,61,0
1,note_on,85,51,0
1,note_on,97,48,120
1,note_on,85,0,30
1,note_on,92,0,0
1,note_on,97,0,90
1,note_on,89,65,0
1,note_on,83,55,0
1,note_on,83,0,120
1,note_on,89,0,0
1,note_on,97,48,0
1,note_on,97,0,120
1,note_on,92,62,0
1,note_on,85,52,0
1,note_on,97,47,120
1,note_on,85,0,30
1,note_on,92,0,0
1,note_on,97,0,90
1,note_on,77,55,0
1,note_on,85,55,0
1,note_on,89,65,0
1,note_on,89,0,480
1,note_on,85,0,0
1,note_on,77,0,0
1,note_on,90,65,0
1,note_on,82,55,0
1,note_on,82,0,120
1,note_on,90,0,0
1,note_on,97,48,0
1,note_on,97,0,120
1,note_on,85,52,0
1,note_on,94,62,0
1,note_on,97,47,120
1,note_on,94,0,30
1,note_on,85,0,0
1,note_on,97,0,90
1,note_on,90,65,0
1,note_on,82,55,0
1,note_on,82,0,120
1,note_on,90,0,0
1,note_on,97,46,0
1,note_on,97,0,120
1,note_on,85,51,0
1,note_on,94,61,0
1,note_on,97,48,120
1,note_on,94,0,30
1,note_on,85,0,0
1,note_on,97,0,90
1,note_on,90,65,0
1,note_on,82,55,0
1,note_on,82,0,120
1,note_on,90,0,0
1,note_on,97,48,0
1,note_on,97,0,120
1,note_on,85,52,0
1,note_on,94,62,0
1,note_on,97,47,120
1,note_on,94,0,30
1,note_on,85,0,0
1,note_on,97,0,90
1,note_on,85,55,0
1,note_on,90,65,0
1,note_on,78,55,0
1,note_on,78,0,480
1,note_on,90,0,0
1,note_on,85,0,0
1,note_on,89,65,0
1,note_on,83,55,0
1,note_on,83,0,120
1,note_on,89,0,0
1,note_on,97,48,0
1,note_on,97,0,120
1,note_on,92,62,0
1,note_on,85,52,0
1,note_on,97,47,120
1,note_on,85,0,30
1,note_on,92,0,0
1,note_on,97,0,90
1,note_on,89,65,0
1,note_on,83,55,0
1,note_on,83,0,120
1,note_on,89,0,0
1,note_on,97,46,0
1,note_on,97,0,120
1,note_on,92,61,0
1,note_on,85,51,0
1,note_on,97,48,120
1,note_on,85,0,30
1,note_on,92,0,0
1,note_on,97,0,90
1,note_on,83,55,0
1,note_on,89,65,0
1,note_on,89,0,120
1,note_on,83,0,0
1,note_on,97,48,0
1,note_on,97,0,120
1,note_on,92,62,0
1,note_on,85,52,0
1,note_on,97,47,120
1,note_on,85,0,30
1,note_on,92,0,0
1,note_on,97,0,90
1,note_on,85,55,0
1,note_on,89,65,0
1,note_on,77,55,0
1,note_on,77,0,480
1,note_on,89,0,0
1,note_on,85,0,0
1,note_on,82,55,0
1,note_on,90,65,0
1,note_on,90,0,120
1,note_on,82,0,0
1,note_on,97,48,0
1,note_on,97,0,120
1,note_on,94,62,0
1,note_on,85,52,0
1,note_on,97,47,120
1,note_on,85,0,30
1,note_on,94,0,0
1,note_on,97,0,90
1,note_on,82,55,0
1,note_on,90,65,0
1,note_on,90,0,120
1,note_on,82,0,0
1,note_on,97,46,0
1,note_on,97,0,120
1,note_on,94,61,0
1,note_on,85,51,0
1,note_on,97,48,120
1,note_on,85,0,30
1,note_on,94,0,0
1,note_on,97,0,90
1,note_on,82,55,0
1,note_on,90,65,0
1,note_on,90,0,120
1,note_on,82,0,0
1,note_on,97,48,0
1,note_on,97,0,120
1,note_on,94,62,0
1,note_on,85,52,0
1,note_on,97,47,120
1,note_on,85,0,30
1,note_on,94,0,0
1,note_on,97,0,90
1,note_on,90,65,0
1,note_on,85,55,0
1,note_on,78,55,0
1,note_on,78,0,420
1,note_on,85,0,0
1,note_on,90,0,0
1,note_on,87,65,60
1,note_on,87,0,120
1,note_on,97,47,0
1,note_on,97,0,120
1,note_on,83,60,0
1,note_on,83,0,120
1,note_on,97,47,0
1,note_on,97,0,120
1,note_on,82,60,0
1,note_on,82,0,120
1,note_on,97,47,0
1,note_on,97,0,120
1,note_on,83,62,0
1,note_on,83,0,120
1,note_on,97,47,0
1,note_on,97,0,120
1,note_on,87,65,0
1,note_on,87,0,120
1,note_on,97,48,0
1,note_on,97,0,120
1,note_on,83,62,0
1,note_on,83,0,120
1,note_on,97,47,0
1,note_on,97,0,120
1,note_on,90,65,0
1,note_on,90,0,120
1,note_on,97,46,0
1,note_on,97,0,120
1,note_on,87,61,0
1,note_on,87,0,120
1,note_on,97,48,0
1,note_on,97,0,120
1,note_on,85,65,0
1,note_on,85,0,120
1,note_on,97,47,0
1,note_on,97,0,120
1,note_on,82,60,0
1,note_on,82,0,120
1,note_on,97,47,0
1,note_on,97,0,120
1,note_on,81,60,0
1,note_on,81,0,120
1,note_on,97,47,0
1,note_on,97,0,120
1,note_on,82,62,0
1,note_on,82,0,120
1,note_on,97,47,0
1,note_on,97,0,120
1,note_on,85,65,0
1,note_on,85,0,120
1,note_on,97,48,0
1,note_on,97,0,120
1,note_on,82,62,0
1,note_on,82,0,120
1,note_on,97,47,0
1,note_on,97,0,120
1,note_on,90,65,0
1,note_on,90,0,120
1,note_on,97,46,0
1,note_on,97,0,120
1,note_on,85,61,0
1,note_on,85,0,120
1,note_on,97,48,0
1,note_on,97,0,120
1,note_on,87,65,0
1,note_on,87,0,120
1,note_on,97,47,0
1,note_on,97,0,120
1,note_on,83,60,0
1,note_on,83,0,120
1,note_on,97,47,0
1,note_on,97,0,120
1,note_on,82,60,0
1,note_on,82,0,120
1,note_on,97,47,0
1,note_on,97,0,120
1,note_on,83,62,0
1,note_on,83,0,120
1,note_on,97,47,0
1,note_on,97,0,120
1,note_on,87,65,0
1,note_on,87,0,120
1,note_on,97,48,0
1,note_on,97,0,120
1,note_on,83,62,0
1,note_on,83,0,120
1,note_on,97,47,0
1,note_on,97,0,120
1,note_on,90,65,0
1,note_on,90,0,120
1,note_on,97,46,0
1,note_on,97,0,120
1,note_on,87,61,0
1,note_on,87,0,120
1,note_on,97,48,0
1,note_on,97,0,120
1,note_on,85,65,0
1,note_on,85,0,120
1,note_on,97,47,0
1,note_on,97,0,120
1,note_on,82,60,0
1,note_on,82,0,120
1,note_on,97,47,0
1,note_on,97,0,120
1,note_on,81,60,0
1,note_on,81,0,120
1,note_on,97,47,0
1,note_on,97,0,120
1,note_on,82,62,0
1,note_on,82,0,120
1,note_on,97,47,0
1,note_on,97,0,120
1,note_on,85,65,0
1,note_on,85,0,120
1,note_on,97,48,0
1,note_on,97,0,120
1,note_on,82,62,0
1,note_on,82,0,120
1,note_on,97,47,0
1,note_on,97,0,120
1,note_on,90,65,0
1,note_on,90,0,120
1,note_on,97,46,0
1,note_on,97,0,120
1,note_on,49,46,240
1,note_on,49,0,120
1,note_on,51,48,120
1,note_on,51,0,120
1,note_on,53,50,120
1,note_on,53,0,120
1,note_on,54,53,120
1,note_on,54,0,120
1,note_on,58,50,60
1,note_on,58,0,60
1,note_on,56,55,0
1,note_on,56,0,120
1,note_on,55,46,120
1,note_on,55,0,120
1,note_on,56,50,120
1,note_on,56,0,120
1,note_on,53,46,120
1,note_on,53,0,120
1,note_on,54,46,120
1,note_on,54,0,120
1,note_on,56,48,120
1,note_on,56,0,120
1,note_on,58,50,120
1,note_on,58,0,120
1,note_on,59,53,120
1,note_on,59,0,120
1,note_on,63,50,60
1,note_on,63,0,60
1,note_on,61,55,0
1,note_on,61,0,120
1,note_on,60,46,120
1,note_on,60,0,120
1,note_on,61,50,120
1,note_on,61,0,120
1,note_on,58,46,120
1,note_on,58,0,120
1,note_on,59,55,120
1,note_on,59,0,120
1,note_on,62,50,60
1,note_on,62,0,60
1,note_on,63,46,0
1,note_on,63,0,60
1,note_on,56,50,180
1,note_on,56,0,120
1,note_on,58,50,60
1,note_on,58,0,60
1,note_on,59,46,0
1,note_on,59,0,60
1,note_on,53,55,180
1,note_on,53,0,120
1,note_on,55,50,60
1,note_on,55,0,60
1,note_on,56,46,0
1,note_on,56,0,60
1,note_on,49,50,180
1,note_on,49,0,120
1,note_on,52,50,60
1,note_on,52,0,60
1,note_on,53,46,0
1,note_on,53,0,60
1,note_on,54,55,180
1,note_on,54,0,120
1,note_on,57,50,60
1,note_on,57,0,60
1,note_on,58,46,0
1,note_on,58,0,60
1,note_on,49,50,180
1,note_on,49,0,120
1,note_on,53,50,60
1,note_on,53,0,60
1,note_on,54,46,0
1,note_on,54,0,60
1,note_on,46,55,180
1,note_on,46,0,120
1,note_on,48,50,60
1,note_on,48,0,60
1,note_on,49,46,0
1,note_on,49,0,60
1,note_on,42,50,180
1,note_on,42,0,120
1,note_on,61,40,360
1,note_on,73,48,0
1,note_on,73,0,120
1,note_on,61,0,0
1,note_on,63,42,120
1,note_on,75,50,0
1,note_on,75,0,120
1,note_on,63,0,0
1,note_on,65,44,120
1,note_on,77,52,0
1,note_on,77,0,120
1,note_on,65,0,0
1,note_on,66,47,120
1,note_on,78,55,0
1,note_on,78,0,120
1,note_on,66,0,0
1,note_on,82,52,60
1,note_on,82,0,60
1,note_on,68,48,0
1,note_on,80,57,0
1,note_on,80,0,120
1,note_on,68,0,0
1,note_on,67,40,120
1,note_on,79,48,0
1,note_on,79,0,120
1,note_on,67,0,0
1,note_on,80,52,120
1,note_on,68,44,0
1,note_on,68,0,120
1,note_on,80,0,0
1,note_on,77,48,120
1,note_on,65,40,0
1,note_on,65,0,120
1,note_on,77,0,0
1,note_on,78,48,120
1,note_on,66,40,0
1,note_on,66,0,120
1,note_on,78,0,0
1,note_on,68,42,120
1,note_on,80,50,0
1,note_on,80,0,120
1,note_on,68,0,0
1,note_on,82,52,120
1,note_on,70,44,0
1,note_on,70,0,120
1,note_on,82,0,0
1,note_on,71,47,120
1,note_on,83,55,0
1,note_on,83,0,120
1,note_on,71,0,0
1,note_on,90,52,60
1,note_on,90,0,60
1,note_on,73,48,0
1,note_on,85,57,0
1,note_on,85,0,120
1,note_on,73,0,0
1,note_on,84,48,120
1,note_on,72,40,0
1,note_on,72,0,120
1,note_on,84,0,0
1,note_on,73,44,120
1,note_on,85,52,0
1,note_on,85,0,120
1,note_on,73,0,0
1,note_on,70,40,120
1,note_on,82,48,0
1,note_on,82,0,120
1,note_on,70,0,0
1,note_on,83,66,120
1,note_on,75,50,0
1,note_on,75,0,120
1,note_on,83,0,0
1,note_on,86,60,60
1,note_on,86,0,60
1,note_on,87,55,0
1,note_on,87,0,60
1,note_on,71,50,180
1,note_on,80,60,0
1,note_on,80,0,120
1,note_on,71,0,0
1,note_on,82,60,60
1,note_on,82,0,60
1,note_on,83,55,0
1,note_on,83,0,60
1,note_on,77,66,180
1,note_on,68,50,0
1,note_on,68,0,120
1,note_on,77,0,0
1,note_on,79,60,60
1,note_on,79,0,60
1,note_on,80,55,0
1,note_on,80,0,60
1,note_on,73,60,180
1,note_on,65,50,0
1,note_on,65,0,120
1,note_on,73,0,0
1,note_on,76,60,60
1,note_on,76,0,60
1,note_on,77,55,0
1,note_on,77,0,60
1,note_on,78,66,180
1,note_on,70,50,0
1,note_on,70,0,120
1,note_on,78,0,0
1,note_on,81,60,60
1,note_on,81,0,60
1,note_on,82,55,0
1,note_on,82,0,60
1,note_on,73,60,180
1,note_on,66,50,0
1,note_on,66,0,120
1,note_on,73,0,0
1,note_on,77,60,60
1,note_on,77,0,60
1,note_on,78,55,0
1,note_on,78,0,60
1,note_on,70,66,180
1,note_on,61,50,0
1,note_on,61,0,120
1,note_on,70,0,0
1,note_on,72,60,60
1,note_on,72,0,60
1,note_on,73,55,0
1,note_on,73,0,60
1,note_on,58,50,180
1,note_on,66,60,0
1,note_on,58,0,235
1,note_on,66,0,245
1,note_on,44,46,0
1,note_on,44,0,120
1,note_on,46,48,120
1,note_on,46,0,120
1,note_on,48,50,120
1,note_on,48,0,120
1,note_on,49,53,120
1,note_on,49,0,120
1,note_on,53,50,60
1,note_on,53,0,60
1,note_on,51,55,0
1,note_on,51,0,120
1,note_on,50,46,120
1,note_on,50,0,120
1,note_on,51,50,120
1,note_on,51,0,120
1,note_on,48,46,120
1,note_on,48,0,120
1,note_on,49,46,120
1,note_on,49,0,120
1,note_on,51,48,120
1,note_on,51,0,120
1,note_on,53,50,120
1,note_on,53,0,120
1,note_on,54,53,120
1,note_on,54,0,120
1,note_on,58,50,60
1,note_on,58,0,60
1,note_on,56,55,0
1,note_on,56,0,120
1,note_on,55,46,120
1,note_on,55,0,120
1,note_on,56,50,120
1,note_on,56,0,120
1,note_on,53,46,120
1,note_on,53,0,120
1,note_on,54,55,120
1,note_on,54,0,120
1,note_on,57,50,60
1,note_on,57,0,60
1,note_on,58,46,0
1,note_on,58,0,60
1,note_on,51,50,180
1,note_on,51,0,120
1,note_on,53,50,60
1,note_on,53,0,60
1,note_on,54,46,0
1,note_on,54,0,60
1,note_on,48,55,180
1,note_on,48,0,120
1,note_on,50,50,60
1,note_on,50,0,60
1,note_on,51,46,0
1,note_on,51,0,60
1,note_on,44,50,180
1,note_on,44,0,120
1,note_on,47,50,60
1,note_on,47,0,60
1,note_on,48,46,0
1,note_on,48,0,60
1,note_on,49,55,180
1,note_on,49,0,120
1,note_on,52,50,60
1,note_on,52,0,60
1,note_on,53,46,0
1,note_on,53,0,60
1,note_on,44,50,180
1,note_on,44,0,120
1,note_on,48,50,60
1,note_on,48,0,60
1,note_on,49,46,0
1,note_on,49,0,60
1,note_on,41,55,180
1,note_on,41,0,120
1,note_on,43,50,60
1,note_on,43,0,60
1,note_on,44,46,0
1,note_on,44,0,60
1,note_on,37,50,180
1,note_on,37,0,120
1,note_on,72,44,360
1,note_on,80,52,0
1,note_on,68,44,0
1,note_on,68,0,120
1,note_on,80,0,0
1,note_on,72,0,0
1,note_on,70,46,120
1,note_on,73,46,0
1,note_on,82,55,0
1,note_on,82,0,120
1,note_on,73,0,0
1,note_on,70,0,0
1,note_on,72,48,120
1,note_on,75,48,0
1,note_on,84,57,0
1,note_on,84,0,120
1,note_on,75,0,0
1,note_on,72,0,0
1,note_on,77,51,120
1,note_on,73,51,0
1,note_on,85,60,0
1,note_on,85,0,120
1,note_on,73,0,0
1,note_on,77,0,0
1,note_on,75,52,120
1,note_on,78,52,0
1,note_on,87,62,0
1,note_on,87,0,120
1,note_on,78,0,0
1,note_on,75,0,0
1,note_on,74,44,120
1,note_on,77,44,0
1,note_on,86,52,0
1,note_on,86,0,120
1,note_on,77,0,0
1,note_on,74,0,0
1,note_on,75,48,120
1,note_on,78,48,0
1,note_on,87,57,0
1,note_on,87,0,120
1,note_on,78,0,0
1,note_on,75,0,0
1,note_on,84,52,120
1,note_on,72,44,0
1,note_on,75,44,0
1,note_on,75,0,120
1,note_on,72,0,0
1,note_on,84,0,0
1,note_on,85,52,120
1,note_on,73,44,0
1,note_on,77,44,0
1,note_on,77,0,120
1,note_on,73,0,0
1,note_on,85,0,0
1,note_on,75,46,120
1,note_on,87,55,0
1,note_on,80,46,0
1,note_on,80,0,120
1,note_on,87,0,0
1,note_on,75,0,0
1,note_on,89,57,120
1,note_on,85,48,0
1,note_on,77,48,0
1,note_on,77,0,120
1,note_on,85,0,0
1,note_on,89,0,0
1,note_on,90,60,120
1,note_on,78,51,0
1,note_on,87,51,0
1,note_on,87,0,120
1,note_on,78,0,0
1,note_on,90,0,0
1,note_on,92,62,120
1,note_on,83,52,0
1,note_on,80,52,0
1,note_on,80,0,120
1,note_on,83,0,0
1,note_on,92,0,0
1,note_on,79,44,120
1,note_on,91,52,0
1,note_on,88,44,0
1,note_on,88,0,120
1,note_on,91,0,0
1,note_on,79,0,0
1,note_on,92,57,120
1,note_on,89,48,0
1,note_on,80,48,0
1,note_on,80,0,120
1,note_on,89,0,0
1,note_on,92,0,0
1,note_on,89,52,120
1,note_on,77,44,0
1,note_on,85,44,0
1,note_on,85,0,120
1,note_on,77,0,0
1,note_on,89,0,0
1,note_on,82,55,120
1,note_on,90,72,0
1,note_on,90,0,120
1,note_on,82,0,0
1,note_on,93,66,60
1,note_on,93,0,60
1,note_on,94,60,0
1,note_on,94,0,60
1,note_on,87,66,180
1,note_on,78,55,0
1,note_on,78,0,120
1,note_on,87,0,0
1,note_on,89,66,60
1,note_on,89,0,60
1,note_on,90,60,0
1,note_on,90,0,60
1,note_on,84,72,180
1,note_on,75,55,0
1,note_on,75,0,120
1,note_on,84,0,0
1,note_on,86,66,60
1,note_on,86,0,60
1,note_on,87,60,0
1,note_on,87,0,60
1,note_on,80,66,180
1,note_on,72,55,0
1,note_on,72,0,120
1,note_on,80,0,0
1,note_on,83,66,60
1,note_on,83,0,60
1,note_on,84,60,0
1,note_on,84,0,60
1,note_on,85,72,180
1,note_on,77,55,0
1,note_on,77,0,120
1,note_on,85,0,0
1,note_on,88,66,60
1,note_on,88,0,60
1,note_on,89,60,0
1,note_on,89,0,60
1,note_on,73,55,180
1,note_on,80,66,0
1,note_on,80,0,120
1,note_on,73,0,0
1,note_on,84,66,60
1,note_on,84,0,60
1,note_on,85,60,0
1,note_on,85,0,60
1,note_on,77,72,180
1,note_on,68,55,0
1,note_on,68,0,120
1,note_on,77,0,0
1,note_on,79,66,60
1,note_on,79,0,60
1,note_on,80,60,0
1,note_on,80,0,60
1,note_on,65,55,180
1,note_on,73,66,0
1,note_on,65,0,238
1,note_on,73,0,242
1,note_on,80,50,0
1,note_on,84,50,0
1,note_on,92,59,0
1,note_on,92,0,120
1,note_on,84,0,0
1,note_on,80,0,0
1,note_on,94,63,120
1,note_on,85,52,0
1,note_on,82,52,0
1,note_on,82,0,120
1,note_on,85,0,0
1,note_on,94,0,0
1,note_on,87,55,120
1,note_on,84,55,0
1,note_on,96,65,0
1,note_on,96,0,120
1,note_on,84,0,0
1,note_on,87,0,0
1,note_on,89,58,120
1,note_on,97,69,0
1,note_on,85,58,0
1,note_on,85,0,120
1,note_on,97,0,0
1,note_on,89,0,0
1,note_on,90,64,120
1,note_on,99,78,0
1,note_on,87,64,0
1,note_on,87,0,120
1,note_on,99,0,0
1,note_on,90,0,0
1,note_on,86,55,120
1,note_on,89,55,0
1,note_on,98,64,0
1,note_on,98,0,120
1,note_on,89,0,0
1,note_on,86,0,0
1,note_on,87,60,120
1,note_on,90,60,0
1,note_on,99,71,0
1,note_on,99,0,120
1,note_on,90,0,0
1,note_on,87,0,0
1,note_on,96,64,120
1,note_on,87,55,0
1,note_on,84,55,0
1,note_on,84,0,120
1,note_on,87,0,0
1,note_on,96,0,0
1,note_on,89,55,120
1,note_on,97,64,0
1,note_on,85,55,0
1,note_on,85,0,120
1,note_on,97,0,0
1,note_on,89,0,0
1,note_on,87,57,120
1,note_on,92,57,0
1,note_on,99,69,0
1,note_on,99,0,120
1,note_on,92,0,0
1,note_on,87,0,0
1,note_on,89,60,120
1,note_on,101,71,0
1,note_on,97,60,0
1,note_on,97,0,120
1,note_on,101,0,0
1,note_on,89,0,0
1,note_on,102,75,120
1,note_on,90,63,0
1,note_on,99,63,0
1,note_on,99,0,120
1,note_on,90,0,0
1,note_on,102,0,0
1,note_on,104,78,120
1,note_on,92,64,0
1,note_on,95,64,0
1,note_on,95,0,120
1,note_on,92,0,0
1,note_on,104,0,0
1,note_on,103,64,120
1,note_on,91,55,0
1,note_on,100,55,0
1,note_on,100,0,120
1,note_on,91,0,0
1,note_on,103,0,0
1,note_on,101,60,120
1,note_on,92,60,0
1,note_on,104,71,0
1,note_on,104,0,120
1,note_on,92,0,0
1,note_on,101,0,0
1,note_on,89,55,120
1,note_on,101,64,0
1,note_on,97,55,0
1,note_on,97,0,120
1,note_on,101,0,0
1,note_on,89,0,0
1,note_on,93,82,60
1,note_on,93,0,60
1,note_on,102,90,0
1,note_on,94,69,0
1,note_on,94,0,120
1,note_on,102,0,0
1,note_on,90,75,120
1,note_on,90,0,60
1,note_on,89,82,120
1,note_on,89,0,60
1,note_on,99,82,0
1,note_on,90,69,0
1,note_on,90,0,120
1,note_on,99,0,0
1,note_on,90,75,120
1,note_on,90,0,60
1,note_on,86,82,120
1,note_on,86,0,60
1,note_on,96,90,0
1,note_on,87,69,0
1,note_on,87,0,120
1,note_on,96,0,0
1,note_on,84,75,120
1,note_on,84,0,60
1,note_on,83,82,120
1,note_on,83,0,60
1,note_on,92,82,0
1,note_on,84,69,0
1,note_on,84,0,120
1,note_on,92,0,0
1,note_on,80,75,120
1,note_on,80,0,60
1,note_on,73,59,180
1,note_on,85,70,0
1,note_on,77,59,0
1,note_on,77,0,240
1,note_on,85,0,0
1,note_on,73,0,0
1,note_on,86,72,0
1,note_on,74,61,0
1,note_on,78,61,0
1,note_on,78,0,240
1,note_on,74,0,0
1,note_on,86,0,0
1,note_on,79,62,0
1,note_on,87,74,0
1,note_on,75,62,0
1,note_on,75,0,240
1,note_on,87,0,0
1,note_on,79,0,0
1,note_on,88,78,0
1,note_on,76,66,0
1,note_on,80,66,0
1,note_on,80,0,240
1,note_on,76,0,0
1,note_on,88,0,0
1,note_on,77,67,0
1,note_on,89,79,0
1,note_on,81,79,0
1,note_on,81,0,240
1,note_on,89,0,0
1,note_on,77,0,0
1,note_on,76,64,0
1,note_on,88,77,0
1,note_on,80,64,0
1,note_on,80,0,240
1,note_on,88,0,0
1,note_on,76,0,0
1,note_on,79,61,0
1,note_on,75,61,0
1,note_on,87,73,0
1,note_on,87,0,240
1,note_on,75,0,0
1,note_on,79,0,0
1,note_on,74,59,0
1,note_on,78,59,0
1,note_on,86,70,0
1,note_on,86,0,240
1,note_on,78,0,0
1,note_on,74,0,0
1,note_on,79,59,0
1,note_on,87,70,0
1,note_on,75,59,0
1,note_on,75,0,240
1,note_on,87,0,0
1,note_on,79,0,0
1,note_on,88,72,0
1,note_on,76,61,0
1,note_on,80,61,0
1,note_on,80,0,240
1,note_on,76,0,0
1,note_on,88,0,0
1,note_on,81,62,0
1,note_on,77,62,0
1,note_on,89,74,0
1,note_on,89,0,240
1,note_on,77,0,0
1,note_on,81,0,0
1,note_on,78,66,0
1,note_on,82,66,0
1,note_on,90,78,0
1,note_on,90,0,240
1,note_on,82,0,0
1,note_on,78,0,0
1,note_on,79,67,0
1,note_on,91,79,0
1,note_on,83,79,0
1,note_on,83,0,240
1,note_on,91,0,0
1,note_on,79,0,0
1,note_on,82,64,0
1,note_on,78,64,0
1,note_on,90,77,0
1,note_on,90,0,240
1,note_on,78,0,0
1,note_on,82,0,0
1,note_on,77,62,0
1,note_on,89,74,0
1,note_on,81,62,0
1,note_on,81,0,240
1,note_on,89,0,0
1,note_on,77,0,0
1,note_on,76,60,0
1,note_on,88,71,0
1,note_on,80,60,0
1,note_on,80,0,240
1,note_on,88,0,0
1,note_on,76,0,0
1,note_on,81,60,0
1,note_on,89,71,0
1,note_on,77,60,0
1,note_on,77,0,240
1,note_on,89,0,0
1,note_on,81,0,0
1,note_on,78,62,0
1,note_on,90,73,0
1,note_on,82,62,0
1,note_on,82,0,240
1,note_on,90,0,0
1,note_on,78,0,0
1,note_on,79,63,0
1,note_on,91,75,0
1,note_on,83,63,0
1,note_on,83,0,240
1,note_on,91,0,0
1,note_on,79,0,0
1,note_on,80,67,0
1,note_on,84,67,0
1,note_on,92,79,0
1,note_on,92,0,240
1,note_on,84,0,0
1,note_on,80,0,0
1,note_on,93,80,0
1,note_on,81,68,0
1,note_on,85,80,0
1,note_on,85,0,240
1,note_on,81,0,0
1,note_on,93,0,0
1,note_on,92,79,0
1,note_on,84,65,0
1,note_on,80,65,0
1,note_on,80,0,240
1,note_on,84,0,0
1,note_on,92,0,0
1,note_on,91,75,0
1,note_on,83,62,0
1,note_on,79,62,0
1,note_on,79,0,240
1,note_on,83,0,0
1,note_on,91,0,0
1,note_on,82,60,0
1,note_on,90,72,0
1,note_on,78,60,0
1,note_on,78,0,240
1,note_on,90,0,0
1,note_on,82,0,0
1,note_on,83,61,0
1,note_on,91,74,0
1,note_on,79,61,0
1,note_on,79,0,240
1,note_on,91,0,0
1,note_on,83,0,0
1,note_on,84,64,0
1,note_on,92,76,0
1,note_on,80,64,0
1,note_on,80,0,240
1,note_on,92,0,0
1,note_on,84,0,0
1,note_on,93,78,0
1,note_on,81,65,0
1,note_on,85,65,0
1,note_on,85,0,240
1,note_on,81,0,0
1,note_on,93,0,0
1,note_on,86,68,0
1,note_on,82,68,0
1,note_on,94,82,0
1,note_on,94,0,240
1,note_on,82,0,0
1,note_on,86,0,0
1,note_on,87,71,0
1,note_on,83,71,0
1,note_on,95,85,0
1,note_on,95,0,240
1,note_on,83,0,0
1,note_on,87,0,0
1,note_on,84,74,0
1,note_on,96,88,0
1,note_on,88,74,0
1,note_on,88,0,240
1,note_on,96,0,0
1,note_on,84,0,0
1,note_on,89,75,0
1,note_on,97,90,0
1,note_on,85,75,0
1,note_on,85,0,240
1,note_on,97,0,0
1,note_on,89,0,0
1,note_on,98,93,0
1,note_on,86,79,0
1,note_on,90,79,0
1,note_on,90,0,240
1,note_on,86,0,0
1,note_on,98,0,0
1,note_on,99,95,0
1,note_on,87,81,0
1,note_on,91,81,0
1,note_on,91,0,240
1,note_on,87,0,0
1,note_on,99,0,0
1,note_on,100,100,0
1,note_on,92,83,0
1,note_on,88,83,0
1,note_on,88,0,240
1,note_on,92,0,0
1,note_on,100,0,0
1,note_on,89,87,0
1,note_on,101,103,0
1,note_on,93,87,0
1,note_on,93,0,240
1,note_on,101,0,0
1,note_on,89,0,0
1,note_on,100,101,0
1,note_on,92,85,0
1,note_on,88,85,0
1,note_on,88,0,240
1,note_on,92,0,0
1,note_on,100,0,0
1,note_on,91,98,0
1,note_on,87,84,0
1,note_on,99,98,0
1,note_on,99,0,240
1,note_on,87,0,0
1,note_on,91,0,0
1,note_on,90,82,0
1,note_on,86,82,0
1,note_on,98,97,0
1,note_on,98,0,240
1,note_on,86,0,0
1,note_on,90,0,0
1,note_on,85,81,0
1,note_on,97,96,0
1,note_on,89,81,0
1,note_on,89,0,240
1,note_on,97,0,0
1,note_on,85,0,0
1,note_on,84,80,0
1,note_on,88,80,0
1,note_on,96,95,0
1,note_on,96,0,240
1,note_on,88,0,0
1,note_on,84,0,0
1,note_on,83,78,0
1,note_on,95,94,0
1,note_on,87,78,0
1,note_on,87,0,240
1,note_on,95,0,0
1,note_on,83,0,0
1,note_on,94,93,0
1,note_on,82,77,0
1,note_on,86,77,0
1,note_on,86,0,240
1,note_on,82,0,0
1,note_on,94,0,0
1,note_on,93,92,0
1,note_on,81,77,0
1,note_on,85,77,0
1,note_on,85,0,240
1,note_on,81,0,0
1,note_on,93,0,0
1,note_on,86,76,0
1,note_on,94,90,0
1,note_on,82,76,0
1,note_on,82,0,240
1,note_on,94,0,0
1,note_on,86,0,0
1,note_on,95,89,0
1,note_on,83,75,0
1,note_on,87,75,0
1,note_on,87,0,240
1,note_on,83,0,0
1,note_on,95,0,0
1,note_on,84,77,0
1,note_on,88,77,0
1,note_on,96,92,0
1,note_on,96,0,240
1,note_on,88,0,0
1,note_on,84,0,0
1,note_on,97,94,0
1,note_on,85,78,0
1,note_on,89,78,0
1,note_on,89,0,240
1,note_on,85,0,0
1,note_on,97,0,0
1,note_on,98,96,0
1,note_on,90,81,0
1,note_on,86,81,0
1,note_on,86,0,240
1,note_on,90,0,0
1,note_on,98,0,0
1,note_on,87,84,0
1,note_on,91,84,0
1,note_on,99,98,0
1,note_on,99,0,240
1,note_on,91,0,0
1,note_on,87,0,0
1,note_on,100,101,0
1,note_on,92,85,0
1,note_on,88,85,0
1,note_on,88,0,240
1,note_on,92,0,0
1,note_on,100,0,0
1,note_on,89,88,0
1,note_on,93,88,0
1,note_on,101,105,0
1,note_on,101,0,240
1,note_on,93,0,0
1,note_on,89,0,0
1,note_on,100,101,0
1,note_on,88,85,0
1,note_on,92,85,0
1,note_on,92,0,240
1,note_on,88,0,0
1,note_on,100,0,0
1,note_on,99,98,0
1,note_on,87,84,0
1,note_on,91,98,0
1,note_on,91,0,240
1,note_on,87,0,0
1,note_on,99,0,0
1,note_on,86,82,0
1,note_on,90,82,0
1,note_on,98,97,0
1,note_on,98,0,240
1,note_on,90,0,0
1,note_on,86,0,0
1,note_on,97,96,0
1,note_on,89,81,0
1,note_on,85,81,0
1,note_on,85,0,240
1,note_on,89,0,0
1,note_on,97,0,0
1,note_on,90,80,0
1,note_on,84,80,0
1,note_on,96,95,0
1,note_on,96,0,240
1,note_on,84,0,0
1,note_on,90,0,0
1,note_on,89,90,0
1,note_on,97,107,0
1,note_on,85,90,0
1,note_on,85,0,240
1,note_on,97,0,0
1,note_on,89,0,0
1,note_on,84,84,0
1,note_on,96,99,0
1,note_on,90,84,0
1,note_on,90,0,240
1,note_on,96,0,0
1,note_on,84,0,0
1,note_on,85,90,0
1,note_on,89,90,0
1,note_on,97,107,0
1,note_on,97,0,240
1,note_on,89,0,0
1,note_on,85,0,0
1,note_on,96,99,0
1,note_on,90,84,0
1,note_on,84,84,0
1,note_on,84,0,240
1,note_on,90,0,0
1,note_on,96,0,0
1,note_on,85,90,0
1,note_on,97,107,0
1,note_on,89,90,0
1,note_on,89,0,240
1,note_on,97,0,0
1,note_on,85,0,0
1,note_on,72,68,0
1,note_on,84,81,0
1,note_on,85,88,240
1,note_on,73,74,0
1,note_on,84,0,20
1,note_on,72,0,0
1,note_on,84,81,220
1,note_on,72,68,0
1,note_on,85,0,20
1,note_on,73,0,0
1,note_on,85,88,220
1,note_on,73,74,0
1,note_on,84,0,20
1,note_on,72,0,0
1,note_on,85,0,100
1,note_on,73,0,0
1,note_on,73,74,120
1,note_on,61,62,0
1,note_on,74,80,240
1,note_on,62,68,0
1,note_on,61,0,20
1,note_on,73,0,0
1,note_on,75,72,220
1,note_on,63,61,0
1,note_on,74,0,20
1,note_on,62,0,0
1,note_on,75,0,220
1,note_on,63,0,0
1,note_on,76,97,0
1,note_on,64,80,0
1,note_on,71,79,240
1,note_on,68,67,0
1,note_on,68,0,120
1,note_on,71,0,0
1,note_on,64,0,120
1,note_on,76,0,0
1,note_on,68,74,0
1,note_on,80,88,0
1,note_on,71,67,240
1,note_on,76,79,0
1,note_on,76,0,120
1,note_on,71,0,0
1,note_on,80,0,120
1,note_on,68,0,0
1,note_on,85,105,0
1,note_on,73,89,0
1,note_on,80,79,240
1,note_on,76,67,0
1,note_on,76,0,120
1,note_on,80,0,0
1,note_on,80,79,120
1,note_on,76,67,0
1,note_on,76,0,120
1,note_on,80,0,0
1,note_on,73,0,120
1,note_on,85,0,0
1,note_on,71,80,0
1,note_on,83,96,0
1,note_on,83,0,120
1,note_on,71,0,0
1,note_on,76,85,120
1,note_on,73,85,0
1,note_on,81,100,0
1,note_on,69,85,0
1,note_on,69,0,120
1,note_on,76,0,0
1,note_on,73,0,0
1,note_on,81,0,0
1,note_on,80,92,120
1,note_on,68,77,0
1,note_on,68,0,120
1,note_on,80,0,0
1,note_on,67,77,120
1,note_on,79,92,0
1,note_on,79,0,120
1,note_on,67,0,0
1,note_on,66,72,60
1,note_on,69,74,20
1,note_on,73,76,20
1,note_on,78,93,20
1,note_on,69,0,100
1,note_on,66,0,20
1,note_on,73,0,0
1,note_on,78,0,0
1,note_on,77,92,120
1,note_on,65,77,0
1,note_on,65,0,120
1,note_on,77,0,0
1,note_on,64,60,60
1,note_on,69,64,20
1,note_on,73,67,20
1,note_on,76,80,20
1,note_on,76,0,120
1,note_on,64,0,0
1,note_on,69,0,0
1,note_on,73,0,0
1,note_on,63,75,120
1,note_on,75,90,0
1,note_on,75,0,120
1,note_on,63,0,0
1,note_on,64,65,60
1,note_on,69,65,20
1,note_on,73,65,20
1,note_on,76,77,20
1,note_on,76,0,120
1,note_on,64,0,0
1,note_on,69,0,0
1,note_on,73,0,0
1,note_on,64,80,120
1,note_on,76,97,0
1,note_on,71,79,240
1,note_on,68,67,0
1,note_on,68,0,120
1,note_on,71,0,0
1,note_on,76,0,120
1,note_on,64,0,0
1,note_on,68,74,0
1,note_on,80,88,0
1,note_on,76,79,240
1,note_on,71,67,0
1,note_on,71,0,120
1,note_on,76,0,0
1,note_on,80,0,120
1,note_on,68,0,0
1,note_on,73,89,0
1,note_on,85,105,0
1,note_on,76,67,240
1,note_on,80,79,0
1,note_on,80,0,120
1,note_on,76,0,0
1,note_on,76,67,120
1,note_on,80,79,0
1,note_on,80,0,120
1,note_on,76,0,0
1,note_on,85,0,120
1,note_on,73,0,0
1,note_on,83,96,0
1,note_on,71,80,0
1,note_on,71,0,120
1,note_on,83,0,0
1,note_on,81,95,120
1,note_on,69,79,0
1,note_on,76,79,0
1,note_on,73,79,0
1,note_on,73,0,120
1,note_on,81,0,0
1,note_on,69,0,0
1,note_on,76,0,0
1,note_on,80,92,120
1,note_on,68,77,0
1,note_on,68,0,120
1,note_on,80,0,0
1,note_on,78,92,120
1,note_on,66,77,0
1,note_on,66,0,120
1,note_on,78,0,0
1,note_on,69,63,120
1,note_on,73,64,0
1,note_on,64,60,0
1,note_on,76,77,0
1,note_on,76,0,120
1,note_on,64,0,0
1,note_on,73,0,0
1,note_on,69,0,10
1,note_on,73,77,110
1,note_on,76,77,0
1,note_on,69,77,0
1,note_on,81,93,0
1,note_on,81,0,480
1,note_on,73,0,0
1,note_on,76,0,0
1,note_on,69,0,0
1,note_on,85,84,0
1,note_on,73,71,0
1,note_on,81,71,0
1,note_on,76,71,0
1,note_on,76,0,480
1,note_on,85,0,0
1,note_on,73,0,0
1,note_on,81,0,0
1,note_on,86,57,0
1,note_on,92,57,0
1,note_on,92,0,120
1,note_on,86,0,0
1,note_on,100,58,0
1,note_on,100,0,120
1,note_on,88,59,0
1,note_on,95,59,0
1,note_on,95,0,120
1,note_on,88,0,0
1,note_on,100,61,0
1,note_on,100,0,120
1,note_on,92,63,0
1,note_on,86,63,0
1,note_on,86,0,120
1,note_on,92,0,0
1,note_on,100,64,0
1,note_on,100,0,120
1,note_on,88,66,0
1,note_on,95,66,0
1,note_on,95,0,120
1,note_on,88,0,0
1,note_on,100,67,0
1,note_on,100,0,120
1,note_on,86,69,0
1,note_on,92,69,0
1,note_on,92,0,120
1,note_on,86,0,0
1,note_on,100,70,0
1,note_on,100,0,120
1,note_on,95,72,0
1,note_on,88,72,0
1,note_on,88,0,120
1,note_on,95,0,0
1,note_on,100,72,0
1,note_on,100,0,120
1,note_on,92,71,0
1,note_on,86,71,0
1,note_on,86,0,120
1,note_on,92,0,0
1,note_on,100,70,0
1,note_on,100,0,120
1,note_on,95,70,0
1,note_on,88,70,0
1,note_on,88,0,120
1,note_on,95,0,0
1,note_on,100,69,0
1,note_on,100,0,120
1,note_on,85,74,0
1,note_on,93,74,0
1,note_on,93,0,120
1,note_on,85,0,0
1,note_on,100,67,0
1,note_on,100,0,120
1,note_on,88,70,0
1,note_on,97,70,0
1,note_on,97,0,120
1,note_on,88,0,0
1,note_on,100,66,0
1,note_on,100,0,120
1,note_on,85,71,0
1,note_on,93,71,0
1,note_on,93,0,120
1,note_on,85,0,0
1,note_on,100,65,0
1,note_on,100,0,120
1,note_on,97,71,0
1,note_on,88,71,0
1,note_on,88,0,120
1,note_on,97,0,0
1,note_on,100,64,0
1,note_on,100,0,120
1,note_on,85,72,0
1,note_on,93,72,0
1,note_on,93,0,120
1,note_on,85,0,0
1,note_on,100,63,0
1,note_on,100,0,120
1,note_on,97,66,0
1,note_on,88,66,0
1,note_on,88,0,120
1,note_on,97,0,0
1,note_on,100,60,0
1,note_on,100,0,120
1,note_on,93,64,0
1,note_on,85,64,0
1,note_on,85,0,120
1,note_on,93,0,0
1,note_on,100,59,0
1,note_on,100,0,120
1,note_on,97,64,0
1,note_on,88,64,0
1,note_on,88,0,120
1,note_on,97,0,0
1,note_on,100,58,0
1,note_on,100,0,120
1,note_on,86,63,0
1,note_on,92,63,0
1,note_on,92,0,120
1,note_on,86,0,0
1,note_on,100,63,0
1,note_on,100,0,120
1,note_on,95,64,0
1,note_on,88,64,0
1,note_on,88,0,120
1,note_on,95,0,0
1,note_on,100,65,0
1,note_on,100,0,120
1,note_on,86,65,0
1,note_on,92,65,0
1,note_on,92,0,120
1,note_on,86,0,0
1,note_on,100,66,0
1,note_on,100,0,120
1,note_on,95,67,0
1,note_on,88,67,0
1,note_on,88,0,120
1,note_on,95,0,0
1,note_on,100,69,0
1,note_on,100,0,120
1,note_on,86,69,0
1,note_on,92,69,0
1,note_on,92,0,120
1,note_on,86,0,0
1,note_on,100,70,0
1,note_on,100,0,120
1,note_on,88,72,0
1,note_on,95,72,0
1,note_on,95,0,120
1,note_on,88,0,0
1,note_on,100,72,0
1,note_on,100,0,120
1,note_on,92,71,0
1,note_on,86,71,0
1,note_on,86,0,120
1,note_on,92,0,0
1,note_on,100,70,0
1,note_on,100,0,120
1,note_on,95,70,0
1,note_on,88,70,0
1,note_on,88,0,120
1,note_on,95,0,0
1,note_on,100,69,0
1,note_on,100,0,120
1,note_on,85,74,0
1,note_on,93,74,0
1,note_on,93,0,120
1,note_on,85,0,0
1,note_on,100,67,0
1,note_on,100,0,120
1,note_on,97,70,0
1,note_on,88,70,0
1,note_on,88,0,120
1,note_on,97,0,0
1,note_on,100,66,0
1,note_on,100,0,120
1,note_on,85,71,0
1,note_on,93,71,0
1,note_on,93,0,120
1,note_on,85,0,0
1,note_on,100,65,0
1,note_on,100,0,120
1,note_on,97,71,0
1,note_on,88,71,0
1,note_on,88,0,120
1,note_on,97,0,0
1,note_on,100,64,0
1,note_on,100,0,120
1,note_on,93,72,0
1,note_on,85,72,0
1,note_on,85,0,120
1,note_on,93,0,0
1,note_on,100,61,0
1,note_on,100,0,120
1,note_on,88,64,0
1,note_on,97,64,0
1,note_on,97,0,120
1,note_on,88,0,0
1,note_on,100,58,0
1,note_on,100,0,120
1,note_on,85,60,0
1,note_on,93,60,0
1,note_on,93,0,120
1,note_on,85,0,0
1,note_on,100,54,0
1,note_on,100,0,120
1,note_on,97,59,0
1,note_on,88,59,0
1,note_on,88,0,120
1,note_on,97,0,0
1,note_on,100,52,0
1,note_on,100,0,120
1,note_on,98,71,0
1,note_on,90,71,0
1,note_on,90,0,60
1,note_on,98,0,0
1,note_on,100,75,0
1,note_on,100,0,60
1,note_on,102,79,0
1,note_on,102,0,40
1,note_on,95,71,320
1,note_on,86,71,0
1,note_on,86,0,60
1,note_on,95,0,0
1,note_on,97,75,0
1,note_on,97,0,60
1,note_on,98,80,0
1,note_on,98,0,40
1,note_on,83,71,320
1,note_on,92,71,0
1,note_on,92,0,60
1,note_on,83,0,0
1,note_on,93,75,0
1,note_on,93,0,60
1,note_on,95,80,0
1,note_on,95,0,40
1,note_on,88,71,320
1,note_on,80,71,0
1,note_on,80,0,60
1,note_on,88,0,0
1,note_on,90,75,0
1,note_on,90,0,60
1,note_on,92,80,0
1,note_on,92,0,40
1,note_on,69,66,320
1,note_on,69,0,69
1,note_on,71,67,0
1,note_on,71,0,68
1,note_on,73,68,0
1,note_on,74,69,68
1,note_on,73,0,1
1,note_on,74,0,68
1,note_on,76,70,0
1,note_on,76,0,68
1,note_on,78,71,0
1,note_on,78,0,69
1,note_on,80,72,0
1,note_on,80,0,68
1,note_on,81,73,0
1,note_on,83,74,68
1,note_on,81,0,1
1,note_on,83,0,68
1,note_on,85,75,0
1,note_on,85,0,68
1,note_on,86,76,0
1,note_on,86,0,69
1,note_on,88,77,0
1,note_on,88,0,68
1,note_on,90,78,0
1,note_on,92,79,68
1,note_on,90,0,1
1,note_on,92,0,70
1,note_on,93,80,0
1,note_on,93,0,69
1,note_on,95,81,0
1,note_on,95,0,68
1,note_on,97,82,0
1,note_on,98,84,68
1,note_on,97,0,1
1,note_on,98,0,67
1,note_on,100,85,1
1,note_on,100,0,68
1,note_on,102,86,0
1,note_on,102,0,69
1,note_on,104,87,0
1,note_on,104,0,68
1,note_on,105,88,1
1,note_on,105,0,120
1,note_on,93,71,120
1,note_on,97,71,0
1,note_on,97,0,120
1,note_on,93,0,0
1,note_on,90,71,120
1,note_on,98,71,0
1,note_on,98,0,60
1,note_on,90,0,0
1,note_on,100,75,0
1,note_on,100,0,60
1,note_on,102,79,0
1,note_on,102,0,40
1,note_on,95,71,320
1,note_on,86,71,0
1,note_on,86,0,60
1,note_on,95,0,0
1,note_on,97,75,0
1,note_on,97,0,60
1,note_on,98,80,0
1,note_on,98,0,40
1,note_on,92,71,320
1,note_on,83,71,0
1,note_on,83,0,60
1,note_on,92,0,0
1,note_on,93,75,0
1,note_on,93,0,60
1,note_on,95,80,0
1,note_on,95,0,40
1,note_on,88,71,320
1,note_on,80,71,0
1,note_on,80,0,60
1,note_on,88,0,0
1,note_on,90,75,0
1,note_on,90,0,60
1,note_on,92,80,0
1,note_on,92,0,40
1,note_on,69,66,320
1,note_on,69,0,69
1,note_on,71,67,0
1,note_on,71,0,68
1,note_on,73,68,0
1,note_on,74,69,68
1,note_on,73,0,1
1,note_on,74,0,68
1,note_on,76,70,0
1,note_on,76,0,68
1,note_on,78,71,0
1,note_on,78,0,69
1,note_on,80,72,0
1,note_on,80,0,68
1,note_on,81,73,0
1,note_on,83,74,68
1,note_on,81,0,1
1,note_on,83,0,68
1,note_on,85,75,0
1,note_on,85,0,68
1,note_on,86,76,0
1,note_on,86,0,69
1,note_on,88,77,0
1,note_on,88,0,68
1,note_on,90,78,0
1,note_on,92,79,68
1,note_on,90,0,1
1,note_on,92,0,70
1,note_on,93,80,0
1,note_on,93,0,69
1,note_on,95,81,0
1,note_on,95,0,68
1,note_on,97,82,0
1,note_on,98,84,68
1,note_on,97,0,1
1,note_on,98,0,67
1,note_on,100,85,1
1,note_on,100,0,68
1,note_on,102,86,0
1,note_on,102,0,69
1,note_on,104,87,0
1,note_on,104,0,68
1,note_on,105,88,1
1,note_on,105,0,120
1,note_on,87,71,360
1,note_on,95,71,0
1,note_on,95,0,60
1,note_on,87,0,0
1,note_on,97,75,0
1,note_on,97,0,60
1,note_on,99,79,0
1,note_on,99,0,40
1,note_on,83,71,320
1,note_on,92,71,0
1,note_on,92,0,60
1,note_on,83,0,0
1,note_on,94,75,0
1,note_on,94,0,60
1,note_on,95,80,0
1,note_on,95,0,40
1,note_on,80,71,320
1,note_on,89,71,0
1,note_on,89,0,60
1,note_on,80,0,0
1,note_on,90,75,0
1,note_on,90,0,60
1,note_on,92,80,0
1,note_on,92,0,40
1,note_on,85,71,320
1,note_on,77,71,0
1,note_on,77,0,60
1,note_on,85,0,0
1,note_on,87,75,0
1,note_on,87,0,60
1,note_on,89,80,0
1,note_on,89,0,40
1,note_on,66,66,320
1,note_on,66,0,69
1,note_on,68,67,0
1,note_on,68,0,68
1,note_on,70,68,0
1,note_on,71,69,68
1,note_on,70,0,1
1,note_on,71,0,68
1,note_on,73,70,0
1,note_on,73,0,68
1,note_on,75,71,0
1,note_on,75,0,69
1,note_on,77,72,0
1,note_on,77,0,68
1,note_on,78,73,0
1,note_on,80,74,68
1,note_on,78,0,1
1,note_on,80,0,68
1,note_on,82,75,0
1,note_on,82,0,68
1,note_on,83,76,0
1,note_on,83,0,69
1,note_on,85,77,0
1,note_on,85,0,68
1,note_on,87,78,0
1,note_on,89,79,68
1,note_on,87,0,1
1,note_on,89,0,70
1,note_on,90,80,0
1,note_on,90,0,69
1,note_on,92,81,0
1,note_on,92,0,68
1,note_on,94,82,0
1,note_on,95,84,68
1,note_on,94,0,1
1,note_on,95,0,67
1,note_on,97,85,1
1,note_on,97,0,68
1,note_on,99,86,0
1,note_on,99,0,69
1,note_on,101,87,0
1,note_on,101,0,68
1,note_on,102,88,1
1,note_on,102,0,120
1,note_on,90,71,120
1,note_on,94,71,0
1,note_on,94,0,120
1,note_on,90,0,0
1,note_on,95,71,120
1,note_on,87,71,0
1,note_on,87,0,60
1,note_on,95,0,0
1,note_on,97,75,0
1,note_on,97,0,60
1,note_on,99,79,0
1,note_on,99,0,40
1,note_on,83,71,320
1,note_on,92,71,0
1,note_on,92,0,60
1,note_on,83,0,0
1,note_on,94,75,0
1,note_on,94,0,60
1,note_on,95,80,0
1,note_on,95,0,40
1,note_on,89,71,320
1,note_on,80,71,0
1,note_on,80,0,60
1,note_on,89,0,0
1,note_on,90,75,0
1,note_on,90,0,60
1,note_on,92,80,0
1,note_on,92,0,40
1,note_on,85,71,320
1,note_on,77,71,0
1,note_on,77,0,60
1,note_on,85,0,0
1,note_on,87,75,0
1,note_on,87,0,60
1,note_on,89,80,0
1,note_on,89,0,40
1,note_on,66,66,320
1,note_on,66,0,69
1,note_on,68,67,0
1,note_on,68,0,68
1,note_on,70,68,0
1,note_on,71,69,68
1,note_on,70,0,1
1,note_on,71,0,68
1,note_on,73,70,0
1,note_on,73,0,68
1,note_on,75,71,0
1,note_on,75,0,69
1,note_on,77,72,0
1,note_on,77,0,68
1,note_on,78,73,0
1,note_on,80,74,68
1,note_on,78,0,1
1,note_on,80,0,68
1,note_on,82,75,0
1,note_on,82,0,68
1,note_on,83,76,0
1,note_on,83,0,69
1,note_on,85,77,0
1,note_on,85,0,68
1,note_on,87,78,0
1,note_on,89,79,68
1,note_on,87,0,1
1,note_on,89,0,70
1,note_on,90,80,0
1,note_on,90,0,96
1,note_on,92,81,0
1,note_on,92,0,96
1,note_on,94,82,0
1,note_on,94,0,96
1,note_on,95,84,0
1,note_on,95,0,96
1,note_on,97,85,0
1,note_on,97,0,96
1,note_on,99,88,0
1,note_on,99,0,96
1,note_on,97,86,0
1,note_on,97,0,96
1,note_on,96,80,0
1,note_on,96,0,96
1,note_on,97,86,0
1,note_on,97,0,96
1,note_on,99,88,0
1,note_on,99,0,96
1,note_on,101,89,0
1,note_on,101,0,120
1,note_on,97,67,0
1,note_on,97,0,90
1,note_on,97,83,30
1,note_on,97,0,113
1,note_on,97,64,7
1,note_on,97,0,90
1,note_on,89,82,30
1,note_on,89,0,120
1,note_on,97,66,0
1,note_on,97,0,90
1,note_on,97,76,30
1,note_on,97,0,113
1,note_on,97,60,7
1,note_on,97,0,90
1,note_on,101,80,30
1,note_on,101,0,120
1,note_on,97,61,0
1,note_on,97,0,90
1,note_on,97,78,30
1,note_on,97,0,113
1,note_on,97,60,7
1,note_on,97,0,90
1,note_on,89,77,30
1,note_on,89,0,120
1,note_on,97,63,0
1,note_on,97,0,90
1,note_on,97,77,30
1,note_on,97,0,113
1,note_on,97,63,7
1,note_on,97,0,90
1,note_on,102,85,30
1,note_on,102,0,120
1,note_on,97,64,0
1,note_on,97,0,90
1,note_on,97,83,30
1,note_on,97,0,113
1,note_on,97,64,7
1,note_on,97,0,90
1,note_on,90,82,30
1,note_on,90,0,120
1,note_on,97,66,0
1,note_on,97,0,90
1,note_on,97,76,30
1,note_on,97,0,113
1,note_on,97,60,7
1,note_on,97,0,90
1,note_on,102,80,30
1,note_on,102,0,120
1,note_on,97,61,0
1,note_on,97,0,90
1,note_on,97,78,30
1,note_on,97,0,113
1,note_on,97,60,7
1,note_on,97,0,90
1,note_on,90,77,30
1,note_on,90,0,120
1,note_on,97,63,0
1,note_on,97,0,90
1,note_on,97,77,30
1,note_on,97,0,113
1,note_on,97,63,7
1,note_on,97,0,90
1,note_on,101,87,30
1,note_on,101,0,120
1,note_on,97,67,0
1,note_on,97,0,90
1,note_on,97,83,30
1,note_on,97,0,113
1,note_on,97,64,7
1,note_on,97,0,90
1,note_on,89,82,30
1,note_on,89,0,120
1,note_on,97,66,0
1,note_on,97,0,90
1,note_on,97,76,30
1,note_on,97,0,113
1,note_on,97,60,7
1,note_on,97,0,90
1,note_on,101,80,30
1,note_on,101,0,120
1,note_on,97,61,0
1,note_on,97,0,90
1,note_on,97,78,30
1,note_on,97,0,113
1,note_on,97,60,7
1,note_on,97,0,90
1,note_on,89,77,30
1,note_on,89,0,120
1,note_on,97,63,0
1,note_on,97,0,90
1,note_on,97,77,30
1,note_on,97,0,113
1,note_on,97,63,7
1,note_on,97,0,90
1,note_on,102,87,30
1,note_on,102,0,120
1,note_on,97,67,0
1,note_on,97,0,90
1,note_on,97,83,30
1,note_on,97,0,113
1,note_on,97,64,7
1,note_on,97,0,90
1,note_on,90,82,30
1,note_on,90,0,120
1,note_on,97,66,0
1,note_on,97,0,90
1,note_on,97,76,30
1,note_on,97,0,113
1,note_on,97,60,7
1,note_on,97,0,90
1,note_on,102,80,30
1,note_on,102,0,120
1,note_on,97,61,0
1,note_on,97,0,90
1,note_on,97,78,30
1,note_on,97,0,113
1,note_on,97,60,7
1,note_on,97,0,90
1,note_on,90,77,30
1,note_on,90,0,120
1,note_on,97,63,0
1,note_on,97,0,90
1,note_on,97,77,30
1,note_on,97,0,113
1,note_on,97,63,7
1,note_on,97,0,90
1,note_on,101,89,30
1,note_on,101,0,120
1,note_on,97,67,0
1,note_on,97,0,90
1,note_on,97,83,30
1,note_on,97,0,113
1,note_on,97,64,7
1,note_on,97,0,90
1,note_on,89,82,30
1,note_on,89,0,120
1,note_on,97,66,0
1,note_on,97,0,90
1,note_on,97,76,30
1,note_on,97,0,113
1,note_on,97,60,7
1,note_on,97,0,90
1,note_on,101,80,30
1,note_on,101,0,120
1,note_on,97,61,0
1,note_on,97,0,90
1,note_on,97,78,30
1,note_on,97,0,113
1,note_on,97,60,7
1,note_on,97,0,90
1,note_on,89,77,30
1,note_on,89,0,120
1,note_on,97,63,0
1,note_on,97,0,90
1,note_on,97,77,30
1,note_on,97,0,113
1,note_on,97,63,7
1,note_on,97,0,90
1,note_on,101,76,30
1,note_on,101,0,120
1,note_on,97,57,0
1,note_on,97,0,90
1,note_on,97,74,30
1,note_on,97,0,113
1,note_on,97,57,7
1,note_on,97,0,90
1,note_on,89,73,30
1,note_on,89,0,120
1,note_on,97,59,0
1,note_on,97,0,90
1,note_on,97,68,30
1,note_on,97,0,113
1,note_on,97,54,7
1,note_on,97,0,90
1,note_on,101,72,30
1,note_on,101,0,120
1,note_on,97,54,0
1,note_on,97,0,90
1,note_on,97,70,30
1,note_on,97,0,113
1,note_on,97,54,7
1,note_on,97,0,90
1,note_on,89,69,30
1,note_on,89,0,120
1,note_on,97,56,0
1,note_on,97,0,90
1,note_on,97,69,30
1,note_on,97,0,113
1,note_on,97,56,7
1,note_on,97,0,90
1,note_on,101,78,30
1,note_on,101,0,120
1,note_on,97,60,0
1,note_on,97,0,90
1,note_on,97,73,30
1,note_on,97,0,113
1,note_on,97,56,7
1,note_on,97,0,90
1,note_on,89,71,30
1,note_on,89,0,120
1,note_on,97,56,0
1,note_on,97,0,90
1,note_on,97,65,30
1,note_on,97,0,113
1,note_on,97,51,7
1,note_on,97,0,90
1,note_on,101,67,30
1,note_on,101,0,120
1,note_on,97,50,0
1,note_on,97,0,90
1,note_on,97,63,30
1,note_on,97,0,113
1,note_on,97,49,7
1,note_on,97,0,90
1,note_on,89,62,30
1,note_on,89,0,120
1,note_on,97,50,0
1,note_on,97,0,90
1,note_on,97,60,30
1,note_on,97,0,113
1,note_on,97,49,7
1,note_on,97,0,90
1,note_on,101,67,30
1,note_on,101,0,120
1,note_on,97,51,0
1,note_on,97,0,90
1,note_on,97,63,30
1,note_on,97,0,113
1,note_on,97,48,7
1,note_on,97,0,90
1,note_on,89,60,30
1,note_on,89,0,120
1,note_on,97,48,0
1,note_on,97,0,90
1,note_on,97,55,30
1,note_on,97,0,113
1,note_on,97,43,7
1,note_on,97,0,90
1,note_on,101,56,30
1,note_on,101,0,120
1,note_on,97,42,0
1,note_on,97,0,90
1,note_on,97,53,30
1,note_on,97,0,113
1,note_on,97,41,7
1,note_on,97,0,90
1,note_on,89,52,30
1,note_on,89,0,120
1,note_on,97,42,0
1,note_on,97,0,90
1,note_on,97,50,30
1,note_on,97,0,113
1,note_on,97,40,7
1,note_on,97,0,90
1,note_on,102,82,30
1,note_on,102,0,120
1,note_on,78,58,360
1,note_on,78,0,240
1,note_on,81,67,240
1,note_on,81,0,960
1,note_on,80,65,0
1,note_on,80,0,120
1,note_on,81,59,240
1,note_on,81,0,120
1,note_on,83,65,0
1,note_on,83,0,120
1,note_on,86,70,240
1,note_on,86,0,120
1,note_on,85,65,0
1,note_on,85,0,120
1,note_on,73,59,240
1,note_on,73,0,120
1,note_on,75,65,0
1,note_on,75,0,120
1,note_on,77,60,240
1,note_on,77,0,60
1,note_on,78,49,0
1,note_on,78,0,30
1,note_on,80,50,0
1,note_on,80,0,30
1,note_on,78,65,0
1,note_on,78,0,120
1,note_on,77,59,240
1,note_on,77,0,120
1,note_on,78,65,0
1,note_on,78,0,120
1,note_on,80,70,240
1,note_on,80,0,120
1,note_on,81,65,0
1,note_on,81,0,960
1,note_on,80,65,0
1,note_on,80,0,120
1,note_on,81,59,240
1,note_on,81,0,120
1,note_on,83,65,0
1,note_on,83,0,120
1,note_on,86,70,240
1,note_on,86,0,120
1,note_on,85,65,0
1,note_on,85,0,120
1,note_on,73,59,240
1,note_on,73,0,120
1,note_on,75,65,0
1,note_on,75,0,120
1,note_on,77,60,240
1,note_on,77,0,60
1,note_on,78,49,0
1,note_on,78,0,30
1,note_on,80,50,0
1,note_on,80,0,30
1,note_on,78,65,0
1,note_on,78,0,120
1,note_on,77,59,240
1,note_on,77,0,120
1,note_on,78,65,0
1,note_on,78,0,120
1,note_on,80,70,240
1,note_on,80,0,60
1,note_on,78,60,0
1,note_on,78,0,30
1,note_on,80,60,0
1,note_on,80,0,30
1,note_on,81,65,0
1,note_on,81,0,240
1,note_on,81,65,240
1,note_on,81,0,480
1,note_on,80,59,0
1,note_on,80,0,120
1,note_on,81,47,240
1,note_on,81,0,120
1,note_on,83,53,0
1,note_on,83,0,120
1,note_on,86,57,240
1,note_on,86,0,120
1,note_on,85,51,0
1,note_on,85,0,960
1,note_on,61,48,120
1,note_on,49,48,0
1,note_on,49,0,90
1,note_on,61,0,0
1,note_on,51,49,150
1,note_on,63,49,0
1,note_on,63,0,90
1,note_on,51,0,0
1,note_on,53,51,150
1,note_on,65,51,0
1,note_on,65,0,90
1,note_on,53,0,0
1,note_on,54,52,150
1,note_on,66,52,0
1,note_on,66,0,90
1,note_on,54,0,0
1,note_on,61,54,150
1,note_on,68,54,0
1,note_on,56,54,0
1,note_on,56,0,90
1,note_on,68,0,0
1,note_on,61,0,0
1,note_on,55,53,150
1,note_on,67,53,0
1,note_on,67,0,90
1,note_on,55,0,0
1,note_on,56,51,150
1,note_on,68,51,0
1,note_on,68,0,90
1,note_on,56,0,0
1,note_on,65,49,150
1,note_on,53,49,0
1,note_on,53,0,90
1,note_on,65,0,0
1,note_on,54,48,150
1,note_on,66,48,0
1,note_on,66,0,90
1,note_on,54,0,0
1,note_on,68,49,150
1,note_on,56,49,0
1,note_on,56,0,90
1,note_on,68,0,0
1,note_on,70,51,150
1,note_on,58,51,0
1,note_on,58,0,90
1,note_on,70,0,0
1,note_on,59,52,150
1,note_on,71,52,0
1,note_on,71,0,90
1,note_on,59,0,0
1,note_on,73,54,150
1,note_on,66,54,0
1,note_on,61,54,0
1,note_on,61,0,90
1,note_on,66,0,0
1,note_on,73,0,0
1,note_on,72,53,150
1,note_on,60,53,0
1,note_on,60,0,90
1,note_on,72,0,0
1,note_on,61,51,150
1,note_on,73,51,0
1,note_on,73,0,90
1,note_on,61,0,0
1,note_on,58,49,150
1,note_on,70,49,0
1,note_on,70,0,90
1,note_on,58,0,0
1,note_on,71,59,150
1,note_on,59,59,0
1,note_on,59,0,90
1,note_on,71,0,0
1,note_on,63,51,150
1,note_on,75,51,0
1,note_on,75,0,90
1,note_on,63,0,0
1,note_on,56,60,150
1,note_on,68,60,0
1,note_on,68,0,90
1,note_on,56,0,0
1,note_on,71,55,150
1,note_on,59,55,0
1,note_on,59,0,90
1,note_on,71,0,0
1,note_on,53,60,150
1,note_on,65,60,0
1,note_on,65,0,90
1,note_on,53,0,0
1,note_on,56,52,150
1,note_on,68,52,0
1,note_on,68,0,90
1,note_on,56,0,0
1,note_on,49,62,150
1,note_on,61,62,0
1,note_on,61,0,90
1,note_on,49,0,0
1,note_on,53,56,150
1,note_on,65,56,0
1,note_on,65,0,90
1,note_on,53,0,0
1,note_on,66,62,150
1,note_on,54,62,0
1,note_on,54,0,90
1,note_on,66,0,0
1,note_on,58,53,150
1,note_on,70,53,0
1,note_on,70,0,90
1,note_on,58,0,0
1,note_on,61,63,150
1,note_on,49,63,0
1,note_on,49,0,90
1,note_on,61,0,0
1,note_on,66,58,150
1,note_on,54,58,0
1,note_on,54,0,90
1,note_on,66,0,0
1,note_on,58,63,150
1,note_on,46,63,0
1,note_on,46,0,90
1,note_on,58,0,0
1,note_on,61,55,150
1,note_on,49,55,0
1,note_on,49,0,90
1,note_on,61,0,0
1,note_on,66,64,150
1,note_on,54,64,0
1,note_on,54,0,90
1,note_on,66,0,0
1,note_on,70,59,150
1,note_on,58,59,0
1,note_on,58,0,90
1,note_on,70,0,0
1,note_on,65,55,150
1,note_on,68,55,0
1,note_on,73,55,0
1,note_on,61,55,0
1,note_on,68,0,120
1,note_on,65,0,0
1,note_on,73,0,1
1,note_on,61,0,0
1,note_on,75,56,119
1,note_on,63,56,0
1,note_on,63,0,121
1,note_on,75,0,0
1,note_on,77,59,119
1,note_on,65,59,0
1,note_on,65,0,121
1,note_on,77,0,0
1,note_on,78,61,119
1,note_on,66,61,0
1,note_on,66,0,121
1,note_on,78,0,0
1,note_on,73,64,119
1,note_on,80,64,0
1,note_on,68,64,0
1,note_on,68,0,121
1,note_on,80,0,0
1,note_on,73,0,0
1,note_on,79,63,119
1,note_on,67,63,0
1,note_on,67,0,120
1,note_on,79,0,0
1,note_on,80,61,120
1,note_on,73,61,0
1,note_on,68,61,0
1,note_on,73,0,120
1,note_on,68,0,1
1,note_on,80,0,0
1,note_on,65,59,119
1,note_on,77,59,0
1,note_on,77,0,121
1,note_on,65,0,0
1,note_on,73,58,119
1,note_on,70,58,0
1,note_on,66,58,0
1,note_on,78,58,0
1,note_on,70,0,120
1,note_on,73,0,0
1,note_on,66,0,1
1,note_on,78,0,0
1,note_on,68,60,119
1,note_on,80,60,0
1,note_on,80,0,121
1,note_on,68,0,0
1,note_on,82,63,119
1,note_on,70,63,0
1,note_on,70,0,121
1,note_on,82,0,0
1,note_on,71,65,119
1,note_on,83,65,0
1,note_on,83,0,121
1,note_on,71,0,0
1,note_on,73,68,119
1,note_on,78,68,0
1,note_on,85,68,0
1,note_on,85,0,121
1,note_on,78,0,0
1,note_on,73,0,0
1,note_on,84,67,119
1,note_on,72,67,0
1,note_on,72,0,121
1,note_on,84,0,0
1,note_on,73,65,119
1,note_on,78,65,0
1,note_on,85,65,0
1,note_on,78,0,120
1,note_on,85,0,1
1,note_on,73,0,0
1,note_on,70,63,119
1,note_on,82,63,0
1,note_on,82,0,121
1,note_on,70,0,0
1,note_on,80,62,119
1,note_on,77,62,0
1,note_on,85,62,0
1,note_on,73,62,0
1,note_on,77,0,120
1,note_on,80,0,0
1,note_on,85,0,1
1,note_on,73,0,0
1,note_on,87,64,119
1,note_on,75,64,0
1,note_on,75,0,121
1,note_on,87,0,0
1,note_on,77,67,119
1,note_on,89,67,0
1,note_on,89,0,121
1,note_on,77,0,0
1,note_on,78,69,119
1,note_on,90,69,0
1,note_on,90,0,121
1,note_on,78,0,0
1,note_on,92,72,119
1,note_on,80,72,0
1,note_on,85,72,0
1,note_on,85,0,121
1,note_on,80,0,0
1,note_on,92,0,0
1,note_on,79,71,119
1,note_on,91,71,0
1,note_on,91,0,120
1,note_on,79,0,0
1,note_on,85,69,120
1,note_on,92,69,0
1,note_on,80,69,0
1,note_on,85,0,120
1,note_on,80,0,1
1,note_on,92,0,0
1,note_on,77,67,119
1,note_on,89,67,0
1,note_on,89,0,121
1,note_on,77,0,0
1,note_on,82,65,119
1,note_on,90,65,0
1,note_on,85,65,0
1,note_on,78,65,0
1,note_on,85,0,120
1,note_on,82,0,0
1,note_on,90,0,1
1,note_on,78,0,0
1,note_on,92,67,119
1,note_on,80,67,0
1,note_on,80,0,121
1,note_on,92,0,0
1,note_on,82,70,119
1,note_on,94,70,0
1,note_on,94,0,121
1,note_on,82,0,0
1,note_on,83,72,119
1,note_on,95,72,0
1,note_on,95,0,121
1,note_on,83,0,0
1,note_on,97,76,119
1,note_on,90,76,0
1,note_on,85,76,0
1,note_on,85,0,121
1,note_on,90,0,0
1,note_on,97,0,0
1,note_on,84,75,119
1,note_on,96,75,0
1,note_on,96,0,121
1,note_on,84,0,0
1,note_on,85,72,119
1,note_on,90,72,0
1,note_on,97,72,0
1,note_on,90,0,120
1,note_on,97,0,1
1,note_on,85,0,0
1,note_on,94,70,119
1,note_on,82,70,0
1,note_on,82,0,121
1,note_on,94,0,0
1,note_on,83,82,119
1,note_on,95,82,0
1,note_on,95,0,121
1,note_on,83,0,0
1,note_on,87,71,119
1,note_on,99,71,0
1,note_on,99,0,121
1,note_on,87,0,0
1,note_on,80,82,119
1,note_on,92,82,0
1,note_on,92,0,121
1,note_on,80,0,0
1,note_on,83,75,119
1,note_on,95,75,0
1,note_on,95,0,121
1,note_on,83,0,0
1,note_on,77,83,119
1,note_on,89,83,0
1,note_on,89,0,120
1,note_on,77,0,0
1,note_on,92,72,120
1,note_on,80,72,0
1,note_on,80,0,121
1,note_on,92,0,0
1,note_on,73,84,119
1,note_on,85,84,0
1,note_on,85,0,121
1,note_on,73,0,0
1,note_on,77,78,119
1,note_on,89,78,0
1,note_on,89,0,120
1,note_on,77,0,0
1,note_on,70,85,120
1,note_on,82,85,0
1,note_on,82,0,120
1,note_on,70,0,0
1,note_on,73,74,120
1,note_on,85,74,0
1,note_on,85,0,121
1,note_on,73,0,0
1,note_on,66,86,119
1,note_on,78,86,0
1,note_on,78,0,121
1,note_on,66,0,0
1,note_on,82,79,119
1,note_on,70,79,0
1,note_on,70,0,120
1,note_on,82,0,0
1,note_on,75,86,120
1,note_on,63,86,0
1,note_on,63,0,120
1,note_on,75,0,0
1,note_on,66,75,120
1,note_on,78,75,0
1,note_on,78,0,121
1,note_on,66,0,0
1,note_on,71,87,119
1,note_on,59,87,0
1,note_on,59,0,121
1,note_on,71,0,0
1,note_on,63,81,119
1,note_on,75,81,0
1,note_on,75,0,120
1,note_on,63,0,0
1,note_on,56,88,120
1,note_on,68,88,0
1,note_on,68,0,120
1,note_on,56,0,0
1,note_on,71,77,120
1,note_on,59,77,0
1,note_on,59,0,121
1,note_on,71,0,0
1,note_on,65,89,119
1,note_on,53,89,0
1,note_on,53,0,120
1,note_on,65,0,1
1,note_on,68,82,119
1,note_on,56,82,0
1,note_on,56,0,120
1,note_on,68,0,0
1,note_on,61,90,120
1,note_on,49,90,0
1,note_on,49,0,120
1,note_on,61,0,0
1,note_on,65,78,120
1,note_on,53,78,0
1,note_on,53,0,121
1,note_on,65,0,0
1,note_on,46,91,119
1,note_on,58,91,0
1,note_on,46,0,120
1,note_on,58,0,1
1,note_on,49,84,119
1,note_on,61,84,0
1,note_on,61,0,120
1,note_on,49,0,0
1,note_on,54,92,120
1,note_on,54,0,120
1,note_on,58,80,120
1,note_on,58,0,121
1,note_on,51,93,119
1,note_on,51,0,121
1,note_on,54,85,119
1,note_on,54,0,120
1,note_on,47,103,0
1,note_on,47,0,240
1,note_on,63,80,600
1,note_on,71,80,0
1,note_on,75,95,0
1,note_on,75,0,90
1,note_on,71,0,0
1,note_on,63,0,0
1,note_on,63,85,30
1,note_on,75,101,0
1,note_on,71,85,0
1,note_on,71,0,360
1,note_on,75,0,0
1,note_on,63,0,0
1,note_on,65,79,0
1,note_on,77,93,0
1,note_on,71,79,0
1,note_on,68,79,0
1,note_on,68,0,90
1,note_on,65,0,0
1,note_on,77,0,0
1,note_on,71,0,0
1,note_on,71,85,30
1,note_on,68,85,0
1,note_on,65,85,0
1,note_on,77,101,0
1,note_on,77,0,360
1,note_on,71,0,0
1,note_on,68,0,0
1,note_on,65,0,0
1,note_on,70,80,0
1,note_on,78,95,0
1,note_on,73,80,0
1,note_on,66,80,0
1,note_on,66,0,90
1,note_on,70,0,0
1,note_on,78,0,0
1,note_on,73,0,0
1,note_on,70,85,30
1,note_on,78,101,0
1,note_on,73,85,0
1,note_on,66,85,0
1,note_on,66,0,960
1,note_on,70,0,0
1,note_on,78,0,0
1,note_on,73,0,0
1,note_on,90,101,0
1,note_on,82,85,0
1,note_on,78,85,0
1,note_on,85,85,0
1,note_on,85,0,120
1,note_on,90,0,0
1,note_on,82,0,0
1,note_on,78,0,0
1,note_on,94,85,360
1,note_on,102,101,0
1,note_on,90,85,0
1,note_on,97,85,0
1,note_on,97,0,120
1,note_on,94,0,0
1,note_on,102,0,0
1,note_on,90,0,0
1,note_on,66,107,360
1,note_on,54,91,0
1,note_on,54,0,120
1,note_on,66,0,0
2,note_on,44,59,360
2,note_on,37,59,0
2,note_on,56,70,0
2,note_on,53,59,0
2,note_on,53,0,90
2,note_on,44,0,0
2,note_on,37,0,0
2,note_on,56,0,0
2,note_on,44,67,30
2,note_on,53,67,0
2,note_on,56,79,0
2,note_on,37,67,0
2,note_on,37,0,240
2,note_on,44,0,0
2,note_on,53,0,0
2,note_on,56,0,0
2,note_on,54,70,600
2,note_on,44,59,0
2,note_on,50,59,0
2,note_on,32,59,0
2,note_on,32,0,90
2,note_on,54,0,0
2,note_on,44,0,0
2,note_on,50,0,0
2,note_on,32,68,30
2,note_on,44,68,0
2,note_on,50,68,0
2,note_on,54,80,0
2,note_on,54,0,240
2,note_on,32,0,0
2,note_on,44,0,0
2,note_on,50,0,0
2,note_on,56,70,600
2,note_on,37,59,0
2,note_on,53,59,0
2,note_on,44,59,0
2,note_on,44,0,90
2,note_on,56,0,0
2,note_on,37,0,0
2,note_on,53,0,0
2,note_on,37,67,30
2,note_on,56,79,0
2,note_on,44,67,0
2,note_on,53,67,0
2,note_on,53,0,240
2,note_on,37,0,0
2,note_on,56,0,0
2,note_on,44,0,0
2,note_on,50,53,600
2,note_on,32,53,0
2,note_on,54,63,0
2,note_on,44,53,0
2,note_on,44,0,90
2,note_on,50,0,0
2,note_on,32,0,0
2,note_on,54,0,0
2,note_on,44,60,30
2,note_on,50,60,0
2,note_on,54,71,0
2,note_on,32,60,0
2,note_on,32,0,240
2,note_on,44,0,0
2,note_on,50,0,0
2,note_on,54,0,0
2,note_on,44,50,600
2,note_on,49,50,0
2,note_on,37,50,0
2,note_on,53,59,0
2,note_on,53,0,90
2,note_on,44,0,0
2,note_on,49,0,0
2,note_on,37,0,0
2,note_on,53,68,30
2,note_on,37,57,0
2,note_on,44,57,0
2,note_on,49,57,0
2,note_on,49,0,240
2,note_on,53,0,0
2,note_on,37,0,0
2,note_on,44,0,0
2,note_on,44,39,600
2,note_on,40,39,0
2,note_on,52,46,0
2,note_on,49,39,0
2,note_on,49,0,90
2,note_on,44,0,0
2,note_on,40,0,0
2,note_on,52,0,0
2,note_on,52,51,30
2,note_on,44,43,0
2,note_on,49,43,0
2,note_on,40,43,0
2,note_on,40,0,240
2,note_on,52,0,0
2,note_on,44,0,0
2,note_on,49,0,0
2,note_on,44,36,600
2,note_on,51,44,0
2,note_on,49,36,0
2,note_on,49,0,90
2,note_on,51,0,0
2,note_on,44,0,0
2,note_on,51,51,30
2,note_on,44,43,0
2,note_on,49,43,0
2,note_on,49,0,240
2,note_on,51,0,0
2,note_on,54,42,240
2,note_on,48,36,0
2,note_on,51,36,0
2,note_on,44,0,80
2,note_on,45,50,0
2,note_on,44,44,80
2,note_on,45,0,16
2,note_on,54,0,64
2,note_on,51,0,0
2,note_on,48,0,0
2,note_on,47,50,0
2,note_on,44,0,16
2,note_on,45,43,64
2,note_on,47,0,16
2,note_on,44,43,64
2,note_on,45,0,16
2,note_on,42,52,64
2,note_on,44,0,16
2,note_on,40,43,64
2,note_on,42,0,16
2,note_on,42,43,64
2,note_on,40,0,16
2,note_on,39,43,64
2,note_on,42,0,16
2,note_on,45,49,64
2,note_on,39,0,16
2,note_on,45,0,104
2,note_on,44,39,0
2,note_on,44,0,40
2,note_on,37,54,0
2,note_on,44,43,360
2,note_on,44,0,120
2,note_on,49,52,0
2,note_on,49,0,480
2,note_on,37,0,0
2,note_on,37,52,0
2,note_on,44,48,360
2,note_on,44,0,120
2,note_on,49,54,0
2,note_on,49,0,480
2,note_on,37,0,0
2,note_on,37,52,0
2,note_on,44,48,360
2,note_on,44,0,120
2,note_on,49,54,0
2,note_on,49,0,480
2,note_on,37,0,0
2,note_on,37,52,0
2,note_on,45,48,360
2,note_on,45,0,120
2,note_on,49,54,0
2,note_on,49,0,480
2,note_on,37,0,0
2,note_on,37,52,0
2,note_on,44,48,360
2,note_on,44,0,120
2,note_on,49,54,0
2,note_on,49,0,480
2,note_on,37,0,0
2,note_on,37,52,0
2,note_on,44,48,360
2,note_on,44,0,120
2,note_on,49,54,0
2,note_on,49,0,480
2,note_on,37,0,0
2,note_on,35,53,0
2,note_on,47,48,360
2,note_on,47,0,120
2,note_on,52,54,0
2,note_on,52,0,480
2,note_on,35,0,0
2,note_on,35,53,0
2,note_on,47,48,360
2,note_on,47,0,120
2,note_on,51,53,0
2,note_on,51,0,480
2,note_on,35,0,0
2,note_on,40,55,0
2,note_on,47,48,360
2,note_on,47,0,120
2,note_on,52,58,0
2,note_on,52,0,480
2,note_on,40,0,0
2,note_on,40,52,0
2,note_on,40,0,360
2,note_on,47,48,0
2,note_on,47,0,60
2,note_on,32,54,0
2,note_on,48,54,60
2,note_on,48,0,480
2,note_on,32,0,0
2,note_on,37,62,0
2,note_on,44,52,360
2,note_on,44,0,120
2,note_on,49,50,0
2,note_on,52,59,0
2,note_on,52,0,480
2,note_on,49,0,0
2,note_on,37,0,0
2,note_on,30,59,0
2,note_on,49,58,360
2,note_on,49,0,120
2,note_on,54,53,0
2,note_on,57,63,0
2,note_on,57,0,480
2,note_on,54,0,0
2,note_on,30,0,0
2,note_on,25,64,0
2,note_on,44,57,360
2,note_on,44,0,120
2,note_on,49,57,0
2,note_on,52,68,0
2,note_on,52,0,480
2,note_on,49,0,0
2,note_on,25,0,0
2,note_on,37,70,0
2,note_on,37,0,360
2,note_on,44,59,0
2,note_on,44,0,120
2,note_on,49,63,0
2,note_on,56,74,0
2,note_on,56,0,360
2,note_on,49,0,0
2,note_on,38,50,0
2,note_on,50,59,0
2,note_on,50,0,120
2,note_on,38,0,0
2,note_on,51,64,0
2,note_on,39,54,0
2,note_on,39,0,360
2,note_on,51,0,0
2,note_on,56,58,0
2,note_on,51,49,0
2,note_on,51,0,120
2,note_on,56,0,0
2,note_on,63,61,0
2,note_on,59,51,0
2,note_on,59,0,660
2,note_on,63,0,0
2,note_on,39,54,0
2,note_on,51,64,0
2,note_on,51,0,660
2,note_on,39,0,0
2,note_on,58,58,0
2,note_on,51,49,0
2,note_on,51,0,240
2,note_on,58,0,0
2,note_on,63,74,0
2,note_on,61,61,0
2,note_on,61,0,480
2,note_on,63,0,0
2,note_on,44,34,1800
2,note_on,32,28,0
2,note_on,32,0,360
2,note_on,44,0,0
2,note_on,44,24,0
2,note_on,51,29,0
2,note_on,51,0,120
2,note_on,44,0,0
2,note_on,51,30,0
2,note_on,56,36,0
2,note_on,56,0,480
2,note_on,51,0,0
2,note_on,44,28,0
2,note_on,32,23,0
2,note_on,32,0,360
2,note_on,44,0,0
2,note_on,44,20,0
2,note_on,51,24,0
2,note_on,51,0,120
2,note_on,44,0,0
2,note_on,51,25,0
2,note_on,56,30,0
2,note_on,56,0,360
2,note_on,51,0,0
2,note_on,40,35,120
2,note_on,52,42,0
2,note_on,52,0,240
2,note_on,40,0,0
2,note_on,59,27,120
2,note_on,64,33,0
2,note_on,56,27,0
2,note_on,56,0,120
2,note_on,64,0,0
2,note_on,59,0,0
2,note_on,59,33,0
2,note_on,64,33,0
2,note_on,68,39,0
2,note_on,68,0,480
2,note_on,64,0,0
2,note_on,59,0,0
2,note_on,52,42,0
2,note_on,40,35,0
2,note_on,40,0,240
2,note_on,52,0,0
2,note_on,59,27,120
2,note_on,64,33,0
2,note_on,56,27,0
2,note_on,56,0,120
2,note_on,64,0,0
2,note_on,59,0,0
2,note_on,59,33,0
2,note_on,68,39,0
2,note_on,64,33,0
2,note_on,64,0,480
2,note_on,68,0,0
2,note_on,59,0,0
2,note_on,35,35,0
2,note_on,47,42,0
2,note_on,47,0,240
2,note_on,35,0,0
2,note_on,59,27,120
2,note_on,63,33,0
2,note_on,54,27,0
2,note_on,54,0,120
2,note_on,63,0,0
2,note_on,59,0,0
2,note_on,63,33,0
2,note_on,66,39,0
2,note_on,59,33,0
2,note_on,59,0,480
2,note_on,66,0,0
2,note_on,63,0,0
2,note_on,47,42,0
2,note_on,47,0,240
2,note_on,54,29,120
2,note_on,63,36,0
2,note_on,59,29,0
2,note_on,59,0,120
2,note_on,63,0,0
2,note_on,54,0,0
2,note_on,48,52,0
2,note_on,48,0,240
2,note_on,63,27,120
2,note_on,56,27,0
2,note_on,68,33,0
2,note_on,68,0,120
2,note_on,56,0,0
2,note_on,63,0,0
2,note_on,37,35,0
2,note_on,49,42,0
2,note_on,49,0,240
2,note_on,37,0,0
2,note_on,56,27,120
2,note_on,61,33,0
2,note_on,52,27,0
2,note_on,52,0,120
2,note_on,61,0,0
2,note_on,56,0,0
2,note_on,61,33,0
2,note_on,56,33,0
2,note_on,64,39,0
2,note_on,64,0,480
2,note_on,56,0,0
2,note_on,61,0,0
2,note_on,52,42,0
2,note_on,40,35,0
2,note_on,40,0,240
2,note_on,52,0,0
2,note_on,56,27,120
2,note_on,64,33,0
2,note_on,61,27,0
2,note_on,61,0,120
2,note_on,64,0,0
2,note_on,56,0,0
2,note_on,68,39,0
2,note_on,61,33,0
2,note_on,64,33,0
2,note_on,64,0,480
2,note_on,61,0,0
2,note_on,68,0,0
2,note_on,44,42,0
2,note_on,44,0,240
2,note_on,51,27,120
2,note_on,56,27,0
2,note_on,60,33,0
2,note_on,60,0,120
2,note_on,56,0,0
2,note_on,51,0,0
2,note_on,60,33,0
2,note_on,63,39,0
2,note_on,56,33,0
2,note_on,56,0,480
2,note_on,63,0,0
2,note_on,60,0,0
2,note_on,44,42,0
2,note_on,44,0,240
2,note_on,60,27,120
2,note_on,63,33,0
2,note_on,56,27,0
2,note_on,56,0,120
2,note_on,63,0,0
2,note_on,60,0,0
2,note_on,68,33,0
2,note_on,60,33,0
2,note_on,63,33,0
2,note_on,63,0,480
2,note_on,60,0,0
2,note_on,68,0,0
2,note_on,32,42,0
2,note_on,32,0,240
2,note_on,51,31,120
2,note_on,51,0,40
2,note_on,56,31,0
2,note_on,56,0,40
2,note_on,63,31,0
2,note_on,63,0,40
2,note_on,60,42,0
2,note_on,60,0,480
2,note_on,44,42,0
2,note_on,44,0,240
2,note_on,56,29,120
2,note_on,56,0,40
2,note_on,60,29,0
2,note_on,60,0,40
2,note_on,68,29,0
2,note_on,68,0,40
2,note_on,63,42,0
2,note_on,63,0,480
2,note_on,32,42,0
2,note_on,32,0,240
2,note_on,52,30,120
2,note_on,52,0,40
2,note_on,56,30,0
2,note_on,56,0,40
2,note_on,64,30,0
2,note_on,64,0,40
2,note_on,61,42,0
2,note_on,61,0,480
2,note_on,44,42,0
2,note_on,44,0,240
2,note_on,56,30,120
2,note_on,56,0,40
2,note_on,61,30,0
2,note_on,61,0,40
2,note_on,68,30,0
2,note_on,68,0,40
2,note_on,64,42,0
2,note_on,64,0,480
2,note_on,32,42,0
2,note_on,32,0,240
2,note_on,51,29,120
2,note_on,51,0,40
2,note_on,56,29,0
2,note_on,56,0,40
2,note_on,63,29,0
2,note_on,63,0,40
2,note_on,60,42,0
2,note_on,60,0,480
2,note_on,44,42,0
2,note_on,44,0,240
2,note_on,56,30,120
2,note_on,56,0,40
2,note_on,60,30,0
2,note_on,60,0,40
2,note_on,68,30,0
2,note_on,68,0,40
2,note_on,63,42,0
2,note_on,63,0,480
2,note_on,32,42,0
2,note_on,32,0,240
2,note_on,52,30,120
2,note_on,52,0,40
2,note_on,56,30,0
2,note_on,56,0,40
2,note_on,64,30,0
2,note_on,64,0,40
2,note_on,61,42,0
2,note_on,61,0,480
2,note_on,44,42,0
2,note_on,44,0,240
2,note_on,56,30,120
2,note_on,56,0,40
2,note_on,61,30,0
2,note_on,61,0,40
2,note_on,68,30,0
2,note_on,68,0,40
2,note_on,64,42,0
2,note_on,64,0,480
2,note_on,32,46,0
2,note_on,56,31,360
2,note_on,56,0,40
2,note_on,60,31,0
2,note_on,60,0,40
2,note_on,68,31,0
2,note_on,68,0,40
2,note_on,32,0,0
2,note_on,63,46,0
2,note_on,63,0,480
2,note_on,44,46,0
2,note_on,63,33,360
2,note_on,63,0,40
2,note_on,72,33,0
2,note_on,72,0,40
2,note_on,75,33,0
2,note_on,75,0,40
2,note_on,44,0,0
2,note_on,68,46,0
2,note_on,68,0,480
2,note_on,32,46,0
2,note_on,56,31,360
2,note_on,56,0,40
2,note_on,61,31,0
2,note_on,61,0,40
2,note_on,68,31,0
2,note_on,68,0,40
2,note_on,32,0,0
2,note_on,64,46,0
2,note_on,64,0,480
2,note_on,44,46,0
2,note_on,64,33,360
2,note_on,64,0,40
2,note_on,73,33,0
2,note_on,73,0,40
2,note_on,76,33,0
2,note_on,76,0,40
2,note_on,44,0,0
2,note_on,68,46,0
2,note_on,68,0,480
2,note_on,32,46,0
2,note_on,56,31,360
2,note_on,56,0,40
2,note_on,60,31,0
2,note_on,60,0,40
2,note_on,68,31,0
2,note_on,68,0,40
2,note_on,32,0,0
2,note_on,63,47,0
2,note_on,63,0,480
2,note_on,44,49,0
2,note_on,63,34,360
2,note_on,63,0,40
2,note_on,72,34,0
2,note_on,72,0,40
2,note_on,75,34,0
2,note_on,75,0,40
2,note_on,44,0,0
2,note_on,68,51,0
2,note_on,68,0,480
2,note_on,32,48,0
2,note_on,56,34,360
2,note_on,56,0,40
2,note_on,61,34,0
2,note_on,61,0,40
2,note_on,68,34,0
2,note_on,68,0,40
2,note_on,32,0,0
2,note_on,64,48,0
2,note_on,64,0,480
2,note_on,44,48,0
2,note_on,64,34,360
2,note_on,64,0,40
2,note_on,73,34,0
2,note_on,73,0,40
2,note_on,76,34,0
2,note_on,76,0,40
2,note_on,44,0,0
2,note_on,68,42,0
2,note_on,68,0,480
2,note_on,44,42,0
2,note_on,44,0,60
2,note_on,51,34,60
2,note_on,51,0,60
2,note_on,54,34,60
2,note_on,54,0,60
2,note_on,60,34,60
2,note_on,60,0,60
2,note_on,63,42,60
2,note_on,63,0,60
2,note_on,68,35,60
2,note_on,68,0,60
2,note_on,63,35,60
2,note_on,63,0,60
2,note_on,68,35,60
2,note_on,68,0,60
2,note_on,44,42,60
2,note_on,44,0,60
2,note_on,51,34,60
2,note_on,51,0,60
2,note_on,54,34,60
2,note_on,54,0,60
2,note_on,60,34,60
2,note_on,60,0,60
2,note_on,63,42,60
2,note_on,63,0,60
2,note_on,68,35,60
2,note_on,68,0,60
2,note_on,63,35,60
2,note_on,63,0,60
2,note_on,68,35,60
2,note_on,68,0,60
2,note_on,44,42,60
2,note_on,44,0,60
2,note_on,52,34,60
2,note_on,52,0,60
2,note_on,56,34,60
2,note_on,56,0,60
2,note_on,61,34,60
2,note_on,61,0,60
2,note_on,64,42,60
2,note_on,64,0,60
2,note_on,68,35,60
2,note_on,68,0,60
2,note_on,64,35,60
2,note_on,64,0,60
2,note_on,68,35,60
2,note_on,68,0,60
2,note_on,44,43,60
2,note_on,44,0,60
2,note_on,52,34,60
2,note_on,52,0,60
2,note_on,56,39,60
2,note_on,56,0,60
2,note_on,61,34,60
2,note_on,61,0,60
2,note_on,64,45,60
2,note_on,64,0,60
2,note_on,68,35,60
2,note_on,68,0,60
2,note_on,64,41,60
2,note_on,64,0,60
2,note_on,68,35,60
2,note_on,68,0,60
2,note_on,44,43,60
2,note_on,44,0,60
2,note_on,51,34,60
2,note_on,51,0,60
2,note_on,54,39,60
2,note_on,54,0,60
2,note_on,60,34,60
2,note_on,60,0,60
2,note_on,63,45,60
2,note_on,63,0,60
2,note_on,68,35,60
2,note_on,68,0,60
2,note_on,63,41,60
2,note_on,63,0,60
2,note_on,68,35,60
2,note_on,68,0,60
2,note_on,44,42,60
2,note_on,44,0,60
2,note_on,51,34,60
2,note_on,51,0,60
2,note_on,54,34,60
2,note_on,54,0,60
2,note_on,60,34,60
2,note_on,60,0,60
2,note_on,63,42,60
2,note_on,63,0,60
2,note_on,68,35,60
2,note_on,68,0,60
2,note_on,63,35,60
2,note_on,63,0,60
2,note_on,68,35,60
2,note_on,68,0,60
2,note_on,37,46,60
2,note_on,37,0,60
2,note_on,44,37,60
2,note_on,44,0,60
2,note_on,53,37,60
2,note_on,53,0,60
2,note_on,56,37,60
2,note_on,56,0,60
2,note_on,61,45,60
2,note_on,61,0,60
2,note_on,68,37,60
2,note_on,68,0,60
2,note_on,61,37,60
2,note_on,61,0,60
2,note_on,68,37,60
2,note_on,68,0,60
2,note_on,49,44,60
2,note_on,49,0,60
2,note_on,56,35,60
2,note_on,56,0,60
2,note_on,65,35,60
2,note_on,65,0,60
2,note_on,68,35,60
2,note_on,68,0,60
2,note_on,73,43,60
2,note_on,73,0,60
2,note_on,80,35,60
2,note_on,80,0,60
2,note_on,73,35,60
2,note_on,73,0,60
2,note_on,80,35,60
2,note_on,80,0,60
2,note_on,73,31,60
2,note_on,73,0,60
2,note_on,80,26,0
2,note_on,80,0,60
2,note_on,73,31,0
2,note_on,73,0,60
2,note_on,80,26,0
2,note_on,80,0,60
2,note_on,73,33,0
2,note_on,73,0,60
2,note_on,80,27,0
2,note_on,80,0,60
2,note_on,73,33,0
2,note_on,73,0,60
2,note_on,80,28,0
2,note_on,80,0,60
2,note_on,73,35,0
2,note_on,73,0,60
2,note_on,80,30,0
2,note_on,80,0,60
2,note_on,73,36,0
2,note_on,73,0,60
2,note_on,80,32,0
2,note_on,80,0,60
2,note_on,73,36,0
2,note_on,73,0,60
2,note_on,80,33,0
2,note_on,80,0,60
2,note_on,73,38,0
2,note_on,73,0,60
2,note_on,80,34,0
2,note_on,80,0,60
2,note_on,73,40,0
2,note_on,73,0,60
2,note_on,80,33,0
2,note_on,80,0,60
2,note_on,73,39,0
2,note_on,73,0,60
2,note_on,80,31,0
2,note_on,80,0,60
2,note_on,73,37,0
2,note_on,73,0,60
2,note_on,80,30,0
2,note_on,80,0,60
2,note_on,73,36,0
2,note_on,73,0,60
2,note_on,80,29,0
2,note_on,80,0,60
2,note_on,73,35,0
2,note_on,73,0,60
2,note_on,80,29,0
2,note_on,80,0,60
2,note_on,73,33,0
2,note_on,73,0,60
2,note_on,80,29,0
2,note_on,80,0,60
2,note_on,73,32,0
2,note_on,73,0,60
2,note_on,80,28,0
2,note_on,80,0,60
2,note_on,73,31,0
2,note_on,73,0,60
2,note_on,80,26,0
2,note_on,80,0,60
2,note_on,73,31,0
2,note_on,73,0,30
2,note_on,80,31,0
2,note_on,80,0,60
2,note_on,37,59,360
2,note_on,53,59,0
2,note_on,44,59,0
2,note_on,49,59,0
2,note_on,56,70,0
2,note_on,56,0,90
2,note_on,44,0,0
2,note_on,37,0,0
2,note_on,53,0,0
2,note_on,49,0,0
2,note_on,37,67,30
2,note_on,56,79,0
2,note_on,49,67,0
2,note_on,53,67,0
2,note_on,44,67,0
2,note_on,44,0,240
2,note_on,49,0,0
2,note_on,37,0,0
2,note_on,56,0,0
2,note_on,53,0,0
2,note_on,54,70,600
2,note_on,47,59,0
2,note_on,42,59,0
2,note_on,50,59,0
2,note_on,38,59,0
2,note_on,38,0,90
2,note_on,42,0,0
2,note_on,54,0,0
2,note_on,47,0,0
2,note_on,50,0,0
2,note_on,42,68,30
2,note_on,47,68,0
2,note_on,38,68,0
2,note_on,54,80,0
2,note_on,50,68,0
2,note_on,50,0,240
2,note_on,38,0,0
2,note_on,42,0,0
2,note_on,47,0,0
2,note_on,54,0,0
2,note_on,49,59,600
2,note_on,44,59,0
2,note_on,56,70,0
2,note_on,37,59,0
2,note_on,53,59,0
2,note_on,53,0,90
2,note_on,56,0,0
2,note_on,49,0,0
2,note_on,44,0,0
2,note_on,37,0,0
2,note_on,49,67,30
2,note_on,37,67,0
2,note_on,44,67,0
2,note_on,56,79,0
2,note_on,53,67,0
2,note_on,53,0,240
2,note_on,44,0,0
2,note_on,49,0,0
2,note_on,37,0,0
2,note_on,56,0,0
2,note_on,42,53,600
2,note_on,50,53,0
2,note_on,38,53,0
2,note_on,47,53,0
2,note_on,54,63,0
2,note_on,54,0,90
2,note_on,38,0,0
2,note_on,42,0,0
2,note_on,50,0,0
2,note_on,47,0,0
2,note_on,54,71,30
2,note_on,38,60,0
2,note_on,47,60,0
2,note_on,42,60,0
2,note_on,50,60,0
2,note_on,50,0,240
2,note_on,47,0,0
2,note_on,54,0,0
2,note_on,38,0,0
2,note_on,42,0,0
2,note_on,49,50,600
2,note_on,44,50,0
2,note_on,37,50,0
2,note_on,53,59,0
2,note_on,53,0,100
2,note_on,49,0,0
2,note_on,44,0,0
2,note_on,37,0,0
2,note_on,53,68,20
2,note_on,37,57,0
2,note_on,44,57,0
2,note_on,49,57,0
2,note_on,49,0,240
2,note_on,53,0,0
2,note_on,37,0,0
2,note_on,44,0,0
2,note_on,52,46,600
2,note_on,40,39,0
2,note_on,44,39,0
2,note_on,49,39,0
2,note_on,49,0,90
2,note_on,52,0,0
2,note_on,40,0,0
2,note_on,44,0,0
2,note_on,49,43,30
2,note_on,44,43,0
2,note_on,52,51,0
2,note_on,40,43,0
2,note_on,40,0,240
2,note_on,49,0,0
2,note_on,44,0,0
2,note_on,52,0,0
2,note_on,44,33,600
2,note_on,51,40,0
2,note_on,49,33,0
2,note_on,49,0,90
2,note_on,51,0,0
2,note_on,44,0,0
2,note_on,49,39,30
2,note_on,44,39,0
2,note_on,51,46,0
2,note_on,51,0,240
2,note_on,44,0,0
2,note_on,49,0,0
2,note_on,44,26,480
2,note_on,44,0,240
2,note_on,32,39,720
2,note_on,32,0,240
2,note_on,33,42,0
2,note_on,33,0,360
2,note_on,35,46,0
2,note_on,35,0,120
2,note_on,37,55,0
2,note_on,37,0,120
2,note_on,37,42,300
2,note_on,37,0,60
2,note_on,49,52,0
2,note_on,30,47,480
2,note_on,49,0,120
2,note_on,48,43,0
2,note_on,48,0,120
2,note_on,30,0,0
2,note_on,49,52,0
2,note_on,49,0,120
2,note_on,51,55,0
2,note_on,51,0,120
2,note_on,52,57,0
2,note_on,52,0,120
2,note_on,45,48,0
2,note_on,45,0,120
2,note_on,52,55,0
2,note_on,52,0,120
2,note_on,51,43,0
2,note_on,51,0,120
2,note_on,49,51,0
2,note_on,49,0,120
2,note_on,37,43,240
2,note_on,37,0,30
2,note_on,44,45,0
2,note_on,44,0,30
2,note_on,49,46,0
2,note_on,49,0,30
2,note_on,51,48,0
2,note_on,51,0,30
2,note_on,49,56,0
2,note_on,49,0,360
2,note_on,48,48,0
2,note_on,48,0,120
2,note_on,49,56,0
2,note_on,37,43,480
2,note_on,37,0,240
2,note_on,49,0,120
2,note_on,51,49,0
2,note_on,51,0,60
2,note_on,35,53,0
2,note_on,52,57,60
2,note_on,52,0,120
2,note_on,35,0,0
2,note_on,52,63,360
2,note_on,35,48,480
2,note_on,52,0,120
2,note_on,51,46,0
2,note_on,51,0,120
2,note_on,35,0,0
2,note_on,52,56,0
2,note_on,52,0,120
2,note_on,54,61,0
2,note_on,54,0,120
2,note_on,56,66,0
2,note_on,56,0,120
2,note_on,47,53,0
2,note_on,47,0,120
2,note_on,56,60,0
2,note_on,56,0,120
2,note_on,54,48,0
2,note_on,54,0,120
2,note_on,52,61,0
2,note_on,52,0,120
2,note_on,37,48,240
2,note_on,37,0,30
2,note_on,47,49,0
2,note_on,47,0,30
2,note_on,52,50,0
2,note_on,52,0,30
2,note_on,54,51,0
2,note_on,54,0,30
2,note_on,52,64,0
2,note_on,52,0,360
2,note_on,51,51,0
2,note_on,51,0,120
2,note_on,52,59,0
2,note_on,52,0,120
2,note_on,52,44,360
2,note_on,44,48,0
2,note_on,52,0,360
2,note_on,51,45,0
2,note_on,51,0,60
2,note_on,37,39,0
2,note_on,37,0,30
2,note_on,49,41,0
2,note_on,49,0,30
2,note_on,44,0,0
2,note_on,61,64,0
2,note_on,61,0,240
2,note_on,49,57,240
2,note_on,30,47,480
2,note_on,49,0,120
2,note_on,48,43,0
2,note_on,48,0,120
2,note_on,30,0,0
2,note_on,49,52,0
2,note_on,49,0,120
2,note_on,51,55,0
2,note_on,51,0,120
2,note_on,52,57,0
2,note_on,52,0,120
2,note_on,45,48,0
2,note_on,45,0,120
2,note_on,52,55,0
2,note_on,52,0,120
2,note_on,51,43,0
2,note_on,51,0,120
2,note_on,49,51,0
2,note_on,49,0,120
2,note_on,49,56,360
2,note_on,37,61,0
2,note_on,37,0,240
2,note_on,49,0,120
2,note_on,48,57,0
2,note_on,48,0,120
2,note_on,49,81,0
2,note_on,49,0,120
2,note_on,55,52,360
2,note_on,52,52,0
2,note_on,61,66,0
2,note_on,46,66,0
2,note_on,46,0,240
2,note_on,45,77,0
2,note_on,45,0,150
2,note_on,44,55,0
2,note_on,52,55,30
2,note_on,56,55,30
2,note_on,61,0,30
2,note_on,55,0,0
2,note_on,52,0,0
2,note_on,64,69,0
2,note_on,64,0,120
2,note_on,56,0,0
2,note_on,52,0,0
2,note_on,44,0,0
2,note_on,32,77,367
2,note_on,31,38,533
2,note_on,32,0,7
2,note_on,31,0,53
2,note_on,32,39,0
2,note_on,32,0,60
2,note_on,33,39,0
2,note_on,33,0,60
2,note_on,36,42,0
2,note_on,36,0,60
2,note_on,37,43,0
2,note_on,37,0,60
2,note_on,39,45,0
2,note_on,39,0,60
2,note_on,40,47,0
2,note_on,40,0,60
2,note_on,42,49,0
2,note_on,42,0,60
2,note_on,44,51,0
2,note_on,44,0,60
2,note_on,47,53,0
2,note_on,47,0,60
2,note_on,45,46,0
2,note_on,45,0,60
2,note_on,44,43,0
2,note_on,44,0,60
2,note_on,43,43,0
2,note_on,43,0,60
2,note_on,44,45,0
2,note_on,44,0,60
2,note_on,45,46,0
2,note_on,45,0,60
2,note_on,48,47,0
2,note_on,48,0,60
2,note_on,49,49,0
2,note_on,49,0,60
2,note_on,51,50,0
2,note_on,51,0,60
2,note_on,52,51,0
2,note_on,52,0,60
2,note_on,54,52,0
2,note_on,54,0,60
2,note_on,55,57,0
2,note_on,55,0,60
2,note_on,56,62,0
2,note_on,56,0,60
2,note_on,59,69,0
2,note_on,59,0,60
2,note_on,57,58,0
2,note_on,57,0,60
2,note_on,56,47,0
2,note_on,56,0,60
2,note_on,57,48,0
2,note_on,57,0,60
2,note_on,60,49,0
2,note_on,60,0,60
2,note_on,61,50,0
2,note_on,61,0,60
2,note_on,63,51,0
2,note_on,63,0,60
2,note_on,64,52,0
2,note_on,64,0,60
2,note_on,66,53,0
2,note_on,66,0,60
2,note_on,45,36,6720
2,note_on,45,0,240
2,note_on,69,33,120
2,note_on,64,27,0
2,note_on,61,27,0
2,note_on,61,0,120
2,note_on,64,0,0
2,note_on,69,0,0
2,note_on,64,33,0
2,note_on,69,33,0
2,note_on,73,39,0
2,note_on,73,0,480
2,note_on,69,0,0
2,note_on,64,0,0
2,note_on,49,42,0
2,note_on,49,0,240
2,note_on,69,33,120
2,note_on,64,27,0
2,note_on,61,27,0
2,note_on,61,0,120
2,note_on,64,0,0
2,note_on,69,0,0
2,note_on,73,39,0
2,note_on,69,33,0
2,note_on,64,33,0
2,note_on,64,0,480
2,note_on,69,0,0
2,note_on,73,0,0
2,note_on,40,42,0
2,note_on,40,0,240
2,note_on,64,27,120
2,note_on,68,33,0
2,note_on,59,27,0
2,note_on,59,0,120
2,note_on,68,0,0
2,note_on,64,0,0
2,note_on,71,39,0
2,note_on,64,33,0
2,note_on,68,33,0
2,note_on,68,0,480
2,note_on,64,0,0
2,note_on,71,0,0
2,note_on,53,39,480
2,note_on,61,39,0
2,note_on,68,52,0
2,note_on,68,0,480
2,note_on,61,0,0
2,note_on,53,0,0
2,note_on,42,42,0
2,note_on,42,0,240
2,note_on,57,27,120
2,note_on,66,33,0
2,note_on,61,27,0
2,note_on,61,0,120
2,note_on,66,0,0
2,note_on,57,0,0
2,note_on,66,33,0
2,note_on,69,39,0
2,note_on,61,33,0
2,note_on,61,0,480
2,note_on,69,0,0
2,note_on,66,0,0
2,note_on,45,42,0
2,note_on,45,0,240
2,note_on,61,27,120
2,note_on,66,33,0
2,note_on,57,27,0
2,note_on,57,0,120
2,note_on,66,0,0
2,note_on,61,0,0
2,note_on,61,33,0
2,note_on,69,39,0
2,note_on,66,33,0
2,note_on,66,0,480
2,note_on,69,0,0
2,note_on,61,0,0
2,note_on,49,42,0
2,note_on,49,0,240
2,note_on,56,27,120
2,note_on,64,33,0
2,note_on,61,27,0
2,note_on,61,0,120
2,note_on,64,0,0
2,note_on,56,0,0
2,note_on,68,39,0
2,note_on,64,33,0
2,note_on,61,33,0
2,note_on,61,0,480
2,note_on,64,0,0
2,note_on,68,0,0
2,note_on,37,39,780
2,note_on,37,0,60
2,note_on,39,43,0
2,note_on,39,0,60
2,note_on,40,47,0
2,note_on,40,0,60
2,note_on,42,50,0
2,note_on,42,0,240
2,note_on,62,33,240
2,note_on,54,33,0
2,note_on,66,39,0
2,note_on,57,33,0
2,note_on,57,0,720
2,note_on,62,0,0
2,note_on,54,0,0
2,note_on,66,0,0
2,note_on,38,39,540
2,note_on,38,0,60
2,note_on,40,43,0
2,note_on,40,0,60
2,note_on,42,47,0
2,note_on,42,0,60
2,note_on,44,50,0
2,note_on,44,0,120
2,note_on,57,33,360
2,note_on,62,39,0
2,note_on,60,33,0
2,note_on,54,33,0
2,note_on,54,0,720
2,note_on,57,0,0
2,note_on,62,0,0
2,note_on,60,0,0
2,note_on,45,28,720
2,note_on,45,0,240
2,note_on,61,31,240
2,note_on,52,26,0
2,note_on,57,26,0
2,note_on,57,0,480
2,note_on,52,0,0
2,note_on,61,0,0
2,note_on,49,37,0
2,note_on,49,0,240
2,note_on,52,29,240
2,note_on,57,29,0
2,note_on,61,35,0
2,note_on,61,0,480
2,note_on,57,0,0
2,note_on,52,0,0
2,note_on,40,37,0
2,note_on,40,0,240
2,note_on,52,29,240
2,note_on,56,29,0
2,note_on,59,35,0
2,note_on,59,0,480
2,note_on,56,0,0
2,note_on,52,0,0
2,note_on,56,46,480
2,note_on,49,35,0
2,note_on,41,35,0
2,note_on,41,0,480
2,note_on,49,0,0
2,note_on,56,0,0
2,note_on,42,37,0
2,note_on,42,0,120
2,note_on,49,29,360
2,note_on,54,29,0
2,note_on,57,35,0
2,note_on,57,0,480
2,note_on,54,0,0
2,note_on,49,0,0
2,note_on,45,37,0
2,note_on,45,0,240
2,note_on,49,29,240
2,note_on,54,29,0
2,note_on,57,35,0
2,note_on,57,0,480
2,note_on,54,0,0
2,note_on,49,0,0
2,note_on,37,37,0
2,note_on,37,0,240
2,note_on,56,35,240
2,note_on,52,29,0
2,note_on,49,29,0
2,note_on,49,0,480
2,note_on,52,0,0
2,note_on,56,0,0
2,note_on,37,35,780
2,note_on,37,0,60
2,note_on,39,38,0
2,note_on,39,0,60
2,note_on,40,42,0
2,note_on,40,0,60
2,note_on,30,45,0
2,note_on,30,0,240
2,note_on,54,35,240
2,note_on,42,29,0
2,note_on,50,29,0
2,note_on,45,29,0
2,note_on,45,0,720
2,note_on,54,0,0
2,note_on,42,0,0
2,note_on,50,0,0
2,note_on,38,35,540
2,note_on,38,0,60
2,note_on,40,38,0
2,note_on,40,0,60
2,note_on,42,42,0
2,note_on,42,0,60
2,note_on,32,45,0
2,note_on,32,0,240
2,note_on,42,26,240
2,note_on,50,31,0
2,note_on,48,26,0
2,note_on,45,26,0
2,note_on,45,0,1440
2,note_on,42,0,0
2,note_on,50,0,0
2,note_on,48,0,0
2,note_on,32,30,780
2,note_on,32,0,60
2,note_on,33,31,0
2,note_on,33,0,60
2,note_on,36,33,0
2,note_on,36,0,60
2,note_on,37,31,0
2,note_on,37,0,780
2,note_on,37,30,0
2,note_on,37,0,60
2,note_on,35,31,0
2,note_on,35,0,60
2,note_on,37,33,0
2,note_on,37,0,60
2,note_on,35,31,0
2,note_on,35,0,576
2,note_on,37,31,0
2,note_on,37,0,96
2,note_on,40,35,0
2,note_on,40,0,96
2,note_on,38,33,0
2,note_on,38,0,96
2,note_on,37,35,0
2,note_on,37,0,90
2,note_on,37,31,6
2,note_on,37,0,780
2,note_on,37,30,0
2,note_on,37,0,60
2,note_on,35,31,0
2,note_on,35,0,60
2,note_on,37,31,0
2,note_on,37,0,60
2,note_on,35,31,0
2,note_on,35,0,560
2,note_on,33,35,0
2,note_on,33,0,80
2,note_on,32,30,0
2,note_on,32,0,80
2,note_on,35,35,0
2,note_on,35,0,80
2,note_on,33,31,0
2,note_on,33,0,80
2,note_on,32,31,0
2,note_on,32,0,70
2,note_on,32,31,10
2,note_on,32,0,960
2,note_on,32,39,0
2,note_on,32,0,960
2,note_on,25,23,0
2,note_on,37,27,0
2,note_on,32,23,0
2,note_on,32,0,1440
2,note_on,37,0,0
2,note_on,25,0,0
2,note_on,68,29,8520
2,note_on,68,0,60
2,note_on,77,29,0
2,note_on,77,0,60
2,note_on,68,38,0
2,note_on,68,0,420
2,note_on,92,36,420
2,note_on,92,0,60
2,note_on,97,33,0
2,note_on,97,0,60
2,note_on,92,45,0
2,note_on,92,0,420
2,note_on,61,29,420
2,note_on,61,0,60
2,note_on,69,29,0
2,note_on,69,0,60
2,note_on,61,38,0
2,note_on,61,0,420
2,note_on,90,36,420
2,note_on,90,0,60
2,note_on,97,36,0
2,note_on,97,0,60
2,note_on,90,45,0
2,note_on,90,0,420
2,note_on,68,29,420
2,note_on,68,0,60
2,note_on,77,29,0
2,note_on,77,0,60
2,note_on,68,38,0
2,note_on,68,0,420
2,note_on,92,36,420
2,note_on,92,0,60
2,note_on,97,33,0
2,note_on,97,0,60
2,note_on,92,45,0
2,note_on,92,0,420
2,note_on,61,29,420
2,note_on,61,0,60
2,note_on,69,29,0
2,note_on,69,0,60
2,note_on,61,38,0
2,note_on,61,0,420
2,note_on,90,36,420
2,note_on,90,0,60
2,note_on,97,36,0
2,note_on,97,0,60
2,note_on,90,45,0
2,note_on,90,0,392
2,note_on,68,29,448
2,note_on,68,0,60
2,note_on,77,29,0
2,note_on,77,0,60
2,note_on,68,38,0
2,note_on,68,0,420
2,note_on,92,36,420
2,note_on,92,0,60
2,note_on,97,36,0
2,note_on,97,0,60
2,note_on,92,45,0
2,note_on,92,0,360
2,note_on,61,29,480
2,note_on,61,0,60
2,note_on,69,29,0
2,note_on,69,0,60
2,note_on,61,38,0
2,note_on,61,0,360
2,note_on,90,36,480
2,note_on,90,0,60
2,note_on,97,36,0
2,note_on,97,0,60
2,note_on,90,45,0
2,note_on,90,0,360
2,note_on,68,29,480
2,note_on,68,0,60
2,note_on,77,29,0
2,note_on,77,0,60
2,note_on,68,38,0
2,note_on,68,0,360
2,note_on,92,36,480
2,note_on,92,0,60
2,note_on,97,36,0
2,note_on,97,0,60
2,note_on,92,45,0
2,note_on,92,0,360
2,note_on,61,29,480
2,note_on,61,0,60
2,note_on,69,29,0
2,note_on,69,0,60
2,note_on,61,38,0
2,note_on,61,0,360
2,note_on,90,36,480
2,note_on,90,0,60
2,note_on,97,36,0
2,note_on,97,0,60
2,note_on,90,45,0
2,note_on,90,0,480
2,note_on,52,44,240
2,note_on,52,0,120
2,note_on,59,44,120
2,note_on,59,0,120
2,note_on,65,44,120
2,note_on,65,0,120
2,note_on,69,50,120
2,note_on,69,0,120
2,note_on,61,46,120
2,note_on,61,0,120
2,note_on,68,50,120
2,note_on,68,0,120
2,note_on,61,46,120
2,note_on,61,0,120
2,note_on,49,44,360
2,note_on,49,0,120
2,note_on,57,44,120
2,note_on,57,0,120
2,note_on,61,44,120
2,note_on,61,0,120
2,note_on,69,50,120
2,note_on,69,0,120
2,note_on,61,46,120
2,note_on,61,0,120
2,note_on,66,50,120
2,note_on,66,0,120
2,note_on,61,46,120
2,note_on,61,0,120
2,note_on,49,44,360
2,note_on,49,0,120
2,note_on,59,44,120
2,note_on,59,0,120
2,note_on,65,44,120
2,note_on,65,0,120
2,note_on,69,50,120
2,note_on,69,0,120
2,note_on,61,46,120
2,note_on,61,0,120
2,note_on,68,50,120
2,note_on,68,0,120
2,note_on,61,46,120
2,note_on,61,0,120
2,note_on,49,44,360
2,note_on,49,0,120
2,note_on,57,44,120
2,note_on,57,0,120
2,note_on,61,44,120
2,note_on,61,0,120
2,note_on,69,50,120
2,note_on,69,0,120
2,note_on,61,46,120
2,note_on,61,0,120
2,note_on,66,50,120
2,note_on,66,0,120
2,note_on,61,46,120
2,note_on,61,0,120
2,note_on,49,44,360
2,note_on,49,0,120
2,note_on,59,44,120
2,note_on,59,0,120
2,note_on,65,44,120
2,note_on,65,0,120
2,note_on,65,46,360
2,note_on,65,0,120
2,note_on,59,50,120
2,note_on,59,0,120
2,note_on,49,46,120
2,note_on,49,0,120
2,note_on,49,44,360
2,note_on,49,0,120
2,note_on,57,44,120
2,note_on,57,0,120
2,note_on,66,44,120
2,note_on,66,0,120
2,note_on,66,46,360
2,note_on,66,0,120
2,note_on,57,50,120
2,note_on,57,0,120
2,note_on,49,46,120
2,note_on,49,0,120
2,note_on,49,44,360
2,note_on,49,0,120
2,note_on,59,44,120
2,note_on,59,0,120
2,note_on,65,44,120
2,note_on,65,0,120
2,note_on,65,46,360
2,note_on,65,0,120
2,note_on,59,50,120
2,note_on,59,0,120
2,note_on,49,46,120
2,note_on,49,0,120
2,note_on,49,44,360
2,note_on,49,0,120
2,note_on,57,44,120
2,note_on,57,0,120
2,note_on,66,44,120
2,note_on,66,0,120
2,note_on,66,46,360
2,note_on,66,0,120
2,note_on,57,50,120
2,note_on,57,0,120
2,note_on,49,46,120
2,note_on,49,0,120
2,note_on,56,62,120
2,note_on,56,0,120
2,note_on,71,60,360
2,note_on,61,50,0
2,note_on,65,50,0
2,note_on,65,0,480
2,note_on,61,0,0
2,note_on,71,0,0
2,note_on,49,57,0
2,note_on,49,0,120
2,note_on,65,39,120
2,note_on,69,46,0
2,note_on,61,39,0
2,note_on,61,0,60
2,note_on,69,0,0
2,note_on,65,0,0
2,note_on,59,46,180
2,note_on,59,0,60
2,note_on,61,39,180
2,note_on,68,46,0
2,note_on,65,39,0
2,note_on,65,0,60
2,note_on,68,0,0
2,note_on,61,0,0
2,note_on,54,64,180
2,note_on,54,0,120
2,note_on,66,50,360
2,note_on,69,60,0
2,note_on,61,50,0
2,note_on,61,0,480
2,note_on,69,0,0
2,note_on,66,0,0
2,note_on,49,61,0
2,note_on,49,0,120
2,note_on,57,39,120
2,note_on,68,46,0
2,note_on,61,39,0
2,note_on,61,0,60
2,note_on,68,0,0
2,note_on,57,0,0
2,note_on,54,46,180
2,note_on,54,0,60
2,note_on,57,39,180
2,note_on,66,46,0
2,note_on,61,39,0
2,note_on,61,0,60
2,note_on,66,0,0
2,note_on,57,0,0
2,note_on,56,60,180
2,note_on,56,0,120
2,note_on,65,50,360
2,note_on,71,60,0
2,note_on,61,50,0
2,note_on,61,0,480
2,note_on,71,0,0
2,note_on,65,0,0
2,note_on,49,57,0
2,note_on,49,0,120
2,note_on,61,39,120
2,note_on,69,46,0
2,note_on,65,39,0
2,note_on,65,0,60
2,note_on,69,0,0
2,note_on,61,0,0
2,note_on,59,46,180
2,note_on,59,0,60
2,note_on,61,39,180
2,note_on,68,46,0
2,note_on,65,39,0
2,note_on,65,0,60
2,note_on,68,0,0
2,note_on,61,0,0
2,note_on,54,62,180
2,note_on,54,0,120
2,note_on,61,50,360
2,note_on,66,50,0
2,note_on,69,60,0
2,note_on,69,0,480
2,note_on,66,0,0
2,note_on,61,0,0
2,note_on,49,57,0
2,note_on,49,0,120
2,note_on,57,39,120
2,note_on,61,39,0
2,note_on,68,46,0
2,note_on,68,0,60
2,note_on,61,0,0
2,note_on,57,0,0
2,note_on,54,46,180
2,note_on,54,0,60
2,note_on,61,39,180
2,note_on,66,46,0
2,note_on,57,39,0
2,note_on,57,0,60
2,note_on,66,0,0
2,note_on,61,0,0
2,note_on,56,55,180
2,note_on,56,0,120
2,note_on,61,46,360
2,note_on,71,55,0
2,note_on,65,46,0
2,note_on,65,0,480
2,note_on,71,0,0
2,note_on,61,0,0
2,note_on,49,55,0
2,note_on,49,0,120
2,note_on,61,46,360
2,note_on,65,46,0
2,note_on,71,56,0
2,note_on,71,0,480
2,note_on,65,0,0
2,note_on,61,0,0
2,note_on,54,57,0
2,note_on,54,0,120
2,note_on,70,58,360
2,note_on,61,48,0
2,note_on,66,48,0
2,note_on,66,0,480
2,note_on,61,0,0
2,note_on,70,0,0
2,note_on,49,58,0
2,note_on,49,0,120
2,note_on,70,60,360
2,note_on,61,49,0
2,note_on,66,49,0
2,note_on,66,0,480
2,note_on,61,0,0
2,note_on,70,0,0
2,note_on,56,60,0
2,note_on,56,0,120
2,note_on,61,46,120
2,note_on,65,46,0
2,note_on,71,55,0
2,note_on,71,0,60
2,note_on,65,0,0
2,note_on,61,0,0
2,note_on,49,61,180
2,note_on,49,0,120
2,note_on,65,47,120
2,note_on,61,47,0
2,note_on,71,56,0
2,note_on,71,0,60
2,note_on,61,0,0
2,note_on,65,0,0
2,note_on,56,62,180
2,note_on,56,0,120
2,note_on,61,47,120
2,note_on,65,47,0
2,note_on,71,57,0
2,note_on,71,0,60
2,note_on,65,0,0
2,note_on,61,0,0
2,note_on,49,63,180
2,note_on,49,0,120
2,note_on,65,49,120
2,note_on,61,49,0
2,note_on,71,58,0
2,note_on,71,0,60
2,note_on,61,0,0
2,note_on,65,0,0
2,note_on,54,65,180
2,note_on,54,0,120
2,note_on,61,49,120
2,note_on,70,58,0
2,note_on,66,49,0
2,note_on,66,0,60
2,note_on,70,0,0
2,note_on,61,0,0
2,note_on,49,65,180
2,note_on,49,0,120
2,note_on,70,60,120
2,note_on,61,50,0
2,note_on,66,50,0
2,note_on,66,0,60
2,note_on,61,0,0
2,note_on,70,0,0
2,note_on,54,66,180
2,note_on,54,0,120
2,note_on,70,61,120
2,note_on,66,51,0
2,note_on,61,51,0
2,note_on,61,0,60
2,note_on,66,0,0
2,note_on,70,0,0
2,note_on,49,67,180
2,note_on,49,0,120
2,note_on,70,62,120
2,note_on,61,51,0
2,note_on,66,51,0
2,note_on,66,0,60
2,note_on,61,0,0
2,note_on,70,0,0
2,note_on,56,69,180
2,note_on,56,0,120
2,note_on,65,52,120
2,note_on,61,52,0
2,note_on,71,62,0
2,note_on,71,0,60
2,note_on,61,0,0
2,note_on,65,0,0
2,note_on,49,69,180
2,note_on,49,0,120
2,note_on,71,63,120
2,note_on,61,53,0
2,note_on,65,53,0
2,note_on,65,0,60
2,note_on,61,0,0
2,note_on,71,0,0
2,note_on,56,71,180
2,note_on,56,0,120
2,note_on,65,54,120
2,note_on,61,54,0
2,note_on,71,65,0
2,note_on,71,0,60
2,note_on,61,0,0
2,note_on,65,0,0
2,note_on,49,73,180
2,note_on,49,0,120
2,note_on,65,56,120
2,note_on,61,56,0
2,note_on,71,67,0
2,note_on,71,0,60
2,note_on,61,0,0
2,note_on,65,0,0
2,note_on,54,75,180
2,note_on,54,0,120
2,note_on,66,57,120
2,note_on,61,57,0
2,note_on,70,68,0
2,note_on,70,0,60
2,note_on,61,0,0
2,note_on,66,0,0
2,note_on,49,76,180
2,note_on,49,0,120
2,note_on,61,58,120
2,note_on,70,70,0
2,note_on,66,58,0
2,note_on,66,0,60
2,note_on,70,0,0
2,note_on,61,0,0
2,note_on,54,77,180
2,note_on,54,0,120
2,note_on,70,71,120
2,note_on,66,60,0
2,note_on,61,60,0
2,note_on,61,0,60
2,note_on,66,0,0
2,note_on,70,0,0
2,note_on,49,79,180
2,note_on,49,0,120
2,note_on,61,61,120
2,note_on,66,61,0
2,note_on,70,72,0
2,note_on,70,0,60
2,note_on,66,0,0
2,note_on,61,0,0
2,note_on,44,61,180
2,note_on,56,73,0
2,note_on,56,0,60
2,note_on,44,0,0
2,note_on,61,57,180
2,note_on,56,57,0
2,note_on,65,68,0
2,note_on,65,0,120
2,note_on,56,0,0
2,note_on,61,0,0
2,note_on,37,61,120
2,note_on,49,73,0
2,note_on,49,0,120
2,note_on,37,0,0
2,note_on,61,58,120
2,note_on,56,58,0
2,note_on,65,69,0
2,note_on,65,0,120
2,note_on,56,0,0
2,note_on,61,0,0
2,note_on,44,61,120
2,note_on,56,73,0
2,note_on,56,0,60
2,note_on,44,0,0
2,note_on,56,57,180
2,note_on,61,57,0
2,note_on,65,68,0
2,note_on,65,0,120
2,note_on,61,0,0
2,note_on,56,0,0
2,note_on,37,61,120
2,note_on,49,73,0
2,note_on,49,0,120
2,note_on,37,0,0
2,note_on,65,69,120
2,note_on,61,58,0
2,note_on,56,58,0
2,note_on,56,0,120
2,note_on,61,0,0
2,note_on,65,0,0
2,note_on,54,73,120
2,note_on,42,61,0
2,note_on,42,0,60
2,note_on,54,0,0
2,note_on,61,57,180
2,note_on,66,68,0
2,note_on,58,57,0
2,note_on,58,0,120
2,note_on,66,0,0
2,note_on,61,0,0
2,note_on,49,73,120
2,note_on,37,61,0
2,note_on,37,0,120
2,note_on,49,0,0
2,note_on,61,58,120
2,note_on,58,58,0
2,note_on,66,69,0
2,note_on,66,0,120
2,note_on,58,0,0
2,note_on,61,0,0
2,note_on,54,73,120
2,note_on,42,61,0
2,note_on,42,0,60
2,note_on,54,0,0
2,note_on,61,57,180
2,note_on,58,57,0
2,note_on,66,68,0
2,note_on,66,0,120
2,note_on,58,0,0
2,note_on,61,0,0
2,note_on,37,61,120
2,note_on,49,73,0
2,note_on,49,0,120
2,note_on,37,0,0
2,note_on,58,58,120
2,note_on,61,58,0
2,note_on,66,69,0
2,note_on,66,0,120
2,note_on,61,0,0
2,note_on,58,0,0
2,note_on,44,61,120
2,note_on,56,73,0
2,note_on,56,0,60
2,note_on,44,0,0
2,note_on,61,57,180
2,note_on,65,68,0
2,note_on,65,0,120
2,note_on,61,0,0
2,note_on,37,61,120
2,note_on,49,73,0
2,note_on,49,0,120
2,note_on,37,0,0
2,note_on,65,69,120
2,note_on,61,58,0
2,note_on,59,58,0
2,note_on,59,0,120
2,note_on,61,0,0
2,note_on,65,0,0
2,note_on,44,61,120
2,note_on,56,73,0
2,note_on,56,0,60
2,note_on,44,0,0
2,note_on,59,57,180
2,note_on,61,57,0
2,note_on,65,68,0
2,note_on,65,0,120
2,note_on,61,0,0
2,note_on,59,0,0
2,note_on,49,73,120
2,note_on,37,61,0
2,note_on,37,0,120
2,note_on,49,0,0
2,note_on,59,58,120
2,note_on,61,58,0
2,note_on,65,69,0
2,note_on,65,0,120
2,note_on,61,0,0
2,note_on,59,0,0
2,note_on,42,61,120
2,note_on,54,73,0
2,note_on,54,0,60
2,note_on,42,0,0
2,note_on,66,68,180
2,note_on,58,57,0
2,note_on,61,57,0
2,note_on,61,0,120
2,note_on,58,0,0
2,note_on,66,0,0
2,note_on,49,73,120
2,note_on,37,61,0
2,note_on,37,0,120
2,note_on,49,0,0
2,note_on,58,58,120
2,note_on,66,69,0
2,note_on,61,58,0
2,note_on,61,0,120
2,note_on,66,0,0
2,note_on,58,0,0
2,note_on,54,73,120
2,note_on,42,61,0
2,note_on,42,0,60
2,note_on,54,0,0
2,note_on,58,57,180
2,note_on,61,57,0
2,note_on,66,68,0
2,note_on,66,0,120
2,note_on,61,0,0
2,note_on,58,0,0
2,note_on,37,61,120
2,note_on,49,73,0
2,note_on,49,0,120
2,note_on,37,0,0
2,note_on,58,58,120
2,note_on,61,58,0
2,note_on,66,69,0
2,note_on,66,0,120
2,note_on,61,0,0
2,note_on,58,0,0
2,note_on,56,53,120
2,note_on,56,0,60
2,note_on,61,41,180
2,note_on,65,49,0
2,note_on,65,0,120
2,note_on,61,0,0
2,note_on,49,53,120
2,note_on,49,0,120
2,note_on,61,42,120
2,note_on,56,42,0
2,note_on,65,50,0
2,note_on,65,0,120
2,note_on,56,0,0
2,note_on,61,0,0
2,note_on,44,53,120
2,note_on,44,0,60
2,note_on,56,41,180
2,note_on,65,49,0
2,note_on,61,41,0
2,note_on,61,0,120
2,note_on,65,0,0
2,note_on,56,0,0
2,note_on,37,53,120
2,note_on,37,0,120
2,note_on,65,50,120
2,note_on,61,42,0
2,note_on,56,42,0
2,note_on,56,0,120
2,note_on,61,0,0
2,note_on,65,0,0
2,note_on,54,53,120
2,note_on,54,0,60
2,note_on,58,41,180
2,note_on,66,49,0
2,note_on,61,41,0
2,note_on,61,0,120
2,note_on,66,0,0
2,note_on,58,0,0
2,note_on,49,53,120
2,note_on,49,0,120
2,note_on,58,42,120
2,note_on,66,50,0
2,note_on,61,42,0
2,note_on,61,0,120
2,note_on,66,0,0
2,note_on,58,0,0
2,note_on,42,53,120
2,note_on,42,0,60
2,note_on,58,41,180
2,note_on,66,49,0
2,note_on,61,41,0
2,note_on,61,0,120
2,note_on,66,0,0
2,note_on,58,0,0
2,note_on,37,53,120
2,note_on,37,0,120
2,note_on,58,42,120
2,note_on,61,42,0
2,note_on,66,50,0
2,note_on,66,0,120
2,note_on,61,0,0
2,note_on,58,0,0
2,note_on,56,53,120
2,note_on,56,0,60
2,note_on,65,49,180
2,note_on,61,41,0
2,note_on,61,0,120
2,note_on,65,0,0
2,note_on,49,53,120
2,note_on,49,0,120
2,note_on,65,50,120
2,note_on,56,42,0
2,note_on,61,42,0
2,note_on,61,0,120
2,note_on,56,0,0
2,note_on,65,0,0
2,note_on,44,53,120
2,note_on,44,0,60
2,note_on,61,41,180
2,note_on,65,49,0
2,note_on,56,41,0
2,note_on,56,0,120
2,note_on,65,0,0
2,note_on,61,0,0
2,note_on,37,53,120
2,note_on,37,0,120
2,note_on,61,42,120
2,note_on,65,50,0
2,note_on,56,42,0
2,note_on,56,0,120
2,note_on,65,0,0
2,note_on,61,0,0
2,note_on,54,53,120
2,note_on,54,0,60
2,note_on,61,41,180
2,note_on,58,41,0
2,note_on,66,49,0
2,note_on,66,0,120
2,note_on,58,0,0
2,note_on,61,0,0
2,note_on,49,53,120
2,note_on,49,0,120
2,note_on,66,50,120
2,note_on,58,42,0
2,note_on,61,42,0
2,note_on,61,0,120
2,note_on,58,0,0
2,note_on,66,0,0
2,note_on,42,53,120
2,note_on,42,0,60
2,note_on,61,41,180
2,note_on,58,41,0
2,note_on,66,49,0
2,note_on,66,0,120
2,note_on,58,0,0
2,note_on,61,0,0
2,note_on,37,53,120
2,note_on,37,0,120
2,note_on,58,42,120
2,note_on,61,42,0
2,note_on,66,50,0
2,note_on,66,0,120
2,note_on,61,0,0
2,note_on,58,0,0
2,note_on,54,42,120
2,note_on,54,0,90
2,note_on,59,29,150
2,note_on,63,35,0
2,note_on,63,0,90
2,note_on,59,0,0
2,note_on,49,33,150
2,note_on,49,0,90
2,note_on,66,33,150
2,note_on,63,28,0
2,note_on,63,0,90
2,note_on,66,0,0
2,note_on,54,42,150
2,note_on,54,0,90
2,note_on,63,36,150
2,note_on,59,30,0
2,note_on,59,0,90
2,note_on,63,0,0
2,note_on,49,36,150
2,note_on,49,0,90
2,note_on,63,30,150
2,note_on,66,36,0
2,note_on,66,0,90
2,note_on,63,0,0
2,note_on,54,42,150
2,note_on,54,0,90
2,note_on,61,36,150
2,note_on,58,30,0
2,note_on,58,0,90
2,note_on,61,0,0
2,note_on,49,36,150
2,note_on,49,0,90
2,note_on,66,36,150
2,note_on,61,30,0
2,note_on,61,0,90
2,note_on,66,0,0
2,note_on,54,42,150
2,note_on,54,0,90
2,note_on,58,30,150
2,note_on,61,37,0
2,note_on,61,0,90
2,note_on,58,0,0
2,note_on,49,37,150
2,note_on,49,0,120
2,note_on,61,31,120
2,note_on,66,37,0
2,note_on,66,0,120
2,note_on,61,0,0
2,note_on,54,42,120
2,note_on,54,0,120
2,note_on,63,35,120
2,note_on,59,29,0
2,note_on,59,0,90
2,note_on,63,0,0
2,note_on,49,33,150
2,note_on,49,0,90
2,note_on,63,28,150
2,note_on,66,33,0
2,note_on,66,0,90
2,note_on,63,0,0
2,note_on,54,42,150
2,note_on,54,0,90
2,note_on,59,30,150
2,note_on,63,36,0
2,note_on,63,0,90
2,note_on,59,0,0
2,note_on,49,36,150
2,note_on,49,0,90
2,note_on,66,36,150
2,note_on,63,30,0
2,note_on,63,0,90
2,note_on,66,0,0
2,note_on,54,42,150
2,note_on,54,0,90
2,note_on,61,36,150
2,note_on,58,30,0
2,note_on,58,0,90
2,note_on,61,0,0
2,note_on,49,36,150
2,note_on,49,0,90
2,note_on,61,30,150
2,note_on,66,36,0
2,note_on,66,0,90
2,note_on,61,0,0
2,note_on,54,42,150
2,note_on,54,0,90
2,note_on,58,30,150
2,note_on,61,37,0
2,note_on,61,0,90
2,note_on,58,0,0
2,note_on,49,37,150
2,note_on,49,0,120
2,note_on,61,31,120
2,note_on,66,37,0
2,note_on,66,0,120
2,note_on,61,0,0
2,note_on,56,42,120
2,note_on,56,0,120
2,note_on,65,37,120
2,note_on,61,31,0
2,note_on,61,0,120
2,note_on,65,0,0
2,note_on,49,42,120
2,note_on,49,0,120
2,note_on,61,31,120
2,note_on,65,37,0
2,note_on,65,0,120
2,note_on,61,0,0
2,note_on,68,42,120
2,note_on,68,0,120
2,note_on,77,37,120
2,note_on,73,31,0
2,note_on,73,0,120
2,note_on,77,0,0
2,note_on,61,42,120
2,note_on,61,0,120
2,note_on,77,37,120
2,note_on,73,31,0
2,note_on,73,0,120
2,note_on,77,0,0
2,note_on,54,42,120
2,note_on,54,0,120
2,note_on,66,37,120
2,note_on,58,31,0
2,note_on,61,31,0
2,note_on,61,0,120
2,note_on,58,0,0
2,note_on,66,0,0
2,note_on,49,42,120
2,note_on,49,0,120
2,note_on,58,31,120
2,note_on,61,31,0
2,note_on,66,37,0
2,note_on,66,0,120
2,note_on,61,0,0
2,note_on,58,0,0
2,note_on,70,42,120
2,note_on,70,0,120
2,note_on,73,31,120
2,note_on,78,37,0
2,note_on,78,0,120
2,note_on,73,0,0
2,note_on,66,42,120
2,note_on,66,0,120
2,note_on,73,31,120
2,note_on,78,37,0
2,note_on,78,0,120
2,note_on,73,0,0
2,note_on,56,42,120
2,note_on,56,0,120
2,note_on,61,31,120
2,note_on,65,37,0
2,note_on,65,0,120
2,note_on,61,0,0
2,note_on,49,42,120
2,note_on,49,0,120
2,note_on,61,31,120
2,note_on,65,37,0
2,note_on,65,0,120
2,note_on,61,0,0
2,note_on,68,42,120
2,note_on,68,0,120
2,note_on,73,31,120
2,note_on,77,37,0
2,note_on,77,0,120
2,note_on,73,0,0
2,note_on,61,42,120
2,note_on,61,0,120
2,note_on,77,37,120
2,note_on,73,31,0
2,note_on,73,0,120
2,note_on,77,0,0
2,note_on,54,42,120
2,note_on,54,0,120
2,note_on,66,37,120
2,note_on,58,31,0
2,note_on,61,31,0
2,note_on,61,0,120
2,note_on,58,0,0
2,note_on,66,0,0
2,note_on,49,42,120
2,note_on,49,0,120
2,note_on,61,31,120
2,note_on,66,37,0
2,note_on,58,31,0
2,note_on,58,0,120
2,note_on,66,0,0
2,note_on,61,0,0
2,note_on,70,42,120
2,note_on,70,0,120
2,note_on,73,31,120
2,note_on,78,37,0
2,note_on,78,0,120
2,note_on,73,0,0
2,note_on,66,42,120
2,note_on,66,0,120
2,note_on,78,37,120
2,note_on,73,31,0
2,note_on,73,0,120
2,note_on,78,0,0
2,note_on,66,42,120
2,note_on,66,0,120
2,note_on,71,31,120
2,note_on,75,37,0
2,note_on,75,0,120
2,note_on,71,0,0
2,note_on,61,42,120
2,note_on,61,0,120
2,note_on,78,37,120
2,note_on,75,31,0
2,note_on,75,0,120
2,note_on,78,0,0
2,note_on,66,42,120
2,note_on,66,0,120
2,note_on,78,37,120
2,note_on,75,31,0
2,note_on,75,0,120
2,note_on,78,0,0
2,note_on,71,42,120
2,note_on,71,0,120
2,note_on,75,31,120
2,note_on,78,37,0
2,note_on,78,0,120
2,note_on,75,0,0
2,note_on,66,42,120
2,note_on,66,0,120
2,note_on,70,31,120
2,note_on,73,37,0
2,note_on,73,0,120
2,note_on,70,0,0
2,note_on,61,42,120
2,note_on,61,0,120
2,note_on,78,37,120
2,note_on,73,31,0
2,note_on,73,0,120
2,note_on,78,0,0
2,note_on,66,42,120
2,note_on,66,0,120
2,note_on,78,37,120
2,note_on,73,31,0
2,note_on,73,0,120
2,note_on,78,0,0
2,note_on,70,42,120
2,note_on,70,0,120
2,note_on,78,37,120
2,note_on,73,31,0
2,note_on,73,0,120
2,note_on,78,0,0
2,note_on,66,42,120
2,note_on,66,0,120
2,note_on,75,37,120
2,note_on,71,31,0
2,note_on,71,0,120
2,note_on,75,0,0
2,note_on,61,42,120
2,note_on,61,0,120
2,note_on,78,37,120
2,note_on,75,31,0
2,note_on,75,0,120
2,note_on,78,0,0
2,note_on,66,42,120
2,note_on,66,0,120
2,note_on,78,37,120
2,note_on,75,31,0
2,note_on,75,0,120
2,note_on,78,0,0
2,note_on,71,42,120
2,note_on,71,0,120
2,note_on,78,37,120
2,note_on,75,31,0
2,note_on,75,0,120
2,note_on,78,0,0
2,note_on,66,42,120
2,note_on,66,0,120
2,note_on,73,37,120
2,note_on,70,31,0
2,note_on,70,0,120
2,note_on,73,0,0
2,note_on,61,42,120
2,note_on,61,0,120
2,note_on,78,37,120
2,note_on,73,31,0
2,note_on,73,0,120
2,note_on,78,0,0
2,note_on,66,42,120
2,note_on,66,0,120
2,note_on,73,31,120
2,note_on,78,37,0
2,note_on,78,0,120
2,note_on,73,0,0
2,note_on,70,42,120
2,note_on,70,0,120
2,note_on,73,31,120
2,note_on,78,37,0
2,note_on,78,0,120
2,note_on,73,0,0
2,note_on,60,42,300
2,note_on,60,0,60
2,note_on,61,48,0
2,note_on,61,0,120
2,note_on,64,48,300
2,note_on,64,0,60
2,note_on,65,49,0
2,note_on,65,0,120
2,note_on,69,50,300
2,note_on,69,0,60
2,note_on,70,51,0
2,note_on,70,0,120
2,note_on,67,42,300
2,note_on,67,0,60
2,note_on,68,49,0
2,note_on,68,0,120
2,note_on,65,42,300
2,note_on,65,0,60
2,note_on,66,50,0
2,note_on,66,0,120
2,note_on,64,42,60
2,note_on,64,0,60
2,note_on,65,48,0
2,note_on,65,0,120
2,note_on,63,42,60
2,note_on,63,0,60
2,note_on,64,54,0
2,note_on,64,0,120
2,note_on,62,42,300
2,note_on,62,0,60
2,note_on,63,49,0
2,note_on,63,0,120
2,note_on,61,42,60
2,note_on,61,0,60
2,note_on,62,49,0
2,note_on,62,0,120
2,note_on,60,54,60
2,note_on,60,0,60
2,note_on,61,56,0
2,note_on,61,0,120
2,note_on,60,42,300
2,note_on,60,0,60
2,note_on,61,48,0
2,note_on,61,0,120
2,note_on,64,48,300
2,note_on,64,0,60
2,note_on,65,49,0
2,note_on,65,0,120
2,note_on,69,50,300
2,note_on,69,0,60
2,note_on,70,51,0
2,note_on,70,0,120
2,note_on,67,42,300
2,note_on,67,0,60
2,note_on,68,49,0
2,note_on,68,0,120
2,note_on,65,42,300
2,note_on,65,0,60
2,note_on,66,50,0
2,note_on,66,0,120
2,note_on,64,42,60
2,note_on,64,0,60
2,note_on,65,48,0
2,note_on,65,0,120
2,note_on,63,42,60
2,note_on,63,0,60
2,note_on,64,54,0
2,note_on,64,0,120
2,note_on,62,42,300
2,note_on,62,0,60
2,note_on,63,49,0
2,note_on,63,0,120
2,note_on,61,42,60
2,note_on,61,0,60
2,note_on,62,49,0
2,note_on,62,0,120
2,note_on,60,54,60
2,note_on,60,0,60
2,note_on,61,56,0
2,note_on,61,0,120
2,note_on,56,42,120
2,note_on,56,0,120
2,note_on,61,37,120
2,note_on,65,37,0
2,note_on,65,0,120
2,note_on,61,0,0
2,note_on,49,42,120
2,note_on,49,0,120
2,note_on,61,37,120
2,note_on,65,37,0
2,note_on,65,0,120
2,note_on,61,0,0
2,note_on,68,37,120
2,note_on,72,42,0
2,note_on,72,0,120
2,note_on,68,0,0
2,note_on,73,37,120
2,note_on,65,37,0
2,note_on,65,0,120
2,note_on,73,0,0
2,note_on,71,48,120
2,note_on,68,42,0
2,note_on,68,0,360
2,note_on,71,0,0
2,note_on,73,37,0
2,note_on,65,37,0
2,note_on,65,0,120
2,note_on,73,0,0
2,note_on,54,42,0
2,note_on,54,0,120
2,note_on,61,37,120
2,note_on,66,37,0
2,note_on,66,0,120
2,note_on,61,0,0
2,note_on,49,42,120
2,note_on,49,0,120
2,note_on,61,37,120
2,note_on,66,37,0
2,note_on,66,0,120
2,note_on,61,0,0
2,note_on,72,42,120
2,note_on,69,37,0
2,note_on,69,0,120
2,note_on,72,0,0
2,note_on,73,37,120
2,note_on,70,37,0
2,note_on,70,0,120
2,note_on,73,0,0
2,note_on,66,42,120
2,note_on,70,48,0
2,note_on,70,0,360
2,note_on,73,37,0
2,note_on,73,0,120
2,note_on,66,0,0
2,note_on,56,42,0
2,note_on,56,0,120
2,note_on,61,37,120
2,note_on,65,37,0
2,note_on,65,0,120
2,note_on,61,0,0
2,note_on,49,42,120
2,note_on,49,0,120
2,note_on,65,37,120
2,note_on,61,37,0
2,note_on,61,0,120
2,note_on,65,0,0
2,note_on,72,42,120
2,note_on,68,37,0
2,note_on,68,0,120
2,note_on,72,0,0
2,note_on,73,37,120
2,note_on,65,37,0
2,note_on,65,0,120
2,note_on,73,0,0
2,note_on,68,42,120
2,note_on,71,48,0
2,note_on,71,0,360
2,note_on,68,0,0
2,note_on,65,37,0
2,note_on,73,37,0
2,note_on,73,0,120
2,note_on,65,0,0
2,note_on,54,42,0
2,note_on,54,0,120
2,note_on,61,37,120
2,note_on,66,37,0
2,note_on,66,0,120
2,note_on,61,0,0
2,note_on,49,42,120
2,note_on,49,0,120
2,note_on,66,37,120
2,note_on,61,37,0
2,note_on,61,0,120
2,note_on,66,0,0
2,note_on,72,42,120
2,note_on,69,37,0
2,note_on,69,0,120
2,note_on,72,0,0
2,note_on,70,37,120
2,note_on,73,37,0
2,note_on,73,0,120
2,note_on,70,0,0
2,note_on,66,42,120
2,note_on,70,48,0
2,note_on,70,0,360
2,note_on,73,37,0
2,note_on,73,0,120
2,note_on,66,0,0
2,note_on,56,42,0
2,note_on,56,0,120
2,note_on,61,30,120
2,note_on,71,36,0
2,note_on,65,30,0
2,note_on,65,0,120
2,note_on,71,0,0
2,note_on,61,0,0
2,note_on,49,36,120
2,note_on,49,0,120
2,note_on,65,30,120
2,note_on,71,36,0
2,note_on,61,30,0
2,note_on,61,0,120
2,note_on,71,0,0
2,note_on,65,0,0
2,note_on,56,42,120
2,note_on,56,0,120
2,note_on,65,36,120
2,note_on,61,36,0
2,note_on,71,36,0
2,note_on,71,0,120
2,note_on,61,0,0
2,note_on,65,0,0
2,note_on,49,36,120
2,note_on,49,0,120
2,note_on,61,30,120
2,note_on,71,36,0
2,note_on,65,30,0
2,note_on,65,0,120
2,note_on,71,0,0
2,note_on,61,0,0
2,note_on,54,42,120
2,note_on,54,0,120
2,note_on,61,28,120
2,note_on,66,28,0
2,note_on,70,34,0
2,note_on,70,0,120
2,note_on,66,0,0
2,note_on,61,0,0
2,note_on,49,34,120
2,note_on,49,0,120
2,note_on,70,34,120
2,note_on,61,28,0
2,note_on,66,28,0
2,note_on,66,0,120
2,note_on,61,0,0
2,note_on,70,0,0
2,note_on,54,42,120
2,note_on,54,0,120
2,note_on,70,36,120
2,note_on,66,30,0
2,note_on,61,30,0
2,note_on,61,0,120
2,note_on,66,0,0
2,note_on,70,0,0
2,note_on,49,36,120
2,note_on,49,0,120
2,note_on,70,36,120
2,note_on,61,30,0
2,note_on,66,30,0
2,note_on,66,0,120
2,note_on,61,0,0
2,note_on,70,0,0
2,note_on,56,42,120
2,note_on,56,0,120
2,note_on,65,28,120
2,note_on,71,34,0
2,note_on,61,28,0
2,note_on,61,0,120
2,note_on,71,0,0
2,note_on,65,0,0
2,note_on,49,34,120
2,note_on,49,0,120
2,note_on,65,28,120
2,note_on,61,28,0
2,note_on,71,34,0
2,note_on,71,0,120
2,note_on,61,0,0
2,note_on,65,0,0
2,note_on,56,42,120
2,note_on,56,0,120
2,note_on,65,31,120
2,note_on,71,37,0
2,note_on,61,31,0
2,note_on,61,0,120
2,note_on,71,0,0
2,note_on,65,0,0
2,note_on,49,37,120
2,note_on,49,0,120
2,note_on,61,30,120
2,note_on,65,30,0
2,note_on,71,36,0
2,note_on,71,0,120
2,note_on,65,0,0
2,note_on,61,0,0
2,note_on,54,42,120
2,note_on,54,0,120
2,note_on,70,39,120
2,note_on,66,33,0
2,note_on,61,33,0
2,note_on,61,0,120
2,note_on,66,0,0
2,note_on,70,0,0
2,note_on,49,39,120
2,note_on,49,0,120
2,note_on,61,33,120
2,note_on,70,39,0
2,note_on,66,33,0
2,note_on,66,0,120
2,note_on,70,0,0
2,note_on,61,0,0
2,note_on,54,42,120
2,note_on,54,0,120
2,note_on,61,32,120
2,note_on,70,38,0
2,note_on,66,32,0
2,note_on,66,0,120
2,note_on,70,0,0
2,note_on,61,0,0
2,note_on,49,38,120
2,note_on,49,0,120
2,note_on,66,32,120
2,note_on,70,38,0
2,note_on,61,32,0
2,note_on,61,0,120
2,note_on,70,0,0
2,note_on,66,0,0
2,note_on,56,42,120
2,note_on,56,0,120
2,note_on,65,30,120
2,note_on,61,30,0
2,note_on,71,36,0
2,note_on,71,0,120
2,note_on,61,0,0
2,note_on,65,0,0
2,note_on,49,36,120
2,note_on,49,0,120
2,note_on,71,36,120
2,note_on,61,30,0
2,note_on,65,30,0
2,note_on,65,0,120
2,note_on,61,0,0
2,note_on,71,0,0
2,note_on,56,42,120
2,note_on,56,0,120
2,note_on,71,36,120
2,note_on,65,36,0
2,note_on,61,36,0
2,note_on,61,0,120
2,note_on,65,0,0
2,note_on,71,0,0
2,note_on,49,36,120
2,note_on,49,0,120
2,note_on,71,37,120
2,note_on,65,30,0
2,note_on,61,30,0
2,note_on,61,0,120
2,note_on,65,0,0
2,note_on,71,0,0
2,note_on,54,43,120
2,note_on,54,0,120
2,note_on,66,29,120
2,note_on,70,35,0
2,note_on,61,29,0
2,note_on,61,0,120
2,note_on,70,0,0
2,note_on,66,0,0
2,note_on,49,35,120
2,note_on,49,0,120
2,note_on,66,35,120
2,note_on,61,29,0
2,note_on,61,0,120
2,note_on,66,0,0
2,note_on,54,44,120
2,note_on,54,0,120
2,note_on,66,38,120
2,note_on,61,31,0
2,note_on,61,0,120
2,note_on,66,0,0
2,note_on,49,38,120
2,note_on,49,0,120
2,note_on,61,32,120
2,note_on,66,38,0
2,note_on,66,0,120
2,note_on,61,0,0
2,note_on,56,44,120
2,note_on,56,0,120
2,note_on,65,36,120
2,note_on,59,29,0
2,note_on,61,29,0
2,note_on,61,0,120
2,note_on,59,0,0
2,note_on,65,0,0
2,note_on,49,36,120
2,note_on,49,0,120
2,note_on,65,36,120
2,note_on,61,30,0
2,note_on,59,30,0
2,note_on,59,0,120
2,note_on,61,0,0
2,note_on,65,0,0
2,note_on,56,45,120
2,note_on,56,0,120
2,note_on,61,33,120
2,note_on,65,40,0
2,note_on,59,33,0
2,note_on,59,0,120
2,note_on,65,0,0
2,note_on,61,0,0
2,note_on,49,40,120
2,note_on,49,0,120
2,note_on,61,33,120
2,note_on,59,33,0
2,note_on,65,39,0
2,note_on,65,0,120
2,note_on,59,0,0
2,note_on,61,0,0
2,note_on,54,46,120
2,note_on,54,0,120
2,note_on,61,36,120
2,note_on,66,43,0
2,note_on,58,36,0
2,note_on,58,0,120
2,note_on,66,0,0
2,note_on,61,0,0
2,note_on,49,43,120
2,note_on,49,0,120
2,note_on,61,36,120
2,note_on,58,36,0
2,note_on,66,43,0
2,note_on,66,0,120
2,note_on,58,0,0
2,note_on,61,0,0
2,note_on,54,47,120
2,note_on,54,0,120
2,note_on,58,36,120
2,note_on,66,42,0
2,note_on,61,36,0
2,note_on,61,0,120
2,note_on,66,0,0
2,note_on,58,0,0
2,note_on,49,43,120
2,note_on,49,0,120
2,note_on,61,36,120
2,note_on,66,43,0
2,note_on,58,36,0
2,note_on,58,0,120
2,note_on,66,0,0
2,note_on,61,0,0
2,note_on,51,53,120
2,note_on,51,0,120
2,note_on,60,37,120
2,note_on,66,44,0
2,note_on,56,37,0
2,note_on,56,0,120
2,note_on,66,0,0
2,note_on,60,0,0
2,note_on,44,48,120
2,note_on,44,0,120
2,note_on,60,44,120
2,note_on,56,37,0
2,note_on,56,0,120
2,note_on,60,0,0
2,note_on,54,52,120
2,note_on,54,0,120
2,note_on,60,43,120
2,note_on,56,36,0
2,note_on,56,0,120
2,note_on,60,0,0
2,note_on,44,48,120
2,note_on,44,0,120
2,note_on,56,37,120
2,note_on,60,44,0
2,note_on,60,0,120
2,note_on,56,0,0
2,note_on,49,53,120
2,note_on,49,0,120
2,note_on,61,37,120
2,note_on,56,37,0
2,note_on,65,44,0
2,note_on,65,0,120
2,note_on,56,0,0
2,note_on,61,0,0
2,note_on,44,48,120
2,note_on,44,0,120
2,note_on,61,44,120
2,note_on,56,37,0
2,note_on,56,0,120
2,note_on,61,0,0
2,note_on,49,52,120
2,note_on,49,0,120
2,note_on,56,36,120
2,note_on,61,43,0
2,note_on,61,0,120
2,note_on,56,0,0
2,note_on,44,48,120
2,note_on,44,0,120
2,note_on,61,44,120
2,note_on,56,37,0
2,note_on,56,0,120
2,note_on,61,0,0
2,note_on,51,52,120
2,note_on,51,0,120
2,note_on,54,38,120
2,note_on,60,45,0
2,note_on,56,38,0
2,note_on,56,0,120
2,note_on,60,0,0
2,note_on,54,0,0
2,note_on,44,45,120
2,note_on,44,0,120
2,note_on,56,38,120
2,note_on,60,45,0
2,note_on,54,38,0
2,note_on,54,0,120
2,note_on,60,0,0
2,note_on,56,0,0
2,note_on,51,54,120
2,note_on,51,0,120
2,note_on,60,47,120
2,note_on,66,47,0
2,note_on,56,39,0
2,note_on,56,0,120
2,note_on,66,0,0
2,note_on,60,0,0
2,note_on,44,47,120
2,note_on,44,0,120
2,note_on,60,46,120
2,note_on,56,39,0
2,note_on,56,0,120
2,note_on,60,0,0
2,note_on,49,56,120
2,note_on,49,0,120
2,note_on,61,43,120
2,note_on,65,51,0
2,note_on,56,43,0
2,note_on,56,0,120
2,note_on,65,0,0
2,note_on,61,0,0
2,note_on,44,51,120
2,note_on,44,0,120
2,note_on,56,43,120
2,note_on,61,51,0
2,note_on,61,0,120
2,note_on,56,0,0
2,note_on,49,57,120
2,note_on,49,0,120
2,note_on,65,51,120
2,note_on,56,43,0
2,note_on,61,43,0
2,note_on,61,0,120
2,note_on,56,0,0
2,note_on,65,0,0
2,note_on,44,51,120
2,note_on,44,0,120
2,note_on,61,51,120
2,note_on,56,43,0
2,note_on,56,0,120
2,note_on,61,0,0
2,note_on,51,55,120
2,note_on,51,0,120
2,note_on,66,46,120
2,note_on,56,38,0
2,note_on,60,38,0
2,note_on,60,0,120
2,note_on,56,0,0
2,note_on,66,0,0
2,note_on,44,50,120
2,note_on,44,0,120
2,note_on,56,38,120
2,note_on,60,46,0
2,note_on,60,0,120
2,note_on,56,0,0
2,note_on,51,54,120
2,note_on,51,0,120
2,note_on,60,45,120
2,note_on,56,38,0
2,note_on,56,0,120
2,note_on,60,0,0
2,note_on,44,50,120
2,note_on,44,0,120
2,note_on,56,39,120
2,note_on,60,46,0
2,note_on,60,0,120
2,note_on,56,0,0
2,note_on,49,56,120
2,note_on,49,0,120
2,note_on,65,46,120
2,note_on,61,39,0
2,note_on,56,39,0
2,note_on,56,0,120
2,note_on,61,0,0
2,note_on,65,0,0
2,note_on,44,51,120
2,note_on,44,0,120
2,note_on,61,47,120
2,note_on,56,39,0
2,note_on,56,0,120
2,note_on,61,0,0
2,note_on,49,55,120
2,note_on,49,0,120
2,note_on,56,38,120
2,note_on,61,46,0
2,note_on,61,0,120
2,note_on,56,0,0
2,note_on,44,51,120
2,note_on,44,0,120
2,note_on,61,47,120
2,note_on,56,39,0
2,note_on,56,0,120
2,note_on,61,0,0
2,note_on,51,56,120
2,note_on,51,0,120
2,note_on,54,41,120
2,note_on,60,48,0
2,note_on,56,41,0
2,note_on,56,0,120
2,note_on,60,0,0
2,note_on,54,0,0
2,note_on,44,48,120
2,note_on,44,0,120
2,note_on,60,48,120
2,note_on,56,41,0
2,note_on,54,41,0
2,note_on,54,0,120
2,note_on,56,0,0
2,note_on,60,0,0
2,note_on,51,58,120
2,note_on,51,0,120
2,note_on,56,42,120
2,note_on,60,51,0
2,note_on,66,51,0
2,note_on,66,0,120
2,note_on,60,0,0
2,note_on,56,0,0
2,note_on,44,51,120
2,note_on,44,0,120
2,note_on,60,50,120
2,note_on,56,42,0
2,note_on,56,0,120
2,note_on,60,0,0
2,note_on,56,51,120
2,note_on,49,51,0
2,note_on,61,60,0
2,note_on,61,0,240
2,note_on,49,0,0
2,note_on,56,0,0
2,note_on,50,40,0
2,note_on,62,48,0
2,note_on,62,0,120
2,note_on,50,0,0
2,note_on,48,51,120
2,note_on,60,60,0
2,note_on,60,0,240
2,note_on,48,0,0
2,note_on,61,49,0
2,note_on,49,41,0
2,note_on,49,0,120
2,note_on,61,0,0
2,note_on,47,52,120
2,note_on,59,61,0
2,note_on,59,0,240
2,note_on,47,0,0
2,note_on,60,52,0
2,note_on,48,44,0
2,note_on,48,0,120
2,note_on,60,0,0
2,note_on,58,61,120
2,note_on,46,52,0
2,note_on,46,0,240
2,note_on,58,0,0
2,note_on,47,44,0
2,note_on,59,53,0
2,note_on,59,0,120
2,note_on,47,0,0
2,note_on,57,63,120
2,note_on,45,53,0
2,note_on,45,0,240
2,note_on,57,0,0
2,note_on,46,46,0
2,note_on,58,54,0
2,note_on,58,0,120
2,note_on,46,0,0
2,note_on,44,54,120
2,note_on,56,63,0
2,note_on,56,0,240
2,note_on,44,0,0
2,note_on,57,55,0
2,note_on,45,46,0
2,note_on,45,0,120
2,note_on,57,0,0
2,note_on,55,64,120
2,note_on,43,54,0
2,note_on,43,0,240
2,note_on,55,0,0
2,note_on,44,46,0
2,note_on,56,55,0
2,note_on,56,0,120
2,note_on,44,0,0
2,note_on,54,64,120
2,note_on,42,55,0
2,note_on,42,0,240
2,note_on,54,0,0
2,note_on,43,46,0
2,note_on,55,55,0
2,note_on,55,0,120
2,note_on,43,0,0
2,note_on,53,66,120
2,note_on,41,56,0
2,note_on,41,0,240
2,note_on,53,0,0
2,note_on,42,48,0
2,note_on,54,57,0
2,note_on,54,0,120
2,note_on,42,0,0
2,note_on,40,56,120
2,note_on,52,66,0
2,note_on,52,0,240
2,note_on,40,0,0
2,note_on,41,48,0
2,note_on,53,57,0
2,note_on,53,0,120
2,note_on,41,0,0
2,note_on,39,57,120
2,note_on,51,67,0
2,note_on,51,0,240
2,note_on,39,0,0
2,note_on,52,58,0
2,note_on,40,49,0
2,note_on,40,0,120
2,note_on,52,0,0
2,note_on,50,67,120
2,note_on,38,57,0
2,note_on,38,0,240
2,note_on,50,0,0
2,note_on,51,59,0
2,note_on,39,50,0
2,note_on,39,0,120
2,note_on,51,0,0
2,note_on,37,60,120
2,note_on,49,71,0
2,note_on,49,0,240
2,note_on,37,0,0
2,note_on,38,54,0
2,note_on,50,64,0
2,note_on,50,0,240
2,note_on,38,0,0
2,note_on,44,61,0
2,note_on,49,72,0
2,note_on,37,61,0
2,note_on,37,0,240
2,note_on,49,0,0
2,note_on,44,0,0
2,note_on,50,66,0
2,note_on,38,56,0
2,note_on,38,0,240
2,note_on,50,0,0
2,note_on,49,71,0
2,note_on,44,60,0
2,note_on,37,60,0
2,note_on,37,0,240
2,note_on,44,0,0
2,note_on,49,0,0
2,note_on,50,64,0
2,note_on,38,54,0
2,note_on,38,0,240
2,note_on,50,0,0
2,note_on,49,72,0
2,note_on,37,61,0
2,note_on,44,61,0
2,note_on,44,0,240
2,note_on,37,0,0
2,note_on,49,0,0
2,note_on,38,56,0
2,note_on,50,66,0
2,note_on,50,0,240
2,note_on,38,0,0
2,note_on,37,60,0
2,note_on,44,60,0
2,note_on,49,71,0
2,note_on,49,0,240
2,note_on,44,0,0
2,note_on,37,0,0
2,note_on,48,56,0
2,note_on,60,67,0
2,note_on,49,61,240
2,note_on,61,72,0
2,note_on,60,0,20
2,note_on,48,0,0
2,note_on,48,56,220
2,note_on,60,67,0
2,note_on,49,0,20
2,note_on,61,0,0
2,note_on,49,61,220
2,note_on,61,73,0
2,note_on,48,0,20
2,note_on,60,0,0
2,note_on,49,0,100
2,note_on,61,0,0
2,note_on,48,67,120
2,note_on,36,56,0
2,note_on,37,61,240
2,note_on,49,72,0
2,note_on,36,0,20
2,note_on,48,0,0
2,note_on,48,67,220
2,note_on,36,56,0
2,note_on,37,0,20
2,note_on,49,0,0
2,note_on,48,0,220
2,note_on,36,0,0
2,note_on,37,70,0
2,note_on,49,82,0
2,note_on,53,55,240
2,note_on,56,66,0
2,note_on,56,0,120
2,note_on,53,0,0
2,note_on,49,0,120
2,note_on,37,0,0
2,note_on,41,64,0
2,note_on,53,75,0
2,note_on,61,66,240
2,note_on,56,55,0
2,note_on,56,0,120
2,note_on,61,0,0
2,note_on,53,0,120
2,note_on,41,0,0
2,note_on,58,90,0
2,note_on,46,76,0
2,note_on,65,66,240
2,note_on,61,55,0
2,note_on,61,0,120
2,note_on,65,0,0
2,note_on,61,55,120
2,note_on,65,66,0
2,note_on,65,0,120
2,note_on,61,0,0
2,note_on,46,0,120
2,note_on,58,0,0
2,note_on,56,80,0
2,note_on,44,67,0
2,note_on,44,0,120
2,note_on,56,0,0
2,note_on,49,72,120
2,note_on,46,57,0
2,note_on,42,57,0
2,note_on,54,85,0
2,note_on,54,0,120
2,note_on,49,0,0
2,note_on,46,0,0
2,note_on,42,0,0
2,note_on,53,75,120
2,note_on,41,63,0
2,note_on,41,0,120
2,note_on,53,0,0
2,note_on,52,75,120
2,note_on,40,63,0
2,note_on,40,0,120
2,note_on,52,0,0
2,note_on,39,60,60
2,note_on,42,62,20
2,note_on,46,64,20
2,note_on,51,78,20
2,note_on,51,0,120
2,note_on,39,0,0
2,note_on,42,0,0
2,note_on,46,0,0
2,note_on,38,62,120
2,note_on,50,74,0
2,note_on,50,0,120
2,note_on,38,0,0
2,note_on,37,55,60
2,note_on,42,57,20
2,note_on,46,58,20
2,note_on,49,74,20
2,note_on,49,0,120
2,note_on,37,0,0
2,note_on,42,0,0
2,note_on,46,0,0
2,note_on,48,75,120
2,note_on,36,59,0
2,note_on,36,0,120
2,note_on,48,0,0
2,note_on,49,72,120
2,note_on,37,61,0
2,note_on,37,0,120
2,note_on,49,0,0
2,note_on,49,82,120
2,note_on,37,70,0
2,note_on,56,55,240
2,note_on,53,55,0
2,note_on,53,0,120
2,note_on,56,0,0
2,note_on,37,0,120
2,note_on,49,0,0
2,note_on,53,75,0
2,note_on,41,64,0
2,note_on,56,55,240
2,note_on,61,55,0
2,note_on,61,0,120
2,note_on,56,0,0
2,note_on,41,0,120
2,note_on,53,0,0
2,note_on,46,76,0
2,note_on,58,90,0
2,note_on,61,55,240
2,note_on,65,66,0
2,note_on,65,0,120
2,note_on,61,0,0
2,note_on,61,55,120
2,note_on,65,66,0
2,note_on,65,0,120
2,note_on,61,0,0
2,note_on,58,0,120
2,note_on,46,0,0
2,note_on,56,80,0
2,note_on,44,67,0
2,note_on,44,0,120
2,note_on,56,0,0
2,note_on,54,85,120
2,note_on,46,57,0
2,note_on,42,57,0
2,note_on,49,72,0
2,note_on,49,0,120
2,note_on,54,0,0
2,note_on,46,0,0
2,note_on,42,0,0
2,note_on,41,63,120
2,note_on,53,75,0
2,note_on,53,0,120
2,note_on,41,0,0
2,note_on,51,75,120
2,note_on,39,63,0
2,note_on,39,0,120
2,note_on,51,0,0
2,note_on,49,66,120
2,note_on,42,52,0
2,note_on,37,50,0
2,note_on,46,55,0
2,note_on,46,0,120
2,note_on,49,0,0
2,note_on,42,0,0
2,note_on,37,0,0
2,note_on,54,79,120
2,note_on,46,67,0
2,note_on,42,67,0
2,note_on,49,67,0
2,note_on,49,0,480
2,note_on,54,0,0
2,note_on,46,0,0
2,note_on,42,0,0
2,note_on,54,61,0
2,note_on,49,61,0
2,note_on,58,72,0
2,note_on,46,61,0
2,note_on,46,0,480
2,note_on,54,0,0
2,note_on,49,0,0
2,note_on,58,0,0
2,note_on,49,61,0
2,note_on,37,51,0
2,note_on,37,0,120
2,note_on,49,0,0
2,note_on,61,77,120
2,note_on,49,65,0
2,note_on,49,0,240
2,note_on,61,0,0
2,note_on,44,51,0
2,note_on,56,61,7
2,note_on,44,0,113
2,note_on,56,0,7
2,note_on,53,67,113
2,note_on,65,80,0
2,note_on,65,0,240
2,note_on,53,0,0
2,note_on,49,54,0
2,note_on,61,65,0
2,note_on,61,0,120
2,note_on,49,0,0
2,note_on,70,87,120
2,note_on,58,73,0
2,note_on,58,0,480
2,note_on,70,0,0
2,note_on,68,75,0
2,note_on,56,64,0
2,note_on,56,0,120
2,note_on,68,0,0
2,note_on,66,84,120
2,note_on,54,71,0
2,note_on,54,0,120
2,note_on,66,0,0
2,note_on,53,58,120
2,note_on,65,70,0
2,note_on,65,0,120
2,note_on,53,0,0
2,note_on,64,70,120
2,note_on,52,58,0
2,note_on,52,0,120
2,note_on,64,0,0
2,note_on,51,58,120
2,note_on,63,70,0
2,note_on,63,0,120
2,note_on,51,0,0
2,note_on,50,71,120
2,note_on,62,85,0
2,note_on,62,0,120
2,note_on,50,0,0
2,note_on,61,69,120
2,note_on,49,58,0
2,note_on,49,0,120
2,note_on,61,0,0
2,note_on,46,58,120
2,note_on,58,69,0
2,note_on,58,0,120
2,note_on,46,0,0
2,note_on,54,69,120
2,note_on,42,58,0
2,note_on,42,0,120
2,note_on,54,0,0
2,note_on,49,67,120
2,note_on,37,57,0
2,note_on,37,0,120
2,note_on,49,0,0
2,note_on,49,71,120
2,note_on,61,84,0
2,note_on,61,0,240
2,note_on,49,0,0
2,note_on,44,53,0
2,note_on,56,64,7
2,note_on,44,0,113
2,note_on,56,0,7
2,note_on,65,82,113
2,note_on,53,70,0
2,note_on,53,0,240
2,note_on,65,0,0
2,note_on,61,65,0
2,note_on,49,54,0
2,note_on,49,0,120
2,note_on,61,0,0
2,note_on,58,73,120
2,note_on,70,87,0
2,note_on,70,0,480
2,note_on,58,0,0
2,note_on,68,75,0
2,note_on,56,64,0
2,note_on,56,0,120
2,note_on,68,0,0
2,note_on,54,71,120
2,note_on,66,84,0
2,note_on,66,0,120
2,note_on,54,0,0
2,note_on,65,70,120
2,note_on,53,58,0
2,note_on,53,0,120
2,note_on,65,0,0
2,note_on,64,70,120
2,note_on,52,58,0
2,note_on,52,0,120
2,note_on,64,0,0
2,note_on,51,58,120
2,note_on,63,70,0
2,note_on,63,0,120
2,note_on,51,0,0
2,note_on,50,64,120
2,note_on,62,76,0
2,note_on,62,0,120
2,note_on,50,0,0
2,note_on,61,66,120
2,note_on,49,55,0
2,note_on,49,0,120
2,note_on,61,0,0
2,note_on,60,65,120
2,note_on,48,54,0
2,note_on,48,0,120
2,note_on,60,0,0
2,note_on,49,52,120
2,note_on,61,63,0
2,note_on,61,0,120
2,note_on,49,0,0
2,note_on,56,42,120
2,note_on,56,0,120
2,note_on,65,37,120
2,note_on,61,37,0
2,note_on,71,37,0
2,note_on,71,0,120
2,note_on,61,0,0
2,note_on,65,0,0
2,note_on,49,42,120
2,note_on,49,0,120
2,note_on,65,37,120
2,note_on,61,37,0
2,note_on,71,37,0
2,note_on,71,0,120
2,note_on,61,0,0
2,note_on,65,0,0
2,note_on,68,37,120
2,note_on,72,42,0
2,note_on,72,0,120
2,note_on,68,0,0
2,note_on,65,37,120
2,note_on,73,37,0
2,note_on,73,0,120
2,note_on,65,0,0
2,note_on,68,42,120
2,note_on,71,48,0
2,note_on,71,0,360
2,note_on,68,0,0
2,note_on,65,37,0
2,note_on,73,37,0
2,note_on,73,0,120
2,note_on,65,0,0
2,note_on,54,42,0
2,note_on,54,0,120
2,note_on,66,37,120
2,note_on,70,37,0
2,note_on,61,37,0
2,note_on,61,0,120
2,note_on,70,0,0
2,note_on,66,0,0
2,note_on,49,42,120
2,note_on,49,0,120
2,note_on,66,37,120
2,note_on,70,37,0
2,note_on,61,37,0
2,note_on,61,0,120
2,note_on,70,0,0
2,note_on,66,0,0
2,note_on,69,37,120
2,note_on,72,42,0
2,note_on,72,0,120
2,note_on,69,0,0
2,note_on,70,37,120
2,note_on,73,37,0
2,note_on,73,0,120
2,note_on,70,0,0
2,note_on,66,42,120
2,note_on,70,48,0
2,note_on,70,0,360
2,note_on,73,37,0
2,note_on,73,0,120
2,note_on,66,0,0
2,note_on,56,42,0
2,note_on,56,0,120
2,note_on,65,37,120
2,note_on,61,37,0
2,note_on,71,37,0
2,note_on,71,0,120
2,note_on,61,0,0
2,note_on,65,0,0
2,note_on,49,42,120
2,note_on,49,0,120
2,note_on,65,37,120
2,note_on,71,37,0
2,note_on,61,37,0
2,note_on,61,0,120
2,note_on,71,0,0
2,note_on,65,0,0
2,note_on,68,37,120
2,note_on,72,42,0
2,note_on,72,0,120
2,note_on,68,0,0
2,note_on,65,37,120
2,note_on,73,37,0
2,note_on,73,0,120
2,note_on,65,0,0
2,note_on,71,48,120
2,note_on,68,42,0
2,note_on,68,0,360
2,note_on,71,0,0
2,note_on,73,37,0
2,note_on,65,37,0
2,note_on,65,0,120
2,note_on,73,0,0
2,note_on,54,42,0
2,note_on,54,0,120
2,note_on,66,37,120
2,note_on,70,37,0
2,note_on,61,37,0
2,note_on,61,0,120
2,note_on,70,0,0
2,note_on,66,0,0
2,note_on,49,42,120
2,note_on,49,0,120
2,note_on,66,37,120
2,note_on,70,37,0
2,note_on,61,37,0
2,note_on,61,0,120
2,note_on,70,0,0
2,note_on,66,0,0
2,note_on,69,37,120
2,note_on,72,42,0
2,note_on,72,0,120
2,note_on,69,0,0
2,note_on,70,37,120
2,note_on,73,37,0
2,note_on,73,0,120
2,note_on,70,0,0
2,note_on,66,42,120
2,note_on,70,48,0
2,note_on,70,0,360
2,note_on,73,37,0
2,note_on,73,0,60
2,note_on,66,0,0
2,note_on,66,42,60
2,note_on,66,0,120
2,note_on,71,31,120
2,note_on,75,37,0
2,note_on,75,0,120
2,note_on,71,0,0
2,note_on,61,42,120
2,note_on,61,0,120
2,note_on,78,37,120
2,note_on,75,31,0
2,note_on,75,0,120
2,note_on,78,0,0
2,note_on,66,42,120
2,note_on,66,0,120
2,note_on,75,31,120
2,note_on,78,37,0
2,note_on,78,0,120
2,note_on,75,0,0
2,note_on,71,42,120
2,note_on,71,0,120
2,note_on,78,37,120
2,note_on,75,31,0
2,note_on,75,0,120
2,note_on,78,0,0
2,note_on,66,42,120
2,note_on,66,0,120
2,note_on,70,31,120
2,note_on,73,37,0
2,note_on,73,0,120
2,note_on,70,0,0
2,note_on,61,42,120
2,note_on,61,0,120
2,note_on,73,31,120
2,note_on,78,37,0
2,note_on,78,0,120
2,note_on,73,0,0
2,note_on,66,42,120
2,note_on,66,0,120
2,note_on,73,31,120
2,note_on,78,37,0
2,note_on,78,0,120
2,note_on,73,0,0
2,note_on,70,42,120
2,note_on,70,0,120
2,note_on,73,31,120
2,note_on,78,37,0
2,note_on,78,0,120
2,note_on,73,0,0
2,note_on,66,42,120
2,note_on,66,0,120
2,note_on,75,37,120
2,note_on,71,31,0
2,note_on,71,0,120
2,note_on,75,0,0
2,note_on,61,42,120
2,note_on,61,0,120
2,note_on,75,31,120
2,note_on,78,37,0
2,note_on,78,0,120
2,note_on,75,0,0
2,note_on,66,42,120
2,note_on,66,0,120
2,note_on,78,37,120
2,note_on,75,31,0
2,note_on,75,0,120
2,note_on,78,0,0
2,note_on,71,42,120
2,note_on,71,0,120
2,note_on,78,37,120
2,note_on,75,31,0
2,note_on,75,0,120
2,note_on,78,0,0
2,note_on,66,42,120
2,note_on,66,0,120
2,note_on,70,31,120
2,note_on,73,37,0
2,note_on,73,0,120
2,note_on,70,0,0
2,note_on,61,42,120
2,note_on,61,0,120
2,note_on,73,31,120
2,note_on,78,37,0
2,note_on,78,0,120
2,note_on,73,0,0
2,note_on,66,42,120
2,note_on,66,0,120
2,note_on,73,31,120
2,note_on,78,37,0
2,note_on,78,0,120
2,note_on,73,0,0
2,note_on,70,42,120
2,note_on,70,0,120
2,note_on,78,37,120
2,note_on,73,31,0
2,note_on,73,0,120
2,note_on,78,0,0
2,note_on,56,42,120
2,note_on,56,0,120
2,note_on,71,33,120
2,note_on,65,28,0
2,note_on,65,0,120
2,note_on,71,0,0
2,note_on,61,36,120
2,note_on,61,0,120
2,note_on,71,33,120
2,note_on,65,28,0
2,note_on,65,0,120
2,note_on,71,0,0
2,note_on,65,28,360
2,note_on,71,33,0
2,note_on,71,0,120
2,note_on,65,0,0
2,note_on,61,38,120
2,note_on,61,0,120
2,note_on,65,28,120
2,note_on,71,33,0
2,note_on,71,0,120
2,note_on,65,0,0
2,note_on,58,42,120
2,note_on,58,0,120
2,note_on,66,28,120
2,note_on,70,33,0
2,note_on,70,0,120
2,note_on,66,0,0
2,note_on,61,36,120
2,note_on,61,0,120
2,note_on,70,33,120
2,note_on,66,28,0
2,note_on,66,0,120
2,note_on,70,0,0
2,note_on,58,44,120
2,note_on,58,0,120
2,note_on,66,28,120
2,note_on,70,33,0
2,note_on,70,0,120
2,note_on,66,0,0
2,note_on,70,33,360
2,note_on,66,28,0
2,note_on,66,0,120
2,note_on,70,0,0
2,note_on,56,44,120
2,note_on,56,0,120
2,note_on,65,28,120
2,note_on,71,33,0
2,note_on,71,0,60
2,note_on,65,0,0
2,note_on,61,38,180
2,note_on,61,0,120
2,note_on,65,28,120
2,note_on,71,33,0
2,note_on,71,0,60
2,note_on,65,0,0
2,note_on,56,44,180
2,note_on,56,0,120
2,note_on,65,28,120
2,note_on,71,33,0
2,note_on,71,0,60
2,note_on,65,0,0
2,note_on,61,38,180
2,note_on,61,0,120
2,note_on,71,33,120
2,note_on,65,28,0
2,note_on,65,0,60
2,note_on,71,0,0
2,note_on,58,44,180
2,note_on,58,0,120
2,note_on,70,33,120
2,note_on,66,28,0
2,note_on,66,0,60
2,note_on,70,0,0
2,note_on,61,38,180
2,note_on,61,0,120
2,note_on,70,33,120
2,note_on,66,28,0
2,note_on,66,0,60
2,note_on,70,0,0
2,note_on,58,44,180
2,note_on,58,0,120
2,note_on,66,28,120
2,note_on,70,33,0
2,note_on,70,0,60
2,note_on,66,0,0
2,note_on,61,38,180
2,note_on,61,0,120
2,note_on,66,28,120
2,note_on,70,33,0
2,note_on,70,0,60
2,note_on,66,0,0
2,note_on,56,42,180
2,note_on,56,0,120
2,note_on,59,28,120
2,note_on,65,33,0
2,note_on,65,0,120
2,note_on,59,0,0
2,note_on,49,36,120
2,note_on,49,0,120
2,note_on,59,28,120
2,note_on,61,33,0
2,note_on,61,0,120
2,note_on,59,0,0
2,note_on,56,44,120
2,note_on,56,0,120
2,note_on,59,28,120
2,note_on,65,33,0
2,note_on,65,0,120
2,note_on,59,0,0
2,note_on,49,38,120
2,note_on,49,0,120
2,note_on,59,28,120
2,note_on,61,33,0
2,note_on,61,0,120
2,note_on,59,0,0
2,note_on,54,42,120
2,note_on,54,0,120
2,note_on,66,33,120
2,note_on,58,28,0
2,note_on,58,0,120
2,note_on,66,0,0
2,note_on,49,36,120
2,note_on,49,0,120
2,note_on,58,28,120
2,note_on,61,33,0
2,note_on,61,0,120
2,note_on,58,0,0
2,note_on,54,44,120
2,note_on,54,0,120
2,note_on,66,33,120
2,note_on,58,28,0
2,note_on,58,0,120
2,note_on,66,0,0
2,note_on,49,38,120
2,note_on,49,0,120
2,note_on,58,28,120
2,note_on,61,33,0
2,note_on,61,0,120
2,note_on,58,0,0
2,note_on,56,44,123
2,note_on,56,0,120
2,note_on,65,33,117
2,note_on,59,28,0
2,note_on,59,0,60
2,note_on,65,0,0
2,note_on,49,38,180
2,note_on,49,0,120
2,note_on,61,33,120
2,note_on,59,28,0
2,note_on,59,0,60
2,note_on,61,0,0
2,note_on,56,44,180
2,note_on,56,0,120
2,note_on,59,28,120
2,note_on,65,33,0
2,note_on,65,0,60
2,note_on,59,0,0
2,note_on,49,38,180
2,note_on,49,0,120
2,note_on,59,28,120
2,note_on,61,33,0
2,note_on,61,0,60
2,note_on,59,0,0
2,note_on,54,44,180
2,note_on,54,0,120
2,note_on,58,28,120
2,note_on,66,33,0
2,note_on,66,0,60
2,note_on,58,0,0
2,note_on,49,38,180
2,note_on,49,0,120
2,note_on,61,33,120
2,note_on,58,28,0
2,note_on,58,0,60
2,note_on,61,0,0
2,note_on,54,44,180
2,note_on,54,0,120
2,note_on,66,33,120
2,note_on,58,28,0
2,note_on,58,0,60
2,note_on,66,0,0
2,note_on,49,38,180
2,note_on,49,0,120
2,note_on,58,28,120
2,note_on,61,33,0
2,note_on,61,0,60
2,note_on,58,0,0
2,note_on,51,42,180
2,note_on,51,0,120
2,note_on,66,33,120
2,note_on,60,28,0
2,note_on,60,0,120
2,note_on,66,0,0
2,note_on,56,36,120
2,note_on,56,0,120
2,note_on,66,33,120
2,note_on,60,28,0
2,note_on,60,0,120
2,note_on,66,0,0
2,note_on,60,28,360
2,note_on,66,33,0
2,note_on,66,0,120
2,note_on,60,0,0
2,note_on,56,38,120
2,note_on,56,0,120
2,note_on,60,28,120
2,note_on,66,33,0
2,note_on,66,0,120
2,note_on,60,0,0
2,note_on,53,42,120
2,note_on,53,0,120
2,note_on,61,28,120
2,note_on,65,33,0
2,note_on,65,0,120
2,note_on,61,0,0
2,note_on,56,36,120
2,note_on,56,0,120
2,note_on,61,28,120
2,note_on,65,33,0
2,note_on,65,0,120
2,note_on,61,0,0
2,note_on,53,44,120
2,note_on,53,0,120
2,note_on,65,33,120
2,note_on,61,28,0
2,note_on,61,0,120
2,note_on,65,0,0
2,note_on,65,33,360
2,note_on,61,28,0
2,note_on,61,0,120
2,note_on,65,0,0
2,note_on,51,44,120
2,note_on,51,0,120
2,note_on,66,33,120
2,note_on,60,28,0
2,note_on,60,0,60
2,note_on,66,0,0
2,note_on,56,38,180
2,note_on,56,0,120
2,note_on,60,28,120
2,note_on,66,33,0
2,note_on,66,0,60
2,note_on,60,0,0
2,note_on,51,44,180
2,note_on,51,0,120
2,note_on,66,33,120
2,note_on,60,28,0
2,note_on,60,0,60
2,note_on,66,0,0
2,note_on,56,38,180
2,note_on,56,0,120
2,note_on,60,28,120
2,note_on,66,33,0
2,note_on,66,0,60
2,note_on,60,0,0
2,note_on,53,44,180
2,note_on,53,0,120
2,note_on,61,28,120
2,note_on,65,33,0
2,note_on,65,0,60
2,note_on,61,0,0
2,note_on,56,38,180
2,note_on,56,0,120
2,note_on,61,28,120
2,note_on,65,33,0
2,note_on,65,0,60
2,note_on,61,0,0
2,note_on,53,44,180
2,note_on,53,0,120
2,note_on,61,28,120
2,note_on,65,33,0
2,note_on,65,0,60
2,note_on,61,0,0
2,note_on,56,38,180
2,note_on,56,0,120
2,note_on,65,33,120
2,note_on,61,28,0
2,note_on,61,0,60
2,note_on,65,0,0
2,note_on,51,46,180
2,note_on,51,0,120
2,note_on,60,30,120
2,note_on,56,30,0
2,note_on,66,36,0
2,note_on,66,0,120
2,note_on,56,0,0
2,note_on,60,0,0
2,note_on,44,39,120
2,note_on,44,0,120
2,note_on,60,30,120
2,note_on,56,30,0
2,note_on,66,36,0
2,note_on,66,0,120
2,note_on,56,0,0
2,note_on,60,0,0
2,note_on,51,48,120
2,note_on,51,0,120
2,note_on,66,36,120
2,note_on,56,30,0
2,note_on,60,30,0
2,note_on,60,0,120
2,note_on,56,0,0
2,note_on,66,0,0
2,note_on,44,41,120
2,note_on,44,0,120
2,note_on,60,30,120
2,note_on,66,36,0
2,note_on,56,30,0
2,note_on,56,0,120
2,note_on,66,0,0
2,note_on,60,0,0
2,note_on,49,46,120
2,note_on,49,0,120
2,note_on,56,30,120
2,note_on,65,36,0
2,note_on,61,30,0
2,note_on,61,0,120
2,note_on,65,0,0
2,note_on,56,0,0
2,note_on,44,39,120
2,note_on,44,0,120
2,note_on,61,30,120
2,note_on,56,30,0
2,note_on,65,36,0
2,note_on,65,0,120
2,note_on,56,0,0
2,note_on,61,0,0
2,note_on,49,48,120
2,note_on,49,0,120
2,note_on,56,30,120
2,note_on,65,36,0
2,note_on,61,30,0
2,note_on,61,0,120
2,note_on,65,0,0
2,note_on,56,0,0
2,note_on,44,41,120
2,note_on,44,0,120
2,note_on,61,30,120
2,note_on,56,30,0
2,note_on,65,36,0
2,note_on,65,0,120
2,note_on,56,0,0
2,note_on,61,0,0
2,note_on,51,48,123
2,note_on,51,0,120
2,note_on,66,36,117
2,note_on,60,30,0
2,note_on,56,30,0
2,note_on,56,0,60
2,note_on,60,0,0
2,note_on,66,0,0
2,note_on,44,41,180
2,note_on,44,0,120
2,note_on,60,30,120
2,note_on,56,30,0
2,note_on,66,36,0
2,note_on,66,0,60
2,note_on,56,0,0
2,note_on,60,0,0
2,note_on,51,48,180
2,note_on,51,0,120
2,note_on,56,30,120
2,note_on,60,30,0
2,note_on,66,36,0
2,note_on,66,0,60
2,note_on,60,0,0
2,note_on,56,0,0
2,note_on,44,41,180
2,note_on,44,0,120
2,note_on,66,36,120
2,note_on,60,30,0
2,note_on,56,30,0
2,note_on,56,0,60
2,note_on,60,0,0
2,note_on,66,0,0
2,note_on,49,48,180
2,note_on,49,0,120
2,note_on,65,36,120
2,note_on,56,30,0
2,note_on,61,30,0
2,note_on,61,0,60
2,note_on,56,0,0
2,note_on,65,0,0
2,note_on,44,41,180
2,note_on,44,0,120
2,note_on,65,36,120
2,note_on,61,30,0
2,note_on,56,30,0
2,note_on,56,0,60
2,note_on,61,0,0
2,note_on,65,0,0
2,note_on,49,48,180
2,note_on,49,0,120
2,note_on,65,36,120
2,note_on,61,30,0
2,note_on,56,30,0
2,note_on,56,0,60
2,note_on,61,0,0
2,note_on,65,0,0
2,note_on,44,41,180
2,note_on,44,0,120
2,note_on,65,36,120
2,note_on,56,30,0
2,note_on,61,30,0
2,note_on,61,0,60
2,note_on,56,0,0
2,note_on,65,0,180
2,note_on,51,52,0
2,note_on,51,0,120
2,note_on,66,41,120
2,note_on,60,34,0
2,note_on,56,34,0
2,note_on,56,0,120
2,note_on,60,0,0
2,note_on,66,0,0
2,note_on,44,44,120
2,note_on,44,0,120
2,note_on,60,34,120
2,note_on,56,34,0
2,note_on,66,41,0
2,note_on,66,0,120
2,note_on,56,0,0
2,note_on,60,0,0
2,note_on,51,55,120
2,note_on,51,0,120
2,note_on,66,41,120
2,note_on,60,34,0
2,note_on,56,34,0
2,note_on,56,0,120
2,note_on,60,0,0
2,note_on,66,0,0
2,note_on,44,47,120
2,note_on,44,0,120
2,note_on,60,34,120
2,note_on,66,41,0
2,note_on,56,34,0
2,note_on,56,0,120
2,note_on,66,0,0
2,note_on,60,0,0
2,note_on,49,57,120
2,note_on,49,0,120
2,note_on,65,45,120
2,note_on,61,37,0
2,note_on,56,37,0
2,note_on,56,0,120
2,note_on,61,0,0
2,note_on,65,0,0
2,note_on,44,48,120
2,note_on,44,0,120
2,note_on,56,37,120
2,note_on,65,45,0
2,note_on,61,37,0
2,note_on,61,0,120
2,note_on,65,0,0
2,note_on,56,0,0
2,note_on,49,60,120
2,note_on,49,0,120
2,note_on,61,37,120
2,note_on,56,37,0
2,note_on,65,45,0
2,note_on,65,0,120
2,note_on,56,0,0
2,note_on,61,0,0
2,note_on,44,51,120
2,note_on,44,0,120
2,note_on,56,37,120
2,note_on,65,45,0
2,note_on,61,37,0
2,note_on,61,0,120
2,note_on,65,0,0
2,note_on,56,0,0
2,note_on,51,60,123
2,note_on,51,0,120
2,note_on,60,37,117
2,note_on,56,37,0
2,note_on,66,45,0
2,note_on,66,0,60
2,note_on,56,0,0
2,note_on,60,0,0
2,note_on,44,51,180
2,note_on,44,0,120
2,note_on,60,37,120
2,note_on,66,45,0
2,note_on,56,37,0
2,note_on,56,0,60
2,note_on,66,0,0
2,note_on,60,0,0
2,note_on,51,60,180
2,note_on,51,0,120
2,note_on,66,45,120
2,note_on,60,37,0
2,note_on,56,37,0
2,note_on,56,0,60
2,note_on,60,0,0
2,note_on,66,0,0
2,note_on,44,51,180
2,note_on,44,0,120
2,note_on,66,45,120
2,note_on,56,37,0
2,note_on,60,37,0
2,note_on,60,0,60
2,note_on,56,0,0
2,note_on,66,0,0
2,note_on,61,50,180
2,note_on,49,42,0
2,note_on,49,0,240
2,note_on,61,0,0
2,note_on,60,53,0
2,note_on,48,45,0
2,note_on,48,0,240
2,note_on,60,0,0
2,note_on,47,47,0
2,note_on,59,56,0
2,note_on,59,0,240
2,note_on,47,0,0
2,note_on,58,59,0
2,note_on,46,49,0
2,note_on,46,0,240
2,note_on,58,0,0
2,note_on,45,52,0
2,note_on,57,62,0
2,note_on,57,0,240
2,note_on,45,0,0
2,note_on,58,58,0
2,note_on,46,49,0
2,note_on,46,0,240
2,note_on,58,0,0
2,note_on,59,53,0
2,note_on,47,45,0
2,note_on,47,0,240
2,note_on,59,0,0
2,note_on,48,41,0
2,note_on,60,49,0
2,note_on,60,0,240
2,note_on,48,0,0
2,note_on,59,50,0
2,note_on,47,42,0
2,note_on,47,0,240
2,note_on,59,0,0
2,note_on,46,45,0
2,note_on,58,53,0
2,note_on,58,0,240
2,note_on,46,0,0
2,note_on,57,56,0
2,note_on,45,47,0
2,note_on,45,0,240
2,note_on,57,0,0
2,note_on,56,59,0
2,note_on,44,49,0
2,note_on,44,0,240
2,note_on,56,0,0
2,note_on,43,52,0
2,note_on,55,62,0
2,note_on,55,0,240
2,note_on,43,0,0
2,note_on,56,58,0
2,note_on,44,49,0
2,note_on,44,0,240
2,note_on,56,0,0
2,note_on,57,54,0
2,note_on,45,45,0
2,note_on,45,0,240
2,note_on,57,0,0
2,note_on,46,41,0
2,note_on,58,49,0
2,note_on,58,0,240
2,note_on,46,0,0
2,note_on,57,51,0
2,note_on,45,42,0
2,note_on,45,0,240
2,note_on,57,0,0
2,note_on,56,54,0
2,note_on,44,45,0
2,note_on,44,0,240
2,note_on,56,0,0
2,note_on,43,47,0
2,note_on,55,57,0
2,note_on,55,0,240
2,note_on,43,0,0
2,note_on,54,60,0
2,note_on,42,49,0
2,note_on,42,0,240
2,note_on,54,0,0
2,note_on,41,53,0
2,note_on,53,63,0
2,note_on,53,0,240
2,note_on,41,0,0
2,note_on,42,50,0
2,note_on,54,59,0
2,note_on,54,0,240
2,note_on,42,0,0
2,note_on,43,46,0
2,note_on,55,54,0
2,note_on,55,0,240
2,note_on,43,0,0
2,note_on,44,42,0
2,note_on,56,50,0
2,note_on,56,0,240
2,note_on,44,0,0
2,note_on,55,51,0
2,note_on,43,43,0
2,note_on,43,0,240
2,note_on,55,0,0
2,note_on,54,53,0
2,note_on,42,45,0
2,note_on,42,0,240
2,note_on,54,0,0
2,note_on,41,47,0
2,note_on,53,55,0
2,note_on,53,0,240
2,note_on,41,0,0
2,note_on,40,48,0
2,note_on,52,58,0
2,note_on,52,0,240
2,note_on,40,0,0
2,note_on,51,61,0
2,note_on,39,50,0
2,note_on,39,0,240
2,note_on,51,0,0
2,note_on,50,64,0
2,note_on,38,54,0
2,note_on,38,0,240
2,note_on,50,0,0
2,note_on,49,66,0
2,note_on,37,55,0
2,note_on,37,0,240
2,note_on,49,0,0
2,note_on,36,58,0
2,note_on,48,68,0
2,note_on,48,0,240
2,note_on,36,0,0
2,note_on,35,61,0
2,note_on,47,71,0
2,note_on,47,0,240
2,note_on,35,0,0
2,note_on,46,75,0
2,note_on,34,63,0
2,note_on,34,0,240
2,note_on,46,0,0
2,note_on,33,66,0
2,note_on,45,78,0
2,note_on,45,0,240
2,note_on,33,0,0
2,note_on,46,76,0
2,note_on,34,64,0
2,note_on,34,0,240
2,note_on,46,0,0
2,note_on,35,64,0
2,note_on,47,75,0
2,note_on,47,0,240
2,note_on,35,0,0
2,note_on,36,63,0
2,note_on,48,73,0
2,note_on,48,0,240
2,note_on,36,0,0
2,note_on,37,59,0
2,note_on,49,71,0
2,note_on,49,0,240
2,note_on,37,0,0
2,note_on,38,58,0
2,note_on,50,70,0
2,note_on,50,0,240
2,note_on,38,0,0
2,note_on,39,55,0
2,note_on,51,67,0
2,note_on,51,0,240
2,note_on,39,0,0
2,note_on,52,66,0
2,note_on,40,55,0
2,note_on,40,0,240
2,note_on,52,0,0
2,note_on,41,53,0
2,note_on,53,64,0
2,note_on,53,0,240
2,note_on,41,0,0
2,note_on,40,51,0
2,note_on,52,60,0
2,note_on,52,0,240
2,note_on,40,0,0
2,note_on,51,64,0
2,note_on,39,53,0
2,note_on,39,0,240
2,note_on,51,0,0
2,note_on,50,66,0
2,note_on,38,55,0
2,note_on,38,0,240
2,note_on,50,0,0
2,note_on,37,57,0
2,note_on,49,69,0
2,note_on,49,0,240
2,note_on,37,0,0
2,note_on,36,59,0
2,note_on,48,71,0
2,note_on,48,0,240
2,note_on,36,0,0
2,note_on,47,73,0
2,note_on,35,63,0
2,note_on,35,0,240
2,note_on,47,0,0
2,note_on,34,64,0
2,note_on,46,76,0
2,note_on,46,0,240
2,note_on,34,0,0
2,note_on,33,66,0
2,note_on,45,78,0
2,note_on,45,0,240
2,note_on,33,0,0
2,note_on,46,76,0
2,note_on,34,64,0
2,note_on,34,0,240
2,note_on,46,0,0
2,note_on,35,64,0
2,note_on,47,75,0
2,note_on,47,0,240
2,note_on,35,0,0
2,note_on,36,63,0
2,note_on,48,73,0
2,note_on,48,0,240
2,note_on,36,0,0
2,note_on,37,59,0
2,note_on,49,71,0
2,note_on,44,59,0
2,note_on,44,0,240
2,note_on,49,0,0
2,note_on,37,0,0
2,note_on,38,58,0
2,note_on,50,70,0
2,note_on,50,0,240
2,note_on,38,0,0
2,note_on,44,63,0
2,note_on,37,63,0
2,note_on,49,74,0
2,note_on,49,0,240
2,note_on,37,0,0
2,note_on,44,0,0
2,note_on,50,67,0
2,note_on,38,56,0
2,note_on,38,0,240
2,note_on,50,0,0
2,note_on,44,64,0
2,note_on,37,64,0
2,note_on,49,75,0
2,note_on,49,0,240
2,note_on,37,0,0
2,note_on,44,0,0
2,note_on,38,58,0
2,note_on,50,69,0
2,note_on,50,0,240
2,note_on,38,0,0
2,note_on,49,74,0
2,note_on,44,63,0
2,note_on,37,63,0
2,note_on,37,0,240
2,note_on,44,0,0
2,note_on,49,0,0
2,note_on,48,56,0
2,note_on,60,67,0
2,note_on,61,72,240
2,note_on,49,61,0
2,note_on,60,0,20
2,note_on,48,0,0
2,note_on,60,67,220
2,note_on,48,56,0
2,note_on,61,0,20
2,note_on,49,0,0
2,note_on,61,73,220
2,note_on,49,61,0
2,note_on,60,0,20
2,note_on,48,0,0
2,note_on,61,0,100
2,note_on,49,0,0
2,note_on,49,67,120
2,note_on,37,56,0
2,note_on,50,72,240
2,note_on,38,61,0
2,note_on,37,0,20
2,note_on,49,0,0
2,note_on,39,56,220
2,note_on,51,67,0
2,note_on,50,0,20
2,note_on,38,0,0
2,note_on,39,0,220
2,note_on,51,0,0
2,note_on,40,73,0
2,note_on,52,86,0
2,note_on,59,69,240
2,note_on,56,57,0
2,note_on,56,0,120
2,note_on,59,0,0
2,note_on,52,0,120
2,note_on,40,0,0
2,note_on,44,67,0
2,note_on,56,78,0
2,note_on,64,69,240
2,note_on,59,57,0
2,note_on,59,0,120
2,note_on,64,0,0
2,note_on,56,0,120
2,note_on,44,0,0
2,note_on,61,94,0
2,note_on,49,79,0
2,note_on,68,69,240
2,note_on,64,57,0
2,note_on,64,0,120
2,note_on,68,0,0
2,note_on,68,69,120
2,note_on,64,57,0
2,note_on,64,0,120
2,note_on,68,0,0
2,note_on,49,0,120
2,note_on,61,0,0
2,note_on,59,84,0
2,note_on,47,70,0
2,note_on,47,0,120
2,note_on,59,0,0
2,note_on,52,75,120
2,note_on,57,89,0
2,note_on,49,75,0
2,note_on,45,75,0
2,note_on,45,0,120
2,note_on,52,0,0
2,note_on,57,0,0
2,note_on,49,0,0
2,note_on,56,78,120
2,note_on,44,66,0
2,note_on,44,0,120
2,note_on,56,0,0
2,note_on,55,78,120
2,note_on,43,66,0
2,note_on,43,0,120
2,note_on,55,0,0
2,note_on,42,63,60
2,note_on,45,65,20
2,note_on,49,67,20
2,note_on,54,81,20
2,note_on,54,0,120
2,note_on,42,0,0
2,note_on,45,0,0
2,note_on,49,0,0
2,note_on,41,65,120
2,note_on,53,77,0
2,note_on,53,0,120
2,note_on,41,0,0
2,note_on,40,52,60
2,note_on,45,54,20
2,note_on,49,55,20
2,note_on,52,71,20
2,note_on,52,0,120
2,note_on,40,0,0
2,note_on,45,0,0
2,note_on,49,0,0
2,note_on,39,63,120
2,note_on,51,74,0
2,note_on,51,0,120
2,note_on,39,0,0
2,note_on,40,53,60
2,note_on,45,53,20
2,note_on,49,53,20
2,note_on,52,64,20
2,note_on,52,0,120
2,note_on,40,0,0
2,note_on,45,0,0
2,note_on,49,0,0
2,note_on,40,73,120
2,note_on,52,86,0
2,note_on,56,57,240
2,note_on,59,57,0
2,note_on,59,0,120
2,note_on,56,0,0
2,note_on,52,0,120
2,note_on,40,0,0
2,note_on,44,67,0
2,note_on,56,78,0
2,note_on,59,57,240
2,note_on,64,57,0
2,note_on,64,0,120
2,note_on,59,0,0
2,note_on,56,0,120
2,note_on,44,0,0
2,note_on,49,79,0
2,note_on,61,94,0
2,note_on,64,57,240
2,note_on,68,69,0
2,note_on,68,0,120
2,note_on,64,0,0
2,note_on,68,69,120
2,note_on,64,57,0
2,note_on,64,0,120
2,note_on,68,0,0
2,note_on,61,0,120
2,note_on,49,0,0
2,note_on,47,70,0
2,note_on,59,84,0
2,note_on,59,0,120
2,note_on,47,0,0
2,note_on,57,84,120
2,note_on,52,71,0
2,note_on,45,71,0
2,note_on,49,71,0
2,note_on,49,0,120
2,note_on,57,0,0
2,note_on,52,0,0
2,note_on,45,0,0
2,note_on,56,78,120
2,note_on,44,66,0
2,note_on,44,0,120
2,note_on,56,0,0
2,note_on,42,66,120
2,note_on,54,78,0
2,note_on,54,0,120
2,note_on,42,0,0
2,note_on,40,52,120
2,note_on,49,57,0
2,note_on,45,54,0
2,note_on,52,69,0
2,note_on,52,0,120
2,note_on,40,0,0
2,note_on,49,0,0
2,note_on,45,0,0
2,note_on,45,70,120
2,note_on,49,70,0
2,note_on,57,82,0
2,note_on,52,70,0
2,note_on,52,0,480
2,note_on,45,0,0
2,note_on,49,0,0
2,note_on,57,0,0
2,note_on,49,64,0
2,note_on,61,75,0
2,note_on,57,64,0
2,note_on,52,64,0
2,note_on,52,0,480
2,note_on,49,0,0
2,note_on,61,0,0
2,note_on,57,0,0
2,note_on,40,53,0
2,note_on,52,64,0
2,note_on,52,0,120
2,note_on,40,0,0
2,note_on,52,68,120
2,note_on,64,80,0
2,note_on,64,0,240
2,note_on,52,0,0
2,note_on,59,64,0
2,note_on,47,53,0
2,note_on,47,0,120
2,note_on,59,0,0
2,note_on,68,84,120
2,note_on,56,70,0
2,note_on,56,0,240
2,note_on,68,0,0
2,note_on,64,68,0
2,note_on,52,56,0
2,note_on,52,0,120
2,note_on,64,0,0
2,note_on,61,76,120
2,note_on,73,91,0
2,note_on,73,0,480
2,note_on,61,0,0
2,note_on,71,78,0
2,note_on,59,67,0
2,note_on,59,0,240
2,note_on,71,0,0
2,note_on,57,74,0
2,note_on,69,88,0
2,note_on,69,0,120
2,note_on,57,0,0
2,note_on,68,73,120
2,note_on,56,60,0
2,note_on,56,0,120
2,note_on,68,0,0
2,note_on,55,60,120
2,note_on,67,73,0
2,note_on,67,0,120
2,note_on,55,0,0
2,note_on,54,60,120
2,note_on,66,73,0
2,note_on,66,0,120
2,note_on,54,0,0
2,note_on,53,66,120
2,note_on,65,80,0
2,note_on,65,0,240
2,note_on,53,0,0
2,note_on,52,60,0
2,note_on,64,72,0
2,note_on,64,0,240
2,note_on,52,0,0
2,note_on,61,72,0
2,note_on,49,60,0
2,note_on,49,0,120
2,note_on,61,0,0
2,note_on,45,60,120
2,note_on,57,72,0
2,note_on,57,0,120
2,note_on,45,0,0
2,note_on,40,59,120
2,note_on,52,70,0
2,note_on,52,0,120
2,note_on,40,0,0
2,note_on,64,88,120
2,note_on,52,74,0
2,note_on,52,0,240
2,note_on,64,0,0
2,note_on,59,67,0
2,note_on,47,55,0
2,note_on,47,0,120
2,note_on,59,0,0
2,note_on,56,73,120
2,note_on,68,86,0
2,note_on,68,0,240
2,note_on,56,0,0
2,note_on,64,68,0
2,note_on,52,56,0
2,note_on,52,0,120
2,note_on,64,0,0
2,note_on,61,76,120
2,note_on,73,91,0
2,note_on,73,0,480
2,note_on,61,0,0
2,note_on,59,67,0
2,note_on,71,78,0
2,note_on,71,0,240
2,note_on,59,0,0
2,note_on,57,74,0
2,note_on,69,88,0
2,note_on,69,0,120
2,note_on,57,0,0
2,note_on,56,60,120
2,note_on,68,73,0
2,note_on,68,0,120
2,note_on,56,0,0
2,note_on,67,73,120
2,note_on,55,60,0
2,note_on,55,0,120
2,note_on,67,0,0
2,note_on,54,60,120
2,note_on,66,73,0
2,note_on,66,0,120
2,note_on,54,0,0
2,note_on,53,60,120
2,note_on,65,71,0
2,note_on,65,0,240
2,note_on,53,0,0
2,note_on,52,57,0
2,note_on,64,69,0
2,note_on,64,0,240
2,note_on,52,0,0
2,note_on,63,68,0
2,note_on,51,56,0
2,note_on,51,0,120
2,note_on,63,0,0
2,note_on,64,66,120
2,note_on,52,54,0
2,note_on,52,0,120
2,note_on,64,0,0
2,note_on,56,57,120
2,note_on,62,57,0
2,note_on,64,68,0
2,note_on,64,0,120
2,note_on,62,0,0
2,note_on,56,0,0
2,note_on,52,67,120
2,note_on,52,0,120
2,note_on,56,57,120
2,note_on,64,68,0
2,note_on,62,57,0
2,note_on,62,0,120
2,note_on,64,0,0
2,note_on,56,0,0
2,note_on,47,66,120
2,note_on,47,0,120
2,note_on,64,68,120
2,note_on,62,57,0
2,note_on,56,57,0
2,note_on,56,0,120
2,note_on,62,0,0
2,note_on,64,0,0
2,note_on,40,67,120
2,note_on,40,0,120
2,note_on,64,68,120
2,note_on,62,57,0
2,note_on,56,57,0
2,note_on,56,0,120
2,note_on,62,0,0
2,note_on,64,0,0
2,note_on,47,66,120
2,note_on,47,0,120
2,note_on,61,57,120
2,note_on,64,68,0
2,note_on,57,57,0
2,note_on,57,0,120
2,note_on,64,0,0
2,note_on,61,0,0
2,note_on,52,67,120
2,note_on,52,0,120
2,note_on,57,57,120
2,note_on,61,57,0
2,note_on,64,68,0
2,note_on,64,0,120
2,note_on,61,0,0
2,note_on,57,0,0
2,note_on,49,66,120
2,note_on,49,0,120
2,note_on,64,68,120
2,note_on,61,57,0
2,note_on,57,57,0
2,note_on,57,0,120
2,note_on,61,0,0
2,note_on,64,0,0
2,note_on,40,67,120
2,note_on,40,0,120
2,note_on,64,68,120
2,note_on,57,57,0
2,note_on,61,57,0
2,note_on,61,0,120
2,note_on,57,0,0
2,note_on,64,0,0
2,note_on,49,66,120
2,note_on,49,0,120
2,note_on,56,57,120
2,note_on,64,68,0
2,note_on,62,57,0
2,note_on,62,0,120
2,note_on,64,0,0
2,note_on,56,0,0
2,note_on,52,67,120
2,note_on,52,0,120
2,note_on,56,57,120
2,note_on,62,57,0
2,note_on,64,68,0
2,note_on,64,0,120
2,note_on,62,0,0
2,note_on,56,0,0
2,note_on,47,66,120
2,note_on,47,0,120
2,note_on,62,57,120
2,note_on,64,68,0
2,note_on,56,57,0
2,note_on,56,0,120
2,note_on,64,0,0
2,note_on,62,0,0
2,note_on,40,67,120
2,note_on,40,0,120
2,note_on,56,57,120
2,note_on,62,57,0
2,note_on,64,68,0
2,note_on,64,0,120
2,note_on,62,0,0
2,note_on,56,0,0
2,note_on,47,66,120
2,note_on,47,0,120
2,note_on,57,57,120
2,note_on,64,68,0
2,note_on,61,57,0
2,note_on,61,0,120
2,note_on,64,0,0
2,note_on,57,0,0
2,note_on,52,67,120
2,note_on,52,0,120
2,note_on,61,57,120
2,note_on,57,57,0
2,note_on,64,68,0
2,note_on,64,0,120
2,note_on,57,0,0
2,note_on,61,0,0
2,note_on,49,66,120
2,note_on,49,0,120
2,note_on,57,57,120
2,note_on,61,57,0
2,note_on,64,68,0
2,note_on,64,0,120
2,note_on,61,0,0
2,note_on,57,0,0
2,note_on,40,67,120
2,note_on,40,0,120
2,note_on,57,57,120
2,note_on,64,68,0
2,note_on,61,57,0
2,note_on,61,0,120
2,note_on,64,0,0
2,note_on,57,0,0
2,note_on,49,66,120
2,note_on,49,0,120
2,note_on,56,57,120
2,note_on,61,57,0
2,note_on,65,68,0
2,note_on,65,0,120
2,note_on,61,0,0
2,note_on,56,0,0
2,note_on,49,67,120
2,note_on,49,0,120
2,note_on,56,57,120
2,note_on,65,68,0
2,note_on,61,57,0
2,note_on,61,0,120
2,note_on,65,0,0
2,note_on,56,0,0
2,note_on,44,66,120
2,note_on,44,0,120
2,note_on,56,57,120
2,note_on,65,68,0
2,note_on,61,57,0
2,note_on,61,0,120
2,note_on,65,0,0
2,note_on,56,0,0
2,note_on,37,67,120
2,note_on,37,0,120
2,note_on,65,68,120
2,note_on,56,57,0
2,note_on,61,57,0
2,note_on,61,0,120
2,note_on,56,0,0
2,note_on,65,0,0
2,note_on,49,66,120
2,note_on,49,0,120
2,note_on,61,68,120
2,note_on,58,57,0
2,note_on,58,0,120
2,note_on,61,0,0
2,note_on,49,67,120
2,note_on,49,0,120
2,note_on,58,57,120
2,note_on,66,68,0
2,note_on,61,57,0
2,note_on,61,0,120
2,note_on,66,0,0
2,note_on,58,0,0
2,note_on,46,66,120
2,note_on,46,0,120
2,note_on,61,57,120
2,note_on,58,57,0
2,note_on,66,68,0
2,note_on,66,0,120
2,note_on,58,0,0
2,note_on,61,0,0
2,note_on,37,67,120
2,note_on,37,0,120
2,note_on,61,57,120
2,note_on,58,57,0
2,note_on,66,68,0
2,note_on,66,0,120
2,note_on,58,0,0
2,note_on,61,0,0
2,note_on,49,66,120
2,note_on,49,0,120
2,note_on,65,68,120
2,note_on,56,57,0
2,note_on,61,57,0
2,note_on,61,0,120
2,note_on,56,0,0
2,note_on,65,0,0
2,note_on,49,67,120
2,note_on,49,0,120
2,note_on,61,57,120
2,note_on,65,68,0
2,note_on,56,57,0
2,note_on,56,0,120
2,note_on,65,0,0
2,note_on,61,0,0
2,note_on,44,66,120
2,note_on,44,0,120
2,note_on,61,57,120
2,note_on,56,57,0
2,note_on,65,68,0
2,note_on,65,0,120
2,note_on,56,0,0
2,note_on,61,0,0
2,note_on,37,67,120
2,note_on,37,0,120
2,note_on,61,57,120
2,note_on,65,68,0
2,note_on,56,57,0
2,note_on,56,0,120
2,note_on,65,0,0
2,note_on,61,0,0
2,note_on,49,66,120
2,note_on,49,0,120
2,note_on,61,68,120
2,note_on,58,57,0
2,note_on,58,0,120
2,note_on,61,0,0
2,note_on,49,67,120
2,note_on,49,0,120
2,note_on,58,57,120
2,note_on,61,57,0
2,note_on,66,68,0
2,note_on,66,0,120
2,note_on,61,0,0
2,note_on,58,0,0
2,note_on,46,66,120
2,note_on,46,0,120
2,note_on,66,68,120
2,note_on,61,57,0
2,note_on,58,57,0
2,note_on,58,0,120
2,note_on,61,0,0
2,note_on,66,0,0
2,note_on,37,67,120
2,note_on,37,0,120
2,note_on,61,57,120
2,note_on,58,57,0
2,note_on,66,68,0
2,note_on,66,0,120
2,note_on,58,0,0
2,note_on,61,0,0
2,note_on,49,66,120
2,note_on,49,0,120
2,note_on,56,42,120
2,note_on,56,0,120
2,note_on,61,37,120
2,note_on,65,37,0
2,note_on,71,37,0
2,note_on,71,0,120
2,note_on,65,0,0
2,note_on,61,0,0
2,note_on,49,42,120
2,note_on,49,0,120
2,note_on,65,37,120
2,note_on,61,37,0
2,note_on,71,37,0
2,note_on,71,0,120
2,note_on,61,0,0
2,note_on,65,0,0
2,note_on,68,37,120
2,note_on,72,42,0
2,note_on,72,0,120
2,note_on,68,0,0
2,note_on,73,37,120
2,note_on,65,37,0
2,note_on,65,0,120
2,note_on,73,0,0
2,note_on,71,48,120
2,note_on,68,42,0
2,note_on,71,0,360
2,note_on,73,37,0
2,note_on,73,0,120
2,note_on,68,0,0
2,note_on,54,42,0
2,note_on,54,0,120
2,note_on,66,37,120
2,note_on,61,37,0
2,note_on,70,37,0
2,note_on,70,0,120
2,note_on,61,0,0
2,note_on,66,0,0
2,note_on,49,42,120
2,note_on,49,0,120
2,note_on,66,37,120
2,note_on,70,37,0
2,note_on,61,37,0
2,note_on,61,0,120
2,note_on,70,0,0
2,note_on,66,0,0
2,note_on,72,42,120
2,note_on,69,37,0
2,note_on,69,0,120
2,note_on,72,0,0
2,note_on,73,37,120
2,note_on,70,37,0
2,note_on,70,0,120
2,note_on,73,0,0
2,note_on,70,48,120
2,note_on,66,42,0
2,note_on,70,0,360
2,note_on,73,37,0
2,note_on,73,0,120
2,note_on,66,0,0
2,note_on,56,42,0
2,note_on,56,0,120
2,note_on,71,37,120
2,note_on,65,37,0
2,note_on,61,37,0
2,note_on,61,0,120
2,note_on,65,0,0
2,note_on,71,0,0
2,note_on,49,42,120
2,note_on,49,0,120
2,note_on,65,37,120
2,note_on,71,37,0
2,note_on,61,37,0
2,note_on,61,0,120
2,note_on,71,0,0
2,note_on,65,0,0
2,note_on,72,42,120
2,note_on,68,37,0
2,note_on,68,0,120
2,note_on,72,0,0
2,note_on,65,37,120
2,note_on,73,37,0
2,note_on,73,0,120
2,note_on,65,0,0
2,note_on,71,48,120
2,note_on,68,42,0
2,note_on,71,0,360
2,note_on,73,37,0
2,note_on,73,0,120
2,note_on,68,0,0
2,note_on,54,42,0
2,note_on,54,0,120
2,note_on,66,37,120
2,note_on,61,37,0
2,note_on,70,37,0
2,note_on,70,0,120
2,note_on,61,0,0
2,note_on,66,0,0
2,note_on,49,42,120
2,note_on,49,0,120
2,note_on,70,37,120
2,note_on,66,37,0
2,note_on,61,37,0
2,note_on,61,0,120
2,note_on,66,0,0
2,note_on,70,0,0
2,note_on,72,42,120
2,note_on,69,37,0
2,note_on,69,0,120
2,note_on,72,0,0
2,note_on,70,37,120
2,note_on,73,37,0
2,note_on,73,0,120
2,note_on,70,0,0
2,note_on,70,48,120
2,note_on,66,42,0
2,note_on,70,0,360
2,note_on,73,37,0
2,note_on,73,0,120
2,note_on,66,0,0
2,note_on,56,42,0
2,note_on,56,0,120
2,note_on,61,37,120
2,note_on,65,37,0
2,note_on,71,37,0
2,note_on,71,0,120
2,note_on,65,0,0
2,note_on,61,0,0
2,note_on,49,42,120
2,note_on,49,0,120
2,note_on,71,37,120
2,note_on,61,37,0
2,note_on,65,37,0
2,note_on,65,0,120
2,note_on,61,0,0
2,note_on,71,0,0
2,note_on,68,37,120
2,note_on,72,42,0
2,note_on,72,0,120
2,note_on,68,0,0
2,note_on,73,37,120
2,note_on,65,37,0
2,note_on,65,0,120
2,note_on,73,0,0
2,note_on,71,48,120
2,note_on,68,42,0
2,note_on,71,0,360
2,note_on,73,37,0
2,note_on,73,0,120
2,note_on,68,0,0
2,note_on,84,48,0
2,note_on,80,37,0
2,note_on,80,0,120
2,note_on,84,0,0
2,note_on,85,48,120
2,note_on,77,37,0
2,note_on,77,0,120
2,note_on,85,0,0
2,note_on,83,56,120
2,note_on,80,42,0
2,note_on,83,0,360
2,note_on,85,37,0
2,note_on,85,0,120
2,note_on,80,0,0
2,note_on,84,48,0
2,note_on,80,37,0
2,note_on,80,0,120
2,note_on,84,0,0
2,note_on,77,37,120
2,note_on,85,49,0
2,note_on,85,0,120
2,note_on,77,0,0
2,note_on,87,56,120
2,note_on,83,42,0
2,note_on,83,0,360
2,note_on,87,0,0
2,note_on,80,38,0
2,note_on,85,37,0
2,note_on,85,0,120
2,note_on,80,0,0
2,note_on,54,42,3840
2,note_on,54,0,120
2,note_on,66,30,120
2,note_on,70,36,0
2,note_on,61,30,0
2,note_on,61,0,120
2,note_on,70,0,0
2,note_on,66,0,0
2,note_on,49,36,120
2,note_on,49,0,120
2,note_on,61,30,120
2,note_on,70,36,0
2,note_on,66,30,0
2,note_on,66,0,120
2,note_on,70,0,0
2,note_on,61,0,0
2,note_on,54,42,120
2,note_on,54,0,120
2,note_on,66,36,120
2,note_on,61,36,0
2,note_on,69,36,0
2,note_on,69,0,120
2,note_on,61,0,0
2,note_on,66,0,0
2,note_on,49,36,120
2,note_on,49,0,120
2,note_on,61,30,120
2,note_on,69,36,0
2,note_on,66,30,0
2,note_on,66,0,120
2,note_on,69,0,0
2,note_on,61,0,0
2,note_on,56,42,120
2,note_on,56,0,120
2,note_on,61,36,120
2,note_on,71,36,0
2,note_on,65,36,0
2,note_on,65,0,120
2,note_on,71,0,0
2,note_on,61,0,0
2,note_on,49,36,120
2,note_on,49,0,120
2,note_on,71,36,120
2,note_on,65,30,0
2,note_on,61,30,0
2,note_on,61,0,120
2,note_on,65,0,0
2,note_on,71,0,0
2,note_on,56,42,120
2,note_on,56,0,120
2,note_on,71,36,120
2,note_on,65,36,0
2,note_on,61,36,0
2,note_on,61,0,120
2,note_on,65,0,0
2,note_on,71,0,0
2,note_on,49,36,120
2,note_on,49,0,120
2,note_on,71,36,120
2,note_on,61,30,0
2,note_on,65,30,0
2,note_on,65,0,120
2,note_on,61,0,0
2,note_on,71,0,0
2,note_on,54,42,120
2,note_on,54,0,120
2,note_on,61,36,120
2,note_on,70,36,0
2,note_on,66,36,0
2,note_on,66,0,120
2,note_on,70,0,0
2,note_on,61,0,0
2,note_on,49,36,120
2,note_on,49,0,120
2,note_on,70,36,120
2,note_on,66,30,0
2,note_on,61,30,0
2,note_on,61,0,120
2,note_on,66,0,0
2,note_on,70,0,0
2,note_on,54,42,120
2,note_on,54,0,120
2,note_on,61,36,120
2,note_on,69,36,0
2,note_on,66,36,0
2,note_on,66,0,120
2,note_on,69,0,0
2,note_on,61,0,0
2,note_on,49,36,120
2,note_on,49,0,120
2,note_on,69,36,120
2,note_on,66,30,0
2,note_on,61,30,0
2,note_on,61,0,120
2,note_on,66,0,0
2,note_on,69,0,0
2,note_on,56,42,120
2,note_on,56,0,120
2,note_on,71,36,120
2,note_on,65,36,0
2,note_on,61,36,0
2,note_on,61,0,120
2,note_on,65,0,0
2,note_on,71,0,0
2,note_on,49,36,120
2,note_on,49,0,120
2,note_on,71,36,120
2,note_on,61,30,0
2,note_on,65,30,0
2,note_on,65,0,120
2,note_on,61,0,0
2,note_on,71,0,0
2,note_on,56,42,120
2,note_on,56,0,120
2,note_on,61,36,120
2,note_on,71,36,0
2,note_on,65,36,0
2,note_on,65,0,120
2,note_on,71,0,0
2,note_on,61,0,0
2,note_on,49,36,120
2,note_on,49,0,120
2,note_on,71,36,120
2,note_on,65,30,0
2,note_on,61,30,0
2,note_on,61,0,120
2,note_on,65,0,0
2,note_on,71,0,0
2,note_on,54,42,120
2,note_on,54,0,120
2,note_on,66,36,120
2,note_on,61,36,0
2,note_on,70,36,0
2,note_on,70,0,120
2,note_on,61,0,0
2,note_on,66,0,0
2,note_on,49,36,120
2,note_on,49,0,120
2,note_on,70,36,120
2,note_on,61,30,0
2,note_on,66,30,0
2,note_on,66,0,120
2,note_on,61,0,0
2,note_on,70,0,0
2,note_on,54,42,120
2,note_on,54,0,120
2,note_on,69,36,120
2,note_on,61,36,0
2,note_on,66,36,0
2,note_on,66,0,120
2,note_on,61,0,0
2,note_on,69,0,0
2,note_on,49,36,120
2,note_on,49,0,120
2,note_on,66,30,120
2,note_on,61,30,0
2,note_on,69,36,0
2,note_on,69,0,120
2,note_on,61,0,0
2,note_on,66,0,0
2,note_on,56,42,120
2,note_on,56,0,120
2,note_on,65,36,120
2,note_on,61,36,0
2,note_on,71,36,0
2,note_on,71,0,120
2,note_on,61,0,0
2,note_on,65,0,0
2,note_on,49,36,120
2,note_on,49,0,120
2,note_on,61,30,120
2,note_on,71,36,0
2,note_on,65,30,0
2,note_on,65,0,120
2,note_on,71,0,0
2,note_on,61,0,0
2,note_on,37,39,1080
2,note_on,37,0,90
2,note_on,39,41,150
2,note_on,39,0,90
2,note_on,41,42,150
2,note_on,41,0,90
2,note_on,42,44,150
2,note_on,42,0,90
2,note_on,49,46,150
2,note_on,44,46,0
2,note_on,44,0,90
2,note_on,49,0,0
2,note_on,43,44,150
2,note_on,43,0,90
2,note_on,44,43,150
2,note_on,44,0,90
2,note_on,41,41,150
2,note_on,41,0,90
2,note_on,42,39,150
2,note_on,42,0,90
2,note_on,44,41,150
2,note_on,44,0,90
2,note_on,46,42,150
2,note_on,46,0,90
2,note_on,47,44,150
2,note_on,47,0,90
2,note_on,49,46,150
2,note_on,54,46,0
2,note_on,54,0,90
2,note_on,49,0,0
2,note_on,48,44,150
2,note_on,48,0,90
2,note_on,49,43,150
2,note_on,49,0,90
2,note_on,46,41,150
2,note_on,46,0,90
2,note_on,47,49,150
2,note_on,47,0,90
2,note_on,51,43,150
2,note_on,51,0,90
2,note_on,44,50,150
2,note_on,44,0,90
2,note_on,47,46,150
2,note_on,47,0,90
2,note_on,41,50,150
2,note_on,41,0,90
2,note_on,44,44,150
2,note_on,44,0,90
2,note_on,37,51,150
2,note_on,37,0,90
2,note_on,41,47,150
2,note_on,41,0,90
2,note_on,42,51,150
2,note_on,42,0,90
2,note_on,46,45,150
2,note_on,46,0,90
2,note_on,37,53,150
2,note_on,37,0,90
2,note_on,42,48,150
2,note_on,42,0,90
2,note_on,34,52,150
2,note_on,34,0,90
2,note_on,37,46,150
2,note_on,37,0,90
2,note_on,30,54,150
2,note_on,42,54,0
2,note_on,42,0,90
2,note_on,30,0,0
2,note_on,46,50,150
2,note_on,34,50,0
2,note_on,34,0,90
2,note_on,46,0,0
2,note_on,49,44,150
2,note_on,37,44,0
2,note_on,44,44,0
2,note_on,41,44,0
2,note_on,41,0,120
2,note_on,44,0,0
2,note_on,49,0,0
2,note_on,37,0,1
2,note_on,39,47,119
2,note_on,51,47,0
2,note_on,51,0,120
2,note_on,39,0,1
2,note_on,53,48,119
2,note_on,41,48,0
2,note_on,53,0,120
2,note_on,41,0,1
2,note_on,42,51,119
2,note_on,54,51,0
2,note_on,54,0,120
2,note_on,42,0,1
2,note_on,44,54,119
2,note_on,56,54,0
2,note_on,49,54,0
2,note_on,56,0,120
2,note_on,49,0,1
2,note_on,44,0,0
2,note_on,43,52,119
2,note_on,55,52,0
2,note_on,55,0,120
2,note_on,43,0,1
2,note_on,56,51,119
2,note_on,44,51,0
2,note_on,56,0,120
2,note_on,44,0,1
2,note_on,41,49,119
2,note_on,53,49,0
2,note_on,53,0,120
2,note_on,41,0,1
2,note_on,42,47,119
2,note_on,46,47,0
2,note_on,54,47,0
2,note_on,49,47,0
2,note_on,49,0,120
2,note_on,54,0,0
2,note_on,46,0,0
2,note_on,42,0,1
2,note_on,44,50,119
2,note_on,56,50,0
2,note_on,56,0,120
2,note_on,44,0,1
2,note_on,58,52,119
2,note_on,46,52,0
2,note_on,58,0,120
2,note_on,46,0,1
2,note_on,47,55,119
2,note_on,59,55,0
2,note_on,59,0,120
2,note_on,47,0,1
2,note_on,61,57,119
2,note_on,49,57,0
2,note_on,54,57,0
2,note_on,61,0,120
2,note_on,54,0,1
2,note_on,49,0,0
2,note_on,48,55,119
2,note_on,60,55,0
2,note_on,60,0,120
2,note_on,48,0,1
2,note_on,61,55,119
2,note_on,49,55,0
2,note_on,54,55,0
2,note_on,54,0,120
2,note_on,61,0,0
2,note_on,49,0,1
2,note_on,46,52,119
2,note_on,58,52,0
2,note_on,58,0,120
2,note_on,46,0,1
2,note_on,49,50,119
2,note_on,53,50,0
2,note_on,56,50,0
2,note_on,61,50,0
2,note_on,61,0,120
2,note_on,56,0,0
2,note_on,53,0,0
2,note_on,49,0,1
2,note_on,51,53,119
2,note_on,63,53,0
2,note_on,63,0,120
2,note_on,51,0,1
2,note_on,53,55,119
2,note_on,65,55,0
2,note_on,65,0,120
2,note_on,53,0,1
2,note_on,54,58,119
2,note_on,66,58,0
2,note_on,66,0,120
2,note_on,54,0,1
2,note_on,61,61,119
2,note_on,56,61,0
2,note_on,68,61,0
2,note_on,68,0,120
2,note_on,56,0,1
2,note_on,61,0,0
2,note_on,67,58,119
2,note_on,55,58,0
2,note_on,55,0,120
2,note_on,67,0,0
2,note_on,61,58,120
2,note_on,68,58,0
2,note_on,56,58,0
2,note_on,68,0,120
2,note_on,61,0,0
2,note_on,56,0,1
2,note_on,65,55,119
2,note_on,53,55,0
2,note_on,65,0,120
2,note_on,53,0,1
2,note_on,66,53,119
2,note_on,58,53,0
2,note_on,54,53,0
2,note_on,61,53,0
2,note_on,61,0,120
2,note_on,66,0,0
2,note_on,58,0,0
2,note_on,54,0,1
2,note_on,68,56,119
2,note_on,56,56,0
2,note_on,68,0,120
2,note_on,56,0,1
2,note_on,70,58,119
2,note_on,58,58,0
2,note_on,70,0,120
2,note_on,58,0,1
2,note_on,59,61,119
2,note_on,71,61,0
2,note_on,71,0,120
2,note_on,59,0,1
2,note_on,73,64,119
2,note_on,61,64,0
2,note_on,66,64,0
2,note_on,73,0,120
2,note_on,66,0,1
2,note_on,61,0,0
2,note_on,72,62,119
2,note_on,60,62,0
2,note_on,72,0,120
2,note_on,60,0,1
2,note_on,73,61,119
2,note_on,61,61,0
2,note_on,66,61,0
2,note_on,66,0,120
2,note_on,73,0,0
2,note_on,61,0,1
2,note_on,58,59,119
2,note_on,70,59,0
2,note_on,70,0,120
2,note_on,58,0,1
2,note_on,71,68,119
2,note_on,59,68,0
2,note_on,59,0,120
2,note_on,71,0,0
2,note_on,63,59,120
2,note_on,75,59,0
2,note_on,75,0,120
2,note_on,63,0,1
2,note_on,68,69,119
2,note_on,56,69,0
2,note_on,68,0,120
2,note_on,56,0,1
2,note_on,71,63,119
2,note_on,59,63,0
2,note_on,71,0,120
2,note_on,59,0,1
2,note_on,65,69,119
2,note_on,53,69,0
2,note_on,53,0,120
2,note_on,65,0,0
2,note_on,68,60,120
2,note_on,56,60,0
2,note_on,68,0,120
2,note_on,56,0,1
2,note_on,49,71,119
2,note_on,61,71,0
2,note_on,61,0,120
2,note_on,49,0,1
2,note_on,53,64,119
2,note_on,65,64,0
2,note_on,65,0,120
2,note_on,53,0,0
2,note_on,58,70,120
2,note_on,46,70,0
2,note_on,46,0,120
2,note_on,58,0,0
2,note_on,61,61,120
2,note_on,49,61,0
2,note_on,61,0,120
2,note_on,49,0,1
2,note_on,42,72,119
2,note_on,54,72,0
2,note_on,54,0,120
2,note_on,42,0,1
2,note_on,46,66,119
2,note_on,58,66,0
2,note_on,58,0,120
2,note_on,46,0,0
2,note_on,39,72,120
2,note_on,51,72,0
2,note_on,51,0,120
2,note_on,39,0,0
2,note_on,42,62,120
2,note_on,54,62,0
2,note_on,54,0,120
2,note_on,42,0,1
2,note_on,35,73,119
2,note_on,47,73,0
2,note_on,47,0,120
2,note_on,35,0,1
2,note_on,51,68,119
2,note_on,39,68,0
2,note_on,39,0,120
2,note_on,51,0,0
2,note_on,32,73,120
2,note_on,44,73,0
2,note_on,44,0,120
2,note_on,32,0,0
2,note_on,47,64,120
2,note_on,35,64,0
2,note_on,47,0,120
2,note_on,35,0,1
2,note_on,29,75,119
2,note_on,41,75,0
2,note_on,41,0,120
2,note_on,29,0,1
2,note_on,32,69,119
2,note_on,44,69,0
2,note_on,44,0,120
2,note_on,32,0,0
2,note_on,37,74,120
2,note_on,37,0,120
2,note_on,41,65,120
2,note_on,41,0,120
2,note_on,34,76,120
2,note_on,34,0,120
2,note_on,37,70,120
2,note_on,37,0,120
2,note_on,42,76,120
2,note_on,30,76,0
2,note_on,30,0,120
2,note_on,42,0,0
2,note_on,46,66,120
2,note_on,34,66,0
2,note_on,34,0,120
2,note_on,46,0,0
2,note_on,39,77,120
2,note_on,27,77,0
2,note_on,27,0,120
2,note_on,39,0,0
2,note_on,42,71,120
2,note_on,30,71,0
2,note_on,30,0,120
2,note_on,42,0,0
2,note_on,35,90,120
2,note_on,23,90,0
2,note_on,23,0,120
2,note_on,35,0,0
2,note_on,47,70,720
2,note_on,35,59,0
2,note_on,35,0,90
2,note_on,47,0,0
2,note_on,54,64,30
2,note_on,59,77,0
2,note_on,51,64,0
2,note_on,51,0,360
2,note_on,59,0,0
2,note_on,54,0,0
2,note_on,37,72,0
2,note_on,49,85,0
2,note_on,49,0,90
2,note_on,37,0,0
2,note_on,56,64,30
2,note_on,61,77,0
2,note_on,49,64,0
2,note_on,53,64,0
2,note_on,53,0,360
2,note_on,56,0,0
2,note_on,61,0,0
2,note_on,49,0,0
2,note_on,42,99,0
2,note_on,30,83,0
2,note_on,30,0,90
2,note_on,42,0,0
2,note_on,54,64,30
2,note_on,58,64,0
2,note_on,49,64,0
2,note_on,61,77,0
2,note_on,61,0,960
2,note_on,54,0,0
2,note_on,58,0,0
2,note_on,49,0,0
2,note_on,66,64,0
2,note_on,61,64,0
2,note_on,70,64,0
2,note_on,73,77,0
2,note_on,73,0,120
2,note_on,66,0,0
2,note_on,61,0,0
2,note_on,70,0,0
2,note_on,82,64,360
2,note_on,73,64,0
2,note_on,85,77,0
2,note_on,78,64,0
2,note_on,78,0,120
2,note_on,82,0,0
2,note_on,73,0,0
2,note_on,85,0,0
2,note_on,42,88,360
2,note_on,30,74,0
2,note_on,30,0,120
2,note_on,42,0,0
