Track,Message Type,Note,Velocity,Time
1,note_on,68,51,1080
1,note_on,68,0,90
1,note_on,71,46,30
1,note_on,71,0,90
1,note_on,76,46,30
1,note_on,76,0,90
1,note_on,71,51,150
1,note_on,71,0,90
1,note_on,68,47,30
1,note_on,68,0,90
1,note_on,64,47,30
1,note_on,64,0,90
1,note_on,66,51,150
1,note_on,66,0,90
1,note_on,71,47,30
1,note_on,71,0,90
1,note_on,78,43,30
1,note_on,78,0,90
1,note_on,71,51,150
1,note_on,71,0,90
1,note_on,66,48,30
1,note_on,66,0,90
1,note_on,63,43,30
1,note_on,63,0,90
1,note_on,68,51,150
1,note_on,68,0,90
1,note_on,71,47,30
1,note_on,71,0,90
1,note_on,76,42,30
1,note_on,76,0,90
1,note_on,71,51,150
1,note_on,71,0,90
1,note_on,68,48,30
1,note_on,68,0,90
1,note_on,64,47,30
1,note_on,64,0,90
1,note_on,66,51,150
1,note_on,66,0,90
1,note_on,75,51,30
1,note_on,75,0,90
1,note_on,83,48,30
1,note_on,83,0,90
1,note_on,75,51,150
1,note_on,75,0,90
1,note_on,66,47,30
1,note_on,66,0,90
1,note_on,59,43,30
1,note_on,59,0,90
1,note_on,68,45,150
1,note_on,68,0,90
1,note_on,71,45,30
1,note_on,71,0,90
1,note_on,76,41,30
1,note_on,76,0,90
1,note_on,71,45,150
1,note_on,71,0,90
1,note_on,68,44,30
1,note_on,68,0,90
1,note_on,64,42,30
1,note_on,64,0,90
1,note_on,66,45,150
1,note_on,66,0,90
1,note_on,71,45,30
1,note_on,71,0,90
1,note_on,78,41,30
1,note_on,78,0,90
1,note_on,71,45,150
1,note_on,71,0,90
1,note_on,66,43,30
1,note_on,66,0,90
1,note_on,63,40,30
1,note_on,63,0,90
1,note_on,68,45,150
1,note_on,68,0,90
1,note_on,71,45,30
1,note_on,71,0,90
1,note_on,76,40,30
1,note_on,76,0,90
1,note_on,71,45,150
1,note_on,71,0,90
1,note_on,68,42,30
1,note_on,68,0,90
1,note_on,64,39,30
1,note_on,64,0,90
1,note_on,66,45,150
1,note_on,66,0,90
1,note_on,75,45,30
1,note_on,75,0,90
1,note_on,83,42,30
1,note_on,83,0,90
1,note_on,75,45,150
1,note_on,75,0,90
1,note_on,66,39,30
1,note_on,66,0,90
1,note_on,59,33,30
1,note_on,59,0,90
1,note_on,64,46,150
1,note_on,64,0,90
1,note_on,71,47,30
1,note_on,71,0,90
1,note_on,80,41,30
1,note_on,80,0,90
1,note_on,71,48,150
1,note_on,71,0,90
1,note_on,64,42,30
1,note_on,64,0,90
1,note_on,56,39,30
1,note_on,56,0,90
1,note_on,64,49,150
1,note_on,64,0,90
1,note_on,73,49,30
1,note_on,73,0,90
1,note_on,81,46,30
1,note_on,81,0,90
1,note_on,66,46,630
1,note_on,66,0,90
1,note_on,73,47,30
1,note_on,73,0,90
1,note_on,82,41,30
1,note_on,82,0,90
1,note_on,73,48,150
1,note_on,73,0,90
1,note_on,66,43,30
1,note_on,66,0,90
1,note_on,58,42,30
1,note_on,58,0,90
1,note_on,66,49,150
1,note_on,66,0,90
1,note_on,75,49,30
1,note_on,75,0,90
1,note_on,83,48,30
1,note_on,83,0,90
1,note_on,71,50,630
1,note_on,71,0,90
1,note_on,78,43,30
1,note_on,78,0,90
1,note_on,87,46,30
1,note_on,87,0,90
1,note_on,87,56,30
1,note_on,87,0,90
1,note_on,78,51,30
1,note_on,78,0,90
1,note_on,71,45,30
1,note_on,71,0,90
1,note_on,63,42,30
1,note_on,63,0,90
1,note_on,71,53,150
1,note_on,71,0,90
1,note_on,80,54,30
1,note_on,80,0,90
1,note_on,88,51,30
1,note_on,88,0,90
1,note_on,88,59,30
1,note_on,88,0,90
1,note_on,80,55,30
1,note_on,80,0,90
1,note_on,71,51,30
1,note_on,71,0,90
1,note_on,64,48,30
1,note_on,64,0,90
1,note_on,75,57,150
1,note_on,75,0,90
1,note_on,83,57,30
1,note_on,83,0,90
1,note_on,90,54,30
1,note_on,90,0,90
1,note_on,90,64,30
1,note_on,90,0,90
1,note_on,83,58,30
1,note_on,83,0,90
1,note_on,75,54,30
1,note_on,75,0,90
1,note_on,66,51,30
1,note_on,66,0,90
1,note_on,76,60,150
1,note_on,76,0,90
1,note_on,83,61,30
1,note_on,83,0,90
1,note_on,92,58,30
1,note_on,92,0,90
1,note_on,92,68,30
1,note_on,92,0,90
1,note_on,83,63,30
1,note_on,83,0,90
1,note_on,76,57,30
1,note_on,76,0,90
1,note_on,68,54,30
1,note_on,68,0,90
1,note_on,76,64,150
1,note_on,76,0,90
1,note_on,85,64,30
1,note_on,85,0,90
1,note_on,93,61,30
1,note_on,93,0,90
1,note_on,93,73,30
1,note_on,93,0,90
1,note_on,85,66,30
1,note_on,85,0,90
1,note_on,76,62,30
1,note_on,76,0,90
1,note_on,69,55,30
1,note_on,69,0,90
1,note_on,79,68,150
1,note_on,79,0,90
1,note_on,88,68,30
1,note_on,88,0,90
1,note_on,97,64,30
1,note_on,97,0,90
1,note_on,97,74,30
1,note_on,97,0,90
1,note_on,88,68,30
1,note_on,88,0,90
1,note_on,79,63,30
1,note_on,79,0,90
1,note_on,70,58,30
1,note_on,70,0,90
1,note_on,82,68,150
1,note_on,82,0,90
1,note_on,91,68,30
1,note_on,91,0,90
1,note_on,100,66,30
1,note_on,100,0,90
1,note_on,100,74,30
1,note_on,100,0,90
1,note_on,91,68,30
1,note_on,91,0,90
1,note_on,82,65,30
1,note_on,82,0,90
1,note_on,73,62,30
1,note_on,73,0,90
1,note_on,79,68,150
1,note_on,79,0,90
1,note_on,88,65,30
1,note_on,88,0,90
1,note_on,97,68,30
1,note_on,97,0,90
1,note_on,97,72,30
1,note_on,97,0,90
1,note_on,88,65,30
1,note_on,88,0,90
1,note_on,79,63,30
1,note_on,79,0,90
1,note_on,70,59,30
1,note_on,70,0,90
1,note_on,76,62,150
1,note_on,76,0,90
1,note_on,85,61,30
1,note_on,85,0,90
1,note_on,94,61,30
1,note_on,94,0,90
1,note_on,94,65,30
1,note_on,94,0,90
1,note_on,85,59,30
1,note_on,85,0,90
1,note_on,76,48,30
1,note_on,76,0,90
1,note_on,67,42,30
1,note_on,67,0,90
1,note_on,73,57,150
1,note_on,73,0,90
1,note_on,82,57,30
1,note_on,82,0,90
1,note_on,91,56,30
1,note_on,91,0,90
1,note_on,91,61,30
1,note_on,91,0,90
1,note_on,82,54,30
1,note_on,82,0,90
1,note_on,73,49,30
1,note_on,73,0,90
1,note_on,64,40,30
1,note_on,64,0,90
1,note_on,70,53,150
1,note_on,70,0,90
1,note_on,79,51,30
1,note_on,79,0,90
1,note_on,88,51,30
1,note_on,88,0,90
1,note_on,88,55,30
1,note_on,88,0,90
1,note_on,79,49,30
1,note_on,79,0,90
1,note_on,70,45,30
1,note_on,70,0,90
1,note_on,61,42,30
1,note_on,61,0,90
1,note_on,66,47,150
1,note_on,66,0,90
1,note_on,75,42,30
1,note_on,75,0,90
1,note_on,83,46,30
1,note_on,83,0,90
1,note_on,63,45,630
1,note_on,63,0,90
1,note_on,71,42,30
1,note_on,71,0,90
1,note_on,78,40,30
1,note_on,78,0,90
1,note_on,71,45,150
1,note_on,71,0,90
1,note_on,63,42,30
1,note_on,63,0,90
1,note_on,57,39,30
1,note_on,57,0,90
1,note_on,64,45,150
1,note_on,64,0,90
1,note_on,71,45,30
1,note_on,71,0,90
1,note_on,80,45,30
1,note_on,80,0,90
1,note_on,63,45,630
1,note_on,63,0,90
1,note_on,71,45,30
1,note_on,71,0,90
1,note_on,78,39,30
1,note_on,78,0,90
1,note_on,71,45,150
1,note_on,71,0,90
1,note_on,63,40,30
1,note_on,63,0,90
1,note_on,57,38,30
1,note_on,57,0,90
1,note_on,64,45,150
1,note_on,64,0,90
1,note_on,71,43,30
1,note_on,71,0,90
1,note_on,80,45,30
1,note_on,80,0,90
1,note_on,67,51,4470
1,note_on,67,0,90
1,note_on,71,51,30
1,note_on,71,0,90
1,note_on,76,43,30
1,note_on,76,0,90
1,note_on,71,51,150
1,note_on,71,0,90
1,note_on,67,48,30
1,note_on,67,0,90
1,note_on,64,42,30
1,note_on,64,0,90
1,note_on,66,51,150
1,note_on,66,0,90
1,note_on,71,51,30
1,note_on,71,0,90
1,note_on,78,45,30
1,note_on,78,0,90
1,note_on,71,51,150
1,note_on,71,0,90
1,note_on,66,48,30
1,note_on,66,0,90
1,note_on,63,42,30
1,note_on,63,0,90
1,note_on,67,51,150
1,note_on,67,0,90
1,note_on,71,51,30
1,note_on,71,0,90
1,note_on,76,46,30
1,note_on,76,0,90
1,note_on,71,51,150
1,note_on,71,0,90
1,note_on,67,47,30
1,note_on,67,0,90
1,note_on,64,42,30
1,note_on,64,0,90
1,note_on,66,51,150
1,note_on,66,0,90
1,note_on,75,48,30
1,note_on,75,0,90
1,note_on,83,51,30
1,note_on,83,0,90
1,note_on,75,51,150
1,note_on,75,0,90
1,note_on,66,46,30
1,note_on,66,0,90
1,note_on,59,41,30
1,note_on,59,0,90
1,note_on,67,45,150
1,note_on,67,0,90
1,note_on,71,45,30
1,note_on,71,0,90
1,note_on,76,40,30
1,note_on,76,0,90
1,note_on,71,45,150
1,note_on,71,0,90
1,note_on,67,43,30
1,note_on,67,0,90
1,note_on,64,39,30
1,note_on,64,0,90
1,note_on,66,45,150
1,note_on,66,0,90
1,note_on,71,45,30
1,note_on,71,0,90
1,note_on,78,41,30
1,note_on,78,0,90
1,note_on,71,45,150
1,note_on,71,0,90
1,note_on,66,42,30
1,note_on,66,0,90
1,note_on,63,38,30
1,note_on,63,0,90
1,note_on,67,45,150
1,note_on,67,0,90
1,note_on,71,45,30
1,note_on,71,0,90
1,note_on,76,41,30
1,note_on,76,0,90
1,note_on,71,45,150
1,note_on,71,0,90
1,note_on,67,41,30
1,note_on,67,0,90
1,note_on,64,39,30
1,note_on,64,0,90
1,note_on,66,45,150
1,note_on,66,0,90
1,note_on,75,40,30
1,note_on,75,0,90
1,note_on,83,45,30
1,note_on,83,0,90
1,note_on,75,45,150
1,note_on,75,0,90
1,note_on,66,40,30
1,note_on,66,0,90
1,note_on,59,37,30
1,note_on,59,0,90
1,note_on,66,46,150
1,note_on,66,0,90
1,note_on,74,47,30
1,note_on,74,0,90
1,note_on,83,47,30
1,note_on,83,0,90
1,note_on,74,48,150
1,note_on,74,0,90
1,note_on,66,43,30
1,note_on,66,0,90
1,note_on,59,41,30
1,note_on,59,0,90
1,note_on,66,45,150
1,note_on,66,0,90
1,note_on,74,45,30
1,note_on,74,0,90
1,note_on,84,45,30
1,note_on,84,0,90
1,note_on,74,45,150
1,note_on,74,0,90
1,note_on,66,40,30
1,note_on,66,0,90
1,note_on,57,34,30
1,note_on,57,0,90
1,note_on,66,46,150
1,note_on,66,0,90
1,note_on,74,45,30
1,note_on,74,0,90
1,note_on,81,42,30
1,note_on,81,0,90
1,note_on,74,48,150
1,note_on,74,0,90
1,note_on,66,42,30
1,note_on,66,0,90
1,note_on,57,38,30
1,note_on,57,0,90
1,note_on,62,45,150
1,note_on,62,0,90
1,note_on,71,45,30
1,note_on,71,0,90
1,note_on,86,51,30
1,note_on,86,0,90
1,note_on,71,46,150
1,note_on,71,0,90
1,note_on,62,41,30
1,note_on,62,0,90
1,note_on,55,34,30
1,note_on,55,0,90
1,note_on,62,42,150
1,note_on,71,50,0
1,note_on,71,0,90
1,note_on,62,0,0
1,note_on,74,48,30
1,note_on,74,0,90
1,note_on,91,60,30
1,note_on,91,0,90
1,note_on,74,55,150
1,note_on,74,0,90
1,note_on,62,46,30
1,note_on,71,46,0
1,note_on,71,0,90
1,note_on,62,0,0
1,note_on,55,45,30
1,note_on,55,0,90
1,note_on,62,46,150
1,note_on,71,55,0
1,note_on,71,0,90
1,note_on,62,0,0
1,note_on,79,57,30
1,note_on,79,0,90
1,note_on,95,63,30
1,note_on,95,0,90
1,note_on,79,59,150
1,note_on,79,0,90
1,note_on,62,50,30
1,note_on,71,60,0
1,note_on,71,0,90
1,note_on,62,0,0
1,note_on,55,51,30
1,note_on,55,0,90
1,note_on,62,49,150
1,note_on,71,59,0
1,note_on,71,0,90
1,note_on,62,0,0
1,note_on,83,61,30
1,note_on,83,0,90
1,note_on,98,68,30
1,note_on,98,0,90
1,note_on,83,64,150
1,note_on,83,0,90
1,note_on,62,55,30
1,note_on,71,65,0
1,note_on,71,0,90
1,note_on,62,0,0
1,note_on,55,51,30
1,note_on,55,0,90
1,note_on,67,66,150
1,note_on,67,0,90
1,note_on,76,66,30
1,note_on,72,56,0
1,note_on,72,0,90
1,note_on,76,0,0
1,note_on,84,59,30
1,note_on,84,0,90
1,note_on,69,68,630
1,note_on,69,0,90
1,note_on,74,63,30
1,note_on,78,63,0
1,note_on,78,0,90
1,note_on,74,0,0
1,note_on,86,68,30
1,note_on,86,0,90
1,note_on,71,71,630
1,note_on,71,0,90
1,note_on,76,65,30
1,note_on,76,0,90
1,note_on,79,59,30
1,note_on,88,70,0
1,note_on,88,0,90
1,note_on,79,0,0
1,note_on,73,77,2430
1,note_on,73,0,80
1,note_on,79,79,0
1,note_on,79,0,80
1,note_on,82,81,0
1,note_on,82,0,80
1,note_on,88,82,0
1,note_on,88,0,80
1,note_on,94,84,0
1,note_on,94,0,80
1,note_on,100,86,0
1,note_on,100,0,80
1,note_on,86,77,640
1,note_on,83,77,0
1,note_on,83,0,60
1,note_on,86,0,0
1,note_on,84,75,100
1,note_on,81,75,0
1,note_on,81,0,60
1,note_on,84,0,0
1,note_on,83,74,100
1,note_on,79,74,0
1,note_on,79,0,60
1,note_on,83,0,0
1,note_on,81,72,100
1,note_on,78,72,0
1,note_on,78,0,60
1,note_on,81,0,0
1,note_on,79,71,100
1,note_on,76,71,0
1,note_on,76,0,60
1,note_on,79,0,0
1,note_on,74,69,100
1,note_on,78,69,0
1,note_on,78,0,60
1,note_on,74,0,0
1,note_on,72,67,100
1,note_on,76,67,0
1,note_on,76,0,60
1,note_on,72,0,0
1,note_on,71,66,100
1,note_on,74,66,0
1,note_on,74,0,60
1,note_on,71,0,0
1,note_on,69,64,100
1,note_on,72,64,0
1,note_on,72,0,60
1,note_on,69,0,0
1,note_on,67,62,100
1,note_on,71,62,0
1,note_on,71,0,60
1,note_on,67,0,0
1,note_on,66,61,100
1,note_on,69,61,0
1,note_on,69,0,60
1,note_on,66,0,0
1,note_on,62,46,220
1,note_on,62,0,90
1,note_on,71,42,30
1,note_on,71,0,90
1,note_on,79,46,30
1,note_on,79,0,90
1,note_on,71,46,150
1,note_on,71,0,90
1,note_on,62,45,30
1,note_on,62,0,90
1,note_on,55,42,30
1,note_on,55,0,90
1,note_on,63,46,150
1,note_on,63,0,90
1,note_on,72,48,30
1,note_on,72,0,90
1,note_on,78,50,30
1,note_on,78,0,90
1,note_on,72,54,150
1,note_on,72,0,90
1,note_on,63,49,30
1,note_on,63,0,90
1,note_on,55,42,30
1,note_on,55,0,90
1,note_on,86,74,190
1,note_on,83,74,0
1,note_on,83,0,60
1,note_on,86,0,0
1,note_on,84,72,100
1,note_on,81,72,0
1,note_on,81,0,60
1,note_on,84,0,0
1,note_on,83,71,100
1,note_on,79,71,0
1,note_on,79,0,60
1,note_on,83,0,0
1,note_on,81,69,100
1,note_on,78,69,0
1,note_on,78,0,60
1,note_on,81,0,0
1,note_on,79,68,100
1,note_on,76,68,0
1,note_on,76,0,60
1,note_on,79,0,0
1,note_on,74,66,100
1,note_on,78,66,0
1,note_on,78,0,60
1,note_on,74,0,0
1,note_on,72,64,100
1,note_on,76,64,0
1,note_on,76,0,60
1,note_on,72,0,0
1,note_on,71,64,100
1,note_on,74,64,0
1,note_on,74,0,60
1,note_on,71,0,0
1,note_on,69,62,100
1,note_on,72,62,0
1,note_on,72,0,60
1,note_on,69,0,0
1,note_on,67,60,100
1,note_on,71,60,0
1,note_on,71,0,60
1,note_on,67,0,0
1,note_on,66,59,100
1,note_on,69,59,0
1,note_on,69,0,60
1,note_on,66,0,0
1,note_on,62,46,220
1,note_on,62,0,90
1,note_on,71,42,30
1,note_on,71,0,90
1,note_on,79,46,30
1,note_on,79,0,90
1,note_on,71,46,150
1,note_on,71,0,90
1,note_on,62,39,30
1,note_on,62,0,90
1,note_on,55,37,30
1,note_on,55,0,90
1,note_on,63,46,150
1,note_on,63,0,90
1,note_on,72,48,30
1,note_on,72,0,90
1,note_on,78,50,30
1,note_on,78,0,90
1,note_on,72,54,150
1,note_on,72,0,90
1,note_on,63,49,30
1,note_on,63,0,90
1,note_on,55,43,30
1,note_on,55,0,90
1,note_on,86,74,190
1,note_on,83,74,0
1,note_on,83,0,60
1,note_on,86,0,0
1,note_on,84,72,100
1,note_on,81,72,0
1,note_on,81,0,60
1,note_on,84,0,0
1,note_on,83,71,100
1,note_on,79,71,0
1,note_on,79,0,60
1,note_on,83,0,0
1,note_on,81,69,100
1,note_on,78,69,0
1,note_on,78,0,60
1,note_on,81,0,0
1,note_on,79,68,100
1,note_on,76,68,0
1,note_on,76,0,60
1,note_on,79,0,0
1,note_on,74,66,100
1,note_on,78,66,0
1,note_on,78,0,60
1,note_on,74,0,0
1,note_on,72,64,100
1,note_on,76,64,0
1,note_on,76,0,60
1,note_on,72,0,0
1,note_on,71,64,100
1,note_on,74,64,0
1,note_on,74,0,60
1,note_on,71,0,0
1,note_on,69,62,100
1,note_on,72,62,0
1,note_on,72,0,60
1,note_on,69,0,0
1,note_on,67,60,100
1,note_on,71,60,0
1,note_on,71,0,60
1,note_on,67,0,0
1,note_on,66,59,100
1,note_on,69,59,0
1,note_on,69,0,60
1,note_on,66,0,0
1,note_on,62,46,220
1,note_on,62,0,90
1,note_on,71,46,30
1,note_on,71,0,90
1,note_on,79,39,30
1,note_on,79,0,90
1,note_on,71,46,150
1,note_on,71,0,90
1,note_on,62,41,30
1,note_on,62,0,90
1,note_on,55,34,30
1,note_on,55,0,90
1,note_on,62,46,150
1,note_on,62,0,90
1,note_on,70,48,30
1,note_on,70,0,90
1,note_on,79,50,30
1,note_on,79,0,90
1,note_on,70,54,150
1,note_on,70,0,90
1,note_on,62,51,30
1,note_on,62,0,90
1,note_on,55,49,30
1,note_on,85,70,280
1,note_on,82,70,0
1,note_on,55,0,50
1,note_on,82,0,10
1,note_on,85,0,0
1,note_on,84,69,100
1,note_on,80,69,0
1,note_on,80,0,60
1,note_on,84,0,0
1,note_on,82,67,100
1,note_on,79,67,0
1,note_on,79,0,60
1,note_on,82,0,0
1,note_on,79,66,100
1,note_on,82,66,0
1,note_on,82,0,60
1,note_on,79,0,0
1,note_on,77,64,100
1,note_on,80,64,0
1,note_on,80,0,60
1,note_on,77,0,0
1,note_on,75,63,100
1,note_on,79,63,0
1,note_on,79,0,60
1,note_on,75,0,0
1,note_on,73,61,100
1,note_on,77,61,0
1,note_on,77,0,60
1,note_on,73,0,0
1,note_on,72,60,100
1,note_on,75,60,0
1,note_on,75,0,60
1,note_on,72,0,0
1,note_on,70,59,100
1,note_on,73,59,0
1,note_on,73,0,60
1,note_on,70,0,0
1,note_on,68,57,100
1,note_on,72,57,0
1,note_on,72,0,60
1,note_on,68,0,0
1,note_on,67,61,100
1,note_on,70,61,0
1,note_on,70,0,60
1,note_on,67,0,0
1,note_on,63,46,220
1,note_on,63,0,90
1,note_on,72,46,30
1,note_on,72,0,90
1,note_on,80,42,30
1,note_on,80,0,90
1,note_on,72,46,150
1,note_on,72,0,90
1,note_on,63,42,30
1,note_on,63,0,90
1,note_on,56,37,30
1,note_on,56,0,90
1,note_on,63,46,150
1,note_on,63,0,90
1,note_on,71,48,30
1,note_on,71,0,90
1,note_on,80,45,30
1,note_on,80,0,90
1,note_on,71,54,150
1,note_on,71,0,90
1,note_on,63,49,30
1,note_on,63,0,90
1,note_on,56,47,30
1,note_on,86,70,280
1,note_on,83,70,0
1,note_on,56,0,50
1,note_on,83,0,10
1,note_on,86,0,0
1,note_on,85,69,100
1,note_on,81,69,0
1,note_on,81,0,60
1,note_on,85,0,0
1,note_on,83,67,100
1,note_on,80,67,0
1,note_on,80,0,60
1,note_on,83,0,0
1,note_on,80,66,100
1,note_on,83,66,0
1,note_on,83,0,60
1,note_on,80,0,0
1,note_on,78,64,100
1,note_on,81,64,0
1,note_on,81,0,60
1,note_on,78,0,0
1,note_on,76,63,100
1,note_on,80,63,0
1,note_on,80,0,60
1,note_on,76,0,0
1,note_on,74,61,100
1,note_on,78,61,0
1,note_on,78,0,60
1,note_on,74,0,0
1,note_on,73,60,100
1,note_on,76,60,0
1,note_on,76,0,60
1,note_on,73,0,0
1,note_on,71,59,100
1,note_on,74,59,0
1,note_on,74,0,60
1,note_on,71,0,0
1,note_on,69,57,100
1,note_on,73,57,0
1,note_on,73,0,60
1,note_on,69,0,0
1,note_on,68,61,100
1,note_on,71,61,0
1,note_on,71,0,60
1,note_on,68,0,0
1,note_on,64,46,220
1,note_on,64,0,90
1,note_on,73,42,30
1,note_on,73,0,90
1,note_on,81,46,30
1,note_on,81,0,90
1,note_on,73,46,150
1,note_on,73,0,90
1,note_on,64,43,30
1,note_on,64,0,90
1,note_on,57,38,30
1,note_on,57,0,90
1,note_on,64,46,150
1,note_on,64,0,90
1,note_on,72,48,30
1,note_on,72,0,90
1,note_on,81,50,30
1,note_on,81,0,90
1,note_on,72,54,150
1,note_on,72,0,90
1,note_on,64,51,30
1,note_on,64,0,90
1,note_on,57,48,30
1,note_on,87,70,280
1,note_on,84,70,0
1,note_on,57,0,50
1,note_on,84,0,10
1,note_on,87,0,0
1,note_on,86,69,100
1,note_on,82,69,0
1,note_on,82,0,60
1,note_on,86,0,0
1,note_on,84,67,100
1,note_on,81,67,0
1,note_on,81,0,60
1,note_on,84,0,0
1,note_on,81,66,100
1,note_on,84,66,0
1,note_on,84,0,60
1,note_on,81,0,0
1,note_on,79,64,100
1,note_on,82,64,0
1,note_on,82,0,60
1,note_on,79,0,0
1,note_on,77,63,100
1,note_on,81,63,0
1,note_on,81,0,60
1,note_on,77,0,0
1,note_on,75,61,100
1,note_on,79,61,0
1,note_on,79,0,60
1,note_on,75,0,0
1,note_on,74,60,100
1,note_on,77,60,0
1,note_on,77,0,60
1,note_on,74,0,0
1,note_on,72,59,100
1,note_on,75,59,0
1,note_on,75,0,60
1,note_on,72,0,0
1,note_on,70,57,100
1,note_on,74,57,0
1,note_on,74,0,60
1,note_on,70,0,0
1,note_on,69,61,100
1,note_on,72,61,0
1,note_on,72,0,60
1,note_on,69,0,0
1,note_on,65,51,220
1,note_on,65,0,90
1,note_on,74,46,30
1,note_on,74,0,90
1,note_on,82,51,30
1,note_on,82,0,90
1,note_on,74,51,150
1,note_on,74,0,90
1,note_on,65,45,30
1,note_on,65,0,90
1,note_on,58,41,30
1,note_on,58,0,90
1,note_on,65,51,150
1,note_on,65,0,90
1,note_on,73,46,30
1,note_on,73,0,90
1,note_on,82,51,30
1,note_on,82,0,90
1,note_on,73,51,150
1,note_on,73,0,90
1,note_on,65,47,30
1,note_on,65,0,90
1,note_on,58,43,30
1,note_on,58,0,90
1,note_on,66,51,150
1,note_on,66,0,90
1,note_on,73,47,30
1,note_on,73,0,90
1,note_on,82,51,30
1,note_on,82,0,90
1,note_on,73,51,150
1,note_on,73,0,90
1,note_on,66,49,30
1,note_on,66,0,90
1,note_on,58,43,30
1,note_on,58,0,90
1,note_on,66,51,150
1,note_on,66,0,90
1,note_on,76,48,30
1,note_on,76,0,90
1,note_on,85,51,30
1,note_on,85,0,90
1,note_on,76,51,150
1,note_on,76,0,90
1,note_on,66,46,30
1,note_on,66,0,90
1,note_on,58,42,30
1,note_on,58,0,90
1,note_on,66,52,150
1,note_on,66,0,90
1,note_on,75,49,30
1,note_on,75,0,90
1,note_on,83,52,30
1,note_on,83,0,90
1,note_on,75,53,150
1,note_on,75,0,90
1,note_on,66,46,30
1,note_on,66,0,90
1,note_on,59,43,30
1,note_on,59,0,90
1,note_on,66,54,150
1,note_on,66,0,90
1,note_on,74,50,30
1,note_on,74,0,90
1,note_on,83,55,30
1,note_on,83,0,90
1,note_on,74,55,150
1,note_on,74,0,90
1,note_on,66,50,30
1,note_on,66,0,90
1,note_on,59,46,30
1,note_on,59,0,90
1,note_on,67,56,150
1,note_on,67,0,90
1,note_on,74,57,30
1,note_on,74,0,90
1,note_on,83,50,30
1,note_on,83,0,90
1,note_on,74,58,150
1,note_on,74,0,90
1,note_on,67,50,30
1,note_on,67,0,90
1,note_on,59,46,30
1,note_on,59,0,90
1,note_on,67,59,150
1,note_on,67,0,90
1,note_on,77,53,30
1,note_on,77,0,90
1,note_on,86,59,30
1,note_on,86,0,90
1,note_on,77,59,150
1,note_on,77,0,90
1,note_on,67,53,30
1,note_on,67,0,90
1,note_on,59,48,30
1,note_on,59,0,90
1,note_on,67,60,150
1,note_on,67,0,90
1,note_on,76,60,30
1,note_on,76,0,90
1,note_on,84,56,30
1,note_on,84,0,90
1,note_on,76,62,150
1,note_on,76,0,90
1,note_on,67,55,30
1,note_on,67,0,90
1,note_on,60,50,30
1,note_on,60,0,90
1,note_on,67,63,150
1,note_on,67,0,90
1,note_on,75,63,30
1,note_on,75,0,90
1,note_on,84,58,30
1,note_on,84,0,90
1,note_on,75,64,150
1,note_on,75,0,90
1,note_on,67,61,30
1,note_on,67,0,90
1,note_on,60,56,30
1,note_on,60,0,90
1,note_on,68,64,150
1,note_on,68,0,90
1,note_on,75,58,30
1,note_on,75,0,90
1,note_on,84,66,30
1,note_on,84,0,90
1,note_on,75,66,150
1,note_on,75,0,90
1,note_on,68,62,30
1,note_on,68,0,90
1,note_on,60,56,30
1,note_on,60,0,90
1,note_on,68,68,150
1,note_on,68,0,90
1,note_on,78,63,30
1,note_on,78,0,90
1,note_on,87,69,30
1,note_on,87,0,90
1,note_on,78,69,150
1,note_on,78,0,90
1,note_on,68,61,30
1,note_on,68,0,90
1,note_on,60,51,30
1,note_on,60,0,90
1,note_on,65,51,1110
1,note_on,65,0,90
1,note_on,68,51,30
1,note_on,68,0,90
1,note_on,77,45,30
1,note_on,73,45,0
1,note_on,73,0,90
1,note_on,77,0,0
1,note_on,68,51,150
1,note_on,68,0,90
1,note_on,65,45,30
1,note_on,65,0,90
1,note_on,61,40,30
1,note_on,61,0,90
1,note_on,63,51,150
1,note_on,63,0,90
1,note_on,68,51,30
1,note_on,68,0,90
1,note_on,75,45,30
1,note_on,78,45,0
1,note_on,78,0,90
1,note_on,75,0,0
1,note_on,68,51,150
1,note_on,68,0,90
1,note_on,63,44,30
1,note_on,63,0,90
1,note_on,60,39,30
1,note_on,60,0,90
1,note_on,65,51,150
1,note_on,65,0,90
1,note_on,68,51,30
1,note_on,68,0,90
1,note_on,77,46,30
1,note_on,73,46,0
1,note_on,73,0,90
1,note_on,77,0,0
1,note_on,68,51,150
1,note_on,68,0,90
1,note_on,65,45,30
1,note_on,65,0,90
1,note_on,61,42,30
1,note_on,61,0,90
1,note_on,63,51,150
1,note_on,63,0,90
1,note_on,68,51,30
1,note_on,68,0,90
1,note_on,72,46,30
1,note_on,80,46,0
1,note_on,80,0,90
1,note_on,72,0,0
1,note_on,68,51,150
1,note_on,68,0,90
1,note_on,63,45,30
1,note_on,63,0,90
1,note_on,56,40,30
1,note_on,56,0,90
1,note_on,64,43,150
1,note_on,64,0,90
1,note_on,68,43,30
1,note_on,68,0,90
1,note_on,76,39,30
1,note_on,73,39,0
1,note_on,73,0,90
1,note_on,76,0,0
1,note_on,68,43,150
1,note_on,68,0,90
1,note_on,64,37,30
1,note_on,64,0,90
1,note_on,61,33,30
1,note_on,61,0,90
1,note_on,63,43,150
1,note_on,63,0,90
1,note_on,68,43,30
1,note_on,68,0,90
1,note_on,75,39,30
1,note_on,78,39,0
1,note_on,78,0,90
1,note_on,75,0,0
1,note_on,68,43,150
1,note_on,68,0,90
1,note_on,63,39,30
1,note_on,63,0,90
1,note_on,60,37,30
1,note_on,60,0,90
1,note_on,64,43,150
1,note_on,64,0,90
1,note_on,68,43,30
1,note_on,68,0,90
1,note_on,76,38,30
1,note_on,73,38,0
1,note_on,73,0,90
1,note_on,76,0,0
1,note_on,68,43,150
1,note_on,68,0,90
1,note_on,64,38,30
1,note_on,64,0,90
1,note_on,61,35,30
1,note_on,61,0,90
1,note_on,63,43,150
1,note_on,63,0,90
1,note_on,68,43,30
1,note_on,68,0,90
1,note_on,72,40,30
1,note_on,80,40,0
1,note_on,80,0,90
1,note_on,72,0,0
1,note_on,68,43,150
1,note_on,68,0,90
1,note_on,63,39,30
1,note_on,63,0,90
1,note_on,56,35,30
1,note_on,56,0,90
1,note_on,64,43,150
1,note_on,64,0,90
1,note_on,68,43,30
1,note_on,68,0,90
1,note_on,76,41,30
1,note_on,73,41,0
1,note_on,73,0,90
1,note_on,76,0,0
1,note_on,68,45,150
1,note_on,68,0,90
1,note_on,64,42,30
1,note_on,64,0,90
1,note_on,61,41,30
1,note_on,61,0,90
1,note_on,64,48,150
1,note_on,64,0,90
1,note_on,68,49,30
1,note_on,68,0,90
1,note_on,76,50,30
1,note_on,74,41,0
1,note_on,74,0,90
1,note_on,76,0,0
1,note_on,68,52,150
1,note_on,68,0,90
1,note_on,64,50,30
1,note_on,64,0,90
1,note_on,59,46,30
1,note_on,59,0,90
1,note_on,64,56,150
1,note_on,64,0,90
1,note_on,69,56,30
1,note_on,69,0,90
1,note_on,73,47,30
1,note_on,81,57,0
1,note_on,81,0,90
1,note_on,73,0,0
1,note_on,69,59,150
1,note_on,69,0,90
1,note_on,64,55,30
1,note_on,64,0,90
1,note_on,57,50,30
1,note_on,57,0,90
1,note_on,67,62,150
1,note_on,67,0,90
1,note_on,73,63,30
1,note_on,73,0,90
1,note_on,85,64,30
1,note_on,76,54,0
1,note_on,76,0,90
1,note_on,85,0,0
1,note_on,73,67,150
1,note_on,73,0,90
1,note_on,67,62,30
1,note_on,67,0,90
1,note_on,58,58,30
1,note_on,58,0,90
1,note_on,68,51,3990
1,note_on,68,0,90
1,note_on,71,51,30
1,note_on,71,0,90
1,note_on,76,48,30
1,note_on,76,0,90
1,note_on,71,51,150
1,note_on,71,0,90
1,note_on,68,48,30
1,note_on,68,0,90
1,note_on,64,42,30
1,note_on,64,0,90
1,note_on,69,51,150
1,note_on,69,0,90
1,note_on,72,51,30
1,note_on,72,0,90
1,note_on,76,46,30
1,note_on,76,0,90
1,note_on,72,51,150
1,note_on,72,0,90
1,note_on,69,44,30
1,note_on,69,0,90
1,note_on,64,42,30
1,note_on,64,0,90
1,note_on,67,51,150
1,note_on,67,0,90
1,note_on,70,51,30
1,note_on,70,0,90
1,note_on,76,48,30
1,note_on,76,0,90
1,note_on,70,51,150
1,note_on,70,0,90
1,note_on,67,48,30
1,note_on,67,0,90
1,note_on,64,44,30
1,note_on,64,0,90
1,note_on,68,51,150
1,note_on,68,0,90
1,note_on,71,51,30
1,note_on,71,0,90
1,note_on,76,48,30
1,note_on,76,0,90
1,note_on,83,73,30
1,note_on,80,64,0
1,note_on,80,0,60
1,note_on,83,0,0
1,note_on,81,65,100
1,note_on,78,57,0
1,note_on,78,0,60
1,note_on,81,0,0
1,note_on,80,66,100
1,note_on,76,58,0
1,note_on,76,0,60
1,note_on,80,0,0
1,note_on,81,66,100
1,note_on,85,75,0
1,note_on,85,0,60
1,note_on,81,0,0
1,note_on,83,66,100
1,note_on,80,58,0
1,note_on,80,0,60
1,note_on,83,0,0
1,note_on,78,58,100
1,note_on,81,66,0
1,note_on,81,0,60
1,note_on,78,0,0
1,note_on,76,66,100
1,note_on,80,75,0
1,note_on,80,0,60
1,note_on,76,0,0
1,note_on,75,57,100
1,note_on,78,65,0
1,note_on,78,0,60
1,note_on,75,0,0
1,note_on,73,57,100
1,note_on,76,65,0
1,note_on,76,0,60
1,note_on,73,0,0
1,note_on,68,57,220
1,note_on,68,0,90
1,note_on,76,57,30
1,note_on,76,0,90
1,note_on,83,53,30
1,note_on,83,0,90
1,note_on,83,65,30
1,note_on,83,0,90
1,note_on,76,56,30
1,note_on,76,0,90
1,note_on,68,48,30
1,note_on,68,0,90
1,note_on,59,45,30
1,note_on,59,0,90
1,note_on,66,54,150
1,note_on,66,0,90
1,note_on,75,54,30
1,note_on,75,0,90
1,note_on,83,50,30
1,note_on,83,0,90
1,note_on,83,60,30
1,note_on,83,0,90
1,note_on,75,54,30
1,note_on,75,0,90
1,note_on,66,49,30
1,note_on,66,0,90
1,note_on,59,46,30
1,note_on,59,0,90
1,note_on,68,53,150
1,note_on,68,0,90
1,note_on,76,53,30
1,note_on,76,0,90
1,note_on,83,52,30
1,note_on,83,0,90
1,note_on,71,51,630
1,note_on,68,43,0
1,note_on,68,0,90
1,note_on,71,0,0
1,note_on,76,50,30
1,note_on,76,0,90
1,note_on,80,42,30
1,note_on,88,50,0
1,note_on,88,0,90
1,note_on,80,0,0
1,note_on,80,45,30
1,note_on,88,54,0
1,note_on,88,0,90
1,note_on,80,0,0
1,note_on,76,48,30
1,note_on,76,0,90
1,note_on,68,40,30
1,note_on,71,48,0
1,note_on,71,0,90
1,note_on,68,0,0
1,note_on,64,42,30
1,note_on,64,0,90
1,note_on,72,51,150
1,note_on,69,43,0
1,note_on,69,0,90
1,note_on,72,0,0
1,note_on,76,50,30
1,note_on,76,0,90
1,note_on,81,42,30
1,note_on,88,50,0
1,note_on,88,0,90
1,note_on,81,0,0
1,note_on,81,45,30
1,note_on,88,54,0
1,note_on,88,0,90
1,note_on,81,0,0
1,note_on,76,48,30
1,note_on,76,0,90
1,note_on,72,45,30
1,note_on,69,45,0
1,note_on,69,0,90
1,note_on,72,0,0
1,note_on,64,40,30
1,note_on,64,0,90
1,note_on,70,52,150
1,note_on,67,43,0
1,note_on,67,0,90
1,note_on,70,0,0
1,note_on,76,52,30
1,note_on,76,0,90
1,note_on,79,45,30
1,note_on,88,53,0
1,note_on,88,0,90
1,note_on,79,0,0
1,note_on,79,50,30
1,note_on,88,59,0
1,note_on,88,0,90
1,note_on,79,0,0
1,note_on,76,54,30
1,note_on,76,0,90
1,note_on,70,47,30
1,note_on,67,47,0
1,note_on,67,0,90
1,note_on,70,0,0
1,note_on,64,41,30
1,note_on,64,0,90
1,note_on,71,61,150
1,note_on,68,61,0
1,note_on,68,0,90
1,note_on,71,0,0
1,note_on,76,61,30
1,note_on,76,0,90
1,note_on,88,61,30
1,note_on,80,61,0
1,note_on,80,0,90
1,note_on,88,0,0
1,note_on,68,73,30
1,note_on,64,64,0
1,note_on,64,0,60
1,note_on,68,0,0
1,note_on,69,66,100
1,note_on,66,58,0
1,note_on,66,0,60
1,note_on,69,0,0
1,note_on,71,68,100
1,note_on,68,60,0
1,note_on,68,0,60
1,note_on,71,0,0
1,note_on,69,69,100
1,note_on,73,79,0
1,note_on,73,0,60
1,note_on,69,0,0
1,note_on,75,71,100
1,note_on,71,62,0
1,note_on,71,0,60
1,note_on,75,0,0
1,note_on,73,64,100
1,note_on,76,73,0
1,note_on,76,0,60
1,note_on,73,0,0
1,note_on,75,71,100
1,note_on,78,81,0
1,note_on,78,0,60
1,note_on,75,0,0
1,note_on,76,65,100
1,note_on,80,74,0
1,note_on,80,0,60
1,note_on,76,0,0
1,note_on,78,66,100
1,note_on,81,76,0
1,note_on,81,0,60
1,note_on,78,0,0
1,note_on,71,56,220
1,note_on,68,47,0
1,note_on,68,0,90
1,note_on,71,0,0
1,note_on,76,56,30
1,note_on,76,0,90
1,note_on,88,50,30
1,note_on,80,50,0
1,note_on,80,0,90
1,note_on,88,0,0
1,note_on,80,52,30
1,note_on,88,62,0
1,note_on,88,0,90
1,note_on,80,0,0
1,note_on,76,56,30
1,note_on,76,0,90
1,note_on,71,49,30
1,note_on,68,49,0
1,note_on,68,0,90
1,note_on,71,0,0
1,note_on,59,44,30
1,note_on,59,0,90
1,note_on,71,56,150
1,note_on,66,47,0
1,note_on,66,0,90
1,note_on,71,0,0
1,note_on,75,56,30
1,note_on,75,0,90
1,note_on,87,51,30
1,note_on,78,51,0
1,note_on,78,0,90
1,note_on,87,0,0
1,note_on,78,53,30
1,note_on,87,63,0
1,note_on,87,0,90
1,note_on,78,0,0
1,note_on,75,57,30
1,note_on,75,0,90
1,note_on,71,50,30
1,note_on,66,50,0
1,note_on,66,0,90
1,note_on,71,0,0
1,note_on,59,43,30
1,note_on,59,0,90
1,note_on,71,47,150
1,note_on,76,56,0
1,note_on,68,47,0
1,note_on,68,0,90
1,note_on,76,0,0
1,note_on,71,0,0
1,note_on,80,56,30
1,note_on,80,0,90
1,note_on,88,51,30
1,note_on,83,51,0
1,note_on,83,0,90
1,note_on,88,0,0
1,note_on,92,62,30
1,note_on,92,0,90
1,note_on,80,56,30
1,note_on,80,0,90
1,note_on,76,48,30
1,note_on,68,48,0
1,note_on,71,48,0
1,note_on,71,0,90
1,note_on,68,0,0
1,note_on,76,0,0
1,note_on,64,45,30
1,note_on,64,0,90
1,note_on,72,47,150
1,note_on,76,56,0
1,note_on,69,47,0
1,note_on,69,0,90
1,note_on,76,0,0
1,note_on,72,0,0
1,note_on,81,56,30
1,note_on,81,0,90
1,note_on,88,53,30
1,note_on,84,53,0
1,note_on,84,0,90
1,note_on,88,0,0
1,note_on,93,63,30
1,note_on,93,0,90
1,note_on,81,57,30
1,note_on,81,0,90
1,note_on,76,51,30
1,note_on,69,51,0
1,note_on,72,51,0
1,note_on,72,0,90
1,note_on,69,0,0
1,note_on,76,0,0
1,note_on,64,47,30
1,note_on,64,0,90
1,note_on,71,47,150
1,note_on,76,56,0
1,note_on,68,47,0
1,note_on,68,0,90
1,note_on,76,0,0
1,note_on,71,0,0
1,note_on,80,56,30
1,note_on,80,0,90
1,note_on,88,49,30
1,note_on,83,49,0
1,note_on,83,0,90
1,note_on,88,0,0
1,note_on,92,63,30
1,note_on,92,0,90
1,note_on,80,58,30
1,note_on,80,0,90
1,note_on,76,53,30
1,note_on,68,53,0
1,note_on,71,53,0
1,note_on,71,0,90
1,note_on,68,0,0
1,note_on,76,0,0
1,note_on,64,47,30
1,note_on,64,0,90
1,note_on,72,51,150
1,note_on,76,61,0
1,note_on,69,51,0
1,note_on,69,0,90
1,note_on,76,0,0
1,note_on,72,0,0
1,note_on,81,61,30
1,note_on,81,0,90
1,note_on,88,56,30
1,note_on,84,56,0
1,note_on,84,0,90
1,note_on,88,0,0
1,note_on,93,69,30
1,note_on,93,0,90
1,note_on,81,64,30
1,note_on,81,0,90
1,note_on,72,59,30
1,note_on,69,59,0
1,note_on,76,59,0
1,note_on,76,0,90
1,note_on,69,0,0
1,note_on,72,0,0
1,note_on,64,54,30
1,note_on,64,0,90
1,note_on,71,55,150
1,note_on,76,66,0
1,note_on,68,55,0
1,note_on,68,0,90
1,note_on,76,0,0
1,note_on,71,0,0
1,note_on,80,66,30
1,note_on,80,0,90
1,note_on,83,55,30
1,note_on,88,66,0
1,note_on,88,0,90
1,note_on,83,0,0
1,note_on,92,74,30
1,note_on,92,0,90
1,note_on,80,68,30
1,note_on,80,0,90
1,note_on,71,61,30
1,note_on,71,0,90
1,note_on,68,53,30
1,note_on,64,53,0
1,note_on,64,0,90
1,note_on,68,0,0
1,note_on,67,58,150
1,note_on,70,70,0
1,note_on,70,0,90
1,note_on,67,0,0
1,note_on,76,72,30
1,note_on,76,0,90
1,note_on,79,65,30
1,note_on,88,65,0
1,note_on,88,0,90
1,note_on,79,0,0
1,note_on,83,76,670
1,note_on,80,64,0
1,note_on,80,0,60
1,note_on,83,0,0
1,note_on,81,75,100
1,note_on,78,63,0
1,note_on,78,0,60
1,note_on,81,0,0
1,note_on,80,74,100
1,note_on,76,62,0
1,note_on,76,0,60
1,note_on,80,0,0
1,note_on,75,61,100
1,note_on,78,72,0
1,note_on,78,0,60
1,note_on,75,0,0
1,note_on,73,60,100
1,note_on,76,71,0
1,note_on,76,0,60
1,note_on,73,0,0
1,note_on,71,59,100
1,note_on,75,70,0
1,note_on,75,0,60
1,note_on,71,0,0
1,note_on,69,58,100
1,note_on,73,69,0
1,note_on,73,0,60
1,note_on,69,0,0
1,note_on,68,57,100
1,note_on,71,68,0
1,note_on,71,0,60
1,note_on,68,0,0
1,note_on,66,56,100
1,note_on,69,67,0
1,note_on,69,0,60
1,note_on,66,0,0
1,note_on,64,55,100
1,note_on,68,65,0
1,note_on,68,0,60
1,note_on,64,0,0
1,note_on,63,54,100
1,note_on,66,64,0
1,note_on,66,0,60
1,note_on,63,0,0
1,note_on,68,54,220
1,note_on,68,0,90
1,note_on,71,53,30
1,note_on,71,0,90
1,note_on,76,50,30
1,note_on,76,0,90
1,note_on,80,63,30
1,note_on,80,0,90
1,note_on,71,53,30
1,note_on,71,0,90
1,note_on,68,48,30
1,note_on,68,0,90
1,note_on,64,45,30
1,note_on,64,0,90
1,note_on,69,54,150
1,note_on,69,0,90
1,note_on,72,54,30
1,note_on,72,0,90
1,note_on,76,45,30
1,note_on,76,0,90
1,note_on,81,60,30
1,note_on,81,0,90
1,note_on,72,54,30
1,note_on,72,0,90
1,note_on,69,50,30
1,note_on,69,0,90
1,note_on,64,41,30
1,note_on,64,0,90
1,note_on,68,54,150
1,note_on,68,0,90
1,note_on,71,54,30
1,note_on,71,0,90
1,note_on,76,46,30
1,note_on,76,0,90
1,note_on,80,64,30
1,note_on,80,0,90
1,note_on,71,55,30
1,note_on,71,0,90
1,note_on,68,49,30
1,note_on,68,0,90
1,note_on,64,41,30
1,note_on,64,0,90
1,note_on,69,56,150
1,note_on,69,0,90
1,note_on,72,56,30
1,note_on,72,0,90
1,note_on,76,49,30
1,note_on,76,0,90
1,note_on,81,65,30
1,note_on,81,0,90
1,note_on,72,58,30
1,note_on,72,0,90
1,note_on,69,49,30
1,note_on,69,0,90
1,note_on,64,47,30
1,note_on,64,0,90
1,note_on,68,61,150
1,note_on,68,0,90
1,note_on,71,61,30
1,note_on,71,0,90
1,note_on,76,56,30
1,note_on,76,0,90
1,note_on,80,72,30
1,note_on,80,0,90
1,note_on,71,62,30
1,note_on,71,0,90
1,note_on,68,58,30
1,note_on,68,0,90
1,note_on,64,53,30
1,note_on,64,0,90
1,note_on,67,63,150
1,note_on,67,0,90
1,note_on,70,61,30
1,note_on,70,0,90
1,note_on,76,64,30
1,note_on,76,0,90
1,note_on,71,68,670
1,note_on,76,68,0
1,note_on,76,0,60
1,note_on,71,0,0
1,note_on,68,68,100
1,note_on,71,68,0
1,note_on,71,0,60
1,note_on,68,0,0
1,note_on,83,73,100
1,note_on,83,0,60
1,note_on,63,66,100
1,note_on,59,49,0
1,note_on,59,0,60
1,note_on,63,0,0
1,note_on,64,68,100
1,note_on,61,51,0
1,note_on,61,0,60
1,note_on,64,0,0
1,note_on,63,58,100
1,note_on,66,79,0
1,note_on,66,0,60
1,note_on,63,0,0
1,note_on,68,71,100
1,note_on,64,60,0
1,note_on,64,0,60
1,note_on,68,0,0
1,note_on,66,61,100
1,note_on,69,72,0
1,note_on,69,0,60
1,note_on,66,0,0
1,note_on,68,62,100
1,note_on,71,74,0
1,note_on,71,0,60
1,note_on,68,0,0
1,note_on,69,63,100
1,note_on,73,75,0
1,note_on,73,0,60
1,note_on,69,0,0
1,note_on,71,65,100
1,note_on,75,77,0
1,note_on,75,0,60
1,note_on,71,0,0
1,note_on,76,57,100
1,note_on,76,0,60
1,note_on,80,49,60
1,note_on,80,0,60
1,note_on,83,48,60
1,note_on,83,0,60
1,note_on,76,46,60
1,note_on,76,0,60
1,note_on,76,52,60
1,note_on,76,0,60
1,note_on,83,49,60
1,note_on,83,0,60
1,note_on,80,47,60
1,note_on,80,0,60
1,note_on,76,47,60
1,note_on,76,0,60
1,note_on,76,57,60
1,note_on,76,0,60
1,note_on,81,49,60
1,note_on,81,0,60
1,note_on,84,48,60
1,note_on,84,0,60
1,note_on,76,46,60
1,note_on,76,0,60
1,note_on,76,53,60
1,note_on,76,0,60
1,note_on,84,48,60
1,note_on,84,0,60
1,note_on,81,47,60
1,note_on,81,0,60
1,note_on,76,47,60
1,note_on,76,0,60
1,note_on,76,57,60
1,note_on,76,0,60
1,note_on,80,49,60
1,note_on,80,0,60
1,note_on,83,48,60
1,note_on,83,0,60
1,note_on,76,48,60
1,note_on,76,0,60
1,note_on,76,56,60
1,note_on,76,0,60
1,note_on,83,47,60
1,note_on,83,0,60
1,note_on,80,47,60
1,note_on,80,0,60
1,note_on,76,47,60
1,note_on,76,0,60
1,note_on,75,57,60
1,note_on,75,0,60
1,note_on,78,49,60
1,note_on,78,0,60
1,note_on,83,48,60
1,note_on,83,0,60
1,note_on,76,47,60
1,note_on,76,0,60
1,note_on,76,55,60
1,note_on,76,0,60
1,note_on,83,53,60
1,note_on,83,0,60
1,note_on,78,47,60
1,note_on,78,0,60
1,note_on,75,47,60
1,note_on,75,0,60
1,note_on,73,57,60
1,note_on,73,0,60
1,note_on,76,49,60
1,note_on,76,0,60
1,note_on,81,48,60
1,note_on,81,0,60
1,note_on,76,46,60
1,note_on,76,0,60
1,note_on,76,56,60
1,note_on,76,0,60
1,note_on,81,49,60
1,note_on,81,0,60
1,note_on,76,47,60
1,note_on,76,0,60
1,note_on,73,47,60
1,note_on,73,0,60
1,note_on,71,57,60
1,note_on,71,0,60
1,note_on,75,49,60
1,note_on,75,0,60
1,note_on,80,48,60
1,note_on,80,0,60
1,note_on,76,47,60
1,note_on,76,0,60
1,note_on,76,55,60
1,note_on,76,0,60
1,note_on,80,49,60
1,note_on,80,0,60
1,note_on,75,47,60
1,note_on,75,0,60
1,note_on,71,43,60
1,note_on,71,0,60
1,note_on,69,57,60
1,note_on,69,0,60
1,note_on,73,49,60
1,note_on,73,0,60
1,note_on,78,50,60
1,note_on,78,0,60
1,note_on,76,45,60
1,note_on,76,0,60
1,note_on,76,53,60
1,note_on,76,0,60
1,note_on,78,46,60
1,note_on,78,0,60
1,note_on,73,47,60
1,note_on,73,0,60
1,note_on,69,47,60
1,note_on,69,0,60
1,note_on,66,57,60
1,note_on,66,0,60
1,note_on,69,49,60
1,note_on,69,0,60
1,note_on,75,48,60
1,note_on,75,0,60
1,note_on,76,47,60
1,note_on,76,0,60
1,note_on,76,55,60
1,note_on,76,0,60
1,note_on,75,47,60
1,note_on,75,0,60
1,note_on,69,47,60
1,note_on,69,0,60
1,note_on,66,41,60
1,note_on,66,0,60
1,note_on,64,57,60
1,note_on,64,0,60
1,note_on,68,49,60
1,note_on,68,0,60
1,note_on,76,48,60
1,note_on,76,0,60
1,note_on,76,47,60
1,note_on,76,0,60
1,note_on,76,53,60
1,note_on,76,0,60
1,note_on,76,51,60
1,note_on,76,0,60
1,note_on,68,45,60
1,note_on,68,0,60
1,note_on,64,39,60
1,note_on,64,0,60
1,note_on,65,61,60
1,note_on,65,0,60
1,note_on,69,52,60
1,note_on,69,0,60
1,note_on,75,53,60
1,note_on,75,0,60
1,note_on,76,51,60
1,note_on,76,0,60
1,note_on,76,61,60
1,note_on,76,0,60
1,note_on,75,54,60
1,note_on,75,0,60
1,note_on,69,47,60
1,note_on,69,0,60
1,note_on,65,46,60
1,note_on,65,0,60
1,note_on,64,66,60
1,note_on,64,0,60
1,note_on,68,57,60
1,note_on,68,0,60
1,note_on,76,56,60
1,note_on,76,0,60
1,note_on,76,56,60
1,note_on,76,0,60
1,note_on,76,63,60
1,note_on,76,0,60
1,note_on,76,56,60
1,note_on,76,0,60
1,note_on,68,53,60
1,note_on,68,0,60
1,note_on,64,45,60
1,note_on,64,0,60
1,note_on,65,69,60
1,note_on,65,0,60
1,note_on,69,62,60
1,note_on,69,0,60
1,note_on,75,62,60
1,note_on,75,0,60
1,note_on,76,57,60
1,note_on,76,0,60
1,note_on,76,65,60
1,note_on,76,0,60
1,note_on,75,59,60
1,note_on,75,0,60
1,note_on,69,57,60
1,note_on,69,0,60
1,note_on,65,49,60
1,note_on,65,0,60
1,note_on,64,86,60
1,note_on,64,0,60
1,note_on,68,76,180
1,note_on,76,76,0
1,note_on,76,0,60
1,note_on,68,0,0
1,note_on,64,86,660
1,note_on,64,0,60
1,note_on,68,78,180
1,note_on,80,78,0
1,note_on,76,78,0
1,note_on,76,0,60
1,note_on,80,0,0
1,note_on,68,0,0
1,note_on,64,64,660
1,note_on,64,0,60
1,note_on,68,55,60
1,note_on,68,0,60
1,note_on,76,54,60
1,note_on,76,0,60
1,note_on,76,51,60
1,note_on,76,0,60
1,note_on,76,58,60
1,note_on,76,0,60
1,note_on,80,50,60
1,note_on,80,0,60
1,note_on,71,51,60
1,note_on,71,0,60
1,note_on,68,51,60
1,note_on,68,0,60
1,note_on,64,62,60
1,note_on,64,0,60
1,note_on,68,53,60
1,note_on,68,0,60
1,note_on,76,51,60
1,note_on,76,0,60
1,note_on,76,49,60
1,note_on,76,0,60
1,note_on,76,57,60
1,note_on,76,0,60
1,note_on,80,56,60
1,note_on,80,0,60
1,note_on,71,50,60
1,note_on,71,0,60
1,note_on,68,49,60
1,note_on,68,0,60
1,note_on,64,55,60
1,note_on,68,55,0
1,note_on,76,55,0
1,note_on,76,0,960
1,note_on,68,0,0
1,note_on,64,0,0
2,note_on,64,58,953
2,note_on,64,0,60
2,note_on,76,65,420
2,note_on,76,0,60
2,note_on,63,58,420
2,note_on,63,0,60
2,note_on,78,67,420
2,note_on,78,0,60
2,note_on,64,58,420
2,note_on,64,0,60
2,note_on,76,70,420
2,note_on,76,0,60
2,note_on,59,58,420
2,note_on,59,0,60
2,note_on,83,58,420
2,note_on,83,0,60
2,note_on,64,51,420
2,note_on,64,0,60
2,note_on,76,56,420
2,note_on,76,0,60
2,note_on,63,51,420
2,note_on,63,0,60
2,note_on,78,54,420
2,note_on,78,0,60
2,note_on,64,51,420
2,note_on,64,0,60
2,note_on,76,53,420
2,note_on,76,0,60
2,note_on,59,51,420
2,note_on,59,0,60
2,note_on,83,56,420
2,note_on,83,0,60
2,note_on,56,53,420
2,note_on,56,0,60
2,note_on,80,54,420
2,note_on,80,0,60
2,note_on,57,55,420
2,note_on,57,0,60
2,note_on,85,62,420
2,note_on,85,0,60
2,note_on,88,67,180
2,note_on,88,0,60
2,note_on,58,53,180
2,note_on,58,0,60
2,note_on,82,57,420
2,note_on,82,0,60
2,note_on,59,55,420
2,note_on,59,0,60
2,note_on,87,61,420
2,note_on,87,0,60
2,note_on,90,64,180
2,note_on,90,0,60
2,note_on,63,57,180
2,note_on,63,0,60
2,note_on,64,60,900
2,note_on,64,0,60
2,note_on,66,64,900
2,note_on,66,0,60
2,note_on,68,68,900
2,note_on,68,0,60
2,note_on,69,73,900
2,note_on,69,0,60
2,note_on,70,78,900
2,note_on,70,0,60
2,note_on,73,78,900
2,note_on,73,0,60
2,note_on,70,78,900
2,note_on,70,0,60
2,note_on,67,71,900
2,note_on,67,0,60
2,note_on,64,64,900
2,note_on,64,0,60
2,note_on,61,59,900
2,note_on,61,0,60
2,note_on,59,54,900
2,note_on,59,0,60
2,note_on,87,54,420
2,note_on,87,0,60
2,note_on,90,60,180
2,note_on,90,0,60
2,note_on,57,51,180
2,note_on,57,0,60
2,note_on,78,57,420
2,note_on,78,0,60
2,note_on,56,51,420
2,note_on,56,0,60
2,note_on,83,54,420
2,note_on,83,0,60
2,note_on,88,60,180
2,note_on,88,0,60
2,note_on,57,51,180
2,note_on,57,0,60
2,note_on,78,57,420
2,note_on,78,0,60
2,note_on,56,51,420
2,note_on,56,0,60
2,note_on,83,54,420
2,note_on,83,0,60
2,note_on,88,60,180
2,note_on,88,0,60
2,note_on,57,75,180
2,note_on,57,0,60
2,note_on,81,63,180
2,note_on,76,53,0
2,note_on,73,53,0
2,note_on,69,53,0
2,note_on,61,44,0
2,note_on,64,44,0
2,note_on,64,0,60
2,note_on,76,0,0
2,note_on,73,0,0
2,note_on,81,0,0
2,note_on,61,0,0
2,note_on,69,0,0
2,note_on,59,82,180
2,note_on,59,0,60
2,note_on,83,65,180
2,note_on,80,54,0
2,note_on,76,54,0
2,note_on,71,54,0
2,note_on,68,45,0
2,note_on,64,45,0
2,note_on,64,0,60
2,note_on,80,0,0
2,note_on,76,0,0
2,note_on,83,0,0
2,note_on,68,0,0
2,note_on,71,0,0
2,note_on,61,81,180
2,note_on,61,0,60
2,note_on,85,65,180
2,note_on,81,54,0
2,note_on,76,54,0
2,note_on,73,54,0
2,note_on,69,45,0
2,note_on,64,45,0
2,note_on,64,0,60
2,note_on,81,0,0
2,note_on,76,0,0
2,note_on,85,0,0
2,note_on,69,0,0
2,note_on,73,0,0
2,note_on,60,81,180
2,note_on,60,0,60
2,note_on,84,65,180
2,note_on,79,54,0
2,note_on,76,54,0
2,note_on,72,54,0
2,note_on,70,45,0
2,note_on,67,45,0
2,note_on,64,45,0
2,note_on,64,0,60
2,note_on,70,0,0
2,note_on,79,0,0
2,note_on,76,0,0
2,note_on,84,0,0
2,note_on,67,0,0
2,note_on,72,0,0
2,note_on,59,80,180
2,note_on,59,0,60
2,note_on,83,65,180
2,note_on,80,54,0
2,note_on,76,54,0
2,note_on,71,54,0
2,note_on,68,45,0
2,note_on,64,45,0
2,note_on,64,0,60
2,note_on,80,0,0
2,note_on,76,0,0
2,note_on,83,0,0
2,note_on,68,0,0
2,note_on,71,0,0
2,note_on,59,81,180
2,note_on,59,0,60
2,note_on,83,65,180
2,note_on,78,54,0
2,note_on,75,54,0
2,note_on,71,54,0
2,note_on,69,45,0
2,note_on,66,45,0
2,note_on,66,0,60
2,note_on,78,0,0
2,note_on,75,0,0
2,note_on,83,0,0
2,note_on,69,0,0
2,note_on,71,0,0
2,note_on,64,81,180
2,note_on,64,0,454
2,note_on,88,79,0
2,note_on,83,66,0
2,note_on,80,66,0
2,note_on,76,66,0
2,note_on,71,55,0
2,note_on,68,55,0
2,note_on,68,0,60
2,note_on,83,0,0
2,note_on,80,0,0
2,note_on,88,0,0
2,note_on,71,0,0
2,note_on,76,0,0
2,note_on,64,58,403
2,note_on,64,0,60
2,note_on,76,59,420
2,note_on,76,0,60
2,note_on,63,58,420
2,note_on,63,0,60
2,note_on,78,62,420
2,note_on,78,0,60
2,note_on,64,58,420
2,note_on,64,0,60
2,note_on,76,58,420
2,note_on,76,0,60
2,note_on,59,58,420
2,note_on,59,0,60
2,note_on,83,61,420
2,note_on,83,0,60
2,note_on,64,51,420
2,note_on,64,0,60
2,note_on,76,53,420
2,note_on,76,0,60
2,note_on,63,51,420
2,note_on,63,0,60
2,note_on,78,57,420
2,note_on,78,0,60
2,note_on,64,51,420
2,note_on,64,0,60
2,note_on,76,51,420
2,note_on,76,0,60
2,note_on,59,51,420
2,note_on,59,0,60
2,note_on,83,51,420
2,note_on,83,0,60
2,note_on,59,53,420
2,note_on,59,0,60
2,note_on,83,54,420
2,note_on,83,0,60
2,note_on,57,51,420
2,note_on,57,0,60
2,note_on,84,51,420
2,note_on,84,0,60
2,note_on,57,53,420
2,note_on,57,0,60
2,note_on,81,54,420
2,note_on,81,0,60
2,note_on,55,51,420
2,note_on,55,0,60
2,note_on,86,62,420
2,note_on,86,0,60
2,note_on,55,57,420
2,note_on,55,0,60
2,note_on,91,65,420
2,note_on,91,0,60
2,note_on,55,62,420
2,note_on,55,0,60
2,note_on,95,70,420
2,note_on,95,0,60
2,note_on,55,66,420
2,note_on,55,0,60
2,note_on,98,78,420
2,note_on,98,0,60
2,note_on,60,75,420
2,note_on,60,0,60
2,note_on,61,71,420
2,note_on,61,0,60
2,note_on,88,71,180
2,note_on,79,60,0
2,note_on,76,60,0
2,note_on,69,51,0
2,note_on,61,51,0
2,note_on,61,0,60
2,note_on,76,0,0
2,note_on,88,0,0
2,note_on,79,0,0
2,note_on,69,0,0
2,note_on,62,77,180
2,note_on,62,0,60
2,note_on,63,74,420
2,note_on,63,0,60
2,note_on,90,73,180
2,note_on,81,62,0
2,note_on,78,62,0
2,note_on,71,53,0
2,note_on,63,53,0
2,note_on,63,0,60
2,note_on,78,0,0
2,note_on,90,0,0
2,note_on,81,0,0
2,note_on,71,0,0
2,note_on,64,80,180
2,note_on,64,0,60
2,note_on,66,77,420
2,note_on,66,0,60
2,note_on,90,76,180
2,note_on,81,64,0
2,note_on,78,64,0
2,note_on,74,54,0
2,note_on,69,54,0
2,note_on,69,0,60
2,note_on,78,0,0
2,note_on,90,0,0
2,note_on,81,0,0
2,note_on,74,0,0
2,note_on,67,78,180
2,note_on,67,0,60
2,note_on,91,78,180
2,note_on,83,65,0
2,note_on,79,65,0
2,note_on,74,55,0
2,note_on,71,55,0
2,note_on,71,0,60
2,note_on,79,0,0
2,note_on,91,0,0
2,note_on,83,0,0
2,note_on,74,0,0
2,note_on,69,80,180
2,note_on,69,0,60
2,note_on,93,79,180
2,note_on,86,67,0
2,note_on,81,67,0
2,note_on,78,56,0
2,note_on,74,56,0
2,note_on,74,0,60
2,note_on,81,0,0
2,note_on,93,0,0
2,note_on,86,0,0
2,note_on,78,0,0
2,note_on,71,81,180
2,note_on,71,0,60
2,note_on,95,81,180
2,note_on,86,68,0
2,note_on,83,68,0
2,note_on,79,57,0
2,note_on,74,57,0
2,note_on,74,0,60
2,note_on,83,0,0
2,note_on,95,0,0
2,note_on,86,0,0
2,note_on,79,0,0
2,note_on,72,83,180
2,note_on,72,0,60
2,note_on,96,82,180
2,note_on,88,69,0
2,note_on,84,69,0
2,note_on,79,59,0
2,note_on,76,59,0
2,note_on,76,0,60
2,note_on,84,0,0
2,note_on,96,0,0
2,note_on,88,0,0
2,note_on,79,0,0
2,note_on,103,96,449
2,note_on,103,0,31
2,note_on,61,84,180
2,note_on,61,0,60
2,note_on,62,84,180
2,note_on,62,0,60
2,note_on,59,74,420
2,note_on,59,0,60
2,note_on,60,71,100
2,note_on,60,0,60
2,note_on,61,68,100
2,note_on,61,0,60
2,note_on,62,65,100
2,note_on,62,0,120
2,note_on,74,69,360
2,note_on,74,0,120
2,note_on,55,53,360
2,note_on,55,0,60
2,note_on,79,55,420
2,note_on,79,0,60
2,note_on,55,51,420
2,note_on,55,0,60
2,note_on,78,59,420
2,note_on,78,0,60
2,note_on,55,78,420
2,note_on,55,0,120
2,note_on,59,71,277
2,note_on,59,0,46
2,note_on,60,68,100
2,note_on,60,0,60
2,note_on,61,65,100
2,note_on,61,0,60
2,note_on,62,63,100
2,note_on,62,0,120
2,note_on,74,66,360
2,note_on,74,0,120
2,note_on,55,53,360
2,note_on,55,0,60
2,note_on,79,59,420
2,note_on,79,0,60
2,note_on,55,51,420
2,note_on,55,0,60
2,note_on,78,59,420
2,note_on,78,0,60
2,note_on,55,78,420
2,note_on,55,0,120
2,note_on,59,71,291
2,note_on,59,0,49
2,note_on,60,68,100
2,note_on,60,0,60
2,note_on,61,65,100
2,note_on,61,0,60
2,note_on,62,63,100
2,note_on,62,0,120
2,note_on,74,66,360
2,note_on,74,0,120
2,note_on,55,53,360
2,note_on,55,0,60
2,note_on,79,56,420
2,note_on,79,0,60
2,note_on,55,51,420
2,note_on,55,0,60
2,note_on,79,59,420
2,note_on,79,0,60
2,note_on,63,76,420
2,note_on,63,0,120
2,note_on,58,68,294
2,note_on,58,0,49
2,note_on,61,66,100
2,note_on,61,0,60
2,note_on,62,65,100
2,note_on,62,0,60
2,note_on,63,63,100
2,note_on,63,0,120
2,note_on,75,65,360
2,note_on,75,0,120
2,note_on,56,53,360
2,note_on,56,0,60
2,note_on,80,50,420
2,note_on,80,0,60
2,note_on,56,51,420
2,note_on,56,0,60
2,note_on,80,59,420
2,note_on,80,0,60
2,note_on,64,76,420
2,note_on,64,0,120
2,note_on,59,68,300
2,note_on,59,0,50
2,note_on,62,66,100
2,note_on,62,0,60
2,note_on,63,65,100
2,note_on,63,0,60
2,note_on,64,63,100
2,note_on,64,0,120
2,note_on,76,65,360
2,note_on,76,0,120
2,note_on,57,53,360
2,note_on,57,0,60
2,note_on,81,56,420
2,note_on,81,0,60
2,note_on,57,51,420
2,note_on,57,0,60
2,note_on,81,59,420
2,note_on,81,0,60
2,note_on,65,78,420
2,note_on,65,0,120
2,note_on,60,68,0
2,note_on,60,0,60
2,note_on,63,66,100
2,note_on,63,0,60
2,note_on,64,65,100
2,note_on,64,0,60
2,note_on,65,63,100
2,note_on,65,0,120
2,note_on,77,65,360
2,note_on,77,0,120
2,note_on,58,58,360
2,note_on,58,0,120
2,note_on,82,58,360
2,note_on,82,0,120
2,note_on,58,58,360
2,note_on,58,0,120
2,note_on,82,58,360
2,note_on,82,0,120
2,note_on,58,58,360
2,note_on,58,0,120
2,note_on,82,58,360
2,note_on,82,0,120
2,note_on,58,58,360
2,note_on,58,0,120
2,note_on,85,58,360
2,note_on,85,0,120
2,note_on,59,60,360
2,note_on,59,0,120
2,note_on,83,60,360
2,note_on,83,0,120
2,note_on,59,62,360
2,note_on,59,0,120
2,note_on,83,62,360
2,note_on,83,0,120
2,note_on,59,65,360
2,note_on,59,0,120
2,note_on,83,69,360
2,note_on,83,0,120
2,note_on,59,67,360
2,note_on,59,0,120
2,note_on,86,70,360
2,note_on,86,0,120
2,note_on,60,69,360
2,note_on,60,0,120
2,note_on,84,71,360
2,note_on,84,0,120
2,note_on,60,72,360
2,note_on,60,0,120
2,note_on,84,73,360
2,note_on,84,0,120
2,note_on,60,74,360
2,note_on,60,0,120
2,note_on,84,76,360
2,note_on,84,0,120
2,note_on,60,77,360
2,note_on,60,0,60
2,note_on,87,78,343
2,note_on,87,0,60
2,note_on,61,58,900
2,note_on,61,0,120
2,note_on,77,61,360
2,note_on,73,61,0
2,note_on,73,0,60
2,note_on,77,0,0
2,note_on,60,58,420
2,note_on,60,0,120
2,note_on,78,62,360
2,note_on,75,62,0
2,note_on,75,0,60
2,note_on,78,0,0
2,note_on,61,58,420
2,note_on,61,0,120
2,note_on,77,58,360
2,note_on,73,49,0
2,note_on,73,0,60
2,note_on,77,0,0
2,note_on,56,58,420
2,note_on,56,0,120
2,note_on,72,49,360
2,note_on,80,58,0
2,note_on,80,0,60
2,note_on,72,0,0
2,note_on,61,49,420
2,note_on,61,0,120
2,note_on,76,49,360
2,note_on,73,41,0
2,note_on,73,0,60
2,note_on,76,0,0
2,note_on,60,49,420
2,note_on,60,0,120
2,note_on,75,41,360
2,note_on,78,49,0
2,note_on,78,0,60
2,note_on,75,0,0
2,note_on,61,49,420
2,note_on,61,0,120
2,note_on,76,49,360
2,note_on,73,41,0
2,note_on,73,0,60
2,note_on,76,0,0
2,note_on,56,49,420
2,note_on,56,0,120
2,note_on,72,41,360
2,note_on,80,49,0
2,note_on,80,0,60
2,note_on,72,0,0
2,note_on,61,49,420
2,note_on,61,0,120
2,note_on,76,50,360
2,note_on,73,43,0
2,note_on,73,0,60
2,note_on,76,0,0
2,note_on,59,54,420
2,note_on,59,0,120
2,note_on,74,49,360
2,note_on,76,58,0
2,note_on,76,0,60
2,note_on,74,0,0
2,note_on,57,62,420
2,note_on,57,0,120
2,note_on,81,66,360
2,note_on,73,56,0
2,note_on,73,0,60
2,note_on,81,0,0
2,note_on,58,69,420
2,note_on,58,0,120
2,note_on,76,62,360
2,note_on,85,74,0
2,note_on,85,0,60
2,note_on,76,0,0
2,note_on,59,78,420
2,note_on,59,0,37
2,note_on,83,65,117
2,note_on,75,54,0
2,note_on,71,54,0
2,note_on,63,45,0
2,note_on,66,45,0
2,note_on,66,0,40
2,note_on,71,0,0
2,note_on,83,0,0
2,note_on,75,0,0
2,note_on,63,0,0
2,note_on,57,82,166
2,note_on,57,0,46
2,note_on,83,65,120
2,note_on,78,54,0
2,note_on,75,54,0
2,note_on,71,54,0
2,note_on,66,45,0
2,note_on,63,45,0
2,note_on,63,0,26
2,note_on,78,0,0
2,note_on,75,0,0
2,note_on,83,0,0
2,note_on,66,0,0
2,note_on,71,0,0
2,note_on,56,81,137
2,note_on,56,0,37
2,note_on,80,65,123
2,note_on,76,54,0
2,note_on,71,54,0
2,note_on,68,54,0
2,note_on,64,45,0
2,note_on,59,45,0
2,note_on,59,0,29
2,note_on,76,0,0
2,note_on,71,0,0
2,note_on,80,0,0
2,note_on,64,0,0
2,note_on,68,0,0
2,note_on,57,81,134
2,note_on,57,0,40
2,note_on,81,65,131
2,note_on,76,54,0
2,note_on,73,54,0
2,note_on,69,54,0
2,note_on,64,45,0
2,note_on,61,45,0
2,note_on,61,0,40
2,note_on,76,0,0
2,note_on,73,0,0
2,note_on,81,0,0
2,note_on,64,0,0
2,note_on,69,0,0
2,note_on,59,80,126
2,note_on,59,0,37
2,note_on,83,65,120
2,note_on,80,54,0
2,note_on,76,54,0
2,note_on,71,54,0
2,note_on,68,45,0
2,note_on,64,45,0
2,note_on,64,0,43
2,note_on,80,0,0
2,note_on,76,0,0
2,note_on,83,0,0
2,note_on,68,0,0
2,note_on,71,0,0
2,note_on,59,81,129
2,note_on,59,0,40
2,note_on,83,65,169
2,note_on,78,54,0
2,note_on,75,54,0
2,note_on,71,54,0
2,note_on,66,45,0
2,note_on,63,45,0
2,note_on,63,0,34
2,note_on,78,0,0
2,note_on,75,0,0
2,note_on,83,0,0
2,note_on,66,0,0
2,note_on,71,0,0
2,note_on,64,81,97
2,note_on,64,0,424
2,note_on,88,79,0
2,note_on,83,66,0
2,note_on,80,66,0
2,note_on,76,66,0
2,note_on,71,55,0
2,note_on,68,55,0
2,note_on,68,0,60
2,note_on,83,0,0
2,note_on,80,0,0
2,note_on,88,0,0
2,note_on,71,0,0
2,note_on,76,0,0
2,note_on,64,58,402
2,note_on,64,0,60
2,note_on,76,58,420
2,note_on,76,0,60
2,note_on,64,58,420
2,note_on,64,0,60
2,note_on,76,58,420
2,note_on,76,0,60
2,note_on,64,58,420
2,note_on,64,0,60
2,note_on,76,58,420
2,note_on,76,0,60
2,note_on,64,58,420
2,note_on,64,0,7
2,note_on,64,67,420
2,note_on,64,0,49
2,note_on,66,59,100
2,note_on,66,0,60
2,note_on,68,60,100
2,note_on,68,0,60
2,note_on,69,67,100
2,note_on,69,0,120
2,note_on,57,67,360
2,note_on,57,0,88
2,note_on,58,66,120
2,note_on,58,0,109
2,note_on,59,67,120
2,note_on,59,0,120
2,note_on,59,64,840
2,note_on,59,0,120
2,note_on,64,60,840
2,note_on,64,0,120
2,note_on,92,74,360
2,note_on,92,0,60
2,note_on,88,70,180
2,note_on,88,0,60
2,note_on,64,57,180
2,note_on,64,0,120
2,note_on,64,57,840
2,note_on,64,0,120
2,note_on,64,57,840
2,note_on,64,0,120
2,note_on,64,70,840
2,note_on,64,0,120
2,note_on,63,60,520
2,note_on,63,0,60
2,note_on,62,62,100
2,note_on,62,0,60
2,note_on,61,71,100
2,note_on,61,0,120
2,note_on,57,72,360
2,note_on,57,0,120
2,note_on,59,65,360
2,note_on,59,0,120
2,note_on,59,64,840
2,note_on,59,0,120
2,note_on,64,65,840
2,note_on,64,0,120
2,note_on,64,64,840
2,note_on,64,0,120
2,note_on,64,65,840
2,note_on,64,0,120
2,note_on,64,69,840
2,note_on,64,0,120
2,note_on,64,76,840
2,note_on,64,0,120
2,note_on,61,80,840
2,note_on,61,0,120
2,note_on,61,78,360
2,note_on,61,0,60
2,note_on,58,83,180
2,note_on,58,0,60
2,note_on,59,86,180
2,note_on,59,0,60
2,note_on,68,75,0
2,note_on,68,0,60
2,note_on,69,74,100
2,note_on,69,0,23
2,note_on,70,73,100
2,note_on,70,0,60
2,note_on,59,72,580
2,note_on,59,0,120
2,note_on,64,65,360
2,note_on,64,0,120
2,note_on,64,64,840
2,note_on,64,0,120
2,note_on,64,65,840
2,note_on,64,0,120
2,note_on,64,67,840
2,note_on,64,0,120
2,note_on,64,72,840
2,note_on,64,0,120
2,note_on,60,75,840
2,note_on,60,0,120
2,note_on,79,77,360
2,note_on,79,0,60
2,note_on,76,78,180
2,note_on,76,0,60
2,note_on,59,78,180
2,note_on,59,0,60
2,note_on,59,55,308
2,note_on,59,0,29
2,note_on,61,57,100
2,note_on,61,0,48
2,note_on,59,50,100
2,note_on,63,59,0
2,note_on,63,0,60
2,note_on,59,0,0
2,note_on,64,61,100
2,note_on,64,0,60
2,note_on,66,63,100
2,note_on,66,0,60
2,note_on,64,54,100
2,note_on,68,54,0
2,note_on,68,0,60
2,note_on,64,0,0
2,note_on,64,48,900
2,note_on,64,0,60
2,note_on,64,48,900
2,note_on,64,0,60
2,note_on,64,48,900
2,note_on,64,0,60
2,note_on,64,48,900
2,note_on,64,0,60
2,note_on,64,48,900
2,note_on,64,0,60
2,note_on,64,48,900
2,note_on,64,0,60
