Track,Message Type,Note,Velocity,Time
1,note_on,46,77,1800
1,note_on,46,0,120
1,note_on,51,89,0
1,note_on,51,0,840
1,note_on,55,77,0
1,note_on,55,0,120
1,note_on,56,83,0
1,note_on,56,0,120
1,note_on,57,81,360
1,note_on,57,0,120
1,note_on,58,89,360
1,note_on,58,0,960
1,note_on,87,84,0
1,note_on,82,70,0
1,note_on,79,70,0
1,note_on,75,70,0
1,note_on,75,0,120
1,note_on,87,0,0
1,note_on,82,0,0
1,note_on,79,0,0
1,note_on,46,77,720
1,note_on,46,0,120
1,note_on,51,89,0
1,note_on,51,0,840
1,note_on,55,77,0
1,note_on,55,0,120
1,note_on,58,83,0
1,note_on,58,0,120
1,note_on,60,81,360
1,note_on,60,0,120
1,note_on,61,89,360
1,note_on,61,0,960
1,note_on,91,85,0
1,note_on,87,70,0
1,note_on,82,70,0
1,note_on,79,70,0
1,note_on,79,0,120
1,note_on,91,0,0
1,note_on,87,0,0
1,note_on,82,0,0
1,note_on,48,77,720
1,note_on,48,0,120
1,note_on,51,89,0
1,note_on,51,0,840
1,note_on,56,64,0
1,note_on,56,0,120
1,note_on,60,72,0
1,note_on,60,0,320
1,note_on,61,75,0
1,note_on,61,0,320
1,note_on,62,79,0
1,note_on,62,0,320
1,note_on,63,89,0
1,note_on,63,0,960
1,note_on,92,84,0
1,note_on,87,70,0
1,note_on,84,70,0
1,note_on,80,70,0
1,note_on,80,0,120
1,note_on,92,0,0
1,note_on,87,0,0
1,note_on,84,0,0
1,note_on,48,77,720
1,note_on,48,0,120
1,note_on,51,89,0
1,note_on,51,0,840
1,note_on,56,70,0
1,note_on,56,0,120
1,note_on,60,68,0
1,note_on,60,0,240
1,note_on,63,70,0
1,note_on,63,0,240
1,note_on,64,74,0
1,note_on,64,0,240
1,note_on,65,79,0
1,note_on,65,0,240
1,note_on,66,89,0
1,note_on,66,0,960
1,note_on,93,84,0
1,note_on,90,70,0
1,note_on,84,70,0
1,note_on,81,70,0
1,note_on,81,0,120
1,note_on,93,0,0
1,note_on,90,0,0
1,note_on,84,0,0
1,note_on,63,36,1000
1,note_on,68,36,0
1,note_on,68,0,48
1,note_on,63,0,0
1,note_on,65,36,112
1,note_on,71,36,0
1,note_on,71,0,48
1,note_on,65,0,0
1,note_on,66,40,112
1,note_on,72,40,0
1,note_on,72,0,48
1,note_on,66,0,0
1,note_on,68,37,112
1,note_on,74,37,0
1,note_on,74,0,48
1,note_on,68,0,0
1,note_on,69,37,112
1,note_on,75,37,0
1,note_on,75,0,48
1,note_on,69,0,0
1,note_on,71,41,112
1,note_on,77,41,0
1,note_on,77,0,48
1,note_on,71,0,0
1,note_on,72,37,112
1,note_on,78,37,0
1,note_on,78,0,48
1,note_on,72,0,0
1,note_on,74,38,112
1,note_on,80,38,0
1,note_on,80,0,48
1,note_on,74,0,0
1,note_on,75,42,112
1,note_on,81,42,0
1,note_on,81,0,48
1,note_on,75,0,0
1,note_on,77,40,112
1,note_on,83,40,0
1,note_on,83,0,48
1,note_on,77,0,0
1,note_on,78,40,112
1,note_on,84,40,0
1,note_on,84,0,48
1,note_on,78,0,0
1,note_on,80,42,112
1,note_on,86,42,0
1,note_on,86,0,48
1,note_on,80,0,0
1,note_on,81,44,112
1,note_on,87,44,0
1,note_on,87,0,48
1,note_on,81,0,0
1,note_on,83,45,112
1,note_on,89,45,0
1,note_on,89,0,48
1,note_on,83,0,0
1,note_on,84,46,112
1,note_on,90,46,0
1,note_on,90,0,48
1,note_on,84,0,0
1,note_on,86,47,112
1,note_on,92,47,0
1,note_on,92,0,48
1,note_on,86,0,0
1,note_on,87,48,112
1,note_on,93,48,0
1,note_on,93,0,48
1,note_on,87,0,0
1,note_on,89,51,112
1,note_on,95,51,0
1,note_on,95,0,48
1,note_on,89,0,0
1,note_on,90,53,112
1,note_on,96,53,0
1,note_on,96,0,48
1,note_on,90,0,0
1,note_on,91,55,112
1,note_on,97,55,0
1,note_on,97,0,48
1,note_on,91,0,0
1,note_on,92,58,112
1,note_on,98,58,0
1,note_on,98,0,36
1,note_on,92,0,0
1,note_on,93,61,84
1,note_on,99,61,0
1,note_on,99,0,36
1,note_on,93,0,0
1,note_on,94,62,84
1,note_on,100,62,0
1,note_on,100,0,36
1,note_on,94,0,0
1,note_on,95,64,84
1,note_on,101,64,0
1,note_on,101,0,36
1,note_on,95,0,0
1,note_on,102,67,84
1,note_on,96,67,0
1,note_on,96,0,36
1,note_on,102,0,0
1,note_on,75,50,1644
1,note_on,69,40,240
1,note_on,75,0,360
1,note_on,77,46,0
1,note_on,77,0,60
1,note_on,75,47,0
1,note_on,75,0,60
1,note_on,74,50,0
1,note_on,74,0,240
1,note_on,72,41,0
1,note_on,72,0,150
1,note_on,72,30,60
1,note_on,69,0,30
1,note_on,77,47,0
1,note_on,77,0,240
1,note_on,72,0,0
1,note_on,69,37,0
1,note_on,69,0,240
1,note_on,70,37,0
1,note_on,70,0,240
1,note_on,70,50,720
1,note_on,64,40,480
1,note_on,70,0,360
1,note_on,72,46,0
1,note_on,72,0,60
1,note_on,70,47,0
1,note_on,70,0,60
1,note_on,68,50,0
1,note_on,68,0,240
1,note_on,67,41,0
1,note_on,67,0,150
1,note_on,67,30,60
1,note_on,64,0,30
1,note_on,72,47,0
1,note_on,72,0,240
1,note_on,67,0,0
1,note_on,64,37,0
1,note_on,64,0,240
1,note_on,65,37,0
1,note_on,65,0,240
1,note_on,65,50,720
1,note_on,63,40,480
1,note_on,65,0,360
1,note_on,67,46,0
1,note_on,67,0,60
1,note_on,65,47,0
1,note_on,65,0,60
1,note_on,64,50,0
1,note_on,64,0,240
1,note_on,65,41,0
1,note_on,65,0,150
1,note_on,58,36,30
1,note_on,65,41,30
1,note_on,63,0,30
1,note_on,70,45,0
1,note_on,70,0,240
1,note_on,65,0,0
1,note_on,62,37,0
1,note_on,62,0,240
1,note_on,58,0,0
1,note_on,63,37,0
1,note_on,63,0,240
1,note_on,58,36,180
1,note_on,63,35,30
1,note_on,71,45,30
1,note_on,71,0,240
1,note_on,63,0,0
1,note_on,62,37,0
1,note_on,62,0,240
1,note_on,58,0,0
1,note_on,63,37,0
1,note_on,63,0,240
1,note_on,63,31,180
1,note_on,63,0,50
1,note_on,53,37,10
1,note_on,56,37,0
1,note_on,63,37,0
1,note_on,63,0,240
1,note_on,59,31,0
1,note_on,59,0,240
1,note_on,63,37,0
1,note_on,63,0,240
1,note_on,60,31,0
1,note_on,60,0,240
1,note_on,56,0,0
1,note_on,53,0,0
1,note_on,63,39,0
1,note_on,63,0,320
1,note_on,61,33,0
1,note_on,61,0,320
1,note_on,63,33,0
1,note_on,63,0,320
1,note_on,62,35,0
1,note_on,62,0,240
1,note_on,63,28,0
1,note_on,63,0,60
1,note_on,62,28,0
1,note_on,62,0,60
1,note_on,61,28,0
1,note_on,61,0,60
1,note_on,62,28,0
1,note_on,62,0,60
1,note_on,58,32,0
1,note_on,62,35,30
1,note_on,67,38,30
1,note_on,67,0,300
1,note_on,62,0,0
1,note_on,58,0,0
1,note_on,56,35,0
1,note_on,65,35,0
1,note_on,65,0,120
1,note_on,56,0,0
1,note_on,58,60,3720
1,note_on,58,0,120
1,note_on,63,68,0
1,note_on,63,0,840
1,note_on,67,57,0
1,note_on,67,0,120
1,note_on,68,57,0
1,note_on,68,0,60
1,note_on,69,66,420
1,note_on,69,0,60
1,note_on,70,71,420
1,note_on,70,0,960
1,note_on,75,68,0
1,note_on,75,0,60
1,note_on,67,49,420
1,note_on,70,63,0
1,note_on,70,0,360
1,note_on,67,0,0
1,note_on,65,46,0
1,note_on,68,59,0
1,note_on,68,0,60
1,note_on,65,0,0
1,note_on,67,47,0
1,note_on,70,59,0
1,note_on,70,0,60
1,note_on,67,0,0
1,note_on,65,54,0
1,note_on,68,69,0
1,note_on,68,0,240
1,note_on,65,0,0
1,note_on,67,60,480
1,note_on,64,50,0
1,note_on,64,0,240
1,note_on,67,0,0
1,note_on,68,66,0
1,note_on,65,51,0
1,note_on,65,0,60
1,note_on,68,0,0
1,note_on,67,50,420
1,note_on,70,64,0
1,note_on,70,0,60
1,note_on,67,0,0
1,note_on,67,68,420
1,note_on,63,54,0
1,note_on,63,0,960
1,note_on,67,0,0
1,note_on,58,58,160
1,note_on,58,0,160
1,note_on,59,50,0
1,note_on,59,0,160
1,note_on,60,51,0
1,note_on,60,0,160
1,note_on,61,55,0
1,note_on,61,0,160
1,note_on,62,58,0
1,note_on,62,0,160
1,note_on,63,68,0
1,note_on,63,0,840
1,note_on,67,57,0
1,note_on,67,0,120
1,note_on,68,57,0
1,note_on,68,0,60
1,note_on,69,66,420
1,note_on,69,0,60
1,note_on,69,49,300
1,note_on,69,0,40
1,note_on,70,44,0
1,note_on,70,0,40
1,note_on,72,47,0
1,note_on,72,0,40
1,note_on,70,54,0
1,note_on,70,0,48
1,note_on,72,49,0
1,note_on,72,0,48
1,note_on,70,50,0
1,note_on,70,0,48
1,note_on,72,47,0
1,note_on,72,0,48
1,note_on,70,50,0
1,note_on,70,0,48
1,note_on,72,47,0
1,note_on,72,0,48
1,note_on,70,50,0
1,note_on,70,0,48
1,note_on,72,47,0
1,note_on,72,0,48
1,note_on,70,50,0
1,note_on,70,0,48
1,note_on,72,45,0
1,note_on,72,0,48
1,note_on,70,50,0
1,note_on,70,0,48
1,note_on,72,46,0
1,note_on,72,0,48
1,note_on,70,50,0
1,note_on,70,0,48
1,note_on,72,45,0
1,note_on,72,0,48
1,note_on,70,50,0
1,note_on,70,0,48
1,note_on,72,47,0
1,note_on,72,0,60
1,note_on,70,53,0
1,note_on,70,0,60
1,note_on,69,50,0
1,note_on,69,0,60
1,note_on,70,50,0
1,note_on,70,0,60
1,note_on,79,68,0
1,note_on,75,58,0
1,note_on,75,0,60
1,note_on,79,0,0
1,note_on,67,49,660
1,note_on,70,63,0
1,note_on,70,0,120
1,note_on,67,0,0
1,note_on,65,46,0
1,note_on,68,59,0
1,note_on,68,0,60
1,note_on,65,0,0
1,note_on,67,47,0
1,note_on,70,59,0
1,note_on,70,0,60
1,note_on,67,0,0
1,note_on,65,54,0
1,note_on,68,69,0
1,note_on,68,0,240
1,note_on,65,0,0
1,note_on,64,50,480
1,note_on,67,60,0
1,note_on,67,0,240
1,note_on,64,0,0
1,note_on,68,66,0
1,note_on,65,51,0
1,note_on,65,0,60
1,note_on,68,0,0
1,note_on,62,50,420
1,note_on,70,64,0
1,note_on,70,0,60
1,note_on,62,0,0
1,note_on,63,68,420
1,note_on,63,0,960
1,note_on,70,60,2760
1,note_on,70,0,120
1,note_on,63,62,0
1,note_on,75,74,0
1,note_on,75,0,840
1,note_on,63,0,0
1,note_on,67,52,0
1,note_on,79,62,0
1,note_on,79,0,120
1,note_on,67,0,0
1,note_on,68,52,0
1,note_on,80,62,0
1,note_on,80,0,60
1,note_on,68,0,0
1,note_on,69,56,420
1,note_on,81,67,0
1,note_on,81,0,60
1,note_on,69,0,0
1,note_on,70,44,300
1,note_on,70,0,60
1,note_on,75,46,0
1,note_on,75,0,60
1,note_on,82,53,0
1,note_on,82,0,69
1,note_on,84,41,0
1,note_on,84,0,68
1,note_on,82,41,0
1,note_on,81,41,68
1,note_on,82,0,1
1,note_on,81,0,68
1,note_on,82,41,0
1,note_on,82,0,68
1,note_on,84,48,0
1,note_on,84,0,69
1,note_on,82,41,0
1,note_on,82,0,68
1,note_on,75,48,1
1,note_on,75,0,80
1,note_on,70,42,0
1,note_on,70,0,80
1,note_on,63,46,0
1,note_on,63,0,80
1,note_on,70,52,0
1,note_on,70,0,80
1,note_on,75,63,0
1,note_on,75,0,80
1,note_on,82,73,0
1,note_on,82,0,80
1,note_on,87,81,0
1,note_on,87,0,60
1,note_on,67,54,660
1,note_on,70,54,0
1,note_on,70,0,110
1,note_on,67,0,0
1,note_on,67,33,10
1,note_on,70,40,0
1,note_on,70,0,60
1,note_on,67,0,0
1,note_on,66,33,0
1,note_on,69,40,0
1,note_on,69,0,60
1,note_on,66,0,0
1,note_on,65,39,0
1,note_on,68,49,0
1,note_on,68,0,60
1,note_on,65,0,0
1,note_on,82,42,300
1,note_on,79,36,0
1,note_on,79,0,60
1,note_on,82,0,0
1,note_on,81,43,0
1,note_on,78,37,0
1,note_on,78,0,60
1,note_on,81,0,0
1,note_on,77,44,0
1,note_on,80,50,0
1,note_on,80,0,60
1,note_on,77,0,0
1,note_on,94,41,300
1,note_on,91,36,0
1,note_on,91,0,60
1,note_on,94,0,0
1,note_on,90,37,0
1,note_on,93,41,0
1,note_on,93,0,60
1,note_on,90,0,0
1,note_on,92,48,0
1,note_on,89,44,0
1,note_on,89,0,60
1,note_on,92,0,0
1,note_on,64,36,300
1,note_on,67,42,0
1,note_on,67,0,120
1,note_on,64,0,0
1,note_on,65,43,0
1,note_on,68,49,0
1,note_on,68,0,60
1,note_on,65,0,0
1,note_on,67,38,180
1,note_on,70,44,0
1,note_on,70,0,60
1,note_on,67,0,0
1,note_on,67,52,180
1,note_on,63,44,0
1,note_on,63,0,960
1,note_on,67,0,0
1,note_on,70,52,160
1,note_on,58,52,0
1,note_on,58,0,160
1,note_on,71,52,0
1,note_on,59,52,0
1,note_on,70,0,20
1,note_on,59,0,140
1,note_on,72,50,0
1,note_on,60,50,0
1,note_on,71,0,20
1,note_on,60,0,140
1,note_on,73,56,0
1,note_on,61,56,0
1,note_on,72,0,20
1,note_on,61,0,140
1,note_on,74,60,0
1,note_on,62,60,0
1,note_on,73,0,20
1,note_on,62,0,140
1,note_on,75,84,0
1,note_on,63,71,0
1,note_on,74,0,20
1,note_on,63,0,820
1,note_on,75,0,0
1,note_on,79,66,0
1,note_on,67,56,0
1,note_on,67,0,120
1,note_on,79,0,0
1,note_on,80,73,0
1,note_on,68,61,0
1,note_on,68,0,60
1,note_on,80,0,0
1,note_on,81,78,420
1,note_on,69,66,0
1,note_on,69,0,60
1,note_on,81,0,0
1,note_on,70,44,300
1,note_on,70,0,60
1,note_on,75,46,0
1,note_on,75,0,60
1,note_on,82,60,0
1,note_on,82,0,69
1,note_on,84,45,0
1,note_on,84,0,68
1,note_on,82,45,0
1,note_on,81,45,68
1,note_on,82,0,1
1,note_on,81,0,68
1,note_on,82,45,0
1,note_on,82,0,68
1,note_on,84,52,0
1,note_on,84,0,69
1,note_on,82,45,0
1,note_on,82,0,68
1,note_on,75,52,1
1,note_on,75,0,70
1,note_on,70,47,0
1,note_on,70,0,69
1,note_on,63,51,0
1,note_on,63,0,70
1,note_on,70,58,0
1,note_on,70,0,70
1,note_on,75,62,0
1,note_on,75,0,69
1,note_on,82,68,0
1,note_on,82,0,60
1,note_on,82,74,9
1,note_on,82,0,63
1,note_on,91,85,0
1,note_on,87,75,0
1,note_on,87,0,60
1,note_on,91,0,0
1,note_on,67,54,660
1,note_on,70,54,0
1,note_on,70,0,110
1,note_on,67,0,0
1,note_on,67,33,10
1,note_on,70,40,0
1,note_on,70,0,60
1,note_on,67,0,0
1,note_on,66,33,0
1,note_on,69,40,0
1,note_on,69,0,60
1,note_on,66,0,0
1,note_on,65,39,0
1,note_on,68,49,0
1,note_on,68,0,60
1,note_on,65,0,0
1,note_on,82,42,300
1,note_on,79,36,0
1,note_on,79,0,60
1,note_on,82,0,0
1,note_on,81,43,0
1,note_on,78,37,0
1,note_on,78,0,60
1,note_on,81,0,0
1,note_on,77,44,0
1,note_on,80,50,0
1,note_on,80,0,60
1,note_on,77,0,0
1,note_on,94,41,300
1,note_on,91,36,0
1,note_on,91,0,60
1,note_on,94,0,0
1,note_on,90,37,0
1,note_on,93,41,0
1,note_on,93,0,60
1,note_on,90,0,0
1,note_on,92,48,0
1,note_on,89,44,0
1,note_on,89,0,60
1,note_on,92,0,0
1,note_on,64,36,300
1,note_on,67,42,0
1,note_on,67,0,120
1,note_on,64,0,0
1,note_on,65,41,0
1,note_on,68,49,0
1,note_on,68,0,160
1,note_on,65,0,0
1,note_on,68,38,0
1,note_on,72,44,0
1,note_on,72,0,240
1,note_on,68,0,0
1,note_on,67,38,0
1,note_on,70,44,0
1,note_on,70,0,80
1,note_on,67,0,0
1,note_on,67,52,0
1,note_on,63,44,0
1,note_on,63,0,480
1,note_on,67,0,0
1,note_on,85,69,960
1,note_on,82,55,0
1,note_on,82,0,480
1,note_on,85,0,0
1,note_on,84,58,0
1,note_on,80,48,0
1,note_on,80,0,360
1,note_on,84,0,0
1,note_on,86,43,0
1,note_on,86,0,60
1,note_on,84,49,0
1,note_on,84,0,60
1,note_on,82,54,0
1,note_on,79,46,0
1,note_on,79,0,60
1,note_on,82,0,0
1,note_on,80,49,180
1,note_on,77,40,0
1,note_on,77,0,60
1,note_on,80,0,0
1,note_on,79,51,180
1,note_on,75,43,0
1,note_on,75,0,60
1,note_on,79,0,0
1,note_on,77,46,180
1,note_on,70,38,0
1,note_on,70,0,60
1,note_on,77,0,0
1,note_on,75,54,180
1,note_on,67,46,0
1,note_on,67,0,60
1,note_on,75,0,0
1,note_on,67,48,300
1,note_on,63,40,0
1,note_on,63,0,120
1,note_on,67,0,0
1,note_on,68,61,0
1,note_on,65,52,0
1,note_on,65,0,240
1,note_on,68,0,0
1,note_on,70,45,0
1,note_on,70,0,60
1,note_on,68,45,0
1,note_on,68,0,60
1,note_on,67,51,0
1,note_on,64,43,0
1,note_on,64,0,120
1,note_on,67,0,0
1,note_on,68,56,0
1,note_on,65,47,0
1,note_on,65,0,60
1,note_on,68,0,0
1,note_on,69,54,180
1,note_on,66,46,0
1,note_on,66,0,60
1,note_on,69,0,0
1,note_on,70,59,180
1,note_on,67,50,0
1,note_on,67,0,240
1,note_on,70,0,0
1,note_on,85,69,240
1,note_on,82,55,0
1,note_on,82,0,480
1,note_on,85,0,0
1,note_on,84,58,0
1,note_on,80,48,0
1,note_on,80,0,360
1,note_on,84,0,0
1,note_on,86,43,0
1,note_on,86,0,60
1,note_on,84,49,0
1,note_on,84,0,60
1,note_on,82,54,0
1,note_on,79,46,0
1,note_on,79,0,60
1,note_on,82,0,0
1,note_on,80,49,180
1,note_on,77,40,0
1,note_on,77,0,60
1,note_on,80,0,0
1,note_on,79,51,180
1,note_on,75,43,0
1,note_on,75,0,60
1,note_on,79,0,0
1,note_on,77,46,180
1,note_on,70,38,0
1,note_on,70,0,60
1,note_on,77,0,0
1,note_on,75,54,180
1,note_on,67,46,0
1,note_on,67,0,60
1,note_on,75,0,0
1,note_on,67,48,300
1,note_on,63,40,0
1,note_on,63,0,120
1,note_on,67,0,0
1,note_on,68,61,0
1,note_on,65,52,0
1,note_on,65,0,240
1,note_on,68,0,0
1,note_on,70,45,0
1,note_on,70,0,60
1,note_on,68,45,0
1,note_on,68,0,60
1,note_on,67,51,0
1,note_on,64,43,0
1,note_on,64,0,120
1,note_on,67,0,0
1,note_on,68,56,0
1,note_on,65,47,0
1,note_on,65,0,60
1,note_on,68,0,0
1,note_on,70,54,180
1,note_on,62,46,0
1,note_on,62,0,60
1,note_on,70,0,0
1,note_on,63,59,180
1,note_on,63,0,240
1,note_on,82,63,240
1,note_on,87,67,30
1,note_on,97,71,30
1,note_on,97,0,360
1,note_on,87,0,0
1,note_on,82,0,0
1,note_on,80,64,0
1,note_on,87,66,30
1,note_on,96,69,30
1,note_on,96,0,360
1,note_on,87,0,0
1,note_on,80,0,0
1,note_on,94,40,0
1,note_on,98,48,0
1,note_on,98,0,60
1,note_on,94,0,0
1,note_on,92,42,0
1,note_on,96,55,0
1,note_on,96,0,60
1,note_on,92,0,0
1,note_on,94,61,0
1,note_on,91,61,0
1,note_on,91,0,120
1,note_on,94,0,0
1,note_on,92,51,120
1,note_on,89,51,0
1,note_on,89,0,60
1,note_on,92,0,0
1,note_on,91,56,180
1,note_on,87,56,0
1,note_on,87,0,60
1,note_on,91,0,0
1,note_on,89,49,180
1,note_on,82,49,0
1,note_on,82,0,60
1,note_on,89,0,0
1,note_on,87,55,180
1,note_on,79,55,0
1,note_on,79,0,60
1,note_on,87,0,0
1,note_on,63,40,360
1,note_on,67,48,0
1,note_on,67,0,60
1,note_on,63,0,0
1,note_on,68,61,0
1,note_on,65,52,0
1,note_on,65,0,240
1,note_on,68,0,0
1,note_on,70,45,0
1,note_on,70,0,60
1,note_on,68,45,0
1,note_on,68,0,60
1,note_on,67,51,0
1,note_on,64,43,0
1,note_on,64,0,120
1,note_on,67,0,0
1,note_on,68,56,0
1,note_on,65,47,0
1,note_on,65,0,60
1,note_on,68,0,0
1,note_on,69,54,180
1,note_on,66,46,0
1,note_on,66,0,60
1,note_on,69,0,0
1,note_on,70,59,180
1,note_on,67,50,0
1,note_on,67,0,240
1,note_on,70,0,0
1,note_on,82,61,240
1,note_on,87,65,30
1,note_on,97,68,30
1,note_on,82,0,300
1,note_on,97,0,60
1,note_on,87,0,0
1,note_on,80,61,0
1,note_on,87,64,30
1,note_on,96,67,30
1,note_on,96,0,360
1,note_on,87,0,0
1,note_on,80,0,0
1,note_on,94,31,0
1,note_on,98,51,0
1,note_on,98,0,60
1,note_on,94,0,0
1,note_on,92,42,0
1,note_on,96,55,0
1,note_on,96,0,60
1,note_on,92,0,0
1,note_on,94,60,0
1,note_on,91,60,0
1,note_on,91,0,120
1,note_on,94,0,0
1,note_on,92,54,120
1,note_on,89,54,0
1,note_on,89,0,60
1,note_on,92,0,0
1,note_on,91,58,180
1,note_on,87,58,0
1,note_on,87,0,60
1,note_on,91,0,0
1,note_on,89,54,180
1,note_on,82,54,0
1,note_on,82,0,60
1,note_on,89,0,0
1,note_on,87,63,180
1,note_on,79,63,0
1,note_on,79,0,60
1,note_on,87,0,0
1,note_on,67,48,300
1,note_on,63,40,0
1,note_on,63,0,120
1,note_on,67,0,0
1,note_on,68,61,0
1,note_on,65,52,0
1,note_on,65,0,720
1,note_on,68,0,0
1,note_on,64,43,0
1,note_on,67,51,0
1,note_on,64,0,240
1,note_on,65,47,0
1,note_on,68,56,0
1,note_on,67,0,9
1,note_on,68,0,51
1,note_on,65,0,0
1,note_on,62,46,420
1,note_on,70,54,0
1,note_on,70,0,60
1,note_on,62,0,0
1,note_on,58,40,810
1,note_on,63,42,30
1,note_on,67,44,30
1,note_on,70,46,30
1,note_on,70,0,60
1,note_on,58,0,0
1,note_on,63,0,0
1,note_on,67,0,0
1,note_on,67,40,810
1,note_on,70,42,30
1,note_on,75,44,30
1,note_on,79,46,30
1,note_on,79,0,60
1,note_on,67,0,0
1,note_on,70,0,0
1,note_on,75,0,0
1,note_on,79,42,810
1,note_on,82,44,30
1,note_on,87,45,30
1,note_on,91,47,30
1,note_on,91,0,60
1,note_on,79,0,0
1,note_on,82,0,0
1,note_on,87,0,0
1,note_on,70,40,1260
1,note_on,67,34,0
1,note_on,67,0,120
1,note_on,70,0,0
1,note_on,68,45,0
1,note_on,65,38,0
1,note_on,65,0,120
1,note_on,68,0,0
1,note_on,75,40,0
1,note_on,72,34,0
1,note_on,72,0,120
1,note_on,75,0,0
1,note_on,74,45,0
1,note_on,70,38,0
1,note_on,70,0,120
1,note_on,74,0,0
1,note_on,79,41,0
1,note_on,75,34,0
1,note_on,75,0,120
1,note_on,79,0,0
1,note_on,77,48,0
1,note_on,74,40,0
1,note_on,74,0,120
1,note_on,77,0,0
1,note_on,84,43,0
1,note_on,80,36,0
1,note_on,80,0,120
1,note_on,84,0,0
1,note_on,82,43,0
1,note_on,79,36,0
1,note_on,79,0,120
1,note_on,82,0,0
1,note_on,80,43,0
1,note_on,77,36,0
1,note_on,77,0,120
1,note_on,80,0,0
1,note_on,79,49,0
1,note_on,75,49,0
1,note_on,75,0,120
1,note_on,79,0,0
1,note_on,77,44,0
1,note_on,74,37,0
1,note_on,74,0,120
1,note_on,77,0,0
1,note_on,75,44,0
1,note_on,72,37,0
1,note_on,72,0,120
1,note_on,75,0,0
1,note_on,74,44,0
1,note_on,70,37,0
1,note_on,70,0,120
1,note_on,74,0,0
1,note_on,72,47,0
1,note_on,68,39,0
1,note_on,68,0,120
1,note_on,72,0,0
1,note_on,70,45,0
1,note_on,67,38,0
1,note_on,67,0,120
1,note_on,70,0,0
1,note_on,69,43,0
1,note_on,66,36,0
1,note_on,66,0,60
1,note_on,69,0,0
1,note_on,68,40,120
1,note_on,65,34,0
1,note_on,65,0,60
1,note_on,68,0,0
1,note_on,67,45,0
1,note_on,63,38,0
1,note_on,63,0,480
1,note_on,67,0,0
1,note_on,58,40,1830
1,note_on,63,42,30
1,note_on,67,44,30
1,note_on,70,46,30
1,note_on,70,0,60
1,note_on,58,0,0
1,note_on,63,0,0
1,note_on,67,0,0
1,note_on,67,40,810
1,note_on,70,42,30
1,note_on,75,44,30
1,note_on,79,46,30
1,note_on,79,0,60
1,note_on,67,0,0
1,note_on,70,0,0
1,note_on,75,0,0
1,note_on,79,42,810
1,note_on,82,44,30
1,note_on,87,45,30
1,note_on,91,47,30
1,note_on,91,0,60
1,note_on,79,0,0
1,note_on,82,0,0
1,note_on,87,0,0
1,note_on,70,40,1260
1,note_on,67,34,0
1,note_on,67,0,120
1,note_on,70,0,0
1,note_on,67,40,0
1,note_on,70,45,0
1,note_on,70,0,80
1,note_on,67,0,0
1,note_on,66,36,0
1,note_on,69,41,0
1,note_on,69,0,80
1,note_on,66,0,0
1,note_on,65,36,0
1,note_on,68,41,0
1,note_on,68,0,80
1,note_on,65,0,0
1,note_on,72,40,0
1,note_on,75,45,0
1,note_on,72,0,80
1,note_on,71,40,0
1,note_on,71,0,80
1,note_on,75,0,0
1,note_on,70,34,0
1,note_on,74,40,0
1,note_on,74,0,80
1,note_on,70,0,0
1,note_on,75,44,0
1,note_on,79,51,0
1,note_on,79,0,80
1,note_on,78,49,0
1,note_on,78,0,80
1,note_on,75,0,0
1,note_on,74,42,0
1,note_on,77,49,0
1,note_on,77,0,80
1,note_on,74,0,0
1,note_on,84,60,0
1,note_on,80,53,0
1,note_on,80,0,60
1,note_on,84,0,0
1,note_on,79,45,240
1,note_on,76,45,0
1,note_on,76,0,60
1,note_on,79,0,0
1,note_on,80,45,0
1,note_on,77,45,0
1,note_on,77,0,60
1,note_on,80,0,0
1,note_on,76,45,0
1,note_on,73,45,0
1,note_on,73,0,60
1,note_on,76,0,0
1,note_on,74,45,0
1,note_on,77,45,0
1,note_on,77,0,60
1,note_on,74,0,0
1,note_on,73,45,0
1,note_on,69,45,0
1,note_on,69,0,60
1,note_on,73,0,0
1,note_on,70,45,0
1,note_on,74,45,0
1,note_on,74,0,60
1,note_on,70,0,0
1,note_on,67,45,0
1,note_on,71,45,0
1,note_on,71,0,60
1,note_on,67,0,0
1,note_on,68,45,0
1,note_on,72,45,0
1,note_on,72,0,60
1,note_on,68,0,0
1,note_on,64,45,60
1,note_on,67,45,0
1,note_on,67,0,60
1,note_on,64,0,0
1,note_on,67,45,60
1,note_on,70,45,0
1,note_on,70,0,60
1,note_on,67,0,0
1,note_on,65,45,60
1,note_on,68,45,0
1,note_on,68,0,60
1,note_on,65,0,0
1,note_on,67,45,60
1,note_on,63,38,0
1,note_on,63,0,480
1,note_on,67,0,0
1,note_on,58,38,1380
1,note_on,58,0,60
1,note_on,63,52,0
1,note_on,63,0,360
1,note_on,67,39,0
1,note_on,67,0,45
1,note_on,67,36,15
1,note_on,67,0,45
1,note_on,68,39,15
1,note_on,68,0,45
1,note_on,68,36,15
1,note_on,68,0,45
1,note_on,69,39,15
1,note_on,69,0,45
1,note_on,69,36,15
1,note_on,69,0,45
1,note_on,70,39,15
1,note_on,70,0,45
1,note_on,70,36,15
1,note_on,70,0,45
1,note_on,75,39,15
1,note_on,75,0,45
1,note_on,75,36,15
1,note_on,75,0,45
1,note_on,79,39,15
1,note_on,79,0,45
1,note_on,79,35,15
1,note_on,79,0,45
1,note_on,80,39,15
1,note_on,80,0,45
1,note_on,80,35,15
1,note_on,80,0,45
1,note_on,81,39,15
1,note_on,81,0,45
1,note_on,81,34,15
1,note_on,81,0,45
1,note_on,82,39,15
1,note_on,82,0,45
1,note_on,82,34,15
1,note_on,82,0,45
1,note_on,87,39,15
1,note_on,87,0,45
1,note_on,87,34,15
1,note_on,87,0,45
1,note_on,91,39,15
1,note_on,91,0,45
1,note_on,91,35,15
1,note_on,91,0,45
1,note_on,92,41,15
1,note_on,92,0,45
1,note_on,92,36,15
1,note_on,92,0,45
1,note_on,93,42,15
1,note_on,93,0,45
1,note_on,93,37,15
1,note_on,93,0,45
1,note_on,93,43,15
1,note_on,93,0,60
1,note_on,94,38,0
1,note_on,94,0,60
1,note_on,96,38,0
1,note_on,96,0,60
1,note_on,94,34,0
1,note_on,94,0,60
1,note_on,91,42,0
1,note_on,91,0,60
1,note_on,87,35,0
1,note_on,87,0,60
1,note_on,84,41,0
1,note_on,84,0,60
1,note_on,82,34,0
1,note_on,82,0,60
1,note_on,79,40,0
1,note_on,79,0,60
1,note_on,75,33,0
1,note_on,75,0,60
1,note_on,72,38,0
1,note_on,72,0,60
1,note_on,70,32,0
1,note_on,70,0,60
1,note_on,67,38,0
1,note_on,67,0,60
1,note_on,63,33,0
1,note_on,63,0,60
1,note_on,62,37,0
1,note_on,62,0,60
1,note_on,63,34,0
1,note_on,63,0,60
1,note_on,67,33,0
1,note_on,67,0,60
1,note_on,70,34,0
1,note_on,70,0,60
1,note_on,75,35,0
1,note_on,75,0,60
1,note_on,79,36,0
1,note_on,79,0,60
1,note_on,82,38,0
1,note_on,82,0,60
1,note_on,87,39,0
1,note_on,87,0,60
1,note_on,91,40,0
1,note_on,91,0,60
1,note_on,94,41,0
1,note_on,94,0,60
1,note_on,99,47,0
1,note_on,99,0,240
1,note_on,70,39,120
1,note_on,67,33,0
1,note_on,67,0,60
1,note_on,70,0,0
1,note_on,68,47,60
1,note_on,65,39,0
1,note_on,65,0,80
1,note_on,68,0,0
1,note_on,82,39,80
1,note_on,82,0,80
1,note_on,67,39,80
1,note_on,64,33,0
1,note_on,64,0,80
1,note_on,67,0,0
1,note_on,68,46,80
1,note_on,65,39,0
1,note_on,65,0,80
1,note_on,68,0,0
1,note_on,94,41,80
1,note_on,94,0,80
1,note_on,70,41,80
1,note_on,67,34,0
1,note_on,67,0,80
1,note_on,70,0,0
1,note_on,72,47,80
1,note_on,68,39,0
1,note_on,68,0,80
1,note_on,72,0,0
1,note_on,82,41,80
1,note_on,82,0,80
1,note_on,74,41,80
1,note_on,70,34,0
1,note_on,70,0,80
1,note_on,74,0,0
1,note_on,75,45,80
1,note_on,72,38,0
1,note_on,72,0,80
1,note_on,75,0,0
1,note_on,94,40,80
1,note_on,94,0,80
1,note_on,77,40,80
1,note_on,74,34,0
1,note_on,74,0,80
1,note_on,77,0,0
1,note_on,79,46,80
1,note_on,75,39,0
1,note_on,75,0,80
1,note_on,79,0,0
1,note_on,77,40,0
1,note_on,70,34,0
1,note_on,70,0,80
1,note_on,77,0,0
1,note_on,75,40,0
1,note_on,67,34,0
1,note_on,67,0,80
1,note_on,75,0,0
1,note_on,77,40,0
1,note_on,70,34,0
1,note_on,70,0,80
1,note_on,77,0,0
1,note_on,79,40,0
1,note_on,75,34,0
1,note_on,77,34,79
1,note_on,75,0,1
1,note_on,79,0,0
1,note_on,82,41,0
1,note_on,77,0,79
1,note_on,82,0,1
1,note_on,87,43,0
1,note_on,79,36,0
1,note_on,79,0,80
1,note_on,87,0,0
1,note_on,89,44,0
1,note_on,82,37,0
1,note_on,82,0,80
1,note_on,89,0,0
1,note_on,91,45,0
1,note_on,87,38,0
1,note_on,87,0,80
1,note_on,91,0,0
1,note_on,94,45,0
1,note_on,89,38,0
1,note_on,89,0,80
1,note_on,94,0,0
1,note_on,99,46,0
1,note_on,91,39,0
1,note_on,91,0,80
1,note_on,99,0,0
1,note_on,101,47,0
1,note_on,94,39,0
1,note_on,94,0,80
1,note_on,101,0,0
1,note_on,99,57,0
1,note_on,103,57,0
1,note_on,103,0,120
1,note_on,99,0,0
1,note_on,58,38,720
1,note_on,58,0,120
1,note_on,63,52,0
1,note_on,63,0,360
1,note_on,67,39,0
1,note_on,67,0,45
1,note_on,67,36,15
1,note_on,67,0,45
1,note_on,68,39,15
1,note_on,68,0,45
1,note_on,68,36,15
1,note_on,68,0,45
1,note_on,69,39,15
1,note_on,69,0,45
1,note_on,69,36,15
1,note_on,69,0,45
1,note_on,70,39,15
1,note_on,70,0,45
1,note_on,70,36,15
1,note_on,70,0,45
1,note_on,75,39,15
1,note_on,75,0,45
1,note_on,75,36,15
1,note_on,75,0,45
1,note_on,79,39,15
1,note_on,79,0,45
1,note_on,79,35,15
1,note_on,79,0,45
1,note_on,80,39,15
1,note_on,80,0,45
1,note_on,80,35,15
1,note_on,80,0,45
1,note_on,81,39,15
1,note_on,81,0,45
1,note_on,81,34,15
1,note_on,81,0,45
1,note_on,82,39,15
1,note_on,82,0,45
1,note_on,82,34,15
1,note_on,82,0,45
1,note_on,87,39,15
1,note_on,87,0,45
1,note_on,87,34,15
1,note_on,87,0,45
1,note_on,91,39,15
1,note_on,91,0,45
1,note_on,91,35,15
1,note_on,91,0,45
1,note_on,92,41,15
1,note_on,92,0,45
1,note_on,92,36,15
1,note_on,92,0,45
1,note_on,93,42,15
1,note_on,93,0,45
1,note_on,93,37,15
1,note_on,93,0,45
1,note_on,93,43,15
1,note_on,93,0,60
1,note_on,94,38,0
1,note_on,94,0,60
1,note_on,96,38,0
1,note_on,96,0,60
1,note_on,94,34,0
1,note_on,94,0,60
1,note_on,91,42,0
1,note_on,91,0,60
1,note_on,87,35,0
1,note_on,87,0,60
1,note_on,84,41,0
1,note_on,84,0,60
1,note_on,82,34,0
1,note_on,82,0,60
1,note_on,79,40,0
1,note_on,79,0,60
1,note_on,75,33,0
1,note_on,75,0,60
1,note_on,72,38,0
1,note_on,72,0,60
1,note_on,70,32,0
1,note_on,70,0,60
1,note_on,67,38,0
1,note_on,67,0,60
1,note_on,63,33,0
1,note_on,63,0,60
1,note_on,62,37,0
1,note_on,62,0,60
1,note_on,63,34,0
1,note_on,63,0,60
1,note_on,67,33,0
1,note_on,67,0,60
1,note_on,70,34,0
1,note_on,70,0,60
1,note_on,75,36,0
1,note_on,75,0,60
1,note_on,79,38,0
1,note_on,79,0,60
1,note_on,82,41,0
1,note_on,82,0,60
1,note_on,87,43,0
1,note_on,87,0,60
1,note_on,91,45,0
1,note_on,91,0,60
1,note_on,94,47,0
1,note_on,94,0,60
1,note_on,99,46,0
1,note_on,103,54,0
1,note_on,103,0,240
1,note_on,99,0,0
1,note_on,67,33,180
1,note_on,70,39,0
1,note_on,70,0,45
1,note_on,67,0,0
1,note_on,68,47,15
1,note_on,65,39,0
1,note_on,65,0,80
1,note_on,68,0,0
1,note_on,82,39,80
1,note_on,82,0,80
1,note_on,67,39,80
1,note_on,64,33,0
1,note_on,64,0,80
1,note_on,67,0,0
1,note_on,68,46,80
1,note_on,65,39,0
1,note_on,65,0,80
1,note_on,68,0,0
1,note_on,94,41,80
1,note_on,94,0,80
1,note_on,70,41,80
1,note_on,67,34,0
1,note_on,67,0,80
1,note_on,70,0,0
1,note_on,72,47,80
1,note_on,68,39,0
1,note_on,68,0,80
1,note_on,72,0,0
1,note_on,82,41,80
1,note_on,82,0,80
1,note_on,67,34,80
1,note_on,70,41,0
1,note_on,70,0,80
1,note_on,67,0,0
1,note_on,68,45,80
1,note_on,65,38,0
1,note_on,65,0,80
1,note_on,68,0,0
1,note_on,94,40,80
1,note_on,94,0,80
1,note_on,58,34,80
1,note_on,65,40,0
1,note_on,65,0,80
1,note_on,58,0,0
1,note_on,55,40,80
1,note_on,63,40,0
1,note_on,63,0,480
1,note_on,55,0,0
1,note_on,82,46,960
1,note_on,82,0,80
1,note_on,87,45,0
1,note_on,87,0,80
1,note_on,97,60,0
1,note_on,97,0,80
1,note_on,87,45,0
1,note_on,87,0,80
1,note_on,89,45,0
1,note_on,89,0,80
1,note_on,87,45,0
1,note_on,87,0,80
1,note_on,80,53,0
1,note_on,80,0,80
1,note_on,87,46,0
1,note_on,87,0,80
1,note_on,96,46,0
1,note_on,96,0,80
1,note_on,87,57,0
1,note_on,87,0,80
1,note_on,89,46,0
1,note_on,89,0,80
1,note_on,87,46,0
1,note_on,87,0,80
1,note_on,79,48,0
1,note_on,79,0,90
1,note_on,94,52,30
1,note_on,94,0,90
1,note_on,77,44,30
1,note_on,77,0,90
1,note_on,92,52,30
1,note_on,92,0,90
1,note_on,75,44,30
1,note_on,75,0,90
1,note_on,91,47,30
1,note_on,91,0,90
1,note_on,74,41,30
1,note_on,74,0,90
1,note_on,90,45,30
1,note_on,90,0,90
1,note_on,75,40,30
1,note_on,75,0,90
1,note_on,91,45,30
1,note_on,91,0,90
1,note_on,76,41,30
1,note_on,76,0,90
1,note_on,91,45,30
1,note_on,91,0,90
1,note_on,77,42,30
1,note_on,77,0,90
1,note_on,92,47,30
1,note_on,92,0,90
1,note_on,76,43,30
1,note_on,76,0,90
1,note_on,91,49,30
1,note_on,91,0,90
1,note_on,77,46,30
1,note_on,77,0,90
1,note_on,92,52,30
1,note_on,92,0,90
1,note_on,78,43,30
1,note_on,78,0,90
1,note_on,93,46,30
1,note_on,93,0,90
1,note_on,79,47,30
1,note_on,79,0,90
1,note_on,94,55,30
1,note_on,94,0,90
1,note_on,70,45,270
1,note_on,70,0,80
1,note_on,75,38,0
1,note_on,75,0,80
1,note_on,85,58,0
1,note_on,85,0,80
1,note_on,75,42,0
1,note_on,75,0,80
1,note_on,77,38,0
1,note_on,77,0,80
1,note_on,75,40,0
1,note_on,75,0,80
1,note_on,68,45,0
1,note_on,68,0,80
1,note_on,75,35,0
1,note_on,75,0,80
1,note_on,84,51,0
1,note_on,84,0,80
1,note_on,75,35,0
1,note_on,75,0,80
1,note_on,77,35,0
1,note_on,77,0,80
1,note_on,75,35,0
1,note_on,75,0,80
1,note_on,67,42,0
1,note_on,67,0,90
1,note_on,82,48,30
1,note_on,82,0,90
1,note_on,65,44,30
1,note_on,65,0,90
1,note_on,80,48,30
1,note_on,80,0,90
1,note_on,63,40,30
1,note_on,63,0,90
1,note_on,79,47,30
1,note_on,79,0,90
1,note_on,62,39,30
1,note_on,62,0,90
1,note_on,78,46,30
1,note_on,78,0,90
1,note_on,63,38,30
1,note_on,63,0,90
1,note_on,79,45,30
1,note_on,79,0,90
1,note_on,64,38,30
1,note_on,64,0,90
1,note_on,79,47,30
1,note_on,79,0,90
1,note_on,65,41,30
1,note_on,65,0,90
1,note_on,80,44,30
1,note_on,80,0,90
1,note_on,64,38,30
1,note_on,64,0,90
1,note_on,79,46,30
1,note_on,79,0,90
1,note_on,65,40,30
1,note_on,65,0,90
1,note_on,80,45,30
1,note_on,80,0,90
1,note_on,61,38,30
1,note_on,61,0,90
1,note_on,76,44,30
1,note_on,76,0,90
1,note_on,62,40,30
1,note_on,62,0,90
1,note_on,77,46,30
1,note_on,77,0,90
1,note_on,82,50,270
1,note_on,82,0,80
1,note_on,87,45,0
1,note_on,87,0,80
1,note_on,97,54,0
1,note_on,97,0,80
1,note_on,87,45,0
1,note_on,87,0,80
1,note_on,89,45,0
1,note_on,89,0,80
1,note_on,87,45,0
1,note_on,87,0,80
1,note_on,80,50,0
1,note_on,80,0,80
1,note_on,87,46,0
1,note_on,87,0,80
1,note_on,96,54,0
1,note_on,96,0,80
1,note_on,87,46,0
1,note_on,87,0,80
1,note_on,89,46,0
1,note_on,89,0,80
1,note_on,87,46,0
1,note_on,87,0,80
1,note_on,79,42,0
1,note_on,79,0,90
1,note_on,94,49,30
1,note_on,94,0,90
1,note_on,77,44,30
1,note_on,77,0,90
1,note_on,92,47,30
1,note_on,92,0,90
1,note_on,75,41,30
1,note_on,75,0,90
1,note_on,91,48,30
1,note_on,91,0,90
1,note_on,74,41,30
1,note_on,74,0,90
1,note_on,90,46,30
1,note_on,90,0,90
1,note_on,75,41,30
1,note_on,75,0,90
1,note_on,91,46,30
1,note_on,91,0,90
1,note_on,76,40,30
1,note_on,76,0,90
1,note_on,91,45,30
1,note_on,91,0,90
1,note_on,77,39,30
1,note_on,77,0,90
1,note_on,92,47,30
1,note_on,92,0,90
1,note_on,76,40,30
1,note_on,76,0,90
1,note_on,91,46,30
1,note_on,91,0,90
1,note_on,77,43,30
1,note_on,77,0,90
1,note_on,92,48,30
1,note_on,92,0,90
1,note_on,78,45,30
1,note_on,78,0,90
1,note_on,93,51,30
1,note_on,93,0,90
1,note_on,79,47,30
1,note_on,79,0,90
1,note_on,94,52,30
1,note_on,94,0,90
1,note_on,70,45,270
1,note_on,70,0,80
1,note_on,75,38,0
1,note_on,75,0,80
1,note_on,85,50,0
1,note_on,85,0,80
1,note_on,75,38,0
1,note_on,75,0,80
1,note_on,77,38,0
1,note_on,77,0,80
1,note_on,75,40,0
1,note_on,75,0,80
1,note_on,68,45,0
1,note_on,68,0,80
1,note_on,75,38,0
1,note_on,75,0,80
1,note_on,84,48,0
1,note_on,84,0,80
1,note_on,75,38,0
1,note_on,75,0,80
1,note_on,77,38,0
1,note_on,77,0,80
1,note_on,75,38,0
1,note_on,75,0,80
1,note_on,67,40,0
1,note_on,67,0,90
1,note_on,82,46,30
1,note_on,82,0,90
1,note_on,65,39,30
1,note_on,65,0,90
1,note_on,80,47,30
1,note_on,80,0,90
1,note_on,63,39,30
1,note_on,63,0,90
1,note_on,79,45,30
1,note_on,79,0,90
1,note_on,62,40,30
1,note_on,62,0,90
1,note_on,78,45,30
1,note_on,78,0,90
1,note_on,63,39,30
1,note_on,63,0,90
1,note_on,79,43,30
1,note_on,79,0,90
1,note_on,64,38,30
1,note_on,64,0,90
1,note_on,79,37,30
1,note_on,79,0,90
1,note_on,65,44,30
1,note_on,65,0,120
1,note_on,80,37,0
1,note_on,80,0,120
1,note_on,67,47,0
1,note_on,67,0,120
1,note_on,82,38,0
1,note_on,82,0,120
1,note_on,68,47,0
1,note_on,68,0,120
1,note_on,83,38,0
1,note_on,83,0,120
1,note_on,71,45,0
1,note_on,71,0,120
1,note_on,88,33,0
1,note_on,88,0,120
1,note_on,74,47,0
1,note_on,74,0,120
1,note_on,89,37,0
1,note_on,89,0,120
1,note_on,76,45,0
1,note_on,76,0,120
1,note_on,91,33,0
1,note_on,91,0,120
1,note_on,77,45,0
1,note_on,77,0,120
1,note_on,92,33,0
1,note_on,92,0,120
1,note_on,79,47,0
1,note_on,79,0,120
1,note_on,94,34,0
1,note_on,94,0,120
1,note_on,80,52,0
1,note_on,80,0,120
1,note_on,95,37,0
1,note_on,95,0,120
1,note_on,83,50,0
1,note_on,83,0,120
1,note_on,100,37,0
1,note_on,100,0,120
1,note_on,86,57,0
1,note_on,86,0,120
1,note_on,101,43,0
1,note_on,101,0,120
1,note_on,85,53,0
1,note_on,85,0,120
1,note_on,100,44,0
1,note_on,100,0,120
1,note_on,86,58,0
1,note_on,86,0,120
1,note_on,101,44,0
1,note_on,101,0,120
1,note_on,85,53,0
1,note_on,85,0,120
1,note_on,100,44,0
1,note_on,100,0,120
1,note_on,86,62,0
1,note_on,86,0,120
1,note_on,101,51,0
1,note_on,101,0,120
1,note_on,85,60,0
1,note_on,85,0,120
1,note_on,100,57,0
1,note_on,100,0,120
1,note_on,86,46,0
1,note_on,86,0,60
1,note_on,92,50,0
1,note_on,92,0,60
1,note_on,95,54,0
1,note_on,95,0,60
1,note_on,98,59,0
1,note_on,98,0,60
1,note_on,103,66,0
1,note_on,103,0,60
1,note_on,102,49,0
1,note_on,102,0,60
1,note_on,98,49,0
1,note_on,98,0,60
1,note_on,95,48,0
1,note_on,95,0,60
1,note_on,102,59,0
1,note_on,102,0,60
1,note_on,101,46,0
1,note_on,101,0,60
1,note_on,98,45,0
1,note_on,98,0,60
1,note_on,95,45,0
1,note_on,95,0,60
1,note_on,101,57,0
1,note_on,101,0,60
1,note_on,100,41,0
1,note_on,100,0,60
1,note_on,95,41,0
1,note_on,95,0,60
1,note_on,92,41,0
1,note_on,92,0,60
1,note_on,100,55,0
1,note_on,100,0,60
1,note_on,99,40,0
1,note_on,99,0,60
1,note_on,95,40,0
1,note_on,95,0,60
1,note_on,92,40,0
1,note_on,92,0,60
1,note_on,99,53,0
1,note_on,99,0,60
1,note_on,98,40,0
1,note_on,98,0,60
1,note_on,92,40,0
1,note_on,92,0,60
1,note_on,89,40,0
1,note_on,89,0,60
1,note_on,98,52,0
1,note_on,98,0,60
1,note_on,97,38,0
1,note_on,97,0,60
1,note_on,92,38,0
1,note_on,92,0,60
1,note_on,89,38,0
1,note_on,89,0,60
1,note_on,97,50,0
1,note_on,97,0,60
1,note_on,96,38,0
1,note_on,96,0,60
1,note_on,92,38,0
1,note_on,92,0,60
1,note_on,89,38,0
1,note_on,89,0,60
1,note_on,96,53,0
1,note_on,96,0,60
1,note_on,95,35,0
1,note_on,95,0,60
1,note_on,92,35,0
1,note_on,92,0,60
1,note_on,89,35,0
1,note_on,89,0,60
1,note_on,95,52,0
1,note_on,95,0,60
1,note_on,94,35,0
1,note_on,94,0,60
1,note_on,89,35,0
1,note_on,89,0,60
1,note_on,86,35,0
1,note_on,86,0,60
1,note_on,94,51,0
1,note_on,94,0,60
1,note_on,93,35,0
1,note_on,93,0,60
1,note_on,89,35,0
1,note_on,89,0,60
1,note_on,86,35,0
1,note_on,86,0,60
1,note_on,93,52,0
1,note_on,93,0,60
1,note_on,92,35,0
1,note_on,92,0,60
1,note_on,89,35,0
1,note_on,89,0,60
1,note_on,86,35,0
1,note_on,86,0,60
1,note_on,92,54,0
1,note_on,92,0,60
1,note_on,91,38,0
1,note_on,91,0,60
1,note_on,86,35,0
1,note_on,86,0,60
1,note_on,83,35,0
1,note_on,83,0,60
1,note_on,91,53,0
1,note_on,91,0,60
1,note_on,90,35,0
1,note_on,90,0,60
1,note_on,86,35,0
1,note_on,86,0,60
1,note_on,83,35,0
1,note_on,83,0,60
1,note_on,90,54,0
1,note_on,90,0,60
1,note_on,89,35,0
1,note_on,89,0,60
1,note_on,86,35,0
1,note_on,86,0,60
1,note_on,83,35,0
1,note_on,83,0,60
1,note_on,89,53,0
1,note_on,89,0,60
1,note_on,88,35,0
1,note_on,88,0,60
1,note_on,83,35,0
1,note_on,83,0,60
1,note_on,80,35,0
1,note_on,80,0,60
1,note_on,88,55,0
1,note_on,88,0,60
1,note_on,87,35,0
1,note_on,87,0,60
1,note_on,83,35,0
1,note_on,83,0,60
1,note_on,80,35,0
1,note_on,80,0,60
1,note_on,87,55,0
1,note_on,87,0,60
1,note_on,86,35,0
1,note_on,86,0,60
1,note_on,80,35,0
1,note_on,80,0,60
1,note_on,77,35,0
1,note_on,77,0,60
1,note_on,86,56,0
1,note_on,86,0,60
1,note_on,85,35,0
1,note_on,85,0,60
1,note_on,80,35,0
1,note_on,80,0,60
1,note_on,77,35,0
1,note_on,77,0,60
1,note_on,85,51,0
1,note_on,85,0,60
1,note_on,84,35,0
1,note_on,84,0,60
1,note_on,80,35,0
1,note_on,80,0,60
1,note_on,77,35,0
1,note_on,77,0,60
1,note_on,84,55,0
1,note_on,84,0,60
1,note_on,83,35,0
1,note_on,83,0,60
1,note_on,80,35,0
1,note_on,80,0,60
1,note_on,77,35,0
1,note_on,77,0,60
1,note_on,83,53,0
1,note_on,83,0,60
1,note_on,82,35,0
1,note_on,82,0,60
1,note_on,77,35,0
1,note_on,77,0,60
1,note_on,74,35,0
1,note_on,74,0,60
1,note_on,82,55,0
1,note_on,82,0,60
1,note_on,81,35,0
1,note_on,81,0,60
1,note_on,77,35,0
1,note_on,77,0,60
1,note_on,74,35,0
1,note_on,74,0,60
1,note_on,81,53,0
1,note_on,81,0,60
1,note_on,80,35,0
1,note_on,80,0,60
1,note_on,77,35,0
1,note_on,77,0,60
1,note_on,74,35,0
1,note_on,74,0,60
1,note_on,80,56,0
1,note_on,80,0,60
1,note_on,79,37,0
1,note_on,79,0,60
1,note_on,74,34,0
1,note_on,74,0,60
1,note_on,71,35,0
1,note_on,71,0,60
1,note_on,79,56,0
1,note_on,79,0,60
1,note_on,78,38,0
1,note_on,78,0,60
1,note_on,74,36,0
1,note_on,74,0,60
1,note_on,71,36,0
1,note_on,71,0,60
1,note_on,78,57,0
1,note_on,78,0,60
1,note_on,77,40,0
1,note_on,77,0,60
1,note_on,74,35,0
1,note_on,74,0,60
1,note_on,71,35,0
1,note_on,71,0,60
1,note_on,77,55,0
1,note_on,77,0,60
1,note_on,76,40,0
1,note_on,76,0,60
1,note_on,71,36,0
1,note_on,71,0,60
1,note_on,68,36,0
1,note_on,68,0,60
1,note_on,76,58,0
1,note_on,76,0,60
1,note_on,75,39,0
1,note_on,75,0,60
1,note_on,71,35,0
1,note_on,71,0,60
1,note_on,68,36,0
1,note_on,68,0,60
1,note_on,75,58,0
1,note_on,75,0,60
1,note_on,74,39,0
1,note_on,74,0,60
1,note_on,68,37,0
1,note_on,68,0,60
1,note_on,65,37,0
1,note_on,65,0,60
1,note_on,74,61,0
1,note_on,74,0,60
1,note_on,73,45,0
1,note_on,73,0,60
1,note_on,68,40,0
1,note_on,68,0,60
1,note_on,65,40,0
1,note_on,65,0,60
1,note_on,73,61,0
1,note_on,73,0,60
1,note_on,72,45,0
1,note_on,72,0,60
1,note_on,68,39,0
1,note_on,68,0,60
1,note_on,65,39,0
1,note_on,65,0,60
1,note_on,72,63,0
1,note_on,72,0,60
1,note_on,71,47,0
1,note_on,71,0,60
1,note_on,68,43,0
1,note_on,68,0,60
1,note_on,65,44,0
1,note_on,65,0,60
1,note_on,71,63,0
1,note_on,71,0,60
1,note_on,70,49,0
1,note_on,70,0,60
1,note_on,65,46,0
1,note_on,65,0,60
1,note_on,62,39,0
1,note_on,62,0,60
1,note_on,61,66,0
1,note_on,61,0,80
1,note_on,62,39,0
1,note_on,62,0,80
1,note_on,65,39,0
1,note_on,65,0,80
1,note_on,68,40,0
1,note_on,68,0,80
1,note_on,69,41,0
1,note_on,69,0,80
1,note_on,70,42,0
1,note_on,70,0,80
1,note_on,71,43,0
1,note_on,71,0,80
1,note_on,74,43,0
1,note_on,74,0,80
1,note_on,77,44,0
1,note_on,77,0,80
1,note_on,80,45,0
1,note_on,80,0,80
1,note_on,81,46,0
1,note_on,81,0,80
1,note_on,82,47,0
1,note_on,82,0,80
1,note_on,83,49,0
1,note_on,83,0,80
1,note_on,86,50,0
1,note_on,86,0,80
1,note_on,89,51,0
1,note_on,89,0,80
1,note_on,92,53,0
1,note_on,92,0,80
1,note_on,93,54,0
1,note_on,93,0,80
1,note_on,94,56,0
1,note_on,94,0,80
1,note_on,95,63,0
1,note_on,95,0,80
1,note_on,98,51,0
1,note_on,98,0,80
1,note_on,96,51,0
1,note_on,96,0,80
1,note_on,93,57,0
1,note_on,93,0,80
1,note_on,96,45,0
1,note_on,96,0,80
1,note_on,94,45,0
1,note_on,94,0,80
1,note_on,91,53,0
1,note_on,91,0,80
1,note_on,94,43,0
1,note_on,94,0,80
1,note_on,92,43,0
1,note_on,92,0,80
1,note_on,88,47,0
1,note_on,88,0,80
1,note_on,91,41,0
1,note_on,91,0,80
1,note_on,89,41,0
1,note_on,89,0,80
1,note_on,85,48,0
1,note_on,85,0,80
1,note_on,87,38,0
1,note_on,87,0,80
1,note_on,86,38,0
1,note_on,86,0,80
1,note_on,83,48,0
1,note_on,83,0,80
1,note_on,86,35,0
1,note_on,86,0,80
1,note_on,84,35,0
1,note_on,84,0,80
1,note_on,81,47,0
1,note_on,81,0,80
1,note_on,84,35,0
1,note_on,84,0,80
1,note_on,82,35,0
1,note_on,82,0,80
1,note_on,79,44,0
1,note_on,79,0,80
1,note_on,82,35,0
1,note_on,82,0,80
1,note_on,80,35,0
1,note_on,80,0,80
1,note_on,76,44,0
1,note_on,76,0,80
1,note_on,79,35,0
1,note_on,79,0,80
1,note_on,77,35,0
1,note_on,77,0,80
1,note_on,73,41,0
1,note_on,73,0,80
1,note_on,75,35,0
1,note_on,75,0,80
1,note_on,74,35,0
1,note_on,74,0,80
1,note_on,71,41,0
1,note_on,71,0,80
1,note_on,74,34,0
1,note_on,74,0,80
1,note_on,72,34,0
1,note_on,72,0,80
1,note_on,68,41,0
1,note_on,68,0,80
1,note_on,72,33,0
1,note_on,72,0,80
1,note_on,70,33,0
1,note_on,70,0,80
1,note_on,67,40,0
1,note_on,67,0,80
1,note_on,70,31,0
1,note_on,70,0,80
1,note_on,68,31,0
1,note_on,68,0,80
1,note_on,64,40,0
1,note_on,64,0,80
1,note_on,67,29,0
1,note_on,67,0,80
1,note_on,65,29,0
1,note_on,65,0,80
1,note_on,61,39,0
1,note_on,61,0,80
1,note_on,63,30,0
1,note_on,63,0,80
1,note_on,62,30,0
1,note_on,62,0,80
1,note_on,59,39,0
1,note_on,59,0,80
1,note_on,62,30,0
1,note_on,62,0,80
1,note_on,60,30,0
1,note_on,60,0,80
1,note_on,57,38,0
1,note_on,57,0,80
1,note_on,58,31,0
1,note_on,58,0,80
1,note_on,60,31,0
1,note_on,60,0,80
1,note_on,58,39,0
1,note_on,58,0,80
1,note_on,57,32,0
1,note_on,57,0,80
1,note_on,58,47,0
1,note_on,58,0,80
1,note_on,62,49,0
1,note_on,62,0,30
1,note_on,62,56,210
1,note_on,62,0,240
1,note_on,60,52,0
1,note_on,60,0,60
1,note_on,60,56,180
1,note_on,60,0,240
1,note_on,55,52,0
1,note_on,55,0,60
1,note_on,58,46,180
1,note_on,58,0,90
1,note_on,60,48,120
1,note_on,60,0,30
1,note_on,58,49,0
1,note_on,58,0,90
1,note_on,57,46,90
1,note_on,57,0,60
1,note_on,58,52,0
1,note_on,58,0,60
1,note_on,53,52,180
1,note_on,53,0,60
1,note_on,55,49,60
1,note_on,55,0,60
1,note_on,56,50,60
1,note_on,56,0,60
1,note_on,60,50,60
1,note_on,60,0,60
1,note_on,58,52,60
1,note_on,58,0,60
1,note_on,56,48,60
1,note_on,56,0,60
1,note_on,55,49,60
1,note_on,55,0,60
1,note_on,53,49,60
1,note_on,53,0,45
1,note_on,57,46,45
1,note_on,57,0,30
1,note_on,58,52,0
1,note_on,58,0,60
1,note_on,58,46,180
1,note_on,58,0,90
1,note_on,58,48,30
1,note_on,58,0,60
1,note_on,60,48,0
1,note_on,60,0,60
1,note_on,58,49,0
1,note_on,58,0,45
1,note_on,57,46,135
1,note_on,57,0,60
1,note_on,58,52,0
1,note_on,58,0,240
1,note_on,62,49,0
1,note_on,62,0,30
1,note_on,62,55,210
1,note_on,62,0,240
1,note_on,60,52,0
1,note_on,60,0,60
1,note_on,60,56,180
1,note_on,60,0,240
1,note_on,55,49,0
1,note_on,55,0,60
1,note_on,58,56,180
1,note_on,58,0,90
1,note_on,60,48,120
1,note_on,60,0,30
1,note_on,58,49,0
1,note_on,58,0,90
1,note_on,57,46,90
1,note_on,57,0,60
1,note_on,58,52,0
1,note_on,58,0,60
1,note_on,53,52,180
1,note_on,53,0,60
1,note_on,55,49,60
1,note_on,55,0,60
1,note_on,56,50,60
1,note_on,56,0,60
1,note_on,60,50,60
1,note_on,60,0,60
1,note_on,58,52,60
1,note_on,58,0,60
1,note_on,56,48,60
1,note_on,56,0,60
1,note_on,55,49,60
1,note_on,55,0,60
1,note_on,53,49,60
1,note_on,53,0,60
1,note_on,55,53,60
1,note_on,55,0,60
1,note_on,51,56,180
1,note_on,51,0,480
1,note_on,54,45,0
1,note_on,54,0,60
1,note_on,55,47,0
1,note_on,55,0,60
1,note_on,57,49,0
1,note_on,57,0,60
1,note_on,58,51,0
1,note_on,58,0,60
1,note_on,62,49,0
1,note_on,62,0,30
1,note_on,62,55,210
1,note_on,62,0,240
1,note_on,60,51,0
1,note_on,60,0,60
1,note_on,60,56,180
1,note_on,60,0,240
1,note_on,55,52,0
1,note_on,55,0,60
1,note_on,58,46,180
1,note_on,58,0,90
1,note_on,60,48,120
1,note_on,60,0,30
1,note_on,58,49,0
1,note_on,58,0,90
1,note_on,57,46,90
1,note_on,57,0,60
1,note_on,58,52,0
1,note_on,58,0,60
1,note_on,53,52,180
1,note_on,53,0,60
1,note_on,55,49,60
1,note_on,55,0,60
1,note_on,56,50,60
1,note_on,56,0,60
1,note_on,60,50,60
1,note_on,60,0,60
1,note_on,58,52,60
1,note_on,58,0,60
1,note_on,56,48,60
1,note_on,56,0,60
1,note_on,55,49,60
1,note_on,55,0,60
1,note_on,53,49,60
1,note_on,53,0,45
1,note_on,57,46,45
1,note_on,57,0,30
1,note_on,58,52,0
1,note_on,58,0,60
1,note_on,58,46,180
1,note_on,58,0,90
1,note_on,58,48,30
1,note_on,58,0,60
1,note_on,60,48,0
1,note_on,60,0,60
1,note_on,58,49,0
1,note_on,58,0,90
1,note_on,57,46,90
1,note_on,57,0,60
1,note_on,58,52,0
1,note_on,58,0,240
1,note_on,62,49,0
1,note_on,62,0,30
1,note_on,62,54,210
1,note_on,62,0,240
1,note_on,60,49,0
1,note_on,60,0,60
1,note_on,60,55,180
1,note_on,60,0,240
1,note_on,55,52,0
1,note_on,55,0,60
1,note_on,58,46,180
1,note_on,58,0,90
1,note_on,60,48,120
1,note_on,60,0,30
1,note_on,58,49,0
1,note_on,58,0,90
1,note_on,57,46,90
1,note_on,57,0,60
1,note_on,58,52,0
1,note_on,58,0,120
1,note_on,53,52,120
1,note_on,53,0,60
1,note_on,55,49,60
1,note_on,55,0,60
1,note_on,56,50,60
1,note_on,56,0,60
1,note_on,60,50,60
1,note_on,60,0,60
1,note_on,58,52,60
1,note_on,58,0,60
1,note_on,56,48,60
1,note_on,56,0,60
1,note_on,55,49,60
1,note_on,55,0,60
1,note_on,53,49,60
1,note_on,53,0,60
1,note_on,55,56,60
1,note_on,55,0,60
1,note_on,51,58,180
1,note_on,66,41,420
1,note_on,69,49,30
1,note_on,69,0,30
1,note_on,66,0,0
1,note_on,51,0,0
1,note_on,70,49,0
1,note_on,67,41,0
1,note_on,67,0,240
1,note_on,70,0,0
1,note_on,74,49,0
1,note_on,65,41,0
1,note_on,70,41,0
1,note_on,70,0,60
1,note_on,65,0,0
1,note_on,74,0,0
1,note_on,74,49,180
1,note_on,65,41,0
1,note_on,70,41,0
1,note_on,70,0,240
1,note_on,65,0,0
1,note_on,74,0,0
1,note_on,72,52,0
1,note_on,68,44,0
1,note_on,68,0,90
1,note_on,72,0,0
1,note_on,72,47,150
1,note_on,62,39,0
1,note_on,68,39,0
1,note_on,68,0,240
1,note_on,62,0,0
1,note_on,72,0,0
1,note_on,67,52,0
1,note_on,63,44,0
1,note_on,63,0,90
1,note_on,67,0,0
1,note_on,67,46,150
1,note_on,70,46,0
1,note_on,58,39,0
1,note_on,58,0,90
1,note_on,70,0,0
1,note_on,67,0,0
1,note_on,72,48,90
1,note_on,72,0,60
1,note_on,70,49,0
1,note_on,67,41,0
1,note_on,67,0,90
1,note_on,70,0,0
1,note_on,69,46,90
1,note_on,66,39,0
1,note_on,66,0,60
1,note_on,69,0,0
1,note_on,70,52,0
1,note_on,67,44,0
1,note_on,67,0,120
1,note_on,70,0,0
1,note_on,65,52,120
1,note_on,58,44,0
1,note_on,65,0,60
1,note_on,67,49,60
1,note_on,67,0,60
1,note_on,68,50,60
1,note_on,68,0,60
1,note_on,72,50,60
1,note_on,72,0,60
1,note_on,58,0,60
1,note_on,70,52,0
1,note_on,70,0,60
1,note_on,68,48,60
1,note_on,68,0,60
1,note_on,67,49,60
1,note_on,67,0,60
1,note_on,65,49,60
1,note_on,65,0,60
1,note_on,67,52,60
1,note_on,70,52,0
1,note_on,70,0,90
1,note_on,67,0,0
1,note_on,67,46,150
1,note_on,70,46,0
1,note_on,58,39,0
1,note_on,58,0,90
1,note_on,70,0,0
1,note_on,67,0,0
1,note_on,72,48,120
1,note_on,72,0,30
1,note_on,70,49,0
1,note_on,67,41,0
1,note_on,67,0,90
1,note_on,70,0,0
1,note_on,69,46,90
1,note_on,66,39,0
1,note_on,66,0,60
1,note_on,69,0,0
1,note_on,70,52,0
1,note_on,67,44,0
1,note_on,67,0,120
1,note_on,70,0,0
1,note_on,86,49,120
1,note_on,77,41,0
1,note_on,82,41,0
1,note_on,82,0,60
1,note_on,77,0,0
1,note_on,86,0,0
1,note_on,86,49,180
1,note_on,77,41,0
1,note_on,82,41,0
1,note_on,82,0,240
1,note_on,77,0,0
1,note_on,86,0,0
1,note_on,84,52,0
1,note_on,80,44,0
1,note_on,80,0,90
1,note_on,84,0,0
1,note_on,84,47,150
1,note_on,74,39,0
1,note_on,80,39,0
1,note_on,80,0,240
1,note_on,74,0,0
1,note_on,84,0,0
1,note_on,79,52,0
1,note_on,75,44,0
1,note_on,75,0,90
1,note_on,79,0,0
1,note_on,79,46,150
1,note_on,82,46,0
1,note_on,70,39,0
1,note_on,70,0,90
1,note_on,82,0,0
1,note_on,79,0,0
1,note_on,84,48,120
1,note_on,84,0,30
1,note_on,82,49,0
1,note_on,79,41,0
1,note_on,79,0,90
1,note_on,82,0,0
1,note_on,81,46,90
1,note_on,78,39,0
1,note_on,78,0,60
1,note_on,81,0,0
1,note_on,82,52,0
1,note_on,79,44,0
1,note_on,79,0,120
1,note_on,82,0,0
1,note_on,77,52,120
1,note_on,70,44,0
1,note_on,77,0,60
1,note_on,79,49,60
1,note_on,79,0,60
1,note_on,80,50,60
1,note_on,80,0,60
1,note_on,84,50,60
1,note_on,84,0,60
1,note_on,70,0,60
1,note_on,70,44,0
1,note_on,82,52,0
1,note_on,82,0,60
1,note_on,80,48,60
1,note_on,80,0,60
1,note_on,79,49,60
1,note_on,79,0,60
1,note_on,77,49,60
1,note_on,77,0,60
1,note_on,70,0,60
1,note_on,70,52,0
1,note_on,79,52,0
1,note_on,79,0,90
1,note_on,70,0,0
1,note_on,70,46,150
1,note_on,75,46,0
1,note_on,67,39,0
1,note_on,67,0,420
1,note_on,75,0,0
1,note_on,70,0,0
1,note_on,74,46,30
1,note_on,74,0,30
1,note_on,67,36,0
1,note_on,70,37,0
1,note_on,75,43,0
1,note_on,75,0,120
1,note_on,70,0,0
1,note_on,67,0,0
1,note_on,89,52,120
1,note_on,82,44,0
1,note_on,89,0,60
1,note_on,91,49,60
1,note_on,91,0,60
1,note_on,92,50,60
1,note_on,92,0,60
1,note_on,96,50,60
1,note_on,96,0,60
1,note_on,82,0,60
1,note_on,82,44,0
1,note_on,94,52,0
1,note_on,94,0,60
1,note_on,92,48,60
1,note_on,92,0,60
1,note_on,91,49,60
1,note_on,91,0,60
1,note_on,89,49,60
1,note_on,89,0,60
1,note_on,82,0,60
1,note_on,82,44,0
1,note_on,94,52,0
1,note_on,91,44,0
1,note_on,91,0,90
1,note_on,94,0,0
1,note_on,82,0,0
1,note_on,82,44,150
1,note_on,94,49,0
1,note_on,91,41,0
1,note_on,91,0,180
1,note_on,94,0,0
1,note_on,93,46,0
1,note_on,90,39,0
1,note_on,90,0,60
1,note_on,93,0,0
1,note_on,82,0,0
1,note_on,82,44,0
1,note_on,94,52,0
1,note_on,91,44,0
1,note_on,91,0,480
1,note_on,94,0,0
1,note_on,82,0,0
1,note_on,77,52,0
1,note_on,70,44,0
1,note_on,77,0,60
1,note_on,79,49,60
1,note_on,79,0,60
1,note_on,80,50,60
1,note_on,80,0,60
1,note_on,84,50,60
1,note_on,84,0,60
1,note_on,70,0,60
1,note_on,70,44,0
1,note_on,82,52,0
1,note_on,82,0,60
1,note_on,80,48,60
1,note_on,80,0,60
1,note_on,79,49,60
1,note_on,79,0,60
1,note_on,77,49,60
1,note_on,77,0,60
1,note_on,70,0,60
1,note_on,70,52,0
1,note_on,79,52,0
1,note_on,79,0,90
1,note_on,70,0,0
1,note_on,70,46,150
1,note_on,75,46,0
1,note_on,67,39,0
1,note_on,67,0,420
1,note_on,75,0,0
1,note_on,70,0,0
1,note_on,74,46,30
1,note_on,74,0,30
1,note_on,67,36,0
1,note_on,70,37,0
1,note_on,75,43,0
1,note_on,75,0,120
1,note_on,70,0,0
1,note_on,67,0,0
1,note_on,89,52,120
1,note_on,82,44,0
1,note_on,89,0,60
1,note_on,91,49,60
1,note_on,91,0,60
1,note_on,92,50,60
1,note_on,92,0,60
1,note_on,96,50,60
1,note_on,96,0,60
1,note_on,82,0,60
1,note_on,82,44,0
1,note_on,94,52,0
1,note_on,94,0,60
1,note_on,92,48,60
1,note_on,92,0,60
1,note_on,91,49,60
1,note_on,91,0,60
1,note_on,89,49,60
1,note_on,89,0,60
1,note_on,82,0,60
1,note_on,82,44,0
1,note_on,94,52,0
1,note_on,91,44,0
1,note_on,91,0,90
1,note_on,94,0,0
1,note_on,82,0,0
1,note_on,82,44,150
1,note_on,94,49,0
1,note_on,91,41,0
1,note_on,91,0,180
1,note_on,94,0,0
1,note_on,93,46,0
1,note_on,90,39,0
1,note_on,90,0,60
1,note_on,93,0,0
1,note_on,82,0,0
1,note_on,82,44,0
1,note_on,94,52,0
1,note_on,91,44,0
1,note_on,91,0,480
1,note_on,94,0,0
1,note_on,82,0,0
1,note_on,77,52,0
1,note_on,70,44,0
1,note_on,77,0,60
1,note_on,79,49,60
1,note_on,79,0,60
1,note_on,80,50,60
1,note_on,80,0,60
1,note_on,84,50,60
1,note_on,84,0,60
1,note_on,70,0,60
1,note_on,70,44,0
1,note_on,82,52,0
1,note_on,82,0,60
1,note_on,80,48,60
1,note_on,80,0,60
1,note_on,79,49,60
1,note_on,79,0,60
1,note_on,77,49,60
1,note_on,77,0,60
1,note_on,78,49,30
1,note_on,78,0,30
1,note_on,70,0,0
1,note_on,79,49,0
1,note_on,79,0,60
1,note_on,70,44,180
1,note_on,67,37,0
1,note_on,70,0,120
1,note_on,75,49,0
1,note_on,75,0,60
1,note_on,67,0,60
1,note_on,74,42,0
1,note_on,68,35,0
1,note_on,74,0,120
1,note_on,77,49,0
1,note_on,77,0,60
1,note_on,68,0,60
1,note_on,65,42,0
1,note_on,62,35,0
1,note_on,65,0,120
1,note_on,71,49,0
1,note_on,71,0,60
1,note_on,62,0,60
1,note_on,72,46,0
1,note_on,67,39,0
1,note_on,67,0,480
1,note_on,72,0,0
1,note_on,71,47,0
1,note_on,71,0,80
1,note_on,72,41,0
1,note_on,72,0,80
1,note_on,74,41,0
1,note_on,74,0,80
1,note_on,72,45,0
1,note_on,72,0,80
1,note_on,71,40,0
1,note_on,71,0,80
1,note_on,72,45,0
1,note_on,72,0,80
1,note_on,65,47,90
1,note_on,72,49,30
1,note_on,77,51,30
1,note_on,77,0,570
1,note_on,72,0,0
1,note_on,65,0,0
1,note_on,75,49,0
1,note_on,75,0,180
1,note_on,75,42,0
1,note_on,75,0,60
1,note_on,62,47,90
1,note_on,68,49,30
1,note_on,74,51,30
1,note_on,74,0,570
1,note_on,68,0,0
1,note_on,62,0,0
1,note_on,62,46,0
1,note_on,68,50,30
1,note_on,77,58,30
1,note_on,77,0,30
1,note_on,68,0,0
1,note_on,62,0,0
1,note_on,75,56,150
1,note_on,67,47,0
1,note_on,67,0,60
1,note_on,75,0,0
1,note_on,77,49,60
1,note_on,70,41,0
1,note_on,70,0,60
1,note_on,77,0,0
1,note_on,79,50,60
1,note_on,75,42,0
1,note_on,75,0,60
1,note_on,79,0,0
1,note_on,80,44,60
1,note_on,77,37,0
1,note_on,77,0,60
1,note_on,80,0,0
1,note_on,84,56,30
1,note_on,84,0,30
1,note_on,82,50,0
1,note_on,79,42,0
1,note_on,79,0,60
1,note_on,82,0,0
1,note_on,81,45,120
1,note_on,78,38,0
1,note_on,78,0,60
1,note_on,81,0,0
1,note_on,82,50,0
1,note_on,79,50,0
1,note_on,79,0,60
1,note_on,82,0,0
1,note_on,56,97,180
1,note_on,56,0,180
1,note_on,84,56,60
1,note_on,72,47,0
1,note_on,75,47,0
1,note_on,75,0,60
1,note_on,72,0,0
1,note_on,84,0,0
1,note_on,84,66,180
1,note_on,80,56,0
1,note_on,72,56,0
1,note_on,72,0,60
1,note_on,80,0,0
1,note_on,84,0,0
1,note_on,83,51,120
1,note_on,71,42,0
1,note_on,79,42,0
1,note_on,79,0,60
1,note_on,71,0,0
1,note_on,83,0,0
1,note_on,84,51,0
1,note_on,80,42,0
1,note_on,72,42,0
1,note_on,72,0,60
1,note_on,80,0,0
1,note_on,84,0,0
1,note_on,55,96,180
1,note_on,55,0,180
1,note_on,82,56,60
1,note_on,70,47,0
1,note_on,75,47,0
1,note_on,75,0,60
1,note_on,70,0,0
1,note_on,82,0,0
1,note_on,82,66,180
1,note_on,79,56,0
1,note_on,70,56,0
1,note_on,70,0,60
1,note_on,79,0,0
1,note_on,82,0,0
1,note_on,81,51,120
1,note_on,69,42,0
1,note_on,78,42,0
1,note_on,78,0,60
1,note_on,69,0,0
1,note_on,81,0,0
1,note_on,82,51,0
1,note_on,79,42,0
1,note_on,70,42,0
1,note_on,70,0,60
1,note_on,79,0,0
1,note_on,82,0,0
1,note_on,53,95,180
1,note_on,53,0,180
1,note_on,80,56,60
1,note_on,68,47,0
1,note_on,74,47,0
1,note_on,74,0,60
1,note_on,68,0,0
1,note_on,80,0,0
1,note_on,80,66,180
1,note_on,77,56,0
1,note_on,68,56,0
1,note_on,68,0,60
1,note_on,77,0,0
1,note_on,80,0,0
1,note_on,79,51,120
1,note_on,67,42,0
1,note_on,76,42,0
1,note_on,76,0,60
1,note_on,67,0,0
1,note_on,79,0,0
1,note_on,80,51,0
1,note_on,77,42,0
1,note_on,68,42,0
1,note_on,68,0,60
1,note_on,77,0,0
1,note_on,80,0,0
1,note_on,51,99,180
1,note_on,51,0,180
1,note_on,79,56,60
1,note_on,67,47,0
1,note_on,70,47,0
1,note_on,70,0,60
1,note_on,67,0,0
1,note_on,79,0,0
1,note_on,79,66,180
1,note_on,75,56,0
1,note_on,67,56,0
1,note_on,67,0,60
1,note_on,75,0,0
1,note_on,79,0,0
1,note_on,78,51,120
1,note_on,66,42,0
1,note_on,74,42,0
1,note_on,74,0,60
1,note_on,66,0,0
1,note_on,78,0,0
1,note_on,79,51,0
1,note_on,75,42,0
1,note_on,67,42,0
1,note_on,67,0,60
1,note_on,75,0,0
1,note_on,79,0,0
1,note_on,80,52,180
1,note_on,72,44,0
1,note_on,72,0,60
1,note_on,80,0,0
1,note_on,79,47,60
1,note_on,70,39,0
1,note_on,70,0,60
1,note_on,79,0,0
1,note_on,77,47,60
1,note_on,68,39,0
1,note_on,68,0,60
1,note_on,77,0,0
1,note_on,75,47,60
1,note_on,67,39,0
1,note_on,67,0,60
1,note_on,75,0,0
1,note_on,74,52,60
1,note_on,65,44,0
1,note_on,65,0,60
1,note_on,74,0,0
1,note_on,70,45,60
1,note_on,62,38,0
1,note_on,62,0,60
1,note_on,70,0,0
1,note_on,72,45,60
1,note_on,63,38,0
1,note_on,63,0,60
1,note_on,72,0,0
1,note_on,74,45,60
1,note_on,65,38,0
1,note_on,65,0,60
1,note_on,74,0,0
1,note_on,75,56,60
1,note_on,67,47,0
1,note_on,67,0,60
1,note_on,75,0,0
1,note_on,77,49,60
1,note_on,70,41,0
1,note_on,70,0,60
1,note_on,77,0,0
1,note_on,79,50,60
1,note_on,75,42,0
1,note_on,75,0,60
1,note_on,79,0,0
1,note_on,80,44,60
1,note_on,77,37,0
1,note_on,77,0,60
1,note_on,80,0,0
1,note_on,84,56,30
1,note_on,84,0,30
1,note_on,82,50,0
1,note_on,79,42,0
1,note_on,79,0,60
1,note_on,82,0,0
1,note_on,81,45,120
1,note_on,78,38,0
1,note_on,78,0,60
1,note_on,81,0,0
1,note_on,82,50,0
1,note_on,79,50,0
1,note_on,79,0,60
1,note_on,82,0,0
1,note_on,92,52,180
1,note_on,84,44,0
1,note_on,84,0,60
1,note_on,92,0,0
1,note_on,91,47,60
1,note_on,82,39,0
1,note_on,82,0,60
1,note_on,91,0,0
1,note_on,89,47,60
1,note_on,80,39,0
1,note_on,80,0,60
1,note_on,89,0,0
1,note_on,87,47,60
1,note_on,79,39,0
1,note_on,79,0,60
1,note_on,87,0,0
1,note_on,86,52,60
1,note_on,77,44,0
1,note_on,77,0,60
1,note_on,86,0,0
1,note_on,82,45,60
1,note_on,74,38,0
1,note_on,74,0,60
1,note_on,82,0,0
1,note_on,84,45,60
1,note_on,75,38,0
1,note_on,75,0,60
1,note_on,84,0,0
1,note_on,86,45,60
1,note_on,77,38,0
1,note_on,77,0,60
1,note_on,86,0,0
1,note_on,87,56,60
1,note_on,79,47,0
1,note_on,79,0,60
1,note_on,87,0,0
1,note_on,89,49,60
1,note_on,82,41,0
1,note_on,82,0,60
1,note_on,89,0,0
1,note_on,91,50,60
1,note_on,87,42,0
1,note_on,87,0,60
1,note_on,91,0,0
1,note_on,92,44,60
1,note_on,89,37,0
1,note_on,89,0,60
1,note_on,92,0,0
1,note_on,96,56,30
1,note_on,96,0,30
1,note_on,94,50,0
1,note_on,91,42,0
1,note_on,91,0,60
1,note_on,94,0,0
1,note_on,93,45,120
1,note_on,90,38,0
1,note_on,90,0,60
1,note_on,93,0,0
1,note_on,94,50,0
1,note_on,91,50,0
1,note_on,91,0,60
1,note_on,94,0,0
1,note_on,56,93,180
1,note_on,56,0,180
1,note_on,84,56,60
1,note_on,72,47,0
1,note_on,75,47,0
1,note_on,75,0,60
1,note_on,72,0,0
1,note_on,84,0,0
1,note_on,84,66,180
1,note_on,80,56,0
1,note_on,72,56,0
1,note_on,72,0,60
1,note_on,80,0,0
1,note_on,84,0,0
1,note_on,83,51,120
1,note_on,71,42,0
1,note_on,79,42,0
1,note_on,79,0,60
1,note_on,71,0,0
1,note_on,83,0,0
1,note_on,84,51,0
1,note_on,80,42,0
1,note_on,72,42,0
1,note_on,72,0,60
1,note_on,80,0,0
1,note_on,84,0,0
1,note_on,55,101,180
1,note_on,55,0,180
1,note_on,82,56,60
1,note_on,70,47,0
1,note_on,75,47,0
1,note_on,75,0,60
1,note_on,70,0,0
1,note_on,82,0,0
1,note_on,82,66,180
1,note_on,79,56,0
1,note_on,70,56,0
1,note_on,70,0,60
1,note_on,79,0,0
1,note_on,82,0,0
1,note_on,81,51,120
1,note_on,69,42,0
1,note_on,78,42,0
1,note_on,78,0,60
1,note_on,69,0,0
1,note_on,81,0,0
1,note_on,82,51,0
1,note_on,79,42,0
1,note_on,70,42,0
1,note_on,70,0,60
1,note_on,79,0,0
1,note_on,82,0,0
1,note_on,53,96,180
1,note_on,53,0,180
1,note_on,80,56,60
1,note_on,68,47,0
1,note_on,74,47,0
1,note_on,74,0,60
1,note_on,68,0,0
1,note_on,80,0,0
1,note_on,80,66,180
1,note_on,77,56,0
1,note_on,68,56,0
1,note_on,68,0,60
1,note_on,77,0,0
1,note_on,80,0,0
1,note_on,79,51,120
1,note_on,67,42,0
1,note_on,76,42,0
1,note_on,76,0,60
1,note_on,67,0,0
1,note_on,79,0,0
1,note_on,80,51,0
1,note_on,77,42,0
1,note_on,68,42,0
1,note_on,68,0,60
1,note_on,77,0,0
1,note_on,80,0,0
1,note_on,51,92,180
1,note_on,51,0,180
1,note_on,79,56,60
1,note_on,67,47,0
1,note_on,70,47,0
1,note_on,70,0,60
1,note_on,67,0,0
1,note_on,79,0,0
1,note_on,79,66,180
1,note_on,75,56,0
1,note_on,67,56,0
1,note_on,67,0,60
1,note_on,75,0,0
1,note_on,79,0,0
1,note_on,78,51,120
1,note_on,66,42,0
1,note_on,74,42,0
1,note_on,74,0,60
1,note_on,66,0,0
1,note_on,78,0,0
1,note_on,79,51,0
1,note_on,75,42,0
1,note_on,67,42,0
1,note_on,67,0,60
1,note_on,75,0,0
1,note_on,79,0,0
1,note_on,92,52,180
1,note_on,84,44,0
1,note_on,84,0,60
1,note_on,92,0,0
1,note_on,91,47,60
1,note_on,82,39,0
1,note_on,82,0,60
1,note_on,91,0,0
1,note_on,89,47,60
1,note_on,80,39,0
1,note_on,80,0,60
1,note_on,89,0,0
1,note_on,87,47,60
1,note_on,79,39,0
1,note_on,79,0,60
1,note_on,87,0,0
1,note_on,86,52,60
1,note_on,77,44,0
1,note_on,77,0,60
1,note_on,86,0,0
1,note_on,82,45,60
1,note_on,74,38,0
1,note_on,74,0,60
1,note_on,82,0,0
1,note_on,84,45,60
1,note_on,75,38,0
1,note_on,75,0,60
1,note_on,84,0,0
1,note_on,86,45,60
1,note_on,77,38,0
1,note_on,77,0,60
1,note_on,86,0,0
1,note_on,87,56,60
1,note_on,79,47,0
1,note_on,79,0,60
1,note_on,87,0,0
1,note_on,89,49,60
1,note_on,82,41,0
1,note_on,82,0,60
1,note_on,89,0,0
1,note_on,91,50,60
1,note_on,87,42,0
1,note_on,87,0,60
1,note_on,91,0,0
1,note_on,92,44,60
1,note_on,89,37,0
1,note_on,89,0,60
1,note_on,92,0,0
1,note_on,96,56,30
1,note_on,96,0,30
1,note_on,94,50,0
1,note_on,91,42,0
1,note_on,91,0,60
1,note_on,94,0,0
1,note_on,90,38,60
1,note_on,93,45,0
1,note_on,93,0,60
1,note_on,90,0,0
1,note_on,96,50,60
1,note_on,92,50,0
1,note_on,92,0,60
1,note_on,96,0,0
1,note_on,94,50,60
1,note_on,91,50,0
1,note_on,91,0,60
1,note_on,94,0,0
1,note_on,80,52,60
1,note_on,72,44,0
1,note_on,72,0,60
1,note_on,80,0,0
1,note_on,79,47,60
1,note_on,70,39,0
1,note_on,70,0,60
1,note_on,79,0,0
1,note_on,77,47,60
1,note_on,68,39,0
1,note_on,68,0,60
1,note_on,77,0,0
1,note_on,75,47,60
1,note_on,67,39,0
1,note_on,67,0,60
1,note_on,75,0,0
1,note_on,74,52,60
1,note_on,65,44,0
1,note_on,65,0,60
1,note_on,74,0,0
1,note_on,70,45,60
1,note_on,62,38,0
1,note_on,62,0,60
1,note_on,70,0,0
1,note_on,72,45,60
1,note_on,63,38,0
1,note_on,63,0,60
1,note_on,72,0,0
1,note_on,74,45,60
1,note_on,65,38,0
1,note_on,65,0,60
1,note_on,74,0,0
1,note_on,75,56,60
1,note_on,67,47,0
1,note_on,67,0,60
1,note_on,75,0,0
1,note_on,77,49,60
1,note_on,70,41,0
1,note_on,70,0,60
1,note_on,77,0,0
1,note_on,79,50,60
1,note_on,75,42,0
1,note_on,75,0,60
1,note_on,79,0,0
1,note_on,80,44,60
1,note_on,77,37,0
1,note_on,77,0,60
1,note_on,80,0,0
1,note_on,82,50,60
1,note_on,79,42,0
1,note_on,79,0,60
1,note_on,82,0,0
1,note_on,78,38,60
1,note_on,81,45,0
1,note_on,81,0,60
1,note_on,78,0,0
1,note_on,84,50,60
1,note_on,80,50,0
1,note_on,80,0,60
1,note_on,84,0,0
1,note_on,82,50,60
1,note_on,79,50,0
1,note_on,79,0,60
1,note_on,82,0,0
1,note_on,92,52,60
1,note_on,84,44,0
1,note_on,84,0,60
1,note_on,92,0,0
1,note_on,91,47,60
1,note_on,82,39,0
1,note_on,82,0,60
1,note_on,91,0,0
1,note_on,89,47,60
1,note_on,80,39,0
1,note_on,80,0,60
1,note_on,89,0,0
1,note_on,87,47,60
1,note_on,79,39,0
1,note_on,79,0,60
1,note_on,87,0,0
1,note_on,86,52,60
1,note_on,77,44,0
1,note_on,77,0,60
1,note_on,86,0,0
1,note_on,82,45,60
1,note_on,74,38,0
1,note_on,74,0,60
1,note_on,82,0,0
1,note_on,84,45,60
1,note_on,75,38,0
1,note_on,75,0,60
1,note_on,84,0,0
1,note_on,86,45,60
1,note_on,77,38,0
1,note_on,77,0,60
1,note_on,86,0,0
1,note_on,87,56,60
1,note_on,79,47,0
1,note_on,79,0,60
1,note_on,87,0,0
1,note_on,89,49,60
1,note_on,82,41,0
1,note_on,82,0,60
1,note_on,89,0,0
1,note_on,91,50,60
1,note_on,87,42,0
1,note_on,87,0,60
1,note_on,91,0,0
1,note_on,92,44,60
1,note_on,89,37,0
1,note_on,89,0,60
1,note_on,92,0,0
1,note_on,94,50,60
1,note_on,91,42,0
1,note_on,91,0,60
1,note_on,94,0,0
1,note_on,90,38,60
1,note_on,93,45,0
1,note_on,93,0,60
1,note_on,90,0,0
1,note_on,96,50,60
1,note_on,92,42,0
1,note_on,92,0,60
1,note_on,96,0,0
1,note_on,94,50,60
1,note_on,91,42,0
1,note_on,91,0,60
1,note_on,94,0,0
1,note_on,92,56,60
1,note_on,84,47,0
1,note_on,84,0,60
1,note_on,92,0,0
1,note_on,91,53,60
1,note_on,82,45,0
1,note_on,82,0,60
1,note_on,91,0,0
1,note_on,89,53,60
1,note_on,80,45,0
1,note_on,80,0,60
1,note_on,89,0,0
1,note_on,87,53,60
1,note_on,79,45,0
1,note_on,79,0,60
1,note_on,87,0,0
1,note_on,86,56,60
1,note_on,77,47,0
1,note_on,77,0,60
1,note_on,86,0,0
1,note_on,82,50,60
1,note_on,74,42,0
1,note_on,74,0,60
1,note_on,82,0,0
1,note_on,81,50,60
1,note_on,73,42,0
1,note_on,73,0,60
1,note_on,81,0,0
1,note_on,82,50,60
1,note_on,74,42,0
1,note_on,74,0,60
1,note_on,82,0,0
1,note_on,83,51,60
1,note_on,75,43,0
1,note_on,75,0,60
1,note_on,83,0,0
1,note_on,84,43,60
1,note_on,76,36,0
1,note_on,76,0,60
1,note_on,84,0,0
1,note_on,85,45,60
1,note_on,77,38,0
1,note_on,77,0,60
1,note_on,85,0,0
1,note_on,86,46,60
1,note_on,78,39,0
1,note_on,78,0,60
1,note_on,86,0,0
1,note_on,87,48,60
1,note_on,79,40,0
1,note_on,79,0,60
1,note_on,87,0,0
1,note_on,88,50,60
1,note_on,80,42,0
1,note_on,80,0,60
1,note_on,88,0,0
1,note_on,89,51,60
1,note_on,81,43,0
1,note_on,81,0,60
1,note_on,89,0,0
1,note_on,90,53,60
1,note_on,82,45,0
1,note_on,82,0,60
1,note_on,90,0,0
1,note_on,91,55,60
1,note_on,83,46,0
1,note_on,83,0,60
1,note_on,91,0,0
1,note_on,92,56,60
1,note_on,84,47,0
1,note_on,84,0,60
1,note_on,92,0,0
1,note_on,93,58,60
1,note_on,85,49,0
1,note_on,85,0,60
1,note_on,93,0,0
1,note_on,94,60,60
1,note_on,86,51,0
1,note_on,86,0,60
1,note_on,94,0,0
1,note_on,93,68,60
1,note_on,85,57,0
1,note_on,85,0,60
1,note_on,93,0,0
1,note_on,94,69,60
1,note_on,86,58,0
1,note_on,86,0,60
1,note_on,94,0,0
1,note_on,93,73,60
1,note_on,81,62,0
1,note_on,81,0,60
1,note_on,93,0,0
1,note_on,94,71,60
1,note_on,82,60,0
1,note_on,82,0,60
1,note_on,94,0,0
1,note_on,98,85,60
1,note_on,86,72,0
1,note_on,94,72,0
1,note_on,94,0,120
1,note_on,86,0,0
1,note_on,98,0,0
1,note_on,98,78,120
1,note_on,86,66,0
1,note_on,94,66,0
1,note_on,94,0,240
1,note_on,86,0,0
1,note_on,98,0,0
1,note_on,96,85,0
1,note_on,84,72,0
1,note_on,92,72,0
1,note_on,92,0,120
1,note_on,84,0,0
1,note_on,96,0,0
1,note_on,96,80,120
1,note_on,84,68,0
1,note_on,92,68,0
1,note_on,92,0,240
1,note_on,84,0,0
1,note_on,96,0,0
1,note_on,91,84,0
1,note_on,79,71,0
1,note_on,87,71,0
1,note_on,87,0,120
1,note_on,79,0,0
1,note_on,91,0,0
1,note_on,94,76,120
1,note_on,82,64,0
1,note_on,91,64,0
1,note_on,91,0,120
1,note_on,82,0,0
1,note_on,94,0,0
1,note_on,94,81,120
1,note_on,82,68,0
1,note_on,91,68,0
1,note_on,91,0,60
1,note_on,82,0,0
1,note_on,94,0,0
1,note_on,93,72,120
1,note_on,81,61,0
1,note_on,90,61,0
1,note_on,90,0,60
1,note_on,81,0,0
1,note_on,93,0,0
1,note_on,94,80,0
1,note_on,82,68,0
1,note_on,91,68,0
1,note_on,91,0,120
1,note_on,82,0,0
1,note_on,94,0,0
1,note_on,89,75,120
1,note_on,77,63,0
1,note_on,80,63,0
1,note_on,80,0,60
1,note_on,77,0,0
1,note_on,89,0,0
1,note_on,91,74,60
1,note_on,79,62,0
1,note_on,82,62,0
1,note_on,82,0,60
1,note_on,79,0,0
1,note_on,91,0,0
1,note_on,92,74,60
1,note_on,80,62,0
1,note_on,84,62,0
1,note_on,84,0,60
1,note_on,80,0,0
1,note_on,92,0,0
1,note_on,87,74,60
1,note_on,96,74,0
1,note_on,84,62,0
1,note_on,84,0,60
1,note_on,96,0,0
1,note_on,87,0,0
1,note_on,86,76,60
1,note_on,94,76,0
1,note_on,82,64,0
1,note_on,82,0,60
1,note_on,94,0,0
1,note_on,86,0,0
1,note_on,92,73,60
1,note_on,80,62,0
1,note_on,84,62,0
1,note_on,84,0,60
1,note_on,80,0,0
1,note_on,92,0,0
1,note_on,91,74,60
1,note_on,79,62,0
1,note_on,82,62,0
1,note_on,82,0,60
1,note_on,79,0,0
1,note_on,91,0,0
1,note_on,89,74,60
1,note_on,77,62,0
1,note_on,80,62,0
1,note_on,80,0,60
1,note_on,77,0,0
1,note_on,89,0,0
1,note_on,94,84,60
1,note_on,91,84,0
1,note_on,82,71,0
1,note_on,82,0,120
1,note_on,91,0,0
1,note_on,94,0,0
1,note_on,91,76,120
1,note_on,94,76,0
1,note_on,82,64,0
1,note_on,82,0,120
1,note_on,94,0,0
1,note_on,91,0,0
1,note_on,81,61,60
1,note_on,90,72,0
1,note_on,93,72,0
1,note_on,93,0,60
1,note_on,90,0,0
1,note_on,81,0,0
1,note_on,94,81,0
1,note_on,91,81,0
1,note_on,82,68,0
1,note_on,82,0,480
1,note_on,91,0,0
1,note_on,94,0,0
1,note_on,98,85,0
1,note_on,86,72,0
1,note_on,94,72,0
1,note_on,94,0,120
1,note_on,86,0,0
1,note_on,98,0,0
1,note_on,98,78,120
1,note_on,86,66,0
1,note_on,94,66,0
1,note_on,94,0,240
1,note_on,86,0,0
1,note_on,98,0,0
1,note_on,96,85,0
1,note_on,84,72,0
1,note_on,92,72,0
1,note_on,92,0,120
1,note_on,84,0,0
1,note_on,96,0,0
1,note_on,96,80,120
1,note_on,84,68,0
1,note_on,92,68,0
1,note_on,92,0,240
1,note_on,84,0,0
1,note_on,96,0,0
1,note_on,91,84,0
1,note_on,79,71,0
1,note_on,87,71,0
1,note_on,87,0,120
1,note_on,79,0,0
1,note_on,91,0,0
1,note_on,94,76,120
1,note_on,82,64,0
1,note_on,91,64,0
1,note_on,91,0,120
1,note_on,82,0,0
1,note_on,94,0,0
1,note_on,94,81,120
1,note_on,82,68,0
1,note_on,91,68,0
1,note_on,91,0,60
1,note_on,82,0,0
1,note_on,94,0,0
1,note_on,93,72,120
1,note_on,81,61,0
1,note_on,90,61,0
1,note_on,90,0,60
1,note_on,81,0,0
1,note_on,93,0,0
1,note_on,94,80,0
1,note_on,82,68,0
1,note_on,91,68,0
1,note_on,91,0,120
1,note_on,82,0,0
1,note_on,94,0,0
1,note_on,89,66,120
1,note_on,77,56,0
1,note_on,80,56,0
1,note_on,80,0,60
1,note_on,77,0,0
1,note_on,89,0,0
1,note_on,91,68,60
1,note_on,79,57,0
1,note_on,82,57,0
1,note_on,82,0,60
1,note_on,79,0,0
1,note_on,91,0,0
1,note_on,92,70,60
1,note_on,80,59,0
1,note_on,83,59,0
1,note_on,83,0,60
1,note_on,80,0,0
1,note_on,92,0,0
1,note_on,84,61,60
1,note_on,93,72,0
1,note_on,81,61,0
1,note_on,81,0,60
1,note_on,93,0,0
1,note_on,84,0,0
1,note_on,94,74,60
1,note_on,85,62,0
1,note_on,82,62,0
1,note_on,82,0,60
1,note_on,85,0,0
1,note_on,94,0,0
1,note_on,95,76,60
1,note_on,83,64,0
1,note_on,86,64,0
1,note_on,86,0,60
1,note_on,83,0,0
1,note_on,95,0,0
1,note_on,96,78,60
1,note_on,84,66,0
1,note_on,87,66,0
1,note_on,87,0,60
1,note_on,84,0,0
1,note_on,96,0,0
1,note_on,98,79,60
1,note_on,86,67,0
1,note_on,89,67,0
1,note_on,89,0,60
1,note_on,86,0,0
1,note_on,98,0,0
1,note_on,99,81,60
1,note_on,87,68,0
1,note_on,91,68,0
1,note_on,91,0,60
1,note_on,87,0,0
1,note_on,99,0,0
1,note_on,75,68,420
1,note_on,79,68,0
1,note_on,82,68,0
1,note_on,87,81,0
1,note_on,87,0,60
1,note_on,75,0,0
1,note_on,79,0,0
1,note_on,82,0,0
1,note_on,58,57,1140
1,note_on,58,0,48
1,note_on,60,54,0
1,note_on,60,0,48
1,note_on,58,55,0
1,note_on,58,0,48
1,note_on,57,55,0
1,note_on,57,0,48
1,note_on,58,55,0
1,note_on,58,0,48
1,note_on,62,60,0
1,note_on,62,0,45
1,note_on,61,53,75
1,note_on,61,0,60
1,note_on,60,53,60
1,note_on,60,0,60
1,note_on,59,53,60
1,note_on,59,0,60
1,note_on,58,57,60
1,note_on,58,0,60
1,note_on,57,54,60
1,note_on,57,0,60
1,note_on,56,54,60
1,note_on,56,0,60
1,note_on,60,54,60
1,note_on,60,0,60
1,note_on,55,57,60
1,note_on,55,0,60
1,note_on,56,54,60
1,note_on,56,0,60
1,note_on,57,54,60
1,note_on,57,0,60
1,note_on,58,54,60
1,note_on,58,0,30
1,note_on,57,49,30
1,note_on,57,0,20
1,note_on,58,49,0
1,note_on,58,0,20
1,note_on,60,49,0
1,note_on,60,0,20
1,note_on,58,57,0
1,note_on,58,0,60
1,note_on,57,53,60
1,note_on,57,0,60
1,note_on,58,57,60
1,note_on,58,0,60
1,note_on,55,54,60
1,note_on,55,0,60
1,note_on,53,57,60
1,note_on,53,0,60
1,note_on,55,51,60
1,note_on,55,0,60
1,note_on,56,51,60
1,note_on,56,0,60
1,note_on,60,51,60
1,note_on,60,0,60
1,note_on,58,54,60
1,note_on,58,0,60
1,note_on,56,51,60
1,note_on,56,0,60
1,note_on,55,51,60
1,note_on,55,0,60
1,note_on,53,51,60
1,note_on,53,0,60
1,note_on,57,54,60
1,note_on,57,0,60
1,note_on,58,45,60
1,note_on,58,0,60
1,note_on,58,47,60
1,note_on,58,0,60
1,note_on,59,48,60
1,note_on,59,0,60
1,note_on,59,50,60
1,note_on,59,0,60
1,note_on,60,52,60
1,note_on,60,0,60
1,note_on,60,54,60
1,note_on,60,0,60
1,note_on,61,55,60
1,note_on,61,0,60
1,note_on,62,58,60
1,note_on,62,0,60
1,note_on,61,53,60
1,note_on,61,0,60
1,note_on,60,53,60
1,note_on,60,0,60
1,note_on,59,53,60
1,note_on,59,0,60
1,note_on,58,57,60
1,note_on,58,0,60
1,note_on,57,54,60
1,note_on,57,0,60
1,note_on,56,54,60
1,note_on,56,0,60
1,note_on,60,54,60
1,note_on,60,0,60
1,note_on,55,57,60
1,note_on,55,0,60
1,note_on,56,54,60
1,note_on,56,0,60
1,note_on,57,54,60
1,note_on,57,0,60
1,note_on,58,54,60
1,note_on,58,0,30
1,note_on,57,49,30
1,note_on,57,0,20
1,note_on,58,49,0
1,note_on,58,0,20
1,note_on,60,49,0
1,note_on,60,0,20
1,note_on,58,57,0
1,note_on,58,0,60
1,note_on,57,53,60
1,note_on,57,0,60
1,note_on,58,57,60
1,note_on,58,0,60
1,note_on,55,54,60
1,note_on,55,0,60
1,note_on,53,57,60
1,note_on,53,0,60
1,note_on,55,51,60
1,note_on,55,0,60
1,note_on,56,51,60
1,note_on,56,0,60
1,note_on,60,51,60
1,note_on,60,0,60
1,note_on,58,54,60
1,note_on,58,0,60
1,note_on,56,51,60
1,note_on,56,0,60
1,note_on,55,51,60
1,note_on,55,0,60
1,note_on,53,51,60
1,note_on,53,0,60
1,note_on,55,54,60
1,note_on,55,0,60
1,note_on,51,51,60
1,note_on,51,0,60
1,note_on,55,53,60
1,note_on,55,0,60
1,note_on,58,55,60
1,note_on,58,0,60
1,note_on,63,57,60
1,note_on,63,0,60
1,note_on,66,52,60
1,note_on,66,0,60
1,note_on,67,53,60
1,note_on,67,0,60
1,note_on,70,55,60
1,note_on,70,0,60
1,note_on,74,63,60
1,note_on,74,0,50
1,note_on,65,55,70
1,note_on,65,0,60
1,note_on,74,76,60
1,note_on,82,55,120
1,note_on,82,0,120
1,note_on,74,0,0
1,note_on,72,59,0
1,note_on,72,0,60
1,note_on,65,55,60
1,note_on,65,0,60
1,note_on,72,76,60
1,note_on,80,55,120
1,note_on,80,0,120
1,note_on,72,0,0
1,note_on,67,63,0
1,note_on,67,0,60
1,note_on,58,55,60
1,note_on,58,0,60
1,note_on,67,75,60
1,note_on,75,55,120
1,note_on,75,0,120
1,note_on,67,0,0
1,note_on,70,59,0
1,note_on,70,0,60
1,note_on,63,55,60
1,note_on,63,0,60
1,note_on,70,72,60
1,note_on,79,55,120
1,note_on,79,0,60
1,note_on,73,59,30
1,note_on,73,0,30
1,note_on,70,0,0
1,note_on,74,63,0
1,note_on,74,0,60
1,note_on,65,55,60
1,note_on,65,0,60
1,note_on,74,77,60
1,note_on,82,55,150
1,note_on,82,0,30
1,note_on,76,56,30
1,note_on,76,0,30
1,note_on,74,0,0
1,note_on,77,59,0
1,note_on,77,0,60
1,note_on,70,55,60
1,note_on,70,0,60
1,note_on,77,79,60
1,note_on,86,61,120
1,note_on,86,0,60
1,note_on,78,60,30
1,note_on,78,0,30
1,note_on,77,0,0
1,note_on,79,64,0
1,note_on,79,0,60
1,note_on,70,56,60
1,note_on,70,0,60
1,note_on,79,79,60
1,note_on,87,58,120
1,note_on,87,0,60
1,note_on,81,57,30
1,note_on,81,0,30
1,note_on,79,0,0
1,note_on,82,61,0
1,note_on,82,0,60
1,note_on,75,57,60
1,note_on,75,0,60
1,note_on,82,78,60
1,note_on,91,57,120
1,note_on,85,62,90
1,note_on,85,0,30
1,note_on,91,0,0
1,note_on,82,0,0
1,note_on,86,66,0
1,note_on,86,0,60
1,note_on,77,57,60
1,note_on,77,0,60
1,note_on,86,81,60
1,note_on,94,58,120
1,note_on,94,0,60
1,note_on,83,58,30
1,note_on,83,0,30
1,note_on,86,0,0
1,note_on,84,62,0
1,note_on,84,0,60
1,note_on,77,58,60
1,note_on,77,0,60
1,note_on,84,83,60
1,note_on,92,58,120
1,note_on,78,63,90
1,note_on,78,0,30
1,note_on,92,0,0
1,note_on,84,0,0
1,note_on,79,68,0
1,note_on,79,0,60
1,note_on,70,59,60
1,note_on,70,0,60
1,note_on,79,81,60
1,note_on,87,59,120
1,note_on,87,0,60
1,note_on,81,60,30
1,note_on,81,0,30
1,note_on,79,0,0
1,note_on,82,64,0
1,note_on,82,0,60
1,note_on,75,59,60
1,note_on,75,0,60
1,note_on,82,81,60
1,note_on,91,60,120
1,note_on,85,68,90
1,note_on,85,0,30
1,note_on,91,0,0
1,note_on,82,0,0
1,note_on,86,69,0
1,note_on,86,0,60
1,note_on,77,61,60
1,note_on,77,0,60
1,note_on,86,87,60
1,note_on,94,61,120
1,note_on,94,0,60
1,note_on,88,70,0
1,note_on,88,0,30
1,note_on,86,0,30
1,note_on,89,66,0
1,note_on,89,0,60
1,note_on,82,61,60
1,note_on,82,0,60
1,note_on,89,84,60
1,note_on,98,62,120
1,note_on,90,64,90
1,note_on,90,0,30
1,note_on,98,0,0
1,note_on,89,0,0
1,note_on,91,83,0
1,note_on,91,0,60
1,note_on,82,62,60
1,note_on,82,0,60
1,note_on,91,70,60
1,note_on,99,62,120
1,note_on,99,0,60
1,note_on,91,0,60
1,note_on,63,79,0
1,note_on,63,0,420
1,note_on,64,48,0
1,note_on,64,0,60
1,note_on,65,48,0
1,note_on,65,0,80
1,note_on,67,50,0
1,note_on,67,0,80
1,note_on,68,52,0
1,note_on,68,0,80
1,note_on,72,54,0
1,note_on,72,0,80
1,note_on,70,53,0
1,note_on,70,0,80
1,note_on,68,52,0
1,note_on,68,0,80
1,note_on,67,51,0
1,note_on,67,0,80
1,note_on,65,50,0
1,note_on,65,0,80
1,note_on,63,49,0
1,note_on,63,0,80
1,note_on,62,48,0
1,note_on,62,0,80
1,note_on,60,48,0
1,note_on,60,0,80
1,note_on,58,47,0
1,note_on,58,0,80
1,note_on,57,49,0
1,note_on,57,0,80
1,note_on,58,50,0
1,note_on,58,0,80
1,note_on,60,51,0
1,note_on,60,0,80
1,note_on,62,51,0
1,note_on,62,0,80
1,note_on,63,52,0
1,note_on,63,0,80
1,note_on,66,53,0
1,note_on,66,0,80
1,note_on,67,54,0
1,note_on,67,0,80
1,note_on,68,54,0
1,note_on,68,0,80
1,note_on,70,55,0
1,note_on,70,0,80
1,note_on,72,56,0
1,note_on,72,0,80
1,note_on,74,57,0
1,note_on,74,0,80
1,note_on,75,58,0
1,note_on,75,0,50
1,note_on,74,56,0
1,note_on,77,63,30
1,note_on,77,0,80
1,note_on,74,0,0
1,note_on,79,58,0
1,note_on,79,0,80
1,note_on,80,59,0
1,note_on,80,0,80
1,note_on,84,64,0
1,note_on,84,0,80
1,note_on,82,63,0
1,note_on,82,0,80
1,note_on,80,62,0
1,note_on,80,0,80
1,note_on,79,60,0
1,note_on,79,0,80
1,note_on,77,59,0
1,note_on,77,0,80
1,note_on,75,58,0
1,note_on,75,0,80
1,note_on,74,57,0
1,note_on,74,0,80
1,note_on,72,55,0
1,note_on,72,0,80
1,note_on,70,54,0
1,note_on,70,0,80
1,note_on,69,55,0
1,note_on,69,0,80
1,note_on,70,55,0
1,note_on,70,0,80
1,note_on,72,56,0
1,note_on,72,0,80
1,note_on,74,56,0
1,note_on,74,0,80
1,note_on,75,57,0
1,note_on,75,0,80
1,note_on,78,58,0
1,note_on,78,0,80
1,note_on,79,58,0
1,note_on,79,0,80
1,note_on,80,59,0
1,note_on,80,0,80
1,note_on,82,60,0
1,note_on,82,0,80
1,note_on,84,60,0
1,note_on,84,0,80
1,note_on,86,61,0
1,note_on,86,0,80
1,note_on,87,63,0
1,note_on,87,0,50
1,note_on,86,52,0
1,note_on,89,63,30
1,note_on,89,0,80
1,note_on,86,0,0
1,note_on,91,58,0
1,note_on,91,0,80
1,note_on,92,59,0
1,note_on,92,0,80
1,note_on,96,64,0
1,note_on,96,0,80
1,note_on,94,63,0
1,note_on,94,0,80
1,note_on,92,62,0
1,note_on,92,0,80
1,note_on,91,60,0
1,note_on,91,0,80
1,note_on,89,59,0
1,note_on,89,0,80
1,note_on,87,58,0
1,note_on,87,0,80
1,note_on,86,57,0
1,note_on,86,0,80
1,note_on,84,55,0
1,note_on,84,0,80
1,note_on,82,54,0
1,note_on,82,0,80
1,note_on,81,55,0
1,note_on,81,0,80
1,note_on,82,55,0
1,note_on,82,0,80
1,note_on,84,56,0
1,note_on,84,0,80
1,note_on,86,56,0
1,note_on,86,0,80
1,note_on,87,57,0
1,note_on,87,0,80
1,note_on,90,58,0
1,note_on,90,0,80
1,note_on,91,58,0
1,note_on,91,0,80
1,note_on,92,58,0
1,note_on,92,0,80
1,note_on,94,57,0
1,note_on,94,0,80
1,note_on,96,56,0
1,note_on,96,0,80
1,note_on,98,56,0
1,note_on,98,0,80
1,note_on,99,55,0
1,note_on,99,0,80
1,note_on,100,55,0
1,note_on,100,0,80
1,note_on,101,50,0
1,note_on,101,0,80
1,note_on,94,54,0
1,note_on,94,0,80
1,note_on,97,50,0
1,note_on,97,0,80
1,note_on,98,54,0
1,note_on,98,0,80
1,note_on,89,50,0
1,note_on,89,0,80
1,note_on,100,54,0
1,note_on,100,0,80
1,note_on,101,50,0
1,note_on,101,0,80
1,note_on,94,54,0
1,note_on,94,0,80
1,note_on,97,50,0
1,note_on,97,0,80
1,note_on,98,55,0
1,note_on,98,0,80
1,note_on,89,50,0
1,note_on,89,0,80
1,note_on,102,55,0
1,note_on,102,0,80
1,note_on,103,50,0
1,note_on,103,0,80
1,note_on,94,54,0
1,note_on,94,0,80
1,note_on,98,50,0
1,note_on,98,0,80
1,note_on,99,54,0
1,note_on,99,0,80
1,note_on,91,50,0
1,note_on,91,0,80
1,note_on,102,54,0
1,note_on,102,0,80
1,note_on,103,50,0
1,note_on,103,0,80
1,note_on,94,54,0
1,note_on,94,0,80
1,note_on,98,50,0
1,note_on,98,0,80
1,note_on,99,55,0
1,note_on,99,0,80
1,note_on,91,50,0
1,note_on,91,0,80
1,note_on,100,55,0
1,note_on,100,0,80
1,note_on,101,50,0
1,note_on,101,0,80
1,note_on,94,54,0
1,note_on,94,0,80
1,note_on,97,50,0
1,note_on,97,0,80
1,note_on,98,54,0
1,note_on,98,0,80
1,note_on,89,50,0
1,note_on,89,0,80
1,note_on,100,54,0
1,note_on,100,0,80
1,note_on,101,50,0
1,note_on,101,0,80
1,note_on,94,54,0
1,note_on,94,0,80
1,note_on,97,50,0
1,note_on,97,0,80
1,note_on,98,55,0
1,note_on,98,0,80
1,note_on,89,50,0
1,note_on,89,0,80
1,note_on,102,55,0
1,note_on,102,0,80
1,note_on,103,50,0
1,note_on,103,0,80
1,note_on,94,54,0
1,note_on,94,0,80
1,note_on,98,50,0
1,note_on,98,0,80
1,note_on,99,54,0
1,note_on,99,0,80
1,note_on,91,50,0
1,note_on,91,0,80
1,note_on,102,54,0
1,note_on,102,0,80
1,note_on,103,50,0
1,note_on,103,0,80
1,note_on,94,54,0
1,note_on,94,0,80
1,note_on,98,50,0
1,note_on,98,0,80
1,note_on,99,55,0
1,note_on,99,0,80
1,note_on,91,50,0
1,note_on,91,0,80
1,note_on,100,55,0
1,note_on,100,0,80
1,note_on,101,50,0
1,note_on,101,0,80
1,note_on,94,54,0
1,note_on,94,0,80
1,note_on,97,50,0
1,note_on,97,0,80
1,note_on,98,54,0
1,note_on,98,0,80
1,note_on,89,50,0
1,note_on,89,0,80
1,note_on,100,54,0
1,note_on,100,0,80
1,note_on,101,50,0
1,note_on,101,0,80
1,note_on,94,54,0
1,note_on,94,0,80
1,note_on,97,50,0
1,note_on,97,0,80
1,note_on,98,55,0
1,note_on,98,0,80
1,note_on,89,50,0
1,note_on,89,0,80
1,note_on,102,55,0
1,note_on,102,0,80
1,note_on,103,50,0
1,note_on,103,0,80
1,note_on,94,54,0
1,note_on,94,0,80
1,note_on,98,50,0
1,note_on,98,0,80
1,note_on,99,54,0
1,note_on,99,0,80
1,note_on,91,50,0
1,note_on,91,0,80
1,note_on,102,54,0
1,note_on,102,0,80
1,note_on,103,50,0
1,note_on,103,0,80
1,note_on,94,54,0
1,note_on,94,0,80
1,note_on,98,50,0
1,note_on,98,0,80
1,note_on,99,55,0
1,note_on,99,0,80
1,note_on,91,50,0
1,note_on,91,0,80
1,note_on,100,55,0
1,note_on,100,0,80
1,note_on,101,50,0
1,note_on,101,0,80
1,note_on,94,54,0
1,note_on,94,0,80
1,note_on,97,50,0
1,note_on,97,0,80
1,note_on,98,54,0
1,note_on,98,0,80
1,note_on,89,50,0
1,note_on,89,0,80
1,note_on,100,54,0
1,note_on,100,0,80
1,note_on,101,50,0
1,note_on,101,0,80
1,note_on,94,54,0
1,note_on,94,0,80
1,note_on,97,50,0
1,note_on,97,0,80
1,note_on,98,55,0
1,note_on,98,0,80
1,note_on,89,50,0
1,note_on,89,0,80
1,note_on,102,50,0
1,note_on,93,50,0
1,note_on,93,0,60
1,note_on,102,0,0
1,note_on,94,55,0
1,note_on,103,55,0
1,note_on,103,0,120
1,note_on,94,0,0
1,note_on,74,47,300
1,note_on,66,47,0
1,note_on,66,0,60
1,note_on,74,0,0
1,note_on,67,52,0
1,note_on,75,52,0
1,note_on,75,0,120
1,note_on,67,0,0
1,note_on,86,45,300
1,note_on,77,45,0
1,note_on,77,0,60
1,note_on,86,0,0
1,note_on,89,51,0
1,note_on,80,51,0
1,note_on,80,0,120
1,note_on,89,0,0
1,note_on,62,46,300
1,note_on,71,46,0
1,note_on,71,0,60
1,note_on,62,0,0
1,note_on,65,52,0
1,note_on,74,52,0
1,note_on,74,0,120
1,note_on,65,0,0
1,note_on,72,36,300
1,note_on,72,0,60
1,note_on,74,33,0
1,note_on,74,0,60
1,note_on,72,37,0
1,note_on,72,0,60
1,note_on,74,33,0
1,note_on,74,0,60
1,note_on,72,37,0
1,note_on,72,0,60
1,note_on,74,33,0
1,note_on,74,0,60
1,note_on,72,37,0
1,note_on,72,0,60
1,note_on,74,33,0
1,note_on,74,0,60
1,note_on,72,37,0
1,note_on,72,0,60
1,note_on,74,33,0
1,note_on,74,0,60
1,note_on,72,37,0
1,note_on,72,0,60
1,note_on,74,33,0
1,note_on,74,0,60
1,note_on,72,37,0
1,note_on,72,0,60
1,note_on,74,33,0
1,note_on,74,0,60
1,note_on,72,37,0
1,note_on,72,0,60
1,note_on,74,33,0
1,note_on,74,0,60
1,note_on,71,38,0
1,note_on,71,0,60
1,note_on,72,33,0
1,note_on,72,0,60
1,note_on,74,34,0
1,note_on,74,0,60
1,note_on,75,34,0
1,note_on,75,0,60
1,note_on,74,41,0
1,note_on,74,0,60
1,note_on,75,36,0
1,note_on,75,0,60
1,note_on,78,37,0
1,note_on,78,0,60
1,note_on,79,44,0
1,note_on,79,0,60
1,note_on,78,38,0
1,note_on,78,0,60
1,note_on,79,39,0
1,note_on,79,0,60
1,note_on,83,39,0
1,note_on,83,0,60
1,note_on,84,40,0
1,note_on,84,0,60
1,note_on,83,47,0
1,note_on,83,0,60
1,note_on,84,42,0
1,note_on,84,0,60
1,note_on,86,42,0
1,note_on,86,0,60
1,note_on,87,43,0
1,note_on,87,0,60
1,note_on,86,51,0
1,note_on,86,0,60
1,note_on,87,45,0
1,note_on,87,0,60
1,note_on,90,45,0
1,note_on,90,0,60
1,note_on,91,54,0
1,note_on,91,0,60
1,note_on,90,47,0
1,note_on,90,0,60
1,note_on,91,47,0
1,note_on,91,0,60
1,note_on,95,48,0
1,note_on,95,0,60
1,note_on,96,49,0
1,note_on,96,0,60
1,note_on,95,57,0
1,note_on,95,0,60
1,note_on,96,50,0
1,note_on,96,0,60
1,note_on,98,51,0
1,note_on,98,0,60
1,note_on,99,52,0
1,note_on,99,0,60
1,note_on,98,61,0
1,note_on,98,0,60
1,note_on,99,53,0
1,note_on,99,0,60
1,note_on,102,54,0
1,note_on,102,0,60
1,note_on,103,65,0
1,note_on,103,0,60
1,note_on,95,61,0
1,note_on,95,0,60
1,note_on,96,53,0
1,note_on,96,0,60
1,note_on,98,53,0
1,note_on,98,0,60
1,note_on,99,53,0
1,note_on,99,0,60
1,note_on,90,54,0
1,note_on,90,0,60
1,note_on,91,48,0
1,note_on,91,0,60
1,note_on,95,49,0
1,note_on,95,0,60
1,note_on,96,49,0
1,note_on,96,0,60
1,note_on,86,51,0
1,note_on,86,0,60
1,note_on,87,45,0
1,note_on,87,0,60
1,note_on,90,45,0
1,note_on,90,0,60
1,note_on,91,45,0
1,note_on,91,0,60
1,note_on,83,47,0
1,note_on,83,0,60
1,note_on,84,42,0
1,note_on,84,0,60
1,note_on,86,42,0
1,note_on,86,0,60
1,note_on,87,43,0
1,note_on,87,0,60
1,note_on,78,44,0
1,note_on,78,0,60
1,note_on,79,39,0
1,note_on,79,0,60
1,note_on,83,40,0
1,note_on,83,0,60
1,note_on,84,40,0
1,note_on,84,0,60
1,note_on,74,40,0
1,note_on,74,0,60
1,note_on,75,36,0
1,note_on,75,0,60
1,note_on,78,37,0
1,note_on,78,0,60
1,note_on,79,36,0
1,note_on,79,0,60
1,note_on,71,41,0
1,note_on,71,0,60
1,note_on,72,38,0
1,note_on,72,0,60
1,note_on,74,40,0
1,note_on,74,0,60
1,note_on,75,41,0
1,note_on,75,0,60
1,note_on,66,43,0
1,note_on,66,0,60
1,note_on,67,44,0
1,note_on,67,0,60
1,note_on,71,46,0
1,note_on,71,0,60
1,note_on,72,47,0
1,note_on,72,0,60
1,note_on,71,49,0
1,note_on,71,0,60
1,note_on,72,49,0
1,note_on,72,0,60
1,note_on,74,51,0
1,note_on,74,0,60
1,note_on,75,53,0
1,note_on,75,0,60
1,note_on,74,55,0
1,note_on,74,0,60
1,note_on,75,57,0
1,note_on,75,0,60
1,note_on,78,59,0
1,note_on,78,0,60
1,note_on,79,61,0
1,note_on,79,0,60
1,note_on,71,41,0
1,note_on,71,0,60
1,note_on,72,38,0
1,note_on,72,0,60
1,note_on,74,40,0
1,note_on,74,0,60
1,note_on,75,41,0
1,note_on,75,0,60
1,note_on,66,43,0
1,note_on,66,0,60
1,note_on,67,44,0
1,note_on,67,0,60
1,note_on,71,46,0
1,note_on,71,0,60
1,note_on,72,47,0
1,note_on,72,0,60
1,note_on,71,49,0
1,note_on,71,0,60
1,note_on,72,49,0
1,note_on,72,0,60
1,note_on,74,51,0
1,note_on,74,0,60
1,note_on,75,53,0
1,note_on,75,0,60
1,note_on,74,55,0
1,note_on,74,0,60
1,note_on,75,57,0
1,note_on,75,0,60
1,note_on,78,59,0
1,note_on,78,0,60
1,note_on,79,61,0
1,note_on,79,0,60
1,note_on,71,54,0
1,note_on,71,0,60
1,note_on,72,49,0
1,note_on,72,0,60
1,note_on,74,47,0
1,note_on,74,0,60
1,note_on,75,47,0
1,note_on,75,0,60
1,note_on,66,47,0
1,note_on,66,0,60
1,note_on,67,53,0
1,note_on,67,0,60
1,note_on,71,45,0
1,note_on,71,0,60
1,note_on,72,45,0
1,note_on,72,0,60
1,note_on,62,50,0
1,note_on,62,0,60
1,note_on,63,41,0
1,note_on,63,0,60
1,note_on,66,41,0
1,note_on,66,0,60
1,note_on,67,41,0
1,note_on,67,0,60
1,note_on,66,46,0
1,note_on,66,0,60
1,note_on,67,43,0
1,note_on,67,0,60
1,note_on,71,43,0
1,note_on,71,0,60
1,note_on,72,43,0
1,note_on,72,0,60
1,note_on,65,43,90
1,note_on,72,43,30
1,note_on,77,43,30
1,note_on,77,0,90
1,note_on,76,43,0
1,note_on,76,0,80
1,note_on,77,42,0
1,note_on,77,0,80
1,note_on,79,43,0
1,note_on,79,0,80
1,note_on,72,0,0
1,note_on,65,0,0
1,note_on,77,48,0
1,note_on,77,0,60
1,note_on,79,43,0
1,note_on,79,0,60
1,note_on,77,47,0
1,note_on,77,0,60
1,note_on,79,43,0
1,note_on,79,0,60
1,note_on,77,47,0
1,note_on,77,0,60
1,note_on,79,43,0
1,note_on,79,0,60
1,note_on,77,50,0
1,note_on,77,0,60
1,note_on,79,43,0
1,note_on,79,0,60
1,note_on,77,49,0
1,note_on,77,0,60
1,note_on,79,43,0
1,note_on,79,0,60
1,note_on,77,48,0
1,note_on,77,0,60
1,note_on,79,43,0
1,note_on,79,0,60
1,note_on,77,46,0
1,note_on,77,0,60
1,note_on,79,43,0
1,note_on,79,0,60
1,note_on,77,49,0
1,note_on,77,0,60
1,note_on,79,43,0
1,note_on,79,0,60
1,note_on,76,47,0
1,note_on,76,0,240
1,note_on,77,47,0
1,note_on,77,0,240
1,note_on,86,58,0
1,note_on,86,0,81
1,note_on,85,56,0
1,note_on,84,55,79
1,note_on,85,0,1
1,note_on,83,54,79
1,note_on,84,0,1
1,note_on,83,0,79
1,note_on,82,53,0
1,note_on,82,0,80
1,note_on,81,52,0
1,note_on,81,0,80
1,note_on,80,51,2
1,note_on,79,50,78
1,note_on,80,0,2
1,note_on,79,0,79
1,note_on,78,49,2
1,note_on,77,49,77
1,note_on,78,0,3
1,note_on,77,0,77
1,note_on,71,48,0
1,note_on,71,0,80
1,note_on,72,46,0
1,note_on,72,0,80
1,note_on,77,45,0
1,note_on,77,0,80
1,note_on,76,44,0
1,note_on,76,0,80
1,note_on,75,43,0
1,note_on,75,0,30
1,note_on,75,43,10
1,note_on,75,0,40
1,note_on,62,47,90
1,note_on,68,49,30
1,note_on,74,51,30
1,note_on,74,0,570
1,note_on,68,0,0
1,note_on,62,0,0
1,note_on,62,46,0
1,note_on,68,50,30
1,note_on,77,58,30
1,note_on,77,0,30
1,note_on,68,0,0
1,note_on,62,0,0
1,note_on,75,56,150
1,note_on,67,47,0
1,note_on,67,0,60
1,note_on,75,0,0
1,note_on,77,49,60
1,note_on,70,41,0
1,note_on,70,0,60
1,note_on,77,0,0
1,note_on,79,50,60
1,note_on,75,42,0
1,note_on,75,0,60
1,note_on,79,0,0
1,note_on,80,44,60
1,note_on,77,37,0
1,note_on,77,0,60
1,note_on,80,0,0
1,note_on,84,56,30
1,note_on,84,0,30
1,note_on,82,50,0
1,note_on,79,42,0
1,note_on,79,0,60
1,note_on,82,0,0
1,note_on,81,45,120
1,note_on,78,38,0
1,note_on,78,0,60
1,note_on,81,0,0
1,note_on,82,59,0
1,note_on,79,50,0
1,note_on,79,0,60
1,note_on,82,0,0
1,note_on,63,51,300
1,note_on,72,51,0
1,note_on,72,0,60
1,note_on,63,0,0
1,note_on,75,43,180
1,note_on,84,51,0
1,note_on,84,0,60
1,note_on,75,0,0
1,note_on,84,60,60
1,note_on,75,51,0
1,note_on,75,0,60
1,note_on,84,0,0
1,note_on,63,51,540
1,note_on,70,51,0
1,note_on,70,0,60
1,note_on,63,0,0
1,note_on,75,43,180
1,note_on,82,51,0
1,note_on,82,0,60
1,note_on,75,0,0
1,note_on,82,60,60
1,note_on,75,51,0
1,note_on,75,0,60
1,note_on,82,0,0
1,note_on,62,51,540
1,note_on,68,51,0
1,note_on,68,0,60
1,note_on,62,0,0
1,note_on,74,43,180
1,note_on,80,51,0
1,note_on,80,0,60
1,note_on,74,0,0
1,note_on,80,60,60
1,note_on,74,51,0
1,note_on,74,0,60
1,note_on,80,0,0
1,note_on,63,51,540
1,note_on,67,51,0
1,note_on,67,0,60
1,note_on,63,0,0
1,note_on,75,43,180
1,note_on,79,51,0
1,note_on,79,0,60
1,note_on,75,0,0
1,note_on,79,60,60
1,note_on,75,51,0
1,note_on,75,0,60
1,note_on,79,0,0
1,note_on,80,52,420
1,note_on,72,44,0
1,note_on,72,0,60
1,note_on,80,0,0
1,note_on,79,47,60
1,note_on,70,39,0
1,note_on,70,0,60
1,note_on,79,0,0
1,note_on,77,47,60
1,note_on,68,39,0
1,note_on,68,0,60
1,note_on,77,0,0
1,note_on,75,47,60
1,note_on,67,39,0
1,note_on,67,0,60
1,note_on,75,0,0
1,note_on,74,52,60
1,note_on,65,44,0
1,note_on,65,0,60
1,note_on,74,0,0
1,note_on,70,45,60
1,note_on,62,38,0
1,note_on,62,0,60
1,note_on,70,0,0
1,note_on,72,45,60
1,note_on,63,38,0
1,note_on,63,0,60
1,note_on,72,0,0
1,note_on,74,45,60
1,note_on,65,38,0
1,note_on,65,0,60
1,note_on,74,0,0
1,note_on,75,56,60
1,note_on,67,47,0
1,note_on,67,0,60
1,note_on,75,0,0
1,note_on,77,49,60
1,note_on,70,41,0
1,note_on,70,0,60
1,note_on,77,0,0
1,note_on,79,50,60
1,note_on,75,42,0
1,note_on,75,0,60
1,note_on,79,0,0
1,note_on,80,44,60
1,note_on,77,37,0
1,note_on,77,0,60
1,note_on,80,0,0
1,note_on,84,56,30
1,note_on,84,0,30
1,note_on,82,50,0
1,note_on,79,42,0
1,note_on,79,0,60
1,note_on,82,0,0
1,note_on,78,38,60
1,note_on,81,45,0
1,note_on,81,0,60
1,note_on,78,0,0
1,note_on,82,59,60
1,note_on,79,50,0
1,note_on,79,0,60
1,note_on,82,0,0
1,note_on,75,51,300
1,note_on,84,51,0
1,note_on,84,0,60
1,note_on,75,0,0
1,note_on,87,43,180
1,note_on,96,51,0
1,note_on,96,0,60
1,note_on,87,0,0
1,note_on,96,60,60
1,note_on,87,51,0
1,note_on,87,0,60
1,note_on,96,0,0
1,note_on,75,51,540
1,note_on,82,51,0
1,note_on,82,0,60
1,note_on,75,0,0
1,note_on,87,43,180
1,note_on,94,51,0
1,note_on,94,0,60
1,note_on,87,0,0
1,note_on,94,60,60
1,note_on,87,51,0
1,note_on,87,0,60
1,note_on,94,0,0
1,note_on,74,51,540
1,note_on,80,51,0
1,note_on,80,0,60
1,note_on,74,0,0
1,note_on,86,43,180
1,note_on,92,51,0
1,note_on,92,0,60
1,note_on,86,0,0
1,note_on,92,60,60
1,note_on,86,51,0
1,note_on,86,0,60
1,note_on,92,0,0
1,note_on,75,51,540
1,note_on,79,51,0
1,note_on,79,0,60
1,note_on,75,0,0
1,note_on,87,43,180
1,note_on,91,51,0
1,note_on,91,0,60
1,note_on,87,0,0
1,note_on,91,60,60
1,note_on,87,51,0
1,note_on,87,0,60
1,note_on,91,0,0
1,note_on,92,52,420
1,note_on,84,44,0
1,note_on,84,0,60
1,note_on,92,0,0
1,note_on,91,47,60
1,note_on,82,39,0
1,note_on,82,0,60
1,note_on,91,0,0
1,note_on,89,47,60
1,note_on,80,39,0
1,note_on,80,0,60
1,note_on,89,0,0
1,note_on,87,47,60
1,note_on,79,39,0
1,note_on,79,0,60
1,note_on,87,0,0
1,note_on,86,52,60
1,note_on,77,44,0
1,note_on,77,0,60
1,note_on,86,0,0
1,note_on,82,45,60
1,note_on,74,38,0
1,note_on,74,0,60
1,note_on,82,0,0
1,note_on,84,45,60
1,note_on,75,38,0
1,note_on,75,0,60
1,note_on,84,0,0
1,note_on,86,45,60
1,note_on,77,38,0
1,note_on,77,0,60
1,note_on,86,0,0
1,note_on,87,56,60
1,note_on,79,47,0
1,note_on,79,0,60
1,note_on,87,0,0
1,note_on,89,49,60
1,note_on,82,41,0
1,note_on,82,0,60
1,note_on,89,0,0
1,note_on,91,50,60
1,note_on,87,42,0
1,note_on,87,0,60
1,note_on,91,0,0
1,note_on,92,44,60
1,note_on,89,37,0
1,note_on,89,0,60
1,note_on,92,0,0
1,note_on,94,50,60
1,note_on,91,42,0
1,note_on,91,0,60
1,note_on,94,0,0
1,note_on,90,38,60
1,note_on,93,45,0
1,note_on,93,0,60
1,note_on,90,0,0
1,note_on,96,50,60
1,note_on,92,50,0
1,note_on,92,0,60
1,note_on,96,0,0
1,note_on,91,38,60
1,note_on,94,45,0
1,note_on,94,0,60
1,note_on,91,0,0
1,note_on,92,52,60
1,note_on,84,44,0
1,note_on,84,0,60
1,note_on,92,0,0
1,note_on,91,47,60
1,note_on,82,39,0
1,note_on,82,0,60
1,note_on,91,0,0
1,note_on,89,47,60
1,note_on,80,39,0
1,note_on,80,0,60
1,note_on,89,0,0
1,note_on,87,48,60
1,note_on,79,40,0
1,note_on,79,0,60
1,note_on,87,0,0
1,note_on,86,54,60
1,note_on,77,45,0
1,note_on,77,0,60
1,note_on,86,0,0
1,note_on,82,47,60
1,note_on,74,39,0
1,note_on,74,0,60
1,note_on,82,0,0
1,note_on,84,48,60
1,note_on,75,40,0
1,note_on,75,0,60
1,note_on,84,0,0
1,note_on,86,48,60
1,note_on,77,41,0
1,note_on,77,0,60
1,note_on,86,0,0
1,note_on,87,61,60
1,note_on,79,51,0
1,note_on,79,0,60
1,note_on,87,0,0
1,note_on,89,53,60
1,note_on,82,45,0
1,note_on,82,0,60
1,note_on,89,0,0
1,note_on,91,55,60
1,note_on,87,46,0
1,note_on,87,0,60
1,note_on,91,0,0
1,note_on,92,49,60
1,note_on,89,41,0
1,note_on,89,0,60
1,note_on,92,0,0
1,note_on,94,57,60
1,note_on,91,47,0
1,note_on,91,0,60
1,note_on,94,0,0
1,note_on,90,43,60
1,note_on,93,51,0
1,note_on,93,0,60
1,note_on,90,0,0
1,note_on,96,58,60
1,note_on,92,58,0
1,note_on,92,0,60
1,note_on,96,0,0
1,note_on,91,44,60
1,note_on,94,52,0
1,note_on,94,0,60
1,note_on,91,0,0
1,note_on,92,61,60
1,note_on,84,52,0
1,note_on,84,0,60
1,note_on,92,0,0
1,note_on,91,56,60
1,note_on,82,46,0
1,note_on,82,0,60
1,note_on,91,0,0
1,note_on,89,56,60
1,note_on,80,47,0
1,note_on,80,0,60
1,note_on,89,0,0
1,note_on,87,57,60
1,note_on,79,47,0
1,note_on,79,0,60
1,note_on,87,0,0
1,note_on,86,63,60
1,note_on,77,54,0
1,note_on,77,0,60
1,note_on,86,0,0
1,note_on,70,51,180
1,note_on,82,60,0
1,note_on,82,0,120
1,note_on,70,0,0
1,note_on,71,51,0
1,note_on,83,60,0
1,note_on,83,0,120
1,note_on,71,0,0
1,note_on,72,53,0
1,note_on,84,63,0
1,note_on,84,0,120
1,note_on,72,0,0
1,note_on,73,49,0
1,note_on,85,58,0
1,note_on,85,0,120
1,note_on,73,0,0
1,note_on,74,49,0
1,note_on,86,58,0
1,note_on,86,0,120
1,note_on,74,0,0
1,note_on,75,49,0
1,note_on,87,58,0
1,note_on,87,0,120
1,note_on,75,0,0
1,note_on,86,63,0
1,note_on,74,53,0
1,note_on,74,0,120
1,note_on,86,0,0
1,note_on,87,59,0
1,note_on,75,50,0
1,note_on,75,0,120
1,note_on,87,0,0
1,note_on,88,59,0
1,note_on,76,50,0
1,note_on,76,0,120
1,note_on,88,0,0
1,note_on,77,50,0
1,note_on,89,59,0
1,note_on,89,0,120
1,note_on,77,0,0
1,note_on,76,58,0
1,note_on,88,69,0
1,note_on,88,0,120
1,note_on,76,0,0
1,note_on,77,52,0
1,note_on,89,62,0
1,note_on,89,0,120
1,note_on,77,0,0
1,note_on,78,52,0
1,note_on,90,62,0
1,note_on,90,0,120
1,note_on,78,0,0
1,note_on,79,52,0
1,note_on,91,62,0
1,note_on,91,0,120
1,note_on,79,0,0
1,note_on,78,59,0
1,note_on,90,70,0
1,note_on,90,0,120
1,note_on,78,0,0
1,note_on,79,54,0
1,note_on,91,64,0
1,note_on,91,0,120
1,note_on,79,0,0
1,note_on,80,54,0
1,note_on,92,64,0
1,note_on,92,0,120
1,note_on,80,0,0
1,note_on,81,54,0
1,note_on,93,64,0
1,note_on,93,0,120
1,note_on,81,0,0
1,note_on,80,62,0
1,note_on,92,74,0
1,note_on,92,0,120
1,note_on,80,0,0
1,note_on,81,53,0
1,note_on,93,63,0
1,note_on,93,0,120
1,note_on,81,0,0
1,note_on,82,54,0
1,note_on,94,64,0
1,note_on,94,0,120
1,note_on,82,0,0
1,note_on,83,54,0
1,note_on,95,64,0
1,note_on,95,0,120
1,note_on,83,0,0
1,note_on,82,64,0
1,note_on,94,75,0
1,note_on,94,0,120
1,note_on,82,0,0
1,note_on,83,59,0
1,note_on,95,71,0
1,note_on,95,0,120
1,note_on,83,0,0
1,note_on,84,64,0
1,note_on,96,77,0
1,note_on,96,0,120
1,note_on,84,0,0
1,note_on,85,69,0
1,note_on,97,82,0
1,note_on,97,0,120
1,note_on,85,0,0
1,note_on,98,93,0
1,note_on,86,79,0
1,note_on,94,79,0
1,note_on,94,0,240
1,note_on,86,0,0
1,note_on,98,0,0
1,note_on,98,85,0
1,note_on,86,72,0
1,note_on,94,72,0
1,note_on,94,0,240
1,note_on,86,0,0
1,note_on,98,0,0
1,note_on,96,93,0
1,note_on,84,79,0
1,note_on,92,79,0
1,note_on,92,0,240
1,note_on,84,0,0
1,note_on,96,0,0
1,note_on,96,88,0
1,note_on,84,74,0
1,note_on,92,74,0
1,note_on,92,0,240
1,note_on,84,0,0
1,note_on,96,0,0
1,note_on,91,92,0
1,note_on,79,78,0
1,note_on,87,78,0
1,note_on,87,0,240
1,note_on,79,0,0
1,note_on,91,0,0
1,note_on,94,83,0
1,note_on,82,70,0
1,note_on,91,70,0
1,note_on,91,0,240
1,note_on,82,0,0
1,note_on,94,0,0
1,note_on,94,89,0
1,note_on,82,74,0
1,note_on,91,74,0
1,note_on,91,0,120
1,note_on,82,0,0
1,note_on,94,0,0
1,note_on,81,67,0
1,note_on,90,67,0
1,note_on,93,79,0
1,note_on,93,0,120
1,note_on,90,0,0
1,note_on,81,0,0
1,note_on,94,88,0
1,note_on,82,74,0
1,note_on,91,74,0
1,note_on,91,0,240
1,note_on,82,0,0
1,note_on,94,0,0
1,note_on,89,82,0
1,note_on,77,69,0
1,note_on,77,0,120
1,note_on,89,0,0
1,note_on,91,81,0
1,note_on,79,68,0
1,note_on,79,0,120
1,note_on,91,0,0
1,note_on,92,81,0
1,note_on,80,68,0
1,note_on,80,0,120
1,note_on,92,0,0
1,note_on,96,81,0
1,note_on,84,68,0
1,note_on,84,0,120
1,note_on,96,0,0
1,note_on,94,83,0
1,note_on,82,70,0
1,note_on,82,0,120
1,note_on,94,0,0
1,note_on,92,80,0
1,note_on,80,68,0
1,note_on,80,0,120
1,note_on,92,0,0
1,note_on,91,81,0
1,note_on,79,68,0
1,note_on,79,0,120
1,note_on,91,0,0
1,note_on,89,81,0
1,note_on,77,68,0
1,note_on,77,0,120
1,note_on,89,0,0
1,note_on,94,92,0
1,note_on,91,92,0
1,note_on,82,78,0
1,note_on,82,0,240
1,note_on,91,0,0
1,note_on,94,0,0
1,note_on,91,83,0
1,note_on,94,83,0
1,note_on,82,70,0
1,note_on,82,0,180
1,note_on,94,0,0
1,note_on,91,0,0
1,note_on,81,67,0
1,note_on,90,79,0
1,note_on,93,79,0
1,note_on,93,0,60
1,note_on,90,0,0
1,note_on,81,0,0
1,note_on,94,89,0
1,note_on,91,89,0
1,note_on,82,74,0
1,note_on,82,0,480
1,note_on,91,0,0
1,note_on,94,0,0
1,note_on,98,93,0
1,note_on,86,79,0
1,note_on,94,79,0
1,note_on,94,0,240
1,note_on,86,0,0
1,note_on,98,0,0
1,note_on,98,85,0
1,note_on,86,72,0
1,note_on,94,72,0
1,note_on,94,0,240
1,note_on,86,0,0
1,note_on,98,0,0
1,note_on,96,93,0
1,note_on,84,79,0
1,note_on,92,79,0
1,note_on,92,0,240
1,note_on,84,0,0
1,note_on,96,0,0
1,note_on,96,88,0
1,note_on,84,74,0
1,note_on,92,74,0
1,note_on,92,0,240
1,note_on,84,0,0
1,note_on,96,0,0
1,note_on,91,92,0
1,note_on,79,78,0
1,note_on,87,78,0
1,note_on,87,0,240
1,note_on,79,0,0
1,note_on,91,0,0
1,note_on,94,83,0
1,note_on,82,70,0
1,note_on,91,70,0
1,note_on,91,0,240
1,note_on,82,0,0
1,note_on,94,0,0
1,note_on,94,89,0
1,note_on,82,74,0
1,note_on,91,74,0
1,note_on,91,0,120
1,note_on,82,0,0
1,note_on,94,0,0
1,note_on,81,67,0
1,note_on,90,67,0
1,note_on,93,79,0
1,note_on,93,0,120
1,note_on,90,0,0
1,note_on,81,0,0
1,note_on,94,88,0
1,note_on,82,74,0
1,note_on,91,74,0
1,note_on,91,0,240
1,note_on,82,0,0
1,note_on,94,0,0
1,note_on,89,72,0
1,note_on,77,61,0
1,note_on,80,61,0
1,note_on,80,0,120
1,note_on,77,0,0
1,note_on,89,0,0
1,note_on,91,74,0
1,note_on,79,62,0
1,note_on,82,62,0
1,note_on,82,0,120
1,note_on,79,0,0
1,note_on,91,0,0
1,note_on,92,77,0
1,note_on,80,64,0
1,note_on,83,64,0
1,note_on,83,0,120
1,note_on,80,0,0
1,note_on,92,0,0
1,note_on,84,67,0
1,note_on,93,79,0
1,note_on,81,67,0
1,note_on,81,0,120
1,note_on,93,0,0
1,note_on,84,0,0
1,note_on,94,81,0
1,note_on,85,68,0
1,note_on,82,68,0
1,note_on,82,0,120
1,note_on,85,0,0
1,note_on,94,0,0
1,note_on,95,83,0
1,note_on,83,70,0
1,note_on,86,70,0
1,note_on,86,0,120
1,note_on,83,0,0
1,note_on,95,0,0
1,note_on,96,85,0
1,note_on,84,72,0
1,note_on,87,72,0
1,note_on,87,0,120
1,note_on,84,0,0
1,note_on,96,0,0
1,note_on,98,86,0
1,note_on,86,73,0
1,note_on,89,73,0
1,note_on,89,0,120
1,note_on,86,0,0
1,note_on,98,0,0
1,note_on,99,89,0
1,note_on,87,74,0
1,note_on,91,74,0
1,note_on,91,0,60
1,note_on,87,0,0
1,note_on,99,0,0
1,note_on,75,68,180
1,note_on,79,68,0
1,note_on,87,81,0
1,note_on,87,0,480
1,note_on,79,0,0
1,note_on,75,0,0
1,note_on,75,61,0
1,note_on,79,61,0
1,note_on,87,72,0
1,note_on,87,0,120
1,note_on,79,0,0
1,note_on,75,0,0
1,note_on,62,51,120
1,note_on,65,63,0
1,note_on,65,0,60
1,note_on,62,0,60
1,note_on,67,59,0
1,note_on,67,0,60
1,note_on,62,52,60
1,note_on,68,59,0
1,note_on,68,0,60
1,note_on,72,59,60
1,note_on,72,0,60
1,note_on,70,64,60
1,note_on,70,0,60
1,note_on,68,55,60
1,note_on,68,0,60
1,note_on,62,0,60
1,note_on,62,50,0
1,note_on,67,56,0
1,note_on,67,0,60
1,note_on,62,0,60
1,note_on,65,57,0
1,note_on,65,0,60
1,note_on,70,63,60
1,note_on,67,53,0
1,note_on,67,0,60
1,note_on,70,0,0
1,note_on,72,57,150
1,note_on,72,0,30
1,note_on,67,53,0
1,note_on,70,63,0
1,note_on,70,0,60
1,note_on,67,0,0
1,note_on,66,47,120
1,note_on,69,56,0
1,note_on,69,0,60
1,note_on,66,0,0
1,note_on,67,52,0
1,note_on,70,62,0
1,note_on,70,0,480
1,note_on,67,0,0
1,note_on,60,51,0
1,note_on,65,63,0
1,note_on,65,0,60
1,note_on,60,0,60
1,note_on,67,59,0
1,note_on,67,0,60
1,note_on,60,52,60
1,note_on,68,59,0
1,note_on,68,0,60
1,note_on,72,59,60
1,note_on,72,0,60
1,note_on,70,64,60
1,note_on,70,0,60
1,note_on,68,55,60
1,note_on,68,0,60
1,note_on,60,0,60
1,note_on,62,50,0
1,note_on,67,56,0
1,note_on,67,0,60
1,note_on,62,0,60
1,note_on,65,57,0
1,note_on,65,0,60
1,note_on,67,63,60
1,note_on,63,53,0
1,note_on,63,0,60
1,note_on,67,0,0
1,note_on,58,46,180
1,note_on,63,52,0
1,note_on,62,46,450
1,note_on,62,0,30
1,note_on,63,0,0
1,note_on,58,0,0
1,note_on,58,53,0
1,note_on,63,63,0
1,note_on,63,0,120
1,note_on,58,0,0
1,note_on,65,53,120
1,note_on,77,63,0
1,note_on,77,0,60
1,note_on,65,0,0
1,note_on,67,50,60
1,note_on,79,59,0
1,note_on,79,0,60
1,note_on,67,0,0
1,note_on,68,50,60
1,note_on,80,59,0
1,note_on,80,0,60
1,note_on,68,0,0
1,note_on,72,50,60
1,note_on,84,59,0
1,note_on,84,0,60
1,note_on,72,0,0
1,note_on,70,54,60
1,note_on,82,64,0
1,note_on,82,0,60
1,note_on,70,0,0
1,note_on,68,46,60
1,note_on,80,55,0
1,note_on,80,0,60
1,note_on,68,0,0
1,note_on,67,47,60
1,note_on,79,56,0
1,note_on,79,0,60
1,note_on,67,0,0
1,note_on,65,48,60
1,note_on,77,57,0
1,note_on,77,0,60
1,note_on,65,0,0
1,note_on,82,63,60
1,note_on,70,53,0
1,note_on,70,0,60
1,note_on,82,0,0
1,note_on,84,57,150
1,note_on,84,0,30
1,note_on,70,53,0
1,note_on,82,63,0
1,note_on,82,0,60
1,note_on,70,0,0
1,note_on,69,47,120
1,note_on,81,56,0
1,note_on,81,0,60
1,note_on,69,0,0
1,note_on,70,52,0
1,note_on,82,62,0
1,note_on,82,0,480
1,note_on,70,0,0
1,note_on,65,53,0
1,note_on,77,63,0
1,note_on,77,0,60
1,note_on,65,0,0
1,note_on,67,50,60
1,note_on,79,59,0
1,note_on,79,0,60
1,note_on,67,0,0
1,note_on,68,50,60
1,note_on,80,59,0
1,note_on,80,0,60
1,note_on,68,0,0
1,note_on,72,50,60
1,note_on,84,59,0
1,note_on,84,0,60
1,note_on,72,0,0
1,note_on,70,54,60
1,note_on,82,64,0
1,note_on,82,0,60
1,note_on,70,0,0
1,note_on,68,46,60
1,note_on,80,55,0
1,note_on,80,0,60
1,note_on,68,0,0
1,note_on,67,47,60
1,note_on,79,56,0
1,note_on,79,0,60
1,note_on,67,0,0
1,note_on,65,48,60
1,note_on,77,57,0
1,note_on,77,0,60
1,note_on,65,0,0
1,note_on,79,63,60
1,note_on,67,53,0
1,note_on,67,0,60
1,note_on,79,0,0
1,note_on,63,46,180
1,note_on,75,52,0
1,note_on,74,46,450
1,note_on,74,0,30
1,note_on,75,0,0
1,note_on,63,0,0
1,note_on,63,53,0
1,note_on,75,63,0
1,note_on,75,0,120
1,note_on,63,0,0
1,note_on,66,36,90
1,note_on,66,0,30
1,note_on,67,50,0
1,note_on,59,42,0
1,note_on,59,0,60
1,note_on,67,0,0
1,note_on,60,36,180
1,note_on,63,41,0
1,note_on,62,36,450
1,note_on,62,0,30
1,note_on,63,0,0
1,note_on,60,0,0
1,note_on,59,42,0
1,note_on,63,50,0
1,note_on,63,0,120
1,note_on,59,0,0
1,note_on,91,50,120
1,note_on,79,42,0
1,note_on,79,0,60
1,note_on,91,0,0
1,note_on,75,36,180
1,note_on,87,41,0
1,note_on,86,36,450
1,note_on,86,0,30
1,note_on,87,0,0
1,note_on,75,0,0
1,note_on,75,42,0
1,note_on,87,50,0
1,note_on,87,0,120
1,note_on,75,0,0
1,note_on,66,36,90
1,note_on,66,0,30
1,note_on,67,50,0
1,note_on,59,42,0
1,note_on,59,0,60
1,note_on,67,0,0
1,note_on,60,36,180
1,note_on,63,41,0
1,note_on,62,36,450
1,note_on,62,0,30
1,note_on,63,0,0
1,note_on,60,0,0
1,note_on,59,42,0
1,note_on,63,50,0
1,note_on,63,0,120
1,note_on,59,0,0
1,note_on,55,42,120
1,note_on,67,50,0
1,note_on,58,42,0
1,note_on,58,0,60
1,note_on,67,0,0
1,note_on,55,0,0
1,note_on,55,36,180
1,note_on,60,36,0
1,note_on,63,41,0
1,note_on,62,36,450
1,note_on,62,0,30
1,note_on,55,0,0
1,note_on,60,0,0
1,note_on,63,0,0
1,note_on,56,42,0
1,note_on,59,42,0
1,note_on,63,50,0
1,note_on,63,0,120
1,note_on,59,0,0
1,note_on,56,0,0
1,note_on,55,42,120
1,note_on,67,50,0
1,note_on,58,42,0
1,note_on,58,0,60
1,note_on,67,0,0
1,note_on,55,0,0
1,note_on,55,36,180
1,note_on,60,36,0
1,note_on,63,41,0
1,note_on,62,36,450
1,note_on,62,0,30
1,note_on,55,0,0
1,note_on,60,0,0
1,note_on,63,0,0
1,note_on,56,42,0
1,note_on,59,42,0
1,note_on,63,50,0
1,note_on,63,0,120
1,note_on,59,0,0
1,note_on,56,0,0
1,note_on,55,39,120
1,note_on,67,46,0
1,note_on,58,39,0
1,note_on,58,0,480
1,note_on,67,0,0
1,note_on,55,0,0
1,note_on,55,33,0
1,note_on,60,33,0
1,note_on,63,39,0
1,note_on,63,0,480
1,note_on,60,0,0
1,note_on,55,0,0
1,note_on,62,36,450
1,note_on,62,0,30
1,note_on,56,33,0
1,note_on,59,33,0
1,note_on,63,39,0
1,note_on,63,0,420
1,note_on,59,0,0
1,note_on,56,0,0
1,note_on,55,37,0
1,note_on,63,39,30
1,note_on,70,40,30
1,note_on,70,0,960
1,note_on,63,0,0
1,note_on,55,0,0
1,note_on,63,28,360
1,note_on,63,0,120
1,note_on,67,28,0
1,note_on,67,0,120
1,note_on,68,27,0
1,note_on,68,0,120
1,note_on,69,26,0
1,note_on,69,0,120
1,note_on,70,25,0
1,note_on,70,0,120
1,note_on,75,27,0
1,note_on,75,0,120
1,note_on,79,27,0
1,note_on,79,0,120
1,note_on,80,27,0
1,note_on,80,0,120
1,note_on,81,27,0
1,note_on,81,0,120
1,note_on,82,27,0
1,note_on,82,0,120
1,note_on,87,27,0
1,note_on,87,0,120
1,note_on,91,27,0
1,note_on,91,0,120
1,note_on,92,27,0
1,note_on,92,0,120
1,note_on,93,27,0
1,note_on,93,0,120
1,note_on,94,27,0
1,note_on,94,0,120
1,note_on,99,33,0
1,note_on,99,0,120
1,note_on,70,81,1560
1,note_on,82,96,0
1,note_on,82,0,360
1,note_on,70,0,0
1,note_on,70,77,120
1,note_on,82,91,0
1,note_on,82,0,90
1,note_on,70,0,0
1,note_on,70,77,150
1,note_on,82,91,0
1,note_on,82,0,90
1,note_on,70,0,0
1,note_on,75,85,150
1,note_on,87,101,0
1,note_on,87,0,720
1,note_on,75,0,0
1,note_on,75,74,0
1,note_on,87,89,0
1,note_on,87,0,90
1,note_on,75,0,0
1,note_on,73,79,150
1,note_on,85,93,0
1,note_on,85,0,90
1,note_on,73,0,0
1,note_on,71,79,150
1,note_on,83,93,0
1,note_on,83,0,90
1,note_on,71,0,0
1,note_on,70,78,150
1,note_on,82,92,0
1,note_on,82,0,90
1,note_on,70,0,0
1,note_on,68,81,150
1,note_on,80,96,0
1,note_on,80,0,90
1,note_on,68,0,0
1,note_on,70,80,150
1,note_on,82,94,0
1,note_on,82,0,90
1,note_on,70,0,0
1,note_on,63,75,150
1,note_on,75,90,0
1,note_on,75,0,90
1,note_on,63,0,0
1,note_on,63,75,150
1,note_on,75,90,0
1,note_on,75,0,480
1,note_on,63,0,0
1,note_on,67,57,0
1,note_on,70,68,0
1,note_on,70,0,360
1,note_on,67,0,0
1,note_on,67,54,120
1,note_on,70,64,0
1,note_on,70,0,90
1,note_on,67,0,0
1,note_on,70,64,150
1,note_on,67,54,0
1,note_on,67,0,90
1,note_on,70,0,0
1,note_on,66,60,150
1,note_on,75,71,0
1,note_on,75,0,720
1,note_on,66,0,0
1,note_on,75,62,0
1,note_on,66,52,0
1,note_on,66,0,90
1,note_on,75,0,0
1,note_on,67,56,150
1,note_on,73,66,0
1,note_on,73,0,90
1,note_on,67,0,150
1,note_on,70,66,0
1,note_on,70,0,90
1,note_on,63,55,150
1,note_on,71,65,0
1,note_on,71,0,90
1,note_on,63,0,150
1,note_on,68,68,0
1,note_on,68,0,90
1,note_on,63,56,150
1,note_on,70,67,0
1,note_on,70,0,90
1,note_on,63,0,148
1,note_on,63,63,2
1,note_on,63,0,90
1,note_on,67,57,630
1,note_on,70,68,0
1,note_on,70,0,360
1,note_on,67,0,0
1,note_on,67,54,120
1,note_on,70,64,0
1,note_on,70,0,90
1,note_on,67,0,0
1,note_on,70,64,150
1,note_on,67,54,0
1,note_on,67,0,90
1,note_on,70,0,0
1,note_on,66,60,150
1,note_on,75,71,0
1,note_on,67,60,473
1,note_on,66,0,7
1,note_on,67,0,233
1,note_on,75,0,7
1,note_on,75,62,0
1,note_on,68,52,0
1,note_on,68,0,90
1,note_on,75,0,0
1,note_on,64,56,150
1,note_on,68,56,0
1,note_on,73,66,0
1,note_on,73,0,90
1,note_on,68,0,150
1,note_on,64,0,0
1,note_on,71,66,0
1,note_on,71,0,90
1,note_on,61,55,150
1,note_on,67,55,0
1,note_on,70,65,0
1,note_on,70,0,90
1,note_on,67,0,150
1,note_on,61,0,0
1,note_on,63,68,0
1,note_on,63,0,90
1,note_on,63,58,150
1,note_on,68,70,0
1,note_on,68,0,90
1,note_on,63,0,0
1,note_on,63,66,150
1,note_on,63,0,90
1,note_on,63,60,150
1,note_on,68,70,0
1,note_on,68,0,360
1,note_on,63,0,0
1,note_on,70,81,120
1,note_on,82,96,0
1,note_on,82,0,360
1,note_on,70,0,0
1,note_on,70,77,120
1,note_on,82,91,0
1,note_on,82,0,90
1,note_on,70,0,0
1,note_on,70,77,150
1,note_on,82,91,0
1,note_on,82,0,90
1,note_on,70,0,0
1,note_on,75,85,150
1,note_on,87,101,0
1,note_on,87,0,720
1,note_on,75,0,0
1,note_on,75,74,0
1,note_on,87,89,0
1,note_on,87,0,90
1,note_on,75,0,0
1,note_on,73,79,150
1,note_on,85,93,0
1,note_on,85,0,90
1,note_on,73,0,0
1,note_on,71,79,150
1,note_on,83,93,0
1,note_on,83,0,90
1,note_on,71,0,0
1,note_on,70,78,150
1,note_on,82,92,0
1,note_on,82,0,90
1,note_on,70,0,0
1,note_on,68,81,150
1,note_on,80,96,0
1,note_on,80,0,90
1,note_on,68,0,0
1,note_on,70,80,150
1,note_on,82,94,0
1,note_on,82,0,90
1,note_on,70,0,0
1,note_on,63,75,150
1,note_on,75,90,0
1,note_on,75,0,90
1,note_on,63,0,0
1,note_on,63,75,150
1,note_on,75,90,0
1,note_on,75,0,480
1,note_on,63,0,0
1,note_on,67,57,0
1,note_on,70,68,0
1,note_on,70,0,360
1,note_on,67,0,0
1,note_on,67,54,120
1,note_on,70,64,0
1,note_on,70,0,90
1,note_on,67,0,0
1,note_on,70,64,150
1,note_on,67,54,0
1,note_on,67,0,90
1,note_on,70,0,0
1,note_on,66,60,150
1,note_on,75,71,0
1,note_on,75,0,720
1,note_on,66,0,0
1,note_on,75,62,0
1,note_on,66,52,0
1,note_on,66,0,90
1,note_on,75,0,0
1,note_on,67,56,150
1,note_on,73,66,0
1,note_on,73,0,90
1,note_on,67,0,150
1,note_on,70,66,0
1,note_on,70,0,90
1,note_on,63,55,150
1,note_on,71,65,0
1,note_on,71,0,90
1,note_on,63,0,150
1,note_on,68,68,0
1,note_on,68,0,90
1,note_on,63,56,150
1,note_on,70,67,0
1,note_on,70,0,90
1,note_on,63,0,148
1,note_on,63,63,2
1,note_on,63,0,90
1,note_on,67,57,630
1,note_on,70,68,0
1,note_on,70,0,360
1,note_on,67,0,0
1,note_on,67,54,120
1,note_on,70,64,0
1,note_on,70,0,90
1,note_on,67,0,0
1,note_on,70,64,150
1,note_on,67,54,0
1,note_on,67,0,90
1,note_on,70,0,0
1,note_on,66,60,150
1,note_on,75,71,0
1,note_on,67,60,473
1,note_on,66,0,7
1,note_on,67,0,233
1,note_on,75,0,7
1,note_on,75,62,0
1,note_on,68,52,0
1,note_on,68,0,90
1,note_on,75,0,0
1,note_on,64,56,150
1,note_on,68,56,0
1,note_on,73,66,0
1,note_on,73,0,90
1,note_on,68,0,150
1,note_on,64,0,0
1,note_on,71,66,0
1,note_on,71,0,90
1,note_on,61,55,150
1,note_on,67,55,0
1,note_on,70,65,0
1,note_on,70,0,90
1,note_on,67,0,150
1,note_on,61,0,0
1,note_on,63,68,0
1,note_on,63,0,90
1,note_on,63,58,150
1,note_on,68,70,0
1,note_on,68,0,90
1,note_on,63,0,148
1,note_on,63,66,2
1,note_on,63,0,90
1,note_on,63,60,150
1,note_on,68,70,0
1,note_on,68,0,360
1,note_on,63,0,0
1,note_on,63,55,120
1,note_on,63,0,120
1,note_on,65,49,120
1,note_on,65,0,120
1,note_on,67,48,120
1,note_on,67,0,120
1,note_on,68,47,120
1,note_on,68,0,120
1,note_on,61,51,120
1,note_on,63,51,0
1,note_on,70,60,0
1,note_on,70,0,240
1,note_on,63,0,0
1,note_on,61,0,0
1,note_on,61,44,240
1,note_on,70,52,0
1,note_on,70,0,120
1,note_on,61,0,0
1,note_on,63,44,120
1,note_on,72,52,0
1,note_on,72,0,120
1,note_on,63,0,0
1,note_on,60,49,120
1,note_on,63,49,0
1,note_on,68,58,0
1,note_on,68,0,240
1,note_on,63,0,0
1,note_on,60,0,0
1,note_on,61,51,720
1,note_on,63,51,0
1,note_on,70,60,0
1,note_on,70,0,240
1,note_on,63,0,0
1,note_on,61,0,0
1,note_on,61,44,240
1,note_on,70,52,0
1,note_on,70,0,120
1,note_on,61,0,0
1,note_on,63,44,120
1,note_on,72,52,0
1,note_on,72,0,120
1,note_on,63,0,0
1,note_on,60,49,120
1,note_on,63,49,0
1,note_on,68,58,0
1,note_on,68,0,240
1,note_on,63,0,0
1,note_on,60,0,0
1,note_on,63,51,720
1,note_on,67,51,0
1,note_on,70,60,0
1,note_on,70,0,480
1,note_on,67,0,0
1,note_on,63,0,0
1,note_on,67,44,0
1,note_on,63,44,0
1,note_on,70,52,0
1,note_on,70,0,120
1,note_on,63,0,0
1,note_on,67,0,0
1,note_on,67,44,120
1,note_on,63,44,0
1,note_on,70,52,0
1,note_on,70,0,120
1,note_on,63,0,0
1,note_on,67,0,0
1,note_on,63,51,120
1,note_on,66,51,0
1,note_on,75,60,0
1,note_on,75,0,480
1,note_on,66,0,0
1,note_on,63,0,0
1,note_on,71,44,0
1,note_on,63,44,0
1,note_on,75,52,0
1,note_on,75,0,120
1,note_on,63,0,0
1,note_on,71,0,0
1,note_on,71,44,120
1,note_on,63,44,0
1,note_on,75,52,0
1,note_on,75,0,120
1,note_on,63,0,0
1,note_on,71,0,0
1,note_on,64,50,120
1,note_on,73,59,0
1,note_on,73,0,120
1,note_on,64,0,0
1,note_on,63,43,120
1,note_on,71,51,0
1,note_on,71,0,120
1,note_on,63,0,0
1,note_on,61,43,120
1,note_on,70,51,0
1,note_on,70,0,120
1,note_on,61,0,0
1,note_on,59,43,120
1,note_on,68,51,0
1,note_on,68,0,120
1,note_on,59,0,0
1,note_on,58,51,120
1,note_on,63,51,0
1,note_on,70,60,0
1,note_on,70,0,480
1,note_on,63,0,0
1,note_on,58,0,0
1,note_on,63,44,0
1,note_on,58,44,0
1,note_on,70,52,0
1,note_on,70,0,120
1,note_on,58,0,0
1,note_on,63,0,0
1,note_on,63,44,120
1,note_on,58,44,0
1,note_on,70,52,0
1,note_on,70,0,120
1,note_on,58,0,0
1,note_on,63,0,0
1,note_on,55,50,120
1,note_on,61,50,0
1,note_on,63,59,0
1,note_on,63,0,120
1,note_on,61,0,0
1,note_on,55,0,0
1,note_on,56,43,120
1,note_on,65,51,0
1,note_on,65,0,120
1,note_on,56,0,0
1,note_on,58,43,120
1,note_on,61,43,0
1,note_on,67,51,0
1,note_on,67,0,120
1,note_on,61,0,0
1,note_on,58,0,0
1,note_on,55,43,120
1,note_on,63,51,0
1,note_on,63,0,120
1,note_on,55,0,0
1,note_on,56,51,120
1,note_on,60,51,0
1,note_on,68,60,0
1,note_on,68,0,240
1,note_on,60,0,0
1,note_on,56,0,0
1,note_on,63,52,720
1,note_on,75,63,0
1,note_on,75,0,120
1,note_on,63,0,0
1,note_on,65,47,120
1,note_on,77,56,0
1,note_on,77,0,120
1,note_on,65,0,0
1,note_on,67,46,120
1,note_on,79,55,0
1,note_on,79,0,120
1,note_on,67,0,0
1,note_on,68,44,120
1,note_on,80,54,0
1,note_on,80,0,120
1,note_on,68,0,0
1,note_on,70,58,120
1,note_on,73,58,0
1,note_on,82,69,0
1,note_on,82,0,240
1,note_on,73,0,0
1,note_on,70,0,0
1,note_on,70,50,240
1,note_on,73,50,0
1,note_on,82,59,0
1,note_on,82,0,120
1,note_on,73,0,0
1,note_on,70,0,0
1,note_on,72,50,120
1,note_on,75,50,0
1,note_on,84,59,0
1,note_on,84,0,120
1,note_on,75,0,0
1,note_on,72,0,0
1,note_on,68,56,120
1,note_on,72,56,0
1,note_on,80,66,0
1,note_on,80,0,240
1,note_on,72,0,0
1,note_on,68,0,0
1,note_on,70,58,720
1,note_on,73,58,0
1,note_on,82,69,0
1,note_on,82,0,240
1,note_on,73,0,0
1,note_on,70,0,0
1,note_on,70,50,240
1,note_on,73,50,0
1,note_on,82,59,0
1,note_on,82,0,120
1,note_on,73,0,0
1,note_on,70,0,0
1,note_on,72,50,120
1,note_on,75,50,0
1,note_on,84,59,0
1,note_on,84,0,120
1,note_on,75,0,0
1,note_on,72,0,0
1,note_on,68,56,120
1,note_on,72,56,0
1,note_on,80,66,0
1,note_on,80,0,240
1,note_on,72,0,0
1,note_on,68,0,0
1,note_on,70,58,720
1,note_on,75,58,0
1,note_on,79,58,0
1,note_on,82,69,0
1,note_on,82,0,480
1,note_on,70,0,0
1,note_on,75,0,0
1,note_on,79,0,0
1,note_on,70,50,0
1,note_on,79,50,0
1,note_on,75,50,0
1,note_on,82,59,0
1,note_on,82,0,120
1,note_on,70,0,0
1,note_on,79,0,0
1,note_on,75,0,0
1,note_on,70,50,120
1,note_on,79,50,0
1,note_on,75,50,0
1,note_on,82,59,0
1,note_on,82,0,120
1,note_on,70,0,0
1,note_on,79,0,0
1,note_on,75,0,0
1,note_on,75,58,120
1,note_on,78,58,0
1,note_on,87,69,0
1,note_on,87,0,480
1,note_on,78,0,0
1,note_on,75,0,0
1,note_on,83,50,0
1,note_on,75,50,0
1,note_on,87,59,0
1,note_on,87,0,120
1,note_on,75,0,0
1,note_on,83,0,0
1,note_on,83,50,120
1,note_on,75,50,0
1,note_on,87,59,0
1,note_on,87,0,120
1,note_on,75,0,0
1,note_on,83,0,0
1,note_on,73,57,120
1,note_on,76,57,0
1,note_on,85,67,0
1,note_on,85,0,120
1,note_on,76,0,0
1,note_on,73,0,0
1,note_on,71,49,120
1,note_on,75,49,0
1,note_on,83,58,0
1,note_on,83,0,120
1,note_on,75,0,0
1,note_on,71,0,0
1,note_on,70,49,120
1,note_on,73,49,0
1,note_on,82,58,0
1,note_on,82,0,120
1,note_on,73,0,0
1,note_on,70,0,0
1,note_on,68,49,120
1,note_on,71,49,0
1,note_on,80,58,0
1,note_on,80,0,120
1,note_on,71,0,0
1,note_on,68,0,0
1,note_on,70,58,120
1,note_on,75,58,0
1,note_on,82,69,0
1,note_on,82,0,480
1,note_on,75,0,0
1,note_on,70,0,0
1,note_on,75,50,0
1,note_on,70,50,0
1,note_on,82,59,0
1,note_on,82,0,120
1,note_on,70,0,0
1,note_on,75,0,0
1,note_on,75,50,120
1,note_on,70,50,0
1,note_on,82,59,0
1,note_on,82,0,120
1,note_on,70,0,0
1,note_on,75,0,0
1,note_on,67,57,120
1,note_on,73,57,0
1,note_on,75,67,0
1,note_on,75,0,120
1,note_on,73,0,0
1,note_on,67,0,0
1,note_on,68,49,120
1,note_on,77,58,0
1,note_on,77,0,120
1,note_on,68,0,0
1,note_on,70,49,120
1,note_on,73,49,0
1,note_on,79,58,0
1,note_on,79,0,120
1,note_on,73,0,0
1,note_on,70,0,0
1,note_on,67,49,120
1,note_on,75,58,0
1,note_on,75,0,120
1,note_on,67,0,0
1,note_on,68,58,120
1,note_on,75,58,0
1,note_on,80,69,0
1,note_on,80,0,240
1,note_on,75,0,0
1,note_on,68,0,0
1,note_on,70,66,720
1,note_on,75,66,0
1,note_on,79,66,0
1,note_on,82,79,0
1,note_on,82,0,480
1,note_on,70,0,0
1,note_on,75,0,0
1,note_on,79,0,0
1,note_on,70,57,0
1,note_on,79,57,0
1,note_on,75,57,0
1,note_on,82,67,0
1,note_on,82,0,120
1,note_on,70,0,0
1,note_on,79,0,0
1,note_on,75,0,0
1,note_on,70,57,120
1,note_on,79,57,0
1,note_on,75,57,0
1,note_on,82,67,0
1,note_on,82,0,120
1,note_on,70,0,0
1,note_on,79,0,0
1,note_on,75,0,0
1,note_on,75,66,120
1,note_on,78,66,0
1,note_on,87,79,0
1,note_on,87,0,480
1,note_on,78,0,0
1,note_on,75,0,0
1,note_on,78,57,0
1,note_on,75,57,0
1,note_on,87,67,0
1,note_on,87,0,120
1,note_on,75,0,0
1,note_on,78,0,0
1,note_on,78,57,120
1,note_on,75,57,0
1,note_on,87,67,0
1,note_on,87,0,120
1,note_on,75,0,0
1,note_on,78,0,0
1,note_on,73,65,120
1,note_on,76,65,0
1,note_on,85,77,0
1,note_on,85,0,120
1,note_on,76,0,0
1,note_on,73,0,0
1,note_on,71,56,120
1,note_on,75,56,0
1,note_on,83,66,0
1,note_on,83,0,120
1,note_on,75,0,0
1,note_on,71,0,0
1,note_on,70,56,120
1,note_on,73,56,0
1,note_on,82,66,0
1,note_on,82,0,120
1,note_on,73,0,0
1,note_on,70,0,0
1,note_on,68,56,120
1,note_on,71,56,0
1,note_on,80,66,0
1,note_on,80,0,120
1,note_on,71,0,0
1,note_on,68,0,0
1,note_on,70,66,120
1,note_on,75,66,0
1,note_on,82,79,0
1,note_on,82,0,480
1,note_on,75,0,0
1,note_on,70,0,0
1,note_on,75,57,0
1,note_on,70,57,0
1,note_on,82,67,0
1,note_on,82,0,120
1,note_on,70,0,0
1,note_on,75,0,0
1,note_on,75,57,120
1,note_on,70,57,0
1,note_on,82,67,0
1,note_on,82,0,120
1,note_on,70,0,0
1,note_on,75,0,0
1,note_on,67,65,120
1,note_on,73,65,0
1,note_on,75,77,0
1,note_on,75,0,120
1,note_on,73,0,0
1,note_on,67,0,0
1,note_on,68,56,120
1,note_on,77,66,0
1,note_on,77,0,120
1,note_on,68,0,0
1,note_on,70,56,120
1,note_on,73,56,0
1,note_on,79,66,0
1,note_on,79,0,120
1,note_on,73,0,0
1,note_on,70,0,0
1,note_on,67,56,120
1,note_on,75,66,0
1,note_on,75,0,120
1,note_on,67,0,0
1,note_on,68,66,120
1,note_on,75,66,0
1,note_on,80,79,0
1,note_on,80,0,240
1,note_on,75,0,0
1,note_on,68,0,0
1,note_on,71,35,720
1,note_on,81,50,0
1,note_on,81,0,360
1,note_on,83,36,0
1,note_on,83,0,60
1,note_on,81,36,0
1,note_on,81,0,60
1,note_on,80,50,0
1,note_on,80,0,240
1,note_on,78,41,0
1,note_on,78,0,240
1,note_on,71,0,0
1,note_on,71,29,0
1,note_on,83,43,0
1,note_on,83,0,240
1,note_on,75,45,0
1,note_on,75,0,180
1,note_on,78,35,0
1,note_on,78,0,60
1,note_on,76,43,0
1,note_on,76,0,480
1,note_on,71,0,0
1,note_on,71,35,0
1,note_on,81,50,0
1,note_on,81,0,360
1,note_on,83,36,0
1,note_on,83,0,60
1,note_on,81,36,0
1,note_on,81,0,60
1,note_on,80,50,0
1,note_on,80,0,240
1,note_on,78,41,0
1,note_on,78,0,240
1,note_on,71,0,0
1,note_on,71,29,0
1,note_on,83,44,0
1,note_on,83,0,240
1,note_on,75,45,0
1,note_on,75,0,180
1,note_on,78,35,0
1,note_on,78,0,60
1,note_on,76,43,0
1,note_on,76,0,480
1,note_on,71,0,0
1,note_on,54,36,120
1,note_on,54,0,120
1,note_on,58,41,0
1,note_on,58,0,120
1,note_on,66,36,0
1,note_on,64,28,0
1,note_on,64,0,120
1,note_on,66,0,0
1,note_on,54,24,120
1,note_on,54,0,120
1,note_on,59,27,0
1,note_on,59,0,120
1,note_on,66,24,0
1,note_on,63,19,0
1,note_on,63,0,120
1,note_on,66,0,0
1,note_on,71,35,0
1,note_on,81,50,0
1,note_on,81,0,360
1,note_on,83,36,0
1,note_on,83,0,60
1,note_on,81,36,0
1,note_on,81,0,60
1,note_on,80,50,0
1,note_on,80,0,240
1,note_on,78,41,0
1,note_on,78,0,240
1,note_on,71,0,0
1,note_on,71,29,0
1,note_on,83,43,0
1,note_on,83,0,240
1,note_on,75,45,0
1,note_on,75,0,180
1,note_on,78,35,0
1,note_on,78,0,60
1,note_on,76,43,0
1,note_on,76,0,480
1,note_on,71,0,0
1,note_on,71,35,0
1,note_on,81,50,0
1,note_on,81,0,360
1,note_on,83,36,0
1,note_on,83,0,60
1,note_on,81,36,0
1,note_on,81,0,60
1,note_on,80,50,0
1,note_on,80,0,240
1,note_on,78,41,0
1,note_on,78,0,240
1,note_on,71,0,0
1,note_on,71,29,0
1,note_on,83,44,0
1,note_on,83,0,240
1,note_on,75,45,0
1,note_on,75,0,180
1,note_on,78,35,0
1,note_on,78,0,60
1,note_on,76,43,0
1,note_on,76,0,480
1,note_on,71,0,0
1,note_on,54,36,120
1,note_on,54,0,120
1,note_on,58,41,0
1,note_on,58,0,120
1,note_on,66,36,0
1,note_on,64,28,0
1,note_on,64,0,120
1,note_on,66,0,0
1,note_on,54,24,120
1,note_on,54,0,120
1,note_on,59,27,0
1,note_on,59,0,120
1,note_on,66,24,0
1,note_on,63,19,0
1,note_on,63,0,120
1,note_on,66,0,0
1,note_on,71,35,0
1,note_on,78,50,0
1,note_on,78,0,360
1,note_on,80,36,0
1,note_on,80,0,60
1,note_on,78,36,0
1,note_on,78,0,60
1,note_on,77,50,0
1,note_on,77,0,240
1,note_on,78,41,0
1,note_on,78,0,180
1,note_on,81,35,0
1,note_on,81,0,60
1,note_on,71,0,0
1,note_on,71,29,0
1,note_on,80,43,0
1,note_on,80,0,420
1,note_on,80,35,0
1,note_on,80,0,60
1,note_on,71,0,0
1,note_on,71,29,0
1,note_on,78,43,0
1,note_on,78,0,480
1,note_on,71,0,0
1,note_on,54,36,120
1,note_on,54,0,120
1,note_on,58,41,0
1,note_on,58,0,120
1,note_on,66,36,0
1,note_on,64,28,0
1,note_on,64,0,120
1,note_on,66,0,0
1,note_on,54,24,120
1,note_on,54,0,120
1,note_on,59,27,0
1,note_on,59,0,120
1,note_on,66,24,0
1,note_on,63,19,0
1,note_on,63,0,60
1,note_on,66,0,0
1,note_on,81,37,0
1,note_on,81,0,60
1,note_on,80,50,0
1,note_on,80,0,120
1,note_on,80,37,60
1,note_on,80,0,60
1,note_on,78,50,0
1,note_on,78,0,120
1,note_on,78,37,60
1,note_on,78,0,60
1,note_on,77,50,0
1,note_on,77,0,120
1,note_on,77,37,60
1,note_on,77,0,60
1,note_on,74,50,0
1,note_on,74,0,120
1,note_on,73,50,120
1,note_on,73,0,120
1,note_on,85,50,120
1,note_on,85,0,120
1,note_on,85,50,120
1,note_on,85,0,120
1,note_on,97,50,120
1,note_on,97,0,120
1,note_on,54,32,240
1,note_on,54,0,120
1,note_on,58,36,0
1,note_on,58,0,120
1,note_on,66,32,0
1,note_on,64,25,0
1,note_on,64,0,120
1,note_on,66,0,0
1,note_on,54,21,120
1,note_on,54,0,120
1,note_on,59,24,0
1,note_on,59,0,120
1,note_on,66,21,0
1,note_on,63,17,0
1,note_on,63,0,120
1,note_on,66,0,0
1,note_on,71,35,0
1,note_on,78,50,0
1,note_on,78,0,360
1,note_on,80,36,0
1,note_on,80,0,60
1,note_on,78,36,0
1,note_on,78,0,60
1,note_on,77,50,0
1,note_on,77,0,240
1,note_on,78,41,0
1,note_on,78,0,180
1,note_on,81,35,0
1,note_on,81,0,60
1,note_on,71,0,0
1,note_on,71,29,0
1,note_on,80,43,0
1,note_on,80,0,420
1,note_on,80,35,0
1,note_on,80,0,60
1,note_on,71,0,0
1,note_on,71,29,0
1,note_on,78,43,0
1,note_on,78,0,480
1,note_on,71,0,0
1,note_on,54,32,120
1,note_on,54,0,120
1,note_on,58,36,0
1,note_on,58,0,120
1,note_on,66,32,0
1,note_on,64,25,0
1,note_on,64,0,120
1,note_on,66,0,0
1,note_on,54,21,120
1,note_on,54,0,120
1,note_on,59,24,0
1,note_on,59,0,120
1,note_on,66,24,0
1,note_on,63,19,0
1,note_on,63,0,60
1,note_on,66,0,0
1,note_on,81,37,0
1,note_on,81,0,60
1,note_on,80,50,0
1,note_on,80,0,120
1,note_on,80,37,60
1,note_on,80,0,60
1,note_on,78,50,0
1,note_on,78,0,120
1,note_on,78,37,60
1,note_on,78,0,60
1,note_on,77,50,0
1,note_on,77,0,120
1,note_on,77,37,60
1,note_on,77,0,60
1,note_on,74,50,0
1,note_on,74,0,120
1,note_on,73,50,120
1,note_on,73,0,120
1,note_on,85,50,120
1,note_on,85,0,120
1,note_on,85,50,120
1,note_on,85,0,120
1,note_on,97,50,120
1,note_on,97,0,120
1,note_on,54,30,240
1,note_on,54,0,120
1,note_on,58,34,0
1,note_on,58,0,120
1,note_on,66,30,0
1,note_on,64,23,0
1,note_on,64,0,120
1,note_on,66,0,0
1,note_on,54,20,120
1,note_on,54,0,120
1,note_on,59,22,0
1,note_on,59,0,120
1,note_on,66,20,0
1,note_on,63,16,0
1,note_on,63,0,120
1,note_on,66,0,0
1,note_on,81,42,0
1,note_on,93,50,0
1,note_on,93,0,360
1,note_on,95,36,0
1,note_on,95,0,60
1,note_on,93,36,0
1,note_on,93,0,60
1,note_on,81,0,0
1,note_on,80,42,0
1,note_on,92,50,0
1,note_on,92,0,240
1,note_on,80,0,0
1,note_on,78,34,0
1,note_on,90,41,0
1,note_on,90,0,240
1,note_on,78,0,0
1,note_on,83,36,0
1,note_on,95,43,0
1,note_on,95,0,240
1,note_on,83,0,0
1,note_on,75,38,0
1,note_on,87,45,0
1,note_on,87,0,180
1,note_on,90,35,0
1,note_on,90,0,60
1,note_on,75,0,0
1,note_on,76,36,0
1,note_on,88,43,0
1,note_on,88,0,480
1,note_on,76,0,0
1,note_on,81,42,0
1,note_on,93,50,0
1,note_on,93,0,360
1,note_on,95,36,0
1,note_on,95,0,60
1,note_on,93,36,0
1,note_on,93,0,60
1,note_on,81,0,0
1,note_on,80,42,0
1,note_on,92,50,0
1,note_on,92,0,240
1,note_on,80,0,0
1,note_on,78,34,0
1,note_on,90,41,0
1,note_on,90,0,240
1,note_on,78,0,0
1,note_on,83,37,0
1,note_on,95,44,0
1,note_on,95,0,240
1,note_on,83,0,0
1,note_on,75,38,0
1,note_on,87,45,0
1,note_on,87,0,180
1,note_on,90,35,0
1,note_on,90,0,60
1,note_on,75,0,0
1,note_on,76,36,0
1,note_on,88,43,0
1,note_on,88,0,480
1,note_on,76,0,0
1,note_on,54,34,120
1,note_on,54,0,120
1,note_on,58,38,0
1,note_on,58,0,120
1,note_on,66,34,0
1,note_on,64,26,0
1,note_on,64,0,120
1,note_on,66,0,0
1,note_on,54,22,120
1,note_on,54,0,120
1,note_on,59,25,0
1,note_on,59,0,120
1,note_on,66,22,0
1,note_on,63,18,0
1,note_on,63,0,120
1,note_on,66,0,0
1,note_on,81,42,0
1,note_on,93,50,0
1,note_on,93,0,360
1,note_on,95,36,0
1,note_on,95,0,60
1,note_on,93,36,0
1,note_on,93,0,60
1,note_on,81,0,0
1,note_on,80,42,0
1,note_on,92,50,0
1,note_on,92,0,240
1,note_on,80,0,0
1,note_on,78,34,0
1,note_on,90,41,0
1,note_on,90,0,240
1,note_on,78,0,0
1,note_on,83,36,0
1,note_on,95,43,0
1,note_on,95,0,240
1,note_on,83,0,0
1,note_on,75,38,0
1,note_on,87,45,0
1,note_on,87,0,180
1,note_on,90,35,0
1,note_on,90,0,60
1,note_on,75,0,0
1,note_on,76,36,0
1,note_on,88,43,0
1,note_on,88,0,480
1,note_on,76,0,0
1,note_on,81,42,0
1,note_on,93,50,0
1,note_on,93,0,360
1,note_on,95,36,0
1,note_on,95,0,60
1,note_on,93,36,0
1,note_on,93,0,60
1,note_on,81,0,0
1,note_on,80,42,0
1,note_on,92,50,0
1,note_on,92,0,240
1,note_on,80,0,0
1,note_on,78,34,0
1,note_on,90,41,0
1,note_on,90,0,240
1,note_on,78,0,0
1,note_on,83,37,0
1,note_on,95,44,0
1,note_on,95,0,240
1,note_on,83,0,0
1,note_on,75,38,0
1,note_on,87,45,0
1,note_on,87,0,180
1,note_on,90,35,0
1,note_on,90,0,60
1,note_on,75,0,0
1,note_on,76,36,0
1,note_on,88,43,0
1,note_on,88,0,480
1,note_on,76,0,0
1,note_on,54,34,120
1,note_on,54,0,120
1,note_on,58,38,0
1,note_on,58,0,120
1,note_on,66,34,0
1,note_on,64,26,0
1,note_on,64,0,120
1,note_on,66,0,0
1,note_on,54,22,120
1,note_on,54,0,120
1,note_on,59,25,0
1,note_on,59,0,120
1,note_on,66,22,0
1,note_on,63,18,0
1,note_on,63,0,120
1,note_on,66,0,0
1,note_on,78,42,0
1,note_on,90,50,0
1,note_on,90,0,360
1,note_on,92,36,0
1,note_on,92,0,60
1,note_on,90,36,0
1,note_on,90,0,60
1,note_on,78,0,0
1,note_on,77,42,0
1,note_on,89,50,0
1,note_on,89,0,240
1,note_on,77,0,0
1,note_on,78,34,0
1,note_on,90,41,0
1,note_on,90,0,180
1,note_on,93,35,0
1,note_on,93,0,60
1,note_on,78,0,0
1,note_on,80,36,0
1,note_on,92,43,0
1,note_on,92,0,420
1,note_on,92,35,0
1,note_on,92,0,60
1,note_on,80,0,0
1,note_on,78,24,0
1,note_on,90,43,0
1,note_on,90,0,480
1,note_on,78,0,0
1,note_on,54,36,120
1,note_on,54,0,120
1,note_on,58,41,0
1,note_on,58,0,120
1,note_on,66,36,0
1,note_on,64,28,0
1,note_on,64,0,120
1,note_on,66,0,0
1,note_on,54,24,120
1,note_on,54,0,120
1,note_on,59,27,0
1,note_on,59,0,120
1,note_on,66,24,0
1,note_on,63,19,0
1,note_on,63,0,60
1,note_on,66,0,0
1,note_on,93,37,0
1,note_on,93,0,60
1,note_on,80,42,0
1,note_on,92,50,0
1,note_on,92,0,120
1,note_on,80,0,0
1,note_on,92,37,60
1,note_on,92,0,60
1,note_on,78,42,0
1,note_on,90,50,0
1,note_on,90,0,120
1,note_on,78,0,0
1,note_on,90,37,60
1,note_on,90,0,60
1,note_on,76,42,0
1,note_on,88,50,0
1,note_on,88,0,120
1,note_on,76,0,0
1,note_on,88,37,60
1,note_on,88,0,60
1,note_on,74,42,0
1,note_on,86,50,0
1,note_on,86,0,120
1,note_on,74,0,0
1,note_on,73,50,120
1,note_on,73,0,120
1,note_on,85,50,120
1,note_on,85,0,120
1,note_on,85,50,120
1,note_on,85,0,120
1,note_on,97,50,120
1,note_on,97,0,120
1,note_on,54,30,240
1,note_on,54,0,120
1,note_on,58,34,0
1,note_on,58,0,120
1,note_on,66,30,0
1,note_on,64,23,0
1,note_on,64,0,120
1,note_on,66,0,0
1,note_on,54,20,120
1,note_on,54,0,120
1,note_on,59,22,0
1,note_on,59,0,120
1,note_on,66,20,0
1,note_on,63,16,0
1,note_on,63,0,120
1,note_on,66,0,0
1,note_on,78,42,0
1,note_on,90,50,0
1,note_on,90,0,360
1,note_on,92,36,0
1,note_on,92,0,60
1,note_on,90,36,0
1,note_on,90,0,60
1,note_on,78,0,0
1,note_on,77,42,0
1,note_on,89,50,0
1,note_on,89,0,240
1,note_on,77,0,0
1,note_on,78,34,0
1,note_on,90,41,0
1,note_on,90,0,180
1,note_on,93,35,0
1,note_on,93,0,60
1,note_on,78,0,0
1,note_on,80,36,0
1,note_on,92,43,0
1,note_on,92,0,420
1,note_on,92,35,0
1,note_on,92,0,60
1,note_on,80,0,0
1,note_on,78,24,0
1,note_on,90,43,0
1,note_on,90,0,480
1,note_on,78,0,0
1,note_on,54,36,120
1,note_on,54,0,120
1,note_on,58,41,0
1,note_on,58,0,120
1,note_on,66,36,0
1,note_on,64,28,0
1,note_on,64,0,120
1,note_on,66,0,0
1,note_on,54,24,120
1,note_on,54,0,120
1,note_on,59,27,0
1,note_on,59,0,120
1,note_on,63,19,0
1,note_on,66,24,0
1,note_on,66,0,120
1,note_on,63,0,0
1,note_on,93,45,0
1,note_on,93,0,81
1,note_on,92,44,0
1,note_on,90,44,79
1,note_on,92,0,1
1,note_on,90,0,79
1,note_on,88,43,0
1,note_on,88,0,80
1,note_on,86,43,0
1,note_on,86,0,80
1,note_on,85,42,0
1,note_on,85,0,80
1,note_on,83,42,0
1,note_on,83,0,80
1,note_on,81,41,0
1,note_on,81,0,80
1,note_on,80,41,0
1,note_on,80,0,80
1,note_on,78,40,0
1,note_on,78,0,80
1,note_on,76,39,0
1,note_on,76,0,80
1,note_on,74,39,0
1,note_on,74,0,80
1,note_on,73,40,0
1,note_on,73,0,60
1,note_on,85,36,60
1,note_on,85,0,60
1,note_on,85,36,60
1,note_on,85,0,60
1,note_on,97,38,60
1,note_on,97,0,60
1,note_on,97,39,60
1,note_on,97,0,60
1,note_on,85,36,60
1,note_on,85,0,60
1,note_on,85,36,60
1,note_on,85,0,60
1,note_on,73,37,60
1,note_on,73,0,60
1,note_on,73,44,60
1,note_on,73,0,60
1,note_on,85,36,60
1,note_on,85,0,60
1,note_on,85,36,60
1,note_on,85,0,60
1,note_on,97,41,60
1,note_on,97,0,60
1,note_on,97,41,60
1,note_on,97,0,60
1,note_on,85,36,60
1,note_on,85,0,60
1,note_on,85,36,60
1,note_on,85,0,60
1,note_on,73,36,60
1,note_on,73,0,60
1,note_on,73,42,60
1,note_on,73,0,60
1,note_on,85,37,60
1,note_on,85,0,60
1,note_on,85,37,60
1,note_on,85,0,60
1,note_on,97,40,60
1,note_on,97,0,60
1,note_on,97,40,60
1,note_on,97,0,60
1,note_on,85,37,60
1,note_on,85,0,60
1,note_on,85,37,60
1,note_on,85,0,60
1,note_on,97,37,60
1,note_on,97,0,60
1,note_on,97,42,60
1,note_on,97,0,60
1,note_on,85,37,60
1,note_on,85,0,60
1,note_on,85,37,60
1,note_on,85,0,60
1,note_on,97,39,60
1,note_on,97,0,60
1,note_on,97,39,60
1,note_on,97,0,60
1,note_on,85,37,60
1,note_on,85,0,60
1,note_on,85,37,60
1,note_on,85,0,60
1,note_on,97,37,60
1,note_on,97,0,60
1,note_on,98,39,60
1,note_on,98,0,80
1,note_on,100,38,0
1,note_on,100,0,80
1,note_on,98,37,0
1,note_on,98,0,80
1,note_on,97,36,0
1,note_on,97,0,80
1,note_on,95,36,0
1,note_on,95,0,80
1,note_on,93,36,0
1,note_on,93,0,80
1,note_on,92,35,0
1,note_on,92,0,80
1,note_on,90,34,0
1,note_on,90,0,80
1,note_on,88,33,0
1,note_on,88,0,80
1,note_on,86,32,0
1,note_on,86,0,80
1,note_on,85,31,0
1,note_on,85,0,80
1,note_on,83,30,0
1,note_on,83,0,80
1,note_on,81,29,0
1,note_on,81,0,80
1,note_on,80,28,0
1,note_on,80,0,80
1,note_on,81,29,0
1,note_on,81,0,80
1,note_on,83,31,0
1,note_on,83,0,80
1,note_on,85,32,0
1,note_on,85,0,80
1,note_on,86,33,0
1,note_on,86,0,80
1,note_on,88,34,0
1,note_on,88,0,80
1,note_on,90,35,0
1,note_on,90,0,80
1,note_on,92,36,0
1,note_on,92,0,80
1,note_on,93,36,0
1,note_on,93,0,80
1,note_on,95,37,0
1,note_on,95,0,80
1,note_on,97,38,0
1,note_on,97,0,80
1,note_on,98,39,0
1,note_on,98,0,80
1,note_on,100,38,0
1,note_on,100,0,80
1,note_on,98,37,0
1,note_on,98,0,80
1,note_on,97,36,0
1,note_on,97,0,80
1,note_on,95,36,0
1,note_on,95,0,80
1,note_on,93,36,0
1,note_on,93,0,80
1,note_on,92,35,0
1,note_on,92,0,80
1,note_on,90,34,0
1,note_on,90,0,80
1,note_on,88,33,0
1,note_on,88,0,80
1,note_on,86,32,0
1,note_on,86,0,80
1,note_on,85,31,0
1,note_on,85,0,80
1,note_on,83,30,0
1,note_on,83,0,80
1,note_on,81,29,0
1,note_on,81,0,80
1,note_on,80,28,0
1,note_on,80,0,80
1,note_on,81,29,0
1,note_on,81,0,80
1,note_on,83,31,0
1,note_on,83,0,80
1,note_on,85,32,0
1,note_on,85,0,80
1,note_on,86,33,0
1,note_on,86,0,80
1,note_on,88,34,0
1,note_on,88,0,80
1,note_on,90,35,0
1,note_on,90,0,80
1,note_on,92,36,0
1,note_on,92,0,80
1,note_on,93,36,0
1,note_on,93,0,80
1,note_on,95,37,0
1,note_on,95,0,80
1,note_on,97,38,0
1,note_on,97,0,80
1,note_on,98,39,0
1,note_on,98,0,80
1,note_on,100,38,0
1,note_on,100,0,80
1,note_on,98,37,0
1,note_on,98,0,80
1,note_on,97,36,0
1,note_on,97,0,80
1,note_on,95,36,0
1,note_on,95,0,80
1,note_on,93,36,0
1,note_on,93,0,80
1,note_on,92,35,0
1,note_on,92,0,80
1,note_on,90,34,0
1,note_on,90,0,80
1,note_on,88,33,0
1,note_on,88,0,80
1,note_on,86,32,0
1,note_on,86,0,80
1,note_on,85,31,0
1,note_on,85,0,80
1,note_on,83,30,0
1,note_on,83,0,80
1,note_on,81,29,0
1,note_on,81,0,80
1,note_on,80,28,0
1,note_on,80,0,80
1,note_on,81,29,0
1,note_on,81,0,80
1,note_on,83,31,0
1,note_on,83,0,80
1,note_on,85,32,0
1,note_on,85,0,80
1,note_on,86,33,0
1,note_on,86,0,80
1,note_on,88,34,0
1,note_on,88,0,80
1,note_on,90,35,0
1,note_on,90,0,80
1,note_on,92,36,0
1,note_on,92,0,80
1,note_on,93,36,0
1,note_on,93,0,80
1,note_on,95,37,0
1,note_on,95,0,80
1,note_on,97,38,0
1,note_on,97,0,80
1,note_on,98,41,0
1,note_on,98,0,80
1,note_on,99,44,0
1,note_on,99,0,80
1,note_on,100,46,0
1,note_on,100,0,80
1,note_on,101,49,0
1,note_on,101,0,80
1,note_on,100,49,0
1,note_on,100,0,80
1,note_on,99,47,0
1,note_on,99,0,80
1,note_on,98,46,0
1,note_on,98,0,80
1,note_on,97,45,0
1,note_on,97,0,80
1,note_on,96,44,0
1,note_on,96,0,80
1,note_on,95,43,0
1,note_on,95,0,80
1,note_on,94,41,0
1,note_on,94,0,80
1,note_on,93,40,0
1,note_on,93,0,80
1,note_on,92,39,0
1,note_on,92,0,80
1,note_on,93,44,0
1,note_on,93,0,80
1,note_on,94,46,0
1,note_on,94,0,80
1,note_on,95,48,0
1,note_on,95,0,80
1,note_on,94,49,0
1,note_on,94,0,80
1,note_on,93,48,0
1,note_on,93,0,80
1,note_on,92,47,0
1,note_on,92,0,80
1,note_on,91,46,0
1,note_on,91,0,80
1,note_on,90,45,0
1,note_on,90,0,80
1,note_on,89,45,0
1,note_on,89,0,80
1,note_on,88,44,0
1,note_on,88,0,80
1,note_on,87,43,0
1,note_on,87,0,80
1,note_on,86,41,0
1,note_on,86,0,80
1,note_on,87,44,0
1,note_on,87,0,80
1,note_on,88,46,0
1,note_on,88,0,80
1,note_on,89,49,0
1,note_on,89,0,80
1,note_on,88,49,0
1,note_on,88,0,80
1,note_on,87,47,0
1,note_on,87,0,80
1,note_on,86,46,0
1,note_on,86,0,80
1,note_on,85,45,0
1,note_on,85,0,80
1,note_on,84,44,0
1,note_on,84,0,80
1,note_on,83,43,0
1,note_on,83,0,80
1,note_on,82,41,0
1,note_on,82,0,80
1,note_on,81,40,0
1,note_on,81,0,80
1,note_on,80,39,0
1,note_on,80,0,80
1,note_on,81,44,0
1,note_on,81,0,80
1,note_on,82,46,0
1,note_on,82,0,80
1,note_on,83,48,0
1,note_on,83,0,80
1,note_on,82,49,0
1,note_on,82,0,80
1,note_on,81,48,0
1,note_on,81,0,80
1,note_on,80,47,0
1,note_on,80,0,80
1,note_on,79,46,0
1,note_on,79,0,80
1,note_on,78,45,0
1,note_on,78,0,80
1,note_on,77,45,0
1,note_on,77,0,80
1,note_on,76,44,0
1,note_on,76,0,80
1,note_on,75,43,0
1,note_on,75,0,80
1,note_on,74,41,0
1,note_on,74,0,80
1,note_on,75,44,0
1,note_on,75,0,80
1,note_on,76,46,0
1,note_on,76,0,80
1,note_on,77,49,0
1,note_on,77,0,80
1,note_on,76,49,0
1,note_on,76,0,80
1,note_on,75,47,0
1,note_on,75,0,80
1,note_on,74,46,0
1,note_on,74,0,80
1,note_on,73,45,0
1,note_on,73,0,80
1,note_on,72,44,0
1,note_on,72,0,80
1,note_on,71,43,0
1,note_on,71,0,80
1,note_on,70,41,0
1,note_on,70,0,80
1,note_on,69,40,0
1,note_on,69,0,80
1,note_on,68,39,0
1,note_on,68,0,80
1,note_on,69,44,0
1,note_on,69,0,80
1,note_on,70,46,0
1,note_on,70,0,80
1,note_on,71,48,0
1,note_on,71,0,80
1,note_on,70,49,0
1,note_on,70,0,80
1,note_on,69,48,0
1,note_on,69,0,80
1,note_on,68,45,0
1,note_on,68,0,60
1,note_on,67,45,0
1,note_on,67,0,60
1,note_on,66,47,0
1,note_on,66,0,60
1,note_on,65,49,0
1,note_on,65,0,60
1,note_on,64,50,0
1,note_on,64,0,120
1,note_on,67,45,120
1,note_on,70,54,0
1,note_on,70,0,360
1,note_on,67,0,0
1,note_on,67,43,120
1,note_on,70,51,0
1,note_on,70,0,90
1,note_on,67,0,0
1,note_on,67,43,150
1,note_on,70,51,4
1,note_on,67,0,86
1,note_on,70,0,4
1,note_on,66,48,146
1,note_on,75,56,0
1,note_on,75,0,720
1,note_on,66,0,0
1,note_on,75,49,0
1,note_on,66,41,0
1,note_on,66,0,90
1,note_on,75,0,0
1,note_on,64,44,150
1,note_on,73,52,0
1,note_on,73,0,90
1,note_on,64,0,150
1,note_on,70,52,0
1,note_on,70,0,90
1,note_on,63,44,150
1,note_on,71,52,0
1,note_on,71,0,90
1,note_on,63,0,150
1,note_on,68,54,0
1,note_on,68,0,90
1,note_on,67,44,150
1,note_on,70,53,0
1,note_on,70,0,90
1,note_on,67,0,148
1,note_on,63,50,2
1,note_on,63,0,90
1,note_on,67,49,630
1,note_on,70,59,0
1,note_on,70,0,360
1,note_on,67,0,0
1,note_on,67,47,120
1,note_on,70,56,0
1,note_on,70,0,90
1,note_on,67,0,0
1,note_on,70,56,150
1,note_on,67,47,0
1,note_on,67,0,90
1,note_on,70,0,0
1,note_on,66,52,150
1,note_on,75,61,0
1,note_on,75,0,720
1,note_on,66,0,0
1,note_on,75,53,0
1,note_on,66,45,0
1,note_on,66,0,90
1,note_on,75,0,0
1,note_on,64,48,150
1,note_on,73,57,0
1,note_on,73,0,90
1,note_on,64,0,150
1,note_on,71,57,0
1,note_on,71,0,90
1,note_on,67,48,150
1,note_on,70,58,0
1,note_on,70,0,90
1,note_on,67,0,150
1,note_on,63,61,0
1,note_on,63,0,90
1,note_on,68,60,150
1,note_on,68,0,90
1,note_on,63,58,150
1,note_on,63,0,90
1,note_on,63,55,150
1,note_on,68,62,0
1,note_on,68,0,90
1,note_on,63,0,0
1,note_on,70,58,390
1,note_on,75,58,0
1,note_on,79,58,0
1,note_on,82,70,0
1,note_on,82,0,360
1,note_on,70,0,0
1,note_on,75,0,0
1,note_on,79,0,0
1,note_on,70,55,120
1,note_on,75,55,0
1,note_on,79,55,0
1,note_on,82,66,0
1,note_on,82,0,90
1,note_on,70,0,0
1,note_on,75,0,0
1,note_on,79,0,0
1,note_on,82,66,150
1,note_on,70,55,0
1,note_on,75,55,0
1,note_on,79,55,0
1,note_on,79,0,90
1,note_on,82,0,0
1,note_on,70,0,0
1,note_on,75,0,0
1,note_on,75,62,150
1,note_on,78,62,0
1,note_on,87,72,0
1,note_on,87,0,720
1,note_on,78,0,0
1,note_on,75,0,0
1,note_on,75,53,0
1,note_on,87,63,0
1,note_on,78,53,0
1,note_on,78,0,90
1,note_on,87,0,0
1,note_on,75,0,0
1,note_on,73,57,150
1,note_on,76,57,0
1,note_on,85,67,0
1,note_on,85,0,90
1,note_on,76,0,0
1,note_on,73,0,0
1,note_on,70,67,150
1,note_on,82,67,0
1,note_on,82,0,90
1,note_on,70,0,0
1,note_on,71,57,150
1,note_on,75,57,0
1,note_on,83,67,0
1,note_on,83,0,90
1,note_on,75,0,0
1,note_on,71,0,0
1,note_on,68,70,150
1,note_on,80,70,0
1,note_on,80,0,90
1,note_on,68,0,0
1,note_on,70,57,150
1,note_on,75,57,0
1,note_on,82,68,0
1,note_on,82,0,90
1,note_on,75,0,0
1,note_on,70,0,0
1,note_on,63,57,150
1,note_on,75,65,0
1,note_on,75,0,90
1,note_on,63,0,0
1,note_on,63,57,150
1,note_on,75,68,0
1,note_on,75,0,90
1,note_on,63,0,0
1,note_on,70,60,390
1,note_on,75,60,0
1,note_on,79,60,0
1,note_on,82,73,0
1,note_on,82,0,360
1,note_on,70,0,0
1,note_on,75,0,0
1,note_on,79,0,0
1,note_on,70,57,120
1,note_on,75,57,0
1,note_on,79,57,0
1,note_on,82,69,0
1,note_on,82,0,90
1,note_on,70,0,0
1,note_on,75,0,0
1,note_on,79,0,0
1,note_on,82,69,150
1,note_on,70,57,0
1,note_on,75,57,0
1,note_on,79,57,0
1,note_on,79,0,90
1,note_on,82,0,0
1,note_on,70,0,0
1,note_on,75,0,0
1,note_on,75,65,150
1,note_on,78,65,0
1,note_on,87,75,0
1,note_on,87,0,960
1,note_on,78,0,0
1,note_on,75,0,0
1,note_on,74,63,0
1,note_on,79,63,0
1,note_on,83,63,0
1,note_on,86,76,0
1,note_on,86,0,360
1,note_on,74,0,0
1,note_on,79,0,0
1,note_on,83,0,0
1,note_on,74,59,120
1,note_on,79,59,0
1,note_on,83,59,0
1,note_on,86,72,0
1,note_on,86,0,90
1,note_on,74,0,0
1,note_on,79,0,0
1,note_on,83,0,0
1,note_on,86,72,150
1,note_on,74,59,0
1,note_on,79,59,0
1,note_on,83,59,0
1,note_on,83,0,90
1,note_on,86,0,0
1,note_on,74,0,0
1,note_on,79,0,0
1,note_on,79,68,150
1,note_on,82,68,0
1,note_on,87,68,0
1,note_on,91,78,0
1,note_on,91,0,960
1,note_on,79,0,0
1,note_on,82,0,0
1,note_on,87,0,0
1,note_on,79,66,0
1,note_on,84,66,0
1,note_on,88,66,0
1,note_on,91,79,0
1,note_on,91,0,360
1,note_on,79,0,0
1,note_on,84,0,0
1,note_on,88,0,0
1,note_on,79,61,120
1,note_on,84,61,0
1,note_on,88,61,0
1,note_on,91,75,0
1,note_on,91,0,90
1,note_on,79,0,0
1,note_on,84,0,0
1,note_on,88,0,0
1,note_on,91,75,150
1,note_on,79,61,0
1,note_on,84,61,0
1,note_on,88,61,0
1,note_on,88,0,90
1,note_on,91,0,0
1,note_on,79,0,0
1,note_on,84,0,0
1,note_on,84,71,150
1,note_on,88,71,0
1,note_on,91,71,0
1,note_on,96,81,0
1,note_on,96,0,960
1,note_on,84,0,0
1,note_on,88,0,0
1,note_on,91,0,0
1,note_on,67,67,0
1,note_on,72,67,0
1,note_on,76,67,0
1,note_on,79,80,0
1,note_on,79,0,360
1,note_on,67,0,0
1,note_on,72,0,0
1,note_on,76,0,0
1,note_on,67,62,120
1,note_on,72,62,0
1,note_on,76,62,0
1,note_on,79,77,0
1,note_on,79,0,90
1,note_on,67,0,0
1,note_on,72,0,0
1,note_on,76,0,0
1,note_on,79,77,150
1,note_on,67,62,0
1,note_on,72,62,0
1,note_on,76,62,0
1,note_on,76,0,90
1,note_on,79,0,0
1,note_on,67,0,0
1,note_on,72,0,0
1,note_on,72,73,150
1,note_on,76,73,0
1,note_on,79,73,0
1,note_on,84,83,0
1,note_on,84,0,960
1,note_on,72,0,0
1,note_on,76,0,0
1,note_on,79,0,0
1,note_on,79,69,0
1,note_on,84,69,0
1,note_on,88,69,0
1,note_on,91,82,0
1,note_on,91,0,360
1,note_on,79,0,0
1,note_on,84,0,0
1,note_on,88,0,0
1,note_on,79,64,120
1,note_on,84,64,0
1,note_on,88,64,0
1,note_on,91,78,0
1,note_on,91,0,90
1,note_on,79,0,0
1,note_on,84,0,0
1,note_on,88,0,0
1,note_on,91,78,150
1,note_on,79,64,0
1,note_on,84,64,0
1,note_on,88,64,0
1,note_on,88,0,90
1,note_on,91,0,0
1,note_on,79,0,0
1,note_on,84,0,0
1,note_on,84,75,150
1,note_on,88,75,0
1,note_on,91,75,0
1,note_on,96,85,0
1,note_on,96,0,960
1,note_on,84,0,0
1,note_on,88,0,0
1,note_on,91,0,0
1,note_on,67,70,0
1,note_on,72,70,0
1,note_on,76,70,0
1,note_on,79,84,0
1,note_on,79,0,360
1,note_on,67,0,0
1,note_on,72,0,0
1,note_on,76,0,0
1,note_on,67,65,120
1,note_on,72,65,0
1,note_on,76,65,0
1,note_on,79,81,0
1,note_on,79,0,90
1,note_on,67,0,0
1,note_on,72,0,0
1,note_on,76,0,0
1,note_on,79,81,150
1,note_on,67,65,0
1,note_on,72,65,0
1,note_on,76,65,0
1,note_on,76,0,90
1,note_on,79,0,0
1,note_on,67,0,0
1,note_on,72,0,0
1,note_on,72,76,150
1,note_on,76,76,0
1,note_on,79,76,0
1,note_on,84,87,0
1,note_on,84,0,960
1,note_on,72,0,0
1,note_on,76,0,0
1,note_on,79,0,0
1,note_on,85,72,0
1,note_on,93,72,0
1,note_on,97,86,0
1,note_on,97,0,360
1,note_on,93,0,0
1,note_on,85,0,0
1,note_on,85,67,120
1,note_on,93,67,0
1,note_on,97,82,0
1,note_on,97,0,90
1,note_on,93,0,0
1,note_on,85,0,0
1,note_on,97,82,150
1,note_on,85,67,0
1,note_on,93,67,0
1,note_on,93,0,90
1,note_on,85,0,0
1,note_on,97,0,0
1,note_on,97,78,150
1,note_on,88,78,0
1,note_on,93,78,0
1,note_on,100,89,0
1,note_on,100,0,960
1,note_on,97,0,0
1,note_on,88,0,0
1,note_on,93,0,0
1,note_on,73,72,0
1,note_on,81,72,0
1,note_on,85,86,0
1,note_on,85,0,360
1,note_on,81,0,0
1,note_on,73,0,0
1,note_on,73,67,120
1,note_on,81,67,0
1,note_on,85,82,0
1,note_on,85,0,90
1,note_on,81,0,0
1,note_on,73,0,0
1,note_on,85,82,150
1,note_on,73,67,0
1,note_on,81,67,0
1,note_on,81,0,90
1,note_on,73,0,0
1,note_on,85,0,0
1,note_on,85,78,150
1,note_on,76,78,0
1,note_on,81,78,0
1,note_on,88,89,0
1,note_on,88,0,960
1,note_on,85,0,0
1,note_on,76,0,0
1,note_on,81,0,0
1,note_on,85,72,0
1,note_on,93,72,0
1,note_on,97,86,0
1,note_on,97,0,360
1,note_on,93,0,0
1,note_on,85,0,0
1,note_on,85,67,120
1,note_on,93,67,0
1,note_on,97,82,0
1,note_on,97,0,90
1,note_on,93,0,0
1,note_on,85,0,0
1,note_on,97,82,150
1,note_on,85,67,0
1,note_on,93,67,0
1,note_on,93,0,90
1,note_on,85,0,0
1,note_on,97,0,0
1,note_on,97,78,150
1,note_on,88,78,0
1,note_on,93,78,0
1,note_on,100,89,0
1,note_on,100,0,960
1,note_on,97,0,0
1,note_on,88,0,0
1,note_on,93,0,0
1,note_on,73,72,0
1,note_on,81,72,0
1,note_on,85,86,0
1,note_on,85,0,360
1,note_on,81,0,0
1,note_on,73,0,0
1,note_on,73,67,120
1,note_on,81,67,0
1,note_on,85,82,0
1,note_on,85,0,90
1,note_on,81,0,0
1,note_on,73,0,0
1,note_on,85,82,150
1,note_on,73,67,0
1,note_on,81,67,0
1,note_on,81,0,90
1,note_on,73,0,0
1,note_on,85,0,0
1,note_on,85,78,150
1,note_on,76,78,0
1,note_on,81,78,0
1,note_on,88,89,0
1,note_on,88,0,960
1,note_on,85,0,0
1,note_on,76,0,0
1,note_on,81,0,0
1,note_on,54,73,0
1,note_on,58,73,0
1,note_on,61,73,0
1,note_on,66,87,0
1,note_on,66,0,480
1,note_on,54,0,0
1,note_on,58,0,0
1,note_on,61,0,0
1,note_on,58,68,0
1,note_on,61,68,0
1,note_on,65,80,0
1,note_on,53,68,0
1,note_on,53,0,480
1,note_on,58,0,0
1,note_on,61,0,0
1,note_on,65,0,0
1,note_on,51,72,0
1,note_on,54,72,0
1,note_on,58,72,0
1,note_on,63,85,0
1,note_on,63,0,480
1,note_on,51,0,0
1,note_on,54,0,0
1,note_on,58,0,0
1,note_on,54,68,0
1,note_on,58,68,0
1,note_on,61,80,0
1,note_on,49,68,0
1,note_on,49,0,480
1,note_on,54,0,0
1,note_on,58,0,0
1,note_on,61,0,0
1,note_on,54,73,0
1,note_on,58,73,0
1,note_on,61,73,0
1,note_on,66,86,0
1,note_on,66,0,216
1,note_on,54,0,0
1,note_on,58,0,0
1,note_on,61,0,0
1,note_on,54,68,24
1,note_on,58,68,0
1,note_on,61,68,0
1,note_on,66,80,0
1,note_on,66,0,216
1,note_on,54,0,0
1,note_on,58,0,0
1,note_on,61,0,0
1,note_on,56,73,24
1,note_on,61,73,0
1,note_on,68,86,0
1,note_on,68,0,480
1,note_on,61,0,0
1,note_on,56,0,0
1,note_on,58,75,0
1,note_on,61,75,0
1,note_on,66,75,0
1,note_on,70,89,0
1,note_on,70,0,480
1,note_on,58,0,0
1,note_on,61,0,0
1,note_on,66,0,0
1,note_on,54,73,480
1,note_on,58,73,0
1,note_on,61,73,0
1,note_on,66,87,0
1,note_on,66,0,480
1,note_on,54,0,0
1,note_on,58,0,0
1,note_on,61,0,0
1,note_on,58,68,0
1,note_on,61,68,0
1,note_on,65,80,0
1,note_on,53,68,0
1,note_on,53,0,480
1,note_on,58,0,0
1,note_on,61,0,0
1,note_on,65,0,0
1,note_on,51,72,0
1,note_on,54,72,0
1,note_on,58,72,0
1,note_on,63,85,0
1,note_on,63,0,480
1,note_on,51,0,0
1,note_on,54,0,0
1,note_on,58,0,0
1,note_on,54,68,0
1,note_on,58,68,0
1,note_on,61,80,0
1,note_on,49,68,0
1,note_on,49,0,480
1,note_on,54,0,0
1,note_on,58,0,0
1,note_on,61,0,0
1,note_on,54,73,0
1,note_on,58,73,0
1,note_on,61,73,0
1,note_on,66,86,0
1,note_on,66,0,216
1,note_on,54,0,0
1,note_on,58,0,0
1,note_on,61,0,0
1,note_on,54,68,24
1,note_on,58,68,0
1,note_on,61,68,0
1,note_on,66,80,0
1,note_on,66,0,216
1,note_on,54,0,0
1,note_on,58,0,0
1,note_on,61,0,0
1,note_on,56,73,24
1,note_on,61,73,0
1,note_on,68,86,0
1,note_on,68,0,480
1,note_on,61,0,0
1,note_on,56,0,0
1,note_on,58,75,0
1,note_on,61,75,0
1,note_on,66,75,0
1,note_on,70,89,0
1,note_on,70,0,480
1,note_on,58,0,0
1,note_on,61,0,0
1,note_on,66,0,0
1,note_on,61,77,480
1,note_on,66,77,0
1,note_on,70,77,0
1,note_on,73,91,0
1,note_on,73,0,720
1,note_on,61,0,0
1,note_on,66,0,0
1,note_on,70,0,0
1,note_on,61,72,0
1,note_on,66,72,0
1,note_on,70,72,0
1,note_on,73,85,0
1,note_on,73,0,240
1,note_on,61,0,0
1,note_on,66,0,0
1,note_on,70,0,0
1,note_on,63,78,0
1,note_on,66,78,0
1,note_on,71,78,0
1,note_on,75,92,0
1,note_on,75,0,480
1,note_on,63,0,0
1,note_on,66,0,0
1,note_on,71,0,0
1,note_on,61,73,0
1,note_on,66,73,0
1,note_on,70,73,0
1,note_on,73,86,0
1,note_on,73,0,480
1,note_on,61,0,0
1,note_on,66,0,0
1,note_on,70,0,0
1,note_on,58,79,0
1,note_on,70,93,0
1,note_on,70,0,720
1,note_on,58,0,0
1,note_on,58,73,0
1,note_on,68,87,0
1,note_on,68,0,240
1,note_on,58,0,0
1,note_on,58,77,0
1,note_on,66,91,0
1,note_on,66,0,120
1,note_on,58,0,0
1,note_on,58,72,120
1,note_on,65,85,0
1,note_on,65,0,120
1,note_on,58,0,0
1,note_on,58,71,120
1,note_on,63,84,0
1,note_on,63,0,240
1,note_on,58,0,0
1,note_on,66,66,240
1,note_on,70,78,0
1,note_on,70,0,96
1,note_on,71,73,0
1,note_on,71,0,96
1,note_on,70,73,0
1,note_on,70,0,96
1,note_on,69,73,0
1,note_on,69,0,96
1,note_on,70,73,0
1,note_on,70,0,96
1,note_on,66,0,0
1,note_on,68,62,0
1,note_on,71,73,0
1,note_on,71,0,120
1,note_on,68,0,0
1,note_on,66,59,120
1,note_on,70,70,0
1,note_on,70,0,120
1,note_on,66,0,0
1,note_on,65,68,120
1,note_on,68,80,0
1,note_on,68,0,120
1,note_on,65,0,0
1,note_on,63,62,120
1,note_on,66,73,0
1,note_on,66,0,120
1,note_on,63,0,0
1,note_on,58,62,120
1,note_on,65,73,0
1,note_on,65,0,240
1,note_on,58,0,0
1,note_on,54,75,240
1,note_on,58,75,0
1,note_on,63,89,0
1,note_on,63,0,240
1,note_on,58,0,0
1,note_on,54,0,0
1,note_on,73,77,720
1,note_on,78,77,0
1,note_on,82,77,0
1,note_on,85,91,0
1,note_on,85,0,720
1,note_on,73,0,0
1,note_on,78,0,0
1,note_on,82,0,0
1,note_on,73,72,0
1,note_on,78,72,0
1,note_on,82,72,0
1,note_on,85,85,0
1,note_on,85,0,240
1,note_on,73,0,0
1,note_on,78,0,0
1,note_on,82,0,0
1,note_on,75,78,0
1,note_on,78,78,0
1,note_on,83,78,0
1,note_on,87,92,0
1,note_on,87,0,480
1,note_on,75,0,0
1,note_on,78,0,0
1,note_on,83,0,0
1,note_on,73,73,0
1,note_on,78,73,0
1,note_on,82,73,0
1,note_on,85,86,0
1,note_on,85,0,480
1,note_on,73,0,0
1,note_on,78,0,0
1,note_on,82,0,0
1,note_on,70,79,0
1,note_on,82,93,0
1,note_on,82,0,720
1,note_on,70,0,0
1,note_on,68,73,0
1,note_on,80,87,0
1,note_on,80,0,240
1,note_on,68,0,0
1,note_on,66,77,0
1,note_on,78,91,0
1,note_on,78,0,120
1,note_on,66,0,0
1,note_on,65,72,120
1,note_on,77,85,0
1,note_on,77,0,120
1,note_on,65,0,0
1,note_on,63,71,120
1,note_on,75,84,0
1,note_on,75,0,240
1,note_on,63,0,0
1,note_on,78,66,240
1,note_on,82,78,0
1,note_on,82,0,96
1,note_on,83,73,0
1,note_on,83,0,96
1,note_on,82,73,0
1,note_on,82,0,96
1,note_on,81,73,0
1,note_on,81,0,96
1,note_on,82,73,0
1,note_on,82,0,96
1,note_on,78,0,0
1,note_on,71,62,0
1,note_on,83,73,0
1,note_on,83,0,120
1,note_on,71,0,0
1,note_on,70,59,120
1,note_on,82,70,0
1,note_on,82,0,120
1,note_on,70,0,0
1,note_on,68,68,120
1,note_on,80,80,0
1,note_on,80,0,120
1,note_on,68,0,0
1,note_on,66,62,120
1,note_on,78,73,0
1,note_on,78,0,120
1,note_on,66,0,0
1,note_on,65,62,120
1,note_on,77,73,0
1,note_on,77,0,240
1,note_on,65,0,0
1,note_on,63,75,240
1,note_on,70,75,0
1,note_on,75,89,0
1,note_on,75,0,240
1,note_on,70,0,0
1,note_on,63,0,0
1,note_on,54,65,720
1,note_on,58,65,0
1,note_on,61,65,0
1,note_on,66,78,0
1,note_on,66,0,180
1,note_on,54,0,0
1,note_on,58,0,0
1,note_on,61,0,0
1,note_on,54,55,60
1,note_on,58,55,0
1,note_on,61,55,0
1,note_on,66,65,0
1,note_on,66,0,180
1,note_on,54,0,0
1,note_on,58,0,0
1,note_on,61,0,0
1,note_on,58,54,300
1,note_on,61,54,0
1,note_on,65,64,0
1,note_on,53,54,0
1,note_on,53,0,180
1,note_on,58,0,0
1,note_on,61,0,0
1,note_on,65,0,0
1,note_on,51,57,300
1,note_on,54,57,0
1,note_on,58,57,0
1,note_on,63,68,0
1,note_on,63,0,180
1,note_on,51,0,0
1,note_on,54,0,0
1,note_on,58,0,0
1,note_on,54,54,300
1,note_on,58,54,0
1,note_on,61,64,0
1,note_on,49,54,0
1,note_on,49,0,180
1,note_on,54,0,0
1,note_on,58,0,0
1,note_on,61,0,0
1,note_on,54,54,300
1,note_on,58,54,0
1,note_on,61,54,0
1,note_on,66,64,0
1,note_on,66,0,162
1,note_on,54,0,0
1,note_on,58,0,0
1,note_on,61,0,0
1,note_on,56,58,318
1,note_on,61,58,0
1,note_on,68,69,0
1,note_on,68,0,180
1,note_on,61,0,0
1,note_on,56,0,0
1,note_on,58,60,300
1,note_on,61,60,0
1,note_on,66,60,0
1,note_on,70,72,0
1,note_on,70,0,180
1,note_on,58,0,0
1,note_on,61,0,0
1,note_on,66,0,0
1,note_on,54,65,540
1,note_on,58,65,0
1,note_on,61,65,0
1,note_on,66,78,0
1,note_on,66,0,180
1,note_on,54,0,0
1,note_on,58,0,0
1,note_on,61,0,0
1,note_on,54,55,60
1,note_on,58,55,0
1,note_on,61,55,0
1,note_on,66,65,0
1,note_on,66,0,180
1,note_on,54,0,0
1,note_on,58,0,0
1,note_on,61,0,0
1,note_on,58,54,300
1,note_on,61,54,0
1,note_on,65,64,0
1,note_on,53,54,0
1,note_on,53,0,180
1,note_on,58,0,0
1,note_on,61,0,0
1,note_on,65,0,0
1,note_on,51,57,300
1,note_on,54,57,0
1,note_on,58,57,0
1,note_on,63,68,0
1,note_on,63,0,180
1,note_on,51,0,0
1,note_on,54,0,0
1,note_on,58,0,0
1,note_on,54,54,300
1,note_on,58,54,0
1,note_on,61,64,0
1,note_on,49,54,0
1,note_on,49,0,180
1,note_on,54,0,0
1,note_on,58,0,0
1,note_on,61,0,0
1,note_on,54,54,300
1,note_on,58,54,0
1,note_on,61,54,0
1,note_on,66,64,0
1,note_on,66,0,162
1,note_on,54,0,0
1,note_on,58,0,0
1,note_on,61,0,0
1,note_on,56,58,318
1,note_on,61,58,0
1,note_on,68,69,0
1,note_on,68,0,180
1,note_on,61,0,0
1,note_on,56,0,0
1,note_on,58,60,300
1,note_on,61,60,0
1,note_on,66,60,0
1,note_on,70,72,0
1,note_on,70,0,180
1,note_on,58,0,0
1,note_on,61,0,0
1,note_on,66,0,0
1,note_on,61,77,540
1,note_on,66,77,0
1,note_on,70,77,0
1,note_on,73,91,0
1,note_on,73,0,720
1,note_on,61,0,0
1,note_on,66,0,0
1,note_on,70,0,0
1,note_on,61,72,0
1,note_on,66,72,0
1,note_on,70,72,0
1,note_on,73,85,0
1,note_on,73,0,240
1,note_on,61,0,0
1,note_on,66,0,0
1,note_on,70,0,0
1,note_on,63,78,0
1,note_on,66,78,0
1,note_on,71,78,0
1,note_on,75,92,0
1,note_on,75,0,480
1,note_on,63,0,0
1,note_on,66,0,0
1,note_on,71,0,0
1,note_on,61,73,0
1,note_on,66,73,0
1,note_on,70,73,0
1,note_on,73,86,0
1,note_on,73,0,480
1,note_on,61,0,0
1,note_on,66,0,0
1,note_on,70,0,0
1,note_on,58,79,0
1,note_on,70,93,0
1,note_on,70,0,720
1,note_on,58,0,0
1,note_on,58,73,0
1,note_on,68,87,0
1,note_on,68,0,240
1,note_on,58,0,0
1,note_on,58,77,0
1,note_on,66,91,0
1,note_on,66,0,120
1,note_on,58,0,0
1,note_on,58,72,120
1,note_on,65,85,0
1,note_on,65,0,120
1,note_on,58,0,0
1,note_on,58,71,120
1,note_on,63,84,0
1,note_on,63,0,240
1,note_on,58,0,0
1,note_on,66,66,240
1,note_on,70,78,0
1,note_on,70,0,96
1,note_on,71,73,0
1,note_on,71,0,96
1,note_on,70,73,0
1,note_on,70,0,96
1,note_on,69,73,0
1,note_on,69,0,96
1,note_on,70,73,0
1,note_on,70,0,96
1,note_on,66,0,0
1,note_on,68,62,0
1,note_on,71,73,0
1,note_on,71,0,120
1,note_on,68,0,0
1,note_on,66,59,120
1,note_on,70,70,0
1,note_on,70,0,120
1,note_on,66,0,0
1,note_on,65,68,120
1,note_on,68,80,0
1,note_on,68,0,120
1,note_on,65,0,0
1,note_on,63,62,120
1,note_on,66,73,0
1,note_on,66,0,120
1,note_on,63,0,0
1,note_on,58,62,120
1,note_on,65,73,0
1,note_on,65,0,240
1,note_on,58,0,0
1,note_on,54,75,240
1,note_on,58,75,0
1,note_on,63,89,0
1,note_on,63,0,240
1,note_on,58,0,0
1,note_on,54,0,0
1,note_on,73,77,720
1,note_on,78,77,0
1,note_on,82,77,0
1,note_on,85,91,0
1,note_on,85,0,720
1,note_on,73,0,0
1,note_on,78,0,0
1,note_on,82,0,0
1,note_on,73,72,0
1,note_on,78,72,0
1,note_on,82,72,0
1,note_on,85,85,0
1,note_on,85,0,240
1,note_on,73,0,0
1,note_on,78,0,0
1,note_on,82,0,0
1,note_on,75,78,0
1,note_on,78,78,0
1,note_on,83,78,0
1,note_on,87,92,0
1,note_on,87,0,480
1,note_on,75,0,0
1,note_on,78,0,0
1,note_on,83,0,0
1,note_on,73,73,0
1,note_on,78,73,0
1,note_on,82,73,0
1,note_on,85,86,0
1,note_on,85,0,480
1,note_on,73,0,0
1,note_on,78,0,0
1,note_on,82,0,0
1,note_on,70,79,0
1,note_on,82,93,0
1,note_on,82,0,720
1,note_on,70,0,0
1,note_on,68,73,0
1,note_on,80,87,0
1,note_on,80,0,240
1,note_on,68,0,0
1,note_on,66,77,0
1,note_on,78,91,0
1,note_on,78,0,120
1,note_on,66,0,0
1,note_on,65,72,120
1,note_on,77,85,0
1,note_on,77,0,120
1,note_on,65,0,0
1,note_on,63,71,120
1,note_on,75,84,0
1,note_on,75,0,240
1,note_on,63,0,0
1,note_on,78,66,240
1,note_on,82,78,0
1,note_on,82,0,96
1,note_on,83,73,0
1,note_on,83,0,96
1,note_on,82,73,0
1,note_on,82,0,96
1,note_on,81,73,0
1,note_on,81,0,96
1,note_on,82,73,0
1,note_on,82,0,96
1,note_on,78,0,0
1,note_on,71,62,0
1,note_on,83,73,0
1,note_on,83,0,120
1,note_on,71,0,0
1,note_on,70,59,120
1,note_on,82,70,0
1,note_on,82,0,120
1,note_on,70,0,0
1,note_on,68,68,120
1,note_on,80,80,0
1,note_on,80,0,120
1,note_on,68,0,0
1,note_on,66,62,120
1,note_on,78,73,0
1,note_on,78,0,120
1,note_on,66,0,0
1,note_on,65,62,120
1,note_on,77,73,0
1,note_on,77,0,240
1,note_on,65,0,0
1,note_on,66,66,240
1,note_on,70,78,0
1,note_on,70,0,96
1,note_on,71,73,0
1,note_on,71,0,96
1,note_on,70,73,0
1,note_on,70,0,96
1,note_on,69,73,0
1,note_on,69,0,96
1,note_on,70,73,0
1,note_on,70,0,96
1,note_on,66,0,0
1,note_on,68,62,0
1,note_on,71,73,0
1,note_on,71,0,120
1,note_on,68,0,0
1,note_on,66,59,120
1,note_on,70,70,0
1,note_on,70,0,120
1,note_on,66,0,0
1,note_on,65,68,120
1,note_on,68,80,0
1,note_on,68,0,120
1,note_on,65,0,0
1,note_on,63,62,120
1,note_on,66,73,0
1,note_on,66,0,120
1,note_on,63,0,0
1,note_on,58,62,120
1,note_on,65,73,0
1,note_on,65,0,240
1,note_on,58,0,0
1,note_on,54,66,240
1,note_on,58,78,0
1,note_on,58,0,96
1,note_on,59,73,0
1,note_on,59,0,96
1,note_on,58,73,0
1,note_on,58,0,96
1,note_on,57,73,0
1,note_on,57,0,96
1,note_on,58,73,0
1,note_on,58,0,96
1,note_on,54,0,0
1,note_on,56,62,0
1,note_on,59,73,0
1,note_on,59,0,120
1,note_on,56,0,0
1,note_on,54,59,120
1,note_on,58,70,0
1,note_on,58,0,120
1,note_on,54,0,0
1,note_on,53,68,120
1,note_on,56,80,0
1,note_on,56,0,120
1,note_on,53,0,0
1,note_on,51,62,120
1,note_on,54,73,0
1,note_on,54,0,120
1,note_on,51,0,0
1,note_on,46,62,120
1,note_on,53,73,0
1,note_on,53,0,240
1,note_on,46,0,0
1,note_on,51,86,240
1,note_on,51,0,480
1,note_on,55,56,0
1,note_on,58,56,0
1,note_on,63,56,0
1,note_on,67,66,0
1,note_on,67,0,240
1,note_on,55,0,0
1,note_on,58,0,0
1,note_on,63,0,0
1,note_on,79,66,0
1,note_on,75,56,0
1,note_on,70,56,0
1,note_on,67,56,0
1,note_on,67,0,240
1,note_on,79,0,0
1,note_on,75,0,0
1,note_on,70,0,0
1,note_on,91,71,0
1,note_on,87,71,0
1,note_on,82,60,0
1,note_on,79,60,0
1,note_on,79,0,240
1,note_on,91,0,0
1,note_on,87,0,0
1,note_on,82,0,0
1,note_on,103,78,0
1,note_on,99,78,0
1,note_on,94,66,0
1,note_on,91,66,0
1,note_on,91,0,240
1,note_on,103,0,0
1,note_on,99,0,0
1,note_on,94,0,0
1,note_on,46,82,480
1,note_on,58,86,0
1,note_on,46,0,235
1,note_on,58,0,245
1,note_on,55,56,0
1,note_on,58,56,0
1,note_on,63,56,0
1,note_on,67,66,0
1,note_on,67,0,240
1,note_on,55,0,0
1,note_on,58,0,0
1,note_on,63,0,0
1,note_on,79,66,0
1,note_on,75,56,0
1,note_on,70,56,0
1,note_on,67,56,0
1,note_on,67,0,240
1,note_on,79,0,0
1,note_on,75,0,0
1,note_on,70,0,0
1,note_on,91,72,0
1,note_on,87,72,0
1,note_on,82,61,0
1,note_on,79,61,0
1,note_on,79,0,240
1,note_on,91,0,0
1,note_on,87,0,0
1,note_on,82,0,0
1,note_on,103,77,0
1,note_on,99,77,0
1,note_on,94,65,0
1,note_on,91,65,0
1,note_on,91,0,240
1,note_on,103,0,0
1,note_on,99,0,0
1,note_on,94,0,0
1,note_on,43,79,360
1,note_on,55,79,0
1,note_on,55,0,120
1,note_on,43,0,0
1,note_on,44,75,0
1,note_on,56,86,0
1,note_on,56,0,480
1,note_on,44,0,0
1,note_on,53,56,0
1,note_on,58,56,0
1,note_on,62,56,0
1,note_on,65,66,0
1,note_on,65,0,240
1,note_on,53,0,0
1,note_on,58,0,0
1,note_on,62,0,0
1,note_on,77,66,0
1,note_on,74,56,0
1,note_on,70,56,0
1,note_on,65,56,0
1,note_on,65,0,240
1,note_on,77,0,0
1,note_on,74,0,0
1,note_on,70,0,0
1,note_on,89,72,0
1,note_on,86,61,0
1,note_on,82,61,0
1,note_on,77,61,0
1,note_on,77,0,240
1,note_on,89,0,0
1,note_on,86,0,0
1,note_on,82,0,0
1,note_on,101,81,0
1,note_on,98,81,0
1,note_on,94,68,0
1,note_on,89,68,0
1,note_on,89,0,240
1,note_on,101,0,0
1,note_on,98,0,0
1,note_on,94,0,0
1,note_on,46,86,480
1,note_on,58,86,0
1,note_on,58,0,480
1,note_on,46,0,0
1,note_on,55,56,0
1,note_on,58,56,0
1,note_on,63,56,0
1,note_on,67,66,0
1,note_on,67,0,240
1,note_on,55,0,0
1,note_on,58,0,0
1,note_on,63,0,0
1,note_on,79,66,0
1,note_on,75,56,0
1,note_on,70,56,0
1,note_on,67,56,0
1,note_on,67,0,240
1,note_on,79,0,0
1,note_on,75,0,0
1,note_on,70,0,0
1,note_on,91,73,0
1,note_on,87,73,0
1,note_on,82,62,0
1,note_on,79,62,0
1,note_on,79,0,240
1,note_on,91,0,0
1,note_on,87,0,0
1,note_on,82,0,0
1,note_on,103,81,0
1,note_on,99,81,0
1,note_on,94,68,0
1,note_on,91,68,0
1,note_on,91,0,240
1,note_on,103,0,0
1,note_on,99,0,0
1,note_on,94,0,0
1,note_on,46,71,240
1,note_on,46,0,80
1,note_on,48,73,0
1,note_on,48,0,80
1,note_on,50,75,0
1,note_on,50,0,50
1,note_on,51,86,30
1,note_on,51,0,480
1,note_on,63,56,0
1,note_on,58,56,0
1,note_on,55,56,0
1,note_on,67,66,0
1,note_on,67,0,240
1,note_on,63,0,0
1,note_on,58,0,0
1,note_on,55,0,0
1,note_on,67,56,0
1,note_on,70,56,0
1,note_on,79,66,0
1,note_on,75,56,0
1,note_on,75,0,240
1,note_on,67,0,0
1,note_on,70,0,0
1,note_on,79,0,0
1,note_on,82,60,0
1,note_on,79,60,0
1,note_on,91,71,0
1,note_on,87,71,0
1,note_on,87,0,240
1,note_on,82,0,0
1,note_on,79,0,0
1,note_on,91,0,0
1,note_on,91,66,0
1,note_on,99,78,0
1,note_on,103,78,0
1,note_on,94,66,0
1,note_on,94,0,240
1,note_on,91,0,0
1,note_on,99,0,0
1,note_on,103,0,0
1,note_on,58,86,480
1,note_on,46,86,0
1,note_on,46,0,235
1,note_on,58,0,245
1,note_on,67,66,0
1,note_on,55,56,0
1,note_on,58,56,0
1,note_on,63,56,0
1,note_on,63,0,240
1,note_on,67,0,0
1,note_on,55,0,0
1,note_on,58,0,0
1,note_on,67,56,0
1,note_on,79,66,0
1,note_on,75,56,0
1,note_on,70,56,0
1,note_on,70,0,240
1,note_on,67,0,0
1,note_on,79,0,0
1,note_on,75,0,0
1,note_on,91,72,0
1,note_on,82,61,0
1,note_on,87,72,0
1,note_on,79,61,0
1,note_on,79,0,240
1,note_on,91,0,0
1,note_on,82,0,0
1,note_on,87,0,0
1,note_on,103,77,0
1,note_on,94,65,0
1,note_on,99,77,0
1,note_on,91,65,0
1,note_on,91,0,240
1,note_on,103,0,0
1,note_on,94,0,0
1,note_on,99,0,0
1,note_on,55,79,360
1,note_on,43,79,0
1,note_on,43,0,120
1,note_on,55,0,0
1,note_on,44,75,0
1,note_on,56,86,0
1,note_on,56,0,480
1,note_on,44,0,0
1,note_on,53,56,0
1,note_on,58,56,0
1,note_on,62,56,0
1,note_on,65,66,0
1,note_on,65,0,240
1,note_on,53,0,0
1,note_on,58,0,0
1,note_on,62,0,0
1,note_on,77,66,0
1,note_on,74,56,0
1,note_on,70,56,0
1,note_on,65,56,0
1,note_on,65,0,240
1,note_on,77,0,0
1,note_on,74,0,0
1,note_on,70,0,0
1,note_on,89,72,0
1,note_on,86,61,0
1,note_on,82,61,0
1,note_on,77,61,0
1,note_on,77,0,240
1,note_on,89,0,0
1,note_on,86,0,0
1,note_on,82,0,0
1,note_on,101,81,0
1,note_on,98,81,0
1,note_on,94,68,0
1,note_on,89,68,0
1,note_on,89,0,240
1,note_on,101,0,0
1,note_on,98,0,0
1,note_on,94,0,0
1,note_on,51,86,480
1,note_on,55,56,480
1,note_on,58,56,0
1,note_on,63,66,0
1,note_on,63,0,240
1,note_on,58,0,0
1,note_on,55,0,0
1,note_on,75,66,0
1,note_on,70,56,0
1,note_on,67,56,0
1,note_on,67,0,240
1,note_on,51,0,0
1,note_on,75,0,0
1,note_on,70,0,0
1,note_on,87,73,0
1,note_on,82,73,0
1,note_on,79,62,0
1,note_on,79,0,240
1,note_on,82,0,0
1,note_on,87,0,0
1,note_on,99,81,0
1,note_on,94,81,0
1,note_on,91,68,0
1,note_on,91,0,240
1,note_on,94,0,0
1,note_on,99,0,0
1,note_on,63,82,480
1,note_on,51,75,0
1,note_on,51,0,235
1,note_on,55,62,125
1,note_on,55,0,120
1,note_on,63,0,0
1,note_on,58,53,0
1,note_on,63,53,0
1,note_on,67,62,0
1,note_on,67,0,120
1,note_on,63,0,0
1,note_on,58,0,0
1,note_on,67,57,0
1,note_on,67,0,120
1,note_on,79,62,0
1,note_on,75,53,0
1,note_on,70,53,0
1,note_on,70,0,120
1,note_on,75,0,0
1,note_on,79,0,0
1,note_on,79,56,0
1,note_on,79,0,120
1,note_on,91,67,0
1,note_on,87,67,0
1,note_on,82,57,0
1,note_on,82,0,120
1,note_on,87,0,0
1,note_on,91,0,0
1,note_on,79,60,0
1,note_on,79,0,120
1,note_on,91,70,0
1,note_on,87,58,0
1,note_on,82,58,0
1,note_on,82,0,120
1,note_on,87,0,0
1,note_on,91,0,0
1,note_on,91,62,0
1,note_on,91,0,120
1,note_on,103,81,0
1,note_on,99,78,0
1,note_on,94,62,0
1,note_on,94,0,240
1,note_on,99,0,0
1,note_on,103,0,0
1,note_on,70,82,240
1,note_on,58,73,0
1,note_on,55,62,360
1,note_on,55,0,120
1,note_on,58,53,0
1,note_on,63,53,0
1,note_on,67,62,0
1,note_on,67,0,120
1,note_on,58,0,0
1,note_on,63,0,0
1,note_on,67,57,0
1,note_on,58,0,118
1,note_on,70,0,0
1,note_on,67,0,2
1,note_on,79,62,0
1,note_on,75,53,0
1,note_on,70,53,0
1,note_on,70,0,120
1,note_on,75,0,0
1,note_on,79,0,0
1,note_on,79,56,0
1,note_on,79,0,120
1,note_on,91,67,0
1,note_on,87,67,0
1,note_on,82,57,0
1,note_on,82,0,120
1,note_on,87,0,0
1,note_on,91,0,0
1,note_on,79,60,0
1,note_on,79,0,120
1,note_on,91,70,0
1,note_on,87,58,0
1,note_on,82,58,0
1,note_on,82,0,120
1,note_on,87,0,0
1,note_on,91,0,0
1,note_on,91,62,0
1,note_on,91,0,120
1,note_on,103,81,0
1,note_on,99,78,0
1,note_on,94,62,0
1,note_on,94,0,240
1,note_on,99,0,0
1,note_on,103,0,0
1,note_on,55,76,120
1,note_on,67,76,0
1,note_on,67,0,120
1,note_on,55,0,0
1,note_on,68,82,0
1,note_on,56,73,0
1,note_on,53,62,360
1,note_on,53,0,120
1,note_on,56,0,0
1,note_on,68,0,0
1,note_on,58,53,0
1,note_on,62,53,0
1,note_on,65,62,0
1,note_on,65,0,120
1,note_on,62,0,0
1,note_on,58,0,0
1,note_on,65,57,0
1,note_on,65,0,120
1,note_on,77,62,0
1,note_on,74,53,0
1,note_on,70,53,0
1,note_on,70,0,120
1,note_on,74,0,0
1,note_on,77,0,0
1,note_on,77,56,0
1,note_on,77,0,120
1,note_on,89,67,0
1,note_on,86,67,0
1,note_on,82,57,0
1,note_on,82,0,120
1,note_on,86,0,0
1,note_on,89,0,0
1,note_on,77,60,0
1,note_on,77,0,120
1,note_on,89,70,0
1,note_on,86,58,0
1,note_on,82,58,0
1,note_on,82,0,120
1,note_on,86,0,0
1,note_on,89,0,0
1,note_on,89,62,0
1,note_on,89,0,120
1,note_on,101,81,0
1,note_on,98,74,0
1,note_on,94,62,0
1,note_on,94,0,240
1,note_on,98,0,0
1,note_on,101,0,0
1,note_on,70,82,240
1,note_on,58,73,0
1,note_on,55,62,360
1,note_on,55,0,120
1,note_on,58,53,0
1,note_on,63,53,0
1,note_on,67,62,0
1,note_on,67,0,120
1,note_on,58,0,0
1,note_on,63,0,0
1,note_on,67,57,0
1,note_on,58,0,118
1,note_on,70,0,0
1,note_on,67,0,2
1,note_on,79,62,0
1,note_on,75,53,0
1,note_on,70,53,0
1,note_on,70,0,120
1,note_on,75,0,0
1,note_on,79,0,0
1,note_on,79,56,0
1,note_on,79,0,120
1,note_on,91,67,0
1,note_on,87,67,0
1,note_on,82,57,0
1,note_on,82,0,120
1,note_on,87,0,0
1,note_on,91,0,0
1,note_on,79,60,0
1,note_on,79,0,120
1,note_on,91,70,0
1,note_on,87,58,0
1,note_on,82,58,0
1,note_on,82,0,120
1,note_on,87,0,0
1,note_on,91,0,0
1,note_on,91,62,0
1,note_on,91,0,120
1,note_on,103,81,0
1,note_on,99,78,0
1,note_on,94,62,0
1,note_on,94,0,240
1,note_on,99,0,0
1,note_on,103,0,0
1,note_on,46,76,120
1,note_on,58,76,0
1,note_on,58,0,120
1,note_on,46,0,0
1,note_on,63,82,0
1,note_on,51,75,0
1,note_on,51,0,235
1,note_on,55,62,125
1,note_on,55,0,120
1,note_on,63,0,0
1,note_on,58,53,0
1,note_on,63,53,0
1,note_on,67,62,0
1,note_on,67,0,120
1,note_on,63,0,0
1,note_on,58,0,0
1,note_on,67,57,0
1,note_on,67,0,120
1,note_on,79,62,0
1,note_on,75,53,0
1,note_on,70,53,0
1,note_on,70,0,120
1,note_on,75,0,0
1,note_on,79,0,0
1,note_on,79,56,0
1,note_on,79,0,120
1,note_on,91,67,0
1,note_on,87,67,0
1,note_on,82,57,0
1,note_on,82,0,120
1,note_on,87,0,0
1,note_on,91,0,0
1,note_on,79,60,0
1,note_on,79,0,120
1,note_on,91,70,0
1,note_on,87,58,0
1,note_on,82,58,0
1,note_on,82,0,120
1,note_on,87,0,0
1,note_on,91,0,0
1,note_on,91,62,0
1,note_on,91,0,120
1,note_on,103,81,0
1,note_on,99,78,0
1,note_on,94,62,0
1,note_on,94,0,240
1,note_on,99,0,0
1,note_on,103,0,0
1,note_on,70,82,240
1,note_on,58,73,0
1,note_on,55,62,360
1,note_on,55,0,120
1,note_on,58,53,0
1,note_on,63,53,0
1,note_on,67,62,0
1,note_on,67,0,120
1,note_on,58,0,0
1,note_on,63,0,0
1,note_on,67,57,0
1,note_on,58,0,118
1,note_on,70,0,0
1,note_on,67,0,2
1,note_on,79,62,0
1,note_on,75,53,0
1,note_on,70,53,0
1,note_on,70,0,120
1,note_on,75,0,0
1,note_on,79,0,0
1,note_on,79,56,0
1,note_on,79,0,120
1,note_on,91,67,0
1,note_on,87,67,0
1,note_on,82,57,0
1,note_on,82,0,120
1,note_on,87,0,0
1,note_on,91,0,0
1,note_on,79,60,0
1,note_on,79,0,120
1,note_on,91,70,0
1,note_on,87,58,0
1,note_on,82,58,0
1,note_on,82,0,120
1,note_on,87,0,0
1,note_on,91,0,0
1,note_on,91,62,0
1,note_on,91,0,120
1,note_on,103,81,0
1,note_on,99,78,0
1,note_on,94,62,0
1,note_on,94,0,240
1,note_on,99,0,0
1,note_on,103,0,0
1,note_on,55,76,120
1,note_on,67,76,0
1,note_on,67,0,120
1,note_on,55,0,0
1,note_on,68,82,0
1,note_on,56,73,0
1,note_on,53,62,360
1,note_on,53,0,120
1,note_on,56,0,0
1,note_on,68,0,0
1,note_on,58,53,0
1,note_on,62,53,0
1,note_on,65,62,0
1,note_on,65,0,120
1,note_on,62,0,0
1,note_on,58,0,0
1,note_on,65,57,0
1,note_on,65,0,120
1,note_on,77,62,0
1,note_on,74,53,0
1,note_on,70,53,0
1,note_on,70,0,120
1,note_on,74,0,0
1,note_on,77,0,0
1,note_on,77,56,0
1,note_on,77,0,120
1,note_on,89,67,0
1,note_on,86,67,0
1,note_on,82,57,0
1,note_on,82,0,120
1,note_on,86,0,0
1,note_on,89,0,0
1,note_on,77,60,0
1,note_on,77,0,120
1,note_on,89,70,0
1,note_on,86,58,0
1,note_on,82,58,0
1,note_on,82,0,120
1,note_on,86,0,0
1,note_on,89,0,0
1,note_on,89,62,0
1,note_on,89,0,120
1,note_on,101,81,0
1,note_on,98,74,0
1,note_on,94,62,0
1,note_on,94,0,240
1,note_on,98,0,0
1,note_on,101,0,0
1,note_on,63,82,240
1,note_on,51,73,0
1,note_on,51,0,235
1,note_on,55,62,125
1,note_on,55,0,120
1,note_on,63,0,0
1,note_on,58,53,0
1,note_on,63,62,0
1,note_on,63,0,120
1,note_on,58,0,0
1,note_on,67,57,0
1,note_on,67,0,120
1,note_on,75,62,0
1,note_on,70,53,0
1,note_on,70,0,120
1,note_on,75,0,0
1,note_on,79,56,0
1,note_on,79,0,120
1,note_on,87,70,0
1,note_on,82,58,0
1,note_on,82,0,120
1,note_on,87,0,0
1,note_on,79,60,0
1,note_on,79,0,120
1,note_on,87,76,0
1,note_on,82,64,0
1,note_on,82,0,120
1,note_on,87,0,0
1,note_on,91,62,0
1,note_on,91,0,120
1,note_on,99,86,0
1,note_on,94,69,0
1,note_on,94,0,240
1,note_on,99,0,0
1,note_on,75,60,360
1,note_on,75,0,120
1,note_on,87,62,0
1,note_on,80,52,0
1,note_on,80,0,120
1,note_on,87,0,0
1,note_on,87,64,0
1,note_on,87,0,120
1,note_on,99,65,0
1,note_on,92,55,0
1,note_on,92,0,120
1,note_on,99,0,0
1,note_on,87,60,0
1,note_on,87,0,120
1,note_on,99,64,0
1,note_on,92,54,0
1,note_on,92,0,120
1,note_on,99,0,0
1,note_on,87,60,0
1,note_on,87,0,120
1,note_on,70,60,120
1,note_on,70,0,120
1,note_on,82,63,0
1,note_on,75,53,0
1,note_on,75,0,120
1,note_on,82,0,0
1,note_on,82,60,0
1,note_on,82,0,120
1,note_on,94,64,0
1,note_on,87,54,0
1,note_on,87,0,120
1,note_on,94,0,0
1,note_on,82,60,0
1,note_on,82,0,120
1,note_on,94,64,0
1,note_on,87,54,0
1,note_on,87,0,120
1,note_on,94,0,0
1,note_on,82,60,0
1,note_on,82,0,120
1,note_on,70,60,120
1,note_on,70,0,120
1,note_on,82,63,0
1,note_on,74,53,0
1,note_on,74,0,120
1,note_on,82,0,0
1,note_on,82,60,0
1,note_on,82,0,120
1,note_on,94,64,0
1,note_on,86,54,0
1,note_on,86,0,120
1,note_on,94,0,0
1,note_on,82,60,0
1,note_on,82,0,120
1,note_on,94,64,0
1,note_on,86,54,0
1,note_on,86,0,120
1,note_on,94,0,0
1,note_on,82,60,0
1,note_on,82,0,120
1,note_on,70,60,120
1,note_on,70,0,120
1,note_on,82,63,0
1,note_on,75,53,0
1,note_on,75,0,120
1,note_on,82,0,0
1,note_on,82,60,0
1,note_on,82,0,120
1,note_on,94,64,0
1,note_on,87,54,0
1,note_on,87,0,120
1,note_on,94,0,0
1,note_on,82,60,0
1,note_on,82,0,120
1,note_on,94,64,0
1,note_on,87,54,0
1,note_on,87,0,120
1,note_on,94,0,0
1,note_on,82,60,0
1,note_on,82,0,120
1,note_on,75,60,120
1,note_on,75,0,120
1,note_on,87,62,0
1,note_on,80,52,0
1,note_on,80,0,120
1,note_on,87,0,0
1,note_on,87,64,0
1,note_on,87,0,120
1,note_on,99,65,0
1,note_on,92,55,0
1,note_on,92,0,120
1,note_on,99,0,0
1,note_on,87,60,0
1,note_on,87,0,120
1,note_on,99,64,0
1,note_on,92,54,0
1,note_on,92,0,120
1,note_on,99,0,0
1,note_on,87,60,0
1,note_on,87,0,120
1,note_on,70,60,120
1,note_on,70,0,120
1,note_on,82,63,0
1,note_on,75,53,0
1,note_on,75,0,120
1,note_on,82,0,0
1,note_on,82,60,0
1,note_on,82,0,120
1,note_on,94,64,0
1,note_on,87,54,0
1,note_on,87,0,120
1,note_on,94,0,0
1,note_on,82,60,0
1,note_on,82,0,120
1,note_on,94,64,0
1,note_on,87,54,0
1,note_on,87,0,120
1,note_on,94,0,0
1,note_on,82,60,0
1,note_on,82,0,120
1,note_on,70,60,120
1,note_on,70,0,120
1,note_on,82,63,0
1,note_on,74,53,0
1,note_on,74,0,120
1,note_on,82,0,0
1,note_on,82,60,0
1,note_on,82,0,120
1,note_on,94,64,0
1,note_on,86,54,0
1,note_on,86,0,120
1,note_on,94,0,0
1,note_on,82,60,0
1,note_on,82,0,120
1,note_on,94,64,0
1,note_on,86,54,0
1,note_on,86,0,120
1,note_on,94,0,0
1,note_on,82,60,0
1,note_on,82,0,120
1,note_on,87,53,0
1,note_on,94,63,0
1,note_on,94,0,120
1,note_on,87,0,0
1,note_on,82,75,360
1,note_on,82,0,120
1,note_on,97,60,0
1,note_on,97,0,120
1,note_on,87,67,0
1,note_on,87,0,120
1,note_on,97,60,0
1,note_on,97,0,120
1,note_on,80,72,0
1,note_on,80,0,120
1,note_on,96,57,0
1,note_on,96,0,120
1,note_on,87,57,0
1,note_on,87,0,120
1,note_on,96,57,0
1,note_on,96,0,120
1,note_on,79,69,0
1,note_on,79,0,120
1,note_on,94,56,0
1,note_on,94,0,120
1,note_on,77,67,0
1,note_on,77,0,120
1,note_on,92,56,0
1,note_on,92,0,120
1,note_on,75,67,0
1,note_on,75,0,120
1,note_on,91,56,0
1,note_on,91,0,120
1,note_on,74,66,0
1,note_on,74,0,120
1,note_on,90,56,0
1,note_on,90,0,120
1,note_on,75,67,0
1,note_on,75,0,120
1,note_on,91,56,0
1,note_on,91,0,120
1,note_on,76,68,0
1,note_on,76,0,120
1,note_on,91,57,0
1,note_on,91,0,120
1,note_on,77,67,0
1,note_on,77,0,120
1,note_on,92,60,0
1,note_on,92,0,120
1,note_on,76,66,0
1,note_on,76,0,120
1,note_on,91,60,0
1,note_on,91,0,120
1,note_on,77,67,0
1,note_on,77,0,120
1,note_on,92,57,0
1,note_on,92,0,120
1,note_on,78,65,0
1,note_on,78,0,120
1,note_on,93,57,0
1,note_on,93,0,120
1,note_on,79,70,0
1,note_on,79,0,120
1,note_on,94,58,0
1,note_on,94,0,120
1,note_on,87,58,0
1,note_on,87,0,120
1,note_on,94,58,0
1,note_on,94,0,120
1,note_on,82,75,0
1,note_on,82,0,120
1,note_on,97,60,0
1,note_on,97,0,120
1,note_on,87,67,0
1,note_on,87,0,120
1,note_on,97,60,0
1,note_on,97,0,120
1,note_on,80,72,0
1,note_on,80,0,120
1,note_on,96,57,0
1,note_on,96,0,120
1,note_on,87,57,0
1,note_on,87,0,120
1,note_on,96,57,0
1,note_on,96,0,120
1,note_on,79,69,0
1,note_on,79,0,120
1,note_on,94,56,0
1,note_on,94,0,120
1,note_on,77,67,0
1,note_on,77,0,120
1,note_on,92,56,0
1,note_on,92,0,120
1,note_on,75,67,0
1,note_on,75,0,120
1,note_on,91,56,0
1,note_on,91,0,120
1,note_on,74,66,0
1,note_on,74,0,120
1,note_on,90,56,0
1,note_on,90,0,120
1,note_on,75,67,0
1,note_on,75,0,120
1,note_on,91,56,0
1,note_on,91,0,120
1,note_on,76,68,0
1,note_on,76,0,120
1,note_on,91,57,0
1,note_on,91,0,120
1,note_on,77,67,0
1,note_on,77,0,120
1,note_on,92,60,0
1,note_on,92,0,120
1,note_on,76,66,0
1,note_on,76,0,120
1,note_on,91,60,0
1,note_on,91,0,120
1,note_on,77,67,0
1,note_on,77,0,120
1,note_on,92,57,0
1,note_on,92,0,120
1,note_on,78,65,0
1,note_on,78,0,120
1,note_on,93,57,0
1,note_on,93,0,120
1,note_on,79,70,0
1,note_on,79,0,120
1,note_on,94,58,0
1,note_on,94,0,120
1,note_on,87,58,0
1,note_on,87,0,120
1,note_on,94,58,0
1,note_on,94,0,120
1,note_on,82,75,0
1,note_on,82,0,120
1,note_on,97,60,0
1,note_on,97,0,120
1,note_on,87,67,0
1,note_on,87,0,120
1,note_on,97,60,0
1,note_on,97,0,120
1,note_on,80,72,0
1,note_on,80,0,120
1,note_on,96,57,0
1,note_on,96,0,120
1,note_on,87,57,0
1,note_on,87,0,120
1,note_on,96,57,0
1,note_on,96,0,120
1,note_on,79,69,0
1,note_on,79,0,120
1,note_on,94,56,0
1,note_on,94,0,120
1,note_on,77,67,0
1,note_on,77,0,120
1,note_on,92,56,0
1,note_on,92,0,120
1,note_on,75,67,0
1,note_on,75,0,120
1,note_on,91,56,0
1,note_on,91,0,120
1,note_on,74,66,0
1,note_on,74,0,120
1,note_on,90,56,0
1,note_on,90,0,120
1,note_on,75,67,0
1,note_on,75,0,120
1,note_on,91,56,0
1,note_on,91,0,120
1,note_on,79,48,120
1,note_on,91,57,0
1,note_on,91,0,120
1,note_on,79,0,0
1,note_on,80,51,120
1,note_on,92,61,0
1,note_on,92,0,120
1,note_on,80,0,0
1,note_on,79,49,120
1,note_on,91,58,0
1,note_on,91,0,120
1,note_on,79,0,0
1,note_on,80,50,120
1,note_on,92,59,0
1,note_on,92,0,120
1,note_on,80,0,0
1,note_on,79,46,120
1,note_on,91,55,0
1,note_on,91,0,120
1,note_on,79,0,0
1,note_on,80,50,120
1,note_on,92,59,0
1,note_on,92,0,120
1,note_on,80,0,0
1,note_on,79,47,120
1,note_on,91,56,0
1,note_on,91,0,120
1,note_on,79,0,0
1,note_on,80,49,120
1,note_on,92,58,0
1,note_on,92,0,120
1,note_on,80,0,0
1,note_on,82,47,120
1,note_on,79,47,0
1,note_on,91,56,0
1,note_on,91,0,120
1,note_on,79,0,0
1,note_on,82,0,0
1,note_on,83,50,120
1,note_on,80,50,0
1,note_on,92,59,0
1,note_on,92,0,120
1,note_on,80,0,0
1,note_on,83,0,0
1,note_on,82,45,120
1,note_on,79,45,0
1,note_on,91,54,0
1,note_on,91,0,120
1,note_on,79,0,0
1,note_on,82,0,0
1,note_on,83,60,120
1,note_on,80,51,0
1,note_on,92,60,0
1,note_on,92,0,120
1,note_on,80,0,0
1,note_on,83,0,0
1,note_on,82,48,120
1,note_on,79,48,0
1,note_on,91,57,0
1,note_on,91,0,120
1,note_on,79,0,0
1,note_on,82,0,0
1,note_on,83,63,120
1,note_on,80,53,0
1,note_on,92,63,0
1,note_on,92,0,120
1,note_on,80,0,0
1,note_on,83,0,0
1,note_on,82,51,120
1,note_on,79,51,0
1,note_on,91,60,0
1,note_on,91,0,120
1,note_on,79,0,0
1,note_on,82,0,0
1,note_on,83,54,120
1,note_on,80,54,0
1,note_on,92,63,0
1,note_on,92,0,120
1,note_on,80,0,0
1,note_on,83,0,0
1,note_on,88,52,120
1,note_on,79,52,0
1,note_on,91,62,0
1,note_on,91,0,120
1,note_on,79,0,0
1,note_on,88,0,0
1,note_on,89,65,120
1,note_on,80,55,0
1,note_on,92,65,0
1,note_on,92,0,120
1,note_on,80,0,0
1,note_on,89,0,0
1,note_on,88,53,120
1,note_on,79,53,0
1,note_on,91,63,0
1,note_on,91,0,120
1,note_on,79,0,0
1,note_on,88,0,0
1,note_on,89,56,120
1,note_on,80,56,0
1,note_on,92,66,0
1,note_on,92,0,120
1,note_on,80,0,0
1,note_on,89,0,0
1,note_on,88,54,120
1,note_on,79,54,0
1,note_on,91,64,0
1,note_on,91,0,120
1,note_on,79,0,0
1,note_on,88,0,0
1,note_on,89,68,120
1,note_on,80,57,0
1,note_on,92,68,0
1,note_on,92,0,120
1,note_on,80,0,0
1,note_on,89,0,0
1,note_on,88,55,120
1,note_on,79,55,0
1,note_on,91,65,0
1,note_on,91,0,120
1,note_on,79,0,0
1,note_on,88,0,0
1,note_on,89,58,120
1,note_on,80,58,0
1,note_on,92,68,0
1,note_on,92,0,120
1,note_on,80,0,0
1,note_on,89,0,0
1,note_on,88,56,120
1,note_on,79,56,0
1,note_on,91,66,0
1,note_on,91,0,120
1,note_on,79,0,0
1,note_on,88,0,0
1,note_on,89,70,120
1,note_on,80,59,0
1,note_on,92,70,0
1,note_on,92,0,120
1,note_on,80,0,0
1,note_on,89,0,0
1,note_on,88,57,120
1,note_on,79,57,0
1,note_on,91,67,0
1,note_on,91,0,120
1,note_on,79,0,0
1,note_on,88,0,0
1,note_on,89,61,120
1,note_on,80,61,0
1,note_on,92,72,0
1,note_on,92,0,120
1,note_on,80,0,0
1,note_on,89,0,0
1,note_on,88,60,120
1,note_on,79,60,0
1,note_on,91,71,0
1,note_on,91,0,120
1,note_on,79,0,0
1,note_on,88,0,0
1,note_on,89,76,120
1,note_on,80,64,0
1,note_on,92,76,0
1,note_on,92,0,120
1,note_on,80,0,0
1,note_on,89,0,0
1,note_on,88,62,120
1,note_on,79,62,0
1,note_on,91,74,0
1,note_on,91,0,120
1,note_on,79,0,0
1,note_on,88,0,0
1,note_on,89,66,120
1,note_on,80,66,0
1,note_on,92,78,0
1,note_on,92,0,120
1,note_on,80,0,0
1,note_on,89,0,0
1,note_on,87,65,120
1,note_on,79,65,0
1,note_on,91,77,0
1,note_on,91,0,120
1,note_on,79,0,0
1,note_on,87,0,0
1,note_on,80,77,0
1,note_on,86,77,0
1,note_on,92,91,0
1,note_on,92,0,360
1,note_on,86,0,0
1,note_on,80,0,0
1,note_on,94,78,0
1,note_on,94,0,60
1,note_on,92,78,0
1,note_on,92,0,60
1,note_on,79,74,0
1,note_on,91,88,0
1,note_on,91,0,120
1,note_on,79,0,0
1,note_on,77,69,120
1,note_on,89,82,0
1,note_on,89,0,120
1,note_on,77,0,0
1,note_on,82,75,120
1,note_on,94,90,0
1,note_on,94,0,120
1,note_on,82,0,0
1,note_on,74,68,120
1,note_on,86,81,0
1,note_on,86,0,120
1,note_on,74,0,0
1,note_on,75,74,120
1,note_on,87,88,0
1,note_on,87,0,480
1,note_on,75,0,0
1,note_on,80,77,0
1,note_on,86,77,0
1,note_on,92,91,0
1,note_on,92,0,360
1,note_on,86,0,0
1,note_on,80,0,0
1,note_on,94,78,0
1,note_on,94,0,60
1,note_on,92,78,0
1,note_on,92,0,60
1,note_on,79,74,0
1,note_on,91,88,0
1,note_on,91,0,120
1,note_on,79,0,0
1,note_on,77,69,120
1,note_on,89,82,0
1,note_on,89,0,120
1,note_on,77,0,0
1,note_on,82,75,120
1,note_on,94,90,0
1,note_on,94,0,120
1,note_on,82,0,0
1,note_on,74,68,120
1,note_on,86,81,0
1,note_on,86,0,120
1,note_on,74,0,0
1,note_on,75,74,120
1,note_on,87,88,0
1,note_on,87,0,480
1,note_on,75,0,0
1,note_on,53,61,240
1,note_on,57,61,0
1,note_on,63,72,0
1,note_on,65,72,0
1,note_on,65,0,120
1,note_on,53,0,0
1,note_on,57,0,0
1,note_on,63,0,0
1,note_on,58,63,120
1,note_on,53,63,0
1,note_on,62,75,0
1,note_on,65,75,0
1,note_on,65,0,120
1,note_on,58,0,0
1,note_on,53,0,0
1,note_on,62,0,0
1,note_on,86,77,600
1,note_on,82,77,0
1,note_on,74,64,0
1,note_on,77,64,0
1,note_on,77,0,240
1,note_on,86,0,0
1,note_on,82,0,0
1,note_on,74,0,0
1,note_on,98,77,240
1,note_on,94,77,0
1,note_on,89,64,0
1,note_on,86,64,0
1,note_on,86,0,120
1,note_on,98,0,0
1,note_on,94,0,0
1,note_on,89,0,0
1,note_on,91,77,360
1,note_on,87,77,0
1,note_on,79,64,0
1,note_on,82,64,0
1,note_on,82,0,120
1,note_on,91,0,0
1,note_on,87,0,0
1,note_on,79,0,0
1,note_on,103,77,360
1,note_on,99,77,0
1,note_on,94,64,0
1,note_on,91,64,0
1,note_on,91,0,240
1,note_on,103,0,0
1,note_on,99,0,0
1,note_on,94,0,0
1,note_on,74,77,240
1,note_on,70,77,0
1,note_on,62,64,0
1,note_on,65,64,0
1,note_on,65,0,240
1,note_on,74,0,0
1,note_on,70,0,0
1,note_on,62,0,0
1,note_on,86,77,240
1,note_on,82,77,0
1,note_on,77,64,0
1,note_on,74,64,0
1,note_on,74,0,120
1,note_on,86,0,0
1,note_on,82,0,0
1,note_on,77,0,0
1,note_on,79,77,360
1,note_on,75,77,0
1,note_on,67,64,0
1,note_on,70,64,0
1,note_on,70,0,120
1,note_on,79,0,0
1,note_on,75,0,0
1,note_on,67,0,0
1,note_on,91,77,360
1,note_on,87,77,0
1,note_on,82,64,0
1,note_on,79,64,0
1,note_on,79,0,240
1,note_on,91,0,0
1,note_on,87,0,0
1,note_on,82,0,0
1,note_on,53,61,240
1,note_on,57,61,0
1,note_on,63,72,0
1,note_on,65,72,0
1,note_on,65,0,120
1,note_on,53,0,0
1,note_on,57,0,0
1,note_on,63,0,0
1,note_on,53,63,120
1,note_on,62,75,0
1,note_on,65,75,0
1,note_on,58,63,4
1,note_on,65,0,116
1,note_on,53,0,0
1,note_on,62,0,0
1,note_on,58,0,4
1,note_on,85,77,356
1,note_on,77,77,0
1,note_on,82,77,0
1,note_on,89,91,3
1,note_on,82,0,477
1,note_on,85,0,0
1,note_on,77,0,0
1,note_on,76,74,0
1,note_on,88,88,0
1,note_on,89,0,3
1,note_on,88,0,117
1,note_on,76,0,0
1,note_on,77,69,120
1,note_on,89,82,0
1,note_on,89,0,120
1,note_on,77,0,0
1,note_on,91,91,120
1,note_on,79,77,0
1,note_on,82,77,0
1,note_on,82,0,480
1,note_on,79,0,0
1,note_on,91,0,0
1,note_on,82,74,0
1,note_on,77,74,0
1,note_on,89,88,0
1,note_on,89,0,480
1,note_on,77,0,0
1,note_on,82,0,0
1,note_on,53,61,240
1,note_on,57,61,0
1,note_on,63,72,0
1,note_on,65,72,0
1,note_on,65,0,120
1,note_on,53,0,0
1,note_on,57,0,0
1,note_on,63,0,0
1,note_on,53,63,120
1,note_on,62,75,0
1,note_on,65,75,0
1,note_on,58,63,4
1,note_on,65,0,116
1,note_on,53,0,0
1,note_on,62,0,0
1,note_on,58,0,4
1,note_on,82,68,356
1,note_on,79,68,0
1,note_on,91,81,0
1,note_on,91,0,160
1,note_on,79,0,0
1,note_on,82,0,0
1,note_on,77,57,0
1,note_on,89,68,0
1,note_on,89,0,160
1,note_on,77,0,0
1,note_on,76,57,0
1,note_on,88,68,0
1,note_on,88,0,160
1,note_on,76,0,0
1,note_on,75,63,0
1,note_on,87,75,0
1,note_on,87,0,160
1,note_on,75,0,0
1,note_on,74,59,0
1,note_on,86,70,0
1,note_on,86,0,160
1,note_on,74,0,0
1,note_on,73,59,0
1,note_on,85,70,0
1,note_on,85,0,160
1,note_on,73,0,0
1,note_on,72,71,0
1,note_on,84,84,0
1,note_on,84,0,120
1,note_on,72,0,0
1,note_on,84,64,120
1,note_on,96,77,0
1,note_on,96,0,120
1,note_on,84,0,0
1,note_on,72,70,120
1,note_on,84,83,0
1,note_on,84,0,120
1,note_on,72,0,0
1,note_on,84,64,120
1,note_on,96,77,0
1,note_on,96,0,120
1,note_on,84,0,0
1,note_on,53,61,360
1,note_on,57,61,0
1,note_on,63,72,0
1,note_on,65,72,0
1,note_on,65,0,120
1,note_on,53,0,0
1,note_on,57,0,0
1,note_on,63,0,0
1,note_on,53,63,120
1,note_on,62,75,0
1,note_on,65,75,0
1,note_on,58,63,4
1,note_on,65,0,116
1,note_on,53,0,0
1,note_on,62,0,0
1,note_on,58,0,4
1,note_on,82,82,596
1,note_on,73,69,0
1,note_on,70,69,0
1,note_on,70,0,120
1,note_on,73,0,0
1,note_on,82,0,0
1,note_on,94,81,360
1,note_on,85,68,0
1,note_on,82,68,0
1,note_on,82,0,120
1,note_on,85,0,0
1,note_on,94,0,0
1,note_on,82,82,360
1,note_on,75,69,0
1,note_on,70,69,0
1,note_on,70,0,120
1,note_on,75,0,0
1,note_on,82,0,0
1,note_on,94,81,360
1,note_on,85,68,0
1,note_on,82,68,0
1,note_on,82,0,120
1,note_on,85,0,0
1,note_on,94,0,0
1,note_on,53,61,360
1,note_on,57,61,0
1,note_on,63,72,0
1,note_on,65,72,0
1,note_on,65,0,120
1,note_on,53,0,0
1,note_on,57,0,0
1,note_on,63,0,0
1,note_on,53,63,120
1,note_on,62,75,0
1,note_on,65,75,0
1,note_on,58,63,4
1,note_on,65,0,116
1,note_on,53,0,0
1,note_on,62,0,0
1,note_on,58,0,4
1,note_on,73,69,596
1,note_on,70,69,0
1,note_on,77,69,0
1,note_on,82,82,0
1,note_on,82,0,120
1,note_on,73,0,0
1,note_on,70,0,0
1,note_on,77,0,0
1,note_on,82,68,360
1,note_on,89,68,0
1,note_on,85,68,0
1,note_on,94,81,0
1,note_on,94,0,120
1,note_on,82,0,0
1,note_on,89,0,0
1,note_on,85,0,0
1,note_on,79,69,360
1,note_on,84,82,0
1,note_on,76,69,0
1,note_on,72,69,0
1,note_on,72,0,120
1,note_on,79,0,0
1,note_on,84,0,0
1,note_on,76,0,0
1,note_on,96,68,360
1,note_on,101,81,0
1,note_on,93,68,0
1,note_on,89,68,0
1,note_on,89,0,120
1,note_on,96,0,0
1,note_on,101,0,0
1,note_on,93,0,0
1,note_on,53,61,360
1,note_on,57,61,0
1,note_on,63,72,0
1,note_on,65,72,0
1,note_on,65,0,120
1,note_on,53,0,0
1,note_on,57,0,0
1,note_on,63,0,0
1,note_on,53,63,120
1,note_on,62,75,0
1,note_on,65,75,0
1,note_on,58,63,4
1,note_on,65,0,116
1,note_on,53,0,0
1,note_on,62,0,0
1,note_on,58,0,4
1,note_on,74,52,596
1,note_on,74,0,80
1,note_on,77,54,0
1,note_on,77,0,80
1,note_on,82,55,0
1,note_on,82,0,80
1,note_on,86,57,0
1,note_on,86,0,80
1,note_on,89,59,0
1,note_on,89,0,80
1,note_on,94,60,0
1,note_on,94,0,80
1,note_on,98,62,0
1,note_on,98,0,120
1,note_on,79,53,360
1,note_on,79,0,80
1,note_on,82,55,0
1,note_on,82,0,80
1,note_on,87,57,0
1,note_on,87,0,80
1,note_on,91,59,0
1,note_on,91,0,80
1,note_on,94,61,0
1,note_on,94,0,80
1,note_on,99,64,0
1,note_on,99,0,80
1,note_on,103,66,0
1,note_on,103,0,120
1,note_on,70,52,360
1,note_on,70,0,80
1,note_on,73,54,0
1,note_on,73,0,80
1,note_on,78,56,0
1,note_on,78,0,80
1,note_on,82,58,0
1,note_on,82,0,80
1,note_on,85,60,0
1,note_on,85,0,80
1,note_on,90,61,0
1,note_on,90,0,80
1,note_on,94,63,0
1,note_on,94,0,120
1,note_on,71,54,360
1,note_on,71,0,80
1,note_on,75,55,0
1,note_on,75,0,80
1,note_on,78,57,0
1,note_on,78,0,80
1,note_on,83,58,0
1,note_on,83,0,80
1,note_on,87,60,0
1,note_on,87,0,80
1,note_on,90,61,0
1,note_on,90,0,80
1,note_on,95,63,0
1,note_on,95,0,120
1,note_on,66,54,360
1,note_on,66,0,80
1,note_on,69,56,0
1,note_on,69,0,80
1,note_on,74,57,0
1,note_on,74,0,80
1,note_on,78,58,0
1,note_on,78,0,80
1,note_on,81,59,0
1,note_on,81,0,80
1,note_on,86,60,0
1,note_on,86,0,80
1,note_on,90,62,0
1,note_on,90,0,120
1,note_on,67,54,360
1,note_on,67,0,80
1,note_on,71,55,0
1,note_on,71,0,80
1,note_on,74,57,0
1,note_on,74,0,80
1,note_on,79,58,0
1,note_on,79,0,80
1,note_on,83,59,0
1,note_on,83,0,80
1,note_on,86,60,0
1,note_on,86,0,80
1,note_on,91,62,0
1,note_on,91,0,120
1,note_on,59,45,240
1,note_on,71,54,0
1,note_on,71,0,120
1,note_on,59,0,0
1,note_on,77,55,120
1,note_on,65,46,0
1,note_on,65,0,120
1,note_on,77,0,0
1,note_on,72,56,120
1,note_on,60,47,0
1,note_on,60,0,120
1,note_on,72,0,0
1,note_on,78,56,120
1,note_on,66,47,0
1,note_on,66,0,120
1,note_on,78,0,0
1,note_on,75,60,120
1,note_on,63,51,0
1,note_on,63,0,120
1,note_on,75,0,0
1,note_on,82,60,120
1,note_on,70,51,0
1,note_on,70,0,120
1,note_on,82,0,0
1,note_on,79,61,120
1,note_on,67,51,0
1,note_on,67,0,120
1,note_on,79,0,0
1,note_on,87,61,120
1,note_on,75,51,0
1,note_on,75,0,120
1,note_on,87,0,0
1,note_on,82,62,120
1,note_on,70,52,0
1,note_on,70,0,120
1,note_on,82,0,0
1,note_on,89,62,120
1,note_on,77,52,0
1,note_on,77,0,120
1,note_on,89,0,0
1,note_on,86,63,120
1,note_on,74,53,0
1,note_on,74,0,120
1,note_on,86,0,0
1,note_on,94,63,120
1,note_on,82,53,0
1,note_on,82,0,120
1,note_on,94,0,0
1,note_on,74,52,240
1,note_on,74,0,80
1,note_on,77,54,0
1,note_on,77,0,80
1,note_on,82,55,0
1,note_on,82,0,80
1,note_on,86,57,0
1,note_on,86,0,80
1,note_on,89,59,0
1,note_on,89,0,80
1,note_on,94,60,0
1,note_on,94,0,80
1,note_on,98,62,0
1,note_on,98,0,120
1,note_on,79,53,360
1,note_on,79,0,80
1,note_on,82,55,0
1,note_on,82,0,80
1,note_on,87,57,0
1,note_on,87,0,80
1,note_on,91,59,0
1,note_on,91,0,80
1,note_on,94,61,0
1,note_on,94,0,80
1,note_on,99,64,0
1,note_on,99,0,80
1,note_on,103,66,0
1,note_on,103,0,120
1,note_on,70,52,360
1,note_on,70,0,80
1,note_on,73,54,0
1,note_on,73,0,80
1,note_on,78,56,0
1,note_on,78,0,80
1,note_on,82,58,0
1,note_on,82,0,80
1,note_on,85,60,0
1,note_on,85,0,80
1,note_on,90,61,0
1,note_on,90,0,80
1,note_on,94,63,0
1,note_on,94,0,120
1,note_on,71,54,360
1,note_on,71,0,80
1,note_on,75,55,0
1,note_on,75,0,80
1,note_on,78,57,0
1,note_on,78,0,80
1,note_on,83,58,0
1,note_on,83,0,80
1,note_on,87,60,0
1,note_on,87,0,80
1,note_on,90,61,0
1,note_on,90,0,80
1,note_on,95,63,0
1,note_on,95,0,120
1,note_on,66,54,360
1,note_on,66,0,80
1,note_on,68,56,0
1,note_on,68,0,80
1,note_on,74,57,0
1,note_on,74,0,80
1,note_on,78,58,0
1,note_on,78,0,80
1,note_on,80,59,0
1,note_on,80,0,80
1,note_on,86,60,0
1,note_on,86,0,80
1,note_on,90,62,0
1,note_on,90,0,120
1,note_on,67,54,360
1,note_on,67,0,80
1,note_on,71,55,0
1,note_on,71,0,80
1,note_on,74,57,0
1,note_on,74,0,80
1,note_on,79,58,0
1,note_on,79,0,80
1,note_on,83,59,0
1,note_on,83,0,80
1,note_on,86,60,0
1,note_on,86,0,80
1,note_on,91,62,0
1,note_on,91,0,120
1,note_on,59,45,240
1,note_on,71,54,0
1,note_on,71,0,120
1,note_on,59,0,0
1,note_on,77,55,120
1,note_on,65,46,0
1,note_on,65,0,120
1,note_on,77,0,0
1,note_on,72,56,120
1,note_on,60,47,0
1,note_on,60,0,120
1,note_on,72,0,0
1,note_on,78,56,120
1,note_on,66,47,0
1,note_on,66,0,120
1,note_on,78,0,0
1,note_on,75,57,120
1,note_on,63,48,0
1,note_on,63,0,120
1,note_on,75,0,0
1,note_on,82,57,120
1,note_on,70,48,0
1,note_on,70,0,120
1,note_on,82,0,0
1,note_on,79,57,120
1,note_on,67,48,0
1,note_on,67,0,120
1,note_on,79,0,0
1,note_on,87,58,120
1,note_on,75,49,0
1,note_on,75,0,120
1,note_on,87,0,0
1,note_on,82,59,120
1,note_on,70,50,0
1,note_on,70,0,120
1,note_on,82,0,0
1,note_on,91,59,120
1,note_on,79,50,0
1,note_on,79,0,120
1,note_on,91,0,0
1,note_on,87,55,120
1,note_on,75,55,0
1,note_on,75,0,120
1,note_on,87,0,0
1,note_on,94,55,120
1,note_on,82,55,0
1,note_on,82,0,120
1,note_on,94,0,0
1,note_on,92,50,120
1,note_on,80,50,0
1,note_on,80,0,120
1,note_on,92,0,0
1,note_on,89,50,120
1,note_on,77,50,0
1,note_on,77,0,120
1,note_on,89,0,0
1,note_on,86,50,120
1,note_on,74,50,0
1,note_on,74,0,120
1,note_on,86,0,0
1,note_on,82,50,120
1,note_on,70,50,0
1,note_on,70,0,120
1,note_on,82,0,0
1,note_on,80,50,120
1,note_on,68,50,0
1,note_on,68,0,120
1,note_on,80,0,0
1,note_on,77,50,120
1,note_on,65,50,0
1,note_on,65,0,120
1,note_on,77,0,0
1,note_on,74,51,120
1,note_on,62,51,0
1,note_on,62,0,120
1,note_on,74,0,0
1,note_on,65,53,120
1,note_on,77,53,0
1,note_on,77,0,120
1,note_on,65,0,0
1,note_on,80,56,120
1,note_on,68,56,0
1,note_on,68,0,120
1,note_on,80,0,0
1,note_on,82,58,120
1,note_on,70,58,0
1,note_on,70,0,120
1,note_on,82,0,0
1,note_on,86,61,120
1,note_on,74,61,0
1,note_on,74,0,120
1,note_on,86,0,0
1,note_on,77,64,120
1,note_on,89,64,0
1,note_on,89,0,120
1,note_on,77,0,0
1,note_on,92,67,120
1,note_on,80,67,0
1,note_on,80,0,120
1,note_on,92,0,0
1,note_on,94,70,120
1,note_on,82,70,0
1,note_on,82,0,120
1,note_on,94,0,0
1,note_on,96,73,120
1,note_on,84,73,0
1,note_on,84,0,120
1,note_on,96,0,0
1,note_on,86,75,120
1,note_on,98,75,0
1,note_on,98,0,120
1,note_on,86,0,0
1,note_on,99,82,120
1,note_on,87,70,0
1,note_on,87,0,120
1,note_on,99,0,0
1,note_on,101,73,120
1,note_on,98,73,0
1,note_on,94,62,0
1,note_on,89,62,0
1,note_on,89,0,120
1,note_on,101,0,0
1,note_on,98,0,0
1,note_on,94,0,0
1,note_on,103,77,120
1,note_on,99,77,0
1,note_on,94,66,0
1,note_on,91,66,0
1,note_on,91,0,120
1,note_on,103,0,0
1,note_on,99,0,0
1,note_on,94,0,0
1,note_on,101,77,120
1,note_on,98,77,0
1,note_on,94,66,0
1,note_on,89,66,0
1,note_on,89,0,120
1,note_on,101,0,0
1,note_on,98,0,0
1,note_on,94,0,0
1,note_on,103,77,120
1,note_on,99,77,0
1,note_on,94,66,0
1,note_on,91,66,0
1,note_on,91,0,120
1,note_on,103,0,0
1,note_on,99,0,0
1,note_on,94,0,0
1,note_on,101,77,120
1,note_on,98,77,0
1,note_on,94,66,0
1,note_on,89,66,0
1,note_on,89,0,120
1,note_on,101,0,0
1,note_on,98,0,0
1,note_on,94,0,0
1,note_on,103,77,120
1,note_on,99,77,0
1,note_on,91,66,0
1,note_on,94,66,0
1,note_on,94,0,120
1,note_on,103,0,0
1,note_on,99,0,0
1,note_on,91,0,0
1,note_on,101,77,120
1,note_on,98,77,0
1,note_on,94,66,0
1,note_on,89,66,0
1,note_on,89,0,120
1,note_on,101,0,0
1,note_on,98,0,0
1,note_on,94,0,0
1,note_on,103,77,120
1,note_on,99,77,0
1,note_on,94,66,0
1,note_on,91,66,0
1,note_on,91,0,120
1,note_on,103,0,0
1,note_on,99,0,0
1,note_on,94,0,0
1,note_on,101,77,120
1,note_on,98,77,0
1,note_on,94,66,0
1,note_on,89,66,0
1,note_on,89,0,120
1,note_on,101,0,0
1,note_on,98,0,0
1,note_on,94,0,0
1,note_on,103,77,120
1,note_on,99,77,0
1,note_on,91,66,0
1,note_on,94,66,0
1,note_on,94,0,120
1,note_on,103,0,0
1,note_on,99,0,0
1,note_on,91,0,0
1,note_on,101,77,120
1,note_on,98,77,0
1,note_on,94,66,0
1,note_on,89,66,0
1,note_on,89,0,120
1,note_on,101,0,0
1,note_on,98,0,0
1,note_on,94,0,0
1,note_on,103,77,120
1,note_on,99,77,0
1,note_on,94,66,0
1,note_on,91,66,0
1,note_on,91,0,120
1,note_on,103,0,0
1,note_on,99,0,0
1,note_on,94,0,0
1,note_on,101,77,120
1,note_on,98,77,0
1,note_on,94,66,0
1,note_on,89,66,0
1,note_on,89,0,120
1,note_on,101,0,0
1,note_on,98,0,0
1,note_on,94,0,0
1,note_on,103,77,120
1,note_on,99,77,0
1,note_on,91,66,0
1,note_on,94,66,0
1,note_on,94,0,120
1,note_on,103,0,0
1,note_on,99,0,0
1,note_on,91,0,0
1,note_on,101,77,120
1,note_on,98,77,0
1,note_on,94,66,0
1,note_on,89,66,0
1,note_on,89,0,120
1,note_on,101,0,0
1,note_on,98,0,0
1,note_on,94,0,0
1,note_on,91,77,0
1,note_on,94,77,0
1,note_on,99,77,0
1,note_on,103,93,0
1,note_on,103,0,240
1,note_on,91,0,0
1,note_on,94,0,0
1,note_on,99,0,0
1,note_on,70,68,120
1,note_on,67,68,0
1,note_on,75,68,0
1,note_on,79,80,0
1,note_on,79,0,120
1,note_on,70,0,0
1,note_on,67,0,0
1,note_on,75,0,0
1,note_on,67,75,0
1,note_on,70,75,0
1,note_on,75,75,0
1,note_on,79,89,0
1,note_on,79,0,120
1,note_on,67,0,0
1,note_on,70,0,0
1,note_on,75,0,0
1,note_on,55,70,240
1,note_on,58,70,0
1,note_on,63,82,0
1,note_on,63,0,120
1,note_on,58,0,0
1,note_on,55,0,0
1,note_on,55,76,0
1,note_on,58,76,0
1,note_on,63,91,0
1,note_on,63,0,120
1,note_on,58,0,0
1,note_on,55,0,0
1,note_on,70,68,240
1,note_on,75,68,0
1,note_on,82,80,0
1,note_on,82,0,120
1,note_on,75,0,0
1,note_on,70,0,0
1,note_on,70,75,0
1,note_on,75,75,0
1,note_on,82,89,0
1,note_on,82,0,120
1,note_on,75,0,0
1,note_on,70,0,0
1,note_on,55,70,240
1,note_on,58,70,0
1,note_on,63,82,0
1,note_on,63,0,120
1,note_on,58,0,0
1,note_on,55,0,0
1,note_on,55,76,0
1,note_on,58,76,0
1,note_on,63,91,0
1,note_on,63,0,120
1,note_on,58,0,0
1,note_on,55,0,0
1,note_on,75,84,840
1,note_on,79,84,0
1,note_on,87,99,0
1,note_on,87,0,120
1,note_on,79,0,0
1,note_on,75,0,0
1,note_on,87,84,840
1,note_on,91,84,0
1,note_on,99,99,0
1,note_on,99,0,120
1,note_on,91,0,0
1,note_on,87,0,0
2,note_on,34,61,1800
2,note_on,34,0,120
2,note_on,39,70,0
2,note_on,27,59,0
2,note_on,27,0,840
2,note_on,39,0,0
2,note_on,43,61,0
2,note_on,31,51,0
2,note_on,31,0,120
2,note_on,43,0,0
2,note_on,44,66,0
2,note_on,32,56,0
2,note_on,32,0,120
2,note_on,44,0,0
2,note_on,45,64,360
2,note_on,33,55,0
2,note_on,33,0,120
2,note_on,45,0,0
2,note_on,46,70,360
2,note_on,34,59,0
2,note_on,34,0,960
2,note_on,46,0,0
2,note_on,67,67,0
2,note_on,63,56,0
2,note_on,58,56,0
2,note_on,55,56,0
2,note_on,55,0,120
2,note_on,67,0,0
2,note_on,63,0,0
2,note_on,58,0,0
2,note_on,34,61,720
2,note_on,34,0,120
2,note_on,39,70,0
2,note_on,27,59,0
2,note_on,27,0,840
2,note_on,39,0,0
2,note_on,43,61,0
2,note_on,31,50,0
2,note_on,31,0,120
2,note_on,43,0,0
2,note_on,46,67,0
2,note_on,34,56,0
2,note_on,34,0,120
2,note_on,46,0,0
2,note_on,48,66,360
2,note_on,36,55,0
2,note_on,36,0,120
2,note_on,48,0,0
2,note_on,49,70,360
2,note_on,37,59,0
2,note_on,37,0,960
2,note_on,49,0,0
2,note_on,70,67,0
2,note_on,67,56,0
2,note_on,63,56,0
2,note_on,58,56,0
2,note_on,58,0,120
2,note_on,70,0,0
2,note_on,67,0,0
2,note_on,63,0,0
2,note_on,24,49,720
2,note_on,36,61,0
2,note_on,36,0,120
2,note_on,24,0,0
2,note_on,39,70,0
2,note_on,27,59,0
2,note_on,27,0,840
2,note_on,39,0,0
2,note_on,44,52,0
2,note_on,32,44,0
2,note_on,32,0,120
2,note_on,44,0,0
2,note_on,48,56,0
2,note_on,36,47,0
2,note_on,36,0,320
2,note_on,48,0,0
2,note_on,49,59,0
2,note_on,37,49,0
2,note_on,37,0,320
2,note_on,49,0,0
2,note_on,50,63,0
2,note_on,38,53,0
2,note_on,38,0,320
2,note_on,50,0,0
2,note_on,51,70,0
2,note_on,39,59,0
2,note_on,39,0,960
2,note_on,51,0,0
2,note_on,72,67,0
2,note_on,68,56,0
2,note_on,63,56,0
2,note_on,60,56,0
2,note_on,60,0,120
2,note_on,72,0,0
2,note_on,68,0,0
2,note_on,63,0,0
2,note_on,24,49,720
2,note_on,36,61,0
2,note_on,36,0,120
2,note_on,24,0,0
2,note_on,39,70,0
2,note_on,27,59,0
2,note_on,27,0,840
2,note_on,39,0,0
2,note_on,44,56,0
2,note_on,32,56,0
2,note_on,32,0,120
2,note_on,44,0,0
2,note_on,48,53,0
2,note_on,36,45,0
2,note_on,36,0,240
2,note_on,48,0,0
2,note_on,51,58,0
2,note_on,39,49,0
2,note_on,39,0,240
2,note_on,51,0,0
2,note_on,52,62,0
2,note_on,40,52,0
2,note_on,40,0,240
2,note_on,52,0,0
2,note_on,53,68,0
2,note_on,41,57,0
2,note_on,41,0,240
2,note_on,53,0,0
2,note_on,54,70,0
2,note_on,42,59,0
2,note_on,42,0,960
2,note_on,54,0,0
2,note_on,75,67,0
2,note_on,72,56,0
2,note_on,66,56,0
2,note_on,63,56,0
2,note_on,63,0,120
2,note_on,75,0,0
2,note_on,72,0,0
2,note_on,66,0,0
2,note_on,54,28,1000
2,note_on,60,28,0
2,note_on,60,0,48
2,note_on,54,0,0
2,note_on,56,29,112
2,note_on,62,29,0
2,note_on,62,0,48
2,note_on,56,0,0
2,note_on,57,33,112
2,note_on,63,33,0
2,note_on,63,0,48
2,note_on,57,0,0
2,note_on,59,30,112
2,note_on,65,30,0
2,note_on,65,0,48
2,note_on,59,0,0
2,note_on,60,30,112
2,note_on,66,30,0
2,note_on,66,0,48
2,note_on,60,0,0
2,note_on,62,34,112
2,note_on,68,34,0
2,note_on,68,0,48
2,note_on,62,0,0
2,note_on,63,29,112
2,note_on,69,29,0
2,note_on,69,0,48
2,note_on,63,0,0
2,note_on,65,30,112
2,note_on,71,30,0
2,note_on,71,0,48
2,note_on,65,0,0
2,note_on,66,35,112
2,note_on,72,35,0
2,note_on,72,0,48
2,note_on,66,0,0
2,note_on,68,33,112
2,note_on,74,33,0
2,note_on,74,0,48
2,note_on,68,0,0
2,note_on,69,33,112
2,note_on,75,33,0
2,note_on,75,0,48
2,note_on,69,0,0
2,note_on,71,38,112
2,note_on,77,38,0
2,note_on,77,0,48
2,note_on,71,0,0
2,note_on,72,38,112
2,note_on,78,38,0
2,note_on,78,0,48
2,note_on,72,0,0
2,note_on,74,39,112
2,note_on,80,39,0
2,note_on,80,0,48
2,note_on,74,0,0
2,note_on,75,39,112
2,note_on,81,39,0
2,note_on,81,0,48
2,note_on,75,0,0
2,note_on,77,40,112
2,note_on,83,40,0
2,note_on,83,0,48
2,note_on,77,0,0
2,note_on,78,41,112
2,note_on,84,41,0
2,note_on,84,0,48
2,note_on,78,0,0
2,note_on,80,42,112
2,note_on,86,42,0
2,note_on,86,0,48
2,note_on,80,0,0
2,note_on,81,43,112
2,note_on,87,43,0
2,note_on,87,0,48
2,note_on,81,0,0
2,note_on,82,47,112
2,note_on,88,47,0
2,note_on,88,0,48
2,note_on,82,0,0
2,note_on,83,48,112
2,note_on,89,48,0
2,note_on,89,0,36
2,note_on,83,0,0
2,note_on,84,49,84
2,note_on,90,49,0
2,note_on,90,0,36
2,note_on,84,0,0
2,note_on,85,51,84
2,note_on,91,51,0
2,note_on,91,0,36
2,note_on,85,0,0
2,note_on,86,52,84
2,note_on,92,52,0
2,note_on,92,0,36
2,note_on,86,0,0
2,note_on,93,57,84
2,note_on,87,57,0
2,note_on,87,0,36
2,note_on,93,0,0
2,note_on,66,33,1884
2,note_on,66,0,480
2,note_on,65,38,0
2,note_on,65,0,240
2,note_on,63,38,0
2,note_on,63,0,150
2,note_on,62,26,0
2,note_on,65,31,30
2,note_on,65,0,300
2,note_on,62,0,0
2,note_on,61,36,1680
2,note_on,61,0,480
2,note_on,60,38,0
2,note_on,60,0,240
2,note_on,58,38,0
2,note_on,58,0,150
2,note_on,57,26,0
2,note_on,60,31,30
2,note_on,57,0,300
2,note_on,56,30,240
2,note_on,56,0,240
2,note_on,60,0,240
2,note_on,59,36,960
2,note_on,44,30,0
2,note_on,44,0,960
2,note_on,59,0,0
2,note_on,55,31,0
2,note_on,46,26,0
2,note_on,46,0,960
2,note_on,55,0,0
2,note_on,54,31,0
2,note_on,46,26,0
2,note_on,46,0,960
2,note_on,54,0,0
2,note_on,47,31,0
2,note_on,34,26,0
2,note_on,47,0,480
2,note_on,46,31,0
2,note_on,46,0,480
2,note_on,34,0,0
2,note_on,39,35,1920
2,note_on,39,0,120
2,note_on,46,33,300
2,note_on,55,34,30
2,note_on,63,35,30
2,note_on,63,0,60
2,note_on,55,0,0
2,note_on,46,0,0
2,note_on,46,33,840
2,note_on,55,34,30
2,note_on,63,36,30
2,note_on,63,0,60
2,note_on,55,0,0
2,note_on,46,0,0
2,note_on,39,35,420
2,note_on,39,0,120
2,note_on,46,33,300
2,note_on,55,34,30
2,note_on,63,36,30
2,note_on,63,0,60
2,note_on,55,0,0
2,note_on,46,0,0
2,note_on,46,35,840
2,note_on,55,37,30
2,note_on,63,38,30
2,note_on,63,0,60
2,note_on,55,0,0
2,note_on,46,0,0
2,note_on,39,38,420
2,note_on,39,0,120
2,note_on,46,37,300
2,note_on,55,38,30
2,note_on,63,39,30
2,note_on,63,0,60
2,note_on,55,0,0
2,note_on,46,0,0
2,note_on,46,37,840
2,note_on,55,38,30
2,note_on,63,39,30
2,note_on,63,0,60
2,note_on,55,0,0
2,note_on,46,0,0
2,note_on,39,38,420
2,note_on,39,0,120
2,note_on,46,36,300
2,note_on,55,38,30
2,note_on,63,40,30
2,note_on,63,0,60
2,note_on,55,0,0
2,note_on,46,0,0
2,note_on,46,38,840
2,note_on,55,39,30
2,note_on,63,41,30
2,note_on,63,0,60
2,note_on,55,0,0
2,note_on,46,0,0
2,note_on,39,38,420
2,note_on,39,0,120
2,note_on,46,35,270
2,note_on,53,37,30
2,note_on,56,39,30
2,note_on,62,40,30
2,note_on,62,0,60
2,note_on,46,0,0
2,note_on,53,0,0
2,note_on,56,0,0
2,note_on,53,38,840
2,note_on,46,38,0
2,note_on,56,39,30
2,note_on,62,40,30
2,note_on,62,0,60
2,note_on,53,0,0
2,note_on,46,0,0
2,note_on,56,0,0
2,note_on,39,38,420
2,note_on,39,0,120
2,note_on,46,39,300
2,note_on,55,41,30
2,note_on,63,42,30
2,note_on,63,0,60
2,note_on,55,0,0
2,note_on,46,0,0
2,note_on,46,37,840
2,note_on,55,39,30
2,note_on,63,40,30
2,note_on,63,0,60
2,note_on,55,0,0
2,note_on,46,0,0
2,note_on,39,38,420
2,note_on,39,0,120
2,note_on,46,38,300
2,note_on,55,39,30
2,note_on,63,41,30
2,note_on,63,0,60
2,note_on,55,0,0
2,note_on,46,0,0
2,note_on,46,38,840
2,note_on,55,40,30
2,note_on,63,41,30
2,note_on,63,0,60
2,note_on,55,0,0
2,note_on,46,0,0
2,note_on,39,38,420
2,note_on,39,0,120
2,note_on,46,38,300
2,note_on,55,39,30
2,note_on,63,41,30
2,note_on,63,0,60
2,note_on,55,0,0
2,note_on,46,0,0
2,note_on,46,38,840
2,note_on,55,40,30
2,note_on,63,42,30
2,note_on,63,0,60
2,note_on,55,0,0
2,note_on,46,0,0
2,note_on,39,38,420
2,note_on,39,0,120
2,note_on,46,37,270
2,note_on,53,38,30
2,note_on,56,39,30
2,note_on,62,41,30
2,note_on,62,0,60
2,note_on,46,0,0
2,note_on,53,0,0
2,note_on,56,0,0
2,note_on,46,36,840
2,note_on,53,38,30
2,note_on,56,39,30
2,note_on,56,0,60
2,note_on,53,0,0
2,note_on,46,0,0
2,note_on,39,38,420
2,note_on,39,0,120
2,note_on,46,35,300
2,note_on,55,38,30
2,note_on,63,41,30
2,note_on,63,0,60
2,note_on,55,0,0
2,note_on,46,0,0
2,note_on,46,34,840
2,note_on,55,37,30
2,note_on,63,39,30
2,note_on,63,0,60
2,note_on,55,0,0
2,note_on,46,0,0
2,note_on,39,38,420
2,note_on,39,0,120
2,note_on,46,36,300
2,note_on,55,39,30
2,note_on,63,42,30
2,note_on,63,0,60
2,note_on,55,0,0
2,note_on,46,0,0
2,note_on,46,36,840
2,note_on,55,38,30
2,note_on,63,41,30
2,note_on,63,0,60
2,note_on,55,0,0
2,note_on,46,0,0
2,note_on,39,48,420
2,note_on,39,0,120
2,note_on,46,42,300
2,note_on,55,46,30
2,note_on,63,48,30
2,note_on,63,0,60
2,note_on,55,0,0
2,note_on,46,0,0
2,note_on,46,39,840
2,note_on,55,41,30
2,note_on,63,44,30
2,note_on,63,0,60
2,note_on,55,0,0
2,note_on,46,0,0
2,note_on,39,38,420
2,note_on,39,0,120
2,note_on,46,39,300
2,note_on,55,42,30
2,note_on,63,46,30
2,note_on,63,0,60
2,note_on,55,0,0
2,note_on,46,0,0
2,note_on,46,35,840
2,note_on,55,37,30
2,note_on,63,38,30
2,note_on,63,0,60
2,note_on,55,0,0
2,note_on,46,0,0
2,note_on,39,35,420
2,note_on,39,0,120
2,note_on,46,31,270
2,note_on,53,33,30
2,note_on,56,34,30
2,note_on,62,36,30
2,note_on,62,0,60
2,note_on,46,0,0
2,note_on,53,0,0
2,note_on,56,0,0
2,note_on,46,32,840
2,note_on,53,32,0
2,note_on,56,34,30
2,note_on,62,36,30
2,note_on,62,0,60
2,note_on,46,0,0
2,note_on,53,0,0
2,note_on,56,0,0
2,note_on,39,35,420
2,note_on,39,0,120
2,note_on,46,35,300
2,note_on,55,37,30
2,note_on,63,39,30
2,note_on,63,0,60
2,note_on,55,0,0
2,note_on,46,0,0
2,note_on,46,37,840
2,note_on,55,39,30
2,note_on,63,41,30
2,note_on,63,0,60
2,note_on,55,0,0
2,note_on,46,0,0
2,note_on,39,53,420
2,note_on,39,0,120
2,note_on,46,42,300
2,note_on,55,45,30
2,note_on,63,48,30
2,note_on,63,0,60
2,note_on,55,0,0
2,note_on,46,0,0
2,note_on,46,44,840
2,note_on,55,46,30
2,note_on,63,47,30
2,note_on,63,0,60
2,note_on,55,0,0
2,note_on,46,0,0
2,note_on,39,48,420
2,note_on,39,0,120
2,note_on,46,36,300
2,note_on,55,38,30
2,note_on,63,40,30
2,note_on,63,0,60
2,note_on,55,0,0
2,note_on,46,0,0
2,note_on,46,35,840
2,note_on,55,37,30
2,note_on,63,38,30
2,note_on,63,0,60
2,note_on,55,0,0
2,note_on,46,0,0
2,note_on,39,35,420
2,note_on,39,0,120
2,note_on,46,31,270
2,note_on,53,33,30
2,note_on,56,34,30
2,note_on,62,36,30
2,note_on,62,0,60
2,note_on,46,0,0
2,note_on,53,0,0
2,note_on,56,0,0
2,note_on,46,32,840
2,note_on,53,32,0
2,note_on,56,34,30
2,note_on,62,36,30
2,note_on,62,0,60
2,note_on,46,0,0
2,note_on,53,0,0
2,note_on,56,0,0
2,note_on,39,35,420
2,note_on,39,0,120
2,note_on,46,35,300
2,note_on,55,37,30
2,note_on,63,39,30
2,note_on,63,0,60
2,note_on,55,0,0
2,note_on,46,0,0
2,note_on,46,35,840
2,note_on,55,37,30
2,note_on,63,39,30
2,note_on,63,0,60
2,note_on,55,0,0
2,note_on,46,0,0
2,note_on,39,36,420
2,note_on,39,0,120
2,note_on,48,36,300
2,note_on,56,38,30
2,note_on,63,40,30
2,note_on,63,0,60
2,note_on,56,0,0
2,note_on,48,0,0
2,note_on,51,35,840
2,note_on,58,37,30
2,note_on,63,39,30
2,note_on,63,0,60
2,note_on,58,0,0
2,note_on,51,0,0
2,note_on,39,36,420
2,note_on,39,0,120
2,note_on,46,36,270
2,note_on,53,38,30
2,note_on,56,38,30
2,note_on,62,40,30
2,note_on,62,0,60
2,note_on,46,0,0
2,note_on,53,0,0
2,note_on,56,0,0
2,note_on,51,35,840
2,note_on,55,37,30
2,note_on,63,39,30
2,note_on,63,0,60
2,note_on,55,0,0
2,note_on,51,0,0
2,note_on,39,36,420
2,note_on,39,0,120
2,note_on,48,36,300
2,note_on,56,38,30
2,note_on,63,40,30
2,note_on,63,0,60
2,note_on,56,0,0
2,note_on,48,0,0
2,note_on,51,35,840
2,note_on,58,37,30
2,note_on,63,39,30
2,note_on,63,0,60
2,note_on,58,0,0
2,note_on,51,0,0
2,note_on,39,36,420
2,note_on,39,0,120
2,note_on,46,36,270
2,note_on,53,38,30
2,note_on,56,38,30
2,note_on,62,40,30
2,note_on,62,0,60
2,note_on,46,0,0
2,note_on,53,0,0
2,note_on,56,0,0
2,note_on,51,35,840
2,note_on,55,37,30
2,note_on,63,39,30
2,note_on,63,0,60
2,note_on,55,0,0
2,note_on,51,0,0
2,note_on,39,36,420
2,note_on,39,0,120
2,note_on,48,36,300
2,note_on,56,38,30
2,note_on,63,40,30
2,note_on,63,0,60
2,note_on,56,0,0
2,note_on,48,0,0
2,note_on,51,35,840
2,note_on,58,37,30
2,note_on,63,39,30
2,note_on,63,0,60
2,note_on,58,0,0
2,note_on,51,0,0
2,note_on,39,36,420
2,note_on,39,0,120
2,note_on,46,36,270
2,note_on,53,38,30
2,note_on,56,38,30
2,note_on,62,40,30
2,note_on,62,0,60
2,note_on,46,0,0
2,note_on,53,0,0
2,note_on,56,0,0
2,note_on,51,35,840
2,note_on,55,37,30
2,note_on,63,39,30
2,note_on,63,0,60
2,note_on,55,0,0
2,note_on,51,0,0
2,note_on,39,36,420
2,note_on,39,0,120
2,note_on,48,36,300
2,note_on,56,38,30
2,note_on,63,40,30
2,note_on,63,0,60
2,note_on,56,0,0
2,note_on,48,0,0
2,note_on,51,35,840
2,note_on,58,37,30
2,note_on,63,39,30
2,note_on,63,0,60
2,note_on,58,0,0
2,note_on,51,0,0
2,note_on,39,36,420
2,note_on,39,0,120
2,note_on,46,36,270
2,note_on,53,38,30
2,note_on,56,38,30
2,note_on,62,40,30
2,note_on,62,0,60
2,note_on,46,0,0
2,note_on,53,0,0
2,note_on,56,0,0
2,note_on,34,61,1320
2,note_on,34,0,60
2,note_on,39,68,0
2,note_on,39,0,640
2,note_on,43,64,0
2,note_on,43,0,80
2,note_on,44,64,80
2,note_on,44,0,80
2,note_on,45,68,80
2,note_on,45,0,80
2,note_on,46,64,80
2,note_on,46,0,80
2,note_on,51,64,80
2,note_on,51,0,80
2,note_on,55,68,80
2,note_on,55,0,80
2,note_on,56,64,80
2,note_on,56,0,80
2,note_on,57,64,80
2,note_on,57,0,30
2,note_on,57,56,10
2,note_on,57,0,40
2,note_on,58,50,0
2,note_on,58,0,40
2,note_on,60,46,0
2,note_on,60,0,40
2,note_on,58,58,0
2,note_on,58,0,48
2,note_on,60,50,0
2,note_on,60,0,48
2,note_on,58,57,0
2,note_on,58,0,48
2,note_on,60,50,0
2,note_on,60,0,48
2,note_on,58,56,0
2,note_on,58,0,48
2,note_on,60,49,0
2,note_on,60,0,48
2,note_on,58,55,0
2,note_on,58,0,48
2,note_on,60,50,0
2,note_on,60,0,48
2,note_on,58,56,0
2,note_on,58,0,48
2,note_on,60,48,0
2,note_on,60,0,48
2,note_on,58,55,0
2,note_on,58,0,48
2,note_on,60,50,0
2,note_on,60,0,48
2,note_on,58,58,0
2,note_on,58,0,48
2,note_on,60,51,0
2,note_on,60,0,48
2,note_on,58,60,0
2,note_on,58,0,48
2,note_on,60,56,0
2,note_on,60,0,60
2,note_on,58,63,0
2,note_on,58,0,60
2,note_on,57,60,0
2,note_on,57,0,60
2,note_on,58,60,0
2,note_on,58,0,60
2,note_on,63,74,0
2,note_on,63,0,120
2,note_on,46,52,300
2,note_on,55,56,30
2,note_on,63,58,30
2,note_on,63,0,60
2,note_on,55,0,0
2,note_on,46,0,0
2,note_on,39,35,420
2,note_on,39,0,120
2,note_on,46,31,270
2,note_on,53,33,30
2,note_on,56,34,30
2,note_on,62,36,30
2,note_on,62,0,60
2,note_on,46,0,0
2,note_on,53,0,0
2,note_on,56,0,0
2,note_on,46,32,840
2,note_on,53,32,0
2,note_on,56,34,30
2,note_on,62,36,30
2,note_on,62,0,60
2,note_on,46,0,0
2,note_on,53,0,0
2,note_on,56,0,0
2,note_on,39,35,420
2,note_on,39,0,120
2,note_on,46,32,300
2,note_on,55,35,30
2,note_on,63,38,30
2,note_on,63,0,60
2,note_on,55,0,0
2,note_on,46,0,0
2,note_on,46,31,840
2,note_on,55,34,30
2,note_on,63,36,30
2,note_on,63,0,60
2,note_on,55,0,0
2,note_on,46,0,0
2,note_on,34,61,360
2,note_on,34,0,60
2,note_on,39,68,0
2,note_on,39,0,640
2,note_on,43,64,0
2,note_on,43,0,80
2,note_on,44,64,80
2,note_on,44,0,80
2,note_on,45,68,80
2,note_on,45,0,80
2,note_on,46,64,80
2,note_on,46,0,80
2,note_on,51,64,80
2,note_on,51,0,80
2,note_on,55,68,80
2,note_on,55,0,80
2,note_on,56,64,80
2,note_on,56,0,80
2,note_on,57,64,80
2,note_on,57,0,30
2,note_on,57,56,10
2,note_on,57,0,40
2,note_on,58,50,0
2,note_on,58,0,40
2,note_on,60,46,0
2,note_on,60,0,40
2,note_on,58,58,0
2,note_on,58,0,48
2,note_on,60,50,0
2,note_on,60,0,48
2,note_on,58,57,0
2,note_on,58,0,48
2,note_on,60,50,0
2,note_on,60,0,48
2,note_on,58,56,0
2,note_on,58,0,48
2,note_on,60,49,0
2,note_on,60,0,48
2,note_on,58,55,0
2,note_on,58,0,48
2,note_on,60,50,0
2,note_on,60,0,48
2,note_on,58,56,0
2,note_on,58,0,48
2,note_on,60,48,0
2,note_on,60,0,48
2,note_on,58,55,0
2,note_on,58,0,48
2,note_on,60,50,0
2,note_on,60,0,48
2,note_on,58,58,0
2,note_on,58,0,48
2,note_on,60,51,0
2,note_on,60,0,48
2,note_on,58,60,0
2,note_on,58,0,48
2,note_on,60,56,0
2,note_on,60,0,60
2,note_on,58,63,0
2,note_on,58,0,60
2,note_on,57,60,0
2,note_on,57,0,60
2,note_on,58,60,0
2,note_on,58,0,60
2,note_on,67,74,0
2,note_on,63,68,0
2,note_on,63,0,120
2,note_on,67,0,0
2,note_on,46,57,300
2,note_on,55,61,30
2,note_on,63,63,30
2,note_on,63,0,60
2,note_on,55,0,0
2,note_on,46,0,0
2,note_on,39,35,420
2,note_on,39,0,120
2,note_on,46,31,270
2,note_on,53,33,30
2,note_on,56,34,30
2,note_on,62,36,30
2,note_on,62,0,60
2,note_on,46,0,0
2,note_on,53,0,0
2,note_on,56,0,0
2,note_on,46,25,855
2,note_on,53,28,15
2,note_on,56,34,15
2,note_on,62,36,15
2,note_on,62,0,60
2,note_on,46,0,0
2,note_on,53,0,0
2,note_on,56,0,0
2,note_on,39,35,420
2,note_on,39,0,120
2,note_on,46,32,300
2,note_on,55,35,30
2,note_on,63,38,30
2,note_on,63,0,60
2,note_on,55,0,0
2,note_on,46,0,0
2,note_on,46,31,840
2,note_on,55,34,30
2,note_on,63,36,30
2,note_on,63,0,60
2,note_on,55,0,0
2,note_on,46,0,0
2,note_on,39,35,420
2,note_on,39,0,120
2,note_on,46,34,300
2,note_on,55,35,30
2,note_on,63,36,30
2,note_on,63,0,60
2,note_on,55,0,0
2,note_on,46,0,0
2,note_on,46,34,840
2,note_on,55,35,30
2,note_on,63,36,30
2,note_on,63,0,60
2,note_on,55,0,0
2,note_on,46,0,0
2,note_on,39,35,420
2,note_on,39,0,120
2,note_on,46,33,300
2,note_on,55,37,30
2,note_on,63,35,30
2,note_on,55,0,60
2,note_on,46,0,0
2,note_on,63,0,30
2,note_on,46,35,810
2,note_on,55,36,30
2,note_on,63,38,30
2,note_on,63,0,60
2,note_on,55,0,0
2,note_on,46,0,0
2,note_on,39,35,420
2,note_on,39,0,120
2,note_on,46,31,270
2,note_on,53,33,30
2,note_on,56,34,30
2,note_on,62,36,30
2,note_on,62,0,60
2,note_on,46,0,0
2,note_on,53,0,0
2,note_on,56,0,0
2,note_on,46,25,855
2,note_on,53,28,15
2,note_on,56,34,15
2,note_on,62,36,15
2,note_on,62,0,60
2,note_on,46,0,0
2,note_on,53,0,0
2,note_on,56,0,0
2,note_on,39,35,420
2,note_on,39,0,120
2,note_on,46,33,300
2,note_on,55,37,30
2,note_on,63,35,30
2,note_on,55,0,60
2,note_on,46,0,0
2,note_on,63,0,30
2,note_on,46,35,810
2,note_on,55,36,30
2,note_on,63,38,30
2,note_on,63,0,60
2,note_on,55,0,0
2,note_on,46,0,0
2,note_on,39,35,420
2,note_on,39,0,120
2,note_on,46,34,300
2,note_on,55,35,30
2,note_on,63,36,30
2,note_on,63,0,60
2,note_on,55,0,0
2,note_on,46,0,0
2,note_on,46,34,840
2,note_on,55,35,30
2,note_on,63,36,30
2,note_on,63,0,60
2,note_on,55,0,0
2,note_on,46,0,0
2,note_on,39,35,420
2,note_on,39,0,120
2,note_on,46,33,300
2,note_on,55,37,30
2,note_on,63,35,30
2,note_on,55,0,60
2,note_on,46,0,0
2,note_on,63,0,30
2,note_on,46,35,810
2,note_on,55,36,30
2,note_on,63,38,30
2,note_on,63,0,60
2,note_on,55,0,0
2,note_on,46,0,0
2,note_on,39,35,420
2,note_on,39,0,120
2,note_on,46,31,270
2,note_on,53,33,30
2,note_on,56,34,30
2,note_on,62,36,30
2,note_on,62,0,60
2,note_on,46,0,0
2,note_on,53,0,0
2,note_on,56,0,0
2,note_on,46,25,855
2,note_on,53,28,15
2,note_on,56,34,15
2,note_on,62,36,15
2,note_on,62,0,60
2,note_on,46,0,0
2,note_on,53,0,0
2,note_on,56,0,0
2,note_on,39,35,420
2,note_on,39,0,120
2,note_on,46,36,300
2,note_on,55,38,30
2,note_on,63,39,30
2,note_on,55,0,60
2,note_on,46,0,0
2,note_on,63,0,30
2,note_on,51,35,810
2,note_on,58,36,30
2,note_on,67,38,30
2,note_on,67,0,60
2,note_on,58,0,0
2,note_on,51,0,0
2,note_on,39,35,420
2,note_on,39,0,120
2,note_on,48,34,300
2,note_on,56,36,30
2,note_on,63,38,30
2,note_on,56,0,60
2,note_on,48,0,0
2,note_on,63,0,30
2,note_on,51,35,810
2,note_on,58,36,30
2,note_on,67,38,30
2,note_on,67,0,60
2,note_on,58,0,0
2,note_on,51,0,0
2,note_on,39,35,420
2,note_on,39,0,120
2,note_on,46,33,300
2,note_on,56,35,30
2,note_on,62,36,30
2,note_on,56,0,60
2,note_on,46,0,0
2,note_on,62,0,30
2,note_on,51,31,810
2,note_on,58,34,30
2,note_on,67,37,30
2,note_on,67,0,60
2,note_on,58,0,0
2,note_on,51,0,0
2,note_on,39,35,420
2,note_on,39,0,120
2,note_on,48,32,300
2,note_on,56,34,30
2,note_on,63,35,30
2,note_on,56,0,60
2,note_on,48,0,0
2,note_on,63,0,30
2,note_on,51,32,810
2,note_on,58,34,30
2,note_on,67,35,30
2,note_on,67,0,45
2,note_on,58,0,15
2,note_on,51,0,0
2,note_on,39,33,420
2,note_on,39,0,120
2,note_on,46,27,300
2,note_on,56,28,30
2,note_on,62,29,30
2,note_on,56,0,60
2,note_on,46,0,0
2,note_on,62,0,30
2,note_on,51,31,810
2,note_on,58,33,30
2,note_on,67,35,30
2,note_on,67,0,60
2,note_on,58,0,0
2,note_on,51,0,0
2,note_on,39,35,420
2,note_on,39,0,120
2,note_on,48,34,300
2,note_on,56,36,30
2,note_on,63,38,30
2,note_on,56,0,60
2,note_on,48,0,0
2,note_on,63,0,30
2,note_on,51,35,810
2,note_on,58,36,30
2,note_on,67,38,30
2,note_on,67,0,60
2,note_on,58,0,0
2,note_on,51,0,0
2,note_on,39,35,420
2,note_on,39,0,120
2,note_on,46,34,300
2,note_on,56,35,30
2,note_on,62,38,30
2,note_on,56,0,60
2,note_on,46,0,0
2,note_on,62,0,30
2,note_on,51,30,810
2,note_on,58,33,30
2,note_on,67,37,30
2,note_on,67,0,60
2,note_on,58,0,0
2,note_on,51,0,0
2,note_on,39,35,420
2,note_on,39,0,120
2,note_on,48,31,300
2,note_on,56,34,30
2,note_on,63,36,30
2,note_on,56,0,60
2,note_on,48,0,0
2,note_on,63,0,30
2,note_on,51,32,810
2,note_on,58,34,30
2,note_on,67,36,30
2,note_on,67,0,60
2,note_on,58,0,0
2,note_on,51,0,0
2,note_on,39,35,420
2,note_on,39,0,120
2,note_on,59,30,360
2,note_on,56,25,0
2,note_on,47,25,0
2,note_on,51,25,0
2,note_on,51,0,960
2,note_on,59,0,0
2,note_on,56,0,0
2,note_on,47,0,0
2,note_on,59,30,0
2,note_on,47,25,0
2,note_on,51,25,0
2,note_on,56,25,0
2,note_on,56,0,960
2,note_on,59,0,0
2,note_on,47,0,0
2,note_on,51,0,0
2,note_on,59,30,0
2,note_on,47,25,0
2,note_on,51,25,0
2,note_on,56,25,0
2,note_on,56,0,480
2,note_on,59,0,0
2,note_on,47,0,0
2,note_on,51,0,0
2,note_on,59,30,0
2,note_on,47,25,0
2,note_on,51,25,0
2,note_on,56,25,0
2,note_on,56,0,480
2,note_on,59,0,0
2,note_on,47,0,0
2,note_on,51,0,0
2,note_on,59,30,0
2,note_on,47,25,0
2,note_on,51,25,0
2,note_on,56,25,0
2,note_on,56,0,1440
2,note_on,59,0,0
2,note_on,47,0,0
2,note_on,51,0,0
2,note_on,53,39,13080
2,note_on,53,0,120
2,note_on,46,41,0
2,note_on,46,0,120
2,note_on,39,34,0
2,note_on,39,0,240
2,note_on,53,40,0
2,note_on,53,0,120
2,note_on,46,41,0
2,note_on,46,0,120
2,note_on,39,35,0
2,note_on,39,0,240
2,note_on,51,37,0
2,note_on,51,0,120
2,note_on,46,41,0
2,note_on,46,0,120
2,note_on,39,34,0
2,note_on,39,0,240
2,note_on,51,40,0
2,note_on,51,0,120
2,note_on,46,41,0
2,note_on,46,0,120
2,note_on,39,37,0
2,note_on,39,0,240
2,note_on,50,39,0
2,note_on,50,0,120
2,note_on,46,41,0
2,note_on,46,0,120
2,note_on,39,36,0
2,note_on,39,0,240
2,note_on,50,39,0
2,note_on,50,0,120
2,note_on,46,41,0
2,note_on,46,0,120
2,note_on,39,36,0
2,note_on,39,0,240
2,note_on,55,39,0
2,note_on,55,0,120
2,note_on,46,41,0
2,note_on,46,0,120
2,note_on,39,35,0
2,note_on,39,0,240
2,note_on,55,39,0
2,note_on,55,0,120
2,note_on,46,41,0
2,note_on,46,0,120
2,note_on,39,36,0
2,note_on,39,0,240
2,note_on,53,39,0
2,note_on,53,0,120
2,note_on,46,41,0
2,note_on,46,0,120
2,note_on,39,34,0
2,note_on,39,0,240
2,note_on,53,40,0
2,note_on,53,0,120
2,note_on,46,41,0
2,note_on,46,0,120
2,note_on,39,35,0
2,note_on,39,0,240
2,note_on,51,37,0
2,note_on,51,0,120
2,note_on,46,41,0
2,note_on,46,0,120
2,note_on,39,34,0
2,note_on,39,0,240
2,note_on,51,40,0
2,note_on,51,0,120
2,note_on,46,41,0
2,note_on,46,0,120
2,note_on,39,37,0
2,note_on,39,0,240
2,note_on,50,39,0
2,note_on,50,0,120
2,note_on,46,41,0
2,note_on,46,0,120
2,note_on,39,36,0
2,note_on,39,0,240
2,note_on,50,39,0
2,note_on,50,0,120
2,note_on,46,41,0
2,note_on,46,0,120
2,note_on,39,36,0
2,note_on,39,0,240
2,note_on,46,39,0
2,note_on,46,0,120
2,note_on,39,41,0
2,note_on,39,0,120
2,note_on,46,36,0
2,note_on,46,0,240
2,note_on,46,39,0
2,note_on,46,0,120
2,note_on,39,41,0
2,note_on,39,0,120
2,note_on,46,36,0
2,note_on,46,0,120
2,note_on,53,39,120
2,note_on,53,0,120
2,note_on,46,41,0
2,note_on,46,0,120
2,note_on,39,34,0
2,note_on,39,0,240
2,note_on,53,40,0
2,note_on,53,0,120
2,note_on,46,41,0
2,note_on,46,0,120
2,note_on,39,35,0
2,note_on,39,0,240
2,note_on,51,37,0
2,note_on,51,0,120
2,note_on,46,41,0
2,note_on,46,0,120
2,note_on,39,34,0
2,note_on,39,0,240
2,note_on,51,40,0
2,note_on,51,0,120
2,note_on,46,41,0
2,note_on,46,0,120
2,note_on,39,37,0
2,note_on,39,0,240
2,note_on,50,39,0
2,note_on,50,0,120
2,note_on,46,41,0
2,note_on,46,0,120
2,note_on,39,36,0
2,note_on,39,0,240
2,note_on,50,39,0
2,note_on,50,0,120
2,note_on,46,41,0
2,note_on,46,0,120
2,note_on,39,36,0
2,note_on,39,0,240
2,note_on,55,39,0
2,note_on,55,0,120
2,note_on,46,41,0
2,note_on,46,0,120
2,note_on,39,35,0
2,note_on,39,0,240
2,note_on,55,39,0
2,note_on,55,0,120
2,note_on,46,41,0
2,note_on,46,0,120
2,note_on,39,36,0
2,note_on,39,0,240
2,note_on,53,39,0
2,note_on,53,0,120
2,note_on,46,41,0
2,note_on,46,0,120
2,note_on,39,34,0
2,note_on,39,0,240
2,note_on,53,40,0
2,note_on,53,0,120
2,note_on,46,41,0
2,note_on,46,0,120
2,note_on,39,35,0
2,note_on,39,0,240
2,note_on,51,37,0
2,note_on,51,0,120
2,note_on,46,41,0
2,note_on,46,0,120
2,note_on,39,34,0
2,note_on,39,0,240
2,note_on,51,40,0
2,note_on,51,0,120
2,note_on,46,41,0
2,note_on,46,0,120
2,note_on,39,37,0
2,note_on,39,0,240
2,note_on,50,39,0
2,note_on,50,0,120
2,note_on,46,41,0
2,note_on,46,0,120
2,note_on,39,36,0
2,note_on,39,0,240
2,note_on,50,39,0
2,note_on,50,0,120
2,note_on,46,41,0
2,note_on,46,0,120
2,note_on,39,36,0
2,note_on,39,0,240
2,note_on,46,39,0
2,note_on,46,0,120
2,note_on,39,41,0
2,note_on,39,0,120
2,note_on,46,36,0
2,note_on,46,0,240
2,note_on,51,39,0
2,note_on,51,0,120
2,note_on,46,41,0
2,note_on,46,0,120
2,note_on,39,36,0
2,note_on,39,0,240
2,note_on,53,39,0
2,note_on,53,0,120
2,note_on,46,41,0
2,note_on,46,0,120
2,note_on,39,34,0
2,note_on,39,0,240
2,note_on,53,40,0
2,note_on,53,0,120
2,note_on,46,41,0
2,note_on,46,0,120
2,note_on,39,35,0
2,note_on,39,0,240
2,note_on,55,37,0
2,note_on,55,0,120
2,note_on,46,41,0
2,note_on,46,0,120
2,note_on,39,34,0
2,note_on,39,0,240
2,note_on,55,40,0
2,note_on,55,0,120
2,note_on,46,41,0
2,note_on,46,0,120
2,note_on,39,37,0
2,note_on,39,0,240
2,note_on,50,39,0
2,note_on,50,0,120
2,note_on,46,41,0
2,note_on,46,0,120
2,note_on,39,36,0
2,note_on,39,0,240
2,note_on,50,39,0
2,note_on,50,0,120
2,note_on,46,41,0
2,note_on,46,0,120
2,note_on,39,36,0
2,note_on,39,0,240
2,note_on,51,39,0
2,note_on,51,0,120
2,note_on,46,41,0
2,note_on,46,0,120
2,note_on,39,36,0
2,note_on,39,0,240
2,note_on,51,39,0
2,note_on,51,0,120
2,note_on,46,41,0
2,note_on,46,0,120
2,note_on,39,36,0
2,note_on,39,0,240
2,note_on,53,39,0
2,note_on,53,0,120
2,note_on,46,41,0
2,note_on,46,0,120
2,note_on,39,34,0
2,note_on,39,0,240
2,note_on,53,40,0
2,note_on,53,0,120
2,note_on,46,41,0
2,note_on,46,0,120
2,note_on,39,35,0
2,note_on,39,0,240
2,note_on,55,37,0
2,note_on,55,0,120
2,note_on,46,41,0
2,note_on,46,0,120
2,note_on,39,34,0
2,note_on,39,0,240
2,note_on,55,40,0
2,note_on,55,0,120
2,note_on,46,41,0
2,note_on,46,0,120
2,note_on,39,37,0
2,note_on,39,0,240
2,note_on,50,39,0
2,note_on,50,0,120
2,note_on,46,41,0
2,note_on,46,0,120
2,note_on,39,36,0
2,note_on,39,0,240
2,note_on,50,39,0
2,note_on,50,0,120
2,note_on,46,41,0
2,note_on,46,0,120
2,note_on,39,36,0
2,note_on,39,0,240
2,note_on,51,39,0
2,note_on,51,0,120
2,note_on,46,41,0
2,note_on,46,0,120
2,note_on,39,36,0
2,note_on,39,0,240
2,note_on,51,39,0
2,note_on,51,0,120
2,note_on,46,41,0
2,note_on,46,0,120
2,note_on,39,36,0
2,note_on,39,0,120
2,note_on,68,39,120
2,note_on,68,0,120
2,note_on,62,41,0
2,note_on,62,0,120
2,note_on,58,36,0
2,note_on,58,0,120
2,note_on,50,39,120
2,note_on,50,0,120
2,note_on,46,41,0
2,note_on,46,0,120
2,note_on,39,36,0
2,note_on,39,0,120
2,note_on,67,37,120
2,note_on,67,0,120
2,note_on,63,41,0
2,note_on,63,0,120
2,note_on,58,34,0
2,note_on,58,0,120
2,note_on,51,40,120
2,note_on,51,0,120
2,note_on,46,41,0
2,note_on,46,0,120
2,note_on,39,37,0
2,note_on,39,0,120
2,note_on,68,39,120
2,note_on,68,0,120
2,note_on,62,41,0
2,note_on,62,0,120
2,note_on,58,36,0
2,note_on,58,0,120
2,note_on,50,39,120
2,note_on,50,0,120
2,note_on,46,41,0
2,note_on,46,0,120
2,note_on,39,36,0
2,note_on,39,0,120
2,note_on,63,39,120
2,note_on,63,0,120
2,note_on,58,41,0
2,note_on,58,0,120
2,note_on,51,36,0
2,note_on,51,0,120
2,note_on,51,39,120
2,note_on,51,0,120
2,note_on,46,41,0
2,note_on,46,0,120
2,note_on,39,36,0
2,note_on,39,0,120
2,note_on,68,39,120
2,note_on,68,0,120
2,note_on,62,41,0
2,note_on,62,0,120
2,note_on,58,36,0
2,note_on,58,0,120
2,note_on,50,39,120
2,note_on,50,0,120
2,note_on,46,41,0
2,note_on,46,0,120
2,note_on,39,36,0
2,note_on,39,0,120
2,note_on,67,37,120
2,note_on,67,0,120
2,note_on,63,41,0
2,note_on,63,0,120
2,note_on,58,34,0
2,note_on,58,0,120
2,note_on,51,40,120
2,note_on,51,0,120
2,note_on,46,41,0
2,note_on,46,0,120
2,note_on,39,37,0
2,note_on,39,0,120
2,note_on,68,39,120
2,note_on,68,0,120
2,note_on,62,41,0
2,note_on,62,0,120
2,note_on,58,36,0
2,note_on,58,0,120
2,note_on,50,39,120
2,note_on,50,0,120
2,note_on,46,41,0
2,note_on,46,0,120
2,note_on,39,36,0
2,note_on,39,0,120
2,note_on,55,38,240
2,note_on,39,32,0
2,note_on,39,0,240
2,note_on,55,0,0
2,note_on,56,38,0
2,note_on,41,32,0
2,note_on,41,0,240
2,note_on,56,0,0
2,note_on,59,38,0
2,note_on,43,32,0
2,note_on,43,0,240
2,note_on,59,0,0
2,note_on,63,47,0
2,note_on,48,39,0
2,note_on,55,39,0
2,note_on,55,0,960
2,note_on,48,0,0
2,note_on,63,0,0
2,note_on,44,37,0
2,note_on,53,38,30
2,note_on,60,39,30
2,note_on,60,0,660
2,note_on,53,0,0
2,note_on,44,0,0
2,note_on,46,37,240
2,note_on,53,38,30
2,note_on,58,39,30
2,note_on,58,0,660
2,note_on,53,0,0
2,note_on,46,0,0
2,note_on,34,35,0
2,note_on,34,0,90
2,note_on,39,43,150
2,note_on,39,0,60
2,note_on,67,37,180
2,note_on,63,31,0
2,note_on,55,31,0
2,note_on,55,0,60
2,note_on,63,0,0
2,note_on,67,0,0
2,note_on,67,35,420
2,note_on,63,29,0
2,note_on,58,29,0
2,note_on,58,0,60
2,note_on,63,0,0
2,note_on,67,0,0
2,note_on,44,74,180
2,note_on,32,63,0
2,note_on,32,0,180
2,note_on,44,0,0
2,note_on,68,48,60
2,note_on,56,40,0
2,note_on,63,40,0
2,note_on,63,0,60
2,note_on,56,0,0
2,note_on,68,0,0
2,note_on,67,41,120
2,note_on,55,35,0
2,note_on,55,0,60
2,note_on,67,0,0
2,note_on,68,55,0
2,note_on,56,46,0
2,note_on,63,46,0
2,note_on,63,0,60
2,note_on,56,0,0
2,note_on,68,0,0
2,note_on,43,74,420
2,note_on,31,63,0
2,note_on,31,0,180
2,note_on,43,0,0
2,note_on,67,48,60
2,note_on,55,40,0
2,note_on,63,40,0
2,note_on,63,0,60
2,note_on,55,0,0
2,note_on,67,0,0
2,note_on,66,41,120
2,note_on,54,35,0
2,note_on,54,0,60
2,note_on,66,0,0
2,note_on,67,55,0
2,note_on,55,46,0
2,note_on,63,46,0
2,note_on,63,0,60
2,note_on,55,0,0
2,note_on,67,0,0
2,note_on,41,74,420
2,note_on,29,63,0
2,note_on,29,0,180
2,note_on,41,0,0
2,note_on,65,48,60
2,note_on,53,40,0
2,note_on,62,40,0
2,note_on,62,0,60
2,note_on,53,0,0
2,note_on,65,0,0
2,note_on,64,41,120
2,note_on,52,35,0
2,note_on,52,0,60
2,note_on,64,0,0
2,note_on,65,55,0
2,note_on,53,46,0
2,note_on,62,46,0
2,note_on,62,0,60
2,note_on,53,0,0
2,note_on,65,0,0
2,note_on,39,74,420
2,note_on,27,63,0
2,note_on,27,0,180
2,note_on,39,0,0
2,note_on,63,48,60
2,note_on,51,40,0
2,note_on,58,40,0
2,note_on,58,0,60
2,note_on,51,0,0
2,note_on,63,0,0
2,note_on,62,41,120
2,note_on,50,35,0
2,note_on,50,0,60
2,note_on,62,0,0
2,note_on,63,55,0
2,note_on,51,46,0
2,note_on,58,46,0
2,note_on,58,0,60
2,note_on,51,0,0
2,note_on,63,0,0
2,note_on,34,48,420
2,note_on,34,0,60
2,note_on,62,42,180
2,note_on,56,35,0
2,note_on,53,35,0
2,note_on,53,0,60
2,note_on,56,0,0
2,note_on,62,0,0
2,note_on,46,47,180
2,note_on,46,0,60
2,note_on,58,40,180
2,note_on,53,34,0
2,note_on,56,34,0
2,note_on,56,0,60
2,note_on,53,0,0
2,note_on,58,0,0
2,note_on,39,43,180
2,note_on,39,0,60
2,note_on,63,37,180
2,note_on,58,31,0
2,note_on,55,31,0
2,note_on,55,0,60
2,note_on,58,0,0
2,note_on,63,0,0
2,note_on,46,43,180
2,note_on,46,0,60
2,note_on,63,35,180
2,note_on,58,29,0
2,note_on,55,29,0
2,note_on,55,0,60
2,note_on,58,0,0
2,note_on,63,0,0
2,note_on,34,48,180
2,note_on,34,0,60
2,note_on,62,42,180
2,note_on,56,35,0
2,note_on,53,35,0
2,note_on,53,0,60
2,note_on,56,0,0
2,note_on,62,0,0
2,note_on,46,47,180
2,note_on,46,0,60
2,note_on,58,40,180
2,note_on,53,34,0
2,note_on,56,34,0
2,note_on,56,0,60
2,note_on,53,0,0
2,note_on,58,0,0
2,note_on,39,43,180
2,note_on,39,0,60
2,note_on,63,37,180
2,note_on,58,31,0
2,note_on,55,31,0
2,note_on,55,0,60
2,note_on,58,0,0
2,note_on,63,0,0
2,note_on,46,43,180
2,note_on,46,0,60
2,note_on,63,35,180
2,note_on,58,29,0
2,note_on,55,29,0
2,note_on,55,0,60
2,note_on,58,0,0
2,note_on,63,0,0
2,note_on,44,74,180
2,note_on,32,63,0
2,note_on,32,0,180
2,note_on,44,0,0
2,note_on,68,48,60
2,note_on,56,40,0
2,note_on,63,40,0
2,note_on,63,0,60
2,note_on,56,0,0
2,note_on,68,0,0
2,note_on,67,41,120
2,note_on,55,35,0
2,note_on,55,0,60
2,note_on,67,0,0
2,note_on,68,55,0
2,note_on,56,46,0
2,note_on,63,46,0
2,note_on,63,0,60
2,note_on,56,0,0
2,note_on,68,0,0
2,note_on,43,74,420
2,note_on,31,63,0
2,note_on,31,0,180
2,note_on,43,0,0
2,note_on,67,48,60
2,note_on,55,40,0
2,note_on,63,40,0
2,note_on,63,0,60
2,note_on,55,0,0
2,note_on,67,0,0
2,note_on,66,41,120
2,note_on,54,35,0
2,note_on,54,0,60
2,note_on,66,0,0
2,note_on,67,55,0
2,note_on,55,46,0
2,note_on,63,46,0
2,note_on,63,0,60
2,note_on,55,0,0
2,note_on,67,0,0
2,note_on,41,74,420
2,note_on,29,63,0
2,note_on,29,0,180
2,note_on,41,0,0
2,note_on,65,48,60
2,note_on,53,40,0
2,note_on,62,40,0
2,note_on,62,0,60
2,note_on,53,0,0
2,note_on,65,0,0
2,note_on,64,41,120
2,note_on,52,35,0
2,note_on,52,0,60
2,note_on,64,0,0
2,note_on,65,55,0
2,note_on,53,46,0
2,note_on,62,46,0
2,note_on,62,0,60
2,note_on,53,0,0
2,note_on,65,0,0
2,note_on,39,74,420
2,note_on,27,63,0
2,note_on,27,0,180
2,note_on,39,0,0
2,note_on,63,48,60
2,note_on,51,40,0
2,note_on,58,40,0
2,note_on,58,0,60
2,note_on,51,0,0
2,note_on,63,0,0
2,note_on,62,41,120
2,note_on,50,35,0
2,note_on,50,0,60
2,note_on,62,0,0
2,note_on,63,55,0
2,note_on,51,46,0
2,note_on,58,46,0
2,note_on,58,0,60
2,note_on,51,0,0
2,note_on,63,0,0
2,note_on,34,48,420
2,note_on,34,0,60
2,note_on,62,42,180
2,note_on,56,35,0
2,note_on,53,35,0
2,note_on,53,0,60
2,note_on,56,0,0
2,note_on,62,0,0
2,note_on,46,47,180
2,note_on,46,0,60
2,note_on,58,40,180
2,note_on,53,34,0
2,note_on,56,34,0
2,note_on,56,0,60
2,note_on,53,0,0
2,note_on,58,0,0
2,note_on,39,43,180
2,note_on,39,0,60
2,note_on,63,37,180
2,note_on,58,31,0
2,note_on,55,31,0
2,note_on,55,0,60
2,note_on,58,0,0
2,note_on,63,0,0
2,note_on,46,43,180
2,note_on,46,0,60
2,note_on,63,35,180
2,note_on,58,29,0
2,note_on,55,29,0
2,note_on,55,0,60
2,note_on,58,0,0
2,note_on,63,0,0
2,note_on,34,48,180
2,note_on,34,0,60
2,note_on,62,42,180
2,note_on,56,35,0
2,note_on,53,35,0
2,note_on,53,0,60
2,note_on,56,0,0
2,note_on,62,0,0
2,note_on,46,47,180
2,note_on,46,0,60
2,note_on,58,40,180
2,note_on,53,34,0
2,note_on,56,34,0
2,note_on,56,0,60
2,note_on,53,0,0
2,note_on,58,0,0
2,note_on,39,43,180
2,note_on,39,0,60
2,note_on,63,37,180
2,note_on,58,31,0
2,note_on,55,31,0
2,note_on,55,0,60
2,note_on,58,0,0
2,note_on,63,0,0
2,note_on,46,43,180
2,note_on,46,0,60
2,note_on,63,35,180
2,note_on,58,29,0
2,note_on,55,29,0
2,note_on,55,0,60
2,note_on,58,0,0
2,note_on,63,0,0
2,note_on,34,48,180
2,note_on,34,0,60
2,note_on,62,42,180
2,note_on,56,35,0
2,note_on,53,35,0
2,note_on,53,0,60
2,note_on,56,0,0
2,note_on,62,0,0
2,note_on,46,47,180
2,note_on,46,0,60
2,note_on,62,40,180
2,note_on,53,34,0
2,note_on,56,34,0
2,note_on,56,0,60
2,note_on,53,0,0
2,note_on,62,0,0
2,note_on,39,43,180
2,note_on,39,0,60
2,note_on,63,37,180
2,note_on,58,31,0
2,note_on,55,31,0
2,note_on,55,0,60
2,note_on,58,0,0
2,note_on,63,0,0
2,note_on,46,43,180
2,note_on,46,0,60
2,note_on,63,35,180
2,note_on,58,29,0
2,note_on,55,29,0
2,note_on,55,0,60
2,note_on,58,0,0
2,note_on,63,0,0
2,note_on,34,59,180
2,note_on,34,0,60
2,note_on,53,29,180
2,note_on,56,29,0
2,note_on,62,35,0
2,note_on,62,0,60
2,note_on,56,0,0
2,note_on,53,0,0
2,note_on,67,44,420
2,note_on,64,37,0
2,note_on,64,0,60
2,note_on,67,0,0
2,note_on,68,44,60
2,note_on,65,37,0
2,note_on,65,0,60
2,note_on,68,0,0
2,note_on,69,42,60
2,note_on,66,35,0
2,note_on,66,0,60
2,note_on,69,0,0
2,note_on,70,43,60
2,note_on,67,36,0
2,note_on,67,0,60
2,note_on,70,0,0
2,note_on,71,44,60
2,note_on,68,37,0
2,note_on,68,0,60
2,note_on,71,0,0
2,note_on,72,45,60
2,note_on,69,38,0
2,note_on,69,0,60
2,note_on,72,0,0
2,note_on,73,46,60
2,note_on,70,39,0
2,note_on,70,0,60
2,note_on,73,0,0
2,note_on,74,47,60
2,note_on,71,39,0
2,note_on,71,0,60
2,note_on,74,0,0
2,note_on,75,48,60
2,note_on,72,40,0
2,note_on,72,0,60
2,note_on,75,0,0
2,note_on,76,49,60
2,note_on,73,41,0
2,note_on,73,0,60
2,note_on,76,0,0
2,note_on,77,50,60
2,note_on,74,42,0
2,note_on,74,0,60
2,note_on,77,0,0
2,note_on,78,51,60
2,note_on,75,43,0
2,note_on,75,0,60
2,note_on,78,0,0
2,note_on,79,53,60
2,note_on,76,45,0
2,note_on,76,0,60
2,note_on,79,0,0
2,note_on,80,54,60
2,note_on,77,45,0
2,note_on,77,0,60
2,note_on,80,0,0
2,note_on,79,55,60
2,note_on,76,46,0
2,note_on,76,0,60
2,note_on,79,0,0
2,note_on,80,56,60
2,note_on,77,47,0
2,note_on,77,0,60
2,note_on,80,0,0
2,note_on,44,71,300
2,note_on,32,60,0
2,note_on,32,0,120
2,note_on,44,0,0
2,note_on,65,64,120
2,note_on,60,54,0
2,note_on,53,54,0
2,note_on,53,0,240
2,note_on,60,0,0
2,note_on,65,0,0
2,note_on,46,71,0
2,note_on,34,60,0
2,note_on,34,0,120
2,note_on,46,0,0
2,note_on,65,65,120
2,note_on,62,55,0
2,note_on,53,55,0
2,note_on,53,0,240
2,note_on,62,0,0
2,note_on,65,0,0
2,note_on,51,71,0
2,note_on,39,60,0
2,note_on,39,0,120
2,note_on,51,0,0
2,note_on,67,65,120
2,note_on,63,55,0
2,note_on,55,55,0
2,note_on,55,0,120
2,note_on,63,0,0
2,note_on,67,0,0
2,note_on,51,71,120
2,note_on,39,60,0
2,note_on,39,0,120
2,note_on,51,0,0
2,note_on,67,65,120
2,note_on,63,55,0
2,note_on,55,55,0
2,note_on,55,0,120
2,note_on,63,0,0
2,note_on,67,0,0
2,note_on,53,71,120
2,note_on,41,60,0
2,note_on,41,0,120
2,note_on,53,0,0
2,note_on,65,65,120
2,note_on,60,55,0
2,note_on,56,55,0
2,note_on,56,0,120
2,note_on,60,0,0
2,note_on,65,0,0
2,note_on,46,71,120
2,note_on,34,60,0
2,note_on,34,0,120
2,note_on,46,0,0
2,note_on,65,65,120
2,note_on,62,55,0
2,note_on,56,55,0
2,note_on,56,0,120
2,note_on,62,0,0
2,note_on,65,0,0
2,note_on,51,71,120
2,note_on,39,60,0
2,note_on,39,0,120
2,note_on,51,0,0
2,note_on,67,65,120
2,note_on,63,55,0
2,note_on,55,55,0
2,note_on,55,0,120
2,note_on,63,0,0
2,note_on,67,0,0
2,note_on,51,71,120
2,note_on,39,60,0
2,note_on,39,0,120
2,note_on,51,0,0
2,note_on,67,65,120
2,note_on,63,55,0
2,note_on,55,55,0
2,note_on,55,0,120
2,note_on,63,0,0
2,note_on,67,0,0
2,note_on,44,71,120
2,note_on,32,60,0
2,note_on,32,0,120
2,note_on,44,0,0
2,note_on,65,64,120
2,note_on,60,54,0
2,note_on,53,54,0
2,note_on,53,0,240
2,note_on,60,0,0
2,note_on,65,0,0
2,note_on,46,71,0
2,note_on,34,60,0
2,note_on,34,0,120
2,note_on,46,0,0
2,note_on,65,65,120
2,note_on,62,55,0
2,note_on,53,55,0
2,note_on,53,0,240
2,note_on,62,0,0
2,note_on,65,0,0
2,note_on,51,71,0
2,note_on,39,60,0
2,note_on,39,0,120
2,note_on,51,0,0
2,note_on,67,65,120
2,note_on,63,55,0
2,note_on,55,55,0
2,note_on,55,0,120
2,note_on,63,0,0
2,note_on,67,0,0
2,note_on,51,71,120
2,note_on,39,60,0
2,note_on,39,0,120
2,note_on,51,0,0
2,note_on,67,65,120
2,note_on,63,55,0
2,note_on,55,55,0
2,note_on,55,0,120
2,note_on,63,0,0
2,note_on,67,0,0
2,note_on,53,71,120
2,note_on,41,60,0
2,note_on,41,0,120
2,note_on,53,0,0
2,note_on,65,65,120
2,note_on,60,55,0
2,note_on,56,55,0
2,note_on,56,0,120
2,note_on,60,0,0
2,note_on,65,0,0
2,note_on,46,71,120
2,note_on,34,60,0
2,note_on,34,0,120
2,note_on,46,0,0
2,note_on,65,65,120
2,note_on,62,55,0
2,note_on,56,55,0
2,note_on,56,0,120
2,note_on,62,0,0
2,note_on,65,0,0
2,note_on,39,60,120
2,note_on,51,71,0
2,note_on,51,0,120
2,note_on,39,0,0
2,note_on,63,60,360
2,note_on,67,71,0
2,note_on,55,60,0
2,note_on,58,60,4
2,note_on,55,0,116
2,note_on,63,0,0
2,note_on,67,0,0
2,note_on,58,0,4
2,note_on,46,34,1556
2,note_on,53,41,0
2,note_on,53,0,60
2,note_on,46,0,0
2,note_on,39,45,180
2,note_on,39,0,60
2,note_on,46,37,180
2,note_on,53,44,0
2,note_on,53,0,60
2,note_on,46,0,0
2,note_on,46,34,420
2,note_on,51,40,0
2,note_on,51,0,60
2,note_on,46,0,0
2,note_on,39,45,180
2,note_on,39,0,60
2,note_on,46,36,180
2,note_on,51,43,0
2,note_on,51,0,60
2,note_on,46,0,0
2,note_on,46,35,420
2,note_on,50,42,0
2,note_on,50,0,60
2,note_on,46,0,0
2,note_on,39,45,180
2,note_on,39,0,60
2,note_on,46,36,180
2,note_on,50,43,0
2,note_on,50,0,60
2,note_on,46,0,0
2,note_on,46,34,420
2,note_on,55,41,0
2,note_on,55,0,60
2,note_on,46,0,0
2,note_on,39,45,180
2,note_on,39,0,60
2,note_on,46,41,180
2,note_on,55,49,0
2,note_on,55,0,60
2,note_on,46,0,0
2,note_on,46,34,420
2,note_on,53,41,0
2,note_on,53,0,60
2,note_on,46,0,0
2,note_on,39,45,180
2,note_on,39,0,60
2,note_on,46,37,180
2,note_on,53,44,0
2,note_on,53,0,60
2,note_on,46,0,0
2,note_on,46,34,420
2,note_on,51,40,0
2,note_on,51,0,60
2,note_on,46,0,0
2,note_on,39,45,180
2,note_on,39,0,60
2,note_on,46,36,180
2,note_on,51,43,0
2,note_on,51,0,60
2,note_on,46,0,0
2,note_on,46,35,420
2,note_on,50,42,0
2,note_on,50,0,60
2,note_on,46,0,0
2,note_on,39,45,180
2,note_on,39,0,60
2,note_on,46,36,180
2,note_on,50,43,0
2,note_on,50,0,60
2,note_on,46,0,0
2,note_on,46,34,420
2,note_on,51,41,0
2,note_on,51,0,60
2,note_on,46,0,0
2,note_on,39,45,180
2,note_on,39,0,60
2,note_on,46,54,660
2,note_on,56,63,0
2,note_on,56,0,240
2,note_on,46,0,0
2,note_on,39,47,0
2,note_on,39,0,240
2,note_on,46,46,0
2,note_on,56,56,0
2,note_on,56,0,240
2,note_on,46,0,0
2,note_on,46,54,240
2,note_on,55,63,0
2,note_on,55,0,240
2,note_on,46,0,0
2,note_on,39,47,0
2,note_on,39,0,240
2,note_on,46,46,0
2,note_on,55,56,0
2,note_on,55,0,240
2,note_on,46,0,0
2,note_on,46,54,240
2,note_on,56,63,0
2,note_on,56,0,240
2,note_on,46,0,0
2,note_on,39,47,0
2,note_on,39,0,240
2,note_on,46,46,0
2,note_on,56,56,0
2,note_on,56,0,240
2,note_on,46,0,0
2,note_on,46,55,240
2,note_on,55,64,0
2,note_on,55,0,240
2,note_on,46,0,0
2,note_on,39,48,0
2,note_on,39,0,240
2,note_on,46,48,0
2,note_on,55,57,0
2,note_on,55,0,240
2,note_on,46,0,0
2,note_on,46,56,240
2,note_on,56,67,0
2,note_on,56,0,240
2,note_on,46,0,0
2,note_on,39,49,0
2,note_on,39,0,240
2,note_on,46,49,0
2,note_on,56,60,0
2,note_on,56,0,240
2,note_on,46,0,0
2,note_on,46,57,240
2,note_on,55,68,0
2,note_on,55,0,240
2,note_on,46,0,0
2,note_on,39,51,0
2,note_on,39,0,240
2,note_on,46,50,0
2,note_on,55,61,0
2,note_on,55,0,240
2,note_on,46,0,0
2,note_on,46,58,240
2,note_on,56,69,0
2,note_on,56,0,240
2,note_on,46,0,0
2,note_on,39,52,0
2,note_on,39,0,240
2,note_on,46,51,0
2,note_on,56,62,0
2,note_on,56,0,240
2,note_on,46,0,0
2,note_on,46,51,240
2,note_on,55,60,0
2,note_on,55,0,240
2,note_on,46,0,0
2,note_on,39,47,0
2,note_on,39,0,240
2,note_on,46,39,0
2,note_on,55,47,0
2,note_on,55,0,240
2,note_on,46,0,0
2,note_on,46,42,240
2,note_on,56,42,0
2,note_on,56,0,240
2,note_on,46,0,0
2,note_on,39,44,0
2,note_on,39,0,240
2,note_on,46,40,0
2,note_on,56,40,0
2,note_on,56,0,240
2,note_on,46,0,0
2,note_on,46,40,240
2,note_on,55,40,0
2,note_on,55,0,240
2,note_on,46,0,0
2,note_on,39,44,0
2,note_on,39,0,240
2,note_on,46,41,0
2,note_on,55,41,0
2,note_on,55,0,240
2,note_on,46,0,0
2,note_on,53,40,240
2,note_on,56,40,0
2,note_on,62,40,0
2,note_on,62,0,240
2,note_on,56,0,0
2,note_on,53,0,0
2,note_on,39,44,0
2,note_on,39,0,240
2,note_on,62,40,0
2,note_on,56,40,0
2,note_on,53,40,0
2,note_on,53,0,240
2,note_on,56,0,0
2,note_on,62,0,0
2,note_on,55,41,240
2,note_on,58,41,0
2,note_on,63,41,0
2,note_on,63,0,240
2,note_on,58,0,0
2,note_on,55,0,0
2,note_on,39,44,0
2,note_on,39,0,240
2,note_on,63,42,0
2,note_on,58,42,0
2,note_on,55,42,0
2,note_on,55,0,240
2,note_on,58,0,0
2,note_on,63,0,0
2,note_on,56,40,240
2,note_on,62,40,0
2,note_on,65,40,0
2,note_on,65,0,240
2,note_on,62,0,0
2,note_on,56,0,0
2,note_on,39,44,0
2,note_on,39,0,240
2,note_on,65,40,0
2,note_on,62,40,0
2,note_on,56,40,0
2,note_on,56,0,240
2,note_on,62,0,0
2,note_on,65,0,0
2,note_on,58,41,240
2,note_on,63,41,0
2,note_on,67,41,0
2,note_on,67,0,240
2,note_on,63,0,0
2,note_on,58,0,0
2,note_on,39,44,0
2,note_on,39,0,240
2,note_on,67,42,0
2,note_on,63,42,0
2,note_on,58,42,0
2,note_on,58,0,240
2,note_on,63,0,0
2,note_on,67,0,0
2,note_on,68,32,240
2,note_on,58,32,0
2,note_on,62,32,0
2,note_on,62,0,240
2,note_on,58,0,0
2,note_on,68,0,0
2,note_on,39,35,0
2,note_on,39,0,240
2,note_on,68,33,0
2,note_on,62,33,0
2,note_on,58,33,0
2,note_on,58,0,240
2,note_on,62,0,0
2,note_on,68,0,0
2,note_on,58,32,240
2,note_on,63,32,0
2,note_on,67,32,0
2,note_on,67,0,240
2,note_on,63,0,0
2,note_on,58,0,0
2,note_on,39,35,0
2,note_on,39,0,240
2,note_on,67,33,0
2,note_on,63,33,0
2,note_on,58,33,0
2,note_on,58,0,240
2,note_on,63,0,0
2,note_on,67,0,0
2,note_on,68,32,240
2,note_on,58,32,0
2,note_on,62,32,0
2,note_on,62,0,240
2,note_on,58,0,0
2,note_on,68,0,0
2,note_on,39,35,0
2,note_on,39,0,240
2,note_on,68,33,0
2,note_on,62,33,0
2,note_on,58,33,0
2,note_on,58,0,240
2,note_on,62,0,0
2,note_on,68,0,0
2,note_on,58,32,240
2,note_on,63,32,0
2,note_on,67,32,0
2,note_on,67,0,240
2,note_on,63,0,0
2,note_on,58,0,0
2,note_on,39,35,0
2,note_on,39,0,240
2,note_on,67,33,0
2,note_on,63,33,0
2,note_on,58,33,0
2,note_on,58,0,240
2,note_on,63,0,0
2,note_on,67,0,0
2,note_on,68,32,240
2,note_on,58,32,0
2,note_on,62,32,0
2,note_on,62,0,240
2,note_on,58,0,0
2,note_on,68,0,0
2,note_on,39,35,0
2,note_on,39,0,240
2,note_on,68,33,0
2,note_on,62,33,0
2,note_on,58,33,0
2,note_on,58,0,240
2,note_on,62,0,0
2,note_on,68,0,0
2,note_on,58,32,240
2,note_on,63,32,0
2,note_on,67,32,0
2,note_on,67,0,240
2,note_on,63,0,0
2,note_on,58,0,0
2,note_on,39,35,0
2,note_on,39,0,240
2,note_on,67,33,0
2,note_on,63,33,0
2,note_on,58,33,0
2,note_on,58,0,240
2,note_on,63,0,0
2,note_on,67,0,0
2,note_on,68,32,240
2,note_on,58,32,0
2,note_on,62,32,0
2,note_on,62,0,240
2,note_on,58,0,0
2,note_on,68,0,0
2,note_on,39,35,0
2,note_on,39,0,240
2,note_on,68,33,0
2,note_on,62,33,0
2,note_on,58,33,0
2,note_on,58,0,240
2,note_on,62,0,0
2,note_on,68,0,0
2,note_on,58,32,450
2,note_on,39,33,30
2,note_on,41,30,450
2,note_on,39,0,30
2,note_on,58,0,0
2,note_on,56,33,0
2,note_on,43,30,450
2,note_on,56,0,30
2,note_on,41,0,0
2,note_on,59,33,0
2,note_on,59,0,420
2,note_on,43,0,0
2,note_on,48,33,0
2,note_on,55,33,30
2,note_on,63,33,30
2,note_on,63,0,960
2,note_on,55,0,0
2,note_on,48,0,0
2,note_on,44,43,6240
2,note_on,53,43,30
2,note_on,60,43,30
2,note_on,60,0,420
2,note_on,53,0,0
2,note_on,44,0,0
2,note_on,46,37,2640
2,note_on,53,38,30
2,note_on,58,39,30
2,note_on,58,0,660
2,note_on,53,0,0
2,note_on,46,0,0
2,note_on,34,35,0
2,note_on,34,0,90
2,note_on,39,43,150
2,note_on,39,0,60
2,note_on,46,46,180
2,note_on,46,0,60
2,note_on,55,51,180
2,note_on,55,0,60
2,note_on,63,68,180
2,note_on,63,0,60
2,note_on,56,68,180
2,note_on,56,0,60
2,note_on,72,44,180
2,note_on,68,37,0
2,note_on,68,0,60
2,note_on,72,0,0
2,note_on,79,55,300
2,note_on,83,55,0
2,note_on,83,0,60
2,note_on,79,0,0
2,note_on,80,54,60
2,note_on,84,64,0
2,note_on,84,0,60
2,note_on,80,0,0
2,note_on,55,68,180
2,note_on,55,0,60
2,note_on,70,44,180
2,note_on,67,37,0
2,note_on,67,0,60
2,note_on,70,0,0
2,note_on,78,55,300
2,note_on,81,55,0
2,note_on,81,0,60
2,note_on,78,0,0
2,note_on,79,54,60
2,note_on,82,64,0
2,note_on,82,0,60
2,note_on,79,0,0
2,note_on,53,68,180
2,note_on,53,0,60
2,note_on,68,44,180
2,note_on,65,37,0
2,note_on,65,0,60
2,note_on,68,0,0
2,note_on,76,55,300
2,note_on,79,55,0
2,note_on,79,0,60
2,note_on,76,0,0
2,note_on,77,54,60
2,note_on,80,64,0
2,note_on,80,0,60
2,note_on,77,0,0
2,note_on,51,68,180
2,note_on,51,0,60
2,note_on,67,44,180
2,note_on,63,37,0
2,note_on,63,0,60
2,note_on,67,0,0
2,note_on,74,55,300
2,note_on,78,55,0
2,note_on,78,0,60
2,note_on,74,0,0
2,note_on,75,54,60
2,note_on,79,64,0
2,note_on,79,0,60
2,note_on,75,0,0
2,note_on,46,48,180
2,note_on,46,0,60
2,note_on,62,42,180
2,note_on,62,0,60
2,note_on,46,47,180
2,note_on,46,0,60
2,note_on,56,40,180
2,note_on,56,0,60
2,note_on,39,43,180
2,note_on,39,0,60
2,note_on,46,46,180
2,note_on,46,0,60
2,note_on,55,51,180
2,note_on,55,0,60
2,note_on,63,68,180
2,note_on,63,0,60
2,note_on,68,68,180
2,note_on,68,0,60
2,note_on,84,44,180
2,note_on,80,37,0
2,note_on,80,0,60
2,note_on,84,0,0
2,note_on,91,55,300
2,note_on,95,55,0
2,note_on,95,0,60
2,note_on,91,0,0
2,note_on,92,54,60
2,note_on,96,64,0
2,note_on,96,0,60
2,note_on,92,0,0
2,note_on,67,68,180
2,note_on,67,0,60
2,note_on,82,44,180
2,note_on,79,37,0
2,note_on,79,0,60
2,note_on,82,0,0
2,note_on,90,55,300
2,note_on,93,55,0
2,note_on,93,0,60
2,note_on,90,0,0
2,note_on,91,54,60
2,note_on,94,64,0
2,note_on,94,0,60
2,note_on,91,0,0
2,note_on,65,68,180
2,note_on,65,0,60
2,note_on,80,44,180
2,note_on,77,37,0
2,note_on,77,0,60
2,note_on,80,0,0
2,note_on,88,55,300
2,note_on,91,55,0
2,note_on,91,0,60
2,note_on,88,0,0
2,note_on,89,54,60
2,note_on,92,64,0
2,note_on,92,0,60
2,note_on,89,0,0
2,note_on,63,68,180
2,note_on,63,0,60
2,note_on,79,44,180
2,note_on,75,37,0
2,note_on,75,0,60
2,note_on,79,0,0
2,note_on,86,55,300
2,note_on,90,55,0
2,note_on,90,0,60
2,note_on,86,0,0
2,note_on,87,54,60
2,note_on,91,64,0
2,note_on,91,0,60
2,note_on,87,0,0
2,note_on,58,48,180
2,note_on,58,0,60
2,note_on,74,42,180
2,note_on,74,0,60
2,note_on,58,47,180
2,note_on,58,0,60
2,note_on,68,40,180
2,note_on,68,0,60
2,note_on,51,43,180
2,note_on,51,0,60
2,note_on,58,41,180
2,note_on,58,0,60
2,note_on,67,48,180
2,note_on,67,0,60
2,note_on,75,51,180
2,note_on,75,0,60
2,note_on,58,48,180
2,note_on,58,0,60
2,note_on,74,42,180
2,note_on,74,0,60
2,note_on,58,48,180
2,note_on,58,0,60
2,note_on,68,42,180
2,note_on,68,0,60
2,note_on,51,46,180
2,note_on,51,0,60
2,note_on,58,46,180
2,note_on,58,0,60
2,note_on,67,51,180
2,note_on,67,0,60
2,note_on,75,57,180
2,note_on,75,0,60
2,note_on,58,57,180
2,note_on,58,0,60
2,note_on,65,43,180
2,note_on,74,50,0
2,note_on,74,0,60
2,note_on,65,0,0
2,note_on,56,41,420
2,note_on,68,49,0
2,note_on,68,0,120
2,note_on,56,0,0
2,note_on,67,49,0
2,note_on,55,41,0
2,note_on,55,0,120
2,note_on,67,0,0
2,note_on,66,57,0
2,note_on,54,48,0
2,note_on,54,0,120
2,note_on,66,0,0
2,note_on,65,52,0
2,note_on,53,44,0
2,note_on,53,0,120
2,note_on,65,0,0
2,note_on,64,52,0
2,note_on,52,44,0
2,note_on,52,0,120
2,note_on,64,0,0
2,note_on,63,52,0
2,note_on,51,44,0
2,note_on,51,0,120
2,note_on,63,0,0
2,note_on,62,58,0
2,note_on,50,49,0
2,note_on,50,0,120
2,note_on,62,0,0
2,note_on,61,53,0
2,note_on,49,45,0
2,note_on,49,0,120
2,note_on,61,0,0
2,note_on,60,53,0
2,note_on,48,45,0
2,note_on,48,0,120
2,note_on,60,0,0
2,note_on,47,45,0
2,note_on,59,53,0
2,note_on,59,0,120
2,note_on,47,0,0
2,note_on,58,59,0
2,note_on,46,50,0
2,note_on,46,0,120
2,note_on,58,0,0
2,note_on,57,54,0
2,note_on,45,45,0
2,note_on,45,0,120
2,note_on,57,0,0
2,note_on,44,46,0
2,note_on,56,55,0
2,note_on,56,0,120
2,note_on,44,0,0
2,note_on,55,55,0
2,note_on,43,46,0
2,note_on,43,0,120
2,note_on,55,0,0
2,note_on,42,46,0
2,note_on,54,55,0
2,note_on,54,0,120
2,note_on,42,0,0
2,note_on,41,53,0
2,note_on,53,63,0
2,note_on,53,0,120
2,note_on,41,0,0
2,note_on,40,48,0
2,note_on,52,57,0
2,note_on,52,0,120
2,note_on,40,0,0
2,note_on,39,48,0
2,note_on,51,57,0
2,note_on,51,0,120
2,note_on,39,0,0
2,note_on,38,56,0
2,note_on,50,66,0
2,note_on,50,0,120
2,note_on,38,0,0
2,note_on,37,50,0
2,note_on,49,59,0
2,note_on,49,0,120
2,note_on,37,0,0
2,note_on,36,51,0
2,note_on,48,60,0
2,note_on,48,0,120
2,note_on,36,0,0
2,note_on,35,51,0
2,note_on,47,60,0
2,note_on,47,0,120
2,note_on,35,0,0
2,note_on,34,59,0
2,note_on,46,71,0
2,note_on,46,0,240
2,note_on,34,0,0
2,note_on,33,60,0
2,note_on,45,72,0
2,note_on,45,0,240
2,note_on,33,0,0
2,note_on,44,78,0
2,note_on,32,66,0
2,note_on,32,0,240
2,note_on,44,0,0
2,note_on,65,70,0
2,note_on,60,59,0
2,note_on,53,59,0
2,note_on,53,0,240
2,note_on,60,0,0
2,note_on,65,0,0
2,note_on,46,78,0
2,note_on,34,66,0
2,note_on,34,0,240
2,note_on,46,0,0
2,note_on,65,71,0
2,note_on,62,60,0
2,note_on,53,60,0
2,note_on,53,0,240
2,note_on,62,0,0
2,note_on,65,0,0
2,note_on,51,78,0
2,note_on,39,66,0
2,note_on,39,0,240
2,note_on,51,0,0
2,note_on,67,71,0
2,note_on,63,60,0
2,note_on,55,60,0
2,note_on,55,0,240
2,note_on,63,0,0
2,note_on,67,0,0
2,note_on,51,78,0
2,note_on,39,66,0
2,note_on,39,0,240
2,note_on,51,0,0
2,note_on,67,71,0
2,note_on,63,60,0
2,note_on,55,60,0
2,note_on,55,0,240
2,note_on,63,0,0
2,note_on,67,0,0
2,note_on,53,78,0
2,note_on,41,66,0
2,note_on,41,0,240
2,note_on,53,0,0
2,note_on,65,71,0
2,note_on,60,60,0
2,note_on,56,60,0
2,note_on,56,0,240
2,note_on,60,0,0
2,note_on,65,0,0
2,note_on,46,78,0
2,note_on,34,66,0
2,note_on,34,0,240
2,note_on,46,0,0
2,note_on,65,71,0
2,note_on,62,60,0
2,note_on,56,60,0
2,note_on,56,0,240
2,note_on,62,0,0
2,note_on,65,0,0
2,note_on,51,78,0
2,note_on,39,66,0
2,note_on,39,0,240
2,note_on,51,0,0
2,note_on,67,71,0
2,note_on,63,60,0
2,note_on,55,60,0
2,note_on,55,0,240
2,note_on,63,0,0
2,note_on,67,0,0
2,note_on,51,78,0
2,note_on,39,66,0
2,note_on,39,0,240
2,note_on,51,0,0
2,note_on,67,71,0
2,note_on,63,60,0
2,note_on,55,60,0
2,note_on,55,0,240
2,note_on,63,0,0
2,note_on,67,0,0
2,note_on,44,78,0
2,note_on,32,66,0
2,note_on,32,0,240
2,note_on,44,0,0
2,note_on,65,70,0
2,note_on,60,59,0
2,note_on,53,59,0
2,note_on,53,0,240
2,note_on,60,0,0
2,note_on,65,0,0
2,note_on,46,78,0
2,note_on,34,66,0
2,note_on,34,0,240
2,note_on,46,0,0
2,note_on,65,71,0
2,note_on,62,60,0
2,note_on,53,60,0
2,note_on,53,0,240
2,note_on,62,0,0
2,note_on,65,0,0
2,note_on,51,78,0
2,note_on,39,66,0
2,note_on,39,0,240
2,note_on,51,0,0
2,note_on,67,71,0
2,note_on,63,60,0
2,note_on,55,60,0
2,note_on,55,0,240
2,note_on,63,0,0
2,note_on,67,0,0
2,note_on,51,78,0
2,note_on,39,66,0
2,note_on,39,0,240
2,note_on,51,0,0
2,note_on,67,71,0
2,note_on,63,60,0
2,note_on,55,60,0
2,note_on,55,0,240
2,note_on,63,0,0
2,note_on,67,0,0
2,note_on,53,78,0
2,note_on,41,66,0
2,note_on,41,0,240
2,note_on,53,0,0
2,note_on,65,71,0
2,note_on,60,60,0
2,note_on,56,60,0
2,note_on,56,0,240
2,note_on,60,0,0
2,note_on,65,0,0
2,note_on,46,78,0
2,note_on,34,66,0
2,note_on,34,0,240
2,note_on,46,0,0
2,note_on,65,71,0
2,note_on,62,60,0
2,note_on,56,60,0
2,note_on,56,0,240
2,note_on,62,0,0
2,note_on,65,0,0
2,note_on,39,66,0
2,note_on,51,78,0
2,note_on,51,0,120
2,note_on,39,0,0
2,note_on,55,60,120
2,note_on,58,60,0
2,note_on,63,60,0
2,note_on,67,71,0
2,note_on,67,0,480
2,note_on,55,0,0
2,note_on,58,0,0
2,note_on,63,0,0
2,note_on,55,54,0
2,note_on,58,54,0
2,note_on,63,54,0
2,note_on,67,63,0
2,note_on,67,0,60
2,note_on,55,0,0
2,note_on,58,0,0
2,note_on,63,0,0
2,note_on,56,36,180
2,note_on,58,43,0
2,note_on,51,36,0
2,note_on,51,0,120
2,note_on,58,0,0
2,note_on,56,0,0
2,note_on,58,39,120
2,note_on,56,33,0
2,note_on,51,33,0
2,note_on,51,0,480
2,note_on,56,0,0
2,note_on,58,0,0
2,note_on,58,39,0
2,note_on,56,33,0
2,note_on,51,33,0
2,note_on,51,0,120
2,note_on,56,0,0
2,note_on,58,0,0
2,note_on,61,51,120
2,note_on,51,51,0
2,note_on,51,0,60
2,note_on,61,0,0
2,note_on,61,39,180
2,note_on,51,33,0
2,note_on,51,0,480
2,note_on,61,0,0
2,note_on,61,43,0
2,note_on,51,40,0
2,note_on,51,0,120
2,note_on,61,0,0
2,note_on,56,43,120
2,note_on,51,36,0
2,note_on,51,0,120
2,note_on,56,0,0
2,note_on,56,39,120
2,note_on,51,33,0
2,note_on,51,0,480
2,note_on,56,0,0
2,note_on,59,43,0
2,note_on,51,33,0
2,note_on,51,0,120
2,note_on,59,0,0
2,note_on,58,51,120
2,note_on,51,51,0
2,note_on,51,0,60
2,note_on,58,0,0
2,note_on,55,39,180
2,note_on,51,33,0
2,note_on,51,0,420
2,note_on,55,0,0
2,note_on,54,37,30
2,note_on,54,0,30
2,note_on,55,43,0
2,note_on,51,40,0
2,note_on,51,0,120
2,note_on,55,0,0
2,note_on,39,43,120
2,note_on,39,0,120
2,note_on,56,39,120
2,note_on,50,33,0
2,note_on,46,33,0
2,note_on,46,0,480
2,note_on,50,0,0
2,note_on,56,0,0
2,note_on,56,39,0
2,note_on,50,33,0
2,note_on,46,33,0
2,note_on,46,0,120
2,note_on,50,0,0
2,note_on,56,0,0
2,note_on,39,51,120
2,note_on,39,0,60
2,note_on,55,33,180
2,note_on,58,39,0
2,note_on,49,33,0
2,note_on,49,0,480
2,note_on,58,0,0
2,note_on,55,0,0
2,note_on,55,40,0
2,note_on,58,43,0
2,note_on,49,40,0
2,note_on,49,0,120
2,note_on,58,0,0
2,note_on,55,0,0
2,note_on,39,43,120
2,note_on,39,0,120
2,note_on,48,33,120
2,note_on,56,39,0
2,note_on,51,33,0
2,note_on,51,0,480
2,note_on,56,0,0
2,note_on,48,0,0
2,note_on,47,33,0
2,note_on,56,43,0
2,note_on,51,33,0
2,note_on,51,0,120
2,note_on,56,0,0
2,note_on,47,0,0
2,note_on,39,51,120
2,note_on,39,0,60
2,note_on,55,39,180
2,note_on,46,33,0
2,note_on,46,0,480
2,note_on,55,0,0
2,note_on,55,43,0
2,note_on,46,40,0
2,note_on,46,0,120
2,note_on,55,0,0
2,note_on,43,32,120
2,note_on,50,40,0
2,note_on,50,0,60
2,note_on,43,0,0
2,note_on,55,31,180
2,note_on,48,26,0
2,note_on,48,0,480
2,note_on,55,0,0
2,note_on,51,34,0
2,note_on,44,32,0
2,note_on,44,0,120
2,note_on,51,0,0
2,note_on,39,40,120
2,note_on,39,0,60
2,note_on,55,31,180
2,note_on,46,26,0
2,note_on,46,0,480
2,note_on,55,0,0
2,note_on,55,34,0
2,note_on,46,32,0
2,note_on,46,0,120
2,note_on,55,0,0
2,note_on,43,32,120
2,note_on,50,40,0
2,note_on,50,0,60
2,note_on,43,0,0
2,note_on,55,31,180
2,note_on,48,26,0
2,note_on,48,0,480
2,note_on,55,0,0
2,note_on,51,34,0
2,note_on,44,32,0
2,note_on,44,0,120
2,note_on,51,0,0
2,note_on,39,32,120
2,note_on,51,40,0
2,note_on,51,0,60
2,note_on,39,0,0
2,note_on,48,31,180
2,note_on,36,26,0
2,note_on,36,0,480
2,note_on,48,0,0
2,note_on,44,34,0
2,note_on,32,32,0
2,note_on,32,0,120
2,note_on,44,0,0
2,note_on,39,32,120
2,note_on,51,40,0
2,note_on,51,0,60
2,note_on,39,0,0
2,note_on,48,31,180
2,note_on,36,26,0
2,note_on,36,0,480
2,note_on,48,0,0
2,note_on,44,34,0
2,note_on,32,32,0
2,note_on,32,0,120
2,note_on,44,0,0
2,note_on,39,33,120
2,note_on,51,39,0
2,note_on,51,0,480
2,note_on,39,0,0
2,note_on,36,22,0
2,note_on,48,31,0
2,note_on,48,0,480
2,note_on,36,0,0
2,note_on,32,22,480
2,note_on,44,31,0
2,note_on,44,0,480
2,note_on,32,0,0
2,note_on,27,22,0
2,note_on,39,31,0
2,note_on,39,0,240
2,note_on,43,31,0
2,note_on,43,0,120
2,note_on,44,30,0
2,note_on,44,0,120
2,note_on,27,0,0
2,note_on,45,30,0
2,note_on,45,0,120
2,note_on,46,30,0
2,note_on,46,0,120
2,note_on,51,30,0
2,note_on,51,0,120
2,note_on,55,30,0
2,note_on,55,0,120
2,note_on,56,30,0
2,note_on,56,0,120
2,note_on,57,30,0
2,note_on,57,0,120
2,note_on,58,30,0
2,note_on,58,0,120
2,note_on,46,61,3480
2,note_on,58,72,0
2,note_on,58,0,360
2,note_on,46,0,0
2,note_on,46,57,120
2,note_on,58,68,0
2,note_on,58,0,90
2,note_on,46,0,0
2,note_on,46,57,150
2,note_on,58,68,0
2,note_on,58,0,90
2,note_on,46,0,0
2,note_on,51,63,150
2,note_on,63,75,0
2,note_on,63,0,720
2,note_on,51,0,0
2,note_on,51,55,0
2,note_on,63,66,0
2,note_on,63,0,90
2,note_on,51,0,0
2,note_on,49,58,150
2,note_on,61,69,0
2,note_on,61,0,90
2,note_on,49,0,0
2,note_on,47,58,150
2,note_on,59,69,0
2,note_on,59,0,90
2,note_on,47,0,0
2,note_on,46,57,150
2,note_on,58,68,0
2,note_on,58,0,90
2,note_on,46,0,0
2,note_on,44,61,150
2,note_on,56,72,0
2,note_on,56,0,90
2,note_on,44,0,0
2,note_on,46,60,150
2,note_on,58,70,0
2,note_on,58,0,90
2,note_on,46,0,0
2,note_on,39,56,150
2,note_on,51,67,0
2,note_on,51,0,90
2,note_on,39,0,0
2,note_on,39,56,150
2,note_on,51,67,0
2,note_on,51,0,480
2,note_on,39,0,0
2,note_on,63,51,0
2,note_on,63,0,360
2,note_on,61,40,120
2,note_on,63,48,4
2,note_on,61,0,86
2,note_on,63,0,4
2,note_on,61,40,146
2,note_on,63,48,0
2,note_on,63,0,90
2,note_on,61,0,0
2,note_on,59,45,150
2,note_on,63,53,0
2,note_on,63,0,720
2,note_on,59,0,0
2,note_on,59,39,0
2,note_on,63,46,0
2,note_on,63,0,90
2,note_on,59,0,0
2,note_on,63,55,150
2,note_on,58,49,0
2,note_on,58,0,90
2,note_on,63,0,150
2,note_on,61,49,0
2,note_on,61,0,90
2,note_on,56,48,150
2,note_on,56,0,90
2,note_on,59,51,150
2,note_on,59,0,90
2,note_on,55,50,150
2,note_on,55,0,90
2,note_on,58,47,150
2,note_on,58,0,90
2,note_on,63,57,150
2,note_on,63,0,480
2,note_on,63,51,0
2,note_on,63,0,360
2,note_on,61,40,120
2,note_on,63,48,4
2,note_on,61,0,86
2,note_on,63,0,4
2,note_on,61,40,146
2,note_on,63,48,0
2,note_on,63,0,90
2,note_on,61,0,0
2,note_on,59,45,150
2,note_on,63,53,0
2,note_on,63,0,720
2,note_on,59,0,0
2,note_on,59,39,0
2,note_on,63,46,0
2,note_on,63,0,90
2,note_on,59,0,0
2,note_on,58,49,150
2,note_on,58,0,90
2,note_on,61,49,150
2,note_on,61,0,90
2,note_on,51,48,150
2,note_on,51,0,90
2,note_on,55,51,150
2,note_on,55,0,90
2,note_on,56,43,150
2,note_on,59,52,0
2,note_on,56,0,60
2,note_on,59,0,30
2,note_on,59,49,150
2,note_on,59,0,90
2,note_on,56,47,150
2,note_on,59,56,0
2,note_on,59,0,360
2,note_on,56,0,0
2,note_on,46,61,120
2,note_on,58,72,0
2,note_on,58,0,360
2,note_on,46,0,0
2,note_on,46,57,120
2,note_on,58,68,0
2,note_on,58,0,90
2,note_on,46,0,0
2,note_on,46,57,150
2,note_on,58,68,0
2,note_on,58,0,90
2,note_on,46,0,0
2,note_on,51,63,150
2,note_on,63,75,0
2,note_on,63,0,720
2,note_on,51,0,0
2,note_on,51,55,0
2,note_on,63,66,0
2,note_on,63,0,90
2,note_on,51,0,0
2,note_on,49,58,150
2,note_on,61,69,0
2,note_on,61,0,90
2,note_on,49,0,0
2,note_on,47,58,150
2,note_on,59,69,0
2,note_on,59,0,90
2,note_on,47,0,0
2,note_on,46,57,150
2,note_on,58,68,0
2,note_on,58,0,90
2,note_on,46,0,0
2,note_on,44,61,150
2,note_on,56,72,0
2,note_on,56,0,90
2,note_on,44,0,0
2,note_on,46,60,150
2,note_on,58,70,0
2,note_on,58,0,90
2,note_on,46,0,0
2,note_on,39,56,150
2,note_on,51,67,0
2,note_on,51,0,90
2,note_on,39,0,0
2,note_on,39,56,150
2,note_on,51,67,0
2,note_on,51,0,480
2,note_on,39,0,0
2,note_on,63,51,0
2,note_on,63,0,360
2,note_on,61,40,120
2,note_on,63,48,4
2,note_on,61,0,86
2,note_on,63,0,4
2,note_on,61,40,146
2,note_on,63,48,0
2,note_on,63,0,90
2,note_on,61,0,0
2,note_on,59,45,150
2,note_on,63,53,0
2,note_on,63,0,720
2,note_on,59,0,0
2,note_on,59,39,0
2,note_on,63,46,0
2,note_on,63,0,90
2,note_on,59,0,0
2,note_on,63,55,150
2,note_on,58,49,0
2,note_on,58,0,90
2,note_on,63,0,150
2,note_on,61,49,0
2,note_on,61,0,90
2,note_on,56,48,150
2,note_on,56,0,90
2,note_on,59,51,150
2,note_on,59,0,90
2,note_on,55,50,150
2,note_on,55,0,90
2,note_on,58,47,150
2,note_on,58,0,90
2,note_on,63,57,150
2,note_on,63,0,480
2,note_on,63,51,0
2,note_on,63,0,360
2,note_on,61,40,120
2,note_on,63,48,4
2,note_on,61,0,86
2,note_on,63,0,4
2,note_on,61,40,146
2,note_on,63,48,0
2,note_on,63,0,90
2,note_on,61,0,0
2,note_on,59,45,150
2,note_on,63,53,0
2,note_on,63,0,720
2,note_on,59,0,0
2,note_on,59,39,0
2,note_on,63,46,0
2,note_on,63,0,90
2,note_on,59,0,0
2,note_on,58,49,150
2,note_on,58,0,90
2,note_on,61,49,150
2,note_on,61,0,90
2,note_on,51,48,150
2,note_on,51,0,90
2,note_on,55,51,150
2,note_on,55,0,90
2,note_on,56,43,150
2,note_on,59,52,0
2,note_on,56,0,60
2,note_on,59,0,30
2,note_on,59,49,150
2,note_on,59,0,90
2,note_on,56,47,150
2,note_on,59,56,0
2,note_on,59,0,360
2,note_on,56,0,0
2,note_on,39,33,1050
2,note_on,55,41,30
2,note_on,55,0,120
2,note_on,51,37,120
2,note_on,51,0,120
2,note_on,39,0,120
2,note_on,44,32,450
2,note_on,56,43,30
2,note_on,56,0,120
2,note_on,51,35,120
2,note_on,51,0,120
2,note_on,44,0,120
2,note_on,63,42,0
2,note_on,63,0,120
2,note_on,56,36,120
2,note_on,56,0,120
2,note_on,39,33,90
2,note_on,55,41,30
2,note_on,55,0,120
2,note_on,51,37,120
2,note_on,51,0,120
2,note_on,39,0,120
2,note_on,44,32,450
2,note_on,56,43,30
2,note_on,56,0,120
2,note_on,51,35,120
2,note_on,51,0,120
2,note_on,44,0,120
2,note_on,63,42,0
2,note_on,63,0,120
2,note_on,56,36,120
2,note_on,56,0,120
2,note_on,51,43,120
2,note_on,51,0,120
2,note_on,63,33,120
2,note_on,63,0,120
2,note_on,49,43,120
2,note_on,49,0,120
2,note_on,61,37,120
2,note_on,61,0,120
2,note_on,47,43,120
2,note_on,47,0,120
2,note_on,59,33,120
2,note_on,59,0,120
2,note_on,42,43,120
2,note_on,42,0,120
2,note_on,54,37,120
2,note_on,54,0,120
2,note_on,43,43,120
2,note_on,43,0,120
2,note_on,51,38,120
2,note_on,51,0,120
2,note_on,44,43,120
2,note_on,44,0,120
2,note_on,51,40,120
2,note_on,51,0,120
2,note_on,39,43,120
2,note_on,39,0,120
2,note_on,46,33,120
2,note_on,46,0,120
2,note_on,51,43,120
2,note_on,51,0,120
2,note_on,46,37,120
2,note_on,46,0,120
2,note_on,39,43,120
2,note_on,39,0,120
2,note_on,46,38,120
2,note_on,46,0,120
2,note_on,51,43,120
2,note_on,51,0,120
2,note_on,46,40,120
2,note_on,46,0,120
2,note_on,44,47,120
2,note_on,51,47,0
2,note_on,51,0,120
2,note_on,44,0,0
2,note_on,39,38,120
2,note_on,39,0,120
2,note_on,32,43,120
2,note_on,32,0,120
2,note_on,39,37,1080
2,note_on,39,0,120
2,note_on,55,47,120
2,note_on,55,0,120
2,note_on,51,42,120
2,note_on,51,0,120
2,note_on,63,47,120
2,note_on,63,0,120
2,note_on,44,36,120
2,note_on,44,0,120
2,note_on,56,49,120
2,note_on,56,0,120
2,note_on,51,40,120
2,note_on,51,0,120
2,note_on,63,48,120
2,note_on,63,0,120
2,note_on,39,41,120
2,note_on,39,0,120
2,note_on,55,47,120
2,note_on,55,0,120
2,note_on,51,42,120
2,note_on,51,0,120
2,note_on,63,47,120
2,note_on,63,0,120
2,note_on,44,36,120
2,note_on,44,0,120
2,note_on,56,49,120
2,note_on,56,0,120
2,note_on,51,40,120
2,note_on,51,0,120
2,note_on,63,48,120
2,note_on,63,0,120
2,note_on,56,41,120
2,note_on,56,0,120
2,note_on,51,49,120
2,note_on,51,0,120
2,note_on,63,37,120
2,note_on,63,0,120
2,note_on,49,49,120
2,note_on,49,0,120
2,note_on,61,42,120
2,note_on,61,0,120
2,note_on,47,49,120
2,note_on,47,0,120
2,note_on,59,37,120
2,note_on,59,0,120
2,note_on,42,49,120
2,note_on,42,0,120
2,note_on,54,42,120
2,note_on,54,0,120
2,note_on,43,49,120
2,note_on,43,0,120
2,note_on,51,36,120
2,note_on,55,43,0
2,note_on,55,0,120
2,note_on,51,0,0
2,note_on,44,49,120
2,note_on,44,0,120
2,note_on,51,39,120
2,note_on,56,46,0
2,note_on,56,0,120
2,note_on,51,0,0
2,note_on,39,49,120
2,note_on,39,0,120
2,note_on,46,37,120
2,note_on,46,0,120
2,note_on,51,49,120
2,note_on,51,0,120
2,note_on,58,42,120
2,note_on,58,0,120
2,note_on,63,49,120
2,note_on,63,0,120
2,note_on,58,43,120
2,note_on,58,0,120
2,note_on,51,49,120
2,note_on,51,0,120
2,note_on,61,46,120
2,note_on,61,0,120
2,note_on,60,54,120
2,note_on,60,0,120
2,note_on,51,43,120
2,note_on,51,0,120
2,note_on,44,49,120
2,note_on,44,0,120
2,note_on,39,54,360
2,note_on,51,64,0
2,note_on,51,0,120
2,note_on,39,0,0
2,note_on,40,46,120
2,note_on,52,55,0
2,note_on,52,0,120
2,note_on,40,0,0
2,note_on,37,56,120
2,note_on,49,67,0
2,note_on,49,0,120
2,note_on,37,0,0
2,note_on,39,50,120
2,note_on,51,59,0
2,note_on,51,0,120
2,note_on,39,0,0
2,note_on,35,58,120
2,note_on,47,69,0
2,note_on,47,0,120
2,note_on,35,0,0
2,note_on,37,51,120
2,note_on,49,60,0
2,note_on,49,0,120
2,note_on,37,0,0
2,note_on,33,56,120
2,note_on,45,66,0
2,note_on,45,0,120
2,note_on,33,0,0
2,note_on,35,50,120
2,note_on,47,59,0
2,note_on,47,0,120
2,note_on,35,0,0
2,note_on,31,59,120
2,note_on,43,70,0
2,note_on,43,0,480
2,note_on,31,0,0
2,note_on,32,60,0
2,note_on,44,71,0
2,note_on,44,0,480
2,note_on,32,0,0
2,note_on,39,67,0
2,note_on,39,0,120
2,note_on,46,59,120
2,note_on,46,0,120
2,note_on,51,67,120
2,note_on,51,0,120
2,note_on,58,61,120
2,note_on,58,0,120
2,note_on,63,69,120
2,note_on,63,0,120
2,note_on,58,57,120
2,note_on,58,0,120
2,note_on,51,67,120
2,note_on,51,0,120
2,note_on,61,61,120
2,note_on,61,0,120
2,note_on,60,76,120
2,note_on,60,0,120
2,note_on,51,64,120
2,note_on,51,0,120
2,note_on,44,71,120
2,note_on,44,0,120
2,note_on,63,34,360
2,note_on,63,0,120
2,note_on,73,25,0
2,note_on,73,0,120
2,note_on,66,25,0
2,note_on,66,0,120
2,note_on,73,25,0
2,note_on,73,0,120
2,note_on,59,31,0
2,note_on,59,0,120
2,note_on,73,25,0
2,note_on,73,0,120
2,note_on,66,25,0
2,note_on,66,0,120
2,note_on,73,25,0
2,note_on,73,0,120
2,note_on,64,34,0
2,note_on,64,0,120
2,note_on,73,25,0
2,note_on,73,0,120
2,note_on,68,25,0
2,note_on,68,0,120
2,note_on,73,25,0
2,note_on,73,0,120
2,note_on,59,31,0
2,note_on,59,0,120
2,note_on,73,25,0
2,note_on,73,0,120
2,note_on,68,25,0
2,note_on,68,0,120
2,note_on,73,25,0
2,note_on,73,0,120
2,note_on,63,34,0
2,note_on,63,0,120
2,note_on,73,25,0
2,note_on,73,0,120
2,note_on,66,25,0
2,note_on,66,0,120
2,note_on,73,25,0
2,note_on,73,0,120
2,note_on,59,31,0
2,note_on,59,0,120
2,note_on,73,25,0
2,note_on,73,0,120
2,note_on,66,25,0
2,note_on,66,0,120
2,note_on,73,25,0
2,note_on,73,0,120
2,note_on,64,34,0
2,note_on,64,0,120
2,note_on,73,25,0
2,note_on,73,0,120
2,note_on,68,25,0
2,note_on,68,0,120
2,note_on,73,25,0
2,note_on,73,0,120
2,note_on,59,31,0
2,note_on,59,0,120
2,note_on,73,25,0
2,note_on,73,0,120
2,note_on,68,25,0
2,note_on,68,0,120
2,note_on,64,25,0
2,note_on,64,0,120
2,note_on,37,44,0
2,note_on,49,52,0
2,note_on,49,0,120
2,note_on,42,47,0
2,note_on,42,0,360
2,note_on,37,0,0
2,note_on,35,32,0
2,note_on,47,38,0
2,note_on,47,0,120
2,note_on,42,35,0
2,note_on,42,0,360
2,note_on,35,0,0
2,note_on,63,34,0
2,note_on,63,0,120
2,note_on,73,25,0
2,note_on,73,0,120
2,note_on,66,25,0
2,note_on,66,0,120
2,note_on,73,25,0
2,note_on,73,0,120
2,note_on,59,31,0
2,note_on,59,0,120
2,note_on,73,25,0
2,note_on,73,0,120
2,note_on,66,25,0
2,note_on,66,0,120
2,note_on,73,25,0
2,note_on,73,0,120
2,note_on,64,34,0
2,note_on,64,0,120
2,note_on,73,25,0
2,note_on,73,0,120
2,note_on,68,25,0
2,note_on,68,0,120
2,note_on,73,25,0
2,note_on,73,0,120
2,note_on,59,31,0
2,note_on,59,0,120
2,note_on,73,25,0
2,note_on,73,0,120
2,note_on,68,25,0
2,note_on,68,0,120
2,note_on,73,25,0
2,note_on,73,0,120
2,note_on,63,34,0
2,note_on,63,0,120
2,note_on,73,25,0
2,note_on,73,0,120
2,note_on,66,25,0
2,note_on,66,0,120
2,note_on,73,25,0
2,note_on,73,0,120
2,note_on,59,31,0
2,note_on,59,0,120
2,note_on,73,25,0
2,note_on,73,0,120
2,note_on,66,25,0
2,note_on,66,0,120
2,note_on,73,25,0
2,note_on,73,0,120
2,note_on,64,34,0
2,note_on,64,0,120
2,note_on,73,25,0
2,note_on,73,0,120
2,note_on,68,25,0
2,note_on,68,0,120
2,note_on,73,25,0
2,note_on,73,0,120
2,note_on,59,31,0
2,note_on,59,0,120
2,note_on,73,25,0
2,note_on,73,0,120
2,note_on,68,25,0
2,note_on,68,0,120
2,note_on,64,25,0
2,note_on,64,0,120
2,note_on,37,44,0
2,note_on,49,52,0
2,note_on,49,0,120
2,note_on,42,47,0
2,note_on,42,0,360
2,note_on,37,0,0
2,note_on,35,32,0
2,note_on,47,38,0
2,note_on,47,0,120
2,note_on,42,35,0
2,note_on,42,0,360
2,note_on,35,0,0
2,note_on,62,34,0
2,note_on,62,0,120
2,note_on,73,25,0
2,note_on,73,0,120
2,note_on,66,25,0
2,note_on,66,0,120
2,note_on,73,25,0
2,note_on,73,0,120
2,note_on,62,31,0
2,note_on,62,0,120
2,note_on,73,25,0
2,note_on,73,0,120
2,note_on,66,25,0
2,note_on,66,0,120
2,note_on,73,25,0
2,note_on,73,0,120
2,note_on,64,34,0
2,note_on,64,0,120
2,note_on,73,25,0
2,note_on,73,0,120
2,note_on,68,25,0
2,note_on,68,0,120
2,note_on,73,25,0
2,note_on,73,0,120
2,note_on,62,31,0
2,note_on,62,0,120
2,note_on,73,25,0
2,note_on,73,0,120
2,note_on,66,25,0
2,note_on,66,0,120
2,note_on,73,25,0
2,note_on,73,0,120
2,note_on,37,44,0
2,note_on,49,52,0
2,note_on,49,0,120
2,note_on,42,47,0
2,note_on,42,0,360
2,note_on,37,0,0
2,note_on,35,32,0
2,note_on,47,38,0
2,note_on,47,0,120
2,note_on,42,35,0
2,note_on,42,0,360
2,note_on,35,0,0
2,note_on,62,34,0
2,note_on,62,0,120
2,note_on,73,25,0
2,note_on,73,0,120
2,note_on,66,25,0
2,note_on,66,0,120
2,note_on,73,25,0
2,note_on,73,0,120
2,note_on,62,31,0
2,note_on,62,0,120
2,note_on,71,25,0
2,note_on,71,0,120
2,note_on,66,25,0
2,note_on,66,0,120
2,note_on,71,25,0
2,note_on,71,0,120
2,note_on,65,34,0
2,note_on,65,0,120
2,note_on,71,25,0
2,note_on,71,0,120
2,note_on,68,25,0
2,note_on,68,0,120
2,note_on,71,25,0
2,note_on,71,0,120
2,note_on,66,31,0
2,note_on,66,0,120
2,note_on,76,25,0
2,note_on,76,0,120
2,note_on,70,25,0
2,note_on,70,0,120
2,note_on,76,25,0
2,note_on,76,0,120
2,note_on,42,46,0
2,note_on,49,42,120
2,note_on,49,0,360
2,note_on,42,0,0
2,note_on,35,34,0
2,note_on,47,31,120
2,note_on,47,0,360
2,note_on,35,0,0
2,note_on,62,34,0
2,note_on,62,0,120
2,note_on,73,25,0
2,note_on,73,0,120
2,note_on,66,25,0
2,note_on,66,0,120
2,note_on,73,25,0
2,note_on,73,0,120
2,note_on,62,31,0
2,note_on,62,0,120
2,note_on,73,25,0
2,note_on,73,0,120
2,note_on,66,25,0
2,note_on,66,0,120
2,note_on,73,25,0
2,note_on,73,0,120
2,note_on,64,34,0
2,note_on,64,0,120
2,note_on,73,25,0
2,note_on,73,0,120
2,note_on,68,25,0
2,note_on,68,0,120
2,note_on,73,25,0
2,note_on,73,0,120
2,note_on,62,31,0
2,note_on,62,0,120
2,note_on,73,25,0
2,note_on,73,0,120
2,note_on,66,25,0
2,note_on,66,0,120
2,note_on,73,25,0
2,note_on,73,0,120
2,note_on,37,39,0
2,note_on,49,46,0
2,note_on,49,0,120
2,note_on,42,42,0
2,note_on,42,0,360
2,note_on,37,0,0
2,note_on,35,28,0
2,note_on,47,34,0
2,note_on,47,0,120
2,note_on,42,31,0
2,note_on,42,0,360
2,note_on,35,0,0
2,note_on,62,34,0
2,note_on,62,0,120
2,note_on,73,25,0
2,note_on,73,0,120
2,note_on,66,25,0
2,note_on,66,0,120
2,note_on,73,25,0
2,note_on,73,0,120
2,note_on,62,31,0
2,note_on,62,0,120
2,note_on,71,25,0
2,note_on,71,0,120
2,note_on,66,25,0
2,note_on,66,0,120
2,note_on,71,25,0
2,note_on,71,0,120
2,note_on,65,34,0
2,note_on,65,0,120
2,note_on,71,25,0
2,note_on,71,0,120
2,note_on,68,25,0
2,note_on,68,0,120
2,note_on,71,25,0
2,note_on,71,0,120
2,note_on,66,31,0
2,note_on,66,0,120
2,note_on,76,25,0
2,note_on,76,0,120
2,note_on,70,25,0
2,note_on,70,0,120
2,note_on,76,25,0
2,note_on,76,0,120
2,note_on,42,44,0
2,note_on,49,39,120
2,note_on,49,0,360
2,note_on,42,0,0
2,note_on,35,32,0
2,note_on,47,29,120
2,note_on,47,0,360
2,note_on,35,0,0
2,note_on,51,34,0
2,note_on,51,0,160
2,note_on,61,25,0
2,note_on,61,0,160
2,note_on,59,25,0
2,note_on,59,0,160
2,note_on,69,31,0
2,note_on,69,0,120
2,note_on,66,25,0
2,note_on,66,0,120
2,note_on,61,25,0
2,note_on,61,0,120
2,note_on,59,25,0
2,note_on,59,0,120
2,note_on,52,34,0
2,note_on,52,0,160
2,note_on,61,25,0
2,note_on,61,0,160
2,note_on,59,25,0
2,note_on,59,0,160
2,note_on,68,31,0
2,note_on,68,0,120
2,note_on,64,25,0
2,note_on,64,0,120
2,note_on,61,25,0
2,note_on,61,0,120
2,note_on,59,25,0
2,note_on,59,0,120
2,note_on,51,34,0
2,note_on,51,0,160
2,note_on,61,25,0
2,note_on,61,0,160
2,note_on,59,25,0
2,note_on,59,0,160
2,note_on,69,31,0
2,note_on,69,0,120
2,note_on,66,25,0
2,note_on,66,0,120
2,note_on,61,25,0
2,note_on,61,0,120
2,note_on,59,25,0
2,note_on,59,0,120
2,note_on,52,34,0
2,note_on,52,0,160
2,note_on,61,25,0
2,note_on,61,0,160
2,note_on,59,25,0
2,note_on,59,0,160
2,note_on,68,31,0
2,note_on,68,0,120
2,note_on,64,25,0
2,note_on,64,0,120
2,note_on,61,25,0
2,note_on,61,0,120
2,note_on,59,25,0
2,note_on,59,0,120
2,note_on,37,41,0
2,note_on,49,49,0
2,note_on,49,0,120
2,note_on,42,44,0
2,note_on,42,0,360
2,note_on,37,0,0
2,note_on,35,30,0
2,note_on,47,36,0
2,note_on,47,0,120
2,note_on,42,33,0
2,note_on,42,0,360
2,note_on,35,0,0
2,note_on,51,34,0
2,note_on,51,0,160
2,note_on,61,25,0
2,note_on,61,0,160
2,note_on,59,25,0
2,note_on,59,0,160
2,note_on,69,31,0
2,note_on,69,0,120
2,note_on,66,25,0
2,note_on,66,0,120
2,note_on,61,25,0
2,note_on,61,0,120
2,note_on,59,25,0
2,note_on,59,0,120
2,note_on,52,34,0
2,note_on,52,0,160
2,note_on,61,25,0
2,note_on,61,0,160
2,note_on,59,25,0
2,note_on,59,0,160
2,note_on,68,31,0
2,note_on,68,0,120
2,note_on,64,25,0
2,note_on,64,0,120
2,note_on,61,25,0
2,note_on,61,0,120
2,note_on,59,25,0
2,note_on,59,0,120
2,note_on,51,34,0
2,note_on,51,0,160
2,note_on,61,25,0
2,note_on,61,0,160
2,note_on,59,25,0
2,note_on,59,0,160
2,note_on,69,31,0
2,note_on,69,0,120
2,note_on,66,25,0
2,note_on,66,0,120
2,note_on,61,25,0
2,note_on,61,0,120
2,note_on,59,25,0
2,note_on,59,0,120
2,note_on,52,34,0
2,note_on,52,0,160
2,note_on,61,25,0
2,note_on,61,0,160
2,note_on,59,25,0
2,note_on,59,0,160
2,note_on,68,31,0
2,note_on,68,0,120
2,note_on,64,25,0
2,note_on,64,0,120
2,note_on,61,25,0
2,note_on,61,0,120
2,note_on,59,25,0
2,note_on,59,0,120
2,note_on,37,41,0
2,note_on,49,49,0
2,note_on,49,0,120
2,note_on,42,44,0
2,note_on,42,0,360
2,note_on,37,0,0
2,note_on,35,30,0
2,note_on,47,36,0
2,note_on,47,0,120
2,note_on,42,33,0
2,note_on,42,0,360
2,note_on,35,0,0
2,note_on,50,34,0
2,note_on,50,0,160
2,note_on,61,25,0
2,note_on,61,0,160
2,note_on,59,25,0
2,note_on,59,0,160
2,note_on,66,34,0
2,note_on,66,0,160
2,note_on,61,25,0
2,note_on,61,0,160
2,note_on,59,25,0
2,note_on,59,0,160
2,note_on,52,34,0
2,note_on,52,0,160
2,note_on,59,29,0
2,note_on,59,0,160
2,note_on,68,28,0
2,note_on,68,0,160
2,note_on,50,34,0
2,note_on,50,0,160
2,note_on,59,27,0
2,note_on,59,0,160
2,note_on,66,27,0
2,note_on,66,0,160
2,note_on,37,44,0
2,note_on,49,52,0
2,note_on,49,0,120
2,note_on,42,47,0
2,note_on,42,0,360
2,note_on,37,0,0
2,note_on,35,32,0
2,note_on,47,38,0
2,note_on,47,0,120
2,note_on,42,35,0
2,note_on,42,0,360
2,note_on,35,0,0
2,note_on,50,34,0
2,note_on,50,0,160
2,note_on,61,25,0
2,note_on,61,0,160
2,note_on,59,25,0
2,note_on,59,0,160
2,note_on,66,34,0
2,note_on,66,0,160
2,note_on,61,25,0
2,note_on,61,0,160
2,note_on,59,25,0
2,note_on,59,0,160
2,note_on,53,34,0
2,note_on,53,0,160
2,note_on,59,29,0
2,note_on,59,0,160
2,note_on,68,28,0
2,note_on,68,0,160
2,note_on,54,34,0
2,note_on,54,0,160
2,note_on,64,27,0
2,note_on,64,0,160
2,note_on,70,27,0
2,note_on,70,0,160
2,note_on,42,44,0
2,note_on,49,39,120
2,note_on,49,0,360
2,note_on,42,0,0
2,note_on,35,32,0
2,note_on,47,29,120
2,note_on,47,0,360
2,note_on,35,0,0
2,note_on,50,34,0
2,note_on,50,0,160
2,note_on,61,25,0
2,note_on,61,0,160
2,note_on,59,25,0
2,note_on,59,0,160
2,note_on,66,34,0
2,note_on,66,0,160
2,note_on,61,25,0
2,note_on,61,0,160
2,note_on,59,25,0
2,note_on,59,0,160
2,note_on,52,34,0
2,note_on,52,0,160
2,note_on,59,29,0
2,note_on,59,0,160
2,note_on,68,28,0
2,note_on,68,0,160
2,note_on,50,34,0
2,note_on,50,0,160
2,note_on,59,27,0
2,note_on,59,0,160
2,note_on,66,27,0
2,note_on,66,0,160
2,note_on,37,44,0
2,note_on,49,52,0
2,note_on,49,0,120
2,note_on,42,47,0
2,note_on,42,0,360
2,note_on,37,0,0
2,note_on,35,32,0
2,note_on,47,38,0
2,note_on,47,0,120
2,note_on,42,35,0
2,note_on,42,0,360
2,note_on,35,0,0
2,note_on,50,34,0
2,note_on,50,0,160
2,note_on,61,25,0
2,note_on,61,0,160
2,note_on,59,25,0
2,note_on,59,0,160
2,note_on,66,34,0
2,note_on,66,0,160
2,note_on,61,25,0
2,note_on,61,0,160
2,note_on,59,25,0
2,note_on,59,0,160
2,note_on,53,34,0
2,note_on,53,0,160
2,note_on,59,29,0
2,note_on,59,0,160
2,note_on,68,28,0
2,note_on,68,0,160
2,note_on,64,37,3300
2,note_on,68,42,30
2,note_on,74,49,30
2,note_on,74,0,480
2,note_on,73,47,0
2,note_on,73,0,240
2,note_on,71,41,0
2,note_on,71,0,240
2,note_on,68,0,0
2,note_on,64,0,0
2,note_on,64,38,0
2,note_on,73,38,0
2,note_on,76,45,0
2,note_on,76,0,240
2,note_on,68,39,0
2,note_on,68,0,240
2,note_on,69,45,0
2,note_on,69,0,420
2,note_on,64,37,0
2,note_on,68,42,30
2,note_on,73,0,30
2,note_on,64,0,0
2,note_on,74,49,0
2,note_on,74,0,480
2,note_on,73,47,0
2,note_on,73,0,240
2,note_on,71,41,0
2,note_on,71,0,240
2,note_on,64,0,0
2,note_on,68,0,0
2,note_on,64,38,0
2,note_on,73,38,0
2,note_on,76,45,0
2,note_on,76,0,240
2,note_on,68,39,0
2,note_on,68,0,240
2,note_on,69,45,0
2,note_on,69,0,420
2,note_on,64,37,0
2,note_on,68,42,30
2,note_on,73,0,30
2,note_on,64,0,0
2,note_on,74,49,0
2,note_on,74,0,480
2,note_on,73,47,0
2,note_on,73,0,240
2,note_on,71,41,0
2,note_on,71,0,240
2,note_on,64,0,0
2,note_on,68,0,0
2,note_on,64,38,0
2,note_on,73,38,0
2,note_on,76,45,0
2,note_on,76,0,240
2,note_on,68,39,0
2,note_on,68,0,240
2,note_on,69,45,0
2,note_on,69,0,480
2,note_on,73,0,0
2,note_on,64,0,0
2,note_on,64,39,0
2,note_on,68,39,0
2,note_on,71,39,0
2,note_on,74,49,0
2,note_on,74,0,2400
2,note_on,64,0,0
2,note_on,68,0,0
2,note_on,71,0,0
2,note_on,63,40,3360
2,note_on,63,0,90
2,note_on,64,38,150
2,note_on,64,0,90
2,note_on,61,38,150
2,note_on,61,0,90
2,note_on,63,38,150
2,note_on,63,0,90
2,note_on,59,40,150
2,note_on,59,0,90
2,note_on,61,38,150
2,note_on,61,0,90
2,note_on,57,38,150
2,note_on,57,0,90
2,note_on,59,38,150
2,note_on,59,0,90
2,note_on,55,44,150
2,note_on,55,0,90
2,note_on,61,39,150
2,note_on,61,0,90
2,note_on,56,38,150
2,note_on,56,0,90
2,note_on,59,40,150
2,note_on,59,0,90
2,note_on,51,40,150
2,note_on,51,0,90
2,note_on,58,37,150
2,note_on,58,0,90
2,note_on,63,45,150
2,note_on,63,0,480
2,note_on,63,44,0
2,note_on,63,0,90
2,note_on,64,41,150
2,note_on,64,0,90
2,note_on,61,41,150
2,note_on,61,0,90
2,note_on,63,41,150
2,note_on,63,0,90
2,note_on,59,44,150
2,note_on,59,0,90
2,note_on,61,41,150
2,note_on,61,0,90
2,note_on,57,41,150
2,note_on,57,0,90
2,note_on,59,41,150
2,note_on,59,0,90
2,note_on,56,48,150
2,note_on,56,0,90
2,note_on,61,39,150
2,note_on,61,0,90
2,note_on,51,41,150
2,note_on,51,0,90
2,note_on,55,39,150
2,note_on,61,45,0
2,note_on,61,0,90
2,note_on,55,0,0
2,note_on,56,46,150
2,note_on,56,0,90
2,note_on,59,42,150
2,note_on,59,0,90
2,note_on,56,48,150
2,note_on,59,52,0
2,note_on,59,0,90
2,note_on,56,0,0
2,note_on,51,44,390
2,note_on,63,52,0
2,note_on,63,0,90
2,note_on,51,0,0
2,note_on,52,41,150
2,note_on,64,49,0
2,note_on,64,0,90
2,note_on,52,0,0
2,note_on,49,41,150
2,note_on,61,49,0
2,note_on,61,0,90
2,note_on,49,0,0
2,note_on,51,41,150
2,note_on,63,49,0
2,note_on,63,0,90
2,note_on,51,0,0
2,note_on,47,44,150
2,note_on,59,52,0
2,note_on,59,0,90
2,note_on,47,0,0
2,note_on,49,41,150
2,note_on,61,49,0
2,note_on,61,0,90
2,note_on,49,0,0
2,note_on,45,41,150
2,note_on,57,49,0
2,note_on,57,0,90
2,note_on,45,0,0
2,note_on,47,41,150
2,note_on,59,49,0
2,note_on,59,0,90
2,note_on,47,0,0
2,note_on,43,48,150
2,note_on,55,57,0
2,note_on,55,0,480
2,note_on,43,0,0
2,note_on,44,41,0
2,note_on,56,49,0
2,note_on,56,0,480
2,note_on,44,0,0
2,note_on,39,44,0
2,note_on,51,52,0
2,note_on,51,0,90
2,note_on,39,0,0
2,note_on,43,40,150
2,note_on,55,48,0
2,note_on,55,0,90
2,note_on,43,0,0
2,note_on,46,40,150
2,note_on,58,48,0
2,note_on,58,0,90
2,note_on,46,0,0
2,note_on,50,40,150
2,note_on,62,48,0
2,note_on,62,0,90
2,note_on,50,0,0
2,note_on,51,46,150
2,note_on,63,54,0
2,note_on,63,0,90
2,note_on,51,0,0
2,note_on,52,43,150
2,note_on,64,51,0
2,note_on,64,0,90
2,note_on,52,0,0
2,note_on,49,43,150
2,note_on,61,51,0
2,note_on,61,0,90
2,note_on,49,0,0
2,note_on,51,43,150
2,note_on,63,51,0
2,note_on,63,0,90
2,note_on,51,0,0
2,note_on,47,46,150
2,note_on,59,54,0
2,note_on,59,0,90
2,note_on,47,0,0
2,note_on,49,43,150
2,note_on,61,51,0
2,note_on,61,0,90
2,note_on,49,0,0
2,note_on,45,43,150
2,note_on,57,51,0
2,note_on,57,0,90
2,note_on,45,0,0
2,note_on,47,43,150
2,note_on,59,51,0
2,note_on,59,0,90
2,note_on,47,0,0
2,note_on,43,48,150
2,note_on,55,56,0
2,note_on,55,0,90
2,note_on,43,0,0
2,note_on,45,45,150
2,note_on,57,53,0
2,note_on,57,0,90
2,note_on,45,0,0
2,note_on,41,45,150
2,note_on,53,53,0
2,note_on,53,0,90
2,note_on,41,0,0
2,note_on,43,45,150
2,note_on,55,53,0
2,note_on,55,0,90
2,note_on,43,0,0
2,note_on,39,48,150
2,note_on,51,56,0
2,note_on,51,0,90
2,note_on,39,0,0
2,note_on,41,45,150
2,note_on,53,53,0
2,note_on,53,0,90
2,note_on,41,0,0
2,note_on,37,45,150
2,note_on,49,53,0
2,note_on,49,0,90
2,note_on,37,0,0
2,note_on,39,45,150
2,note_on,51,53,0
2,note_on,51,0,90
2,note_on,39,0,0
2,note_on,36,67,150
2,note_on,48,55,240
2,note_on,48,0,90
2,note_on,36,0,150
2,note_on,35,64,0
2,note_on,47,55,240
2,note_on,47,0,90
2,note_on,35,0,150
2,note_on,33,70,0
2,note_on,45,55,240
2,note_on,45,0,90
2,note_on,33,0,150
2,note_on,31,67,0
2,note_on,43,56,240
2,note_on,43,0,90
2,note_on,31,0,150
2,note_on,36,68,0
2,note_on,48,56,240
2,note_on,48,0,90
2,note_on,36,0,150
2,note_on,38,65,0
2,note_on,50,56,240
2,note_on,50,0,90
2,note_on,38,0,150
2,note_on,40,72,0
2,note_on,52,75,240
2,note_on,52,0,720
2,note_on,40,0,0
2,note_on,36,58,0
2,note_on,48,70,0
2,note_on,48,0,90
2,note_on,36,0,0
2,note_on,48,48,150
2,note_on,60,57,0
2,note_on,60,0,90
2,note_on,48,0,0
2,note_on,35,56,150
2,note_on,47,67,0
2,note_on,47,0,90
2,note_on,35,0,0
2,note_on,59,57,150
2,note_on,47,48,0
2,note_on,47,0,90
2,note_on,59,0,0
2,note_on,45,74,150
2,note_on,33,62,0
2,note_on,33,0,90
2,note_on,45,0,0
2,note_on,57,58,150
2,note_on,45,48,0
2,note_on,45,0,90
2,note_on,57,0,0
2,note_on,43,71,150
2,note_on,31,59,0
2,note_on,31,0,90
2,note_on,43,0,0
2,note_on,55,58,150
2,note_on,43,49,0
2,note_on,43,0,90
2,note_on,55,0,0
2,note_on,36,59,150
2,note_on,48,71,0
2,note_on,48,0,90
2,note_on,36,0,0
2,note_on,48,49,150
2,note_on,60,58,0
2,note_on,60,0,90
2,note_on,48,0,0
2,note_on,38,58,150
2,note_on,50,69,0
2,note_on,50,0,90
2,note_on,38,0,0
2,note_on,62,59,150
2,note_on,50,49,0
2,note_on,50,0,90
2,note_on,62,0,0
2,note_on,52,75,150
2,note_on,40,63,0
2,note_on,40,0,90
2,note_on,52,0,0
2,note_on,64,80,150
2,note_on,52,65,0
2,note_on,52,0,720
2,note_on,64,0,0
2,note_on,33,61,0
2,note_on,45,73,0
2,note_on,45,0,90
2,note_on,33,0,0
2,note_on,45,50,150
2,note_on,57,60,0
2,note_on,57,0,90
2,note_on,45,0,0
2,note_on,32,59,150
2,note_on,44,70,0
2,note_on,44,0,90
2,note_on,32,0,0
2,note_on,56,60,150
2,note_on,44,50,0
2,note_on,44,0,90
2,note_on,56,0,0
2,note_on,42,77,150
2,note_on,30,64,0
2,note_on,30,0,90
2,note_on,42,0,0
2,note_on,54,60,150
2,note_on,42,50,0
2,note_on,42,0,90
2,note_on,54,0,0
2,note_on,40,73,150
2,note_on,28,61,0
2,note_on,28,0,90
2,note_on,40,0,0
2,note_on,52,60,150
2,note_on,40,50,0
2,note_on,40,0,90
2,note_on,52,0,0
2,note_on,33,61,150
2,note_on,45,73,0
2,note_on,45,0,90
2,note_on,33,0,0
2,note_on,45,50,150
2,note_on,57,60,0
2,note_on,57,0,90
2,note_on,45,0,0
2,note_on,35,59,150
2,note_on,47,70,0
2,note_on,47,0,90
2,note_on,35,0,0
2,note_on,59,60,150
2,note_on,47,50,0
2,note_on,47,0,90
2,note_on,59,0,0
2,note_on,49,77,150
2,note_on,37,64,0
2,note_on,37,0,90
2,note_on,49,0,0
2,note_on,61,81,150
2,note_on,49,66,0
2,note_on,49,0,720
2,note_on,61,0,0
2,note_on,33,61,0
2,note_on,45,73,0
2,note_on,45,0,90
2,note_on,33,0,0
2,note_on,45,50,150
2,note_on,57,60,0
2,note_on,57,0,90
2,note_on,45,0,0
2,note_on,32,59,150
2,note_on,44,70,0
2,note_on,44,0,90
2,note_on,32,0,0
2,note_on,56,60,150
2,note_on,44,50,0
2,note_on,44,0,90
2,note_on,56,0,0
2,note_on,42,77,150
2,note_on,30,64,0
2,note_on,30,0,90
2,note_on,42,0,0
2,note_on,54,60,150
2,note_on,42,50,0
2,note_on,42,0,90
2,note_on,54,0,0
2,note_on,40,73,150
2,note_on,28,61,0
2,note_on,28,0,90
2,note_on,40,0,0
2,note_on,52,60,150
2,note_on,40,50,0
2,note_on,40,0,90
2,note_on,52,0,0
2,note_on,33,61,150
2,note_on,45,73,0
2,note_on,45,0,90
2,note_on,33,0,0
2,note_on,45,50,150
2,note_on,57,60,0
2,note_on,57,0,90
2,note_on,45,0,0
2,note_on,35,59,150
2,note_on,47,70,0
2,note_on,47,0,90
2,note_on,35,0,0
2,note_on,59,60,150
2,note_on,47,50,0
2,note_on,47,0,90
2,note_on,59,0,0
2,note_on,49,77,150
2,note_on,37,64,0
2,note_on,37,0,90
2,note_on,49,0,0
2,note_on,61,81,150
2,note_on,49,66,0
2,note_on,49,0,660
2,note_on,61,0,0
2,note_on,30,55,60
2,note_on,34,55,0
2,note_on,37,55,0
2,note_on,42,65,0
2,note_on,42,0,480
2,note_on,30,0,0
2,note_on,34,0,0
2,note_on,37,0,0
2,note_on,29,51,0
2,note_on,34,51,0
2,note_on,37,51,0
2,note_on,41,60,0
2,note_on,41,0,480
2,note_on,29,0,0
2,note_on,34,0,0
2,note_on,37,0,0
2,note_on,27,55,0
2,note_on,30,55,0
2,note_on,34,55,0
2,note_on,39,65,0
2,note_on,39,0,480
2,note_on,27,0,0
2,note_on,30,0,0
2,note_on,34,0,0
2,note_on,25,51,0
2,note_on,30,51,0
2,note_on,34,51,0
2,note_on,37,51,0
2,note_on,37,0,480
2,note_on,25,0,0
2,note_on,30,0,0
2,note_on,34,0,0
2,note_on,30,55,0
2,note_on,34,55,0
2,note_on,37,55,0
2,note_on,42,65,0
2,note_on,42,0,216
2,note_on,30,0,0
2,note_on,34,0,0
2,note_on,37,0,0
2,note_on,30,51,24
2,note_on,34,51,0
2,note_on,37,51,0
2,note_on,42,60,0
2,note_on,42,0,216
2,note_on,30,0,0
2,note_on,34,0,0
2,note_on,37,0,0
2,note_on,32,55,24
2,note_on,37,55,0
2,note_on,44,65,0
2,note_on,44,0,480
2,note_on,37,0,0
2,note_on,32,0,0
2,note_on,34,57,0
2,note_on,37,57,0
2,note_on,42,57,0
2,note_on,46,68,0
2,note_on,46,0,480
2,note_on,34,0,0
2,note_on,37,0,0
2,note_on,42,0,0
2,note_on,30,55,480
2,note_on,34,55,0
2,note_on,37,55,0
2,note_on,42,65,0
2,note_on,42,0,480
2,note_on,30,0,0
2,note_on,34,0,0
2,note_on,37,0,0
2,note_on,29,51,0
2,note_on,34,51,0
2,note_on,37,51,0
2,note_on,41,60,0
2,note_on,41,0,480
2,note_on,29,0,0
2,note_on,34,0,0
2,note_on,37,0,0
2,note_on,27,55,0
2,note_on,30,55,0
2,note_on,34,55,0
2,note_on,39,65,0
2,note_on,39,0,480
2,note_on,27,0,0
2,note_on,30,0,0
2,note_on,34,0,0
2,note_on,25,51,0
2,note_on,30,51,0
2,note_on,34,51,0
2,note_on,37,51,0
2,note_on,37,0,480
2,note_on,25,0,0
2,note_on,30,0,0
2,note_on,34,0,0
2,note_on,30,55,0
2,note_on,34,55,0
2,note_on,37,55,0
2,note_on,42,65,0
2,note_on,42,0,216
2,note_on,30,0,0
2,note_on,34,0,0
2,note_on,37,0,0
2,note_on,30,51,24
2,note_on,34,51,0
2,note_on,37,51,0
2,note_on,42,60,0
2,note_on,42,0,216
2,note_on,30,0,0
2,note_on,34,0,0
2,note_on,37,0,0
2,note_on,32,55,24
2,note_on,37,55,0
2,note_on,44,65,0
2,note_on,44,0,480
2,note_on,37,0,0
2,note_on,32,0,0
2,note_on,34,57,0
2,note_on,37,57,0
2,note_on,42,57,0
2,note_on,46,68,0
2,note_on,46,0,480
2,note_on,34,0,0
2,note_on,37,0,0
2,note_on,42,0,0
2,note_on,42,62,480
2,note_on,46,62,0
2,note_on,49,62,0
2,note_on,54,73,0
2,note_on,54,0,720
2,note_on,42,0,0
2,note_on,46,0,0
2,note_on,49,0,0
2,note_on,42,57,0
2,note_on,46,57,0
2,note_on,49,57,0
2,note_on,54,68,0
2,note_on,54,0,240
2,note_on,42,0,0
2,note_on,46,0,0
2,note_on,49,0,0
2,note_on,47,62,0
2,note_on,51,62,0
2,note_on,54,62,0
2,note_on,59,73,0
2,note_on,59,0,480
2,note_on,47,0,0
2,note_on,51,0,0
2,note_on,54,0,0
2,note_on,42,59,0
2,note_on,46,59,0
2,note_on,49,59,0
2,note_on,54,70,0
2,note_on,54,0,480
2,note_on,42,0,0
2,note_on,46,0,0
2,note_on,49,0,0
2,note_on,34,62,0
2,note_on,46,74,0
2,note_on,46,0,720
2,note_on,34,0,0
2,note_on,38,56,0
2,note_on,46,67,0
2,note_on,46,0,240
2,note_on,38,0,0
2,note_on,39,61,0
2,note_on,46,72,0
2,note_on,46,0,120
2,note_on,39,0,0
2,note_on,41,58,120
2,note_on,46,69,0
2,note_on,46,0,120
2,note_on,41,0,0
2,note_on,42,58,120
2,note_on,46,69,0
2,note_on,46,0,240
2,note_on,42,0,0
2,note_on,54,66,240
2,note_on,58,78,0
2,note_on,58,0,480
2,note_on,54,0,0
2,note_on,56,58,0
2,note_on,59,69,0
2,note_on,59,0,120
2,note_on,56,0,0
2,note_on,54,58,120
2,note_on,58,69,0
2,note_on,58,0,120
2,note_on,54,0,0
2,note_on,53,62,120
2,note_on,56,74,0
2,note_on,56,0,120
2,note_on,53,0,0
2,note_on,51,58,120
2,note_on,54,69,0
2,note_on,54,0,120
2,note_on,51,0,0
2,note_on,46,58,120
2,note_on,53,69,0
2,note_on,53,0,240
2,note_on,46,0,0
2,note_on,39,64,240
2,note_on,46,64,0
2,note_on,51,76,0
2,note_on,51,0,240
2,note_on,46,0,0
2,note_on,39,0,0
2,note_on,42,62,720
2,note_on,46,62,0
2,note_on,49,62,0
2,note_on,54,73,0
2,note_on,54,0,720
2,note_on,42,0,0
2,note_on,46,0,0
2,note_on,49,0,0
2,note_on,42,57,0
2,note_on,46,57,0
2,note_on,49,57,0
2,note_on,54,68,0
2,note_on,54,0,240
2,note_on,42,0,0
2,note_on,46,0,0
2,note_on,49,0,0
2,note_on,47,62,0
2,note_on,51,62,0
2,note_on,54,62,0
2,note_on,59,73,0
2,note_on,59,0,480
2,note_on,47,0,0
2,note_on,51,0,0
2,note_on,54,0,0
2,note_on,42,59,0
2,note_on,46,59,0
2,note_on,49,59,0
2,note_on,54,70,0
2,note_on,54,0,480
2,note_on,42,0,0
2,note_on,46,0,0
2,note_on,49,0,0
2,note_on,34,62,0
2,note_on,46,74,0
2,note_on,46,0,720
2,note_on,34,0,0
2,note_on,46,56,0
2,note_on,38,56,0
2,note_on,50,67,0
2,note_on,50,0,240
2,note_on,38,0,0
2,note_on,46,0,0
2,note_on,46,61,0
2,note_on,39,61,0
2,note_on,51,72,0
2,note_on,51,0,120
2,note_on,39,0,0
2,note_on,46,0,0
2,note_on,46,58,120
2,note_on,41,58,0
2,note_on,53,69,0
2,note_on,53,0,120
2,note_on,41,0,0
2,note_on,46,0,0
2,note_on,46,58,120
2,note_on,42,58,0
2,note_on,54,69,0
2,note_on,54,0,240
2,note_on,42,0,0
2,note_on,46,0,0
2,note_on,58,66,240
2,note_on,54,66,0
2,note_on,66,78,0
2,note_on,66,0,480
2,note_on,54,0,0
2,note_on,58,0,0
2,note_on,56,58,0
2,note_on,68,69,0
2,note_on,68,0,120
2,note_on,56,0,0
2,note_on,54,58,120
2,note_on,66,69,0
2,note_on,66,0,120
2,note_on,54,0,0
2,note_on,53,62,120
2,note_on,65,74,0
2,note_on,65,0,120
2,note_on,53,0,0
2,note_on,51,58,120
2,note_on,63,69,0
2,note_on,63,0,120
2,note_on,51,0,0
2,note_on,46,58,120
2,note_on,58,69,0
2,note_on,58,0,240
2,note_on,46,0,0
2,note_on,51,64,240
2,note_on,54,64,0
2,note_on,58,76,0
2,note_on,58,0,240
2,note_on,54,0,0
2,note_on,51,0,0
2,note_on,30,66,720
2,note_on,34,66,0
2,note_on,37,66,0
2,note_on,42,78,0
2,note_on,42,0,480
2,note_on,30,0,0
2,note_on,34,0,0
2,note_on,37,0,0
2,note_on,29,61,0
2,note_on,34,61,0
2,note_on,37,61,0
2,note_on,41,72,0
2,note_on,41,0,480
2,note_on,29,0,0
2,note_on,34,0,0
2,note_on,37,0,0
2,note_on,27,66,0
2,note_on,30,66,0
2,note_on,34,66,0
2,note_on,39,78,0
2,note_on,39,0,480
2,note_on,27,0,0
2,note_on,30,0,0
2,note_on,34,0,0
2,note_on,25,61,0
2,note_on,30,61,0
2,note_on,34,61,0
2,note_on,37,61,0
2,note_on,37,0,480
2,note_on,25,0,0
2,note_on,30,0,0
2,note_on,34,0,0
2,note_on,30,66,0
2,note_on,34,66,0
2,note_on,37,66,0
2,note_on,42,78,0
2,note_on,42,0,480
2,note_on,30,0,0
2,note_on,34,0,0
2,note_on,37,0,0
2,note_on,32,66,0
2,note_on,37,66,0
2,note_on,44,78,0
2,note_on,44,0,480
2,note_on,37,0,0
2,note_on,32,0,0
2,note_on,34,68,0
2,note_on,37,68,0
2,note_on,42,68,0
2,note_on,46,81,0
2,note_on,46,0,480
2,note_on,34,0,0
2,note_on,37,0,0
2,note_on,42,0,0
2,note_on,30,66,480
2,note_on,34,66,0
2,note_on,37,66,0
2,note_on,42,78,0
2,note_on,42,0,480
2,note_on,30,0,0
2,note_on,34,0,0
2,note_on,37,0,0
2,note_on,29,61,0
2,note_on,34,61,0
2,note_on,37,61,0
2,note_on,41,72,0
2,note_on,41,0,480
2,note_on,29,0,0
2,note_on,34,0,0
2,note_on,37,0,0
2,note_on,27,66,0
2,note_on,30,66,0
2,note_on,34,66,0
2,note_on,39,78,0
2,note_on,39,0,480
2,note_on,27,0,0
2,note_on,30,0,0
2,note_on,34,0,0
2,note_on,25,61,0
2,note_on,30,61,0
2,note_on,34,61,0
2,note_on,37,61,0
2,note_on,37,0,480
2,note_on,25,0,0
2,note_on,30,0,0
2,note_on,34,0,0
2,note_on,30,66,0
2,note_on,34,66,0
2,note_on,37,66,0
2,note_on,42,78,0
2,note_on,42,0,480
2,note_on,30,0,0
2,note_on,34,0,0
2,note_on,37,0,0
2,note_on,32,66,0
2,note_on,37,66,0
2,note_on,44,78,0
2,note_on,44,0,480
2,note_on,37,0,0
2,note_on,32,0,0
2,note_on,34,68,0
2,note_on,37,68,0
2,note_on,42,68,0
2,note_on,46,81,0
2,note_on,46,0,480
2,note_on,34,0,0
2,note_on,37,0,0
2,note_on,42,0,0
2,note_on,42,62,480
2,note_on,46,62,0
2,note_on,49,62,0
2,note_on,54,73,0
2,note_on,54,0,720
2,note_on,42,0,0
2,note_on,46,0,0
2,note_on,49,0,0
2,note_on,42,57,0
2,note_on,46,57,0
2,note_on,49,57,0
2,note_on,54,68,0
2,note_on,54,0,240
2,note_on,42,0,0
2,note_on,46,0,0
2,note_on,49,0,0
2,note_on,47,62,0
2,note_on,51,62,0
2,note_on,54,62,0
2,note_on,59,73,0
2,note_on,59,0,480
2,note_on,47,0,0
2,note_on,51,0,0
2,note_on,54,0,0
2,note_on,42,59,0
2,note_on,46,59,0
2,note_on,49,59,0
2,note_on,54,70,0
2,note_on,54,0,480
2,note_on,42,0,0
2,note_on,46,0,0
2,note_on,49,0,0
2,note_on,34,62,0
2,note_on,46,74,0
2,note_on,46,0,720
2,note_on,34,0,0
2,note_on,38,56,0
2,note_on,46,67,0
2,note_on,46,0,240
2,note_on,38,0,0
2,note_on,39,61,0
2,note_on,46,72,0
2,note_on,46,0,120
2,note_on,39,0,0
2,note_on,41,58,120
2,note_on,46,69,0
2,note_on,46,0,120
2,note_on,41,0,0
2,note_on,42,58,120
2,note_on,46,69,0
2,note_on,46,0,240
2,note_on,42,0,0
2,note_on,54,66,240
2,note_on,58,78,0
2,note_on,58,0,480
2,note_on,54,0,0
2,note_on,56,58,0
2,note_on,59,69,0
2,note_on,59,0,120
2,note_on,56,0,0
2,note_on,54,58,120
2,note_on,58,69,0
2,note_on,58,0,120
2,note_on,54,0,0
2,note_on,53,62,120
2,note_on,56,74,0
2,note_on,56,0,120
2,note_on,53,0,0
2,note_on,51,58,120
2,note_on,54,69,0
2,note_on,54,0,120
2,note_on,51,0,0
2,note_on,46,58,120
2,note_on,53,69,0
2,note_on,53,0,240
2,note_on,46,0,0
2,note_on,39,64,240
2,note_on,46,64,0
2,note_on,51,76,0
2,note_on,51,0,240
2,note_on,46,0,0
2,note_on,39,0,0
2,note_on,42,62,720
2,note_on,46,62,0
2,note_on,49,62,0
2,note_on,54,73,0
2,note_on,54,0,720
2,note_on,42,0,0
2,note_on,46,0,0
2,note_on,49,0,0
2,note_on,42,57,0
2,note_on,46,57,0
2,note_on,49,57,0
2,note_on,54,68,0
2,note_on,54,0,240
2,note_on,42,0,0
2,note_on,46,0,0
2,note_on,49,0,0
2,note_on,47,62,0
2,note_on,51,62,0
2,note_on,54,62,0
2,note_on,59,73,0
2,note_on,59,0,480
2,note_on,47,0,0
2,note_on,51,0,0
2,note_on,54,0,0
2,note_on,42,59,0
2,note_on,46,59,0
2,note_on,49,59,0
2,note_on,54,70,0
2,note_on,54,0,480
2,note_on,42,0,0
2,note_on,46,0,0
2,note_on,49,0,0
2,note_on,34,62,0
2,note_on,46,74,0
2,note_on,46,0,720
2,note_on,34,0,0
2,note_on,46,56,0
2,note_on,38,56,0
2,note_on,50,67,0
2,note_on,50,0,240
2,note_on,38,0,0
2,note_on,46,0,0
2,note_on,46,61,0
2,note_on,39,61,0
2,note_on,51,72,0
2,note_on,51,0,120
2,note_on,39,0,0
2,note_on,46,0,0
2,note_on,46,58,120
2,note_on,41,58,0
2,note_on,53,69,0
2,note_on,53,0,120
2,note_on,41,0,0
2,note_on,46,0,0
2,note_on,46,58,120
2,note_on,42,58,0
2,note_on,54,69,0
2,note_on,54,0,240
2,note_on,42,0,0
2,note_on,46,0,0
2,note_on,58,66,240
2,note_on,54,66,0
2,note_on,66,78,0
2,note_on,66,0,480
2,note_on,54,0,0
2,note_on,58,0,0
2,note_on,56,58,0
2,note_on,68,69,0
2,note_on,68,0,120
2,note_on,56,0,0
2,note_on,54,58,120
2,note_on,66,69,0
2,note_on,66,0,120
2,note_on,54,0,0
2,note_on,53,62,120
2,note_on,65,74,0
2,note_on,65,0,120
2,note_on,53,0,0
2,note_on,51,58,120
2,note_on,63,69,0
2,note_on,63,0,120
2,note_on,51,0,0
2,note_on,46,58,120
2,note_on,58,69,0
2,note_on,58,0,240
2,note_on,46,0,0
2,note_on,54,66,240
2,note_on,58,78,0
2,note_on,58,0,480
2,note_on,54,0,0
2,note_on,56,58,0
2,note_on,59,69,0
2,note_on,59,0,120
2,note_on,56,0,0
2,note_on,54,58,120
2,note_on,58,69,0
2,note_on,58,0,120
2,note_on,54,0,0
2,note_on,53,62,120
2,note_on,56,74,0
2,note_on,56,0,120
2,note_on,53,0,0
2,note_on,51,58,120
2,note_on,54,69,0
2,note_on,54,0,120
2,note_on,51,0,0
2,note_on,46,58,120
2,note_on,53,69,0
2,note_on,53,0,240
2,note_on,46,0,0
2,note_on,42,66,240
2,note_on,46,78,0
2,note_on,46,0,480
2,note_on,42,0,0
2,note_on,44,58,0
2,note_on,47,69,0
2,note_on,47,0,120
2,note_on,44,0,0
2,note_on,42,58,120
2,note_on,46,69,0
2,note_on,46,0,120
2,note_on,42,0,0
2,note_on,41,62,120
2,note_on,44,74,0
2,note_on,44,0,120
2,note_on,41,0,0
2,note_on,39,58,120
2,note_on,42,69,0
2,note_on,42,0,120
2,note_on,39,0,0
2,note_on,34,58,120
2,note_on,41,69,0
2,note_on,41,0,240
2,note_on,34,0,0
2,note_on,27,58,180
2,note_on,31,58,20
2,note_on,34,58,20
2,note_on,39,69,20
2,note_on,39,0,240
2,note_on,27,0,0
2,note_on,31,0,0
2,note_on,34,0,0
2,note_on,39,58,0
2,note_on,46,58,0
2,note_on,51,69,0
2,note_on,51,0,240
2,note_on,46,0,0
2,note_on,39,0,0
2,note_on,43,79,360
2,note_on,55,79,0
2,note_on,55,0,120
2,note_on,43,0,0
2,note_on,44,85,0
2,note_on,56,85,0
2,note_on,56,0,480
2,note_on,44,0,0
2,note_on,45,84,0
2,note_on,57,84,0
2,note_on,57,0,420
2,note_on,45,0,0
2,note_on,27,58,0
2,note_on,31,58,20
2,note_on,34,58,20
2,note_on,39,69,20
2,note_on,39,0,240
2,note_on,27,0,0
2,note_on,31,0,0
2,note_on,34,0,0
2,note_on,39,58,0
2,note_on,46,58,0
2,note_on,51,69,0
2,note_on,51,0,240
2,note_on,46,0,0
2,note_on,39,0,0
2,note_on,51,68,480
2,note_on,63,85,0
2,note_on,63,0,480
2,note_on,51,0,0
2,note_on,27,58,420
2,note_on,34,58,30
2,note_on,38,69,30
2,note_on,38,0,240
2,note_on,34,0,0
2,note_on,27,0,0
2,note_on,41,58,0
2,note_on,46,58,0
2,note_on,50,69,0
2,note_on,50,0,240
2,note_on,46,0,0
2,note_on,41,0,0
2,note_on,44,72,0
2,note_on,56,82,0
2,note_on,56,0,360
2,note_on,44,0,0
2,note_on,43,79,0
2,note_on,55,79,0
2,note_on,55,0,120
2,note_on,43,0,0
2,note_on,44,85,0
2,note_on,56,85,0
2,note_on,56,0,480
2,note_on,44,0,0
2,note_on,45,84,0
2,note_on,57,84,0
2,note_on,57,0,420
2,note_on,45,0,0
2,note_on,27,58,0
2,note_on,34,58,30
2,note_on,39,69,30
2,note_on,39,0,240
2,note_on,34,0,0
2,note_on,27,0,0
2,note_on,39,58,0
2,note_on,46,58,0
2,note_on,51,69,0
2,note_on,51,0,240
2,note_on,46,0,0
2,note_on,39,0,0
2,note_on,34,62,1200
2,note_on,34,0,80
2,note_on,36,65,0
2,note_on,36,0,80
2,note_on,38,68,0
2,note_on,38,0,50
2,note_on,27,58,0
2,note_on,31,58,10
2,note_on,34,58,10
2,note_on,39,69,10
2,note_on,39,0,240
2,note_on,27,0,0
2,note_on,31,0,0
2,note_on,34,0,0
2,note_on,39,58,0
2,note_on,46,58,0
2,note_on,51,69,0
2,note_on,51,0,240
2,note_on,46,0,0
2,note_on,39,0,0
2,note_on,43,79,360
2,note_on,55,79,0
2,note_on,55,0,120
2,note_on,43,0,0
2,note_on,44,85,0
2,note_on,56,85,0
2,note_on,56,0,480
2,note_on,44,0,0
2,note_on,45,84,0
2,note_on,57,84,0
2,note_on,57,0,420
2,note_on,45,0,0
2,note_on,27,58,0
2,note_on,31,58,20
2,note_on,34,58,20
2,note_on,39,69,20
2,note_on,39,0,240
2,note_on,27,0,0
2,note_on,31,0,0
2,note_on,34,0,0
2,note_on,39,58,0
2,note_on,46,58,0
2,note_on,51,69,0
2,note_on,51,0,240
2,note_on,46,0,0
2,note_on,39,0,0
2,note_on,51,71,480
2,note_on,63,85,0
2,note_on,63,0,480
2,note_on,51,0,0
2,note_on,27,58,420
2,note_on,34,58,30
2,note_on,38,69,30
2,note_on,38,0,240
2,note_on,34,0,0
2,note_on,27,0,0
2,note_on,41,58,0
2,note_on,46,58,0
2,note_on,50,69,0
2,note_on,50,0,240
2,note_on,46,0,0
2,note_on,41,0,0
2,note_on,44,72,0
2,note_on,56,82,0
2,note_on,56,0,360
2,note_on,44,0,0
2,note_on,43,79,0
2,note_on,55,79,0
2,note_on,55,0,120
2,note_on,43,0,0
2,note_on,44,85,0
2,note_on,56,85,0
2,note_on,56,0,480
2,note_on,44,0,0
2,note_on,41,84,0
2,note_on,53,84,0
2,note_on,53,0,420
2,note_on,41,0,0
2,note_on,27,58,0
2,note_on,31,58,20
2,note_on,34,58,20
2,note_on,39,69,20
2,note_on,39,0,240
2,note_on,27,0,0
2,note_on,31,0,0
2,note_on,34,0,0
2,note_on,39,58,0
2,note_on,46,58,0
2,note_on,51,69,0
2,note_on,51,0,240
2,note_on,46,0,0
2,note_on,39,0,0
2,note_on,46,80,960
2,note_on,58,80,0
2,note_on,58,0,360
2,note_on,46,0,0
2,note_on,27,58,60
2,note_on,31,58,20
2,note_on,34,58,20
2,note_on,39,69,20
2,note_on,39,0,240
2,note_on,27,0,0
2,note_on,31,0,0
2,note_on,34,0,0
2,note_on,39,58,0
2,note_on,46,58,0
2,note_on,51,69,0
2,note_on,51,0,240
2,note_on,46,0,0
2,note_on,39,0,0
2,note_on,55,76,360
2,note_on,67,76,0
2,note_on,67,0,120
2,note_on,55,0,0
2,note_on,56,81,0
2,note_on,68,81,0
2,note_on,68,0,480
2,note_on,56,0,0
2,note_on,57,80,0
2,note_on,69,80,0
2,note_on,69,0,420
2,note_on,57,0,0
2,note_on,27,58,0
2,note_on,31,58,20
2,note_on,34,58,20
2,note_on,39,69,20
2,note_on,39,0,240
2,note_on,27,0,0
2,note_on,31,0,0
2,note_on,34,0,0
2,note_on,39,58,0
2,note_on,46,58,0
2,note_on,51,69,0
2,note_on,51,0,240
2,note_on,46,0,0
2,note_on,39,0,0
2,note_on,63,81,480
2,note_on,75,84,0
2,note_on,75,0,480
2,note_on,63,0,0
2,note_on,27,58,420
2,note_on,34,58,30
2,note_on,38,69,30
2,note_on,38,0,240
2,note_on,34,0,0
2,note_on,27,0,0
2,note_on,41,58,0
2,note_on,46,58,0
2,note_on,50,69,0
2,note_on,50,0,240
2,note_on,46,0,0
2,note_on,41,0,0
2,note_on,55,76,360
2,note_on,67,76,0
2,note_on,67,0,120
2,note_on,55,0,0
2,note_on,56,81,0
2,note_on,68,81,0
2,note_on,68,0,480
2,note_on,56,0,0
2,note_on,57,80,0
2,note_on,69,80,0
2,note_on,69,0,420
2,note_on,57,0,0
2,note_on,27,58,0
2,note_on,31,58,20
2,note_on,34,58,20
2,note_on,39,69,20
2,note_on,39,0,240
2,note_on,27,0,0
2,note_on,31,0,0
2,note_on,34,0,0
2,note_on,39,58,0
2,note_on,46,58,0
2,note_on,51,69,0
2,note_on,51,0,240
2,note_on,46,0,0
2,note_on,39,0,0
2,note_on,55,81,480
2,note_on,67,84,0
2,note_on,67,0,240
2,note_on,55,0,0
2,note_on,27,58,660
2,note_on,31,58,20
2,note_on,34,58,20
2,note_on,39,69,20
2,note_on,39,0,240
2,note_on,27,0,0
2,note_on,31,0,0
2,note_on,34,0,0
2,note_on,39,58,0
2,note_on,46,58,0
2,note_on,51,69,0
2,note_on,51,0,240
2,note_on,46,0,0
2,note_on,39,0,0
2,note_on,55,76,360
2,note_on,67,72,0
2,note_on,67,0,120
2,note_on,55,0,0
2,note_on,56,81,0
2,note_on,68,76,0
2,note_on,68,0,480
2,note_on,56,0,0
2,note_on,57,80,0
2,note_on,69,80,0
2,note_on,69,0,420
2,note_on,57,0,0
2,note_on,27,58,0
2,note_on,31,58,20
2,note_on,34,58,20
2,note_on,39,69,20
2,note_on,39,0,240
2,note_on,27,0,0
2,note_on,31,0,0
2,note_on,34,0,0
2,note_on,39,58,0
2,note_on,46,58,0
2,note_on,51,69,0
2,note_on,51,0,240
2,note_on,46,0,0
2,note_on,39,0,0
2,note_on,63,81,480
2,note_on,75,84,0
2,note_on,75,0,480
2,note_on,63,0,0
2,note_on,27,58,420
2,note_on,34,58,30
2,note_on,38,69,30
2,note_on,38,0,240
2,note_on,34,0,0
2,note_on,27,0,0
2,note_on,41,58,0
2,note_on,46,58,0
2,note_on,50,69,0
2,note_on,50,0,240
2,note_on,46,0,0
2,note_on,41,0,0
2,note_on,55,76,360
2,note_on,67,76,0
2,note_on,67,0,120
2,note_on,55,0,0
2,note_on,56,81,0
2,note_on,68,81,0
2,note_on,68,0,480
2,note_on,56,0,0
2,note_on,53,80,0
2,note_on,65,80,0
2,note_on,65,0,420
2,note_on,53,0,0
2,note_on,27,58,0
2,note_on,31,58,20
2,note_on,34,58,20
2,note_on,39,69,20
2,note_on,39,0,240
2,note_on,27,0,0
2,note_on,31,0,0
2,note_on,34,0,0
2,note_on,39,58,0
2,note_on,46,58,0
2,note_on,51,69,0
2,note_on,51,0,240
2,note_on,46,0,0
2,note_on,39,0,0
2,note_on,63,68,960
2,note_on,67,68,0
2,note_on,73,80,0
2,note_on,73,0,480
2,note_on,67,0,0
2,note_on,63,0,0
2,note_on,68,65,0
2,note_on,72,77,0
2,note_on,72,0,480
2,note_on,68,0,0
2,note_on,67,63,0
2,note_on,70,75,0
2,note_on,70,0,120
2,note_on,67,0,0
2,note_on,65,63,120
2,note_on,68,75,0
2,note_on,68,0,120
2,note_on,65,0,0
2,note_on,63,67,120
2,note_on,67,79,0
2,note_on,67,0,120
2,note_on,63,0,0
2,note_on,58,63,120
2,note_on,65,75,0
2,note_on,65,0,120
2,note_on,58,0,0
2,note_on,55,63,120
2,note_on,63,75,0
2,note_on,63,0,120
2,note_on,55,0,0
2,note_on,63,64,120
2,note_on,67,76,0
2,note_on,67,0,120
2,note_on,63,0,0
2,note_on,65,68,120
2,note_on,68,80,0
2,note_on,68,0,360
2,note_on,65,0,0
2,note_on,64,63,0
2,note_on,67,75,0
2,note_on,67,0,120
2,note_on,64,0,0
2,note_on,65,63,0
2,note_on,68,75,0
2,note_on,68,0,120
2,note_on,65,0,0
2,note_on,66,66,120
2,note_on,69,78,0
2,note_on,69,0,120
2,note_on,66,0,0
2,note_on,67,68,120
2,note_on,70,80,0
2,note_on,70,0,120
2,note_on,67,0,0
2,note_on,63,68,360
2,note_on,67,68,0
2,note_on,73,80,0
2,note_on,73,0,480
2,note_on,67,0,0
2,note_on,63,0,0
2,note_on,68,65,0
2,note_on,72,77,0
2,note_on,72,0,480
2,note_on,68,0,0
2,note_on,67,63,0
2,note_on,70,75,0
2,note_on,70,0,120
2,note_on,67,0,0
2,note_on,65,63,120
2,note_on,68,75,0
2,note_on,68,0,120
2,note_on,65,0,0
2,note_on,63,67,120
2,note_on,67,79,0
2,note_on,67,0,120
2,note_on,63,0,0
2,note_on,58,63,120
2,note_on,65,75,0
2,note_on,65,0,120
2,note_on,58,0,0
2,note_on,55,63,120
2,note_on,63,75,0
2,note_on,63,0,120
2,note_on,55,0,0
2,note_on,63,64,120
2,note_on,67,76,0
2,note_on,67,0,120
2,note_on,63,0,0
2,note_on,65,68,120
2,note_on,68,80,0
2,note_on,68,0,360
2,note_on,65,0,0
2,note_on,64,63,0
2,note_on,67,75,0
2,note_on,67,0,120
2,note_on,64,0,0
2,note_on,65,63,0
2,note_on,68,75,0
2,note_on,68,0,120
2,note_on,65,0,0
2,note_on,58,66,120
2,note_on,65,78,0
2,note_on,65,0,120
2,note_on,58,0,0
2,note_on,55,68,120
2,note_on,63,80,0
2,note_on,63,0,120
2,note_on,55,0,0
2,note_on,39,65,360
2,note_on,51,77,0
2,note_on,51,0,240
2,note_on,39,0,0
2,note_on,43,61,0
2,note_on,55,72,0
2,note_on,55,0,240
2,note_on,43,0,0
2,note_on,44,68,0
2,note_on,56,80,0
2,note_on,56,0,240
2,note_on,44,0,0
2,note_on,48,62,0
2,note_on,60,73,0
2,note_on,60,0,240
2,note_on,48,0,0
2,note_on,51,62,0
2,note_on,63,73,0
2,note_on,63,0,240
2,note_on,51,0,0
2,note_on,56,62,0
2,note_on,68,73,0
2,note_on,68,0,240
2,note_on,56,0,0
2,note_on,58,62,0
2,note_on,70,73,0
2,note_on,70,0,480
2,note_on,58,0,0
2,note_on,39,65,0
2,note_on,51,77,0
2,note_on,51,0,240
2,note_on,39,0,0
2,note_on,43,61,0
2,note_on,55,72,0
2,note_on,55,0,240
2,note_on,43,0,0
2,note_on,46,68,0
2,note_on,58,80,0
2,note_on,58,0,240
2,note_on,46,0,0
2,note_on,50,58,0
2,note_on,62,69,0
2,note_on,62,0,240
2,note_on,50,0,0
2,note_on,53,62,0
2,note_on,65,73,0
2,note_on,65,0,240
2,note_on,53,0,0
2,note_on,66,65,0
2,note_on,57,65,0
2,note_on,69,77,0
2,note_on,69,0,240
2,note_on,57,0,0
2,note_on,66,0,0
2,note_on,67,69,0
2,note_on,58,69,0
2,note_on,70,82,0
2,note_on,70,0,480
2,note_on,58,0,0
2,note_on,67,0,0
2,note_on,39,65,0
2,note_on,51,77,0
2,note_on,51,0,240
2,note_on,39,0,0
2,note_on,43,61,0
2,note_on,55,72,0
2,note_on,55,0,240
2,note_on,43,0,0
2,note_on,44,68,0
2,note_on,56,80,0
2,note_on,56,0,240
2,note_on,44,0,0
2,note_on,48,62,0
2,note_on,60,73,0
2,note_on,60,0,240
2,note_on,48,0,0
2,note_on,51,62,0
2,note_on,63,73,0
2,note_on,63,0,240
2,note_on,51,0,0
2,note_on,56,62,0
2,note_on,68,73,0
2,note_on,68,0,240
2,note_on,56,0,0
2,note_on,58,62,0
2,note_on,70,73,0
2,note_on,70,0,480
2,note_on,58,0,0
2,note_on,39,65,0
2,note_on,51,77,0
2,note_on,51,0,240
2,note_on,39,0,0
2,note_on,43,61,0
2,note_on,55,72,0
2,note_on,55,0,240
2,note_on,43,0,0
2,note_on,46,68,0
2,note_on,58,80,0
2,note_on,58,0,240
2,note_on,46,0,0
2,note_on,50,58,0
2,note_on,62,69,0
2,note_on,62,0,240
2,note_on,50,0,0
2,note_on,53,62,0
2,note_on,65,73,0
2,note_on,65,0,240
2,note_on,53,0,0
2,note_on,66,65,0
2,note_on,57,65,0
2,note_on,69,77,0
2,note_on,69,0,240
2,note_on,57,0,0
2,note_on,66,0,0
2,note_on,67,69,0
2,note_on,58,69,0
2,note_on,70,82,0
2,note_on,70,0,480
2,note_on,58,0,0
2,note_on,67,0,0
2,note_on,39,65,0
2,note_on,51,77,0
2,note_on,51,0,240
2,note_on,39,0,0
2,note_on,43,61,0
2,note_on,55,72,0
2,note_on,55,0,240
2,note_on,43,0,0
2,note_on,44,68,0
2,note_on,56,80,0
2,note_on,56,0,240
2,note_on,44,0,0
2,note_on,48,62,0
2,note_on,60,73,0
2,note_on,60,0,240
2,note_on,48,0,0
2,note_on,51,62,0
2,note_on,63,73,0
2,note_on,63,0,240
2,note_on,51,0,0
2,note_on,56,62,0
2,note_on,68,73,0
2,note_on,68,0,240
2,note_on,56,0,0
2,note_on,58,62,0
2,note_on,70,73,0
2,note_on,70,0,480
2,note_on,58,0,0
2,note_on,63,54,240
2,note_on,75,64,0
2,note_on,75,0,240
2,note_on,63,0,0
2,note_on,62,51,0
2,note_on,74,72,0
2,note_on,74,0,120
2,note_on,62,0,0
2,note_on,65,44,120
2,note_on,77,62,0
2,note_on,77,0,120
2,note_on,65,0,0
2,note_on,61,59,120
2,note_on,73,70,0
2,note_on,73,0,120
2,note_on,61,0,0
2,note_on,65,55,120
2,note_on,77,65,0
2,note_on,77,0,120
2,note_on,65,0,0
2,note_on,60,51,120
2,note_on,72,72,0
2,note_on,72,0,120
2,note_on,60,0,0
2,note_on,65,44,120
2,note_on,77,62,0
2,note_on,77,0,120
2,note_on,65,0,0
2,note_on,59,59,120
2,note_on,71,70,0
2,note_on,71,0,120
2,note_on,59,0,0
2,note_on,62,55,120
2,note_on,74,65,0
2,note_on,74,0,120
2,note_on,62,0,0
2,note_on,56,61,120
2,note_on,68,72,0
2,note_on,68,0,120
2,note_on,56,0,0
2,note_on,59,52,120
2,note_on,71,62,0
2,note_on,71,0,120
2,note_on,59,0,0
2,note_on,54,71,120
2,note_on,66,71,0
2,note_on,66,0,120
2,note_on,54,0,0
2,note_on,59,66,120
2,note_on,71,66,0
2,note_on,71,0,120
2,note_on,59,0,0
2,note_on,52,63,120
2,note_on,64,74,0
2,note_on,64,0,120
2,note_on,52,0,0
2,note_on,56,54,120
2,note_on,68,65,0
2,note_on,68,0,120
2,note_on,56,0,0
2,note_on,51,74,120
2,note_on,63,74,0
2,note_on,63,0,120
2,note_on,51,0,0
2,note_on,56,69,120
2,note_on,68,69,0
2,note_on,68,0,120
2,note_on,56,0,0
2,note_on,52,65,120
2,note_on,64,77,0
2,note_on,64,0,120
2,note_on,52,0,0
2,note_on,56,56,120
2,note_on,68,67,0
2,note_on,68,0,120
2,note_on,56,0,0
2,note_on,48,77,120
2,note_on,60,77,0
2,note_on,60,0,120
2,note_on,48,0,0
2,note_on,56,72,120
2,note_on,68,72,0
2,note_on,68,0,120
2,note_on,56,0,0
2,note_on,47,68,120
2,note_on,59,80,0
2,note_on,59,0,120
2,note_on,47,0,0
2,note_on,50,58,120
2,note_on,62,70,0
2,note_on,62,0,120
2,note_on,50,0,0
2,note_on,44,79,120
2,note_on,56,79,0
2,note_on,56,0,120
2,note_on,44,0,0
2,note_on,47,74,120
2,note_on,59,74,0
2,note_on,59,0,120
2,note_on,47,0,0
2,note_on,41,70,120
2,note_on,53,83,0
2,note_on,53,0,120
2,note_on,41,0,0
2,note_on,44,60,120
2,note_on,56,72,0
2,note_on,56,0,120
2,note_on,44,0,0
2,note_on,38,83,120
2,note_on,50,83,0
2,note_on,50,0,120
2,note_on,38,0,0
2,note_on,41,79,120
2,note_on,53,79,0
2,note_on,53,0,120
2,note_on,41,0,0
2,note_on,37,76,120
2,note_on,49,90,0
2,note_on,49,0,120
2,note_on,37,0,0
2,note_on,41,65,120
2,note_on,53,79,0
2,note_on,53,0,120
2,note_on,41,0,0
2,note_on,35,90,120
2,note_on,47,90,0
2,note_on,47,0,120
2,note_on,35,0,0
2,note_on,41,85,120
2,note_on,53,85,0
2,note_on,53,0,120
2,note_on,41,0,0
2,note_on,34,72,120
2,note_on,46,85,0
2,note_on,46,0,240
2,note_on,34,0,0
2,note_on,65,72,0
2,note_on,62,61,0
2,note_on,56,61,0
2,note_on,56,0,240
2,note_on,62,0,0
2,note_on,65,0,0
2,note_on,46,66,0
2,note_on,58,78,0
2,note_on,58,0,120
2,note_on,46,0,0
2,note_on,65,73,120
2,note_on,62,61,0
2,note_on,56,61,0
2,note_on,56,0,120
2,note_on,62,0,0
2,note_on,65,0,0
2,note_on,34,69,120
2,note_on,46,82,0
2,note_on,46,0,120
2,note_on,34,0,0
2,note_on,67,72,120
2,note_on,63,61,0
2,note_on,55,61,0
2,note_on,55,0,120
2,note_on,63,0,0
2,note_on,67,0,0
2,note_on,46,68,120
2,note_on,58,80,0
2,note_on,58,0,240
2,note_on,46,0,0
2,note_on,67,74,0
2,note_on,63,62,0
2,note_on,55,62,0
2,note_on,55,0,240
2,note_on,63,0,0
2,note_on,67,0,0
2,note_on,34,72,0
2,note_on,46,85,0
2,note_on,46,0,240
2,note_on,34,0,0
2,note_on,65,72,0
2,note_on,62,61,0
2,note_on,56,61,0
2,note_on,56,0,240
2,note_on,62,0,0
2,note_on,65,0,0
2,note_on,46,66,0
2,note_on,58,78,0
2,note_on,58,0,120
2,note_on,46,0,0
2,note_on,65,73,120
2,note_on,62,61,0
2,note_on,56,61,0
2,note_on,56,0,120
2,note_on,62,0,0
2,note_on,65,0,0
2,note_on,34,69,120
2,note_on,46,82,0
2,note_on,46,0,120
2,note_on,34,0,0
2,note_on,67,72,120
2,note_on,63,61,0
2,note_on,55,61,0
2,note_on,55,0,120
2,note_on,63,0,0
2,note_on,67,0,0
2,note_on,46,68,120
2,note_on,58,80,0
2,note_on,58,0,240
2,note_on,46,0,0
2,note_on,67,74,0
2,note_on,63,62,0
2,note_on,55,62,0
2,note_on,55,0,240
2,note_on,63,0,0
2,note_on,67,0,0
2,note_on,36,71,0
2,note_on,48,84,0
2,note_on,48,0,120
2,note_on,36,0,0
2,note_on,35,66,120
2,note_on,47,78,0
2,note_on,47,0,120
2,note_on,35,0,0
2,note_on,34,70,120
2,note_on,46,83,0
2,note_on,46,0,120
2,note_on,34,0,0
2,note_on,56,77,360
2,note_on,68,91,0
2,note_on,68,0,480
2,note_on,56,0,0
2,note_on,55,74,0
2,note_on,67,88,0
2,note_on,67,0,120
2,note_on,55,0,0
2,note_on,53,69,120
2,note_on,65,82,0
2,note_on,65,0,120
2,note_on,53,0,0
2,note_on,58,75,120
2,note_on,70,90,0
2,note_on,70,0,120
2,note_on,58,0,0
2,note_on,50,68,120
2,note_on,62,81,0
2,note_on,62,0,120
2,note_on,50,0,0
2,note_on,51,74,120
2,note_on,63,88,0
2,note_on,63,0,480
2,note_on,51,0,0
2,note_on,44,77,0
2,note_on,56,91,0
2,note_on,56,0,480
2,note_on,44,0,0
2,note_on,43,74,0
2,note_on,55,88,0
2,note_on,55,0,120
2,note_on,43,0,0
2,note_on,41,69,120
2,note_on,53,82,0
2,note_on,53,0,120
2,note_on,41,0,0
2,note_on,46,75,120
2,note_on,58,90,0
2,note_on,58,0,120
2,note_on,46,0,0
2,note_on,38,68,120
2,note_on,50,81,0
2,note_on,50,0,120
2,note_on,38,0,0
2,note_on,39,74,120
2,note_on,51,88,0
2,note_on,51,0,480
2,note_on,39,0,0
2,note_on,36,71,0
2,note_on,48,84,0
2,note_on,48,0,120
2,note_on,36,0,0
2,note_on,35,66,120
2,note_on,47,78,0
2,note_on,47,0,120
2,note_on,35,0,0
2,note_on,34,70,120
2,note_on,46,83,0
2,note_on,46,0,120
2,note_on,34,0,0
2,note_on,37,72,360
2,note_on,49,85,0
2,note_on,49,0,240
2,note_on,37,0,0
2,note_on,65,72,0
2,note_on,61,61,0
2,note_on,58,61,0
2,note_on,58,0,240
2,note_on,61,0,0
2,note_on,65,0,0
2,note_on,46,66,0
2,note_on,58,78,0
2,note_on,58,0,120
2,note_on,46,0,0
2,note_on,65,73,120
2,note_on,61,61,0
2,note_on,58,61,0
2,note_on,58,0,120
2,note_on,61,0,0
2,note_on,65,0,0
2,note_on,39,72,120
2,note_on,51,85,0
2,note_on,51,0,240
2,note_on,39,0,0
2,note_on,67,72,0
2,note_on,63,61,0
2,note_on,58,61,0
2,note_on,58,0,180
2,note_on,63,0,0
2,note_on,67,0,0
2,note_on,37,72,60
2,note_on,49,85,0
2,note_on,49,0,240
2,note_on,37,0,0
2,note_on,58,61,0
2,note_on,65,72,0
2,note_on,61,61,0
2,note_on,61,0,180
2,note_on,65,0,0
2,note_on,58,0,0
2,note_on,36,71,60
2,note_on,48,84,0
2,note_on,48,0,120
2,note_on,36,0,0
2,note_on,35,66,120
2,note_on,47,78,0
2,note_on,47,0,120
2,note_on,35,0,0
2,note_on,34,70,120
2,note_on,46,83,0
2,note_on,46,0,120
2,note_on,34,0,0
2,note_on,37,72,360
2,note_on,49,85,0
2,note_on,49,0,240
2,note_on,37,0,0
2,note_on,65,72,0
2,note_on,61,61,0
2,note_on,58,61,0
2,note_on,58,0,240
2,note_on,61,0,0
2,note_on,65,0,0
2,note_on,37,66,0
2,note_on,49,78,0
2,note_on,49,0,120
2,note_on,37,0,0
2,note_on,65,73,120
2,note_on,61,61,0
2,note_on,58,61,0
2,note_on,58,0,120
2,note_on,61,0,0
2,note_on,65,0,0
2,note_on,36,72,120
2,note_on,48,85,0
2,note_on,48,0,120
2,note_on,36,0,0
2,note_on,64,72,120
2,note_on,58,61,0
2,note_on,55,61,0
2,note_on,55,0,120
2,note_on,58,0,0
2,note_on,64,0,0
2,note_on,53,78,120
2,note_on,41,66,0
2,note_on,41,0,120
2,note_on,53,0,0
2,note_on,65,73,120
2,note_on,63,61,0
2,note_on,57,61,0
2,note_on,57,0,120
2,note_on,63,0,0
2,note_on,65,0,0
2,note_on,36,71,120
2,note_on,48,84,0
2,note_on,48,0,120
2,note_on,36,0,0
2,note_on,35,66,120
2,note_on,47,78,0
2,note_on,47,0,120
2,note_on,35,0,0
2,note_on,34,70,120
2,note_on,46,83,0
2,note_on,46,0,120
2,note_on,34,0,0
2,note_on,65,91,360
2,note_on,61,77,0
2,note_on,53,77,0
2,note_on,58,77,0
2,note_on,58,0,480
2,note_on,65,0,0
2,note_on,61,0,0
2,note_on,53,0,0
2,note_on,52,74,0
2,note_on,64,88,0
2,note_on,64,0,120
2,note_on,52,0,0
2,note_on,53,69,120
2,note_on,65,82,0
2,note_on,65,0,120
2,note_on,53,0,0
2,note_on,63,77,120
2,note_on,67,91,0
2,note_on,55,77,0
2,note_on,58,77,0
2,note_on,58,0,480
2,note_on,63,0,0
2,note_on,67,0,0
2,note_on,55,0,0
2,note_on,61,74,0
2,note_on,53,74,0
2,note_on,58,74,0
2,note_on,65,88,0
2,note_on,65,0,480
2,note_on,61,0,0
2,note_on,53,0,0
2,note_on,58,0,0
2,note_on,36,71,0
2,note_on,48,84,0
2,note_on,48,0,120
2,note_on,36,0,0
2,note_on,35,66,120
2,note_on,47,78,0
2,note_on,47,0,120
2,note_on,35,0,0
2,note_on,34,70,120
2,note_on,46,83,0
2,note_on,46,0,120
2,note_on,34,0,0
2,note_on,55,68,360
2,note_on,67,81,0
2,note_on,67,0,160
2,note_on,55,0,0
2,note_on,53,57,0
2,note_on,65,68,0
2,note_on,65,0,160
2,note_on,53,0,0
2,note_on,52,57,0
2,note_on,64,68,0
2,note_on,64,0,160
2,note_on,52,0,0
2,note_on,51,63,0
2,note_on,63,75,0
2,note_on,63,0,160
2,note_on,51,0,0
2,note_on,50,59,0
2,note_on,62,70,0
2,note_on,62,0,160
2,note_on,50,0,0
2,note_on,49,59,0
2,note_on,61,70,0
2,note_on,61,0,160
2,note_on,49,0,0
2,note_on,55,77,0
2,note_on,60,91,0
2,note_on,48,77,0
2,note_on,52,77,0
2,note_on,52,0,480
2,note_on,55,0,0
2,note_on,60,0,0
2,note_on,48,0,0
2,note_on,48,74,0
2,note_on,41,74,0
2,note_on,45,74,0
2,note_on,53,88,0
2,note_on,53,0,480
2,note_on,48,0,0
2,note_on,41,0,0
2,note_on,45,0,0
2,note_on,36,71,0
2,note_on,48,84,0
2,note_on,48,0,120
2,note_on,36,0,0
2,note_on,35,66,120
2,note_on,47,78,0
2,note_on,47,0,120
2,note_on,35,0,0
2,note_on,34,70,120
2,note_on,46,83,0
2,note_on,46,0,120
2,note_on,34,0,0
2,note_on,68,64,240
2,note_on,68,0,60
2,note_on,70,64,0
2,note_on,70,0,60
2,note_on,68,73,0
2,note_on,68,0,480
2,note_on,67,69,0
2,note_on,67,0,120
2,note_on,65,62,120
2,note_on,65,0,120
2,note_on,70,70,120
2,note_on,70,0,120
2,note_on,62,63,120
2,note_on,62,0,120
2,note_on,63,71,120
2,note_on,63,0,360
2,note_on,64,64,0
2,note_on,64,0,60
2,note_on,66,64,0
2,note_on,66,0,60
2,note_on,64,73,0
2,note_on,64,0,480
2,note_on,63,69,0
2,note_on,63,0,120
2,note_on,61,62,120
2,note_on,61,0,120
2,note_on,66,70,120
2,note_on,66,0,120
2,note_on,58,63,120
2,note_on,58,0,120
2,note_on,59,71,120
2,note_on,60,64,360
2,note_on,60,0,60
2,note_on,62,64,0
2,note_on,62,0,60
2,note_on,59,0,0
2,note_on,60,73,0
2,note_on,60,0,480
2,note_on,59,69,0
2,note_on,59,0,120
2,note_on,57,62,120
2,note_on,57,0,120
2,note_on,62,70,120
2,note_on,62,0,120
2,note_on,54,63,120
2,note_on,54,0,120
2,note_on,55,71,120
2,note_on,55,0,360
2,note_on,44,55,120
2,note_on,56,65,0
2,note_on,56,0,120
2,note_on,44,0,0
2,note_on,50,46,120
2,note_on,62,55,0
2,note_on,62,0,120
2,note_on,50,0,0
2,note_on,45,55,120
2,note_on,57,65,0
2,note_on,57,0,120
2,note_on,45,0,0
2,note_on,63,56,120
2,note_on,51,47,0
2,note_on,51,0,120
2,note_on,63,0,0
2,note_on,46,59,120
2,note_on,58,70,0
2,note_on,58,0,120
2,note_on,46,0,0
2,note_on,67,60,120
2,note_on,55,51,0
2,note_on,55,0,120
2,note_on,67,0,0
2,note_on,63,72,120
2,note_on,51,61,0
2,note_on,51,0,120
2,note_on,63,0,0
2,note_on,70,61,120
2,note_on,58,51,0
2,note_on,58,0,120
2,note_on,70,0,0
2,note_on,53,61,120
2,note_on,65,72,0
2,note_on,65,0,120
2,note_on,53,0,0
2,note_on,74,62,120
2,note_on,62,52,0
2,note_on,62,0,120
2,note_on,74,0,0
2,note_on,70,75,120
2,note_on,58,63,0
2,note_on,58,0,120
2,note_on,70,0,0
2,note_on,77,63,120
2,note_on,65,53,0
2,note_on,65,0,120
2,note_on,77,0,0
2,note_on,56,62,120
2,note_on,68,73,0
2,note_on,68,0,480
2,note_on,56,0,0
2,note_on,55,58,0
2,note_on,67,69,0
2,note_on,67,0,120
2,note_on,55,0,0
2,note_on,53,52,120
2,note_on,65,62,0
2,note_on,65,0,120
2,note_on,53,0,0
2,note_on,58,59,120
2,note_on,70,70,0
2,note_on,70,0,120
2,note_on,58,0,0
2,note_on,50,53,120
2,note_on,62,63,0
2,note_on,62,0,120
2,note_on,50,0,0
2,note_on,51,60,120
2,note_on,63,71,0
2,note_on,63,0,360
2,note_on,51,0,0
2,note_on,52,62,120
2,note_on,64,73,0
2,note_on,64,0,480
2,note_on,52,0,0
2,note_on,51,58,0
2,note_on,63,69,0
2,note_on,63,0,120
2,note_on,51,0,0
2,note_on,49,52,120
2,note_on,61,62,0
2,note_on,61,0,120
2,note_on,49,0,0
2,note_on,54,59,120
2,note_on,66,70,0
2,note_on,66,0,120
2,note_on,54,0,0
2,note_on,46,53,120
2,note_on,58,63,0
2,note_on,58,0,120
2,note_on,46,0,0
2,note_on,47,60,120
2,note_on,59,71,0
2,note_on,59,0,360
2,note_on,47,0,0
2,note_on,48,62,120
2,note_on,60,73,0
2,note_on,60,0,480
2,note_on,48,0,0
2,note_on,47,58,0
2,note_on,59,69,0
2,note_on,59,0,120
2,note_on,47,0,0
2,note_on,45,52,120
2,note_on,57,62,0
2,note_on,57,0,120
2,note_on,45,0,0
2,note_on,50,59,120
2,note_on,62,70,0
2,note_on,62,0,120
2,note_on,50,0,0
2,note_on,42,53,120
2,note_on,54,63,0
2,note_on,54,0,120
2,note_on,42,0,0
2,note_on,43,60,120
2,note_on,55,71,0
2,note_on,55,0,360
2,note_on,43,0,0
2,note_on,44,55,120
2,note_on,56,65,0
2,note_on,56,0,120
2,note_on,44,0,0
2,note_on,50,46,120
2,note_on,62,55,0
2,note_on,62,0,120
2,note_on,50,0,0
2,note_on,45,55,120
2,note_on,57,65,0
2,note_on,57,0,120
2,note_on,45,0,0
2,note_on,63,56,120
2,note_on,51,47,0
2,note_on,51,0,120
2,note_on,63,0,0
2,note_on,46,58,120
2,note_on,58,69,0
2,note_on,58,0,120
2,note_on,46,0,0
2,note_on,67,57,120
2,note_on,55,48,0
2,note_on,55,0,120
2,note_on,67,0,0
2,note_on,63,69,120
2,note_on,51,58,0
2,note_on,51,0,120
2,note_on,63,0,0
2,note_on,70,57,120
2,note_on,58,48,0
2,note_on,58,0,120
2,note_on,70,0,0
2,note_on,55,60,120
2,note_on,67,71,0
2,note_on,67,0,120
2,note_on,55,0,0
2,note_on,75,59,120
2,note_on,63,50,0
2,note_on,63,0,120
2,note_on,75,0,0
2,note_on,70,72,120
2,note_on,58,61,0
2,note_on,58,0,120
2,note_on,70,0,0
2,note_on,79,55,120
2,note_on,67,55,0
2,note_on,67,0,120
2,note_on,79,0,0
2,note_on,65,64,120
2,note_on,77,64,0
2,note_on,77,0,120
2,note_on,65,0,0
2,note_on,62,58,120
2,note_on,74,58,0
2,note_on,74,0,120
2,note_on,62,0,0
2,note_on,58,57,120
2,note_on,70,57,0
2,note_on,70,0,120
2,note_on,58,0,0
2,note_on,56,57,120
2,note_on,68,57,0
2,note_on,68,0,120
2,note_on,56,0,0
2,note_on,53,64,120
2,note_on,65,64,0
2,note_on,65,0,120
2,note_on,53,0,0
2,note_on,50,58,120
2,note_on,62,58,0
2,note_on,62,0,120
2,note_on,50,0,0
2,note_on,46,57,120
2,note_on,58,57,0
2,note_on,58,0,120
2,note_on,46,0,0
2,note_on,44,59,120
2,note_on,56,59,0
2,note_on,56,0,120
2,note_on,44,0,0
2,note_on,41,70,120
2,note_on,53,70,0
2,note_on,53,0,120
2,note_on,41,0,0
2,note_on,38,66,120
2,note_on,50,66,0
2,note_on,50,0,120
2,note_on,38,0,0
2,note_on,34,68,120
2,note_on,46,68,0
2,note_on,46,0,120
2,note_on,34,0,0
2,note_on,33,71,120
2,note_on,45,71,0
2,note_on,45,0,120
2,note_on,33,0,0
2,note_on,32,84,120
2,note_on,44,84,0
2,note_on,44,0,120
2,note_on,32,0,0
2,note_on,31,80,120
2,note_on,43,80,0
2,note_on,43,0,120
2,note_on,31,0,0
2,note_on,29,81,120
2,note_on,41,81,0
2,note_on,41,0,120
2,note_on,29,0,0
2,note_on,34,85,120
2,note_on,46,85,0
2,note_on,46,0,120
2,note_on,34,0,0
2,note_on,27,79,120
2,note_on,39,94,0
2,note_on,39,0,120
2,note_on,27,0,0
2,note_on,34,73,120
2,note_on,46,87,0
2,note_on,46,0,120
2,note_on,34,0,0
2,note_on,39,78,120
2,note_on,51,93,0
2,note_on,51,0,120
2,note_on,39,0,0
2,note_on,46,73,120
2,note_on,58,87,0
2,note_on,58,0,120
2,note_on,46,0,0
2,note_on,51,78,120
2,note_on,63,93,0
2,note_on,63,0,120
2,note_on,51,0,0
2,note_on,46,69,120
2,note_on,58,81,0
2,note_on,58,0,120
2,note_on,46,0,0
2,note_on,39,74,120
2,note_on,51,88,0
2,note_on,51,0,120
2,note_on,39,0,0
2,note_on,34,71,120
2,note_on,46,84,0
2,note_on,46,0,120
2,note_on,34,0,0
2,note_on,39,78,120
2,note_on,51,93,0
2,note_on,51,0,120
2,note_on,39,0,0
2,note_on,46,69,120
2,note_on,58,81,0
2,note_on,58,0,120
2,note_on,46,0,0
2,note_on,51,74,120
2,note_on,63,88,0
2,note_on,63,0,120
2,note_on,51,0,0
2,note_on,46,71,120
2,note_on,58,84,0
2,note_on,58,0,120
2,note_on,46,0,0
2,note_on,39,78,120
2,note_on,51,93,0
2,note_on,51,0,120
2,note_on,39,0,0
2,note_on,34,69,120
2,note_on,46,81,0
2,note_on,46,0,120
2,note_on,34,0,0
2,note_on,39,74,120
2,note_on,51,88,0
2,note_on,51,0,120
2,note_on,39,0,0
2,note_on,46,71,120
2,note_on,58,84,0
2,note_on,58,0,120
2,note_on,46,0,0
2,note_on,51,78,120
2,note_on,63,93,0
2,note_on,63,0,120
2,note_on,51,0,0
2,note_on,55,64,240
2,note_on,51,64,0
2,note_on,58,64,0
2,note_on,63,75,0
2,note_on,63,0,120
2,note_on,55,0,0
2,note_on,51,0,0
2,note_on,58,0,0
2,note_on,51,68,0
2,note_on,55,68,0
2,note_on,58,68,0
2,note_on,63,80,0
2,note_on,63,0,120
2,note_on,51,0,0
2,note_on,55,0,0
2,note_on,58,0,0
2,note_on,39,65,240
2,note_on,46,65,0
2,note_on,51,76,0
2,note_on,51,0,120
2,note_on,46,0,0
2,note_on,39,0,0
2,note_on,39,68,0
2,note_on,46,68,0
2,note_on,51,80,0
2,note_on,51,0,120
2,note_on,46,0,0
2,note_on,39,0,0
2,note_on,55,64,240
2,note_on,58,64,0
2,note_on,63,64,0
2,note_on,67,75,0
2,note_on,67,0,120
2,note_on,55,0,0
2,note_on,58,0,0
2,note_on,63,0,0
2,note_on,58,68,0
2,note_on,55,68,0
2,note_on,63,68,0
2,note_on,67,80,0
2,note_on,67,0,120
2,note_on,58,0,0
2,note_on,55,0,0
2,note_on,63,0,0
2,note_on,39,65,240
2,note_on,46,65,0
2,note_on,51,76,0
2,note_on,51,0,120
2,note_on,46,0,0
2,note_on,39,0,0
2,note_on,39,68,0
2,note_on,46,68,0
2,note_on,51,80,0
2,note_on,51,0,120
2,note_on,46,0,0
2,note_on,39,0,0
2,note_on,55,74,840
2,note_on,58,74,0
2,note_on,63,74,0
2,note_on,67,88,0
2,note_on,67,0,120
2,note_on,55,0,0
2,note_on,58,0,0
2,note_on,63,0,0
2,note_on,67,74,840
2,note_on,70,74,0
2,note_on,75,74,0
2,note_on,79,88,0
2,note_on,79,0,120
2,note_on,67,0,0
2,note_on,70,0,0
2,note_on,75,0,0
