Track,Message Type,Note,Velocity,Time
1,note_on,46,44,62
1,note_on,46,0,40
1,note_on,49,38,0
1,note_on,49,0,40
1,note_on,46,45,0
1,note_on,46,0,40
1,note_on,49,39,0
1,note_on,49,0,40
1,note_on,46,46,0
1,note_on,49,42,40
1,note_on,46,0,20
1,note_on,49,0,20
1,note_on,46,47,0
1,note_on,46,0,40
1,note_on,49,42,0
1,note_on,49,0,40
1,note_on,46,48,0
1,note_on,46,0,40
1,note_on,49,44,0
1,note_on,49,0,40
1,note_on,46,50,0
1,note_on,49,45,40
1,note_on,46,0,20
1,note_on,49,0,20
1,note_on,46,51,0
1,note_on,46,0,40
1,note_on,49,46,0
1,note_on,49,0,40
1,note_on,46,52,0
1,note_on,46,0,40
1,note_on,49,47,0
1,note_on,49,0,40
1,note_on,46,53,0
1,note_on,49,48,40
1,note_on,46,0,20
1,note_on,49,0,20
1,note_on,46,55,0
1,note_on,46,0,40
1,note_on,49,49,0
1,note_on,49,0,40
1,note_on,46,56,0
1,note_on,46,0,40
1,note_on,49,50,0
1,note_on,49,0,40
1,note_on,46,57,0
1,note_on,49,51,40
1,note_on,46,0,20
1,note_on,49,0,20
1,note_on,46,58,0
1,note_on,46,0,40
1,note_on,49,55,0
1,note_on,49,0,40
1,note_on,46,60,0
1,note_on,46,0,40
1,note_on,49,53,0
1,note_on,49,0,40
1,note_on,46,61,0
1,note_on,49,54,40
1,note_on,46,0,20
1,note_on,49,0,20
1,note_on,46,62,0
1,note_on,46,0,40
1,note_on,49,58,0
1,note_on,49,0,40
1,note_on,46,63,0
1,note_on,46,0,40
1,note_on,49,59,0
1,note_on,49,0,40
1,note_on,46,67,0
1,note_on,49,70,40
1,note_on,46,0,20
1,note_on,49,0,20
1,note_on,46,73,0
1,note_on,46,0,40
1,note_on,49,76,0
1,note_on,49,0,40
1,note_on,46,79,0
1,note_on,46,0,40
1,note_on,49,82,0
1,note_on,49,0,40
1,note_on,46,85,0
1,note_on,49,88,40
1,note_on,46,0,20
1,note_on,49,0,20
1,note_on,45,84,20
1,note_on,48,94,0
1,note_on,48,0,40
1,note_on,45,0,0
1,note_on,46,90,0
1,note_on,49,100,0
1,note_on,49,0,120
1,note_on,46,0,0
1,note_on,68,74,1700
1,note_on,56,65,0
1,note_on,56,0,30
1,note_on,68,0,0
1,note_on,56,72,10
1,note_on,68,82,0
1,note_on,68,0,420
1,note_on,56,0,0
1,note_on,61,63,20
1,note_on,73,72,0
1,note_on,73,0,30
1,note_on,61,0,0
1,note_on,61,71,10
1,note_on,73,81,0
1,note_on,73,0,420
1,note_on,61,0,0
1,note_on,59,64,20
1,note_on,71,73,0
1,note_on,71,0,30
1,note_on,59,0,0
1,note_on,59,70,10
1,note_on,71,80,0
1,note_on,71,0,180
1,note_on,59,0,0
1,note_on,58,65,20
1,note_on,70,74,0
1,note_on,70,0,30
1,note_on,58,0,0
1,note_on,58,70,10
1,note_on,70,80,0
1,note_on,70,0,180
1,note_on,58,0,0
1,note_on,56,65,20
1,note_on,68,74,0
1,note_on,68,0,30
1,note_on,56,0,0
1,note_on,56,71,10
1,note_on,68,81,0
1,note_on,68,0,180
1,note_on,56,0,0
1,note_on,67,73,20
1,note_on,55,64,0
1,note_on,55,0,30
1,note_on,67,0,0
1,note_on,55,70,10
1,note_on,67,80,0
1,note_on,67,0,180
1,note_on,55,0,0
1,note_on,56,63,20
1,note_on,68,72,0
1,note_on,68,0,30
1,note_on,56,0,0
1,note_on,56,71,10
1,note_on,68,81,0
1,note_on,68,0,120
1,note_on,56,0,0
1,note_on,50,44,120
1,note_on,47,44,0
1,note_on,47,0,40
1,note_on,50,0,0
1,note_on,56,38,0
1,note_on,56,0,40
1,note_on,50,45,0
1,note_on,47,45,0
1,note_on,47,0,40
1,note_on,50,0,0
1,note_on,56,39,0
1,note_on,56,0,40
1,note_on,50,46,0
1,note_on,47,46,0
1,note_on,56,42,40
1,note_on,47,0,20
1,note_on,50,0,0
1,note_on,56,0,20
1,note_on,50,47,0
1,note_on,47,47,0
1,note_on,47,0,40
1,note_on,50,0,0
1,note_on,56,42,0
1,note_on,56,0,40
1,note_on,50,48,0
1,note_on,47,48,0
1,note_on,47,0,40
1,note_on,50,0,0
1,note_on,56,44,0
1,note_on,56,0,40
1,note_on,50,50,0
1,note_on,47,50,0
1,note_on,56,45,40
1,note_on,47,0,20
1,note_on,50,0,0
1,note_on,56,0,20
1,note_on,50,51,0
1,note_on,47,51,0
1,note_on,47,0,40
1,note_on,50,0,0
1,note_on,56,46,0
1,note_on,56,0,40
1,note_on,50,52,0
1,note_on,47,52,0
1,note_on,47,0,40
1,note_on,50,0,0
1,note_on,56,47,0
1,note_on,56,0,40
1,note_on,50,53,0
1,note_on,47,53,0
1,note_on,56,48,40
1,note_on,47,0,20
1,note_on,50,0,0
1,note_on,56,0,20
1,note_on,50,55,0
1,note_on,47,55,0
1,note_on,47,0,40
1,note_on,50,0,0
1,note_on,56,49,0
1,note_on,56,0,40
1,note_on,50,56,0
1,note_on,47,56,0
1,note_on,47,0,40
1,note_on,50,0,0
1,note_on,56,50,0
1,note_on,56,0,40
1,note_on,50,57,0
1,note_on,47,57,0
1,note_on,56,51,40
1,note_on,47,0,20
1,note_on,50,0,0
1,note_on,56,0,20
1,note_on,50,58,0
1,note_on,47,58,0
1,note_on,47,0,40
1,note_on,50,0,0
1,note_on,56,55,0
1,note_on,56,0,40
1,note_on,50,60,0
1,note_on,47,60,0
1,note_on,47,0,40
1,note_on,50,0,0
1,note_on,56,53,0
1,note_on,56,0,40
1,note_on,50,61,0
1,note_on,47,61,0
1,note_on,56,54,40
1,note_on,47,0,20
1,note_on,50,0,0
1,note_on,56,0,20
1,note_on,50,62,0
1,note_on,47,62,0
1,note_on,47,0,40
1,note_on,50,0,0
1,note_on,56,58,0
1,note_on,56,0,40
1,note_on,50,63,0
1,note_on,47,63,0
1,note_on,47,0,40
1,note_on,50,0,0
1,note_on,56,59,0
1,note_on,56,0,40
1,note_on,50,67,0
1,note_on,47,67,0
1,note_on,56,70,40
1,note_on,47,0,20
1,note_on,50,0,0
1,note_on,56,0,20
1,note_on,50,73,0
1,note_on,47,73,0
1,note_on,47,0,40
1,note_on,50,0,0
1,note_on,56,77,0
1,note_on,56,0,40
1,note_on,50,80,0
1,note_on,47,80,0
1,note_on,47,0,40
1,note_on,50,0,0
1,note_on,56,83,0
1,note_on,56,0,40
1,note_on,50,86,0
1,note_on,47,86,0
1,note_on,56,89,40
1,note_on,47,0,20
1,note_on,50,0,0
1,note_on,56,0,20
1,note_on,49,83,0
1,note_on,55,93,0
1,note_on,46,74,20
1,note_on,55,0,20
1,note_on,46,0,20
1,note_on,49,0,0
1,note_on,47,78,0
1,note_on,50,90,0
1,note_on,56,98,0
1,note_on,56,0,120
1,note_on,50,0,0
1,note_on,47,0,0
1,note_on,62,57,2175
1,note_on,68,59,15
1,note_on,71,63,15
1,note_on,76,66,15
1,note_on,76,0,240
1,note_on,62,0,0
1,note_on,68,0,0
1,note_on,71,0,0
1,note_on,62,57,675
1,note_on,68,59,15
1,note_on,71,63,15
1,note_on,76,66,15
1,note_on,76,0,240
1,note_on,62,0,0
1,note_on,68,0,0
1,note_on,71,0,0
1,note_on,62,57,675
1,note_on,66,59,15
1,note_on,69,63,15
1,note_on,76,66,15
1,note_on,76,0,240
1,note_on,62,0,0
1,note_on,66,0,0
1,note_on,69,0,0
1,note_on,62,57,675
1,note_on,68,59,15
1,note_on,71,63,15
1,note_on,76,66,15
1,note_on,76,0,240
1,note_on,62,0,0
1,note_on,68,0,0
1,note_on,71,0,0
1,note_on,64,60,675
1,note_on,69,64,15
1,note_on,73,67,15
1,note_on,81,70,15
1,note_on,81,0,240
1,note_on,64,0,0
1,note_on,69,0,0
1,note_on,73,0,0
1,note_on,64,60,675
1,note_on,69,64,15
1,note_on,73,67,15
1,note_on,81,70,15
1,note_on,81,0,240
1,note_on,64,0,0
1,note_on,69,0,0
1,note_on,73,0,0
1,note_on,66,60,675
1,note_on,72,64,15
1,note_on,75,67,15
1,note_on,81,70,15
1,note_on,81,0,240
1,note_on,66,0,0
1,note_on,72,0,0
1,note_on,75,0,0
1,note_on,64,60,675
1,note_on,69,64,15
1,note_on,73,67,15
1,note_on,81,70,15
1,note_on,81,0,240
1,note_on,64,0,0
1,note_on,69,0,0
1,note_on,73,0,0
1,note_on,61,69,90
1,note_on,61,0,60
1,note_on,57,59,45
1,note_on,61,63,15
1,note_on,66,64,15
1,note_on,69,77,15
1,note_on,69,0,720
1,note_on,71,69,0
1,note_on,71,0,120
1,note_on,73,69,0
1,note_on,57,0,109
1,note_on,73,0,11
1,note_on,66,0,0
1,note_on,73,73,0
1,note_on,61,0,10
1,note_on,73,0,110
1,note_on,66,68,0
1,note_on,66,0,360
1,note_on,66,63,420
1,note_on,66,0,40
1,note_on,66,78,20
1,note_on,66,0,720
1,note_on,68,65,0
1,note_on,69,65,120
1,note_on,68,0,20
1,note_on,61,70,100
1,note_on,69,0,20
1,note_on,61,0,340
1,note_on,63,64,0
1,note_on,64,64,60
1,note_on,63,0,20
1,note_on,64,0,60
1,note_on,85,73,7540
1,note_on,88,73,0
1,note_on,76,61,0
1,note_on,76,0,90
1,note_on,88,0,0
1,note_on,85,0,0
1,note_on,88,83,30
1,note_on,85,83,0
1,note_on,76,70,0
1,note_on,76,0,1320
1,note_on,85,0,0
1,note_on,88,0,0
1,note_on,87,73,0
1,note_on,83,73,0
1,note_on,75,61,0
1,note_on,75,0,90
1,note_on,83,0,0
1,note_on,87,0,0
1,note_on,87,83,30
1,note_on,83,83,0
1,note_on,75,70,0
1,note_on,75,0,360
1,note_on,83,0,0
1,note_on,87,0,0
1,note_on,85,73,0
1,note_on,81,73,0
1,note_on,73,61,0
1,note_on,73,0,90
1,note_on,81,0,0
1,note_on,85,0,0
1,note_on,81,80,30
1,note_on,85,80,0
1,note_on,73,68,0
1,note_on,73,0,360
1,note_on,85,0,0
1,note_on,81,0,0
1,note_on,81,73,0
1,note_on,78,73,0
1,note_on,69,61,0
1,note_on,69,0,90
1,note_on,78,0,0
1,note_on,81,0,0
1,note_on,81,80,30
1,note_on,78,80,0
1,note_on,69,68,0
1,note_on,69,0,360
1,note_on,78,0,0
1,note_on,81,0,0
1,note_on,80,75,0
1,note_on,76,75,0
1,note_on,68,63,0
1,note_on,68,0,90
1,note_on,76,0,0
1,note_on,80,0,0
1,note_on,80,83,30
1,note_on,76,83,0
1,note_on,68,70,0
1,note_on,68,0,360
1,note_on,76,0,0
1,note_on,80,0,0
1,note_on,76,73,0
1,note_on,73,73,0
1,note_on,64,61,0
1,note_on,64,0,90
1,note_on,73,0,0
1,note_on,76,0,0
1,note_on,73,80,30
1,note_on,76,80,0
1,note_on,64,68,0
1,note_on,64,0,360
1,note_on,76,0,0
1,note_on,73,0,0
1,note_on,75,73,0
1,note_on,71,73,0
1,note_on,63,61,0
1,note_on,63,0,90
1,note_on,71,0,0
1,note_on,75,0,0
1,note_on,75,81,30
1,note_on,71,81,0
1,note_on,63,69,0
1,note_on,63,0,360
1,note_on,71,0,0
1,note_on,75,0,0
1,note_on,73,78,0
1,note_on,69,78,0
1,note_on,61,66,0
1,note_on,61,0,90
1,note_on,69,0,0
1,note_on,73,0,0
1,note_on,73,82,30
1,note_on,69,82,0
1,note_on,61,70,0
1,note_on,61,0,360
1,note_on,69,0,0
1,note_on,73,0,0
1,note_on,69,80,0
1,note_on,66,80,0
1,note_on,57,67,0
1,note_on,57,0,90
1,note_on,66,0,0
1,note_on,69,0,0
1,note_on,69,85,30
1,note_on,66,85,0
1,note_on,57,72,0
1,note_on,57,0,360
1,note_on,66,0,0
1,note_on,69,0,0
1,note_on,68,81,0
1,note_on,64,81,0
1,note_on,56,68,0
1,note_on,56,0,90
1,note_on,64,0,0
1,note_on,68,0,0
1,note_on,68,86,30
1,note_on,64,86,0
1,note_on,56,73,0
1,note_on,56,0,360
1,note_on,64,0,0
1,note_on,68,0,0
1,note_on,64,83,0
1,note_on,61,83,0
1,note_on,52,70,0
1,note_on,52,0,90
1,note_on,61,0,0
1,note_on,64,0,0
1,note_on,64,89,30
1,note_on,61,89,0
1,note_on,52,74,0
1,note_on,52,0,360
1,note_on,61,0,0
1,note_on,64,0,0
1,note_on,63,84,0
1,note_on,59,84,0
1,note_on,51,71,0
1,note_on,51,0,90
1,note_on,59,0,0
1,note_on,63,0,0
1,note_on,63,91,30
1,note_on,59,91,0
1,note_on,51,77,0
1,note_on,51,0,360
1,note_on,59,0,0
1,note_on,63,0,0
1,note_on,61,86,0
1,note_on,57,86,0
1,note_on,49,72,0
1,note_on,49,0,90
1,note_on,57,0,0
1,note_on,61,0,0
1,note_on,61,91,30
1,note_on,49,78,0
1,note_on,57,78,0
1,note_on,57,0,960
1,note_on,49,0,0
1,note_on,61,0,0
1,note_on,62,86,0
1,note_on,50,72,0
1,note_on,53,72,0
1,note_on,57,72,0
1,note_on,57,0,960
1,note_on,62,0,0
1,note_on,50,0,0
1,note_on,53,0,0
1,note_on,66,95,0
1,note_on,54,80,0
1,note_on,57,80,0
1,note_on,62,80,0
1,note_on,62,0,960
1,note_on,66,0,0
1,note_on,54,0,0
1,note_on,57,0,0
1,note_on,68,98,0
1,note_on,54,63,0
1,note_on,56,70,0
1,note_on,60,70,0
1,note_on,63,78,0
1,note_on,63,0,900
1,note_on,56,0,0
1,note_on,68,0,0
1,note_on,54,0,0
1,note_on,60,0,0
1,note_on,61,65,20
1,note_on,61,0,30
1,note_on,61,72,10
1,note_on,56,61,0
1,note_on,52,61,0
1,note_on,52,0,420
1,note_on,56,0,0
1,note_on,61,0,0
1,note_on,66,70,20
1,note_on,66,0,30
1,note_on,66,71,10
1,note_on,57,60,0
1,note_on,54,60,0
1,note_on,54,0,420
1,note_on,57,0,0
1,note_on,66,0,0
1,note_on,64,69,20
1,note_on,64,0,30
1,note_on,64,70,10
1,note_on,56,59,0
1,note_on,52,59,0
1,note_on,52,0,180
1,note_on,56,0,0
1,note_on,64,0,0
1,note_on,63,67,20
1,note_on,63,0,30
1,note_on,63,70,10
1,note_on,54,59,0
1,note_on,51,59,0
1,note_on,51,0,180
1,note_on,54,0,0
1,note_on,63,0,0
1,note_on,61,68,20
1,note_on,61,0,30
1,note_on,61,71,10
1,note_on,52,60,0
1,note_on,49,60,0
1,note_on,49,0,180
1,note_on,52,0,0
1,note_on,61,0,0
1,note_on,60,68,20
1,note_on,60,0,30
1,note_on,60,70,10
1,note_on,51,59,0
1,note_on,48,59,0
1,note_on,48,0,180
1,note_on,51,0,0
1,note_on,60,0,0
1,note_on,61,70,20
1,note_on,61,0,30
1,note_on,61,71,10
1,note_on,52,60,0
1,note_on,49,60,0
1,note_on,49,0,120
1,note_on,52,0,0
1,note_on,61,0,0
1,note_on,49,70,60
1,note_on,49,0,60
1,note_on,45,66,0
1,note_on,51,66,0
1,note_on,51,0,60
1,note_on,49,61,0
1,note_on,49,0,60
1,note_on,51,66,0
1,note_on,51,0,60
1,note_on,49,61,0
1,note_on,49,0,60
1,note_on,51,66,0
1,note_on,51,0,60
1,note_on,49,60,0
1,note_on,49,0,60
1,note_on,51,66,0
1,note_on,51,0,60
1,note_on,49,61,0
1,note_on,49,0,60
1,note_on,51,66,0
1,note_on,51,0,60
1,note_on,49,61,0
1,note_on,49,0,60
1,note_on,48,66,0
1,note_on,48,0,60
1,note_on,49,61,0
1,note_on,49,0,60
1,note_on,45,0,0
1,note_on,52,71,0
1,note_on,52,0,80
1,note_on,51,65,0
1,note_on,51,0,80
1,note_on,49,65,0
1,note_on,49,0,80
1,note_on,44,70,0
1,note_on,49,70,0
1,note_on,49,0,60
1,note_on,44,0,0
1,note_on,68,65,620
1,note_on,68,0,40
1,note_on,68,72,0
1,note_on,63,61,0
1,note_on,59,61,0
1,note_on,59,0,420
1,note_on,63,0,0
1,note_on,68,0,0
1,note_on,73,70,20
1,note_on,73,0,30
1,note_on,73,71,10
1,note_on,64,60,0
1,note_on,61,60,0
1,note_on,61,0,420
1,note_on,64,0,0
1,note_on,73,0,0
1,note_on,71,69,20
1,note_on,71,0,40
1,note_on,71,70,0
1,note_on,63,59,0
1,note_on,59,59,0
1,note_on,59,0,180
1,note_on,63,0,0
1,note_on,71,0,0
1,note_on,69,67,20
1,note_on,69,0,30
1,note_on,69,70,10
1,note_on,61,59,0
1,note_on,57,59,0
1,note_on,57,0,180
1,note_on,61,0,0
1,note_on,69,0,0
1,note_on,56,68,20
1,note_on,68,68,0
1,note_on,68,0,30
1,note_on,56,0,0
1,note_on,68,71,10
1,note_on,59,60,0
1,note_on,56,60,0
1,note_on,56,0,180
1,note_on,59,0,0
1,note_on,68,0,0
1,note_on,67,68,20
1,note_on,67,0,30
1,note_on,67,70,10
1,note_on,58,59,0
1,note_on,55,59,0
1,note_on,55,0,180
1,note_on,58,0,0
1,note_on,67,0,0
1,note_on,68,70,20
1,note_on,68,0,30
1,note_on,68,71,10
1,note_on,59,60,0
1,note_on,56,60,0
1,note_on,56,0,120
1,note_on,59,0,0
1,note_on,68,0,0
1,note_on,56,63,60
1,note_on,56,0,60
1,note_on,52,59,0
1,note_on,58,59,0
1,note_on,58,0,60
1,note_on,56,54,0
1,note_on,56,0,60
1,note_on,58,59,0
1,note_on,58,0,60
1,note_on,56,54,0
1,note_on,56,0,60
1,note_on,58,59,0
1,note_on,58,0,60
1,note_on,56,54,0
1,note_on,56,0,60
1,note_on,58,59,0
1,note_on,58,0,60
1,note_on,56,54,0
1,note_on,56,0,60
1,note_on,58,59,0
1,note_on,58,0,60
1,note_on,56,54,0
1,note_on,56,0,60
1,note_on,55,59,0
1,note_on,55,0,60
1,note_on,56,54,0
1,note_on,56,0,60
1,note_on,52,0,0
1,note_on,59,63,0
1,note_on,59,0,80
1,note_on,58,58,0
1,note_on,58,0,80
1,note_on,56,58,0
1,note_on,56,0,80
1,note_on,47,56,0
1,note_on,51,56,0
1,note_on,56,56,0
1,note_on,56,0,60
1,note_on,51,0,0
1,note_on,47,0,0
1,note_on,68,52,540
1,note_on,68,0,60
1,note_on,59,48,30
1,note_on,64,50,15
1,note_on,68,55,15
1,note_on,68,0,720
1,note_on,69,52,0
1,note_on,69,0,120
1,note_on,71,52,0
1,note_on,71,0,100
1,note_on,71,52,20
1,note_on,71,0,60
1,note_on,64,56,0
1,note_on,64,0,780
1,note_on,63,56,0
1,note_on,63,0,100
1,note_on,64,0,20
1,note_on,59,0,0
1,note_on,63,56,0
1,note_on,57,47,60
1,note_on,66,54,0
1,note_on,63,0,60
1,note_on,64,44,360
1,note_on,64,0,120
1,note_on,66,43,0
1,note_on,66,0,120
1,note_on,68,46,0
1,note_on,68,0,80
1,note_on,66,44,0
1,note_on,66,0,80
1,note_on,64,44,0
1,note_on,64,0,80
1,note_on,66,0,0
1,note_on,57,0,0
1,note_on,56,39,0
1,note_on,64,44,0
1,note_on,64,0,880
1,note_on,56,0,0
1,note_on,68,52,20
1,note_on,56,33,0
1,note_on,64,33,0
1,note_on,64,0,54
1,note_on,56,0,0
1,note_on,68,0,0
1,note_on,68,55,6
1,note_on,56,35,0
1,note_on,64,35,0
1,note_on,64,0,720
1,note_on,56,0,0
1,note_on,68,0,0
1,note_on,69,52,0
1,note_on,66,44,0
1,note_on,57,44,7
1,note_on,66,0,113
1,note_on,69,0,0
1,note_on,71,55,0
1,note_on,59,46,0
1,note_on,68,46,0
1,note_on,57,0,7
1,note_on,71,0,113
1,note_on,59,0,0
1,note_on,68,0,0
1,note_on,73,59,0
1,note_on,61,49,0
1,note_on,69,49,0
1,note_on,69,0,320
1,note_on,61,0,0
1,note_on,73,0,0
1,note_on,73,54,0
1,note_on,61,45,0
1,note_on,69,45,0
1,note_on,69,0,160
1,note_on,61,0,0
1,note_on,73,0,0
1,note_on,73,57,0
1,note_on,61,48,0
1,note_on,69,48,0
1,note_on,69,0,128
1,note_on,61,0,0
1,note_on,73,0,0
1,note_on,71,55,32
1,note_on,59,46,0
1,note_on,68,46,0
1,note_on,68,0,128
1,note_on,59,0,0
1,note_on,71,0,0
1,note_on,70,52,32
1,note_on,58,44,0
1,note_on,67,44,0
1,note_on,67,0,128
1,note_on,58,0,0
1,note_on,70,0,0
1,note_on,71,57,32
1,note_on,59,48,0
1,note_on,68,48,0
1,note_on,68,0,480
1,note_on,59,0,0
1,note_on,71,0,0
1,note_on,64,52,0
1,note_on,56,44,0
1,note_on,61,44,0
1,note_on,63,44,180
1,note_on,63,0,60
1,note_on,64,45,0
1,note_on,64,0,60
1,note_on,66,44,0
1,note_on,66,0,60
1,note_on,64,46,0
1,note_on,64,0,60
1,note_on,63,48,0
1,note_on,63,0,60
1,note_on,64,0,0
1,note_on,56,0,0
1,note_on,61,0,0
1,note_on,63,52,0
1,note_on,57,44,0
1,note_on,63,0,360
1,note_on,64,49,0
1,note_on,64,0,40
1,note_on,68,55,0
1,note_on,68,0,80
1,note_on,57,0,0
1,note_on,66,52,0
1,note_on,57,44,0
1,note_on,66,0,360
1,note_on,64,52,0
1,note_on,64,0,100
1,note_on,57,0,20
1,note_on,64,52,0
1,note_on,56,44,0
1,note_on,56,0,480
1,note_on,64,0,0
1,note_on,76,52,1335
1,note_on,76,0,60
1,note_on,64,48,0
1,note_on,68,48,15
1,note_on,73,50,15
1,note_on,76,55,15
1,note_on,64,0,195
1,note_on,76,0,525
1,note_on,78,52,0
1,note_on,78,0,120
1,note_on,80,52,0
1,note_on,80,0,100
1,note_on,73,0,20
1,note_on,68,0,0
1,note_on,80,52,0
1,note_on,80,0,60
1,note_on,73,56,0
1,note_on,73,0,780
1,note_on,72,56,0
1,note_on,72,0,120
1,note_on,72,56,0
1,note_on,60,47,15
1,note_on,66,47,15
1,note_on,68,47,15
1,note_on,75,54,15
1,note_on,72,0,60
1,note_on,60,0,135
1,note_on,73,46,225
1,note_on,73,0,80
1,note_on,75,46,0
1,note_on,75,0,80
1,note_on,76,46,0
1,note_on,76,0,80
1,note_on,75,46,0
1,note_on,75,0,40
1,note_on,75,46,10
1,note_on,75,0,30
1,note_on,73,48,0
1,note_on,73,0,80
1,note_on,72,44,0
1,note_on,72,0,80
1,note_on,75,0,0
1,note_on,66,0,0
1,note_on,68,0,0
1,note_on,64,39,0
1,note_on,68,39,15
1,note_on,73,44,15
1,note_on,64,0,210
1,note_on,73,0,480
1,note_on,68,0,0
1,note_on,65,82,120
1,note_on,59,69,0
1,note_on,61,69,0
1,note_on,61,0,120
1,note_on,59,0,0
1,note_on,65,0,0
1,note_on,66,90,0
1,note_on,57,76,0
1,note_on,61,76,0
1,note_on,61,0,720
1,note_on,57,0,0
1,note_on,66,0,0
1,note_on,81,80,0
1,note_on,69,68,0
1,note_on,78,68,0
1,note_on,78,0,220
1,note_on,69,0,0
1,note_on,81,0,0
1,note_on,78,85,20
1,note_on,81,85,0
1,note_on,69,72,0
1,note_on,69,0,180
1,note_on,81,0,0
1,note_on,78,0,0
1,note_on,80,79,0
1,note_on,68,67,0
1,note_on,76,67,0
1,note_on,76,0,45
1,note_on,68,0,0
1,note_on,80,0,0
1,note_on,80,85,15
1,note_on,68,72,0
1,note_on,76,72,0
1,note_on,76,0,180
1,note_on,68,0,0
1,note_on,80,0,0
1,note_on,78,81,0
1,note_on,66,68,0
1,note_on,75,68,0
1,note_on,75,0,45
1,note_on,66,0,0
1,note_on,78,0,0
1,note_on,78,81,15
1,note_on,66,68,0
1,note_on,75,68,0
1,note_on,75,0,240
1,note_on,66,0,0
1,note_on,78,0,0
1,note_on,75,53,120
1,note_on,66,45,0
1,note_on,69,45,0
1,note_on,69,0,90
1,note_on,66,0,0
1,note_on,75,0,0
1,note_on,76,58,30
1,note_on,64,49,0
1,note_on,68,49,0
1,note_on,68,0,240
1,note_on,64,0,0
1,note_on,76,0,0
1,note_on,75,48,0
1,note_on,75,0,60
1,note_on,76,50,0
1,note_on,76,0,60
1,note_on,78,51,0
1,note_on,78,0,60
1,note_on,76,50,0
1,note_on,76,0,60
1,note_on,75,54,0
1,note_on,68,45,0
1,note_on,68,0,240
1,note_on,75,0,0
1,note_on,73,48,120
1,note_on,73,0,120
1,note_on,75,53,0
1,note_on,66,45,0
1,note_on,68,45,0
1,note_on,68,0,240
1,note_on,75,0,0
1,note_on,68,50,0
1,note_on,68,0,240
1,note_on,66,0,0
1,note_on,80,54,0
1,note_on,66,45,0
1,note_on,72,45,0
1,note_on,72,0,360
1,note_on,66,0,0
1,note_on,80,0,0
1,note_on,72,44,0
1,note_on,72,0,120
1,note_on,73,51,0
1,note_on,64,43,0
1,note_on,68,43,0
1,note_on,68,0,240
1,note_on,64,0,0
1,note_on,73,0,0
1,note_on,72,51,0
1,note_on,72,0,80
1,note_on,73,51,0
1,note_on,73,0,80
1,note_on,75,51,0
1,note_on,75,0,80
1,note_on,73,55,0
1,note_on,63,46,0
1,note_on,68,46,0
1,note_on,73,0,360
1,note_on,72,51,0
1,note_on,72,0,120
1,note_on,68,0,0
1,note_on,63,0,0
1,note_on,73,55,0
1,note_on,61,46,0
1,note_on,68,46,0
1,note_on,68,0,240
1,note_on,61,0,0
1,note_on,73,0,0
1,note_on,61,65,680
1,note_on,61,0,30
1,note_on,61,72,10
1,note_on,56,61,0
1,note_on,52,61,0
1,note_on,52,0,420
1,note_on,56,0,0
1,note_on,61,0,0
1,note_on,66,70,20
1,note_on,66,0,30
1,note_on,66,71,10
1,note_on,57,60,0
1,note_on,54,60,0
1,note_on,54,0,420
1,note_on,57,0,0
1,note_on,66,0,0
1,note_on,64,69,20
1,note_on,64,0,30
1,note_on,64,70,10
1,note_on,56,59,0
1,note_on,52,59,0
1,note_on,52,0,180
1,note_on,56,0,0
1,note_on,64,0,0
1,note_on,62,69,20
1,note_on,62,0,40
1,note_on,54,61,0
1,note_on,62,72,0
1,note_on,57,61,0
1,note_on,57,0,180
1,note_on,62,0,0
1,note_on,54,0,0
1,note_on,61,72,20
1,note_on,61,0,40
1,note_on,61,76,0
1,note_on,56,64,0
1,note_on,52,64,0
1,note_on,52,0,180
1,note_on,56,0,0
1,note_on,61,0,0
1,note_on,60,75,20
1,note_on,60,0,30
1,note_on,60,78,10
1,note_on,54,66,0
1,note_on,51,66,0
1,note_on,51,0,180
1,note_on,54,0,0
1,note_on,60,0,0
1,note_on,61,80,20
1,note_on,61,0,30
1,note_on,61,81,10
1,note_on,52,69,0
1,note_on,49,69,0
1,note_on,49,0,120
1,note_on,52,0,0
1,note_on,61,0,0
1,note_on,45,66,120
1,note_on,49,66,0
1,note_on,49,0,48
1,note_on,51,61,0
1,note_on,51,0,48
1,note_on,49,66,0
1,note_on,49,0,48
1,note_on,51,61,0
1,note_on,51,0,48
1,note_on,49,61,0
1,note_on,49,0,48
1,note_on,48,66,0
1,note_on,48,0,40
1,note_on,49,60,0
1,note_on,49,0,40
1,note_on,51,66,1
1,note_on,51,0,40
1,note_on,52,61,0
1,note_on,52,0,40
1,note_on,54,66,0
1,note_on,54,0,40
1,note_on,56,61,0
1,note_on,56,0,40
1,note_on,57,66,0
1,note_on,57,0,40
1,note_on,56,60,1
1,note_on,56,0,40
1,note_on,54,59,0
1,note_on,54,0,40
1,note_on,52,60,0
1,note_on,52,0,40
1,note_on,51,62,0
1,note_on,51,0,40
1,note_on,49,63,0
1,note_on,45,0,38
1,note_on,49,0,2
1,note_on,48,65,0
1,note_on,48,0,40
1,note_on,49,66,1
1,note_on,49,0,40
1,note_on,51,68,0
1,note_on,51,0,40
1,note_on,52,70,0
1,note_on,52,0,40
1,note_on,51,72,0
1,note_on,51,0,40
1,note_on,49,74,0
1,note_on,49,0,36
1,note_on,44,88,1
1,note_on,49,88,0
1,note_on,49,0,60
1,note_on,44,0,0
1,note_on,68,65,620
1,note_on,68,0,30
1,note_on,68,72,10
1,note_on,63,61,0
1,note_on,59,61,0
1,note_on,59,0,420
1,note_on,63,0,0
1,note_on,68,0,0
1,note_on,73,70,20
1,note_on,73,0,30
1,note_on,73,71,10
1,note_on,64,60,0
1,note_on,61,60,0
1,note_on,61,0,420
1,note_on,64,0,0
1,note_on,73,0,0
1,note_on,71,69,20
1,note_on,71,0,30
1,note_on,71,70,10
1,note_on,63,59,0
1,note_on,59,59,0
1,note_on,59,0,180
1,note_on,63,0,0
1,note_on,71,0,0
1,note_on,69,68,20
1,note_on,69,0,30
1,note_on,69,71,10
1,note_on,64,60,0
1,note_on,61,60,0
1,note_on,61,0,180
1,note_on,64,0,0
1,note_on,69,0,0
1,note_on,68,71,20
1,note_on,68,0,40
1,note_on,68,74,0
1,note_on,63,63,0
1,note_on,59,63,0
1,note_on,59,0,180
1,note_on,63,0,0
1,note_on,68,0,0
1,note_on,67,72,20
1,note_on,67,0,30
1,note_on,67,75,10
1,note_on,58,63,0
1,note_on,61,63,0
1,note_on,61,0,180
1,note_on,58,0,0
1,note_on,67,0,0
1,note_on,68,77,20
1,note_on,68,0,30
1,note_on,68,78,10
1,note_on,59,66,0
1,note_on,56,66,0
1,note_on,56,0,120
1,note_on,59,0,0
1,note_on,68,0,0
1,note_on,52,66,120
1,note_on,56,66,0
1,note_on,56,0,48
1,note_on,57,61,0
1,note_on,57,0,48
1,note_on,56,66,0
1,note_on,56,0,48
1,note_on,57,61,0
1,note_on,57,0,48
1,note_on,56,61,0
1,note_on,56,0,48
1,note_on,55,66,0
1,note_on,55,0,40
1,note_on,56,60,0
1,note_on,56,0,40
1,note_on,58,66,1
1,note_on,58,0,40
1,note_on,59,61,0
1,note_on,59,0,40
1,note_on,61,66,0
1,note_on,61,0,40
1,note_on,63,61,0
1,note_on,63,0,40
1,note_on,64,66,0
1,note_on,64,0,40
1,note_on,63,60,1
1,note_on,63,0,40
1,note_on,61,59,0
1,note_on,61,0,40
1,note_on,59,60,0
1,note_on,59,0,40
1,note_on,58,62,0
1,note_on,58,0,40
1,note_on,56,63,0
1,note_on,52,0,38
1,note_on,56,0,2
1,note_on,55,65,0
1,note_on,55,0,40
1,note_on,56,66,1
1,note_on,56,0,40
1,note_on,58,68,0
1,note_on,58,0,40
1,note_on,59,70,0
1,note_on,59,0,40
1,note_on,58,72,0
1,note_on,58,0,40
1,note_on,56,74,0
1,note_on,56,0,36
1,note_on,47,88,1
1,note_on,51,88,0
1,note_on,56,88,0
1,note_on,56,0,60
1,note_on,51,0,0
1,note_on,47,0,0
1,note_on,80,54,660
1,note_on,83,54,0
1,note_on,92,70,0
1,note_on,92,0,60
1,note_on,83,0,0
1,note_on,80,0,0
1,note_on,80,51,420
1,note_on,83,51,0
1,note_on,92,66,0
1,note_on,92,0,60
1,note_on,83,0,0
1,note_on,80,0,0
1,note_on,80,53,420
1,note_on,83,53,0
1,note_on,92,69,0
1,note_on,92,0,720
1,note_on,90,63,0
1,note_on,90,0,120
1,note_on,88,63,0
1,note_on,88,0,120
1,note_on,83,0,0
1,note_on,80,0,0
1,note_on,81,55,0
1,note_on,83,55,0
1,note_on,87,71,0
1,note_on,87,0,60
1,note_on,88,66,180
1,note_on,88,0,60
1,note_on,83,0,180
1,note_on,81,0,0
1,note_on,81,55,0
1,note_on,83,55,0
1,note_on,90,72,0
1,note_on,90,0,480
1,note_on,83,0,0
1,note_on,81,0,0
1,note_on,80,53,0
1,note_on,83,53,0
1,note_on,92,69,0
1,note_on,92,0,720
1,note_on,90,63,0
1,note_on,90,0,120
1,note_on,88,63,0
1,note_on,88,0,120
1,note_on,83,0,0
1,note_on,80,0,0
1,note_on,81,55,0
1,note_on,83,55,0
1,note_on,87,71,0
1,note_on,87,0,60
1,note_on,88,66,180
1,note_on,88,0,60
1,note_on,83,0,180
1,note_on,81,0,0
1,note_on,81,55,0
1,note_on,83,55,0
1,note_on,90,72,0
1,note_on,90,0,480
1,note_on,83,0,0
1,note_on,81,0,0
1,note_on,80,53,0
1,note_on,83,53,0
1,note_on,92,69,0
1,note_on,92,0,720
1,note_on,90,63,0
1,note_on,90,0,120
1,note_on,88,63,0
1,note_on,88,0,120
1,note_on,83,0,0
1,note_on,80,0,0
1,note_on,81,55,0
1,note_on,83,55,0
1,note_on,87,71,0
1,note_on,87,0,60
1,note_on,88,66,180
1,note_on,88,0,60
1,note_on,83,0,180
1,note_on,81,0,0
1,note_on,81,55,0
1,note_on,83,55,0
1,note_on,90,72,0
1,note_on,90,0,480
1,note_on,83,0,0
1,note_on,81,0,0
1,note_on,80,53,0
1,note_on,83,53,0
1,note_on,92,69,0
1,note_on,83,0,480
1,note_on,80,0,0
1,note_on,92,0,240
1,note_on,90,63,0
1,note_on,90,0,120
1,note_on,88,63,0
1,note_on,88,0,120
1,note_on,83,55,0
1,note_on,87,71,0
1,note_on,87,0,120
1,note_on,88,66,0
1,note_on,88,0,120
1,note_on,90,66,0
1,note_on,90,0,120
1,note_on,92,66,0
1,note_on,92,0,120
1,note_on,83,0,0
1,note_on,80,55,0
1,note_on,90,72,0
1,note_on,90,0,60
1,note_on,88,70,180
1,note_on,88,0,60
1,note_on,80,0,180
1,note_on,80,55,0
1,note_on,87,74,0
1,note_on,87,0,60
1,note_on,88,77,180
1,note_on,88,0,60
1,note_on,80,0,180
1,note_on,90,78,0
1,note_on,90,0,360
1,note_on,88,73,0
1,note_on,88,0,120
1,note_on,80,55,0
1,note_on,87,71,0
1,note_on,87,0,120
1,note_on,88,66,0
1,note_on,88,0,120
1,note_on,90,66,0
1,note_on,90,0,120
1,note_on,92,60,0
1,note_on,92,0,120
1,note_on,80,0,0
1,note_on,80,55,0
1,note_on,90,72,0
1,note_on,90,0,60
1,note_on,88,70,180
1,note_on,88,0,60
1,note_on,80,0,180
1,note_on,80,55,0
1,note_on,87,74,0
1,note_on,87,0,60
1,note_on,88,77,180
1,note_on,88,0,60
1,note_on,80,0,180
1,note_on,90,78,0
1,note_on,90,0,360
1,note_on,88,73,0
1,note_on,88,0,120
1,note_on,80,55,0
1,note_on,87,71,0
1,note_on,87,0,120
1,note_on,88,66,0
1,note_on,88,0,120
1,note_on,90,66,0
1,note_on,90,0,120
1,note_on,92,66,0
1,note_on,92,0,120
1,note_on,80,0,0
1,note_on,80,55,0
1,note_on,90,72,0
1,note_on,90,0,60
1,note_on,88,70,180
1,note_on,88,0,60
1,note_on,80,0,180
1,note_on,80,55,0
1,note_on,87,74,0
1,note_on,87,0,60
1,note_on,85,69,180
1,note_on,85,0,60
1,note_on,80,0,180
1,note_on,84,69,0
1,note_on,84,0,480
1,note_on,80,55,0
1,note_on,87,71,0
1,note_on,87,0,120
1,note_on,88,66,0
1,note_on,88,0,120
1,note_on,90,66,0
1,note_on,90,0,120
1,note_on,92,66,0
1,note_on,92,0,120
1,note_on,80,0,0
1,note_on,85,55,0
1,note_on,81,55,0
1,note_on,90,72,0
1,note_on,90,0,60
1,note_on,88,70,180
1,note_on,88,0,60
1,note_on,81,0,180
1,note_on,85,0,0
1,note_on,81,55,0
1,note_on,85,55,0
1,note_on,87,74,0
1,note_on,87,0,60
1,note_on,88,77,180
1,note_on,88,0,60
1,note_on,85,0,180
1,note_on,81,0,0
1,note_on,81,62,0
1,note_on,85,62,0
1,note_on,90,81,0
1,note_on,90,0,480
1,note_on,85,0,0
1,note_on,81,0,0
1,note_on,88,71,0
1,note_on,80,60,0
1,note_on,88,0,120
1,note_on,87,63,0
1,note_on,87,0,120
1,note_on,85,63,0
1,note_on,85,0,120
1,note_on,88,63,0
1,note_on,88,0,120
1,note_on,80,0,0
1,note_on,87,72,0
1,note_on,80,61,0
1,note_on,87,0,120
1,note_on,85,64,0
1,note_on,85,0,120
1,note_on,84,64,0
1,note_on,84,0,120
1,note_on,87,63,0
1,note_on,87,0,120
1,note_on,80,0,0
1,note_on,80,60,0
1,note_on,85,54,0
1,note_on,85,0,60
1,note_on,87,49,0
1,note_on,87,0,60
1,note_on,85,54,0
1,note_on,85,0,60
1,note_on,87,49,0
1,note_on,87,0,60
1,note_on,85,54,0
1,note_on,85,0,60
1,note_on,87,49,0
1,note_on,87,0,60
1,note_on,85,54,0
1,note_on,85,0,60
1,note_on,87,46,0
1,note_on,87,0,60
1,note_on,80,0,0
1,note_on,85,53,0
1,note_on,85,0,60
1,note_on,87,48,0
1,note_on,87,0,60
1,note_on,85,53,0
1,note_on,85,0,60
1,note_on,87,47,0
1,note_on,87,0,60
1,note_on,85,53,0
1,note_on,85,0,80
1,note_on,87,46,0
1,note_on,87,0,80
1,note_on,85,52,0
1,note_on,85,0,80
1,note_on,84,48,12
1,note_on,84,0,60
1,note_on,85,49,0
1,note_on,85,0,60
1,note_on,86,51,0
1,note_on,86,0,60
1,note_on,87,53,0
1,note_on,87,0,60
1,note_on,88,55,0
1,note_on,88,0,60
1,note_on,89,56,0
1,note_on,89,0,60
1,note_on,90,58,0
1,note_on,90,0,60
1,note_on,91,60,0
1,note_on,92,70,48
1,note_on,91,0,12
1,note_on,80,48,228
1,note_on,83,48,0
1,note_on,83,0,60
1,note_on,80,0,0
1,note_on,92,0,180
1,note_on,92,66,0
1,note_on,80,48,240
1,note_on,83,50,0
1,note_on,83,0,60
1,note_on,80,0,0
1,note_on,92,0,180
1,note_on,92,69,0
1,note_on,80,54,240
1,note_on,83,54,0
1,note_on,83,0,60
1,note_on,80,0,0
1,note_on,92,0,420
1,note_on,80,51,0
1,note_on,83,51,0
1,note_on,90,63,0
1,note_on,83,0,60
1,note_on,80,0,0
1,note_on,90,0,60
1,note_on,88,63,0
1,note_on,88,0,120
1,note_on,87,71,0
1,note_on,87,0,60
1,note_on,81,51,180
1,note_on,83,54,0
1,note_on,88,66,0
1,note_on,88,0,60
1,note_on,83,0,0
1,note_on,81,0,0
1,note_on,90,72,180
1,note_on,81,51,240
1,note_on,83,54,0
1,note_on,83,0,60
1,note_on,81,0,0
1,note_on,90,0,180
1,note_on,92,69,0
1,note_on,80,54,240
1,note_on,83,54,0
1,note_on,83,0,60
1,note_on,80,0,0
1,note_on,92,0,420
1,note_on,80,51,0
1,note_on,83,51,0
1,note_on,90,63,0
1,note_on,83,0,60
1,note_on,80,0,0
1,note_on,90,0,60
1,note_on,88,63,0
1,note_on,88,0,120
1,note_on,87,71,0
1,note_on,87,0,60
1,note_on,81,51,180
1,note_on,83,54,0
1,note_on,88,66,0
1,note_on,88,0,60
1,note_on,83,0,0
1,note_on,81,0,0
1,note_on,90,72,180
1,note_on,81,51,240
1,note_on,83,54,0
1,note_on,83,0,60
1,note_on,81,0,0
1,note_on,90,0,180
1,note_on,92,69,0
1,note_on,80,54,240
1,note_on,83,54,0
1,note_on,83,0,60
1,note_on,80,0,0
1,note_on,92,0,420
1,note_on,80,51,0
1,note_on,83,51,0
1,note_on,90,63,0
1,note_on,83,0,60
1,note_on,80,0,0
1,note_on,90,0,60
1,note_on,88,63,0
1,note_on,88,0,120
1,note_on,87,71,0
1,note_on,87,0,120
1,note_on,88,66,0
1,note_on,88,0,120
1,note_on,80,54,0
1,note_on,90,66,0
1,note_on,80,0,60
1,note_on,90,0,60
1,note_on,92,66,0
1,note_on,92,0,120
1,note_on,90,72,0
1,note_on,90,0,60
1,note_on,80,54,180
1,note_on,88,70,0
1,note_on,88,0,60
1,note_on,80,0,0
1,note_on,87,74,180
1,note_on,87,0,60
1,note_on,80,51,180
1,note_on,88,77,0
1,note_on,88,0,60
1,note_on,80,0,0
1,note_on,90,78,180
1,note_on,80,51,240
1,note_on,80,0,60
1,note_on,90,0,60
1,note_on,88,73,0
1,note_on,88,0,120
1,note_on,87,71,0
1,note_on,87,0,120
1,note_on,88,66,0
1,note_on,88,0,120
1,note_on,80,51,0
1,note_on,90,66,0
1,note_on,80,0,60
1,note_on,90,0,60
1,note_on,92,66,0
1,note_on,92,0,120
1,note_on,90,72,0
1,note_on,90,0,60
1,note_on,80,51,180
1,note_on,88,70,0
1,note_on,88,0,60
1,note_on,80,0,0
1,note_on,87,74,180
1,note_on,87,0,60
1,note_on,80,51,180
1,note_on,85,69,0
1,note_on,85,0,60
1,note_on,80,0,0
1,note_on,84,69,180
1,note_on,80,51,240
1,note_on,80,0,60
1,note_on,84,0,180
1,note_on,87,71,0
1,note_on,87,0,120
1,note_on,88,66,0
1,note_on,88,0,120
1,note_on,80,51,0
1,note_on,90,66,0
1,note_on,80,0,60
1,note_on,90,0,60
1,note_on,92,66,0
1,note_on,92,0,120
1,note_on,90,72,0
1,note_on,90,0,60
1,note_on,85,51,180
1,note_on,80,51,0
1,note_on,88,70,0
1,note_on,88,0,60
1,note_on,80,0,0
1,note_on,85,0,0
1,note_on,87,74,180
1,note_on,87,0,60
1,note_on,81,51,180
1,note_on,85,51,0
1,note_on,88,77,0
1,note_on,88,0,60
1,note_on,85,0,0
1,note_on,81,0,0
1,note_on,90,81,180
1,note_on,81,51,240
1,note_on,85,51,0
1,note_on,85,0,60
1,note_on,81,0,0
1,note_on,90,0,180
1,note_on,88,71,0
1,note_on,88,0,120
1,note_on,87,63,0
1,note_on,87,0,120
1,note_on,79,51,0
1,note_on,82,51,0
1,note_on,85,63,0
1,note_on,82,0,60
1,note_on,79,0,0
1,note_on,85,0,60
1,note_on,88,63,0
1,note_on,88,0,120
1,note_on,87,72,0
1,note_on,87,0,120
1,note_on,85,64,0
1,note_on,85,0,120
1,note_on,80,51,0
1,note_on,84,64,0
1,note_on,80,0,60
1,note_on,84,0,60
1,note_on,87,63,0
1,note_on,87,0,120
1,note_on,85,65,0
1,note_on,85,0,120
1,note_on,80,56,0
1,note_on,80,0,120
1,note_on,92,64,0
1,note_on,92,0,120
1,note_on,80,57,0
1,note_on,80,0,120
1,note_on,85,71,0
1,note_on,85,0,120
1,note_on,80,63,0
1,note_on,80,0,120
1,note_on,92,71,0
1,note_on,92,0,120
1,note_on,80,63,0
1,note_on,80,0,120
1,note_on,85,72,0
1,note_on,85,0,120
1,note_on,80,62,0
1,note_on,80,0,120
1,note_on,92,71,0
1,note_on,92,0,120
1,note_on,80,63,0
1,note_on,80,0,120
1,note_on,85,74,0
1,note_on,85,0,120
1,note_on,80,64,0
1,note_on,80,0,120
1,note_on,92,72,0
1,note_on,92,0,120
1,note_on,80,66,0
1,note_on,80,0,120
1,note_on,85,78,0
1,note_on,85,0,120
1,note_on,80,66,0
1,note_on,80,0,120
1,note_on,92,73,0
1,note_on,92,0,120
1,note_on,80,62,0
1,note_on,80,0,120
1,note_on,85,71,0
1,note_on,85,0,120
1,note_on,80,60,0
1,note_on,80,0,120
1,note_on,92,65,0
1,note_on,92,0,120
1,note_on,80,58,0
1,note_on,80,0,120
1,note_on,85,67,0
1,note_on,85,0,120
1,note_on,80,57,0
1,note_on,80,0,120
1,note_on,92,63,0
1,note_on,92,0,120
1,note_on,80,53,0
1,note_on,80,0,120
1,note_on,85,61,0
1,note_on,85,0,120
1,note_on,80,51,0
1,note_on,80,0,120
1,note_on,92,56,0
1,note_on,92,0,120
1,note_on,80,45,0
1,note_on,80,0,120
1,note_on,92,70,0
1,note_on,83,54,120
1,note_on,83,0,60
1,note_on,92,0,60
1,note_on,95,54,0
1,note_on,95,0,60
1,note_on,83,54,60
1,note_on,83,0,60
1,note_on,92,66,60
1,note_on,83,54,120
1,note_on,83,0,60
1,note_on,92,0,60
1,note_on,95,54,0
1,note_on,95,0,60
1,note_on,83,51,60
1,note_on,83,0,60
1,note_on,92,69,60
1,note_on,83,54,120
1,note_on,83,0,60
1,note_on,95,54,60
1,note_on,95,0,60
1,note_on,83,54,60
1,note_on,83,0,60
1,note_on,90,63,60
1,note_on,90,0,60
1,note_on,83,51,60
1,note_on,83,0,60
1,note_on,92,0,60
1,note_on,88,63,0
1,note_on,88,0,60
1,note_on,83,51,60
1,note_on,83,0,60
1,note_on,87,71,60
1,note_on,87,0,60
1,note_on,83,51,60
1,note_on,83,0,60
1,note_on,95,54,60
1,note_on,88,66,0
1,note_on,88,0,60
1,note_on,95,0,0
1,note_on,83,51,60
1,note_on,83,0,60
1,note_on,90,72,60
1,note_on,83,51,120
1,note_on,83,0,60
1,note_on,95,54,60
1,note_on,95,0,60
1,note_on,83,51,60
1,note_on,83,0,60
1,note_on,90,0,60
1,note_on,92,69,0
1,note_on,83,54,120
1,note_on,83,0,60
1,note_on,95,54,60
1,note_on,95,0,60
1,note_on,83,54,60
1,note_on,83,0,60
1,note_on,90,63,60
1,note_on,90,0,60
1,note_on,83,51,60
1,note_on,83,0,60
1,note_on,92,0,60
1,note_on,95,54,0
1,note_on,88,63,0
1,note_on,88,0,60
1,note_on,95,0,0
1,note_on,83,51,60
1,note_on,83,0,60
1,note_on,87,71,60
1,note_on,87,0,60
1,note_on,83,51,60
1,note_on,83,0,60
1,note_on,95,54,60
1,note_on,88,66,0
1,note_on,88,0,60
1,note_on,95,0,0
1,note_on,83,54,60
1,note_on,83,0,60
1,note_on,90,72,60
1,note_on,83,51,120
1,note_on,83,0,60
1,note_on,95,54,60
1,note_on,95,0,60
1,note_on,83,51,60
1,note_on,83,0,60
1,note_on,90,0,60
1,note_on,92,69,0
1,note_on,83,54,120
1,note_on,83,0,60
1,note_on,95,54,60
1,note_on,95,0,60
1,note_on,83,54,60
1,note_on,83,0,60
1,note_on,90,63,60
1,note_on,90,0,60
1,note_on,83,51,60
1,note_on,83,0,60
1,note_on,92,0,60
1,note_on,88,63,0
1,note_on,95,51,0
1,note_on,95,0,60
1,note_on,88,0,0
1,note_on,83,51,60
1,note_on,83,0,60
1,note_on,87,71,60
1,note_on,87,0,120
1,note_on,88,66,0
1,note_on,88,0,120
1,note_on,90,66,0
1,note_on,90,0,120
1,note_on,92,66,0
1,note_on,92,0,120
1,note_on,90,72,0
1,note_on,90,0,60
1,note_on,83,54,60
1,note_on,83,0,60
1,note_on,92,51,60
1,note_on,88,70,0
1,note_on,88,0,60
1,note_on,92,0,0
1,note_on,83,54,60
1,note_on,83,0,60
1,note_on,87,74,60
1,note_on,87,0,60
1,note_on,80,54,60
1,note_on,80,0,60
1,note_on,92,51,60
1,note_on,88,77,0
1,note_on,88,0,60
1,note_on,92,0,0
1,note_on,80,54,60
1,note_on,80,0,60
1,note_on,90,78,60
1,note_on,90,0,60
1,note_on,80,54,60
1,note_on,80,0,60
1,note_on,92,51,60
1,note_on,88,73,0
1,note_on,88,0,60
1,note_on,92,0,0
1,note_on,80,51,60
1,note_on,80,0,60
1,note_on,87,71,60
1,note_on,87,0,120
1,note_on,88,66,0
1,note_on,88,0,120
1,note_on,90,66,0
1,note_on,90,0,120
1,note_on,92,66,0
1,note_on,92,0,120
1,note_on,90,72,0
1,note_on,90,0,60
1,note_on,80,51,60
1,note_on,80,0,60
1,note_on,92,51,60
1,note_on,88,70,0
1,note_on,88,0,60
1,note_on,92,0,0
1,note_on,80,51,60
1,note_on,80,0,60
1,note_on,87,74,60
1,note_on,87,0,60
1,note_on,80,51,60
1,note_on,80,0,60
1,note_on,92,51,60
1,note_on,85,69,0
1,note_on,85,0,60
1,note_on,92,0,0
1,note_on,80,51,60
1,note_on,80,0,60
1,note_on,84,69,60
1,note_on,80,51,120
1,note_on,80,0,60
1,note_on,92,51,60
1,note_on,92,0,60
1,note_on,80,51,60
1,note_on,80,0,60
1,note_on,84,0,60
1,note_on,87,71,0
1,note_on,87,0,120
1,note_on,88,66,0
1,note_on,88,0,120
1,note_on,90,66,0
1,note_on,90,0,120
1,note_on,92,66,0
1,note_on,92,0,120
1,note_on,90,72,0
1,note_on,90,0,60
1,note_on,80,51,60
1,note_on,80,0,60
1,note_on,92,51,60
1,note_on,88,70,0
1,note_on,88,0,60
1,note_on,92,0,0
1,note_on,80,51,60
1,note_on,80,0,60
1,note_on,87,74,60
1,note_on,87,0,60
1,note_on,80,51,60
1,note_on,80,0,60
1,note_on,92,51,60
1,note_on,85,69,0
1,note_on,85,0,60
1,note_on,92,0,0
1,note_on,80,51,60
1,note_on,80,0,60
1,note_on,84,69,60
1,note_on,80,51,120
1,note_on,80,0,60
1,note_on,92,51,60
1,note_on,92,0,60
1,note_on,80,51,60
1,note_on,80,0,60
1,note_on,84,0,60
1,note_on,88,71,0
1,note_on,88,0,120
1,note_on,87,63,0
1,note_on,87,0,120
1,note_on,80,51,0
1,note_on,92,51,0
1,note_on,85,63,0
1,note_on,92,0,60
1,note_on,80,0,0
1,note_on,85,0,60
1,note_on,88,63,0
1,note_on,88,0,120
1,note_on,87,72,0
1,note_on,87,0,120
1,note_on,85,64,0
1,note_on,85,0,120
1,note_on,92,51,0
1,note_on,84,64,0
1,note_on,80,51,0
1,note_on,80,0,60
1,note_on,92,0,0
1,note_on,84,0,60
1,note_on,87,63,0
1,note_on,87,0,120
1,note_on,85,65,0
1,note_on,85,0,120
1,note_on,80,56,0
1,note_on,80,0,120
1,note_on,92,64,0
1,note_on,92,0,120
1,note_on,80,57,0
1,note_on,80,0,120
1,note_on,85,67,0
1,note_on,85,0,120
1,note_on,80,58,0
1,note_on,80,0,120
1,note_on,92,65,0
1,note_on,92,0,120
1,note_on,80,59,0
1,note_on,80,0,120
1,note_on,85,72,0
1,note_on,85,0,120
1,note_on,80,62,0
1,note_on,80,0,120
1,note_on,92,71,0
1,note_on,92,0,120
1,note_on,80,63,0
1,note_on,80,0,120
1,note_on,85,74,0
1,note_on,85,0,120
1,note_on,80,64,0
1,note_on,80,0,120
1,note_on,92,72,0
1,note_on,92,0,120
1,note_on,80,66,0
1,note_on,80,0,120
1,note_on,92,78,0
1,note_on,92,0,120
1,note_on,85,66,0
1,note_on,85,0,120
1,note_on,97,73,0
1,note_on,97,0,120
1,note_on,85,62,0
1,note_on,85,0,120
1,note_on,92,71,0
1,note_on,92,0,120
1,note_on,85,60,0
1,note_on,85,0,120
1,note_on,97,65,0
1,note_on,97,0,120
1,note_on,85,58,0
1,note_on,85,0,120
1,note_on,92,67,0
1,note_on,92,0,120
1,note_on,85,57,0
1,note_on,85,0,120
1,note_on,97,63,0
1,note_on,97,0,120
1,note_on,85,53,0
1,note_on,85,0,120
1,note_on,92,61,0
1,note_on,92,0,120
1,note_on,85,51,0
1,note_on,85,0,120
1,note_on,97,56,0
1,note_on,97,0,120
1,note_on,85,45,0
1,note_on,85,0,120
1,note_on,92,67,0
1,note_on,92,0,120
1,note_on,85,55,0
1,note_on,85,0,120
1,note_on,97,60,0
1,note_on,97,0,120
1,note_on,85,49,0
1,note_on,85,0,120
1,note_on,92,56,0
1,note_on,92,0,120
1,note_on,85,45,0
1,note_on,85,0,120
1,note_on,97,49,0
1,note_on,97,0,120
1,note_on,85,38,0
1,note_on,85,0,120
1,note_on,92,56,0
1,note_on,92,0,120
1,note_on,85,46,0
1,note_on,85,0,120
1,note_on,97,50,0
1,note_on,97,0,120
1,note_on,85,41,0
1,note_on,85,0,120
1,note_on,92,46,0
1,note_on,92,0,120
1,note_on,85,37,0
1,note_on,85,0,120
1,note_on,97,40,0
1,note_on,97,0,120
1,note_on,85,36,0
1,note_on,85,0,120
1,note_on,92,46,0
1,note_on,92,0,120
1,note_on,85,39,0
1,note_on,85,0,120
1,note_on,97,44,0
1,note_on,97,0,120
1,note_on,85,37,0
1,note_on,85,0,120
1,note_on,92,42,0
1,note_on,92,0,120
1,note_on,85,35,0
1,note_on,85,0,120
1,note_on,97,39,0
1,note_on,97,0,120
1,note_on,85,31,0
1,note_on,85,0,120
1,note_on,92,39,0
1,note_on,92,0,120
1,note_on,85,31,0
1,note_on,85,0,120
1,note_on,97,31,0
1,note_on,97,0,240
1,note_on,73,47,1380
1,note_on,73,0,40
1,note_on,73,57,20
1,note_on,73,0,120
1,note_on,85,50,0
1,note_on,85,0,90
1,note_on,85,58,30
1,note_on,85,0,120
1,note_on,83,51,0
1,note_on,83,0,90
1,note_on,83,56,30
1,note_on,83,0,120
1,note_on,81,45,0
1,note_on,81,0,90
1,note_on,81,49,30
1,note_on,81,0,120
1,note_on,80,45,0
1,note_on,80,0,120
1,note_on,83,56,0
1,note_on,83,0,120
1,note_on,81,48,120
1,note_on,81,0,120
1,note_on,80,56,120
1,note_on,80,0,480
1,note_on,73,60,0
1,note_on,83,60,0
1,note_on,83,0,120
1,note_on,73,0,0
1,note_on,81,45,0
1,note_on,81,0,100
1,note_on,81,55,20
1,note_on,81,0,30
1,note_on,83,55,0
1,note_on,83,0,30
1,note_on,81,60,0
1,note_on,80,45,60
1,note_on,81,0,60
1,note_on,80,0,40
1,note_on,80,55,20
1,note_on,80,0,30
1,note_on,81,55,0
1,note_on,81,0,30
1,note_on,80,61,0
1,note_on,80,0,60
1,note_on,78,45,0
1,note_on,78,0,100
1,note_on,78,52,20
1,note_on,78,0,30
1,note_on,80,52,0
1,note_on,80,0,30
1,note_on,78,58,0
1,note_on,78,0,60
1,note_on,77,45,0
1,note_on,77,0,120
1,note_on,80,58,0
1,note_on,80,0,120
1,note_on,68,39,90
1,note_on,73,43,15
1,note_on,77,49,15
1,note_on,77,0,120
1,note_on,73,0,0
1,note_on,68,0,0
1,note_on,73,53,120
1,note_on,73,47,420
1,note_on,73,0,40
1,note_on,73,0,20
1,note_on,73,57,0
1,note_on,73,0,120
1,note_on,85,50,0
1,note_on,85,0,90
1,note_on,85,58,30
1,note_on,85,0,120
1,note_on,83,51,0
1,note_on,83,0,90
1,note_on,83,56,30
1,note_on,83,0,120
1,note_on,81,45,0
1,note_on,81,0,90
1,note_on,81,49,30
1,note_on,81,0,120
1,note_on,80,45,0
1,note_on,80,0,120
1,note_on,83,56,0
1,note_on,83,0,120
1,note_on,81,48,120
1,note_on,81,0,120
1,note_on,80,56,120
1,note_on,81,52,420
1,note_on,81,0,30
1,note_on,83,52,0
1,note_on,83,0,30
1,note_on,80,0,0
1,note_on,81,60,0
1,note_on,81,0,120
1,note_on,80,45,0
1,note_on,80,0,90
1,note_on,73,49,30
1,note_on,78,60,0
1,note_on,78,0,120
1,note_on,81,45,0
1,note_on,80,53,60
1,note_on,80,0,30
1,note_on,81,0,0
1,note_on,81,53,0
1,note_on,81,0,30
1,note_on,73,0,0
1,note_on,80,61,0
1,note_on,80,0,120
1,note_on,78,45,0
1,note_on,78,0,120
1,note_on,77,58,0
1,note_on,73,49,0
1,note_on,77,0,120
1,note_on,80,45,0
1,note_on,80,0,120
1,note_on,73,0,0
1,note_on,78,58,0
1,note_on,78,43,180
1,note_on,78,0,30
1,note_on,80,44,0
1,note_on,80,0,30
1,note_on,78,0,0
1,note_on,73,49,0
1,note_on,78,49,0
1,note_on,78,0,180
1,note_on,77,49,0
1,note_on,77,0,60
1,note_on,78,53,0
1,note_on,73,0,240
1,note_on,73,39,180
1,note_on,85,54,0
1,note_on,85,0,40
1,note_on,73,0,0
1,note_on,78,0,20
1,note_on,85,61,0
1,note_on,73,51,0
1,note_on,73,0,120
1,note_on,85,0,0
1,note_on,97,52,0
1,note_on,85,44,0
1,note_on,85,0,90
1,note_on,97,0,0
1,note_on,85,51,30
1,note_on,97,61,0
1,note_on,97,0,120
1,note_on,85,0,0
1,note_on,95,53,0
1,note_on,83,45,0
1,note_on,83,0,90
1,note_on,95,0,0
1,note_on,95,61,30
1,note_on,83,51,0
1,note_on,83,0,120
1,note_on,95,0,0
1,note_on,81,45,0
1,note_on,93,53,0
1,note_on,93,0,90
1,note_on,81,0,0
1,note_on,81,51,30
1,note_on,93,60,0
1,note_on,93,0,120
1,note_on,81,0,0
1,note_on,80,46,0
1,note_on,92,55,0
1,note_on,92,0,120
1,note_on,80,0,0
1,note_on,95,69,0
1,note_on,83,58,0
1,note_on,83,0,120
1,note_on,95,0,0
1,note_on,81,47,90
1,note_on,85,49,15
1,note_on,93,60,15
1,note_on,93,0,120
1,note_on,85,0,0
1,note_on,81,0,0
1,note_on,80,51,90
1,note_on,85,54,15
1,note_on,92,66,15
1,note_on,92,0,480
1,note_on,85,0,0
1,note_on,80,0,0
1,note_on,95,69,0
1,note_on,83,58,0
1,note_on,83,0,120
1,note_on,95,0,0
1,note_on,81,46,0
1,note_on,93,55,0
1,note_on,93,0,90
1,note_on,81,0,0
1,note_on,81,56,30
1,note_on,93,67,0
1,note_on,93,0,90
1,note_on,81,0,0
1,note_on,80,52,30
1,note_on,92,55,0
1,note_on,93,57,90
1,note_on,93,0,30
1,note_on,92,0,0
1,note_on,80,0,0
1,note_on,92,66,0
1,note_on,80,56,0
1,note_on,80,0,60
1,note_on,92,0,30
1,note_on,90,50,30
1,note_on,78,42,0
1,note_on,78,0,90
1,note_on,90,0,0
1,note_on,90,63,30
1,note_on,78,53,0
1,note_on,78,0,120
1,note_on,90,0,0
1,note_on,89,47,0
1,note_on,77,39,0
1,note_on,77,0,120
1,note_on,89,0,0
1,note_on,92,63,0
1,note_on,80,53,0
1,note_on,80,0,120
1,note_on,92,0,0
1,note_on,77,46,75
1,note_on,80,50,15
1,note_on,85,52,15
1,note_on,89,59,15
1,note_on,89,0,120
1,note_on,77,0,0
1,note_on,80,0,0
1,note_on,85,0,0
1,note_on,73,42,75
1,note_on,77,44,15
1,note_on,80,46,15
1,note_on,85,53,15
1,note_on,85,0,420
1,note_on,73,0,0
1,note_on,77,0,0
1,note_on,80,0,0
1,note_on,73,47,0
1,note_on,85,54,0
1,note_on,85,0,40
1,note_on,73,0,0
1,note_on,85,65,20
1,note_on,73,57,0
1,note_on,73,0,120
1,note_on,85,0,0
1,note_on,85,50,0
1,note_on,97,57,0
1,note_on,97,0,90
1,note_on,85,0,0
1,note_on,85,58,30
1,note_on,97,66,0
1,note_on,97,0,120
1,note_on,85,0,0
1,note_on,95,58,0
1,note_on,83,51,0
1,note_on,83,0,90
1,note_on,95,0,0
1,note_on,95,64,30
1,note_on,83,56,0
1,note_on,83,0,120
1,note_on,95,0,0
1,note_on,93,51,0
1,note_on,81,45,0
1,note_on,81,0,90
1,note_on,93,0,0
1,note_on,81,49,30
1,note_on,93,56,0
1,note_on,93,0,120
1,note_on,81,0,0
1,note_on,92,51,0
1,note_on,80,45,0
1,note_on,80,0,120
1,note_on,92,0,0
1,note_on,83,56,0
1,note_on,95,64,0
1,note_on,95,0,120
1,note_on,83,0,0
1,note_on,81,48,90
1,note_on,85,48,15
1,note_on,93,49,15
1,note_on,93,0,120
1,note_on,85,0,0
1,note_on,81,0,0
1,note_on,80,50,90
1,note_on,85,50,15
1,note_on,92,57,15
1,note_on,92,0,480
1,note_on,85,0,0
1,note_on,80,0,0
1,note_on,93,51,0
1,note_on,81,45,0
1,note_on,81,0,120
1,note_on,93,0,0
1,note_on,80,33,0
1,note_on,92,38,0
1,note_on,80,0,60
1,note_on,92,0,30
1,note_on,90,51,30
1,note_on,85,36,0
1,note_on,78,45,0
1,note_on,78,0,120
1,note_on,90,0,0
1,note_on,81,33,0
1,note_on,93,38,0
1,note_on,93,0,100
1,note_on,81,0,20
1,note_on,85,0,0
1,note_on,80,45,0
1,note_on,92,52,0
1,note_on,92,0,120
1,note_on,80,0,0
1,note_on,78,33,0
1,note_on,90,38,0
1,note_on,90,0,120
1,note_on,78,0,0
1,note_on,89,49,0
1,note_on,85,36,0
1,note_on,77,43,0
1,note_on,77,0,120
1,note_on,89,0,0
1,note_on,92,38,0
1,note_on,80,33,0
1,note_on,92,0,100
1,note_on,80,0,20
1,note_on,85,0,0
1,note_on,78,43,0
1,note_on,90,49,0
1,note_on,90,0,240
1,note_on,78,0,0
1,note_on,85,36,0
1,note_on,90,42,0
1,note_on,78,36,0
1,note_on,78,0,180
1,note_on,90,0,0
1,note_on,77,36,0
1,note_on,89,42,0
1,note_on,89,0,60
1,note_on,77,0,0
1,note_on,85,0,0
1,note_on,85,39,0
1,note_on,90,45,0
1,note_on,78,39,0
1,note_on,78,0,480
1,note_on,90,0,0
1,note_on,85,0,0
1,note_on,56,51,0
1,note_on,52,42,0
1,note_on,52,0,60
1,note_on,56,0,0
1,note_on,61,42,0
1,note_on,61,0,60
1,note_on,52,38,0
1,note_on,56,45,0
1,note_on,56,0,60
1,note_on,52,0,0
1,note_on,61,43,0
1,note_on,61,0,60
1,note_on,56,45,0
1,note_on,52,38,0
1,note_on,52,0,60
1,note_on,56,0,0
1,note_on,61,43,0
1,note_on,61,0,60
1,note_on,52,38,0
1,note_on,56,45,0
1,note_on,56,0,60
1,note_on,52,0,0
1,note_on,61,42,0
1,note_on,61,0,60
1,note_on,56,49,0
1,note_on,52,42,0
1,note_on,52,0,60
1,note_on,56,0,0
1,note_on,61,42,0
1,note_on,61,0,60
1,note_on,52,38,0
1,note_on,56,45,0
1,note_on,56,0,60
1,note_on,52,0,0
1,note_on,61,41,0
1,note_on,61,0,60
1,note_on,52,38,0
1,note_on,56,45,0
1,note_on,56,0,60
1,note_on,52,0,0
1,note_on,61,41,0
1,note_on,61,0,60
1,note_on,56,45,0
1,note_on,52,38,0
1,note_on,52,0,60
1,note_on,56,0,0
1,note_on,61,40,0
1,note_on,61,0,60
1,note_on,54,41,0
1,note_on,57,48,0
1,note_on,57,0,60
1,note_on,54,0,0
1,note_on,66,42,0
1,note_on,66,0,60
1,note_on,57,45,0
1,note_on,54,38,0
1,note_on,54,0,60
1,note_on,57,0,0
1,note_on,66,42,0
1,note_on,66,0,60
1,note_on,54,39,0
1,note_on,57,46,0
1,note_on,57,0,60
1,note_on,54,0,0
1,note_on,66,41,0
1,note_on,66,0,60
1,note_on,54,38,0
1,note_on,57,45,0
1,note_on,57,0,60
1,note_on,54,0,0
1,note_on,66,42,0
1,note_on,66,0,60
1,note_on,57,45,0
1,note_on,54,38,0
1,note_on,54,0,60
1,note_on,57,0,0
1,note_on,66,42,0
1,note_on,66,0,60
1,note_on,54,38,0
1,note_on,57,45,0
1,note_on,57,0,60
1,note_on,54,0,0
1,note_on,66,42,0
1,note_on,66,0,60
1,note_on,57,45,0
1,note_on,54,38,0
1,note_on,54,0,60
1,note_on,57,0,0
1,note_on,66,41,0
1,note_on,66,0,60
1,note_on,54,38,0
1,note_on,57,45,0
1,note_on,57,0,60
1,note_on,54,0,0
1,note_on,66,42,0
1,note_on,66,0,60
1,note_on,52,42,0
1,note_on,56,51,0
1,note_on,56,0,60
1,note_on,52,0,0
1,note_on,64,42,0
1,note_on,64,0,60
1,note_on,56,45,0
1,note_on,52,38,0
1,note_on,52,0,60
1,note_on,56,0,0
1,note_on,64,44,0
1,note_on,64,0,60
1,note_on,52,39,0
1,note_on,56,46,0
1,note_on,56,0,60
1,note_on,52,0,0
1,note_on,64,45,0
1,note_on,64,0,60
1,note_on,52,40,0
1,note_on,56,48,0
1,note_on,56,0,60
1,note_on,52,0,0
1,note_on,64,45,0
1,note_on,64,0,60
1,note_on,50,46,0
1,note_on,54,55,0
1,note_on,54,0,60
1,note_on,50,0,0
1,note_on,62,46,0
1,note_on,62,0,60
1,note_on,50,42,0
1,note_on,54,49,0
1,note_on,54,0,60
1,note_on,50,0,0
1,note_on,62,48,0
1,note_on,62,0,60
1,note_on,54,51,0
1,note_on,50,43,0
1,note_on,50,0,60
1,note_on,54,0,0
1,note_on,62,49,0
1,note_on,62,0,60
1,note_on,50,43,0
1,note_on,54,51,0
1,note_on,54,0,60
1,note_on,50,0,0
1,note_on,62,49,0
1,note_on,62,0,60
1,note_on,52,59,0
1,note_on,49,50,0
1,note_on,49,0,60
1,note_on,52,0,0
1,note_on,61,50,0
1,note_on,61,0,60
1,note_on,52,54,0
1,note_on,49,45,0
1,note_on,49,0,60
1,note_on,52,0,0
1,note_on,61,52,0
1,note_on,61,0,60
1,note_on,49,46,0
1,note_on,52,54,0
1,note_on,52,0,60
1,note_on,49,0,0
1,note_on,61,53,0
1,note_on,61,0,60
1,note_on,52,55,0
1,note_on,49,47,0
1,note_on,49,0,60
1,note_on,52,0,0
1,note_on,61,53,0
1,note_on,61,0,60
1,note_on,51,53,0
1,note_on,54,62,0
1,note_on,54,0,60
1,note_on,51,0,0
1,note_on,60,54,0
1,note_on,60,0,60
1,note_on,54,57,0
1,note_on,51,48,0
1,note_on,51,0,60
1,note_on,54,0,0
1,note_on,60,56,0
1,note_on,60,0,60
1,note_on,54,58,0
1,note_on,51,49,0
1,note_on,51,0,60
1,note_on,54,0,0
1,note_on,60,57,0
1,note_on,60,0,60
1,note_on,51,51,0
1,note_on,54,60,0
1,note_on,54,0,60
1,note_on,51,0,0
1,note_on,60,57,0
1,note_on,60,0,60
1,note_on,61,92,0
1,note_on,49,75,0
1,note_on,52,75,0
1,note_on,52,0,120
1,note_on,49,0,0
1,note_on,61,0,0
1,note_on,61,78,360
1,note_on,57,78,0
1,note_on,57,0,53
1,note_on,61,0,0
1,note_on,66,67,0
1,note_on,69,69,53
1,note_on,66,0,0
1,note_on,69,0,53
1,note_on,73,71,0
1,note_on,78,73,52
1,note_on,73,0,1
1,note_on,78,0,52
1,note_on,81,75,0
1,note_on,81,0,53
1,note_on,85,77,0
1,note_on,90,79,53
1,note_on,85,0,0
1,note_on,93,81,52
1,note_on,90,0,1
1,note_on,93,0,57
1,note_on,92,92,0
1,note_on,85,92,0
1,note_on,97,96,0
1,note_on,97,0,120
1,note_on,85,0,0
1,note_on,92,0,0
1,note_on,63,51,840
1,note_on,59,42,0
1,note_on,59,0,60
1,note_on,63,0,0
1,note_on,68,42,0
1,note_on,68,0,60
1,note_on,59,38,0
1,note_on,63,45,0
1,note_on,63,0,60
1,note_on,59,0,0
1,note_on,68,43,0
1,note_on,68,0,60
1,note_on,59,38,0
1,note_on,63,45,0
1,note_on,63,0,60
1,note_on,59,0,0
1,note_on,68,43,0
1,note_on,68,0,60
1,note_on,59,38,0
1,note_on,63,45,0
1,note_on,63,0,60
1,note_on,59,0,0
1,note_on,68,42,0
1,note_on,68,0,60
1,note_on,59,42,0
1,note_on,63,49,0
1,note_on,63,0,60
1,note_on,59,0,0
1,note_on,68,42,0
1,note_on,68,0,60
1,note_on,63,45,0
1,note_on,59,38,0
1,note_on,59,0,60
1,note_on,63,0,0
1,note_on,68,41,0
1,note_on,68,0,60
1,note_on,59,38,0
1,note_on,63,45,0
1,note_on,63,0,60
1,note_on,59,0,0
1,note_on,68,41,0
1,note_on,68,0,60
1,note_on,63,45,0
1,note_on,59,38,0
1,note_on,59,0,60
1,note_on,63,0,0
1,note_on,68,40,0
1,note_on,68,0,60
1,note_on,64,48,0
1,note_on,61,41,0
1,note_on,61,0,60
1,note_on,64,0,0
1,note_on,73,42,0
1,note_on,73,0,60
1,note_on,61,38,0
1,note_on,64,45,0
1,note_on,64,0,60
1,note_on,61,0,0
1,note_on,73,42,0
1,note_on,73,0,60
1,note_on,64,46,0
1,note_on,61,39,0
1,note_on,61,0,60
1,note_on,64,0,0
1,note_on,73,41,0
1,note_on,73,0,60
1,note_on,61,38,0
1,note_on,64,45,0
1,note_on,64,0,60
1,note_on,61,0,0
1,note_on,73,42,0
1,note_on,73,0,60
1,note_on,64,45,0
1,note_on,61,38,0
1,note_on,61,0,60
1,note_on,64,0,0
1,note_on,73,42,0
1,note_on,73,0,60
1,note_on,64,45,0
1,note_on,61,38,0
1,note_on,61,0,60
1,note_on,64,0,0
1,note_on,73,42,0
1,note_on,73,0,60
1,note_on,61,38,0
1,note_on,64,45,0
1,note_on,64,0,60
1,note_on,61,0,0
1,note_on,73,41,0
1,note_on,73,0,60
1,note_on,64,45,0
1,note_on,61,38,0
1,note_on,61,0,60
1,note_on,64,0,0
1,note_on,73,42,0
1,note_on,73,0,60
1,note_on,59,42,0
1,note_on,63,51,0
1,note_on,63,0,60
1,note_on,59,0,0
1,note_on,71,42,0
1,note_on,71,0,60
1,note_on,63,45,0
1,note_on,59,38,0
1,note_on,59,0,60
1,note_on,63,0,0
1,note_on,71,44,0
1,note_on,71,0,60
1,note_on,63,46,0
1,note_on,59,39,0
1,note_on,59,0,60
1,note_on,63,0,0
1,note_on,71,45,0
1,note_on,71,0,60
1,note_on,59,40,0
1,note_on,63,48,0
1,note_on,63,0,60
1,note_on,59,0,0
1,note_on,71,45,0
1,note_on,71,0,60
1,note_on,61,55,0
1,note_on,57,46,0
1,note_on,57,0,60
1,note_on,61,0,0
1,note_on,69,46,0
1,note_on,69,0,60
1,note_on,57,42,0
1,note_on,61,49,0
1,note_on,61,0,60
1,note_on,57,0,0
1,note_on,69,48,0
1,note_on,69,0,60
1,note_on,57,43,0
1,note_on,61,51,0
1,note_on,61,0,60
1,note_on,57,0,0
1,note_on,69,49,0
1,note_on,69,0,60
1,note_on,57,43,0
1,note_on,61,51,0
1,note_on,61,0,60
1,note_on,57,0,0
1,note_on,69,49,0
1,note_on,69,0,60
1,note_on,56,50,0
1,note_on,59,59,0
1,note_on,59,0,60
1,note_on,56,0,0
1,note_on,68,50,0
1,note_on,68,0,60
1,note_on,56,45,0
1,note_on,59,54,0
1,note_on,59,0,60
1,note_on,56,0,0
1,note_on,68,52,0
1,note_on,68,0,60
1,note_on,59,54,0
1,note_on,56,46,0
1,note_on,56,0,60
1,note_on,59,0,0
1,note_on,68,53,0
1,note_on,68,0,60
1,note_on,56,47,0
1,note_on,59,55,0
1,note_on,59,0,60
1,note_on,56,0,0
1,note_on,68,53,0
1,note_on,68,0,60
1,note_on,61,62,0
1,note_on,58,53,0
1,note_on,58,0,60
1,note_on,61,0,0
1,note_on,67,54,0
1,note_on,67,0,60
1,note_on,58,48,0
1,note_on,61,57,0
1,note_on,61,0,60
1,note_on,58,0,0
1,note_on,67,56,0
1,note_on,67,0,60
1,note_on,58,49,0
1,note_on,61,58,0
1,note_on,61,0,60
1,note_on,58,0,0
1,note_on,67,57,0
1,note_on,67,0,60
1,note_on,61,60,0
1,note_on,58,51,0
1,note_on,58,0,60
1,note_on,61,0,0
1,note_on,67,57,0
1,note_on,67,0,60
1,note_on,56,75,0
1,note_on,68,92,0
1,note_on,59,75,0
1,note_on,59,0,120
1,note_on,68,0,0
1,note_on,56,0,0
1,note_on,64,78,360
1,note_on,68,78,0
1,note_on,68,0,53
1,note_on,64,0,0
1,note_on,73,67,0
1,note_on,76,69,53
1,note_on,73,0,0
1,note_on,76,0,53
1,note_on,80,71,0
1,note_on,85,73,52
1,note_on,80,0,1
1,note_on,85,0,52
1,note_on,88,75,0
1,note_on,88,0,53
1,note_on,92,77,0
1,note_on,97,79,53
1,note_on,92,0,0
1,note_on,100,81,52
1,note_on,97,0,1
1,note_on,100,0,57
1,note_on,92,92,0
1,note_on,104,96,0
1,note_on,99,92,0
1,note_on,99,0,120
1,note_on,104,0,0
1,note_on,92,0,0
1,note_on,80,99,840
1,note_on,68,83,0
1,note_on,68,0,840
1,note_on,80,0,0
1,note_on,81,77,0
1,note_on,69,64,0
1,note_on,69,0,60
1,note_on,81,0,0
1,note_on,83,77,0
1,note_on,71,64,0
1,note_on,71,0,60
1,note_on,83,0,0
1,note_on,64,78,0
1,note_on,76,92,0
1,note_on,76,0,720
1,note_on,64,0,0
1,note_on,63,64,120
1,note_on,75,77,0
1,note_on,75,0,120
1,note_on,63,0,0
1,note_on,66,72,0
1,note_on,78,88,0
1,note_on,78,0,560
1,note_on,66,0,0
1,note_on,64,64,0
1,note_on,76,77,0
1,note_on,76,0,80
1,note_on,64,0,0
1,note_on,66,70,0
1,note_on,78,83,0
1,note_on,78,0,80
1,note_on,66,0,0
1,note_on,80,82,0
1,note_on,68,69,0
1,note_on,68,0,80
1,note_on,80,0,0
1,note_on,78,78,0
1,note_on,66,66,0
1,note_on,66,0,60
1,note_on,78,0,0
1,note_on,64,66,60
1,note_on,76,78,0
1,note_on,76,0,30
1,note_on,64,0,0
1,note_on,64,77,10
1,note_on,76,92,0
1,note_on,76,0,720
1,note_on,64,0,0
1,note_on,68,70,120
1,note_on,76,70,0
1,note_on,80,83,0
1,note_on,80,0,90
1,note_on,76,0,0
1,note_on,68,0,0
1,note_on,80,92,30
1,note_on,76,78,0
1,note_on,68,78,0
1,note_on,68,0,480
1,note_on,76,0,0
1,note_on,80,0,0
1,note_on,68,68,0
1,note_on,80,80,0
1,note_on,80,0,160
1,note_on,68,0,0
1,note_on,81,82,0
1,note_on,69,69,0
1,note_on,69,0,160
1,note_on,81,0,0
1,note_on,83,88,0
1,note_on,71,74,0
1,note_on,71,0,160
1,note_on,83,0,0
1,note_on,73,66,0
1,note_on,85,92,0
1,note_on,85,0,480
1,note_on,73,0,0
1,note_on,61,75,0
1,note_on,64,75,0
1,note_on,73,90,0
1,note_on,73,0,160
1,note_on,64,0,0
1,note_on,61,0,0
1,note_on,71,84,0
1,note_on,59,71,0
1,note_on,64,71,0
1,note_on,64,0,160
1,note_on,59,0,0
1,note_on,71,0,0
1,note_on,64,67,0
1,note_on,70,79,0
1,note_on,58,67,0
1,note_on,58,0,160
1,note_on,70,0,0
1,note_on,64,0,0
1,note_on,59,78,0
1,note_on,64,78,0
1,note_on,71,92,0
1,note_on,71,0,480
1,note_on,64,0,0
1,note_on,59,0,0
1,note_on,64,77,0
1,note_on,56,77,0
1,note_on,52,77,0
1,note_on,52,0,360
1,note_on,64,0,0
1,note_on,63,77,0
1,note_on,51,77,0
1,note_on,51,0,120
1,note_on,63,0,0
1,note_on,56,0,0
1,note_on,63,88,0
1,note_on,51,72,0
1,note_on,57,72,0
1,note_on,64,77,553
1,note_on,52,64,0
1,note_on,57,0,7
1,note_on,63,0,0
1,note_on,51,0,0
1,note_on,64,0,73
1,note_on,52,0,0
1,note_on,54,70,0
1,note_on,66,83,0
1,note_on,66,0,80
1,note_on,54,0,0
1,note_on,68,82,0
1,note_on,56,69,0
1,note_on,56,0,80
1,note_on,68,0,0
1,note_on,66,78,0
1,note_on,54,66,0
1,note_on,54,0,60
1,note_on,66,0,0
1,note_on,52,66,60
1,note_on,64,78,0
1,note_on,64,0,40
1,note_on,52,0,0
1,note_on,64,71,7
1,note_on,52,71,0
1,note_on,52,0,80
1,note_on,64,0,0
1,note_on,56,72,0
1,note_on,56,0,80
1,note_on,59,73,0
1,note_on,59,0,80
1,note_on,64,74,0
1,note_on,64,0,80
1,note_on,68,75,0
1,note_on,68,0,80
1,note_on,71,75,0
1,note_on,71,0,80
1,note_on,76,77,0
1,note_on,76,0,80
1,note_on,80,78,0
1,note_on,80,0,80
1,note_on,83,79,0
1,note_on,83,0,80
1,note_on,88,80,0
1,note_on,88,0,80
1,note_on,92,81,0
1,note_on,92,0,80
1,note_on,95,82,0
1,note_on,95,0,80
1,note_on,92,93,0
1,note_on,88,93,0
1,note_on,100,93,0
1,note_on,100,0,120
1,note_on,88,0,0
1,note_on,92,0,0
1,note_on,80,86,840
1,note_on,88,103,0
1,note_on,76,86,0
1,note_on,85,86,0
1,note_on,85,0,840
1,note_on,80,0,0
1,note_on,88,0,0
1,note_on,76,0,0
1,note_on,90,80,0
1,note_on,78,67,0
1,note_on,78,0,60
1,note_on,90,0,0
1,note_on,80,67,0
1,note_on,92,80,0
1,note_on,92,0,60
1,note_on,80,0,0
1,note_on,85,96,0
1,note_on,73,81,0
1,note_on,73,0,840
1,note_on,85,0,0
1,note_on,84,80,0
1,note_on,72,67,0
1,note_on,72,0,120
1,note_on,84,0,0
1,note_on,75,75,0
1,note_on,87,92,0
1,note_on,87,0,560
1,note_on,75,0,0
1,note_on,73,67,0
1,note_on,85,80,0
1,note_on,85,0,80
1,note_on,73,0,0
1,note_on,75,73,0
1,note_on,87,86,0
1,note_on,87,0,80
1,note_on,75,0,0
1,note_on,88,85,0
1,note_on,76,72,0
1,note_on,76,0,80
1,note_on,88,0,0
1,note_on,87,81,0
1,note_on,75,69,0
1,note_on,75,0,60
1,note_on,87,0,0
1,note_on,73,69,60
1,note_on,85,81,0
1,note_on,85,0,30
1,note_on,73,0,0
1,note_on,73,80,10
1,note_on,85,96,0
1,note_on,85,0,720
1,note_on,73,0,0
1,note_on,85,80,1140
1,note_on,73,68,0
1,note_on,81,68,0
1,note_on,81,0,60
1,note_on,73,0,0
1,note_on,85,0,0
1,note_on,81,74,0
1,note_on,85,89,0
1,note_on,73,74,0
1,note_on,73,0,180
1,note_on,85,0,0
1,note_on,81,0,0
1,note_on,71,67,0
1,note_on,80,67,0
1,note_on,83,79,0
1,note_on,83,0,60
1,note_on,80,0,0
1,note_on,71,0,0
1,note_on,80,73,0
1,note_on,83,86,0
1,note_on,71,73,0
1,note_on,71,0,180
1,note_on,83,0,0
1,note_on,80,0,0
1,note_on,81,79,0
1,note_on,69,67,0
1,note_on,78,67,0
1,note_on,78,0,60
1,note_on,69,0,0
1,note_on,81,0,0
1,note_on,81,86,0
1,note_on,69,73,0
1,note_on,78,73,0
1,note_on,78,0,240
1,note_on,69,0,0
1,note_on,81,0,0
1,note_on,61,82,180
1,note_on,61,0,60
1,note_on,62,92,0
1,note_on,62,0,720
1,note_on,78,68,180
1,note_on,81,68,0
1,note_on,90,80,0
1,note_on,90,0,45
1,note_on,81,0,0
1,note_on,78,0,0
1,note_on,90,89,15
1,note_on,81,74,0
1,note_on,78,74,0
1,note_on,78,0,180
1,note_on,81,0,0
1,note_on,90,0,0
1,note_on,76,67,0
1,note_on,88,79,0
1,note_on,80,67,0
1,note_on,80,0,45
1,note_on,88,0,0
1,note_on,76,0,0
1,note_on,76,73,15
1,note_on,88,86,0
1,note_on,80,73,0
1,note_on,80,0,180
1,note_on,88,0,0
1,note_on,76,0,0
1,note_on,78,67,0
1,note_on,74,67,0
1,note_on,86,79,0
1,note_on,86,0,45
1,note_on,74,0,0
1,note_on,78,0,0
1,note_on,74,73,15
1,note_on,78,73,0
1,note_on,86,86,0
1,note_on,86,0,240
1,note_on,78,0,0
1,note_on,74,0,0
1,note_on,58,82,180
1,note_on,58,0,60
1,note_on,59,92,0
1,note_on,90,68,420
1,note_on,93,80,0
1,note_on,85,68,0
1,note_on,85,0,45
1,note_on,93,0,0
1,note_on,90,0,0
1,note_on,59,0,15
1,note_on,93,89,0
1,note_on,85,74,0
1,note_on,90,74,0
1,note_on,90,0,180
1,note_on,85,0,0
1,note_on,93,0,0
1,note_on,92,79,0
1,note_on,80,67,0
1,note_on,88,67,0
1,note_on,88,0,45
1,note_on,80,0,0
1,note_on,92,0,0
1,note_on,88,73,15
1,note_on,92,86,0
1,note_on,80,73,0
1,note_on,80,0,180
1,note_on,92,0,0
1,note_on,88,0,0
1,note_on,78,67,0
1,note_on,87,67,0
1,note_on,90,79,0
1,note_on,90,0,60
1,note_on,87,0,0
1,note_on,78,0,0
1,note_on,60,92,0
1,note_on,90,68,420
1,note_on,93,80,0
1,note_on,85,68,0
1,note_on,85,0,45
1,note_on,93,0,0
1,note_on,90,0,0
1,note_on,60,0,15
1,note_on,93,89,0
1,note_on,85,74,0
1,note_on,90,74,0
1,note_on,90,0,180
1,note_on,85,0,0
1,note_on,93,0,0
1,note_on,88,67,0
1,note_on,92,79,0
1,note_on,80,67,0
1,note_on,80,0,45
1,note_on,92,0,0
1,note_on,88,0,0
1,note_on,80,73,15
1,note_on,88,73,0
1,note_on,92,86,0
1,note_on,92,0,180
1,note_on,88,0,0
1,note_on,80,0,0
1,note_on,90,79,0
1,note_on,78,67,0
1,note_on,87,67,0
1,note_on,87,0,60
1,note_on,78,0,0
1,note_on,90,0,0
1,note_on,55,101,0
1,note_on,88,57,420
1,note_on,100,80,0
1,note_on,91,57,0
1,note_on,91,0,45
1,note_on,100,0,0
1,note_on,88,0,0
1,note_on,55,0,15
1,note_on,100,89,0
1,note_on,88,74,0
1,note_on,91,74,0
1,note_on,91,0,180
1,note_on,88,0,0
1,note_on,100,0,0
1,note_on,90,56,0
1,note_on,99,79,0
1,note_on,87,56,0
1,note_on,87,0,45
1,note_on,99,0,0
1,note_on,90,0,0
1,note_on,87,74,15
1,note_on,90,74,0
1,note_on,99,89,0
1,note_on,99,0,180
1,note_on,90,0,0
1,note_on,87,0,0
1,note_on,97,83,0
1,note_on,88,70,0
1,note_on,85,70,0
1,note_on,85,0,45
1,note_on,88,0,0
1,note_on,97,0,0
1,note_on,97,90,15
1,note_on,85,75,0
1,note_on,88,75,0
1,note_on,88,0,180
1,note_on,85,0,0
1,note_on,97,0,0
1,note_on,94,79,0
1,note_on,82,67,0
1,note_on,85,67,0
1,note_on,85,0,45
1,note_on,82,0,0
1,note_on,94,0,0
1,note_on,82,74,15
1,note_on,85,74,0
1,note_on,94,88,0
1,note_on,94,0,180
1,note_on,85,0,0
1,note_on,82,0,0
1,note_on,84,67,0
1,note_on,81,67,0
1,note_on,93,79,0
1,note_on,93,0,45
1,note_on,81,0,0
1,note_on,84,0,0
1,note_on,81,74,15
1,note_on,84,74,0
1,note_on,93,88,0
1,note_on,93,0,180
1,note_on,84,0,0
1,note_on,81,0,0
1,note_on,82,67,0
1,note_on,91,79,0
1,note_on,79,67,0
1,note_on,79,0,45
1,note_on,91,0,0
1,note_on,82,0,0
1,note_on,91,86,15
1,note_on,79,73,0
1,note_on,82,73,0
1,note_on,82,0,180
1,note_on,79,0,0
1,note_on,91,0,0
1,note_on,88,81,0
1,note_on,79,68,0
1,note_on,76,68,0
1,note_on,76,0,45
1,note_on,79,0,0
1,note_on,88,0,0
1,note_on,79,74,15
1,note_on,88,88,0
1,note_on,76,74,0
1,note_on,76,0,180
1,note_on,88,0,0
1,note_on,79,0,0
1,note_on,75,68,0
1,note_on,78,68,0
1,note_on,87,80,0
1,note_on,87,0,45
1,note_on,78,0,0
1,note_on,75,0,0
1,note_on,78,74,15
1,note_on,87,88,0
1,note_on,75,74,0
1,note_on,75,0,180
1,note_on,87,0,0
1,note_on,78,0,0
1,note_on,85,79,0
1,note_on,73,56,0
1,note_on,76,56,0
1,note_on,76,0,45
1,note_on,73,0,0
1,note_on,85,0,0
1,note_on,85,88,15
1,note_on,73,74,0
1,note_on,76,74,0
1,note_on,76,0,180
1,note_on,73,0,0
1,note_on,85,0,0
1,note_on,73,68,0
1,note_on,82,81,0
1,note_on,70,68,0
1,note_on,70,0,45
1,note_on,82,0,0
1,note_on,73,0,0
1,note_on,70,75,15
1,note_on,73,75,0
1,note_on,82,90,0
1,note_on,82,0,180
1,note_on,73,0,0
1,note_on,70,0,0
1,note_on,72,68,0
1,note_on,81,81,0
1,note_on,69,68,0
1,note_on,69,0,45
1,note_on,81,0,0
1,note_on,72,0,0
1,note_on,81,89,15
1,note_on,69,74,0
1,note_on,72,74,0
1,note_on,72,0,180
1,note_on,69,0,0
1,note_on,81,0,0
1,note_on,79,79,0
1,note_on,67,67,0
1,note_on,70,67,0
1,note_on,70,0,45
1,note_on,67,0,0
1,note_on,79,0,0
1,note_on,70,74,15
1,note_on,79,88,0
1,note_on,67,74,0
1,note_on,67,0,180
1,note_on,79,0,0
1,note_on,70,0,0
1,note_on,67,68,0
1,note_on,64,68,0
1,note_on,76,80,0
1,note_on,76,0,45
1,note_on,64,0,0
1,note_on,67,0,0
1,note_on,67,74,15
1,note_on,76,88,0
1,note_on,64,74,0
1,note_on,64,0,180
1,note_on,76,0,0
1,note_on,67,0,0
1,note_on,75,79,0
1,note_on,63,56,0
1,note_on,66,56,0
1,note_on,66,0,45
1,note_on,63,0,0
1,note_on,75,0,0
1,note_on,75,94,15
1,note_on,66,80,0
1,note_on,63,80,0
1,note_on,63,0,180
1,note_on,66,0,0
1,note_on,75,0,0
1,note_on,61,56,0
1,note_on,64,56,0
1,note_on,73,79,0
1,note_on,73,0,45
1,note_on,64,0,0
1,note_on,61,0,0
1,note_on,61,81,15
1,note_on,64,81,0
1,note_on,73,96,0
1,note_on,73,0,180
1,note_on,64,0,0
1,note_on,61,0,0
1,note_on,64,83,240
1,note_on,52,70,0
1,note_on,58,70,0
1,note_on,58,0,60
1,note_on,52,0,0
1,note_on,64,0,0
1,note_on,52,79,0
1,note_on,64,93,0
1,note_on,56,79,0
1,note_on,56,0,120
1,note_on,64,0,0
1,note_on,52,0,0
1,note_on,63,84,240
1,note_on,56,71,0
1,note_on,51,71,0
1,note_on,51,0,120
1,note_on,56,0,0
1,note_on,63,0,0
1,note_on,56,79,0
1,note_on,63,93,0
1,note_on,51,79,0
1,note_on,51,0,120
1,note_on,63,0,0
1,note_on,56,0,0
1,note_on,49,72,240
1,note_on,56,72,0
1,note_on,61,85,0
1,note_on,61,0,120
1,note_on,56,0,0
1,note_on,49,0,0
1,note_on,68,96,0
1,note_on,56,81,0
1,note_on,60,81,0
1,note_on,60,0,480
1,note_on,56,0,0
1,note_on,68,0,0
1,note_on,48,77,0
1,note_on,60,91,0
1,note_on,56,77,0
1,note_on,56,0,360
1,note_on,60,0,0
1,note_on,48,0,0
1,note_on,64,62,100
1,note_on,68,62,10
1,note_on,76,83,10
1,note_on,76,0,360
1,note_on,75,75,0
1,note_on,75,0,40
1,note_on,75,67,20
1,note_on,75,0,30
1,note_on,76,72,0
1,note_on,76,0,30
1,note_on,68,0,0
1,note_on,64,0,0
1,note_on,68,61,0
1,note_on,64,61,0
1,note_on,75,80,0
1,note_on,75,0,120
1,note_on,73,77,120
1,note_on,73,0,60
1,note_on,66,63,175
1,note_on,64,0,5
1,note_on,68,0,0
1,note_on,72,67,5
1,note_on,80,82,10
1,note_on,80,0,465
1,note_on,72,0,0
1,note_on,66,0,0
1,note_on,72,77,0
1,note_on,72,0,240
1,note_on,88,76,240
1,note_on,76,54,0
1,note_on,80,54,0
1,note_on,88,0,360
1,note_on,87,69,0
1,note_on,87,0,60
1,note_on,85,63,0
1,note_on,85,0,20
1,note_on,87,59,0
1,note_on,87,0,20
1,note_on,88,63,0
1,note_on,88,0,20
1,note_on,80,0,0
1,note_on,76,0,0
1,note_on,76,51,0
1,note_on,80,51,0
1,note_on,87,73,0
1,note_on,87,0,120
1,note_on,85,66,120
1,note_on,85,0,120
1,note_on,80,0,120
1,note_on,76,0,0
1,note_on,80,54,0
1,note_on,87,75,0
1,note_on,75,54,0
1,note_on,75,0,240
1,note_on,87,0,0
1,note_on,80,0,0
1,note_on,80,63,120
1,note_on,80,0,120
1,note_on,92,75,0
1,note_on,80,54,0
1,note_on,80,0,240
1,note_on,92,0,0
1,note_on,80,68,120
1,note_on,80,0,120
1,note_on,80,54,0
1,note_on,88,76,0
1,note_on,76,54,0
1,note_on,88,0,360
1,note_on,87,69,0
1,note_on,87,0,60
1,note_on,85,59,0
1,note_on,85,0,20
1,note_on,87,59,0
1,note_on,87,0,20
1,note_on,88,63,0
1,note_on,88,0,20
1,note_on,76,0,0
1,note_on,80,0,0
1,note_on,87,73,0
1,note_on,76,51,0
1,note_on,80,51,0
1,note_on,87,0,120
1,note_on,85,66,120
1,note_on,85,0,120
1,note_on,80,0,120
1,note_on,76,0,0
1,note_on,75,54,0
1,note_on,87,75,0
1,note_on,80,54,0
1,note_on,80,0,240
1,note_on,87,0,0
1,note_on,75,0,0
1,note_on,80,63,120
1,note_on,80,0,120
1,note_on,92,75,0
1,note_on,92,0,240
1,note_on,80,64,120
1,note_on,80,0,120
1,note_on,87,68,0
1,note_on,87,0,120
1,note_on,80,61,0
1,note_on,80,0,120
1,note_on,92,66,0
1,note_on,92,0,120
1,note_on,80,60,0
1,note_on,80,0,120
1,note_on,87,65,0
1,note_on,87,0,120
1,note_on,80,57,0
1,note_on,80,0,120
1,note_on,92,63,0
1,note_on,92,0,120
1,note_on,80,57,0
1,note_on,80,0,120
1,note_on,87,62,0
1,note_on,87,0,80
1,note_on,80,57,0
1,note_on,80,0,80
1,note_on,92,61,0
1,note_on,92,0,80
1,note_on,80,56,0
1,note_on,87,59,80
1,note_on,80,0,1
1,note_on,87,0,79
1,note_on,80,53,0
1,note_on,80,0,80
1,note_on,92,58,0
1,note_on,92,0,80
1,note_on,80,50,0
1,note_on,80,0,80
1,note_on,87,57,0
1,note_on,87,0,80
1,note_on,80,48,0
1,note_on,80,0,80
1,note_on,92,59,0
1,note_on,92,0,80
1,note_on,80,50,0
1,note_on,80,0,80
1,note_on,87,57,0
1,note_on,87,0,60
1,note_on,80,51,0
1,note_on,80,0,60
1,note_on,92,57,0
1,note_on,92,0,60
1,note_on,80,51,0
1,note_on,80,0,60
1,note_on,87,55,0
1,note_on,87,0,60
1,note_on,80,51,0
1,note_on,80,0,60
1,note_on,92,54,0
1,note_on,92,0,60
1,note_on,80,49,0
1,note_on,80,0,60
1,note_on,87,53,0
1,note_on,87,0,60
1,note_on,80,47,0
1,note_on,80,0,60
1,note_on,92,52,0
1,note_on,92,0,60
1,note_on,80,47,0
1,note_on,80,0,60
1,note_on,87,51,0
1,note_on,87,0,60
1,note_on,80,47,0
1,note_on,80,0,60
1,note_on,92,50,0
1,note_on,92,0,60
1,note_on,80,45,0
1,note_on,80,0,60
1,note_on,87,48,0
1,note_on,87,0,60
1,note_on,80,43,0
1,note_on,80,0,60
1,note_on,92,47,0
1,note_on,92,0,60
1,note_on,80,43,0
1,note_on,80,0,60
1,note_on,87,46,0
1,note_on,87,0,60
1,note_on,80,42,0
1,note_on,80,0,60
1,note_on,92,45,0
1,note_on,92,0,60
1,note_on,80,40,0
1,note_on,80,0,60
1,note_on,87,44,0
1,note_on,87,0,60
1,note_on,80,39,0
1,note_on,80,0,60
1,note_on,92,43,0
1,note_on,92,0,60
1,note_on,80,39,0
1,note_on,80,0,60
1,note_on,87,42,0
1,note_on,87,0,60
1,note_on,80,38,0
1,note_on,80,0,60
1,note_on,92,40,0
1,note_on,92,0,60
1,note_on,80,35,0
1,note_on,80,0,60
1,note_on,89,58,1920
1,note_on,89,0,360
1,note_on,87,53,0
1,note_on,87,0,120
1,note_on,90,57,0
1,note_on,90,0,360
1,note_on,84,52,0
1,note_on,84,0,120
1,note_on,87,59,0
1,note_on,87,0,240
1,note_on,85,52,0
1,note_on,85,0,240
1,note_on,91,49,360
1,note_on,92,52,40
1,note_on,91,0,20
1,note_on,92,0,20
1,note_on,93,54,0
1,note_on,93,0,40
1,note_on,92,60,480
1,note_on,92,0,480
1,note_on,90,56,0
1,note_on,90,0,120
1,note_on,90,60,120
1,note_on,90,0,480
1,note_on,93,54,60
1,note_on,93,0,45
1,note_on,94,56,0
1,note_on,94,0,45
1,note_on,95,58,0
1,note_on,95,0,45
1,note_on,96,60,0
1,note_on,96,0,45
1,note_on,96,64,480
1,note_on,96,0,360
1,note_on,94,55,0
1,note_on,94,0,120
1,note_on,92,65,0
1,note_on,92,0,480
1,note_on,96,45,240
1,note_on,96,0,80
1,note_on,97,48,0
1,note_on,97,0,80
1,note_on,98,51,0
1,note_on,98,0,80
1,note_on,101,54,0
1,note_on,101,0,52
1,note_on,99,48,0
1,note_on,99,0,51
1,note_on,97,47,0
1,note_on,97,0,52
1,note_on,96,46,0
1,note_on,96,0,52
1,note_on,94,45,0
1,note_on,94,0,51
1,note_on,92,45,0
1,note_on,92,0,52
1,note_on,90,44,0
1,note_on,90,0,51
1,note_on,89,43,0
1,note_on,89,0,52
1,note_on,87,42,0
1,note_on,87,0,52
1,note_on,85,42,0
1,note_on,85,0,51
1,note_on,84,41,0
1,note_on,84,0,52
1,note_on,82,40,0
1,note_on,82,0,51
1,note_on,80,39,0
1,note_on,80,0,52
1,note_on,78,39,0
1,note_on,78,0,52
1,note_on,77,38,0
1,note_on,77,0,51
1,note_on,75,37,0
1,note_on,75,0,52
1,note_on,73,36,0
1,note_on,73,0,51
1,note_on,72,36,0
1,note_on,72,0,52
1,note_on,70,35,0
1,note_on,70,0,52
1,note_on,68,34,0
1,note_on,68,0,51
1,note_on,66,33,0
1,note_on,66,0,52
1,note_on,65,33,0
1,note_on,65,0,51
1,note_on,63,32,0
1,note_on,63,0,52
1,note_on,61,31,0
1,note_on,61,0,52
1,note_on,60,30,0
1,note_on,60,0,51
1,note_on,68,42,1110
1,note_on,68,0,60
1,note_on,73,44,0
1,note_on,73,0,60
1,note_on,77,46,0
1,note_on,77,0,60
1,note_on,80,48,0
1,note_on,80,0,60
1,note_on,85,48,0
1,note_on,89,50,30
1,note_on,92,52,30
1,note_on,97,54,30
1,note_on,97,0,150
1,note_on,85,0,0
1,note_on,89,0,0
1,note_on,92,0,0
1,note_on,68,50,840
1,note_on,68,0,120
1,note_on,77,58,0
1,note_on,65,40,240
1,note_on,68,40,0
1,note_on,68,0,60
1,note_on,65,0,0
1,note_on,77,0,60
1,note_on,75,53,0
1,note_on,75,0,120
1,note_on,78,57,0
1,note_on,66,40,240
1,note_on,68,40,0
1,note_on,68,0,60
1,note_on,66,0,0
1,note_on,78,0,0
1,note_on,72,52,60
1,note_on,72,0,60
1,note_on,75,59,0
1,note_on,75,0,60
1,note_on,73,59,0
1,note_on,73,0,60
1,note_on,65,40,180
1,note_on,68,40,0
1,note_on,73,52,0
1,note_on,68,0,60
1,note_on,65,0,0
1,note_on,73,0,420
1,note_on,65,40,0
1,note_on,68,40,0
1,note_on,73,50,0
1,note_on,68,0,60
1,note_on,65,0,0
1,note_on,73,0,180
1,note_on,82,59,0
1,note_on,82,0,60
1,note_on,70,40,180
1,note_on,82,55,0
1,note_on,66,40,0
1,note_on,66,0,60
1,note_on,70,0,0
1,note_on,82,0,60
1,note_on,80,60,120
1,note_on,70,40,240
1,note_on,68,40,0
1,note_on,68,0,60
1,note_on,70,0,0
1,note_on,80,0,180
1,note_on,78,56,0
1,note_on,78,0,60
1,note_on,70,40,180
1,note_on,66,40,0
1,note_on,78,60,0
1,note_on,66,0,60
1,note_on,70,0,0
1,note_on,78,0,420
1,note_on,66,40,0
1,note_on,70,40,0
1,note_on,78,53,0
1,note_on,70,0,60
1,note_on,66,0,0
1,note_on,78,0,180
1,note_on,85,61,0
1,note_on,85,0,120
1,note_on,85,60,120
1,note_on,73,40,0
1,note_on,82,60,0
1,note_on,82,0,240
1,note_on,73,0,0
1,note_on,85,0,0
1,note_on,80,64,0
1,note_on,84,64,0
1,note_on,72,40,0
1,note_on,72,0,360
1,note_on,84,0,0
1,note_on,80,0,0
1,note_on,82,55,0
1,note_on,70,40,0
1,note_on,78,55,0
1,note_on,78,0,60
1,note_on,70,0,0
1,note_on,82,0,0
1,note_on,78,52,0
1,note_on,82,52,0
1,note_on,82,0,60
1,note_on,78,0,0
1,note_on,77,65,0
1,note_on,80,65,0
1,note_on,80,0,60
1,note_on,77,0,0
1,note_on,80,56,180
1,note_on,68,56,0
1,note_on,77,56,0
1,note_on,77,0,480
1,note_on,68,0,0
1,note_on,80,0,0
1,note_on,81,50,120
1,note_on,77,50,0
1,note_on,77,0,120
1,note_on,81,0,0
1,note_on,78,56,0
1,note_on,82,56,0
1,note_on,82,0,60
1,note_on,78,0,0
1,note_on,82,56,180
1,note_on,78,56,0
1,note_on,78,0,480
1,note_on,82,0,0
1,note_on,66,40,0
1,note_on,72,51,0
1,note_on,72,0,240
1,note_on,66,0,0
1,note_on,73,54,0
1,note_on,65,43,0
1,note_on,65,0,60
1,note_on,73,0,0
1,note_on,73,56,180
1,note_on,65,44,0
1,note_on,65,0,480
1,note_on,73,0,0
1,note_on,80,55,120
1,note_on,68,42,0
1,note_on,68,0,120
1,note_on,80,0,0
1,note_on,77,49,0
1,note_on,89,63,0
1,note_on,89,0,360
1,note_on,77,0,0
1,note_on,87,58,0
1,note_on,75,45,0
1,note_on,75,0,120
1,note_on,87,0,0
1,note_on,78,48,0
1,note_on,90,62,0
1,note_on,90,0,360
1,note_on,78,0,0
1,note_on,72,44,0
1,note_on,84,57,0
1,note_on,84,0,120
1,note_on,72,0,0
1,note_on,87,64,0
1,note_on,75,50,0
1,note_on,75,0,60
1,note_on,87,0,0
1,note_on,73,44,180
1,note_on,85,57,0
1,note_on,85,0,480
1,note_on,73,0,0
1,note_on,73,42,0
1,note_on,85,55,0
1,note_on,85,0,240
1,note_on,73,0,0
1,note_on,82,55,0
1,note_on,94,64,0
1,note_on,94,0,60
1,note_on,82,0,0
1,note_on,82,50,180
1,note_on,94,60,0
1,note_on,94,0,120
1,note_on,82,0,0
1,note_on,92,66,120
1,note_on,80,51,0
1,note_on,80,0,480
1,note_on,92,0,0
1,note_on,78,47,0
1,note_on,90,61,0
1,note_on,90,0,60
1,note_on,78,0,0
1,note_on,90,66,180
1,note_on,82,60,0
1,note_on,78,51,0
1,note_on,78,0,480
1,note_on,82,0,0
1,note_on,90,0,0
1,note_on,87,45,0
1,note_on,78,45,0
1,note_on,90,58,0
1,note_on,90,0,240
1,note_on,78,0,0
1,note_on,87,0,0
1,note_on,97,67,0
1,note_on,94,61,0
1,note_on,85,61,0
1,note_on,85,0,240
1,note_on,94,0,0
1,note_on,97,0,0
1,note_on,94,60,0
1,note_on,97,66,0
1,note_on,85,40,0
1,note_on,85,0,240
1,note_on,97,0,0
1,note_on,94,0,0
1,note_on,84,40,0
1,note_on,92,64,0
1,note_on,96,70,0
1,note_on,96,0,360
1,note_on,92,0,0
1,note_on,84,0,0
1,note_on,94,60,0
1,note_on,82,40,0
1,note_on,90,55,0
1,note_on,90,0,60
1,note_on,82,0,0
1,note_on,94,0,0
1,note_on,89,65,60
1,note_on,80,55,0
1,note_on,92,71,0
1,note_on,92,0,60
1,note_on,80,0,0
1,note_on,89,0,0
1,note_on,92,61,180
1,note_on,89,56,0
1,note_on,80,47,0
1,note_on,80,0,480
1,note_on,89,0,0
1,note_on,92,0,0
1,note_on,81,42,120
1,note_on,93,55,0
1,note_on,93,0,120
1,note_on,81,0,0
1,note_on,82,47,0
1,note_on,94,61,0
1,note_on,94,0,60
1,note_on,82,0,0
1,note_on,72,51,420
1,note_on,66,40,0
1,note_on,60,40,0
1,note_on,60,0,480
1,note_on,66,0,0
1,note_on,72,0,0
1,note_on,65,43,0
1,note_on,61,43,0
1,note_on,73,54,0
1,note_on,73,0,60
1,note_on,61,0,0
1,note_on,65,0,0
1,note_on,65,44,180
1,note_on,61,44,0
1,note_on,73,56,0
1,note_on,73,0,360
1,note_on,61,0,0
1,note_on,65,0,0
1,note_on,89,40,0
1,note_on,85,40,0
1,note_on,85,0,120
1,note_on,89,0,0
1,note_on,90,45,0
1,note_on,87,45,0
1,note_on,87,0,120
1,note_on,90,0,0
1,note_on,88,51,0
1,note_on,91,51,0
1,note_on,91,0,120
1,note_on,88,0,0
1,note_on,94,57,0
1,note_on,90,57,0
1,note_on,90,0,120
1,note_on,94,0,0
1,note_on,89,47,0
1,note_on,92,47,0
1,note_on,92,0,108
1,note_on,89,0,0
1,note_on,92,47,12
1,note_on,89,47,0
1,note_on,89,0,120
1,note_on,92,0,0
1,note_on,91,47,0
1,note_on,88,47,0
1,note_on,88,0,108
1,note_on,91,0,0
1,note_on,90,53,12
1,note_on,94,53,0
1,note_on,94,0,120
1,note_on,90,0,0
1,note_on,89,46,0
1,note_on,92,46,0
1,note_on,92,0,108
1,note_on,89,0,0
1,note_on,92,47,12
1,note_on,89,47,0
1,note_on,89,0,120
1,note_on,92,0,0
1,note_on,91,49,0
1,note_on,88,49,0
1,note_on,88,0,108
1,note_on,91,0,0
1,note_on,90,58,12
1,note_on,94,58,0
1,note_on,94,0,120
1,note_on,90,0,0
1,note_on,92,50,0
1,note_on,89,50,0
1,note_on,89,0,108
1,note_on,92,0,0
1,note_on,92,50,12
1,note_on,89,50,0
1,note_on,89,0,120
1,note_on,92,0,0
1,note_on,91,50,0
1,note_on,88,50,0
1,note_on,88,0,108
1,note_on,91,0,0
1,note_on,90,60,12
1,note_on,94,60,0
1,note_on,94,0,120
1,note_on,90,0,0
1,note_on,89,53,0
1,note_on,92,53,0
1,note_on,92,0,108
1,note_on,89,0,0
1,note_on,89,54,12
1,note_on,92,54,0
1,note_on,92,0,120
1,note_on,89,0,0
1,note_on,91,56,0
1,note_on,88,56,0
1,note_on,88,0,108
1,note_on,91,0,0
1,note_on,90,65,12
1,note_on,94,65,0
1,note_on,94,0,120
1,note_on,90,0,0
1,note_on,92,57,0
1,note_on,89,57,0
1,note_on,89,0,108
1,note_on,92,0,0
1,note_on,92,57,12
1,note_on,89,57,0
1,note_on,89,0,120
1,note_on,92,0,0
1,note_on,88,57,0
1,note_on,91,57,0
1,note_on,91,0,108
1,note_on,88,0,0
1,note_on,90,66,12
1,note_on,94,66,0
1,note_on,94,0,120
1,note_on,90,0,0
1,note_on,89,60,0
1,note_on,92,60,0
1,note_on,92,0,108
1,note_on,89,0,0
1,note_on,89,60,12
1,note_on,92,60,0
1,note_on,92,0,120
1,note_on,89,0,0
1,note_on,88,60,0
1,note_on,91,60,0
1,note_on,91,0,108
1,note_on,88,0,0
1,note_on,90,74,12
1,note_on,94,74,0
1,note_on,94,0,120
1,note_on,90,0,0
1,note_on,92,68,0
1,note_on,89,68,0
1,note_on,89,0,108
1,note_on,92,0,0
1,note_on,89,57,12
1,note_on,92,71,0
1,note_on,92,0,120
1,note_on,101,75,0
1,note_on,101,0,108
1,note_on,89,0,12
1,note_on,101,82,0
1,note_on,89,60,0
1,note_on,101,0,120
1,note_on,100,79,0
1,note_on,100,0,108
1,note_on,89,0,12
1,note_on,89,57,0
1,note_on,100,82,0
1,note_on,100,0,120
1,note_on,99,75,0
1,note_on,99,0,113
1,note_on,89,0,7
1,note_on,99,81,0
1,note_on,89,60,0
1,note_on,99,0,120
1,note_on,98,77,0
1,note_on,98,0,108
1,note_on,89,0,12
1,note_on,98,81,0
1,note_on,89,57,0
1,note_on,98,0,120
1,note_on,97,75,0
1,note_on,97,0,108
1,note_on,89,0,12
1,note_on,97,78,0
1,note_on,89,57,0
1,note_on,97,0,120
1,note_on,96,69,0
1,note_on,96,0,108
1,note_on,89,0,12
1,note_on,89,55,0
1,note_on,96,77,0
1,note_on,96,0,120
1,note_on,95,69,0
1,note_on,95,0,60
1,note_on,97,58,0
1,note_on,97,0,60
1,note_on,89,0,0
1,note_on,96,72,0
1,note_on,89,72,0
1,note_on,96,0,120
1,note_on,94,68,0
1,note_on,94,0,60
1,note_on,96,57,0
1,note_on,96,0,60
1,note_on,89,0,0
1,note_on,89,70,0
1,note_on,94,70,0
1,note_on,94,0,120
1,note_on,93,68,0
1,note_on,93,0,60
1,note_on,97,58,0
1,note_on,97,0,60
1,note_on,89,0,0
1,note_on,96,68,0
1,note_on,89,68,0
1,note_on,96,0,120
1,note_on,94,68,0
1,note_on,94,0,60
1,note_on,96,57,0
1,note_on,96,0,60
1,note_on,89,0,0
1,note_on,89,66,0
1,note_on,94,66,0
1,note_on,94,0,120
1,note_on,93,59,0
1,note_on,93,0,60
1,note_on,97,53,0
1,note_on,97,0,60
1,note_on,89,0,0
1,note_on,96,66,0
1,note_on,89,66,0
1,note_on,96,0,120
1,note_on,94,62,0
1,note_on,94,0,60
1,note_on,96,52,0
1,note_on,96,0,60
1,note_on,89,0,0
1,note_on,94,64,0
1,note_on,89,64,0
1,note_on,94,0,120
1,note_on,93,63,0
1,note_on,93,0,60
1,note_on,97,52,0
1,note_on,97,0,60
1,note_on,89,0,0
1,note_on,96,62,0
1,note_on,89,62,0
1,note_on,96,0,120
1,note_on,94,62,0
1,note_on,94,0,60
1,note_on,96,51,0
1,note_on,96,0,60
1,note_on,89,0,0
1,note_on,89,61,0
1,note_on,94,61,0
1,note_on,94,0,120
1,note_on,93,54,0
1,note_on,93,0,120
1,note_on,89,0,0
1,note_on,89,62,0
1,note_on,89,0,120
1,note_on,96,56,2760
1,note_on,96,0,720
1,note_on,94,55,0
1,note_on,94,0,240
1,note_on,92,61,0
1,note_on,92,0,240
1,note_on,92,56,240
1,note_on,92,0,480
1,note_on,101,50,960
1,note_on,101,0,42
1,note_on,100,50,0
1,note_on,99,50,42
1,note_on,100,0,0
1,note_on,99,0,42
1,note_on,98,49,0
1,note_on,98,0,42
1,note_on,97,49,0
1,note_on,96,49,41
1,note_on,97,0,1
1,note_on,96,0,41
1,note_on,95,49,0
1,note_on,94,48,42
1,note_on,95,0,0
1,note_on,94,0,42
1,note_on,93,48,0
1,note_on,93,0,42
1,note_on,92,48,0
1,note_on,91,47,41
1,note_on,92,0,1
1,note_on,91,0,41
1,note_on,90,47,0
1,note_on,90,0,42
1,note_on,89,47,0
1,note_on,88,46,42
1,note_on,89,0,0
1,note_on,88,0,42
1,note_on,87,46,0
1,note_on,86,46,41
1,note_on,87,0,1
1,note_on,86,0,41
1,note_on,85,46,0
1,note_on,85,0,42
1,note_on,84,45,0
1,note_on,83,45,42
1,note_on,84,0,0
1,note_on,83,0,42
1,note_on,82,45,0
1,note_on,82,0,42
1,note_on,81,44,0
1,note_on,80,44,41
1,note_on,81,0,1
1,note_on,80,0,41
1,note_on,79,44,0
1,note_on,79,0,40
1,note_on,78,41,0
1,note_on,78,0,42
1,note_on,77,41,0
1,note_on,77,0,42
1,note_on,76,40,0
1,note_on,76,0,42
1,note_on,75,40,0
1,note_on,75,0,42
1,note_on,74,39,0
1,note_on,74,0,42
1,note_on,73,39,0
1,note_on,73,0,42
1,note_on,72,38,0
1,note_on,72,0,42
1,note_on,71,37,0
1,note_on,71,0,42
1,note_on,70,37,0
1,note_on,70,0,42
1,note_on,69,36,0
1,note_on,69,0,42
1,note_on,68,36,0
1,note_on,68,0,42
1,note_on,67,35,0
1,note_on,67,0,42
1,note_on,66,35,0
1,note_on,66,0,42
1,note_on,65,34,0
1,note_on,65,0,42
1,note_on,64,33,0
1,note_on,64,0,42
1,note_on,63,33,0
1,note_on,63,0,42
1,note_on,62,32,0
1,note_on,62,0,42
1,note_on,61,32,0
1,note_on,61,0,42
1,note_on,60,31,0
1,note_on,60,0,42
1,note_on,59,31,0
1,note_on,59,0,42
1,note_on,58,30,0
1,note_on,58,0,42
1,note_on,57,30,0
1,note_on,57,0,42
1,note_on,56,29,0
1,note_on,56,0,36
1,note_on,61,37,180
1,note_on,61,0,60
1,note_on,65,39,0
1,note_on,65,0,60
1,note_on,68,41,0
1,note_on,68,0,60
1,note_on,73,43,0
1,note_on,73,0,60
1,note_on,77,44,0
1,note_on,77,0,60
1,note_on,80,46,0
1,note_on,80,0,60
1,note_on,85,48,0
1,note_on,85,0,60
1,note_on,89,49,0
1,note_on,89,0,60
1,note_on,92,51,0
1,note_on,92,0,60
1,note_on,97,53,0
1,note_on,97,0,120
1,note_on,77,36,720
1,note_on,73,36,0
1,note_on,73,0,120
1,note_on,77,0,0
1,note_on,75,40,0
1,note_on,78,40,0
1,note_on,78,0,120
1,note_on,75,0,0
1,note_on,76,45,0
1,note_on,79,45,0
1,note_on,79,0,120
1,note_on,76,0,0
1,note_on,82,51,0
1,note_on,78,51,0
1,note_on,78,0,120
1,note_on,82,0,0
1,note_on,80,42,0
1,note_on,77,42,0
1,note_on,77,0,108
1,note_on,80,0,0
1,note_on,80,42,12
1,note_on,77,42,0
1,note_on,77,0,120
1,note_on,80,0,0
1,note_on,79,42,0
1,note_on,76,42,0
1,note_on,76,0,108
1,note_on,79,0,0
1,note_on,82,47,12
1,note_on,78,47,0
1,note_on,78,0,120
1,note_on,82,0,0
1,note_on,80,41,0
1,note_on,77,41,0
1,note_on,77,0,108
1,note_on,80,0,0
1,note_on,77,42,12
1,note_on,80,42,0
1,note_on,80,0,120
1,note_on,77,0,0
1,note_on,79,44,0
1,note_on,76,44,0
1,note_on,76,0,108
1,note_on,79,0,0
1,note_on,82,52,12
1,note_on,78,52,0
1,note_on,78,0,120
1,note_on,82,0,0
1,note_on,80,45,0
1,note_on,77,45,0
1,note_on,77,0,108
1,note_on,80,0,0
1,note_on,80,45,12
1,note_on,77,45,0
1,note_on,77,0,120
1,note_on,80,0,0
1,note_on,79,45,0
1,note_on,76,45,0
1,note_on,76,0,108
1,note_on,79,0,0
1,note_on,82,54,12
1,note_on,78,54,0
1,note_on,78,0,120
1,note_on,82,0,0
1,note_on,80,47,0
1,note_on,77,47,0
1,note_on,77,0,108
1,note_on,80,0,0
1,note_on,77,48,12
1,note_on,80,48,0
1,note_on,80,0,120
1,note_on,77,0,0
1,note_on,79,50,0
1,note_on,76,50,0
1,note_on,76,0,108
1,note_on,79,0,0
1,note_on,82,58,12
1,note_on,78,58,0
1,note_on,78,0,120
1,note_on,82,0,0
1,note_on,80,51,0
1,note_on,77,51,0
1,note_on,77,0,108
1,note_on,80,0,0
1,note_on,80,51,12
1,note_on,77,51,0
1,note_on,77,0,120
1,note_on,80,0,0
1,note_on,79,51,0
1,note_on,76,51,0
1,note_on,76,0,108
1,note_on,79,0,0
1,note_on,82,59,12
1,note_on,78,59,0
1,note_on,78,0,120
1,note_on,82,0,0
1,note_on,80,54,0
1,note_on,77,54,0
1,note_on,77,0,108
1,note_on,80,0,0
1,note_on,77,54,12
1,note_on,80,54,0
1,note_on,80,0,120
1,note_on,77,0,0
1,note_on,79,54,0
1,note_on,76,54,0
1,note_on,76,0,108
1,note_on,79,0,0
1,note_on,78,66,12
1,note_on,82,66,0
1,note_on,82,0,120
1,note_on,78,0,0
1,note_on,77,61,0
1,note_on,80,61,0
1,note_on,80,0,108
1,note_on,77,0,0
1,note_on,80,63,12
1,note_on,77,51,0
1,note_on,80,0,120
1,note_on,89,67,0
1,note_on,89,0,108
1,note_on,77,0,12
1,note_on,89,73,0
1,note_on,77,54,0
1,note_on,89,0,120
1,note_on,88,71,0
1,note_on,88,0,108
1,note_on,77,0,12
1,note_on,88,73,0
1,note_on,77,51,0
1,note_on,88,0,120
1,note_on,87,67,0
1,note_on,87,0,113
1,note_on,77,0,7
1,note_on,87,72,0
1,note_on,77,54,0
1,note_on,87,0,120
1,note_on,86,69,0
1,note_on,86,0,108
1,note_on,77,0,12
1,note_on,86,72,0
1,note_on,77,51,0
1,note_on,86,0,120
1,note_on,85,67,0
1,note_on,85,0,108
1,note_on,77,0,12
1,note_on,85,70,0
1,note_on,77,51,0
1,note_on,85,0,120
1,note_on,84,62,0
1,note_on,84,0,108
1,note_on,77,0,12
1,note_on,84,69,0
1,note_on,77,49,0
1,note_on,84,0,120
1,note_on,83,62,0
1,note_on,83,0,60
1,note_on,85,52,0
1,note_on,85,0,60
1,note_on,77,0,0
1,note_on,84,64,0
1,note_on,77,64,0
1,note_on,84,0,120
1,note_on,82,61,0
1,note_on,82,0,60
1,note_on,84,51,0
1,note_on,84,0,60
1,note_on,77,0,0
1,note_on,82,63,0
1,note_on,77,63,0
1,note_on,82,0,120
1,note_on,81,61,0
1,note_on,81,0,60
1,note_on,85,52,0
1,note_on,85,0,60
1,note_on,77,0,0
1,note_on,84,61,0
1,note_on,77,61,0
1,note_on,84,0,120
1,note_on,82,61,0
1,note_on,82,0,60
1,note_on,84,51,0
1,note_on,84,0,60
1,note_on,77,0,0
1,note_on,82,59,0
1,note_on,77,59,0
1,note_on,82,0,120
1,note_on,81,53,0
1,note_on,81,0,60
1,note_on,85,47,0
1,note_on,85,0,60
1,note_on,77,0,0
1,note_on,84,59,0
1,note_on,77,59,0
1,note_on,84,0,120
1,note_on,82,55,0
1,note_on,82,0,60
1,note_on,84,46,0
1,note_on,84,0,60
1,note_on,77,0,0
1,note_on,82,57,0
1,note_on,77,57,0
1,note_on,82,0,120
1,note_on,81,56,0
1,note_on,81,0,60
1,note_on,85,46,0
1,note_on,85,0,60
1,note_on,77,0,0
1,note_on,84,55,0
1,note_on,77,55,0
1,note_on,84,0,120
1,note_on,82,55,0
1,note_on,82,0,60
1,note_on,84,45,0
1,note_on,84,0,60
1,note_on,77,0,0
1,note_on,82,54,0
1,note_on,77,54,0
1,note_on,82,0,120
1,note_on,81,48,0
1,note_on,81,0,120
1,note_on,77,0,0
1,note_on,77,55,0
1,note_on,77,0,960
1,note_on,81,42,0
1,note_on,81,0,80
1,note_on,82,43,0
1,note_on,82,0,80
1,note_on,83,44,0
1,note_on,83,0,60
1,note_on,84,45,20
1,note_on,84,0,80
1,note_on,85,46,0
1,note_on,85,0,80
1,note_on,86,47,0
1,note_on,86,0,80
1,note_on,87,48,0
1,note_on,87,0,80
1,note_on,88,49,0
1,note_on,88,0,80
1,note_on,89,50,0
1,note_on,89,0,80
1,note_on,90,51,0
1,note_on,90,0,80
1,note_on,91,52,0
1,note_on,91,0,80
1,note_on,92,53,0
1,note_on,92,0,80
1,note_on,93,54,0
1,note_on,93,0,80
1,note_on,94,55,0
1,note_on,94,0,80
1,note_on,95,56,0
1,note_on,95,0,80
1,note_on,96,57,0
1,note_on,96,0,80
1,note_on,97,58,0
1,note_on,97,0,80
1,note_on,99,59,0
1,note_on,99,0,80
1,note_on,97,63,0
1,note_on,97,0,48
1,note_on,99,45,0
1,note_on,99,0,48
1,note_on,97,45,0
1,note_on,97,0,48
1,note_on,96,45,0
1,note_on,96,0,48
1,note_on,97,45,0
1,note_on,97,0,48
1,note_on,99,51,0
1,note_on,99,0,60
1,note_on,97,46,0
1,note_on,97,0,60
1,note_on,94,46,0
1,note_on,94,0,60
1,note_on,92,46,0
1,note_on,92,0,60
1,note_on,97,51,0
1,note_on,97,0,60
1,note_on,94,46,0
1,note_on,94,0,60
1,note_on,92,46,0
1,note_on,92,0,60
1,note_on,90,46,0
1,note_on,90,0,60
1,note_on,94,51,0
1,note_on,94,0,60
1,note_on,92,46,0
1,note_on,92,0,60
1,note_on,90,46,0
1,note_on,90,0,60
1,note_on,87,46,0
1,note_on,87,0,60
1,note_on,92,51,0
1,note_on,92,0,60
1,note_on,90,45,0
1,note_on,90,0,60
1,note_on,87,45,0
1,note_on,87,0,60
1,note_on,85,45,0
1,note_on,85,0,60
1,note_on,90,51,0
1,note_on,90,0,60
1,note_on,87,45,0
1,note_on,87,0,60
1,note_on,85,45,0
1,note_on,85,0,60
1,note_on,82,45,0
1,note_on,82,0,60
1,note_on,87,51,0
1,note_on,87,0,60
1,note_on,85,45,0
1,note_on,85,0,60
1,note_on,82,45,0
1,note_on,82,0,60
1,note_on,80,45,0
1,note_on,80,0,60
1,note_on,85,51,0
1,note_on,85,0,60
1,note_on,82,47,0
1,note_on,82,0,60
1,note_on,80,47,0
1,note_on,80,0,60
1,note_on,78,47,0
1,note_on,78,0,60
1,note_on,82,51,0
1,note_on,82,0,52
1,note_on,80,46,0
1,note_on,80,0,52
1,note_on,78,46,1
1,note_on,78,0,52
1,note_on,75,46,0
1,note_on,75,0,52
1,note_on,80,51,0
1,note_on,80,0,52
1,note_on,78,45,0
1,note_on,78,0,52
1,note_on,75,45,0
1,note_on,75,0,52
1,note_on,73,45,1
1,note_on,73,0,52
1,note_on,78,51,0
1,note_on,78,0,52
1,note_on,75,45,0
1,note_on,75,0,52
1,note_on,73,45,0
1,note_on,73,0,52
1,note_on,70,45,0
1,note_on,70,0,52
1,note_on,75,51,1
1,note_on,75,0,52
1,note_on,73,47,0
1,note_on,73,0,52
1,note_on,70,47,0
1,note_on,70,0,52
1,note_on,68,47,0
1,note_on,68,0,52
1,note_on,70,63,65
1,note_on,58,54,0
1,note_on,61,54,0
1,note_on,61,0,60
1,note_on,58,0,0
1,note_on,70,0,0
1,note_on,68,71,0
1,note_on,56,60,0
1,note_on,61,60,0
1,note_on,61,0,120
1,note_on,56,0,0
1,note_on,68,0,0
1,note_on,92,51,360
1,note_on,92,0,48
1,note_on,94,46,0
1,note_on,94,0,48
1,note_on,92,45,0
1,note_on,92,0,48
1,note_on,91,45,0
1,note_on,91,0,48
1,note_on,92,45,0
1,note_on,92,0,48
1,note_on,101,51,0
1,note_on,101,0,60
1,note_on,99,47,0
1,note_on,99,0,60
1,note_on,97,47,0
1,note_on,97,0,60
1,note_on,94,47,0
1,note_on,94,0,60
1,note_on,99,51,0
1,note_on,99,0,60
1,note_on,97,46,0
1,note_on,97,0,60
1,note_on,94,46,0
1,note_on,94,0,60
1,note_on,92,46,0
1,note_on,92,0,60
1,note_on,97,51,0
1,note_on,97,0,60
1,note_on,94,46,0
1,note_on,94,0,60
1,note_on,92,46,0
1,note_on,92,0,60
1,note_on,89,46,0
1,note_on,89,0,60
1,note_on,94,51,0
1,note_on,94,0,60
1,note_on,92,46,0
1,note_on,92,0,60
1,note_on,89,46,0
1,note_on,89,0,60
1,note_on,87,46,0
1,note_on,87,0,60
1,note_on,92,51,0
1,note_on,92,0,60
1,note_on,89,45,0
1,note_on,89,0,60
1,note_on,87,45,0
1,note_on,87,0,60
1,note_on,85,45,0
1,note_on,85,0,60
1,note_on,89,51,0
1,note_on,89,0,60
1,note_on,87,45,0
1,note_on,87,0,60
1,note_on,85,45,0
1,note_on,85,0,60
1,note_on,82,45,0
1,note_on,82,0,60
1,note_on,87,51,0
1,note_on,87,0,60
1,note_on,85,45,0
1,note_on,85,0,60
1,note_on,82,45,0
1,note_on,82,0,60
1,note_on,80,45,0
1,note_on,80,0,60
1,note_on,85,51,0
1,note_on,85,0,60
1,note_on,82,47,0
1,note_on,82,0,60
1,note_on,80,47,0
1,note_on,80,0,60
1,note_on,77,47,0
1,note_on,77,0,60
1,note_on,82,51,0
1,note_on,82,0,60
1,note_on,80,44,0
1,note_on,80,0,60
1,note_on,77,44,0
1,note_on,77,0,60
1,note_on,75,44,0
1,note_on,75,0,60
1,note_on,80,47,0
1,note_on,80,0,60
1,note_on,77,40,0
1,note_on,77,0,60
1,note_on,75,40,0
1,note_on,75,0,60
1,note_on,73,40,0
1,note_on,73,0,60
1,note_on,77,43,0
1,note_on,77,0,60
1,note_on,75,37,0
1,note_on,75,0,60
1,note_on,73,37,0
1,note_on,73,0,60
1,note_on,70,37,0
1,note_on,70,0,60
1,note_on,75,43,0
1,note_on,75,0,52
1,note_on,73,35,0
1,note_on,73,0,52
1,note_on,70,35,1
1,note_on,70,0,52
1,note_on,68,35,0
1,note_on,68,0,52
1,note_on,73,42,0
1,note_on,73,0,52
1,note_on,70,36,0
1,note_on,70,0,52
1,note_on,68,36,0
1,note_on,68,0,52
1,note_on,65,36,1
1,note_on,65,0,52
1,note_on,70,42,0
1,note_on,70,0,52
1,note_on,68,37,0
1,note_on,68,0,52
1,note_on,65,37,0
1,note_on,65,0,52
1,note_on,63,37,0
1,note_on,63,0,52
1,note_on,68,42,1
1,note_on,68,0,52
1,note_on,65,38,0
1,note_on,65,0,52
1,note_on,63,38,0
1,note_on,63,0,52
1,note_on,61,38,0
1,note_on,61,0,52
1,note_on,81,75,65
1,note_on,69,64,0
1,note_on,69,0,60
1,note_on,81,0,0
1,note_on,82,85,0
1,note_on,70,72,0
1,note_on,70,0,120
1,note_on,82,0,0
1,note_on,54,72,360
1,note_on,60,85,0
1,note_on,60,0,480
1,note_on,54,0,0
1,note_on,68,46,2640
1,note_on,65,39,0
1,note_on,65,0,360
1,note_on,68,0,0
1,note_on,66,41,0
1,note_on,63,34,0
1,note_on,63,0,60
1,note_on,66,0,0
1,note_on,65,41,60
1,note_on,61,34,0
1,note_on,61,0,60
1,note_on,65,0,0
1,note_on,66,41,60
1,note_on,63,34,0
1,note_on,63,0,60
1,note_on,66,0,0
1,note_on,68,48,60
1,note_on,65,40,0
1,note_on,65,0,60
1,note_on,68,0,0
1,note_on,70,41,120
1,note_on,66,34,0
1,note_on,66,0,60
1,note_on,70,0,0
1,note_on,68,46,0
1,note_on,65,39,0
1,note_on,65,0,360
1,note_on,68,0,0
1,note_on,66,41,0
1,note_on,63,34,0
1,note_on,63,0,60
1,note_on,66,0,0
1,note_on,65,41,60
1,note_on,61,34,0
1,note_on,61,0,60
1,note_on,65,0,0
1,note_on,66,41,60
1,note_on,63,34,0
1,note_on,63,0,60
1,note_on,66,0,0
1,note_on,68,48,60
1,note_on,65,40,0
1,note_on,65,0,60
1,note_on,68,0,0
1,note_on,70,41,120
1,note_on,66,34,0
1,note_on,66,0,60
1,note_on,70,0,0
1,note_on,68,46,0
1,note_on,65,39,0
1,note_on,65,0,120
1,note_on,68,0,0
1,note_on,76,50,840
1,note_on,73,47,0
1,note_on,64,42,0
1,note_on,64,0,360
1,note_on,73,0,0
1,note_on,76,0,0
1,note_on,74,44,0
1,note_on,71,42,0
1,note_on,71,0,60
1,note_on,74,0,0
1,note_on,73,44,60
1,note_on,69,42,0
1,note_on,69,0,60
1,note_on,73,0,0
1,note_on,74,44,60
1,note_on,71,42,0
1,note_on,71,0,60
1,note_on,74,0,0
1,note_on,76,52,60
1,note_on,73,49,0
1,note_on,73,0,60
1,note_on,76,0,0
1,note_on,78,45,120
1,note_on,74,43,0
1,note_on,74,0,60
1,note_on,78,0,0
1,note_on,76,51,0
1,note_on,73,48,0
1,note_on,64,43,0
1,note_on,64,0,360
1,note_on,73,0,0
1,note_on,76,0,0
1,note_on,74,44,0
1,note_on,71,42,0
1,note_on,71,0,60
1,note_on,74,0,0
1,note_on,73,44,60
1,note_on,69,42,0
1,note_on,69,0,60
1,note_on,73,0,0
1,note_on,74,42,60
1,note_on,71,40,0
1,note_on,71,0,60
1,note_on,74,0,0
1,note_on,76,50,60
1,note_on,73,47,0
1,note_on,73,0,60
1,note_on,76,0,0
1,note_on,78,44,120
1,note_on,74,42,0
1,note_on,74,0,60
1,note_on,78,0,0
1,note_on,76,49,0
1,note_on,73,46,0
1,note_on,64,41,0
1,note_on,64,0,120
1,note_on,73,0,0
1,note_on,76,0,0
1,note_on,81,58,840
1,note_on,78,54,0
1,note_on,69,49,0
1,note_on,69,0,360
1,note_on,78,0,0
1,note_on,81,0,0
1,note_on,80,48,0
1,note_on,76,45,0
1,note_on,76,0,60
1,note_on,80,0,0
1,note_on,78,48,60
1,note_on,74,45,0
1,note_on,74,0,60
1,note_on,78,0,0
1,note_on,80,49,60
1,note_on,76,46,0
1,note_on,76,0,60
1,note_on,80,0,0
1,note_on,81,61,60
1,note_on,78,57,0
1,note_on,78,0,60
1,note_on,81,0,0
1,note_on,83,52,120
1,note_on,80,49,0
1,note_on,80,0,60
1,note_on,83,0,0
1,note_on,78,56,0
1,note_on,81,59,0
1,note_on,69,50,0
1,note_on,69,0,360
1,note_on,81,0,0
1,note_on,78,0,0
1,note_on,80,48,0
1,note_on,76,45,0
1,note_on,76,0,60
1,note_on,80,0,0
1,note_on,78,48,60
1,note_on,74,45,0
1,note_on,74,0,60
1,note_on,78,0,0
1,note_on,80,48,60
1,note_on,76,45,0
1,note_on,76,0,60
1,note_on,80,0,0
1,note_on,81,57,60
1,note_on,78,48,0
1,note_on,78,0,60
1,note_on,81,0,0
1,note_on,83,49,120
1,note_on,80,41,0
1,note_on,80,0,60
1,note_on,83,0,0
1,note_on,81,57,0
1,note_on,78,48,0
1,note_on,78,0,60
1,note_on,81,0,0
1,note_on,81,51,120
1,note_on,78,43,0
1,note_on,78,0,60
1,note_on,81,0,0
1,note_on,83,57,0
1,note_on,80,48,0
1,note_on,80,0,60
1,note_on,83,0,0
1,note_on,81,51,120
1,note_on,78,43,0
1,note_on,78,0,60
1,note_on,81,0,0
1,note_on,83,57,0
1,note_on,80,48,0
1,note_on,80,0,60
1,note_on,83,0,0
1,note_on,85,53,120
1,note_on,77,45,0
1,note_on,77,0,60
1,note_on,85,0,0
1,note_on,86,58,0
1,note_on,78,49,0
1,note_on,78,0,60
1,note_on,86,0,0
1,note_on,81,51,120
1,note_on,78,43,0
1,note_on,78,0,60
1,note_on,81,0,0
1,note_on,80,59,0
1,note_on,77,50,0
1,note_on,77,0,60
1,note_on,80,0,0
1,note_on,81,54,120
1,note_on,78,45,0
1,note_on,78,0,60
1,note_on,81,0,0
1,note_on,83,59,0
1,note_on,80,50,0
1,note_on,80,0,60
1,note_on,83,0,0
1,note_on,81,55,120
1,note_on,78,46,0
1,note_on,78,0,60
1,note_on,81,0,0
1,note_on,83,60,0
1,note_on,80,51,0
1,note_on,80,0,60
1,note_on,83,0,0
1,note_on,85,55,120
1,note_on,77,46,0
1,note_on,77,0,60
1,note_on,85,0,0
1,note_on,86,60,0
1,note_on,78,51,0
1,note_on,78,0,60
1,note_on,86,0,0
1,note_on,92,65,180
1,note_on,92,0,60
1,note_on,93,58,0
1,note_on,93,0,60
1,note_on,95,58,0
1,note_on,95,0,60
1,note_on,93,58,0
1,note_on,93,0,60
1,note_on,87,64,0
1,note_on,90,64,0
1,note_on,90,0,120
1,note_on,87,0,0
1,note_on,85,59,0
1,note_on,89,59,0
1,note_on,89,0,120
1,note_on,85,0,0
1,note_on,84,59,0
1,note_on,87,59,0
1,note_on,87,0,120
1,note_on,84,0,0
1,note_on,80,60,0
1,note_on,92,60,0
1,note_on,92,0,120
1,note_on,80,0,0
1,note_on,90,66,0
1,note_on,87,66,0
1,note_on,87,0,60
1,note_on,90,0,0
1,note_on,85,59,60
1,note_on,89,59,0
1,note_on,89,0,60
1,note_on,85,0,0
1,note_on,84,59,60
1,note_on,87,59,0
1,note_on,87,0,60
1,note_on,84,0,0
1,note_on,68,59,60
1,note_on,80,59,0
1,note_on,80,0,60
1,note_on,68,0,0
1,note_on,75,64,60
1,note_on,78,64,0
1,note_on,78,0,60
1,note_on,75,0,0
1,note_on,73,57,60
1,note_on,77,57,0
1,note_on,77,0,60
1,note_on,73,0,0
1,note_on,72,57,60
1,note_on,75,57,0
1,note_on,75,0,60
1,note_on,72,0,0
1,note_on,68,58,60
1,note_on,80,58,0
1,note_on,80,0,60
1,note_on,68,0,0
1,note_on,73,64,60
1,note_on,77,64,0
1,note_on,77,0,60
1,note_on,73,0,0
1,note_on,68,50,180
1,note_on,80,59,0
1,note_on,77,50,0
1,note_on,77,0,360
1,note_on,80,0,0
1,note_on,68,0,0
1,note_on,66,44,0
1,note_on,78,53,0
1,note_on,75,44,0
1,note_on,75,0,60
1,note_on,78,0,0
1,note_on,66,0,0
1,note_on,65,44,60
1,note_on,77,53,0
1,note_on,73,44,0
1,note_on,73,0,60
1,note_on,77,0,0
1,note_on,65,0,0
1,note_on,66,44,60
1,note_on,78,53,0
1,note_on,75,44,0
1,note_on,75,0,60
1,note_on,78,0,0
1,note_on,66,0,0
1,note_on,68,52,60
1,note_on,80,62,0
1,note_on,77,52,0
1,note_on,77,0,60
1,note_on,80,0,0
1,note_on,68,0,0
1,note_on,70,44,120
1,note_on,82,53,0
1,note_on,78,44,0
1,note_on,78,0,60
1,note_on,82,0,0
1,note_on,70,0,0
1,note_on,68,50,0
1,note_on,80,59,0
1,note_on,77,50,0
1,note_on,77,0,360
1,note_on,80,0,0
1,note_on,68,0,0
1,note_on,66,44,0
1,note_on,78,53,0
1,note_on,75,44,0
1,note_on,75,0,60
1,note_on,78,0,0
1,note_on,66,0,0
1,note_on,65,44,60
1,note_on,77,53,0
1,note_on,73,44,0
1,note_on,73,0,60
1,note_on,77,0,0
1,note_on,65,0,0
1,note_on,66,44,60
1,note_on,78,53,0
1,note_on,75,44,0
1,note_on,75,0,60
1,note_on,78,0,0
1,note_on,66,0,0
1,note_on,68,52,60
1,note_on,80,62,0
1,note_on,77,52,0
1,note_on,77,0,60
1,note_on,80,0,0
1,note_on,68,0,0
1,note_on,70,44,120
1,note_on,82,53,0
1,note_on,78,44,0
1,note_on,78,0,60
1,note_on,82,0,0
1,note_on,70,0,0
1,note_on,68,50,0
1,note_on,80,59,0
1,note_on,77,50,0
1,note_on,77,0,120
1,note_on,80,0,0
1,note_on,68,0,0
1,note_on,88,71,360
1,note_on,85,67,0
1,note_on,76,59,0
1,note_on,76,0,360
1,note_on,85,0,0
1,note_on,88,0,0
1,note_on,74,59,0
1,note_on,86,62,0
1,note_on,83,59,0
1,note_on,83,0,60
1,note_on,86,0,0
1,note_on,74,0,0
1,note_on,73,59,60
1,note_on,85,62,0
1,note_on,81,59,0
1,note_on,81,0,60
1,note_on,85,0,0
1,note_on,73,0,0
1,note_on,74,59,60
1,note_on,86,62,0
1,note_on,83,59,0
1,note_on,83,0,60
1,note_on,86,0,0
1,note_on,74,0,0
1,note_on,76,69,60
1,note_on,88,73,0
1,note_on,85,69,0
1,note_on,85,0,60
1,note_on,88,0,0
1,note_on,76,0,0
1,note_on,78,60,120
1,note_on,90,63,0
1,note_on,86,60,0
1,note_on,86,0,60
1,note_on,90,0,0
1,note_on,78,0,0
1,note_on,88,72,0
1,note_on,85,68,0
1,note_on,76,60,0
1,note_on,76,0,360
1,note_on,85,0,0
1,note_on,88,0,0
1,note_on,74,59,0
1,note_on,86,62,0
1,note_on,83,59,0
1,note_on,83,0,60
1,note_on,86,0,0
1,note_on,74,0,0
1,note_on,73,59,60
1,note_on,85,62,0
1,note_on,81,59,0
1,note_on,81,0,60
1,note_on,85,0,0
1,note_on,73,0,0
1,note_on,74,57,60
1,note_on,86,59,0
1,note_on,83,57,0
1,note_on,83,0,60
1,note_on,86,0,0
1,note_on,74,0,0
1,note_on,76,67,60
1,note_on,88,71,0
1,note_on,85,67,0
1,note_on,85,0,60
1,note_on,88,0,0
1,note_on,76,0,0
1,note_on,78,59,120
1,note_on,90,62,0
1,note_on,86,59,0
1,note_on,86,0,60
1,note_on,90,0,0
1,note_on,78,0,0
1,note_on,88,69,0
1,note_on,85,64,0
1,note_on,76,58,0
1,note_on,76,0,120
1,note_on,85,0,0
1,note_on,88,0,0
1,note_on,93,82,360
1,note_on,90,77,0
1,note_on,81,69,0
1,note_on,81,0,360
1,note_on,90,0,0
1,note_on,93,0,0
1,note_on,80,63,0
1,note_on,92,68,0
1,note_on,88,63,0
1,note_on,88,0,60
1,note_on,92,0,0
1,note_on,80,0,0
1,note_on,78,63,60
1,note_on,90,68,0
1,note_on,86,63,0
1,note_on,86,0,60
1,note_on,90,0,0
1,note_on,78,0,0
1,note_on,80,64,60
1,note_on,92,69,0
1,note_on,88,64,0
1,note_on,88,0,60
1,note_on,92,0,0
1,note_on,80,0,0
1,note_on,81,70,60
1,note_on,93,82,0
1,note_on,90,74,0
1,note_on,90,0,60
1,note_on,93,0,0
1,note_on,81,0,0
1,note_on,83,69,120
1,note_on,95,73,0
1,note_on,92,69,0
1,note_on,92,0,60
1,note_on,95,0,0
1,note_on,83,0,0
1,note_on,90,79,0
1,note_on,93,83,0
1,note_on,81,71,0
1,note_on,81,0,360
1,note_on,93,0,0
1,note_on,90,0,0
1,note_on,80,63,0
1,note_on,92,68,0
1,note_on,88,63,0
1,note_on,88,0,60
1,note_on,92,0,0
1,note_on,80,0,0
1,note_on,78,63,60
1,note_on,90,68,0
1,note_on,86,63,0
1,note_on,86,0,60
1,note_on,90,0,0
1,note_on,78,0,0
1,note_on,80,63,60
1,note_on,92,68,0
1,note_on,88,63,0
1,note_on,88,0,60
1,note_on,92,0,0
1,note_on,80,0,0
1,note_on,81,68,60
1,note_on,93,81,0
1,note_on,90,68,0
1,note_on,90,0,60
1,note_on,93,0,0
1,note_on,81,0,0
1,note_on,83,58,120
1,note_on,95,69,0
1,note_on,92,58,0
1,note_on,92,0,60
1,note_on,95,0,0
1,note_on,83,0,0
1,note_on,81,68,0
1,note_on,93,81,0
1,note_on,90,68,0
1,note_on,90,0,60
1,note_on,93,0,0
1,note_on,81,0,0
1,note_on,81,66,120
1,note_on,78,55,0
1,note_on,78,0,60
1,note_on,81,0,0
1,note_on,83,74,0
1,note_on,80,62,0
1,note_on,80,0,60
1,note_on,83,0,0
1,note_on,81,66,120
1,note_on,78,55,0
1,note_on,78,0,60
1,note_on,81,0,0
1,note_on,83,74,0
1,note_on,80,62,0
1,note_on,80,0,60
1,note_on,83,0,0
1,note_on,85,68,120
1,note_on,77,58,0
1,note_on,77,0,60
1,note_on,85,0,0
1,note_on,86,75,0
1,note_on,78,63,0
1,note_on,78,0,60
1,note_on,86,0,0
1,note_on,81,66,120
1,note_on,78,55,0
1,note_on,78,0,60
1,note_on,81,0,0
1,note_on,80,76,0
1,note_on,77,65,0
1,note_on,77,0,60
1,note_on,80,0,0
1,note_on,81,70,120
1,note_on,78,58,0
1,note_on,78,0,60
1,note_on,81,0,0
1,note_on,83,76,0
1,note_on,80,65,0
1,note_on,80,0,60
1,note_on,83,0,0
1,note_on,81,71,120
1,note_on,78,59,0
1,note_on,78,0,60
1,note_on,81,0,0
1,note_on,83,78,0
1,note_on,80,66,0
1,note_on,80,0,60
1,note_on,83,0,0
1,note_on,85,71,120
1,note_on,77,59,0
1,note_on,77,0,60
1,note_on,85,0,0
1,note_on,86,78,0
1,note_on,78,66,0
1,note_on,78,0,60
1,note_on,86,0,0
1,note_on,92,79,180
1,note_on,92,0,60
1,note_on,93,72,0
1,note_on,93,0,60
1,note_on,95,72,0
1,note_on,95,0,60
1,note_on,93,72,0
1,note_on,93,0,60
1,note_on,87,78,0
1,note_on,90,78,0
1,note_on,90,0,120
1,note_on,87,0,0
1,note_on,85,72,0
1,note_on,89,72,0
1,note_on,89,0,120
1,note_on,85,0,0
1,note_on,84,72,0
1,note_on,87,72,0
1,note_on,87,0,120
1,note_on,84,0,0
1,note_on,80,74,0
1,note_on,92,74,0
1,note_on,92,0,120
1,note_on,80,0,0
1,note_on,90,80,0
1,note_on,87,80,0
1,note_on,87,0,60
1,note_on,90,0,0
1,note_on,85,72,60
1,note_on,89,72,0
1,note_on,89,0,60
1,note_on,85,0,0
1,note_on,84,72,60
1,note_on,87,72,0
1,note_on,87,0,60
1,note_on,84,0,0
1,note_on,68,72,60
1,note_on,80,72,0
1,note_on,80,0,60
1,note_on,68,0,0
1,note_on,75,78,60
1,note_on,78,78,0
1,note_on,78,0,60
1,note_on,75,0,0
1,note_on,73,64,60
1,note_on,77,64,0
1,note_on,77,0,60
1,note_on,73,0,0
1,note_on,72,64,60
1,note_on,75,64,0
1,note_on,75,0,60
1,note_on,72,0,0
1,note_on,68,64,60
1,note_on,80,64,0
1,note_on,80,0,60
1,note_on,68,0,0
1,note_on,73,45,60
1,note_on,77,50,0
1,note_on,77,0,60
1,note_on,73,0,0
1,note_on,89,55,180
1,note_on,92,55,0
1,note_on,92,0,360
1,note_on,89,0,0
1,note_on,94,57,0
1,note_on,97,57,0
1,note_on,97,0,60
1,note_on,94,0,0
1,note_on,92,54,60
1,note_on,96,54,0
1,note_on,96,0,60
1,note_on,92,0,0
1,note_on,94,54,60
1,note_on,90,54,0
1,note_on,90,0,60
1,note_on,94,0,0
1,note_on,89,47,60
1,note_on,92,52,0
1,note_on,92,0,60
1,note_on,89,0,0
1,note_on,77,53,180
1,note_on,80,53,0
1,note_on,80,0,360
1,note_on,77,0,0
1,note_on,75,55,0
1,note_on,78,55,0
1,note_on,78,0,60
1,note_on,75,0,0
1,note_on,73,55,60
1,note_on,77,55,0
1,note_on,77,0,60
1,note_on,73,0,0
1,note_on,75,55,60
1,note_on,68,55,0
1,note_on,68,0,60
1,note_on,75,0,0
1,note_on,73,45,60
1,note_on,77,50,0
1,note_on,77,0,60
1,note_on,73,0,0
1,note_on,89,55,180
1,note_on,92,55,0
1,note_on,92,0,360
1,note_on,89,0,0
1,note_on,94,57,0
1,note_on,97,57,0
1,note_on,97,0,60
1,note_on,94,0,0
1,note_on,92,54,60
1,note_on,96,54,0
1,note_on,96,0,60
1,note_on,92,0,0
1,note_on,94,54,60
1,note_on,90,54,0
1,note_on,90,0,60
1,note_on,94,0,0
1,note_on,89,47,60
1,note_on,92,52,0
1,note_on,92,0,60
1,note_on,89,0,0
1,note_on,78,64,180
1,note_on,82,64,0
1,note_on,82,0,240
1,note_on,78,0,0
1,note_on,77,58,0
1,note_on,80,58,0
1,note_on,80,0,60
1,note_on,77,0,0
1,note_on,75,54,60
1,note_on,78,54,0
1,note_on,78,0,60
1,note_on,75,0,0
1,note_on,73,54,60
1,note_on,77,54,0
1,note_on,77,0,60
1,note_on,73,0,0
1,note_on,75,53,60
1,note_on,68,53,0
1,note_on,68,0,60
1,note_on,75,0,0
1,note_on,73,45,60
1,note_on,77,50,0
1,note_on,77,0,60
1,note_on,73,0,0
1,note_on,89,55,180
1,note_on,92,55,0
1,note_on,92,0,360
1,note_on,89,0,0
1,note_on,94,57,0
1,note_on,97,57,0
1,note_on,97,0,60
1,note_on,94,0,0
1,note_on,92,54,60
1,note_on,96,54,0
1,note_on,96,0,60
1,note_on,92,0,0
1,note_on,94,54,60
1,note_on,90,54,0
1,note_on,90,0,60
1,note_on,94,0,0
1,note_on,89,47,60
1,note_on,92,52,0
1,note_on,92,0,60
1,note_on,89,0,0
1,note_on,77,53,180
1,note_on,80,53,0
1,note_on,80,0,360
1,note_on,77,0,0
1,note_on,75,55,0
1,note_on,78,55,0
1,note_on,78,0,60
1,note_on,75,0,0
1,note_on,73,53,60
1,note_on,77,53,0
1,note_on,77,0,60
1,note_on,73,0,0
1,note_on,75,53,60
1,note_on,68,53,0
1,note_on,68,0,60
1,note_on,75,0,0
1,note_on,73,45,60
1,note_on,77,50,0
1,note_on,77,0,60
1,note_on,73,0,0
1,note_on,89,55,180
1,note_on,92,55,0
1,note_on,92,0,360
1,note_on,89,0,0
1,note_on,94,57,0
1,note_on,97,57,0
1,note_on,97,0,60
1,note_on,94,0,0
1,note_on,92,54,60
1,note_on,96,54,0
1,note_on,96,0,60
1,note_on,92,0,0
1,note_on,94,54,60
1,note_on,90,54,0
1,note_on,90,0,60
1,note_on,94,0,0
1,note_on,89,47,60
1,note_on,92,52,0
1,note_on,92,0,60
1,note_on,89,0,0
1,note_on,78,60,180
1,note_on,82,60,0
1,note_on,82,0,240
1,note_on,78,0,0
1,note_on,77,59,0
1,note_on,80,59,0
1,note_on,80,0,60
1,note_on,77,0,0
1,note_on,75,53,60
1,note_on,78,53,0
1,note_on,78,0,60
1,note_on,75,0,0
1,note_on,73,53,60
1,note_on,77,53,0
1,note_on,77,0,60
1,note_on,73,0,0
1,note_on,75,53,60
1,note_on,68,53,0
1,note_on,68,0,60
1,note_on,75,0,0
1,note_on,73,55,60
1,note_on,77,55,0
1,note_on,77,0,60
1,note_on,73,0,0
1,note_on,68,50,180
1,note_on,73,50,0
1,note_on,73,0,120
1,note_on,74,51,0
1,note_on,74,0,120
1,note_on,68,0,0
1,note_on,68,55,0
1,note_on,75,55,0
1,note_on,75,0,360
1,note_on,68,0,0
1,note_on,75,50,0
1,note_on,78,50,0
1,note_on,78,0,60
1,note_on,75,0,0
1,note_on,73,55,60
1,note_on,77,55,0
1,note_on,77,0,120
1,note_on,80,51,0
1,note_on,80,0,120
1,note_on,73,0,0
1,note_on,68,51,0
1,note_on,73,51,0
1,note_on,73,0,120
1,note_on,68,0,0
1,note_on,80,57,120
1,note_on,87,57,0
1,note_on,87,0,360
1,note_on,80,0,0
1,note_on,87,52,0
1,note_on,90,52,0
1,note_on,90,0,60
1,note_on,87,0,0
1,note_on,85,57,60
1,note_on,89,57,0
1,note_on,89,0,120
1,note_on,92,53,0
1,note_on,92,0,120
1,note_on,85,0,0
1,note_on,80,53,0
1,note_on,85,53,0
1,note_on,85,0,120
1,note_on,80,0,0
1,note_on,68,55,120
1,note_on,75,55,0
1,note_on,75,0,360
1,note_on,68,0,0
1,note_on,75,50,0
1,note_on,78,50,0
1,note_on,78,0,40
1,note_on,80,50,0
1,note_on,75,0,20
1,note_on,80,0,20
1,note_on,78,50,0
1,note_on,78,0,40
1,note_on,73,55,0
1,note_on,77,55,0
1,note_on,77,0,120
1,note_on,80,51,0
1,note_on,80,0,120
1,note_on,73,0,0
1,note_on,68,51,0
1,note_on,73,51,0
1,note_on,73,0,120
1,note_on,68,0,0
1,note_on,80,57,120
1,note_on,87,57,0
1,note_on,87,0,360
1,note_on,80,0,0
1,note_on,87,52,0
1,note_on,90,52,0
1,note_on,90,0,40
1,note_on,92,52,0
1,note_on,87,0,20
1,note_on,92,0,20
1,note_on,90,52,0
1,note_on,90,0,40
1,note_on,85,57,0
1,note_on,89,57,0
1,note_on,89,0,120
1,note_on,92,53,0
1,note_on,92,0,120
1,note_on,85,0,0
1,note_on,80,53,0
1,note_on,85,53,0
1,note_on,85,0,120
1,note_on,80,0,0
1,note_on,72,48,120
1,note_on,72,0,60
1,note_on,73,49,0
1,note_on,73,0,60
1,note_on,75,50,0
1,note_on,75,0,60
1,note_on,77,51,0
1,note_on,77,0,60
1,note_on,78,52,0
1,note_on,78,0,60
1,note_on,80,52,0
1,note_on,80,0,60
1,note_on,82,53,0
1,note_on,82,0,60
1,note_on,84,54,0
1,note_on,84,0,60
1,note_on,85,56,0
1,note_on,85,0,60
1,note_on,87,56,0
1,note_on,87,0,60
1,note_on,89,56,0
1,note_on,89,0,60
1,note_on,90,57,0
1,note_on,90,0,60
1,note_on,91,57,0
1,note_on,91,0,60
1,note_on,94,58,0
1,note_on,94,0,60
1,note_on,92,58,0
1,note_on,92,0,60
1,note_on,94,59,0
1,note_on,94,0,60
1,note_on,92,58,0
1,note_on,87,61,0
1,note_on,92,0,60
1,note_on,94,52,0
1,note_on,94,0,60
1,note_on,92,52,0
1,note_on,92,0,60
1,note_on,94,52,0
1,note_on,94,0,60
1,note_on,92,52,0
1,note_on,92,0,60
1,note_on,94,52,0
1,note_on,94,0,60
1,note_on,87,0,0
1,note_on,92,52,0
1,note_on,90,52,0
1,note_on,92,0,60
1,note_on,94,52,0
1,note_on,94,0,60
1,note_on,90,0,0
1,note_on,92,58,0
1,note_on,89,57,0
1,note_on,92,0,60
1,note_on,94,52,0
1,note_on,94,0,60
1,note_on,89,0,0
1,note_on,92,53,0
1,note_on,94,52,60
1,note_on,94,0,60
1,note_on,92,0,0
1,note_on,92,58,0
1,note_on,85,53,0
1,note_on,85,0,120
1,note_on,92,0,0
1,note_on,72,48,121
1,note_on,72,0,60
1,note_on,73,49,0
1,note_on,73,0,60
1,note_on,75,50,0
1,note_on,75,0,60
1,note_on,77,51,0
1,note_on,77,0,60
1,note_on,78,52,0
1,note_on,78,0,60
1,note_on,80,52,0
1,note_on,80,0,60
1,note_on,82,53,0
1,note_on,82,0,60
1,note_on,84,54,0
1,note_on,84,0,60
1,note_on,85,56,0
1,note_on,85,0,60
1,note_on,87,56,0
1,note_on,87,0,60
1,note_on,89,56,0
1,note_on,89,0,60
1,note_on,90,57,0
1,note_on,90,0,60
1,note_on,91,57,0
1,note_on,91,0,60
1,note_on,94,58,0
1,note_on,94,0,60
1,note_on,92,58,0
1,note_on,92,0,60
1,note_on,94,59,0
1,note_on,94,0,60
1,note_on,92,58,0
1,note_on,87,61,0
1,note_on,92,0,60
1,note_on,94,52,0
1,note_on,94,0,60
1,note_on,92,52,0
1,note_on,92,0,60
1,note_on,94,52,0
1,note_on,94,0,60
1,note_on,92,52,0
1,note_on,92,0,60
1,note_on,94,52,0
1,note_on,94,0,60
1,note_on,87,0,0
1,note_on,92,52,0
1,note_on,90,52,0
1,note_on,92,0,60
1,note_on,94,52,0
1,note_on,94,0,60
1,note_on,92,58,0
1,note_on,89,57,0
1,note_on,90,0,0
1,note_on,92,0,60
1,note_on,94,52,0
1,note_on,94,0,60
1,note_on,89,0,0
1,note_on,92,53,0
1,note_on,94,52,59
1,note_on,94,0,60
1,note_on,92,58,0
1,note_on,92,0,1
1,note_on,85,53,0
1,note_on,92,0,59
1,note_on,94,52,0
1,note_on,94,0,60
1,note_on,92,52,0
1,note_on,85,0,1
1,note_on,92,0,59
1,note_on,94,52,0
1,note_on,94,0,60
1,note_on,92,60,1
1,note_on,87,64,0
1,note_on,92,0,60
1,note_on,94,54,0
1,note_on,94,0,60
1,note_on,92,54,0
1,note_on,92,0,60
1,note_on,94,54,0
1,note_on,94,0,60
1,note_on,92,54,0
1,note_on,92,0,60
1,note_on,94,54,0
1,note_on,94,0,60
1,note_on,87,0,0
1,note_on,92,54,0
1,note_on,90,54,0
1,note_on,92,0,60
1,note_on,94,54,0
1,note_on,89,63,59
1,note_on,94,0,1
1,note_on,90,0,0
1,note_on,89,0,119
1,note_on,92,64,0
1,note_on,92,0,120
1,note_on,85,55,0
1,note_on,85,0,120
1,note_on,84,57,120
1,note_on,84,0,60
1,note_on,85,58,60
1,note_on,85,0,60
1,note_on,87,60,60
1,note_on,87,0,60
1,note_on,88,61,60
1,note_on,88,0,60
1,note_on,89,63,60
1,note_on,89,0,60
1,note_on,90,65,60
1,note_on,90,0,60
1,note_on,91,64,60
1,note_on,91,0,60
1,note_on,92,67,60
1,note_on,92,0,60
1,note_on,90,64,60
1,note_on,90,0,60
1,note_on,89,65,60
1,note_on,89,0,60
1,note_on,87,64,60
1,note_on,87,0,60
1,note_on,90,65,60
1,note_on,90,0,60
1,note_on,89,63,60
1,note_on,89,0,120
1,note_on,92,63,0
1,note_on,92,0,120
1,note_on,85,55,0
1,note_on,85,0,120
1,note_on,84,57,120
1,note_on,84,0,60
1,note_on,85,58,60
1,note_on,85,0,60
1,note_on,87,60,60
1,note_on,87,0,60
1,note_on,88,62,60
1,note_on,88,0,60
1,note_on,89,64,60
1,note_on,89,0,60
1,note_on,90,67,60
1,note_on,90,0,60
1,note_on,91,67,60
1,note_on,91,0,60
1,note_on,92,71,60
1,note_on,92,0,60
1,note_on,90,68,60
1,note_on,90,0,60
1,note_on,89,70,60
1,note_on,89,0,60
1,note_on,87,69,60
1,note_on,87,0,60
1,note_on,92,71,60
1,note_on,92,0,60
1,note_on,85,58,60
1,note_on,92,61,0
1,note_on,92,0,60
1,note_on,94,56,0
1,note_on,94,0,60
1,note_on,92,62,0
1,note_on,92,0,60
1,note_on,94,56,0
1,note_on,94,0,60
1,note_on,85,0,0
1,note_on,92,63,0
1,note_on,92,0,60
1,note_on,94,57,0
1,note_on,94,0,60
1,note_on,92,60,0
1,note_on,92,0,60
1,note_on,94,52,0
1,note_on,94,0,60
1,note_on,92,59,0
1,note_on,92,0,60
1,note_on,94,51,0
1,note_on,94,0,60
1,note_on,92,59,0
1,note_on,92,0,60
1,note_on,94,51,0
1,note_on,94,0,60
1,note_on,92,59,0
1,note_on,92,0,60
1,note_on,94,51,0
1,note_on,94,0,60
1,note_on,92,56,0
1,note_on,92,0,60
1,note_on,94,52,0
1,note_on,94,0,60
1,note_on,92,61,0
1,note_on,92,0,60
1,note_on,94,56,0
1,note_on,94,0,60
1,note_on,92,62,0
1,note_on,92,0,60
1,note_on,94,56,0
1,note_on,94,0,60
1,note_on,92,59,0
1,note_on,92,0,60
1,note_on,94,53,0
1,note_on,94,0,60
1,note_on,92,58,0
1,note_on,92,0,60
1,note_on,94,52,0
1,note_on,94,0,60
1,note_on,92,59,0
1,note_on,92,0,60
1,note_on,94,53,0
1,note_on,94,0,60
1,note_on,92,60,0
1,note_on,92,0,60
1,note_on,94,53,0
1,note_on,94,0,60
1,note_on,92,60,0
1,note_on,92,0,60
1,note_on,94,53,0
1,note_on,94,0,60
1,note_on,92,60,0
1,note_on,92,0,60
1,note_on,94,53,0
1,note_on,94,0,60
1,note_on,92,61,0
1,note_on,92,0,60
1,note_on,94,56,0
1,note_on,94,0,60
1,note_on,92,62,0
1,note_on,92,0,60
1,note_on,94,56,0
1,note_on,94,0,60
1,note_on,92,63,0
1,note_on,92,0,60
1,note_on,94,57,0
1,note_on,94,0,60
1,note_on,92,60,0
1,note_on,92,0,60
1,note_on,94,52,0
1,note_on,94,0,60
1,note_on,92,67,0
1,note_on,92,0,60
1,note_on,89,51,0
1,note_on,89,0,60
1,note_on,90,65,0
1,note_on,90,0,60
1,note_on,87,51,0
1,note_on,87,0,60
1,note_on,89,65,0
1,note_on,89,0,60
1,note_on,85,51,0
1,note_on,85,0,60
1,note_on,90,64,0
1,note_on,90,0,60
1,note_on,87,52,0
1,note_on,87,0,60
1,note_on,92,61,0
1,note_on,92,0,60
1,note_on,89,56,0
1,note_on,89,0,60
1,note_on,94,62,0
1,note_on,94,0,60
1,note_on,90,56,0
1,note_on,92,59,60
1,note_on,90,0,0
1,note_on,92,0,60
1,note_on,89,53,0
1,note_on,89,0,60
1,note_on,92,58,4
1,note_on,89,52,56
1,note_on,92,0,4
1,note_on,89,0,56
1,note_on,92,59,0
1,note_on,92,0,60
1,note_on,89,53,0
1,note_on,89,0,60
1,note_on,90,60,0
1,note_on,90,0,60
1,note_on,87,53,0
1,note_on,87,0,60
1,note_on,89,60,0
1,note_on,89,0,60
1,note_on,85,53,0
1,note_on,85,0,60
1,note_on,90,60,0
1,note_on,90,0,60
1,note_on,87,53,0
1,note_on,87,0,60
1,note_on,92,61,0
1,note_on,92,0,60
1,note_on,89,56,0
1,note_on,89,0,60
1,note_on,88,58,0
1,note_on,88,0,60
1,note_on,91,51,0
1,note_on,91,0,60
1,note_on,89,54,0
1,note_on,89,0,60
1,note_on,92,46,0
1,note_on,92,0,60
1,note_on,89,54,0
1,note_on,89,0,60
1,note_on,93,48,0
1,note_on,93,0,60
1,note_on,90,55,0
1,note_on,90,0,60
1,note_on,94,50,0
1,note_on,94,0,60
1,note_on,89,56,0
1,note_on,89,0,60
1,note_on,93,50,0
1,note_on,93,0,60
1,note_on,90,56,0
1,note_on,90,0,60
1,note_on,94,49,0
1,note_on,94,0,60
1,note_on,87,56,0
1,note_on,87,0,60
1,note_on,96,49,0
1,note_on,96,0,60
1,note_on,85,59,0
1,note_on,85,0,60
1,note_on,97,53,0
1,note_on,97,0,60
1,note_on,89,58,0
1,note_on,89,0,60
1,note_on,92,48,0
1,note_on,92,0,60
1,note_on,88,55,0
1,note_on,88,0,60
1,note_on,91,51,0
1,note_on,91,0,60
1,note_on,89,57,0
1,note_on,89,0,60
1,note_on,92,51,0
1,note_on,92,0,60
1,note_on,87,55,0
1,note_on,87,0,60
1,note_on,90,50,0
1,note_on,90,0,60
1,note_on,85,56,0
1,note_on,85,0,60
1,note_on,89,50,0
1,note_on,89,0,60
1,note_on,84,56,0
1,note_on,84,0,60
1,note_on,87,49,0
1,note_on,87,0,60
1,note_on,80,56,0
1,note_on,80,0,60
1,note_on,92,49,0
1,note_on,92,0,60
1,note_on,85,59,0
1,note_on,85,0,60
1,note_on,89,53,0
1,note_on,89,0,60
1,note_on,80,58,0
1,note_on,80,0,60
1,note_on,87,48,0
1,note_on,87,0,60
1,note_on,77,55,0
1,note_on,77,0,60
1,note_on,85,51,0
1,note_on,85,0,60
1,note_on,89,57,0
1,note_on,89,0,60
1,note_on,92,51,0
1,note_on,92,0,60
1,note_on,90,55,0
1,note_on,90,0,60
1,note_on,94,50,0
1,note_on,94,0,60
1,note_on,89,56,0
1,note_on,89,0,60
1,note_on,93,50,0
1,note_on,93,0,60
1,note_on,90,56,0
1,note_on,90,0,60
1,note_on,94,49,0
1,note_on,94,0,60
1,note_on,87,56,0
1,note_on,87,0,60
1,note_on,96,49,0
1,note_on,96,0,60
1,note_on,85,59,0
1,note_on,85,0,60
1,note_on,97,53,0
1,note_on,97,0,60
1,note_on,89,58,0
1,note_on,89,0,60
1,note_on,92,48,0
1,note_on,92,0,60
1,note_on,88,55,0
1,note_on,88,0,60
1,note_on,91,51,0
1,note_on,91,0,60
1,note_on,89,57,0
1,note_on,89,0,60
1,note_on,92,51,0
1,note_on,92,0,60
1,note_on,87,60,0
1,note_on,87,0,60
1,note_on,90,55,0
1,note_on,90,0,60
1,note_on,85,60,0
1,note_on,85,0,60
1,note_on,89,56,0
1,note_on,89,0,60
1,note_on,84,61,0
1,note_on,84,0,60
1,note_on,87,56,0
1,note_on,87,0,60
1,note_on,80,61,0
1,note_on,80,0,60
1,note_on,92,58,0
1,note_on,92,0,60
1,note_on,85,62,0
1,note_on,85,0,60
1,note_on,89,58,0
1,note_on,89,0,60
1,note_on,80,62,0
1,note_on,80,0,60
1,note_on,87,59,0
1,note_on,87,0,60
1,note_on,77,59,0
1,note_on,77,0,60
1,note_on,85,62,0
1,note_on,85,0,60
1,note_on,89,64,0
1,note_on,89,0,60
1,note_on,92,67,0
1,note_on,92,0,60
1,note_on,87,64,0
1,note_on,87,0,60
1,note_on,90,58,0
1,note_on,90,0,60
1,note_on,85,64,0
1,note_on,85,0,60
1,note_on,89,60,0
1,note_on,89,0,60
1,note_on,84,61,0
1,note_on,84,0,60
1,note_on,87,64,0
1,note_on,87,0,60
1,note_on,80,67,0
1,note_on,80,0,60
1,note_on,92,67,0
1,note_on,92,0,60
1,note_on,85,66,0
1,note_on,85,0,60
1,note_on,89,61,0
1,note_on,89,0,60
1,note_on,84,66,0
1,note_on,84,0,60
1,note_on,87,63,0
1,note_on,87,0,60
1,note_on,85,67,0
1,note_on,85,0,60
1,note_on,89,62,0
1,note_on,89,0,60
1,note_on,80,67,0
1,note_on,80,0,60
1,note_on,92,63,0
1,note_on,92,0,60
1,note_on,92,68,0
1,note_on,92,0,60
1,note_on,95,64,0
1,note_on,95,0,60
1,note_on,90,68,0
1,note_on,90,0,60
1,note_on,94,64,0
1,note_on,94,0,60
1,note_on,89,69,0
1,note_on,89,0,60
1,note_on,92,65,0
1,note_on,92,0,60
1,note_on,85,69,0
1,note_on,85,0,60
1,note_on,97,73,0
1,note_on,97,0,60
1,note_on,90,70,0
1,note_on,90,0,60
1,note_on,94,67,0
1,note_on,94,0,60
1,note_on,85,71,0
1,note_on,85,0,60
1,note_on,92,67,0
1,note_on,92,0,60
1,note_on,82,67,0
1,note_on,82,0,60
1,note_on,90,70,0
1,note_on,90,0,60
1,note_on,94,72,0
1,note_on,94,0,60
1,note_on,97,75,0
1,note_on,97,0,60
1,note_on,92,72,0
1,note_on,92,0,60
1,note_on,95,67,0
1,note_on,95,0,60
1,note_on,90,73,0
1,note_on,90,0,60
1,note_on,94,67,0
1,note_on,94,0,60
1,note_on,89,73,0
1,note_on,89,0,60
1,note_on,92,70,0
1,note_on,92,0,60
1,note_on,85,74,0
1,note_on,85,0,60
1,note_on,97,70,0
1,note_on,97,0,60
1,note_on,90,74,0
1,note_on,90,0,60
1,note_on,92,70,0
1,note_on,92,0,60
1,note_on,89,75,0
1,note_on,89,0,60
1,note_on,92,70,0
1,note_on,92,0,60
1,note_on,90,75,0
1,note_on,90,0,60
1,note_on,94,72,0
1,note_on,94,0,60
1,note_on,85,76,0
1,note_on,85,0,60
1,note_on,97,72,0
1,note_on,97,0,60
1,note_on,49,67,60
1,note_on,49,0,60
1,note_on,51,68,0
1,note_on,51,0,60
1,note_on,53,70,0
1,note_on,53,0,60
1,note_on,54,71,0
1,note_on,54,0,60
1,note_on,56,72,0
1,note_on,56,0,60
1,note_on,58,74,0
1,note_on,58,0,60
1,note_on,60,75,0
1,note_on,60,0,60
1,note_on,61,75,0
1,note_on,61,0,60
1,note_on,65,76,0
1,note_on,65,0,60
1,note_on,68,78,0
1,note_on,68,0,60
1,note_on,73,79,0
1,note_on,73,0,60
1,note_on,77,80,0
1,note_on,77,0,60
1,note_on,80,82,0
1,note_on,80,0,60
1,note_on,85,83,0
1,note_on,85,0,60
1,note_on,89,85,0
1,note_on,89,0,60
1,note_on,54,75,60
1,note_on,54,0,60
1,note_on,56,76,0
1,note_on,56,0,60
1,note_on,58,78,0
1,note_on,58,0,60
1,note_on,59,79,0
1,note_on,59,0,60
1,note_on,61,80,0
1,note_on,61,0,60
1,note_on,63,81,0
1,note_on,63,0,60
1,note_on,65,82,0
1,note_on,65,0,60
1,note_on,66,83,0
1,note_on,66,0,60
1,note_on,70,84,0
1,note_on,70,0,60
1,note_on,73,86,0
1,note_on,73,0,60
1,note_on,78,88,0
1,note_on,78,0,60
1,note_on,82,90,0
1,note_on,82,0,60
1,note_on,85,92,0
1,note_on,85,0,60
1,note_on,90,94,0
1,note_on,90,0,60
1,note_on,92,95,0
1,note_on,92,0,60
1,note_on,82,97,0
1,note_on,94,97,0
1,note_on,94,0,60
1,note_on,82,0,0
1,note_on,90,91,60
1,note_on,90,0,60
1,note_on,92,94,0
1,note_on,92,0,60
1,note_on,94,97,0
1,note_on,82,97,0
1,note_on,82,0,60
1,note_on,94,0,0
1,note_on,90,88,60
1,note_on,82,88,0
1,note_on,82,0,60
1,note_on,90,0,0
1,note_on,94,94,60
1,note_on,82,94,0
1,note_on,82,0,60
1,note_on,94,0,0
1,note_on,92,89,0
1,note_on,92,0,60
1,note_on,90,89,0
1,note_on,90,0,60
1,note_on,66,88,60
1,note_on,61,74,0
1,note_on,61,0,60
1,note_on,66,0,0
1,note_on,65,81,60
1,note_on,61,69,0
1,note_on,61,0,60
1,note_on,65,0,0
1,note_on,65,89,60
1,note_on,61,75,0
1,note_on,61,0,360
1,note_on,65,0,0
1,note_on,87,90,0
1,note_on,87,0,60
1,note_on,89,91,0
1,note_on,89,0,60
1,note_on,78,93,0
1,note_on,90,93,0
1,note_on,90,0,60
1,note_on,78,0,0
1,note_on,87,87,60
1,note_on,87,0,60
1,note_on,89,90,0
1,note_on,89,0,60
1,note_on,90,93,0
1,note_on,78,93,0
1,note_on,78,0,60
1,note_on,90,0,0
1,note_on,87,84,60
1,note_on,78,84,0
1,note_on,78,0,60
1,note_on,87,0,0
1,note_on,90,90,60
1,note_on,78,90,0
1,note_on,78,0,60
1,note_on,90,0,0
1,note_on,89,83,0
1,note_on,89,0,60
1,note_on,87,83,0
1,note_on,87,0,60
1,note_on,86,83,0
1,note_on,86,0,60
1,note_on,87,90,0
1,note_on,87,0,60
1,note_on,66,63,60
1,note_on,70,63,0
1,note_on,58,53,0
1,note_on,58,0,60
1,note_on,70,0,0
1,note_on,66,0,0
1,note_on,71,66,60
1,note_on,66,66,0
1,note_on,59,56,0
1,note_on,59,0,60
1,note_on,66,0,0
1,note_on,71,0,0
1,note_on,72,68,60
1,note_on,68,68,0
1,note_on,60,57,0
1,note_on,60,0,60
1,note_on,68,0,0
1,note_on,72,0,0
1,note_on,68,71,60
1,note_on,73,71,0
1,note_on,61,60,0
1,note_on,61,0,120
1,note_on,73,0,0
1,note_on,68,0,0
1,note_on,72,80,120
1,note_on,60,68,0
1,note_on,68,62,120
1,note_on,66,62,0
1,note_on,66,0,120
1,note_on,72,0,0
1,note_on,60,0,0
1,note_on,68,0,0
1,note_on,75,75,0
1,note_on,63,64,0
1,note_on,68,62,120
1,note_on,66,62,0
1,note_on,66,0,120
1,note_on,75,0,0
1,note_on,63,0,0
1,note_on,68,0,0
1,note_on,75,82,0
1,note_on,63,70,0
1,note_on,68,64,120
1,note_on,65,64,0
1,note_on,65,0,120
1,note_on,75,0,0
1,note_on,63,0,0
1,note_on,68,0,0
1,note_on,73,77,0
1,note_on,61,65,0
1,note_on,68,64,120
1,note_on,65,64,0
1,note_on,65,0,120
1,note_on,73,0,0
1,note_on,61,0,0
1,note_on,68,0,0
1,note_on,77,82,0
1,note_on,65,70,0
1,note_on,71,63,120
1,note_on,73,63,0
1,note_on,73,0,120
1,note_on,77,0,0
1,note_on,65,0,0
1,note_on,71,0,0
1,note_on,80,76,0
1,note_on,68,65,0
1,note_on,71,65,120
1,note_on,73,65,0
1,note_on,73,0,120
1,note_on,80,0,0
1,note_on,68,0,0
1,note_on,71,0,0
1,note_on,80,85,0
1,note_on,68,71,0
1,note_on,70,64,120
1,note_on,73,64,0
1,note_on,73,0,120
1,note_on,80,0,0
1,note_on,68,0,0
1,note_on,70,0,0
1,note_on,78,80,0
1,note_on,66,68,0
1,note_on,70,62,120
1,note_on,73,62,0
1,note_on,73,0,120
1,note_on,78,0,0
1,note_on,66,0,0
1,note_on,70,0,0
1,note_on,70,97,0
1,note_on,82,97,0
1,note_on,82,0,60
1,note_on,70,0,0
1,note_on,78,91,60
1,note_on,78,0,60
1,note_on,80,94,0
1,note_on,80,0,60
1,note_on,82,97,0
1,note_on,70,97,0
1,note_on,70,0,60
1,note_on,82,0,0
1,note_on,78,88,60
1,note_on,70,88,0
1,note_on,70,0,60
1,note_on,78,0,0
1,note_on,82,94,60
1,note_on,70,94,0
1,note_on,70,0,60
1,note_on,82,0,0
1,note_on,80,89,0
1,note_on,80,0,60
1,note_on,78,89,0
1,note_on,78,0,60
1,note_on,58,74,60
1,note_on,66,88,0
1,note_on,61,74,0
1,note_on,61,0,60
1,note_on,66,0,0
1,note_on,58,0,0
1,note_on,57,69,60
1,note_on,65,81,0
1,note_on,60,69,0
1,note_on,60,0,60
1,note_on,65,0,0
1,note_on,57,0,0
1,note_on,57,75,60
1,note_on,65,89,0
1,note_on,60,75,0
1,note_on,60,0,360
1,note_on,65,0,0
1,note_on,57,0,0
1,note_on,75,90,0
1,note_on,75,0,60
1,note_on,77,91,0
1,note_on,77,0,60
1,note_on,66,93,0
1,note_on,78,93,0
1,note_on,78,0,60
1,note_on,66,0,0
1,note_on,75,87,60
1,note_on,75,0,60
1,note_on,77,90,0
1,note_on,77,0,60
1,note_on,78,93,0
1,note_on,66,93,0
1,note_on,66,0,60
1,note_on,78,0,0
1,note_on,75,84,60
1,note_on,66,84,0
1,note_on,66,0,60
1,note_on,75,0,0
1,note_on,78,90,60
1,note_on,66,90,0
1,note_on,66,0,60
1,note_on,78,0,0
1,note_on,77,83,0
1,note_on,77,0,60
1,note_on,75,83,0
1,note_on,75,0,60
1,note_on,74,83,0
1,note_on,74,0,60
1,note_on,75,90,0
1,note_on,75,0,60
1,note_on,66,55,300
1,note_on,54,46,0
1,note_on,58,46,0
1,note_on,58,0,60
1,note_on,54,0,0
1,note_on,66,0,0
1,note_on,66,58,60
1,note_on,54,49,0
1,note_on,59,49,0
1,note_on,59,0,60
1,note_on,54,0,0
1,note_on,66,0,0
1,note_on,68,60,60
1,note_on,56,51,0
1,note_on,60,51,0
1,note_on,60,0,60
1,note_on,56,0,0
1,note_on,68,0,0
1,note_on,68,65,60
1,note_on,56,55,0
1,note_on,61,55,0
1,note_on,61,0,60
1,note_on,56,0,0
1,note_on,68,0,0
1,note_on,66,59,60
1,note_on,70,59,0
1,note_on,58,50,0
1,note_on,58,0,60
1,note_on,70,0,0
1,note_on,66,0,0
1,note_on,71,63,60
1,note_on,59,53,0
1,note_on,66,53,0
1,note_on,66,0,60
1,note_on,59,0,0
1,note_on,71,0,0
1,note_on,72,67,60
1,note_on,60,56,0
1,note_on,68,56,0
1,note_on,68,0,60
1,note_on,60,0,0
1,note_on,72,0,0
1,note_on,73,70,60
1,note_on,61,59,0
1,note_on,68,59,0
1,note_on,68,0,60
1,note_on,61,0,0
1,note_on,73,0,0
1,note_on,78,63,60
1,note_on,66,52,0
1,note_on,70,52,0
1,note_on,70,0,60
1,note_on,66,0,0
1,note_on,78,0,0
1,note_on,78,66,60
1,note_on,66,55,0
1,note_on,71,55,0
1,note_on,71,0,60
1,note_on,66,0,0
1,note_on,78,0,0
1,note_on,80,69,60
1,note_on,68,58,0
1,note_on,72,58,0
1,note_on,72,0,60
1,note_on,68,0,0
1,note_on,80,0,0
1,note_on,80,74,60
1,note_on,68,63,0
1,note_on,73,63,0
1,note_on,73,0,60
1,note_on,68,0,0
1,note_on,80,0,0
1,note_on,78,67,60
1,note_on,82,67,0
1,note_on,70,57,0
1,note_on,70,0,60
1,note_on,82,0,0
1,note_on,78,0,0
1,note_on,83,72,60
1,note_on,71,60,0
1,note_on,78,60,0
1,note_on,78,0,60
1,note_on,71,0,0
1,note_on,83,0,0
1,note_on,84,76,60
1,note_on,72,64,0
1,note_on,80,64,0
1,note_on,80,0,60
1,note_on,72,0,0
1,note_on,84,0,0
1,note_on,85,80,60
1,note_on,73,67,0
1,note_on,80,67,0
1,note_on,80,0,60
1,note_on,73,0,0
1,note_on,85,0,0
1,note_on,90,73,60
1,note_on,78,62,0
1,note_on,82,62,0
1,note_on,82,0,60
1,note_on,78,0,0
1,note_on,90,0,0
1,note_on,90,75,60
1,note_on,78,63,0
1,note_on,83,63,0
1,note_on,83,0,60
1,note_on,78,0,0
1,note_on,90,0,0
1,note_on,92,77,60
1,note_on,80,65,0
1,note_on,84,65,0
1,note_on,84,0,60
1,note_on,80,0,0
1,note_on,92,0,0
1,note_on,92,78,60
1,note_on,80,66,0
1,note_on,85,66,0
1,note_on,85,0,60
1,note_on,80,0,0
1,note_on,92,0,0
1,note_on,92,80,60
1,note_on,80,68,0
1,note_on,84,68,0
1,note_on,84,0,60
1,note_on,80,0,0
1,note_on,92,0,0
1,note_on,92,82,60
1,note_on,80,69,0
1,note_on,85,69,0
1,note_on,85,0,60
1,note_on,80,0,0
1,note_on,92,0,0
1,note_on,92,84,60
1,note_on,80,71,0
1,note_on,84,71,0
1,note_on,84,0,60
1,note_on,80,0,0
1,note_on,92,0,0
1,note_on,92,88,60
1,note_on,80,74,0
1,note_on,85,74,0
1,note_on,85,0,60
1,note_on,80,0,0
1,note_on,92,0,0
1,note_on,92,81,60
1,note_on,80,68,0
1,note_on,84,68,0
1,note_on,84,0,60
1,note_on,80,0,0
1,note_on,92,0,0
1,note_on,92,83,60
1,note_on,80,70,0
1,note_on,85,70,0
1,note_on,85,0,60
1,note_on,80,0,0
1,note_on,92,0,0
1,note_on,92,85,60
1,note_on,80,71,0
1,note_on,84,71,0
1,note_on,84,0,60
1,note_on,80,0,0
1,note_on,92,0,0
1,note_on,92,95,60
1,note_on,80,80,0
1,note_on,85,80,0
1,note_on,85,0,60
1,note_on,80,0,0
1,note_on,92,0,0
1,note_on,92,90,60
1,note_on,80,76,0
1,note_on,84,76,0
1,note_on,84,0,60
1,note_on,80,0,0
1,note_on,92,0,0
1,note_on,92,92,60
1,note_on,80,77,0
1,note_on,85,77,0
1,note_on,85,0,60
1,note_on,80,0,0
1,note_on,92,0,0
1,note_on,92,94,60
1,note_on,80,80,0
1,note_on,84,80,0
1,note_on,84,0,60
1,note_on,80,0,0
1,note_on,92,0,0
1,note_on,92,106,60
1,note_on,80,90,0
1,note_on,85,90,0
1,note_on,85,0,60
1,note_on,80,0,0
1,note_on,92,0,0
1,note_on,80,72,60
1,note_on,68,60,0
1,note_on,73,60,0
1,note_on,73,0,60
1,note_on,68,0,0
1,note_on,80,0,0
1,note_on,67,63,0
1,note_on,65,53,0
1,note_on,65,0,60
1,note_on,67,0,0
1,note_on,82,78,0
1,note_on,70,66,0
1,note_on,73,66,0
1,note_on,73,0,60
1,note_on,70,0,0
1,note_on,82,0,0
1,note_on,65,63,0
1,note_on,61,53,0
1,note_on,61,0,60
1,note_on,65,0,0
1,note_on,80,71,0
1,note_on,68,59,0
1,note_on,73,59,0
1,note_on,73,0,60
1,note_on,68,0,0
1,note_on,80,0,0
1,note_on,67,64,0
1,note_on,65,54,0
1,note_on,65,0,60
1,note_on,67,0,0
1,note_on,82,77,0
1,note_on,70,66,0
1,note_on,73,66,0
1,note_on,73,0,60
1,note_on,70,0,0
1,note_on,82,0,0
1,note_on,65,65,0
1,note_on,61,54,0
1,note_on,61,0,60
1,note_on,65,0,0
1,note_on,80,74,0
1,note_on,68,61,0
1,note_on,73,61,0
1,note_on,73,0,60
1,note_on,68,0,0
1,note_on,80,0,0
1,note_on,67,65,0
1,note_on,65,55,0
1,note_on,65,0,60
1,note_on,67,0,0
1,note_on,82,80,0
1,note_on,70,67,0
1,note_on,73,67,0
1,note_on,73,0,60
1,note_on,70,0,0
1,note_on,82,0,0
1,note_on,65,67,0
1,note_on,61,56,0
1,note_on,61,0,60
1,note_on,65,0,0
1,note_on,80,73,0
1,note_on,68,61,0
1,note_on,73,61,0
1,note_on,73,0,60
1,note_on,68,0,0
1,note_on,80,0,0
1,note_on,67,67,0
1,note_on,65,56,0
1,note_on,65,0,60
1,note_on,67,0,0
1,note_on,82,81,0
1,note_on,70,68,0
1,note_on,73,68,0
1,note_on,73,0,60
1,note_on,70,0,0
1,note_on,82,0,0
1,note_on,65,68,0
1,note_on,61,57,0
1,note_on,61,0,60
1,note_on,65,0,0
1,note_on,80,75,0
1,note_on,68,62,0
1,note_on,73,62,0
1,note_on,73,0,60
1,note_on,68,0,0
1,note_on,80,0,0
1,note_on,67,69,0
1,note_on,65,57,0
1,note_on,65,0,60
1,note_on,67,0,0
1,note_on,82,80,0
1,note_on,70,67,0
1,note_on,73,67,0
1,note_on,73,0,60
1,note_on,70,0,0
1,note_on,82,0,0
1,note_on,65,69,0
1,note_on,61,57,0
1,note_on,61,0,60
1,note_on,65,0,0
1,note_on,68,79,0
1,note_on,73,79,0
1,note_on,80,79,0
1,note_on,80,0,60
1,note_on,73,0,0
1,note_on,68,0,0
1,note_on,65,70,0
1,note_on,67,70,0
1,note_on,67,0,60
1,note_on,65,0,0
1,note_on,82,84,0
1,note_on,70,72,0
1,note_on,73,72,0
1,note_on,73,0,60
1,note_on,70,0,0
1,note_on,82,0,0
1,note_on,65,71,0
1,note_on,61,58,0
1,note_on,61,0,60
1,note_on,65,0,0
1,note_on,80,79,0
1,note_on,68,67,0
1,note_on,73,67,0
1,note_on,73,0,60
1,note_on,68,0,0
1,note_on,80,0,0
1,note_on,67,72,0
1,note_on,65,60,0
1,note_on,65,0,60
1,note_on,67,0,0
1,note_on,82,83,0
1,note_on,70,71,0
1,note_on,73,71,0
1,note_on,73,0,60
1,note_on,70,0,0
1,note_on,82,0,0
1,note_on,65,68,0
1,note_on,61,57,0
1,note_on,61,0,60
1,note_on,65,0,0
1,note_on,80,77,0
1,note_on,68,66,0
1,note_on,73,66,0
1,note_on,73,0,60
1,note_on,68,0,0
1,note_on,80,0,0
1,note_on,89,64,60
1,note_on,85,64,0
1,note_on,85,0,60
1,note_on,89,0,0
1,note_on,87,63,0
1,note_on,87,0,60
1,note_on,85,62,0
1,note_on,85,0,60
1,note_on,79,60,0
1,note_on,79,0,60
1,note_on,73,59,0
1,note_on,77,59,0
1,note_on,77,0,60
1,note_on,73,0,0
1,note_on,75,58,0
1,note_on,75,0,60
1,note_on,73,56,0
1,note_on,73,0,60
1,note_on,67,55,0
1,note_on,67,0,60
1,note_on,89,64,0
1,note_on,85,64,0
1,note_on,85,0,60
1,note_on,89,0,0
1,note_on,87,63,0
1,note_on,87,0,60
1,note_on,85,62,0
1,note_on,85,0,60
1,note_on,79,60,0
1,note_on,79,0,60
1,note_on,73,59,0
1,note_on,77,59,0
1,note_on,77,0,60
1,note_on,73,0,0
1,note_on,75,58,0
1,note_on,75,0,60
1,note_on,73,56,0
1,note_on,73,0,60
1,note_on,67,55,0
1,note_on,67,0,60
1,note_on,94,64,0
1,note_on,90,64,0
1,note_on,90,0,60
1,note_on,94,0,0
1,note_on,92,63,0
1,note_on,92,0,60
1,note_on,90,62,0
1,note_on,90,0,60
1,note_on,84,60,0
1,note_on,84,0,60
1,note_on,78,59,0
1,note_on,82,59,0
1,note_on,82,0,60
1,note_on,78,0,0
1,note_on,80,58,0
1,note_on,80,0,60
1,note_on,78,56,0
1,note_on,78,0,60
1,note_on,72,55,0
1,note_on,72,0,60
1,note_on,94,64,0
1,note_on,90,64,0
1,note_on,90,0,60
1,note_on,94,0,0
1,note_on,92,63,0
1,note_on,92,0,60
1,note_on,90,62,0
1,note_on,90,0,60
1,note_on,84,60,0
1,note_on,84,0,60
1,note_on,78,59,0
1,note_on,82,59,0
1,note_on,82,0,60
1,note_on,78,0,0
1,note_on,80,58,0
1,note_on,80,0,60
1,note_on,78,56,0
1,note_on,78,0,60
1,note_on,72,55,0
1,note_on,72,0,60
1,note_on,73,64,0
1,note_on,73,0,60
1,note_on,92,72,60
1,note_on,80,60,0
1,note_on,85,60,0
1,note_on,85,0,60
1,note_on,80,0,0
1,note_on,92,0,0
1,note_on,79,63,0
1,note_on,77,53,0
1,note_on,77,0,60
1,note_on,79,0,0
1,note_on,94,78,0
1,note_on,82,66,0
1,note_on,85,66,0
1,note_on,85,0,60
1,note_on,82,0,0
1,note_on,94,0,0
1,note_on,77,63,0
1,note_on,73,53,0
1,note_on,73,0,60
1,note_on,77,0,0
1,note_on,92,71,0
1,note_on,80,59,0
1,note_on,85,59,0
1,note_on,85,0,60
1,note_on,80,0,0
1,note_on,92,0,0
1,note_on,79,64,0
1,note_on,77,54,0
1,note_on,77,0,60
1,note_on,79,0,0
1,note_on,94,77,0
1,note_on,82,66,0
1,note_on,85,66,0
1,note_on,85,0,60
1,note_on,82,0,0
1,note_on,94,0,0
1,note_on,77,65,0
1,note_on,73,54,0
1,note_on,73,0,60
1,note_on,77,0,0
1,note_on,92,74,0
1,note_on,80,61,0
1,note_on,85,61,0
1,note_on,85,0,60
1,note_on,80,0,0
1,note_on,92,0,0
1,note_on,79,65,0
1,note_on,77,55,0
1,note_on,77,0,60
1,note_on,79,0,0
1,note_on,94,80,0
1,note_on,82,67,0
1,note_on,85,67,0
1,note_on,85,0,60
1,note_on,82,0,0
1,note_on,94,0,0
1,note_on,77,67,0
1,note_on,73,56,0
1,note_on,73,0,60
1,note_on,77,0,0
1,note_on,92,73,0
1,note_on,80,61,0
1,note_on,85,61,0
1,note_on,85,0,60
1,note_on,80,0,0
1,note_on,92,0,0
1,note_on,79,67,0
1,note_on,77,56,0
1,note_on,77,0,60
1,note_on,79,0,0
1,note_on,94,81,0
1,note_on,82,68,0
1,note_on,85,68,0
1,note_on,85,0,60
1,note_on,82,0,0
1,note_on,94,0,0
1,note_on,77,68,0
1,note_on,73,57,0
1,note_on,73,0,60
1,note_on,77,0,0
1,note_on,92,75,0
1,note_on,80,62,0
1,note_on,85,62,0
1,note_on,85,0,60
1,note_on,80,0,0
1,note_on,92,0,0
1,note_on,79,69,0
1,note_on,77,57,0
1,note_on,77,0,60
1,note_on,79,0,0
1,note_on,94,80,0
1,note_on,82,67,0
1,note_on,85,67,0
1,note_on,85,0,60
1,note_on,82,0,0
1,note_on,94,0,0
1,note_on,77,69,0
1,note_on,73,57,0
1,note_on,73,0,60
1,note_on,77,0,0
1,note_on,80,79,0
1,note_on,85,79,0
1,note_on,92,79,0
1,note_on,92,0,60
1,note_on,85,0,0
1,note_on,80,0,0
1,note_on,77,70,0
1,note_on,79,70,0
1,note_on,79,0,60
1,note_on,77,0,0
1,note_on,94,84,0
1,note_on,82,72,0
1,note_on,85,72,0
1,note_on,85,0,60
1,note_on,82,0,0
1,note_on,94,0,0
1,note_on,77,71,0
1,note_on,73,58,0
1,note_on,73,0,60
1,note_on,77,0,0
1,note_on,92,79,0
1,note_on,80,67,0
1,note_on,85,67,0
1,note_on,85,0,60
1,note_on,80,0,0
1,note_on,92,0,0
1,note_on,79,72,0
1,note_on,77,60,0
1,note_on,77,0,60
1,note_on,79,0,0
1,note_on,94,83,0
1,note_on,82,71,0
1,note_on,85,71,0
1,note_on,85,0,60
1,note_on,82,0,0
1,note_on,94,0,0
1,note_on,77,68,0
1,note_on,73,57,0
1,note_on,73,0,60
1,note_on,77,0,0
1,note_on,92,77,0
1,note_on,80,66,0
1,note_on,85,66,0
1,note_on,85,0,60
1,note_on,80,0,0
1,note_on,92,0,0
1,note_on,101,64,60
1,note_on,97,64,0
1,note_on,97,0,60
1,note_on,101,0,0
1,note_on,99,63,0
1,note_on,99,0,60
1,note_on,97,62,0
1,note_on,97,0,60
1,note_on,91,60,0
1,note_on,91,0,60
1,note_on,85,59,0
1,note_on,89,59,0
1,note_on,89,0,60
1,note_on,85,0,0
1,note_on,87,58,0
1,note_on,87,0,60
1,note_on,85,56,0
1,note_on,85,0,60
1,note_on,79,55,0
1,note_on,79,0,60
1,note_on,89,64,0
1,note_on,85,64,0
1,note_on,85,0,60
1,note_on,89,0,0
1,note_on,87,63,0
1,note_on,87,0,60
1,note_on,85,62,0
1,note_on,85,0,60
1,note_on,79,60,0
1,note_on,79,0,60
1,note_on,73,59,0
1,note_on,77,59,0
1,note_on,77,0,60
1,note_on,73,0,0
1,note_on,75,58,0
1,note_on,75,0,60
1,note_on,73,56,0
1,note_on,73,0,60
1,note_on,67,55,0
1,note_on,67,0,60
1,note_on,94,64,0
1,note_on,90,64,0
1,note_on,90,0,60
1,note_on,94,0,0
1,note_on,92,63,0
1,note_on,92,0,60
1,note_on,90,62,0
1,note_on,90,0,60
1,note_on,84,60,0
1,note_on,84,0,60
1,note_on,78,59,0
1,note_on,82,59,0
1,note_on,82,0,60
1,note_on,78,0,0
1,note_on,80,58,0
1,note_on,80,0,60
1,note_on,78,56,0
1,note_on,78,0,60
1,note_on,72,55,0
1,note_on,72,0,60
1,note_on,82,64,0
1,note_on,78,64,0
1,note_on,78,0,60
1,note_on,82,0,0
1,note_on,80,63,0
1,note_on,80,0,60
1,note_on,78,62,0
1,note_on,78,0,60
1,note_on,72,60,0
1,note_on,72,0,60
1,note_on,66,59,0
1,note_on,70,59,0
1,note_on,70,0,60
1,note_on,66,0,0
1,note_on,68,58,0
1,note_on,68,0,60
1,note_on,66,56,0
1,note_on,66,0,60
1,note_on,60,55,0
1,note_on,60,0,60
1,note_on,73,58,120
1,note_on,65,49,0
1,note_on,68,49,0
1,note_on,68,0,60
1,note_on,65,0,0
1,note_on,73,0,0
1,note_on,85,60,180
1,note_on,80,51,0
1,note_on,77,51,0
1,note_on,73,51,0
1,note_on,73,0,60
1,note_on,85,0,0
1,note_on,80,0,0
1,note_on,77,0,0
1,note_on,73,62,180
1,note_on,76,62,0
1,note_on,64,52,0
1,note_on,69,52,0
1,note_on,69,0,60
1,note_on,73,0,0
1,note_on,76,0,0
1,note_on,64,0,0
1,note_on,88,64,180
1,note_on,85,54,0
1,note_on,81,54,0
1,note_on,76,54,0
1,note_on,76,0,60
1,note_on,88,0,0
1,note_on,85,0,0
1,note_on,81,0,0
1,note_on,77,66,180
1,note_on,65,56,0
1,note_on,69,56,0
1,note_on,72,56,0
1,note_on,72,0,60
1,note_on,77,0,0
1,note_on,65,0,0
1,note_on,69,0,0
1,note_on,89,68,180
1,note_on,84,57,0
1,note_on,81,57,0
1,note_on,77,57,0
1,note_on,77,0,60
1,note_on,89,0,0
1,note_on,84,0,0
1,note_on,81,0,0
1,note_on,78,70,180
1,note_on,74,59,0
1,note_on,66,59,0
1,note_on,66,0,60
1,note_on,74,0,0
1,note_on,78,0,0
1,note_on,90,72,180
1,note_on,86,72,0
1,note_on,78,61,0
1,note_on,78,0,60
1,note_on,86,0,0
1,note_on,90,0,0
1,note_on,68,58,180
1,note_on,77,69,0
1,note_on,65,58,0
1,note_on,73,58,0
1,note_on,73,0,60
1,note_on,68,0,0
1,note_on,77,0,0
1,note_on,65,0,0
1,note_on,89,72,180
1,note_on,85,61,0
1,note_on,80,61,0
1,note_on,77,61,0
1,note_on,77,0,60
1,note_on,89,0,0
1,note_on,85,0,0
1,note_on,80,0,0
1,note_on,73,74,180
1,note_on,81,74,0
1,note_on,76,62,0
1,note_on,69,62,0
1,note_on,69,0,60
1,note_on,73,0,0
1,note_on,81,0,0
1,note_on,76,0,0
1,note_on,90,76,180
1,note_on,85,64,0
1,note_on,81,64,0
1,note_on,88,64,0
1,note_on,88,0,60
1,note_on,90,0,0
1,note_on,85,0,0
1,note_on,81,0,0
1,note_on,81,79,180
1,note_on,77,67,0
1,note_on,69,67,0
1,note_on,72,67,0
1,note_on,72,0,60
1,note_on,81,0,0
1,note_on,77,0,0
1,note_on,69,0,0
1,note_on,93,81,180
1,note_on,84,68,0
1,note_on,81,68,0
1,note_on,89,68,0
1,note_on,89,0,60
1,note_on,93,0,0
1,note_on,84,0,0
1,note_on,81,0,0
1,note_on,69,70,180
1,note_on,81,84,0
1,note_on,74,70,0
1,note_on,78,70,0
1,note_on,78,0,60
1,note_on,69,0,0
1,note_on,81,0,0
1,note_on,74,0,0
1,note_on,81,86,180
1,note_on,93,86,0
1,note_on,86,86,0
1,note_on,90,73,0
1,note_on,90,0,60
1,note_on,81,0,0
1,note_on,93,0,0
1,note_on,86,0,0
1,note_on,77,58,180
1,note_on,85,69,0
1,note_on,73,58,0
1,note_on,80,58,0
1,note_on,80,0,60
1,note_on,77,0,0
1,note_on,85,0,0
1,note_on,73,0,0
1,note_on,97,72,180
1,note_on,92,61,0
1,note_on,89,61,0
1,note_on,85,61,0
1,note_on,85,0,60
1,note_on,97,0,0
1,note_on,92,0,0
1,note_on,89,0,0
1,note_on,81,74,180
1,note_on,88,74,0
1,note_on,85,62,0
1,note_on,76,62,0
1,note_on,76,0,60
1,note_on,81,0,0
1,note_on,88,0,0
1,note_on,85,0,0
1,note_on,100,76,180
1,note_on,93,64,0
1,note_on,88,64,0
1,note_on,97,64,0
1,note_on,97,0,60
1,note_on,100,0,0
1,note_on,93,0,0
1,note_on,88,0,0
1,note_on,89,79,180
1,note_on,84,67,0
1,note_on,77,67,0
1,note_on,81,67,0
1,note_on,81,0,60
1,note_on,89,0,0
1,note_on,84,0,0
1,note_on,77,0,0
1,note_on,101,81,180
1,note_on,93,68,0
1,note_on,89,68,0
1,note_on,96,68,0
1,note_on,96,0,60
1,note_on,101,0,0
1,note_on,93,0,0
1,note_on,89,0,0
1,note_on,78,70,180
1,note_on,90,84,0
1,note_on,86,70,0
1,note_on,86,0,60
1,note_on,90,0,0
1,note_on,78,0,0
1,note_on,90,73,180
1,note_on,102,73,0
1,note_on,98,73,0
1,note_on,98,0,60
1,note_on,102,0,0
1,note_on,90,0,0
1,note_on,90,89,180
1,note_on,78,75,0
1,note_on,83,75,0
1,note_on,87,75,0
1,note_on,87,0,60
1,note_on,90,0,0
1,note_on,78,0,0
1,note_on,83,0,0
1,note_on,102,92,180
1,note_on,99,78,0
1,note_on,95,78,0
1,note_on,90,78,0
1,note_on,90,0,60
1,note_on,102,0,0
1,note_on,99,0,0
1,note_on,95,0,0
1,note_on,91,94,180
1,note_on,86,94,0
1,note_on,83,79,0
1,note_on,79,79,0
1,note_on,79,0,60
1,note_on,91,0,0
1,note_on,86,0,0
1,note_on,83,0,0
1,note_on,103,97,180
1,note_on,95,82,0
1,note_on,91,82,0
1,note_on,98,82,0
1,note_on,98,0,60
1,note_on,103,0,0
1,note_on,95,0,0
1,note_on,91,0,0
1,note_on,92,100,60
1,note_on,80,85,0
1,note_on,88,85,0
1,note_on,88,0,120
1,note_on,80,0,0
1,note_on,92,0,0
1,note_on,92,100,120
1,note_on,80,85,0
1,note_on,88,85,0
1,note_on,88,0,120
1,note_on,80,0,0
1,note_on,92,0,0
1,note_on,92,107,120
1,note_on,88,90,0
1,note_on,80,90,0
1,note_on,80,0,240
1,note_on,88,0,0
1,note_on,92,0,0
1,note_on,90,100,0
1,note_on,87,85,0
1,note_on,78,85,0
1,note_on,78,0,60
1,note_on,87,0,0
1,note_on,90,0,0
1,note_on,88,100,60
1,note_on,76,85,0
1,note_on,85,85,0
1,note_on,85,0,60
1,note_on,76,0,0
1,note_on,88,0,0
1,note_on,87,85,60
1,note_on,75,85,0
1,note_on,83,85,0
1,note_on,83,0,60
1,note_on,75,0,0
1,note_on,87,0,0
1,note_on,88,102,60
1,note_on,76,86,0
1,note_on,85,86,0
1,note_on,85,0,60
1,note_on,76,0,0
1,note_on,88,0,0
1,note_on,90,105,60
1,note_on,78,89,0
1,note_on,87,89,0
1,note_on,87,0,60
1,note_on,78,0,0
1,note_on,90,0,0
1,note_on,92,107,180
1,note_on,88,90,0
1,note_on,80,90,0
1,note_on,80,0,240
1,note_on,88,0,0
1,note_on,92,0,0
1,note_on,90,100,0
1,note_on,78,85,0
1,note_on,87,85,0
1,note_on,87,0,60
1,note_on,78,0,0
1,note_on,90,0,0
1,note_on,88,100,60
1,note_on,76,85,0
1,note_on,85,85,0
1,note_on,85,0,60
1,note_on,76,0,0
1,note_on,88,0,0
1,note_on,87,104,60
1,note_on,75,88,0
1,note_on,83,88,0
1,note_on,83,0,60
1,note_on,75,0,0
1,note_on,87,0,0
1,note_on,88,98,60
1,note_on,76,83,0
1,note_on,85,83,0
1,note_on,85,0,60
1,note_on,76,0,0
1,note_on,88,0,0
1,note_on,90,100,60
1,note_on,78,85,0
1,note_on,87,85,0
1,note_on,87,0,60
1,note_on,78,0,0
1,note_on,90,0,0
1,note_on,92,105,180
1,note_on,88,89,0
1,note_on,80,89,0
1,note_on,80,0,240
1,note_on,88,0,0
1,note_on,92,0,0
1,note_on,90,101,0
1,note_on,78,85,0
1,note_on,87,85,0
1,note_on,87,0,60
1,note_on,78,0,0
1,note_on,90,0,0
1,note_on,88,101,60
1,note_on,76,85,0
1,note_on,85,85,0
1,note_on,85,0,60
1,note_on,76,0,0
1,note_on,88,0,0
1,note_on,87,99,60
1,note_on,75,84,0
1,note_on,83,84,0
1,note_on,83,0,60
1,note_on,75,0,0
1,note_on,87,0,0
1,note_on,88,101,60
1,note_on,76,85,0
1,note_on,85,85,0
1,note_on,85,0,60
1,note_on,76,0,0
1,note_on,88,0,0
1,note_on,90,104,60
1,note_on,78,88,0
1,note_on,87,88,0
1,note_on,87,0,60
1,note_on,78,0,0
1,note_on,90,0,0
1,note_on,92,107,60
1,note_on,80,90,0
1,note_on,80,0,60
1,note_on,92,0,0
1,note_on,90,107,60
1,note_on,85,90,0
1,note_on,78,90,0
1,note_on,78,0,60
1,note_on,85,0,0
1,note_on,90,0,0
1,note_on,88,106,60
1,note_on,76,90,0
1,note_on,76,0,60
1,note_on,88,0,0
1,note_on,87,104,60
1,note_on,75,88,0
1,note_on,75,0,60
1,note_on,87,0,0
1,note_on,85,102,60
1,note_on,73,86,0
1,note_on,73,0,60
1,note_on,85,0,0
1,note_on,89,103,60
1,note_on,77,87,0
1,note_on,80,87,0
1,note_on,85,87,0
1,note_on,85,0,420
1,note_on,89,0,0
1,note_on,77,0,0
1,note_on,80,0,0
1,note_on,87,101,0
1,note_on,75,85,0
1,note_on,75,0,60
1,note_on,87,0,0
1,note_on,84,92,0
1,note_on,90,109,0
1,note_on,78,92,0
1,note_on,78,0,360
1,note_on,90,0,0
1,note_on,84,0,0
1,note_on,84,101,0
1,note_on,72,85,0
1,note_on,72,0,120
1,note_on,84,0,0
1,note_on,87,107,0
1,note_on,75,90,0
1,note_on,75,0,60
1,note_on,87,0,0
1,note_on,85,98,180
1,note_on,73,83,0
1,note_on,77,83,0
1,note_on,80,83,0
1,note_on,80,0,480
1,note_on,85,0,0
1,note_on,73,0,0
1,note_on,77,0,0
1,note_on,85,98,0
1,note_on,73,83,0
1,note_on,77,83,0
1,note_on,77,0,120
1,note_on,73,0,0
1,note_on,85,0,0
1,note_on,94,108,120
1,note_on,82,91,0
1,note_on,85,91,0
1,note_on,85,0,120
1,note_on,82,0,0
1,note_on,94,0,0
1,note_on,94,105,120
1,note_on,82,89,0
1,note_on,85,89,0
1,note_on,85,0,120
1,note_on,82,0,0
1,note_on,94,0,0
1,note_on,92,108,120
1,note_on,80,91,0
1,note_on,83,91,0
1,note_on,86,91,0
1,note_on,86,0,480
1,note_on,92,0,0
1,note_on,80,0,0
1,note_on,83,0,0
1,note_on,90,100,0
1,note_on,78,85,0
1,note_on,82,85,0
1,note_on,82,0,120
1,note_on,78,0,0
1,note_on,90,0,0
1,note_on,90,105,120
1,note_on,78,89,0
1,note_on,82,89,0
1,note_on,82,0,480
1,note_on,78,0,0
1,note_on,90,0,0
1,note_on,90,102,0
1,note_on,78,86,0
1,note_on,82,86,0
1,note_on,82,0,240
1,note_on,78,0,0
1,note_on,90,0,0
1,note_on,97,111,0
1,note_on,85,94,0
1,note_on,94,94,0
1,note_on,94,0,240
1,note_on,85,0,0
1,note_on,97,0,0
1,note_on,97,104,0
1,note_on,85,88,0
1,note_on,94,88,0
1,note_on,94,0,240
1,note_on,85,0,0
1,note_on,97,0,0
1,note_on,96,110,0
1,note_on,84,93,0
1,note_on,92,93,0
1,note_on,92,0,240
1,note_on,84,0,0
1,note_on,96,0,0
1,note_on,94,102,0
1,note_on,82,86,0
1,note_on,90,86,0
1,note_on,90,0,240
1,note_on,82,0,0
1,note_on,94,0,0
1,note_on,92,103,0
1,note_on,80,87,0
1,note_on,89,87,0
1,note_on,89,0,120
1,note_on,80,0,0
1,note_on,92,0,0
1,note_on,92,106,120
1,note_on,80,90,0
1,note_on,85,90,0
1,note_on,89,90,0
1,note_on,89,0,480
1,note_on,92,0,0
1,note_on,80,0,0
1,note_on,85,0,0
1,note_on,93,102,120
1,note_on,81,86,0
1,note_on,81,0,120
1,note_on,93,0,0
1,note_on,94,109,0
1,note_on,82,92,0
1,note_on,82,0,120
1,note_on,94,0,0
1,note_on,89,96,240
1,note_on,77,81,0
1,note_on,77,0,120
1,note_on,89,0,0
1,note_on,90,102,0
1,note_on,78,86,0
1,note_on,78,0,120
1,note_on,90,0,0
1,note_on,86,93,0
1,note_on,74,79,0
1,note_on,74,0,120
1,note_on,86,0,0
1,note_on,87,100,0
1,note_on,75,85,0
1,note_on,75,0,120
1,note_on,87,0,0
1,note_on,83,93,0
1,note_on,71,79,0
1,note_on,71,0,120
1,note_on,83,0,0
1,note_on,84,101,0
1,note_on,72,85,0
1,note_on,72,0,120
1,note_on,84,0,0
1,note_on,81,91,0
1,note_on,69,77,0
1,note_on,69,0,120
1,note_on,81,0,0
1,note_on,82,97,0
1,note_on,70,82,0
1,note_on,70,0,120
1,note_on,82,0,0
1,note_on,77,90,0
1,note_on,65,76,0
1,note_on,65,0,120
1,note_on,77,0,0
1,note_on,78,98,0
1,note_on,66,83,0
1,note_on,66,0,120
1,note_on,78,0,0
1,note_on,74,88,0
1,note_on,62,74,0
1,note_on,62,0,120
1,note_on,74,0,0
1,note_on,75,96,0
1,note_on,63,81,0
1,note_on,63,0,120
1,note_on,75,0,0
1,note_on,71,91,0
1,note_on,59,76,0
1,note_on,59,0,120
1,note_on,71,0,0
1,note_on,72,96,0
1,note_on,60,81,0
1,note_on,60,0,120
1,note_on,72,0,0
1,note_on,69,93,0
1,note_on,57,79,0
1,note_on,57,0,120
1,note_on,69,0,0
1,note_on,70,100,0
1,note_on,58,84,0
1,note_on,58,0,120
1,note_on,70,0,0
1,note_on,65,95,0
1,note_on,53,80,0
1,note_on,53,0,120
1,note_on,65,0,0
1,note_on,66,103,0
1,note_on,54,87,0
1,note_on,54,0,120
1,note_on,66,0,0
1,note_on,62,99,0
1,note_on,50,84,0
1,note_on,50,0,120
1,note_on,62,0,0
1,note_on,63,107,0
1,note_on,51,90,0
1,note_on,51,0,120
1,note_on,63,0,0
1,note_on,60,102,0
1,note_on,48,86,0
1,note_on,54,86,0
1,note_on,54,0,120
1,note_on,48,0,0
1,note_on,60,0,0
1,note_on,61,106,0
1,note_on,54,90,0
1,note_on,49,90,0
1,note_on,54,0,360
1,note_on,49,0,60
1,note_on,61,0,0
1,note_on,66,94,20
1,note_on,54,79,0
1,note_on,54,0,40
1,note_on,66,0,0
1,note_on,66,104,0
1,note_on,54,88,0
1,note_on,54,0,420
1,note_on,66,0,0
1,note_on,64,89,20
1,note_on,52,75,0
1,note_on,52,0,40
1,note_on,64,0,0
1,note_on,64,98,0
1,note_on,57,83,0
1,note_on,52,83,0
1,note_on,52,0,180
1,note_on,57,0,0
1,note_on,64,0,0
1,note_on,62,92,20
1,note_on,50,78,0
1,note_on,50,0,40
1,note_on,62,0,0
1,note_on,57,84,0
1,note_on,62,99,0
1,note_on,50,84,0
1,note_on,50,0,180
1,note_on,62,0,0
1,note_on,57,0,0
1,note_on,61,87,20
1,note_on,49,73,0
1,note_on,49,0,40
1,note_on,61,0,0
1,note_on,57,97,0
1,note_on,61,97,0
1,note_on,49,82,0
1,note_on,49,0,180
1,note_on,61,0,0
1,note_on,57,0,0
1,note_on,60,90,20
1,note_on,48,76,0
1,note_on,48,0,40
1,note_on,60,0,0
1,note_on,60,97,0
1,note_on,57,82,0
1,note_on,48,82,0
1,note_on,48,0,180
1,note_on,57,0,0
1,note_on,60,0,0
1,note_on,61,90,20
1,note_on,49,76,0
1,note_on,49,0,40
1,note_on,61,0,0
1,note_on,61,97,0
1,note_on,49,82,0
1,note_on,49,0,240
1,note_on,61,0,0
1,note_on,81,96,240
1,note_on,78,81,0
1,note_on,73,81,0
1,note_on,69,81,0
1,note_on,69,0,240
1,note_on,81,0,0
1,note_on,78,0,0
1,note_on,73,0,0
1,note_on,85,96,240
1,note_on,73,81,0
1,note_on,77,81,0
1,note_on,80,81,0
1,note_on,80,0,240
1,note_on,85,0,0
1,note_on,73,0,0
1,note_on,77,0,0
1,note_on,87,96,0
1,note_on,75,81,0
1,note_on,80,81,0
1,note_on,84,81,0
1,note_on,84,0,240
1,note_on,87,0,0
1,note_on,75,0,0
1,note_on,80,0,0
1,note_on,89,96,0
1,note_on,77,81,0
1,note_on,80,81,0
1,note_on,85,81,0
1,note_on,85,0,240
1,note_on,89,0,0
1,note_on,77,0,0
1,note_on,80,0,0
1,note_on,92,96,0
1,note_on,80,81,0
1,note_on,84,81,0
1,note_on,87,81,0
1,note_on,87,0,240
1,note_on,92,0,0
1,note_on,80,0,0
1,note_on,84,0,0
1,note_on,97,96,0
1,note_on,85,81,0
1,note_on,89,81,0
1,note_on,92,81,0
1,note_on,92,0,240
1,note_on,97,0,0
1,note_on,85,0,0
1,note_on,89,0,0
1,note_on,85,100,720
1,note_on,73,85,0
1,note_on,78,85,0
1,note_on,82,85,0
1,note_on,82,0,240
1,note_on,85,0,0
1,note_on,73,0,0
1,note_on,78,0,0
1,note_on,61,107,720
1,note_on,53,89,0
1,note_on,56,92,0
1,note_on,56,0,240
1,note_on,53,0,0
1,note_on,61,0,0
2,note_on,49,65,1880
2,note_on,61,74,0
2,note_on,61,0,30
2,note_on,49,0,0
2,note_on,49,72,10
2,note_on,61,82,0
2,note_on,61,0,420
2,note_on,49,0,0
2,note_on,54,72,20
2,note_on,66,72,0
2,note_on,66,0,30
2,note_on,54,0,0
2,note_on,66,81,10
2,note_on,54,81,0
2,note_on,54,0,420
2,note_on,66,0,0
2,note_on,52,64,20
2,note_on,64,73,0
2,note_on,64,0,30
2,note_on,52,0,0
2,note_on,52,70,10
2,note_on,64,80,0
2,note_on,64,0,180
2,note_on,52,0,0
2,note_on,51,65,20
2,note_on,63,65,0
2,note_on,63,0,30
2,note_on,51,0,0
2,note_on,51,70,10
2,note_on,63,80,0
2,note_on,63,0,180
2,note_on,51,0,0
2,note_on,49,65,20
2,note_on,61,74,0
2,note_on,61,0,30
2,note_on,49,0,0
2,note_on,49,71,10
2,note_on,61,81,0
2,note_on,61,0,180
2,note_on,49,0,0
2,note_on,48,64,20
2,note_on,60,73,0
2,note_on,60,0,30
2,note_on,48,0,0
2,note_on,48,70,10
2,note_on,60,80,0
2,note_on,60,0,180
2,note_on,48,0,0
2,note_on,49,63,20
2,note_on,61,72,0
2,note_on,61,0,30
2,note_on,49,0,0
2,note_on,49,71,10
2,note_on,61,81,0
2,note_on,61,0,120
2,note_on,49,0,0
2,note_on,31,40,120
2,note_on,31,0,40
2,note_on,40,29,0
2,note_on,40,0,40
2,note_on,31,40,0
2,note_on,31,0,40
2,note_on,40,31,0
2,note_on,40,0,40
2,note_on,31,39,0
2,note_on,31,0,40
2,note_on,40,30,0
2,note_on,40,0,40
2,note_on,31,39,0
2,note_on,31,0,40
2,note_on,40,34,0
2,note_on,40,0,40
2,note_on,31,41,0
2,note_on,31,0,40
2,note_on,40,37,0
2,note_on,40,0,40
2,note_on,31,43,0
2,note_on,31,0,40
2,note_on,40,38,0
2,note_on,40,0,40
2,note_on,31,44,0
2,note_on,31,0,40
2,note_on,40,41,0
2,note_on,40,0,40
2,note_on,31,46,0
2,note_on,31,0,40
2,note_on,40,42,0
2,note_on,40,0,40
2,note_on,31,48,0
2,note_on,31,0,40
2,note_on,40,43,0
2,note_on,40,0,40
2,note_on,31,49,0
2,note_on,31,0,40
2,note_on,40,45,0
2,note_on,40,0,40
2,note_on,31,51,0
2,note_on,31,0,40
2,note_on,40,45,0
2,note_on,40,0,40
2,note_on,31,53,0
2,note_on,31,0,40
2,note_on,40,47,0
2,note_on,40,0,40
2,note_on,31,54,0
2,note_on,31,0,40
2,note_on,40,49,0
2,note_on,40,0,40
2,note_on,31,56,0
2,note_on,31,0,40
2,note_on,40,52,0
2,note_on,40,0,40
2,note_on,31,57,0
2,note_on,31,0,40
2,note_on,40,58,0
2,note_on,40,0,40
2,note_on,31,59,0
2,note_on,31,0,40
2,note_on,40,60,0
2,note_on,40,0,40
2,note_on,31,61,0
2,note_on,31,0,40
2,note_on,40,62,0
2,note_on,40,0,40
2,note_on,31,62,0
2,note_on,31,0,40
2,note_on,40,63,0
2,note_on,40,0,40
2,note_on,31,64,0
2,note_on,31,0,40
2,note_on,40,65,0
2,note_on,40,0,40
2,note_on,31,67,0
2,note_on,31,0,40
2,note_on,40,68,0
2,note_on,40,0,40
2,note_on,31,69,0
2,note_on,31,0,40
2,note_on,40,70,0
2,note_on,40,0,40
2,note_on,30,67,20
2,note_on,39,72,0
2,note_on,39,0,40
2,note_on,30,0,0
2,note_on,31,78,0
2,note_on,40,82,0
2,note_on,40,0,120
2,note_on,31,0,0
2,note_on,29,40,3900
2,note_on,29,0,40
2,note_on,38,29,0
2,note_on,38,0,40
2,note_on,29,40,0
2,note_on,29,0,40
2,note_on,38,31,0
2,note_on,38,0,40
2,note_on,29,39,0
2,note_on,29,0,40
2,note_on,38,30,0
2,note_on,38,0,40
2,note_on,29,39,0
2,note_on,29,0,40
2,note_on,38,34,0
2,note_on,38,0,40
2,note_on,29,41,0
2,note_on,29,0,40
2,note_on,38,37,0
2,note_on,38,0,40
2,note_on,29,43,0
2,note_on,29,0,40
2,note_on,38,38,0
2,note_on,38,0,40
2,note_on,29,44,0
2,note_on,29,0,40
2,note_on,38,41,0
2,note_on,38,0,40
2,note_on,29,46,0
2,note_on,29,0,40
2,note_on,38,42,0
2,note_on,38,0,40
2,note_on,29,48,0
2,note_on,29,0,40
2,note_on,38,43,0
2,note_on,38,0,40
2,note_on,29,49,0
2,note_on,29,0,40
2,note_on,38,45,0
2,note_on,38,0,40
2,note_on,29,51,0
2,note_on,29,0,40
2,note_on,38,45,0
2,note_on,38,0,40
2,note_on,29,53,0
2,note_on,29,0,40
2,note_on,38,47,0
2,note_on,38,0,40
2,note_on,29,54,0
2,note_on,29,0,40
2,note_on,38,49,0
2,note_on,38,0,40
2,note_on,29,56,0
2,note_on,29,0,40
2,note_on,38,52,0
2,note_on,38,0,40
2,note_on,29,57,0
2,note_on,29,0,40
2,note_on,38,58,0
2,note_on,38,0,40
2,note_on,29,59,0
2,note_on,29,0,40
2,note_on,38,60,0
2,note_on,38,0,40
2,note_on,29,61,0
2,note_on,29,0,40
2,note_on,38,63,0
2,note_on,38,0,40
2,note_on,29,64,0
2,note_on,29,0,40
2,note_on,38,65,0
2,note_on,38,0,40
2,note_on,29,66,0
2,note_on,29,0,40
2,note_on,38,67,0
2,note_on,38,0,40
2,note_on,29,68,0
2,note_on,29,0,40
2,note_on,38,69,0
2,note_on,38,0,40
2,note_on,29,70,0
2,note_on,29,0,40
2,note_on,38,71,0
2,note_on,38,0,40
2,note_on,37,72,0
2,note_on,28,65,0
2,note_on,28,0,40
2,note_on,37,0,0
2,note_on,29,75,20
2,note_on,38,81,0
2,note_on,38,0,120
2,note_on,29,0,0
2,note_on,56,73,1680
2,note_on,56,0,60
2,note_on,56,73,0
2,note_on,56,0,840
2,note_on,57,73,0
2,note_on,57,0,60
2,note_on,59,73,0
2,note_on,59,0,60
2,note_on,52,73,0
2,note_on,52,0,480
2,note_on,52,73,360
2,note_on,52,0,120
2,note_on,54,73,0
2,note_on,54,0,660
2,note_on,57,73,0
2,note_on,57,0,60
2,note_on,56,73,0
2,note_on,56,0,60
2,note_on,54,73,0
2,note_on,54,0,60
2,note_on,56,73,0
2,note_on,56,0,60
2,note_on,57,73,0
2,note_on,57,0,60
2,note_on,56,73,0
2,note_on,56,0,480
2,note_on,52,73,360
2,note_on,52,0,120
2,note_on,61,73,0
2,note_on,61,0,840
2,note_on,62,73,0
2,note_on,62,0,60
2,note_on,64,73,0
2,note_on,64,0,60
2,note_on,57,73,0
2,note_on,57,0,480
2,note_on,57,75,360
2,note_on,57,0,120
2,note_on,60,77,0
2,note_on,60,0,660
2,note_on,63,73,0
2,note_on,63,0,60
2,note_on,61,73,0
2,note_on,61,0,60
2,note_on,60,73,0
2,note_on,60,0,60
2,note_on,61,73,0
2,note_on,61,0,60
2,note_on,63,73,0
2,note_on,63,0,60
2,note_on,61,73,0
2,note_on,61,0,480
2,note_on,57,70,3840
2,note_on,57,0,360
2,note_on,59,63,0
2,note_on,61,63,60
2,note_on,59,0,20
2,note_on,54,70,40
2,note_on,61,0,20
2,note_on,54,0,340
2,note_on,56,65,0
2,note_on,57,66,60
2,note_on,56,0,20
2,note_on,49,70,40
2,note_on,57,0,20
2,note_on,49,0,340
2,note_on,51,63,0
2,note_on,52,63,60
2,note_on,51,0,20
2,note_on,45,70,40
2,note_on,52,0,20
2,note_on,45,0,340
2,note_on,47,66,0
2,note_on,49,66,60
2,note_on,47,0,20
2,note_on,42,70,40
2,note_on,49,0,20
2,note_on,42,0,340
2,note_on,44,62,0
2,note_on,45,62,60
2,note_on,44,0,20
2,note_on,39,68,40
2,note_on,45,0,20
2,note_on,39,0,220
2,note_on,40,55,0
2,note_on,40,0,60
2,note_on,39,49,0
2,note_on,39,0,60
2,note_on,40,55,0
2,note_on,40,0,60
2,note_on,39,48,0
2,note_on,39,0,60
2,note_on,40,55,0
2,note_on,40,0,60
2,note_on,39,50,0
2,note_on,39,0,60
2,note_on,40,55,0
2,note_on,40,0,60
2,note_on,39,51,0
2,note_on,39,0,60
2,note_on,40,55,0
2,note_on,40,0,60
2,note_on,39,50,0
2,note_on,39,0,60
2,note_on,40,55,0
2,note_on,40,0,60
2,note_on,39,52,0
2,note_on,39,0,60
2,note_on,40,55,0
2,note_on,40,0,60
2,note_on,39,50,0
2,note_on,39,0,60
2,note_on,40,55,0
2,note_on,40,0,60
2,note_on,39,51,0
2,note_on,39,0,60
2,note_on,40,55,0
2,note_on,40,0,60
2,note_on,39,50,0
2,note_on,39,0,60
2,note_on,40,55,0
2,note_on,40,0,60
2,note_on,39,52,0
2,note_on,39,0,60
2,note_on,40,55,0
2,note_on,40,0,60
2,note_on,39,50,0
2,note_on,39,0,60
2,note_on,40,55,0
2,note_on,40,0,60
2,note_on,39,51,0
2,note_on,39,0,60
2,note_on,40,55,0
2,note_on,40,0,60
2,note_on,39,50,0
2,note_on,39,0,60
2,note_on,40,55,0
2,note_on,40,0,60
2,note_on,39,52,0
2,note_on,39,0,60
2,note_on,38,55,0
2,note_on,39,52,60
2,note_on,38,0,12
2,note_on,40,55,48
2,note_on,39,0,12
2,note_on,39,50,48
2,note_on,40,0,12
2,note_on,37,51,48
2,note_on,39,0,12
2,note_on,35,53,48
2,note_on,37,0,12
2,note_on,33,54,48
2,note_on,35,0,12
2,note_on,32,56,48
2,note_on,33,0,12
2,note_on,33,57,48
2,note_on,32,0,12
2,note_on,29,59,48
2,note_on,33,0,12
2,note_on,29,0,168
2,note_on,30,51,0
2,note_on,32,51,67
2,note_on,30,0,14
2,note_on,33,51,54
2,note_on,32,0,13
2,note_on,35,52,54
2,note_on,33,0,13
2,note_on,37,52,54
2,note_on,35,0,13
2,note_on,37,0,54
2,note_on,39,54,0
2,note_on,40,54,67
2,note_on,39,0,14
2,note_on,42,54,54
2,note_on,40,0,13
2,note_on,44,55,54
2,note_on,42,0,13
2,note_on,45,55,54
2,note_on,44,0,13
2,note_on,47,56,54
2,note_on,45,0,14
2,note_on,49,56,53
2,note_on,47,0,14
2,note_on,51,57,54
2,note_on,49,0,13
2,note_on,52,57,54
2,note_on,51,0,13
2,note_on,48,64,54
2,note_on,52,0,13
2,note_on,51,60,54
2,note_on,48,0,14
2,note_on,49,65,53
2,note_on,51,0,14
2,note_on,47,67,54
2,note_on,49,0,13
2,note_on,45,72,54
2,note_on,47,0,13
2,note_on,44,75,54
2,note_on,45,0,13
2,note_on,45,78,54
2,note_on,44,0,14
2,note_on,41,81,53
2,note_on,45,0,14
2,note_on,42,84,54
2,note_on,41,0,12
2,note_on,43,87,54
2,note_on,42,0,14
2,note_on,44,89,54
2,note_on,43,0,12
2,note_on,44,0,52
2,note_on,44,93,3
2,note_on,44,0,240
2,note_on,32,92,240
2,note_on,32,0,240
2,note_on,64,50,120
2,note_on,73,50,0
2,note_on,61,42,0
2,note_on,61,0,90
2,note_on,73,0,0
2,note_on,64,0,0
2,note_on,73,58,30
2,note_on,61,49,0
2,note_on,64,49,0
2,note_on,64,0,1320
2,note_on,61,0,0
2,note_on,73,0,0
2,note_on,71,50,0
2,note_on,59,42,0
2,note_on,63,42,0
2,note_on,63,0,90
2,note_on,59,0,0
2,note_on,71,0,0
2,note_on,71,58,30
2,note_on,59,49,0
2,note_on,63,49,0
2,note_on,63,0,360
2,note_on,59,0,0
2,note_on,71,0,0
2,note_on,69,50,0
2,note_on,57,42,0
2,note_on,61,42,0
2,note_on,61,0,90
2,note_on,57,0,0
2,note_on,69,0,0
2,note_on,69,56,30
2,note_on,57,47,0
2,note_on,61,47,0
2,note_on,61,0,360
2,note_on,57,0,0
2,note_on,69,0,0
2,note_on,66,50,0
2,note_on,54,42,0
2,note_on,57,42,0
2,note_on,57,0,90
2,note_on,54,0,0
2,note_on,66,0,0
2,note_on,66,56,30
2,note_on,54,47,0
2,note_on,57,47,0
2,note_on,57,0,360
2,note_on,54,0,0
2,note_on,66,0,0
2,note_on,64,52,0
2,note_on,52,44,0
2,note_on,56,44,0
2,note_on,56,0,90
2,note_on,52,0,0
2,note_on,64,0,0
2,note_on,64,58,30
2,note_on,52,49,0
2,note_on,56,49,0
2,note_on,56,0,360
2,note_on,52,0,0
2,note_on,64,0,0
2,note_on,61,50,0
2,note_on,49,42,0
2,note_on,52,42,0
2,note_on,52,0,90
2,note_on,49,0,0
2,note_on,61,0,0
2,note_on,61,56,30
2,note_on,49,47,0
2,note_on,52,47,0
2,note_on,52,0,360
2,note_on,49,0,0
2,note_on,61,0,0
2,note_on,59,50,0
2,note_on,47,42,0
2,note_on,51,42,0
2,note_on,51,0,90
2,note_on,47,0,0
2,note_on,59,0,0
2,note_on,59,57,30
2,note_on,47,47,0
2,note_on,51,47,0
2,note_on,51,0,360
2,note_on,47,0,0
2,note_on,59,0,0
2,note_on,57,53,0
2,note_on,45,45,0
2,note_on,49,45,0
2,note_on,49,0,90
2,note_on,45,0,0
2,note_on,57,0,0
2,note_on,57,58,30
2,note_on,45,48,0
2,note_on,49,48,0
2,note_on,49,0,360
2,note_on,45,0,0
2,note_on,57,0,0
2,note_on,54,55,0
2,note_on,42,46,0
2,note_on,45,46,0
2,note_on,45,0,90
2,note_on,42,0,0
2,note_on,54,0,0
2,note_on,54,59,30
2,note_on,42,50,0
2,note_on,45,50,0
2,note_on,45,0,360
2,note_on,42,0,0
2,note_on,54,0,0
2,note_on,52,56,0
2,note_on,40,47,0
2,note_on,44,47,0
2,note_on,44,0,90
2,note_on,40,0,0
2,note_on,52,0,0
2,note_on,52,60,30
2,note_on,40,50,0
2,note_on,44,50,0
2,note_on,44,0,360
2,note_on,40,0,0
2,note_on,52,0,0
2,note_on,49,58,0
2,note_on,37,48,0
2,note_on,40,48,0
2,note_on,40,0,90
2,note_on,37,0,0
2,note_on,49,0,0
2,note_on,49,61,30
2,note_on,37,51,0
2,note_on,40,51,0
2,note_on,40,0,360
2,note_on,37,0,0
2,note_on,49,0,0
2,note_on,47,59,0
2,note_on,35,49,0
2,note_on,39,49,0
2,note_on,39,0,90
2,note_on,35,0,0
2,note_on,47,0,0
2,note_on,47,63,30
2,note_on,35,53,0
2,note_on,39,53,0
2,note_on,39,0,360
2,note_on,35,0,0
2,note_on,47,0,0
2,note_on,45,60,0
2,note_on,33,50,0
2,note_on,40,50,0
2,note_on,40,0,90
2,note_on,33,0,0
2,note_on,45,0,0
2,note_on,45,81,30
2,note_on,33,68,0
2,note_on,40,68,0
2,note_on,40,0,480
2,note_on,33,0,0
2,note_on,45,0,0
2,note_on,43,80,0
2,note_on,31,68,0
2,note_on,31,0,480
2,note_on,43,0,0
2,note_on,41,84,0
2,note_on,29,71,0
2,note_on,29,0,480
2,note_on,41,0,0
2,note_on,40,84,0
2,note_on,28,71,0
2,note_on,28,0,480
2,note_on,40,0,0
2,note_on,38,83,0
2,note_on,26,70,0
2,note_on,26,0,480
2,note_on,38,0,0
2,note_on,37,80,0
2,note_on,25,68,0
2,note_on,25,0,480
2,note_on,37,0,0
2,note_on,36,85,0
2,note_on,24,72,0
2,note_on,24,0,240
2,note_on,36,0,0
2,note_on,45,81,0
2,note_on,33,69,0
2,note_on,33,0,480
2,note_on,45,0,0
2,note_on,44,79,0
2,note_on,32,67,0
2,note_on,32,0,120
2,note_on,44,0,0
2,note_on,49,63,120
2,note_on,37,53,0
2,note_on,44,53,0
2,note_on,44,0,480
2,note_on,37,0,0
2,note_on,49,0,0
2,note_on,51,62,0
2,note_on,36,52,0
2,note_on,45,52,0
2,note_on,45,0,480
2,note_on,36,0,0
2,note_on,51,0,0
2,note_on,49,59,0
2,note_on,37,50,0
2,note_on,44,50,0
2,note_on,44,0,240
2,note_on,37,0,0
2,note_on,49,0,0
2,note_on,45,52,0
2,note_on,30,44,0
2,note_on,42,44,0
2,note_on,42,0,240
2,note_on,30,0,0
2,note_on,45,0,0
2,note_on,44,60,0
2,note_on,32,51,0
2,note_on,40,51,0
2,note_on,40,0,240
2,note_on,32,0,0
2,note_on,44,0,0
2,note_on,44,57,0
2,note_on,42,48,0
2,note_on,39,48,0
2,note_on,32,48,0
2,note_on,32,0,240
2,note_on,44,0,0
2,note_on,42,0,0
2,note_on,39,0,0
2,note_on,37,52,0
2,note_on,40,52,0
2,note_on,44,57,0
2,note_on,44,0,120
2,note_on,40,0,0
2,note_on,37,0,0
2,note_on,30,52,120
2,note_on,37,52,0
2,note_on,42,57,0
2,note_on,42,0,120
2,note_on,37,0,0
2,note_on,30,0,0
2,note_on,37,52,840
2,note_on,40,57,0
2,note_on,40,0,60
2,note_on,37,0,0
2,note_on,56,63,660
2,note_on,44,53,0
2,note_on,51,53,0
2,note_on,51,0,480
2,note_on,44,0,0
2,note_on,56,0,0
2,note_on,58,62,0
2,note_on,43,52,0
2,note_on,52,52,0
2,note_on,52,0,480
2,note_on,43,0,0
2,note_on,58,0,0
2,note_on,56,59,0
2,note_on,44,50,0
2,note_on,51,50,0
2,note_on,51,0,240
2,note_on,44,0,0
2,note_on,56,0,0
2,note_on,52,52,0
2,note_on,37,44,0
2,note_on,49,44,0
2,note_on,49,0,240
2,note_on,37,0,0
2,note_on,52,0,0
2,note_on,51,60,0
2,note_on,39,51,0
2,note_on,47,51,0
2,note_on,47,0,240
2,note_on,39,0,0
2,note_on,51,0,0
2,note_on,51,57,0
2,note_on,49,48,0
2,note_on,46,48,0
2,note_on,39,48,0
2,note_on,39,0,240
2,note_on,51,0,0
2,note_on,49,0,0
2,note_on,46,0,0
2,note_on,44,52,0
2,note_on,47,52,0
2,note_on,51,57,0
2,note_on,51,0,120
2,note_on,47,0,0
2,note_on,44,0,0
2,note_on,37,46,120
2,note_on,46,50,0
2,note_on,46,0,60
2,note_on,44,45,0
2,note_on,44,0,60
2,note_on,46,50,0
2,note_on,46,0,60
2,note_on,44,45,0
2,note_on,44,0,60
2,note_on,46,50,0
2,note_on,46,0,60
2,note_on,44,45,0
2,note_on,44,0,60
2,note_on,46,50,0
2,note_on,46,0,60
2,note_on,44,45,0
2,note_on,44,0,60
2,note_on,46,50,0
2,note_on,46,0,60
2,note_on,44,45,0
2,note_on,44,0,60
2,note_on,43,50,0
2,note_on,43,0,60
2,note_on,44,45,0
2,note_on,44,0,60
2,note_on,37,0,0
2,note_on,47,54,0
2,note_on,47,0,80
2,note_on,46,49,0
2,note_on,46,0,80
2,note_on,44,49,0
2,note_on,44,0,80
2,note_on,32,41,0
2,note_on,39,41,0
2,note_on,44,45,0
2,note_on,44,0,120
2,note_on,39,0,0
2,note_on,32,0,0
2,note_on,40,44,525
2,note_on,47,46,15
2,note_on,56,48,15
2,note_on,56,0,1965
2,note_on,47,0,0
2,note_on,40,0,0
2,note_on,51,46,0
2,note_on,35,39,0
2,note_on,35,0,960
2,note_on,51,0,0
2,note_on,47,39,0
2,note_on,40,32,0
2,note_on,40,0,880
2,note_on,47,0,0
2,note_on,52,52,20
2,note_on,52,0,54
2,note_on,40,37,6
2,note_on,47,40,0
2,note_on,52,44,0
2,note_on,52,0,720
2,note_on,54,35,0
2,note_on,54,0,120
2,note_on,56,38,0
2,note_on,56,0,120
2,note_on,47,0,0
2,note_on,40,0,0
2,note_on,45,37,0
2,note_on,52,40,0
2,note_on,57,41,0
2,note_on,57,0,320
2,note_on,57,40,0
2,note_on,57,0,160
2,note_on,57,44,0
2,note_on,57,0,128
2,note_on,56,43,32
2,note_on,56,0,128
2,note_on,55,41,32
2,note_on,55,0,128
2,note_on,52,0,32
2,note_on,45,0,0
2,note_on,56,44,0
2,note_on,44,36,0
2,note_on,52,36,0
2,note_on,56,0,477
2,note_on,52,0,3
2,note_on,44,0,0
2,note_on,52,38,0
2,note_on,37,32,0
2,note_on,37,0,480
2,note_on,52,0,0
2,note_on,54,40,0
2,note_on,35,33,0
2,note_on,35,0,480
2,note_on,54,0,0
2,note_on,51,37,0
2,note_on,47,31,0
2,note_on,47,0,480
2,note_on,51,0,0
2,note_on,52,42,0
2,note_on,40,36,0
2,note_on,47,36,0
2,note_on,47,0,480
2,note_on,40,0,0
2,note_on,52,0,0
2,note_on,37,48,1440
2,note_on,37,0,240
2,note_on,64,43,0
2,note_on,61,36,0
2,note_on,56,36,0
2,note_on,52,36,0
2,note_on,52,0,720
2,note_on,64,0,0
2,note_on,61,0,0
2,note_on,56,0,0
2,note_on,37,48,0
2,note_on,37,0,240
2,note_on,68,43,0
2,note_on,64,36,0
2,note_on,61,36,0
2,note_on,56,36,0
2,note_on,56,0,720
2,note_on,68,0,0
2,note_on,64,0,0
2,note_on,61,0,0
2,note_on,32,48,60
2,note_on,44,48,0
2,note_on,44,0,180
2,note_on,32,0,0
2,note_on,54,36,0
2,note_on,56,36,0
2,note_on,60,36,0
2,note_on,63,43,0
2,note_on,63,0,720
2,note_on,54,0,0
2,note_on,56,0,0
2,note_on,60,0,0
2,note_on,37,48,30
2,note_on,49,48,0
2,note_on,49,0,210
2,note_on,37,0,0
2,note_on,52,36,0
2,note_on,56,36,0
2,note_on,61,36,0
2,note_on,64,43,0
2,note_on,64,0,480
2,note_on,52,0,0
2,note_on,56,0,0
2,note_on,61,0,0
2,note_on,56,61,120
2,note_on,49,51,0
2,note_on,49,0,120
2,note_on,56,0,0
2,note_on,54,67,0
2,note_on,42,56,0
2,note_on,49,56,0
2,note_on,49,0,720
2,note_on,42,0,0
2,note_on,54,0,0
2,note_on,66,66,0
2,note_on,66,0,220
2,note_on,66,70,20
2,note_on,66,0,180
2,note_on,64,67,0
2,note_on,64,0,45
2,note_on,64,70,15
2,note_on,64,0,180
2,note_on,63,67,0
2,note_on,63,0,45
2,note_on,63,67,15
2,note_on,63,0,240
2,note_on,63,45,120
2,note_on,54,38,0
2,note_on,57,38,0
2,note_on,57,0,90
2,note_on,54,0,0
2,note_on,63,0,0
2,note_on,44,58,0
2,note_on,61,52,30
2,note_on,61,0,480
2,note_on,44,0,0
2,note_on,64,50,0
2,note_on,56,42,0
2,note_on,56,0,240
2,note_on,64,0,0
2,note_on,44,43,210
2,note_on,60,51,30
2,note_on,60,0,240
2,note_on,44,0,0
2,note_on,63,44,240
2,note_on,56,37,0
2,note_on,56,0,240
2,note_on,63,0,0
2,note_on,61,51,240
2,note_on,49,43,0
2,note_on,56,43,0
2,note_on,56,0,480
2,note_on,49,0,0
2,note_on,61,0,0
2,note_on,54,50,0
2,note_on,44,42,0
2,note_on,44,0,480
2,note_on,54,0,0
2,note_on,52,50,0
2,note_on,37,42,0
2,note_on,37,0,240
2,note_on,52,0,0
2,note_on,49,61,720
2,note_on,37,55,0
2,note_on,49,0,60
2,note_on,48,61,0
2,note_on,48,0,60
2,note_on,47,60,0
2,note_on,47,0,60
2,note_on,46,59,0
2,note_on,46,0,60
2,note_on,45,58,0
2,note_on,45,0,60
2,note_on,44,57,0
2,note_on,44,0,60
2,note_on,43,56,0
2,note_on,43,0,60
2,note_on,44,55,0
2,note_on,44,0,60
2,note_on,37,0,0
2,note_on,45,60,0
2,note_on,36,55,0
2,note_on,45,0,60
2,note_on,44,53,0
2,note_on,44,0,60
2,note_on,43,53,0
2,note_on,43,0,60
2,note_on,42,53,0
2,note_on,42,0,60
2,note_on,41,53,0
2,note_on,41,0,60
2,note_on,40,53,0
2,note_on,40,0,60
2,note_on,39,53,0
2,note_on,39,0,60
2,note_on,36,53,0
2,note_on,36,0,60
2,note_on,36,0,0
2,note_on,37,52,0
2,note_on,38,52,60
2,note_on,38,0,60
2,note_on,39,53,0
2,note_on,39,0,60
2,note_on,40,54,0
2,note_on,40,0,60
2,note_on,37,0,0
2,note_on,41,54,0
2,note_on,30,51,0
2,note_on,41,0,60
2,note_on,42,55,0
2,note_on,42,0,60
2,note_on,41,56,0
2,note_on,41,0,60
2,note_on,42,56,0
2,note_on,42,0,60
2,note_on,30,0,0
2,note_on,32,51,0
2,note_on,43,57,0
2,note_on,43,0,60
2,note_on,44,58,0
2,note_on,44,0,60
2,note_on,43,59,0
2,note_on,43,0,60
2,note_on,44,59,0
2,note_on,44,0,60
2,note_on,32,0,0
2,note_on,45,60,0
2,note_on,45,0,60
2,note_on,44,61,0
2,note_on,44,0,60
2,note_on,45,61,0
2,note_on,45,0,60
2,note_on,44,62,0
2,note_on,44,0,60
2,note_on,37,68,0
2,note_on,44,68,0
2,note_on,44,0,120
2,note_on,37,0,0
2,note_on,30,52,120
2,note_on,37,56,0
2,note_on,37,0,48
2,note_on,39,51,0
2,note_on,39,0,48
2,note_on,37,56,0
2,note_on,30,0,24
2,note_on,37,0,24
2,note_on,39,51,0
2,note_on,39,0,48
2,note_on,37,51,0
2,note_on,37,0,48
2,note_on,36,56,0
2,note_on,36,0,40
2,note_on,37,51,0
2,note_on,37,0,40
2,note_on,39,56,1
2,note_on,39,0,40
2,note_on,40,51,0
2,note_on,40,0,40
2,note_on,42,56,0
2,note_on,42,0,40
2,note_on,44,51,0
2,note_on,44,0,40
2,note_on,45,56,0
2,note_on,45,0,40
2,note_on,44,51,1
2,note_on,44,0,40
2,note_on,42,50,0
2,note_on,42,0,40
2,note_on,40,51,0
2,note_on,40,0,40
2,note_on,39,52,0
2,note_on,39,0,40
2,note_on,37,53,0
2,note_on,37,0,40
2,note_on,36,55,0
2,note_on,36,0,40
2,note_on,37,56,1
2,note_on,37,0,40
2,note_on,39,57,0
2,note_on,39,0,40
2,note_on,40,59,0
2,note_on,40,0,40
2,note_on,39,61,0
2,note_on,39,0,40
2,note_on,37,62,0
2,note_on,25,52,7
2,note_on,37,0,29
2,note_on,40,62,1
2,note_on,40,0,120
2,note_on,25,0,0
2,note_on,56,61,600
2,note_on,44,55,0
2,note_on,56,0,60
2,note_on,55,61,0
2,note_on,55,0,60
2,note_on,54,60,0
2,note_on,54,0,60
2,note_on,53,59,0
2,note_on,53,0,60
2,note_on,52,58,0
2,note_on,52,0,60
2,note_on,51,57,0
2,note_on,51,0,60
2,note_on,50,56,0
2,note_on,50,0,60
2,note_on,51,55,0
2,note_on,51,0,60
2,note_on,44,0,0
2,note_on,43,55,0
2,note_on,52,60,0
2,note_on,52,0,60
2,note_on,51,53,0
2,note_on,51,0,60
2,note_on,50,53,0
2,note_on,50,0,60
2,note_on,49,53,0
2,note_on,49,0,60
2,note_on,48,53,0
2,note_on,48,0,60
2,note_on,47,53,0
2,note_on,47,0,60
2,note_on,46,53,0
2,note_on,43,0,40
2,note_on,46,0,20
2,note_on,43,53,0
2,note_on,43,0,60
2,note_on,44,52,0
2,note_on,45,52,60
2,note_on,45,0,60
2,note_on,46,53,0
2,note_on,46,0,60
2,note_on,47,54,0
2,note_on,47,0,60
2,note_on,44,0,0
2,note_on,37,51,0
2,note_on,48,54,0
2,note_on,48,0,60
2,note_on,49,55,0
2,note_on,49,0,60
2,note_on,48,56,0
2,note_on,48,0,60
2,note_on,49,56,0
2,note_on,49,0,60
2,note_on,37,0,0
2,note_on,50,57,0
2,note_on,50,0,60
2,note_on,51,58,0
2,note_on,51,0,60
2,note_on,50,59,0
2,note_on,50,0,60
2,note_on,51,59,0
2,note_on,51,0,60
2,note_on,52,60,0
2,note_on,52,0,60
2,note_on,51,61,0
2,note_on,51,0,60
2,note_on,52,61,0
2,note_on,52,0,60
2,note_on,51,62,0
2,note_on,51,0,60
2,note_on,44,55,0
2,note_on,51,63,0
2,note_on,51,0,120
2,note_on,44,0,0
2,note_on,37,52,120
2,note_on,44,56,0
2,note_on,44,0,48
2,note_on,45,51,0
2,note_on,45,0,48
2,note_on,44,56,0
2,note_on,37,0,24
2,note_on,44,0,24
2,note_on,45,51,0
2,note_on,45,0,48
2,note_on,44,51,0
2,note_on,44,0,48
2,note_on,43,56,0
2,note_on,43,0,40
2,note_on,44,51,0
2,note_on,44,0,40
2,note_on,46,56,1
2,note_on,46,0,40
2,note_on,47,51,0
2,note_on,47,0,40
2,note_on,49,56,0
2,note_on,49,0,40
2,note_on,51,51,0
2,note_on,51,0,40
2,note_on,52,56,0
2,note_on,52,0,40
2,note_on,51,51,1
2,note_on,51,0,40
2,note_on,49,50,0
2,note_on,49,0,40
2,note_on,47,51,0
2,note_on,47,0,40
2,note_on,46,52,0
2,note_on,46,0,40
2,note_on,44,53,0
2,note_on,44,0,40
2,note_on,43,55,0
2,note_on,43,0,40
2,note_on,44,56,1
2,note_on,44,0,40
2,note_on,46,57,0
2,note_on,46,0,40
2,note_on,47,59,0
2,note_on,47,0,40
2,note_on,46,61,0
2,note_on,46,0,40
2,note_on,44,62,0
2,note_on,44,0,36
2,note_on,39,52,1
2,note_on,32,52,0
2,note_on,44,62,0
2,note_on,44,0,120
2,note_on,32,0,0
2,note_on,39,0,0
2,note_on,64,50,540
2,note_on,64,0,60
2,note_on,76,59,0
2,note_on,71,50,0
2,note_on,71,0,60
2,note_on,76,0,0
2,note_on,59,49,360
2,note_on,59,0,60
2,note_on,76,58,0
2,note_on,71,49,0
2,note_on,71,0,60
2,note_on,76,0,0
2,note_on,64,55,360
2,note_on,64,0,60
2,note_on,76,63,0
2,note_on,71,53,0
2,note_on,71,0,480
2,note_on,76,0,0
2,note_on,59,44,0
2,note_on,59,0,420
2,note_on,63,57,0
2,note_on,63,0,60
2,note_on,78,64,0
2,note_on,71,54,0
2,note_on,71,0,480
2,note_on,78,0,0
2,note_on,59,47,0
2,note_on,64,55,420
2,note_on,64,0,60
2,note_on,59,0,0
2,note_on,76,63,0
2,note_on,71,53,0
2,note_on,71,0,480
2,note_on,76,0,0
2,note_on,59,46,0
2,note_on,59,0,420
2,note_on,63,57,0
2,note_on,63,0,60
2,note_on,78,64,0
2,note_on,71,54,0
2,note_on,71,0,480
2,note_on,78,0,0
2,note_on,59,49,0
2,note_on,64,55,420
2,note_on,64,0,60
2,note_on,59,0,0
2,note_on,76,63,0
2,note_on,71,53,0
2,note_on,71,0,480
2,note_on,76,0,0
2,note_on,59,47,0
2,note_on,59,0,420
2,note_on,63,57,0
2,note_on,63,0,60
2,note_on,78,64,0
2,note_on,71,54,0
2,note_on,71,0,480
2,note_on,78,0,0
2,note_on,59,48,0
2,note_on,68,57,420
2,note_on,68,0,60
2,note_on,59,0,0
2,note_on,76,63,0
2,note_on,71,53,0
2,note_on,71,0,420
2,note_on,76,0,0
2,note_on,64,47,0
2,note_on,71,51,30
2,note_on,80,59,30
2,note_on,80,0,420
2,note_on,71,0,0
2,note_on,64,0,0
2,note_on,63,53,0
2,note_on,71,58,30
2,note_on,78,64,30
2,note_on,78,0,420
2,note_on,71,0,0
2,note_on,63,0,0
2,note_on,61,51,0
2,note_on,68,54,30
2,note_on,76,59,30
2,note_on,76,0,420
2,note_on,68,0,0
2,note_on,61,0,0
2,note_on,60,52,0
2,note_on,68,54,30
2,note_on,75,64,30
2,note_on,75,0,480
2,note_on,68,0,0
2,note_on,60,0,0
2,note_on,56,50,0
2,note_on,61,53,420
2,note_on,68,58,30
2,note_on,56,0,30
2,note_on,76,64,0
2,note_on,76,0,420
2,note_on,68,0,0
2,note_on,61,0,0
2,note_on,56,50,60
2,note_on,60,52,420
2,note_on,68,54,30
2,note_on,56,0,30
2,note_on,75,64,0
2,note_on,75,0,480
2,note_on,68,0,0
2,note_on,60,0,0
2,note_on,56,50,0
2,note_on,61,53,420
2,note_on,68,58,30
2,note_on,56,0,30
2,note_on,76,64,0
2,note_on,76,0,420
2,note_on,68,0,0
2,note_on,61,0,0
2,note_on,56,50,60
2,note_on,60,52,420
2,note_on,68,54,30
2,note_on,56,0,30
2,note_on,75,64,0
2,note_on,75,0,480
2,note_on,68,0,0
2,note_on,60,0,0
2,note_on,56,50,0
2,note_on,61,53,420
2,note_on,68,58,30
2,note_on,56,0,30
2,note_on,76,64,0
2,note_on,76,0,420
2,note_on,68,0,0
2,note_on,61,0,0
2,note_on,76,50,60
2,note_on,69,42,0
2,note_on,73,42,0
2,note_on,73,0,480
2,note_on,69,0,0
2,note_on,76,0,0
2,note_on,66,52,0
2,note_on,73,54,0
2,note_on,75,64,0
2,note_on,75,0,480
2,note_on,73,0,0
2,note_on,66,0,0
2,note_on,78,50,0
2,note_on,63,42,0
2,note_on,69,42,0
2,note_on,73,42,0
2,note_on,73,0,480
2,note_on,78,0,0
2,note_on,63,0,0
2,note_on,69,0,0
2,note_on,68,54,0
2,note_on,73,54,0
2,note_on,76,64,0
2,note_on,76,0,480
2,note_on,73,0,0
2,note_on,68,0,0
2,note_on,68,54,0
2,note_on,75,54,0
2,note_on,78,64,0
2,note_on,78,0,390
2,note_on,75,0,0
2,note_on,68,0,0
2,note_on,61,54,0
2,note_on,68,54,30
2,note_on,73,54,30
2,note_on,76,64,30
2,note_on,76,0,480
2,note_on,61,0,0
2,note_on,68,0,0
2,note_on,73,0,0
2,note_on,64,49,960
2,note_on,71,45,240
2,note_on,76,53,0
2,note_on,76,0,60
2,note_on,71,0,0
2,note_on,64,0,180
2,note_on,59,49,0
2,note_on,71,44,240
2,note_on,76,52,0
2,note_on,76,0,60
2,note_on,71,0,0
2,note_on,59,0,180
2,note_on,64,49,0
2,note_on,71,50,240
2,note_on,76,59,0
2,note_on,76,0,60
2,note_on,71,0,0
2,note_on,64,0,180
2,note_on,59,49,0
2,note_on,76,58,240
2,note_on,71,49,0
2,note_on,71,0,60
2,note_on,76,0,0
2,note_on,59,0,180
2,note_on,63,49,0
2,note_on,78,59,240
2,note_on,71,50,0
2,note_on,71,0,60
2,note_on,78,0,0
2,note_on,63,0,180
2,note_on,59,49,0
2,note_on,75,58,240
2,note_on,71,49,0
2,note_on,71,0,60
2,note_on,75,0,0
2,note_on,59,0,180
2,note_on,64,49,0
2,note_on,71,50,240
2,note_on,76,59,0
2,note_on,76,0,60
2,note_on,71,0,0
2,note_on,64,0,180
2,note_on,59,49,0
2,note_on,76,58,240
2,note_on,71,49,0
2,note_on,71,0,60
2,note_on,76,0,0
2,note_on,59,0,180
2,note_on,63,49,0
2,note_on,78,59,240
2,note_on,71,50,0
2,note_on,71,0,60
2,note_on,78,0,0
2,note_on,63,0,180
2,note_on,59,49,0
2,note_on,75,58,240
2,note_on,71,49,0
2,note_on,71,0,60
2,note_on,75,0,0
2,note_on,59,0,180
2,note_on,64,49,0
2,note_on,71,50,240
2,note_on,76,59,0
2,note_on,76,0,60
2,note_on,71,0,0
2,note_on,64,0,180
2,note_on,64,49,0
2,note_on,80,58,240
2,note_on,71,49,0
2,note_on,71,0,60
2,note_on,80,0,0
2,note_on,64,0,180
2,note_on,63,49,0
2,note_on,78,59,240
2,note_on,71,50,0
2,note_on,71,0,60
2,note_on,78,0,0
2,note_on,63,0,180
2,note_on,61,49,0
2,note_on,68,49,240
2,note_on,76,58,0
2,note_on,73,49,0
2,note_on,73,0,60
2,note_on,76,0,0
2,note_on,68,0,0
2,note_on,61,0,180
2,note_on,60,49,0
2,note_on,75,59,240
2,note_on,68,50,0
2,note_on,68,0,60
2,note_on,75,0,0
2,note_on,60,0,180
2,note_on,56,49,0
2,note_on,63,49,240
2,note_on,72,58,0
2,note_on,72,0,60
2,note_on,63,0,0
2,note_on,56,0,180
2,note_on,61,49,0
2,note_on,76,59,240
2,note_on,68,50,0
2,note_on,68,0,60
2,note_on,76,0,0
2,note_on,61,0,180
2,note_on,56,49,0
2,note_on,73,58,240
2,note_on,68,49,0
2,note_on,64,49,0
2,note_on,64,0,60
2,note_on,68,0,0
2,note_on,73,0,0
2,note_on,56,0,180
2,note_on,60,49,0
2,note_on,66,50,240
2,note_on,75,59,0
2,note_on,68,50,0
2,note_on,68,0,60
2,note_on,75,0,0
2,note_on,66,0,0
2,note_on,60,0,180
2,note_on,56,49,0
2,note_on,66,49,240
2,note_on,63,49,0
2,note_on,72,58,0
2,note_on,72,0,60
2,note_on,63,0,0
2,note_on,66,0,0
2,note_on,56,0,180
2,note_on,61,49,0
2,note_on,76,59,240
2,note_on,68,50,0
2,note_on,68,0,60
2,note_on,76,0,0
2,note_on,61,0,180
2,note_on,64,49,0
2,note_on,64,49,240
2,note_on,73,58,0
2,note_on,73,0,60
2,note_on,64,0,0
2,note_on,64,0,180
2,note_on,66,49,0
2,note_on,73,50,240
2,note_on,75,59,0
2,note_on,69,50,0
2,note_on,69,0,60
2,note_on,75,0,0
2,note_on,73,0,0
2,note_on,66,0,180
2,note_on,63,49,0
2,note_on,69,49,240
2,note_on,78,58,0
2,note_on,73,49,3
2,note_on,78,0,57
2,note_on,69,0,0
2,note_on,73,0,3
2,note_on,63,0,177
2,note_on,67,49,0
2,note_on,76,59,240
2,note_on,73,50,0
2,note_on,70,50,0
2,note_on,70,0,60
2,note_on,73,0,0
2,note_on,76,0,0
2,note_on,67,0,180
2,note_on,68,49,0
2,note_on,75,49,240
2,note_on,72,49,0
2,note_on,78,58,0
2,note_on,78,0,60
2,note_on,72,0,0
2,note_on,75,0,0
2,note_on,68,0,180
2,note_on,61,49,0
2,note_on,68,50,240
2,note_on,73,50,0
2,note_on,76,59,0
2,note_on,76,0,60
2,note_on,73,0,0
2,note_on,68,0,0
2,note_on,61,0,180
2,note_on,64,39,3360
2,note_on,71,40,120
2,note_on,71,0,60
2,note_on,64,0,60
2,note_on,68,47,0
2,note_on,68,0,60
2,note_on,71,47,60
2,note_on,71,0,60
2,note_on,59,39,60
2,note_on,71,39,120
2,note_on,71,0,60
2,note_on,59,0,60
2,note_on,68,46,0
2,note_on,68,0,60
2,note_on,71,39,60
2,note_on,71,0,60
2,note_on,64,39,60
2,note_on,71,40,120
2,note_on,71,0,60
2,note_on,64,0,60
2,note_on,68,47,0
2,note_on,68,0,60
2,note_on,71,47,60
2,note_on,71,0,60
2,note_on,59,39,60
2,note_on,71,39,120
2,note_on,71,0,60
2,note_on,59,0,60
2,note_on,68,46,0
2,note_on,68,0,60
2,note_on,71,39,60
2,note_on,71,0,60
2,note_on,66,39,60
2,note_on,71,40,120
2,note_on,71,0,60
2,note_on,66,0,60
2,note_on,69,47,0
2,note_on,69,0,60
2,note_on,71,47,60
2,note_on,71,0,60
2,note_on,59,39,60
2,note_on,71,39,120
2,note_on,71,0,60
2,note_on,59,0,60
2,note_on,69,46,0
2,note_on,69,0,60
2,note_on,71,39,60
2,note_on,71,0,60
2,note_on,64,39,60
2,note_on,71,40,120
2,note_on,71,0,60
2,note_on,64,0,60
2,note_on,68,47,0
2,note_on,68,0,60
2,note_on,71,47,60
2,note_on,71,0,60
2,note_on,59,39,60
2,note_on,71,39,120
2,note_on,71,0,60
2,note_on,59,0,60
2,note_on,68,46,0
2,note_on,68,0,60
2,note_on,71,39,60
2,note_on,71,0,60
2,note_on,66,39,60
2,note_on,71,40,120
2,note_on,71,0,60
2,note_on,66,0,60
2,note_on,69,47,0
2,note_on,69,0,60
2,note_on,71,47,60
2,note_on,71,0,60
2,note_on,59,39,60
2,note_on,71,39,120
2,note_on,71,0,60
2,note_on,59,0,60
2,note_on,69,46,0
2,note_on,69,0,60
2,note_on,71,39,60
2,note_on,71,0,60
2,note_on,64,39,60
2,note_on,71,40,120
2,note_on,71,0,60
2,note_on,64,0,60
2,note_on,68,47,0
2,note_on,68,0,60
2,note_on,71,47,60
2,note_on,71,0,60
2,note_on,64,39,60
2,note_on,71,39,120
2,note_on,71,0,60
2,note_on,64,0,60
2,note_on,68,46,0
2,note_on,68,0,60
2,note_on,71,39,60
2,note_on,71,0,60
2,note_on,63,39,60
2,note_on,71,40,120
2,note_on,71,0,60
2,note_on,63,0,60
2,note_on,66,47,0
2,note_on,66,0,60
2,note_on,71,47,60
2,note_on,71,0,60
2,note_on,61,39,60
2,note_on,68,39,120
2,note_on,68,0,60
2,note_on,61,0,60
2,note_on,64,46,0
2,note_on,64,0,60
2,note_on,68,39,60
2,note_on,68,0,60
2,note_on,60,39,60
2,note_on,68,40,120
2,note_on,68,0,60
2,note_on,60,0,60
2,note_on,63,47,0
2,note_on,63,0,60
2,note_on,68,47,60
2,note_on,68,0,60
2,note_on,56,39,60
2,note_on,68,39,120
2,note_on,68,0,60
2,note_on,56,0,60
2,note_on,63,46,0
2,note_on,63,0,60
2,note_on,68,39,60
2,note_on,68,0,60
2,note_on,61,39,60
2,note_on,68,40,120
2,note_on,68,0,60
2,note_on,61,0,60
2,note_on,64,47,0
2,note_on,64,0,60
2,note_on,68,47,60
2,note_on,68,0,60
2,note_on,56,39,60
2,note_on,68,39,120
2,note_on,68,0,60
2,note_on,56,0,60
2,note_on,64,46,0
2,note_on,64,0,60
2,note_on,68,39,60
2,note_on,68,0,60
2,note_on,60,39,60
2,note_on,68,40,120
2,note_on,68,0,60
2,note_on,60,0,60
2,note_on,63,47,0
2,note_on,63,0,60
2,note_on,68,47,60
2,note_on,68,0,60
2,note_on,56,39,60
2,note_on,68,39,120
2,note_on,68,0,60
2,note_on,56,0,60
2,note_on,63,46,0
2,note_on,63,0,60
2,note_on,68,39,60
2,note_on,68,0,60
2,note_on,61,39,60
2,note_on,68,40,120
2,note_on,68,0,60
2,note_on,61,0,60
2,note_on,64,47,0
2,note_on,64,0,60
2,note_on,68,47,60
2,note_on,68,0,60
2,note_on,56,39,60
2,note_on,68,39,120
2,note_on,68,0,60
2,note_on,56,0,60
2,note_on,64,46,0
2,note_on,64,0,60
2,note_on,68,39,60
2,note_on,68,0,60
2,note_on,60,39,60
2,note_on,68,40,120
2,note_on,68,0,60
2,note_on,60,0,60
2,note_on,63,47,0
2,note_on,63,0,60
2,note_on,68,47,60
2,note_on,68,0,60
2,note_on,56,39,60
2,note_on,68,39,120
2,note_on,68,0,60
2,note_on,56,0,60
2,note_on,63,46,0
2,note_on,63,0,60
2,note_on,68,39,60
2,note_on,68,0,60
2,note_on,61,39,60
2,note_on,68,40,120
2,note_on,68,0,60
2,note_on,61,0,60
2,note_on,64,47,0
2,note_on,64,0,60
2,note_on,68,47,60
2,note_on,68,0,60
2,note_on,56,39,60
2,note_on,68,39,120
2,note_on,68,0,60
2,note_on,56,0,60
2,note_on,63,36,0
2,note_on,66,46,0
2,note_on,66,0,60
2,note_on,63,0,0
2,note_on,68,39,60
2,note_on,68,0,60
2,note_on,61,46,60
2,note_on,77,37,120
2,note_on,77,0,120
2,note_on,61,0,0
2,note_on,68,48,0
2,note_on,68,0,120
2,note_on,77,39,0
2,note_on,77,0,120
2,note_on,73,47,0
2,note_on,73,0,120
2,note_on,77,39,0
2,note_on,77,0,120
2,note_on,68,48,0
2,note_on,68,0,120
2,note_on,77,42,0
2,note_on,77,0,120
2,note_on,61,50,0
2,note_on,77,43,120
2,note_on,77,0,120
2,note_on,61,0,0
2,note_on,68,50,0
2,note_on,68,0,120
2,note_on,77,45,0
2,note_on,77,0,120
2,note_on,73,52,0
2,note_on,73,0,120
2,note_on,77,46,0
2,note_on,77,0,120
2,note_on,68,53,0
2,note_on,68,0,120
2,note_on,77,48,0
2,note_on,77,0,120
2,note_on,61,52,0
2,note_on,77,44,120
2,note_on,77,0,120
2,note_on,61,0,0
2,note_on,68,51,0
2,note_on,68,0,120
2,note_on,77,45,0
2,note_on,77,0,120
2,note_on,73,53,0
2,note_on,73,0,120
2,note_on,77,46,0
2,note_on,77,0,120
2,note_on,68,52,0
2,note_on,68,0,120
2,note_on,77,47,0
2,note_on,77,0,120
2,note_on,61,48,0
2,note_on,77,36,120
2,note_on,77,0,120
2,note_on,61,0,0
2,note_on,68,49,0
2,note_on,68,0,120
2,note_on,77,43,0
2,note_on,77,0,120
2,note_on,73,51,0
2,note_on,73,0,120
2,note_on,77,44,0
2,note_on,77,0,120
2,note_on,68,50,0
2,note_on,68,0,120
2,note_on,77,43,0
2,note_on,77,0,120
2,note_on,61,48,0
2,note_on,61,0,120
2,note_on,77,35,0
2,note_on,77,0,120
2,note_on,68,47,0
2,note_on,68,0,120
2,note_on,77,40,0
2,note_on,77,0,120
2,note_on,61,46,0
2,note_on,61,0,120
2,note_on,77,39,0
2,note_on,77,0,120
2,note_on,68,44,0
2,note_on,68,0,120
2,note_on,77,36,0
2,note_on,77,0,120
2,note_on,61,40,0
2,note_on,61,0,120
2,note_on,77,29,0
2,note_on,77,0,120
2,note_on,68,39,0
2,note_on,68,0,120
2,note_on,77,33,0
2,note_on,77,0,120
2,note_on,61,38,0
2,note_on,61,0,120
2,note_on,77,32,0
2,note_on,77,0,120
2,note_on,68,36,0
2,note_on,68,0,120
2,note_on,77,1,0
2,note_on,77,0,120
2,note_on,61,33,0
2,note_on,61,0,120
2,note_on,77,25,0
2,note_on,77,0,120
2,note_on,68,34,0
2,note_on,68,0,120
2,note_on,77,30,0
2,note_on,77,0,120
2,note_on,61,35,0
2,note_on,61,0,120
2,note_on,77,30,0
2,note_on,77,0,120
2,note_on,68,35,0
2,note_on,68,0,120
2,note_on,77,30,0
2,note_on,77,0,120
2,note_on,61,33,0
2,note_on,61,0,240
2,note_on,77,30,0
2,note_on,68,30,0
2,note_on,68,0,240
2,note_on,77,0,0
2,note_on,45,44,1440
2,note_on,45,0,96
2,note_on,52,34,24
2,note_on,52,0,96
2,note_on,57,35,24
2,note_on,57,0,96
2,note_on,61,36,24
2,note_on,61,0,96
2,note_on,64,37,24
2,note_on,64,0,96
2,note_on,69,38,24
2,note_on,69,0,96
2,note_on,73,36,24
2,note_on,73,0,96
2,note_on,44,44,144
2,note_on,44,0,96
2,note_on,53,34,24
2,note_on,53,0,96
2,note_on,59,35,24
2,note_on,59,0,96
2,note_on,61,36,24
2,note_on,61,0,96
2,note_on,65,37,24
2,note_on,65,0,96
2,note_on,71,38,24
2,note_on,71,0,96
2,note_on,73,36,24
2,note_on,73,0,96
2,note_on,42,44,144
2,note_on,42,0,96
2,note_on,49,34,24
2,note_on,49,0,96
2,note_on,54,35,24
2,note_on,54,0,96
2,note_on,57,36,24
2,note_on,57,0,96
2,note_on,61,37,24
2,note_on,61,0,96
2,note_on,66,38,24
2,note_on,66,0,96
2,note_on,69,36,24
2,note_on,69,0,96
2,note_on,37,44,144
2,note_on,37,0,96
2,note_on,49,34,24
2,note_on,49,0,96
2,note_on,53,35,24
2,note_on,53,0,96
2,note_on,56,36,24
2,note_on,56,0,96
2,note_on,61,37,24
2,note_on,61,0,96
2,note_on,65,38,24
2,note_on,65,0,96
2,note_on,68,36,24
2,note_on,68,0,96
2,note_on,45,44,144
2,note_on,45,0,96
2,note_on,52,34,24
2,note_on,52,0,96
2,note_on,57,35,24
2,note_on,57,0,96
2,note_on,61,36,24
2,note_on,61,0,96
2,note_on,64,37,24
2,note_on,64,0,96
2,note_on,69,38,24
2,note_on,69,0,96
2,note_on,73,36,24
2,note_on,73,0,96
2,note_on,44,44,144
2,note_on,44,0,96
2,note_on,53,34,24
2,note_on,53,0,96
2,note_on,59,35,24
2,note_on,59,0,96
2,note_on,61,36,24
2,note_on,61,0,96
2,note_on,65,37,24
2,note_on,65,0,96
2,note_on,71,38,24
2,note_on,71,0,96
2,note_on,73,36,24
2,note_on,73,0,96
2,note_on,42,44,144
2,note_on,42,0,240
2,note_on,66,35,0
2,note_on,61,35,0
2,note_on,69,35,0
2,note_on,69,0,240
2,note_on,61,0,0
2,note_on,66,0,0
2,note_on,37,37,0
2,note_on,37,0,240
2,note_on,65,36,0
2,note_on,59,36,0
2,note_on,68,36,0
2,note_on,68,0,240
2,note_on,59,0,0
2,note_on,65,0,0
2,note_on,42,44,0
2,note_on,42,0,240
2,note_on,58,36,0
2,note_on,70,36,0
2,note_on,66,36,0
2,note_on,66,0,720
2,note_on,70,0,0
2,note_on,58,0,0
2,note_on,45,44,0
2,note_on,45,0,96
2,note_on,52,34,24
2,note_on,52,0,96
2,note_on,57,36,24
2,note_on,57,0,96
2,note_on,61,38,24
2,note_on,61,0,96
2,note_on,64,40,24
2,note_on,64,0,96
2,note_on,69,42,24
2,note_on,69,0,96
2,note_on,73,44,24
2,note_on,73,0,96
2,note_on,44,44,144
2,note_on,44,0,96
2,note_on,53,34,24
2,note_on,53,0,96
2,note_on,59,35,24
2,note_on,59,0,96
2,note_on,61,36,24
2,note_on,61,0,96
2,note_on,65,37,24
2,note_on,65,0,96
2,note_on,71,38,24
2,note_on,71,0,96
2,note_on,73,36,24
2,note_on,73,0,96
2,note_on,42,44,144
2,note_on,42,0,96
2,note_on,49,42,24
2,note_on,49,0,96
2,note_on,54,41,24
2,note_on,54,0,96
2,note_on,57,41,24
2,note_on,57,0,96
2,note_on,61,40,24
2,note_on,61,0,96
2,note_on,66,39,24
2,note_on,66,0,96
2,note_on,69,38,24
2,note_on,69,0,96
2,note_on,37,44,144
2,note_on,37,0,96
2,note_on,49,34,24
2,note_on,49,0,96
2,note_on,53,35,24
2,note_on,53,0,96
2,note_on,56,36,24
2,note_on,56,0,96
2,note_on,61,37,24
2,note_on,61,0,96
2,note_on,65,38,24
2,note_on,65,0,96
2,note_on,68,36,24
2,note_on,68,0,96
2,note_on,45,44,144
2,note_on,45,0,96
2,note_on,52,34,24
2,note_on,52,0,96
2,note_on,57,35,24
2,note_on,57,0,96
2,note_on,61,36,24
2,note_on,61,0,96
2,note_on,64,37,24
2,note_on,64,0,96
2,note_on,69,38,24
2,note_on,69,0,96
2,note_on,73,36,24
2,note_on,73,0,96
2,note_on,44,44,144
2,note_on,44,0,96
2,note_on,53,34,24
2,note_on,53,0,96
2,note_on,59,31,24
2,note_on,59,0,96
2,note_on,61,32,24
2,note_on,61,0,96
2,note_on,65,33,24
2,note_on,65,0,96
2,note_on,71,34,24
2,note_on,71,0,96
2,note_on,73,32,24
2,note_on,73,0,96
2,note_on,42,33,144
2,note_on,42,0,240
2,note_on,61,26,0
2,note_on,69,26,0
2,note_on,66,26,0
2,note_on,66,0,240
2,note_on,69,0,0
2,note_on,61,0,0
2,note_on,37,27,0
2,note_on,37,0,240
2,note_on,65,27,0
2,note_on,59,27,0
2,note_on,68,27,0
2,note_on,68,0,240
2,note_on,59,0,0
2,note_on,65,0,0
2,note_on,42,33,0
2,note_on,58,27,195
2,note_on,61,27,15
2,note_on,66,27,15
2,note_on,42,0,15
2,note_on,70,27,0
2,note_on,70,0,720
2,note_on,66,0,0
2,note_on,61,0,0
2,note_on,58,0,0
2,note_on,49,54,0
2,note_on,37,46,0
2,note_on,37,0,96
2,note_on,49,0,0
2,note_on,48,48,24
2,note_on,36,40,0
2,note_on,36,0,96
2,note_on,48,0,0
2,note_on,35,40,24
2,note_on,47,48,0
2,note_on,47,0,96
2,note_on,35,0,0
2,note_on,46,48,24
2,note_on,34,40,0
2,note_on,34,0,96
2,note_on,46,0,0
2,note_on,45,48,24
2,note_on,33,40,0
2,note_on,33,0,96
2,note_on,45,0,0
2,note_on,32,41,24
2,note_on,44,48,0
2,note_on,44,0,96
2,note_on,32,0,0
2,note_on,43,51,24
2,note_on,31,43,0
2,note_on,31,0,96
2,note_on,43,0,0
2,note_on,44,55,24
2,note_on,32,46,0
2,note_on,32,0,96
2,note_on,44,0,0
2,note_on,33,48,24
2,note_on,45,57,0
2,note_on,45,0,96
2,note_on,33,0,0
2,note_on,44,54,24
2,note_on,32,45,0
2,note_on,32,0,96
2,note_on,44,0,0
2,note_on,43,48,24
2,note_on,31,41,0
2,note_on,31,0,96
2,note_on,43,0,0
2,note_on,42,48,24
2,note_on,30,41,0
2,note_on,30,0,96
2,note_on,42,0,0
2,note_on,29,41,24
2,note_on,41,48,0
2,note_on,41,0,96
2,note_on,29,0,0
2,note_on,40,48,24
2,note_on,28,41,0
2,note_on,28,0,96
2,note_on,40,0,0
2,note_on,39,48,24
2,note_on,27,40,0
2,note_on,27,0,96
2,note_on,39,0,0
2,note_on,24,40,24
2,note_on,36,48,0
2,note_on,36,0,96
2,note_on,24,0,0
2,note_on,25,46,24
2,note_on,37,54,0
2,note_on,37,0,96
2,note_on,25,0,0
2,note_on,38,47,24
2,note_on,26,39,0
2,note_on,26,0,96
2,note_on,38,0,0
2,note_on,39,49,24
2,note_on,27,42,0
2,note_on,27,0,96
2,note_on,39,0,0
2,note_on,28,44,24
2,note_on,40,52,0
2,note_on,40,0,96
2,note_on,28,0,0
2,note_on,41,58,24
2,note_on,29,49,0
2,note_on,29,0,96
2,note_on,41,0,0
2,note_on,42,54,24
2,note_on,30,46,0
2,note_on,30,0,96
2,note_on,42,0,0
2,note_on,29,50,24
2,note_on,41,59,0
2,note_on,41,0,96
2,note_on,29,0,0
2,note_on,42,56,24
2,note_on,30,48,0
2,note_on,30,0,96
2,note_on,42,0,0
2,note_on,43,64,24
2,note_on,31,54,0
2,note_on,31,0,96
2,note_on,43,0,0
2,note_on,32,51,24
2,note_on,44,61,0
2,note_on,44,0,96
2,note_on,32,0,0
2,note_on,43,65,24
2,note_on,31,55,0
2,note_on,31,0,96
2,note_on,43,0,0
2,note_on,44,59,24
2,note_on,32,50,0
2,note_on,32,0,96
2,note_on,44,0,0
2,note_on,33,62,24
2,note_on,45,74,0
2,note_on,45,0,96
2,note_on,33,0,0
2,note_on,44,64,24
2,note_on,32,53,0
2,note_on,32,0,96
2,note_on,44,0,0
2,note_on,45,74,24
2,note_on,33,62,0
2,note_on,33,0,96
2,note_on,45,0,0
2,note_on,32,57,24
2,note_on,44,68,0
2,note_on,44,0,96
2,note_on,32,0,0
2,note_on,37,89,24
2,note_on,25,75,0
2,note_on,25,0,120
2,note_on,37,0,0
2,note_on,54,89,360
2,note_on,42,75,0
2,note_on,49,75,0
2,note_on,49,0,120
2,note_on,42,0,0
2,note_on,54,0,0
2,note_on,52,89,360
2,note_on,37,75,0
2,note_on,44,75,0
2,note_on,44,0,120
2,note_on,37,0,0
2,note_on,52,0,0
2,note_on,56,54,840
2,note_on,44,46,0
2,note_on,44,0,96
2,note_on,56,0,0
2,note_on,43,40,24
2,note_on,55,48,0
2,note_on,55,0,96
2,note_on,43,0,0
2,note_on,54,48,24
2,note_on,42,40,0
2,note_on,42,0,96
2,note_on,54,0,0
2,note_on,53,48,24
2,note_on,41,40,0
2,note_on,41,0,96
2,note_on,53,0,0
2,note_on,40,40,24
2,note_on,52,48,0
2,note_on,52,0,96
2,note_on,40,0,0
2,note_on,51,48,24
2,note_on,39,41,0
2,note_on,39,0,96
2,note_on,51,0,0
2,note_on,50,51,24
2,note_on,38,43,0
2,note_on,38,0,96
2,note_on,50,0,0
2,note_on,39,46,24
2,note_on,51,55,0
2,note_on,51,0,96
2,note_on,39,0,0
2,note_on,52,57,24
2,note_on,40,48,0
2,note_on,40,0,96
2,note_on,52,0,0
2,note_on,51,54,24
2,note_on,39,45,0
2,note_on,39,0,96
2,note_on,51,0,0
2,note_on,38,41,24
2,note_on,50,48,0
2,note_on,50,0,96
2,note_on,38,0,0
2,note_on,49,48,24
2,note_on,37,41,0
2,note_on,37,0,96
2,note_on,49,0,0
2,note_on,48,48,24
2,note_on,36,41,0
2,note_on,36,0,96
2,note_on,48,0,0
2,note_on,35,41,24
2,note_on,47,48,0
2,note_on,47,0,96
2,note_on,35,0,0
2,note_on,46,48,24
2,note_on,34,40,0
2,note_on,34,0,96
2,note_on,46,0,0
2,note_on,43,48,24
2,note_on,31,40,0
2,note_on,31,0,96
2,note_on,43,0,0
2,note_on,32,46,24
2,note_on,44,54,0
2,note_on,44,0,96
2,note_on,32,0,0
2,note_on,45,47,24
2,note_on,33,39,0
2,note_on,33,0,96
2,note_on,45,0,0
2,note_on,46,49,24
2,note_on,34,42,0
2,note_on,34,0,96
2,note_on,46,0,0
2,note_on,35,44,24
2,note_on,47,52,0
2,note_on,47,0,96
2,note_on,35,0,0
2,note_on,48,58,24
2,note_on,36,49,0
2,note_on,36,0,96
2,note_on,48,0,0
2,note_on,49,54,24
2,note_on,37,46,0
2,note_on,37,0,96
2,note_on,49,0,0
2,note_on,36,50,24
2,note_on,48,59,0
2,note_on,48,0,96
2,note_on,36,0,0
2,note_on,49,56,24
2,note_on,37,48,0
2,note_on,37,0,96
2,note_on,49,0,0
2,note_on,50,64,24
2,note_on,38,54,0
2,note_on,38,0,96
2,note_on,50,0,0
2,note_on,51,61,24
2,note_on,39,51,0
2,note_on,39,0,96
2,note_on,51,0,0
2,note_on,50,65,24
2,note_on,38,55,0
2,note_on,38,0,96
2,note_on,50,0,0
2,note_on,51,59,24
2,note_on,39,50,0
2,note_on,39,0,96
2,note_on,51,0,0
2,note_on,52,74,24
2,note_on,40,62,0
2,note_on,40,0,96
2,note_on,52,0,0
2,note_on,39,53,24
2,note_on,51,64,0
2,note_on,51,0,96
2,note_on,39,0,0
2,note_on,52,74,24
2,note_on,40,62,0
2,note_on,40,0,96
2,note_on,52,0,0
2,note_on,51,68,24
2,note_on,39,57,0
2,note_on,39,0,96
2,note_on,51,0,0
2,note_on,32,75,24
2,note_on,44,89,0
2,note_on,44,0,120
2,note_on,32,0,0
2,note_on,56,75,360
2,note_on,61,89,0
2,note_on,49,75,0
2,note_on,49,0,120
2,note_on,61,0,0
2,note_on,56,0,0
2,note_on,51,75,360
2,note_on,59,89,0
2,note_on,44,75,0
2,note_on,44,0,120
2,note_on,59,0,0
2,note_on,51,0,0
2,note_on,47,69,720
2,note_on,35,58,0
2,note_on,35,0,120
2,note_on,47,0,0
2,note_on,52,78,0
2,note_on,40,66,0
2,note_on,40,0,120
2,note_on,52,0,0
2,note_on,56,55,240
2,note_on,64,78,0
2,note_on,59,55,0
2,note_on,59,0,120
2,note_on,64,0,0
2,note_on,56,0,0
2,note_on,56,60,0
2,note_on,64,84,0
2,note_on,59,60,0
2,note_on,59,0,240
2,note_on,64,0,0
2,note_on,56,0,0
2,note_on,35,56,120
2,note_on,47,67,0
2,note_on,47,0,120
2,note_on,35,0,0
2,note_on,52,70,0
2,note_on,40,60,0
2,note_on,40,0,120
2,note_on,52,0,0
2,note_on,59,73,240
2,note_on,56,61,0
2,note_on,56,0,120
2,note_on,59,0,0
2,note_on,56,64,0
2,note_on,59,78,0
2,note_on,59,0,240
2,note_on,56,0,0
2,note_on,47,82,120
2,note_on,35,69,0
2,note_on,35,0,120
2,note_on,47,0,0
2,note_on,51,92,0
2,note_on,39,78,0
2,note_on,39,0,120
2,note_on,51,0,0
2,note_on,59,66,240
2,note_on,57,66,0
2,note_on,57,0,120
2,note_on,59,0,0
2,note_on,57,70,0
2,note_on,59,70,0
2,note_on,59,0,240
2,note_on,57,0,0
2,note_on,35,67,180
2,note_on,47,79,0
2,note_on,47,0,60
2,note_on,40,70,0
2,note_on,52,84,0
2,note_on,35,0,9
2,note_on,52,0,111
2,note_on,40,0,0
2,note_on,59,77,240
2,note_on,56,64,0
2,note_on,56,0,120
2,note_on,59,0,0
2,note_on,59,82,0
2,note_on,56,68,0
2,note_on,56,0,240
2,note_on,59,0,0
2,note_on,47,82,120
2,note_on,35,69,0
2,note_on,35,0,120
2,note_on,47,0,0
2,note_on,52,92,0
2,note_on,40,78,0
2,note_on,40,0,120
2,note_on,52,0,0
2,note_on,64,63,360
2,note_on,52,53,0
2,note_on,52,0,160
2,note_on,64,0,0
2,note_on,54,56,0
2,note_on,66,66,0
2,note_on,66,0,160
2,note_on,54,0,0
2,note_on,56,59,0
2,note_on,68,70,0
2,note_on,68,0,160
2,note_on,56,0,0
2,note_on,57,51,0
2,note_on,69,73,0
2,note_on,69,0,480
2,note_on,57,0,0
2,note_on,45,60,0
2,note_on,57,71,0
2,note_on,52,60,0
2,note_on,52,0,160
2,note_on,57,0,0
2,note_on,45,0,0
2,note_on,44,56,0
2,note_on,56,67,0
2,note_on,52,56,0
2,note_on,52,0,160
2,note_on,56,0,0
2,note_on,44,0,0
2,note_on,52,52,0
2,note_on,43,52,0
2,note_on,55,62,0
2,note_on,55,0,160
2,note_on,43,0,0
2,note_on,52,0,0
2,note_on,52,71,0
2,note_on,44,71,0
2,note_on,56,84,0
2,note_on,56,0,480
2,note_on,44,0,0
2,note_on,52,0,0
2,note_on,44,71,0
2,note_on,37,71,0
2,note_on,49,84,0
2,note_on,49,0,480
2,note_on,37,0,0
2,note_on,44,0,0
2,note_on,42,71,0
2,note_on,35,71,0
2,note_on,45,71,0
2,note_on,47,84,0
2,note_on,47,0,720
2,note_on,42,0,0
2,note_on,35,0,0
2,note_on,45,0,0
2,note_on,28,61,180
2,note_on,40,72,0
2,note_on,40,0,40
2,note_on,28,0,0
2,note_on,40,77,20
2,note_on,28,77,0
2,note_on,28,0,80
2,note_on,40,0,0
2,note_on,44,68,0
2,note_on,44,0,80
2,note_on,47,70,0
2,note_on,47,0,80
2,note_on,52,71,0
2,note_on,52,0,80
2,note_on,56,73,0
2,note_on,56,0,80
2,note_on,59,75,0
2,note_on,59,0,80
2,note_on,64,78,0
2,note_on,64,0,80
2,note_on,59,79,0
2,note_on,59,0,80
2,note_on,56,81,0
2,note_on,56,0,80
2,note_on,52,82,0
2,note_on,52,0,80
2,note_on,47,84,0
2,note_on,47,0,80
2,note_on,44,86,0
2,note_on,44,0,80
2,note_on,40,84,0
2,note_on,52,84,0
2,note_on,47,84,0
2,note_on,47,0,120
2,note_on,52,0,0
2,note_on,40,0,0
2,note_on,32,58,720
2,note_on,44,69,0
2,note_on,44,0,120
2,note_on,32,0,0
2,note_on,49,78,0
2,note_on,37,66,0
2,note_on,37,0,120
2,note_on,49,0,0
2,note_on,61,55,240
2,note_on,64,55,0
2,note_on,68,78,0
2,note_on,56,55,0
2,note_on,56,0,90
2,note_on,61,0,0
2,note_on,64,0,0
2,note_on,68,0,0
2,note_on,56,60,30
2,note_on,64,60,0
2,note_on,68,84,0
2,note_on,61,60,0
2,note_on,61,0,240
2,note_on,56,0,0
2,note_on,64,0,0
2,note_on,68,0,0
2,note_on,32,56,120
2,note_on,44,67,0
2,note_on,44,0,120
2,note_on,32,0,0
2,note_on,49,70,0
2,note_on,37,60,0
2,note_on,37,0,120
2,note_on,49,0,0
2,note_on,64,61,240
2,note_on,56,61,0
2,note_on,61,61,0
2,note_on,68,73,0
2,note_on,68,0,90
2,note_on,64,0,0
2,note_on,56,0,0
2,note_on,61,0,0
2,note_on,68,78,30
2,note_on,56,64,0
2,note_on,61,64,0
2,note_on,64,64,0
2,note_on,64,0,240
2,note_on,68,0,0
2,note_on,56,0,0
2,note_on,61,0,0
2,note_on,32,69,120
2,note_on,44,82,0
2,note_on,44,0,120
2,note_on,32,0,0
2,note_on,48,92,0
2,note_on,36,78,0
2,note_on,36,0,120
2,note_on,48,0,0
2,note_on,68,66,240
2,note_on,66,66,0
2,note_on,63,66,0
2,note_on,56,66,0
2,note_on,56,0,90
2,note_on,68,0,0
2,note_on,66,0,0
2,note_on,63,0,0
2,note_on,56,70,30
2,note_on,66,70,0
2,note_on,63,70,0
2,note_on,68,70,0
2,note_on,68,0,240
2,note_on,56,0,0
2,note_on,66,0,0
2,note_on,63,0,0
2,note_on,32,67,180
2,note_on,44,79,0
2,note_on,44,0,60
2,note_on,32,0,0
2,note_on,49,84,0
2,note_on,37,70,0
2,note_on,37,0,120
2,note_on,49,0,0
2,note_on,56,64,240
2,note_on,64,64,0
2,note_on,61,64,0
2,note_on,68,77,0
2,note_on,68,0,90
2,note_on,56,0,0
2,note_on,64,0,0
2,note_on,61,0,0
2,note_on,68,82,30
2,note_on,64,68,0
2,note_on,61,68,0
2,note_on,56,68,0
2,note_on,56,0,240
2,note_on,68,0,0
2,note_on,64,0,0
2,note_on,61,0,0
2,note_on,29,69,180
2,note_on,53,82,0
2,note_on,41,69,0
2,note_on,41,0,60
2,note_on,53,0,0
2,note_on,29,0,0
2,note_on,42,78,0
2,note_on,54,92,0
2,note_on,30,78,0
2,note_on,30,0,720
2,note_on,54,0,0
2,note_on,42,0,0
2,note_on,57,53,180
2,note_on,69,63,0
2,note_on,61,53,0
2,note_on,61,0,60
2,note_on,69,0,0
2,note_on,57,0,0
2,note_on,57,59,0
2,note_on,69,70,0
2,note_on,61,59,0
2,note_on,61,0,180
2,note_on,69,0,0
2,note_on,57,0,0
2,note_on,56,52,0
2,note_on,68,62,0
2,note_on,59,52,0
2,note_on,59,0,60
2,note_on,68,0,0
2,note_on,56,0,0
2,note_on,56,58,0
2,note_on,68,69,0
2,note_on,59,58,0
2,note_on,59,0,180
2,note_on,68,0,0
2,note_on,56,0,0
2,note_on,54,52,0
2,note_on,66,62,0
2,note_on,57,52,0
2,note_on,57,0,60
2,note_on,66,0,0
2,note_on,54,0,0
2,note_on,54,58,0
2,note_on,66,69,0
2,note_on,57,58,0
2,note_on,57,0,240
2,note_on,66,0,0
2,note_on,54,0,0
2,note_on,49,69,180
2,note_on,37,69,0
2,note_on,37,0,60
2,note_on,49,0,0
2,note_on,50,78,0
2,note_on,38,78,0
2,note_on,38,0,720
2,note_on,50,0,0
2,note_on,69,63,180
2,note_on,66,53,0
2,note_on,66,0,45
2,note_on,69,0,0
2,note_on,66,59,15
2,note_on,69,70,0
2,note_on,69,0,180
2,note_on,66,0,0
2,note_on,68,62,0
2,note_on,64,52,0
2,note_on,64,0,45
2,note_on,68,0,0
2,note_on,68,69,15
2,note_on,64,58,0
2,note_on,64,0,180
2,note_on,68,0,0
2,note_on,62,52,0
2,note_on,66,62,0
2,note_on,66,0,45
2,note_on,62,0,0
2,note_on,66,69,15
2,note_on,62,58,0
2,note_on,62,0,240
2,note_on,66,0,0
2,note_on,34,69,180
2,note_on,46,69,0
2,note_on,46,0,60
2,note_on,34,0,0
2,note_on,47,78,0
2,note_on,35,78,0
2,note_on,57,53,420
2,note_on,69,63,0
2,note_on,66,53,0
2,note_on,66,0,45
2,note_on,57,0,0
2,note_on,69,0,0
2,note_on,35,0,15
2,note_on,47,0,0
2,note_on,66,59,0
2,note_on,69,70,0
2,note_on,57,59,0
2,note_on,57,0,180
2,note_on,69,0,0
2,note_on,66,0,0
2,note_on,68,62,0
2,note_on,56,52,0
2,note_on,64,52,0
2,note_on,64,0,45
2,note_on,56,0,0
2,note_on,68,0,0
2,note_on,68,69,15
2,note_on,56,58,0
2,note_on,64,58,0
2,note_on,64,0,180
2,note_on,56,0,0
2,note_on,68,0,0
2,note_on,66,62,0
2,note_on,54,52,0
2,note_on,63,52,0
2,note_on,63,0,60
2,note_on,54,0,0
2,note_on,66,0,0
2,note_on,36,78,0
2,note_on,48,78,0
2,note_on,66,53,420
2,note_on,57,53,0
2,note_on,69,63,0
2,note_on,69,0,45
2,note_on,66,0,0
2,note_on,57,0,0
2,note_on,48,0,15
2,note_on,36,0,0
2,note_on,66,59,0
2,note_on,57,59,0
2,note_on,69,70,0
2,note_on,69,0,180
2,note_on,57,0,0
2,note_on,66,0,0
2,note_on,64,52,0
2,note_on,56,52,0
2,note_on,68,62,0
2,note_on,68,0,45
2,note_on,56,0,0
2,note_on,64,0,0
2,note_on,64,58,15
2,note_on,56,58,0
2,note_on,68,69,0
2,note_on,68,0,180
2,note_on,56,0,0
2,note_on,64,0,0
2,note_on,63,52,0
2,note_on,54,52,0
2,note_on,66,62,0
2,note_on,66,0,60
2,note_on,54,0,0
2,note_on,63,0,0
2,note_on,43,78,0
2,note_on,31,78,0
2,note_on,82,63,420
2,note_on,79,53,0
2,note_on,70,45,0
2,note_on,70,0,45
2,note_on,82,0,0
2,note_on,79,0,0
2,note_on,31,0,15
2,note_on,43,0,0
2,note_on,82,70,0
2,note_on,79,59,0
2,note_on,70,49,0
2,note_on,70,0,180
2,note_on,79,0,0
2,note_on,82,0,0
2,note_on,81,62,0
2,note_on,78,52,0
2,note_on,69,44,0
2,note_on,69,0,45
2,note_on,78,0,0
2,note_on,81,0,0
2,note_on,81,69,15
2,note_on,78,58,0
2,note_on,69,49,0
2,note_on,69,0,180
2,note_on,78,0,0
2,note_on,81,0,0
2,note_on,79,62,0
2,note_on,76,52,0
2,note_on,67,44,0
2,note_on,67,0,45
2,note_on,76,0,0
2,note_on,79,0,0
2,note_on,76,69,15
2,note_on,79,69,0
2,note_on,67,58,0
2,note_on,67,0,180
2,note_on,79,0,0
2,note_on,76,0,0
2,note_on,73,62,0
2,note_on,76,62,0
2,note_on,64,52,0
2,note_on,64,0,45
2,note_on,76,0,0
2,note_on,73,0,0
2,note_on,73,69,15
2,note_on,76,69,0
2,note_on,64,58,0
2,note_on,64,0,180
2,note_on,76,0,0
2,note_on,73,0,0
2,note_on,72,62,0
2,note_on,75,62,0
2,note_on,63,52,0
2,note_on,63,0,45
2,note_on,75,0,0
2,note_on,72,0,0
2,note_on,72,69,15
2,note_on,75,69,0
2,note_on,63,58,0
2,note_on,63,0,180
2,note_on,75,0,0
2,note_on,72,0,0
2,note_on,70,62,0
2,note_on,73,62,0
2,note_on,61,52,0
2,note_on,61,0,45
2,note_on,73,0,0
2,note_on,70,0,0
2,note_on,70,69,15
2,note_on,73,69,0
2,note_on,61,58,0
2,note_on,61,0,180
2,note_on,73,0,0
2,note_on,70,0,0
2,note_on,67,62,0
2,note_on,70,62,0
2,note_on,58,52,0
2,note_on,58,0,45
2,note_on,70,0,0
2,note_on,67,0,0
2,note_on,70,70,15
2,note_on,67,59,0
2,note_on,58,49,0
2,note_on,58,0,180
2,note_on,67,0,0
2,note_on,70,0,0
2,note_on,69,62,0
2,note_on,66,52,0
2,note_on,57,44,0
2,note_on,57,0,45
2,note_on,66,0,0
2,note_on,69,0,0
2,note_on,69,69,15
2,note_on,66,58,0
2,note_on,57,49,0
2,note_on,57,0,180
2,note_on,66,0,0
2,note_on,69,0,0
2,note_on,67,62,0
2,note_on,64,52,0
2,note_on,55,44,0
2,note_on,55,0,45
2,note_on,64,0,0
2,note_on,67,0,0
2,note_on,64,69,15
2,note_on,67,69,0
2,note_on,55,58,0
2,note_on,55,0,180
2,note_on,67,0,0
2,note_on,64,0,0
2,note_on,61,62,0
2,note_on,64,62,0
2,note_on,52,52,0
2,note_on,52,0,45
2,note_on,64,0,0
2,note_on,61,0,0
2,note_on,61,69,15
2,note_on,52,58,0
2,note_on,64,69,0
2,note_on,64,0,180
2,note_on,52,0,0
2,note_on,61,0,0
2,note_on,60,62,0
2,note_on,51,52,0
2,note_on,63,62,0
2,note_on,63,0,45
2,note_on,51,0,0
2,note_on,60,0,0
2,note_on,60,69,15
2,note_on,51,58,0
2,note_on,63,69,0
2,note_on,63,0,180
2,note_on,51,0,0
2,note_on,60,0,0
2,note_on,58,62,0
2,note_on,49,52,0
2,note_on,61,62,0
2,note_on,61,0,45
2,note_on,49,0,0
2,note_on,58,0,0
2,note_on,61,69,15
2,note_on,58,69,0
2,note_on,49,58,0
2,note_on,49,0,180
2,note_on,58,0,0
2,note_on,61,0,0
2,note_on,58,62,0
2,note_on,55,62,0
2,note_on,46,52,0
2,note_on,46,0,45
2,note_on,55,0,0
2,note_on,58,0,0
2,note_on,55,59,15
2,note_on,58,70,0
2,note_on,46,49,0
2,note_on,46,0,180
2,note_on,58,0,0
2,note_on,55,0,0
2,note_on,54,52,0
2,note_on,57,62,0
2,note_on,45,44,0
2,note_on,45,0,45
2,note_on,57,0,0
2,note_on,54,0,0
2,note_on,54,58,15
2,note_on,57,69,0
2,note_on,45,49,0
2,note_on,45,0,180
2,note_on,57,0,0
2,note_on,54,0,0
2,note_on,52,52,0
2,note_on,55,62,0
2,note_on,43,44,0
2,note_on,43,0,45
2,note_on,55,0,0
2,note_on,52,0,0
2,note_on,55,69,15
2,note_on,52,69,0
2,note_on,43,58,0
2,note_on,43,0,180
2,note_on,52,0,0
2,note_on,55,0,0
2,note_on,31,55,240
2,note_on,43,64,0
2,note_on,37,55,0
2,note_on,40,55,0
2,note_on,40,0,60
2,note_on,31,0,0
2,note_on,43,0,0
2,note_on,37,0,0
2,note_on,44,64,0
2,note_on,40,55,0
2,note_on,32,55,0
2,note_on,37,55,0
2,note_on,37,0,120
2,note_on,44,0,0
2,note_on,40,0,0
2,note_on,32,0,0
2,note_on,37,56,240
2,note_on,44,67,0
2,note_on,32,56,0
2,note_on,40,56,0
2,note_on,40,0,120
2,note_on,37,0,0
2,note_on,44,0,0
2,note_on,32,0,0
2,note_on,32,61,0
2,note_on,44,72,0
2,note_on,37,61,0
2,note_on,40,61,0
2,note_on,40,0,120
2,note_on,32,0,0
2,note_on,44,0,0
2,note_on,37,0,0
2,note_on,44,64,240
2,note_on,40,55,0
2,note_on,32,55,0
2,note_on,37,55,0
2,note_on,37,0,120
2,note_on,44,0,0
2,note_on,40,0,0
2,note_on,32,0,0
2,note_on,39,61,0
2,note_on,44,72,0
2,note_on,32,61,0
2,note_on,42,61,0
2,note_on,42,0,480
2,note_on,39,0,0
2,note_on,44,0,0
2,note_on,32,0,0
2,note_on,32,57,0
2,note_on,44,68,0
2,note_on,39,57,0
2,note_on,42,57,0
2,note_on,42,0,360
2,note_on,32,0,0
2,note_on,44,0,0
2,note_on,39,0,0
2,note_on,44,40,60
2,note_on,52,42,10
2,note_on,56,45,10
2,note_on,61,51,10
2,note_on,56,0,455
2,note_on,44,0,10
2,note_on,52,0,0
2,note_on,61,0,0
2,note_on,44,45,0
2,note_on,52,48,15
2,note_on,56,53,15
2,note_on,61,58,15
2,note_on,61,0,435
2,note_on,44,0,0
2,note_on,52,0,0
2,note_on,56,0,0
2,note_on,44,47,0
2,note_on,51,49,10
2,note_on,56,52,10
2,note_on,60,55,10
2,note_on,60,0,495
2,note_on,44,0,0
2,note_on,51,0,0
2,note_on,56,0,0
2,note_on,56,48,435
2,note_on,64,51,15
2,note_on,68,53,15
2,note_on,73,57,15
2,note_on,73,0,435
2,note_on,56,0,0
2,note_on,64,0,0
2,note_on,68,0,0
2,note_on,56,37,0
2,note_on,64,39,15
2,note_on,68,41,15
2,note_on,73,44,15
2,note_on,73,0,435
2,note_on,56,0,0
2,note_on,64,0,0
2,note_on,68,0,0
2,note_on,56,51,15
2,note_on,66,54,15
2,note_on,72,57,15
2,note_on,72,0,435
2,note_on,66,0,0
2,note_on,56,0,0
2,note_on,56,51,15
2,note_on,66,54,15
2,note_on,72,57,15
2,note_on,72,0,435
2,note_on,66,0,0
2,note_on,56,0,0
2,note_on,56,41,0
2,note_on,64,44,15
2,note_on,68,47,15
2,note_on,73,51,15
2,note_on,73,0,435
2,note_on,56,0,0
2,note_on,64,0,0
2,note_on,68,0,0
2,note_on,56,36,0
2,note_on,64,38,15
2,note_on,68,40,15
2,note_on,73,43,15
2,note_on,73,0,435
2,note_on,56,0,0
2,note_on,64,0,0
2,note_on,68,0,0
2,note_on,56,50,15
2,note_on,66,52,15
2,note_on,72,55,15
2,note_on,72,0,435
2,note_on,66,0,0
2,note_on,56,0,0
2,note_on,68,50,6045
2,note_on,68,0,210
2,note_on,61,44,0
2,note_on,68,46,15
2,note_on,77,48,15
2,note_on,77,0,120
2,note_on,68,0,0
2,note_on,61,0,0
2,note_on,68,47,330
2,note_on,75,49,15
2,note_on,78,51,15
2,note_on,78,0,120
2,note_on,75,0,0
2,note_on,68,0,0
2,note_on,61,42,330
2,note_on,68,46,15
2,note_on,77,49,15
2,note_on,77,0,120
2,note_on,68,0,0
2,note_on,61,0,0
2,note_on,73,50,600
2,note_on,73,0,240
2,note_on,82,44,0
2,note_on,66,44,0
2,note_on,73,44,0
2,note_on,82,0,120
2,note_on,73,0,120
2,note_on,66,0,0
2,note_on,82,44,0
2,note_on,82,0,120
2,note_on,80,54,120
2,note_on,65,44,0
2,note_on,74,44,0
2,note_on,74,0,240
2,note_on,65,0,0
2,note_on,80,0,240
2,note_on,63,48,0
2,note_on,70,48,0
2,note_on,78,50,0
2,note_on,78,0,120
2,note_on,70,0,120
2,note_on,63,0,0
2,note_on,78,54,0
2,note_on,78,0,480
2,note_on,75,53,0
2,note_on,78,53,0
2,note_on,78,0,240
2,note_on,75,0,0
2,note_on,82,61,0
2,note_on,85,61,0
2,note_on,85,0,240
2,note_on,82,0,0
2,note_on,82,53,0
2,note_on,85,53,0
2,note_on,85,0,240
2,note_on,82,0,0
2,note_on,80,60,0
2,note_on,84,60,0
2,note_on,84,0,360
2,note_on,80,0,0
2,note_on,78,48,0
2,note_on,82,57,0
2,note_on,82,0,120
2,note_on,78,0,0
2,note_on,77,56,0
2,note_on,80,65,0
2,note_on,80,0,120
2,note_on,77,0,0
2,note_on,68,56,120
2,note_on,77,56,0
2,note_on,80,56,0
2,note_on,80,0,480
2,note_on,77,0,0
2,note_on,68,0,0
2,note_on,77,50,0
2,note_on,81,50,0
2,note_on,81,0,195
2,note_on,77,0,0
2,note_on,68,45,0
2,note_on,72,49,15
2,note_on,78,53,15
2,note_on,82,58,15
2,note_on,82,0,120
2,note_on,68,0,0
2,note_on,72,0,0
2,note_on,78,0,0
2,note_on,58,34,1170
2,note_on,58,0,52
2,note_on,56,35,0
2,note_on,56,0,51
2,note_on,54,35,0
2,note_on,54,0,52
2,note_on,53,35,0
2,note_on,53,0,52
2,note_on,51,35,0
2,note_on,51,0,51
2,note_on,49,35,0
2,note_on,49,0,52
2,note_on,48,35,0
2,note_on,48,0,51
2,note_on,46,35,0
2,note_on,46,0,52
2,note_on,44,35,0
2,note_on,44,0,52
2,note_on,42,35,0
2,note_on,42,0,51
2,note_on,41,35,0
2,note_on,39,35,51
2,note_on,41,0,1
2,note_on,39,0,62
2,note_on,37,35,0
2,note_on,37,0,60
2,note_on,41,35,0
2,note_on,41,0,60
2,note_on,44,36,0
2,note_on,44,0,60
2,note_on,49,37,0
2,note_on,49,0,60
2,note_on,53,38,0
2,note_on,53,0,60
2,note_on,56,39,0
2,note_on,56,0,60
2,note_on,61,39,0
2,note_on,61,0,60
2,note_on,65,40,0
2,note_on,65,0,60
2,note_on,49,41,1440
2,note_on,49,0,120
2,note_on,56,34,120
2,note_on,61,34,0
2,note_on,61,0,60
2,note_on,56,0,0
2,note_on,44,42,180
2,note_on,44,0,120
2,note_on,56,34,120
2,note_on,63,34,0
2,note_on,63,0,60
2,note_on,56,0,0
2,note_on,49,44,180
2,note_on,49,0,60
2,note_on,56,34,180
2,note_on,61,34,0
2,note_on,61,0,60
2,note_on,56,0,0
2,note_on,49,45,180
2,note_on,49,0,60
2,note_on,56,34,180
2,note_on,61,34,0
2,note_on,61,0,60
2,note_on,56,0,0
2,note_on,54,47,180
2,note_on,54,0,60
2,note_on,66,34,180
2,note_on,61,34,0
2,note_on,61,0,60
2,note_on,66,0,0
2,note_on,53,47,180
2,note_on,53,0,60
2,note_on,65,34,180
2,note_on,62,34,0
2,note_on,62,0,60
2,note_on,65,0,0
2,note_on,51,43,180
2,note_on,51,0,120
2,note_on,63,34,120
2,note_on,58,34,0
2,note_on,58,0,60
2,note_on,63,0,0
2,note_on,51,46,180
2,note_on,51,0,120
2,note_on,63,34,120
2,note_on,58,34,0
2,note_on,58,0,60
2,note_on,63,0,0
2,note_on,42,50,180
2,note_on,42,0,120
2,note_on,61,33,120
2,note_on,70,40,0
2,note_on,70,0,240
2,note_on,61,0,0
2,note_on,61,33,0
2,note_on,68,40,0
2,note_on,68,0,360
2,note_on,66,40,0
2,note_on,66,0,120
2,note_on,61,0,0
2,note_on,44,50,0
2,note_on,44,0,120
2,note_on,65,40,120
2,note_on,61,40,0
2,note_on,61,0,120
2,note_on,65,0,0
2,note_on,56,40,120
2,note_on,56,0,120
2,note_on,65,46,240
2,note_on,69,46,0
2,note_on,69,0,120
2,note_on,65,0,0
2,note_on,66,50,0
2,note_on,70,50,0
2,note_on,70,0,60
2,note_on,66,0,0
2,note_on,66,50,180
2,note_on,70,50,0
2,note_on,70,0,480
2,note_on,66,0,0
2,note_on,63,47,0
2,note_on,56,37,0
2,note_on,56,0,240
2,note_on,63,0,0
2,note_on,61,51,0
2,note_on,61,0,60
2,note_on,61,53,180
2,note_on,49,42,0
2,note_on,56,42,0
2,note_on,56,0,480
2,note_on,49,0,0
2,note_on,61,0,0
2,note_on,49,47,240
2,note_on,37,37,0
2,note_on,37,0,120
2,note_on,49,0,0
2,note_on,61,34,120
2,note_on,65,34,0
2,note_on,68,34,0
2,note_on,68,0,60
2,note_on,65,0,0
2,note_on,61,0,0
2,note_on,56,47,180
2,note_on,44,37,0
2,note_on,44,0,120
2,note_on,56,0,0
2,note_on,63,34,120
2,note_on,66,34,0
2,note_on,68,34,0
2,note_on,68,0,60
2,note_on,66,0,0
2,note_on,63,0,0
2,note_on,49,45,180
2,note_on,37,36,0
2,note_on,37,0,60
2,note_on,49,0,0
2,note_on,61,34,180
2,note_on,65,34,0
2,note_on,68,34,0
2,note_on,68,0,60
2,note_on,65,0,0
2,note_on,61,0,0
2,note_on,56,46,180
2,note_on,44,36,0
2,note_on,44,0,60
2,note_on,56,0,0
2,note_on,65,34,180
2,note_on,61,34,0
2,note_on,68,34,0
2,note_on,68,0,60
2,note_on,61,0,0
2,note_on,65,0,0
2,note_on,54,43,180
2,note_on,42,34,0
2,note_on,42,0,60
2,note_on,54,0,0
2,note_on,61,34,180
2,note_on,70,34,0
2,note_on,66,34,0
2,note_on,66,0,60
2,note_on,70,0,0
2,note_on,61,0,0
2,note_on,53,44,180
2,note_on,41,35,0
2,note_on,41,0,60
2,note_on,53,0,0
2,note_on,58,34,180
2,note_on,68,34,0
2,note_on,62,34,0
2,note_on,62,0,60
2,note_on,68,0,0
2,note_on,58,0,0
2,note_on,51,50,180
2,note_on,39,40,0
2,note_on,39,0,120
2,note_on,51,0,0
2,note_on,66,34,120
2,note_on,63,34,0
2,note_on,63,0,60
2,note_on,66,0,0
2,note_on,58,47,180
2,note_on,46,37,0
2,note_on,46,0,120
2,note_on,58,0,0
2,note_on,66,34,120
2,note_on,63,34,0
2,note_on,63,0,60
2,note_on,66,0,0
2,note_on,54,48,180
2,note_on,42,38,0
2,note_on,42,0,240
2,note_on,54,0,0
2,note_on,73,40,0
2,note_on,61,34,0
2,note_on,70,34,0
2,note_on,70,0,240
2,note_on,61,0,0
2,note_on,73,0,0
2,note_on,72,40,0
2,note_on,61,34,0
2,note_on,68,34,0
2,note_on,68,0,360
2,note_on,72,0,0
2,note_on,70,40,0
2,note_on,66,34,0
2,note_on,66,0,120
2,note_on,70,0,0
2,note_on,61,0,0
2,note_on,44,55,0
2,note_on,44,0,60
2,note_on,65,40,180
2,note_on,68,40,0
2,note_on,61,40,0
2,note_on,61,0,120
2,note_on,68,0,0
2,note_on,65,0,0
2,note_on,56,40,120
2,note_on,56,0,120
2,note_on,65,46,240
2,note_on,77,46,0
2,note_on,77,0,120
2,note_on,65,0,0
2,note_on,66,50,0
2,note_on,78,50,0
2,note_on,78,0,60
2,note_on,66,0,0
2,note_on,44,37,420
2,note_on,56,47,0
2,note_on,51,37,0
2,note_on,51,0,480
2,note_on,56,0,0
2,note_on,44,0,0
2,note_on,49,45,0
2,note_on,56,51,0
2,note_on,56,0,60
2,note_on,49,0,0
2,note_on,56,53,180
2,note_on,49,42,0
2,note_on,49,0,360
2,note_on,56,0,0
2,note_on,61,38,600
2,note_on,61,0,90
2,note_on,77,34,30
2,note_on,77,0,90
2,note_on,68,39,30
2,note_on,68,0,90
2,note_on,77,36,30
2,note_on,77,0,90
2,note_on,73,40,30
2,note_on,73,0,90
2,note_on,77,37,30
2,note_on,77,0,90
2,note_on,68,42,30
2,note_on,68,0,90
2,note_on,77,38,30
2,note_on,77,0,90
2,note_on,61,44,30
2,note_on,61,0,90
2,note_on,77,40,30
2,note_on,77,0,90
2,note_on,68,46,30
2,note_on,68,0,90
2,note_on,77,42,30
2,note_on,77,0,90
2,note_on,73,47,30
2,note_on,73,0,90
2,note_on,77,45,30
2,note_on,77,0,90
2,note_on,68,48,30
2,note_on,68,0,90
2,note_on,77,42,30
2,note_on,77,0,90
2,note_on,61,50,30
2,note_on,61,0,90
2,note_on,77,46,30
2,note_on,77,0,90
2,note_on,68,52,30
2,note_on,68,0,90
2,note_on,77,46,30
2,note_on,77,0,90
2,note_on,73,53,30
2,note_on,73,0,90
2,note_on,77,48,30
2,note_on,77,0,90
2,note_on,68,52,30
2,note_on,68,0,90
2,note_on,77,46,30
2,note_on,77,0,120
2,note_on,61,50,0
2,note_on,61,0,120
2,note_on,69,46,120
2,note_on,69,0,120
2,note_on,72,42,120
2,note_on,77,42,0
2,note_on,77,0,120
2,note_on,72,0,0
2,note_on,70,46,120
2,note_on,70,0,120
2,note_on,82,42,120
2,note_on,77,35,0
2,note_on,77,0,120
2,note_on,82,0,0
2,note_on,65,46,120
2,note_on,65,0,120
2,note_on,87,41,120
2,note_on,81,34,0
2,note_on,77,34,0
2,note_on,77,0,120
2,note_on,81,0,0
2,note_on,87,0,0
2,note_on,85,47,120
2,note_on,82,39,0
2,note_on,82,0,120
2,note_on,85,0,0
2,note_on,87,41,120
2,note_on,84,34,0
2,note_on,77,34,0
2,note_on,77,0,120
2,note_on,84,0,0
2,note_on,87,0,0
2,note_on,85,45,120
2,note_on,82,37,0
2,note_on,82,0,120
2,note_on,85,0,0
2,note_on,87,39,120
2,note_on,84,32,0
2,note_on,77,32,0
2,note_on,77,0,120
2,note_on,84,0,0
2,note_on,87,0,0
2,note_on,85,43,120
2,note_on,82,35,0
2,note_on,82,0,120
2,note_on,85,0,0
2,note_on,87,37,120
2,note_on,84,31,0
2,note_on,77,31,0
2,note_on,77,0,120
2,note_on,84,0,0
2,note_on,87,0,0
2,note_on,85,41,120
2,note_on,82,34,0
2,note_on,82,0,120
2,note_on,85,0,0
2,note_on,87,36,120
2,note_on,84,30,0
2,note_on,77,30,0
2,note_on,77,0,120
2,note_on,84,0,0
2,note_on,87,0,0
2,note_on,82,35,120
2,note_on,85,43,0
2,note_on,85,0,120
2,note_on,82,0,0
2,note_on,70,44,1770
2,note_on,85,44,30
2,note_on,85,0,450
2,note_on,70,0,0
2,note_on,70,49,0
2,note_on,85,49,30
2,note_on,85,0,450
2,note_on,70,0,0
2,note_on,68,48,0
2,note_on,84,50,30
2,note_on,84,0,690
2,note_on,68,0,0
2,note_on,66,51,0
2,note_on,82,51,30
2,note_on,82,0,210
2,note_on,66,0,0
2,note_on,65,58,0
2,note_on,80,58,30
2,note_on,80,0,240
2,note_on,65,0,0
2,note_on,68,52,240
2,note_on,77,52,0
2,note_on,80,52,0
2,note_on,80,0,1200
2,note_on,77,0,0
2,note_on,68,0,0
2,note_on,81,47,0
2,note_on,77,39,0
2,note_on,77,0,240
2,note_on,81,0,0
2,note_on,82,55,0
2,note_on,68,46,0
2,note_on,72,46,0
2,note_on,78,46,0
2,note_on,78,0,120
2,note_on,82,0,0
2,note_on,68,0,0
2,note_on,72,0,0
2,note_on,56,39,795
2,note_on,63,41,15
2,note_on,66,44,15
2,note_on,72,46,15
2,note_on,63,0,100
2,note_on,56,0,20
2,note_on,66,0,0
2,note_on,72,0,0
2,note_on,37,33,810
2,note_on,44,36,15
2,note_on,49,39,15
2,note_on,53,39,60
2,note_on,53,0,60
2,note_on,56,40,0
2,note_on,56,0,60
2,note_on,49,0,60
2,note_on,44,0,0
2,note_on,37,0,0
2,note_on,49,34,1920
2,note_on,49,0,90
2,note_on,65,30,30
2,note_on,65,0,90
2,note_on,56,35,30
2,note_on,56,0,90
2,note_on,65,32,30
2,note_on,65,0,90
2,note_on,61,36,30
2,note_on,61,0,90
2,note_on,65,33,30
2,note_on,65,0,90
2,note_on,56,37,30
2,note_on,56,0,90
2,note_on,65,34,30
2,note_on,65,0,90
2,note_on,49,39,30
2,note_on,49,0,90
2,note_on,65,36,30
2,note_on,65,0,90
2,note_on,56,41,30
2,note_on,56,0,90
2,note_on,65,37,30
2,note_on,65,0,90
2,note_on,61,42,30
2,note_on,61,0,90
2,note_on,65,40,30
2,note_on,65,0,90
2,note_on,56,43,30
2,note_on,56,0,90
2,note_on,65,37,30
2,note_on,65,0,90
2,note_on,49,45,30
2,note_on,49,0,90
2,note_on,65,41,30
2,note_on,65,0,90
2,note_on,56,46,30
2,note_on,56,0,90
2,note_on,65,41,30
2,note_on,65,0,90
2,note_on,61,47,30
2,note_on,61,0,90
2,note_on,65,43,30
2,note_on,65,0,90
2,note_on,56,46,30
2,note_on,56,0,90
2,note_on,65,41,30
2,note_on,65,0,120
2,note_on,49,45,0
2,note_on,49,0,120
2,note_on,57,41,120
2,note_on,57,0,120
2,note_on,60,37,120
2,note_on,65,37,0
2,note_on,65,0,120
2,note_on,60,0,0
2,note_on,58,41,120
2,note_on,58,0,120
2,note_on,70,37,120
2,note_on,65,31,0
2,note_on,65,0,120
2,note_on,70,0,0
2,note_on,53,41,120
2,note_on,53,0,120
2,note_on,75,36,120
2,note_on,69,30,0
2,note_on,65,30,0
2,note_on,65,0,120
2,note_on,69,0,0
2,note_on,75,0,0
2,note_on,73,42,120
2,note_on,70,35,0
2,note_on,70,0,120
2,note_on,73,0,0
2,note_on,75,36,120
2,note_on,72,30,0
2,note_on,65,30,0
2,note_on,65,0,120
2,note_on,72,0,0
2,note_on,75,0,0
2,note_on,73,40,120
2,note_on,70,33,0
2,note_on,70,0,120
2,note_on,73,0,0
2,note_on,75,35,120
2,note_on,72,28,0
2,note_on,65,28,0
2,note_on,65,0,120
2,note_on,72,0,0
2,note_on,75,0,0
2,note_on,73,38,120
2,note_on,70,31,0
2,note_on,70,0,120
2,note_on,73,0,0
2,note_on,75,33,120
2,note_on,72,27,0
2,note_on,65,27,0
2,note_on,65,0,120
2,note_on,72,0,0
2,note_on,75,0,0
2,note_on,73,36,120
2,note_on,70,30,0
2,note_on,70,0,120
2,note_on,73,0,0
2,note_on,75,32,120
2,note_on,72,27,0
2,note_on,65,27,0
2,note_on,65,0,120
2,note_on,72,0,0
2,note_on,75,0,0
2,note_on,70,31,120
2,note_on,73,38,0
2,note_on,73,0,960
2,note_on,70,0,0
2,note_on,54,56,1320
2,note_on,54,0,120
2,note_on,70,56,0
2,note_on,73,56,0
2,note_on,73,0,120
2,note_on,70,0,0
2,note_on,70,54,600
2,note_on,73,54,0
2,note_on,73,0,480
2,note_on,70,0,0
2,note_on,68,53,0
2,note_on,72,53,0
2,note_on,72,0,480
2,note_on,68,0,0
2,note_on,54,54,1140
2,note_on,42,45,0
2,note_on,42,0,60
2,note_on,54,0,0
2,note_on,53,63,0
2,note_on,44,53,0
2,note_on,44,0,120
2,note_on,53,0,0
2,note_on,56,45,600
2,note_on,65,45,0
2,note_on,68,45,0
2,note_on,68,0,2160
2,note_on,65,0,0
2,note_on,56,0,0
2,note_on,65,64,1380
2,note_on,53,54,0
2,note_on,53,0,60
2,note_on,65,0,0
2,note_on,66,75,0
2,note_on,54,63,0
2,note_on,54,0,120
2,note_on,66,0,0
2,note_on,48,63,360
2,note_on,32,63,0
2,note_on,39,63,0
2,note_on,44,75,0
2,note_on,44,0,480
2,note_on,48,0,0
2,note_on,32,0,0
2,note_on,39,0,0
2,note_on,37,37,1440
2,note_on,37,0,60
2,note_on,44,37,60
2,note_on,44,0,60
2,note_on,56,40,60
2,note_on,49,34,0
2,note_on,49,0,240
2,note_on,56,0,0
2,note_on,37,38,0
2,note_on,37,0,60
2,note_on,44,38,60
2,note_on,44,0,60
2,note_on,56,40,60
2,note_on,49,34,0
2,note_on,49,0,240
2,note_on,56,0,0
2,note_on,37,37,0
2,note_on,37,0,60
2,note_on,44,37,60
2,note_on,44,0,60
2,note_on,56,40,60
2,note_on,49,34,0
2,note_on,49,0,240
2,note_on,56,0,0
2,note_on,37,38,0
2,note_on,37,0,60
2,note_on,44,38,60
2,note_on,44,0,60
2,note_on,56,40,60
2,note_on,49,34,0
2,note_on,49,0,240
2,note_on,56,0,0
2,note_on,37,37,0
2,note_on,37,0,60
2,note_on,44,37,60
2,note_on,44,0,60
2,note_on,56,40,60
2,note_on,49,34,0
2,note_on,49,0,240
2,note_on,56,0,0
2,note_on,37,38,0
2,note_on,37,0,60
2,note_on,44,38,60
2,note_on,44,0,60
2,note_on,56,40,60
2,note_on,49,34,0
2,note_on,49,0,240
2,note_on,56,0,0
2,note_on,37,37,0
2,note_on,37,0,60
2,note_on,44,37,60
2,note_on,44,0,60
2,note_on,56,40,60
2,note_on,49,34,0
2,note_on,49,0,240
2,note_on,56,0,0
2,note_on,37,38,0
2,note_on,37,0,60
2,note_on,44,38,60
2,note_on,44,0,60
2,note_on,56,40,60
2,note_on,49,34,0
2,note_on,49,0,240
2,note_on,56,0,0
2,note_on,37,37,0
2,note_on,37,0,60
2,note_on,45,37,60
2,note_on,45,0,60
2,note_on,57,40,60
2,note_on,49,34,0
2,note_on,49,0,240
2,note_on,57,0,0
2,note_on,37,38,0
2,note_on,37,0,60
2,note_on,45,38,60
2,note_on,45,0,60
2,note_on,57,40,60
2,note_on,49,34,0
2,note_on,49,0,240
2,note_on,57,0,0
2,note_on,37,37,0
2,note_on,37,0,60
2,note_on,45,37,60
2,note_on,45,0,60
2,note_on,57,40,60
2,note_on,49,34,0
2,note_on,49,0,240
2,note_on,57,0,0
2,note_on,37,38,0
2,note_on,37,0,60
2,note_on,45,38,60
2,note_on,45,0,60
2,note_on,57,40,60
2,note_on,49,34,0
2,note_on,49,0,240
2,note_on,57,0,0
2,note_on,37,37,0
2,note_on,37,0,60
2,note_on,45,37,60
2,note_on,45,0,60
2,note_on,57,40,60
2,note_on,49,34,0
2,note_on,49,0,240
2,note_on,57,0,0
2,note_on,37,38,0
2,note_on,37,0,60
2,note_on,45,38,60
2,note_on,45,0,60
2,note_on,57,40,60
2,note_on,49,34,0
2,note_on,49,0,240
2,note_on,57,0,0
2,note_on,37,37,0
2,note_on,37,0,60
2,note_on,49,37,60
2,note_on,49,0,60
2,note_on,62,40,60
2,note_on,54,34,0
2,note_on,54,0,240
2,note_on,62,0,0
2,note_on,37,38,0
2,note_on,37,0,60
2,note_on,49,38,60
2,note_on,49,0,60
2,note_on,62,40,60
2,note_on,54,34,0
2,note_on,54,0,240
2,note_on,62,0,0
2,note_on,37,37,0
2,note_on,37,0,60
2,note_on,49,37,60
2,note_on,49,0,60
2,note_on,62,40,60
2,note_on,54,34,0
2,note_on,54,0,240
2,note_on,62,0,0
2,note_on,37,38,0
2,note_on,37,0,60
2,note_on,49,38,60
2,note_on,49,0,60
2,note_on,62,40,60
2,note_on,54,34,0
2,note_on,54,0,240
2,note_on,62,0,0
2,note_on,37,37,0
2,note_on,37,0,60
2,note_on,49,37,60
2,note_on,49,0,60
2,note_on,62,40,60
2,note_on,54,34,0
2,note_on,54,0,240
2,note_on,62,0,0
2,note_on,65,45,0
2,note_on,65,0,60
2,note_on,71,41,60
2,note_on,71,0,60
2,note_on,74,47,60
2,note_on,74,0,240
2,note_on,61,45,0
2,note_on,61,0,60
2,note_on,66,42,60
2,note_on,66,0,60
2,note_on,69,46,60
2,note_on,69,0,60
2,note_on,65,46,180
2,note_on,65,0,60
2,note_on,71,41,60
2,note_on,71,0,60
2,note_on,74,48,60
2,note_on,74,0,60
2,note_on,61,47,180
2,note_on,61,0,60
2,note_on,66,41,60
2,note_on,66,0,60
2,note_on,69,46,60
2,note_on,69,0,60
2,note_on,68,44,180
2,note_on,68,0,60
2,note_on,75,38,60
2,note_on,75,0,60
2,note_on,78,45,60
2,note_on,78,0,60
2,note_on,61,46,180
2,note_on,61,0,60
2,note_on,68,42,60
2,note_on,68,0,60
2,note_on,72,45,60
2,note_on,72,0,60
2,note_on,56,45,180
2,note_on,56,0,60
2,note_on,63,42,60
2,note_on,63,0,60
2,note_on,66,46,60
2,note_on,66,0,60
2,note_on,37,48,180
2,note_on,37,0,60
2,note_on,44,48,60
2,note_on,44,0,60
2,note_on,56,52,60
2,note_on,49,44,0
2,note_on,49,0,240
2,note_on,56,0,0
2,note_on,49,49,0
2,note_on,49,0,60
2,note_on,56,49,60
2,note_on,56,0,60
2,note_on,61,52,60
2,note_on,61,0,240
2,note_on,37,48,0
2,note_on,37,0,60
2,note_on,44,48,60
2,note_on,44,0,60
2,note_on,56,52,60
2,note_on,49,44,0
2,note_on,49,0,240
2,note_on,56,0,0
2,note_on,49,49,0
2,note_on,49,0,60
2,note_on,56,49,60
2,note_on,56,0,60
2,note_on,61,52,60
2,note_on,61,0,240
2,note_on,37,48,0
2,note_on,37,0,60
2,note_on,44,48,60
2,note_on,44,0,60
2,note_on,56,52,60
2,note_on,49,44,0
2,note_on,49,0,240
2,note_on,56,0,0
2,note_on,37,48,0
2,note_on,37,0,60
2,note_on,45,48,60
2,note_on,45,0,60
2,note_on,57,52,60
2,note_on,49,44,0
2,note_on,49,0,240
2,note_on,57,0,0
2,note_on,49,49,0
2,note_on,49,0,60
2,note_on,57,49,60
2,note_on,57,0,60
2,note_on,64,52,60
2,note_on,64,0,240
2,note_on,37,48,0
2,note_on,37,0,60
2,note_on,45,48,60
2,note_on,45,0,60
2,note_on,57,52,60
2,note_on,49,44,0
2,note_on,49,0,240
2,note_on,57,0,0
2,note_on,49,49,0
2,note_on,49,0,60
2,note_on,57,49,60
2,note_on,57,0,60
2,note_on,64,52,60
2,note_on,64,0,240
2,note_on,37,48,0
2,note_on,37,0,60
2,note_on,45,48,60
2,note_on,45,0,60
2,note_on,57,52,60
2,note_on,49,44,0
2,note_on,49,0,240
2,note_on,57,0,0
2,note_on,37,48,0
2,note_on,37,0,60
2,note_on,45,48,60
2,note_on,45,0,60
2,note_on,57,52,60
2,note_on,49,44,0
2,note_on,49,0,240
2,note_on,57,0,0
2,note_on,49,49,0
2,note_on,49,0,60
2,note_on,54,49,60
2,note_on,54,0,60
2,note_on,62,52,60
2,note_on,57,44,0
2,note_on,57,0,240
2,note_on,62,0,0
2,note_on,37,48,0
2,note_on,37,0,60
2,note_on,45,48,60
2,note_on,45,0,60
2,note_on,57,52,60
2,note_on,49,44,0
2,note_on,49,0,240
2,note_on,57,0,0
2,note_on,49,49,0
2,note_on,49,0,60
2,note_on,54,49,60
2,note_on,54,0,60
2,note_on,62,52,60
2,note_on,57,44,0
2,note_on,57,0,240
2,note_on,62,0,0
2,note_on,37,48,0
2,note_on,37,0,60
2,note_on,45,48,60
2,note_on,45,0,60
2,note_on,57,52,60
2,note_on,49,44,0
2,note_on,49,0,240
2,note_on,57,0,0
2,note_on,65,58,0
2,note_on,65,0,60
2,note_on,71,53,60
2,note_on,71,0,60
2,note_on,74,61,60
2,note_on,74,0,240
2,note_on,61,58,0
2,note_on,61,0,60
2,note_on,66,54,60
2,note_on,66,0,60
2,note_on,69,59,60
2,note_on,69,0,60
2,note_on,65,59,180
2,note_on,65,0,60
2,note_on,71,53,60
2,note_on,71,0,60
2,note_on,74,62,60
2,note_on,74,0,60
2,note_on,61,61,180
2,note_on,61,0,60
2,note_on,66,53,60
2,note_on,66,0,60
2,note_on,69,59,60
2,note_on,69,0,60
2,note_on,68,57,180
2,note_on,68,0,60
2,note_on,75,49,60
2,note_on,75,0,60
2,note_on,78,58,60
2,note_on,78,0,60
2,note_on,61,59,180
2,note_on,61,0,60
2,note_on,68,54,60
2,note_on,68,0,60
2,note_on,72,58,60
2,note_on,72,0,60
2,note_on,56,58,180
2,note_on,56,0,60
2,note_on,63,54,60
2,note_on,63,0,60
2,note_on,66,59,60
2,note_on,66,0,60
2,note_on,49,40,180
2,note_on,49,0,60
2,note_on,56,35,60
2,note_on,56,0,60
2,note_on,68,35,60
2,note_on,61,35,0
2,note_on,61,0,60
2,note_on,68,0,0
2,note_on,56,35,60
2,note_on,56,0,60
2,note_on,49,40,60
2,note_on,49,0,60
2,note_on,56,36,60
2,note_on,56,0,60
2,note_on,68,36,60
2,note_on,61,36,0
2,note_on,61,0,60
2,note_on,68,0,0
2,note_on,56,37,60
2,note_on,56,0,60
2,note_on,49,40,60
2,note_on,49,0,60
2,note_on,56,35,60
2,note_on,56,0,60
2,note_on,68,35,60
2,note_on,61,35,0
2,note_on,61,0,60
2,note_on,68,0,0
2,note_on,56,35,60
2,note_on,56,0,60
2,note_on,49,40,60
2,note_on,49,0,60
2,note_on,56,36,60
2,note_on,56,0,60
2,note_on,68,36,60
2,note_on,60,36,0
2,note_on,60,0,60
2,note_on,68,0,0
2,note_on,56,37,60
2,note_on,56,0,60
2,note_on,49,40,60
2,note_on,49,0,60
2,note_on,56,35,60
2,note_on,56,0,60
2,note_on,68,35,60
2,note_on,61,35,0
2,note_on,61,0,60
2,note_on,68,0,0
2,note_on,56,35,60
2,note_on,56,0,60
2,note_on,49,40,60
2,note_on,49,0,60
2,note_on,56,36,60
2,note_on,56,0,60
2,note_on,68,36,60
2,note_on,61,36,0
2,note_on,61,0,60
2,note_on,68,0,0
2,note_on,56,37,60
2,note_on,56,0,60
2,note_on,49,45,60
2,note_on,49,0,60
2,note_on,56,40,60
2,note_on,56,0,60
2,note_on,68,40,60
2,note_on,61,40,0
2,note_on,61,0,60
2,note_on,68,0,0
2,note_on,56,40,60
2,note_on,56,0,60
2,note_on,49,46,60
2,note_on,49,0,60
2,note_on,56,39,60
2,note_on,56,0,60
2,note_on,68,39,60
2,note_on,60,39,0
2,note_on,60,0,60
2,note_on,68,0,0
2,note_on,56,37,60
2,note_on,56,0,60
2,note_on,49,40,60
2,note_on,49,0,60
2,note_on,56,35,60
2,note_on,56,0,60
2,note_on,68,35,60
2,note_on,61,35,0
2,note_on,61,0,60
2,note_on,68,0,0
2,note_on,56,35,60
2,note_on,56,0,60
2,note_on,49,40,60
2,note_on,49,0,60
2,note_on,56,36,60
2,note_on,56,0,60
2,note_on,68,36,60
2,note_on,61,36,0
2,note_on,61,0,60
2,note_on,68,0,0
2,note_on,56,37,60
2,note_on,56,0,60
2,note_on,49,40,60
2,note_on,49,0,60
2,note_on,56,35,60
2,note_on,56,0,60
2,note_on,68,35,60
2,note_on,61,35,0
2,note_on,61,0,60
2,note_on,68,0,0
2,note_on,56,35,60
2,note_on,56,0,60
2,note_on,49,40,60
2,note_on,49,0,60
2,note_on,56,36,60
2,note_on,56,0,60
2,note_on,68,36,60
2,note_on,60,36,0
2,note_on,60,0,60
2,note_on,68,0,0
2,note_on,56,37,60
2,note_on,56,0,60
2,note_on,49,40,60
2,note_on,49,0,60
2,note_on,56,35,60
2,note_on,56,0,60
2,note_on,68,35,60
2,note_on,61,35,0
2,note_on,61,0,60
2,note_on,68,0,0
2,note_on,56,35,60
2,note_on,56,0,60
2,note_on,49,40,60
2,note_on,49,0,60
2,note_on,56,36,60
2,note_on,56,0,60
2,note_on,68,36,60
2,note_on,61,36,0
2,note_on,61,0,60
2,note_on,68,0,0
2,note_on,56,37,60
2,note_on,56,0,60
2,note_on,49,44,60
2,note_on,49,0,60
2,note_on,56,39,60
2,note_on,56,0,60
2,note_on,68,39,60
2,note_on,61,39,0
2,note_on,61,0,60
2,note_on,68,0,0
2,note_on,56,39,60
2,note_on,56,0,60
2,note_on,49,44,60
2,note_on,49,0,60
2,note_on,56,36,60
2,note_on,56,0,60
2,note_on,68,36,60
2,note_on,60,36,0
2,note_on,60,0,60
2,note_on,68,0,0
2,note_on,56,37,60
2,note_on,56,0,60
2,note_on,49,40,60
2,note_on,49,0,60
2,note_on,56,35,60
2,note_on,56,0,60
2,note_on,65,35,60
2,note_on,61,35,0
2,note_on,61,0,60
2,note_on,65,0,0
2,note_on,56,35,60
2,note_on,56,0,60
2,note_on,49,40,60
2,note_on,49,0,60
2,note_on,56,36,60
2,note_on,56,0,60
2,note_on,66,36,60
2,note_on,60,36,0
2,note_on,60,0,60
2,note_on,66,0,0
2,note_on,56,37,60
2,note_on,56,0,60
2,note_on,49,40,60
2,note_on,49,0,60
2,note_on,56,35,60
2,note_on,56,0,60
2,note_on,65,35,60
2,note_on,61,35,0
2,note_on,61,0,60
2,note_on,65,0,0
2,note_on,56,35,60
2,note_on,56,0,60
2,note_on,49,40,60
2,note_on,49,0,60
2,note_on,56,36,60
2,note_on,56,0,60
2,note_on,66,36,60
2,note_on,60,36,0
2,note_on,60,0,60
2,note_on,66,0,0
2,note_on,56,37,60
2,note_on,56,0,60
2,note_on,49,40,60
2,note_on,49,0,60
2,note_on,56,35,60
2,note_on,56,0,60
2,note_on,65,35,60
2,note_on,61,35,0
2,note_on,61,0,60
2,note_on,65,0,0
2,note_on,56,35,60
2,note_on,56,0,60
2,note_on,49,40,60
2,note_on,49,0,60
2,note_on,56,36,60
2,note_on,56,0,60
2,note_on,66,36,60
2,note_on,60,36,0
2,note_on,60,0,60
2,note_on,66,0,0
2,note_on,56,37,60
2,note_on,56,0,60
2,note_on,49,40,60
2,note_on,49,0,60
2,note_on,56,35,60
2,note_on,56,0,60
2,note_on,65,35,60
2,note_on,61,35,0
2,note_on,61,0,60
2,note_on,65,0,0
2,note_on,56,35,60
2,note_on,56,0,60
2,note_on,49,40,60
2,note_on,49,0,60
2,note_on,56,36,60
2,note_on,56,0,60
2,note_on,66,36,60
2,note_on,60,36,0
2,note_on,60,0,60
2,note_on,66,0,0
2,note_on,56,37,60
2,note_on,56,0,60
2,note_on,49,40,60
2,note_on,49,0,60
2,note_on,56,35,60
2,note_on,56,0,60
2,note_on,65,35,60
2,note_on,61,35,0
2,note_on,61,0,60
2,note_on,65,0,0
2,note_on,56,35,60
2,note_on,56,0,60
2,note_on,49,40,60
2,note_on,49,0,60
2,note_on,56,36,60
2,note_on,56,0,60
2,note_on,66,36,60
2,note_on,60,36,0
2,note_on,60,0,60
2,note_on,66,0,0
2,note_on,56,37,60
2,note_on,56,0,60
2,note_on,49,40,60
2,note_on,49,0,60
2,note_on,56,35,60
2,note_on,56,0,60
2,note_on,65,35,60
2,note_on,61,35,0
2,note_on,61,0,60
2,note_on,65,0,0
2,note_on,56,35,60
2,note_on,56,0,60
2,note_on,49,40,60
2,note_on,49,0,60
2,note_on,56,36,60
2,note_on,56,0,60
2,note_on,66,36,60
2,note_on,60,36,0
2,note_on,60,0,60
2,note_on,66,0,0
2,note_on,56,37,60
2,note_on,56,0,60
2,note_on,49,40,60
2,note_on,49,0,60
2,note_on,56,35,60
2,note_on,56,0,60
2,note_on,65,35,60
2,note_on,61,35,0
2,note_on,61,0,60
2,note_on,65,0,0
2,note_on,56,35,60
2,note_on,56,0,60
2,note_on,49,40,61
2,note_on,49,0,60
2,note_on,56,36,59
2,note_on,56,0,60
2,note_on,66,36,60
2,note_on,60,36,0
2,note_on,60,0,60
2,note_on,66,0,0
2,note_on,56,37,60
2,note_on,56,0,60
2,note_on,49,40,61
2,note_on,49,0,60
2,note_on,56,35,60
2,note_on,56,0,60
2,note_on,65,35,60
2,note_on,61,35,0
2,note_on,61,0,60
2,note_on,65,0,0
2,note_on,56,35,60
2,note_on,56,0,60
2,note_on,49,40,60
2,note_on,49,0,60
2,note_on,56,36,60
2,note_on,56,0,60
2,note_on,66,36,60
2,note_on,60,36,0
2,note_on,60,0,60
2,note_on,66,0,0
2,note_on,56,37,60
2,note_on,56,0,60
2,note_on,49,40,60
2,note_on,49,0,60
2,note_on,56,35,60
2,note_on,56,0,60
2,note_on,65,35,60
2,note_on,61,35,0
2,note_on,61,0,60
2,note_on,65,0,0
2,note_on,56,35,59
2,note_on,56,0,60
2,note_on,49,42,61
2,note_on,49,0,60
2,note_on,56,37,60
2,note_on,56,0,60
2,note_on,66,37,60
2,note_on,60,37,0
2,note_on,60,0,60
2,note_on,66,0,0
2,note_on,56,38,60
2,note_on,56,0,60
2,note_on,49,42,60
2,note_on,49,0,60
2,note_on,56,36,60
2,note_on,56,0,60
2,note_on,65,36,60
2,note_on,61,36,0
2,note_on,61,0,60
2,note_on,65,0,0
2,note_on,56,36,60
2,note_on,56,0,60
2,note_on,49,42,59
2,note_on,49,0,60
2,note_on,56,37,60
2,note_on,56,0,60
2,note_on,66,37,60
2,note_on,60,37,0
2,note_on,60,0,60
2,note_on,66,0,0
2,note_on,56,38,60
2,note_on,56,0,60
2,note_on,49,42,61
2,note_on,49,0,60
2,note_on,56,36,60
2,note_on,56,0,60
2,note_on,65,36,60
2,note_on,61,36,0
2,note_on,61,0,60
2,note_on,65,0,0
2,note_on,56,36,60
2,note_on,56,0,60
2,note_on,49,42,59
2,note_on,49,0,60
2,note_on,56,37,60
2,note_on,56,0,60
2,note_on,66,37,60
2,note_on,60,37,0
2,note_on,60,0,60
2,note_on,66,0,0
2,note_on,56,38,60
2,note_on,56,0,60
2,note_on,49,42,61
2,note_on,49,0,60
2,note_on,56,36,60
2,note_on,56,0,60
2,note_on,65,36,60
2,note_on,61,36,0
2,note_on,61,0,60
2,note_on,65,0,0
2,note_on,56,36,60
2,note_on,56,0,60
2,note_on,49,42,59
2,note_on,49,0,60
2,note_on,56,37,60
2,note_on,56,0,60
2,note_on,66,37,60
2,note_on,60,37,0
2,note_on,60,0,60
2,note_on,66,0,0
2,note_on,56,38,60
2,note_on,56,0,60
2,note_on,49,43,61
2,note_on,49,0,60
2,note_on,56,37,60
2,note_on,56,0,60
2,note_on,65,37,60
2,note_on,61,37,0
2,note_on,61,0,60
2,note_on,65,0,0
2,note_on,56,38,60
2,note_on,56,0,60
2,note_on,49,44,59
2,note_on,49,0,60
2,note_on,56,39,60
2,note_on,56,0,60
2,note_on,66,40,60
2,note_on,60,40,0
2,note_on,60,0,60
2,note_on,66,0,0
2,note_on,56,41,60
2,note_on,56,0,60
2,note_on,49,41,30
2,note_on,65,54,30
2,note_on,65,0,240
2,note_on,49,0,0
2,note_on,80,60,0
2,note_on,77,60,0
2,note_on,77,0,300
2,note_on,80,0,0
2,note_on,85,55,60
2,note_on,82,55,0
2,note_on,82,0,60
2,note_on,85,0,0
2,note_on,84,55,60
2,note_on,80,55,0
2,note_on,80,0,60
2,note_on,84,0,0
2,note_on,82,55,60
2,note_on,78,55,0
2,note_on,78,0,60
2,note_on,82,0,0
2,note_on,77,60,60
2,note_on,80,60,0
2,note_on,80,0,120
2,note_on,77,0,0
2,note_on,82,51,240
2,note_on,78,51,0
2,note_on,82,0,40
2,note_on,84,51,0
2,note_on,84,0,40
2,note_on,82,51,0
2,note_on,82,0,40
2,note_on,78,0,0
2,note_on,80,60,0
2,note_on,77,60,0
2,note_on,77,0,60
2,note_on,80,0,0
2,note_on,78,54,60
2,note_on,75,54,0
2,note_on,75,0,60
2,note_on,78,0,0
2,note_on,77,54,60
2,note_on,73,54,0
2,note_on,73,0,60
2,note_on,77,0,0
2,note_on,68,54,60
2,note_on,75,54,0
2,note_on,75,0,60
2,note_on,68,0,0
2,note_on,65,54,60
2,note_on,73,54,0
2,note_on,73,0,120
2,note_on,65,0,0
2,note_on,68,60,120
2,note_on,65,60,0
2,note_on,65,0,300
2,note_on,68,0,0
2,note_on,73,55,60
2,note_on,70,55,0
2,note_on,70,0,60
2,note_on,73,0,0
2,note_on,72,55,60
2,note_on,68,55,0
2,note_on,68,0,60
2,note_on,72,0,0
2,note_on,70,55,60
2,note_on,66,55,0
2,note_on,66,0,60
2,note_on,70,0,0
2,note_on,65,60,60
2,note_on,68,60,0
2,note_on,68,0,120
2,note_on,65,0,0
2,note_on,65,60,120
2,note_on,68,60,0
2,note_on,68,0,300
2,note_on,65,0,0
2,note_on,66,54,60
2,note_on,63,54,0
2,note_on,63,0,60
2,note_on,66,0,0
2,note_on,65,54,60
2,note_on,61,54,0
2,note_on,61,0,60
2,note_on,65,0,0
2,note_on,56,54,60
2,note_on,63,54,0
2,note_on,63,0,60
2,note_on,56,0,0
2,note_on,53,62,60
2,note_on,61,62,0
2,note_on,61,0,60
2,note_on,53,0,0
2,note_on,56,58,420
2,note_on,63,58,0
2,note_on,63,0,360
2,note_on,66,53,0
2,note_on,66,0,60
2,note_on,56,0,60
2,note_on,61,58,0
2,note_on,65,61,0
2,note_on,65,0,60
2,note_on,68,55,60
2,note_on,68,0,60
2,note_on,61,0,60
2,note_on,61,55,0
2,note_on,61,0,120
2,note_on,56,58,120
2,note_on,63,58,0
2,note_on,63,0,360
2,note_on,66,53,0
2,note_on,66,0,60
2,note_on,56,0,60
2,note_on,61,58,0
2,note_on,65,61,0
2,note_on,65,0,60
2,note_on,68,55,60
2,note_on,68,0,60
2,note_on,61,0,60
2,note_on,61,55,0
2,note_on,61,0,120
2,note_on,56,63,120
2,note_on,63,63,0
2,note_on,63,0,360
2,note_on,66,58,0
2,note_on,66,0,60
2,note_on,56,0,60
2,note_on,61,63,0
2,note_on,65,67,0
2,note_on,65,0,60
2,note_on,68,60,60
2,note_on,68,0,60
2,note_on,61,0,60
2,note_on,61,60,0
2,note_on,61,0,120
2,note_on,48,50,120
2,note_on,48,0,60
2,note_on,49,51,0
2,note_on,49,0,60
2,note_on,51,52,0
2,note_on,51,0,60
2,note_on,53,53,0
2,note_on,53,0,60
2,note_on,54,54,0
2,note_on,54,0,60
2,note_on,56,55,0
2,note_on,56,0,60
2,note_on,58,57,0
2,note_on,58,0,60
2,note_on,60,58,0
2,note_on,60,0,60
2,note_on,61,59,0
2,note_on,61,0,60
2,note_on,63,60,0
2,note_on,63,0,60
2,note_on,65,61,0
2,note_on,65,0,60
2,note_on,66,62,0
2,note_on,66,0,60
2,note_on,68,63,0
2,note_on,68,0,120
2,note_on,60,56,120
2,note_on,60,0,60
2,note_on,61,57,0
2,note_on,61,0,60
2,note_on,63,59,0
2,note_on,63,0,60
2,note_on,65,60,0
2,note_on,65,0,60
2,note_on,66,61,0
2,note_on,66,0,60
2,note_on,68,63,0
2,note_on,68,0,60
2,note_on,70,64,0
2,note_on,70,0,60
2,note_on,72,65,0
2,note_on,72,0,60
2,note_on,73,67,0
2,note_on,73,0,60
2,note_on,75,68,0
2,note_on,75,0,60
2,note_on,77,69,0
2,note_on,77,0,60
2,note_on,78,71,0
2,note_on,78,0,60
2,note_on,80,72,0
2,note_on,80,0,120
2,note_on,53,61,120
2,note_on,53,0,60
2,note_on,54,62,0
2,note_on,54,0,60
2,note_on,56,64,0
2,note_on,56,0,60
2,note_on,58,65,0
2,note_on,58,0,60
2,note_on,59,66,0
2,note_on,59,0,60
2,note_on,61,67,0
2,note_on,61,0,60
2,note_on,63,69,0
2,note_on,63,0,60
2,note_on,65,70,0
2,note_on,65,0,60
2,note_on,66,72,0
2,note_on,66,0,60
2,note_on,68,73,0
2,note_on,68,0,60
2,note_on,70,74,0
2,note_on,70,0,60
2,note_on,71,76,0
2,note_on,71,0,60
2,note_on,73,77,0
2,note_on,73,0,120
2,note_on,65,67,120
2,note_on,65,0,60
2,note_on,66,69,0
2,note_on,66,0,60
2,note_on,68,70,0
2,note_on,68,0,60
2,note_on,70,72,0
2,note_on,70,0,60
2,note_on,71,73,0
2,note_on,71,0,60
2,note_on,73,75,0
2,note_on,73,0,60
2,note_on,75,77,0
2,note_on,75,0,60
2,note_on,77,78,0
2,note_on,77,0,60
2,note_on,78,80,0
2,note_on,78,0,60
2,note_on,80,81,0
2,note_on,80,0,60
2,note_on,82,83,0
2,note_on,82,0,60
2,note_on,84,85,0
2,note_on,84,0,60
2,note_on,85,86,0
2,note_on,85,0,120
2,note_on,48,88,120
2,note_on,36,64,0
2,note_on,44,64,0
2,note_on,42,64,0
2,note_on,42,0,240
2,note_on,48,0,0
2,note_on,36,0,0
2,note_on,44,0,0
2,note_on,51,78,0
2,note_on,39,57,0
2,note_on,44,57,0
2,note_on,42,57,0
2,note_on,42,0,240
2,note_on,51,0,0
2,note_on,39,0,0
2,note_on,44,0,0
2,note_on,51,85,0
2,note_on,39,63,0
2,note_on,41,63,0
2,note_on,44,63,0
2,note_on,44,0,240
2,note_on,51,0,0
2,note_on,39,0,0
2,note_on,41,0,0
2,note_on,49,78,0
2,note_on,37,57,0
2,note_on,41,57,0
2,note_on,44,57,0
2,note_on,44,0,240
2,note_on,49,0,0
2,note_on,37,0,0
2,note_on,41,0,0
2,note_on,53,86,0
2,note_on,41,64,0
2,note_on,47,64,0
2,note_on,49,64,0
2,note_on,49,0,240
2,note_on,53,0,0
2,note_on,41,0,0
2,note_on,47,0,0
2,note_on,56,78,0
2,note_on,44,57,0
2,note_on,47,57,0
2,note_on,49,57,0
2,note_on,49,0,240
2,note_on,56,0,0
2,note_on,44,0,0
2,note_on,47,0,0
2,note_on,56,86,0
2,note_on,44,64,0
2,note_on,46,64,0
2,note_on,49,64,0
2,note_on,49,0,240
2,note_on,56,0,0
2,note_on,44,0,0
2,note_on,46,0,0
2,note_on,54,81,0
2,note_on,42,59,0
2,note_on,46,59,0
2,note_on,49,59,0
2,note_on,49,0,240
2,note_on,54,0,0
2,note_on,42,0,0
2,note_on,46,0,0
2,note_on,30,71,0
2,note_on,42,98,0
2,note_on,42,0,240
2,note_on,30,0,0
2,note_on,70,93,0
2,note_on,58,69,0
2,note_on,61,69,0
2,note_on,66,69,0
2,note_on,66,0,60
2,note_on,70,0,0
2,note_on,58,0,0
2,note_on,61,0,0
2,note_on,70,88,60
2,note_on,58,66,0
2,note_on,61,66,0
2,note_on,66,66,0
2,note_on,66,0,60
2,note_on,70,0,0
2,note_on,58,0,0
2,note_on,61,0,0
2,note_on,70,95,60
2,note_on,58,71,0
2,note_on,61,71,0
2,note_on,66,71,0
2,note_on,66,0,120
2,note_on,70,0,0
2,note_on,58,0,0
2,note_on,61,0,0
2,note_on,54,81,120
2,note_on,42,69,0
2,note_on,49,69,0
2,note_on,49,0,60
2,note_on,42,0,0
2,note_on,54,0,0
2,note_on,53,73,60
2,note_on,41,61,0
2,note_on,49,61,0
2,note_on,49,0,60
2,note_on,41,0,0
2,note_on,53,0,0
2,note_on,53,80,60
2,note_on,41,67,0
2,note_on,49,67,0
2,note_on,49,0,360
2,note_on,41,0,0
2,note_on,53,0,0
2,note_on,39,68,120
2,note_on,51,94,0
2,note_on,51,0,240
2,note_on,39,0,0
2,note_on,66,89,0
2,note_on,54,66,0
2,note_on,58,66,0
2,note_on,63,66,0
2,note_on,63,0,60
2,note_on,66,0,0
2,note_on,54,0,0
2,note_on,58,0,0
2,note_on,66,84,60
2,note_on,54,63,0
2,note_on,58,63,0
2,note_on,63,63,0
2,note_on,63,0,60
2,note_on,66,0,0
2,note_on,54,0,0
2,note_on,58,0,0
2,note_on,66,91,60
2,note_on,54,68,0
2,note_on,58,68,0
2,note_on,63,68,0
2,note_on,63,0,120
2,note_on,66,0,0
2,note_on,54,0,0
2,note_on,58,0,0
2,note_on,54,56,240
2,note_on,42,47,0
2,note_on,42,0,120
2,note_on,54,0,0
2,note_on,54,56,0
2,note_on,47,47,0
2,note_on,47,0,60
2,note_on,54,0,0
2,note_on,56,59,60
2,note_on,44,50,0
2,note_on,44,0,60
2,note_on,56,0,0
2,note_on,56,63,60
2,note_on,49,53,0
2,note_on,49,0,120
2,note_on,56,0,0
2,note_on,36,51,120
2,note_on,36,0,60
2,note_on,37,53,0
2,note_on,37,0,60
2,note_on,39,54,0
2,note_on,39,0,60
2,note_on,41,55,0
2,note_on,41,0,60
2,note_on,42,57,0
2,note_on,42,0,60
2,note_on,44,58,0
2,note_on,44,0,60
2,note_on,46,59,0
2,note_on,46,0,60
2,note_on,47,60,0
2,note_on,47,0,60
2,note_on,49,62,0
2,note_on,49,0,60
2,note_on,51,63,0
2,note_on,51,0,60
2,note_on,53,65,0
2,note_on,53,0,60
2,note_on,54,66,0
2,note_on,54,0,60
2,note_on,56,67,0
2,note_on,56,0,120
2,note_on,41,58,120
2,note_on,41,0,60
2,note_on,42,60,0
2,note_on,42,0,60
2,note_on,44,61,0
2,note_on,44,0,60
2,note_on,46,62,0
2,note_on,46,0,60
2,note_on,47,63,0
2,note_on,47,0,60
2,note_on,49,65,0
2,note_on,49,0,60
2,note_on,51,66,0
2,note_on,51,0,60
2,note_on,53,67,0
2,note_on,53,0,60
2,note_on,54,68,0
2,note_on,54,0,60
2,note_on,56,70,0
2,note_on,56,0,60
2,note_on,58,71,0
2,note_on,58,0,60
2,note_on,59,72,0
2,note_on,59,0,60
2,note_on,61,73,0
2,note_on,61,0,120
2,note_on,30,71,120
2,note_on,42,98,0
2,note_on,42,0,240
2,note_on,30,0,0
2,note_on,61,93,0
2,note_on,49,69,0
2,note_on,54,69,0
2,note_on,58,69,0
2,note_on,58,0,60
2,note_on,61,0,0
2,note_on,49,0,0
2,note_on,54,0,0
2,note_on,61,88,60
2,note_on,49,66,0
2,note_on,54,66,0
2,note_on,58,66,0
2,note_on,58,0,60
2,note_on,61,0,0
2,note_on,49,0,0
2,note_on,54,0,0
2,note_on,61,95,60
2,note_on,49,71,0
2,note_on,54,71,0
2,note_on,58,71,0
2,note_on,58,0,120
2,note_on,61,0,0
2,note_on,49,0,0
2,note_on,54,0,0
2,note_on,54,81,120
2,note_on,46,69,0
2,note_on,49,69,0
2,note_on,49,0,60
2,note_on,46,0,0
2,note_on,54,0,0
2,note_on,53,73,60
2,note_on,45,61,0
2,note_on,48,61,0
2,note_on,48,0,60
2,note_on,45,0,0
2,note_on,53,0,0
2,note_on,53,80,60
2,note_on,45,67,0
2,note_on,48,67,0
2,note_on,48,0,360
2,note_on,45,0,0
2,note_on,53,0,0
2,note_on,27,76,120
2,note_on,39,94,0
2,note_on,39,0,240
2,note_on,27,0,0
2,note_on,58,89,0
2,note_on,46,66,0
2,note_on,51,66,0
2,note_on,54,66,0
2,note_on,54,0,60
2,note_on,58,0,0
2,note_on,46,0,0
2,note_on,51,0,0
2,note_on,58,84,60
2,note_on,46,63,0
2,note_on,51,63,0
2,note_on,54,63,0
2,note_on,54,0,60
2,note_on,58,0,0
2,note_on,46,0,0
2,note_on,51,0,0
2,note_on,58,91,60
2,note_on,46,68,0
2,note_on,51,68,0
2,note_on,54,68,0
2,note_on,54,0,120
2,note_on,58,0,0
2,note_on,46,0,0
2,note_on,51,0,0
2,note_on,42,48,480
2,note_on,30,40,0
2,note_on,30,0,60
2,note_on,42,0,0
2,note_on,47,51,60
2,note_on,35,43,0
2,note_on,35,0,60
2,note_on,47,0,0
2,note_on,44,54,60
2,note_on,32,45,0
2,note_on,32,0,60
2,note_on,44,0,0
2,note_on,49,56,60
2,note_on,37,47,0
2,note_on,37,0,60
2,note_on,49,0,0
2,note_on,42,52,60
2,note_on,30,44,0
2,note_on,30,0,60
2,note_on,42,0,0
2,note_on,47,55,60
2,note_on,35,46,0
2,note_on,35,0,60
2,note_on,47,0,0
2,note_on,44,58,60
2,note_on,32,49,0
2,note_on,32,0,60
2,note_on,44,0,0
2,note_on,49,61,60
2,note_on,37,51,0
2,note_on,37,0,60
2,note_on,49,0,0
2,note_on,42,52,60
2,note_on,30,44,0
2,note_on,30,0,60
2,note_on,42,0,0
2,note_on,47,56,60
2,note_on,35,47,0
2,note_on,35,0,60
2,note_on,47,0,0
2,note_on,44,59,60
2,note_on,32,49,0
2,note_on,32,0,60
2,note_on,44,0,0
2,note_on,49,61,60
2,note_on,37,51,0
2,note_on,37,0,60
2,note_on,49,0,0
2,note_on,42,57,60
2,note_on,30,48,0
2,note_on,30,0,60
2,note_on,42,0,0
2,note_on,47,60,60
2,note_on,35,50,0
2,note_on,35,0,60
2,note_on,47,0,0
2,note_on,44,63,60
2,note_on,32,53,0
2,note_on,32,0,60
2,note_on,44,0,0
2,note_on,49,69,60
2,note_on,37,69,0
2,note_on,37,0,60
2,note_on,49,0,0
2,note_on,42,65,60
2,note_on,30,55,0
2,note_on,30,0,60
2,note_on,42,0,0
2,note_on,47,65,60
2,note_on,35,55,0
2,note_on,35,0,60
2,note_on,47,0,0
2,note_on,44,65,60
2,note_on,32,55,0
2,note_on,32,0,60
2,note_on,44,0,0
2,note_on,49,70,60
2,note_on,37,59,0
2,note_on,37,0,60
2,note_on,49,0,0
2,note_on,44,63,60
2,note_on,32,53,0
2,note_on,32,0,60
2,note_on,44,0,0
2,note_on,49,63,60
2,note_on,37,53,0
2,note_on,37,0,60
2,note_on,49,0,0
2,note_on,44,63,60
2,note_on,32,53,0
2,note_on,32,0,60
2,note_on,44,0,0
2,note_on,49,72,60
2,note_on,37,61,0
2,note_on,37,0,60
2,note_on,49,0,0
2,note_on,44,69,60
2,note_on,32,58,0
2,note_on,32,0,60
2,note_on,44,0,0
2,note_on,49,71,60
2,note_on,37,59,0
2,note_on,37,0,60
2,note_on,49,0,0
2,note_on,44,72,60
2,note_on,32,60,0
2,note_on,32,0,60
2,note_on,44,0,0
2,note_on,49,78,60
2,note_on,37,66,0
2,note_on,37,0,60
2,note_on,49,0,0
2,note_on,44,76,60
2,note_on,32,64,0
2,note_on,32,0,60
2,note_on,44,0,0
2,note_on,49,77,60
2,note_on,37,65,0
2,note_on,37,0,60
2,note_on,49,0,0
2,note_on,44,79,60
2,note_on,32,66,0
2,note_on,32,0,60
2,note_on,44,0,0
2,note_on,49,85,60
2,note_on,37,71,0
2,note_on,37,0,60
2,note_on,49,0,0
2,note_on,46,63,1860
2,note_on,46,0,80
2,note_on,51,55,0
2,note_on,51,0,80
2,note_on,55,55,0
2,note_on,55,0,80
2,note_on,61,62,0
2,note_on,61,0,120
2,note_on,46,63,120
2,note_on,46,0,80
2,note_on,51,55,0
2,note_on,51,0,80
2,note_on,55,55,0
2,note_on,55,0,80
2,note_on,61,62,0
2,note_on,61,0,120
2,note_on,44,63,120
2,note_on,51,59,60
2,note_on,44,0,20
2,note_on,51,0,40
2,note_on,54,59,0
2,note_on,54,0,60
2,note_on,60,59,0
2,note_on,60,0,60
2,note_on,66,62,0
2,note_on,66,0,120
2,note_on,44,62,120
2,note_on,44,0,60
2,note_on,51,58,0
2,note_on,51,0,60
2,note_on,54,58,0
2,note_on,54,0,60
2,note_on,60,58,0
2,note_on,60,0,60
2,note_on,66,62,0
2,note_on,66,0,120
2,note_on,49,62,120
2,note_on,65,62,0
2,note_on,65,0,60
2,note_on,49,0,0
2,note_on,46,63,1860
2,note_on,46,0,60
2,note_on,51,58,0
2,note_on,51,0,60
2,note_on,55,58,0
2,note_on,55,0,60
2,note_on,61,58,0
2,note_on,61,0,60
2,note_on,67,62,0
2,note_on,67,0,120
2,note_on,46,63,120
2,note_on,46,0,80
2,note_on,51,55,0
2,note_on,51,0,80
2,note_on,55,55,0
2,note_on,55,0,80
2,note_on,61,62,0
2,note_on,61,0,120
2,note_on,44,63,120
2,note_on,51,59,60
2,note_on,44,0,20
2,note_on,51,0,40
2,note_on,54,59,0
2,note_on,54,0,60
2,note_on,60,59,0
2,note_on,60,0,60
2,note_on,66,62,0
2,note_on,66,0,120
2,note_on,44,62,120
2,note_on,44,0,80
2,note_on,51,57,0
2,note_on,51,0,80
2,note_on,54,57,0
2,note_on,54,0,80
2,note_on,60,62,0
2,note_on,60,0,120
2,note_on,61,60,120
2,note_on,49,51,0
2,note_on,49,0,60
2,note_on,61,0,0
2,note_on,60,60,60
2,note_on,48,51,0
2,note_on,48,0,60
2,note_on,60,0,0
2,note_on,59,61,60
2,note_on,47,51,0
2,note_on,47,0,60
2,note_on,59,0,0
2,note_on,58,62,60
2,note_on,46,52,0
2,note_on,46,0,60
2,note_on,58,0,0
2,note_on,57,63,60
2,note_on,45,53,0
2,note_on,45,0,60
2,note_on,57,0,0
2,note_on,56,64,60
2,note_on,44,54,0
2,note_on,44,0,60
2,note_on,56,0,0
2,note_on,55,64,60
2,note_on,43,54,0
2,note_on,43,0,60
2,note_on,55,0,0
2,note_on,54,65,60
2,note_on,42,55,0
2,note_on,42,0,60
2,note_on,54,0,0
2,note_on,53,70,60
2,note_on,41,64,0
2,note_on,41,0,120
2,note_on,53,0,0
2,note_on,52,67,0
2,note_on,40,56,0
2,note_on,40,0,120
2,note_on,52,0,0
2,note_on,51,69,0
2,note_on,39,58,0
2,note_on,39,0,240
2,note_on,51,0,0
2,note_on,50,76,0
2,note_on,38,67,0
2,note_on,38,0,120
2,note_on,50,0,0
2,note_on,49,73,0
2,note_on,37,62,0
2,note_on,37,0,120
2,note_on,49,0,0
2,note_on,48,74,0
2,note_on,36,62,0
2,note_on,36,0,240
2,note_on,48,0,0
2,note_on,61,72,0
2,note_on,49,61,0
2,note_on,49,0,60
2,note_on,61,0,0
2,note_on,60,72,60
2,note_on,48,61,0
2,note_on,48,0,60
2,note_on,60,0,0
2,note_on,59,73,60
2,note_on,47,61,0
2,note_on,47,0,60
2,note_on,59,0,0
2,note_on,58,74,60
2,note_on,46,62,0
2,note_on,46,0,60
2,note_on,58,0,0
2,note_on,57,75,60
2,note_on,45,63,0
2,note_on,45,0,60
2,note_on,57,0,0
2,note_on,56,76,60
2,note_on,44,64,0
2,note_on,44,0,60
2,note_on,56,0,0
2,note_on,55,76,60
2,note_on,43,64,0
2,note_on,43,0,60
2,note_on,55,0,0
2,note_on,54,78,60
2,note_on,42,66,0
2,note_on,42,0,60
2,note_on,54,0,0
2,note_on,53,83,60
2,note_on,41,77,0
2,note_on,41,0,60
2,note_on,53,0,0
2,note_on,52,80,60
2,note_on,40,67,0
2,note_on,40,0,60
2,note_on,52,0,0
2,note_on,51,82,60
2,note_on,39,69,0
2,note_on,39,0,240
2,note_on,51,0,0
2,note_on,50,90,0
2,note_on,38,81,0
2,note_on,38,0,60
2,note_on,50,0,0
2,note_on,49,87,60
2,note_on,37,74,0
2,note_on,37,0,60
2,note_on,49,0,0
2,note_on,48,88,60
2,note_on,36,74,0
2,note_on,36,0,240
2,note_on,48,0,0
2,note_on,61,72,0
2,note_on,49,61,0
2,note_on,49,0,60
2,note_on,61,0,0
2,note_on,60,72,60
2,note_on,48,61,0
2,note_on,48,0,60
2,note_on,60,0,0
2,note_on,59,73,60
2,note_on,47,61,0
2,note_on,47,0,60
2,note_on,59,0,0
2,note_on,58,74,60
2,note_on,46,62,0
2,note_on,46,0,60
2,note_on,58,0,0
2,note_on,57,75,60
2,note_on,45,63,0
2,note_on,45,0,60
2,note_on,57,0,0
2,note_on,56,76,60
2,note_on,44,64,0
2,note_on,44,0,60
2,note_on,56,0,0
2,note_on,55,76,60
2,note_on,43,64,0
2,note_on,43,0,60
2,note_on,55,0,0
2,note_on,54,78,60
2,note_on,42,66,0
2,note_on,42,0,60
2,note_on,54,0,0
2,note_on,53,83,60
2,note_on,41,78,0
2,note_on,41,0,60
2,note_on,53,0,0
2,note_on,52,80,60
2,note_on,40,67,0
2,note_on,40,0,60
2,note_on,52,0,0
2,note_on,51,82,60
2,note_on,39,69,0
2,note_on,39,0,240
2,note_on,51,0,0
2,note_on,50,88,0
2,note_on,38,82,0
2,note_on,38,0,60
2,note_on,50,0,0
2,note_on,49,87,60
2,note_on,37,74,0
2,note_on,37,0,60
2,note_on,49,0,0
2,note_on,48,88,60
2,note_on,36,74,0
2,note_on,36,0,240
2,note_on,48,0,0
2,note_on,47,87,0
2,note_on,35,73,0
2,note_on,35,0,60
2,note_on,47,0,0
2,note_on,46,88,60
2,note_on,34,74,0
2,note_on,34,0,60
2,note_on,46,0,0
2,note_on,45,90,60
2,note_on,33,76,0
2,note_on,33,0,60
2,note_on,45,0,0
2,note_on,44,91,60
2,note_on,32,77,0
2,note_on,32,0,60
2,note_on,44,0,0
2,note_on,43,93,60
2,note_on,31,79,0
2,note_on,31,0,60
2,note_on,43,0,0
2,note_on,42,94,60
2,note_on,30,79,0
2,note_on,30,0,60
2,note_on,42,0,0
2,note_on,41,96,60
2,note_on,29,81,0
2,note_on,29,0,240
2,note_on,41,0,0
2,note_on,40,102,0
2,note_on,28,86,0
2,note_on,28,0,120
2,note_on,40,0,0
2,note_on,59,96,120
2,note_on,47,81,0
2,note_on,47,0,120
2,note_on,59,0,0
2,note_on,52,97,120
2,note_on,40,82,0
2,note_on,40,0,120
2,note_on,52,0,0
2,note_on,71,94,120
2,note_on,59,79,0
2,note_on,59,0,120
2,note_on,71,0,0
2,note_on,40,102,120
2,note_on,28,86,0
2,note_on,28,0,120
2,note_on,40,0,0
2,note_on,59,96,120
2,note_on,47,81,0
2,note_on,47,0,120
2,note_on,59,0,0
2,note_on,52,97,120
2,note_on,40,82,0
2,note_on,40,0,120
2,note_on,52,0,0
2,note_on,71,94,120
2,note_on,59,79,0
2,note_on,59,0,120
2,note_on,71,0,0
2,note_on,40,102,120
2,note_on,28,86,0
2,note_on,28,0,120
2,note_on,40,0,0
2,note_on,59,96,120
2,note_on,47,81,0
2,note_on,47,0,120
2,note_on,59,0,0
2,note_on,52,97,120
2,note_on,40,82,0
2,note_on,40,0,120
2,note_on,52,0,0
2,note_on,71,94,120
2,note_on,59,79,0
2,note_on,59,0,120
2,note_on,71,0,0
2,note_on,47,102,120
2,note_on,35,86,0
2,note_on,35,0,120
2,note_on,47,0,0
2,note_on,66,96,120
2,note_on,54,81,0
2,note_on,54,0,120
2,note_on,66,0,0
2,note_on,45,97,120
2,note_on,33,82,0
2,note_on,33,0,120
2,note_on,45,0,0
2,note_on,66,94,120
2,note_on,54,79,0
2,note_on,54,0,120
2,note_on,66,0,0
2,note_on,44,104,120
2,note_on,32,88,0
2,note_on,32,0,120
2,note_on,44,0,0
2,note_on,55,88,0
2,note_on,43,74,0
2,note_on,43,0,120
2,note_on,55,0,0
2,note_on,56,94,0
2,note_on,44,79,0
2,note_on,44,0,120
2,note_on,56,0,0
2,note_on,67,94,0
2,note_on,55,79,0
2,note_on,55,0,120
2,note_on,67,0,0
2,note_on,68,99,0
2,note_on,56,84,0
2,note_on,56,0,120
2,note_on,68,0,0
2,note_on,55,89,0
2,note_on,43,75,0
2,note_on,43,0,120
2,note_on,55,0,0
2,note_on,56,93,0
2,note_on,44,79,0
2,note_on,44,0,240
2,note_on,56,0,0
2,note_on,44,101,0
2,note_on,32,85,0
2,note_on,32,0,120
2,note_on,44,0,0
2,note_on,55,88,0
2,note_on,43,74,0
2,note_on,43,0,120
2,note_on,55,0,0
2,note_on,56,94,0
2,note_on,44,79,0
2,note_on,44,0,120
2,note_on,56,0,0
2,note_on,67,94,0
2,note_on,55,79,0
2,note_on,55,0,120
2,note_on,67,0,0
2,note_on,68,99,0
2,note_on,56,84,0
2,note_on,56,0,120
2,note_on,68,0,0
2,note_on,55,89,0
2,note_on,43,75,0
2,note_on,43,0,120
2,note_on,55,0,0
2,note_on,56,93,0
2,note_on,44,79,0
2,note_on,44,0,240
2,note_on,56,0,0
2,note_on,42,107,0
2,note_on,30,90,0
2,note_on,30,0,120
2,note_on,42,0,0
2,note_on,57,88,0
2,note_on,45,74,0
2,note_on,45,0,120
2,note_on,57,0,0
2,note_on,58,94,0
2,note_on,46,79,0
2,note_on,46,0,240
2,note_on,58,0,0
2,note_on,41,106,0
2,note_on,29,90,0
2,note_on,29,0,120
2,note_on,41,0,0
2,note_on,61,89,0
2,note_on,49,75,0
2,note_on,49,0,120
2,note_on,61,0,0
2,note_on,62,93,0
2,note_on,50,79,0
2,note_on,50,0,240
2,note_on,62,0,0
2,note_on,39,115,0
2,note_on,27,97,0
2,note_on,27,0,120
2,note_on,39,0,0
2,note_on,57,88,0
2,note_on,45,74,0
2,note_on,45,0,120
2,note_on,57,0,0
2,note_on,58,94,0
2,note_on,46,79,0
2,note_on,46,0,120
2,note_on,58,0,0
2,note_on,69,94,0
2,note_on,57,79,0
2,note_on,57,0,120
2,note_on,69,0,0
2,note_on,70,99,0
2,note_on,58,84,0
2,note_on,58,0,120
2,note_on,70,0,0
2,note_on,57,89,0
2,note_on,45,75,0
2,note_on,45,0,120
2,note_on,57,0,0
2,note_on,58,93,0
2,note_on,46,79,0
2,note_on,46,0,240
2,note_on,58,0,0
2,note_on,42,108,0
2,note_on,30,91,0
2,note_on,30,0,120
2,note_on,42,0,0
2,note_on,60,88,0
2,note_on,48,74,0
2,note_on,48,0,120
2,note_on,60,0,0
2,note_on,61,94,0
2,note_on,49,79,0
2,note_on,49,0,120
2,note_on,61,0,0
2,note_on,72,94,0
2,note_on,60,79,0
2,note_on,60,0,120
2,note_on,72,0,0
2,note_on,73,99,0
2,note_on,61,84,0
2,note_on,61,0,120
2,note_on,73,0,0
2,note_on,60,89,0
2,note_on,48,75,0
2,note_on,48,0,120
2,note_on,60,0,0
2,note_on,61,93,0
2,note_on,49,79,0
2,note_on,49,0,240
2,note_on,61,0,0
2,note_on,44,105,0
2,note_on,32,89,0
2,note_on,32,0,120
2,note_on,44,0,0
2,note_on,55,88,0
2,note_on,43,74,0
2,note_on,43,0,120
2,note_on,55,0,0
2,note_on,56,94,0
2,note_on,44,79,0
2,note_on,44,0,120
2,note_on,56,0,0
2,note_on,67,94,0
2,note_on,55,79,0
2,note_on,55,0,120
2,note_on,67,0,0
2,note_on,68,99,0
2,note_on,56,84,0
2,note_on,56,0,120
2,note_on,68,0,0
2,note_on,65,79,240
2,note_on,77,79,0
2,note_on,77,0,120
2,note_on,65,0,0
2,note_on,78,100,0
2,note_on,66,85,0
2,note_on,66,0,120
2,note_on,78,0,0
2,note_on,74,72,240
2,note_on,62,60,0
2,note_on,62,0,120
2,note_on,74,0,0
2,note_on,75,76,0
2,note_on,63,64,0
2,note_on,63,0,120
2,note_on,75,0,0
2,note_on,71,69,0
2,note_on,59,59,0
2,note_on,59,0,120
2,note_on,71,0,0
2,note_on,72,75,0
2,note_on,60,63,0
2,note_on,60,0,120
2,note_on,72,0,0
2,note_on,67,69,0
2,note_on,55,59,0
2,note_on,55,0,120
2,note_on,67,0,0
2,note_on,68,75,0
2,note_on,56,63,0
2,note_on,56,0,120
2,note_on,68,0,0
2,note_on,65,68,0
2,note_on,53,57,0
2,note_on,53,0,120
2,note_on,65,0,0
2,note_on,66,72,0
2,note_on,54,61,0
2,note_on,54,0,120
2,note_on,66,0,0
2,note_on,62,67,0
2,note_on,50,57,0
2,note_on,50,0,120
2,note_on,62,0,0
2,note_on,63,73,0
2,note_on,51,62,0
2,note_on,51,0,120
2,note_on,63,0,0
2,note_on,59,66,0
2,note_on,47,55,0
2,note_on,47,0,120
2,note_on,59,0,0
2,note_on,60,72,0
2,note_on,48,60,0
2,note_on,48,0,120
2,note_on,60,0,0
2,note_on,55,68,0
2,note_on,43,56,0
2,note_on,43,0,120
2,note_on,55,0,0
2,note_on,56,71,0
2,note_on,44,60,0
2,note_on,44,0,120
2,note_on,56,0,0
2,note_on,53,69,0
2,note_on,41,58,0
2,note_on,41,0,120
2,note_on,53,0,0
2,note_on,54,74,0
2,note_on,42,62,0
2,note_on,42,0,120
2,note_on,54,0,0
2,note_on,50,70,0
2,note_on,38,60,0
2,note_on,38,0,120
2,note_on,50,0,0
2,note_on,51,77,0
2,note_on,39,64,0
2,note_on,39,0,120
2,note_on,51,0,0
2,note_on,47,74,0
2,note_on,35,62,0
2,note_on,35,0,120
2,note_on,47,0,0
2,note_on,48,80,0
2,note_on,36,67,0
2,note_on,36,0,120
2,note_on,48,0,0
2,note_on,44,75,0
2,note_on,32,64,0
2,note_on,39,64,0
2,note_on,39,0,120
2,note_on,32,0,0
2,note_on,44,0,0
2,note_on,42,80,0
2,note_on,33,68,0
2,note_on,33,0,60
2,note_on,42,0,0
2,note_on,45,75,0
2,note_on,45,0,60
2,note_on,42,80,0
2,note_on,33,68,0
2,note_on,33,0,60
2,note_on,42,0,0
2,note_on,45,74,0
2,note_on,45,0,60
2,note_on,42,74,0
2,note_on,33,62,0
2,note_on,33,0,60
2,note_on,42,0,0
2,note_on,45,80,0
2,note_on,45,0,60
2,note_on,42,74,0
2,note_on,33,62,0
2,note_on,33,0,60
2,note_on,42,0,0
2,note_on,45,80,0
2,note_on,45,0,30
2,note_on,33,73,0
2,note_on,42,73,15
2,note_on,45,73,15
2,note_on,45,0,240
2,note_on,42,0,0
2,note_on,33,0,0
2,note_on,37,80,240
2,note_on,30,68,0
2,note_on,30,0,60
2,note_on,37,0,0
2,note_on,42,75,0
2,note_on,42,0,60
2,note_on,37,80,0
2,note_on,30,68,0
2,note_on,30,0,60
2,note_on,37,0,0
2,note_on,42,74,0
2,note_on,42,0,60
2,note_on,37,74,0
2,note_on,30,62,0
2,note_on,30,0,60
2,note_on,37,0,0
2,note_on,42,80,0
2,note_on,42,0,60
2,note_on,37,74,0
2,note_on,30,62,0
2,note_on,30,0,60
2,note_on,37,0,0
2,note_on,42,80,0
2,note_on,42,0,30
2,note_on,30,73,0
2,note_on,37,73,15
2,note_on,42,73,15
2,note_on,42,0,240
2,note_on,37,0,0
2,note_on,30,0,0
2,note_on,25,68,240
2,note_on,37,73,0
2,note_on,37,0,240
2,note_on,25,0,0
2,note_on,66,79,240
2,note_on,61,67,0
2,note_on,57,67,0
2,note_on,54,67,0
2,note_on,54,0,240
2,note_on,66,0,0
2,note_on,61,0,0
2,note_on,57,0,0
2,note_on,61,79,240
2,note_on,49,67,0
2,note_on,53,67,0
2,note_on,56,67,0
2,note_on,56,0,240
2,note_on,61,0,0
2,note_on,49,0,0
2,note_on,53,0,0
2,note_on,56,79,0
2,note_on,44,67,0
2,note_on,48,67,0
2,note_on,51,67,0
2,note_on,51,0,240
2,note_on,56,0,0
2,note_on,44,0,0
2,note_on,48,0,0
2,note_on,49,79,0
2,note_on,37,67,0
2,note_on,41,67,0
2,note_on,44,67,0
2,note_on,44,0,240
2,note_on,49,0,0
2,note_on,37,0,0
2,note_on,41,0,0
2,note_on,44,79,0
2,note_on,32,67,0
2,note_on,36,67,0
2,note_on,39,67,0
2,note_on,39,0,240
2,note_on,44,0,0
2,note_on,32,0,0
2,note_on,36,0,0
2,note_on,49,79,0
2,note_on,37,67,0
2,note_on,41,67,0
2,note_on,44,67,0
2,note_on,44,0,240
2,note_on,49,0,0
2,note_on,37,0,0
2,note_on,41,0,0
2,note_on,66,82,720
2,note_on,61,70,0
2,note_on,58,70,0
2,note_on,54,70,0
2,note_on,54,0,240
2,note_on,66,0,0
2,note_on,61,0,0
2,note_on,58,0,0
2,note_on,49,86,720
2,note_on,37,73,0
2,note_on,41,73,0
2,note_on,44,77,0
2,note_on,44,0,240
2,note_on,49,0,0
2,note_on,37,0,0
2,note_on,41,0,0
3,note_on,40,39,355
3,note_on,47,44,15
3,note_on,50,47,15
3,note_on,56,51,15
3,note_on,56,0,300
3,note_on,40,0,0
3,note_on,47,0,0
3,note_on,50,0,0
3,note_on,40,39,266
3,note_on,47,44,15
3,note_on,50,47,15
3,note_on,56,51,15
3,note_on,56,0,300
3,note_on,40,0,0
3,note_on,47,0,0
3,note_on,50,0,0
3,note_on,40,39,329
3,note_on,47,44,15
3,note_on,50,47,15
3,note_on,54,51,15
3,note_on,54,0,300
3,note_on,40,0,0
3,note_on,47,0,0
3,note_on,50,0,0
3,note_on,40,39,235
3,note_on,47,44,15
3,note_on,50,47,15
3,note_on,56,51,15
3,note_on,56,0,300
3,note_on,40,0,0
3,note_on,47,0,0
3,note_on,50,0,0
3,note_on,40,43,286
3,note_on,49,47,15
3,note_on,52,50,15
3,note_on,57,54,15
3,note_on,57,0,300
3,note_on,40,0,0
3,note_on,49,0,0
3,note_on,52,0,0
3,note_on,40,43,266
3,note_on,49,47,15
3,note_on,52,50,15
3,note_on,57,54,15
3,note_on,57,0,300
3,note_on,40,0,0
3,note_on,49,0,0
3,note_on,52,0,0
3,note_on,40,43,275
3,note_on,48,47,15
3,note_on,51,50,15
3,note_on,57,54,15
3,note_on,57,0,300
3,note_on,40,0,0
3,note_on,48,0,0
3,note_on,51,0,0
3,note_on,40,43,235
3,note_on,49,47,15
3,note_on,52,50,15
3,note_on,57,54,15
3,note_on,57,0,300
3,note_on,40,0,0
3,note_on,49,0,0
3,note_on,52,0,0
3,note_on,39,48,150
3,note_on,49,49,15
3,note_on,54,51,15
3,note_on,54,0,240
3,note_on,49,0,0
3,note_on,39,0,0
3,note_on,91,47,0
3,note_on,91,0,58
3,note_on,92,47,0
3,note_on,92,0,58
3,note_on,94,47,0
3,note_on,92,47,27
3,note_on,94,0,1
3,note_on,92,0,42
3,note_on,94,42,0
3,note_on,94,0,43
3,note_on,92,47,0
3,note_on,92,0,43
3,note_on,94,40,1
3,note_on,94,0,43
3,note_on,92,47,0
3,note_on,92,0,43
3,note_on,94,41,0
3,note_on,94,0,43
3,note_on,92,47,0
3,note_on,92,0,43
3,note_on,94,41,0
3,note_on,94,0,43
3,note_on,92,47,1
3,note_on,92,0,43
3,note_on,94,41,0
3,note_on,94,0,43
3,note_on,92,47,0
3,note_on,92,0,43
3,note_on,94,42,0
3,note_on,94,0,43
3,note_on,92,47,0
3,note_on,92,0,43
3,note_on,94,41,1
3,note_on,94,0,43
3,note_on,92,47,0
3,note_on,92,0,43
3,note_on,94,41,0
3,note_on,94,0,43
3,note_on,92,47,0
3,note_on,92,0,43
3,note_on,94,42,0
3,note_on,94,0,43
3,note_on,92,47,10
3,note_on,92,0,43
3,note_on,94,41,0
3,note_on,94,0,43
3,note_on,92,47,1
3,note_on,92,0,43
3,note_on,94,41,0
3,note_on,94,0,43
3,note_on,92,47,0
3,note_on,92,0,43
3,note_on,94,42,0
3,note_on,94,0,43
3,note_on,92,47,0
3,note_on,92,0,43
3,note_on,94,40,1
3,note_on,94,0,43
3,note_on,92,47,0
3,note_on,92,0,43
3,note_on,94,41,0
3,note_on,94,0,43
3,note_on,92,47,0
3,note_on,92,0,43
3,note_on,94,41,0
3,note_on,94,0,43
3,note_on,92,47,1
3,note_on,92,0,43
3,note_on,94,41,0
3,note_on,94,0,43
3,note_on,92,47,0
3,note_on,92,0,43
3,note_on,94,42,0
3,note_on,94,0,43
3,note_on,92,47,0
3,note_on,92,0,43
3,note_on,94,41,1
3,note_on,94,0,43
3,note_on,92,47,0
3,note_on,92,0,43
3,note_on,94,41,0
3,note_on,94,0,43
3,note_on,92,47,0
3,note_on,92,0,43
3,note_on,94,42,0
3,note_on,94,0,43
3,note_on,92,47,10
3,note_on,92,0,21
3,note_on,94,41,0
3,note_on,94,0,26
3,note_on,92,47,1
3,note_on,92,0,43
3,note_on,94,41,0
3,note_on,94,0,43
3,note_on,92,47,0
3,note_on,92,0,43
3,note_on,94,42,0
3,note_on,94,0,43
3,note_on,92,47,0
3,note_on,92,0,43
3,note_on,94,40,1
3,note_on,94,0,43
3,note_on,92,47,0
3,note_on,92,0,43
3,note_on,94,41,0
3,note_on,94,0,43
3,note_on,92,47,0
3,note_on,92,0,43
3,note_on,94,41,0
3,note_on,94,0,32
3,note_on,92,47,1
3,note_on,92,0,43
3,note_on,94,41,0
3,note_on,94,0,43
3,note_on,92,47,0
3,note_on,92,0,43
3,note_on,94,42,0
3,note_on,94,0,43
3,note_on,92,47,0
3,note_on,92,0,43
3,note_on,94,41,1
3,note_on,94,0,43
3,note_on,92,47,0
3,note_on,92,0,43
3,note_on,94,41,0
3,note_on,94,0,43
3,note_on,92,47,0
3,note_on,92,0,43
3,note_on,94,42,0
3,note_on,94,0,43
3,note_on,92,47,10
3,note_on,92,0,34
3,note_on,94,41,0
3,note_on,94,0,43
3,note_on,92,47,1
3,note_on,92,0,43
3,note_on,94,41,0
3,note_on,94,0,43
3,note_on,92,47,0
3,note_on,92,0,43
3,note_on,94,42,0
3,note_on,94,0,43
3,note_on,92,47,0
3,note_on,92,0,43
3,note_on,94,40,1
3,note_on,94,0,43
3,note_on,92,47,0
3,note_on,92,0,43
3,note_on,94,41,0
3,note_on,94,0,43
3,note_on,92,47,0
3,note_on,92,0,43
3,note_on,94,41,0
3,note_on,94,0,43
3,note_on,92,47,1
3,note_on,92,0,43
3,note_on,94,41,0
3,note_on,94,0,43
3,note_on,92,47,0
3,note_on,92,0,55
3,note_on,94,42,0
3,note_on,94,0,60
3,note_on,92,47,0
3,note_on,92,0,60
3,note_on,94,42,0
3,note_on,94,0,60
3,note_on,94,64,108
3,note_on,94,0,8
3,note_on,96,41,0
3,note_on,96,0,43
3,note_on,94,47,1
3,note_on,94,0,43
3,note_on,96,41,0
3,note_on,96,0,43
3,note_on,94,47,0
3,note_on,94,0,43
3,note_on,96,42,0
3,note_on,96,0,43
3,note_on,94,61,0
3,note_on,94,0,43
3,note_on,96,40,1
3,note_on,96,0,43
3,note_on,94,47,0
3,note_on,94,0,43
3,note_on,96,41,0
3,note_on,96,0,43
3,note_on,94,47,0
3,note_on,94,0,43
3,note_on,96,41,0
3,note_on,96,0,3
3,note_on,94,47,1
3,note_on,94,0,43
3,note_on,96,41,0
3,note_on,96,0,43
3,note_on,94,47,0
3,note_on,94,0,43
3,note_on,96,42,0
3,note_on,96,0,43
3,note_on,94,47,0
3,note_on,94,0,43
3,note_on,96,41,1
3,note_on,96,0,43
3,note_on,94,47,0
3,note_on,94,0,43
3,note_on,96,41,0
3,note_on,96,0,43
3,note_on,94,47,0
3,note_on,94,0,43
3,note_on,96,42,0
3,note_on,96,0,43
3,note_on,94,47,10
3,note_on,94,0,6
3,note_on,96,41,0
3,note_on,96,0,43
3,note_on,94,47,1
3,note_on,94,0,43
3,note_on,96,41,0
3,note_on,96,0,43
3,note_on,94,47,0
3,note_on,94,0,43
3,note_on,96,42,0
3,note_on,96,0,43
3,note_on,94,47,0
3,note_on,94,0,43
3,note_on,96,40,1
3,note_on,96,0,43
3,note_on,94,47,0
3,note_on,94,0,43
3,note_on,96,41,0
3,note_on,96,0,43
3,note_on,94,47,0
3,note_on,94,0,43
3,note_on,96,41,0
3,note_on,96,0,43
3,note_on,94,47,1
3,note_on,94,0,43
3,note_on,96,41,0
3,note_on,96,0,43
3,note_on,94,47,0
3,note_on,94,0,43
3,note_on,96,42,0
3,note_on,96,0,43
3,note_on,94,47,0
3,note_on,94,0,43
3,note_on,96,41,1
3,note_on,96,0,43
3,note_on,97,70,0
3,note_on,97,0,43
3,note_on,99,41,0
3,note_on,99,0,43
3,note_on,97,47,1
3,note_on,97,0,43
3,note_on,99,41,0
3,note_on,99,0,43
3,note_on,97,47,0
3,note_on,97,0,43
3,note_on,99,42,0
3,note_on,99,0,43
3,note_on,97,66,0
3,note_on,97,0,43
3,note_on,99,40,1
3,note_on,99,0,43
3,note_on,97,47,0
3,note_on,97,0,43
3,note_on,99,41,0
3,note_on,99,0,43
3,note_on,97,47,0
3,note_on,97,0,43
3,note_on,99,41,0
3,note_on,99,0,29
3,note_on,97,47,1
3,note_on,97,0,34
3,note_on,99,41,0
3,note_on,99,0,43
3,note_on,97,47,0
3,note_on,97,0,43
3,note_on,99,42,0
3,note_on,99,0,43
3,note_on,97,47,0
3,note_on,97,0,43
3,note_on,99,41,1
3,note_on,99,0,43
3,note_on,97,47,0
3,note_on,97,0,43
3,note_on,99,41,0
3,note_on,99,0,43
3,note_on,97,47,0
3,note_on,97,0,43
3,note_on,99,42,0
3,note_on,99,0,43
3,note_on,97,47,10
3,note_on,97,0,9
3,note_on,99,41,0
3,note_on,99,0,43
3,note_on,97,47,1
3,note_on,97,0,43
3,note_on,99,41,0
3,note_on,99,0,43
3,note_on,97,47,0
3,note_on,97,0,43
3,note_on,99,42,0
3,note_on,99,0,43
3,note_on,97,47,0
3,note_on,97,0,43
3,note_on,99,40,1
3,note_on,99,0,43
3,note_on,97,47,0
3,note_on,97,0,43
3,note_on,99,41,0
3,note_on,99,0,43
3,note_on,97,47,0
3,note_on,97,0,43
3,note_on,99,41,0
3,note_on,99,0,43
3,note_on,97,47,1
3,note_on,97,0,43
3,note_on,99,41,0
3,note_on,99,0,43
3,note_on,97,47,0
3,note_on,97,0,43
3,note_on,99,42,0
3,note_on,99,0,43
3,note_on,97,47,0
3,note_on,97,0,43
3,note_on,99,41,0
3,note_on,99,0,4
3,note_on,94,47,920
3,note_on,94,0,20
3,note_on,96,41,0
3,note_on,94,47,39
3,note_on,96,0,12
3,note_on,96,41,48
3,note_on,94,0,12
3,note_on,94,47,48
3,note_on,96,0,12
3,note_on,94,0,48
3,note_on,96,41,0
3,note_on,94,47,60
3,note_on,96,0,12
3,note_on,96,41,48
3,note_on,94,0,12
3,note_on,94,47,48
3,note_on,96,0,12
3,note_on,94,0,48
3,note_on,96,41,0
3,note_on,94,47,60
3,note_on,96,0,12
3,note_on,96,41,48
3,note_on,94,0,12
3,note_on,94,47,48
3,note_on,96,0,12
3,note_on,94,0,48
3,note_on,96,41,0
3,note_on,94,47,60
3,note_on,96,0,12
3,note_on,96,41,48
3,note_on,94,0,12
3,note_on,94,47,48
3,note_on,96,0,12
3,note_on,94,0,48
3,note_on,96,41,0
3,note_on,94,47,60
3,note_on,96,0,12
3,note_on,96,41,48
3,note_on,94,0,12
3,note_on,94,47,48
3,note_on,96,0,12
3,note_on,94,0,48
3,note_on,96,41,0
3,note_on,94,47,60
3,note_on,96,0,12
3,note_on,96,41,48
3,note_on,94,0,12
3,note_on,94,47,48
3,note_on,96,0,12
3,note_on,94,0,48
3,note_on,96,41,0
3,note_on,94,47,60
3,note_on,96,0,12
3,note_on,96,41,48
3,note_on,94,0,12
3,note_on,93,48,48
3,note_on,96,0,12
3,note_on,93,0,40
3,note_on,94,49,0
3,note_on,95,51,60
3,note_on,94,0,12
3,note_on,96,52,48
3,note_on,95,0,11
3,note_on,97,66,49
3,note_on,96,0,12
3,note_on,97,0,7
3,note_on,99,47,0
3,note_on,97,54,60
3,note_on,99,0,12
3,note_on,99,48,48
3,note_on,97,0,12
3,note_on,97,54,48
3,note_on,99,0,12
3,note_on,97,0,48
3,note_on,99,47,0
3,note_on,97,52,60
3,note_on,99,0,12
3,note_on,99,47,48
3,note_on,97,0,12
3,note_on,97,59,48
3,note_on,99,0,12
3,note_on,97,0,48
3,note_on,99,47,0
3,note_on,97,54,60
3,note_on,99,0,12
3,note_on,99,48,48
3,note_on,97,0,12
3,note_on,97,52,48
3,note_on,99,0,12
3,note_on,97,0,48
3,note_on,99,47,0
3,note_on,97,51,60
3,note_on,99,0,12
3,note_on,99,48,48
3,note_on,97,0,12
3,note_on,97,54,48
3,note_on,99,0,12
3,note_on,97,0,3
3,note_on,99,46,0
3,note_on,97,52,60
3,note_on,99,0,12
3,note_on,99,46,48
3,note_on,97,0,12
3,note_on,97,52,48
3,note_on,99,0,12
3,note_on,97,0,48
3,note_on,99,44,0
3,note_on,97,52,60
3,note_on,99,0,12
3,note_on,99,46,48
3,note_on,97,0,12
3,note_on,97,52,48
3,note_on,99,0,12
3,note_on,97,0,48
3,note_on,99,44,0
3,note_on,97,51,60
3,note_on,99,0,12
3,note_on,99,44,48
3,note_on,97,0,12
3,note_on,97,50,48
3,note_on,99,0,12
3,note_on,97,0,48
3,note_on,99,46,0
3,note_on,97,51,60
3,note_on,99,0,12
3,note_on,99,46,48
3,note_on,97,0,12
3,note_on,97,52,48
3,note_on,99,0,12
3,note_on,97,0,14
3,note_on,99,44,0
3,note_on,97,51,60
3,note_on,99,0,12
3,note_on,99,43,48
3,note_on,97,0,12
3,note_on,97,50,48
3,note_on,99,0,12
3,note_on,97,0,48
3,note_on,99,43,0
3,note_on,97,50,60
3,note_on,99,0,12
3,note_on,99,43,48
3,note_on,97,0,12
3,note_on,97,49,48
3,note_on,99,0,12
3,note_on,97,0,48
3,note_on,99,43,0
3,note_on,97,50,60
3,note_on,99,0,12
3,note_on,99,43,48
3,note_on,97,0,12
3,note_on,97,50,48
3,note_on,99,0,12
3,note_on,97,0,48
3,note_on,99,44,0
3,note_on,97,49,60
3,note_on,99,0,12
3,note_on,99,42,48
3,note_on,97,0,12
3,note_on,97,50,0
3,note_on,99,0,12
3,note_on,97,0,20
3,note_on,99,46,0
3,note_on,97,50,60
3,note_on,99,0,12
3,note_on,99,44,48
3,note_on,97,0,12
3,note_on,97,47,48
3,note_on,99,0,12
3,note_on,97,0,48
3,note_on,99,41,0
3,note_on,97,47,60
3,note_on,99,0,12
3,note_on,99,41,48
3,note_on,97,0,12
3,note_on,97,47,48
3,note_on,99,0,12
3,note_on,97,0,68
3,note_on,99,41,0
3,note_on,99,0,80
3,note_on,97,49,0
3,note_on,97,0,80
3,note_on,96,53,0
3,note_on,96,0,71
3,note_on,97,58,0
3,note_on,97,0,80
3,note_on,98,62,0
3,note_on,98,0,80
3,note_on,82,36,920
3,note_on,82,0,40
3,note_on,84,32,0
3,note_on,82,36,39
3,note_on,84,0,12
3,note_on,84,32,48
3,note_on,82,0,12
3,note_on,82,36,48
3,note_on,84,0,12
3,note_on,82,0,48
3,note_on,84,32,0
3,note_on,82,36,60
3,note_on,84,0,12
3,note_on,84,32,48
3,note_on,82,0,12
3,note_on,82,36,48
3,note_on,84,0,12
3,note_on,82,0,48
3,note_on,84,32,0
3,note_on,82,36,60
3,note_on,84,0,12
3,note_on,84,32,48
3,note_on,82,0,12
3,note_on,82,36,48
3,note_on,84,0,12
3,note_on,82,0,48
3,note_on,84,32,0
3,note_on,82,36,60
3,note_on,84,0,12
3,note_on,84,32,48
3,note_on,82,0,12
3,note_on,84,0,12
3,note_on,92,60,450
3,note_on,92,0,28
3,note_on,94,54,0
3,note_on,94,0,60
3,note_on,92,60,0
3,note_on,92,0,60
3,note_on,94,54,0
3,note_on,94,0,60
3,note_on,92,60,0
3,note_on,92,0,60
3,note_on,94,54,0
3,note_on,94,0,60
3,note_on,92,54,0
3,note_on,92,0,60
3,note_on,94,54,0
3,note_on,94,0,60
3,note_on,92,60,0
3,note_on,92,0,17
3,note_on,94,54,0
3,note_on,94,0,60
3,note_on,92,60,0
3,note_on,92,0,60
3,note_on,94,54,0
3,note_on,94,0,60
3,note_on,92,60,1
3,note_on,94,54,59
3,note_on,92,0,1
3,note_on,94,0,59
3,note_on,92,54,0
3,note_on,92,0,60
3,note_on,94,54,0
3,note_on,94,0,60
3,note_on,92,60,0
3,note_on,92,0,25
3,note_on,94,54,0
3,note_on,94,0,60
3,note_on,92,60,0
3,note_on,92,0,60
3,note_on,94,54,0
3,note_on,94,0,60
3,note_on,92,60,0
3,note_on,92,0,60
3,note_on,94,54,0
3,note_on,94,0,60
3,note_on,92,54,0
3,note_on,92,0,60
3,note_on,94,54,0
3,note_on,94,0,60
3,note_on,92,60,0
3,note_on,92,0,60
3,note_on,94,54,0
3,note_on,94,0,60
3,note_on,92,60,0
3,note_on,92,0,60
3,note_on,94,54,0
3,note_on,94,0,60
3,note_on,92,60,0
3,note_on,92,0,60
3,note_on,94,54,0
3,note_on,94,0,60
3,note_on,92,54,0
3,note_on,92,0,60
3,note_on,94,54,0
3,note_on,94,0,60
3,note_on,92,60,0
3,note_on,92,0,25
3,note_on,94,54,0
3,note_on,94,0,60
3,note_on,92,60,0
3,note_on,92,0,60
3,note_on,94,54,0
3,note_on,94,0,60
3,note_on,92,60,0
3,note_on,92,0,60
3,note_on,94,54,0
3,note_on,94,0,60
3,note_on,92,54,0
3,note_on,92,0,60
3,note_on,94,54,0
3,note_on,94,0,60
3,note_on,92,60,0
3,note_on,92,0,23
3,note_on,94,54,0
3,note_on,94,0,60
3,note_on,92,60,0
3,note_on,92,0,60
3,note_on,94,54,0
3,note_on,94,0,60
3,note_on,92,60,0
3,note_on,92,0,60
3,note_on,94,55,0
3,note_on,94,0,60
3,note_on,92,55,0
3,note_on,92,0,60
3,note_on,94,55,0
3,note_on,94,0,60
3,note_on,92,61,0
3,note_on,92,0,25
3,note_on,94,56,0
3,note_on,94,0,60
3,note_on,92,62,0
3,note_on,92,0,60
3,note_on,94,56,0
3,note_on,94,0,60
3,note_on,92,63,0
3,note_on,92,0,60
3,note_on,94,57,0
3,note_on,94,0,60
3,note_on,92,57,0
3,note_on,92,0,60
3,note_on,94,57,0
3,note_on,94,0,60
3,note_on,92,64,0
3,note_on,92,0,60
3,note_on,94,58,0
3,note_on,94,0,60
3,note_on,92,64,0
3,note_on,92,0,60
3,note_on,94,58,0
3,note_on,94,0,60
3,note_on,92,65,0
3,note_on,92,0,60
3,note_on,94,59,0
3,note_on,94,0,60
3,note_on,92,59,0
3,note_on,92,0,60
3,note_on,94,59,0
3,note_on,94,0,60
